<?xml version="1.0" encoding="utf-8"?>
<!-- Generator: Adobe Illustrator 26.3.1, SVG Export Plug-In . SVG Version: 6.00 Build 0)  -->
<svg version="1.1" id="Layer_1" xmlns="http://www.w3.org/2000/svg" xmlns:xlink="http://www.w3.org/1999/xlink" x="0px" y="0px"
	 viewBox="0 0 3839 1312.4" style="enable-background:new 0 0 3839 1312.4;" xml:space="preserve">
<style type="text/css">
	.st0{fill:#FFFFFF;}
	.st1{fill:#009971;}
</style>
<g>
	<g>
		<g>
			<path class="st0" d="M1842.8,978.4c-7.6,0-14-5.8-14.7-13.5l-0.8-8.9c-4.5-48.5-26.9-93.5-63-126.7
				c-36.3-33.3-83.5-51.6-133-51.6s-96.7,18.3-133,51.6c-36.2,33.1-58.5,78.1-63,126.7l-0.8,8.8c-0.7,7.6-7.1,13.5-14.7,13.5h-96.9
				c-4.1,0-8-1.7-10.8-4.7c-2.8-3-4.2-7-4-11.1l0.7-10.4c5.6-81.6,41.6-157.5,101.4-213.6c60.1-56.4,138.7-87.5,221.1-87.5
				s161,31.1,221.1,87.5c59.8,56.1,95.8,132,101.4,213.6l0.7,10.5c0.3,4.1-1.2,8.1-4,11.1c-2.8,3-6.7,4.7-10.8,4.7H1842.8z"/>
			<path class="st0" d="M1631.4,665.9c78.7,0,153.6,29.6,211,83.5c57.1,53.6,91.5,125.9,96.8,203.8l0.7,10.4h-10.4h-77.7h-9
				l-0.8-8.9c-4.8-52.3-28.9-100.6-67.7-136.3c-39.1-35.8-89.9-55.5-143-55.5c-53.1,0-103.9,19.7-143,55.5
				c-38.9,35.6-62.9,84-67.7,136.3l-0.8,8.9h-9h-77.5h-10.4l0.7-10.4c5.3-77.9,39.7-150.2,96.8-203.8
				C1477.8,695.5,1552.7,665.9,1631.4,665.9 M1631.4,636.3c-86.2,0-168.3,32.5-231.2,91.5c-62.6,58.7-100.2,138-106,223.3
				c0,0,0,0,0,0.1l-0.7,10.4c-0.5,8.2,2.3,16.2,7.9,22.1c5.6,6,13.4,9.4,21.6,9.4h10.4h77.5h9c15.3,0,28.1-11.7,29.4-26.9l0.8-8.8
				c4.2-44.9,24.9-86.5,58.3-117.2c33.6-30.8,77.3-47.8,123-47.8c45.7,0,89.4,17,123,47.8c33.4,30.7,54.1,72.3,58.3,117.2l0.8,8.8
				c1.4,15.2,14.1,26.9,29.4,26.9h9h77.7h10.4c8.2,0,16-3.4,21.6-9.4c5.6-6,8.4-14,7.9-22.1l-0.7-10.4c0,0,0,0,0-0.1
				c-5.8-85.3-43.5-164.7-106-223.3C1799.7,668.8,1717.6,636.3,1631.4,636.3L1631.4,636.3z"/>
		</g>
		<g>
			<path class="st0" d="M1631.3,1297.6c-83.5,0-162.8-31.7-223.2-89.3c-60.2-57.5-95.6-134.8-99.8-217.6l-0.5-10.3
				c-0.2-4,1.3-8,4.1-10.9c2.8-2.9,6.7-4.6,10.7-4.6h97.1c7.8,0,14.2,6,14.7,13.8l0.6,9.2c3.4,49.7,25.3,95.9,61.7,130
				c36.6,34.4,84.4,53.3,134.5,53.3c50.3,0,98.1-18.9,134.6-53.2c36.5-34.3,58.4-80.4,61.6-130l0.6-9.1c0.5-7.8,7-13.8,14.7-13.8h97
				c4,0,7.9,1.6,10.6,4.5c2.8,2.9,4.3,6.8,4.1,10.8c0,0-0.4,10.2-0.4,10.3c-4.1,82.9-39.6,160.2-99.8,217.6
				C1794,1265.9,1714.8,1297.6,1631.3,1297.6z"/>
			<path class="st0" d="M1419.7,979.7l0.6,9.2c3.6,53.4,27.2,103.1,66.4,139.8c39.3,36.9,90.7,57.3,144.6,57.3
				s105.5-20.3,144.7-57.2c39.1-36.7,62.7-86.3,66.3-139.8l0.6-9.2h9.2h77.5h10.3l-0.4,10.1c-3.9,79.1-37.7,152.8-95.2,207.7
				c-57.6,54.9-133.3,85.3-213,85.3c-79.8,0-155.4-30.3-213-85.3c-57.4-54.8-91.3-128.6-95.2-207.7l-0.5-10.2h10.3h77.6H1419.7
				 M1939.9,979.8L1939.9,979.8 M1419.7,950.1h-9.2h-77.6h-10.3c-8.1,0-15.8,3.3-21.4,9.2c-5.6,5.8-8.5,13.7-8.1,21.8l0.5,10.2
				c0,0,0,0,0,0.1c4.3,86.6,41.4,167.4,104.3,227.5c63.2,60.3,146.1,93.4,233.4,93.4c87.3,0,170.2-33.2,233.4-93.4
				c63-60,100-140.9,104.3-227.6c0-0.1,0-0.2,0-0.3l0.4-9.7c0-0.5,0-1.1,0-1.6c0-16.3-13.2-29.5-29.5-29.5h0h-10.3H1852h-9.2
				c-15.6,0-28.5,12.1-29.5,27.6l-0.6,9.1c-3,45.8-23.3,88.5-57,120.2c-33.8,31.7-78,49.2-124.5,49.2c-46.4,0-90.6-17.5-124.4-49.3
				c-33.7-31.6-54-74.3-57.1-120.2l-0.6-9.1C1448.2,962.2,1435.3,950.1,1419.7,950.1L1419.7,950.1z"/>
		</g>
		<g>
			<path class="st0" d="M1047.7,1278.2c-8.2,0-14.8-6.6-14.8-14.8V979.8c0-8.2,6.6-14.8,14.8-14.8h97c8.2,0,14.8,6.6,14.8,14.8
				v283.7c0,8.2-6.6,14.8-14.8,14.8H1047.7z"/>
			<path class="st0" d="M1144.7,979.8v9.8v264.1v9.7h-9.7h-77.5h-9.7v-9.7V989.5v-9.7h9.7h77.5H1144.7 M1144.7,950.2h-9.7h-77.5
				h-9.7c-16.3,0-29.5,13.2-29.5,29.5v9.7v264.2v9.7c0,16.3,13.2,29.5,29.5,29.5h9.7h77.5h9.7c16.3,0,29.5-13.2,29.5-29.5v-9.7
				V989.6v-9.8C1174.2,963.5,1161,950.2,1144.7,950.2L1144.7,950.2z"/>
		</g>
		<g>
			<path class="st0" d="M1047.6,978.3c-8.2,0-14.8-6.6-14.8-14.8V797.4H826.5c-8.2,0-14.8-6.6-14.8-14.8v-97.1
				c0-8.2,6.6-14.8,14.8-14.8h542.4c8.2,0,14.8,6.6,14.8,14.8v97.1c0,8.2-6.6,14.8-14.8,14.8h-209.5v166.1c0,8.2-6.6,14.8-14.8,14.8
				H1047.6z"/>
			<path class="st0" d="M1368.9,685.6v9.8v77.5v9.7h-9.7h-214.5v171.1v9.7h-9.7h-77.5h-9.7v-9.7V782.7H836.2h-9.7v-9.7v-77.6v-9.7
				h9.7h523.1H1368.9 M1368.9,656h-9.6H836.2h-9.7c-16.3,0-29.5,13.2-29.5,29.5v9.7v77.6v9.7c0,16.3,13.2,29.5,29.5,29.5h9.7h181.9
				v141.6v9.7c0,16.3,13.2,29.5,29.5,29.5h9.7h77.5h9.7c16.3,0,29.5-13.2,29.5-29.5v-9.7V812.2h185h9.7c16.3,0,29.5-13.2,29.5-29.5
				v-9.7v-77.5v-9.8C1398.4,669.3,1385.2,656,1368.9,656L1368.9,656z"/>
		</g>
		<g>
			<path class="st0" d="M2701.5,1278.2c-8.2,0-14.8-6.6-14.8-14.8V979.8c0-8.2,6.6-14.8,14.8-14.8h97c8.2,0,14.8,6.6,14.8,14.8
				v283.7c0,8.2-6.6,14.8-14.8,14.8H2701.5z"/>
			<path class="st0" d="M2798.5,979.8v9.8v264.1v9.7h-9.7h-77.5h-9.7v-9.7V989.5v-9.7h9.7h77.5H2798.5 M2798.5,950.2h-9.7h-77.5
				h-9.7c-16.3,0-29.5,13.2-29.5,29.5v9.7v264.2v9.7c0,16.3,13.2,29.5,29.5,29.5h9.7h77.5h9.7c16.3,0,29.5-13.2,29.5-29.5v-9.7
				V989.6v-9.8C2828.1,963.5,2814.8,950.2,2798.5,950.2L2798.5,950.2z"/>
		</g>
		<g>
			<path class="st0" d="M3092.8,1278.3c-25.7,0-48.9-15.1-59.3-38.5l-106.9-240.2l-6.1-13.8c-2-4.6-1.6-9.8,1.1-14
				c2.7-4.2,7.4-6.7,12.4-6.7h106.1c5.9,0,11.2,3.5,13.5,8.8l2.6,5.8l54.9,123.4V979.8c0-8.2,6.6-14.8,14.8-14.8h97.1
				c8.2,0,14.8,6.6,14.8,14.8v283.8c0,8.2-6.6,14.8-14.8,14.8H3092.8z"/>
			<path class="st0" d="M3223,979.8v9.8v264.2v9.7h-9.7h-34.4h-43h-43c-19.8,0-37.8-11.7-45.8-29.7l-106.9-240.2l-6.1-13.8h15.1
				h84.7h6.4l2.6,5.8l80.5,181h2.7v-177v-9.7h9.7h77.5H3223L3223,979.8 M3223,950.2L3223,950.2h-9.8h-77.5h-9.7
				c-16.3,0-29.5,13.2-29.5,29.5v9.7v44l-26.7-59.9l-2.5-5.7c-4.7-10.7-15.3-17.6-27-17.6h-6.4h-84.7H2934c-10,0-19.3,5.1-24.8,13.4
				c-5.5,8.4-6.3,18.9-2.3,28.1l6.1,13.8c0,0,0,0,0,0l106.9,240.2c12.7,28.7,41.3,47.3,72.8,47.3h43h43h34.4h9.7
				c16.3,0,29.5-13.2,29.5-29.5v-9.7V989.6v-9.8C3252.5,963.5,3239.3,950.2,3223,950.2L3223,950.2z"/>
		</g>
		<g>
			<path class="st0" d="M3126.1,978.3c-8.2,0-14.8-6.6-14.8-14.8v-278c0-8.2,6.6-14.8,14.8-14.8h97c8.2,0,14.8,6.6,14.8,14.8v278
				c0,8.2-6.6,14.8-14.8,14.8H3126.1z"/>
			<path class="st0" d="M3223.1,685.6v9.8v258.4v9.7h-9.7h-77.5h-9.7v-9.7V695.3v-9.7h9.7h77.5H3223.1 M3223.1,656h-9.7h-77.5h-9.7
				c-16.3,0-29.5,13.2-29.5,29.5v9.7v258.5v9.7c0,16.3,13.2,29.5,29.5,29.5h9.7h77.5h9.7c16.3,0,29.5-13.2,29.5-29.5v-9.7V695.4
				v-9.8C3252.6,669.3,3239.4,656,3223.1,656L3223.1,656z"/>
		</g>
		<g>
			<path class="st0" d="M2926.8,978.4c-5.9,0-11.2-3.5-13.5-8.8l-2.6-5.8l-74.1-166.3h-23.3v166.2c0,8.2-6.6,14.8-14.8,14.8h-97
				c-8.2,0-14.8-6.6-14.8-14.8v-278c0-8.2,6.6-14.8,14.8-14.8h175c25.6,0,48.8,15.1,59.2,38.5l104.5,234.4l6.1,13.8
				c2,4.6,1.6,9.8-1.1,14c-2.7,4.2-7.4,6.7-12.4,6.7H2926.8z"/>
			<path class="st0" d="M2876.6,685.7c19.8,0,37.7,11.7,45.7,29.7l104.6,234.4l6.1,13.8h-15.1h-84.7h-6.4l-2.6-5.8l-78-175.2h-47.7
				v171.2v9.7h-9.7h-77.5h-9.7v-9.7V695.4v-9.7h9.7h29.6h47.7H2876.6 M2876.6,656.1h-87.9H2741h-29.6h-9.7
				c-16.3,0-29.5,13.2-29.5,29.5v9.7v258.5v9.7c0,16.3,13.2,29.5,29.5,29.5h9.7h77.5h9.7c16.3,0,29.5-13.2,29.5-29.5v-9.7V814.6
				l69.1,155.2l2.5,5.8c4.7,10.7,15.3,17.6,27,17.6h6.4h84.7h15.1c10,0,19.3-5.1,24.8-13.4c5.5-8.4,6.3-18.9,2.3-28.1l-6.1-13.8
				c0,0,0,0,0-0.1l-104.6-234.4C2936.5,674.7,2908,656.1,2876.6,656.1L2876.6,656.1z"/>
		</g>
		<g>
			<path class="st0" d="M2507,978.4c-4.5,0-8.7-2-11.5-5.5c-2.8-3.5-3.9-8.1-2.9-12.5l2.7-11.9l57.3-258.4l1.7-7.6
				c1.5-6.8,7.5-11.6,14.4-11.6h99.4c4.5,0,8.7,2,11.5,5.5c2.8,3.5,3.9,8.1,2.9,12.5l-2.7,11.9l-57.3,258.4l-1.7,7.6
				c-1.5,6.8-7.5,11.6-14.4,11.6H2507z"/>
			<path class="st0" d="M2668.1,685.6L2668.1,685.6 M2668.1,685.6l-2.7,11.9l-57.3,258.5l-1.7,7.7h-7.9h-79.4H2507l2.7-11.9
				l57.3-258.5l1.7-7.7h7.9h79.4H2668.1 M2668.1,656L2668.1,656h-12.2h-79.4h-7.9c-13.9,0-25.9,9.7-28.9,23.2l-1.7,7.6l-57.3,258.4
				l-2.6,11.9c-2,8.7,0.2,17.9,5.8,24.9c5.6,7,14.1,11.1,23,11.1h12.2h79.4h7.9c13.9,0,25.9-9.7,28.9-23.2l1.7-7.6l57.3-258.4
				l2.5-11.2c0.6-2.3,0.9-4.7,0.9-7.2C2697.6,669.3,2684.4,656,2668.1,656L2668.1,656z M2668.1,715.1L2668.1,715.1L2668.1,715.1
				L2668.1,715.1z"/>
		</g>
		<g>
			<path class="st0" d="M2049.8,1278.3c-6.9,0-13-4.8-14.4-11.6l-1.7-7.7l-58.6-264.1l-2.7-11.9c-1-4.4,0.1-9,2.9-12.5
				c2.8-3.5,7-5.5,11.5-5.5h99.3c6.9,0,13,4.8,14.4,11.6l1.7,7.7l25.3,114.2l25.4-114.3l1.7-7.6c1.5-6.8,7.5-11.6,14.4-11.6h99.3
				c4.5,0,8.7,2,11.5,5.5c2.8,3.5,3.9,8,3,12.4l-2.6,11.9l-58.6,264.3l-1.7,7.6c-1.5,6.8-7.5,11.6-14.4,11.6H2049.8z"/>
			<path class="st0" d="M2268.5,979.8L2268.5,979.8 M2268.5,979.8l-2.6,11.9l-58.6,264.2l-1.7,7.7h-7.9h-60.7h-18.5h-60.8h-7.9
				l-1.7-7.7l-58.6-264.2l-2.7-11.9h12.1h79.4h7.9l1.7,7.7l39.8,179.3l39.8-179.3l1.7-7.7h7.9h79.3H2268.5 M2268.5,950.2
				L2268.5,950.2h-12.2H2177h-7.9c-13.9,0-25.9,9.7-28.9,23.2l-1.7,7.6l-10.9,49.3l-10.9-49.3l-1.7-7.6c-3-13.6-15-23.2-28.9-23.2
				h-7.9H1999h-12.1c-9,0-17.4,4.1-23,11.1c-5.6,7-7.7,16.2-5.8,24.9l2.7,11.9l58.6,264.1l1.7,7.6c3,13.6,15,23.2,28.9,23.2h7.9
				h60.8h18.5h60.7h7.9c13.9,0,25.9-9.7,28.9-23.2l1.7-7.6l58.6-264.1c0-0.1,0-0.1,0-0.2l2.4-11.2c0.5-2.2,0.8-4.5,0.8-6.9
				C2298.1,963.5,2284.8,950.2,2268.5,950.2L2268.5,950.2z M2268.5,1009.3L2268.5,1009.3L2268.5,1009.3L2268.5,1009.3z"/>
		</g>
		<g>
			<path class="st0" d="M2384.2,1278.3c-6.9,0-13-4.8-14.4-11.6l-1.7-7.7l-58.6-264.1l-2.7-11.9c-1-4.4,0.1-9,2.9-12.5
				c2.8-3.5,7-5.5,11.5-5.5h99.3c6.9,0,13,4.8,14.4,11.6l1.7,7.7l25.2,114l25.3-114l1.7-7.6c1.5-6.8,7.5-11.6,14.4-11.6h99.4
				c4.4,0,8.6,2,11.5,5.4c2.8,3.4,3.9,8,3,12.3c0,0-2.5,12.1-2.5,12.1l-58.6,264.2l-1.7,7.6c-1.5,6.8-7.5,11.6-14.4,11.6H2384.2z"/>
			<path class="st0" d="M2420.6,979.8l1.7,7.7l39.7,179.1l39.7-179.1l1.7-7.7h7.9h79.4h12.2l-2.5,11.9l-58.6,264.2l-1.7,7.7h-7.9
				h-60.7h-18.6h-60.7h-7.9l-1.7-7.7l-58.6-264.2l-2.7-11.9h12.2h79.3H2420.6 M2602.8,979.8L2602.8,979.8 M2420.6,950.2h-7.9h-79.3
				h-12.2c-9,0-17.4,4.1-23,11.1c-5.6,7-7.7,16.2-5.8,24.9l2.7,11.9l58.6,264.1l1.7,7.6c3,13.6,15,23.2,28.9,23.2h7.9h60.7h18.6
				h60.7h7.9c13.9,0,25.9-9.7,28.9-23.2l1.7-7.6l58.6-264.1c0-0.1,0.1-0.3,0.1-0.4l2.3-11.2c0.5-2.1,0.8-4.4,0.8-6.7
				c0-16.3-13.2-29.5-29.5-29.5h0h-12.2h-79.4h-7.9c-13.9,0-25.9,9.7-28.9,23.2l-1.7,7.6L2462,1030l-10.8-48.9l-1.7-7.6
				C2446.5,959.9,2434.5,950.2,2420.6,950.2L2420.6,950.2z"/>
		</g>
		<g>
			<path class="st0" d="M2317.5,978.4c-6.9,0-13-4.8-14.4-11.6l-1.7-7.7l-6.6-29.9l-6.7,30l-1.7,7.6c-1.5,6.8-7.5,11.6-14.4,11.6
				h-99.3c-4.5,0-8.7-2-11.5-5.5c-2.8-3.5-3.9-8.1-2.9-12.5l2.7-11.9l57.3-258.4l1.7-7.6c1.5-6.8,7.5-11.6,14.4-11.6h121.1
				c6.9,0,13,4.8,14.4,11.6l1.7,7.7l57.2,258.4l2.7,11.9c1,4.4-0.1,9-2.9,12.5c-2.8,3.5-7,5.5-11.5,5.5H2317.5z"/>
			<path class="st0" d="M2355.5,685.6l1.7,7.7l57.2,258.5l2.7,11.9h-12.2h-79.4h-7.9l-1.7-7.7l-21.1-95l-21.1,95l-1.7,7.7h-7.9
				h-79.3h-12.2l2.7-11.9l57.3-258.5l1.7-7.7h7.9h26h53.4h26H2355.5 M2355.5,656h-7.9h-26h-53.4h-26h-7.9
				c-13.9,0-25.9,9.7-28.9,23.2l-1.7,7.6l-57.3,258.4l-2.6,11.9c-2,8.7,0.2,17.9,5.8,24.9c5.6,7,14.1,11.1,23,11.1h12.2h79.3h7.9
				c9,0,17.3-4.1,22.7-10.7c5.5,6.6,13.7,10.7,22.7,10.7h7.9h79.4h12.2c9,0,17.4-4.1,23-11.1c5.6-7,7.7-16.2,5.8-24.9l-2.6-11.9
				L2386,686.9l-1.7-7.6C2381.4,665.7,2369.3,656,2355.5,656L2355.5,656z"/>
		</g>
		<g>
			<path class="st0" d="M1983.3,978.4c-6.9,0-13-4.8-14.4-11.6l-1.7-7.7l-57.3-258.4l-2.7-11.9c-1-4.4,0.1-9,2.9-12.5
				c2.8-3.5,7-5.5,11.5-5.5h99.4c6.9,0,13,4.8,14.4,11.6l1.7,7.7l57.3,258.4l2.7,11.9c1,4.4-0.1,9-2.9,12.5c-2.8,3.5-7,5.5-11.5,5.5
				H1983.3z"/>
			<path class="st0" d="M2021.1,685.6l1.7,7.7l57.3,258.5l2.7,11.9h-12.2h-79.4h-7.9l-1.7-7.7l-57.3-258.5l-2.7-11.9h12.2h79.4
				H2021.1 M2021.1,656h-7.9h-79.4h-12.2c-9,0-17.4,4.1-23,11.1s-7.7,16.2-5.8,24.9l2.7,11.9l57.3,258.4l1.7,7.6
				c3,13.6,15,23.2,28.9,23.2h7.9h79.4h12.2c9,0,17.4-4.1,23-11.1c5.6-7,7.7-16.2,5.8-24.9l-2.7-11.9l-57.3-258.4l-1.7-7.6
				C2047,665.7,2035,656,2021.1,656L2021.1,656z"/>
		</g>
		<g>
			<path class="st0" d="M3657.3,978.4c-2.3,0-4.6-0.5-6.6-1.6l-1.9-0.9c-12.6-6.1-27.2-9.1-43.6-9.1h-218.5
				c-45.3,0-83.7-16.2-110.9-46.8c-23.9-26.9-37-62.9-37-101.2c0-38.3,13.1-74.2,37-101.2c27.2-30.6,65.6-46.8,110.9-46.8h390.4
				c8.2,0,14.8,6.6,14.8,14.8v97.2c0,8.2-6.6,14.8-14.8,14.8h-390.3c-7.1,0-12.5,2.1-16.2,6.2c0,0-0.1,0.1-0.1,0.1
				c-3.3,3.6-5.2,9.3-5.2,15.2c0,5.8,2,11.5,5.4,15.4c3.6,4.1,9,6.1,16.1,6.1h219.6c42.3,0.1,80.4,9.7,113.3,28.5
				c30.2,17.3,54.8,41.6,73.1,72.3l8.8,14.8c2.7,4.6,2.8,10.2,0.1,14.8c-2.6,4.6-7.5,7.5-12.8,7.5H3657.3z"/>
			<path class="st0" d="M3777.1,685.6v9.8v77.5v9.8h-9.7h-380.5c-11.3,0-20.7,3.8-27.2,11.1c-5.8,6.4-9.1,15.7-9.1,25.1
				c0,9.5,3.3,18.6,9.1,25.1c6.4,7.3,15.9,11.1,27.2,11.1h219.6c39.7,0.1,75.3,9.1,105.9,26.6c28.1,16,50.8,38.6,67.7,67.1l8.8,14.8
				h-17.2h-112h-2.3l-2-1c-14.7-7.1-31.6-10.6-50.1-10.6h-218.5c-41,0-75.5-14.5-99.8-41.8c-21.5-24.2-33.3-56.6-33.3-91.4
				s11.8-67.1,33.3-91.4c24.3-27.4,58.9-41.8,99.8-41.8h380.5H3777.1L3777.1,685.6 M3777.1,656L3777.1,656h-9.8h-380.5
				c-24.3,0-47.1,4.4-67.6,13c-21,8.8-39.3,21.9-54.3,38.8c-26.3,29.7-40.7,69.1-40.7,111s14.5,81.3,40.7,111
				c15.1,17,33.4,30,54.4,38.8c20.5,8.6,43.2,13,67.6,13h218.5c14.1,0,26.6,2.6,37.1,7.6l1.8,0.9c4.1,2.1,8.6,3.1,13.2,3.1h2.3h112
				h17.2c10.6,0,20.4-5.7,25.7-14.9c5.3-9.2,5.2-20.6-0.3-29.7l-8.8-14.8c-19.6-32.9-46-59-78.5-77.6
				c-35.1-20.1-75.7-30.4-120.5-30.5c0,0,0,0-0.1,0h-219.6c-3,0-4.6-0.6-5-1.1c-0.7-0.8-1.7-2.9-1.7-5.6c0-2.8,1-4.8,1.4-5.3
				c0.1-0.1,0.1-0.1,0.2-0.2c1-1.2,4.2-1.2,5.1-1.2h380.5h9.7c16.3,0,29.5-13.2,29.5-29.5v-9.8v-77.5v-9.8
				C3806.6,669.3,3793.4,656,3777.1,656L3777.1,656z"/>
		</g>
		<g>
			<path class="st0" d="M3255.3,1278.3c-8.2,0-14.8-6.6-14.8-14.8v-97c0-8.2,6.6-14.8,14.8-14.8h349.8c37.5,0,65.6-15.7,81.3-45.4
				c8.2-15.7,12.1-33.8,11.1-52.4c-0.9-18.7-6.6-36.2-16.4-50.5l-10.5-15.3c-3.1-4.5-3.4-10.4-0.9-15.2c2.6-4.9,7.6-7.9,13.1-7.9
				H3795c6.3,0,11.9,4,13.9,9.9l2.3,6.5c11.9,34.5,15.7,72,11,108.6c-4.7,37.4-18.3,72.7-39.1,102.1c-19.1,26.8-43.4,47.7-72.3,62.4
				c-31.1,15.8-66.7,23.8-105.7,23.8H3255.3z"/>
			<path class="st0" d="M3795,979.8l2.3,6.5c11.1,32.2,14.8,67.3,10.3,101.8c-4.4,35.1-17.1,68.1-36.5,95.4
				c-17.6,24.7-40.2,44.2-67,57.8c-29,14.8-62.4,22.3-99.1,22.3H3265h-9.7v-9.7v-77.5v-9.7h9.7h340.1c42.7,0,76.2-18.9,94.3-53.3
				c9.5-18,13.9-38.8,12.8-60.1c-1.1-21.5-7.7-41.5-19-58.1l-10.5-15.4h18.6h86.7H3795 M3795,950.2h-7h-86.7h-18.6
				c-11,0-21,6.1-26.1,15.8c-5.1,9.7-4.4,21.4,1.8,30.5l10.5,15.4c8.3,12.1,13.1,26.9,13.9,42.9c0.8,16-2.4,31.5-9.4,44.8
				c-16.3,31-46.1,37.5-68.2,37.5H3265h-9.7c-16.3,0-29.5,13.2-29.5,29.5v9.7v77.5v9.7c0,16.3,13.2,29.5,29.5,29.5h9.7h340.1
				c41.4,0,79.2-8.6,112.4-25.5c31-15.7,57.2-38.3,77.6-67c22.3-31.4,36.8-69,41.8-108.8c5-38.8,0.9-78.6-11.7-115.2c0,0,0,0,0-0.1
				l-2.3-6.5C3818.8,958.2,3807.6,950.2,3795,950.2L3795,950.2z"/>
		</g>
		<g>
			<path class="st0" d="M1709.9,629.9c-3.5,0-6.8-1.2-9.5-3.5c-3.3-2.8-5.3-6.9-5.3-11.3v-17c0-4.8,2.3-9.2,6.2-12l4.1-3
				c25.8-18.5,28.2-51.1,28.4-53.8V264.8l-2.5,0.2v160.6c0,32.5-12.9,60.1-37.3,79.7c-21.6,17.4-51.3,26.9-83.5,26.9
				c-32.3,0-62-9.6-83.9-27.1c-11.7-9.3-21-20.8-27.6-34.2c-6.8-14-10.2-29.2-10.2-45.4v-14.3c-2.7,3.6-7,5.9-11.8,5.9h-19.6
				c-8,0-14.5-6.3-14.8-14.3l-0.2-5.3h-35.2l-0.3,77.3l6.5,0.5c7.7,0.6,13.6,7,13.6,14.7v19.2c0,8.2-6.6,14.8-14.8,14.8H1307
				c-8.2,0-14.8-6.6-14.8-14.8v-19.5c0-7.9,6.2-14.4,14.1-14.8l5.8-0.2V263.8c0,0,0,0,0,0l-6.3-0.5c-7.7-0.6-13.6-7-13.6-14.7v-19.2
				c0-8.2,6.6-14.8,14.8-14.8h190.5c1.4,0,2.8,0.2,4.1,0.6h87.9c8.2,0,14.8,6.6,14.8,14.8v19.3c0,7.7-5.9,14.1-13.6,14.7l-6.3,0.5
				v166.1c0,14,12.1,26.3,25.9,26.3c6.8,0,13.3-2.8,18.4-8c5-5.1,7.8-11.7,7.8-18.3V265.1l-6.1-0.2c-8-0.2-14.3-6.8-14.3-14.8v-19.6
				c0-8.2,6.6-14.8,14.8-14.8h79c-12.7-15-19.7-33.6-19.8-53.4c0-46.2,38.3-83.8,85.4-83.8c7.7,0,15.3,1,22.6,3.1V65.9
				c0-3.3,1.1-6.5,3.1-9.1c0,0,2.1-2.7,2.1-2.8c9.2-11.6,20.7-21.3,33.4-28c14.3-7.5,29.4-11.3,45-11.3c26.5,0,51.3,10,70,28.1
				c18.9,18.3,29.3,42.9,29.3,69.2c0,53.7-44.6,97.4-99.4,97.4c-12,0-23.6-2-34.6-6v0.1c0,3.5-1.3,6.9-3.6,9.6l-2,2.3h293.8
				c4.7,0,9.1,2.3,11.9,6.1c0.6,0.8,1.1,1.7,1.5,2.6c18.4-9.5,40.9-14.3,67.4-14.3c0.7,0,1.4,0,2.1,0.1c3.8,0.1,13,0.5,22.9,1.5
				c13.9,1.3,23.5,3.1,30.7,5.9c2.2-1.3,4.8-2,7.5-2h105.7c8.2,0,14.8,6.6,14.8,14.8v19.3c0,7.7-5.9,14.1-13.6,14.7l-6.7,0.5
				l0,165.9c0,14,12.3,26.3,26.3,26.3c6.8,0,13.3-2.8,18.4-8c5-5.1,7.9-11.7,7.9-18.3V265l-5.7-0.2c-8-0.2-14.3-6.8-14.3-14.8v-19.6
				c0-8.2,6.6-14.8,14.8-14.8h105.6c8.2,0,14.8,6.6,14.8,14.8v19.3c0,7.7-5.9,14.1-13.6,14.7l-6.3,0.5v160.6
				c0,32.5-12.9,60.1-37.3,79.7c-21.6,17.4-51.4,26.9-83.9,26.9c-32.2,0-62-9.6-83.7-27.1c-8.7-6.9-16.1-15.1-21.9-24.2
				c-3.2,5-7.1,10.1-11.8,15c-23.2,24-58.4,36.1-104.8,36.1h-3.2c-13.1,0-37.6-1-55-7.4l-4.5-1.7c-4.2-1.6-7.4-5-8.8-9.2l-1.5-4.5
				l-15.4-47.9l-4.1-12.8c-1.5-4.5-0.7-9.4,2.1-13.2c2.8-3.8,7.2-6.1,11.9-6.1h18.9c4.8,0,9.2,2.3,12,6.2c0,0,3,4.2,3,4.2
				c6.3,8.9,30,15.5,45.3,17c15.8-0.9,27.5-5.3,33-12.4c0,0,0.1-0.1,0.1-0.1c2.2-2.9,3.1-5.8,3.4-7.4c0-0.6,0-1.1,0.1-1.7
				c-0.5-1.1-2.2-3.9-8.2-7.2l-53.7-28.6c-55.9-29.9-62.7-70.4-62.8-87.6c-7.3-0.7-13-6.8-13.3-14.2l-0.2-6.6h-11.7v185.1l6.7,0.5
				c7.7,0.6,13.6,7,13.6,14.7v19.2c0,8.2-6.6,14.8-14.8,14.8h-106.1c-8.2,0-14.8-6.6-14.8-14.8v-19.5c0-7.9,6.2-14.4,14.1-14.8
				l6.2-0.3V290.8h-20.9c-1.4,0.3-5.6,1.6-9.3,8l-2.9,5c-2.6,4.6-7.5,7.4-12.8,7.4h-1.6v164.7l5.7,0.2c8,0.2,14.3,6.8,14.3,14.8
				v19.4c0,8.2-6.6,14.8-14.8,14.8c0,0-105.8,0-105.8,0c-3.1,34.4-20.2,62.6-50.2,81.8c-22.2,14.3-45.3,19.5-54.2,21l-11.5,2
				C1711.6,629.9,1710.8,629.9,1709.9,629.9z M1828.8,476.1l5.3-0.4l0-211l-3.8-0.3l-1.2,0L1828.8,476.1z M2200.6,314.8
				c0.5,0.2,1,0.4,1.5,0.7l54.2,28.8c11.8,6.3,21.2,13.3,28.7,20.3v-60.9c-2.4,1.7-5.3,2.7-8.5,2.7h-15.6c-5.1,0-9.9-2.7-12.6-7
				l-2.8-4.5c-1.8-2.8-7.7-9-23.2-9c-0.7,0-1.2,0-1.4,0c-0.5,0.1-0.8,0.1-1.4,0.1h-0.8c-11.2,0-19.3,2.2-23.4,6.5
				c-2.7,2.8-3.4,6.7-3.6,8.5c0.2,1.6,0.2,3.3-0.2,4.9c0.1,0.3,0.1,0.6,0.3,1.1C2193.1,309.6,2196.1,312.4,2200.6,314.8z
				 M1477.2,322.1c4.8,0,9.1,2.3,11.8,5.9v-18h-11.1c-8,0-14.5-6.3-14.8-14.3l-0.2-5.3h-55.5v31.7H1477.2z M1778.1,175.7
				c1.2,0,4.4-0.2,8.5-2.2c3.6-1.8,7-4.7,10-8.7l-10.8-11.8c-3.2-2.7-6.6-4.1-10.2-4.1c-4,0-7.5,1.4-10.2,4
				c-2.6,2.6-3.9,5.8-3.9,9.3c0,7.3,6.3,13.3,14.1,13.3c0.8,0,1.6,0.1,2.4,0.2H1778.1z M1862,131.5c5.4,5,12.8,7.8,20.1,7.8
				c15.9,0,28.8-12.2,28.8-27.2c0-14.9-12.9-27.1-28.7-27.1h-0.4c-0.6,0-1.1,0-1.7-0.1c-1.9,0-7.5,0.4-13.7,3.9
				c-8.5,4.8-15.3,13.5-20.1,25.9L1862,131.5z"/>
			<path class="st0" d="M1881.8,29.5c22.6,0,43.9,8.6,59.8,23.9c16,15.6,24.8,36.4,24.8,58.6c0,45.5-38,82.6-84.7,82.6
				c-17.9,0-35.1-5.4-49.3-15.5v20.7v3.6l-2.4,2.8c-10.7,12.3-25.1,20.5-40.7,23.6h35.3h9.7h0.1v0.3h3.8h86.2h6.4h3.3h0h3.9h184.1
				h13.2l-4,12.6l-6.6,21.9c2.6-4,5.7-8,9.5-11.8c18.4-18.9,46-28.5,82-28.5h0.1l0.2,0.1c0.5,0,11.3,0.3,23.2,1.5
				c23.6,2.3,30.1,5.7,33.7,9.1l3.1,2.9v4.2v39.7v9.7h-9.7h-0.4h-5.4l-2.9-4.6c-3.1-4.7-12.5-15.9-35.6-15.9c-1.8,0-2.8,0.1-2.8,0.1
				h-0.4h-0.4c-15.7,0-27.1,3.7-34.1,11c-7.8,8.2-7.8,18.8-7.8,19.8l0.2,0.9l-0.3,1.4c-0.1,0.7-0.3,3.9,1.4,8.2
				c2.6,6.3,8.2,11.7,16.6,16h0.1h0.1l54.2,28.8c29.5,15.9,41.8,35.6,47,49.4c1.8,4.7,2.8,9.1,3.4,12.9V264.5c0-6.2-5-14.2-11-14.5
				l-9.3-0.5v-9.4v-0.4V230h9.7h86.2h9.7h0.1v9.8v0.4v9.1l-9.1,0.7c-5.2,0.4-11.3,6.7-11.3,14.4v166.1c0,22.3,18.8,41.1,41.1,41.1
				c10.8,0,21.1-4.4,28.9-12.4c7.7-7.8,12.1-18.2,12.1-28.7V264.8c0-6.8-5.4-14.2-10.5-14.4l-9.5-0.3v-9.5v-0.4v-9.7h9.7h86.2h9.7
				v9.7v0.5v9.1l-9.1,0.7c-6.3,0.4-10.9,7.8-10.9,14v161.2c0,28-11,51.5-31.8,68.2c-19,15.3-45.5,23.6-74.6,23.6
				c-28.8,0-55.3-8.5-74.4-23.8c-10.1-8.1-18-17.9-23.4-29.1c-4.3-8.9-7-18.5-8-28.7c-0.4,7.7-3.1,30.3-22.1,49.9
				c-20.3,21-52,31.6-94.2,31.6c-0.4,0-1.6,0-3.2,0c-9.7,0-34-0.6-49.8-6.5l-4.4-1.7l-1.5-4.5l-15.4-47.9l-4.1-12.8h13.4h0.4h5.1
				l3,4.1c11.3,16.1,44.5,22.3,57.1,23.3c21.1-1,36.6-7.3,45-18.2c5.9-7.6,6.5-15.3,6.6-16.2l-0.1-0.4l0.2-1
				c0.1-1.5,0.2-12-16.1-20.8l-53.8-28.7c-57.5-30.7-55.5-72.6-54.7-79.7c0-1.5,0.2-5,0.9-9.6h-4.6h-0.4h-9.5l-0.3-9.5
				c-0.2-6.5-5.3-11.4-11.8-11.4h-29.3v200.1c0,7.6,6.1,14,11.3,14.4l9.1,0.7v9.1v0.4v9.7h-9.7h-86.6h-9.7v-9.7v-0.4v-9.4l9.4-0.4
				c6-0.2,11-8.1,11-14.4V276h-36.6c-0.9,0.1-12.8,0.9-21.2,15.5l-2.9,4.9h-5.7h-0.4h-10.2v179.7c0,6.8,5.4,14.2,10.5,14.4l9.5,0.3
				v9.5v0.2v9.7h-9.7h-86.2h-9.7v-9.7V500v-9.1l9.1-0.7c5.2-0.4,11.3-6.7,11.3-14.4V264c0-6-4.9-13.4-11.3-13.9l-7-0.5l-5.6,0.2
				c-5.2,0.2-10.6,7.6-10.6,14.4l-0.4,249.4c0,34.3-15.2,62.2-43.9,80.7c-20.8,13.4-42.5,17.8-48.7,18.9l-11.4,2v-11.6v-0.4v-5
				l4.1-3c32.2-23,34.5-62.6,34.6-65.5v-0.3V264.2c0-6.2-4.8-13.9-10.9-14.4l-0.7-0.1v0.1l-9.1,0.7c-6.4,0.4-11.3,7.9-11.3,14v161.2
				c0,28-11,51.5-31.8,68.2c-19,15.3-45.3,23.6-74.2,23.6c-28.9,0-55.4-8.5-74.6-23.8c-10.1-8.1-18-17.9-23.5-29.1
				c-5.7-11.8-8.7-24.9-8.7-38.9V264.5c0-4.9-2.8-10-6.3-12.7v33.6v9.7h-9.7h-0.4h-9.5l-0.3-9.5c-0.2-5.4-6.3-10.1-13.1-10.1h-71.8
				v61.2h74.7h9.7v9.7v46.3v9.6h-9.7h-0.4h-9.5l-0.3-9.5c-0.2-5.4-6.3-10.1-13.1-10.1h-51.4l-0.4,92.3c0,7.6,6,14,11.2,14.4l9,0.7
				v9.1v0.4v9.7h-9.7h-86.2h-9.7v-9.7v-0.4v-9.4l9.4-0.4c5.2-0.2,10.6-7.6,10.6-14.4V263.7c0-6.2-4.8-13.9-10.9-14.4l-9.1-0.7v-9.1
				v-0.4v-9.7h9.7h171.1h9.6v0.6h82.1h9.7h0.2v9.8v0.4v9.1l-9.1,0.7c-6.2,0.4-10.9,8.1-10.9,14.4v166.2c0,22.3,18.6,41.1,40.7,41.1
				c10.8,0,21.1-4.4,28.9-12.4c7.7-7.8,12.1-18.2,12.1-28.7V264.9c0-6.3-5-14.2-10.9-14.4l-9.5-0.3v-9.5v-0.4v-9.7h9.7h86.6h1.4
				v-0.7h9.7h23c-13.5-2.7-25.9-9.1-35.8-18.8c-13.3-13-20.7-30.3-20.8-48.7c0-38,31.7-68.9,70.6-68.9c13.3,0,26.3,3.8,37.4,10.6
				V69.2v-3.3l2.1-2.7c7.9-9.9,17.8-18.3,28.8-24.1C1855.7,32.8,1868.6,29.5,1881.8,29.5 M1882.1,154.1c24,0,43.6-18.8,43.6-41.9
				s-19.6-41.8-43.5-41.8h-0.4l-0.5-0.1c-0.1,0-0.4,0-1,0c-3.2,0-11.6,0.5-21.1,5.7c-12,6.7-21.3,18.5-27.4,35.1l-2.7,7.2l22.4,23.8
				C1859.7,149.7,1870.8,154.1,1882.1,154.1 M1776.8,190.4c0.1,0,0.6,0,1.3,0c2.9,0,8.5-0.5,15.1-3.7c8.4-4.2,15.4-11.6,20.9-22
				l0.9-1.7l-1.6-1.7l-0.5,1.3v-1.9l-16.7-18.3c-4.2-3.8-11.2-8.4-20.6-8.4c-7.9,0-15.2,3-20.6,8.3c-5.3,5.3-8.3,12.3-8.3,19.8
				c0,15.5,12.9,28.1,28.8,28.1l0.6,0.1L1776.8,190.4 M1914.2,286.7l0.9-3l9.9-33.6c-5.4,0.4-10.7,7.2-10.7,13.9V286.7 M1881.8,0
				c-18,0-35.5,4.4-51.8,12.9c0,0-0.1,0.1-0.1,0.1c-14.5,7.7-27.6,18.7-38,31.9c-0.1,0.1-0.1,0.1-0.2,0.2l-2.1,2.7
				c-3.7,4.7-5.8,10.5-6.2,16.5c-2.6-0.2-5.3-0.3-7.9-0.3c-55.2,0-100.1,44.2-100.1,98.5c0,0.1,0,0.1,0,0.2
				c0.1,13.5,2.9,26.5,8.1,38.5h-42.7h-9.7c-7.9,0-15.1,3.1-20.4,8.2c-5.4-5.4-12.8-8.7-21-8.7h-0.2h-9.7h-76.2
				c-1.9-0.4-3.9-0.6-5.9-0.6h-9.6h-171.1h-9.7c-16.3,0-29.5,13.2-29.5,29.5v9.7v0.4v9.1c0,12.9,8.3,24,20,28V462
				c-11.7,4-20,15-20,28v9.4v0.4v9.7c0,16.3,13.2,29.5,29.5,29.5h9.7h86.2h9.7c16.3,0,29.5-13.2,29.5-29.5v-9.7v-0.4v-9.1
				c0-12.9-8.4-24.1-20.1-28l0.2-49.8h7.6c4.1,11.4,15,19.6,27.8,19.6h9.5h0.4h7c0.8,16,4.6,31.3,11.4,45.3c0,0.1,0.1,0.1,0.1,0.2
				c7.5,15.3,18.1,28.5,31.6,39.2c24.4,19.5,57.5,30.3,93.1,30.3c35.6,0,68.5-10.7,92.7-30.1c5.8-4.7,11.1-9.8,15.8-15.3v27.3
				c-0.2,3.2-2.8,28.4-22.2,42.3l-4.1,2.9c-7.8,5.5-12.4,14.5-12.4,24v5v0.4v11.6c0,8.7,3.8,17,10.5,22.6c5.4,4.5,12.1,6.9,19,6.9
				c1.7,0,3.3-0.1,5-0.4l11.4-2c0,0,0,0,0.1,0c9.8-1.7,35.2-7.4,59.7-23.2c29.5-19,48.5-46.7,54.9-79.5h83.3h9.7
				c6.9,0,13.2-2.3,18.2-6.3c5.1,4,11.5,6.5,18.4,6.5h9.7h86.6h9.7c10.6,0,19.9-5.6,25.1-14c3.4,4.9,8.2,8.8,13.9,10.9l4.4,1.7
				c0,0,0.1,0,0.1,0c18.5,6.9,42.9,8.4,60.1,8.4h3.2c50.6,0,89.4-13.7,115.5-40.6c0.4-0.4,0.8-0.8,1.2-1.2
				c3.9,4.2,8.1,8.1,12.7,11.7c24.3,19.5,57.3,30.3,92.9,30.3c35.9,0,68.9-10.7,93.1-30.1c13.9-11.2,24.7-24.8,32-40.4
				c7.2-15.5,10.9-32.6,10.9-50.8V277.7c11.7-4,20-15.1,20-28v-9.1v-0.5v-9.7c0-16.3-13.2-29.5-29.5-29.5h-9.7h-86.2h-9.7
				c-8,0-15.3,3.2-20.6,8.4c-5.4-5.5-12.8-8.9-21.1-8.9h-0.1h-9.7h-86.2h-9.7c-2.8,0-5.4,0.4-8,1.1c-7.6-2.2-17-3.7-28.9-4.9
				c-9.6-0.9-18.5-1.4-23-1.5c-1.1-0.1-2.2-0.2-3.2-0.2h-0.1c-24.1,0-45.5,3.7-63.7,11.2c-4.9-3.5-10.9-5.4-17.1-5.4h-13.2h-170.6
				c26.9-20.5,44.3-52.6,44.3-88.6c0-30.3-12-58.7-33.8-79.8C1940.6,11.5,1912.1,0,1881.8,0L1881.8,0z M1873.5,101.7
				c2.8-1.5,5.2-1.9,6.2-2c0.7,0,1.3,0.1,2,0.1h0.4c7.6,0,14,5.6,14,12.3c0,6.7-6.4,12.4-14.1,12.4c-3.4,0-7.1-1.4-9.8-3.7l-8.4-9
				C1866.7,107.2,1869.9,103.8,1873.5,101.7L1873.5,101.7z M2394.3,277.4c4.3-1.4,8.2-3.8,11.3-6.8c3.2,3.3,7.2,5.9,11.7,7.5v152.4
				c0,2.6-1.4,5.7-3.6,7.9c-1.6,1.6-4.3,3.6-7.9,3.6c-5.9,0-11.5-5.6-11.5-11.5V277.4L2394.3,277.4z M1599.1,277.3
				c4-1.4,7.7-3.6,10.7-6.4c3.3,3.4,7.4,6,12,7.4v152.3c0,2.6-1.4,5.7-3.6,7.9c-1.6,1.7-4.3,3.6-7.9,3.6c-5.7,0-11.1-5.6-11.1-11.5
				V277.3L1599.1,277.3z M2222.3,300.7c0,0,0.1,0,0.2,0c7.8,0,10.5,2.1,10.9,2.5l2.4,4c5.4,8.7,14.9,14,25.1,14h5.4h0.4h3.4v14
				c-2.2-1.3-4.5-2.6-6.9-3.9c0,0-0.1,0-0.1-0.1l-54.2-28.8c-0.3-0.2-0.6-0.3-0.9-0.5c1.9-0.6,5.3-1.2,10.8-1.2h0.4h0.4
				c0.6,0,0.9,0,1.2,0C2221.3,300.8,2221.6,300.8,2222.3,300.7L2222.3,300.7z M1422.3,305.1h27.8c0.3,0.7,0.6,1.5,0.9,2.2h-28.7
				V305.1L1422.3,305.1z M1959.4,305.5h2.3v157.2c-3.3,1.1-6.4,2.7-9.1,4.9c-2.6-2.1-5.6-3.7-8.8-4.8v-140
				c5.1-2.5,9.4-6.5,12.4-11.6l2.9-4.9c0,0,0-0.1,0.1-0.1C1959.1,305.9,1959.2,305.7,1959.4,305.5L1959.4,305.5z M2086.1,421.7V339
				c1,3.3,2.3,6.7,3.8,10.3c11.1,25.6,32.1,46.8,62.4,63l49.1,26.1c-3.4,1.5-8.7,2.9-16.3,3.4c-4.8-0.6-12-1.9-19.1-4
				c-9.3-2.9-13.6-5.8-14.6-6.8c0,0,0,0,0,0l-3-4.1c-5.5-7.8-14.5-12.4-24-12.4h-5.1h-0.4h-13.4
				C2098.3,414.4,2091.4,417,2086.1,421.7L2086.1,421.7z"/>
		</g>
		<g>
			<path class="st0" d="M29.5,1278.2c-8.2,0-14.8-6.6-14.8-14.8v-72.4c0-8.2,6.6-14.8,14.8-14.8h16v-116.9h-16
				c-8.2,0-14.8-6.6-14.8-14.8v-72.4c0-8.2,6.6-14.8,14.8-14.8h332.7c8.2,0,14.8,6.6,14.8,14.8v125.6c0,8.2-6.6,14.8-14.8,14.8
				h-87.3c-0.3,0-0.5,0-0.8,0v47.7c0,8.2-6.6,14.8-14.8,14.8h-80.7v1.2h16c8.2,0,14.8,6.6,14.8,14.8v72.4c0,8.2-6.6,14.8-14.8,14.8
				H29.5z M259.3,1073.2c0.3,0,0.5,0,0.8,0v-13.8h-81.5v13.8H259.3z"/>
			<path class="st0" d="M362.2,972.3v9.7v20.7v32.2v53.3v9.7h-9.7h-67.8h-9.7v-9.7v-43.5H163.8v43.3h85.8h9.7v9.7v52.9v9.7h-9.7
				h-85.8v30.7h21h9.7v9.7v52.9v9.7h-9.7H39.3h-9.7v-9.7v-52.9v-9.7h9.7h21v-146.4h-21h-9.7v-9.7V982v-9.7h9.7h313.4H362.2
				 M362.2,942.8h-9.6H39.3h-9.7C13.2,942.8,0,956,0,972.3v9.7v52.9v9.7c0,16.3,13.2,29.5,29.5,29.5h1.2v87.3h-1.2
				c-16.3,0-29.5,13.2-29.5,29.5v9.7v52.9v9.7c0,16.3,13.2,29.5,29.5,29.5h9.7h145.5h9.7c16.3,0,29.5-13.2,29.5-29.5v-9.7v-52.9
				v-9.7c0-0.4,0-0.8,0-1.2h25.5h9.7c16.3,0,29.5-13.2,29.5-29.5v-9.7v-23.1h63.6h9.7c16.3,0,29.5-13.2,29.5-29.5v-9.7v-53.3v-32.2
				V982v-9.7C391.8,956,378.5,942.8,362.2,942.8L362.2,942.8z"/>
		</g>
		<g>
			<path class="st0" d="M527,1278.2c-5.6,0-10.7-3.2-13.2-8.1c-2.4,4.8-7.4,8.1-13.2,8.1H366.8c-8.2,0-14.8-6.6-14.8-14.8v-72.4
				c0-8.2,6.6-14.8,14.8-14.8h15.9v-116.8h-15.9c-8.2,0-14.8-6.6-14.8-14.8v-72.5c0-8.2,6.6-14.8,14.8-14.8h138.1
				c5.7,0,10.9,3.3,13.3,8.4l2.7,5.6l47.9,102l50.7-102.4l2.6-5.4c2.5-5.1,7.6-8.3,13.3-8.3h137.3c8.2,0,14.8,6.6,14.8,14.8v72.3
				c0,8.2-6.6,14.8-14.8,14.8h-15.9v116.9h15.9c8.2,0,14.8,6.6,14.8,14.8v72.4c0,8.2-6.6,14.8-14.8,14.8h-165
				c-8.2,0-14.8-6.6-14.8-14.8v-9l-5.1,10.2l-2.6,5.4c-2.5,5.1-7.6,8.3-13.3,8.3H527z"/>
			<path class="st0" d="M772.6,972.3v9.6v52.9v9.7h-9.7H742V1191h20.9h9.7v9.7v52.9v9.7h-9.7H617.3h-9.7v-9.7v-52.9v-9.4l-33.1,66.7
				l-2.7,5.4h-6.1h-32.6H527l-2.7-5.6l-23.7-50.6v46.5v9.7h-9.7H376.5h-9.7v-9.7v-52.9v-9.7h9.7h20.9v-146.3h-20.9h-9.7v-9.7v-53
				v-9.7h9.7h122.2h6.2l2.7,5.6l60.8,129.7l64.3-129.9l2.7-5.4h6.1h6.7h52.4H763H772.6 M607.8,1191.1h9.6h21v-61.6L607.8,1191.1
				 M469.9,1191.1h21h2.2l-23.1-49.3V1191.1 M772.6,942.8H763h-62.4h-52.4h-6.7h-6.1c-11.3,0-21.6,6.4-26.5,16.5l-2.6,5.4
				l-37.1,74.9l-34.8-74.2c0,0,0-0.1,0-0.1l-2.7-5.6c-4.9-10.3-15.3-16.9-26.7-16.9h-6.2H376.5h-9.7c-16.3,0-29.5,13.2-29.5,29.5
				v9.7v53v9.7c0,16.3,13.2,29.5,29.5,29.5h1.1v87.2h-1.1c-16.3,0-29.5,13.2-29.5,29.5v9.7v52.9v9.7c0,16.3,13.2,29.5,29.5,29.5h9.7
				h114.3h9.7c4.7,0,9.2-1.1,13.2-3.1c4,2,8.5,3.1,13.2,3.1h6.2h32.6h6.1c6.6,0,12.9-2.2,17.9-6.1c5,3.7,11.1,6,17.8,6h9.7h145.5
				h9.7c16.3,0,29.5-13.2,29.5-29.5v-9.7v-52.9v-9.7c0-16.3-13.2-29.5-29.5-29.5h-1.1v-87.3h1.1c16.3,0,29.5-13.2,29.5-29.5v-9.7
				v-52.9v-9.6C802.2,956,788.9,942.8,772.6,942.8L772.6,942.8z"/>
		</g>
	</g>
	<g>
		<path class="st1" d="M1631.3,753.1c115.4,0,209.9,88.1,220.5,200.8h77.7c-10.5-155.4-139.9-278.2-297.9-278.2
			S1344,798.4,1333.3,953.9h77.5l0,0C1421.3,841.2,1515.9,753.1,1631.3,753.1z"/>
		<path class="st1" d="M1631.2,1195.8c-117.1,0-213-91.1-220.8-206.3h-77.6c8,157.9,138.4,283.6,298.3,283.6
			s290.6-125.6,298.3-283.6H1852C1844.2,1104.8,1748.3,1195.8,1631.2,1195.8z"/>
		<rect x="1057.5" y="989.6" class="st1" width="77.5" height="264.2"/>
		<polygon class="st1" points="1359.2,695.4 836.2,695.4 836.2,772.9 1057.5,772.9 1057.5,953.9 1134.9,953.9 1134.9,772.9 
			1359.2,772.9 		"/>
		<rect x="2711.3" y="989.6" class="st1" width="77.5" height="264.2"/>
		<path class="st1" d="M3135.6,1176.4h-18.8l-83.1-186.8h-84.7l106.9,240.2c6.5,14.6,21,23.9,36.8,23.9h43h43h34.4V989.6h-77.5
			L3135.6,1176.4L3135.6,1176.4z"/>
		<rect x="3135.8" y="695.4" class="st1" width="77.5" height="258.5"/>
		<path class="st1" d="M2913.4,719.4c-6.5-14.6-21-23.9-36.8-23.9h-87.9H2741h-29.6V954h77.5V772.9h63.8l80.6,181h84.7L2913.4,719.4
			z"/>
		<polygon class="st1" points="2519.2,953.9 2598.5,953.9 2655.9,695.4 2576.5,695.4 		"/>
		<polygon class="st1" points="2134.9,1180 2120.7,1180 2078.5,989.6 1999.1,989.6 2057.7,1253.8 2118.6,1253.8 2137.1,1253.8 
			2197.7,1253.8 2256.3,989.6 2177.1,989.6 		"/>
		<polygon class="st1" points="2469.1,1180 2455,1180 2412.8,989.6 2333.5,989.6 2392.1,1253.8 2452.7,1253.8 2471.3,1253.8 
			2532.1,1253.8 2590.7,989.6 2511.3,989.6 		"/>
		<polygon class="st1" points="2347.6,695.4 2321.6,695.4 2268.2,695.4 2242.3,695.4 2185,953.9 2264.3,953.9 2294.9,815.7 
			2325.5,953.9 2404.9,953.9 		"/>
		<polygon class="st1" points="2013.3,695.4 1933.9,695.4 1991.2,953.9 2070.5,953.9 		"/>
		<path class="st1" d="M3386.6,942.3h218.5c21,0,39,4.2,54.3,11.5h112c-30.4-51.3-85.5-88.6-165.3-88.9h-219.6
			c-61.4,0-61.4-92.1,0-92.1h380.5v-77.5h-380.5C3222.1,695.4,3222.1,942.3,3386.6,942.3z"/>
		<path class="st1" d="M3788,989.6h-86.7c46.9,68.3,14.9,186.8-96.2,186.8H3265v77.5h340.1C3766.4,1253.8,3827.4,1103.3,3788,989.6z
			"/>
		<path d="M1402.9,499.5c-11.6-1-20.3-13-20.3-24.2l0.4-102h61.2c11.6,0,22.5,8.4,22.9,19.6h0.4v-46.3h-84.5v-80.7h81.5
			c11.6,0,22.5,8.4,22.9,19.6h0.4v-46.2h-171.1v0.4c11.6,0.9,20,12.9,20,24.2v211.5c0,11.2-8.8,23.7-20,24.2v0.4h86.2L1402.9,499.5
			L1402.9,499.5z"/>
		<path d="M1513.5,264.5v161.2c0,51.6,43.8,82,97.1,82c53.3,0,96.2-29.9,96.2-82V264.5c0-11.2,8.8-22.9,20.4-23.8v-0.4h-86.6v0.4
			c11.6,0.4,20.4,12.9,20.4,24.2v165.7c0,27-22.9,50.8-50.8,50.8c-27.9,0-50.4-23.7-50.4-50.8V264.4c0-11.2,8.4-23.3,20-24.2v-0.4
			h-86.2v0.4C1504.9,240.7,1513.5,253.2,1513.5,264.5z"/>
		<path d="M2121.2,307.2c0,0-6.7,40.4,49.5,70.4l53.8,28.7c24.2,12.9,21.3,30.8,21.3,30.8s-0.4,41.6-61.6,44.2
			c0,0-48.2-3.7-64.9-27.5h-0.4l15.4,47.9c17.9,6.7,49.5,5.9,49.5,5.9c109.1,0,106.6-74.1,106.6-74.1s6.3-39.6-45.8-67.4l-54.2-28.7
			c-27-13.7-23.3-34.6-23.3-34.6s-2.6-41.3,51.6-41.3c0,0,32.9-3,47.5,20.4h0.4v-39.7c-7.1-6.7-50.4-8-50.4-8
			C2119.5,234.3,2121.2,307.2,2121.2,307.2z"/>
		<path d="M1775.5,221.6c19.2,0,35.8-8.8,47.1-21.7v-30.8c-18.3,34.6-47.1,30.8-47.1,30.8c-21.3,0-38.7-17-38.7-37.9
			s17-37.9,38.7-37.9c10.8,0,20.4,4.6,27.5,11.2l25.9,28.3c13.3,12.9,32,21.3,52.9,21.3c41.3,0,74.9-32.5,74.9-72.9
			s-33.3-72.9-74.9-72.9c-24.2,0-45.4,12.5-59.2,29.9v38.3c18.7-50.8,59.6-47.1,59.6-47.1c29.5,0,53.3,23.3,53.3,51.6
			s-23.8,51.7-53.4,51.7c-14.6,0-27.9-5.9-37.5-15l-26.3-27.9c-10.8-10.8-26.3-17.5-42.9-17.5c-33.7,0-60.8,26.7-60.8,59.2
			C1714.7,195,1741.8,221.6,1775.5,221.6z"/>
		<path d="M1924.4,240.3v-0.4h-86.2v0.4c11.6,0.9,20.4,12.5,20.4,23.7V476c0,11.2-8.8,23.3-20.4,24.2v0.4h86.2v-0.4
			c-11.2-0.4-20-12.9-20-24.2V264.1C1904.4,252.8,1913.1,241.1,1924.4,240.3z"/>
		<path d="M1719.6,603.3v0.4c7.6-1.3,84.5-15.4,84.5-90l0.4-249.4c0-11.2,8.8-23.7,20-24.2v-0.4h-86.2v0.4c11.6,0.9,20,12.9,20,24.2
			v265.3C1758.4,529.5,1757.5,576.2,1719.6,603.3z"/>
		<path d="M2000.9,266.2v209.8c0,11.2-8.8,23.7-20.4,24.2v0.4h86.6v-0.4c-11.6-0.9-20.4-12.9-20.4-24.2V266.2h39.2
			c12,0,21.3,9.2,21.7,20.9h0.4l14.2-47.1h-184.1l-13.7,46.6h0.4c11.6-20.4,29.5-20.4,29.5-20.4H2000.9L2000.9,266.2z"/>
		<path d="M2309.5,264.5v161.2c0,51.6,43.3,82,96.7,82c53.8,0,96.7-29.9,96.7-82V264.5c0-11.2,8.4-22.9,20-23.8v-0.4h-86.2v0.4
			c11.2,0.4,20,12.9,20,24.2v165.7c0,27-22.9,50.8-50.8,50.8c-28.3,0-50.8-23.7-50.8-50.8V264.4c0-11.2,8.8-23.3,20.4-24.2v-0.4
			h-86.2v0.4C2300.8,240.7,2309.5,253.2,2309.5,264.5z"/>
		<polygon class="st1" points="154.1,1035 70,1035 70,1200.9 39.3,1200.9 39.3,1253.8 184.8,1253.8 184.8,1200.9 154.1,1200.9 
			154.1,1150.6 249.7,1150.6 249.7,1097.7 154.1,1097.7 		"/>
		<polygon class="st1" points="39.3,1034.9 284.7,1034.9 284.7,1088.2 352.6,1088.2 352.6,1034.9 352.6,1002.7 352.6,982 39.3,982 
					"/>
		<polygon class="st1" points="648.2,982 641.5,982 568.1,1130.1 498.7,982 376.5,982 376.5,1035 407.1,1035 407.1,1200.9 
			376.5,1200.9 376.5,1253.8 490.7,1253.8 490.7,1200.9 460,1200.9 460,1097.8 533.2,1253.8 533.2,1253.8 565.7,1253.8 
			565.7,1253.8 648.2,1087.7 648.2,1200.9 617.3,1200.9 617.3,1253.8 762.9,1253.8 762.9,1200.9 732.2,1200.9 732.2,1034.9 
			762.9,1034.9 762.9,982 700.5,982 		"/>
	</g>
</g>
</svg>
