<?xml version="1.0" encoding="utf-8"?>
<!-- Generator: Adobe Illustrator 26.3.1, SVG Export Plug-In . SVG Version: 6.00 Build 0)  -->
<svg version="1.1" id="Layer_1" xmlns="http://www.w3.org/2000/svg" xmlns:xlink="http://www.w3.org/1999/xlink" x="0px" y="0px"
	 viewBox="0 0 3839 1425.1" style="enable-background:new 0 0 3839 1425.1;" xml:space="preserve">
<style type="text/css">
	.st0{fill:#FFFFFF;}
</style>
<g>
	<g>
		<path class="st0" d="M29.5,1410.3c-8.2,0-14.8-6.6-14.8-14.8V29.5c0-8.2,6.6-14.8,14.8-14.8h3779.9c8.2,0,14.8,6.6,14.8,14.8v1366
			c0,8.2-6.6,14.8-14.8,14.8H29.5z"/>
		<path class="st0" d="M3809.5,29.5v9.7v1346.5v9.7h-9.7H39.3h-9.7v-9.7V39.3v-9.7h9.7h3760.5H3809.5 M3809.5,0h-9.6H39.3h-9.7
			C13.2,0,0,13.2,0,29.5v9.7v1346.5v9.7c0,16.3,13.2,29.5,29.5,29.5h9.7h3760.4h9.7c16.3,0,29.5-13.2,29.5-29.5v-9.7V39.3v-9.7
			C3839,13.2,3825.8,0,3809.5,0L3809.5,0z"/>
	</g>
	<g>
		<g>
			<rect x="34.5" y="34.5" width="3770.3" height="1356.3"/>
			<path class="st0" d="M3799.8,39.3v1346.5H39.3V39.3H3799.8 M3809.6,29.5h-9.7H39.3h-9.7v9.7v1346.5v9.7h9.7h3760.4h9.7v-9.7V39.3
				L3809.6,29.5L3809.6,29.5z"/>
		</g>
		<g>
			<polygon class="st0" points="1575,359 1417.3,359 1417.3,203.6 1595.2,203.6 			"/>
			<rect x="944.4" y="651.8" class="st0" width="314.7" height="155.3"/>
			<rect x="1122.7" y="427.7" class="st0" width="136.3" height="155.3"/>
			<path class="st0" d="M1122.7,583c-253,0-253-379.5,0-379.5c0,51.8,0,103.5,0,155.3c-45.8,0-45.8,68.8,0,68.8
				C1122.7,479.5,1122.7,531.3,1122.7,583z"/>
			<path class="st0" d="M1259.2,427.7c253,0,253,379.5,0,379.5c0-51.8,0-103.5,0-155.3c45.8,0,45.8-68.8,0-68.8
				C1259.2,531.3,1259.2,479.5,1259.2,427.7z"/>
			<polygon class="st0" points="2023.9,807.2 1595.2,203.6 1460,281.4 1833.4,807.2 			"/>
			<polygon class="st0" points="1391.4,807.2 1820.2,203.6 2010.7,203.6 1582,807.2 			"/>
			<rect x="1122.7" y="203.6" class="st0" width="321.9" height="155.3"/>
			<polygon class="st0" points="401.3,807.2 475.5,535.3 549.6,807.2 689.7,807.2 763.9,535.3 838,807.2 999,807.2 834.4,203.6 
				693.4,203.6 619.6,473.8 546,203.6 405,203.6 240.3,807.2 			"/>
		</g>
		<g>
			<path class="st0" d="M446.2,1148.1V897.9H321.1v270.4c0,29.3,23.8,53.3,53.3,53.3h57.4h14.5h116v-53.2h-95.9
				C455.2,1168.3,446.2,1159.2,446.2,1148.1z"/>
			<rect x="240.3" y="979.7" class="st0" width="321.9" height="53.2"/>
			<path class="st0" d="M820,979.7v188.7h-70.4V979.7H624.5v188.7c0,29.3,23.8,53.3,53.3,53.3h17.7h54.2H820h98.2h27V979.7H820z"/>
			<path class="st0" d="M1264.9,979.7h-113.5h-44.9c-44.4,0-80.3,35.9-80.3,80.3v161.5h125.1v-188.7h113.5L1264.9,979.7
				L1264.9,979.7z"/>
			<path class="st0" d="M1439.7,979.7v-81.8h-125.1v323.7H1555c44.4,0,80.3-44.4,80.3-110.6v-20.7c0-66.2-35.9-110.6-80.3-110.6
				L1439.7,979.7L1439.7,979.7z M1439.7,1168.3v-135.4h70.4v135.3L1439.7,1168.3L1439.7,1168.3z"/>
			<path class="st0" d="M1943.6,979.7h-29.1h-86.1h-44.9c-44.4,0-80.3,44.4-80.3,110.6v20.7c0,66.2,35.9,110.6,80.3,110.6h15.8
				h115.1h29.1c44.4,0,80.3-44.4,80.3-110.6v-20.7C2023.9,1024.1,1988,979.7,1943.6,979.7z M1898.8,1168.3h-70.4v-135.4h70.4V1168.3
				z"/>
		</g>
		<rect x="2359.9" y="95" class="st0" width="1384.2" height="1234.9"/>
		<g>
			<rect x="2653.8" y="203.6" width="222.9" height="1017.8"/>
			<rect x="2744" y="203.6" width="427" height="222.9"/>
			<rect x="3171" y="382" width="222.9" height="214.7"/>
			<rect x="3227.2" y="819.6" width="222.9" height="401.9"/>
			<rect x="2760.5" y="596.8" width="410.4" height="222.9"/>
			<polygon points="3393.9,382 3170.9,203.6 3097.5,203.6 3140.5,403.6 3372,400.9 			"/>
			<polygon points="3170.9,596.8 3450.1,819.6 3087.4,819.6 			"/>
		</g>
	</g>
</g>
</svg>
