<?xml version="1.0" encoding="utf-8"?>
<!-- Generator: Adobe Illustrator 26.3.1, SVG Export Plug-In . SVG Version: 6.00 Build 0)  -->
<svg version="1.1" id="Layer_1" xmlns="http://www.w3.org/2000/svg" xmlns:xlink="http://www.w3.org/1999/xlink" x="0px" y="0px"
	 viewBox="0 0 3839 1663.5" style="enable-background:new 0 0 3839 1663.5;" xml:space="preserve">
<style type="text/css">
	.st0{fill:#FFFFFF;}
	.st1{fill:#C30207;}
</style>
<g>
	<g>
		<g>
			<path class="st0" d="M1220.5,1247.8c-8.2,0-14.8-6.6-14.8-14.8v-177.2c0-8.2,6.6-14.8,14.8-14.8h298.6c8.2,0,14.8,6.6,14.8,14.8
				V1233c0,8.2-6.6,14.8-14.8,14.8H1220.5z"/>
			<path class="st0" d="M1519.1,1055.8v9.8v157.6v9.8h-9.8h-279h-9.8v-9.8v-157.6v-9.8h9.8h279H1519.1 M1519.1,1026.3h-9.8h-279
				h-9.8c-16.3,0-29.5,13.2-29.5,29.5v9.8v157.6v9.8c0,16.3,13.2,29.5,29.5,29.5h9.8h279h9.8c16.3,0,29.5-13.2,29.5-29.5v-9.8
				v-157.6v-9.8C1548.6,1039.5,1535.4,1026.3,1519.1,1026.3L1519.1,1026.3z"/>
		</g>
		<g>
			<path class="st0" d="M1689.1,1629.6c-5,0-9.7-2.5-12.4-6.7c-2.7-4.2-3.1-9.5-1.1-14.1l139.7-313c-30.8-4.2-60.8-12.7-89.3-25.5
				c-38.3-17.1-72.6-41-101.9-71.1c-29.4-30.2-52.5-65.1-68.5-103.8c-16.7-40.1-25.1-82.6-25.1-126.4c0-44.5,8.7-87.8,25.9-128.4
				c16.6-39.3,40.4-74.6,70.7-104.9c30.3-30.3,65.6-54.1,104.9-70.7c40.7-17.2,83.9-25.9,128.4-25.9c44.5,0,87.8,8.7,128.4,25.9
				c39.3,16.6,74.6,40.4,104.9,70.7c30.3,30.3,54.1,65.6,70.7,104.9c17.2,40.7,25.9,84,25.9,128.5c0,45.3-9.1,89.2-27,130.6
				c0,0.1-232.6,521.2-232.6,521.2c-2.4,5.3-7.7,8.8-13.5,8.8H1689.1z M1860.4,877c-50.7,0-92,41.3-92,92c0,50.7,41.3,92,92,92
				c50.7,0,92-41.3,92-92C1952.4,918.2,1911.2,877,1860.4,877z"/>
			<path class="st0" d="M1860.4,653.8c42.6,0,83.8,8.3,122.7,24.8c37.5,15.9,71.2,38.6,100.2,67.5c28.9,28.9,51.7,62.7,67.5,100.2
				c16.4,38.9,24.8,80.2,24.8,122.8c0,43.2-8.7,85.2-25.8,124.8l0,0.1l0,0.1L1919.9,1609l-2.6,5.8h-6.4h-206.8h-15.1l6.2-13.8
				l141.9-317.8c-36.5-2.6-71.8-11.5-105.1-26.4c-36.6-16.3-69.3-39.2-97.4-67.9c-28.1-28.8-50.1-62.2-65.5-99.2
				c-15.9-38.3-24-78.9-24-120.8c0-42.5,8.3-83.8,24.8-122.7c15.9-37.5,38.6-71.2,67.5-100.2c28.9-28.9,62.7-51.7,100.2-67.5
				C1776.6,662.1,1817.9,653.8,1860.4,653.8 M1860.4,1075.7c58.9,0,106.8-47.9,106.8-106.8c0-58.9-47.9-106.8-106.8-106.8
				c-58.9,0-106.8,47.9-106.8,106.8C1753.7,1027.8,1801.6,1075.7,1860.4,1075.7 M1860.4,624.2c-46.5,0-91.7,9.1-134.2,27.1
				c-41.1,17.4-77.9,42.2-109.6,73.9c-31.6,31.6-56.5,68.5-73.9,109.6c-18,42.5-27.1,87.7-27.1,134.2c0,45.7,8.8,90.2,26.2,132.1
				c16.8,40.5,40.9,77,71.6,108.5c30.7,31.5,66.5,56.5,106.5,74.3c23.8,10.6,48.6,18.5,74.1,23.4L1668.3,1589l-6.2,13.8
				c-4.1,9.1-3.3,19.7,2.2,28.1s14.8,13.5,24.8,13.5h15.1H1911h6.4c11.7,0,22.2-6.9,27-17.5l2.6-5.8l229.9-515.1l0,0
				c0.1-0.1,0.1-0.3,0.2-0.4c18.7-43.3,28.2-89.2,28.2-136.5c0-46.6-9.1-91.7-27.1-134.3c-17.4-41.1-42.2-77.9-73.9-109.6
				c-31.6-31.6-68.5-56.5-109.6-73.9C1952.1,633.3,1907,624.2,1860.4,624.2L1860.4,624.2z M1860.4,1046.2
				c-42.6,0-77.2-34.6-77.2-77.2c0-42.6,34.6-77.2,77.2-77.2c42.6,0,77.2,34.6,77.2,77.2C1937.7,1011.5,1903,1046.2,1860.4,1046.2
				L1860.4,1046.2z"/>
		</g>
		<g>
			<path class="st0" d="M2506,1645.1c-43.9,0-86.4-8.3-126.5-24.7c-38.8-15.9-73.6-38.6-103.5-67.6c-30-29-53.5-62.8-70-100.5
				c-17.1-39.1-25.7-80.6-25.7-123.3c0-74.4,26.9-145.9,76.1-202.8c-17.2-22.4-31.1-46.9-41.3-72.9c-13.5-34.3-20.3-70.3-20.3-107.3
				c0-40.9,8.3-80.5,24.6-117.9c15.7-36,38.2-68.3,66.9-96.1c28.6-27.7,61.9-49.4,98.9-64.6c38.3-15.7,79-23.6,120.9-23.6
				c41.9,0,82.6,8,120.9,23.6c37.1,15.2,70.3,36.9,98.9,64.6c28.7,27.7,51.2,60,66.9,96.1c16.3,37.3,24.6,77,24.6,117.9
				c0,36.9-6.8,73-20.3,107.3c-10.3,26.1-24.2,50.6-41.4,73c49.1,56.9,76.1,128.4,76.1,202.8c0,42.8-8.7,84.3-25.7,123.3
				c-16.5,37.7-40,71.5-70,100.5c-29.9,29-64.7,51.7-103.5,67.6C2592.5,1636.8,2549.9,1645.1,2506,1645.1z M2506.1,1234.7
				c-22.7,0-44.1,8.8-60.1,24.9c-16,16-24.9,37.4-24.9,60.1c0,22.7,8.8,44,24.9,60.1c16,16,37.4,24.9,60.1,24.9
				c22.7,0,44-8.8,60.1-24.9c16.1-16,24.9-37.4,24.9-60.1c0-22.7-8.8-44-24.9-60.1C2550.1,1243.5,2528.8,1234.7,2506.1,1234.7z
				 M2506.1,876c-38.6,0-70,31.4-70,70c0,38.6,31.4,70,70,70c38.6,0,70-31.4,70-70C2576.1,907.4,2544.7,876,2506.1,876z"/>
			<path class="st0" d="M2506.1,658.5c40,0,78.8,7.6,115.3,22.5c35.3,14.5,67,35.2,94.3,61.5c27.3,26.4,48.7,57.1,63.6,91.4
				c15.5,35.5,23.4,73.1,23.4,112c0,35.1-6.5,69.3-19.3,101.9c-11.2,28.6-27.1,55.1-47.1,78.9c52.1,55.6,80.7,127.1,80.7,202.2
				c0,40.7-8.2,80.2-24.5,117.4c-15.7,35.9-38.1,68.1-66.7,95.8c-28.6,27.7-61.8,49.4-98.8,64.5c-38.3,15.7-79,23.6-121,23.6
				c-41.9,0-82.6-8-120.9-23.6c-37-15.2-70.3-36.9-98.8-64.5c-28.6-27.7-51-59.9-66.7-95.8c-16.3-37.2-24.5-76.7-24.5-117.4
				c0-75.1,28.6-146.6,80.7-202.2c-19.9-23.9-35.7-50.4-46.9-78.9c-12.8-32.5-19.3-66.8-19.3-101.9c0-38.8,7.9-76.5,23.4-112
				c15-34.2,36.4-65,63.6-91.4c27.2-26.4,59-47.1,94.3-61.5C2427.3,666.1,2466.1,658.5,2506.1,658.5 M2506.1,1030.7
				c46.7,0,84.7-38,84.7-84.7s-38-84.7-84.7-84.7c-46.7,0-84.7,38-84.7,84.7S2459.4,1030.7,2506.1,1030.7 M2506.1,1419.3
				c26.6,0,51.7-10.4,70.5-29.2c18.8-18.8,29.2-43.9,29.2-70.5s-10.4-51.7-29.2-70.5c-18.8-18.8-43.9-29.2-70.5-29.2
				c-26.7,0-51.7,10.4-70.5,29.2c-18.8,18.8-29.2,43.9-29.2,70.5c0,26.6,10.4,51.7,29.2,70.5
				C2454.5,1409,2479.5,1419.3,2506.1,1419.3 M2506.1,629c-43.9,0-86.4,8.3-126.5,24.7c-38.8,15.9-73.7,38.6-103.6,67.6
				c-30,29.1-53.6,63-70.2,100.7c-17.1,39.2-25.8,80.9-25.8,123.8c0,38.8,7.2,76.7,21.3,112.7c9.3,23.7,21.5,46.1,36.3,67
				c-46.7,58-72.1,129.3-72.1,203.4c0,44.8,9.1,88.3,27,129.2c17.2,39.4,41.9,74.8,73.2,105.2c31.3,30.3,67.7,54,108.2,70.6
				c41.9,17.2,86.3,25.9,132.1,25.9c45.8,0,90.3-8.7,132.2-25.9c40.5-16.6,76.9-40.4,108.2-70.6c31.4-30.4,56-65.8,73.2-105.2
				c17.9-40.9,26.9-84.4,26.9-129.2c0-74-25.4-145.3-72-203.3c14.9-20.9,27.1-43.3,36.4-67c14.2-36,21.3-73.9,21.3-112.7
				c0-42.9-8.7-84.6-25.8-123.8c-16.5-37.8-40.1-71.7-70.2-100.7c-30-29-64.8-51.7-103.6-67.6C2592.6,637.3,2550,629,2506.1,629
				L2506.1,629z M2506.1,1001.1c-30.4,0-55.2-24.8-55.2-55.2c0-30.4,24.8-55.2,55.2-55.2s55.2,24.8,55.2,55.2
				C2561.3,976.4,2536.6,1001.1,2506.1,1001.1L2506.1,1001.1z M2506.1,1389.8c-18.7,0-36.4-7.3-49.6-20.5
				c-13.3-13.3-20.6-30.9-20.6-49.6c0-18.8,7.3-36.4,20.5-49.6c13.2-13.2,30.9-20.5,49.6-20.5c18.7,0,36.4,7.3,49.6,20.5
				c13.3,13.3,20.6,30.9,20.6,49.6c0,18.8-7.3,36.4-20.6,49.6C2542.5,1382.5,2524.9,1389.8,2506.1,1389.8L2506.1,1389.8z"/>
		</g>
		<g>
			<path class="st0" d="M3180.2,1629.6c-55.2,0-105.3-10.1-148.8-30c-44.8-20.5-83-51.5-113.7-92.2c-62.1-82.4-93.5-204.5-93.5-363
				s31.5-280.6,93.5-363c30.7-40.7,68.9-71.7,113.7-92.2c43.5-19.9,93.6-30,148.8-30s105.3,10.1,148.8,30
				c44.8,20.5,83,51.5,113.7,92.2c62.1,82.4,93.5,204.5,93.5,363c0,158.5-31.5,280.6-93.5,363c-30.7,40.7-68.9,71.7-113.7,92.2
				C3285.5,1619.5,3235.4,1629.6,3180.2,1629.6z M3180.2,882.5c-17.8,0-32.6,4.1-45.1,12.6c-13,8.8-24.1,23-33.1,42.1
				c-20.5,43.4-30.5,111-30.6,206.7v1c0,95.6,10,163.2,30.5,206.7c9,19.1,20.2,33.3,33.2,42.1c12.5,8.5,27.2,12.6,45.1,12.6
				c17.8,0,32.6-4.1,45.1-12.6c13-8.8,24.1-23,33.1-42.1c20.5-43.4,30.5-111.1,30.6-206.7v-1c0-95.6-10-163.2-30.5-206.7
				c-9-19.1-20.2-33.3-33.2-42.1C3212.8,886.7,3198.1,882.5,3180.2,882.5z"/>
			<path class="st0" d="M3180.2,673.9c53.1,0,101.1,9.6,142.6,28.7c42.5,19.4,78.9,48.9,108,87.7c60.1,79.8,90.6,198.9,90.6,354.1
				s-30.5,274.4-90.6,354.1c-29.2,38.7-65.5,68.2-108,87.7c-41.6,19-89.6,28.7-142.6,28.7c-53.1,0-101.1-9.6-142.6-28.7
				c-42.5-19.4-78.9-48.9-108-87.7c-60.1-79.8-90.6-198.9-90.6-354.1s30.5-274.4,90.6-354.1c29.2-38.7,65.5-68.2,108-87.7
				C3079.1,683.6,3127.1,673.9,3180.2,673.9 M3180.2,1421c20.9,0,38.3-5,53.4-15.2c15.2-10.3,28.1-26.5,38.2-48
				c21.4-45.5,31.9-115.1,32-212.9v-0.5v-0.5c0-97.8-10.5-167.5-31.9-212.9c-10.1-21.5-23-37.7-38.2-48
				c-15-10.2-32.5-15.2-53.4-15.2c-20.9,0-38.3,5-53.4,15.2c-15.2,10.3-28.1,26.5-38.2,48c-21.4,45.5-31.9,115.1-32,212.9v0.5v0.5
				c0,97.8,10.5,167.5,31.9,212.9c10.1,21.5,23,37.7,38.2,48C3141.9,1416,3159.3,1421,3180.2,1421 M3180.2,644.4
				c-57.4,0-109.5,10.5-154.9,31.3c-47,21.5-87.2,54.1-119.4,96.8c-64,85-96.5,210.1-96.5,371.9s32.5,286.9,96.5,371.9
				c32.2,42.7,72.3,75.3,119.4,96.8c45.4,20.8,97.6,31.3,154.9,31.3c57.4,0,109.5-10.5,154.9-31.3c47-21.5,87.2-54.1,119.4-96.8
				c64-85,96.5-210.1,96.5-371.9s-32.5-286.9-96.5-371.9c-32.2-42.7-72.3-75.3-119.4-96.8C3289.7,654.9,3237.6,644.4,3180.2,644.4
				L3180.2,644.4z M3180.2,1391.5c-15,0-26.7-3.2-36.8-10.1c-10.8-7.3-20.2-19.5-28.1-36.2c-9.4-20-16.7-46.5-21.5-78.6
				c-5-33.6-7.6-74.5-7.6-121.7v-0.5v-0.5c0-47.2,2.6-88.2,7.7-121.7c4.8-32.2,12.1-58.6,21.5-78.6c7.9-16.7,17.3-28.8,28.1-36.2
				c10.1-6.9,21.8-10.1,36.8-10.1c15,0,26.7,3.2,36.8,10.1c10.8,7.3,20.2,19.5,28.1,36.2c9.4,20,16.7,46.5,21.5,78.6
				c5,33.6,7.6,74.5,7.6,121.7v0.5v0.5c0,47.2-2.6,88.2-7.7,121.7c-4.8,32.2-12.1,58.6-21.5,78.6c-7.9,16.7-17.3,28.8-28.1,36.2
				C3206.9,1388.3,3195.2,1391.5,3180.2,1391.5L3180.2,1391.5z"/>
		</g>
		<g>
			<path class="st0" d="M1123.9,1648.7c-234.5,0-487.6-192.8-487.6-504.3c0-311.5,253.1-504.3,487.6-504.3c45.3,0,81.9,2.6,115,8.2
				l8.2,1.4c7.1,1.2,12.3,7.4,12.3,14.6v234.4c0,4.5-2,8.7-5.5,11.5c-2.6,2.1-5.9,3.2-9.2,3.2c-1.1,0-2.2-0.1-3.2-0.4l-11.9-2.7
				c-3.1-0.7-6.1-1.4-9.2-2.2c-17.1-4.2-36.5-9-89.4-9c-22.3,0-46.9,5.2-70.9,15c-25.9,10.6-50.6,26.4-71.4,45.8
				c-23.2,21.6-41.5,47.3-54.4,76.3c-14.5,32.6-21.8,69-21.8,108.2c0,39.2,7.3,75.6,21.8,108.2c12.9,29,31.2,54.7,54.4,76.3
				c20.8,19.4,45.5,35.2,71.4,45.8c24,9.8,48.5,15,70.9,15c53.4,0,72.8-4.8,89.9-9c2.9-0.7,5.7-1.4,8.7-2.1l12-2.8
				c1.1-0.3,2.2-0.4,3.3-0.4c3.3,0,6.6,1.1,9.2,3.2c3.5,2.8,5.6,7.1,5.6,11.6v234.4c0,7.2-5.2,13.4-12.3,14.6l-8.2,1.4
				C1205.8,1646.1,1169.3,1648.7,1123.9,1648.7z"/>
			<path class="st0" d="M1123.9,654.8c44.5,0,80.2,2.5,112.5,8l8.2,1.4v8.3v213.8v12.2l-11.9-2.7c-3-0.7-5.9-1.4-8.9-2.1
				c-17.9-4.4-38.2-9.4-92.9-9.4c-24.2,0-50.7,5.6-76.5,16.1c-27.6,11.3-53.8,28.1-75.9,48.6c-24.7,23-44.2,50.3-57.9,81.1
				c-15.3,34.5-23.1,72.9-23.1,114.2c0,41.3,7.8,79.7,23.1,114.2c13.7,30.8,33.2,58.1,57.9,81.1c22.1,20.6,48.3,37.4,75.9,48.6
				c25.8,10.5,52.2,16.1,76.5,16.1c55.2,0,75.5-5,93.4-9.5c2.9-0.7,5.6-1.4,8.4-2l12-2.8v12.3v213.8v8.3l-8.2,1.4
				c-32.3,5.4-68,8-112.5,8c-227.4,0-472.8-187.2-472.8-489.6C651.1,842,896.6,654.8,1123.9,654.8 M1123.9,625.3
				c-30.2,0-60.9,3.1-91.4,9.2c-30.3,6.1-60.4,15.1-89.5,26.9c-29.3,11.9-57.7,26.6-84.5,43.7c-27.3,17.4-53,37.5-76.5,59.6
				c-49.6,46.8-88.6,101.8-116,163.7c-29.5,66.7-44.4,139.3-44.4,216c0,76.7,14.9,149.3,44.4,216c27.3,61.8,66.4,116.9,116,163.7
				c23.5,22.1,49.2,42.2,76.5,59.6c26.8,17.1,55.2,31.8,84.5,43.7c29.1,11.8,59.2,20.9,89.5,26.9c30.5,6.1,61.2,9.2,91.4,9.2
				c46.2,0,83.5-2.7,117.4-8.4l8.2-1.4c14.2-2.4,24.6-14.7,24.6-29.1v-8.3v-213.8v-12.3c0-9-4.1-17.5-11.1-23.1
				c-5.3-4.2-11.8-6.4-18.4-6.4c-2.2,0-4.4,0.2-6.6,0.8l-12,2.8c-3.1,0.7-5.9,1.4-8.9,2.2c-17,4.2-34.7,8.6-86.3,8.6
				c-20.4,0-43-4.8-65.3-13.9c-24.3-9.9-47.5-24.8-67-42.9c-21.8-20.3-38.9-44.3-51-71.5c-13.6-30.7-20.5-65.1-20.5-102.2
				c0-37.1,6.9-71.5,20.5-102.2c12.1-27.2,29.2-51.2,51-71.5c19.5-18.1,42.6-33,67-42.9c22.3-9.1,44.9-13.9,65.3-13.9
				c51.2,0,68.8,4.3,85.9,8.5c3.2,0.8,6.2,1.5,9.5,2.3l12,2.7c2.2,0.5,4.3,0.7,6.5,0.7c6.6,0,13.2-2.2,18.4-6.5
				c7-5.6,11.1-14.1,11.1-23.1v-12.2V672.5v-8.3c0-14.4-10.4-26.7-24.6-29.1l-8.2-1.4C1207.4,628,1170.1,625.3,1123.9,625.3
				L1123.9,625.3z"/>
		</g>
		<g>
			<path class="st0" d="M3586,1629.6c-8.2,0-14.8-6.6-14.8-14.8V673.9c0-8.2,6.6-14.8,14.8-14.8h223.4c8.2,0,14.8,6.6,14.8,14.8
				v940.9c0,8.2-6.6,14.8-14.8,14.8H3586z"/>
			<path class="st0" d="M3809.5,673.9v9.8V1605v9.8h-9.8h-203.8h-9.8v-9.8V683.7v-9.8h9.8h203.8H3809.5 M3809.5,644.4h-9.8h-203.8
				h-9.8c-16.3,0-29.5,13.2-29.5,29.5v9.8V1605v9.8c0,16.3,13.2,29.5,29.5,29.5h9.8h203.8h9.8c16.3,0,29.5-13.2,29.5-29.5v-9.8
				V683.7v-9.8C3839,657.6,3825.8,644.4,3809.5,644.4L3809.5,644.4z"/>
		</g>
		<g>
			<path class="st0" d="M29.5,1629.6c-8.2,0-14.8-6.6-14.8-14.8V673.9c0-8.2,6.6-14.8,14.8-14.8h322.4c43,0,85.1,8.4,125.2,25
				c38.8,16,73.7,38.9,104,68c30.5,29.3,54.5,63.4,71.3,101.2c17.6,39.5,26.5,81.4,26.5,124.4c0,43-8.9,84.9-26.5,124.4
				c-16.8,37.8-40.8,71.8-71.3,101.1c-30.2,29.1-65.2,52-104,68c-40.1,16.6-82.2,25-125.2,25h-66.4c-8.2,0-14.8-6.6-14.8-14.8
				v-212.7c0-8.2,6.6-14.8,14.8-14.8h50.2c20.1,0,39-7.8,53.2-22c14.2-14.2,22-33.1,22-53.2c0-20.1-7.8-39-22-53.2
				c-14.2-14.2-33.1-22-53.2-22h-68v711.3c0,8.2-6.6,14.8-14.8,14.8H29.5z"/>
			<path class="st0" d="M351.9,673.9c41,0,81.3,8,119.5,23.9c37,15.3,70.5,37.2,99.4,65c29.1,28,52,60.5,68,96.5
				c16.8,37.6,25.3,77.5,25.3,118.4s-8.5,80.8-25.3,118.4c-16.1,36.1-38.9,68.5-68,96.5c-28.9,27.8-62.3,49.7-99.4,65
				c-38.3,15.8-78.5,23.8-119.5,23.8h-56.6h-9.8v-9.8v-193.2v-9.8h9.8h40.5c24.1,0,46.7-9.4,63.7-26.4c17-17,26.4-39.6,26.4-63.7
				c0-24.1-9.4-46.7-26.4-63.7c-17-17-39.6-26.4-63.7-26.4H253V1605v9.8h-9.8H39.3h-9.8v-9.8V683.7v-9.8h9.8h203.8H351.9
				 M351.9,644.4H243.2H39.3h-9.8C13.2,644.4,0,657.6,0,673.9v9.8V1605v9.8c0,16.3,13.2,29.5,29.5,29.5h9.8h203.8h9.8
				c16.3,0,29.5-13.2,29.5-29.5v-9.8v-294.1c1,0.1,2,0.1,3,0.1h9.8h56.6c44.9,0,88.9-8.8,130.8-26.1c40.5-16.7,77-40.6,108.6-71
				c31.8-30.6,56.9-66.2,74.5-105.8c18.5-41.4,27.8-85.3,27.8-130.4s-9.4-89-27.8-130.4c-17.6-39.6-42.7-75.2-74.5-105.8
				c-31.6-30.4-68.1-54.3-108.6-71C440.8,653.2,396.8,644.4,351.9,644.4L351.9,644.4z M282.5,918.3h53.2c16.2,0,31.4,6.3,42.8,17.7
				c11.4,11.4,17.7,26.6,17.7,42.8c0,16.2-6.3,31.4-17.7,42.8c-11.4,11.4-26.6,17.7-42.8,17.7h-40.5h-9.8c-1,0-2,0.1-3,0.1V918.3
				L282.5,918.3z"/>
		</g>
		<g>
			<path class="st0" d="M1257.5,551.2c-3.2,0-6.4-1-9-3.1c-4.5-3.5-6.6-9.2-5.5-14.8l69.5-330.5l-8.1-9l-41.8-3.9
				c-5.5-0.5-10.3-4.1-12.4-9.3c-2-5.2-1-11.1,2.7-15.2L1378.1,24c2.8-3.2,6.8-5,11-5c0,0,0,0,0,0c4.2,0,8.2,1.8,11,4.9L1600,247
				l46.2-220.5c1-4.7,4.1-8.6,8.5-10.5c1.9-0.8,3.9-1.3,6-1.3c2.6,0,5.2,0.7,7.5,2l129.4,76c4.6,2.7,7.3,7.6,7.3,12.8
				c0,5.3-2.9,10.1-7.5,12.7l-89.5,50.7l-74.8,356.5c-1.1,5.4-5.3,9.8-10.6,11.2c-1.3,0.3-2.5,0.5-3.8,0.5c-4.1,0-8.2-1.7-11-4.9
				l-220.9-246.7l-22.6,107.7l58.5,53.6c3.6,3.3,5.3,8.1,4.7,12.9c-0.7,4.8-3.6,9-8,11.2l-155.2,78.5
				C1262,550.7,1259.8,551.2,1257.5,551.2z"/>
			<path class="st0" d="M1660.7,29.5l11.8,6.9l103,60.5l14.6,8.6l-14.8,8.4l-80.5,45.6l-72.2,344.1l-4,18.9l-12.9-14.4l-227.5-254
				L1348,398.7l54.3,49.7l10.4,9.6l-12.6,6.4l-124.4,62.9l-18.2,9.2l4.2-20l66.9-317.9l-17-18.9l-28.4-2.7l-19.2-1.8l12.8-14.4
				L1381.9,42l7.3-8.2l7.3,8.2l212,236.6l49.4-235.7L1660.7,29.5 M1660.7,0c-4.1,0-8.1,0.8-11.9,2.5c-8.7,3.8-15,11.6-17,21
				l-2.8,13.3l-37.4,178.6l-173-193.2l-7.3-8.2c-5.6-6.3-13.6-9.8-22-9.8c0,0-0.1,0-0.1,0c-8.4,0-16.4,3.6-22,10l-7.3,8.2
				l-105.1,118.7l-12.8,14.4c-7.4,8.3-9.4,20.1-5.4,30.4c4.1,10.3,13.6,17.5,24.7,18.6l19.2,1.8l16,1.5l-63.6,302.5l-4.2,20
				c-2.3,11.1,1.9,22.6,10.9,29.5c5.3,4,11.6,6.1,18,6.1c4.5,0,9.1-1,13.3-3.2l18.2-9.2l124.4-62.9l12.6-6.4
				c8.7-4.4,14.6-12.7,15.9-22.3c1.3-9.6-2.2-19.3-9.3-25.8l-10.4-9.6l-41.8-38.3l14.9-70.9l188.5,210.5l12.9,14.4
				c5.7,6.3,13.7,9.8,22,9.8c2.5,0,5.1-0.3,7.6-1c10.8-2.9,19-11.6,21.3-22.5l4-18.9l69.4-331l68.9-39l14.8-8.4
				c9.2-5.2,14.9-14.9,15-25.5c0.1-10.6-5.5-20.4-14.6-25.7l-14.6-8.6l-103-60.5l-11.8-6.9C1671,1.4,1665.9,0,1660.7,0L1660.7,0z"/>
		</g>
		<g>
			<path class="st0" d="M1688.6,503.5c-13.4,0-24.8-9.6-27-22.8c-2.3-13.2,5.2-26,17.8-30.5c5.9-2.1,11.8-4,17.5-5.8
				c10.2-3.3,19.9-6.4,26.9-9.9c6.8-3.5,7.5-5.6,7.5-5.6l26.9-128.6c-5-1.4-12.2-3.1-22.3-4.7c0,0-0.1,0-0.1,0
				c-14-2.3-24-14.3-23.6-28.4c0.3-14.1,10.8-25.6,24.8-27.2c24.4-2.9,33.4-7.6,36-9.4l26.4-125.7c-3.8-3.6-13.5-10.4-31.8-16.9
				c-12.6-4.5-20.1-17.3-17.8-30.5c2.3-13.2,13.6-22.8,27-22.8H2145l44.9,0.1c4.4,0,8.6,2,11.4,5.5c2.8,3.5,3.9,8,3,12.3
				c0,0-33.6,160.1-33.6,160.2c-3,13.5-14.8,23-28.6,23c-15.3,0-27.8-11.5-29.2-26.7c-3.3-34.8-9.1-59.7-17.5-76.1
				c-8-15.6-17.1-21.9-31.3-21.9h-77.3l-24,114.3c24.2-6.3,55.1-37,75.9-63.7l0.4-0.5c5.2-6.4,12.9-10,21.1-10
				c8.3,0,16,3.7,21.2,10.1c5.2,6.4,7.1,14.7,5.4,22.7l-37,176.6c-2.6,12.7-13.5,21.6-26.6,21.6c-11.3,0-21.2-6.8-25.3-17.3
				c-3.6-9.2-11.2-26.8-21.7-41.6c-9.5-13.2-18.6-20.5-25.7-20.5h-3.8l-26.1,124.6h62.8c15.6,0,35.3-11.6,56.9-33.7
				c20.7-21.1,38.4-46.9,49.5-64.7c5.2-8.4,14.3-13.5,24.2-13.5c8.5,0,16.8,3.9,22.3,10.5c5.4,6.6,7.6,15.3,5.9,23.7
				c0,0.1-29.9,142.2-29.9,142.2c-1.4,6.8-7.5,11.7-14.5,11.7H1688.6z"/>
			<path class="st0" d="M2145,49.3l32.8,0.1l12,0l-2.5,11.8l-31.1,148.1l0,0.1l0,0.1c-1.5,6.7-7.3,11.4-14.2,11.4
				c-7.6,0-13.8-5.7-14.5-13.2c-3.5-36.8-9.8-63.5-19.1-81.5c-10.5-20.4-24.6-29.9-44.4-29.9h-89.3l-30.5,145h10.1
				c38.2,0,83.1-54,95.9-70.6l0.1-0.1l0.1-0.1c2.4-2.9,5.9-4.6,9.6-4.6c3.8,0,7.3,1.7,9.7,4.6c2.3,2.9,3.2,6.7,2.5,10.4l-37,176.7
				c-1.2,5.8-6.2,9.8-12.1,9.8c-5.2,0-9.7-3.1-11.5-7.9c-3.8-9.9-12-28.7-23.5-44.8c-12.7-17.7-25.3-26.7-37.7-26.7h-0.2h-15.6
				L1902.3,442h81c19.9,0,42.6-12.8,67.4-38.1c21.7-22.1,39.9-48.8,51.5-67.3c2.5-4.1,6.9-6.5,11.7-6.5c4.2,0,8.2,1.9,10.9,5.1
				c2.6,3.2,3.7,7.4,2.9,11.5l0,0.1l0,0.1l-28.2,134.1l-1.6,7.8h-7.9h-1.4H2025h-140.6h-104.1h-34.4h-57.3
				c-6.2,0-11.4-4.4-12.5-10.5c-1-6.1,2.4-12,8.2-14.1c5.7-2,11.4-3.9,17.1-5.7c21.4-6.8,41.6-13.3,44.4-26.6l29.5-141
				c-4-2.2-14-6.3-37.1-9.9l0,0l0,0c-6.7-1.1-11.4-6.8-11.2-13.5c0.2-6.7,5.1-12.1,11.8-12.9c33.5-4,46.8-12.2,48.2-18.6l27.9-133.1
				c0.9-4.3-10.9-17.6-42.4-28.8c-5.8-2.1-9.3-8-8.2-14.1c1.1-6.1,6.3-10.5,12.5-10.5h57.3h2.9H2145L2145,49.3L2145,49.3 M2145,19.8
				L2145,19.8h-308.1h-2.9h-57.3c-20.6,0-38.1,14.7-41.6,35.1c-3.5,20.3,8.1,40,27.5,46.9c9.3,3.3,15.9,6.6,20.3,9.3L1760,220.1
				c-4.3,1.5-12,3.5-24.8,5c-10.3,1.2-19.7,6.1-26.7,13.7c-6.9,7.6-10.9,17.5-11.1,27.9c-0.2,10.4,3.3,20.5,9.9,28.4
				c6.6,7.9,15.8,13.2,26,14.9c0,0,0.1,0,0.1,0c0,0,0.1,0,0.2,0c2.6,0.4,5,0.8,7.2,1.2l-23,109.6c-5.6,3-17.7,6.9-25.4,9.4
				c-5.8,1.9-11.9,3.8-18.1,6c-19.3,6.9-30.8,26.6-27.3,46.9c3.5,20.3,21,35.1,41.6,35.1h57.3h34.4h104.1H2025h63.4h1.4h7.9
				c14,0,26-9.8,28.9-23.5l1.6-7.8l28.2-134.1l0-0.1c0-0.1,0.1-0.3,0.1-0.4l0-0.1c2.5-12.8-0.8-25.9-9-35.9
				c-8.3-10.1-20.6-15.9-33.7-15.9c-15,0-28.8,7.6-36.7,20.5c-1.9,3-3.9,6.2-6.1,9.6l26.6-126.7c0.2,2.1,0.5,4.3,0.7,6.5
				c2.1,22.8,21,40,43.9,40c10,0,19.8-3.4,27.6-9.7c7.8-6.2,13.3-15.1,15.4-24.9c0,0,0-0.1,0-0.1l0-0.1c0-0.1,0-0.1,0-0.2l0-0.1
				l31.1-148.1l2.5-11.8c1.8-8.7-0.4-17.7-6-24.6c-5.6-6.9-14-10.9-22.9-11l-12,0L2145,19.8C2145.1,19.8,2145,19.8,2145,19.8
				L2145,19.8z M1998.7,125.7h65.3c5.1,0,11,0,18.2,13.9c0.7,1.3,1.4,2.8,2,4.2c-7-4.9-15.4-7.6-24.2-7.6
				c-12.6,0-24.5,5.6-32.5,15.4l-0.1,0.1c-0.1,0.2-0.3,0.3-0.4,0.5l-0.1,0.1c0,0-0.1,0.1-0.1,0.1c-5,6.5-18.5,23.2-34.7,37.5
				c-3,2.7-5.8,5-8.5,7.1L1998.7,125.7L1998.7,125.7z M1938.6,412.4l18.7-89.1c1.9,2,4.2,4.7,6.7,8.3c10,13.9,17.2,31.3,19.9,38.3
				c5.4,13.9,17.4,23.7,31.7,26.2c-17.5,14.5-28.1,16.3-32.4,16.3H1938.6L1938.6,412.4z"/>
		</g>
		<g>
			<path class="st0" d="M2366.6,521.1c-31.7,0-61.3-6.1-88.2-18c-24.1-10.7-45.8-26.2-64.5-45.8c-46.9-49.4-65.5-116.5-63.2-161.1
				c2.3-43.4,15.2-84,38.5-120.9c21-33.3,49.8-62.7,85.6-87.5c33-22.7,70.4-40.5,111.2-52.9c38.9-11.8,79.9-18,118.5-18c0,0,0,0,0,0
				c5.7,0,11.5,0.1,17,0.4l6,0.3c5.5,0.3,10.4,3.6,12.7,8.6l53.6,117.2c3.3,7.3,0.2,15.9-7,19.4l-77.5,37.8c-2.1,1-4.3,1.5-6.5,1.5
				c-4.4,0-8.8-2-11.7-5.7l-63.7-81.9c-20.3,6.1-46.5,17.2-69.9,37.3c-27,23.1-44.3,53.1-51.5,89.1c-4.2,21,3.4,46.5,19.9,66.6
				c18.7,22.9,46,35.5,76.7,35.5c17.8,0,36.8-4.1,56.5-12.3c22.7-9.4,46.3-24.2,70.1-44c5.9-4.9,12.7-7.5,19.8-7.5
				c9.7,0,18.4,4.9,23.2,13.1c4.9,8.3,4.9,18.8,0,27.9l-89.8,173.3c-1.7,3.4-4.7,5.9-8.3,7.2l-3.7,1.3
				C2434.2,514.6,2399.2,521.1,2366.6,521.1z"/>
			<path class="st0" d="M2504.7,31.6c5.5,0,11,0.1,16.3,0.4l6,0.3l2.5,5.4l47.1,103l4,8.7l-8.6,4.2l-61.8,30.2l-7.1,3.5l-4.9-6.3
				l-64.9-83.5c-24,6.1-56.4,18.3-85.1,43c-29.5,25.3-48.5,58.1-56.4,97.4c-5.1,25.3,3.7,55.5,22.9,78.9
				c21.6,26.4,52.9,40.9,88.1,40.9c19.8,0,40.7-4.5,62.2-13.4c24.1-10,48.9-25.5,73.9-46.2c3.2-2.7,6.8-4.1,10.4-4.1
				c4.4,0,8.3,2.2,10.5,5.8c2.3,3.9,2.2,8.9-0.3,13.5l-88,169.9l-1.8,3.5l-3.7,1.3c-35,12.2-68.4,18.3-99.3,18.3
				c-29.6,0-57.2-5.6-82.1-16.7c-22.3-9.9-42.4-24.3-59.8-42.5c-43.9-46.2-61.3-108.7-59.2-150.2c2.2-40.8,14.3-79.1,36.2-113.8
				c19.9-31.6,47.3-59.6,81.5-83.2C2315,78,2351,60.9,2390.4,49C2427.9,37.6,2467.5,31.6,2504.7,31.6
				C2504.7,31.6,2504.7,31.6,2504.7,31.6 M2504.7,2C2504.7,2,2504.7,2,2504.7,2L2504.7,2c-40.1,0-82.5,6.4-122.8,18.6
				c-42.3,12.8-81.1,31.3-115.3,54.9c-37.5,25.9-67.7,56.7-89.7,91.8c-24.6,39-38.3,82.1-40.7,128c-1.3,25.9,3.6,56,14,84.9
				c11.8,32.8,30.2,63,53.2,87.2c20,21.1,43.3,37.6,69.2,49.1c28.7,12.8,60.4,19.3,94.2,19.3c34.2,0,70.9-6.7,109-20l3.7-1.3
				c7.1-2.5,13.1-7.6,16.5-14.3l1.8-3.5l87.9-169.8c7.3-13.7,7.2-29.5-0.4-42.3c-7.5-12.7-20.9-20.3-35.9-20.3
				c-10.6,0-20.7,3.8-29.3,10.9c-22.7,18.8-45,32.8-66.3,41.7c-17.9,7.4-35,11.2-50.8,11.2c-13.2,0-25.6-2.6-36.8-7.8
				c-11-5.1-20.6-12.6-28.5-22.2c-13.5-16.5-20.1-37.8-16.8-54.4c6.6-32.7,22.3-59.9,46.7-80.8c18-15.4,37.9-25.2,55-31.2l52.4,67.5
				l4.9,6.3c5.7,7.4,14.4,11.4,23.3,11.4c4.4,0,8.8-1,12.9-3l7.1-3.5l61.8-30.2l8.6-4.2c14.4-7,20.6-24.3,13.9-38.8l-4-8.7
				l-47.1-103l-2.5-5.4c-4.6-10.1-14.4-16.7-25.5-17.2l-6-0.3C2516.6,2.2,2510.6,2,2504.7,2L2504.7,2z"/>
		</g>
	</g>
	<g>
		<g>
			<g>
				<rect x="1225.4" y="1060.7" width="288.8" height="167.4"/>
				<path class="st0" d="M1509.3,1065.6v157.6h-279v-157.6H1509.3 M1519.1,1055.8h-9.8h-279h-9.8v9.8v157.6v9.8h9.8h279h9.8v-9.8
					v-157.6V1055.8L1519.1,1055.8z"/>
			</g>
			<g>
				<path d="M1696.7,1609.9l147.8-331.2c-78.3-4-151.3-36.9-206.3-93.3c-56.8-58.2-88.1-135.1-88.1-216.5
					c0-82.9,32.3-160.8,90.9-219.4c58.6-58.6,136.5-90.9,219.4-90.9c82.9,0,160.8,32.3,219.4,90.9c58.6,58.6,90.9,136.6,90.9,219.5
					c0,42.6-8.5,83.9-25.4,122.8l-231.2,518.1H1696.7z M1860.4,857.3c-61.6,0-111.7,50.1-111.7,111.7s50.1,111.7,111.7,111.7
					s111.7-50.1,111.7-111.7S1922,857.3,1860.4,857.3z"/>
				<path class="st0" d="M1860.4,663.5c168.7,0,305.4,136.6,305.4,305.5c0,42.9-8.9,83.7-25,120.9L1911,1605h-206.8l147.7-330.9
					c-164.8-4.5-296.9-139.4-296.9-305.2C1555,800.3,1691.8,663.5,1860.4,663.5 M1860.4,1085.5c64.4,0,116.6-52.2,116.6-116.6
					c0-64.4-52.2-116.6-116.6-116.6c-64.4,0-116.6,52.2-116.6,116.6C1743.9,1033.3,1796.1,1085.5,1860.4,1085.5 M1860.4,653.8
					c-42.5,0-83.8,8.3-122.7,24.8c-37.5,15.9-71.2,38.6-100.2,67.5s-51.7,62.7-67.5,100.2c-16.4,38.9-24.8,80.1-24.8,122.7
					c0,41.8,8.1,82.5,24,120.8c15.4,37,37.4,70.4,65.5,99.2c28,28.8,60.8,51.6,97.4,67.9c33.4,14.9,68.7,23.7,105.1,26.4
					l-141.9,317.8l-6.2,13.8h15.1H1911h6.4l2.6-5.8l229.9-515.1l0-0.1l0-0.1c17.1-39.5,25.8-81.5,25.8-124.8
					c0-42.6-8.3-83.9-24.8-122.8c-15.9-37.6-38.6-71.3-67.5-100.2c-28.9-28.9-62.7-51.7-100.2-67.5
					C1944.3,662.1,1903,653.8,1860.4,653.8L1860.4,653.8z M1860.4,1075.7c-58.9,0-106.8-47.9-106.8-106.8
					c0-58.9,47.9-106.8,106.8-106.8s106.8,47.9,106.8,106.8C1967.2,1027.8,1919.3,1075.7,1860.4,1075.7L1860.4,1075.7z"/>
			</g>
			<g>
				<path d="M2506,1625.4c-81.7,0-158.6-30.8-216.4-86.8c-57.9-56-89.7-130.5-89.7-209.7c0-75.3,29.2-146.9,82.4-202.1
					c-43.8-50.9-67.9-114.9-67.9-180.9c0-75.5,30.4-146.4,85.5-199.8c55.1-53.3,128.3-82.7,206.2-82.7c77.9,0,151.1,29.4,206.2,82.7
					c55.1,53.4,85.5,124.3,85.5,199.8c0,66.1-24.1,130.2-68.1,180.9c53.1,55.2,82.4,126.7,82.4,202.1c0,79.2-31.9,153.7-89.7,209.7
					C2664.6,1594.6,2587.8,1625.4,2506,1625.4z M2506.1,1215c-57.7,0-104.6,46.9-104.6,104.6c0,57.7,46.9,104.6,104.6,104.6
					c57.7,0,104.6-46.9,104.6-104.6C2610.7,1261.9,2563.8,1215,2506.1,1215z M2506.1,856.3c-49.4,0-89.6,40.2-89.6,89.6
					c0,49.4,40.2,89.6,89.6,89.6c49.4,0,89.6-40.2,89.6-89.6C2595.8,896.5,2555.5,856.3,2506.1,856.3z"/>
				<path class="st0" d="M2506.1,668.3c158.4,0,286.8,124.3,286.8,277.6c0,69.3-26.3,132.4-69.8,181.1
					c52,52.4,84.1,123.4,84.1,201.9c0,161-134.8,291.6-301.2,291.6c-166.3,0-301.2-130.6-301.2-291.6c0-78.5,32.1-149.5,84.1-201.9
					c-43.3-48.7-69.6-111.9-69.6-181.1C2219.3,792.6,2347.7,668.3,2506.1,668.3 M2506.1,1040.5c52.2,0,94.5-42.3,94.5-94.5
					c0-52.2-42.3-94.5-94.5-94.5s-94.5,42.3-94.5,94.5C2411.6,998.1,2453.9,1040.5,2506.1,1040.5 M2506.1,1429.1
					c60.4,0,109.5-49,109.5-109.5c0-60.5-49.1-109.5-109.5-109.5c-60.5,0-109.5,49-109.5,109.5
					C2396.6,1380.2,2445.7,1429.1,2506.1,1429.1 M2506.1,658.5c-40,0-78.8,7.6-115.3,22.5c-35.3,14.5-67,35.2-94.3,61.5
					c-27.3,26.4-48.7,57.1-63.6,91.4c-15.5,35.5-23.4,73.1-23.4,112c0,35.1,6.5,69.3,19.3,101.9c11.2,28.5,27,55,46.9,78.9
					c-52.1,55.6-80.7,127.1-80.7,202.2c0,40.7,8.2,80.2,24.5,117.4c15.7,35.9,38.1,68.1,66.7,95.8c28.6,27.7,61.8,49.4,98.8,64.5
					c38.3,15.7,79,23.6,120.9,23.6c42,0,82.7-8,121-23.6c37-15.2,70.3-36.9,98.8-64.5c28.6-27.7,51-59.9,66.7-95.8
					c16.2-37.2,24.5-76.7,24.5-117.4c0-75.1-28.6-146.6-80.7-202.2c20-23.8,35.8-50.3,47.1-78.9c12.8-32.5,19.3-66.8,19.3-101.9
					c0-38.8-7.9-76.5-23.4-112c-15-34.2-36.4-65-63.6-91.4c-27.2-26.4-59-47.1-94.3-61.5C2584.9,666.1,2546.1,658.5,2506.1,658.5
					L2506.1,658.5z M2506.1,1030.7c-46.7,0-84.7-38-84.7-84.7c0-46.7,38-84.7,84.7-84.7c46.7,0,84.7,38,84.7,84.7
					C2590.9,992.7,2552.8,1030.7,2506.1,1030.7L2506.1,1030.7z M2506.1,1419.3c-26.6,0-51.7-10.4-70.5-29.2
					c-18.8-18.8-29.2-43.9-29.2-70.5c0-26.7,10.4-51.7,29.2-70.5c18.8-18.8,43.9-29.2,70.5-29.2c26.6,0,51.7,10.4,70.5,29.2
					c18.8,18.8,29.2,43.9,29.2,70.5c0,26.6-10.4,51.7-29.2,70.5C2557.8,1409,2532.8,1419.3,2506.1,1419.3L2506.1,1419.3z"/>
			</g>
			<g>
				<path d="M3180.2,1609.9c-106.6,0-189.6-38.5-246.8-114.4c-59.4-78.9-89.6-197.1-89.6-351.2s30.1-272.3,89.6-351.2
					c57.2-75.9,140.2-114.4,246.8-114.4c106.6,0,189.6,38.5,246.8,114.4c59.4,78.9,89.6,197.1,89.6,351.2s-30.1,272.3-89.6,351.2
					C3369.8,1571.5,3286.8,1609.9,3180.2,1609.9z M3180.2,862.9c-43.7,0-75.1,21.6-96,66c-21.7,46.1-32.3,116.5-32.4,215v1
					c0,98.5,10.6,168.9,32.4,215c20.9,44.4,52.3,66,96,66c43.7,0,75.1-21.6,96-66c21.7-46.1,32.3-116.5,32.4-215v-1
					c0-98.5-10.6-168.9-32.4-215C3255.3,884.5,3223.9,862.9,3180.2,862.9z"/>
				<path class="st0" d="M3180.2,683.7c205.7,0,331.5,146.2,331.5,460.7S3385.9,1605,3180.2,1605s-331.5-146.2-331.5-460.7
					S2974.5,683.7,3180.2,683.7 M3180.2,1430.8c90.2,0,133.1-88.2,133.3-285.9c0-0.2,0-0.3,0-0.5c0-0.1,0-0.3,0-0.5
					c-0.1-197.8-43.1-285.9-133.3-285.9c-90.2,0-133.1,88.2-133.3,285.9c0,0.1,0,0.3,0,0.5c0,0.1,0,0.3,0,0.5
					C3047,1342.6,3090,1430.8,3180.2,1430.8 M3180.2,673.9c-53.1,0-101.1,9.6-142.6,28.7c-42.5,19.4-78.9,48.9-108,87.7
					c-60.1,79.8-90.6,198.9-90.6,354.1s30.5,274.4,90.6,354.1c29.2,38.7,65.5,68.2,108,87.7c41.6,19,89.6,28.7,142.6,28.7
					c53.1,0,101.1-9.6,142.6-28.7c42.5-19.4,78.9-48.9,108-87.7c60.1-79.8,90.6-198.9,90.6-354.1S3491,870,3430.9,790.3
					c-29.2-38.7-65.5-68.2-108-87.7C3281.3,683.6,3233.3,673.9,3180.2,673.9L3180.2,673.9z M3180.2,1421c-20.9,0-38.3-5-53.4-15.2
					c-15.2-10.3-28.1-26.5-38.2-48c-21.4-45.5-31.9-115.1-31.9-212.9v-0.5v-0.5c0.1-97.8,10.6-167.5,32-212.9
					c10.1-21.5,23-37.7,38.2-48c15-10.2,32.5-15.2,53.4-15.2c20.9,0,38.3,5,53.4,15.2c15.2,10.3,28.1,26.5,38.2,48
					c21.4,45.5,31.9,115.1,31.9,212.9v0.5v0.5c-0.1,97.8-10.6,167.5-32,212.9c-10.1,21.5-23,37.7-38.2,48
					C3218.6,1416,3201.1,1421,3180.2,1421L3180.2,1421z"/>
			</g>
			<g>
				<path d="M1123.9,1629c-225,0-467.9-185.3-467.9-484.7c0-299.4,242.9-484.7,467.9-484.7c44.2,0,79.7,2.5,111.7,7.9l4.1,0.7v224.1
					l-6-1.3c-3-0.7-5.8-1.4-8.8-2.1c-18.2-4.5-38.8-9.5-94.1-9.5c-24.9,0-52,5.7-78.3,16.5c-28.1,11.5-54.9,28.6-77.4,49.6
					c-37.6,35-82.5,98-82.5,198.9c0,100.9,44.9,163.9,82.5,198.9c22.5,21,49.3,38.1,77.4,49.6c26.4,10.8,53.5,16.5,78.3,16.5
					c55.8,0,76.4-5.1,94.6-9.6c2.8-0.7,5.5-1.4,8.3-2l6-1.4v224.1l-4.1,0.7C1203.6,1626.5,1168.1,1629,1123.9,1629z"/>
				<path class="st0" d="M1123.9,664.6c50.2,0,84.1,3.3,110.9,7.8v213.8c-20.9-4.7-39-11.8-104-11.8c-100,0-243.1,89.7-243.1,269.9
					s143.1,269.9,243.1,269.9c65,0,83.2-7,104-11.8v213.8c-26.7,4.5-60.6,7.8-110.9,7.8c-222.6,0-463-183.5-463-479.8
					S901.3,664.6,1123.9,664.6 M1123.9,654.8c-227.4,0-472.8,187.2-472.8,489.6c0,302.4,245.4,489.6,472.8,489.6
					c44.5,0,80.2-2.5,112.5-8l8.2-1.4v-8.3v-213.8v-12.3l-12,2.8c-2.8,0.7-5.5,1.3-8.4,2c-17.9,4.4-38.2,9.5-93.4,9.5
					c-24.2,0-50.7-5.6-76.5-16.1c-27.6-11.3-53.8-28.1-75.9-48.6c-24.7-23-44.2-50.3-57.9-81.1c-15.3-34.5-23.1-72.9-23.1-114.2
					c0-41.3,7.8-79.7,23.1-114.2c13.7-30.8,33.2-58.1,57.9-81.1c22.1-20.6,48.3-37.4,75.9-48.6c25.8-10.5,52.2-16.1,76.5-16.1
					c54.7,0,75,5,92.9,9.4c3,0.7,5.9,1.5,8.9,2.1l11.9,2.7v-12.2V672.5v-8.3l-8.2-1.4C1204.2,657.4,1168.4,654.8,1123.9,654.8
					L1123.9,654.8z"/>
			</g>
			<g>
				<rect x="3590.9" y="678.8" width="213.6" height="931.1"/>
				<path class="st0" d="M3799.7,683.7V1605h-203.8V683.7H3799.7 M3809.5,673.9h-9.8h-203.8h-9.8v9.8V1605v9.8h9.8h203.8h9.8v-9.8
					V683.7V673.9L3809.5,673.9z"/>
			</g>
			<g>
				<path d="M34.4,1609.9V678.8h317.5c40.4,0,80,7.9,117.6,23.5c36.5,15.1,69.4,36.6,97.9,64c28.6,27.6,51.2,59.5,67,95
					c16.5,37,24.8,76.2,24.8,116.4c0,40.2-8.4,79.4-24.8,116.4c-15.8,35.5-38.3,67.4-67,95c-28.5,27.4-61.4,48.9-97.9,64
					c-37.7,15.6-77.2,23.5-117.6,23.5h-61.5v-203h45.4c52.3,0,94.9-42.6,94.9-94.9s-42.6-94.9-94.9-94.9h-87.7v726.1H34.4z"/>
				<path class="st0" d="M351.9,683.7c162.4,0,302.4,131.7,302.4,294c0,162.3-140,294-302.4,294h-56.6v-193.2h40.5
					c55.1,0,99.8-44.7,99.8-99.8c0-55.1-44.7-99.8-99.8-99.8h-92.6V1605H39.3V683.7h203.8H351.9 M351.9,673.9H243.2H39.3h-9.8v9.8
					V1605v9.8h9.8h203.8h9.8v-9.8V888.7h82.8c24.1,0,46.7,9.4,63.7,26.4c17,17,26.4,39.6,26.4,63.7c0,24.1-9.4,46.7-26.4,63.7
					c-17,17-39.6,26.4-63.7,26.4h-40.5h-9.8v9.8v193.2v9.8h9.8h56.6c41,0,81.3-8,119.5-23.8c37-15.3,70.5-37.2,99.4-65
					c29.1-28,52-60.5,68-96.5c16.8-37.6,25.3-77.5,25.3-118.4s-8.5-80.8-25.3-118.4c-16.1-36.1-38.9-68.5-68-96.5
					c-28.9-27.8-62.3-49.7-99.4-65C433.1,682,392.9,673.9,351.9,673.9L351.9,673.9z"/>
			</g>
		</g>
		<g>
			<g>
				<polygon class="st1" points="1333.8,197.2 1314,175 1274,171.2 1389.2,41.1 1611.3,289.1 1664.1,37.2 1780.3,105.5 
					1690.5,156.4 1615.9,512.1 1375.5,243.7 1342.6,400.4 1404.2,456.8 1264.4,527.5 				"/>
				<path class="st0" d="M1667.5,44.9l103,60.5l-84.3,47.8l-73.1,348.4l-240.4-268.4l-35.5,168.9l58.4,53.5l-124.4,62.9l67.9-322.7
					l-22.8-25.5l-32.2-3l105.1-118.7l224.9,251L1667.5,44.9 M1660.7,29.5l-2.8,13.3l-49.4,235.7L1396.5,42l-7.3-8.2l-7.3,8.2
					l-105.1,118.7l-12.8,14.4l19.2,1.8l28.4,2.7l17,18.9l-66.9,317.9l-4.2,20l18.2-9.2l124.4-62.9l12.6-6.4l-10.4-9.6l-54.3-49.7
					l30.3-144.5l227.5,254l12.9,14.4l4-18.9l72.2-344.1l80.5-45.6l14.8-8.4l-14.6-8.6l-103-60.5L1660.7,29.5L1660.7,29.5z"/>
			</g>
			<g>
				<path class="st1" d="M1688.6,483.8c-3.9,0-7-2.7-7.7-6.5c-0.7-3.8,1.4-7.3,5.1-8.6c5.6-2,11.3-3.8,16.9-5.6
					c22.8-7.3,44.3-14.1,47.7-30.3l30.2-144.2c-2.4-2-11.4-7.8-41.8-12.6c-4.3-0.7-7.3-4.3-7.2-8.6c0.1-4.2,3.2-7.7,7.5-8.2
					c31.5-3.8,50.1-11.7,52.4-22.5l27.9-133.1c1.8-8.4-13.3-23-45.5-34.4c-3.6-1.3-5.7-4.8-5-8.6c0.7-3.8,3.8-6.5,7.7-6.5H2145
					l38.8,0.1l-32.3,154c-1,4.6-4.8,7.6-9.5,7.6c0,0,0,0,0,0c-5.1,0-9.2-3.7-9.6-8.8c-7.7-80.2-28.8-115.9-68.4-115.9h-93.3
					L1938.3,246h16.1c40.4,0,86.6-55.5,99.8-72.4l0.1-0.1c1.5-1.8,3.6-2.8,5.8-2.8c2.3,0,4.5,1,5.9,2.8c1.4,1.7,1.9,4,1.5,6.3
					l-37,176.7c-0.7,3.5-3.7,5.9-7.3,5.9c-3.1,0-5.9-1.9-7-4.8c-6.8-17.5-31.7-74.6-65.7-74.6h-19.7l-34.4,164h87
					c21.3,0,45.2-13.3,70.9-39.6c22-22.4,40.5-49.4,52.2-68.1c1.6-2.6,4.4-4.2,7.5-4.2c2.7,0,5.4,1.2,7.1,3.3
					c1.7,2.1,2.4,4.7,1.8,7.5l-29,138.1H1688.6z"/>
				<path class="st0" d="M2145,59.1l32.8,0.1l-31.1,148.1c-0.6,2.5-2.6,3.8-4.7,3.8c-2.2,0-4.5-1.5-4.7-4.3
					c-6.4-66.5-22.9-120.4-73.3-120.4h-97.3l-34.6,164.6h22.1c41.5,0,86.7-52.5,103.6-74.3c0.6-0.7,1.3-1,2.1-1
					c1.5,0,2.9,1.3,2.5,3.2l-37,176.7c-0.3,1.3-1.4,2-2.5,2c-1,0-2-0.5-2.4-1.6c-8.4-21.6-33.9-77.8-70.3-77.8h-0.2h-23.5
					l-36.4,173.8h93.1c52,0,104-72.8,127.2-110c0.8-1.3,2.1-1.9,3.3-1.9c2.3,0,4.7,2,4.1,5l-28.2,134.1h-1.4H2025h-140.6h-104.1
					h-34.4h-57.3c-3.2,0-4-4.5-1-5.6c29.2-10.5,62.8-16.2,67.7-39.5l30.7-146.3c-1.7-4.2-13.5-11.1-46.2-16.3
					c-4.1-0.7-4-6.6,0.1-7.1c25.5-3,53.2-10,56.6-26.3l27.9-133.1c2.9-13.9-19.5-29.7-48.7-40.1c-3-1.1-2.3-5.6,1-5.6h57.3h2.9H2145
					 M2145,49.3L2145,49.3L2145,49.3h-308.1h-2.9h-57.3c-6.2,0-11.4,4.4-12.5,10.5c-1,6.1,2.4,12,8.2,14.1
					c31.5,11.2,43.3,24.5,42.4,28.8l-27.9,133.1c-1.3,6.4-14.7,14.6-48.2,18.6c-6.7,0.8-11.6,6.2-11.8,12.9
					c-0.2,6.7,4.6,12.4,11.2,13.5l0,0l0,0c23,3.7,33.1,7.8,37.1,9.9l-29.5,141c-2.8,13.3-23,19.8-44.4,26.6
					c-5.6,1.8-11.4,3.6-17.1,5.7c-5.8,2.1-9.3,8-8.2,14.1c1.1,6.1,6.3,10.5,12.5,10.5h57.3h34.4h104.1H2025h63.4h1.4h7.9l1.6-7.8
					l28.2-134.1l0-0.1l0-0.1c0.8-4.1-0.2-8.3-2.9-11.5c-2.6-3.2-6.7-5.1-10.9-5.1c-4.8,0-9.1,2.4-11.7,6.5
					c-11.5,18.5-29.8,45.2-51.5,67.3c-24.8,25.3-47.5,38.1-67.4,38.1h-81l32.3-154.2h15.6h0.2c12.4,0,25,9,37.7,26.7
					c11.5,16.1,19.6,35,23.5,44.8c1.8,4.8,6.3,7.9,11.5,7.9c6,0,10.9-4,12.1-9.8l37-176.7c0.8-3.7-0.1-7.5-2.5-10.4
					c-2.4-2.9-5.9-4.6-9.7-4.6c-3.7,0-7.2,1.7-9.6,4.6l-0.1,0.1l-0.1,0.1c-12.8,16.6-57.7,70.6-95.9,70.6h-10.1l30.5-145h89.3
					c19.8,0,33.9,9.5,44.4,29.9c9.3,18.1,15.6,44.8,19.1,81.5c0.7,7.5,6.9,13.2,14.5,13.2c6.9,0,12.7-4.7,14.2-11.4l0-0.1l0-0.1
					l31.1-148.1l2.5-11.8l-12,0L2145,49.3L2145,49.3z"/>
			</g>
			<g>
				<path class="st1" d="M2366.6,501.4c-54.7,0-102.5-20-138.4-57.7c-42.9-45.2-59.9-106.1-57.8-146.5c2.1-40,14.1-77.5,35.5-111.5
					c19.5-31,46.5-58.5,80.2-81.8c31.3-21.6,66.9-38.5,105.7-50.3c37.1-11.2,76.1-17.2,112.9-17.2c5.4,0,10.8,0.1,16.1,0.4l3,0.1
					l50.3,110.1l-69.7,34L2435.1,92c-24.8,5.9-59.5,18.4-90.2,44.8c-30.4,26.1-49.9,59.8-58,100.2c-5.3,26.7,3.9,58.5,24,83
					c22.6,27.5,55.2,42.7,91.9,42.7c0,0,0,0,0,0c43.6,0,90.5-20.5,139.2-60.8c2.3-1.9,4.9-3,7.3-3c2.7,0,5,1.3,6.3,3.4
					c0.8,1.4,1.9,4.5-0.4,8.7l-88.9,171.7l-1.8,0.6C2429.9,495.3,2397,501.4,2366.6,501.4C2366.7,501.4,2366.7,501.4,2366.6,501.4z"
					/>
				<path class="st0" d="M2504.7,41.4c5.3,0,10.6,0.1,15.9,0.4l47.1,103l-61.8,30.2l-68.8-88.4c-65.7,14.8-136.8,59.5-155,149.5
					c-11.1,55.7,36.7,131.5,120.7,131.5c40,0,88.3-17.2,142.3-62c1.5-1.3,3-1.8,4.2-1.8c2.1,0,3.2,1.9,1.5,5l-88.1,170
					c-35.7,12.4-67.6,17.8-96.1,17.8c-139.1,0-195-128.8-191.3-199.1C2184,133.6,2359.6,41.4,2504.7,41.4 M2504.7,31.6
					c-37.2,0-76.7,6-114.3,17.4c-39.3,11.9-75.4,29-107.1,50.9c-34.2,23.6-61.6,51.6-81.5,83.2c-21.9,34.7-34,73-36.2,113.8
					c-2.2,41.5,15.3,104,59.2,150.2c17.3,18.3,37.4,32.6,59.8,42.5c24.9,11.1,52.6,16.7,82.1,16.7c30.9,0,64.3-6.2,99.3-18.3
					l3.7-1.3l1.8-3.5l88-169.9c2.5-4.7,2.6-9.6,0.3-13.5c-2.2-3.6-6.1-5.8-10.5-5.8c-3.6,0-7.2,1.4-10.4,4.1
					c-25,20.7-49.8,36.3-73.9,46.2c-21.5,8.9-42.4,13.4-62.2,13.4c-35.2,0-66.5-14.5-88.1-40.9c-19.2-23.4-28-53.7-22.9-78.9
					c7.9-39.3,26.9-72.1,56.4-97.4c28.7-24.6,61.1-36.9,85.1-43l64.9,83.5l4.9,6.3l7.1-3.5l61.8-30.2l8.6-4.2l-4-8.7l-47.1-103
					l-2.5-5.4l-6-0.3C2515.6,31.7,2510.1,31.6,2504.7,31.6L2504.7,31.6C2504.7,31.6,2504.7,31.6,2504.7,31.6L2504.7,31.6z"/>
			</g>
		</g>
	</g>
</g>
</svg>
