<?xml version="1.0" encoding="utf-8"?>
<!-- Generator: Adobe Illustrator 27.0.0, SVG Export Plug-In . SVG Version: 6.00 Build 0)  -->
<svg version="1.1" id="Layer_1" xmlns="http://www.w3.org/2000/svg" xmlns:xlink="http://www.w3.org/1999/xlink" x="0px" y="0px"
	 viewBox="0 0 3839 1266.44" style="enable-background:new 0 0 3839 1266.44;" xml:space="preserve">
<style type="text/css">
	.st0{fill:#FFFFFF;}
	.st1{display:none;fill:#FFFFFF;}
	.st2{fill:url(#SVGID_1_);}
</style>
<g>
	<g>
		<g>
			<path class="st0" d="M633.12,1251.67c-69.12,0-137.09-11.37-202.04-33.79c-62.57-21.66-121.11-53.22-174.02-93.81
				c-52.14-40.06-97.44-88.01-134.66-142.52c-37.44-54.81-65.64-114.91-83.82-178.62c-0.13-0.35-0.23-0.65-0.31-0.89l-0.1-0.3
				c-0.21-0.6-0.52-1.49-0.84-2.65c-0.66-2.13-1.55-5.29-2.72-9.47c-0.01-0.04-0.02-0.08-0.03-0.12
				c-2.99-11.08-5.72-22.92-8.12-35.2c-5.33-27.06-11.69-70.08-11.69-121.18c0-8.77,0.37-19.74,1.1-32.62
				c0.19-4.76,0.47-8.75,0.71-12.03c0.03-0.48,0.05-0.92,0.06-1.32c0.03-0.61,0.05-1.24,0.11-1.9c0.02-0.58,0.06-1.35,0.18-2.23
				c12.44-154.4,81.94-297.57,195.75-403.22C327.37,73.38,476.69,14.77,633.12,14.77c83.55,0,164.56,16.36,240.79,48.63
				c36.28,15.29,71.59,34.47,104.92,57c32.96,22.38,63.72,47.79,91.48,75.54c28.06,27.96,53.49,58.75,75.55,91.5
				c22.21,32.97,41.39,68.33,56.98,105.08c32.27,76.24,48.63,157.26,48.63,240.8c0,83.48-16.36,164.46-48.63,240.69
				c-15.25,36.18-34.43,71.52-56.98,105c-22.39,32.97-47.8,63.74-75.55,91.5c-27.96,28.06-58.75,53.49-91.5,75.55
				c-32.81,22.17-68.13,41.35-104.99,56.98C797.58,1235.31,716.6,1251.67,633.12,1251.67z"/>
			<path class="st0" d="M633.12,29.54c81.53,0,160.59,15.95,235.03,47.46c35.74,15.07,70.2,33.87,102.4,55.63
				c31.9,21.66,62.03,46.48,89.31,73.75c27.37,27.27,52.19,57.31,73.75,89.31c21.76,32.3,40.47,66.86,55.63,102.6
				c31.51,74.44,47.46,153.5,47.46,235.03c0,81.43-15.95,160.5-47.46,234.93c-15.07,35.74-33.87,70.2-55.63,102.5
				c-21.66,31.9-46.48,62.03-73.75,89.31c-27.27,27.37-57.31,52.19-89.31,73.75c-32.2,21.76-66.76,40.47-102.5,55.63
				c-74.44,31.51-153.41,47.46-234.93,47.46c-67.55,0-133.91-11.13-197.22-32.99c-61.15-21.17-118.25-51.99-169.85-91.57
				c-51-39.19-95.21-86.06-131.45-139.13c-36.73-53.76-64.3-112.64-82.02-175.07c-0.1-0.2-0.2-0.49-0.3-0.79
				c-0.2-0.59-0.49-1.38-0.79-2.46c-0.59-1.87-1.48-5.02-2.66-9.26c-1.97-7.29-4.92-19-7.88-34.17
				c-5.22-26.49-11.42-68.53-11.42-118.35c0-10.73,0.59-23.24,1.08-31.9c0.2-4.92,0.49-9.06,0.69-11.72c0.1-1.48,0.1-2.66,0.2-3.45
				c0-0.39,0-0.79,0.1-1.28c12.01-150.85,79.85-290.86,191.12-394.15C334.68,86.75,480.4,29.54,633.12,29.54 M633.12,0
				C472.95,0,320.07,60.01,202.63,168.97C86.19,277.07,15.05,423.53,2.24,581.49c-0.14,1.15-0.21,2.17-0.24,2.97
				c-0.06,0.79-0.09,1.5-0.11,2.08c-0.01,0.28-0.02,0.59-0.04,0.92c-0.25,3.37-0.53,7.45-0.73,12.33C0.38,612.89,0,624.1,0,633.12
				c0,52.29,6.51,96.33,11.98,124.06c2.46,12.6,5.26,24.77,8.34,36.16c0.02,0.08,0.04,0.16,0.06,0.23c1.17,4.18,2.07,7.39,2.78,9.71
				c0.42,1.48,0.82,2.62,1.04,3.27l0.06,0.18c0.08,0.22,0.15,0.46,0.24,0.7c18.62,65.07,47.45,126.45,85.7,182.44
				c38.1,55.8,84.47,104.88,137.84,145.89c54.18,41.57,114.13,73.88,178.18,96.06c66.53,22.97,136.12,34.61,206.89,34.61
				c85.47,0,168.39-16.75,246.45-49.8c37.75-16.01,73.92-35.65,107.53-58.36c33.5-22.58,65.04-48.62,93.69-77.37
				c28.4-28.4,54.39-59.88,77.26-93.56c0.02-0.03,0.04-0.06,0.06-0.09c23.09-34.27,42.72-70.45,58.35-107.53
				c33.02-78.02,49.78-160.94,49.78-246.41c0-85.54-16.75-168.49-49.8-246.55c-15.97-37.65-35.6-73.84-58.34-107.59
				c-22.6-33.54-48.64-65.07-77.4-93.73c-28.4-28.4-59.88-54.39-93.56-77.26c-0.02-0.01-0.04-0.02-0.05-0.04
				c-34.12-23.06-70.28-42.7-107.47-58.38C801.61,16.75,718.66,0,633.12,0L633.12,0z"/>
		</g>
		<g>
			<path class="st0" d="M1698.99,889.03c-60.56,0-124.17-16.79-170.17-44.9l-6.92-4.25c-6.03-3.7-8.59-11.17-6.09-17.79l2.86-7.58
				l28.93-77.55l3.96-10.49c1.5-3.97,4.63-7.1,8.6-8.6c1.69-0.64,3.46-0.95,5.22-0.95c2.39,0,4.76,0.58,6.92,1.72l9.85,5.22
				c34.9,18.43,75.74,29,112.03,29c20.92,0,37.6-3.43,46.97-9.65c6.24-4.1,8.76-8.6,8.76-15.56c0-3.42,0-7.3-11.68-14.13
				c-13.21-7.73-35.23-14.91-60.74-23.23l-4.41-1.43c-3.14-1.02-6.33-2.05-9.56-3.13c-45.45-15.18-75.53-31.11-97.56-51.65
				c-28.27-26.39-42.02-59.55-42.02-101.39c0-48.01,18.92-88.13,54.73-116.02c33.09-25.81,78.83-39.45,132.26-39.45
				c33.32,0,65.8,4.86,96.56,14.45c26.79,8.54,50.53,20.38,68.75,34.25l6.84,5.26c5.84,4.48,7.48,12.58,3.86,18.99l-4.23,7.48
				l-39.8,69.94l-5.31,9.35c-2.05,3.61-5.54,6.2-9.59,7.11c-1.07,0.24-2.16,0.36-3.25,0.36c-3,0-5.97-0.92-8.47-2.67l-8.86-6.2
				c-26.24-18.4-62.38-29.82-94.33-29.82c-15.23,0-27.64,2.82-34.93,7.95c-5.33,3.75-7.61,8.35-7.61,15.39
				c0,9.73,6.34,16.15,66.99,36.83l4.61,1.58c8.1,2.78,16.48,5.66,25.34,8.83c67.96,24.03,130.9,58.34,130.9,145.75
				c0,51.76-20.1,94.89-58.13,124.75C1805.07,874.42,1756.22,889.03,1698.99,889.03z"/>
			<path class="st0" d="M1710.9,391.98c32.2,0,63.12,4.73,92.16,13.78c25.01,7.98,47.26,19,64.2,31.9l6.79,5.22l-4.23,7.48
				l-39.78,69.91l-5.32,9.35l-8.86-6.2c-28.65-20.09-68.04-32.49-102.8-32.49c-18.51,0-33.48,3.64-43.42,10.63
				c-9.26,6.5-13.88,15.66-13.88,27.47c0,23.53,25.01,33.08,77,50.81c9.45,3.25,19.3,6.6,29.74,10.34
				c72.67,25.7,121.11,57.99,121.11,131.84c0,47.07-18.12,86.16-52.48,113.13c-32.59,25.6-78.28,39.09-132.14,39.09
				c-57.9,0-118.65-15.95-162.47-42.73l-6.89-4.23l2.86-7.58l28.95-77.59l3.94-10.44l9.85,5.22c36.92,19.5,80.25,30.72,118.94,30.72
				c24.03,0,43.13-4.14,55.14-12.11c10.34-6.79,15.36-15.95,15.36-27.86c0-11.23-5.51-19-19-26.88
				c-14.47-8.47-36.14-15.56-63.61-24.52c-4.53-1.48-9.16-2.95-13.88-4.53c-43.32-14.47-71.78-29.44-92.16-48.44
				c-25.11-23.43-37.32-53.07-37.32-90.59c0-43.23,16.94-79.36,49.03-104.37C1618.15,404.59,1660.79,391.98,1710.9,391.98
				 M1710.9,362.44c-56.75,0-105.63,14.72-141.34,42.58c-19.66,15.31-34.84,34.19-45.13,56.09c-10.14,21.6-15.28,45.68-15.28,71.57
				c0,22.55,3.86,43.35,11.47,61.82c7.76,18.84,19.61,35.78,35.23,50.36c23.67,22.06,55.42,38.98,102.96,54.87
				c3.34,1.11,6.58,2.16,9.71,3.18c1.47,0.47,2.92,0.95,4.37,1.42c24.69,8.05,46.02,15.01,57.85,21.93c2.1,1.22,3.44,2.17,4.27,2.82
				c-0.02,0.09-0.03,0.15-0.04,0.19c-0.1,0.14-0.58,0.7-1.89,1.56c-0.04,0.03-0.08,0.05-0.12,0.08c-2.54,1.68-12.83,7.18-38.8,7.18
				c-33.96,0-72.29-9.95-105.15-27.3l-9.81-5.2c-4.31-2.28-9.06-3.44-13.83-3.44c-3.53,0-7.07,0.63-10.44,1.91
				c-7.94,3-14.2,9.27-17.2,17.2l-3.94,10.44c-0.01,0.03-0.03,0.07-0.04,0.1l-28.93,77.54l-2.84,7.54
				c-4.99,13.25,0.12,28.17,12.18,35.58l6.89,4.23c0.02,0.01,0.04,0.02,0.06,0.03c23.91,14.61,52.9,26.64,83.85,34.77
				c30.59,8.04,63.11,12.29,94.02,12.29c60.57,0,112.57-15.7,150.38-45.4c20.79-16.32,36.83-36.46,47.68-59.84
				c10.68-23.03,16.1-48.78,16.1-76.53c0-21.76-3.67-41.73-10.92-59.37c-7-17.03-17.56-32.45-31.38-45.83
				c-22.11-21.41-52.47-38.21-98.43-54.46c-8.93-3.2-17.35-6.09-25.48-8.88l-4.57-1.57c-0.02-0.01-0.05-0.02-0.07-0.02
				c-17.42-5.94-32.73-11.26-43.66-16.2c-8.46-3.83-11.96-6.39-13.3-7.58c0.08-1.07,0.26-1.47,0.27-1.47c0,0,0.22-0.33,1.02-0.89
				c1.77-1.24,8.86-5.27,26.45-5.27c28.63,0,62.32,10.65,85.84,27.14l8.88,6.22c5.01,3.51,10.93,5.34,16.94,5.34
				c2.17,0,4.34-0.24,6.49-0.72c8.11-1.83,15.08-6.99,19.19-14.22l5.32-9.35l39.77-69.9c0.01-0.02,0.02-0.04,0.04-0.06l4.23-7.48
				c7.25-12.81,3.96-29-7.71-37.97l-6.79-5.22c-0.03-0.02-0.06-0.05-0.1-0.07c-19.55-14.89-44.83-27.52-73.12-36.55
				c-0.06-0.02-0.12-0.04-0.18-0.06C1779.68,367.53,1745.71,362.44,1710.9,362.44L1710.9,362.44z"/>
		</g>
		<g>
			<path class="st0" d="M2068.82,881.25c-8.16,0-14.77-6.61-14.77-14.77V514.37h-121.11c-8.16,0-14.77-6.61-14.77-14.77v-99.94
				c0-8.16,6.61-14.77,14.77-14.77h384.7c8.16,0,14.77,6.61,14.77,14.77V499.7c0,8.16-6.61,14.77-14.77,14.77h-120.82v352.01
				c0,8.16-6.61,14.77-14.77,14.77H2068.82z"/>
			<path class="st0" d="M2317.64,399.66v9.85v80.44v9.75h-9.75h-125.84v357.03v9.75h-9.75h-93.74h-9.75v-9.75V499.6h-126.13h-9.75
				v-9.75v-80.45v-9.75h9.75h365.3H2317.64 M2317.64,370.12h-9.65h-365.3h-9.75c-16.31,0-29.54,13.23-29.54,29.54v9.75v80.45v9.75
				c0,16.31,13.23,29.54,29.54,29.54h9.75h96.59v327.59v9.75c0,16.31,13.23,29.54,29.54,29.54h9.75h93.74h9.75
				c16.31,0,29.54-13.23,29.54-29.54v-9.75V529.24h96.3h9.75c16.31,0,29.54-13.23,29.54-29.54v-9.75v-80.44v-9.85
				C2347.18,383.35,2333.95,370.12,2317.64,370.12L2317.64,370.12z"/>
		</g>
		<g>
			<path class="st0" d="M2402.02,881.25c-8.16,0-14.77-6.61-14.77-14.77V399.66c0-8.16,6.61-14.77,14.77-14.77h321.19
				c8.16,0,14.77,6.61,14.77,14.77v99.84c0,8.16-6.61,14.77-14.77,14.77h-193.28v51.69h164.53c8.16,0,14.77,6.61,14.77,14.77v99.84
				c0,8.16-6.61,14.77-14.77,14.77h-164.53v55.83h193.28c8.16,0,14.77,6.61,14.77,14.77v100.53c0,8.16-6.61,14.77-14.77,14.77
				H2402.02z"/>
			<path class="st0" d="M2723.21,399.66v9.94v80.15v9.75h-9.75h-198.31v81.23h169.55h9.75v9.75v80.35v9.75h-9.75h-169.55v85.37
				h198.31h9.75v9.75v81.04v9.75h-9.75h-301.69h-9.75v-9.75V409.41v-9.75h9.75h301.69H2723.21 M2723.21,370.12h-9.75h-301.69h-9.75
				c-16.31,0-29.54,13.23-29.54,29.54v9.75v447.32v9.75c0,16.31,13.23,29.54,29.54,29.54h9.75h301.69h9.75
				c16.31,0,29.54-13.23,29.54-29.54v-9.75V775.7v-9.75c0-16.31-13.23-29.54-29.54-29.54h-9.75H2544.7v-26.29h140.02h9.75
				c16.31,0,29.54-13.23,29.54-29.54v-9.75v-80.35v-9.75c0-16.31-13.23-29.54-29.54-29.54h-9.75H2544.7v-22.15h168.77h9.75
				c16.31,0,29.54-13.23,29.54-29.54v-9.75v-80.15v-9.94C2752.75,383.35,2739.52,370.12,2723.21,370.12L2723.21,370.12z"/>
		</g>
		<g>
			<path class="st0" d="M3120.71,881.35c-6.31,0-11.92-4.01-13.97-9.97l-2.27-6.6l-24.49-70.27h-139.82l-23.87,70.23l-2.28,6.64
				c-2.05,5.97-7.66,9.97-13.97,9.97h-119.44c-4.84,0-9.37-2.37-12.13-6.35c-2.76-3.98-3.4-9.05-1.71-13.59l4.92-13.19
				l167.79-447.34l2.34-6.33c2.14-5.8,7.67-9.65,13.86-9.65h107.82c6.08,0,11.54,3.73,13.76,9.4l2.46,6.3l172.43,447.38l5.12,13.3
				c1.75,4.54,1.15,9.65-1.61,13.67c-2.75,4.01-7.31,6.41-12.18,6.41H3120.71z M3037,670.83l-27.61-79.19l-27.05,79.19H3037z"/>
			<path class="st0" d="M3063.5,399.66l2.46,6.3l172.41,447.32l5.12,13.29h-14.28H3127.7h-6.99l-2.26-6.6l-27.96-80.25h-160.89
				l-27.27,80.25l-2.26,6.6h-6.99h-98.27h-14.18l4.92-13.19l167.78-447.32l2.36-6.4h6.79h94.33H3063.5 M2961.69,685.6h96.1
				l-48.54-139.23L2961.69,685.6 M3063.5,370.12h-6.7h-94.33h-6.79c-12.37,0-23.43,7.71-27.71,19.31l-2.34,6.33l-167.75,447.25
				c-0.01,0.02-0.01,0.03-0.02,0.05l-4.92,13.19c-3.38,9.07-2.11,19.22,3.41,27.17c5.52,7.95,14.59,12.69,24.27,12.69h14.18h98.27
				h6.99c12.62,0,23.84-8.01,27.94-19.95l2.26-6.6c0.01-0.03,0.02-0.06,0.03-0.09l20.47-60.21h118.74l21.04,60.37l2.24,6.52
				c4.1,11.93,15.32,19.95,27.94,19.95h6.99h101.52h14.28c9.73,0,18.84-4.8,24.35-12.82c5.51-8.03,6.71-18.25,3.21-27.33
				l-5.12-13.29l-172.41-447.33c-0.02-0.04-0.03-0.08-0.05-0.12l-2.46-6.3C3086.59,377.58,3075.67,370.12,3063.5,370.12
				L3063.5,370.12z M3002.99,656.06l6.54-19.14l6.67,19.14H3002.99L3002.99,656.06z"/>
		</g>
		<g>
			<path class="st0" d="M3700.27,881.45c-8.16,0-14.77-6.61-14.77-14.77V692.87l-75.64,161.46l-2.68,5.67
				c-2.44,5.16-7.64,8.45-13.35,8.45h-65.28c-5.74,0-10.97-3.33-13.39-8.54l-76.31-164.06v170.62c0,8.16-6.61,14.77-14.77,14.77
				h-109.2c-8.16,0-14.77-6.61-14.77-14.77V399.66c0-8.16,6.61-14.77,14.77-14.77h105.45c5.74,0,10.97,3.33,13.39,8.54l130.33,280
				l123.12-273.97l2.54-5.76c2.36-5.36,7.66-8.81,13.52-8.81h106.24c8.16,0,14.77,6.61,14.77,14.77v467.01
				c0,8.16-6.61,14.77-14.77,14.77H3700.27z"/>
			<path class="st0" d="M3809.46,399.66v9.85v447.42v9.75h-9.75h-89.7h-9.75v-9.75V626.52l-103.78,221.54l-2.66,5.61h-6.2h-52.88
				h-6.2l-2.66-5.71l-101.81-218.88v227.65v9.75h-9.75h-89.7h-9.75v-9.75V409.41v-9.75h9.75h89.5h6.2l2.66,5.71l141.3,303.56
				l136.37-303.47l2.56-5.81h6.3h90.29H3809.46 M3809.46,370.12h-9.65h-90.29h-6.3c-11.71,0-22.31,6.91-27.03,17.63l-2.52,5.71
				l-109.86,244.46l-114.04-245.01l-2.66-5.71c-4.85-10.41-15.29-17.07-26.78-17.07h-6.2h-89.5h-9.75
				c-16.31,0-29.54,13.23-29.54,29.54v9.75v447.32v9.75c0,16.31,13.23,29.54,29.54,29.54h9.75h89.7h9.75
				c16.31,0,29.54-13.23,29.54-29.54v-9.75v-94.1l45.49,97.8l2.66,5.72c4.85,10.41,15.29,17.07,26.78,17.07h6.2h52.88h6.2
				c11.42,0,21.81-6.58,26.7-16.89l2.66-5.61c0.02-0.04,0.04-0.08,0.05-0.11l47.49-101.38v97.71v9.75
				c0,16.31,13.23,29.54,29.54,29.54h9.75h89.7h9.75c16.31,0,29.54-13.23,29.54-29.54v-9.75V409.51v-9.85
				C3839,383.35,3825.77,370.12,3809.46,370.12L3809.46,370.12z"/>
		</g>
	</g>
	<g>
		<g>
			<path class="st0" d="M633.12,1231.98c-67.05,0-132.83-11.03-195.65-32.69c-60.65-20.97-117.37-51.6-168.47-90.88
				c-50.61-38.89-94.43-85.27-130.46-137.95c-36.43-53.47-63.8-112.05-81.43-174.08l0,0c-0.3-0.89-0.69-1.87-0.98-2.95
				c-0.59-1.87-1.48-4.92-2.66-9.06c-1.97-7.09-4.92-18.81-7.78-33.77c-5.12-26.29-11.22-68.04-11.22-117.47
				c0-10.63,0.59-23.14,0.98-31.71c0.3-4.92,0.49-9.06,0.69-11.62c0.1-1.48,0.2-2.56,0.2-3.35c0-0.39,0.1-0.89,0.2-1.28h-0.1
				c11.91-149.66,79.26-288.5,189.54-391C337.04,91.18,481.68,34.46,633.12,34.46c80.84,0,159.22,15.85,233.06,47.07
				c71.29,30.13,135.29,73.36,190.33,128.3c54.94,55.04,98.17,119.04,128.3,190.33c31.21,73.85,47.07,152.22,47.07,233.06
				c0,80.84-15.85,159.22-47.07,233.06c-30.13,71.29-73.36,135.29-128.3,190.33c-54.94,54.94-119.04,98.17-190.33,128.3
				C792.44,1216.12,713.96,1231.98,633.12,1231.98z"/>
			<path class="st0" d="M633.12,39.29c327.98,0,593.83,265.85,593.83,593.93c0,327.98-265.85,593.83-593.83,593.83
				c-271.86,0-500.79-182.85-571.29-432.06l0,0c-0.1,0-22.55-67.15-22.55-161.87c0-20.38,2.07-47.56,2.07-47.56l0,0
				C65.68,279.83,321.29,39.29,633.12,39.29 M633.12,29.54c-152.72,0-298.44,57.21-410.4,161.09
				C111.46,293.91,43.62,433.93,31.61,584.78l0,0c-0.1,0.49-0.1,0.89-0.1,1.28c-0.1,0.79-0.1,1.97-0.2,3.45
				c-0.2,2.66-0.49,6.79-0.69,11.72c-0.49,8.66-1.08,21.17-1.08,31.9c0,49.82,6.2,91.87,11.42,118.35
				c2.95,15.16,5.91,26.88,7.88,34.17c1.18,4.23,2.07,7.38,2.66,9.26c0.3,1.08,0.59,1.87,0.79,2.46c0.1,0.3,0.2,0.59,0.3,0.79l0,0
				c17.72,62.43,45.29,121.31,82.02,175.07c36.23,53.07,80.44,99.94,131.45,139.13c51.59,39.58,108.7,70.4,169.85,91.57
				c63.31,21.86,129.68,32.99,197.22,32.99c81.53,0,160.5-15.95,234.93-47.46c35.74-15.16,70.3-33.87,102.5-55.63
				c32-21.56,62.03-46.38,89.31-73.75c27.27-27.27,52.09-57.4,73.75-89.31c21.76-32.3,40.57-66.76,55.63-102.5
				c31.51-74.44,47.46-153.5,47.46-234.93c0-81.53-15.95-160.59-47.46-235.03c-15.16-35.74-33.87-70.3-55.63-102.6
				c-21.56-32-46.38-62.03-73.75-89.31c-27.27-27.27-57.4-52.09-89.31-73.75c-32.2-21.76-66.66-40.57-102.4-55.63
				C793.72,45.49,714.65,29.54,633.12,29.54L633.12,29.54z"/>
		</g>
		<path class="st1" d="M61.84,795l227.65,94.13c15.36,76.9,83.4,134.99,164.83,134.99c92.75,0,168.18-75.42,168.18-168.18
			c0-2.66-0.1-5.32-0.2-7.98l201.85-144.05c1.67,0,3.45,0.1,5.12,0.1c123.47,0,224-100.43,224-224s-100.43-224-224-224
			s-224,100.43-224,224c0,0.98,0,1.97,0,2.95l-141.59,205.2c-3.15-0.2-6.3-0.3-9.35-0.3c-35.05,0-67.64,10.73-94.62,29.24
			L41.35,585.56c0-0.1-2.07,27.18-2.07,47.56C39.29,728.93,62.23,796.47,61.84,795z"/>
		<g>
			<g>
				
					<linearGradient id="SVGID_1_" gradientUnits="userSpaceOnUse" x1="634.1553" y1="-7332.271" x2="634.1553" y2="-6144.5034" gradientTransform="matrix(1 0 0 1 0 7371.5576)">
					<stop  offset="0.2483" style="stop-color:#131E31"/>
					<stop  offset="0.667" style="stop-color:#14437B"/>
					<stop  offset="0.8383" style="stop-color:#136193"/>
					<stop  offset="1" style="stop-color:#0D7BC1"/>
				</linearGradient>
				<path class="st2" d="M633.12,39.29c-311.83,0-567.45,240.55-591.77,546.28l318.23,131.65c26.98-18.41,59.57-29.24,94.62-29.24
					c3.15,0,6.3,0.1,9.35,0.3l141.49-205.2c0-0.98,0-1.97,0-2.95c0-123.47,100.43-224,224-224s224,100.43,224,224
					s-100.43,224-224,224c-1.67,0-3.45,0-5.12-0.1L622.09,848.07c0.1,2.66,0.2,5.32,0.2,7.98c0,92.75-75.42,168.18-168.18,168.18
					c-81.33,0-149.47-58.09-164.83-134.99L61.84,795c70.5,249.21,299.43,432.06,571.29,432.06c327.98,0,593.83-265.85,593.83-593.83
					S961.1,39.29,633.12,39.29z M413.55,940.33l-72.96-30.13c12.9,26.98,35.25,49.43,64.99,61.84
					c64.2,26.78,138.14-3.74,165.03-67.94c12.9-31.02,13-65.28,0.2-96.59c-12.8-31.11-37.02-55.44-68.14-68.43
					c-30.82-12.8-63.9-12.31-92.95-1.38l75.32,31.11c47.36,19.79,69.71,74.14,50.02,121.41
					C515.26,937.77,460.81,960.12,413.55,940.33z M978.34,480.11c0-82.22-66.96-149.27-149.27-149.27s-149.27,66.96-149.27,149.27
					s66.96,149.27,149.27,149.27S978.34,562.33,978.34,480.11z M717.31,479.91c0-61.93,50.22-112.15,112.15-112.15
					s112.15,50.12,112.15,112.15c0,61.93-50.22,112.15-112.15,112.15S717.31,541.85,717.31,479.91z"/>
			</g>
		</g>
		<g>
			<g>
				<path d="M1698.99,869.34c-57.01,0-116.78-15.75-159.91-42.04l-3.45-2.07l32.39-86.55l4.92,2.56
					c37.61,19.89,81.72,31.21,121.21,31.21c25.31,0,44.7-4.33,57.8-12.9c11.62-7.68,17.53-18.41,17.53-31.9
					c0-27.87-32.39-38.5-85.96-56.03c-4.43-1.48-9.06-2.95-13.78-4.53c-42.73-14.28-70.6-28.85-90.39-47.36
					c-24.03-22.45-35.74-50.91-35.74-87.04c0-41.75,16.34-76.51,47.16-100.53c29.64-23.04,71.19-35.25,120.22-35.25
					c59.18,0.1,116.48,16.84,153.41,44.9l3.45,2.56l-44.51,78.28l-4.43-3.05c-29.44-20.58-69.91-33.38-105.55-33.38
					c-39.48,0-62.23,15.66-62.23,43.03c0,28.06,30.23,38.3,80.25,55.44c9.45,3.25,19.2,6.6,29.74,10.34
					c41.35,14.67,68.04,29.15,86.35,47.07c21.17,20.68,31.51,46.87,31.51,80.15c0,45.49-17.53,83.2-50.61,109.2
					C1796.37,856.24,1751.77,869.34,1698.99,869.34z"/>
				<path class="st0" d="M1710.9,401.73c66.86,0.1,120.62,21.27,150.45,43.91l-39.78,69.91c-30.62-21.47-72.17-34.27-108.41-34.27
					c-41.45,0-67.05,17.13-67.05,47.85c0,37.32,45.49,45.98,113.23,70.3c72.76,25.8,114.61,56.03,114.61,122.59
					c0,91.18-71.68,142.38-174.77,142.38c-50.22,0-110.87-12.9-157.34-41.35l28.95-77.59c37.81,19.99,83.1,31.8,123.47,31.8
					c54.35,0,80.25-20.09,80.25-49.72c0-33.97-39.48-44.21-103.09-65.18c-72.57-24.22-122.78-56.03-122.78-129.78
					C1548.44,449.49,1615,401.73,1710.9,401.73 M1710.9,391.98L1710.9,391.98L1710.9,391.98c-50.12,0-92.75,12.6-123.18,36.33
					c-32.1,25.01-49.03,61.15-49.03,104.37c0,37.51,12.21,67.15,37.32,90.59c20.38,19,48.84,33.97,92.16,48.44
					c4.73,1.58,9.35,3.05,13.88,4.53c27.47,8.96,49.13,16.05,63.61,24.52c13.49,7.88,19,15.66,19,26.88
					c0,11.91-5.02,21.07-15.36,27.87c-12.01,7.98-31.11,12.11-55.14,12.11c-38.7,0-82.02-11.22-118.94-30.72l-9.85-5.22l-3.94,10.44
					l-28.95,77.59l-2.86,7.58l6.89,4.23c43.82,26.78,104.57,42.73,162.47,42.73c53.86,0,99.55-13.49,132.14-39.09
					c34.36-26.98,52.48-66.07,52.48-113.13c0-73.85-48.44-106.14-121.11-131.84c-10.44-3.74-20.28-7.09-29.74-10.34
					c-51.99-17.72-77-27.27-77-50.81c0-11.82,4.63-20.97,13.88-27.47c9.94-6.99,24.91-10.63,43.42-10.63
					c34.76,0,74.14,12.41,102.8,32.49l8.86,6.2l5.32-9.35l39.78-69.91l4.23-7.48l-6.79-5.22c-16.94-12.9-39.19-23.93-64.2-31.9
					C1774.02,396.71,1743.1,391.98,1710.9,391.98L1710.9,391.98z"/>
			</g>
			<g>
				<polygon points="2073.65,861.75 2073.65,494.78 1937.77,494.78 1937.77,404.59 2312.81,404.59 2312.81,494.78 2177.23,494.78 
					2177.23,861.75 				"/>
				<path class="st0" d="M2307.89,409.51v80.44h-135.58v366.97h-93.74V489.86h-135.88v-80.44h365.2 M2317.74,399.66h-9.75h-365.3
					h-9.75v9.75v80.44v9.75h9.75h126.13v357.13v9.75h9.75h93.74h9.75v-9.75V499.7h125.84h9.75v-9.75v-80.44v-9.85H2317.74z"/>
			</g>
			<g>
				<polygon points="2406.85,861.75 2406.85,404.59 2718.39,404.59 2718.39,494.48 2510.23,494.48 2510.23,585.56 2689.54,585.56 
					2689.54,675.66 2510.23,675.66 2510.23,770.87 2718.39,770.87 2718.39,861.75 				"/>
				<path class="st0" d="M2713.46,409.51v80.15h-208.05v100.83h179.3v80.35h-179.3V775.8h208.05v81.04h-301.69V409.51H2713.46
					 M2723.21,399.66h-9.75h-301.69h-9.75v9.75v447.32v9.75h9.75h301.69h9.75v-9.75V775.7v-9.75h-9.75h-198.31v-85.37h169.55h9.75
					v-9.75v-80.35v-9.75h-9.75h-169.55v-81.23h198.31h9.75v-9.75v-80.15V399.66L2723.21,399.66z"/>
			</g>
			<g>
				<path d="M3124.25,861.75l-30.23-86.84h-167.88l-29.54,86.84h-108.8l171.43-457.17h101.02l176.25,457.17H3124.25z
					 M3064.58,690.43l-55.44-159.22l-54.35,159.22H3064.58z"/>
				<path class="st0" d="M3056.8,409.51l172.41,447.32H3127.7l-30.23-86.84H2922.6l-29.54,86.84h-98.27l167.78-447.32L3056.8,409.51
					 M2948,695.35h123.47l-62.43-179.11L2948,695.35 M3063.5,399.66h-6.7h-94.33h-6.79l-2.36,6.4l-167.78,447.32l-4.92,13.19h14.18
					h98.27h6.99l2.26-6.6l27.27-80.25h160.89l27.96,80.25l2.26,6.6h6.99h101.52h14.28l-5.12-13.29l-172.41-447.32L3063.5,399.66
					L3063.5,399.66z M2961.69,685.6l47.56-139.23l48.54,139.23L2961.69,685.6L2961.69,685.6z"/>
			</g>
			<g>
				<polygon points="3705.19,861.75 3705.19,604.47 3590.77,848.76 3531.7,848.76 3419.25,606.93 3419.25,861.75 3319.7,861.75 
					3319.7,404.59 3417.28,404.59 3564.39,720.66 3706.27,404.59 3804.64,404.59 3804.64,861.75 				"/>
				<path class="st0" d="M3799.81,409.51v447.32h-89.7V582.41l-122.49,261.42h-52.88l-120.42-259.06v272.06h-89.7V409.51h89.5
					l150.35,322.96l145.04-322.96L3799.81,409.51 M3809.56,399.66h-9.75h-90.29h-6.3l-2.56,5.81l-136.37,303.47l-141.3-303.56
					l-2.66-5.71h-6.2h-89.5h-9.75v9.75v447.32v9.75h9.75h89.7h9.75v-9.75V629.08l101.81,218.88l2.66,5.71h6.2h52.88h6.2l2.66-5.61
					l103.78-221.54v230.41v9.75h9.75h89.7h9.75v-9.75V409.51v-9.85H3809.56z"/>
			</g>
		</g>
	</g>
</g>
</svg>
