<?xml version="1.0" encoding="utf-8"?>
<!-- Generator: Adobe Illustrator 26.0.1, SVG Export Plug-In . SVG Version: 6.00 Build 0)  -->
<svg version="1.1" id="Layer_1" xmlns="http://www.w3.org/2000/svg" xmlns:xlink="http://www.w3.org/1999/xlink" x="0px" y="0px"
	 viewBox="0 0 3839 933.2" style="enable-background:new 0 0 3839 933.2;" xml:space="preserve">
<style type="text/css">
	.st0{fill:#686868;}
	.st1{fill:#F7DB17;}
	.st2{fill:#C1214E;}
	.st3{fill:#FFFFFF;}
</style>
<g>
	<g>
		<path class="st3" d="M1977.7,10v913.2H10V10H1977.7 M1987.7,0H0v933.2h1987.7V0L1987.7,0z"/>
	</g>
	<g>
		<g>
			<path class="st3" d="M3320.8,137c-18.3,0-33.2,59.3-33.2,132.5v394c0,73.1,14.9,132.5,33.2,132.5c18.3,0,33.2-59.3,33.2-132.5
				v-394C3354,196.4,3339.1,137,3320.8,137z"/>
		</g>
		<g>
			<path class="st3" d="M3050.9,137c-18.3,0-33.2,59.3-33.2,132.5v394c0,73.1,14.9,132.5,33.2,132.5c18.3,0,33.2-59.3,33.2-132.5
				v-394C3084.1,196.4,3069.2,137,3050.9,137z"/>
		</g>
		<g>
			<path class="st3" d="M1987.7,0v933.2H3839V0H1987.7z M2337.5,816.7h-6.9l-24.2-78.9h-0.3c-14.3,51.1-25.6,81.9-53.5,81.9
				c-63.2,0-114.4-158-114.4-353.1s51.2-353.1,114.4-353.1c18,0,33.1,11.7,45,34.3l22.1-31.6h6.9v215.2c0,0-3.9,0-5.8,0
				c-0.4,0-0.6,0-0.8,0c-0.3,0-0.4,0-0.4,0c-16-99.1-45.5-194.4-67-194.4s-38.8,59.3-38.8,132.5v394.1c0,73.1,17.4,132.5,38.8,132.5
				c18.1,0,25.3-42.1,29.7-99.1V451.5l-34.1-23.9v-6.9h89.3V816.7z M2660,816.6h-119v-6.9l30.8-21.6l-59.2-266.9l-65.1,269.9
				l26.6,18.6v6.9h-86.2v-6.9l33-23l78.4-325.5l-68.5-309l-31.7-22.2v-6.9h119v6.9l-30.7,21.6l51.5,232.3l56.6-234.7l-27.6-19.2
				v-6.9h86.3v6.9l-31.8,22.2l-70.3,291.7l76.2,343.7l31.7,22.1V816.6z M2889,608.7h-47.8v178.8l31.8,22.2v6.9h-118.9v-6.9
				l31.7-22.2V608.7h-106.5l102.8-485.6h68.8L2715,581.7h70.8V457l55.4-39v163.7h47.8V608.7z M3050.9,819.6c-54.2,0-98-158-98-353.1
				s43.9-353.1,98-353.1c54.1,0,98,158,98,353.1S3105,819.6,3050.9,819.6z M3320.7,819.6c-54.2,0-98-158-98-353.1
				s43.9-353.1,98-353.1c54.1,0,98,158,98,353.1S3374.9,819.6,3320.7,819.6z M3590.5,819.6c-54.2,0-98-158-98-353.1
				s43.9-353.1,98-353.1c54,0,98,158,98,353.1S3644.7,819.6,3590.5,819.6z"/>
		</g>
		<g>
			<path class="st3" d="M3590.5,137c-18.3,0-33.2,59.3-33.2,132.5v394.1c0,73.1,14.9,132.5,33.2,132.5c18.3,0,33.2-59.4,33.2-132.6
				v-394C3623.7,196.4,3608.8,137,3590.5,137z"/>
		</g>
	</g>
	<g>
		<path class="st3" d="M347.1,710.2h-96.8l-8-96.1H203l-7.3,96.1H99.6l61.2-485.5h125.9L347.1,710.2z M222.6,345.4L208.8,534h27.7
			L222.6,345.4z"/>
		<path class="st3" d="M673.3,710.2h-92.4V435l-36.4,275.2h-59.7l-38.6-276.7v276.7h-92.4V224.6h135.5l24.1,214.7l25.5-214.7h134.7
			v485.6H673.3z"/>
		<path class="st3" d="M824.6,391.3v-57.6c0-15.3-0.7-20.4-2.1-24.1c-2.9-5.1-7.3-8.8-12.4-8.8c-5.1,0-10.9,3.6-13.1,8.8
			c-1.5,4.4-2.1,8-2.1,24.1v35.6c0,16.1,4.4,21.8,23.3,32l43.7,24.1c57.6,32,65.5,45.1,65.5,110.6v78c0,42.3-2.9,56.1-14.6,71.4
			c-16,21.8-33.5,26.2-109.2,26.2c-60.5,0-77.1-3.6-93.2-21.8c-9.4-10.2-13.8-21.8-16-40c-1.5-9.4-1.5-20.4-1.5-53.2v-87.3h102v81.5
			v12.4c0,19.7,4.4,27.7,15.3,27.7c9.4,0,14.5-8,14.5-21.8v-12.4v-53.9l-0.7-10.2c-0.7-18.2-2.9-21.8-20.4-31.3
			c-6.5-3.6-11.7-5.8-12.4-6.5l-43.1-24.1c-47.3-27-55.3-42.3-55.3-102.6v-56.8c0-40,4.4-57.6,19.7-71.4c16-14.5,35-18.2,105.6-18.2
			c61.8,0,78.6,4.4,93.9,24.7c12.4,16.1,15.3,31.3,15.3,76.4v68.5L824.6,391.3L824.6,391.3z"/>
		<path class="st3" d="M1088,710.2H985.3v-407h-51.7v-78.6h204.6v78.6H1088V710.2z"/>
		<path class="st3" d="M1253.8,224.6l36.4,0.7c71.4,1.5,88.8,20.4,88.8,93.9v50.9c0,67.7-10.2,91.1-45.9,100.5
			c17.4,5.8,27.7,13.8,35,27c9.4,16.7,10.9,29.9,10.9,86.7v125.9h-102V564.6c0-48,0-47.3-25.5-48c-1.5,0-2.1,0-4.4,0v193.7h-102.6
			V224.6H1253.8z M1254.4,427.7c19.7,0,22.6-4.4,22.6-35.6v-52.4l-0.7-13.1c0-17.4-4.4-22.6-18.2-22.6h-6.5h-4.4v123.8
			C1250.8,427.7,1253.1,427.7,1254.4,427.7z"/>
		<path class="st3" d="M1629.4,710.2h-96.8l-8-96.1h-39.3l-7.3,96.1h-96.1l61.2-485.5H1569L1629.4,710.2z M1504.9,345.4L1491.1,534
			h27.7L1504.9,345.4z"/>
		<path class="st3" d="M1735.6,224.6c88.1,0,100.5,2.1,117.2,21.8c15.3,17.4,18.9,36.4,18.9,103.4v239.6c0,59.7-2.1,75.8-13.8,93.2
			c-13.8,20.4-34.2,27-84.4,27l-51.7,0.7h-85.9V224.6H1735.6z M1748.1,630.9c16,0,19.7-5.1,19.7-25.5c0-2.9,0-5.1,0-10.2
			c0-8,0-16.7,0-24.1V343.3v-12.4c0-21.8-3.6-27-19.7-27c-2.1,0-5.8,0.7-9.4,0.7v326.1C1742.2,630.9,1745.8,630.9,1748.1,630.9z"/>
	</g>
	<g>
		<polygon class="st3" points="1227,933.2 1675.4,0 1664.3,0 1215.9,933.2 		"/>
		<polygon class="st3" points="841.2,933.2 1303.3,0 1292.1,0 830,933.2 		"/>
	</g>
</g>
</svg>
