<?xml version="1.0" encoding="utf-8"?>
<!-- Generator: Adobe Illustrator 26.0.1, SVG Export Plug-In . SVG Version: 6.00 Build 0)  -->
<svg version="1.1" id="Layer_1" xmlns="http://www.w3.org/2000/svg" xmlns:xlink="http://www.w3.org/1999/xlink" x="0px" y="0px"
	 viewBox="0 0 3839 955.5" style="enable-background:new 0 0 3839 955.5;" xml:space="preserve">
<style type="text/css">
	.st0{fill:#686868;}
	.st1{fill:#F7DB17;}
	.st2{fill:#C1214E;}
	.st3{fill:#FFFFFF;}
</style>
<g>
	<g>
		<g>
			<g>
				<path class="st3" d="M1926,10v935.5H10V10H1926 M1936,0H0v955.5h1936V0L1936,0z"/>
			</g>
			<path class="st3" d="M317.3,854.8h-98.1l-8.1-97.5h-39.9l-7.3,97.5H66.3l62-492.4H256L317.3,854.8z M191.1,484.9l-14,191.2h28.1
				L191.1,484.9z"/>
			<path class="st3" d="M647.9,854.8h-93.7V575.7l-36.9,279.1h-60.6l-39.1-280.5v280.5H324V362.4h137.3l24.4,217.7l25.8-217.7h136.6
				v492.4L647.9,854.8L647.9,854.8z"/>
			<path class="st3" d="M801.6,531.5v-58.3c0-15.5-0.8-20.6-2.3-24.4c-2.9-5.2-7.3-8.9-12.5-8.9s-11.1,3.7-13.3,8.9
				c-1.5,4.4-2.3,8.1-2.3,24.4v36.2c0,16.2,4.4,22.1,23.6,32.5l44.3,24.4c58.3,32.5,66.4,45.8,66.4,112.2v78.9
				c0,42.9-2.9,56.8-14.8,72.3c-16.2,22.1-34,26.6-110.8,26.6c-61.3,0-78.3-3.7-94.5-22.1c-9.6-10.4-14-22.1-16.2-40.6
				c-1.5-9.6-1.5-20.6-1.5-53.9V651H771v82.7v12.5c0,20,4.4,28.1,15.5,28.1c9.6,0,14.8-8.1,14.8-22.1v-12.5V685l-0.8-10.4
				c-0.8-18.5-2.9-22.1-20.6-31.7c-6.7-3.7-11.8-5.9-12.5-6.7l-43.5-24.4c-47.9-27.3-56.1-42.9-56.1-104.1v-57.5
				c0-40.6,4.4-58.3,20-72.3c16.2-14.8,35.4-18.5,107-18.5c62.7,0,79.8,4.4,95.2,25.2c12.5,16.2,15.5,31.7,15.5,77.5v69.4
				L801.6,531.5L801.6,531.5z"/>
			<path class="st3" d="M1068.7,854.8h-104V442.1h-52.4v-79.7h207.4v79.7h-51V854.8z"/>
			<path class="st3" d="M1237.1,362.4l36.9,0.8c72.3,1.5,90,20.6,90,95.2v51.7c0,68.7-10.4,92.3-46.5,101.9
				c17.7,5.9,28.1,14,35.4,27.3c9.6,16.9,11.1,30.2,11.1,87.9v127.7h-103.3V707.1c0-48.7,0-47.9-25.8-48.7c-1.5,0-2.3,0-4.4,0v196.4
				h-104.1V362.4H1237.1z M1237.8,568.3c20,0,22.9-4.4,22.9-36.2V479l-0.8-13.3c0-17.7-4.4-22.9-18.5-22.9h-6.7h-4.4v125.4
				C1234.1,568.3,1236.3,568.3,1237.8,568.3z"/>
			<path class="st3" d="M1618,854.8h-98.1l-8.1-97.5H1472l-7.3,97.5h-97.5l62-492.4h127.7L1618,854.8z M1491.7,484.9l-14,191.2h28.1
				L1491.7,484.9z"/>
			<path class="st3" d="M1725.8,362.4c89.3,0,101.9,2.3,118.9,22.1c15.5,17.7,19.2,36.9,19.2,104.8v242.9c0,60.6-2.3,76.8-14,94.5
				c-14,20.6-34.7,27.3-85.6,27.3l-52.5,0.8h-87.1V362.4H1725.8z M1738.3,774.3c16.2,0,20-5.2,20-25.8c0-2.9,0-5.2,0-10.4
				c0-8.1,0-16.9,0-24.4v-231v-12.5c0-22.1-3.7-27.3-20-27.3c-2.3,0-5.9,0.8-9.6,0.8v330.7C1732.5,774.3,1736.1,774.3,1738.3,774.3z
				"/>
		</g>
		<g>
			<g>
				<path class="st3" d="M3306.3,139c-18.8,0-34.1,61-34.1,136.3v405c0,75.3,15.3,136.3,34.1,136.3c18.8,0,34.1-61,34.1-136.3v-405
					C3340.4,200,3325.1,139,3306.3,139z"/>
			</g>
			<g>
				<path class="st3" d="M3029,139c-18.8,0-34.1,61-34.1,136.3v405c0,75.3,15.3,136.3,34.1,136.3c18.8,0,34.1-61,34.1-136.3v-405
					C3063.1,200,3047.8,139,3029,139z"/>
			</g>
			<g>
				<path class="st3" d="M1936,0v955.5h1903V0H1936z M2295.8,837.8h-7.1l-25-81h-0.3c-14.6,52.4-26.3,84.1-55,84.1
					c-64.9,0-117.6-162.5-117.6-363S2143.5,115,2208.5,115c18.4,0,34,12,46.2,35.2l22.7-32.4h7.1v221c0,0-4,0-6,0
					c-0.3,0-0.6,0-0.8,0c-0.3,0-0.4,0-0.4,0C2260.9,237,2230.4,139,2208.4,139c-22.1,0-39.9,61-39.9,136.3v405
					c0,75.3,17.9,136.3,39.9,136.3c18.5,0,26-43.3,30.5-101.9V462.5l-35.1-24.6v-7.1h92V837.8z M2627.1,837.6h-122.3v-7.1l31.6-22.1
					L2475.5,534l-66.8,277.4l27.4,19.1v7.1h-88.7v-7.1l33.9-23.7l80.6-334.4l-70.4-317.8l-32.5-22.7v-7.1h122.3v7.1l-31.7,22.2
					l52.9,238.7l58.3-241.2l-28.3-19.7v-7.1h88.6v7.1l-32.6,22.8l-72.3,299.8l78.3,353.3l32.6,22.7V837.6z M2862.4,623.9h-49v183.7
					l32.6,22.9v7.1h-122.2v-7.1l32.6-22.9V623.9h-109.5l105.7-499.1h70.7l-139.6,471.3h72.7V468l57-40.1v168.2h49V623.9z
					 M3029,840.9c-55.7,0-100.7-162.5-100.7-363s45.1-363,100.7-363c55.5,0,100.7,162.5,100.7,363S3084.6,840.9,3029,840.9z
					 M3306.3,840.9c-55.7,0-100.7-162.5-100.7-363s45.1-363,100.7-363c55.5,0,100.7,162.5,100.7,363S3361.9,840.9,3306.3,840.9z
					 M3583.5,840.9c-55.7,0-100.7-162.5-100.7-363s45.1-363,100.7-363c55.6,0,100.7,162.5,100.7,363S3639.2,840.9,3583.5,840.9z"/>
			</g>
			<g>
				<path class="st3" d="M3583.5,139c-18.8,0-34.1,61-34.1,136.3v405c0,75.3,15.3,136.3,34.1,136.3c18.9,0,34.2-61.1,34.1-136.3
					v-405C3617.6,200,3602.3,139,3583.5,139z"/>
			</g>
		</g>
	</g>
	<g>
		<polygon class="st3" points="1273.9,955.5 1732.9,0 1721.8,0 1262.8,955.5 		"/>
		<polygon class="st3" points="884.3,955.5 1357.5,0 1346.3,0 873.1,955.5 		"/>
	</g>
</g>
</svg>
