<?xml version="1.0" encoding="utf-8"?>
<!-- Generator: Adobe Illustrator 25.2.3, SVG Export Plug-In . SVG Version: 6.00 Build 0)  -->
<svg version="1.1" id="Layer_1" xmlns="http://www.w3.org/2000/svg" xmlns:xlink="http://www.w3.org/1999/xlink" x="0px" y="0px"
	 viewBox="0 0 3839 370.28" style="enable-background:new 0 0 3839 370.28;" xml:space="preserve">
<style type="text/css">
	.st0{fill:#15A754;}
	.st1{fill:#DDDDDD;}
	.st2{fill:#EE3327;}
	.st3{fill:#FDEB05;}
	.st4{fill:#7CC242;}
	.st5{fill:#A05DA5;}
	.st6{fill:#FCEA02;}
	.st7{fill:#9A509F;}
	.st8{fill:#FFFFFF;}
</style>
<g>
	<g>
		<path class="st8" d="M1575.1,358.78c-8,0-11.27-1.59-14.17-3.62l16.04-71.15c27.82-4.23,39.33-23.32,45.17-73.9
			c14.64-126.74,99.15-134.06,108.74-134.48c1.11-0.05,2.13-0.07,3.11-0.07c2.96,0,5.52,0.23,9.27,0.86c0,0-17,75.42-17,75.42
			c-27.52,3.8-33.71,27.4-44.94,95.75c-16.9,102.23-88.75,110.5-102.98,111.12C1577.19,358.75,1576.1,358.78,1575.1,358.78z"/>
		<path class="st8" d="M3027.46,358.78c-8,0-11.27-1.59-14.17-3.62l16.04-71.15c27.82-4.23,39.33-23.32,45.17-73.9
			c14.64-126.74,99.15-134.06,108.74-134.48c1.11-0.05,2.13-0.07,3.11-0.07c2.96,0,5.52,0.23,9.27,0.86c0,0-17,75.42-17,75.42
			c-27.52,3.8-33.71,27.4-44.94,95.75c-16.9,102.23-88.75,110.5-102.98,111.12C3029.55,358.75,3028.46,358.78,3027.46,358.78z"/>
		<path class="st8" d="M1458.02,358.78c-8,0-11.27-1.59-14.17-3.62l16.04-71.15c27.82-4.23,39.33-23.32,45.17-73.9
			c14.64-126.74,99.15-134.06,108.74-134.48c1.11-0.05,2.13-0.07,3.11-0.07c2.96,0,5.52,0.23,9.27,0.86c0,0-17,75.42-17,75.42
			c-27.52,3.8-33.71,27.4-44.94,95.75c-16.9,102.23-88.75,110.5-102.98,111.12C1460.11,358.75,1459.02,358.78,1458.02,358.78z"/>
		<rect x="2702.5" class="st8" width="72.69" height="358.78"/>
		<path class="st8" d="M3439.98,75.56c-80.07,0-147.27,58.18-154.27,138.25c-7,80.07,52.22,144.97,132.29,144.97
			c80.07,0,158.19-62.31,157.66-144.97C3575.13,133.43,3520.05,75.56,3439.98,75.56z M3491.04,266.48
			c-19.03,19.15-46.33,30.58-73.04,30.58c-21.11,0-39.97-7.9-53.11-22.24c-13.28-14.49-19.56-34.25-17.69-55.63
			c4.09-46.7,43.98-81.91,92.79-81.91c45.31,0,73.65,29.48,73.96,76.93C3514.09,238.21,3501.57,255.88,3491.04,266.48z"/>
		<path class="st8" d="M1418.73,358.19h-63.78l31.35-138.97c0.14-1.83,0.21-3.7,0.2-5.61c-0.31-47.45-28.65-76.93-73.96-76.93
			c-48.81,0-88.7,35.21-92.79,81.91c-1.87,21.38,4.41,41.14,17.69,55.63c13.14,14.34,32,22.24,53.11,22.24
			c18.69,0,37.67-5.6,53.91-15.52l-16.41,72.76l-0.4,0.07c0,0-24.59,4.4-37.1,4.4c-80.07,0-139.29-64.91-132.29-144.97
			c7-80.07,74.2-138.25,154.27-138.25s135.15,57.88,135.67,138.25c0.05,7.56-0.56,14.96-1.77,22.15L1418.73,358.19z"/>
		<path class="st8" d="M2122.89,144.8H2171l12.92-57.29h-48.1L2155.55,0h-66.9l-58.77,260.66c0,0-1.32,5.94-1.78,7.91
			c-10.69,45.62,1.2,90.21,60.47,90.21c0,0,7.19,0,8.48,0l32.21-57.29h-28.05c-11.86,0-10.97-11.99-8.13-24.45
			C2100.18,245.99,2122.89,144.8,2122.89,144.8z"/>
		<path class="st8" d="M2269.15,144.8h48.11l12.92-57.29h-48.1L2301.8,0h-66.9l-58.77,260.66c0,0-1.32,5.94-1.78,7.91
			c-10.69,45.62,1.2,90.21,60.47,90.21c0,0,7.19,0,8.48,0l32.21-57.29h-28.05c-11.86,0-10.97-11.99-8.13-24.45
			C2246.43,245.99,2269.15,144.8,2269.15,144.8z"/>
		<path class="st8" d="M1137.06,358.41c-47.47-4.52-89.8-24.77-117.7-56.68c-28.21-32.27-40.54-73.88-35.65-120.34
			c15.78-150.09,147-180.64,254.9-179.71l-13.84,61.76c-146.95,2.43-173.85,68.93-179.68,124.4
			c-7.61,72.4,48.27,107.22,105.71,109.67L1137.06,358.41z"/>
		<path class="st8" d="M2981.7,87.51l-61.17,271.27h66.94c11.71-51.92,41.17-182.7,61.12-271.27H2981.7z"/>
		<g>
			<path class="st8" d="M3298.78,57.29C3306.33,23.79,3311.69,0,3311.69,0h-66.87l-12.93,57.29H3298.78z"/>
			<path class="st8" d="M3225.08,87.51l-61.16,271.27h66.94c11.71-51.92,41.17-182.7,61.11-271.27H3225.08z"/>
		</g>
		<g>
			<path class="st8" d="M3633.88,87.51l-61.17,271.27h66.94c11.71-51.92,41.17-182.7,61.12-271.27H3633.88z"/>
		</g>
		<path class="st8" d="M3692.3,87.51l-12.93,57.29h75.33c9.23,0,16.07,8.56,14.04,17.56l-44.29,196.41h66.94
			c9.03-40.03,28.66-127.14,46.27-205.32c7.62-33.81-18.1-65.95-52.76-65.95H3692.3z"/>
		<g>
			<path class="st8" d="M3026.06,0h-24.63h-27.04c-21.35,0-41.2,10.95-52.6,29l-208.16,329.78h85.96l190.29-301.48h65.5
				C3062.94,23.79,3068.3,0,3068.3,0H3026.06z"/>
		</g>
		<path class="st8" d="M2406,282.43l199.77-97.79c-12.04-64.84-62.95-109.09-132.95-109.09c-80.07,0-147.27,58.18-154.27,138.25
			c-7.01,80.07,52.22,144.97,132.29,144.97c12.96,0,25.87-1.63,38.4-4.72c1.38-0.34,2.74-0.7,4.11-1.07l16.93-75.07
			c-17.36,12.17-38.58,19.14-59.44,19.14C2433.82,297.06,2418.27,291.93,2406,282.43z M2380.02,219.18
			c4.09-46.7,43.98-81.91,92.79-81.91c24.75,0,44.44,8.8,57.26,24.52l-149.91,73.38C2379.6,229.99,2379.55,224.64,2380.02,219.18z"
			/>
		<path class="st8" d="M1823.92,282.43l199.77-97.79c-12.04-64.84-62.95-109.09-132.95-109.09c-80.07,0-147.27,58.18-154.27,138.25
			c-7.01,80.07,52.22,144.97,132.29,144.97c12.96,0,25.87-1.63,38.4-4.72c1.37-0.34,2.74-0.7,4.11-1.07l16.93-75.07
			c-17.36,12.17-38.58,19.14-59.44,19.14C1851.75,297.06,1836.2,291.93,1823.92,282.43z M1797.95,219.18
			c4.09-46.7,43.98-81.91,92.79-81.91c24.75,0,44.44,8.8,57.26,24.52l-149.91,73.38C1797.52,229.99,1797.47,224.64,1797.95,219.18z"
			/>
	</g>
	<g>
		<path class="st8" d="M909.17,151.03h-8.55l3.58-15.88l3.51-15.56h-15.95h-24.49c-6.12,0-11.47,0.44-16.11,1.14l0.26-1.14h-15.95
			h-35.91h-10.2l-2.25,9.95l-7.01,31.1l-3.35,14.84c-1.12-1.82-2.34-3.6-3.7-5.3c-2.05-2.57-4.33-4.89-6.77-6.98
			c-1.29-8.83-4.88-17.26-10.64-24.46c-9.73-12.17-24.25-19.15-39.84-19.15h-55.55c-31.22,0-57.82,21.27-64.69,51.73l-0.94,4.16
			c-1.12-1.83-2.34-3.6-3.7-5.3c-2.05-2.57-4.33-4.89-6.77-6.98c-1.29-8.83-4.88-17.27-10.64-24.46
			c-9.73-12.17-24.25-19.15-39.84-19.15h-14.54h-6.53h-9.1c-6.12,0-11.47,0.44-16.12,1.14l0.26-1.14h-15.95h-35.91h-10.2l-2.24,9.95
			l-1.78,7.91l-3.06,13.59h-1.22h-8.55l3.58-15.88l3.51-15.56h-15.95h-35.91h-10.2l-2.24,9.95l-22.25,98.71
			c-0.99,4.39-4.83,7.46-9.33,7.46h-10.05l15.58-69.12l3.51-15.56h-15.95h-8.55l3.58-15.88l3.51-15.56h-15.95h-35.91h-10.2
			l-2.01,8.91c-1.11-1.81-2.33-3.57-3.67-5.26c-2.06-2.58-4.35-4.92-6.81-7.02c-1.28-8.81-4.87-17.23-10.6-24.42
			c-9.73-12.2-24.27-19.2-39.87-19.2H89.8c-31.22,0-57.82,21.27-64.69,51.72l-3.75,16.62c-3.64,16.15,0.2,32.84,10.54,45.77
			c1.92,2.41,4.02,4.62,6.27,6.63c1.51,8.95,5.28,17.48,11.14,24.81c0.46,0.57,0.92,1.12,1.4,1.67h-1.04h-35.9H3.62l-2.27,9.9
			l-0.07,0.32c-3.44,15.25,0.18,30.95,9.91,43.12c2.05,2.57,4.33,4.89,6.77,6.98c1.29,8.83,4.88,17.27,10.64,24.46
			c9.73,12.17,24.26,19.15,39.84,19.15h96.77c31.15,0,57.74-21.21,64.66-51.58l0.98-4.29c1.11,1.82,2.34,3.58,3.69,5.27
			c2.05,2.57,4.33,4.89,6.77,6.98c1.29,8.83,4.88,17.27,10.64,24.46c9.73,12.17,24.25,19.15,39.84,19.15h24.6
			c6.12,0,11.47-0.44,16.12-1.14l-0.26,1.14h15.95h35.91h10.2l2.24-9.95l1.31-5.82h1.22h8.55l-0.05,0.21l-3.51,15.56l-0.02,0.11
			l-3.51,15.56h15.95h35.9h10.19l2.25-9.94l3.52-15.55c5.49,1.33,12.41,2.21,21.11,2.21h35.19c30.07,0,55.84-19.73,63.84-48.4
			c1.14,1.87,2.38,3.68,3.77,5.42c2.05,2.57,4.33,4.89,6.77,6.98c1.29,8.83,4.88,17.26,10.64,24.46
			c9.73,12.17,24.25,19.15,39.84,19.15h55.55c23.68,0,44.69-12.24,56.46-31.44h4.87h8.55l-3.58,15.88l-3.51,15.56h15.95h35.91h10.2
			l2.24-9.95l2.85-12.65l15.39-68.24l0.81-3.58l3.21-14.23c0.99-4.39,4.83-7.46,9.33-7.46h38.45h10.2l2.24-9.95l7.01-31.1
			l3.51-15.56H909.17z M223.85,132.11l-0.05,0.23h-35.51l0.07-0.33c1.8-7.97-4.27-15.56-12.44-15.56H93.71
			c-10.43,0-19.47,7.23-21.77,17.41l-2.14,9.49c-2.3,10.18,5.44,19.85,15.88,19.85h18.92h71.64c0.69,0,1.37,0.02,2.04,0.07
			c0.2,0.01,0.39,0.04,0.59,0.05c0.48,0.04,0.96,0.08,1.43,0.14c0.21,0.03,0.42,0.06,0.63,0.09c0.46,0.07,0.91,0.14,1.36,0.22
			c0.2,0.04,0.39,0.08,0.59,0.12c0.46,0.1,0.92,0.2,1.38,0.31c0.17,0.04,0.34,0.09,0.51,0.14c0.48,0.13,0.96,0.27,1.43,0.42
			c0.14,0.04,0.28,0.09,0.42,0.14c0.5,0.17,1,0.35,1.49,0.54c0.1,0.04,0.2,0.08,0.3,0.12c0.54,0.22,1.06,0.45,1.58,0.69
			c0.06,0.03,0.11,0.05,0.17,0.08c0.58,0.27,1.14,0.56,1.7,0.87c0,0,0,0,0,0v0c12.23,6.71,19.48,20.99,16.11,35.79l-7.96,34.92
			c-5.55,24.37-27.23,41.66-52.22,41.66H51.02c-13.85,0-25.68-7.26-32.38-17.88c0,0,0,0,0,0c-0.04-0.06-0.07-0.11-0.1-0.17
			c-0.47-0.76-0.91-1.54-1.33-2.33c-0.14-0.26-0.28-0.51-0.41-0.78c-0.16-0.31-0.3-0.63-0.45-0.95c-0.13-0.28-0.26-0.55-0.38-0.83
			c-0.14-0.32-0.27-0.63-0.4-0.95c-0.12-0.29-0.23-0.58-0.35-0.88c-0.12-0.32-0.24-0.63-0.35-0.95c-0.11-0.31-0.21-0.62-0.31-0.93
			c-0.1-0.31-0.2-0.63-0.29-0.94c-0.1-0.33-0.18-0.67-0.27-1c-0.08-0.3-0.16-0.6-0.23-0.9c-0.1-0.4-0.18-0.81-0.26-1.22
			c-0.05-0.24-0.11-0.48-0.15-0.72c-0.12-0.64-0.21-1.28-0.3-1.92c-0.03-0.25-0.05-0.51-0.08-0.76c-0.05-0.42-0.09-0.84-0.12-1.26
			c-0.02-0.28-0.03-0.56-0.05-0.84c-0.02-0.4-0.04-0.8-0.05-1.21c-0.01-0.29-0.01-0.58,0-0.87c0-0.4,0.01-0.81,0.02-1.22
			c0.01-0.29,0.02-0.58,0.04-0.86c0.02-0.42,0.06-0.84,0.1-1.27c0.03-0.27,0.05-0.55,0.08-0.82c0.05-0.47,0.12-0.93,0.19-1.4
			c0.03-0.23,0.06-0.46,0.1-0.69c0.12-0.7,0.25-1.4,0.41-2.11l0.07-0.32h35.9l-0.07,0.33c-1.8,7.97,4.27,15.56,12.44,15.56h82.21
			c0.43,0,0.85-0.02,1.27-0.04c0.11-0.01,0.22-0.01,0.33-0.02c0.38-0.03,0.76-0.06,1.14-0.11c0.04,0,0.08-0.01,0.11-0.01
			c0.41-0.05,0.82-0.12,1.23-0.2c0.1-0.02,0.19-0.04,0.29-0.06c0.36-0.07,0.72-0.15,1.08-0.24c0.05-0.01,0.1-0.02,0.15-0.04
			c0.4-0.1,0.8-0.22,1.2-0.35c0.07-0.02,0.15-0.05,0.22-0.07c0.36-0.12,0.71-0.24,1.06-0.38c0.05-0.02,0.09-0.03,0.14-0.05
			c0.39-0.16,0.78-0.32,1.17-0.5c0.04-0.02,0.09-0.04,0.13-0.06c0.36-0.17,0.71-0.35,1.06-0.53c0.04-0.02,0.07-0.04,0.11-0.06
			c0.38-0.21,0.76-0.43,1.13-0.66c0,0,0.01,0,0.01-0.01c0.37-0.23,0.73-0.47,1.08-0.72c0.02-0.02,0.04-0.03,0.07-0.05
			c0.72-0.51,1.41-1.07,2.06-1.67c0.01-0.01,0.02-0.02,0.03-0.03c0.66-0.6,1.29-1.25,1.87-1.93c0,0,0-0.01,0.01-0.01
			c0.59-0.69,1.14-1.41,1.64-2.17l0,0c1.48-2.22,2.58-4.73,3.19-7.45l3.81-16.89c2.29-10.18-5.44-19.85-15.88-19.85H74.23
			c-15.49,0-28.64-8.39-35.76-20.51v0c0,0,0,0,0,0c-0.3-0.52-0.6-1.05-0.88-1.58c-0.03-0.05-0.05-0.1-0.08-0.14
			c-0.28-0.53-0.54-1.06-0.8-1.6c-0.01-0.02-0.02-0.04-0.03-0.06c-1.01-2.16-1.84-4.41-2.48-6.74c-0.05-0.17-0.1-0.34-0.14-0.52
			c-0.12-0.45-0.22-0.9-0.32-1.35c-0.05-0.24-0.1-0.48-0.15-0.72c-0.09-0.42-0.17-0.85-0.24-1.28c-0.05-0.28-0.09-0.57-0.13-0.85
			c-0.06-0.4-0.12-0.8-0.17-1.21c-0.04-0.38-0.07-0.75-0.11-1.13c-0.05-0.53-0.09-1.07-0.11-1.61c-0.02-0.47-0.05-0.94-0.05-1.41
			c0-0.3,0-0.61,0-0.91c0-0.44,0.01-0.87,0.02-1.31c0.01-0.3,0.03-0.61,0.05-0.92c0.03-0.45,0.06-0.9,0.1-1.36
			c0.03-0.29,0.05-0.58,0.09-0.87c0.06-0.5,0.13-1,0.2-1.5c0.04-0.25,0.07-0.49,0.11-0.74c0.13-0.75,0.27-1.49,0.44-2.24l3.75-16.62
			c5.51-24.43,27.21-41.78,52.25-41.78h96.75c0.69,0,1.36,0.02,2.04,0.06c0.15,0.01,0.29,0.01,0.44,0.02
			c0.66,0.04,1.31,0.1,1.95,0.17c0.11,0.01,0.22,0.03,0.32,0.04c0.58,0.07,1.16,0.16,1.74,0.25c0.12,0.02,0.23,0.04,0.35,0.06
			c0.63,0.11,1.25,0.24,1.86,0.38c0.14,0.03,0.28,0.07,0.42,0.1c0.59,0.14,1.18,0.3,1.76,0.47c0.04,0.01,0.09,0.02,0.13,0.04
			c0.6,0.18,1.2,0.38,1.78,0.59c0.15,0.05,0.3,0.1,0.44,0.16c0.57,0.21,1.14,0.43,1.7,0.67c0.11,0.05,0.22,0.1,0.33,0.14
			c0.48,0.21,0.96,0.43,1.43,0.66c0.13,0.07,0.27,0.13,0.4,0.2c0.53,0.26,1.04,0.54,1.55,0.82c0.15,0.08,0.29,0.17,0.44,0.25
			c0.45,0.26,0.89,0.52,1.32,0.8c0.09,0.06,0.19,0.12,0.29,0.18c0.48,0.31,0.96,0.64,1.43,0.97c0.16,0.11,0.31,0.22,0.47,0.34
			c0.45,0.33,0.9,0.67,1.34,1.03c0.13,0.1,0.25,0.21,0.37,0.31c0.35,0.29,0.69,0.58,1.03,0.88c0.15,0.13,0.3,0.26,0.45,0.4
			c0.4,0.37,0.79,0.74,1.18,1.12c0.15,0.15,0.3,0.3,0.45,0.46c0.3,0.31,0.59,0.62,0.88,0.93c0.14,0.15,0.28,0.3,0.41,0.45
			c0.34,0.39,0.67,0.78,0.99,1.18c0.15,0.18,0.29,0.36,0.44,0.55c0.3,0.38,0.59,0.77,0.88,1.17c0.14,0.2,0.28,0.4,0.42,0.6
			c0.23,0.33,0.45,0.65,0.66,0.99c0.13,0.2,0.26,0.4,0.39,0.6c0.28,0.44,0.54,0.89,0.8,1.34c0.12,0.21,0.23,0.42,0.34,0.62
			c0.18,0.34,0.36,0.68,0.54,1.02C224.55,113.98,225.93,122.96,223.85,132.11z M395.66,151.03L395.66,151.03l-15.43,68.43l-6.54,29
			l-7.01,31.1h-35.91l1.75-7.76c0,0-9.13,7.76-33.56,7.76h-24.6c-14.66,0-27.05-8.13-33.5-19.78c-0.06-0.12-0.12-0.24-0.19-0.35
			c-0.29-0.53-0.56-1.07-0.83-1.61c-0.08-0.16-0.15-0.32-0.22-0.48c-0.24-0.52-0.47-1.03-0.68-1.56c-0.07-0.17-0.14-0.35-0.21-0.52
			c-0.21-0.53-0.4-1.05-0.59-1.59c-0.06-0.17-0.12-0.35-0.17-0.52c-0.18-0.55-0.35-1.11-0.5-1.67c-0.04-0.16-0.09-0.32-0.13-0.48
			c-0.16-0.59-0.29-1.19-0.42-1.79c-0.03-0.13-0.06-0.27-0.09-0.4c-0.13-0.65-0.24-1.3-0.34-1.96c-0.01-0.09-0.03-0.18-0.04-0.27
			c-0.1-0.75-0.19-1.5-0.25-2.26c0,0,0,0,0-0.01v0c-0.29-3.71-0.04-7.55,0.83-11.41l1.85-8.22c0,0,0,0,0,0l10.85-48.14l0,0
			l9.96-44.19h35.91l-22.67,100.56c-1.8,7.97,4.27,15.56,12.44,15.56h21.62h12.92c10.43,0,19.48-7.23,21.77-17.41l22.25-98.71h35.91
			L395.66,151.03z M570.99,179.02l-11.53,51.16c-5.51,24.43-27.21,41.78-52.25,41.78h-35.19c-24.5,0-30.05-7.76-30.05-7.76
			l-2.43,10.75l-1.04,4.63h0v0h0l-3.54,15.67h-24.47h-9.77h-1.66l3.54-15.67h-0.01v0l5.42-24.04l20.76-92.07l2.8-12.42l0,0
			l2.43-10.78l1.78-7.91h35.91l-1.75,7.76c0,0,9.13-7.76,33.56-7.76h9.1h6.53h14.54c0.68,0,1.36,0.02,2.04,0.06
			c0.15,0.01,0.29,0.01,0.44,0.02c0.66,0.04,1.31,0.1,1.95,0.17c0.11,0.01,0.21,0.03,0.32,0.04c0.58,0.07,1.16,0.16,1.73,0.25
			c0.12,0.02,0.24,0.04,0.35,0.06c0.63,0.11,1.24,0.24,1.86,0.38c0.14,0.03,0.28,0.07,0.42,0.1c0.58,0.14,1.16,0.29,1.73,0.46
			c0.05,0.01,0.1,0.03,0.15,0.04c0.6,0.18,1.19,0.38,1.77,0.58c0.15,0.05,0.3,0.11,0.45,0.16c0.57,0.21,1.13,0.43,1.69,0.66
			c0.11,0.05,0.22,0.1,0.33,0.15c0.48,0.21,0.95,0.42,1.41,0.65c0.14,0.07,0.28,0.14,0.43,0.21c0.52,0.26,1.03,0.53,1.54,0.82
			c0.15,0.09,0.31,0.17,0.46,0.26c0.43,0.25,0.85,0.5,1.27,0.76c0.11,0.07,0.23,0.14,0.34,0.21c0.48,0.31,0.94,0.63,1.4,0.96
			c0.17,0.12,0.33,0.24,0.49,0.36c0.45,0.33,0.89,0.66,1.32,1.01c0.13,0.11,0.26,0.22,0.39,0.33c0.33,0.28,0.66,0.56,0.99,0.85
			c0.16,0.14,0.33,0.29,0.48,0.43c0.39,0.36,0.78,0.72,1.15,1.1c0.16,0.16,0.32,0.32,0.48,0.49c0.27,0.28,0.54,0.57,0.81,0.86
			c0.16,0.17,0.31,0.34,0.46,0.51c0.33,0.38,0.65,0.76,0.97,1.15c0.16,0.2,0.32,0.39,0.47,0.59c0.26,0.33,0.51,0.66,0.75,0.99
			c0.19,0.26,0.37,0.52,0.55,0.78c0.21,0.3,0.42,0.61,0.62,0.92c0.14,0.22,0.29,0.44,0.42,0.66c0.27,0.43,0.52,0.86,0.77,1.29
			c0.13,0.22,0.25,0.45,0.37,0.68c0.17,0.3,0.33,0.61,0.49,0.92c0.11,0.22,0.23,0.45,0.34,0.67c0,0,0,0,0,0l0,0
			C571.74,161.4,573,170.12,570.99,179.02z M753.13,179.02l-1.61,7.12c-4.85,21.52-23.97,36.81-46.04,36.81h-72.52l-2.25,9.94
			c-1.81,7.98,4.26,15.57,12.44,15.57h42.13c9.52,0,17.77-6.6,19.87-15.89h35.91l-1.17,5.21c-5.51,24.43-27.21,41.78-52.25,41.78
			h-55.55c-14.66,0-27.06-8.14-33.5-19.79c-0.07-0.14-0.14-0.27-0.22-0.41c-0.28-0.52-0.55-1.04-0.8-1.56
			c-0.09-0.19-0.17-0.38-0.26-0.57c-0.22-0.49-0.44-0.98-0.64-1.47c-0.09-0.22-0.17-0.43-0.26-0.65c-0.19-0.48-0.37-0.96-0.53-1.45
			c-0.08-0.23-0.15-0.46-0.23-0.69c-0.16-0.49-0.3-0.99-0.44-1.48c-0.06-0.23-0.13-0.46-0.19-0.69c-0.13-0.52-0.25-1.04-0.36-1.56
			c-0.05-0.22-0.1-0.43-0.14-0.65c-0.11-0.58-0.21-1.16-0.29-1.74c-0.02-0.17-0.05-0.33-0.08-0.5c-0.57-4.34-0.41-8.87,0.62-13.45
			l7.31-32.43c0,0,0,0,0,0l5.94-26.33c5.51-24.43,27.21-41.78,52.25-41.78h55.55c0.68,0,1.36,0.02,2.04,0.06
			c0.15,0.01,0.29,0.01,0.44,0.02c0.65,0.04,1.3,0.1,1.95,0.17c0.11,0.01,0.21,0.03,0.32,0.04c0.58,0.07,1.16,0.16,1.73,0.25
			c0.12,0.02,0.24,0.04,0.36,0.06c0.62,0.11,1.24,0.24,1.85,0.38c0.14,0.03,0.29,0.07,0.43,0.1c0.58,0.14,1.16,0.29,1.73,0.46
			c0.05,0.02,0.11,0.03,0.16,0.04c0.6,0.18,1.19,0.38,1.77,0.58c0.15,0.05,0.31,0.11,0.46,0.16c0.57,0.21,1.13,0.43,1.68,0.66
			c0.11,0.05,0.23,0.1,0.34,0.15c0.47,0.21,0.94,0.42,1.4,0.65c0.14,0.07,0.29,0.14,0.43,0.21c0.52,0.26,1.03,0.53,1.53,0.81
			c0.16,0.09,0.31,0.18,0.47,0.27c0.42,0.24,0.84,0.5,1.25,0.76c0.12,0.07,0.23,0.14,0.35,0.22c0.47,0.31,0.94,0.62,1.39,0.95
			c0.17,0.12,0.34,0.24,0.51,0.37c0.44,0.33,0.88,0.66,1.31,1c0.14,0.11,0.27,0.23,0.41,0.34c0.33,0.27,0.65,0.55,0.97,0.83
			c0.17,0.15,0.33,0.29,0.5,0.44c0.39,0.36,0.77,0.72,1.14,1.09c0.17,0.16,0.33,0.33,0.49,0.5c0.27,0.28,0.53,0.56,0.79,0.84
			c0.17,0.18,0.34,0.37,0.5,0.55c0.32,0.36,0.63,0.73,0.94,1.11c0.16,0.2,0.32,0.4,0.48,0.6c0.25,0.32,0.49,0.64,0.73,0.97
			c0.2,0.27,0.39,0.54,0.58,0.81c0.2,0.29,0.41,0.59,0.6,0.89c0.15,0.22,0.29,0.45,0.43,0.67c0.26,0.42,0.52,0.85,0.77,1.28
			c0.13,0.23,0.26,0.46,0.38,0.69c0.16,0.3,0.32,0.6,0.47,0.9C753.79,160.86,755.2,169.85,753.13,179.02z M887.55,151.03
			L887.55,151.03l-2.8,12.42H846.3c-10.43,0-19.47,7.23-21.77,17.41l-3.21,14.23l-0.81,3.59l-15.39,68.24l-2.85,12.65H777.8h-10.24
			h-1.18l17.83-79.1c0,0,0,0,0,0l8.35-37.02h0l7.01-31.1h0.01h35.91l-1.75,7.76c0,0,9.13-7.76,33.55-7.76h24.49L887.55,151.03z"/>
		<path class="st8" d="M503.3,240.85c10.43,0,19.48-7.23,21.77-17.41l3.56-15.8l0,0l6.46-28.64c1.8-7.97-4.26-15.56-12.44-15.56
			h-6.86h-4.6h-28.67c-10.43,0-19.47,7.23-21.77,17.41l-1.72,7.64l-8.3,36.8c-1.8,7.97,4.27,15.56,12.44,15.56h21.61H503.3z
			 M488.89,222.74l1.72-7.64c0.99-4.39,4.83-7.46,9.33-7.46h15.62l-2.93,13c-0.99,4.39-4.83,7.46-9.33,7.46h-15.62L488.89,222.74z"
			/>
		<path class="st8" d="M717.26,178.84c1.78-7.89-4.22-15.39-12.3-15.39h-40.69c-10.43,0-19.46,7.22-21.77,17.39l-2.49,11.01h60.98
			C708.79,191.85,715.55,186.45,717.26,178.84z"/>
	</g>
</g>
</svg>
