<?xml version="1.0" encoding="utf-8"?>
<!-- Generator: Adobe Illustrator 25.1.0, SVG Export Plug-In . SVG Version: 6.00 Build 0)  -->
<svg version="1.1" id="Layer_1" xmlns="http://www.w3.org/2000/svg" xmlns:xlink="http://www.w3.org/1999/xlink" x="0px" y="0px"
	 viewBox="0 0 3839.5 1245" style="enable-background:new 0 0 3839.5 1245;" xml:space="preserve">
<style type="text/css">
	.st0{fill:#080E0E;}
	.st1{fill:#0084C9;}
	.st2{fill:#FFFFFF;}
</style>
<g>
	<g>
		<g>
			<path class="st2" d="M1260.7,84.6v27.5h-58.1c-3.4,0-6.2,2.8-6.2,6.2v30.2c0,3.4,2.8,6.2,6.2,6.2h52.1v27.5h-52.1
				c-3.4,0-6.2,2.8-6.2,6.2v64.9h-40.8V84.6H1260.7 M1266.9,78.5h-117.4v181h53.2v-71h58.3v-39.8h-58.3v-30.2h64.3V78.5L1266.9,78.5
				z"/>
		</g>
		<g>
			<path class="st2" d="M1504.4,84.6l28.8,168.6h-40.5l-14.2-98.9c-0.4-3-3-5.3-6.1-5.3h-0.5c-2.4,0-4.6,1.4-5.6,3.6L1419,253.3
				h-13.2l-45.3-100.5c-1-2.2-3.2-3.6-5.6-3.6h-0.6c-3,0-5.6,2.2-6.1,5.2l-16.2,99h-40.1l32.3-168.6h43.1l39.9,93
				c1,2.3,3.2,3.7,5.6,3.7c0,0,0,0,0.1,0c2.4,0,4.6-1.4,5.6-3.6l42.3-93.1H1504.4 M1509.7,78.5h-52.9l-43.9,96.7l-41.5-96.7H1319
				l-34.7,181h52.9l17.1-104.2h0.6l46.9,104.2h21.2l49.1-104.2h0.5l14.9,104.2h53.2L1509.7,78.5L1509.7,78.5z"/>
		</g>
		<g>
			<path class="st2" d="M1775.3,84.6v27.5h-37.7c-3.4,0-6.2,2.8-6.2,6.2v135h-40.8v-135c0-3.4-2.8-6.2-6.2-6.2h-37.7V84.6H1775.3
				 M1781.5,78.5h-141v39.8h43.9v141.1h53.2V118.3h43.9V78.5L1781.5,78.5z"/>
		</g>
		<g>
			<path class="st2" d="M1903.5,78.6c27.5,0,54.8,9,74.8,24.7c20.7,16.3,32.1,38.4,32.1,62.2c0,13.5-2.7,26.2-7.9,37.8
				c-5.1,11.2-12.5,21.1-21.9,29.5c-19.4,17-46.8,26.4-77.1,26.4c-30.3,0-57.7-9.4-77.1-26.4c-9.5-8.3-16.9-18.3-21.9-29.5
				c-5.2-11.6-7.9-24.3-7.9-37.8c0-23.8,11.4-45.9,32.1-62.2C1848.7,87.7,1876,78.6,1903.5,78.6 M1903.5,226c17.1,0,33.1-6,45-16.9
				c12.2-11.2,19-26.6,19-43.3c0-13.9-7-27.7-19.2-38c-12.2-10.3-28.1-16-44.8-16c-16.6,0-32.5,5.7-44.8,16
				c-12.2,10.3-19.2,24.1-19.2,38c0,16.7,6.7,32,19,43.3C1870.5,220,1886.5,226,1903.5,226 M1903.5,72.5
				c-58.8,0-113.1,38.4-113.1,93.1c0,58.6,47.5,99.9,113.1,99.9c65.6,0,113.1-41.3,113.1-99.9C2016.6,110.9,1962.4,72.5,1903.5,72.5
				L1903.5,72.5z M1903.5,219.8c-31.7,0-57.8-22.8-57.8-54c0-25,26-47.8,57.8-47.8c31.7,0,57.8,22.8,57.8,47.8
				C1961.3,197,1935.3,219.8,1903.5,219.8L1903.5,219.8z"/>
		</g>
		<g>
			<path class="st2" d="M2322.2,84.6l-60.9,168.6h-45.5l-34.4-100.7c-0.9-2.5-3.2-4.2-5.9-4.2h-0.5c-2.6,0-4.9,1.6-5.8,4
				l-38.6,100.9h-45.3l-56.8-168.6h42.1l34.2,112.5c0.8,2.6,3.2,4.4,5.9,4.4h0.5c2.6,0,4.9-1.6,5.8-4.1l41.4-112.8h33.6l38.7,112.7
				c0.9,2.5,3.2,4.2,5.9,4.2h0.5c2.7,0,5-1.7,5.9-4.3l37.1-112.6H2322.2 M2331,78.5L2331,78.5L2331,78.5z M2331,78.5h-55.3
				l-38.5,116.9h-0.5l-40.1-116.9h-42.3l-42.8,116.9h-0.5l-35.5-116.9H2020l61,181h54l40.1-104.9h0.5l35.8,104.9h54.2L2331,78.5
				L2331,78.5z"/>
		</g>
		<g>
			<path class="st2" d="M2542.4,84.6v168.6h-44.2l-95.5-108.8c-1.2-1.3-2.9-2.1-4.7-2.1h-0.5c-3.4,0-6.2,2.8-6.2,6.2v104.7h-40.8
				V84.6h44.2l95.5,108.6c1.2,1.3,2.9,2.1,4.6,2.1h0.6c3.4,0,6.2-2.8,6.2-6.2V84.6H2542.4 M2548.6,78.5h-53.2v110.7h-0.6
				l-97.4-110.7h-53.2v181h53.2V148.5h0.5l97.4,110.9h53.2V78.5L2548.6,78.5z"/>
		</g>
		<g>
			<path class="st2" d="M2652.8,79.8c17.8,0,38.7,4.4,55.2,11.5l-14.5,24.9c-10.3-6.1-21.8-9.4-33.2-9.4c-14.2,0-29,8-29,21.3
				c0,8.7,6.2,14,11.4,17c5.4,3,11.8,4.9,16.5,6.2l0.1,0c0,0,0.1,0,0.1,0l13.6,3.6c32.1,8.4,45.8,21.4,45.8,43.5
				c0,19.7-6.3,34.5-18.7,43.8c-13.6,10.2-32.9,15.8-54.3,15.8c-21.8,0-44-5.9-63.3-16.6l16.1-26.7c15.3,10.7,30.3,15.9,45.4,15.9
				c18.8,0,31.9-10,31.9-24.4c0-8-4.8-14.5-14.3-19.3c-6.8-3.4-15-5.5-20.9-7l-1.7-0.4c-14.9-3.7-29-7.7-37.9-14.5
				c-8.8-6.7-12.7-16.1-12.7-30.6c0-16,6.1-29.6,17.7-39.4C2617.7,85.2,2634.2,79.8,2652.8,79.8 M2652.8,73.7
				c-40.9,0-70.5,24-70.5,60.7c0,35,22,42.7,55.3,51.1c11.4,2.9,32.3,7.4,32.3,20.6c0,12.7-13.3,18.2-25.8,18.2
				c-18.2,0-33.9-8.4-47.2-18.7l-22.8,37.9c20.9,13,46.1,20.6,71.9,20.6c20.6,0,42-5,58-17c16.3-12.2,21.1-30.7,21.1-48.7
				c0-29.3-22-42-50.4-49.4l-13.6-3.6c-9.2-2.6-23.6-6.7-23.6-17.3c0-10.1,13-15.1,22.8-15.1c13,0,25.5,4.8,35.3,12l21.2-36.5
				C2698.6,79.4,2673.4,73.7,2652.8,73.7L2652.8,73.7z"/>
		</g>
	</g>
	<g>
		<g>
			<path class="st2" d="M1533.9,359.4c32.1,0,63.4,11.4,88,32c24.6,20.7,41.3,49.5,46.8,81.1l79.3,449.6c3.6,20.6-2,41.7-15.5,57.8
				c-13.5,16.1-33.2,25.3-54.2,25.3h-89c-0.1,0-0.2,0-0.3,0l-326.5,0c-42.4,0-80.7-13.5-110.9-38.9c-27.5-23.2-47.5-55.9-56.5-92.3
				c-9-36.4-6.4-74.7,7.2-108c14.9-36.6,42.7-66.3,80.2-86L1407,562.3L1513.5,688l-215.1,112.8c-13.4,7-19.9,21.5-16.3,36.2
				c3.6,14.6,16.2,24.5,31.2,24.5h246.1c3.7,0,7.1-1.6,9.5-4.4c2.4-2.8,3.3-6.5,2.7-10.1L1544,690.2c-0.1-0.4-0.2-0.8-0.3-1.2
				c0-0.4-0.1-0.8-0.2-1.2L1519.3,550c-4.8-27.1-28.3-46.8-55.8-46.8h-321.1V359.4h355.3H1533.9 M1533.9,347h-36.3h-367.7v168.6
				h333.5c21.5,0,39.9,15.4,43.6,36.6l24.3,137.7L1410,546.8l-233.2,122.3c-171,89.7-107.3,348.5,85.8,348.5c0,0,0,0,0,0l326.5,0
				l0,0h89.3c51.7,0,90.8-46.7,81.9-97.6L1681,470.4C1668.4,399.1,1606.4,347,1533.9,347L1533.9,347z M1313.3,849
				c-20.7,0-27.5-27.7-9.2-37.3l227.7-119.4l27.6,156.7H1313.3L1313.3,849z"/>
		</g>
		<g>
			<path class="st2" d="M536.2,359.4c10.6,0,20.6,4,28.2,11.4c7.6,7.3,12,17.2,12.4,27.8l8.9,254.1c0.2,5.6,4.1,10.4,9.6,11.6
				c0.9,0.2,1.9,0.3,2.8,0.3c4.5,0,8.7-2.5,10.9-6.6l125.2-235.5c20.7-38.9,61-63.1,105.1-63.1l114.1,0c22.4,0,40.6,18.2,40.6,40.6
				v605.3H833.2l0-377c0-5.7-3.9-10.6-9.4-12c-1-0.2-2-0.4-3-0.4c-4.5,0-8.7,2.5-10.9,6.6l-203.5,382.8l-169.2,0l-12.8-367.7
				c-0.2-5.6-4.1-10.4-9.6-11.6c-0.9-0.2-1.9-0.3-2.8-0.3c-4.5,0-8.7,2.5-10.9,6.6l-198.4,373.1l-182,0l309.8-582.7
				c20.7-38.9,61-63.1,105-63.1H536.2 M536.2,347H435.5c-48.6,0-93.2,26.8-116,69.7L0,1017.6l210.1,0L411.9,638l13.3,379.6l188.6,0
				l207-389.4l0,389.4h185.5V400c0-29.2-23.7-53-53-53l-114.1,0c-48.6,0-93.2,26.8-116,69.7L598,652.2l-8.9-254.1
				C588.1,369.6,564.7,347,536.2,347L536.2,347z"/>
		</g>
		<g>
			<path class="st2" d="M2578.7,359.4l545.5,0v143.8h-180.1c-6.8,0-12.4,5.5-12.4,12.4v489.6h-160.7V515.6c0-6.8-5.5-12.4-12.4-12.4
				h-180V359.4 M2566.3,347v168.6h192.3v502h185.5v-502h192.5V347L2566.3,347L2566.3,347z"/>
		</g>
		<rect x="3188.7" y="347" class="st2" width="185.5" height="84.3"/>
		<g>
			<path class="st2" d="M3821.7,359.4l-198.9,532.3c-12.5,33.5-34.7,62-64,82.4c-29.4,20.4-63.8,31.2-99.6,31.2l-247.1,0V861.4
				l197,0c15.8,0,31-4.8,43.9-13.7c13-9,22.7-21.5,28.2-36.3l11.3-30.4c1.3-3.5,1-7.4-0.9-10.6c-1.9-3.2-5.1-5.4-8.8-6
				c-37.9-5.6-73.8-16.8-106.8-33.2c-34.3-17.1-64.5-39.4-89.7-66.4c-26.8-28.6-47.6-62.1-61.9-99.6
				c-14.1-36.9-21.8-77.8-23.1-121.5h160.9c2.7,48.9,21.6,90.2,55.1,120c16.2,14.4,35.3,25.6,56.7,33.2c20.5,7.3,42.2,11,64.4,11
				c3.7,0,7.5-0.1,11.2-0.3c4.9-0.3,9.2-3.4,10.9-8l89.7-240H3821.7 M3839.5,347L3839.5,347L3839.5,347z M3839.5,347h-198l-92.7,248
				c-3.5,0.2-7,0.3-10.5,0.3c-82.1,0-164.2-54.6-164.2-164.1h-185.5c0,207.5,138.5,322.6,292.3,345.4l-11.3,30.4
				c-9.4,25.3-33.6,42-60.6,42l-209.4,0v168.6l259.5,0c78,0,147.9-48.5,175.2-121.6L3839.5,347L3839.5,347z"/>
		</g>
		<g>
			<path class="st2" d="M1913.8,347L1913.8,347L1913.8,347 M2379.2,357c30.2,0,58.3,9,81.3,26.1c21.3,15.9,37.5,37.9,46.8,63.7
				c9.4,25.9,11,53.3,4.8,79.3c-6.7,27.8-22.3,52.6-45.2,71.6c-0.2,0.2-0.4,0.4-0.7,0.6c-45.1,43.3-98.4,83.2-162.9,121.7
				c-3.3,2-5.5,5.3-5.9,9.1s0.8,7.6,3.5,10.3l368.3,368.3l-113.6,113.6L2034.1,700c-2.4-2.4-5.5-3.6-8.8-3.6c-1.6,0-3.2,0.3-4.7,0.9
				c-4.6,1.9-7.6,6.4-7.6,11.4v296.5h-160.7V359.4h49.1c0.1,0,0.2,0,0.3,0l476.6-2.4L2379.2,357 M2025.4,695.5c1.5,0,3-0.3,4.4-0.8
				c104.5-40,185.9-85.3,263.8-146.9c8.6-6.5,12-17.3,8.6-27.6c-3.4-10.3-12.7-17-23.6-17h-253.3c-6.8,0-12.4,5.5-12.4,12.4v167.6
				c0,4.1,2,7.9,5.4,10.2C2020.5,694.8,2022.9,695.5,2025.4,695.5 M2379.2,344.7c-0.3,0-0.5,0-0.8,0l-476.9,2.4v0h-61.5v670.6h185.5
				V708.7l530.1,530.1l131.1-131.1l-377-377c61-36.5,116.5-76.8,165.1-123.4C2580.2,519.6,2519.2,344.7,2379.2,344.7L2379.2,344.7z
				 M2025.4,683.1V515.6h253.3c12,0,17,15.3,7.4,22.4C2208.4,599.4,2127.6,644,2025.4,683.1L2025.4,683.1z"/>
		</g>
	</g>
	<g>
		<rect x="1839.9" y="271.7" class="st2" width="185.5" height="670.6"/>
		<polygon class="st2" points="2686.7,1032.4 2555.5,1163.5 2017.6,625.6 2190.8,536.5 		"/>
		<path class="st2" d="M1760.3,844.8L1681,395.1c-12.6-71.4-74.6-123.4-147.1-123.4h-36.3h-367.7v168.6h333.5
			c21.5,0,39.9,15.4,43.6,36.6l82.1,465.4l89.3,0C1730.1,942.3,1769.2,895.6,1760.3,844.8z"/>
		
			<rect x="2767.2" y="70.8" transform="matrix(-5.028520e-07 1 -1 -5.028520e-07 3207.4766 -2495.4775)" class="st2" width="168.6" height="570.3"/>
		<path class="st2" d="M1304.1,736.4l228.8-120l-122.9-145l-233.2,122.3c-171,89.7-107.3,348.5,85.8,348.5l404.6,0V773.7h-354
			C1292.6,773.7,1285.8,746,1304.1,736.4z"/>
		<path class="st2" d="M723.2,341.4L598,576.9l-8.9-254.1c-1-28.5-24.4-51.1-52.9-51.1H435.5c-48.6,0-93.2,26.8-116,69.7L0,942.3
			l210.1,0l201.9-379.6l13.3,379.6l188.6,0l207-389.4l0,389.4h185.5V324.7c0-29.2-23.7-53-53-53l-114.1,0
			C790.6,271.7,746,298.5,723.2,341.4z"/>
		<rect x="2758.7" y="271.7" class="st2" width="185.5" height="670.6"/>
		<rect x="3188.7" y="271.7" class="st2" width="185.5" height="84.3"/>
		<path class="st2" d="M3839.5,271.7h-198l-92.7,248c-85.4,4.9-174.7-49.6-174.7-163.8h-185.5c0,207.5,138.5,322.6,292.3,345.4
			l-11.3,30.4c-9.4,25.3-33.6,42-60.6,42l-209.4,0v168.6l259.5,0c78,0,147.9-48.5,175.2-121.6L3839.5,271.7z"/>
		<path class="st2" d="M2467.9,537.5c115.2-85.8,54-268.8-89.6-268.1l-476.9,2.4v168.6h377.3c12,0,17,15.3,7.4,22.4"/>
		<path class="st2" d="M2286.1,462.7c-81,64-165.2,109.7-273.5,150c38.6,49,79.5,85.9,127.9,130.5
			c139.7-64.4,261.8-134.5,355.2-232.1"/>
	</g>
	<g>
		<g>
			<path class="st2" d="M1202.6,45.8v30.2h58.3v39.8h-58.3v71h-53.2V6h117.4v39.8H1202.6z"/>
			<path class="st2" d="M1319,6h52.3l41.5,96.7L1456.8,6h52.9l30.9,181h-53.2l-14.9-104.2h-0.5L1422.9,187h-21.2l-46.9-104.2h-0.6
				L1337.2,187h-52.9L1319,6z"/>
			<path class="st2" d="M1737.5,187h-53.2V45.8h-43.9V6h141v39.8h-43.9V187z"/>
			<path class="st2" d="M2016.6,93.1c0,58.6-47.5,99.9-113.1,99.9c-65.6,0-113.1-41.3-113.1-99.9c0-54.7,54.2-93.1,113.1-93.1
				C1962.4,0,2016.6,38.4,2016.6,93.1z M1845.8,93.4c0,31.2,26,54,57.8,54c31.7,0,57.8-22.8,57.8-54c0-25-26-47.8-57.8-47.8
				C1871.8,45.6,1845.8,68.4,1845.8,93.4z"/>
			<path class="st2" d="M2110.8,122.9h0.5L2154.2,6h42.3l40.1,116.9h0.5L2275.7,6h55.3l-65.4,181h-54.2l-35.8-104.9h-0.5L2134.9,187
				h-54L2020,6h55.3L2110.8,122.9z"/>
			<path class="st2" d="M2344.4,6h53.2l97.4,110.7h0.6V6h53.2v181h-53.2l-97.4-110.9h-0.5V187h-53.2V6z"/>
			<path class="st2" d="M2695.6,52.6c-9.8-7.2-22.2-12-35.3-12c-9.8,0-22.8,5-22.8,15.1c0,10.6,14.4,14.6,23.6,17.3l13.6,3.6
				c28.5,7.4,50.4,20.2,50.4,49.4c0,18-4.9,36.5-21.1,48.7c-16,12-37.4,17-58,17c-25.8,0-51-7.7-71.9-20.6l22.8-37.9
				c13.3,10.3,29,18.7,47.2,18.7c12.5,0,25.8-5.5,25.8-18.2c0-13.2-20.9-17.8-32.3-20.6c-33.4-8.4-55.3-16.1-55.3-51.1
				c0-36.7,29.6-60.7,70.5-60.7c20.6,0,45.8,5.8,64,14.9L2695.6,52.6z"/>
		</g>
	</g>
</g>
</svg>
