<?xml version="1.0" encoding="utf-8"?>
<!-- Generator: Adobe Illustrator 25.2.3, SVG Export Plug-In . SVG Version: 6.00 Build 0)  -->
<svg version="1.1" id="Layer_1" xmlns="http://www.w3.org/2000/svg" xmlns:xlink="http://www.w3.org/1999/xlink" x="0px" y="0px"
	 viewBox="0 0 3839 1534.1" style="enable-background:new 0 0 3839 1534.1;" xml:space="preserve">
<style type="text/css">
	.st0{fill:#FFFFFF;}
</style>
<g>
	<g>
		<polygon class="st0" points="1286.5,763.1 1160.2,788.2 1178.3,670.2 1236,658.8 1263.8,653.2 1284,649.2 1291.9,597.7 
			1254.2,605.2 1243.9,607.3 1186.2,618.7 1203.7,505.1 1326.8,480.6 1342.2,477.6 1350.1,426.1 1296.9,436.7 1179.5,460 
			1163.6,463.2 1104.2,849.2 1141.9,841.7 1278.6,814.6 1303,809.7 1323.9,805.5 1331.9,754 1293.5,761.7 		"/>
		<polygon class="st0" points="1980.6,460.7 1932.6,470.2 1898.6,691.2 1946.6,681.6 		"/>
		<polygon class="st0" points="1780.1,594.2 1746,601 1741.7,628.7 1775.9,621.9 		"/>
		<path class="st0" d="M2300.4,611.2l166.2-33.1l9.1-1.8l7.9-51.5l-26.5,5.3l-21.5,4.3L2327.2,556c-7.4,1.5-14.1-4.9-12.9-12.4
			l3.4-22.3l116.3-23.1c33.3-6.6,58.9-33.4,64.1-67l4.8-31c3.4-21.8-16-40.3-37.6-36l-119.8,23.8c-33.3,6.6-58.9,33.4-64.1,67
			l-18.5,120.2C2259.5,597,2278.8,615.5,2300.4,611.2z M2328.6,450.5c0.9-5.7,5.2-10.2,10.8-11.3l95.2-18.9
			c9.3-1.9,17.6,6.1,16.2,15.5l0,0c-0.9,5.7-5.2,10.2-10.8,11.3l-114.4,22.8L2328.6,450.5z"/>
		<path class="st0" d="M1563,272.4l11.1-72.4c0.9-6.1-4.5-11.3-10.5-10.1l-72.8,14.5l-14.8,96.4l73.9-14.7
			C1556.7,284.7,1562,279.3,1563,272.4z"/>
		<polygon class="st0" points="1241.6,541.3 1238,564.7 1343.6,543.7 1321.8,685.4 1216.2,706.5 1211.9,734.1 1339.5,708.7 
			1363.5,552.9 1369.2,515.9 1329.4,523.9 		"/>
		<path class="st0" d="M2631.2,340.8c-72.1-45.2-175.9-83.9-300.1-111.8c-24.7-5.6-50.5-10.7-76.8-15.4l2.4-1.9l0,0l54.9-44.4
			c7.1-5.8,0.2-17-8.1-13.2l-55.7,25.2l-54,24.4l-17.2-2.4c-108-15-222.7-22.6-340.9-22.6l-4.9,0l4.1-26.6c0.1-0.9,0.8-1.6,1.7-1.8
			l53.9-10.7l-5.7,37.4l145.7-29l7.1-45.9c7.1-45.8-22.8-89.7-68-99.9c-12-2.7-24.4-2.8-36.7-0.4L1830,22.2
			c-58,11.5-105.5,51.8-127.6,104.9c-9.5-28.8-33.4-52-64.7-59c-12-2.7-24.4-2.8-36.7-0.4l-222.8,44.3l-17,110.4l-12.6,2.6
			c-145.2,29.7-267.3,72.3-353,123.2c-91.5,54.3-139.4,117.1-138.6,181.6c1,76.4,68.8,147,196,204.1l10.3,4.6L1041.5,881
			c-2.2,14.2,6.3,28.4,20.2,32.1c4.2,1.1,8.5,1.3,12.7,0.4L1609.9,807c-3.5,3.9-6,8.9-6.8,14.4l-17.3,112.2
			c-2.2,14.2,6.3,28.4,20.2,32.1c4.2,1.1,8.5,1.3,12.7,0.4l94.4-18.8c59.8-11.9,111.5-45.9,146.5-93l19.2-0.8
			c130.5-5.1,254.8-19.3,369.5-42.1c148.1-29.5,272.7-72.2,360.5-123.5c93.6-54.7,142.7-118.2,141.8-183.5
			C2749.9,445.9,2708.6,389.3,2631.2,340.8z M2263.4,187.9l-235.9,190.7l32,114.9l-88.2-80.3l-276.5,124.8l235.9-190.7l-32-114.9
			l88.2,80.3L2263.4,187.9z M1715.6,563.3l116.2-23.1l-18.2,118l-108.4,21.6c-7.4,1.5-14.1-4.9-12.9-12.4l14.6-95
			C1707.7,567.8,1711.1,564.2,1715.6,563.3z M1951.2,263.7l48.4-9.6l-4.5,29.5c-0.7,4.8-1.7,9.5-2.8,14.1l-2.5,1.1L1951.2,263.7z
			 M1835.6,192.9c120.1,0,234.5,7.9,339,22.5l-31.4,14.2c-97.9-12.2-202.5-18.5-310.4-18.4L1835.6,192.9z M1705.4,169.4
			c10.3-66.8,61.2-120,127.5-133.2l102.7-20.4c50.5-10.1,95.7,33.2,87.8,84.1l-5.5,36l-115.8,23l3.8-24.8
			c0.9-6.1-4.5-11.3-10.5-10.1l-61.5,12.2c-6.8,1.4-12,6.8-13.1,13.7l-26,169c-0.9,6.1,4.5,11.3,10.5,10.1l61.5-12.2
			c6.8-1.4,12-6.8,13.1-13.7l4-26l14.1-2.8l19.3,69.2l-104,84.1l-48.2,9.6c-50.5,10.1-95.6-33.2-87.8-84.1L1705.4,169.4z
			 M957.8,640.5c27.6,22,62.4,42.6,104.1,61.6l-2.9,18.7c-116.9-52.5-186.6-118.6-187.5-191.2C869.8,407.2,1063.9,298,1351.6,239
			l-3,19.3c-280.9,58.6-460.4,164.3-458.9,271.1C890.2,567.4,913.1,604.8,957.8,640.5z M1710.4,933.2L1616,952
			c-9.3,1.8-17.6-6.1-16.1-15.5l17.4-113.1c0.9-5.7,5.2-10.2,10.8-11.3l57.5-11.5c22.6-4.5,42.3-17.1,55.9-34.5l-54.6,10.9
			c-19.7,3.9-39.9-0.3-56.2-11.3l-3.6,23.2l-137.6,27.4l26.1-169.5l-34.2,6.8l-26.1,169.5l-93.7,18.6l0,0l-290,57.7
			c-9.3,1.8-17.6-6.1-16.1-15.5l68.9-447.7c0.9-5.7,5.2-10.2,10.8-11.3l216-43l39.7-258l213-42.4c50.5-10.1,95.6,33.2,87.8,84.1
			l-13.4,87.2c-10.3,66.8-61.2,120-127.5,133.2l-90.8,18.1l-14.9,96.6l-3.6,23.3l128.7-25.6c23.9-4.8,48.6,2.5,66.2,19.3
			c0.6,0.6,1.2,1.2,1.8,1.8c18-25.3,45.2-43.6,76.8-49.9l60.8-12.1l-85,68.7l-0.1,0.1c-16.6,12.4-28.2,31-31.5,52.4L1640.9,699
			c-3.4,21.8,16,40.3,37.6,36l127.3-25.3l-3,19.5c-8.8,57-52.2,102.4-108.8,113.6l-37.4,7.4l-7.9,51.5l53.4-10.6
			c75.8-15.1,134-75.9,145.8-152.3l40-259.7h0l-48,9.6l-14.4,2.9l143-64.6l53.3,48.5l-30.3,197.2l48-9.6l26.1-169.5l108.5-21.6
			c7.4-1.5,14.1,4.9,12.9,12.4l-23.7,154l48-9.6l27.1-176.1c3.4-21.8-16-40.3-37.6-36l-142,28.3l-11.6-41.5l145.2-28.9
			c23.9-4.8,48.6,2.5,66.2,19.3c0.6,0.6,1.2,1.2,1.8,1.8c18-25.3,45.2-43.6,76.8-49.9l119.8-23.8c29.3-5.8,59.8,6.3,76.9,32.1
			c10.5,15.8,14.1,35.1,11.3,53.8l-4.6,29.6c-1.9,12-5.4,23.5-10.5,34.2l5.4-1.1L2515,603.1c-0.9,5.7-5.2,10.2-10.8,11.3
			l-195.4,38.9c-19.7,3.9-39.9-0.3-56.2-11.3l-3.6,23.2l-137.6,27.4l26.1-169.5l-34.1,6.8l-26.1,169.5l-92.8,18.5l0,0l-92.8,18.5
			l-1.4,9.1C1875.8,839.6,1803.9,914.6,1710.4,933.2z M2245.6,797.4c-110.8,22-235.1,36.6-367.2,41.8c3.7-6.1,7.1-12.3,10.3-18.7
			c123.7-5.4,244.6-19.4,353.4-41c290.7-57.8,477.6-165.6,476.1-274.6c-0.5-38-23.4-75.4-68.1-111.1
			c-45.8-36.6-111.6-69.3-195.6-97.2c-70.7-23.5-150.8-42.4-237.5-56.4l18.9-15.3c296.1,50.4,498.8,155.6,500.5,279.8
			C2738,628.6,2539.1,739,2245.6,797.4z"/>
		<path class="st0" d="M1578.7,540.6l-175.3,34.9l-34,220.9l48-9.6l26.1-169.5l108.5-21.6c7.4-1.5,14.1,4.9,12.9,12.4l-23.7,154.1
			l48-9.6l27.1-176.1C1619.7,554.8,1600.4,536.3,1578.7,540.6z"/>
	</g>
	<g>
		<path class="st0" d="M597.9,1119.3v93.5H215.1c-141.7,0-141.7,212.5,0,212.5h382.8v93.5H215.1c-266.3,0-266.3-399.5,0-399.5H597.9
			 M613.2,1103.9h-15.3H215.1c-66.2,0-122,23.4-161.3,67.6C19.1,1210.6,0,1263,0,1319c0,56.1,19.1,108.5,53.8,147.5
			c39.3,44.2,95.1,67.6,161.3,67.6h382.8h15.3v-15.3v-93.5V1410h-15.3H215.1c-43.8,0-90.9-28.4-90.9-90.9
			c0-62.5,47.1-90.9,90.9-90.9h382.8h15.3v-15.3v-93.5V1103.9L613.2,1103.9z"/>
		<path class="st0" d="M1054.4,1119.3c266.3,0,266.3,399.5,0,399.5H671.6v-2.1v-397.4H1054.4 M765.1,1425.3h289.3
			c141.7,0,141.7-212.5,0-212.5H765.1V1425.3 M1054.4,1103.9H671.6h-15.3v15.3v397.4v2.1v15.3h15.3h382.8
			c66.2,0,122-23.4,161.3-67.6c34.7-39,53.8-91.4,53.8-147.5c0-56.1-19.1-108.5-53.8-147.5
			C1176.4,1127.3,1120.6,1103.9,1054.4,1103.9L1054.4,1103.9z M780.4,1228.1h273.9c28.3,0,51.9,9.7,68.2,28.1
			c14.6,16.5,22.7,38.8,22.7,62.9c0,43.8-28.4,90.9-90.9,90.9H780.4V1228.1L780.4,1228.1z"/>
		<path class="st0" d="M2605.7,1119.3L2605.7,1119.3c266.3,0,266.3,399.5,0,399.5h-247.4c-266.3,0-266.3-399.5,0-399.5
			L2605.7,1119.3 M2358.3,1425.3h247.4c141.7,0,141.7-212.5,0-212.5c0,0,0,0,0,0h-247.4c0,0,0-5,0-5c0,0,0,1.3,0,5
			C2216.7,1212.8,2216.7,1425.3,2358.3,1425.3 M2605.7,1103.9l-247.4,0c-141.2,0-215.1,108.2-215.1,215.1
			c0,56.1,19.1,108.5,53.8,147.5c39.3,44.2,95.1,67.6,161.3,67.6h247.4c141.2,0,215.1-108.2,215.1-215.1
			C2820.8,1212.2,2746.9,1103.9,2605.7,1103.9L2605.7,1103.9L2605.7,1103.9z M2373.7,1228.1h232c62.5,0,90.9,47.1,90.9,90.9
			c0,43.8-28.5,90.9-90.9,90.9h-247.4c-62.5,0-90.9-47.1-90.9-90.9c0-43.8,28.4-90.9,90.9-90.9L2373.7,1228.1L2373.7,1228.1
			L2373.7,1228.1z"/>
		<path class="st0" d="M1387.7,1268.8c25.8,0,46.8,20.9,46.8,46.8c0,25.8-20.9,46.8-46.8,46.8h-20.4c-25.8,0-46.8-20.9-46.8-46.8
			c0-25.8,20.9-46.8,46.8-46.8H1387.7 M1387.7,1253.5h-20.4c-34.2,0-62.1,27.9-62.1,62.1s27.9,62.1,62.1,62.1h20.4
			c34.2,0,62.1-27.9,62.1-62.1S1421.9,1253.5,1387.7,1253.5L1387.7,1253.5z"/>
		<path class="st0" d="M1942.6,1119.3c89.8,0,134.6,67.3,134.6,134.6c0,31.6-10,63.1-29.8,87.7c18.2,21.8,29.8,51,29.8,88.1h0v89.1
			h-93.5v-89.1c0-27.4-20.6-41.1-41.1-41.1v0h-343.3v130.3h-93.5v-399.5h93.5L1942.6,1119.3
			C1942.6,1119.3,1942.6,1119.3,1942.6,1119.3 M1599.4,1295h343.3c0,0,0,0,0,0c27.4,0,41.1-20.6,41.1-41.1
			c0-20.6-13.7-41.1-41.1-41.1c0,0,0,0,0,0h-343.3V1295 M1942.6,1103.9L1942.6,1103.9l-343.3,0h-93.5h-15.3v15.3v399.5v15.3h15.3
			h93.5h15.3v-15.3v-114.9h327.9c0,0,0,0,0,0c6.9,0,13.5,2.3,18.1,6.4c5.1,4.5,7.7,11.1,7.7,19.4v89.1v15.3h15.3h93.5h15.3v-15.3
			v-89.1c0-33.4-8.9-63.7-26-88.2c16.8-25.1,26-55.7,26-87.5c0-39-13.3-75.5-37.5-102.7C2027.6,1120.3,1988.7,1103.9,1942.6,1103.9
			L1942.6,1103.9z M1614.7,1228.1h327.9c19,0,25.8,13.9,25.8,25.8c0,11.9-6.8,25.8-25.8,25.8l-327.9,0V1228.1L1614.7,1228.1z"/>
		<path class="st0" d="M3360.7,1119.3c89.8,0,134.6,67.3,134.6,134.6v264.9h-93.5v-264.9c0-20.6-13.7-41.1-41.1-41.1v0h-121.2v306
			h-93.5v-306H3017v0c-27.4,0-41.1,20.6-41.1,41.1v264.9h-93.5v-264.9c0-67.3,44.9-134.6,134.6-134.6H3360.7 M3360.7,1103.9H3017
			c-98.5,0-150,75.4-150,150v264.9v15.3h15.3h93.5h15.3v-15.3v-264.9c0-11.9,6.8-25.8,25.8-25.8l113.6,0v290.7v15.3h15.3h93.5h15.3
			v-15.3v-290.7h105.9c19,0,25.8,13.9,25.8,25.8v264.9v15.3h15.3h93.5h15.3v-15.3v-264.9C3510.6,1179.4,3459.1,1103.9,3360.7,1103.9
			L3360.7,1103.9z"/>
		<g>
			<path class="st0" d="M3747.4,1029.5c101.6,0,101.6,152.4,0,152.4h-49.9h-9.6h-20c-16.8,0-25.2,12.6-25.2,25.2v5.7h173.7v51
				h-224.7v-27v-24v-5.7c0-38.1,25.4-76.2,76.2-76.2h29.7h49.9c33.6,0,33.6-50.4,0-50.4h-145.6v-51H3747.4 M3747.4,1014.1h-145.6
				h-15.3v15.3v51v15.3h15.3h145.6c8.9,0,9.9,6.9,9.9,9.9c0,3-1,9.9-9.9,9.9h-49.9h-29.7c-60.1,0-91.6,46.1-91.6,91.6v5.7v24v27
				v15.3h15.3h224.7h15.3v-15.3v-51v-15.3h-15.3h-151c0.8-0.1,1.6-0.2,2.5-0.2h20h9.6h49.9c60.1,0,91.6-46.1,91.6-91.6
				c0-23.7-8.1-46-22.9-62.6C3799.2,1024.1,3775.5,1014.1,3747.4,1014.1L3747.4,1014.1z"/>
		</g>
	</g>
</g>
</svg>
