<?xml version="1.0" encoding="utf-8"?>
<!-- Generator: Adobe Illustrator 26.0.3, SVG Export Plug-In . SVG Version: 6.00 Build 0)  -->
<svg version="1.1" id="Layer_1" xmlns="http://www.w3.org/2000/svg" xmlns:xlink="http://www.w3.org/1999/xlink" x="0px" y="0px"
	 viewBox="0 0 3838.7 694.4" style="enable-background:new 0 0 3838.7 694.4;" xml:space="preserve">
<style type="text/css">
	.st0{fill:#FFFFFF;}
</style>
<g>
	<g>
		<g>
			<path class="st0" d="M627.8,9.9c36.6,0,66.3,29.7,66.1,66.4v212.8c36.4,23.2,60.6,63.7,60.6,110s-24.3,86.7-60.6,110v46.4
				c33.8,2.1,60.6,29.8,60.6,64.1c0,35.7-28.8,64.6-64.5,64.6H451c0-38-30.8-68.8-68.8-68.8s-68.8,30.8-68.8,68.8H74.5
				c-35.6,0-64.5-28.9-64.5-64.6c0-34.3,26.8-62.1,60.6-64.2V509C34.3,485.8,10,445.3,10,399c0-46.2,24.3-86.7,60.5-110V76.4
				c0-36.7,29.7-66.4,66.4-66.4h490.9 M74.5,660.9H293c10.3-39.6,46.5-68.8,89.3-68.8s78.9,29.2,89.3,68.8h218.5
				c22.6,0,41-18.4,41-41.1c0-21.5-16.9-39.3-38.5-40.7l-22.1-1.4v-22v-46.4v-12.9l10.8-7c31.1-20,49.7-53.6,49.7-90.2
				s-18.6-70.3-49.7-90.2l-10.8-7v-12.9V76.4c0-23.7-19.2-42.9-42.8-42.9H136.9C113.2,33.5,94,52.8,94,76.4v212.5v12.9l-10.8,7
				c-31,20-49.6,53.6-49.6,90.2s18.5,70.3,49.6,90.2l10.8,7v12.9v46.4v22.2l-22.1,1.4c-21.5,1.4-38.4,19.2-38.4,40.7
				C33.5,642.5,51.8,660.9,74.5,660.9 M627.8,0H136.9C94.7,0,60.5,34.3,60.5,76.4v207.4C22.5,310.3,0,353,0,399.1
				c0,46.2,22.5,89,60.6,115.3v32.4c-15.3,2.9-29.4,10.5-40.2,22C7.2,582.6,0,600.7,0,619.8c0,41.1,33.4,74.6,74.5,74.6h238.9h9.9
				v-9.9c0-32.5,26.4-58.9,58.9-58.9s58.9,26.4,58.9,58.9v9.9h9.9h238.9c19.9,0,38.6-7.8,52.7-21.9c14.1-14.1,21.8-32.8,21.8-52.7
				c0-19.1-7.2-37.2-20.3-51c-10.9-11.4-24.9-19-40.2-21.9v-32.4c38-26.5,60.6-69.2,60.6-115.3c0-46.3-22.5-89-60.6-115.3V76.4
				c0.1-20.4-7.7-39.5-22.1-54C667.3,8,648.2,0,627.8,0L627.8,0z M74.5,650.9c-17.1,0-31-14-31-31.1c0-16.2,12.8-29.7,29.1-30.8
				l22.1-1.4l9.3-0.6v-9.3v-22.2v-46.4v-12.9v-5.4l-4.6-2.9l-10.8-7c-28.2-18-45.1-48.6-45.1-81.8c0-33.1,16.8-63.7,45.1-81.8
				l10.8-7l4.6-2.9V302v-12.9V76.4c0-18.2,14.8-32.9,32.9-32.9h490.9c18.1,0,32.8,14.8,32.8,32.9v212.7V302v5.4l4.6,2.9l10.8,7
				c28.3,18.1,45.2,48.7,45.2,81.8s-16.9,63.7-45.2,81.8l-10.8,7l-4.6,2.9v5.4v12.9v46.4v22v9.3l9.3,0.6l22.1,1.4
				c16.3,1.1,29.2,14.6,29.2,30.7c0,17.2-13.9,31.1-31,31.1H479c-14.2-40.9-52.9-68.8-96.7-68.8c-23,0-44.8,7.5-62.9,21.7
				c-15.6,12.2-27.3,28.7-33.7,47.1H74.5V650.9z"/>
		</g>
		<g>
			<path class="st0" d="M326.7,236.7c5.4,0,10.5,1.4,15,3.8c-4.8-18-14.2-34.4-27.8-48c-20.2-20.3-47.2-31.4-75.8-31.4
				c-28.6,0-55.6,11.2-75.8,31.4c-20.3,20.3-31.4,47.3-31.4,75.9c0,28.6,11.1,55.5,31.4,75.8c20.2,20.3,47.2,31.4,75.8,31.4
				c28.6,0,55.5-11.1,75.8-31.4c13.6-13.5,23-30.1,27.8-48.1c-4.5,2.4-9.6,3.8-15,3.8c-17.5,0-31.6-14.1-31.6-31.6
				S309.2,236.7,326.7,236.7z"/>
			<path class="st0" d="M526.5,161.1c-28.6,0-55.6,11.2-75.8,31.4c-13.5,13.5-22.9,30-27.7,48c4.4-2.4,9.5-3.8,14.9-3.8
				c17.5,0,31.6,14.1,31.6,31.6s-14.1,31.6-31.6,31.6c-5.4,0-10.5-1.4-15-3.8c4.8,18,14.2,34.5,27.8,48.1
				c20.2,20.3,47.3,31.4,75.8,31.4c28.6,0,55.5-11.1,75.8-31.4c20.3-20.2,31.4-47.2,31.4-75.8c0-28.8-11.1-55.6-31.4-75.9
				C582.1,172.2,555.1,161.1,526.5,161.1z"/>
			<path class="st0" d="M692.4,579.1l-22.1-1.4v-22.2l0.2-46.3v-12.9l10.8-7c31.1-19.9,49.7-53.6,49.7-90.2s-18.6-70.2-49.7-90.2
				l-10.8-7V289V76.4c0-23.6-19.2-42.9-42.8-42.9H136.9C113.3,33.5,94,52.7,94,76.4v212.7V302l-10.8,7
				c-31.1,19.9-49.6,53.6-49.6,90.2c0,36.6,18.6,70.2,49.6,90.2l10.8,7v12.9v46.4v22l-22.1,1.4c-21.6,1.4-38.4,19.2-38.4,40.7
				c0,22.7,18.4,41.1,41,41.1h218.4c10.4-39.6,46.5-68.8,89.3-68.8s79,29.2,89.3,68.8h218.4c22.7,0,41-18.4,41-41.1
				C730.9,598.3,714,580.5,692.4,579.1z M238.1,399.1c-72.2,0-130.8-58.6-130.8-130.8s58.6-130.8,130.8-130.8
				s130.8,58.6,130.8,130.8S310.3,399.1,238.1,399.1z M526.5,399.1c-72.2,0-130.8-58.6-130.8-130.8s58.6-130.8,130.8-130.8
				c72.3,0,130.9,58.6,130.9,130.8S598.7,399.1,526.5,399.1z"/>
		</g>
	</g>
	<g>
		<g>
			<path class="st0" d="M1032.6,229.7c37.9,0,68.6,30.7,68.7,68.6v317.4c0,37.9-30.7,68.6-68.6,68.6H833.1V229.7H1032.6
				 M856.6,660.8h176c24.9,0,45.1-20.2,45.1-45.1h-0.1V298.3c0-24.9-20.2-45.1-45.1-45.1H856.6V660.8 M1032.6,219.8H833.1h-9.9v9.9
				v454.6v9.9h9.9h199.5c43.3,0,78.6-35.2,78.6-78.6V298.4C1111.1,255,1075.8,219.8,1032.6,219.8L1032.6,219.8z M866.6,263.2h166
				c19.4,0,35.1,15.7,35.1,35.1v317.5v2.7c-1.4,18.1-16.5,32.4-35,32.4H866.6V263.2L866.6,263.2z"/>
		</g>
		<g>
			<path class="st0" d="M1478.8,229.6c37.9,0,68.6,30.7,68.6,68.6V459l-122.3-82.2v-7.1v-17.9c0-5.9-4-11.2-9.7-12.2
				c-0.7-0.1-1.4-0.2-2.1-0.2c-6.4,0-11.6,5.3-11.6,11.7v30.5L1517,459c19,12.7,30.4,34.1,30.4,57.1v32.4v-22v89.2
				c0,37.9-30.7,68.6-68.6,68.6h-130.9c-37.9,0-68.6-30.7-68.6-68.6V455l122.3,82.2v7.1v17.9c0,5.9,4,11.3,9.7,12.2
				c0.7,0.1,1.3,0.2,2,0.2c6.5,0,11.7-5.2,11.7-11.7v-30.5L1309.7,455c-19-12.7-30.4-34.1-30.4-57v-99.8c0-37.9,30.7-68.6,68.6-68.6
				H1478.8 M1413.5,598.2c-2,0-3.9-0.2-5.8-0.5c-17.1-2.8-29.5-17.7-29.5-35.4v-12.5l-75.3-50.5v116.5c0,24.9,20.2,45.1,45.1,45.1
				h130.9c24.9,0,45.1-20.2,45.1-45.1v-89.2V516c0-15.1-7.5-29.1-20-37.5l-115.4-77.3l-10.4-7v-12.5v-30.5
				c0-10.3,4.6-20.1,12.4-26.9c6.5-5.4,14.5-8.4,22.9-8.4c2,0,3.9,0.2,5.8,0.5c17.1,2.8,29.5,17.6,29.5,35.4v12.5l75.3,50.5V298.4
				c0-24.9-20.2-45.1-45.1-45.1h-131c-24.9,0-45.1,20.2-45.1,45.1v99.9c0,15.1,7.5,29.1,20,37.5l115.4,77.3l10.4,7v12.5V563
				c0,10.3-4.6,20.1-12.4,26.9C1429.9,595.2,1421.8,598.2,1413.5,598.2 M1478.8,219.7h-130.9c-43.3,0-78.6,35.2-78.6,78.6V398
				c0,18.9,6.8,36.9,18.7,50.9l-3.2-2.2l-15.5-10.4V455v160.7c0,43.3,35.2,78.6,78.6,78.6h130.9c43.3,0,78.6-35.2,78.6-78.6v-67.2
				v-32.4c0-19-6.8-37-18.7-51l3.2,2.2l15.5,10.4V459V298.3C1557.4,254.9,1522.1,219.7,1478.8,219.7L1478.8,219.7z M1413.5,608.2
				c10.6,0,21-3.8,29.2-10.7l0.1-0.1l0.1-0.1c10.1-8.7,15.9-21.2,15.9-34.4v-30.5V520v-5.3l-4.4-3l-10.4-7l-115.4-77.3
				c-9.8-6.5-15.6-17.4-15.6-29.2v-99.9c0-19.4,15.7-35.1,35.1-35.1H1479c19.4,0,35.1,15.7,35.1,35.1v97.9l-55.4-37.2v-7.2
				c0-22.6-15.9-41.7-37.9-45.2c-2.7-0.4-5-0.6-7.4-0.6c-10.6,0-21,3.8-29.2,10.7l-0.1,0.1l-0.1,0.1c-10.1,8.7-15.9,21.2-15.9,34.4
				v30.5v12.5v5.3l4.4,3l10.4,7l115.4,77.3c9.8,6.5,15.6,17.4,15.6,29.2v10.5v89.2c0,19.4-15.7,35.1-35.1,35.1h-130.9
				c-19.4,0-35.1-15.7-35.1-35.1V518l55.4,37.2v7.2c0,22.6,15.9,41.7,37.9,45.2C1408.8,608,1411.2,608.2,1413.5,608.2L1413.5,608.2z
				 M1411.6,376.4v-25.2c0-1,0.8-1.8,1.7-1.8c0.1,0,0.2,0,0.4,0c0.8,0.1,1.5,1.3,1.5,2.4v17.9v7.1v2L1411.6,376.4L1411.6,376.4z
				 M1413.4,564.6c-0.1,0-0.3,0-0.4,0l0,0l0,0c-0.5-0.1-1.3-1.1-1.3-2.4v-17.9v-7.1v-2l3.6,2.4v25.2
				C1415.2,563.8,1414.4,564.6,1413.4,564.6L1413.4,564.6z"/>
		</g>
		<g>
			<path class="st0" d="M2820.6,229.6c37.9,0,68.6,30.7,68.6,68.6V459l-122.3-82.2v-7.1v-17.9c0-5.9-4-11.2-9.7-12.2
				c-0.7-0.1-1.4-0.2-2.1-0.2c-6.4,0-11.6,5.3-11.6,11.7v30.5l115.4,77.3c19,12.7,30.3,34.1,30.4,57.1v32.4v-22v89.2
				c0,37.9-30.7,68.6-68.6,68.6h-130.9c-37.9,0-68.6-30.7-68.6-68.6V455l122.3,82.2v7.1v17.9c0,5.9,4,11.3,9.7,12.2
				c0.7,0.1,1.3,0.2,2,0.2c6.5,0,11.7-5.2,11.7-11.7v-30.5L2651.5,455c-19-12.7-30.4-34.1-30.4-57v-99.8c0-37.9,30.7-68.6,68.6-68.6
				H2820.6 M2755.2,598.2c-1.9,0-3.9-0.2-5.8-0.5c-17.1-2.8-29.5-17.7-29.5-35.4v-12.5l-75.3-50.5v116.5c0,24.9,20.2,45.1,45.1,45.1
				h130.9c24.9,0,45.1-20.2,45.1-45.1v-89.2l0.1-10.5c0-15.1-7.5-29.1-20-37.5l-115.4-77.3l-10.4-7v-12.5v-30.5
				c0-10.3,4.6-20.1,12.4-26.9c6.5-5.4,14.5-8.4,22.9-8.4c1.9,0,3.9,0.2,5.8,0.5c17.1,2.8,29.5,17.6,29.5,35.4v12.5l75.2,50.5V298.4
				c0-24.9-20.2-45.1-45.1-45.1h-130.9c-24.9,0-45.1,20.2-45.1,45.1v99.9c0,15.1,7.5,29.1,20,37.5l115.4,77.3l10.4,7v12.5V563
				c0,10.3-4.6,20.1-12.4,26.9C2771.6,595.2,2763.6,598.2,2755.2,598.2 M2820.6,219.7h-130.9c-43.3,0-78.6,35.2-78.6,78.6V398
				c0,18.9,6.8,36.9,18.7,50.9l-3.2-2.2l-15.5-10.4V455v160.7c0,43.3,35.2,78.6,78.6,78.6h130.9c43.3,0,78.6-35.2,78.6-78.6v-67.2
				v-32.4c-0.1-19-6.9-37-18.8-51l3.3,2.2l15.5,10.4V459V298.3C2899.1,254.9,2863.9,219.7,2820.6,219.7L2820.6,219.7z M2755.2,608.2
				c10.6,0,21-3.8,29.2-10.7l0.1-0.1l0.1-0.1c10.1-8.7,15.9-21.2,15.9-34.4v-30.5V520v-5.3l-4.4-3l-10.4-7l-115.4-77.3
				c-9.8-6.5-15.6-17.4-15.6-29.2v-99.9c0-19.4,15.7-35.1,35.1-35.1h130.9c19.4,0,35.1,15.7,35.1,35.1v97.9l-55.3-37.2v-7.2
				c0-22.6-15.9-41.7-37.9-45.2c-2.6-0.4-5.1-0.6-7.4-0.6c-10.6,0-21,3.8-29.2,10.7l-0.1,0.1l-0.1,0.1
				c-10.1,8.7-15.9,21.2-15.9,34.4v30.5v12.5v5.3l4.4,3l10.4,7l115.4,77.3c9.7,6.5,15.6,17.4,15.6,29.2l-0.1,10.5l0,0l0,0v89.2
				c0,19.4-15.7,35.1-35.1,35.1h-130.9c-19.4,0-35.1-15.7-35.1-35.1V518l55.4,37.2v7.2c0,22.6,15.9,41.7,37.9,45.2
				C2750.5,608,2753,608.2,2755.2,608.2L2755.2,608.2z M2753.3,376.4v-25.2c0-1,0.8-1.8,1.7-1.8c0.1,0,0.2,0,0.4,0
				c0.8,0.1,1.5,1.3,1.5,2.4v17.9v7.1v2L2753.3,376.4L2753.3,376.4z M2755.1,564.6c-0.1,0-0.3,0-0.4,0l0,0l0,0
				c-0.5-0.1-1.3-1.1-1.3-2.4v-17.9v-7.1v-2l3.6,2.4v25.2C2756.9,563.8,2756.1,564.6,2755.1,564.6L2755.1,564.6z"/>
		</g>
		<g>
			<path class="st0" d="M2237.4,229.6c37.9,0,68.6,30.7,68.6,68.6V459l-122.3-82.2v-7.1v-17.9c0-5.9-4-11.2-9.7-12.2
				c-0.7-0.1-1.4-0.2-2.1-0.2c-6.4,0-11.6,5.3-11.6,11.7v30.5l115.4,77.3c19,12.7,30.4,34.1,30.4,57.1v32.4v-22v89.2
				c0,37.9-30.7,68.6-68.6,68.6h-130.9c-37.9,0-68.6-30.7-68.6-68.6V455l122.3,82.2v7.1v17.9c0,5.9,4,11.3,9.7,12.2
				c0.7,0.1,1.3,0.2,2,0.2c6.5,0,11.7-5.2,11.7-11.7v-30.5L2068.3,455c-19-12.7-30.4-34.1-30.4-57v-99.8c0-37.9,30.7-68.6,68.6-68.6
				H2237.4 M2172,598.2c-1.9,0-3.9-0.2-5.8-0.5c-17.1-2.8-29.5-17.7-29.5-35.4v-12.5l-75.3-50.5v116.5c0,24.9,20.2,45.1,45.1,45.1
				h131c24.9,0,45.1-20.2,45.1-45.1v-89.2V516c0-15.1-7.5-29.1-20-37.5l-115.4-77.3l-10.4-7v-12.5v-30.5c0-10.3,4.6-20.1,12.4-26.9
				c6.5-5.4,14.5-8.4,22.9-8.4c1.9,0,3.9,0.2,5.8,0.5c17.1,2.8,29.5,17.6,29.5,35.4v12.5l75.2,50.5V298.4
				c0-24.9-20.2-45.1-45.1-45.1h-130.9c-24.9,0-45.1,20.2-45.1,45.1v99.9c0,15.1,7.5,29.1,20,37.5l115.4,77.3l10.4,7v12.5V563
				c0,10.3-4.6,20.1-12.4,26.9C2188.4,595.2,2180.4,598.2,2172,598.2 M2237.4,219.7h-130.9c-43.3,0-78.6,35.2-78.6,78.6V398
				c0,18.9,6.8,36.9,18.7,50.9l-3.2-2.2l-15.5-10.4V455v160.7c0,43.3,35.2,78.6,78.6,78.6h130.9c43.3,0,78.6-35.2,78.6-78.6v-67.2
				v-32.4c0-19-6.8-37-18.7-51l3.2,2.2l15.5,10.4V459V298.3C2315.9,254.9,2280.7,219.7,2237.4,219.7L2237.4,219.7z M2172,608.2
				c10.6,0,21-3.8,29.2-10.7l0.1-0.1l0.1-0.1c10.1-8.7,15.9-21.2,15.9-34.4v-30.5V520v-5.3l-4.4-3l-10.4-7L2087,427.5
				c-9.8-6.5-15.6-17.4-15.6-29.2v-99.9c0-19.4,15.7-35.1,35.1-35.1h130.9c19.4,0,35.1,15.7,35.1,35.1v97.9l-55.3-37.2v-7.2
				c0-22.6-15.9-41.7-37.9-45.2c-2.6-0.4-5.1-0.6-7.4-0.6c-10.6,0-21,3.8-29.2,10.7l-0.1,0.1l-0.1,0.1
				c-10.1,8.7-15.9,21.2-15.9,34.4v30.5v12.5v5.3l4.4,3l10.4,7l115.4,77.3c9.8,6.5,15.6,17.4,15.6,29.2v10.5v89.2
				c0,19.4-15.7,35.1-35.1,35.1h-131c-19.4,0-35.1-15.7-35.1-35.1v-97.8l55.4,37.2v7.2c0,22.6,15.9,41.7,37.9,45.2
				C2167.3,608,2169.8,608.2,2172,608.2L2172,608.2z M2170.1,376.4v-25.2c0-1,0.8-1.8,1.7-1.8c0.1,0,0.2,0,0.4,0
				c0.8,0.1,1.5,1.3,1.5,2.4v17.9v7.1v2L2170.1,376.4L2170.1,376.4z M2171.9,564.6c-0.1,0-0.3,0-0.4,0l0,0l0,0
				c-0.5-0.1-1.3-1.1-1.3-2.4v-17.9v-7.1v-2l3.6,2.4v25.2C2173.7,563.8,2172.9,564.6,2171.9,564.6L2171.9,564.6z"/>
		</g>
		<g>
			<path class="st0" d="M1254.3,229.7v454.6H1132V229.7H1254.3 M1155.6,660.9h75.3V253.2h-75.3V660.9 M1264.3,219.8h-9.9H1132h-9.9
				v9.9v454.6v9.9h9.9h122.3h9.9v-9.9V229.7L1264.3,219.8L1264.3,219.8z M1165.5,263.2h55.4V651h-55.4V263.2L1165.5,263.2z"/>
		</g>
		<g>
			<path class="st0" d="M3151.5,229.7v109.9h-59.6v344.7h-122.3V339.6H2910V229.7h59.6h122.3H3151.5 M2933.4,316.1h59.6v344.8h75.3
				V316.1h59.6l-0.1-62.9h-194.3v62.9 M3161.4,219.8h-9.9h-59.6h-122.3H2910h-9.9v9.9v109.9v9.9h9.9h49.6v334.8v9.9h9.9h122.3h9.9
				v-9.9V349.6h49.6h9.9v-9.9v-110v-9.9H3161.4z M2943.3,263.2h174.5l0.1,43h-49.6h-9.9v9.9V651H3003V316.1v-9.9h-9.9h-49.6v-43
				H2943.3z"/>
		</g>
		<g>
			<path class="st0" d="M964.2,316.1c21.1,0,38.2,17.2,38.2,38.2V560c0,21.1-17.1,38.2-38.2,38.2h-32.3V316.1H964.2 M955.5,574.7
				h8.8c8.2,0,14.7-6.6,14.7-14.7V354.4c0-8.2-6.6-14.7-14.7-14.7h-8.8V574.7 M964.2,306.1h-32.3H922v9.9v282.1v9.9h9.9h32.3
				c26.5,0,48.1-21.6,48.1-48.1V354.3C1012.4,327.7,990.8,306.1,964.2,306.1L964.2,306.1z M965.4,564.6V349.7
				c2.1,0.5,3.6,2.4,3.6,4.6v205.6C969,562.2,967.5,564,965.4,564.6L965.4,564.6z"/>
		</g>
		<g>
			<path class="st0" d="M1835.7,229.7v169.5l-57.9,57.9l57.9,57.9v169.4h-122.3V565.7l-23.5-23.5v142.1h-122.3V229.7h122.3v142.1
				l23.5-23.5V229.7H1835.7 M1666.4,428.6V253.2h-75.3v407.6h75.3V485.4l70.5,70.5v104.8h75.3V524.6l-67.6-67.6l67.6-67.6V253.2
				h-75.3V358L1666.4,428.6 M1845.6,219.8h-9.9h-122.3h-9.9v9.9v114.5l-3.6,3.6V229.7v-9.9h-9.9h-122.3h-9.9v9.9v454.6v9.9h9.9H1690
				h9.9v-9.9v-118l3.6,3.6v114.5v9.9h9.9h122.3h9.9v-9.9V515v-4.1l-2.9-2.9l-50.8-50.8l50.8-50.8l2.9-2.9v-4.1V229.7V219.8
				L1845.6,219.8z M1746.8,263.2h55.4v122.1l-64.7,64.7l-7,7l7,7l64.7,64.7v122.1h-55.4V556v-4.1l-2.9-2.9l-70.5-70.5l-17-17v24
				v165.4H1601V263.2h55.4v165.4v24l17-17l70.5-70.5l2.9-2.9V358V263.2L1746.8,263.2z"/>
		</g>
		<g>
			<path class="st0" d="M2596.2,229.7v385.9c0,37.9-30.7,68.6-68.6,68.6h-175.9V574.6H2474v-23.5h-77.2c-37.9,0-68.6-30.7-68.6-68.6
				v-23v-65.9V229.7h122.3v199.1h23.5V229.7H2596.2 M2427,452.4v-23.6V253.2h-75.3v140.3v65.9v23c0,24.9,20.2,45.1,45.1,45.1h77.2
				h23.6v23.6v23.5v23.6H2474h-98.8v62.7h152.5c24.9,0,45.1-20.2,45.1-45.1l0.2-362.5h-75.3v175.6v23.6h-23.6h-23.5H2427
				 M2606.1,219.8h-9.9H2474h-9.9v9.9v189.2h-3.6V229.7v-9.9h-9.9h-122.3h-9.9v9.9v163.8v65.9v23c0,43.3,35.2,78.6,78.6,78.6h67.2
				v3.6h-112.4h-9.9v9.9v109.7v9.9h9.9h175.9c43.3,0,78.6-35.2,78.6-78.6V229.7v-9.9H2606.1z M2507.6,263.2h55.4l-0.2,352.6
				c0,19.4-15.7,35.1-35.1,35.1h-142.5v-42.8h88.8h23.6h9.9v-9.9v-23.6v-23.5v-23.6v-9.9h-9.9H2474h-77.2
				c-19.4,0-35.1-15.7-35.1-35.1v-23v-65.9V263.2h55.4v165.7v23.6v9.9h9.9h23.6h23.5h23.6h9.9v-9.9v-23.6L2507.6,263.2L2507.6,263.2
				z"/>
		</g>
		<g>
			<path class="st0" d="M3383.6,229.7v109.9h-89.7v62.5h89.7V512h-89.7v62.7h89.7v109.7h-211.9V229.7H3383.6 M3195.1,660.9H3360
				v-62.7h-89.7V488.5h89.7v-62.9h-89.7V316.1h89.7v-62.9h-164.9V660.9 M3393.5,219.8h-9.9h-211.9h-9.9v9.9v454.6v9.9h9.9h211.9h9.9
				v-9.9V574.7v-9.9h-9.9h-79.8V522h79.8h9.9v-10V402.1v-9.9h-9.9h-79.8v-42.6h79.8h9.9v-9.9v-110V219.8L3393.5,219.8z
				 M3205.1,263.2h145v43h-79.8h-9.9v9.9v109.6v9.9h9.9h79.8v43h-79.8h-9.9v9.9v109.7v9.9h9.9h79.8v42.8h-145V263.2L3205.1,263.2z"
				/>
		</g>
		<g>
			<path class="st0" d="M3760.4,229.7c37.9,0,68.6,30.7,68.6,68.6v386h-122.3v-333c0-6.6-5.3-11.8-11.8-11.8
				c-6.6,0-11.8,5.3-11.8,11.8v333.1h-122.3v-333c0-6.6-5.3-11.8-11.8-11.8c-6.6,0-11.8,5.3-11.8,11.8v332.9h-122.3V229.7h162
				c17.3,0,33.1,6.5,45.2,17c12.1-10.5,27.8-17,45.2-17H3760.4 M3621.9,295.5c-0.4,0-0.9-0.3-1-0.8c-2.1-7.6-7.1-23.6-13.8-29.7
				c-8-7.3-18.6-11.7-30.2-11.7h-138.4v407.6h75.3V351.4c0-19.5,15.8-35.3,35.3-35.3c1.5,0,3.1,0.1,4.7,0.3
				c17.9,2.3,30.7,18.3,30.7,36.3v308.1h75.1V351.4c0-19.5,15.8-35.3,35.3-35.3c1.5,0,3.1,0.1,4.7,0.3c17.9,2.3,30.7,18.3,30.7,36.3
				v308.2h75.3h-0.1V298.3c0-24.9-20.2-45.1-45.1-45.1H3667c-11.6,0-22.2,4.5-30.2,11.7c-6.8,6.3-11.6,22.2-13.7,29.7
				C3622.8,295.2,3622.4,295.5,3621.9,295.5 M3760.4,219.8H3667c-16.1,0-31.9,5-45.1,14.3c-13.2-9.3-28.9-14.3-45.2-14.3h-162h-9.9
				v9.9v454.6v9.9h9.9H3537h9.9v-9.9V351.5c0-1.1,0.8-1.9,1.9-1.9c1.1,0,1.9,0.8,1.9,1.9v333v9.9h9.9h122.3h9.9v-9.9V351.4
				c0-1.1,0.8-1.9,1.9-1.9s1.9,0.8,1.9,1.9v333v9.9h9.9h122.3h9.9v-9.9v-386C3839,255,3803.8,219.8,3760.4,219.8L3760.4,219.8z
				 M3643.4,272.3c6.6-5.9,14.9-9.1,23.5-9.1h93.4c19.4,0,35.1,15.7,35.1,35.1V651h-55.3V352.7c0-23.4-16.9-43.3-39.4-46.2
				c-2-0.3-4-0.4-5.9-0.4c-12.1,0-23.4,4.7-32,13.3c-8.5,8.6-13.2,19.9-13.2,32v299.5h-55.2V352.7c0-23.4-16.9-43.3-39.4-46.2
				c-2-0.3-4-0.4-5.9-0.4c-12.1,0-23.4,4.7-32,13.3c-8.5,8.6-13.2,19.9-13.2,32v299.5h-55.4V263.2H3577c8.7,0,17.1,3.2,23.5,9.1
				c2.5,2.3,6.8,10.2,10.9,25c1.3,4.8,5.7,8.1,10.6,8.1c5,0,9.3-3.4,10.6-8.2C3636.7,282.6,3640.8,274.7,3643.4,272.3L3643.4,272.3z
				"/>
		</g>
	</g>
	<g>
		<path class="st0" d="M2820.5,660.9c24.9,0,45.1-20.2,45.1-45.1v-89.2l0,0v-10.4c0-15-7.5-29-20-37.5l-115.4-77.3l-10.4-7v-12.5
			v-30.5c0-10.3,4.6-20.2,12.4-26.9c6.5-5.5,14.5-8.4,22.9-8.4c1.9,0,3.8,0.1,5.8,0.5c17.1,2.8,29.5,17.7,29.5,35.4v12.5l75.2,50.5
			V298.6c0-24.9-20.2-45.1-45.1-45.1h-130.9c-24.9,0-45.1,20.2-45.1,45.1v99.8c0,15,7.5,29,20,37.5l115.4,77.3l10.4,7v12.5v30.5
			c0,10.3-4.6,20.2-12.4,26.9c-6.5,5.5-14.5,8.4-22.9,8.4c-1.9,0-3.8-0.2-5.8-0.5c-17.1-2.8-29.5-17.7-29.5-35.4v-12.5l-75.3-50.5
			v116.6c0,24.9,20.2,45.1,45.1,45.1L2820.5,660.9L2820.5,660.9z"/>
		<path class="st0" d="M2237.4,660.9c24.9,0,45.1-20.2,45.1-45.1v-89.2l0,0v-10.4c0-15-7.5-29-20-37.5l-115.4-77.3l-10.4-7v-12.5
			v-30.5c0-10.3,4.6-20.2,12.4-26.9c6.5-5.5,14.5-8.4,22.9-8.4c1.9,0,3.8,0.1,5.8,0.5c17.1,2.8,29.5,17.7,29.5,35.4v12.5l75.2,50.5
			V298.6c0-24.9-20.2-45.1-45.1-45.1h-130.9c-24.9,0-45.1,20.2-45.1,45.1v99.8c0,15,7.5,29,20,37.5l115.4,77.3l10.4,7v12.5v30.5
			c0,10.3-4.6,20.2-12.4,26.9c-6.5,5.5-14.5,8.4-22.9,8.4c-1.9,0-3.8-0.2-5.8-0.5c-17.1-2.8-29.5-17.7-29.5-35.4v-12.5l-75.3-50.5
			v116.6c0,24.9,20.2,45.1,45.1,45.1L2237.4,660.9L2237.4,660.9z"/>
		<path class="st0" d="M2572.7,615.7V253.2h-75.3v175.6v23.6h-23.6h-23.5h-23.6v-23.6V253.2h-75.3v140.3v65.9v23
			c0,24.9,20.2,45.1,45.1,45.1h77.2h23.6v23.6v23.5v23.6h-23.6H2375v62.7h152.5C2552.5,660.9,2572.7,640.6,2572.7,615.7z"/>
		<polygon class="st0" points="1736.9,660.9 1812.2,660.9 1812.2,524.7 1744.6,457.1 1812.2,389.4 1812.2,253.2 1736.9,253.2 
			1736.9,358 1666.4,428.7 1666.4,253.2 1591.1,253.2 1591.1,660.9 1666.4,660.9 1666.4,485.4 1736.9,556.1 		"/>
		<rect x="1155.6" y="253.2" class="st0" width="75.3" height="407.6"/>
		<path class="st0" d="M1478.7,660.9c24.9,0,45.1-20.2,45.1-45.1v-89.2l0,0v-10.4c0-15-7.5-29-20-37.5l-115.4-77.3l-10.4-7v-12.5
			v-30.5c0-10.3,4.6-20.2,12.4-26.9c6.5-5.5,14.5-8.4,22.9-8.4c1.9,0,3.8,0.1,5.8,0.5c17.1,2.8,29.5,17.7,29.5,35.4v12.5l75.3,50.5
			V298.6c0-24.9-20.2-45.1-45.1-45.1h-130.9c-24.9,0-45.1,20.2-45.1,45.1v99.8c0,15,7.5,29,20,37.5l115.4,77.3l10.4,7v12.5v30.5
			c0,10.3-4.6,20.2-12.4,26.9c-6.5,5.5-14.5,8.4-22.9,8.4c-1.9,0-3.8-0.2-5.8-0.5c-17.1-2.8-29.5-17.7-29.5-35.4v-12.5l-75.3-50.5
			v116.6c0,24.9,20.2,45.1,45.1,45.1L1478.7,660.9L1478.7,660.9z"/>
		<path class="st0" d="M1077.7,615.7V298.4c0-24.9-20.2-45.1-45.1-45.1h-176v407.6h175.9C1057.4,660.9,1077.7,640.6,1077.7,615.7z
			 M1002.4,559.9c0,21.1-17.1,38.2-38.2,38.2h-32.3v-282h32.3c21.1,0,38.2,17.1,38.2,38.2V559.9L1002.4,559.9z"/>
		<path class="st0" d="M3730.3,352.7v308.2h75.3V298.4c0-24.9-20.2-45.1-45.1-45.1h-93.4c-11.6,0-22.3,4.5-30.2,11.7
			c-6.9,6.2-11.7,22.1-13.7,29.7c-0.3,1.1-1.8,1.1-2.1,0c-2.1-7.6-7.1-23.6-13.8-29.7c-8.1-7.3-18.6-11.7-30.2-11.7h-138.4v407.6
			h75.3V351.4c0-21,18.4-37.8,40-35c17.8,2.3,30.7,18.3,30.7,36.3v308.2h75.3V351.4c0-21,18.4-37.8,40-35
			C3717.4,318.7,3730.3,334.7,3730.3,352.7z"/>
		<polygon class="st0" points="2993,660.9 3068.3,660.9 3068.3,316.1 3127.8,316.1 3127.8,253.2 2933.6,253.2 2933.6,316.1 
			2993,316.1 		"/>
		<polygon class="st0" points="3360,598.1 3270.3,598.1 3270.3,488.4 3360,488.4 3360,425.7 3270.3,425.7 3270.3,316.1 3360,316.1 
			3360,253.2 3195.1,253.2 3195.1,660.9 3360,660.9 		"/>
	</g>
	<g>
		<path class="st0" d="M1443.5,92.8c-0.4,45.8,36.4,83.4,82.3,83.9c30.7-0.1,58.8-17.5,72.7-44.9l0.3-0.7h-36.2
			c-9.8,9.7-23,15.2-36.8,15.3c-29.6-0.8-53.1-25.5-52.3-55.1c0.8-28.5,23.8-51.6,52.3-52.3c13.6,0,26.8,5.5,36.4,15.1l36.6,0.1
			l-0.3-0.7c-13.9-27.4-42-44.7-72.7-44.8C1480,9.4,1443.2,46.8,1443.5,92.8z M1600.5,93.2c0.9,45.5,38.5,81.6,83.9,80.7
			c45.5-0.9,81.6-38.5,80.7-83.9c-0.9-44.9-37.5-80.7-82.2-80.8C1636.9,9.7,1600.1,47.3,1600.5,93.2L1600.5,93.2z M1630.2,93.2
			c0.6-29,24.7-52.1,53.7-51.5s52.1,24.7,51.5,53.7c-0.6,28.6-24,51.5-52.6,51.5C1653.5,146.6,1630,122.5,1630.2,93.2L1630.2,93.2z
			 M2358.3,9.9h-82.9v165.3h83.3v-31.8h-52.1v-33.1h52.1V78.5h-52.1V41.7h52.1V9.8L2358.3,9.9L2358.3,9.9L2358.3,9.9L2358.3,9.9z
			 M1024.8,9.9h-24.6L886.4,175.3h35.3c0,0,17.6-25.7,17.8-26h55.8v26h30V9.9H1024.8L1024.8,9.9z M961.6,116.9l33.6-49.1v52h-35.5
			C960.3,118.9,961.6,116.9,961.6,116.9z M1943.3,9.9h-34.8c0,0-48.5,112.2-49.3,114c-0.8-1.8-49.5-114-49.5-114h-35.1v165.4h31.1
			V93c0.5-0.1,3-0.7,3.5-0.8l36.1,83.1h27.7c0,0,35.8-82.3,36-83c0.5,0.1,3,0.7,3.5,0.8v82.2h31.1V9.9H1943.3L1943.3,9.9z M2172,9.9
			h-30.8v111.6c0.2,11.8-9.3,21.6-21.1,21.8c-11.7,0.2-21.6-9.2-21.8-21.1c0-0.2,0-0.4,0-0.6V9.9h-31.2v111.6
			c-0.5,29.1,22.7,53,51.8,53.5s53-22.7,53.5-51.8c0-0.6,0-1.1,0-1.7V10L2172,9.9L2172,9.9z M2368.6,10h-0.5v165.9h31.2V88.6
			c1.6,2.6,51.5,86.7,51.5,86.7h35.1c0,0-35.2-59.4-35.7-60.3c0.7-0.2,2.1-0.8,2.1-0.8c27.8-10.4,42-41.5,31.6-69.3
			c-7.7-20.5-27-34.3-48.8-35L2368.6,10L2368.6,10z M2435.2,41.8c11.8,0.4,21.1,10.1,21,22c0.2,11.8-9.1,21.6-21,21.9h-35.8V41.9
			L2435.2,41.8L2435.2,41.8z M1953.7,10h-0.4v165.3h31.2v-58.9h22.3c29.4-0.6,52.8-24.9,52.2-54.2c-0.5-28.6-23.6-51.7-52.2-52.2
			H1953.7L1953.7,10z M2006.7,41.8c11.8,0.2,21.3,10,21.1,21.9c-0.2,11.5-9.5,20.8-21.1,21h-22.3V41.8H2006.7L2006.7,41.8z
			 M2266.1,10h-84.7v31.7h27v133.6h31.2V41.8h27.1V10H2266.1L2266.1,10z M1425.2,10h-32.3c0,0-33.2,64.6-33.9,66.2
			c-0.8-1.5-33.9-66.2-33.9-66.2h-33l51.3,101.6l-0.1,63.8h31.3l0.1-63.9c0.1,0,50.9-100.7,50.9-100.7l0.3-0.7L1425.2,10L1425.2,10z
			 M1283.5,10h-30.7v165.3h73.4v-31.8H1284V10H1283.5L1283.5,10z M1242.8,10h-29.2v165.3h29.6V10H1242.8L1242.8,10z M1203.6,10
			h-34.8c0,0-48.5,112.1-49.3,113.9L1069.9,10h-35.1v165.3h31.1V93c0.5-0.1,3-0.7,3.5-0.8c0.3,0.7,36.1,83,36.1,83h27.7l36.1-83
			c0.5,0.1,3,0.7,3.5,0.8v82.2h31.1V10H1203.6L1203.6,10z M923.2,10H838v165.3h31.7v-65.1h53.9V78.6h-53.9V40.5h53.9V10H923.2
			L923.2,10z"/>
	</g>
</g>
</svg>
