<?xml version="1.0" encoding="utf-8"?>
<!-- Generator: Adobe Illustrator 25.0.0, SVG Export Plug-In . SVG Version: 6.00 Build 0)  -->
<svg version="1.1" id="Layer_1" xmlns="http://www.w3.org/2000/svg" xmlns:xlink="http://www.w3.org/1999/xlink" x="0px" y="0px"
	 viewBox="0 0 2160 2160" style="enable-background:new 0 0 2160 2160;" xml:space="preserve">
<style type="text/css">
	.st0{fill:#FFFFFF;}
	.st1{fill:#E60012;}
	.st2{fill-rule:evenodd;clip-rule:evenodd;fill:#E60012;}
	.st3{filter:url(#Adobe_OpacityMaskFilter);}
	.st4{fill-rule:evenodd;clip-rule:evenodd;fill:#FFFFFF;}
	.st5{mask:url(#b_4_);fill-rule:evenodd;clip-rule:evenodd;fill:#FFFFFF;}
	.st6{fill-rule:evenodd;clip-rule:evenodd;}
	.st7{filter:url(#Adobe_OpacityMaskFilter_1_);}
	.st8{mask:url(#b_1_);fill-rule:evenodd;clip-rule:evenodd;fill:#FFFFFF;}
	.st9{filter:url(#Adobe_OpacityMaskFilter_2_);}
	.st10{mask:url(#b_2_);fill-rule:evenodd;clip-rule:evenodd;}
	.st11{filter:url(#Adobe_OpacityMaskFilter_3_);}
	.st12{mask:url(#b_7_);fill-rule:evenodd;clip-rule:evenodd;}
	.st13{filter:url(#Adobe_OpacityMaskFilter_4_);}
	.st14{mask:url(#b_8_);fill-rule:evenodd;clip-rule:evenodd;fill:#FFFFFF;}
	.st15{filter:url(#Adobe_OpacityMaskFilter_5_);}
	.st16{mask:url(#b_9_);fill-rule:evenodd;clip-rule:evenodd;fill:#FFFFFF;}
	.st17{filter:url(#Adobe_OpacityMaskFilter_6_);}
	.st18{mask:url(#b_3_);fill-rule:evenodd;clip-rule:evenodd;fill:#E60012;}
	.st19{filter:url(#Adobe_OpacityMaskFilter_7_);}
	.st20{mask:url(#b_5_);fill-rule:evenodd;clip-rule:evenodd;fill:#FFFFFF;}
	.st21{filter:url(#Adobe_OpacityMaskFilter_8_);}
	.st22{mask:url(#b_6_);fill-rule:evenodd;clip-rule:evenodd;}
	.st23{filter:url(#Adobe_OpacityMaskFilter_9_);}
	.st24{mask:url(#b_12_);fill-rule:evenodd;clip-rule:evenodd;fill:#E60012;}
	.st25{filter:url(#Adobe_OpacityMaskFilter_10_);}
	.st26{mask:url(#b_10_);fill-rule:evenodd;clip-rule:evenodd;fill:#FFFFFF;}
	.st27{filter:url(#Adobe_OpacityMaskFilter_11_);}
	.st28{mask:url(#b_11_);fill-rule:evenodd;clip-rule:evenodd;}
</style>
<g>
	<g>
		<path class="st0" d="M1531.4,1454.5h-26.7v70.1h26.7c19,0,35-16,35-35S1550.5,1454.5,1531.4,1454.5z"/>
		<ellipse class="st0" cx="1735.6" cy="1489.4" rx="37.3" ry="37.3"/>
		<path class="st0" d="M0,0v2160h2160V0H0z M1165,317.7c0-3,2.3-6.1,6.1-6.1h150.1c137.1,0,248.4,111.2,248.4,248.4v472.4
			c0,137.1-111.2,248.4-248.4,248.4h-149.3c-3.8,0-6.9-3-6.9-6.9V317.7z M370.3,1429.3h24.4l59.4,79.2v-80h24.4v121.1h-23.6
			l-60.2-80.8v81.5h-24.4V1429.3z M458.7,1847.6c-49.5,0-88.4-18.3-99.8-24.4l21.3-38.9c9.9,6.1,39.6,21.3,81.5,21.3
			c51.8,0,60.2-18.3,61-29c0.8-19.8-24.4-24.4-70.9-32c-65.5-11.4-90.7-30.5-90.7-66.3c0-44.2,52.6-68.6,102.1-68.6
			c40.4,0,77,13,88.4,17.5l-16,39.6c-10.7-4.6-40.4-16-70.1-16c-25.9,0-43.4,3.8-51,13c-3.8,5.3-3.8,10.7-3.8,13
			c2.3,16,25.9,20.6,54.1,25.1h1.5c87.6,15.2,104.4,38.1,103.6,72.4C569.9,1822.5,531,1847.6,458.7,1847.6z M570.7,1428.6h26.7
			v121.1h-26.7V1428.6z M857.1,1840h-54.9l-42.7-150.9L717,1840h-54.9l-64.8-228.6h49.5l44.2,165.3l48-165.3h40.4l48.8,166.1
			l44.2-166.1h49.5L857.1,1840z M688.8,1550.5v-121.1h24.4l59.4,79.2v-80H797v121.1h-23.6l-60.2-80.8v81.5L688.8,1550.5
			L688.8,1550.5z M947.8,1549.7h-25.9v-95.2H883v-25.9h102.9v25.9h-38.1L947.8,1549.7z M1029.3,1840.8h-51v-228.6h51V1840.8z
			 M1067.4,1273.9c0,3.8-3,6.9-6.9,6.9H848.8c-137.1,0-248.4-111.2-248.4-248.4V560c0-137.1,111.2-248.4,248.4-248.4h211.8
			c3.8,0,6.9,3,6.9,6.9V1273.9z M1074.3,1429.3h94.5v22.1h-69.3v25.9h64v22.1h-64v28.2h69.3v22.9h-94.5V1429.3z M1279.2,1660.2
			h-71.6V1840h-49.5v-179.8h-72.4v-48.8h193.5V1660.2z M1293.7,1550.5h-24.4v-121.1h24.4l59.4,79.2v-80h24.4v121.1l-23.6,0.8
			l-60.2-80.8V1550.5z M1437.7,1798.9c25.9,0,49.5-14.5,62.5-35.8l37.3,32c-22.9,34.3-60.2,54.1-101.3,54.1
			c-67,0-121.9-54.9-121.9-121.9c0-67,54.9-121.9,121.9-121.9c41.1,0,78.5,20.6,101.3,54.1l-37.3,32c-13-22.1-36.6-35.8-62.5-35.8
			c-40.4,0-72.4,33.5-72.4,72.4C1365.3,1766.9,1398.1,1798.9,1437.7,1798.9z M1529.9,1549.7h-50.3v-121.1h50.3
			c34.3,0,62.5,27.4,62.5,61C1592.4,1522.3,1564.2,1549.7,1529.9,1549.7z M1790.5,1840.8h-47.2v-91.4h-106.7v91.4h-47.2v-228.6h47.2
			v89.9h106.7v-89.9h47.2V1840.8z M1735.6,1554.3c-35.8,0-64.8-29-64.8-64.8s29-64.8,64.8-64.8c35,0,64,29,64.8,64.8
			C1800.4,1525.3,1771.4,1554.3,1735.6,1554.3z M1833.9,1817.1h-9.1v23.6h-5.3v-23.6h-9.9v-5.3h24.4V1817.1z M1869.7,1840h-5.3
			v-22.1l-7.6,22.1h-5.3l-7.6-22.1v22.1h-5.3v-29h8.4l7.6,21.3l7.6-21.3h7.6L1869.7,1840L1869.7,1840z"/>
		<path class="st0" d="M728.4,439.6c-32.8,32-50.3,74.7-50.3,120.4v472.4c0,45.7,18.3,88.4,50.3,120.4c32,32.8,74.7,50.3,120.4,50.3
			h141V389.3h-141C803,389.3,760.4,407.6,728.4,439.6z M934.1,602.7c0,50.3-41.1,91.4-91.4,91.4c-50.3,0-91.4-41.1-91.4-91.4
			c0-51,40.4-91.4,91.4-91.4C893,511.2,934.1,552.4,934.1,602.7z"/>
		<path class="st0" d="M1356.2,943.2c54.1,0,98.3-44.2,98.3-98.3s-44.2-98.3-98.3-98.3c-54.1,0-97.5,44.2-98.3,98.3
			C1257.9,899,1302.1,943.2,1356.2,943.2z"/>
	</g>
</g>
</svg>
