<?xml version="1.0" encoding="utf-8"?>
<!-- Generator: Adobe Illustrator 25.2.1, SVG Export Plug-In . SVG Version: 6.00 Build 0)  -->
<svg version="1.1" id="Layer_1" xmlns="http://www.w3.org/2000/svg" xmlns:xlink="http://www.w3.org/1999/xlink" x="0px" y="0px"
	 viewBox="0 0 3839 673.5" style="enable-background:new 0 0 3839 673.5;" xml:space="preserve">
<style type="text/css">
	.st0{fill:#FFFFFF;}
</style>
<g>
	<g>
		<g>
			<path class="st0" d="M0,499.2h224.5v74.4c0,48.1-37,99.5-92.7,99.5H25v-43.3h93.5c48.8,0,68.7-36.2,68.7-56.3v-31.1H0V499.2z"/>
			<path class="st0" d="M237.3,542.8h180.4v48.8c0,41.3-31.2,44-43.3,44h-37.8c0,36.1-43.6,37.8-43.6,37.4h-56.2v-36.7h62.5
				c7.2,0,13-5.8,13-13.1c0-0.5,0-0.9-0.1-1.5V599h56.8c9.9-0.2,17.7-8.4,17.5-18.2c0-0.3,0-0.5,0-0.8H237.7L237.3,542.8z"/>
			<rect x="673.4" y="498.8" class="st0" width="31.2" height="112.2"/>
			<path class="st0" d="M860.9,498.8h30.5v90.7c0,65.2-70.6,83.9-87.5,83.9h-99.4v-43.7h99.8c50.4,0,56.6-48.1,56.6-62.1
				L860.9,498.8L860.9,498.8z"/>
			<rect x="910.4" y="567.4" class="st0" width="211.7" height="43.6"/>
			<polygon class="st0" points="1209.7,498.8 1434.2,498.8 1434.2,673.5 1209.7,673.5 1209.7,629.7 1403,629.7 1403,542.4 
				1209.7,542.4 			"/>
			<rect x="1452.8" y="498.8" class="st0" width="124.7" height="43.6"/>
			<path class="st0" d="M1452.8,629.7V673H1578c66.6,0,93.2-49.5,93.2-85.8v-88.5h-30.9v80.7c0,44.4-46.4,50.3-56.2,50.3
				C1584.1,629.7,1452.8,629.7,1452.8,629.7z"/>
			<path class="st0" d="M1689.8,498.5h31.2v43.8h121.7c16.1,35.6,55.1,35.1,71.1,9.2v34.1h-192.9v25.4c0,21.8,24.9,18.8,24.9,18.8
				h167.7v43.3h-167.5c-29,2-54.1-19.8-56.1-48.8V498.5L1689.8,498.5z"/>
			<path class="st0" d="M1880.9,558.7c-16.2,0.3-29.7-12.6-30-28.9c-0.3-16.2,12.6-29.7,28.9-30c0.3,0,0.7,0,1.1,0V513
				c-9,0-16.2,7.3-16.2,16.2s7.3,16.2,16.2,16.2l0,0v13.3H1880.9z"/>
			<polygon class="st0" points="1945.5,548.7 2070.2,548.7 2070.2,630.8 2107.2,630.8 2107.2,673 1927.2,673 1927.2,630.2 
				2045.7,630.2 2045.7,585.6 1945.5,585.6 			"/>
			<rect x="2089" y="568.3" class="st0" width="218.3" height="37.5"/>
			<path class="st0" d="M2320.1,554.7v43.7c49.8,0,61.6-56.6,61.6-56.6H2513v25.7h-130.6v43.3h111.8c0,16.8-32.4,18.8-32.4,18.8
				h-123.5v43.2h118.9c44.5,0.8,82.2-32.2,87.3-76.3v-97.8h-186.6C2358.9,523.6,2343.6,546.3,2320.1,554.7z"/>
			<polygon class="st0" points="660.5,561.9 660.5,524.5 436.8,505.1 436.8,542.4 			"/>
			<polygon class="st0" points="660.5,617.6 660.5,580.2 436.8,560.7 436.8,598.1 			"/>
			<polygon class="st0" points="660.5,673.5 660.5,636 436.8,616.5 436.8,653.8 			"/>
			<path class="st0" d="M1880.9,558.7c16.2,0.3,29.7-12.6,30-28.9c0.3-16.2-12.6-29.7-28.9-30c-0.3,0-0.7,0-1.1,0V513
				c9,0,16.2,7.3,16.2,16.2s-7.3,16.2-16.2,16.2v13.3H1880.9z"/>
		</g>
		<polygon class="st0" points="3670.6,416.9 3629.5,455.4 0,455.4 0,416.9 		"/>
		<path class="st0" d="M1359.5,188.4c-0.8,103,81.8,187.3,184.8,188.4c68.9-0.3,131.9-39.2,163.1-100.6l0.7-1.5h-81.2
			c-22,21.8-51.6,34.1-82.6,34.4c-66.6-1.8-119.2-57.1-117.4-123.7c1.7-64.2,53.3-115.8,117.4-117.4c30.7,0.1,60.1,12.2,81.8,33.9
			l82.1,0.2l-0.7-1.5c-31.2-61.4-94.2-100.2-163.1-100.5C1441.2,1.2,1358.6,85.4,1359.5,188.4z M1711.9,189.5
			c2,102,86.3,183.1,188.4,181.1c102-2,183.1-86.3,181.1-188.4c-2-100.6-84.1-181.1-184.7-181.2C1793.6,2.1,1711,86.4,1711.9,189.5
			L1711.9,189.5z M1778.5,189.5c1.4-65.2,55.3-117.1,120.6-115.7c65.2,1.4,117.1,55.3,115.7,120.6c-1.4,64.3-53.8,115.7-118.1,115.7
			C1830.7,309.3,1777.9,255.3,1778.5,189.5L1778.5,189.5z M3412.9,2.5h-186.2v371.1h187v-71.4h-117v-74.5h117v-71.4h-117V73.9h117
			V2.4h-1.1h0.2V2.5z M419.5,2.5h-55.1L108.6,373.8h79.2c0,0,39.5-57.5,40-58.4h125.2v58.4h67.3V2.5H419.5L419.5,2.5z M277.8,242.6
			l75.3-110.2v116.8h-79.7C274.8,247,277.8,242.6,277.8,242.6z M2481.3,2.6h-78.1c0,0-109,251.9-110.8,255.9
			c-1.8-4.1-111.2-255.9-111.2-255.9h-78.9v371.2h69.9V189c1.2-0.3,6.6-1.5,7.8-1.8l81.1,186.6h62.4c0,0,80.3-184.9,80.9-186.5
			c1.2,0.2,6.6,1.5,7.9,1.7v184.7h69.9V2.6H2481.3L2481.3,2.6z M2994.7,2.6h-69.2v250.6c0.4,26.6-20.9,48.4-47.4,48.8
			c-26.6,0.4-48.4-20.9-48.8-47.4c0-0.4,0-0.9,0-1.4V2.6h-70.1v250.6c-1.1,65.3,51,119.1,116.3,120.1s119.1-51,120.1-116.3
			c0-1.3,0-2.5,0-3.8V2.7L2994.7,2.6L2994.7,2.6z M3436,2.7h-1.1v372.4h70.1v-196c3.5,5.9,115.7,194.6,115.7,194.6h78.7
			c0,0-79-133.2-80.2-135.3c1.5-0.5,4.6-1.7,4.6-1.7c62.6-23.4,94.3-93,71-155.5c-17.2-46-60.5-77-109.6-78.6L3436,2.7L3436,2.7z
			 M3585.6,74c26.4,0.9,47.4,22.8,47.2,49.3c0.4,26.6-20.7,48.5-47.2,49h-80.4V74L3585.6,74L3585.6,74z M2504.6,2.7h-0.9v371.1h70.1
			V241.7h49.9c66-1.3,118.4-55.7,117.3-121.7c-1.2-64.3-53-116-117.3-117.3L2504.6,2.7L2504.6,2.7z M2623.7,74
			c26.7,0.5,47.7,22.6,47.2,49.2c-0.5,25.8-21.4,46.7-47.2,47.2h-49.9V74H2623.7L2623.7,74z M3205.9,2.7h-190.2V74h60.4v299.8h70.1
			V74h60.7V2.7H3205.9L3205.9,2.7z M1318.4,2.7h-72.5c0,0-74.5,145.2-76.2,148.6c-1.7-3.3-76.2-148.6-76.2-148.6h-74.2l115.3,228.1
			l-0.1,143h70.3l0.2-143.4c0.1,0,114.3-226.2,114.3-226.2l0.7-1.5L1318.4,2.7L1318.4,2.7z M1000.2,2.7h-69v371H1096v-71.4h-94.8
			V2.7H1000.2L1000.2,2.7z M908.9,2.7h-65.7v371h66.6V2.7H908.9L908.9,2.7z M820.9,2.7h-78.2c0,0-109,251.6-110.8,255.6L520.8,2.7
			H442v371h69.9V188.9c1.2-0.2,6.6-1.5,7.8-1.7c0.6,1.5,81.1,186.5,81.1,186.5h62.4l81-186.5c1.2,0.3,6.6,1.5,7.8,1.8v184.7h69.9
			V2.7H820.9L820.9,2.7z M191.4,2.7H0v371h71.2V227.6h121.1v-71H71.2V71.1h121.1V2.8L191.4,2.7L191.4,2.7z"/>
		<g>
			<path class="st0" d="M2569.8,498.5h23.1v2.5h-10v29.2h-3.1v-29.2h-10V498.5L2569.8,498.5z"/>
			<path class="st0" d="M2597.1,530.3v-31.7h4.5l10.4,27.9h0.1l10.2-27.9h4.5v31.7h-3V502h-0.1l-10.3,28.2h-2.8l-10.4-28.2h-0.1
				v28.2H2597.1z"/>
		</g>
		<g>
			<path class="st0" d="M3744.5,0h38.3v4.2h-16.6v48.4h-5.1V4.2h-16.6V0H3744.5z"/>
			<path class="st0" d="M3789.6,52.6V0h7.6l17.3,46.4h0.1l17-46.4h7.5v52.6h-5V5.7h-0.1l-17.2,46.9h-4.7l-17.3-46.9h-0.1v46.9
				L3789.6,52.6L3789.6,52.6z"/>
		</g>
	</g>
</g>
</svg>
