<?xml version="1.0" encoding="utf-8"?>
<!-- Generator: Adobe Illustrator 26.5.0, SVG Export Plug-In . SVG Version: 6.00 Build 0)  -->
<svg version="1.1" id="Layer_1" xmlns="http://www.w3.org/2000/svg" xmlns:xlink="http://www.w3.org/1999/xlink" x="0px" y="0px"
	 viewBox="0 0 3839 809.19" style="enable-background:new 0 0 3839 809.19;" xml:space="preserve">
<style type="text/css">
	.st0{fill:#898A8D;}
	.st1{fill:#F47B30;}
	.st2{fill:#FFFFFF;}
	.st3{fill:none;stroke:#FFFFFF;stroke-width:22.2339;}
	.st4{fill:#0194D3;}
	.st5{fill:none;stroke:#FFFFFF;stroke-width:24.7122;}
	.st6{fill:#049FDA;}
	.st7{fill:none;stroke:#FFFFFF;stroke-width:27.4974;}
	.st8{fill:#0BAAE2;}
	.st9{fill:none;stroke:#FFFFFF;stroke-width:30.0937;}
	.st10{fill:#13B5EA;}
	.st11{fill:#A19FA3;}
	.st12{fill:#17B3E8;}
	.st13{fill:none;stroke:#FFFFFF;stroke-width:22.8666;}
	.st14{fill:none;stroke:#FFFFFF;stroke-width:25.4155;}
	.st15{fill:none;stroke:#FFFFFF;stroke-width:28.2799;}
	.st16{fill:none;stroke:#FFFFFF;stroke-width:30.9501;}
	.st17{fill:#CE181E;}
	.st18{fill:#929497;}
	.st19{fill-rule:evenodd;clip-rule:evenodd;fill:#E60012;}
	.st20{fill-rule:evenodd;clip-rule:evenodd;fill:#FFFFFF;}
	.st21{fill-rule:evenodd;clip-rule:evenodd;}
</style>
<g>
	<g>
		<g>
			<path class="st2" d="M678.25,208.95c-3.79-27-18.44-36.65-30.09-39.98l-0.77-0.22l-0.79-0.11c0,0-29.38-3.98-84.83-11.51v-36.34
				c0-36.52-7.53-64.09-23.02-84.3c-17.67-23.05-45.36-35.31-82.33-36.45c-24.71-0.75-49.47,9.08-67.92,26.98
				c-20.21,19.61-31.35,47.52-31.35,78.58v30.53c-2.24-0.16-4.34-0.32-6.33-0.47c0.79,3.11,1.52,6.24,2.09,9.4
				c0.11,0.63,0.13,1.26,0.06,1.86c4.55,0.34,9.62,0.7,15.29,1.09v-42.41c0-61.03,45.31-95.76,87.84-94.47
				c70.84,2.16,94.61,46.88,94.61,109.68v45.99c61.65,8.37,94.42,12.81,94.42,12.81c13.8,3.95,20.1,15.66,22.22,31.22
				c0,0,7.34,32.42,7.34,160.86c0,128.51-7.34,196.6-7.34,196.6c0,14.79-9.71,23.42-21.7,19.81c-0.49,3.68-1.68,7.25-2.01,10.93
				c2.44,0.63,4.88,0.95,7.28,0.95c5.55,0,10.85-1.66,15.3-4.88c7.62-5.52,12.04-15.05,12.2-26.19c0.7-6.92,7.32-75.71,7.32-197.21
				C685.71,250.7,679.24,213.87,678.25,208.95z"/>
		</g>
		<path class="st2" d="M402.85,150.68c14.91,1.25,31.43,2.73,49.82,4.61c21.23,2.12,40.72,4.3,58.61,6.44v-42.51
			c0-35.85-13.12-66.16-55.2-70.16c-32.07-2.52-53.23,21.47-53.23,59.79V150.68z M413.93,108.86c0-17.52,5.02-31.81,14.13-40.24
			c7.02-6.49,16.13-9.36,27.07-8.52c16.36,1.57,27.87,7.57,35.18,18.33c6.57,9.66,9.9,23.39,9.9,40.8v30.05
			c-15.85-1.84-31.15-3.48-46.41-5.01c-12.91-1.32-26.03-2.56-39.87-3.76V108.86z"/>
		<path class="st2" d="M288.82,150.13c-27.35-2.25-45.94-3.22-50.47-3.44c-7.15-1.39-14.19,0.31-19.97,4.83
			c-4.53,3.55-7.93,8.58-10,14.57c1.11-0.59,2.46-0.78,3.8-0.55c3.06,0.53,6.11,1.04,9.18,1.4c3.27-6.3,8.93-9.61,15.38-8.01
			c0,0,19.95,0.88,51.8,3.51C288.18,158.32,288.18,154.18,288.82,150.13z"/>
		<path class="st2" d="M643.23,241.23c-3.17-23.46-13.53-38.36-30.8-44.27l-0.89-0.31l-0.93-0.17
			c-1.29-0.23-129.52-23.06-215.66-34.83c-14.76-2.02-29.06-3.78-42.62-5.32c0.58,4.18,1.02,8.38,2.23,12.45
			c0.02,0.07,0.03,0.13,0.05,0.19c12.36,1.43,25.31,3.05,38.67,4.87c86.9,11.87,215.17,34.75,215.17,34.75
			c14.08,4.82,19.44,16.55,22.62,34.49c0,0,7.57,42.01,7.57,182.47c0,140.48-7.57,216.25-7.57,216.25
			c-2.66,16.79-10.16,25.27-22.62,20.74l-23.81-6.18c-1.09,3.96-2.24,7.9-3.13,11.9l23.34,6.06c3.26,1.11,6.56,1.67,9.78,1.66
			c5.52,0,10.82-1.61,15.34-4.78c8.38-5.86,13.24-16.33,13.4-28.78c0.7-7.44,7.57-83.85,7.57-216.88
			C650.95,290.28,643.98,245.64,643.23,241.23z"/>
		<path class="st2" d="M287.47,175.36c0-0.07,0.01-0.14,0.01-0.21c-47.2-8.76-81.61-14.14-104.1-17.31c-0.4,4.6-0.37,9.21-0.7,13.8
			c22.74,3.25,57.36,8.69,104.57,17.45C287.31,184.51,287.45,179.94,287.47,175.36z"/>
		<path class="st2" d="M583.25,281.91c-3.28-26.12-14.53-42.55-33.44-48.83l-0.8-0.24c-84.34-22.38-90.36-23.97-190.43-43.87
			c0.04,4.63,0.04,9.23-0.47,13.85c96.17,19.08,115.94,23.85,187.39,43.26c17.47,5.31,22.52,19.68,24.17,37.59
			c0,0,6.89,50.41,6.89,199.16c0,148.78-6.89,223.14-6.89,223.14c-2.12,16.93-10.82,25.77-24.17,20.24l-53.23-17.48
			c0.46,4.77,0.34,9.53-0.25,14.33l48.78,16.02c4.12,1.63,8.3,2.44,12.36,2.44c5.68,0,11.11-1.59,15.8-4.72
			c9.01-6.02,14.24-17,14.4-30.18c0.65-7.49,6.89-83.09,6.89-223.79C590.25,336.53,583.68,285.09,583.25,281.91z"/>
		<g>
			<path class="st2" d="M493.9,324.19c-0.08-1.42-0.33-2.83-0.73-4.21c-2.46-22.05-15.5-40.28-34.39-47.89l-0.81-0.3
				c-0.37-0.13-36.06-12.14-97.96-30.6v-48.02c0-92.42-41.02-147.84-121.91-164.74c-29.89-6.23-60.04,0.77-82.73,19.22
				c-24.86,20.21-38.55,52.47-38.55,90.84v36.22c-52.26-12.85-74.91-17.1-77.15-17.51c-10.04-1.99-19.4,0.04-26.36,5.74
				c-5.5,4.5-12.07,13.37-12.07,30.02v4.84c-0.83,18.6-2.49,75.41,0.33,195.66c3.28,140.33,9,187.9,10.07,195.76
				c0.28,21,8.59,36.27,26.84,49.42l0.68,0.49l0.74,0.41c1.61,0.9,40.95,22.75,183.62,81.28c142.32,58.39,224.5,85.74,225.32,86.01
				l0.16,0.05c5.17,1.65,9.74,2.31,13.77,2.31c8.2,0,14.12-2.77,18.05-5.64c5.91-4.32,12.93-13,13.12-29.91
				c0.59-7.1,5.15-67.76,5.15-231.86C499.09,378.78,494.55,330.29,493.9,324.19z M478.96,772.96c0,17.7-9.62,24.66-25.39,19.63
				c0,0-80.88-26.78-224.34-85.65c-143.46-58.85-182-80.48-182-80.48c-15.56-11.21-20.6-22.64-20.6-38.37c0,0-6.49-42.23-10.06-195
				c-3.22-136.15-0.66-189.99-0.07-200.08l-0.26-0.07c0-15.78,7.71-23.65,20.6-21.04c0,0,27.27,4.94,94.96,21.96v-55.39
				c0-73.47,53.44-105.77,103.26-95.38c82.5,17.23,109.96,75.35,109.96,150.07v59.2c69,20.41,108.17,33.62,108.17,33.62
				c15.4,6.21,23.96,21.21,25.25,37.29c0.33,0.73,0.52,1.41,0.52,2.05c0,0,5.12,43.54,5.12,216.46
				C484.08,714.7,478.96,772.96,478.96,772.96z"/>
		</g>
		<path class="st2" d="M299.43,239.08v-55.6c0-42.77-15.33-81.61-64.37-94.96c-37.55-9.57-62.42,14.86-62.42,60.89v54.94
			c16.88,4.44,35.62,9.43,56.21,15.05C254.26,226.31,277.82,232.92,299.43,239.08z M187.62,149.41c0-19.98,5.28-35.09,14.86-42.53
			c7.18-5.58,16.85-6.88,28.76-3.87c35.8,9.8,53.2,36.12,53.2,80.47v35.77c-17.75-5-34.79-9.73-51.65-14.31
			c-14.48-3.95-29.06-7.87-45.17-12.13V149.41z"/>
		<path class="st2" d="M264.19,421.88c0,8.3,5.62,16.88,12.58,19.14c7.34,2.35,13.1-2.52,13.1-11.05c0-8.58-5.76-17.05-13.1-19.28
			C269.81,408.52,264.19,413.55,264.19,421.88"/>
		<polygon class="st2" points="266.27,539.19 287.95,547.28 287.95,459.89 266.27,452.74 		"/>
		<path class="st2" d="M308.66,435.86c0,8.49,5.85,17.3,13.17,19.68c7.64,2.47,13.66-2.47,13.66-11.24
			c0-8.75-6.02-17.47-13.66-19.82C314.52,422.23,308.66,427.38,308.66,435.86"/>
		<polygon class="st2" points="310.85,555.82 333.49,564.3 333.49,474.92 310.85,467.44 		"/>
		<path class="st2" d="M232.77,404.27l-17.99,83.84c0,0-13.54-71.5-15.68-81.65c-2.19-10.16-6.7-15.68-12.98-17.63
			c-6.28-1.95-10.65,0.8-12.81,9.43c-2.07,8.63-15.05,69.62-15.05,69.62l-16.6-91.97l-19.68-6.11c0,0,18.86,97.59,21.42,109.18
			c2.05,9.08,6.89,17.66,14.11,20.36c8.23,3.1,12.16-3.41,13.94-10.11c1.81-6.63,14.67-64.02,14.67-64.02s13,66.79,14.88,74.88
			c1.88,8.13,5.95,17.82,14.62,21.02c7.71,2.92,12.95-2.26,15.16-10.09c2.87-10.16,24.12-99.85,24.12-99.85L232.77,404.27"/>
	</g>
	<g>
		<g>
			<g>
				<path class="st2" d="M1617.98,199.42c0,32.64,27.56,59.2,61.36,59.2c35.18,0,62.74-26.02,62.74-59.2
					c0-33.26-27.64-59.28-62.74-59.28C1645.47,140.14,1617.98,166.7,1617.98,199.42z"/>
				<path class="st2" d="M1628.22,317.82c0,5.23,0,333.57,0,338.81c5,0,99.69,0,104.7,0c0-5.23,0-333.57,0-338.81
					C1727.92,317.82,1633.15,317.82,1628.22,317.82z"/>
				<path class="st2" d="M1830.92,199.42c0,32.64,27.56,59.2,61.36,59.2c35.18,0,62.82-26.02,62.82-59.2
					c0-33.26-27.64-59.28-62.82-59.28C1858.33,140.14,1830.92,166.7,1830.92,199.42z"/>
				<path class="st2" d="M1841.01,317.82c0,5.23,0,333.57,0,338.81c5,0,99.77,0,104.7,0c0-5.23,0-333.57,0-338.81
					C1940.78,317.82,1846.01,317.82,1841.01,317.82z"/>
				<path class="st2" d="M1461.47,168.62L1369.4,528.6c0,0-70.21-270.29-81.6-308.55c-11.39-38.42-34.95-55.27-68.28-55.27
					s-56.89,16.78-68.28,55.27c-11.39,38.34-81.6,308.55-81.6,308.55l-91.84-359.98H867.16c0,0,106.16,384.07,120.56,428.57
					c11.24,34.72,37.88,63.13,77.37,63.13c45.11,0,66.21-32.87,75.91-63.13c9.7-30.02,78.45-283.69,78.45-283.69
					s68.82,253.66,78.52,283.69c9.7,30.25,30.87,63.13,75.98,63.13c39.42,0,66.05-28.41,77.37-63.13
					c14.47-44.5,120.87-428.57,120.87-428.57H1461.47z"/>
			</g>
			<g>
				<path class="st2" d="M2560.8,168.05l-58.01,329.13l-0.22,1.28c-1.32,7.87-8.44,33.51-23.48,46.92
					c-3.21,2.77-12.67,11.3-35.62,11.48c-45.12,0.31-45.6-43.23-43.32-63.59l30.87-174.99l0.22-1.58l-31,175.82l57.26-324.47
					h-104.58l-26.21,148.69v-0.04l-19.79,112.49l-0.66,3.65l20.45-116.1l-0.31,1.54l-30.7,174.33
					c-4.71,20.05-20.27,64.56-65.79,64.25c-23-0.18-29.51-8.71-31.66-11.48c-10.33-13.41-8.4-39.05-6.9-46.92l0.22-1.28
					l58.05-329.13l-104.45-0.75l-58.05,328.95c-2.33,12.58-12.44,77.05,22.65,123.8c15.26,20.45,45.25,44.9,101.02,45.21
					c46.75,0.31,84.7-17.2,114.21-42.48c20.63,25.29,52.47,42.79,99.35,42.48c55.85-0.31,94.38-24.76,116.94-45.21
					c51.58-46.75,64.16-111.22,66.23-123.8l57.96-328.95L2560.8,168.05z"/>
				<path class="st2" d="M2853.5,646.6c-22.03,13.9-45.03,18.69-74.02,18.69c-68.78,0-146.14-65.35-123.36-190.69
					c19.96-109.55,110.56-192.14,215.36-192.14c102.03,0,175.34,61.57,154.27,177.19l-35.76,196.58h-108.09l30.52-168.13
					c11.79-64.52,2.77-103.61-55.63-103.61c-50.62,0-84.13,43.89-92.09,87.12c-10.25,56.73,15.88,84.09,56.42,84.09
					c19.79,0,37.56-4.44,50.49-9.24L2853.5,646.6z"/>
				<path class="st2" d="M3289.46,312.91c-29.51,0-56.34,8.09-80.83,23.4l9.32-51.76h-108.01l-68.08,372.31h108.09l36.19-197.72
					c7.78-20.14,28.98-50.35,85.93-50.35h76.56l17.37-95.87h-76.21"/>
				<path class="st2" d="M3465.67,470.82c-14.29,81.36,25.64,108.93,69.26,108.93c36.76,0,64.78-18.82,88.13-44.29l68.52,57.74
					c-44.02,45.78-107.97,72.08-166.54,72.08c-112.49,0-189.41-75.07-168.87-191.43c20.49-116.28,111.22-191.3,223.8-191.3
					c89.89,0,170.5,74.98,150,191.3l-6.2,35.27h-230.88l13.5-76.52h118.26c7.39-37.51-16.32-69.09-56.95-69.09
					C3518.22,363.52,3480.05,389.6,3465.67,470.82"/>
			</g>
		</g>
		<polygon class="st2" points="3724.31,595.47 3772.32,595.47 3772.32,604.55 3753.42,604.55 3753.42,656.89 3743.22,656.89 
			3743.22,604.55 3724.31,604.55 		"/>
		<polygon class="st2" points="3779.62,595.47 3794.32,595.47 3809.15,644.53 3824.17,595.47 3839,595.47 3839,656.89 
			3829.36,656.89 3829.36,606.03 3814.16,656.89 3804.15,656.89 3789.07,606.03 3789.07,656.89 3779.62,656.89 		"/>
	</g>
</g>
</svg>
