<?xml version="1.0" encoding="utf-8"?>
<!-- Generator: Adobe Illustrator 26.0.2, SVG Export Plug-In . SVG Version: 6.00 Build 0)  -->
<svg version="1.1" id="Layer_1" xmlns="http://www.w3.org/2000/svg" xmlns:xlink="http://www.w3.org/1999/xlink" x="0px" y="0px"
	 viewBox="0 0 3839 520.2" style="enable-background:new 0 0 3839 520.2;" xml:space="preserve">
<style type="text/css">
	.st0{display:none;}
	.st1{display:inline;fill:#FFFFFF;}
	.st2{display:inline;}
	.st3{fill:#2920E2;}
	.st4{fill:#FFFFFF;}
</style>
<g>
	<g>
		<path class="st4" d="M882.3,467.2C882.3,467.2,882.5,467.3,882.3,467.2c12-7.8,20.1-21.6,20.1-37.3c0-24.3-19.2-44.1-43-44.1h-9.6
			H733.6v49.2v85.1h44.8V494c0-4.6,3.8-8.3,8.3-8.3h61c4.6,0,8.3,3.8,8.3,8.3v0.8v25.3h42.8v-25.3
			C898.7,488.3,896,476.2,882.3,467.2z M786.9,452c-4.6,0-8.3-3.8-8.3-8.3v-17.1c0-4.6,3.8-8.3,8.3-8.3h61c4.6,0,8.3,3.8,8.3,8.3
			v17.1c0,4.6-3.8,8.3-8.3,8.3H786.9z"/>
		<path class="st4" d="M1220,385.9h-10.2H1186h-16.2h-23.8h-10.2c-22,0-39.9,17.8-39.9,39.9v10.7v83.7h43.9v-33.1h76v33.1h43.9
			v-83.7v-10.7C1259.9,403.7,1242.1,385.9,1220,385.9z M1140.1,451.9v-21.3c0-6.1,4.9-11,11-11h18.8h16.2h18.8c6.1,0,11,4.9,11,11
			v21.3H1140.1z"/>
		<rect x="1289.8" y="385.9" class="st4" width="45.5" height="134.3"/>
		<path class="st4" d="M1506.1,385.9h-142.9v134.3h43.3v-90c0-5.4,4.4-9.9,9.9-9.9h74.2c5.4,0,9.9,4.4,9.9,9.9v27.4v62.6h42.6v-62.6
			v-10.8v-16.2v-7.7C1543,402.4,1526.5,385.9,1506.1,385.9z"/>
		<path class="st4" d="M1767,385.9h-195.4v134.3h39.6v-84v-6.4c0-5.2,4.3-9.5,9.5-9.5h33.9c5.2,0,9.5,4.3,9.5,9.5v16.4l0,0v74h44.7
			v-84v-6.4c0-5.2,4.3-9.5,9.5-9.5h33.9c5.2,0,9.5,4.3,9.5,9.5v6.4v84h2.2h42.6v-94.9C1806.3,403.5,1788.7,385.9,1767,385.9z"/>
		<path class="st4" d="M2150.9,385.9h-142.9v134.3h43.3v-90c0-5.4,4.4-9.9,9.9-9.9h74.2c5.4,0,9.9,4.4,9.9,9.9v27.4v62.6h42.6v-62.6
			v-10.8v-16.2v-7.7C2187.9,402.4,2171.3,385.9,2150.9,385.9z"/>
		<path class="st4" d="M321.3,385.9H178.4v134.3h43.3v-90c0-5.4,4.4-9.9,9.9-9.9h74.2c5.4,0,9.9,4.4,9.9,9.9v27.4v62.6h42.6v-62.6
			v-10.8v-16.2v-7.7C358.2,402.4,341.7,385.9,321.3,385.9z"/>
		<path class="st4" d="M150.4,420v-34.1H39.6l0,0H0v94.8c0,21.8,17.6,39.5,39.5,39.5h110.9v-34.1H50.2c-5.9,0-10.6-4.8-10.6-10.6
			l0,0c0-5.9,4.8-10.6,10.6-10.6h94.4v-23.7H50.2c-5.9,0-10.6-4.8-10.6-10.6l0,0c0-5.9,4.8-10.6,10.6-10.6L150.4,420z"/>
		<path class="st4" d="M707.8,420v-34.1H597l0,0h-39.6v94.8c0,21.8,17.6,39.5,39.5,39.5h110.9v-34.1H607.6
			c-5.9,0-10.6-4.8-10.6-10.6l0,0c0-5.9,4.8-10.6,10.6-10.6h94.4v-23.7h-94.4c-5.9,0-10.6-4.8-10.6-10.6l0,0
			c0-5.9,4.8-10.6,10.6-10.6L707.8,420z"/>
		<path class="st4" d="M1981.6,420v-34.1h-110.8l0,0h-39.6v94.8c0,21.8,17.6,39.5,39.5,39.5h110.9v-34.1h-100.2
			c-5.9,0-10.6-4.8-10.6-10.6l0,0c0-5.9,4.8-10.6,10.6-10.6h94.4v-23.7h-94.4c-5.9,0-10.6-4.8-10.6-10.6l0,0
			c0-5.9,4.8-10.6,10.6-10.6L1981.6,420L1981.6,420z"/>
		<path class="st4" d="M2369,385.9h-161.5v33.8h47.5c5.2,0,9.4,4.2,9.4,9.4v91.1h47.7V429c0-5.2,4.2-9.4,9.4-9.4h47.5V385.9z"/>
		<path class="st4" d="M1078,385.9H916.5v33.8H964c5.2,0,9.4,4.2,9.4,9.4v91.1h47.7V429c0-5.2,4.2-9.4,9.4-9.4h47.5V385.9
			L1078,385.9z"/>
		<path class="st4" d="M537.2,385.9H375.7v33.8h47.5c5.2,0,9.4,4.2,9.4,9.4v91.1h47.7V429c0-5.2,4.2-9.4,9.4-9.4h47.5L537.2,385.9
			L537.2,385.9z"/>
	</g>
	<g>
		<path class="st4" d="M2979.6,440.5h-63.1c-7.3,0-12.5-3-12.5-9.6c0-5.9,4.4-11,10.3-11h107.9v-33.9h-118.1
			c-22,0-40.4,18.5-40.4,39.1c0,29.5,19.1,40.6,44.7,40.6h63.1c6.6,0,13.2,3,13.2,9.6c0,5.9-4.4,11-10.3,11h-110.8v33.9h121
			c19.8,0,40.4-16.2,40.4-39.1C3025,453.8,3003,440.5,2979.6,440.5z"/>
		<path class="st4" d="M2618.6,440.6H2557c-7.3,0-13.2-3-13.2-9.6c0-5.9,5.9-11,11-11h107.9V386h-118.1c-23.4,0-42.6,18.5-42.6,39.1
			c0,29.4,20.5,40.5,46.2,40.5h61.6c7.3,0,13.2,3,13.2,9.6c0,5.9-5.9,11-11,11h-109.3v33.9h121c22,0,41.8-16.2,41.8-39.1
			C2665.6,453.8,2644.3,440.6,2618.6,440.6z"/>
		<path class="st4" d="M3589.5,386h-195.4v134.3h39.6v-84v-6.4c0-5.2,4.3-9.5,9.5-9.5h33.9c5.2,0,9.5,4.3,9.5,9.5v16.4l0,0v74h44.7
			v-84v-6.4c0-5.2,4.3-9.5,9.5-9.5h33.9c5.2,0,9.5,4.3,9.5,9.5v6.4v84h2.2h42.6v-94.9C3628.9,403.5,3611.2,386,3589.5,386z"/>
		<path class="st4" d="M2843.9,386h-40.4h-0.2v50.1c0,5.6-4.6,10.1-10.1,10.1h-60.3c-5.6,0-10.1-4.6-10.1-10.1V386h-0.9h-41.6v49.2
			v7c0,21.2,17.2,38.4,38.4,38.4h20.2v39.6h47v-39.6h20.6c21.2,0,38.4-17.2,38.4-38.4V386H2843.9L2843.9,386z"/>
		<path class="st4" d="M3367.5,420v-34.1h-110.8l0,0h-39.6v94.8c0,21.8,17.6,39.5,39.5,39.5h110.9v-34.1h-100.2
			c-5.9,0-10.6-4.8-10.6-10.6l0,0c0-5.9,4.8-10.6,10.6-10.6h94.4v-23.7h-94.4c-5.9,0-10.6-4.8-10.6-10.6l0,0
			c0-5.9,4.8-10.6,10.6-10.6L3367.5,420L3367.5,420z"/>
		<path class="st4" d="M3200.1,385.9h-161.5v33.8h47.5c5.2,0,9.4,4.2,9.4,9.4v91.1h47.7V429c0-5.2,4.2-9.4,9.4-9.4h47.5V385.9z"/>
	</g>
	<g>
		<path class="st4" d="M3821,385.9h-89v61.2h18v-38.2v-2.9c0-2.4,1.9-4.3,4.3-4.3h15.4c2.4,0,4.3,1.9,4.3,4.3v7.4l0,0v33.7h20.4
			v-38.2v-2.9c0-2.4,1.9-4.3,4.3-4.3h15.4c2.4,0,4.3,1.9,4.3,4.3v2.9v38.2h1h19.4v-43.2C3839,393.9,3830.9,385.9,3821,385.9z"/>
		<path class="st4" d="M3720.3,385.9h-73.5v15.4h21.6c2.4,0,4.3,1.9,4.3,4.3V447h21.7v-41.5c0-2.4,1.9-4.3,4.3-4.3h21.6V385.9z"/>
	</g>
	<g>
		<path class="st4" d="M206,194.1L86.6,0.7H0v276.8h85.7V84.2l120.1,193.4h85.7V0.7H206V194.1z M884.4,93.5V66.1h-45.3V28.7h-83.4
			v37.4h-45.3v27.4h45.3v184h83.4v-184H884.4z M339.2,277.5h83.4v-184h-83.4V277.5z M339.2,56.9h83.4V0h-83.4V56.9z M1797.4,81
			c-67,0-121.6,46-121.6,103.7c0,56.9,54.6,103.7,121.6,103.7s121.6-46,121.6-103.7C1919,127,1866.1,81,1797.4,81z M1831,222.9
			c0,29.6-17.2,41.3-34.3,41.3c-16.4,0-34.3-12.5-34.3-41.3c0-11,0-39.8,0-39.8s0-27.4,0-38.2c0-28.9,17.2-41.3,34.3-41.3
			c16.4,0,34.3,11.7,34.3,41.3c0,11,0,31.9,0,39C1831,184.8,1831,212.1,1831,222.9z M1567.4,102.8c-13.2-7.8-27.4-14.8-46.8-16.4
			c-60-5.4-106.1,47.6-106.1,96.7c0,64,49.1,88.2,56.9,91.2c28.1,13.2,64,13.2,95.9-7c0,1.6,0,11,0,11h82V1.5h-81.9
			C1567.4,0.7,1567.4,60,1567.4,102.8z M1567.4,184.8c0,0,0,21.1,0,32.7c0,28.1-19.5,35.9-32.7,35.9c-13.2,0-32.7-7.8-32.7-35.9
			c0-10.2,0-32.7,0-32.7s0-23.4,0-32.7c0-28.9,19.5-35.9,32.7-35.9c13.2,0,32.7,7,32.7,35.9C1567.4,161.4,1567.4,184.8,1567.4,184.8
			z M617.6,84.9c-27.4,0.8-50.6,12.5-66.2,28.1c0-4.7,0-19.5,0-19.5h-82.6v184h82.6c0,0,0-113.1,0-120.9c0-16.4,17.2-33.6,39.8-33.6
			s38.2,17.9,38.2,33.6c0,11.7,0,120.9,0,120.9H712c0,0,0-87.4,0-99.8C712,104.4,648.9,84.2,617.6,84.9z M1294.5,84.9
			c-27.4,0.8-50.6,12.5-66.2,28.1c0-4.7,0-19.5,0-19.5h-82.6v184h82.6c0,0,0-113.1,0-120.9c0-16.4,17.2-33.6,39.8-33.6
			c22.6,0,38.2,17.9,38.2,33.6c0,11.7,0,120.9,0,120.9h82.6c0,0,0-87.4,0-99.8C1388.1,104.4,1324.9,84.2,1294.5,84.9z M1119,186.3
			c0-56.9-55.4-104.5-123.2-104.5c-67.8,0-122.4,46-122.4,103.7c0,56.9,54.6,103.7,122.4,103.7c56.1,0,103.7-31.9,118.5-75.7h-82.6
			c0,0,0,0.8,0,11c0,33.6-21.8,41.3-34.3,41.3c-12.5,0-35.1-7.8-35.1-41.3c0-10.2,0-38.2,0-38.2H1119z M968.6,121.6
			c6.2-11.7,18.7-16.4,29.6-17.2c11,0,22.6,5.4,29.6,17.2c5.4,9.4,5.4,20.3,5.4,35.9h-69.5C962.3,141.1,962.3,131,968.6,121.6z
			 M1948.9,55.4c0-9.4-7-13.3-20.3-13.3h-18.7v47.6h11.7V70.2h5.4l9.4,19.5h12.5l-10.2-21.1C1945,66.3,1948.9,61.6,1948.9,55.4z
			 M1927,62.4h-5.4v-14h4.7c7,0,10.2,2.3,10.2,7C1937.1,60.9,1933.3,62.4,1927,62.4z M1927,23.4c-23.4,0-42.9,18.7-42.9,42.9
			c0,23.4,19.5,42.9,42.9,42.9s42.9-19.5,42.9-42.9C1969.9,42.1,1950.4,23.4,1927,23.4z M1927,100.6c-18.7,0-34.3-15.6-34.3-34.3
			c0-18.7,15.6-34.3,34.3-34.3c18.7,0,34.3,15.6,34.3,34.3C1961.3,85.1,1946.5,100.6,1927,100.6z"/>
	</g>
</g>
</svg>
