<?xml version="1.0" encoding="utf-8"?>
<!-- Generator: Adobe Illustrator 26.0.2, SVG Export Plug-In . SVG Version: 6.00 Build 0)  -->
<svg version="1.1" xmlns="http://www.w3.org/2000/svg" xmlns:xlink="http://www.w3.org/1999/xlink" x="0px" y="0px"
	 viewBox="0 0 3839 850.1" style="enable-background:new 0 0 3839 850.1;" xml:space="preserve">
<style type="text/css">
	.st0{display:none;}
	.st1{display:inline;}
	.st2{fill:#FF1F1F;}
	.st3{fill:#FFFFFF;}
	.st4{fill:#FF1F1F;stroke:#FF1F1F;stroke-width:12.9372;stroke-miterlimit:10;}
	.st5{fill:none;stroke:#FF1F1F;stroke-width:12.9372;stroke-miterlimit:10;}
	.st6{fill:#FF1F1F;stroke:#000000;stroke-width:4.5925;stroke-miterlimit:10;}
	.st7{fill:#FF6A15;stroke:#000000;stroke-width:4.5925;stroke-miterlimit:10;}
	.st8{fill:#FFB40A;stroke:#000000;stroke-width:4.5925;stroke-miterlimit:10;}
	.st9{fill:#FFFF00;stroke:#000000;stroke-width:4.5925;stroke-miterlimit:10;}
	.st10{fill:#FFFFFF;stroke:#FFFFFF;stroke-width:12.9372;stroke-miterlimit:10;}
	.st11{fill:none;stroke:#FFFFFF;stroke-width:12.9372;stroke-miterlimit:10;}
	.st12{fill:#FF0074;stroke:#000000;stroke-width:4.5925;stroke-miterlimit:10;}
	.st13{fill:#FF803A;stroke:#000000;stroke-width:4.5925;stroke-miterlimit:10;}
	.st14{fill:#FFFFFF;stroke:#000000;stroke-width:4.5925;stroke-miterlimit:10;}
	.st15{fill:#FF0074;stroke:#000000;stroke-width:7.2529;stroke-miterlimit:10;}
	.st16{fill:#FF803A;stroke:#000000;stroke-width:7.2529;stroke-miterlimit:10;}
	.st17{fill:#FFFF00;stroke:#000000;stroke-width:7.2529;stroke-miterlimit:10;}
	.st18{fill:#FFFFFF;stroke:#000000;stroke-width:7.2529;stroke-miterlimit:10;}
	.st19{fill:#FF1F1F;stroke:#000000;stroke-width:6.6981;stroke-miterlimit:10;}
	.st20{fill:#FF6A15;stroke:#000000;stroke-width:6.6981;stroke-miterlimit:10;}
	.st21{fill:#FFB40A;stroke:#000000;stroke-width:6.6981;stroke-miterlimit:10;}
	.st22{fill:#FFFF00;stroke:#000000;stroke-width:6.6981;stroke-miterlimit:10;}
	.st23{fill:#FF1F1F;stroke:#FF1F1F;stroke-width:20.3455;stroke-miterlimit:10;}
	.st24{fill:none;stroke:#FF1F1F;stroke-width:20.3455;stroke-miterlimit:10;}
	.st25{fill:#FF1F1F;stroke:#000000;stroke-width:7.2224;stroke-miterlimit:10;}
	.st26{fill:#FF6A15;stroke:#000000;stroke-width:7.2224;stroke-miterlimit:10;}
	.st27{fill:#FFB40A;stroke:#000000;stroke-width:7.2224;stroke-miterlimit:10;}
	.st28{fill:#FFFF00;stroke:#000000;stroke-width:7.2224;stroke-miterlimit:10;}
	.st29{fill:#FFFFFF;stroke:#FFFFFF;stroke-width:20.3455;stroke-miterlimit:10;}
	.st30{fill:none;stroke:#FFFFFF;stroke-width:20.3455;stroke-miterlimit:10;}
	.st31{fill:#FF0074;stroke:#000000;stroke-width:7.2224;stroke-miterlimit:10;}
	.st32{fill:#FF803A;stroke:#000000;stroke-width:7.2224;stroke-miterlimit:10;}
	.st33{fill:#FFFFFF;stroke:#000000;stroke-width:7.2224;stroke-miterlimit:10;}
	.st34{stroke:#000000;stroke-width:12.9372;stroke-miterlimit:10;}
	.st35{fill:none;stroke:#000000;stroke-width:12.9372;stroke-miterlimit:10;}
	.st36{stroke:#000000;stroke-width:20.3455;stroke-miterlimit:10;}
	.st37{fill:none;stroke:#000000;stroke-width:20.3455;stroke-miterlimit:10;}
	.st38{fill:none;stroke:#000000;stroke-width:7.2529;stroke-miterlimit:10;}
	.st39{fill:none;stroke:#000000;stroke-width:4.5925;stroke-miterlimit:10;}
	.st40{fill:none;stroke:#000000;stroke-width:7.2224;stroke-miterlimit:10;}
	.st41{fill:none;stroke:#FFFFFF;stroke-width:7.2529;stroke-miterlimit:10;}
	.st42{fill:none;stroke:#FFFFFF;stroke-width:4.5925;stroke-miterlimit:10;}
	.st43{fill:none;stroke:#FFFFFF;stroke-width:7.2224;stroke-miterlimit:10;}
	.st44{fill:#FF1F1F;stroke:#000000;stroke-width:4.5799;stroke-miterlimit:10;}
	.st45{fill:#FF6A15;stroke:#000000;stroke-width:4.5799;stroke-miterlimit:10;}
	.st46{fill:#FFB40A;stroke:#000000;stroke-width:4.5799;stroke-miterlimit:10;}
	.st47{fill:#FFFF00;stroke:#000000;stroke-width:4.5799;stroke-miterlimit:10;}
	.st48{fill:#FF0074;stroke:#000000;stroke-width:4.5799;stroke-miterlimit:10;}
	.st49{fill:#FF803A;stroke:#000000;stroke-width:4.5799;stroke-miterlimit:10;}
	.st50{fill:#FFFFFF;stroke:#000000;stroke-width:4.5799;stroke-miterlimit:10;}
	.st51{fill:#FF0074;}
	.st52{fill:#FF803A;}
	.st53{fill:#FFFF00;}
	.st54{fill:#FF6A15;}
	.st55{fill:#FFB40A;}
	.st56{fill:none;stroke:#000000;stroke-width:4.5799;stroke-miterlimit:10;}
	.st57{fill:none;stroke:#FFFFFF;stroke-width:4.5799;stroke-miterlimit:10;}
</style>
<g id="copy_with_strokes" class="st0">
	<g class="st1">
		
			<rect x="786.2" y="400.4" transform="matrix(-1.836970e-16 1 -1 -1.836970e-16 1254.0995 -409.046)" class="st29" width="90.7" height="44.2"/>
		
			<rect x="1304.8" y="337.5" transform="matrix(-1.836970e-16 1 -1 -1.836970e-16 1772.7198 -927.6663)" class="st29" width="90.7" height="170"/>
		
			<rect x="2107.3" y="395.9" transform="matrix(-1.836970e-16 1 -1 -1.836970e-16 2575.1597 -1730.1105)" class="st29" width="90.7" height="53.3"/>
		<path class="st29" d="M3002.6,515.2l64.6-64.6c-36.8-44.4-89.9-74.8-150.2-82v91.8C2952.1,467.3,2982.3,487.4,3002.6,515.2z"/>
		
			<rect x="786.2" y="752.3" transform="matrix(-1.836970e-16 1 -1 -1.836970e-16 1605.9946 -57.1509)" class="st29" width="90.7" height="44.2"/>
		
			<rect x="1304.8" y="689.4" transform="matrix(-1.836970e-16 1 -1 -1.836970e-16 2124.615 -575.7712)" class="st29" width="90.7" height="170"/>
		<rect x="510" y="377.2" class="st29" width="90.7" height="442.6"/>
		<rect x="664" y="377.2" class="st29" width="90.7" height="442.6"/>
		<g>
			<path class="st3" d="M853.7,819.8c0-30.2,0-60.5,0-90.7c174.1,0,174.1-261.2,0-261.2c0-30.2,0-60.5,0-90.7
				C1148.7,377.2,1148.7,819.8,853.7,819.8z"/>
			<path class="st30" d="M853.7,819.8c0-30.2,0-60.5,0-90.7c174.1,0,174.1-261.2,0-261.2c0-30.2,0-60.5,0-90.7
				C1148.7,377.2,1148.7,819.8,853.7,819.8z"/>
		</g>
		<rect x="1119.7" y="377.2" class="st29" width="90.7" height="442.6"/>
		
			<rect x="1304.8" y="513.5" transform="matrix(-1.836970e-16 1 -1 -1.836970e-16 1948.6674 -751.7188)" class="st29" width="90.7" height="170"/>
		
			<rect x="2107.3" y="571.8" transform="matrix(-1.836970e-16 1 -1 -1.836970e-16 2751.1074 -1554.163)" class="st29" width="90.7" height="53.3"/>
		<rect x="1980.5" y="377.2" class="st29" width="90.7" height="442.6"/>
		<path class="st29" d="M2179.3,643.8c0-30.3,0-60.4,0-90.7c56.2,0,56.2-85.3,0-85.3c0-30.3,0-60.4,0-90.7
			C2356.4,377.2,2356.4,643.8,2179.3,643.8z"/>
		<path class="st29" d="M1569.9,570c12.7-64,69.2-112.3,137-112.3c67.8,0,124.3,48.3,137,112.3h91.8
			c-13.6-114.3-110.8-203-228.8-203s-215.2,88.7-228.8,203H1569.9z"/>
		<path class="st29" d="M1843.9,624.8c-12.7,64-69.2,112.3-137,112.3c-67.8,0-124.3-48.3-137-112.3h-91.8
			c13.6,114.3,110.8,203,228.8,203c118,0,215.2-88.7,228.8-203H1843.9z"/>
		<polygon class="st29" points="373.7,377.2 271.1,578.8 322,678.8 475.5,377.2 		"/>
		<polygon class="st29" points="240.4,639.2 107,377.2 5.3,377.2 240.4,839.2 291.2,739.2 240.4,639.2 		"/>
		<path class="st29" d="M2862.3,734.4c-64-12.7-112.3-69.2-112.3-137c0-67.8,48.3-124.3,112.3-137v-91.8
			c-114.3,13.6-203,110.8-203,228.8s88.7,215.2,203,228.8V734.4z"/>
		<path class="st29" d="M3002.6,679.6c-20.3,27.8-50.5,47.8-85.5,54.8v91.8c60.3-7.1,113.4-37.5,150.2-82L3002.6,679.6z"/>
		<polygon class="st29" points="2471.9,653.5 2425.7,744.2 2607.4,744.2 2588.8,653.5 		"/>
		<polygon class="st29" points="2325.8,819.8 2428.3,618.2 2377.5,518.2 2224,819.8 		"/>
		<polygon class="st29" points="2459.1,557.8 2592.4,819.8 2694.2,819.8 2459.1,357.8 2408.2,457.8 2459.1,557.8 		"/>
		<g>
			<path class="st3" d="M2234.6,7c-26.2,0-79.2,0.3-79.2,0v230.5h64.4l0.4-57.6h28.8c61.4,0,93.7-29.6,93.7-86.4
				C2342.6,31.1,2302.3,7,2234.6,7z M2234.6,136.7h-14.4V50.3c3.8-0.2,11,0,14.4,0c32.5,0,44.3,16.6,44.3,44.6
				C2278.9,123.8,2268.9,136.7,2234.6,136.7z"/>
			<polygon class="st3" points="1658.2,237.6 1658.2,143.9 1593.4,143.9 1593.4,237.6 1528.6,237.6 1528.6,7 1593.4,7 1593.4,100.7 
				1658.2,100.7 1658.2,7 1723.1,7 1723.1,237.6 			"/>
			<polygon class="st3" points="1773.5,237.6 1773.5,7 1831.1,7 1838.3,7 1838.3,237.6 			"/>
			<polygon class="st3" points="2010.7,237.6 1888.8,237.6 1888.8,7 1953.6,7 1953.6,194.4 2018.4,194.4 			"/>
			<rect x="2040" y="7" class="st3" width="64.8" height="230.5"/>
			<path class="st3" d="M2429.1,64.7v7.2c0,35.4,108,19.1,108,93.6c0,55.9-38.5,72-93.6,72c-21.7,0-56.7-4-79.2-7.2V180
				c19.9,10.2,57.6,14.4,79.2,14.4c24.4,0,28.8-7.6,28.8-21.6c0-39.7-108.1-22.6-108.1-100.9c0-45.4,44.4-64.8,97.7-64.8
				c37.8,0,43.6,3.5,60.8,7.2v43.2c-15.4-6.5-36.8-7.2-57.6-7.2C2446.1,50.3,2429.1,52.6,2429.1,64.7z"/>
			<path class="st3" d="M1391.7,7c-26.2,0-79.2,0.3-79.2,0v230.5h64.5l0.4-57.6h28.8c61.4,0,93.7-29.6,93.7-86.4
				C1499.7,31.1,1459.4,7,1391.7,7z M1391.7,136.7h-14.4V50.3c3.9-0.2,11,0,14.4,0c32.5,0,44.3,16.6,44.3,44.6
				C1436,123.8,1426,136.7,1391.7,136.7z"/>
		</g>
		<g>
			<g>
				<g>
					<polyline class="st43" points="3590.5,643.8 3590.5,819.8 3668.3,819.8 3668.3,643.8 3844.3,643.8 3844.3,553.1 3668.3,553.1 
						3668.3,377.2 3590.5,377.2 3590.5,553.1 					"/>
				</g>
				<polygon class="st43" points="3610.7,553.1 3434.8,553.1 3434.8,377.2 3344.1,377.2 3344.1,553.1 3168.2,553.1 3168.2,643.8 
					3344.1,643.8 3344.1,819.8 3434.8,819.8 3434.8,643.8 3610.7,643.8 				"/>
			</g>
			<line class="st43" x1="3512.7" y1="643.8" x2="3512.7" y2="819.8"/>
			<line class="st43" x1="3512.7" y1="377.2" x2="3512.7" y2="553.1"/>
			<line class="st43" x1="3434.8" y1="377.2" x2="3590.5" y2="377.2"/>
			<line class="st43" x1="3434.8" y1="819.8" x2="3590.5" y2="819.8"/>
			<rect x="3610.7" y="553.1" class="st43" width="77.8" height="90.7"/>
			<rect x="3688.6" y="553.1" class="st43" width="77.8" height="90.7"/>
		</g>
	</g>
</g>
<g id="Layer_1">
	<g>
		<g>
			
				<rect x="793.4" y="391.3" transform="matrix(-1.836970e-16 1 -1 -1.836970e-16 1251.7848 -425.1685)" class="st3" width="90.2" height="43.9"/>
			<path class="st3" d="M870.6,468.5h-64.2V358.1h64.2V468.5z M826.6,448.3h23.7v-70h-23.7V448.3z"/>
		</g>
		<g>
			
				<rect x="1309.3" y="328.8" transform="matrix(-1.836970e-16 1 -1 -1.836970e-16 1767.6902 -941.0739)" class="st3" width="90.2" height="169.1"/>
			<path class="st3" d="M1449.1,468.5h-189.3V358.1h189.3V468.5z M1279.9,448.3h148.9v-70h-148.9V448.3z"/>
		</g>
		<g>
			
				<rect x="2107.5" y="386.8" transform="matrix(-1.836970e-16 1 -1 -1.836970e-16 2565.9294 -1739.3173)" class="st3" width="90.2" height="53"/>
			<path class="st3" d="M2189.2,468.5H2116V358.1h73.2V468.5z M2136.2,448.3h32.8v-70h-32.8V448.3z"/>
		</g>
		<g>
			<path class="st3" d="M2998.1,505.5l64.3-64.3c-36.6-44.2-89.4-74.4-149.4-81.5v91.3C2947.9,457.9,2978,477.8,2998.1,505.5z"/>
			<path class="st3" d="M2996.9,521l-7-9.6c-19.2-26.3-47.2-44.3-78.9-50.6l-8.1-1.6v-111l11.3,1.3c61.1,7.2,116.5,37.5,156,85.1
				l5.9,7.1L2996.9,521z M2923.2,442.9c29.6,7.6,55.9,24.1,75.8,47.4l49.6-49.6c-33.1-36.8-77-61-125.4-69.3V442.9z"/>
		</g>
		<g>
			
				<rect x="793.4" y="741.4" transform="matrix(-1.836970e-16 1 -1 -1.836970e-16 1601.8378 -75.1155)" class="st3" width="90.2" height="43.9"/>
			<path class="st3" d="M870.6,818.6h-64.2V708.1h64.2V818.6z M826.6,798.4h23.7v-70h-23.7V798.4z"/>
		</g>
		<g>
			
				<rect x="1309.3" y="678.8" transform="matrix(-1.836970e-16 1 -1 -1.836970e-16 2117.7432 -591.0209)" class="st3" width="90.2" height="169.1"/>
			<path class="st3" d="M1449.1,818.6h-189.3V708.1h189.3V818.6z M1279.9,798.4h148.9v-70h-148.9V798.4z"/>
		</g>
		<g>
			<rect x="518.6" y="368.2" class="st3" width="90.2" height="440.3"/>
			<path class="st3" d="M619,818.6H508.5V358.1H619V818.6z M528.8,798.4h70v-420h-70V798.4z"/>
		</g>
		<g>
			<rect x="671.8" y="368.2" class="st3" width="90.2" height="440.3"/>
			<path class="st3" d="M772.1,818.6H661.7V358.1h110.5V818.6z M681.9,798.4h70v-420h-70V798.4z"/>
		</g>
		<g>
			<path class="st3" d="M860.4,808.5c0-30.1,0-60.1,0-90.2c173.2,0,173.2-259.8,0-259.8c0-30.1,0-60.1,0-90.2
				C1154,368.2,1154,808.5,860.4,808.5z"/>
			<g>
				<path class="st3" d="M860.4,818.6h-10.1V708.1h10.1c37.2,0,68.2-12.9,89.9-37.2c19.3-21.7,29.9-51,29.9-82.6
					c0-57.7-37.5-119.8-119.8-119.8h-10.1V358.1h10.1c71,0,130.7,25,172.7,72.2c37.1,41.8,57.6,97.9,57.6,158.1
					s-20.5,116.3-57.6,158.1C991.1,793.6,931.4,818.6,860.4,818.6z M870.6,728.1v70.1c60.6-2.2,111.4-24.7,147.4-65.2
					c33.8-38.1,52.5-89.4,52.5-144.6s-18.6-106.5-52.5-144.6c-36-40.5-86.8-63-147.4-65.2v70.1c38.7,2.2,71.3,17.2,94.9,43.7
					c22.6,25.4,35,59.5,35,96s-12.4,70.6-35,96C941.9,710.9,909.2,725.9,870.6,728.1z"/>
			</g>
		</g>
		<g>
			<rect x="1125.1" y="368.2" class="st3" width="90.2" height="440.3"/>
			<path class="st3" d="M1225.4,818.6H1115V358.1h110.5V818.6z M1135.2,798.4h70v-420h-70V798.4z"/>
		</g>
		<g>
			
				<rect x="1309.3" y="503.8" transform="matrix(-1.836970e-16 1 -1 -1.836970e-16 1942.7167 -766.0474)" class="st3" width="90.2" height="169.1"/>
			<path class="st3" d="M1449.1,643.6h-189.3V533.1h189.3V643.6z M1279.9,623.3h148.9v-70h-148.9V623.3z"/>
		</g>
		<g>
			
				<rect x="2107.5" y="561.8" transform="matrix(-1.836970e-16 1 -1 -1.836970e-16 2740.9558 -1564.2908)" class="st3" width="90.2" height="53"/>
			<path class="st3" d="M2189.2,643.6H2116V533.1h73.2V643.6z M2136.2,623.3h32.8v-70h-32.8V623.3z"/>
		</g>
		<g>
			<rect x="1981.4" y="368.2" class="st3" width="90.2" height="440.3"/>
			<path class="st3" d="M2081.7,818.6h-110.5V358.1h110.5V818.6z M1991.5,798.4h70v-420h-70V798.4z"/>
		</g>
		<g>
			<path class="st3" d="M2179.1,633.4c0-30.2,0-60,0-90.2c55.9,0,55.9-84.8,0-84.8c0-30.2,0-60,0-90.2
				C2355.4,368.2,2355.4,633.4,2179.1,633.4z"/>
			<path class="st3" d="M2179.1,643.6H2169V533.1h10.1c15.6,0,23.4-7.9,27.3-14.6c6.1-10.6,6.1-24.8,0-35.4
				c-3.8-6.6-11.7-14.6-27.3-14.6H2169V358.1h10.1c43.8,0,80.7,15.5,106.7,44.9c22.9,25.9,35.6,60.7,35.6,97.9
				c0,37.2-12.6,72-35.6,97.9C2259.8,628.1,2222.9,643.6,2179.1,643.6z M2189.2,552.5V623c76.8-4.9,111.9-65.6,111.9-122.2
				c0-56.6-35.1-117.3-111.9-122.2v70.5c14.9,2.6,27.2,11,34.7,23.8c9.8,16.9,9.8,38.8,0,55.7
				C2216.5,541.5,2204.2,549.9,2189.2,552.5z"/>
		</g>
		<g>
			<path class="st3" d="M1573,560c12.7-63.7,68.9-111.7,136.3-111.7c67.4,0,123.6,48,136.3,111.7h91.3
				C1923.4,446.2,1826.6,358,1709.3,358s-214.1,88.2-227.6,201.9H1573z"/>
			<path class="st3" d="M1948.2,570.1h-111l-1.6-8.1c-11.9-60-65.1-103.6-126.4-103.6c-61.3,0-114.4,43.6-126.4,103.6l-1.6,8.1h-111
				l1.3-11.3c14.2-120.2,116.4-210.9,237.6-210.9c121.2,0,223.4,90.7,237.6,210.9L1948.2,570.1z M1853.6,549.8h71.5
				c-17.9-104.4-108.8-181.7-215.9-181.7c-107.1,0-198,77.3-215.9,181.7h71.5c16.8-65.2,76.3-111.7,144.4-111.7
				C1777.4,438.1,1836.8,484.6,1853.6,549.8z"/>
		</g>
		<g>
			<path class="st3" d="M1845.6,614.5c-12.7,63.7-68.9,111.7-136.3,111.7c-67.4,0-123.6-48-136.3-111.7h-91.3
				c13.5,113.7,110.2,201.9,227.6,201.9c117.4,0,214.1-88.2,227.6-201.9H1845.6z"/>
			<path class="st3" d="M1709.3,826.5c-121.2,0-223.4-90.7-237.6-210.9l-1.3-11.3h111l1.6,8.1c11.9,60,65.1,103.6,126.4,103.6
				c61.3,0,114.4-43.6,126.4-103.6l1.6-8.1h111l-1.3,11.3C1932.6,735.9,1830.5,826.5,1709.3,826.5z M1493.4,624.6
				c17.9,104.4,108.8,181.7,215.9,181.7c107.1,0,198-77.3,215.9-181.7h-71.5c-16.8,65.2-76.2,111.7-144.4,111.7
				c-68.1,0-127.5-46.5-144.4-111.7H1493.4z"/>
		</g>
		<g>
			<polygon class="st3" points="383,368.2 280.9,568.7 331.6,668.2 484.2,368.2 			"/>
			<path class="st3" d="M331.6,690.5l-62-121.8l107.2-210.7h123.9L331.6,690.5z M292.3,568.7l39.3,77.2l136.2-267.6h-78.5
				L292.3,568.7z"/>
		</g>
		<g>
			<polygon class="st3" points="250.4,628.8 117.7,368.2 16.5,368.2 250.4,827.8 301,728.3 250.4,628.8 			"/>
			<path class="st3" d="M250.4,850.1L0,358.1h123.9l127.6,250.8l0,0l60.8,119.5L250.4,850.1z M33,378.3l217.4,427.1l39.3-77.2
				l-40.4-79.5v0L111.5,378.3H33z"/>
		</g>
		<g>
			<path class="st3" d="M2858.5,723.5c-63.7-12.7-111.7-68.9-111.7-136.3c0-67.4,48-123.6,111.7-136.3v-91.3
				c-113.7,13.5-201.9,110.2-201.9,227.6s88.2,214.1,201.9,227.6V723.5z"/>
			<path class="st3" d="M2868.7,826.2l-11.3-1.3c-120.2-14.2-210.9-116.4-210.9-237.6c0-121.2,90.7-223.4,210.9-237.6l11.3-1.3v111
				l-8.1,1.6c-60,11.9-103.6,65.1-103.6,126.4c0,61.3,43.6,114.4,103.6,126.4l8.1,1.6V826.2z M2848.4,371.3
				c-104.4,17.9-181.7,108.8-181.7,215.9c0,107.1,77.3,198,181.7,215.9v-71.5c-65.2-16.8-111.7-76.3-111.7-144.4
				c0-68.1,46.5-127.5,111.7-144.4V371.3z"/>
		</g>
		<g>
			<path class="st3" d="M2998.1,669c-20.2,27.7-50.3,47.6-85.1,54.5v91.3c59.9-7.1,112.8-37.3,149.4-81.5L2998.1,669z"/>
			<path class="st3" d="M2902.9,826.2v-111l8.1-1.6c31.7-6.3,59.7-24.3,78.9-50.6l7-9.6l79.2,79.2l-5.9,7.1
				c-39.4,47.6-94.8,77.9-156,85.1L2902.9,826.2z M2923.2,731.6v71.5c48.4-8.3,92.4-32.6,125.4-69.3l-49.6-49.6
				C2979.1,707.5,2952.7,724,2923.2,731.6z"/>
		</g>
		<g>
			<polygon class="st3" points="2470.2,643.1 2424.3,733.3 2605,733.3 2586.5,643.1 			"/>
			<path class="st3" d="M2617.4,743.4h-209.6l56.2-110.5h130.8L2617.4,743.4z M2440.8,723.2h151.8l-14.3-70h-101.9L2440.8,723.2z"/>
		</g>
		<g>
			<polygon class="st3" points="2324.8,808.5 2426.9,607.9 2376.3,508.5 2223.6,808.5 			"/>
			<path class="st3" d="M2331,818.6h-123.9l169.2-332.4l62,121.8L2331,818.6z M2240.1,798.4h78.5l96.9-190.4l-39.3-77.2
				L2240.1,798.4z"/>
		</g>
		<g>
			<polygon class="st3" points="2457.5,547.8 2590.1,808.5 2691.3,808.5 2457.5,348.9 2406.9,448.4 2457.5,547.8 			"/>
			<path class="st3" d="M2707.8,818.6h-123.9l-127.6-250.8l0,0l-60.8-119.5l62-121.8L2707.8,818.6z M2596.3,798.4h78.5l-217.4-427.1
				l-39.3,77.2L2596.3,798.4z"/>
		</g>
		<g>
			<path class="st3" d="M2234.1,0c-26.1,0-78.8,0.3-78.8,0v229.3h64.1l0.4-57.3h28.7c61.1,0,93.2-29.5,93.2-86
				C2341.6,23.9,2301.5,0,2234.1,0z M2234.1,129h-14.3V43c3.8-0.2,11,0,14.3,0c32.4,0,44.1,16.6,44.1,44.4
				C2278.2,116.1,2268.3,129,2234.1,129z"/>
			<polygon class="st3" points="1660.8,229.3 1660.8,136.2 1596.3,136.2 1596.3,229.3 1531.8,229.3 1531.8,0 1596.3,0 1596.3,93.2 
				1660.8,93.2 1660.8,0 1725.3,0 1725.3,229.3 			"/>
			<polygon class="st3" points="1775.5,229.3 1775.5,0 1832.8,0 1840,0 1840,229.3 			"/>
			<polygon class="st3" points="2011.4,229.3 1890.1,229.3 1890.1,0 1954.6,0 1954.6,186.3 2019.1,186.3 			"/>
			<rect x="2040.6" class="st3" width="64.5" height="229.3"/>
			<path class="st3" d="M2427.6,57.3v7.2c0,35.2,107.5,19,107.5,93.2c0,55.6-38.3,71.7-93.2,71.7c-21.6,0-56.4-4-78.8-7.2V172
				c19.8,10.2,57.3,14.3,78.8,14.3c24.3,0,28.7-7.6,28.7-21.5c0-39.5-107.5-22.5-107.5-100.3c0-45.2,44.2-64.5,97.2-64.5
				c37.6,0,43.4,3.5,60.5,7.2v43c-15.3-6.5-36.6-7.2-57.3-7.2C2444.6,43,2427.6,45.3,2427.6,57.3z"/>
			<path class="st3" d="M1395.6,0c-26.1,0-78.8,0.3-78.8,0v229.3h64.1l0.4-57.3h28.7c61.1,0,93.2-29.5,93.2-86
				C1503.1,23.9,1463.1,0,1395.6,0z M1395.6,129h-14.3V43c3.8-0.2,11,0,14.3,0c32.4,0,44.1,16.6,44.1,44.4
				C1439.7,116.1,1429.8,129,1395.6,129z"/>
		</g>
		<g>
			<g>
				<g>
					<g>
						<polygon class="st3" points="3664,812.1 3579.4,812.1 3579.4,633.4 3586.5,633.4 3586.5,804.9 3656.8,804.9 3656.8,629.9 
							3831.8,629.9 3831.8,546.8 3656.8,546.8 3656.8,371.8 3586.5,371.8 3586.5,543.2 3579.4,543.2 3579.4,364.6 3664,364.6 
							3664,539.6 3839,539.6 3839,637 3664,637 						"/>
					</g>
				</g>
				<g>
					<path class="st3" d="M3431.7,812.1h-97.4V637h-175v-97.4h175v-175h97.4v175h175V637h-175V812.1z M3341.4,804.9h83v-175h175v-83
						h-175v-175h-83v175h-175v83h175V804.9z"/>
				</g>
			</g>
			<g>
				<rect x="3502" y="633.4" class="st3" width="7.2" height="175"/>
			</g>
			<g>
				<rect x="3502" y="368.2" class="st3" width="7.2" height="175"/>
			</g>
			<g>
				<rect x="3428.1" y="364.6" class="st3" width="154.9" height="7.2"/>
			</g>
			<g>
				<rect x="3428.1" y="804.9" class="st3" width="154.9" height="7.2"/>
			</g>
			<g>
				<path class="st3" d="M3684.1,637h-84.6v-97.4h84.6V637z M3606.7,629.9h70.3v-83h-70.3V629.9z"/>
			</g>
			<g>
				<path class="st3" d="M3761.6,637h-84.6v-97.4h84.6V637z M3684.1,629.9h70.3v-83h-70.3V629.9z"/>
			</g>
		</g>
	</g>
</g>
</svg>
