<?xml version="1.0" encoding="utf-8"?>
<!-- Generator: Adobe Illustrator 25.2.1, SVG Export Plug-In . SVG Version: 6.00 Build 0)  -->
<svg version="1.1" id="Layer_1" xmlns="http://www.w3.org/2000/svg" xmlns:xlink="http://www.w3.org/1999/xlink" x="0px" y="0px"
	 viewBox="0 0 3839 289.8" style="enable-background:new 0 0 3839 289.8;" xml:space="preserve">
<style type="text/css">
	.st0{fill:#3852A0;}
	.st1{fill:#FFFFFF;}
	.st2{fill:#010101;}
</style>
<g>
	<rect x="0" y="87.7" class="st1" width="121.9" height="202.1"/>
	<rect x="268" y="87.7" class="st1" width="121.9" height="202.1"/>
	<rect x="536" y="87.7" class="st1" width="121.9" height="202.1"/>
	<rect x="1783.8" y="87.7" class="st1" width="121.9" height="202.1"/>
	<path class="st1" d="M654.8,69.5H0V0l585.3,0C623.7,0,654.8,31.1,654.8,69.5L654.8,69.5z"/>
	<rect x="725.6" y="0" class="st1" width="434.5" height="69.5"/>
	<path class="st1" d="M847.4,202.2v-18.1h288v-69.5H865.5c-10,0-18.1-8.1-18.1-18.1v-8.9H725.6v26.9v69.5v20.9
		c0,46.8,37.9,84.8,84.7,84.8h349.8v-69.5H865.5C855.5,220.3,847.4,212.2,847.4,202.2z"/>
	<path class="st1" d="M2269.5,69.5h-485.7v0c0-38.4,31.1-69.5,69.5-69.5h346.6C2238.3,0,2269.5,31.1,2269.5,69.5L2269.5,69.5z"/>
	<polygon class="st1" points="2147.6,87.7 2147.6,149.4 1923.8,149.4 1923.8,231.6 2147.6,231.6 2147.6,289.8 2269.5,289.8 
		2269.5,87.7 	"/>
	<path class="st1" d="M1701.3,69.5h-482.8v0c0-38.4,31.1-69.5,69.5-69.5l413.3,0V69.5z"/>
	<path class="st1" d="M1433,114.6v69.5h152.5c10,0,18.1,8.1,18.1,18.1v0c0,10-8.1,18.1-18.1,18.1h-227.1c-10,0-18.1-8.1-18.1-18.1
		V87.7h-121.9l0,117.4c0,46.8,37.9,84.8,84.7,84.8h37.1h297.5c48.4,0,87.6-39.2,87.6-87.6v0c0-48.4-39.2-87.6-87.6-87.6H1433z"/>
	<rect x="3332.1" y="87.7" class="st1" width="121.9" height="202.1"/>
	<path class="st1" d="M3717.1,87.7v114.5c0,10-8.1,18.1-18.1,18.1h-227v69.5h282.2c46.8,0,84.7-37.9,84.7-84.8V87.7H3717.1z"/>
	<path class="st1" d="M3839,69.5h-506.9V0l437.4,0C3807.9,0,3839,31.1,3839,69.5L3839,69.5z"/>
	<path class="st1" d="M3232.5,69.5h-485.7v0c0-38.4,31.1-69.5,69.5-69.5H3163C3201.4,0,3232.5,31.1,3232.5,69.5L3232.5,69.5z"/>
	<rect x="2392.2" y="72.8" class="st1" width="232" height="127"/>
	<path class="st1" d="M3124.4,220.3h-237.7c-10,0-18.1-8.1-18.1-18.1V87.7h-121.9l0,117.4c0,46.8,37.9,84.8,84.7,84.8H3163
		c38.4,0,69.5-31.1,69.5-69.5v0H3124.4z"/>
</g>
</svg>
