<?xml version="1.0" encoding="utf-8"?>
<!-- Generator: Adobe Illustrator 26.0.3, SVG Export Plug-In . SVG Version: 6.00 Build 0)  -->
<svg version="1.1" id="Layer_1" xmlns="http://www.w3.org/2000/svg" xmlns:xlink="http://www.w3.org/1999/xlink" x="0px" y="0px"
	 viewBox="0 0 3839 793.5" style="enable-background:new 0 0 3839 793.5;" xml:space="preserve">
<style type="text/css">
	.st0{display:none;}
	.st1{display:inline;}
	.st2{fill:url(#SVGID_1_);}
	.st3{fill:url(#SVGID_00000173875707091062869770000000163688282584509313_);}
	.st4{clip-path:url(#SVGID_00000119822043980948229200000005024500626519173800_);}
	.st5{clip-path:url(#SVGID_00000165232504713432959210000013345489465846479534_);fill:none;}
	.st6{fill:none;}
	.st7{fill:url(#SVGID_00000012439297334541516720000001531892802432989859_);}
	.st8{clip-path:url(#SVGID_00000001645727000168908530000000830161717032754323_);}
	.st9{clip-path:url(#SVGID_00000168831810214940204030000017293278959563104663_);}
	.st10{clip-path:url(#SVGID_00000129174129593778930860000004674995987088874639_);}
	.st11{fill:url(#SVGID_00000110458415251114457340000010699702311067989919_);}
	.st12{fill:url(#SVGID_00000144333379142118853450000015348190290357727622_);}
	.st13{clip-path:url(#SVGID_00000088838731116392389030000017629488714984672189_);}
	.st14{clip-path:url(#SVGID_00000096767169202077145000000017069251257039901078_);fill:none;}
	.st15{fill:url(#SVGID_00000115473083152367746730000011303370333610258614_);}
	.st16{clip-path:url(#SVGID_00000023967162242496675130000016100205233720302768_);}
	.st17{clip-path:url(#SVGID_00000164511730672741740810000013495386786246179472_);}
	.st18{clip-path:url(#SVGID_00000084503767504456643120000008872360685984339887_);}
	.st19{fill:#FFFFFF;}
	.st20{fill:url(#SVGID_00000157997561532473797390000014328794391203804087_);}
	.st21{fill:url(#SVGID_00000178197721074184719020000007442475645733269399_);}
	.st22{clip-path:url(#SVGID_00000157274544004561066740000008452951174855712644_);fill:#FFFFFF;}
	.st23{clip-path:url(#SVGID_00000133509522220667811520000016316525964240435330_);fill:none;}
	.st24{fill:url(#SVGID_00000126310810475494009410000010664888255834904731_);}
	.st25{clip-path:url(#SVGID_00000023962583318638131700000012000892014248996995_);fill:#FFFFFF;}
	.st26{clip-path:url(#SVGID_00000049914994349794467940000006820615555462401211_);fill:#FFFFFF;}
	.st27{clip-path:url(#SVGID_00000007406311410309215400000017403833194857706894_);}
	.st28{clip-path:url(#SVGID_00000007406311410309215400000017403833194857706894_);fill:#FFFFFF;}
	.st29{fill:url(#SVGID_00000114039181292689706920000006114425245134400414_);}
	.st30{fill:url(#SVGID_00000017479135552604801720000005695208277737660805_);}
	.st31{clip-path:url(#SVGID_00000148619318828042372760000010179726053614545321_);fill:#FFFFFF;}
	.st32{clip-path:url(#SVGID_00000021109074344861728890000011518257794974389428_);fill:none;}
	.st33{fill:url(#SVGID_00000123406305824968782760000002567908909369090704_);}
	.st34{clip-path:url(#SVGID_00000062154589621668275200000011170603757963314367_);fill:#FFFFFF;}
	.st35{clip-path:url(#SVGID_00000031200910416421371060000011008050463715839381_);fill:#FFFFFF;}
	.st36{clip-path:url(#SVGID_00000008150676967612382850000011665059247056829070_);}
	.st37{clip-path:url(#SVGID_00000008150676967612382850000011665059247056829070_);fill:#FFFFFF;}
	.st38{clip-path:url(#SVGID_00000036967746806281289490000006350740404776379059_);}
	.st39{clip-path:url(#SVGID_00000115474557453812190860000016842377141902630294_);}
	.st40{clip-path:url(#SVGID_00000152975638279972607030000001002728194620595645_);}
	.st41{clip-path:url(#SVGID_00000023273428260645882180000016155901820831241896_);}
	.st42{clip-path:url(#SVGID_00000121244697461458070660000006884150423153888667_);}
	.st43{clip-path:url(#SVGID_00000036251221619631501340000003824856431752871561_);}
	.st44{clip-path:url(#SVGID_00000072279306260364426620000010000309292721237946_);fill:#FFFFFF;}
	.st45{clip-path:url(#SVGID_00000021804274644039750390000018227818143628248482_);fill:#FFFFFF;}
	.st46{clip-path:url(#SVGID_00000102518046224692677810000008944159260446627970_);}
	.st47{clip-path:url(#SVGID_00000102518046224692677810000008944159260446627970_);fill:#FFFFFF;}
	.st48{clip-path:url(#SVGID_00000085229798952527081780000012120616371602544803_);fill:#FFFFFF;}
	.st49{clip-path:url(#SVGID_00000012457332547776716330000001267525826235478200_);fill:#FFFFFF;}
	.st50{clip-path:url(#SVGID_00000138540939825437218240000000567518064433886654_);}
	.st51{clip-path:url(#SVGID_00000138540939825437218240000000567518064433886654_);fill:#FFFFFF;}
	.st52{fill:url(#SVGID_00000041976616597542543180000015678927471019541644_);}
	.st53{fill:url(#SVGID_00000114043801216185515160000003369248397183994538_);}
	.st54{clip-path:url(#SVGID_00000176016858709540624890000013063737656248753853_);}
	.st55{clip-path:url(#SVGID_00000049935375145532782900000007570338287155569558_);fill:none;}
	.st56{fill:url(#SVGID_00000066479982814775751000000004358264052361036958_);}
	.st57{fill:url(#SVGID_00000034052289744396272860000017741910961214715314_);}
	.st58{clip-path:url(#SVGID_00000066485856653742134320000016403549213927515056_);}
	.st59{clip-path:url(#SVGID_00000154425734900909864740000005379999024114270594_);fill:none;}
	.st60{fill:url(#SVGID_00000086668706636272625650000018201229898273640840_);}
	.st61{clip-path:url(#SVGID_00000029762751060134444050000002266476183354368685_);}
	.st62{clip-path:url(#SVGID_00000129911719797800062830000018039311751412100501_);}
	.st63{clip-path:url(#SVGID_00000022559388112323129870000002002998270654960043_);}
	.st64{fill:url(#SVGID_00000046332761937508291790000005556894353041751714_);}
	.st65{clip-path:url(#SVGID_00000091693322898569270650000017419766221696707968_);}
	.st66{clip-path:url(#SVGID_00000003827650567867297360000002157899344049294231_);}
	.st67{clip-path:url(#SVGID_00000070100551659086993980000006751105460976437376_);}
	.st68{clip-path:url(#SVGID_00000060740016565600081790000011175845633874602410_);}
	.st69{clip-path:url(#SVGID_00000067937074684743963840000001483288817383488643_);}
	.st70{clip-path:url(#SVGID_00000138563343271113606830000011987111748829256332_);}
	.st71{fill:url(#SVGID_00000144338399287580164420000013217839749844872118_);}
	.st72{clip-path:url(#SVGID_00000099629286636561212560000005787279082478564003_);}
	.st73{clip-path:url(#SVGID_00000143602670972328970730000017392730991806532539_);}
	.st74{clip-path:url(#SVGID_00000074412284334855152880000005683336716544544649_);}
	.st75{fill:url(#SVGID_00000152966302701396339400000017274934075415591056_);}
	.st76{fill:url(#SVGID_00000011737267674471417910000012246066680795882928_);}
	.st77{clip-path:url(#SVGID_00000075125185984267221390000004915434727464985730_);}
	.st78{clip-path:url(#SVGID_00000007429170468434091350000000927844238633322658_);fill:none;}
	.st79{clip-path:url(#SVGID_00000071542676508081059650000001737666400268369594_);}
	.st80{clip-path:url(#SVGID_00000109008651411515164130000011071331423765240488_);}
	.st81{clip-path:url(#SVGID_00000125581124046537510820000014927139538838880958_);}
	.st82{fill:url(#SVGID_00000057143930382516865830000013615242140324641671_);}
	.st83{clip-path:url(#SVGID_00000109025925623952508270000006239703055043025596_);}
	.st84{clip-path:url(#SVGID_00000140736907859689822040000001529081501634312601_);}
	.st85{clip-path:url(#SVGID_00000130610601554105049740000011537833335681744302_);}
	.st86{clip-path:url(#SVGID_00000047044941332858045250000000241374724084424837_);}
	.st87{clip-path:url(#SVGID_00000131345567190045478820000008521834819522184336_);}
	.st88{clip-path:url(#SVGID_00000069372330334905158790000011102744051454174139_);}
	.st89{clip-path:url(#SVGID_00000051357980767711444080000004144357435043740083_);}
	.st90{clip-path:url(#SVGID_00000015338113151180073340000010033242808452182178_);}
	.st91{clip-path:url(#SVGID_00000068635146342361646520000013799745348082917542_);}
	.st92{fill:url(#SVGID_00000050629646801702765010000004318466687157074055_);}
	.st93{clip-path:url(#SVGID_00000056398724381608740640000000574636425695163014_);}
	.st94{clip-path:url(#SVGID_00000083776774370586039530000004897278448570494338_);}
	.st95{clip-path:url(#SVGID_00000101094834159828228090000002145958130795274401_);}
	.st96{clip-path:url(#SVGID_00000175295947456541536390000002600019212263236746_);}
	.st97{clip-path:url(#SVGID_00000090292978504542766490000000201111110571385252_);fill:#FFFFFF;}
	.st98{clip-path:url(#SVGID_00000124160253482212436780000017277204859071067522_);}
	.st99{clip-path:url(#SVGID_00000114765768821895472270000001415946912326979470_);}
	.st100{clip-path:url(#SVGID_00000170260588646886301890000003642884857092287873_);fill:#FFFFFF;}
	.st101{clip-path:url(#SVGID_00000050621332720250657090000000629761253112122297_);}
	.st102{fill:url(#SVGID_00000115501217935910773570000002075385145163262081_);}
	.st103{fill:url(#SVGID_00000096022431131878278690000017251070775976263840_);}
	.st104{clip-path:url(#SVGID_00000137119794467714932970000000644053411898835101_);}
	.st105{clip-path:url(#SVGID_00000059996943362418000810000012357180229144514980_);fill:none;}
	.st106{clip-path:url(#SVGID_00000033354242964848640450000003132766605602076808_);}
	.st107{clip-path:url(#SVGID_00000138564551506372327690000008712103189373643964_);}
	.st108{clip-path:url(#SVGID_00000121986952694252199330000007185237685872973225_);}
	.st109{fill:url(#SVGID_00000068652354568297537060000003256201115390412212_);}
	.st110{fill:url(#SVGID_00000170964153444989868550000011172152640983819148_);}
	.st111{fill:url(#SVGID_00000155825362639804119220000017433104189809042339_);}
	.st112{clip-path:url(#SVGID_00000132770647587212117560000006504262445429592469_);}
	.st113{clip-path:url(#SVGID_00000027592527254239707790000002299459769311636640_);fill:none;}
	.st114{fill:url(#SVGID_00000173852408638647043060000015454941963473675196_);}
	.st115{fill:url(#SVGID_00000133525434803734228210000016548191980834513549_);}
	.st116{clip-path:url(#SVGID_00000071521944343812081120000002072117284233858489_);}
	.st117{clip-path:url(#SVGID_00000098188656309334044330000001269744283788215461_);fill:none;}
	.st118{clip-path:url(#SVGID_00000041268090349354904370000003216018316441108113_);}
	.st119{clip-path:url(#SVGID_00000066506911220932135330000009045662638768055218_);}
	.st120{clip-path:url(#SVGID_00000178202694593414690660000003425494628035300770_);}
	.st121{fill:url(#SVGID_00000070810915142954250360000015114425004408609190_);}
	.st122{fill:url(#SVGID_00000134209852844551252120000014388120791847751821_);}
	.st123{fill:url(#SVGID_00000036930773100944868770000001535909010471643523_);}
	.st124{clip-path:url(#SVGID_00000113313144433111671200000007693111494060865977_);}
	.st125{clip-path:url(#SVGID_00000129194996816696157610000006929258147488480186_);fill:none;}
	.st126{clip-path:url(#SVGID_00000064325048894499062060000002089241781953558965_);}
	.st127{clip-path:url(#SVGID_00000110452579682575293500000003052097365721203378_);}
	.st128{clip-path:url(#SVGID_00000085228953180080770030000010456446281074111652_);}
	.st129{fill:url(#SVGID_00000044868435157013968550000011650556067388980906_);}
	.st130{fill:url(#SVGID_00000035524544304283013740000004557623019854115972_);}
	.st131{fill:url(#SVGID_00000087404010793385683850000003100174915281794186_);}
	.st132{clip-path:url(#SVGID_00000054953024579324202480000002931316797339559560_);}
	.st133{clip-path:url(#SVGID_00000092457586185458745160000017187865369341894788_);fill:none;}
	.st134{clip-path:url(#SVGID_00000129185192628613748340000007961678548423303305_);}
	.st135{clip-path:url(#SVGID_00000106145594848452678130000015621235662869789333_);}
	.st136{clip-path:url(#SVGID_00000182506664952742237940000016572039575671470478_);}
	.st137{fill:url(#SVGID_00000136378008371964415260000006019266886207295642_);}
	.st138{fill:url(#SVGID_00000137122499406372692550000012608354000069414548_);}
	.st139{fill:url(#SVGID_00000079449673831833232620000002684736749922437286_);}
	.st140{clip-path:url(#SVGID_00000125563544963971404480000016443688455514860424_);}
	.st141{clip-path:url(#SVGID_00000038390172458722176250000016810776732670524075_);fill:none;}
	.st142{clip-path:url(#SVGID_00000001640622326094495000000005966852913326560394_);}
	.st143{clip-path:url(#SVGID_00000076598452370987822890000011839689872133708450_);}
	.st144{clip-path:url(#SVGID_00000149370624553284263730000012315247170036563077_);}
	.st145{fill:url(#SVGID_00000022522570716760671990000005305569118663887766_);}
	.st146{fill:url(#SVGID_00000109708758696842089990000012710228341183486386_);}
	.st147{fill:url(#SVGID_00000074435416426097022000000002167468354486332307_);}
	.st148{clip-path:url(#SVGID_00000008870080316770633110000011361230694726358933_);}
	.st149{clip-path:url(#SVGID_00000023997910412888807230000008149404915216535946_);fill:none;}
	.st150{clip-path:url(#SVGID_00000101813710172313796800000007762213942489703066_);}
	.st151{clip-path:url(#SVGID_00000005950611020390001840000005436996548860373413_);fill:#FFFFFF;}
	.st152{clip-path:url(#SVGID_00000026162445877194676060000000986385491314973086_);}
	.st153{fill:url(#SVGID_00000144297799137911721300000006216086054002633891_);}
	.st154{fill:url(#SVGID_00000066477901537109047550000015335951038059271338_);}
	.st155{fill:url(#SVGID_00000140724235495979144070000007463393838072497079_);}
	.st156{clip-path:url(#SVGID_00000000198104976415784140000002574314917748307632_);fill:#FFFFFF;}
	.st157{clip-path:url(#SVGID_00000013892934232661027570000007047013584054652293_);fill:none;}
	.st158{clip-path:url(#SVGID_00000150789185638876319760000016503397449827119790_);}
	.st159{clip-path:url(#SVGID_00000170996996409454114730000015674873176252671636_);fill:#FFFFFF;}
	.st160{clip-path:url(#SVGID_00000154392483702086851750000005627109754825566619_);}
	.st161{fill:url(#SVGID_00000063616890593384992520000011093084087341692832_);}
	.st162{fill:url(#SVGID_00000030449198757458276960000007145298205474782132_);}
	.st163{fill:url(#SVGID_00000096764983279835718160000000305601192223418759_);}
	.st164{clip-path:url(#SVGID_00000041990988162852876720000013901886215491160192_);fill:#FFFFFF;}
	.st165{clip-path:url(#SVGID_00000075147575794919169410000005672600735291779500_);fill:none;}
</style>
<g class="st0">
	<g class="st1">
		<g>
			<path class="st19" d="M2074.3-214.5c3-1.5,6.5-3.2,10.5-5c13.2-6.2,23.7,12.3,11.6,20.5c-4.2,2.9-8,5.5-11.1,7.6
				c-38.8,27.2-72.7,59.2-72.7,167.4c0,135.9,112.5,268.4,112.5,366.9c0,76.4-21.6,146.5-191.1,228.7c-5.6,2.7-12.2,0.6-15.3-4.7
				l0,0c-3.3-5.7-1.1-13,4.6-16.1c67.7-36.2,87.6-111.2,84.7-175.6c-6-134-114.5-249.2-112.5-359.1
				C1896.7-49.5,1922.7-138.1,2074.3-214.5z"/>
			<path class="st19" d="M1968.4,331.5c-9.6-3.6-29.1-13.9-41.4-41.1L1792.8-7.3c-5.7-12.7-23.5-13.2-29.9-0.9l-99.4,188.7
				c-5.1,9.8-15.3,15.9-26.3,15.9h-119.2h-4c-4,0-8,3.2-8.6,7.1c-0.8,5.1,2.9,9.5,7.8,9.9c33.1,3,53,25.1,52.7,60.8
				c-0.2,32.9-27.7,59.9-60.7,59.9h-8.6c-88.3,0-92.1-101.4-92.1-123.6c0-25.8,0-77.6,0-77.6c0-38.1,15.3-104.9,89.7-104.9
				c69.5,0,108.5,32,140.3,74.4c5.2,7,16.3,1.2,13.6-7.1L1620,8c-2.7-8.4-12.6-12.1-20.2-7.5c-20.5,12.6-32.5,10.5-32.5,10.5
				c-10.1,0.3-42.2-8.8-81.2-8.8c-62.2,0-112.5,24.7-146.9,57.9c-3.4,3.3-9.1,2.2-10.8-2.3l-20.7-50.3h-187.7V7.3h-92.2
				c-5.9,0-11.6-0.2-17.5-0.5C978.8,5.1,867.8-0.7,811-0.7c-71.2,0-127,22.3-132.6,74.8c-4.2,39.5,23.2,60.1,38.9,74.5
				c8.5,7.8,48.5,33.1,69,42.6c21.4,9.9,106.8,52.7,98,86.6c-8.8,33.6-37.7,41.9-71,41.9c-52.3,0-108.4-43.3-150-82.1
				c-7.2-6.8-18.4,1.6-13.9,10.5c17.2,33.6,39.2,74.5,53.6,96.1c4.1,6.1,11.5,9.1,18.7,7.2c15.5-3.9,35.6-6,47.8-5.4
				c15.7,0.7,48.6,5,63,5c119.8,0,157.3-31.5,161.2-86.1c5.4-75.1-84.3-125.1-138.9-147c-48.8-19.7-67.7-49.3-65.6-64
				c3.4-25.5,27.7-29.8,48-29c63,2.4,181.8,33.1,181.8,76.3c0,0,0,192.1,0,200.5c0,11.2-12.2,31.4-27.7,31.4H991c-2.8,0-5.6,1-7.6,3
				c-5.4,5.4-1.6,11.7,3.5,11.7h66.9l0,0h66.3h189.1c6.1,0,11.4-3.6,13.8-9.3l10.3-25.1c2-4.8,8.1-6.3,12-2.8
				c33.7,30.5,83.1,49.6,150.6,49.6c15.7,0,48.4-4.3,63.6-9.9c4.8-1.7,10-2.7,15.1-2.7h126.5h20.4c7.5,0,11.1-9.4,5.5-14.4
				c-2.5-2.2-4.7-4.2-6.3-5.7c-12-10.9-11.5-18.3-11.8-24.6c-0.3-6.2,1-12.3,3.9-17.9l89.6-170.2l76.5,169.9
				c2.6,5.7,3.8,11.9,3.3,18.1c-0.1,0.8-0.1,1.5-0.2,2.1c-1.4,8-8.6,24.2-22.1,24.2h-2.2c-3.3,0-6.6,1.1-9.1,3.3
				c-7.5,6.7-2.9,15.1,3.7,15.1h113.3c5.2,0,9.4-4.7,8.3-10.1C1973.4,334.9,1971.3,332.6,1968.4,331.5z M1310.5,95
				c-15.4,24.3-23.8,50-23.8,72.6c0,30.1,5.6,59.6,17.3,86c2.6,5.8,1.4,12.6-3,17.1c-21.7,22-69.1,52.7-136.9,52.7h-16.6
				c-15.1,0-27.4-12.2-27.4-27.4v-92.3v-4.9c0-5.1,7.7-11.5,16.4-9.8c13.3,2.6,36.6,10.9,55.3,21.7c13.1,7.6,24.9,15.5,38.5,26.8
				c6,4.9,15,0.6,15-7.1v-29v-57.3v-29c0-7.7-9.1-12-15-7.1c-13.6,11.2-25.4,19.1-38.5,26.8c-18.6,10.7-42.7,22-55.9,25.1
				c-10.2,2.4-13.8-1.6-15.7-5.5v-5.6V58.3c0-14.4,11.7-26.1,26.1-26.1h33.5c54.9,0,105,31.5,129.1,52.3
				C1312,87,1312.7,91.6,1310.5,95z"/>
			<path class="st19" d="M3868.3,11.4c-0.8-2.4-3.2-3.9-5.8-3.9h-26.3h-49.5h-26.3c-2.6,0-4.9,1.5-5.8,3.9c-1.1,3.3,0.7,6.6,3.7,7.6
				c9.5,3.1,32.2,13.1,32.2,36.9V199c0,5.5-6.4,8.4-10.6,4.9L3629.5,79.2c-46.9-39-113.4-64.9-157.3-79.1
				c-9.7-3.1-16.4,9.7-8.2,15.8c1.4,1.1,2.9,2.2,4.4,3.3c50.1,37.7,55.5,91.7,55.5,97.8v192.2v9.3c0,7.2-5.9,13.1-13.1,13.1
				c-16.8,0-54.3-27.3-73.5-47.3c-18-18.8-26.6-44.8-46.8-68.5c-16.1-18.8-29.7-25.8-29.7-25.8c101.1,0,104.1-82,104.1-91.2
				c0-13.7,0-91.6-126.6-91.6h-292.1h-49.7c-2.6,0-4.9,1.5-5.8,3.9c-1.1,3.3,0.7,6.7,3.7,7.6c9.5,3.1,32.2,13.1,32.2,36.9v180.1
				c0,62.2-43.5,83-78.4,83c-63.6,0-88-37.5-88-84.6v-27.3l0,0V55.6c0-23.9,22.7-33.9,32.2-36.9c2.5-0.8,4.1-3,4.1-5.6V13
				c0-3.2-2.6-5.9-5.9-5.9h-114.1h-17.5h-229.9h-117.1c-7.1,0-13.7,4.1-16.8,10.5l-18.8,39c-3.2,6.7,4.4,13.3,10.6,9.2
				c25.2-17.1,67.6-36.7,129.6-39.1c6.8-0.2,12.4,5.2,12.4,12v246.9c0,11.7-4.3,20.8-10.2,27.7c-4.5,5.4-11.3,8.4-18.4,8.4h-15.2
				c-4.9,0-9.9-1.3-14.1-4.1c-9.7-6.3-18.8-15.1-24.4-27.5L2312.8-7.6c-5.8-12.7-23.5-13.2-29.9-0.9l-139.7,265.1l-40.3,76.4
				l2.8,14.6h40.5h7.2h88l0,0c7.5,0,11.1-9.4,5.5-14.4c0,0-0.1,0-0.1-0.1c-2.5-2.2-4.6-4.1-6.2-5.6c-11.9-10.7-11.5-18.1-11.8-24.4
				c-0.3-6.3,1-12.6,3.9-18.1l89.7-170.2l76.5,169.9c2.6,5.7,3.8,11.9,3.3,18.1c-0.1,0.8-0.1,1.5-0.2,2.1c-1.4,8-8.6,24.2-22.1,24.2
				h-0.2c-2.7,0-5.4,0.8-7.5,2.5c-8.8,6.8-4.1,15.9,2.7,15.9h112.9h6.6h89.2h26.3h53.9c4.6,0,8.6-3.5,8.8-8.1
				c0.2-3.7-2.1-7.2-5.5-8.4c-11.3-4.3-36.3-17.2-36.3-45.4V38.7c0-7,5.7-12.3,12.7-12c47.9,1.9,84.2,14,109.7,27.4
				c4.1,2.2,6.7,6.4,6.7,11v159.1h0.4c4.1,73.1,38.8,129.2,165.9,129.2c73.7,0,142.7-38.6,142.7-109.7c0-8.7,0-182.3,0-182.3
				c0-10.8,3.4-18.4,7.7-23.7c6.3-7.7,15.9-11.8,25.9-11.8h15c10,0,19.7,4.1,25.9,11.8c4.3,5.4,7.7,13,7.7,23.7v221
				c0,32.8-26,45.2-38.2,49.2c-2.9,0.9-5.2,3.3-5.9,6.4c-1,5.4,3,10.1,8.2,10.1h54.3h61.3h56.8c3.5,0,6.8-2.1,8-5.4
				c1.7-4.7-0.8-9.6-5.1-11c-11.9-3.9-38.5-16.3-38.5-49.3V72.9V48c0-18.7,16.1-25.5,27.1-25.5h31.6c29.4,0,58.6,24.8,58.6,66.2
				c0,60.7-39.5,75.4-55.7,75.4c-10.8,0-19.2,0.2-28.2-3.1c0,0-0.1,0-0.1-0.1c-5.7-2.7-11.7,2.6-9.9,8.5c0.1,0.3,0.1,0.5,0.2,0.5
				c9.5,32.1,26.5,81.2,49.8,112.5c36.1,48.7,104.6,87.5,219.6,87.5h49.4c3.1,0,6-1.9,6.9-4.7c1.3-4-0.9-8-4.6-9.2
				c-9.9-3-30.9-11.9-30.9-34.3V160.1c0-5.5,6.4-8.4,10.6-4.9l238.7,198.2c6.9,5.7,17.2,0.8,17.2-8.1V55.9
				c0-23.9,22.7-33.9,32.2-36.9C3867.6,18,3869.5,14.8,3868.3,11.4z"/>
		</g>
		<g>
			<g>
				<defs>
					<circle id="SVGID_00000101087973349586591430000007395267408780780974_" cx="333.6" cy="182.2" r="190"/>
				</defs>
				<clipPath id="SVGID_00000091002084913142970050000004913058141126063246_">
					<use xlink:href="#SVGID_00000101087973349586591430000007395267408780780974_"  style="overflow:visible;"/>
				</clipPath>
				<polygon style="clip-path:url(#SVGID_00000091002084913142970050000004913058141126063246_);fill:#FFFFFF;" points="
					285.5,371.6 132.2,217.1 160.8,276.4 254.9,367.9 				"/>
			</g>
			<g>
				<defs>
					<path id="SVGID_00000000206727550881455450000012223441367029847976_" d="M238.8,259.2c25.3-6.2,50.6-12,75.9-18
						c25.4-6,50.3-13.6,75-22c24.4-8.3,48.5-17.7,73-25.5c20.3-6.5,41-12.5,60.5-21c-1.6-33.7-12-64.9-29-91.7
						c-21.8,6.3-44,11.6-66.1,17.3c-25.2,6.6-50.3,13.6-75.4,20.6c-24.9,6.9-49.9,13.8-74.8,20.8c-24.7,7-49.3,14.2-73.5,22.7
						c-12.1,4.2-24.2,8.2-36.5,12c-6,1.9-12,3.7-17.9,5.9c-2.2,0.7-4.3,1.4-6.5,2.2c0,35,9.5,67.7,26,95.9
						C192.5,271,215.6,264.8,238.8,259.2z"/>
				</defs>
				<clipPath id="SVGID_00000181810089603651516720000002623365198469430420_">
					<use xlink:href="#SVGID_00000000206727550881455450000012223441367029847976_"  style="overflow:visible;"/>
				</clipPath>
				<path style="clip-path:url(#SVGID_00000181810089603651516720000002623365198469430420_);fill:#FFFFFF;" d="M129.1,353.3
					c-9.2,0-18.1-0.2-26.9-0.6c-13.2-0.6-23.7-11.6-23.2-24.9c0.5-13.4,11.8-23.8,25.2-23.1c74.9,3.8,176.4-11,271.5-39.5
					c92.9-28,166.2-64.5,196-97.9c3.5-3.9,8.6-10.3,10.9-16.8c1.5-4.4-1.2-9.2-5.9-10c-10-1.6-32.3-1.9-80.4,9.7
					c-51,12.2-114.5,33.3-175.9,53.8C257,225.3,197,245.3,149,256.4c-48.3,11.1-99.6,17.6-114.6-18.7c-6-14.3-9.2-36.9,9.2-63.4
					c39.6-56.9,160.9-100,229.7-120.6C376.3,22.6,486.3,4.3,553.3,6.8c13.3,0.5,23.6,11.6,23.1,24.9s-11.6,23.6-24.9,23.1
					c-62.2-2.4-166,15.1-264.7,44.7c-103.7,31.1-181.9,70.2-204.1,102c-1.1,1.6-2.1,3.2-2.8,4.6c-2.1,3.9-0.4,10.4,6.6,11
					c10.5,0.9,30.5-1.5,66.8-11.3c43.6-11.6,96.2-28.7,152-47.3c159.3-53.1,259.2-83.4,303.3-56.7c12.3,7.4,20.1,18.8,22.3,33
					c3.5,21.5-4.4,43.2-23.6,64.5c-36,40.2-115.5,81-218,111.8C298.9,338.3,205.8,353.3,129.1,353.3z"/>
			</g>
			<g>
				<path class="st19" d="M477.9,58.7c27.9-3.3,53-4.7,73.5-3.9c13.3,0.5,24.4-9.8,24.9-23.1c0.5-13.3-9.8-24.4-23.1-24.9
					c-33.2-1.3-76.9,2.6-125.1,10.6C447,28.2,463.8,42.2,477.9,58.7z"/>
				<path class="st19" d="M86.5,217.1c-7-0.6-8.6-7.1-6.6-11c0.7-1.4,1.6-3,2.8-4.6c10.2-14.6,32.1-30.7,62.9-46.9
					c3.3-22.4,10.4-43.5,20.8-62.7c-51,21.9-100.3,49.9-123,82.4c-18.3,26.4-15.1,49.1-9.2,63.4c15,36.3,66.4,29.8,114.6,18.7
					c2.9-0.7,5.8-1.4,8.8-2.1c-6-14.7-10.2-30.2-12.4-46.4C114,215.9,96.2,217.9,86.5,217.1z"/>
				<path class="st19" d="M630.9,134.7c-2.3-14.2-10-25.6-22.3-33c-21.4-12.9-55.9-12.5-104-2.5c7,14.4,12.2,29.8,15.4,45.9
					c32.2-6.3,48.7-5.9,56.9-4.5c4.6,0.8,7.4,5.6,5.9,10c-2.3,6.5-7.4,12.9-10.9,16.8c-11,12.3-28,25.1-49.6,37.6
					c-2.7,22.7-9.4,44.2-19.4,63.7c47.1-21.9,83.4-45.8,104.6-69.4C626.5,178,634.4,156.3,630.9,134.7z"/>
				<path class="st19" d="M186.6,302.5c-29.6,2.7-57.4,3.5-82.3,2.2c-13.4-0.7-24.7,9.7-25.2,23.1c-0.5,13.3,10,24.3,23.2,24.9
					c8.7,0.4,17.7,0.6,26.9,0.6c33.1,0,69.2-2.8,106.8-8.2C217.1,333.9,200.5,319.4,186.6,302.5z"/>
				<path class="st6" d="M428.2,17.4C400.3,1.4,368-7.8,333.6-7.8c-72.2,0-135,40.3-167.1,99.6c38.2-16.4,77.3-29.4,106.7-38.2
					C325.2,38,379,25.5,428.2,17.4z"/>
				<path class="st6" d="M145.6,154.5c-1.3,9-2,18.3-2,27.7c0,8.7,0.6,17.3,1.7,25.7c2.6-0.7,5.2-1.4,8-2.1
					c43.6-11.6,96.2-28.7,152-47.3c82-27.3,148.2-48.6,199.2-59.2c-7.1-14.7-16.1-28.3-26.6-40.6c-56.6,6.6-125,21-191.1,40.8
					C230.6,116.3,182,135.4,145.6,154.5z"/>
				<path class="st6" d="M235.9,345.2c28.5,17.1,61.9,27,97.7,27c73.8,0,137.7-42,169.2-103.4c-32.9,15.3-71.2,29.7-113.4,42.3
					C337.9,326.5,285.6,338.1,235.9,345.2z"/>
				<path class="st6" d="M522.2,205c0.9-7.5,1.4-15.1,1.4-22.8c0-12.7-1.2-25.1-3.6-37c-7,1.4-14.8,3.1-23.5,5.1
					c-51,12.2-114.5,33.3-175.9,53.8c-59.8,19.9-116.4,38.8-162.8,50.2c7.2,17.6,17,33.8,28.8,48.3c59.4-5.4,125.7-18.3,189.2-37.3
					C434.4,247.6,485.2,226.5,522.2,205z"/>
			</g>
			<g>
				<defs>
					<circle id="SVGID_00000018934451312290255460000018009422298680005775_" cx="333.6" cy="182.2" r="190"/>
				</defs>
				<clipPath id="SVGID_00000088832396661802057630000007341181836195535284_">
					<use xlink:href="#SVGID_00000018934451312290255460000018009422298680005775_"  style="overflow:visible;"/>
				</clipPath>
				<g style="clip-path:url(#SVGID_00000088832396661802057630000007341181836195535284_);">
					<g>
						<path class="st19" d="M354.3-83.9c0,0,104,124.7,128.6,148.5c23.7,22.9,170.8,148,170.8,148l-4.3,19.9L329.5-78.5"/>
						<path class="st19" d="M334.2-68.5c0,0,105.3,124.6,129.9,148.4c23.7,22.9,169.4,148.4,169.4,148.4l-5.1,19.4L310-62.6"/>
						<path class="st19" d="M314.1-53c0,0,106.5,124.5,131.1,148.3c23.7,22.9,168,148.9,168,148.9l-5.9,18.9L290.6-46.7"/>
						<path class="st19" d="M294.1-37.6c0,0,107.8,124.5,132.4,148.2C450.1,133.6,593,260,593,260l-6.7,18.4L271.1-30.8"/>
						<path class="st19" d="M274-22.1c0,0,109.1,124.4,133.6,148.1c23.7,22.9,165.1,149.8,165.1,149.8l-7.5,17.9L251.7-14.9"/>
						<path class="st19" d="M253.9-6.6c0,0,110.3,124.3,134.9,148c23.7,22.9,163.7,150.2,163.7,150.2l-8.3,17.4L232.2,1"/>
						<path class="st19" d="M233.9,8.8c0,0,111.6,124.2,136.2,148c23.7,22.9,162.2,150.7,162.2,150.7l-9.1,16.9L212.8,16.9"/>
						<path class="st19" d="M213.8,24.3c0,0,112.8,124.1,137.4,147.9C374.9,195.1,512,323.3,512,323.3l-9.9,16.4L193.3,32.8"/>
						<path class="st19" d="M193.7,39.7c0,0,114.1,124,138.7,147.8c23.7,22.9,159.4,151.6,159.4,151.6l-10.7,15.9L173.9,48.7"/>
						<path class="st19" d="M173.6,55.2c0,0,115.3,123.9,139.9,147.7c23.7,22.9,157.9,152,157.9,152L460,370.3L154.4,64.6"/>
						<path class="st19" d="M153.6,70.7c0,0,116.6,123.8,141.2,147.6c23.7,22.9,156.5,152.5,156.5,152.5L439,385.6L135,80.5"/>
						<path class="st19" d="M133.5,86.1c0,0,117.8,123.7,142.4,147.5C299.6,256.6,431,386.5,431,386.5l-13.1,14.4L115.5,96.4"/>
						<path class="st19" d="M113.4,101.6c0,0,119.1,123.7,143.7,147.4c23.7,22.9,153.6,153.4,153.6,153.4l-13.8,13.9L96.1,112.3"/>
						<path class="st19" d="M93.4,117c0,0,120.3,123.6,144.9,147.3c23.7,22.9,152.2,153.8,152.2,153.8l-14.6,13.4L76.6,128.2"/>
						<path class="st19" d="M73.3,132.5c0,0,121.6,123.5,146.2,147.2C243.1,302.7,370.2,434,370.2,434l-15.4,12.9L57.2,144.1"/>
					</g>
				</g>
				
					<rect x="195.8" y="282.8" transform="matrix(0.7482 -0.6634 0.6634 0.7482 -157.6886 214.0713)" style="clip-path:url(#SVGID_00000088832396661802057630000007341181836195535284_);fill:#FFFFFF;" width="14.9" height="63.9"/>
				
					<rect x="468.4" y="27.9" transform="matrix(0.7071 -0.7071 0.7071 0.7071 103.8687 350.6335)" style="clip-path:url(#SVGID_00000088832396661802057630000007341181836195535284_);fill:#FFFFFF;" width="13.6" height="44"/>
			</g>
		</g>
	</g>
</g>
<g>
	<g>
		<g>
			<defs>
				<circle id="SVGID_00000117678822606108884090000003376595495231806908_" cx="303.9" cy="402.9" r="190"/>
			</defs>
			<clipPath id="SVGID_00000012452901929582252420000007694514090217510304_">
				<use xlink:href="#SVGID_00000117678822606108884090000003376595495231806908_"  style="overflow:visible;"/>
			</clipPath>
			<g style="clip-path:url(#SVGID_00000012452901929582252420000007694514090217510304_);">
				<polygon class="st19" points="255.9,592.4 102.5,437.8 131.1,497.2 225.2,588.7 				"/>
			</g>
		</g>
		<g>
			<defs>
				<path id="SVGID_00000164474925428983558410000006253370141921507481_" d="M212,475c25.5-5.7,51.1-11.3,76.4-17.9
					c25.5-6.6,50.5-14.8,75.2-23.8c24.6-9,49-18.6,73.4-28.4c11.5-4.6,23.1-8.8,34.9-12.9c7.1-2.5,14.2-5,21.1-7.9
					c-2.9-29.4-12.5-56.8-27.3-80.7c-21.8,7.8-44.4,13.3-66.6,19.8c-24.8,7.3-49.5,14.7-74.1,22.8c-24.6,8.1-49,16.5-73.7,24.2
					c-24.9,7.8-49.9,15.1-74.6,23.2c-20.7,6.8-41.2,14.6-62.4,19.9c1.5,28.2,9.2,54.8,21.7,78.4C161.7,488.3,186.7,480.7,212,475z"
					/>
			</defs>
			<clipPath id="SVGID_00000072266858904626051090000014861300645515527814_">
				<use xlink:href="#SVGID_00000164474925428983558410000006253370141921507481_"  style="overflow:visible;"/>
			</clipPath>
			<path style="clip-path:url(#SVGID_00000072266858904626051090000014861300645515527814_);fill:#FFFFFF;" d="M99.4,574.1
				c-9.2,0-18.1-0.2-26.9-0.6c-13.2-0.6-23.7-11.6-23.2-24.9c0.5-13.4,11.8-23.8,25.2-23.1c74.9,3.8,176.4-11,271.5-39.5
				c92.9-28,166.2-64.5,196-97.9c3.5-3.9,8.6-10.3,10.9-16.8c1.5-4.4-1.2-9.2-5.9-10c-10-1.6-32.3-1.9-80.4,9.7
				c-51,12.2-114.5,33.3-175.9,53.8c-63.6,21.2-123.6,41.2-171.6,52.3C71,488.3,19.7,494.7,4.7,458.4c-6-14.3-9.2-36.9,9.2-63.4
				c39.6-56.9,160.9-100,229.7-120.6c103.1-31.1,213.1-49.4,280.1-46.8c13.3,0.5,23.6,11.6,23.1,24.9c-0.5,13.3-11.6,23.6-24.9,23.1
				c-62.2-2.4-166,15.1-264.7,44.7C153.4,351.3,75.2,390.4,53,422.2c-1.1,1.6-2.1,3.2-2.8,4.6c-2.1,3.9-0.4,10.4,6.6,11
				c10.5,0.9,30.5-1.5,66.8-11.3c43.6-11.6,96.2-28.7,152-47.3c159.3-53.1,259.2-83.4,303.3-56.7c12.3,7.4,20.1,18.8,22.3,33
				c3.5,21.5-4.4,43.2-23.6,64.5c-36,40.2-115.5,81-218,111.8C269.2,559.1,176.1,574.1,99.4,574.1z"/>
		</g>
		<g>
			<g>
				<path class="st19" d="M448.2,279.4c27.9-3.3,53-4.7,73.5-3.9c13.3,0.5,24.4-9.8,24.9-23.1c0.5-13.3-9.8-24.4-23.1-24.9
					c-33.2-1.3-76.9,2.6-125.1,10.6C417.4,249,434.2,263,448.2,279.4z"/>
			</g>
			<g>
				<path class="st19" d="M56.8,437.8c-7-0.6-8.6-7.1-6.6-11c0.7-1.4,1.6-3,2.8-4.6c10.2-14.6,32.1-30.7,62.9-46.9
					c3.3-22.4,10.4-43.5,20.8-62.7c-51,21.9-100.3,49.9-123,82.4c-18.3,26.4-15.1,49.1-9.2,63.4c15,36.3,66.4,29.8,114.6,18.7
					c2.9-0.7,5.8-1.4,8.8-2.1c-6-14.7-10.2-30.2-12.4-46.4C84.3,436.6,66.5,438.7,56.8,437.8z"/>
			</g>
			<g>
				<path class="st19" d="M601.2,355.5c-2.3-14.2-10-25.6-22.3-33c-21.4-12.9-55.9-12.5-104-2.5c7,14.4,12.2,29.8,15.4,45.9
					c32.2-6.3,48.7-5.9,56.9-4.5c4.6,0.8,7.4,5.6,5.9,10c-2.3,6.5-7.4,12.9-10.9,16.8c-11,12.3-28,25.1-49.6,37.6
					c-2.7,22.7-9.4,44.2-19.4,63.7c47.1-21.9,83.4-45.8,104.6-69.4C596.8,398.7,604.7,377,601.2,355.5z"/>
			</g>
			<g>
				<path class="st19" d="M156.9,523.3c-29.6,2.7-57.4,3.5-82.3,2.2c-13.4-0.7-24.7,9.7-25.2,23.1c-0.5,13.3,10,24.3,23.2,24.9
					c8.7,0.4,17.7,0.6,26.9,0.6c33.1,0,69.2-2.8,106.8-8.2C187.5,554.6,170.8,540.2,156.9,523.3z"/>
			</g>
			<g>
				<path class="st6" d="M398.5,238.2c-27.8-16-60.1-25.2-94.6-25.2c-72.2,0-135,40.3-167.1,99.6c38.2-16.4,77.3-29.4,106.7-38.2
					C295.6,258.7,349.4,246.3,398.5,238.2z"/>
			</g>
			<g>
				<path class="st6" d="M116,375.3c-1.3,9-2,18.3-2,27.7c0,8.7,0.6,17.3,1.7,25.7c2.6-0.7,5.2-1.4,8-2.1
					c43.6-11.6,96.2-28.7,152-47.3c82-27.3,148.2-48.6,199.2-59.2c-7.1-14.7-16.1-28.3-26.6-40.6c-56.6,6.6-125,21-191.1,40.8
					C201,337,152.3,356.2,116,375.3z"/>
			</g>
			<g>
				<path class="st6" d="M206.3,565.9c28.5,17.1,61.9,27,97.7,27c73.8,0,137.7-42,169.2-103.4c-32.9,15.3-71.2,29.7-113.4,42.3
					C308.2,547.3,255.9,558.8,206.3,565.9z"/>
			</g>
			<g>
				<path class="st6" d="M492.5,425.8c0.9-7.5,1.4-15.1,1.4-22.8c0-12.7-1.2-25.1-3.6-37c-7,1.4-14.8,3.1-23.5,5.1
					c-51,12.2-114.5,33.3-175.9,53.8c-59.8,19.9-116.4,38.8-162.8,50.2c7.2,17.6,17,33.8,28.8,48.3c59.4-5.4,125.7-18.3,189.2-37.3
					C404.7,468.3,455.5,447.3,492.5,425.8z"/>
			</g>
		</g>
		<g>
			<defs>
				<circle id="SVGID_00000085973001940163101520000015645128212965472437_" cx="303.9" cy="402.9" r="190"/>
			</defs>
			<clipPath id="SVGID_00000044869115897451094880000017853217653295520151_">
				<use xlink:href="#SVGID_00000085973001940163101520000015645128212965472437_"  style="overflow:visible;"/>
			</clipPath>
			<g style="clip-path:url(#SVGID_00000044869115897451094880000017853217653295520151_);">
				<g>
					<path class="st19" d="M324.6,136.8c0,0,104,124.7,128.6,148.5c23.7,22.9,170.8,148,170.8,148l-4.3,19.9L299.8,142.3"/>
					<path class="st19" d="M304.5,152.3c0,0,105.3,124.6,129.9,148.4c23.7,22.9,169.4,148.4,169.4,148.4l-5.1,19.4L280.4,158.2"/>
					<path class="st19" d="M284.5,167.8c0,0,106.5,124.5,131.1,148.3c23.7,22.9,168,148.9,168,148.9l-5.9,18.9L260.9,174.1"/>
					<path class="st19" d="M264.4,183.2c0,0,107.8,124.5,132.4,148.2c23.7,22.9,166.5,149.3,166.5,149.3l-6.7,18.4L241.5,190"/>
					<path class="st19" d="M244.3,198.7c0,0,109.1,124.4,133.6,148.1c23.7,22.9,165.1,149.8,165.1,149.8l-7.5,17.9L222,205.9"/>
					<path class="st19" d="M224.2,214.1c0,0,110.3,124.3,134.9,148c23.7,22.9,163.7,150.2,163.7,150.2l-8.3,17.4l-312-308"/>
					<path class="st19" d="M204.2,229.6c0,0,111.6,124.2,136.2,148c23.7,22.9,162.2,150.7,162.2,150.7l-9.1,16.9L183.1,237.7"/>
					<path class="st19" d="M184.1,245c0,0,112.8,124.1,137.4,147.9C345.2,415.9,482.3,544,482.3,544l-9.9,16.4L163.7,253.6"/>
					<path class="st19" d="M164,260.5c0,0,114.1,124,138.7,147.8c23.7,22.9,159.4,151.6,159.4,151.6l-10.7,15.9L144.2,269.5"/>
					<path class="st19" d="M144,276c0,0,115.3,123.9,139.9,147.7c23.7,22.9,157.9,152,157.9,152L430.3,591L124.8,285.4"/>
					<path class="st19" d="M123.9,291.4c0,0,116.6,123.8,141.2,147.6c23.7,22.9,156.5,152.5,156.5,152.5l-12.3,14.9l-304-305.1"/>
					<path class="st19" d="M103.8,306.9c0,0,117.8,123.7,142.4,147.5c23.7,22.9,155.1,152.9,155.1,152.9l-13.1,14.4L85.9,317.2"/>
					<path class="st19" d="M83.8,322.3c0,0,119.1,123.7,143.7,147.4c23.7,22.9,153.6,153.4,153.6,153.4L367.2,637L66.4,333.1"/>
					<path class="st19" d="M63.7,337.8c0,0,120.3,123.6,144.9,147.3c23.7,22.9,152.2,153.8,152.2,153.8l-14.6,13.4L47,349"/>
					<path class="st19" d="M43.6,353.3c0,0,121.6,123.5,146.2,147.2c23.7,22.9,150.8,154.3,150.8,154.3l-15.4,12.9L27.5,364.9"/>
				</g>
			</g>
			<g style="clip-path:url(#SVGID_00000044869115897451094880000017853217653295520151_);">
				
					<rect x="166.1" y="503.6" transform="matrix(0.7482 -0.6634 0.6634 0.7482 -311.622 249.9627)" class="st19" width="14.9" height="63.9"/>
			</g>
			<g style="clip-path:url(#SVGID_00000044869115897451094880000017853217653295520151_);">
				
					<rect x="438.7" y="248.7" transform="matrix(0.7071 -0.7071 0.7071 0.7071 -60.9272 394.3088)" class="st19" width="13.6" height="44"/>
			</g>
		</g>
	</g>
	<g>
		<g>
			<g>
				<path class="st19" d="M2044.6,6.3c3-1.5,6.5-3.2,10.5-5c13.2-6.2,23.7,12.3,11.6,20.5c-4.2,2.9-8,5.5-11.1,7.6
					c-38.8,27.2-72.7,59.2-72.7,167.4c0,135.9,112.5,268.4,112.5,366.9c0,76.4-21.6,146.5-191.1,228.7c-5.6,2.7-12.2,0.6-15.3-4.7
					l0,0c-3.3-5.7-1.1-13,4.6-16.1c67.7-36.2,87.6-111.2,84.7-175.6c-6-134-114.5-249.2-112.5-359.1
					C1867,171.3,1893,82.6,2044.6,6.3z"/>
				<path class="st19" d="M1938.7,552.3c-9.6-3.6-29.1-13.9-41.4-41.1l-134.3-297.8c-5.7-12.7-23.5-13.2-29.9-0.9l-99.4,188.7
					c-5.1,9.8-15.3,15.9-26.3,15.9h-119.2h-4c-4,0-8,3.2-8.6,7.1c-0.8,5.1,2.9,9.5,7.8,9.9c33.1,3,53,25.1,52.7,60.8
					c-0.2,32.9-27.7,59.9-60.7,59.9h-8.6c-88.3,0-92.1-101.4-92.1-123.6c0-25.8,0-77.6,0-77.6c0-38.1,15.3-104.9,89.7-104.9
					c69.5,0,108.5,32,140.3,74.4c5.2,7,16.3,1.2,13.6-7.1l-27.9-87.4c-2.7-8.4-12.6-12.1-20.2-7.5c-20.5,12.6-32.5,10.5-32.5,10.5
					c-10.1,0.3-42.2-8.8-81.2-8.8c-62.2,0-112.5,24.7-146.9,57.9c-3.4,3.3-9.1,2.2-10.8-2.3l-15.4-37.5c-3.2-7.8-7.3-12.8-15.7-12.8
					h-177.2v-0.1h-92.2c-5.9,0-11.6-0.2-17.5-0.5c-31.6-1.7-142.6-7.5-199.4-7.5c-71.2,0-127,22.3-132.6,74.8
					c-4.2,39.5,23.2,60.1,38.9,74.5c8.5,7.8,48.5,33.1,69,42.6c21.4,9.9,106.8,52.7,98,86.6c-8.8,33.6-37.7,41.9-71,41.9
					c-52.3,0-108.4-43.3-150-82.1c-7.2-6.8-18.4,1.6-13.9,10.5c17.2,33.6,39.2,74.5,53.6,96.1c4.1,6.1,11.5,9.1,18.7,7.2
					c15.5-3.9,35.6-6,47.8-5.4c15.7,0.7,48.6,5,63,5c119.8,0,157.3-31.5,161.2-86.1c5.4-75.1-84.3-125.1-138.9-147
					c-48.8-19.7-67.7-49.3-65.6-64c3.4-25.5,27.7-29.8,48-29c63,2.4,181.8,33.1,181.8,76.3c0,0,0,192.1,0,200.5
					c0,11.2-12.2,31.4-27.7,31.4h-0.3c-2.8,0-5.6,1-7.6,3c-5.4,5.4-1.6,11.7,3.5,11.7h66.9l0,0h66.3h189.1c6.1,0,11.4-3.6,13.8-9.3
					l10.3-25.1c2-4.8,8.1-6.3,12-2.8c33.7,30.5,83.1,49.6,150.6,49.6c15.7,0,48.4-4.3,63.6-9.9c4.8-1.7,10-2.7,15.1-2.7h126.5h20.4
					c7.5,0,11.1-9.4,5.5-14.4c-2.5-2.2-4.7-4.2-6.3-5.7c-12-10.9-11.5-18.3-11.8-24.6c-0.3-6.2,1-12.3,3.9-17.9l89.6-170.2
					l76.5,169.9c2.6,5.7,3.8,11.9,3.3,18.1c-0.1,0.8-0.1,1.5-0.2,2.1c-1.4,8-8.6,24.2-22.1,24.2h-2.2c-3.3,0-6.6,1.1-9.1,3.3
					c-7.5,6.7-2.9,15.1,3.7,15.1h113.3c5.2,0,9.4-4.7,8.3-10.1C1943.8,555.7,1941.6,553.3,1938.7,552.3z M1280.8,315.8
					c-15.4,24.3-23.8,50-23.8,72.6c0,30.1,5.6,59.6,17.3,86c2.6,5.8,1.4,12.6-3,17.1c-21.7,22-69.1,52.7-136.9,52.7h-16.6
					c-15.1,0-27.4-12.2-27.4-27.4v-92.3v-4.9c0-5.1,7.7-11.5,16.4-9.8c13.3,2.6,36.6,10.9,55.3,21.7c13.1,7.6,24.9,15.5,38.5,26.8
					c6,4.9,15,0.6,15-7.1v-29v-57.3v-29c0-7.7-9.1-12-15-7.1c-13.6,11.2-25.4,19.1-38.5,26.8c-18.6,10.7-42.7,22-55.9,25.1
					c-10.2,2.4-13.8-1.6-15.7-5.5v-5.6V279c0-14.4,11.7-26.1,26.1-26.1h33.5c54.9,0,105,31.5,129.1,52.3
					C1282.3,307.7,1283,312.4,1280.8,315.8z"/>
				<path class="st19" d="M3838.7,232.1c-0.8-2.4-3.2-3.9-5.8-3.9h-26.3h-49.5h-26.3c-2.6,0-4.9,1.5-5.8,3.9
					c-1.1,3.3,0.7,6.6,3.7,7.6c9.5,3.1,32.2,13.1,32.2,36.9v143.1c0,5.5-6.4,8.4-10.6,4.9l-150.4-124.8
					c-46.9-39-113.4-64.9-157.3-79.1c-9.7-3.1-16.4,9.7-8.2,15.8c1.4,1.1,2.9,2.2,4.4,3.3c50.1,37.7,55.5,91.7,55.5,97.8V530v9.3
					c0,7.2-5.9,13.1-13.1,13.1c-16.8,0-54.3-27.3-73.5-47.3c-18-18.8-26.6-44.8-46.8-68.5c-16.1-18.8-29.7-25.8-29.7-25.8
					c101.1,0,104.1-82,104.1-91.2c0-13.7,0-91.6-126.6-91.6h-292.1h-49.7c-2.6,0-4.9,1.5-5.8,3.9c-1.1,3.3,0.7,6.7,3.7,7.6
					c9.5,3.1,32.2,13.1,32.2,36.9v180.1c0,62.2-43.5,83-78.4,83c-63.6,0-88-37.5-88-84.6v-27.3l0,0V276.4
					c0-23.9,22.7-33.9,32.2-36.9c2.5-0.8,4.1-3,4.1-5.6v-0.1c0-3.2-2.6-5.9-5.9-5.9H2747h-17.5h-229.9h-117.1
					c-7.1,0-13.7,4.1-16.8,10.5l-18.8,39c-3.2,6.7,4.4,13.3,10.6,9.2c25.2-17.1,67.6-36.7,129.6-39.1c6.8-0.2,12.4,5.2,12.4,12
					v246.9c0,11.7-4.3,20.8-10.2,27.7c-4.5,5.4-11.3,8.4-18.4,8.4h-15.2c-4.9,0-9.9-1.3-14.1-4.1c-9.7-6.3-18.8-15.1-24.4-27.5
					l-134.3-297.8c-5.8-12.7-23.5-13.2-29.9-0.9l-139.7,265.1l-40.3,76.4l2.8,14.6h40.5h7.2h88l0,0c7.5,0,11.1-9.4,5.5-14.4
					c0,0-0.1,0-0.1-0.1c-2.5-2.2-4.6-4.1-6.2-5.6c-11.9-10.7-11.5-18.1-11.8-24.4c-0.3-6.3,1-12.6,3.9-18.1l89.7-170.2l76.5,169.9
					c2.6,5.7,3.8,11.9,3.3,18.1c-0.1,0.8-0.1,1.5-0.2,2.1c-1.4,8-8.6,24.2-22.1,24.2h-0.2c-2.7,0-5.4,0.8-7.5,2.5
					c-8.8,6.8-4.1,15.9,2.7,15.9h112.9h6.6h89.2h26.3h53.9c4.6,0,8.6-3.5,8.8-8.1c0.2-3.7-2.1-7.2-5.5-8.4
					c-11.3-4.3-36.3-17.2-36.3-45.4V259.5c0-7,5.7-12.3,12.7-12c47.9,1.9,84.2,14,109.7,27.4c4.1,2.2,6.7,6.4,6.7,11v159.1h0.4
					c4.1,73.1,38.8,129.2,165.9,129.2c73.7,0,142.7-38.6,142.7-109.7c0-8.7,0-182.3,0-182.3c0-10.8,3.4-18.4,7.7-23.7
					c6.3-7.7,15.9-11.8,25.9-11.8h15c10,0,19.7,4.1,25.9,11.8c4.3,5.4,7.7,13,7.7,23.7v220.7c0,32.8-26,45.2-38.2,49.2
					c-2.9,0.9-5.2,3.3-5.9,6.4c-1,5.4,3,10.1,8.2,10.1h54.3h61.3h56.8c3.5,0,6.8-2.1,8-5.4c1.7-4.7-0.8-9.6-5.1-11
					c-11.9-3.9-38.5-16.3-38.5-49.3V293.6v-24.9c0-18.7,16.1-25.5,27.1-25.5h31.6c29.4,0,58.6,24.8,58.6,66.2
					c0,60.7-39.5,75.4-55.7,75.4c-10.8,0-19.2,0.2-28.2-3.1c0,0-0.1,0-0.1-0.1c-5.7-2.7-11.7,2.6-9.9,8.5c0.1,0.3,0.1,0.5,0.2,0.5
					c9.5,32.1,26.5,81.2,49.8,112.5c36.1,48.7,104.6,87.5,219.6,87.5h49.4c3.1,0,6-1.9,6.9-4.7c1.3-4-0.9-8-4.6-9.2
					c-9.9-3-30.9-11.9-30.9-34.3V380.9c0-5.5,6.4-8.4,10.6-4.9l238.7,198.2c6.9,5.7,17.2,0.8,17.2-8.1V276.7
					c0-23.9,22.7-33.9,32.2-36.9C3837.9,238.8,3839.8,235.5,3838.7,232.1z"/>
			</g>
		</g>
	</g>
</g>
</svg>
