<?xml version="1.0" encoding="utf-8"?>
<!-- Generator: Adobe Illustrator 25.2.1, SVG Export Plug-In . SVG Version: 6.00 Build 0)  -->
<svg version="1.1" id="Layer_1" xmlns="http://www.w3.org/2000/svg" xmlns:xlink="http://www.w3.org/1999/xlink" x="0px" y="0px"
	 viewBox="0 0 3839 1158.8" style="enable-background:new 0 0 3839 1158.8;" xml:space="preserve">
<style type="text/css">
	.st0{fill:#2798D0;}
	.st1{fill:#0080BF;}
	.st2{fill:#FFFFFF;}
	.st3{fill:#C2AC6D;}
	.st4{fill:#069ACB;}
</style>
<g>
	<g>
		<g>
			<g>
				<path class="st2" d="M1530.1,55.1c0,30.4,20.4,55,45.5,55h126.2c3.1,0,5.6,3.1,5.6,6.8c0,3.8-2.5,6.8-5.6,6.8h-171.7V172h192.3
					c25.2,0,45.5-24.7,45.5-55.1c0-30.4-20.3-55-45.5-55h-126.2c-3.1,0-5.6-3-5.6-6.8c0-3.7,2.5-6.9,5.6-6.9h171.7V0h-192.3
					C1550.4,0,1530.1,24.7,1530.1,55.1z"/>
				<g>
					<polygon class="st2" points="1958.9,0 1958.9,107.7 1844,0 1781.4,0 1781.4,172 1841.8,172 1841.8,64.2 1956.8,172 2019.3,172 
						2019.3,0 					"/>
				</g>
				<polygon class="st2" points="2270.6,0 2191.5,0 2093.2,75.8 2093.2,0 2032.9,0 2032.9,172 2093.2,172 2093.2,96.1 2191.5,172 
					2270.6,172 2159.1,86 				"/>
			</g>
		</g>
		<g>
			<g>
				<path class="st2" d="M605.1,354.6c-57.4,8.8-68.9,17.7-68.9,73.3v517.7h-24.7L116.6,464.1v349.8c0,68,15,85.7,83,93.6v22.1H0
					v-22.1c64.5-8,77.7-20.3,77.7-74.2V418.2c-37.1-51.2-57.4-63.6-75.1-63.6v-22.1H189l308.3,379.9V448.2
					c0-70.7-15.9-87.5-81.3-93.6v-22.1h189.1V354.6z"/>
				<path class="st2" d="M1157.6,929.7H640.8v-22.1c65.4-7.1,77.7-21.2,77.7-67.2V417.3c0-45.1-16.8-59.2-77.7-62.7v-22.1h509.7V510
					h-22.1C1108.1,391.7,1063,362.5,919,362.5c-45.9,0-57.4,14.1-57.4,47.7V609c93.6-0.9,132.5-29.2,143.1-131.6h23V776h-23
					c-8.8-105.1-46.8-136.9-143.1-136.9v213.8c0,38,15.9,49.5,73.3,49.5c68.9,0,119.3-13.3,160.8-47.7c30-24.7,45.9-51.2,72.4-108.7
					h24.7L1157.6,929.7z"/>
				<path class="st2" d="M1558.1,946.5c-173.8-0.3-314.9-146.5-311.2-320.2c3.9-183.5,136-307,317-307
					c177.6,0,308.3,131.6,308.3,314.5C1872.2,817.7,1741.2,946.7,1558.1,946.5z M1556,348.4c-97.2,0-152.8,104.2-152.8,289.7
					c0,186.4,56.5,279.2,157.3,279.2c101.6,0,155.5-95.4,155.5-277.4C1715.9,451.8,1659.3,348.4,1556,348.4z"/>
				<path class="st2" d="M2570.1,698.2c-66.3,7-76,32.7-76,88.3v104.2c-57.4,33.6-152.9,55.7-244.7,55.7
					c-177.6,0-313.6-120.1-313.6-309.2c0-175.8,130.7-318,307.4-318c45.9,0,85.7,9.7,136.9,30.9c20.3,8.8,31.8,12.4,40.6,12.4
					c16.8,0,25.6-8.8,38.9-40.6h23.9v207.6h-22.1c-30.9-67.1-46.8-98-84.8-131.6c-37.9-33.6-80.4-49.5-121.9-49.5
					c-102.5,0-162.6,99.8-162.6,282.7c0,91,13.3,160.8,42.4,209.4c30.9,51.3,68.9,76.9,136.9,76.9c62.7,0,84.8-30.1,84.8-75.1v-78.6
					c0-45.9-14.1-61-90.1-65.4v-22.1h303.9L2570.1,698.2L2570.1,698.2L2570.1,698.2z"/>
				<path class="st2" d="M3124.3,929.7h-516.8v-22.1c65.4-7.1,77.7-21.2,77.7-67.2V417.3c0-45.1-16.8-59.2-77.7-62.7v-22.1h509.7
					V510h-22.1c-20.3-118.4-65.3-147.5-209.3-147.5c-45.9,0-57.4,14.1-57.4,47.7V609c93.6-0.9,132.5-29.2,143.1-131.6h23V776h-23
					c-8.8-105.1-46.8-136.9-143.1-136.9v213.8c0,38,15.9,49.5,73.3,49.5c68.9,0,119.3-13.3,160.8-47.7c30.1-24.7,46-51.2,72.5-108.7
					h24.7L3124.3,929.7z"/>
				<path class="st2" d="M3524.8,946.5c-173.8-0.3-314.9-146.5-311.2-320.3c3.9-183.5,136.1-307,317.1-307
					c177.6,0,308.3,131.6,308.3,314.5C3839,817.7,3708,946.7,3524.8,946.5z M3522.7,348.4c-97.2,0-152.8,104.2-152.8,289.7
					c0,186.4,56.5,279.2,157.3,279.2c101.6,0,155.5-95.4,155.5-277.4C3682.6,451.8,3626.1,348.4,3522.7,348.4z"/>
			</g>
		</g>
	</g>
	<g>
		<path class="st2" d="M16.3,1106.6v44H0v-108.3h18.5c9.1,0,15.9,0.6,20.6,1.9c4.7,1.2,8.8,3.7,12.3,7.2c6.2,6.1,9.3,13.7,9.3,23
			c0,9.9-3.3,17.8-10,23.6c-6.6,5.8-15.6,8.7-26.9,8.7L16.3,1106.6L16.3,1106.6z M16.3,1091.5h6.1c15,0,22.5-5.7,22.5-17.3
			c0-11.2-7.7-16.7-23.2-16.7h-5.4L16.3,1091.5L16.3,1091.5z"/>
		<path class="st2" d="M114.3,1104.5l33.5,46.2h-20l-30.9-44.3H94v44.3H77.6v-108.3h19.2c14.3,0,24.7,2.7,31,8.1
			c7,6,10.5,13.9,10.5,23.7c0,7.7-2.2,14.2-6.6,19.8C127.3,1099.4,121.5,1102.9,114.3,1104.5z M94,1092h5.2
			c15.5,0,23.2-5.9,23.2-17.7c0-11.1-7.5-16.6-22.6-16.6H94V1092z"/>
		<path class="st2" d="M158.7,1096c0-15.2,5.6-28.3,16.8-39.3c11.1-10.9,24.5-16.4,40.1-16.4c15.4,0,28.7,5.5,39.7,16.6
			c11.1,11,16.6,24.3,16.6,39.8c0,15.6-5.6,28.8-16.7,39.7c-11.2,10.9-24.7,16.3-40.5,16.3c-14,0-26.5-4.8-37.7-14.5
			C164.9,1127.3,158.7,1113.3,158.7,1096z M175.2,1096.2c0,12,4,21.8,12.1,29.5c8,7.7,17.2,11.6,27.7,11.6c11.4,0,21-3.9,28.8-11.8
			c7.8-8,11.7-17.7,11.7-29.1c0-11.6-3.9-21.2-11.6-29.1c-7.7-7.8-17.2-11.8-28.5-11.8c-11.3,0-20.8,3.9-28.6,11.8
			C179.1,1075.1,175.2,1084.8,175.2,1096.2z"/>
		<path class="st2" d="M279.5,1097h31.3v13.7h-31.3V1097z"/>
		<path class="st2" d="M379.5,1094.2h44.8v3.6c0,8.2-1,15.3-2.9,21.6c-1.9,5.8-5,11.2-9.5,16.3c-10.1,11.3-22.8,17-38.4,17
			c-15.2,0-28.1-5.5-38.9-16.4c-10.8-11-16.2-24.2-16.2-39.6c0-15.7,5.5-29.1,16.5-40c11-11,24.4-16.5,40.1-16.5
			c8.5,0,16.4,1.7,23.7,5.2c7,3.5,13.9,9.1,20.7,16.8l-11.7,11.2c-8.9-11.8-19.7-17.7-32.5-17.7c-11.5,0-21.1,4-28.8,11.8
			c-7.8,7.8-11.7,17.5-11.7,29.2c0,12.1,4.3,22,13,29.8c8.1,7.2,16.9,10.9,26.3,10.9c8,0,15.3-2.7,21.7-8.2c6.4-5.5,10-12,10.7-19.7
			h-27L379.5,1094.2L379.5,1094.2z"/>
		<path class="st2" d="M504.7,1057.6h-43.4v26h42.2v15.4h-42.2v36.2h43.4v15.4h-59.8v-108.3h59.8V1057.6z"/>
		<path class="st2" d="M589.8,1124.3h-46.4l-12.1,26.3h-17.6l53.6-115.1l51.7,115.1h-17.9L589.8,1124.3z M583.1,1109l-16.1-36.8
			l-16.8,36.8H583.1z"/>
		<path class="st2" d="M669.2,1104.5l33.5,46.2h-20l-30.9-44.3h-2.9v44.3h-16.3v-108.3h19.2c14.3,0,24.7,2.7,31,8.1
			c7,6,10.5,13.9,10.5,23.7c0,7.7-2.2,14.2-6.6,19.8S676.4,1102.9,669.2,1104.5z M648.9,1092h5.2c15.5,0,23.2-5.9,23.2-17.7
			c0-11.1-7.5-16.6-22.6-16.6h-5.8L648.9,1092L648.9,1092z"/>
		<path class="st2" d="M824.7,1058.4l-13.3,7.9c-2.5-4.3-4.8-7.1-7.1-8.4c-2.3-1.5-5.4-2.3-9.1-2.3c-4.5,0-8.3,1.3-11.3,3.9
			c-3,2.5-4.5,5.7-4.5,9.5c0,5.3,3.9,9.5,11.8,12.8l10.8,4.4c8.8,3.6,15.2,7.9,19.3,13c4.1,5.1,6.1,11.4,6.1,18.8
			c0,10-3.3,18.2-10,24.7c-6.7,6.6-15,9.8-24.9,9.8c-9.4,0-17.2-2.8-23.3-8.3c-6-5.6-9.8-13.4-11.3-23.5l16.6-3.7
			c0.7,6.4,2.1,10.7,3.9,13.2c3.4,4.7,8.3,7,14.7,7c5.1,0,9.3-1.7,12.7-5.1c3.4-3.4,5.1-7.7,5.1-13c0-2.1-0.3-4-0.9-5.8
			c-0.6-1.7-1.5-3.4-2.7-4.8c-1.2-1.5-2.8-2.8-4.8-4.1c-2-1.3-4.3-2.5-7-3.7l-10.5-4.3c-14.8-6.3-22.2-15.4-22.2-27.5
			c0-8.1,3.1-14.9,9.3-20.4c6.2-5.5,14-8.3,23.2-8.3C807.9,1040.2,817.6,1046.3,824.7,1058.4z"/>
		<path class="st2" d="M863.5,1106.6v44h-16.3v-108.3h18.5c9.1,0,15.9,0.6,20.6,1.9c4.7,1.2,8.8,3.7,12.3,7.2
			c6.2,6.1,9.3,13.7,9.3,23c0,9.9-3.3,17.8-10,23.6c-6.6,5.8-15.6,8.7-26.9,8.7L863.5,1106.6L863.5,1106.6z M863.5,1091.5h6.1
			c15,0,22.5-5.7,22.5-17.3c0-11.2-7.7-16.7-23.2-16.7h-5.4L863.5,1091.5L863.5,1091.5z"/>
		<path class="st2" d="M984.6,1057.6h-43.4v26h42.2v15.4h-42.2v36.2h43.4v15.4h-59.8v-108.3h59.8V1057.6z"/>
		<path class="st2" d="M1086.1,1048.1v19.4c-9.4-7.9-19.2-11.8-29.3-11.8c-11.1,0-20.5,4-28.1,12c-7.7,8-11.5,17.7-11.5,29.2
			c0,11.4,3.8,21,11.5,28.8c7.7,7.8,17.1,11.7,28.2,11.7c5.7,0,10.6-0.9,14.7-2.8c2.3-0.9,4.6-2.2,7-3.8c2.4-1.6,4.9-3.5,7.6-5.7
			v19.7c-9.4,5.2-19.2,7.9-29.5,7.9c-15.5,0-28.7-5.4-39.6-16.2c-10.9-10.9-16.3-24.1-16.3-39.4c0-13.8,4.6-26.1,13.7-36.9
			c11.2-13.2,25.7-19.9,43.6-19.9C1067.6,1040.2,1077,1042.8,1086.1,1048.1z"/>
		<path class="st2" d="M1214.7,1124.3h-46.4l-12.1,26.3h-17.6l53.6-115.1l51.7,115.1h-17.9L1214.7,1124.3z M1208.1,1109l-16.1-36.8
			l-16.8,36.8H1208.1z"/>
		<path class="st2" d="M1257.5,1150.6v-108.3h22.7c10.9,0,19.5,1.1,25.8,3.2c6.8,2.1,12.9,5.7,18.5,10.7
			c11.2,10.2,16.8,23.6,16.8,40.2c0,16.7-5.8,30.1-17.5,40.4c-5.8,5.1-12,8.7-18.4,10.7c-6,2-14.5,3-25.5,3L1257.5,1150.6
			L1257.5,1150.6z M1273.9,1135.2h7.4c7.3,0,13.4-0.8,18.3-2.3c4.9-1.7,9.3-4.2,13.2-7.8c8-7.3,12.1-16.9,12.1-28.7
			c0-11.9-4-21.5-11.9-28.9c-7.2-6.6-17.7-9.9-31.7-9.9h-7.4V1135.2z"/>
		<path class="st2" d="M1367.3,1042.3l30,75.1l30.4-75.1h17.9l-48.6,116.5l-47.5-116.5H1367.3z"/>
		<path class="st2" d="M1522.7,1124.3h-46.4l-12.1,26.3h-17.6l53.6-115.1l51.7,115.1H1534L1522.7,1124.3z M1516,1109l-16.1-36.8
			l-16.8,36.8H1516z"/>
		<path class="st2" d="M1565.5,1150.6v-115.7l79,82.6v-75.3h16.3v114.9l-79-82.4v75.8L1565.5,1150.6L1565.5,1150.6z"/>
		<path class="st2" d="M1766.9,1048.1v19.4c-9.4-7.9-19.2-11.8-29.3-11.8c-11.1,0-20.5,4-28.1,12c-7.7,8-11.5,17.7-11.5,29.2
			c0,11.4,3.8,21,11.5,28.8c7.7,7.8,17.1,11.7,28.2,11.7c5.7,0,10.6-0.9,14.7-2.8c2.3-0.9,4.6-2.2,7-3.8c2.4-1.6,5-3.5,7.6-5.7v19.7
			c-9.4,5.2-19.2,7.9-29.5,7.9c-15.5,0-28.7-5.4-39.6-16.2c-10.9-10.9-16.3-24.1-16.3-39.4c0-13.8,4.6-26.1,13.7-36.9
			c11.2-13.2,25.7-19.9,43.6-19.9C1748.4,1040.2,1757.8,1042.8,1766.9,1048.1z"/>
		<path class="st2" d="M1847.3,1057.6h-43.4v26h42.2v15.4h-42.2v36.2h43.4v15.4h-59.8v-108.3h59.8V1057.6z"/>
		<path class="st2" d="M1868.7,1150.6v-108.3h22.7c10.9,0,19.5,1.1,25.8,3.2c6.8,2.1,12.9,5.7,18.5,10.7
			c11.2,10.2,16.8,23.6,16.8,40.2c0,16.7-5.8,30.1-17.5,40.4c-5.8,5.1-12,8.7-18.4,10.7c-6,2-14.5,3-25.5,3L1868.7,1150.6
			L1868.7,1150.6z M1885.1,1135.2h7.4c7.3,0,13.4-0.8,18.3-2.3c4.8-1.7,9.2-4.2,13.2-7.8c8-7.3,12.1-16.9,12.1-28.7
			c0-11.9-4-21.5-11.9-28.9c-7.2-6.6-17.7-9.9-31.7-9.9h-7.4L1885.1,1135.2L1885.1,1135.2z"/>
		<path class="st2" d="M2077.2,1057.6h-43.4v26h42.2v15.4h-42.2v36.2h43.4v15.4h-59.8v-108.3h59.8V1057.6z"/>
		<path class="st2" d="M2098.7,1150.6v-115.7l79,82.6v-75.3h16.3v114.9l-79-82.4v75.8L2098.7,1150.6L2098.7,1150.6z"/>
		<path class="st2" d="M2249.9,1057.6v93h-16.3v-93h-24.9v-15.4h66.1v15.4H2249.9z"/>
		<path class="st2" d="M2349.1,1057.6h-43.4v26h42.2v15.4h-42.2v36.2h43.4v15.4h-59.8v-108.3h59.8V1057.6z"/>
		<path class="st2" d="M2407.3,1104.5l33.6,46.2h-20l-30.9-44.3h-2.9v44.3h-16.3v-108.3h19.2c14.3,0,24.7,2.7,31,8.1
			c7,6,10.5,13.9,10.5,23.7c0,7.7-2.2,14.2-6.6,19.8C2420.3,1099.4,2414.5,1102.9,2407.3,1104.5z M2386.9,1092h5.2
			c15.5,0,23.2-5.9,23.2-17.7c0-11.1-7.6-16.6-22.6-16.6h-5.8L2386.9,1092L2386.9,1092z"/>
		<path class="st2" d="M2487,1057.6v93h-16.3v-93h-24.9v-15.4h66.1v15.4H2487z"/>
		<path class="st2" d="M2590.1,1124.3h-46.4l-12.1,26.3h-17.7l53.6-115.1l51.7,115.1h-17.8L2590.1,1124.3z M2583.4,1109l-16.1-36.8
			l-16.8,36.8H2583.4z"/>
		<path class="st2" d="M2649.2,1042.3v108.3h-16.3v-108.3H2649.2z"/>
		<path class="st2" d="M2675.2,1150.6v-115.7l79,82.6v-75.3h16.3v114.9l-79-82.4v75.8L2675.2,1150.6L2675.2,1150.6z"/>
		<path class="st2" d="M2792.8,1150.6l22.8-116.5l37.2,84.2l38.5-84.2l20.5,116.5H2895l-10.5-65.4l-32.1,70.4l-31.2-70.5l-11.7,65.5
			H2792.8z"/>
		<path class="st2" d="M2994.5,1057.6H2951v26h42.2v15.4H2951v36.2h43.4v15.4h-59.7v-108.3h59.7V1057.6z"/>
		<path class="st2" d="M3016,1150.6v-115.7l79,82.6v-75.3h16.3v114.9l-79-82.4v75.8L3016,1150.6L3016,1150.6z"/>
		<path class="st2" d="M3167.2,1057.6v93h-16.3v-93h-24.9v-15.4h66.1v15.4H3167.2z"/>
		<path class="st2" d="M3312.2,1058.4l-13.2,7.9c-2.5-4.3-4.8-7.1-7.1-8.4c-2.3-1.5-5.3-2.3-9.1-2.3c-4.5,0-8.3,1.3-11.3,3.9
			c-3,2.5-4.5,5.7-4.5,9.5c0,5.3,3.9,9.5,11.7,12.8l10.8,4.4c8.8,3.6,15.2,7.9,19.3,13c4.1,5.1,6.1,11.4,6.1,18.8
			c0,10-3.3,18.2-10,24.7c-6.7,6.6-15,9.8-24.9,9.8c-9.4,0-17.2-2.8-23.3-8.3c-6-5.6-9.8-13.4-11.3-23.5l16.6-3.7
			c0.7,6.4,2.1,10.7,3.9,13.2c3.3,4.7,8.2,7,14.7,7c5.1,0,9.3-1.7,12.7-5.1c3.3-3.4,5.1-7.7,5.1-13c0-2.1-0.3-4-0.9-5.8
			c-0.6-1.7-1.5-3.4-2.7-4.8c-1.2-1.5-2.8-2.8-4.8-4.1c-2-1.3-4.3-2.5-7-3.7l-10.5-4.3c-14.8-6.3-22.2-15.4-22.2-27.5
			c0-8.1,3.1-14.9,9.3-20.4c6.2-5.5,14-8.3,23.2-8.3C3295.4,1040.2,3305.2,1046.3,3312.2,1058.4z"/>
		<path class="st2" d="M3356.6,1103.8l-35.4-61.5h18.8l24.8,43.3l24.8-43.3h18.8l-35.5,61.5v46.8h-16.3L3356.6,1103.8L3356.6,1103.8
			z"/>
		<path class="st2" d="M3482.2,1058.4l-13.3,7.9c-2.5-4.3-4.8-7.1-7.1-8.4c-2.3-1.5-5.4-2.3-9.1-2.3c-4.5,0-8.3,1.3-11.3,3.9
			c-3,2.5-4.5,5.7-4.5,9.5c0,5.3,3.9,9.5,11.8,12.8l10.8,4.4c8.8,3.6,15.2,7.9,19.3,13c4.1,5.1,6.1,11.4,6.1,18.8
			c0,10-3.3,18.2-10,24.7c-6.7,6.6-15,9.8-24.9,9.8c-9.4,0-17.2-2.8-23.3-8.3c-6-5.6-9.8-13.4-11.3-23.5l16.6-3.7
			c0.7,6.4,2.1,10.7,3.9,13.2c3.4,4.7,8.3,7,14.7,7c5.1,0,9.3-1.7,12.7-5.1c3.4-3.4,5.1-7.7,5.1-13c0-2.1-0.3-4-0.9-5.8
			c-0.6-1.7-1.5-3.4-2.7-4.8c-1.2-1.5-2.8-2.8-4.8-4.1c-2-1.3-4.3-2.5-7-3.7l-10.5-4.3c-14.8-6.3-22.2-15.4-22.2-27.5
			c0-8.1,3.1-14.9,9.3-20.4c6.2-5.5,14-8.3,23.2-8.3C3465.4,1040.2,3475.2,1046.3,3482.2,1058.4z"/>
		<path class="st2" d="M3534.6,1057.6v93h-16.3v-93h-24.9v-15.4h66.1v15.4H3534.6z"/>
		<path class="st2" d="M3633.8,1057.6h-43.4v26h42.2v15.4h-42.2v36.2h43.4v15.4h-59.8v-108.3h59.8V1057.6z"/>
		<path class="st2" d="M3651.5,1150.6l22.8-116.5l37.2,84.2l38.6-84.2l20.5,116.5h-16.8l-10.5-65.4l-32.1,70.4l-31.2-70.5
			l-11.7,65.5H3651.5z"/>
	</g>
</g>
</svg>
