<?xml version="1.0" encoding="utf-8"?>
<!-- Generator: Adobe Illustrator 26.0.3, SVG Export Plug-In . SVG Version: 6.00 Build 0)  -->
<svg version="1.1" id="Layer_1" xmlns="http://www.w3.org/2000/svg" xmlns:xlink="http://www.w3.org/1999/xlink" x="0px" y="0px"
	 viewBox="0 0 3839 741.1" style="enable-background:new 0 0 3839 741.1;" xml:space="preserve">
<style type="text/css">
	.st0{fill:#FFFFFF;}
	.st1{fill-rule:evenodd;clip-rule:evenodd;fill:#FFFFFF;}
	.st2{fill-rule:evenodd;clip-rule:evenodd;}
	.st3{fill:#00AD9C;}
	.st4{fill:#FBB817;}
	.st5{fill:#0174BA;}
	.st6{fill:#EB2027;}
</style>
<g>
	<g>
		<g>
			<g>
				<path class="st0" d="M1215.8,218.6v374.2h58.4V254.5h54.1c0,0,39.2,0,52.7,17.6c11.3,14.9,13.6,42,13.6,60.2
					c0,19.6-1.3,49.8-7.8,60.9c-10,16.8-26.4,20.2-41.4,20.2h-35.6v33.2h51.3c0,0,46.3,2,66.3-18.3c24.3-24.8,30.5-58.2,30.5-102.9
					c0-40.7-14.7-81.5-44.8-95.4c-25-11.5-69.9-11.5-69.9-11.5H1215.8z"/>
				<rect x="1503.8" y="218.6" class="st0" width="58.5" height="374.2"/>
				<polygon class="st0" points="1873,305.9 1979.9,586.1 1918.6,736.3 1967,736.3 2143.7,305.9 2089.5,305.9 2012.6,515.7 
					1941,305.9 				"/>
				<path class="st0" d="M2187.7,590.6v-35.3c0,0,61.8,2.4,74.6,2.4c28.6,0,42.7-6.1,53.4-17.6c6.4-6.8,12.1-37.4,12.1-48.4
					c0-10.8-2.1-34.3-6.4-43.8c-4.2-9.5-14.1-18.3-29.1-19.5c-10.7-0.9-27.1-3-46.4-3.9c-27-1.3-44.8-15.3-53.4-25.4
					c-8.5-10.2-20-25.4-20-72c0-46.8,12.2-72.9,24.2-85.2c12.1-12.1,29.9-17.5,43.5-20c15.6-2.6,41.3-2.8,41.3-2.8l81.6,2.4v35.3
					c0,0-59.5-2.4-72.4-2.4c-28.6,0-37.1,6.1-47.8,17.6c-6.3,6.8-11.2,25.7-11.2,36.5c0,10.9,1.3,32.8,5.5,42.2
					c4.3,9.5,14.3,18.3,29.3,19.5c10.6,0.9,27,3,46.3,4c27,1.3,44.9,15.3,53.4,25.4c8.6,10.2,20,31.5,20,78.1
					c0,46.7-12.1,80.1-24.2,92.3c-12.1,12.2-29.9,17.6-43.4,19.9c-15.6,2.7-41.3,2.9-41.3,2.9L2187.7,590.6z"/>
				<path class="st0" d="M2506.4,254.5H2448v274.7c0,0,1.4,25.1,2.8,33.8c1.4,8.8,14.2,29.8,47.7,29.8l60.5-1.2v-35.3
					c0,0-16.4,1.2-26.3,1.2c-10,0-22.1-0.7-24.2-17.6c-2.1-16.9-2.1-37.1-2.1-37.1V341.1h65.8v-35.1h-65.8V254.5z"/>
				<rect x="3070" y="305.9" class="st0" width="58.4" height="286.8"/>
				<rect x="3070" y="218.6" class="st0" width="58.4" height="52.1"/>
				<path class="st0" d="M3313,303.4c39.7,0,70.5,9,87.1,22.4c16.7,13.4,37.2,41.7,37.2,123.6c0,81.9-20.5,110.2-37.2,123.5
					c-16.6,13.5-47.4,22.4-87.1,22.4c-39.8,0-70.5-8.9-87.3-22.4c-16.6-13.4-37.2-41.7-37.2-123.5c0-81.9,20.6-110.2,37.2-123.6
					C3242.5,312.4,3273.1,303.4,3313,303.4 M3272.8,358.5c-7.9,9.8-17.7,30.6-17.7,90.8c0,60.1,9.8,81,17.7,90.8
					c8,9.9,22.8,16.5,42,16.5c19.1,0,33.8-6.6,41.8-16.5c8-9.8,17.8-30.7,17.8-90.8c0-60.2-9.8-81-17.8-90.8
					c-8-9.9-22.8-16.4-41.8-16.4C3295.6,342.1,3280.8,348.6,3272.8,358.5"/>
				<path class="st0" d="M3558.3,346.2l57.3-2.4c14.9,0,32.5,4.1,41.1,14.9c8,10.2,13,22.3,13,42v191.8h58.4V395.9
					c0-37.2-11.3-58.8-28.4-72.4c-24.5-19.4-68.3-17.6-68.3-17.6l-130.9,2.4v284.2h57.9V346.2z"/>
				<path class="st0" d="M2953.7,254.5h-58.5v274.7c0,0,1.6,25.1,2.9,33.8c1.4,8.8,14.2,29.8,47.7,29.8l60.5-1.2v-35.3
					c0,0-16.3,1.2-26.3,1.2c-10,0-22.1-0.7-24.1-17.6c-2.2-16.9-2.2-37.1-2.2-37.1V341.1h65.9v-35.1h-65.9V254.5z"/>
				<path class="st0" d="M1783.9,400.7c0-19.6-5-31.8-12.9-42c-8.5-10.8-26.2-14.9-41.2-14.9l-77,2.4v-37.9l92.7-2.4
					c0,0,43.9-1.8,68.4,17.6c17.1,13.6,28.5,35.1,28.5,72.3v193.9l-111.9,2.4c0,0-50.8,0.2-76.2-10.2c-25-10.2-38.4-38-38.4-76.5
					c0-37.2,11.3-58.9,28.4-72.4c24.6-19.4,68.4-17.6,68.4-17.6h35.7v33.2h-19.9c-15,0-30.6,2.7-39.1,13.5
					c-8,10.2-12.3,19-12.3,38.6c0,25.7,5,37.2,17.1,46.1c10.7,7.7,29.9,9.5,51.3,9.5l38.5-2.4V400.7z"/>
				<path class="st0" d="M2768.8,400.7c0-19.6-5-31.8-13.1-42c-8.6-10.8-26.1-14.9-41.1-14.9l-77,2.4v-37.9l92.7-2.4
					c0,0,43.8-1.8,68.3,17.6c17.1,13.6,28.5,35.1,28.5,72.3v193.9l-111.9,2.4c0,0-50.8,0.2-76.2-10.2c-24.9-10.2-38.5-38-38.5-76.5
					c0-37.2,11.4-58.9,28.6-72.4c24.5-19.4,68.3-17.6,68.3-17.6h35.7v33.2h-20c-15,0-30.4,2.7-39,13.5c-8,10.2-12.3,19-12.3,38.6
					c0,25.7,5,37.2,17.1,46.1c10.7,7.7,30,9.5,51.3,9.5l38.6-2.4V400.7z"/>
			</g>
			<g>
				<g>
					<path class="st1" d="M923.2,674.1c-5.9-6-13.8-9.3-22.3-9.3c-17.4,0-31.5,14.3-31.5,32c0,8.5,3.3,16.5,9.2,22.6
						c5.9,6,13.8,9.4,22.3,9.4c8.4,0,16.3-3.3,22.3-9.4c5.9-6,9.2-14,9.2-22.6C932.4,688.1,929.1,680.1,923.2,674.1z M900.9,723.3
						c-7,0-13.5-2.8-18.6-7.8c-4.9-5-7.7-11.7-7.7-18.9c0-7.1,2.7-13.8,7.7-18.9c4.9-5,11.5-7.8,18.6-7.8s13.5,2.8,18.6,7.8
						c4.9,5,7.7,11.7,7.7,18.9C927.1,711.4,915.4,723.3,900.9,723.3z"/>
					<path class="st1" d="M915.4,710c-0.2-0.6-0.3-1.5-0.3-2.7l-0.2-4.6c-0.1-2.2-0.5-3.7-1.3-4.7c-0.5-0.7-1.2-1.2-2.1-1.7
						c1.1-0.7,2-1.6,2.6-2.6c0.9-1.4,1.4-3.2,1.4-5.4c0-4.2-1.7-7.1-5.2-8.7c-1.8-0.8-4-1.2-6.6-1.2h-15.5h-0.6v0.8v34v0.8h0.8h4.5
						h0.8v-0.8v-13.8h9.5c1.7,0,3,0.2,3.7,0.5c1.3,0.6,1.9,1.9,2,3.8l0.3,5.7c0.1,1.4,0.1,2.3,0.3,2.8c0.1,0.5,0.2,1,0.4,1.3
						l0.2,0.4h0.5h5.5h0.8v-0.7v-0.8v-0.5l-0.5-0.2C916,711.4,915.7,710.8,915.4,710z M907.9,692.6c-1.1,0.8-2.7,1.2-4.6,1.2h-9.7
						v-10h10.3c1.4,0,2.6,0.2,3.4,0.6c1.5,0.7,2.2,2.1,2.2,4.2C909.4,690.5,908.9,691.9,907.9,692.6z"/>
				</g>
			</g>
		</g>
		<g>
			<path class="st2" d="M3822,574c-0.2-0.6-0.3-1.5-0.3-2.7l-0.2-4.6c-0.1-2.2-0.5-3.7-1.3-4.7c-0.5-0.7-1.2-1.2-2.1-1.7
				c1.1-0.7,2-1.6,2.6-2.6c0.9-1.4,1.4-3.2,1.4-5.4c0-4.2-1.7-7.1-5.2-8.7c-1.8-0.8-4-1.2-6.6-1.2h-15.5h-0.6v0.8v34v0.8h0.8h4.5
				h0.8v-0.8v-13.8h9.5c1.7,0,3,0.2,3.7,0.5c1.3,0.6,1.9,1.9,2,3.8l0.3,5.7c0.1,1.4,0.1,2.3,0.3,2.8c0.1,0.5,0.2,1,0.4,1.3l0.2,0.4
				h0.5h5.5h0.8v-0.7v-0.8v-0.5l-0.5-0.2C3822.6,575.4,3822.3,574.8,3822,574z M3814.5,556.6c-1.1,0.8-2.7,1.2-4.6,1.2h-9.7v-10
				h10.3c1.4,0,2.6,0.2,3.4,0.6c1.5,0.7,2.2,2.1,2.2,4.2C3816,554.5,3815.5,555.9,3814.5,556.6z"/>
			<path class="st1" d="M3829.8,538.1c-5.9-6-13.8-9.3-22.3-9.3c-17.4,0-31.5,14.3-31.5,32c0,8.5,3.3,16.5,9.2,22.6
				c5.9,6,13.8,9.4,22.3,9.4c8.4,0,16.3-3.3,22.3-9.4c5.9-6,9.2-14,9.2-22.6C3839,552.1,3835.7,544.1,3829.8,538.1z M3807.5,587.3
				c-7,0-13.5-2.8-18.6-7.8c-4.9-5-7.7-11.7-7.7-18.9c0-7.1,2.7-13.8,7.7-18.9c4.9-5,11.5-7.8,18.6-7.8c7,0,13.5,2.8,18.6,7.8
				c4.9,5,7.7,11.7,7.7,18.9C3833.7,575.4,3822,587.3,3807.5,587.3z"/>
			<path class="st1" d="M3822,574c-0.2-0.6-0.3-1.5-0.3-2.7l-0.2-4.6c-0.1-2.2-0.5-3.7-1.3-4.7c-0.5-0.7-1.2-1.2-2.1-1.7
				c1.1-0.7,2-1.6,2.6-2.6c0.9-1.4,1.4-3.2,1.4-5.4c0-4.2-1.7-7.1-5.2-8.7c-1.8-0.8-4-1.2-6.6-1.2h-15.5h-0.6v0.8v34v0.8h0.8h4.5
				h0.8v-0.8v-13.8h9.5c1.7,0,3,0.2,3.7,0.5c1.3,0.6,1.9,1.9,2,3.8l0.3,5.7c0.1,1.4,0.1,2.3,0.3,2.8c0.1,0.5,0.2,1,0.4,1.3l0.2,0.4
				h0.5h5.5h0.8v-0.7v-0.8v-0.5l-0.5-0.2C3822.6,575.4,3822.3,574.8,3822,574z M3814.5,556.6c-1.1,0.8-2.7,1.2-4.6,1.2h-9.7v-10
				h10.3c1.4,0,2.6,0.2,3.4,0.6c1.5,0.7,2.2,2.1,2.2,4.2C3816,554.5,3815.5,555.9,3814.5,556.6z"/>
		</g>
	</g>
	<g>
		<g>
			<path class="st1" d="M71,630.6c-74.6-21.4-87-65.8-53.1-91.3c31.5-23.7,84.9-41.5,84.9-41.5l220.9-79.6V509l-159,57.8
				c-28.1,10.2-32.5,24.7-9.6,32.3c22.9,7.5,64.2,5.4,92.3-4.8l76.2-28.1v81.3c-4.8,0.9-10.1,1.8-15.2,2.6
				C232.5,662.7,151.1,657.4,71,630.6L71,630.6z"/>
			<path class="st1" d="M537.2,640.1l248-89.6c28.2-10.2,32.5-24.7,9.6-32.3c-22.9-7.6-64.2-5.4-92.3,4.8l-165.1,59.1V488l9.6-3.3
				c0,0,47.7-17.1,114.8-24.7s149.3,1,213.8,25.9c72.7,23.4,80.9,57.8,62.5,81.4c-18.4,23.7-63.8,40.6-63.8,40.6l-337,122.7V640.1z"
				/>
			<path class="st1" d="M566.2,59.1c130.6,45.4,174.8,102.1,174.8,229.7c0,124.2-75.7,171.4-171.8,124.3V181.4
				c0-27.2-4.8-52.2-30.1-59.3c-19.3-6.3-31.2,11.9-31.2,39v580l-154.1-49.6V0C419.4,12.3,514.8,41.5,566.2,59.1L566.2,59.1z"/>
		</g>
	</g>
</g>
</svg>
