<?xml version="1.0" encoding="utf-8"?>
<!-- Generator: Adobe Illustrator 26.0.3, SVG Export Plug-In . SVG Version: 6.00 Build 0)  -->
<svg version="1.1" id="Layer_1" xmlns="http://www.w3.org/2000/svg" xmlns:xlink="http://www.w3.org/1999/xlink" x="0px" y="0px"
	 viewBox="0 0 3839 829.9" style="enable-background:new 0 0 3839 829.9;" xml:space="preserve">
<style type="text/css">
	.st0{fill:#FFFFFF;}
	.st1{fill:#00439B;}
</style>
<g>
	<path class="st0" d="M401.9,0v774.4l175.3,55.6V180.6c0-30.6,13.7-50.9,35.5-43.9c28.6,7.9,34.2,36.1,34.2,66.4v259.3
		C756.1,515.2,842,462.4,842,323c0-142.4-50.4-205.8-198.6-256.9C584.9,46.6,476.6,13.8,401.9,0"/>
	<path class="st0" d="M610.6,716.7l281.6-100.2c31.8-11.8,36.7-27.9,10.9-36.3c-26.2-8.6-72.9-6.1-105.1,5.4l-187.4,66.1V546.2
		l10.7-3.5c0,0,54.3-19.2,130.6-27.5c76.2-8.4,169.5,1.1,243,28.8c82.7,26.3,92,64.6,71,91.3c-21.2,26.4-72.7,45.5-72.7,45.5
		L610.6,818.1V716.7z"/>
	<path class="st0" d="M80.7,706c-84.8-23.6-98.9-73.5-60.3-102.3c35.7-26.3,96.5-46.1,96.5-46.1L368.1,468v101.9l-180.6,64.7
		c-31.9,11.5-36.8,27.6-11,36c26.2,8.8,72.8,6.4,104.8-5.4l86.8-31.3v90.9c-5.6,1-11.8,1.9-17.5,2.9C264,742.1,171.7,736.2,80.7,706
		"/>
	<path class="st0" d="M1006.5,746.9c24.6,0,41.3,18.4,41.3,41.5c0,23.3-16.7,41.5-41.3,41.5c-24.7,0-41.7-18.2-41.7-41.5
		C964.8,765.3,981.8,746.9,1006.5,746.9 M1006.5,823.8c20.9,0,34.8-15.8,34.8-35.4c0-19.4-13.9-35.2-34.8-35.2
		c-21.3,0-35,15.8-35,35.2C971.4,808,985.2,823.8,1006.5,823.8 M990,764.3h19c8.8,0,15.3,2.6,15.3,12.5c0,5.7-2.7,9.9-8.8,11.7v0.2
		c3.1,0.8,5.3,3.2,6.8,8.7c1.6,5.3,3.3,10.5,4.7,15h-8.8c-1.2-3.5-2.7-9.7-3.7-13c-1.4-5.5-2.9-7.3-10.2-7.3h-5.7v20.3H990V764.3z
		 M998.7,785.9h7.6c6.1,0,9.8-2.4,9.8-7.9c0-6.5-4.5-7.5-9.2-7.5h-8.2V785.9z"/>
	<polygon class="st0" points="3754.1,614.3 3737.4,614.3 3737.4,608.6 3777.1,608.6 3777.1,614.3 3760.8,614.3 3760.8,663.9 
		3754.1,663.9 	"/>
	<polygon class="st0" points="3811.7,657.8 3811.9,657.8 3827.5,608.6 3839,608.6 3839,663.9 3832.5,663.9 3832.5,613.7 
		3832.3,613.7 3815.9,663.9 3807.5,663.9 3791.6,613.7 3791.4,613.7 3791.4,663.9 3785.1,663.9 3785.1,608.6 3796.5,608.6 	"/>
	<path class="st0" d="M2363.2,663.9c73.9,0,133.9-59.9,133.9-133.8V299.8c0-44.6,36.1-80.7,80.7-80.7h259.7c2,0,3.6-1.6,3.6-3.5
		v-46.1c0-2-1.6-3.5-3.5-3.5h-312.9c-73.9,0-133.9,59.9-133.9,133.8v230.3c0,44.5-36.1,80.7-80.7,80.7h-256.1c-2,0-3.6,1.6-3.6,3.5
		v46.1c0,1.9,1.6,3.5,3.6,3.5H2363.2z"/>
	<path class="st0" d="M2948.4,353l0-183.5c0-2,1.6-3.5,3.5-3.5h707.1c2,0,3.5,1.6,3.5,3.5v46.1c0,2-1.6,3.5-3.5,3.5h-600.8
		c-2,0-3.5,1.6-3.5,3.5v119.6c0,21.2,17.1,38.3,38.3,38.3h447.3c78.2,0,141.7,63.4,141.7,141.7s-63.4,141.7-141.7,141.7H2952
		c-1.9,0-3.5-1.6-3.5-3.5v-46.1c0-1.9,1.6-3.5,3.5-3.5h535.2c48.8,0,88.4-39.5,88.5-88.2c0.2-48.9-40.3-88.9-89.2-88.9h-457.4
		C2984.6,433.7,2948.4,397.6,2948.4,353"/>
	<path class="st0" d="M1898.1,380.5c44.6,0,80.7-36.1,80.7-80.7c0-44.6-36.1-80.7-80.7-80.7h-542.5c-2,0-3.5-1.6-3.5-3.5v-46.1
		c0-1.9,1.6-3.5,3.5-3.5h595.7c73.9,0,133.9,59.9,133.9,133.9c0,73.9-59.9,133.9-133.9,133.9h-412.2c-44.6,0-80.7,36.1-80.7,80.7
		v146c0,2-1.6,3.5-3.5,3.5h-99.3c-2,0-3.5-1.6-3.5-3.5V514.3c0-73.9,59.9-133.8,133.9-133.8H1898.1z"/>
</g>
</svg>
