<?xml version="1.0" encoding="utf-8"?>
<!-- Generator: Adobe Illustrator 26.0.3, SVG Export Plug-In . SVG Version: 6.00 Build 0)  -->
<svg version="1.1" id="Layer_1" xmlns="http://www.w3.org/2000/svg" xmlns:xlink="http://www.w3.org/1999/xlink" x="0px" y="0px"
	 viewBox="0 0 3839 662" style="enable-background:new 0 0 3839 662;" xml:space="preserve">
<style type="text/css">
	.st0{fill:#FFFFFF;}
	.st1{fill:url(#SVGID_1_);}
	.st2{fill:url(#SVGID_00000168087836203927408100000011343783541763987844_);}
	.st3{fill:url(#SVGID_00000083771269741184557900000002552951753853828278_);}
	.st4{fill:url(#SVGID_00000080926624294033244040000005593966603243142051_);}
	.st5{fill:url(#SVGID_00000148622582981025477800000005001749646833776775_);}
	.st6{fill:url(#SVGID_00000003824434184799758890000015137147149233888646_);}
	.st7{fill:url(#SVGID_00000071561620898779583880000017406847891494292399_);}
	.st8{fill:url(#SVGID_00000127030447534041079580000004348148938788696712_);}
	.st9{fill:url(#SVGID_00000098931791114933815080000013513831687042983591_);}
	.st10{fill:url(#SVGID_00000160881364917245804520000004158802950714808235_);}
	.st11{fill:url(#SVGID_00000070095970047077264670000008635920586330422419_);}
	.st12{fill:url(#SVGID_00000182494030721207553920000015080752575877245373_);}
	.st13{fill:url(#SVGID_00000000220149503719199260000002166297824323996809_);}
	.st14{fill:url(#SVGID_00000057833105568982529960000009852803440812250525_);}
	.st15{fill:url(#SVGID_00000068656337292056800440000017172035705055410567_);}
	.st16{fill:url(#SVGID_00000132056020058204947130000001516368748956577208_);}
	.st17{fill:url(#SVGID_00000175305546086697309290000003619995489838164659_);}
	.st18{fill:url(#SVGID_00000021080893070621003720000003330904209793636250_);}
	.st19{fill:url(#SVGID_00000170262119838769923390000016990327822549846656_);}
	.st20{fill:url(#SVGID_00000016794106898036940670000006372410079823483557_);}
	.st21{fill:url(#SVGID_00000183234700351284249080000006979013665767519875_);}
	.st22{fill-rule:evenodd;clip-rule:evenodd;}
	.st23{fill:#00AD9C;}
	.st24{fill:#FBB817;}
	.st25{fill:#0174BA;}
	.st26{fill:#EB2027;}
	.st27{fill-rule:evenodd;clip-rule:evenodd;fill:#FFFFFF;}
</style>
<g>
	<polyline class="st0" points="0,0 1196,0 1196,354.6 47.3,354.6 47.3,662 0,662 0,307.4 1148.7,307.4 1148.7,47.3 0,47.3 0,0 	"/>
	<polyline class="st0" points="3839,612.3 3839,662 2643,662 2643,307.4 3791.7,307.4 3791.7,47.3 2643,47.3 2643,0 3839,0 
		3839,354.6 2690.3,354.6 2690.3,614.7 3839,614.7 3839,662 	"/>
	<polyline class="st0" points="1806,0 1806,614.7 1196,614.7 1196,662 1855.7,662 1855.7,47.3 2465.8,47.3 2465.8,0 1806,0 	"/>
</g>
</svg>
