<?xml version="1.0" encoding="utf-8"?>
<!-- Generator: Adobe Illustrator 26.5.0, SVG Export Plug-In . SVG Version: 6.00 Build 0)  -->
<svg version="1.1" xmlns="http://www.w3.org/2000/svg" xmlns:xlink="http://www.w3.org/1999/xlink" x="0px" y="0px"
	 viewBox="0 0 3073.9 2160.4" style="enable-background:new 0 0 3073.9 2160.4;" xml:space="preserve">
<style type="text/css">
	.st0{fill-rule:evenodd;clip-rule:evenodd;}
	.st1{fill:#FFFFFF;}
	.st2{fill-rule:evenodd;clip-rule:evenodd;fill:#FFFFFF;}
</style>
<g id="Layer_1">
</g>
<g id="Layer_2">
	<g>
		<g>
			<g>
				<path class="st1" d="M1633.7,21.1c0.9,0,1.6,0,2.1,0c0,0,0,0,0,0c11.3,0.5,27.3,2.2,46.9,5.2c6,1,12.4,2,19,3.3
					c78.3,14.6,198.5,50.1,306.3,125.1c2.3,1.6,4.5,3.2,6.7,4.7c0.8,0.6,1.6,1.1,2.4,1.7c1.4,1,2.9,2,4.3,3c0.9,0.6,1.8,1.3,2.7,1.9
					c1.3,0.9,2.6,1.8,3.9,2.8c1,0.7,2,1.4,3,2.2c1.2,0.8,2.3,1.7,3.5,2.5c1,0.7,2,1.5,3,2.2c1.1,0.8,2.2,1.6,3.3,2.4
					c1.1,0.8,2.1,1.6,3.2,2.4c1,0.7,2,1.5,3,2.2c1.1,0.9,2.3,1.7,3.4,2.6c0.9,0.7,1.8,1.4,2.8,2.1c1.1,0.9,2.3,1.7,3.4,2.5
					c0.9,0.7,1.8,1.4,2.7,2.1c1.1,0.9,2.2,1.7,3.4,2.6c0.9,0.7,1.8,1.4,2.6,2c1.1,0.9,2.2,1.7,3.4,2.6c0.9,0.7,1.7,1.3,2.6,2
					c1.1,0.9,2.3,1.8,3.4,2.7c0.8,0.6,1.6,1.3,2.4,1.9c1.2,0.9,2.3,1.8,3.5,2.7c0.8,0.6,1.5,1.2,2.3,1.8c1.1,0.9,2.3,1.8,3.4,2.8
					c0.8,0.6,1.5,1.2,2.3,1.8c1.1,0.9,2.3,1.9,3.4,2.8c0.7,0.6,1.5,1.2,2.2,1.8c1.2,1,2.3,1.9,3.5,2.9c0.7,0.6,1.4,1.1,2.1,1.7
					c1.2,1,2.3,1.9,3.5,2.9c0.7,0.6,1.3,1.1,2,1.7c1.2,1,2.3,2,3.4,2.9c0.6,0.6,1.3,1.1,1.9,1.7c1.2,1,2.3,2,3.4,3
					c0.6,0.5,1.2,1.1,1.9,1.6c1.1,1,2.3,2,3.4,3c0.6,0.5,1.2,1.1,1.8,1.6c1.2,1,2.3,2,3.4,3.1c0.6,0.5,1.1,1,1.7,1.5
					c1.2,1,2.3,2.1,3.4,3.1c0.6,0.5,1.1,1,1.7,1.5c1.1,1,2.3,2.1,3.4,3.1c0.5,0.5,1.1,1,1.6,1.5c1.1,1.1,2.3,2.1,3.4,3.2
					c0.5,0.5,1.1,1,1.6,1.5c1.1,1.1,2.3,2.2,3.4,3.2c0.5,0.5,1,0.9,1.5,1.4c1.1,1.1,2.3,2.2,3.4,3.3c0.5,0.5,1,0.9,1.5,1.4
					c1.1,1.1,2.2,2.2,3.4,3.3c0.5,0.5,1,0.9,1.4,1.4c1.1,1.1,2.2,2.2,3.4,3.3c0.5,0.5,0.9,0.9,1.4,1.4c1.1,1.1,2.2,2.3,3.3,3.4
					c0.4,0.4,0.9,0.9,1.3,1.3c1.1,1.1,2.2,2.3,3.3,3.4c0.4,0.4,0.9,0.9,1.3,1.3c1.1,1.2,2.2,2.3,3.3,3.5c0.4,0.4,0.8,0.9,1.2,1.3
					c1.1,1.2,2.2,2.4,3.3,3.5c0.4,0.4,0.8,0.8,1.2,1.3c1.1,1.2,2.2,2.4,3.3,3.6c0.4,0.4,0.8,0.8,1.2,1.3c1.1,1.2,2.2,2.4,3.3,3.6
					c0.4,0.4,0.8,0.8,1.1,1.3c1.1,1.2,2.2,2.4,3.3,3.7c0.4,0.4,0.7,0.8,1.1,1.2c1.1,1.2,2.2,2.5,3.3,3.7c0.4,0.4,0.7,0.8,1.1,1.2
					c1.1,1.3,2.2,2.5,3.3,3.8c0.3,0.4,0.7,0.8,1,1.2c1.1,1.3,2.2,2.6,3.3,3.9c0.3,0.4,0.6,0.8,1,1.2c1.1,1.3,2.2,2.6,3.3,3.9
					c0.3,0.4,0.6,0.8,0.9,1.1c1.1,1.3,2.2,2.7,3.3,4c0.3,0.4,0.6,0.7,0.9,1.1c1.1,1.3,2.2,2.7,3.3,4.1c0.3,0.4,0.6,0.7,0.9,1.1
					c1.1,1.4,2.2,2.7,3.3,4.1c0.3,0.4,0.6,0.7,0.8,1.1c1.1,1.4,2.2,2.8,3.3,4.2c0.3,0.3,0.5,0.7,0.8,1c1.1,1.4,2.2,2.8,3.3,4.3
					c0.3,0.3,0.5,0.7,0.8,1c1.1,1.4,2.2,2.9,3.3,4.4c0.2,0.3,0.5,0.6,0.7,1c1.1,1.5,2.2,2.9,3.3,4.4c0.2,0.3,0.5,0.6,0.7,1
					c1.1,1.5,2.2,3,3.3,4.5c0.2,0.3,0.4,0.6,0.7,0.9c1.1,1.5,2.2,3.1,3.3,4.6c0.2,0.3,0.4,0.6,0.6,0.9c1.1,1.6,2.2,3.1,3.3,4.7
					c0.2,0.3,0.4,0.6,0.6,0.8c1.1,1.6,2.2,3.2,3.3,4.8c0.2,0.3,0.4,0.5,0.6,0.8c1.1,1.6,2.2,3.3,3.4,4.9c0.2,0.2,0.3,0.5,0.5,0.7
					c1.1,1.7,2.3,3.3,3.4,5c0.2,0.2,0.3,0.5,0.5,0.7c1.1,1.7,2.3,3.4,3.4,5.1c0.1,0.2,0.3,0.4,0.4,0.7c1.1,1.7,2.3,3.5,3.4,5.2
					c0.1,0.2,0.3,0.4,0.4,0.6c1.2,1.8,2.3,3.6,3.5,5.4c0.1,0.2,0.2,0.3,0.3,0.5c1.2,1.8,2.3,3.7,3.5,5.5c0.1,0.2,0.2,0.3,0.3,0.5
					c1.2,1.9,2.4,3.8,3.6,5.6c0.1,0.1,0.2,0.3,0.2,0.4c1.2,1.9,2.4,3.9,3.6,5.8c0.1,0.1,0.1,0.2,0.2,0.3c1.2,2,2.4,4,3.6,5.9
					c0,0.1,0.1,0.2,0.1,0.2c1.2,2,2.5,4.1,3.7,6.1c0,0,0.1,0.1,0.1,0.1c1.3,2.1,2.5,4.2,3.8,6.3c0,0,0,0,0,0
					c6,10.1,12,20.6,18.1,31.3c0.9,1.5,1.5,3.2,1.9,4.9c0.5,2.1,0.7,4.2,0.5,6.3l-0.3,3.8c-0.3,3-1.7,5.8-4,7.8l-13.5,11.9
					c-5.5,3.9-10.6,5.3-16,5.3c-3.6,0-7.3-0.6-11.5-1.4c-9.4-1.7-29.6-6.7-57.6-6.7c-3,0-6.1,0.1-9.2,0.2
					c-218.2,9.8-464.6,71.5-790.2,187.4c57.7-287,121.2-572.7,185.4-669.7c4.4-5.8,9.1-9.7,13.7-12.3c0,0,0.1-0.1,0.1-0.1
					c0.2-0.1,0.4-0.2,0.5-0.2c0.4-0.2,0.8-0.5,1.2-0.7c0.3-0.1,0.6-0.3,0.9-0.4c0.2-0.1,0.4-0.2,0.6-0.3c0.3-0.1,0.6-0.3,0.9-0.4
					c0.2-0.1,0.4-0.2,0.6-0.2c0.3-0.1,0.6-0.3,1-0.4c0.4-0.2,0.9-0.3,1.3-0.5c0.1,0,0.3-0.1,0.4-0.1c0.5-0.1,0.9-0.3,1.4-0.4
					c0,0,0,0,0.1,0C1626.7,21.3,1631,21.1,1633.7,21.1 M1689.7,387.2L1689.7,387.2c57.9-17.2,145.4-31.1,226.9-38.7
					c39.5-3.7,77.7-5.9,110.3-6.2c3.1,0,6.1-0.1,9.1-0.1c26.9,0,49.5,1.4,65.4,4.3c-4.1-4.6-8.4-9.3-12.7-13.9c-3-3.1-6-6.3-9.1-9.4
					c-91.6-92.3-235.5-178-352.7-213.6v0c0,0,0,0,0,0c0,0,0,0.3-0.1,0.7c-0.4,4.9-2.8,34.5-7.2,75.7c-0.6,5.5-1.3,11.2-1.9,17.1
					c-0.9,8.1-1.9,16.4-2.9,25c0,0.1,0,0.2,0,0.4c0,0.1-0.1,0.4-0.1,0.6c0,0.1-0.1,0.4-0.1,0.6c0,0,0,0.1,0,0.1c0,0,0,0.1,0,0.2
					c0,0.1,0,0.1,0,0.2c0,0,0,0.1,0,0.1c0,0.1,0,0.1,0,0.2c0,0.1,0,0.2,0,0.2c0,0.1,0,0.2,0,0.2v0.1c-0.1,0.1-0.1,0.4-0.1,0.6
					c-0.1,0.1-0.1,0.4-0.1,0.6c-0.1,0.2-0.1,0.4-0.1,0.6v0.1c-0.1,0.1-0.1,0.4-0.1,0.6c-0.1,0.2-0.1,0.5-0.1,0.7
					c-0.1,0.1-0.1,0.4-0.1,0.6c-0.1,0.2-0.1,0.4-0.1,0.6c-0.1,0.1-0.1,0.4-0.1,0.5c0,0,0,0,0,0.1c-0.1,0.2-0.1,0.4-0.1,0.6
					c-0.1,0.1-0.1,0.4-0.1,0.6c0,0.1,0,0.1,0,0.1c-0.1,0.2-0.1,0.4-0.1,0.6c0,0.2,0,0.4-0.1,0.6c0,0.1,0,0.4-0.1,0.6
					c0,0.1,0,0.4-0.1,0.5c0,0.1,0,0.1,0,0.1c0,0.1,0,0.4-0.1,0.6c0,0.2,0,0.3-0.1,0.5c-0.1,1-0.3,2.1-0.4,3.1c0,0,0,0,0,0
					c0,0,0,0,0,0c0,0.1,0,0.3-0.1,0.4c0,0,0,0.1,0,0.1c0,0.2-0.1,0.4-0.1,0.6c0,0.2-0.1,0.4-0.1,0.6c0,0.2-0.1,0.4-0.1,0.8
					c-0.1,0.1-0.1,0.4-0.1,0.5v0.1c-0.1,0.1-0.1,0.4-0.1,0.6c-0.1,0.2-0.1,0.4-0.1,0.6c-0.1,0.2-0.1,0.4-0.1,0.6
					c-0.1,0.2-0.1,0.4-0.1,0.6c-0.1,0.2-0.1,0.4-0.1,0.6c0,0.2,0,0.4-0.1,0.6v0.1c0,0.2,0,0.4-0.1,0.6c0,0.1,0,0.3-0.1,0.5
					c0,0.2,0,0.4-0.1,0.7c0,0.1-0.1,0.4-0.1,0.6c0,0.2-0.1,0.4-0.1,0.6c0,0.2-0.1,0.4-0.1,0.6c0,0.1-0.1,0.4-0.1,0.5
					c0,0.2-0.1,0.4-0.1,0.6c0,0,0,0,0,0.1c-0.1,0.1-0.1,0.4-0.1,0.5c-0.1,0.3-0.1,0.5-0.1,0.7c-0.1,0.2-0.1,0.4-0.1,0.6
					c0,0.1,0,0.3,0,0.5c-0.1,0.1-0.1,0.4-0.1,0.6l-0.1,0.1c0,0.2,0,0.4-0.1,0.6c0,0.2,0,0.4-0.1,0.6c0,0.2,0,0.4-0.1,0.6
					c0,0.2-0.1,0.4-0.1,0.6c0,0.2-0.1,0.4-0.1,0.6v0.1c0,0.3-0.1,0.5-0.1,0.6c-0.1,0.2-0.1,0.4-0.1,0.6c-0.1,0.1-0.1,0.4-0.1,0.5
					c0,0.1,0,0.1,0,0.1c-0.1,0.1-0.1,0.4-0.1,0.6c0,0,0,0-0.1,0c0,0,0,0.1,0,0.1c0,0.2,0,0.3,0,0.5c0,0.2,0,0.4-0.1,0.6
					c0,0.2,0,0.4-0.1,0.6c0,0.2-0.1,0.4-0.1,0.6c0,0.2-0.1,0.4-0.1,0.6c0,0.1-0.1,0.4-0.1,0.5c0,0.3-0.1,0.4-0.1,0.6c0,0,0,0,0,0.1
					C1704.4,307.5,1697.6,349.6,1689.7,387.2 M1633.7,0c-6.3,0-12.1,0.8-17.7,2.4c0,0-0.1,0-0.1,0c-0.6,0.2-1.3,0.4-2,0.6
					c-0.2,0.1-0.4,0.1-0.6,0.2c-0.7,0.2-1.4,0.5-2.1,0.8c-0.4,0.2-0.9,0.4-1.4,0.5l-0.1,0l-0.1,0c-0.3,0.1-0.5,0.2-0.8,0.3
					c-0.5,0.2-1,0.4-1.5,0.7c-0.3,0.1-0.7,0.3-1,0.5c0,0-0.1,0-0.1,0c-0.4,0.2-0.8,0.4-1.2,0.6c-0.2,0.1-0.5,0.2-0.7,0.4
					c-1.2,0.5-2.3,1.1-3.3,1.9c-0.1,0.1-0.3,0.2-0.4,0.3c-6.9,4.3-13,9.9-18.3,16.9c-0.3,0.4-0.5,0.7-0.8,1.1
					c-30.7,46.4-62.7,134.6-98,269.9c-33.7,129.3-66.1,285.6-90.5,407.3c-1.5,7.5,1.1,15.1,6.9,20.1c3.9,3.4,8.8,5.1,13.8,5.1
					c2.4,0,4.8-0.4,7.1-1.2c167.2-59.5,308.9-103,433.3-132.9c129.4-31.1,244.1-48.5,350.8-53.3c2.8-0.1,5.6-0.2,8.4-0.2
					c21.9,0,38.7,3.4,48.7,5.4c1.9,0.4,3.6,0.7,5,1c4.7,0.9,9.9,1.7,15.4,1.7c10.3,0,19.6-3,28.3-9.2c0.6-0.4,1.2-0.9,1.7-1.4
					l13.5-11.9c6.4-5.6,10.3-13.4,11-21.8l0.3-3.8c0.4-4.4,0.1-8.8-1-13.1c-0.9-3.6-2.2-7-4-10.2c-6.1-10.8-12.2-21.5-18.3-31.7
					c0,0,0,0,0,0l0,0c0,0,0,0,0,0c-1.3-2.1-2.5-4.2-3.8-6.3c0,0-0.1-0.1-0.1-0.1c-1.3-2.1-2.5-4.2-3.8-6.2c0,0,0,0,0-0.1l-0.1-0.1
					c-1.3-2.1-2.5-4.1-3.7-6.1l-0.2-0.3c-1.2-2-2.5-4-3.7-5.9l-0.1-0.2l-0.1-0.2c-1.2-1.9-2.4-3.8-3.6-5.7l-0.1-0.2l-0.2-0.3
					c-1.2-1.9-2.4-3.8-3.6-5.6l-0.2-0.4l-0.1-0.1c-1.2-1.9-2.4-3.7-3.6-5.5l-0.4-0.6c-1.2-1.8-2.3-3.5-3.5-5.3l-0.1-0.1l-0.4-0.6
					c-1.1-1.7-2.3-3.5-3.5-5.2l-0.2-0.2l-0.3-0.5c-1.2-1.7-2.3-3.4-3.5-5.1l-0.3-0.4l-0.2-0.3c-1.1-1.7-2.3-3.4-3.4-5l-0.3-0.4
					l-0.3-0.4c-1.1-1.7-2.3-3.3-3.4-4.9l-0.6-0.9c-1.1-1.6-2.3-3.2-3.4-4.8l-0.6-0.8l0-0.1c-1.1-1.6-2.3-3.1-3.4-4.7l-0.7-1
					c-1.1-1.5-2.2-3.1-3.4-4.6l-0.1-0.2l-0.6-0.8c-1.1-1.5-2.2-3-3.4-4.5l-0.7-1c-1.1-1.5-2.3-3-3.4-4.5l-0.6-0.8l-0.2-0.2
					c-1.1-1.5-2.2-2.9-3.4-4.4l-0.8-1.1c-1.1-1.4-2.2-2.9-3.4-4.3l-0.6-0.7l-0.3-0.4c-1.1-1.4-2.2-2.8-3.4-4.2l-0.9-1.1
					c-1.1-1.4-2.2-2.8-3.4-4.1l-0.9-1.1c-1.1-1.4-2.2-2.7-3.4-4.1l-0.9-1.1c-1.2-1.4-2.3-2.7-3.4-4.1l-1-1.2
					c-1.1-1.3-2.2-2.6-3.4-3.9l-0.9-1l-0.2-0.2c-1.1-1.3-2.2-2.6-3.4-3.9l-1-1.2l-0.1-0.1c-1.1-1.3-2.2-2.5-3.4-3.8l-0.8-0.8
					l-0.4-0.4c-1.1-1.3-2.2-2.5-3.4-3.8l-1.1-1.2l-0.1-0.1c-1.1-1.2-2.2-2.5-3.4-3.7l-0.8-0.9l-0.4-0.4c-1.1-1.2-2.3-2.5-3.4-3.7
					l-0.7-0.8l-0.5-0.5c-1.2-1.2-2.3-2.4-3.4-3.6l-0.9-0.9l-0.4-0.4c-1.1-1.2-2.3-2.4-3.4-3.6l-0.9-1l-0.4-0.4
					c-1.1-1.2-2.3-2.3-3.4-3.5l-1.1-1.1l-0.3-0.3c-1.1-1.1-2.3-2.3-3.4-3.5l-1-1l-0.4-0.4c-1.1-1.1-2.3-2.3-3.4-3.4l-1-1l-0.5-0.5
					c-1.2-1.1-2.3-2.3-3.5-3.4l-1.1-1l-0.4-0.4c-1.2-1.1-2.3-2.2-3.5-3.3l-0.9-0.9l-0.6-0.6c-1.2-1.1-2.3-2.2-3.5-3.3l-1.1-1
					l-0.5-0.5c-1.2-1.1-2.3-2.2-3.5-3.2l-1-0.9l-0.6-0.6c-1.2-1.1-2.3-2.1-3.5-3.2l-1.1-1l-0.6-0.5c-1.2-1.1-2.4-2.1-3.5-3.2
					l-1.2-1.1l-0.5-0.5l-0.2-0.2c-1.1-1-2.2-2-3.3-3l-1.2-1.1l-0.6-0.5l-0.1-0.1c-1.1-1-2.3-2-3.4-3l-1.2-1l-0.7-0.6l-0.3-0.2
					c-1.1-0.9-2.2-1.9-3.2-2.8l-1.3-1.1l-0.7-0.6l-0.4-0.3c-1-0.9-2.1-1.8-3.2-2.7c-0.4-0.3-0.8-0.7-1.3-1.1l-0.7-0.6l-0.6-0.5
					c-1-0.8-2-1.7-3-2.5c-0.4-0.4-0.9-0.8-1.4-1.1l-0.7-0.6l-0.3-0.3c-1.1-0.9-2.1-1.8-3.2-2.7c-0.5-0.4-1-0.8-1.5-1.2l-0.7-0.6
					l-0.6-0.5c-1-0.8-1.9-1.6-2.9-2.4c-0.5-0.4-1-0.8-1.6-1.3l-0.7-0.6l-0.6-0.5c-1-0.8-1.9-1.5-2.9-2.3l-1.4-1.1l-0.9-0.7l-0.7-0.6
					c-0.9-0.7-1.9-1.5-2.8-2.2l-1.5-1.2l-0.9-0.7l-0.7-0.5c-0.9-0.7-1.9-1.5-2.8-2.2c-0.6-0.5-1.2-0.9-1.8-1.4l-0.8-0.6l-0.9-0.7
					c-0.8-0.6-1.7-1.3-2.5-1.9c-0.6-0.5-1.3-1-2-1.5l-0.7-0.6l-0.8-0.6c-0.9-0.7-1.8-1.3-2.6-2c-0.6-0.5-1.3-1-1.9-1.5l-0.8-0.6
					l-0.9-0.7c-0.8-0.6-1.7-1.3-2.6-1.9l-1.8-1.3l-1-0.8l-1-0.8c-0.8-0.6-1.6-1.2-2.4-1.8c-0.7-0.5-1.4-1-2.1-1.5l-1-0.7l-1.1-0.8
					c-0.7-0.5-1.5-1.1-2.2-1.6c-0.7-0.5-1.5-1.1-2.2-1.6l-1.1-0.8l-1-0.7c-0.7-0.5-1.4-1-2.1-1.5c-0.8-0.6-1.7-1.2-2.6-1.9l-0.9-0.7
					l-1.1-0.8c-0.6-0.5-1.3-0.9-2-1.4c-1.1-0.8-2.2-1.5-3.2-2.3l-0.7-0.5l-0.9-0.7c-0.6-0.4-1.2-0.9-1.8-1.3
					c-1.3-0.9-2.5-1.8-3.8-2.7l-0.5-0.4l-0.9-0.6l-1.5-1.1c-2.3-1.6-4.5-3.2-6.8-4.8C1900.7,54.4,1771.8,21.3,1705.6,8.9
					c-6.6-1.2-13.2-2.4-19.6-3.4c-23.5-3.7-39.7-5-49.2-5.5c-0.3,0-0.7,0-1,0l-0.6,0C1634.8,0,1634.3,0,1633.7,0L1633.7,0z
					 M1735.7,230.6c1-8.3,2-16.7,2.9-25c0.7-5.9,1.3-11.6,1.9-17.1c0,0,0-0.1,0-0.1c2.1-20,3.8-37.2,5-50.3
					c49.5,17.5,104,43.7,156.3,75.2c54.9,33.1,104.7,70.2,145.3,108c-3.6-0.1-7.3-0.1-11.2-0.1c-3,0-6.2,0-9.4,0.1
					c-32.6,0.3-71.4,2.5-112.1,6.3c-73.1,6.8-144.1,17.9-197.8,30.6c4.9-26.5,9.5-55.9,13.8-87.6c0-0.3,0.1-0.6,0.1-0.9
					c0-0.3,0.1-0.5,0.1-0.8c0-0.1,0-0.2,0-0.3c0.1-0.3,0.1-0.5,0.1-0.8c0.1-0.7,0.2-1.3,0.3-2c0-0.2,0-0.3,0.1-0.5
					c0-0.3,0.1-0.6,0.1-0.9c0.1-0.4,0.1-0.8,0.1-1.3c0.1-0.4,0.1-0.8,0.2-1.1c0-0.2,0-0.3,0.1-0.5c0.1-0.5,0.1-0.9,0.2-1.4
					c0-0.1,0-0.2,0-0.4c0.1-0.5,0.1-1,0.2-1.5c0.1-0.4,0.1-0.8,0.1-1.2c0-0.3,0.1-0.6,0.1-1c0-0.1,0-0.2,0-0.3c0-0.2,0-0.4,0.1-0.6
					c0.1-0.5,0.1-0.9,0.2-1.3c0-0.3,0.1-0.6,0.1-0.8c0-0.1,0-0.2,0-0.3c0.1-0.5,0.2-1.1,0.2-1.6c0-0.1,0-0.2,0-0.3
					c0-0.3,0.1-0.5,0.1-0.8c0-0.1,0-0.2,0-0.3c0-0.3,0.1-0.5,0.1-0.8c0-0.3,0.1-0.5,0.1-0.8c0-0.1,0-0.3,0.1-0.5c0-0.1,0-0.2,0-0.3
					c0-0.3,0.1-0.6,0.1-0.9c0-0.1,0-0.2,0-0.2l0.2-1.9c0.1-0.4,0.1-0.8,0.2-1.3c0.1-0.4,0.1-0.9,0.2-1.3c0-0.2,0.1-0.5,0.1-0.7
					c0,0,0-0.1,0-0.1c0.1-0.6,0.2-1.2,0.2-1.8c0-0.2,0.1-0.4,0.1-0.7c0-0.2,0-0.4,0.1-0.5c0-0.1,0-0.2,0-0.3c0-0.3,0.1-0.5,0.1-0.8
					c0-0.3,0.1-0.5,0.1-0.8c0-0.2,0-0.4,0.1-0.5c0-0.2,0.1-0.4,0.1-0.7c0-0.1,0-0.2,0-0.3c0-0.3,0.1-0.5,0.1-0.8
					c0-0.3,0.1-0.5,0.1-0.8c0.1-0.4,0.1-0.8,0.1-1.2c0-0.1,0-0.2,0-0.3C1735.7,231.2,1735.7,230.9,1735.7,230.6L1735.7,230.6z"/>
			</g>
			<g>
				<path class="st1" d="M2105.9,567.6c1,0,2,0,3,0c1.2,0,2.3,0,3.5,0.1c1.1,0,2.2,0.1,3.3,0.1c1.2,0,2.3,0.1,3.5,0.2
					c1.1,0.1,2.2,0.1,3.3,0.2c1.1,0.1,2.3,0.2,3.4,0.3c1.1,0.1,2.2,0.2,3.3,0.3c1.1,0.1,2.3,0.2,3.4,0.4c1.1,0.1,2.2,0.3,3.2,0.4
					c1.1,0.2,2.2,0.3,3.4,0.5c1.1,0.2,2.1,0.3,3.2,0.5c1.1,0.2,2.2,0.4,3.3,0.6c1.1,0.2,2.1,0.4,3.1,0.6c1.1,0.2,2.2,0.5,3.3,0.7
					c1,0.2,2.1,0.5,3.1,0.7c1.1,0.3,2.2,0.5,3.2,0.8c1,0.3,2,0.5,3.1,0.8c1.1,0.3,2.1,0.6,3.2,0.9c1,0.3,2,0.6,3,0.9
					c1.1,0.3,2.1,0.7,3.1,1c1,0.3,2,0.7,3,1c0.5,0.2,1,0.3,1.4,0.5c2.2,0.8,4.4,1.5,6.7,2.1c0,0,0.1,0,0.1,0
					c1.5,0.4,2.9,0.8,4.4,1.3c0.4,0.1,0.8,0.3,1.2,0.4c1.2,0.4,2.3,0.7,3.5,1.1c0.4,0.1,0.8,0.3,1.2,0.4c3.1,1.1,6.3,2.2,9.5,3.5
					c0.3,0.1,0.6,0.3,1,0.4c1.4,0.6,2.8,1.1,4.2,1.7c0.3,0.1,0.5,0.2,0.8,0.3c3.4,1.5,6.8,3,10.3,4.7c0.2,0.1,0.4,0.2,0.6,0.3
					c1.7,0.8,3.4,1.7,5.1,2.6c0,0,0.1,0,0.1,0c3.6,1.9,7.3,3.9,11,6.1c0.1,0,0.1,0.1,0.2,0.1c11.1,6.6,22.4,14.6,33.4,24
					c0,0,0,0,0,0c3.9,3.1,7.1,6,9.5,8.5c52.9,49.8,99.5,135.6,103.9,276.7c2.6,255.6-125.8,418.7-228.2,508.6
					c-18.5,17-40,33.6-63.4,48.7c-0.3,0.2-0.6,0.4-0.9,0.6c-1,0.6-2,1.3-2.9,1.9c-1.3,0.9-2.7,1.7-4.1,2.5c-0.3,0.2-0.7,0.4-1,0.6
					c-1.9,1.1-3.7,2.3-5.6,3.4c-0.2,0.1-0.3,0.2-0.5,0.3c-57.8,34.5-125.6,58.9-191.1,58.9c-0.5,0-1,0-1.5,0c0,0,0,0,0,0
					c0,0,0,0,0,0c0,0,0,0,0,0c-1,0-2.1,0-3.1,0c-1,0-2,0-3-0.1c-1,0-2.1-0.1-3.1-0.1c-1.2-0.1-2.5-0.1-3.7-0.2
					c-1.4-0.1-2.9-0.2-4.3-0.3c-1.1-0.1-2.2-0.2-3.3-0.3c-1-0.1-2-0.2-3-0.3c-1.2-0.1-2.4-0.3-3.5-0.4c-1.3-0.1-2.5-0.3-3.8-0.5
					c-1.3-0.2-2.7-0.4-4-0.6c-0.9-0.1-1.8-0.3-2.8-0.4c-1.2-0.2-2.4-0.4-3.6-0.6c-0.8-0.1-1.6-0.3-2.4-0.4c-1.8-0.3-3.6-0.7-5.4-1.1
					c-0.8-0.2-1.6-0.4-2.5-0.6c-1.3-0.3-2.5-0.6-3.7-0.9c-0.8-0.2-1.5-0.4-2.3-0.6c-1.8-0.5-3.6-1-5.5-1.5c-0.7-0.2-1.4-0.4-2.1-0.6
					c-1.3-0.4-2.7-0.8-4-1.3c-0.7-0.2-1.4-0.5-2.2-0.7c-1.9-0.6-3.7-1.3-5.5-1.9c-0.5-0.2-1-0.4-1.5-0.6c-1.5-0.6-3-1.1-4.4-1.7
					c-0.7-0.3-1.3-0.5-2-0.8c-1.7-0.7-3.3-1.4-5-2.2c-0.3-0.1-0.7-0.3-1-0.4c-1.8-0.8-3.6-1.7-5.4-2.5c-0.6-0.3-1.2-0.6-1.8-0.9
					c-1.5-0.8-3.1-1.6-4.6-2.4c-0.4-0.2-0.8-0.4-1.2-0.6c-1.9-1-3.7-2-5.5-3.1c-0.5-0.3-1-0.6-1.5-0.9c-1.5-0.9-3-1.8-4.4-2.7
					c-0.4-0.3-0.9-0.6-1.3-0.8c-1.8-1.2-3.6-2.4-5.4-3.6c-0.4-0.3-0.8-0.6-1.2-0.8c-1.5-1-3-2.1-4.5-3.2c-0.5-0.3-0.9-0.7-1.4-1
					c-1.8-1.3-3.6-2.7-5.4-4.1c-0.2-0.2-0.5-0.4-0.7-0.6c-1.6-1.3-3.1-2.5-4.7-3.9c-0.5-0.4-0.9-0.8-1.4-1.2
					c-1.8-1.5-3.5-3.1-5.3-4.7c-47.1-46.8-74.6-103.6-88.3-164c0,0.1,0,0.2,0,0.3c-3.8-16.4-6.5-33-8.3-49.9
					c-0.1-0.6-0.1-1.2-0.2-1.8c-0.2-1.6-0.3-3.2-0.5-4.9c-5.4-56.8-0.7-115,9.5-169.5c0.6-3.1,1.2-6.3,1.8-9.4c0,0,0-0.1,0-0.1
					c16.2-81,44.3-153.1,69.1-199.9c0.2-0.4,0.5-0.9,0.7-1.3c0.4-0.7,0.8-1.5,1.2-2.2c0.6-1.1,1.2-2.1,1.7-3.2
					c0.3-0.5,0.5-0.9,0.8-1.4c0.4-0.6,0.7-1.3,1.1-1.9c0.6-1.1,1.2-2.1,1.8-3.1c1.2-2.3,2.4-4.6,3.6-6.9c0.8-1.6,1.6-3.1,2.4-4.7
					c1.1-2.1,2.2-4.1,3.3-6.1c0.9-1.8,1.9-3.5,2.8-5.3c1.1-1.9,2.1-3.8,3.2-5.7c1-1.8,2-3.6,3-5.4c1-1.8,2.1-3.6,3.2-5.5
					c1.1-1.8,2.1-3.7,3.2-5.5c1.1-1.8,2.1-3.6,3.2-5.3c1.1-1.8,2.1-3.6,3.2-5.3c1.1-1.8,2.2-3.5,3.2-5.2c1.1-1.7,2.2-3.5,3.2-5.2
					c1.1-1.7,2.2-3.4,3.3-5.1c1.1-1.7,2.2-3.4,3.3-5.1c1.1-1.7,2.2-3.3,3.3-5c1.1-1.7,2.2-3.4,3.3-5c1.1-1.6,2.2-3.2,3.3-4.9
					c1.1-1.6,2.2-3.3,3.4-4.9c1.1-1.6,2.2-3.1,3.4-4.7c1.1-1.6,2.3-3.2,3.4-4.8c1.1-1.6,2.3-3.1,3.4-4.6c1.1-1.6,2.3-3.1,3.4-4.7
					c1.1-1.5,2.3-3,3.4-4.5c1.2-1.5,2.3-3.1,3.5-4.6c1.1-1.5,2.3-2.9,3.4-4.3c1.2-1.5,2.3-3,3.5-4.4c1.2-1.4,2.3-2.8,3.5-4.2
					c1.2-1.4,2.4-2.9,3.6-4.3c1.2-1.4,2.3-2.7,3.5-4.1c1.2-1.4,2.4-2.8,3.6-4.2c1.2-1.4,2.3-2.7,3.5-4c1.2-1.4,2.4-2.8,3.6-4.1
					c1.2-1.3,2.4-2.6,3.5-3.9c1.2-1.3,2.4-2.7,3.6-4c1.2-1.3,2.4-2.5,3.6-3.8c1.2-1.3,2.4-2.6,3.7-3.9c1.2-1.2,2.4-2.4,3.6-3.7
					c1.2-1.3,2.5-2.5,3.7-3.8c1.2-1.2,2.4-2.4,3.6-3.6c1.2-1.2,2.5-2.4,3.7-3.6c1.2-1.2,2.4-2.3,3.6-3.4c1.2-1.2,2.5-2.4,3.7-3.5
					c1.2-1.1,2.4-2.2,3.6-3.3c1.3-1.2,2.5-2.3,3.8-3.4c1.2-1.1,2.4-2.1,3.6-3.2c1.3-1.1,2.5-2.2,3.8-3.3c1.2-1,2.4-2.1,3.6-3.1
					c1.3-1.1,2.5-2.2,3.8-3.2c1.2-1,2.4-2,3.6-3c1.3-1,2.5-2.1,3.8-3.1c1.2-1,2.4-1.9,3.7-2.9c1.3-1,2.5-2,3.8-3
					c1.2-0.9,2.4-1.8,3.7-2.8c1.3-1,2.6-1.9,3.8-2.9c1.2-0.9,2.4-1.8,3.7-2.7c1.3-0.9,2.6-1.9,3.8-2.8c1.2-0.9,2.4-1.7,3.7-2.5
					c1.3-0.9,2.6-1.8,3.9-2.6c1.2-0.8,2.4-1.6,3.7-2.4c1.3-0.9,2.6-1.7,3.9-2.5c1.2-0.8,2.5-1.6,3.7-2.3c1.3-0.8,2.6-1.6,3.9-2.4
					c1.2-0.8,2.5-1.5,3.7-2.2c1.3-0.8,2.6-1.6,3.9-2.3c1.2-0.7,2.5-1.4,3.7-2.1c1.3-0.7,2.6-1.5,3.9-2.2c1.2-0.7,2.5-1.3,3.7-2
					c1.3-0.7,2.6-1.4,3.9-2.1c1.2-0.6,2.4-1.3,3.7-1.9c1.3-0.7,2.6-1.3,3.9-2c1.2-0.6,2.4-1.2,3.7-1.8c1.3-0.6,2.6-1.3,3.9-1.9
					c1.2-0.6,2.4-1.1,3.7-1.7c1.3-0.6,2.6-1.2,3.9-1.8c1.2-0.5,2.4-1.1,3.7-1.6c1.3-0.6,2.6-1.1,3.8-1.6c1.2-0.5,2.4-1,3.6-1.5
					c1.3-0.5,2.6-1,3.8-1.5c1.2-0.5,2.4-0.9,3.6-1.4c1.3-0.5,2.6-1,3.8-1.4c1.2-0.4,2.4-0.9,3.6-1.3c1.3-0.4,2.6-0.9,3.8-1.3
					c1.2-0.4,2.4-0.8,3.6-1.2c1.3-0.4,2.5-0.8,3.8-1.2c1.2-0.4,2.4-0.7,3.6-1.1c1.3-0.4,2.5-0.7,3.8-1.1c1.2-0.3,2.4-0.7,3.6-1
					c1.3-0.3,2.5-0.7,3.8-1c1.2-0.3,2.4-0.6,3.6-0.9c1.3-0.3,2.5-0.6,3.8-0.9c1.2-0.3,2.4-0.5,3.6-0.8c1.2-0.3,2.5-0.5,3.7-0.8
					c1.2-0.2,2.4-0.5,3.5-0.7c1.2-0.2,2.5-0.5,3.7-0.7c1.2-0.2,2.3-0.4,3.5-0.6c1.2-0.2,2.5-0.4,3.7-0.6c1.2-0.2,2.3-0.3,3.5-0.5
					c1.2-0.2,2.4-0.3,3.7-0.5c1.2-0.1,2.3-0.3,3.5-0.4c1.2-0.1,2.4-0.2,3.6-0.4c1.1-0.1,2.3-0.2,3.4-0.3c1.2-0.1,2.4-0.2,3.6-0.2
					c1.1-0.1,2.3-0.1,3.4-0.2c1.2-0.1,2.4-0.1,3.6-0.1c1.1,0,2.3-0.1,3.4-0.1c1.2,0,2.4,0,3.5,0
					C2105.7,567.6,2105.8,567.6,2105.9,567.6 M1911.4,1408.3c-1.2-1.2-1.8-1.8-1.8-1.8c10.1,8.5,25,13,43.3,13.3c0.6,0,1.2,0,1.8,0
					c1.6,0,3.2,0,4.9-0.1c0.1,0,0.2,0,0.3,0c0.8,0,1.6-0.1,2.4-0.1c1-0.1,1.9-0.1,2.9-0.2c0.2,0,0.4,0,0.6,0
					c73-6.4,187-72.3,266.7-217.3c109-197.8,52.7-409.1-37.4-429.8c-3.6-0.7-7.5-1.1-11.7-1.1c-58.2,0-169,72.4-242.4,218.1
					c-84.6,167.3-105.2,337.3-32,417.3C1909.9,1407.2,1910.6,1407.8,1911.4,1408.3 M2105.9,546.5h-0.3c-1.3,0-2.6,0-3.9,0
					c-1.2,0-2.4,0-3.7,0.1c-1.3,0-2.6,0.1-3.9,0.1c-1.2,0.1-2.5,0.1-3.7,0.2c-1.3,0.1-2.6,0.2-3.9,0.3c-1.2,0.1-2.5,0.2-3.7,0.3
					c-1.3,0.1-2.6,0.2-3.9,0.4c-1.2,0.1-2.5,0.3-3.7,0.4c-1.3,0.2-2.6,0.3-4,0.5c-1.3,0.2-2.5,0.3-3.8,0.5c-1.3,0.2-2.6,0.4-4,0.6
					c-1.3,0.2-2.5,0.4-3.8,0.6c-1.3,0.2-2.7,0.5-4,0.7c-1.3,0.2-2.5,0.5-3.8,0.7c-1.3,0.3-2.7,0.5-4,0.8c-1.3,0.3-2.5,0.5-3.8,0.8
					c-1.3,0.3-2.7,0.6-4,0.9c-1.3,0.3-2.6,0.6-3.8,0.9c-1.3,0.3-2.7,0.7-4,1.1c-1.3,0.3-2.6,0.7-3.8,1c-1.4,0.4-2.7,0.8-4.1,1.2
					c-1.3,0.4-2.6,0.8-3.8,1.2c-1.3,0.4-2.7,0.9-4.1,1.3c-1.3,0.4-2.6,0.8-3.9,1.3c-1.4,0.5-2.7,0.9-4.1,1.4
					c-1.3,0.4-2.6,0.9-3.9,1.4c-1.4,0.5-2.7,1-4.1,1.5l-0.2,0.1c-1.2,0.5-2.5,0.9-3.7,1.4c-1.3,0.5-2.6,1-3.9,1.6l-0.2,0.1l-0.3,0.1
					c-1.2,0.5-2.4,1-3.6,1.5c-1.4,0.6-2.7,1.2-4.1,1.7l-0.4,0.2c-1.2,0.5-2.3,1-3.5,1.5c-1.2,0.6-2.5,1.1-3.8,1.7l-0.3,0.1l-0.3,0.1
					c-1.2,0.5-2.4,1.1-3.6,1.7c-1.3,0.6-2.6,1.3-3.9,1.9l-0.2,0.1l-0.5,0.2c-1.1,0.5-2.3,1.1-3.4,1.7c-1.3,0.6-2.5,1.3-3.8,1.9
					l-0.3,0.2l-0.5,0.2c-1.1,0.6-2.3,1.2-3.4,1.8c-1.2,0.7-2.5,1.3-3.7,2l-0.4,0.2l-0.5,0.3c-1.1,0.6-2.3,1.2-3.4,1.9
					c-1.2,0.7-2.4,1.4-3.6,2.1l-0.4,0.3l-0.5,0.3c-1.1,0.7-2.3,1.3-3.4,2c-1.2,0.7-2.5,1.5-3.7,2.2l-0.4,0.2l-0.5,0.3
					c-1.1,0.7-2.2,1.3-3.4,2c-1.2,0.7-2.4,1.5-3.6,2.2l-0.5,0.3l-0.7,0.4c-1.1,0.7-2.1,1.3-3.2,2c-1.2,0.8-2.3,1.5-3.5,2.3l-0.5,0.4
					l-0.7,0.5c-1,0.7-2.1,1.4-3.1,2.1c-1.2,0.8-2.3,1.6-3.5,2.4l-0.5,0.4l-0.7,0.5c-1,0.7-2.1,1.4-3.1,2.2c-1.1,0.8-2.3,1.6-3.4,2.4
					l-0.7,0.5l-0.7,0.5c-1.1,0.8-2.1,1.5-3.2,2.3c-1.1,0.8-2.2,1.6-3.3,2.5l-0.7,0.5l-0.8,0.6c-1,0.8-2,1.5-3,2.3
					c-1.1,0.8-2.2,1.7-3.3,2.5l-0.7,0.6l-0.8,0.6c-1,0.8-2,1.6-3,2.4c-1.1,0.9-2.1,1.7-3.2,2.6l-0.8,0.6l-0.8,0.7
					c-1,0.8-2,1.6-3,2.4c-1.1,0.9-2.2,1.8-3.2,2.7l-0.7,0.6l-0.9,0.7c-1,0.8-1.9,1.6-2.9,2.5c-1.1,0.9-2.1,1.8-3.1,2.8l-0.8,0.7
					l-0.9,0.8c-1,0.8-1.9,1.7-2.9,2.6c-1,0.9-2.1,1.9-3.1,2.9l-0.8,0.7l-0.9,0.8c-1,0.9-1.9,1.7-2.9,2.6c-1,1-2,1.9-3.1,2.9
					l-0.8,0.8l-0.8,0.8c-1,0.9-1.9,1.8-2.9,2.8c-1,1-2,1.9-3,2.9l-0.9,0.9l-0.9,0.9c-0.9,0.9-1.9,1.9-2.8,2.8c-1,1-2,2-2.9,3
					l-0.9,0.9l-0.9,0.9c-0.9,1-1.9,1.9-2.8,2.9c-1,1-1.9,2-2.9,3.1l-0.9,1l-0.9,1c-0.9,1-1.8,1.9-2.7,2.9c-1,1-1.9,2.1-2.9,3.2
					l-0.9,1l-1,1.1c-0.9,1-1.8,2-2.7,3c-0.9,1-1.8,2.1-2.8,3.1l-1,1.1l-1,1.1c-0.9,1-1.8,2-2.7,3c-0.9,1.1-1.8,2.2-2.8,3.2l-0.9,1.1
					l-0.9,1.1c-0.9,1.1-1.8,2.1-2.7,3.2c-0.9,1.1-1.8,2.2-2.7,3.3l-0.9,1.2l-1,1.2c-0.9,1.1-1.7,2.1-2.6,3.2
					c-0.9,1.1-1.8,2.3-2.7,3.4l-1,1.2l-0.9,1.2c-0.9,1.1-1.7,2.2-2.6,3.3c-0.9,1.1-1.7,2.2-2.6,3.4l-1,1.3l-1,1.4
					c-0.8,1.1-1.7,2.2-2.5,3.3c-0.8,1.1-1.7,2.3-2.5,3.4l-1,1.4l-1,1.4c-0.8,1.1-1.7,2.2-2.5,3.4c-0.8,1.2-1.7,2.3-2.5,3.5l-1,1.4
					l-1,1.4c-0.8,1.1-1.6,2.3-2.4,3.4c-0.8,1.2-1.6,2.4-2.4,3.5l-1,1.5l-1,1.5c-0.8,1.2-1.6,2.3-2.4,3.5c-0.8,1.2-1.6,2.4-2.5,3.7
					l-1,1.5l-1,1.5c-0.8,1.2-1.6,2.4-2.4,3.6c-0.8,1.2-1.6,2.5-2.4,3.7l-1,1.5l-1,1.6c-0.8,1.2-1.5,2.4-2.3,3.6
					c-0.8,1.2-1.5,2.5-2.3,3.7l-1,1.6l-1,1.7c-0.8,1.2-1.5,2.4-2.3,3.7c-0.8,1.3-1.5,2.5-2.3,3.8l-1,1.6l-1,1.6
					c-0.8,1.3-1.5,2.6-2.3,3.9c-0.7,1.3-1.5,2.5-2.2,3.8l-1,1.8l-1,1.7c-0.8,1.3-1.5,2.6-2.3,3.9c-0.7,1.2-1.4,2.5-2.1,3.8l-1,1.8
					l-1,1.8c-0.8,1.3-1.5,2.7-2.3,4c-0.6,1.2-1.3,2.4-1.9,3.6l-1,1.8l-1,1.9c-0.8,1.5-1.6,2.9-2.4,4.4c-0.5,1-1.1,2-1.6,3
					c-0.3,0.6-0.6,1.2-0.9,1.8l-0.9,1.8c-0.8,1.6-1.7,3.2-2.5,4.8c-0.5,0.9-1.1,1.9-1.6,2.8c-0.4,0.7-0.8,1.3-1.1,2l-0.8,1.4
					c-0.6,1.1-1.2,2.2-1.8,3.3c-0.4,0.8-0.8,1.5-1.2,2.3l-0.7,1.4c-14.5,27.2-50.4,101.8-71.2,205.6c0,0.1,0,0.1,0,0.2
					c-0.6,3.1-1.2,6.2-1.8,9.5c-11.6,62.1-14.9,121.1-9.8,175.4c0.1,1.5,0.3,3,0.5,4.6l0.1,0.5l0.1,0.7c0,0.4,0.1,0.8,0.1,1.2
					c1.9,18.1,4.9,35.7,8.7,52.3c0.1,0.4,0.2,0.8,0.3,1.2c15.9,68.7,47.4,126.8,93.7,172.7c0.2,0.2,0.4,0.4,0.6,0.5
					c1.7,1.6,3.6,3.2,5.8,5.1c0.5,0.4,1,0.9,1.5,1.3c1.7,1.5,3.4,2.9,5.1,4.2l0.2,0.1c0.2,0.2,0.4,0.3,0.6,0.5
					c1.9,1.5,3.8,3,5.9,4.6c0.4,0.3,0.8,0.6,1.1,0.8l0.4,0.3c1.6,1.2,3.3,2.4,4.9,3.5l0.4,0.3c0.3,0.2,0.6,0.4,0.9,0.7
					c2,1.4,4,2.7,6,4c0.4,0.2,0.7,0.4,1.1,0.7l0.4,0.3c1.6,1,3.3,2,4.9,3l0.5,0.3c0.4,0.2,0.8,0.5,1.2,0.7c2.2,1.3,4.2,2.4,6.1,3.4
					c0.3,0.2,0.6,0.3,1,0.5l0.4,0.2c1.6,0.9,3.3,1.8,5,2.6c0.7,0.3,1.3,0.7,2,1c2.2,1.1,4.1,2,5.9,2.8c0.3,0.1,0.5,0.2,0.8,0.4
					l0.3,0.1c1.8,0.8,3.6,1.6,5.5,2.4c0.7,0.3,1.5,0.6,2.2,0.9c1.6,0.6,3.2,1.3,4.9,1.9l0.5,0.2c0.4,0.2,0.8,0.3,1.2,0.4
					c1.9,0.7,3.9,1.4,6.1,2.1c0.7,0.2,1.4,0.5,2.1,0.7l0.3,0.1c1.5,0.5,2.9,0.9,4.4,1.4l0.6,0.2c0.6,0.2,1.1,0.3,1.7,0.5
					c1.9,0.6,4,1.1,6,1.7c0.7,0.2,1.3,0.3,2,0.5l0.5,0.1c1.4,0.3,2.7,0.7,4.1,1l0.4,0.1c0.8,0.2,1.6,0.4,2.3,0.5
					c2.1,0.5,4,0.9,5.9,1.2c0.7,0.1,1.3,0.2,2,0.4l0.7,0.1c1.3,0.2,2.6,0.5,3.9,0.7c1,0.2,2,0.3,3,0.5c1.5,0.2,2.9,0.4,4.3,0.6
					c1.4,0.2,2.8,0.4,4.2,0.5c1.3,0.2,2.6,0.3,3.9,0.4c1.1,0.1,2.1,0.2,3.2,0.3c1.2,0.1,2.4,0.2,3.6,0.3c1.6,0.1,3.1,0.2,4.7,0.3
					c1.3,0.1,2.7,0.2,4,0.2c1.1,0,2.3,0.1,3.4,0.1c1.1,0,2.2,0.1,3.3,0.1l0.6,0c0.8,0,1.7,0,2.5,0l0.3,0c0.4,0,0.8,0,1.2,0
					c0.1,0,0.3,0,0.4,0c33.4,0,68.8-5.9,104.9-17.6c32.7-10.5,65.3-25.4,97-44.4l0.5-0.3c1.9-1.2,3.9-2.3,5.8-3.5l0.6-0.4l0.4-0.3
					c1.5-0.9,2.9-1.8,4.3-2.7c1-0.6,2-1.3,3.1-1.9l0.8-0.5l0.2-0.1c23.9-15.4,46.2-32.5,66-50.7c65.8-57.7,118.9-124.3,158-197.9
					c52.4-98.7,78.4-208.6,77.2-326.6c0-0.1,0-0.3,0-0.4c-2.1-68-14-128.6-35.3-180c-18.3-44-43.4-81.4-74.7-111
					c-3.1-3.2-6.8-6.5-11-9.9c-11.4-9.6-23.5-18.3-36-25.8l-0.2-0.1c-4-2.4-8-4.6-12-6.7c0,0-0.1,0-0.1-0.1c0,0,0,0,0,0
					c-1.8-0.9-3.7-1.9-5.6-2.8l-0.6-0.3c-3.8-1.8-7.6-3.6-11.3-5.2l-0.7-0.3l-0.2-0.1c-1.5-0.6-3.1-1.3-4.6-1.9l-0.3-0.1l-0.8-0.3
					c-3.5-1.4-7-2.7-10.5-3.8c-0.4-0.1-0.7-0.2-1.1-0.4l-0.3-0.1c-1.3-0.4-2.6-0.8-3.9-1.2l-0.4-0.1l-0.9-0.3
					c-1.8-0.5-3.3-1-4.8-1.4c-0.1,0-0.2-0.1-0.3-0.1c-1.8-0.5-3.5-1-5.2-1.6c-0.4-0.1-0.8-0.3-1.2-0.4l-0.3-0.1
					c-1.1-0.4-2.2-0.7-3.3-1.1c-1.2-0.4-2.3-0.7-3.5-1.1c-1.1-0.3-2.2-0.7-3.4-1c-1.2-0.3-2.3-0.7-3.5-1c-1.1-0.3-2.3-0.6-3.4-0.9
					c-1.2-0.3-2.4-0.6-3.6-0.9c-1.2-0.3-2.3-0.5-3.4-0.8c-1.2-0.3-2.4-0.5-3.6-0.8c-1.1-0.2-2.3-0.5-3.5-0.7
					c-1.2-0.2-2.4-0.4-3.7-0.6c-1.2-0.2-2.3-0.4-3.5-0.6c-1.2-0.2-2.5-0.4-3.7-0.5c-1.2-0.2-2.4-0.3-3.6-0.5
					c-1.2-0.1-2.5-0.3-3.7-0.4c-1.2-0.1-2.4-0.2-3.6-0.3c-1.2-0.1-2.5-0.2-3.8-0.3c-1.2-0.1-2.4-0.2-3.6-0.2
					c-1.3-0.1-2.5-0.1-3.8-0.2c-1.2-0.1-2.4-0.1-3.6-0.1c-1.3,0-2.5-0.1-3.8-0.1C2108.1,546.5,2107,546.5,2105.9,546.5L2105.9,546.5
					z M1922.4,1389.7c-29.4-34.1-41.6-88.3-35.4-157.2c3.1-35,11-72.9,23.3-112.4c12.4-39.9,29.1-80.7,49.6-121.3
					c40.5-80.5,88.4-129.7,121.5-156.9c37.2-30.6,76.3-49.6,102.1-49.6c2.7,0,5.1,0.2,7.2,0.6c21.5,5.1,42.4,27.1,57.3,60.4
					c18.1,40.6,26.1,93.7,22.5,149.5c-4.2,64.4-23.7,129.8-56.4,189.1c-34.8,63.3-79.7,116.5-130,153.9
					c-40.7,30.3-84.4,49.4-120,52.6l-0.2,0l-0.4,0c-0.9,0.1-1.7,0.1-2.5,0.2l-0.1,0c-0.6,0-1.2,0.1-1.8,0.1l-0.2,0c0,0-0.1,0-0.1,0
					c-1.4,0.1-2.7,0.1-4.1,0.1c-0.5,0-1,0-1.5,0c-13.2-0.2-23.9-3.2-30.1-8.4C1922.9,1390.1,1922.7,1389.9,1922.4,1389.7
					L1922.4,1389.7z"/>
			</g>
			<g>
				<path class="st1" d="M1244.1,895.7c2.1,0,4.2,0.5,6,1.6l0.1,0c0,0,0,0,0,0c8.3,4.6,30.2,16.8,56.1,31.2c0.2,0.1,0.5,0.3,0.7,0.4
					c6.9,3.8,14,7.8,21.3,11.8c1,0.6,2.1,1.1,3.1,1.7c25.8,14.3,52.6,29.2,72.5,40.3c0.2,0.1,0.3,0.2,0.5,0.3
					c1.9,1.1,3.8,2.1,5.6,3.1c0.1,0,0.1,0.1,0.2,0.1c4.3,2.4,8.1,4.5,11.5,6.4c1.1,0.6,2.2,1.2,3.2,1.8c0.4,0.2,0.8,0.4,1.2,0.6
					c0.3,0.1,0.5,0.3,0.8,0.4c0.3,0.2,0.7,0.4,1,0.6c0.3,0.2,0.5,0.3,0.8,0.4c0.2,0.1,0.5,0.3,0.7,0.4c0.4,0.2,0.8,0.4,1.1,0.6
					c0.1,0.1,0.2,0.1,0.3,0.2c0.3,0.2,0.6,0.4,0.9,0.5c0.2,0.1,0.3,0.2,0.5,0.3c0.3,0.1,0.5,0.3,0.7,0.4c0.1,0.1,0.3,0.1,0.4,0.2
					c0.3,0.2,0.6,0.3,0.9,0.5c0,0,0,0,0,0c0.6,0.3,1,0.5,1.2,0.6c7.8,3.3,4.6,7.9,3.9,11.2l-2.7,6.4l-5,11.7l0,0l-0.1,0l0,0l0.1,0
					c-0.9,1.8-1.8,3.8-2.8,5.9c0,0,0,0.1,0,0.1c0,0,0,0,0,0c-16.4,35-50.7,117.1-92.8,215.5c-0.1,0.1-0.1,0.3-0.2,0.4
					c-1,2.3-2,4.7-3,7c-0.2,0.5-0.4,1-0.6,1.5c-0.9,2-1.7,4-2.6,6c-0.3,0.7-0.6,1.4-0.9,2.1c-0.8,1.8-1.6,3.6-2.3,5.5
					c-0.4,0.9-0.8,1.9-1.2,2.8c-0.7,1.6-1.4,3.2-2,4.7c-0.5,1.1-1,2.2-1.4,3.3c-0.6,1.4-1.2,2.9-1.9,4.3c-0.5,1.3-1.1,2.5-1.6,3.8
					c-0.6,1.3-1.1,2.6-1.7,3.9c-0.6,1.4-1.2,2.7-1.8,4.1c-0.5,1.2-1,2.4-1.6,3.6c-0.6,1.5-1.3,2.9-1.9,4.4c-0.5,1.1-1,2.3-1.5,3.4
					c-0.6,1.5-1.3,2.9-1.9,4.4c-0.5,1.2-1.1,2.4-1.6,3.7c-0.6,1.4-1.2,2.8-1.8,4.2c-0.5,1.2-1.1,2.4-1.6,3.7c-0.6,1.5-1.3,3-1.9,4.5
					c-0.5,1.1-1,2.3-1.5,3.4c-0.7,1.5-1.3,3-2,4.5c-0.5,1.2-1,2.4-1.6,3.6c-0.6,1.5-1.3,3-1.9,4.4c-0.5,1.2-1,2.3-1.5,3.5
					c-0.7,1.6-1.4,3.2-2.1,4.7c-0.5,1-0.9,2.1-1.4,3.1c-0.7,1.7-1.5,3.4-2.2,5.1c-0.4,1-0.8,1.9-1.3,2.9c-0.8,1.7-1.5,3.5-2.3,5.2
					c-0.4,0.9-0.8,1.8-1.2,2.7c-0.8,1.8-1.6,3.6-2.4,5.4c-0.4,0.9-0.8,1.8-1.2,2.7c-0.8,1.8-1.6,3.6-2.4,5.3
					c-0.4,0.9-0.8,1.8-1.2,2.6c-0.8,1.9-1.6,3.7-2.5,5.6c-0.3,0.7-0.6,1.4-0.9,2c-0.9,2-1.8,4.1-2.7,6.1c-0.2,0.5-0.4,1-0.7,1.5
					c-1,2.2-2,4.4-2.9,6.6c-0.1,0.2-0.2,0.4-0.3,0.6c-3.5,7.8-7,15.6-10.5,23.5c168.4,79.9,292.9,108.8,420.1,122.6
					c3.3,0.5,6.4,1.5,9,3.1c0.1,0.1,0.2,0.1,0.3,0.2c0.7,0.5,1.3,1,2,1.5c0.2,0.1,0.4,0.3,0.5,0.4c3,2.8,4.8,6.8,4.5,11.7l-0.8,5.7
					l-1.2,8.8c-0.5,3.4-1.2,5.6-2,7.3c-0.7,1.4-1.6,2.4-2.5,3.3c-0.6,0.6-1.2,1.1-1.9,1.8c-0.4,0.4-0.9,0.8-1.3,1.3c0,0,0,0,0,0
					c-0.3,0.3-0.6,0.5-1,0.8c0,0-0.1,0.1-0.1,0.1c-0.1,0.1-0.3,0.2-0.4,0.3c-0.2,0.2-0.4,0.3-0.6,0.5c0,0-0.1,0.1-0.1,0.1
					c0,0,0,0,0,0c0,0-0.1,0.1-0.1,0.1c-0.1,0.1-0.2,0.1-0.2,0.2c-1,0.7-2,1.5-3,2.2c0,0,0,0,0,0c-15.6,11.2-48.1,31.8-60.7,39.7
					c-3.4,2.1-7.1,3.7-11,4.6l-2.8,0.7c-2.5,0.6-5.1,0.9-7.7,0.9c-0.9,0-1.7,0-2.6-0.1c-134.2-10.8-255.3-44.1-381.4-99.8
					c0,0,0,0,0,0h0c-6.5,18.2-12.2,39.4-14.8,49.4c-1,4-2.6,7.8-4.7,11.4l-7.5,12.8l-0.2,0.4c0,0,0,0,0,0l-0.1,0.1
					c0,0-0.1,0.1-0.1,0.1c-0.2,0.3-0.4,0.5-0.6,0.8c-0.1,0.1-0.3,0.2-0.4,0.4c-0.1,0.1-0.3,0.2-0.4,0.3c-0.8,0.6-1.8,1-2.8,1.1
					l-7.3,0.6c0,0,0.1,0,0.1,0c-0.3,0-0.6,0.1-0.9,0.1c-0.8,0-2-0.1-4.1-0.8h0c-0.1,0-0.2-0.1-0.2-0.1c-0.3-0.1-0.6-0.2-1-0.4
					c-23.6-9-75.6-38.1-82.1-42.1l-7.9-7.4c-1.3-1.2-2.3-2.8-2.9-4.5c-6.1-17.9-10.7-46.6-8.2-100.2
					c-99.6-63.6-199.9-148-277.8-257.5c-5.3-7.3-6.6-9.2-7.9-17.6c-3.3-19.1-11.8-81.3-12.4-91.1c-0.1-0.9-0.2-1.8-0.3-2.7
					c0,0,0,0,0,0c-0.5-5.8-1.1-14.2,5-18.5c0.1,0,0.1-0.1,0.2-0.2l0.5-0.3c0,0,0,0,0,0v0l10.4-6.7l0,0c0,0,0,0,0,0l0.3-0.2
					c1.4-0.9,2.9-1.7,4.5-2.3c0,0,0,0,0,0l2.3-0.7c1.4-0.4,2.9-0.8,4.4-0.9c0.6,0,1.3-0.1,1.9-0.1c6.3,0,12.8,2.3,18.4,8.9
					c0,0,0.1,0.1,0.1,0.1c0.3,0.4,0.6,0.7,0.9,1.1c0.4,0.5,0.7,1,1.1,1.5c47.8,64.2,116,146.7,267.2,249.5
					c4.3-18.2,8.7-36.9,13.5-56c26-106.1,60.4-225.4,115.2-361.2c0.9-2.2,1.7-4.3,2.6-6.5c1.2-2.9,3-5.5,5.2-7.6l8.8-8.1
					c1.9-1.8,4.4-2.9,7-3.2l8.5-1C1243.1,895.7,1243.6,895.7,1244.1,895.7 M1428.7,1035.4L1428.7,1035.4 M1428.7,1035.4
					C1428.7,1035.4,1428.7,1035.4,1428.7,1035.4C1428.7,1035.4,1428.7,1035.4,1428.7,1035.4 M1428.7,1035.4
					C1428.7,1035.4,1428.7,1035.4,1428.7,1035.4C1428.7,1035.4,1428.7,1035.4,1428.7,1035.4 M1244.1,874.6c-1.3,0-2.6,0.1-3.9,0.2
					l-8.5,1c-7,0.8-13.5,3.8-18.8,8.6c0,0-0.1,0.1-0.1,0.1l-8.8,8.1c-4.5,4.2-8.2,9.5-10.5,15.2c-0.9,2.1-1.7,4.2-2.5,6.3l-0.1,0.2
					c-46.7,115.8-83.6,231.5-116.1,364.1c-2.1,8.5-4.2,17.2-6.4,26c-124.9-88.5-187.7-161.2-236.7-226.9c-0.5-0.7-1-1.3-1.5-2
					c-0.5-0.7-1-1.2-1.4-1.7c-0.1-0.1-0.2-0.2-0.3-0.3c-8.9-10.5-21.2-16.3-34.5-16.3c-1.1,0-2.3,0-3.5,0.1c-2.9,0.2-5.9,0.8-9,1.7
					l-2.3,0.7c-0.3,0.1-0.6,0.2-0.8,0.3c-0.4,0.1-0.8,0.3-1.1,0.4c-2.7,1.1-5.4,2.5-7.9,4.1l-0.3,0.2c0,0,0,0-0.1,0l-10.3,6.6
					c0,0-0.1,0.1-0.1,0.1l-0.5,0.3c-0.6,0.4-1.1,0.7-1.6,1.1c-15.6,11.6-13.8,30.9-13.2,37.3c0,0.3,0.1,0.6,0.1,1
					c0.1,0.7,0.1,1.3,0.2,1.9c1,12.9,9.5,73.9,12.6,92.3c2,12.8,5.3,18,11.6,26.6c68.9,96.9,160.9,183.1,273.4,256.4
					c-1.2,42,1.9,72.7,9.8,95.8c1.7,4.9,4.6,9.4,8.4,13l7.9,7.4c1.1,1,2.3,1.9,3.6,2.7c4.3,2.6,58.7,33.5,85.3,43.6
					c0.5,0.2,0.9,0.4,1.3,0.5c0.1,0.1,0.3,0.1,0.4,0.2c0.4,0.1,0.8,0.3,1.1,0.4c3.5,1.1,6.7,1.6,10.1,1.6c0.7,0,1.5,0,2.2-0.1
					c0.1,0,0.3,0,0.4,0l7.3-0.6c4.7-0.4,9.2-2.1,13.1-4.8c0.7-0.5,1.4-1,2-1.6c0.1-0.1,0.1-0.1,0.2-0.2c0.5-0.4,1.1-1,1.8-1.7
					c0.9-0.9,1.7-1.9,2.4-3c0.3-0.5,0.7-1,1-1.5c0,0,0.1-0.1,0.1-0.1c0,0,0-0.1,0.1-0.1c0.1-0.1,0.1-0.2,0.2-0.3l0.2-0.4l7.4-12.7
					c3.1-5.2,5.4-10.9,6.9-16.7c1.3-5.1,4-15.1,7.3-26.2c124.6,52.8,241.8,82.2,366.9,92.3c1.4,0.1,2.9,0.2,4.3,0.2
					c4.2,0,8.5-0.5,12.6-1.5l2.8-0.7c6.1-1.5,12-3.9,17.3-7.3c13.2-8.3,45.5-28.8,61.6-40.3c1-0.7,2.3-1.6,3.6-2.7l0.2-0.2l0.2-0.2
					c0,0,0,0,0.1,0l0.5-0.4l0.2-0.1l0.1-0.1l0.3-0.2l0,0l0,0l0,0l0.2-0.1c0.4-0.3,0.8-0.7,1.2-1c0.6-0.5,1.1-0.9,1.6-1.4
					c0.2-0.2,0.5-0.5,0.7-0.7l0.5-0.4c0.6-0.5,1.3-1.2,2-1.9c2.8-2.7,4.9-5.5,6.6-8.8c2-3.9,3.4-8.4,4.1-14c0,0,0-0.1,0-0.1l1.2-8.8
					l0.8-5.7c0.1-0.5,0.1-1,0.2-1.5c0.7-10.9-3.2-21-11.1-28.4c-0.6-0.5-1-0.9-1.3-1.1c-1.4-1.2-2.8-2.2-4.2-3.2
					c-0.3-0.2-0.7-0.4-1-0.6c-5-3-10.8-5-16.9-5.9c-0.2,0-0.4-0.1-0.6-0.1c-69.7-7.6-130.4-18.9-191.2-35.8
					c-64.9-18.1-131.7-43-203.5-76.1c0.7-1.5,1.4-3,2-4.6l0.1-0.3l0.1-0.3l2.6-5.8l0.4-0.8l0.4-1l0.2-0.5l2.7-6.1l0.4-1l0.5-1.1
					l2.5-5.6l0.8-1.7l0.4-0.9l2.4-5.4l0.5-1.2l0.7-1.5l1.4-3.3l0.9-2.1l0.7-1.6l0.5-1.2l1-2.2l1.3-3l1-2.2l0.3-0.7l2.2-5.1l0.8-1.9
					l0.5-1.2l1.3-3l0.7-1.7l1.5-3.5l0.4-0.9l1.5-3.5l1.5-3.4l0.1-0.2l0.6-1.4l1.4-3.2l0.4-1l1-2.4l1.9-4.5l1.6-3.7l1.8-4.2l1.6-3.7
					l1.9-4.4l1.1-2.5l0.4-0.9l1.7-3.8l0.2-0.6l1.6-3.6l0.6-1.5l1.1-2.6l0.5-1.3l1.1-2.6l0.7-1.6l0.9-2.2l0.7-1.6l1.2-2.7l0.7-1.5
					l0.8-1.8l0.6-1.3l1.5-3.4l1.2-2.7l2.4-5.5l0.9-2.1l2.6-6l0.6-1.5l3-7.1l0.1-0.2l0.1-0.1c12.4-28.9,24.3-57,34.9-81.8
					c25.7-60.3,46-108.1,57.5-132.6c0.2-0.3,0.3-0.6,0.4-0.9c0.9-1.9,1.7-3.6,2.5-5.1c0.4-0.8,0.7-1.6,1-2.4l4.4-10.4l2.7-6.4
					c0.5-1.1,0.9-2.3,1.2-3.6c0-0.1,0-0.1,0.1-0.2c5.5-17.8-4-29.4-15.2-34.6c-0.1-0.1-0.2-0.1-0.3-0.2c0,0-0.1,0-0.1-0.1l-0.6-0.4
					l-0.2-0.1l-0.2-0.1l-0.2-0.1l-0.6-0.3l-0.1-0.1l-0.2-0.1l-0.2-0.1l-0.4-0.2l-0.6-0.3l-0.1-0.1l-0.2-0.1l-0.2-0.1l-0.9-0.5
					l-0.4-0.2l-0.3-0.2l-0.8-0.4l-0.5-0.3l-0.5-0.3l-0.7-0.4c0,0-0.1,0-0.1,0l-0.6-0.4l-0.5-0.3l-3.2-1.8c-3.4-1.9-7.2-4-11.5-6.4
					c0,0-0.1,0-0.1-0.1c0,0,0,0-0.1,0l-4.7-2.6l-0.9-0.5l-0.2-0.1l-0.3-0.1c-19.9-11.1-46.7-25.9-72.5-40.3l-0.5-0.3l-2.7-1.5
					l-21.3-11.8l-0.3-0.2l-0.4-0.2c-26-14.4-47.8-26.6-56.1-31.2c0,0-0.1,0-0.1-0.1C1255.3,876.1,1249.7,874.6,1244.1,874.6
					L1244.1,874.6z"/>
			</g>
			<path class="st1" d="M1191.7,110.1c4.1,0,6.6,1.5,8.9,3.2l16.4,21.3c5.5,10,0.5,15.1,0,32.5c-1,69.2,26.2,208,73.2,366.5
				l60,198.2h0c-178,71.1-458.3,181.9-576.4,292.4c-8.5,8.2-15.9,9.7-20.1,9.7c-2.4,0-3.8-0.5-3.8-0.5l-18.5-2.3
				c-6.8-0.4-10.6-3.8-13.1-10.3l-3.2-13.1c0,0,0,0,0,0c-33.8-169.9-46.1-370.9,69.7-556.1c120.5-193.1,276.8-284.1,382.9-333.8
				l12.4-5.1l1.5-0.7C1186,110.7,1189.2,110.1,1191.7,110.1 M772,798.4c63.6-57.1,170.6-144,309-206.6
				c-19.4-82.1-39.5-196.5-31.2-323.7c-68.5,48-165.3,133.7-213,214.9C791.3,559.7,767.6,675.8,772,798.4 M1191.7,89.1
				c-5,0-10.4,1-16.5,3c-0.7,0.2-1.4,0.5-2.1,0.8l-1.2,0.5l-12,4.9c-0.3,0.1-0.6,0.3-1,0.4c-72,33.7-134.2,71.6-190.1,115.6
				c-79.1,62.3-147,138.4-201.7,226.1c-28.5,45.7-51,94.8-66.8,146.1c-14.2,46.4-23.4,95.9-27.3,147.3
				c-6.3,83.4,0.5,171.4,21.3,276.8c0.1,0.7,0.2,1.4,0.4,2.1l3.2,13.1c0.2,0.9,0.5,1.7,0.8,2.6c7.3,18.9,22,23,30.7,23.7l16.7,2.1
				c2,0.4,4.6,0.8,7.7,0.8c8.4,0,21.3-2.7,34.6-15.5c26-24.3,62.5-50.6,108.6-78c40.4-24,89.4-49.8,145.7-76.4
				c104.2-49.4,215.8-93.9,305.4-129.7l9.9-3.9c3.6-1.4,6.8-3.8,9.2-7.1c4-5.4,5.2-12.3,3.3-18.7l-60-198.2
				c-45.6-153.8-73.3-291.7-72.4-360c0.1-4.8,0.8-8.5,1.3-12c1.4-8.2,3.1-18.4-3.9-31.1c-0.5-1-1.1-1.9-1.8-2.7l-16.4-21.3
				c-1.1-1.4-2.4-2.7-3.8-3.8C1209.2,93.4,1202.4,89.1,1191.7,89.1L1191.7,89.1z M792.8,752.3c1-43.2,5.6-85.6,13.6-124.6
				c10.7-52.1,27.5-98.3,48.6-133.8c0,0,0-0.1,0.1-0.1c36.8-62.7,107.7-132.1,171.9-182.4c-1.5,84.7,8.3,173.1,29.7,268.4
				C966.9,622.3,878.4,680.1,792.8,752.3L792.8,752.3z"/>
			<g>
				<path class="st1" d="M1081,591.8c-14-59-28.3-134.7-32.1-219.8c-88.6,93.2-151.1,211.5-175.4,343.2
					C930.4,673,1000.3,628.3,1081,591.8z"/>
			</g>
			<g>
				<path class="st1" d="M2382,913.3c-4.6-140.2-50.5-225.9-102.8-275.7c-2.5-2.8-6-6-10.4-9.5c0,0,0,0,0,0c-1-0.8-2.1-1.6-3.2-2.4
					c-0.2-0.2-0.4-0.3-0.7-0.5c-0.5-0.3-0.9-0.7-1.4-1c-0.3-0.2-0.6-0.4-0.9-0.6c-0.5-0.3-0.9-0.6-1.4-1c-0.3-0.2-0.7-0.4-1-0.7
					c-0.5-0.3-0.9-0.6-1.4-1c-0.4-0.2-0.7-0.5-1.1-0.7c-0.8-0.5-1.7-1.1-2.6-1.7c-0.4-0.3-0.9-0.5-1.3-0.8c-0.5-0.3-1-0.6-1.4-0.9
					c-0.5-0.3-0.9-0.6-1.4-0.8c-0.5-0.3-1-0.6-1.5-0.9c-0.5-0.3-1-0.6-1.5-0.9c-0.5-0.3-1-0.5-1.4-0.8c-0.6-0.3-1.3-0.7-1.9-1
					c-0.5-0.3-1.1-0.6-1.6-0.9c-0.9-0.5-1.7-0.9-2.6-1.3c-0.4-0.2-0.9-0.5-1.3-0.7c-0.7-0.3-1.3-0.7-2-1c-0.5-0.2-1-0.5-1.5-0.7
					c-0.7-0.3-1.4-0.7-2.1-1c-0.5-0.2-0.9-0.4-1.4-0.7c-0.8-0.4-1.7-0.8-2.5-1.1c-0.4-0.2-0.7-0.3-1.1-0.5c-1.2-0.5-2.4-1-3.6-1.5
					c-0.4-0.2-0.8-0.3-1.2-0.5c-0.9-0.4-1.7-0.7-2.6-1.1c-0.5-0.2-1-0.4-1.4-0.6c-0.8-0.3-1.7-0.7-2.5-1c-0.5-0.2-1-0.4-1.4-0.5
					c-1-0.4-1.9-0.7-2.9-1.1c-0.4-0.1-0.7-0.3-1.1-0.4c-1.4-0.5-2.7-0.9-4.1-1.4c-0.3-0.1-0.6-0.2-1-0.3c-1.1-0.4-2.2-0.7-3.3-1
					c-0.5-0.2-1-0.3-1.5-0.4c-1-0.3-2-0.6-2.9-0.9c-0.5-0.1-1-0.3-1.5-0.4c-1.1-0.3-2.1-0.6-3.2-0.9c-0.4-0.1-0.9-0.2-1.3-0.3
					c-1.5-0.4-3-0.8-4.5-1.1c-0.2,0-0.4-0.1-0.6-0.1c-1.3-0.3-2.7-0.6-4-0.9c-0.5-0.1-1-0.2-1.5-0.3c-1.1-0.2-2.2-0.5-3.3-0.7
					c-0.6-0.1-1.1-0.2-1.7-0.3c-1.1-0.2-2.2-0.4-3.4-0.6c-0.5-0.1-1-0.2-1.5-0.3c-1.6-0.3-3.2-0.5-4.9-0.8
					c-11.2-1.7-23-2.7-35.4-2.7c0,0,0,0,0,0c-1.7,0-3.4,0-5.1,0.1c-0.4,0-0.8,0-1.2,0c-1.4,0-2.8,0.1-4.2,0.1c-0.2,0-0.5,0-0.7,0
					c-4.5,0.2-9,0.9-13.4,1.9c-36.2,8.8-158,50.3-280.9,228.4c-81.3,117.9-116.6,219.9-133.1,349.4c-21.9,172.1-3.4,237.2,47.9,309
					c-2.6-2.8-5.1-5.7-7.6-8.7c2.5,3.2,5,6.3,7.6,9.3c0.2,0.3,0.5,0.5,0.7,0.8c1.1,1.2,2.2,2.4,3.2,3.6c1.3,1.4,2.7,2.9,4,4.3
					c0.1,0.1,0.1,0.1,0.2,0.2c0.4,0.4,0.8,0.8,1.2,1.2c0.7,0.7,1.4,1.4,2.1,2.1c0.5,0.5,1.1,1,1.6,1.5c0.6,0.6,1.2,1.1,1.8,1.7
					c0.6,0.6,1.2,1.1,1.8,1.7c0.5,0.5,1.1,1,1.6,1.4c0.7,0.6,1.3,1.2,2,1.7c0.5,0.4,1,0.8,1.5,1.2c0.7,0.6,1.4,1.2,2.2,1.8
					c0.5,0.4,0.9,0.8,1.4,1.1c0.8,0.6,1.5,1.2,2.3,1.8c0.4,0.3,0.8,0.7,1.3,1c0.8,0.6,1.6,1.2,2.5,1.8c0.4,0.3,0.8,0.6,1.2,0.9
					c0.9,0.6,1.8,1.2,2.6,1.9c0.4,0.2,0.7,0.5,1.1,0.7c0.9,0.6,1.9,1.2,2.8,1.8c0.3,0.2,0.7,0.4,1,0.7c1,0.6,2,1.2,2.9,1.8
					c0.3,0.2,0.6,0.4,0.9,0.5c1,0.6,2.1,1.2,3.1,1.8c0.3,0.2,0.5,0.3,0.8,0.5c1.1,0.6,2.2,1.2,3.3,1.8c0.2,0.1,0.5,0.3,0.7,0.4
					c1.1,0.6,2.3,1.2,3.4,1.8c0.2,0.1,0.4,0.2,0.6,0.3c1.2,0.6,2.4,1.2,3.6,1.8c0.2,0.1,0.3,0.2,0.5,0.2c1.2,0.6,2.5,1.2,3.7,1.7
					c0.1,0.1,0.3,0.1,0.4,0.2c1.3,0.6,2.5,1.1,3.8,1.7c0.1,0,0.2,0.1,0.3,0.1c1.3,0.5,2.6,1.1,3.9,1.6c0.1,0,0.2,0.1,0.3,0.1
					c1.3,0.5,2.7,1,4.1,1.5c0.1,0,0.1,0,0.2,0.1c1.4,0.5,2.8,1,4.2,1.5c0,0,0.1,0,0.1,0.1c1.4,0.5,2.8,0.9,4.3,1.4c0,0,0.1,0,0.1,0
					c1.5,0.5,2.9,0.9,4.4,1.3c0,0,0,0,0,0c14.8,4.2,30.4,6.7,46.8,7.5c0,0,0,0,0,0c1.6,0.1,3.2,0.1,4.9,0.2c0.5,0,1,0,1.6,0
					c98.8,0,203-55.7,269.8-117.4C2256.3,1331.8,2384.6,1168.7,2382,913.3z M2347.7,995.3c0,0.2,0,0.4,0,0.5
					c-0.5,14.5-1.7,29.5-3.7,44.8c-0.6,4.1-1.2,8.2-1.8,12.4c-9.8,60.2-32.8,125.3-73.4,190.4c-20.4,32.5-41.1,60.5-61.9,84.3
					c-4.4,5.1-8.9,10-13.3,14.8c-1.7,1.8-3.5,3.7-5.2,5.5c-74.2,76.9-147.3,103.4-202.5,103.4c-23,0-42.8-4.6-58.3-12
					c-1.4-0.7-2.8-1.4-4.1-2.1c-5.4-2.9-10.1-6.2-14.3-9.7c-2.1-1.9-4.3-3.9-6.4-6.1c-1.1-1.1-2.1-2.2-3.2-3.4
					c-1-1.2-2.1-2.4-3.1-3.6c-4.7-5.8-9.1-12.4-13.3-19.6c0-0.1-0.1-0.3-0.2-0.4c-0.1-0.3-0.2-0.4-0.3-0.6c-0.1-0.3-0.3-0.4-0.4-0.7
					c-0.1-0.1-0.1-0.3-0.2-0.4c-0.1-0.1-0.1-0.1-0.1-0.2c-0.1-0.1-0.1-0.2-0.2-0.4c0,0,0-0.1-0.1-0.1c-0.1,0-0.1-0.1-0.1-0.3
					c0,0,0-0.1-0.1-0.1c0,0-0.1-0.1-0.1-0.1c0-0.1-0.1-0.1-0.1-0.2c-0.1-0.1-0.2-0.4-0.3-0.6c0,0-0.1-0.1-0.1-0.2
					c-0.1-0.1-0.1-0.2-0.1-0.3c0,0,0-0.1,0-0.1c-0.1-0.1-0.1-0.3-0.2-0.4c-0.1-0.1-0.2-0.3-0.2-0.5c0,0,0-0.1-0.1-0.1
					c0-0.1,0-0.1,0-0.1c0,0,0,0,0,0c-0.1-0.1-0.3-0.4-0.4-0.6c0-0.1-0.1-0.1-0.1-0.2c0-0.1-0.1-0.2-0.1-0.3
					c-0.1-0.1-0.1-0.1-0.1-0.2c-0.1-0.1-0.1-0.2-0.1-0.2c-0.1-0.2-0.2-0.4-0.3-0.5c0-0.1-0.1-0.1-0.1-0.2c-0.1-0.1-0.1-0.3-0.2-0.6
					c0,0,0,0,0-0.1c0,0-0.1-0.1-0.1-0.1c-0.1-0.3-0.1-0.4-0.2-0.6c0,0,0-0.1-0.1-0.1c-0.1-0.1-0.1-0.2-0.2-0.3
					c0-0.1-0.1-0.2-0.2-0.4c0-0.1-0.1-0.2-0.1-0.2c-0.1-0.1-0.1-0.3-0.2-0.4c0-0.1-0.1-0.1-0.1-0.2c-0.1-0.1-0.1-0.3-0.2-0.6
					c0-0.1-0.1-0.1-0.1-0.2c0-0.1-0.1-0.2-0.1-0.4c0,0,0,0-0.1-0.1c-0.1-0.1-0.2-0.1-0.2-0.2c-0.1-0.1-0.1-0.3-0.1-0.4
					c-0.1-0.1-0.1-0.2-0.2-0.4c0-0.1-0.1-0.2-0.1-0.4c0,0-0.1-0.1-0.1-0.2c-0.1-0.1-0.1-0.3-0.2-0.4c-0.1-0.1-0.1-0.3-0.1-0.3
					c0-0.1-0.1-0.2-0.1-0.2c-0.1-0.2-0.1-0.4-0.2-0.5c0-0.1,0-0.1-0.1-0.1c0-0.1,0-0.1-0.1-0.1c-0.1-0.3-0.1-0.4-0.2-0.6
					c0,0,0-0.1,0-0.1c-0.1-0.1-0.1-0.3-0.2-0.5c0-0.1-0.1-0.3-0.1-0.4c0,0,0-0.1,0-0.1c-0.1-0.2-0.2-0.4-0.2-0.5
					c0-0.2-0.1-0.3-0.1-0.4c0-0.1-0.1-0.1-0.1-0.2c0-0.1-0.1-0.2-0.1-0.3c0-0.1,0-0.2,0-0.3c-0.1,0-0.1-0.1-0.3-0.3
					c0-0.2-0.1-0.4-0.2-0.6c0,0,0,0,0-0.1c0-0.1,0-0.1,0-0.2c0-0.1-0.1-0.2-0.1-0.3c-0.1-0.1-0.1-0.3-0.2-0.4c0-0.1,0-0.1,0-0.2
					c0-0.1,0-0.3-0.1-0.4c0-0.1-0.1-0.1-0.1-0.2c-0.1-0.2-0.1-0.3-0.2-0.5c-0.1-0.1-0.1-0.1-0.1-0.3c-0.1-0.1-0.1-0.3-0.1-0.4
					c0-0.1-0.1-0.2-0.1-0.3c0-0.1-0.1-0.2-0.1-0.3c0,0-0.1-0.1-0.1-0.2c-0.1-0.1-0.1-0.3-0.2-0.5c-0.1-0.1-0.1-0.2-0.1-0.3
					c0,0,0-0.1,0-0.1c0,0,0-0.1-0.1-0.1c-0.1-0.1-0.1-0.2-0.2-0.5c0-0.1-0.1-0.1-0.1-0.2c0-0.1-0.1-0.2-0.1-0.2
					c-0.1-0.1-0.1-0.3-0.2-0.4c0-0.1,0-0.2-0.1-0.2c0-0.1-0.1-0.2-0.1-0.3c0,0,0-0.1,0-0.1c0-0.1-0.1-0.2-0.1-0.4
					c-0.1-0.3-0.2-0.4-0.3-0.6c0-0.1-0.1-0.2-0.1-0.4c0-0.1,0-0.1-0.1-0.2c0-0.1,0-0.2-0.1-0.2c-0.1-0.1-0.1-0.1-0.1-0.2
					c0,0,0,0,0-0.1c-0.1-0.1-0.1-0.4-0.1-0.6c-0.1-0.1-0.1-0.4-0.2-0.6c0-0.1-0.1-0.1-0.1-0.2c0-0.1-0.1-0.2-0.1-0.3
					c0-0.1-0.1-0.3-0.1-0.4c0-0.1-0.1-0.2-0.1-0.4c0-0.1-0.1-0.2-0.2-0.4v-0.1c-0.1-0.1-0.1-0.3-0.2-0.5c0-0.1,0-0.1,0-0.2
					c0-0.1-0.1-0.1-0.1-0.2c0-0.1,0-0.1-0.1-0.2c0-0.1,0-0.1-0.1-0.2c0-0.1-0.1-0.2-0.1-0.3c0-0.1,0-0.2,0-0.2
					c-0.1-0.3-0.1-0.4-0.2-0.7c0,0,0-0.1,0-0.1c-0.1-0.2-0.1-0.4-0.2-0.6c0,0,0,0,0,0c-0.1,0-0.1-0.1-0.1-0.2c0,0,0,0,0,0
					c-0.1-0.1-0.1-0.3-0.1-0.4c0-0.1,0-0.1,0-0.2c0-0.1,0-0.1,0-0.1c-0.2-0.3-0.2-0.4-0.4-0.9c0-0.1,0-0.2-0.1-0.3
					c0-0.1-0.1-0.2-0.1-0.2c0-0.1,0-0.1-0.1-0.2c0-0.1,0-0.1-0.1-0.1c0,0,0,0,0,0c0-0.1-0.1-0.3-0.1-0.4c0-0.1-0.1-0.2-0.1-0.3
					c0-0.2-0.1-0.3-0.1-0.4c0-0.1-0.1-0.2-0.1-0.3c0,0,0,0,0-0.1c-0.1-0.1-0.1-0.3-0.2-0.5c0-0.1,0-0.1-0.1-0.2
					c0-0.1-0.1-0.1-0.1-0.2c0-0.1-0.1-0.2-0.1-0.4c0-0.1-0.1-0.3-0.1-0.4c0,0,0,0,0,0c-0.1-0.1-0.1-0.4-0.2-0.7
					c-0.1-0.1-0.1-0.4-0.2-0.6c0,0,0,0,0-0.1c-0.1-0.2-0.1-0.4-0.2-0.6c0-0.1,0-0.1-0.1-0.2c-0.1-0.1-0.1-0.3-0.1-0.4
					c0-0.1,0-0.1-0.1-0.2c0-0.1,0-0.2-0.1-0.3c0,0,0-0.1,0-0.1c-0.1-0.2-0.1-0.4-0.1-0.6c0-0.1-0.1-0.1-0.1-0.2
					c0-0.1-0.1-0.2-0.1-0.4c0,0,0-0.1-0.1-0.2c0,0,0-0.1,0-0.1c-0.1-0.3-0.1-0.4-0.1-0.6c0-0.1-0.1-0.1-0.1-0.2
					c0-0.1-0.1-0.3-0.1-0.4c-0.1-0.1-0.1-0.3-0.2-0.4c0-0.2-0.1-0.3-0.1-0.5c0-0.1-0.1-0.2-0.1-0.4c0,0,0-0.1-0.1-0.1
					c0-0.1-0.1-0.4-0.1-0.6c-0.1-0.2-0.1-0.4-0.2-0.6c0,0,0-0.1,0-0.1c0,0,0,0,0-0.1c0-0.1-0.1-0.2-0.1-0.2c0-0.1,0-0.2-0.1-0.2
					c0-0.1-0.1-0.3-0.1-0.5c0-0.1-0.1-0.4-0.1-0.6c0-0.1,0-0.1,0-0.2c0-0.1,0-0.1,0-0.2c0,0,0-0.1,0-0.1c0-0.1-0.1-0.2-0.1-0.3
					c0-0.1-0.1-0.3-0.1-0.4c0-0.1,0-0.3,0-0.4c-0.1,0-0.1-0.1-0.1-0.1c0-0.1,0-0.2-0.1-0.2c0-0.1-0.1-0.3-0.1-0.5
					c0-0.3-0.1-0.4-0.1-0.7c0-0.1-0.1-0.3-0.1-0.3c0-0.1,0-0.2-0.1-0.3c0-0.2,0-0.3-0.1-0.4c-0.1-0.1-0.1-0.4-0.1-0.6
					c0,0,0-0.1-0.1-0.3c0-0.1,0-0.3-0.1-0.4c0-0.1,0-0.1-0.1-0.2c-0.1-0.2-0.1-0.3-0.1-0.5c0-0.1,0-0.1,0-0.2c0-0.1-0.1-0.1-0.1-0.2
					c0-0.1,0-0.1,0-0.2c-0.1-0.3-0.1-0.4-0.1-0.7c-0.1-0.1-0.1-0.3-0.2-0.4c0,0,0,0,0,0c0-0.1-0.1-0.3-0.1-0.4c0-0.1,0-0.1-0.1-0.2
					c0-0.1,0-0.3-0.1-0.3c0-0.1-0.1-0.4-0.1-0.6c0-0.3-0.1-0.4-0.1-0.6c0,0,0-0.1,0-0.1c0-0.2-0.1-0.3-0.1-0.5
					c0-0.1-0.1-0.4-0.1-0.6c-0.1-0.1-0.1-0.3-0.1-0.4c0-0.1,0-0.1,0-0.2c0-0.1-0.1-0.2-0.1-0.4c0-0.1,0-0.3-0.1-0.4
					c0-0.2,0-0.3-0.1-0.5c0-0.1-0.1-0.2-0.1-0.3c0-0.1,0-0.2,0-0.3c0,0,0-0.1,0-0.1c0-0.3-0.1-0.4-0.1-0.7c0-0.1,0-0.3-0.1-0.4
					c0-0.1,0-0.2,0-0.3c0-0.1,0-0.2,0-0.3c-0.1-0.1-0.1-0.3-0.1-0.6c0-0.1,0-0.2,0-0.3c0-0.1-0.1-0.3-0.1-0.5c0,0,0-0.1-0.1-0.3
					c0-0.3-0.1-0.4-0.1-0.7c0-0.1,0-0.3-0.1-0.4c0-0.1,0-0.3,0-0.4c0,0,0-0.1,0-0.1c0-0.2-0.1-0.3-0.1-0.5c0-0.3-0.1-0.4-0.1-0.7
					c-0.1-0.1-0.1-0.3-0.1-0.4c0-0.3-0.1-0.6-0.1-0.7c0-0.1,0-0.3,0-0.4c0,0,0-0.1,0-0.1c-0.1-0.2-0.1-0.4-0.1-0.6
					c0-0.1-0.1-0.3-0.1-0.4c0-0.1-0.1-0.4-0.2-0.6c0-0.3-0.1-0.4-0.1-0.7c0-0.1-0.1-0.3-0.1-0.4c0,0,0-0.1-0.1-0.3
					c0-0.1,0-0.4-0.1-0.6c0-0.1,0-0.1,0-0.1c0-0.1-0.1-0.3-0.1-0.4c0-0.1-0.1-0.3-0.1-0.4c-0.1-0.3-0.1-0.6-0.1-0.7
					c-1-6.3-1.8-12.8-2.4-19.5c-0.2-2-0.4-4-0.5-6.1c-0.4-5.2-0.7-10.4-0.8-15.8c-0.1-1.8-0.1-3.7-0.1-5.6c0-1.9,0-3.8-0.1-5.6
					c-0.1-41.7,6.3-90.2,22.1-144.7c0.3-1,0.6-2,0.9-3c0.2-0.7,0.5-1.5,0.7-2.2c0.2-0.6,0.4-1.3,0.6-2c0.1-0.3,0.2-0.7,0.3-1
					c0.2-0.6,0.3-1.2,0.5-1.8c0.3-1,0.7-2,1.1-3.1c0.3-0.9,0.5-1.8,0.8-2.7c0.2-0.6,0.4-1.3,0.6-1.9c0.7-2.5,1.6-4.9,2.4-7.2
					c0.4-1.5,0.9-2.8,1.4-4.3c0.7-2,1.4-4,2.1-6c0.8-2.6,1.8-5.1,2.7-7.6c1.3-3.4,2.6-7,3.8-10.4c0.8-1.9,1.5-3.8,2.2-5.7
					c0.3-0.7,0.5-1.4,0.8-2.1c0.3-0.7,0.5-1.4,0.8-2c0.6-1.5,1.2-3,1.8-4.6c0.6-1.4,1.1-2.8,1.8-4.3c0.3-0.8,0.7-1.7,1-2.5
					c0.4-1,0.9-2.1,1.3-3.1c0.2-0.5,0.4-1,0.6-1.5c0.5-1.2,0.9-2.3,1.4-3.4c0.2-0.4,0.4-0.9,0.6-1.4c0.1-0.3,0.3-0.7,0.4-1
					c0.4-0.8,0.7-1.7,1.1-2.4c0.6-1.6,1.3-3,1.8-4.4c0.9-1.7,1.6-3.4,2.3-5c0.4-1,0.9-2,1.4-2.9c0.4-0.8,0.7-1.7,1.1-2.5
					c0.1-0.3,0.3-0.6,0.4-0.9c0.1-0.3,0.3-0.7,0.4-1c0.4-0.8,0.7-1.6,1.1-2.4c0.4-0.9,0.9-1.8,1.2-2.7c0.6-1.3,1.2-2.6,1.9-4
					c0.3-0.6,0.6-1.3,0.9-1.9c0.2-0.4,0.4-0.8,0.5-1.1c0.4-0.8,0.7-1.6,1.1-2.3c0.2-0.3,0.3-0.5,0.4-0.8c0-0.1,0.1-0.2,0.1-0.3
					c0.1-0.1,0.2-0.3,0.2-0.4c0.1-0.3,0.3-0.5,0.4-0.8c0.1-0.2,0.2-0.5,0.4-0.7c0.2-0.4,0.5-0.9,0.7-1.3c0.4-0.7,0.8-1.4,1.2-2.1
					c0.4-0.7,0.6-1.3,1-1.9c0.5-0.9,0.9-1.9,1.4-2.8c0.5-0.9,1-1.8,1.4-2.6c0.1-0.2,0.2-0.4,0.4-0.7c0.4-0.7,0.7-1.4,1.1-2.1
					c0.1-0.2,0.3-0.5,0.4-0.7c0.4-0.6,0.8-1.2,1.1-1.9c0.3-0.6,0.6-1.1,0.9-1.6c0.3-0.6,0.6-1.2,1-1.8c0.1-0.2,0.3-0.5,0.4-0.7
					c0.2-0.3,0.3-0.6,0.5-0.9c0.3-0.6,0.6-1.2,0.9-1.8c0.1-0.1,0.2-0.3,0.2-0.4c0.2-0.3,0.3-0.6,0.5-1c0.1-0.1,0.1-0.2,0.2-0.3
					c0.4-0.7,0.8-1.3,1.2-2c0.2-0.4,0.4-0.8,0.6-1.2c0.2-0.4,0.4-0.8,0.6-1.2c0.1-0.2,0.3-0.4,0.4-0.6c0.2-0.3,0.4-0.7,0.6-1
					c0.5-0.8,1-1.6,1.4-2.4c0.4-0.8,0.9-1.5,1.2-2.2c0.3-0.4,0.6-0.9,0.8-1.4c0-0.1,0.1-0.2,0.1-0.3c0-0.1,0.1-0.1,0.1-0.2
					c0.4-0.6,0.7-1.2,1.1-1.8c0.3-0.5,0.6-1.1,0.9-1.6c0-0.1,0.1-0.1,0.1-0.2c0.1-0.1,0.1-0.2,0.2-0.3c0.2-0.3,0.3-0.5,0.5-0.8
					c0.1-0.1,0.2-0.3,0.3-0.4c0.4-0.8,0.9-1.4,1.2-2.1c0.4-0.6,0.8-1.3,1.2-1.9c0.4-0.6,0.7-1.1,1-1.6c0.2-0.4,0.5-0.9,0.8-1.3
					c0.1-0.2,0.2-0.4,0.3-0.6c0.4-0.6,0.7-1.2,1.1-1.8c0.2-0.3,0.4-0.7,0.6-0.9c0,0,0,0,0-0.1c0.1-0.1,0.1-0.3,0.2-0.4
					c0.2-0.3,0.3-0.5,0.5-0.8c0.1-0.2,0.3-0.4,0.4-0.7c0.4-0.6,0.8-1.2,1.1-1.8c0.4-0.4,0.6-0.8,0.9-1.3c0.1-0.1,0.1-0.3,0.2-0.4
					c0.3-0.5,0.6-0.9,0.9-1.4c0.4-0.5,0.7-1,1-1.5c0.1-0.1,0.1-0.2,0.2-0.2c0.1-0.1,0.1-0.2,0.2-0.3c0.2-0.3,0.4-0.7,0.6-1
					c0.1-0.1,0.1-0.2,0.2-0.2c0-0.1,0.1-0.1,0.1-0.2c0.2-0.3,0.3-0.6,0.5-0.9c0.1-0.2,0.2-0.3,0.3-0.5c0.2-0.3,0.3-0.5,0.5-0.7
					c0.1-0.1,0.1-0.2,0.2-0.3c0.2-0.2,0.3-0.4,0.4-0.6c0.1-0.2,0.2-0.3,0.3-0.5c0.1-0.2,0.2-0.4,0.4-0.5c0.3-0.5,0.6-1,0.9-1.5
					c0,0,0.1-0.1,0.1-0.1c0,0,0.1-0.1,0.1-0.1c0.3-0.4,0.5-0.8,0.8-1.1c0.4-0.5,0.8-1.1,1.1-1.6c0.4-0.4,0.6-0.9,0.9-1.4
					c0.4-0.5,0.6-1,1-1.5c0.3-0.4,0.6-0.8,0.9-1.2c0.2-0.4,0.5-0.9,0.8-1.3c0,0,0.1-0.1,0.1-0.1c0-0.1,0.1-0.1,0.1-0.2
					c0.2-0.2,0.3-0.5,0.5-0.7c0.1-0.1,0.2-0.3,0.3-0.4c0.3-0.5,0.7-1,1.1-1.6c0.1-0.1,0.2-0.3,0.3-0.4c0.2-0.3,0.4-0.6,0.6-0.9
					c0.3-0.4,0.5-0.8,0.8-1.1c0,0,0-0.1,0.1-0.1c0.2-0.3,0.4-0.6,0.5-0.8c0.2-0.3,0.4-0.5,0.6-0.8c0.2-0.2,0.3-0.4,0.5-0.7
					c0.2-0.2,0.3-0.5,0.5-0.7c0.1-0.1,0.2-0.3,0.3-0.5c0.1-0.2,0.2-0.3,0.3-0.4c0.3-0.5,0.6-0.9,0.9-1.3c0,0,0-0.1,0.1-0.1
					c0-0.1,0.1-0.1,0.1-0.2c0.3-0.4,0.5-0.7,0.8-1.1c0-0.1,0.1-0.1,0.1-0.2c0,0,0-0.1,0.1-0.1c0.2-0.3,0.5-0.7,0.7-1
					c0.4-0.4,0.7-0.9,1-1.3c0.2-0.2,0.3-0.4,0.5-0.6c0.1-0.1,0.1-0.1,0.2-0.2c0.1-0.2,0.3-0.4,0.4-0.6c0.2-0.4,0.5-0.7,0.7-1.1
					c0.2-0.3,0.5-0.6,0.7-0.9c0-0.1,0.1-0.1,0.1-0.2c0-0.1,0.1-0.1,0.1-0.2c0.3-0.4,0.6-0.8,0.9-1.2c0.4-0.3,0.6-0.6,0.8-1
					c0.3-0.4,0.6-0.9,1-1.4c0.1-0.2,0.2-0.3,0.3-0.5c0.1-0.1,0.2-0.2,0.3-0.4c0.1-0.2,0.2-0.3,0.3-0.5c0.3-0.3,0.5-0.6,0.8-1
					c0,0,0-0.1,0.1-0.1c0,0,0-0.1,0.1-0.1c0.3-0.4,0.6-0.8,0.9-1.2c0.2-0.3,0.5-0.6,0.7-0.8c0.3-0.4,0.6-0.9,1-1.3
					c0.2-0.3,0.4-0.6,0.7-1c0-0.1,0.1-0.1,0.1-0.2c0,0,0-0.1,0.1-0.1c0.2-0.3,0.5-0.6,0.7-0.9c0,0,0.1-0.1,0.1-0.1
					c0.4-0.5,0.6-0.8,1-1.3c0.2-0.2,0.4-0.5,0.6-0.7c0.1-0.1,0.2-0.2,0.3-0.4c0.3-0.4,0.6-0.7,0.8-1.1c0.3-0.3,0.6-0.6,0.8-0.9
					c0.3-0.4,0.6-0.7,0.9-1.1c0.3-0.3,0.5-0.7,0.8-1.1c0,0,0-0.1,0.1-0.1c0,0,0.1-0.1,0.1-0.1c0.2-0.2,0.4-0.5,0.6-0.7
					c0.1-0.1,0.2-0.2,0.3-0.3c0.1-0.1,0.1-0.2,0.2-0.3c0.2-0.3,0.4-0.5,0.6-0.7c0.2-0.2,0.3-0.3,0.5-0.5c0.1-0.1,0.1-0.2,0.2-0.2
					c0.1-0.1,0.2-0.3,0.3-0.4c0.3-0.3,0.7-0.7,0.9-1.1c0,0,0-0.1,0.1-0.1c0.1-0.1,0.3-0.3,0.4-0.4c0.1-0.2,0.3-0.3,0.4-0.5
					c0.3-0.4,0.6-0.6,0.8-0.9c0.4-0.4,0.6-0.8,1-1.2c0.3-0.3,0.6-0.7,0.9-1.1c0,0,0,0,0.1-0.1c0.2-0.4,0.4-0.6,0.7-0.9
					c0.1-0.1,0.2-0.2,0.3-0.3c0.2-0.3,0.5-0.5,0.7-0.8c0.2-0.3,0.5-0.6,0.7-0.9c0,0,0,0,0.1-0.1c0,0,0.1-0.1,0.1-0.1
					c0.2-0.3,0.4-0.6,0.6-0.8c0.2-0.2,0.3-0.4,0.5-0.5c0,0,0,0,0,0c0.2-0.2,0.3-0.4,0.5-0.6c0.1-0.2,0.3-0.3,0.4-0.5
					c0.2-0.2,0.4-0.4,0.5-0.6c0.1-0.1,0.1-0.2,0.2-0.3c0.2-0.2,0.3-0.4,0.5-0.6c0.4-0.4,0.6-0.8,1.1-1.1c0.4-0.4,0.6-0.7,1-1.2
					c0.1-0.1,0.2-0.2,0.4-0.4c0.1-0.1,0.2-0.3,0.4-0.4c0,0,0,0,0,0c0.2-0.3,0.5-0.5,0.7-0.7c0.4-0.4,0.7-0.8,1.1-1.1
					c0.3-0.4,0.6-0.7,0.8-1.1c0.3-0.3,0.5-0.5,0.8-0.8c0,0,0,0,0,0c0,0,0,0,0.1-0.1c0.3-0.3,0.5-0.6,0.8-0.9
					c0.3-0.3,0.5-0.5,0.7-0.8c0.1-0.1,0.2-0.2,0.3-0.4c0.1-0.1,0.1-0.1,0.2-0.2c0.2-0.2,0.4-0.4,0.6-0.6c0.3-0.2,0.5-0.5,0.7-0.8
					c0.4-0.3,0.7-0.7,1-1c0.4-0.4,0.7-0.7,1-1.1c0.3-0.3,0.5-0.6,0.8-0.8c0,0,0-0.1,0.1-0.1c0.3-0.3,0.6-0.6,0.9-1c0,0,0,0,0.1-0.1
					c0.4-0.4,0.7-0.7,1-1c0.1-0.1,0.2-0.3,0.4-0.4c0.1-0.1,0.2-0.2,0.3-0.3c0.1-0.1,0.3-0.3,0.4-0.4c0.1-0.1,0.2-0.3,0.4-0.4
					c0.4-0.4,0.7-0.7,1.1-1.1c0.1-0.1,0.2-0.2,0.2-0.3c0.2-0.2,0.5-0.5,0.7-0.7c0.3-0.2,0.6-0.5,0.9-0.8c0.3-0.3,0.6-0.7,1-1
					c0,0,0,0,0,0c0.1-0.2,0.3-0.3,0.5-0.5c0.4-0.4,0.8-0.8,1.2-1.1c0,0,0,0,0,0c0.2-0.2,0.3-0.4,0.5-0.6c0.1-0.1,0.1-0.2,0.2-0.3
					c0.1-0.1,0.1-0.1,0.2-0.1c0.3-0.2,0.5-0.4,0.7-0.6c0.1-0.1,0.2-0.3,0.3-0.4c0,0,0,0,0,0c0.1-0.1,0.3-0.3,0.4-0.4
					c0.3-0.4,0.6-0.7,0.9-1c0,0,0,0,0,0c0.2-0.2,0.4-0.4,0.5-0.5c0.2-0.2,0.3-0.3,0.5-0.5c0.1,0,0.1-0.1,0.2-0.2
					c0.2-0.2,0.4-0.4,0.6-0.6c0.2-0.2,0.5-0.5,0.7-0.7c0,0,0,0,0,0v0c0.4-0.4,0.7-0.6,1.1-1.1c0.2-0.2,0.4-0.3,0.5-0.5
					c0.1-0.1,0.3-0.3,0.5-0.4c0,0,0.1-0.1,0.1-0.1c0.2-0.2,0.4-0.4,0.7-0.7c0.2-0.2,0.5-0.4,0.7-0.6c0,0,0.1-0.1,0.1-0.1
					c0.1-0.1,0.2-0.1,0.2-0.2c0.2-0.2,0.5-0.5,0.7-0.6c0.2-0.2,0.5-0.5,0.7-0.7c13.8-12.9,27.7-24.1,41.6-33.6
					c3.5-2.4,6.9-4.7,10.4-6.8c38-23.9,75.3-35.5,109.1-35.5c2.9,0,5.7,0.1,8.6,0.2c13,0.8,25.5,3.3,37.3,7.6c2.9,1,5.7,2.3,8.5,3.7
					c0.2,0.1,0.4,0.2,0.5,0.3c2.1,1.1,4.3,2.3,6.4,3.6c7.3,4.5,14.4,10.2,21.1,17c0,0,0.1,0.1,0.1,0.1
					c18.5,18.9,34.4,46.2,45.5,79.8c2,5.9,3.8,12,5.4,18.3c1.6,6.2,3.1,12.5,4.4,19C2346.1,936,2348.6,964.7,2347.7,995.3z"/>
				<path class="st2" d="M1181.8,298.2c-10.5-50.7-24.6-124-13.9-180.4C1061.8,167.5,905.5,258.5,785,451.6
					c-115.8,185.2-103.5,386.3-69.7,556.1C835,884.3,994.1,808.3,1296.7,700.3C1296.7,700.3,1198.3,377.6,1181.8,298.2z
					 M1088.5,596.4C1088.5,596.4,1088.5,596.4,1088.5,596.4c-179.1,82.3-292.6,180.9-368.1,258.3c-18.4-138.1-1.5-244.1,44.9-355.4
					c0,0.1,21.5-47.7,21.5-47.7c85-118.2,157.5-185.7,281.1-258c0,0,3.8-10.3,3.8-10.3c0,0,0,0,0,0c0,0,0,0,0,0
					c-25,70.2-24,156-13.5,241.3C1065.6,483.8,1077.5,542.8,1088.5,596.4C1088.5,596.4,1088.5,596.4,1088.5,596.4z"/>
				<path class="st2" d="M2008,154.8c-27.5-19.2-55.9-35.7-84.1-50.1c-2.4-1.2-4.7-2.4-7.1-3.5c-21.2-10.5-42.2-19.6-62.8-27.7
					c-2.3-0.9-4.6-1.8-6.8-2.6c-93.3-35.6-175.7-48-211.4-49.7c-4.4,0-13.9,0.7-22.3,5c-0.1,0-0.1,0-0.2,0.1
					c-0.1,0.1-0.2,0.1-0.3,0.2l-8.5,14.7c-49.5,97.3-107.8,372.1-153.1,604c-0.3,1.3,1,2.4,2.3,1.9c76-30.1,277-91.7,427.5-130.8
					c147.2-38.5,303.4-50.4,428.7-32.2c0,0,0.8,0.1,0.9,0.2C2229.8,341.4,2151.4,254.7,2008,154.8z M2205.3,367.8c0,0-0.1,0-0.1,0
					c-0.1,0-0.2-0.1-0.3-0.1c-1.7-0.6-3.5-1.1-5.3-1.6c-0.2-0.1-0.4-0.1-0.6-0.2c-1.9-0.6-3.8-1.1-5.8-1.6
					c-134.8-36.3-409,4.4-515.6,33.1l0.1-0.1c10.9-72.1,20.5-139.9,27.9-197c9.5-73.7,15.4-129.5,15.3-153.5c0,0,0,0,0,0v0
					c0,0,0,0,0.1,0c1.8,0.4,3.5,0.8,5.4,1.2c0.4,0.1,0.9,0.2,1.3,0.3c1.2,0.3,2.5,0.6,3.7,0.9c1.3,0.3,2.6,0.6,3.9,1
					c1.5,0.4,2.9,0.7,4.4,1.1c1.1,0.3,2.2,0.6,3.3,0.9c1.2,0.3,2.4,0.6,3.6,1c-10.8-2.6-8.3,4.5,0.1,7.2
					c157.9,43.5,356,180.2,446.5,303.7l12,3.8C2205.2,367.8,2205.3,367.8,2205.3,367.8C2205.3,367.8,2205.3,367.8,2205.3,367.8
					C2205.3,367.8,2205.3,367.8,2205.3,367.8z"/>
				<path class="st2" d="M1681,1604.9c-5.1,0.3-10.2,0.4-15.4,0.4c-34.1,0-70.6-4.1-109.1-11.2l0,0
					c-100-18.6-212.9-58.7-326.3-110.1c-4.3-1.9-1.9-4.3-0.5-6.9c3.4-6.5-0.4-9.5-0.3-10.4l-0.7,0.8l-15.8,18.7
					c0,0,95.7-236.9,185.3-447l0,0l-175.2-95.1c-66.6,147.5-110.6,272.4-149.1,460.7c-3.6-2.5-7.1-5-10.5-7.5
					c-4.5-3.2-9-6.4-13.3-9.6c-2.6-1.9-5.2-3.8-7.8-5.7c-133.6-97.9-211.5-177.1-277.7-273.7c0.1,0.9,0.2,1.7,0.3,2.7
					c0.6,9.8,9.2,72.1,12.4,91.1c1.3,8.4,2.6,10.4,7.9,17.6c77.9,109.5,178.2,194,277.8,257.5c-2.5,53.6,2.1,82.3,8.2,100.2
					c0.6,1.7,1.6,3.2,2.9,4.5l7.9,7.4c6.5,3.9,58.5,33.1,82.1,42.1c0.3,0.1,0.7,0.3,1,0.4c0.1,0,0.2,0.1,0.2,0.1h0
					c2.1,0.7,3.3,0.8,4.1,0.8c0.3,0,0.6,0,0.9-0.1c0.1,0,0.2,0,0.4-0.1c0.3-0.1,0.6-0.1,0.8-0.2c0.2-0.1,0.3-0.1,0.5-0.2
					c0.1,0,0.2-0.1,0.2-0.1c1.7-1,3-3,3.6-6.9c5.9-27.2,19.6-75.7,19.6-75.7l13.7,5.8c126.1,55.7,247.2,89,381.4,99.8
					c3.5,0.3,6.9,0,10.3-0.8l2.8-0.7c3.9-0.9,7.6-2.5,11-4.6c12.6-7.9,45.1-28.5,60.7-39.7c0,0,0,0,0,0c0.9-0.6,2-1.4,3-2.2
					c0.1-0.1,0.2-0.1,0.2-0.2c-0.7,0.5-1.5,1.1-2.3,1.7c-0.1,0,2.2-0.4,3.7-1.4C1680.7,1606.6,1680.6,1605,1681,1604.9z"/>
			</g>
			<g>
				<path class="st1" d="M1717.7,203.2c-0.9,8.1-1.9,16.4-2.9,25c0,0.1,0,0.2,0,0.4c0,0.1-0.1,0.4-0.1,0.6c0,0.1-0.1,0.4-0.1,0.6
					c0,0,0,0.1,0,0.1c0,0,0,0.1,0,0.2c0,0.1,0,0.1,0,0.2c0,0,0,0.1,0,0.1c0,0.1,0,0.1,0,0.2c0,0.1,0,0.2,0,0.2c0,0.1,0,0.2,0,0.2
					v0.1c-0.1,0.1-0.1,0.4-0.1,0.6c-0.1,0.1-0.1,0.4-0.1,0.6c-0.1,0.2-0.1,0.4-0.1,0.6v0.1c-0.1,0.1-0.1,0.4-0.1,0.6
					c-0.1,0.2-0.1,0.5-0.1,0.7c-0.1,0.1-0.1,0.4-0.1,0.6c-0.1,0.2-0.1,0.4-0.1,0.6c-0.1,0.1-0.1,0.4-0.1,0.5c0,0,0,0,0,0.1
					c-0.1,0.2-0.1,0.4-0.1,0.6c-0.1,0.1-0.1,0.4-0.1,0.6c0,0.1,0,0.1,0,0.1c-0.1,0.2-0.1,0.4-0.1,0.6c0,0.2,0,0.4-0.1,0.6
					c0,0.1,0,0.4-0.1,0.6c0,0.1,0,0.4-0.1,0.5c0,0.1,0,0.1,0,0.1c0,0.1,0,0.4-0.1,0.6c0,0.2,0,0.3-0.1,0.5c-0.1,1-0.3,2.1-0.4,3.1
					c0,0,0,0,0,0c0,0,0,0,0,0c0,0.1,0,0.3-0.1,0.4c0,0,0,0.1,0,0.1c0,0.2-0.1,0.4-0.1,0.6c0,0.2-0.1,0.4-0.1,0.6
					c0,0.2-0.1,0.4-0.1,0.8c-0.1,0.1-0.1,0.4-0.1,0.5v0.1c-0.1,0.1-0.1,0.4-0.1,0.6c-0.1,0.2-0.1,0.4-0.1,0.6
					c-0.1,0.2-0.1,0.4-0.1,0.6c-0.1,0.2-0.1,0.4-0.1,0.6c-0.1,0.2-0.1,0.4-0.1,0.6c0,0.2,0,0.4-0.1,0.6v0.1c0,0.2,0,0.4-0.1,0.6
					c0,0.1,0,0.3-0.1,0.5c0,0.2,0,0.4-0.1,0.7c0,0.1-0.1,0.4-0.1,0.6c0,0.2-0.1,0.4-0.1,0.6c0,0.2-0.1,0.4-0.1,0.6
					c0,0.1-0.1,0.4-0.1,0.5c0,0.2-0.1,0.4-0.1,0.6c0,0,0,0,0,0.1c-0.1,0.1-0.1,0.4-0.1,0.5c-0.1,0.3-0.1,0.5-0.1,0.7
					c-0.1,0.2-0.1,0.4-0.1,0.6c0,0.1,0,0.3,0,0.5c-0.1,0.1-0.1,0.4-0.1,0.6l-0.1,0.1c0,0.2,0,0.4-0.1,0.6c0,0.2,0,0.4-0.1,0.6
					c0,0.2,0,0.4-0.1,0.6c0,0.2-0.1,0.4-0.1,0.6c0,0.2-0.1,0.4-0.1,0.6v0.1c0,0.3-0.1,0.5-0.1,0.6c-0.1,0.2-0.1,0.4-0.1,0.6
					c-0.1,0.1-0.1,0.4-0.1,0.5c0,0.1,0,0.1,0,0.1c-0.1,0.1-0.1,0.4-0.1,0.6c0,0,0,0-0.1,0c0,0,0,0.1,0,0.1c0,0.2,0,0.3,0,0.5
					c0,0.2,0,0.4-0.1,0.6c0,0.2,0,0.4-0.1,0.6c0,0.2-0.1,0.4-0.1,0.6c0,0.2-0.1,0.4-0.1,0.6c0,0.1-0.1,0.4-0.1,0.5
					c0,0.3-0.1,0.4-0.1,0.6c0,0,0,0,0,0.1c-5.4,39.8-12.1,81.9-20.1,119.5l0.1-0.1c57.8-17.1,145.3-31,226.9-38.6
					c29.7-2.8,58.6-4.7,85-5.6c-78.8-73.3-175.1-128.1-282-157.4c0,0.2,0,0.4-0.1,0.6C1719,191.6,1718.4,197.3,1717.7,203.2z"/>
				<path class="st1" d="M1545.2,161.4C1545.2,161.4,1545.2,161.4,1545.2,161.4c0.2,0,0.5,0,0.7,0
					C1545.7,161.4,1545.4,161.4,1545.2,161.4z"/>
				<path class="st1" d="M2217.9,839.3c0-19.8-0.9-39.5-2.5-58.9c-6.5-3.8-13.2-6.5-20.1-8.1c-3.6-0.7-7.5-1.1-11.7-1.1
					c-58.2,0-169,72.4-242.4,218.1c-84.6,167.3-105.2,337.3-32,417.3c0.3,0.3,0.6,0.5,1,0.8
					C2095.4,1286.3,2217.9,1077.1,2217.9,839.3z"/>
				<path class="st1" d="M871.5,952.4C871.5,952.4,871.5,952.4,871.5,952.4c-0.1-0.6-0.2-1.2-0.3-1.8
					C871.3,951.2,871.4,951.8,871.5,952.4z"/>
				<polygon class="st1" points="1910.1,1407.3 1910.1,1407.3 1910.1,1407.3 				"/>
				<path class="st1" d="M1741.1,1486.8C1741.1,1486.8,1741.1,1486.8,1741.1,1486.8C1741.1,1486.8,1741.1,1486.8,1741.1,1486.8
					C1741.1,1486.8,1741.1,1486.8,1741.1,1486.8z"/>
				<path class="st1" d="M2215.3,780.4C2215.3,780.4,2215.3,780.4,2215.3,780.4C2215.3,780.4,2215.3,780.4,2215.3,780.4
					L2215.3,780.4z"/>
				<path class="st1" d="M1786.4,1471c-0.6,0.2-1.2,0.4-1.7,0.7C1785.3,1471.4,1785.8,1471.2,1786.4,1471z"/>
			</g>
			<g>
				<path class="st1" d="M2164.7,575.7C2164.7,575.7,2164.7,575.7,2164.7,575.7c0.2,0.4,0.4,0.9,0.5,1.3
					C2165,576.5,2164.9,576.1,2164.7,575.7z"/>
				<path class="st1" d="M2140.9,525.3c-202.7,17.8-432.5,78.3-727.3,183.2c41.4-206.2,85.9-411.8,131.5-547.1c-1.7,0-3.4,0-5.2,0
					c-114.7,0-222.7,28.5-317.4,78.8c10.2,75.1,33.8,179.1,67.7,293.5l60,198.2h0c-139.2,55.6-340.9,135.5-478.7,220.5
					c25.5,152,101.7,286.9,210.5,386.7c4.2-18.1,8.7-36.6,13.4-55.6c26-106.1,60.4-225.4,115.2-361.2c0.9-2.2,1.7-4.3,2.6-6.5
					c1.2-2.9,3-5.5,5.2-7.6l8.8-8.1c1.9-1.8,4.4-2.9,7-3.2l8.5-1c0.5-0.1,1-0.1,1.4-0.1c2.1,0,4.2,0.5,6,1.6l0.1,0c0,0,0,0,0,0
					c8.3,4.6,30.2,16.8,56.1,31.2c0.2,0.1,0.5,0.3,0.7,0.4c6.9,3.8,14,7.8,21.3,11.8c1,0.6,2.1,1.1,3.1,1.7
					c25.8,14.3,52.6,29.2,72.5,40.3c0.2,0.1,0.3,0.2,0.5,0.3c1.9,1.1,3.8,2.1,5.6,3.1c0.1,0,0.1,0.1,0.2,0.1
					c4.3,2.4,8.1,4.5,11.5,6.4c1.1,0.6,2.2,1.2,3.2,1.8c0.4,0.2,0.8,0.4,1.2,0.6c0.3,0.1,0.5,0.3,0.8,0.4c0.3,0.2,0.7,0.4,1,0.6
					c0.3,0.2,0.5,0.3,0.8,0.4c0.2,0.1,0.5,0.3,0.7,0.4c0.4,0.2,0.8,0.4,1.1,0.6c0.1,0.1,0.2,0.1,0.3,0.2c0.3,0.2,0.6,0.4,0.9,0.5
					c0.2,0.1,0.3,0.2,0.5,0.3c0.3,0.1,0.5,0.3,0.7,0.4c0.1,0.1,0.3,0.1,0.4,0.2c0.3,0.2,0.6,0.3,0.9,0.5c0,0,0,0,0,0
					c0.6,0.3,1,0.5,1.2,0.6c7.8,3.3,4.6,7.9,3.9,11.2l-2.7,6.4l-5,11.7l0,0l-0.1,0l0,0l0.1,0c-0.9,1.8-1.8,3.8-2.8,5.9
					c0,0,0,0.1,0,0.1c0,0,0,0,0,0c-16.4,35-50.7,117.1-92.8,215.5c-0.1,0.1-0.1,0.3-0.2,0.4c-1,2.3-2,4.7-3,7
					c-0.2,0.5-0.4,1-0.6,1.5c-0.9,2-1.7,4-2.6,6c-0.3,0.7-0.6,1.4-0.9,2.1c-0.8,1.8-1.6,3.6-2.3,5.5c-0.4,0.9-0.8,1.9-1.2,2.8
					c-0.7,1.6-1.4,3.2-2,4.7c-0.5,1.1-1,2.2-1.4,3.3c-0.6,1.4-1.2,2.9-1.9,4.3c-0.5,1.3-1.1,2.5-1.6,3.8c-0.6,1.3-1.1,2.6-1.7,3.9
					c-0.6,1.4-1.2,2.7-1.8,4.1c-0.5,1.2-1,2.4-1.6,3.6c-0.6,1.5-1.3,2.9-1.9,4.4c-0.5,1.1-1,2.3-1.5,3.4c-0.6,1.5-1.3,2.9-1.9,4.4
					c-0.5,1.2-1.1,2.4-1.6,3.7c-0.6,1.4-1.2,2.8-1.8,4.2c-0.5,1.2-1.1,2.4-1.6,3.7c-0.6,1.5-1.3,3-1.9,4.5c-0.5,1.1-1,2.3-1.5,3.4
					c-0.7,1.5-1.3,3-2,4.5c-0.5,1.2-1,2.4-1.6,3.6c-0.6,1.5-1.3,3-1.9,4.4c-0.5,1.2-1,2.3-1.5,3.5c-0.7,1.6-1.4,3.2-2.1,4.7
					c-0.5,1-0.9,2.1-1.4,3.1c-0.7,1.7-1.5,3.4-2.2,5.1c-0.4,1-0.8,1.9-1.3,2.9c-0.8,1.7-1.5,3.5-2.3,5.2c-0.4,0.9-0.8,1.8-1.2,2.7
					c-0.8,1.8-1.6,3.6-2.4,5.4c-0.4,0.9-0.8,1.8-1.2,2.7c-0.8,1.8-1.6,3.6-2.4,5.3c-0.4,0.9-0.8,1.8-1.2,2.6
					c-0.8,1.9-1.6,3.7-2.5,5.6c-0.3,0.7-0.6,1.4-0.9,2c-0.9,2-1.8,4.1-2.7,6.1c-0.2,0.5-0.4,1-0.7,1.5c-1,2.2-2,4.4-2.9,6.6
					c-0.1,0.2-0.2,0.4-0.3,0.6c-3.5,7.8-7,15.6-10.5,23.5c64.2,30.4,122,53.5,176,71.1c35.7,5.8,72.3,8.8,109.6,8.8
					c70,0,137.6-10.6,201.1-30.3c-1.6-1.4-3.2-2.8-4.8-4.3c-47.1-46.8-74.6-103.6-88.3-164c0,0.1,0,0.2,0,0.3
					c-3.8-16.4-6.5-33-8.3-49.9c-0.1-0.6-0.1-1.2-0.2-1.8c-0.2-1.6-0.3-3.2-0.5-4.9c-5.4-56.8-0.7-115,9.5-169.5
					c0.6-3.1,1.2-6.3,1.8-9.4c0,0,0-0.1,0-0.1c16.2-81,44.3-153.1,69.1-199.9c0.2-0.4,0.5-0.9,0.7-1.3c0.4-0.7,0.8-1.5,1.2-2.2
					c0.6-1.1,1.2-2.1,1.7-3.2c0.3-0.5,0.5-0.9,0.8-1.4c0.4-0.6,0.7-1.3,1.1-1.9c0.6-1.1,1.2-2.1,1.8-3.1c1.2-2.3,2.4-4.6,3.6-6.9
					c0.8-1.6,1.6-3.1,2.4-4.7c1.1-2.1,2.2-4.1,3.3-6.1c0.9-1.8,1.9-3.5,2.8-5.3c1.1-1.9,2.1-3.8,3.2-5.7c1-1.8,2-3.6,3-5.4
					c1-1.8,2.1-3.6,3.2-5.5c1.1-1.8,2.1-3.7,3.2-5.5c1.1-1.8,2.1-3.6,3.2-5.3c1.1-1.8,2.1-3.6,3.2-5.3c1.1-1.8,2.2-3.5,3.2-5.2
					c1.1-1.7,2.2-3.5,3.2-5.2c1.1-1.7,2.2-3.4,3.3-5.1c1.1-1.7,2.2-3.4,3.3-5.1c1.1-1.7,2.2-3.3,3.3-5c1.1-1.7,2.2-3.4,3.3-5
					c1.1-1.6,2.2-3.2,3.3-4.9c1.1-1.6,2.2-3.3,3.4-4.9c1.1-1.6,2.2-3.1,3.4-4.7c1.1-1.6,2.3-3.2,3.4-4.8c1.1-1.6,2.3-3.1,3.4-4.6
					c1.1-1.6,2.3-3.1,3.4-4.7c1.1-1.5,2.3-3,3.4-4.5c1.2-1.5,2.3-3.1,3.5-4.6c1.1-1.5,2.3-2.9,3.4-4.3c1.2-1.5,2.3-3,3.5-4.4
					c1.2-1.4,2.3-2.8,3.5-4.2c1.2-1.4,2.4-2.9,3.6-4.3c1.2-1.4,2.3-2.7,3.5-4.1c1.2-1.4,2.4-2.8,3.6-4.2c1.2-1.4,2.3-2.7,3.5-4
					c1.2-1.4,2.4-2.8,3.6-4.1c1.2-1.3,2.4-2.6,3.5-3.9c1.2-1.3,2.4-2.7,3.6-4c1.2-1.3,2.4-2.5,3.6-3.8c1.2-1.3,2.4-2.6,3.7-3.9
					c1.2-1.2,2.4-2.4,3.6-3.7c1.2-1.3,2.5-2.5,3.7-3.8c1.2-1.2,2.4-2.4,3.6-3.6c1.2-1.2,2.5-2.4,3.7-3.6c1.2-1.2,2.4-2.3,3.6-3.4
					c1.2-1.2,2.5-2.4,3.7-3.5c1.2-1.1,2.4-2.2,3.6-3.3c1.3-1.2,2.5-2.3,3.8-3.4c1.2-1.1,2.4-2.1,3.6-3.2c1.3-1.1,2.5-2.2,3.8-3.3
					c1.2-1,2.4-2.1,3.6-3.1c1.3-1.1,2.5-2.2,3.8-3.2c1.2-1,2.4-2,3.6-3c1.3-1,2.5-2.1,3.8-3.1c1.2-1,2.4-1.9,3.7-2.9
					c1.3-1,2.5-2,3.8-3c1.2-0.9,2.4-1.8,3.7-2.8c1.3-1,2.6-1.9,3.8-2.9c1.2-0.9,2.4-1.8,3.7-2.7c1.3-0.9,2.6-1.9,3.8-2.8
					c1.2-0.9,2.4-1.7,3.7-2.5c1.3-0.9,2.6-1.8,3.9-2.6c1.2-0.8,2.4-1.6,3.7-2.4c1.3-0.9,2.6-1.7,3.9-2.5c1.2-0.8,2.5-1.6,3.7-2.3
					c1.3-0.8,2.6-1.6,3.9-2.4c1.2-0.8,2.5-1.5,3.7-2.2c1.3-0.8,2.6-1.6,3.9-2.3c1.2-0.7,2.5-1.4,3.7-2.1c1.3-0.7,2.6-1.5,3.9-2.2
					c1.2-0.7,2.5-1.3,3.7-2c1.3-0.7,2.6-1.4,3.9-2.1c1.2-0.6,2.4-1.3,3.7-1.9c1.3-0.7,2.6-1.3,3.9-2c1.2-0.6,2.4-1.2,3.7-1.8
					c1.3-0.6,2.6-1.3,3.9-1.9c1.2-0.6,2.4-1.1,3.7-1.7c1.3-0.6,2.6-1.2,3.9-1.8c1.2-0.5,2.4-1.1,3.7-1.6c1.3-0.6,2.6-1.1,3.8-1.6
					c1.2-0.5,2.4-1,3.6-1.5c1.3-0.5,2.6-1,3.8-1.5c1.2-0.5,2.4-0.9,3.6-1.4c1.3-0.5,2.6-1,3.8-1.4c1.2-0.4,2.4-0.9,3.6-1.3
					c1.3-0.4,2.6-0.9,3.8-1.3c1.2-0.4,2.4-0.8,3.6-1.2c1.3-0.4,2.5-0.8,3.8-1.2c1.2-0.4,2.4-0.7,3.6-1.1c1.3-0.4,2.5-0.7,3.8-1.1
					c1.2-0.3,2.4-0.7,3.6-1c1.3-0.3,2.5-0.7,3.8-1c1.2-0.3,2.4-0.6,3.6-0.9c1.3-0.3,2.5-0.6,3.8-0.9c1.2-0.3,2.4-0.5,3.6-0.8
					c1.2-0.3,2.5-0.5,3.7-0.8c1.2-0.2,2.4-0.5,3.5-0.7c1.2-0.2,2.5-0.5,3.7-0.7c1.2-0.2,2.3-0.4,3.5-0.6c1.2-0.2,2.5-0.4,3.7-0.6
					c1.2-0.2,2.3-0.3,3.5-0.5c1.2-0.2,2.4-0.3,3.7-0.5c1.2-0.1,2.3-0.3,3.5-0.4c1.2-0.1,2.4-0.2,3.6-0.4c1.1-0.1,2.3-0.2,3.4-0.3
					c1.2-0.1,2.4-0.2,3.6-0.2c1.1-0.1,2.3-0.1,3.4-0.2c1.2-0.1,2.4-0.1,3.6-0.1c1.1,0,2.3-0.1,3.4-0.1c1.2,0,2.4,0,3.5,0
					c0.1,0,0.2,0,0.3,0c1,0,2,0,3,0c1.2,0,2.3,0,3.5,0.1c1.1,0,2.2,0.1,3.3,0.1c1.2,0,2.3,0.1,3.5,0.2c1.1,0.1,2.2,0.1,3.3,0.2
					c1.1,0.1,2.3,0.2,3.4,0.3c1.1,0.1,2.2,0.2,3.3,0.3c1.1,0.1,2.3,0.2,3.4,0.4c1.1,0.1,2.2,0.3,3.2,0.4c1.1,0.2,2.2,0.3,3.4,0.5
					c1.1,0.2,2.1,0.3,3.2,0.5c1.1,0.2,2.2,0.4,3.3,0.6c1.1,0.2,2.1,0.4,3.1,0.6c1.1,0.2,2.2,0.5,3.3,0.7c1,0.2,2.1,0.5,3.1,0.7
					c1.1,0.3,2.2,0.5,3.2,0.8c1,0.3,2,0.5,3.1,0.8c1,0.3,2.1,0.6,3.1,0.9C2157.4,558.5,2149.5,541.7,2140.9,525.3z"/>
			</g>
			<polygon class="st1" points="2192.7,363.2 2194.6,365.7 2206.2,369 2206.2,366.3 			"/>
		</g>
		<g>
			<path class="st1" d="M0,1875h102.6c56.7,0,78.7,36,78.7,72.9c0,37-22,73-78.7,73H50.1v81.5H0V1875 M50.1,1981.9h38.8
				c23.2,0,43.9-4.9,43.9-34c0-28.8-20.7-34-43.9-34H50.1V1981.9z"/>
			<rect x="206.6" y="1875" class="st1" width="45.2" height="227.4"/>
			<path class="st1" d="M285,1988.4c2.7-42.3,40.6-55.1,77.5-55.1c32.6,0,72.2,7.3,72.2,46.9v85.7c0,15.1,1.6,29.8,5.8,36.6h-45.8
				l-3.2-15.9c-14.4,14.9-35.4,20.4-55.4,20.4c-31.3,0-56.2-15.5-56.2-49.4c0-37.2,28.3-46.1,56.2-50.1c27.8-4.2,53.5-3.2,53.5-21.5
				c0-19.5-13.2-22.4-29.2-22.4c-17.4,0-28.4,7-29.9,24.8L285,1988.4 M389.5,2021.9c-7.6,6.6-23.5,6.9-37.7,9.5
				c-13.7,2.9-26.5,7.7-26.5,24.3c0,16.9,13.1,20.9,27.8,20.9c35.2,0,36.4-28,36.4-37.7V2021.9z"/>
			<path class="st1" d="M549,2123c-10,26.7-25.7,37.4-56.8,37.4c-9.3,0-18.6-0.7-27.6-1.7v-37c8.5,0.4,17.4,1.9,26.3,1.3
				c15.6-1.3,20.7-17.7,15.6-30.7l-58-154.4h48.4l37.3,112.8h0.6l36-112.8h46.7L549,2123"/>
			<path class="st1" d="M673.9,2027c0,30.3,23.6,42,50.6,42c17.5,0,44.1-5,44.1-28.3c0-24.7-34-28.7-67.4-37.7
				c-33.9-8.9-67.9-21.8-67.9-64.6c0-46.5,43.9-68.6,85-68.6c47.3,0,91.1,20.5,91.1,73H761c-1.7-27.4-21-34.4-44.9-34.4
				c-15.8,0-34.3,6.9-34.3,26c0,17.4,10.6,19.5,67.7,34.3c16.4,4,67.4,14.6,67.4,66.3c0,41.6-32.7,72.8-94.6,72.8
				c-50.2,0-97.4-24.7-96.8-80.8L673.9,2027"/>
			<path class="st1" d="M904.1,1937.9h33.1v30.1h-33.1v81.7c0,15.2,3.7,19.1,19.1,19.1l14-1.4v35.6c-7.7,1.2-17.4,1.4-26.3,1.4
				c-27.9,0-51.9-6.3-51.9-39.2V1968h-27.3v-30.1h27.3v-49.4h45.2L904.1,1937.9"/>
			<path class="st1" d="M965.3,1988.4c2.4-42.3,40.4-55.1,77.3-55.1c32.9,0,72.2,7.3,72.2,46.9v85.7c0,15.1,1.7,29.8,5.7,36.6h-45.8
				l-3.2-15.9c-14.2,14.9-35.2,20.4-55.3,20.4c-31.1,0-56-15.5-56-49.4c0-37.2,27.9-46.1,56-50.1c27.6-4.2,53.6-3.2,53.6-21.5
				c0-19.5-13.6-22.4-29.4-22.4c-17.2,0-28.3,7-30.1,24.8L965.3,1988.4 M1069.8,2021.9c-7.8,6.6-23.7,6.9-37.8,9.5
				c-13.8,2.9-26.6,7.7-26.6,24.3c0,16.9,13.1,20.9,27.7,20.9c35.3,0,36.7-28,36.7-37.7L1069.8,2021.9L1069.8,2021.9z"/>
			<path class="st1" d="M1207.1,1937.9h33.1v30.1h-33.1v81.7c0,15.2,3.9,19.1,19,19.1l14.1-1.4v35.6c-7.6,1.2-17.4,1.4-26.3,1.4
				c-27.6,0-51.9-6.3-51.9-39.2V1968h-27.4v-30.1h27.4v-49.4h45.2L1207.1,1937.9"/>
			<path class="st1" d="M1315.3,1912.3h-45.1V1875h45.1V1912.3z M1270.2,1937.9h45.1v164.6h-45.1L1270.2,1937.9L1270.2,1937.9z"/>
			<path class="st1" d="M1427.9,1933.3c51.6,0,85.2,34.6,85.2,87.1c0,52.2-33.6,86.5-85.2,86.5c-51.7,0-85.2-34.3-85.2-86.5
				C1342.7,1967.8,1376.2,1933.3,1427.9,1933.3 M1427.9,2072.9c30.8,0,40-26.5,40-52.5c0-26.5-9.3-52.9-40-52.9
				c-30.7,0-40,26.4-40,52.9C1387.9,2046.3,1397.2,2072.9,1427.9,2072.9z"/>
			<path class="st1" d="M1539.9,1937.9h42.8v22.8h1.1c11.4-18.4,31.2-27.4,50.4-27.4c48.1,0,60.1,27.1,60.1,67.9v101.3h-45.2v-93
				c0-27.1-8.1-40.6-29.1-40.6c-24.4,0-34.9,13.9-34.9,47.2v86.4h-45.2L1539.9,1937.9"/>
			<polyline class="st1" points="1807.3,1875 1857,1875 1952,2027.5 1952.5,2027.5 1952.5,1875 1999.4,1875 1999.4,2102.4 
				1949.4,2102.4 1854.7,1950.3 1854.2,1950.3 1854.2,2102.4 1807.3,2102.4 1807.3,1875 			"/>
			<path class="st1" d="M2071.1,2031.1c1.2,28.6,15.2,41.8,40.5,41.8c18.2,0,32.9-11.2,35.6-21.4h40c-12.8,38.9-40,55.4-77.1,55.4
				c-52,0-84.2-35.7-84.2-86.5c0-49.5,33.9-87.1,84.2-87.1c56,0,83.1,47.4,79.9,97.9H2071.1 M2144.8,2002.4c-4.4-23-14.1-35-36.2-35
				c-28.6,0-36.7,22.4-37.5,35H2144.8z"/>
			<path class="st1" d="M2274.8,1937.9h33.3v30.1h-33.3v81.7c0,15.2,4,19.1,19.4,19.1l13.9-1.4v35.6c-7.7,1.2-17.6,1.4-26.5,1.4
				c-27.8,0-51.9-6.3-51.9-39.2V1968h-27.2v-30.1h27.2v-49.4h45.1V1937.9"/>
			<polyline class="st1" points="2529.5,2102.4 2482.9,2102.4 2453.6,1992 2452.9,1992 2424.9,2102.4 2378.2,2102.4 2325.9,1937.9 
				2373.7,1937.9 2404,2049.6 2404.7,2049.6 2432.1,1937.9 2475.9,1937.9 2503.8,2049.2 2504.6,2049.2 2534.8,1937.9 2581.4,1937.9 
				2529.5,2102.4 			"/>
			<path class="st1" d="M2672.5,1933.3c51.9,0,85.4,34.6,85.4,87.1c0,52.2-33.5,86.5-85.4,86.5c-51.4,0-84.9-34.3-84.9-86.5
				C2587.6,1967.8,2621.2,1933.3,2672.5,1933.3 M2672.5,2072.9c30.9,0,40.3-26.5,40.3-52.5c0-26.5-9.3-52.9-40.3-52.9
				c-30.6,0-39.7,26.4-39.7,52.9C2632.8,2046.3,2641.9,2072.9,2672.5,2072.9z"/>
			<path class="st1" d="M2782.9,1937.9h43v30.6h0.7c8.3-20.8,30.6-35.2,52.6-35.2l9.8,1.7v42l-16.1-1.6c-33.2,0-44.8,23.7-44.8,52.7
				v74.3h-45.2V1937.9"/>
			<polyline class="st1" points="2911.3,1875 2956.5,1875 2956.5,1997 3013.5,1937.9 3067,1937.9 3004.9,1998.3 3073.9,2102.4 
				3019.2,2102.4 2974,2028.8 2956.5,2045.6 2956.5,2102.4 2911.3,2102.4 2911.3,1875 			"/>
		</g>
	</g>
</g>
</svg>
