<?xml version="1.0" encoding="UTF-8" standalone="no"?>
<!DOCTYPE svg PUBLIC "-//W3C//DTD SVG 1.1//EN" "http://www.w3.org/Graphics/SVG/1.1/DTD/svg11.dtd">
<svg width="1131px" height="163px" version="1.1" xmlns="http://www.w3.org/2000/svg" xmlns:xlink="http://www.w3.org/1999/xlink" xml:space="preserve" style="fill-rule:evenodd;clip-rule:evenodd;stroke-linejoin:round;stroke-miterlimit:1.41421;">
    <g>
        <path d="M22.655,122.448l5.664,0l0,5.664l-5.664,0l0,-5.664Zm11.328,0l5.664,0l0,5.664l-5.664,0l0,-5.664Zm16.992,0l0,5.664l-5.664,0l0,-5.664l5.664,0Zm-22.656,-5.664l5.664,0l0,5.664l-5.664,0l0,-5.664Zm11.328,0l5.664,0l0,5.664l-5.664,0l0,-5.664Zm-5.664,-5.664l5.664,0l0,5.664l-5.664,0l0,-5.664Zm0,-56.638l5.664,0l0,5.664l-5.664,0l0,-5.664Zm-5.664,-5.664l5.664,0l0,5.664l-5.664,0l0,-5.664Zm11.328,0l5.664,0l0,5.664l-5.664,0l0,-5.664Z" style="fill:#fbeb00;"/>
        <path d="M16.992,122.448l5.663,0l0,5.664l-5.663,0l0,-5.664Zm11.327,0l5.664,0l0,5.664l-5.664,0l0,-5.664Zm11.328,0l5.664,0l0,5.664l-5.664,0l0,-5.664Zm11.328,0l5.664,0l0,5.664l-5.664,0l0,-5.664Zm-16.992,-5.664l5.664,0l0,5.664l-5.664,0l0,-5.664Zm11.328,0l5.664,0l0,5.664l-5.664,0l0,-5.664Zm-22.656,0l5.664,0l0,5.664l-5.664,0l0,-5.664Zm16.992,-5.664l5.664,0l0,5.664l-5.664,0l0,-5.664Zm-11.328,0l5.664,0l0,5.664l-5.664,0l0,-5.664Zm5.664,-5.663l5.664,0l0,5.663l-5.664,0l0,-5.663Zm0,-11.328l5.664,0l0,5.664l-5.664,0l0,-5.664Zm0,-22.656l5.664,0l0,5.664l-5.664,0l0,-5.664Zm0,-11.327l5.664,0l0,5.664l-5.664,0l0,-5.664Zm-5.664,-5.664l5.664,0l0,5.664l-5.664,0l0,-5.664Zm11.328,0l5.664,0l0,5.664l-5.664,0l0,-5.664Zm5.664,-5.664l5.664,0l0,5.664l-5.664,0l0,-5.664Zm-11.328,0l5.664,0l0,5.664l-5.664,0l0,-5.664Zm-5.664,0l0,5.664l-5.664,0l0,-5.664l5.664,0Z" style="fill:#baad00;"/>
        <path d="M39.647,77.137l0,11.328l5.664,0l0,5.664l5.664,0l0,5.664l5.664,0l0,5.664l5.663,0l0,22.655l-5.663,0l0,-5.664l-5.664,0l0,-5.664l-5.664,0l0,-5.664l-5.664,0l0,-5.663l-5.664,0l0,5.663l-5.664,0l0,5.664l-5.664,0l0,5.664l-5.663,0l0,5.664l-5.664,0l0,-22.655l5.664,0l0,-5.664l5.663,0l0,-5.664l5.664,0l0,-5.664l5.664,0l0,-11.328l5.664,0Zm0,16.992l-5.664,0l0,5.664l5.664,0l0,-5.664Zm22.655,-56.639l0,22.656l-5.663,0l0,5.664l-5.664,0l0,5.663l-5.664,0l0,5.664l-5.664,0l0,-5.664l-5.664,0l0,5.664l-5.664,0l0,-5.664l-5.664,0l0,-5.663l-5.663,0l0,-5.664l-5.664,0l0,-22.656l50.974,0Zm-39.647,16.992l5.664,0l0,5.664l5.664,0l0,5.664l5.664,0l0,-5.664l5.664,0l0,-5.664l5.664,0l0,-5.664l-28.32,0l0,5.664Z" style="fill:#8ea9dc;"/>
        <path d="M0,20.499l73.63,0l0,16.991l-5.664,0l0,28.32l-5.664,0l0,5.663l-5.663,0l0,5.664l-5.664,0l0,11.328l5.664,0l0,5.664l5.663,0l0,5.664l5.664,0l0,28.319l5.664,0l0,16.992l-73.63,0l0,-16.992l5.664,0l0,-28.319l5.664,0l0,-5.664l5.664,0l0,-5.664l5.663,0l0,-11.328l-5.663,0l0,-5.664l-5.664,0l0,-5.663l-5.664,0l0,-28.32l-5.664,0l0,-16.991Zm62.302,118.941l0,-5.664l-50.974,0l0,5.664l50.974,0Zm-22.655,-62.303l5.664,0l0,-5.664l5.664,0l0,-5.663l5.664,0l0,-5.664l5.663,0l0,-22.656l-50.974,0l0,22.656l5.664,0l0,5.664l5.663,0l0,5.663l5.664,0l0,5.664l5.664,0l0,11.328l-5.664,0l0,5.664l-5.664,0l0,5.664l-5.663,0l0,5.664l-5.664,0l0,22.655l50.974,0l0,-22.655l-5.663,0l0,-5.664l-5.664,0l0,-5.664l-5.664,0l0,-5.664l-5.664,0l0,-11.328Zm22.655,-45.311l0,-5.663l-50.974,0l0,5.663l50.974,0Z"/>
        <rect x="11.328" y="26.163" width="11.328" height="5.664" style="fill:#575758;"/>
        <rect x="11.328" y="133.776" width="11.328" height="5.664" style="fill:#575758;"/>
        <rect x="22.655" y="26.163" width="11.328" height="5.664" style="fill:#707173;"/>
        <path d="M22.655,133.776l5.664,0l0,0.013l5.664,0l0,5.664l-5.664,0l0,-0.013l-5.664,0l0,-5.664Z" style="fill:#707173;"/>
        <rect x="33.983" y="26.163" width="28.319" height="5.664" style="fill:#575758;"/>
        <rect x="33.983" y="133.776" width="28.319" height="5.664" style="fill:#575758;"/>
    </g>
    <g>
        <path d="M1079.57,122.448l5.664,0l0,5.664l-5.664,0l0,-5.664Zm11.328,0l5.664,0l0,5.664l-5.664,0l0,-5.664Zm16.992,0l0,5.664l-5.664,0l0,-5.664l5.664,0Zm-22.656,-5.664l5.664,0l0,5.664l-5.664,0l0,-5.664Zm11.328,0l5.664,0l0,5.664l-5.664,0l0,-5.664Zm-5.664,-5.664l5.664,0l0,5.664l-5.664,0l0,-5.664Zm0,-56.638l5.664,0l0,5.664l-5.664,0l0,-5.664Zm-5.664,-5.664l5.664,0l0,5.664l-5.664,0l0,-5.664Zm11.328,0l5.664,0l0,5.664l-5.664,0l0,-5.664Z" style="fill:#fbeb00;"/>
        <path d="M1073.91,122.448l5.664,0l0,5.664l-5.664,0l0,-5.664Zm11.328,0l5.664,0l0,5.664l-5.664,0l0,-5.664Zm11.328,0l5.664,0l0,5.664l-5.664,0l0,-5.664Zm11.328,0l5.663,0l0,5.664l-5.663,0l0,-5.664Zm-16.992,-5.664l5.664,0l0,5.664l-5.664,0l0,-5.664Zm11.328,0l5.664,0l0,5.664l-5.664,0l0,-5.664Zm-22.656,0l5.664,0l0,5.664l-5.664,0l0,-5.664Zm16.992,-5.664l5.664,0l0,5.664l-5.664,0l0,-5.664Zm-11.328,0l5.664,0l0,5.664l-5.664,0l0,-5.664Zm5.664,-5.663l5.664,0l0,5.663l-5.664,0l0,-5.663Zm0,-11.328l5.664,0l0,5.664l-5.664,0l0,-5.664Zm0,-22.656l5.664,0l0,5.664l-5.664,0l0,-5.664Zm0,-11.327l5.664,0l0,5.664l-5.664,0l0,-5.664Zm-5.664,-5.664l5.664,0l0,5.664l-5.664,0l0,-5.664Zm11.328,0l5.664,0l0,5.664l-5.664,0l0,-5.664Zm5.664,-5.664l5.664,0l0,5.664l-5.664,0l0,-5.664Zm-11.328,0l5.664,0l0,5.664l-5.664,0l0,-5.664Zm-5.664,0l0,5.664l-5.664,0l0,-5.664l5.664,0Z" style="fill:#baad00;"/>
        <path d="M1096.57,77.137l0,11.328l5.664,0l0,5.664l5.664,0l0,5.664l5.663,0l0,5.664l5.664,0l0,22.655l-5.664,0l0,-5.664l-5.663,0l0,-5.664l-5.664,0l0,-5.664l-5.664,0l0,-5.663l-5.664,0l0,5.663l-5.664,0l0,5.664l-5.664,0l0,5.664l-5.664,0l0,5.664l-5.663,0l0,-22.655l5.663,0l0,-5.664l5.664,0l0,-5.664l5.664,0l0,-5.664l5.664,0l0,-11.328l5.664,0Zm0,16.992l-5.664,0l0,5.664l5.664,0l0,-5.664Zm22.655,-56.639l0,22.656l-5.664,0l0,5.664l-5.663,0l0,5.663l-5.664,0l0,5.664l-5.664,0l0,-5.664l-5.664,0l0,5.664l-5.664,0l0,-5.664l-5.664,0l0,-5.663l-5.664,0l0,-5.664l-5.663,0l0,-22.656l50.974,0Zm-39.647,16.992l5.664,0l0,5.664l5.664,0l0,5.664l5.664,0l0,-5.664l5.664,0l0,-5.664l5.664,0l0,-5.664l-28.32,0l0,5.664Z" style="fill:#8ea9dc;"/>
        <path d="M1056.92,20.499l73.63,0l0,16.991l-5.664,0l0,28.32l-5.664,0l0,5.663l-5.664,0l0,5.664l-5.663,0l0,11.328l5.663,0l0,5.664l5.664,0l0,5.664l5.664,0l0,28.319l5.664,0l0,16.992l-73.63,0l0,-16.992l5.664,0l0,-28.319l5.664,0l0,-5.664l5.663,0l0,-5.664l5.664,0l0,-11.328l-5.664,0l0,-5.664l-5.663,0l0,-5.663l-5.664,0l0,-28.32l-5.664,0l0,-16.991Zm62.302,118.941l0,-5.664l-50.974,0l0,5.664l50.974,0Zm-22.655,-62.303l5.664,0l0,-5.664l5.664,0l0,-5.663l5.663,0l0,-5.664l5.664,0l0,-22.656l-50.974,0l0,22.656l5.663,0l0,5.664l5.664,0l0,5.663l5.664,0l0,5.664l5.664,0l0,11.328l-5.664,0l0,5.664l-5.664,0l0,5.664l-5.664,0l0,5.664l-5.663,0l0,22.655l50.974,0l0,-22.655l-5.664,0l0,-5.664l-5.663,0l0,-5.664l-5.664,0l0,-5.664l-5.664,0l0,-11.328Zm22.655,-45.311l0,-5.663l-50.974,0l0,5.663l50.974,0Z"/>
        <rect x="1068.25" y="26.163" width="11.328" height="5.664" style="fill:#575758;"/>
        <rect x="1068.25" y="133.776" width="11.328" height="5.664" style="fill:#575758;"/>
        <rect x="1079.57" y="26.163" width="11.328" height="5.664" style="fill:#707173;"/>
        <path d="M1079.57,133.776l5.664,0l0,0.013l5.664,0l0,5.664l-5.664,0l0,-0.013l-5.664,0l0,-5.664Z" style="fill:#707173;"/>
        <rect x="1090.9" y="26.163" width="28.319" height="5.664" style="fill:#575758;"/>
        <rect x="1090.9" y="133.776" width="28.319" height="5.664" style="fill:#575758;"/>
    </g>
    <path d="M197.123,104.581l19.317,0l0,19.317l-9.658,0l0,19.316l-9.659,0l0,19.316l-9.658,0l0,-19.316l-38.632,0l0,-19.316l9.658,0l0,-77.265l-9.658,0l0,-19.317l28.974,0l0,96.582l19.316,0l0,-19.317Z" style="fill-rule:nonzero;"/>
    <path d="M226.098,46.633l9.658,0l0,-19.317l48.387,0l0,19.317l9.658,0l0,96.581l-19.316,0l0,-57.949l-19.316,0l0,-19.316l19.316,0l0,-19.316l-29.071,0l0,96.581l-9.561,0l0,19.316l-9.659,0l-0.096,-115.897Z" style="fill-rule:nonzero;"/>
    <path d="M303.363,104.581l19.316,0l0,19.317l28.975,0l0,-38.633l-38.633,0l0,-19.316l-9.658,0l0,-19.316l9.658,0l0,-19.317l57.949,0l0,19.317l-48.291,0l0,19.316l38.633,0l0,19.316l9.658,0l0,38.633l-9.658,0l0,19.316l-48.291,0l0,19.316l-9.658,0l0,-57.949Z" style="fill-rule:nonzero;"/>
    <path d="M419.261,8l9.658,0l0,19.316l9.658,0l0,19.317l9.658,0l0,19.316l-19.316,0l0,-19.316l-9.658,0l0,96.581l-9.658,0l0,19.316l-9.755,0l0,-115.897l-19.22,0l0,-19.317l38.633,0l0,-19.316Z" style="fill-rule:nonzero;"/>
    <path d="M535.255,27.316l57.949,0l0,19.317l9.658,0l0,38.632l-9.658,0l0,19.316l-19.316,0l0,-19.316l9.658,0l0,-38.632l-19.413,0l0,96.581l-28.878,0l0,-19.316l9.658,0l0,-77.265l-9.658,0l0,-19.317Z" style="fill-rule:nonzero;"/>
    <path d="M660.714,104.581l19.317,0l0,19.317l-9.658,0l0,19.316l-9.659,0l0,19.316l-9.658,0l0,-19.316l-38.632,0l0,-19.316l9.658,0l0,-77.265l-9.658,0l0,-19.317l28.974,0l0,96.582l19.316,0l0,-19.317Z" style="fill-rule:nonzero;"/>
    <path d="M689.689,46.633l9.658,0l0,-19.317l48.387,0l0,19.317l9.658,0l0,96.581l-19.316,0l0,-57.949l-19.316,0l0,-19.316l19.316,0l0,-19.316l-29.071,0l0,96.581l-9.561,0l0,19.316l-9.659,0l-0.096,-115.897Z" style="fill-rule:nonzero;"/>
    <path d="M795.928,65.949l19.317,0l0,-38.633l9.658,0l0,-19.316l9.658,0l0,57.949l-9.658,0l0,19.316l-9.658,0l0,77.265l-9.658,0l0,-19.316l-9.659,0l0,-77.265Zm-28.974,-38.633l19.316,0l0,57.949l-9.658,0l0,-19.316l-9.658,0l0,-38.633Z" style="fill-rule:nonzero;"/>
    <path d="M882.852,143.214l-38.633,0l0,-19.316l9.658,0l0,-77.265l-9.658,0l0,-19.317l67.607,0l0,19.317l-38.729,0l0,19.316l29.071,0l0,19.316l-29.071,0l0,38.633l19.413,0l0,-19.317l19.316,0l0,19.317l-9.658,0l0,19.316l-9.658,0l0,19.316l-9.658,0l0,-19.316Z" style="fill-rule:nonzero;"/>
    <path d="M979.433,85.265l9.658,0l0,38.633l-9.658,0l0,19.316l-57.949,0l0,-19.316l9.658,0l0,-77.265l-9.658,0l0,-19.317l38.633,0l0,19.317l9.658,0l0,19.316l9.658,0l0,19.316Zm-28.974,38.633l19.316,0l0,-38.633l-9.658,0l0,-19.316l-9.658,0l0,57.949Z" style="fill-rule:nonzero;"/>
    <path d="M189.123,96.581l19.317,0l0,19.317l-9.658,0l0,19.316l-9.659,0l0,19.316l-9.658,0l0,-19.316l-38.632,0l0,-19.316l9.658,0l0,-77.265l-9.658,0l0,-19.317l28.974,0l0,96.582l19.316,0l0,-19.317Z" style="fill:#707173;fill-rule:nonzero;"/>
    <path d="M218.098,38.633l9.658,0l0,-19.317l48.387,0l0,19.317l9.658,0l0,96.581l-19.316,0l0,-57.949l-19.316,0l0,-19.316l19.316,0l0,-19.316l-29.071,0l0,96.581l-9.561,0l0,19.316l-9.659,0l-0.096,-115.897Z" style="fill:#707173;fill-rule:nonzero;"/>
    <path d="M295.363,96.581l19.316,0l0,19.317l28.975,0l0,-38.633l-38.633,0l0,-19.316l-9.658,0l0,-19.316l9.658,0l0,-19.317l57.949,0l0,19.317l-48.291,0l0,19.316l38.633,0l0,19.316l9.658,0l0,38.633l-9.658,0l0,19.316l-48.291,0l0,19.316l-9.658,0l0,-57.949Z" style="fill:#707173;fill-rule:nonzero;"/>
    <path d="M411.261,0l9.658,0l0,19.316l9.658,0l0,19.317l9.658,0l0,19.316l-19.316,0l0,-19.316l-9.658,0l0,96.581l-9.658,0l0,19.316l-9.755,0l0,-115.897l-19.22,0l0,-19.317l38.633,0l0,-19.316Z" style="fill:#707173;fill-rule:nonzero;"/>
    <path d="M527.255,19.316l57.949,0l0,19.317l9.658,0l0,38.632l-9.658,0l0,19.316l-19.316,0l0,-19.316l9.658,0l0,-38.632l-19.413,0l0,96.581l-28.878,0l0,-19.316l9.658,0l0,-77.265l-9.658,0l0,-19.317Z" style="fill:#707173;fill-rule:nonzero;"/>
    <path d="M652.714,96.581l19.317,0l0,19.317l-9.658,0l0,19.316l-9.659,0l0,19.316l-9.658,0l0,-19.316l-38.632,0l0,-19.316l9.658,0l0,-77.265l-9.658,0l0,-19.317l28.974,0l0,96.582l19.316,0l0,-19.317Z" style="fill:#707173;fill-rule:nonzero;"/>
    <path d="M681.689,38.633l9.658,0l0,-19.317l48.387,0l0,19.317l9.658,0l0,96.581l-19.316,0l0,-57.949l-19.316,0l0,-19.316l19.316,0l0,-19.316l-29.071,0l0,96.581l-9.561,0l0,19.316l-9.659,0l-0.096,-115.897Z" style="fill:#707173;fill-rule:nonzero;"/>
    <path d="M787.928,57.949l19.317,0l0,-38.633l9.658,0l0,-19.316l9.658,0l0,57.949l-9.658,0l0,19.316l-9.658,0l0,77.265l-9.658,0l0,-19.316l-9.659,0l0,-77.265Zm-28.974,-38.633l19.316,0l0,57.949l-9.658,0l0,-19.316l-9.658,0l0,-38.633Z" style="fill:#707173;fill-rule:nonzero;"/>
    <path d="M874.852,135.214l-38.633,0l0,-19.316l9.658,0l0,-77.265l-9.658,0l0,-19.317l67.607,0l0,19.317l-38.729,0l0,19.316l29.071,0l0,19.316l-29.071,0l0,38.633l19.413,0l0,-19.317l19.316,0l0,19.317l-9.658,0l0,19.316l-9.658,0l0,19.316l-9.658,0l0,-19.316Z" style="fill:#707173;fill-rule:nonzero;"/>
    <path d="M971.433,77.265l9.658,0l0,38.633l-9.658,0l0,19.316l-57.949,0l0,-19.316l9.658,0l0,-77.265l-9.658,0l0,-19.317l38.633,0l0,19.317l9.658,0l0,19.316l9.658,0l0,19.316Zm-28.974,38.633l19.316,0l0,-38.633l-9.658,0l0,-19.316l-9.658,0l0,57.949Z" style="fill:#707173;fill-rule:nonzero;"/>
    <path d="M193.123,100.581l19.317,0l0,19.317l-9.658,0l0,19.316l-9.659,0l0,19.316l-9.658,0l0,-19.316l-38.632,0l0,-19.316l9.658,0l0,-77.265l-9.658,0l0,-19.317l28.974,0l0,96.582l19.316,0l0,-19.317Z" style="fill:#fff;fill-rule:nonzero;"/>
    <path d="M222.098,42.633l9.658,0l0,-19.317l48.387,0l0,19.317l9.658,0l0,96.581l-19.316,0l0,-57.949l-19.316,0l0,-19.316l19.316,0l0,-19.316l-29.071,0l0,96.581l-9.561,0l0,19.316l-9.659,0l-0.096,-115.897Z" style="fill:#fff;fill-rule:nonzero;"/>
    <path d="M299.363,100.581l19.316,0l0,19.317l28.975,0l0,-38.633l-38.633,0l0,-19.316l-9.658,0l0,-19.316l9.658,0l0,-19.317l57.949,0l0,19.317l-48.291,0l0,19.316l38.633,0l0,19.316l9.658,0l0,38.633l-9.658,0l0,19.316l-48.291,0l0,19.316l-9.658,0l0,-57.949Z" style="fill:#fff;fill-rule:nonzero;"/>
    <path d="M415.261,4l9.658,0l0,19.316l9.658,0l0,19.317l9.658,0l0,19.316l-19.316,0l0,-19.316l-9.658,0l0,96.581l-9.658,0l0,19.316l-9.755,0l0,-115.897l-19.22,0l0,-19.317l38.633,0l0,-19.316Z" style="fill:#fff;fill-rule:nonzero;"/>
    <path d="M531.255,23.316l57.949,0l0,19.317l9.658,0l0,38.632l-9.658,0l0,19.316l-19.316,0l0,-19.316l9.658,0l0,-38.632l-19.413,0l0,96.581l-28.878,0l0,-19.316l9.658,0l0,-77.265l-9.658,0l0,-19.317Z" style="fill:#fff;fill-rule:nonzero;"/>
    <path d="M656.714,100.581l19.317,0l0,19.317l-9.658,0l0,19.316l-9.659,0l0,19.316l-9.658,0l0,-19.316l-38.632,0l0,-19.316l9.658,0l0,-77.265l-9.658,0l0,-19.317l28.974,0l0,96.582l19.316,0l0,-19.317Z" style="fill:#fff;fill-rule:nonzero;"/>
    <path d="M685.689,42.633l9.658,0l0,-19.317l48.387,0l0,19.317l9.658,0l0,96.581l-19.316,0l0,-57.949l-19.316,0l0,-19.316l19.316,0l0,-19.316l-29.071,0l0,96.581l-9.561,0l0,19.316l-9.659,0l-0.096,-115.897Z" style="fill:#fff;fill-rule:nonzero;"/>
    <path d="M791.928,61.949l19.317,0l0,-38.633l9.658,0l0,-19.316l9.658,0l0,57.949l-9.658,0l0,19.316l-9.658,0l0,77.265l-9.658,0l0,-19.316l-9.659,0l0,-77.265Zm-28.974,-38.633l19.316,0l0,57.949l-9.658,0l0,-19.316l-9.658,0l0,-38.633Z" style="fill:#fff;fill-rule:nonzero;"/>
    <path d="M878.852,139.214l-38.633,0l0,-19.316l9.658,0l0,-77.265l-9.658,0l0,-19.317l67.607,0l0,19.317l-38.729,0l0,19.316l29.071,0l0,19.316l-29.071,0l0,38.633l19.413,0l0,-19.317l19.316,0l0,19.317l-9.658,0l0,19.316l-9.658,0l0,19.316l-9.658,0l0,-19.316Z" style="fill:#fff;fill-rule:nonzero;"/>
    <path d="M975.433,81.265l9.658,0l0,38.633l-9.658,0l0,19.316l-57.949,0l0,-19.316l9.658,0l0,-77.265l-9.658,0l0,-19.317l38.633,0l0,19.317l9.658,0l0,19.316l9.658,0l0,19.316Zm-28.974,38.633l19.316,0l0,-38.633l-9.658,0l0,-19.316l-9.658,0l0,57.949Z" style="fill:#fff;fill-rule:nonzero;"/>
</svg>
