<?xml version="1.0" encoding="utf-8"?>
<!-- Generator: Adobe Illustrator 27.0.0, SVG Export Plug-In . SVG Version: 6.00 Build 0)  -->
<svg version="1.1" id="Layer_1" xmlns="http://www.w3.org/2000/svg" xmlns:xlink="http://www.w3.org/1999/xlink" x="0px" y="0px"
	 viewBox="0 0 3852.58 441.21" style="enable-background:new 0 0 3852.58 441.21;" xml:space="preserve">
<style type="text/css">
	.st0{fill:#FFFFFF;}
	.st1{fill:url(#SVGID_1_);}
	.st2{fill:url(#SVGID_00000094585504317342484980000008334021619575617205_);}
	.st3{fill:url(#SVGID_00000058581522541794172590000008032801670324814768_);}
	.st4{fill:url(#SVGID_00000054975288786764920400000000320861519137422500_);}
	.st5{fill:url(#SVGID_00000154392497137199397000000006536162626732995504_);}
	.st6{fill:url(#SVGID_00000110451034003328004220000016793734423098595218_);}
	.st7{fill:url(#SVGID_00000049904168971150721670000001492465060303286968_);}
	.st8{fill:url(#SVGID_00000114075515528452117230000007322318130112592778_);}
	.st9{fill:url(#SVGID_00000057114116923498482230000007488062981955611789_);}
	.st10{fill:url(#SVGID_00000039828616769162457750000003122882676271423887_);}
	.st11{fill:url(#SVGID_00000051354261105375674880000010824903341658046626_);}
	.st12{fill:url(#SVGID_00000116204506435979988080000017836048840167752635_);}
	.st13{fill:url(#SVGID_00000173125468791818224660000016205712141864869020_);}
	.st14{fill:url(#SVGID_00000141449503063160785890000001248574784899086725_);}
	.st15{fill:url(#SVGID_00000021119644854893768140000013435038354772679085_);}
	.st16{fill:url(#SVGID_00000146498177844730210950000007115818705551740861_);}
	.st17{fill:url(#SVGID_00000041281217560928510870000007375017221882630280_);}
	.st18{fill:url(#SVGID_00000169540457499928939960000015673444652888646809_);}
	.st19{fill:url(#SVGID_00000065062284123925892540000017511556833900795559_);}
	.st20{fill:url(#SVGID_00000033327465312489334810000018313245644146125725_);}
	.st21{fill:url(#SVGID_00000116950246899354243440000007863480483145122996_);}
	.st22{fill:url(#SVGID_00000183206880408495133430000017357985595288267942_);}
	.st23{fill:url(#SVGID_00000045596701319641130550000012374805155048301224_);}
	.st24{fill:url(#SVGID_00000083080774406994678360000014783639301621540768_);}
	.st25{fill:url(#SVGID_00000075873294825313358540000013383770480061042321_);}
	.st26{fill:url(#SVGID_00000103949624517606059620000006396250783992031887_);}
	.st27{fill:url(#SVGID_00000129899458994733309270000003775590115373607347_);}
	.st28{fill:url(#SVGID_00000035506113316385332930000000016590845441331112_);}
	.st29{fill:url(#SVGID_00000087391855922457856330000016149155855186848387_);}
	.st30{fill:url(#SVGID_00000098210313115990480300000003100924994895112092_);}
	.st31{fill:url(#SVGID_00000008850436303644212330000011961322523900504994_);}
	.st32{fill:url(#SVGID_00000016035825021054398790000014733303847313038760_);}
	.st33{fill:url(#SVGID_00000043430967588392077630000011305485831862032811_);}
	.st34{fill:url(#SVGID_00000182529974389649052480000001949210872542215825_);}
	.st35{fill:url(#SVGID_00000092430872933139933250000004651516807393349565_);}
	.st36{fill:url(#SVGID_00000113312112678395536140000003248180432380412598_);}
	.st37{fill:url(#SVGID_00000031930311409626780340000014915786199324489881_);}
	.st38{fill:url(#SVGID_00000088106740485053743960000013834532508695666336_);}
	.st39{fill:url(#SVGID_00000024695961084228630480000017354481406044626598_);}
	.st40{fill:url(#SVGID_00000168801499896619976030000011535509720516008070_);}
	.st41{fill:url(#SVGID_00000130642283980001045360000011171750554726129541_);}
	.st42{fill:url(#SVGID_00000073715959228823070420000000121748408609820037_);}
	.st43{fill:url(#SVGID_00000036231553931357151440000000014395631670601600_);}
	.st44{fill:url(#SVGID_00000036968329617139111080000004781551934061243810_);}
	.st45{fill:url(#SVGID_00000136382303033109747600000017058233765448235440_);}
	.st46{fill:url(#SVGID_00000098915868972531835650000011161666791200769966_);}
	.st47{fill:url(#SVGID_00000108267485135561216990000004796414101390729090_);}
	.st48{fill:url(#SVGID_00000052069213455321962770000000587147408350145685_);}
	.st49{fill:url(#SVGID_00000137123362068733757890000018245548278007617209_);}
	.st50{fill:url(#SVGID_00000083075706167500021150000001292629988019611264_);}
	.st51{fill:url(#SVGID_00000127007052409049217110000011943069651111756729_);}
	.st52{fill:url(#SVGID_00000076584358773420341380000013200962392045973436_);}
	.st53{fill:url(#SVGID_00000183945761710490477480000001296586834573057979_);}
	.st54{fill:url(#SVGID_00000160891885390835689090000007635511202863234711_);}
	.st55{fill:url(#SVGID_00000031901046086649074330000001435566968988273825_);}
	.st56{fill:url(#SVGID_00000124142656150830533860000007509638942676770946_);}
	.st57{fill:url(#SVGID_00000145737452764461735070000011359852788370696604_);}
	.st58{fill:url(#SVGID_00000018222015788592411580000014004553146758266029_);}
	.st59{fill:url(#SVGID_00000037684319304215018300000004713972520213237132_);}
	.st60{fill:url(#SVGID_00000052094054915015387380000004974269187393959303_);}
	.st61{fill:url(#SVGID_00000005964354577409272480000011771297815686478505_);}
	.st62{fill:url(#SVGID_00000003826811993775710540000006615507990200076984_);}
	.st63{fill:url(#SVGID_00000075868499226948671860000010712861563232524466_);}
	.st64{fill:url(#SVGID_00000074408190551155362320000018167531907688705172_);}
	.st65{fill:url(#SVGID_00000103981607044663389300000009122709287294443187_);}
	.st66{fill:url(#SVGID_00000142895792025003363590000010007455894359600804_);}
	.st67{fill:url(#SVGID_00000150102534654228060030000002555125970435271326_);}
	.st68{fill:url(#SVGID_00000145738709190822375790000011469726565887542187_);}
	.st69{fill:url(#SVGID_00000058549009749664076550000011557296622669784756_);}
	.st70{fill:url(#SVGID_00000071526506237447674780000004548666666240798092_);}
	.st71{fill:url(#SVGID_00000159442864922920747050000003284182005482016438_);}
	.st72{fill:url(#SVGID_00000144308583905887037580000007205162500746250898_);}
	.st73{fill:url(#SVGID_00000124140086472090286610000001338184446968154279_);}
	.st74{fill:url(#SVGID_00000044880588852254707510000012123071395640776328_);}
	.st75{fill:url(#SVGID_00000181070766498235833370000010144825642790954677_);}
	.st76{fill:url(#SVGID_00000005251813902646831510000009239366448310343320_);}
	.st77{fill:url(#SVGID_00000084513177644689707100000005292034211204535203_);}
	.st78{fill:url(#SVGID_00000007422974048359543370000009136032732180057488_);}
	.st79{fill:url(#SVGID_00000070816810298657273140000011487910492353974166_);}
	.st80{fill:url(#SVGID_00000027594814033234812150000010462194824134517411_);}
	.st81{fill:url(#SVGID_00000031917581947751558060000015751692839054766233_);}
	.st82{fill:url(#SVGID_00000014603800175942968200000001170569783734610083_);}
	.st83{fill:url(#SVGID_00000018209795769236007510000017783504435006395796_);}
	.st84{fill:url(#SVGID_00000062168856800526209160000017291042060068718259_);}
	.st85{fill:url(#SVGID_00000031911961652300277260000005150535800086011581_);}
	.st86{fill:url(#SVGID_00000029012368041863467700000009446069381719196076_);}
	.st87{fill:url(#SVGID_00000058564113719459991330000004291531556007882382_);}
	.st88{fill:url(#SVGID_00000107546949327262160090000007256589486940545951_);}
	.st89{fill:url(#SVGID_00000122721413176968933490000014054901406279819395_);}
	.st90{fill:url(#SVGID_00000105400457752413730820000010297506313896208822_);}
	.st91{fill:url(#SVGID_00000152265906995177233530000015194242881218942366_);}
	.st92{fill:url(#SVGID_00000121248509643147290010000008736449632014885282_);}
	.st93{fill:url(#SVGID_00000182499863868555387410000015696575788878002074_);}
	.st94{fill:url(#SVGID_00000056428253335768361530000013123582883044175243_);}
	.st95{fill:url(#SVGID_00000084500683400311324770000018308522759445376423_);}
	.st96{fill:url(#SVGID_00000110438274189843088560000017893901131664166836_);}
	.st97{fill:url(#SVGID_00000003106924178999392760000000716825123538746254_);}
	.st98{fill:url(#SVGID_00000065792746539969018630000016099389707077528223_);}
	.st99{fill:url(#SVGID_00000041260960650873544040000005996144794706053816_);}
	.st100{fill:url(#SVGID_00000151545733215038847200000014178166470818421434_);}
	.st101{fill:url(#SVGID_00000021104268862976653670000016913353104515315854_);}
	.st102{fill:url(#SVGID_00000027567907921125765650000007471270463861338265_);}
	.st103{fill:url(#SVGID_00000037684621294492323200000013845197382707020439_);}
	.st104{fill:url(#SVGID_00000011723234191383991770000016791717316899898287_);}
	.st105{fill:url(#SVGID_00000100354986815451813020000002649050622182690983_);}
	.st106{fill:url(#SVGID_00000029759882038102882720000001297248802936127678_);}
	.st107{fill:url(#SVGID_00000180345423480095359430000017132807982591001529_);}
	.st108{fill:url(#SVGID_00000160887062178758306150000018303620535176809094_);}
	.st109{fill:url(#SVGID_00000024681756286976954550000014733397437113144745_);}
	.st110{fill:url(#SVGID_00000000187145443845149930000014561429660191883906_);}
	.st111{fill:url(#SVGID_00000047776167688744441650000000718650123497231541_);}
	.st112{fill:url(#SVGID_00000118385544728105181980000015102820728825077425_);}
	.st113{fill:url(#SVGID_00000093877107843208105400000015969683542167958975_);}
	.st114{fill:url(#SVGID_00000045597673850115327340000014939663282649338047_);}
	.st115{fill:url(#SVGID_00000016040778624949331950000014650986746702581675_);}
	.st116{fill:url(#SVGID_00000074440382575194415090000008934785278242452913_);}
	.st117{fill:url(#SVGID_00000168837970111203112160000008116252848670870958_);}
	.st118{fill:url(#SVGID_00000146493034644133844500000004389830200821001650_);}
	.st119{fill:url(#SVGID_00000054986923372465059080000007687001652512500927_);}
	.st120{fill:url(#SVGID_00000044154562401557532020000010258065029634587288_);}
	.st121{fill:url(#SVGID_00000061454399390607369820000001976860051328868535_);}
	.st122{fill:url(#SVGID_00000072251507491750793510000014152018635316256918_);}
	.st123{fill:url(#SVGID_00000151518896124884745900000000796171542250980235_);}
	.st124{fill:url(#SVGID_00000125577487163792024750000006177351119708157884_);}
	.st125{fill:url(#SVGID_00000096051782807085932100000012733534260215799225_);}
	.st126{fill:url(#SVGID_00000146462491088020168060000000746796316821838231_);}
	.st127{fill:url(#SVGID_00000112610392884339248300000000864529353032942225_);}
	.st128{fill:url(#SVGID_00000142883596146383230690000007665354910263761810_);}
	.st129{fill:url(#SVGID_00000133506937474491073720000004906122487990209462_);}
	.st130{fill:url(#SVGID_00000114038935564244411270000000988108329220083891_);}
	.st131{fill:url(#SVGID_00000137848191694739093100000013024993714847779498_);}
	.st132{fill:url(#SVGID_00000023973876473037247190000013282254738507263890_);}
	.st133{fill:url(#SVGID_00000085213572547147302310000006209823770023638719_);}
	.st134{fill:url(#SVGID_00000090282199963780730580000009940355543601850027_);}
	.st135{fill:url(#SVGID_00000145027502504593152630000017860557648857515409_);}
	.st136{fill:url(#SVGID_00000038402714829873004810000012624023505276740019_);}
	.st137{fill:url(#SVGID_00000052088449733900241760000015273139449813958801_);}
	.st138{fill:url(#SVGID_00000029724600429465050120000008900769796281135757_);}
	.st139{fill:url(#SVGID_00000155132488456200088650000007607410841943016367_);}
	.st140{fill:url(#SVGID_00000065052237296241538330000004691103321342093747_);}
	.st141{fill:url(#SVGID_00000097473249279825595210000017568910587950227120_);}
	.st142{fill:url(#SVGID_00000037673778136576103190000014129738355184179109_);}
	.st143{fill:url(#SVGID_00000160155180897221862380000014339323338463475358_);}
	.st144{fill:url(#SVGID_00000170989585288455628230000009598538222486209714_);}
	.st145{fill:url(#SVGID_00000010271031209322784310000017322723229424010935_);}
	.st146{fill:url(#SVGID_00000015334055934171252420000012788663329648847488_);}
	.st147{fill:url(#SVGID_00000121957819732495066480000005680241215473212810_);}
	.st148{fill:url(#SVGID_00000173158223463571654520000011184124471167420036_);}
	.st149{fill:url(#SVGID_00000016783102782765203920000005746204411875477662_);}
	.st150{fill:url(#SVGID_00000129885527848888394180000002488499673759441799_);}
	.st151{fill:url(#SVGID_00000169555289919779220960000001786870151918712738_);}
	.st152{fill:url(#SVGID_00000067195917424096592700000016142986133644148907_);}
	.st153{fill:url(#SVGID_00000099624668332941170020000014828115451056389029_);}
	.st154{fill:url(#SVGID_00000119092332814237005190000011678902418988320680_);}
	.st155{fill:url(#SVGID_00000106108884552810707470000006895333726293145766_);}
	.st156{fill:url(#SVGID_00000156562702175321507990000006098188732274754967_);}
	.st157{fill:url(#SVGID_00000048497637436893471730000003868876408758744973_);}
	.st158{fill:url(#SVGID_00000099662176905602193310000012252291259083945900_);}
	.st159{fill:url(#SVGID_00000124860620254818913970000011073081097909945477_);}
	.st160{fill:url(#SVGID_00000147919368231510155940000011170779602960054719_);}
	.st161{fill:url(#SVGID_00000078027477944531393500000015119637414035820684_);}
	.st162{fill:url(#SVGID_00000111185252773856124590000013458052192752380565_);}
	.st163{fill:url(#SVGID_00000052074913665083487420000013665281514078475442_);}
	.st164{fill:url(#SVGID_00000030467652655550559280000010427816755626794134_);}
	.st165{fill:url(#SVGID_00000029032318996077596660000000200689337150199961_);}
	.st166{fill:url(#SVGID_00000083771435641289418100000001105788985889730438_);}
	.st167{fill:url(#SVGID_00000029747539581545541060000013388678926748130737_);}
	.st168{fill:url(#SVGID_00000021836213277634764460000006003295672814370734_);}
	.st169{fill:url(#SVGID_00000110458897145968322060000010557792345405421199_);}
	.st170{fill:url(#SVGID_00000052102326042831547730000000199252948558184619_);}
	.st171{fill:url(#SVGID_00000072252446524820861300000014232877875343377592_);}
	.st172{fill:url(#SVGID_00000098212168628083415590000016930361081880300461_);}
	.st173{fill:url(#SVGID_00000125569884388003452100000018125690320892834196_);}
	.st174{fill:url(#SVGID_00000090976771326958849670000012079013567622444954_);}
	.st175{fill:url(#SVGID_00000028284441988432945450000005768099253351262116_);}
	.st176{fill:url(#SVGID_00000176721279526575253760000018281493700930014356_);}
	.st177{fill:url(#SVGID_00000096761211488816746870000007582349051263785139_);}
	.st178{fill:url(#SVGID_00000005977312100137370650000010152293222600889258_);}
	.st179{fill:url(#SVGID_00000104687814033896669460000011895953090110439822_);}
	.st180{fill:url(#SVGID_00000031200130661599632310000017232690729720710538_);}
	.st181{fill:url(#SVGID_00000067952964328996209540000001104810859817314438_);}
	.st182{fill:url(#SVGID_00000080908357269578698340000009265941355640607617_);}
	.st183{fill:url(#SVGID_00000059292274705018841630000005807447550570149053_);}
	.st184{fill:url(#SVGID_00000160876979400622804530000008607886624377495705_);}
	.st185{fill:url(#SVGID_00000026157534537065768230000012038755639269102212_);}
	.st186{fill:url(#SVGID_00000127017882178890407940000000288620569447635873_);}
	.st187{fill:url(#SVGID_00000092458733280973752190000000045602952574912426_);}
	.st188{fill:url(#SVGID_00000001662574054480680090000009482208984227475869_);}
	.st189{fill:url(#SVGID_00000098899057351947639740000000665983658931692429_);}
	.st190{fill:url(#SVGID_00000183211070113945321740000006797820617373967009_);}
	.st191{fill:url(#SVGID_00000041262975037705210240000001397178874538912926_);}
	.st192{fill:url(#SVGID_00000097463488769689134380000008442636781714345886_);}
	.st193{fill:url(#SVGID_00000027578077155640843620000003309013972716699553_);}
	.st194{fill:url(#SVGID_00000014597836110425156570000017719206792909962113_);}
	.st195{fill:url(#SVGID_00000101824663316430662180000016837239548718485915_);}
	.st196{fill:url(#SVGID_00000162333480817823522350000016776763736577315481_);}
	.st197{fill:url(#SVGID_00000172423944460438223590000017412810942630477473_);}
	.st198{fill:url(#SVGID_00000172411529864594301230000003789699860283432884_);}
	.st199{fill:url(#SVGID_00000114762894893902135950000001465118641277542838_);}
	.st200{fill:url(#SVGID_00000048459952122053200540000008418658186537459352_);}
	.st201{fill:url(#SVGID_00000174565642025569480650000009715564039595268524_);}
	.st202{fill:url(#SVGID_00000085236274081833332900000006553107182166668438_);}
	.st203{fill:url(#SVGID_00000164488585836911271640000015871936021200479926_);}
	.st204{fill:url(#SVGID_00000150062428970805634570000004206366503508048312_);}
	.st205{fill:url(#SVGID_00000028310709563196183720000013112105866574922368_);}
	.st206{fill:url(#SVGID_00000173136965180700196200000008545614607877517981_);}
	.st207{fill:url(#SVGID_00000052786941641560930940000008056017736869877154_);}
	.st208{fill:url(#SVGID_00000052823611654979311200000010946306856613302201_);}
	.st209{fill:url(#SVGID_00000107560166143217321680000010509365198580483754_);}
	.st210{fill:url(#SVGID_00000134234211561703853410000014999027512916064419_);}
	.st211{fill:url(#SVGID_00000022546623673137837660000000838270716315544963_);}
	.st212{fill:url(#SVGID_00000181088380453008935290000018256813800621788574_);}
	.st213{fill:url(#SVGID_00000065767329605296005310000017053003339788536706_);}
	.st214{fill:url(#SVGID_00000101062789599126315000000010172272408788670893_);}
	.st215{fill:url(#SVGID_00000024712647647600536830000004066263783839732866_);}
	.st216{fill:url(#SVGID_00000055695453748536134920000017879320663603736732_);}
	.st217{fill:url(#SVGID_00000121980137785304568790000008359710338704925354_);}
	.st218{fill:url(#SVGID_00000102521745111972235420000010541469490504368564_);}
	.st219{fill:url(#SVGID_00000044173205119388872290000004993336605473678007_);}
	.st220{fill:url(#SVGID_00000156555245852251045820000017713648687331206579_);}
	.st221{fill:url(#SVGID_00000055681210380093564050000012136937568912988324_);}
	.st222{fill:url(#SVGID_00000057137775759094814790000006454999961149267589_);}
	.st223{fill:url(#SVGID_00000034047970602605503320000009642757123541227393_);}
	.st224{fill:url(#SVGID_00000057849235168746017440000009573432609127327113_);}
	.st225{fill:url(#SVGID_00000000902593969593014300000009758055741591897729_);}
	.st226{fill:url(#SVGID_00000182511500265239891540000015243899835091136699_);}
	.st227{fill:url(#SVGID_00000163767886597133768520000002574875492157164418_);}
	.st228{fill:url(#SVGID_00000183211879369711304100000008213795612283592104_);}
	.st229{fill:url(#SVGID_00000085951099896184971280000001805589658733562538_);}
	.st230{fill:url(#SVGID_00000037667862399104061510000011348801954788618685_);}
	.st231{fill:url(#SVGID_00000015313405173080675010000017997869251245400746_);}
	.st232{fill:url(#SVGID_00000088124245847430906050000016321722238136852921_);}
	.st233{fill:url(#SVGID_00000119116581047665957560000017652023294756801180_);}
	.st234{fill:url(#SVGID_00000163784991957781568730000014256917626577923228_);}
	.st235{fill:url(#SVGID_00000047765861172006011420000001416904433342721202_);}
	.st236{fill:url(#SVGID_00000093152472778589939540000009481905198977373864_);}
	.st237{fill:url(#SVGID_00000089570945513988249570000013982093514863528855_);}
	.st238{fill:url(#SVGID_00000153692436030409712400000003064018798411992203_);}
	.st239{fill:url(#SVGID_00000171682707624311778050000017197333689172475038_);}
	.st240{fill:url(#SVGID_00000000934410764431027740000006521577336789491079_);}
	.st241{fill:url(#SVGID_00000170959590351987590020000015852360837991405974_);}
	.st242{fill:url(#SVGID_00000120531334553181067310000008057704358695658175_);}
	.st243{fill:url(#SVGID_00000068651983277488158440000006096393300384019847_);}
	.st244{fill:url(#SVGID_00000111900666513643748390000014888342153415727254_);}
	.st245{fill:url(#SVGID_00000111156006040548820040000000234852920037446572_);}
	.st246{fill:url(#SVGID_00000155117710658069557760000007264024725850185914_);}
	.st247{fill:url(#SVGID_00000034052647448924899590000009167242435333767854_);}
	.st248{fill:url(#SVGID_00000139285510916168652970000016877337033103021758_);}
	.st249{fill:url(#SVGID_00000093862793529091589930000014369710068831144842_);}
	.st250{fill:url(#SVGID_00000121265395774386612800000018440855700815601339_);}
	.st251{fill:url(#SVGID_00000081643633875165284740000003686729298735615146_);}
	.st252{fill:url(#SVGID_00000167377062528993036880000013202153397352365984_);}
	.st253{fill:url(#SVGID_00000115489415374868617740000012144987376248774016_);}
	.st254{fill:url(#SVGID_00000070823478168212641900000012930258220635376297_);}
	.st255{fill:url(#SVGID_00000134213917698354928440000008299044009214804384_);}
	.st256{fill:url(#SVGID_00000051362702703809685990000005249439581080332461_);}
	.st257{fill:url(#SVGID_00000176040305519751104690000008258062019412936621_);}
	.st258{fill:url(#SVGID_00000147903182084482407090000004998459590269555103_);}
	.st259{fill:url(#SVGID_00000091715708886315824920000016557716454095329973_);}
	.st260{fill:url(#SVGID_00000133525804419411337330000013332200867849123771_);}
	.st261{fill:url(#SVGID_00000111169412460609906160000007677310574878620299_);}
	.st262{fill:url(#SVGID_00000020373411783220366980000003311174224209814159_);}
	.st263{fill:url(#SVGID_00000167387872087179485280000004488716027447635632_);}
	.st264{fill:url(#SVGID_00000074432480210635931570000007348371488626993801_);}
	.st265{fill:url(#SVGID_00000096022743476877666000000000653444082638532796_);}
	.st266{fill:url(#SVGID_00000160907465817600149890000011966437047078413193_);}
	.st267{fill:url(#SVGID_00000067229326502226618940000003598643749092445601_);}
	.st268{fill:url(#SVGID_00000044160938529445531840000007621839746263328934_);}
	.st269{fill:url(#SVGID_00000075131127984429642430000015195899749111310002_);}
	.st270{fill:url(#SVGID_00000145737858366046237810000016629257529009067141_);}
	.st271{fill:url(#SVGID_00000165217797497192338090000016042264672841680266_);}
	.st272{fill:url(#SVGID_00000090991753291353319130000012583144569032628368_);}
	.st273{fill:url(#SVGID_00000130637895039036218640000013620194024797058748_);}
	.st274{fill:url(#SVGID_00000044870127736327013010000017874559476926803604_);}
	.st275{fill:url(#SVGID_00000155859765457323768570000016385573428891299746_);}
	.st276{fill:url(#SVGID_00000018940904622172382550000007245930945531212178_);}
	.st277{fill:url(#SVGID_00000051379818642375593650000000986028762968933018_);}
	.st278{fill:url(#SVGID_00000032635789979467470690000017073275108811738285_);}
	.st279{fill:url(#SVGID_00000155832568787217981960000015064174357834637443_);}
	.st280{fill:url(#SVGID_00000141439151433031835540000014168797365788515764_);}
	.st281{fill:url(#SVGID_00000016783448236376335720000006368699885526261175_);}
	.st282{fill:url(#SVGID_00000064335224907283594540000009959014791469760384_);}
	.st283{fill:url(#SVGID_00000155110705603180150120000011994228458279563194_);}
	.st284{fill:url(#SVGID_00000101066639565967932910000004620255332861699466_);}
	.st285{fill:url(#SVGID_00000023255773846553252840000006041195945280240520_);}
	.st286{fill:url(#SVGID_00000070096255364254431570000011678133477823213460_);}
	.st287{fill:url(#SVGID_00000131331134994577472630000014982403526150655106_);}
	.st288{fill:url(#SVGID_00000174576865334918921640000011551215011729554866_);}
	.st289{fill:url(#SVGID_00000079463464530829887490000007312521373459325605_);}
	.st290{fill:url(#SVGID_00000169525550971399137830000011669446612853060500_);}
	.st291{fill:url(#SVGID_00000085960872033905931290000017085645328269497495_);}
	.st292{fill:url(#SVGID_00000075852413904441063580000010816560718819558067_);}
	.st293{fill:url(#SVGID_00000114064938899956352860000010103627535856521907_);}
	.st294{fill:url(#SVGID_00000076573831394904799490000008150007181390892979_);}
	.st295{fill:url(#SVGID_00000115500673775405513490000017106896651310914978_);}
	.st296{fill:url(#SVGID_00000177467928194613837280000017214199918198181513_);}
	.st297{fill:url(#SVGID_00000062177983733002126010000004880665036984948096_);}
	.st298{fill:url(#SVGID_00000008106740641741689210000003558069653357424559_);}
	.st299{fill:url(#SVGID_00000070077957521910867730000000970610376540756869_);}
	.st300{fill:url(#SVGID_00000146460886352538639540000016471999322545520525_);}
	.st301{fill:url(#SVGID_00000116938240561300054630000005599444602197907088_);}
	.st302{fill:url(#SVGID_00000152246001777697188580000008282010019589069244_);}
	.st303{fill:url(#SVGID_00000008113397866690010800000016580606998001936293_);}
	.st304{fill:url(#SVGID_00000025428797760904388430000003820854962893292956_);}
	.st305{fill:url(#SVGID_00000075842651003496868180000007783832813340627342_);}
	.st306{fill:url(#SVGID_00000088828542468204603460000003171623739567762307_);}
	.st307{fill:url(#SVGID_00000070082436401555109580000007253760547811984520_);}
	.st308{fill:url(#SVGID_00000080893061700121535190000012079979740114956984_);}
	.st309{fill:url(#SVGID_00000119796293905774773480000012812473656716443064_);}
	.st310{fill:url(#SVGID_00000158737121740994194450000009269828804996906642_);}
	.st311{fill:url(#SVGID_00000007428557399223476410000014979166795112540058_);}
	.st312{fill:url(#SVGID_00000019647475260393809930000010559153995569655999_);}
	.st313{fill:url(#SVGID_00000054949957886382587300000010381527800838361984_);}
	.st314{fill:url(#SVGID_00000162322996308647424120000011233248896586793655_);}
	.st315{fill:url(#SVGID_00000127037901190443636350000002173423660310983842_);}
	.st316{fill:url(#SVGID_00000133507358942117478950000009417028787898976406_);}
	.st317{fill:url(#SVGID_00000094614177785432580740000005212596632057252798_);}
	.st318{fill:url(#SVGID_00000008128912139319708760000012422233904919644554_);}
	.st319{fill:url(#SVGID_00000005234575036028594700000003043066048542945965_);}
	.st320{fill:url(#SVGID_00000150804676452987334050000017295928502829461639_);}
</style>
<g>
	<g>
		<g>
			
				<linearGradient id="SVGID_1_" gradientUnits="userSpaceOnUse" x1="757.4529" y1="700.6171" x2="4596.4531" y2="700.6171" gradientTransform="matrix(1 0 0 1 -751.8015 -480.0096)">
				<stop  offset="0" style="stop-color:#3636FF"/>
				<stop  offset="1" style="stop-color:#00FFFF"/>
			</linearGradient>
			<path class="st1" d="M214.72,313.07c-36.51,0-64.78-25.32-64.78-70.67c0-56.54,40.05-113.07,101.88-113.07
				c31.21,0,55.36,16.49,64.19,50.06l123.08-53.59C422.02,52.77,359,5.65,270.08,5.65C92.22,5.65,5.65,142.28,5.65,254.76
				c0,110.72,80.09,180.8,195.52,180.8c87.75,0,147.82-35.92,189.04-90.11l-95.4-75.38C272.43,297.76,246.52,313.07,214.72,313.07z
				 M672.29,6.24c-138.4,0-242.63,114.25-242.63,242.05c0,105.41,83.63,186.69,204.94,186.69c138.4,0,242.63-114.25,242.63-242.05
				C877.23,87.51,793.61,6.24,672.29,6.24z M644.02,313.66c-49.47,0-75.97-34.16-75.97-77.74c0-51.82,37.1-108.36,94.82-108.36
				c49.47,0,75.97,34.16,75.97,77.74C738.84,257.12,701.74,313.66,644.02,313.66z M1278.28,14.48l-127.21,144.88L1101.6,14.48
				H965.56L854.84,426.73h134.86l54.77-204.36l55.36,146.64h2.36l134.27-146.64l-54.77,204.36h137.22l110.72-412.25H1278.28z
				 M1765.89,59.83c-30.62-30.63-77.15-45.35-153.12-45.35h-138.4l-110.72,412.25h137.81l30.03-111.89h58.3
				c130.74,0,208.48-68.91,208.48-171.97C1798.28,110.48,1787.68,81.62,1765.89,59.83z M1582.74,216.48H1558l24.15-91.87h25.91
				c15.31,0,31.8,3.53,41.22,12.96c6.48,6.48,10.01,15.31,10.01,24.15C1659.3,192.93,1635.15,216.48,1582.74,216.48z M2129.83,14.48
				l-59.48,221.43c-8.83,31.8-17.08,47.7-29.45,60.07c-11.19,11.19-27.09,17.08-44.17,17.08c-36.51,0-56.54-17.67-56.54-51.82
				c0-9.42,1.77-20.61,4.71-32.39l57.71-214.37h-140.16l-55.36,205.53c-5.89,22.38-8.83,45.35-8.83,66.55
				c0,93.05,62.42,148.41,178.44,148.41c65.37,0,124.26-15.31,163.13-54.18c28.86-28.86,50.06-68.91,64.78-123.67L2270,14.48
				H2129.83z M2675.75,14.48h-380.44l-31.21,116.61h121.32l-79.5,295.64h137.81l79.5-295.64h121.32L2675.75,14.48z M2772.92,268.9
				h201.41l26.5-99.53h-201.41l11.19-41.81h216.13l30.62-113.07h-351.59l-110.72,412.25h354.53l30.03-113.07h-219.08L2772.92,268.9z
				 M3447.22,144.64c0-32.39-9.42-63.02-32.39-85.98c-27.68-27.68-75.97-44.17-151.94-44.17h-160.78l-110.72,412.25h137.81
				l31.8-117.78h34.16l45.94,117.78h148.41l-57.13-137.22C3413.65,264.19,3447.22,208.83,3447.22,144.64z M3236.97,210.6h-50.06
				l21.79-80.68h48.88c19.43,0,32.98,4.12,40.64,11.78c5.89,5.89,8.83,13.54,8.83,21.79C3307.05,189.39,3282.91,210.6,3236.97,210.6
				z M3682.7,168.78c-57.12-21.2-65.96-23.56-65.96-35.93c0-11.78,12.37-16.49,30.04-16.49c43.58,0,87.75,20.61,118.96,45.93
				l78.92-94.23c-44.76-38.28-110.13-61.84-183.74-61.84c-112.48,0-185.51,64.78-185.51,144.28c0,60.66,35.92,87.75,112.48,116.02
				c60.07,22.38,67.73,26.5,67.73,39.46c0,11.78-12.37,18.26-30.04,18.26c-43.58,0-91.87-18.85-138.99-58.3l-78.92,94.23
				c50.06,45.35,121.32,74.79,203.18,74.79c118.37,0,186.69-64.78,186.69-147.82C3797.54,224.14,3752.78,194.7,3682.7,168.78z"/>
		</g>
	</g>
	<g>
		<g>
			<g>
				
					<linearGradient id="SVGID_00000072991678003988080890000004739342613507320241_" gradientUnits="userSpaceOnUse" x1="222.3735" y1="435.5634" x2="222.3735" y2="5.6515">
					<stop  offset="0" style="stop-color:#3636FF"/>
					<stop  offset="0.2743" style="stop-color:#1E8FFF"/>
					<stop  offset="0.3242" style="stop-color:#FFFFFF"/>
					<stop  offset="0.3672" style="stop-color:#16ACFF"/>
					<stop  offset="0.6966" style="stop-color:#0BD7FF"/>
					<stop  offset="0.7383" style="stop-color:#C1FFFF"/>
					<stop  offset="0.807" style="stop-color:#07E6FF"/>
					<stop  offset="1" style="stop-color:#00FFFF"/>
				</linearGradient>
				<path style="fill:url(#SVGID_00000072991678003988080890000004739342613507320241_);" d="M270.08,16.95
					c40.86,0,77.12,10.56,104.84,30.55c24.49,17.65,41.9,42.34,50.75,71.8L322.79,164.1c-12.19-29.47-37.46-46.08-70.97-46.08
					c-32.14,0-61.55,13.99-82.8,39.38c-19.31,23.08-30.39,54.06-30.39,84.99c0,24.62,7.57,45.44,21.88,60.21
					c13.61,14.04,32.85,21.77,54.2,21.77c17.43,0,33.93-4.21,49.03-12.52c11.56-6.36,22.29-14.98,32.56-26.19l78,61.63
					c-19.13,22.9-41.38,40.86-66.27,53.45c-30.85,15.6-66.8,23.52-106.87,23.52c-27.24,0-52.65-4.05-75.52-12.05
					c-22.29-7.79-41.78-19.2-57.92-33.89c-33.22-30.24-50.78-72.97-50.78-123.56c0-27.12,5.38-55.6,15.57-82.36
					c10.9-28.64,26.72-54.47,47.01-76.77C112.19,59.74,171.76,16.95,270.08,16.95 M270.08,5.65C92.22,5.65,5.65,142.28,5.65,254.76
					c0,110.72,80.09,180.8,195.52,180.8c87.75,0,147.82-35.92,189.04-90.11l-95.4-75.38c-22.38,27.68-48.29,42.99-80.09,42.99
					c-36.51,0-64.78-25.32-64.78-70.67c0-56.54,40.05-113.07,101.88-113.07c31.21,0,55.36,16.49,64.19,50.06l123.08-53.59
					C422.02,52.76,359,5.65,270.08,5.65L270.08,5.65z"/>
			</g>
			<g>
				
					<linearGradient id="SVGID_00000068635756471104390860000006354021443573577893_" gradientUnits="userSpaceOnUse" x1="653.4431" y1="434.9741" x2="653.4431" y2="6.2408">
					<stop  offset="0" style="stop-color:#3636FF"/>
					<stop  offset="0.2743" style="stop-color:#1E8FFF"/>
					<stop  offset="0.3242" style="stop-color:#FFFFFF"/>
					<stop  offset="0.3672" style="stop-color:#16ACFF"/>
					<stop  offset="0.6966" style="stop-color:#0BD7FF"/>
					<stop  offset="0.7383" style="stop-color:#C1FFFF"/>
					<stop  offset="0.807" style="stop-color:#07E6FF"/>
					<stop  offset="1" style="stop-color:#00FFFF"/>
				</linearGradient>
				<path style="fill:url(#SVGID_00000068635756471104390860000006354021443573577893_);" d="M672.29,17.54
					c28.28,0,54.95,4.59,79.26,13.64c23.25,8.65,43.78,21.15,61.01,37.16c34.41,31.96,53.37,76.2,53.37,124.59
					c0,29.95-5.92,59.35-17.58,87.39c-11.44,27.48-27.8,52.27-48.63,73.67c-43.75,44.93-102.39,69.68-165.12,69.68
					c-28.28,0-54.95-4.59-79.26-13.64c-23.25-8.65-43.78-21.15-61.01-37.16c-34.41-31.96-53.37-76.2-53.37-124.59
					c0-29.95,5.92-59.35,17.58-87.39c11.44-27.48,27.8-52.27,48.63-73.67C550.92,42.29,609.56,17.54,672.29,17.54 M644.02,324.96
					c30.11,0,57.76-13.85,77.88-38.99c17.95-22.44,28.24-51.84,28.24-80.68c0-25.11-7.75-46.84-22.4-62.85
					c-15.69-17.14-38.13-26.2-64.87-26.2c-30.11,0-57.76,13.85-77.88,38.99c-17.95,22.44-28.24,51.84-28.24,80.68
					c0,25.11,7.75,46.84,22.4,62.85C594.84,315.9,617.27,324.96,644.02,324.96 M672.29,6.24c-138.4,0-242.63,114.25-242.63,242.05
					c0,105.41,83.63,186.69,204.94,186.69c138.4,0,242.63-114.25,242.63-242.05C877.23,87.51,793.61,6.24,672.29,6.24L672.29,6.24z
					 M644.02,313.66c-49.47,0-75.97-34.16-75.97-77.74c0-51.83,37.1-108.36,94.82-108.36c49.47,0,75.97,34.16,75.97,77.74
					C738.84,257.12,701.74,313.66,644.02,313.66L644.02,313.66z"/>
			</g>
			<g>
				
					<linearGradient id="SVGID_00000035509400419394859440000008471447305824579459_" gradientUnits="userSpaceOnUse" x1="1142.2373" y1="426.7301" x2="1142.2373" y2="14.4849">
					<stop  offset="0" style="stop-color:#3636FF"/>
					<stop  offset="0.2743" style="stop-color:#1E8FFF"/>
					<stop  offset="0.3242" style="stop-color:#FFFFFF"/>
					<stop  offset="0.3672" style="stop-color:#16ACFF"/>
					<stop  offset="0.6966" style="stop-color:#0BD7FF"/>
					<stop  offset="0.7383" style="stop-color:#C1FFFF"/>
					<stop  offset="0.807" style="stop-color:#07E6FF"/>
					<stop  offset="1" style="stop-color:#00FFFF"/>
				</linearGradient>
				<path style="fill:url(#SVGID_00000035509400419394859440000008471447305824579459_);" d="M1414.89,25.79l-104.65,389.64h-113.82
					l50.96-190.13l11.97-44.66l-31.22,34.1l-123.52,134.9l-49.55-131.26l-12.4-32.85l-9.09,33.92l-52.52,195.98H869.58L974.23,25.79
					h119.29l46.86,137.23l6.31,18.48l12.88-14.67L1283.4,25.79H1414.89 M1429.63,14.48h-151.35l-127.21,144.88L1101.6,14.48H965.56
					L854.84,426.73h134.86l54.77-204.36l55.36,146.64h2.36l134.27-146.64l-54.77,204.36h137.22L1429.63,14.48L1429.63,14.48z"/>
			</g>
			<g>
				
					<linearGradient id="SVGID_00000013908845397898271730000001646793755485465516_" gradientUnits="userSpaceOnUse" x1="1580.9719" y1="426.73" x2="1580.9719" y2="14.4849">
					<stop  offset="0" style="stop-color:#3636FF"/>
					<stop  offset="0.2743" style="stop-color:#1E8FFF"/>
					<stop  offset="0.3242" style="stop-color:#FFFFFF"/>
					<stop  offset="0.3672" style="stop-color:#16ACFF"/>
					<stop  offset="0.6966" style="stop-color:#0BD7FF"/>
					<stop  offset="0.7383" style="stop-color:#C1FFFF"/>
					<stop  offset="0.807" style="stop-color:#07E6FF"/>
					<stop  offset="1" style="stop-color:#00FFFF"/>
				</linearGradient>
				<path style="fill:url(#SVGID_00000013908845397898271730000001646793755485465516_);" d="M1612.77,25.79
					c71.3,0,116.05,12.96,145.13,42.04c19.02,19.02,29.08,44.97,29.08,75.04c0,99.1-75.55,160.66-197.17,160.66h-58.3h-8.67
					l-2.25,8.37l-27.79,103.52h-114.4l104.65-389.64H1612.77 M1543.35,227.79H1558h24.73c27.64,0,49.47-6.08,64.87-18.06
					c15.04-11.7,22.99-28.3,22.99-48.01c0-11.96-4.86-23.67-13.32-32.14c-6.07-6.07-20.55-16.27-49.22-16.27h-25.91h-8.72
					l-2.22,8.43l-24.15,91.87L1543.35,227.79 M1612.77,14.48h-138.4l-110.72,412.25h137.81l30.03-111.89h58.3
					c130.74,0,208.48-68.91,208.48-171.97c0-32.39-10.6-61.25-32.39-83.04C1735.27,29.21,1688.74,14.48,1612.77,14.48L1612.77,14.48
					z M1558,216.48l24.15-91.87h25.91c15.31,0,31.8,3.53,41.22,12.96c6.48,6.48,10.01,15.31,10.01,24.15
					c0,31.21-24.15,54.77-76.56,54.77H1558L1558,216.48z"/>
			</g>
			<g>
				
					<linearGradient id="SVGID_00000132057011715648450980000005883481058648254367_" gradientUnits="userSpaceOnUse" x1="2034.1348" y1="434.9741" x2="2034.1348" y2="14.4849">
					<stop  offset="0" style="stop-color:#3636FF"/>
					<stop  offset="0.2743" style="stop-color:#1E8FFF"/>
					<stop  offset="0.3242" style="stop-color:#FFFFFF"/>
					<stop  offset="0.3672" style="stop-color:#16ACFF"/>
					<stop  offset="0.6966" style="stop-color:#0BD7FF"/>
					<stop  offset="0.7383" style="stop-color:#C1FFFF"/>
					<stop  offset="0.807" style="stop-color:#07E6FF"/>
					<stop  offset="1" style="stop-color:#00FFFF"/>
				</linearGradient>
				<path style="fill:url(#SVGID_00000132057011715648450980000005883481058648254367_);" d="M2255.25,25.79l-61.53,228.4
					c-14.04,52.23-34.27,91.03-61.86,118.62c-17.29,17.29-39.83,30.36-67.01,38.87c-25.44,7.96-55.09,12-88.13,12
					c-27.51,0-52.27-3.24-73.58-9.63c-20.47-6.13-37.91-15.22-51.85-27.01c-27.68-23.41-41.71-57.22-41.71-100.47
					c0-20.61,2.92-42.62,8.45-63.64l53.1-197.14h116.75L1934,225.91l-0.03,0.1l-0.02,0.1c-3.35,13.4-5.05,25.22-5.05,35.13
					c0,40.12,24.73,63.13,67.84,63.13c20.49,0,39.01-7.24,52.16-20.39c14.23-14.23,23.3-32.47,32.34-65.04l0.01-0.05l0.01-0.05
					l57.23-213.06H2255.25 M2270,14.48h-140.16l-59.48,221.43c-8.83,31.8-17.08,47.7-29.45,60.07
					c-11.19,11.19-27.09,17.08-44.17,17.08c-36.51,0-56.54-17.67-56.54-51.82c0-9.42,1.77-20.61,4.71-32.39l57.71-214.37h-140.16
					l-55.36,205.53c-5.89,22.38-8.83,45.35-8.83,66.55c0,93.05,62.42,148.41,178.44,148.41c65.37,0,124.26-15.31,163.13-54.18
					c28.86-28.86,50.06-68.91,64.78-123.67L2270,14.48L2270,14.48z"/>
			</g>
			<g>
				
					<linearGradient id="SVGID_00000153691493786461728340000005631366374181101464_" gradientUnits="userSpaceOnUse" x1="2469.9246" y1="426.73" x2="2469.9246" y2="14.4849">
					<stop  offset="0" style="stop-color:#3636FF"/>
					<stop  offset="0.2743" style="stop-color:#1E8FFF"/>
					<stop  offset="0.3242" style="stop-color:#FFFFFF"/>
					<stop  offset="0.3672" style="stop-color:#16ACFF"/>
					<stop  offset="0.6966" style="stop-color:#0BD7FF"/>
					<stop  offset="0.7383" style="stop-color:#C1FFFF"/>
					<stop  offset="0.807" style="stop-color:#07E6FF"/>
					<stop  offset="1" style="stop-color:#00FFFF"/>
				</linearGradient>
				<path style="fill:url(#SVGID_00000153691493786461728340000005631366374181101464_);" d="M2661.03,25.79l-25.16,94h-112.64
					h-8.67l-2.25,8.37l-77.25,287.27h-114.4l75.68-281.4l3.83-14.24h-14.74h-106.59l25.16-94H2661.03 M2675.75,14.48h-380.44
					l-31.21,116.61h121.32l-79.5,295.64h137.81l79.5-295.64h121.32L2675.75,14.48L2675.75,14.48z"/>
			</g>
			<g>
				
					<linearGradient id="SVGID_00000176027820309067684100000003013088030339443604_" gradientUnits="userSpaceOnUse" x1="2826.2126" y1="426.73" x2="2826.2126" y2="14.4849">
					<stop  offset="0" style="stop-color:#3636FF"/>
					<stop  offset="0.2743" style="stop-color:#1E8FFF"/>
					<stop  offset="0.3242" style="stop-color:#FFFFFF"/>
					<stop  offset="0.3672" style="stop-color:#16ACFF"/>
					<stop  offset="0.6966" style="stop-color:#0BD7FF"/>
					<stop  offset="0.7383" style="stop-color:#C1FFFF"/>
					<stop  offset="0.807" style="stop-color:#07E6FF"/>
					<stop  offset="1" style="stop-color:#00FFFF"/>
				</linearGradient>
				<path style="fill:url(#SVGID_00000176027820309067684100000003013088030339443604_);" d="M3042.59,25.79l-24.5,90.47h-207.48
					h-8.68l-2.24,8.38l-11.19,41.81l-3.81,14.23h14.73h186.7l-20.48,76.92h-192.72h-8.6l-2.29,8.29l-12.37,44.76l-3.95,14.31h14.85
					h204.38l-24.03,90.47h-331.1l104.65-389.64H3042.59 M3057.36,14.48h-351.59l-110.72,412.25h354.53l30.03-113.07h-219.08
					l12.37-44.76h201.41l26.5-99.53h-201.41l11.19-41.81h216.13L3057.36,14.48L3057.36,14.48z"/>
			</g>
			<g>
				
					<linearGradient id="SVGID_00000034796175959776772250000002861697892688095637_" gradientUnits="userSpaceOnUse" x1="3219.3032" y1="426.73" x2="3219.3032" y2="14.4849">
					<stop  offset="0" style="stop-color:#3636FF"/>
					<stop  offset="0.2743" style="stop-color:#1E8FFF"/>
					<stop  offset="0.3242" style="stop-color:#FFFFFF"/>
					<stop  offset="0.3672" style="stop-color:#16ACFF"/>
					<stop  offset="0.6966" style="stop-color:#0BD7FF"/>
					<stop  offset="0.7383" style="stop-color:#C1FFFF"/>
					<stop  offset="0.807" style="stop-color:#07E6FF"/>
					<stop  offset="1" style="stop-color:#00FFFF"/>
				</linearGradient>
				<path style="fill:url(#SVGID_00000034796175959776772250000002861697892688095637_);" d="M3262.88,25.79
					c68.4,0,116.84,13.75,143.95,40.86c9.84,9.84,17.29,21.71,22.16,35.28c4.59,12.8,6.92,27.17,6.92,42.71
					c0,45.97-18.55,106.55-106.9,134.08l-11.84,3.69l4.77,11.45l50.61,121.57h-123.73l-43.13-110.59l-2.81-7.2h-7.72H3161h-8.66
					l-2.26,8.36l-29.55,109.43h-114.41l104.65-389.64H3262.88 M3172.15,221.9h14.76h50.06c24.1,0,44.47-5.53,58.9-15.99
					c14.5-10.51,22.48-25.58,22.48-42.42c0-11.37-4.31-21.95-12.14-29.79c-10.01-10.01-26.37-15.09-48.63-15.09h-48.88h-8.66
					l-2.26,8.36L3176,207.65L3172.15,221.9 M3262.88,14.48h-160.78l-110.72,412.25h137.81l31.8-117.78h34.16l45.94,117.78h148.41
					l-57.13-137.22c81.27-25.32,114.84-80.68,114.84-144.87c0-32.39-9.42-63.02-32.39-85.98
					C3387.15,30.98,3338.85,14.48,3262.88,14.48L3262.88,14.48z M3186.91,210.6l21.79-80.68h48.88c19.43,0,32.98,4.12,40.64,11.78
					c5.89,5.89,8.83,13.54,8.83,21.79c0,25.91-24.15,47.11-70.08,47.11H3186.91L3186.91,210.6z"/>
			</g>
			<g>
				
					<linearGradient id="SVGID_00000098178939847972879010000010453232034775240589_" gradientUnits="userSpaceOnUse" x1="3626.1624" y1="434.9741" x2="3626.1624" y2="6.2408">
					<stop  offset="0" style="stop-color:#3636FF"/>
					<stop  offset="0.2743" style="stop-color:#1E8FFF"/>
					<stop  offset="0.3242" style="stop-color:#FFFFFF"/>
					<stop  offset="0.3672" style="stop-color:#16ACFF"/>
					<stop  offset="0.6966" style="stop-color:#0BD7FF"/>
					<stop  offset="0.7383" style="stop-color:#C1FFFF"/>
					<stop  offset="0.807" style="stop-color:#07E6FF"/>
					<stop  offset="1" style="stop-color:#00FFFF"/>
				</linearGradient>
				<path style="fill:url(#SVGID_00000098178939847972879010000010453232034775240589_);" d="M3660.91,17.54
					c34.83,0,68.15,5.37,99.03,15.95c25.88,8.87,48.93,21,68.67,36.13l-64.57,77.1c-15.06-11.01-31.76-20.38-48.87-27.36
					c-23.27-9.49-46.28-14.31-68.39-14.31c-37.31,0-41.34,19.44-41.34,27.79c0,10.47,4.65,17.52,15.55,23.56
					c8.56,4.75,22.1,9.75,46.67,18.84c3.48,1.29,7.18,2.66,11.12,4.12c38.62,14.28,63.28,27.53,79.94,42.96
					c18.77,17.39,27.52,37.98,27.52,64.81c0,19.04-3.86,37-11.47,53.36c-7.63,16.41-18.87,30.88-33.42,43
					c-31.5,26.27-76.63,40.15-130.5,40.15c-38.32,0-75.16-6.61-109.5-19.66c-28.97-11-55.12-26.15-77.88-45.09l64.65-77.19
					c45.01,35.26,92.34,53.82,137.46,53.82c10.87,0,20.33-2.16,27.34-6.25c9.03-5.27,14-13.55,14-23.31
					c0-11.48-4.92-19.01-16.98-25.98c-10.02-5.8-26.72-12.38-58.13-24.08c-40.91-15.11-65.14-28.08-81.02-43.4
					c-16.65-16.06-24.07-35.18-24.07-62.02c0-35.9,16.47-68.98,46.38-93.17c15.42-12.47,33.87-22.22,54.86-29
					C3610.18,21.18,3634.73,17.54,3660.91,17.54 M3660.91,6.24c-112.48,0-185.51,64.78-185.51,144.28
					c0,60.66,35.92,87.75,112.48,116.02c60.07,22.38,67.73,26.5,67.73,39.46c0,11.78-12.37,18.26-30.04,18.26
					c-43.58,0-91.87-18.85-138.99-58.3l-78.92,94.23c50.06,45.35,121.32,74.79,203.18,74.79c118.37,0,186.69-64.78,186.69-147.82
					c0-63.01-44.76-92.46-114.84-118.37c-57.12-21.2-65.96-23.56-65.96-35.93c0-11.78,12.37-16.49,30.04-16.49
					c43.58,0,87.75,20.61,118.96,45.93l78.92-94.23C3799.89,29.8,3734.52,6.24,3660.91,6.24L3660.91,6.24z"/>
			</g>
		</g>
	</g>
</g>
</svg>
