<?xml version="1.0" encoding="utf-8"?>
<!-- Generator: Adobe Illustrator 25.2.3, SVG Export Plug-In . SVG Version: 6.00 Build 0)  -->
<svg version="1.1" id="Layer_1" xmlns="http://www.w3.org/2000/svg" xmlns:xlink="http://www.w3.org/1999/xlink" x="0px" y="0px"
	 viewBox="0 0 3839 1144.19" style="enable-background:new 0 0 3839 1144.19;" xml:space="preserve">
<style type="text/css">
	.st0{fill:#CF1E00;}
	.st1{fill:#FFCD2C;}
	.st2{fill:#FF6D00;}
	.st3{fill:#00A022;}
	.st4{fill:#0066BB;}
	.st5{fill:#FFFFFF;}
</style>
<g>
	<g>
		<g>
			<polygon points="543.69,896.58 335.7,896.58 335.7,385.92 420.07,385.92 420.07,300.64 147.32,300.64 147.32,385.92 
				235.61,385.92 235.61,896.58 147.32,896.58 147.32,981.85 635.92,981.85 635.92,664.82 543.69,664.82 			"/>
		</g>
		<g>
			<polygon points="2439.16,896.58 2260.6,629.71 2424.46,385.92 2507.84,385.92 2507.84,300.64 2251.77,300.64 2251.77,385.92 
				2329.28,385.92 2212.53,558.48 2097.72,385.92 2172.29,385.92 2172.29,300.64 1907.43,300.64 1904.45,300.64 1633.68,300.64 
				1633.68,385.92 1726.9,385.92 1726.9,830.36 1724.93,830.36 1436.47,300.64 1214.77,300.64 1208.84,300.64 948.88,300.64 
				948.88,385.92 1032.27,385.92 897.86,595.6 751.66,385.92 835.06,385.92 835.06,300.64 561.33,300.64 561.33,385.92 
				642.76,385.92 840.95,671.85 840.95,896.58 751.66,896.58 751.66,981.85 1032.27,981.85 1032.27,896.58 941.04,896.58 
				941.04,671.85 1126.47,385.92 1208.84,385.92 1214.77,385.92 1304.02,385.92 1304.02,896.58 1208.84,896.58 1208.84,981.85 
				1482.59,981.85 1482.59,896.58 1386.44,896.58 1386.44,406.99 1388.39,406.99 1704.33,988.88 1809.31,988.88 1809.31,385.92 
				1904.45,385.92 1907.43,385.92 1990.77,385.92 2159.54,638.74 1990.77,896.58 1900.51,896.58 1900.51,981.85 2166.4,981.85 
				2166.4,896.58 2085.94,896.58 2207.61,711.97 2329.28,896.58 2251.77,896.58 2251.77,981.85 2525.5,981.85 2525.5,896.58 			"/>
		</g>
	</g>
	<g>
		<g>
			<rect x="2547.38" y="494.58" width="227.82" height="33.41"/>
		</g>
		<g>
			<rect x="2547.38" y="755.81" width="227.82" height="16.7"/>
		</g>
		<g>
			<rect x="2513.98" y="527.99" width="33.41" height="227.82"/>
		</g>
		<g>
			<rect x="2775.2" y="527.99" width="33.41" height="227.82"/>
		</g>
	</g>
	<g>
		<g>
			<rect x="2748.08" y="160.44" width="227.82" height="33.41"/>
		</g>
		<g>
			<rect x="2748.08" y="421.67" width="227.82" height="16.7"/>
		</g>
		<g>
			<rect x="2714.68" y="193.85" width="33.41" height="227.82"/>
		</g>
		<g>
			<rect x="2975.9" y="193.85" width="33.41" height="227.82"/>
		</g>
	</g>
	<g>
		<g>
			<rect x="3099.58" y="109.45" width="227.82" height="33.41"/>
		</g>
		<g>
			<rect x="3099.58" y="370.68" width="227.82" height="16.7"/>
		</g>
		<g>
			<rect x="3066.17" y="142.86" width="33.41" height="227.82"/>
		</g>
		<g>
			<rect x="3327.4" y="142.86" width="33.41" height="227.82"/>
		</g>
	</g>
	<g>
		<g>
			<rect x="3430.46" y="324.26" width="227.82" height="33.41"/>
		</g>
		<g>
			<rect x="3430.46" y="585.48" width="227.82" height="16.7"/>
		</g>
		<g>
			<rect x="3397.05" y="357.66" width="33.41" height="227.82"/>
		</g>
		<g>
			<rect x="3658.28" y="357.66" width="33.41" height="227.82"/>
		</g>
	</g>
	<g>
		<g>
			<rect x="2878.26" y="641.9" width="450.22" height="34.72"/>
		</g>
		<g>
			<rect x="2843.55" y="676.61" width="34.72" height="450.22"/>
		</g>
		<g>
			<rect x="3328.48" y="676.61" width="34.72" height="450.22"/>
		</g>
		<g>
			<rect x="2878.26" y="1126.83" width="450.22" height="17.36"/>
		</g>
	</g>
	<g>
		<g>
			<path d="M995.57,84.23c14.2,27,29.06,54.7,44.58,83.11c2.01-3.83,4.93-9.32,8.76-16.47c3.83-7.15,8.26-15.36,13.3-24.63
				c5.03-9.26,10.43-19.29,16.17-30.07c5.74-10.78,11.58-21.71,17.53-32.79c5.94-11.08,11.83-21.96,17.68-32.64
				c5.84-10.68,11.28-20.65,16.32-29.92h3.93c2.21,19.34,4.28,38.03,6.2,56.06c1.91,18.03,3.88,35.77,5.89,53.19
				c2.01,17.43,4.03,34.66,6.04,51.68c2.01,17.03,4.23,33.9,6.65,50.62c-2.42-0.41-4.79-0.6-7.1-0.6c-2.32,0-4.68,0-7.1,0
				c-2.42,0-4.79,0-7.1,0c-2.32,0-4.68,0.2-7.1,0.6c-2.22-26.79-4.43-52.79-6.65-77.97c-2.22-25.18-4.94-50.87-8.16-77.07h-0.6
				c-13.9,25.39-27.55,50.62-40.95,75.71c-13.4,25.08-26.14,51.33-38.23,78.73h-2.72c-12.09-25.39-24.74-50.82-37.93-76.31
				c-13.2-25.49-26.44-51.53-39.74-78.13h-0.6c-1.41,12.49-2.98,26.04-4.68,40.65c-1.71,14.61-3.28,29.01-4.68,43.22
				c-1.41,14.2-2.62,27.61-3.63,40.2c-1.01,12.59-1.51,22.92-1.51,30.98c-3.23-0.41-6.75-0.6-10.58-0.6c-3.83,0-7.36,0.2-10.58,0.6
				c2.62-16.32,5.34-33.55,8.16-51.68c2.82-18.13,5.54-36.37,8.16-54.7c2.62-18.33,5.03-36.42,7.25-54.25
				c2.21-17.83,4.13-34.8,5.74-50.93h5.14C967.31,29.42,981.36,57.23,995.57,84.23z"/>
		</g>
		<g>
			<path d="M1190.65,83.02c0-13.3-0.26-26.34-0.76-39.14c-0.51-12.79-1.06-25.84-1.66-39.14c4.84,0.41,9.72,0.76,14.66,1.06
				c4.93,0.3,9.82,0.45,14.66,0.45c2.42,0,5.34-0.1,8.77-0.3c3.42-0.2,6.9-0.35,10.43-0.45c3.52-0.1,6.9-0.25,10.12-0.45
				c3.22-0.2,5.94-0.3,8.16-0.3c3.02,0,6.75,0.1,11.18,0.3c4.43,0.2,9.11,0.81,14.05,1.81c4.93,1.01,9.82,2.52,14.66,4.53
				c4.84,2.02,9.22,4.94,13.15,8.76c3.93,3.83,7.1,8.61,9.52,14.36c2.42,5.74,3.63,12.84,3.63,21.31c0,13.3-2.87,24.08-8.61,32.34
				c-5.74,8.26-12.8,14.71-21.16,19.34c-8.36,4.64-17.23,7.76-26.6,9.37c-9.37,1.62-17.68,2.42-24.93,2.42
				c-4.64,0-8.87-0.05-12.69-0.15c-3.83-0.1-7.76-0.35-11.79-0.76V135c0,13.3,0.25,26.4,0.76,39.29c0.5,12.9,1.06,25.59,1.66,38.08
				c-4.64-0.41-9.57-0.6-14.81-0.6c-5.24,0-10.18,0.2-14.81,0.6c0.6-12.49,1.16-25.18,1.66-38.08c0.5-12.89,0.76-25.99,0.76-39.29
				V83.02z M1215.44,105.68c6.85,1.62,14,2.42,21.46,2.42c6.24,0,12.69-0.7,19.34-2.12c6.65-1.41,12.74-3.98,18.28-7.71
				c5.54-3.73,10.07-8.86,13.6-15.41c3.52-6.55,5.29-14.96,5.29-25.24c0-8.66-1.21-15.72-3.63-21.16
				c-2.42-5.44-5.79-9.67-10.12-12.69c-4.33-3.02-9.62-5.09-15.87-6.2c-6.25-1.1-13.3-1.66-21.16-1.66h-27.2V105.68z"/>
		</g>
		<g>
			<path d="M1504.06,102.96c0-28.61-0.1-50.67-0.3-66.19c-0.2-15.51-0.71-26.19-1.51-32.04c2.21,0.41,4.33,0.76,6.35,1.06
				c2.01,0.3,4.03,0.45,6.04,0.45c2.62,0,5.64-0.5,9.07-1.51c-0.6,7.06-1.21,15.47-1.81,25.24c-0.6,9.78-1.11,20.25-1.51,31.43
				c-0.41,11.18-0.81,22.67-1.21,34.45c-0.41,11.79-0.71,23.22-0.91,34.3c-0.2,13.5-2.27,25.59-6.2,36.27
				c-3.93,10.68-9.52,19.75-16.77,27.2c-7.25,7.46-16.17,13.1-26.75,16.92c-10.58,3.83-22.72,5.74-36.42,5.74
				c-30.22,0-52.19-6.85-65.89-20.55c-13.7-13.7-20.55-35.36-20.55-64.98c0-9.47,0.25-17.88,0.76-25.24
				c0.5-7.35,0.76-14.86,0.76-22.52c0-16.92-0.2-31.93-0.6-45.03c-0.41-13.09-0.81-24.18-1.21-33.24c2.42,0.41,5.03,0.76,7.86,1.06
				c2.82,0.3,5.44,0.45,7.86,0.45c2.21,0,4.38-0.15,6.5-0.45s4.28-0.65,6.5-1.06c-0.41,4.43-0.81,10.23-1.21,17.38
				c-0.41,7.15-0.81,15.26-1.21,24.33c-0.41,9.07-0.71,18.84-0.91,29.32c-0.2,10.48-0.3,21.36-0.3,32.64c0,6.85,0.1,13.95,0.3,21.31
				c0.2,7.36,0.91,14.51,2.12,21.46c1.21,6.95,3.17,13.6,5.89,19.95c2.72,6.35,6.6,11.89,11.64,16.62
				c5.03,4.74,11.38,8.46,19.04,11.18c7.65,2.72,17.12,4.08,28.41,4.08c11.08,0,20.4-1.61,27.96-4.84
				c7.56-3.22,13.75-7.45,18.59-12.69c4.84-5.24,8.61-11.28,11.33-18.13c2.72-6.85,4.68-14,5.89-21.46
				c1.21-7.45,1.91-14.91,2.12-22.36C1503.96,116.06,1504.06,109.21,1504.06,102.96z"/>
		</g>
		<g>
			<path d="M1610.75,20.46c-5.24,0-10.73,0.05-16.47,0.15c-5.74,0.1-11.48,0.3-17.23,0.6c-5.74,0.3-11.29,0.66-16.62,1.06
				c-5.34,0.41-10.12,0.91-14.36,1.51c1.01-3.63,1.51-6.85,1.51-9.67c0-2.21-0.51-5.34-1.51-9.37c13.3,0.41,26.29,0.76,38.99,1.06
				c12.69,0.3,25.69,0.45,38.99,0.45c13.3,0,26.29-0.15,38.99-0.45c12.69-0.3,25.69-0.65,38.99-1.06c-1.01,4.03-1.51,7.25-1.51,9.67
				c0,2.62,0.5,5.74,1.51,9.37c-4.23-0.6-9.02-1.11-14.36-1.51c-5.34-0.4-10.88-0.76-16.62-1.06c-5.74-0.3-11.48-0.5-17.23-0.6
				c-5.74-0.1-11.23-0.15-16.47-0.15c-0.6,20.75-0.91,41.61-0.91,62.56V135c0,13.3,0.25,26.4,0.76,39.29
				c0.5,12.9,1.06,25.59,1.66,38.08c-4.64-0.41-9.57-0.6-14.81-0.6c-5.24,0-10.18,0.2-14.81,0.6c0.6-12.49,1.16-25.18,1.66-38.08
				c0.5-12.89,0.76-25.99,0.76-39.29V83.02C1611.65,62.06,1611.35,41.21,1610.75,20.46z"/>
		</g>
		<g>
			<path d="M1724.84,43.43c-0.51-12.89-1.06-25.79-1.66-38.68c9.07,0.41,18.08,0.76,27.05,1.06c8.96,0.3,17.98,0.45,27.05,0.45
				c9.07,0,18.03-0.15,26.9-0.45c8.86-0.3,17.83-0.65,26.9-1.06c-0.6,3.02-0.91,6.04-0.91,9.07s0.3,6.04,0.91,9.07
				c-6.45-0.4-12.34-0.8-17.68-1.21c-5.34-0.4-10.98-0.8-16.92-1.21c-5.95-0.4-12.44-0.76-19.49-1.06
				c-7.06-0.3-15.52-0.45-25.39-0.45c-0.2,6.45-0.45,12.59-0.76,18.44c-0.3,5.85-0.45,12.49-0.45,19.95
				c0,7.86,0.05,15.52,0.15,22.97c0.1,7.46,0.15,13.1,0.15,16.92c8.86,0,16.82-0.1,23.88-0.3c7.05-0.2,13.5-0.45,19.34-0.76
				c5.84-0.3,11.23-0.6,16.17-0.91c4.93-0.3,9.62-0.65,14.05-1.06c-0.6,3.02-0.91,6.15-0.91,9.37c0,3.02,0.3,6.04,0.91,9.07
				c-5.24-0.6-11.33-1.1-18.29-1.51c-6.95-0.4-13.9-0.65-20.85-0.76c-6.95-0.1-13.5-0.2-19.64-0.3c-6.15-0.1-11.03-0.15-14.66-0.15
				c0,1.81-0.05,3.78-0.15,5.89c-0.1,2.12-0.15,4.79-0.15,8.01v11.79v18.13c0,11.48,0.05,20.96,0.15,28.41
				c0.1,7.46,0.25,13.1,0.45,16.92c6.65,0,13.7,0,21.16,0c7.66,0,15.16-0.15,22.52-0.45c7.35-0.3,14.3-0.7,20.85-1.21
				c6.55-0.5,12.24-1.26,17.08-2.27c-0.41,1.41-0.66,2.98-0.76,4.68c-0.1,1.71-0.15,3.28-0.15,4.68c0,3.23,0.3,5.85,0.91,7.86
				c-9.07-0.41-18.09-0.6-27.05-0.6c-8.97,0-18.09,0-27.35,0c-9.27,0-18.44,0-27.5,0c-9.07,0-18.24,0.2-27.5,0.6
				c0.6-12.89,1.16-25.74,1.66-38.53c0.5-12.79,0.76-25.84,0.76-39.14V82.71C1725.59,69.42,1725.34,56.32,1724.84,43.43z"/>
		</g>
		<g>
			<path d="M1864.62,83.02c0-13.3-0.26-26.34-0.76-39.14c-0.51-12.79-1.06-25.84-1.66-39.14c5.84,0.41,11.58,0.76,17.23,1.06
				c5.64,0.3,11.38,0.45,17.23,0.45c5.84,0,11.58-0.25,17.23-0.76c5.64-0.5,11.38-0.76,17.23-0.76c8.46,0,16.52,0.81,24.18,2.42
				c7.65,1.62,14.36,4.28,20.1,8.01c5.74,3.73,10.28,8.61,13.6,14.66c3.32,6.04,4.99,13.6,4.99,22.67c0,9.67-2.17,17.98-6.5,24.93
				c-4.33,6.95-9.62,12.69-15.87,17.23c-6.25,4.53-12.95,8.06-20.1,10.58c-7.15,2.52-13.65,4.18-19.49,4.99
				c2.42,3.02,5.74,7.25,9.97,12.69c4.23,5.44,8.96,11.44,14.2,17.98c5.24,6.55,10.68,13.4,16.32,20.55
				c5.64,7.15,11.08,14.01,16.32,20.55c5.24,6.55,10.17,12.54,14.81,17.98c4.63,5.44,8.36,9.57,11.18,12.39
				c-3.02-0.41-6.04-0.6-9.07-0.6c-3.02,0-6.04,0-9.07,0c-2.82,0-5.74,0-8.77,0s-5.95,0.2-8.76,0.6
				c-3.02-4.23-7.61-10.58-13.75-19.04c-6.15-8.46-12.95-17.53-20.4-27.2c-7.46-9.67-15.06-19.29-22.82-28.86
				c-7.76-9.57-14.86-17.68-21.31-24.33h-11.48V135c0,13.3,0.25,26.4,0.76,39.29c0.5,12.9,1.06,25.59,1.66,38.08
				c-4.64-0.41-9.57-0.6-14.81-0.6c-5.24,0-10.18,0.2-14.81,0.6c0.6-12.49,1.16-25.18,1.66-38.08c0.5-12.89,0.76-25.99,0.76-39.29
				V83.02z M1889.4,100.24c2.82,0.6,5.89,1.01,9.22,1.21c3.32,0.2,7,0.3,11.03,0.3c6.24,0,12.74-0.7,19.49-2.12
				c6.75-1.41,12.94-3.88,18.59-7.4c5.64-3.52,10.32-8.26,14.05-14.2c3.73-5.94,5.59-13.45,5.59-22.52c0-7.86-1.46-14.36-4.38-19.49
				c-2.92-5.14-6.7-9.22-11.33-12.24c-4.64-3.02-9.67-5.09-15.11-6.2c-5.44-1.1-10.78-1.66-16.02-1.66c-7.05,0-12.9,0.15-17.53,0.45
				c-4.64,0.3-8.57,0.66-11.79,1.06c-0.41,11.08-0.81,22.06-1.21,32.94c-0.41,10.88-0.6,21.76-0.6,32.64V100.24z"/>
		</g>
		<g>
			<path d="M2037.03,184.11c2.72,3.73,6.04,7.1,9.97,10.12c3.93,3.02,8.51,5.49,13.75,7.4c5.24,1.92,11.08,2.87,17.53,2.87
				c6.65,0,12.64-1.16,17.98-3.48c5.34-2.31,9.87-5.44,13.6-9.37c3.73-3.93,6.6-8.56,8.61-13.9c2.01-5.34,3.02-11.03,3.02-17.08
				c0-9.27-2.37-16.62-7.1-22.06c-4.74-5.44-10.63-9.97-17.68-13.6c-7.05-3.63-14.66-6.95-22.82-9.97
				c-8.16-3.02-15.77-6.8-22.82-11.33c-7.05-4.53-12.95-10.32-17.68-17.38c-4.74-7.05-7.1-16.52-7.1-28.41
				c0-8.46,1.51-16.17,4.53-23.12s7.4-12.94,13.15-17.98c5.74-5.03,12.64-8.96,20.7-11.79c8.06-2.82,17.12-4.23,27.2-4.23
				c9.67,0,18.03,1.16,25.08,3.48c7.05,2.32,13.6,5.89,19.64,10.73c-1.81,3.43-3.32,7.06-4.53,10.88
				c-1.21,3.83-2.42,8.67-3.63,14.51h-3.63c-1.01-2.82-2.37-5.89-4.08-9.22c-1.71-3.32-4.03-6.39-6.95-9.22
				c-2.92-2.82-6.4-5.19-10.43-7.1c-4.03-1.91-8.87-2.87-14.51-2.87c-5.64,0-10.83,0.91-15.56,2.72c-4.74,1.81-8.87,4.38-12.39,7.71
				c-3.53,3.32-6.25,7.31-8.16,11.94c-1.92,4.64-2.87,9.67-2.87,15.11c0,9.47,2.37,16.92,7.1,22.36
				c4.73,5.44,10.62,10.03,17.68,13.75c7.05,3.73,14.66,7.06,22.82,9.97c8.16,2.92,15.76,6.5,22.82,10.73
				c7.05,4.23,12.94,9.67,17.68,16.32c4.73,6.65,7.1,15.52,7.1,26.6c0,9.27-1.66,18.03-4.99,26.29
				c-3.32,8.26-8.16,15.47-14.51,21.61c-6.35,6.15-14.11,10.88-23.27,14.2c-9.17,3.32-19.6,4.99-31.28,4.99
				c-12.5,0-22.62-1.66-30.37-4.99c-7.76-3.32-14.26-7.1-19.49-11.33c1.81-4.63,3.07-8.81,3.78-12.54c0.7-3.73,1.36-8.51,1.96-14.36
				h3.63C2032.15,176.71,2034.31,180.39,2037.03,184.11z"/>
		</g>
	</g>
	<g>
		<g>
			<path d="M866.47,190.41c-4.13-9.27-8.75-19.79-13.9-31.59c-5.14-11.78-10.63-24.52-16.48-38.23c-5.83-13.7-11.68-27.5-17.53-41.4
				c-5.85-13.91-11.58-27.65-17.22-41.25C795.7,24.33,790.47,11.69,785.63,0h-5.73c-15.73,36.07-31.35,71.53-46.85,106.39
				c-15.52,34.86-55.84,118.2-72.17,153.46c0.01,0,27.96,0,27.96,0c2.62-9.26,25.36-69.28,30.6-83.5
				c5.24-14.2,11.09-29.16,17.53-44.87c0.01,0,5.76-13.91,5.75-13.91l32.94-76.77c0,0,25.63,57.38,33.55,76.77
				c9.49,23.24,89.16,227.12,90.57,231.75c2.83-0.4,12.25-48.03,15.08-47.63C912.24,296.85,870.6,199.68,866.47,190.41z"/>
		</g>
	</g>
	<g>
		<g>
			<path d="M633.66,204.46c-3.93,1.92-8.67,3.63-14.2,5.14c-5.54,1.51-11.74,2.87-18.59,4.08c-6.85,1.21-14.01,1.81-21.46,1.81
				c-15.92,0-30.63-2.27-44.12-6.8c-13.5-4.53-25.14-11.43-34.91-20.7c-9.78-9.26-17.43-20.6-22.97-34
				c-5.54-13.4-8.31-28.66-8.31-45.79c0-17.12,2.77-32.39,8.31-45.79c5.54-13.4,13.3-24.73,23.27-34
				c9.97-9.26,21.91-16.32,35.81-21.16C550.39,2.42,565.7,0,582.43,0c13.3,0,25.43,1.36,36.42,4.08c10.98,2.72,20.7,6,29.16,9.82
				c-1.61,2.82-2.92,6.65-3.93,11.48c-1.01,4.84-1.81,8.87-2.42,12.09l-1.81,0.6c-2.02-2.42-4.84-5.14-8.46-8.16
				c-3.63-3.02-7.86-5.94-12.69-8.76c-4.84-2.82-10.28-5.19-16.32-7.1c-6.04-1.91-12.69-2.87-19.95-2.87
				c-11.89,0-22.92,1.92-33.09,5.74c-10.18,3.83-19.04,9.72-26.6,17.68c-7.56,7.96-13.45,18.03-17.68,30.22
				c-4.23,12.19-6.35,26.65-6.35,43.37c0,16.73,2.12,31.18,6.35,43.37c4.23,12.19,10.12,22.27,17.68,30.22
				c7.56,7.96,16.42,13.86,26.6,17.68c10.17,3.83,21.2,5.74,33.09,5.74c7.25,0,13.95-0.91,20.1-2.72c6.14-1.81,11.79-3.98,16.92-6.5
				c5.14-2.52,9.77-5.24,13.9-8.16c4.13-2.92,7.6-5.49,10.43-7.71l1.21,1.21l-2.72,17.83C640.46,200.79,637.59,202.55,633.66,204.46
				z"/>
		</g>
	</g>
	<g>
		<g>
			<rect x="941.06" y="245.16" width="1737.37" height="14.68"/>
		</g>
	</g>
	<g>
		<g>
			<rect x="3397.05" y="245.16" width="441.95" height="14.68"/>
		</g>
	</g>
	<g>
		<g>
			<rect x="0" y="245.16" width="683.68" height="14.68"/>
		</g>
	</g>
	<g>
		<polygon points="897.18,340.34 910.68,349.32 952.19,245.16 935.11,245.16 		"/>
	</g>
	<g>
		<rect x="899.77" y="338.41" width="10.91" height="10.91"/>
	</g>
</g>
</svg>
