<?xml version="1.0" encoding="utf-8"?>
<!-- Generator: Adobe Illustrator 25.2.3, SVG Export Plug-In . SVG Version: 6.00 Build 0)  -->
<svg version="1.1" id="Layer_1" xmlns="http://www.w3.org/2000/svg" xmlns:xlink="http://www.w3.org/1999/xlink" x="0px" y="0px"
	 viewBox="0 0 3839 1538.97" style="enable-background:new 0 0 3839 1538.97;" xml:space="preserve">
<style type="text/css">
	.st0{fill:#FF681D;}
	.st1{fill:#FF0000;}
	.st2{fill:url(#SVGID_1_);}
	.st3{fill:url(#SVGID_2_);}
	.st4{fill:#00CFFF;}
	.st5{fill:#004CC6;}
	.st6{fill:url(#SVGID_3_);}
	.st7{fill:url(#SVGID_4_);}
	.st8{fill:#D8D8D8;}
	.st9{fill:url(#SVGID_5_);}
	.st10{fill:url(#SVGID_6_);}
	.st11{fill:url(#SVGID_7_);}
	.st12{fill:#FFFFFF;}
	.st13{fill:url(#SVGID_8_);}
	.st14{fill:url(#SVGID_9_);}
	.st15{fill:url(#SVGID_10_);}
	.st16{fill:url(#SVGID_11_);}
	.st17{fill:url(#SVGID_12_);}
	.st18{fill:url(#SVGID_13_);}
	.st19{fill:url(#SVGID_14_);}
	.st20{fill:#666666;}
	.st21{fill:#999999;}
</style>
<g>
	<g>
		<path d="M152.89,1459.54H40.28v78.01H0v-98.71c0-24.39,2.55-43.97,7.09-53.89c8.23-17.59,23.54-29.22,45.1-33.75
			c10.5-2.27,16.45-2.84,35.46-2.84h65.24v33.75H92.75c-16.17,0-30.63,1.99-37.16,4.82c-10.21,4.82-15.32,14.47-15.32,28.65v10.21
			h112.61L152.89,1459.54L152.89,1459.54z"/>
		<path d="M230.03,1348.35h46.24l78.29,189.2h-47.09l-18.15-43.97h-72.05l-18.15,43.97h-47.37L230.03,1348.35z M226.34,1459.82
			h53.89l-26.95-66.09L226.34,1459.82z"/>
		<path d="M480.48,1496.13l49.64-147.78h58.72v189.2h-38.29v-142.11l-49.64,142.11H459.5l-46.8-142.11v142.11h-38.3v-189.2h59
			L480.48,1496.13z"/>
		<path d="M627.4,1348.35h40.28v189.2H627.4V1348.35z"/>
		<path d="M744.54,1348.35v106.09c1.42,32.9,1.99,34.61,9.36,41.13s15.88,8.23,41.41,8.23h38.58v33.75h-42.83
			c-26.66,0-32.9-0.57-42.55-3.12c-19.29-5.11-33.75-18.15-39.71-36.31c-2.84-8.51-4.54-24.11-4.54-43.68v-106.09L744.54,1348.35
			L744.54,1348.35z"/>
		<path d="M810.63,1348.35H858l43.4,73.75l45.67-73.75h47.65l-73.75,107.79v81.41h-40.28v-82.83L810.63,1348.35z"/>
		<path d="M1229,1537.55h-65.81c-32.62,0-48.22-4.54-62.97-18.72c-16.17-15.6-24.96-41.7-24.96-75.45
			c0-42.55,15.03-74.03,41.7-86.51c10.78-5.11,29.5-8.51,47.94-8.51h64.1v33.75h-59.28c-18.72,0-32.05,5.11-40.28,15.32
			c-6.24,7.66-9.64,22.69-9.64,42.27c0,27.8,5.96,47.37,17.3,55.6c7.37,5.67,18.72,8.51,34.04,8.51H1229V1537.55z"/>
		<path d="M1409.96,1376.15c11.63,15.03,18.44,40.28,18.44,68.64c0,61.84-30.92,93.89-90.48,93.89c-36.31,0-64.96-11.91-79.71-33.19
			c-11.06-15.6-16.45-36.31-16.45-61.84c0-36.02,9.93-63.54,28.65-78.29c14.75-11.91,38.01-18.44,65.52-18.44
			C1368.54,1346.93,1396.06,1357.71,1409.96,1376.15z M1294.79,1397.99c-5.96,9.36-8.79,24.4-8.79,44.54
			c0,44.25,15.32,64.39,49.36,64.39c33.76,0,48.79-20.14,48.79-64.67c0-43.68-15.32-63.25-49.35-63.25
			C1316.92,1378.98,1302.45,1385.79,1294.79,1397.99z"/>
		<path d="M1562.55,1496.13l49.64-147.78h58.72v189.2h-38.29v-142.11l-49.64,142.11h-41.41l-46.8-142.11v142.11h-38.29v-189.2h59
			L1562.55,1496.13z"/>
		<path d="M1749.74,1537.55h-40.28v-189.2h94.46c33.19,0,44.82,3.4,57.3,17.3c11.06,11.91,17.02,27.51,17.02,44.25
			c0,19.86-7.94,38.29-20.99,49.36c-11.06,9.36-21.27,12.2-42.83,12.2h-64.67v66.09H1749.74z M1804.49,1437.7
			c10.78,0,17.02-1.42,21.27-5.39c5.11-4.25,8.23-13.33,8.23-23.83c0-12.48-5.11-21.56-13.9-24.68c-3.12-1.13-8.23-1.7-14.75-1.7
			h-55.6v55.6H1804.49z"/>
		<path d="M1942.33,1461.81c0,18.44,2.84,27.51,10.5,34.6c7.38,6.52,19.85,10.78,32.62,10.78c18.44,0,32.9-6.81,38.01-18.15
			c2.27-5.39,3.4-13.62,3.4-27.23v-113.46h40.28v111.48c0,30.35-6.24,48.79-20.42,60.7c-15.03,12.48-34.89,18.44-62.12,18.44
			c-30.35,0-51.62-6.81-65.24-20.42c-13.05-13.33-17.3-26.95-17.3-55.88v-114.31h40.28L1942.33,1461.81L1942.33,1461.81z"/>
		<path d="M2085.56,1382.1v-33.75h163.1v33.75h-62.4v155.44h-40.28V1382.1H2085.56z"/>
		<path d="M2411.18,1382.1h-52.48c-27.23,0-37.44,3.12-45.67,13.9c-5.67,7.66-6.81,11.91-8.23,30.63h106.37v33.75H2304.8
			c2.84,32.34,17.02,43.4,55.6,43.4h50.77v33.75h-52.48c-40.28,0-59.57-5.39-74.6-21.27c-16.17-16.74-24.96-43.12-24.96-74.6
			c0-33.47,11.06-60.13,32.05-78.01c13.33-11.34,26.38-15.32,51.91-15.32h68.08L2411.18,1382.1L2411.18,1382.1z"/>
		<path d="M2483.22,1537.55h-40.28v-189.2h92.47c28.65,0,45.38,3.12,56.73,11.06c13.33,9.08,20.99,24.39,20.99,41.7
			c0,28.93-11.63,46.8-36.03,55.31c22.13,5.96,32.91,22.98,34.32,52.48c1.42,17.59,1.99,21.56,4.54,28.65h-45.1
			c-1.42-4.25-1.7-5.96-2.27-10.21c-0.57-5.11-1.42-13.05-1.7-16.74c-3.69-34.32-15.6-44.82-51.34-44.82h-32.34v71.77H2483.22z
			 M2539.66,1432.03c20.71,0,28.93-7.66,28.93-26.1c0-11.35-5.11-19.29-13.9-22.41c-3.12-0.85-8.23-1.42-15.03-1.42h-56.45v49.92
			L2539.66,1432.03L2539.66,1432.03z"/>
		<path d="M2716.08,1503.79h86.23c15.03,0,23.26-1.42,28.08-4.54c5.96-3.69,9.36-9.93,9.36-17.3c0-8.79-4.54-16.45-12.2-20.14
			c-3.97-2.27-11.35-3.4-20.42-3.4h-34.89c-22.69,0-37.44-3.97-47.37-12.48c-11.35-9.93-17.87-25.25-17.87-41.41
			c0-24.39,13.05-45.38,32.9-52.19c8.51-3.12,18.44-3.97,40.56-3.97h93.6v33.75h-84.53c-17.87,0.28-19.29,0.28-25.25,1.7
			c-7.94,1.99-12.77,9.36-12.77,19.29c0,8.51,3.97,15.32,10.78,18.44c5.67,2.55,10.21,3.12,23.83,3.12h30.35
			c27.8,0,42.83,4.26,53.89,15.6c8.51,8.51,14.18,25.25,14.18,41.41c0,20.42-9.36,39.15-24.11,48.22
			c-9.36,5.96-21.27,7.66-49.35,7.66h-95.03v-33.76H2716.08z"/>
		<path d="M2893.63,1348.35H2941l43.4,73.75l45.67-73.75h47.65l-73.75,107.79v81.41h-40.28v-82.83L2893.63,1348.35z"/>
		<path d="M3089.63,1503.79h86.23c15.03,0,23.26-1.42,28.08-4.54c5.96-3.69,9.36-9.93,9.36-17.3c0-8.79-4.54-16.45-12.2-20.14
			c-3.97-2.27-11.34-3.4-20.42-3.4h-34.89c-22.69,0-37.44-3.97-47.37-12.48c-11.35-9.93-17.87-25.25-17.87-41.41
			c0-24.39,13.05-45.38,32.9-52.19c8.51-3.12,18.44-3.97,40.56-3.97h93.6v33.75h-84.53c-17.87,0.28-19.29,0.28-25.25,1.7
			c-7.94,1.99-12.77,9.36-12.77,19.29c0,8.51,3.97,15.32,10.78,18.44c5.67,2.55,10.21,3.12,23.83,3.12h30.35
			c27.8,0,42.83,4.26,53.89,15.6c8.51,8.51,14.18,25.25,14.18,41.41c0,20.42-9.36,39.15-24.11,48.22
			c-9.36,5.96-21.27,7.66-49.35,7.66h-95.03v-33.76H3089.63z"/>
		<path d="M3267.75,1382.1v-33.75h163.1v33.75h-62.4v155.44h-40.28V1382.1H3267.75z"/>
		<path d="M3593.37,1382.1h-52.48c-27.23,0-37.44,3.12-45.67,13.9c-5.67,7.66-6.81,11.91-8.23,30.63h106.37v33.75H3487
			c2.84,32.34,17.02,43.4,55.6,43.4h50.77v33.75h-52.48c-40.28,0-59.57-5.39-74.6-21.27c-16.17-16.74-24.96-43.12-24.96-74.6
			c0-33.47,11.06-60.13,32.05-78.01c13.33-11.34,26.38-15.32,51.91-15.32h68.07v33.77H3593.37z"/>
		<path d="M3730.65,1496.13l49.64-147.78H3839v189.2h-38.29v-142.11l-49.64,142.11h-41.41l-46.8-142.11v142.11h-38.29v-189.2h59
			L3730.65,1496.13z"/>
	</g>
	<g>
		<g>
			<path d="M1232.78,422.03h-23.23H947.21l-94.54,206.55h100.85c21.47,0,38.88,17.41,38.88,38.88v564.62h637.2
				c91.56,0,165.78-74.22,165.78-165.78V587.81c0-91.56-74.22-165.78-165.78-165.78L1232.78,422.03L1232.78,422.03z
				 M1539.33,1025.53h-329.79V628.59h23.23h306.56c21.47,0,38.88,17.41,38.88,38.88v319.19
				C1578.21,1008.12,1560.8,1025.53,1539.33,1025.53z"/>
			<path d="M2405.82,422.03h-276.66h-164.53l-94.54,206.55h80.97c27.67,0,46.47,28.12,35.89,53.69l-227.46,549.81h235.01
				l53.28-128.78h404.9l53.28,128.78h235.01L2405.82,422.03z M2133.25,896.75l108.87-263.15c2.99-7.22,13.22-7.22,16.21,0
				l100.21,242.12c4.15,10.01-3.22,21.03-14.05,21.03H2133.25z"/>
			<path d="M646.34,422.03H369.68H205.14L110.6,628.58h80.97c27.67,0,46.47,28.12,35.89,53.69L0,1232.08h235.01l53.28-128.78h404.9
				l53.28,128.78h235.01L646.34,422.03z M373.77,896.75L482.64,633.6c2.99-7.22,13.22-7.22,16.21,0l100.21,242.12
				c4.15,10.01-3.22,21.03-14.05,21.03H373.77z"/>
			<path d="M3442.08,420.68l-147.82,467.18v1.35l-147.82-467.18h-451.86l-94.54,206.55h110.61c21.47,0,38.88,17.41,38.88,38.88
				v564.62h217.16V638.33c0-11.4,16.04-13.87,19.48-3.01l188.82,596.76l238.56-1.35l188.82-596.76c3.44-10.86,19.48-8.39,19.48,3.01
				v593.75H3839V420.68H3442.08z"/>
		</g>
	</g>
	<path d="M2697.18,0.18L2516.61,0c-18.25,0-35.44,4.54-50.54,12.54c-6.42-7.61-16.02-12.45-26.74-12.45L2239.48,0
		c-18.23,0-35.42,4.53-50.5,12.52c-6.42-7.57-15.99-12.38-26.68-12.38l-296.64,0.04c-3,0-5.95,1.25-8.07,3.37
		c-2.17,2.12-3.37,5.03-3.37,8.07v167.77h-64.03V35.24c0-19.33-15.73-35.06-35.06-35.06h-101.91c-5.39,0-9.89,3.73-11.11,8.74
		c-13.03-5.59-27.36-8.7-42.41-8.71l-180.57-0.18c-18.25,0-35.46,4.54-50.56,12.55c-6.42-7.63-16.03-12.48-26.76-12.48l-199.85-0.09
		c-59.7,0-108.23,48.58-108.23,108.23v102.23c0,59.65,48.53,108.23,108.23,108.23l457.6-0.02c29.25,0,55.82-11.66,75.31-30.57
		c19.48,18.89,45.97,30.57,75.13,30.57l158.88-0.32c5.25,0,9.67-3.54,11.01-8.37c13.07,5.61,27.45,8.71,42.55,8.71v0.05h223.43
		c5.39,0,9.89-3.73,11.11-8.74c13.05,5.59,27.42,8.69,42.5,8.69l0,0h223.43c5.39,0,9.89-3.72,11.11-8.73
		c13.08,5.62,27.48,8.73,42.59,8.73v-0.05h180.43c59.7,0,108.23-48.53,108.23-108.23v-102C2805.27,48.8,2756.78,0.27,2697.18,0.18z
		 M2793.87,210.66c0,53.38-43.41,96.79-96.79,96.79h-180.47v0.05c-19.85,0-38.32-6.01-53.7-16.3v16.3h-223.43
		c-19.83,0-38.26-5.96-53.61-16.19v16.23h-223.43v-0.05c-19.81,0-38.22-5.95-53.56-16.16v16.16H1750
		c-30.38,0-57.49-13.99-75.23-35.88c-17.76,21.88-44.85,35.88-75.17,35.88h-171.2h-9.27h-277.17c-53.47,0-96.79-43.32-96.79-96.79
		V108.47c0-53.33,43.41-96.79,96.79-96.79l199.85,0.09c10.52,0,19.43,6.9,22.46,16.44c15.6-10.77,34.5-17.09,54.86-17.09
		l180.57,0.18c19.78,0.02,38.18,6,53.51,16.24V11.75h101.91c13.06,0,23.62,10.75,23.62,23.81v155.38h86.92V11.75h296.64
		c10.64,0,19.64,7.1,22.57,16.83c15.55-10.67,34.37-16.92,54.61-16.92l199.85,0.09c10.67,0,19.69,7.11,22.59,16.87
		c15.57-10.7,34.4-16.97,54.68-16.97l180.57,0.18c53.33,0.05,96.7,43.46,96.7,96.79L2793.87,210.66L2793.87,210.66z"/>
	<path d="M1599.66,39.41l-180.48-0.18c-38.15-0.05-69.11,30.86-69.11,69.02v102.19c0.05,38.11,30.96,69.02,69.06,69.02h180.43
		c38.11,0,69.02-30.91,69.02-69.02v-102C1668.58,70.32,1637.72,39.46,1599.66,39.41z M1598.59,192.16
		c0,14.76-11.99,26.76-26.76,26.76h-125.02c-14.76,0-26.76-12-26.76-26.76v-66.71c0-14.76,11.99-26.76,26.76-26.76h125.02
		c14.76,0,26.76,12,26.76,26.76V192.16z"/>
	<path d="M2697.13,39.42l-180.43-0.18c-38.15-0.05-69.11,30.86-69.11,69.02v102.19c0,38.11,30.91,69.02,69.02,69.02h180.43
		c38.11,0,69.02-30.91,69.02-69.02v-102C2766.05,70.37,2735.19,39.46,2697.13,39.42z M2696.11,192.21
		c0,14.76-11.99,26.76-26.76,26.76h-125.02c-14.76,0-26.76-12-26.76-26.76v-66.75c0-14.76,11.99-26.76,26.76-26.76h125.02
		c14.76,0,26.76,12,26.76,26.76V192.21z"/>
	<path d="M1072.95,108.2v102.19c0,38.15,30.91,69.06,69.02,69.06h195.65v-60.53h-167.93c-14.76,0-26.76-12-26.76-26.76v-66.75
		c0-14.76,11.99-26.76,26.76-26.76h167.93V39.28l-195.61-0.09C1103.9,39.18,1072.95,70.09,1072.95,108.2z"/>
	<path d="M2170.42,108.2v102.19c0.05,38.15,30.96,69.06,69.06,69.06h195.65v-60.53H2267.2c-14.76,0-26.76-12-26.76-26.76v-66.75
		c0-14.76,11.99-26.76,26.76-26.76h167.93V39.28l-195.61-0.09C2201.38,39.14,2170.42,70.05,2170.42,108.2z"/>
	<path d="M1750.97,192.16V39.27h-69.98v171.16c0,38.11,30.86,69.02,69.02,69.02h131.07v-60.53h-103.34
		C1762.97,218.92,1750.97,206.93,1750.97,192.16z"/>
	<path d="M1893.43,210.39c0,38.15,30.86,69.06,69.02,69.06h195.65v-60.53h-176.83c-9.87,0-17.9-8.03-17.9-17.9s8.03-17.9,17.9-17.9
		h160.13v-47.66h-159.62c-10.15,0-18.41-8.26-18.41-18.41s8.26-18.41,18.41-18.41h176.32V39.27l-264.67-0.18V210.39z"/>
</g>
</svg>
