<?xml version="1.0" encoding="utf-8"?>
<!-- Generator: Adobe Illustrator 25.2.3, SVG Export Plug-In . SVG Version: 6.00 Build 0)  -->
<svg version="1.1" id="Layer_1" xmlns="http://www.w3.org/2000/svg" xmlns:xlink="http://www.w3.org/1999/xlink" x="0px" y="0px"
	 viewBox="0 0 3839 479.51" style="enable-background:new 0 0 3839 479.51;" xml:space="preserve">
<style type="text/css">
	.st0{fill:#FF681D;}
	.st1{fill:#FF0000;}
	.st2{fill:url(#SVGID_1_);}
	.st3{fill:url(#SVGID_2_);}
	.st4{fill:#00CFFF;}
	.st5{fill:#004CC6;}
	.st6{fill:url(#SVGID_3_);}
	.st7{fill:url(#SVGID_4_);}
	.st8{fill:#D8D8D8;}
	.st9{fill:url(#SVGID_5_);}
	.st10{fill:url(#SVGID_6_);}
	.st11{fill:url(#SVGID_7_);}
	.st12{fill:#FFFFFF;}
	.st13{fill:url(#SVGID_8_);}
	.st14{fill:url(#SVGID_9_);}
	.st15{fill:url(#SVGID_10_);}
	.st16{fill:url(#SVGID_11_);}
	.st17{fill:url(#SVGID_12_);}
	.st18{fill:url(#SVGID_13_);}
	.st19{fill:url(#SVGID_14_);}
	.st20{fill:#666666;}
	.st21{fill:#999999;}
</style>
<g>
	<g>
		<path d="M2298.8,0.79h-13.73h-155.03l-55.87,122.07h59.6c12.69,0,22.97,10.29,22.97,22.97V479.5h376.56
			c54.11,0,97.97-43.86,97.97-97.97V98.76c0-54.11-43.86-97.97-97.97-97.97L2298.8,0.79L2298.8,0.79z M2479.97,357.44h-194.89
			V122.86h13.73h181.17c12.69,0,22.97,10.29,22.97,22.97v188.63C2502.94,347.15,2492.66,357.44,2479.97,357.44z"/>
		<path d="M2992.04,0.79h-163.5h-97.23l-55.87,122.07h47.85c16.35,0,27.46,16.62,21.21,31.73l-134.42,324.92h138.88l31.49-76.11
			h239.28l31.49,76.11h138.88L2992.04,0.79z M2830.95,281.33l64.34-155.51c1.77-4.27,7.81-4.27,9.58,0l59.22,143.08
			c2.45,5.92-1.9,12.43-8.31,12.43H2830.95z"/>
		<path d="M1952.24,0.79h-163.5h-97.23l-55.87,122.07h47.85c16.35,0,27.46,16.62,21.21,31.73l-134.42,324.92h138.88l31.49-76.11
			h239.28l31.49,76.11h138.88L1952.24,0.79z M1791.16,281.33l64.34-155.51c1.77-4.27,7.81-4.27,9.58,0l59.22,143.08
			c2.45,5.92-1.9,12.43-8.31,12.43H1791.16z"/>
		<path d="M3604.43,0l-87.36,276.09v0.8L3429.71,0.8h-267.03l-55.87,122.07h65.37c12.69,0,22.98,10.29,22.98,22.97v333.67h128.33
			V128.62c0-6.73,9.48-8.2,11.51-1.78l111.59,352.67l140.98-0.8l111.59-352.67c2.03-6.42,11.51-4.96,11.51,1.78v350.89H3839V0
			H3604.43z"/>
	</g>
	<g>
		<g>
			<path class="st20" d="M443.05,145.75V109.7h-86.27v36.05H443.05z"/>
			<path class="st20" d="M1388.55,146.26v-36.05h-86.27v36.05H1388.55z"/>
			<path class="st20" d="M1019.57,369.65V333.6H933.3v36.05H1019.57z"/>
		</g>
		<path d="M1030.28,299.82H922.55c-12.75,0-23.07,10.32-23.07,23.07v57.47c0,12.75,10.32,23.07,23.07,23.07h107.73
			c12.75,0,23.07-10.32,23.07-23.07v-57.47C1053.35,310.14,1042.99,299.82,1030.28,299.82z"/>
		<path d="M453.76,75.92H346.03c-12.75,0-23.07,10.32-23.07,23.07v57.47c0,12.75,10.32,23.07,23.07,23.07h107.73
			c12.75,0,23.07-10.32,23.07-23.07V98.99C476.83,86.28,466.51,75.92,453.76,75.92z"/>
		<g>
			<path d="M1423.23,1.46L1267.67,1.3c-17.5,0-33.74,5.41-47.16,14.67c-2.47-8.4-10.2-14.59-19.42-14.59L1028.94,1.3
				c-17.5,0-33.7,5.41-47.12,14.63c-2.51-8.4-10.2-14.55-19.38-14.55L706.88,1.22v154.5h-74.89V21.86c0-11.22-9.1-20.32-20.32-20.32
				h-87.8V15c-13.22-8.83-29.07-14.01-46.1-14.01l-155.6-0.2c-17.58,0-33.9,5.49-47.35,14.79c-2.63-8.2-10.2-14.2-19.3-14.2
				L83.41,1.3C37.39,1.3,0,38.69,0,84.67v88.04c0,44.41,34.72,80.7,78.46,83.21l128.76,223H307.7l95.81-165.91v145.62
				c0,11.22,9.1,20.32,20.32,20.32h54.89h33.19H689.2c19.34,0,37.15-6.55,51.39-17.58c1.37,9.93,9.77,17.58,20.05,17.58h87.8v-16.32
				c13.97,10.59,31.39,16.87,50.22,16.87h155.48c18.99,0,36.53-6.39,50.57-17.14c1.77,9.46,10,16.6,19.97,16.6h87.8v-155.2h106.01
				V457.9c0,11.14,8.95,20.21,20.09,20.32l88,1.02V308.23c0-19.73-6.87-37.82-18.32-52.1h14.87c45.98,0,83.37-37.39,83.37-83.37
				V84.88C1506.52,38.89,1469.14,1.5,1423.23,1.46z M547.76,25.43h60.26v131.15c0,12.75,10.32,23.07,23.07,23.07h89.06v52.14H607.24
				c-32.84,0-59.48-26.64-59.48-59.48V25.43L547.76,25.43z M23.93,172.71V84.67c0-32.88,26.64-59.48,59.52-59.44l168.5,0.08v51.16
				H107.26c-12.75,0-23.07,10.32-23.07,23.07v57.48c0,12.75,10.32,23.07,23.07,23.07h144.69v52.14H83.37
				C50.53,232.18,23.93,205.55,23.93,172.71z M311.54,256.12l-54.06,93.61l-54.06-93.61H311.54z M293.89,455.02h-72.85
				L102.16,249.13h69.6l85.72,148.46l85.68-148.46h69.6L293.89,455.02z M322.18,231.67c-32.84,0-59.48-26.64-59.48-59.48V84.15
				c0-32.88,26.64-59.48,59.52-59.48l155.48,0.16c32.8,0.04,59.4,26.64,59.4,59.48v87.88c0,32.84-26.64,59.48-59.48,59.48H322.18z
				 M488.01,455.02h-60.57V249.13h60.57V455.02z M749.5,394.76c0,33.27-26.99,60.26-60.26,60.26H502.68v-51.28H676.2
				c7.18,0,13.03-5.81,13.03-13.03c0-7.18-5.81-13.02-13.03-13.02H562.95c-33.27,0-60.26-26.99-60.26-60.26v-8.04
				c0-33.27,26.99-60.26,60.26-60.26h179.92v51.28h-166.9c-7.18,0-13.03,5.85-13.03,13.03c0,7.18,5.81,13.02,13.03,13.02h113.26
				c33.27,0,60.26,26.99,60.26,60.26v8.04H749.5z M730.78,172.71V25.16l228.02,0.16v51.16H806.89c-8.75,0-15.85,7.1-15.85,15.85
				s7.1,15.85,15.85,15.85H944.4v41.08H806.46c-8.51,0-15.42,6.91-15.42,15.42s6.9,15.42,15.42,15.42H958.8v52.14H790.22
				C757.42,232.18,730.78,205.55,730.78,172.71z M824.55,455.02h-60.3V249.13h60.26v205.89H824.55z M1113.61,396.1
				c0,32.84-26.64,59.48-59.48,59.48H898.66c-32.84,0-59.48-26.64-59.48-59.48v-88.04c0-32.88,26.64-59.48,59.52-59.48l155.48,0.16
				c32.8,0.04,59.4,26.64,59.4,59.48v87.88H1113.61z M1028.95,232.18c-32.84,0-59.48-26.64-59.48-59.48V84.66
				c0-32.88,26.64-59.48,59.52-59.48l168.5,0.08v51.16H1052.8c-12.75,0-23.07,10.32-23.07,23.07v57.48
				c0,12.75,10.32,23.07,23.07,23.07h144.69v52.14H1028.95L1028.95,232.18z M1402.64,455.02l-60.26-0.67V322.88
				c0-12.75-10.32-23.07-23.07-23.07h-107.73c-12.75,0-23.07,10.32-23.07,23.07v132.13h-60.26V318.48v-10.44v-59.48h58.18v0.08
				c0.47,0,0.9-0.08,1.33-0.08l155.48,0.16c32.8,0.04,59.4,26.64,59.4,59.48L1402.64,455.02L1402.64,455.02z M1482.59,172.71
				c0,32.84-26.64,59.48-59.48,59.48h-155.48c-32.84,0-59.48-26.64-59.48-59.48V84.67c0-32.88,26.64-59.48,59.52-59.48l155.48,0.16
				c32.8,0.04,59.4,26.64,59.4,59.48v87.88H1482.59z"/>
			<path d="M1399.26,76.43h-107.73c-12.75,0-23.07,10.32-23.07,23.07v57.48c0,12.75,10.32,23.07,23.07,23.07h107.73
				c12.75,0,23.07-10.32,23.07-23.07V99.5C1422.33,86.75,1412.01,76.43,1399.26,76.43z"/>
		</g>
	</g>
</g>
</svg>
