<?xml version="1.0" encoding="utf-8"?>
<!-- Generator: Adobe Illustrator 25.0.0, SVG Export Plug-In . SVG Version: 6.00 Build 0)  -->
<svg version="1.1" id="Layer_1" xmlns="http://www.w3.org/2000/svg" xmlns:xlink="http://www.w3.org/1999/xlink" x="0px" y="0px"
	 viewBox="0 0 3840 381.2" style="enable-background:new 0 0 3840 381.2;" xml:space="preserve">
<style type="text/css">
	.st0{fill-rule:evenodd;clip-rule:evenodd;fill:#3E3632;}
	.st1{fill:#FFFFFF;}
	.st2{fill:#C5C5C5;}
	.st3{fill:#020202;stroke:#000000;stroke-width:4.7839;stroke-linecap:round;stroke-linejoin:round;stroke-miterlimit:10;}
	.st4{clip-path:url(#SVGID_2_);}
	.st5{fill:#243787;stroke:#231F20;stroke-width:0.7973;stroke-linecap:round;stroke-linejoin:round;stroke-miterlimit:10;}
	.st6{fill:#00771F;}
	.st7{fill:#89BC27;}
	.st8{fill:#FCEC01;}
	.st9{fill:#F17100;}
	.st10{fill:#E50069;}
	.st11{clip-path:url(#SVGID_4_);}
	.st12{stroke:#000000;stroke-width:4.7839;stroke-linecap:round;stroke-linejoin:round;stroke-miterlimit:10;}
	.st13{fill:#FFFFFF;stroke:#000000;stroke-width:4.7839;stroke-linecap:round;stroke-linejoin:round;stroke-miterlimit:10;}
	.st14{fill:#020202;}
	.st15{fill:none;stroke:#000000;stroke-width:4.7839;stroke-linecap:round;stroke-linejoin:round;stroke-miterlimit:10;}
	.st16{fill:#EA1E04;stroke:#000000;stroke-width:4.7839;stroke-linecap:round;stroke-linejoin:round;stroke-miterlimit:10;}
	.st17{fill:#243787;stroke:#000000;stroke-width:4.7839;stroke-linecap:round;stroke-linejoin:round;stroke-miterlimit:10;}
	.st18{fill:#282422;}
	.st19{clip-path:url(#SVGID_6_);}
	.st20{clip-path:url(#SVGID_8_);}
	.st21{fill:url(#SVGID_9_);}
	.st22{fill:url(#SVGID_10_);}
	.st23{fill:url(#SVGID_11_);}
	.st24{fill:url(#SVGID_12_);}
	.st25{fill-rule:evenodd;clip-rule:evenodd;fill:#C5C5C5;}
	.st26{fill:#020202;stroke:#000000;stroke-width:4.7346;stroke-linecap:round;stroke-linejoin:round;stroke-miterlimit:10;}
	.st27{clip-path:url(#SVGID_14_);}
	.st28{fill:#243787;stroke:#231F20;stroke-width:0.7891;stroke-linecap:round;stroke-linejoin:round;stroke-miterlimit:10;}
	.st29{clip-path:url(#SVGID_16_);}
	.st30{stroke:#000000;stroke-width:4.7346;stroke-linecap:round;stroke-linejoin:round;stroke-miterlimit:10;}
	.st31{fill:#FFFFFF;stroke:#000000;stroke-width:4.7346;stroke-linecap:round;stroke-linejoin:round;stroke-miterlimit:10;}
	.st32{fill:none;stroke:#000000;stroke-width:4.7346;stroke-linecap:round;stroke-linejoin:round;stroke-miterlimit:10;}
	.st33{fill:#EA1E04;stroke:#000000;stroke-width:4.7346;stroke-linecap:round;stroke-linejoin:round;stroke-miterlimit:10;}
	.st34{fill:#243787;stroke:#000000;stroke-width:4.7346;stroke-linecap:round;stroke-linejoin:round;stroke-miterlimit:10;}
	.st35{clip-path:url(#SVGID_18_);}
	.st36{clip-path:url(#SVGID_20_);}
	.st37{fill:url(#SVGID_21_);}
	.st38{fill:url(#SVGID_22_);}
	.st39{fill:url(#SVGID_23_);}
	.st40{fill:url(#SVGID_24_);}
	.st41{fill-rule:evenodd;clip-rule:evenodd;}
	.st42{clip-path:url(#SVGID_26_);}
	.st43{clip-path:url(#SVGID_28_);}
	.st44{fill:#243787;}
	.st45{fill:#231F20;}
	.st46{fill-rule:evenodd;clip-rule:evenodd;fill:#FFFFFF;}
	.st47{clip-path:url(#SVGID_30_);}
	.st48{clip-path:url(#SVGID_32_);}
	.st49{fill:#FFFFFF;stroke:#231F20;stroke-width:19.3163;stroke-miterlimit:10;}
	.st50{fill:#FDFDFD;}
	.st51{clip-path:url(#SVGID_34_);}
	.st52{fill:#FF88E0;}
	.st53{fill:#7643D8;}
	.st54{clip-path:url(#SVGID_36_);}
	.st55{fill:#DBC878;}
	.st56{fill:#DCE0DF;}
	.st57{fill:#1AFF96;}
	.st58{fill:#FDFDFD;stroke:#FFFFFF;stroke-width:4.7839;stroke-linecap:round;stroke-linejoin:round;stroke-miterlimit:10;}
	.st59{clip-path:url(#SVGID_38_);}
	.st60{clip-path:url(#SVGID_40_);}
	.st61{fill:#DBC878;stroke:#DCE0DF;stroke-width:0.7973;stroke-linecap:round;stroke-linejoin:round;stroke-miterlimit:10;}
	.st62{fill:#FFFFFF;stroke:#FFFFFF;stroke-width:4.7839;stroke-linecap:round;stroke-linejoin:round;stroke-miterlimit:10;}
	.st63{stroke:#FFFFFF;stroke-width:4.7839;stroke-linecap:round;stroke-linejoin:round;stroke-miterlimit:10;}
	.st64{fill:none;stroke:#FFFFFF;stroke-width:4.7839;stroke-linecap:round;stroke-linejoin:round;stroke-miterlimit:10;}
	.st65{stroke:#DCE0DF;stroke-width:19.3163;stroke-miterlimit:10;}
	.st66{clip-path:url(#SVGID_42_);}
	.st67{clip-path:url(#SVGID_44_);}
	.st68{clip-path:url(#SVGID_46_);}
	.st69{fill:#020202;stroke:#000000;stroke-width:4.9293;stroke-linecap:round;stroke-linejoin:round;stroke-miterlimit:10;}
	.st70{fill:#FFFFFF;stroke:#000000;stroke-width:4.9293;stroke-linecap:round;stroke-linejoin:round;stroke-miterlimit:10;}
	.st71{fill:#EA1E04;stroke:#000000;stroke-width:4.9293;stroke-linecap:round;stroke-linejoin:round;stroke-miterlimit:10;}
	.st72{fill:#243787;stroke:#000000;stroke-width:4.9293;stroke-linecap:round;stroke-linejoin:round;stroke-miterlimit:10;}
	.st73{fill:none;stroke:#000000;stroke-width:4.9293;stroke-linecap:round;stroke-linejoin:round;stroke-miterlimit:10;}
	.st74{clip-path:url(#SVGID_48_);}
	.st75{clip-path:url(#SVGID_50_);}
	.st76{clip-path:url(#SVGID_52_);}
	.st77{fill:#020202;stroke:#000000;stroke-width:4.8785;stroke-linecap:round;stroke-linejoin:round;stroke-miterlimit:10;}
	.st78{fill:#FFFFFF;stroke:#000000;stroke-width:4.8785;stroke-linecap:round;stroke-linejoin:round;stroke-miterlimit:10;}
	.st79{fill:#EA1E04;stroke:#000000;stroke-width:4.8785;stroke-linecap:round;stroke-linejoin:round;stroke-miterlimit:10;}
	.st80{fill:#243787;stroke:#000000;stroke-width:4.8785;stroke-linecap:round;stroke-linejoin:round;stroke-miterlimit:10;}
	.st81{fill:none;stroke:#000000;stroke-width:4.8785;stroke-linecap:round;stroke-linejoin:round;stroke-miterlimit:10;}
	.st82{clip-path:url(#SVGID_54_);}
	.st83{clip-path:url(#SVGID_56_);}
	.st84{clip-path:url(#SVGID_58_);}
	.st85{fill:url(#SVGID_59_);}
	.st86{fill:url(#SVGID_60_);}
	.st87{fill:url(#SVGID_61_);}
	.st88{fill:url(#SVGID_62_);}
	.st89{clip-path:url(#SVGID_64_);}
	.st90{clip-path:url(#SVGID_66_);}
	.st91{clip-path:url(#SVGID_68_);}
	.st92{clip-path:url(#SVGID_70_);}
	.st93{clip-path:url(#SVGID_72_);}
	.st94{clip-path:url(#SVGID_74_);}
	.st95{clip-path:url(#SVGID_76_);}
	.st96{clip-path:url(#SVGID_78_);}
	.st97{clip-path:url(#SVGID_80_);}
	.st98{fill:#0313FE;}
	.st99{clip-path:url(#SVGID_82_);}
	.st100{clip-path:url(#SVGID_84_);}
	.st101{clip-path:url(#SVGID_86_);}
	.st102{clip-path:url(#SVGID_88_);}
	.st103{clip-path:url(#SVGID_90_);}
	.st104{clip-path:url(#SVGID_92_);}
	.st105{fill:url(#SVGID_93_);}
	.st106{fill:url(#SVGID_94_);}
	.st107{fill:url(#SVGID_95_);}
	.st108{fill:url(#SVGID_96_);}
</style>
<g>
	<g>
		<path class="st41" d="M2917.4,194.3c-1.3,0-2.4-1.1-2.4-2.4v-58.7c0-0.1,0.1-0.1,0.1-0.2c0-0.5,0.2-1.1,0.6-1.5c0,0,0,0,0,0v0
			l0.2-0.2c-11.1-6.2-23.7-9.5-36.4-9.5c-15.8,0-30.4,4.9-42.5,13.2c-0.1,0.1-0.2,0.3-0.3,0.4c-6.4,9.3-10.5,19.8-12.2,30.8
			c-0.6,3.7-0.9,7.5-0.9,11.4c0,41.6,33.8,75.4,75.4,75.4c5.4,0,10.8-0.7,16-1.8v-48.7c0-0.1,0.1-0.1,0.1-0.2c0,0,0,0,0,0
			c0-0.5,0.2-1,0.6-1.5c0,0,0,0,0,0c0,0,0,0,0,0c0,0,0,0,0,0l6.6-6.6H2917.4z"/>
		<path class="st41" d="M3245.3,95.9c-0.5-2.5-1.3-4.9-2.2-7.2c-0.1-0.4-0.3-0.7-0.4-1.1c-1-2.3-2.2-4.5-3.6-6.5
			c-0.2-0.2-0.3-0.5-0.5-0.7c-1-1.4-2.2-2.7-3.3-4c-1-1.2-2.1-2.3-3.2-3.3c-3.4-3.1-7.3-5.7-11.5-7.6c-0.6-0.3-1.2-0.5-1.8-0.7
			c-1.8-0.7-3.7-1.3-5.7-1.8c-0.7-0.2-1.4-0.3-2.1-0.5c-2.5-0.5-5.1-0.8-7.8-0.8h-59.8c-2.9,0-5.6,0.3-8.3,0.8
			c-1.2,0.2-2.3,0.7-3.4,1c-1.5,0.4-3,0.8-4.4,1.4c-1.3,0.5-2.6,1.3-3.9,2c-1.1,0.6-2.2,1.1-3.3,1.8c-1.4,0.9-2.6,1.9-3.9,3
			c-9.6,7.9-15.9,19.8-15.9,33.2v53.7h54.6v-41.4c0-7.2,5.9-13.1,13.1-13.1h9.7h0.8c7.2,0,13.1,5.9,13.1,13.1v67.7v2.7
			c0,1.1-0.2,2.2-0.4,3.2c-0.1,0.4-0.3,0.8-0.4,1.1c-0.2,0.6-0.5,1.3-0.8,1.9c-0.2,0.4-0.5,0.8-0.7,1.1c-0.4,0.5-0.7,1-1.2,1.5
			c-0.3,0.3-0.6,0.6-1,0.9c-0.2,0.2-0.4,0.5-0.7,0.7c-0.5,0.4-1,0.7-1.5,1l-34.7,19.4l-27.9,15.6c-1.6,0.9-3.1,1.9-4.5,2.9
			c-0.7,0.5-1.4,1.2-2.2,1.8c-9.6,8.1-15.4,20.1-15.4,32.9v76.2h146v-42.3h-89c-0.6,0-1.1-0.3-1.5-0.6c-0.1-0.1-0.2-0.2-0.3-0.4
			c-0.1-0.2-0.3-0.3-0.4-0.5c-0.1-0.2,0-0.4-0.1-0.6c0-0.1-0.1-0.2-0.1-0.3v-28.5c0-4.8,2.6-9.1,6.7-11.5l14.9-8.3c0,0,0,0,0,0
			l47.6-26.6c5.7-3.2,10.5-7.6,14.1-12.8c1-1.4,1.9-2.8,2.7-4.3c0.3-0.6,0.7-1.3,1-2c0.6-1.2,1.1-2.5,1.6-3.8
			c0.3-0.8,0.6-1.5,0.8-2.3c0.4-1.3,0.7-2.6,1-4c0.1-0.7,0.3-1.5,0.4-2.2c0.3-2.1,0.5-4.2,0.5-6.3v-85.7c0-2.9-0.3-5.6-0.8-8.3
			C3245.4,96.3,3245.4,96.1,3245.3,95.9z"/>
		<polygon class="st41" points="3039.5,135.6 2919.8,135.6 2919.8,189.5 2985.6,189.5 		"/>
		<path class="st41" d="M2908.1,272c-1.8,0.7-3.7,1.3-5.6,1.9c-1.2,0.4-2.4,0.8-3.7,1.1c-2.1,0.5-4.2,0.9-6.4,1.2
			c-1.1,0.2-2.1,0.4-3.2,0.6c-3.2,0.4-6.5,0.6-9.7,0.6c-44.2,0-80.2-35.9-80.2-80.1c0-5.5,0.7-10.9,1.8-16.2
			c0.1-0.7,0.2-1.4,0.4-2.1c0,0,0,0,0,0c0.2-0.8,0.4-1.5,0.6-2.3c0,0,0,0,0,0c0.5-1.9,1.1-3.8,1.8-5.7c3.5-10.2,9.1-19.5,16.4-27.6
			c0,0,0,0,0,0c1.6-1.7,3.2-3.4,4.9-5c0,0,0,0,0,0c0.6-0.5,1.1-1,1.7-1.5c0,0,0,0,0,0c2-1.7,4-3.3,6.2-4.9c0.3-0.2,0.5-0.4,0.7-0.6
			c0,0,0,0,0.1,0c13-9,28.7-14.3,45.6-14.3c12.3,0,24.5,2.9,35.5,8.3v-68c-1.4-0.3-2.7-0.6-4.1-1c-1.3-0.3-2.7-0.6-4-0.9
			c-1.8-0.3-3.6-0.6-5.3-0.9c-1.2-0.2-2.5-0.4-3.7-0.6c-2-0.3-4-0.4-6-0.6c-1.1-0.1-2.1-0.2-3.2-0.3c-3.1-0.2-6.1-0.3-9.2-0.3
			c-4.6,0-9.1,0.3-13.6,0.7c-1.8,0.2-3.5,0.5-5.3,0.7c-2.7,0.4-5.3,0.7-7.9,1.2c-2.1,0.4-4.1,0.9-6.2,1.4c-2.3,0.5-4.5,1.1-6.8,1.7
			c-2.1,0.6-4.1,1.2-6.1,1.9c-2.3,0.8-4.5,1.6-6.7,2.5c-1.8,0.7-3.7,1.4-5.5,2.2c-2.6,1.1-5.1,2.4-7.6,3.7c-1.3,0.7-2.7,1.3-4,2.1
			c-3.4,1.9-6.6,3.9-9.8,6c-0.4,0.3-0.8,0.5-1.2,0.8c-38.3,26-63.5,69.8-63.5,119.5c0,79.5,64.7,144.3,144.3,144.3
			c12,0,23.9-1.5,35.5-4.4v-68c-1.1,0.5-2.2,0.9-3.2,1.4C2910.5,271,2909.3,271.5,2908.1,272z"/>
		<path class="st41" d="M2593.1,291.8c-0.1,1.2-1.2,2.1-2.4,2.1s-2.2-0.9-2.4-2.1l-27.5-230h-55l34.2,286.1h101.5l34.2-286.1h-55
			L2593.1,291.8z"/>
		<polygon class="st41" points="2919.8,204.9 2919.8,258.8 3039.5,258.8 2985.6,204.9 		"/>
		<path class="st41" d="M3442.2,93.6c-0.6-2.3-1.4-4.5-2.4-6.7c-0.4-0.9-0.9-1.7-1.4-2.5c-1-1.7-2-3.4-3.1-5c-1.1-1.5-2.3-3-3.6-4.4
			c-0.3-0.3-0.5-0.6-0.8-0.9c-1.3-1.3-2.8-2.5-4.3-3.6c-0.6-0.4-1.1-0.9-1.7-1.3c-0.2-0.1-0.4-0.3-0.7-0.4
			c-3.9-2.5-8.2-4.3-12.8-5.5c-0.7-0.2-1.3-0.5-2-0.6c-2.8-0.6-5.7-0.9-8.7-0.9H3341c-5.3,0-10.3,1.1-15,2.8
			c-0.6,0.2-1.2,0.3-1.8,0.6c-1.1,0.5-2.1,1.2-3.2,1.7c-1.4,0.8-2.9,1.5-4.3,2.4c-0.7,0.5-1.3,1.1-2,1.7c-1.6,1.2-3.1,2.5-4.6,3.9
			c-7.6,7.8-12.3,18.3-12.3,30v199.8c0,23.8,19.3,43.1,43.1,43.1h59.8c13.3,0,25.1-6.2,33-15.7c1.1-1.3,2.1-2.5,3-3.9
			c0.7-1.1,1.2-2.2,1.8-3.3c0.7-1.3,1.4-2.5,2-3.9c0.6-1.4,1-3,1.4-4.5c0.3-1.1,0.8-2.2,1-3.4c0.5-2.7,0.8-5.5,0.8-8.4V104.9
			c0-3.1-0.4-6.2-1-9.2C3442.7,95,3442.4,94.3,3442.2,93.6z M3389.2,292.4c0,7.2-5.9,13.1-13.1,13.1h-10.5
			c-7.2,0-13.1-5.9-13.1-13.1V117.2c0-7.2,5.9-13.1,13.1-13.1h10.5c7.2,0,13.1,5.9,13.1,13.1V292.4z"/>
		<path class="st41" d="M3376.1,108.8h-0.8v163.1c0,5.4,4,9.6,9.1,10.4V117.2C3384.5,112.6,3380.7,108.8,3376.1,108.8z"/>
	</g>
	<path d="M1581.1,162.7c-29.4,0-38.2,0.7-38.2,23.5c0,19.8,7.3,20.6,35.2,20.6c27.9,0,29.4-2.2,29.4-25.7
		C1607.5,165.7,1600.9,162.7,1581.1,162.7z"/>
	<path d="M787.4,163.5c-25,0-29.4,2.2-29.4,22c0,20.5,3.7,23.5,32.3,23.5c27.2,0,30.8-3.7,30.8-23.5
		C821.2,164.2,816.1,163.5,787.4,163.5z"/>
	<path d="M1730.9,163.5c-25.7,0-30.1,2.2-30.1,22c0,20.5,3.7,23.5,33,23.5c27.2,0,30.8-3.7,30.8-23.5
		C1764.6,164.2,1759.5,163.5,1730.9,163.5z"/>
	<path d="M2006.2,159.8c-23.5,0-26.4,3.7-27.9,14h58.7C2035.6,161.3,2031.9,159.8,2006.2,159.8z"/>
	<path d="M1413.7,163.5c-25.7,0-30.1,2.2-30.1,22c0,20.5,3.7,23.5,33,23.5c27.2,0,30.8-3.7,30.8-23.5
		C1447.5,164.2,1442.3,163.5,1413.7,163.5z"/>
	<g>
		<path d="M2594.5,292c-0.2,1.9-1.8,3.3-3.8,3.3c-1.9,0-3.5-1.4-3.8-3.3l-27.3-228.8h-52.2l33.8,283.3h99l33.8-283.3h-52.2
			L2594.5,292z"/>
		<path d="M2913.6,191.9v-58.7c0.1-0.5,0.2-1,0.3-1.4c-10.6-5.6-22.5-8.6-34.5-8.6c-15,0-29.4,4.5-41.7,13
			c-6.2,9.3-10.2,19.5-11.9,30.3c-0.6,3.7-0.8,7.4-0.8,11.2c0,40.8,33.2,74,74,74c4.7,0,9.6-0.5,14.6-1.6v-47.6
			c0.1-0.9,0.3-1.6,0.7-2.1v-0.4l0.8-0.4l3.9-4h-1.6C2915.3,195.7,2913.6,194,2913.6,191.9z"/>
		<path d="M3241.8,89.2l-0.4-1c-1-2.2-2.1-4.4-3.4-6.4c-1.3-1.9-2.4-3.1-3.4-4.2c-1.3-1.5-2.3-2.5-3.4-3.5
			c-3.5-3.2-7.2-5.6-11.2-7.4l-1.1-0.4c-2.3-0.9-4.2-1.5-6.1-1.9l-2-0.5c-2.8-0.5-5.3-0.8-7.6-0.8h-59.8c-2.6,0-5.3,0.3-8.1,0.8
			c-0.7,0.1-1.4,0.4-2.1,0.6l-2.2,0.6c-1.1,0.3-2.2,0.6-3.3,1.1c-0.9,0.4-1.8,0.9-2.8,1.4l-1.9,1c-0.8,0.4-1.5,0.8-2.3,1.2
			c-1.2,0.8-2.3,1.7-3.4,2.6c-10.2,8.3-15.8,20-15.8,32.4v52.3h51.9v-40c0-8,6.5-14.5,14.5-14.5h9.7c8.8,0,15.3,6.5,15.3,14.5v70.4
			c0,1.2-0.2,2.4-0.5,3.6l-0.4,1.3c-0.3,0.7-0.5,1.4-0.9,2.1c-0.2,0.4-0.5,0.7-0.7,1.1c-0.5,0.7-0.9,1.3-1.4,1.8
			c-0.4,0.4-1.9,1.8-1.9,1.8c-0.5,0.4-1.1,0.7-1.6,1.1l-62.6,34.9c-1.5,0.8-3,1.8-4.3,2.8c-0.6,0.4-1.2,0.9-1.7,1.4
			c-9.9,8.3-15.3,19.9-15.3,32.2v74.8h143.3v-39.5h-87.6c-0.8,0-1.7-0.3-2.4-1l0.2-1.9v0l-1.3,0.6l1.2-0.9l-1.4-0.1l-0.1-29
			c0-5.3,2.8-10.1,7.4-12.7l62.6-34.9c5.4-3,10-7.2,13.7-12.4c0.9-1.3,1.8-2.7,2.6-4.1c0.3-0.6,0.7-1.3,1-1.9
			c0.6-1.2,1.1-2.4,1.5-3.6c0.3-0.8,0.6-1.5,0.8-2.3c0.4-1.3,0.7-2.6,0.9-3.8c0.3-1.2,0.4-1.7,0.4-2.1c0.3-2,0.5-4.1,0.5-6.1v-85.7
			c0-2.6-0.3-5.3-0.8-8.1C3243.5,93.9,3242.7,91.6,3241.8,89.2z"/>
		<path d="M3376.7,110.3v161.7c0,4,2.6,7.4,6.3,8.6V117.2C3383.1,113.6,3380.3,110.6,3376.7,110.3z"/>
		<path d="M3440.9,94c-0.6-2.2-1.3-4.4-2.3-6.5c-0.3-0.6-0.6-1.1-0.9-1.6c-1.4-2.5-2.3-4.1-3.5-5.6c-1.1-1.5-2.2-2.9-3.5-4.2
			l0.2-1.8l-1,1c-1.3-1.3-2.7-2.4-4.2-3.5c-1-0.8-1.3-1.1-1.7-1.3c-4.3-2.8-8.4-4.6-13-5.7l-1-0.3c-0.3-0.1-0.6-0.2-0.9-0.3
			c-2.7-0.6-5.6-0.8-8.4-0.8H3341c-4.8,0-9.6,0.9-14.5,2.8l-0.9,0.3c-1.4,0.5-2,0.9-2.6,1.2l-2.3,1.2c-1.1,0.5-2.1,1.1-3.1,1.8
			c-0.4,0.2-0.7,0.5-1,0.8l-0.9,0.8c-1.5,1.2-3,2.4-4.4,3.8c-7.6,7.9-11.9,18.2-11.9,29v199.8c0,23,18.7,41.7,41.7,41.7h59.8
			c12.3,0,23.9-5.6,32-15.2c1.4-1.6,2.2-2.7,2.9-3.8c0.5-0.7,0.8-1.5,1.2-2.2l1-1.9c0.5-1,1.1-1.9,1.5-2.9c0.4-1.1,0.8-2.2,1.1-3.3
			l0.7-2.2c0.2-0.7,0.5-1.4,0.6-2.1c0.5-2.8,0.8-5.5,0.8-8.1V104.9c0-2.9-0.3-5.9-1-8.9C3441.4,95.6,3440.9,94,3440.9,94z
			 M3390.6,292.4c0,8-6.5,14.5-14.5,14.5h-10.5c-8,0-14.5-6.5-14.5-14.5V117.2c0-8,6.5-14.5,14.5-14.5h10.5c8,0,14.5,6.5,14.5,14.5
			V292.4z"/>
		<path d="M3649.4,0H190.6C85.8,0,0,85.8,0,190.6c0,104.9,85.8,190.6,190.6,190.6h3458.8c104.8,0,190.6-85.8,190.6-190.6
			C3840,85.8,3754.2,0,3649.4,0z M411.4,309c-10.4,2.8-21.3,4.3-32.6,4.3c-69.5,0-125.9-56.4-125.9-125.9
			c0-69.5,56.4-125.9,125.9-125.9c11.3,0,22.2,1.5,32.6,4.3v63.4c-9.6-5.4-20.7-8.5-32.6-8.5c-36.8,0-66.8,29.9-66.8,66.8
			s29.9,66.8,66.8,66.8c11.8,0,22.9-3.1,32.6-8.5V309z M464.3,242.3h-16.7h-36.2v-50.4h36.2h16.7h6.5l50.4,50.4H464.3z M470.8,182.8
			h-6.5h-16.7h-36.2v-50.4h36.2h16.7h56.9L470.8,182.8z M634.7,236.9c-52.1,0-63.9-9.5-63.9-50.7c0-41.1,12.5-49.9,68.3-49.9
			c49.2,0,58.7,8.1,61.7,41.1h-35.2c-2.2-9.5-5.9-11.7-26.4-11.7c-27.9,0-33,0-33,18.4c0,19.1,5.1,25,28.6,25
			c27.2,0,30.8-4.4,30.8-14h35.2C700.8,229.5,689.8,236.9,634.7,236.9z M789.7,236.9c-58,0-68.3-8.8-68.3-50.7
			c0-41.1,7.4-50.7,68.3-50.7c56.5,0,67.5,8.1,67.5,47.7C857.2,226.6,851.3,236.9,789.7,236.9z M1088.5,233.2h-35.2v-51.4
			c0-13.9-7.3-18.3-23.5-18.3c-16.9,0-27.9,4.4-27.9,18.3v51.4h-36v-44.8c0-18.4-5.1-25-23.5-25c-19.8,0-27.2,5.1-27.2,19.8v49.9
			H880v-96.9h33V159c4.4-16.2,11.7-25,38.2-25c27.9,0,38.2,8.8,45.5,21.3c3.7-11,14-21.3,41.9-21.3c32.3,0,49.9,13.2,49.9,41.8
			V233.2z M1324.9,233.2h-35.2v-51.4c0-13.2-8.1-18.3-24.2-18.3c-16.9,0-27.2,4.4-27.2,18.3v51.4h-36v-44.8c0-19.1-5.1-25-23.5-25
			c-17.6,0-26.4,5.1-26.4,19.8v49.9h-35.2v-96.9h33h0V159c5.1-16.2,11.7-25,37.4-25c27.9,0,38.2,8.8,45.5,21.3
			c4.4-11.7,13.9-21.3,41.8-21.3c32.3,0,49.9,13.2,49.9,41.8V233.2z M1415.9,236.9c-58,0-68.3-8.8-68.3-49.9
			c0-41.1,7.3-51.4,68.3-51.4c56.5,0,68.3,8.1,68.3,47.7C1484.2,226.6,1477.6,236.9,1415.9,236.9z M1643.5,233.2h-35.2v-17.6
			c-6.6,12.5-15.4,19.8-44.1,19.8c-45.5,0-58-11-58-49.9c0-38.2,8.8-50.7,55.8-50.7c29.4,0,36.7,5.9,44.8,16.9V95.2v0h36.7V233.2z
			 M1733.1,236.9c-57.3,0-67.6-8.8-67.6-50.7c0-41.1,7.3-50.7,67.6-50.7c56.5,0,67.5,8.1,67.5,47.7
			C1800.6,226.6,1794.7,236.9,1733.1,236.9z M1899,179.6c-0.7-12.5-4.4-16.9-19.1-16.9c-14.7,0-22.8,6.6-22.8,19.8v50.6h-35.2v-96.9
			h33.8l0,0v18.3c8.1-16.1,15.4-20.6,36.7-20.6c35.2,0,39.6,12.5,39.6,45.5H1899z M2017.9,214.1c14.7,0,17.6-3.7,19.1-11h34.5
			c0,31.6-22.8,33.8-70.5,33.8c-42.6-0.7-58-10.3-58-49.2c0-41.8,11.7-51.4,64.6-51.4c62.4,0,62.4,11,63.9,58H1979
			C1979,211.2,1984.2,214.1,2017.9,214.1z M2287,361.9h-19.3V19.3h19.3V361.9z M2667.8,330.2c-0.1,0.9-0.5,1.7-1.1,2.2l-20.4,20.4
			c-0.8,0.7-1.7,1.1-2.7,1.1h-105.7c-1.9,0-3.5-1.4-3.8-3.3l-34.7-290.8c0.1-1.3,0.3-2,0.8-2.6l20.8-20.9c0.7-0.7,1.7-1.1,2.7-1.1
			h59.9c0.8,0,1.6,0.3,2.3,0.8c0.7,0.8,1,1.1,1.2,1.5l0.2,0.3l0,0.7l15,125.3l12.5-104.9c0.2-0.9,0.5-1.7,1.1-2.2l20.4-20.4
			c0.7-0.7,1.7-1.1,2.7-1.1h59.9c0.9,0,1.8,0.4,2.5,1.1l0.3,0.3l0.5,1l0.3,1.3L2667.8,330.2z M3067.4,244.4l-19.5,19.5
			c-1,0.8-1.8,1.1-2.7,1.1h-104.5v54.4c0,1-0.4,2-1.1,2.7l-19.8,19.8l-0.6,0.2c0,0.1-0.3,0.4-0.8,0.5c-12.7,3.4-25.8,5.1-38.9,5.1
			c-83,0-150.4-67.5-150.4-150.4c0-44.7,19.8-86.8,54.2-115.5l0.1,0.2c18-21.9,40.9-37.7,66.7-46.5c15.7-5.4,32.2-8.1,48.9-8.1
			c13.1,0,26.2,1.7,38.9,5.1c0.7,0.2,1.3,0.6,1.9,1.2l0.8,1.5c0,0,0.1,74.8,0.1,74.8h124c1.5,0,2.9,0.9,3.5,2.3
			c0.6,1.4,0.3,3-0.8,4.1l-62.9,62.9h1.5c0.9,0,1.7,0.3,2.4,1l58.9,58.8C3068.9,240.5,3068.9,242.9,3067.4,244.4z M3272.9,170.1
			c0,13.5-5.6,26.6-15.5,35.9l-15.1,14.4c-4,5.4-9.2,9.9-15.1,13.2l-45.7,25.5v19.8h87.6c0.9,0,1.7,0.3,2.4,1c0.7,0.7,0.9,1,1.1,1.4
			l-1.2,0.9l1.4,0.1l0.1,47.5c0,1-0.4,2-1.1,2.7l-20.4,20.4c-0.7,0.7-1.6,1.1-2.7,1.1h-150.8c-2.1,0-3.8-1.7-3.8-3.8v-78.6
			c0-13.5,5.7-26.6,15.6-35.9l18.1-18.2c0.7-0.7,1.4-1.5,2.2-2.2c3.1-2.9,6.3-5.2,9.7-7.1l45.7-25.5v-65.4c0-2.7-1.6-5-3.9-6.1v29.5
			c0,1-0.4,2-1.1,2.7l-20.4,20.4c-0.7,0.7-1.6,1.1-2.7,1.1h-59.4c-2.1,0-3.8-1.7-3.8-3.8v-56.1c0-13.6,5.6-26.3,15.6-35.8l18.4-18.5
			c0.6-0.7,1.3-1.4,2.1-2.1l0.4-0.3c9.1-8.4,20.9-13,33.2-13h59.8c2.9,0,5.9,0.3,9.2,0.9l1.1,0.2c2.7,0.6,5.4,1.4,8.3,2.6l1.2,0.5
			c2.6,1.2,5.2,2.5,7.5,4.1l0.9,0.6c2.6,1.8,4.8,3.7,6.7,5.6c1.3,1.3,2.6,2.8,3.8,4.3l0.2,0.3l0.2,0.7c6.7,8.4,10.3,18.8,10.3,29.7
			V170.1z M3470.5,284.3c0,12.5-4.7,24.4-13.3,33.6l-20.8,20.8c-9.6,9.9-22.2,15.3-35.7,15.3H3341c-27.2,0-49.3-22.1-49.3-49.3
			V104.9c0-12.3,4.7-24.2,13.2-33.4l22.9-23.2l0.8-0.5c8.8-8.1,20.5-12.7,32.8-12.7h59.8c3.1,0,6.3,0.3,9.6,1
			c0.9,0.2,1.7,0.4,2.5,0.7l2.3,0.7c1.4,0.4,2.8,0.8,4.2,1.3c1.1,0.4,2.1,1,3.2,1.6l2.2,1.1c1,0.5,2,1,2.9,1.6
			c1.2,0.8,2.3,1.7,3.5,2.6l1.8,1.4c0.6,0.4,1.1,0.8,1.6,1.3c10.2,9.7,15.7,22.4,15.7,36V284.3z"/>
		<path d="M2908.5,273.3c-1.9,0.7-3.8,1.3-5.7,1.9l-1.1,0.3c-0.9,0.3-1.8,0.5-2.6,0.8c-2.1,0.5-4.3,0.9-6.5,1.3c0,0-2.5,0.5-3.2,0.6
			c-3.3,0.4-6.6,0.6-9.9,0.6c-45,0-81.5-36.6-81.5-81.5c0-5.2,0.6-10.6,1.8-16.4l0.4-2.1l0.5-2.1l0.1-0.2c0.6-2.2,1.2-4.1,1.8-5.9
			c3.6-10.3,9.1-19.6,16.3-27.6l0.4-0.4c1.6-1.8,3.3-3.4,5-5.1l1.7-1.6c2-1.8,4.1-3.4,6.3-5l0.9-0.7c13.6-9.5,29.7-14.5,46.3-14.5
			c11.7,0,23.5,2.6,34.1,7.5V58.5c-0.9-0.2-6-1.4-7-1.6c-1.5-0.3-3.1-0.5-4.6-0.8l-4.3-0.7c-1.8-0.2-3.6-0.4-5.5-0.5l-3.6-0.3
			c-3-0.2-6.1-0.3-9.1-0.3c-4.5,0-9,0.3-13.5,0.7c-1.2,0.1-2.4,0.3-3.6,0.5l-1.7,0.2c-2.6,0.3-5.2,0.7-7.8,1.2
			c-2.1,0.4-4.1,0.9-6.1,1.4c-2.3,0.5-4.5,1.1-6.7,1.7c-2,0.6-4.1,1.2-6.1,1.9c-2.2,0.8-4.5,1.6-6.6,2.4c-1.8,0.7-3.6,1.4-5.4,2.2
			c-2.5,1.1-5,2.3-7.5,3.6c0,0-3.1,1.5-4,2c-3.3,1.8-6.6,3.8-9.7,5.9l-2-0.4l0.8,1.2c-39.4,26.7-62.9,70.9-62.9,118.3
			c0,78.8,64.1,142.9,142.9,142.9c11.5,0,22.9-1.4,34.1-4.1v-64.8c0,0-1.3,0.5-1.3,0.5C2910.6,272.4,2909.6,272.9,2908.5,273.3z
			 M2871.3,338.5L2871.3,338.5c0.2-0.3,0.5-0.5,0.8-0.8L2871.3,338.5z"/>
		<polygon points="2921.2,206.3 2921.2,257.4 3036.1,257.4 2985,206.3 		"/>
		<polygon points="3036.1,137 2921.2,137 2921.2,188.1 2985,188.1 		"/>
	</g>
</g>
</svg>
