<?xml version="1.0" encoding="utf-8"?>
<!-- Generator: Adobe Illustrator 26.5.0, SVG Export Plug-In . SVG Version: 6.00 Build 0)  -->
<svg version="1.1" id="Layer_1" xmlns="http://www.w3.org/2000/svg" xmlns:xlink="http://www.w3.org/1999/xlink" x="0px" y="0px"
	 viewBox="0 0 3839 1265.53" style="enable-background:new 0 0 3839 1265.53;" xml:space="preserve">
<style type="text/css">
	.st0{fill:#0F2166;}
	.st1{fill:#FD2537;}
	.st2{fill:url(#SVGID_1_);}
	.st3{fill:url(#SVGID_00000052086978181646926880000016357289283809576852_);}
	.st4{fill:url(#SVGID_00000107546714296471206940000003159771154763061933_);}
	.st5{fill:url(#SVGID_00000009551012765486000280000005913439819875727797_);}
	.st6{fill:url(#SVGID_00000076585646026216587260000009120591285935820726_);}
	.st7{fill:url(#SVGID_00000120532645846752133970000000394217782567344293_);}
	.st8{fill:url(#SVGID_00000095300264550225527010000008616020930981617548_);}
	.st9{fill:url(#SVGID_00000056403865587088817180000015255186140446796986_);}
	.st10{fill:url(#SVGID_00000050634089612171943420000010522186055455165871_);}
	.st11{fill:url(#SVGID_00000122688359861477373120000001632949160233075594_);}
	.st12{fill:url(#SVGID_00000008117368504203859480000005968131053646678168_);}
	.st13{fill:#8B8B8B;}
	
		.st14{fill:url(#SVGID_00000084521828544840168470000002042030794598688689_);stroke:#000000;stroke-width:4.8265;stroke-linecap:round;stroke-linejoin:round;}
	
		.st15{fill:url(#SVGID_00000009583941921772146220000010818030402460302251_);stroke:#000000;stroke-width:4.8265;stroke-linecap:round;stroke-linejoin:round;}
	
		.st16{fill:url(#SVGID_00000021081174939403600990000014927540963712669574_);stroke:#000000;stroke-width:4.8265;stroke-linecap:round;stroke-linejoin:round;}
	
		.st17{fill:url(#SVGID_00000072257366684835719400000008589742389640282037_);stroke:#000000;stroke-width:4.8265;stroke-linecap:round;stroke-linejoin:round;}
	.st18{fill:url(#SVGID_00000183952069920625659000000009103076222388865454_);}
	.st19{fill:#FFFFFF;}
	.st20{fill:url(#SVGID_00000127017140945117818050000005456127011217151362_);}
	.st21{fill:url(#SVGID_00000018237487954685554570000006456904443999678620_);}
	.st22{fill:url(#SVGID_00000017508547410331988440000003780719568489369742_);}
	.st23{fill:url(#SVGID_00000149346464050275977690000006112077299284466337_);}
	.st24{fill:url(#SVGID_00000168102791900065700290000015411801657350575546_);}
	.st25{fill:url(#SVGID_00000121238342160282522570000013244202963006813574_);}
	.st26{fill:url(#SVGID_00000091720632846813085400000015403132302771104691_);}
	.st27{fill:url(#SVGID_00000178887095926566794640000014631458315309872025_);}
	.st28{fill:url(#SVGID_00000086662824433599903730000006015103644838440349_);}
	.st29{fill:url(#SVGID_00000175315847702619809230000004028234444086214023_);}
	.st30{fill:url(#SVGID_00000178893899571280595580000009177150687770851259_);}
	.st31{fill:url(#SVGID_00000122718518925431760870000016176616621289554079_);}
	.st32{fill:url(#SVGID_00000158721300067566534410000003928837125777781677_);}
	.st33{fill:url(#SVGID_00000151521175045427177270000011241633325048130713_);}
	.st34{fill:url(#SVGID_00000158744827286502322660000016821046251109277362_);}
	.st35{fill:url(#SVGID_00000070107554994076670450000005332381928833524402_);}
	.st36{fill:url(#SVGID_00000171690394953479155030000011262413998340615817_);}
	.st37{fill:url(#SVGID_00000003085856667449293300000015827224052476884910_);}
	.st38{fill:url(#SVGID_00000086661340045821083440000009324803651346005430_);}
	.st39{fill:url(#SVGID_00000106117726976696656810000003787525716717211543_);}
	
		.st40{fill:url(#SVGID_00000124869484720968250700000017719286422684735923_);stroke:#FFFFFF;stroke-width:4.8265;stroke-linecap:round;stroke-linejoin:round;}
	
		.st41{fill:url(#SVGID_00000075137986833478130980000016379827448638476985_);stroke:#FFFFFF;stroke-width:4.8265;stroke-linecap:round;stroke-linejoin:round;}
	
		.st42{fill:url(#SVGID_00000046341987209632026030000007297178418964816514_);stroke:#FFFFFF;stroke-width:4.8265;stroke-linecap:round;stroke-linejoin:round;}
	
		.st43{fill:url(#SVGID_00000177471754979149610800000007478860463651283352_);stroke:#FFFFFF;stroke-width:4.8265;stroke-linecap:round;stroke-linejoin:round;}
	.st44{fill:url(#SVGID_00000001632388508531070600000012077245074585989052_);}
	.st45{fill:url(#SVGID_00000124873673308030781800000003463851035096633020_);}
	.st46{fill:url(#SVGID_00000127752372661548799780000006240631098547659400_);}
	.st47{fill:url(#SVGID_00000121253284268210094530000016030753012409401766_);}
	.st48{fill:url(#SVGID_00000041984268884096866530000003100708328298182321_);}
	.st49{fill:url(#SVGID_00000098900266498494551950000013823150919826009525_);}
	.st50{fill:url(#SVGID_00000036973285776250884960000008956251639961399437_);}
</style>
<g>
	<g>
		<g>
			<polygon points="1589.466,0 1419.777,0 558.914,1252.564 728.601,1252.564 749.195,1252.564 1610.059,0 			"/>
			<polygon points="1367.967,0 1198.277,0 337.414,1252.564 507.101,1252.564 527.695,1252.564 527.696,1252.564 1388.559,0 			"/>
		</g>
		<g>
			<g>
				<path d="M1281.639,1042.833h-183.821l-28.494,43.081c-7.972,12.837-13.789,22.322-17.47,28.421
					c-7.357,12.222-12.564,22.007-15.63,29.337c-7.357,13.448-11.02,24.754-11.02,33.911c0,17.725,17.939,28.722,53.845,33
					c16.431,2.455,24.645,9.484,24.645,21.092c0,14.063-9.74,21.078-29.205,21.078l-34.685-2.196l-60.236-3.28l-77.579,5.476h-24.64
					c-14.605,0-21.907-5.476-21.907-16.427c0-9.129,2.897-15.662,8.669-19.625c5.79-3.95,16.746-6.842,32.858-8.669
					c16.131-1.827,29.665-8.514,40.616-20.08l35.578-44.734l15.516-23.729l16.431-22.818l16.427-23.729l288.422-410.699
					c14.605-21.903,24.945-35.277,31.031-40.156c6.077-4.861,15.516-7.302,28.294-7.302c13.99,0,23.574,3.667,28.749,10.983
					c5.161,7.33,7.758,23.187,7.758,47.6l28.294,457.656c0,18.358,1.111,33.052,3.335,44.083
					c1.892,9.385,6.515,17.974,13.085,24.937v0c5.818,6.167,12.917,11.156,20.998,13.721c10.891,3.458,16.342,9.743,16.342,18.853
					c0,13.434-9.129,20.135-27.383,20.135l-29.205-2.738l-53.759-2.738c-17.042,0-35.751,0.683-56.127,2.055
					c-20.395,1.367-42.142,2.51-65.256,3.421h-30.12c-14.003,0-20.991-5.776-20.991-17.343c0-7.899,2.879-13.689,8.669-17.338
					c5.776-3.653,16.573-6.391,32.403-8.213c15.812-1.827,26.467-6.236,31.943-13.238c5.476-6.988,8.214-19.01,8.214-36.047v-37.423
					L1281.639,1042.833z M1278.017,997.201l-8.186-211.089l-142.662,211.089H1278.017z"/>
				<path d="M2677.161,730.695l-114.997,400.668c-5.476,19.484-8.214,34.384-8.214,44.725c0,22.517,12.163,33.769,36.507,33.769
					c21.902,0,32.854,6.842,32.854,20.518c0,13.092-9.439,19.639-28.294,19.639h-52.934l-98.57-3.649
					c-18.869,0-33.168,0.31-42.894,0.911c-9.744,0.615-33.769,2.738-72.103,6.387h-3.653c-15.812,0-23.729-6.072-23.729-18.254
					c0-7.298,2.738-12.318,8.213-15.056s17.944-6.077,37.423-10.04c19.465-3.95,31.328-9.129,35.596-15.516
					c4.246-6.391,11.247-26.927,20.991-61.608l114.086-398.846c4.246-14.6,6.387-24.326,6.387-29.205
					c0-15.816-11.266-23.729-33.769-23.729c-19.479,0-29.205-5.817-29.205-17.456c0-6.988,2.423-12.505,7.302-16.586
					c4.861-4.077,11.548-6.118,20.076-6.118h41.983c2.428,0,9.43,0,20.996,0c11.548,0,21.288,0,29.205,0
					c58.41,0,99.167-1.453,122.3-4.378l48.374-2.92c12.163,0,18.254,5.79,18.254,17.338c0,7.917-3.052,13.694-9.129,17.343
					c-6.091,3.649-17.197,6.847-33.314,9.585c-16.126,2.738-26.923,7.157-32.398,13.234
					C2689.028,697.536,2683.238,710.615,2677.161,730.695z"/>
				<path d="M3237.547,1074.776c0,0-19.367,68.228-28.333,98.828c-10.473,35.743-109.372,91.926-229.955,91.926
					c-91.272,0-165.512-22.818-222.697-68.45c-57.203-45.636-85.792-104.647-85.792-177.065c0-57.799,17.338-112.56,52.023-164.282
					c34.681-51.709,83.651-96.133,146.94-133.251c51.713-30.421,107.54-54.15,167.48-71.192
					c59.922-17.028,118.792-25.556,176.605-25.556c38.931,0,73.315,3.28,103.135,9.812c15.202,3.581,22.818,10.127,22.818,19.638
					c0,5.362-1.827,12.277-5.48,20.75l-22.814,69.361c-9.129,31.647-20.991,47.463-35.596,47.463
					c-15.83,0-23.729-12.464-23.729-37.423l1.822-46.547c0-15.812-3.193-26.923-9.58-33.309c-6.391-6.391-17.201-9.585-32.403-9.585
					c-38.944,0-78.804,7.926-119.562,23.77c-40.771,15.844-79.401,38.393-115.908,67.639
					c-43.213,34.74-77.283,77.41-102.224,127.994c-24.955,50.597-37.418,103.003-37.418,157.235c0,56.077,14.6,100.57,43.81,133.483
					c29.205,32.913,69.047,49.358,119.562,49.358c15.201,0,25.697-2.269,31.487-6.819c5.776-4.533,11.093-14.987,15.971-31.359
					l33.77-119.047c2.423-6.674,3.649-14.249,3.649-22.732c0-13.32-2.738-21.962-8.214-25.898
					c-5.476-3.936-20.08-7.416-43.809-10.455c-12.778,0-19.165-6.072-19.165-18.254c0-13.375,10.637-20.08,31.943-20.08
					l45.636,0.916l82.144,2.738c5.476,0,9.425,0,11.862,0c4.865,0,8.213,0,10.04,0c26.768,0,50.798-1.212,72.103-3.653h43.81
					c15.201,0,22.814,5.248,22.814,15.73c0,14.577-12.477,23.019-37.418,25.342c-15.83,0-27.993,4.565-36.507,13.689
					C3251.837,1034.62,3244.234,1051.046,3237.547,1074.776z"/>
				<path d="M3614.449,1042.833h-183.821l-28.494,43.081c-7.972,12.837-13.789,22.322-17.47,28.421
					c-7.357,12.222-12.564,22.007-15.63,29.337c-7.357,13.448-11.02,24.754-11.02,33.911c0,17.725,17.939,28.722,53.845,33
					c16.432,2.455,24.645,9.484,24.645,21.092c0,14.063-9.74,21.078-29.205,21.078l-34.685-2.196l-28.099-1.53
					c-21.407-1.166-42.864-1.097-64.263,0.205l-57.875,3.521c-14.605,0-21.907-5.476-21.907-16.427
					c0-9.129,2.897-15.662,8.669-19.625c5.79-3.95,16.746-6.842,32.858-8.669c16.131-1.827,17.447-8.514,28.398-20.08l35.578-44.734
					l15.516-23.729l16.431-22.818l16.427-23.729l288.422-410.699c14.605-21.903,24.946-35.277,31.031-40.156
					c6.077-4.861,15.516-7.302,28.294-7.302c13.99,0,23.574,3.667,28.749,10.983c5.161,7.33,7.758,23.187,7.758,47.6l28.294,457.656
					c0,31.118,3.193,51.709,9.584,61.776c6.387,10.072,18.395,16.331,36.052,18.768c17.639,2.437,26.467,9.457,26.467,21.051
					c0,13.434-9.129,20.135-27.383,20.135l-29.205-2.738l-72.103-2.738c-17.042,0-35.751,0.683-56.127,2.055
					c-20.395,1.367-42.142,2.51-65.257,3.421h-30.12c-14.003,0-20.991-5.776-20.991-17.343c0-7.899,2.879-13.689,8.669-17.338
					c5.776-3.653,16.573-6.391,32.403-8.213c15.812-1.827,26.467-6.236,31.943-13.238c5.476-6.988,8.213-19.01,8.213-36.047v-37.423
					L3614.449,1042.833z M3610.828,997.201l-8.186-211.089l-142.662,211.089H3610.828z"/>
			</g>
			<path d="M2156.153,764.446l-288.395,429.891c-14.003,21.292-24.344,34.667-31.031,40.142c-6.706,5.476-15.83,8.213-27.396,8.213
				c-12.177,0-20.395-2.738-24.64-8.227c-4.264-5.489-6.391-17.384-6.391-35.683l-14.646-435.462l-92.138,251.2l-14.605,49.472
				c-11.566,38.489-18.254,61.863-20.076,70.108c-1.827,8.241-2.738,18.777-2.738,31.601c0,14.659,3.494,24.285,10.496,28.863
				c6.988,4.592,23.87,9.011,50.652,13.288c15.201,1.827,22.818,8.546,22.818,20.153c0,14.659-9.74,21.989-29.205,21.989
				l-33.769-3.28l-53.85-2.196l-70.909,2.738c-15.816,0-23.729-6.077-23.729-18.254c0-9.882,8.037-17.166,24.103-21.833
				c9.147-2.657,17.255-8.092,23.663-15.138c3.183-3.5,5.801-6.383,5.801-6.383c6.687-8.214,19.766-39.386,39.245-93.55
				l118.651-334.045c10.951-32.854,16.427-53.235,16.427-61.148c0-6.687-2.893-11.553-8.669-14.605
				c-5.79-3.038-17.497-5.931-35.141-8.669c-17.652-2.738-26.467-9.27-26.467-19.625c0-5.476,2.423-10.336,7.302-14.6
				c4.861-4.25,10.637-6.391,17.343-6.391l33.769,3.653h45.632h45.636h63.885h16.431c7.302,0,11.548,1.225,12.778,3.649
				c1.822,3.052,2.738,10.655,2.738,22.818l14.6,373.176l246.439-380.465c6.077-9.298,10.341-14.814,12.778-16.568
				c2.428-1.74,7.302-2.61,14.605-2.61h9.129c10.951,0,22.499,0,34.68,0c12.163,0,25.556,0,40.156,0h68.441h29.205
				c13.375,0,20.08,5.476,20.08,16.4c0,15.201-10.496,23.857-31.487,25.984c-20.996,2.123-34.084,6.373-39.25,12.746
				c-5.175,6.391-10.496,20.823-15.971,43.295l-89.441,372.734c-2.442,10.327-4.879,22.791-7.302,37.364
				c-2.437,14.591-3.649,24.317-3.649,29.164c0,10.323,2.879,17.926,8.669,22.786c5.776,4.865,16.573,8.514,32.398,10.942
				c15.816,2.423,23.734,9.411,23.734,20.946c0,13.976-10.655,20.964-31.947,20.964h-29.205
				c-43.208-4.861-78.49-7.302-105.873-7.302c-30.43,0-56.587,1.225-78.49,3.654l-45.636,3.649
				c-15.215,0-22.814-6.387-22.814-19.165c0-10.341,5.476-17.343,16.427-20.991l15.516-2.738l10.951-0.916l10.04-1.827
				c12.163-1.212,20.836-5.931,26.011-14.145c5.161-8.214,12.008-29.05,20.536-62.519L2156.153,764.446z"/>
		</g>
	</g>
	<g>
		<polygon points="190.282,761.623 190.281,761.623 169.687,761.623 0,761.623 332.561,1245.504 427.702,1107.073 		"/>
		<polygon points="337.414,1252.564 507.101,1252.564 527.696,1252.564 432.555,1114.133 		"/>
	</g>
	<g>
		<polygon points="411.78,761.623 391.187,761.623 221.499,761.623 443.311,1084.362 538.452,945.931 		"/>
		<polygon points="543.304,952.991 448.164,1091.422 554.061,1245.503 649.202,1107.073 		"/>
	</g>
</g>
</svg>
