<?xml version="1.0" encoding="utf-8"?>
<!-- Generator: Adobe Illustrator 25.0.0, SVG Export Plug-In . SVG Version: 6.00 Build 0)  -->
<svg version="1.1" id="Layer_1" xmlns="http://www.w3.org/2000/svg" xmlns:xlink="http://www.w3.org/1999/xlink" x="0px" y="0px"
	 viewBox="0 0 3840 504.8" style="enable-background:new 0 0 3840 504.8;" xml:space="preserve">
<style type="text/css">
	.st0{fill:#EC2224;}
	.st1{fill:#FFFFFF;}
	.st2{fill:url(#SVGID_1_);}
	.st3{fill:url(#SVGID_2_);}
	.st4{fill:url(#SVGID_3_);}
	.st5{fill:url(#SVGID_4_);}
	.st6{fill:url(#SVGID_5_);}
	.st7{fill:url(#SVGID_6_);}
	.st8{fill:url(#SVGID_7_);}
	.st9{fill:url(#SVGID_8_);}
	.st10{fill:url(#SVGID_9_);}
	.st11{fill:url(#SVGID_10_);}
	.st12{fill:url(#SVGID_11_);}
	.st13{fill:url(#SVGID_12_);}
	.st14{fill:url(#SVGID_13_);}
	.st15{fill:url(#SVGID_14_);}
	.st16{fill:url(#SVGID_15_);}
	.st17{fill:url(#SVGID_16_);}
	.st18{fill:url(#SVGID_17_);}
	.st19{fill:url(#SVGID_18_);}
	.st20{fill:url(#SVGID_19_);}
	.st21{fill:url(#SVGID_20_);}
	.st22{fill:url(#SVGID_21_);}
	.st23{fill:url(#SVGID_22_);}
	.st24{fill:url(#SVGID_23_);}
	.st25{fill:url(#SVGID_24_);}
	.st26{fill:url(#SVGID_25_);}
	.st27{fill:url(#SVGID_26_);}
	.st28{fill:url(#SVGID_27_);}
	.st29{fill:url(#SVGID_28_);}
	.st30{fill:url(#SVGID_29_);}
	.st31{fill:url(#SVGID_30_);}
	.st32{fill:url(#SVGID_31_);}
	.st33{fill:url(#SVGID_32_);}
	.st34{fill:url(#SVGID_33_);}
	.st35{fill:url(#SVGID_34_);}
	.st36{fill:url(#SVGID_35_);}
	.st37{fill:url(#SVGID_36_);}
	.st38{fill:url(#SVGID_37_);}
	.st39{fill:url(#SVGID_38_);}
</style>
<g>
	<g>
		<g>
			<path d="M3143.5,417.4v-26.8c0-19.9,14.5-28.5,32.4-28.5c17.8,0,32.3,8.6,32.3,28.5v26.8H3143.5z M3199,406.1V395
				c0-17.8-10.1-21.6-23.1-21.6c-13,0-23.1,3.8-23.1,21.6v11.1H3199z"/>
			<path d="M3197.8,314.2c2.5,0,3.5-0.5,3.5-2.4c0-0.6,0-1.5-0.2-2.5h7.2c0.5,1.5,1.2,4.8,1.2,6.5c0,4.2-1.4,7.2-5.7,8
				c4,4.1,5.7,10.7,5.7,16.2c0,8.4-4.5,16-13.7,16c-11.7,0-13.6-9.3-14.6-18c-1.4-7.4-0.5-14-6.6-14c-5.3,0-6.3,5.5-6.3,9.7
				c0,5.8,2.4,9.9,7.4,10.3v10.3c-12.1-0.7-15.6-11-15.6-21.3c0-9.2,3.7-18.8,13.6-18.8H3197.8z M3184.8,324.6
				c2.1,3.2,2,8.2,2.8,12.7c0.7,4.4,2.4,8.4,7.8,8.4c4.6,0,6-5.9,6-9.5c0-4.5-2.4-11.6-8.9-11.6H3184.8z"/>
			<path d="M3161.4,307.8V300h-14v-10.3h14v-9.3h7.7v9.3h25c4.3,0,6.4-0.4,6.4-5c0-1.4,0-2.9-0.4-4.4h8c0.2,2.3,0.5,4.4,0.5,6.7
				c0,10.8-4.2,12.8-12,13h-27.6v7.8H3161.4z"/>
			<path d="M3197.8,233.7c2.5,0,3.5-0.5,3.5-2.4c0-0.6,0-1.4-0.2-2.5h7.2c0.5,1.5,1.2,4.8,1.2,6.5c0,4.2-1.4,7.2-5.7,8
				c4,4.1,5.7,10.7,5.7,16.2c0,8.4-4.5,16-13.7,16c-11.7,0-13.6-9.3-14.6-18c-1.4-7.4-0.5-14-6.6-14c-5.3,0-6.3,5.5-6.3,9.7
				c0,5.8,2.4,9.9,7.4,10.3v10.3c-12.1-0.7-15.6-11-15.6-21.3c0-9.2,3.7-18.8,13.6-18.8H3197.8z M3184.8,244c2.1,3.2,2,8.2,2.8,12.7
				c0.7,4.4,2.4,8.4,7.8,8.4c4.6,0,6-5.9,6-9.5c0-4.5-2.4-11.6-8.9-11.6H3184.8z"/>
			<path d="M3143.5,210.6v-11.3h54.9v-32.9h9.8v44.2H3143.5z"/>
			<path d="M3161.4,166.4v-7.8h-14v-10.3h14v-9.3h7.7v9.3h25c4.3,0,6.4-0.4,6.4-5c0-1.5,0-2.9-0.4-4.4h8c0.2,2.3,0.5,4.4,0.5,6.7
				c0,10.8-4.2,12.8-12,13h-27.6v7.8H3161.4z"/>
			<path d="M3208.2,87.3v9.8h-6.3v0.2c5.3,2.7,7.6,8.6,7.6,14.5c0,14.8-11,21.9-25,21.9c-16.9,0-24.4-10.1-24.4-20.3
				c0-5.9,2.2-12.4,7.3-15.6v-0.2h-23.9V87.3H3208.2z M3201.4,110.5c0-9.2-8.4-13.1-16.6-13.1c-10.3,0-16.5,5-16.5,13
				c0,9.7,8.6,13.1,17,13.1C3193.4,123.4,3201.4,119.4,3201.4,110.5z"/>
		</g>
		<path d="M3196,79.7V67.1h12.2v12.6H3196z"/>
	</g>
	<g>
		<g>
			<polygon points="439.2,430.7 396.5,504.8 373.5,504.8 416.2,430.7 			"/>
			<path d="M526.9,278.9l99.7-172.6c10.3-17.8,29.3-28.8,49.9-28.8h211.7l11.5-19.9H754.4l-77.5,0c-27.9,0-53.9,15-67.9,39.2
				L571.4,162l-1.1,2l-66.4,115H526.9z"/>
			<g>
				<path d="M932.8,0L754.4,0l0,0h-77.5c-48.6,0-93.5,25.9-117.8,68l-37.6,65.2l-1.1,2l-83,143.8H489L597.9,90.3
					c16.3-28.1,46.5-45.6,79-45.6H907L932.8,0z"/>
				<path d="M644.9,189.7h178.4l57.3-99.3H676.4c-16,0-30.7,8.5-38.7,22.4l-95.9,166.2h51.6L644.9,189.7z"/>
				<polygon points="505.8,430.7 463,504.8 411.4,504.8 454.1,430.7 				"/>
				<polygon points="349.7,430.7 306.9,504.8 358.6,504.8 401.3,430.7 				"/>
			</g>
			<path d="M131.4,189.7h122l-16.6,28.7c-52.3,90.6,13.1,204,117.8,204h0l512,0l-47.6,82.4h51.6l34.7-60.1c8-13.8,8-30.9,0-44.7
				c-8-13.8-22.7-22.4-38.7-22.4h-512c-33,0-62.5-17.1-79-45.6c-16.5-28.6-16.5-62.7,0-91.3l16.6-28.7c8-13.8,8-30.9,0-44.7
				c-8-13.8-22.7-22.4-38.7-22.4H105.6L131.4,189.7z"/>
			<path d="M79.2,99.3h172.7c33,0,62.5,17.1,79,45.6c16.5,28.6,16.5,62.7,0,91.3l-16.6,28.7c-8,13.8-8,30.9,0,44.7
				c8,13.8,22.7,22.3,38.7,22.3l512,0c33,0,62.5,17.1,79,45.6c14.5,25.2,16.3,54.7,5.2,80.9l-26.7,46.3H975l7.8-13.6
				c52.3-90.6-13.1-204-117.8-204l-276.5,0h-156l-79.5,0l16.6-28.7c52.3-90.6-13.1-204-117.8-204h-1.3L221,84.2l-29.6-29.6h-138
				L79.2,99.3z"/>
			<g>
				<polygon points="199.7,46.3 221,25 242.3,46.3 264.8,46.3 221,2.5 177.2,46.3 				"/>
			</g>
			<path d="M68.2,145.1L0,120.3l39.5-24.9l9.7,16.8h202.7c28.3,0,53.7,14.6,67.9,39.2c14.2,24.5,14.2,53.8,0,78.4l-16.6,28.7
				c-10.3,17.8-10.3,39.8,0,57.6c10.3,17.8,29.3,28.8,49.9,28.8l512,0c28.3,0,53.7,14.6,67.9,39.2s14.2,53.8,0,78.4l-24.5,42.4h-23
				l31-53.6c10.3-17.8,10.3-39.8,0-57.6c-10.3-17.8-29.3-28.8-49.9-28.8h-356h-156c-28.3,0-53.7-14.6-67.9-39.2
				c-14.2-24.5-14.2-53.8,0-78.4l16.6-28.7c10.3-17.8,10.3-39.8,0-57.6c-10.3-17.8-29.3-28.8-49.9-28.8H60.8L68.2,145.1z"/>
		</g>
		<g>
			<path d="M1238.7,87.4h-166.9v330.1h147c115.1,0,168.7-64.3,168.7-165.5C1387.5,168.7,1348.7,87.4,1238.7,87.4z M1213.2,332.8
				h-39.8V172h32.4c73.5,0,80,57.8,80,78.6C1285.8,281.5,1276.6,332.8,1213.2,332.8z M1670,264.4c33.8-12.5,49.5-48.5,49.5-82.8
				c0-62.4-49.9-94.3-107.7-94.3H1418v330.1h101.7V302.3h54.1c40.2,0,43,32.8,45.8,64.3c1.4,17.1,3.2,34.2,8.3,50.9h101.7
				c-9.2-15.3-9.7-54.6-11.1-70.7C1714.8,305.6,1697.7,275.1,1670,264.4z M1572.9,231.6h-53.2v-65.7h47.6c38.8,0,50.4,12,50.4,32.8
				C1617.7,228.4,1591.8,231.6,1572.9,231.6z M1866.5,87.4l-121.6,330.1H1847l14.8-47.2h105l13.9,47.2h105.4L1965.9,87.4H1866.5z
				 M1884,299.6l31.9-101.7h0.9l29.6,101.7H1884z M2260.3,306.5h44.8c-5.1,24.5-29.1,36.5-52.7,36.5c-62,0-74.4-54.1-74.4-85.1
				c0-22.7-2.3-96.2,67.5-96.2c24,0,44.4,17.1,48.1,41.1h97.6c-14.8-77.7-68-123.4-152.1-123.4c-74.4,0-162.7,50.4-162.7,176.1
				c0,93.9,60.1,169.7,157.7,169.7c36.1,0,71.2-12.5,93.9-41.6l3.2,33.7h64.3V235.8h-135V306.5z M2589.9,79.5
				c-100.3,0-167.4,72.1-167.4,172.9c0,100.8,67,172.9,167.4,172.9c100.3,0,167.4-72.1,167.4-172.9
				C2757.3,151.6,2690.3,79.5,2589.9,79.5z M2589.9,343c-25.9,0-65.6-17.1-65.6-90.6c0-73.5,39.8-90.6,65.6-90.6
				c25.9,0,65.7,17.1,65.7,90.6C2655.6,325.9,2615.8,343,2589.9,343z M2988.5,87.4V264h-0.9l-96.2-176.6h-104v330.1h96.2V237.1h0.9
				l101.3,180.3h98.9V87.4H2988.5z"/>
		</g>
	</g>
	<path d="M3449.8,181.7c-1.9-6-6.5-12.5-13.4-17.6c-6.5-4.2-14.8-5.5-25-5.5c-35.1,0-52.7,34.2-55.9,66.1c21.7-19.9,45.3-25,74.4-25
		c62,0,107.7,39.8,107.7,102.6c0,79.1-55.5,118.8-132.2,118.8c-97.6,0-137.3-74-137.3-153c0-101.2,46.7-176.1,145.2-176.1
		c69.3,0,111,26.8,121.1,89.7H3449.8z M3361.5,303.7c0,25.4,18.5,44.4,43.9,44.4c27.7,0,47.2-19.9,47.2-44.4
		c0-22.7-18.5-42.5-47.2-42.5C3380.5,261.2,3361.5,279.7,3361.5,303.7z"/>
	<path d="M3700.4,353.7h-142.9v-86.9l147-171.1h92v179.4h43.5v78.6h-43.5v63.8h-96.2V353.7z M3621.8,275.1h78.6v-90.2L3621.8,275.1z
		"/>
</g>
</svg>
