<?xml version="1.0" encoding="utf-8"?>
<!-- Generator: Adobe Illustrator 25.0.0, SVG Export Plug-In . SVG Version: 6.00 Build 0)  -->
<svg version="1.1" id="Layer_1" xmlns="http://www.w3.org/2000/svg" xmlns:xlink="http://www.w3.org/1999/xlink" x="0px" y="0px"
	 viewBox="0 0 3840 648.6" style="enable-background:new 0 0 3840 648.6;" xml:space="preserve">
<style type="text/css">
	.st0{fill:#EC2224;}
	.st1{fill:#FFFFFF;}
	.st2{fill:url(#SVGID_1_);}
	.st3{fill:url(#SVGID_2_);}
	.st4{fill:url(#SVGID_3_);}
	.st5{fill:url(#SVGID_4_);}
	.st6{fill:url(#SVGID_5_);}
	.st7{fill:url(#SVGID_6_);}
	.st8{fill:url(#SVGID_7_);}
	.st9{fill:url(#SVGID_8_);}
	.st10{fill:url(#SVGID_9_);}
	.st11{fill:url(#SVGID_10_);}
	.st12{fill:url(#SVGID_11_);}
	.st13{fill:url(#SVGID_12_);}
	.st14{fill:url(#SVGID_13_);}
	.st15{fill:url(#SVGID_14_);}
	.st16{fill:url(#SVGID_15_);}
	.st17{fill:url(#SVGID_16_);}
	.st18{fill:url(#SVGID_17_);}
	.st19{fill:url(#SVGID_18_);}
	.st20{fill:url(#SVGID_19_);}
	.st21{fill:url(#SVGID_20_);}
	.st22{fill:url(#SVGID_21_);}
	.st23{fill:url(#SVGID_22_);}
	.st24{fill:url(#SVGID_23_);}
	.st25{fill:url(#SVGID_24_);}
	.st26{fill:url(#SVGID_25_);}
	.st27{fill:url(#SVGID_26_);}
	.st28{fill:url(#SVGID_27_);}
	.st29{fill:url(#SVGID_28_);}
	.st30{fill:url(#SVGID_29_);}
	.st31{fill:url(#SVGID_30_);}
	.st32{fill:url(#SVGID_31_);}
	.st33{fill:url(#SVGID_32_);}
	.st34{fill:url(#SVGID_33_);}
	.st35{fill:url(#SVGID_34_);}
	.st36{fill:url(#SVGID_35_);}
	.st37{fill:url(#SVGID_36_);}
	.st38{fill:url(#SVGID_37_);}
	.st39{fill:url(#SVGID_38_);}
</style>
<g>
	<polygon points="2304.7,264.9 2270,375.6 2338,375.6 2305.7,264.9 	"/>
	<polygon points="3327.4,546.7 3318.3,572.5 3336.6,572.5 3327.6,546.7 	"/>
	<path d="M3137.9,544.9h-10.3v42.9h10.3c16.5,0,20-9.4,20-21.4S3154.4,544.9,3137.9,544.9z"/>
	<polygon points="3211.8,546.7 3202.7,572.5 3221,572.5 3212,546.7 	"/>
	<path d="M1531.4,236.7h-35.2v175.2h43.3c69,0,79.1-55.9,79.1-89.6C1618.5,299.6,1611.5,236.7,1531.4,236.7z"/>
	<path d="M3038.8,225.6c-28.2,0-71.5,18.6-71.5,98.7c0,80.1,43.3,98.7,71.5,98.7c28.2,0,71.5-18.6,71.5-98.7
		C3110.3,244.2,3067,225.6,3038.8,225.6z"/>
	<path d="M1925.1,230.1h-51.9v71.5h57.9c20.6,0,48.8-3.5,48.8-35.7C1980,243.2,1967.4,230.1,1925.1,230.1z"/>
	<path d="M3740.4,0H99.6C44.6,0,0,44.6,0,99.6V549c0,55,44.6,99.6,99.6,99.6h3640.8c55,0,99.6-44.6,99.6-99.6V99.6
		C3840,44.6,3795.4,0,3740.4,0z M785,196.6l1.2-2.2l41-71c26.5-45.8,75.3-74,128.2-74h84.4l0,0l194.3,0L1206,98.1H955.4
		c-35.4,0-68.4,19-86.1,49.7L750.8,353.2h-56.2L785,196.6z M954.9,133.8c-22.4,0-43.1,12-54.3,31.4L792,353.2h-25l72.3-125.3
		l1.2-2.1l41-71c15.2-26.3,43.5-42.7,73.9-42.7l84.4,0h158.1l-12.5,21.7H954.9z M1177.3,147.9l-62.4,108.2H920.6l-56.1,97.1h-56.2
		l104.5-180.9c8.7-15.1,24.8-24.3,42.2-24.3H1177.3z M458.9,52.1l47.7,47.7h-24.5l-23.2-23.2l-23.2,23.2h-24.5L458.9,52.1z
		 M552.5,599.2l46.6-80.7h56.2l-46.6,80.7H552.5z M625,599.2l46.6-80.7h25L650,599.2H625z M722.5,599.2h-56.2l46.6-80.7H769
		L722.5,599.2z M1110.1,599.2l51.8-89.7l-557.6,0h0c-114,0-185.2-123.4-128.2-222.1l18-31.3H361.4l-28.1-48.7h160.9
		c17.4,0,33.5,9.3,42.2,24.3c8.7,15.1,8.7,33.6,0,48.7l-18,31.3c-18,31.1-18,68.3,0,99.4c18,31.1,50.1,49.7,86.1,49.7h557.6
		c17.4,0,33.5,9.3,42.2,24.3c8.7,15.1,8.7,33.6,0,48.7l-37.8,65.4H1110.1z M1182.6,599.2l33.7-58.4c11.2-19.4,11.2-43.3,0-62.7
		c-11.2-19.4-31.9-31.4-54.3-31.4H774.3H604.4c-30.8,0-58.5-16-73.9-42.7c-15.4-26.7-15.4-58.6,0-85.3l18-31.3
		c11.2-19.4,11.2-43.3,0-62.7c-11.2-19.4-31.9-31.4-54.3-31.4H284.5l8,14.2l-74.3-27.1l43-27.1l10.6,18.3h220.7
		c30.8,0,58.5,16,73.9,42.7c15.4,26.7,15.4,58.6,0,85.3l-18,31.3c-11.2,19.4-11.2,43.3,0,62.7s31.9,31.4,54.3,31.4l557.6,0
		c30.8,0,58.5,16,73.9,42.7c15.4,26.7,15.4,58.6,0,85.3l-26.7,46.2H1182.6z M1288.6,584.4l-8.5,14.8h-57.1l29.1-50.4
		c12.1-28.6,10.2-60.7-5.6-88.1c-18-31.1-50.1-49.7-86.1-49.7l-557.6,0c-17.4,0-33.5-9.3-42.2-24.3c-8.7-15.1-8.7-33.6,0-48.7
		l18-31.3c18-31.1,18-68.3,0-99.4c-18-31.1-50.1-49.7-86.1-49.7H304.5l-28.1-48.7h150.3l32.3,32.3l32.3-32.3h1.4
		c114,0,185.2,123.4,128.2,222.1l-18,31.3l86.5,0h169.9l301.1,0C1274.3,362.3,1345.6,485.7,1288.6,584.4z M1545.5,504h-160.1V144.6
		h181.8c119.8,0,162.1,88.6,162.1,179.2C1729.3,434,1670.9,504,1545.5,504z M1991.1,504c-5.5-18.1-7.6-36.8-9.1-55.4
		c-3-34.2-6-70-49.8-70h-58.9V504h-110.8V144.6h211c62.9,0,117.3,34.7,117.3,102.7c0,37.3-17.1,76.5-53.9,90.1
		c30.2,11.6,48.8,44.8,52.9,89.6c1.5,17.6,2,60.4,12.1,77H1991.1z M2375.2,504l-15.1-51.4h-114.3l-16.1,51.4h-111.3l132.4-359.5
		h108.2L2490,504H2375.2z M2826.8,504h-70l-3.5-36.8c-24.7,31.7-62.9,45.3-102.2,45.3c-106.2,0-171.7-82.6-171.7-184.8
		c0-136.9,96.2-191.8,177.2-191.8c91.6,0,149.5,49.8,165.6,134.4h-106.2c-4-26.2-26.2-44.8-52.4-44.8c-76,0-73.5,80.1-73.5,104.7
		c0,33.7,13.6,92.6,81.1,92.6c25.7,0,51.9-13.1,57.4-39.8h-48.8v-77h147V504z M2856.5,324.3c0-109.8,73-188.3,182.3-188.3
		c109.3,0,182.3,78.5,182.3,188.3c0,109.8-73,188.3-182.3,188.3C2929.5,512.6,2856.5,434,2856.5,324.3z M3141.9,596.4H3117v-60h24.9
		c18.5,0,26.5,13.5,26.5,30S3160.4,596.4,3141.9,596.4z M3229.4,596.4l-5.6-15.9h-24l-5.6,15.9h-10.8l23-60h11.2l23.1,60H3229.4z
		 M3294.1,545.4H3275v50.9h-10.5v-50.9h-19v-9.1h48.6V545.4z M3345,596.4l-5.6-15.9h-24l-5.6,15.9H3299l23-60h11.2l23.1,60H3345z
		 M3358.5,307.7V504h-104.7V144.6H3367l104.7,192.3h1V144.6h104.7V504h-107.7l-110.3-196.4H3358.5z M3451.6,596.4h-41v-60h10.5v50.9
		h30.5V596.4z M3506.6,545.4h-19.1v50.9H3477v-50.9h-19v-9.1h48.6V545.4z M3551,596.4h-24.9v-60h24.9c18.5,0,26.5,13.5,26.5,30
		S3569.5,596.4,3551,596.4z M3593.7,596.4H3582V585h11.7V596.4z"/>
	<path d="M3547,544.9h-10.3v42.9h10.3c16.5,0,20-9.4,20-21.4S3563.5,544.9,3547,544.9z"/>
</g>
</svg>
