<?xml version="1.0" encoding="utf-8"?>
<!-- Generator: Adobe Illustrator 25.2.3, SVG Export Plug-In . SVG Version: 6.00 Build 0)  -->
<svg version="1.1" id="Layer_1" xmlns="http://www.w3.org/2000/svg" xmlns:xlink="http://www.w3.org/1999/xlink" x="0px" y="0px"
	 viewBox="0 0 3839 1181.66" style="enable-background:new 0 0 3839 1181.66;" xml:space="preserve">
<style type="text/css">
	.st0{fill:#953D8C;}
	.st1{fill:#FFFFFF;}
	.st2{fill:#E20C00;}
	.st3{fill:#FCA200;}
	.st4{fill:#FFF100;}
	.st5{fill:#00A85F;}
	.st6{fill:#00A0DE;}
	.st7{fill:#F10075;}
</style>
<g>
	<g>
		<g>
			<path d="M170.08,891.7c-3.06-12.56-11.34-22.37-21.76-29.11c-10.42-7.05-23.29-10.73-35.86-10.73
				c-46.28,0-72.63,36.16-72.63,78.76c0,42.29,25.74,78.76,72.63,78.76c33.1,0,50.57-17.16,62.82-41.68h36.78
				c-12.87,53.02-51.49,78.45-99.6,78.45C48.73,1046.16,0,995.59,0,929.4c0-77.84,59.15-114.31,112.16-114.31
				c7.05,0,40.15,2.15,57.92,19v-14.1h32.18v71.71H170.08z"/>
			<path d="M446.51,930.93c0-64.05,49.34-115.84,116.15-115.84s116.45,51.79,116.45,115.84c0,65.28-53.32,115.23-116.45,115.23
				C481.75,1046.16,446.51,984.25,446.51,930.93z M486.35,935.22c0,41.37,32.79,74.16,74.16,74.16c45.66,0,78.76-34.94,78.76-79.99
				c0-42.6-32.48-77.53-75.39-77.53C515.16,851.86,486.35,888.33,486.35,935.22z"/>
			<path d="M985.88,864.73h-0.61v146.49h24.82v30.03h-83.66v-30.03h22.07v-161.2h-22.07v-30.03h83.97l42.6,126.87h0.61l45.97-126.87
				h79.99v30.03h-21.76v161.2h21.76v30.03h-83.36v-30.03h24.82V864.73h-0.61l-54.86,149.55h-24.52L985.88,864.73z"/>
			<path d="M1491.23,850.02h-24.21v-30.03h83.97c42.9,0,85.81,17.16,85.81,69.87c0,53.32-41.37,69.87-77.84,69.87h-27.89v51.49
				h28.19v30.03h-92.24v-30.03h24.21V850.02z M1531.07,929.7h15.02c31.57,0,50.87-11.65,50.87-40.15s-19.31-40.15-50.87-40.15
				h-15.02V929.7z"/>
			<path d="M1894.22,819.99h85.81v30.03h-23.9v100.52c0,26.36-3.98,58.84,41.37,58.84c41.07,0,37.08-32.48,37.08-58.84V850.02h-23.9
				v-30.03h85.81v30.03h-22.07V967.4c0,58.23-41.68,78.76-76.31,78.76c-44.74,0-81.82-26.36-81.82-73.86V850.02h-22.07V819.99z"/>
			<path d="M2361.26,881.9v-61.9h166.1v61.9h-35.24v-31.87h-27.89v161.2h26.66v30.03h-93.16v-30.03h26.66v-161.2h-27.89v31.87
				H2361.26z"/>
			<path d="M2797.35,1041.26v-30.03h23.6v-161.2h-23.6v-30.03h170.39v58.53h-35.24v-28.5h-71.71v55.78h61.6v34.94h-61.6v70.49h71.71
				v-36.16h35.24v66.2H2797.35z"/>
			<path d="M3229.76,1041.26v-30.03h23.6v-161.2h-23.6v-30.03h95c15.02,0,47.5-2.45,68.34,25.13c10.11,12.87,9.81,26.66,9.81,30.03
				c0,25.74-11.34,40.45-34.63,50.26v0.61c25.13,6.13,27.27,21.76,27.27,35.24v49.95h21.45v30.03h-61.29v-77.53
				c0-20.84-22.37-22.98-38.61-22.98h-23.9v70.49h24.52v30.03H3229.76z M3293.2,910.7h25.74c22.07,0,44.13-3.68,44.13-33.4
				c0-27.27-27.89-27.27-48.73-27.27h-21.15V910.7z"/>
			<path d="M3712.43,965.56c3.68,29.11,23.29,49.95,53.32,49.95c17.77,0,33.4-14.1,33.4-32.48c0-30.03-23.29-29.73-60.07-40.76
				c-9.19-2.76-59.45-8.89-59.45-66.2c0-20.53,17.16-60.99,68.95-60.99c17.16,0,33.4,7.36,45.36,18.69v-13.79h32.18v66.2h-30.65
				c-2.45-11.65-7.66-21.76-15.02-28.81c-7.66-7.36-17.77-11.65-30.03-11.65c-18.08,0-30.95,11.03-30.95,30.03
				c0,21.15,30.03,25.13,60.07,34.02c30.03,8.89,59.45,19.92,59.45,67.73c0,41.37-29.73,68.65-70.18,68.65
				c-20.53,0-39.23-5.52-55.16-18.69v13.79h-32.18v-75.7H3712.43z"/>
		</g>
		<rect x="54" y="7.25" width="95.4" height="661.68"/>
		<rect x="1001.89" y="7.25" width="95.4" height="661.68"/>
		
			<rect x="15.78" y="573.25" transform="matrix(-1.836970e-16 1 -1 -1.836970e-16 684.7116 571.4169)" width="81.74" height="109.63"/>
		
			<rect x="15.78" y="-6.69" transform="matrix(-1.836970e-16 1 -1 -1.836970e-16 104.7721 -8.5226)" width="81.74" height="109.63"/>
		<g>
			<rect x="263.66" y="481.48" width="79.76" height="156.79"/>
			
				<rect x="214.04" y="539.57" transform="matrix(-1.836970e-16 1 -1 -1.836970e-16 882.9797 373.1488)" width="81.74" height="177"/>
		</g>
		<g>
			<g>
				
					<rect x="845.74" y="37.92" transform="matrix(-1 -1.224647e-16 1.224647e-16 -1 1771.2354 220.6362)" width="79.76" height="144.8"/>
				
					<rect x="874.43" y="-21.44" transform="matrix(6.123234e-17 -1 1 6.123234e-17 867.1816 963.4312)" width="81.74" height="139.14"/>
			</g>
			<g>
				<rect x="1173.69" y="37.92" width="79.76" height="144.8"/>
				
					<rect x="1143.01" y="-21.44" transform="matrix(3.504758e-11 -1 1 3.504758e-11 1135.7527 1232.0022)" width="81.74" height="139.14"/>
			</g>
		</g>
		<rect x="263.66" y="37.92" width="79.76" height="121.92"/>
		<rect x="214.04" y="-40.37" transform="matrix(6.123234e-17 -1 1 6.123234e-17 206.7907 303.0403)" width="81.74" height="177"/>
		
			<rect x="189.01" y="261.24" transform="matrix(6.123234e-17 -1 1 6.123234e-17 -94.8255 554.5837)" width="81.74" height="126.93"/>
		<g>
			
				<rect x="1067.86" y="573.25" transform="matrix(-1.836970e-16 1 -1 -1.836970e-16 1736.7949 -480.6664)" width="81.74" height="109.63"/>
			
				<rect x="949.58" y="573.25" transform="matrix(-1.836970e-16 1 -1 -1.836970e-16 1618.5175 -362.389)" width="81.74" height="109.63"/>
		</g>
		<rect x="2935.61" y="7.25" width="95.4" height="661.68"/>
		
			<rect x="2883.31" y="573.25" transform="matrix(-1.836970e-16 1 -1 -1.836970e-16 3552.2419 -2296.1133)" width="81.74" height="109.63"/>
		
			<rect x="3001.58" y="573.25" transform="matrix(-1.836970e-16 1 -1 -1.836970e-16 3670.5193 -2414.3909)" width="81.74" height="109.63"/>
		<g>
			
				<rect x="3001.58" y="-6.69" transform="matrix(-1.836970e-16 1 -1 -1.836970e-16 3090.5798 -2994.3303)" width="81.74" height="109.63"/>
			
				<rect x="2883.31" y="-6.69" transform="matrix(-1.836970e-16 1 -1 -1.836970e-16 2972.3025 -2876.053)" width="81.74" height="109.63"/>
		</g>
		<rect x="1706.16" y="7.25" width="95.4" height="661.68"/>
		
			<rect x="1667.94" y="573.25" transform="matrix(-1.836970e-16 1 -1 -1.836970e-16 2336.8762 -1080.7477)" width="81.74" height="109.63"/>
		
			<rect x="1946.9" y="573.25" transform="matrix(-1.836970e-16 1 -1 -1.836970e-16 2615.8325 -1359.7039)" width="81.74" height="109.63"/>
		
			<rect x="1667.94" y="-6.69" transform="matrix(-1.836970e-16 1 -1 -1.836970e-16 1756.9368 -1660.6871)" width="81.74" height="109.63"/>
		
			<rect x="2201.12" y="601.98" transform="matrix(-1.836970e-16 1 -1 -1.836970e-16 2870.0544 -1613.926)" width="81.74" height="52.16"/>
		<rect x="1330.5" y="7.25" width="95.4" height="661.68"/>
		
			<rect x="1292.28" y="573.25" transform="matrix(-1.836970e-16 1 -1 -1.836970e-16 1961.2152 -705.0867)" width="81.74" height="109.63"/>
		
			<rect x="1292.28" y="-6.69" transform="matrix(-1.836970e-16 1 -1 -1.836970e-16 1381.2758 -1285.0261)" width="81.74" height="109.63"/>
		<g>
			<rect x="1540.16" y="481.48" width="79.76" height="156.79"/>
			
				<rect x="1490.55" y="539.57" transform="matrix(-1.836970e-16 1 -1 -1.836970e-16 2159.4834 -903.3548)" width="81.74" height="177"/>
		</g>
		<rect x="1540.16" y="37.92" width="79.76" height="121.92"/>
		<rect x="3363.25" y="0" width="79.76" height="158.87"/>
		<rect x="3127.75" y="468.49" width="79.76" height="188.07"/>
		
			<rect x="1490.55" y="-40.37" transform="matrix(6.123234e-17 -1 1 6.123234e-17 1483.2943 1579.5438)" width="81.74" height="177"/>
		
			<rect x="1465.51" y="261.24" transform="matrix(6.123234e-17 -1 1 6.123234e-17 1181.6781 1831.0874)" width="81.74" height="126.93"/>
		<g>
			<rect x="3532.02" y="7.25" width="95.4" height="661.68"/>
			
				<rect x="3493.8" y="573.25" transform="matrix(-1.836970e-16 1 -1 -1.836970e-16 4162.7373 -2906.6091)" width="81.74" height="109.63"/>
			
				<rect x="3493.8" y="-6.69" transform="matrix(-1.836970e-16 1 -1 -1.836970e-16 3582.7981 -3486.5486)" width="81.74" height="109.63"/>
			<g>
				<rect x="3741.68" y="481.48" width="79.76" height="156.79"/>
				
					<rect x="3692.07" y="539.57" transform="matrix(-1.836970e-16 1 -1 -1.836970e-16 4361.0059 -3104.8772)" width="81.74" height="177"/>
			</g>
			<rect x="3741.68" y="37.92" width="79.76" height="121.92"/>
			
				<rect x="3692.07" y="-40.37" transform="matrix(6.123234e-17 -1 1 6.123234e-17 3684.8167 3781.0662)" width="81.74" height="177"/>
			
				<rect x="3667.03" y="261.24" transform="matrix(6.123234e-17 -1 1 6.123234e-17 3383.2004 4032.6096)" width="81.74" height="126.93"/>
		</g>
		<g>
			<polygon points="1931.74,181.51 2027.15,181.51 2027.15,86.88 1947.52,7.25 1818.58,7.25 1818.58,89 1896.87,89 1931.74,123.87 
							"/>
			<polygon points="1931.74,151.38 2027.15,151.38 2027.15,278.18 1947.52,357.81 1818.58,357.81 1818.58,276.06 1896.87,276.06 
				1931.74,241.19 			"/>
		</g>
		<rect x="2120.5" y="7.25" width="95.4" height="661.68"/>
		
			<rect x="2082.28" y="573.25" transform="matrix(-1.836970e-16 1 -1 -1.836970e-16 2751.2192 -1495.0907)" width="81.74" height="109.63"/>
		
			<rect x="2082.28" y="-6.69" transform="matrix(-1.836970e-16 1 -1 -1.836970e-16 2171.2798 -2075.03)" width="81.74" height="109.63"/>
		<g>
			<polygon points="2346.09,181.51 2441.49,181.51 2441.49,86.88 2361.86,7.25 2232.92,7.25 2232.92,89 2311.21,89 2346.09,123.87 
							"/>
			<polygon points="2346.09,151.38 2441.49,151.38 2441.49,278.18 2361.86,357.81 2232.92,357.81 2232.92,276.06 2311.21,276.06 
				2346.09,241.19 			"/>
		</g>
		<polygon points="1944.38,374.82 1844.96,374.82 1931.24,668.94 2030.66,668.94 		"/>
		<rect x="2513.3" y="7.25" width="95.4" height="661.68"/>
		
			<rect x="2475.08" y="573.25" transform="matrix(-1.836970e-16 1 -1 -1.836970e-16 3144.0127 -1887.8842)" width="81.74" height="109.63"/>
		
			<rect x="2754.03" y="573.25" transform="matrix(-1.836970e-16 1 -1 -1.836970e-16 3422.9688 -2166.8403)" width="81.74" height="109.63"/>
		
			<rect x="2475.08" y="-6.69" transform="matrix(-1.836970e-16 1 -1 -1.836970e-16 2564.0732 -2467.8235)" width="81.74" height="109.63"/>
		<g>
			<polygon points="2738.88,181.51 2834.28,181.51 2834.28,86.88 2754.65,7.25 2625.72,7.25 2625.72,89 2704.01,89 2738.88,123.87 
							"/>
			<polygon points="2738.88,151.38 2834.28,151.38 2834.28,278.18 2754.65,357.81 2625.72,357.81 2625.72,276.06 2704.01,276.06 
				2738.88,241.19 			"/>
		</g>
		<g>
			<polygon points="3220.34,186.34 3124.93,186.34 3124.93,280.96 3204.57,360.6 3333.5,360.6 3333.5,278.85 3255.21,278.85 
				3220.34,243.98 			"/>
			<polygon points="3220.34,206.43 3124.93,206.43 3124.93,79.63 3204.57,0 3346.24,0 3346.24,81.74 3255.21,81.74 3220.34,116.62 
							"/>
		</g>
		<g>
			<polygon points="3350.42,497.29 3445.83,497.29 3445.83,358.48 3366.19,278.85 3237.26,278.85 3237.26,360.6 3315.55,360.6 
				3350.42,395.47 			"/>
		</g>
		<g>
			<polygon points="3350.42,482.32 3445.83,482.32 3445.83,576.94 3366.19,656.57 3224.52,656.57 3224.52,574.83 3315.55,574.83 
				3350.42,539.95 			"/>
		</g>
		<polygon points="2751.52,374.82 2652.1,374.82 2738.37,668.94 2837.79,668.94 		"/>
		<polygon points="765.71,538.41 765.71,89 817.88,89 817.88,7.25 765.71,7.25 695.97,7.25 670.31,7.25 670.31,328.46 		"/>
		<g>
			<polygon points="438.02,130.13 438.02,587.19 385.85,587.19 385.85,668.94 438.02,668.94 507.76,668.94 533.42,668.94 
				533.42,340.08 			"/>
			<polygon points="769.19,587.19 767.45,583.38 523.43,46.35 505.66,7.25 382.33,7.25 382.33,89 438,89 438.01,88.99 438.02,89 
				438.02,89 438.02,89 533.42,298.95 533.42,298.95 701.54,668.94 818.48,668.94 818.48,587.19 			"/>
		</g>
		<g>
			<rect x="1.83" y="687.99" width="604.98" height="81.74"/>
			<rect x="1.83" y="1099.91" width="3819.61" height="81.74"/>
			<rect x="644.76" y="687.99" width="604.98" height="81.74"/>
			<rect x="1287.68" y="687.99" width="604.98" height="81.74"/>
			<rect x="1930.61" y="687.99" width="604.98" height="81.74"/>
			<rect x="2573.53" y="687.99" width="604.98" height="81.74"/>
			<rect x="3216.46" y="687.99" width="604.98" height="81.74"/>
		</g>
	</g>
</g>
</svg>
