<?xml version="1.0" encoding="utf-8"?>
<!-- Generator: Adobe Illustrator 26.3.1, SVG Export Plug-In . SVG Version: 6.00 Build 0)  -->
<svg version="1.1" id="Layer_1" xmlns="http://www.w3.org/2000/svg" xmlns:xlink="http://www.w3.org/1999/xlink" x="0px" y="0px"
	 viewBox="0 0 3839 1615.9" style="enable-background:new 0 0 3839 1615.9;" xml:space="preserve">
<style type="text/css">
	.st0{display:none;}
	.st1{display:inline;}
	.st2{fill:#FFFFFF;}
	.st3{fill:#C30207;}
</style>
<g>
	<g>
		<rect x="1215.9" y="1045.7" width="284.8" height="160.9"/>
		<path d="M1859.2,635.2c-172.2,0-311.8,139.6-311.8,311.8c0,169.3,134.9,307,303.1,311.6l-150.8,337.8h211.1l234.7-525.9
			c16.4-37.9,25.5-79.6,25.5-123.4C2171,774.7,2031.4,635.2,1859.2,635.2z M1859.2,1066c-65.7,0-119-53.3-119-119s53.3-119,119-119
			c65.7,0,119,53.3,119,119S1924.9,1066,1859.2,1066z"/>
		<path d="M2811.2,923.5c0-156.5-131.1-283.4-292.8-283.4c-161.7,0-292.8,126.9-292.8,283.4c0,70.7,26.9,135.2,71.1,184.9
			c-53.1,53.5-85.9,126-85.9,206.1c0,164.4,137.7,297.7,307.5,297.7c169.9,0,307.5-133.3,307.5-297.7c0-80.1-32.8-152.6-85.9-206.1
			C2784.3,1058.7,2811.2,994.2,2811.2,923.5z M2518.4,827c53.3,0,96.5,43.2,96.5,96.5s-43.2,96.5-96.5,96.5
			c-53.3,0-96.5-43.2-96.5-96.5S2465.1,827,2518.4,827z M2518.4,1416.8c-61.7,0-111.8-50-111.8-111.8s50-111.8,111.8-111.8
			c61.7,0,111.8,50,111.8,111.8S2580.1,1416.8,2518.4,1416.8z"/>
		<path d="M3206.6,655.8c-210,0-338.4,149.3-338.4,470.3c0,321,128.4,470.3,338.4,470.3s338.4-149.3,338.4-470.3
			S3416.6,655.8,3206.6,655.8z M3342.7,1126.6L3342.7,1126.6c-0.2,201.9-44,291.9-136.1,291.9c-92.1,0-136-90-136.1-291.9l0,0
			c0-0.2,0-0.4,0-0.5c0-0.2,0-0.4,0-0.5l0,0c0.2-201.9,44-291.9,136.1-291.9c92.1,0,136,90,136.1,291.9l0,0c0,0.2,0,0.4,0,0.5
			C3342.7,1126.3,3342.7,1126.4,3342.7,1126.6z"/>
		<path d="M1220.5,1389.6c-21.3,4.9-39.8,12-106.2,12c-102.1,0-248.2-91.6-248.2-275.5s146.1-275.5,248.2-275.5
			c66.4,0,84.9,7.2,106.2,12V644.3c-27.3-4.6-62-8-113.2-8c-227.3,0-472.7,187.3-472.7,489.8s245.4,489.8,472.7,489.8
			c51.3,0,85.9-3.4,113.2-8V1389.6z"/>
		<rect x="3630.9" y="655.8" width="208.1" height="940.6"/>
		<path d="M319.1,655.8h-111v0H0v940.6h208.1V855.1h94.5c56.3,0,101.9,45.6,101.9,101.9c0,56.3-45.6,101.9-101.9,101.9h-41.3v197.2
			h57.8c165.8,0,308.7-134.4,308.7-300.1S484.9,655.8,319.1,655.8z"/>
	</g>
	<g>
		<polygon points="1681.3,114.2 1767.4,65.4 1662.2,3.6 1607.7,263.6 1378.1,7.3 1270.8,128.5 1303.7,131.6 1327,157.6 
			1257.7,487.1 1384.7,422.9 1325.1,368.3 1361.3,195.9 1606.7,469.9 		"/>
		<path d="M2149.7,18.1h-314.5h-3h-58.5c-3.3,0-4.1,4.6-1,5.7c29.8,10.6,52.7,26.7,49.7,40.9l-28.5,135.9
			c-3.5,16.7-31.8,23.8-57.8,26.9c-4.2,0.5-4.3,6.5-0.1,7.2c33.4,5.3,45.5,12.3,47.2,16.6l-31.3,149.4c-5,23.8-39.3,29.6-69.1,40.3
			c-3.1,1.1-2.3,5.7,1,5.7h58.5h35.1h106.3h143.5h64.7h1.4l28.8-136.9c0.9-4.6-5.2-7-7.6-3.1c-23.7,38-76.8,112.3-129.9,112.3h-95
			l37.2-177.4h24h0.2c37.2,0,63.2,57.3,71.8,79.4c0.9,2.4,4.5,2.1,5-0.4l37.8-180.4c0.6-2.8-2.9-4.4-4.7-2.2
			c-17.3,22.3-63.4,75.9-105.8,75.9h-22.6l35.3-168h99.3c51.4,0,68.3,55,74.8,122.9c0.5,5.6,8.4,6,9.6,0.6l31.7-151.2L2149.7,18.1z"
			/>
		<path d="M2474.1,446.5l89.9-173.6c2.7-4.9-1.5-6.8-5.8-3.2c-170.9,141.6-285.3,13-268.5-71c18.5-91.9,91.1-137.5,158.2-152.6
			l70.2,90.3l63.1-30.8L2533.1,0.4c-150.9-7.2-343.2,87.6-352.4,261C2176.2,347.8,2259.8,521,2474.1,446.5z"/>
	</g>
</g>
</svg>
