<?xml version="1.0" encoding="utf-8"?>
<!-- Generator: Adobe Illustrator 25.0.0, SVG Export Plug-In . SVG Version: 6.00 Build 0)  -->
<svg version="1.1" id="Layer_1" xmlns="http://www.w3.org/2000/svg" xmlns:xlink="http://www.w3.org/1999/xlink" x="0px" y="0px"
	 viewBox="0 0 3840 1484.3" style="enable-background:new 0 0 3840 1484.3;" xml:space="preserve">
<style type="text/css">
	.st0{fill:#E31C1C;}
	.st1{fill:#FFFFFF;}
</style>
<g>
	<path d="M1511.6,37.1v1172.5h233.8l0-519.8l299.4,519.8l286-0.1L2063.9,742c116.4-63.7,191.8-187.6,191.8-329.6
		c0-207.2-168-375.2-375.2-375.2c-2.6,0-5.1,0.1-7.7,0.2v-0.2H1511.6z M1745.4,267.2h119.3c192.1,0,192.1,297.7,0,297.8h-119.3
		V267.2z"/>
	<path d="M3239.2,5.5c-339.9,0-615.6,275.7-615.6,615.6c0,339.9,275.7,615.4,615.6,615.4c205.9,0,388.3-101.1,500-256.3l-190-135.3
		c-69.5,96-182.5,158.6-310.1,158.6c-211.2,0-382.3-171.1-382.3-382.3c0-211.2,171.1-382.5,382.3-382.5
		c125.5,0,237,60.4,306.7,153.8l187.6-138.2C3621.3,103.3,3441.6,5.5,3239.2,5.5L3239.2,5.5z"/>
	<rect x="2330.8" y="37.1" width="235.1" height="1172.5"/>
	<g>
		<path d="M1219.7,621.1c0,213.1-172.8,385.9-385.9,385.9c-40.1,0-78.8-6.1-115.2-17.5l-147.1,194.6
			c59.8,27.9,124.7,46.5,192.9,54.1h138.7c310.3-34.5,551.6-297.5,551.6-617c0-155.2-56.9-297-150.9-405.9l-147,194.6
			C1196.5,470.5,1219.7,543.1,1219.7,621.1z"/>
		<path d="M1141.6,388.3l145.1-192c-57.1-60.9-126.4-110.4-204-144.4L934.2,248.4C1018,270.9,1090.6,321,1141.6,388.3z"/>
		<path d="M489.4,795.4c-26.5-52.3-41.5-111.6-41.5-174.3c0-213.1,172.8-385.9,385.9-385.9c25.2,0,49.9,2.4,73.7,7L1058.8,42
			C989,14.9,913.1,0,833.8,0c-343,0-621.1,278.1-621.1,621.1c0,140.6,46.7,270.2,125.5,374.3L489.4,795.4z"/>
		<path d="M548.6,1172.8l145.1-192c-80.2-31.2-147.4-88.5-191.1-161.5l-148.4,196.4C407.5,1080.3,473.6,1134,548.6,1172.8z"/>
	</g>
	<polygon points="480.4,1263.1 1407,37.1 1093.9,37.1 0,1484.3 3840,1484.3 3840,1263.1 	"/>
</g>
</svg>
