<?xml version="1.0" encoding="utf-8"?>
<!-- Generator: Adobe Illustrator 26.0.3, SVG Export Plug-In . SVG Version: 6.00 Build 0)  -->
<svg version="1.1" id="Layer_1" xmlns="http://www.w3.org/2000/svg" xmlns:xlink="http://www.w3.org/1999/xlink" x="0px" y="0px"
	 viewBox="0 0 3839 1518.3" style="enable-background:new 0 0 3839 1518.3;" xml:space="preserve">
<style type="text/css">
	.st0{fill:none;stroke:#DBDFDF;stroke-width:2.5576;stroke-miterlimit:10;}
	.st1{fill:#231F20;}
	.st2{fill:none;stroke:#231F20;stroke-width:5.7969;stroke-miterlimit:10;}
	.st3{fill:#FFFFFF;}
	.st4{fill:none;stroke:#221F1F;stroke-width:2.1796;stroke-miterlimit:10;}
	.st5{fill:none;stroke:#221F1F;stroke-width:2.2331;stroke-miterlimit:10;}
	.st6{font-family:'ITCKabelStd-Bold';}
	.st7{font-size:199.6071px;}
</style>
<g>
	<g>
		<g>
			<g>
				<path d="M1559.6,203.5h-127.8v39.9h127.8c24.5,0,45-20.5,45-45s-20.5-45-45-45h-32.7c-29.6,0-54.2-24.5-54.2-54.2
					s24.6-54.2,54.2-54.2h126.8V5.1h-127.8c-52.1,0-94.1,41.9-94.1,94.1s41.9,94.1,94.1,94.1h32.7c3.1,0,5.1,2.1,5.1,5.1
					S1561.6,203.5,1559.6,203.5z"/>
				<path d="M1525.9,95.1h127.8V54.2h-127.8c-24.5,0-45,20.5-45,45s20.5,45,45,45h32.7c29.6,0,54.2,24.5,54.2,54.2
					s-24.5,54.2-54.2,54.2h-126.8v39.9h127.8c52.1,0,94.1-41.9,94.1-94.1s-41.9-94.1-94.1-94.1h-32.7c-3.1,0-5.1-2.1-5.1-5.1
					C1521.8,97.1,1523.8,95.1,1525.9,95.1z"/>
			</g>
			<g>
				<path d="M1984.9,54.2c-17.4,0-30.7,13.3-30.7,30.7v127.8c0,17.4,13.3,30.7,30.7,30.7h82.8v-90h-63.4v39.9h23.5v9.2h-23.5
					c-5.1,0-9.2-4.1-9.2-9.2v-90c0-5.1,4.1-9.2,9.2-9.2h113.5V54.2H1984.9z"/>
				<path d="M2236.5,243.3h93l-63.4-188.1c-2.1-5.1-6.1-9.2-12.3-9.2c-5.1,0-10.2,4.1-12.3,8.2l-81.8,238.2h47l28.6-84.9v35.8
					L2236.5,243.3L2236.5,243.3z M2252.8,157.5l13.3,40.9h-27.6L2252.8,157.5z"/>
				<path d="M2315.2,47c-8.2-26.6-32.7-47-62.4-47c-29.7,0-54.2,19.4-61.3,46l-74.6,218.8V104.3h-112.5v39.9h73.6v108.4h-92
					c-22.5,0-39.9-18.4-39.9-39.9V84.9c0-22.5,18.4-39.9,39.9-39.9h131.9V5.1h-132.9c-44,0-79.7,35.8-79.7,79.7v127.8
					c0,44,35.8,79.7,79.7,79.7h164.6l82.8-240.3c3.1-9.2,11.2-15.3,21.5-15.3c10.2,0,18.4,6.1,21.5,15.3l67.5,200.4h-106.3v39.9
					H2398l0,0L2315.2,47z"/>
			</g>
			<g>
				<path d="M1752.8,252.6c-22.5,0-39.9-18.4-39.9-39.9V84.9c0-22.5,18.4-39.9,39.9-39.9h137V5.1h-137c-44,0-79.7,35.8-79.7,79.7
					v127.8c0,44,35.8,79.7,79.7,79.7h137v-39.9L1752.8,252.6L1752.8,252.6z"/>
				<path d="M1762,194.3h99.2v-39.9h-139.1v59.3c0,17.4,13.3,30.7,30.7,30.7h137v-39.9h-118.6C1766.1,203.5,1762,199.4,1762,194.3z"
					/>
				<path d="M1861.2,104.3H1762c0-5.1,4.1-9.2,9.2-9.2h117.6V54.2h-136c-17.4,0-30.7,13.3-30.7,30.7v59.3h139.1
					C1861.2,144.2,1861.2,104.3,1861.2,104.3z"/>
			</g>
		</g>
	</g>
	<g>
		<ellipse class="st3" cx="1346.3" cy="608.5" rx="17" ry="15.5"/>
		<path d="M1304.3,202.6c-21-1.2-20.5,55.5,1.2,52.7C1329.2,252.4,1321.2,203.6,1304.3,202.6z"/>
		<path d="M1183.2,238.9c-10.4,11.3,39.3,57.4,50.3,40.8C1245.3,261.6,1193.5,227.7,1183.2,238.9z"/>
		<path d="M1139.5,317.3c-9.5,17.2,35.1,50.6,46.7,29.6C1198.8,324,1144.9,307.4,1139.5,317.3z"/>
		<path d="M1433.9,213.1c-19.6-15-56.7,40.8-33.7,52.4C1425.2,278.1,1449.7,225.2,1433.9,213.1z"/>
		<path d="M1531,283.5c-6.6-20.9-72.1,5.2-60.7,25.1C1482.8,330.1,1536.3,300.3,1531,283.5z"/>
		<path d="M3818.9,395l-796.4-172.4l-3.9-0.8l-3.9,0.9l-704.3,164.2l-893.6-13.3c0,0,0,0.1,0,0.1c0,5,0.9,11.2-0.6,17.7l896.2,13.4
			l706.4-164.7l796.4,172.4l-388.2,1050.3l-1058.9,11.6l-160.8-10.9l-597.1-40.6l-546.5,60.2l-157,17.3l-70.7-10.7L305.2,1409
			L208,1065.1L22.1,407.3l473.4-124.1l304.9,21.7l452,69.2c0-0.2,0-0.4,0-0.5c0-4.2,0.1-10.4,2.3-17.2l-451.6-69.1l-0.7-0.1
			l-0.7-0.1l-304.9-21.7l-2.9-0.2l-2.9,0.7L17.6,390L0,394.6l4.9,17.5L288,1413.8l3.1,11.1l11.4,1.7l601.6,91.3l2.3,0.3l2.3-0.3
			l701.9-77.3l756.3,51.4l0.7,0l0.7,0l1058.9-11.6l12.3-0.1l4.3-11.5l388.2-1050.3l7.1-19.3L3818.9,395z"/>
		<text transform="matrix(0.9477 0 0 1 339.8781 1357.6165)" class="st6 st7">The Computer That Thinks It’s A Toy!</text>
		<rect x="2005.1" y="1379.8" width="531.9" height="20.8"/>
		<g>
			<path d="M2416.2,835.9c0.5,2.5,0.8,5.1,0.8,7.9c0,33.2-119,118.7-258.3,118.7l-149.6,0c-43.7,0-122.6-20.1-180.1-56.5
				c14.1,11.9,31.4,23,51.8,33.2c55.7,27.9,117.1,40.6,150.6,40.6l149.6,0c81.4,0,147.1-29,179.1-46.3c22.2-12,41.3-25.3,55.1-38.5
				c12-11.5,19.2-22.3,19.2-29C2434.3,853.5,2428.2,843.4,2416.2,835.9z"/>
			<path d="M555.3,638.7c3.1,7.9,10.9,13,19.4,12.4c32.9-2.2,112.7-12.7,139.1-61.9c12.1-22.7-55.3-46.2-74.2-50.2
				c-34.9-7.3-60.4,4.8-100.2,21.9c-6.8,2.9-10.1,10.7-7.4,17.5L555.3,638.7z"/>
			<path d="M3076.6,819.5c65.5,0,113.5-6.8,161.4-47.9c20.8-17.8,28.4-60.4,45.3-83.9c4.7-6.5,1.3-15.6-6.6-17.3
				c-10.4-2.3-19.6-8.2-35.9-19.9c-8.2-5.9-22.4-15.6-45.1-24.5c-22.6,2.7-59.8,9.2-51.7,25c4.9,9.5,12.2,0.5,20.6-1.9
				c14.2-4.1,27.2,20.8,7.5,23.8c-23.2,3.5-67.6-2.9-67.6-29.8c0-14.7,10.6-27.2,19-34.8c-14.4-1.9-30.4-3.1-48.1-3.4
				c-15.7,6.4-55.2,23.2-47.7,36.1c5.4,9.3,14.2,4.1,21.3-1c26.9-19.6,40.6,7.6,23.4,17.6c-36.5,21.1-80,2.2-79.5-21.9
				c0.2-10.3,5.4-19.4,11.4-26.6c-80.2,12.2-100.6,48.4-115.5,69.4c-12.6,17.8-26,41.9-10.1,64.4
				C2912.5,790.5,2958.9,819.5,3076.6,819.5z M2952.2,721.7c4.1-7.5,13.6-10.3,21.1-6.1c0.5,0.3,51.5,27.9,93.3,27.9h60.2
				c25.1,0,46.1-1.8,56.3-4.7c8.2-2.4,16.8,2.3,19.3,10.5c2.4,8.2-2.3,16.8-10.5,19.3c-16.9,5-44.7,6-65,6h-60.2
				c-49.9,0-105.9-30.5-108.2-31.8C2950.8,738.7,2948.1,729.2,2952.2,721.7z"/>
			<path d="M1451.6,844.7c3.8-24.8,7.8-50.4,7.5-73.4c-0.3-25.3-5.8-44-16.9-56.9c-2.3-2.7-4.8-5.1-7.6-7.4
				c13.4,32.9,5.3,79.3-1.3,122.2c-6.3,41.2,9.9,66.3,0.2,99.1c-27.2,91.8-126.8,93.1-180.9,66.1c7.4,8.5,19.2,16.2,33.8,22
				c17.1,6.9,37,10.6,56.1,10.6c24.5,0,46.9-6,64.9-17.4c21.1-13.4,35.8-33.7,43.7-60.4c4.8-16.1,2.9-30.1,0.7-46.3
				c-2-14.8-4.2-31.7-1.1-52.1C1451,848.8,1451.3,846.8,1451.6,844.7z"/>
			<path d="M918,608.5c-7.5,67.8-68.3,157.3-312.4,157.2c-3.6,0-6.4,3.3-5.8,6.8c4,21.8,34.6,55.9,35.6,88
				c2,70.7-56.9,87.9-116.8,80.6c-19.6-2.4-36.7-8.4-51.8-16.9c21.3,19.3,46.4,30.8,74.6,34.3c8.2,1,16.3,1.5,24,1.5
				c21.4,0,50.8-4,69.4-23.2c12.5-12.9,18.5-31,17.8-53.9c-0.5-17.7-11.1-36.8-20.5-53.7c-6.8-12.2-13.2-23.8-15-33.5
				c-0.6-3.1,0.3-6.3,2.3-8.8c2.1-2.5,5.1-3.9,8.3-3.9l0.5,0c108,0,189.4-17.6,241.9-52.4c20.9-13.8,37.1-30.4,48.2-49.2
				c9.2-15.7,14.9-32.9,17-51.2c2.5-22.8-0.2-56.7-27.1-88.7c-1.3-1.6-2.8-3.2-4.2-4.7C917.6,561.3,920.5,586.5,918,608.5z"/>
			<path d="M1994.2,847.6c-4.5-12-5.3-25.1-5.3-37.7c0-16.1,7.4-31.2,21.9-44.9c12.5-11.8,30-22.6,53.5-32.9
				c43.1-18.9,98.7-32.6,147.4-43.5c17.7-4,34.9-6.6,50.2-8.9c21.7-3.3,40.5-6.2,53.4-11.7c12.9-5.5,18.4-12.7,18.4-24.2
				c0-4.2-6-11.5-17.4-19.7c-2.5,36.5-59.4,32.3-125.7,47.1c-98.8,22.1-219,54.2-219,116.4C1971.6,807,1973.1,831.4,1994.2,847.6z"
				/>
			<path d="M3407.4,677.9c0-23.1-9.2-44.2-27.1-62.6c6.6,12.9,9.7,26.4,9.7,40.3v74.8c0,77.4-95.2,182.9-308.8,182.9
				c-136.3,0-224-26.6-278.1-60.7c6,5.1,12.5,9.9,19.5,14.6c28.7,19.2,64.9,34.3,107.5,44.9c49.5,12.3,107.8,18.6,173.4,18.6
				c120.2,0,192.3-33.4,231.6-61.5c45.2-32.3,72.2-75.8,72.2-116.4V677.9z"/>
		</g>
		<path d="M1252.3,373.5c0-14.4,1.4-53.3,84.7-51.8c2,0,4.1,0,6.2,0.1c68.3,2.3,73.6,45.9,73.6,51.9c0,9.5,3.2,22.9-12.7,35.4
			l61.1,0.9c4.2-9.3,6.7-20.8,6.7-35.4c0-24.5-27.8-96-127.1-99.3c-118.1-4-139,83.2-139,107.7c0,0.7,0,1.3,0,2l55.4,8.5
			C1254,385.4,1252.3,378.2,1252.3,373.5z"/>
		<g>
			<path d="M1282.8,409.4c19.1,10.1,46,32,53,52.1c0.9,2.6,3.4,4.3,6.1,4.6c4.3,0.5,10.7,1,15.7,0.5c2.9-0.3,5.4-2.1,6.4-4.8
				c10.6-26.4,24.4-41.1,38.9-51.9c0.4-0.3,0.7-0.6,1.1-0.8l-43.7-0.7l-1.2,0l-1.2-0.2l-96.8-14.8
				C1265.8,398.6,1272.7,404,1282.8,409.4z"/>
			<path d="M3018.9,258.4l-702.5,163.8l-2.1,0.5l-2.2,0l-847-12.6c-17.5,39.2-63.4,41-69.1,85.4c-0.7,5.6-4.8,10.3-10.3,11.4
				l-12.7,2.6c-3.7,0.7-3.9,6-0.2,6.9c13.4,3.4,29.8,9.5,29.8,19.2c0,10-19.4,16.5-34.4,20c-3.7,0.8-3.7,6-0.1,6.9
				c12.7,3.2,27.7,8.5,27.7,15.4c0,11.9-35.8,9.7-35.8,9.7c-39.3,0-63.9-7.7-63.9-27.7c0-12.4,21-22.2,37-27.9
				c3.4-1.2,3-6.2-0.6-6.8c-39.4-7-41-37.2-42.8-50.8c-3.3-24.5-82.1-29.3-83.8-89.3l-407.4-62.3l-301.2-21.4L44.2,419.9
				l183.2,648.5l680.6,116l705.3-78.4l800.5,53.9h1105.9l271.4-734.2L3018.9,258.4z M940.3,630.8C932.9,698.6,872.1,788,628.4,788
				c-0.1,0-0.3,0-0.4,0c0,0,0,0,0,0c-3.6,0-6.4,3.3-5.8,6.8c4,21.8,34.6,55.9,35.6,88c1.8,61-41.8,82.1-92.1,82.1
				c-8.1,0-16.3-0.5-24.6-1.6c-41-5-71.4-25.7-93.8-52.8c-66.7-54.6-81.4-163.2-83.3-191.4c-4.6-68.8-54.3-99-54.3-151.4
				c0-33.6,70.8-23.9,70.8-23.9c-0.7-29.1-16.8-131.5,259.6-114.6c143.8,8.8,217.3,46.2,251.9,89.2
				C934.9,553.7,944.1,596.2,940.3,630.8z M1455.8,950.6c-17.8,60.1-66.6,81.4-113.3,81.4c-41.3,0-81-16.6-96.5-37.9
				c-1.3-1.8-2.5-3.6-3.6-5.5c-7.9-5-14.3-10.7-18.7-16.8c-28.7-39.6-14.7-101.1-8.2-130.8c4.4-20.4-6.2-69-0.9-92.2
				c12.8-55.2,54.6-86.4,132.4-86.4c45.5,0,70.4,13.9,83.1,35.6c46.7,27.7,34.6,93.9,25.4,153.5
				C1449.2,892.7,1465.5,917.8,1455.8,950.6z M3491.2,461.6c24.4,26.6-104.5,116.8-130.7,84.5C3331.8,510.6,3481,450.4,3491.2,461.6
				z M3231.4,359.9c49,16.3-53.1,137.8-90.1,114.5C3111.1,455.3,3194,347.5,3231.4,359.9z M2861,360.9
				c31.7-22,109.2,100.3,86.8,110.8C2903.8,492.3,2828.2,383.8,2861,360.9z M2600.5,518.7c24.9-28.4,149.9,37.5,134.6,82.2
				C2722.7,637.3,2573.9,549,2600.5,518.7z M2180.9,984.7l-149.6,0c-57.8,0-177.1-35.2-227.1-96.7c-27-22.5-45.1-49.7-45.1-80.9
				l-1.1-61.4c-0.1-8,3.1-15.7,9-21.2c79.7-75.4,235.6-163,420.7-163c54.5,0,120,35.3,128,56.1c14.1,9.5,23.1,19.2,23.1,26.3
				c0,39.3-58,34.5-125.8,49.6c-98.8,22.1-219,54.2-219,116.4c0,13.3,0.7,29,8,42.8c13.9,7.8,34.1,12.7,63.6,12.7
				c110.3,0,154.2-65.2,271.6-69.3c30.9-1.1,66.8,8.5,77.1,32.9c14.8,7.7,25.2,19.8,25.2,37.1
				C2439.3,899.2,2320.3,984.7,2180.9,984.7z M2558,775.2c5.4-30.7,153.3-45.2,157.6-1.8C2718.1,798.9,2553.2,802.7,2558,775.2z
				 M2697.3,975.8c-19.7-26.8,108.1-112.2,124.1-86C2843.6,926.4,2725,1013.5,2697.3,975.8z M2943,1072.1
				c-32.3-15.5,32.9-140.7,64-125.9C3040,961.8,2972.7,1086.4,2943,1072.1z M2777.4,833.8c-38.1-32.2-51.7-67.6-51.7-92.6v-19
				c0-93.2,116.5-208,339.7-208c171.4,0,267,36.3,305.1,85.8c28.7,22.7,41.9,49.7,41.9,78v74.8c0,77.4-95.2,182.9-308.8,182.9
				C2915.3,935.6,2820,884.8,2777.4,833.8z M3237.3,1071.7c-37.6,11-88.8-117.1-54.4-131.6
				C3229.7,920.5,3278.8,1059.6,3237.3,1071.7z M3483.4,951.5c-24.2,27.2-147.8-55.9-129.8-81.5
				C3375.6,838.8,3508.3,923.4,3483.4,951.5z M3418.6,716.5c7-38.8,173-23.7,162,13.5C3569.9,766.1,3412.9,748.2,3418.6,716.5z"/>
		</g>
	</g>
</g>
</svg>
