<?xml version="1.0" encoding="utf-8"?>
<!-- Generator: Adobe Illustrator 26.0.3, SVG Export Plug-In . SVG Version: 6.00 Build 0)  -->
<svg version="1.1" id="Layer_1" xmlns="http://www.w3.org/2000/svg" xmlns:xlink="http://www.w3.org/1999/xlink" x="0px" y="0px"
	 viewBox="0 0 3839 1627.7" style="enable-background:new 0 0 3839 1627.7;" xml:space="preserve">
<style type="text/css">
	.st0{fill:none;stroke:#DBDFDF;stroke-width:2.5576;stroke-miterlimit:10;}
	.st1{fill:#231F20;}
	.st2{fill:none;stroke:#231F20;stroke-width:5.7969;stroke-miterlimit:10;}
	.st3{fill:#FFFFFF;}
	.st4{fill:none;stroke:#221F1F;stroke-width:2.1796;stroke-miterlimit:10;}
	.st5{fill:none;stroke:#221F1F;stroke-width:2.2331;stroke-miterlimit:10;}
</style>
<g>
	<g>
		<g>
			<g>
				<path d="M1257.3,391.3h-245.8v76.7h245.8c47.2,0,86.5-39.3,86.5-86.5s-39.3-86.5-86.5-86.5h-62.9c-57,0-104.2-47.2-104.2-104.2
					s47.2-104.2,104.2-104.2h243.8V9.8h-245.7c-100.3,0-180.9,80.6-180.9,180.9s80.6,180.9,180.9,180.9h62.9c5.9,0,9.8,3.9,9.8,9.8
					S1261.2,391.3,1257.3,391.3z"/>
				<path d="M1192.4,182.9h245.8v-78.7h-245.8c-47.2,0-86.5,39.3-86.5,86.5s39.3,86.5,86.5,86.5h62.9c57,0,104.2,47.2,104.2,104.2
					s-47.2,104.2-104.2,104.2h-243.8v76.7h245.8c100.3,0,180.9-80.6,180.9-180.9s-80.6-180.9-180.9-180.9h-62.9
					c-5.9,0-9.8-3.9-9.8-9.8C1184.5,186.8,1188.5,182.9,1192.4,182.9z"/>
			</g>
			<g>
				<path d="M2075.2,104.2c-33.4,0-59,25.6-59,59V409c0,33.4,25.6,59,59,59h159.3V294.9h-121.9v76.7h45.2v17.7h-45.2
					c-9.8,0-17.7-7.9-17.7-17.7v-173c0-9.8,7.9-17.7,17.7-17.7h218.2v-76.7H2075.2z"/>
				<path d="M2558.9,467.9h178.9l-121.9-361.8c-3.9-9.8-11.8-17.7-23.6-17.7c-9.8,0-19.7,7.9-23.6,15.7l-157.3,458.1h90.4
					l55.1-163.2v68.8L2558.9,467.9L2558.9,467.9z M2590.3,302.8l25.6,78.7h-53.1L2590.3,302.8z"/>
				<path d="M2710.3,90.4C2694.5,39.3,2647.4,0,2590.3,0c-57.1,0-104.2,37.3-117.9,88.5l-143.5,420.7V200.6h-216.3v76.7h141.6v208.4
					h-177c-43.3,0-76.7-35.4-76.7-76.7V163.2c0-43.3,35.4-76.7,76.7-76.7h253.6V9.8h-255.6c-84.6,0-153.3,68.8-153.3,153.3v245.8
					c0,84.6,68.8,153.3,153.3,153.3h316.6L2551,100.2c5.9-17.7,21.6-29.5,41.3-29.5c19.7,0,35.4,11.8,41.3,29.5l129.8,385.3h-204.5
					v76.7h310.7l0,0L2710.3,90.4z"/>
			</g>
			<g>
				<path d="M1628.9,485.7c-43.3,0-76.7-35.4-76.7-76.7V163.2c0-43.3,35.4-76.7,76.7-76.7h263.4V9.8h-263.4
					c-84.6,0-153.3,68.8-153.3,153.3v245.8c0,84.6,68.8,153.3,153.3,153.3h263.4v-76.7L1628.9,485.7L1628.9,485.7z"/>
				<path d="M1646.6,373.6h190.7v-76.7h-267.4v114.1c0,33.4,25.6,59,59,59h263.4v-76.7h-228.1
					C1654.5,391.3,1646.6,383.4,1646.6,373.6z"/>
				<path d="M1837.3,200.6h-190.7c0-9.8,7.9-17.7,17.7-17.7h226.1v-78.6h-261.5c-33.4,0-59,25.6-59,59v114.1h267.4
					C1837.3,277.2,1837.3,200.6,1837.3,200.6z"/>
			</g>
		</g>
	</g>
	<g>
		<g>
			<g>
				<path d="M1291,640.4c-21.5-1.2-21,56.8,1.3,54C1316.5,691.3,1308.3,641.4,1291,640.4z"/>
				<path d="M1166.9,677.6c-10.7,11.6,40.3,58.8,51.5,41.8C1230.6,700.8,1177.5,666,1166.9,677.6z"/>
				<path d="M1122.1,757.9c-9.7,17.6,36,51.8,47.9,30.3C1182.9,764.7,1127.7,747.7,1122.1,757.9z"/>
				<path d="M1423.8,651.1c-20.1-15.4-58,41.8-34.5,53.7C1414.9,717.7,1440,663.5,1423.8,651.1z"/>
				<path d="M1523.2,723.2c-6.7-21.4-73.8,5.4-62.1,25.7C1473.8,771,1528.7,740.5,1523.2,723.2z"/>
				<g>
					<path d="M610,985.1c-35.8-7.5-61.9,4.9-102.7,22.4c-6.9,3-10.3,10.9-7.6,18l23.9,61.6c3.2,8.1,11.2,13.3,19.9,12.7
						c33.7-2.3,115.5-13,142.5-63.4C698.4,1013.3,629.4,989.2,610,985.1z"/>
					<path d="M3311.9,1119.6c-10.7-2.3-20.1-8.4-36.8-20.3c-8.4-6-23-16-46.2-25.1c-23.2,2.8-61.2,9.5-53,25.6
						c5,9.8,12.5,0.5,21.1-2c14.5-4.2,27.9,21.3,7.7,24.4c-23.8,3.6-69.2-2.9-69.2-30.5c0-15.1,10.9-27.9,19.5-35.6
						c-14.8-1.9-31.2-3.1-49.3-3.5c-16.1,6.6-56.5,23.8-48.9,37c5.5,9.5,14.6,4.2,21.8-1.1c27.5-20.1,41.6,7.8,23.9,18
						c-37.4,21.6-81.9,2.2-81.4-22.5c0.2-10.5,5.5-19.9,11.6-27.3c-82.2,12.5-103.1,49.6-118.3,71.1c-12.9,18.2-26.6,42.9-10.4,66
						c34.5,49,82,78.7,202.7,78.7c67.2,0,116.2-7,165.4-49.1c21.3-18.2,29.1-61.9,46.4-86C3323.4,1130.6,3320,1121.3,3311.9,1119.6z
						 M3224.8,1220.2c-17.3,5.1-45.8,6.2-66.6,6.2h-61.7c-51.1,0-108.5-31.2-110.9-32.5c-7.7-4.2-10.5-13.9-6.3-21.6
						c4.2-7.7,13.9-10.5,21.6-6.3c1,0.5,52.9,28.6,95.6,28.6h61.7c25.7,0,47.3-1.8,57.7-4.9c8.4-2.5,17.3,2.4,19.7,10.8
						C3238.1,1208.9,3233.2,1217.7,3224.8,1220.2z"/>
				</g>
				<g>
					<path d="M1269,852.2c19.6,10.3,47.2,32.8,54.3,53.4c0.9,2.7,3.5,4.4,6.3,4.7c4.4,0.5,11,1,16,0.5c3-0.3,5.5-2.2,6.6-4.9
						c10.8-27.1,25-42.1,39.9-53.2c0.4-0.3,0.7-0.6,1.1-0.9l-44.7-0.7l-1.3,0l-1.2-0.2l-99.2-15.2
						C1251.5,841.1,1258.6,846.7,1269,852.2z"/>
					<path d="M3047.7,697.5l-719.7,167.8l-2.2,0.5l-2.2,0l-867.7-12.9c-17.9,40.1-65,42-70.8,87.5c-0.7,5.8-4.9,10.6-10.6,11.7
						l-13.1,2.6c-3.8,0.8-4,6.1-0.2,7.1c13.8,3.5,30.5,9.7,30.5,19.7c0,10.3-19.8,16.9-35.3,20.5c-3.7,0.9-3.8,6.1-0.1,7.1
						c13,3.3,28.4,8.7,28.4,15.8c0,12.2-36.7,9.9-36.7,9.9c-40.3,0-65.4-7.9-65.4-28.4c0-12.7,21.6-22.8,37.9-28.6
						c3.5-1.2,3.1-6.3-0.6-7c-40.4-7.2-42-38.1-43.9-52c-3.4-25.1-84.1-30-85.9-91.5l-417.4-63.9l-308.6-22L0,863l182.2,644.9
						l703.4,119.8l720.1-80l1.6-0.2l1.6,0.1l819.5,55.1h1139.2l271.3-734L3047.7,697.5z M1334,1040.4c9.6,0,17.4,7.1,17.4,15.9
						s-7.8,15.9-17.4,15.9c-9.6,0-17.4-7.1-17.4-15.9S1324.4,1040.4,1334,1040.4z M895.2,1056.2c-7.6,69.5-69.9,161.2-320.1,161.1
						c-3.7,0-6.6,3.3-5.9,7c4.1,22.3,35.5,57.3,36.4,90.1c2.1,72.5-58.3,90.1-119.6,82.5c-131.8-16.1-156.1-190.1-158.6-227.3
						c-4.7-70.5-55.6-101.4-55.6-155.1c0-34.4,72.5-24.5,72.5-24.5c-0.7-29.8-17.2-134.7,266-117.4
						C860,887.8,902.8,987.4,895.2,1056.2z M1423.4,1383.9c-34.4,115.9-181.2,91-214.9,44.5c-29.4-40.6-15-103.6-8.4-134
						c4.5-20.9-6.4-70.7-0.9-94.4c13.1-56.5,56-88.6,135.7-88.6c117.9,0,100.6,91.2,88.3,170.9
						C1416.6,1324.6,1433.3,1350.3,1423.4,1383.9z M3531.6,905.7c25,27.2-107,119.7-133.9,86.5
						C3368.2,955.9,3521.1,894.3,3531.6,905.7z M3265.4,801.5c50.2,16.7-54.4,141.2-92.3,117.3
						C3142.1,899.3,3227.1,788.8,3265.4,801.5z M2885.9,802.6c32.4-22.6,111.9,102.8,88.9,113.5
						C2929.7,937.2,2852.3,826,2885.9,802.6z M2619,964.2c25.5-29.1,153.6,38.4,137.9,84.2C2744.2,1085.7,2591.8,995.3,2619,964.2z
						 M2166.3,1418.8l-153.3,0c-76,0-256.1-59.4-256.1-159.2l-1.1-62.9c-0.1-8.2,3.2-16.1,9.2-21.8c81.7-77.2,241.3-167,431-167
						c59.6,0,132,41.1,132,61.6c0,40.2-59.4,35.3-128.9,50.9c-101.2,22.6-224.4,55.5-224.4,119.3c0,32.8,4.3,79.6,96.2,79.6
						c113,0,158-66.8,278.2-71c37.3-1.3,81.9,12.6,81.9,48.9C2431,1331.2,2309.1,1418.8,2166.3,1418.8z M2575.5,1227
						c5.5-31.5,157.1-46.3,161.4-1.8C2739.5,1251.3,2570.5,1255.2,2575.5,1227z M2718.1,1432.5c-20.2-27.5,110.7-115,127.1-88.1
						C2868.1,1381.9,2746.6,1471.1,2718.1,1432.5z M2969.9,1531.2c-33.1-15.9,33.7-144.1,65.6-129
						C3069.3,1418.2,3000.4,1545.8,2969.9,1531.2z M3271.4,1530.8c-38.5,11.2-91-120-55.7-134.8
						C3263.7,1375.8,3313.9,1518.4,3271.4,1530.8z M3111.6,1368.5c-289.1,0-364.4-116.9-364.4-176.4v-19.5
						c0-95.5,119.4-213.1,348.1-213.1c236.9,0,332.6,67.6,332.6,145v76.7C3427.9,1260.5,3330.4,1368.5,3111.6,1368.5z
						 M3523.5,1407.6c-24.8,27.8-151.4-57.3-132.9-83.5C3413.2,1292.2,3549.1,1378.9,3523.5,1407.6z M3457.2,1166.8
						c7.2-39.7,177.3-24.3,166,13.9C3612.2,1217.6,3451.3,1199.3,3457.2,1166.8z"/>
				</g>
			</g>
		</g>
		<path d="M1237.7,815.4c0-14.8,1.5-54.6,86.8-53.1c2.1,0,4.2,0,6.3,0.1c70,2.3,75.4,47,75.4,53.2c0,9.7,3.3,23.4-13,36.3l62.6,0.9
			c4.3-9.6,6.9-21.3,6.9-36.3c0-25.1-28.5-98.4-130.2-101.8c-121-4.1-142.4,85.3-142.4,110.4c0,0.7,0,1.4,0,2.1l56.7,8.7
			C1239.4,827.7,1237.7,820.3,1237.7,815.4z"/>
	</g>
</g>
</svg>
