<?xml version="1.0" encoding="utf-8"?>
<!-- Generator: Adobe Illustrator 26.0.3, SVG Export Plug-In . SVG Version: 6.00 Build 0)  -->
<svg version="1.1" id="Layer_1" xmlns="http://www.w3.org/2000/svg" xmlns:xlink="http://www.w3.org/1999/xlink" x="0px" y="0px"
	 viewBox="0 0 3839 1269.9" style="enable-background:new 0 0 3839 1269.9;" xml:space="preserve">
<style type="text/css">
	.st0{fill:none;stroke:#DBDFDF;stroke-width:2.5576;stroke-miterlimit:10;}
	.st1{fill:#231F20;}
	.st2{fill:none;stroke:#231F20;stroke-width:5.7969;stroke-miterlimit:10;}
	.st3{fill:#FFFFFF;}
	.st4{fill:none;stroke:#221F1F;stroke-width:2.1796;stroke-miterlimit:10;}
	.st5{fill:none;stroke:#221F1F;stroke-width:2.2331;stroke-miterlimit:10;}
</style>
<g>
	<g>
		<g>
			<g>
				<path d="M1465.8,238.8h-150v46.8h150c28.8,0,52.8-24,52.8-52.8s-24-52.8-52.8-52.8h-38.4c-34.8,0-63.6-28.8-63.6-63.6
					s28.8-63.6,63.6-63.6h148.8V6h-149.9c-61.2,0-110.4,49.2-110.4,110.4s49.2,110.4,110.4,110.4h38.4c3.6,0,6,2.4,6,6
					C1470.6,236.4,1468.2,238.8,1465.8,238.8z"/>
				<path d="M1426.2,111.6h150v-48h-150c-28.8,0-52.8,24-52.8,52.8s24,52.8,52.8,52.8h38.4c34.8,0,63.6,28.8,63.6,63.6
					s-28.8,63.6-63.6,63.6h-148.8v46.8h150c61.2,0,110.4-49.2,110.4-110.4s-49.2-110.4-110.4-110.4h-38.4c-3.6,0-6-2.4-6-6
					C1421.4,114,1423.8,111.6,1426.2,111.6z"/>
			</g>
			<g>
				<path d="M1964.9,63.6c-20.4,0-36,15.6-36,36v150c0,20.4,15.6,36,36,36h97.2V180h-74.4v46.8h27.6v10.8h-27.6
					c-6,0-10.8-4.8-10.8-10.8V121.2c0-6,4.8-10.8,10.8-10.8h133.2V63.6H1964.9z"/>
				<path d="M2260.1,285.6h109.2l-74.4-220.8c-2.4-6-7.2-10.8-14.4-10.8c-6,0-12,4.8-14.4,9.6l-96,279.6h55.2l33.6-99.6v42H2260.1
					L2260.1,285.6z M2279.3,184.8l15.6,48h-32.4L2279.3,184.8z"/>
				<path d="M2352.5,55.2C2342.9,24,2314.1,0,2279.3,0c-34.8,0-63.6,22.8-72,54l-87.6,256.7V122.4h-132v46.8h86.4v127.2h-108
					c-26.4,0-46.8-21.6-46.8-46.8V99.6c0-26.4,21.6-46.8,46.8-46.8h154.8V6h-156c-51.6,0-93.6,42-93.6,93.6v150
					c0,51.6,42,93.6,93.6,93.6h193.2l97.2-282c3.6-10.8,13.2-18,25.2-18s21.6,7.2,25.2,18l79.2,235.1h-124.8v46.8h189.6l0,0
					L2352.5,55.2z"/>
			</g>
			<g>
				<path d="M1692.6,296.4c-26.4,0-46.8-21.6-46.8-46.8v-150c0-26.4,21.6-46.8,46.8-46.8h160.8V6h-160.8C1641,6,1599,48,1599,99.6
					v150c0,51.6,42,93.6,93.6,93.6h160.8v-46.8L1692.6,296.4L1692.6,296.4z"/>
				<path d="M1703.4,228h116.4v-46.8h-163.2v69.6c0,20.4,15.6,36,36,36h160.8V240h-139.2C1708.2,238.8,1703.4,234,1703.4,228z"/>
				<path d="M1819.8,122.4h-116.4c0-6,4.8-10.8,10.8-10.8h138v-48h-159.6c-20.4,0-36,15.6-36,36v69.6h163.2
					C1819.8,169.2,1819.8,122.4,1819.8,122.4z"/>
			</g>
		</g>
	</g>
	<g>
		<path d="M1167.3,248.4c-24.6-1.4-24,65.1,1.5,61.9C1196.5,306.7,1187.1,249.5,1167.3,248.4z"/>
		<path d="M1025.1,290.9c-12.2,13.3,46.1,67.3,59,47.8C1098.1,317.6,1037.3,277.7,1025.1,290.9z"/>
		<path d="M973.9,382.9c-11.1,20.2,41.2,59.3,54.8,34.7C1043.5,390.7,980.3,371.3,973.9,382.9z"/>
		<path d="M1319.3,260.6c-23-17.6-66.5,47.8-39.5,61.5C1309.1,336.9,1337.9,274.8,1319.3,260.6z"/>
		<path d="M1433.3,343.2c-7.7-24.6-84.6,6.1-71.2,29.4C1376.7,398,1439.5,363,1433.3,343.2z"/>
		<g>
			<path class="st1" d="M3260,645.8c65,0,123.2,4.5,173,13.4c46.2,8.2,85.4,20.3,116.7,35.8c55.9,27.8,85.5,66.2,85.5,111v87.8
				c0,22.3-7.1,46.1-20.6,68.9c-14.8,25.1-36.4,47.9-64.2,67.7c-46.1,32.9-130.7,72.2-271.7,72.2c-77,0-145.4-7.3-203.5-21.8
				c-50-12.4-92.4-30.2-126.1-52.7c-28.2-18.8-49.8-40.5-64.1-64.4c-11.5-19.2-17.8-39.5-17.8-57.3v-22.3c0-26.5,8.5-54.6,24.6-81.3
				c17.2-28.6,42.2-54.5,74-77c34.7-24.6,76.1-43.9,123-57.4C3140.6,653.4,3198.2,645.8,3260,645.8 M3094.3,1021.1h328.6
				c78.5,0,142.4-63.9,142.4-142.4v-61.2c0-78.5-63.9-142.4-142.4-142.4h-328.6c-78.5,0-142.4,63.9-142.4,142.4v61.2
				C2951.9,957.3,3015.8,1021.1,3094.3,1021.1 M3260,640c-261.9,0-398.6,134.7-398.6,244.1v22.3c0,68.1,86.2,202,417.3,202
				c250.5,0,362.3-123.8,362.3-214.6v-87.8C3640.9,717.5,3531.3,640,3260,640L3260,640z M3094.3,1015.3
				c-75.4,0-136.6-61.2-136.6-136.6v-61.2c0-75.4,61.2-136.6,136.6-136.6h328.6c75.4,0,136.6,61.2,136.6,136.6v61.2
				c0,75.4-61.2,136.6-136.6,136.6H3094.3L3094.3,1015.3z"/>
		</g>
		<g>
			<path d="M2993.9,434.1c-38.5,26.8,50.2,154.2,101.9,130C3122.1,551.8,3031.1,408.2,2993.9,434.1z"/>
			<path d="M3428.6,432.9c-43.9-14.6-141.2,111.9-105.7,134.3C3366.3,594.6,3486.1,452.1,3428.6,432.9z"/>
			<path d="M3733.5,552.2c-12-13.1-187.1,57.6-153.4,99.1C3610.9,689.2,3762.1,583.4,3733.5,552.2z"/>
			<path d="M3838.4,867.2c13-43.7-181.9-61.3-190.1-15.9C3641.6,888.5,3825.8,909.5,3838.4,867.2z"/>
			<path d="M3724.3,1127.1c29.3-32.9-126.4-132.2-152.3-95.6C3550.9,1061.4,3695.9,1158.9,3724.3,1127.1z"/>
			<path d="M2688.3,619.2c29.2-33.3,175.9,44,158,96.5C2831.7,758.4,2657.1,654.8,2688.3,619.2z"/>
			<path d="M2947.4,1054.7c26.2,43-113,145.2-145.6,100.9C2778.7,1124.1,2928.6,1023.8,2947.4,1054.7z"/>
			<path d="M3165.3,1120.8c38.7,18.3-40.3,164.5-75.1,147.8C3052.3,1250.4,3128.8,1103.5,3165.3,1120.8z"/>
			<path d="M3371.7,1113.8c54.9-23.1,112.5,140.2,63.8,154.4C3391.5,1281,3331.4,1130.7,3371.7,1113.8z"/>
			<path d="M2638.4,920.2c6.3-36.1,179.9-53.1,184.9-2.1C2826.3,948,2632.8,952.5,2638.4,920.2z"/>
			<path d="M3253.2,717.2c-0.8,1-74.2,26.7-63.3,45.4c6.3,10.9,16.7,4.8,25-1.2c31.5-23,47.6,9,27.4,20.7
				c-42.8,24.7-93.8,2.5-93.3-25.7c0.6-28.5,34.1-50,34.1-50"/>
			<path d="M3406.1,742.9c-0.8,1-93.3,5.4-80,31.5c5.7,11.2,14.4,0.6,24.2-2.3c16.7-4.8,31.9,24.5,8.8,27.9
				c-27.2,4.1-79.3-3.4-79.3-35c0-28.5,34.1-50,34.1-50"/>
			<g>
				<path d="M3305.9,919.5h-70.7c-58.5,0-124.2-35.7-127-37.3c-8.8-4.8-12-15.9-7.2-24.7c4.8-8.8,15.9-12,24.7-7.2
					c1.1,0.6,60.6,32.8,109.5,32.8h70.7c29.5,0,54.1-2.1,66-5.6c9.7-2.8,19.8,2.7,22.6,12.4c2.8,9.7-2.7,19.8-12.3,22.6
					C3362.3,918.2,3329.7,919.5,3305.9,919.5z"/>
			</g>
			<path d="M3489.6,817.5c-19.8,27.6-28.8,77.6-53.2,98.5c-56.3,48.2-112.5,56.2-189.4,56.2c-138.2,0-192.6-34-232.1-90.1
				c-18.6-26.4-2.9-54.7,11.9-75.6c21.2-29.9,52-86.3,207.2-86.3c126.9,0,184,38.1,205.8,53.7c19.1,13.7,29.8,20.6,42.1,23.3
				C3491.1,799.2,3495.1,809.8,3489.6,817.5z M3233.8,613.9c-261.9,0-398.6,134.7-398.6,244.1v22.3c0,68.1,86.2,202,417.3,202
				c250.5,0,362.3-123.8,362.3-214.6v-87.8C3614.8,691.4,3505.2,613.9,3233.8,613.9z"/>
		</g>
		<g>
			<path class="st1" d="M346.4,544.1c20.9,0,43.5,0.7,67.1,2.2c76.7,4.7,141.1,16.7,191.4,35.8c42.8,16.3,75.7,37.8,97.7,63.9
				c31.6,37.5,34.8,77.3,31.8,104.1c-2.4,21.4-9.1,41.7-19.9,60.1c-13,22.1-32.1,41.6-56.6,57.8c-61.6,40.8-157.1,61.4-283.8,61.4
				h-0.5c-3.8,0-7.3,1.7-9.8,4.6c-2.4,2.9-3.4,6.6-2.7,10.3c2.1,11.4,9.6,25,17.6,39.4c11,19.8,23.4,42.2,24,63
				c0.8,26.9-6.3,48.1-20.9,63.2c-21.8,22.5-56.3,27.2-81.4,27.2c-9,0-18.5-0.6-28.2-1.8c-33.6-4.1-63.3-17.9-88.5-41
				c-21-19.2-38.9-45.1-53.3-76.8c-29.2-64-34.3-129.9-34.8-137.2c-2.9-43.2-20.6-74.1-36.3-101.5c-14.7-25.6-27.4-47.7-27.4-75.8
				c0-8.6,5.3-14.7,16.1-18.8c8.8-3.3,21.3-5,36.1-5c13.4,0,24.2,1.4,24.3,1.5l6.7,0.9l-0.2-6.8c0-1.5-0.1-3.1-0.2-4.8
				c-0.7-17.5-1.9-46.8,23.2-73C171.8,561.9,241.9,544.1,346.4,544.1 M234.9,828.5h5.8h264.1h5.8v-5.8V604.5v-5.8h-5.8H240.7h-5.8
				v5.8v218.2V828.5 M346.4,538.3c-254.2,0-237.9,105.1-237.2,136.7c0,0-11.1-1.5-25.1-1.5c-24.5,0-58,4.6-58,29.6
				c0,61.5,58.3,96.9,63.7,177.6c2.8,42.6,30.7,241.8,181.7,260.3c9.7,1.2,19.4,1.8,28.9,1.8c59.1,0,110.2-24.8,108.1-96.4
				c-1.1-37.6-37.1-77.7-41.7-103.2c-0.8-4.2,2.5-8,6.8-8c0,0,0,0,0,0c0.2,0,0.4,0,0.5,0c286,0,357.3-104.9,366.1-184.5
				c8.7-78.9-40.4-192.9-326.3-210.3C389.5,539,367.1,538.3,346.4,538.3L346.4,538.3z M240.7,822.7V604.5h264.1v218.2H240.7
				L240.7,822.7z"/>
		</g>
		<g>
			<path class="st1" d="M1243.6,819.8c40.8,0,68.7,9.5,85.5,29.1c13,15.2,19.5,37,19.9,66.8c0.3,27.1-4.3,57.1-8.8,86.2
				c-0.4,2.4-0.7,4.7-1.1,7.1c-3.7,24-1,43.7,1.3,61.1c2.5,19,4.7,35.5-0.9,54.4c-9.3,31.4-26.6,55.3-51.3,70.9
				c-21.1,13.4-47.4,20.4-76.1,20.4c-22.4,0-45.7-4.4-65.8-12.5c-19.3-7.7-34.4-18.2-42.7-29.6c-13.5-18.7-20-44.3-19.3-76.1
				c0.6-27.2,6.4-53.5,10.2-70.8l0.4-1.9c2.7-12.3,1.1-31.5-0.6-51.8c-1.7-21.1-3.5-43-0.4-56.3c7.3-31.4,23-55.5,46.7-71.5
				C1165.5,828.3,1200.2,819.8,1243.6,819.8 M1243.6,814c-91.3,0-140.4,36.7-155.4,101.4c-6.3,27.2,6.2,84.3,1,108.2
				c-7.6,34.8-24.1,106.9,9.7,153.4c18.1,25,64.7,44.5,113.2,44.5c54.9,0,112.1-25,133-95.5c11.4-38.5-7.7-67.9-0.3-116.2
				C1358.8,918.4,1378.6,814,1243.6,814L1243.6,814z"/>
		</g>
		<g>
			<path class="st1" d="M2230,701.3c29.5,0,66.3,9.7,98.5,25.9c30.4,15.3,46.8,31.4,46.8,38.9c0,13.5-6.5,22-21.6,28.4
				c-15.2,6.4-37.2,9.8-62.6,13.7c-17.8,2.7-38.1,5.8-58.9,10.5c-57.2,12.8-122.5,28.9-173,51c-27.6,12.1-48.2,24.7-62.8,38.6
				c-17,16.1-25.7,33.8-25.7,52.7c0,21.9,2,44.6,16.9,63.3c18,22.7,50.4,33.7,99.1,33.7c66.3,0,111.5-19.3,159.4-39.7
				c45.3-19.3,92.2-39.3,159.5-41.7c1.8-0.1,3.6-0.1,5.4-0.1c21.5,0,42.2,4.5,57,12.4c16.9,9.1,25.5,21.8,25.5,37.9
				c0,7.8-8.4,20.6-22.6,34c-16.2,15.4-38.6,31-64.6,45.1c-37.5,20.3-114.7,54.3-210.1,54.3h-175.6c-39.3,0-111.3-14.9-176.7-47.7
				c-33.4-16.7-59.9-35.6-78.8-56.1c-21.3-23.1-32.1-47.6-32.1-72.8v-0.1l0-0.1l-1.3-72c-0.1-7.7,3-15.2,8.7-20.6
				c52.1-49.3,122.7-94.6,198.8-127.7c44.3-19.3,90.3-34.3,136.5-44.7C2126.8,707.1,2178.8,701.3,2230,701.3 M2230,695.5
				c-217.2,0-400.1,102.8-493.6,191.3c-6.9,6.5-10.7,15.5-10.5,24.9l1.3,72c0,114.3,206.3,182.3,293.3,182.3H2196
				c163.5,0,303.1-100.3,303.1-139.3c0-39.8-46.8-56.1-88.3-56.1c-1.9,0-3.7,0-5.6,0.1c-137.7,4.9-189.2,81.4-318.7,81.4
				c-105.2,0-110.1-53.6-110.1-91.2c0-73,141.1-110.7,257-136.6c79.6-17.8,147.7-12.2,147.7-58.3
				C2381.1,742.6,2298.2,695.5,2230,695.5L2230,695.5z"/>
		</g>
		<path d="M387.7,514.3C63.4,494.6,82.3,614.7,83.1,648.8c0,0-83.1-11.3-83.1,28.1c0,61.5,58.3,96.9,63.7,177.6
			c2.8,42.6,30.7,241.8,181.7,260.3c70.2,8.6,139.4-11.5,137-94.5c-1.1-37.6-37.1-77.7-41.7-103.2c-0.8-4.2,2.5-8,6.8-8
			c286.5,0.1,357.8-104.9,366.6-184.5C722.7,645.8,673.6,531.7,387.7,514.3z M474.3,702c-30.9,57.7-124.6,70-163.2,72.6
			c-10,0.7-19.2-5.2-22.8-14.5L261,689.5c-3.1-8.1,0.7-17.2,8.7-20.6c46.7-20.1,76.6-34.3,117.6-25.7
			C409.5,647.8,488.6,675.4,474.3,702z"/>
		<path d="M1318.6,983.6c14.1-91.3,33.8-195.8-101.2-195.8c-91.3,0-140.4,36.7-155.4,101.4c-6.3,27.2,6.2,84.3,1,108.2
			c-7.6,34.8-24.1,106.9,9.7,153.4c38.6,53.2,206.8,81.7,246.2-51C1330.3,1061.4,1311.2,1032,1318.6,983.6z"/>
		<path d="M1699.6,885.5c-0.2-9.4,3.7-18.4,10.5-24.9c93.5-88.4,276.4-191.3,493.6-191.3c68.2,0,151.1,47.1,151.1,70.5
			c0,46.1-68.1,40.4-147.7,58.3c-115.9,25.9-257,63.6-257,136.6c0,37.6,4.9,91.2,110.1,91.2c129.4,0,181-76.5,318.7-81.4
			c42.8-1.5,93.9,14.4,93.9,56c0,39-139.6,139.3-303.1,139.3h-175.6c-87,0-293.3-68-293.3-182.3L1699.6,885.5z"/>
		<ellipse cx="1216.5" cy="724.6" rx="19.9" ry="18.2"/>
		<path d="M1214.8,333.5c-138.6-4.7-163.1,97.6-163.1,126.4c0,72.7,94.4,78.1,98.4,107.1c2.2,16,4,51.4,50.3,59.6
			c4.2,0.7,4.7,6.6,0.7,8c-18.7,6.6-43.4,18.1-43.4,32.7c0,23.5,28.8,32.5,74.9,32.5c0,0,42,2.6,42-11.4c0-8.1-17.6-14.3-32.5-18.1
			c-4.3-1.1-4.2-7.1,0.1-8.1c17.7-4.1,40.4-11.6,40.4-23.4c0-11.4-19.2-18.5-35-22.5c-4.3-1.1-4.1-7.2,0.2-8.1l15-3
			c6.5-1.3,11.3-6.8,12.1-13.4c8.3-64.5,89-52.4,89-141.8C1363.9,421.3,1331.2,337.5,1214.8,333.5z M1283.1,491.6
			c-17.1,12.7-33.2,29.9-45.6,60.9c-1.3,3.1-4.2,5.3-7.5,5.6c-5.8,0.5-13.3-0.1-18.4-0.6c-3.2-0.4-6.1-2.4-7.2-5.4
			c-8.2-23.6-39.8-49.4-62.2-61.2c-30.7-16.1-35.8-33-35.8-42.1c0-16.9,1.7-62.5,99.4-60.8c2.4,0,4.8,0,7.2,0.1
			c80.2,2.7,86.4,53.9,86.4,61C1299.3,460.5,1303.2,476.6,1283.1,491.6z"/>
	</g>
</g>
</svg>
