<?xml version="1.0" encoding="utf-8"?>
<!-- Generator: Adobe Illustrator 26.0.3, SVG Export Plug-In . SVG Version: 6.00 Build 0)  -->
<svg version="1.1" id="Layer_1" xmlns="http://www.w3.org/2000/svg" xmlns:xlink="http://www.w3.org/1999/xlink" x="0px" y="0px"
	 viewBox="0 0 3839 1518.3" style="enable-background:new 0 0 3839 1518.3;" xml:space="preserve">
<style type="text/css">
	.st0{fill:none;stroke:#DBDFDF;stroke-width:2.5576;stroke-miterlimit:10;}
	.st1{fill:#231F20;}
	.st2{fill:none;stroke:#231F20;stroke-width:5.7969;stroke-miterlimit:10;}
	.st3{fill:#FFFFFF;}
	.st4{fill:none;stroke:#221F1F;stroke-width:2.1796;stroke-miterlimit:10;}
	.st5{fill:none;stroke:#221F1F;stroke-width:2.2331;stroke-miterlimit:10;}
</style>
<g>
	<g>
		<g>
			<g>
				<path d="M1558.7,203.5h-127.8v39.9h127.8c24.5,0,45-20.5,45-45s-20.5-45-45-45H1526c-29.6,0-54.2-24.5-54.2-54.2
					S1496.4,45,1526,45h126.8V5.1H1525c-52.1,0-94.1,41.9-94.1,94.1s41.9,94.1,94.1,94.1h32.7c3.1,0,5.1,2.1,5.1,5.1
					S1560.8,203.5,1558.7,203.5z"/>
				<path d="M1525,95.1h127.8V54.2H1525c-24.5,0-45,20.5-45,45s20.5,45,45,45h32.7c29.6,0,54.2,24.5,54.2,54.2s-24.5,54.2-54.2,54.2
					h-126.8v39.9h127.8c52.1,0,94.1-41.9,94.1-94.1s-41.9-94.1-94.1-94.1H1526c-3.1,0-5.1-2.1-5.1-5.1
					C1520.9,97.1,1522.9,95.1,1525,95.1z"/>
			</g>
			<g>
				<path d="M1984.1,54.2c-17.4,0-30.7,13.3-30.7,30.7v127.8c0,17.4,13.3,30.7,30.7,30.7h82.8v-90h-63.4v39.9h23.5v9.2h-23.5
					c-5.1,0-9.2-4.1-9.2-9.2v-90c0-5.1,4.1-9.2,9.2-9.2H2117V54.2H1984.1z"/>
				<path d="M2235.6,243.3h93l-63.4-188.1c-2.1-5.1-6.1-9.2-12.3-9.2c-5.1,0-10.2,4.1-12.3,8.2l-81.8,238.2h47l28.6-84.9v35.8
					L2235.6,243.3L2235.6,243.3z M2251.9,157.5l13.3,40.9h-27.6L2251.9,157.5z"/>
				<path d="M2314.3,47c-8.2-26.6-32.7-47-62.4-47c-29.7,0-54.2,19.4-61.3,46L2116,264.8V104.3h-112.5v39.9h73.6v108.4h-92
					c-22.5,0-39.9-18.4-39.9-39.9V84.9c0-22.5,18.4-39.9,39.9-39.9H2117V5.1H1984c-44,0-79.7,35.8-79.7,79.7v127.8
					c0,44,35.8,79.7,79.7,79.7h164.6l82.8-240.3c3.1-9.2,11.2-15.3,21.5-15.3c10.2,0,18.4,6.1,21.5,15.3l67.5,200.4h-106.3v39.9
					h161.6l0,0L2314.3,47z"/>
			</g>
			<g>
				<path d="M1752,252.6c-22.5,0-39.9-18.4-39.9-39.9V84.9c0-22.5,18.4-39.9,39.9-39.9h137V5.1h-137c-44,0-79.7,35.8-79.7,79.7
					v127.8c0,44,35.8,79.7,79.7,79.7h137v-39.9L1752,252.6L1752,252.6z"/>
				<path d="M1761.2,194.3h99.2v-39.9h-139.1v59.3c0,17.4,13.3,30.7,30.7,30.7h137v-39.9h-118.6
					C1765.3,203.5,1761.2,199.4,1761.2,194.3z"/>
				<path d="M1860.4,104.3h-99.2c0-5.1,4.1-9.2,9.2-9.2H1888V54.2h-136c-17.4,0-30.7,13.3-30.7,30.7v59.3h139.1
					C1860.4,144.2,1860.4,104.3,1860.4,104.3z"/>
			</g>
		</g>
	</g>
	<g>
		<g>
			<path d="M3818.9,395l-796.4-172.4l-3.9-0.8l-3.9,0.9l-704.3,164.2l-948.3-14.1l-559.1-85.5l-0.7-0.1l-0.7-0.1l-304.9-21.7
				l-2.9-0.2l-2.9,0.7L17.6,390L0,394.6l4.9,17.5L288,1413.8l3.1,11.1l11.4,1.7l601.6,91.3l2.3,0.3l2.3-0.3l701.9-77.3l756.3,51.4
				l0.7,0l0.7,0l1058.9-11.6l12.3-0.1l4.3-11.5l388.2-1050.3l7.1-19.3L3818.9,395z M3538.9,1159.8l-11.8,31.9l-100.2,271.1
				l-884.2,9.7l-174.7,1.9l-757.9-51.6l-703.5,77.4l-409.5-62.1L305.2,1409L22.1,407.3l473.4-124.1l304.9,21.7l560.3,85.7
				l951.7,14.2l706.4-164.7l796.4,172.4L3538.9,1159.8z"/>
			<ellipse class="st3" cx="1346.3" cy="608.5" rx="17" ry="15.5"/>
			<path d="M1304.3,202.6c-21-1.2-20.5,55.5,1.2,52.7C1329.2,252.4,1321.2,203.6,1304.3,202.6z"/>
			<path d="M1183.2,238.9c-10.4,11.3,39.3,57.4,50.3,40.8C1245.3,261.6,1193.5,227.7,1183.2,238.9z"/>
			<path d="M1139.5,317.3c-9.5,17.2,35.1,50.6,46.7,29.6C1198.8,324,1144.9,307.4,1139.5,317.3z"/>
			<path d="M1433.9,213.1c-19.6-15-56.7,40.8-33.7,52.4C1425.2,278.1,1449.7,225.2,1433.9,213.1z"/>
			<path d="M1531,283.5c-6.6-20.9-72.1,5.2-60.7,25.1C1482.8,330.1,1536.3,300.3,1531,283.5z"/>
			<g>
				<path d="M337.8,1251.8l8.1-31.1h88.5v31.1h-31.2V1356l-32.2,3.2v-107.4H337.8z"/>
				<path d="M472.3,1261.2c5.7-6.2,15.3-9.8,23.5-9.8c26.7,0,35.6,18,35.6,43.5v61.1l-29.5,3.2v-62.1c0-12-5.9-17.8-14.8-17.8
					c-8.9,0-14.8,5.8-14.8,17.8v58.9l-29.5,3.2v-140.7l29.5-3.2V1261.2z"/>
				<path d="M580.5,1325.5c3.4,5.2,10.2,7.4,15.9,7.4c10.4,0,20.2-5.2,28.2-12l15.5,24c-12.9,9.4-27.4,16-44.3,16
					c-31,0-52.4-28.5-52.4-53.3c0-30.5,23.1-56.1,51.1-56.1c20.4,0,39.5,12.4,48.6,31.5L580.5,1325.5z M607.7,1281.6
					c-3-3.4-7.9-4.2-13.1-4.2c-12.9,0-22.9,12.8-22.9,25.9v3.6L607.7,1281.6z"/>
				<path d="M795,1258.4c-7-5.2-14.9-9.8-23.6-9.8c-21.9,0-37.5,16.6-37.5,40.1c0,23.8,14.6,40.9,37.5,40.9c8.7,0,17.6-5,24.4-10.2
					l-4,36.3c-5.3,3-16.8,5-22.7,5c-39.5,0-67.3-28.7-67.3-71.3c0-40.9,27.8-72.1,67.2-72.1c7.2,0,14.8,1.2,21.2,4.4L795,1258.4z"/>
				<path d="M806.2,1306.1c0-31.7,25.5-54.7,54.1-54.7c28.8,0,54.3,23,54.3,54.7c0,31.7-25.5,54.7-54.3,54.7
					C831.7,1360.8,806.2,1337.9,806.2,1306.1z M860.3,1331.9c13.2,0,24.8-11.4,24.8-25.7c0-14.4-11.5-25.7-24.8-25.7
					c-13.1,0-24.6,11.4-24.6,25.7C835.7,1320.5,847.2,1331.9,860.3,1331.9z"/>
				<path d="M925.7,1254.6l26.9-3.2v16.4h0.4c3.2-9.8,11.5-16.4,22.1-16.4c9.1,0,17.4,4.6,22.5,12.4c6.2-8.2,16.1-12.4,25.9-12.4
					c29.5,0,34.2,23.8,34.2,48.5v56.1l-29.5,3.2v-63.5c0-11.6-4.2-16.4-10.8-16.4c-5.7,0-11,6.4-11,16.4v60.3l-29.5,3.2v-63.5
					c0-10-3.2-16.4-10.8-16.4c-5.7,0-11,6.4-11,16.4v60.3l-29.5,3.2V1254.6z"/>
				<path d="M1101.1,1391.2l-29.5,3.2v-139.7l27.6-3.2v18.8h0.4c5.3-11.6,17.4-18.8,29.5-18.8c28.4,0,48,27.5,48,55.9
					c0,27.9-23.1,53.5-49.6,53.5c-9.6,0-20.8-2.6-26.1-11.8h-0.4V1391.2z M1123.6,1332.9c13.8,0,24-13.4,24-26.7
					c0-13.4-10.2-26.7-24-26.7c-13.8,0-24,13.4-24,26.7C1099.6,1319.5,1109.8,1332.9,1123.6,1332.9z"/>
				<path d="M1248.2,1256.2l29.5-3.2v103l-27.2,3.2v-15.6h-0.4c-5.7,13.6-17.2,17.2-25.3,17.2c-26.7,0-35.6-18-35.6-43.5v-61.1
					l29.5-3.2v62.1c0,12,5.9,17.8,14.8,17.8c8.9,0,14.8-5.8,14.8-17.8V1256.2z"/>
				<path d="M1288.5,1282l6.2-25.9h9.3v-20.4l29.5-12v32.3h16.8v25.9h-16.8v35.9c0,10.2,7.4,13,15.7,13c2.6,0,6.4-0.6,7.8-1.2
					l-8.5,30.7c-1.3,0.2-3,0.4-4.5,0.4c-26.1,0-39.9-13.2-39.9-40.5V1282H1288.5z"/>
				<path d="M1400.5,1325.5c3.4,5.2,10.2,7.4,15.9,7.4c10.4,0,20.2-5.2,28.2-12l15.5,24c-12.9,9.4-27.4,16-44.3,16
					c-31,0-52.4-28.5-52.4-53.3c0-30.5,23.1-56.1,51.1-56.1c20.4,0,39.5,12.4,48.6,31.5L1400.5,1325.5z M1427.8,1281.6
					c-3-3.4-7.9-4.2-13.1-4.2c-12.9,0-22.9,12.8-22.9,25.9v3.6L1427.8,1281.6z"/>
				<path d="M1473.2,1256.2l26.1-3.2v19.6h0.4c5.7-18,15.3-21.2,31.4-21.2l-8.3,31.1c-14.8-0.2-20.1,6-20.1,21.4v52.1l-29.5,3.2
					V1256.2z"/>
				<path d="M1578.3,1251.8l8.1-31.1h88.5v31.1h-31.2V1356l-32.2,3.2v-107.4H1578.3z"/>
				<path d="M1712.8,1261.2c5.7-6.2,15.3-9.8,23.5-9.8c26.7,0,35.6,18,35.6,43.5v61.1l-29.5,3.2v-62.1c0-12-5.9-17.8-14.8-17.8
					s-14.8,5.8-14.8,17.8v58.9l-29.5,3.2v-140.7l29.5-3.2V1261.2z"/>
				<path d="M1799.6,1256c7.6-2.8,18.5-4.6,26.7-4.6c24.2,0,40.9,10.6,40.9,35.9v68.7l-25.7,3.2V1349h-0.4
					c-5.7,9.2-14.2,11.8-24.2,11.8c-21.9,0-33.9-15.2-33.9-37.1c0-20.8,16.1-33.7,34.8-33.7c7.4,0,15.7,3,21.9,7.8
					c0.2-1,0.2-2,0.2-3.2c0-14.2-6.2-17.2-18.9-17.2c-8.7,0-17.6,2.4-25.5,6.2L1799.6,1256z M1825.2,1336.9c7.9,0,14.6-5,14.6-13.6
					c0-8.4-6.6-13.4-14.6-13.4c-8.1,0-14.8,5-14.8,13.4C1810.4,1331.9,1817,1336.9,1825.2,1336.9z"/>
				<path d="M1877.2,1282l6.2-25.9h9.3v-20.4l29.5-12v32.3h16.8v25.9h-16.8v35.9c0,10.2,7.4,13,15.7,13c2.6,0,6.4-0.6,7.8-1.2
					l-8.5,30.7c-1.3,0.2-3,0.4-4.5,0.4c-26.1,0-39.9-13.2-39.9-40.5V1282H1877.2z"/>
				<path d="M1998.8,1251.8l8.1-31.1h88.5v31.1h-31.2V1356l-32.2,3.2v-107.4H1998.8z"/>
				<path d="M2133.3,1261.2c5.7-6.2,15.3-9.8,23.5-9.8c26.7,0,35.6,18,35.6,43.5v61.1l-29.5,3.2v-62.1c0-12-5.9-17.8-14.8-17.8
					c-8.9,0-14.8,5.8-14.8,17.8v58.9l-29.5,3.2v-140.7l29.5-3.2V1261.2z"/>
				<path d="M2246.1,1226.5l-18.9,19.6l-21.4-16.4l18.5-20L2246.1,1226.5z M2241.7,1356l-29.5,3.2v-103l29.5-3.2V1356z"/>
				<path d="M2288.8,1267h0.4c7.6-12,17.2-15.6,25.3-15.6c26.7,0,35.6,18,35.6,43.5v61.1l-29.5,3.2v-62.1c0-12-5.9-17.8-14.8-17.8
					c-8.9,0-14.8,5.8-14.8,17.8v58.9l-29.5,3.2v-104.6l27.2-3.2V1267z"/>
				<path d="M2368.1,1218.5l29.5-3.2v81h0.4l34-46.5l30.5,9.8l-33.5,41.7l38.4,49.5l-33.3,8.4l-36.1-50.1h-0.4v46.9l-29.5,3.2
					V1218.5z"/>
				<path d="M2480.4,1325.5c5.9,6.2,13.1,9.4,21.4,9.4c4.9,0,13.2-0.8,13.2-8.2c0-14.2-45.4,0-45.4-41.7c0-23,17.6-33.5,36.9-33.5
					c11.7,0,23.8,6,32.3,14.4l-16.3,17.4c-4.2-3.4-10-5.8-15.5-5.8c-3.6,0-10,0.8-10,6.2c0,17.2,45.4,0,45.4,42.7
					c0,22.6-19.1,34.5-38.2,34.5c-16.5,0-25.7-3.4-38.8-14L2480.4,1325.5z"/>
				<path d="M2642.6,1217.5V1356l-32.2,3.2v-138.5L2642.6,1217.5z"/>
				<path d="M2655.2,1282l6.2-25.9h9.3v-20.4l29.5-12v32.3h16.8v25.9h-16.8v35.9c0,10.2,7.4,13,15.7,13c2.6,0,6.4-0.6,7.8-1.2
					l-8.5,30.7c-1.3,0.2-3,0.4-4.5,0.4c-26.1,0-39.9-13.2-39.9-40.5V1282H2655.2z"/>
				<path d="M2751.1,1217.5c7,3.8,12.7,14,12.7,22.2c0,14.6-9.8,28.9-17.2,40.5l-14.8-7.6c3.4-7,9.3-17.6,9.3-25.4
					c0-6.8-4.2-13.4-10.2-15.4L2751.1,1217.5z"/>
				<path d="M2778.2,1325.5c5.9,6.2,13.1,9.4,21.4,9.4c4.9,0,13.2-0.8,13.2-8.2c0-14.2-45.4,0-45.4-41.7c0-23,17.6-33.5,36.9-33.5
					c11.7,0,23.8,6,32.3,14.4l-16.3,17.4c-4.2-3.4-10-5.8-15.5-5.8c-3.6,0-10,0.8-10,6.2c0,17.2,45.4,0,45.4,42.7
					c0,22.6-19.1,34.5-38.2,34.5c-16.5,0-25.7-3.4-38.8-14L2778.2,1325.5z"/>
				<path d="M2960.9,1217.5l70,136.3l-32.7,7l-13.2-29.3h-49.4l-13.1,29.3l-31.2-7l69.2-136.3H2960.9z M2943.3,1306.1h34.4
					l-17.2-33.5L2943.3,1306.1z"/>
				<path d="M3074.6,1251.8l8.1-31.1h88.5v31.1H3140V1356l-32.2,3.2v-107.4H3074.6z"/>
				<path d="M3160.9,1306.1c0-31.7,25.5-54.7,54.1-54.7c28.8,0,54.3,23,54.3,54.7c0,31.7-25.5,54.7-54.3,54.7
					C3186.4,1360.8,3160.9,1337.9,3160.9,1306.1z M3215,1331.9c13.2,0,24.8-11.4,24.8-25.7c0-14.4-11.5-25.7-24.8-25.7
					c-13.1,0-24.6,11.4-24.6,25.7C3190.4,1320.5,3201.9,1331.9,3215,1331.9z"/>
				<path d="M3320.1,1312.5l23.5-61.1l28.4,7.6l-57.3,135.3l-30.8-3.2l21-44.5l-37.1-87.8l28.8-7.4L3320.1,1312.5z"/>
				<path d="M3378.6,1339.5l20.2-21l20.2,21l-20.2,21L3378.6,1339.5z M3384.8,1313.9l-2.6-93.8l33.5-4.8l-3.4,95.4L3384.8,1313.9z"
					/>
			</g>
			<rect x="2005.1" y="1379.8" width="531.9" height="20.8"/>
			<path d="M3018.9,258.4l-702.5,163.8l-2.1,0.5l-2.2,0l-847-12.6c-17.5,39.2-63.4,41-69.1,85.4c-0.7,5.6-4.8,10.3-10.3,11.4
				l-12.7,2.6c-3.7,0.7-3.9,6-0.2,6.9c13.4,3.4,29.8,9.5,29.8,19.2c0,10-19.4,16.5-34.4,20c-3.7,0.8-3.7,6-0.1,6.9
				c12.7,3.2,27.7,8.5,27.7,15.4c0,11.9-35.8,9.7-35.8,9.7c-39.3,0-63.9-7.7-63.9-27.7c0-12.4,21-22.2,37-27.9
				c3.4-1.2,3-6.2-0.6-6.8c-39.4-7-41-37.2-42.8-50.8c-3.3-24.5-82.1-29.3-83.8-89.3l-407.4-62.3l-301.2-21.4L44.2,419.9
				l183.2,648.5l680.6,116l705.3-78.4l800.5,53.9h1105.9l271.4-734.2L3018.9,258.4z M918,608.5c-7.5,67.8-68.3,157.3-312.4,157.2
				c-3.6,0-6.4,3.3-5.8,6.8c4,21.8,34.6,55.9,35.5,88c2,70.7-56.9,87.9-116.8,80.6C390,925.3,366.3,755.5,363.8,719.2
				c-4.6-68.8-54.3-99-54.3-151.4c0-33.6,70.8-23.9,70.8-23.9c-0.7-29.1-16.8-131.5,259.6-114.6C883.6,444.1,925.4,541.3,918,608.5z
				 M1433.5,928.3c-33.5,113.1-176.9,88.8-209.8,43.5c-28.7-39.6-14.7-101.1-8.2-130.8c4.4-20.4-6.2-69-0.9-92.2
				c12.8-55.2,54.6-86.4,132.4-86.4c115,0,98.2,89,86.2,166.8C1426.9,870.5,1443.2,895.5,1433.5,928.3z M3491.2,461.6
				c24.4,26.6-104.5,116.8-130.7,84.5C3331.8,510.6,3481,450.4,3491.2,461.6z M3231.4,359.9c49,16.3-53.1,137.8-90.1,114.5
				C3111.1,455.3,3194,347.5,3231.4,359.9z M2861,360.9c31.7-22,109.2,100.3,86.8,110.8C2903.8,492.3,2828.2,383.8,2861,360.9z
				 M2600.5,518.7c24.9-28.4,149.9,37.5,134.6,82.2C2722.7,637.3,2573.9,549,2600.5,518.7z M2158.7,962.4l-149.6,0
				c-74.2,0-249.9-58-249.9-155.4l-1.1-61.4c-0.1-8,3.1-15.7,9-21.2c79.7-75.4,235.6-163,420.7-163c58.1,0,128.8,40.1,128.8,60.1
				c0,39.3-58,34.5-125.8,49.6c-98.8,22.1-219,54.2-219,116.4c0,32,4.2,77.7,93.9,77.7c110.3,0,154.2-65.2,271.6-69.3
				c36.4-1.3,80,12.3,80,47.7C2417,876.9,2298,962.4,2158.7,962.4z M2558,775.2c5.4-30.7,153.3-45.2,157.6-1.8
				C2718.1,798.9,2553.2,802.7,2558,775.2z M2697.3,975.8c-19.7-26.8,108.1-112.2,124.1-86C2843.6,926.4,2725,1013.5,2697.3,975.8z
				 M2943,1072.1c-32.3-15.5,32.9-140.7,64-125.9C3040,961.8,2972.7,1086.4,2943,1072.1z M3237.3,1071.7
				c-37.6,11-88.8-117.1-54.4-131.6C3229.7,920.5,3278.8,1059.6,3237.3,1071.7z M3081.3,913.3c-282.2,0-355.6-114.1-355.6-172.2v-19
				c0-93.2,116.5-208,339.7-208c231.2,0,324.7,66,324.7,141.5v74.8C3390.1,807.9,3294.8,913.3,3081.3,913.3z M3483.4,951.5
				c-24.2,27.2-147.8-55.9-129.8-81.5C3375.6,838.8,3508.3,923.4,3483.4,951.5z M3418.6,716.5c7-38.8,173-23.7,162,13.5
				C3569.9,766.1,3412.9,748.2,3418.6,716.5z"/>
			<path d="M3276.8,670.4c-10.4-2.3-19.6-8.2-35.9-19.9c-8.2-5.9-22.4-15.6-45.1-24.5c-22.6,2.7-59.8,9.2-51.7,25
				c4.9,9.5,12.2,0.5,20.6-1.9c14.2-4.1,27.2,20.8,7.5,23.8c-23.2,3.5-67.6-2.9-67.6-29.8c0-14.7,10.6-27.2,19-34.8
				c-14.4-1.9-30.4-3.1-48.1-3.4c-15.7,6.4-55.2,23.2-47.7,36.1c5.4,9.3,14.2,4.1,21.3-1c26.9-19.6,40.6,7.6,23.4,17.6
				c-36.5,21.1-80,2.2-79.5-21.9c0.2-10.3,5.4-19.4,11.4-26.6c-80.2,12.2-100.6,48.4-115.5,69.4c-12.6,17.8-26,41.9-10.1,64.4
				c33.7,47.8,80.1,76.8,197.8,76.8c65.5,0,113.5-6.8,161.4-47.9c20.8-17.8,28.4-60.4,45.3-83.9
				C3288.1,681.1,3284.7,672.1,3276.8,670.4z M3191.8,768.6c-16.9,5-44.7,6-65,6h-60.2c-49.9,0-105.9-30.5-108.2-31.8
				c-7.5-4.1-10.3-13.6-6.1-21.1c4.1-7.5,13.6-10.3,21.1-6.1c0.5,0.3,51.5,27.9,93.3,27.9h60.2c25.1,0,46.1-1.8,56.3-4.7
				c8.2-2.4,16.8,2.3,19.3,10.5C3204.7,757.5,3200,766.1,3191.8,768.6z"/>
			<path d="M639.6,539.1c-34.9-7.3-60.4,4.8-100.2,21.9c-6.8,2.9-10.1,10.7-7.4,17.5l23.3,60.2c3.1,7.9,10.9,13,19.4,12.4
				c32.9-2.2,112.7-12.7,139.1-61.9C725.9,566.6,658.5,543.1,639.6,539.1z"/>
			<path d="M1344.8,275.2c-84.1-2.8-118.9,40.6-132,74.7l41.9,6.4c5.2-15.9,22.2-34.5,77-34.7c1.8,0,3.6,0,5.4,0c0.6,0,1.2,0,1.7,0
				c1.5,0,2.9,0,4.4,0.1c44.1,1.5,61.9,20.2,69,34.9c0.2,0.4,0.4,0.9,0.6,1.3c0.2,0.5,0.5,1,0.7,1.6c1.9,4.6,2.7,8.6,3.1,11.3
				c0,0,0,0,0,0c0,0.1,0,0.2,0,0.3c0,0.1,0,0.2,0,0.3c0,0.2,0,0.4,0.1,0.5c0,0,0,0,0,0c0,0.2,0,0.4,0,0.6c0,0.4,0,0.8,0,1l55,0.8
				C1471.7,349.8,1443.8,278.6,1344.8,275.2z"/>
		</g>
		<g>
			<path d="M1252.3,374c0.2,7.9,5,21.9,30.5,35.3c19.1,10.1,46,32,53,52.1c0.9,2.6,3.4,4.3,6.1,4.6c4.3,0.5,10.7,1,15.7,0.5
				c2.9-0.3,5.4-2.1,6.4-4.8c10.6-26.4,24.4-41.1,38.9-51.9c8.2-6.1,11.7-12.5,13.2-18.5l-55.5-0.8L1252.3,374z"/>
		</g>
	</g>
</g>
</svg>
