<?xml version="1.0" encoding="utf-8"?>
<!-- Generator: Adobe Illustrator 26.3.1, SVG Export Plug-In . SVG Version: 6.00 Build 0)  -->
<svg version="1.1" id="Layer_1" xmlns="http://www.w3.org/2000/svg" xmlns:xlink="http://www.w3.org/1999/xlink" x="0px" y="0px"
	 viewBox="0 0 3839 1313.5" style="enable-background:new 0 0 3839 1313.5;" xml:space="preserve">
<g>
	<g>
		<path d="M0,543.7V836h479.7V543.7H0z M425.3,625.1H175v42.7h211.5c21.4,0,38.8,17.4,38.8,38.8V760c0,21.4-17.4,38.8-38.8,38.8
			h-332v-44.2h250.2v-42.7H93.2c-21.4,0-38.8-17.4-38.8-38.8v-53.4c0-21.4,17.4-38.8,38.8-38.8h332V625.1z"/>
		<g>
			<path d="M1983.7,624.9H1870v129.5h113.7c15.1,0,27.3-12.2,27.3-27.3v-74.8C2011,637.2,1998.8,624.9,1983.7,624.9z"/>
			<path d="M1700.7,543.5v292.3h479.7V543.5H1700.7z M2131.6,759.8c0,21.4-17.4,38.8-38.8,38.8h-343.4V580.8h343.4
				c21.4,0,38.8,17.4,38.8,38.8V759.8z"/>
		</g>
		<g>
			<path d="M855.9,624.9h-98.4c-11.8,0-21.3,9.5-21.3,21.3v86.8c0,11.8,9.5,21.3,21.3,21.3h98.4c11.8,0,21.3-9.5,21.3-21.3v-86.8
				C877.3,634.5,867.7,624.9,855.9,624.9z"/>
			<path d="M566.9,543.5v292.3h479.7V543.5H566.9z M997.8,759.8c0,21.4-17.4,38.8-38.8,38.8H654.4c-21.4,0-38.8-17.4-38.8-38.8
				V619.5c0-21.4,17.4-38.8,38.8-38.8h304.6c21.4,0,38.8,17.4,38.8,38.8V759.8z"/>
		</g>
		<g>
			<path d="M1414.4,624.9h-119.7v42.7h119.7c11.8,0,21.3-9.5,21.3-21.3S1426.2,624.9,1414.4,624.9z"/>
			<path d="M1133.8,543.5v292.3h479.7V543.5H1133.8z M1429.2,798.5l-40.1-86.8h-94.4v86.8h-120.6V580.8h343.4
				c21.4,0,38.8,17.4,38.8,38.8V673c0,21.4-17.4,38.8-38.8,38.8l41.7,65l13.9,21.8H1429.2z"/>
		</g>
	</g>
	<g>
		<g>
			<polygon points="2827.4,718 2654.3,287.3 2509.2,835.4 2585.4,835.4 2668.7,520.7 2827.4,915.5 2986.1,520.8 3069.4,835.4 
				3145.6,835.4 3000.5,287.3 			"/>
			<polygon points="2827.4,672.4 3003.8,233.4 3163.2,835.4 3239.4,835.4 3018.2,0 2827.4,474.8 2636.6,0 2415.4,835.4 
				2491.6,835.4 2651,233.4 			"/>
		</g>
		<g>
			<path d="M3182.8,1126.4C3182.8,1126.4,3182.8,1126.4,3182.8,1126.4l10.4-8.9L3182.8,1126.4z"/>
			<path d="M3428.8,1222.9c168.9,0,306.4-137.4,306.4-306.4s-137.4-306.4-306.4-306.4c-47.5,0-93,10.6-135.3,31.4l-18.3,9l107-317.6
				h414.3l42.5-73.7h-509.7l-169.1,501.7l8.7,41.3l48.2,17.3c36.8-80.1,117.7-135.8,211.6-135.8h0c128.3,0,232.7,104.4,232.7,232.7
				c0,128.3-104.4,232.7-232.7,232.7c-68.2,0-132.7-29.8-177-81.7l-58.6,50l2.5-2.2C3254.1,1183.7,3339,1222.9,3428.8,1222.9z"/>
			<path d="M3428.8,519.5c-4.6,0-9.2,0.1-13.8,0.2l32.4-96.1h296.9l42.5-73.7h-392.3l-90.4,268.1c39.4-16.5,81.3-24.9,124.7-24.9
				c178.3,0,323.3,145.1,323.3,323.4s-145,323.4-323.3,323.4c-94.8,0-184.4-41.4-246-113.5l-56,47.8
				c75.6,88.5,185.7,139.3,302,139.3c218.9,0,397-178.1,397-397S3647.7,519.5,3428.8,519.5z"/>
		</g>
	</g>
</g>
</svg>
