<?xml version="1.0" encoding="utf-8"?>
<!-- Generator: Adobe Illustrator 26.3.1, SVG Export Plug-In . SVG Version: 6.00 Build 0)  -->
<svg version="1.1" id="Layer_1" xmlns="http://www.w3.org/2000/svg" xmlns:xlink="http://www.w3.org/1999/xlink" x="0px" y="0px"
	 viewBox="0 0 3839 1004.1" style="enable-background:new 0 0 3839 1004.1;" xml:space="preserve">
<g>
	<g>
		<g>
			<path d="M387,366.9H247.8H222h-87.7c-12.2,0-43.2,0-43.2,0c-0.3,0-17.7,0-18,0c-38.2-0.3-38.2-60.1,0-60.4c0.3,0,17.7,0,18,0
				h380.6V222H92.1C41.3,222,0,263.2,0,314.1v45.2c0,50.9,41.3,92.1,92.1,92.1h114.4h25.8h112.6c12.2,0,43.2,0,43.2,0
				c0.3,0,17.7,0,18,0c38.2,0.3,38.2,60.1,0,60.4c-0.3,0-17.7,0-18,0H7.5v84.5H387c50.9,0,92.1-41.3,92.1-92.1V459
				C479.2,408.2,437.9,366.9,387,366.9z"/>
			<path d="M943.1,222H827.2h-62.5H648.9c-50.9,0-92.2,41.3-92.2,92.1v22.6v0v144.9v0v22.6c0,50.9,41.3,92.1,92.2,92.1h115.9h62.5
				h115.9c50.9,0,92.2-41.3,92.2-92.1v-22.6v0V336.7v0v-22.6C1035.3,263.2,994,222,943.1,222z M990.7,481.6c0,15-9.6,30-28.7,30.2
				c-0.3,0-17.7,0-17.9,0H827.2h-62.5H647.8c-0.2,0-17.7,0-17.9,0c-19.1-0.2-28.7-15.2-28.7-30.2V336.7c0-15,9.6-30,28.7-30.2
				c0.3,0,17.7,0,17.9,0h116.9h62.5h116.9c0.2,0,17.7,0,17.9,0c19.1,0.2,28.7,15.2,28.7,30.2V481.6z"/>
			<path d="M2014.2,222h-312.7c-15.5,0-28.1,12.6-28.1,28.1v318.1c0,15.5,12.6,28.1,28.1,28.1h312.7c91.8,0,166.2-74.4,166.2-166.2
				v-41.9C2180.4,296.4,2106,222,2014.2,222z M2132.9,422c-1.8,47.9-42.2,89.8-90.1,89.8h-309c-8.8,0-15.9-7.1-15.9-15.9V322.5
				c0-8.8,7.1-15.9,15.9-15.9h308.6c51.3,0,92.3,38.6,90.4,89.8L2132.9,422z"/>
		</g>
		<path d="M1302.3,451.5c0.3,0,17.7,0,17.9,0c0,0,31,0,43.2,0h143.6c50.9,0,92.2-41.2,92.2-92.1v-45.2c0-50.9-41.3-92.1-92.2-92.1
			h-115.9h-57.4h-120.9c-50.9,0-92.2,41.3-92.2,92.1v22.6v0v259.6h44.5V336.7c0-15,9.6-30,28.7-30.2c0.3,0,17.7,0,17.9,0h143.4h36
			h116.9c0.2,0,17.7,0,17.9,0c38.2,0.3,38.2,60.1,0,60.4c-0.3,0-17.7,0-17.9,0c0,0-6.2,0-14.2,0h-172.7c-50.9,0-92.2,41.2-92.2,92.1
			v45.2c0,50.9,41.3,92.1,92.2,92.1h270.5v-84.5h-271.5c-0.2,0-17.7,0-17.9,0C1264.1,511.5,1264.1,451.8,1302.3,451.5z"/>
	</g>
	<g>
		<g>
			<path d="M3138.8,189.2C3138.8,84.7,3054,0,2949.5,0c-76.6,0-142.5,45.7-172.3,111.2C2747.5,45.7,2681.7,0,2605,0
				c-64.3,0-121.1,32.2-155.3,81.2V17h-34v172.2v341.6h34h0V189.2c0-85.7,69.5-155.3,155.2-155.3c85.7,0,155.3,69.5,155.3,155.3v0
				v341.6h34h0V189.2c0-85.7,69.5-155.3,155.3-155.3c85.7,0,155.2,69.5,155.2,155.3v341.7h34V189.2z"/>
			<path d="M3457.1,188.7L3493.4,34h299.3V0h-291.4h-13.5h-21.4l-48.5,206.8l0,0l-3.4,14.6h3.4h12.8
				c206.7,0,374.4,167.6,374.4,374.3v0c0,206.7-167.6,374.3-374.4,374.3h-12.8v34h12.8c225.5,0,408.3-182.8,408.3-408.3v0
				C3839,379.1,3670.2,202.4,3457.1,188.7z"/>
			<path d="M3230.2,351.7c-9.2,0-16.7,7.5-16.7,16.7c0,9.2,7.5,16.6,16.7,16.6c9.2,0,16.6-7.5,16.6-16.6
				C3246.9,359.1,3239.4,351.7,3230.2,351.7z"/>
			<path d="M3271.8,351.7c-9.2,0-16.6,7.5-16.6,16.7c0,9.2,7.5,16.6,16.6,16.6c9.2,0,16.6-7.5,16.6-16.6
				C3288.4,359.1,3281,351.7,3271.8,351.7z"/>
			<path d="M3313.3,351.7c-9.2,0-16.7,7.5-16.7,16.7c0,9.2,7.5,16.6,16.7,16.6c9.2,0,16.6-7.5,16.6-16.6
				C3330,359.1,3322.5,351.7,3313.3,351.7z"/>
			<path d="M3354.8,351.7c-9.2,0-16.6,7.5-16.6,16.7c0,9.2,7.5,16.6,16.6,16.6s16.6-7.5,16.6-16.6
				C3371.5,359.1,3364,351.7,3354.8,351.7z"/>
			<path d="M3230.2,393.2c-9.2,0-16.7,7.5-16.7,16.6c0,9.2,7.5,16.7,16.7,16.7c9.2,0,16.6-7.5,16.6-16.7
				C3246.9,400.7,3239.4,393.2,3230.2,393.2z"/>
			<path d="M3271.8,393.2c-9.2,0-16.6,7.5-16.6,16.6c0,9.2,7.5,16.7,16.6,16.7c9.2,0,16.6-7.5,16.6-16.7
				C3288.4,400.7,3281,393.2,3271.8,393.2z"/>
			<path d="M3313.3,393.2c-9.2,0-16.7,7.5-16.7,16.6c0,9.2,7.5,16.7,16.7,16.7c9.2,0,16.6-7.5,16.6-16.7
				C3330,400.7,3322.5,393.2,3313.3,393.2z"/>
			<path d="M3354.8,393.2c-9.2,0-16.6,7.5-16.6,16.6c0,9.2,7.5,16.7,16.6,16.7s16.6-7.5,16.6-16.7
				C3371.5,400.7,3364,393.2,3354.8,393.2z"/>
			<path d="M3230.2,434.8c-9.2,0-16.7,7.5-16.7,16.6c0,9.2,7.5,16.6,16.7,16.6c9.2,0,16.6-7.5,16.6-16.6
				C3246.9,442.2,3239.4,434.8,3230.2,434.8z"/>
			<ellipse cx="3271.8" cy="451.4" rx="16.6" ry="16.6"/>
			<path d="M3313.3,434.8c-9.2,0-16.7,7.5-16.7,16.6c0,9.2,7.5,16.6,16.7,16.6c9.2,0,16.6-7.5,16.6-16.6
				C3330,442.2,3322.5,434.8,3313.3,434.8z"/>
			<ellipse cx="3354.8" cy="451.4" rx="16.6" ry="16.6"/>
			<path d="M3230.2,476.3c-9.2,0-16.7,7.5-16.7,16.6c0,9.2,7.5,16.6,16.7,16.6c9.2,0,16.6-7.5,16.6-16.6
				C3246.9,483.8,3239.4,476.3,3230.2,476.3z"/>
			<ellipse cx="3271.8" cy="493" rx="16.6" ry="16.6"/>
			<path d="M3313.3,476.3c-9.2,0-16.7,7.5-16.7,16.6c0,9.2,7.5,16.6,16.7,16.6c9.2,0,16.6-7.5,16.6-16.6
				C3330,483.8,3322.5,476.3,3313.3,476.3z"/>
			<ellipse cx="3354.8" cy="493" rx="16.6" ry="16.6"/>
		</g>
	</g>
</g>
</svg>
