<?xml version="1.0" encoding="utf-8"?>
<!-- Generator: Adobe Illustrator 16.0.0, SVG Export Plug-In . SVG Version: 6.00 Build 0)  -->
<!DOCTYPE svg PUBLIC "-//W3C//DTD SVG 1.1//EN" "http://www.w3.org/Graphics/SVG/1.1/DTD/svg11.dtd">
<svg version="1.1" id="Layer_1" xmlns="http://www.w3.org/2000/svg" xmlns:xlink="http://www.w3.org/1999/xlink" x="0px" y="0px"
	 width="999.999px" height="304.062px" viewBox="0 0 999.999 304.062" enable-background="new 0 0 999.999 304.062"
	 xml:space="preserve">
<g>
	<path d="M365.416,61.369h35.917c19.842,0,27.542,12.604,27.542,25.56c0,12.925-7.7,25.528-27.542,25.528H382.95v28.566h-17.534
		V61.369z M382.95,98.833h13.628c8.11,0,15.377-1.778,15.377-11.905c0-10.15-7.267-11.965-15.377-11.965H382.95V98.833z"/>
	<rect x="437.748" y="61.369" width="15.842" height="79.654"/>
	<path d="M465.261,101.081c0.876-14.822,14.151-19.316,27.047-19.316c11.524,0,25.382,2.567,25.382,16.429v29.993
		c0,5.254,0.529,10.471,1.958,12.837h-16.05c-0.58-1.778-0.99-3.706-1.135-5.574c-5.018,5.225-12.344,7.122-19.406,7.122
		c-10.911,0-19.636-5.455-19.636-17.301c0-13.044,9.832-16.169,19.636-17.509c9.748-1.458,18.762-1.108,18.762-7.588
		c0-6.795-4.698-7.792-10.272-7.792c-6.008,0-9.919,2.456-10.473,8.699H465.261z M501.82,112.777
		c-2.681,2.366-8.285,2.456-13.159,3.356c-4.93,0.997-9.367,2.686-9.367,8.49c0,5.922,4.582,7.358,9.687,7.358
		c12.4,0,12.839-9.838,12.839-13.281V112.777z"/>
	<path d="M557.638,148.262c-3.473,9.278-8.899,13.066-19.872,13.066c-3.236,0-6.447-0.262-9.687-0.581v-13.044
		c3.006,0.238,6.127,0.67,9.252,0.559c5.453-0.559,7.232-6.242,5.453-10.826L522.51,83.342h16.949l13.044,39.503h0.201
		l12.634-39.503h16.4L557.638,148.262z"/>
	<path d="M601.463,114.563c0,10.618,8.226,14.732,17.595,14.732c6.156,0,15.521-1.778,15.521-9.918
		c0-8.609-11.935-10.038-23.635-13.162c-11.847-3.126-23.752-7.702-23.752-22.674c0-16.28,15.38-24.07,29.765-24.07
		c16.63,0,31.891,7.239,31.891,25.679h-16.925c-0.583-9.629-7.382-12.077-15.726-12.077c-5.573,0-12.08,2.358-12.08,9.041
		c0,6.123,3.794,6.912,23.781,12.046c5.807,1.437,23.66,5.143,23.66,23.201c0,14.621-11.521,25.528-33.145,25.528
		c-17.623,0-34.109-8.689-33.903-28.326H601.463z"/>
	<path d="M682.051,83.342h11.611v10.587h-11.611v28.566c0,5.371,1.342,6.681,6.683,6.681c1.662,0,3.236-0.09,4.929-0.439v12.405
		c-2.713,0.438-6.154,0.52-9.279,0.52c-9.714,0-18.207-2.216-18.207-13.713v-34.02h-9.539V83.342h9.539V66.035h15.846
		L682.051,83.342z"/>
	<path d="M703.438,101.081c0.93-14.822,14.179-19.316,27.135-19.316c11.466,0,25.298,2.567,25.298,16.429v29.993
		c0,5.254,0.554,10.471,2.012,12.837h-16.074c-0.556-1.778-0.995-3.706-1.109-5.574c-4.989,5.225-12.375,7.122-19.405,7.122
		c-10.941,0-19.637-5.455-19.637-17.301c0-13.044,9.804-16.169,19.637-17.509c9.688-1.458,18.731-1.108,18.731-7.588
		c0-6.795-4.695-7.792-10.268-7.792c-6.013,0-9.894,2.456-10.447,8.699H703.438z M740.025,112.777
		c-2.682,2.366-8.227,2.456-13.159,3.356c-4.899,0.997-9.364,2.686-9.364,8.49c0,5.922,4.58,7.358,9.714,7.358
		c12.37,0,12.81-9.838,12.81-13.281V112.777z"/>
	<path d="M788.167,83.342h11.587v10.616h-11.587v28.537c0,5.371,1.344,6.681,6.683,6.681c1.692,0,3.24-0.09,4.904-0.439v12.405
		c-2.657,0.438-6.129,0.52-9.25,0.52c-9.719,0-18.178-2.216-18.178-13.713v-34.02h-9.568V83.342h9.568V66.035h15.841V83.342z"/>
	<path d="M826.101,74.442h-15.846V61.369h15.846V74.442z M810.255,83.342h15.846v57.651h-15.846V83.342z"/>
	<path d="M865.462,81.793c18.148,0,29.875,12.047,29.875,30.433c0,18.29-11.727,30.345-29.875,30.345
		c-18.092,0-29.793-12.055-29.793-30.345C835.669,93.84,847.37,81.793,865.462,81.793 M865.462,130.635
		c10.768,0,14.033-9.249,14.033-18.409c0-9.248-3.266-18.527-14.033-18.527c-10.737,0-13.977,9.279-13.977,18.527
		C851.485,121.386,854.725,130.635,865.462,130.635"/>
	<path d="M904.734,83.342h15.058v8.05h0.32c3.994-6.502,10.941-9.599,17.622-9.599c16.865,0,21.065,9.479,21.065,23.752v35.478
		h-15.841v-32.592c0-9.449-2.773-14.152-10.158-14.152c-8.575,0-12.254,4.785-12.254,16.489v30.255h-15.813V83.342z"/>
	<polygon points="365.416,168.978 382.804,168.978 416.069,222.402 416.27,222.402 416.27,168.978 432.699,168.978 432.699,248.6 
		415.162,248.6 382.046,195.294 381.841,195.294 381.841,248.6 365.416,248.6 	"/>
	<path d="M457.79,223.623c0.469,10.037,5.372,14.621,14.182,14.621c6.362,0,11.497-3.884,12.489-7.47h13.944
		c-4.49,13.602-13.944,19.435-27.017,19.435c-18.148,0-29.41-12.516-29.41-30.373c0-17.308,11.905-30.433,29.41-30.433
		c19.636,0,29.148,16.481,28.04,34.22H457.79z M483.557,213.584c-1.462-8.021-4.903-12.277-12.605-12.277
		c-10.037,0-12.897,7.813-13.162,12.277H483.557z"/>
	<path d="M529.188,190.951h11.585v10.617h-11.585v28.536c0,5.371,1.343,6.681,6.656,6.681c1.688,0,3.267-0.089,4.929-0.438v12.404
		c-2.657,0.4-6.127,0.52-9.248,0.52c-9.719,0-18.178-2.247-18.178-13.713v-33.989h-9.629v-10.617h9.629v-17.309h15.841V190.951z"/>
	<polygon points="618.354,248.6 602.073,248.6 591.775,209.91 591.571,209.91 581.738,248.6 565.368,248.6 547.045,190.951 
		563.794,190.951 574.386,230.073 574.616,230.073 584.219,190.951 599.596,190.951 609.399,229.984 609.633,229.984 
		620.252,190.951 636.532,190.951 	"/>
	<path d="M668.452,189.403c18.209,0,29.879,12.017,29.879,30.433c0,18.289-11.67,30.343-29.879,30.343
		c-18.088,0-29.789-12.054-29.789-30.343C638.663,201.419,650.364,189.403,668.452,189.403 M668.452,238.244
		c10.827,0,14.064-9.248,14.064-18.408c0-9.249-3.237-18.528-14.064-18.528c-10.707,0-13.917,9.279-13.917,18.528
		C654.535,228.996,657.745,238.244,668.452,238.244"/>
	<path d="M707.115,190.951h15.053v10.706h0.204c2.921-7.238,10.741-12.283,18.412-12.283c1.139,0,2.482,0.23,3.471,0.551v14.732
		c-1.458-0.32-3.79-0.551-5.688-0.551c-11.585,0-15.61,8.377-15.61,18.527v25.998h-15.841V190.951z"/>
	<polygon points="752.046,168.978 767.861,168.978 767.861,211.696 787.817,190.98 806.58,190.98 784.842,212.157 809.002,248.6 
		789.86,248.6 774.02,222.841 767.861,228.764 767.861,248.6 752.046,248.6 	"/>
	<path d="M994.806,137.584c-3.355,3.267-7.411,4.866-12.081,4.866c-4.899,0-9.014-1.658-12.34-5.015
		c-3.356-3.297-5.019-7.44-5.019-12.285c0-5.074,1.808-9.277,5.428-12.664c3.352-3.117,7.322-4.665,11.931-4.665
		c4.729,0,8.815,1.688,12.196,5.074c3.385,3.356,5.078,7.472,5.078,12.255C999.999,130.084,998.306,134.221,994.806,137.584
		 M972.542,115.083c-2.711,2.829-4.113,6.192-4.113,10.068c0,3.996,1.402,7.441,4.203,10.238c2.798,2.805,6.153,4.204,10.093,4.204
		c3.911,0,7.237-1.429,10.038-4.227c2.801-2.864,4.171-6.249,4.171-10.216c0-3.876-1.37-7.21-4.142-10.068
		c-2.801-2.886-6.156-4.314-10.067-4.314C978.729,110.768,975.345,112.197,972.542,115.083 M975.08,134.78v-19.197h5.342
		c2.393,0,3.707,0.029,3.967,0.029c1.487,0.111,2.771,0.439,3.765,1.02c1.723,0.907,2.566,2.448,2.566,4.554
		c0,1.629-0.438,2.798-1.342,3.497c-0.935,0.73-2.014,1.139-3.327,1.288c1.198,0.23,2.103,0.609,2.716,1.108
		c1.109,0.93,1.689,2.359,1.689,4.315v1.726c0,0.172,0.03,0.343,0.03,0.551c0.029,0.209,0.059,0.41,0.146,0.551l0.178,0.559h-4.788
		c-0.146-0.58-0.26-1.488-0.29-2.657c-0.06-1.168-0.176-1.927-0.319-2.366c-0.265-0.639-0.729-1.131-1.404-1.398
		c-0.379-0.172-0.933-0.26-1.718-0.319l-1.139-0.061h-1.053v6.802H975.08z M984.243,119.317c-0.67-0.268-1.662-0.379-2.917-0.379
		h-1.228v5.604h1.956c1.195,0,2.099-0.238,2.743-0.73c0.67-0.469,0.993-1.257,0.993-2.276
		C985.791,120.456,985.292,119.727,984.243,119.317"/>
	<path d="M307.088,285.917c-3.353,3.244-7.411,4.873-12.106,4.873c-4.875,0-8.959-1.658-12.315-4.984
		c-3.295-3.355-4.989-7.44-4.989-12.314c0-5.053,1.808-9.249,5.399-12.634c3.356-3.147,7.38-4.695,11.905-4.695
		c4.754,0,8.839,1.688,12.25,5.074c3.387,3.414,5.049,7.471,5.049,12.255C312.282,278.394,310.588,282.532,307.088,285.917
		 M284.854,263.454c-2.742,2.798-4.084,6.153-4.084,10.037c0,3.996,1.374,7.41,4.174,10.208c2.771,2.806,6.127,4.234,10.063,4.234
		c3.911,0,7.267-1.429,10.039-4.256c2.801-2.835,4.174-6.251,4.174-10.187c0-3.854-1.342-7.239-4.145-10.037
		c-2.801-2.888-6.157-4.346-10.068-4.346C291.042,259.108,287.656,260.566,284.854,263.454 M287.366,283.119v-19.196h5.338
		c2.393,0,3.676,0.029,3.97,0.059c1.514,0.082,2.798,0.432,3.792,0.96c1.692,0.961,2.536,2.478,2.536,4.613
		c0,1.57-0.464,2.769-1.339,3.468c-0.903,0.699-1.986,1.167-3.33,1.317c1.228,0.23,2.133,0.58,2.716,1.108
		c1.138,0.87,1.693,2.306,1.693,4.286v1.696c0,0.201,0,0.4,0.029,0.58c0,0.201,0.085,0.379,0.146,0.551l0.175,0.558h-4.785
		c-0.119-0.609-0.233-1.487-0.263-2.626c-0.061-1.198-0.206-1.986-0.351-2.366c-0.234-0.7-0.729-1.161-1.398-1.429
		c-0.38-0.172-0.963-0.291-1.693-0.32l-1.138-0.06h-1.053v6.801H287.366z M296.526,267.657c-0.67-0.268-1.633-0.379-2.888-0.379
		h-1.228v5.603h1.958c1.197,0,2.072-0.269,2.742-0.707c0.643-0.462,1.022-1.25,1.022-2.328
		C298.132,268.826,297.579,268.096,296.526,267.657"/>
	<path fill-rule="evenodd" clip-rule="evenodd" d="M232.334,103.878c-21.735,4.463-83.563,24.07-87.619,25.589
		c-2.887,1.026-8.899,3.154-13.978-1.541c-2.393-2.195-2.947-5.632-2.947-8.93c6.831-37.522,14.882-77.004,19.287-91.268
		c-15.492,1.22-30.079,5.074-43.502,11.437c0.294,2.946,0.555,5.863,1.198,9.219c6.273,35.805,19.811,73.322,19.811,73.322
		s1.399,4.264,1.399,5.104c0,5.254-3.675,9.807-9.219,11.675c-3.471,1.169-49.076,18.088-67.373,29.115
		c-5.074,3.066-9.773,6.98-14.617,10.567c2.917,13.803,8.404,26.489,15.495,38.222c5.339,5.135,10.737,9.779,15.492,13.536
		c7.791-29.205,19.228-60.018,21.563-66.111c1.313-3.505,4.111-6.102,7.731-7.181c3.241-0.99,6.887-0.551,9.717,1.168l11.292,6.421
		c24.8,14.123,25.035,14.295,25.968,14.993c3.032,2.337,4.785,5.782,4.785,9.398c0,1.956-0.469,3.824-1.403,5.604
		c-5.484,10.587-21.355,48.491-28.796,66.349c21.62,9.338,39.798,13.535,52.052,15.581c5.339-0.499,10.708-0.907,15.842-2.046
		c-9.859-14.265-13.713-32.301-13.713-50.129C170.799,178.315,192.916,128.708,232.334,103.878 M59.108,74.903
		c-9.513,12.084-16.66,25.857-21.239,40.939c9.334-5.863,18.758-11.205,24.332-14.211C60.653,93.55,59.778,83.542,59.108,74.903
		 M280.799,151.209c-2.626-1.868-6.417-0.909-6.417-0.909c-4.729,1.489-26.204,13.424-37.379,41.75
		c-6.507,16.608-8.49,30.464-8.49,40.27c0,8.841,1.253,15.492,7.675,16.222c27.748-22.783,45.81-56.78,46.159-95.405
		C281.878,152.428,281.384,151.678,280.799,151.209 M199.423,34.523c-1.313,8.14-2.742,16.489-3.356,21.942
		c8.665-1.606,22.583-3.526,35.861-4.523C222.095,44.589,211.184,38.756,199.423,34.523 M13.59,201.419
		c0-2.218,3.27-3.298,4.583-3.937c1.838-0.968,2.537,0.09,2.887,0.58c18.673,28.945,51.267,49.607,51.267,49.607
		c6.768-31.541,21.59-71.661,24.83-80.093c0.41-1.056,1.809-1.056,2.188-0.758c0.438,0.319,35.362,20.098,36.266,20.797
		c0.904,0.647,0.673,1.317,0.468,1.726c-7.559,14.584-33.174,76.679-33.174,76.679c46.01,22.031,80.472,22.521,81.986,22.521
		c1.433,0-0.989,6.132-0.989,6.132l-14.443,9.338c-26.377,1.169-73.18-18.646-73.18-18.646l-3.646,10.529l-2.917,4.145l-18.646-9.25
		c-2.393-3.994-1.954-20.104-1.954-20.104c-36.88-23.015-53.075-49.92-53.075-49.92L13.59,201.419 M300.496,84.272
		c-11.672-18.498-31.832-45.485-68.392-66.551C210.13,5.087,176.841,0.124,176.841,0.124s-4.814-1.109-7.441,3.327
		c-1.284,2.135-6.068,9.457-10.447,23.43c-2.888,9.109-19.867,86.746-20.805,90.333c-0.989,3.623-0.64,3.623,2.951,2.335
		c3.56-1.339,75.482-24.218,93.572-26.785c18.207-2.597,28.505-5.455,64.191-4.086C300.93,88.736,303.152,88.446,300.496,84.272
		 M184.891,68.311c1.433-10.767,2.396-25.209,7.062-51.408c44.556,14.643,69.561,43.536,69.561,43.536
		C231.869,57.753,184.891,68.311,184.891,68.311 M115.365,126.759c-7.062-18.588-15.875-47.184-21.039-76.596
		c-3.061-17.59-1.897-31.364-1.692-32.003c0.468-1.786-1.693-0.997-1.693-0.997C39.268,40.155,17.999,79.778,17.999,79.778
		C-9.896,126.759,2.272,173.003,4.895,184.7c0.469,2.218,1.987,1.868,3.475,0.588c2.508-2.188,15.726-14.711,35.537-26.728
		c19.841-11.994,67.313-29.323,69.531-30.083C115.655,127.778,115.365,126.759,115.365,126.759 M15.313,144.906
		c0.234-14.472,0.729-36.734,10.796-57.54c0,0,19.287-26.927,40.586-40.85c0,0,0.729,37.673,6.362,59.906
		C73.057,106.422,32.237,127.488,15.313,144.906 M307.467,133.381c-12.72-31.861-44.992-35.218-68.012-21.534
		c-27.337,16.339-43.882,44.526-52.198,74.52c-7.44,26.897-10.886,65.092,10.094,87.504c15.146,16.102,59.728,10.796,89.111-28.856
		C315.783,205.363,320.19,165.182,307.467,133.381 M269.799,242.039c-11.757,13.215-32.796,21.563-43.588,15.201
		c-10.767-6.392-11.761-36.735,0.96-69.036c7.5-18.995,23.43-41.638,44.089-47.97c0,0,25.44-8.312,25.44,30.841
		C296.7,210.266,281.529,228.816,269.799,242.039"/>
</g>
</svg>
