<?xml version="1.0" encoding="utf-8"?>
<!-- Generator: Adobe Illustrator 25.4.1, SVG Export Plug-In . SVG Version: 6.00 Build 0)  -->
<svg version="1.1" id="Layer_1" xmlns="http://www.w3.org/2000/svg" xmlns:xlink="http://www.w3.org/1999/xlink" x="0px" y="0px"
	 viewBox="0 0 3839 1235.7" style="enable-background:new 0 0 3839 1235.7;" xml:space="preserve">
<style type="text/css">
	.st0{fill:#FFFFFF;}
	.st1{fill:#0F9AD6;}
	.st2{fill:#943F95;}
	.st3{fill:#E61D32;}
	.st4{fill:#F38020;}
	.st5{fill:#F6BF16;}
	.st6{clip-path:url(#SVGID_00000005967043666273882220000003806894130660844222_);fill:#62B947;}
	.st7{fill:#62B947;}
</style>
<g>
	<g>
		<g>
			<polygon class="st0" points="3288.8,860.2 3288.8,719.4 3386.3,719.4 3386.3,411.4 3288.8,411.4 3288.8,270.6 3549,270.6 
				3549,860.2 			"/>
			<path class="st0" d="M3544,275.6v579.6h-250.2V724.3h97.5V406.5h-97.5V275.6H3544 M3554,265.6h-9.9h-250.2h-9.9v9.9v130.9v9.9
				h9.9h87.5v298h-87.5h-9.9v9.9v130.9v9.9h9.9H3544h9.9v-9.9V275.6V265.6L3554,265.6z"/>
		</g>
		<g>
			<polygon class="st0" points="3573.9,860.2 3573.9,270.6 3834,270.6 3834,411.4 3736.6,411.4 3736.6,719.4 3834,719.4 3834,860.2 
							"/>
			<path class="st0" d="M3829.1,275.6v130.9h-97.5v317.9h97.5v130.9h-250.2V275.6H3829.1 M3839,265.6h-9.9h-250.2h-9.9v9.9v579.6
				v9.9h9.9h250.2h9.9v-9.9V724.3v-9.9h-9.9h-87.5v-298h87.5h9.9v-9.9V275.6V265.6L3839,265.6z"/>
		</g>
		<g>
			<path class="st0" d="M1234.7,860.3V543.1h-79.4c-26.6,0-47.9,8-65.3,24.4c-17.1,16-25.7,37.1-25.7,62.6
				c0,25.1,8.9,46.4,26.5,63.5c17.9,17.3,39.5,25.8,66,25.8h53v140.8h-98.8c-58.8,0-111.4-24-156.4-71.3
				C909.8,741.8,887,687.8,887,628.7c0-59.6,21.6-112.8,64.3-158.1c42.8-45.3,96-68.3,158.2-68.3h287.9v458H1234.7z"/>
			<path class="st0" d="M1392.5,407.3v448h-152.8V538.1h-84.3c-27.6,0-50.5,8.6-68.7,25.8c-18.2,17.1-27.3,39.3-27.3,66.2
				c0,26.6,9.3,48.9,28,67c18.7,18.1,41.8,27.2,69.4,27.2h48v130.9h-93.8c-57.7,0-108.6-23.3-152.8-69.7
				C914.1,739,892,686.8,892,628.7c0-58.6,21-110.1,63-154.7c42-44.5,93.5-66.7,154.6-66.7H1392.5 M1402.4,397.3h-9.9h-283
				c-31.7,0-61.5,5.9-88.4,17.5c-26.9,11.6-51.6,29.2-73.4,52.3c-21.7,23.1-38.3,48.4-49.2,75.1c-10.9,26.8-16.5,55.9-16.5,86.3
				c0,30.3,5.8,59.5,17.4,86.7c11.5,27.1,28.9,53,51.7,77c22.9,24,47.9,42.4,74.4,54.5c26.7,12.2,55.5,18.3,85.6,18.3h93.8h9.9v-9.9
				V724.3v-9.9h-9.9h-48c-25.1,0-45.6-8-62.5-24.4c-16.8-16.3-25-35.9-25-59.9c0-24.4,7.9-43.7,24.1-59
				c16.4-15.5,36.7-23.1,61.9-23.1h74.4v307.2v9.9h9.9h152.8h9.9v-9.9v-448V397.3L1402.4,397.3z"/>
		</g>
		<g>
			<path class="st0" d="M1434.8,991.2V402.3h293c59.8,0,111.8,22.9,154.5,68c42.7,45,64.3,100.5,64.3,164.9
				c0,62.5-21.8,116.2-64.7,159.6c-43,43.4-95.8,65.4-157,65.4h-102.4V719.4h48.6c28.3,0,51.3-7.7,70.3-23.5
				c18.9-15.6,28-35.2,28-59.9c0-24-8.8-44.7-26.9-63.2c-19.3-19.7-43.3-29.6-71.3-29.6h-73.6v448H1434.8z"/>
			<path class="st0" d="M1727.7,407.3c58.7,0,109,22.2,150.9,66.4c42,44.3,63,98.2,63,161.5c0,61.5-21.1,113.5-63.3,156.1
				c-42.2,42.6-93.4,64-153.5,64h-97.5v-131h43.7c29.1,0,53.6-8.2,73.5-24.7c19.9-16.4,29.8-37.7,29.8-63.8
				c0-25.2-9.4-47.3-28.3-66.6c-20.4-20.8-45.4-31.1-74.9-31.1h-78.6v448h-152.9V407.3H1727.7 M1727.7,397.3h-288h-9.9v9.9v578.9
				v9.9h9.9h152.9h9.9v-9.9V548.1h68.6c27,0,49.2,9.2,67.8,28.1c17.2,17.5,25.5,37,25.5,59.7c0,23.2-8.6,41.5-26.2,56.1
				c-18.2,15.1-40.1,22.4-67.2,22.4h-43.7h-9.9v9.9v131v9.9h9.9h97.5c62.5,0,116.6-22.5,160.5-66.9c21.9-22.2,38.6-47.2,49.6-74.3
				c11-27.1,16.5-57,16.5-88.9c0-65.8-22.1-122.4-65.7-168.4C1842.2,420.7,1789,397.3,1727.7,397.3L1727.7,397.3z"/>
		</g>
		<g>
			<path class="st0" d="M1967.1,991.2V402.3h293c59.8,0,111.8,22.9,154.5,68c42.7,45,64.3,100.5,64.3,164.9
				c0,62.5-21.8,116.2-64.7,159.6c-43,43.4-95.8,65.4-157,65.4h-102.4V719.4h48.6c28.3,0,51.3-7.7,70.3-23.5
				c18.9-15.6,28-35.2,28-59.9c0-24-8.8-44.7-26.9-63.2c-19.3-19.7-43.3-29.6-71.3-29.6h-73.6v448H1967.1z"/>
			<path class="st0" d="M2260.1,407.3c58.7,0,109,22.2,150.9,66.4c42,44.3,63,98.2,63,161.5c0,61.5-21.1,113.5-63.3,156.1
				c-42.2,42.6-93.4,64-153.5,64h-97.5v-131h43.7c29.1,0,53.6-8.2,73.5-24.7c19.9-16.4,29.8-37.7,29.8-63.8
				c0-25.2-9.4-47.3-28.3-66.6c-20.4-20.8-45.4-31.1-74.9-31.1H2125v448h-152.9V407.3H2260.1 M2260.1,397.3h-288h-9.9v9.9v578.9v9.9
				h9.9H2125h9.9v-9.9V548.1h68.6c27,0,49.2,9.2,67.8,28.1c17.2,17.5,25.5,37,25.5,59.7c0,23.2-8.6,41.5-26.2,56.1
				c-18.2,15.1-40.1,22.4-67.2,22.4h-43.7h-9.9v9.9v131v9.9h9.9h97.5c62.5,0,116.6-22.5,160.5-66.9c21.9-22.2,38.6-47.2,49.6-74.3
				c11-27.1,16.5-57,16.5-88.9c0-65.8-22.1-122.4-65.7-168.4C2374.6,420.7,2321.4,397.3,2260.1,397.3L2260.1,397.3z"/>
		</g>
		<g>
			<rect x="2499.5" y="270.6" class="st0" width="162.7" height="589.6"/>
			<path class="st0" d="M2657.3,275.6v579.6h-152.8V275.6H2657.3 M2667.2,265.6h-9.9h-152.8h-9.9v9.9v579.6v9.9h9.9h152.8h9.9v-9.9
				V275.6V265.6L2667.2,265.6z"/>
		</g>
		<g>
			<path class="st0" d="M2941.6,860.2c-69.7,0-129.7-20.4-178.4-60.7c-52.3-43.3-78.9-100.6-78.9-170.1c0-59.3,26-112.6,77.3-158.4
				c51.1-45.6,111.9-68.8,180.7-68.8h262.5v137.1l-104.3,152.2h-185.4l107.6-148.4h-68.8c-27.7,0-50.2,8.1-67.1,24
				c-16.9,15.9-25.4,36.4-25.4,60.8c0,26.1,9,48,26.8,65.3c17.8,17.4,39.9,26.1,65.7,26.1h250.8v140.8H2941.6z"/>
			<path class="st0" d="M3199.9,407.2v130.6L3098,686.5h-173.1l107.6-148.4h-78.6c-29.1,0-52.6,8.5-70.5,25.4
				c-17.9,16.9-27,38.4-27,64.4c0,27.5,9.4,50.5,28.3,68.8c18.9,18.4,42,27.5,69.1,27.5h245.9v130.9h-258.2
				c-68.8,0-127.3-19.9-175.2-59.6c-51.4-42.6-77.1-98.1-77.1-166.3c0-58.1,25.2-109.6,75.7-154.7c50.4-45.1,109.6-67.5,177.4-67.5
				H3199.9 M3209.8,397.2h-9.9h-257.5c-35,0-68.2,5.9-98.8,17.5c-30.6,11.6-59.3,29.3-85.3,52.5c-26.1,23.3-46,48.7-59.1,75.5
				c-13.2,27-19.9,56.1-19.9,86.6c0,71.1,27.1,129.6,80.7,174c24.8,20.5,52.7,36.1,82.9,46.4c30.1,10.2,63.3,15.4,98.7,15.4h258.2
				h9.9v-9.9V724.3v-9.9h-9.9h-245.9c-24.8,0-45.1-8.1-62.2-24.7c-17.1-16.5-25.3-36.7-25.3-61.7c0-23.4,7.8-42.1,23.8-57.2
				c16.1-15.2,37-22.6,63.7-22.6h59.1l-96.2,132.6l-11.4,15.8h19.5H3098h5.2l3-4.3l101.9-148.8l1.7-2.5v-3.1V407.2V397.2
				L3209.8,397.2z"/>
		</g>
		<g>
			<path class="st0" d="M314,1230.7c-1.2,0-2.3,0-3.4-0.1c-0.5,0-1,0-1.5-0.1l-0.4,0c-0.7,0-1.3-0.1-1.9-0.1c-0.8,0-1.6-0.1-2.3-0.2
				c-0.5,0-0.9-0.1-1.4-0.1c-0.9-0.1-1.8-0.2-2.7-0.3l-0.5-0.1c-36.1-4.2-71.6-24-105.7-58.7c-29.7-30.3-58.1-71.7-84.5-123
				C57.4,946.7,25.3,829.7,12.6,753.9l-0.2-1.2c-3.9-23.7-6.3-45-7.1-63.2l0-0.5c0-1.1-0.1-2.3-0.1-3.4l0-0.9c0-1-0.1-2-0.1-3l0-1
				c0-1.2,0-2.5,0-3.7l0-0.2c0-3.1,0-6.3,0.1-9.9c0-0.8,0-1.6,0-2.4l0-1.2c0-2.1,0.1-4.2,0.1-6.2c0-1.4,0.1-2.9,0.1-4.3
				c0.1-1.8,0.1-3.6,0.2-5.4c0.1-1.5,0.1-3,0.2-4.5c0.1-1.8,0.2-3.5,0.3-5.3l0.1-1.1c0.1-1,0.1-2,0.2-3c0.2-2.9,0.4-5.8,0.6-8.7
				l0.1-1.2c0.2-2.8,0.5-5.7,0.8-8.8l0.1-1.3c7.5-75.3,29.1-140,64.1-192.4c28.1-42,64.8-76.1,109.1-101.4
				c75.4-43.1,145.7-45.6,148.7-45.7l0.1,0c58.8,0,95,21.4,127,40.2c27.7,16.4,54,31.8,91.4,31.8c33,0,56.2-12.7,83.1-27.5
				c32.1-17.6,68.5-37.6,129.1-37.6c115.7,0,192.8,88.3,213.7,115.3l3.3,4.3l-4.5,2.9c-17.6,11.4-34.1,25.3-49.1,41.2
				c-35.4,37.6-58.5,80.3-68.6,127l0,0.1c-0.4,1.8-0.8,3.7-1.1,5.6l-0.2,1c-0.3,1.6-0.6,3.2-0.9,4.8l-0.2,1.3
				c-0.3,1.7-0.5,3.3-0.8,5l-0.1,0.9c-0.1,0.5-0.1,1.1-0.2,1.6l-0.4,4.3c-0.9,7.5-1.5,15.1-1.8,22.5c0,0-0.1,1.6-0.1,2.1
				c0,0.7,0,1.4-0.1,2.2c0,1.8-0.1,3.6-0.1,5.4l0,0.2c0,1.8,0,3.6,0.1,5.4l0,1.6c0,1.7,0.1,3.4,0.2,5.1c0,0.5,0.1,1.9,0.1,1.9
				c0.1,1.2,0.1,2.4,0.2,3.6l0,0.7c0,0.5,0.1,1,0.1,1.5c0.1,1.5,0.2,3,0.4,4.5c0.1,0.9,0.2,1.8,0.3,2.7c0.1,0.8,0.2,1.7,0.3,2.5
				c0.2,1.6,0.4,3.1,0.6,4.7c0.1,0.7,0.2,1.4,0.3,2.1c0.1,1.1,0.3,2.1,0.5,3.2l0.2,1.4c0.3,2,0.6,3.9,1,5.7c0.1,0.5,0.2,1.1,0.3,1.6
				c0.4,2,0.8,4,1.2,6l0.2,1c0.2,1.1,0.5,2.2,0.7,3.2l0.4,1.6c0.4,1.7,0.8,3.4,1.3,5.1c0.2,0.7,0.4,1.4,0.5,2
				c0.3,0.9,0.5,1.9,0.8,2.8c0.4,1.4,0.8,2.7,1.2,4.1c0.2,0.6,0.4,1.2,0.5,1.7l0.2,0.5c0.3,1.1,0.7,2.1,1,3.2c0,0,0.5,1.4,0.6,1.8
				c0.5,1.6,1.1,3.2,1.7,4.8l0.5,1.3c12.8,35.2,33.9,68.4,62.7,98.7c10.2,10.8,21,20.6,32,29.4c14.1,11.2,29.1,20.8,44.4,28.5l3,1.5
				l0,0.1l0,0l-0.3,3.3c-0.2,2.2-0.4,4.4-0.6,7c-0.1,0.7-0.1,1.3-0.2,2c-0.2,1.8-0.4,3.5-0.6,5.3c-0.1,1.2-0.3,2.4-0.4,3.6
				c-0.2,1.7-0.4,3.4-0.7,5.2c0,0-0.2,1.6-0.3,2c-0.1,0.6-0.2,1.1-0.3,1.7h0.1l-1,5.8c-9,54.4-30.3,109.2-61.8,158.5l-1.5,2.3h-0.1
				c-56.3,87-137.7,146.3-207.5,150.9l-0.8,0.1c-0.7,0-1.3,0.1-2,0.1c-0.5,0-1.7,0.1-1.7,0.1c-0.5,0-0.9,0-1.4,0c-0.8,0-1.7,0-2.5,0
				l-0.5,0c-56.1,0-80.1-12-103.3-23.7c-23.2-11.6-47.3-23.7-106.1-23.7c-62,0-87.4,15.3-111.9,30.1c-22.2,13.3-43.1,25.9-87,25.9
				L314,1230.7z"/>
			<path class="st0" d="M330.1,279.2c107.8,0,135.4,72,218.4,72c75.4,0,103.4-65,212.1-65c114.2,0,190.6,88.5,209.8,113.4
				c-17.8,11.5-34.5,25.5-50,42c-36.2,38.4-59.5,81.7-69.8,129.4c0,0,0,0.1,0,0.1c-0.4,1.9-0.8,3.8-1.2,5.7
				c-0.1,0.4-0.1,0.7-0.2,1.1c-0.3,1.6-0.6,3.3-0.9,4.9c-0.1,0.4-0.2,0.9-0.2,1.3c-0.3,1.7-0.5,3.4-0.8,5.1c0,0.3-0.1,0.6-0.1,0.9
				c-0.3,2-0.5,4-0.8,6h0.1c-0.9,7.6-1.5,15.2-1.8,22.9c0,0.7-0.1,1.4-0.1,2.1c0,0.7,0,1.5-0.1,2.2c0,1.8-0.1,3.7-0.1,5.5
				c0,0.1,0,0.1,0,0.2c0,1.8,0,3.7,0.1,5.5c0,0.5,0,1.1,0,1.6c0,1.7,0.1,3.5,0.2,5.2c0,0.7,0.1,1.3,0.1,2c0.1,1.2,0.1,2.4,0.2,3.6
				c0,0.7,0.1,1.5,0.2,2.2c0.1,1.5,0.2,3,0.4,4.5c0.1,0.9,0.2,1.9,0.3,2.8c0.1,0.9,0.2,1.7,0.3,2.6c0.2,1.6,0.4,3.2,0.6,4.7
				c0.1,0.7,0.2,1.4,0.3,2.1c0.2,1.1,0.3,2.1,0.5,3.2c0.1,0.5,0.1,0.9,0.2,1.4c0.3,2,0.6,3.9,1,5.9c0.1,0.5,0.2,1.1,0.3,1.6
				c0.4,2.1,0.8,4.1,1.2,6.1c0.1,0.3,0.1,0.7,0.2,1c0.2,1.1,0.5,2.2,0.7,3.3c0.1,0.6,0.3,1.1,0.4,1.7c0.4,1.7,0.8,3.4,1.3,5.2
				c0.2,0.7,0.4,1.4,0.5,2.1c0.3,1,0.5,1.9,0.8,2.9c0.4,1.4,0.8,2.8,1.2,4.2c0.2,0.8,0.5,1.5,0.7,2.3c0.3,1.1,0.7,2.2,1,3.2
				c0.2,0.6,0.4,1.2,0.6,1.9c0.5,1.6,1.1,3.3,1.7,4.9c0.2,0.4,0.3,0.9,0.5,1.3c13.1,35.9,34.4,69.5,63.8,100.4
				c10.4,11,21.3,21,32.5,29.9c14.5,11.5,29.6,21.1,45.3,29c0,0,0,0.1,0,0.1c0,0,0,0,0,0c-0.2,2.3-0.4,4.6-0.6,6.9
				c-0.1,0.7-0.1,1.3-0.2,2c-0.2,1.7-0.4,3.5-0.6,5.2c-0.1,1.2-0.3,2.3-0.4,3.5c-0.2,1.7-0.4,3.4-0.7,5.1c-0.1,0.7-0.2,1.3-0.3,2
				c-0.4,2.5-0.7,4.9-1.2,7.4h0.1c-9.3,56.8-31.6,110.5-61.1,156.6h-0.1c-0.3,0.5-0.7,1-1,1.5c-0.1,0.2-0.2,0.4-0.3,0.5
				c-55,85.2-134.7,144.3-203.8,148.8c-0.3,0-0.5,0-0.8,0.1c-0.6,0-1.3,0.1-1.9,0.1c-0.4,0-0.9,0-1.3,0.1c-0.5,0-1.1,0-1.6,0.1
				c-0.8,0-1.6,0-2.4,0c-0.2,0-0.3,0-0.5,0c0,0,0,0-0.1,0c0,0,0,0,0,0c-111.3,0-91.1-47.3-209.3-47.3c-118.8,0-107.9,56-199,56
				c0,0,0,0,0,0c0,0,0,0-0.1,0c-0.2,0-0.3,0-0.5,0c-1.1,0-2.2,0-3.3-0.1c-0.6,0-1.3-0.1-1.9-0.1c-0.6,0-1.2-0.1-1.9-0.1
				c-0.8,0-1.5-0.1-2.3-0.2c-0.4,0-0.9-0.1-1.3-0.1c-0.9-0.1-1.7-0.2-2.6-0.3c-0.2,0-0.3,0-0.5-0.1
				C152,1207.6,45.8,921.9,17.5,753.1c0-0.2-0.1-0.3-0.1-0.5c0-0.2-0.1-0.4-0.1-0.7c-3.9-23.5-6.3-44.7-7.1-62.6c0-0.2,0-0.3,0-0.5
				c0-1.1-0.1-2.2-0.1-3.3c0-0.3,0-0.6,0-0.9c0-1,0-2-0.1-2.9c0-0.3,0-0.6,0-0.9c0-1.2,0-2.4,0-3.6c0,0,0,0,0-0.1c0,0,0,0,0,0
				c0-3.3,0-6.6,0.1-9.9c0-1.2,0-2.4,0.1-3.6c0-2.1,0.1-4.1,0.1-6.2c0-1.4,0.1-2.9,0.1-4.3c0.1-1.8,0.1-3.6,0.2-5.3
				c0.1-1.5,0.1-3,0.2-4.5c0.1-1.8,0.2-3.5,0.3-5.2c0.1-1.4,0.2-2.8,0.2-4.1c0.2-2.9,0.4-5.8,0.6-8.6c0-0.4,0.1-0.8,0.1-1.1
				c0.2-2.9,0.5-5.9,0.8-8.8c0-0.4,0.1-0.9,0.1-1.3C45.5,287.7,330.1,279.2,330.1,279.2 M330.1,269.2h-0.1l-0.1,0
				c-0.8,0-19,0.6-46.8,6.7c-25.5,5.5-64.3,16.9-104.2,39.7c-45,25.7-82.3,60.3-110.8,103c-35.5,53-57.3,118.5-64.9,194.6L3,613.7
				l-0.1,0.8c-0.3,3.1-0.6,6-0.8,8.9l0,0.4L2,624.6c-0.2,2.8-0.4,5.8-0.6,8.8c-0.1,1-0.1,2-0.2,3l-0.1,1.2c-0.1,1.8-0.2,3.5-0.3,5.3
				c-0.1,1.5-0.1,3-0.2,4.5c-0.1,1.8-0.1,3.6-0.2,5.4c-0.1,1.4-0.1,2.9-0.1,4.3c-0.1,2.1-0.1,4.2-0.1,6.3l0,1.2c0,0.8,0,1.6,0,2.5
				C0,670.7,0,674,0,677.1l0,0l0,0.1l0,0.1c0,1.2,0,2.5,0,3.7l0,0.6l0,0.4c0,1,0,2,0.1,3l0,0.6l0,0.3c0,1.1,0.1,2.3,0.1,3.4l0,0.5
				c0.8,18.4,3.2,39.8,7.2,63.8l0,0.3l0.1,0.4l0.1,0.4l0,0.2c7.5,44.8,19.8,94.6,35.6,143.9c17.5,54.6,38.8,107.1,61.8,151.7
				c26.6,51.8,55.3,93.6,85.4,124.2c34.9,35.6,71.5,55.9,108.7,60.2l0.1,0l0.4,0c0.9,0.1,1.9,0.2,2.8,0.3c0.5,0,0.9,0.1,1.4,0.1
				c0.8,0.1,1.6,0.1,2.4,0.2c0.7,0,1.3,0.1,2,0.1l0.4,0c0.5,0,1.1,0.1,1.6,0.1c1.1,0,2.3,0.1,3.6,0.1l0,0c0.2,0,0.3,0,0.5,0h0.1l0,0
				l0,0c45.3,0,67.8-13.5,89.6-26.6c24-14.4,48.8-29.4,109.4-29.4c57.6,0,80.1,11.3,103.9,23.2c23.7,11.9,48.3,24.2,105.4,24.2h0.1
				l0,0c0.1,0,0.3,0,0.4,0l0.1,0c0.9,0,1.7,0,2.6,0c0.5,0,1,0,1.4,0l0.3,0c0.5,0,1,0,1.4-0.1c0.7,0,1.4-0.1,2.1-0.1
				c0.3,0,0.5,0,0.8,0l0.1,0c35.6-2.4,74.5-18.3,112.4-46.1c36.3-26.7,70-62.8,97.5-104.8h0.1l2.9-4.6
				c31.8-49.9,53.4-105.3,62.5-160.4l1.9-11.6h-0.3c0.2-1.1,0.3-2.2,0.4-3.3c0.2-1.2,0.3-2.4,0.4-3.6c0.2-2,0.4-3.7,0.6-5.3
				c0.1-0.7,0.1-1.4,0.2-2c0.2-2.6,0.4-4.9,0.6-7.1l0.5-6.2l0,0l0-0.6l-5.9-3c-15-7.6-29.7-17-43.6-27.9
				c-10.8-8.6-21.4-18.3-31.5-28.9c-28.3-29.8-49.1-62.4-61.6-97l-0.1-0.2c-0.1-0.3-0.3-0.7-0.4-1c-0.6-1.6-1.1-3.2-1.6-4.7
				c-0.1-0.4-0.3-0.8-0.4-1.2l-0.2-0.6c-0.3-1-0.7-2.1-1-3.1l-0.2-0.6c-0.2-0.5-0.3-1.1-0.5-1.6c-0.4-1.2-0.7-2.5-1.2-4
				c-0.3-0.9-0.5-1.8-0.8-2.8c-0.2-0.6-0.3-1.2-0.5-1.9l0-0.1c-0.4-1.7-0.8-3.3-1.2-4.9l-0.1-0.3c-0.1-0.4-0.2-0.8-0.3-1.3
				c-0.2-1.1-0.5-2.1-0.7-3.2l-0.1-0.5L860,682c-0.4-2-0.8-3.9-1.2-5.9c-0.1-0.5-0.2-1-0.3-1.5c-0.3-1.8-0.7-3.7-1-5.6l-0.1-0.6
				c0-0.3-0.1-0.5-0.1-0.8c-0.2-1-0.3-2.1-0.5-3.1c-0.1-0.7-0.2-1.3-0.3-2c-0.2-1.5-0.4-3-0.6-4.6c-0.1-0.8-0.2-1.7-0.3-2.5
				c-0.1-0.9-0.2-1.8-0.3-2.7c-0.2-1.7-0.3-3.1-0.4-4.4c0-0.5-0.1-1-0.1-1.5l0-0.7c-0.1-1.2-0.1-2.3-0.2-3.5l0-0.6
				c0-0.4,0-0.9-0.1-1.3c-0.1-1.6-0.1-3.3-0.2-5c0-0.5,0-0.9,0-1.4l0-0.2c0-2.1-0.1-3.7-0.1-5.3l0-0.2c0-1.9,0-3.9,0.1-5.3
				c0-0.7,0-1.4,0-2.1c0-0.5,0-0.9,0-1.3l0-0.7c0.3-7.3,0.9-14.7,1.7-22.1l0.9-7.5c0.2-1.4,0.4-2.7,0.6-4.1c0-0.3,0.1-0.5,0.1-0.8
				l0.1-0.5c0.3-1.7,0.6-3.2,0.8-4.7l0.2-1c0.4-2,0.7-3.8,1.1-5.5l0-0.1c9.9-45.8,32.5-87.7,67.3-124.6
				c14.7-15.6,30.9-29.2,48.2-40.4l9.1-5.9l-6.6-8.5c-9-11.7-34-41.7-71.4-68.1c-20.7-14.6-42.5-26.2-64.5-34.3
				c-26.6-9.8-54.1-14.8-81.7-14.8c-61.9,0-98.8,20.3-131.5,38.2c-26.3,14.4-49,26.9-80.7,26.9c-36.1,0-60.6-14.4-88.9-31.1
				C427.1,290.9,390.2,269.2,330.1,269.2L330.1,269.2z"/>
		</g>
		<g>
			<path class="st0" d="M512.2,332.9c-6.4-40.2-4.9-79.4,4.6-116.3c8.6-33.4,23.7-65.3,44.9-94.8c19.8-27.4,46.5-51.5,79.5-71.6
				C672.6,31,708.8,16.3,745.9,7.7l6.1-1.4v6.3c0,36-6.8,83.2-18.7,129.4c-7.9,30.8-20.7,70.2-31.1,81.2
				c-36,54-83.4,105.1-184.7,113.9l-4.6,0.4L512.2,332.9z"/>
			<path class="st0" d="M747,12.5c0,80.7-33.2,192-48.7,207.5c-35.8,53.8-82.3,103.5-181.2,112.1c-13.3-83.1,9.1-152.6,48.6-207.5
				C605.3,69.7,673.8,29.5,747,12.5 M757,0l-12.2,2.8c-37.6,8.7-74.3,23.6-106.2,43c-33.6,20.5-60.8,45-80.9,72.9
				c-21.6,30-37,62.5-45.7,96.5c-9.7,37.7-11.3,77.5-4.7,118.4l1.5,9.1l9.2-0.8c47.3-4.1,86.2-17.5,119.2-40.9
				c31.8-22.6,53.6-51.8,69-74.9c11-12.1,23.7-50.5,32-83c12-46.6,18.9-94.3,18.9-130.7V0L757,0z"/>
		</g>
	</g>
	<g>
		<g>
			<path d="M3391.2,406.5h-97.5V275.6H3544v579.6h-250.2V724.3h97.5V406.5z"/>
		</g>
		<g>
			<path d="M3731.6,724.3h97.5v130.9h-250.2V275.6h250.2v130.9h-97.5V724.3z"/>
		</g>
		<g>
			<g>
				<path d="M923.7,818.3c-52.6-55.4-79.3-119.1-79.3-189.6c0-70.8,25.6-133.9,75.9-187.3c15.5-16.5,32.2-30.4,50-42
					c-19.2-24.9-95.6-113.4-209.8-113.4c-108.7,0-136.8,65-212.1,65c-83,0-110.6-72-218.4-72c0,0-320.1,9.5-320.1,398
					c0,140.1,122.4,548.6,304.5,548.6c91.1,0,80.2-56,199-56c118.3,0,98.1,47.3,209.4,47.3c115.1,0,264.9-158.9,278.7-339.8
					C973.8,863.3,947.7,843.6,923.7,818.3z"/>
			</g>
			<path d="M1109.5,407.3h283v448h-152.8V538.1h-84.3c-27.6,0-50.5,8.6-68.7,25.8c-18.2,17.1-27.3,39.3-27.3,66.2
				c0,26.6,9.3,48.9,28,67c18.7,18.1,41.8,27.2,69.4,27.2h48v130.9h-93.8c-57.7,0-108.6-23.3-152.8-69.7
				C914.1,739,892,686.8,892,628.7c0-58.6,21-110.1,63-154.7C996.9,429.5,1048.5,407.3,1109.5,407.3z"/>
			<path d="M1439.7,986.2V407.3h288c58.7,0,109,22.2,150.9,66.4c42,44.3,63,98.2,63,161.5c0,61.5-21.1,113.5-63.3,156.1
				c-42.2,42.6-93.4,64-153.5,64h-97.5v-131h43.7c29.1,0,53.6-8.2,73.5-24.7c19.9-16.4,29.8-37.7,29.8-63.8
				c0-25.2-9.4-47.3-28.3-66.6c-20.4-20.8-45.4-31.1-74.9-31.1h-78.6v448H1439.7z"/>
			<path d="M1972.1,986.2V407.3h288c58.7,0,109,22.2,150.9,66.4c42,44.3,63,98.2,63,161.5c0,61.5-21.1,113.5-63.3,156.1
				c-42.2,42.6-93.4,64-153.5,64h-97.5v-131h43.7c29.1,0,53.6-8.2,73.5-24.7c19.9-16.4,29.8-37.7,29.8-63.8
				c0-25.2-9.4-47.3-28.3-66.6c-20.4-20.8-45.4-31.1-74.9-31.1H2125v448H1972.1z"/>
			<path d="M2504.5,275.6h152.8v579.6h-152.8V275.6z"/>
			<path d="M3199.8,724.3v130.9h-258.2c-68.8,0-127.3-19.9-175.2-59.6c-51.4-42.6-77.1-98.1-77.1-166.3
				c0-58.1,25.2-109.6,75.7-154.7c50.4-45.1,109.6-67.5,177.4-67.5h257.5v130.6L3098,686.5h-173.1l107.6-148.4h-78.6
				c-29.1,0-52.6,8.5-70.5,25.4c-17.9,16.9-27,38.4-27,64.4c0,27.5,9.4,50.5,28.3,68.8c18.9,18.4,42,27.5,69.1,27.5H3199.8z"/>
			<path class="st1" d="M722.9,1217.1c71.5,0,156.3-61.4,213.6-151.2H124.7c50.3,90.9,115.1,159.8,189.9,159.8
				c91.1,0,80.2-56,199-56C631.7,1169.8,611.7,1217.1,722.9,1217.1z"/>
			<path class="st2" d="M124.7,1066h812c29.4-46.1,51.7-99.9,61.1-156.6H57.3C75.3,963,98,1017.5,124.7,1066z"/>
			<path class="st3" d="M57.3,909.2h940.4c1.8-10.5,3.1-21.3,3.9-32c-27.8-14-53.8-33.6-77.9-58.9c-19.7-20.8-35.8-42.7-48.1-65.7
				H17.4C25.2,798.7,38.7,853.5,57.3,909.2z"/>
			<path class="st4" d="M844.5,628.7c0-11.1,0.7-22,2-32.7H15.1c-3.4,25.1-5.2,52-5.2,81.3c0,20.2,2.6,46,7.5,75.4h858.1
				C854.9,714.2,844.5,672.7,844.5,628.7z"/>
			<path class="st5" d="M66.7,439.3c-24.3,40.9-43,92.2-51.6,156.6h831.3c6.8-57.6,31.4-109.5,73.9-154.6c0.7-0.7,1.4-1.4,2.1-2.1
				L66.7,439.3L66.7,439.3z"/>
			<g>
				<g>
					<defs>
						<path id="SVGID_1_" d="M923.7,818.3c-52.6-55.4-79.3-119.1-79.3-189.6c0-70.8,25.6-133.9,75.9-187.3
							c15.5-16.5,32.2-30.4,50-42c-19.2-24.9-95.6-113.4-209.8-113.4c-108.7,0-136.8,65-212.1,65c-83,0-110.6-72-218.4-72
							c0,0-320.1,9.5-320.1,398c0,140.1,122.4,548.6,304.5,548.6c91.1,0,80.2-56,199-56c118.3,0,98.1,47.3,209.4,47.3
							c115.1,0,264.9-158.9,278.7-339.8C973.8,863.3,947.7,843.6,923.7,818.3z"/>
					</defs>
					<clipPath id="SVGID_00000042716300400813312110000007392320640538418597_">
						<use xlink:href="#SVGID_1_"  style="overflow:visible;"/>
					</clipPath>
					
						<rect x="-15" y="279.2" style="clip-path:url(#SVGID_00000042716300400813312110000007392320640538418597_);fill:#62B947;" width="1125.5" height="160.1"/>
				</g>
			</g>
			<path class="st7" d="M698.3,220C713.8,204.6,747,93.2,747,12.5l0,0c-73.2,17-141.7,57.2-181.3,112.1l0,0
				c-39.5,54.9-62,124.3-48.6,207.5l0,0C616,323.5,662.5,273.8,698.3,220L698.3,220z"/>
		</g>
	</g>
</g>
</svg>
