<?xml version="1.0" encoding="utf-8"?>
<!-- Generator: Adobe Illustrator 25.4.1, SVG Export Plug-In . SVG Version: 6.00 Build 0)  -->
<svg version="1.1" id="Layer_1" xmlns="http://www.w3.org/2000/svg" xmlns:xlink="http://www.w3.org/1999/xlink" x="0px" y="0px"
	 viewBox="0 0 3839 586.8" style="enable-background:new 0 0 3839 586.8;" xml:space="preserve">
<style type="text/css">
	.st0{fill:#353535;}
	.st1{fill:#FFFFFF;}
	.st2{fill:#9F3A35;}
</style>
<g>
	<g>
		<g>
			<g>
				<path class="st0" d="M69.4,567C33.9,567,5,538.1,5,502.6V84.1c0-35.5,28.9-64.4,64.4-64.4h418.4c35.4,0,64.3,28.9,64.4,64.4
					v418.4c0,35.5-28.9,64.4-64.4,64.4H69.4z"/>
				<path class="st1" d="M487.8,24.7c32.7,0,59.4,26.8,59.5,59.5v418.4c0,32.7-26.8,59.5-59.5,59.5H69.4
					c-32.7,0-59.5-26.8-59.5-59.5V84.1c0-32.7,26.8-59.5,59.5-59.5H487.8 M487.8,14.7H69.4C31.1,14.7,0,45.9,0,84.1v418.4
					C0,540.8,31.1,572,69.4,572h418.4c38.3,0,69.4-31.1,69.4-69.4V84.1C557.1,45.8,526,14.7,487.8,14.7L487.8,14.7z"/>
			</g>
			<g>
				<path class="st1" d="M217,126.3c8.9,0,17.7,0,26.6,0c0,20.8,0,41.6,0,62.4c0.1,17.4-0.4,34.7-1.1,52
					c-1.2,25.1-2.8,50.1-6.9,74.9c-2.9,17.1-8.8,33.5-16.1,49.1c-11.9,25.2-30.7,46.4-51.8,64.3c-18.9,16.6-41.4,28.7-65.1,36.9
					c-13.4,4.6-27.2,8.2-41.3,10.1c0-17.4,0-34.9,0-52.3c16.9-2.6,33.1-8.6,48.2-16.5c17.9-9.4,34-22.2,47.6-37.2
					c14-15.5,25.2-33.4,33.7-52.5c9.9-21.9,15.3-45.6,19-69.3c4.6-30.1,6.5-60.6,7.2-91.1C217,147,216.9,136.7,217,126.3z"/>
				<path class="st1" d="M254.2,126.3c16.3-0.1,32.5,0,48.8,0c0,116.6,0,233.2,0,349.9c-16.2,0-32.5-0.1-48.7,0.1
					c-0.2-37.2,0-74.4-0.1-111.6C254.2,285.2,254.2,205.8,254.2,126.3z"/>
				<path class="st1" d="M313.9,126.3c8.8,0,17.6,0,26.4,0c-0.3,35.5,0.9,71.2,5.2,106.5c3.5,27.4,8.4,55.1,19.3,80.7
					c10.3,24.8,25.3,47.7,44.8,66.2c18.6,17.7,41.1,31.3,65.5,39.2c6.9,2.2,13.8,3.9,20.9,5c0,17.4,0,34.8,0,52.3
					c-13.9-1.9-27.6-5.5-41-10c-15.8-5.5-31.1-12.6-45.3-21.8c-10.2-6.6-19.6-14.5-28.6-22.8c-14.8-13.6-28-29.1-38-46.7
					c-7.8-13.6-13.4-28.4-17.9-43.6c-4.1-15.1-5.8-30.8-7.4-46.3c-3.1-33.6-4.2-67.4-4-101.2C313.9,164.5,313.9,145.4,313.9,126.3z"
					/>
			</g>
		</g>
		<g>
			<g>
				<g>
					<path class="st0" d="M728.3,567.5c-13.9,0-28.1,0-41.8,0c-13.7,0-27.9,0-41.8-0.1l-6.6,0l1.8-6.3
						c54.2-187.3,96-331.4,135.6-467.2l0.1-0.2c1.4-4.1,2.5-8.3,3.7-12.7c3.4-12.8,7-26,16.3-36.7c12.3-15.7,32.4-25,53.7-25
						c16.4,0,31.7,5.5,43.2,15.6c10.9,9.2,18.9,21.8,23.1,36.5c20.6,70.9,41.6,142.9,61.9,212.6c26.5,90.9,53.9,184.8,80.6,277.3
						l1.8,6.4h-6.6c-9.4,0-18.7,0-28,0c-9.3,0-18.7,0-28,0c-9.3,0-18.7,0-28,0l-3.7,0l-1.1-3.6c-9.9-33.8-19.9-68.2-29.5-101.5
						c-2.9-10-5.8-20.1-8.7-30.1c-25.9,0-52.1,0-77.5,0c-25.4,0-51.6,0-77.4,0c-13.5,46.1-26.1,89.2-38.3,131.7l-1,3.6L728.3,567.5z
						 M796.5,345.6c15.2,0.1,31.6,0.1,52.4,0.1c9.8,0,19.7,0,29.5,0c7.6,0,15.3,0,22.9,0c-9.2-31.7-18.4-63.4-27.6-95.2
						c-8.2-28.4-16.5-56.9-24.8-85.3c-9.3,31.8-18.6,64-27.7,95.2C813.2,288.4,804.8,317.2,796.5,345.6z"/>
					<path class="st1" d="M849.3,24.2c14.4,0,28.8,4.7,39.9,14.4c10.4,8.9,17.8,21,21.6,34.1c47.4,163.3,95.2,326.5,142.5,489.8
						c-18.7,0-37.4,0-56,0c-9.3,0-18.7,0-28,0c-13.2-45.1-26.2-90.1-39.2-135.2c-54.2-0.1-108.3,0-162.4-0.1
						c-13.2,45.1-26.4,90.1-39.4,135.3c-27.8-0.1-55.7,0-83.5-0.1C689.8,406.8,735,251,780.3,95.3c5.4-16.3,7.4-34.5,19.1-47.8
						C811.3,32.3,830.4,24.2,849.3,24.2 M848.9,350.7c19.7,0,39.3,0,59,0c-19.7-67.7-39.3-135.5-59-203.2
						c-19.9,67.6-39.3,135.5-59.1,203.1C809.6,350.7,829.3,350.7,848.9,350.7 M849.3,14.3c-22.8,0-44.3,10-57.6,26.8
						c-10.1,11.6-13.8,25.3-17.3,38.6c-1.2,4.4-2.3,8.5-3.6,12.5l-0.1,0.2l0,0.2c-39.6,136-81.4,280.1-135.6,467.2l-3.7,12.7l13.2,0
						c13.9,0,28.1,0,41.8,0c13.7,0,27.8,0,41.7,0l7.5,0l2.1-7.2c12-41.4,24.2-83.4,37.3-128.1c24.6,0,49.6,0,73.7,0
						c24.2,0,49.1,0,73.8,0c2.6,8.9,5.1,17.7,7.7,26.6c9.6,33.2,19.5,67.6,29.4,101.4l2.1,7.2l7.5,0c8.4,0,17.5,0,28,0
						c9.3,0,18.6,0,28,0c9.3,0,18.7,0,28,0h13.2l-3.7-12.7c-26.8-92.4-54.2-186.4-80.7-277.3c-20.3-69.7-41.3-141.7-61.9-212.6
						c-4.5-15.5-13-29-24.6-38.9C883.3,20.2,866.9,14.3,849.3,14.3L849.3,14.3z M803.1,340.7c7.7-26.4,15.4-53,22.9-78.9
						c7.5-25.9,15.2-52.4,22.9-78.8c6.7,23.1,13.4,46.3,20,68.9c8.4,29.1,17.1,59.1,25.8,88.8c-5.4,0-10.9,0-16.3,0
						c-9.8,0-19.7,0-29.5,0C831.1,340.8,816.5,340.7,803.1,340.7L803.1,340.7z"/>
				</g>
				<g>
					<path class="st0" d="M1556.8,564c-4.7-16.2-9.4-32.5-14.1-48.7c-7.8-27.2-15.9-55.3-24-83c-16.8,0-33.6,0-50.4,0
						c-18,0-36,0-54,0c-16.8,0-33.5,0-50.3,0c-6.1,21.4-12.5,43-18.6,64c-6.5,22.1-13.1,45-19.6,67.6l-1,3.6H1231l1.8-6.3
						c30.5-106.2,61.8-214,92.1-318.3c14.7-50.5,29.3-100.9,43.9-151.4l0.1-0.2c1.3-3.9,2.4-7.9,3.6-12.1
						c2.9-10.6,5.9-21.6,12.9-31.1c12.3-17.8,33.9-28.9,56.3-28.9c5.6,0,11.2,0.7,16.6,2.1c23.4,5.5,42.9,25.3,49.8,50.5
						c23.7,81.5,47.4,163.1,71.2,244.7c23.7,81.6,47.5,163.1,71.2,244.7l1.8,6.3l-6.6,0c-9.1,0.1-18.6,0.1-31.1,0.1
						c-5.7,0-11.3,0-17,0c-5.7,0-11.3,0-17,0c-6.3,0-12.7,0-19,0l-3.8,0L1556.8,564z M1389.2,345.7c10.9,0,21.7,0,32.6,0
						c13.1,0,26.1,0,39.2,0c10.9,0,21.7,0,32.6,0c-9.6-33.3-19.3-67-28.8-99.7c-7.7-26.5-15.6-53.8-23.4-80.8
						c-8.2,28.5-16.5,57.2-24.6,85.1C1407.7,281.6,1398.4,313.9,1389.2,345.7z"/>
					<path class="st1" d="M1441.8,24.1c5.2,0,10.3,0.6,15.4,2c22.8,5.3,40.2,24.9,46.1,46.9c47.4,163.2,95,326.3,142.4,489.5
						c-10.4,0.1-20.7,0.1-31.1,0.1c-11.3,0-22.7,0-34,0c-6.3,0-12.7,0-19,0c-13-45.1-26-90.2-39.1-135.3c-36.1,0-72.1,0-108.1,0
						c-18,0-36,0-54.1,0c-12.9,45.1-26.3,90.1-39.2,135.2c-27.8,0-55.6,0-83.4,0c45.1-156.6,90.7-313.2,136.1-469.7
						c4.8-14,6.7-29.6,15.8-41.9C1401.2,34,1421.4,24.1,1441.8,24.1 M1421.8,350.7c26.1,0,52.2,0,78.4,0
						c-19.5-67.9-39.3-135.7-58.8-203.5c-19.5,67.8-39.3,135.7-58.8,203.5C1395.7,350.7,1408.8,350.7,1421.8,350.7 M1441.8,14.1
						c-24,0-47.1,11.9-60.3,31c-7.6,10.2-10.7,21.6-13.7,32.6c-1.1,4.2-2.2,8.1-3.5,11.8l-0.1,0.2l-0.1,0.2
						c-14.6,50.5-29.6,101.9-44,151.6c-30.3,104.3-61.6,212.1-92.1,318.2l-3.7,12.7h13.2h83.4h7.5l2.1-7.2
						c6.5-22.5,13.1-45.4,19.6-67.5c5.8-19.8,11.7-40.2,17.5-60.4c14.1,0,29.4,0,46.6,0c18,0,36,0,54,0c15.5,0,31.1,0,46.6,0
						c7.7,26.5,15.4,53.3,22.9,79.4c4.7,16.2,9.4,32.5,14.1,48.7l2.1,7.2l7.5,0c5.7,0,11.7,0,19,0c5.7,0,11.3,0,17,0
						c5.7,0,11.3,0,17,0c12.5,0,22.1,0,31.1-0.1l13.2-0.1l-3.7-12.6c-23.7-81.6-47.9-164.6-71.2-244.8
						c-23.3-80.2-47.5-163.1-71.2-244.7c-7.3-26.9-28.2-48-53.3-53.9C1453.8,14.9,1447.8,14.1,1441.8,14.1L1441.8,14.1z
						 M1395.8,340.8c8.6-29.8,17.3-59.9,25.7-89c6.5-22.5,13.2-45.6,19.8-68.6c6.2,21.6,12.5,43.2,18.6,64.3
						c8.9,30.6,18,62.1,27,93.4c-8.7,0-17.3,0-26,0c-13.1,0-26.1,0-39.2,0C1412.5,340.8,1403.9,340.8,1395.8,340.8L1395.8,340.8z"/>
				</g>
			</g>
			<g>
				<path class="st0" d="M1097.6,567.5V112.2c-10.8,0-21.6,0-32.3,0c-12.4,0-24.9,0-37.3,0c-12.4,0-24.9,0-37.3,0h-5v-5
					c0-9.1,0-18.2,0-27.3c0-17.9,0-36.4,0-54.6l0-5h313.9v91.9h-111.9v455.3H1097.6z"/>
				<path class="st1" d="M1294.6,25.3c0,27.4,0,54.6,0,82c-37.3,0-74.6,0-111.9,0c0,151.8,0,303.5,0,455.3c-26.8,0-53.4,0-80.2,0
					c0-151.8,0-303.5,0-455.3c-12.4,0-24.9,0-37.3,0c-24.9,0-49.7,0-74.6,0c0-27.4-0.1-54.6,0-82C1092,25.3,1193.4,25.3,1294.6,25.3
					 M1304.6,15.3h-9.9H990.7h-9.9l0,9.9c-0.1,18.3,0,36.8,0,54.7c0,9.1,0,18.2,0,27.3v9.9h9.9c12.4,0,24.9,0,37.3,0
					c12.4,0,24.9,0,37.3,0c9.9,0,18.9,0,27.4,0v445.4v9.9h9.9h80.2h9.9v-9.9V117.2h101.9h9.9v-9.9v-82V15.3L1304.6,15.3z"/>
			</g>
			<g>
				<path class="st0" d="M1769.9,567.6c-9,0-17.9,0-26.9,0c-9,0-17.9,0-26.9,0c-9,0-18,0-26.9,0h-5l0-5c0-67.4,0-136,0-202.3
					c0-88.4,0-179.9-0.1-269.8c0-29.5,20.7-57.6,49.1-66.7c7-2.4,14.9-3.7,23.5-3.7c0.7,0,1.5,0,2.2,0c10.6,0,21.3,0,31.9,0
					c10.7,0,21.3,0,32,0c10.7,0,21.3,0,31.9,0c55.3,1,108.7,35.4,132.9,85.5c14.4,28,19.1,63.4,14.2,105.2
					c-3.1,39.8-20.4,76.1-47.4,99.5c-8.8,7.8-18.9,13.9-28.7,19.8c-6.8,4.1-13.8,8.3-20.2,13c-6.5,4.9-6.5,15-3.2,22
					c28.2,43.5,57.6,87.3,86.1,129.7c14.3,21.2,29,43.2,43.5,64.8l5.1,7.7l-9.3,0c-7.2,0-14.4,0-21.5,0c-6.4,0-12.8,0-19.2,0
					c-6.4,0-12.8,0-19.2,0c-14.1,0-24.9,0-35.1,0.1l-2.7,0l-1.5-2.2c-25.6-38.5-51.5-77.7-76.5-115.6
					c-15.5-23.5-31.5-47.7-47.2-71.6c-13.1-19.1-16.4-44.4-8.7-65.9c5.7-15.7,19.3-28.7,37.3-35.7c33.7-12.9,57.5-30.9,70.8-53.5
					c12.4-21,9.9-46.6,5.5-64.4l0-0.1c-5.8-26.4-31.2-47-57.9-47c-0.6,0-1.1,0-1.7,0l-0.1,0c-4.7,0-9.4,0-14.1,0
					c-4.2,0-8.4,0-12.5,0c-4.2,0-8.4,0-12.5,0c-9.2,0-16.2,0-22.9,0.1l-0.4,0c-3.2,0-6.7,1.5-9.2,4.1c-2.3,2.4-3.6,5.3-3.5,8.3
					l0,0.1c-0.1,97.5,0,196.5,0,292.3c0,48.7,0,97.4,0,146.2v5L1769.9,567.6z"/>
				<path class="st1" d="M1756.7,25.1c0.7,0,1.4,0,2.2,0c10.6,0,21.3,0,32,0c21.3,0,42.6,0,63.9,0c53.8,1,105.1,34.4,128.4,82.7
					c16.1,31.4,17.8,68,13.7,102.5c-2.8,36.1-18,72.2-45.7,96.2c-14.6,13-32.9,21-48.6,32.6c-8.7,6.6-9.1,19.3-4.6,28.4
					c42.4,65.4,86.5,129.9,129.8,194.8c-7.2,0-14.3,0-21.5,0c-12.8,0-25.6,0-38.4,0c-11.7,0-23.4,0-35.1,0.1
					c-41.5-62.3-82.4-124.8-123.7-187.2c-12.1-17.7-15.4-41.3-8.2-61.5c5.7-15.5,19.3-26.9,34.4-32.7c28.8-11,57.3-28.3,73.3-55.6
					c12.1-20.5,11.5-45.7,6.1-68.1c-6.2-28.4-33.5-50.9-62.8-51c-0.6,0-1.3,0-1.9,0c-4.7,0-9.4,0-14.1,0c-8.4,0-16.7,0-25.1,0
					c-7.6,0-15.3,0-22.9,0.1c-0.1,0-0.2,0-0.3,0c-9.2,0-17.9,8.1-17.7,17.4c-0.1,146.2,0,292.3,0,438.5c-9,0-18,0-26.9,0
					c-17.9,0-35.9,0-53.8,0c-0.1-157.3,0.1-314.7-0.1-472.1c0-27.6,19.6-53.6,45.7-62C1741.8,26.1,1749.3,25.1,1756.7,25.1
					 M1756.7,15.2L1756.7,15.2c-9.2,0-17.6,1.3-25.1,3.9c-30.4,9.8-52.5,39.8-52.5,71.4c0.1,90,0.1,181.4,0.1,269.8
					c0,66.3,0,134.9,0,202.3l0,9.9h9.9c9,0,18,0,27,0c9,0,17.9,0,26.9,0c10.1,0,18.8,0,26.9,0l10,0v-10c0-48.7,0-97.5,0-146.2
					c0-95.8,0-194.8,0-292.3l0-0.1l0-0.1c0-1.6,0.7-3.3,2.1-4.7c1.6-1.6,3.7-2.6,5.6-2.6l0.1,0l0.2,0l0.2,0
					c6.6-0.1,13.7-0.1,22.8-0.1c4.2,0,8.3,0,12.5,0c4.2,0,8.4,0,12.5,0c5.4,0,9.9,0,14.1,0l0.1,0l0.1,0c0.5,0,1,0,1.6,0
					c11.8,0,23.8,4.5,33.7,12.6c9.9,8.1,16.8,18.9,19.3,30.6l0,0.1l0,0.1c4.1,16.9,6.6,41.1-5,60.7c-12.7,21.6-35.7,38.9-68.3,51.4
					c-19.3,7.5-34,21.6-40.2,38.6l0,0l0,0c-8.3,23-4.7,49.9,9.3,70.4c15.8,23.8,31.7,48.1,47.2,71.5c25,37.9,50.9,77.2,76.5,115.6
					l3,4.5l5.4,0c10.2-0.1,21-0.1,35-0.1c6.4,0,12.8,0,19.1,0c6.4,0,12.8,0,19.2,0c8.2,0,15.1,0,21.5,0l18.5-0.1L2036,557
					c-14.4-21.7-29.2-43.6-43.5-64.9c-28.4-42.2-57.8-85.9-85.9-129.3c-2.4-5.3-2.4-12.4,1.8-15.6c6.2-4.6,12.8-8.5,19.8-12.7
					c10-6,20.3-12.2,29.5-20.4c28-24.2,45.9-61.6,49.1-102.7c2.3-19.6,2.5-37.9,0.7-54.5c-2.2-19.7-7.4-37.7-15.4-53.4
					c-12.2-25.4-31.7-47.2-56.3-63.1c-24.7-16-52.7-24.7-80.9-25.2l-0.1,0h-0.1c-10.6,0-21.3,0-32,0c-10.7,0-21.3,0-32,0
					c-11.9,0-22.3,0-31.8,0C1758.2,15.2,1757.5,15.2,1756.7,15.2L1756.7,15.2z"/>
			</g>
			<g>
				<path class="st0" d="M2154.8,567.6c-9.4,0-18.8,0-28.3,0s-18.9,0-28.3,0c-9.5,0-18.9,0-28.4,0h-5l0-5
					c0.1-179.2,0.1-361.3,0.1-537.4v-5h94.9v5c0,44.7,0,89.4,0,134c0,132.2,0,268.9-0.1,403.3l0,5L2154.8,567.6z"/>
				<path class="st1" d="M2154.9,25.3c0,179.1,0.1,358.2-0.1,537.4c-9.4,0-18.8,0-28.3,0c-18.9,0-37.8,0-56.7,0
					c0.1-179.2,0.1-358.3,0.1-537.4C2098.3,25.3,2126.6,25.3,2154.9,25.3 M2164.9,15.3h-9.9H2070h-9.9v9.9
					c0,176.1,0,358.1-0.1,537.4l0,10h10c9.5,0,18.9,0,28.4,0c9.4,0,18.9,0,28.3,0c10.6,0,19.8,0,28.2,0l10,0l0-10
					c0.1-134.3,0.1-270.9,0.1-403c0-44.8,0-89.6,0-134.4V15.3L2164.9,15.3z"/>
			</g>
		</g>
		<g>
			<g>
				<g>
					<path class="st2" d="M2475.3,212.3c-31.6,0-57.3-25.7-57.3-57.3s25.7-57.3,57.3-57.3s57.3,25.7,57.3,57.3
						S2506.8,212.3,2475.3,212.3z M2475.3,142.3c-7,0-12.7,5.7-12.7,12.7c0,7,5.7,12.7,12.7,12.7c7,0,12.7-5.7,12.7-12.7
						C2488,148,2482.3,142.3,2475.3,142.3z"/>
					<path class="st1" d="M2475.3,102.7c28.9,0,52.3,23.4,52.3,52.3c0,28.9-23.5,52.3-52.3,52.3c-28.9,0-52.3-23.4-52.3-52.3
						C2422.9,126.1,2446.4,102.7,2475.3,102.7 M2475.3,172.8c9.7,0,17.7-8,17.7-17.7c0-9.7-8-17.7-17.7-17.7
						c-9.8,0-17.7,8-17.7,17.7C2457.6,164.8,2465.5,172.8,2475.3,172.8 M2475.3,92.8c-34.3,0-62.3,27.9-62.3,62.3
						c0,16.7,6.5,32.3,18.2,44c11.7,11.7,27.4,18.2,44,18.2c34.3,0,62.3-27.9,62.3-62.3c0-16.7-6.5-32.3-18.2-44
						S2491.9,92.8,2475.3,92.8L2475.3,92.8z M2475.3,162.8c-4.3,0-7.8-3.5-7.8-7.8c0-4.3,3.5-7.8,7.8-7.8s7.8,3.5,7.8,7.8
						C2483,159.3,2479.5,162.8,2475.3,162.8L2475.3,162.8z"/>
				</g>
				<g>
					<path class="st2" d="M2475.2,581.7c-116.2,0-210.6-94.5-210.6-210.6c0-59.7,25.3-116.4,69.5-156.2
						c-7.5-18.2-11.2-37.5-11.2-57.4c0-84.1,68.4-152.5,152.5-152.5c84,0,152.4,68.4,152.4,152.5c0,19.9-3.8,39.2-11.2,57.4
						c44.3,39.7,69.5,96.4,69.4,156.2C2685.8,487.2,2591.3,581.7,2475.2,581.7z M2475.3,49.3c-59.5,0-107.9,48.4-107.9,107.9
						c0,23.7,7.6,46.2,22.1,65.2l3.3,4.4l-4.6,2.9c-49.5,30.7-79,83.5-79,141.3c0,91.6,74.6,166.2,166.2,166.2
						c44.4,0,86.1-17.3,117.5-48.7c31.4-31.4,48.7-73.1,48.7-117.5c0-28.8-7.5-57.2-21.7-82.1c-13.8-24.1-33.6-44.6-57.3-59.2
						l-4.7-2.9l3.3-4.4c14.4-19,22.1-41.6,22.1-65.2C2583.2,97.7,2534.8,49.3,2475.3,49.3z"/>
					<path class="st1" d="M2475.3,9.9c81.3,0,147.4,66.1,147.4,147.5c0,20.5-4.2,40.4-12.2,58.8c44.7,38.7,70.5,94.6,70.4,154.9
						c0,113.4-92.3,205.7-205.7,205.7s-205.7-92.3-205.7-205.7c0-60.3,25.9-116.1,70.5-154.9c-8.1-18.4-12.2-38.3-12.2-58.8
						C2327.8,76.1,2394,9.9,2475.3,9.9 M2475.3,542.1c94.5,0,171.1-76.6,171.2-171.2c0-61.6-32.6-115.4-81.4-145.5
						c14.4-19,23.1-42.6,23.1-68.2c0-62.4-50.5-112.9-112.9-112.9s-112.9,50.5-112.9,112.9c0,25.7,8.7,49.2,23.1,68.2
						c-48.7,30.2-81.4,83.9-81.4,145.5C2304.1,465.6,2380.8,542.1,2475.3,542.1 M2475.3,0c-86.8,0-157.4,70.6-157.4,157.4
						c0,19.4,3.5,38.2,10.3,56.1c-20.9,19.3-37.4,42.2-49.2,67.9c-12.9,28.2-19.4,58.3-19.4,89.6c0,118.9,96.7,215.6,215.6,215.6
						s215.6-96.7,215.6-215.6c0.1-31.3-6.4-61.5-19.3-89.7c-11.8-25.8-28.3-48.6-49.2-67.9c6.8-17.8,10.3-36.7,10.3-56.1
						C2632.6,70.6,2562,0,2475.3,0L2475.3,0z M2475.3,532.2c-43.1,0-83.5-16.8-114-47.2c-30.5-30.4-47.2-70.9-47.2-114
						c0-27.9,7.3-55.4,21.1-79.6c13.4-23.3,32.6-43.2,55.6-57.5l9.3-5.8l-6.6-8.7c-13.8-18.1-21-39.7-21-62.2
						c0-27.5,10.7-53.4,30.1-72.8c19.4-19.4,45.3-30.1,72.8-30.1c27.5,0,53.4,10.7,72.8,30.1c19.4,19.4,30.1,45.3,30.1,72.8
						c0,22.6-7.3,44.1-21,62.2l-6.6,8.7l9.3,5.8c23,14.2,42.2,34.1,55.5,57.4c13.8,24.1,21.1,51.7,21.1,79.6
						c0,43.1-16.8,83.6-47.3,114C2558.8,515.4,2518.3,532.2,2475.3,532.2L2475.3,532.2z"/>
				</g>
				<g>
					<path class="st2" d="M2475.3,481.2c-59.1,0-107.2-48.1-107.2-107.2c0-59.1,48.1-107.2,107.2-107.2
						c59.1,0,107.2,48.1,107.2,107.2C2582.5,433.1,2534.4,481.2,2475.3,481.2z M2475.3,311.2c-34.5,0-62.7,28.1-62.7,62.7
						s28.1,62.7,62.7,62.7s62.7-28.1,62.7-62.7S2509.8,311.2,2475.3,311.2z"/>
					<path class="st1" d="M2475.3,271.7c56.4,0,102.2,45.7,102.2,102.2c0,56.5-45.7,102.2-102.2,102.2
						c-56.5,0-102.2-45.7-102.2-102.2C2373,317.5,2418.8,271.7,2475.3,271.7 M2475.3,441.5c37.3,0,67.6-30.3,67.6-67.6
						s-30.3-67.6-67.6-67.6c-37.3,0-67.6,30.3-67.6,67.6S2438,441.5,2475.3,441.5 M2475.3,261.8c-30,0-58.2,11.7-79.3,32.8
						c-21.2,21.2-32.8,49.4-32.8,79.3c0,30,11.7,58.2,32.8,79.3s49.4,32.8,79.3,32.8c30,0,58.2-11.7,79.3-32.8
						c21.2-21.2,32.8-49.4,32.8-79.3C2587.4,312.1,2537.1,261.8,2475.3,261.8L2475.3,261.8z M2475.3,431.5
						c-31.8,0-57.7-25.9-57.7-57.7s25.9-57.7,57.7-57.7c31.8,0,57.7,25.9,57.7,57.7S2507.1,431.5,2475.3,431.5L2475.3,431.5z"/>
				</g>
			</g>
			<g>
				<g>
					<path class="st2" d="M2968.7,581.8c-159,0-288.4-129.4-288.4-288.4S2809.6,5,2968.7,5c76.9,0,149.3,30,203.8,84.6
						c54.5,54.5,84.6,126.9,84.5,203.9C3257,452.4,3127.6,581.8,2968.7,581.8z M2968.7,49.5c-134.5,0-243.9,109.4-243.9,243.9
						s109.4,243.9,243.9,243.9c134.5,0,243.9-109.4,243.9-243.9S3103.1,49.5,2968.7,49.5z"/>
					<path class="st1" d="M2968.7,9.9c156.2,0,283.4,127.1,283.3,283.4c0,156.3-127.1,283.4-283.3,283.4
						c-156.3,0-283.4-127.2-283.4-283.4C2685.2,137.1,2812.4,9.9,2968.7,9.9 M2968.7,542.2c137.2,0,248.8-111.7,248.8-248.8
						c0-137.2-111.7-248.8-248.8-248.8s-248.8,111.6-248.8,248.8C2719.8,430.5,2831.4,542.2,2968.7,542.2 M2968.7,0
						c-161.8,0-293.4,131.6-293.4,293.4s131.6,293.4,293.4,293.4c161.7,0,293.3-131.6,293.3-293.4c0-39.5-7.7-77.9-23-114.1
						c-14.8-34.9-36-66.3-62.9-93.3c-27-27-58.3-48.1-93.3-62.9C3046.6,7.8,3008.2,0,2968.7,0L2968.7,0z M2968.7,532.3
						c-131.7,0-238.9-107.2-238.9-238.9s107.2-238.9,238.9-238.9c131.7,0,238.9,107.2,238.9,238.9S3100.4,532.3,2968.7,532.3
						L2968.7,532.3z"/>
				</g>
				<g>
					<path class="st2" d="M2968.7,481.4c-103.6,0-188-84.3-188-188s84.3-188,188-188c103.6,0,188,84.3,188,188
						S3072.3,481.4,2968.7,481.4z M2968.7,150c-79.1,0-143.5,64.3-143.5,143.4s64.4,143.4,143.5,143.4
						c79.1,0,143.4-64.3,143.4-143.4S3047.7,150,2968.7,150z"/>
					<path class="st1" d="M2968.7,110.4c100.8,0,183,82.1,183,183s-82.2,183-183,183c-100.9,0-183-82.2-183-183
						C2785.7,192.4,2867.8,110.4,2968.7,110.4 M2968.7,441.8c81.9,0,148.4-66.5,148.4-148.4c0-81.8-66.5-148.4-148.4-148.4
						s-148.5,66.5-148.5,148.4C2820.2,375.1,2886.8,441.8,2968.7,441.8 M2968.7,100.5c-106.4,0-192.9,86.6-192.9,192.9
						s86.6,192.9,192.9,192.9c106.4,0,192.9-86.6,192.9-192.9S3075.1,100.5,2968.7,100.5L2968.7,100.5z M2968.7,431.8
						c-76.4,0-138.5-62.1-138.5-138.4c0-76.3,62.1-138.4,138.5-138.4c76.3,0,138.4,62.1,138.4,138.4c0,36.9-14.4,71.7-40.6,97.9
						C3040.3,417.4,3005.6,431.8,2968.7,431.8L2968.7,431.8z"/>
				</g>
			</g>
			<g>
				<g>
					<path class="st2" d="M3545.7,581.8c-159,0-288.4-129.4-288.4-288.4S3386.7,5,3545.7,5c159,0,288.3,129.4,288.3,288.4
						S3704.7,581.8,3545.7,581.8z M3545.7,49.5c-134.5,0-243.9,109.4-243.9,243.9s109.4,243.9,243.9,243.9
						c134.5,0,243.9-109.4,243.9-243.9S3680.2,49.5,3545.7,49.5z"/>
					<path class="st1" d="M3545.7,9.9c156.2,0,283.3,127.1,283.3,283.4s-127.1,283.4-283.3,283.4c-156.3,0-283.4-127.2-283.4-283.4
						C3262.3,137.1,3389.5,9.9,3545.7,9.9 M3545.7,542.2c137.1,0,248.8-111.7,248.8-248.8c0-137.2-111.7-248.8-248.8-248.8
						c-137.1,0-248.8,111.6-248.8,248.8C3296.9,430.5,3408.5,542.2,3545.7,542.2 M3545.7,0c-161.8,0-293.4,131.6-293.4,293.4
						s131.6,293.4,293.4,293.4c161.7,0,293.3-131.6,293.3-293.4S3707.4,0,3545.7,0L3545.7,0z M3545.7,532.3
						c-131.7,0-238.9-107.2-238.9-238.9S3414,54.5,3545.7,54.5c131.7,0,238.9,107.2,238.9,238.9S3677.4,532.3,3545.7,532.3
						L3545.7,532.3z"/>
				</g>
				<g>
					<path class="st2" d="M3545.7,481.4c-103.6,0-188-84.3-188-188s84.3-188,188-188c103.5,0,187.9,84.3,188,188
						C3733.7,397,3649.4,481.4,3545.7,481.4z M3545.7,150c-79.1,0-143.5,64.3-143.5,143.4s64.4,143.4,143.5,143.4
						c79.1,0,143.4-64.3,143.4-143.4S3624.8,150,3545.7,150z"/>
					<path class="st1" d="M3545.7,110.4c100.8,0,182.9,82.1,183,183c0,100.9-82.2,183-183,183c-100.9,0-183-82.2-183-183
						C3362.7,192.4,3444.9,110.4,3545.7,110.4 M3545.7,441.8c81.8,0,148.4-66.5,148.4-148.4c0-81.8-66.5-148.4-148.4-148.4
						s-148.5,66.5-148.5,148.4C3397.2,375.1,3463.9,441.8,3545.7,441.8 M3545.7,100.5c-106.4,0-192.9,86.6-192.9,192.9
						s86.6,192.9,192.9,192.9c106.4,0,192.9-86.6,192.9-192.9C3738.5,187,3652,100.5,3545.7,100.5L3545.7,100.5z M3545.7,431.8
						c-76.4,0-138.5-62.1-138.5-138.4c0-76.3,62.1-138.4,138.5-138.4c76.3,0,138.4,62.1,138.4,138.4
						C3684.1,369.7,3622,431.8,3545.7,431.8L3545.7,431.8z"/>
				</g>
			</g>
		</g>
	</g>
</g>
</svg>
