<?xml version="1.0" encoding="utf-8"?>
<!-- Generator: Adobe Illustrator 25.4.1, SVG Export Plug-In . SVG Version: 6.00 Build 0)  -->
<svg version="1.1" id="Layer_1" xmlns="http://www.w3.org/2000/svg" xmlns:xlink="http://www.w3.org/1999/xlink" x="0px" y="0px"
	 viewBox="0 0 3839 303.1" style="enable-background:new 0 0 3839 303.1;" xml:space="preserve">
<style type="text/css">
	.st0{fill-rule:evenodd;clip-rule:evenodd;fill:#21ADCA;}
	.st1{fill:#FFFFFF;}
	.st2{fill-rule:evenodd;clip-rule:evenodd;fill:#2EB897;}
	.st3{fill-rule:evenodd;clip-rule:evenodd;fill:#3BC264;}
	.st4{fill-rule:evenodd;clip-rule:evenodd;fill:#002684;}
	.st5{fill-rule:evenodd;clip-rule:evenodd;fill:#12506F;}
	.st6{fill-rule:evenodd;clip-rule:evenodd;fill:#24795B;}
	.st7{fill-rule:evenodd;clip-rule:evenodd;fill:#36A346;}
	.st8{fill-rule:evenodd;clip-rule:evenodd;fill:#48CC31;}
	.st9{fill-rule:evenodd;clip-rule:evenodd;fill:#6AD434;}
	.st10{fill-rule:evenodd;clip-rule:evenodd;fill:#8BDC37;}
	.st11{fill-rule:evenodd;clip-rule:evenodd;fill:#AEE53A;}
	.st12{fill-rule:evenodd;clip-rule:evenodd;fill:#D0ED3D;}
	.st13{fill-rule:evenodd;clip-rule:evenodd;fill:#F2F540;}
	.st14{fill-rule:evenodd;clip-rule:evenodd;fill:#F5D630;}
	.st15{fill-rule:evenodd;clip-rule:evenodd;fill:#F8B621;}
	.st16{fill-rule:evenodd;clip-rule:evenodd;fill:#FA9711;}
	.st17{fill-rule:evenodd;clip-rule:evenodd;fill:#FD7801;}
	.st18{fill-rule:evenodd;clip-rule:evenodd;fill:#F9500E;}
	.st19{fill-rule:evenodd;clip-rule:evenodd;fill:#F6281C;}
	.st20{fill-rule:evenodd;clip-rule:evenodd;fill:#F20029;}
	.st21{fill:#002684;}
	.st22{fill:#F20029;}
</style>
<g>
	<g>
		<g>
			<g>
				<rect x="2019.3" y="47.5" class="st0" width="34.4" height="208.3"/>
				<path class="st1" d="M2048.7,52.5v198.3h-24.5V52.5H2048.7 M2058.6,42.6h-9.9h-24.5h-9.9v9.9v198.3v9.9h9.9h24.5h9.9v-9.9V52.5
					V42.6L2058.6,42.6z"/>
			</g>
		</g>
		<g>
			<g>
				<rect x="2073.6" y="47.5" class="st2" width="34.4" height="208.3"/>
				<path class="st1" d="M2103,52.5v198.3h-24.5V52.5H2103 M2112.9,42.6h-9.9h-24.5h-9.9v9.9v198.3v9.9h9.9h24.5h9.9v-9.9V52.5V42.6
					L2112.9,42.6z"/>
			</g>
		</g>
		<g>
			<g>
				<rect x="2127.9" y="47.5" class="st3" width="34.4" height="208.3"/>
				<path class="st1" d="M2157.3,52.5v198.3h-24.5V52.5H2157.3 M2167.2,42.6h-9.9h-24.5h-9.9v9.9v198.3v9.9h9.9h24.5h9.9v-9.9V52.5
					V42.6L2167.2,42.6z"/>
			</g>
		</g>
	</g>
	<g>
		<g>
			<g>
				<g>
					<rect x="1964.9" y="47.5" class="st4" width="34.5" height="208.3"/>
					<path class="st1" d="M1994.4,52.5v198.3h-24.6V52.5H1994.4 M2004.3,42.6h-9.9h-24.6h-9.9v9.9v198.3v9.9h9.9h24.6h9.9v-9.9V52.5
						V42.6L2004.3,42.6z"/>
				</g>
				<g>
					<rect x="2019.3" y="47.5" class="st5" width="34.4" height="208.3"/>
					<path class="st1" d="M2048.7,52.5v198.3h-24.5V52.5H2048.7 M2058.6,42.6h-9.9h-24.5h-9.9v9.9v198.3v9.9h9.9h24.5h9.9v-9.9V52.5
						V42.6L2058.6,42.6z"/>
				</g>
				<g>
					<rect x="2073.6" y="47.5" class="st6" width="34.4" height="208.3"/>
					<path class="st1" d="M2103,52.5v198.3h-24.5V52.5H2103 M2112.9,42.6h-9.9h-24.5h-9.9v9.9v198.3v9.9h9.9h24.5h9.9v-9.9V52.5
						V42.6L2112.9,42.6z"/>
				</g>
				<g>
					<rect x="2127.9" y="47.5" class="st7" width="34.4" height="208.3"/>
					<path class="st1" d="M2157.3,52.5v198.3h-24.5V52.5H2157.3 M2167.2,42.6h-9.9h-24.5h-9.9v9.9v198.3v9.9h9.9h24.5h9.9v-9.9V52.5
						V42.6L2167.2,42.6z"/>
				</g>
				<g>
					<rect x="2182.2" y="47.5" class="st8" width="34.5" height="208.3"/>
					<path class="st1" d="M2211.7,52.5v198.3h-24.6V52.5H2211.7 M2221.6,42.6h-9.9h-24.6h-9.9v9.9v198.3v9.9h9.9h24.6h9.9v-9.9V52.5
						V42.6L2221.6,42.6z"/>
				</g>
			</g>
		</g>
		<g>
			<g>
				<rect x="2236.5" y="47.5" class="st9" width="34.5" height="208.3"/>
				<path class="st1" d="M2266,52.5v198.3h-24.6V52.5H2266 M2276,42.6h-9.9h-24.6h-9.9v9.9v198.3v9.9h9.9h24.6h9.9v-9.9V52.5V42.6
					L2276,42.6z"/>
			</g>
		</g>
		<g>
			<g>
				<rect x="2290.9" y="47.5" class="st10" width="34.4" height="208.3"/>
				<path class="st1" d="M2320.3,52.5v198.3h-24.5V52.5H2320.3 M2330.3,42.6h-9.9h-24.5h-9.9v9.9v198.3v9.9h9.9h24.5h9.9v-9.9V52.5
					V42.6L2330.3,42.6z"/>
			</g>
		</g>
		<g>
			<g>
				<rect x="2345.2" y="47.5" class="st11" width="34.4" height="208.3"/>
				<path class="st1" d="M2374.6,52.5v198.3h-24.5V52.5H2374.6 M2384.6,42.6h-9.9h-24.5h-9.9v9.9v198.3v9.9h9.9h24.5h9.9v-9.9V52.5
					V42.6L2384.6,42.6z"/>
			</g>
		</g>
		<g>
			<g>
				<rect x="2399.5" y="47.5" class="st12" width="34.4" height="208.3"/>
				<path class="st1" d="M2428.9,52.5v198.3h-24.5V52.5H2428.9 M2438.9,42.6h-9.9h-24.5h-9.9v9.9v198.3v9.9h9.9h24.5h9.9v-9.9V52.5
					V42.6L2438.9,42.6z"/>
			</g>
		</g>
	</g>
	<g>
		<g>
			<g>
				<rect x="2453.8" y="47.5" class="st13" width="34.5" height="208.3"/>
				<path class="st1" d="M2483.3,52.5v198.3h-24.6V52.5H2483.3 M2493.3,42.6h-9.9h-24.6h-9.9v9.9v198.3v9.9h9.9h24.6h9.9v-9.9V52.5
					V42.6L2493.3,42.6z"/>
			</g>
		</g>
		<g>
			<g>
				<rect x="2508.1" y="47.5" class="st14" width="34.5" height="208.3"/>
				<path class="st1" d="M2537.6,52.5v198.3H2513V52.5H2537.6 M2547.6,42.6h-9.9h-24.6h-9.9v9.9v198.3v9.9h9.9h24.6h9.9v-9.9V52.5
					V42.6L2547.6,42.6z"/>
			</g>
		</g>
		<g>
			<g>
				<rect x="2562.5" y="47.5" class="st15" width="34.4" height="208.3"/>
				<path class="st1" d="M2591.9,52.5v198.3h-24.5V52.5H2591.9 M2601.9,42.6h-9.9h-24.5h-9.9v9.9v198.3v9.9h9.9h24.5h9.9v-9.9V52.5
					V42.6L2601.9,42.6z"/>
			</g>
		</g>
		<g>
			<g>
				<rect x="2616.8" y="47.5" class="st16" width="34.4" height="208.3"/>
				<path class="st1" d="M2646.2,52.5v198.3h-24.5V52.5H2646.2 M2656.2,42.6h-9.9h-24.5h-9.9v9.9v198.3v9.9h9.9h24.5h9.9v-9.9V52.5
					V42.6L2656.2,42.6z"/>
			</g>
		</g>
	</g>
	<g>
		<g>
			<rect x="2671.1" y="47.5" class="st17" width="34.5" height="208.3"/>
			<path class="st1" d="M2700.6,52.5v198.3H2676V52.5H2700.6 M2710.6,42.6h-9.9h-24.6h-9.9v9.9v198.3v9.9h9.9h24.6h9.9v-9.9V52.5
				V42.6L2710.6,42.6z"/>
		</g>
		<g>
			<rect x="2725.4" y="47.5" class="st18" width="34.5" height="208.3"/>
			<path class="st1" d="M2754.9,52.5v198.3h-24.6V52.5H2754.9 M2764.9,42.6h-9.9h-24.6h-9.9v9.9v198.3v9.9h9.9h24.6h9.9v-9.9V52.5
				V42.6L2764.9,42.6z"/>
		</g>
		<g>
			<rect x="2779.8" y="47.5" class="st19" width="34.4" height="208.3"/>
			<path class="st1" d="M2809.2,52.5v198.3h-24.5V52.5H2809.2 M2819.2,42.6h-9.9h-24.5h-9.9v9.9v198.3v9.9h9.9h24.5h9.9v-9.9V52.5
				V42.6L2819.2,42.6z"/>
		</g>
		<g>
			<rect x="2834.1" y="47.5" class="st20" width="34.4" height="208.3"/>
			<path class="st1" d="M2863.5,52.5v198.3H2839V52.5H2863.5 M2873.5,42.6h-9.9h-24.5h-9.9v9.9v198.3v9.9h9.9h24.5h9.9v-9.9V52.5
				V42.6L2873.5,42.6z"/>
		</g>
	</g>
	<g>
		<g>
			<g>
				<path class="st21" d="M410,214.2c-14.7,0-39.3,0-54.7-11.1c-15.7-11.4-15.6-33.5-15.6-49.7v-2.8c0-16,0-35.9,14.1-48.3
					C366.3,91.5,387.9,90,409.3,90c1.3,0,6.1,0,7.2,0h5.8c22.4,0,44.9,1.5,57.7,12.2c4.5,3.8,7.4,7.7,9.7,13.1
					c3.8,9,4,17.4,4.2,26.4l0.1,5.1h-49.5l-0.5-4.4c-1.1-10-9.5-11.9-25.8-11.9h-1.8c-15.9,0-21.7,2.1-23.7,3.8
					c-3.7,3.1-3.7,14.8-3.7,19.2c0,4.3,0,12.2,3.4,15.6c1.1,1,6,4.5,24.5,4.5c4.7,0,9.2,0,13.7-0.6c9.1-1.3,11.9-3.6,12.9-10.9
					l0.6-4.3h49.6l-0.2,5.1c-0.4,11.3-0.8,25.4-11.1,36.3c-10.4,11.2-25.6,13.4-39.1,14.2c-9.1,0.5-18.5,0.7-28.7,0.7L410,214.2z"/>
				<path class="st1" d="M409.4,95.1c2.5,0,5,0,7.2,0c1.8,0,3.7,0,5.8,0c17.2,0,42,0.6,54.5,11c3.8,3.2,6.3,6.5,8.3,11.2
					c3.4,8.1,3.6,15.8,3.8,24.6h-40c-1.7-15.9-18.2-16.3-30.8-16.3c-0.6,0-1.2,0-1.8,0c-6.9,0-21.4,0.2-27,5.1
					c-5.4,4.6-5.4,16.5-5.4,23c0,6.2,0.2,14.4,4.9,19.1c5.6,5.5,20.9,6,28,6c4.9,0,9.5,0,14.4-0.7c9.7-1.4,15.6-4.4,17.1-15.1h40.1
					c-0.4,12.1-1.1,23.9-9.7,33c-9.1,9.8-23.2,11.9-35.8,12.6c-9.5,0.5-18.9,0.7-28.4,0.7c-1.5,0-3,0-4.5,0
					c-16.7,0-38.3-0.4-51.8-10.1c-14.2-10.3-13.5-31.9-13.5-47.7c0-15.6-0.2-34.2,12.4-45.3C369.2,95.7,392.4,95.1,409.4,95.1
					 M409.4,85.1c-22.4,0-45,1.6-58.7,13.5l0,0l0,0c-15.8,13.8-15.8,35.9-15.8,52v0.7v2.1c0,17.2-0.1,40.8,17.6,53.7
					c15.4,11.1,37.8,12.1,57.6,12.1h2.4h2.2c10.3,0,19.8-0.2,29-0.7c6-0.3,13.8-1,21.5-3.3c8.6-2.5,15.7-6.7,21-12.5
					c11.5-12.2,12.1-28,12.4-39.5l0.3-10.3h-10.3h-40.1h-8.7l-1.2,8.6c-0.3,2.4-0.9,4-1.8,4.6c-1.1,0.8-3.4,1.5-6.9,2
					c-4.2,0.6-8.5,0.6-13,0.6c-14.1,0-20-2.2-21.1-3.1c-1.9-2.1-1.9-9.5-1.9-12c0-2.7,0-6.5,0.4-9.9c0.5-4,1.4-5.3,1.5-5.6l0,0
					c0.5-0.4,4.3-2.6,20.4-2.6h0.9h0.9c17.2,0,20.3,2.3,20.9,7.4l1,8.9h8.9h40H499l-0.2-10.2c-0.2-9-0.4-18.3-4.6-28.2
					c-2.5-6.1-5.9-10.7-11-15C469.1,86.6,445.6,85,422.3,85c-1.1,0-2.1,0-3.1,0c-0.9,0-1.8,0-2.7,0c-1.1,0-2.2,0-3.3,0
					C412,85.1,410.7,85.1,409.4,85.1L409.4,85.1z"/>
			</g>
			<g>
				<path class="st21" d="M563.6,214.2c-19.5,0-41.2-1.4-53.4-12c-4.4-3.9-7.4-8.1-9.8-13.8c-4.3-10.9-4.3-23.7-4.2-35.1
					c0-1.4,0-2.9,0-4.2c0-6.1,0-12.4,0.7-18.6c1.1-12.7,6.1-22.5,14.8-29.4c12.2-9.6,36.1-10.9,57.9-10.9h6.1h6.2
					c21.7,0,45.5,1.3,57.8,10.9c4.4,3.5,7.3,7.1,9.8,12c5.8,10.6,5.7,23.4,5.7,34.7c0,1.1,0,2.3,0,3.4c-0.1,5.3-0.2,13-0.8,20.6
					c-0.8,9.4-3,21.4-13.2,30.4c-11.8,10.6-34.4,12-54.9,12c-2.1,0-4.1,0-6,0c-1.7,0-3.2,0-4.7,0c-1.7,0-3.5,0-5.4,0
					C568.2,214.2,566,214.2,563.6,214.2z M576,130.6c-6.7,0-13.8,0.2-20.4,1.5c-9.2,1.8-10,7.3-10,21.3v0.8c0,4.9,0,11.5,2.7,14.5
					c4.5,5,21.9,5,27.7,5c7.3,0,14.9,0,21.5-1.9c7.6-2.2,8.4-8,8.4-20.8v-0.5c0.1-6.2-0.2-12.2-3.3-15.3
					C600.8,133.4,595.1,130.6,576,130.6z"/>
				<path class="st1" d="M582,95.2c16.9,0,42.8,0.5,54.8,9.9c3.8,3,6.3,6,8.5,10.3c5.8,10.5,5.1,24.1,5.1,35.8
					c-0.1,6.6-0.3,13.5-0.8,20.2c-0.9,10.5-3.6,20-11.5,27.1c-11,9.9-34.3,10.8-51.6,10.8c-4,0-7.6,0-10.7,0
					c-3.6,0-7.7,0.1-12.1,0.1c-17.2,0-38.8-1-50.1-10.8c-4-3.5-6.5-7.2-8.5-11.9c-4.5-11.2-3.8-25.5-3.8-37.4c0-6,0-12.1,0.7-18.1
					c0.9-10.3,4.7-19.5,12.9-26c11.8-9.3,38-9.9,54.8-9.9c2.2,0,4.3,0,6.1,0C577.7,95.2,579.8,95.2,582,95.2 M575.9,178.6
					c7.6,0,15.6,0,22.9-2.1c12.2-3.5,12-14.9,12-26.2c0.1-6.2-0.1-14.1-4.8-18.8c-5.8-5.8-22.7-6-30-6c-7.2,0-14.4,0.2-21.4,1.6
					c-13.8,2.8-14,13.7-14,26.2c0,6-0.2,14,4,18.6C550.5,178.6,567.9,178.6,575.9,178.6 M582,85.2v9.9V85.2L582,85.2
					c-1.2,0-2.3,0-3.4,0c-1,0-1.9,0-2.8,0c-0.9,0-1.8,0-2.8,0c-1.1,0-2.2,0-3.4,0c-23.8,0-47.7,1.5-61,12
					c-9.8,7.7-15.4,18.7-16.7,32.8c-0.7,6.5-0.7,12.9-0.7,19.1c0,1.4,0,2.8,0,4.2c-0.1,11.8-0.2,25.1,4.5,36.9v0.1v0.1
					c2.7,6.4,6.1,11.2,11.1,15.6c13.5,11.7,36.2,13.3,56.7,13.3c2.4,0,4.6,0,6.8,0c1.9,0,3.7,0,5.3,0c1.4,0,3,0,4.6,0
					c1.9,0,3.9,0,6.1,0c21.4,0,45.1-1.6,58.2-13.3c11.6-10.3,14-24.1,14.8-33.6v-0.1v-0.1c0.6-7.6,0.7-15.5,0.8-20.8v-0.1v-0.1
					c0-1.1,0-2.2,0-3.4c0.1-11.9,0.1-25.3-6.2-37c-2.8-5.6-6.1-9.6-11.1-13.5l0,0l0,0C629.5,86.7,605.7,85.2,582,85.2L582,85.2z
					 M575.9,168.7c-3.7,0-9.4,0-14.7-0.7c-7.4-1-9.2-2.7-9.2-2.7l0,0l0,0c-1.4-1.5-1.4-8.2-1.4-11.1v-0.8c0-14.6,1.3-15.4,6-16.4
					c5.8-1.2,12-1.4,19.4-1.4c18.5,0,22.5,2.7,23,3.1c2,2.1,1.9,9.2,1.8,11.6v0.1v0.1v0.5c0,13-1,15-4.8,16.1
					C590.1,168.7,582.8,168.7,575.9,168.7L575.9,168.7z"/>
			</g>
			<g>
				<path class="st21" d="M851.3,211.4v-55.7c0-10.6-0.5-17.3-3.2-20.7c-2.4-3.1-8-4.4-18.5-4.4c-21.9,0-24.2,5.9-24.2,31v49.7
					h-49.3V148c0-15.4-4.2-17.5-21.1-17.5c-23.9,0-24.9,6.4-24.9,31v49.7h-49.3V92.9H708v8.4c10.8-9.8,27.1-11.2,39.6-11.2
					c16.8,0,35.1,2.3,47.4,17.8c10.3-15.5,28.1-17.8,46.1-17.8c15.4,0,34.7,1.8,47.3,15.6c4.8,5.4,7.7,10.3,9.4,16
					c3.1,10.6,3.1,21.5,3.1,32.1v57.5L851.3,211.4L851.3,211.4z"/>
				<path class="st1" d="M841.1,95.1c15.3,0,32.5,1.8,43.7,14c3.8,4.2,6.7,8.5,8.3,14c3.1,10.5,2.9,21.8,2.9,32.6v50.7h-39.6v-50.7
					c0-23.4-2.5-30-26.7-30c-27.2,0-29.1,11-29.1,36v44.8h-39.4v-50.7v-7.6c0-19.7-8.3-22.5-26.1-22.5c-28,0-29.8,10.3-29.8,36v44.8
					h-39.4V97.9h37.2v16.3h1.8c7.4-16.7,27-19.1,42.8-19.1c20,0,37.6,3.5,47.8,22.7C803.5,97.6,822.1,95.1,841.1,95.1 M841.1,85.1
					c-9.5,0-20.5,0.5-30.6,4.5c-6.3,2.5-11.5,6-15.8,10.7c-4.5-4.4-9.8-7.9-15.9-10.3c-8.4-3.4-18-4.9-31.3-4.9
					c-6.5,0-21.7,0-34.6,6.8v-4H703h-37.2h-9.9v9.9v108.6v9.9h9.9h39.4h9.9v-9.9v-44.8c0-9.2,0.2-18.4,2.7-22c0.7-1,2.8-4,17.2-4
					c3.1,0,11.2,0,13.8,1.9c1.5,1.1,2.3,4.9,2.3,10.6v7.6v50.7v9.9h9.9h39.4h9.9v-9.9v-44.8c0-9,0.2-18.1,2.7-21.9
					c0.7-1,2.8-4.2,16.5-4.2c11,0,13.9,1.6,14.6,2.5c2.1,2.7,2.1,13.1,2.1,17.6v50.7v9.9h9.9h39.6h9.9v-9.9v-50.7v-1.8
					c0-10.9,0-22.2-3.3-33.5c-1.9-6.5-5.1-12-10.4-17.9C878.2,87.1,857.5,85.1,841.1,85.1L841.1,85.1z"/>
			</g>
			<g>
				<path class="st21" d="M1098.1,211.4v-55.7c0-10.6-0.5-17.3-3.2-20.7c-2.4-3.1-8-4.4-18.5-4.4c-21.9,0-24.2,5.9-24.2,31v49.7
					h-49.3V148c0-15.4-4.2-17.5-21.1-17.5c-23.9,0-24.9,6.4-24.9,31v49.7h-49.3V92.9h47.1v8.4c10.8-9.8,27.1-11.2,39.6-11.2
					c16.8,0,35.1,2.3,47.4,17.8c10.3-15.5,28.1-17.8,46.1-17.8c15.4,0,34.7,1.8,47.3,15.6c4.8,5.4,7.7,10.3,9.4,16
					c3.1,10.6,3.1,21.5,3.1,32.1v57.5L1098.1,211.4L1098.1,211.4z"/>
				<path class="st1" d="M1087.9,95.1c15.3,0,32.5,1.8,43.7,14c3.8,4.2,6.7,8.5,8.3,14c3.1,10.5,2.9,21.8,2.9,32.6v50.7h-39.6v-50.7
					c0-23.4-2.5-30-26.7-30c-27.2,0-29.1,11-29.1,36v44.8H1008v-50.7v-7.6c0-19.7-8.3-22.5-26.1-22.5c-28,0-29.8,10.3-29.8,36v44.8
					h-39.4V97.9h37.2v16.3h1.8c7.4-16.7,27-19.1,42.8-19.1c20,0,37.6,3.5,47.8,22.7C1050.3,97.6,1068.9,95.1,1087.9,95.1
					 M1087.9,85.1c-9.5,0-20.5,0.5-30.6,4.5c-6.3,2.5-11.5,6-15.8,10.7c-4.5-4.4-9.8-7.9-15.9-10.3c-8.4-3.4-18-4.9-31.3-4.9
					c-6.5,0-21.7,0-34.6,6.8v-4h-9.9h-37.2h-9.9v9.9v108.6v9.9h9.9H952h9.9v-9.9v-44.8c0-9.2,0.2-18.4,2.7-22c0.7-1,2.8-4,17.2-4
					c3.1,0,11.2,0,13.8,1.9c1.5,1.1,2.3,4.9,2.3,10.6v7.6v50.7v9.9h9.9h39.4h9.9v-9.9v-44.8c0-9,0.2-18.1,2.7-21.9
					c0.7-1,2.8-4.2,16.5-4.2c11,0,13.9,1.6,14.6,2.5c2.1,2.7,2.1,13.1,2.1,17.6v50.7v9.9h9.9h39.6h9.9v-9.9v-50.7v-1.8
					c0-10.9,0-22.2-3.3-33.5c-1.9-6.5-5.1-12-10.4-17.9C1124.9,87.1,1104.3,85.1,1087.9,85.1L1087.9,85.1z"/>
			</g>
			<g>
				<path class="st21" d="M1219.6,214.2c-19.5,0-41.2-1.4-53.4-12c-4.4-3.9-7.4-8.1-9.8-13.8c-4.3-10.9-4.3-23.7-4.2-35.1
					c0-1.4,0-2.8,0-4.2c0-6.1,0-12.4,0.7-18.6c1.1-12.7,6.1-22.5,14.8-29.4c12.2-9.6,36.1-10.9,57.9-10.9h6.1h6.2
					c21.7,0,45.5,1.3,57.8,10.9c4.4,3.5,7.3,7.1,9.8,12c5.8,10.6,5.7,23.4,5.7,34.7c0,1.1,0,2.3,0,3.4c-0.1,5.3-0.2,13-0.8,20.6
					c-0.8,9.4-3,21.4-13.2,30.4c-11.8,10.6-34.4,12-54.9,12c-2.1,0-4.1,0-6,0c-1.7,0-3.2,0-4.7,0c-1.7,0-3.5,0-5.4,0
					C1224.2,214.2,1222,214.2,1219.6,214.2z M1232,130.6c-6.7,0-13.8,0.2-20.4,1.5c-9.2,1.8-10,7.3-10,21.3v0.8
					c0,4.9,0,11.5,2.7,14.5c4.5,5,21.9,5,27.7,5c7.3,0,14.9,0,21.5-1.9c7.6-2.2,8.4-8,8.4-20.8v-0.5c0.1-6.2-0.2-12.2-3.3-15.3
					C1256.8,133.4,1251.1,130.6,1232,130.6z"/>
				<path class="st1" d="M1238,95.2c16.9,0,42.8,0.5,54.8,9.9c3.8,3,6.3,6,8.5,10.3c5.8,10.5,5.1,24.1,5.1,35.8
					c-0.1,6.6-0.3,13.5-0.8,20.2c-0.9,10.5-3.6,20-11.5,27.1c-11,9.9-34.3,10.8-51.6,10.8c-4,0-7.6,0-10.7,0
					c-3.6,0-7.7,0.1-12.1,0.1c-17.2,0-38.8-1-50.1-10.8c-4-3.5-6.5-7.2-8.5-11.9c-4.5-11.2-3.8-25.5-3.8-37.4c0-6,0-12.1,0.7-18.1
					c0.9-10.3,4.7-19.5,12.9-26c11.8-9.3,38-9.9,54.8-9.9c2.2,0,4.3,0,6.1,0C1233.7,95.2,1235.8,95.2,1238,95.2 M1231.9,178.6
					c7.6,0,15.6,0,22.9-2.1c12.2-3.5,12-14.9,12-26.2c0.1-6.2-0.1-14.1-4.8-18.8c-5.8-5.8-22.7-6-30-6c-7.2,0-14.4,0.2-21.4,1.6
					c-13.8,2.8-14,13.7-14,26.2c0,6-0.2,14,4,18.6C1206.5,178.6,1223.9,178.6,1231.9,178.6 M1238,85.2v9.9V85.2L1238,85.2
					c-1.2,0-2.3,0-3.4,0c-1,0-1.9,0-2.8,0s-1.8,0-2.8,0c-1.1,0-2.2,0-3.4,0c-23.8,0-47.7,1.5-61,12c-9.8,7.7-15.4,18.7-16.7,32.8
					c-0.7,6.5-0.7,12.9-0.7,19.1c0,1.4,0,2.8,0,4.2c-0.1,11.8-0.2,25.1,4.5,36.9v0.1v0.1c2.7,6.4,6.1,11.2,11.1,15.6
					c13.5,11.7,36.2,13.3,56.7,13.3c2.4,0,4.6,0,6.8,0c1.9,0,3.7,0,5.3,0c1.4,0,3,0,4.6,0c1.9,0,3.9,0,6.1,0
					c21.4,0,45.1-1.6,58.2-13.3c11.6-10.3,14-24.1,14.8-33.6v-0.1v-0.1c0.6-7.6,0.7-15.5,0.8-20.8v-0.1v-0.1c0-1.1,0-2.2,0-3.4
					c0.1-11.9,0.1-25.3-6.2-37c-2.8-5.6-6.1-9.6-11.1-13.5l0,0l0,0C1285.5,86.7,1261.7,85.2,1238,85.2L1238,85.2z M1231.9,168.7
					c-3.7,0-9.4,0-14.7-0.7c-7.4-1-9.2-2.7-9.2-2.7l0,0l0,0c-1.4-1.5-1.4-8.2-1.4-11.1v-0.8c0-14.6,1.3-15.4,6-16.4
					c5.8-1.2,12-1.4,19.4-1.4c18.5,0,22.5,2.7,23,3.1c2,2.1,1.9,9.2,1.8,11.6v0.1v0.1v0.5c0,13-1,15-4.8,16.1
					C1246.1,168.7,1238.8,168.7,1231.9,168.7L1231.9,168.7z"/>
			</g>
			<g>
				<path class="st21" d="M1380.5,214.2c-15.4,0-38.8,0-52.9-12.7c-13-11.9-13-33.4-13-49.1v-0.7c0-15.9,0-39.9,17.7-52.3
					c12.3-8.5,28.4-9.2,42.5-9.2c1.4,0,2.7,0,4,0s2.5,0,3.8,0h2.1c10.6,0,23.9,0,35,6.7c1.5,0.9,2.7,1.7,3.8,2.6V48.4h49.3v163
					h-47.1v-7.2c-1,0.9-2.2,1.7-3.5,2.6c-10.4,6.6-26.8,7.4-40,7.4H1380.5z M1365.6,137.8c-1.4,3.7-1.6,8.9-1.6,13.5v0.8
					c0,5.5,0,13.8,3.2,17.2c1.8,2,7.8,4.4,26,4.4c10.4,0,18.2-0.9,23.8-2.7c6.3-2.1,7-7.5,7-18.6v-0.5c0-4.1-0.2-10.1-1.9-14.2
					c-2.6-6.3-12.7-7.1-22.2-7.1c-0.8,0-1.6,0-2.3,0c-0.7,0-1.4,0-2,0c-0.8,0-1.7,0-2.6,0c-1,0-2.1,0-3.2,0
					C1380.7,130.6,1368.4,131.3,1365.6,137.8z"/>
				<path class="st1" d="M1467.9,53.4v153.1h-37.2v-14.2h-2c-2.7,4.6-4.7,7.6-9.2,10.3c-9.7,6.2-26.3,6.7-37.4,6.7
					c-0.5,0-1.1,0-1.6,0c-16,0-37.1-0.2-49.6-11.4c-11.5-10.5-11.3-31.4-11.3-46.1c0-17,0.4-37.6,15.6-48.2
					c11.1-7.7,26-8.3,39.6-8.3c2.7,0,5.3,0,7.8,0c0.7,0,1.4,0,2.1,0c11,0,22.8,0.2,32.4,6c5.1,3,6.9,6,9.7,11.2h1.6v-59h39.5
					 M1393.1,178.7c8.1,0,17.8-0.5,25.4-3c10.6-3.5,10.4-14,10.4-23.9c0-5.1-0.3-11.3-2.3-16.1c-4-9.5-17.1-10.2-26.8-10.2
					c-1.6,0-3,0-4.4,0c-1.7,0-3.6,0-5.8,0c-10.3,0-24.7,0.8-28.7,10.4c-1.8,4.6-2,10.5-2,15.4c0,6.5-0.2,16.3,4.5,21.4
					C1368.8,178.7,1385.9,178.7,1393.1,178.7 M1477.8,43.5h-9.9h-39.4h-9.9v9.9v37.2c-11.4-5.4-24.2-5.4-33.8-5.4h-1.1h-1
					c-1.2,0-2.5,0-3.7,0c-1.3,0-2.7,0-4,0c-14.8,0-31.8,0.8-45.3,10l0,0l0,0c-19.9,13.9-19.9,39.5-19.9,56.4v0.7
					c0,15.7,0,39.4,14.6,52.8l0,0l0,0c15.5,14,40,14,56.2,14h0.8h0.8c13,0,27.5-0.8,38.6-6v3.2h9.9h37.2h9.9v-9.9v-153L1477.8,43.5
					L1477.8,43.5z M1370.2,139.7c0.6-1.3,3.9-4.2,19.5-4.2c1.1,0,2.2,0,3.2,0c0.9,0,1.8,0,2.6,0c0.7,0,1.4,0,2.1,0s1.5,0,2.3,0
					c10.5,0,16.4,1.4,17.6,4.1c1.5,3.7,1.5,10.1,1.5,12.3v0.5c0,11-0.8,13-3.6,13.9c-5.1,1.7-12.4,2.5-22.3,2.5
					c-3.1,0-8.4,0-13.4-0.6c-6.5-0.7-8.7-2-9-2.2c-1.8-2.1-1.8-10.6-1.8-13.8v-0.8C1368.9,148.9,1368.9,143.1,1370.2,139.7
					L1370.2,139.7z"/>
			</g>
			<g>
				<path class="st21" d="M1545.9,214.2c-19.5,0-41.2-1.4-53.4-12c-4.4-3.9-7.4-8.1-9.8-13.8c-4.3-10.9-4.3-23.7-4.2-35.1
					c0-1.4,0-2.9,0-4.2c0-6.1,0-12.4,0.7-18.6c1.1-12.7,6.1-22.5,14.8-29.4c12.2-9.6,36.1-10.9,57.9-10.9h6.1h6.2
					c21.7,0,45.5,1.3,57.8,10.9c4.4,3.5,7.3,7.1,9.8,12c5.8,10.6,5.7,23.4,5.7,34.7c0,1.1,0,2.3,0,3.4c-0.1,5.3-0.2,13.1-0.8,20.6
					c-0.8,9.4-3,21.4-13.2,30.4c-11.8,10.6-34.4,12-54.9,12c-2.1,0-4.1,0-6,0c-1.7,0-3.2,0-4.7,0c-1.7,0-3.5,0-5.4,0
					C1550.5,214.2,1548.2,214.2,1545.9,214.2z M1558.2,130.6c-6.7,0-13.8,0.2-20.4,1.5c-9.2,1.8-10,7.3-10,21.3v0.8
					c0,4.9,0,11.5,2.7,14.5c4.5,5,21.9,5,27.7,5c7.3,0,14.9,0,21.5-1.9c7.6-2.2,8.4-8,8.4-20.8v-0.5c0.1-6.2-0.2-12.2-3.3-15.3
					C1583,133.4,1577.3,130.6,1558.2,130.6z"/>
				<path class="st1" d="M1564.3,95.2c16.9,0,42.8,0.5,54.8,9.9c3.8,3,6.3,6,8.5,10.3c5.8,10.5,5.1,24.1,5.1,35.8
					c-0.1,6.6-0.3,13.5-0.8,20.2c-0.9,10.5-3.6,20-11.5,27.1c-11,9.9-34.3,10.8-51.6,10.8c-4,0-7.6,0-10.7,0
					c-3.6,0-7.7,0.1-12.1,0.1c-17.2,0-38.8-1-50.1-10.8c-4-3.5-6.5-7.2-8.5-11.9c-4.5-11.2-3.8-25.5-3.8-37.4c0-6,0-12.1,0.7-18.1
					c0.9-10.3,4.7-19.5,12.9-26c11.8-9.3,38-9.9,54.8-9.9c2.2,0,4.3,0,6.1,0C1559.9,95.2,1562,95.2,1564.3,95.2 M1558.1,178.6
					c7.6,0,15.6,0,22.9-2.1c12.2-3.5,12-14.9,12-26.2c0.1-6.2-0.1-14.1-4.8-18.8c-5.8-5.8-22.7-6-30-6c-7.2,0-14.4,0.2-21.4,1.6
					c-13.8,2.8-14,13.7-14,26.2c0,6-0.2,14,4,18.6C1532.7,178.6,1550.1,178.6,1558.1,178.6 M1564.3,85.2v9.9V85.2L1564.3,85.2
					c-1.2,0-2.3,0-3.4,0c-1,0-1.9,0-2.8,0s-1.8,0-2.8,0c-1.1,0-2.2,0-3.4,0c-23.8,0-47.7,1.5-61,12c-9.8,7.7-15.4,18.7-16.7,32.8
					c-0.7,6.5-0.7,12.9-0.7,19.1c0,1.4,0,2.8,0,4.2c-0.1,11.8-0.2,25.1,4.5,36.9v0.1v0.1c2.7,6.4,6.1,11.2,11.1,15.6
					c13.5,11.7,36.2,13.3,56.7,13.3c2.4,0,4.6,0,6.8,0c1.9,0,3.7,0,5.3,0c1.4,0,3,0,4.6,0c1.9,0,3.9,0,6.1,0
					c21.4,0,45.1-1.6,58.2-13.3c11.6-10.3,14-24.1,14.8-33.6v-0.1v-0.1c0.6-7.6,0.7-15.5,0.8-20.8v-0.1v-0.1c0-1.1,0-2.2,0-3.4
					c0.1-11.9,0.1-25.3-6.2-37c-2.8-5.6-6.1-9.6-11.1-13.5l0,0l0,0C1611.7,86.7,1587.9,85.2,1564.3,85.2L1564.3,85.2z M1558.1,168.7
					c-3.7,0-9.4,0-14.7-0.7c-7.4-1-9.2-2.7-9.2-2.7l0,0l0,0c-1.4-1.5-1.4-8.2-1.4-11.1v-0.8c0-14.6,1.3-15.4,6-16.4
					c5.8-1.2,12-1.4,19.4-1.4c18.5,0,22.5,2.7,23,3.1c2,2.1,1.9,9.2,1.8,11.6v0.1v0.1v0.5c0,13-1,15-4.8,16.1
					C1572.3,168.7,1565.1,168.7,1558.1,168.7L1558.1,168.7z"/>
			</g>
			<g>
				<path class="st21" d="M1643,211.4V92.9h47.1v8.8c10.8-10.5,24.9-11.6,37.8-11.6c12.1,0,29.3,1.5,39.1,14
					c8.2,10.6,8.2,25,8.2,36.6v1v0.2c0,0.5-0.1,1.1-0.1,1.6c-0.1,0.9-0.2,1.8-0.2,2.5v5h-46.8v-5c0-13-2.5-15.4-15.7-15.4
					c-18.3,0-20,8.5-20,30.8v49.9L1643,211.4L1643,211.4z"/>
				<path class="st1" d="M1727.9,95.1c12.2,0,27,1.6,35.2,12.1c7.4,9.4,7.2,23,7.2,34.4c-0.1,1.5-0.3,3.1-0.3,4.5h-36.9
					c0-16.1-5.1-20.4-20.7-20.4c-24.3,0-25,15.8-25,35.8v45H1648V97.9h37.2v16.3h1.8C1696.1,97.5,1710.7,95.1,1727.9,95.1
					 M1727.9,85.1c-11.4,0-22.9,1.1-32.8,6.6v-3.8h-9.9H1648h-9.9v9.9v108.6v9.9h9.9h39.5h9.9v-9.9v-45c0-7.2,0-16.3,2.3-21
					c0.8-1.6,2.4-4.9,12.7-4.9c7.5,0,9.1,1.2,9.3,1.4c0.1,0.1,1.4,1.6,1.4,9.1v9.9h9.9h36.9h9.9V146c0-0.5,0.1-1.3,0.1-2.1
					c0.1-0.6,0.1-1.2,0.1-1.7v-0.3v-0.3v-0.9c0-12.4,0-27.7-9.3-39.6C1759.8,86.8,1741.1,85.1,1727.9,85.1L1727.9,85.1z"/>
			</g>
			<g>
				<path class="st21" d="M1845.2,214.2c-15.6,0-41.8,0-55.8-11.2c-4.3-3.5-7.6-7.7-10.2-13.2c-5-10.9-5-23.5-5-34.7v-2.4
					c0-6.9,0-14,0.7-20.9c1.4-14.1,6.5-24.2,15.5-31c12.5-9.4,33.6-10.7,54.4-10.7h6.2c1.4,0,7,0,8.4,0c12.7,0,26.1,0.3,38.7,4.1
					c28.5,8.7,28.5,37,28.5,55.7v0.1v0.1c-0.1,1.8-0.1,3.5-0.2,5.4c0,1.8-0.1,3.7-0.2,5.6l-0.3,4.7h-102.5c0.2,3.6,0.8,6.9,3,8.9
					c1.4,1.1,6.3,3.4,23.5,3.4h1.7c19.5,0,22.9-2.4,23.4-2.9l0.1-0.1l0.1-0.1c0.6-0.6,0.9-2.2,1.2-3.8l0.9-4.6h48.7l-0.5,5.4
					c-1,11.4-3.4,20.6-12,28.7c-12.5,11.7-36.7,13.3-61,13.3L1845.2,214.2z M1876.9,133.8c-0.1-2.2-0.6-3.4-1.7-4.7
					c-1.2-1.4-5.9-3.6-23.5-3.6c-5.7,0-11.7,0-17,0.8c-6.9,1-9.7,2.6-10.7,7.5L1876.9,133.8L1876.9,133.8z"/>
				<path class="st1" d="M1859.5,95.2c12.5,0,25.4,0.3,37.2,3.9c23.4,7.2,25,29.1,25,50.9c-0.2,3.7-0.2,7.4-0.4,11h-102.8
					c0,6.2-0.2,13.3,4.9,17.7c5.4,4.4,20.3,4.6,26.7,4.6c0.5,0,1.1,0,1.7,0c7.5,0,23.1-0.2,27.1-4.6c1.8-1.8,2.2-4.4,2.7-6.9h39.2
					c-0.9,10.3-2.9,18.4-10.4,25.5c-12.2,11.4-39.8,11.9-57.6,11.9c-2,0-3.8,0-5.5,0c-0.6,0-1.2,0-1.8,0c-15.7,0-40.3-0.2-52.7-10.1
					c-4-3.2-6.7-6.9-8.9-11.4c-4.9-10.5-4.5-23.7-4.5-34.9c0-6.9,0-13.7,0.7-20.4c1.1-11,4.7-20.9,13.5-27.5
					c12.2-9.1,35-9.7,51.4-9.7c2.2,0,4.3,0,6.2,0C1853.8,95.2,1856.6,95.2,1859.5,95.2 M1818.6,138.7h63.5v-2.5h-0.1
					c0-4.2-0.2-7.4-3.1-10.5c-4.7-5.3-20.7-5.3-27.2-5.3c-6,0-12,0-17.8,0.9C1822.7,122.9,1818.8,127.3,1818.6,138.7 M1859.5,85.2
					v9.9V85.2c-1.4,0-2.9,0-4.3,0s-2.8,0-4.1,0c-0.9,0-1.9,0-2.9,0c-1.1,0-2.2,0-3.3,0c-21.7,0-43.7,1.4-57.4,11.6
					c-10.2,7.7-15.9,19-17.5,34.5c-0.7,7.2-0.7,14.4-0.7,21.4c0,0.8,0,1.6,0,2.3c0,11.7-0.1,24.9,5.4,36.7v0.1v0.1
					c3,6.2,6.7,11,11.6,14.9c14.2,11.4,37.9,12.3,58.9,12.3h0.9h0.9h2.5c1,0,2,0,3,0c25.3,0,50.7-1.8,64.4-14.6
					c10.3-9.7,12.6-21,13.6-31.9l0.2-1.8h0.1l0.1-1.8l0.6-7.3h-0.2v-0.4c0.1-2,0.2-3.9,0.2-5.8c0-1.8,0.1-3.5,0.2-5.3v-0.3v0.1
					c0-10.9-0.3-23.4-4.3-34.3c-4.8-13.1-14.1-21.9-27.7-26.1C1886.4,85.6,1872.5,85.2,1859.5,85.2L1859.5,85.2z M1829.6,171h41.8
					c0,0.2-0.1,0.5-0.2,0.7c-1.9,0.6-6.9,1.6-19.6,1.6h-0.9h-0.8C1834.9,173.4,1830.5,171.5,1829.6,171L1829.6,171L1829.6,171z"/>
			</g>
		</g>
	</g>
	<g>
		<g>
			<path class="st21" d="M2909.5,255.8V92.1h47.1v7.7c11.7-10.4,29.2-10.4,41.6-10.4h3.8c21.1,0,53,0,62.4,27.4
				c3.7,10.6,3.7,24.2,3.7,35.1c-0.1,6.5-0.3,13.4-1,20.4c-0.9,8.7-3.4,21.3-13.6,29.9c-12.7,11-38,11-53,11h-1.2
				c-13.2,0-28.9,0-40.4-10v52.5h-49.4V255.8z M2983.4,129.7c-8.5,0-20,0.7-22.6,7.1v0.1c-1.8,4.1-1.8,10.6-1.8,15.7
				c0,5.7,0.2,11.1,2.7,14.9c2.4,3.5,11.5,5.3,27.2,5.3c7.2,0,15.4-0.2,22.2-2.1c6.9-2,7.6-7.7,7.5-19.5c0-0.7,0-1.4,0-2.1v-1.6
				c-0.1-5.1-0.1-9.5-2.5-12.7c-3.9-5.2-19.6-5.2-24.8-5.2h-1.3c-0.9,0-1.9,0-2.9,0C2986,129.8,2984.7,129.7,2983.4,129.7z"/>
			<path class="st1" d="M2998.2,94.4c1.3,0,2.5,0,3.8,0c20.7,0,49.4,0,57.7,24.1c3.4,9.8,3.4,23.2,3.4,33.5
				c-0.1,6.6-0.3,13.2-1,19.9c-1.1,10.1-4,20-11.8,26.7c-11.3,9.8-35.8,9.8-49.8,9.8c-0.4,0-0.8,0-1.2,0c-16.7,0-34-0.2-43.6-16.7
				h-1.8v59.2h-39.4V97.1h37.2v14.7h2C2962.1,95,2981.5,94.4,2998.2,94.4 M2988.9,177.9c7.6,0,16.2-0.2,23.6-2.3
				c12-3.5,11.1-15.6,11.1-26.4c-0.1-6.1,0.2-12.3-3.6-17.3c-5.3-7-20.4-7.2-28.7-7.2c-0.5,0-0.9,0-1.3,0c-1.9,0-4.2-0.1-6.6-0.1
				c-10.1,0-23.4,0.9-27.2,10.2c-2.2,5.1-2.2,12.1-2.2,17.7c0,6,0.2,12.6,3.6,17.7C2962.7,177.9,2981.2,177.9,2988.9,177.9
				 M2998.2,84.4L2998.2,84.4c-10.1,0-24.5,0-36.6,6.1v-3.4h-9.9h-37.2h-9.9V97v153.8v9.9h9.9h39.4h9.9v-9.9v-38.2
				c11.5,5.7,24.7,5.7,35.4,5.7h0.6h0.6c15.8,0,42.1,0,56.3-12.2c8.6-7.4,13.6-18.2,15.2-33.1c0.8-7.2,1-14.3,1.1-20.8v-0.1V152
				c0-11.3,0-25.3-3.9-36.7c-4.7-13.8-15.1-23-30.9-27.4c-12.1-3.4-25.5-3.4-36.2-3.4h-1.9L2998.2,84.4L2998.2,84.4z M2965.8,164.7
				c-1.7-2.6-1.8-7.4-1.8-12c0-4.5,0-10.6,1.4-13.8v-0.1v-0.1c0.5-1.2,3.2-4,18-4c1.3,0,2.5,0,3.6,0s2.1,0,3,0h0.6h0.7
				c17.3,0,20.4,2.7,20.8,3.2c1.5,1.9,1.5,5.6,1.5,9.8c0,0.5,0,1.1,0,1.6c0,0.7,0,1.4,0,2.1c0.1,12.4-1,13.8-3.9,14.6
				c-5.9,1.7-13.5,1.9-20.8,1.9c-3.3,0-9,0-14.2-0.7C2968.2,166.4,2966.1,165,2965.8,164.7L2965.8,164.7z"/>
		</g>
		<g>
			<rect x="3079.4" y="47.5" class="st21" width="49.3" height="163"/>
			<path class="st1" d="M3123.7,52.5v153.1h-39.4V52.5H3123.7 M3133.7,42.6h-9.9h-39.4h-9.9v9.9v153.1v9.9h9.9h39.4h9.9v-9.9V52.5
				V42.6L3133.7,42.6z"/>
		</g>
		<g>
			<path class="st21" d="M3205,213.3c-22.7,0-49.9-3.4-59.4-29.6c-3.9-11.1-3.9-22.8-3.9-34v-3V92.1h49.1v54.5
				c0,12.8,1.2,19,4.2,22.1c3,3,9.1,4.2,21.7,4.2c13.8,0,20.7-1.7,24-5.8c3.5-4.4,4.1-13,4.1-26.4V92.1h49.1v118.5H3247V202
				C3235.2,213.3,3216.9,213.3,3205,213.3z"/>
			<path class="st1" d="M3289.1,97.1v108.5h-37v-16.3h-2c-8.3,18.1-28.2,19.1-45.2,19.1c-21.2,0-46.2-3-54.7-26.4
				c-4-11.2-3.6-23.4-3.6-35.3V97.1h39.2v49.5c0,26.7,4.9,31.2,30.9,31.2c30.2,0,33.1-8.1,33.1-37.2V97.1H3289.1 M3299.1,87.1h-9.9
				H3250h-9.9V97v43.6c0,9.4-0.2,19.8-3.1,23.3c-2.1,2.6-8.7,3.9-20.1,3.9c-3.8,0-15.5,0-18.2-2.7c-2.8-2.8-2.8-14.7-2.8-18.6V97.1
				v-9.9h-9.9h-39.2h-9.9v9.9v49.6c0,1,0,2,0,3c0,11.7-0.1,23.7,4.2,35.7l0,0l0,0c4.8,13.3,14.4,22.7,28.5,27.9
				c12.1,4.5,25.4,5,35.6,5c9.7,0,24.7,0,37.2-6.7v3.9h9.9h37h9.9v-9.9V97.1v-10H3299.1z"/>
		</g>
		<g>
			<path class="st21" d="M3370.1,213.4c-20,0-42.1-1.5-54.1-12.6c-9.3-8.4-10.8-19.8-11-29.7l-0.1-5.1h23.3
				c-12.3-4.4-22.3-14.2-22.3-35.2c0-20.5,9.1-33.1,27.1-37.6c14-3.4,29.6-3.6,45.7-3.6h4.6c1.4,0,2.9,0,4.4,0c1.7,0,3.5,0,5.4,0
				c20,0,40.1,1.3,51.5,11.1c8.6,7.5,9.5,18.3,10.2,27.1l0.4,5.4h-25.6c17.2,2.8,30.5,11.7,30.5,37.7c0,13-3.2,22.5-9.7,29.2
				c-11.5,11.9-40.7,13.5-64.8,13.5h-5.3c-1.5,0-3,0-4.6,0C3374,213.4,3372.1,213.4,3370.1,213.4z M3355,170.5
				c0.4,4.6,3.6,6.3,13.7,7.2c4.7,0.5,9.3,0.5,14.3,0.5c0,0,3.3,0,4.2,0c17.9,0,22.3-2.3,23.3-3.2l0.1-0.1c0.3-0.3,0.5-0.9,0.5-1.7
				c0-1,0-3.5-11.3-3.5h-2c-3.7,0-7.5-0.1-11.1-0.1s-7.3-0.1-11-0.1h-20.9L3355,170.5z M3405.4,131.7l-0.5-2.9
				c-0.3-1.7-0.4-1.8-0.8-2c-0.5-0.3-4.1-2.1-22.1-2.1h-2.1c-17,0-22.5,1.6-24.2,2.6c-0.6,0.6-0.6,0.8-0.6,1.1c0,1.4,0,1.9,4.9,2.4
				c6.8,0.6,14.3,0.7,21.5,0.7c1.7,0,3.3,0,4.9,0c1.6,0,3.1,0,4.7,0L3405.4,131.7z"/>
			<path class="st1" d="M3393.2,94.4c16.4,0,37.7,0.8,48.3,9.9c6.9,6,7.8,14.9,8.5,23.7h-40.1c-0.4-2.3-0.9-3.9-2.9-5.3
				c-4.3-3-20-3-25-3c-0.6,0-1.3,0-2.1,0c-7.5,0-22.2,0.2-27.3,3.7c-1.6,1.4-2.5,3-2.5,5.1c0,6,4.7,6.9,9.3,7.4
				c7,0.6,14.6,0.7,22,0.7c3.3,0,6.5,0,9.6,0l22.1,0.2c24.7,0.2,42.1,5.1,42.1,33.9c0,9.1-1.6,18.9-8.3,25.8
				c-11,11.4-43.3,11.9-61.2,11.9c-2,0-3.8,0-5.3,0c-3.1,0-6.6,0-10.4,0c-17.1,0-39.5-0.9-50.8-11.3c-7.6-6.9-9.1-16-9.3-26.2h40.1
				c0.9,9.8,10.6,11,18.2,11.7c4.9,0.5,9.7,0.5,14.7,0.5c1.1,0,2.6,0,4.2,0c8.4,0,22.2-0.3,26.7-4.6c1.6-1.4,2.2-3.5,2.2-5.5
				c0-8.1-9.9-8.5-16.2-8.5c-0.7,0-1.4,0-2,0c-7.4,0-14.7-0.2-22.1-0.2c-7.6,0-15.1,0-22.7,0c-23.6,0-42.3-5.8-42.3-33.7
				c0-17.2,6.7-28.6,23.4-32.8c13.8-3.3,30.1-3.5,44.5-3.5c1.6,0,3.1,0,4.6,0C3386.3,94.5,3389.6,94.4,3393.2,94.4 M3393.2,84.5
				c-1.9,0-3.7,0-5.4,0c-1.5,0-3,0-4.4,0h-2.3h-2.3c-16.4,0-32.4,0.3-46.8,3.8l0,0l0,0c-10.5,2.6-18.5,7.9-23.8,15.6
				c-4.8,7.1-7.1,15.9-7.1,26.9c0,12.8,3.4,23,10.3,30.2h-1.2h-10.1l0.2,10.1c0.2,11,1.9,23.6,12.6,33.3
				c13.3,12.2,36.5,13.9,57.5,13.9c2,0,3.9,0,5.8,0c1.6,0,3.2,0,4.6,0h2.3c0.9,0,1.9,0,3,0c26.6,0,55.6-1.8,68.3-15
				c7.4-7.7,11.1-18.4,11.1-32.7c0-14.5-4-25.4-12-32.7h7.5l-0.9-10.7c-0.7-9.1-1.7-21.6-11.8-30.4l0,0l0,0
				C3435.3,86,3414.2,84.5,3393.2,84.5L3393.2,84.5z"/>
		</g>
		<g>
			<polygon class="st21" points="3444.1,243.7 3572.3,14.5 3612.2,14.5 3483.8,243.7 			"/>
			<path class="st1" d="M3603.7,19.5l-122.8,219.2h-28.2l122.6-219.2H3603.7 M3620.7,9.5h-17h-28.4h-5.8l-2.8,5.1l-122.6,219.2
				l-8.3,14.8h17h28.2h5.8l2.8-5.1l122.8-219.2L3620.7,9.5L3620.7,9.5z"/>
		</g>
	</g>
	<g>
		<g>
			<path class="st21" d="M147.3,298.2C68.8,298.2,5,232.4,5,151.6S68.8,5,147.3,5c12.4,0,24.7,1.7,36.8,4.9l3.7,1v83.7l-7.5-4.3
				c-10.2-5.9-21.4-8.9-33-8.9c-37.4,0-67.8,31.5-67.8,70.1s30.4,70,67.8,70.1c11.7,0,22.8-3,33-8.9l7.5-4.3v83.7l-3.7,1
				C172,296.5,159.6,298.2,147.3,298.2z"/>
			<path class="st1" d="M147.3,9.9c12.2,0,24.2,1.7,35.5,4.8V86c-10.5-6.1-22.6-9.5-35.5-9.5c-40.2,0-72.8,33.7-72.8,75.1
				s32.6,75,72.8,75.1c12.9,0,25-3.5,35.5-9.5v71.3c-11.3,3.1-23.3,4.8-35.5,4.8C71.4,293.3,10,229.9,10,151.7S71.4,9.9,147.3,9.9
				 M147.3,0C107.9,0,70.8,15.8,43,44.5C15.3,73.1,0,111.1,0,151.6s15.3,78.5,43,107.1c27.8,28.7,64.9,44.5,104.3,44.5
				c12.8,0,25.6-1.7,38.1-5.1l7.3-2v-7.6v-71.3V200l-14.9,8.6c-9.5,5.5-19.8,8.2-30.5,8.2c-34.6-0.1-62.9-29.3-62.9-65.1
				c0-35.9,28.2-65.1,62.9-65.1c10.8,0,21.1,2.8,30.5,8.2l14.9,8.6V86V14.7V7.1l-7.3-2C172.9,1.7,160.1,0,147.3,0L147.3,0z"/>
		</g>
		<g>
			<polygon class="st21" points="177.8,151.4 177.8,84.7 314.2,84.7 249.6,151.4 			"/>
			<path class="st1" d="M302.4,89.7l-55,56.7h-64.6V89.7H302.4 M326,79.8h-23.5H182.8h-9.9v9.9v56.7v9.9h9.9h64.6h4.2l2.9-3l55-56.7
				L326,79.8L326,79.8z"/>
		</g>
		<g>
			<polygon class="st22" points="177.8,218.3 177.8,151.7 249.6,151.7 314.2,218.3 			"/>
			<path class="st1" d="M247.4,156.6l55,56.7H182.8v-56.7H247.4 M251.7,146.7h-4.2h-64.6H173v9.9v56.7v9.9h9.9h119.6H326l-16.4-16.9
				l-55-56.7L251.7,146.7L251.7,146.7z"/>
		</g>
	</g>
	<g>
		<g>
			<path class="st21" d="M3731.3,255.7v-36.8H3578v-83.1l117.4-88h101.4v116.8h37.2V219h-37.2v36.7H3731.3z M3731.3,164.5v-60.8
				h-5.3l-85.9,60.6v0.2L3731.3,164.5L3731.3,164.5z"/>
			<path class="st1" d="M3791.9,52.7v116.8h37.2V214h-37.2v-0.1v36.8h-55.6v-36.8H3583v-75.7l114.1-85.5L3791.9,52.7 M3635.1,169.5
				h101.1V98.8h-11.8l-89.3,63V169.5 M3801.8,42.8h-9.9h-94.8h-3.3l-2.7,2L3577,130.3l-4,3v5V214v9.9h9.9h143.3v26.9v9.9h9.9h55.6
				h9.9v-9.9V224h27.2h9.9v-10v-44.6v-9.9h-9.9h-27.2V52.7v-9.9H3801.8z M3655.5,159.5l70.8-49.9v49.9H3655.5L3655.5,159.5z"/>
		</g>
	</g>
</g>
<path class="st21" d="M74.5,151.6c0-41.4,32.6-75.1,72.8-75.1c12.9,0,25,3.4,35.5,9.5V14.7c-11.3-3.1-23.3-4.8-35.5-4.8
	C71.4,9.9,10,73.5,10,151.7s61.4,141.6,137.3,141.6c12.2,0,24.2-1.7,35.5-4.8v-71.3c-10.5,6-22.6,9.5-35.5,9.5
	C107.1,226.6,74.5,193,74.5,151.6z"/>
</svg>
