<?xml version="1.0" encoding="utf-8"?>
<!-- Generator: Adobe Illustrator 26.3.1, SVG Export Plug-In . SVG Version: 6.00 Build 0)  -->
<svg version="1.1" id="Layer_1" xmlns="http://www.w3.org/2000/svg" xmlns:xlink="http://www.w3.org/1999/xlink" x="0px" y="0px"
	 viewBox="0 0 3839 1629.5" style="enable-background:new 0 0 3839 1629.5;" xml:space="preserve">
<style type="text/css">
	.st0{fill:#FFFFFF;}
	.st1{fill:#C30207;}
</style>
<g>
	<g>
		<g>
			<rect x="1214.6" y="1047.3" width="293.3" height="170"/>
			<path class="st0" d="M1502.9,1052.3v160.1h-283.3v-160.1H1502.9 M1512.8,1042.3h-9.9h-283.3h-9.9v9.9v160.1v9.9h9.9h283.3h9.9
				v-9.9v-160.1V1042.3L1512.8,1042.3z"/>
		</g>
		<g>
			<path d="M1693.2,1605.1l150.1-336.3c-79.5-4-153.7-37.5-209.5-94.8c-57.7-59.2-89.4-137.3-89.4-219.9
				c0-84.2,32.8-163.3,92.3-222.8c59.5-59.5,138.7-92.3,222.8-92.3c84.2,0,163.3,32.8,222.8,92.3c59.5,59.5,92.3,138.7,92.3,223
				c0,43.2-8.7,85.2-25.8,124.7l-234.8,526.2H1693.2z M1859.5,840.7c-62.5,0-113.4,50.9-113.4,113.4s50.9,113.4,113.4,113.4
				s113.4-50.9,113.4-113.4S1922,840.7,1859.5,840.7z"/>
			<path class="st0" d="M1859.5,643.9c171.3,0,310.2,138.8,310.2,310.3c0,43.6-9.1,85.1-25.4,122.8l-233.5,523.2h-210l150-336
				c-167.3-4.6-301.5-141.6-301.5-310C1549.3,782.8,1688.2,643.9,1859.5,643.9 M1859.5,1072.5c65.4,0,118.4-53,118.4-118.4
				c0-65.4-53-118.4-118.4-118.4s-118.4,53-118.4,118.4C1741.1,1019.5,1794.2,1072.5,1859.5,1072.5 M1859.5,634
				c-43.2,0-85.1,8.5-124.6,25.2c-38.1,16.1-72.4,39.2-101.8,68.6s-52.5,63.6-68.6,101.8c-16.7,39.5-25.2,81.4-25.2,124.6
				c0,42.5,8.2,83.8,24.3,122.7c15.6,37.6,38,71.5,66.5,100.7c28.5,29.2,61.8,52.4,98.9,69c33.9,15.1,69.7,24.1,106.8,26.8
				l-144.1,322.8l-6.3,14h15.3h210h6.5l2.6-5.9l233.5-523.2l0-0.1l0-0.1c17.4-40.2,26.2-82.8,26.2-126.7c0-43.3-8.5-85.2-25.2-124.7
				c-16.1-38.1-39.2-72.4-68.6-101.8c-29.4-29.4-63.6-52.5-101.8-68.6C1944.7,642.4,1902.7,634,1859.5,634L1859.5,634z
				 M1859.5,1062.5c-59.8,0-108.4-48.6-108.4-108.4c0-59.8,48.6-108.4,108.4-108.4c59.8,0,108.4,48.6,108.4,108.4
				C1967.9,1013.9,1919.3,1062.5,1859.5,1062.5L1859.5,1062.5z"/>
		</g>
		<g>
			<path d="M2515.2,1620.8c-83,0-161-31.3-219.8-88.1c-58.8-56.9-91.1-132.5-91.1-213c0-76.5,29.7-149.2,83.7-205.2
				c-44.5-51.7-68.9-116.7-68.9-183.8c0-76.7,30.8-148.7,86.8-202.9c56-54.2,130.3-84,209.4-84c79.1,0,153.5,29.8,209.4,84
				c56,54.2,86.8,126.3,86.8,202.9c0,67.1-24.5,132.2-69.1,183.8c54,56,83.6,128.7,83.6,205.2c0,80.5-32.3,156.1-91.1,213
				C2676.3,1589.5,2598.2,1620.8,2515.2,1620.8z M2515.3,1204c-58.6,0-106.2,47.7-106.2,106.2c0,58.6,47.7,106.2,106.2,106.2
				s106.2-47.7,106.2-106.2C2621.5,1251.7,2573.9,1204,2515.3,1204z M2515.3,839.7c-50.2,0-91,40.8-91,91s40.8,91,91,91
				s91-40.8,91-91S2565.5,839.7,2515.3,839.7z"/>
			<path class="st0" d="M2515.3,648.8c160.9,0,291.3,126.2,291.3,281.9c0,70.3-26.8,134.5-70.9,183.9c52.8,53.2,85.5,125.3,85.5,205
				c0,163.5-136.9,296.2-305.9,296.2c-168.9,0-305.9-132.6-305.9-296.2c0-79.7,32.6-151.8,85.5-205c-44-49.4-70.7-113.6-70.7-183.9
				C2224,775,2354.4,648.8,2515.3,648.8 M2515.3,1026.7c53,0,96-43,96-96c0-53-43-96-96-96s-96,43-96,96
				C2419.3,983.7,2462.3,1026.7,2515.3,1026.7 M2515.3,1421.5c61.4,0,111.2-49.7,111.2-111.2c0-61.5-49.8-111.2-111.2-111.2
				c-61.5,0-111.2,49.7-111.2,111.2C2404.1,1371.7,2453.9,1421.5,2515.3,1421.5 M2515.3,638.8c-40.6,0-80,7.7-117.1,22.9
				c-35.9,14.7-68.1,35.7-95.7,62.5c-27.7,26.8-49.4,58-64.6,92.8c-15.7,36-23.7,74.3-23.7,113.7c0,35.6,6.6,70.4,19.6,103.4
				c11.4,29,27.4,55.9,47.7,80.1c-52.9,56.5-81.9,129.1-81.9,205.4c0,41.4,8.4,81.5,24.9,119.3c15.9,36.5,38.7,69.2,67.8,97.3
				c29,28.1,62.8,50.1,100.4,65.5c38.9,15.9,80.2,24,122.8,24c42.6,0,84-8.1,122.9-24c37.6-15.4,71.4-37.4,100.4-65.5
				c29-28.1,51.8-60.8,67.7-97.3c16.5-37.8,24.9-77.9,24.9-119.3c0-76.3-29-148.9-81.9-205.4c20.3-24.2,36.4-51.1,47.8-80.1
				c13-33,19.6-67.8,19.6-103.4c0-39.4-8-77.7-23.7-113.7c-15.2-34.8-36.9-66-64.6-92.8c-27.7-26.8-59.9-47.8-95.7-62.5
				C2595.3,646.5,2555.9,638.8,2515.3,638.8L2515.3,638.8z M2515.3,1016.8c-47.4,0-86.1-38.6-86.1-86.1s38.6-86.1,86.1-86.1
				c47.4,0,86.1,38.6,86.1,86.1S2562.7,1016.8,2515.3,1016.8L2515.3,1016.8z M2515.3,1411.5c-27,0-52.5-10.5-71.6-29.6
				c-19.1-19.1-29.7-44.6-29.7-71.6c0-27.1,10.5-52.5,29.6-71.6c19.1-19.1,44.6-29.6,71.6-29.6c27,0,52.5,10.5,71.6,29.6
				c19.1,19.1,29.7,44.6,29.7,71.6c0,27.1-10.5,52.5-29.7,71.6C2567.8,1401,2542.3,1411.5,2515.3,1411.5L2515.3,1411.5z"/>
		</g>
		<g>
			<path d="M3199.9,1605.1c-108.2,0-192.6-39.1-250.6-116.2c-60.4-80.1-91-200.1-91-356.7s30.6-276.5,91-356.7
				c58.1-77.1,142.4-116.2,250.6-116.2s192.6,39.1,250.6,116.2c60.4,80.1,91,200.1,91,356.7s-30.6,276.5-91,356.7
				C3392.5,1566,3308.2,1605.1,3199.9,1605.1z M3199.9,846.4c-44.4,0-76.2,21.9-97.5,67c-22.1,46.8-32.8,118.3-32.9,218.4v1
				c0,100.1,10.8,171.5,32.9,218.4c21.3,45.1,53.2,67,97.5,67c44.4,0,76.2-21.9,97.5-67c22.1-46.8,32.8-118.3,32.9-218.4v-1
				c0-100.1-10.8-171.5-32.9-218.4C3276.2,868.3,3244.3,846.4,3199.9,846.4z"/>
			<path class="st0" d="M3199.9,664.4c208.9,0,336.6,148.5,336.6,467.9s-127.7,467.9-336.6,467.9s-336.6-148.5-336.6-467.9
				S2991,664.4,3199.9,664.4 M3199.9,1423.2c91.6,0,135.2-89.5,135.4-290.4c0-0.2,0-0.3,0-0.5c0-0.1,0-0.3,0-0.5
				c-0.1-200.9-43.8-290.4-135.4-290.4s-135.2,89.5-135.4,290.4c0,0.1,0,0.3,0,0.5c0,0.1,0,0.3,0,0.5
				C3064.6,1333.6,3108.3,1423.2,3199.9,1423.2 M3199.9,654.5c-53.9,0-102.7,9.8-144.9,29.1c-43.2,19.8-80.1,49.7-109.7,89
				c-61,81-92,202-92,359.7s30.9,278.7,92,359.7c29.6,39.3,66.6,69.3,109.7,89c42.2,19.3,91,29.1,144.9,29.1s102.7-9.8,144.9-29.1
				c43.2-19.8,80.1-49.7,109.7-89c61-81,92-202,92-359.7s-30.9-278.7-92-359.7c-29.6-39.3-66.6-69.3-109.7-89
				C3302.6,664.3,3253.8,654.5,3199.9,654.5L3199.9,654.5z M3199.9,1413.2c-21.2,0-38.9-5-54.2-15.4c-15.5-10.5-28.5-26.9-38.8-48.8
				c-21.8-46.2-32.4-116.9-32.4-216.3v-0.5v-0.5c0.1-99.4,10.7-170.1,32.5-216.3c10.3-21.9,23.3-38.3,38.8-48.8
				c15.3-10.4,33-15.4,54.2-15.4c21.2,0,38.9,5,54.2,15.4c15.5,10.5,28.5,26.9,38.8,48.8c21.8,46.2,32.4,116.9,32.4,216.3v0.5v0.5
				c-0.1,99.4-10.7,170.1-32.5,216.3c-10.3,21.9-23.3,38.3-38.8,48.8C3238.9,1408.2,3221.1,1413.2,3199.9,1413.2L3199.9,1413.2z"/>
		</g>
		<g>
			<path d="M1111.5,1624.5c-228.5,0-475.2-188.2-475.2-492.2c0-304,246.7-492.2,475.2-492.2c44.9,0,80.9,2.6,113.4,8l4.1,0.7v227.6
				l-6.1-1.4c-3-0.7-5.9-1.4-9-2.1c-18.5-4.5-39.4-9.7-95.6-9.7c-25.3,0-52.8,5.8-79.5,16.7c-28.6,11.7-55.7,29.1-78.6,50.4
				c-38.2,35.6-83.8,99.5-83.8,202c0,102.5,45.6,166.4,83.8,202c22.9,21.3,50,38.7,78.6,50.4c26.8,10.9,54.3,16.7,79.5,16.7
				c56.7,0,77.6-5.2,96.1-9.8c2.9-0.7,5.6-1.4,8.5-2l6.1-1.4v227.6l-4.1,0.7C1192.4,1622,1156.4,1624.5,1111.5,1624.5z"/>
			<path class="st0" d="M1111.5,645c50.9,0,85.5,3.4,112.6,8v217.2c-21.2-4.8-39.6-11.9-105.6-11.9c-101.6,0-246.9,91.1-246.9,274.1
				s145.3,274.1,246.9,274.1c66.1,0,84.5-7.1,105.6-11.9v217.2c-27.2,4.6-61.6,8-112.6,8c-226.1,0-470.3-186.3-470.3-487.3
				S885.4,645,1111.5,645 M1111.5,635.1c-230.9,0-480.2,190.1-480.2,497.2c0,307.1,249.3,497.2,480.2,497.2
				c45.2,0,81.5-2.6,114.3-8.1l8.3-1.4v-8.4v-217.2v-12.5l-12.2,2.8c-2.9,0.7-5.6,1.3-8.5,2.1c-18.2,4.5-38.8,9.6-94.9,9.6
				c-24.6,0-51.5-5.7-77.7-16.4c-28-11.4-54.7-28.5-77.1-49.4c-25.1-23.4-44.9-51.1-58.8-82.4c-15.6-35-23.4-74.1-23.4-116
				s7.9-80.9,23.4-116c13.9-31.3,33.7-59,58.8-82.4c22.4-20.9,49.1-38,77.1-49.4c26.2-10.7,53.1-16.4,77.7-16.4
				c55.6,0,76.2,5.1,94.4,9.5c3.1,0.8,6,1.5,9.1,2.2l12.1,2.7v-12.4V653v-8.4l-8.3-1.4C1193,637.6,1156.7,635.1,1111.5,635.1
				L1111.5,635.1z"/>
		</g>
		<g>
			<rect x="3617.1" y="659.4" width="217" height="945.7"/>
			<path class="st0" d="M3829.1,664.4v935.7h-207V664.4H3829.1 M3839,654.5h-9.9h-207h-9.9v9.9v935.7v9.9h9.9h207h9.9v-9.9V664.4
				V654.5L3839,654.5z"/>
		</g>
		<g>
			<path d="M5,1605.1V659.4h322.4c41,0,81.2,8,119.5,23.9c37,15.3,70.5,37.2,99.4,65c29.1,28,52,60.5,68,96.5
				c16.7,37.6,25.2,77.4,25.2,118.2c0,40.9-8.5,80.6-25.2,118.2c-16,36-38.9,68.5-68,96.5c-28.9,27.8-62.3,49.7-99.4,65
				c-38.2,15.8-78.4,23.8-119.5,23.8h-62.5v-206.1H311c53.2,0,96.4-43.2,96.4-96.4s-43.2-96.4-96.4-96.4h-89v737.5H5z"/>
			<path class="st0" d="M327.4,664.4c164.9,0,307.1,133.8,307.1,298.6c0,164.8-142.2,298.5-307.1,298.5h-57.5v-196.2H311
				c56,0,101.4-45.4,101.4-101.4c0-56-45.4-101.4-101.4-101.4h-94v737.5H9.9V664.4h207H327.4 M327.4,654.5H217H9.9H0v9.9v935.7v9.9
				h9.9h207h9.9v-9.9V872.6H311c24.4,0,47.4,9.5,64.7,26.8c17.3,17.3,26.8,40.2,26.8,64.7s-9.5,47.4-26.8,64.7
				c-17.3,17.3-40.2,26.8-64.7,26.8h-41.1h-9.9v9.9v196.2v9.9h9.9h57.5c41.7,0,82.5-8.1,121.4-24.2c37.6-15.6,71.6-37.8,100.9-66
				c29.5-28.4,52.8-61.4,69.1-98c17-38.2,25.6-78.7,25.6-120.2s-8.6-82-25.6-120.3c-16.3-36.6-39.6-69.6-69.1-98.1
				c-29.4-28.3-63.3-50.5-100.9-66C409.9,662.6,369.1,654.5,327.4,654.5L327.4,654.5z"/>
		</g>
	</g>
	<g>
		<g>
			<polygon class="st1" points="1324.7,170.2 1304.5,147.7 1263.9,143.9 1380.9,11.8 1606.5,263.6 1660.1,7.8 1778.1,77.1 
				1686.9,128.8 1611.2,490.1 1367,217.5 1333.6,376.6 1396.1,433.9 1254.1,505.7 			"/>
			<path class="st0" d="M1663.5,15.6l104.7,61.5l-85.7,48.5l-74.2,353.9l-244.1-272.6l-36,171.5l59.3,54.3l-126.3,63.9l68.9-327.8
				l-23.2-25.9l-32.7-3.1l106.7-120.6l228.4,255L1663.5,15.6 M1656.6,0l-2.8,13.5L1603.6,253L1388.3,12.6l-7.5-8.3l-7.4,8.4
				l-106.7,120.6l-13,14.7l19.5,1.8l28.9,2.7l17.2,19.2l-67.9,322.9l-4.3,20.3l18.5-9.3l126.3-63.9l12.8-6.5l-10.6-9.7l-55.1-50.5
				l30.8-146.7l231,257.9l13.1,14.6l4-19.2l73.3-349.5l81.7-46.3l15-8.5l-14.9-8.7L1668.6,7L1656.6,0L1656.6,0z"/>
		</g>
		<g>
			<path class="st1" d="M1685,461.4c-3.9,0-7.1-2.7-7.8-6.6c-0.7-3.9,1.4-7.5,5.1-8.8c5.6-2,11.5-3.9,17.1-5.7
				c23.1-7.4,45-14.3,48.4-30.7l30.7-146.4c-2.4-2-11.6-7.9-42.4-12.8c-4.3-0.7-7.4-4.4-7.3-8.7c0.1-4.3,3.3-7.8,7.6-8.3
				c32-3.8,50.9-11.9,53.2-22.8L1818,75.4c1.8-8.6-13.5-23.3-46.2-35c-3.7-1.3-5.8-4.9-5.1-8.8c0.7-3.9,3.9-6.6,7.8-6.6h374.1
				l39.4,0.1l-32.8,156.4c-1,4.7-4.9,7.8-9.6,7.8c0,0,0,0,0,0c-5.2,0-9.3-3.8-9.8-8.9c-7.8-81.4-29.2-117.7-69.5-117.7h-94.7
				l-33,157.2h16.4c41,0,87.9-56.3,101.3-73.6l0.1-0.1c1.5-1.8,3.6-2.8,5.9-2.8c2.3,0,4.5,1.1,6,2.8c1.4,1.8,2,4.1,1.5,6.4
				L2032.1,332c-0.7,3.5-3.8,6-7.4,6c-3.2,0-6-1.9-7.1-4.9c-6.9-17.7-32.2-75.8-66.8-75.8h-20l-34.9,166.5h88.4
				c21.6,0,45.9-13.5,72-40.2c22.3-22.7,41.1-50.2,53-69.2c1.6-2.7,4.5-4.3,7.6-4.3c2.8,0,5.4,1.3,7.2,3.4c1.7,2.1,2.4,4.8,1.9,7.6
				l-29.5,140.2H1685z"/>
			<path class="st0" d="M2148.5,30l33.3,0.1l-31.5,150.4c-0.6,2.6-2.7,3.8-4.7,3.8c-2.3,0-4.6-1.5-4.8-4.4
				c-6.5-67.5-23.3-122.3-74.4-122.3h-98.8l-35.1,167.1h22.5c42.2,0,88-53.3,105.3-75.5c0.6-0.7,1.3-1,2.1-1c1.5,0,3,1.3,2.6,3.2
				l-37.6,179.5c-0.3,1.3-1.4,2-2.6,2c-1,0-2-0.5-2.4-1.6c-8.6-22-34.4-79-71.4-79h-0.2h-23.9l-37,176.5h94.5
				c52.8,0,105.6-73.9,129.2-111.7c0.8-1.4,2.1-1.9,3.4-1.9c2.4,0,4.7,2.1,4.2,5l-28.7,136.2h-1.4h-64.4h-142.8h-105.7h-34.9H1685
				c-3.3,0-4.1-4.6-1-5.7c29.6-10.6,63.8-16.4,68.7-40.1l31.1-148.6c-1.7-4.3-13.7-11.2-47-16.5c-4.2-0.7-4.1-6.7,0.1-7.2
				c25.9-3.1,54-10.1,57.5-26.8l28.4-135.2c3-14.1-19.8-30.1-49.4-40.7c-3.1-1.1-2.3-5.7,1-5.7h58.2h3H2148.5 M2148.5,20.1
				L2148.5,20.1L2148.5,20.1h-312.9h-3h-58.2c-6.3,0-11.6,4.5-12.7,10.7c-1.1,6.2,2.5,12.2,8.4,14.3c32,11.4,44,24.9,43,29.3
				l-28.4,135.2c-1.4,6.5-14.9,14.9-48.9,18.9c-6.8,0.8-11.8,6.3-12,13.1c-0.2,6.8,4.6,12.6,11.4,13.7l0,0l0,0
				c23.4,3.7,33.6,7.9,37.6,10.1l-30,143.2c-2.8,13.5-23.3,20.1-45.1,27c-5.7,1.8-11.6,3.7-17.3,5.8c-5.9,2.1-9.4,8.1-8.3,14.3
				c1.1,6.2,6.4,10.7,12.7,10.7h58.2h34.9h105.7h142.8h64.4h1.4h8.1l1.7-7.9l28.7-136.2l0-0.1l0-0.1c0.8-4.2-0.2-8.5-2.9-11.7
				c-2.7-3.3-6.8-5.2-11-5.2c-4.8,0-9.3,2.5-11.8,6.6c-11.7,18.8-30.3,45.9-52.3,68.3c-25.2,25.7-48.2,38.7-68.5,38.7H1902
				l32.8-156.6h15.8h0.2c12.5,0,25.4,9.1,38.3,27.1c11.7,16.3,20,35.5,23.8,45.5c1.9,4.9,6.4,8,11.7,8c6.1,0,11.1-4.1,12.3-10
				l37.6-179.4c0.8-3.7-0.1-7.6-2.5-10.5c-2.4-3-6-4.7-9.8-4.7c-3.8,0-7.4,1.7-9.8,4.7l-0.1,0.1l-0.1,0.1
				c-13,16.8-58.6,71.7-97.4,71.7h-10.2l30.9-147.2h90.7c20.1,0,34.4,9.7,45.1,30.4c9.5,18.4,15.8,45.5,19.4,82.8
				c0.7,7.7,7,13.4,14.7,13.4c7,0,12.9-4.8,14.5-11.6l0-0.1l0-0.1l31.5-150.4l2.5-12l-12.2,0L2148.5,20.1L2148.5,20.1z"/>
		</g>
		<g>
			<path class="st1" d="M2373.6,479.2c-55.5,0-104.1-20.3-140.5-58.6c-43.5-45.9-60.9-107.8-58.7-148.8c2.2-40.6,14.3-78.7,36-113.2
				c19.8-31.5,47.2-59.5,81.4-83c31.8-21.9,67.9-39.1,107.4-51.1c37.7-11.4,77.3-17.4,114.6-17.4c5.5,0,11,0.1,16.3,0.4l3,0.1
				l51.1,111.8l-70.8,34.5l-70.4-90.5c-25.1,6-60.5,18.7-91.6,45.5c-30.8,26.5-50.7,60.7-58.9,101.8c-5.4,27.1,3.9,59.4,24.3,84.3
				c22.9,27.9,56.1,43.3,93.3,43.3c0,0,0,0,0,0c44.3,0,91.9-20.8,141.4-61.8c2.3-1.9,4.9-3,7.4-3c2.7,0,5.1,1.3,6.4,3.5
				c0.9,1.5,1.9,4.5-0.4,8.9l-90.3,174.4l-1.9,0.7C2437.8,473.1,2404.5,479.2,2373.6,479.2C2373.7,479.2,2373.6,479.2,2373.6,479.2z
				"/>
			<path class="st0" d="M2513.8,12c5.4,0,10.8,0.1,16.1,0.4l47.9,104.7l-62.8,30.6l-69.8-89.8c-66.8,15-139,60.4-157.4,151.8
				c-11.3,56.6,37.2,133.6,122.6,133.6c40.7,0,89.7-17.5,144.5-62.9c1.5-1.3,3-1.9,4.2-1.9c2.2,0,3.3,1.9,1.5,5l-89.4,172.7
				c-36.2,12.6-68.7,18.1-97.6,18.1c-141.3,0-198-130.9-194.3-202.2C2188.2,105.7,2366.5,12,2513.8,12 M2513.8,2.1
				c-37.8,0-77.9,6.1-116,17.7c-40,12.1-76.5,29.5-108.8,51.7c-34.7,24-62.6,52.4-82.8,84.5c-22.2,35.3-34.6,74.2-36.8,115.6
				c-2.2,42.1,15.5,105.6,60.1,152.5c17.6,18.5,38,33.1,60.7,43.2c25.3,11.3,53.4,17,83.4,17c31.4,0,65.3-6.3,100.9-18.6l3.7-1.3
				l1.8-3.5l89.4-172.6c2.6-4.7,2.7-9.7,0.3-13.7c-2.2-3.7-6.2-5.9-10.6-5.9c-3.7,0-7.3,1.4-10.6,4.2c-25.4,21-50.6,36.8-75,47
				c-21.8,9.1-43.1,13.7-63.1,13.7c-35.8,0-67.6-14.7-89.5-41.5c-19.5-23.8-28.4-54.5-23.3-80.1c8-39.9,27.3-73.2,57.3-99
				c29.1-25,62.1-37.5,86.4-43.6l65.9,84.8l5,6.4l7.3-3.5l62.8-30.6l8.7-4.3l-4-8.8L2539,8.3l-2.5-5.5l-6.1-0.3
				C2525,2.2,2519.4,2.1,2513.8,2.1L2513.8,2.1C2513.8,2.1,2513.8,2.1,2513.8,2.1L2513.8,2.1z"/>
		</g>
	</g>
</g>
</svg>
