<?xml version="1.0" encoding="utf-8"?>
<!-- Generator: Adobe Illustrator 26.3.1, SVG Export Plug-In . SVG Version: 6.00 Build 0)  -->
<svg version="1.1" id="Layer_1" xmlns="http://www.w3.org/2000/svg" xmlns:xlink="http://www.w3.org/1999/xlink" x="0px" y="0px"
	 viewBox="0 0 3839 591.3" style="enable-background:new 0 0 3839 591.3;" xml:space="preserve">
<style type="text/css">
	.st0{fill:#FFFFFF;}
	.st1{fill:#C30207;}
</style>
<g>
	<g>
		<g>
			<rect x="2317.7" y="240.7" width="173.5" height="102.4"/>
			<path class="st0" d="M2486.3,245.7v92.4h-163.6v-92.4H2486.3 M2496.2,235.7h-9.9h-163.6h-9.9v9.9v92.4v9.9h9.9h163.6h9.9v-9.9
				v-92.4V235.7L2496.2,235.7z"/>
		</g>
		<g>
			<path d="M2592.9,566.9l86.7-194.3c-45.3-3-87.5-22.5-119.4-55.2c-33.7-34.5-52.2-80.1-52.2-128.4c0-101.5,82.6-184,184-184
				c49.2,0,95.4,19.1,130.1,53.9c34.8,34.8,54,81,54,130.3c0,25.4-5.1,49.9-15,72.8l-136.2,305H2592.9z M2692.1,125.6
				c-35,0-63.4,28.4-63.4,63.4c0,35,28.4,63.4,63.4,63.4s63.4-28.4,63.4-63.4C2755.5,154.1,2727.1,125.6,2692.1,125.6z"/>
			<path class="st0" d="M2692.1,9.9c98.9,0,179.1,80.1,179.2,179.2c0,25.1-5.2,49.1-14.6,70.9l-134.9,302h-121.2l86.6-194
				c-96.7-2.7-174.1-81.7-174.1-179C2513,90.1,2593.2,9.9,2692.1,9.9 M2692.1,257.4c37.8,0,68.4-30.6,68.4-68.4
				s-30.6-68.4-68.4-68.4s-68.4,30.6-68.4,68.4S2654.3,257.4,2692.1,257.4 M2692.1,0c-25.5,0-50.3,5-73.6,14.9
				c-22.5,9.5-42.7,23.2-60.1,40.5c-17.4,17.4-31,37.6-40.5,60.1c-9.9,23.3-14.9,48.1-14.9,73.6c0,49.6,19,96.4,53.6,131.9
				c31.1,31.9,71.7,51.5,115.5,56l-80.7,181l-6.2,14h15.3h121.2h6.4l2.6-5.9l134.9-302l0,0l0,0c10.2-23.6,15.4-48.8,15.4-74.8
				c0-25.6-5-50.3-14.9-73.7c-9.5-22.5-23.2-42.7-40.5-60.1c-17.4-17.4-37.6-31-60.1-40.5C2742.4,5,2717.6,0,2692.1,0L2692.1,0z
				 M2692.1,247.4c-32.2,0-58.4-26.2-58.4-58.4s26.2-58.4,58.4-58.4s58.4,26.2,58.4,58.4S2724.3,247.4,2692.1,247.4L2692.1,247.4z"
				/>
		</g>
		<g>
			<path d="M3070.5,576c-100.1,0-181.6-79-181.6-176c0-44.1,16.9-86,47.6-118.5c-25.2-30-39.1-67.4-39.1-105.9
				c0-92.5,77.7-167.7,173.1-167.7c95.5,0,173.1,75.3,173.1,167.7c0,38.7-13.9,76.1-39.3,106c30.7,32.5,47.6,74.5,47.6,118.5
				c0,47.1-18.9,91.3-53.2,124.5C3164.6,557.7,3119,576,3070.5,576z M3070.6,335.4c-32.7,0-59.2,26.6-59.2,59.2s26.6,59.2,59.2,59.2
				c32.7,0,59.2-26.6,59.2-59.2S3103.3,335.4,3070.6,335.4z M3070.6,125c-27.8,0-50.4,22.6-50.4,50.4s22.6,50.4,50.4,50.4
				c27.8,0,50.4-22.6,50.4-50.4S3098.4,125,3070.6,125z"/>
			<path class="st0" d="M3070.6,12.7c92.8,0,168.1,72.8,168.1,162.8c0,40.5-15.4,77.6-41,106.1c30.5,30.7,49.4,72.3,49.4,118.4
				c0,94.5-79,171-176.6,171c-97.5,0-176.6-76.6-176.6-171c0-46,18.9-87.7,49.4-118.4c-25.3-28.5-40.8-65.5-40.8-106.1
				C2902.5,85.6,2977.8,12.7,3070.6,12.7 M3070.6,230.8c30.5,0,55.4-24.8,55.4-55.4s-24.7-55.4-55.4-55.4
				c-30.5,0-55.4,24.8-55.4,55.4S3040,230.8,3070.6,230.8 M3070.6,458.8c35.5,0,64.2-28.7,64.2-64.2c0-35.5-28.7-64.2-64.2-64.2
				c-35.5,0-64.2,28.7-64.2,64.2C3006.4,430.1,3035.1,458.8,3070.6,458.8 M3070.6,2.8c-24,0-47.3,4.6-69.2,13.5
				c-21.2,8.7-40.2,21.1-56.6,36.9c-16.4,15.9-29.2,34.3-38.2,54.9c-9.3,21.3-14.1,44-14.1,67.4c0,21.1,3.9,41.7,11.6,61.3
				c6.3,16,15,30.9,25.9,44.5c-29.7,33-46,74.8-46,118.7c0,24.5,5,48.2,14.7,70.5c9.4,21.6,22.9,40.9,40,57.5
				c17.1,16.6,37.1,29.6,59.3,38.7c23,9.4,47.4,14.2,72.5,14.2c25.2,0,49.6-4.8,72.5-14.2c22.2-9.1,42.2-22.1,59.3-38.7
				c17.1-16.6,30.6-36,40-57.5c9.8-22.3,14.7-46.1,14.7-70.6c0-43.9-16.3-85.7-46-118.7c24.3-30.1,37.6-67.4,37.6-105.8
				c0-23.4-4.7-46-14.1-67.4c-9-20.6-21.9-39-38.2-54.9c-16.4-15.8-35.4-28.3-56.6-36.9C3117.9,7.3,3094.6,2.8,3070.6,2.8
				L3070.6,2.8z M3070.6,220.8c-25,0-45.4-20.4-45.4-45.4s20.4-45.4,45.4-45.4s45.4,20.4,45.4,45.4S3095.7,220.8,3070.6,220.8
				L3070.6,220.8z M3070.6,448.9c-29.9,0-54.3-24.3-54.3-54.3c0-29.9,24.3-54.3,54.3-54.3c29.9,0,54.3,24.3,54.3,54.3
				C3124.9,424.5,3100.5,448.9,3070.6,448.9L3070.6,448.9z"/>
		</g>
		<g>
			<path d="M3465.8,566.9c-63.2,0-112.5-22.8-146.4-67.9c-35.1-46.6-52.9-116.3-52.9-207.2s17.8-160.5,52.9-207.2
				c33.9-45.1,83.2-67.9,146.4-67.9s112.5,22.8,146.4,67.9c35.1,46.6,52.9,116.3,52.9,207.2s-17.8,160.5-52.9,207.2
				C3578.3,544.1,3529,566.9,3465.8,566.9z M3465.8,128.9c-24.7,0-42.6,12.3-54.4,37.5c-12.6,26.7-18.8,67.7-18.8,125.2v0.6
				c0,57.5,6.2,98.4,18.8,125.2c11.9,25.2,29.7,37.5,54.4,37.5c24.7,0,42.6-12.3,54.4-37.5c12.6-26.7,18.8-67.7,18.8-125.2v-0.6
				c0-57.5-6.2-98.4-18.8-125.2C3508.3,141.2,3490.5,128.9,3465.8,128.9z"/>
			<path class="st0" d="M3465.8,21.8c120.6,0,194.4,85.8,194.4,270.1S3586.5,562,3465.8,562c-120.6,0-194.4-85.8-194.4-270.1
				S3345.2,21.8,3465.8,21.8 M3465.8,459.8c53,0,78.1-51.7,78.2-167.6c0-0.1,0-0.2,0-0.3c0-0.1,0-0.2,0-0.3
				c-0.1-116-25.3-167.6-78.2-167.6c-53,0-78.1,51.7-78.2,167.6c0,0.1,0,0.2,0,0.3c0,0.1,0,0.2,0,0.3
				C3387.7,408.1,3413,459.8,3465.8,459.8 M3465.8,11.8c-31.7,0-60.5,5.8-85.4,17.2c-25.6,11.7-47.4,29.4-65,52.7
				c-35.8,47.5-53.9,118.2-53.9,210.2s18.2,162.6,53.9,210.2c17.5,23.3,39.4,41,65,52.7c24.9,11.4,53.7,17.2,85.4,17.2
				s60.5-5.8,85.4-17.2c25.6-11.7,47.4-29.4,65-52.7c35.8-47.5,53.9-118.2,53.9-210.2c0-91.9-18.2-162.6-53.9-210.2
				c-17.5-23.3-39.4-41-65-52.7C3526.3,17.6,3497.6,11.8,3465.8,11.8L3465.8,11.8z M3465.8,449.9c-22.9,0-38.8-11-49.9-34.6
				c-12.3-26.1-18.3-66.4-18.4-123.1v-0.3v-0.3c0-56.7,6-97,18.3-123.1c11.1-23.6,27-34.6,49.9-34.6c22.9,0,38.8,11,49.9,34.6
				c12.3,26.1,18.3,66.4,18.4,123.1v0.3v0.3c0,56.7-6,97-18.3,123.1C3504.6,438.9,3488.8,449.9,3465.8,449.9L3465.8,449.9z"/>
		</g>
		<g>
			<path d="M2260.3,578.1c-133,0-276.5-109.4-276.5-286.2S2127.3,5.7,2260.3,5.7c26.4,0,47.3,1.5,65.8,4.6l4.1,0.7v135.9l-6.1-1.4
				c-1.6-0.4-3.1-0.8-4.7-1.1c-10.6-2.7-22.5-5.7-55.2-5.7c-30.6,0-64.2,14.3-89.9,38.2c-21.8,20.3-47.7,56.7-47.7,115.1
				s25.9,94.8,47.7,115.1c25.7,23.9,59.3,38.2,89.9,38.2c32.2,0,44.2-3,54.7-5.6c1.8-0.4,3.5-0.9,5.2-1.3l6.1-1.4v135.9l-4.2,0.7
				C2306.9,576.6,2286,578.1,2260.3,578.1z"/>
			<path class="st0" d="M2260.3,10.6c29.4,0,49.3,1.9,65,4.6v125.4c-12.2-2.9-23-7-61-7c-58.6,0-142.5,52.6-142.5,158.2
				c0,105.6,83.9,158.2,142.5,158.2c38.2,0,48.8-4.2,61-7v125.4c-15.7,2.6-35.6,4.6-65,4.6c-130.6,0-271.5-107.5-271.5-281.2
				C1988.8,118.2,2129.7,10.6,2260.3,10.6 M2260.3,0.7c-135.3,0-281.4,111.3-281.4,291.2S2124.9,583,2260.3,583
				c25.9,0,47.1-1.5,66.6-4.7l8.3-1.4v-8.4V443.1v-12.5l-12.1,2.8c-1.8,0.4-3.6,0.9-5.3,1.3c-10.3,2.5-21.9,5.4-53.5,5.4
				c-13.7,0-28.6-3.2-43.2-9.1c-15.7-6.4-30.7-16-43.2-27.7c-21-19.6-46.1-54.8-46.1-111.4s25.1-91.9,46.1-111.4
				c12.6-11.7,27.5-21.3,43.2-27.7c14.6-6,29.6-9.1,43.2-9.1c32.1,0,43.7,2.9,54,5.5c1.5,0.4,3.1,0.8,4.7,1.2l12.2,2.9v-12.6V15.2
				V6.8l-8.3-1.4C2308.1,2.2,2287,0.7,2260.3,0.7L2260.3,0.7z"/>
		</g>
		<g>
			<rect x="3704.5" y="16.8" width="129.5" height="550.1"/>
			<path class="st0" d="M3829.1,21.8v540.1h-119.6V21.8H3829.1 M3839,11.8h-9.9h-119.6h-9.9v9.9v540.1v9.9h9.9h119.6h9.9v-9.9V21.8
				V11.8L3839,11.8z"/>
		</g>
		<g>
			<path d="M1619.4,566.8V16.8h188.2c47.6,0,93,18.5,127.8,52c35.1,33.8,54.5,78.4,54.5,125.5c0,47.1-19.3,91.6-54.5,125.4
				c-34.8,33.5-80.2,51.9-127.8,51.9h-38.2V248.3h28.7c29.5,0,53.6-24,53.6-53.6s-24-53.6-53.6-53.6h-49.3v425.6H1619.4z"/>
			<path class="st0" d="M1807.6,21.8c95.2,0,177.3,77.4,177.3,172.5c0,95.1-82.1,172.3-177.3,172.3h-33.2V253.3h23.8
				c32.3,0,58.5-26.2,58.5-58.5s-26.2-58.5-58.5-58.5h-54.3v425.6h-119.6V21.8h119.6H1807.6 M1807.6,11.8h-63.7h-119.6h-9.9v9.9
				v540.1v9.9h9.9h119.6h9.9v-9.9V146.2h44.3c26.8,0,48.6,21.8,48.6,48.6s-21.8,48.6-48.6,48.6h-23.8h-9.9v9.9v113.3v9.9h9.9h33.2
				c24.6,0,48.7-4.8,71.7-14.3c22.2-9.2,42.2-22.3,59.6-39c17.4-16.8,31.2-36.3,40.8-57.9c10.1-22.6,15.2-46.5,15.2-71.1
				c0-24.6-5.1-48.5-15.2-71.1c-9.6-21.6-23.4-41.1-40.8-58c-17.3-16.7-37.4-29.8-59.6-39C1856.4,16.7,1832.3,11.8,1807.6,11.8
				L1807.6,11.8z"/>
		</g>
	</g>
	<g>
		<g>
			<polygon class="st1" points="85.4,209.1 62.6,183.7 18.3,179.5 147.5,33.6 399.2,314.6 459,29.2 589.2,105.6 488,162.8 
				403.8,564.8 131.7,260.9 94.2,439.7 163.5,503 7,582.2 			"/>
			<path class="st0" d="M462.5,37l116.8,68.6l-95.6,54.1L401,554.1L128.9,250.2L88.7,441.4l66.1,60.4L14,573.1l76.8-365.4L65,179
				l-36.5-3.5L147.5,41l254.5,284.2L462.5,37 M455.6,21.4l-2.8,13.5L396.4,304L154.9,34.4l-7.4-8.3l-7.4,8.4L21.1,168.9l-13,14.6
				l19.4,1.9l32.6,3.1L80,210.6L4.3,571.1L0,591.3l18.5-9.3l140.8-71.3l12.8-6.5l-10.6-9.7l-61.9-56.6l34.9-166.4l259,289.3
				l13.1,14.6l4-19.2L492.4,166l91.7-51.8l15-8.5L584.3,97L467.5,28.4L455.6,21.4L455.6,21.4z"/>
		</g>
		<g>
			<path class="st1" d="M486.5,533.2c-4.1,0-7.4-2.8-8.1-6.8c-0.7-4,1.5-7.7,5.3-9.1c6.3-2.3,12.8-4.3,19.1-6.3
				c25.9-8.2,50.4-16,54.3-34.6l34.3-163.6c-2.3-2.1-12.1-8.8-47.8-14.5c-4.5-0.7-7.6-4.4-7.6-9c0-4.5,3.3-8.2,7.8-8.8
				c36-4.2,57.2-13.4,59.8-25.9l31.6-150.8c2.5-11.5-19.4-28.2-51.9-39.7c-3.8-1.3-6-5-5.3-9c0.7-4,4.1-6.9,8.1-6.9h416.9l43.1,0.1
				l-36.3,173.6c-1.1,4.9-5.1,8.2-10.1,8.2c0,0,0,0,0,0c-5.5,0-9.8-4-10.4-9.4c-8.7-91.2-32.7-131.9-77.9-131.9H805.4l-37,176.4
				h19.1c19.1,0,41.3-10.7,65.9-31.7c21.1-18,38.9-39.4,47.5-50.6c1.5-1.9,3.8-3.1,6.2-3.1c2.4,0,4.7,1.1,6.2,3
				c1.5,1.8,2,4.3,1.5,6.6l-41.9,200c-0.8,3.7-4,6.3-7.8,6.3c-3.3,0-6.1-2-7.3-5c-4.5-11.5-14.1-33.5-27.4-52.1
				c-15.6-21.8-31.6-32.8-47.7-32.8h-22.8l-39.2,186.7h99.2c19.2,0,71.2-11.9,139.9-122.2c1.7-2.8,4.7-4.5,8-4.5
				c2.9,0,5.7,1.3,7.6,3.6c1.8,2.2,2.5,5,1.9,7.9l-32.7,155.9H486.5z"/>
			<path class="st0" d="M1003.2,53.1l37,0.1l-35.1,167.6c-0.6,2.8-2.9,4.2-5.2,4.2c-2.5,0-5.1-1.7-5.4-4.9
				c-7.2-75.3-25.8-136.3-82.9-136.3H801.3l-39.1,186.3h25.2c47,0,98.2-59.5,117.4-84.2c0.6-0.8,1.5-1.2,2.3-1.2
				c1.7,0,3.3,1.5,2.9,3.6l-41.9,200c-0.3,1.5-1.6,2.3-2.9,2.3c-1.1,0-2.2-0.6-2.6-1.8c-9.6-24.4-38.5-88-79.7-88h-0.2H756
				l-41.2,196.7h105.3c58.9,0,117.9-82.4,144.1-124.5c0.9-1.5,2.4-2.2,3.8-2.2c2.7,0,5.3,2.3,4.6,5.6l-31.9,151.8h-1.6h-71.8H708.3
				h-118h-39h-64.9c-3.6,0-4.5-5.1-1.1-6.3c33-11.8,71.1-18.2,76.6-44.6l34.8-165.7c-1.8-4.8-15.2-12.4-52.3-18.4
				c-4.6-0.7-4.5-7.4,0.1-8c28.8-3.4,60.1-11.3,64-29.8l31.6-150.8c3.4-15.8-22.1-33.7-55.1-45.4c-3.5-1.2-2.5-6.3,1.1-6.3h64.9h3.3
				H1003.2 M1003.2,43.1L1003.2,43.1L1003.2,43.1H654.5h-3.3h-64.9c-6.5,0-11.9,4.6-13,11c-1.1,6.3,2.6,12.4,8.6,14.5
				c33.9,12.1,50,27.5,48.6,34l-31.6,150.8c-0.8,3.7-7.1,16.3-55.4,22l-0.1,0l-0.1,0c-7,0.9-12.1,6.7-12.1,13.7
				c-0.1,7,4.9,12.8,11.8,13.9c27.6,4.4,38.8,9.3,43,11.8l-33.7,160.4c-3.3,15.8-26.4,23.1-50.9,30.9c-6.4,2-12.9,4.1-19.3,6.4
				c-6,2.1-9.6,8.3-8.5,14.6c1.1,6.3,6.5,11,13,11h64.9h39h118h159.1h71.8h1.6h8.1l1.7-7.9l31.9-151.8l0-0.1l0-0.1
				c0.8-4.3-0.2-8.7-3-12.1c-2.8-3.4-7-5.4-11.4-5.4c-5,0-9.6,2.6-12.3,6.9c-13.1,21-33.8,51.2-58.4,76.3
				c-28.3,28.9-54.3,43.5-77.2,43.5H727l37.1-176.8h18.6h0.2c14.4,0,29,10.3,43.6,30.7c13,18.1,22.4,39.7,26.8,51
				c1.9,5,6.6,8.2,11.9,8.2c6.2,0,11.4-4.2,12.6-10.2l41.9-200c0.8-3.8-0.1-7.7-2.5-10.7c-2.4-3-6.2-4.9-10.1-4.9
				c-4,0-7.7,1.8-10.2,5c-8.6,11-26.1,32.1-46.8,49.8c-23.4,19.9-45,30.5-62.7,30.5h-13l34.9-166.5h102.1c22.9,0,39.2,11,51.3,34.5
				c10.6,20.6,17.7,51,21.7,92.8c0.8,8.1,7.2,13.9,15.3,13.9c7.3,0,13.4-5,14.9-12l0,0l0,0l35.1-167.6l2.5-11.9l-12.2,0L1003.2,43.1
				L1003.2,43.1z"/>
		</g>
		<g>
			<path class="st1" d="M1254,553.2c-61.7,0-115.7-22.5-156.1-65.1c-48.5-51-67.8-119.9-65.5-165.5c2.4-45.2,15.9-87.6,40-126
				c22.1-35.1,52.6-66.2,90.6-92.4c35.4-24.4,75.6-43.5,119.6-56.8c42-12.7,86.1-19.4,127.6-19.4c6.1,0,12.2,0.1,18.1,0.4l3,0.1
				l56.7,123.9l-77.9,38.1l-78.3-100.9c-28.1,6.7-67.8,20.9-102.7,50.9c-34.5,29.6-56.6,67.9-65.8,113.8
				c-6.1,30.3,4.4,66.5,27.3,94.4c25.6,31.3,62.7,48.5,104.5,48.5c0,0,0,0,0,0c23.2,0,47.6-5.3,72.7-15.7
				c27.8-11.5,56.5-29.5,85.2-53.3c2.4-2.1,5.2-3.2,7.9-3.2c2.8,0,5.2,1.3,6.5,3.6c0.9,1.5,2,4.7-0.5,9.3l-100.6,194.2l-1.9,0.7
				C1325.5,546.3,1288.3,553.2,1254,553.2C1254,553.2,1254,553.2,1254,553.2z"/>
			<path class="st0" d="M1410.2,33c6,0,12,0.1,17.9,0.4l53.5,116.8l-70,34.2l-77.8-100.2c-74.4,16.8-154.9,67.3-175.4,169.2
				c-12.6,63.1,41.5,148.8,136.6,148.8c45.3,0,99.9-19.5,161.1-70.1c1.7-1.4,3.4-2.1,4.7-2.1c2.4,0,3.6,2.1,1.7,5.6l-99.7,192.5
				c-40.4,14.1-76.6,20.2-108.8,20.2c-157.5,0-220.7-145.9-216.6-225.4C1047.1,137.3,1245.9,33,1410.2,33 M1410.2,23
				c-42,0-86.6,6.8-129,19.6c-44.4,13.4-85.1,32.8-120.9,57.5c-38.6,26.6-69.5,58.2-92,93.8c-24.6,39.2-38.4,82.4-40.8,128.4
				c-2.4,46.7,17.4,117.2,66.8,169.2c19.5,20.5,42.1,36.6,67.3,47.8c28,12.5,59.1,18.8,92.5,18.8c34.9,0,72.6-7,112.1-20.7l3.7-1.3
				l1.8-3.5l99.6-192.4c2.6-4.9,2.8-10.1,0.4-14.2c-2.2-3.7-6.3-6-10.8-6c-3.8,0-7.7,1.6-11.1,4.4c-28.4,23.5-56.6,41.2-83.9,52.5
				c-24.5,10.2-48.3,15.3-70.8,15.3c-40.2,0-76-16.6-100.7-46.7c-22-26.8-32-61.4-26.2-90.3c9-44.8,30.6-82.1,64.2-111
				c32.9-28.3,70.2-42.2,97.5-49.1l73.9,95.1l5,6.4l7.3-3.5l70-34.2l8.7-4.3l-4-8.8l-53.5-116.8l-2.5-5.5l-6-0.3
				C1422.6,23.2,1416.4,23,1410.2,23L1410.2,23C1410.2,23,1410.2,23,1410.2,23L1410.2,23z"/>
		</g>
	</g>
</g>
</svg>
