<?xml version="1.0" encoding="utf-8"?>
<!-- Generator: Adobe Illustrator 25.4.1, SVG Export Plug-In . SVG Version: 6.00 Build 0)  -->
<svg version="1.1" id="Layer_1" xmlns="http://www.w3.org/2000/svg" xmlns:xlink="http://www.w3.org/1999/xlink" x="0px" y="0px"
	 viewBox="0 0 3839 1855" style="enable-background:new 0 0 3839 1855;" xml:space="preserve">
<style type="text/css">
	.st0{fill:#E31C1C;}
	.st1{fill:#FFFFFF;}
</style>
<g>
	<g>
		<g>
			<path class="st0" d="M1756.3,712.7v502h-241.8V41.9h368.2v0c0.9,0,1.8,0,2.7,0c50.9,0,100.3,10,146.8,29.6
				c44.9,19,85.2,46.2,119.9,80.8c34.6,34.6,61.8,75,80.8,119.9c19.7,46.5,29.6,95.9,29.6,146.8c0,69.3-18.2,136.8-52.5,195.1
				c-32.9,55.9-79.8,102-135.9,133.7l266.5,466.8l-295.1,0.1L1756.3,712.7z M1869.7,565.4c94.8,0,138-74.1,138-142.8
				c0-68.7-43.2-142.7-138-142.7h-113.4v285.5H1869.7z"/>
			<path class="st1" d="M1885.3,46.8c205.5,0,372.2,166.7,372.2,372.2c0,140.9-74.8,263.8-190.3,327l264.8,463.7l-283.7,0.1
				l-297-515.6v515.6h-231.9V46.8h358.3V47C1880.3,46.9,1882.7,46.8,1885.3,46.8 M1751.3,570.4h118.3c190.6-0.1,190.6-295.4,0-295.4
				h-118.3V570.4 M1887.6,36.9h-2.3h-7.6h-358.3h-9.9v9.9v1163v9.9h9.9h231.9h9.9v-9.9V731.3l278.5,483.5l2.9,5l5.7,0l283.7-0.1
				l17.1,0l-8.5-14.8l-259.8-455.1c54.9-32,100.9-77.9,133.4-133c34.8-59.1,53.2-127.4,53.2-197.6c0-51.6-10.1-101.6-30-148.7
				c-19.2-45.5-46.8-86.4-81.9-121.5c-35.1-35.1-76-62.6-121.5-81.9C1987.6,47.3,1938.4,37.2,1887.6,36.9L1887.6,36.9L1887.6,36.9z
				 M1761.2,284.9h108.4c91.4,0,133,71.4,133,137.7c0,66.4-41.6,137.8-133,137.9h-108.4V284.9L1761.2,284.9z"/>
		</g>
		<g>
			<path class="st0" d="M3233.1,1241.4c-83.1,0-163.7-16.3-239.6-48.4c-73.3-31-139.1-75.4-195.7-131.9
				c-56.5-56.5-100.9-122.3-131.9-195.6c-32.1-75.9-48.4-156.5-48.4-239.6c0-83.1,16.3-163.7,48.4-239.6
				c31-73.3,75.4-139.1,131.9-195.7c56.5-56.5,122.4-100.9,195.7-131.9c75.9-32.1,156.5-48.4,239.6-48.4c49.7,0,99.1,5.9,146.8,17.6
				c46.4,11.4,91.6,28.2,134.1,50.1c83.4,42.9,157.2,105.5,213.2,181l3,4l-194.1,143l-2.9-4c-70.4-94.3-182.6-150.6-300.3-150.6
				c-206.4,0-374.3,168-374.3,374.5c0,206.4,167.9,374.3,374.3,374.3c119.7,0,233.2-58,303.6-155.3l2.9-4l196.5,140l-2.9,4
				c-55.9,77.6-130.1,142-214.7,186.3c-43.1,22.6-88.9,40-136.1,51.7C3333.8,1235.3,3283.6,1241.4,3233.1,1241.4z"/>
			<path class="st1" d="M3233.1,15.4c200.8,0,379,97,490.2,246.8l-186.1,137.1c-69.1-92.6-179.7-152.6-304.2-152.6
				c-209.5,0-379.2,169.9-379.2,379.4s169.7,379.2,379.2,379.2c126.6,0,238.7-62.1,307.6-157.3l188.5,134.2
				c-110.8,154-291.7,254.2-496,254.2c-337.2,0-610.7-273.3-610.7-610.5S2895.9,15.4,3233.1,15.4 M3233.1,5.5
				c-83.8,0-165,16.4-241.5,48.8c-36.8,15.6-72.2,34.8-105.4,57.2c-32.9,22.2-63.8,47.7-91.8,75.8c-28.1,28.1-53.6,59-75.8,91.8
				c-22.4,33.2-41.7,68.6-57.2,105.4c-32.4,76.5-48.8,157.8-48.8,241.5c0,83.7,16.4,165,48.8,241.5c15.6,36.8,34.8,72.2,57.2,105.4
				c22.2,32.8,47.7,63.7,75.8,91.8c28.1,28.1,59,53.6,91.8,75.7c33.2,22.4,68.6,41.6,105.4,57.2c76.5,32.3,157.8,48.8,241.5,48.8
				c50.9,0,101.5-6.2,150.5-18.4c47.5-11.8,93.7-29.4,137.2-52.2c42.7-22.4,82.9-49.8,119.3-81.5c36.3-31.6,69-67.4,97.1-106.4
				l5.8-8.1l-8.1-5.8l-188.5-134.2l-8-5.7l-5.8,8c-69.5,95.9-181.4,153.2-299.6,153.2c-203.6,0-369.3-165.7-369.3-369.3
				c0-203.7,165.7-369.5,369.3-369.5c117.8,0,225.8,54.2,296.3,148.6l5.9,7.9l7.9-5.8l186.1-137.1l8-5.9l-5.9-8
				c-28.2-38-60.8-72.8-96.8-103.4c-36.2-30.8-76-57.4-118.1-79.1c-42.9-22.1-88.4-39.1-135.2-50.5C3333,11.4,3283.2,5.5,3233.1,5.5
				L3233.1,5.5z"/>
		</g>
		<g>
			<rect x="2327" y="41.8" class="st0" width="243.1" height="1173"/>
			<path class="st1" d="M2565.2,46.7v1163.1H2332v-0.1V46.7H2565.2 M2575.1,36.8h-9.9H2332h-9.9v9.9v1163v0.1v9.9h9.9h233.2h9.9
				v-9.9V46.7V36.8L2575.1,36.8z"/>
		</g>
		<g>
			<path class="st0" d="M425,1844.5l-22.1-52.4h-94l-22,52.4h-63.5L335,1585.2h44.7l108.5,259.3H425z M384.7,1742.5l-28.2-71.3
				l-28.2,71.3H384.7z"/>
			<path class="st1" d="M376.4,1590.1l104.4,249.4h-52.4l-22.1-52.4H305.6l-22,52.4h-52.7l107.3-249.4H376.4 M321,1747.4h71
				l-35.5-89.8L321,1747.4 M383,1580.2h-6.6h-38.1h-6.5l-2.6,6l-107.3,249.4l-6,13.8h15.1h52.7h6.6l2.6-6.1l19.5-46.3h87.4
				l19.6,46.3l2.6,6.1h6.6h52.4h14.9l-5.8-13.8l-104.4-249.4L383,1580.2L383,1580.2z M335.6,1737.5l20.9-52.9l20.9,52.9H335.6
				L335.6,1737.5z"/>
		</g>
		<g>
			<polygon class="st0" points="858.4,1844.5 858.4,1636.9 802.4,1636.9 802.4,1585.2 973.1,1585.2 973.1,1636.9 917,1636.9 
				917,1844.5 			"/>
			<path class="st1" d="M968.2,1590.1v41.9H912v207.5h-48.6V1632h-56v-41.9H968.2 M978.1,1580.2h-9.9H807.4h-9.9v9.9v41.9v9.9h9.9
				h46.1v197.6v9.9h9.9H912h9.9v-9.9v-197.6h46.2h9.9v-9.9v-41.9V1580.2L978.1,1580.2z"/>
		</g>
		<g>
			<polygon class="st0" points="1554.7,1844.4 1534.2,1703.7 1472.8,1844.4 1450,1844.4 1391.5,1703.6 1368.3,1844.4 1308.8,1844.4 
				1356.8,1585.1 1399.4,1585.1 1462.4,1735.9 1528.1,1585.1 1570.7,1585.1 1614.2,1844.4 			"/>
			<path class="st1" d="M1566.5,1590l41.9,249.4H1559l-22.4-153.7l-67,153.7h-16.3l-63.9-153.7l-25.4,153.7h-49.3L1361,1590h35.1
				l66.2,158.5l69.1-158.5H1566.5 M1574.9,1580.1h-8.4h-35.1h-6.5l-2.6,6l-59.8,137.2l-57.2-137.1l-2.5-6.1h-6.6H1361h-8.3l-1.5,8.1
				l-46.2,249.4l-2.2,11.7h11.9h49.3h8.4l1.4-8.3l19.7-119.5l50.6,121.7l2.5,6.1h6.6h16.3h6.5l2.6-6l53.1-121.8l17.4,119.2l1.2,8.5
				h8.6h49.4h11.7l-1.9-11.6l-41.9-249.4L1574.9,1580.1L1574.9,1580.1z"/>
		</g>
		<g>
			<path class="st0" d="M2110,1850c-39.2,0-74.5-13.5-99.5-38c-24.9-24.4-38.6-58.9-38.6-97.1c0-38.2,13.7-72.7,38.6-97.2
				c25-24.6,60.3-38.2,99.5-38.2c39.2,0,74.5,13.6,99.5,38.2c24.9,24.5,38.6,59,38.6,97.2c0,38.1-13.7,72.6-38.6,97.1
				C2184.5,1836.5,2149.2,1850,2110,1850z M2110,1633.5c-46,0-78.1,33.5-78.1,81.4c0,47.7,32.1,81,78.1,81s78.1-33.3,78.1-81
				C2188.1,1667,2156,1633.5,2110,1633.5z"/>
			<path class="st1" d="M2110,1584.5c78.6,0,133.1,54.6,133.1,130.4s-54.6,130.1-133.1,130.1c-78.5,0-133.1-54.2-133.1-130.1
				S2031.4,1584.5,2110,1584.5 M2110,1800.9c48.6,0,83-35.5,83-86c0-50.5-34.4-86.4-83-86.4c-48.6,0-83,35.9-83,86.4
				S2061.4,1800.9,2110,1800.9 M2110,1574.5c-20.5,0-39.9,3.5-57.5,10.4c-17.3,6.7-32.6,16.6-45.4,29.2
				c-12.8,12.6-22.8,27.6-29.6,44.6c-6.9,17.3-10.5,36.2-10.5,56.1c0,20,3.5,38.8,10.5,56.1c6.8,17,16.8,32,29.6,44.5
				c12.8,12.6,28.1,22.4,45.4,29.1c17.7,6.8,37,10.3,57.5,10.3c20.5,0,39.9-3.5,57.5-10.3c17.3-6.7,32.6-16.5,45.4-29.1
				c12.8-12.6,22.8-27.6,29.6-44.6c6.9-17.3,10.5-36.1,10.5-56.1c0-19.9-3.5-38.8-10.5-56.1c-6.8-17-16.8-32-29.6-44.7
				c-12.8-12.6-28.1-22.5-45.4-29.2C2149.9,1578,2130.5,1574.5,2110,1574.5L2110,1574.5z M2110,1791c-43,0-73.1-31.3-73.1-76.1
				c0-45,30.1-76.5,73.1-76.5s73.1,31.4,73.1,76.5C2183.1,1759.7,2153,1791,2110,1791L2110,1791z"/>
		</g>
		<g>
			<path class="st0" d="M2694.8,1850c-46.5,0-74.6-26.8-90.1-49.3l-2.4-3.5l39.7-37.8l3,6c11.1,22.5,32,30.5,47.9,30.5
				c20.1,0,33.5-11.8,33.5-29.5c0-7.7-2.5-13.5-8.2-18.8c-8.1-7.5-21.6-12.1-34.7-16.6l-1.9-0.7c-14.9-5.1-30.4-11.3-43.2-22.7
				c-14.3-12.4-21.5-29.2-21.5-50c0-39,26.3-78.3,85-78.3c29.1,0,54.7,10.6,74.2,30.7l3,3.1l-32.1,41.9l-3.9-5.2
				c-9.8-13-21.8-19.3-36.8-19.3c-21.7,0-29.5,12.5-29.5,24.2c0,5.3,1.9,9.4,6.2,13.1l0.1,0.1c5.1,4.8,12.3,7.5,28.2,13.1
				c20.8,7.2,39.1,14.2,52.2,26.1c10.5,9.4,22.9,26.8,22.9,56c0,25.3-8.8,47-25.6,62.8C2744.2,1841.7,2721.4,1850,2694.8,1850z"/>
			<path class="st1" d="M2701.9,1584.4c15.7,0,45.2,3,70.6,29.2l-25.5,33.3c-14.6-19.4-31.7-21.3-40.8-21.3
				c-26.2,0-34.4,16.5-34.4,29.2c0,6,1.9,11.6,7.8,16.9c6,5.7,14.2,8.6,30,14.2c19.4,6.7,37.8,13.5,50.5,25.1
				c11.2,10.1,21.3,26.9,21.3,52.4c0,48.6-35.1,81.8-86.7,81.8c-46,0-72.9-28.1-86-47.1l31.7-30.3c12,24.3,34.8,33.2,52.4,33.2
				c22,0,38.5-13.5,38.5-34.4c0-8.9-3-16.1-9.7-22.4c-9.3-8.6-24.3-13.5-38.5-18.4c-13.1-4.5-28.8-10.4-41.5-21.7
				c-8.2-7.1-19.8-20.9-19.8-46.3C2621.9,1621.1,2646.6,1584.4,2701.9,1584.4 M2701.9,1574.4c-28.3,0-51.8,9-68,26
				c-14.2,14.9-22,35.2-22,57.2c0,22.3,7.8,40.4,23.2,53.8c13.4,12,29.5,18.4,44.8,23.7l1.9,0.7c12.6,4.3,25.6,8.8,33,15.6
				c4.6,4.3,6.6,8.9,6.6,15.2c0,14.9-11.2,24.5-28.6,24.5c-14.4,0-33.4-7.3-43.5-27.7l-6-12.1l-9.8,9.3l-31.7,30.3l-6.1,5.8l4.8,7
				c9.4,13.6,20.6,24.9,33.3,33.3c18,12,38.5,18.1,60.9,18.1c27.9,0,51.9-8.8,69.5-25.4c8.7-8.2,15.5-18.1,20.1-29.3
				c4.7-11.3,7-23.8,7-37.1c0-31-13.4-49.6-24.6-59.7c-13.8-12.6-32.6-19.7-53.9-27.1c-14.7-5.2-22-7.9-26.4-12l-0.1-0.1l-0.1-0.1
				c-3.7-3.3-4.5-6.1-4.5-9.4c0-5.8,2.4-19.2,24.5-19.2c13.3,0,24.1,5.7,32.8,17.4l7.9,10.5l8-10.4l25.5-33.3l5.2-6.8l-6-6.1
				C2759.2,1585.6,2732.4,1574.4,2701.9,1574.4L2701.9,1574.4z"/>
		</g>
		<g>
			<path class="st0" d="M3213.5,1844.5v-47.1h-121.9v-28.2l126.1-184h51.3v163.4h29.2v48.8H3269v47.1H3213.5z M3213.5,1748.5v-73.8
				l-50,73.8H3213.5z"/>
			<path class="st1" d="M3264.1,1590.1v163.4h29.2v38.9h-29.2v47.1h-45.6v-47.1h-121.9v-21.7l123.8-180.5H3264.1 M3154.1,1753.5
				h64.3v-94.9L3154.1,1753.5 M3274,1580.2h-9.9h-43.7h-5.2l-3,4.3L3088.3,1765l-1.7,2.5v3.1v21.7v9.9h9.9h112v37.2v9.9h9.9h45.6
				h9.9v-9.9v-37.2h19.2h9.9v-9.9v-38.9v-9.9h-9.9H3274v-153.5V1580.2L3274,1580.2z M3172.8,1743.6l35.7-52.7v52.7H3172.8
				L3172.8,1743.6z"/>
		</g>
		<g>
			<path class="st0" d="M3397.2,1849.9c-54,0-91.7-32.3-91.7-78.6c0-27.5,14.7-51.1,38.1-62.8c-19-12.6-29.6-32-29.6-54.6
				c0-20.1,7.5-38.5,21.1-51.9c15-14.8,36.5-22.6,62.1-22.6c25.6,0,47.1,7.8,62.1,22.6c13.6,13.4,21.1,31.8,21.1,51.9
				c0,22.6-10.7,42-29.6,54.6c23.5,11.7,38.1,35.4,38.1,62.8C3488.8,1817.6,3451.1,1849.9,3397.2,1849.9z M3397.2,1734.2
				c-19.2,0-33.1,14.3-33.1,33.9c0,19.7,13.9,33.9,33.1,33.9c19.2,0,33.1-14.3,33.1-33.9C3430.3,1748.4,3416.4,1734.2,3397.2,1734.2
				z M3397.1,1624.5c-17.9,0-29.9,12-29.9,29.9s12,29.9,29.9,29.9c17.8-0.1,29.9-12.1,29.9-29.9
				C3426.9,1636.5,3414.9,1624.5,3397.1,1624.5z"/>
			<path class="st1" d="M3397.2,1584.4c52,0,78.2,33.2,78.2,69.5c0,27.7-16.9,46-35.9,55.4c27.6,9,44.4,33.3,44.4,62.1
				c0,41.2-32.9,73.6-86.7,73.6c-53.9,0-86.7-32.5-86.7-73.6c0-28.8,16.9-53.1,44.4-62.1c-19-9.3-35.9-27.7-35.9-55.4
				C3319,1617.6,3345.2,1584.4,3397.2,1584.4 M3397.1,1689.2c20.6-0.1,34.8-14.3,34.8-34.8c0-20.5-14.2-34.8-34.8-34.8
				c-20.5,0-34.8,14.2-34.8,34.8C3362.3,1674.9,3376.4,1689.2,3397.1,1689.2 M3397.2,1807c21.6,0,38.1-16.2,38.1-38.9
				c0-22.8-16.5-38.9-38.1-38.9c-21.6,0-38.1,16.1-38.1,38.9S3375.6,1807,3397.2,1807 M3397.2,1574.4c-26.9,0-49.6,8.3-65.5,24
				c-14.5,14.3-22.6,34-22.6,55.5c0,15,4.3,28.6,12.7,40.3c3.6,5,7.9,9.6,12.8,13.7c-8,5.1-14.9,11.5-20.3,19.2
				c-9,12.6-13.7,27.9-13.7,44.2c0,23.3,9.4,44.5,26.5,59.6c17.6,15.6,41.9,23.9,70.1,23.9c28.2,0,52.5-8.3,70.1-23.9
				c17.1-15.2,26.5-36.4,26.5-59.7c0-16.3-4.7-31.6-13.7-44.2c-5.5-7.7-12.3-14.2-20.3-19.2c4.9-4.1,9.2-8.7,12.8-13.7
				c8.4-11.7,12.7-25.3,12.7-40.3c0-21.4-8-41.1-22.6-55.5C3446.8,1582.7,3424.1,1574.4,3397.2,1574.4L3397.2,1574.4z
				 M3397.1,1679.3c-15.1,0-24.9-9.8-24.9-24.9c0-15.1,9.8-24.9,24.9-24.9c15.1,0,24.9,9.8,24.9,24.9
				C3422,1669.4,3412.2,1679.2,3397.1,1679.3L3397.1,1679.3z M3397.2,1797c-16.6,0-28.2-11.9-28.2-29c0-17.1,11.6-29,28.2-29
				c16.6,0,28.2,11.9,28.2,29C3425.3,1785.1,3413.8,1797,3397.2,1797L3397.2,1797z"/>
		</g>
		<g>
			<polygon class="st0" points="3662.4,1844.4 3575.8,1735.1 3575.5,1735.3 3575.5,1844.4 3517,1844.4 3517,1585.1 3575.5,1585.1 
				3575.5,1682.2 3659.9,1585.1 3734.7,1585.1 3624.7,1705.4 3739.6,1844.4 			"/>
			<path class="st1" d="M3723.4,1590l-105.3,115.2l111,134.2h-64.3l-88.6-111.8l-5.7,5.7v106.1H3522V1590h48.6v105.4l91.6-105.4
				H3723.4 M3746,1580.1h-22.5h-61.3h-4.5l-3,3.4l-74.1,85.4V1590v-9.9h-9.9H3522h-9.9v9.9v249.4v9.9h9.9h48.6h9.9v-9.9V1749
				l76.5,96.6l3,3.8h4.8h64.3h21.1l-13.4-16.2l-105.5-127.6l99.5-108.8L3746,1580.1L3746,1580.1z"/>
		</g>
		<g>
			<path class="st0" d="M10,1487.3l355-469.7c-43.7-53.6-77.8-113.6-101.4-178.3c-25-68.2-37.6-140-37.6-213.2
				c0-83.8,16.4-165.2,48.8-241.7c31.3-74,76.1-140.4,133.1-197.4c57-57,123.5-101.8,197.4-133.1C681.9,21.4,763.2,5,847,5
				c85.2,0,167.7,16.9,245.3,50.3l10.2-13.5h323l-122.8,162.5C1409.3,319.4,1467.9,469,1467.9,626c0,83.8-16.4,165.2-48.8,241.7
				c-31.3,73.9-76,140.3-133,197.3c-57,57-123.4,101.8-197.3,133c-76.5,32.4-157.9,48.8-241.7,48.8c-50.4,0-100.6-6.1-149.1-18
				c-45.8-11.3-90.3-27.8-132.3-49.3l-59.2,78.3H3834v229.3H10z M716.1,980.5c41.9,15.5,85.9,23.3,131,23.3
				c208.3,0,377.8-169.5,377.8-377.8c0-80.9-25.1-157.7-72.6-222.7L716.1,980.5z M847,248.2c-208.3,0-377.8,169.5-377.8,377.8
				c0,66,17.2,130.8,49.9,187.7l419.1-554.5C908.5,251.9,877.9,248.2,847,248.2z"/>
			<path class="st1" d="M847,9.9c87.8,0,171.3,18.4,246.9,51.5l11.1-14.7h310.6l-119.3,157.9C1399.7,314.8,1462.9,463,1462.9,626
				c0,340.2-275.7,615.9-615.9,615.9c-102,0-198.2-24.8-282.9-68.6l-67.7,89.6h3332.6v219.4H19.9l351.4-464.9
				C283.6,911,230.9,774.7,230.9,626C230.9,285.8,506.8,9.9,847,9.9 M518.5,822.6l428.1-566.3c-31.8-8.5-65.1-13.1-99.6-13.1
				c-211.4,0-382.8,171.4-382.8,382.8C464.2,697.9,484.1,765.2,518.5,822.6 M847,1008.8c211.4,0,382.8-171.4,382.8-382.8
				c0-86.7-28.9-166.7-77.5-230.9L708.1,982.8C751.2,999.6,798,1008.8,847,1008.8 M847,0c-84.5,0-166.5,16.6-243.7,49.2
				c-37.1,15.7-72.9,35.1-106.3,57.7c-33.1,22.4-64.3,48.1-92.6,76.4c-28.3,28.3-54,59.5-76.4,92.6c-22.6,33.5-42,69.2-57.7,106.3
				C237.6,459.5,221,541.5,221,626c0,73.9,12.8,146.2,37.9,214.9c23.4,64,57,123.4,99.8,176.7L12,1476.3l-12,15.9h19.9h3809.1h9.9
				v-9.9v-219.4v-9.9h-9.9H516.4l50.7-67c41.3,20.7,84.9,36.7,129.7,47.8c48.9,12,99.5,18.2,150.3,18.2
				c84.5,0,166.5-16.5,243.6-49.2c37.1-15.7,72.9-35.1,106.3-57.7c33.1-22.4,64.3-48.1,92.6-76.4c28.3-28.3,54-59.5,76.4-92.6
				c22.6-33.5,42-69.2,57.7-106.3c32.6-77.2,49.2-159.1,49.2-243.6c0-156.9-58-306.5-163.6-422.1l114.3-151.2l12-15.9h-19.9H1105
				h-4.9l-3,3.9l-6.4,8.5c-36.6-15.5-74.8-27.5-113.6-35.7C934.6,4.6,890.9,0,847,0L847,0z M519.7,804.7
				c-29.8-54.6-45.5-116-45.5-178.7c0-205.6,167.3-372.9,372.9-372.9c27.9,0,55.6,3.1,82.6,9.2L519.7,804.7L519.7,804.7z
				 M724.1,978.2l428.1-566.4c44.3,62.9,67.7,136.7,67.7,214.3c0,205.6-167.3,372.9-372.9,372.9
				C804.8,998.9,763.5,991.9,724.1,978.2L724.1,978.2z"/>
		</g>
	</g>
	<g>
		<g>
			<g>
				<path d="M1519.4,46.7v1163.1h231.9V694.2l297,515.6l283.7-0.1L2067.3,746c115.5-63.2,190.3-186.1,190.3-327
					c0-205.5-166.6-372.2-372.2-372.2c-2.6,0-5.1,0.1-7.6,0.2v-0.2L1519.4,46.7L1519.4,46.7z M1751.3,275h118.3
					c190.6,0,190.6,295.3,0,295.4h-118.3V275z"/>
				<path d="M847,9.9C506.8,9.9,230.9,285.8,230.9,626c0,340.1,275.9,615.9,616.1,615.9s615.9-275.7,615.9-615.9S1187.3,9.9,847,9.9
					L847,9.9z M847,243.2c211.4,0,382.8,171.4,382.8,382.8s-171.4,382.8-382.8,382.8S464.2,837.4,464.2,626
					C464.2,414.6,635.6,243.2,847,243.2L847,243.2z"/>
				<path d="M3233.1,15.4c-337.2,0-610.7,273.5-610.7,610.7s273.5,610.5,610.7,610.5c204.2,0,385.2-100.3,496-254.2L3540.6,848
					c-68.9,95.2-181,157.3-307.6,157.3c-209.5,0-379.2-169.7-379.2-379.2s169.7-379.4,379.2-379.4c124.5,0,235.1,59.9,304.2,152.6
					l186.1-137.1C3612.1,112.4,3433.9,15.4,3233.1,15.4L3233.1,15.4z"/>
				<rect x="2332" y="46.7" width="233.2" height="1163.1"/>
			</g>
			<g>
				<g>
					<g>
						<path d="M406.2,1787.1H305.6l-22,52.4h-52.7l107.3-249.4h38.1l104.4,249.4h-52.4L406.2,1787.1z M392,1747.4l-35.5-89.8
							l-35.5,89.8H392z"/>
						<path d="M912,1632v207.5h-48.6V1632h-56v-41.9h160.8v41.9H912z"/>
						<path d="M1361,1590h35.1l66.2,158.5l69.1-158.5h35.1l41.9,249.4H1559l-22.4-153.7l-67,153.7h-16.3l-63.9-153.7l-25.4,153.7
							h-49.3L1361,1590z"/>
						<path d="M2243.1,1714.9c0,75.9-54.6,130.1-133.1,130.1c-78.5,0-133.1-54.2-133.1-130.1s54.6-130.4,133.1-130.4
							C2188.6,1584.5,2243.1,1639,2243.1,1714.9z M2193,1714.9c0-50.5-34.4-86.4-83-86.4s-83,35.9-83,86.4s34.4,86,83,86
							S2193,1765.4,2193,1714.9z"/>
						<path d="M2747,1646.9c-14.6-19.4-31.7-21.3-40.8-21.3c-26.2,0-34.4,16.5-34.4,29.2c0,6,1.9,11.6,7.8,16.9
							c6,5.7,14.2,8.6,30,14.2c19.4,6.7,37.8,13.5,50.5,25.1c11.2,10.1,21.3,26.9,21.3,52.4c0,48.6-35.1,81.8-86.7,81.8
							c-46,0-72.9-28.1-86-47.1l31.7-30.3c12,24.3,34.8,33.2,52.4,33.2c22,0,38.5-13.5,38.5-34.4c0-8.9-3-16.1-9.7-22.4
							c-9.3-8.6-24.3-13.5-38.5-18.4c-13.1-4.5-28.8-10.4-41.5-21.7c-8.2-7.1-19.8-20.9-19.8-46.3c0-36.6,24.7-73.3,80.1-73.3
							c15.7,0,45.2,3,70.6,29.2L2747,1646.9z"/>
					</g>
				</g>
				<g>
					<path d="M3264.1,1753.5h29.2v38.9h-29.2v47.1h-45.6v-47.1h-121.9v-21.7l123.8-180.5h43.7L3264.1,1753.5L3264.1,1753.5z
						 M3218.4,1753.5v-94.9l-64.3,94.9H3218.4z"/>
					<path d="M3483.9,1771.4c0,41.2-32.9,73.6-86.7,73.6c-53.9,0-86.7-32.5-86.7-73.6c0-28.8,16.9-53.1,44.4-62.1
						c-19-9.3-35.9-27.7-35.9-55.4c0-36.3,26.2-69.5,78.2-69.5c52,0,78.2,33.2,78.2,69.5c0,27.7-16.9,46-35.9,55.4
						C3467,1718.3,3483.9,1742.6,3483.9,1771.4z M3435.3,1768.1c0-22.8-16.5-38.9-38.1-38.9c-21.6,0-38.1,16.1-38.1,38.9
						s16.5,38.9,38.1,38.9C3418.8,1807,3435.3,1790.8,3435.3,1768.1z M3431.9,1654.4c0-20.5-14.2-34.8-34.8-34.8
						c-20.5,0-34.8,14.2-34.8,34.8c0,20.5,14.2,34.8,34.8,34.8C3417.7,1689.1,3431.9,1674.9,3431.9,1654.4z"/>
					<path d="M3570.6,1695.5l91.6-105.4h61.3l-105.3,115.2l111,134.2h-64.3l-88.6-111.8l-5.7,5.7v106.1H3522V1590h48.6V1695.5z"/>
				</g>
			</g>
		</g>
		<polygon class="st0" points="496.5,1262.9 1415.6,46.7 1105,46.7 19.9,1482.3 3829.1,1482.3 3829.1,1262.9 		"/>
	</g>
</g>
</svg>
