<?xml version="1.0" encoding="utf-8"?>
<!-- Generator: Adobe Illustrator 26.0.3, SVG Export Plug-In . SVG Version: 6.00 Build 0)  -->
<svg version="1.1" id="Layer_1" xmlns="http://www.w3.org/2000/svg" xmlns:xlink="http://www.w3.org/1999/xlink" x="0px" y="0px"
	 viewBox="0 0 3839 1551" style="enable-background:new 0 0 3839 1551;" xml:space="preserve">
<style type="text/css">
	.st0{fill:#FFFFFF;}
	.st1{display:none;fill:#FFFFFF;}
	.st2{fill:url(#SVGID_1_);}
	.st3{fill:#0078D4;}
	.st4{fill:#0079D7;}
	.st5{fill:#FF0000;}
	.st6{fill:#184890;}
	.st7{fill:#463C7F;}
	.st8{fill:#008592;}
	.st9{fill:#E1C721;}
	.st10{fill:none;stroke:#221F1F;stroke-width:2.1913;stroke-miterlimit:10;}
	.st11{fill:#D32027;}
	.st12{fill:none;stroke:#E1C721;stroke-width:31.2067;stroke-linecap:round;stroke-miterlimit:10;}
	.st13{fill:none;stroke:#221F1F;stroke-width:2.2182;stroke-miterlimit:10;}
	.st14{fill:none;stroke:#E1C721;stroke-width:31.5897;stroke-linecap:round;stroke-miterlimit:10;}
</style>
<g>
	<g>
		<g>
			<path class="st0" d="M1405.7,306.5c-3.5,0-6.9-0.8-10.1-2.5c-8.6-4.3-11.9-13.7-9-25.6c4.3-18,21.7-39,37.6-39
				c3.9,0,7.4,1.2,10.6,3.6c7.5,5.7,9.1,17.6,4.3,31.9C1433.8,290.1,1421.2,306.5,1405.7,306.5
				C1405.7,306.5,1405.7,306.5,1405.7,306.5z"/>
			<path class="st0" d="M1424.1,244.3c2.7,0,5.2,0.8,7.5,2.6c14.2,10.9-4,54.6-26,54.6c-2.6,0-5.2-0.6-7.9-2
				C1377.4,289.2,1404,244.3,1424.1,244.3 M1424.1,234.4c-18.4,0-37.6,22.6-42.4,42.8c-3.4,14.2,1,25.8,11.6,31.2c4,2,8.1,3,12.4,3
				c8.6,0,17.1-4.1,24.4-12c5.8-6.2,10.6-14.4,13.6-23.1c5.5-16.3,3.3-30.3-6-37.4C1433.8,236,1429.1,234.4,1424.1,234.4
				L1424.1,234.4z"/>
		</g>
		<g>
			<path class="st0" d="M1483.8,355.5c-9.1,0-16-3.5-19.8-10.1c-2.8-4.9-2.6-10.6,0.5-16c8-13.8,33.4-24.4,50-24.4
				c14,0,18.3,7,19.6,11.2c1,3.3,1.2,8.8-3.9,15.7C1520.9,344.4,1499.3,355.5,1483.8,355.5C1483.8,355.5,1483.8,355.5,1483.8,355.5z
				"/>
			<path class="st0" d="M1514.5,309.9c7.4,0,13.1,2.3,14.8,7.8c4,12.7-25.4,32.8-45.5,32.8c-6.7,0-12.4-2.2-15.5-7.6
				C1459.8,328.1,1493.6,309.9,1514.5,309.9 M1514.5,300c-18.3,0-45.4,11.5-54.3,26.9c-4.1,7-4.2,14.5-0.5,20.9
				c4.7,8.1,13.2,12.6,24.1,12.6c17.1,0,40.2-11.7,50.4-25.6c6.3-8.6,6-15.7,4.6-20.1C1537.4,310.3,1532.2,300,1514.5,300
				L1514.5,300z"/>
		</g>
	</g>
	<g>
		<path class="st0" d="M2339.5,61.7c-11.3-36-45.3-61.7-84.3-61.7c-39.1,0-73,25.7-84.3,61.7l-29.8,88.4V5.1h-156.2
			c-27.8,0-53.4,11.3-73,29.8V5.1h-160.4c-29.8,0-56.5,12.3-76.1,32.9V5.1h-152.1c-64.8,0-118.2,53.5-118.2,118.2
			c0,30.8,12.3,59.6,31.9,80.2H1405v137.7h152.1c43.2,0,80.2-22.6,101.8-57.6c17.5,33.9,52.4,57.6,93.5,57.6h161.4v-29.8
			c18.5,18.5,44.2,29.8,73,29.8H2433L2339.5,61.7z"/>
		<g>
			<g>
				<path class="st6" d="M1557.2,228.2h-128.5v40.1h128.5c24.7,0,45.2-20.6,45.2-45.2s-20.6-45.2-45.2-45.2h-32.9
					c-29.8,0-54.5-24.7-54.5-54.5s24.7-54.5,54.5-54.5h127.5V28.8h-128.5c-52.4,0-94.6,42.1-94.6,94.6s42.1,94.6,94.6,94.6h32.9
					c3.1,0,5.1,2.1,5.1,5.1C1561.3,226.2,1559.2,228.2,1557.2,228.2z"/>
				<path class="st6" d="M1523.3,119.3h128.5V78.1h-128.5c-24.7,0-45.2,20.6-45.2,45.2s20.6,45.2,45.2,45.2h32.9
					c29.8,0,54.5,24.7,54.5,54.5s-24.7,54.5-54.5,54.5h-127.5v40.1h128.5c52.4,0,94.6-42.1,94.6-94.6s-42.1-94.6-94.6-94.6h-32.9
					c-3.1,0-5.1-2.1-5.1-5.1C1519.1,121.3,1521.2,119.3,1523.3,119.3z"/>
			</g>
			<g>
				<path class="st6" d="M1984.8,78.1c-17.5,0-30.8,13.4-30.8,30.8v128.5c0,17.5,13.4,30.8,30.8,30.8h83.3v-90.5h-63.7v40.1h23.6
					v9.3h-23.6c-5.1,0-9.3-4.1-9.3-9.3v-90.5c0-5.1,4.1-9.3,9.3-9.3h114.1V78.1H1984.8z"/>
				<path class="st6" d="M2237.7,268.3h93.5l-63.7-189.1c-2.1-5.1-6.2-9.3-12.3-9.3c-5.1,0-10.3,4.1-12.3,8.2l-82.2,239.5h47.3
					l28.8-85.3v36L2237.7,268.3L2237.7,268.3z M2254.1,181.9l13.4,41.1h-27.8L2254.1,181.9z"/>
				<path class="st6" d="M2316.8,70.9c-8.2-26.7-32.9-47.3-62.7-47.3c-29.8,0-54.5,19.5-61.7,46.3l-75,220V128.5h-113.1v40.1h74v109
					h-92.5c-22.6,0-40.1-18.5-40.1-40.1V109c0-22.6,18.5-40.1,40.1-40.1h132.6V28.8h-133.6c-44.2,0-80.2,36-80.2,80.2v128.5
					c0,44.2,36,80.2,80.2,80.2h165.5L2233.6,76c3.1-9.3,11.3-15.4,21.6-15.4c10.3,0,18.5,6.2,21.6,15.4l67.9,201.5h-106.9v40.1
					h162.4l0,0L2316.8,70.9z"/>
			</g>
			<g>
				<path class="st6" d="M1751.4,277.6c-22.6,0-40.1-18.5-40.1-40.1V109c0-22.6,18.5-40.1,40.1-40.1h137.7V28.8h-137.7
					c-44.2,0-80.2,36-80.2,80.2v128.5c0,44.2,36,80.2,80.2,80.2h137.7v-40.1L1751.4,277.6L1751.4,277.6z"/>
				<path class="st6" d="M1760.7,219h99.7v-40.1h-139.8v59.6c0,17.5,13.4,30.8,30.8,30.8h137.7v-40.1H1770
					C1764.8,228.2,1760.7,224.1,1760.7,219z"/>
				<path class="st6" d="M1860.4,128.5h-99.7c0-5.1,4.1-9.3,9.3-9.3h118.2V78.1h-136.7c-17.5,0-30.8,13.4-30.8,30.8v59.6h139.8
					C1860.4,168.6,1860.4,128.5,1860.4,128.5z"/>
			</g>
		</g>
	</g>
	<g>
		<g>
			<path class="st0" d="M1302.6,294.4c-15-0.1-21.8-17.1-21.7-32.8c0-17.7,8.2-30.1,19.8-30.1c0.3,0,0.7,0,1,0
				c14.1,0.8,21,22.3,20.5,37.4C1321.7,284.6,1314.3,294.4,1302.6,294.4C1302.7,294.4,1302.6,294.4,1302.6,294.4z"/>
			<path class="st0" d="M1300.7,236.4c0.2,0,0.5,0,0.7,0c17,1,24.4,53,1.3,53c0,0,0,0-0.1,0C1280.9,289.3,1280.3,236.4,1300.7,236.4
				 M1300.7,226.5c-8.3,0-15.5,4.8-19.9,13.1c-3.1,5.9-4.9,13.7-4.9,22c0,8.8,1.9,17.2,5.3,23.7c4.8,9,12.4,14,21.3,14.1l0.1,0
				c14.3,0,23.9-11.9,24.4-30.3c0.3-8.8-1.6-18.2-5-25.8c-4.7-10.3-11.8-16.2-20.2-16.7C1301.5,226.5,1301.1,226.5,1300.7,226.5
				L1300.7,226.5z"/>
		</g>
		<g>
			<path class="st0" d="M1222.9,322.5c-15.5,0-40.9-21.9-47.8-37.6c-3.5-8-1.5-12.7,0.9-15.3c1.6-1.8,4.7-3.9,10-3.9
				c15,0,39.7,16.2,47.9,31.5c4.9,9.2,3,15.7,0.4,19.5C1231.8,320.4,1227.8,322.5,1222.9,322.5
				C1222.9,322.5,1222.9,322.5,1222.9,322.5z"/>
			<path class="st0" d="M1186,270.7c17.1,0,54.5,27.6,44.2,43.2c-1.7,2.5-4.2,3.6-7.2,3.6c-17.4,0-52.2-34.9-43.3-44.6
				C1181,271.4,1183.2,270.7,1186,270.7 M1186,260.7c-7.2,0-11.4,3-13.7,5.5c-2.7,3-6.6,9.6-1.7,20.6c3.6,8.2,11.7,18,21.7,26.2
				c6.5,5.4,19.1,14.4,30.7,14.4c6.6,0,12.1-2.9,15.5-8c2.7-4.1,6.2-12.7-0.2-24.6C1229.1,277.9,1202.8,260.7,1186,260.7L1186,260.7
				z"/>
		</g>
		<g>
			<path class="st0" d="M1170.6,393.1c-14.4,0-30.7-12.4-37.4-23.8c-4.3-7.3-5-14.4-1.9-20c2-3.6,6.3-5.5,12.7-5.5
				c12.4,0,34.8,7.4,42.7,20.9c3.6,6.2,3.7,12.8,0.2,19.1C1183.7,389.8,1177.9,393.1,1170.6,393.1
				C1170.6,393.1,1170.6,393.1,1170.6,393.1z"/>
			<path class="st0" d="M1144,348.8c16.3,0,48.7,14.3,38.6,32.6c-2.6,4.8-7,6.8-12,6.8c-17.2,0-42.3-23.1-35-36.5
				C1136.8,349.7,1139.9,348.8,1144,348.8 M1144,338.8c-10.4,0-15,4.4-17.1,8.1c-4,7.2-3.3,16.1,1.9,24.9
				c7.5,12.6,25.5,26.3,41.7,26.3c9.1,0,16.5-4.2,20.7-11.9c4.3-7.8,4.2-16.4-0.3-24C1182,346.9,1158,338.8,1144,338.8L1144,338.8z"
				/>
		</g>
		<g>
			<path class="st0" d="M293,1453.7L6.2,438.6l481.6-126.2l307.5,21.9l405.1,62c6.8-26.6,33.9-91.9,133.9-91.9c2.6,0,5.3,0,7.9,0.1
				c55.7,1.9,87.7,24.7,104.8,43.6c19.2,21.1,27.7,46,27.7,61.3c0,4.4-0.2,8.8-0.7,12.9l840.2,12.5L3025,269l807.3,174.8
				l-393.5,1064.5L2370.7,1520l-761.7-51.8L901.6,1546L293,1453.7z"/>
			<path class="st0" d="M3025.1,274.1l800.7,173.3L3548,1198.7l-11.5,31.1l-101.1,273.5l-708.8,7.8l-355.7,3.9l-761.9-51.8
				L901.7,1541l-604.8-91.8l-97.7-345.8L12.3,442.1l475.9-124.8l306.5,21.8l409.5,62.7c7-33.4,36.3-92.6,130.1-92.6
				c2.5,0,5.1,0,7.8,0.1c99.8,3.4,127.8,75.2,127.8,99.9c0,6.5-0.5,12.4-1.4,17.8l846.5,12.6L3025.1,274.1 M3025,263.9l-2.2,0.5
				l-709,165.3l-834.3-12.4c0.2-2.6,0.3-5.3,0.3-8c0-16.2-9-42.5-29-64.6c-17.7-19.6-50.9-43.3-108.3-45.2c-2.7-0.1-5.4-0.1-8.1-0.1
				c-43.8,0-79,12.3-104.4,36.5c-19.4,18.5-28.7,39.9-33.1,54.8l-400.5-61.3l-0.4-0.1l-0.4,0L489,307.5l-1.6-0.1l-1.6,0.4L9.8,432.5
				L0,435.1l2.8,9.7l186.9,661.3l97.7,345.8l1.7,6.2l6.3,1l604.8,91.8l1.3,0.2l1.3-0.1l706.4-77.8l761.1,51.8l0.4,0l0.4,0l355.7-3.9
				l708.8-7.8l6.8-0.1l2.4-6.4l101.1-273.5l11.5-31.1L3835,450.8l4-10.7l-11.2-2.4l-800.7-173.3L3025,263.9L3025,263.9z"/>
		</g>
	</g>
	<g>
		<g>
			<polygon class="st7" points="303.9,1441.2 23.4,448.5 489.1,326.4 793.7,348.1 1357.3,434.4 2315.8,448.7 3025.1,283.3 
				3813.7,454 3429.2,1494.4 2371.1,1506 1608.7,1454.2 901.9,1532 			"/>
			<path class="st8" d="M3025.2,292.5l776.5,168.1l-378.8,1025l-1051.5,11.5l-761.2-51.8l-1.6-0.1l-1.6,0.2l-704.9,77.6L311,1433.2
				L34.5,454.9l455.4-119.4l302.8,21.6l562.6,86.1l1.2,0.2l1.2,0l956.8,14.3l2.2,0l2.1-0.5L3025.2,292.5 M3025.1,274.1l-710.2,165.6
				L1358,425.4l-563.3-86.2l-306.5-21.8L12.3,442.1l284.6,1007.1l604.8,91.8l707.2-77.9l761.9,51.8l1064.6-11.7l390.3-1055.9
				L3025.1,274.1L3025.1,274.1z"/>
		</g>
		<ellipse class="st9" cx="1343.6" cy="644.5" rx="17.1" ry="15.6"/>
		<path class="st9" d="M1342.1,309.4c-118.7-4-139.8,83.7-139.8,108.3c0,62.3,80.9,66.9,84.3,91.8c1.9,13.7,3.5,44,43.1,51.1
			c3.6,0.6,4,5.6,0.6,6.8c-16,5.7-37.2,15.5-37.2,28c0,20.1,24.6,27.9,64.2,27.9c0,0,36,2.3,36-9.7c0-6.9-15.1-12.2-27.9-15.5
			c-3.7-0.9-3.6-6.1,0.1-6.9c15.2-3.5,34.6-10,34.6-20.1c0-9.7-16.4-15.9-30-19.3c-3.7-0.9-3.5-6.2,0.2-7l12.8-2.6
			c5.6-1.1,9.7-5.8,10.4-11.5c7.1-55.3,76.3-44.9,76.3-121.5C1469.8,384.6,1441.9,312.8,1342.1,309.4z M1400.6,444.8
			c-14.6,10.9-28.5,25.6-39.1,52.2c-1.1,2.7-3.6,4.6-6.5,4.8c-5,0.4-11.4-0.1-15.7-0.5c-2.8-0.3-5.2-2-6.1-4.7
			c-7-20.2-34.1-42.3-53.3-52.4c-26.3-13.8-30.7-28.3-30.7-36.1c0-14.5,1.4-53.6,85.2-52.1c2,0,4.1,0,6.2,0.1
			c68.7,2.3,74,46.1,74,52.2C1414.5,418.1,1417.9,432,1400.6,444.8z"/>
		<path class="st9" d="M1302.6,289.4c23.1,0.1,15.8-52-1.3-53C1280.3,235.2,1280.6,289.3,1302.6,289.4z"/>
		<path class="st9" d="M1179.6,272.9c-10.5,11.4,39.5,57.7,50.5,41C1242.1,295.7,1190,261.6,1179.6,272.9z"/>
		<path class="st9" d="M1135.7,351.7c-9.5,17.3,35.3,50.8,47,29.7C1195.4,358.4,1141.2,341.8,1135.7,351.7z"/>
		<path class="st9" d="M1431.7,246.9c-19.7-15.1-57,41-33.9,52.7C1422.9,312.3,1447.6,259.1,1431.7,246.9z"/>
		<path class="st9" d="M1529.3,317.7c-6.6-21-72.5,5.3-61,25.2C1480.8,364.6,1534.6,334.6,1529.3,317.7z"/>
		<polygon class="st8" points="2417,1198.7 1612.2,1144.6 903.1,1223.4 199.2,1103.5 296.9,1449.2 901.7,1541 1608.9,1463.2 
			2370.9,1515 3435.4,1503.3 3548,1198.7 		"/>
		<g>
			<path class="st9" d="M329.7,1291.2l8.2-31.3h89v31.3h-31.4V1396l-32.3,3.2v-108H329.7z"/>
			<path class="st9" d="M464.9,1300.7c5.7-6.2,15.4-9.8,23.6-9.8c26.8,0,35.8,18.1,35.8,43.7v61.4l-29.7,3.2v-62.4
				c0-12-5.9-17.9-14.8-17.9c-8.9,0-14.8,5.8-14.8,17.9v59.2l-29.7,3.2v-141.5l29.7-3.2V1300.7z"/>
			<path class="st9" d="M573.7,1365.3c3.4,5.2,10.3,7.4,16,7.4c10.5,0,20.3-5.2,28.3-12l15.6,24.1c-12.9,9.4-27.6,16.1-44.5,16.1
				c-31.2,0-52.7-28.7-52.7-53.6c0-30.7,23.2-56.4,51.3-56.4c20.5,0,39.7,12.4,48.9,31.7L573.7,1365.3z M601.1,1321.1
				c-3-3.4-8-4.2-13.1-4.2c-12.9,0-23,12.8-23,26.1v3.6L601.1,1321.1z"/>
			<path class="st9" d="M789.4,1297.9c-7-5.2-15-9.8-23.8-9.8c-22.1,0-37.7,16.7-37.7,40.3c0,23.9,14.6,41.1,37.7,41.1
				c8.7,0,17.7-5,24.5-10.2l-4,36.5c-5.3,3-16.9,5-22.8,5c-39.7,0-67.7-28.9-67.7-71.6c0-41.1,28-72.4,67.5-72.4
				c7.2,0,14.8,1.2,21.3,4.4L789.4,1297.9z"/>
			<path class="st9" d="M800.6,1345.8c0-31.9,25.7-55,54.4-55c28.9,0,54.6,23.1,54.6,55c0,31.9-25.7,55-54.6,55
				C826.2,1400.8,800.6,1377.7,800.6,1345.8z M855,1371.7c13.3,0,24.9-11.4,24.9-25.9c0-14.4-11.6-25.9-24.9-25.9
				c-13.1,0-24.7,11.4-24.7,25.9C830.2,1360.3,841.8,1371.7,855,1371.7z"/>
			<path class="st9" d="M920.8,1294.1l27-3.2v16.5h0.4c3.2-9.8,11.6-16.5,22.3-16.5c9.1,0,17.5,4.6,22.6,12.4
				c6.3-8.2,16.2-12.4,26.1-12.4c29.7,0,34.4,23.9,34.4,48.8v56.4l-29.7,3.2v-63.8c0-11.6-4.2-16.5-10.8-16.5c-5.7,0-11,6.4-11,16.5
				v60.6l-29.7,3.2v-63.8c0-10-3.2-16.5-10.8-16.5c-5.7,0-11,6.4-11,16.5v60.6l-29.7,3.2V1294.1z"/>
			<path class="st9" d="M1097.1,1431.3l-29.7,3.2v-140.5l27.8-3.2v18.9h0.4c5.3-11.6,17.5-18.9,29.7-18.9
				c28.5,0,48.3,27.7,48.3,56.2c0,28.1-23.2,53.8-49.8,53.8c-9.7,0-20.9-2.6-26.2-11.8h-0.4V1431.3z M1119.7,1372.7
				c13.9,0,24.2-13.4,24.2-26.9c0-13.4-10.3-26.9-24.2-26.9c-13.9,0-24.2,13.4-24.2,26.9C1095.5,1359.3,1105.8,1372.7,1119.7,1372.7
				z"/>
			<path class="st9" d="M1245,1295.7l29.7-3.2V1396l-27.4,3.2v-15.7h-0.4c-5.7,13.6-17.3,17.3-25.5,17.3
				c-26.8,0-35.8-18.1-35.8-43.7v-61.4l29.7-3.2v62.4c0,12,5.9,17.9,14.8,17.9c8.9,0,14.8-5.8,14.8-17.9V1295.7z"/>
			<path class="st9" d="M1285.5,1321.5l6.3-26.1h9.3V1275l29.7-12v32.5h16.9v26.1h-16.9v36.1c0,10.2,7.4,13,15.8,13
				c2.7,0,6.5-0.6,7.8-1.2l-8.6,30.9c-1.3,0.2-3,0.4-4.6,0.4c-26.2,0-40.1-13.2-40.1-40.7v-38.5H1285.5z"/>
			<path class="st9" d="M1398.1,1365.3c3.4,5.2,10.3,7.4,16,7.4c10.5,0,20.3-5.2,28.3-12l15.6,24.1c-12.9,9.4-27.6,16.1-44.5,16.1
				c-31.2,0-52.7-28.7-52.7-53.6c0-30.7,23.2-56.4,51.3-56.4c20.5,0,39.7,12.4,48.9,31.7L1398.1,1365.3z M1425.5,1321.1
				c-3-3.4-8-4.2-13.1-4.2c-12.9,0-23,12.8-23,26.1v3.6L1425.5,1321.1z"/>
			<path class="st9" d="M1471.1,1295.7l26.2-3.2v19.7h0.4c5.7-18.1,15.4-21.3,31.6-21.3l-8.4,31.3c-14.8-0.2-20.2,6-20.2,21.5v52.4
				l-29.7,3.2V1295.7z"/>
			<path class="st9" d="M1576.9,1291.2l8.2-31.3h89v31.3h-31.4V1396l-32.3,3.2v-108H1576.9z"/>
			<path class="st9" d="M1712.1,1300.7c5.7-6.2,15.4-9.8,23.6-9.8c26.8,0,35.8,18.1,35.8,43.7v61.4l-29.7,3.2v-62.4
				c0-12-5.9-17.9-14.8-17.9c-8.9,0-14.8,5.8-14.8,17.9v59.2l-29.7,3.2v-141.5l29.7-3.2V1300.7z"/>
			<path class="st9" d="M1799.4,1295.5c7.6-2.8,18.6-4.6,26.8-4.6c24.3,0,41.1,10.6,41.1,36.1v69l-25.9,3.2V1389h-0.4
				c-5.7,9.2-14.3,11.8-24.3,11.8c-22.1,0-34-15.3-34-37.3c0-20.9,16.2-33.9,35-33.9c7.4,0,15.8,3,22.1,7.8c0.2-1,0.2-2,0.2-3.2
				c0-14.2-6.3-17.3-19-17.3c-8.7,0-17.7,2.4-25.7,6.2L1799.4,1295.5z M1825.1,1376.7c8,0,14.6-5,14.6-13.6
				c0-8.4-6.7-13.4-14.6-13.4c-8.2,0-14.8,5-14.8,13.4C1810.2,1371.7,1816.9,1376.7,1825.1,1376.7z"/>
			<path class="st9" d="M1877.4,1321.5l6.3-26.1h9.3V1275l29.7-12v32.5h16.9v26.1h-16.9v36.1c0,10.2,7.4,13,15.8,13
				c2.7,0,6.5-0.6,7.8-1.2l-8.6,30.9c-1.3,0.2-3,0.4-4.6,0.4c-26.2,0-40.1-13.2-40.1-40.7v-38.5H1877.4z"/>
			<path class="st9" d="M1999.7,1291.2l8.2-31.3h89v31.3h-31.4V1396l-32.3,3.2v-108H1999.7z"/>
			<path class="st9" d="M2134.9,1300.7c5.7-6.2,15.4-9.8,23.6-9.8c26.8,0,35.8,18.1,35.8,43.7v61.4l-29.7,3.2v-62.4
				c0-12-5.9-17.9-14.8-17.9s-14.8,5.8-14.8,17.9v59.2l-29.7,3.2v-141.5l29.7-3.2V1300.7z"/>
			<path class="st9" d="M2248.2,1265.8l-19,19.7l-21.5-16.5l18.6-20.1L2248.2,1265.8z M2243.8,1396l-29.7,3.2v-103.6l29.7-3.2V1396z
				"/>
			<path class="st9" d="M2291.2,1306.5h0.4c7.6-12,17.3-15.7,25.5-15.7c26.8,0,35.8,18.1,35.8,43.7v61.4l-29.7,3.2v-62.4
				c0-12-5.9-17.9-14.8-17.9c-8.9,0-14.8,5.8-14.8,17.9v59.2l-29.7,3.2v-105.2l27.4-3.2V1306.5z"/>
			<path class="st9" d="M2370.9,1257.7l29.7-3.2v81.5h0.4l34.2-46.8l30.6,9.8l-33.7,41.9l38.6,49.8l-33.5,8.4l-36.3-50.4h-0.4v47.2
				l-29.7,3.2V1257.7z"/>
			<path class="st9" d="M2483.9,1365.3c5.9,6.2,13.1,9.4,21.5,9.4c4.9,0,13.3-0.8,13.3-8.2c0-14.2-45.6,0-45.6-41.9
				c0-23.1,17.7-33.7,37.1-33.7c11.8,0,24,6,32.5,14.4l-16.4,17.5c-4.2-3.4-10.1-5.8-15.6-5.8c-3.6,0-10.1,0.8-10.1,6.2
				c0,17.3,45.6,0,45.6,42.9c0,22.7-19.2,34.7-38.4,34.7c-16.5,0-25.9-3.4-39-14L2483.9,1365.3z"/>
			<path class="st9" d="M2646.8,1256.7V1396l-32.3,3.2v-139.3L2646.8,1256.7z"/>
			<path class="st9" d="M2659.6,1321.5l6.3-26.1h9.3V1275l29.7-12v32.5h16.9v26.1h-16.9v36.1c0,10.2,7.4,13,15.8,13
				c2.7,0,6.5-0.6,7.8-1.2l-8.6,30.9c-1.3,0.2-3,0.4-4.6,0.4c-26.2,0-40.1-13.2-40.1-40.7v-38.5H2659.6z"/>
			<path class="st9" d="M2756,1256.7c7,3.8,12.7,14,12.7,22.3c0,14.6-9.9,29.1-17.3,40.7l-14.8-7.6c3.4-7,9.3-17.7,9.3-25.5
				c0-6.8-4.2-13.4-10.3-15.5L2756,1256.7z"/>
			<path class="st9" d="M2783.2,1365.3c5.9,6.2,13.1,9.4,21.5,9.4c4.9,0,13.3-0.8,13.3-8.2c0-14.2-45.6,0-45.6-41.9
				c0-23.1,17.7-33.7,37.1-33.7c11.8,0,24,6,32.5,14.4l-16.4,17.5c-4.2-3.4-10.1-5.8-15.6-5.8c-3.6,0-10.1,0.8-10.1,6.2
				c0,17.3,45.6,0,45.6,42.9c0,22.7-19.2,34.7-38.4,34.7c-16.5,0-25.9-3.4-39-14L2783.2,1365.3z"/>
			<path class="st9" d="M2966.9,1256.7l70.4,137.1l-32.9,7l-13.3-29.5h-49.6l-13.1,29.5l-31.4-7l69.6-137.1H2966.9z M2949.2,1345.8
				h34.6l-17.3-33.7L2949.2,1345.8z"/>
			<path class="st9" d="M3081.2,1291.2l8.2-31.3h89v31.3H3147V1396l-32.3,3.2v-108H3081.2z"/>
			<path class="st9" d="M3167.9,1345.8c0-31.9,25.7-55,54.4-55c28.9,0,54.6,23.1,54.6,55c0,31.9-25.7,55-54.6,55
				C3193.6,1400.8,3167.9,1377.7,3167.9,1345.8z M3222.3,1371.7c13.3,0,24.9-11.4,24.9-25.9c0-14.4-11.6-25.9-24.9-25.9
				c-13.1,0-24.7,11.4-24.7,25.9C3197.6,1360.3,3209.2,1371.7,3222.3,1371.7z"/>
			<path class="st9" d="M3328.1,1352.2l23.6-61.4l28.5,7.6l-57.6,136.1l-31-3.2l21.1-44.8l-37.3-88.3l28.9-7.4L3328.1,1352.2z"/>
			<path class="st9" d="M3386.8,1379.3l20.3-21.1l20.3,21.1l-20.3,21.1L3386.8,1379.3z M3393.1,1353.7l-2.7-94.3l33.7-4.8l-3.4,95.9
				L3393.1,1353.7z"/>
		</g>
		<rect x="2005.9" y="1419.9" class="st9" width="534.7" height="20.9"/>
		<path class="st0" d="M1400.6,444.8c17.2-12.8,13.9-26.7,13.9-36.4c0-6.1-5.3-49.9-74-52.2c-2.1-0.1-4.2-0.1-6.2-0.1
			c-83.7-1.5-85.2,37.6-85.2,52.1c0,7.8,4.4,22.3,30.7,36.1c19.2,10.1,46.3,32.2,53.3,52.4c0.9,2.6,3.4,4.4,6.1,4.7
			c4.4,0.5,10.7,1,15.7,0.5c2.9-0.3,5.4-2.1,6.5-4.8C1372.1,470.5,1386,455.7,1400.6,444.8z"/>
		<path class="st11" d="M3094.3,572c-224.4,0-341.5,115.4-341.5,209.1v19.1c0,58.4,73.8,173.1,357.5,173.1
			c214.7,0,310.4-106,310.4-183.8v-75.2C3420.8,638.4,3326.8,572,3094.3,572z M3351,776.5c0,64.6-52.4,117-117,117h-281.6
			c-64.6,0-117-52.4-117-117v-52.4c0-64.6,52.4-117,117-117H3234c64.6,0,117,52.4,117,117V776.5z"/>
		<g>
			<path class="st9" d="M2866.4,395.6c-33,23,43,132.1,87.3,111.4C2976.2,496.4,2898.3,373.4,2866.4,395.6z"/>
			<path class="st9" d="M3238.8,394.6c-37.6-12.5-121,95.9-90.6,115.1C3185.4,533.1,3288.1,411,3238.8,394.6z"/>
			<path class="st9" d="M3500,496.7c-10.3-11.2-160.3,49.3-131.4,84.9C3395,614.2,3524.6,523.4,3500,496.7z"/>
			<path class="st9" d="M3589.9,766.6c11.1-37.4-155.8-52.6-162.9-13.6C3421.3,784.9,3579.2,802.9,3589.9,766.6z"/>
			<path class="st9" d="M3492.2,989.3c25.1-28.2-108.3-113.3-130.5-81.9C3343.6,933,3467.8,1016.6,3492.2,989.3z"/>
			<path class="st9" d="M2604.6,554.1c25-28.6,150.7,37.7,135.4,82.7C2727.4,673.4,2577.8,584.7,2604.6,554.1z"/>
			<path class="st9" d="M2826.6,927.2c22.4,36.8-96.8,124.4-124.7,86.4C2682,986.7,2810.5,900.8,2826.6,927.2z"/>
			<path class="st9" d="M3013.3,983.9c33.2,15.7-34.5,141-64.4,126.6C2916.4,1094.9,2982,969.1,3013.3,983.9z"/>
			<path class="st9" d="M3190.1,977.9c47.1-19.8,96.4,120.1,54.7,132.3C3207,1121.2,3155.5,992.4,3190.1,977.9z"/>
			<path class="st9" d="M2561.8,812c5.4-30.9,154.1-45.5,158.4-1.8C2722.8,835.9,2557,839.7,2561.8,812z"/>
			<path class="st9" d="M3088.5,638.2c-0.6,0.9-63.6,22.9-54.3,38.9c5.4,9.3,14.3,4.1,21.4-1.1c27-19.7,40.8,7.7,23.5,17.7
				c-36.7,21.2-80.4,2.2-79.9-22c0.5-24.4,29.2-42.8,29.2-42.8"/>
			<path class="st9" d="M3219.6,660.1c-0.6,0.9-80,4.6-68.5,27c4.9,9.6,12.3,0.5,20.8-1.9c14.3-4.1,27.4,20.9,7.6,23.9
				c-23.3,3.5-67.9-2.9-67.9-30c0-24.4,29.2-42.8,29.2-42.8"/>
			<path class="st12" d="M2971.8,765.8c0,0,54.6,30,101.3,30c46.7,0,60.5,0,60.5,0c14.9,0,44.8-0.6,61-5.4"/>
			<path class="st9" d="M3291.1,724c-17,23.6-24.7,66.5-45.6,84.4c-48.2,41.3-96.4,48.2-162.3,48.2c-118.4,0-165-29.1-198.9-77.2
				c-15.9-22.6-2.5-46.9,10.2-64.7c18.2-25.6,44.6-74,177.5-74c108.7,0,157.7,32.6,176.3,46c16.4,11.7,25.6,17.7,36.1,20
				C3292.4,708.4,3295.8,717.5,3291.1,724z M3071.9,549.6c-224.4,0-341.5,115.4-341.5,209.1v19.1c0,58.4,73.8,173.1,357.5,173.1
				c214.7,0,310.4-106,310.4-183.8v-75.2C3398.4,616,3304.4,549.6,3071.9,549.6z"/>
		</g>
		<path class="st11" d="M655.9,486.7c-277.9-16.9-261.7,86-261,115.2c0,0-71.2-9.7-71.2,24.1c0,52.7,50,83,54.6,152.2
			c2.4,36.5,26.3,207.2,155.6,223c60.2,7.4,119.4-9.9,117.4-81c-0.9-32.2-31.8-66.5-35.7-88.4c-0.7-3.6,2.2-6.9,5.8-6.9
			c245.4,0.1,306.6-89.9,314.1-158C942.9,599.3,900.8,501.6,655.9,486.7z M733.7,728.5H507.5V541.6h226.2V728.5z"/>
		<path class="st11" d="M1453.5,888.8c12-78.3,29-167.7-86.7-167.7c-78.3,0-120.3,31.4-133.2,86.9c-5.4,23.3,5.3,72.2,0.9,92.7
			c-6.5,29.8-20.6,91.6,8.3,131.5c33.1,45.6,177.2,70,210.9-43.7C1463.4,955.4,1447.1,930.2,1453.5,888.8z"/>
		<path class="st11" d="M1779.9,804.7c-0.1-8.1,3.1-15.8,9-21.4c80.1-75.8,236.8-163.9,422.9-163.9c58.4,0,129.5,40.3,129.5,60.4
			c0,39.5-58.3,34.7-126.5,49.9c-99.3,22.2-220.2,54.5-220.2,117.1c0,32.2,4.2,78.1,94.4,78.1c110.9,0,155.1-65.5,273-69.7
			c36.6-1.3,80.4,12.3,80.4,48c0,33.4-119.6,119.3-259.7,119.3l-150.5,0c-74.6,0-251.3-58.3-251.3-156.2L1779.9,804.7z"/>
		<path class="st9" d="M633.5,464.3c-277.9-16.9-261.7,86-261,115.2c0,0-71.2-9.7-71.2,24.1c0,52.7,50,83,54.6,152.2
			c2.4,36.5,26.3,207.2,155.6,223c60.2,7.4,119.4-9.9,117.4-81c-0.9-32.2-31.8-66.5-35.7-88.4c-0.7-3.6,2.2-6.9,5.8-6.9
			c245.4,0.1,306.6-89.9,314.1-158C920.5,576.9,878.4,479.2,633.5,464.3z M707.7,625.1c-26.5,49.4-106.8,59.9-139.8,62.2
			c-8.5,0.6-16.4-4.5-19.5-12.5l-23.5-60.5c-2.7-6.9,0.6-14.7,7.4-17.6c40-17.2,65.6-29.3,100.7-22
			C652.1,578.7,719.9,602.3,707.7,625.1z"/>
		<path class="st9" d="M1431.1,866.4c12-78.3,29-167.7-86.7-167.7c-78.3,0-120.3,31.4-133.2,86.9c-5.4,23.3,5.3,72.2,0.9,92.7
			c-6.5,29.8-20.6,91.6,8.3,131.5c33.1,45.6,177.2,70,210.9-43.7C1441.1,933,1424.7,907.8,1431.1,866.4z"/>
		<path class="st9" d="M1757.5,782.3c-0.1-8.1,3.1-15.8,9-21.4c80.1-75.8,236.8-163.9,422.9-163.9c58.4,0,129.5,40.3,129.5,60.4
			c0,39.5-58.3,34.7-126.5,49.9c-99.3,22.2-220.2,54.5-220.2,117.1c0,32.2,4.2,78.1,94.4,78.1c110.9,0,155.1-65.5,273-69.7
			c36.6-1.3,80.4,12.3,80.4,48c0,33.4-119.6,119.3-259.7,119.3l-150.5,0c-74.6,0-251.3-58.3-251.3-156.2L1757.5,782.3z"/>
	</g>
</g>
</svg>
