<?xml version="1.0" encoding="utf-8"?>
<!-- Generator: Adobe Illustrator 25.4.1, SVG Export Plug-In . SVG Version: 6.00 Build 0)  -->
<svg version="1.1" id="Layer_1" xmlns="http://www.w3.org/2000/svg" xmlns:xlink="http://www.w3.org/1999/xlink" x="0px" y="0px"
	 viewBox="0 0 3839 668.7" style="enable-background:new 0 0 3839 668.7;" xml:space="preserve">
<style type="text/css">
	.st0{fill:#D02026;}
	.st1{fill:#FFFFFF;}
</style>
<g>
	<g>
		<polygon class="st0" points="604.5,456 604.5,362.4 461.2,362.4 461.2,456 372,456 372,212.8 461.2,212.8 461.2,302 604.5,302 
			604.5,212.8 693.7,212.8 693.7,456 		"/>
		<path class="st1" d="M688.7,217.8v233.3h-79.2v-93.7H456.2v93.7H377V217.8h79.2V307h153.3v-89.2H688.7 M698.6,207.9h-9.9h-79.2
			h-9.9v9.9v79.3H466.1v-79.3v-9.9h-9.9H377H367v9.9v233.3v9.9h9.9h79.2h9.9v-9.9v-83.7h133.4v83.7v9.9h9.9h79.2h9.9v-9.9V217.8
			V207.9L698.6,207.9z"/>
	</g>
	<g>
		<path class="st0" d="M982.2,456L954,408.3H795.8L766.7,456h-72.2l148.1-243.2h99.8L1090.6,456H982.2z M921,352.4l-44.9-76
			l-46.3,76H921z"/>
		<path class="st1" d="M939.7,217.8l142.1,233.3h-96.7l-28.2-47.7H793l-29.1,47.7h-60.5l142.1-233.3H939.7 M821.1,357.4h108.7
			l-53.5-90.6L821.1,357.4 M945.3,207.8h-5.6h-94.3h-5.6l-2.9,4.8L694.9,445.9l-9.2,15.1h17.7h60.5h5.6l2.9-4.7l26.2-42.9h152.6
			l25.3,42.8l2.9,4.9h5.7h96.7h17.7l-9.2-15.1L948.2,212.6L945.3,207.8L945.3,207.8z M838.7,347.5l37.4-61.4l36.3,61.4H838.7
			L838.7,347.5z"/>
	</g>
	<g>
		<path class="st0" d="M1091.4,455.9V216.8l4.1-0.7c28.8-4.9,71-10.5,142-10.5c22.8,0,49.3,2.2,72.6,6.1
			c20.3,3.4,48.7,9.8,68.5,21.1c12.6,7.2,28.5,20.3,32.9,42.2c3.2,16-1,33.1-11.5,46.9c-19,24.8-56.1,34.8-76.9,38.6l110.3,95.3
			h-123l-126.4-112.1l12.9-21.2l3.3,0.5c17.6,2.7,33.5,4,47.2,4c25.9,0,44.9-4.9,56.3-14.4c7.4-6.3,11.3-14.4,10.9-22.6
			c-0.3-7.5-4.2-14.6-10.3-19c-13.6-9.6-31.1-14-60.6-15.3c-2-0.1-5.3-0.2-10.1-0.2c-8.6,0-30.2,0.5-53.1,4.6v196H1091.4z"/>
		<path class="st1" d="M1237.5,210.6c40.3,0,104.8,7.2,138.6,26.5c36.2,20.7,38.8,57,19.9,81.7c-18.9,24.7-58.2,35.1-84.3,38.3
			l108.4,93.7h-107.8l-121.9-108.1l9-14.9c18.9,2.9,34.7,4.1,48,4.1c32,0,49.4-7.1,59.5-15.6c18.9-16.1,14.9-39.1,0.3-49.5
			c-14.1-10-31.9-14.9-63.3-16.2c-2.5-0.1-6-0.2-10.3-0.2c-14,0-36.2,1.1-58.1,5.5V451h-79.2V221
			C1131.6,215.1,1173.1,210.6,1237.5,210.6 M1237.5,200.7c-71.4,0-113.8,5.6-142.8,10.6l-8.3,1.4v8.4V451v9.9h9.9h79.2h9.9V451
			v-99.4l120.2,106.6l2.8,2.5h3.8h107.8h26.6l-20.2-17.4l-92.6-80c8-1.8,17.1-4.4,26.2-8c19.4-7.7,34.1-17.9,43.7-30.4
			c11.4-14.9,15.9-33.5,12.4-50.9c-3.7-18.4-16.3-34.6-35.3-45.5C1342.6,206.6,1272.8,200.7,1237.5,200.7L1237.5,200.7z
			 M1185.5,264.1c20.9-3.4,40.2-3.8,48.2-3.8c3.7,0,7.1,0.1,9.7,0.2l0.1,0l0.1,0c28.4,1.2,45.2,5.4,58,14.4c4.9,3.5,8,9.2,8.2,15.2
			c0.2,4.7-1.2,11.8-9.2,18.7c-10.5,8.8-28.4,13.3-53.1,13.3c-13.5,0-29.1-1.3-46.5-4l-6.5-1l-3.4,5.6l-5.5,9.1V264.1L1185.5,264.1z
			"/>
	</g>
	<g>
		<path class="st0" d="M203.5,462.9c-3.2,0-6.5,0-9.8-0.1C138.2,462,70.6,448,12.8,425.4l-5.5-2.1l36.1-59.4l4.1,2
			c49.4,24.5,95.6,37.7,145.3,41.5c5.8,0.4,11.4,0.7,16.4,0.7c25,0,40.6-5.6,40.6-14.7c0-9.7-31.1-15.9-61.1-22
			c-11.4-2.3-23.2-4.7-35.5-7.5c-4.1-1-8.4-1.9-12.8-2.9c-52.8-12-125.2-28.3-121-85c3.3-46.2,57.2-70.6,156-70.6
			c6.1,0,12.3,0.1,18.7,0.3c60.1,1.8,122.3,17.8,149.4,28.1l5.6,2.1l-33.6,54.9l-3.9-1.7c-38.4-16.3-77.9-26.7-117.5-30.9
			c-11.2-1.2-21.4-1.8-30.4-1.8c-25.1,0-40.2,4.8-40.2,12.8c0,2,2.2,6,16.8,10.7c12.3,3.9,29.2,7.1,48.8,10.9
			c4.9,0.9,9.9,1.9,15,2.9c40.9,7.9,82.5,17.3,110,31.9c27.9,14.8,40.6,34,39.9,60.5c-0.9,28.9-17.9,50-50.6,62.8
			C279,458.1,245.4,462.9,203.5,462.9C203.5,462.9,203.5,462.9,203.5,462.9z"/>
		<path class="st1" d="M175.4,210.2c6.5,0,12.7,0.1,18.5,0.3c56.1,1.7,117.9,16.4,147.8,27.7l-28.2,46.1
			c-37.1-15.8-76.8-26.8-118.9-31.3c-11.2-1.2-21.6-1.8-30.9-1.8c-27.5,0-45.1,5.5-45.1,17.8c0,14.9,38.9,20.4,84.6,29.3
			c93.8,18.2,147.3,36.3,145.9,87.4c-1.8,59-76.1,72.3-145.6,72.3c-3.2,0-6.5,0-9.7-0.1c-60.7-0.9-127.8-17-179.2-37.1l30.7-50.4
			c46.3,23,92.7,37.9,147.2,42c6.1,0.5,11.7,0.7,16.8,0.7c32.7,0,45.6-8.8,45.6-19.7c0-17.9-48.6-22.2-100.4-34.3
			c-53-12.4-134.1-25.9-130-82.8C28.4,220.1,113.7,210.2,175.4,210.2 M175.4,200.3l0,9.9L175.4,200.3c-40.8,0-74.5,4.2-100.2,12.4
			c-17.2,5.5-31,13-41,22.2c-12,11.1-18.6,24.8-19.8,40.6c-2,27.3,12.4,49,42.9,64.7c24.3,12.5,55,19.4,82,25.5
			c4.5,1,8.7,2,12.7,2.9c12.3,2.9,24.1,5.3,35.6,7.6c16.6,3.3,30.9,6.2,41.7,9.6c12.9,4,15.1,7.1,15.4,7.6
			c-0.2,3.8-9.9,9.7-35.6,9.7c-4.9,0-10.4-0.2-16.1-0.6c-49.1-3.7-94.7-16.8-143.5-41l-8.2-4.1l-4.7,7.8L6.1,415.7L0,425.7l11,4.3
			c58.3,22.8,126.6,36.9,182.6,37.8c3.3,0.1,6.6,0.1,9.9,0.1c42.5,0,76.7-4.9,101.8-14.7c16-6.2,28.7-14.6,37.6-24.8
			c10.2-11.8,15.7-26,16.1-42.4c0.8-28.2-13.2-49.5-42.5-65c-28.1-14.9-70.1-24.3-111.4-32.4c-5.1-1-10.1-1.9-15-2.9
			c-16.6-3.2-32.4-6.1-44-9.4c-13.2-3.7-16.7-6.7-17.5-7.6c0.9-2.6,10.2-7.4,35.1-7.4c8.8,0,18.9,0.6,29.9,1.8
			c39.1,4.1,78.2,14.4,116.1,30.5l7.9,3.4l4.5-7.3l28.2-46.1l6.2-10.2l-11.2-4.2c-27.4-10.4-90.3-26.6-151-28.4
			C187.9,200.4,181.5,200.3,175.4,200.3L175.4,200.3z"/>
	</g>
	<g>
		<path class="st0" d="M1435.6,456.1V217l4.1-0.7c28.9-4.9,71.3-10.5,142.6-10.5c25.4,0,52.3,2.2,75.6,6.1
			c28.3,4.8,50.5,11.9,65.9,21.1c19.7,11.6,32.6,29.4,35.5,48.9c2.8,18.9-4.1,38.4-19.3,54.8c-23.5,25.6-74,40.7-138.5,41.3
			c-0.9,0-1.7,0-2.6,0c-24.4,0-51.6-2-74.2-5.4v83.4H1435.6z M1524.7,319.3c23.1,5,44,7.6,62.1,7.8l1.7,0c30.5,0,48.5-4.2,60.4-13.9
			c7.4-6.1,11.3-14,11-22.4c-0.3-7.8-4.3-15.2-10.4-19.5c-13.6-9.6-31.8-14.2-61.1-15.5c-1.9-0.1-5.1-0.2-9.5-0.2
			c-11.1,0-32.3,0.6-54.1,4.5V319.3z"/>
		<path class="st1" d="M1582.3,210.8c46.3,0,106.8,7.4,139,26.5c35.9,21.2,46.4,62.2,15,96.1c-21.9,23.9-70,39.1-134.9,39.7
			c-0.8,0-1.7,0-2.5,0c-25.9,0-55.4-2.3-79.2-6.3v84.3h-79.2V221.2C1475.9,215.2,1517.8,210.8,1582.3,210.8 M1588.5,332
			c30.6,0,50.2-4,63.6-15c19.5-15.9,14.6-39.9,0.3-49.8c-13.6-9.7-32.2-15-63.8-16.4c-2.4-0.1-5.7-0.2-9.8-0.2
			c-14.1,0-36.9,1-59.1,5.4v67.3c19.6,4.4,43.7,8.6,67,8.7C1587.3,332,1587.9,332,1588.5,332 M1582.3,200.8
			c-71.7,0-114.3,5.6-143.4,10.6l-8.3,1.4v8.4v229.9v9.9h9.9h79.2h9.9v-9.9v-72.8c21.6,3,46.7,4.7,69.3,4.7c0.9,0,1.7,0,2.6,0
			c32.8-0.3,61.8-4.2,86.3-11.5c24.7-7.4,43.5-18,55.8-31.4c16.3-17.5,23.6-38.5,20.6-58.9c-3.1-21-16.9-40.1-37.9-52.5
			C1691.8,208.2,1629.3,200.8,1582.3,200.8L1582.3,200.8z M1529.7,264.3c20-3.2,38.9-3.8,49.1-3.8c4.3,0,7.5,0.1,9.3,0.2
			c28.3,1.2,45.8,5.6,58.5,14.6l0,0l0,0c4.9,3.4,8.1,9.4,8.3,15.6c0.2,4.8-1.3,11.9-9.2,18.4c-10.9,9-28.1,12.8-57.3,12.8
			c-0.6,0-1.1,0-1.7,0c-16.7-0.1-35.9-2.4-57.1-6.8V264.3L1529.7,264.3z"/>
	</g>
	<g>
		<path d="M1780.7,663.7l318.1-318.1l183.7,318.1H1780.7z M2170.3,599l-85.4-148l-148,148H2170.3z"/>
		<path class="st1" d="M2097.7,353.7l176.2,305.1h-481.3L2097.7,353.7 M1925,603.9h253.9l-92.9-161L1925,603.9 M2099.8,337.5
			l-9.1,9.1l-305.1,305.1l-16.9,16.9h23.9h481.3h17.2l-8.6-14.9l-176.2-305.1L2099.8,337.5L2099.8,337.5z M1948.9,594l134.9-134.9
			l77.9,134.9H1948.9L1948.9,594z"/>
	</g>
	<g>
		<path d="M2505.9,5h501.7l-318,318.1L2505.9,5z M2703.5,217.7l148-148h-233.4L2703.5,217.7z"/>
		<path class="st1" d="M2995.7,9.9l-305,305.1L2514.5,9.9H2995.7 M2702.4,225.8l161-161h-253.9L2702.4,225.8 M3019.6,0h-23.9h-481.2
			h-17.2l8.6,14.9L2682.1,320l6.5,11.2l9.1-9.1l305-305.1L3019.6,0L3019.6,0z M2626.7,74.7h212.8l-134.9,134.9L2626.7,74.7
			L2626.7,74.7z"/>
	</g>
	<g>
		<path d="M2321,663.7L1940.7,5h526.7L2746.8,489l277.1,0.3l178.5-309h-185.6L3192.1,5h638.4l-380.3,658.8H2321z M3412.7,599
			l305.4-529.3h-499.4l-45.8,45.8h141.5l-253.2,438.5h-351.7L2430,69.7h-377.2L2358.4,599H3412.7z"/>
		<path class="st1" d="M3821.8,9.9l-374.6,648.8H2323.9L1949.3,9.9h515.3L2744,494l282.9,0.3l184.2-319h-182.2L3194.1,9.9H3821.8
			 M3161,120.5h144.9l-247.5,428.6h-345.9L2432.8,64.7h-388.7l311.3,539.2h1060.1l311.1-539.2h-510L3161,120.5 M3839,0h-17.2h-627.7
			h-4.1l-2.9,2.9l-165.3,165.4l-16.9,16.9h23.9h165.1l-172.8,299.1l-271.4-0.3L2473.2,5l-2.9-5h-5.7h-515.3h-17.2l8.6,14.9
			l374.6,648.8l2.9,5h5.7h1123.4h5.7l2.9-5l374.6-648.8L3839,0L3839,0z M3220.8,74.7h488.7L3409.9,594H2361.2L2061.3,74.7h365.8
			l276.7,479.4l2.9,5h5.7h345.9h5.7l2.9-5l247.5-428.6l8.6-14.9h-17.2h-120.9L3220.8,74.7L3220.8,74.7z"/>
	</g>
</g>
</svg>
