<?xml version="1.0" encoding="utf-8"?>
<!-- Generator: Adobe Illustrator 25.4.1, SVG Export Plug-In . SVG Version: 6.00 Build 0)  -->
<svg version="1.1" id="Layer_1" xmlns="http://www.w3.org/2000/svg" xmlns:xlink="http://www.w3.org/1999/xlink" x="0px" y="0px"
	 viewBox="0 0 3839 1247" style="enable-background:new 0 0 3839 1247;" xml:space="preserve">
<style type="text/css">
	.st0{fill:#FFFFFF;}
	.st1{fill:#00A7E1;}
	.st2{fill:#3D9B00;}
	.st3{fill:#FFB600;}
	.st4{fill:#FF0600;}
</style>
<g>
	<g>
		<g>
			<rect x="633.3" y="157.9" width="118.4" height="95.8"/>
			<path class="st0" d="M746.7,162.9v85.8H638.2v-85.8H746.7 M756.6,152.9h-9.9H638.2h-9.9v9.9v85.8v9.9h9.9h108.5h9.9v-9.9v-85.8
				V152.9L756.6,152.9z"/>
		</g>
		<g>
			<polygon points="2765.4,1242 2341,645.1 2162.2,645.1 2162.2,412.4 2175.6,412.4 2143.5,367.2 2143.5,645.2 2025.1,645.2 
				2025.1,200.7 1886,5 2950,5 3142.3,275.5 3544.3,275.5 3544.3,371.3 3210.4,371.3 3829.4,1242 			"/>
			<path class="st0" d="M2947.4,9.9l192.3,270.5h399.6v85.8h-338.5l619,870.7h-263h-263h-263h-262.9l-424.3-596.9h-68h-108.5v-85.7
				v-51.1V422v-4.6h18.1l-46.7-65.7v288.5h-108.5V199.1L1895.6,9.9h263h263h263H2947.4 M2275.7,554.4h6.9l-6.9-9.8V554.4 M2952.6,0
				h-5.1h-262.9h-263h-263h-263h-19.2l11.1,15.7l132.6,186.6v437.9v9.9h9.9h108.5h9.9v-9.9V382.8l17.6,24.7h-8.8v9.9v4.6v81.3v51.1
				v85.7v9.9h9.9h108.5h62.9l421.4,592.8l3,4.2h5.1h262.9h263h263h263h19.2l-11.1-15.7L3220,376.2h319.3h9.9v-9.9v-85.8v-9.9h-9.9
				h-394.4L2955.5,4.2L2952.6,0L2952.6,0z"/>
		</g>
		<g>
			<rect x="633.3" y="275.5" width="118.4" height="369.6"/>
			<path class="st0" d="M746.7,280.5v359.6H638.2V280.5H746.7 M756.6,270.5h-9.9H638.2h-9.9v9.9v359.6v9.9h9.9h108.5h9.9v-9.9V280.5
				V270.5L756.6,270.5z"/>
		</g>
		<g>
			<polygon points="1260.7,645.1 1260.7,371.3 888.8,371.3 888.8,645.1 770.4,645.1 770.4,275.5 1378.9,275.5 1378.9,645.1 			"/>
			<path class="st0" d="M1374,280.5v85.8v273.8h-108.4V366.3H883.8v273.8H775.4V366.3v-85.8h108.5h381.8H1374 M1383.9,270.5h-9.9
				h-108.4H883.8H775.4h-9.9v9.9v85.8v273.8v9.9h9.9h108.5h9.9v-9.9V376.2h361.9v263.9v9.9h9.9H1374h9.9v-9.9V366.3v-85.8V270.5
				L1383.9,270.5z"/>
		</g>
		<g>
			<polygon points="5.9,645.1 5.9,549.4 495.2,549.4 495.2,508.2 123.4,508.2 123.4,509.4 5,509.4 5,299.2 5.9,299.2 5.9,275.5 
				614.4,275.5 614.4,371.3 123.4,371.3 123.4,412.4 495.2,412.4 495.2,411.2 613.5,411.2 613.5,549.4 614.4,549.4 614.4,645.1 			
				"/>
			<path class="st0" d="M609.4,280.5v85.8h-491v51.1h381.8v-1.3h108.4v1.3v85.8v51.1h0.9v85.7h-0.9H500.2H10.8v-85.7h489.4v-51.1
				H118.4v1.2H9.9v-1.2v-85.8V304.2h0.9v-23.7H609.4 M619.4,270.5h-9.9H10.8H0.9v9.9v13.8H0v9.9v113.2v85.8v1.2v9.9h9.9h108.5h9.9
				v-1.2h361.9v31.3H10.8H0.9v9.9v85.7v9.9h9.9h489.4h108.4h0.9h9.9v-9.9v-85.7v-9.9h-0.9v-41.2v-85.8v-1.3v-9.9h-9.9H500.2h-9.9
				v1.3H128.3v-31.3h481.1h9.9v-9.9v-85.8V270.5L619.4,270.5z"/>
		</g>
		<g>
			<polygon points="1397.7,645.1 1397.7,275.5 2006.3,275.5 2006.3,371.3 1516.1,371.3 1516.1,549.4 2006.3,549.4 2006.3,645.1 			
				"/>
			<path class="st0" d="M2001.4,280.5v85.8h-490.2v188.1h490.2v85.7h-490.2h-108.5v-85.7V366.3v-85.8h108.5H2001.4 M2011.3,270.5
				h-9.9h-490.2h-108.5h-9.9v9.9v85.8v188.1v85.7v9.9h9.9h108.5h490.2h9.9v-9.9v-85.7v-9.9h-9.9h-480.3V376.2h480.3h9.9v-9.9v-85.8
				V270.5L2011.3,270.5z"/>
		</g>
		<g>
			<polygon points="6.5,1097.8 6.5,1039 161.7,853.7 19.2,853.7 19.2,788.4 264.9,788.4 264.9,847.1 109.9,1032.5 269.1,1032.5 
				269.1,1097.8 			"/>
			<path class="st0" d="M259.9,793.3v52L99.2,1037.5h164.9v55.4H11.5v-52l160.8-192.1H24.1v-55.4H259.9 M269.8,783.4h-9.9H24.1h-9.9
				v9.9v55.4v9.9h9.9H151L3.9,1034.5l-2.3,2.8v3.6v52v9.9h9.9h252.7h9.9v-9.9v-55.4v-9.9h-9.9H120.5l147-175.8l2.3-2.8v-3.6v-52
				V783.4L269.8,783.4z"/>
		</g>
		<g>
			<polygon points="479.2,1098.1 416.4,998.7 352.3,1098.1 266,1098.1 374.4,936.1 274.5,788.4 363,788.4 419.1,879.7 477.1,788.4 
				561.4,788.4 461.9,936.5 569.7,1098.1 			"/>
			<path class="st0" d="M552.1,793.3l-96.2,143.2l104.5,156.6h-78.5l-65.5-103.7l-66.8,103.7h-74.3L380.4,936l-96.6-142.7h76.4
				l58.8,95.8l60.8-95.8H552.1 M570.7,783.4h-18.6h-72.2h-5.5l-2.9,4.6l-52.3,82.3l-50.4-82.2l-2.9-4.7h-5.6h-76.4h-18.7l10.5,15.5
				l92.8,137.2L267,1087.6l-10.3,15.4h18.6h74.3h5.4l2.9-4.6l58.4-90.6l57.2,90.6l2.9,4.6h5.5h78.5H579l-10.3-15.4L467.9,936.6
				l92.5-137.7L570.7,783.4L570.7,783.4z"/>
		</g>
		<g>
			<path d="M728.3,1105c-43.5,0-80.5-13.2-104.3-37.2c-19.1-19.3-28.6-44.3-28.3-74.4l0.1-4.9l73.7-0.1v5
				c0,45.5,42.9,50.4,61.3,50.4c12.5,0,53.4-2.3,53.4-32.4c0-23.7-30.6-31.2-66-39.9c-6.3-1.5-12.8-3.1-19.3-4.9
				c-21.2-5.6-45.2-13.1-63.1-26.8c-20.2-15.4-30-36.1-30-63.3c0-29.9,13.1-54.9,37.8-72.4c20.9-14.8,49.8-23.3,79.2-23.3
				c34.7,0,64.6,8,86.3,23.2c25.3,17.7,38.7,44.7,38.7,78.3v5h-73.5l-0.3-4.7c-1.6-28.1-18.3-40.7-54.2-40.7
				c-6.7,0-40.4,1.4-40.4,29.1c0,17.8,8.9,20.8,78.4,38.7l7.3,1.9c0.8,0.2,1.6,0.4,2.5,0.6c24.7,6.1,90.2,22.1,90.2,91.5
				c0,29.5-11.6,54.5-33.6,72.5C801.4,1095.2,768.3,1105,728.3,1105z"/>
			<path class="st0" d="M722.8,786c62.5,0,120.1,27.3,120.1,96.6H779c-2.1-36.1-27.7-45.4-59.1-45.4c-21,0-45.4,8.8-45.4,34
				c0,23.1,14.3,26,89.4,45.4c21.8,5.5,89,19.4,89,87.3c0,55-43.3,96.2-124.6,96.2c-66.3,0-128.4-32.7-127.6-106.6l63.8-0.1
				c0,39.9,31.1,55.4,66.3,55.4c23.1,0,58.4-6.7,58.4-37.3c0-32.4-45-37.8-89-49.5c-44.5-11.7-89.4-29-89.4-85.2
				C610.7,815.4,668.7,786,722.8,786 M722.8,776.1c-30.4,0-60.3,8.8-82,24.2c-26.1,18.5-39.9,44.9-39.9,76.5c0,14.9,3,28.4,8.8,39.9
				c5.3,10.4,13.1,19.6,23.2,27.3c18.6,14.2,43.2,21.9,64.9,27.6c6.5,1.7,13,3.3,19.4,4.9c38.7,9.5,62.2,16.5,62.2,35.1
				c0,25.4-37.1,27.4-48.4,27.4c-16.8,0-30.8-3.7-40.5-10.8c-10.5-7.7-15.9-19.3-15.9-34.6v-9.9l-9.9,0l-63.8,0.1l-9.8,0l-0.1,9.8
				c-0.2,16,2.4,30.8,7.7,44.1c5,12.7,12.4,24,22,33.8c12.8,12.9,29.1,22.8,48.7,29.5c18,6.1,37.9,9.3,59.2,9.3
				c41.1,0,75.4-10.3,99.1-29.7c11.6-9.5,20.5-20.9,26.5-34c5.9-12.9,8.9-27.2,8.9-42.4c0-17-3.9-32.2-11.5-45.3
				c-6.4-11-15.5-20.6-27-28.6c-20.1-13.8-43.1-19.4-55.5-22.5c-0.9-0.2-1.7-0.4-2.5-0.6l-7.3-1.9c-33.6-8.6-53.9-13.9-64.9-19.3
				c-8.4-4.1-9.7-7.1-9.7-14.6c0-23,29.5-24.1,35.4-24.1c15.8,0,27.3,2.5,35.2,7.5c8.7,5.6,13.2,14.9,14,28.5l0.5,9.4h9.4h63.8h9.9
				v-9.9c0-35.3-14.1-63.8-40.8-82.4C789.3,784.4,758.5,776.1,722.8,776.1L722.8,776.1z"/>
		</g>
		<g>
			<path d="M868.2,1174.4V871h66.6v18.9c14.6-16.1,35.6-24.7,60.4-24.7c33.2,0,60.5,12.9,78.8,37.2c16,21.3,24.8,51.3,24.8,84.5
				c0,31.1-8.8,59.8-24.9,80.8c-18.2,23.7-44.2,36.2-75.3,36.2c-23.9,0-45.8-9-60.9-24.7v95.2H868.2z M982.1,920
				c-16.1,0-28.3,6.5-36.2,19.4c-6.8,11.2-10.4,27-10.4,45.7c0,19.2,4.6,63.9,47.1,63.9c40.6-0.1,46.6-40.1,46.6-63.9
				c0-17.9-3.9-34-11-45.3C1010.1,926.6,997.9,920,982.1,920z"/>
			<path class="st0" d="M995.2,870.1c68,0,98.6,55,98.6,116.7c0,58-32,112-95.3,112c-26,0-50.8-11.3-65.1-32.7h-0.8v103.3h-59.5V876
				h56.7v27.7h0.8C944.9,880.6,968.4,870.1,995.2,870.1 M982.6,1053.9c39.1-0.1,51.6-33.6,51.6-68.9c0-34.4-13.9-70.1-52.1-70.1
				c-39,0-51.6,34.8-51.6,70.1C930.5,1020.3,943.9,1053.9,982.6,1053.9 M995.2,860.2c-21.8,0-40.8,6.3-55.5,18.2V876v-9.9h-9.9
				h-56.7h-9.9v9.9v293.5v9.9h9.9h59.5h9.9v-9.9v-79.2c15.2,11.8,34.9,18.5,56,18.5c32.7,0,60.1-13.2,79.3-38.2
				c16.7-21.8,25.9-51.6,25.9-83.8c0-16.6-2.1-32.5-6.2-47c-4.4-15.4-11-29-19.6-40.5C1058.6,873.8,1030,860.2,995.2,860.2
				L995.2,860.2z M982.6,1044c-36.7,0-42.2-36.9-42.2-58.9c0-22.5,5.4-60.1,41.7-60.1c39.1,0,42.2,46,42.2,60.1
				C1024.3,1011.9,1017,1043.9,982.6,1044L982.6,1044z"/>
		</g>
		<g>
			<path d="M1217.3,1103.8c-34.6,0-63.9-11.6-84.7-33.5c-20.4-21.4-31.1-51.1-31.1-85.7c0-69.3,48.7-119.6,115.8-119.6
				c31.4,0,58.4,11,78,31.9c23.1,24.5,34.8,61.8,32.3,102.3l-0.3,4.7h-156c2.8,30.7,18.2,45.1,48,45.1c23.1,0,39.4-14.2,42.3-24.5
				l1-3.6h63.1l-2.1,6.5C1307,1078,1271.2,1103.8,1217.3,1103.8z M1257,956.2c-5.9-25.6-18.2-36.2-41.4-36.2
				c-33.8,0-42,24.8-44,36.2H1257z"/>
			<path class="st0" d="M1217.3,869.9c73.9,0,109.6,62.1,105.4,128.9h-156.6c1.7,37.8,20.1,55,53.3,55c23.9,0,43.3-14.7,47-28.1
				h52.5c-16.8,51.2-52.5,73-101.6,73c-68.5,0-110.9-47-110.9-114.2C1106.4,919.5,1151.4,869.9,1217.3,869.9 M1166.1,961.1h97
				c-5.5-30.3-18.5-46.1-47.4-46.1C1177.8,915,1166.9,944.4,1166.1,961.1 M1217.3,860c-34.3,0-65.3,12.8-87.3,36
				c-21.6,22.7-33.4,54.2-33.4,88.6c0,36,11.2,66.8,32.5,89.1c21.8,22.9,52.3,35,88.3,35c27.2,0,50.3-6.4,68.6-19.1
				c19.3-13.4,33.6-33.8,42.5-60.8l4.3-13h-13.7h-52.5h-7.5l-2,7.2c-2.5,8.7-17.9,20.8-37.5,20.8c-14.2,0-24.5-3.4-31.4-10.4
				c-5.6-5.6-9.2-13.9-11-24.7h145.7h9.3l0.6-9.3c2.6-41.8-9.7-80.5-33.6-106C1278.4,871.6,1250.1,860,1217.3,860L1217.3,860z
				 M1177.9,951.2c1.3-4.1,3.4-8.9,6.8-13.2c6.9-8.7,17.3-13.1,30.9-13.1c11.5,0,19.6,2.8,25.4,8.7c4,4.1,7.1,9.9,9.5,17.6H1177.9
				L1177.9,951.2z"/>
		</g>
		<g>
			<path d="M1448.1,1104c-67.4,0-114.5-47.8-114.5-116.2c0-35.3,10.5-65.5,30.2-87.4c20.7-22.9,50.3-35,85.6-35
				c27.5,0,53,7.6,71.7,21.3c21.2,15.5,33.4,38.2,35.2,65.6l0.4,5.3l-68-0.1l-0.7-4.2c-3.4-21.7-16.9-33.1-39.2-33.1
				c-43.6,0-45.8,54.6-45.8,65.6c0,10.6,2.1,63.4,44.6,63.4c23.8,0,38.9-14.1,42.5-39.8l0.6-4.3h67.5l-0.7,5.6
				C1549.9,1069.1,1509,1104,1448.1,1104z"/>
			<path class="st0" d="M1449.4,870.2c51.2,0,98.2,26.9,102,82.3l-58.5-0.1c-3.8-24.3-19.4-37.3-44.1-37.3
				c-38.2,0-50.8,38.6-50.8,70.6c0,31.1,12.2,68.4,49.5,68.4c27.7,0,43.7-17.7,47.4-44.1h57.6c-7.5,57.5-47.4,89-104.5,89
				c-65.5,0-109.6-46.1-109.6-111.2C1338.6,920.2,1378.8,870.2,1449.4,870.2 M1449.4,860.3c-36.7,0-67.6,12.7-89.3,36.7
				c-20.6,22.8-31.5,54.2-31.5,90.7c0,71.3,49.1,121.2,119.5,121.2c63.6,0,106.3-36.5,114.3-97.7l1.5-11.2h-11.3h-57.6h-8.6
				l-1.2,8.5c-2.3,16.2-10.7,35.5-37.6,35.5c-37.7,0-39.6-48.7-39.6-58.5c0-10.1,2-60.6,40.9-60.6c20,0,31.2,9.5,34.3,28.9l1.3,8.4
				l8.5,0l58.5,0.1l10.6,0l-0.7-10.6c-2-28.9-14.9-52.8-37.3-69.2C1504.4,868.2,1477.9,860.3,1449.4,860.3L1449.4,860.3z"/>
		</g>
		<g>
			<path d="M1657.9,1100.6c-31.5,0-73.4-5.9-73.4-56.6V921h-36.1v-49.8h36.1V806h69.6v65h43.7v49.8H1654v102.5
				c0,17.4,2.8,20.2,20.2,20.2c6.8,0,12.1-0.5,17.5-1.6l6-1.2v56.9l-4.1,0.7C1684.9,1099.9,1673.2,1100.6,1657.9,1100.6z"/>
			<path class="st0" d="M1649.1,811v65h43.7v39.9h-43.7v107.5c0,20.1,5.1,25.2,25.2,25.2c6.3,0,12.2-0.4,18.5-1.7v46.6
				c-10.1,1.7-23.1,2.1-34.8,2.1c-36.5,0-68.5-8.4-68.5-51.6V916h-36.1v-39.9h36.1V811H1649.1 M1659,801.1h-9.9h-59.6h-9.9v9.9v55.2
				h-26.2h-9.9v9.9V916v9.9h9.9h26.2V1044c0,23.4,8.5,40.4,25.4,50.5c12.6,7.5,29.4,11,53,11c15.6,0,27.5-0.7,36.5-2.2l8.3-1.4v-8.4
				v-46.6v-12.2l-11.9,2.5c-5,1-10,1.5-16.5,1.5c-9.6,0-12.3-1.3-13.1-2.1c-0.8-0.8-2.1-3.6-2.1-13.1v-97.6h33.7h9.9v-9.9V876v-9.9
				h-9.9H1659V811V801.1L1659,801.1z"/>
		</g>
		<g>
			<path d="M1703.7,1098l0.1-227h66.6v27.7c14.8-20.1,39.8-33.6,65.1-33.6c4.8,0,10.4,0.9,14.6,2.4l3.4,1.1v65.2l-6.1-1.4
				c-4.9-1.1-13.2-2-20.3-2c-44.5,0-53.8,35.2-53.8,64.7V1098H1703.7z"/>
			<path class="st0" d="M1835.5,870.1c4.2,0,9.2,0.8,13,2.1v55.4c-5.5-1.3-14.3-2.1-21.4-2.1c-43.7,0-58.8,31.5-58.8,69.7v97.9
				h-59.6l0.1-217h56.7v40.3h0.8C1777.1,889,1806.5,870.1,1835.5,870.1 M1835.5,860.2c-16.1,0-32.7,5.1-46.9,14.5
				c-4.8,3.2-9.3,6.8-13.3,10.7V876v-9.9h-9.9h-56.7h-9.9l0,9.9l-0.1,217l0,9.9h9.9h59.6h9.9v-9.9v-97.9c0-39.6,16.4-59.7,48.8-59.7
				c6.6,0,14.7,0.8,19.2,1.8l12.2,2.9v-12.5v-55.4v-7.1l-6.7-2.3C1846.9,861.2,1840.7,860.2,1835.5,860.2L1835.5,860.2z"/>
		</g>
		<g>
			<path d="M1938.7,1103.8c-31.8,0-53.8-8.7-67.4-26.5c-11.6-15.2-16.9-36.7-16.9-67.8V871h69.6v127.5c0,34.3,9.6,48.3,33.2,48.3
				c24.7,0,41.2-9.7,41.2-57.2V871h69.6v226.9h-66.6v-22C1985.8,1093.6,1963.3,1103.8,1938.7,1103.8z"/>
			<path class="st0" d="M2062.9,876v216.9h-56.7v-30.3h-1.3c-15.1,24.3-41.2,36.1-66.3,36.1c-63.4,0-79.4-35.7-79.4-89.4V876h59.6
				v122.6c0,35.7,10.5,53.3,38.2,53.3c32.4,0,46.1-18.1,46.1-62.1V876H2062.9 M2072.8,866.1h-9.9h-59.6h-9.9v9.9v113.7
				c0,20-2.9,33.6-9,41.6c-3.4,4.5-9.9,10.6-27.3,10.6c-14.3,0-28.3-3.3-28.3-43.4V876v-9.9h-9.9h-59.6h-9.9v9.9v133.4
				c0,32.3,5.7,54.8,17.9,70.9c14.6,19.2,38,28.5,71.4,28.5c14.4,0,28.8-3.5,41.5-10.1c5.8-3,11.2-6.7,16.2-10.9v5.2v9.9h9.9h56.7
				h9.9v-9.9V876V866.1L2072.8,866.1z"/>
		</g>
		<g>
			<path d="M2364.4,1098.1V969.9c0-33.1-4.6-47.9-31.6-47.9c-24.2,0-34.9,15.4-34.9,50v125.8h-69.6V971.2l0-3.1
				c0-15,0.1-30.5-8.3-38.9c-4.8-4.9-12.3-7.2-22.9-7.2c-3.6,0-35.3,1.3-35.3,45v130.9h-69.6V871h66.3v21.2
				c16.3-17.8,37.6-27.1,62.1-27.1c29.1,0,51.6,11.2,64.1,31.8c10.4-12.9,31.4-31.8,64.8-31.8c25.7,0,46,6.4,60.3,19
				c16,14.1,24.1,35.5,24.1,63.7v150.3H2364.4z"/>
			<path class="st0" d="M2349.6,870.1c46.1,0,79.4,21.4,79.4,77.7v145.3h-59.6V969.9c0-29-2.5-52.9-36.5-52.9
				c-33.5,0-39.9,27.7-39.9,55v120.9h-59.6V971.2c0-25.2,1.7-54.2-36.1-54.2c-11.7,0-40.3,7.5-40.3,49.9v125.9h-59.6V876h0.1h56.3
				v29.4h0.8c15.6-22.2,38.2-35.2,66.3-35.2c27.3,0,51.6,10.1,63.4,36.1C2296.7,887.4,2319.4,870.1,2349.6,870.1 M2349.6,860.2
				c-15.9,0-30.9,4.2-44.5,12.4c-7.2,4.4-13.9,9.9-19.8,16.2c-13.9-18.6-36.3-28.6-64.6-28.6c-15.4,0-29.7,3.5-42.6,10.5
				c-5.2,2.8-10,6.1-14.6,10V876v-9.9h-9.9h-56.3h-0.1h-9.9v9.9v216.8v9.9h9.9h59.6h9.9v-9.9V966.9c0-15.3,4.1-26.5,12.2-33.2
				c7.7-6.4,16.5-6.8,18.2-6.8c9.2,0,15.5,1.9,19.4,5.8c6.9,6.9,6.9,21.4,6.8,35.4c0,1,0,2.1,0,3.1v121.7v9.9h9.9h59.6h9.9v-9.9V972
				c0-14.8,2-25.5,6.1-32.9c2.9-5.2,8.6-12.2,23.9-12.2c15.1,0,19.8,5.4,22.2,10.1c4.1,8,4.4,21.2,4.4,32.8v123.3v9.9h9.9h59.6h9.9
				v-9.9V947.8c0-29.7-8.7-52.4-25.8-67.4C2397.9,867,2376.5,860.2,2349.6,860.2L2349.6,860.2z"/>
		</g>
	</g>
	<g>
		<rect x="638.2" y="162.9" width="108.5" height="85.8"/>
		<g>
			<g>
				<polygon class="st1" points="2947.4,9.9 2684.6,9.9 3556.8,1237 3819.8,1237 				"/>
				<polygon class="st2" points="2684.6,9.9 2421.6,9.9 3293.8,1237 3556.8,1237 				"/>
				<polygon class="st3" points="2421.6,9.9 2158.6,9.9 3030.8,1237 3293.8,1237 				"/>
			</g>
			<polygon class="st4" points="2158.6,9.9 1895.6,9.9 2767.9,1237 3030.8,1237 			"/>
		</g>
		<g>
			<rect x="638.2" y="280.5" width="108.5" height="359.6"/>
			<rect x="2803.5" y="280.5" width="108.5" height="359.6"/>
			<rect x="2030.1" y="162.9" width="108.5" height="477.3"/>
			<polygon points="883.8,280.5 775.4,280.5 775.4,366.3 775.4,640.1 883.8,640.1 883.8,366.3 1265.6,366.3 1265.6,640.1 
				1374,640.1 1374,366.3 1374,280.5 1265.6,280.5 			"/>
			<polygon points="3539.3,280.5 3049.1,280.5 2940.6,280.5 2940.6,366.3 2940.6,640.1 3049.1,640.1 3049.1,366.3 3539.3,366.3 			
				"/>
			<polygon points="10.8,304.2 9.9,304.2 9.9,417.4 9.9,503.2 9.9,504.4 118.4,504.4 118.4,503.2 500.2,503.2 500.2,554.4 
				10.8,554.4 10.8,640.1 500.2,640.1 608.5,640.1 609.4,640.1 609.4,554.4 608.5,554.4 608.5,503.2 608.5,417.4 608.5,416.1 
				500.2,416.1 500.2,417.4 118.4,417.4 118.4,366.3 609.4,366.3 609.4,280.5 10.8,280.5 			"/>
			<polygon points="1402.7,280.5 1402.7,366.3 1402.7,554.4 1402.7,640.1 1511.1,640.1 2001.4,640.1 2001.4,554.4 1511.1,554.4 
				1511.1,366.3 2001.4,366.3 2001.4,280.5 1511.1,280.5 			"/>
			<path d="M2765.9,280.5h-99.6h-4.1h-495.1v85.8h495.1v51.1h-495.1v4.6v81.3v51.1v85.7h108.5h386.6h4.1h99.6h4.9h4.1V280.5h-4.1
				H2765.9z M2275.7,554.4v-51.1h386.6v51.1H2275.7z"/>
		</g>
		<g>
			<path class="st1" d="M11.5,1040.8l160.8-192.1H24.1v-55.4h235.8v52L99.2,1037.5h164.9v55.4H11.5V1040.8z"/>
			<path class="st1" d="M380.4,936l-96.6-142.7h76.4l58.8,95.8l60.8-95.8h72.2l-96.2,143.2l104.5,156.6h-78.5l-65.5-103.7
				l-66.8,103.7h-74.3L380.4,936z"/>
			<path class="st1" d="M664.5,993.4c0,39.9,31.1,55.4,66.3,55.4c23.1,0,58.4-6.7,58.4-37.3c0-32.4-45-37.8-89-49.5
				c-44.5-11.7-89.4-29-89.4-85.2c0-61.3,58-90.7,112-90.7c62.5,0,120.1,27.3,120.1,96.6H779c-2.1-36.1-27.7-45.4-59.1-45.4
				c-21,0-45.4,8.8-45.4,34c0,23.1,14.3,26,89.4,45.4c21.8,5.5,89,19.4,89,87.3c0,55-43.3,96.2-124.6,96.2
				c-66.3,0-128.4-32.7-127.6-106.6L664.5,993.4L664.5,993.4z"/>
			<path class="st1" d="M873.1,876h56.7v27.7h0.8c14.3-23.1,37.8-33.5,64.6-33.5c68,0,98.6,55,98.6,116.7c0,58-32,112-95.3,112
				c-26,0-50.8-11.3-65.1-32.7h-0.8v103.3h-59.5V876z M1034.2,985.1c0-34.4-13.9-70.1-52.1-70.1c-39,0-51.6,34.8-51.6,70.1
				c0,35.2,13.4,68.9,52.1,68.9C1021.7,1053.8,1034.2,1020.3,1034.2,985.1z"/>
			<path class="st1" d="M1166.1,998.9c1.7,37.8,20.1,55,53.3,55c23.9,0,43.3-14.7,47-28.1h52.5c-16.8,51.2-52.5,73-101.6,73
				c-68.5,0-110.9-47-110.9-114.2c0-65.1,45-114.6,110.9-114.6c73.9,0,109.6,62.1,105.4,128.9L1166.1,998.9L1166.1,998.9z
				 M1263,961.1c-5.5-30.3-18.5-46.1-47.4-46.1c-37.8,0-48.7,29.4-49.5,46.1H1263z"/>
			<path class="st1" d="M1493,952.4c-3.8-24.3-19.4-37.3-44.1-37.3c-38.2,0-50.8,38.6-50.8,70.6c0,31.1,12.2,68.4,49.5,68.4
				c27.7,0,43.7-17.7,47.4-44.1h57.6c-7.5,57.5-47.4,89-104.5,89c-65.5,0-109.6-46.1-109.6-111.2c0-67.6,40.3-117.5,110.9-117.5
				c51.2,0,98.2,26.9,102,82.3L1493,952.4L1493,952.4z"/>
			<path class="st1" d="M1649.1,876h43.7v39.9h-43.7v107.5c0,20.1,5.1,25.2,25.2,25.2c6.3,0,12.2-0.4,18.5-1.7v46.6
				c-10.1,1.7-23.1,2.1-34.8,2.1c-36.5,0-68.5-8.4-68.5-51.6V916h-36.1v-39.9h36.1V811h59.6V876z"/>
			<path class="st1" d="M1708.7,876h56.7v40.3h0.8c10.9-27.3,40.3-46.1,69.3-46.1c4.2,0,9.2,0.8,13,2.1v55.4
				c-5.5-1.3-14.3-2.1-21.4-2.1c-43.7,0-58.8,31.5-58.8,69.7v97.9h-59.6L1708.7,876L1708.7,876z"/>
			<path class="st1" d="M2062.9,1092.9h-56.7v-30.3h-1.3c-15.1,24.3-41.2,36.1-66.3,36.1c-63.4,0-79.4-35.7-79.4-89.4V876h59.6
				v122.6c0,35.7,10.5,53.3,38.2,53.3c32.4,0,46.1-18.1,46.1-62.1V876h59.6V1092.9z"/>
			<path class="st1" d="M2097.3,876h56.3v29.4h0.8c15.6-22.2,38.2-35.2,66.3-35.2c27.3,0,51.6,10.1,63.4,36.1
				c12.6-18.9,35.2-36.1,65.5-36.1c46.1,0,79.4,21.4,79.4,77.7v145.3h-59.6V969.9c0-29-2.5-52.9-36.5-52.9
				c-33.5,0-39.9,27.7-39.9,55v120.9h-59.6V971.2c0-25.2,1.7-54.2-36.1-54.2c-11.7,0-40.3,7.5-40.3,49.9v125.9h-59.6L2097.3,876
				L2097.3,876z"/>
		</g>
		<rect x="2803.4" y="162.9" width="108.5" height="85.8"/>
	</g>
</g>
</svg>
