<?xml version="1.0" encoding="utf-8"?>
<!-- Generator: Adobe Illustrator 27.2.0, SVG Export Plug-In . SVG Version: 6.00 Build 0)  -->
<svg version="1.1" id="Layer_1" xmlns="http://www.w3.org/2000/svg" xmlns:xlink="http://www.w3.org/1999/xlink" x="0px" y="0px"
	 viewBox="0 0 3840 526.5" style="enable-background:new 0 0 3840 526.5;" xml:space="preserve">
<style type="text/css">
	.st0{fill:#D5A53C;}
	.st1{fill:#FFFFFF;}
	.st2{fill:#EA3323;}
	.st3{fill-rule:evenodd;clip-rule:evenodd;fill:#48A2C9;}
	.st4{fill:none;stroke:#FFE000;stroke-width:4.5502;stroke-miterlimit:10;}
	.st5{font-family:'HelveticaNeueLTStd-Md';}
	.st6{font-size:46.0352px;}
	.st7{fill:none;stroke:#FFE000;stroke-width:4.6213;stroke-miterlimit:10;}
</style>
<g>
	<g>
		<g>
			<rect x="3009.7" y="90.54" class="st0" width="95.12" height="345.41"/>
			<path class="st1" d="M3099.84,95.52v335.46h-85.16V95.52H3099.84 M3109.8,85.56h-9.95h-85.16h-9.95v9.95v335.46v9.95h9.95h85.16
				h9.95v-9.95V95.52V85.56L3109.8,85.56z"/>
		</g>
		<g>
			<rect x="2516.09" y="90.54" class="st0" width="95.12" height="345.41"/>
			<path class="st1" d="M2606.23,95.52v335.46h-85.16V95.52H2606.23 M2616.19,85.56h-9.95h-85.16h-9.95v9.95v335.46v9.95h9.95h85.16
				h9.95v-9.95V95.52V85.56L2616.19,85.56z"/>
		</g>
		<g>
			<polygon class="st0" points="2252.92,435.96 2109.48,90.54 2212.56,90.54 2304.53,324.79 2396.51,90.54 2499.59,90.54 
				2356.14,435.96 			"/>
			<path class="st1" d="M2492.13,95.52l-139.31,335.46h-11.94h-72.69h-11.94L2116.94,95.52h92.23l95.37,242.89l95.37-242.89H2492.13
				 M2507.04,85.56h-14.91h-92.23h-6.79l-2.48,6.32l-86.1,219.3l-86.1-219.3l-2.48-6.32h-6.79h-92.23h-14.91l5.72,13.77
				l139.31,335.46l2.55,6.14h6.64h11.94h72.69h11.94h6.64l2.55-6.14l139.31-335.46L2507.04,85.56L2507.04,85.56z"/>
		</g>
		<g>
			<rect x="1063.2" y="90.54" class="st0" width="95.12" height="345.41"/>
			<path class="st1" d="M1153.34,95.52v335.46h-85.16V95.52H1153.34 M1163.3,85.56h-9.95h-85.16h-9.95v9.95v335.46v9.95h9.95h85.16
				h9.95v-9.95V95.52V85.56L1163.3,85.56z"/>
		</g>
		<g>
			<path class="st0" d="M3739.91,435.96V214.93c0-24.19-19.68-43.87-43.87-43.87h-87.22v264.89h-95.12V90.54h205.64
				c63.79,0,115.69,51.9,115.69,115.69v229.73H3739.91z"/>
			<path class="st1" d="M3719.33,95.52c61.15,0,110.71,49.57,110.71,110.71v224.75h-85.16V214.93c0-26.98-21.87-48.84-48.84-48.84
				h-92.2v264.89h-85.16V166.08v-55.79V95.52H3719.33 M3719.33,85.56h-200.66h-9.95v9.95v14.78v55.79v264.89v9.95h9.95h85.16h9.95
				v-9.95V176.04h82.25c21.44,0,38.89,17.45,38.89,38.89v216.05v9.95h9.95h85.16h9.95v-9.95V206.23c0-32.23-12.55-62.53-35.34-85.32
				C3781.87,98.12,3751.56,85.56,3719.33,85.56L3719.33,85.56z"/>
		</g>
		<g>
			<path class="st0" d="M1521.71,435.96V90.54h179.87c47.37,0,72.15,45.55,72.15,90.54v54.37h-95.12v-47.16
				c0-14.12-11.48-25.6-25.6-25.6h-36.17v273.27H1521.71z"/>
			<path class="st1" d="M1701.57,95.52c45.85,0,67.17,45.44,67.17,85.56v49.39h-85.16v-42.18c0-16.89-13.69-30.58-30.58-30.58
				h-41.15v273.27h-85.16V95.52h42.58h42.58H1701.57 M1701.57,85.56h-89.72h-42.58h-42.58h-9.95v9.95v335.46v9.95h9.95h85.16h9.95
				v-9.95V167.67h31.2c11.37,0,20.62,9.25,20.62,20.63v42.18v9.95h9.95h85.16h9.95v-9.95v-49.39
				C1778.7,133.61,1752.21,85.56,1701.57,85.56L1701.57,85.56z"/>
		</g>
		<g>
			<path class="st0" d="M932.1,435.96V214.93c0-24.19-19.68-43.87-43.87-43.87h-58.75v264.89h-95.12V171.06H631.76v264.89h-95.12
				V90.54h374.89c63.79,0,115.69,51.9,115.69,115.69v229.73H932.1z"/>
			<path class="st1" d="M911.53,95.52c61.15,0,110.71,49.57,110.71,110.71v224.75h-85.16V214.93c0-26.98-21.87-48.84-48.84-48.84
				h-63.72v264.89h-85.16V166.08H626.78v264.89h-85.16V166.08V95.52h85.16h112.57h85.16H911.53 M911.53,85.56h-87.02h-85.16H626.78
				h-85.16h-9.95v9.95v70.57v264.89v9.95h9.95h85.16h9.95v-9.95V176.04h92.66v254.94v9.95h9.95h85.16h9.95v-9.95V176.04h53.77
				c21.44,0,38.89,17.45,38.89,38.89v216.05v9.95h9.95h85.16h9.95v-9.95V206.23c0-32.23-12.55-62.53-35.34-85.32
				C974.06,98.12,943.76,85.56,911.53,85.56L911.53,85.56z"/>
		</g>
		<g>
			<path class="st0" d="M2661.79,435.96v-72.15h191.72c11.13,0,20.39-3.5,26.79-10.11c5.62-5.82,8.72-13.68,8.72-22.13
				c0-22.15-18.41-32.24-35.51-32.24h-119.35c-15.46,0-39.31-6.03-59.86-22.97c-16.33-13.46-35.8-38.51-35.8-81.43
				c0-42.92,19.47-67.97,35.8-81.42c20.55-16.93,44.4-22.97,59.86-22.97h228.8v72.15h-191.72c-11.13,0-20.39,3.5-26.79,10.11
				c-5.62,5.82-8.72,13.68-8.72,22.13c0,22.15,18.41,32.24,35.51,32.24l119.35,0c15.46,0,39.31,6.03,59.86,22.97
				c16.33,13.46,35.8,38.51,35.8,81.43c0,42.92-19.47,67.97-35.8,81.42c-20.55,16.93-44.4,22.97-59.86,22.97H2661.79z"/>
			<path class="st1" d="M2957.99,95.52v62.19h-186.75c-53.98,0-53.98,74.44,0,74.44v0h16.24v0h103.11
				c30.28,0,90.68,25.07,90.68,99.41c0,74.34-60.41,99.41-90.68,99.41h-223.82v-62.19h186.74c53.98,0,53.98-74.44,0-74.44v0h-16.24
				v0h-103.11c-30.28,0-90.68-25.08-90.68-99.41c0-74.34,60.41-99.41,90.68-99.41H2957.99 M2967.94,85.56h-9.95h-223.82
				c-16.33,0-41.46,6.33-63.02,24.1c-17.16,14.14-37.61,40.41-37.61,85.27c0,44.86,20.45,71.13,37.61,85.27
				c21.57,17.77,46.7,24.1,63.02,24.1h103.11l16.24,0c21.09,0,30.53,13.69,30.53,27.27c0,13.57-9.44,27.27-30.53,27.27h-186.74
				h-9.95v9.95v62.19v9.95h9.95h223.82c16.33,0,41.46-6.33,63.02-24.1c17.16-14.14,37.61-40.41,37.61-85.27
				c0-44.86-20.45-71.13-37.61-85.27c-21.57-17.77-46.7-24.1-63.02-24.1h-103.11l-8.4,0l-7.84,0c-21.09,0-30.53-13.69-30.53-27.27
				s9.44-27.27,30.53-27.27h186.75h9.95v-9.95V95.52V85.56L2967.94,85.56z"/>
		</g>
		<g>
			<path class="st0" d="M3311.9,443.34c-34.05,0-64.36-6.14-90.07-18.25c-22.71-10.69-41.94-26.06-57.17-45.66
				c-34.39-44.27-38.1-96-38.1-116.18c0-20.18,3.71-71.91,38.1-116.18c15.23-19.61,34.46-34.97,57.17-45.66
				c25.71-12.11,56.01-18.25,90.07-18.25c34.05,0,64.36,6.14,90.07,18.25c22.71,10.69,41.94,26.06,57.17,45.66
				c34.39,44.28,38.1,96,38.1,116.18c0,20.18-3.71,71.91-38.1,116.18c-15.23,19.61-34.46,34.97-57.17,45.66
				C3376.26,437.2,3345.95,443.34,3311.9,443.34z M3225.68,264.61c0.54,64.89,31.87,102.09,86.04,102.08l0.55,0
				c25.06-0.12,46.04-8.46,60.66-24.12c16.71-17.9,25.1-44.66,24.94-79.52l-0.02-5h0.22c-1.56-62.53-32.72-98.25-86.04-98.25
				c-54.72,0-86.1,37.63-86.1,103.23v0.72L3225.68,264.61z"/>
			<path class="st1" d="M3311.9,88.13c141.67,0,180.36,106.92,180.36,175.12c0,68.19-38.69,175.12-180.36,175.12
				c-141.67,0-180.36-106.92-180.36-175.12C3131.54,195.06,3170.23,88.13,3311.9,88.13 M3311.72,371.67c0.19,0,0.38,0,0.57,0
				c50.3-0.24,90.92-32.07,90.55-108.64h0.26c0-76.57-40.78-108.21-91.07-108.21c-50.3,0-91.07,31.64-91.07,108.21l-0.26,0.88
				C3221.06,340.18,3261.68,371.67,3311.72,371.67 M3311.9,78.18c-34.79,0-65.81,6.3-92.19,18.72
				c-23.42,11.03-43.26,26.88-58.98,47.11c-35.33,45.49-39.14,98.54-39.14,119.24c0,20.7,3.81,73.75,39.14,119.24
				c15.71,20.23,35.56,36.08,58.98,47.11c26.38,12.42,57.4,18.72,92.19,18.72c34.79,0,65.81-6.3,92.19-18.72
				c23.42-11.03,43.26-26.88,58.98-47.11c35.33-45.49,39.14-98.54,39.14-119.24c0-20.7-3.81-73.74-39.14-119.24
				c-15.71-20.23-35.56-36.08-58.98-47.11C3377.71,84.48,3346.69,78.18,3311.9,78.18L3311.9,78.18z M3230.66,265.31l0.25-0.84v-1.45
				c0-33.56,8.06-59.12,23.96-75.99c13.73-14.57,33.5-22.26,57.16-22.26s43.42,7.7,57.16,22.26c14.29,15.16,22.25,37.34,23.72,66.03
				h-0.06l0.05,10c0.16,33.56-7.78,59.16-23.6,76.1c-13.66,14.63-33.39,22.42-57.05,22.54l-0.53,0c-23.52,0-43.2-7.66-56.9-22.16
				C3239.17,323.01,3231.05,298.04,3230.66,265.31L3230.66,265.31z"/>
		</g>
		<g>
			<path class="st0" d="M1955.73,443.34c-34.05,0-64.36-6.14-90.07-18.25c-22.7-10.69-41.94-26.06-57.17-45.66
				c-34.39-44.27-38.1-96-38.1-116.18c0-20.18,3.71-71.91,38.1-116.18c15.23-19.61,34.46-34.97,57.17-45.66
				c25.71-12.11,56.01-18.25,90.07-18.25c34.05,0,64.36,6.14,90.07,18.25c22.71,10.69,41.94,26.06,57.17,45.66
				c34.39,44.28,38.1,96,38.1,116.18c0,20.18-3.71,71.91-38.1,116.18c-15.23,19.61-34.46,34.97-57.17,45.66
				C2020.09,437.2,1989.78,443.34,1955.73,443.34z M1869.51,264.61c0.54,64.89,31.87,102.09,86.04,102.08l0.55,0
				c25.06-0.12,46.04-8.46,60.66-24.12c16.71-17.9,25.1-44.66,24.94-79.52l-0.02-5h0.22c-1.56-62.53-32.72-98.25-86.04-98.25
				c-54.72,0-86.1,37.63-86.1,103.23v0.72L1869.51,264.61z"/>
			<path class="st1" d="M1955.73,88.13c141.67,0,180.36,106.92,180.36,175.12c0,68.19-38.69,175.12-180.36,175.12
				s-180.36-106.92-180.36-175.12C1775.37,195.06,1814.06,88.13,1955.73,88.13 M1955.54,371.67c0.19,0,0.38,0,0.57,0
				c50.3-0.24,90.92-32.07,90.55-108.64h0.26c0-76.57-40.78-108.21-91.07-108.21c-50.3,0-91.07,31.64-91.07,108.21l-0.26,0.88
				C1864.89,340.18,1905.51,371.67,1955.54,371.67 M1955.73,78.18c-34.79,0-65.81,6.3-92.19,18.72
				c-23.42,11.03-43.26,26.88-58.98,47.11c-35.33,45.49-39.14,98.54-39.14,119.24c0,20.7,3.81,73.75,39.14,119.24
				c15.71,20.23,35.56,36.08,58.98,47.11c26.38,12.42,57.4,18.72,92.19,18.72c34.79,0,65.81-6.3,92.19-18.72
				c23.42-11.03,43.26-26.88,58.98-47.11c35.33-45.49,39.14-98.54,39.14-119.24c0-20.7-3.81-73.74-39.14-119.24
				c-15.71-20.23-35.56-36.08-58.98-47.11C2021.54,84.48,1990.52,78.18,1955.73,78.18L1955.73,78.18z M1874.49,265.31l0.25-0.84
				v-1.44c0-33.56,8.06-59.12,23.96-75.99c13.73-14.57,33.5-22.26,57.16-22.26s43.42,7.7,57.16,22.26
				c14.29,15.16,22.25,37.34,23.72,66.03h-0.06l0.05,10c0.16,33.56-7.78,59.16-23.6,76.1c-13.66,14.63-33.39,22.42-57.05,22.54
				l-0.53,0c-23.52,0-43.2-7.66-56.9-22.16C1883,323.01,1874.88,298.03,1874.49,265.31L1874.49,265.31z"/>
		</g>
		<g>
			<path class="st0" d="M1325.91,435.96c-39.05,0-75.02-16.32-101.28-45.97c-28.04-31.64-42.86-75.47-42.86-126.74
				c0-49.57,14.45-91.74,41.8-121.94c30.07-33.21,75.34-50.76,130.91-50.76h135.36v80.52h-117.36c-52.03,0-94.37,42.33-94.37,94.37
				c0,15.29,4.71,38.49,17.94,57.76c16.67,24.29,42.38,36.61,76.43,36.61h117.36v76.16H1325.91z"/>
			<path class="st1" d="M1484.87,95.52v70.57h-112.39c-54.87,0-99.34,44.48-99.34,99.34c0,29.07,17.05,99.34,99.34,99.34
				c0,0,0.01,0,0.01,0h112.38v66.2h-158.96c-74.6,0-139.16-62.19-139.16-167.73c0-92.64,52.12-167.73,167.73-167.73H1484.87
				 M1494.82,85.56h-9.95h-130.39c-29.24,0-55.72,4.68-78.69,13.9c-21.94,8.81-40.75,21.76-55.91,38.5
				c-28.19,31.13-43.09,74.46-43.09,125.28c0,26.67,3.97,51.57,11.81,74.01c7.49,21.44,18.35,40.29,32.3,56.03
				c27.22,30.72,64.51,47.64,105.01,47.64h158.96h9.95v-9.95v-66.2v-9.95h-9.95h-112.38c-32.32,0-56.65-11.59-72.33-34.45
				c-12.58-18.33-17.06-40.4-17.06-54.94c0-49.29,40.1-89.39,89.39-89.39h112.39h9.95v-9.95V95.52V85.56L1494.82,85.56z"/>
		</g>
	</g>
	<g>
		<path d="M46.28,521.52c-22.77,0-41.3-18.53-41.3-41.3V46.28c0-22.77,18.53-41.3,41.3-41.3h285.36c22.77,0,41.3,18.53,41.3,41.3
			v433.94c0,22.77-18.53,41.3-41.3,41.3H46.28z"/>
		<path class="st1" d="M331.64,9.95c20.06,0,36.32,16.26,36.32,36.32v433.94c0,20.06-16.26,36.32-36.32,36.32H46.28
			c-20.06,0-36.32-16.26-36.32-36.32V46.28c0-20.06,16.26-36.32,36.32-36.32H331.64 M331.64,0H46.28C20.76,0,0,20.76,0,46.28v433.94
			c0,25.52,20.76,46.28,46.28,46.28h285.36c25.52,0,46.28-20.76,46.28-46.28V46.28C377.91,20.76,357.15,0,331.64,0L331.64,0z"/>
	</g>
	<g>
		<path class="st2" d="M171.9,149.39c0.04-0.14,0-4.82,0-4.82l-0.74,4.82l-27.13,100.44h-25.46L91.52,149.39
			c-0.29-0.39-0.86-4.92-0.86-4.92v4.92l-0.1,100.44H53.5V40.49h45.79l30.94,113.8l0.58,3.36l0.58-3.36l30.16-113.8h47.83v209.34
			h-37.45L171.9,149.39"/>
		<path class="st3" d="M253.83,75.38c2.22-0.29,10.67-0.16,10.67-0.16c7.89-0.1,24.35,7.44,24.08,23.01
			c-0.35,21.3-16.66,25.69-24.06,25.81c0,0-8.51,0.15-10.69,0.15L253.83,75.38 M254.09,161.35c3.44-0.08,11.16,0.08,11.16,0.08
			c14.52,0.12,29.6,9.33,29.31,25.87c-0.33,19.86-15.9,27.4-28.59,27.45c0,0-8.57,0.19-11.89,0.06L254.09,161.35z M216.73,40.49
			l50.18,0.04c36.19,0.04,60.6,26.84,59.28,56.26c-0.88,19.88-8.98,34.48-19.11,42.86c20.66,13.16,29.29,39.01,25.01,61.05
			c-7.07,36.44-37.16,49.19-64.49,49.19h-50.77L216.73,40.49z"/>
	</g>
	<text transform="matrix(1 0 0 1 103.1809 450.1016)" class="st1 st5 st6">MILTON</text>
	<text transform="matrix(1 0 0 1 78.3003 492.9707)" class="st1 st5 st6">BRADLEY</text>
	<polyline class="st7" points="9.95,365.52 72.64,365.52 87.39,334.3 103.55,393.44 124.75,324.24 139.22,380.31 152.48,342.77 
		160.83,365.52 194.29,365.52 209.57,333.02 221.2,391.55 248.51,322.1 265.16,388.55 290.42,335.16 302.38,365.52 367.96,365.52 	
		"/>
	<g>
		<path class="st1" d="M70.57,300.52H52.65c-1.41-0.36-2.22-1.27-2.44-2.72l4.5-1.63h14.67L70.57,300.52z M50.32,296.72l1.41-14.12
			l1.2-1.09l2.93,3.26l-1.04,10.32L50.32,296.72z M57.64,266.85l-1.03,10.32l-3.58,3.26l-0.98-1.09l1.41-14.12L57.64,266.85z
			 M72.41,265.77h-14.6l-4.18-1.63c0.5-1.45,1.5-2.35,2.98-2.72h17.86L72.41,265.77z M70.57,278.8l1.96,2.17l-2.38,2.17H56.02
			l-1.96-2.17l2.39-2.17H70.57z"/>
		<path class="st1" d="M80.33,284.77l-1.14,11.4l-2.06,4.35c-1.41-0.36-2.22-1.27-2.44-2.72l1.52-15.2l1.2-1.09L80.33,284.77z
			 M77.51,280.43l-0.98-1.09l1.52-15.2c0.51-1.45,1.51-2.35,2.99-2.72l1.2,4.34l-1.14,11.41L77.51,280.43z M80.28,296.18h13.03
			l4.18,1.63c-0.51,1.45-1.5,2.35-2.98,2.72H78.21L80.28,296.18z"/>
		<path class="st1" d="M121.84,300.52h-17.92c-1.41-0.36-2.22-1.27-2.44-2.72l4.5-1.63h14.67L121.84,300.52z M101.59,296.72
			L103,282.6l1.2-1.09l2.93,3.26l-1.04,10.32L101.59,296.72z M108.91,266.85l-1.03,10.32l-3.58,3.26l-0.98-1.09l1.41-14.12
			L108.91,266.85z M123.69,265.77h-14.6l-4.18-1.63c0.5-1.45,1.5-2.35,2.98-2.72h17.86L123.69,265.77z M121.84,278.8l1.96,2.17
			l-2.38,2.17h-14.12l-1.96-2.17l2.39-2.17H121.84z"/>
		<path class="st1" d="M146.31,300.52h-17.92c-1.41-0.36-2.22-1.27-2.44-2.72l4.5-1.63h14.67L146.31,300.52z M126.06,296.72
			l1.41-14.12l1.2-1.09l2.93,3.26l-1.04,10.32L126.06,296.72z M133.39,266.85l-1.03,10.32l-3.58,3.26l-0.98-1.09l1.41-14.12
			L133.39,266.85z M148.16,265.77h-14.6l-4.18-1.63c0.5-1.45,1.5-2.35,2.98-2.72h17.86L148.16,265.77z"/>
		<path class="st1" d="M157.91,265.77l-4.19-1.63c0.51-1.45,1.51-2.35,2.99-2.72h17.32c1.41,0.36,2.23,1.27,2.45,2.72l-4.51,1.63
			H157.91z M163.35,281.52l1.95,2.17l-1.41,14.12c-0.5,1.45-1.5,2.35-2.98,2.72l-1.2-4.35l1.25-12.49L163.35,281.52z M161.5,278.26
			l1.14-11.4h4.34l-1.14,11.4l-2.38,2.17L161.5,278.26z"/>
		<path class="st1" d="M182.82,284.77l-1.14,11.4l-2.06,4.35c-1.41-0.36-2.22-1.27-2.44-2.72l1.52-15.2l1.2-1.09L182.82,284.77z"/>
		<polygon class="st1" points="184.6,266.85 183.58,277.17 179.99,280.43 179.01,279.34 180.42,265.22 		"/>
		<path class="st1" d="M197.75,265.77h-12.98l-4.18-1.63c0.5-1.45,1.5-2.35,2.98-2.72h16.24L197.75,265.77z"/>
		<polygon class="st1" points="197.53,278.8 199.49,280.97 197.1,283.15 182.98,283.15 181.02,280.97 183.42,278.8 		"/>
		<path class="st1" d="M183.96,284.23h3.25l12.71,14.12c-0.87,1.45-2.39,2.17-4.56,2.17l-11.73-13.03L183.96,284.23z"/>
		<path class="st1" d="M197.7,277.17l1.13-11.41l2.06-4.34c1.42,0.36,2.23,1.27,2.45,2.72l-1.52,15.2l-1.2,1.09L197.7,277.17z"/>
		<polygon class="st1" points="210.28,284.77 209.13,296.18 207.35,297.81 204.9,295.09 206.15,282.6 207.35,281.52 		"/>
		<polygon class="st1" points="224.12,298.35 221.74,300.52 209.78,300.52 207.83,298.35 210.22,296.18 222.16,296.18 		"/>
		<polygon class="st1" points="227.98,281.52 228.95,282.6 227.7,295.09 224.72,297.81 223.25,296.18 224.4,284.77 		"/>
		<g>
			<polygon class="st1" points="207.45,280.43 206.47,279.34 207.72,266.85 210.7,264.14 212.18,265.77 211.03,277.17 			"/>
			<polygon class="st1" points="225.21,265.77 213.26,265.77 211.3,263.6 213.7,261.42 225.64,261.42 227.59,263.6 			"/>
			<polygon class="st1" points="225.16,277.17 226.29,265.77 228.09,264.14 230.53,266.85 229.28,279.34 228.09,280.43 			"/>
		</g>
		<path class="st1" d="M238.59,284.77l-1.14,11.4l-2.06,4.35c-1.41-0.36-2.22-1.27-2.44-2.72l1.52-15.2l1.2-1.09L238.59,284.77z"/>
		<path class="st1" d="M256.29,281.52l0.97,1.09l-1.52,15.2c-0.51,1.45-1.5,2.35-2.98,2.72l-1.2-4.35l1.14-11.4L256.29,281.52z"/>
		<path class="st1" d="M266.21,280.97l0.97,1.09l-1.52,15.21c-0.51,1.45-1.5,2.35-2.98,2.72l-1.2-4.35l1.14-11.4L266.21,280.97z
			 M263.33,277.17l1.13-11.41l2.06-4.34c1.41,0.36,2.23,1.27,2.45,2.72l-1.52,15.2l-1.2,1.09L263.33,277.17z"/>
		<path class="st1" d="M291.61,300.52h-17.92c-1.41-0.36-2.22-1.27-2.44-2.72l4.5-1.63h14.67L291.61,300.52z M271.36,296.72
			l1.41-14.12l1.2-1.09l2.93,3.26l-1.04,10.32L271.36,296.72z M278.69,266.85l-1.03,10.32l-3.58,3.26l-0.98-1.09l1.41-14.12
			L278.69,266.85z M293.46,265.77h-14.6l-4.18-1.63c0.5-1.45,1.5-2.35,2.98-2.72h17.86L293.46,265.77z"/>
		<path class="st1" d="M314.37,300.52h-16.29c-1.41-0.36-2.22-1.27-2.44-2.72l4.5-1.63h13.03L314.37,300.52z"/>
		<polygon class="st1" points="303.07,266.85 302.04,277.17 298.46,280.43 297.48,279.34 298.89,265.22 		"/>
		<path class="st1" d="M303.24,265.77l-4.18-1.63c0.5-1.45,1.5-2.35,2.98-2.72h17.32c1.42,0.36,2.23,1.27,2.45,2.72l-4.51,1.63
			H303.24z"/>
		<g>
			<polygon class="st1" points="316,278.8 317.95,280.97 315.57,283.15 301.45,283.15 299.49,280.97 301.88,278.8 			"/>
			<path class="st1" d="M318.99,281.52l0.97,1.09l-1.52,15.2c-0.51,1.45-1.5,2.35-2.98,2.72l-1.2-4.35l1.14-11.4L318.99,281.52z"/>
		</g>
		<g>
			<polygon class="st1" points="235.85,280.43 234.87,279.34 236.12,266.85 239.1,264.14 240.57,265.77 239.43,277.17 			"/>
			<polygon class="st1" points="253.61,265.77 241.65,265.77 239.7,263.6 242.09,261.42 254.03,261.42 255.99,263.6 			"/>
			<polygon class="st1" points="253.55,277.17 254.69,265.77 256.48,264.14 258.93,266.85 257.68,279.34 256.48,280.43 			"/>
		</g>
	</g>
</g>
</svg>
