<?xml version="1.0" encoding="utf-8"?>
<!-- Generator: Adobe Illustrator 26.3.1, SVG Export Plug-In . SVG Version: 6.00 Build 0)  -->
<svg version="1.1" id="Layer_1" xmlns="http://www.w3.org/2000/svg" xmlns:xlink="http://www.w3.org/1999/xlink" x="0px" y="0px"
	 viewBox="0 0 3839 693.1" style="enable-background:new 0 0 3839 693.1;" xml:space="preserve">
<style type="text/css">
	.st0{fill:#FFFFFF;}
	.st1{fill:#ED0972;}
	.st2{fill-rule:evenodd;clip-rule:evenodd;}
</style>
<g>
	<g>
		<g>
			<rect x="1403.8" y="45.3" class="st0" width="163.2" height="294.5"/>
		</g>
	</g>
	<g>
		<g>
			<g>
				<path class="st1" d="M2169.5,688.1c-53.1,0-95.2-17.5-125.3-51.9c-41.9,34.5-89.9,51.9-143,51.9c-0.5,0-1.1,0-1.6,0
					c-73.2-0.4-112.3-32.6-132.3-59.5c-19.5-25.9-30.7-58.7-33.3-97.6c-2-29.8,1.8-54.4,3.5-63.6l74.5-422.1l142.9,1.1l-74.8,424
					l-0.3,1.6c-2.3,11.9-3.3,41.2,7.8,55.7c2.4,3.1,9.6,12.4,36.3,12.6l0.6,0c23.2,0,42.3-9.9,56.8-29.3
					c12-16.1,18.2-35.2,21.3-48.4l13.3-75.8l0,0l0.8-4.7l25-143.1l0,0l34-192.9h143l-34.3,194.7l-0.3,2L2145,465.1
					c-1.7,15.6-2.3,44.1,12.8,61.1c8.3,9.3,20.7,14,36.7,14l0.6,0c26.7-0.2,37.6-9.6,41.8-13.1l0.3-0.2c17.9-16,26.6-47.1,28.2-56.7
					l0.3-1.7l74.4-422.3l143.4-0.9l-74.6,423.9c-3.8,22.8-21.4,101.8-85.7,160.1c-29.3,26.6-79.5,58.3-151.9,58.7
					C2170.6,688.1,2170.1,688.1,2169.5,688.1z"/>
			</g>
			<g>
				<path class="st0" d="M2477.5,50.4l-73.6,418c-2.7,16-18.7,97.8-84.2,157.3c-28.7,26-77.6,57.1-148.6,57.5c-0.5,0-1.1,0-1.6,0
					c-58.8,0-98.7-22.1-124.7-54c-37.2,31.8-84.8,54-143.6,54c-0.5,0-1.1,0-1.6,0c-70.8-0.4-109-31.4-128.4-57.5
					c-44.7-59.3-31.8-141.3-28.8-157.3l73.8-418l132.8,1l-73.8,418.2l-0.3,1.6c-1.9,10-4.4,42.6,8.8,59.6c2.7,3.5,11,14.4,40.2,14.6
					c0.2,0,0.4,0,0.6,0c57.4,0,77-56.3,83-81.7l19.5-110.8l19.9-112.7l-0.4,2L2027,352.9l-6.1,34.8l0.8-4.7l25-143v0.1L2080,51.2
					h132.9l-33.3,188.9l0,0l-39.4,223.4l39.4-223.4l-0.3,2l-39.2,222.3c-2.9,25.7-2.3,80.8,54.4,80.8c0.2,0,0.4,0,0.6,0
					c29.2-0.2,41.2-11.1,45.3-14.6c19.1-17.1,28.1-49.7,29.8-59.6l0.3-1.6l73.7-418.2L2477.5,50.4 M2489.4,40.3l-12,0.1l-133.3,0.8
					l-8.3,0.1l-1.4,8.2l-73.7,418.2l-0.3,1.5l0,0.1l0,0.1c-2,11.5-11,39.8-26.6,53.8l-0.2,0.2c-3.7,3.2-13.7,11.7-38.6,11.9l-0.5,0
					c-14.7,0-25.5-4-33-12.4c-5.9-6.7-15.3-22.9-11.6-57l39.1-222l0-0.1l0-0.1l0.3-1.8l33.3-188.8l2.1-11.7h-11.9H2080h-8.4
					l-1.5,8.2l-33.3,188.8l0,0l-25,143l-0.8,4.7l0,0l-13.3,75.7c-3,12.7-9,31-20.4,46.4c-13.5,18.1-31.2,27.3-52.8,27.3l-0.5,0
					c-24.3-0.2-30.3-8.1-32.3-10.6l0,0l0,0c-10-13-8.9-40.9-6.9-51.7l0.3-1.6l0-0.1l0-0.1l73.8-418.2l2.1-11.6l-11.8-0.1l-132.8-1
					l-8.4-0.1l-1.5,8.3l-73.8,418c-1.8,9.4-5.6,34.5-3.6,64.8c2.7,39.8,14.2,73.6,34.3,100.2c12.7,17.1,28.9,30.9,48.2,41.2
					c25,13.3,54.6,20.1,88.1,20.3c0.5,0,1.1,0,1.6,0c29.2,0,57.3-5.3,83.5-15.8c20.7-8.3,40.5-19.8,58.9-34.3
					c13.4,14.4,29.2,25.9,47,34.1c22.9,10.6,49.4,16,78.8,16c0.5,0,1.1,0,1.6,0c74-0.4,125.3-32.9,155.2-60
					c65.5-59.4,83.4-139.7,87.3-163l73.6-418L2489.4,40.3L2489.4,40.3z"/>
			</g>
		</g>
		<g>
			<g>
				<path class="st1" d="M2622.1,688c-45.8,0-91.6-22.1-122.6-59.2c-18.5-22.1-31.4-48.7-38.4-78.9c-7.7-33.3-7.9-70.3-0.7-110
					c12.5-68.7,47.3-131.6,98-177.1c51.1-45.9,115.3-71.1,180.6-71.1c71.9,0,131.3,23.7,167.2,66.8c34.2,41,45.8,97.7,33.8,164.2
					l-46.2,253.9h-147.5l39.9-219.5c9.7-53.1,6.9-86.6-8.9-105.5c-11.4-13.6-30-20.3-56.9-20.3c-28.4,0-54.4,11.5-75.2,33.2
					c-18.4,19.2-31.8,45.9-36.8,73.4c-6.2,34.3-1.8,61.7,12.7,79.1c11.9,14.3,30.6,21.8,54.1,21.8c26,0,48.3-6.2,62.4-11.5l8.2-3
					l-25,138l-1.9,1.2C2691.6,680.7,2662.7,688,2622.1,688z"/>
			</g>
			<g>
				<path class="st0" d="M2739,196.6c129.7,0,222.8,78.2,196.1,225.1l-45.5,249.9h-137.3l38.8-213.6c15-82,3.5-131.7-70.7-131.7
					c-64.3,0-106.9,55.8-117,110.7c-13.1,72.1,20.1,106.8,71.7,106.8c25.1,0,47.7-5.7,64.1-11.8l-23,127.3
					c-28,17.7-57.3,23.7-94.1,23.7c-87.4,0-185.7-83.1-156.8-242.3C2490.7,301.5,2605.9,196.6,2739,196.6 M2739,186.6
					c-33.9,0-67.2,6.5-99.1,19.3c-30.8,12.4-59.4,30.2-84.8,53.1c-51.5,46.2-86.9,110.1-99.6,179.9c-7.3,40.4-7.1,78.1,0.8,112
					c7.2,31,20.4,58.2,39.4,81c16.4,19.6,36.2,35,58.9,45.6c21.5,10.1,44.8,15.4,67.6,15.4c41.5,0,71.2-7.6,99.4-25.3l3.7-2.3
					l0.8-4.3l23-127.3l3.1-17.2l-16.4,6.1c-13.8,5.1-35.5,11.2-60.7,11.2c-15.3,0-36.4-3.5-50.3-20c-13.6-16.2-17.6-42.2-11.6-75
					c4.9-26.5,17.8-52.4,35.5-70.8c13.9-14.5,37.5-31.7,71.6-31.7c25.3,0,42.7,6,53.1,18.5c14.7,17.7,17.2,49.9,7.8,101.4
					l-38.8,213.7l-2.1,11.8h11.9h137.3h8.3l1.5-8.2l45.5-249.9c12.4-68,0.3-126.2-34.8-168.3C2873.2,211,2812.5,186.6,2739,186.6
					L2739,186.6z"/>
			</g>
		</g>
		<g>
			<path class="st1" d="M3270.3,235.3c-37.5,0-71.6,10.3-102.7,29.7l11.9-65.7h-137.2l-86.5,473.1H3093l46-251.3
				c9.9-25.6,36.8-64,109.2-64h97.2l22-121.8h-96.9"/>
			<path class="st0" d="M3097.2,677.4h-147.5l88.3-483.1h147.4l-11,60.9c29.8-16.5,62-24.9,95.9-24.9v10c-35.7,0-69.3,9.7-100.1,29
				l-9.6,6l12.8-70.9h-127.1l-84.7,463.1h127.2l45.3-247.6l0.2-0.4c4.7-12.3,14.3-29.9,32.8-43.8c20.6-15.5,47.9-23.4,81.1-23.4
				h93.1l20.2-111.8h-90.9v-10h102.8l-23.8,131.8h-101.4c-30.9,0-56.2,7.2-75.1,21.4c-16.4,12.4-25,28-29.3,39L3097.2,677.4z"/>
		</g>
		<g>
			<path class="st1" d="M3494.2,436c-18.2,103.4,32.6,138.4,88,138.4c46.7,0,82.3-23.9,112-56.3l87.1,73.3
				c-56,58.1-137.2,91.6-211.7,91.6c-142.9,0-240.7-95.4-214.6-243.3c26-147.7,141.3-243.1,284.4-243.1
				c114.2,0,216.6,95.3,190.6,243.1l-7.9,44.8h-293.4l17.2-97.2h150.3c9.4-47.7-20.7-87.8-72.4-87.8
				C3560.9,299.6,3512.4,332.7,3494.2,436"/>
			<path class="st0" d="M3569.6,688c-75.9,0-139.8-26.3-180-74.2c-38.1-45.4-51.8-105.9-39.6-175c12.9-73.2,47.5-135.4,100-179.9
				c52-44,117.5-67.3,189.3-67.3c60.2,0,116.2,25.5,153.6,70.1c18.9,22.5,32.1,48.7,39.5,78c7.9,31.3,8.7,65.3,2.4,100.9l-8.6,48.9
				h-303.6l18.9-107.2h150.3c3.1-20.7-1.6-39.8-13.5-54.2c-12.5-15.2-31.9-23.6-54.7-23.6c-69,0.1-108.6,42.2-124.6,132.3
				c-8.3,47-2.7,82.5,16.5,105.3c18.9,22.5,46.7,27.3,66.6,27.3c39.6,0,74.1-17.4,108.3-54.6l3.2-3.5l94.8,79.8l-3.7,3.8
				C3729.6,652.4,3647.1,688,3569.6,688z M3639.3,201.7c-69.4,0-132.6,22.5-182.8,65c-50.7,42.9-84.1,103.1-96.6,174
				c-11.6,66.1,1.3,123.8,37.4,166.8c38.2,45.5,99.4,70.6,172.3,70.6c73.2,0,150.9-32.9,204.3-86.2l-79.3-66.8
				c-34.8,36.6-71.7,54.4-112.4,54.4c-22.1,0-52.8-5.3-74.2-30.8c-21.2-25.2-27.4-63.4-18.7-113.5l0,0
				c8.9-50.5,25.1-86.4,49.5-109.6c21.8-20.8,49.5-30.9,84.8-30.9c25.8,0,48,9.7,62.4,27.2c14.5,17.7,19.8,41.3,14.9,66.5l-0.8,4
				h-150.2l-15.4,87.3h283.3l7.2-40.7c6-34.2,5.3-66.8-2.3-96.7c-7-27.8-19.6-52.7-37.5-74C3749.8,225.9,3696.6,201.7,3639.3,201.7z
				"/>
		</g>
		<g>
			<g>
				<path class="st2" d="M959.2,669.6c-94.2,0-155.5-6.7-218.5-16.8l-4.2-0.7V550.8l6.8,2.7c47.7,18.9,150.2,34.3,228.5,34.3
					c40.4,0,71.3-6.4,91.9-18.9c17.7-10.8,26.6-25.4,26.6-43.5c0-29.3-28.4-48.2-126.8-84.2c-67.1-24.8-121.6-45.8-161-71.5
					c-44.8-29.2-65.6-61.9-65.6-103c0-89,111.9-144.2,292.1-144.2c93.8,0,126.2,6,185.1,16.9l4.1,0.8l0.3,93.4l-5.9-1.1
					c-15.6-3-31-6.6-45.9-10.1c-41.6-9.8-84.6-19.8-142.5-19.8c-68.8,0-96.5,17.5-106.9,27.9c-6.8,6.8-10.2,14.3-10.2,22.3
					c0,17,11.4,30.8,36.9,44.8c25.4,14,63.2,27.4,111.1,44.4l3.7,1.3c69.2,24.7,122.8,46.5,159.6,72.9
					c39.2,28.1,57.5,60.4,57.5,101.6c-0.1,45.9-27,83.9-77.6,109.8C1143.7,655.4,1063.3,669.6,959.2,669.6z"/>
			</g>
			<g>
				<path class="st0" d="M1029,127.5c93.1,0,125.1,5.9,184.2,16.9l0.3,83.2c-57.9-11.1-109.5-30-189.4-30
					c-85.7,0-122.2,27.2-122.1,55.3c0,40.7,56.2,60.1,154.9,95.3c137.2,49,213.7,87.1,213.7,169.8c-0.2,85.3-95.8,146.8-311.5,146.8
					c-88.7,0-149.8-5.9-217.7-16.8v-89.7c48.4,19.2,150.5,34.6,230.3,34.6c87.3,0,123.5-29.9,123.5-67.4
					c0-33.7-33.6-53.6-130.1-88.9c-128.8-47.6-223.3-85.1-223.3-169.8C741.9,179.1,855.6,127.5,1029,127.5 M1029,117.5
					c-87.4,0-161.1,13.1-212.9,37.7c-55.1,26.2-84.2,64.8-84.2,111.5c0,22.6,6,42.6,18.5,61.1c11.1,16.5,27.3,31.6,49.4,46
					c39.8,25.9,94.5,47.1,161.9,72c51.4,18.8,81.1,32,99.1,44c9.1,6,15.4,11.9,19.3,17.8c3.5,5.4,5.1,11,5.1,17.7
					c0,16.2-8.2,29.5-24.2,39.3c-19.5,11.9-50.4,18.2-89.3,18.2c-77.7,0-179.4-15.2-226.6-33.9l-13.6-5.4v14.7v89.7v8.5l8.4,1.3
					c63.3,10.1,124.8,16.9,219.3,16.9c104.9,0,186-14.3,241.1-42.5c52.5-26.8,80.2-66.4,80.3-114.2c0-43-18.9-76.5-59.6-105.7
					c-37.3-26.7-91.3-48.7-160.8-73.5l-3.7-1.3c-47.6-16.9-85.3-30.3-110.3-44.1c-24-13.2-34.3-25.3-34.3-40.4
					c0-6.7,2.9-13,8.7-18.8c7.6-7.6,19.8-14,35.4-18.5c18.5-5.3,41.3-8,68-8c57.4,0,100.1,10,141.4,19.7c15,3.5,30.5,7.1,46.1,10.1
					l11.9,2.3l0-12.1l-0.3-83.2l0-8.3l-8.1-1.5C1155.9,123.5,1123.3,117.5,1029,117.5L1029,117.5z"/>
			</g>
		</g>
		<g>
			<path class="st2" d="M281.8,201H178.8v388.7h102.9c158,0,257.5-67.4,257.5-193.5S439.8,201,281.8,201 M557.8,625.9
				c-50.9,22.9-147,37.4-231.2,37.4H5V128.7h321.6c84.1,0,180.3,14.8,231.2,37.7c123.7,55.9,164.1,145.1,164.1,229.8
				S681.8,569.9,557.8,625.9"/>
			<path class="st0" d="M326.6,668.3H0V123.7h326.6c87.5,0,183.5,15.7,233.3,38.1c58.5,26.4,102.5,62.1,130.6,105.9
				c24.2,37.7,36.4,80.9,36.4,128.4c0,72.5-29,172-167,234.3l0,0C510.4,652.7,414.5,668.3,326.6,668.3z M10,658.3h316.6
				c86.7,0,180.9-15.2,229.2-37h0c73.5-33.2,161.1-99.1,161.1-225.2c0-69.6-28-165.1-161.1-225.3c-48.6-21.9-142.9-37.3-229.2-37.3
				H10V658.3z M281.8,594.7H173.9V196h107.9c79.6,0,145.6,17.7,191,51.3c23.1,17.1,41,38.3,53,63c12.3,25.2,18.5,54.1,18.5,85.9
				c0,31.8-6.2,60.6-18.5,85.6c-12,24.5-29.9,45.5-53,62.4C427.6,577.2,361.5,594.7,281.8,594.7z M183.8,584.7h97.9
				c77.6,0,141.6-16.8,185.1-48.5c21.9-16,38.7-35.7,50-58.8c11.6-23.7,17.5-51,17.5-81.2c0-30.2-5.9-57.7-17.5-81.5
				c-11.3-23.2-28.1-43.2-50-59.4C423.2,223,359.2,206,281.8,206h-97.9V584.7z"/>
		</g>
		<g>
			<path d="M1481.1,5c-102.4,0-185.5,83.1-185.5,185.5S1378.6,376,1481.1,376c102.4,0,185.7-83.1,185.7-185.5S1583.5,5,1481.1,5
				 M1509,323.6h-55.6V154.1h55.6V323.6z M1480.8,122.4c-17.9,0-32.5-14.1-32.5-31.4s14.7-31.4,32.5-31.4
				c18.7,0,33.4,13.8,33.4,31.4S1499.4,122.4,1480.8,122.4"/>
			<path class="st0" d="M1481.1,381c-105,0-190.5-85.5-190.5-190.5C1290.6,85.5,1376,0,1481.1,0c105.2,0,190.7,85.5,190.7,190.5
				C1671.8,295.6,1586.2,381,1481.1,381z M1481.1,10c-99.5,0-180.5,81-180.5,180.5s81,180.5,180.5,180.5
				c99.7,0,180.7-81,180.7-180.5S1580.7,10,1481.1,10z M1514,328.6h-65.5V149.1h65.5V328.6z M1458.4,318.6h45.6V159.1h-45.6V318.6z
				 M1480.8,127.4c-20.7,0-37.5-16.3-37.5-36.4s16.8-36.4,37.5-36.4c21.5,0,38.4,16,38.4,36.4S1502.3,127.4,1480.8,127.4z
				 M1480.8,64.5c-15.2,0-27.5,11.9-27.5,26.4s12.3,26.4,27.5,26.4c15.9,0,28.4-11.6,28.4-26.4S1496.7,64.5,1480.8,64.5z"/>
		</g>
	</g>
</g>
</svg>
