<?xml version="1.0" encoding="utf-8"?>
<!-- Generator: Adobe Illustrator 25.4.1, SVG Export Plug-In . SVG Version: 6.00 Build 0)  -->
<svg version="1.1" id="Layer_1" xmlns="http://www.w3.org/2000/svg" xmlns:xlink="http://www.w3.org/1999/xlink" x="0px" y="0px"
	 viewBox="0 0 3839 1123.8" style="enable-background:new 0 0 3839 1123.8;" xml:space="preserve">
<style type="text/css">
	.st0{fill:#30308F;}
	.st1{fill:#FFFFFF;}
	.st2{fill:#E31E26;}
</style>
<g>
	<g>
		<g>
			<path class="st0" d="M306.9,1113.3c-74.3,0-145.8-24.2-201.3-68c-56.6-44.7-91.4-105.9-98-172.5
				C-8.6,711.6,49.9,588.6,181.5,507.2c36.6-22.7,74.1-40.5,111.4-52.9c46.4-15.5,94.2-23.4,142.2-23.4c52.9,0,107.4,9.6,161.8,28.5
				l3.9,1.3l-0.6,4c-8.8,63-20.6,131.2-20.8,131.9l-1.1,6.4l-5.9-2.7c-32.8-15.1-74.1-23-119.4-23c-85.4,0-168.7,28.2-222.8,75.5
				c-49.4,43.1-77.1,91.8-82.5,144.7c-5.2,52,13.2,91.8,21.4,106.5c13.3,23.9,33.1,42.3,58.7,54.7c22.3,10.8,48.4,16.5,75.5,16.5
				c21.1,0,42.3-3.6,59.8-10.2l10.3-56.5H270.3l20.5-131.2h257L515.7,981l234.5-532.2h171.6l84.6,507.6l164.9-507.6h139.3
				l62.9,342.7l145.7-342.7h167.7l28.6,657.7h-143l-17-384l-165.8,384h-96l-70.9-347.6l-110.6,347.6H878l-34-193.7H697.5
				l-87.2,193.7H460.4l16.4-37.3C423.8,1098.1,365.3,1113.3,306.9,1113.3z M822.1,777.1l-20.3-104.4l-46.6,104.4H822.1z"/>
			<path class="st1" d="M435.1,435.9c49.1,0,102.6,8.2,160.2,28.2c-8.9,63.6-20.7,131.7-20.7,131.7c-33.7-15.5-76.4-23.5-121.5-23.5
				c-79.5,0-166.6,24.8-226.1,76.7c-114.4,99.9-89.2,208.7-62.1,257.3c29.5,53,86.5,73.7,138.4,73.7c23.4,0,45.8-4.2,64.2-11.6
				l11.8-65.1H276.1l19-121.3H542l-37.1,235.8l248.6-564.1h164.2l87.2,523.5L1175,453.8h131.6l65.1,354.9l150.9-354.9h159.7
				l28.2,647.8h-133.1l-17.8-400.9l-173.1,400.9h-88.7l-73.9-362.3l-115.3,362.3H882.2l-34-193.7H694.3l-87.2,193.7H468l19.5-44.2
				c-1.3,0.8-2.9,1.7-4.7,2.8c-57.6,33.3-118.1,48.2-175.9,48.2c-149.7,0-280.8-99.8-294.4-236.1C-3.8,709.6,57.3,589.9,184.1,511.4
				C247.3,472.3,331.5,435.9,435.1,435.9 M747.6,782.1h80.5l-24.4-125.7L747.6,782.1 M435.1,426C435.1,426,435.1,426,435.1,426
				c-48.5,0-96.9,7.9-143.8,23.6c-37.7,12.6-75.5,30.6-112.5,53.4c-65.5,40.5-113.7,92-143.2,153c-15,31-25.4,64.9-30.9,100.8
				c-5.6,36.2-6.3,75.4-2.2,116.5c6.8,67.9,42.3,130.4,99.9,175.9c56.4,44.5,129,69.1,204.4,69.1c30.4,0,60.9-4,90.5-11.9
				c23.6-6.3,46.8-15.1,69.1-26.2l-7.7,17.4l-6.1,13.9H468h139h6.4l2.6-5.8l84.6-187.9h139.1l32.6,185.5l1.4,8.2h8.3h226.3h7.3
				l2.2-6.9l103.8-326l66.3,325l1.6,7.9h8.1h88.7h6.5l2.6-6l156-361.2l15.9,357.7l0.4,9.5h9.5h133.1h10.4l-0.5-10.4l-28.2-647.8
				l-0.4-9.5h-9.5h-159.7h-6.6l-2.6,6l-137.9,324.5L1316.3,452l-1.5-8.1h-8.3H1175h-7.2l-2.2,6.9L1008,935.6l-80.6-483.5l-1.4-8.3
				h-8.4H753.5H747l-2.6,5.9L526.5,944.2l25.2-160.6l1.8-11.5H542H295h-8.5l-1.3,8.4l-19,121.3l-1.8,11.5h11.6h91.3l-8.7,47.9
				c-16.5,5.8-36,9-55.5,9c-26.3,0-51.6-5.5-73.3-16c-24.6-11.9-43.6-29.6-56.5-52.6c-8-14.3-25.9-53-20.8-103.6
				c2.4-23.6,9.5-46.7,21.2-68.7c13.6-25.7,33.7-50.1,59.6-72.7c53.2-46.5,135.3-74.2,219.5-74.2c44.6,0,85.2,7.8,117.3,22.6
				l11.7,5.4l2.2-12.7c0.1-0.7,11.9-69,20.8-132l1.1-8.1l-7.7-2.7C543.6,435.6,488.6,426,435.1,426L435.1,426L435.1,426z
				 M762.9,772.1l37-83l16.1,83H762.9L762.9,772.1z"/>
		</g>
		<g>
			<polygon class="st0" points="1714.9,1106.5 1820.1,448.8 2198.3,448.8 2174.6,597.7 1942.4,597.7 1926.2,703.2 2130.4,703.2 
				2106.5,852.1 1904.7,852.1 1887.8,957.5 2120,957.5 2096.2,1106.5 			"/>
			<path class="st1" d="M2192.5,453.8l-22.1,138.9h-232.2l-17.8,115.4h204.1l-22.2,139h-201.9L1882,962.5h232.2l-22.2,139h-371.3
				l103.6-647.8H2192.5 M2204.1,443.8h-11.6h-368.2h-8.5l-1.3,8.4L1710.9,1100l-1.8,11.5h11.6H2092h8.5l1.3-8.4l22.2-139l1.8-11.5
				h-11.6h-220.6l15.3-95.5h193.4h8.5l1.3-8.4l22.2-139l1.8-11.5h-11.6H1932l14.7-95.6h223.7h8.5l1.3-8.4l22.1-138.9L2204.1,443.8
				L2204.1,443.8z"/>
		</g>
		<g>
			<polygon class="st0" points="3401.6,1106.5 3450.5,796.1 3291.2,448.8 3454.5,448.8 3535,654.2 3662.9,448.8 3830,448.8 
				3586.1,832.7 3544.7,1106.5 			"/>
			<path class="st1" d="M3820.9,453.8l-239.6,377.1l-40.9,270.6h-133.1l48.2-306.2l-156.7-341.6h152.2l82.9,211.5l131.6-211.5
				H3820.9 M3839,443.8h-18.1h-155.3h-5.5l-2.9,4.7L3536,643.2l-75.7-193.1l-2.5-6.3h-6.8h-152.2h-15.5l6.5,14.1l155.5,338.9
				l-47.8,303.2l-1.8,11.5h11.6h133.1h8.5l1.3-8.4l40.6-268.6l238.5-375.4L3839,443.8L3839,443.8z"/>
		</g>
		<g>
			<path class="st0" d="M3072.9,1118.8c-17.7,0-35.4-2-52.6-6c-72.9-16.9-133.3-67.1-170.3-141.4c-36.8-73.9-45.9-163-25.7-250.7
				c36.4-157.7,160.5-272.2,295.1-272.2c17.7,0,35.5,2,52.7,6c36.8,8.5,70.5,25.5,100.2,50.5c28.6,24.1,52.1,54.6,70.1,90.7
				c36.8,74,46,163,25.7,250.7C3331.8,1004.3,3207.6,1118.8,3072.9,1118.8C3072.9,1118.8,3072.9,1118.8,3072.9,1118.8z
				 M3122.3,584.7c-28.5,0-58.9,13.7-85.4,38.5c-27.8,26-49.9,62.1-64,104.3c-35.1,105.3-8.3,215.7,59.8,246.1
				c11.6,5.2,23.8,7.8,36.4,7.8c28.5,0,58.8-13.7,85.3-38.5c27.8-26,49.9-62.1,63.9-104.4c35.1-105.2,8.3-215.6-59.7-246.1
				C3147.1,587.3,3134.9,584.7,3122.3,584.7z"/>
			<path class="st1" d="M3119.5,453.5c17.2,0,34.4,1.9,51.6,5.9c147.5,34,233.6,206.9,192.2,386
				c-36.5,158.3-160.3,268.5-290.4,268.5c-17.1,0-34.4-1.9-51.5-5.9c-147.6-34.2-233.6-207-192.2-386.1
				C2865.7,563.7,2989.4,453.5,3119.5,453.5 M3069.1,986.4c60.8,0,124.5-57.6,154-146.3c35.9-107.8,7.9-220.6-62.4-252.2
				c-12.4-5.6-25.3-8.2-38.4-8.2c-60.9,0-124.6,57.6-154.1,146.3c-35.9,107.8-7.9,220.7,62.5,252.2
				C3043.1,983.7,3056,986.4,3069.1,986.4 M3119.5,443.6c-33.3,0-66.6,6.9-98.9,20.5c-31.5,13.2-61.1,32.4-88,57
				c-27,24.7-50.4,54-69.5,87.2c-19.7,34.3-34.4,71.8-43.5,111.4c-10.4,44.8-13.2,90-8.4,134.3c4.7,42.9,16.2,83.1,34.4,119.6
				c18.3,36.7,42.3,67.7,71.3,92.3c30.2,25.6,64.7,42.9,102.3,51.7c17.6,4.1,35.7,6.1,53.8,6.1c33.4,0,66.6-6.9,99-20.5
				c31.5-13.2,61.1-32.4,88-57c27-24.7,50.4-54,69.5-87.2c19.8-34.3,34.4-71.8,43.5-111.5c10.4-44.8,13.2-90,8.4-134.4
				c-4.7-42.9-16.3-83.1-34.4-119.7c-18.3-36.7-42.3-67.7-71.3-92.3c-30.2-25.5-64.6-42.9-102.2-51.6
				C3155.7,445.7,3137.6,443.6,3119.5,443.6L3119.5,443.6z M3069.1,976.5c-11.9,0-23.5-2.5-34.4-7.4c-15.6-7-29.2-18.5-40.5-34.2
				c-11.2-15.6-19.6-34.6-25-56.6c-11.4-45.8-8.4-98.8,8.4-149.2c13.8-41.5,35.5-76.8,62.7-102.3c25.6-24,54.8-37.2,82-37.2
				c11.9,0,23.4,2.5,34.3,7.3c15.6,7,29.2,18.5,40.5,34.3c11.2,15.6,19.6,34.6,25,56.6c11.4,45.8,8.4,98.8-8.4,149.1
				c-13.8,41.5-35.4,76.9-62.6,102.3C3125.5,963.3,3096.4,976.5,3069.1,976.5L3069.1,976.5z"/>
		</g>
		<g>
			<path class="st0" d="M2286.6,1105.3l104.3-652.8l4.2,0c0.8,0,79.1-0.5,151.8-0.5c42.7,0,75.1,0.2,96.4,0.5
				c26.2,0.4,57.4,11.6,85.5,30.7c31.1,21.1,55.4,49.9,68.4,81.1c12.7,30.5,14.8,62.8,6.5,95.9c-9.2,36.5-31.2,73.4-65.4,109.6
				c30.9,29,50.8,60.8,59.2,94.5c7.7,31.3,5.4,63.4-6.9,95.3c-15.1,39.2-44.8,76.1-83.6,103.8c-37.2,26.6-79.2,41.9-115.2,41.9
				H2286.6z M2565.4,970.5c27,0,49.6-7.1,65.3-20.4c13.3-11.3,20.9-27,20.9-43c0-14.7-6.2-28.3-17.5-38.3
				c-12.9-11.5-31.6-17.5-54-17.5h-107.3l-19,119.2H2565.4z M2581.6,709.2c44.9,0,71.7-32.2,71.7-63.4c0-12.8-4.8-24.4-13.4-32.6
				c-10-9.5-25.1-14.5-43.6-14.5h-82.5l-18.9,110.5H2581.6z"/>
			<path class="st1" d="M2547,456.9c36.8,0,72.3,0.1,96.3,0.5c89.5,1.5,256.8,138,88,312.6c164.2,148.6-16.1,330.3-139.4,330.3
				c-86.5,0-299.4,0-299.4,0l102.7-642.9C2395.2,457.4,2473.5,456.9,2547,456.9 M2489.1,714.2c0,0,19.2,0,92.5,0
				c89.5,0,108.6-120.4,14.7-120.4c-83.8,0-86.6,0-86.6,0L2489.1,714.2 M2448,975.5c0,0,44.1,0,117.4,0
				c117.5,0,120.4-129.1,14.7-129.1c-83.7,0-111.6,0-111.6,0L2448,975.5 M2547,447c-72.7,0-151.1,0.5-151.9,0.5l-8.4,0.1l-1.3,8.3
				l-102.7,642.9l-1.8,11.5h11.6h299.4c37.1,0,80.1-15.6,118.1-42.8c39.6-28.3,69.8-66,85.3-106.1c12.7-32.9,15.1-66,7.1-98.3
				c-8.2-33.3-27.4-64.7-57-93.5c32.9-35.7,54.1-72.1,63.2-108.2c8.6-34.2,6.3-67.5-6.7-99.1c-13.3-32.1-38.2-61.7-70.2-83.3
				c-28.9-19.6-61.1-31.1-88.2-31.5C2622.2,447.1,2589.7,447,2547,447L2547,447z M2518,603.7h78.3c17.2,0,31.1,4.5,40.2,13.1
				c9.8,9.3,11.9,20.9,11.9,29c0,14.2-6.2,28.5-17.1,39.4c-8.7,8.7-24.4,19.1-49.7,19.1h-80.7L2518,603.7L2518,603.7z M2477,856.3
				h103.1c21.2,0,38.7,5.6,50.7,16.3c10.2,9.1,15.9,21.3,15.9,34.6c0,14.7-6.8,28.7-19.2,39.2c-14.8,12.6-36.3,19.3-62.1,19.3
				h-105.8L2477,856.3L2477,856.3z"/>
		</g>
	</g>
	<g>
		<path class="st2" d="M1452.3,323.8c-48.1,0-91.6-16.6-122.6-46.8c-30.1-29.3-46.6-69.1-46.6-112.2c0-43,16.5-82.9,46.4-112.5
			c30.9-30.5,74-47.3,121.5-47.3h928.5c47.5,0,90.6,16.7,121.6,47.2c30,29.5,46.6,69.5,46.9,112.7c0,43.1-16.6,82.9-46.8,112.3
			c-31.1,30.2-74.6,46.8-122.5,46.8H1452.3z"/>
		<path class="st1" d="M2379.5,9.9c97.4,0,163,70.3,163.5,154.9c0,84.4-66,154.1-164.3,154.1h-926.4c-98.7,0-164.3-69.7-164.3-154.1
			c0-84.1,65.5-154.9,162.9-154.9c0.3,0,0.6,0,0.9,0h926.7C2378.9,9.9,2379.2,9.9,2379.5,9.9 M2000.4,189v-0.2h0
			C2000.4,188.9,2000.4,188.9,2000.4,189 M2379.5,0l-1,0h-926.7l-0.9,0c-24.9,0-48.6,4.4-70.2,13.1c-20.8,8.3-39.2,20.3-54.7,35.7
			c-30.9,30.5-47.9,71.7-47.9,116c0,44.5,17.1,85.6,48.1,115.8c15.6,15.2,34.2,27.1,55.2,35.3c21.8,8.6,45.7,12.9,70.9,12.9h926.4
			c25.2,0,49-4.3,70.8-12.9c21-8.2,39.5-20.1,55.2-35.3c31.1-30.3,48.3-71.4,48.3-115.8v0l0,0c-0.2-44.5-17.4-85.8-48.3-116.2
			c-15.6-15.3-34-27.3-54.8-35.6C2428.1,4.4,2404.4,0,2379.5,0L2379.5,0z"/>
	</g>
	<path class="st1" d="M2392,304.6h-954.5c-75.6,0-136.9-61.3-136.9-136.9v0c0-75.6,61.3-136.9,136.9-136.9H2392
		c75.6,0,136.9,61.3,136.9,136.9v0C2528.9,243.3,2467.6,304.6,2392,304.6z"/>
	<path class="st2" d="M1520.7,193.1L1458,91.5h-45.5v145.4h45V135.3l63.1,101.6h45V91.5h-45V193.1z M1877.1,140.2v-14.3h-23.8v-19.7
		h-43.9v19.7h-23.8v14.3h23.8v96.7h43.9v-96.7H1877.1z M1590.7,236.9h43.9v-96.7h-43.9V236.9z M1590.7,120.9h43.9V91h-43.9V120.9z
		 M2356.8,133.6c-35.2,0-63.9,24.2-63.9,54.5c0,29.9,28.7,54.5,63.9,54.5c35.2,0,63.9-24.2,63.9-54.5S2392.9,133.6,2356.8,133.6z
		 M2374.5,208.2c0,15.6-9,21.7-18.1,21.7c-8.6,0-18.1-6.6-18.1-21.7c0-5.7,0-20.9,0-20.9s0-14.3,0-20.1c0-15.1,9-21.7,18.1-21.7
		c8.6,0,18.1,6.1,18.1,21.7c0,5.7,0,16.8,0,20.5C2374.5,188.1,2374.5,202.5,2374.5,208.2z M2236,145.1c-6.9-4.1-14.3-7.7-24.6-8.6
		c-31.5-2.8-55.7,25-55.7,50.8c0,33.6,25.8,46.3,29.9,48c14.8,6.9,33.6,6.9,50.4-3.6c0,0.8,0,5.7,0,5.7h43V91.9h-43
		C2236,91.5,2236,122.6,2236,145.1z M2236,188.1c0,0,0,11,0,17.2c0,14.8-10.2,18.9-17.2,18.9s-17.2-4.1-17.2-18.9
		c0-5.3,0-17.2,0-17.2s0-12.3,0-17.2c0-15.1,10.2-18.9,17.2-18.9s17.2,3.6,17.2,18.9C2236,175.8,2236,188.1,2236,188.1z M1737,135.7
		c-14.3,0.4-26.6,6.6-34.8,14.8c0-2.5,0-10.2,0-10.2h-43.4v96.7h43.4c0,0,0-59.4,0-63.5c0-8.6,9-17.6,20.9-17.6
		c11.8,0,20.1,9.4,20.1,17.6c0,6.1,0,63.5,0,63.5h43.4c0,0,0-45.9,0-52.4C1786.6,145.9,1753.4,135.3,1737,135.7z M2092.6,135.7
		c-14.3,0.4-26.6,6.6-34.8,14.8c0-2.5,0-10.2,0-10.2h-43.4v96.7h43.4c0,0,0-59.4,0-63.5c0-8.6,9-17.6,20.9-17.6
		c11.8,0,20.1,9.4,20.1,17.6c0,6.1,0,63.5,0,63.5h43.4c0,0,0-45.9,0-52.4C2141.8,145.9,2108.6,135.3,2092.6,135.7z M2000.4,189
		c0-29.9-29.1-54.9-64.7-54.9c-35.6,0-64.4,24.2-64.4,54.5c0,29.9,28.7,54.5,64.4,54.5c29.5,0,54.5-16.8,62.3-39.8h-43.4
		c0,0,0,0.4,0,5.7c0,17.6-11.5,21.7-18.1,21.7s-18.4-4.1-18.4-21.7c0-5.3,0-20.1,0-20.1h82.3V189z M1921.3,155
		c3.3-6.1,9.8-8.6,15.6-9c5.7,0,11.8,2.8,15.6,9c2.8,4.9,2.8,10.7,2.8,18.9h-36.5C1918.1,165.2,1918.1,159.9,1921.3,155z
		 M2438.8,109.5c0-4.9-3.6-6.9-10.7-6.9h-9.8v25h6.1v-10.2h2.8l4.9,10.2h6.6l-5.3-11C2436.8,115.2,2438.8,112.7,2438.8,109.5z
		 M2427.3,113.2h-2.8v-7.4h2.5c3.6,0,5.3,1.2,5.3,3.6C2432.7,112.4,2430.6,113.2,2427.3,113.2z M2427.3,92.7
		c-12.3,0-22.5,9.8-22.5,22.5c0,12.3,10.2,22.5,22.5,22.5c12.3,0,22.5-10.2,22.5-22.5C2449.9,102.5,2439.6,92.7,2427.3,92.7z
		 M2427.3,133.3c-9.8,0-18.1-8.2-18.1-18.1s8.2-18.1,18.1-18.1c9.8,0,18.1,8.2,18.1,18.1S2437.6,133.3,2427.3,133.3z M2378.6,9.9
		h-926.7C1353.9,9.5,1288,80.4,1288,164.8s65.6,154.1,164.3,154.1h926.4c98.3,0,164.3-69.7,164.3-154.1
		C2542.5,80,2476.5,9.5,2378.6,9.9z M2378.2,281.1h-926c-78.2,0.4-125.8-52.1-125.8-116.8s48-116.3,125.8-116.8h925.9
		c77.9,0,125.8,52.1,125.8,116.8S2456,281.1,2378.2,281.1z M2378.6,9.9h-926.7C1353.9,9.5,1288,80.4,1288,164.8
		s65.6,154.1,164.3,154.1h926.4c98.3,0,164.3-69.7,164.3-154.1C2542.5,80,2476.5,9.5,2378.6,9.9z M2378.2,281.1h-926
		c-78.2,0.4-125.8-52.1-125.8-116.8s48-116.3,125.8-116.8h925.9c77.9,0,125.8,52.1,125.8,116.8S2456,281.1,2378.2,281.1z
		 M2378.6,9.9h-926.7C1353.9,9.5,1288,80.4,1288,164.8s65.6,154.1,164.3,154.1h926.4c98.3,0,164.3-69.7,164.3-154.1
		C2542.5,80,2476.5,9.5,2378.6,9.9z M2378.2,281.1h-926c-78.2,0.4-125.8-52.1-125.8-116.8s48-116.3,125.8-116.8h925.9
		c77.9,0,125.8,52.1,125.8,116.8S2456,281.1,2378.2,281.1z"/>
</g>
</svg>
