<?xml version="1.0" encoding="utf-8"?>
<!-- Generator: Adobe Illustrator 26.0.3, SVG Export Plug-In . SVG Version: 6.00 Build 0)  -->
<svg version="1.1" id="Layer_1" xmlns="http://www.w3.org/2000/svg" xmlns:xlink="http://www.w3.org/1999/xlink" x="0px" y="0px"
	 viewBox="0 0 3839 729.9" style="enable-background:new 0 0 3839 729.9;" xml:space="preserve">
<style type="text/css">
	.st0{fill:#FFFFFF;}
</style>
<g>
	<g>
		<path d="M1223.9,622.8c-4.4,0-8.1-3.7-8.1-8.2V484.9c0-33.5,10.2-64.3,28.7-86.9c18.7-22.8,44.2-35.3,71.8-35.3h234.3
			c14.3,0,25.6-5.1,33.4-15.1c8-10.3,12.2-25.8,12.2-45c0-38.6-16.2-59.9-45.6-59.9H1224c-4.5,0-8.2-3.7-8.2-8.3v-47.3
			c0-4.5,3.7-8.2,8.2-8.2h354.4c35.8,0,65.8,11.6,86.8,33.5c20.9,21.8,31.9,53,31.9,90.2c0,37.2-11,68.3-31.9,90
			c-20.9,21.7-50.9,33.2-86.7,33.2h-220.2c-25.2,0-42.9,24.3-42.9,59.1v129.7c0,4.5-3.6,8.2-8,8.2H1223.9z"/>
		<path class="st0" d="M1578.4,184c70.2,0,113.7,45.7,113.7,118.7c0,73.1-43.6,118.2-113.7,118.2h-220.2c-28,0-47.9,26.4-47.9,64.1
			v129.7c0,1.8-1.4,3.2-3,3.2h-83.5c-1.6,0-3.1-1.4-3.1-3.2V484.9c0-67,41.6-117.3,95.5-117.3c0.1,0,0.1,0,0.2,0h234.2
			c32,0,50.5-23.8,50.5-65.1s-18.5-64.9-50.5-64.9H1224c-1.7,0-3.2-1.5-3.2-3.3v-47.3c0-1.8,1.5-3.2,3.2-3.2H1578.4 M1578.4,174
			H1224c-7.2,0-13.1,5.9-13.1,13.1v47.3c0,7.3,5.9,13.2,13.1,13.2h326.7c12.7,0,22.6,4.4,29.4,13.1c7.3,9.3,11.1,23.8,11.1,41.8
			c0,18-3.9,32.5-11.2,41.9c-6.8,8.8-16.7,13.2-29.4,13.2h-234.2l-0.2,0c-29.2,0-56.1,13.2-75.7,37.2
			c-19.2,23.5-29.8,55.5-29.8,90.1v129.7c0,7.2,5.8,13.1,13,13.1h83.5c7.1,0,12.9-5.9,12.9-13.1V484.9c0-31.9,15.6-54.1,37.9-54.1
			h220.2c37.2,0,68.4-12,90.3-34.7c21.8-22.6,33.3-54.9,33.3-93.4c0-38.5-11.5-70.8-33.3-93.6C1646.9,186.1,1615.6,174,1578.4,174
			L1578.4,174z"/>
	</g>
	<g>
		<path d="M1631.5,622.8c-4.6,0-8.2-3.6-8.2-8.2v-47.2c0-4.5,3.7-8.4,8.2-8.4h171.2c39.5,0,45.4-37.5,45.4-59.9V302.5
			c0-37.2,11-68.4,31.8-90.1c20.9-21.9,50.9-33.4,86.7-33.4l194.3-0.1c4.6,0,8.4,3.7,8.4,8.3v47.3c0,4.5-3.8,8.3-8.4,8.3h-166.7
			c-14.2,0-25.4,5-33.2,15c-8,10.2-12.3,25.8-12.3,44.9v196.9c0,37.1-11,68.3-31.8,90.1c-20.9,21.8-50.7,33.4-86.3,33.4H1631.5z"/>
		<path class="st0" d="M2161,183.8c1.8,0,3.4,1.4,3.4,3.3v47.3c0,1.8-1.6,3.3-3.4,3.3h-166.7c-31.7,0-50.3,23.5-50.4,64.9v196.9
			c0,73-43.5,118.5-113.1,118.5h-199.2c-1.8,0-3.2-1.4-3.2-3.2v-47.2c0-1.7,1.4-3.4,3.2-3.4h171.2c32.3,0,50.3-23.6,50.3-64.9V302.5
			c0-73.1,43.4-118.6,113.6-118.6L2161,183.8 M2161,173.8L2161,173.8L2161,173.8l-194.3,0.1c-37.2,0-68.4,12.1-90.3,34.9
			c-21.7,22.7-33.2,55.1-33.2,93.6v196.8c0,25.1-7,54.9-40.4,54.9h-171.2c-7.2,0-13.1,6-13.1,13.3v47.2c0,7.2,5.9,13.1,13.1,13.1
			h199.2c37,0,68-12.1,89.9-34.9c21.7-22.7,33.2-55.1,33.2-93.5V302.5c0-18,3.9-32.5,11.2-41.8c6.8-8.7,16.6-13.1,29.2-13.1H2161
			c7.4,0,13.3-5.9,13.3-13.2v-47.3C2174.3,179.8,2168.3,173.8,2161,173.8L2161,173.8z"/>
	</g>
	<g>
		<path d="M2801.4,622.8c-4.5,0-8.2-3.7-8.2-8.2V187.4c0-4.6,3.6-8.3,8.2-8.3h84.5c4.5,0,8.1,3.6,8.1,8.3v427.3
			c0,4.5-3.6,8.2-8.1,8.2H2801.4z"/>
		<path class="st0" d="M2885.9,184.1c1.7,0,3.1,1.3,3.1,3.3v427.3c0,1.8-1.4,3.2-3.1,3.2h-84.5c-1.7,0-3.2-1.4-3.2-3.2V187.4
			c0-2,1.5-3.3,3.2-3.3H2885.9 M2885.9,174.1h-84.5c-7.4,0-13.1,5.8-13.1,13.2v427.3c0,7.2,5.9,13.1,13.1,13.1h84.5
			c7.2,0,13-5.9,13-13.1V187.4C2898.9,179.9,2893.2,174.1,2885.9,174.1L2885.9,174.1z"/>
	</g>
	<g>
		<path d="M2472.1,622.9c-7.9,0-15.8-1.8-23.4-5.4c-16.4-7.3-31.4-22.9-43.5-45.1l-204-382.2c-1.4-2.7-1.4-5.7,0-8
			c1.3-2.1,3.7-3.4,6.3-3.4h92.2c3.8,0,7.7,2.4,9.2,5.6l165.7,309c4.6,8.5,10.6,13.1,16.8,13.1c6.9,0,13.9-5.7,19.1-15.8
			l164.8-306.5c1.9-3.3,5.5-5.5,9-5.5h52.1c2.5,0,4.8,1.3,6.1,3.4c1.4,2.3,1.4,5.1,0.1,7.7l-203.7,382.5
			c-4.1,7.4-8.2,13.7-12.6,19.4C2510.8,611.9,2491.5,622.9,2472.1,622.9C2472.1,622.9,2472.1,622.9,2472.1,622.9z"/>
		<path class="st0" d="M2736.4,183.8c1.8,0,2.8,1.9,1.8,3.8l-203.7,382.5c-3.9,7-7.9,13.1-12.1,18.7c-14.9,19.4-32.6,29.2-50.2,29.2
			c-7.2,0-14.4-1.6-21.3-4.9c-15.1-6.7-29.3-21.1-41.2-43l-203.9-382.2c-1.1-2.1-0.3-4.1,1.9-4.1h92.2c1.8,0,4.1,1.3,4.8,2.9
			l165.7,309.1c5.9,10.7,13.5,15.8,21.1,15.8c8.6,0,17.3-6.4,23.5-18.4l164.7-306.4c0.9-1.6,2.8-2.9,4.6-2.9H2736.4 M2736.4,173.8
			h-52.1c-5.3,0-10.5,3.1-13.2,8l0,0.1l0,0.1l-164.7,306.4l0,0.1l0,0.1c-4.2,8.1-9.8,13.1-14.7,13.1c-4.2,0-8.7-3.8-12.4-10.6
			l-165.6-308.8c-2.4-4.9-8-8.3-13.7-8.3h-92.2c-4.4,0-8.4,2.2-10.6,5.8c-2.3,3.8-2.4,8.6-0.1,12.8l0,0l0,0l203.9,382.2l0,0l0,0
			c12.6,23.2,28.4,39.6,45.8,47.3c8.2,3.9,16.8,5.8,25.5,5.8c21,0,41.7-11.7,58.1-33.1c4.5-5.9,8.7-12.4,12.9-19.9l0-0.1l0-0.1
			l203.7-382.5c2.2-4.1,2.1-8.8-0.2-12.6C2744.5,176,2740.6,173.8,2736.4,173.8L2736.4,173.8z"/>
	</g>
	<g>
		<path d="M3120.5,622.9c-4.6,0-8.2-3.6-8.2-8.2V243c0-0.4-0.4-0.8-0.8-0.8h-160.3c-4.5,0-8.2-3.7-8.2-8.2v-46.7
			c0-4.7,3.5-8.3,8.2-8.3h421.3c4.7,0,8.3,3.5,8.3,8.3V234c0,4.5-3.7,8.2-8.3,8.2h-160.3c-0.5,0-0.8,0.3-0.8,0.8v371.8
			c0,4.6-3.7,8.2-8.4,8.2H3120.5z"/>
		<path class="st0" d="M3372.5,184.1c1.8,0,3.3,1.2,3.3,3.3V234c0,1.7-1.4,3.2-3.3,3.2h-160.3c-3.3,0-5.8,2.5-5.8,5.8v371.8
			c0,1.8-1.4,3.2-3.4,3.2h-82.7c-1.8,0-3.2-1.4-3.2-3.2V243c0-3.2-2.7-5.8-5.8-5.8h-160.3c-1.9,0-3.2-1.6-3.2-3.2v-46.7
			c0-2,1.3-3.3,3.2-3.3H3372.5 M3372.5,174.1h-421.3c-7.4,0-13.1,5.8-13.1,13.2V234c0,7.2,5.9,13.1,13.1,13.1h156.1v367.6
			c0,7.2,5.9,13.1,13.1,13.1h82.7c7.5,0,13.3-5.8,13.3-13.1V247.2h156.1c7.3,0,13.2-5.9,13.2-13.1v-46.7
			C3385.8,179.9,3380,174.1,3372.5,174.1L3372.5,174.1z"/>
	</g>
	<g>
		<path d="M3732.8,623c-3.3,0-7.5-2-9.1-5.6l-43.9-81.9c-1.1-1.4-3-2.4-4-2.4h-268.4c-1.3,0-3.4,1.2-3.9,2.3l-0.2,0.3l-44,81.9
			c-1.8,3.2-5.6,5.4-9.1,5.4h-53.7c-2.7,0-5.1-1.3-6.4-3.4c-1.3-2.2-1.4-4.9-0.2-7.4l205.7-382.6c4.1-8,8.3-14.4,12.6-19.7
			c15.9-20.3,34.8-31,54.5-31c7.8,0,15.6,1.7,23.1,5.1c17,7.9,32,23.7,43.5,45.5l203.6,382.3c1.4,2.7,1.4,5.6,0.1,7.9
			c-1.3,2.1-3.5,3.3-6.1,3.3H3732.8z M3644.6,469.9l-85-161.6c-4.5-8.3-10.4-12.9-16.5-12.9c-6.9,0-14,5.7-19.4,15.7l-85,158.8
			H3644.6z"/>
		<path class="st0" d="M3562.6,183.9c7.1,0,14.2,1.6,21.1,4.7c14.9,7,29.5,21.2,41.2,43.3l203.6,382.3c1,1.9,0.5,3.9-1.7,3.9h-94.1
			c-1.7,0-4-1.2-4.6-2.8l-44-82l-0.2-0.4c-1.8-2.6-5.3-4.8-8.3-4.8h-268.4c-3.2,0-7,2.3-8.4,5.1l-0.1,0.2l-44,81.9
			c-0.9,1.6-3.1,2.8-4.7,2.8h-53.7c-2.2,0-3.1-1.8-2.2-3.6L3500,231.9c3.7-7.1,7.7-13.5,12-18.9
			C3527.3,193.6,3545,183.9,3562.6,183.9 M3436.7,474.9h209.7c3.5,0,4.9-2.3,3.8-5l-86.2-163.9c-5.8-10.5-13.3-15.5-20.9-15.5
			c-8.6,0-17.3,6.4-23.8,18.3l-86,160.6h-0.1C3431.6,472.4,3433,474.9,3436.7,474.9 M3562.6,173.9c-21.2,0-41.4,11.4-58.4,32.9
			c-4.5,5.5-8.8,12.2-13.1,20.5l-205.6,382.4l-0.1,0.1l-0.1,0.1c-2,4-1.8,8.6,0.4,12.2c2.2,3.6,6.2,5.8,10.7,5.8h53.7
			c5.3,0,10.7-3.2,13.3-7.9l0-0.1l0-0.1l44-81.8c0,0,0.1,0,0.1-0.1h267.5c0.1,0.1,0.3,0.2,0.4,0.3l43.6,81.2
			c2.5,5.5,8.6,8.4,13.5,8.4h94.1c4.4,0,8.2-2.1,10.4-5.7c2.3-3.8,2.3-8.5,0.1-12.7l-203.7-382.4c-12-22.8-27.8-39.2-45.8-47.6
			l-0.1,0l-0.1,0C3579.6,175.8,3571.2,173.9,3562.6,173.9L3562.6,173.9z M3528,313.5c4.4-8.1,10.2-13.1,15-13.1
			c4.1,0,8.5,3.8,12.1,10.3l81.2,154.3h-189.4L3528,313.5L3528,313.5z"/>
	</g>
	<g>
		<path d="M227.7,640.7c-51.2,0-102.2-8.4-151.7-24.8c-40.4-11.6-66-31.6-70.4-54.8C2.8,546,9.5,531.2,24,520.3
			c12.7-9.6,30.4-19.3,52.6-28.8c9.1-3.9,24.3-9.8,29.5-11.3l0-0.1l216.6-78.2v96.9l-154.3,56.1c-15.8,5.8-19.8,11.7-19.8,14
			c0,1.8,2.8,4.8,10.5,7.4c8,2.6,18.8,4,31.3,4c18.5,0,38.4-3.2,53.1-8.6l79.2-29.1v88.4l-4,0.8c-3.3,0.6-6.9,1.2-10.4,1.8
			c-1.4,0.2-2.8,0.5-4.2,0.7C278.9,638.5,253.2,640.7,227.7,640.7C227.7,640.7,227.7,640.7,227.7,640.7z"/>
		<path class="st0" d="M317.7,409v86.3l-151,54.9c-26.8,9.8-30.8,23.6-9.2,30.7c8.8,2.9,20.4,4.3,32.9,4.3c18.5,0,38.8-3.1,54.8-8.9
			l72.5-26.7V627c-4.6,0.9-9.7,1.7-14.4,2.5c-24.7,4.1-50,6.2-75.6,6.2c-49.5,0-100.1-7.9-150.2-24.6C6.5,590.8-5.3,548.6,27,524.3
			c29.8-22.6,80.7-39.5,80.8-39.5L317.7,409 M327.6,394.8l-13.3,4.8l-209.8,75.8c-1.6,0.5-4.1,1.4-8.7,3.1
			c-4.9,1.8-12.5,4.7-21.2,8.5C52.1,496.6,34,506.5,21,516.4C5,528.4-2.4,545,0.7,561.9C3,574.2,10.8,586,23.3,596
			c12.7,10.2,29.9,18.5,51.2,24.6c50,16.6,101.5,25.1,153.2,25.1c25.8,0,51.8-2.1,77.2-6.4c1.4-0.2,2.8-0.5,4.2-0.7
			c3.5-0.6,7.1-1.2,10.5-1.8l8-1.6V627v-77.2v-14.3l-13.4,4.9l-72.5,26.7c-14.2,5.2-33.4,8.3-51.4,8.3c-11.8,0-22.3-1.3-29.7-3.8
			c-3.4-1.1-5.4-2.3-6.5-3c1.6-1.8,6.2-5.3,16-8.9l151-54.9l6.5-2.4v-7V409V394.8L327.6,394.8z"/>
	</g>
	<g>
		<path d="M515.1,616.7l238.8-86.3c15.7-5.8,19.8-11.7,19.8-14c0-1.8-2.8-4.8-10.5-7.4c-8-2.6-18.8-4-31.3-4
			c-18.5,0-38.4,3.2-53.1,8.6l-163.7,58.5v-100l12.5-4.2c0.4-0.1,46.7-16.6,110.2-23.7c15.1-1.7,31.1-2.6,47.5-2.6
			c56,0,112.1,9.7,157.9,27.3c49.1,15.8,64.6,35.9,68.9,50c3.7,11.8,1,24.3-7.5,35.2c-18.2,23.3-61,39.4-62.8,40.1L515.1,713.4
			V616.7z"/>
		<path class="st0" d="M685.3,446.6c52.6,0,109.3,9,156.2,27c69,22.2,76.8,54.8,59.2,77.5c-17.5,22.5-60.6,38.5-60.6,38.5
			l-320,116.7v-86.1l235.5-85.2c26.8-9.8,30.8-23.6,9.2-30.7c-8.8-2.9-20.4-4.3-32.9-4.3c-18.5,0-38.8,3.1-54.8,8.9l-157,56.1v-89.3
			l9.2-3.1c0,0,45.5-16.3,109.1-23.5C653.4,447.4,669.2,446.6,685.3,446.6 M685.3,436.6c-16.6,0-32.7,0.9-48,2.6
			c-63.3,7.1-108.3,22.9-111.3,24l-9.1,3.1l-6.8,2.3v7.1V565v14.1l13.3-4.8l157-56.1l0,0l0,0c14.2-5.2,33.4-8.3,51.4-8.3
			c11.8,0,22.3,1.3,29.7,3.8c3.4,1.1,5.4,2.3,6.5,3c-1.6,1.8-6.2,5.3-15.9,8.9l-235.4,85.1l-6.6,2.4v7v86.1v14.2l13.4-4.9l320-116.7
			l0,0l0,0c1.9-0.7,45.9-17.3,65-41.7c9.5-12.2,12.4-26.4,8.3-39.8c-3.3-10.8-11-20.7-22.8-29.6c-12.1-9.1-28.6-17-49.2-23.6
			C798.5,446.4,741.9,436.6,685.3,436.6L685.3,436.6z"/>
	</g>
	<g>
		<path d="M341,672.6V6l5.9,1.1c66.5,12.4,161.5,42.3,202.4,56.3C676,107.5,718.8,163.7,718.8,286.2c0,43.3-9.7,79.1-28.1,103.5
			c-18,24-43.8,36.6-74.6,36.6c0,0,0,0,0,0c-21.1,0-43.8-5.9-67.5-17.5l-2.8-1.4V184.3c0-31.1-7.5-46.5-24.9-51.4l-0.2-0.1
			c-1.9-0.6-3.8-0.9-5.5-0.9c-12.3,0-17.7,16.7-17.7,33.3V723L341,672.6z"/>
		<path class="st0" d="M346,12c62.3,11.6,153,39.4,201.7,56.1c124.1,43.2,166,97,166,218.2c0,87.8-39.7,135.1-97.7,135.1
			c-19.9,0-42-5.6-65.4-17V184.3c0-25.8-4.8-49.5-28.6-56.2c-2.5-0.8-4.8-1.2-7-1.2c-14.2,0-22.7,15.9-22.7,38.3v551L346,669V12
			 M336.1,0v12v657v7.2l6.9,2.2l146.4,47.3l13,4.2v-13.7v-551c0-16.7,5.3-28.3,12.8-28.3c1.2,0,2.5,0.2,4,0.7l0.2,0.1l0.2,0.1
			c14.9,4.2,21.3,18.1,21.3,46.6v220.1v6.2l5.6,2.7c24.4,12,47.9,18.1,69.7,18.1c32.4,0,59.5-13.3,78.5-38.6
			c9.5-12.6,16.7-27.9,21.6-45.7c5-18,7.5-38.4,7.5-60.8c0-65-11.9-109.5-38.5-144.4c-26.3-34.4-67.7-60-134.2-83.2
			c-41.1-14.1-136.4-44-203.2-56.5L336.1,0L336.1,0z"/>
	</g>
</g>
</svg>
