<?xml version="1.0" encoding="UTF-8" standalone="no"?>
<svg
   xmlns:svg="http://www.w3.org/2000/svg"
   xmlns="http://www.w3.org/2000/svg"
   id="svg-mamelogo-small-black"
   version="1.1"
   viewBox="0 0 50 15"
   width="50px"
   height="15px">
  <g transform="matrix(0.04,0,0,0.04,0.7,0.7)">
    <path
       fill="#000000" stroke="none"
       d="M 6,259 257,7 V 116 L 367,7 V 183 L 544,6 V 204 L 742,7 V 116 L 852,7 V 176 L 1017,11 H 1208 L 1146,73 H 1049 L 1021,101 H 1072 L 1007,166 H 955 L 926,195 H 1096 L 1031,259 H 771 L 787,241 V 172 L 694,263 V 157 L 592,259 H 478 V 172 L 309,341 H 209 L 302,248 V 172 L 209,263 V 157 L 106,259 z" />
  </g>
</svg>
