<?xml version="1.0" encoding="utf-8"?>
<!-- Generator: Adobe Illustrator 26.0.3, SVG Export Plug-In . SVG Version: 6.00 Build 0)  -->
<svg version="1.1" id="Layer_1" xmlns="http://www.w3.org/2000/svg" xmlns:xlink="http://www.w3.org/1999/xlink" x="0px" y="0px"
	 viewBox="0 0 2159 2159" style="enable-background:new 0 0 2159 2159;" xml:space="preserve">
<style type="text/css">
	.st0{fill:#F6BF16;}
	.st1{fill:#943F95;}
	.st2{fill:#62B947;}
	.st3{fill:#E61D32;}
	.st4{fill:#0F9AD6;}
	.st5{fill:#F38020;}
	.st6{clip-path:url(#SVGID_00000081617445301496820280000006482598692060137130_);fill:#62B947;}
	.st7{fill:#FFFFFF;}
	.st8{clip-path:url(#SVGID_00000151513551677905599740000014670760042297092532_);fill:#62B947;}
	.st9{clip-path:url(#SVGID_00000134967148404837716810000017366897588689098421_);fill:#62B947;}
	.st10{clip-path:url(#SVGID_00000163037784618146103110000015765918051970371473_);fill:#62B947;}
	.st11{clip-path:url(#SVGID_00000096047284895218322660000000255752950803259522_);fill:#62B947;}
	.st12{clip-path:url(#SVGID_00000008147403928570890520000007671664830977447602_);fill:#62B947;}
	.st13{clip-path:url(#SVGID_00000174560878761645254230000006247769834759276673_);fill:#62B947;}
	.st14{clip-path:url(#SVGID_00000146460629648134032620000017832997791448705454_);fill:#62B947;}
</style>
<g>
	<rect width="2159" height="2159"/>
	<g>
		<g>
			<rect x="967.6" y="531.6" class="st0" width="155.9" height="411.7"/>
			<circle class="st0" cx="1045.6" cy="352.7" r="93.3"/>
		</g>
		<g>
			
				<rect x="967.6" y="1215.6" transform="matrix(-1 -1.224647e-16 1.224647e-16 -1 2091.1702 2842.9624)" class="st1" width="155.9" height="411.7"/>
			<circle class="st1" cx="1045.6" cy="1806.3" r="93.3"/>
		</g>
		<path class="st2" d="M605.9,284.5v-0.6H450H294.1v659.5H450V717.2h143.1l0,0c150.4,0,225.6-108.3,222.4-216.6
			C818.6,395.4,747.7,290.6,605.9,284.5z M567.6,589.4H450V411.7h117.6l0,0c59.2,0,88.8,44.4,88.8,88.8S626.8,589.4,567.6,589.4z"/>
		<path class="st3" d="M605.9,1216.2v-0.6H450H294.1v659.5H450v-226.2h143.1l0,0c150.4,0,225.6-108.3,222.4-216.6
			C818.6,1327.1,747.7,1222.3,605.9,1216.2z M567.6,1521.1H450v-177.6h117.6v0c59.2,0,88.8,44.4,88.8,88.8
			C656.4,1476.6,626.8,1521.1,567.6,1521.1z"/>
		<polygon class="st4" points="1707.6,1585.8 1471.8,1215.6 1471.8,1215.6 1343.4,1215.6 1343.4,1875.1 1484.7,1875.1 
			1484.7,1525.1 1707.6,1875.1 1848.9,1875.1 1848.9,1215.6 1707.6,1215.6 		"/>
		<path class="st5" d="M1499.3,717.2h143.1l0,0c150.4,0,225.6-108.3,222.4-216.6c3.1-105.1-67.9-210-209.6-216v-0.6h-155.9h-155.9
			v659.5h155.9V717.2z M1499.3,411.7h117.6l0,0c59.2,0,88.8,44.4,88.8,88.8s-29.6,88.8-88.8,88.8h-117.6V411.7z"/>
	</g>
</g>
</svg>
