<?xml version="1.0" encoding="utf-8"?>
<!-- Generator: Adobe Illustrator 25.1.0, SVG Export Plug-In . SVG Version: 6.00 Build 0)  -->
<svg version="1.1" id="Layer_1" xmlns="http://www.w3.org/2000/svg" xmlns:xlink="http://www.w3.org/1999/xlink" x="0px" y="0px"
	 viewBox="0 0 3840 829.8" style="enable-background:new 0 0 3840 829.8;" xml:space="preserve">
<style type="text/css">
	.st0{fill:#FFFFFF;}
	.st1{fill:url(#SVGID_1_);}
	.st2{fill:#E4202F;}
	.st3{fill:#6187E5;}
</style>
<g>
	<g>
		
			<linearGradient id="SVGID_1_" gradientUnits="userSpaceOnUse" x1="1920" y1="-1446.3696" x2="1920" y2="-2276.1411" gradientTransform="matrix(1 0 0 -1 0 -1446.3696)">
			<stop  offset="0" style="stop-color:#E4202F"/>
			<stop  offset="1" style="stop-color:#8B1E29"/>
		</linearGradient>
		<path class="st1" d="M431.3,1.7c-20.9,0.1-41.8,0-62.8,0.1c-0.1,24.4,0.1,48.8-0.1,73.3c-1.7,72.1-6.2,144.2-16.9,215.4
			c-8.6,56.1-21.2,112.1-44.9,163.9c-20.1,45.1-46.5,87.6-79.7,124.2c-32.1,35.5-70.3,65.7-112.7,88.1c-35.7,18.8-74.2,33-114.2,39
			c0,41.2,0,82.5,0,123.8c33.2-4.7,65.9-13.1,97.6-24c56.1-19.4,109.3-48,154-87.3c49.9-42.4,94.3-92.8,122.6-152.4
			c17.3-37,31.3-75.9,38-116.3c9.8-58.6,13.5-117.9,16.3-177.1c1.7-41,2.9-82.1,2.7-123.1C431.3,100.1,431.4,50.9,431.3,1.7z
			 M456.6,1.9c0.1,187.9,0,375.9,0.1,563.8c0.1,88-0.3,176,0.2,263.9c38.4-0.3,76.9-0.1,115.3-0.1c0-275.9,0-551.8,0-827.8
			C533.6,1.8,495.1,1.6,456.6,1.9z M979,694c-57.9-18.6-111.2-50.8-155.1-92.7c-46-43.8-81.4-98.2-105.9-156.8
			c-25.9-60.5-37.4-125.9-45.6-190.8c-10-83.6-12.9-167.9-12.2-252c-20.8-0.1-41.6,0-62.4,0c0,45.2,0,90.4,0,135.7
			c-0.5,79.9,2.2,159.9,9.4,239.6c3.7,36.8,7.9,73.9,17.5,109.7c10.5,35.7,24,70.6,42.4,103c23.5,41.5,54.9,78.2,89.9,110.5
			c21.2,19.5,43.3,38.2,67.7,53.9c33.3,21.7,69.6,38.6,107.1,51.6c31.5,10.7,63.8,19.2,96.8,23.7c0-41.2,0-82.5,0-123.7
			C1011.7,703.3,995.2,699.2,979,694z M1546.6,22.3c-39.5-34.6-106.2-27.5-138.4,13.7c-18.1,20.5-21.2,48.6-29.5,73.7
			c-69.8,240-139.4,480-208.8,720c42.9,0,85.9-0.1,128.8,0.1c20.1-69.5,40.2-139,60.7-208.4c83.4,0,166.9-0.1,250.3,0.1
			c20.1,69.4,40,138.9,60.3,208.3c43.2-0.1,86.3,0,129.5,0c-73-251.7-146.5-503.2-219.6-754.8C1574,54.7,1562.7,35.9,1546.6,22.3z
			 M1393.4,503.1c30.4-104.3,60.4-208.7,91-313c30.4,104.4,60.6,208.7,90.9,313.1C1514.7,503.3,1454.1,503.4,1393.4,503.1z
			 M2421.6,3c-38.3-10.1-81.8,5.8-104.2,38.4c-14.1,18.8-17,42.8-24.3,64.6c-70,241.2-140.3,482.4-209.7,723.7
			c42.9-0.1,85.7,0,128.6,0c19.9-69.5,40.4-138.8,60.4-208.3c83.3-0.2,166.6,0,249.9-0.1c20.3,69.4,40.1,138.9,60.2,208.4
			c43.2-0.2,86.4,0.2,129.6-0.2c-73-251.4-146.4-502.8-219.4-754.2C2483.5,41.3,2456.7,11.1,2421.6,3z M2306.9,503.3
			c30-104.6,60.5-209,90.6-313.6c29.9,104.6,60.5,209,90.5,313.6C2427.7,503.3,2367.3,503.3,2306.9,503.3z M2171.2,128.1
			c0-42.1,0-84.2,0-126.3c-156.1,0-312.2,0-468.4,0c0,42.1,0,84.2,0,126.3c57.5,0,114.9-0.1,172.4,0c-0.1,233.9,0,467.7,0,701.6
			c41.2,0,82.4,0,123.5,0c0.1-233.8,0-467.7,0-701.6C2056.2,128,2113.7,128.1,2171.2,128.1z M3107.8,485.7
			c24.2-17.9,52.3-30.1,74.9-50.3c42.8-36.9,66.1-92.5,70.4-148.2c6.3-53.2,3.7-109.5-21.1-158C3196.1,54.7,3117,3.3,3034.1,1.7
			c-49.2,0-98.4,0.1-147.7-0.1c-12.5-0.3-25.2,1.1-37.1,5.2c-40.3,12.9-70.5,52.9-70.8,95.4c0.2,242.5,0,484.9,0.1,727.4
			c41.5,0.1,82.9,0,124.4,0.1c0.1-225.2-0.1-450.5,0.1-675.7c-0.2-14.6,13.4-27.1,27.8-26.8c31.9-0.3,63.7,0.1,95.6-0.1
			c46.1-1.5,89.8,33.7,99.7,78.5c8.4,34.5,9.4,73.4-9.3,105c-24.6,42-68.5,68.6-112.9,85.6c-23.3,9-44.2,26.5-53,50.5
			c-11.2,31.2-6.1,67.4,12.6,94.7c63.6,96.1,126.8,192.5,190.7,288.4c48.8-0.2,97.6,0,146.4-0.1c-66.7-100-134.6-199.3-199.9-300.2
			C3093.8,515.5,3094.5,495.8,3107.8,485.7z M3496.8,1.7c-43.7,0-87.3,0-130.9,0c0,276,0,551.9,0,827.9c43.6,0,87.3-0.1,130.9,0
			C3496.9,553.7,3496.8,277.7,3496.8,1.7z M3762.8,670.2c-31.7,0-72.2,23.3-72.2,71.9c0,18.6,4.9,27.1,9,33.5l-42.5-7.6v-80h-36.7
			v113.6l117.3,18.9l8.7-35.2c-16.9-9.6-20.4-23.3-20.4-33.5c0-23,18.1-38.1,37.9-38.1c20.7,0,37.9,17.5,37.9,37.8
			c0,15.4-10.2,30-25,34.6v43.7c37.3-5.8,63.2-37.8,63.2-79.5C3840,697.3,3798.1,670.2,3762.8,670.2z M3645.2,632.1
			c16,11.9,33.8,14.6,50.4,15.1v-41.6c-22.1-0.3-41.1-9-41.1-30c0-17.8,11.1-31.2,32.3-31.2c24.8,0.3,39.6,17.5,58.5,39
			c18.9,21,37.6,41.9,56.5,62.9h34.1V499.9h-36.7V587c-16.6-17.2-32.9-34.3-49.2-51.2c-24.2-25.3-41.9-34.4-67-34.6
			c-35.5,0-66.7,25.6-66.7,70.8C3616.4,587.2,3621.1,615.2,3645.2,632.1z M3729.9,475.7L3729.9,475.7h0.3
			c57.6,0,109.8-46.6,109.8-112.7c0-65.8-50.7-113.6-111.8-113.6s-111.8,48-111.8,113.3C3616.4,422.7,3660.9,475.7,3729.9,475.7z
			 M3728.5,292.9c35.5,0,73.4,25.6,73.4,69.3c0,41.9-34.3,70.2-73.7,70.2h-0.3c-37.9,0-73.4-26.8-73.4-69.9
			C3654.5,318.5,3692.4,292.9,3728.5,292.9z M3729.9,228L3729.9,228h0.3c57.6,0,109.8-46.6,109.8-112.7
			c0-65.8-50.7-113.5-111.8-113.5s-111.8,48-111.8,113.3C3616.4,175,3660.9,228,3729.9,228z M3728.5,45.1
			c35.5,0,73.4,25.6,73.4,69.3c0,41.9-34.3,70.2-73.7,70.2h-0.3c-37.9,0-73.4-26.8-73.4-69.9C3654.5,70.7,3692.4,45.1,3728.5,45.1z"
			/>
	</g>
</g>
</svg>
