<?xml version="1.0" encoding="utf-8"?>
<!-- Generator: Adobe Illustrator 25.1.0, SVG Export Plug-In . SVG Version: 6.00 Build 0)  -->
<svg version="1.1" id="Layer_1" xmlns="http://www.w3.org/2000/svg" xmlns:xlink="http://www.w3.org/1999/xlink" x="0px" y="0px"
	 viewBox="0 0 3840 832.7" style="enable-background:new 0 0 3840 832.7;" xml:space="preserve">
<style type="text/css">
	.st0{fill:#E4202F;}
	.st1{fill:url(#SVGID_1_);}
	.st2{fill:#FFFFFF;}
</style>
<g>
	<g>
		<linearGradient id="SVGID_1_" gradientUnits="userSpaceOnUse" x1="1920.0002" y1="-1.393410e-05" x2="1920.0002" y2="832.66">
			<stop  offset="0" style="stop-color:#E4202F"/>
			<stop  offset="1" style="stop-color:#8B1E29"/>
		</linearGradient>
		<path class="st1" d="M431.4,4.1c-20.9,0.1-41.9,0-62.8,0.1c-0.1,24.4,0.1,48.9-0.1,73.3c-1.7,72.1-6.2,144.3-16.9,215.6
			c-8.6,56.1-21.2,112.2-44.9,164c-20.1,45.1-46.5,87.6-79.7,124.3c-32.1,35.5-70.3,65.7-112.7,88.1c-35.7,18.8-74.2,33-114.2,39
			c0,41.3,0,82.6,0,123.8c33.2-4.7,65.9-13.1,97.6-24c56.1-19.4,109.4-48,154.1-87.3c50-42.4,94.4-92.9,122.7-152.4
			c17.3-37,31.3-75.9,38.1-116.3c9.8-58.6,13.5-118,16.3-177.3c1.7-41,2.9-82.1,2.7-123.2C431.4,102.6,431.5,53.4,431.4,4.1z
			 M456.7,4.3c0.1,188.1,0,376.1,0.1,564.2c0.1,88-0.3,176.1,0.2,264.1c38.4-0.3,76.9,0,115.3-0.1c0-276.1,0-552.2,0-828.2
			C533.7,4.2,495.2,4,456.7,4.3z M979.5,696.8c-57.9-18.6-111.2-50.8-155.2-92.8c-46.1-43.9-81.4-98.3-105.9-156.8
			c-25.9-60.5-37.4-126-45.7-190.9c-10-83.6-12.9-168-12.2-252.1c-20.8-0.1-41.6,0-62.4,0c0,45.2,0,90.5,0,135.7
			c-0.5,80,2.2,160,9.4,239.7c3.8,36.9,7.9,73.9,17.5,109.8c10.5,35.7,24,70.7,42.4,103c23.6,41.6,54.9,78.3,89.9,110.6
			c21.2,19.5,43.4,38.3,67.7,53.9c33.3,21.7,69.6,38.6,107.1,51.6c31.5,10.7,63.9,19.2,96.9,23.7c0-41.2,0-82.5,0-123.8
			C1012.2,706.1,995.7,702,979.5,696.8z M1547.4,24.7C1507.9-9.9,1441.2-2.8,1409,38.4c-18.1,20.5-21.2,48.6-29.5,73.7
			c-69.9,240.1-139.4,480.3-209,720.5c43,0,85.9-0.1,128.9,0.1c20.1-69.6,40.2-139.1,60.7-208.6c83.5,0,167-0.1,250.5,0.1
			c20.1,69.5,40,139,60.4,208.4c43.2-0.1,86.4,0,129.6,0c-73.1-251.8-146.6-503.5-219.8-755.2C1574.9,57.1,1563.6,38.3,1547.4,24.7z
			 M1394.1,505.8c30.4-104.4,60.4-208.9,91.1-313.2c30.4,104.4,60.6,208.9,91,313.3C1515.5,505.9,1454.8,506.1,1394.1,505.8z
			 M2423,5.4c-38.3-10.1-81.8,5.8-104.3,38.4c-14.1,18.8-17,42.9-24.3,64.6c-70.1,241.4-140.3,482.6-209.8,724.2
			c42.9-0.1,85.8,0,128.7,0c19.9-69.5,40.5-138.9,60.4-208.4c83.4-0.2,166.7,0,250.1-0.1c20.3,69.5,40.1,139,60.3,208.5
			c43.2-0.2,86.5,0.2,129.7-0.2c-73.1-251.6-146.4-503.1-219.6-754.7C2484.9,43.7,2458.1,13.5,2423,5.4z M2308.2,505.9
			c30.1-104.7,60.5-209.2,90.7-313.8c30,104.6,60.5,209.1,90.6,313.8C2429,506,2368.6,506,2308.2,505.9z M2172.4,130.5V4.1h-468.6
			c0,42.2,0,84.3,0,126.4c57.5,0,115-0.1,172.5,0c-0.1,234,0,468,0,702h123.6c0.1-234,0-468,0-702
			C2057.3,130.4,2114.8,130.6,2172.4,130.5z M3109.6,488.4c24.2-17.9,52.4-30.2,75-50.3c42.8-36.9,66.1-92.6,70.5-148.3
			c6.3-53.2,3.7-109.6-21.1-158C3198,57.1,3118.8,5.7,3035.9,4.1c-49.2,0-98.5,0.1-147.8-0.1c-12.5-0.3-25.2,1.1-37.1,5.2
			c-40.3,12.9-70.6,52.9-70.8,95.4c0.2,242.6,0,485.2,0.1,727.8c41.5,0.1,83,0,124.5,0.1c0.1-225.4-0.1-450.7,0.1-676.1
			c-0.2-14.6,13.4-27.2,27.8-26.8c31.9-0.3,63.8,0.1,95.7-0.1c46.2-1.5,89.9,33.7,99.7,78.6c8.4,34.5,9.4,73.5-9.3,105
			c-24.6,42-68.5,68.7-113,85.7c-23.3,9.1-44.2,26.6-53,50.5c-11.2,31.2-6.1,67.4,12.6,94.8c63.6,96.1,126.9,192.6,190.8,288.6
			c48.8-0.2,97.6,0,146.5-0.1c-66.7-100.1-134.7-199.4-200.1-300.3C3095.7,518.2,3096.3,498.5,3109.6,488.4z M3498.9,4.1h-131v828.4
			c43.7,0,87.3-0.1,130.9,0C3499,556.4,3498.8,280.3,3498.9,4.1z M3798.6,771.4c-16.8-17.4-33.4-34.9-49.9-52
			c-24.5-25.7-42.5-34.8-67.9-35.1c-36,0-67.6,26-67.6,71.8c0,15.7,4.7,44,29.2,61.1c16.2,12.1,34.3,14.8,51.1,15.4v-42.2
			c-22.4-0.3-41.6-9.2-41.6-30.4c0-18,11.2-31.6,32.8-31.6c25.1,0.3,40.2,17.7,59.4,39.6c19.2,21.3,38.1,42.5,57.3,63.8v0h34.5
			V683.1h-37.2V771.4z M3617.3,534.6v50.8l83.9,57.3c16,10.3,34.6,19.8,57.6,19.8c16.5,0,37.8-5,52.9-18.3
			c18-13.9,28.4-37.5,28.4-64.4c0-44.9-34-81.5-81.2-81.5c-48.2,0-73.8,36-73.8,69.4c0,6.8,2.1,15.1,3.2,17.4
			c-4.7-3.2-8.9-6.5-13.3-9.4L3617.3,534.6z M3762.6,542.2c21.9,0,38.7,17.1,38.7,39c0,20.1-15.4,37.8-38.7,37.8h-0.3
			c-23.9,0-38.7-18.6-38.7-38.1C3723.6,558.8,3740.8,542.2,3762.6,542.2z M3728.4,480.8L3728.4,480.8l0.3,0
			c58.5,0,111.3-47.3,111.3-114.3c0-66.8-51.4-115.2-113.4-115.2s-113.4,48.7-113.4,114.9C3613.2,427.1,3658.4,480.8,3728.4,480.8z
			 M3726.9,295.3c36,0,74.4,26,74.4,70.3c0,42.5-34.8,71.2-74.7,71.2h-0.3c-38.4,0-74.4-27.2-74.4-70.9
			C3651.9,321.3,3690.3,295.3,3726.9,295.3z M3728.4,229.5L3728.4,229.5l0.3,0c58.5,0,111.3-47.3,111.3-114.3
			C3840,48.4,3788.6,0,3726.6,0s-113.4,48.7-113.4,114.9C3613.2,175.7,3658.4,229.5,3728.4,229.5z M3726.9,44
			c36,0,74.4,26,74.4,70.3c0,42.5-34.8,71.2-74.7,71.2h-0.3c-38.4,0-74.4-27.2-74.4-70.9C3651.9,70,3690.3,44,3726.9,44z"/>
	</g>
</g>
</svg>
