<?xml version="1.0" encoding="utf-8"?>
<!-- Generator: Adobe Illustrator 25.1.0, SVG Export Plug-In . SVG Version: 6.00 Build 0)  -->
<svg version="1.1" id="Layer_1" xmlns="http://www.w3.org/2000/svg" xmlns:xlink="http://www.w3.org/1999/xlink" x="0px" y="0px"
	 viewBox="0 0 3839.5 1547.2" style="enable-background:new 0 0 3839.5 1547.2;" xml:space="preserve">
<style type="text/css">
	.st0{fill:#4FBBB2;}
</style>
<g>
	<g>
		<g>
			<g>
				<path class="st0" d="M817.1,720.6c39.3,0,74.2,15.2,104.6,45.6c30.4,30.4,45.6,62.3,45.6,95.9c0,79.1-44.1,137.8-132.4,176
					c-88.3,38.2-184.3,57.4-288,57.4c-148.8,0-277.1-54-385-161.9C54,825.6,0,697.3,0,548.5c0-149.3,54.5-277.8,163.5-385.4
					C272.4,55.4,400.2,1.6,546.9,1.6c107.4,0,204.3,18.9,290.7,56.6S967.3,154.8,967.3,235c0,29.9-14.4,60.6-43.3,92.3
					c-28.8,31.7-64.5,47.5-107,47.5c-26.8,0-59.8-8.9-99.1-26.7c-57.7-26.2-114.9-39.3-171.5-39.3c-65,0-122.3,24.1-171.9,72.3
					c-49.6,48.2-74.3,104-74.3,167.4c0,62.3,24.6,117.9,74,166.6c49.3,48.7,106.7,73.1,172.3,73.1c56.1,0,113.3-13.4,171.5-40.1
					C757.8,729.7,790.8,720.6,817.1,720.6z"/>
				<path class="st0" d="M1164.5,928l-34.1,67.6c-32,62.4-78.1,93.5-138.4,93.5c-42.4,0-78.6-16-108.5-47.9
					c-29.9-31.9-44.8-67.3-44.8-106.1c0-20.9,3.1-38.2,9.4-51.9l356.8-765.9c15.2-33.1,36.6-59.1,64.1-78
					c27.5-18.9,56.4-28.4,86.8-28.4c30.9,0,60.2,9.6,87.7,28.6c27.5,19.1,48.9,44.9,64.1,77.3L1861,883.2
					c6.8,15.2,10.2,32.5,10.2,51.9c0,39.3-14.7,74.8-44.1,106.5c-29.4,31.7-65.3,47.5-107.7,47.5c-59.8,0-105.9-31.2-138.4-93.5
					l-35.9-67.6H1164.5z M1425.7,638.8l-70.4-153.2l-70.2,153.2H1425.7z"/>
				<path class="st0" d="M2104,323c0,12.1,4,20,12.2,24c8.1,3.9,30.5,8.9,67.2,14.9c36.7,6,71.7,15.6,105.3,28.7
					c33.5,13.1,68.2,37.3,104.1,72.7c35.9,35.4,62.7,76.1,80.5,122.2c17.8,46.1,26.7,97.2,26.7,153.2c0,89.1-36.3,170.5-108.8,244.4
					s-156.5,110.8-251.9,110.8c-102.1,0-188.6-26.8-259.3-80.5c-70.7-53.7-106.1-118-106.1-192.9c0-38.2,14.9-71.6,44.8-100.2
					c29.9-28.5,65.7-42.8,107.6-42.8c22,0,42.6,3.9,61.7,11.8c19.1,7.9,42.6,27.1,70.3,57.8c27.8,30.7,53.2,46,76.2,46
					c45,0,67.6-26.2,67.6-78.6c0-35.1-39.8-58.7-119.4-70.7c-83.3-12-150-47.9-200-107.7c-50-59.7-75-133.3-75-220.8
					c0-82.8,30.8-155.7,92.3-218.8c61.6-63.1,142.9-94.7,244-94.7c90.6,0,157.3,14.3,200,42.8c42.7,28.6,64,73.2,64,134
					c0,30.9-14.7,61.2-44,90.8c-29.4,29.6-64.2,44.4-104.5,44.4c-13.6,0-33.4-3.8-59.3-11.4c-25.9-7.6-47.8-11.4-65.6-11.4
					c-6.3,0-13,3.4-20,10.2C2107.5,307.8,2104,315.1,2104,323z"/>
				<path class="st0" d="M2788.7,918.6c0,49.8-14.1,89.9-42.4,120.2c-28.3,30.4-64.5,45.6-108.5,45.6c-43.5,0-79.2-15.2-107.3-45.6
					c-28-30.4-42-70.5-42-120.2V178.4c0-49.8,14.1-90.1,42.4-121c28.3-30.9,63.9-46.4,106.9-46.4c42.9,0,78.8,15.5,107.7,46.4
					c28.8,30.9,43.2,71.3,43.2,121V918.6z"/>
				<path class="st0" d="M3292.2,0c150.8,0,279.7,54.9,386.7,164.6c107,109.8,160.6,237.7,160.6,383.9
					c0,146.2-53.4,273.8-160.2,383.1c-106.8,109.2-235.8,163.8-387.1,163.8c-150.8,0-279.5-54.6-386.3-163.8
					s-160.2-236.9-160.2-383.1c0-146.2,53.4-274.1,160.2-383.9C3012.6,54.9,3141.4,0,3292.2,0z M3292.2,794.4
					c68.7,0,127.1-24.4,175.1-73.1c48-48.7,72-106.3,72-172.9c0-63.9-24.3-121.1-72.8-171.7c-48.5-50.6-106.7-75.8-174.3-75.8
					c-64.5,0-121.7,25.1-171.6,75.4c-49.8,50.3-74.7,107.7-74.7,172.1c0,66,24,123.5,72,172.5C3165.9,770,3224,794.4,3292.2,794.4z"
					/>
			</g>
			<g>
				<path class="st0" d="M1862.4,1484.7c0,18.8-5.3,33.9-16,45.4c-10.6,11.5-24.2,17.2-40.5,17.2c-16.4,0-29.9-5.7-40.7-17.2
					c-10.7-11.5-16.1-26.6-16.1-45.4v-184.7c-16.6,4.6-26.3,6.8-29.1,6.8c-11.9,0-23.4-5.2-34.7-15.7
					c-11.3-10.5-16.9-22.6-16.9-36.5c0-23.5,6.8-39.7,20.4-48.6l85-54.6c9.1-6.1,18.6-9.2,28.4-9.2c18,0,32.5,5.6,43.5,16.9
					c11.1,11.3,16.6,23.2,16.6,35.9V1484.7z"/>
				<path class="st0" d="M2038.1,1142.2c57.3,0,106.1,20.4,146.2,61.1c40.1,40.7,60.2,88,60.2,141.7c0,53.6-20.1,100.7-60.2,141.3
					c-40.1,40.6-88.9,60.9-146.2,60.9c-57.3,0-106.1-20.3-146.2-60.9c-40.1-40.6-60.2-87.7-60.2-141.3c0-53.8,20-101,60-141.7
					C1931.8,1162.5,1980.5,1142.2,2038.1,1142.2z M2038.1,1435.4c25.2,0,47-8.9,65.5-26.7c18.4-17.8,27.7-39,27.7-63.8
					c0-25.3-9.2-46.8-27.5-64.5s-40.2-26.5-65.6-26.5c-26.8,0-49,9-66.6,27.1c-17.7,18.1-26.5,39.4-26.5,63.9
					c0,24.9,9.1,46.2,27.4,63.9C1990.6,1426.6,2012.5,1435.4,2038.1,1435.4z"/>
				<path class="st0" d="M2410.3,1142.2c57.3,0,106.1,20.4,146.2,61.1c40.1,40.7,60.2,88,60.2,141.7c0,53.6-20.1,100.7-60.2,141.3
					c-40.1,40.6-88.9,60.9-146.2,60.9s-106.1-20.3-146.2-60.9c-40.1-40.6-60.2-87.7-60.2-141.3c0-53.8,20-101,60-141.7
					C2304,1162.5,2352.8,1142.2,2410.3,1142.2z M2410.3,1435.4c25.2,0,47-8.9,65.5-26.7c18.4-17.8,27.7-39,27.7-63.8
					c0-25.3-9.2-46.8-27.5-64.5c-18.3-17.7-40.2-26.5-65.6-26.5c-26.8,0-49,9-66.6,27.1c-17.7,18.1-26.5,39.4-26.5,63.9
					c0,24.9,9.1,46.2,27.4,63.9C2362.8,1426.6,2384.7,1435.4,2410.3,1435.4z"/>
				<path class="st0" d="M2782.5,1142.2c57.3,0,106.1,20.4,146.2,61.1c40.1,40.7,60.2,88,60.2,141.7c0,53.6-20.1,100.7-60.2,141.3
					c-40.1,40.6-88.9,60.9-146.2,60.9c-57.3,0-106.1-20.3-146.2-60.9c-40.1-40.6-60.2-87.7-60.2-141.3c0-53.8,20-101,60-141.7
					C2676.2,1162.5,2725,1142.2,2782.5,1142.2z M2782.5,1435.4c25.2,0,47-8.9,65.5-26.7c18.4-17.8,27.7-39,27.7-63.8
					c0-25.3-9.2-46.8-27.5-64.5c-18.3-17.7-40.2-26.5-65.6-26.5c-26.8,0-49,9-66.6,27.1c-17.7,18.1-26.5,39.4-26.5,63.9
					c0,24.9,9.1,46.2,27.4,63.9C2735,1426.6,2756.9,1435.4,2782.5,1435.4z"/>
			</g>
			<g>
				<path class="st0" d="M948.5,1389.5v95.2c0,18.8-5.3,33.9-16,45.4c-10.7,11.5-24.3,17.2-40.9,17.2c-16.4,0-29.9-5.7-40.5-17.2
					c-10.6-11.5-15.9-26.6-15.9-45.4v-290.9c0-13.8,5.8-25.9,17.3-36.2c11.6-10.3,25.8-15.4,42.6-15.4h91.1
					c37.2,0,67.4,12,90.7,35.9c23.3,23.9,35,53.5,35,88.7c0,29.5-11.2,57.3-33.7,83.5c-22.4,26.2-47.1,39.3-74,39.3H948.5z
					 M948.5,1284.2H988c4.9,0,9-1.9,12.2-5.6c3.1-3.8,4.7-7.9,4.7-12.5c0-4.5-1.6-8.7-4.7-12.6c-3.2-3.9-7.2-5.8-12.2-5.8h-39.5
					V1284.2z"/>
				<path class="st0" d="M1277.4,1368.1l84.3-192.3c4.4-9.5,11-17.5,19.8-24c8.9-6.4,17.7-9.7,26.3-9.7c19.7,0,35.2,5.4,46.6,16.2
					c11.3,10.8,17,24.2,17,40.2c0,7.7-1.3,14.2-3.9,19.6l-134.4,289.6c-5.7,12.5-13.7,22.2-24,29.1c-10.2,6.9-21.3,10.4-33.1,10.4
					c-10.8,0-21.4-3.6-31.8-10.7c-10.3-7.1-18.3-16.7-23.8-28.8l-134.6-289.7c-2.3-5.9-3.5-12.5-3.5-19.6c0-14.2,5.1-27.2,15.4-38.8
					c10.3-11.7,23.1-17.5,38.6-17.5c27.5,0,46.2,11.2,56.1,33.5L1277.4,1368.1z"/>
			</g>
			<path class="st0" d="M1443.9,1352.2L1443.9,1352.2c0-30.9,25-55.9,55.9-55.9h96c30.9,0,55.9,25,55.9,55.9v0
				c0,30.9-25,55.9-55.9,55.9h-96C1468.9,1408.1,1443.9,1383.1,1443.9,1352.2z"/>
		</g>
	</g>
</g>
</svg>
