<?xml version="1.0" encoding="utf-8"?>
<!-- Generator: Adobe Illustrator 26.0.1, SVG Export Plug-In . SVG Version: 6.00 Build 0)  -->
<svg version="1.1" id="Layer_1" xmlns="http://www.w3.org/2000/svg" xmlns:xlink="http://www.w3.org/1999/xlink" x="0px" y="0px"
	 viewBox="0 0 3839 2397.1" style="enable-background:new 0 0 3839 2397.1;" xml:space="preserve">
<style type="text/css">
	.st0{fill:#FFFFFF;}
</style>
<g>
	<g>
		<g>
			<g>
				<path d="M2676.7,1691.4v314.9h-56.2v-171.7c0-13.7,0.3-29.2,1.1-46.6l1.1-23.5l1.1-23.3h-1.8l-6.8,21.9l-6.6,21.9
					c-6.1,19.7-10.8,34.2-14.1,43.6l-65.1,177.6h-51.2l-65.7-176.2c-3.7-9.7-8.4-24.2-14.3-43.6l-6.8-21.9l-6.8-21.7h-1.8l1.1,22.9
					l1.1,23.1c0.9,17.9,1.3,33.2,1.3,46v171.5h-56.2v-314.9h91.5l53,145.8c3.7,10.1,8.3,24.6,14.3,43.6l6.6,21.9l6.8,21.7h2
					l6.3-21.7l6.6-21.7c5.3-18.3,10-32.8,13.9-43.4l52.1-146.2L2676.7,1691.4L2676.7,1691.4z"/>
				<path d="M2788.9,1741.7v81.2h138.8v44.1h-138.8v89h147.7v50.3h-203.9v-314.9h202.5v50.3H2788.9z"/>
				<path d="M2988.2,2006.3v-314.9h145.6c41.3,0,70.3,9.7,86.8,28.9s24.9,52.9,24.9,101c0,78.6-6.7,129.1-20,151.4
					c-13.3,22.4-43.3,33.5-90,33.5H2988.2z M3044.4,1956h80.1c26.9,0,44.3-6.6,52.2-19.8c7.9-13.1,11.8-42.2,11.8-87
					c0-46.4-3.6-75.9-10.7-88.6c-7.1-12.7-23.8-18.9-49.9-18.9h-83.5L3044.4,1956L3044.4,1956z"/>
				<path d="M3352.2,1691.4v314.9h-56.2v-314.9H3352.2z"/>
				<path d="M3593.6,1945.8h-127.7l-18.4,60.5h-59.4l98.5-314.9h84.4l99.9,314.9h-58.3L3593.6,1945.8z M3580.6,1901.8l-51.2-164
					l-50.3,164H3580.6z"/>
			</g>
		</g>
		<g>
			<g>
				<path d="M1188.3,1691.4v314.9h-56.2v-171.7c0-13.7,0.3-29.2,1.1-46.6l1.1-23.5l1.1-23.3h-1.8l-6.8,21.9l-6.6,21.9
					c-6.1,19.7-10.8,34.2-14.1,43.6l-65.1,177.6H990L924.2,1830c-3.7-9.7-8.4-24.2-14.3-43.6l-6.8-21.9l-6.8-21.7h-1.4l1.1,22.9
					l1.1,23.1c0.9,17.9,1.3,33.2,1.3,46v171.5h-56.2v-314.9h91.5l53,145.8c3.7,10.1,8.3,24.6,14.3,43.6l6.6,21.9l6.8,21.7h2
					l6.3-21.7l6.6-21.7c5.3-18.3,10-32.8,13.9-43.4l52.1-146.2L1188.3,1691.4L1188.3,1691.4z"/>
				<path d="M1435.6,1691.4h56.2v209.4c0,43.9-7.9,72.8-23.8,86.9c-15.9,14.1-48.2,21.2-97,21.2c-51.6,0-85.5-6.7-101.5-20.1
					c-16.1-13.4-24.1-41.6-24.1-84.7v-213h56.2v213c0,23.2,3.9,38,11.7,44.2s26.2,9.3,55.1,9.3c29.6,0,48.3-3.1,55.8-9.4
					s11.4-21.8,11.4-46.4V1691.4z"/>
				<path d="M1604.6,1691.4v261.4h138.8v53.5h-195v-314.9H1604.6z"/>
				<path d="M1894.6,1744.9v261.4h-56.2v-261.4h-85.4v-53.5h230.1v53.5H1894.6z"/>
				<path d="M2072.6,1691.4v314.9h-56.2v-314.9H2072.6z"/>
			</g>
		</g>
		<rect x="2400.2" y="387.7" width="317" height="1256.2"/>
		<rect x="2180" y="387.7" width="757.2" height="317"/>
		<path d="M1389.7,387.7v1256.2H1870c153,0,276.9-124,276.9-276.9V664.7c0-153-124-276.9-276.9-276.9h-480.3V387.7z M1829.9,1326.9
			h-123.2V704.7h123.2V1326.9z"/>
		<path d="M503.2,595.9v839.9c0,114.9,93.2,208.1,208.1,208.1h341c114.9,0,208.1-93.2,208.1-208.1v-261.5H943.5V1327H820.3V704.7
			h123.2v152.7h317V595.9c0-114.9-93.2-208.1-208.1-208.1H711.4C596.5,387.7,503.2,481,503.2,595.9z"/>
		<polygon points="3617.6,1643.9 3839,387.7 3517.2,387.7 3415,1260.3 3312.7,387.7 2990.8,387.7 3212.3,1643.9 		"/>
		<path d="M1838.6,598.3C1354.5,25.5,644.1-170.1,251.7,161.3C-140.6,492.8-66.2,1225.9,417.8,1798.8
			c484.1,572.8,1194.5,768.4,1586.7,437C2396.9,1904.3,2322.5,1171.1,1838.6,598.3z M1994.7,2159.3
			c-361.7,305.7-1030.6,109-1493.9-439.2S-44.7,479.5,317,173.9s1030.6-109,1493.9,439.2C2274.1,1161.4,2356.4,1853.6,1994.7,2159.3
			z"/>
	</g>
</g>
</svg>
