<?xml version="1.0" encoding="utf-8"?>
<!-- Generator: Adobe Illustrator 25.2.3, SVG Export Plug-In . SVG Version: 6.00 Build 0)  -->
<svg version="1.1" id="Layer_1" xmlns="http://www.w3.org/2000/svg" xmlns:xlink="http://www.w3.org/1999/xlink" x="0px" y="0px"
	 viewBox="0 0 3839 455.98" style="enable-background:new 0 0 3839 455.98;" xml:space="preserve">
<style type="text/css">
	.st0{fill:#010101;}
	.st1{fill:#871A1C;}
	.st2{fill:#FBDD00;}
	.st3{fill:#FFFFFF;}
</style>
<g>
	<g>
		<g>
			<path class="st2" d="M454.18,447.09V300.82H352.33l-53.88,70.47c25.46-7.1,42.05-23.69,56.84-46.19h90.61
				c-24.29,54.48-91.8,130.87-214.38,130.87C97.7,455.98,0,347.02,0,226.8C0,104.82,96.51,0,226.78,0
				c68.12,0,124.36,18.36,172.34,63.36l-47.97,64.55C323.91,100.08,287.2,75.8,227.4,75.8c-84.09,0-146.29,68.69-146.29,151
				c0,73.43,53.3,136.2,119.62,151L467.81,8.88h67.5v438.21H454.18z M454.18,153.37h-1.19l-53.28,78.17h54.47V153.37z"/>
		</g>
		<g>
			<path class="st2" d="M874.03,455.98c-27.23,0-58.64-8.88-84.69-29.02c-26.05,19.54-58.62,29.02-90,29.02
				c-56.27,0-137.99-37.9-142.73-134.43h85.28c4.15,43.82,33.16,58.63,58.02,58.63c32,0,60.42-21.91,60.42-55.07
				c0-45-29.01-51.52-82.91-74.61c-38.49-16.59-98.88-41.45-98.88-127.91C578.54,48.56,632.42,0,707.03,0
				c27.26,0,60.42,10.07,85.87,33.76C815.39,13.03,846.8,0,882.33,0c50.91,0,125.53,35.53,129.67,124.95h-82.89
				c-3.56-39.08-27.26-49.15-49.16-49.15c-25.46,0-45.01,18.36-45.01,44.41c0,36.13,21.92,46.19,66.32,61
				c36.12,11.84,114.88,39.68,114.88,135.02C1016.15,400.31,956.94,455.98,874.03,455.98z M753.82,124.95
				c-3.56-39.08-27.23-49.15-49.16-49.15c-30.2,0-44.99,20.13-44.99,42.64c0,29.02,17.16,45,64.54,65.14
				c16,6.51,39.08,14.8,60.99,28.42C767.44,193.05,753.82,165.81,753.82,124.95z M856.26,252.86c-12.42-4.73-29.6-10.65-46.77-21.31
				c18.35,18.95,31.97,45.6,31.97,84.68c0,15.99-2.37,30.79-5.93,44.41c9.48,14.21,29.6,19.54,45.01,19.54
				c30.79,0,54.47-22.5,54.47-53.29C935.02,287.21,914.3,274.77,856.26,252.86z"/>
		</g>
		<g>
			<path class="st2" d="M1029.16,447.09V8.88h235.69v75.8h-154.56v107.19h148.04v75.8h-148.04V371.3h154.56v75.8H1029.16z"/>
		</g>
		<path class="st2" d="M1587.81,84.68h-62.27V8.88h205.65v75.8h-62.27v362.41h-81.11V84.68"/>
		<path class="st2" d="M1354.64,84.68h-62.27V8.88h205.65v75.8h-62.27v362.41h-81.11V84.68"/>
		<g>
			<path class="st2" d="M1758.71,447.09V8.88h235.69v75.8h-154.56v107.19h148.04v75.8h-148.04V371.3h154.56v75.8H1758.71z"/>
		</g>
		<g>
			<path class="st2" d="M2429.64,447.09L2121.11,8.88h100.07l196.61,288.39h1.18V8.88h81.13v438.21H2429.64z"/>
		</g>
		<g>
			<path class="st2" d="M2527.34,447.09V8.88h81.13v438.21H2527.34z"/>
		</g>
		<g>
			<path class="st2" d="M2760.05,455.98c-77.55,0-139.15-56.85-142.71-134.43h85.28c2.96,33.16,23.11,58.63,58.04,58.63
				c31.38,0,60.39-21.91,60.39-55.07c0-49.74-45.01-59.22-83.5-74.02c-13.63-5.33-26.64-10.07-39.68-16.59
				c-44.42-23.09-64.54-59.21-64.54-109.55C2633.34,52.71,2690.18,0,2761.85,0c71.06,0,126.12,53.89,129.67,124.95h-82.91
				c-2.37-29.61-18.35-49.15-49.14-49.15c-25.48,0-45.01,18.36-45.01,44.41c0,42.05,40.27,50.34,72.84,61
				c66.32,21.91,114.88,58.03,114.88,135.02C2902.19,399.13,2841.78,455.98,2760.05,455.98z"/>
		</g>
		<g>
			<path class="st2" d="M2911.07,447.09V8.88h81.11v438.21H2911.07z"/>
		</g>
		<g>
			<path class="st2" d="M3237.94,455.98c-125.55,0-229.17-100.67-229.17-226.8C3008.77,101.85,3111.21,0,3237.94,0
				c126.71,0,229.17,101.85,229.17,229.17C3467.12,355.31,3363.49,455.98,3237.94,455.98z M3237.94,75.8
				c-84.09,0-148.06,70.47-148.06,152.78c0,81.72,65.16,151.6,148.06,151.6c82.89,0,148.04-69.88,148.04-151.6
				C3385.99,146.27,3322.02,75.8,3237.94,75.8z"/>
		</g>
		<g>
			<path class="st2" d="M3748.39,447.09l-182.98-318.59h-1.19v318.59h-81.13V8.88h92.39l181.2,318.59h1.19V8.88H3839v438.21H3748.39
				z"/>
		</g>
	</g>
</g>
</svg>
