<?xml version="1.0" encoding="utf-8"?>
<!-- Generator: Adobe Illustrator 26.0.1, SVG Export Plug-In . SVG Version: 6.00 Build 0)  -->
<svg version="1.1" id="Layer_1" xmlns="http://www.w3.org/2000/svg" xmlns:xlink="http://www.w3.org/1999/xlink" x="0px" y="0px"
	 viewBox="0 0 3839.5 1163.5" style="enable-background:new 0 0 3839.5 1163.5;" xml:space="preserve">
<style type="text/css">
	.st0{fill:#FF69C2;}
</style>
<g>
	<path class="st0" d="M1681,395.1c-12.6-71.4-74.6-123.4-147.1-123.4h-36.3H1130v168.6h333.5c21.5,0,39.9,15.4,43.6,36.6l24.3,137.6
		l-121.3-143.1l-233.2,122.3c-171,89.7-107.3,348.5,85.8,348.5h326.4l0,0.1h89.3c51.7,0,90.8-46.7,81.9-97.5L1681,395.1z
		 M1313.3,773.7c-20.6,0-27.4-27.7-9.1-37.3L1531.8,617l27.6,156.7H1313.3z"/>
	<path class="st0" d="M953.5,271.7H839.4c-48.7,0-93.3,26.8-116.1,69.7L598.2,576.9l-8.9-254.1c-1-28.5-24.4-51.1-52.9-51.1H435.7
		c-48.6,0-93.2,26.8-116,69.7L0.2,942.3h210.1l201.9-379.6l13.3,379.6h188.6l207-389.3v389.3h185.5V324.7
		C1006.5,295.5,982.8,271.7,953.5,271.7z"/>
	<polygon class="st0" points="2944.1,271.7 2758.6,271.7 2758.6,271.8 2566.3,271.8 2566.3,440.3 2758.6,440.3 2758.6,942.3 
		2944.1,942.3 2944.1,440.3 3136.5,440.3 3136.5,271.8 2944.1,271.8 	"/>
	<path class="st0" d="M3641.3,271.7l-92.7,248c-85.4,4.9-174.6-49.6-174.7-163.7h0.1v-84.3h-185.5v84.2h-0.1
		c0,207.5,138.5,322.6,292.3,345.4l-11.3,30.4c-9.4,25.3-33.6,42-60.6,42h-209.4v168.6h259.5c78,0,147.9-48.5,175.2-121.6
		l205.2-548.9H3641.3z"/>
	<path class="st0" d="M2474.2,532.5c8-6.6,15.1-13.7,21.2-21.2c0.1-0.1,0.1-0.1,0.2-0.2l0,0c75.2-92,12.8-242.3-117.4-241.7
		l-457,2.3h-81.3v670.5h185.5V633.4l530,530l131.2-131.1l-376.9-376.9C2370.5,619,2425.8,578.9,2474.2,532.5z M2286.1,462.7
		L2286.1,462.7c-77.9,61.4-158.6,106-260.8,145.1V440.4h253.3C2290.6,440.4,2295.6,455.6,2286.1,462.7z"/>
	<polygon class="st0" points="1202.7,115.9 1261,115.9 1261,76.1 1202.7,76.1 1202.7,45.9 1266.9,45.9 1266.9,6.1 1149.5,6.1 
		1149.5,186.9 1202.7,186.9 	"/>
	<polygon class="st0" points="1354.3,82.9 1354.9,82.9 1401.8,187.1 1423,187.1 1472.1,82.9 1472.6,82.9 1487.5,187.1 1540.6,187.1 
		1509.8,6.1 1456.9,6.1 1412.9,102.8 1371.4,6.1 1319.1,6.1 1284.4,187.1 1337.3,187.1 	"/>
	<polygon class="st0" points="1640.4,45.9 1684.3,45.9 1684.3,187.1 1737.5,187.1 1737.5,45.9 1781.4,45.9 1781.4,6.1 1640.4,6.1 	
		"/>
	<path class="st0" d="M2016.6,93.2c0-54.7-54.2-93.1-113.1-93.1c-58.9,0-113.1,38.4-113.1,93.1c0,58.6,47.5,99.9,113.1,99.9
		C1969.1,193.1,2016.6,151.8,2016.6,93.2z M1845.8,93.5c0-25,26-47.8,57.8-47.8c31.8,0,57.8,22.8,57.8,47.8c0,31.2-26.1,54-57.8,54
		C1871.8,147.5,1845.8,124.7,1845.8,93.5z"/>
	<polygon class="st0" points="2134.9,187.1 2175.1,82.2 2175.6,82.2 2211.4,187.1 2265.6,187.1 2330.9,6.1 2275.7,6.1 2237.1,123 
		2236.6,123 2196.5,6.1 2154.2,6.1 2111.3,123 2110.8,123 2075.3,6.1 2020,6.1 2080.9,187.1 	"/>
	<polygon class="st0" points="2397.6,187.1 2397.6,76.2 2398.1,76.2 2495.5,187.1 2548.7,187.1 2548.7,6.1 2495.5,6.1 2495.5,116.8 
		2494.9,116.8 2397.5,6.1 2344.4,6.1 2344.4,187.1 	"/>
	<path class="st0" d="M2644,152c-18.2,0-33.9-8.4-47.2-18.7l-22.8,37.9c20.9,12.9,46.1,20.6,71.9,20.6c20.6,0,42-5,58-17
		c16.2-12.2,21.1-30.7,21.1-48.7c0-29.2-21.9-42-50.4-49.4l-13.6-3.6c-9.2-2.7-23.6-6.7-23.6-17.3c0-10.1,13-15.1,22.8-15.1
		c13.1,0,25.5,4.8,35.3,12l21.2-36.4c-18.2-9.1-43.4-14.9-64-14.9c-40.9,0-70.5,24-70.5,60.7c0,35,21.9,42.7,55.3,51.1
		c11.4,2.8,32.3,7.4,32.3,20.6C2669.8,146.5,2656.5,152,2644,152z"/>
</g>
</svg>
