<?xml version="1.0" encoding="utf-8"?>
<!-- Generator: Adobe Illustrator 25.2.3, SVG Export Plug-In . SVG Version: 6.00 Build 0)  -->
<svg version="1.1" id="Layer_1" xmlns="http://www.w3.org/2000/svg" xmlns:xlink="http://www.w3.org/1999/xlink" x="0px" y="0px"
	 viewBox="0 0 3839 2024.4" style="enable-background:new 0 0 3839 2024.4;" xml:space="preserve">
<style type="text/css">
	.st0{fill:#FF002B;}
	.st1{fill:#FFFFFF;}
	.st2{fill:#C8C6B9;}
	.st3{fill:#F7F4E6;}
</style>
<g>
	<g>
		<polygon class="st0" points="2791.2,287.5 2250.1,607.1 2050.3,461.7 2142.2,691.1 1699.6,1137.2 2240.7,817.6 2440.5,963 
			2348.5,733.6 		"/>
		<g>
			<polygon class="st0" points="2791.2,287.5 2250.1,607.1 2050.3,461.7 2142.2,691.1 1699.6,1137.2 2240.7,817.6 2440.5,963 
				2348.5,733.6 			"/>
		</g>
		<g>
			<path class="st0" d="M2252.8,578l4.8-2.9c1.3-9.8,2.2-19.7,2.7-29.7l2.7-61.9l-97.6,30.8L2252.8,578z"/>
			<path class="st0" d="M1821.1,913.9l97.1-30.7l195.2-196.7l-55.4-138.2l-28.3,8.9l-2.3,54.4c-0.6,14.4-10.2,26.8-23.9,31.1
				l-123.8,39.1c-12.2,3.9-24.5-5.6-24-18.4l15.3-354c0.6-14.4,10.2-26.8,23.9-31.1l123.8-39.1c12.2-3.9,24.5,5.6,24,18.4l-2.2,52
				l233.4-73.7l3.3-75.4c4.6-106.6-98.2-185.4-199.9-153.2l-206.8,65.3c-133.5,42.2-226.3,163.3-232.3,303.1l-16.6,384.9
				C1616.6,867.3,1719.3,946,1821.1,913.9z"/>
		</g>
		<path class="st0" d="M204.8,1515.3C104.7,1451.9,49,1380.1,39.3,1301.9C12.2,1082.3,358,824.1,923.2,639.7l1.7-40.3
			C345.7,785.9-29.3,1054.8,1.8,1306.6c18.5,149.4,176.9,269.8,429.6,351.4l1.7-39.2C343,1589,266.5,1554.5,204.8,1515.3z"/>
		<path class="st0" d="M1911.5,394.7l-1.7,38.3c222.1-24.7,439-35.5,643.4-32.5l61.5-36.3C2396.2,357.9,2158.8,367.5,1911.5,394.7z"
			/>
		<path class="st0" d="M2743,369.8l-35.5,35.8c181.6,9.2,350.9,30.1,501.8,62.5c179.3,38.5,322.2,91,424.8,156
			c100.1,63.4,155.8,135.2,165.4,213.4c27.7,224.1-332.8,488.4-918.4,673.4c-219.3,69.3-465,125.4-718.6,164.6
			c-5.1,13.9-10.7,27.5-16.9,40.8c270.9-40.6,523.6-98.8,746.9-169.3c591.4-186.8,976.1-459.2,944.6-714.1
			C3805.6,577.3,3364.3,406.5,2743,369.8z"/>
		<g>
			<path class="st0" d="M3196.6,727.3l-191.8,60.6c-11.4,3.6-19.3,13.9-19.8,25.8l-1.7,40.4l230.4-72.8
				c11.4-3.6,19.3-13.9,19.8-25.8l0,0C3234.3,735.8,3215.4,721.3,3196.6,727.3z"/>
			<path class="st0" d="M1732.4,1205.4l-8.6,199c-0.7,15.7,14.4,27.3,29.4,22.5l218.5-69l10.7-247.1l-234.2,74
				C1739.1,1187.6,1732.8,1195.9,1732.4,1205.4z M1819.2,1255.6l68.8-21.7l-2.5,58l-68.8,21.7L1819.2,1255.6z"/>
			<path class="st0" d="M3385.8,568.9c-41-49.3-106.8-67.3-165.7-48.7l-241.3,76.2c-63.7,20.1-115.6,64.1-146.8,120.2
				c-1.4-1.1-2.7-2.3-4.1-3.3c-40-30.7-92.7-39.9-140.8-24.7L2394.6,781l33.2,82.8l286.1-90.4c43.6-13.8,87.6,20,85.6,65.6
				l-15.9,368.8l-96.7,30.5l13.9-322.6c0.7-15.7-14.4-27.3-29.4-22.5l-218.5,69l-15.3,354.9l-96.7,30.5l17.8-413L2238,846.7
				l-280,165.4l28.9-9.1l96.7-30.5l0,0l-23.5,543.9c-6.9,159.9-113.1,298.4-265.7,346.6l-107.6,34l4.7-107.8l75.4-23.8
				c113.9-36,193.1-139.3,198.3-258.7l1.8-40.9l-256.4,81c-43.6,13.8-87.6-20-85.6-65.6l10.9-251.7c1.9-44.8,21.6-85.7,52.9-115
				l0.1-0.2l159.5-160.7L1726,992.1c-63.7,20.1-115.6,64.1-146.8,120.2c-1.4-1.1-2.7-2.3-4.1-3.3c-40-30.7-92.6-39.9-140.7-24.7
				l-259.4,81.9l2.1-48.9l8.7-202.4l182.9-57.8C1502.1,815,1595,693.9,1601,554l7.9-182.5c4.6-106.6-98.2-185.4-199.9-153.2
				L979.8,353.8l-23.3,540.3l-435.2,137.5c-11.3,3.6-19.2,13.9-19.7,25.7l-40.5,937.6c-0.8,19.6,18,34.1,36.7,28.2l584.3-184.6l0,0
				l188.8-59.6l15.3-354.9l68.8-21.7l-15.3,354.9l277.2-87.6l2.1-48.6c36.2,18.9,78.8,23,118.4,10.5l110-34.7
				c-24.1,39-61.7,69.4-107.3,83.8l-115.9,36.6c-11.3,3.6-19.2,13.9-19.7,25.7l-10.2,236.8c-0.8,19.6,18,34.1,36.7,28.2l190.2-60.1
				c188.3-59.5,319.3-230.3,327.8-427.6l0.8-19l187-59.1l0,0l187-59.1l15.3-354.9l68.8-21.7l-15.3,354.9l277.2-87.6l2.1-48.6
				c36.2,18.9,78.8,23,118.4,10.5l393.6-124.3c11.3-3.6,19.2-13.9,19.7-25.7l12-277.2l-10.9,3.5c8-23.1,12.8-47.5,13.9-72.8l2.7-62
				C3422.9,638.1,3411,599.1,3385.8,568.9z M1203.9,496.6l146.7-46.3c12.2-3.9,24.5,5.6,24,18.4l-6.5,151.6
				c-0.6,14.4-10.2,26.8-23.9,31.1l-149,47.1L1203.9,496.6z M996.2,1772.4l-42,13.3l-49.3,15.6l-275.2,86.9l-75.9,24l34.9-808.6
				l32-10.1l236.4-74.7l107.1-33.8l-4.6,107.8l-30.9,9.8l-248,78.3l-10.3,238l116.1-36.7l20.8-6.6l75.9-24l-4.7,107.8l-40.7,12.9
				l-56,17.7l-116.1,36.7l-10.7,247.1l254.5-80.4l14.1-4.4l77.5-24.5L996.2,1772.4z M749.4,1650.7l2.5-58l212.8-67.2l12.8-296.9
				l-212.8,67.2l2.1-48.9l176.9-55.9l80.3-25.3l-3.3,77.4l-14.1,326.4L749.4,1650.7z M1530.8,1603.5l-96.7,30.5l13.9-322.6
				c0.7-15.7-14.4-27.3-29.4-22.5l-218.5,69l-15.3,354.9l-96.7,30.5l20-462.8l353.1-111.5c43.6-13.8,87.6,20,85.6,65.6
				L1530.8,1603.5z M2250.7,1376.1l-96.7,30.5l20-462.8l96.7-30.5L2250.7,1376.1z M3332.5,670.6l-2.8,64.8
				c-3,70.3-49.7,131.3-116.9,152.5l-234.2,74l-2,46.8c-0.7,15.7,14.4,27.3,29.4,22.5l218.5-69l43.3-13.7l53.4-16.9l-4.7,107.8
				l-18.2,5.8L2963.5,1151c-43.6,13.8-87.5-20-85.6-65.6l10.9-251.7c3-70.3,49.7-131.3,116.9-152.5l241.3-76.2
				C3290.5,591.2,3334.5,625,3332.5,670.6z"/>
		</g>
	</g>
</g>
</svg>
