<?xml version="1.0" encoding="utf-8"?>
<!-- Generator: Adobe Illustrator 26.0.3, SVG Export Plug-In . SVG Version: 6.00 Build 0)  -->
<svg version="1.1" id="Layer_1" xmlns="http://www.w3.org/2000/svg" xmlns:xlink="http://www.w3.org/1999/xlink" x="0px" y="0px"
	 viewBox="0 0 3839 2241.8" style="enable-background:new 0 0 3839 2241.8;" xml:space="preserve">
<style type="text/css">
	.st0{fill:#C497FF;}
	.st1{fill:#65B7FF;}
	.st2{fill:#FFFFFF;}
	.st3{fill:#636363;}
</style>
<g>
	<path class="st3" d="M295.7,0h3247.6C3706.6,0,3839,132.4,3839,295.7v1650.4c0,163.3-132.4,295.7-295.7,295.7H295.7
		C132.4,2241.8,0,2109.4,0,1946.1V295.7C0,132.4,132.4,0,295.7,0z"/>
	<g>
		<g>
			<g>
				<g>
					<polygon class="st0" points="786.5,369.4 550.9,369.4 369.7,550.6 369.7,851.6 550.9,1032.8 649.7,1032.7 649.7,806.3 
						596,806.3 596,595.8 741.3,595.8 741.3,719 967.7,719 967.7,550.6 					"/>
					<polygon class="st0" points="687.7,806.3 687.7,1032.7 741.3,1032.7 741.3,1243.3 596,1243.3 596,1107.5 369.7,1107.5 
						369.7,1288.4 550.9,1469.7 786.5,1469.7 967.7,1288.4 967.7,987.6 786.5,806.3 					"/>
				</g>
				<g>
					<polygon class="st0" points="1307.7,1243.3 1254.1,1243.3 1254.1,369.4 1027.7,369.4 1027.7,1288.4 1208.9,1469.7 
						1307.7,1469.7 					"/>
					<polygon class="st0" points="1399.4,369.4 1399.4,1243.3 1345.8,1243.3 1345.8,1469.7 1444.5,1469.7 1625.7,1288.4 
						1625.7,369.4 					"/>
				</g>
				<g>
					<polygon class="st0" points="3097.7,806.3 3097.7,595.8 3097.7,369.4 3097.7,369.4 2871.3,369.4 2871.3,1469.7 3097.7,1469.7 
						3097.7,1426.6 3097.7,1032.7 					"/>
					<polygon class="st0" points="3288.1,369.4 3245.6,369.4 3214.5,369.4 3135.7,369.4 3135.7,595.8 3243,595.8 3243,694.6 
						3243,774.5 3243,806.3 3135.7,806.3 3135.7,1032.7 3243,1032.7 3243,1068.7 3243,1145.9 3243,1462.3 3469.3,1462.3 
						3469.3,1143.5 3469.3,1068.7 3469.3,1042.9 3346,919.5 3469.3,796.2 3469.3,774.5 3469.3,695.6 3469.3,600 3469.3,569.3 
						3469.3,550.6 					"/>
				</g>
				<g>
					<rect x="2592.4" y="806.3" class="st0" width="177.8" height="226.4"/>
					<polygon class="st0" points="2808.2,369.4 2554.4,369.4 2554.4,369.4 2328,369.4 2328,1469.7 2506.6,1469.7 2506.6,1469.7 
						2808.2,1469.7 2808.2,1243.3 2554.4,1243.3 2554.4,1157.6 2554.4,1032.7 2554.4,806.3 2554.4,763.8 2554.4,595.8 2808.2,595.8 
											"/>
				</g>
				<g>
					<polygon class="st0" points="2099.4,369.4 1947,369.4 1947,595.8 2054.3,595.8 2054.3,878.2 1947,878.2 1947,1104.6 
						2099.4,1104.6 2280.6,923.3 2280.6,550.6 					"/>
					<polygon class="st0" points="1909,1104.6 1909,878.2 1909,595.8 1909,369.4 1682.6,369.4 1682.6,1469.7 1909,1469.7 					"/>
				</g>
			</g>
			<g>
				<path class="st0" d="M1665.8,1685.7v-49.3c0-37.9-30.7-68.6-68.6-68.6h-326.6v304.6h67.8v-118.1h133.9l99.1,118.1h88.5
					l-99.1-118.1h36.4C1635.1,1754.3,1665.8,1723.6,1665.8,1685.7z M1338.4,1699.7v-77.3h259.6v77.3H1338.4z"/>
				<path class="st0" d="M1206.7,1622.4v-54.6H871.1c-38.2,0-69.2,31-69.2,69.2v166.2c0,38.2,31,69.2,69.2,69.2h335.7v-172.7h-202.4
					v54.6h134.6v63.6H869.7v-195.4H1206.7z"/>
				<polygon class="st0" points="2554.4,1622.4 2554.4,1567.8 2267.4,1567.8 2199.6,1567.8 2199.6,1622.4 2199.6,1872.4 
					2267.4,1872.4 2267.4,1754.3 2509.9,1754.3 2509.9,1699.7 2267.4,1699.7 2267.4,1622.4 				"/>
				<polygon class="st0" points="3013.5,1567.8 2917.6,1567.8 2802.4,1683.1 2687.1,1567.8 2591.2,1567.8 2743.5,1720.1 
					2591.2,1872.4 2687.1,1872.4 2802.4,1757.2 2917.6,1872.4 3013.5,1872.4 2861.3,1720.1 				"/>
				<polygon class="st0" points="2070.5,1872.4 2146.7,1872.4 1990.5,1567.8 1858.3,1567.8 1702.1,1872.4 1778.3,1872.4 
					1906.5,1622.4 1942.3,1622.4 				"/>
			</g>
		</g>
	</g>
</g>
</svg>
