<?xml version="1.0" encoding="utf-8"?>
<!-- Generator: Adobe Illustrator 26.0.3, SVG Export Plug-In . SVG Version: 6.00 Build 0)  -->
<svg version="1.1" id="Layer_1" xmlns="http://www.w3.org/2000/svg" xmlns:xlink="http://www.w3.org/1999/xlink" x="0px" y="0px"
	 viewBox="0 0 3839 846" style="enable-background:new 0 0 3839 846;" xml:space="preserve">
<style type="text/css">
	.st0{fill:#FFFFFF;}
	.st1{fill:#E33A25;}
	.st2{fill:#9A9A9A;}
</style>
<g>
	<path class="st0" d="M2366.2,271.6h-894.5c-70,0-126.7-56.7-126.7-126.7v0c0-70,56.7-126.7,126.7-126.7h894.5
		c70,0,126.7,56.7,126.7,126.7v0C2492.9,214.8,2436.2,271.6,2366.2,271.6z"/>
	<g>
		<g>
			<g>
				<g>
					<path class="st2" d="M1545.5,173.7L1486,77.3h-43.1v138h42.8v-96.4l59.9,96.4h42.8v-138h-42.8v96.4H1545.5z M1883.7,123.6V110
						h-22.5V91.3h-41.6V110H1797v13.6h22.5v91.7h41.6v-91.7C1861.1,123.6,1883.7,123.6,1883.7,123.6z M1612,215.3h41.6v-91.7H1612
						V215.3z M1612,105.3h41.6V77H1612V105.3z M2338.8,117.4c-33.4,0-60.6,22.9-60.6,51.7c0,28.4,27.2,51.7,60.6,51.7
						s60.6-22.9,60.6-51.7S2373,117.4,2338.8,117.4z M2355.5,188.1c0,14.8-8.6,20.6-17.1,20.6c-8.2,0-17.1-6.2-17.1-20.6
						c0-5.4,0-19.8,0-19.8s0-13.6,0-19c0-14.4,8.6-20.6,17.1-20.6c8.2,0,17.1,5.8,17.1,20.6c0,5.4,0,15.9,0,19.4
						C2355.5,169.1,2355.5,182.7,2355.5,188.1z M2224.1,128.3c-6.6-3.9-13.6-7.4-23.3-8.2c-29.9-2.7-52.9,23.7-52.9,48.2
						c0,31.9,24.5,43.9,28.4,45.5c14,6.6,31.9,6.6,47.8-3.5c0,0.8,0,5.4,0,5.4h40.8v-138h-40.8
						C2224.1,77.3,2224.1,106.9,2224.1,128.3z M2224.1,169.1c0,0,0,10.5,0,16.3c0,14-9.7,17.9-16.3,17.9s-16.3-3.9-16.3-17.9
						c0-5.1,0-16.3,0-16.3s0-11.7,0-16.3c0-14.4,9.7-17.9,16.3-17.9s16.3,3.5,16.3,17.9C2224.1,157.4,2224.1,169.1,2224.1,169.1z
						 M1750.7,119.3c-13.6,0.4-25.3,6.2-33,14c0-2.3,0-9.7,0-9.7h-41.2v91.7h41.2c0,0,0-56.4,0-60.2c0-8.2,8.6-16.7,19.8-16.7
						s19,8.9,19,16.7c0,5.8,0,60.2,0,60.2h41.2c0,0,0-43.5,0-49.7C1797.8,129,1766.3,118.9,1750.7,119.3z M2088.1,119.3
						c-13.6,0.4-25.3,6.2-33,14c0-2.3,0-9.7,0-9.7h-41.2v91.7h41.2c0,0,0-56.4,0-60.2c0-8.2,8.6-16.7,19.8-16.7
						c11.3,0,19,8.9,19,16.7c0,5.8,0,60.2,0,60.2h41.2c0,0,0-43.5,0-49.7C2134.7,129,2103.3,118.9,2088.1,119.3z M2000.6,169.8
						c0-28.4-27.6-52.1-61.4-52.1s-61,22.9-61,51.7c0,28.4,27.2,51.7,61,51.7c28,0,51.7-15.9,59.1-37.7h-41.2c0,0,0,0.4,0,5.4
						c0,16.7-10.9,20.6-17.1,20.6s-17.5-3.9-17.5-20.6c0-5.1,0-19,0-19H2000.6z M1925.6,137.6c3.1-5.8,9.3-8.2,14.8-8.6
						c5.4,0,11.3,2.7,14.8,8.6c2.7,4.7,2.7,10.1,2.7,17.9h-34.6C1922.5,147.3,1922.5,142.2,1925.6,137.6z M2416.5,94.4
						c0-4.7-3.5-6.6-10.1-6.6h-9.3v23.7h5.8v-9.7h2.7l4.7,9.7h6.2l-5.1-10.5C2414.6,99.9,2416.5,97.6,2416.5,94.4z M2405.6,97.9
						h-2.7v-7h2.3c3.5,0,5.1,1.2,5.1,3.5C2410.7,97.2,2408.7,97.9,2405.6,97.9z M2405.6,78.5c-11.7,0-21.4,9.3-21.4,21.4
						c0,11.7,9.7,21.4,21.4,21.4s21.4-9.7,21.4-21.4C2427,87.8,2417.3,78.5,2405.6,78.5z M2405.6,117c-9.3,0-17.1-7.8-17.1-17.1
						s7.8-17.1,17.1-17.1s17.1,7.8,17.1,17.1S2415.3,117,2405.6,117z M2359.4,0h-879.1c-92.9-0.4-155.5,66.8-155.5,146.9
						S1387,293,1480.6,293h878.7c93.3,0,155.9-66.1,155.9-146.1C2514.8,66.5,2452.3-0.4,2359.4,0z M2359,257.3h-878.4
						c-74.2,0.4-119.3-49.4-119.3-110.8s45.5-110.4,119.3-110.8H2359c73.8,0,119.3,49.4,119.3,110.8S2432.8,257.3,2359,257.3z
						 M2359.4,0h-879.1c-92.9-0.4-155.5,66.8-155.5,146.9S1387,293,1480.6,293h878.7c93.3,0,155.9-66.1,155.9-146.1
						C2514.8,66.5,2452.3-0.4,2359.4,0z M2359,257.3h-878.4c-74.2,0.4-119.3-49.4-119.3-110.8s45.5-110.4,119.3-110.8H2359
						c73.8,0,119.3,49.4,119.3,110.8S2432.8,257.3,2359,257.3z M2359.4,0h-879.1c-92.9-0.4-155.5,66.8-155.5,146.9
						S1387,293,1480.6,293h878.7c93.3,0,155.9-66.1,155.9-146.1C2514.8,66.5,2452.3-0.4,2359.4,0z M2359,257.3h-878.4
						c-74.2,0.4-119.3-49.4-119.3-110.8s45.5-110.4,119.3-110.8H2359c73.8,0,119.3,49.4,119.3,110.8S2432.8,257.3,2359,257.3z"/>
				</g>
			</g>
			<g>
				<g>
					<polygon class="st1" points="3805.8,806 3763.2,846 0,846 0,806 					"/>
					<path class="st1" d="M1409.6,569.1c-0.9,106.7,84.8,194.2,191.6,195.4c71.5-0.3,136.8-40.6,169.1-104.3l0.8-1.5h-84.2
						c-22.8,22.6-53.5,35.4-85.7,35.6c-69.1-1.9-123.6-59.2-121.7-128.3c1.7-66.5,55.3-120.1,121.7-121.7
						c31.8,0.1,62.3,12.7,84.8,35.2l85.1,0.2l-0.8-1.5c-32.3-63.7-97.7-103.9-169.1-104.2C1494.3,375,1408.7,462.3,1409.6,569.1z
						 M1774.9,570.2c2.1,105.8,89.5,189.9,195.4,187.8c105.8-2.1,189.9-89.5,187.8-195.4c-2.1-104.3-87.2-187.8-191.5-187.9
						C1859.7,375.9,1774,463.3,1774.9,570.2L1774.9,570.2z M1844,570.2c1.4-67.6,57.4-121.4,125-120s121.4,57.4,120,125
						c-1.4,66.6-55.8,120-122.5,120C1898.2,694.4,1843.4,638.5,1844,570.2L1844,570.2z M3538.6,376.4h-193.1v384.8h193.9v-74.1
						h-121.3v-77.2h121.3v-74.1h-121.3v-85.4h121.3v-74.1h-1.1h0.2v0.1H3538.6z M435,376.4h-57.1L112.6,761.3h82.2
						c0,0,41-59.7,41.5-60.5h129.8v60.5h69.8V376.4H435L435,376.4z M288,625.3L366.1,511v121h-82.6C284.9,629.9,288,625.3,288,625.3
						z M2572.7,376.5h-81c0,0-113,261.1-114.8,265.3c-1.9-4.3-115.3-265.3-115.3-265.3h-81.8v384.9h72.4V569.8
						c1.2-0.3,6.9-1.5,8.1-1.9l84.1,193.5h64.7c0,0,83.3-191.8,83.9-193.4c1.2,0.2,6.9,1.5,8.2,1.7v191.5h72.4V376.5H2572.7
						L2572.7,376.5z M3105,376.5h-71.8v259.8c0.4,27.5-21.6,50.2-49.2,50.6c-27.5,0.4-50.2-21.6-50.6-49.2c0-0.4,0-1,0-1.4V376.5
						h-72.7v259.8c-1.1,67.7,52.9,123.5,120.6,124.6S3104.9,708,3106,640.2c0-1.3,0-2.6,0-3.9V376.6L3105,376.5L3105,376.5z
						 M3562.6,376.6h-1.1v386.1h72.7V559.5c3.6,6.1,120,201.8,120,201.8h81.6c0,0-81.9-138.1-83.1-140.3c1.5-0.5,4.8-1.7,4.8-1.7
						c64.9-24.3,97.8-96.5,73.6-161.3c-17.8-47.7-62.7-79.9-113.6-81.5L3562.6,376.6L3562.6,376.6z M3717.7,450.5
						c27.4,1,49.2,23.6,48.9,51.1c0.4,27.5-21.4,50.3-48.9,50.8h-83.4V450.5H3717.7L3717.7,450.5z M2596.9,376.6h-1v384.8h72.7v-137
						h51.8c68.4-1.3,122.8-57.8,121.6-126.2c-1.2-66.6-55-120.3-121.6-121.6H2596.9L2596.9,376.6z M2720.3,450.5
						c27.6,0.5,49.5,23.4,48.9,51c-0.5,26.8-22.2,48.4-48.9,48.9h-51.8v-100L2720.3,450.5L2720.3,450.5z M3324,376.6h-197.2v73.9
						h62.6v310.8h72.7V450.5h62.9v-73.9H3324L3324,376.6z M1366.9,376.6h-75.2c0,0-77.2,150.6-79,154.1c-1.7-3.4-79-154.1-79-154.1
						h-76.9l119.5,236.5l-0.1,148.3h72.9l0.2-148.7c0.1,0,118.5-234.6,118.5-234.6l0.8-1.5L1366.9,376.6L1366.9,376.6z
						 M1037.1,376.6h-71.6v384.7h170.9v-74.1h-98.3V376.6H1037.1L1037.1,376.6z M942.4,376.6h-68.1v384.7h69.1V376.6H942.4
						L942.4,376.6z M851.1,376.6H770c0,0-113,260.9-114.8,265.1L540,376.6h-81.7v384.7h72.4V569.7c1.2-0.2,6.9-1.5,8.1-1.7
						c0.7,1.5,84.1,193.4,84.1,193.4h64.7l84-193.4c1.2,0.3,6.9,1.5,8.1,1.9v191.5h72.4V376.6H851.1L851.1,376.6z M198.4,376.6H0
						v384.7h73.9V609.8h125.5v-73.6H73.9v-88.6h125.5v-70.8L198.4,376.6L198.4,376.6z"/>
				</g>
			</g>
		</g>
	</g>
</g>
</svg>
