<?xml version="1.0" encoding="utf-8"?>
<!-- Generator: Adobe Illustrator 26.0.1, SVG Export Plug-In . SVG Version: 6.00 Build 0)  -->
<svg version="1.1" id="Layer_1" xmlns="http://www.w3.org/2000/svg" xmlns:xlink="http://www.w3.org/1999/xlink" x="0px" y="0px"
	 viewBox="0 0 3839 818" style="enable-background:new 0 0 3839 818;" xml:space="preserve">
<style type="text/css">
	.st0{fill:#154E9F;}
	.st1{fill:#FF6A29;}
	.st2{fill:#FFFFFF;}
</style>
<g>
	<path id="path1230_00000080902472562702397460000001442788701848656298_" class="st1" d="M402.3,698.1H503v-22.4h-75.1V477.5h-25.6
		V698.1z"/>
	<path id="path1247_00000052795965254050398060000008135882791092973992_" class="st1" d="M701.8,477.5v220.6h25.6v-98.6l23.6-0.1
		c22.8-0.1,37.7,6,37.7,34.3v37.4c-0.1,10.8,0.4,16.7,3.2,26.9h26.3c-2.7-9.6-3.8-15.3-3.8-22.9v-40.8c0-27.9-9.3-42.1-31-47.8
		c19.5-7.2,31.2-15.6,31.2-58c0-35.9-22.3-51.2-56.2-51.2L701.8,477.5z M727.4,499.8h29.2c19,0,32.3,4.6,32.3,38.3
		c0,29.8-13.3,38.3-32.3,38.3h-29.2V499.8z"/>
	<path class="st1" d="M156.5,479.9c-17.6-8.7-39.3-8.7-56.9,0s-28.4,24.9-28.4,42.4v130.2c0,17.5,10.8,33.7,28.4,42.4
		s39.3,8.7,56.9,0s28.2-24.9,28.2-42.4v-15.3h-24.8v11.5c0,10.9-6,21-15.7,26.4c-9.7,5.5-21.7,5.5-31.5,0
		C103,669.7,97,659.6,97,648.7V526.2c0-10.9,6-21,15.7-26.4s21.7-5.5,31.5,0c9.7,5.5,15.7,15.5,15.7,26.4v11.5h24.8v-15.3
		C184.7,504.8,174.1,488.7,156.5,479.9z"/>
	<rect x="1822.8" y="530.9" class="st1" width="153.6" height="114.4"/>
	<path class="st1" d="M3839,494.8V357h-167.7H3654c-66.6,0-120.5,54-120.5,120.5v219.9c0,66.6,54,120.5,120.5,120.5h17.3H3839V680.2
		h-145.1c-12.5,0-22.7-10.2-22.7-22.7l0,0c0-12.5,10.2-22.7,22.7-22.7H3839v-94.7h-145.1c-12.5,0-22.7-10.2-22.7-22.7l0,0
		c0-12.5,10.2-22.7,22.7-22.7H3839V494.8z"/>
	<polygon class="st1" points="1356,357 1259.1,357 1121.3,357 1024.4,357 1024.4,494.8 1121.3,494.8 1121.3,817.9 1259.1,817.9 
		1259.1,494.8 1356,494.8 	"/>
	<path class="st1" d="M2256.1,546.2v132.7c-120.5-10-117.1-195.9,10.3-195.9c58.6,0,127.5,12,127.5,12V356.3
		c-38.2-7.1-80.7-11.1-127.5-11.1v0c-314.6,0-314.6,471.9,0,471.9c46.8,0,89.2-4,127.5-11.1v-25.4h0V546.2H2256.1z"/>
	<path class="st1" d="M1642.5,357v31.3c0.4,91.5-16.2,181.7-48.1,266.4c-32-84.6-48.5-174.8-48.1-266.4V357h-137.8v30.7
		c0,0,0.3,0,0.6,0c-0.2,0-0.3,0-0.6,0c-0.7,151,37.4,299,109.8,430.2h152.1c72.4-131.2,110.5-279.2,109.8-430.2c-0.3,0-0.4,0-0.6,0
		c0.3,0,0.6,0,0.6,0V357H1642.5z"/>
	<g>
		<rect y="731" class="st1" width="908.3" height="49.3"/>
		<rect y="806.7" class="st1" width="908.3" height="11.2"/>
	</g>
	<g>
		<rect y="394.6" class="st1" width="908.3" height="49.3"/>
		<rect y="357" class="st1" width="908.3" height="11.2"/>
	</g>
	<g>
		<g>
			<g>
				<path d="M1418.1,129.2L1338.7,0.5h-57.6v184.2h57.1V56l79.9,128.7h57.1V0.5h-57.1V129.2z M1869.4,62.3V44.1h-30.1V19.2h-55.5
					v24.9h-30.1v18.2h30.1v122.4h55.5V62.3H1869.4z M1506.8,184.7h55.5V62.3h-55.5V184.7z M1506.8,37.9h55.5V0h-55.5V37.9z M2477,54
					c-44.6,0-80.9,30.6-80.9,69c0,37.9,36.3,69,80.9,69s80.9-30.6,80.9-69S2522.6,54,2477,54z M2499.3,148.4
					c0,19.7-11.4,27.5-22.8,27.5c-10.9,0-22.8-8.3-22.8-27.5c0-7.3,0-26.5,0-26.5s0-18.2,0-25.4c0-19.2,11.4-27.5,22.8-27.5
					c10.9,0,22.8,7.8,22.8,27.5c0,7.3,0,21.3,0,25.9C2499.3,123,2499.3,141.1,2499.3,148.4z M2323.9,68.5
					c-8.8-5.2-18.2-9.9-31.1-10.9c-39.9-3.6-70.6,31.6-70.6,64.3c0,42.5,32.7,58.6,37.9,60.7c18.7,8.8,42.5,8.8,63.8-4.7
					c0,1,0,7.3,0,7.3h54.5V1h-54.5C2323.9,0.5,2323.9,39.9,2323.9,68.5z M2323.9,123c0,0,0,14,0,21.8c0,18.7-13,23.9-21.8,23.9
					s-21.8-5.2-21.8-23.9c0-6.7,0-21.8,0-21.8s0-15.6,0-21.8c0-19.2,13-23.9,21.8-23.9s21.8,4.7,21.8,23.9
					C2323.9,107.4,2323.9,123,2323.9,123z M1692,56.6c-18.2,0.5-33.7,8.3-44.1,18.7c0-3.1,0-13,0-13h-55v122.4h55c0,0,0-75.2,0-80.4
					c0-10.9,11.4-22.3,26.5-22.3s25.4,11.9,25.4,22.3c0,7.8,0,80.4,0,80.4h55c0,0,0-58.1,0-66.4C1754.8,69.5,1712.7,56,1692,56.6z
					 M2142.3,56.6c-18.2,0.5-33.7,8.3-44.1,18.7c0-3.1,0-13,0-13h-55v122.4h55c0,0,0-75.2,0-80.4c0-10.9,11.4-22.3,26.5-22.3
					s25.4,11.9,25.4,22.3c0,7.8,0,80.4,0,80.4h55c0,0,0-58.1,0-66.4C2204.6,69.5,2162.6,56,2142.3,56.6z M2025.6,124
					c0-37.9-36.8-69.5-82-69.5c-45.1,0-81.5,30.6-81.5,69c0,37.9,36.3,69,81.5,69c37.4,0,69-21.3,78.9-50.3h-55c0,0,0,0.5,0,7.3
					c0,22.3-14.5,27.5-22.8,27.5s-23.3-5.2-23.3-27.5c0-6.7,0-25.4,0-25.4L2025.6,124L2025.6,124z M1925.5,80.9
					c4.2-7.8,12.5-10.9,19.7-11.4c7.3,0,15,3.6,19.7,11.4c3.6,6.2,3.6,13.5,3.6,23.9h-46.2C1921.3,93.9,1921.3,87.2,1925.5,80.9z"/>
			</g>
		</g>
	</g>
	<path class="st1" d="M2460.3,530.6v287.3h137.8v-92.8h95.3v92.8h137.8V530.6C2831.2,283.3,2460.3,283.3,2460.3,530.6z
		 M2598.1,587.3v-56.7c0-63.5,95.3-63.5,95.3,0v56.7H2598.1z"/>
	<path class="st1" d="M3182.9,379.4c-103.9-75-288.7-26.9-288.7,144.5V818H3032V523.9c-0.1-54.6,81.9-54.6,81.9,0V818h137.8V523.9
		c-0.1-54.6,82-54.6,82,0V818h137.8V523.9C3471.5,352.5,3286.7,304.3,3182.9,379.4z"/>
	<path class="st1" d="M621.9,480c-17.6-8.7-41.3-8.7-58.9,0c-17.6,8.7-28.4,24.9-28.4,42.4v130.2c0,17.5,10.8,33.7,28.4,42.4
		c17.6,8.7,41.3,8.7,58.9,0s28.2-24.9,28.2-42.4V522.4C650.1,504.9,639.5,488.7,621.9,480z M625.3,648.8c0,10.9-6,21-15.7,26.4
		c-9.7,5.5-23.8,5.5-33.5,0s-15.7-15.5-15.7-26.4V526.2c0-10.9,6-21,15.7-26.4c9.7-5.5,23.8-5.5,33.5,0s15.7,15.5,15.7,26.4V648.8z"
		/>
	<path class="st1" d="M321.8,480c-17.6-8.7-41.3-8.7-58.9,0c-17.6,8.7-28.4,24.9-28.4,42.4v130.2c0,17.5,10.8,33.7,28.4,42.4
		c17.6,8.7,41.3,8.7,58.9,0s28.2-24.9,28.2-42.4V522.4C350,504.9,339.4,488.7,321.8,480z M325.2,648.8c0,10.9-6,21-15.7,26.4
		c-9.7,5.5-23.8,5.5-33.5,0s-15.7-15.5-15.7-26.4V526.2c0-10.9,6-21,15.7-26.4c9.7-5.5,23.8-5.5,33.5,0s15.7,15.5,15.7,26.4V648.8z"
		/>
</g>
</svg>
