<?xml version="1.0" encoding="utf-8"?>
<!-- Generator: Adobe Illustrator 25.2.1, SVG Export Plug-In . SVG Version: 6.00 Build 0)  -->
<svg version="1.1" id="Layer_1" xmlns="http://www.w3.org/2000/svg" xmlns:xlink="http://www.w3.org/1999/xlink" x="0px" y="0px"
	 viewBox="0 0 3838 828.8" style="enable-background:new 0 0 3838 828.8;" xml:space="preserve">
<style type="text/css">
	.st0{fill:#E31E26;}
	.st1{fill:#F4A51C;}
	.st2{fill:#9A9A9A;}
	.st3{fill:#FFFFFF;}
	.st4{fill:#32398F;}
	.st5{fill:#E33A25;}
</style>
<g>
	<rect x="1094.1" class="st0" width="75.1" height="219"/>
	<path class="st0" d="M979.2,0C898,0,755.5,0,755.5,0v219h72V72c0-10.8,6.1-16.9,13.8-16.9h122.5c9.2,0,15.3,6.1,15.3,16.9v147h70.4
		V72C1049.7,72,1058.9,0,979.2,0"/>
	<path class="st0" d="M1438.8,0c-81.2,0-225.2,0-225.2,0v219h70.5V72c0-10.8,6.1-16.9,15.3-16.9H1422c9.2,0,16.8,6.1,16.8,16.9v147
		h69V72C1507.8,72,1516.9,0,1438.8,0"/>
	<path class="st0" d="M2335,0c-81.2,0-222.1,0-222.1,0v219h70.5V72c0-10.8,6.1-16.9,15.3-16.9h119.5c10.8,0,16.8,6.1,16.8,16.9v147
		h70.5V72C2405.5,72,2414.7,0,2335,0"/>
	<path class="st0" d="M1533.8,56.6h79.6c6.2,0,13.8,7.7,13.8,16.8V219h76.6V73.5c0-9.1,7.7-16.8,16.9-16.8h76.6V0h-263.5V56.6"/>
	<path class="st0" d="M2739.5,98V72c0,0,12.3-72-68.9-72c-81.2,0-225.2,0-225.2,0v219c0,0,144.1,0,225.2,0
		c81.3,0,68.9-70.4,68.9-70.4V98 M2670.6,148.6c0,9.1-7.7,13.8-15.3,13.8h-121c-9.2,0-15.3-4.6-15.3-13.8V72
		c0-7.7,6.1-15.4,15.3-15.4h121c7.7,0,15.3,7.7,15.3,15.4V148.6"/>
	<path class="st0" d="M3081.2,116.4V72c0,0,12.2-72-69-72c-20.6,0-47.6,0-72,0c-4.6,0-9.4,0-13.8,0c-26.2,0-52.4,0-71.9,0
		c-79.7,0-72,72-72,72v76.6c0,0-7.7,70.4,72,70.4c19.5,0,45.7,0,71.9,0c4.4,0,9.2,0,13.8,0c24.4,0,51.4,0,72,0
		c81.2,0,69-70.4,69-70.4V116.4 M3012.2,148.6c0,9.1-7.7,13.8-16.8,13.8h-127.2c-7.7,0-13.7-4.6-13.7-13.8V72
		c0-7.7,6.1-15.4,13.7-15.4h127.2c9.2,0,16.8,7.7,16.8,15.4V148.6"/>
	<path class="st0" d="M1826.5,145.5c0,0-10.8,73.5,70.4,73.5h171.6v-56.6h-162.4c-9.2,0-15.3-7.6-15.3-16.8
		c0-9.2,6.1-13.8,15.3-13.8h150.1V90.4h-150.1c-9.2,0-15.3-7.7-15.3-16.9c0-9.1,6.1-18.4,15.3-18.4h162.4V0h-242V145.5"/>
	<path class="st0" d="M512,307.9c-84.3,0-222.2,0-222.2,0v217.6h69V379.9c0-9.2,7.6-16.9,16.8-16.9h119.5c9.2,0,16.9,7.7,16.9,16.9
		v145.5h68.9V379.9C580.9,379.9,590.1,307.9,512,307.9"/>
	<path class="st0" d="M2431.6,307.9c-81.2,0-222.2,0-222.2,0v217.6h70.5V379.9c0-9.2,7.7-16.9,15.4-16.9h119.5
		c9.1,0,16.8,7.7,16.8,16.9v145.5h68.9V379.9C2500.5,379.9,2509.7,307.9,2431.6,307.9"/>
	<path class="st0" d="M3478,307.9c-81.2,0-222.2,0-222.2,0v217.6h69V379.9c0-9.2,7.6-16.9,16.8-16.9h119.5c9.1,0,16.8,7.7,16.8,16.9
		v145.5h68.9V379.9C3546.9,379.9,3556,307.9,3478,307.9"/>
	<path class="st0" d="M611.5,363.1h76.6c7.7,0,16.9,7.7,16.9,16.9v145.5h73.5V379.9c0-9.2,7.7-16.9,16.9-16.9h76.6v-55.1H611.5
		V363.1"/>
	<path class="st0" d="M3576,307.9v55.1h76.6c9.1,0,16.8,7.7,16.8,16.9v145.5h76.6V379.9c0-9.2,6.1-16.9,15.3-16.9h76.6v-55.1H3576"
		/>
	<path class="st0" d="M1486.3,363.1h76.6c9.2,0,16.9,7.7,16.9,16.9v145.5h76.5V379.9c0-9.2,7.7-16.9,16.9-16.9h76.5v-55.1h-263.5
		V363.1"/>
	<rect x="2089.9" y="307.9" class="st0" width="73.5" height="217.6"/>
	<path class="st0" d="M1970.4,307.9h-121c-78.1,0-72,72-72,72v145.5h70.5v-55.1h124v55.1h70.4V379.9
		C2042.4,379.9,2051.6,307.9,1970.4,307.9 M1971.9,415.2h-124v-38.3c0-6.2,9.2-13.8,13.7-13.8h93.4c10.7,0,16.8,7.7,16.8,13.8V415.2
		"/>
	<path class="st0" d="M1386.8,307.9h-196.1v217.6h72v-41.4c0-9.2,6.1-13.7,15.3-13.7h96.5c4.6,0,13.8,7.7,13.8,13.7v41.4h68.9v-33.6
		c0,0,6.2-30.8-26-52.2c21.4-15.3,29.1-38.2,30.7-52.1c1.5-6.1,1.5-10.7,1.5-10.7S1463.3,307.9,1386.8,307.9 M1388.3,398.3
		c0,10.7-4.6,16.9-13.8,16.9h-101.1c-4.6,0-10.7-6.2-10.7-16.9v-21.5c0-9.2,6.1-16.9,15.3-16.9h96.5c9.2,0,13.8,4.5,13.8,16.9V398.3
		"/>
	<path class="st0" d="M0.2,453.5c0,0-7.6,72,72,72h171.6v-55.1H84.5c-10.7,0-19.9-9.3-19.9-18.4c0-10.7,7.7-16.9,19.9-16.9h150.2
		v-38.3H81.4c-9.2,0-16.9-7.7-16.9-16.9c0-9.2,7.7-16.9,16.9-16.9h162.4v-55.1H0.2V453.5"/>
	<path class="st0" d="M904.2,453.5c0,0-10.8,72,69,72h171.6v-55.1H985.3c-10.8,0-19.9-9.3-19.9-18.4c0-10.7,9.2-16.9,19.9-16.9
		h150.1v-38.3H985.3c-10.8,0-19.9-7.7-19.9-16.9c0-9.2,9.2-16.9,19.9-16.9h159.4v-55.1H904.2V453.5"/>
	<path class="st0" d="M2969.3,453.5c0,0-7.7,72,70.5,72h173.1v-55.1H3052c-9.2,0-18.4-9.3-18.4-18.4c0-10.7,6.2-16.9,16.9-16.9
		h150.1v-38.3h-150.1c-10.7,0-16.9-7.7-16.9-16.9c0-9.2,6.2-16.9,16.9-16.9h162.4v-55.1h-243.6V453.5"/>
	<path class="st0" d="M2854.9,308.2c-81.3,0-308,0-308,0v217.5h64.4V380.2c0-9.2,7.7-16.8,16.8-16.8h52c9.2,0,16.9,7.7,16.9,16.8
		v145.5h72V380.2c0-9.2,6.2-16.8,16.8-16.8h55.2c6.1,0,13.8,7.7,13.8,16.8l3,145.5h68.9V380.2C2926.9,380.2,2936,308.2,2854.9,308.2
		"/>
	<path class="st0" d="M1875.5,666.4h78.1c6.1,0,13.8,7.7,13.8,16.8v145.5h76.6l3-145.5c0-9.1,4.6-16.8,13.8-16.8h76.6v-55.1h-262
		V666.4"/>
	<path class="st0" d="M2761,611.3c-81.2,0-307.9,0-307.9,0v217.5h64.3V683.2c0-9.1,7.7-16.8,16.8-16.8h52.1
		c9.2,0,16.8,7.7,16.8,16.8v145.5h72V683.2c0-9.1,6.1-16.8,16.9-16.8h55.1c6.2,0,13.8,7.7,13.8,16.8l3.1,145.5h68.9V683.2
		C2833,683.2,2842.1,611.3,2761,611.3"/>
	<path class="st0" d="M1559.9,611.3H1494v81.2c0,9.1-9.2,16.8-16.8,16.8h-98.1c-9.2,0-16.8-7.7-16.8-16.8v-81.2h-68.9v79.7
		c0,0-7.7,73.5,72,73.5h23v64.4h76.6v-64.4h26c79.7,0,69-71.9,69-71.9V611.3"/>
	<path class="st0" d="M2166.5,756.8c0,0-10.7,72,68.9,72H2407v-55.2h-159.3c-10.7,0-20-7.7-20-18.4c0-10.7,9.2-15.3,20-15.3h150.1
		v-38.4h-150.1c-10.7,0-20-9.1-20-18.3c0-9.1,9.2-16.8,20-16.8H2407v-55.1h-240.5V756.8"/>
	<path class="st0" d="M1780.5,700h-102.7c-12.2,0-19.9-4.5-19.9-15.2c0-9.3,7.6-18.4,16.8-18.4h174.6v-55.1h-191.5
		c-35.3,0-65.9,29.1-65.9,62.8c0,47.5,30.6,65.9,72,65.9h102.6c10.7,0,21.5,4.6,21.5,15.3c0,9.2-7.7,18.4-16.9,18.4h-179.2v55.2
		h196.1c32.2,0,65.9-26,65.9-62.8C1854,721.6,1818.8,700,1780.5,700"/>
	<path class="st0" d="M1196.8,700h-99.6c-12.3,0-21.4-4.5-21.4-15.2c0-9.3,9.2-18.4,18.4-18.4h174.6v-55.1h-191.5
		c-38.3,0-69,29.1-69,62.8c0,47.5,33.7,65.9,75.1,65.9h99.6c12.3,0,21.4,4.6,21.4,15.3c0,9.2-9.2,18.4-18.4,18.4h-177.7v55.2h196.1
		c35.2,0,67.4-26,67.4-62.8C1271.8,721.6,1238.1,700,1196.8,700"/>
	<path class="st0" d="M2869.4,642.3c0-32.3,26.3-56.1,57.3-56.1c30.6,0,56.9,23.8,56.9,56.1c0,32.6-26.2,56.5-56.9,56.5
		C2895.7,698.7,2869.4,674.9,2869.4,642.3 M2926.7,689.3c25.4,0,45.5-20,45.5-47.1c0-26.7-20.1-46.7-45.5-46.7
		c-25.8,0-45.9,20.1-45.9,46.7C2880.7,669.4,2900.9,689.3,2926.7,689.3 M2914.7,674.9h-9.8V610h24.7c15.4,0,22.9,5.6,22.9,18.5
		c0,11.6-7.3,16.8-16.8,17.8l18.5,28.6h-11.1l-17.1-28.1h-11.3V674.9 M2926.5,638.4c8.4,0,15.8-0.6,15.8-10.6c0-8-7.3-9.5-14.1-9.5
		h-13.4v20.1H2926.5"/>
</g>
</svg>
