<?xml version="1.0" encoding="utf-8"?>
<!-- Generator: Adobe Illustrator 25.2.1, SVG Export Plug-In . SVG Version: 6.00 Build 0)  -->
<svg version="1.1" id="Layer_1" xmlns="http://www.w3.org/2000/svg" xmlns:xlink="http://www.w3.org/1999/xlink" x="0px" y="0px"
	 viewBox="0 0 3839 863" style="enable-background:new 0 0 3839 863;" xml:space="preserve">
<style type="text/css">
	.st0{fill-rule:evenodd;clip-rule:evenodd;fill:#FDDB00;}
	.st1{fill-rule:evenodd;clip-rule:evenodd;fill:#73B744;}
	.st2{fill-rule:evenodd;clip-rule:evenodd;fill:#E11F26;}
	.st3{fill-rule:evenodd;clip-rule:evenodd;fill:#25A4DD;}
	.st4{fill-rule:evenodd;clip-rule:evenodd;}
	.st5{fill:#FFFFFF;}
	.st6{fill-rule:evenodd;clip-rule:evenodd;fill:#FFFFFF;}
</style>
<g>
	<g id="data_3_">
		<path d="M3839,255.9H0v-19.8h3839V255.9z M1504.8,689.4v44.6h181.5v83.3h-181.5V862h181.5h34.7v-44.6v-83.3v-44.6h-34.7H1504.8z
			 M1060.4,766.8h152.8c0,16.9-3,22.8-17.9,22.8h-35.7h-23.8v16.9c0,7.9-2,15.9-20.8,15.9h-43.6V862h47.6
			c22.8,0,39.7-15.9,39.7-36.7v-3h36.7c25.8,0,44.6-18.8,44.6-46.6v-9.9v-35.7h-179.6V766.8z M1263.8,725.1L1480,749v-38.7
			l-216.3-23.8V725.1z M1263.8,781.7l216.3,23.8v-37.7L1263.8,744V781.7z M1263.8,838.2L1480,862v-38.7l-216.3-23.8V838.2z
			 M188.5,750.9v-16.9l0,0v-44.6H8.9v44.6h146.8v16.9c0,40.7-36.7,64.5-98.2,67.5H2V863h60.5c38.7,0,69.4-15.9,90.3-36.7l24.8,36.7
			h52.6l-54.6-67.5C183.5,780.7,188.5,764.8,188.5,750.9z M1744.9,734.1h131.9v-44.6h-131.9V734.1z M1930.4,744
			c0,58.5-28.8,73.4-76.4,73.4h-109.1V862h122c65.5,0,93.2-42.7,93.2-93.2v-80.4h-29.8V744z M444.4,754.9
			c0,37.7-15.9,63.5-71.4,63.5V863c95.2,0,103.2-60.5,103.2-101.2v-72.4h-32.7L444.4,754.9L444.4,754.9z M537.7,754.9v-65.5h-33.7
			v72.4c0,39.7,10.9,101.2,106.1,101.2v-44.6C553.5,817.4,537.7,792.6,537.7,754.9z M832.3,734.1h174.6v27.8
			c0,45.6-29.8,55.6-93.2,55.6h-68.4V862h95.2c46.6,0,98.2-37.7,98.2-95.2v-33.7l0,0v-44.6H831.3v45.6H832.3z M213.3,794.6H370
			v-38.7H213.3V794.6z M617,794.6h157.7v-38.7H617V794.6z M613,717.2c0,17.9-14.9,32.7-32.7,32.7c-17.9,0-32.7-14.9-32.7-32.7
			s14.9-32.7,32.7-32.7C599.2,684.5,613,699.4,613,717.2z M595.2,717.2c0-7.9-6.9-14.9-14.9-14.9s-14.9,6.9-14.9,14.9
			s6.9,14.9,14.9,14.9C588.2,731.1,595.2,725.1,595.2,717.2z M71.4,503.9h111.1c40.7,0,41.7,60.5,0,60.5H15.9v44.6h215.3
			c86.3,0,87.3-144.8-4-144.8H115.1c-44.6,0-44.6-55.6,0-55.6h159.7v-44.6H70.4C-24.8,364.1-21.8,503.9,71.4,503.9z M325.4,364.1
			v154.8c0,56.5,40.7,89.3,83.3,89.3h186.5v-244h-69.4v199.4h-81.3c-35.7,0-53.6-27.8-53.6-49.6V364.1H325.4z M820.4,517.8H710.3
			v89.3h-69.4v-248h69.4h110.1C944.4,359.1,949.3,517.8,820.4,517.8z M797.6,403.7h-87.3v75.4h87.3
			C853.1,478.1,852.1,403.7,797.6,403.7z M1200.3,558.5h-133.9c-34.7,0-49.6-41.7-45.6-55.6h180.5v-44.6h-180.5
			c-4-14.9,9.9-55.6,44.6-55.6h134.9v-44.6h-147.8c-141.9,0-140.9,249,0,249h147.8V558.5z M1839.1,403.7h120v-44.6h-146.8
			c-59.5,0-108.1,38.7-108.1,100.2l0,0v149.8h69.4V507.9h185.5v-49.6h-184.5C1774.7,419.6,1796.5,403.7,1839.1,403.7z M2953.2,359.1
			c-145.8,0-163.7,249,16.9,249l0,0h124v-49.6h-125c-69.4,0-69.4-155.7,0-155.7h125v-44.6L2953.2,359.1L2953.2,359.1z M2575.2,359.1
			h-191.5h-69.4v249h69.4V402.7h75.4v205.3h64.5V402.7h19.8c34.7,0,65.5,15.9,65.5,56.5v148.8h69.4V447.4
			C2679.4,386.9,2642.7,359.1,2575.2,359.1z M2724,608.1h75.4v-249H2724V608.1z M3433.3,484.1c0,68.4-40.7,130-159.7,130
			s-159.7-61.5-159.7-130c0-70.4,42.7-125,159.7-125C3390.6,359.1,3433.3,413.7,3433.3,484.1z M3358.9,483.1
			c0-65.5-24.8-85.3-85.3-85.3s-85.3,18.8-85.3,85.3c0,62.5,23.8,85.3,85.3,85.3S3358.9,545.6,3358.9,483.1z M2268.7,474.2v53.6
			v80.4h-194.4c-112.1,0-115.1-153.8-1-153.8h121c0-15.9-15.9-50.6-58.5-50.6h-131.9v-44.6h155.7
			C2219.1,360.1,2268.7,391.8,2268.7,474.2z M2194.3,498h-100.2c-40.7,0-39.7,60.5,0,60.5h100.2v-30.8V498z M1315.4,608.1h-70.4
			v-249h70.4l0,0h111.1c126,0,137.9,126,36.7,150.8l79.4,99.2h-82.3l-63.5-94.2h-80.4L1315.4,608.1L1315.4,608.1z M1315.4,468.2
			h101.2c44.6,0,45.6-65.5,0-65.5h-101.2V468.2z M3734.8,359.1h-191.5h-69.4v249h69.4V402.7h75.4v205.3h64.5V402.7h19.8
			c34.7,0,65.5,15.9,65.5,56.5v148.8h69.4V447.4C3839,386.9,3803.3,359.1,3734.8,359.1z M180.5,8.9H20.8v39.7h159.7V8.9z M199.4,123
			H2v39.7h197.4V123z M2658.5,8.9h-159.7v39.7h159.7V8.9z M2677.4,123H2480v39.7h197.4V123z M1205.3,70.4h-148.8v33.7h148.8V70.4z
			 M336.3,8.9H220.2v39.7h116.1V8.9z M410.7,80.4V9.9h-26.8v48.6c0,51.6-25.8,65.5-67.5,65.5h-96.2v39.7h108.1
			C385.9,162.7,410.7,125,410.7,80.4z M758.9,8.9H642.8v39.7h116.1V8.9z M833.3,80.4V9.9h-26.8v48.6c0,51.6-25.8,65.5-67.5,65.5
			h-96.2v39.7h108.1C808.5,162.7,833.3,125,833.3,80.4z M1003.9,8.9h-20.8v38.7h20.8V8.9z M1034.6,8.9h-20.8v38.7h20.8V8.9z
			 M888.8,92.3c4,7.9,17.9,15.9,29.8,15.9h115.1V70.4H918.6c-10.9,0-25.8-6-29.8-16.9V8.9h-33.7v153.8h33.7V92.3z M1792.5,63.5
			h-116.1v36.7h116.1V63.5z M1792.5,8.9h-116.1v36.7h116.1V8.9z M1866.9,80.4V9.9h-26.8v48.6c0,51.6-25.8,63.5-67.5,65.5h-96.2v39.7
			h108.1C1842.1,162.7,1866.9,125,1866.9,80.4z M1909.6,44.6h-23.8v55.6h23.8V44.6z M1945.3,44.6h-23.8v55.6h23.8V44.6z
			 M1896.7,162.7h74.4c39.7,0,57.5-25.8,57.5-56.5V46.6h-18.8v34.7c0,35.7-17.9,43.6-46.6,45.6h-66.5L1896.7,162.7L1896.7,162.7z
			 M1301.5,48.6h113.1v25.8v6c0,36.7-36.7,42.7-43.6,42.7s-109.1,0-109.1,0v39.7H1367c58.5,0,76.4-52.6,76.4-67.5V8.9h-164.7
			c0,39.7-32.7,49.6-32.7,49.6v38.7C1289.6,97.2,1301.5,48.6,1301.5,48.6z M2103,48.6h113.1v25.8v6c0,36.7-36.7,42.7-43.6,42.7
			c-6.9,0-109.1,0-109.1,0v39.7h105.2c58.5,0,76.4-52.6,76.4-67.5V8.9h-164.7c0,39.7-32.7,49.6-32.7,49.6v38.7
			C2092.1,97.2,2103,48.6,2103,48.6z M1644.7,8.9h-169.6v34.7h169.6V8.9z M1625.9,107.1c0,6.9-6.9,15.9-21.8,15.9h-126v39.7h128
			c39.7,0,49.6-28.8,49.6-49.6V59.5h-191.5v36.7h162.7L1625.9,107.1z M614,8.9H444.4v34.7H614V8.9z M542.6,107.1
			c0,6.9-6.9,15.9-21.8,15.9h-87.3v39.7h89.3c39.7,0,49.6-28.8,49.6-49.6V96.2H625V59.5H433.5v36.7h109.1V107.1z M2461.1,21.8
			L2270.7,0v35.7l190.5,21.8L2461.1,21.8L2461.1,21.8z M2461.1,75.4l-190.5-21.8v34.7l190.5,21.8V75.4z M2461.1,127l-190.5-21.8
			v35.7l190.5,21.8V127z"/>
	</g>
</g>
</svg>
