<?xml version="1.0" encoding="utf-8"?>
<!-- Generator: Adobe Illustrator 26.0.3, SVG Export Plug-In . SVG Version: 6.00 Build 0)  -->
<svg version="1.1" id="Layer_1" xmlns="http://www.w3.org/2000/svg" xmlns:xlink="http://www.w3.org/1999/xlink" x="0px" y="0px"
	 viewBox="0 0 3839 1860.6" style="enable-background:new 0 0 3839 1860.6;" xml:space="preserve">
<style type="text/css">
	.st0{fill:#FFFFFF;}
	.st1{fill:#E50300;}
</style>
<g>
	<g>
		<rect y="948.6" width="3839" height="912"/>
		<g>
			<rect x="3514" y="1308.6" class="st0" width="145.4" height="308.1"/>
			<rect x="3514" y="1159.3" class="st0" width="145.4" height="104.2"/>
			<path class="st0" d="M1098.1,1386.6c-25.9-25.5-98.6-42.7-180.8-42.7c-93,0-191.9,23.2-191.9,66.1c0,42.9,98.9,66.1,191.9,66.1
				s191.9-23.2,191.9-66C1109.2,1401.7,1105.5,1393.9,1098.1,1386.6z M917.2,1372.9c84.4,0,136.2,21.6,136.2,37
				c0,15.1-53.1,37-136.2,37c-83.2,0-136.2-21.9-136.2-37C781,1394.5,832.8,1372.9,917.2,1372.9z"/>
			<path class="st0" d="M915.9,1649.9c-198.5,0-385.2-24.6-525.9-69.3c-143.4-45.6-222.4-107.3-222.4-173.7s79-128.2,222.4-173.7
				c140.6-44.7,327.4-69.3,525.9-69.3c344.1,0,642.3,74.9,725.2,182.1l9.9,12.8h-185.8l-2.4-2.3c-76.6-73.7-296.3-123.3-546.9-123.3
				c-310.6,0-573,79.6-573,173.8s262.4,173.8,573,173.8c250.5,0,470.3-49.5,546.9-123.3l2.4-2.3l185.8-0.4l-9.9,12.9
				C1558.4,1575,1260.2,1649.9,915.9,1649.9z"/>
			<rect x="1699.7" y="1171.8" class="st0" width="145.4" height="456.4"/>
			<polygon class="st1" points="3024.5,1320.9 3024.5,1463.1 3419.7,1392 			"/>
			<path class="st0" d="M2926.6,1400c0-144-354.6-228.1-756-228.1h-369.9v67.9h369.9c315.1,0,570.5,65.5,570.5,160.2v0.2
				c0,94.7-255.4,160.2-570.5,160.2h-369.9v67.9h369.9c401.3,0,756-84.2,756-228.1V1400z"/>
		</g>
	</g>
	<g>
		<path d="M2890.5,0c-82,0-248.2,0.9-248.5,0v722.7h202.1l1.2-180.6h90.3c192.7,0,293.6-93,293.6-270.9C3229,75.3,3102.7,0,2890.5,0
			z M2890.5,406.4h-45.2V135.5c12.1-0.6,34.5,0,45.2,0c102.1,0,139,52.2,139,139.9C3029.2,365.9,2998,406.4,2890.5,406.4z"/>
		<polygon points="1083.9,722.7 1083.9,429.1 880.6,429.1 880.6,722.7 677.6,722.7 677.6,0 880.6,0 880.6,293.6 1083.9,293.6 
			1083.9,0 1287.2,0 1287.2,722.7 		"/>
		<polygon points="1445.1,722.7 1445.1,0 1625.7,0 1648.4,0 1648.4,722.7 		"/>
		<polygon points="2188.8,722.7 1806.6,722.7 1806.6,0 2009.7,0 2009.7,587.3 2213,587.3 		"/>
		<rect x="2280.9" width="203.3" height="722.7"/>
		<path d="M3500.2,180.6v22.7c0,111,338.8,59.9,338.8,293.6c0,175.3-120.7,225.8-293.6,225.8c-67.9,0-177.7-12.7-248.5-22.4V542.1
			c62.3,32.2,180.3,45.2,248.5,45.2c76.4,0,90.3-23.9,90.3-67.9c0-124.5-338.8-70.8-338.8-316.1C3296.9,61.1,3436.2,0,3603.2,0
			c118.3,0,136.6,10.9,190.6,22.7v135.5c-48.1-20.4-115.4-22.4-180.6-22.4C3553.6,135.5,3500.2,142.5,3500.2,180.6z"/>
		<path d="M248.5,0C166.1,0,0,0.9,0,0v722.7h202.1l1.2-180.6h90.3c192.7,0,293.6-93,293.6-270.9C587,75.3,460.7,0,248.5,0z
			 M248.5,406.4h-45.2V135.5c12.1-0.6,34.5,0,45.2,0c102.1,0,139,52.2,139,139.9C387.2,365.9,355.9,406.4,248.5,406.4z"/>
	</g>
</g>
</svg>
