<?xml version="1.0" encoding="utf-8"?>
<!-- Generator: Adobe Illustrator 26.0.3, SVG Export Plug-In . SVG Version: 6.00 Build 0)  -->
<svg version="1.1" id="Layer_1" xmlns="http://www.w3.org/2000/svg" xmlns:xlink="http://www.w3.org/1999/xlink" x="0px" y="0px"
	 viewBox="0 0 3839 666.9" style="enable-background:new 0 0 3839 666.9;" xml:space="preserve">
<style type="text/css">
	.st0{clip-path:url(#SVGID_00000028314129388017887870000017320361744615739830_);fill:#F02622;}
	.st1{clip-path:url(#SVGID_00000028314129388017887870000017320361744615739830_);fill:#DA221F;}
	.st2{fill:#FFFFFF;}
	.st3{fill:#034693;}
	.st4{clip-path:url(#SVGID_00000052792033719244642460000017244878068100374919_);fill:#FF0025;}
	.st5{clip-path:url(#SVGID_00000052792033719244642460000017244878068100374919_);fill:#E8001C;}
	.st6{clip-path:url(#SVGID_00000052792033719244642460000017244878068100374919_);fill:#DA221F;}
	.st7{clip-path:url(#SVGID_00000052792033719244642460000017244878068100374919_);fill:#F02622;}
	.st8{clip-path:url(#SVGID_00000140009077020081268140000004620897880961292170_);fill:#F02622;}
	.st9{clip-path:url(#SVGID_00000140009077020081268140000004620897880961292170_);fill:#DA221F;}
	.st10{fill:#B2B2B2;}
	.st11{clip-path:url(#SVGID_00000177477038565968890760000008627749330642770318_);fill:#FF0025;}
	.st12{clip-path:url(#SVGID_00000177477038565968890760000008627749330642770318_);fill:#E8001C;}
	.st13{clip-path:url(#SVGID_00000177477038565968890760000008627749330642770318_);fill:#DA221F;}
	.st14{clip-path:url(#SVGID_00000177477038565968890760000008627749330642770318_);fill:#F02622;}
	.st15{clip-path:url(#SVGID_00000122001588754031773080000017031994450589665155_);fill:#FAD512;}
	.st16{clip-path:url(#SVGID_00000122001588754031773080000017031994450589665155_);fill:#FEBB09;}
	.st17{fill:#DA221F;}
	.st18{clip-path:url(#SVGID_00000023969983735107234720000014378328808472767400_);fill:#FAD512;}
	.st19{clip-path:url(#SVGID_00000023969983735107234720000014378328808472767400_);fill:#E8001C;}
	.st20{clip-path:url(#SVGID_00000023969983735107234720000014378328808472767400_);fill:#FEBB09;}
	.st21{clip-path:url(#SVGID_00000178171859268478807910000017491610732263719583_);fill:#FAD512;}
	.st22{clip-path:url(#SVGID_00000178171859268478807910000017491610732263719583_);fill:#FEBB09;}
	.st23{clip-path:url(#SVGID_00000171699869773275005060000010315776149365686204_);fill:#FF0025;}
	.st24{clip-path:url(#SVGID_00000171699869773275005060000010315776149365686204_);fill:#E8001C;}
	.st25{clip-path:url(#SVGID_00000171699869773275005060000010315776149365686204_);fill:#008ED6;}
	.st26{clip-path:url(#SVGID_00000171699869773275005060000010315776149365686204_);fill:#00A1F2;}
	.st27{clip-path:url(#SVGID_00000007412043834328147810000011112521743377629579_);fill:#FF0025;}
	.st28{clip-path:url(#SVGID_00000007412043834328147810000011112521743377629579_);fill:#E8001C;}
	.st29{clip-path:url(#SVGID_00000007412043834328147810000011112521743377629579_);fill:#008ED6;}
	.st30{clip-path:url(#SVGID_00000007412043834328147810000011112521743377629579_);fill:#00A1F2;}
	.st31{display:none;}
	.st32{display:inline;}
	.st33{clip-path:url(#SVGID_00000084489694322992836610000014141617453004888485_);fill:#F02622;}
	.st34{clip-path:url(#SVGID_00000084489694322992836610000014141617453004888485_);fill:#DA221F;}
	.st35{clip-path:url(#SVGID_00000132064211349106561390000008766253445266819249_);fill:#FF0025;}
	.st36{clip-path:url(#SVGID_00000132064211349106561390000008766253445266819249_);fill:#E8001C;}
	.st37{clip-path:url(#SVGID_00000132064211349106561390000008766253445266819249_);fill:#DA221F;}
	.st38{clip-path:url(#SVGID_00000132064211349106561390000008766253445266819249_);fill:#F02622;}
	.st39{clip-path:url(#SVGID_00000103258279558977384170000015320112554344910211_);fill:#F02622;}
	.st40{clip-path:url(#SVGID_00000103258279558977384170000015320112554344910211_);fill:#DA221F;}
	.st41{clip-path:url(#SVGID_00000025434886390466701060000005534186982698823358_);fill:#FF0025;}
	.st42{clip-path:url(#SVGID_00000025434886390466701060000005534186982698823358_);fill:#E8001C;}
	.st43{clip-path:url(#SVGID_00000025434886390466701060000005534186982698823358_);fill:#DA221F;}
	.st44{clip-path:url(#SVGID_00000025434886390466701060000005534186982698823358_);fill:#F02622;}
	.st45{clip-path:url(#SVGID_00000080173887835338108960000007685096121224181910_);fill:#FAD512;}
	.st46{clip-path:url(#SVGID_00000080173887835338108960000007685096121224181910_);fill:#FEBB09;}
	.st47{clip-path:url(#SVGID_00000147200209623419118040000004807052891422140044_);fill:#FAD512;}
	.st48{clip-path:url(#SVGID_00000147200209623419118040000004807052891422140044_);fill:#E8001C;}
	.st49{clip-path:url(#SVGID_00000147200209623419118040000004807052891422140044_);fill:#FEBB09;}
	.st50{clip-path:url(#SVGID_00000164511742419712978450000006146359131080970154_);fill:#FF0025;}
	.st51{clip-path:url(#SVGID_00000164511742419712978450000006146359131080970154_);fill:#E8001C;}
	.st52{clip-path:url(#SVGID_00000164511742419712978450000006146359131080970154_);fill:#FF981D;}
	.st53{clip-path:url(#SVGID_00000164511742419712978450000006146359131080970154_);fill:#FFAF22;}
	.st54{clip-path:url(#SVGID_00000164511742419712978450000006146359131080970154_);fill:#FAD512;}
	.st55{clip-path:url(#SVGID_00000164511742419712978450000006146359131080970154_);fill:#FEBB09;}
	.st56{clip-path:url(#SVGID_00000004534194000610603760000013752913196748631475_);fill:#FF0025;}
	.st57{clip-path:url(#SVGID_00000004534194000610603760000013752913196748631475_);fill:#E8001C;}
	.st58{clip-path:url(#SVGID_00000004534194000610603760000013752913196748631475_);fill:#008ED6;}
	.st59{clip-path:url(#SVGID_00000004534194000610603760000013752913196748631475_);fill:#00A1F2;}
	.st60{clip-path:url(#SVGID_00000121272381493863033210000007533530229605738112_);fill:#FF0025;}
	.st61{clip-path:url(#SVGID_00000121272381493863033210000007533530229605738112_);fill:#E8001C;}
	.st62{clip-path:url(#SVGID_00000121272381493863033210000007533530229605738112_);fill:#008ED6;}
	.st63{clip-path:url(#SVGID_00000121272381493863033210000007533530229605738112_);fill:#00A1F2;}
</style>
<g>
	<g>
		<defs>
			<rect id="SVGID_00000046329722438236230340000000673142811290030266_" width="3839" height="666.9"/>
		</defs>
		<clipPath id="SVGID_00000157286067418000681610000013741704696990175421_">
			<use xlink:href="#SVGID_00000046329722438236230340000000673142811290030266_"  style="overflow:visible;"/>
		</clipPath>
		<polygon style="clip-path:url(#SVGID_00000157286067418000681610000013741704696990175421_);fill:#DA221F;" points="
			-367.1,-595.6 -934.2,-595.6 -19,711.4 548.1,711.4 		"/>
		<polygon style="clip-path:url(#SVGID_00000157286067418000681610000013741704696990175421_);fill:#F02622;" points="200,-595.6 
			-367.1,-595.6 548.1,711.4 1115.2,711.4 		"/>
		<polygon style="clip-path:url(#SVGID_00000157286067418000681610000013741704696990175421_);fill:#DA221F;" points="767.1,-595.6 
			200,-595.6 1115.2,711.4 1682.3,711.4 		"/>
		<polygon style="clip-path:url(#SVGID_00000157286067418000681610000013741704696990175421_);fill:#F02622;" points="
			1334.3,-595.6 767.1,-595.6 1682.3,711.4 2249.4,711.4 		"/>
		<polygon style="clip-path:url(#SVGID_00000157286067418000681610000013741704696990175421_);fill:#DA221F;" points="
			1901.4,-595.6 1334.3,-595.6 2249.4,711.4 2816.5,711.4 		"/>
		<polygon style="clip-path:url(#SVGID_00000157286067418000681610000013741704696990175421_);fill:#F02622;" points="
			2468.5,-595.6 1901.4,-595.6 2816.5,711.4 3383.6,711.4 		"/>
		<polygon style="clip-path:url(#SVGID_00000157286067418000681610000013741704696990175421_);fill:#DA221F;" points="
			3035.6,-595.6 2468.5,-595.6 3383.6,711.4 3950.7,711.4 		"/>
		<polygon style="clip-path:url(#SVGID_00000157286067418000681610000013741704696990175421_);fill:#F02622;" points="
			3602.7,-595.6 3035.6,-595.6 3950.7,711.4 4517.8,711.4 		"/>
	</g>
	<g>
		<path class="st2" d="M3723.6,558.5c18.9-5.9,32.3-23.7,32.3-44.2c0-20.5-13.5-38.3-32.3-44.2l-46.4-15.6h76v-81.9
			c0-14.6-5.9-28-15.6-38.3h15.6v-84.1c0-15.6-6.5-29.6-17.2-39.9h17.2v-79.8c0-34-28-62-62-62c-16.2,0-31.3,6.5-42,16.7V68.6H3577
			v79.8c0,22.6,11.9,42,30.2,53.4c-17.8,9.2-30.2,27.5-30.2,49v84.6h15.6c-9.7,9.7-15.6,23.2-15.6,38.3v233.9L3723.6,558.5z"/>
		<g>
			<g>
				<path class="st3" d="M3636.3,148.4V81h-21v67.4c0,12.9,10.8,23.7,23.7,23.7c12.9,0,23.7-10.8,23.7-23.7v-17.3
					c0-15.6,12.9-28.6,28.6-28.6s28.6,12.9,28.6,28.6v66.8h21v-67.4c0-27.5-22.1-49.6-49.6-49.6c-27.5,0-49.6,22.1-49.6,49.6v17.2
					c0,1.6-1.1,2.7-2.7,2.7S3636.3,149.4,3636.3,148.4z"/>
				<path class="st3" d="M3693.4,130.6V198h21.6v-67.4c0-12.9-10.8-23.7-23.7-23.7c-12.9,0-23.7,10.8-23.7,23.7v17.2
					c0,15.6-12.9,28.6-28.6,28.6s-28.6-12.9-28.6-28.6V81h-21v67.4c0,27.5,22.1,49.6,49.6,49.6c27.5,0,49.6-22.1,49.6-49.6v-17.3
					c0-1.6,1.1-2.7,2.7-2.7C3692.3,128.4,3693.4,129.5,3693.4,130.6z"/>
			</g>
			<g>
				<path class="st3" d="M3715,372.6c0-9.2-7-16.2-16.2-16.2h-67.4c-9.2,0-16.2,7-16.2,16.2v43.7h47.4v-33.4h-21v12.4h-4.9v-12.4
					c0-2.7,2.2-4.9,4.9-4.9h47.4c2.7,0,4.9,2.2,4.9,4.9v59.8h21V372.6z"/>
				<path class="st3" d="M3615.2,505.2v49l99.2-33.4c2.7-1.1,4.9-3.2,4.9-6.5c0-2.7-2.2-5.4-4.3-6.5l-125.6-43.1v24.8l44.7,15.1
					h-18.9V505.2L3615.2,505.2z M3660.5,513.8l-21.6,7v-14.6L3660.5,513.8z"/>
				<path class="st3" d="M3718.7,546.7c14-4.3,24.8-17.2,24.8-32.9s-10.2-28.6-24.3-32.3l-115.3-39.3h84.6v-59.3h-21v38.8h-57.1
					v-48.5c0-11.9,9.7-21,21-21h67.4c11.9,0,21,9.7,21,21v69.5h21v-70.1c0-23.2-18.9-42-42-42h-67.4c-23.2,0-42,18.9-42,42v86.8
					l126.7,43.7c4.9,1.6,8.1,5.9,8.1,11.3c0,5.4-3.2,9.7-8.1,11.3l-105.6,35.6v-56.1h-21v85.2l0,0L3718.7,546.7z"/>
			</g>
			<g>
				<path class="st3" d="M3610.4,250.2c0-11.9,9.7-21,21-21h67.4c11.9,0,21,9.7,21,21v72.2h21v-72.2c0-23.2-18.9-42-42-42h-67.4
					c-23.2,0-42,18.9-42,42v72.2h21L3610.4,250.2L3610.4,250.2z"/>
				<path class="st3" d="M3641.1,255.1v52.3h21v-73.3h-31.3c-9.2,0-16.2,7-16.2,16.2v72.2h21v-62.5
					C3636.3,257.2,3638.4,255.1,3641.1,255.1z"/>
				<path class="st3" d="M3688.5,307.4v-52.3c2.7,0,4.9,2.2,4.9,4.9v62h21.6v-71.7c0-9.2-7-16.2-16.2-16.2h-31.3v73.3
					C3667.5,307.4,3688.5,307.4,3688.5,307.4z"/>
			</g>
		</g>
	</g>
	<g>
		<g>
			<g>
				<path d="M663.4,350.9v6.8c-6.3,1-12,4.9-12,15.6v95.8c0,7.8,3.2,10.7,11.4,12.2v6.8c-39.8,17.5-137.2,54.5-246.6,54.5
					c-145.4,0-273.2-55.5-273.2-181.9c0-126.5,149.2-181.9,280.8-181.9c51.9,0,101.2,9.2,137.2,18c33.5,11.2,58.2,19.9,62.6,19.9
					c5.7,0,11.4-2.4,13.9-5.4l8.9,2.9L585,294l-8.9-4.4c0.6-1.9,1.3-4.9,1.3-8.3c0-15.1-68.3-45.2-152.4-45.2
					c-106.2,0-192.2,40.4-192.2,122.6c0,86.1,86,126.5,183.4,126.5c79.7,0,126.5-20.9,145.4-31.6v-40.4H452.8
					c-12.6,0-20.2,4.9-20.2,11.7h-8.9v-85.6h8.9c0,6.8,7.6,11.7,20.2,11.7H663.4z"/>
				<path d="M710.2,530.9c13.9,0,16.4-3.9,16.4-14.6V205c0-10.7-2.5-14.6-16.4-14.6v-6.8h410.4c15.2,0,21.5-3.9,21.5-10.7h8.9v80.7
					h-8.9c0-8.8-6.3-12.7-21.5-12.7H816.4v86.6H1015c15.2,0,21.5-3.9,21.5-12.6h8.9v81.7h-8.9c0-3.9-1.3-6.8-5.1-8.8
					c-3.2-2-8.9-2.9-16.4-2.9H816.4v95.3h309.9c15.2,0,21.5-3.9,21.5-11.7h8.9v79.8h-8.9c0-6.8-6.3-10.7-21.5-10.7H710.2V530.9z"/>
				<path d="M1675.2,516.3c0,10.7,4.4,14.6,17.1,14.6v6.8h-117v-6.8c6.3,0,12.7-1,12.7-3.9c0-4.4-3.8-6.3-12-13.1l-284.6-234.9
					v237.4c0,10.7,3.2,14.6,17.1,14.6v6.8h-111.9v-6.8c13.9,0,15.2-3.9,15.2-14.6V205c0-10.7-1.3-14.6-15.2-14.6v-6.8h134.7v6.8
					c-12,0-17.1,1.9-17.1,6.3c0,1.5,2.5,3.9,7,7.3l274.4,224.2V205c0-10.7-1.3-14.6-16.4-14.6v-6.8h113.2v6.8
					c-12.6,0-17.1,3.9-17.1,14.6V516.3z"/>
				<path d="M1747.9,530.9c13.9,0,16.4-3.9,16.4-14.6V205c0-10.7-2.5-14.6-16.4-14.6v-6.8h410.4c15.2,0,21.5-3.9,21.5-10.7h8.9v80.7
					h-8.9c0-8.8-6.3-12.7-21.5-12.7h-304.2v86.6h198.6c15.2,0,21.5-3.9,21.5-12.6h8.9v81.7h-8.9c0-3.9-1.3-6.8-5.1-8.8
					c-3.2-2-8.9-2.9-16.4-2.9h-198.6v95.3H2164c15.2,0,21.5-3.9,21.5-11.7h8.9v79.8h-8.9c0-6.8-6.3-10.7-21.5-10.7h-416.1V530.9z"/>
				<path d="M2635.7,287.7l-10.1-4.4c0.6-2,1.3-4.4,1.3-6.8c0-6.3-59.4-40.4-162.5-40.4c-98.6,0-141,23.4-141,53.5
					c0,79.8,372.5-37,372.5,139.1c0,64.2-80.9,113.8-242.8,113.8c-154.3,0-198.6-37.9-213.1-37.9c-3.8,0-5.7,2.4-8.9,3.9l-8.2-1.5
					l52.5-82.7l10.1,3.9c0,1.9-1.3,3.9-1.3,7.8c0,28.7,81.6,49.1,162.5,49.1c115.1,0,154.3-25.3,154.3-52.1
					c0-95.3-367.4,22.9-367.4-138.6c0-81.7,111.9-115.8,234.6-115.8c110,0,187.2,37,194.8,37c8.2,0,9.5-2,11.4-3.4l10.1,2.4
					L2635.7,287.7z"/>
				<path d="M2834.9,516.3c0,10.7,3.2,14.6,23.4,14.6v6.8h-136v-6.8c20.2,0,22.8-3.9,22.8-14.6V205c0-10.7-2.5-14.6-22.8-14.6v-6.8
					h136v6.8c-20.2,0-23.4,3.9-23.4,14.6V516.3z"/>
				<path d="M3297.2,287.7l-10.1-4.4c0.6-2,1.3-4.4,1.3-6.8c0-6.3-59.4-40.4-162.5-40.4c-98.6,0-141,23.4-141,53.5
					c0,79.8,372.5-37,372.5,139.1c0,64.2-80.9,113.8-242.8,113.8c-154.3,0-198.6-37.9-213.1-37.9c-3.8,0-5.7,2.4-8.9,3.9l-8.2-1.5
					l52.5-82.7l10.1,3.9c0,1.9-1.3,3.9-1.3,7.8c0,28.7,81.6,49.1,162.5,49.1c115.1,0,154.3-25.3,154.3-52.1
					c0-95.3-367.4,22.9-367.4-138.6c0-81.7,111.9-115.8,234.6-115.8c110,0,187.2,37,194.8,37c8.2,0,9.5-2,11.4-3.4l10.1,2.4
					L3297.2,287.7z"/>
			</g>
		</g>
		<g>
			<path class="st10" d="M645.1,332.6v6.8c-6.3,1-12,4.9-12,15.6v95.8c0,7.8,3.2,10.7,11.4,12.2v6.8
				c-39.8,17.5-137.2,54.5-246.6,54.5c-145.4,0-273.2-55.5-273.2-181.9c0-126.5,149.2-181.9,280.8-181.9c51.9,0,101.2,9.2,137.2,18
				c33.5,11.2,58.2,19.9,62.6,19.9c5.7,0,11.4-2.4,13.9-5.4l8.9,2.9l-61.3,79.8l-8.9-4.4c0.6-1.9,1.3-4.9,1.3-8.3
				c0-15.1-68.3-45.2-152.4-45.2c-106.2,0-192.2,40.4-192.2,122.6c0,86.1,86,126.5,183.4,126.5c79.7,0,126.5-20.9,145.4-31.6v-40.4
				H434.5c-12.6,0-20.2,4.9-20.2,11.7h-8.9v-85.6h8.9c0,6.8,7.6,11.7,20.2,11.7H645.1z"/>
			<path class="st10" d="M691.9,512.6c13.9,0,16.4-3.9,16.4-14.6V186.7c0-10.7-2.5-14.6-16.4-14.6v-6.8h410.4
				c15.2,0,21.5-3.9,21.5-10.7h8.9v80.7h-8.9c0-8.8-6.3-12.7-21.5-12.7H798.1v86.6h198.6c15.2,0,21.5-3.9,21.5-12.6h8.9v81.7h-8.9
				c0-3.9-1.3-6.8-5.1-8.8c-3.2-2-8.9-2.9-16.4-2.9H798.1V462h309.9c15.2,0,21.5-3.9,21.5-11.7h8.9v79.8h-8.9
				c0-6.8-6.3-10.7-21.5-10.7H691.9V512.6z"/>
			<path class="st10" d="M1656.8,498c0,10.7,4.4,14.6,17.1,14.6v6.8h-117v-6.8c6.3,0,12.7-1,12.7-3.9c0-4.4-3.8-6.3-12-13.1
				L1273,260.6V498c0,10.7,3.2,14.6,17.1,14.6v6.8h-111.9v-6.8c13.9,0,15.2-3.9,15.2-14.6V186.7c0-10.7-1.3-14.6-15.2-14.6v-6.8
				h134.7v6.8c-12,0-17.1,1.9-17.1,6.3c0,1.5,2.5,3.9,7,7.3l274.4,224.2V186.7c0-10.7-1.3-14.6-16.4-14.6v-6.8h113.2v6.8
				c-12.6,0-17.1,3.9-17.1,14.6V498z"/>
			<path class="st10" d="M1729.6,512.6c13.9,0,16.4-3.9,16.4-14.6V186.7c0-10.7-2.5-14.6-16.4-14.6v-6.8H2140
				c15.2,0,21.5-3.9,21.5-10.7h8.9v80.7h-8.9c0-8.8-6.3-12.7-21.5-12.7h-304.2v86.6h198.6c15.2,0,21.5-3.9,21.5-12.6h8.9v81.7h-8.9
				c0-3.9-1.3-6.8-5.1-8.8c-3.2-2-8.9-2.9-16.4-2.9h-198.6V462h309.9c15.2,0,21.5-3.9,21.5-11.7h8.9v79.8h-8.9
				c0-6.8-6.3-10.7-21.5-10.7h-416.1V512.6z"/>
			<path class="st10" d="M2617.4,269.3l-10.1-4.4c0.6-2,1.3-4.4,1.3-6.8c0-6.3-59.4-40.4-162.5-40.4c-98.6,0-141,23.4-141,53.5
				c0,79.8,372.5-37,372.5,139.1c0,64.2-80.9,113.8-242.8,113.8c-154.3,0-198.6-37.9-213.1-37.9c-3.8,0-5.7,2.4-8.9,3.9l-8.2-1.5
				L2257,406l10.1,3.9c0,1.9-1.3,3.9-1.3,7.8c0,28.7,81.6,49.1,162.5,49.1c115.1,0,154.3-25.3,154.3-52.1
				c0-95.3-367.4,22.9-367.4-138.6c0-81.7,111.9-115.8,234.6-115.8c110,0,187.2,37,194.8,37c8.2,0,9.5-2,11.4-3.4l10.1,2.4
				L2617.4,269.3z"/>
			<path class="st10" d="M2816.6,498c0,10.7,3.2,14.6,23.4,14.6v6.8h-136v-6.8c20.2,0,22.8-3.9,22.8-14.6V186.7
				c0-10.7-2.5-14.6-22.8-14.6v-6.8h136v6.8c-20.2,0-23.4,3.9-23.4,14.6V498z"/>
			<path class="st10" d="M3278.9,269.3l-10.1-4.4c0.6-2,1.3-4.4,1.3-6.8c0-6.3-59.4-40.4-162.5-40.4c-98.6,0-141,23.4-141,53.5
				c0,79.8,372.5-37,372.5,139.1c0,64.2-80.9,113.8-242.8,113.8c-154.3,0-198.6-37.9-213.1-37.9c-3.8,0-5.7,2.4-8.9,3.9l-8.2-1.5
				l52.5-82.7l10.1,3.9c0,1.9-1.3,3.9-1.3,7.8c0,28.7,81.6,49.1,162.5,49.1c115.1,0,154.3-25.3,154.3-52.1
				c0-95.3-367.4,22.9-367.4-138.6c0-81.7,111.9-115.8,234.6-115.8c110,0,187.2,37,194.8,37c8.2,0,9.5-2,11.4-3.4l10.1,2.4
				L3278.9,269.3z"/>
		</g>
	</g>
</g>
</svg>
