<?xml version="1.0" encoding="utf-8"?>
<!-- Generator: Adobe Illustrator 25.0.0, SVG Export Plug-In . SVG Version: 6.00 Build 0)  -->
<svg version="1.1" id="Layer_1" xmlns="http://www.w3.org/2000/svg" xmlns:xlink="http://www.w3.org/1999/xlink" x="0px" y="0px"
	 viewBox="0 0 3839 603" style="enable-background:new 0 0 3839 603;" xml:space="preserve">
<style type="text/css">
	.st0{fill:url(#SVGID_1_);}
	.st1{fill:#FFFFFF;}
	.st2{fill:#B2AE85;}
	.st3{fill:url(#SVGID_2_);}
	.st4{fill:url(#SVGID_3_);}
	.st5{fill:url(#SVGID_4_);}
	.st6{fill:url(#SVGID_5_);}
	.st7{fill:url(#SVGID_6_);}
	.st8{fill:url(#SVGID_7_);}
	.st9{fill:url(#SVGID_8_);}
	.st10{fill:url(#SVGID_9_);}
	.st11{fill:url(#SVGID_10_);}
	.st12{fill:url(#SVGID_11_);}
	.st13{fill:url(#SVGID_12_);}
	.st14{fill:url(#SVGID_13_);}
	.st15{fill:url(#SVGID_14_);}
	.st16{fill:url(#SVGID_15_);}
	.st17{fill:url(#SVGID_16_);}
	.st18{fill:url(#SVGID_17_);}
</style>
<g>
	<rect x="1618" y="-1618" transform="matrix(6.123234e-17 -1 1 6.123234e-17 1617.9994 2221.0007)" width="603" height="3839"/>
	<g>
		<g>
			<g>
				<linearGradient id="SVGID_1_" gradientUnits="userSpaceOnUse" x1="27.1041" y1="301.5007" x2="3811.8953" y2="301.5007">
					<stop  offset="0" style="stop-color:#969696"/>
					<stop  offset="1" style="stop-color:#FFFFFF"/>
				</linearGradient>
				<path class="st0" d="M27.1,27.1v548.8h3784.8V27.1H27.1z M3762.2,526.2H76.8V76.8h3685.3V526.2z M173.3,372.6l-55.5,92.3
					l8.7,1.6c3.3-1.6,5.3-4.3,9.4-4.3c15.4,0,62.2,42.3,225.2,42.3c171.1,0,256.6-55.4,256.6-127c0-196.4-393.6-66.2-393.6-155.2
					c0-33.6,44.8-59.7,149-59.7c108.9,0,171.7,38,171.7,45c0,2.7-0.7,5.4-1.3,7.6l10.7,4.9l51.5-81.4L595,136c-2,1.6-3.3,3.8-12,3.8
					c-8,0-89.6-41.2-205.8-41.2c-129.6,0-247.9,38-247.9,129.2c0,180.2,388.3,48.3,388.3,154.7c0,29.8-41.4,58.1-163.1,58.1
					c-85.5,0-171.8-22.8-171.8-54.8c0-4.3,1.3-6.5,1.3-8.7L173.3,372.6z M3735,104H2434.7V499H3735V104z M1872.8,491.4
					c-6-0.5-10-3.3-10-8.1c0-7.1,10-17.9,48.8-88.5h229.2c44.8,77.6,50.8,85.2,50.8,91.2c0,2.7-3.3,5.4-12,5.4v7.6h133v-7.6
					c-14,0-16.7-3.8-26.1-20.6l-193.8-337c-3.3-5.4-6-9.8-6-14.1c0-3.8,4-7.1,14-8.1V104H1955v7.6c8.7,1.1,14,3.8,14,9.8
					c0,4.9-4,10.9-7.4,16.3l-182.4,333.2c-9.4,17.4-13.4,20.1-25.4,20.6v7.6h119V491.4z M2021.9,190.8l80.2,142.2H1943L2021.9,190.8
					z M1459.1,504.5c115.6,0,218.5-41.2,260.6-60.8v-7.6c-8.7-1.6-12-4.9-12-13.6V315.6c0-11.9,6-16.3,12.7-17.4v-7.6h-222.5
					c-13.4,0-21.4-5.4-21.4-13h-9.4v95.5h9.4c0-7.6,8-13,21.4-13h114.9v45c-20,11.9-69.5,35.3-153.7,35.3
					c-102.9,0-193.8-45-193.8-141.1c0-91.7,90.9-136.8,203.2-136.8c88.9,0,161.1,33.6,161.1,50.5c0,3.8-0.7,7.1-1.3,9.2l9.4,4.9
					l64.8-89l-9.4-3.3c-2.7,3.3-8.7,6-14.7,6c-4.7,0-30.7-9.8-66.2-22.3c-38.1-9.8-90.2-20.1-145-20.1c-139,0-296.7,61.9-296.7,203
					C1170.4,442.6,1305.4,504.5,1459.1,504.5z M1131.6,511h9.4v-89h-9.4c0,8.7-6.7,13-22.7,13H781.5V328.6h209.8
					c16,0,22.7,4.3,22.7,13h9.4v-91.2h-9.4c0,9.8-6.7,14.1-22.7,14.1H781.5V168h321.4c16,0,22.7,4.3,22.7,14.1h9.4V92h-9.4
					c0,7.6-6.7,11.9-22.7,11.9H669.2v7.6c14.7,0,17.4,4.3,17.4,16.3v347.3c0,11.9-2.7,16.3-17.4,16.3v7.6h439.7
					C1125,499,1131.6,503.4,1131.6,511z"/>
			</g>
		</g>
		<g>
			<g>
				<linearGradient id="SVGID_2_" gradientUnits="userSpaceOnUse" x1="1919.4995" y1="575.8967" x2="1919.4995" y2="27.1047">
					<stop  offset="0" style="stop-color:#969696"/>
					<stop  offset="1" style="stop-color:#FFFFFF"/>
				</linearGradient>
				<path class="st3" d="M3805,34v535H34V34H3805 M3811.9,27.1H27.1v548.8h3784.8V27.1L3811.9,27.1z"/>
			</g>
		</g>
		<g>
			<linearGradient id="SVGID_3_" gradientUnits="userSpaceOnUse" x1="367.7635" y1="504.4579" x2="367.7635" y2="98.5433">
				<stop  offset="0" style="stop-color:#969696"/>
				<stop  offset="1" style="stop-color:#FFFFFF"/>
			</linearGradient>
			<path class="st4" d="M377.1,105.4c90.9,0,159.8,25.4,189.3,36.2c10.4,3.8,13.8,5,16.6,5c4.8,0,8.1-0.6,10.5-1.5l-41.8,66.2
				l-0.1-0.1c0.2-1.3,0.3-2.5,0.3-3.7c0-3.5-1.8-8.1-14.9-15.9c-6.4-3.8-17.6-9.7-34.8-15.7c-26.1-9.2-69.7-20.3-129-20.3
				c-50.5,0-89.7,6-116.4,17.8C224,188,217.2,208,217.2,222.3c0,29.8,35.4,36.2,47,38.3c26,4.7,61.8,4.9,99.7,5.1
				c55.8,0.3,119,0.6,167.3,15.2c25.6,7.8,44.5,18.6,57.6,33.2c14.8,16.4,22,37.1,22,63.4c0,34-20.9,63.2-60.5,84.3
				c-44,23.4-109.4,35.8-189.2,35.8c-123.3,0-178.7-24.2-205.3-35.8c-9.3-4-14.8-6.5-19.9-6.5c-1.8,0-3.3,0.3-4.7,0.7l44.9-74.6
				c-0.2,1.2-0.3,2.7-0.3,4.3c0,18.6,20.3,34.5,58.7,46c33.1,10,76.9,15.7,119.9,15.7c57.2,0,100.9-6.2,129.8-18.4
				c33.2-14,40.1-33.1,40.1-46.6c0-36.5-39.5-45.1-52.4-48c-29.4-6.4-68.8-7.1-110.5-7.8c-54.6-0.9-111-1.9-154.6-15.1
				c-22.9-6.9-39.8-16.5-51.4-29.2c-13-14.2-19.3-32-19.3-54.6c0-20.3,6.4-38.6,19-54.3c12-14.9,29.6-27.8,52.3-38.2
				c21.6-9.9,47.7-17.4,77.4-22.5C313.2,107.9,344.2,105.4,377.1,105.4 M377.1,98.5c-129.6,0-247.9,38-247.9,129.2
				c0,180.2,388.3,48.3,388.3,154.7c0,29.8-41.4,58.1-163.1,58.1c-85.5,0-171.8-22.8-171.8-54.8c0-4.3,1.3-6.5,1.3-8.7l-10.7-4.3
				l-55.5,92.3l8.7,1.6c3.3-1.6,5.3-4.3,9.4-4.3c15.4,0,62.2,42.3,225.2,42.3c171.1,0,256.6-55.4,256.6-127
				c0-196.4-393.6-66.2-393.6-155.2c0-33.6,44.8-59.7,149-59.7c108.9,0,171.7,38,171.7,45c0,2.7-0.7,5.4-1.3,7.6l10.7,4.9l51.5-81.4
				L595,136c-2,1.6-3.3,3.8-12,3.8C574.9,139.8,493.4,98.5,377.1,98.5L377.1,98.5z"/>
		</g>
		<g>
			<linearGradient id="SVGID_4_" gradientUnits="userSpaceOnUse" x1="3084.8452" y1="499.0293" x2="3084.8452" y2="103.97">
				<stop  offset="0" style="stop-color:#969696"/>
				<stop  offset="1" style="stop-color:#FFFFFF"/>
			</linearGradient>
			<path class="st5" d="M3728.1,110.9v381.3H2441.6V110.9H3728.1 M3735,104H2434.7V499H3735V104L3735,104z"/>
		</g>
		<g>
			<linearGradient id="SVGID_5_" gradientUnits="userSpaceOnUse" x1="2033.2288" y1="499.0303" x2="2033.2288" y2="103.971">
				<stop  offset="0" style="stop-color:#969696"/>
				<stop  offset="1" style="stop-color:#FFFFFF"/>
			</linearGradient>
			<path class="st6" d="M2083.6,110.9c-3.1,3-3.8,6.4-3.8,8.8c0,6.3,3.2,11.5,7,17.6l193.7,336.9c4.5,8.2,8,14,12.2,17.9h-96.3
				c1.9-2.6,2.1-5.2,2.1-6.1c0-6-2.3-10-20.4-40.8c-7.4-12.6-17.5-29.9-31.3-53.8l-2-3.5h-4h-229.2h-4.1l-2,3.6
				c-17.8,32.5-29.4,51.9-37,64.8c-9.7,16.3-12.6,21.2-12.6,26.9c0,3,0.9,6.2,3,8.8h-86.2c4.3-3.8,8-9.5,12.6-18l182.4-333
				c0.3-0.4,0.5-0.9,0.8-1.3c3.5-5.6,7.5-12,7.5-18.4c0-3.4-1-7.3-4.3-10.5H2083.6 M1931.3,339.9h11.7h159.1h11.8l-5.8-10.3
				l-80.2-142.2l-6.1-10.7l-6,10.8L1937,329.6L1931.3,339.9 M2100.7,104H1955v7.6c8.7,1.1,14,3.8,14,9.8c0,4.9-4,10.9-7.4,16.3
				l-182.4,333.2c-9.4,17.4-13.4,20.1-25.4,20.6v7.6h119v-7.6c-6-0.5-10-3.3-10-8.1c0-7.1,10-17.9,48.8-88.5h229.2
				c44.8,77.6,50.8,85.2,50.8,91.2c0,2.7-3.3,5.4-12,5.4v7.6h133v-7.6c-14,0-16.7-3.8-26.1-20.6l-193.8-337c-3.3-5.4-6-9.8-6-14.1
				c0-3.8,4-7.1,14-8.1V104L2100.7,104z M1943,333l78.9-142.2l80.2,142.2H1943L1943,333z"/>
		</g>
		<g>
			<linearGradient id="SVGID_6_" gradientUnits="userSpaceOnUse" x1="1445.4406" y1="504.4579" x2="1445.4406" y2="98.5434">
				<stop  offset="0" style="stop-color:#969696"/>
				<stop  offset="1" style="stop-color:#FFFFFF"/>
			</linearGradient>
			<path class="st7" d="M1467.2,105.4c43.6,0,91.7,6.7,143,19.8c7.8,2.8,15.4,5.4,22,7.8c30.7,10.9,41.6,14.7,46.2,14.7
				c3.3,0,6.7-0.6,9.8-1.7l-51.9,71.2c0.1-1.3,0.2-2.7,0.2-4.2c0-17.5-36.2-32.4-51.8-38c-20-7.2-61.7-19.3-116.2-19.3
				c-59.3,0-110.3,12.1-147.3,35c-41.1,25.4-62.7,62.9-62.7,108.6c0,47.2,21.2,86.1,61.4,112.3c35.2,23,84.6,35.7,139.3,35.7
				c83.9,0,134.5-22.7,157.2-36.2l3.4-2v-3.9v-45v-6.9h-6.9h-114.9c-11.6,0-19.4,3.5-23.8,8.5V289c4.4,5,12.2,8.5,23.8,8.5h209.2
				c-4.1,4.2-6.3,10.4-6.3,18.1v106.9c0,10.2,4.3,15.2,9.6,17.8c-43,19.3-141.5,57.2-251.3,57.2c-38.7,0-75.2-3.9-108.4-11.7
				c-34.6-8.1-64.8-20.1-89.9-35.8c-26.4-16.5-46.9-37-60.9-60.8c-15-25.5-22.5-55-22.5-87.7c0-32.3,8.6-61.7,25.7-87.4
				c15.6-23.6,38.2-44.1,67.1-61c26.8-15.6,58.3-27.7,93.6-35.9C1396.5,109.5,1432.3,105.4,1467.2,105.4 M1467.2,98.5
				c-139,0-296.7,61.9-296.7,203c0,141.1,135,203,288.7,203c115.6,0,218.5-41.2,260.6-60.8v-7.6c-8.7-1.6-12-4.9-12-13.6V315.6
				c0-11.9,6-16.3,12.7-17.4v-7.6h-222.5c-13.4,0-21.4-5.4-21.4-13h-9.4v95.5h9.4c0-7.6,8-13,21.4-13h114.9v45
				c-20,11.9-69.5,35.3-153.7,35.3c-102.9,0-193.8-45-193.8-141.1c0-91.7,90.9-136.8,203.2-136.8c88.9,0,161.1,33.6,161.1,50.5
				c0,3.8-0.7,7.1-1.3,9.2l9.4,4.9l64.8-89l-9.4-3.3c-2.7,3.3-8.7,6-14.7,6c-4.7,0-30.7-9.8-66.2-22.3
				C1574.1,108.9,1522,98.5,1467.2,98.5L1467.2,98.5z"/>
		</g>
		<g>
			<linearGradient id="SVGID_7_" gradientUnits="userSpaceOnUse" x1="905.0964" y1="510.9679" x2="905.0964" y2="92.0302">
				<stop  offset="0" style="stop-color:#969696"/>
				<stop  offset="1" style="stop-color:#FFFFFF"/>
			</linearGradient>
			<path class="st8" d="M1128.1,103.6v65.5c-1.3-1.5-2.8-2.7-4.1-3.5c-4.8-3-11.5-4.4-21-4.4H781.5h-6.9v6.9v96.6v6.9h6.9h209.8
				c9.5,0,16.2-1.4,21-4.4c1.4-0.9,2.8-2,4.1-3.5v65.7c-4.7-5-13.1-7.5-25.2-7.5H781.5h-6.9v6.9V435v6.9h6.9h327.5
				c12.1,0,20.5-2.5,25.2-7.5v65.1c-4.1-4.2-11.7-7.3-25.2-7.3H688.7c3.3-3.7,4.8-9.3,4.8-17V127.8c0-7.7-1.5-13.3-4.8-17h414.2
				C1116.3,110.9,1124,107.8,1128.1,103.6 M1135,92h-9.4c0,7.6-6.7,11.9-22.7,11.9H669.2v7.6c14.7,0,17.4,4.3,17.4,16.3v347.3
				c0,11.9-2.7,16.3-17.4,16.3v7.6h439.7c16,0,22.7,4.3,22.7,11.9h9.4v-89h-9.4c0,8.7-6.7,13-22.7,13H781.5V328.6h209.8
				c16,0,22.7,4.3,22.7,13h9.4v-91.2h-9.4c0,9.8-6.7,14.1-22.7,14.1H781.5V168h321.4c16,0,22.7,4.3,22.7,14.1h9.4V92L1135,92z"/>
		</g>
		<path d="M3054.2,440c-188.3,18.3-337.4-17.9-346.8-84.1c-9.6-67.4,132.5-146.2,323.4-179.4c1.4-0.2,2.3-1.5,2-2.9
			c-0.2-1.4-1.5-2.3-2.9-2.1c-314.5,48.9-552.8,143.5-542.6,215.5c6.9,48.9,122.8,75.9,295.4,75.9c80.2,0,172.6-5.9,272-18.1
			c1.4-0.2,2.3-1.4,2.2-2.8C3056.8,440.9,3055.6,439.9,3054.2,440z"/>
		<path d="M3682.9,217.6c-10.5-73.7-261.2-98-583.2-56.5c-1.7,0.2-2.9,1.8-2.7,3.5c0.2,1.7,1.7,2.9,3.5,2.8
			c190.8-20.5,347.6,15.6,357,82.2c8.4,59.3-105.3,117.9-297,152.9c-11.9-12.1-28.1-88.6-38.5-151.8c-0.3-1.9-2-3.2-3.9-3
			c-1.9,0.2-3.3,1.7-3.3,3.6v182.7c0,0.9,0.4,1.8,1.1,2.4c0.6,0.5,1.3,0.8,2.1,0.8c0.2,0,0.3,0,0.5,0
			C3445.6,388.9,3693.6,292.5,3682.9,217.6z"/>
	</g>
</g>
</svg>
