<?xml version="1.0" encoding="utf-8"?>
<!-- Generator: Adobe Illustrator 25.0.0, SVG Export Plug-In . SVG Version: 6.00 Build 0)  -->
<svg version="1.1" id="Layer_1" xmlns="http://www.w3.org/2000/svg" xmlns:xlink="http://www.w3.org/1999/xlink" x="0px" y="0px"
	 viewBox="0 0 3839 556.7" style="enable-background:new 0 0 3839 556.7;" xml:space="preserve">
<style type="text/css">
	.st0{fill:url(#SVGID_1_);}
	.st1{fill:#FFFFFF;}
	.st2{fill:#B2AE85;}
	.st3{fill:url(#SVGID_2_);}
	.st4{fill:url(#SVGID_3_);}
	.st5{fill:url(#SVGID_4_);}
	.st6{fill:url(#SVGID_5_);}
	.st7{fill:url(#SVGID_6_);}
	.st8{fill:url(#SVGID_7_);}
	.st9{fill:url(#SVGID_8_);}
	.st10{fill:url(#SVGID_9_);}
	.st11{fill:url(#SVGID_10_);}
	.st12{fill:url(#SVGID_11_);}
	.st13{fill:url(#SVGID_12_);}
	.st14{fill:url(#SVGID_13_);}
	.st15{fill:url(#SVGID_14_);}
	.st16{fill:url(#SVGID_15_);}
	.st17{fill:url(#SVGID_16_);}
	.st18{fill:url(#SVGID_17_);}
</style>
<g>
	<rect x="18" y="27.3" width="3793" height="517.2"/>
	<g>
		<g>
			<linearGradient id="SVGID_1_" gradientUnits="userSpaceOnUse" x1="1.071959e-04" y1="278.3261" x2="3839" y2="278.3261">
				<stop  offset="0" style="stop-color:#969696"/>
				<stop  offset="1" style="stop-color:#FFFFFF"/>
			</linearGradient>
			<path class="st0" d="M148.3,350.4L92,444l8.8,1.7c3.4-1.7,5.4-4.4,9.5-4.4c15.6,0,63,42.9,228.4,42.9
				c173.5,0,260.3-56.1,260.3-128.8c0-199.3-399.3-67.2-399.3-157.4c0-34.1,45.4-60.5,151.2-60.5c110.5,0,174.2,38.5,174.2,45.7
				c0,2.8-0.7,5.5-1.4,7.7l10.8,5l52.2-82.6l-10.8-2.8c-2,1.7-3.4,3.9-12.2,3.9c-8.1,0-90.8-41.8-208.8-41.8
				c-131.5,0-251.5,38.5-251.5,131c0,182.7,393.8,49,393.8,156.9c0,30.3-42,58.9-165.4,58.9c-86.8,0-174.2-23.1-174.2-55.6
				c0-4.4,1.4-6.6,1.4-8.8L148.3,350.4z M1120.4,490.8h9.5v-90.3h-9.5c0,8.8-6.8,13.2-23,13.2H765.2V305.8H978
				c16.3,0,23,4.4,23,13.2h9.5v-92.5h-9.5c0,9.9-6.8,14.3-23,14.3H765.2v-98h326.1c16.3,0,23,4.4,23,14.3h9.5V65.9h-9.5
				c0,7.7-6.8,12.1-23,12.1H651.3v7.7c14.9,0,17.6,4.4,17.6,16.5v352.3c0,12.1-2.7,16.5-17.6,16.5v7.7h446
				C1113.6,478.7,1120.4,483.1,1120.4,490.8z M1452.5,484.2c117.3,0,221.7-41.8,264.4-61.7v-7.7c-8.8-1.7-12.2-5-12.2-13.8V292.6
				c0-12.1,6.1-16.5,12.9-17.6v-7.7h-225.7c-13.6,0-21.7-5.5-21.7-13.2h-9.5V351h9.5c0-7.7,8.1-13.2,21.7-13.2h116.6v45.7
				c-20.3,12.1-70.5,35.8-155.9,35.8c-104.4,0-196.6-45.7-196.6-143.1c0-93,92.2-138.7,206.1-138.7c90.2,0,163.4,34.1,163.4,51.2
				c0,3.9-0.7,7.2-1.4,9.4l9.5,5l65.8-90.3l-9.5-3.3c-2.7,3.3-8.8,6.1-14.9,6.1c-4.7,0-31.2-9.9-67.1-22.6
				c-38.6-9.9-91.5-20.4-147.1-20.4c-141,0-301,62.8-301,205.9C1159.7,421.4,1296.6,484.2,1452.5,484.2z M1872.2,471
				c-6.1-0.6-10.2-3.3-10.2-8.3c0-7.2,10.2-18.2,49.5-89.7H2144c45.4,78.7,51.5,86.4,51.5,92.5c0,2.8-3.4,5.5-12.2,5.5v7.7h134.9
				V471c-14.2,0-16.9-3.9-26.4-20.9l-196.6-341.8c-3.4-5.5-6.1-9.9-6.1-14.3c0-3.9,4.1-7.2,14.2-8.3V78h-147.8v7.7
				c8.8,1.1,14.2,3.9,14.2,9.9c0,5-4.1,11-7.5,16.5l-185.1,338c-9.5,17.6-13.6,20.4-25.8,20.9v7.7h120.7V471z M2023.3,166
				l81.3,144.2h-161.3L2023.3,166z M0,0v556.7h3839V0H0z M3788.6,506.2H50.5V50.5h3738.1V506.2z M3761,78H2442v400.7h1319V78z"/>
		</g>
	</g>
	<path d="M3070.4,418.8c-191,18.6-342.2-18.1-351.8-85.3c-9.7-68.4,134.4-148.3,328-181.9c1.4-0.2,2.3-1.5,2.1-2.9
		c-0.2-1.4-1.5-2.3-2.9-2.1c-319,49.6-560.7,145.6-550.4,218.6c7,49.6,124.6,77,299.6,77c81.3,0,175.1-5.9,275.9-18.3
		c1.4-0.2,2.4-1.4,2.2-2.8C3073.1,419.7,3071.9,418.7,3070.4,418.8z"/>
	<path d="M3708.2,193.2c-10.6-74.8-264.9-99.4-591.5-57.3c-1.7,0.2-3,1.8-2.8,3.5c0.2,1.7,1.7,3,3.5,2.8
		c193.5-20.8,352.6,15.8,362.2,83.4c8.5,60.2-106.8,119.6-301.2,155.1c-12.1-12.3-28.5-89.9-39.1-154c-0.3-1.9-2-3.2-3.9-3.1
		c-1.9,0.2-3.4,1.7-3.4,3.7v185.3c0,0.9,0.4,1.8,1.1,2.4c0.6,0.5,1.3,0.8,2.1,0.8c0.2,0,0.3,0,0.5,0
		C3467.5,367,3719,269.2,3708.2,193.2z"/>
</g>
</svg>
