<?xml version="1.0" encoding="utf-8"?>
<!-- Generator: Adobe Illustrator 26.0.3, SVG Export Plug-In . SVG Version: 6.00 Build 0)  -->
<svg version="1.1" id="Layer_1" xmlns="http://www.w3.org/2000/svg" xmlns:xlink="http://www.w3.org/1999/xlink" x="0px" y="0px"
	 viewBox="0 0 3839 584.2" style="enable-background:new 0 0 3839 584.2;" xml:space="preserve">
<style type="text/css">
	.st0{clip-path:url(#SVGID_00000116921141297939671880000002920969207326890430_);fill:#F02622;}
	.st1{clip-path:url(#SVGID_00000116921141297939671880000002920969207326890430_);fill:#DA221F;}
	.st2{fill:#FFFFFF;}
	.st3{fill:#034693;}
	.st4{clip-path:url(#SVGID_00000018933146612207568500000016354104686014283431_);fill:#FF0025;}
	.st5{clip-path:url(#SVGID_00000018933146612207568500000016354104686014283431_);fill:#E8001C;}
	.st6{clip-path:url(#SVGID_00000018933146612207568500000016354104686014283431_);fill:#DA221F;}
	.st7{clip-path:url(#SVGID_00000018933146612207568500000016354104686014283431_);fill:#F02622;}
	.st8{clip-path:url(#SVGID_00000063595599175915083680000008045410204231411344_);fill:#F02622;}
	.st9{clip-path:url(#SVGID_00000063595599175915083680000008045410204231411344_);fill:#DA221F;}
	.st10{fill:#B2B2B2;}
	.st11{clip-path:url(#SVGID_00000054946415746792714930000009975246318279481515_);fill:#FF0025;}
	.st12{clip-path:url(#SVGID_00000054946415746792714930000009975246318279481515_);fill:#E8001C;}
	.st13{clip-path:url(#SVGID_00000054946415746792714930000009975246318279481515_);fill:#DA221F;}
	.st14{clip-path:url(#SVGID_00000054946415746792714930000009975246318279481515_);fill:#F02622;}
	.st15{clip-path:url(#SVGID_00000065055569949929887540000002244709434178939022_);fill:#FAD512;}
	.st16{clip-path:url(#SVGID_00000065055569949929887540000002244709434178939022_);fill:#FEBB09;}
	.st17{fill:#DA221F;}
	.st18{clip-path:url(#SVGID_00000142860382461181200100000005972499443619558579_);fill:#FAD512;}
	.st19{clip-path:url(#SVGID_00000142860382461181200100000005972499443619558579_);fill:#E8001C;}
	.st20{clip-path:url(#SVGID_00000142860382461181200100000005972499443619558579_);fill:#FEBB09;}
	.st21{clip-path:url(#SVGID_00000045592934474306222530000013880549993804246173_);fill:#FAD512;}
	.st22{clip-path:url(#SVGID_00000045592934474306222530000013880549993804246173_);fill:#FEBB09;}
	.st23{clip-path:url(#SVGID_00000081640432996278377460000002730895387944172976_);fill:#FF0025;}
	.st24{clip-path:url(#SVGID_00000081640432996278377460000002730895387944172976_);fill:#E8001C;}
	.st25{clip-path:url(#SVGID_00000081640432996278377460000002730895387944172976_);fill:#008ED6;}
	.st26{clip-path:url(#SVGID_00000081640432996278377460000002730895387944172976_);fill:#00A1F2;}
	.st27{clip-path:url(#SVGID_00000166656044183062377860000018037312852872225155_);fill:#FF0025;}
	.st28{clip-path:url(#SVGID_00000166656044183062377860000018037312852872225155_);fill:#E8001C;}
	.st29{clip-path:url(#SVGID_00000166656044183062377860000018037312852872225155_);fill:#008ED6;}
	.st30{clip-path:url(#SVGID_00000166656044183062377860000018037312852872225155_);fill:#00A1F2;}
	.st31{display:none;}
	.st32{display:inline;}
	.st33{clip-path:url(#SVGID_00000108283294462188254560000005400051150885991306_);fill:#F02622;}
	.st34{clip-path:url(#SVGID_00000108283294462188254560000005400051150885991306_);fill:#DA221F;}
	.st35{clip-path:url(#SVGID_00000085951485498371316700000014835583446856453250_);fill:#FF0025;}
	.st36{clip-path:url(#SVGID_00000085951485498371316700000014835583446856453250_);fill:#E8001C;}
	.st37{clip-path:url(#SVGID_00000085951485498371316700000014835583446856453250_);fill:#DA221F;}
	.st38{clip-path:url(#SVGID_00000085951485498371316700000014835583446856453250_);fill:#F02622;}
	.st39{clip-path:url(#SVGID_00000173860114900309929880000011350495552191308177_);fill:#F02622;}
	.st40{clip-path:url(#SVGID_00000173860114900309929880000011350495552191308177_);fill:#DA221F;}
	.st41{clip-path:url(#SVGID_00000111169286622753699670000012459449305101395604_);fill:#FF0025;}
	.st42{clip-path:url(#SVGID_00000111169286622753699670000012459449305101395604_);fill:#E8001C;}
	.st43{clip-path:url(#SVGID_00000111169286622753699670000012459449305101395604_);fill:#DA221F;}
	.st44{clip-path:url(#SVGID_00000111169286622753699670000012459449305101395604_);fill:#F02622;}
	.st45{clip-path:url(#SVGID_00000175323483115062011100000013203234450102280850_);fill:#FAD512;}
	.st46{clip-path:url(#SVGID_00000175323483115062011100000013203234450102280850_);fill:#FEBB09;}
	.st47{clip-path:url(#SVGID_00000036951108185527034050000015830357386538416816_);fill:#FAD512;}
	.st48{clip-path:url(#SVGID_00000036951108185527034050000015830357386538416816_);fill:#E8001C;}
	.st49{clip-path:url(#SVGID_00000036951108185527034050000015830357386538416816_);fill:#FEBB09;}
	.st50{clip-path:url(#SVGID_00000168826482963757783070000000006244695556284862_);fill:#FF0025;}
	.st51{clip-path:url(#SVGID_00000168826482963757783070000000006244695556284862_);fill:#E8001C;}
	.st52{clip-path:url(#SVGID_00000168826482963757783070000000006244695556284862_);fill:#FF981D;}
	.st53{clip-path:url(#SVGID_00000168826482963757783070000000006244695556284862_);fill:#FFAF22;}
	.st54{clip-path:url(#SVGID_00000168826482963757783070000000006244695556284862_);fill:#FAD512;}
	.st55{clip-path:url(#SVGID_00000168826482963757783070000000006244695556284862_);fill:#FEBB09;}
	.st56{clip-path:url(#SVGID_00000168107234758565138750000000050276837311058567_);fill:#FF0025;}
	.st57{clip-path:url(#SVGID_00000168107234758565138750000000050276837311058567_);fill:#E8001C;}
	.st58{clip-path:url(#SVGID_00000168107234758565138750000000050276837311058567_);fill:#008ED6;}
	.st59{clip-path:url(#SVGID_00000168107234758565138750000000050276837311058567_);fill:#00A1F2;}
	.st60{clip-path:url(#SVGID_00000149346766644577162210000014515925108420675729_);fill:#FF0025;}
	.st61{clip-path:url(#SVGID_00000149346766644577162210000014515925108420675729_);fill:#E8001C;}
	.st62{clip-path:url(#SVGID_00000149346766644577162210000014515925108420675729_);fill:#008ED6;}
	.st63{clip-path:url(#SVGID_00000149346766644577162210000014515925108420675729_);fill:#00A1F2;}
</style>
<g class="st31">
	<g class="st32">
		<g>
			<defs>
				<rect id="SVGID_00000137817150341058125260000012933936527243642272_" x="-324.6" y="354.5" width="2583.5" height="289"/>
			</defs>
			<clipPath id="SVGID_00000152962858770854776840000008612298972320718782_">
				<use xlink:href="#SVGID_00000137817150341058125260000012933936527243642272_"  style="overflow:visible;"/>
			</clipPath>
			<polygon style="clip-path:url(#SVGID_00000152962858770854776840000008612298972320718782_);fill:#F02622;" points="190.4,96.4 
				-55.4,96.4 341.2,662.8 587,662.8 			"/>
			<polygon style="clip-path:url(#SVGID_00000152962858770854776840000008612298972320718782_);fill:#DA221F;" points="-55.4,96.4 
				-301.2,96.4 95.4,662.8 341.2,662.8 			"/>
			<polygon style="clip-path:url(#SVGID_00000152962858770854776840000008612298972320718782_);fill:#F02622;" points="-301.2,96.4 
				-546.9,96.4 -150.3,662.8 95.4,662.8 			"/>
			<polygon style="clip-path:url(#SVGID_00000152962858770854776840000008612298972320718782_);fill:#DA221F;" points="436.1,96.4 
				190.4,96.4 587,662.8 832.7,662.8 			"/>
			<polygon style="clip-path:url(#SVGID_00000152962858770854776840000008612298972320718782_);fill:#F02622;" points="681.9,96.4 
				436.1,96.4 832.7,662.8 1078.5,662.8 			"/>
			<polygon style="clip-path:url(#SVGID_00000152962858770854776840000008612298972320718782_);fill:#DA221F;" points="927.7,96.4 
				681.9,96.4 1078.5,662.8 1324.2,662.8 			"/>
			<polygon style="clip-path:url(#SVGID_00000152962858770854776840000008612298972320718782_);fill:#F02622;" points="1173.4,96.4 
				927.7,96.4 1324.2,662.8 1570,662.8 			"/>
			<polygon style="clip-path:url(#SVGID_00000152962858770854776840000008612298972320718782_);fill:#DA221F;" points="1419.2,96.4 
				1173.4,96.4 1570,662.8 1815.8,662.8 			"/>
			<polygon style="clip-path:url(#SVGID_00000152962858770854776840000008612298972320718782_);fill:#F02622;" points="1664.9,96.4 
				1419.2,96.4 1815.8,662.8 2061.5,662.8 			"/>
			<polygon style="clip-path:url(#SVGID_00000152962858770854776840000008612298972320718782_);fill:#DA221F;" points="1910.7,96.4 
				1664.9,96.4 2061.5,662.8 2307.3,662.8 			"/>
			<polygon style="clip-path:url(#SVGID_00000152962858770854776840000008612298972320718782_);fill:#F02622;" points="2156.5,96.4 
				1910.7,96.4 2307.3,662.8 2553.1,662.8 			"/>
		</g>
		<g>
			<path class="st2" d="M2208.9,596.5c8.2-2.6,14-10.3,14-19.2c0-8.9-5.8-16.6-14-19.2l-20.1-6.8h32.9v-35.5
				c0-6.3-2.6-12.1-6.8-16.6h6.8v-36.4c0-6.8-2.8-12.8-7.5-17.3h7.5v-34.6c0-14.7-12.2-26.9-26.9-26.9c-7,0-13.5,2.8-18.2,7.2v-7.2
				h-31.3v34.6c0,9.8,5.1,18.2,13.1,23.1c-7.7,4-13.1,11.9-13.1,21.3v36.7h6.8c-4.2,4.2-6.8,10-6.8,16.6v101.4L2208.9,596.5z"/>
			<g>
				<g>
					<path class="st3" d="M2171,418.8v-29.2h-9.1v29.2c0,5.6,4.7,10.3,10.3,10.3s10.3-4.7,10.3-10.3v-7.5c0-6.8,5.6-12.4,12.4-12.4
						s12.4,5.6,12.4,12.4v29h9.1v-29.2c0-11.9-9.6-21.5-21.5-21.5s-21.5,9.6-21.5,21.5v7.5c0,0.7-0.5,1.2-1.2,1.2
						S2171,419.2,2171,418.8z"/>
					<path class="st3" d="M2195.8,411.1v29.2h9.3v-29.2c0-5.6-4.7-10.3-10.3-10.3s-10.3,4.7-10.3,10.3v7.5c0,6.8-5.6,12.4-12.4,12.4
						s-12.4-5.6-12.4-12.4v-29h-9.1v29.2c0,11.9,9.6,21.5,21.5,21.5s21.5-9.6,21.5-21.5v-7.5c0-0.7,0.5-1.2,1.2-1.2
						C2195.3,410.1,2195.8,410.6,2195.8,411.1z"/>
				</g>
				<g>
					<path class="st3" d="M2205.1,515.9c0-4-3-7-7-7h-29.2c-4,0-7,3-7,7v18.9h20.6v-14.5h-9.1v5.4h-2.1v-5.4c0-1.2,0.9-2.1,2.1-2.1
						h20.6c1.2,0,2.1,0.9,2.1,2.1v25.9h9.1V515.9z"/>
					<path class="st3" d="M2161.9,573.4v21.3l43-14.5c1.2-0.5,2.1-1.4,2.1-2.8c0-1.2-0.9-2.3-1.9-2.8l-54.4-18.7v10.7l19.4,6.5h-8.2
						V573.4L2161.9,573.4z M2181.5,577.1l-9.3,3v-6.3L2181.5,577.1z"/>
					<path class="st3" d="M2206.8,591.4c6.1-1.9,10.7-7.5,10.7-14.2s-4.4-12.4-10.5-14l-50-17h36.7v-25.7h-9.1v16.8h-24.8v-21
						c0-5.1,4.2-9.1,9.1-9.1h29.2c5.1,0,9.1,4.2,9.1,9.1v30.1h9.1v-30.4c0-10-8.2-18.2-18.2-18.2h-29.2c-10,0-18.2,8.2-18.2,18.2
						v37.6l54.9,18.9c2.1,0.7,3.5,2.6,3.5,4.9s-1.4,4.2-3.5,4.9l-45.8,15.4v-24.3h-9.1v36.9l0,0L2206.8,591.4z"/>
				</g>
				<g>
					<path class="st3" d="M2159.8,462.9c0-5.1,4.2-9.1,9.1-9.1h29.2c5.1,0,9.1,4.2,9.1,9.1v31.3h9.1v-31.3c0-10-8.2-18.2-18.2-18.2
						h-29.2c-10,0-18.2,8.2-18.2,18.2v31.3h9.1L2159.8,462.9L2159.8,462.9z"/>
					<path class="st3" d="M2173.1,465v22.7h9.1v-31.8h-13.5c-4,0-7,3-7,7v31.3h9.1v-27.1C2171,466,2172,465,2173.1,465z"/>
					<path class="st3" d="M2193.7,487.7V465c1.2,0,2.1,0.9,2.1,2.1V494h9.3v-31.1c0-4-3-7-7-7h-13.5v31.8
						C2184.6,487.7,2193.7,487.7,2193.7,487.7z"/>
				</g>
			</g>
		</g>
		<g>
			<g>
				<path d="M-49.8,584.5c6,0,7.1-1.7,7.1-6.3V443.3c0-4.6-1.1-6.3-7.1-6.3v-3H128c6.6,0,9.3-1.7,9.3-4.6h3.8v35h-3.8
					c0-3.8-2.7-5.5-9.3-5.5H-3.8v37.5h86c6.6,0,9.3-1.7,9.3-5.5h3.8v35.4h-3.8c0-1.7-0.5-3-2.2-3.8c-1.4-0.9-3.8-1.3-7.1-1.3h-86
					v41.3h134.3c6.6,0,9.3-1.7,9.3-5h3.8v34.6h-3.8c0-3-2.7-4.6-9.3-4.6H-49.8V584.5z"/>
				<path d="M373.5,506.6v3c-2.7,0.4-5.2,2.1-5.2,6.8v41.5c0,3.4,1.4,4.6,4.9,5.3v3c-17.3,7.6-59.4,23.6-106.8,23.6
					c-63,0-118.4-24.1-118.4-78.8s64.6-78.9,121.7-78.9c22.4,0,43.9,4,59.4,7.8c14.5,4.8,25.2,8.6,27.1,8.6c2.5,0,4.9-1.1,6-2.3
					l3.8,1.3l-26.6,34.6l-3.8-1.9c0.3-0.9,0.5-2.1,0.5-3.6c0-6.6-29.6-19.6-66-19.6c-46,0-83.3,17.5-83.3,53.1
					c0,37.3,37.3,54.8,79.5,54.8c34.5,0,54.8-9.1,63-13.7v-17.5h-47.1c-5.5,0-8.8,2.1-8.8,5h-3.8v-37.1h3.8c0,3,3.3,5,8.8,5H373.5
					L373.5,506.6z"/>
				<path d="M374.1,587.5v-3c4.9-0.2,6.6-1.3,10.4-8l74.8-129.4c1.4-2.1,3-4.4,3-6.3c0-2.3-2.2-3.4-5.7-3.8v-3h59.8v3
					c-4.1,0.4-5.7,1.7-5.7,3.2c0,1.7,1.1,3.4,2.5,5.5l79.5,130.9c3.8,6.6,4.9,8,10.7,8v3h-54.5v-3c3.5,0,4.9-1.1,4.9-2.1
					c0-2.3-2.5-5.3-20.8-35.4h-94c-15.9,27.4-20,31.6-20,34.4c0,1.9,1.7,3,4.1,3.2v3L374.1,587.5L374.1,587.5z M516.8,523L484,467.7
					L451.6,523H516.8z"/>
			</g>
			<g>
				<path class="st10" d="M-57.8,576.6c6,0,7.1-1.7,7.1-6.3V435.4c0-4.6-1.1-6.3-7.1-6.3v-3h177.8c6.6,0,9.3-1.7,9.3-4.6h3.8v35
					h-3.8c0-3.8-2.7-5.5-9.3-5.5H-11.7v37.5h86c6.6,0,9.3-1.7,9.3-5.5h3.8v35.4h-3.8c0-1.7-0.5-3-2.2-3.8c-1.4-0.9-3.8-1.3-7.1-1.3
					h-86v41.3h134.3c6.6,0,9.3-1.7,9.3-5h3.8v34.6h-3.8c0-3-2.7-4.6-9.3-4.6H-57.8V576.6z"/>
				<path class="st10" d="M365.6,498.6v3c-2.7,0.4-5.2,2.1-5.2,6.8v41.5c0,3.4,1.4,4.6,4.9,5.3v3c-17.3,7.6-59.4,23.6-106.8,23.6
					c-63,0-118.4-24.1-118.4-78.8S204.7,424,261.7,424c22.4,0,43.9,4,59.4,7.8c14.5,4.8,25.2,8.6,27.1,8.6c2.5,0,4.9-1.1,6-2.3
					l3.8,1.3L331.5,474l-3.8-1.9c0.3-0.9,0.5-2.1,0.5-3.6c0-6.6-29.6-19.6-66-19.6c-46,0-83.3,17.5-83.3,53.1
					c0,37.3,37.3,54.8,79.5,54.8c34.5,0,54.8-9.1,63-13.7v-17.5h-47.1c-5.5,0-8.8,2.1-8.8,5h-3.8v-37.1h3.8c0,3,3.3,5,8.8,5H365.6
					L365.6,498.6z"/>
				<path class="st10" d="M366.1,579.5v-3c4.9-0.2,6.6-1.3,10.4-8l74.8-129.4c1.4-2.1,3-4.4,3-6.3c0-2.3-2.2-3.4-5.7-3.8v-3h59.8v3
					c-4.1,0.4-5.7,1.7-5.7,3.2c0,1.7,1.1,3.4,2.5,5.5l79.5,130.9c3.8,6.6,4.9,8,10.7,8v3h-54.5v-3c3.5,0,4.9-1.1,4.9-2.1
					c0-2.3-2.5-5.3-20.8-35.4h-94c-15.9,27.4-20,31.6-20,34.4c0,1.9,1.7,3,4.1,3.2v3L366.1,579.5L366.1,579.5z M508.9,515L476,459.8
					L443.7,515H508.9z"/>
			</g>
		</g>
		<g>
			<g>
				<g>
					<path d="M882.7,506.5v3c-2.7,0.4-5.2,2.1-5.2,6.7v41.5c0,3.4,1.4,4.6,4.9,5.3v3c-17.3,7.6-59.5,23.6-106.9,23.6
						c-63,0-118.4-24-118.4-78.8c0-54.8,64.7-78.8,121.7-78.8c22.5,0,43.8,4,59.5,7.8c14.5,4.8,25.2,8.6,27.1,8.6
						c2.5,0,4.9-1.1,6-2.3l3.8,1.3l-26.6,34.6l-3.8-1.9c0.3-0.8,0.5-2.1,0.5-3.6c0-6.5-29.6-19.6-66-19.6c-46,0-83.3,17.5-83.3,53.1
						c0,37.3,37.3,54.8,79.5,54.8c34.5,0,54.8-9.1,63-13.7v-17.5h-47.1c-5.5,0-8.8,2.1-8.8,5.1h-3.8v-37.1h3.8c0,3,3.3,5.1,8.8,5.1
						H882.7z"/>
					<path d="M903,584.5c6,0,7.1-1.7,7.1-6.3V443.3c0-4.6-1.1-6.3-7.1-6.3v-3h177.9c6.6,0,9.3-1.7,9.3-4.6h3.8v35h-3.8
						c0-3.8-2.7-5.5-9.3-5.5H949v37.5h86.1c6.6,0,9.3-1.7,9.3-5.5h3.8v35.4h-3.8c0-1.7-0.5-3-2.2-3.8c-1.4-0.8-3.8-1.3-7.1-1.3H949
						v41.3h134.3c6.6,0,9.3-1.7,9.3-5.1h3.8v34.6h-3.8c0-3-2.7-4.6-9.3-4.6H903V584.5z"/>
					<path d="M1321.2,578.2c0,4.6,1.9,6.3,7.4,6.3v3h-50.7v-3c2.7,0,5.5-0.4,5.5-1.7c0-1.9-1.6-2.7-5.2-5.7l-123.3-101.8v102.9
						c0,4.6,1.4,6.3,7.4,6.3v3h-48.5v-3c6,0,6.6-1.7,6.6-6.3V443.3c0-4.6-0.5-6.3-6.6-6.3v-3h58.4v3c-5.2,0-7.4,0.8-7.4,2.7
						c0,0.6,1.1,1.7,3,3.2l118.9,97.2v-96.8c0-4.6-0.5-6.3-7.1-6.3v-3h49.1v3c-5.5,0-7.4,1.7-7.4,6.3V578.2z"/>
					<path d="M1352.7,584.5c6,0,7.1-1.7,7.1-6.3V443.3c0-4.6-1.1-6.3-7.1-6.3v-3h177.9c6.6,0,9.3-1.7,9.3-4.6h3.8v35h-3.8
						c0-3.8-2.7-5.5-9.3-5.5h-131.8v37.5h86.1c6.6,0,9.3-1.7,9.3-5.5h3.8v35.4h-3.8c0-1.7-0.5-3-2.2-3.8c-1.4-0.8-3.8-1.3-7.1-1.3
						h-86.1v41.3H1533c6.6,0,9.3-1.7,9.3-5.1h3.8v34.6h-3.8c0-3-2.7-4.6-9.3-4.6h-180.3V584.5z"/>
					<path d="M1737.4,479.1l-4.4-1.9c0.3-0.8,0.5-1.9,0.5-3c0-2.7-25.8-17.5-70.4-17.5c-42.8,0-61.1,10.1-61.1,23.2
						c0,34.6,161.4-16,161.4,60.3c0,27.8-35.1,49.3-105.2,49.3c-66.9,0-86-16.4-92.4-16.4c-1.6,0-2.5,1.1-3.8,1.7l-3.6-0.6
						l22.7-35.8l4.4,1.7c0,0.8-0.5,1.7-0.5,3.4c0,12.4,35.4,21.3,70.4,21.3c49.9,0,66.9-11,66.9-22.6c0-41.3-159.2,9.9-159.2-60.1
						c0-35.4,48.5-50.2,101.7-50.2c47.7,0,81.1,16,84.4,16c3.6,0,4.1-0.8,4.9-1.5l4.4,1.1L1737.4,479.1z"/>
					<path d="M1823.8,578.2c0,4.6,1.4,6.3,10.1,6.3v3H1775v-3c8.8,0,9.9-1.7,9.9-6.3V443.3c0-4.6-1.1-6.3-9.9-6.3v-3h58.9v3
						c-8.8,0-10.1,1.7-10.1,6.3V578.2z"/>
					<path d="M2024.1,479.1l-4.4-1.9c0.3-0.8,0.5-1.9,0.5-3c0-2.7-25.8-17.5-70.4-17.5c-42.8,0-61.1,10.1-61.1,23.2
						c0,34.6,161.4-16,161.4,60.3c0,27.8-35.1,49.3-105.2,49.3c-66.9,0-86-16.4-92.4-16.4c-1.6,0-2.5,1.1-3.8,1.7l-3.6-0.6
						l22.7-35.8l4.4,1.7c0,0.8-0.5,1.7-0.5,3.4c0,12.4,35.4,21.3,70.4,21.3c49.9,0,66.9-11,66.9-22.6c0-41.3-159.2,9.9-159.2-60.1
						c0-35.4,48.5-50.2,101.7-50.2c47.7,0,81.1,16,84.4,16c3.6,0,4.1-0.8,4.9-1.5l4.4,1.1L2024.1,479.1z"/>
				</g>
			</g>
			<g>
				<path class="st10" d="M874.8,498.6v3c-2.7,0.4-5.2,2.1-5.2,6.7v41.5c0,3.4,1.4,4.6,4.9,5.3v3c-17.3,7.6-59.5,23.6-106.9,23.6
					c-63,0-118.4-24-118.4-78.8c0-54.8,64.7-78.8,121.7-78.8c22.5,0,43.8,4,59.5,7.8c14.5,4.8,25.2,8.6,27.1,8.6
					c2.5,0,4.9-1.1,6-2.3l3.8,1.3l-26.6,34.6l-3.8-1.9c0.3-0.8,0.5-2.1,0.5-3.6c0-6.5-29.6-19.6-66-19.6c-46,0-83.3,17.5-83.3,53.1
					c0,37.3,37.3,54.8,79.5,54.8c34.5,0,54.8-9.1,63-13.7v-17.5h-47.1c-5.5,0-8.8,2.1-8.8,5.1h-3.8v-37.1h3.8c0,3,3.3,5.1,8.8,5.1
					H874.8z"/>
				<path class="st10" d="M895,576.6c6,0,7.1-1.7,7.1-6.3V435.4c0-4.6-1.1-6.3-7.1-6.3v-3h177.9c6.6,0,9.3-1.7,9.3-4.6h3.8v35h-3.8
					c0-3.8-2.7-5.5-9.3-5.5H941.1v37.5h86.1c6.6,0,9.3-1.7,9.3-5.5h3.8v35.4h-3.8c0-1.7-0.5-3-2.2-3.8c-1.4-0.8-3.8-1.3-7.1-1.3
					h-86.1v41.3h134.3c6.6,0,9.3-1.7,9.3-5.1h3.8v34.6h-3.8c0-3-2.7-4.6-9.3-4.6H895V576.6z"/>
				<path class="st10" d="M1313.2,570.3c0,4.6,1.9,6.3,7.4,6.3v3h-50.7v-3c2.7,0,5.5-0.4,5.5-1.7c0-1.9-1.6-2.7-5.2-5.7
					l-123.3-101.8v102.9c0,4.6,1.4,6.3,7.4,6.3v3h-48.5v-3c6,0,6.6-1.7,6.6-6.3V435.4c0-4.6-0.5-6.3-6.6-6.3v-3h58.4v3
					c-5.2,0-7.4,0.8-7.4,2.7c0,0.6,1.1,1.7,3,3.2l118.9,97.2v-96.8c0-4.6-0.5-6.3-7.1-6.3v-3h49.1v3c-5.5,0-7.4,1.7-7.4,6.3V570.3z"
					/>
				<path class="st10" d="M1344.7,576.6c6,0,7.1-1.7,7.1-6.3V435.4c0-4.6-1.1-6.3-7.1-6.3v-3h177.9c6.6,0,9.3-1.7,9.3-4.6h3.8v35
					h-3.8c0-3.8-2.7-5.5-9.3-5.5h-131.8v37.5h86.1c6.6,0,9.3-1.7,9.3-5.5h3.8v35.4h-3.8c0-1.7-0.5-3-2.2-3.8
					c-1.4-0.8-3.8-1.3-7.1-1.3h-86.1v41.3h134.3c6.6,0,9.3-1.7,9.3-5.1h3.8v34.6h-3.8c0-3-2.7-4.6-9.3-4.6h-180.3V576.6z"/>
				<path class="st10" d="M1729.5,471.2l-4.4-1.9c0.3-0.8,0.5-1.9,0.5-3c0-2.7-25.8-17.5-70.4-17.5c-42.8,0-61.1,10.1-61.1,23.2
					c0,34.6,161.4-16,161.4,60.3c0,27.8-35.1,49.3-105.2,49.3c-66.9,0-86-16.4-92.4-16.4c-1.6,0-2.5,1.1-3.8,1.7l-3.6-0.6l22.7-35.8
					l4.4,1.7c0,0.8-0.5,1.7-0.5,3.4c0,12.4,35.4,21.3,70.4,21.3c49.9,0,66.9-11,66.9-22.6c0-41.3-159.2,9.9-159.2-60.1
					c0-35.4,48.5-50.2,101.7-50.2c47.7,0,81.1,16,84.4,16c3.6,0,4.1-0.8,4.9-1.5l4.4,1.1L1729.5,471.2z"/>
				<path class="st10" d="M1815.8,570.3c0,4.6,1.4,6.3,10.1,6.3v3H1767v-3c8.8,0,9.9-1.7,9.9-6.3V435.4c0-4.6-1.1-6.3-9.9-6.3v-3
					h58.9v3c-8.8,0-10.1,1.7-10.1,6.3V570.3z"/>
				<path class="st10" d="M2016.1,471.2l-4.4-1.9c0.3-0.8,0.5-1.9,0.5-3c0-2.7-25.8-17.5-70.4-17.5c-42.8,0-61.1,10.1-61.1,23.2
					c0,34.6,161.4-16,161.4,60.3c0,27.8-35.1,49.3-105.2,49.3c-66.9,0-86-16.4-92.4-16.4c-1.6,0-2.5,1.1-3.8,1.7l-3.6-0.6l22.7-35.8
					l4.4,1.7c0,0.8-0.5,1.7-0.5,3.4c0,12.4,35.4,21.3,70.4,21.3c49.9,0,66.9-11,66.9-22.6c0-41.3-159.2,9.9-159.2-60.1
					c0-35.4,48.5-50.2,101.7-50.2c47.7,0,81.1,16,84.4,16c3.6,0,4.1-0.8,4.9-1.5l4.4,1.1L2016.1,471.2z"/>
			</g>
		</g>
	</g>
	<g class="st32">
		<g>
			<defs>
				<rect id="SVGID_00000041260010540519292860000012691947156031285401_" x="595.2" y="-185" width="1663.7" height="289"/>
			</defs>
			<clipPath id="SVGID_00000173851171956797278090000004628979930405287814_">
				<use xlink:href="#SVGID_00000041260010540519292860000012691947156031285401_"  style="overflow:visible;"/>
			</clipPath>
			<polygon style="clip-path:url(#SVGID_00000173851171956797278090000004628979930405287814_);fill:#FF0025;" points="
				190.4,-443.1 -55.4,-443.1 341.2,123.3 587,123.3 			"/>
			<polygon style="clip-path:url(#SVGID_00000173851171956797278090000004628979930405287814_);fill:#E8001C;" points="
				-55.4,-443.1 -301.2,-443.1 95.4,123.3 341.2,123.3 			"/>
			<polygon style="clip-path:url(#SVGID_00000173851171956797278090000004628979930405287814_);fill:#DA221F;" points="
				436.1,-443.1 190.4,-443.1 587,123.3 832.7,123.3 			"/>
			<polygon style="clip-path:url(#SVGID_00000173851171956797278090000004628979930405287814_);fill:#F02622;" points="
				681.9,-443.1 436.1,-443.1 832.7,123.3 1078.5,123.3 			"/>
			<polygon style="clip-path:url(#SVGID_00000173851171956797278090000004628979930405287814_);fill:#DA221F;" points="
				927.7,-443.1 681.9,-443.1 1078.5,123.3 1324.2,123.3 			"/>
			<polygon style="clip-path:url(#SVGID_00000173851171956797278090000004628979930405287814_);fill:#F02622;" points="
				1173.4,-443.1 927.7,-443.1 1324.2,123.3 1570,123.3 			"/>
			<polygon style="clip-path:url(#SVGID_00000173851171956797278090000004628979930405287814_);fill:#DA221F;" points="
				1419.2,-443.1 1173.4,-443.1 1570,123.3 1815.8,123.3 			"/>
			<polygon style="clip-path:url(#SVGID_00000173851171956797278090000004628979930405287814_);fill:#F02622;" points="
				1664.9,-443.1 1419.2,-443.1 1815.8,123.3 2061.5,123.3 			"/>
			<polygon style="clip-path:url(#SVGID_00000173851171956797278090000004628979930405287814_);fill:#DA221F;" points="
				1910.7,-443.1 1664.9,-443.1 2061.5,123.3 2307.3,123.3 			"/>
			<polygon style="clip-path:url(#SVGID_00000173851171956797278090000004628979930405287814_);fill:#F02622;" points="
				2156.5,-443.1 1910.7,-443.1 2307.3,123.3 2553.1,123.3 			"/>
		</g>
		<g>
			<path class="st2" d="M2208.9,57c8.2-2.6,14-10.3,14-19.2c0-8.9-5.8-16.6-14-19.2l-20.1-6.8h32.9v-35.5c0-6.3-2.6-12.1-6.8-16.6
				h6.8v-36.4c0-6.8-2.8-12.8-7.5-17.3h7.5v-34.6c0-14.7-12.2-26.9-26.9-26.9c-7,0-13.5,2.8-18.2,7.2v-7.2h-31.3v34.6
				c0,9.8,5.1,18.2,13.1,23.1c-7.7,4-13.1,11.9-13.1,21.3v36.7h6.8c-4.2,4.2-6.8,10-6.8,16.6V78.3L2208.9,57z"/>
			<g>
				<g>
					<path class="st3" d="M2205.1-23.6c0-4-3-7-7-7h-29.2c-4,0-7,3-7,7v18.9h20.6v-14.5h-9.1v5.4h-2.1v-5.4c0-1.2,0.9-2.1,2.1-2.1
						h20.6c1.2,0,2.1,0.9,2.1,2.1V6.8h9.1V-23.6z"/>
					<path class="st3" d="M2161.9,33.9v21.3l43-14.5c1.2-0.5,2.1-1.4,2.1-2.8c0-1.2-0.9-2.3-1.9-2.8l-54.4-18.7v10.7l19.4,6.5h-8.2
						V33.9L2161.9,33.9z M2181.5,37.6l-9.3,3v-6.3L2181.5,37.6z"/>
					<path class="st3" d="M2206.8,51.9c6.1-1.9,10.7-7.5,10.7-14.2s-4.4-12.4-10.5-14l-50-17h36.7v-25.7h-9.1v16.8h-24.8v-21
						c0-5.1,4.2-9.1,9.1-9.1h29.2c5.1,0,9.1,4.2,9.1,9.1V6.8h9.1v-30.4c0-10-8.2-18.2-18.2-18.2h-29.2c-10,0-18.2,8.2-18.2,18.2V14
						l54.9,18.9c2.1,0.7,3.5,2.6,3.5,4.9c0,2.3-1.4,4.2-3.5,4.9l-45.8,15.4V33.9h-9.1v36.9l0,0L2206.8,51.9z"/>
				</g>
			</g>
		</g>
		<g>
			<g>
				<g>
					<path d="M882.7-32.9v3c-2.7,0.4-5.2,2.1-5.2,6.7v41.5c0,3.4,1.4,4.6,4.9,5.3v3c-17.3,7.6-59.5,23.6-106.9,23.6
						c-63,0-118.4-24-118.4-78.8c0-54.8,64.7-78.8,121.7-78.8c22.5,0,43.8,4,59.5,7.8c14.5,4.8,25.2,8.6,27.1,8.6
						c2.5,0,4.9-1.1,6-2.3l3.8,1.3l-26.6,34.6l-3.8-1.9c0.3-0.8,0.5-2.1,0.5-3.6c0-6.5-29.6-19.6-66-19.6c-46,0-83.3,17.5-83.3,53.1
						c0,37.3,37.3,54.8,79.5,54.8c34.5,0,54.8-9.1,63-13.7V-6h-47.1c-5.5,0-8.8,2.1-8.8,5.1h-3.8V-38h3.8c0,3,3.3,5.1,8.8,5.1H882.7
						z"/>
					<path d="M903,45c6,0,7.1-1.7,7.1-6.3V-96.2c0-4.6-1.1-6.3-7.1-6.3v-3h177.9c6.6,0,9.3-1.7,9.3-4.6h3.8v35h-3.8
						c0-3.8-2.7-5.5-9.3-5.5H949v37.5h86.1c6.6,0,9.3-1.7,9.3-5.5h3.8v35.4h-3.8c0-1.7-0.5-3-2.2-3.8c-1.4-0.8-3.8-1.3-7.1-1.3H949
						v41.3h134.3c6.6,0,9.3-1.7,9.3-5.1h3.8v34.6h-3.8c0-3-2.7-4.6-9.3-4.6H903V45z"/>
					<path d="M1321.2,38.7c0,4.6,1.9,6.3,7.4,6.3v3h-50.7v-3c2.7,0,5.5-0.4,5.5-1.7c0-1.9-1.6-2.7-5.2-5.7L1154.8-64.1V38.7
						c0,4.6,1.4,6.3,7.4,6.3v3h-48.5v-3c6,0,6.6-1.7,6.6-6.3V-96.2c0-4.6-0.5-6.3-6.6-6.3v-3h58.4v3c-5.2,0-7.4,0.8-7.4,2.7
						c0,0.6,1.1,1.7,3,3.2l118.9,97.2v-96.8c0-4.6-0.5-6.3-7.1-6.3v-3h49.1v3c-5.5,0-7.4,1.7-7.4,6.3V38.7z"/>
					<path d="M1352.7,45c6,0,7.1-1.7,7.1-6.3V-96.2c0-4.6-1.1-6.3-7.1-6.3v-3h177.9c6.6,0,9.3-1.7,9.3-4.6h3.8v35h-3.8
						c0-3.8-2.7-5.5-9.3-5.5h-131.8v37.5h86.1c6.6,0,9.3-1.7,9.3-5.5h3.8v35.4h-3.8c0-1.7-0.5-3-2.2-3.8c-1.4-0.8-3.8-1.3-7.1-1.3
						h-86.1v41.3H1533c6.6,0,9.3-1.7,9.3-5.1h3.8v34.6h-3.8c0-3-2.7-4.6-9.3-4.6h-180.3V45z"/>
					<path d="M1737.4-60.3l-4.4-1.9c0.3-0.8,0.5-1.9,0.5-3c0-2.7-25.8-17.5-70.4-17.5c-42.8,0-61.1,10.1-61.1,23.2
						c0,34.6,161.4-16,161.4,60.3c0,27.8-35.1,49.3-105.2,49.3c-66.9,0-86-16.4-92.4-16.4c-1.6,0-2.5,1.1-3.8,1.7l-3.6-0.6
						l22.7-35.8l4.4,1.7c0,0.8-0.5,1.7-0.5,3.4c0,12.4,35.4,21.3,70.4,21.3c49.9,0,66.9-11,66.9-22.6c0-41.3-159.2,9.9-159.2-60.1
						c0-35.4,48.5-50.2,101.7-50.2c47.7,0,81.1,16,84.4,16c3.6,0,4.1-0.8,4.9-1.5l4.4,1.1L1737.4-60.3z"/>
					<path d="M1823.8,38.7c0,4.6,1.4,6.3,10.1,6.3v3H1775v-3c8.8,0,9.9-1.7,9.9-6.3V-96.2c0-4.6-1.1-6.3-9.9-6.3v-3h58.9v3
						c-8.8,0-10.1,1.7-10.1,6.3V38.7z"/>
					<path d="M2024.1-60.3l-4.4-1.9c0.3-0.8,0.5-1.9,0.5-3c0-2.7-25.8-17.5-70.4-17.5c-42.8,0-61.1,10.1-61.1,23.2
						c0,34.6,161.4-16,161.4,60.3c0,27.8-35.1,49.3-105.2,49.3c-66.9,0-86-16.4-92.4-16.4c-1.6,0-2.5,1.1-3.8,1.7l-3.6-0.6
						l22.7-35.8l4.4,1.7c0,0.8-0.5,1.7-0.5,3.4c0,12.4,35.4,21.3,70.4,21.3c49.9,0,66.9-11,66.9-22.6c0-41.3-159.2,9.9-159.2-60.1
						c0-35.4,48.5-50.2,101.7-50.2c47.7,0,81.1,16,84.4,16c3.6,0,4.1-0.8,4.9-1.5l4.4,1.1L2024.1-60.3z"/>
				</g>
			</g>
			<g>
				<path class="st10" d="M874.8-40.9v3c-2.7,0.4-5.2,2.1-5.2,6.7v41.5c0,3.4,1.4,4.6,4.9,5.3v3c-17.3,7.6-59.5,23.6-106.9,23.6
					c-63,0-118.4-24-118.4-78.8c0-54.8,64.7-78.8,121.7-78.8c22.5,0,43.8,4,59.5,7.8c14.5,4.8,25.2,8.6,27.1,8.6
					c2.5,0,4.9-1.1,6-2.3l3.8,1.3l-26.6,34.6l-3.8-1.9c0.3-0.8,0.5-2.1,0.5-3.6c0-6.5-29.6-19.6-66-19.6c-46,0-83.3,17.5-83.3,53.1
					c0,37.3,37.3,54.8,79.5,54.8c34.5,0,54.8-9.1,63-13.7v-17.5h-47.1c-5.5,0-8.8,2.1-8.8,5.1h-3.8v-37.1h3.8c0,3,3.3,5.1,8.8,5.1
					H874.8z"/>
				<path class="st10" d="M895,37.1c6,0,7.1-1.7,7.1-6.3v-134.9c0-4.6-1.1-6.3-7.1-6.3v-3h177.9c6.6,0,9.3-1.7,9.3-4.6h3.8v35h-3.8
					c0-3.8-2.7-5.5-9.3-5.5H941.1V-51h86.1c6.6,0,9.3-1.7,9.3-5.5h3.8v35.4h-3.8c0-1.7-0.5-3-2.2-3.8c-1.4-0.8-3.8-1.3-7.1-1.3
					h-86.1v41.3h134.3c6.6,0,9.3-1.7,9.3-5.1h3.8v34.6h-3.8c0-3-2.7-4.6-9.3-4.6H895V37.1z"/>
				<path class="st10" d="M1313.2,30.8c0,4.6,1.9,6.3,7.4,6.3v3h-50.7v-3c2.7,0,5.5-0.4,5.5-1.7c0-1.9-1.6-2.7-5.2-5.7L1146.9-72.1
					V30.8c0,4.6,1.4,6.3,7.4,6.3v3h-48.5v-3c6,0,6.6-1.7,6.6-6.3v-134.9c0-4.6-0.5-6.3-6.6-6.3v-3h58.4v3c-5.2,0-7.4,0.8-7.4,2.7
					c0,0.6,1.1,1.7,3,3.2l118.9,97.2v-96.8c0-4.6-0.5-6.3-7.1-6.3v-3h49.1v3c-5.5,0-7.4,1.7-7.4,6.3V30.8z"/>
				<path class="st10" d="M1344.7,37.1c6,0,7.1-1.7,7.1-6.3v-134.9c0-4.6-1.1-6.3-7.1-6.3v-3h177.9c6.6,0,9.3-1.7,9.3-4.6h3.8v35
					h-3.8c0-3.8-2.7-5.5-9.3-5.5h-131.8V-51h86.1c6.6,0,9.3-1.7,9.3-5.5h3.8v35.4h-3.8c0-1.7-0.5-3-2.2-3.8
					c-1.4-0.8-3.8-1.3-7.1-1.3h-86.1v41.3h134.3c6.6,0,9.3-1.7,9.3-5.1h3.8v34.6h-3.8c0-3-2.7-4.6-9.3-4.6h-180.3V37.1z"/>
				<path class="st10" d="M1729.5-68.3l-4.4-1.9c0.3-0.8,0.5-1.9,0.5-3c0-2.7-25.8-17.5-70.4-17.5c-42.8,0-61.1,10.1-61.1,23.2
					c0,34.6,161.4-16,161.4,60.3c0,27.8-35.1,49.3-105.2,49.3c-66.9,0-86-16.4-92.4-16.4c-1.6,0-2.5,1.1-3.8,1.7l-3.6-0.6l22.7-35.8
					l4.4,1.7c0,0.8-0.5,1.7-0.5,3.4c0,12.4,35.4,21.3,70.4,21.3c49.9,0,66.9-11,66.9-22.6c0-41.3-159.2,9.9-159.2-60.1
					c0-35.4,48.5-50.2,101.7-50.2c47.7,0,81.1,16,84.4,16c3.6,0,4.1-0.8,4.9-1.5l4.4,1.1L1729.5-68.3z"/>
				<path class="st10" d="M1815.8,30.8c0,4.6,1.4,6.3,10.1,6.3v3H1767v-3c8.8,0,9.9-1.7,9.9-6.3v-134.9c0-4.6-1.1-6.3-9.9-6.3v-3
					h58.9v3c-8.8,0-10.1,1.7-10.1,6.3V30.8z"/>
				<path class="st10" d="M2016.1-68.3l-4.4-1.9c0.3-0.8,0.5-1.9,0.5-3c0-2.7-25.8-17.5-70.4-17.5c-42.8,0-61.1,10.1-61.1,23.2
					c0,34.6,161.4-16,161.4,60.3c0,27.8-35.1,49.3-105.2,49.3c-66.9,0-86-16.4-92.4-16.4c-1.6,0-2.5,1.1-3.8,1.7l-3.6-0.6l22.7-35.8
					l4.4,1.7c0,0.8-0.5,1.7-0.5,3.4c0,12.4,35.4,21.3,70.4,21.3c49.9,0,66.9-11,66.9-22.6c0-41.3-159.2,9.9-159.2-60.1
					c0-35.4,48.5-50.2,101.7-50.2c47.7,0,81.1,16,84.4,16c3.6,0,4.1-0.8,4.9-1.5l4.4,1.1L2016.1-68.3z"/>
			</g>
		</g>
	</g>
</g>
<g>
	<g>
		<path class="st2" d="M3803.9,531c20.5-6.4,35.1-25.7,35.1-47.9c0-22.2-14.6-41.5-35-47.9l-50.2-16.9h82.4v-88.8
			c0-15.8-6.4-30.4-16.9-41.5h16.9v-91.1c0-16.9-7-32.1-18.7-43.2h18.7V67.2c0-36.8-30.4-67.2-67.2-67.2c-17.5,0-33.9,7-45.6,18.1V0
			H3645v86.5c0,24.5,12.9,45.6,32.7,57.8c-19.3,9.9-32.7,29.8-32.7,53.2v91.7h16.9c-10.5,10.5-16.9,25.1-16.9,41.5v253.5L3803.9,531
			z"/>
		<g>
			<g>
				<path class="st3" d="M3709.3,86.5v-73h-22.8v73c0,14,11.7,25.7,25.7,25.7c14,0,25.7-11.7,25.7-25.7V67.8c0-16.9,14-31,31-31
					s31,14,31,31v72.4h22.8v-73c0-29.8-24-53.7-53.7-53.7s-53.7,24-53.7,53.7v18.7c0,1.8-1.2,2.9-2.9,2.9S3709.3,87.6,3709.3,86.5z"
					/>
				<path class="st3" d="M3771.2,67.2v73h23.4v-73c0-14-11.7-25.7-25.7-25.7s-25.7,11.7-25.7,25.7v18.7c0,16.9-14,31-31,31
					s-31-14-31-31V13.4h-22.8v73c0,29.8,24,53.7,53.7,53.7s53.7-24,53.7-53.7V67.8c0-1.8,1.2-2.9,2.9-2.9
					C3770.1,64.8,3771.2,66,3771.2,67.2z"/>
			</g>
			<g>
				<path class="st3" d="M3794.6,329.5c0-9.9-7.6-17.5-17.5-17.5h-73c-9.9,0-17.5,7.6-17.5,17.5v47.3h51.4v-36.2h-22.8V354h-5.3
					v-13.4c0-2.9,2.3-5.3,5.3-5.3h51.4c2.9,0,5.3,2.3,5.3,5.3v64.8h22.8V329.5z"/>
				<path class="st3" d="M3686.5,473.2v53.2l107.5-36.2c2.9-1.2,5.3-3.5,5.3-7c0-2.9-2.3-5.8-4.7-7l-136.1-46.7v26.9l48.5,16.4
					h-20.5V473.2L3686.5,473.2z M3735.6,482.5l-23.4,7.6v-15.8L3735.6,482.5z"/>
				<path class="st3" d="M3798.7,518.2c15.2-4.7,26.9-18.7,26.9-35.6c0-17-11.1-31-26.3-35l-125-42.6h91.7v-64.3h-22.8v42.1h-61.9
					v-52.6c0-12.9,10.5-22.8,22.8-22.8h73c12.9,0,22.8,10.5,22.8,22.8v75.4h22.8v-76c0-25.1-20.5-45.6-45.6-45.6h-73
					c-25.1,0-45.6,20.5-45.6,45.6v94.1l137.3,47.3c5.3,1.8,8.8,6.4,8.8,12.3c0,5.8-3.5,10.5-8.8,12.3l-114.5,38.6v-60.8h-22.8v92.3
					l0,0L3798.7,518.2z"/>
			</g>
			<g>
				<path class="st3" d="M3681.3,196.9c0-12.9,10.5-22.8,22.8-22.8h73c12.9,0,22.8,10.5,22.8,22.8v78.3h22.8v-78.3
					c0-25.1-20.5-45.6-45.6-45.6h-73c-25.1,0-45.6,20.5-45.6,45.6v78.3h22.8L3681.3,196.9L3681.3,196.9z"/>
				<path class="st3" d="M3714.6,202.1v56.7h22.8v-79.5h-33.9c-9.9,0-17.5,7.6-17.5,17.5v78.3h22.8v-67.8
					C3709.3,204.5,3711.6,202.1,3714.6,202.1z"/>
				<path class="st3" d="M3766,258.8v-56.7c2.9,0,5.3,2.3,5.3,5.3v67.2h23.4v-77.7c0-9.9-7.6-17.5-17.5-17.5h-33.9v79.5
					C3743.2,258.8,3766,258.8,3766,258.8z"/>
			</g>
		</g>
	</g>
	<g>
		<g>
			<g>
				<path d="M584,306v7.4c-6.9,1.1-13,5.3-13,16.9v103.9c0,8.4,3.4,11.6,12.3,13.2v7.4c-43.2,19-148.7,59-267.3,59
					c-157.6,0-296.1-60.1-296.1-197.2c0-137.1,161.8-197.2,304.3-197.2c56.2,0,109.7,10,148.7,19.5c36.3,12.1,63.1,21.6,67.9,21.6
					c6.2,0,12.3-2.6,15.1-5.8l9.6,3.2L499,244.3l-9.6-4.7c0.7-2.1,1.4-5.3,1.4-9c0-16.3-74-49-165.2-49
					c-115.2,0-208.4,43.8-208.4,132.9c0,93.3,93.2,137.1,198.8,137.1c86.4,0,137.1-22.7,157.6-34.3v-43.8H355.7
					c-13.7,0-21.9,5.3-21.9,12.6h-9.6v-92.8h9.6c0,7.4,8.2,12.6,21.9,12.6H584z"/>
				<path d="M634.7,501.1c15.1,0,17.8-4.2,17.8-15.8V147.8c0-11.6-2.7-15.8-17.8-15.8v-7.4h444.8c16.4,0,23.3-4.2,23.3-11.6h9.6
					v87.5h-9.6c0-9.5-6.9-13.7-23.3-13.7H749.8v93.8h215.2c16.4,0,23.3-4.2,23.3-13.7h9.6v88.6h-9.6c0-4.2-1.4-7.4-5.5-9.5
					c-3.4-2.1-9.6-3.2-17.8-3.2H749.8v103.3h335.9c16.4,0,23.3-4.2,23.3-12.6h9.6v86.5h-9.6c0-7.4-6.9-11.6-23.3-11.6h-451V501.1z"
					/>
				<path d="M1680.6,485.3c0,11.6,4.8,15.8,18.5,15.8v7.4h-126.8v-7.4c6.9,0,13.7-1.1,13.7-4.2c0-4.7-4.1-6.9-13-14.2L1264.6,228
					v257.3c0,11.6,3.4,15.8,18.5,15.8v7.4h-121.3v-7.4c15.1,0,16.4-4.2,16.4-15.8V147.8c0-11.6-1.4-15.8-16.4-15.8v-7.4h146v7.4
					c-13,0-18.5,2.1-18.5,6.9c0,1.6,2.7,4.2,7.5,7.9l297.5,243v-242c0-11.6-1.4-15.8-17.8-15.8v-7.4h122.7v7.4
					c-13.7,0-18.5,4.2-18.5,15.8V485.3z"/>
				<path d="M1759.5,501.1c15.1,0,17.8-4.2,17.8-15.8V147.8c0-11.6-2.7-15.8-17.8-15.8v-7.4h444.8c16.4,0,23.3-4.2,23.3-11.6h9.6
					v87.5h-9.6c0-9.5-6.9-13.7-23.3-13.7h-329.7v93.8h215.2c16.4,0,23.3-4.2,23.3-13.7h9.6v88.6h-9.6c0-4.2-1.4-7.4-5.5-9.5
					c-3.4-2.1-9.6-3.2-17.8-3.2h-215.2v103.3h335.9c16.4,0,23.3-4.2,23.3-12.6h9.6v86.5h-9.6c0-7.4-6.9-11.6-23.3-11.6h-451V501.1z"
					/>
				<path d="M2721.8,237.5l-11-4.7c0.7-2.1,1.4-4.7,1.4-7.4c0-6.9-64.4-43.8-176.1-43.8c-106.9,0-152.9,25.3-152.9,58
					c0,86.5,403.7-40.1,403.7,150.8c0,69.6-87.7,123.4-263.2,123.4c-167.2,0-215.2-41.1-231-41.1c-4.1,0-6.2,2.6-9.6,4.2l-8.9-1.6
					l56.9-89.6l11,4.2c0,2.1-1.4,4.2-1.4,8.4c0,31.1,88.4,53.3,176.2,53.3c124.7,0,167.2-27.4,167.2-56.4
					c0-103.3-398.2,24.8-398.2-150.3c0-88.6,121.3-125.5,254.3-125.5c119.3,0,202.9,40.1,211.1,40.1c8.9,0,10.3-2.1,12.3-3.7l11,2.6
					L2721.8,237.5z"/>
				<path d="M2937.7,485.3c0,11.6,3.4,15.8,25.4,15.8v7.4h-147.4v-7.4c21.9,0,24.7-4.2,24.7-15.8V147.8c0-11.6-2.7-15.8-24.7-15.8
					v-7.4h147.4v7.4c-21.9,0-25.4,4.2-25.4,15.8V485.3z"/>
				<path d="M3438.7,237.5l-11-4.7c0.7-2.1,1.4-4.7,1.4-7.4c0-6.9-64.4-43.8-176.1-43.8c-106.9,0-152.9,25.3-152.9,58
					c0,86.5,403.7-40.1,403.7,150.8c0,69.6-87.7,123.4-263.2,123.4c-167.2,0-215.2-41.1-231-41.1c-4.1,0-6.2,2.6-9.6,4.2l-8.9-1.6
					l56.9-89.6l11,4.2c0,2.1-1.4,4.2-1.4,8.4c0,31.1,88.4,53.3,176.2,53.3c124.7,0,167.2-27.4,167.2-56.4
					c0-103.3-398.2,24.8-398.2-150.3c0-88.6,121.3-125.5,254.3-125.5c119.3,0,202.9,40.1,211.1,40.1c8.9,0,10.3-2.1,12.3-3.7l11,2.6
					L3438.7,237.5z"/>
			</g>
		</g>
		<g>
			<path class="st10" d="M564.1,286.1v7.4c-6.9,1.1-13,5.3-13,16.9v103.9c0,8.4,3.4,11.6,12.3,13.2v7.4c-43.2,19-148.7,59-267.3,59
				C138.5,493.9,0,433.8,0,296.7C0,159.6,161.8,99.5,304.3,99.5c56.2,0,109.7,10,148.7,19.5c36.3,12.1,63.1,21.6,67.9,21.6
				c6.2,0,12.3-2.6,15.1-5.8l9.6,3.2l-66.5,86.5l-9.6-4.7c0.7-2.1,1.4-5.3,1.4-9c0-16.3-74-49-165.2-49
				c-115.2,0-208.4,43.8-208.4,132.9c0,93.3,93.2,137.1,198.8,137.1c86.4,0,137.1-22.7,157.6-34.3v-43.8H335.9
				c-13.7,0-21.9,5.3-21.9,12.6h-9.6v-92.8h9.6c0,7.4,8.2,12.6,21.9,12.6H564.1z"/>
			<path class="st10" d="M614.8,481.2c15.1,0,17.8-4.2,17.8-15.8V128c0-11.6-2.7-15.8-17.8-15.8v-7.4h444.8
				c16.4,0,23.3-4.2,23.3-11.6h9.6v87.5h-9.6c0-9.5-6.9-13.7-23.3-13.7H730v93.8h215.2c16.4,0,23.3-4.2,23.3-13.7h9.6v88.6h-9.6
				c0-4.2-1.4-7.4-5.5-9.5c-3.4-2.1-9.6-3.2-17.8-3.2H730v103.3h335.9c16.4,0,23.3-4.2,23.3-12.6h9.6v86.5h-9.6
				c0-7.4-6.9-11.6-23.3-11.6h-451V481.2z"/>
			<path class="st10" d="M1660.8,465.4c0,11.6,4.8,15.8,18.5,15.8v7.4h-126.8v-7.4c6.9,0,13.7-1.1,13.7-4.2c0-4.7-4.1-6.9-13-14.2
				l-308.4-254.7v257.3c0,11.6,3.4,15.8,18.5,15.8v7.4h-121.3v-7.4c15.1,0,16.4-4.2,16.4-15.8V128c0-11.6-1.4-15.8-16.4-15.8v-7.4
				h146v7.4c-13,0-18.5,2.1-18.5,6.9c0,1.6,2.7,4.2,7.5,7.9l297.5,243V128c0-11.6-1.4-15.8-17.8-15.8v-7.4h122.7v7.4
				c-13.7,0-18.5,4.2-18.5,15.8V465.4z"/>
			<path class="st10" d="M1739.6,481.2c15.1,0,17.8-4.2,17.8-15.8V128c0-11.6-2.7-15.8-17.8-15.8v-7.4h444.8
				c16.4,0,23.3-4.2,23.3-11.6h9.6v87.5h-9.6c0-9.5-6.9-13.7-23.3-13.7h-329.7v93.8H2070c16.4,0,23.3-4.2,23.3-13.7h9.6v88.6h-9.6
				c0-4.2-1.4-7.4-5.5-9.5c-3.4-2.1-9.6-3.2-17.8-3.2h-215.2v103.3h335.9c16.4,0,23.3-4.2,23.3-12.6h9.6v86.5h-9.6
				c0-7.4-6.9-11.6-23.3-11.6h-451V481.2z"/>
			<path class="st10" d="M2701.9,217.6l-11-4.7c0.7-2.1,1.4-4.7,1.4-7.4c0-6.9-64.4-43.8-176.1-43.8c-106.9,0-152.9,25.3-152.9,58
				c0,86.5,403.7-40.1,403.7,150.8c0,69.6-87.7,123.4-263.2,123.4c-167.2,0-215.2-41.1-231-41.1c-4.1,0-6.2,2.6-9.6,4.2l-8.9-1.6
				l56.9-89.6l11,4.2c0,2.1-1.4,4.2-1.4,8.4c0,31.1,88.4,53.3,176.2,53.3c124.7,0,167.2-27.4,167.2-56.4
				c0-103.3-398.2,24.8-398.2-150.3c0-88.6,121.3-125.5,254.3-125.5c119.3,0,202.9,40.1,211.1,40.1c8.9,0,10.3-2.1,12.3-3.7l11,2.6
				L2701.9,217.6z"/>
			<path class="st10" d="M2917.8,465.4c0,11.6,3.4,15.8,25.4,15.8v7.4h-147.4v-7.4c21.9,0,24.7-4.2,24.7-15.8V128
				c0-11.6-2.7-15.8-24.7-15.8v-7.4h147.4v7.4c-21.9,0-25.4,4.2-25.4,15.8V465.4z"/>
			<path class="st10" d="M3418.9,217.6l-11-4.7c0.7-2.1,1.4-4.7,1.4-7.4c0-6.9-64.4-43.8-176.1-43.8c-106.9,0-152.9,25.3-152.9,58
				c0,86.5,403.7-40.1,403.7,150.8c0,69.6-87.7,123.4-263.2,123.4c-167.2,0-215.2-41.1-231-41.1c-4.1,0-6.2,2.6-9.6,4.2l-8.9-1.6
				l56.9-89.6l11,4.2c0,2.1-1.4,4.2-1.4,8.4c0,31.1,88.4,53.3,176.2,53.3c124.7,0,167.2-27.4,167.2-56.4
				c0-103.3-398.2,24.8-398.2-150.3c0-88.6,121.3-125.5,254.3-125.5c119.3,0,202.9,40.1,211.1,40.1c8.9,0,10.3-2.1,12.3-3.7l11,2.6
				L3418.9,217.6z"/>
		</g>
	</g>
</g>
</svg>
