<?xml version="1.0" encoding="utf-8"?>
<!-- Generator: Adobe Illustrator 26.0.3, SVG Export Plug-In . SVG Version: 6.00 Build 0)  -->
<svg version="1.1" id="Layer_1" xmlns="http://www.w3.org/2000/svg" xmlns:xlink="http://www.w3.org/1999/xlink" x="0px" y="0px"
	 viewBox="0 0 3839 429.5" style="enable-background:new 0 0 3839 429.5;" xml:space="preserve">
<style type="text/css">
	.st0{clip-path:url(#SVGID_00000101783562119854129650000006478573428280966334_);fill:#F02622;}
	.st1{clip-path:url(#SVGID_00000145752085543380397000000009333490063106563971_);fill:#DA221F;}
	.st2{clip-path:url(#SVGID_00000010996058473645360150000002561814813598834074_);fill:#F02622;}
	.st3{clip-path:url(#SVGID_00000151524402752831299920000016127452091455592851_);fill:#DA221F;}
	.st4{clip-path:url(#SVGID_00000114791036453036493620000005015211534663682972_);fill:#DA221F;}
	.st5{clip-path:url(#SVGID_00000176044288715244240960000009463909261310828221_);fill:#F02622;}
	.st6{clip-path:url(#SVGID_00000078013104950518621840000002135982984247401141_);fill:#DA221F;}
	.st7{clip-path:url(#SVGID_00000078765124956446394910000015839894118424371108_);fill:#F02622;}
	.st8{clip-path:url(#SVGID_00000160180978625833784270000008900394650685802130_);fill:#DA221F;}
	.st9{clip-path:url(#SVGID_00000129178342251834009420000000402648136554789507_);fill:#F02622;}
	.st10{clip-path:url(#SVGID_00000097460048194566836320000002930633155824205243_);fill:#DA221F;}
	.st11{clip-path:url(#SVGID_00000140710788386808651240000013801420156564001713_);fill:#F02622;}
	.st12{fill:#FFFFFF;}
	.st13{fill:#034693;}
</style>
<g>
	<g>
		<g>
			<defs>
				<rect id="SVGID_1_" width="3839" height="429.5"/>
			</defs>
			<clipPath id="SVGID_00000131367671340482509200000017004286685304609163_">
				<use xlink:href="#SVGID_1_"  style="overflow:visible;"/>
			</clipPath>
			<polygon style="clip-path:url(#SVGID_00000131367671340482509200000017004286685304609163_);fill:#F02622;" points="
				765.3,-383.5 400.1,-383.5 989.4,458.1 1354.6,458.1 			"/>
		</g>
		<g>
			<defs>
				<rect id="SVGID_00000065777355691790896380000016928667951612837294_" width="3839" height="429.5"/>
			</defs>
			<clipPath id="SVGID_00000075120957112389579490000014153431749049859225_">
				<use xlink:href="#SVGID_00000065777355691790896380000016928667951612837294_"  style="overflow:visible;"/>
			</clipPath>
			<polygon style="clip-path:url(#SVGID_00000075120957112389579490000014153431749049859225_);fill:#DA221F;" points="
				400.1,-383.5 34.9,-383.5 624.2,458.1 989.4,458.1 			"/>
		</g>
		<g>
			<defs>
				<rect id="SVGID_00000060028659042883778700000015046930255897927330_" width="3839" height="429.5"/>
			</defs>
			<clipPath id="SVGID_00000101824730024601465380000016610494451146956936_">
				<use xlink:href="#SVGID_00000060028659042883778700000015046930255897927330_"  style="overflow:visible;"/>
			</clipPath>
			<polygon style="clip-path:url(#SVGID_00000101824730024601465380000016610494451146956936_);fill:#F02622;" points="34.9,-383.5 
				-330.3,-383.5 259,458.1 624.2,458.1 			"/>
		</g>
		<g>
			<defs>
				<rect id="SVGID_00000060000686480802451240000017664787552632393388_" width="3839" height="429.5"/>
			</defs>
			<clipPath id="SVGID_00000014597758476180115440000006231949892149156230_">
				<use xlink:href="#SVGID_00000060000686480802451240000017664787552632393388_"  style="overflow:visible;"/>
			</clipPath>
			<polygon style="clip-path:url(#SVGID_00000014597758476180115440000006231949892149156230_);fill:#DA221F;" points="
				-330.3,-383.5 -695.5,-383.5 -106.2,458.1 259,458.1 			"/>
		</g>
		<g>
			<defs>
				<rect id="SVGID_00000109749953426191311760000013687383768524238749_" width="3839" height="429.5"/>
			</defs>
			<clipPath id="SVGID_00000165934460273682701810000011770044156039920033_">
				<use xlink:href="#SVGID_00000109749953426191311760000013687383768524238749_"  style="overflow:visible;"/>
			</clipPath>
			<polygon style="clip-path:url(#SVGID_00000165934460273682701810000011770044156039920033_);fill:#DA221F;" points="
				1130.5,-383.5 765.3,-383.5 1354.6,458.1 1719.8,458.1 			"/>
		</g>
		<g>
			<defs>
				<rect id="SVGID_00000163054586424548525960000005572575377259960207_" width="3839" height="429.5"/>
			</defs>
			<clipPath id="SVGID_00000178891564878842593260000009362212753529565107_">
				<use xlink:href="#SVGID_00000163054586424548525960000005572575377259960207_"  style="overflow:visible;"/>
			</clipPath>
			<polygon style="clip-path:url(#SVGID_00000178891564878842593260000009362212753529565107_);fill:#F02622;" points="
				1495.7,-383.5 1130.5,-383.5 1719.8,458.1 2085,458.1 			"/>
		</g>
		<g>
			<defs>
				<rect id="SVGID_00000125573578168789607690000000901272083023091868_" width="3839" height="429.5"/>
			</defs>
			<clipPath id="SVGID_00000018207342873467552610000009906285806121577105_">
				<use xlink:href="#SVGID_00000125573578168789607690000000901272083023091868_"  style="overflow:visible;"/>
			</clipPath>
			<polygon style="clip-path:url(#SVGID_00000018207342873467552610000009906285806121577105_);fill:#DA221F;" points="
				1860.9,-383.5 1495.7,-383.5 2085,458.1 2450.2,458.1 			"/>
		</g>
		<g>
			<defs>
				<rect id="SVGID_00000012465164706063133080000010737679811665623215_" width="3839" height="429.5"/>
			</defs>
			<clipPath id="SVGID_00000082366721447884292820000005954116820928925116_">
				<use xlink:href="#SVGID_00000012465164706063133080000010737679811665623215_"  style="overflow:visible;"/>
			</clipPath>
			<polygon style="clip-path:url(#SVGID_00000082366721447884292820000005954116820928925116_);fill:#F02622;" points="
				2226.1,-383.5 1860.9,-383.5 2450.2,458.1 2815.4,458.1 			"/>
		</g>
		<g>
			<defs>
				<rect id="SVGID_00000148629767367698913530000006432556095156128441_" width="3839" height="429.5"/>
			</defs>
			<clipPath id="SVGID_00000180342423890401327050000005121481034240276385_">
				<use xlink:href="#SVGID_00000148629767367698913530000006432556095156128441_"  style="overflow:visible;"/>
			</clipPath>
			<polygon style="clip-path:url(#SVGID_00000180342423890401327050000005121481034240276385_);fill:#DA221F;" points="
				2591.2,-383.5 2226.1,-383.5 2815.4,458.1 3180.6,458.1 			"/>
		</g>
		<g>
			<defs>
				<rect id="SVGID_00000059288625013605660900000015051083391442669197_" width="3839" height="429.5"/>
			</defs>
			<clipPath id="SVGID_00000134212326359951499950000016764347670485395620_">
				<use xlink:href="#SVGID_00000059288625013605660900000015051083391442669197_"  style="overflow:visible;"/>
			</clipPath>
			<polygon style="clip-path:url(#SVGID_00000134212326359951499950000016764347670485395620_);fill:#F02622;" points="
				2956.4,-383.5 2591.2,-383.5 3180.6,458.1 3545.7,458.1 			"/>
		</g>
		<g>
			<defs>
				<rect id="SVGID_00000000916698480832861310000007438684812513458849_" width="3839" height="429.5"/>
			</defs>
			<clipPath id="SVGID_00000089557064923562181280000003527858230159199915_">
				<use xlink:href="#SVGID_00000000916698480832861310000007438684812513458849_"  style="overflow:visible;"/>
			</clipPath>
			<polygon style="clip-path:url(#SVGID_00000089557064923562181280000003527858230159199915_);fill:#DA221F;" points="
				3321.6,-383.5 2956.4,-383.5 3545.7,458.1 3910.9,458.1 			"/>
		</g>
		<g>
			<defs>
				<rect id="SVGID_00000173149579788141089280000012323138021451337362_" width="3839" height="429.5"/>
			</defs>
			<clipPath id="SVGID_00000134236328348229429450000009116338432161931443_">
				<use xlink:href="#SVGID_00000173149579788141089280000012323138021451337362_"  style="overflow:visible;"/>
			</clipPath>
			<polygon style="clip-path:url(#SVGID_00000134236328348229429450000009116338432161931443_);fill:#F02622;" points="
				3686.8,-383.5 3321.6,-383.5 3910.9,458.1 4276.1,458.1 			"/>
		</g>
	</g>
	<g>
		<path class="st12" d="M3764.7,359.7c12.2-3.8,20.8-15.3,20.8-28.5s-8.7-24.6-20.8-28.5l-29.9-10.1h48.9v-52.8
			c0-9.4-3.8-18-10.1-24.6h10.1v-54.1c0-10.1-4.2-19.1-11.1-25.7h11.1V84.1c0-21.9-18.1-39.9-39.9-39.9c-10.4,0-20.1,4.2-27.1,10.8
			V44.2h-46.5v51.4c0,14.6,7.6,27.1,19.4,34.4c-11.5,5.9-19.4,17.7-19.4,31.6V216h10.1c-6.2,6.2-10.1,14.9-10.1,24.6v150.6
			L3764.7,359.7z"/>
		<g>
			<g>
				<path class="st13" d="M3708.4,95.5V52.2h-13.5v43.4c0,8.3,6.9,15.3,15.3,15.3c8.3,0,15.3-6.9,15.3-15.3V84.4
					c0-10.1,8.3-18.4,18.4-18.4c10.1,0,18.4,8.3,18.4,18.4v43h13.5V84.1c0-17.7-14.2-31.9-31.9-31.9S3712,66.4,3712,84.1v11.1
					c0,1-0.7,1.7-1.7,1.7C3709.1,96.9,3708.4,96.2,3708.4,95.5z"/>
				<path class="st13" d="M3745.2,84.1v43.4h13.9V84.1c0-8.3-6.9-15.3-15.3-15.3c-8.3,0-15.3,6.9-15.3,15.3v11.1
					c0,10.1-8.3,18.4-18.4,18.4c-10.1,0-18.4-8.3-18.4-18.4v-43h-13.5v43.4c0,17.7,14.2,31.9,31.9,31.9s31.9-14.2,31.9-31.9V84.4
					c0-1,0.7-1.7,1.7-1.7C3744.5,82.7,3745.2,83.4,3745.2,84.1z"/>
			</g>
			<g>
				<path class="st13" d="M3759.1,239.9c0-5.9-4.5-10.4-10.4-10.4h-43.4c-5.9,0-10.4,4.5-10.4,10.4V268h30.5v-21.5h-13.5v8h-3.1v-8
					c0-1.7,1.4-3.1,3.1-3.1h30.5c1.7,0,3.1,1.4,3.1,3.1V285h13.5L3759.1,239.9L3759.1,239.9z"/>
				<path class="st13" d="M3694.9,325.3v31.6l63.9-21.5c1.7-0.7,3.1-2.1,3.1-4.2c0-1.7-1.4-3.5-2.8-4.2l-80.9-27.8v16l28.8,9.7
					h-12.2L3694.9,325.3L3694.9,325.3z M3724.1,330.9l-13.9,4.5V326L3724.1,330.9z"/>
				<path class="st13" d="M3761.6,352c9-2.8,16-11.1,16-21.2s-6.6-18.4-15.6-20.8l-74.3-25.3h54.5v-38.2h-13.5v25h-36.8v-31.2
					c0-7.6,6.2-13.5,13.5-13.5h43.4c7.6,0,13.5,6.2,13.5,13.5V285h13.5v-45.1c0-14.9-12.2-27.1-27.1-27.1h-43.4
					c-14.9,0-27.1,12.2-27.1,27.1v55.9l81.6,28.1c3.1,1,5.2,3.8,5.2,7.3s-2.1,6.2-5.2,7.3l-68,22.9v-36.1h-13.5v54.8l0,0L3761.6,352
					z"/>
			</g>
			<g>
				<path class="st13" d="M3691.8,161.1c0-7.6,6.2-13.5,13.5-13.5h43.4c7.6,0,13.5,6.2,13.5,13.5v46.5h13.5v-46.5
					c0-14.9-12.2-27.1-27.1-27.1h-43.4c-14.9,0-27.1,12.2-27.1,27.1v46.5h13.5L3691.8,161.1L3691.8,161.1z"/>
				<path class="st13" d="M3711.6,164.3V198h13.5v-47.2H3705c-5.9,0-10.4,4.5-10.4,10.4v46.5h13.5v-40.3
					C3708.4,165.7,3709.8,164.3,3711.6,164.3z"/>
				<path class="st13" d="M3742.1,197.9v-33.7c1.7,0,3.1,1.4,3.1,3.1v39.9h13.9V161c0-5.9-4.5-10.4-10.4-10.4h-20.1v47.2
					C3728.6,197.9,3742.1,197.9,3742.1,197.9z"/>
			</g>
		</g>
	</g>
	<g>
		<path d="M357.9,185.2l-6.5-2.8c0.4-1.3,0.8-2.8,0.8-4.4c0-4.1-38.3-26-104.7-26c-63.4,0-90.7,15.1-90.7,34.5
			c0,51.4,239.8-23.8,239.8,89.6c0,41.3-52.1,73.3-156.4,73.3c-99.3,0-127.8-24.4-137.2-24.4c-2.5,0-3.7,1.6-5.7,2.5l-5.3-1
			l33.8-53.2l6.5,2.5c0,1.3-0.8,2.5-0.8,5c0,18.5,52.5,31.6,104.7,31.6c74.1,0,99.3-16.3,99.3-33.5c0-61.4-236.5,14.8-236.5-89.3
			c0-52.6,72-74.5,151-74.5c70.8,0,120.5,23.8,125.4,23.8c5.3,0,6.1-1.3,7.3-2.2l6.5,1.6L357.9,185.2z"/>
		<path d="M408.4,341.8c8.9,0,10.6-2.5,10.6-9.4V132c0-6.9-1.6-9.4-10.6-9.4v-4.4h264.2c9.7,0,13.9-2.5,13.9-6.9h5.7v52h-5.7
			c0-5.7-4.1-8.1-13.9-8.1H476.8V211h127.8c9.7,0,13.9-2.5,13.9-8.1h5.7v52.7h-5.7c0-2.5-0.8-4.4-3.3-5.7c-2.1-1.3-5.7-1.9-10.6-1.9
			H476.8v61.4h199.5c9.7,0,13.9-2.5,13.9-7.5h5.7v51.4h-5.7c0-4.4-4.1-6.9-13.9-6.9h-268v-4.6H408.4z"/>
		<path d="M1037.4,226v4.4c-4.1,0.6-7.7,3.1-7.7,10.1v61.7c0,5,2.1,6.9,7.3,7.8v4.4c-25.7,11.2-88.3,35.1-158.8,35.1
			c-93.7,0-175.9-35.7-175.9-117.1s96.1-117.2,180.8-117.2c33.3,0,65.2,6,88.3,11.6c21.5,7.2,37.5,12.8,40.3,12.8
			c3.7,0,7.3-1.6,8.9-3.4l5.7,1.9l-39.5,51.4l-5.7-2.8c0.4-1.3,0.8-3.1,0.8-5.3c0-9.7-44-29.1-98.1-29.1
			c-68.4,0-123.7,26-123.7,78.9c0,55.4,55.4,81.5,118.1,81.5c51.3,0,81.5-13.5,93.7-20.3v-26h-70c-8.1,0-13,3.1-13,7.5h-5.7v-55.1
			h5.7c0,4.4,4.9,7.5,13,7.5h135.5V226z"/>
		<path d="M1038.2,346.2v-4.4c7.3-0.3,9.7-1.9,15.5-11.9l111.1-192.3c2.1-3.1,4.5-6.5,4.5-9.4c0-3.4-3.3-5-8.5-5.7v-4.4h88.8v4.4
			c-6.1,0.6-8.5,2.5-8.5,4.7c0,2.5,1.6,5,3.7,8.1l118.1,194.5c5.7,9.7,7.3,11.9,15.9,11.9v4.4h-81.1v-4.4c5.3,0,7.3-1.6,7.3-3.1
			c0-3.4-3.7-7.8-31-52.6h-139.6c-23.6,40.7-29.8,47-29.8,51.1c0,2.8,2.5,4.4,6.1,4.7v4.4L1038.2,346.2L1038.2,346.2z M1250.4,250.4
			l-48.8-82.1l-48,82.1H1250.4z"/>
	</g>
	<g>
		<path class="st12" d="M346.1,173.4l-6.5-2.8c0.4-1.3,0.8-2.8,0.8-4.4c0-4.1-38.3-26-104.7-26c-63.4,0-90.7,15.1-90.7,34.5
			c0,51.4,239.8-23.8,239.8,89.6c0,41.3-52.1,73.3-156.4,73.3c-99.3,0-127.8-24.4-137.2-24.4c-2.5,0-3.7,1.6-5.7,2.5l-5.3-1
			l33.8-53.2l6.5,2.5c0,1.3-0.8,2.5-0.8,5c0,18.5,52.5,31.6,104.7,31.6c74.1,0,99.3-16.3,99.3-33.5c0-61.4-236.5,14.8-236.5-89.3
			c-0.1-52.6,72-74.5,150.9-74.5c70.8,0,120.5,23.8,125.4,23.8c5.3,0,6.1-1.3,7.3-2.2l6.5,1.6L346.1,173.4z"/>
		<path class="st12" d="M396.6,330c8.9,0,10.6-2.5,10.6-9.4V120.2c0-6.9-1.6-9.4-10.6-9.4v-4.4h264.2c9.7,0,13.9-2.5,13.9-6.9h5.7
			v52h-5.7c0-5.7-4.1-8.1-13.9-8.1H465v55.8h127.8c9.7,0,13.9-2.5,13.9-8.1h5.7v52.7h-5.7c0-2.5-0.8-4.4-3.3-5.7
			c-2.1-1.3-5.7-1.9-10.6-1.9H465v61.4h199.5c9.7,0,13.9-2.5,13.9-7.5h5.7v51.4h-5.7c0-4.4-4.1-6.9-13.9-6.9h-268V330H396.6z"/>
		<path class="st12" d="M1025.6,214.2v4.4c-4.1,0.6-7.7,3.1-7.7,10.1v61.7c0,5,2.1,6.9,7.3,7.8v4.4c-25.7,11.2-88.3,35.1-158.8,35.1
			c-93.7,0-175.9-35.7-175.9-117.1s96.1-117.2,180.8-117.2c33.3,0,65.2,6,88.3,11.6c21.5,7.2,37.5,12.8,40.3,12.8
			c3.7,0,7.3-1.6,8.9-3.4l5.7,1.9L975,177.7l-5.7-2.8c0.4-1.3,0.8-3.1,0.8-5.3c0-9.7-44-29.1-98.1-29.1c-68.4,0-123.7,26-123.7,78.9
			c0,55.4,55.4,81.5,118.1,81.5c51.3,0,81.5-13.5,93.7-20.3v-26h-70c-8.1,0-13,3.1-13,7.5h-5.7V207h5.7c0,4.4,4.9,7.5,13,7.5
			L1025.6,214.2L1025.6,214.2z"/>
		<path class="st12" d="M1026.4,334.4V330c7.3-0.3,9.7-1.9,15.5-11.9L1153,125.9c2.1-3.1,4.5-6.5,4.5-9.4c0-3.4-3.3-5-8.5-5.7v-4.4
			h88.8v4.4c-6.1,0.6-8.5,2.5-8.5,4.7c0,2.5,1.6,5,3.7,8.1l118,194.5c5.7,9.7,7.3,11.9,15.9,11.9v4.4h-81.1V330
			c5.3,0,7.3-1.6,7.3-3.1c0-3.4-3.7-7.8-31-52.6h-139.6c-23.6,40.7-29.8,47-29.8,51.1c0,2.8,2.5,4.4,6.1,4.7v4.4L1026.4,334.4
			L1026.4,334.4z M1238.6,238.6l-48.8-82.1l-48,82.1H1238.6z"/>
	</g>
	<g>
		<g>
			<path d="M1794,226v4.4c-4.1,0.6-7.7,3.1-7.7,10v61.7c0,5,2,6.9,7.3,7.8v4.4c-25.7,11.3-88.4,35.1-158.8,35.1
				c-93.7,0-175.9-35.7-175.9-117.1s96.1-117.2,180.8-117.2c33.4,0,65.2,6,88.4,11.6c21.6,7.2,37.5,12.8,40.3,12.8
				c3.7,0,7.3-1.6,9-3.4l5.7,1.9l-39.5,51.4l-5.7-2.8c0.4-1.2,0.8-3.1,0.8-5.3c0-9.7-44-29.1-98.1-29.1c-68.4,0-123.8,26-123.8,78.9
				c0,55.4,55.4,81.4,118.1,81.4c51.3,0,81.4-13.5,93.7-20.4v-26h-70c-8.1,0-13,3.1-13,7.5h-5.7v-55.1h5.7c0,4.4,4.9,7.5,13,7.5
				L1794,226L1794,226z"/>
			<path d="M1824.2,341.9c9,0,10.6-2.5,10.6-9.4V132c0-6.9-1.6-9.4-10.6-9.4v-4.4h264.3c9.8,0,13.8-2.5,13.8-6.9h5.7v52h-5.7
				c0-5.6-4.1-8.1-13.8-8.1h-195.9V211h127.9c9.8,0,13.8-2.5,13.8-8.1h5.7v52.6h-5.7c0-2.5-0.8-4.4-3.3-5.6c-2-1.3-5.7-1.9-10.6-1.9
				h-127.9v61.4H2092c9.8,0,13.8-2.5,13.8-7.5h5.7v51.4h-5.7c0-4.4-4.1-6.9-13.8-6.9h-267.9L1824.2,341.9L1824.2,341.9z"/>
			<path d="M2445.6,332.5c0,6.9,2.9,9.4,11,9.4v4.4h-75.3v-4.4c4.1,0,8.1-0.6,8.1-2.5c0-2.8-2.4-4.1-7.7-8.5l-183.2-151.3v152.9
				c0,6.9,2,9.4,11,9.4v4.4h-72.1v-4.4c9,0,9.8-2.5,9.8-9.4V132c0-6.9-0.8-9.4-9.8-9.4v-4.4h86.7v4.4c-7.7,0-11,1.2-11,4.1
				c0,0.9,1.6,2.5,4.5,4.7l176.7,144.4V132c0-6.9-0.8-9.4-10.6-9.4v-4.4h72.9v4.4c-8.1,0-11,2.5-11,9.4L2445.6,332.5L2445.6,332.5z"
				/>
			<path d="M2492.4,341.9c9,0,10.6-2.5,10.6-9.4V132c0-6.9-1.6-9.4-10.6-9.4v-4.4h264.3c9.8,0,13.8-2.5,13.8-6.9h5.7v52h-5.7
				c0-5.6-4.1-8.1-13.8-8.1h-195.9V211h127.9c9.8,0,13.8-2.5,13.8-8.1h5.7v52.6h-5.7c0-2.5-0.8-4.4-3.3-5.6c-2-1.3-5.7-1.9-10.6-1.9
				h-127.9v61.4h199.5c9.8,0,13.8-2.5,13.8-7.5h5.7v51.4h-5.7c0-4.4-4.1-6.9-13.8-6.9h-267.9L2492.4,341.9L2492.4,341.9z"/>
			<path d="M3064.1,185.2l-6.5-2.8c0.4-1.3,0.8-2.8,0.8-4.4c0-4.1-38.3-26-104.7-26c-63.5,0-90.8,15-90.8,34.5
				c0,51.4,239.8-23.8,239.8,89.6c0,41.3-52.1,73.3-156.4,73.3c-99.4,0-127.9-24.4-137.2-24.4c-2.4,0-3.7,1.6-5.7,2.5l-5.3-0.9
				l33.8-53.2l6.5,2.5c0,1.2-0.8,2.5-0.8,5c0,18.5,52.5,31.6,104.7,31.6c74.1,0,99.4-16.3,99.4-33.5c0-61.4-236.6,14.7-236.6-89.3
				c0-52.6,72.1-74.6,151.1-74.6c70.9,0,120.5,23.8,125.4,23.8c5.3,0,6.1-1.3,7.3-2.2l6.5,1.6L3064.1,185.2z"/>
			<path d="M3192.4,332.5c0,6.9,2,9.4,15.1,9.4v4.4h-87.6v-4.4c13,0,14.7-2.5,14.7-9.4V132c0-6.9-1.6-9.4-14.7-9.4v-4.4h87.6v4.4
				c-13,0-15.1,2.5-15.1,9.4V332.5z"/>
			<path d="M3490.1,185.2l-6.5-2.8c0.4-1.3,0.8-2.8,0.8-4.4c0-4.1-38.3-26-104.7-26c-63.5,0-90.8,15-90.8,34.5
				c0,51.4,239.8-23.8,239.8,89.6c0,41.3-52.1,73.3-156.4,73.3c-99.4,0-127.9-24.4-137.2-24.4c-2.4,0-3.7,1.6-5.7,2.5l-5.3-0.9
				l33.8-53.2l6.5,2.5c0,1.2-0.8,2.5-0.8,5c0,18.5,52.5,31.6,104.7,31.6c74.1,0,99.4-16.3,99.4-33.5c0-61.4-236.6,14.7-236.6-89.3
				c0-52.6,72.1-74.6,151.1-74.6c70.9,0,120.5,23.8,125.4,23.8c5.3,0,6.1-1.3,7.3-2.2l6.5,1.6L3490.1,185.2z"/>
		</g>
	</g>
	<g>
		<path class="st12" d="M1782.2,214.2v4.4c-4.1,0.6-7.7,3.1-7.7,10v61.7c0,5,2,6.9,7.3,7.8v4.4c-25.7,11.3-88.4,35.1-158.8,35.1
			c-93.7,0-175.9-35.7-175.9-117.1s96.1-117.2,180.8-117.2c33.4,0,65.2,6,88.4,11.6c21.6,7.2,37.5,12.8,40.3,12.8
			c3.7,0,7.3-1.6,9-3.4l5.7,1.9l-39.5,51.4l-5.7-2.8c0.4-1.2,0.8-3.1,0.8-5.3c0-9.7-44-29.1-98.1-29.1c-68.4,0-123.8,26-123.8,78.9
			c0,55.4,55.4,81.4,118.1,81.4c51.3,0,81.4-13.5,93.7-20.4v-26h-70c-8.1,0-13,3.1-13,7.5h-5.7v-55.1h5.7c0,4.4,4.9,7.5,13,7.5
			L1782.2,214.2L1782.2,214.2z"/>
		<path class="st12" d="M1812.4,330.1c9,0,10.6-2.5,10.6-9.4V120.2c0-6.9-1.6-9.4-10.6-9.4v-4.4h264.3c9.8,0,13.8-2.5,13.8-6.9h5.7
			v52h-5.7c0-5.6-4.1-8.1-13.8-8.1h-195.9v55.8h127.9c9.8,0,13.8-2.5,13.8-8.1h5.7v52.6h-5.7c0-2.5-0.8-4.4-3.3-5.6
			c-2-1.3-5.7-1.9-10.6-1.9h-127.9v61.4h199.5c9.8,0,13.8-2.5,13.8-7.5h5.7v51.4h-5.7c0-4.4-4.1-6.9-13.8-6.9h-267.9v-4.5H1812.4z"
			/>
		<path class="st12" d="M2433.8,320.7c0,6.9,2.9,9.4,11,9.4v4.4h-75.3v-4.4c4.1,0,8.1-0.6,8.1-2.5c0-2.8-2.4-4.1-7.7-8.5
			l-183.2-151.3v152.9c0,6.9,2,9.4,11,9.4v4.4h-72.1v-4.4c9,0,9.8-2.5,9.8-9.4V120.2c0-6.9-0.8-9.4-9.8-9.4v-4.4h86.7v4.4
			c-7.7,0-11,1.2-11,4.1c0,0.9,1.6,2.5,4.5,4.7L2382.5,264V120.2c0-6.9-0.8-9.4-10.6-9.4v-4.4h72.9v4.4c-8.1,0-11,2.5-11,9.4
			L2433.8,320.7L2433.8,320.7z"/>
		<path class="st12" d="M2480.6,330.1c9,0,10.6-2.5,10.6-9.4V120.2c0-6.9-1.6-9.4-10.6-9.4v-4.4h264.3c9.8,0,13.8-2.5,13.8-6.9h5.7
			v52h-5.7c0-5.6-4.1-8.1-13.8-8.1H2549v55.8h127.9c9.8,0,13.8-2.5,13.8-8.1h5.7v52.6h-5.7c0-2.5-0.8-4.4-3.3-5.6
			c-2-1.3-5.7-1.9-10.6-1.9H2549v61.4h199.5c9.8,0,13.8-2.5,13.8-7.5h5.7v51.4h-5.7c0-4.4-4.1-6.9-13.8-6.9h-267.9V330.1z"/>
		<path class="st12" d="M3052.3,173.4l-6.5-2.8c0.4-1.3,0.8-2.8,0.8-4.4c0-4.1-38.3-26-104.7-26c-63.5,0-90.8,15-90.8,34.5
			c0,51.4,239.8-23.8,239.8,89.6c0,41.3-52.1,73.3-156.4,73.3c-99.4,0-127.9-24.4-137.2-24.4c-2.4,0-3.7,1.6-5.7,2.5l-5.3-0.9
			l33.8-53.2l6.5,2.5c0,1.2-0.8,2.5-0.8,5c0,18.5,52.5,31.6,104.7,31.6c74.1,0,99.4-16.3,99.4-33.5c0-61.4-236.6,14.7-236.6-89.3
			c0-52.6,72.1-74.6,151.1-74.6c70.9,0,120.5,23.8,125.4,23.8c5.3,0,6.1-1.3,7.3-2.2l6.5,1.6L3052.3,173.4z"/>
		<path class="st12" d="M3180.6,320.7c0,6.9,2,9.4,15.1,9.4v4.4h-87.6v-4.4c13,0,14.7-2.5,14.7-9.4V120.2c0-6.9-1.6-9.4-14.7-9.4
			v-4.4h87.6v4.4c-13,0-15.1,2.5-15.1,9.4V320.7z"/>
		<path class="st12" d="M3478.3,173.4l-6.5-2.8c0.4-1.3,0.8-2.8,0.8-4.4c0-4.1-38.3-26-104.7-26c-63.5,0-90.8,15-90.8,34.5
			c0,51.4,239.8-23.8,239.8,89.6c0,41.3-52.1,73.3-156.4,73.3c-99.4,0-127.9-24.4-137.2-24.4c-2.4,0-3.7,1.6-5.7,2.5l-5.3-0.9
			l33.8-53.2l6.5,2.5c0,1.2-0.8,2.5-0.8,5c0,18.5,52.5,31.6,104.7,31.6c74.1,0,99.4-16.3,99.4-33.5c0-61.4-236.6,14.7-236.6-89.3
			c0-52.6,72.1-74.6,151.1-74.6c70.9,0,120.5,23.8,125.4,23.8c5.3,0,6.1-1.3,7.3-2.2l6.5,1.6L3478.3,173.4z"/>
	</g>
</g>
</svg>
