<?xml version="1.0" encoding="utf-8"?>
<!-- Generator: Adobe Illustrator 26.0.3, SVG Export Plug-In . SVG Version: 6.00 Build 0)  -->
<svg version="1.1" id="Layer_1" xmlns="http://www.w3.org/2000/svg" xmlns:xlink="http://www.w3.org/1999/xlink" x="0px" y="0px"
	 viewBox="0 0 3839 1052.5" style="enable-background:new 0 0 3839 1052.5;" xml:space="preserve">
<style type="text/css">
	.st0{clip-path:url(#SVGID_00000115480223602483176450000005482709602346379147_);fill:#F02622;}
	.st1{clip-path:url(#SVGID_00000115480223602483176450000005482709602346379147_);fill:#DA221F;}
	.st2{fill:#FFFFFF;}
	.st3{fill:#034693;}
	.st4{clip-path:url(#SVGID_00000119092274176330188030000016755972434918948259_);fill:#FF0025;}
	.st5{clip-path:url(#SVGID_00000119092274176330188030000016755972434918948259_);fill:#E8001C;}
	.st6{clip-path:url(#SVGID_00000119092274176330188030000016755972434918948259_);fill:#DA221F;}
	.st7{clip-path:url(#SVGID_00000119092274176330188030000016755972434918948259_);fill:#F02622;}
	.st8{clip-path:url(#SVGID_00000158028878977289410710000008049483693149858711_);fill:#F02622;}
	.st9{clip-path:url(#SVGID_00000158028878977289410710000008049483693149858711_);fill:#DA221F;}
	.st10{fill:#B2B2B2;}
	.st11{clip-path:url(#SVGID_00000052817088292150121750000002886690137105951138_);fill:#FF0025;}
	.st12{clip-path:url(#SVGID_00000052817088292150121750000002886690137105951138_);fill:#E8001C;}
	.st13{clip-path:url(#SVGID_00000052817088292150121750000002886690137105951138_);fill:#DA221F;}
	.st14{clip-path:url(#SVGID_00000052817088292150121750000002886690137105951138_);fill:#F02622;}
	.st15{clip-path:url(#SVGID_00000112634479083666300610000008111792767997342909_);fill:#FAD512;}
	.st16{clip-path:url(#SVGID_00000112634479083666300610000008111792767997342909_);fill:#FEBB09;}
	.st17{fill:#DA221F;}
	.st18{clip-path:url(#SVGID_00000137823260182581577080000006475834772030805671_);fill:#FAD512;}
	.st19{clip-path:url(#SVGID_00000137823260182581577080000006475834772030805671_);fill:#E8001C;}
	.st20{clip-path:url(#SVGID_00000137823260182581577080000006475834772030805671_);fill:#FEBB09;}
	.st21{clip-path:url(#SVGID_00000176034024346253471310000015106436535706715553_);fill:#FAD512;}
	.st22{clip-path:url(#SVGID_00000176034024346253471310000015106436535706715553_);fill:#FEBB09;}
	.st23{clip-path:url(#SVGID_00000070092522637859969530000001584650841333101735_);fill:#FF0025;}
	.st24{clip-path:url(#SVGID_00000070092522637859969530000001584650841333101735_);fill:#E8001C;}
	.st25{clip-path:url(#SVGID_00000070092522637859969530000001584650841333101735_);fill:#008ED6;}
	.st26{clip-path:url(#SVGID_00000070092522637859969530000001584650841333101735_);fill:#00A1F2;}
	.st27{clip-path:url(#SVGID_00000127750001808338380630000009505396427263524514_);fill:#FF0025;}
	.st28{clip-path:url(#SVGID_00000127750001808338380630000009505396427263524514_);fill:#E8001C;}
	.st29{clip-path:url(#SVGID_00000127750001808338380630000009505396427263524514_);fill:#008ED6;}
	.st30{clip-path:url(#SVGID_00000127750001808338380630000009505396427263524514_);fill:#00A1F2;}
	.st31{display:none;}
	.st32{display:inline;}
	.st33{clip-path:url(#SVGID_00000147921546940399408710000007030466949699108020_);fill:#F02622;}
	.st34{clip-path:url(#SVGID_00000147921546940399408710000007030466949699108020_);fill:#DA221F;}
	.st35{clip-path:url(#SVGID_00000112603346530690189860000017418451239673580983_);fill:#FF0025;}
	.st36{clip-path:url(#SVGID_00000112603346530690189860000017418451239673580983_);fill:#E8001C;}
	.st37{clip-path:url(#SVGID_00000112603346530690189860000017418451239673580983_);fill:#DA221F;}
	.st38{clip-path:url(#SVGID_00000112603346530690189860000017418451239673580983_);fill:#F02622;}
	.st39{clip-path:url(#SVGID_00000072973257567388275830000016455567710808065963_);fill:#F02622;}
	.st40{clip-path:url(#SVGID_00000072973257567388275830000016455567710808065963_);fill:#DA221F;}
	.st41{clip-path:url(#SVGID_00000153696657322970717400000017567522299782806144_);fill:#FF0025;}
	.st42{clip-path:url(#SVGID_00000153696657322970717400000017567522299782806144_);fill:#E8001C;}
	.st43{clip-path:url(#SVGID_00000153696657322970717400000017567522299782806144_);fill:#DA221F;}
	.st44{clip-path:url(#SVGID_00000153696657322970717400000017567522299782806144_);fill:#F02622;}
	.st45{clip-path:url(#SVGID_00000092433868177785471370000006208025876711932565_);fill:#FAD512;}
	.st46{clip-path:url(#SVGID_00000092433868177785471370000006208025876711932565_);fill:#FEBB09;}
	.st47{clip-path:url(#SVGID_00000103266678476673270940000012508578471097596858_);fill:#FAD512;}
	.st48{clip-path:url(#SVGID_00000103266678476673270940000012508578471097596858_);fill:#E8001C;}
	.st49{clip-path:url(#SVGID_00000103266678476673270940000012508578471097596858_);fill:#FEBB09;}
	.st50{clip-path:url(#SVGID_00000077305013574999884070000006273337370293313447_);fill:#FF0025;}
	.st51{clip-path:url(#SVGID_00000077305013574999884070000006273337370293313447_);fill:#E8001C;}
	.st52{clip-path:url(#SVGID_00000077305013574999884070000006273337370293313447_);fill:#FF981D;}
	.st53{clip-path:url(#SVGID_00000077305013574999884070000006273337370293313447_);fill:#FFAF22;}
	.st54{clip-path:url(#SVGID_00000077305013574999884070000006273337370293313447_);fill:#FAD512;}
	.st55{clip-path:url(#SVGID_00000077305013574999884070000006273337370293313447_);fill:#FEBB09;}
	.st56{clip-path:url(#SVGID_00000168823419347577753720000011388496166254322314_);fill:#FF0025;}
	.st57{clip-path:url(#SVGID_00000168823419347577753720000011388496166254322314_);fill:#E8001C;}
	.st58{clip-path:url(#SVGID_00000168823419347577753720000011388496166254322314_);fill:#008ED6;}
	.st59{clip-path:url(#SVGID_00000168823419347577753720000011388496166254322314_);fill:#00A1F2;}
	.st60{clip-path:url(#SVGID_00000044152411736429722170000012614921259998522040_);fill:#FF0025;}
	.st61{clip-path:url(#SVGID_00000044152411736429722170000012614921259998522040_);fill:#E8001C;}
	.st62{clip-path:url(#SVGID_00000044152411736429722170000012614921259998522040_);fill:#008ED6;}
	.st63{clip-path:url(#SVGID_00000044152411736429722170000012614921259998522040_);fill:#00A1F2;}
</style>
<g>
	<g>
		<path d="M497.2,409.8H521c6.7,22.5,34.3,32.9,130.4,32.9c235,0,298.5-59.5,298.5-116c0-60.8-82.4-121.4-262.5-121.4
			c-231.6,0-391.3,97.5-391.3,141.2c0,9.1,3.4,17.1,6.7,23.9l-20.5,13.1L100.8,200l23.9-10.4c6.7,4,15.5,8.1,25.9,8.1
			c49.8,0,154.3-147.9,552.3-147.9c279.7,0,490.8,116,490.8,267.9c0,89.8-63.5,159.7-173.1,184.9v2.7
			c144.2,39.7,243.7,115,243.7,240c0,170.1-216.2,291.8-549,291.8c-447.8,0-545.6-118.7-603.8-118.7c-13.8,0-23.9,5.4-34.3,11.8
			l-27.6-8.1l137.2-226.9l25.9,11.8c0,4-1.7,9.1-1.7,15.8c0,51.4,190.3,158.3,475.3,158.3c216.2,0,334.5-58.2,334.5-141.2
			c0-72.6-89.1-151.6-337.8-151.6c-128.8,0-156,14.5-161.4,38.3h-23.9V409.8H497.2z"/>
		<path d="M1308.3,244.7l23.9-14.5c3.4,4,10.4,6.7,20.5,6.7c48.1,0,176.8-187.2,542.2-187.2c212.8,0,478.7,93.8,478.7,277
			c0,351-655.2,314-830.3,535.9h827c37.7,0,51.4-10.4,51.4-31.6h23.9v221.5h-23.9c0-18.5-13.8-28.9-51.4-28.9H1269
			c0-481.7,861.3-460.5,861.3-687.5c0-85.7-128.8-130.8-245.4-130.8c-197.3-0.3-365.4,126.4-365.4,184.6c0,11.8,6.7,19.8,13.8,26.6
			l-22.2,15.8L1308.3,244.7z"/>
		<path d="M2509.5,1023.3v-18.5c43-2.7,54.8-22.5,87.4-55.5l429-423.6l-404.7-414.2c-10.4-10.4-25.9-30.3-68.6-30.3V62.5h404.7V81
			c-22.2,0-36,5.4-36,18.5c0,5.4,8.7,15.8,25.9,32.9l233.3,240l243.7-241.4c13.8-14.5,23.9-25.2,23.9-32.9
			c0-10.4-13.8-17.1-29.2-17.1V62.5h380.9V81c-56.5,1.3-79,23.9-111.6,55.5l-374.2,370.8l432.3,442.1c34.3,35.6,46.4,54.1,92.8,55.5
			v18.5h-401.4v-18.5c25.9,0,32.6-4,32.6-17.1c0-11.8-29.2-38.3-61.9-71.3l-250.4-254.8l-303.6,300.9c-8.7,9.1-15.5,13.1-15.5,25.2
			c0,10.4,13.8,17.1,36,17.1v18.5H2509.5z"/>
	</g>
	<g>
		<path class="st17" d="M447.4,360h23.9c6.7,22.5,34.3,32.9,130.4,32.9c235,0,298.5-59.5,298.5-116c0-60.8-82.4-121.4-262.5-121.4
			c-231.6,0-391.3,97.5-391.3,141.2c0,9.1,3.4,17.1,6.7,23.9l-20.5,13.1L51.1,150.3L75,139.8c6.7,4,15.5,8.1,25.9,8.1
			C150.6,147.9,255.2,0,653.2,0C932.9,0,1144,116,1144,267.9c0,89.8-63.5,159.7-173.1,184.9v2.7c144.2,39.7,243.7,115,243.7,240
			c0,170.1-216.2,291.8-549,291.8c-447.8,0-545.6-118.7-603.8-118.7c-13.8,0-23.9,5.4-34.3,11.8L0,872.4l137.2-226.9l25.9,11.8
			c0,4-1.7,9.1-1.7,15.8c0,51.4,190.3,158.3,475.3,158.3c216.2,0,334.5-58.2,334.5-141.2c0-72.6-89.1-151.6-337.8-151.6
			c-128.8,0-156,14.5-161.4,38.3h-23.9V360H447.4z"/>
		<path class="st17" d="M1258.6,195l23.9-14.5c3.4,4,10.4,6.7,20.5,6.7c48.1,0,176.8-187.2,542.2-187.2
			c212.8,0,478.7,93.8,478.7,277c0,351-655.2,314-830.3,535.9h827c37.7,0,51.4-10.4,51.4-31.6h23.9v221.5H2372
			c0-18.5-13.8-28.9-51.4-28.9H1219.3c0-481.7,861.3-460.5,861.3-687.5c0-85.7-128.8-130.8-245.4-130.8
			c-197.3-0.3-365.4,126.4-365.4,184.6c0,11.8,6.7,19.8,13.8,26.6l-22.2,15.8L1258.6,195z"/>
		<path class="st17" d="M2459.7,973.5v-18.5c43-2.7,54.8-22.5,87.4-55.5l429-423.6L2571.3,61.9c-10.4-10.4-25.9-30.3-68.6-30.3V12.8
			h404.7v18.5c-22.2,0-36,5.4-36,18.5c0,5.4,8.7,15.8,25.9,32.9l233.3,240l243.7-241.4c13.8-14.5,23.9-25.2,23.9-32.9
			c0-10.4-13.8-17.1-29.2-17.1V12.8H3750v18.5c-56.5,1.3-79,23.9-111.6,55.5l-374.2,370.8l432.3,442.1
			c34.3,35.6,46.4,54.1,92.8,55.5v18.5h-401.4v-18.5c25.9,0,32.6-4,32.6-17.1c0-11.8-29.2-38.3-61.9-71.3l-250.4-254.8l-303.6,300.9
			c-8.7,9.1-15.5,13.1-15.5,25.2c0,10.4,13.8,17.1,36,17.1v18.5H2459.7z"/>
	</g>
</g>
</svg>
