<?xml version="1.0" encoding="utf-8"?>
<!-- Generator: Adobe Illustrator 26.0.1, SVG Export Plug-In . SVG Version: 6.00 Build 0)  -->
<svg version="1.1" id="Layer_1" xmlns="http://www.w3.org/2000/svg" xmlns:xlink="http://www.w3.org/1999/xlink" x="0px" y="0px"
	 viewBox="0 0 3839 1048.4" style="enable-background:new 0 0 3839 1048.4;" xml:space="preserve">
<style type="text/css">
	.st0{fill:#E00000;}
	.st1{fill:#FFFFFF;}
	.st2{fill:#002F82;}
</style>
<g>
	<g>
		<g>
			<path d="M2461.1,1019v-18.8c43.6-2.6,55.8-22.7,88.9-56.3l435.7-430.4l-411.3-421c-10.5-10.7-26.2-30.8-69.7-30.8V42.9H2916v18.8
				c-22.6,0-36.7,5.4-36.7,18.8c0,5.4,8.7,16.1,26.2,33.6l237.1,244l247.5-245.4c13.9-14.8,24.4-25.5,24.4-33.6
				c0-10.7-13.9-17.4-29.6-17.4V42.8h386.9v18.8c-57.5,1.3-80.2,24.2-113.3,56.3l-379.9,376.7l439.2,449.2
				c34.9,36.2,47,55,94.1,56.3v18.8H3404v-18.8c26.2,0,33.1-4,33.1-17.4c0-12-29.6-38.9-62.7-72.4l-254.5-258.8l-308.5,305.8
				c-8.7,9.4-15.7,13.4-15.7,25.5c0,10.7,13.9,17.4,36.5,17.4v18.8H2461.1L2461.1,1019z"/>
		</g>
		<g>
			<g>
				<path d="M455,395.5h24.4c7,22.7,34.9,33.6,132.5,33.6c238.8,0,303.3-60.3,303.3-118c0-61.7-83.7-123.3-266.6-123.3
					c-235.3,0-397.4,99.3-397.4,143.4c0,9.4,3.5,17.4,7,24.2l-20.9,13.4L52.4,182.3l24.4-10.7c7,4,15.7,8.1,26.2,8.1
					c50.6,0,156.9-150.2,561.2-150.2c284.1,0,498.5,118,498.5,272.2c0,91.2-64.5,162.2-176,187.7v2.6
					c146.4,40.2,247.5,116.6,247.5,244c0,173-219.6,296.3-557.7,296.3c-454.9,0-554.3-120.7-613.6-120.7c-13.9,0-24.4,5.4-34.9,12
					l-28-7.9l139.4-230.6l26.2,12c0,4-1.8,9.4-1.8,16.1c0,52.3,193.4,160.9,482.8,160.9c219.6,0,339.8-59,339.8-143.4
					c0-73.8-90.6-154.1-343.4-154.1c-130.7,0-158.6,14.8-163.9,38.9h-24.4v-220H455z"/>
			</g>
		</g>
		<g>
			<g>
				<path d="M1288.8,227.9l24.4-14.8c3.5,4,10.5,6.7,20.9,6.7c48.8,0,179.5-190.3,550.7-190.3c216.1,0,486.3,95.2,486.3,281.5
					c0,356.6-665.8,319.1-843.5,544.3h840.1c38.3,0,52.3-10.7,52.3-32.1h24.4v225.2h-24.4c0-18.8-13.9-29.5-52.3-29.5h-1119
					c0-489.3,875-467.9,875-698.6c0-87.1-130.7-132.7-249.2-132.7c-200.4,0-371.2,128.7-371.2,187.7c0,12,7,20.1,13.9,26.8
					l-22.6,16.1L1288.8,227.9z"/>
			</g>
		</g>
		<g>
			<path class="st0" d="M2488.2,989.5v-18.8c43.6-2.6,55.8-22.7,88.9-56.3L3012.8,484L2601.5,63c-10.5-10.7-26.2-30.8-69.7-30.8
				V13.5h411.3v18.8c-22.6,0-36.7,5.4-36.7,18.8c0,5.4,8.7,16.1,26.2,33.6l237.1,244l247.5-245.3c13.9-14.8,24.4-25.5,24.4-33.6
				c0-10.7-13.9-17.4-29.6-17.4V13.5h386.9v18.8c-57.5,1.3-80.2,24.2-113.3,56.3l-379.9,376.7l439.2,449.2
				c34.9,36.2,47,55,94.1,56.3v18.8h-407.9v-18.8c26.2,0,33.1-4,33.1-17.4c0-12-29.6-38.9-62.7-72.4L3147,622.2l-308.5,305.7
				c-8.7,9.4-15.7,13.4-15.7,25.5c0,10.7,13.9,17.4,36.5,17.4v18.8L2488.2,989.5L2488.2,989.5z"/>
		</g>
		<g>
			<path class="st0" d="M482.2,366h24.4c7,22.7,34.9,33.6,132.5,33.6c238.8,0,303.3-60.3,303.3-118c0-61.7-83.7-123.3-266.6-123.3
				c-235.3,0-397.4,99.3-397.4,143.4c0,9.4,3.5,17.4,7,24.2l-20.9,13.4l-185-186.5l24.4-10.7c7,4,15.7,8.1,26.2,8.1
				C180.6,150.2,286.9,0,691.3,0c284.1,0,498.5,118,498.5,272.2c0,91.2-64.5,162.2-176,187.7v2.6c146.4,40.2,247.5,116.6,247.5,244
				c0,173-219.6,296.3-557.7,296.3c-454.9,0-554.3-120.7-613.6-120.7c-13.9,0-24.4,5.4-34.9,12L27.2,886l139.4-230.6l26.2,12
				c0,4-1.8,9.4-1.8,16.1c0,52.3,193.4,160.9,482.8,160.9c219.5,0.1,339.7-58.8,339.7-143.3c0-73.8-90.6-154.1-343.4-154.1
				c-130.7,0-158.6,14.8-163.9,38.9h-24.4V366H482.2z"/>
		</g>
		<g>
			<path class="st0" d="M1315.9,198.4l24.4-14.8c3.5,4,10.5,6.7,20.9,6.7C1410.1,190.3,1540.8,0,1912,0
				c216.1,0,486.3,95.2,486.3,281.5c0,356.6-665.8,319.1-843.5,544.3h840.1c38.3,0,52.3-10.7,52.3-32.1h24.4V1019H2447
				c0-18.8-13.9-29.5-52.3-29.5h-1119c0-489.3,875-467.9,875-698.6c0-87.1-130.7-132.7-249.2-132.7
				c-200.4,0-371.2,128.7-371.2,187.7c0,12,7,20.1,13.9,26.8l-22.6,16.1L1315.9,198.4z"/>
		</g>
	</g>
</g>
</svg>
