<?xml version="1.0" encoding="utf-8"?>
<!-- Generator: Adobe Illustrator 25.4.1, SVG Export Plug-In . SVG Version: 6.00 Build 0)  -->
<svg version="1.1" id="Layer_1" xmlns="http://www.w3.org/2000/svg" xmlns:xlink="http://www.w3.org/1999/xlink" x="0px" y="0px"
	 viewBox="0 0 3839 567.1" style="enable-background:new 0 0 3839 567.1;" xml:space="preserve">
<style type="text/css">
	.st0{fill:#FFFFFF;}
	.st1{fill:#034693;}
	.st2{fill:#FFFFFF;stroke:#3852A1;stroke-width:6.1873;stroke-linecap:round;stroke-linejoin:round;stroke-miterlimit:10;}
	.st3{fill:#008ED6;}
	.st4{fill:#FF0000;}
	.st5{fill:url(#SVGID_1_);}
	.st6{fill:url(#SVGID_00000176749575439817171640000006417848304556318625_);}
	.st7{fill:#F4F8F4;}
	.st8{fill:url(#SVGID_00000178199267869938836470000016024328010364337298_);}
	.st9{fill:url(#SVGID_00000056416667399968002840000009447146209847592872_);}
	.st10{fill:url(#SVGID_00000152232934383316551260000003551075975047653004_);}
	.st11{fill:url(#SVGID_00000131369484984643975950000003814219234866417082_);}
	.st12{fill:url(#SVGID_00000091005891531419574480000002465034971867305146_);}
	.st13{fill:url(#SVGID_00000113354942849321212240000015244884578686457987_);}
	.st14{fill:url(#SVGID_00000105407489548414719760000008191027273040421012_);}
	.st15{fill:url(#SVGID_00000142870186269313457700000007457695836856876982_);}
	.st16{fill:url(#SVGID_00000122687276523485871380000004830638551200318893_);}
	.st17{fill:url(#SVGID_00000015351402504396782940000007196975155907793336_);}
	.st18{fill:url(#SVGID_00000031922644818518613720000009563955102300546495_);}
	.st19{fill:url(#SVGID_00000043457105823235527880000011989897326524357040_);}
	.st20{fill:url(#SVGID_00000054973461453192926660000007251044865587605425_);}
	.st21{fill:url(#SVGID_00000096043837536101704530000003374906262479800983_);}
	.st22{fill:url(#SVGID_00000152262849016076925760000003910140143086411180_);}
	.st23{fill:url(#SVGID_00000181045874317990223060000005949399480303109817_);}
	.st24{fill:url(#SVGID_00000173162274320914927130000002987594145040514215_);}
	.st25{fill:url(#SVGID_00000134958036880283806860000009123041214322815673_);}
	.st26{fill:url(#SVGID_00000114056648599286910910000000543914992300787621_);}
	.st27{fill:url(#SVGID_00000170276465118843201170000009794343013697820580_);}
	.st28{fill:url(#SVGID_00000049921017648177077510000007099510364851145856_);}
	.st29{fill:url(#SVGID_00000066516419168939285410000017612120794376956599_);}
	.st30{fill:#DBDCD9;}
	.st31{fill:url(#SVGID_00000127007871658122306990000010998165925047033749_);}
	.st32{fill:url(#SVGID_00000092456178808726992020000012406521663471934866_);}
	.st33{fill:url(#SVGID_00000060739841844330262050000012155431352923038375_);}
	.st34{fill:url(#SVGID_00000068659681057698760980000018131713104160889994_);}
	.st35{fill:url(#SVGID_00000065051148159908668890000002162151911344603782_);}
	.st36{fill:url(#SVGID_00000015322801797949185330000001691672725163218100_);}
	.st37{fill:url(#SVGID_00000147200230088224230920000016210414260187721886_);}
	.st38{fill:url(#SVGID_00000106831703129827178720000005552938030767117471_);}
	.st39{fill:url(#SVGID_00000010273524513944241260000005699850710023014076_);}
	.st40{fill:url(#SVGID_00000104669542529948242090000016613344491661983654_);}
	.st41{fill:url(#SVGID_00000043422923236275368910000000886043000859358343_);}
	.st42{fill:url(#SVGID_00000088122918900258629690000002086709032023040429_);}
	.st43{fill:url(#SVGID_00000042714323666585267820000006362039813782388157_);}
	.st44{fill:url(#SVGID_00000158745097868019869640000010680883407826047128_);}
	.st45{fill:url(#SVGID_00000047053889799468420220000015600070770428836258_);}
	.st46{fill:url(#SVGID_00000139291739943884364250000016588416099197391509_);}
	.st47{fill:url(#SVGID_00000030462234089909552090000008789556536893793205_);}
	.st48{fill:url(#SVGID_00000140699342752257149590000006362519364902149280_);}
	.st49{fill:url(#SVGID_00000018952648999087163530000006087765578822612372_);}
	.st50{fill:url(#SVGID_00000170262808785492067350000014898487796606391462_);}
	.st51{fill:url(#SVGID_00000160174608766488838180000006982779196644762550_);}
	.st52{fill:url(#SVGID_00000002369950511020743070000010017056726404796071_);}
	.st53{fill:url(#SVGID_00000035510908174092491200000011467026776043633028_);}
	.st54{fill:url(#SVGID_00000070834421924058000260000013768434062020403870_);}
	.st55{fill:url(#SVGID_00000167385225969133117760000013957436443718025648_);}
	.st56{fill:url(#SVGID_00000134960336857616171810000013642072720040211609_);}
	.st57{fill:url(#SVGID_00000047061523813838225520000012872489102365089964_);}
	.st58{fill:url(#SVGID_00000179642865701165611500000001909913722958089914_);}
	.st59{fill:url(#SVGID_00000113336433770181241880000007567546311123971488_);}
	.st60{fill:url(#SVGID_00000056428355063850910850000008089310271689217450_);}
	.st61{fill:url(#SVGID_00000078037326294142582730000018030535070788390579_);}
	.st62{fill:url(#SVGID_00000091721104170990643230000014092701637985471620_);}
	.st63{fill:url(#SVGID_00000036970522115383249860000002536469070439074233_);}
	.st64{fill:url(#SVGID_00000127738113494181115120000003990718868192746664_);}
	.st65{fill:url(#SVGID_00000111901948008607178480000002390983803032066217_);}
	.st66{fill:url(#SVGID_00000024721521926137231000000014316662142844823187_);}
	.st67{fill:url(#SVGID_00000025415527849468282010000013424604398295558573_);}
	.st68{fill:url(#SVGID_00000173849117189262735400000016292989265066013583_);}
	.st69{fill:url(#SVGID_00000029012053516499646710000000448529433501532337_);}
	.st70{fill:url(#SVGID_00000127034912707352961000000015173586229463550887_);}
	.st71{fill:url(#SVGID_00000109022578477641586850000015316780092700479157_);}
	.st72{fill:url(#SVGID_00000102514201518534273370000004985948028454346157_);}
	.st73{fill:url(#SVGID_00000137854491066504041410000009959067411467415436_);}
	.st74{fill:url(#SVGID_00000083783034519500850290000005162722862430438047_);}
	.st75{fill:url(#SVGID_00000067922724140819209440000013478041146445517237_);}
	.st76{fill:url(#SVGID_00000025435227500667683790000003759007521289504408_);}
	.st77{fill:url(#SVGID_00000069362575145770668340000014741641802319128486_);}
	.st78{fill:url(#SVGID_00000046340629235195819470000017299223410959659657_);}
	.st79{fill:url(#SVGID_00000012471272195279107900000000696182788275465605_);}
	.st80{fill:url(#SVGID_00000081639539104075836710000012693476804375549059_);}
	.st81{fill:url(#SVGID_00000083082287174716403800000004921023350336254095_);}
	.st82{fill:url(#SVGID_00000137817500915464914540000004241042522104453815_);}
	.st83{fill:url(#SVGID_00000166635377044464835470000017149890897987823549_);}
	.st84{fill:url(#SVGID_00000135661562633406211620000012336539295221817216_);}
	.st85{fill:url(#SVGID_00000029013987136213910980000008106520897152595376_);}
	.st86{fill:url(#SVGID_00000121972978804574461910000006718379459471699862_);}
	.st87{fill:url(#SVGID_00000161613848513012485070000006233926659318728864_);}
	.st88{fill:url(#SVGID_00000070113739843419497690000013747695093687164565_);}
	.st89{fill:url(#SVGID_00000080885183162818584380000011162656212004462490_);}
	.st90{fill:url(#SVGID_00000129897320755850477010000010890670382002063783_);}
	.st91{fill:url(#SVGID_00000183208272082325171230000010766977909821903777_);}
	.st92{fill:url(#SVGID_00000052095742958785962550000002598813690480913081_);}
	.st93{fill:url(#SVGID_00000119840274186465505560000006504076855461730734_);}
	.st94{fill:url(#SVGID_00000108993004737650859060000014230767517937283975_);}
	.st95{fill:url(#SVGID_00000151501249152620046340000000756088736391060889_);}
	.st96{fill:url(#SVGID_00000124135502778591683630000016644218068042725515_);}
	.st97{fill:url(#SVGID_00000149356016683129314760000013428512359182243745_);}
	.st98{fill:url(#SVGID_00000126305837623022362450000000805636009045224104_);}
	.st99{fill:url(#SVGID_00000051376224374416351650000011364011424673644724_);}
	.st100{fill:url(#SVGID_00000164498608637094441830000003188599456551685512_);}
	.st101{fill:url(#SVGID_00000070811100768067067060000006911830346906000776_);}
	.st102{fill:url(#SVGID_00000062875822842419921070000009545542648153517226_);}
	.st103{fill:url(#SVGID_00000047048111009513387270000005962881199231380609_);}
	.st104{fill:url(#SVGID_00000123424554629479979840000016601927623453989814_);}
	.st105{fill:url(#SVGID_00000126311845454393325390000016016825275990609026_);}
	.st106{fill:url(#SVGID_00000090980398329977055100000002546907186668035748_);}
	.st107{fill:url(#SVGID_00000134243625691335950640000017147151172705811892_);}
	.st108{fill:url(#SVGID_00000126316835089237558380000011970363000994202044_);}
	.st109{fill:url(#SVGID_00000104699002501881463040000017375110753253554312_);}
	.st110{fill:url(#SVGID_00000040534125805003263150000007905024672319186108_);}
	.st111{fill:url(#SVGID_00000114765400310214345860000005822667164657947556_);}
	.st112{fill:url(#SVGID_00000072963267686800943870000008279277107260725382_);}
	.st113{fill:url(#SVGID_00000115490138710947711240000011346992028716612748_);}
	.st114{fill:url(#SVGID_00000141454803066119081820000017905015624242935956_);}
	.st115{fill:url(#SVGID_00000051383183413353877320000012688523700619410845_);}
	.st116{fill:url(#SVGID_00000011751670797351868000000016851700521822761101_);}
	.st117{fill:url(#SVGID_00000096053903574110143290000003873278206802510735_);}
	.st118{fill:url(#SVGID_00000103228055096843662080000017486714799550448260_);}
	.st119{fill:url(#SVGID_00000086683056344786329950000013775777122357821582_);}
	.st120{fill:url(#SVGID_00000129919126996552400470000011490305886879795637_);}
	.st121{fill:url(#SVGID_00000060752184273703801480000013502280742371290778_);}
	.st122{fill:url(#SVGID_00000134932045881510317680000010545525451047037088_);}
	.st123{fill:url(#SVGID_00000130626540398563903760000014379132933758557612_);}
	.st124{fill:url(#SVGID_00000034077297934820485110000006559208989628847005_);}
	.st125{fill:url(#SVGID_00000151529999244278567310000006485470658982595515_);}
	.st126{fill:url(#SVGID_00000039095428286954441450000018333074263340932511_);}
	.st127{fill:url(#SVGID_00000053534834541778308280000009766454832167031708_);}
	.st128{fill:url(#SVGID_00000147923237234548221000000011268111286765075592_);}
	.st129{fill:url(#SVGID_00000153693480914925607540000016876479892789915823_);}
	.st130{fill:url(#SVGID_00000122691054520994165890000006549839645789362353_);}
	.st131{fill:url(#SVGID_00000103952473995900888860000006459963100371162004_);}
	.st132{fill:url(#SVGID_00000078751254039990789910000012673751020896954301_);}
	.st133{fill:url(#SVGID_00000039813652362230252170000000210593928769794720_);}
	.st134{fill:url(#SVGID_00000043441835454178631580000009993998334373098154_);}
	.st135{fill:url(#SVGID_00000134223994799046636800000003231694963078894739_);}
	.st136{fill:url(#SVGID_00000070841129903409274900000014838209832284836781_);}
	.st137{fill:url(#SVGID_00000142894333631215082490000000610442341856393103_);}
	.st138{fill:url(#SVGID_00000063618875434758945560000017340392407898944158_);}
	.st139{fill:url(#SVGID_00000127734368898948910960000006223951818085776535_);}
	.st140{fill:url(#SVGID_00000051368591700779271920000009902442490898005404_);}
	.st141{fill:url(#SVGID_00000158724726558469260970000006365926936834714539_);}
	.st142{fill:url(#SVGID_00000023246500139244559920000015524780198414224542_);}
	.st143{fill:url(#SVGID_00000005238233857471561680000005383840399007492498_);}
	.st144{fill:url(#SVGID_00000153669227503500770850000012001226933118291107_);}
	.st145{fill:url(#SVGID_00000044885878691227928680000013081862832945750713_);}
	.st146{fill:url(#SVGID_00000158721478101683172890000016355449854743006594_);}
	.st147{fill:url(#SVGID_00000001656651381701450040000006301959951768400823_);}
	.st148{fill:url(#SVGID_00000049912714515260154850000018275795953797845134_);}
	.st149{fill:url(#SVGID_00000115478724931028410060000007744486868710748077_);}
	.st150{fill:url(#SVGID_00000128479844780886455860000009458286373782135729_);}
	.st151{fill:url(#SVGID_00000034092193102742054910000015304628908193530518_);}
	.st152{fill:url(#SVGID_00000173120738940291783400000013438779920000505480_);}
	.st153{fill:url(#SVGID_00000107575811806927998150000002945380357804737199_);}
	.st154{fill:url(#SVGID_00000157308224876169791940000010270052469534674828_);}
	.st155{fill:url(#SVGID_00000092433385339838032630000007478516537430314661_);}
	.st156{fill:url(#SVGID_00000039102187058212023250000012705413733562379668_);}
	.st157{fill:url(#SVGID_00000010305378066597575300000015218620476048409509_);}
	.st158{fill:url(#SVGID_00000062172358642393126340000012211804083960737980_);}
	.st159{fill:url(#SVGID_00000113315286842696699670000015362400143978670497_);}
	.st160{fill:url(#SVGID_00000095303747061247092700000008035247447123649958_);}
	.st161{fill:url(#SVGID_00000040536070237160752300000009875615932087708598_);}
	.st162{fill:url(#SVGID_00000119805443955850274790000012825876724112926115_);}
	.st163{fill:url(#SVGID_00000061472961538716919720000012796860583490815157_);}
	.st164{fill:url(#SVGID_00000028305254360576517910000005874027447936715432_);}
	.st165{fill:url(#SVGID_00000011730295789275991750000004926431740185442237_);}
	.st166{fill:url(#SVGID_00000076584255909363109100000013453279519094052490_);}
	.st167{fill:url(#SVGID_00000182497758219715916800000017694311145958080654_);}
	.st168{fill:url(#SVGID_00000127045226090129263190000005380095005612414882_);}
	.st169{fill:url(#SVGID_00000013898352846866637450000016409952467464044982_);}
	.st170{fill:url(#SVGID_00000128461758592443258540000013825347024565849787_);}
	.st171{fill:url(#SVGID_00000062174496220283226500000001723778471238532535_);}
	.st172{fill:url(#SVGID_00000139984782951023820760000018129280078425477017_);}
	.st173{fill:url(#SVGID_00000131330051383708692710000002007566386373970309_);}
	.st174{fill:url(#SVGID_00000115491322266917944180000000483189740203413940_);}
	.st175{fill:url(#SVGID_00000102524560813853260170000003218404820356203403_);}
	.st176{fill:url(#SVGID_00000103962965629986396370000005824647954233019278_);}
	.st177{fill:url(#SVGID_00000031167104082231723240000011326105122115278730_);}
	.st178{fill:url(#SVGID_00000082344934535560595350000012152943831709867402_);}
	.st179{fill:url(#SVGID_00000099648332979770978740000017314348954409508753_);}
	.st180{fill:url(#SVGID_00000122692966371604732060000008717992118914592390_);}
	.st181{fill:url(#SVGID_00000106105968393097224420000013007061627551318916_);}
	.st182{fill:url(#SVGID_00000068641428309266192210000005014208569113425804_);}
	.st183{fill:url(#SVGID_00000052079019243598031900000008244487481476867772_);}
	.st184{fill:url(#SVGID_00000047033152977654075560000016101028443311270795_);}
	.st185{fill:url(#SVGID_00000101068051387202547600000010713472948133422978_);}
	.st186{fill:url(#SVGID_00000003811322394264811010000003467353544803026869_);}
	.st187{fill:url(#SVGID_00000091706066845499480610000003315055275473450388_);}
	.st188{fill:url(#SVGID_00000044165311350704937760000002808694923916937886_);}
	.st189{fill:url(#SVGID_00000155116286112095423440000007291496800714557828_);}
	.st190{fill:url(#SVGID_00000018229169934426783790000017073941155051635603_);}
	.st191{fill:url(#SVGID_00000060008197647045702440000008190712460921553307_);}
	.st192{fill:url(#SVGID_00000146500207022353000520000012813223544553565865_);}
	.st193{fill:url(#SVGID_00000003816109252701675030000008705379012849565084_);}
	.st194{fill:url(#SVGID_00000103956361879244594090000000097456715537860521_);}
	.st195{fill:#F6F7F7;}
	.st196{fill:url(#SVGID_00000136406710791938354550000006767313756555648694_);}
	.st197{fill:url(#SVGID_00000042013708257658613440000003979268010336552070_);}
	.st198{fill:url(#SVGID_00000179637149325823097690000007241304458343073693_);}
	.st199{fill:url(#SVGID_00000016075772270708162790000000834276579880667547_);}
	.st200{fill:url(#SVGID_00000146475103221388413490000012847301792288320652_);}
	.st201{fill:url(#SVGID_00000018943634036722139060000005967917744172597157_);}
	.st202{fill:url(#SVGID_00000160148486402952039710000002943503166574142906_);}
	.st203{fill:url(#SVGID_00000142134820403969483460000010185756370361362313_);}
	.st204{fill:url(#SVGID_00000058580861163370477690000004105947250596940466_);}
	.st205{fill:url(#SVGID_00000147212240594993589240000005525095075719546529_);}
	.st206{fill:url(#SVGID_00000134240454092531771720000008943257247206018198_);}
	.st207{fill:url(#SVGID_00000030485524595772141870000004792686674521219991_);}
	.st208{fill:url(#SVGID_00000047040858548605467360000005215931042189810059_);}
	.st209{fill:url(#SVGID_00000182516604061302235250000011233012497547104662_);}
	.st210{fill:#A8988B;}
	.st211{fill:#0C0002;}
</style>
<g>
	<g>
		<g>
			<path class="st1" d="M3441.4,238.1h-471.7c-196.1,0-423.2-56.6-532.2-107.6c-5.4-2.5-11.8-1.3-15.8,3.1
				c-98.4,107.8-359.9,120.3-502.2,120.3l0,0c-142.3,0-403.8-12.5-502.2-120.2c-4-4.4-10.4-5.6-15.8-3.1
				c-109,51-336.1,107.6-532.2,107.6H397.7C178.1,238.1,0,311.8,0,402.6s178.1,164.5,397.7,164.5h3043.6
				c219.6,0,397.7-73.6,397.7-164.5C3839.1,311.8,3661,238.1,3441.4,238.1z"/>
		</g>
		<path class="st0" d="M3370.9,274.8H468.2c-209.7,0-379.6,57.2-379.6,127.8s170,127.8,379.6,127.8H3371
			c209.7,0,379.6-57.2,379.6-127.8C3750.5,332,3580.6,274.8,3370.9,274.8z"/>
		<ellipse class="st1" cx="1919.5" cy="117.7" rx="427.4" ry="117.7"/>
		<g>
			<g>
				<g>
					<path class="st0" d="M1733.4,140.8c5.3,0.1,10.5,0.1,15.8,0.2c1.2,0,2.2,1,2.2,2.3s-1,2.3-2.2,2.2c-20.4-0.3-40.7-0.6-61.1-0.9
						c0,6.4,0,12.7,0,19.1c20.4,0.6,40.8,1.2,61.2,1.6c11.8,0.3,21.4-9.5,21.4-21.9c0-12.4-9.6-22.4-21.4-22.4
						c-5.3-0.1-10.6-0.1-16-0.2c-14.3-0.1-25.9-11.8-25.9-26.3c0-14.4,11.6-26.5,25.9-26.9c20.4-0.5,40.7-1,61.1-1.4
						c0-6.8,0-13.5,0-20.3c-20.4,0.5-40.7,1.1-61.1,1.9c-25,1-45.3,22.2-45.3,47C1688.1,119.9,1708.4,140.4,1733.4,140.8z"/>
					<path class="st0" d="M1851.1,91c18.8-0.1,37.5-0.1,56.3-0.2c0-6.9,0-13.8,0-20.7c-21.8,0-43.5,0.2-65.3,0.4
						c-8.1,0.1-14.6,7.2-14.6,15.8c0,10,0,20,0,30c22,0,44,0,66.1,0c0-6.9,0-13.7,0-20.6c-15.6,0-31.3,0.1-46.9,0.1
						C1846.5,95.9,1846.6,91.1,1851.1,91z"/>
					<path class="st0" d="M1733.4,92.1c20.3-0.3,40.7-0.5,61.1-0.7c0-6.7,0-13.5,0-20.2c-20.4,0.3-40.7,0.7-61.1,1.2
						c-11.8,0.3-21.4,10.3-21.4,22.3s9.6,21.6,21.4,21.7c5.3,0.1,10.6,0.1,16,0.2c14.3,0,25.9,12.1,25.9,27
						c0,15-11.6,26.9-25.9,26.5c-20.4-0.5-40.8-1.1-61.2-1.8c0,6.5,0,12.9,0,19.4c20.4,0.9,40.8,1.8,61.1,2.4
						c25,1,45.3-19.9,45.3-46.3s-20.3-47.6-45.3-47.3c-5.3,0.1-10.6,0.2-15.9,0.3c-1.3,0-2.3-1-2.3-2.3
						C1731.2,93.2,1732.2,92.1,1733.4,92.1z"/>
					<path class="st0" d="M1893.5,121.2c-22,0-44,0-66.1,0c0,10,0,20,0,30c0,8.6,6.6,15.6,14.7,15.7c21.7,0.2,43.3,0.3,65,0.4
						c0-6.8,0-13.7,0-20.5c-18.7,0-37.3-0.1-56-0.2c0,0-4.5,0-4.6-4.9c15.6,0.1,31.3,0.1,46.9,0.2
						C1893.5,135,1893.5,128.1,1893.5,121.2z"/>
					<path class="st0" d="M2118.1,165c-10.2-30.6-20.5-61.7-30.7-93.3c-0.6-1.9-2-3.4-3.8-4.1c-3.3-1.3-6.8,0.4-8,3.8
						c-12.9,39.4-25.9,79.6-38.8,120.1c7.6-0.2,15.1-0.4,22.7-0.6c4.6-14.3,9.2-28.6,13.8-42.7c0,5.9,0,11.9,0,17.8
						C2088.2,165.7,2103.2,165.4,2118.1,165z M2081.5,122.8c2.3,7,4.5,13.9,6.8,20.8c-4.5,0.1-9.1,0.1-13.6,0.2
						C2077,136.7,2079.2,129.7,2081.5,122.8z"/>
					<path class="st0" d="M1961.9,90.8c18.1,0.1,36.2,0.1,54.3,0.3c0-6.8,0-13.6,0-20.3c-21.1-0.3-42.2-0.4-63.3-0.5
						c-8.1,0-14.7,7-14.7,15.7c0,21.9,0,43.7,0,65.6l0,0c0,8.7,6.6,15.8,14.7,15.8c13.2-0.1,26.3-0.2,39.5-0.3c0-15.3,0-30.6,0-45.9
						c-10.2,0-20.4,0-30.6,0c0,6.9,0,13.8,0,20.6c3.8,0,7.6,0,11.3,0c0,1.6,0,3.2,0,4.8c-3.8,0-7.5,0-11.3,0c-2.5,0-4.5-2.2-4.5-4.8
						c0-15.4-0.1-30.7-0.1-46.1C1957.4,95.7,1957.4,90.9,1961.9,90.8z"/>
					<path class="st0" d="M1953,192.8c21.1-0.1,42.2-0.4,63.3-0.8l0,0c5.3-0.1,10.6-0.2,15.8-0.3c13.2-41.4,26.4-82.3,39.6-122.5
						c1.7-4.1,5.5-6.7,9.9-6.6c4.3,0.1,8.2,2.9,9.9,7c11,33.8,22,67,33,99.6c-17,0.5-34,1-51.1,1.4c0,6.7,0,13.3,0,20
						c25.9-0.8,51.8-1.8,77.7-3c-13.5-39.2-26.9-79.6-40.4-120.8c-3.5-12-15.2-21.3-29-21.8c-13.8-0.5-25.5,8.2-29,20.4
						c-12.1,37.1-24.2,74.7-36.3,112.6c0-27.3,0-54.6,0-81.9c-18.1-0.1-36.2-0.2-54.4-0.2c0,6.9,0,13.7,0,20.6c11.7,0,23.4,0,35.1,0
						c0,18.5,0,37,0,55.5c-14.7,0.2-29.3,0.3-44,0.4c-10.6,0.1-19.2-9.2-19.2-20.6c0-21.9,0-43.8,0-65.6c0-11.4,8.6-20.6,19.2-20.6
						c21.1,0.1,42.2,0.3,63.3,0.6c0-6.8,0-13.6,0-20.4c-21.1-0.4-42.3-0.7-63.4-0.8c-21.2-0.1-38.5,18.4-38.5,41.2
						c0,21.9,0,43.8,0,65.6C1914.5,174.4,1931.7,193,1953,192.8z"/>
					<path class="st0" d="M1842,192.3c21.7,0.4,43.4,0.6,65,0.6c0-6.9,0-13.8,0-20.6c-21.7,0-43.3-0.2-65-0.4
						c-10.6-0.1-19.3-9.3-19.3-20.7c0-21.7,0-43.4,0-65c0-11,8.7-20.3,19.3-20.4c21.8-0.2,43.5-0.4,65.3-0.4c0-6.9,0-13.8,0-20.7
						c-21.8,0.1-43.5,0.2-65.3,0.6c-21.2,0.4-38.5,18.9-38.5,41.3c0,21.5,0,43,0,64.5C1803.6,173.3,1820.8,192,1842,192.3z"/>
				</g>
			</g>
		</g>
		<g>
			<rect x="358.6" y="365.8" class="st1" width="78.3" height="129.9"/>
			<rect x="530.8" y="365.8" class="st1" width="78.3" height="129.9"/>
			<rect x="702.9" y="365.8" class="st1" width="78.3" height="129.9"/>
			<rect x="1504.5" y="365.8" class="st1" width="78.3" height="129.9"/>
			<rect x="2735.8" y="365.8" class="st1" width="78.3" height="129.9"/>
			<rect x="2371.8" y="365.8" class="st1" width="78.3" height="129.9"/>
			<polygon class="st1" points="2715,495.7 2612.4,495.7 2573.5,456.8 2620.8,401.5 			"/>
			<rect x="1997.6" y="365.8" class="st1" width="78.3" height="129.9"/>
			<rect x="1738.3" y="365.8" class="st1" width="78.3" height="129.9"/>
			<path class="st1" d="M779.3,354.2H358.6v-44.7h376C759.3,309.5,779.3,329.5,779.3,354.2L779.3,354.2z"/>
			<rect x="824.7" y="309.5" class="st1" width="279.1" height="44.7"/>
			<path class="st1" d="M903,439.4v-11.6h185v-44.7H914.6c-6.4,0-11.6-5.2-11.6-11.6v-5.7h-78.3v17.3v44.7v13.4
				c0,30.1,24.4,54.4,54.4,54.4h224.7v-44.7H914.6C908.2,451,903,445.8,903,439.4z"/>
			<rect x="3219.2" y="309.5" class="st1" width="279.1" height="44.7"/>
			<path class="st1" d="M3297.5,439.4v-11.6h185v-44.7h-173.4c-6.4,0-11.6-5.2-11.6-11.6v-5.7h-78.3v17.3v44.7v13.4
				c0,30.1,24.4,54.4,54.4,54.4h224.7v-44.7h-189.3C3302.7,451,3297.5,445.8,3297.5,439.4z"/>
			<path class="st1" d="M1451.6,354.2h-310.1l0,0c0-24.7,20-44.7,44.7-44.7h265.5L1451.6,354.2L1451.6,354.2z"/>
			<path class="st1" d="M1279.2,383.1v44.7h98c6.4,0,11.6,5.2,11.6,11.6l0,0c0,6.4-5.2,11.6-11.6,11.6h-145.9
				c-6.4,0-11.6-5.2-11.6-11.6v-73.6h-78.3v75.4c0,30.1,24.4,54.5,54.5,54.5h23.8h191.2c31.1,0,56.3-25.2,56.3-56.3l0,0
				c0-31.1-25.2-56.3-56.3-56.3L1279.2,383.1L1279.2,383.1z"/>
			<path class="st1" d="M2245,365.8v73.6c0,6.4-5.2,11.6-11.6,11.6h-145.8v44.7h181.3c30.1,0,54.5-24.4,54.5-54.5v-75.4L2245,365.8
				L2245,365.8z"/>
			<path class="st1" d="M1816.6,354.2h-312l0,0c0-24.7,20-44.7,44.7-44.7h222.6C1796.6,309.5,1816.6,329.5,1816.6,354.2
				L1816.6,354.2z"/>
			<path class="st1" d="M2323.3,354.2h-325.6v-44.7h281C2303.4,309.5,2323.3,329.5,2323.3,354.2L2323.3,354.2z"/>
			<rect x="2735.8" y="309.5" class="st1" width="78.3" height="44.7"/>
			<rect x="1594.5" y="405.5" class="st1" width="199.6" height="52.8"/>
			<path class="st1" d="M2371.8,354.2L2371.8,354.2h233.7v39.7c0,6.4-5.2,11.6-11.6,11.6h-132.2v52.8h162.9
				c35.8,0,65.1-29.3,65.1-65.1v-18.6c0-35.9-29.1-65.1-65.1-65.1h-208.3C2391.8,309.5,2371.8,329.5,2371.8,354.2z"/>
			<circle class="st1" cx="182.5" cy="397.2" r="50"/>
			<circle class="st1" cx="3651.2" cy="397.2" r="50"/>
			<g>
				<polygon class="st1" points="3161.1,354.2 3189.8,309.5 3096.7,309.5 3068,354.2 				"/>
				<polygon class="st1" points="2961.4,354.2 2932.7,309.5 2839.6,309.5 2868.3,354.2 				"/>
				<polygon class="st1" points="3060.5,365.8 3014.7,437 2969,365.8 2875.8,365.8 2959.4,495.7 3070,495.7 3153.6,365.8 				"/>
			</g>
		</g>
	</g>
</g>
</svg>
