<?xml version="1.0" encoding="utf-8"?>
<!-- Generator: Adobe Illustrator 26.0.3, SVG Export Plug-In . SVG Version: 6.00 Build 0)  -->
<svg version="1.1" id="Layer_1" xmlns="http://www.w3.org/2000/svg" xmlns:xlink="http://www.w3.org/1999/xlink" x="0px" y="0px"
	 viewBox="0 0 3839 1266.7" style="enable-background:new 0 0 3839 1266.7;" xml:space="preserve">
<style type="text/css">
	.st0{clip-path:url(#SVGID_00000010298817356776711800000009795351339849972903_);fill:#FAD512;}
	.st1{clip-path:url(#SVGID_00000143595288636301868940000006072793828549418404_);fill:#FEBB09;}
	.st2{clip-path:url(#SVGID_00000070825560236742265700000002382206975075822733_);fill:#FAD512;}
	.st3{clip-path:url(#SVGID_00000005965149873707064560000009201046309248328084_);fill:#FEBB09;}
	.st4{clip-path:url(#SVGID_00000026886101077266460530000013951132621518211495_);fill:#FAD512;}
	.st5{fill:#FFFFFF;}
	.st6{fill:#034693;}
	.st7{fill:#DA221F;}
</style>
<g>
	<g>
		<g>
			<defs>
				<rect id="SVGID_1_" width="3839" height="1266.7"/>
			</defs>
			<clipPath id="SVGID_00000011730447090499889620000003915805259143777430_">
				<use xlink:href="#SVGID_1_"  style="overflow:visible;"/>
			</clipPath>
			<polygon style="clip-path:url(#SVGID_00000011730447090499889620000003915805259143777430_);fill:#FAD512;" points="
				-918.5,-1131.2 -1995.6,-1131.2 -257.4,1351.2 819.7,1351.2 			"/>
		</g>
		<g>
			<defs>
				<rect id="SVGID_00000137820611668221508940000003719143925882928316_" width="3839" height="1266.7"/>
			</defs>
			<clipPath id="SVGID_00000129902115304182063900000014179631816585996477_">
				<use xlink:href="#SVGID_00000137820611668221508940000003719143925882928316_"  style="overflow:visible;"/>
			</clipPath>
			<polygon style="clip-path:url(#SVGID_00000129902115304182063900000014179631816585996477_);fill:#FEBB09;" points="
				158.7,-1131.2 -918.5,-1131.2 819.7,1351.2 1896.9,1351.2 			"/>
		</g>
		<g>
			<defs>
				<rect id="SVGID_00000085950620557324574410000012659688796448046722_" width="3839" height="1266.7"/>
			</defs>
			<clipPath id="SVGID_00000178201182195864948860000011889406105691280292_">
				<use xlink:href="#SVGID_00000085950620557324574410000012659688796448046722_"  style="overflow:visible;"/>
			</clipPath>
			<polygon style="clip-path:url(#SVGID_00000178201182195864948860000011889406105691280292_);fill:#FAD512;" points="
				1235.8,-1131.2 158.7,-1131.2 1896.9,1351.2 2974,1351.2 			"/>
		</g>
		<g>
			<defs>
				<rect id="SVGID_00000173149262939037305170000013873131669891411644_" width="3839" height="1266.7"/>
			</defs>
			<clipPath id="SVGID_00000062898395025157069160000014672507391091061694_">
				<use xlink:href="#SVGID_00000173149262939037305170000013873131669891411644_"  style="overflow:visible;"/>
			</clipPath>
			<polygon style="clip-path:url(#SVGID_00000062898395025157069160000014672507391091061694_);fill:#FEBB09;" points="
				2313,-1131.2 1235.8,-1131.2 2974,1351.2 4051.2,1351.2 			"/>
		</g>
		<g>
			<defs>
				<rect id="SVGID_00000042712988351591546400000014187366149220064897_" width="3839" height="1266.7"/>
			</defs>
			<clipPath id="SVGID_00000155141670624118471510000011109895020549156765_">
				<use xlink:href="#SVGID_00000042712988351591546400000014187366149220064897_"  style="overflow:visible;"/>
			</clipPath>
			<polygon style="clip-path:url(#SVGID_00000155141670624118471510000011109895020549156765_);fill:#FAD512;" points="
				3390.1,-1131.2 2313,-1131.2 4051.2,1351.2 5128.3,1351.2 			"/>
		</g>
	</g>
	<g>
		<path class="st5" d="M3619.8,1060.8c35.8-11.3,61.4-45.1,61.4-83.9c0-38.9-25.6-72.7-61.4-83.9l-88.1-29.7H3676V707.7
			c0-27.7-11.3-53.2-29.7-72.7h29.7V475.3c0-29.7-12.3-56.3-32.7-75.8h32.7V248c0-64.5-53.3-117.7-117.7-117.7
			c-30.7,0-59.4,12.3-79.9,31.7v-31.7h-137.2v151.5c0,43,22.5,79.8,57.3,101.4c-33.8,17.4-57.3,52.2-57.3,93.1V637h29.7
			c-18.4,18.4-29.7,44-29.7,72.7V1154L3619.8,1060.8z"/>
		<g>
			<g>
				<path class="st6" d="M3453.9,281.8v-128H3414v128c0,24.6,20.5,45,45,45s45-20.5,45-45V249c0-29.7,24.6-54.3,54.3-54.3
					s54.2,24.6,54.2,54.3v127h39.9V248c0-52.2-42-94.2-94.2-94.2s-94.2,42-94.2,94.2v32.7c0,3.1-2.1,5.1-5.1,5.1
					S3453.9,283.8,3453.9,281.8z"/>
				<path class="st6" d="M3562.4,248v128h41V248c0-24.6-20.5-45-45-45c-24.6,0-45,20.5-45,45v32.7c0,29.7-24.6,54.3-54.3,54.3
					s-54.3-24.6-54.3-54.3V153.8h-39.9v128c0,52.2,42,94.2,94.2,94.2s94.2-42,94.2-94.2V249c0-3.1,2.1-5.1,5.1-5.1
					C3560.4,243.9,3562.4,246,3562.4,248z"/>
			</g>
			<g>
				<path class="st6" d="M3603.4,707.7c0-17.4-13.3-30.7-30.7-30.7h-128c-17.4,0-30.7,13.3-30.7,30.7v82.9h90.1v-63.5h-39.9v23.5
					h-9.2v-23.5c0-5.1,4.1-9.2,9.2-9.2h90.1c5.1,0,9.2,4.1,9.2,9.2v113.6h39.9L3603.4,707.7L3603.4,707.7z"/>
				<path class="st6" d="M3414,959.5v93.1l188.4-63.5c5.1-2.1,9.2-6.1,9.2-12.3c0-5.1-4.1-10.2-8.2-12.3l-238.5-81.9v47.1l85,28.7
					H3414V959.5L3414,959.5z M3500,975.9l-41,13.3v-27.7L3500,975.9z"/>
				<path class="st6" d="M3610.6,1038.3c26.6-8.2,47.1-32.7,47.1-62.5s-19.4-54.3-46.1-61.4l-219.1-74.7h160.7V727.1h-39.9v73.7
					h-108.5v-92.2c0-22.5,18.4-39.9,39.9-39.9h127.9c22.5,0,39.9,18.4,39.9,39.9v132.1h39.9V707.6c0-44-35.8-79.8-79.8-79.8h-128
					c-44,0-79.8,35.8-79.8,79.8v164.8l240.6,82.9c9.2,3.1,15.4,11.3,15.4,21.5s-6.1,18.4-15.4,21.5l-200.6,67.6V959.5h-39.9v161.8
					l0,0L3610.6,1038.3z"/>
			</g>
			<g>
				<path class="st6" d="M3404.8,475.3c0-22.5,18.4-39.9,39.9-39.9h128c22.5,0,39.9,18.4,39.9,39.9v137.2h39.9V475.3
					c0-44-35.8-79.8-79.8-79.8h-128c-44,0-79.8,35.8-79.8,79.8v137.2h39.9L3404.8,475.3L3404.8,475.3z"/>
				<path class="st6" d="M3463.2,484.5v99.3h39.9V444.6h-59.4c-17.4,0-30.7,13.3-30.7,30.7v137.2h39.9V493.7
					C3453.9,488.6,3458,484.5,3463.2,484.5z"/>
				<path class="st6" d="M3553.2,583.8v-99.3c5.1,0,9.2,4.1,9.2,9.2v117.7h40.9V475.3c0-17.4-13.3-30.7-30.7-30.7h-59.4v139.2
					C3513.3,583.8,3553.2,583.8,3553.2,583.8z"/>
			</g>
		</g>
	</g>
	<g>
		<path d="M584.7,591.7h16.7c4.7,15.8,24,23.1,91.3,23.1c164.5,0,209-41.7,209-81.2c0-42.6-57.7-84.9-183.8-84.9
			c-162.1,0-273.9,68.2-273.9,98.8c0,6.4,2.4,12,4.7,16.7l-14.4,9.2l-127-128.6l16.7-7.3c4.7,2.8,10.8,5.6,18.1,5.6
			c34.8,0,108-103.5,386.6-103.5c195.8,0,343.6,81.2,343.6,187.5c0,62.8-44.5,111.8-121.2,129.4v1.9
			c100.9,27.8,170.6,80.5,170.6,168c0,119.1-151.3,204.3-384.3,204.3c-313.4,0-381.9-83.1-422.6-83.1c-9.6,0-16.7,3.8-24,8.2
			l-19.3-5.6l96-158.8l18.1,8.2c0,2.8-1.2,6.4-1.2,11.1c0,36,133.2,110.8,332.7,110.8c151.3,0,234.1-40.7,234.1-98.8
			c0-50.8-62.4-106.1-236.5-106.1c-90.1,0-109.2,10.1-113,26.8H585V591.7H584.7z"/>
		<path d="M1152.5,476.1l16.7-10.1c2.4,2.8,7.3,4.7,14.4,4.7c33.6,0,123.8-131.1,379.6-131.1c149,0,335.1,65.7,335.1,193.9
			c0,245.7-458.6,219.8-581.2,375.1H1896c26.4,0,36-7.3,36-22.1h16.7v155.1H1932c0-12.9-9.6-20.2-36-20.2h-771
			c0-337.2,602.9-322.4,602.9-481.2c0-60-90.1-91.5-171.8-91.5c-138.1-0.2-255.8,88.5-255.8,129.2c0,8.2,4.7,13.9,9.6,18.6
			l-15.5,11.1L1152.5,476.1z"/>
		<path d="M1993.3,1021.1v-12.9c30.1-1.9,38.4-15.8,61.2-38.8l300.3-296.5L2071.5,383c-7.3-7.3-18.1-21.2-48-21.2v-13.2h283.3v12.9
			c-15.5,0-25.2,3.8-25.2,12.9c0,3.8,6.1,11.1,18.1,23.1l163.3,168l170.6-169c9.6-10.1,16.7-17.6,16.7-23.1c0-7.3-9.6-12-20.5-12
			v-12.9h266.6v12.9c-39.5,0.9-55.3,16.7-78.1,38.8l-261.9,259.5L2859,969.3c24,24.9,32.5,37.9,64.9,38.8v12.9h-281v-12.9
			c18.1,0,22.8-2.8,22.8-12c0-8.2-20.5-26.8-43.3-49.9l-175.3-178.4l-212.5,210.6c-6.1,6.4-10.8,9.2-10.8,17.6c0,7.3,9.6,12,25.2,12
			v12.9h-255.7V1021.1z"/>
	</g>
	<g>
		<path class="st7" d="M549.9,556.9h16.7c4.7,15.8,24,23.1,91.3,23.1c164.5,0,209-41.7,209-81.2c0-42.6-57.7-84.9-183.8-84.9
			c-162.1,0-273.9,68.2-273.9,98.8c0,6.4,2.4,12,4.7,16.7l-14.4,9.2L272.5,410l16.7-7.3c4.7,2.8,10.8,5.6,18.1,5.6
			c34.8,0,108-103.5,386.6-103.5c195.8,0,343.6,81.2,343.6,187.5c0,62.8-44.5,111.8-121.2,129.4v1.9
			c100.9,27.8,170.6,80.5,170.6,168c0,119.1-151.3,204.3-384.3,204.3c-313.4,0-381.9-83.1-422.6-83.1c-9.6,0-16.7,3.8-24,8.2
			l-19.3-5.6l96-158.8l18.1,8.2c0,2.8-1.2,6.4-1.2,11.1c0,36,133.2,110.8,332.7,110.8c151.3,0,234.1-40.7,234.1-98.8
			c0-50.8-62.4-106.1-236.5-106.1c-90.1,0-109.2,10.1-112.9,26.8h-16.7V556.9H549.9z"/>
		<path class="st7" d="M1117.7,441.3l16.7-10.1c2.4,2.8,7.3,4.7,14.4,4.7c33.6,0,123.8-131.1,379.6-131.1
			c149,0,335.1,65.7,335.1,193.9c0,245.7-458.6,219.8-581.2,375.1h578.9c26.4,0,36-7.3,36-22.1h16.7v155.1h-16.7
			c0-12.9-9.6-20.2-36-20.2h-770.9c0-337.2,602.9-322.4,602.9-481.2c0-60-90.1-91.5-171.8-91.5c-138.1-0.2-255.8,88.5-255.8,129.2
			c0,8.2,4.7,13.9,9.6,18.6l-15.5,11.1L1117.7,441.3z"/>
		<path class="st7" d="M1958.5,986.3v-12.9c30.1-1.9,38.4-15.8,61.2-38.8L2320,638.1l-283.3-289.9c-7.3-7.3-18.1-21.2-48-21.2v-13.2
			H2272v12.9c-15.5,0-25.2,3.8-25.2,12.9c0,3.8,6.1,11.1,18.1,23.1l163.3,168l170.6-169c9.6-10.1,16.7-17.6,16.7-23.1
			c0-7.3-9.6-12-20.5-12v-12.9h266.6v12.9c-39.5,0.9-55.3,16.7-78.1,38.8l-261.9,259.5l302.6,309.4c24,24.9,32.5,37.9,64.9,38.8V986
			h-281v-12.9c18.1,0,22.8-2.8,22.8-12c0-8.2-20.5-26.8-43.3-49.9l-175.3-178.4l-212.5,210.6c-6.1,6.4-10.8,9.2-10.8,17.6
			c0,7.3,9.6,12,25.2,12v12.9h-255.7V986.3z"/>
	</g>
</g>
</svg>
