<?xml version="1.0" encoding="utf-8"?>
<!-- Generator: Adobe Illustrator 25.4.1, SVG Export Plug-In . SVG Version: 6.00 Build 0)  -->
<svg version="1.1" id="Layer_1" xmlns="http://www.w3.org/2000/svg" xmlns:xlink="http://www.w3.org/1999/xlink" x="0px" y="0px"
	 viewBox="0 0 3839 819.6" style="enable-background:new 0 0 3839 819.6;" xml:space="preserve">
<style type="text/css">
	.st0{fill:#FFFFFF;}
	.st1{fill:#034693;}
	.st2{fill:#FFFFFF;stroke:#3852A1;stroke-width:6.1873;stroke-linecap:round;stroke-linejoin:round;stroke-miterlimit:10;}
	.st3{fill:#008ED6;}
	.st4{fill:#FF0000;}
	.st5{fill:url(#SVGID_1_);}
	.st6{fill:url(#SVGID_00000179613386034538699610000015364159640487061664_);}
	.st7{fill:#F4F8F4;}
	.st8{fill:url(#SVGID_00000047759199462920235110000008394611781957591936_);}
	.st9{fill:url(#SVGID_00000164503290347747866470000007848458840190988175_);}
	.st10{fill:url(#SVGID_00000083059654876375034000000018278691515459270539_);}
	.st11{fill:url(#SVGID_00000138567063916333316860000001603283116424300932_);}
	.st12{fill:url(#SVGID_00000059999857940076293370000003198724505557921981_);}
	.st13{fill:url(#SVGID_00000055705348103961576960000003087879705386128041_);}
	.st14{fill:url(#SVGID_00000152974188429511394360000007721438350197887153_);}
	.st15{fill:url(#SVGID_00000162335480400495399240000003377708626578579602_);}
	.st16{fill:url(#SVGID_00000018201003893588004100000002999349627401257610_);}
	.st17{fill:url(#SVGID_00000181786616998403372850000017904273341561816465_);}
	.st18{fill:url(#SVGID_00000002384565778370401730000000997881785669020089_);}
	.st19{fill:url(#SVGID_00000121272525851312087200000016648067993764230789_);}
	.st20{fill:url(#SVGID_00000090270911500856674670000005683955531574348468_);}
	.st21{fill:url(#SVGID_00000109001725267381763450000003334322109447963553_);}
	.st22{fill:url(#SVGID_00000008830223485818710350000015316512969497822106_);}
	.st23{fill:url(#SVGID_00000022541576701495182590000013558259599341802390_);}
	.st24{fill:url(#SVGID_00000126288512905917030290000018427939676443513250_);}
	.st25{fill:url(#SVGID_00000025417437955745300600000007493892405418150300_);}
	.st26{fill:url(#SVGID_00000065042484535558066280000003732277162576114349_);}
	.st27{fill:url(#SVGID_00000030480570118890380100000000987358560745997227_);}
	.st28{fill:url(#SVGID_00000080167325676571978140000015502772323350238869_);}
	.st29{fill:url(#SVGID_00000082368250573726306210000017448616310726412427_);}
	.st30{fill:#DBDCD9;}
	.st31{fill:url(#SVGID_00000163752978518422140630000005875349745880296112_);}
	.st32{fill:url(#SVGID_00000169544449993546254420000014451363507535364777_);}
	.st33{fill:url(#SVGID_00000167392908793968163410000011179926908154925460_);}
	.st34{fill:url(#SVGID_00000014593565683491428770000014569656356154284974_);}
	.st35{fill:url(#SVGID_00000045592091924031109490000005180399998892744847_);}
	.st36{fill:url(#SVGID_00000170975227778611421710000010084955342672546700_);}
	.st37{fill:url(#SVGID_00000016783804682324695590000005344758596438737837_);}
	.st38{fill:url(#SVGID_00000146464917853120249870000003710488427338346418_);}
	.st39{fill:url(#SVGID_00000155128704810230604470000012650972294906488727_);}
	.st40{fill:url(#SVGID_00000001632645447785340410000003952060788624992953_);}
	.st41{fill:url(#SVGID_00000018936018711049081820000010361614794714868113_);}
	.st42{fill:url(#SVGID_00000022557475499817927580000012678910122326037681_);}
	.st43{fill:url(#SVGID_00000116926197017425873830000009876493724459113099_);}
	.st44{fill:url(#SVGID_00000114031990188239609630000007160299620527098043_);}
	.st45{fill:url(#SVGID_00000005245391434672050060000004356474278768824495_);}
	.st46{fill:url(#SVGID_00000130608570502923033800000010283329653491380886_);}
	.st47{fill:url(#SVGID_00000014604425251962025420000016738872104722538887_);}
	.st48{fill:url(#SVGID_00000026843612582063531260000005430204496034017433_);}
	.st49{fill:url(#SVGID_00000101818423418004489200000000893666478492232630_);}
	.st50{fill:url(#SVGID_00000147192379671422186200000010183226118313995914_);}
	.st51{fill:url(#SVGID_00000067914497444500415260000010890497834179834526_);}
	.st52{fill:url(#SVGID_00000037682096511523170340000005045399905892461208_);}
	.st53{fill:url(#SVGID_00000041296453146896272770000001163872349022953102_);}
	.st54{fill:url(#SVGID_00000049224293183363955860000000095709150280002953_);}
	.st55{fill:url(#SVGID_00000040566906902184767980000013714930139942849446_);}
	.st56{fill:url(#SVGID_00000054237568568065564990000017855286554735923074_);}
	.st57{fill:url(#SVGID_00000098907126299317702370000000876407956875882125_);}
	.st58{fill:url(#SVGID_00000062193565512235326030000016264330891806326963_);}
	.st59{fill:url(#SVGID_00000085967968440525872140000010337693967666082947_);}
	.st60{fill:url(#SVGID_00000050643415723597649400000015798639521799439252_);}
	.st61{fill:url(#SVGID_00000127730761175196984280000002647655223439510923_);}
	.st62{fill:url(#SVGID_00000122000121671558004850000006908095436295750546_);}
	.st63{fill:url(#SVGID_00000031913869595407107530000010150442511387652524_);}
	.st64{fill:url(#SVGID_00000092441391459503158260000004304993898938710207_);}
	.st65{fill:url(#SVGID_00000000922717741716772800000011577810822905112988_);}
	.st66{fill:url(#SVGID_00000103248646851746941520000003616471117010932157_);}
	.st67{fill:url(#SVGID_00000052792156320087924300000000633031358482670776_);}
	.st68{fill:url(#SVGID_00000132781370187663840970000009146499221145465518_);}
	.st69{fill:url(#SVGID_00000003812442677480219790000004343203093017510283_);}
	.st70{fill:url(#SVGID_00000098942767027461679240000006926341103913375901_);}
	.st71{fill:url(#SVGID_00000150066228822171402160000010662202893956323984_);}
	.st72{fill:url(#SVGID_00000161613507641632348660000010982691985646608781_);}
	.st73{fill:url(#SVGID_00000001628447586763453860000009859339865435645084_);}
	.st74{fill:url(#SVGID_00000142139930238886811780000008262443854070453663_);}
	.st75{fill:url(#SVGID_00000009577906457743034980000009325919196423634873_);}
	.st76{fill:url(#SVGID_00000017513149488439662500000008572523511561793211_);}
	.st77{fill:url(#SVGID_00000070094989367980686970000017696980626275956906_);}
	.st78{fill:url(#SVGID_00000075861591300619425790000010784027956783625899_);}
	.st79{fill:url(#SVGID_00000094610238461932687280000014843013846083572400_);}
	.st80{fill:url(#SVGID_00000149345852030812423390000012069226688573875381_);}
	.st81{fill:url(#SVGID_00000145749932502173136580000015255783994598926248_);}
	.st82{fill:url(#SVGID_00000116226014155190696460000004122401571585986475_);}
	.st83{fill:url(#SVGID_00000166662751620807734230000016736330233981975970_);}
	.st84{fill:url(#SVGID_00000049210016516799319730000003078256423100143011_);}
	.st85{fill:url(#SVGID_00000131341329993131137830000014804573104539761846_);}
	.st86{fill:url(#SVGID_00000081640970161145449650000007708917137313529007_);}
	.st87{fill:url(#SVGID_00000021830339157040466510000017187883399058433212_);}
	.st88{fill:url(#SVGID_00000069357870901912030900000011840403784964422827_);}
	.st89{fill:url(#SVGID_00000131335886477738729860000000000995649354071429_);}
	.st90{fill:url(#SVGID_00000039838577970441243420000010152882158491789199_);}
	.st91{fill:url(#SVGID_00000101062826697162100830000007671846892958512299_);}
	.st92{fill:url(#SVGID_00000114765208452841913160000003934371117745198516_);}
	.st93{fill:url(#SVGID_00000161611029926564066700000016095569677495096468_);}
	.st94{fill:url(#SVGID_00000181056506618501481120000002081371341976761785_);}
	.st95{fill:url(#SVGID_00000138538259480248910690000014533891968501307284_);}
	.st96{fill:url(#SVGID_00000183942163899936418300000006958333926939411863_);}
	.st97{fill:url(#SVGID_00000106120682574172897410000007546120762874270399_);}
	.st98{fill:url(#SVGID_00000066500150290864309040000007335564675773322387_);}
	.st99{fill:url(#SVGID_00000096037842150461353520000013522182854769565619_);}
	.st100{fill:url(#SVGID_00000070840810481205085570000007935898709811380616_);}
	.st101{fill:url(#SVGID_00000168822102562717021630000001931608405972137372_);}
	.st102{fill:url(#SVGID_00000164481130235103695460000014278819285487323029_);}
	.st103{fill:url(#SVGID_00000151520849820065527220000009338050814322667953_);}
	.st104{fill:url(#SVGID_00000117654038547002471210000011608136644836941746_);}
	.st105{fill:url(#SVGID_00000010283149099268116620000011298126520482806460_);}
	.st106{fill:url(#SVGID_00000181088237748087480410000003560777742317568692_);}
	.st107{fill:url(#SVGID_00000156575785113214277770000010083292302670734502_);}
	.st108{fill:url(#SVGID_00000106843277815096543330000017468521297251168900_);}
	.st109{fill:url(#SVGID_00000088824523142758512680000014830951266855777965_);}
	.st110{fill:url(#SVGID_00000149353472046719204210000001762833274154617533_);}
	.st111{fill:url(#SVGID_00000129913109143060929810000007948501802128205448_);}
	.st112{fill:url(#SVGID_00000067226013788218140950000007446706773430856066_);}
	.st113{fill:url(#SVGID_00000129912940445284976400000003739347329519037063_);}
	.st114{fill:url(#SVGID_00000121999339937745133550000007373493409566567862_);}
	.st115{fill:url(#SVGID_00000048490921498210702630000008883090296399205527_);}
	.st116{fill:url(#SVGID_00000032647612586579395050000003734372331508981693_);}
	.st117{fill:url(#SVGID_00000105390478225188121370000015699138965016275382_);}
	.st118{fill:url(#SVGID_00000066515573173723334700000012165745043941229209_);}
	.st119{fill:url(#SVGID_00000151502476049643791980000005061162663284565435_);}
	.st120{fill:url(#SVGID_00000123419478619710136040000010132316565488581564_);}
	.st121{fill:url(#SVGID_00000026853556388177342510000013704793364935126712_);}
	.st122{fill:url(#SVGID_00000161597761449322408720000009214855550559876767_);}
	.st123{fill:url(#SVGID_00000176037565204285541410000013175010521244633743_);}
	.st124{fill:url(#SVGID_00000158029000221416423960000014265376149244855455_);}
	.st125{fill:url(#SVGID_00000078763956761126160230000001724009200403105467_);}
	.st126{fill:url(#SVGID_00000061435718041740225930000002946981332841343908_);}
	.st127{fill:url(#SVGID_00000044889871077466466730000002717507660895299727_);}
	.st128{fill:url(#SVGID_00000036964032358784686320000006437786785662256793_);}
	.st129{fill:url(#SVGID_00000091007292146914695950000000916525624919423421_);}
	.st130{fill:url(#SVGID_00000109021196437946630200000016924585450451459485_);}
	.st131{fill:url(#SVGID_00000110473228271871378030000016715067850810545307_);}
	.st132{fill:url(#SVGID_00000135678826101035007550000011362070864334483868_);}
	.st133{fill:url(#SVGID_00000008132843614454124170000012864981341199531149_);}
	.st134{fill:url(#SVGID_00000016058095953587262720000018388533326789377922_);}
	.st135{fill:url(#SVGID_00000037690606605328323690000008187577680536679068_);}
	.st136{fill:url(#SVGID_00000013885691577684024720000000868262662313747593_);}
	.st137{fill:url(#SVGID_00000116233533155857573520000002413214998763610540_);}
	.st138{fill:url(#SVGID_00000029748092597161454460000008757812393574032788_);}
	.st139{fill:url(#SVGID_00000043435832151198278340000017212166584492955284_);}
	.st140{fill:url(#SVGID_00000010299814645281579320000000307140411583704734_);}
	.st141{fill:url(#SVGID_00000026871746777832988690000000557642876585684649_);}
	.st142{fill:url(#SVGID_00000119804007574179438600000017953706971056556678_);}
	.st143{fill:url(#SVGID_00000174601143305351523880000007787462856042391202_);}
	.st144{fill:url(#SVGID_00000124872588833371128030000018363697668134484364_);}
	.st145{fill:url(#SVGID_00000096020125236066041920000014645483046887595926_);}
	.st146{fill:url(#SVGID_00000175291002377798410130000015221011224029917850_);}
	.st147{fill:url(#SVGID_00000160164889807669797850000006271522037148764552_);}
	.st148{fill:url(#SVGID_00000085949071170688247660000007802411008791173020_);}
	.st149{fill:url(#SVGID_00000139288706438701755530000007335068468253384116_);}
	.st150{fill:url(#SVGID_00000049930540869984583660000008462435917181902743_);}
	.st151{fill:url(#SVGID_00000005240114668922449800000004390360388121916350_);}
	.st152{fill:url(#SVGID_00000138556402801339797060000010770218610594325673_);}
	.st153{fill:url(#SVGID_00000040548103325161333070000017681336101195035570_);}
	.st154{fill:url(#SVGID_00000117639919961659017590000014669683785023265436_);}
	.st155{fill:url(#SVGID_00000121966649710233462120000000085298929291043006_);}
	.st156{fill:url(#SVGID_00000005947524100146218100000000430918390381698949_);}
	.st157{fill:url(#SVGID_00000148655718827745976120000000022725071800857747_);}
	.st158{fill:url(#SVGID_00000098912955005996130540000000863597609653441419_);}
	.st159{fill:url(#SVGID_00000033365639586612724370000016173501720727036319_);}
	.st160{fill:url(#SVGID_00000163030310482883565540000016664539770787277975_);}
	.st161{fill:url(#SVGID_00000078753997539262247160000015112752139885123242_);}
	.st162{fill:url(#SVGID_00000101824420941053101700000000329589976411917755_);}
	.st163{fill:url(#SVGID_00000151526795314917109850000007334015182295726212_);}
	.st164{fill:url(#SVGID_00000152959707067420988110000004585530399420680862_);}
	.st165{fill:url(#SVGID_00000092454247494157900420000004690011971786949053_);}
	.st166{fill:url(#SVGID_00000034777102369785016220000011919765416838562713_);}
	.st167{fill:url(#SVGID_00000047057994906973815820000014677301932423175090_);}
	.st168{fill:url(#SVGID_00000028307207564379808270000009896889405079929763_);}
	.st169{fill:url(#SVGID_00000168091313647479373060000014246248104590443410_);}
	.st170{fill:url(#SVGID_00000178187257991314665380000009742831390998978750_);}
	.st171{fill:url(#SVGID_00000106829243962012937980000007244897870186505880_);}
	.st172{fill:url(#SVGID_00000115486792846186791270000000022511768695942590_);}
	.st173{fill:url(#SVGID_00000116913815165819790860000016546998547482367160_);}
	.st174{fill:url(#SVGID_00000065047089365886324690000011787317282994667146_);}
	.st175{fill:url(#SVGID_00000093888772923851993260000004420503229855839133_);}
	.st176{fill:url(#SVGID_00000178910647319111304690000008221853855589391498_);}
	.st177{fill:url(#SVGID_00000170276432691502756000000008251089026071905689_);}
	.st178{fill:url(#SVGID_00000062889662435564257700000011763024060698616739_);}
	.st179{fill:url(#SVGID_00000155148245243252389590000010596253576968736189_);}
	.st180{fill:url(#SVGID_00000138533656882331019930000012437998203684098229_);}
	.st181{fill:url(#SVGID_00000044138486489218894160000003977440543805833143_);}
	.st182{fill:url(#SVGID_00000042694290939451437880000013566515025709207465_);}
	.st183{fill:url(#SVGID_00000174583067416785129000000017555609861821385114_);}
	.st184{fill:url(#SVGID_00000016761486843720460480000003308010135916415111_);}
	.st185{fill:url(#SVGID_00000124840153729052659400000008243821838394982833_);}
	.st186{fill:url(#SVGID_00000043446616321958530000000003223163586622784953_);}
	.st187{fill:url(#SVGID_00000092443603219155094660000008363147924904879777_);}
	.st188{fill:url(#SVGID_00000036213171108136920630000011958150365921572020_);}
	.st189{fill:url(#SVGID_00000125562560821206764940000003117188609786685844_);}
	.st190{fill:url(#SVGID_00000128460926503601130050000009237379594213060492_);}
	.st191{fill:url(#SVGID_00000134233026984853064130000012707669027868865168_);}
	.st192{fill:url(#SVGID_00000031208244773960479320000014750570301169320380_);}
	.st193{fill:url(#SVGID_00000044145712441485589530000004462546653325301893_);}
	.st194{fill:url(#SVGID_00000181784376733839925580000008992897698207911301_);}
	.st195{fill:#F6F7F7;}
	.st196{fill:url(#SVGID_00000133512086171526157590000005244466900281263031_);}
	.st197{fill:url(#SVGID_00000106859761012433765130000015019335715114448517_);}
	.st198{fill:url(#SVGID_00000154411029397447709500000006185079130789480606_);}
	.st199{fill:url(#SVGID_00000128479144263448971630000017780143042948931726_);}
	.st200{fill:url(#SVGID_00000069396343568860710640000004914349586879991945_);}
	.st201{fill:url(#SVGID_00000148627888298488628940000005785013917748448700_);}
	.st202{fill:url(#SVGID_00000043434786315253724060000009360517240116840346_);}
	.st203{fill:url(#SVGID_00000180352322529769684370000005889096019792197817_);}
	.st204{fill:url(#SVGID_00000091009659479757339410000016711096484155794091_);}
	.st205{fill:url(#SVGID_00000182488016801594974910000008933989494189533315_);}
	.st206{fill:url(#SVGID_00000110467144011050366100000006906004884620598461_);}
	.st207{fill:url(#SVGID_00000117647352929664494230000015337311871864824987_);}
	.st208{fill:url(#SVGID_00000045584817678413620080000008673415754912367033_);}
	.st209{fill:url(#SVGID_00000134221514782128783970000010052242209286151593_);}
	.st210{fill:#A8988B;}
	.st211{fill:#0C0002;}
</style>
<g>
	<g>
		<g>
			<g>
				<rect x="2897.2" y="463.2" class="st1" width="102.1" height="356.2"/>
				<g>
					<polygon class="st1" points="3140.3,582.3 3038.2,615 3038.2,463.2 3140.3,463.2 					"/>
					<polygon class="st1" points="3444.5,615 3342.3,582.3 3342.3,463.2 3444.5,463.2 					"/>
					<polygon class="st1" points="3159.2,819.5 3282.2,819.5 3071.3,463.2 3038.2,615 					"/>
					<polygon class="st1" points="3323.4,819.5 3200.4,819.5 3411.3,463.2 3444.5,615 					"/>
				</g>
				<path class="st1" d="M381.3,488.6L360.4,524v-60.7H237.8c-16.8,0-32.5,9.5-41.9,25.4L0,819.5h123.1l157.4-265.8h62.3
					L185.4,819.5h123.1l164.4-277.4c2.1-3.5,6.9-1.8,6.9,2.4v275.1h102.1V463.2H423.2C406.4,463.2,390.7,472.7,381.3,488.6z"/>
				<path class="st1" d="M795.7,538.9h186.5v-75.7l-154.9-0.6H717.8c-8.5,0-16.4,4.8-21.1,12.7l-49,82.7v261.4h334.4v-75.6H749.9
					v-64.4h187.6l44.8-75.7H749.9v-10.4l24.7-41.8C779.3,543.7,787.2,538.9,795.7,538.9z"/>
				<path class="st1" d="M3652.5,538.9H3839v-75.7l-154.9-0.6h-109.6c-8.5,0-16.4,4.8-21.1,12.7l-49,82.7v261.4H3839v-75.6h-232.3
					v-64.4h187.6l44.8-75.7h-232.3v-10.4l24.7-41.8C3636.2,543.7,3644.1,538.9,3652.5,538.9z"/>
				<path class="st1" d="M1866,819.5l-195.7-330.6c-9.5-16-25.4-25.7-42.4-25.7h-186.1v356.2h102.1V679.7V538.9h17
					c9.9,0,19.2,5.6,24.8,15l74.6,125.9H1544l44.8,75.7h0.2h116.2l37.9,64.1H1866z"/>
				<path class="st1" d="M1388.9,604H1378h-90.8h-32.4l-44.6,75.4h43.6v0.3h33.5v64.1h-170.7V614.2l37.1-62.6
					c4.7-8,12.6-12.8,21.1-12.8H1369v-75.7h-162.9l0.4-0.6h-105.5c-11,0-21.2,6.2-27.3,16.5l-59.1,99.8V779
					c0,22.3,15.9,40.4,35.6,40.4h40.4h26.1h170.6h66.6c19.6,0,35.6-18.1,35.6-40.4v-35.2V604H1388.9z"/>
				<path class="st1" d="M2360.9,496.7c-12.4-20.9-33.1-33.5-55.4-33.5h-87.6h-191.8v356.2h257.2h22c22.2,0,43-12.6,55.4-33.5
					l72.5-122.4c2.6-4.4,4-9.7,4-15V634c0-5.3-1.4-10.6-4-15L2360.9,496.7z M2262.8,743.8h-134.5V538.9h134.5l51.1,86.3
					c5.8,9.8,5.8,22.5,0,32.3L2262.8,743.8z"/>
				<path class="st1" d="M2755.2,686.5l58.7-99.1c2.6-4.4,4-9.7,4-15v-12.4c0-5.3-1.4-10.6-4-15l-28.7-48.5
					c-12.4-20.9-33.2-33.5-55.4-33.5h-87.5h-193.4v356.2h102.1V538.9h129.6c4.1,0,7.9,2.3,10.2,6.1l8,13.6c2.8,4.7,2.8,10.8,0,15.5
					l-39.8,67.2h-53.6l105.5,178.2h123.1L2755.2,686.5z"/>
			</g>
		</g>
		<g>
			<g>
				<g>
					<path class="st1" d="M1501.2,236.5h-148.6v46.4h148.6c28.5,0,52.3-23.8,52.3-52.3s-23.8-52.3-52.3-52.3h-38
						c-34.5,0-63-28.5-63-63s28.5-63,63-63h147.4V5.9H1462c-60.6,0-109.4,48.7-109.4,109.4s48.7,109.4,109.4,109.4h38
						c3.6,0,5.9,2.4,5.9,5.9C1505.9,234.1,1503.5,236.5,1501.2,236.5z"/>
					<path class="st1" d="M1461.9,110.6h148.6V63h-148.6c-28.5,0-52.3,23.8-52.3,52.3s23.8,52.3,52.3,52.3h38c34.5,0,63,28.5,63,63
						s-28.5,63-63,63h-147.3v46.4h148.6c60.6,0,109.4-48.7,109.4-109.4s-48.7-109.4-109.4-109.4h-38c-3.6,0-5.9-2.4-5.9-5.9
						C1457.2,112.9,1459.6,110.6,1461.9,110.6z"/>
				</g>
				<g>
					<path class="st1" d="M1995.6,63c-20.2,0-35.7,15.5-35.7,35.7v148.6c0,20.2,15.5,35.7,35.7,35.7h96.3V178.3h-73.7v46.4h27.3
						v10.7h-27.3c-5.9,0-10.7-4.8-10.7-10.7V120.1c0-5.9,4.8-10.7,10.7-10.7H2150V63H1995.6z"/>
					<path class="st1" d="M2287.9,282.8h108.2l-73.7-218.6c-2.4-5.9-7.1-10.7-14.3-10.7c-5.9,0-11.9,4.8-14.3,9.5l-95.1,276.9h54.7
						l33.3-98.7v41.6H2287.9z M2306.9,183.1l15.5,47.5h-32.1L2306.9,183.1z"/>
					<path class="st1" d="M2379.4,54.7c-9.5-30.9-38-54.7-72.5-54.7s-63,22.6-71.3,53.5l-86.8,254.3V121.2h-130.8v46.4h85.6v126
						h-107c-26.2,0-46.4-21.4-46.4-46.4V98.7c0-26.2,21.4-46.4,46.4-46.4h153.3V5.9h-154.5c-51.1,0-92.7,41.6-92.7,92.7v148.6
						c0,51.1,41.6,92.7,92.7,92.7h191.3l96.3-279.3c3.6-10.7,13.1-17.8,25-17.8c11.9,0,21.4,7.1,25,17.8l78.5,232.9H2288v46.5h187.8
						l0,0L2379.4,54.7z"/>
				</g>
				<g>
					<path class="st1" d="M1725.8,293.5c-26.2,0-46.4-21.4-46.4-46.4V98.7c0-26.2,21.4-46.4,46.4-46.4H1885V5.9h-159.3
						c-51.1,0-92.7,41.6-92.7,92.7v148.6c0,51.1,41.6,92.7,92.7,92.7H1885v-46.4L1725.8,293.5L1725.8,293.5z"/>
					<path class="st1" d="M1736.4,225.8h115.3v-46.4h-161.7v68.9c0,20.2,15.5,35.7,35.7,35.7H1885v-46.4h-137.9
						C1741.2,236.5,1736.4,231.7,1736.4,225.8z"/>
					<path class="st1" d="M1851.7,121.2h-115.3c0-5.9,4.8-10.7,10.7-10.7h136.7V63h-158.1c-20.2,0-35.7,15.5-35.7,35.7v68.9h161.7
						C1851.7,167.6,1851.7,121.2,1851.7,121.2z"/>
				</g>
			</g>
		</g>
	</g>
</g>
</svg>
