<?xml version="1.0" encoding="utf-8"?>
<!-- Generator: Adobe Illustrator 26.0.3, SVG Export Plug-In . SVG Version: 6.00 Build 0)  -->
<svg version="1.1" id="Layer_1" xmlns="http://www.w3.org/2000/svg" xmlns:xlink="http://www.w3.org/1999/xlink" x="0px" y="0px"
	 viewBox="0 0 3839 767.7" style="enable-background:new 0 0 3839 767.7;" xml:space="preserve">
<style type="text/css">
	.st0{fill:#FFFFFF;}
	.st1{fill-rule:evenodd;clip-rule:evenodd;fill:#FFFFFF;}
	.st2{fill-rule:evenodd;clip-rule:evenodd;}
	.st3{fill:#00AD9C;}
	.st4{fill:#FBB817;}
	.st5{fill:#0174BA;}
	.st6{fill:#EB2027;}
</style>
<g>
	<g>
		<path d="M0,0v554.9h86.6V53.2h80.3c0,0,58.2-0.1,78.2,26.1c16.8,22.1,20.1,62.2,20.1,89.3c0,29.1-1.9,73.8-11.6,90.3
			c-14.9,25-39.1,30-61.3,30h-52.8v49.2h76c0,0,68.7,3,98.3-27.1c36.1-36.8,45.3-86.3,45.3-152.5c0-60.3-21.9-120.8-66.5-141.4
			C255.6,0,189,0,189,0H0z"/>
		<rect x="427.1" width="86.7" height="554.9"/>
		<polygon points="974.6,129.5 1133.1,544.9 1042.2,767.7 1114,767.7 1376,129.5 1295.7,129.5 1181.5,440.5 1075.4,129.5 		"/>
		<path d="M1441.2,551.6v-52.4c0,0,91.6,3.6,110.7,3.6c42.3,0,63.4-9,79.2-26c9.5-10.1,17.9-55.5,17.9-71.7c0-16-3.1-50.8-9.6-64.9
			c-6.3-14-21-27.1-43.2-28.9c-15.8-1.4-40.1-4.5-68.7-5.8c-40-1.9-66.4-22.7-79.1-37.7c-12.6-15.2-29.7-37.7-29.7-106.8
			c0-69.4,18-108.2,35.9-126.3c18-18,44.3-26,64.5-29.6c23.2-3.9,61.3-4.2,61.3-4.2l121.1,3.5v52.4c0,0-88.3-3.5-107.3-3.5
			c-42.3,0-55.1,9.1-70.9,26.1c-9.3,10.1-16.6,38.1-16.6,54.1c0,16.2,1.9,48.6,8.2,62.6c6.3,14,21.2,27.1,43.4,28.9
			c15.8,1.4,40,4.5,68.6,5.9c40.1,1.9,66.6,22.7,79.2,37.7c12.7,15.1,29.7,46.7,29.7,115.9c0,69.3-18,118.8-35.9,136.9
			c-18,18-44.3,26.1-64.4,29.5c-23.2,4-61.3,4.3-61.3,4.3L1441.2,551.6z"/>
		<path d="M1913.9,53.2h-86.6v407.4c0,0,2,37.2,4.2,50.1c2.1,13.1,21,44.1,70.8,44.1l89.7-1.7v-52.4c0,0-24.3,1.9-39,1.9
			c-14.8,0-32.8-1-35.9-26.1c-3.2-25-3.2-55.1-3.2-55.1V181.6h97.6v-52.1h-97.6V53.2z"/>
		<rect x="2749.6" y="129.5" width="86.6" height="425.4"/>
		<rect x="2749.6" width="86.6" height="77.2"/>
		<path d="M3110,125.8c58.8,0,104.5,13.3,129.2,33.2c24.7,19.8,55.2,61.8,55.2,183.3c0,121.4-30.5,163.4-55.2,183.2
			c-24.7,20-70.3,33.2-129.2,33.2c-59.1,0-104.6-13.2-129.4-33.2c-24.6-19.8-55.1-61.8-55.1-183.2c0-121.5,30.5-163.4,55.1-183.3
			C3005.4,139.1,3050.9,125.8,3110,125.8 M3050.4,207.5c-11.7,14.5-26.3,45.4-26.3,134.7c0,89.2,14.6,120.1,26.3,134.6
			c11.9,14.7,33.9,24.4,62.2,24.4c28.3,0,50.2-9.7,62-24.4c11.9-14.5,26.4-45.5,26.4-134.6c0-89.3-14.5-120.2-26.4-134.7
			c-11.9-14.7-33.8-24.3-62-24.3C3084.3,183.2,3062.3,192.8,3050.4,207.5"/>
		<path d="M3473.7,189.3l84.9-3.6c22.1,0,48.3,6.1,60.9,22.1c11.9,15.1,19.3,33.1,19.3,62.2v284.5h86.6V262.9
			c0-55.2-16.8-87.2-42.2-107.3c-36.4-28.8-101.3-26.1-101.3-26.1l-194.1,3.5v421.4h85.9V189.3z"/>
		<path d="M2577.1,53.2h-86.7v407.4c0,0,2.3,37.2,4.4,50.1c2,13.1,21.1,44.1,70.7,44.1l89.8-1.7v-52.4c0,0-24.2,1.9-39.1,1.9
			c-14.8,0-32.7-1-35.8-26.1c-3.3-25-3.3-55.1-3.3-55.1V181.6h97.7v-52.1h-97.7V53.2z"/>
		<path d="M842.4,270c0-29.1-7.4-47.2-19.2-62.2c-12.6-16.1-38.9-22.1-61.1-22.1l-114.2,3.6V133l137.5-3.5c0,0,65.1-2.7,101.5,26.1
			c25.4,20.1,42.2,52.1,42.2,107.3v287.5L763.1,554c0,0-75.3,0.3-113-15.1c-37.1-15.1-57-56.3-57-113.4c0-55.2,16.8-87.3,42.1-107.4
			c36.5-28.8,101.4-26.1,101.4-26.1h53v49.2h-29.5c-22.2,0-45.3,4.1-58,20c-11.9,15.1-18.2,28.1-18.2,57.2
			c0,38.2,7.5,55.2,25.4,68.3c15.9,11.5,44.4,14,76.1,14l57.1-3.6V270z"/>
		<path d="M2303,270c0-29.1-7.4-47.2-19.4-62.2c-12.7-16.1-38.7-22.1-61-22.1l-114.2,3.6V133l137.5-3.5c0,0,65-2.7,101.3,26.1
			c25.4,20.1,42.3,52.1,42.3,107.3v287.5l-165.9,3.6c0,0-75.3,0.3-113.1-15.1c-36.9-15.1-57.1-56.3-57.1-113.4
			c0-55.2,17-87.3,42.4-107.4c36.3-28.8,101.3-26.1,101.3-26.1h52.9v49.2h-29.7c-22.2,0-45.1,4.1-57.8,20
			c-11.8,15.1-18.2,28.1-18.2,57.2c0,38.2,7.4,55.2,25.3,68.3c15.8,11.5,44.4,14,76,14l57.3-3.6V270z"/>
		<path d="M3779.4,525.6c0-7.2,2.8-14.1,7.9-19.3c5.1-5.2,11.9-7.9,19.2-7.9c7.3,0,14.1,2.8,19.2,7.9c5,5.2,7.9,12.1,7.9,19.3
			c0,15-12.1,27.2-27.1,27.2c-7.2,0-14-2.8-19.2-7.9C3782.2,539.7,3779.4,532.9,3779.4,525.6 M3806.4,558.4c8.8,0,16.9-3.5,23-9.7
			c6.2-6.2,9.6-14.3,9.6-23.1c0-8.7-3.4-17-9.6-23.2c-6.1-6.2-14.2-9.6-23-9.6c-17.9,0-32.3,14.7-32.3,32.8c0,8.8,3.2,16.9,9.3,23.1
			C3789.6,554.9,3797.8,558.4,3806.4,558.4"/>
		<path d="M3815.3,517.3c0,2-0.5,3.5-1.6,4.2c-1.1,0.8-2.7,1.1-4.7,1.1h-10v-10.3h10.6c1.4,0,2.7,0.2,3.4,0.6
			C3814.5,513.8,3815.3,515.2,3815.3,517.3 M3822.5,540.8c-0.5-0.2-0.9-0.7-1-1.6c-0.1-0.6-0.3-1.5-0.3-2.8l-0.2-4.6
			c-0.1-2.3-0.5-3.8-1.2-4.8c-0.6-0.8-1.4-1.3-2.2-1.8c1.2-0.7,2-1.6,2.7-2.7c1-1.4,1.4-3.3,1.4-5.6c0-4.3-1.7-7.3-5.2-8.9
			c-1.8-0.9-4.2-1.3-7-1.3h-15.9h-0.8v0.9v34.8v0.9h0.8h4.8h0.8v-0.9v-14.1h9.8c1.8,0,3.1,0.1,3.8,0.6c1.3,0.5,2,1.8,2.1,3.9
			l0.3,5.8c0.1,1.4,0.2,2.3,0.3,2.8c0,0.6,0.2,1.1,0.4,1.4l0.3,0.5h0.4h5.7h0.8v-0.9v-0.7v-0.6L3822.5,540.8z"/>
	</g>
</g>
</svg>
