<?xml version="1.0" encoding="utf-8"?>
<!-- Generator: Adobe Illustrator 26.5.0, SVG Export Plug-In . SVG Version: 6.00 Build 0)  -->
<svg version="1.1" id="Layer_1" xmlns="http://www.w3.org/2000/svg" xmlns:xlink="http://www.w3.org/1999/xlink" x="0px" y="0px"
	 viewBox="0 0 3839 499.17" style="enable-background:new 0 0 3839 499.17;" xml:space="preserve">
<style type="text/css">
	.st0{fill:#FFFFFF;}
</style>
<g>
	<path d="M0,26.71h93.97c73.42,0,134.55,25.68,134.55,107.32c0,79.6-62.16,107.85-126.85,107.85H51.35v143.27H0V26.71z
		 M51.35,196.69h50.85c31.84,0,71.9-15.92,71.9-63.15c0-45.19-47.26-61.63-79.1-61.63H51.35V196.69z"/>
	<rect x="261.94" width="48.28" height="385.17"/>
	<path d="M379.48,141.76c24.14-14.4,52.89-24.66,86.27-24.66c74.96,0,105.26,36.97,105.26,108.35v108.37
		c0,29.79,1.05,43.65,2.07,51.35h-45.19v-33.88h-1.02c-11.31,15.92-36.97,40.06-81.14,40.06c-56.5,0-96.04-24.66-96.04-81.66
		c0-65.74,71.9-86.27,121.72-86.27c18.98,0,32.34,0,51.35,1.02c0-45.19-16.44-68.31-64.72-68.31c-27.21,0-56.48,10.29-76.01,26.73
		L379.48,141.76z M522.76,260.37c-10.26,0-20.55-1.02-30.82-1.02c-26.18,0-90.91,4.11-90.91,50.32c0,27.73,26.71,42.63,48.8,42.63
		c47.76,0,72.92-29.77,72.92-68.83V260.37z"/>
	<path d="M602.38,456.03c6.15,2.07,14.37,4.11,22.6,4.11c43.15,0,57.52-59.57,57.52-64.7c0-5.66-6.18-19.01-9.24-27.73
		l-88.84-244.47h52.89l70.35,216.74h1.02l71.9-216.74h48.78l-96.54,267.59c-17.99,50.3-36.97,108.35-100.65,108.35
		c-15.42,0-24.14-2.07-32.88-3.59L602.38,456.03z"/>
	<path d="M1031.88,80.64c-26.18-10.26-40.58-14.9-67.29-14.9c-28.75,0-62.63,10.29-62.63,47.76c0,68.81,154.06,52.91,154.06,171.02
		c0,76.51-59.07,106.8-130.97,106.8c-25.16,0-49.8-7.18-73.44-14.87l5.16-47.78c17.44,7.2,48.26,17.46,74.46,17.46
		c29.27,0,70.35-16.42,70.35-58.54c0-80.1-154.08-58.02-154.08-169.46c0-63.68,50.35-97.58,115.05-97.58
		c23.64,0,51.87,4.11,76.53,12.85L1031.88,80.64z"/>
	<path d="M1229.62,162.29h-69.33v143.27c0,30.29,18.49,46.74,40.58,46.74c14.87,0,25.66-4.63,32.86-9.24v41.08
		c-10.79,3.09-25.68,7.18-41.08,7.18c-49.82,0-80.64-23.59-80.64-75.98V162.29h-59.04v-39.04h59.04V62.67l48.28-15.42v76.01h69.33
		V162.29z"/>
	<path d="M1282.02,141.76c24.14-14.4,52.89-24.66,86.27-24.66c74.96,0,105.26,36.97,105.26,108.35v108.37
		c0,29.79,1.05,43.65,2.07,51.35h-45.19v-33.88h-1.02c-11.31,15.92-36.97,40.06-81.14,40.06c-56.5,0-96.04-24.66-96.04-81.66
		c0-65.74,71.9-86.27,121.72-86.27c18.98,0,32.34,0,51.35,1.02c0-45.19-16.44-68.31-64.72-68.31c-27.21,0-56.48,10.29-76.01,26.73
		L1282.02,141.76z M1425.29,260.37c-10.26,0-20.55-1.02-30.82-1.02c-26.18,0-90.91,4.11-90.91,50.32c0,27.73,26.71,42.63,48.8,42.63
		c47.76,0,72.92-29.77,72.92-68.83V260.37z"/>
	<path d="M1665.45,162.29h-69.33v143.27c0,30.29,18.49,46.74,40.58,46.74c14.87,0,25.66-4.63,32.86-9.24v41.08
		c-10.79,3.09-25.68,7.18-41.08,7.18c-49.82,0-80.64-23.59-80.64-75.98V162.29h-59.04v-39.04h59.04V62.67l48.28-15.42v76.01h69.33
		V162.29z"/>
	<path d="M1766.61,64.7h-54.43V10.26h54.43V64.7z M1715.27,123.24h48.28v261.91h-48.28V123.24z"/>
	<path d="M1931.94,117.09c79.6,0,133.01,57.52,133.01,137.12c0,74.99-54.43,137.12-133.01,137.12
		c-79.1,0-133.53-62.13-133.53-137.12C1798.41,174.62,1851.82,117.09,1931.94,117.09 M1931.94,352.29
		c56.5,0,81.66-51.35,81.66-98.08c0-49.82-30.32-98.11-81.66-98.11c-51.87,0-82.16,48.28-82.16,98.11
		C1849.78,300.95,1874.94,352.29,1931.94,352.29"/>
	<path d="M2098.86,123.25h46.74v41.6h1.02c14.37-29.79,49.3-47.76,85.77-47.76c67.79,0,98.08,42.1,98.08,112.46v155.6h-48.28V249.58
		c0-61.11-13.35-90.88-55.46-93.47c-54.96,0-79.6,44.17-79.6,107.87v121.18h-48.28V123.25z"/>
	<path d="M2757.39,85.76c-22.6-13.35-47.76-20.03-73.94-20.03c-82.68,0-137.64,59.59-137.64,140.21
		c0,84.23,60.61,140.18,135.08,140.18c25.66,0,60.07-6.65,78.05-17.46l3.09,49.82c-27.23,11.29-60.61,12.83-81.66,12.83
		c-113.5,0-188.99-72.9-188.99-186.92c0-110.41,80.12-183.86,189.51-183.86c27.73,0,54.96,4.11,80.62,15.42L2757.39,85.76z"/>
	<rect x="2814.93" width="48.28" height="385.17"/>
	<path d="M2933.07,141.76c24.14-14.4,52.89-24.66,86.27-24.66c74.99,0,105.28,36.97,105.28,108.35v108.37
		c0,29.79,1.02,43.65,2.04,51.35h-45.19v-33.88h-1.02c-11.29,15.92-36.97,40.06-81.14,40.06c-56.5,0-96.04-24.66-96.04-81.66
		c0-65.74,71.9-86.27,121.72-86.27c18.98,0,32.34,0,51.35,1.02c0-45.19-16.44-68.31-64.7-68.31c-27.23,0-56.5,10.29-76.01,26.73
		L2933.07,141.76z M3076.34,260.37c-10.26,0-20.55-1.02-30.82-1.02c-26.18,0-90.88,4.11-90.88,50.32
		c0,27.73,26.71,42.63,48.78,42.63c47.76,0,72.92-29.77,72.92-68.83V260.37z"/>
	<path d="M3166.23,333.81c19.01,12.33,46.21,18.49,60.09,18.49c22.07,0,49.3-9.24,49.3-37.49c0-47.76-113.5-43.65-113.5-117.09
		c0-54.43,40.58-80.62,92.45-80.62c22.6,0,41.08,4.63,60.07,10.26l-4.11,42.13c-10.76-6.68-39.54-13.38-50.82-13.38
		c-24.66,0-46.24,10.29-46.24,31.86c0,53.41,113.5,37.99,113.5,121.7c0,55.98-44.67,81.66-91.4,81.66
		c-24.64,0-49.82-2.57-71.9-14.37L3166.23,333.81z"/>
	<path d="M3355.74,333.81c19.01,12.33,46.21,18.49,60.09,18.49c22.07,0,49.3-9.24,49.3-37.49c0-47.76-113.5-43.65-113.5-117.09
		c0-54.43,40.58-80.62,92.45-80.62c22.6,0,41.08,4.63,60.07,10.26l-4.11,42.13c-10.76-6.68-39.54-13.38-50.82-13.38
		c-24.66,0-46.24,10.29-46.24,31.86c0,53.41,113.5,37.99,113.5,121.7c0,55.98-44.67,81.66-91.4,81.66
		c-24.64,0-49.82-2.57-71.9-14.37L3355.74,333.81z"/>
	<path d="M3612.01,64.7h-54.43V10.26h54.43V64.7z M3560.64,123.24h48.28v261.91h-48.28V123.24z"/>
	<path d="M3832.85,167.42c-18.49-7.7-36.97-11.31-52.39-11.31c-53.91,0-84.21,48.28-84.21,98.11c0,46.74,25.16,98.08,87.29,98.08
		c16.44,0,36.97-5.13,51.87-14.9l3.59,43.15c-20.03,9.24-43.12,10.79-60.59,10.79c-79.1,0-133.53-62.13-133.53-137.12
		c0-79.6,53.41-137.12,133.53-137.12c19.51,0,44.67,4.63,58.54,10.26L3832.85,167.42z"/>
</g>
</svg>
