<?xml version="1.0" encoding="utf-8"?>
<!-- Generator: Adobe Illustrator 26.0.3, SVG Export Plug-In . SVG Version: 6.00 Build 0)  -->
<svg version="1.1" id="Layer_1" xmlns="http://www.w3.org/2000/svg" xmlns:xlink="http://www.w3.org/1999/xlink" x="0px" y="0px"
	 viewBox="0 0 3839 820.4" style="enable-background:new 0 0 3839 820.4;" xml:space="preserve">
<style type="text/css">
	.st0{fill:#FFFFFF;}
	.st1{fill:#00439B;}
</style>
<g>
	<path d="M1665.9,820.4c121.8,0,220.5-98.7,220.5-220.5V220.5c0-73.4,59.5-133,133-133h427.9c3.2,0,5.8-2.6,5.8-5.8V5.8
		c0-3.2-2.6-5.8-5.8-5.8h-515.5c-121.8,0-220.6,98.7-220.6,220.5V600c0,73.4-59.5,132.9-132.9,132.9h-421.9c-3.3,0-5.8,2.6-5.8,5.8
		v75.9c0,3.2,2.6,5.8,5.8,5.8H1665.9z"/>
	<path d="M2630.2,308.2l0-302.4c0-3.2,2.7-5.8,5.8-5.8h1165.1c3.2,0,5.8,2.6,5.8,5.8v75.9c0,3.2-2.6,5.8-5.8,5.8h-989.9
		c-3.3,0-5.8,2.6-5.8,5.8v197c0,34.9,28.2,63.1,63,63.1h737c128.9,0,233.4,104.5,233.4,233.4s-104.5,233.4-233.4,233.4H2636
		c-3.2,0-5.8-2.6-5.8-5.8v-75.9c0-3.2,2.7-5.8,5.8-5.8h881.8c80.4,0,145.6-65,145.9-145.4c0.3-80.5-66.5-146.4-147-146.4h-753.6
		C2689.8,441.1,2630.2,381.6,2630.2,308.2"/>
	<path d="M899.7,353.4c73.4,0,132.9-59.5,132.9-132.9c0-73.4-59.5-132.9-132.9-132.9H5.8C2.6,87.6,0,85,0,81.7V5.8
		C0,2.6,2.6,0,5.8,0h981.5c121.8,0,220.6,98.7,220.6,220.5c0,121.8-98.8,220.5-220.6,220.5H308.2c-73.4,0-132.9,59.5-132.9,132.9
		v240.6c0,3.2-2.6,5.8-5.8,5.8H5.8c-3.2,0-5.8-2.6-5.8-5.8V573.9c0-121.8,98.8-220.5,220.6-220.5H899.7z"/>
</g>
</svg>
