<?xml version="1.0" encoding="utf-8"?>
<!-- Generator: Adobe Illustrator 26.0.3, SVG Export Plug-In . SVG Version: 6.00 Build 0)  -->
<svg version="1.1" id="Layer_1" xmlns="http://www.w3.org/2000/svg" xmlns:xlink="http://www.w3.org/1999/xlink" x="0px" y="0px"
	 viewBox="0 0 3839 1158" style="enable-background:new 0 0 3839 1158;" xml:space="preserve">
<style type="text/css">
	.st0{fill:#FFFFFF;}
	.st1{fill:url(#SVGID_1_);}
	.st2{fill:url(#SVGID_00000179633192599293704420000004477012787766175651_);}
	.st3{fill:url(#SVGID_00000023242410530951731060000006898222672918324883_);}
	.st4{fill:url(#SVGID_00000178186435761183076680000009970813189031155134_);}
	.st5{fill:url(#SVGID_00000015334709247234392120000010465275912907325833_);}
	.st6{fill:url(#SVGID_00000165235389041739305340000000389892753749918141_);}
	.st7{fill:url(#SVGID_00000098943714894126663430000011043646806471793050_);}
	.st8{fill:url(#SVGID_00000126323218171282074010000006934242483825641367_);}
	.st9{fill:url(#SVGID_00000001637056184643240180000003045173773832199595_);}
	.st10{fill:url(#SVGID_00000012459084041581861840000018316746029072226184_);}
	.st11{fill:url(#SVGID_00000070092440884744924180000009037514233471407498_);}
	.st12{fill:url(#SVGID_00000123437893489637969360000007626307616110250380_);}
	.st13{fill:url(#SVGID_00000080182616264635998330000001857583871014411396_);}
	.st14{fill:url(#SVGID_00000021120792286970360990000016083790735929946039_);}
	.st15{fill:url(#SVGID_00000125564400464404604670000016328593750650797737_);}
	.st16{fill:url(#SVGID_00000179634961000136916810000012459440206557051014_);}
	.st17{fill:url(#SVGID_00000115494240639285048020000005910653872108136601_);}
	.st18{fill:url(#SVGID_00000038407627531954717600000015128799509870488756_);}
	.st19{fill:url(#SVGID_00000111898692306743456510000011896044602779381435_);}
	.st20{fill:url(#SVGID_00000178177740009909113100000003601264414492595614_);}
	.st21{fill:url(#SVGID_00000027595881471994156790000012221270678418340011_);}
	.st22{fill-rule:evenodd;clip-rule:evenodd;}
	.st23{fill:#00AD9C;}
	.st24{fill:#FBB817;}
	.st25{fill:#0174BA;}
	.st26{fill:#EB2027;}
	.st27{fill-rule:evenodd;clip-rule:evenodd;fill:#FFFFFF;}
</style>
<g>
	<polyline points="0,0 1140.5,0 1140.5,338.2 45.1,338.2 45.1,631.3 0,631.3 0,293.1 1095.5,293.1 1095.5,45.1 0,45.1 0,0 	"/>
	<polyline points="3661.1,584 3661.1,631.3 2520.5,631.3 2520.5,293.1 3615.9,293.1 3615.9,45.1 2520.5,45.1 2520.5,0 3661.1,0 
		3661.1,338.2 2565.6,338.2 2565.6,586.2 3661.1,586.2 3661.1,631.3 	"/>
	<polyline points="1722.4,0 1722.4,586.2 1140.5,586.2 1140.5,631.3 1769.7,631.3 1769.7,45.1 2351.5,45.1 2351.5,0 1722.4,0 	"/>
	<path d="M929.9,850.9v222h34.7V872.2h32.1c0,0,23.3,0,31.3,10.4c6.8,8.9,8,24.9,8,35.8c0,11.6-0.7,29.5-4.6,36.1
		c-5.9,10-15.6,12-24.5,12h-21.2v19.7h30.5c0,0,27.5,1.1,39.3-10.9c14.5-14.7,18.2-34.5,18.2-61c0-24.1-8.7-48.4-26.6-56.6
		c-14.8-6.8-41.4-6.8-41.4-6.8H929.9"/>
	<rect x="1100.7" y="850.9" width="34.6" height="222"/>
	<polyline points="1319.8,902.7 1383.2,1068.9 1346.8,1158 1375.5,1158 1480.3,902.7 1448.2,902.7 1402.6,1027.1 1360.1,902.7 
		1319.8,902.7 	"/>
	<path d="M1506.4,1071.6v-21c0,0,36.6,1.4,44.3,1.4c16.9,0,25.4-3.6,31.7-10.4c3.8-4.1,7.1-22.2,7.1-28.6c0-6.4-1.2-20.3-3.8-26
		c-2.6-5.6-8.5-10.8-17.4-11.5c-6.3-0.5-16.1-1.8-27.5-2.3c-16-0.8-26.6-9.1-31.7-15.1c-5.1-6-11.8-15.1-11.8-42.7
		c0-27.7,7.2-43.3,14.4-50.5c7.2-7.2,17.7-10.4,25.8-11.9c9.3-1.6,24.5-1.7,24.5-1.7l48.5,1.4v21c0,0-35.4-1.4-43-1.4
		c-16.9,0-22,3.6-28.3,10.4c-3.7,4-6.7,15.2-6.7,21.7c0,6.5,0.8,19.5,3.3,25.1c2.5,5.6,8.4,10.8,17.3,11.6
		c6.3,0.5,16.1,1.8,27.5,2.3c16.1,0.8,26.6,9.1,31.7,15.1c5.1,6,11.9,18.7,11.9,46.4c0,27.7-7.2,47.5-14.4,54.7
		c-7.2,7.2-17.7,10.4-25.8,11.8c-9.3,1.6-24.5,1.7-24.5,1.7L1506.4,1071.6"/>
	<path d="M1695.5,872.2h-34.6v163c0,0,0.8,14.9,1.7,20.1c0.9,5.2,8.5,17.6,28.3,17.6l35.9-0.7v-20.9c0,0-9.7,0.7-15.6,0.7
		c-5.9,0-13.2-0.4-14.4-10.4c-1.3-10-1.3-22-1.3-22v-96h39.1v-20.9h-39.1V872.2"/>
	<rect x="2029.9" y="902.7" width="34.6" height="170.2"/>
	<rect x="2029.9" y="850.9" width="34.6" height="30.9"/>
	<path d="M2150.3,933.9c-4.8,5.9-10.6,18.2-10.6,53.9c0,35.7,5.8,48.1,10.6,53.9c4.7,5.8,13.5,9.7,24.8,9.7
		c11.4,0,20.1-3.9,24.9-9.7c4.7-5.8,10.6-18.2,10.6-53.9c0-35.7-5.8-48.1-10.6-53.9c-4.8-5.8-13.5-9.7-24.9-9.7
		C2163.8,924.2,2155,928.1,2150.3,933.9 M2174,901.2c23.6,0,41.9,5.3,51.7,13.2c9.9,8,22.1,24.8,22.1,73.4
		c0,48.6-12.2,65.4-22.1,73.4c-9.8,7.9-28.1,13.2-51.7,13.2c-23.6,0-41.8-5.3-51.7-13.2c-9.9-8-22-24.8-22-73.4
		c0-48.6,12.1-65.4,22-73.4C2132.2,906.5,2150.4,901.2,2174,901.2z"/>
	<path d="M2319.6,926.6l34-1.4c8.9,0,19.4,2.4,24.4,8.8c4.7,6.1,7.7,13.3,7.7,24.9v113.8h34.7V956.1c0-22.1-6.8-34.9-17-42.9
		c-14.5-11.5-40.6-10.4-40.6-10.4l-77.6,1.4v168.6h34.4V926.6"/>
	<path d="M1960.9,872.2h-34.7v163c0,0,0.8,14.9,1.6,20.1c0.9,5.2,8.4,17.6,28.4,17.6l35.9-0.7v-20.9c0,0-9.7,0.7-15.6,0.7
		c-5.9,0-13.1-0.4-14.4-10.4c-1.2-10-1.2-22-1.2-22v-96h39v-20.9h-39V872.2"/>
	<path d="M1266.9,958.9c0-11.6-3-18.9-7.7-24.9c-5.1-6.4-15.5-8.8-24.4-8.8l-45.7,1.4v-22.5l55-1.4c0,0,26-1.1,40.6,10.4
		c10.2,8.1,16.9,20.9,16.9,42.9v115l-66.4,1.4c0,0-30.1,0.1-45.2-6c-14.8-6-22.8-22.5-22.8-45.4c0-22.1,6.8-34.9,16.9-43
		c14.5-11.5,40.6-10.4,40.6-10.4h21.2v19.6h-11.9c-8.9,0-18.1,1.6-23.2,8.1c-4.7,6-7.3,11.2-7.3,22.9c0,15.3,3,22.1,10.2,27.3
		c6.4,4.6,17.7,5.6,30.4,5.6l22.9-1.4V958.9"/>
	<path d="M1851.2,958.9c0-11.6-2.9-18.9-7.7-24.9c-5.1-6.4-15.6-8.8-24.4-8.8l-45.7,1.4v-22.5l55-1.4c0,0,26-1.1,40.5,10.4
		c10.2,8.1,16.9,20.9,16.9,42.9v115l-66.4,1.4c0,0-30.1,0.1-45.2-6c-14.8-6-22.9-22.5-22.9-45.4c0-22.1,6.8-34.9,16.9-43
		c14.5-11.5,40.6-10.4,40.6-10.4h21.2v19.6h-11.9c-8.9,0-18.1,1.6-23.1,8.1c-4.8,6-7.3,11.2-7.3,22.9c0,15.3,3,22.1,10.2,27.3
		c6.3,4.6,17.8,5.6,30.5,5.6l22.8-1.4V958.9"/>
	<path d="M2455.1,1040.5c0-7.5,3-14.6,8.3-19.9c5.3-5.3,12.4-8.3,19.9-8.3s14.6,3,19.9,8.3c5.3,5.3,8.3,12.4,8.3,19.9
		c0,15.5-12.6,28.2-28.2,28.2c-7.5,0-14.5-3-19.9-8.3C2458,1055.1,2455.1,1048,2455.1,1040.5 M2483.2,1074.3c9,0,17.5-3.5,23.9-9.9
		c6.4-6.4,9.9-14.9,9.9-23.9c0-9-3.5-17.5-9.9-23.9c-6.4-6.4-14.9-9.9-23.9-9.9c-18.6,0-33.8,15.2-33.8,33.8c0,9,3.5,17.5,9.9,23.9
		C2465.7,1070.8,2474.2,1074.3,2483.2,1074.3z"/>
	<path d="M2492.4,1031.9c0,2.1-0.5,3.5-1.6,4.3c-1.2,0.8-2.9,1.2-5,1.2h-10.5v-10.7h11.1c1.5,0,2.7,0.2,3.6,0.6
		C2491.6,1028.2,2492.4,1029.7,2492.4,1031.9 M2499.9,1056.2c-0.5-0.2-0.9-0.8-1.1-1.6c-0.2-0.6-0.3-1.6-0.3-2.8l-0.2-4.9
		c-0.1-2.3-0.6-3.9-1.4-5c-0.5-0.7-1.3-1.3-2.2-1.9c1.1-0.7,2.1-1.6,2.8-2.8c0.9-1.5,1.5-3.4,1.5-5.8c0-4.5-1.9-7.6-5.5-9.2
		c-1.9-0.9-4.3-1.3-7.1-1.3h-17.5v37.7h6.5v-15.4h10.3c1.9,0,3.3,0.2,4,0.5c1.3,0.7,2.1,2,2.1,4l0.3,6c0.1,1.5,0.2,2.4,0.3,2.9
		c0.2,0.6,0.3,1,0.5,1.4l0.3,0.5h7.3v-2.2L2499.9,1056.2z"/>
	<path d="M2731.2,879.6c0.5,25.6-0.8,39.1-9.4,51.9c-7.6,11.2-22.6,21.6-55.7,21.6l-41.1-1.3c-6.5,0.1-23.3,2-31.3,10.6
		c-6.9,7.3-7.3,12.8-8.1,32.4v57.4h139.9v28.2h-152.9l-7.3-0.1c-10.4,0-20.6-7.1-20.6-21.2v-42.8c0.7-50.1,4.3-57.3,15.2-70.4
		c7.5-9,25.2-19.2,46.7-20.3c4.2-0.2,12.2-0.8,23.3-0.4c8.2,0.3,16.3,0.5,19.9,0.5c19,0.2,26-3.3,31.2-10.1
		c5.9-7.7,9.1-16.8,9.1-31.6c0-13.9-2.8-27.1-8.1-33.1c-6.5-7-12.6-11.7-30.5-11.8c-45.2-0.1-98,1-98,1v-26.5c0,0,51.6-2.2,104.3-3
		c32.8-0.5,50.8,8.2,60,20.1C2727.3,843.3,2730.8,855.1,2731.2,879.6"/>
	<path d="M3767.7,598.9c0-8.6,3.4-16.7,9.5-22.8c6.1-6.1,14.2-9.5,22.9-9.5s16.8,3.4,22.9,9.5c6.1,6.1,9.5,14.2,9.5,22.8
		c0,17.9-14.5,32.4-32.4,32.4c-8.6,0-16.8-3.4-22.9-9.5C3771.1,615.7,3767.7,607.6,3767.7,598.9 M3800.1,637.8
		c10.4,0,20.2-4,27.5-11.4c7.3-7.4,11.4-17.2,11.4-27.5c0-10.3-4-20.1-11.4-27.4c-7.3-7.4-17.2-11.4-27.5-11.4
		c-21.4,0-38.9,17.5-38.9,38.9c0,10.4,4,20.2,11.4,27.5C3780,633.8,3789.7,637.8,3800.1,637.8z"/>
	<path d="M3810.6,589.1c0,2.4-0.6,4-1.8,4.9c-1.4,0.9-3.4,1.4-5.8,1.4h-12v-12.2h12.8c1.7,0,3.1,0.2,4.2,0.7
		C3809.8,584.8,3810.6,586.6,3810.6,589.1 M3819.3,617c-0.5-0.3-1-0.9-1.2-1.9c-0.2-0.7-0.4-1.8-0.4-3.3l-0.2-5.5
		c-0.1-2.7-0.6-4.6-1.5-5.8c-0.6-0.8-1.5-1.4-2.6-2.1c1.3-0.8,2.5-1.9,3.3-3.1c1-1.7,1.6-3.9,1.6-6.6c0-5.1-2.1-8.7-6.4-10.6
		c-2.2-0.9-4.9-1.5-8.2-1.5h-20.1v43.3h7.5V602h11.8c2.1,0,3.8,0.3,4.7,0.7c1.5,0.8,2.3,2.3,2.4,4.6l0.3,6.9c0,1.7,0.2,2.8,0.3,3.4
		c0.2,0.7,0.3,1.2,0.5,1.6l0.3,0.5h8.4v-2.6L3819.3,617z"/>
</g>
</svg>
