<?xml version="1.0" encoding="utf-8"?>
<!-- Generator: Adobe Illustrator 25.2.1, SVG Export Plug-In . SVG Version: 6.00 Build 0)  -->
<svg version="1.1" id="Layer_1" xmlns="http://www.w3.org/2000/svg" xmlns:xlink="http://www.w3.org/1999/xlink" x="0px" y="0px"
	 viewBox="0 0 3839 531.8" style="enable-background:new 0 0 3839 531.8;" xml:space="preserve">
<style type="text/css">
	.st0{fill:#ED2224;}
	.st1{fill:#FFFFFF;}
	.st2{fill:#DB3127;}
	.st3{fill-rule:evenodd;clip-rule:evenodd;fill:#FCDA00;}
	.st4{fill-rule:evenodd;clip-rule:evenodd;fill:#73B744;}
	.st5{fill-rule:evenodd;clip-rule:evenodd;fill:#ED2224;}
	.st6{fill-rule:evenodd;clip-rule:evenodd;fill:#2AA4DD;}
	.st7{fill-rule:evenodd;clip-rule:evenodd;fill:#DB3127;}
</style>
<g>
	<g>
		<path id="yellow_4_" class="st3" d="M431.6,381.2c136.4,0,154.5,58.9,154.5,79.9c0,24.7-38.5,69.3-154.5,69.3
			c-120,0-149.2-50.2-149.2-69.3C282.4,441.1,292.5,381.2,431.6,381.2z"/>
		<path id="green_4_" class="st4" d="M143.9,242.7c136.4,0,149.2,65.2,149.2,79.9s-27.8,69.3-143.9,69.3C29.2,391.9,0,337.3,0,322.6
			S4.8,242.7,143.9,242.7z"/>
		<path id="red_4_" class="st5" d="M468.9,280c0,0,2.2-119,111.9-133.2s156,77.3,159.8,95.9C776.1,415.4,618,424.1,618,423.8
			C608.1,272.1,468.9,280,468.9,280z"/>
		<path id="blue_4_" class="st6" d="M191.8,136.1c0,0,2.2-119,111.9-133.2s156,77.3,159.8,95.9C499,271.5,341,280.3,341,280
			C331,128.3,191.8,136.1,191.8,136.1z"/>
	</g>
	<g id="SNES_8_">
		<g>
			<g>
				<g>
					<g>
						<path class="st0" d="M965.5,204.8c9.8,18.2,60.3,102.4,65.9,116.5c7,14,12.6,36.5,7,60.3l-18.2,102.4
							c-5.6,26.7-29.5,47.7-58.9,47.7h-88.4c-26.7,0-46.3-21-46.3-47.7c0-2.8,0-5.6,0-8.4l23.9-134.7h61.7l-19.6,113.6
							c0,1.4,0,1.4,0,1.4c0,8.4,7,15.4,15.4,15.4h33.7c11.2,0,21-8.4,23.9-18.2l14-74.4c2.8-14,0-22.4-12.6-44.9
							c-9.8-18.2-51.9-98.2-64.5-122.1c-16.8-30.9-18.2-44.9-14-71.6l15.4-91.2c5.6-28.1,29.5-47.7,57.5-47.7h88.4
							c25.3,0,47.7,21,47.7,47.7c0,2.8,0,5.6,0,8.4L1075,188h-61.7l19.6-109.4c0-1.4,0-1.4,0-2.8c0-8.4-7-15.4-15.4-15.4h-33.7
							c-11.2,0-19.6,8.4-22.4,18.2l-11.2,58.9C945.9,167,951.5,181,965.5,204.8z"/>
					</g>
					<g>
						<path class="st0" d="M1126.9,454.6C1126.9,456,1126.9,456,1126.9,454.6c0,9.8,7,16.8,15.4,16.8h33.7
							c11.2,0,19.6-8.4,22.4-18.2L1281.2,0h63.1L1256,482.7c-5.6,26.7-29.5,47.7-58.9,47.7h-88.4c-25.3,0-46.3-21-46.3-47.7
							c0-2.8,0-5.6,0-9.8L1147.9,0h61.7L1126.9,454.6z"/>
					</g>
					<g>
						<polygon class="st0" points="1609.5,0 1752.7,0 1742.8,60.3 1662.9,60.3 1633.4,227.3 1712,227.3 1700.7,287.6 1622.2,287.6 
							1588.5,471.4 1667.1,471.4 1657.2,530.4 1512.7,530.4 						"/>
					</g>
					<g>
						<path class="st0" d="M2023.4,530.4L2120.3,0h64.5c28.1,283.4,28.1,352.2,29.5,405.5c1.4-56.1,8.4-133.3,57.5-405.5l0,0h64.5
							l-96.8,530.4H2175c-26.7-283.4-28.1-342.3-28.1-395.7c-2.8,63.1-9.8,124.9-57.5,395.7L2023.4,530.4z"/>
					</g>
					<g>
						<polygon class="st0" points="2349,530.4 2285.8,530.4 2381.2,0 2445.8,0 						"/>
					</g>
					<g>
						<polygon class="st0" points="2873.7,60.3 2830.2,60.3 2744.6,530.4 2680.1,530.4 2767.1,60.3 2720.8,60.3 2732,0 2886.3,0 
													"/>
					</g>
					<g>
						<polygon class="st0" points="2913,0 3056.1,0 3046.3,60.3 2966.3,60.3 2936.8,227.3 3015.4,227.3 3004.2,287.6 2925.6,287.6 
							2891.9,471.4 2970.5,471.4 2960.7,530.4 2816.2,530.4 						"/>
					</g>
					<g>
						<path class="st0" d="M2398.1,530.4L2494.9,0h64.5c28.1,283.4,28.1,352.2,29.5,405.5c1.4-56.1,8.4-133.3,57.5-405.5l0,0h64.5
							l-96.8,530.4h-64.5c-26.7-283.4-28.1-342.3-28.1-395.7c-2.8,63.1-9.8,124.9-57.5,395.7C2464,530.4,2398.1,530.4,2398.1,530.4z
							"/>
					</g>
					<g>
						<path class="st0" d="M3002.8,530.4L3099.6,0h64.5c28.1,283.4,28.1,352.2,29.5,405.5c1.4-56.1,8.4-133.3,57.5-405.5l0,0h64.5
							l-96.8,530.4h-64.5c-26.7-283.4-28.1-342.3-28.1-395.7c-2.8,63.1-9.8,124.9-57.5,395.7
							C3068.7,530.4,3002.8,530.4,3002.8,530.4z"/>
					</g>
					<path class="st0" d="M1286.8,530.4L1383.6,0h138.9c26.7,0,47.7,21,47.7,47.7c0,2.8,0,5.6-1.4,8.4l-33.7,188
						c-4.2,28.1-28.1,47.7-57.5,47.7h-82.8L1351.4,529L1286.8,530.4L1286.8,530.4z M1455.2,232.9c11.2,0,19.6-7,22.4-18.2
						l26.7-137.5c0,0,0-1.4,0-2.8c0-8.4-7-15.4-15.4-15.4h-53.3l-32.3,174H1455.2z M1866.3,314.3L1866.3,314.3
						c0-9.8-7-16.8-15.4-16.8h-50.5l-42.1,234.3h-64.5l95.4-530.4h141.7c26.7,0,47.7,21,47.7,47.7c0,2.8,0,5.6-1.4,9.8l-29.5,167
						c-4.2,22.4-19.6,37.9-40.7,44.9c18.2,7,26.7,23.9,23.9,43.5c0,2.8,0,5.6,0,8.4L1893,531.8h-64.5L1866.3,314.3z M1862.1,232.9
						c11.2,0,19.6-8.4,22.4-18.2l25.3-137.5c0-1.4,0-1.4,0-2.8c0-8.4-7-15.4-15.4-15.4h-50.5L1813,231.5L1862.1,232.9L1862.1,232.9z
						 M3360.6,0h144.5c26.7,0,47.7,21,47.7,47.7c0,2.8,0,5.6-1.4,8.4l-77.2,426.5c-4.2,26.7-28.1,47.7-57.5,47.7h-152.9L3360.6,0z
						 M3394.2,471.4c11.2,0,19.6-8.4,22.4-18.2l68.7-376c0-1.4,0-1.4,0-2.8c0-8.4-7-15.4-15.4-15.4h-57.5L3338.1,470h56.1V471.4z
						 M3652.4,0h89.8c25.3,0,46.3,21,46.3,47.7c0,2.8,0,5.6,0,8.4l-75.8,426.5c-5.6,26.7-29.5,47.7-58.9,47.7h-88.4
						c-26.7,0-46.3-21-46.3-47.7c0-2.8,0-5.6,0-9.8l75.8-425.1C3600.5,21,3624.3,0,3652.4,0z M3583.6,456c0,8.4,7,15.4,15.4,15.4
						h33.7c11.2,0,19.6-8.4,22.4-18.2l67.3-376c0-1.4,0-1.4,0-2.8c0-8.4-7-15.4-15.4-15.4H3672c-9.8,0-19.6,8.4-22.4,18.2l-67.3,376
						C3583.6,454.6,3583.6,456,3583.6,456z"/>
				</g>
				<g>
					<path class="st0" d="M3764.6,530.4h-5.6v-44.9h-16.8v-4.2h37.9v4.2h-16.8L3764.6,530.4L3764.6,530.4z"/>
					<path class="st0" d="M3813.7,521.9l16.8-40.7h8.4v50.5h-5.6v-43.5l0,0l-18.2,43.5h-2.8l-18.2-43.5l0,0v43.5h-5.6v-50.5h8.4
						L3813.7,521.9z"/>
				</g>
			</g>
		</g>
	</g>
</g>
</svg>
