<?xml version="1.0" encoding="utf-8"?>
<!-- Generator: Adobe Illustrator 27.0.0, SVG Export Plug-In . SVG Version: 6.00 Build 0)  -->
<svg version="1.1" id="Layer_1" xmlns="http://www.w3.org/2000/svg" xmlns:xlink="http://www.w3.org/1999/xlink" x="0px" y="0px"
	 viewBox="0 0 3839 1109.04" style="enable-background:new 0 0 3839 1109.04;" xml:space="preserve">
<style type="text/css">
	.st0{fill:#FFFFFF;}
	.st1{fill:#120F26;}
	.st2{fill:#E22B17;}
	.st3{fill:#FFDA40;}
</style>
<g>
	<g>
		<polygon class="st1" points="1450.29,1109.04 1450.29,1023.73 1535.6,1023.73 1535.6,938.42 1620.91,938.42 1620.91,767.8 
			1620.91,341.24 1620.91,170.62 1535.6,170.62 1535.6,85.31 1450.29,85.31 1450.29,0 938.42,0 938.42,85.31 853.11,85.31 
			853.11,170.62 767.8,170.62 767.8,341.24 767.8,767.8 767.8,938.42 853.11,938.42 853.11,1023.73 938.42,1023.73 938.42,1109.04 
					"/>
		<path class="st2" d="M1450.29,1023.73v-85.31h85.31V341.24h-85.31v-85.31H938.42v85.31h-85.31v597.18h85.31v85.31H1450.29z
			 M1109.04,853.11V426.56h170.62v426.56H1109.04z"/>
		<path class="st3" d="M1450.29,853.11V767.8h85.31V170.62h-85.31V85.31H938.42v85.31h-85.31V767.8h85.31v85.31H1450.29z
			 M1109.04,682.49V255.93h170.62v426.56H1109.04z"/>
	</g>
	<g>
		<polygon class="st1" points="341.24,1109.04 341.24,1023.73 426.56,1023.73 426.56,938.42 597.18,938.42 597.18,853.11 
			682.49,853.11 767.8,853.11 767.8,767.8 853.11,767.8 853.11,597.18 853.11,341.24 853.11,170.62 767.8,170.62 767.8,85.31 
			682.49,85.31 682.49,0 341.24,0 255.93,0 85.31,0 85.31,85.31 0,85.31 0,255.93 0,853.11 0,1023.73 85.31,1023.73 85.31,1109.04 
					"/>
		<path class="st2" d="M341.24,853.11h255.93V767.8H767.8V341.24h-85.31v-85.31H341.24h-85.31H85.31v767.8h255.93V853.11z
			 M511.87,426.56v170.62h-85.31v85.31h-85.31V426.56H511.87z"/>
		<path class="st3" d="M341.24,682.49h255.93v-85.31H767.8V170.62h-85.31V85.31H341.24h-85.31H85.31v767.8h255.93V682.49z
			 M511.87,255.93v170.62h-85.31v85.31h-85.31V255.93H511.87z"/>
	</g>
	<g>
		<polygon class="st1" points="1876.84,1109.04 1876.84,1023.73 1962.16,1023.73 2047.47,1023.73 2047.47,1109.04 2303.4,1109.04 
			2303.4,1023.73 2388.71,1023.73 2388.71,853.11 2388.71,767.8 2388.71,597.18 2388.71,426.56 2388.71,341.24 2388.71,170.62 
			2303.4,170.62 2303.4,85.31 2218.09,85.31 2218.09,0 1876.84,0 1791.53,0 1620.91,0 1620.91,85.31 1535.6,85.31 1535.6,255.93 
			1535.6,853.11 1535.6,1023.73 1620.91,1023.73 1620.91,1109.04 		"/>
		<path class="st2" d="M1876.84,767.8h170.62v85.31v170.62h255.93V767.8h-85.31v-85.31h-85.31v-85.31h170.62V341.24h-85.31v-85.31
			h-341.24h-85.31h-170.62v767.8h255.93V767.8z M2047.47,426.56v85.31h-85.31v85.31h-85.31V426.56H2047.47z"/>
		<path class="st3" d="M1876.84,597.18h170.62v85.31v170.62h255.93V597.18h-85.31v-85.31h-85.31v-85.31h170.62V170.62h-85.31V85.31
			h-341.24h-85.31h-170.62v767.8h255.93V597.18z M2047.47,255.93v85.31h-85.31v85.31h-85.31V255.93H2047.47z"/>
	</g>
	<g>
		<polygon class="st1" points="3156.51,1023.73 3156.51,1109.04 3668.38,1109.04 3668.38,1023.73 3753.69,1023.73 3753.69,938.42 
			3839,938.42 3839,767.8 3839,682.49 3839,511.87 3839,341.24 3839,170.62 3753.69,170.62 3753.69,85.31 3668.38,85.31 3668.38,0 
			3156.51,0 3156.51,85.31 3071.2,85.31 3071.2,170.62 2985.89,170.62 2985.89,341.24 2985.89,426.56 2985.89,597.18 2985.89,767.8 
			2985.89,938.42 3071.2,938.42 3071.2,1023.73 		"/>
		<polygon class="st2" points="3668.38,1023.73 3668.38,938.42 3753.69,938.42 3753.69,682.49 3668.38,682.49 3668.38,597.18 
			3497.76,597.18 3497.76,511.87 3327.13,511.87 3327.13,426.56 3497.76,426.56 3497.76,511.87 3753.69,511.87 3753.69,341.24 
			3668.38,341.24 3668.38,255.93 3156.51,255.93 3156.51,341.24 3071.2,341.24 3071.2,597.18 3156.51,597.18 3156.51,682.49 
			3327.13,682.49 3327.13,767.8 3497.76,767.8 3497.76,853.11 3327.13,853.11 3327.13,767.8 3071.2,767.8 3071.2,938.42 
			3156.51,938.42 3156.51,1023.73 		"/>
		<polygon class="st3" points="3668.38,853.11 3668.38,767.8 3753.69,767.8 3753.69,511.87 3668.38,511.87 3668.38,426.56 
			3497.76,426.56 3497.76,341.24 3327.13,341.24 3327.13,255.93 3497.76,255.93 3497.76,341.24 3753.69,341.24 3753.69,170.62 
			3668.38,170.62 3668.38,85.31 3156.51,85.31 3156.51,170.62 3071.2,170.62 3071.2,426.56 3156.51,426.56 3156.51,511.87 
			3327.13,511.87 3327.13,597.18 3497.76,597.18 3497.76,682.49 3327.13,682.49 3327.13,597.18 3071.2,597.18 3071.2,767.8 
			3156.51,767.8 3156.51,853.11 		"/>
	</g>
	<g>
		<polygon class="st1" points="2474.02,511.87 2474.02,853.11 2474.02,1023.73 2559.33,1023.73 2559.33,1109.04 2815.27,1109.04 
			2815.27,1023.73 2900.58,1023.73 2900.58,853.11 2900.58,511.87 2985.89,511.87 2985.89,426.56 3071.2,426.56 3071.2,255.93 
			3071.2,85.31 2985.89,85.31 2985.89,0 2388.71,0 2388.71,85.31 2303.4,85.31 2303.4,255.93 2303.4,426.56 2388.71,426.56 
			2388.71,511.87 		"/>
		<polygon class="st2" points="2815.27,1023.73 2815.27,426.56 2985.89,426.56 2985.89,255.93 2388.71,255.93 2388.71,426.56 
			2559.33,426.56 2559.33,1023.73 		"/>
		<polygon class="st3" points="2815.27,853.11 2815.27,255.93 2985.89,255.93 2985.89,85.31 2388.71,85.31 2388.71,255.93 
			2559.33,255.93 2559.33,853.11 		"/>
	</g>
</g>
</svg>
