<svg xmlns="http://www.w3.org/2000/svg" id="android-logo-header" class="icon--svg header-default__wordmark-icon header-default__drawer-logo-icon logo-android__wordmark-icon  header-default__logo-icon" enable-background="new 0 0 898 160" viewBox="0 0 898 160"><rect style="fill: none;" x="2130" y="-164" width="540" height="486"/><path d="m2224.2 210.9c-10.7 0-17.9 8.4-17.9 19.2s7.2 19.2 17.9 19.2 17.9-8.4 17.9-19.2-7.2-19.2-17.9-19.2m-2.4-11.9c8.6 0 15.8 4.4 19.2 9.2v-8h13.2v59.9h-10.1c-1.7 0-3-1.4-3-3v-5c-3.4 4.8-10.5 9.2-19.2 9.2-16.4 0-28.9-14-28.9-31.1s12.4-31.2 28.8-31.2"/><path d="m2269.2 200.2h13.2v8.1c3.6-6 10.4-9.3 18.2-9.3 13.9 0 22.9 9.8 22.9 25v36.1h-10.1c-1.7 0-3-1.4-3-3v-30.9c0-9.5-4.8-15.2-12.5-15.2-8.7 0-15.5 6.8-15.5 19.6v29.5h-10.1c-1.7 0-3-1.4-3-3v-56.9z"/><path d="m2365.1 210.9c-10.7 0-17.9 8.4-17.9 19.2s7.2 19.2 17.9 19.2 17.9-8.4 17.9-19.2-7.2-19.2-17.9-19.2m-2.4-11.9c8.6 0 15.8 4.4 19.2 9.2v-38h13.2v89.9h-10.1c-1.7 0-3-1.4-3-3v-5c-3.4 4.8-10.5 9.2-19.2 9.2-16.4 0-28.9-14-28.9-31.1s12.4-31.2 28.8-31.2"/><path d="m2410.1 200.2h13.2v10.7c2.3-6.8 9-11.3 15.8-11.3 1.7 0 3.4 0.1 5.1 0.5v13.5c-2.3-0.7-4.2-1.1-6.6-1.1-7.5 0-14.4 6.4-14.4 18.3v29.2h-10.1c-1.7 0-3-1.4-3-3v-56.8z"/><path d="m2479.7 249c10.5 0 18-8.3 18-18.9 0-10.7-7.4-18.9-18-18.9-10.7 0-18.1 8.3-18.1 18.9 0.1 10.7 7.5 18.9 18.1 18.9m0 12.3c-17.7 0-31.4-13.8-31.4-31.1 0-17.4 13.7-31.2 31.4-31.2s31.4 13.8 31.4 31.2c0 17.3-13.6 31.1-31.4 31.1"/><path d="m2521.8 200.2h13.2v59.9h-10.1c-1.7 0-3-1.4-3-3v-56.9zm6.6-13.1c-4.8 0-8.9-4-8.9-8.9 0-4.8 4.1-8.7 8.9-8.7 4.9 0 8.7 4 8.7 8.7 0 4.9-3.8 8.9-8.7 8.9"/><path d="m2577.1 210.9c-10.7 0-17.9 8.4-17.9 19.2s7.2 19.2 17.9 19.2 17.9-8.4 17.9-19.2c-0.1-10.8-7.2-19.2-17.9-19.2m-2.4-11.9c8.6 0 15.8 4.4 19.2 9.2v-38h13.2v89.9h-10.1c-1.7 0-3-1.4-3-3v-5c-3.4 4.8-10.5 9.2-19.2 9.2-16.4 0-28.9-14-28.9-31.1s12.4-31.2 28.8-31.2"/><path style="fill: #3DDC84;" d="m2501.5-30.8l34.5-59.7c2-3.4 0.8-7.8-2.6-9.8s-7.8-0.8-9.8 2.6l-34.9 60.4c-26.7-12.2-56.7-19-88.6-19-32 0-61.9 6.8-88.6 19l-34.9-60.4c-2-3.4-6.4-4.6-9.8-2.6s-4.6 6.4-2.6 9.8l34.5 59.7c-59.4 32.2-99.8 92.1-105.7 162.8h414c-5.9-70.7-46.4-130.6-105.5-162.8zm-196.8 103.8c-9.5 0-17.2-7.7-17.2-17.2s7.7-17.2 17.2-17.2 17.2 7.7 17.2 17.2-7.7 17.2-17.2 17.2zm190.6 0c-9.5 0-17.2-7.7-17.2-17.2s7.7-17.2 17.2-17.2 17.2 7.7 17.2 17.2-7.7 17.2-17.2 17.2z"/><rect style="fill: none;" x="-72" y="-75" width="1046" height="309"/><path d="m59.3 56.4c12.4 0 22.7 6.4 27.6 13.3v-11.6h18.9v86.1h-13.6c-3 0-5.4-2.4-5.4-5.4v-6.2c-4.8 7-15.1 13.4-27.5 13.4-23.6 0-41.5-20.2-41.5-44.8s17.9-44.8 41.5-44.8m3.4 17.2c-15.3 0-25.7 12.1-25.7 27.6s10.3 27.6 25.7 27.6c15.3 0 25.7-12.1 25.7-27.6s-10.3-27.6-25.7-27.6"/><path d="m127.3 58.1h19v11.7c5.2-8.6 15-13.4 26.2-13.4 20 0 32.9 14.1 32.9 36v51.8h-13.6c-3 0-5.4-2.4-5.4-5.4v-43.3c0-13.6-6.9-21.9-17.9-21.9-12.6 0-22.2 9.8-22.2 28.2v42.4h-13.6c-3 0-5.4-2.4-5.4-5.4v-80.7z"/><path d="m261.9 56.4c12.4 0 22.7 6.4 27.6 13.3v-54.6h18.9v129.2h-13.6c-3 0-5.4-2.4-5.4-5.4v-6.2c-4.8 6.9-15.2 13.3-27.6 13.3-23.6 0-41.5-20.2-41.5-44.8 0.1-24.6 18-44.8 41.6-44.8m3.4 17.2c-15.3 0-25.7 12.1-25.7 27.6s10.3 27.6 25.7 27.6c15.3 0 25.7-12.1 25.7-27.6s-10.4-27.6-25.7-27.6"/><path d="m329.9 58.1h18.9v15.3c3.3-9.8 12.9-16.2 22.7-16.2 2.4 0 4.8 0.2 7.4 0.7v19.5c-3.3-1-6-1.6-9.5-1.6-10.9 0-20.7 9.1-20.7 26.4v42h-13.6c-3 0-5.4-2.4-5.4-5.4v-80.7z"/><path d="m430.1 146c-25.5 0-45.1-19.8-45.1-44.8s19.6-44.8 45.1-44.8 45.1 19.8 45.1 44.8-19.6 44.8-45.1 44.8m0-17.6c15.2 0 25.8-11.9 25.8-27.2s-10.7-27.2-25.8-27.2c-15.3 0-26 11.9-26 27.2s10.7 27.2 26 27.2"/><path d="m500 39.3c-6.9 0-12.7-5.7-12.7-12.7 0-6.9 5.9-12.6 12.7-12.6 7.1 0 12.6 5.7 12.6 12.6 0 7.1-5.5 12.7-12.6 12.7m-9.4 18.8h18.9v86.1h-13.5c-3 0-5.4-2.4-5.4-5.4v-80.7z"/><path d="m566.6 56.4c12.4 0 22.7 6.4 27.6 13.3v-54.6h18.9v129.2h-13.6c-3 0-5.4-2.4-5.4-5.4v-6.2c-4.8 6.9-15.2 13.3-27.6 13.3-23.6 0-41.5-20.2-41.5-44.8 0.1-24.6 18-44.8 41.6-44.8m3.5 17.2c-15.3 0-25.7 12.1-25.7 27.6s10.3 27.6 25.7 27.6c15.3 0 25.7-12.1 25.7-27.6s-10.4-27.6-25.7-27.6"/><path class="logo-android__andy-icon " d="m822.2 111.7c-5.3 0-9.6-4.3-9.6-9.6s4.3-9.6 9.6-9.6 9.6 4.3 9.6 9.6-4.3 9.6-9.6 9.6m-105.7 0c-5.3 0-9.6-4.3-9.6-9.6s4.3-9.6 9.6-9.6 9.6 4.3 9.6 9.6-4.3 9.6-9.6 9.6m109.1-57.6l19.2-33.1c1.1-1.9 0.4-4.3-1.5-5.4s-4.3-0.4-5.4 1.5l-19.4 33.5c-14.8-6.8-31.4-10.6-49.1-10.6s-34.4 3.8-49.2 10.5l-19.4-33.5c-1.1-1.9-3.5-2.6-5.4-1.5s-2.6 3.5-1.5 5.4l19.1 33.1c-32.8 17.9-55.3 51.1-58.6 90.4h229.7c-3.2-39.2-25.6-72.4-58.5-90.3"/></svg>