<?xml version="1.0" encoding="utf-8"?>
<!-- Generator: Adobe Illustrator 26.5.0, SVG Export Plug-In . SVG Version: 6.00 Build 0)  -->
<svg version="1.1" id="Layer_1" xmlns="http://www.w3.org/2000/svg" xmlns:xlink="http://www.w3.org/1999/xlink" x="0px" y="0px"
	 viewBox="0 0 2271.47 2239" style="enable-background:new 0 0 2271.47 2239;" xml:space="preserve">
<style type="text/css">
	.st0{fill:#FFFFFF;}
	.st1{fill:#FF8500;}
</style>
<g>
	<g>
		<path class="st0" d="M837.95,2235.69v-8.99c7.89-0.95,13.33-3,16.33-6.15c3-3.15,4.5-8.36,4.5-15.62v-159.51
			c0-13.57-6-20.36-17.99-20.36c-6.32,0-13.49,3.16-21.54,9.47c-8.05,6.32-16.17,15.31-24.38,26.98v143.42
			c0,7.26,1.57,12.54,4.73,15.86c3.15,3.31,8.67,5.29,16.57,5.91v8.99H708.73v-8.99c8.2-0.63,13.8-2.6,16.8-5.91
			c3-3.32,4.5-8.6,4.5-15.86v-158.57c0-6.94-1.89-12.23-5.68-15.86c-3.78-3.62-8.52-5.44-14.2-5.44c-6.32,0-13.09,2.45-20.35,7.34
			c-7.26,4.9-15.15,12.54-23.67,22.96v149.57c0,12.62,6.63,19.88,19.88,21.77v8.99H577.14v-8.99c8.52-0.31,14.67-2.2,18.46-5.68
			c3.79-3.47,5.68-8.83,5.68-16.09v-175.61c0-4.73-0.4-8.44-1.19-11.13c-0.79-2.68-1.98-4.8-3.55-6.39
			c-1.58-1.57-3.79-2.68-6.63-3.31c-2.83-0.63-6.32-1.42-10.41-2.37v-8.52h86.62v35.5c11.04-13.26,22.16-22.96,33.37-29.11
			c11.19-6.15,23.74-9.23,37.63-9.23c15.78,0,28.08,3.63,36.92,10.89c8.83,7.26,14.83,18.78,17.99,34.56
			c6.31-8.52,12.31-15.62,17.99-21.3c5.68-5.68,11.36-10.33,17.05-13.96c5.68-3.62,11.51-6.23,17.51-7.81
			c5.99-1.57,12.62-2.36,19.88-2.36c11.36,0,21.37,2.13,30.06,6.39c8.67,4.26,15.22,10.49,19.64,18.7c1.89,3.48,3.47,6.71,4.73,9.7
			c1.25,3,2.2,6.47,2.84,10.42c0.63,3.95,1.1,8.45,1.42,13.49c0.31,5.05,0.47,11.36,0.47,18.93v132.53c0,7.26,1.5,12.47,4.5,15.62
			c2.99,3.15,8.43,5.21,16.32,6.15v8.99H837.95z"/>
		<path class="st0" d="M949.66,2235.69v-8.99c16.09,0,24.14-7.26,24.14-21.77v-175.61c0-8.2-1.51-13.97-4.5-17.28
			c-3-3.31-8.76-5.28-17.28-5.92v-8.52h86.62v206.85c0,14.83,8.05,22.24,24.14,22.24v8.99H949.66z"/>
		<path class="st0" d="M1218.51,2222.2c-16.26,10.57-33.84,15.85-52.77,15.85c-29.04,0-51.83-10.01-68.4-30.05
			c-16.56-20.04-24.85-47.88-24.85-83.55c0-18.93,2.52-36.36,7.58-52.3c5.04-15.93,12.14-29.58,21.3-40.94
			c9.15-11.36,20.04-20.28,32.66-26.75c12.62-6.46,26.5-9.7,41.65-9.7c10.41,0,20.27,1.74,29.58,5.21
			c9.3,3.48,17.51,8.05,24.61,13.73c7.11,5.68,12.78,12.3,17.05,19.88c4.26,7.58,6.39,15.62,6.39,24.14c0,7.26-2.61,13.49-7.81,18.7
			c-5.21,5.21-11.6,7.81-19.17,7.81c-17.99,0-28.4-12.94-31.24-38.81c-1.58-13.25-4.26-22.4-8.05-27.46
			c-3.79-5.04-9.94-7.57-18.46-7.57c-12.3,0-21.93,6.79-28.87,20.35c-6.94,13.57-10.41,32.5-10.41,56.8
			c0,17.68,1.66,33.61,4.97,47.81c3.32,14.2,7.97,26.43,13.97,36.69c5.99,10.25,13.25,18.15,21.77,23.66
			c8.52,5.53,17.99,8.28,28.4,8.28c19.25,0,37.4-9.94,54.44-29.82l5.21,3.32C1247.93,2196.72,1234.76,2211.63,1218.51,2222.2z"/>
		<path class="st0" d="M1443.1,2028.37c0,9.46-2.77,17.2-8.28,23.19c-5.53,6-12.86,8.99-22.01,8.99c-7.27,0-12.78-1.34-16.57-4.02
			c-3.79-2.68-6.94-5.68-9.47-8.99c-2.53-3.32-4.89-6.39-7.1-9.23s-5.21-4.26-8.99-4.26c-7.26,0-13.49,4.34-18.69,13.01
			c-5.21,8.69-7.81,19.02-7.81,31.01v124.01c0,9.47,1.96,15.94,5.91,19.41c3.94,3.47,11.75,5.21,23.43,5.21v8.99h-119.28v-8.99
			c16.73-0.31,25.09-8.05,25.09-23.19v-173.24c0-9.15-1.66-15.3-4.97-18.46c-3.31-3.15-10.02-5.04-20.12-5.68v-8.52h88.51v35.97
			c18.3-27.14,38.81-40.71,61.54-40.71c11.99,0,21.45,3.16,28.4,9.47C1439.62,2008.65,1443.1,2017.33,1443.1,2028.37z"/>
		<path class="st0" d="M1632.43,2116.41c0,18.63-2.6,35.43-7.81,50.41c-5.21,15-12.62,27.78-22.24,38.34
			c-9.63,10.57-21.07,18.7-34.32,24.38c-13.25,5.68-27.93,8.52-44.02,8.52c-15.79,0-30.29-2.83-43.55-8.52
			c-13.25-5.68-24.69-13.8-34.32-24.38c-9.63-10.57-17.12-23.35-22.48-38.34c-5.37-14.98-8.05-31.78-8.05-50.41
			c0-18.61,2.68-35.41,8.05-50.41c5.36-14.98,12.86-27.76,22.48-38.34s21.07-18.7,34.32-24.38c13.26-5.68,27.76-8.52,43.55-8.52
			c16.72,0,31.79,2.84,45.2,8.52c13.41,5.68,24.77,13.8,34.08,24.38c9.31,10.57,16.49,23.35,21.54,38.34
			C1629.89,2080.99,1632.43,2097.8,1632.43,2116.41z M1565.21,2116.41c0-19.24-0.79-35.5-2.36-48.75
			c-1.58-13.25-4.03-24.06-7.34-32.42c-3.31-8.35-7.58-14.44-12.78-18.22c-5.21-3.78-11.44-5.68-18.7-5.68
			c-7.26,0-13.49,1.89-18.7,5.68c-5.21,3.79-9.47,9.87-12.78,18.22c-3.32,8.37-5.76,19.17-7.34,32.42
			c-1.58,13.26-2.36,29.51-2.36,48.75c0,19.25,0.78,35.5,2.36,48.75c1.57,13.25,4.02,24.07,7.34,32.42
			c3.31,8.37,7.57,14.44,12.78,18.22c5.21,3.79,11.43,5.68,18.7,5.68c7.26,0,13.49-1.89,18.7-5.68c5.21-3.79,9.47-9.86,12.78-18.22
			c3.31-8.35,5.76-19.17,7.34-32.42C1564.42,2151.91,1565.21,2135.66,1565.21,2116.41z"/>
		<path class="st0" d="M1861.04,2110.73c0,18.93-2.53,36.2-7.57,51.83c-5.05,15.62-12.07,29.04-21.07,40.23
			c-8.99,11.21-19.88,19.88-32.66,26.04c-12.78,6.15-26.74,9.23-41.89,9.23c-12.31,0-23.51-2.13-33.61-6.39
			c-10.1-4.26-20.04-10.96-29.82-20.11l-36.45,27.45h-6.15v-322.34c0-7.26-2.13-12.23-6.39-14.91c-4.26-2.68-11.92-4.33-22.95-4.97
			v-8.99h94.19v134.9c15.46-18.61,33.92-27.93,55.38-27.93c13.25,0,25.4,2.77,36.45,8.28c11.04,5.53,20.43,13.41,28.16,23.67
			c7.73,10.25,13.73,22.48,17.99,36.68C1858.92,2077.6,1861.04,2093.38,1861.04,2110.73z M1794.3,2111.67
			c0-60.27-14.36-90.4-43.07-90.4c-4.42,0-8.69,0.87-12.78,2.6c-4.1,1.74-7.81,3.95-11.13,6.62c-3.31,2.69-5.91,5.84-7.81,9.47
			c-1.89,3.63-2.84,7.34-2.84,11.13v124.49c0,13.57,3,24.22,8.99,31.95c6,7.74,14.36,11.6,25.09,11.6
			c14.83,0,25.79-8.75,32.89-26.27C1790.75,2175.34,1794.3,2148.29,1794.3,2111.67z"/>
		<path class="st0" d="M2062.5,2182.91c-1.89,3.64-3.87,6.95-5.91,9.94c-2.06,3-4.5,6-7.34,9c-2.84,3-6.32,6.38-10.42,10.17
			c-9.78,9.16-19.4,15.79-28.87,19.88c-9.46,4.1-20.19,6.15-32.18,6.15c-14.2,0-27.22-2.76-39.05-8.28
			c-11.83-5.52-21.86-13.33-30.05-23.43c-8.21-10.1-14.6-22.41-19.17-36.93c-4.58-14.51-6.87-30.6-6.87-48.28
			c0-17.99,2.45-34.71,7.34-50.17c4.89-15.46,11.67-28.87,20.36-40.24c8.67-11.36,19.01-20.19,31-26.5
			c11.99-6.31,24.93-9.47,38.81-9.47c26.82,0,47.81,10.02,62.96,30.06c15.15,20.04,23.19,48.2,24.14,84.49h-123.54
			c0.63,30.61,6.23,53.88,16.8,69.82c10.57,15.94,25.8,23.9,45.67,23.9c11.04,0,20.83-2.76,29.35-8.28
			c8.52-5.51,17.2-14.74,26.03-27.69l7.1,2.84C2066.44,2174.95,2064.39,2179.29,2062.5,2182.91z M2010.9,2085.22
			c-0.63-27.61-3.39-46.99-8.28-58.13c-4.89-11.14-12.86-16.71-23.9-16.71c-12,0-20.75,6.52-26.27,19.53
			c-5.53,13.03-8.45,34.28-8.75,63.77h67.21V2085.22z"/>
		<path class="st0" d="M2265.32,2182.91c-1.89,3.64-3.87,6.95-5.91,9.94c-2.06,3-4.5,6-7.34,9c-2.84,3-6.32,6.38-10.42,10.17
			c-9.78,9.16-19.4,15.79-28.87,19.88c-9.46,4.1-20.19,6.15-32.18,6.15c-14.2,0-27.22-2.76-39.05-8.28
			c-11.83-5.52-21.86-13.33-30.05-23.43c-8.21-10.1-14.6-22.41-19.17-36.93c-4.58-14.51-6.87-30.6-6.87-48.28
			c0-17.99,2.45-34.71,7.34-50.17c4.89-15.46,11.67-28.87,20.36-40.24c8.67-11.36,19.01-20.19,31-26.5
			c11.99-6.31,24.93-9.47,38.81-9.47c26.82,0,47.81,10.02,62.96,30.06c15.15,20.04,23.19,48.2,24.14,84.49h-123.54
			c0.63,30.61,6.23,53.88,16.8,69.82c10.57,15.94,25.8,23.9,45.67,23.9c11.04,0,20.83-2.76,29.35-8.28
			c8.52-5.51,17.2-14.74,26.03-27.69l7.1,2.84C2269.26,2174.95,2267.21,2179.29,2265.32,2182.91z M2213.72,2085.22
			c-0.63-27.61-3.39-46.99-8.28-58.13c-4.89-11.14-12.86-16.71-23.9-16.71c-12,0-20.75,6.52-26.27,19.53
			c-5.52,13.03-8.45,34.28-8.75,63.77h67.21V2085.22z"/>
	</g>
	<g>
		<path class="st0" d="M974.31,1193.16c-8.22,0-16.36-0.18-24.43-0.52l-232.19,545.47c50.75,25.13,106.09,46.25,164.28,62.66
			l268.8-631.49C1090.77,1184.95,1031.27,1193.16,974.31,1193.16z"/>
		<path class="st0" d="M1555.73,944.54c-25.39,23.33-52.65,45.82-81.73,67.32c-10.62,7.85-21.36,15.46-32.21,22.85l-342.03,803.52
			c22.77,1.51,45.64,2.29,68.52,2.29c18.41,0,36.83-0.48,55.19-1.51c23.61-1.3,46.88-3.54,69.75-6.63l357.5-839.87
			C1621.27,974.54,1589.5,958.48,1555.73,944.54z"/>
		<path class="st0" d="M1427.23,948.59c291.62-215.54,352.36-512.13,206.68-698.69c-68.49-87.72-177.78-131-301.58-131
			c-139.48,0.01-297.41,54.97-436.05,163.23C634.57,486.48,540.49,803.37,686.17,989.94c66.05,84.6,169.69,124.55,288.14,124.55
			C1117.06,1114.49,1281.32,1056.46,1427.23,948.59z"/>
		<path class="st0" d="M235.7,1251.36c-100.93,234.04,162.17,322.38,162.17,322.38l214.48-508.33
			C477.89,1065.41,306.21,1087.86,235.7,1251.36z"/>
		<path class="st0" d="M1997.9,1320.08c-3.86-50.43-15.63-99.97-34.99-147.25c-18.76-45.81-44.7-89.63-77.09-130.26
			c-31.64-39.68-69.5-76.38-112.52-109.08c-29.46-22.39-61.36-42.92-95.26-61.33c34.37-43.18,63.3-88.33,86.28-134.74
			c30.63-61.85,50.59-125.71,59.34-189.82c18.54-135.88-15.63-267.54-96.21-370.73c-22.19-28.41-47.97-54.02-76.62-76.12
			c-28.33-21.85-59.77-40.5-93.47-55.45c-67.42-29.9-143.13-45.06-225.01-45.06c-71.54,0-144.81,11.42-217.78,33.95
			c-63.93,19.73-126.75,47.72-187.09,83.31c-38.2-26.53-79.26-48.65-122.4-65.92C719.6,17.35,633.63,0,549.54,0c0,0,0,0,0,0
			C440.06,0.01,335.17,30.02,246.2,86.8C157.03,143.72,86.92,225.54,43.46,323.42C13.7,390.47-0.9,461.32,0.04,534.02
			c0.91,70.18,16.24,139.32,45.54,205.49c29.14,65.81,70.8,125.71,123.83,178.05c37.88,37.39,80.55,69.89,127.42,97.09
			c-21.35,12.02-41.21,25.59-59.44,40.65c-47.8,39.49-85.03,89.64-110.66,149.07c-23.28,53.98-34.18,107.76-32.4,159.84
			c1.38,40.24,10.24,78.92,26.34,114.97c15.06,33.73,36.32,65.3,63.18,93.84c21.47,22.81,46.62,43.8,74.75,62.38
			c47.72,31.53,89.74,46.87,101.48,50.82l69.19,23.22c4.21,1.41,8.5,2.09,12.73,2.09c9.4,0,18.47-3.33,25.61-9.28
			c2.19,5.93,5.81,11.38,10.72,15.81c81.65,73.66,190.17,135.08,313.83,177.63c120.71,41.53,250.77,63.48,376.12,63.48
			c20.57,0,41.35-0.57,61.74-1.69c61.76-3.41,123.57-12.64,183.73-27.44c59.36-14.6,117.12-34.61,171.67-59.49
			c54.7-24.94,106.12-54.75,152.83-88.59c47.61-34.5,90.33-73.19,126.98-115.02C1959.68,1559.18,2006.8,1435.99,1997.9,1320.08z
			 M1835.15,1640.6c-140.35,160.18-367.39,263.7-607.32,276.95c-19.61,1.08-39.66,1.63-59.54,1.63
			c-243.99,0-503.25-86.55-663.16-230.81l32.43-76.22c0,0,0.01,0,0.01,0.01l202.36-475.4c-20-11.08-38.81-23.74-56.3-37.91
			l-213.28,505.47L442,1671.53l-69.17-23.22c-15.99-5.38-157.95-56.21-215.64-185.44c-22.83-51.14-40.28-134.74,6.27-242.67
			c49.88-115.67,139.38-174.02,227.46-203.47c-4.58-1.91-9.14-3.86-13.67-5.88C98.6,886.75-31.95,591.92,80.02,339.65
			C162.08,154.83,341.99,40.01,549.54,40c78.99,0,159.94,16.39,240.68,48.71c48.79,19.54,94.28,45.53,135.31,76.82
			c129.17-81.29,270.82-125.3,406.83-125.3c153.24,0,282.35,57.26,363.57,161.25c73.9,94.63,105.18,215.62,88.11,340.7
			c-16.46,120.59-75.23,238.39-169.37,342.91c196.29,90.75,328.94,249.67,343.35,438.04
			C1966.09,1428.25,1922.44,1540.99,1835.15,1640.6z"/>
		<path class="st0" d="M1817.54,1149.71l-255.53,600.35c201.19-100.76,329.17-269.56,317.58-420.91
			C1874.65,1264.7,1852.96,1204.17,1817.54,1149.71z"/>
		<path class="st0" d="M589.05,985c-56.45-103.1-65.95-230.19-26.02-364.69c44.32-149.24,145.46-291.37,284.83-400.18
			c3.07-2.4,6.15-4.76,9.24-7.11c-29.46-20.13-61.59-37.45-96.12-51.27c-74.06-29.65-145.2-43.08-211.44-43.07
			c-184.93,0-331.79,104.59-397.61,252.9c-93.99,211.75,17.5,460.6,257.34,567.42C467.66,965,528.7,980.14,589.05,985z"/>
	</g>
</g>
</svg>
