<?xml version="1.0" encoding="utf-8"?>
<!-- Generator: Adobe Illustrator 25.4.1, SVG Export Plug-In . SVG Version: 6.00 Build 0)  -->
<svg version="1.1" id="Layer_1" xmlns="http://www.w3.org/2000/svg" xmlns:xlink="http://www.w3.org/1999/xlink" x="0px" y="0px"
	 viewBox="0 0 3839 826.4" style="enable-background:new 0 0 3839 826.4;" xml:space="preserve">
<style type="text/css">
	.st0{fill:#FFFFFF;}
</style>
<g>
	<g>
		<path class="st0" d="M364.8,23.4c19.8,9.8,35.2,22.1,46,36.9s18,30.6,21.4,47.2c3.4,16.7,5.2,31.9,5.2,45.6
			c0,16.9-2.5,32.5-7.5,46.8c-5,14.3-12.3,27-21.8,38.1c-9.5,11.1-20.9,20.2-34.1,27.4c-13.2,7.1-27.8,11.8-43.7,13.9
			c38.6,2.6,68.5,16.7,89.7,42.1c21.2,25.4,31.8,58.7,31.8,100c0,17.5-3,35.5-9.1,54c-6.1,18.5-16,35.3-29.8,50.4
			c-13.8,15.1-31.5,27.4-53.2,36.9c-21.7,9.5-48.4,14.3-80.2,14.3H0v-52.4h80.2V61.1H0.8V8.7h285.8C318.9,8.7,344.9,13.6,364.8,23.4
			z M307.2,250.5c15.3-6.6,27.5-15.1,36.5-25.4c9-10.3,15.2-21.8,18.7-34.5c3.4-12.7,5.2-25.1,5.2-37.3c0-11.6-1.3-23-4-34.1
			c-2.6-11.1-7.8-20.9-15.5-29.4c-7.7-8.5-18.1-15.4-31.4-20.6c-13.2-5.3-30.4-7.9-51.6-7.9H149.3v199.3h100
			C272.6,260.4,291.9,257.1,307.2,250.5z M318.3,512.4c16.4-8.2,29.2-18,38.5-29.4c9.3-11.4,15.5-22.9,18.7-34.5
			c3.2-11.6,4.8-21.2,4.8-28.6c0-15.3-1.7-29.6-5.2-42.9c-3.4-13.2-9.1-24.6-17.1-34.1c-7.9-9.5-18.4-17.1-31.4-22.6
			c-13-5.6-29-8.3-48-8.3H149.3v212.8H254C280.5,524.7,301.9,520.6,318.3,512.4z"/>
		<path class="st0" d="M894.3,23.4c19.8,9.8,35.2,22.1,46,36.9c10.8,14.8,18,30.6,21.4,47.2c3.4,16.7,5.2,31.9,5.2,45.6
			c0,16.9-2.5,32.5-7.5,46.8s-12.3,27-21.8,38.1c-9.5,11.1-20.9,20.2-34.1,27.4c-13.2,7.1-27.8,11.8-43.7,13.9
			c38.6,2.6,68.5,16.7,89.7,42.1c21.2,25.4,31.8,58.7,31.8,100c0,17.5-3,35.5-9.1,54c-6.1,18.5-16,35.3-29.8,50.4
			c-13.8,15.1-31.5,27.4-53.2,36.9c-21.7,9.5-48.4,14.3-80.2,14.3H529.5v-52.4h80.2V61.1h-79.4V8.7h285.8
			C848.4,8.7,874.4,13.6,894.3,23.4z M836.7,250.5c15.3-6.6,27.5-15.1,36.5-25.4c9-10.3,15.2-21.8,18.7-34.5
			c3.4-12.7,5.2-25.1,5.2-37.3c0-11.6-1.3-23-4-34.1s-7.8-20.9-15.5-29.4c-7.7-8.5-18.1-15.4-31.4-20.6c-13.2-5.3-30.4-7.9-51.6-7.9
			H678.7v199.3h100C802.1,260.4,821.4,257.1,836.7,250.5z M847.8,512.4c16.4-8.2,29.2-18,38.5-29.4c9.3-11.4,15.5-22.9,18.7-34.5
			c3.2-11.6,4.8-21.2,4.8-28.6c0-15.3-1.7-29.6-5.2-42.9c-3.4-13.2-9.1-24.6-17.1-34.1c-7.9-9.5-18.4-17.1-31.4-22.6
			c-13-5.6-29-8.3-48-8.3H678.7v212.8h104.8C810,524.7,831.4,520.6,847.8,512.4z"/>
		<path class="st0" d="M1559.9,8.7v201.6H1498c-2.6-46-16.7-83.4-42.1-111.9c-25.4-28.6-62.2-42.9-110.3-42.9
			c-60.9,0-107,20.1-138.5,60.3s-47.2,97.1-47.2,170.7c0,78.3,15.3,138.4,46,180.2c30.7,41.8,75.7,62.7,135,62.7
			c45,0,80.3-13.1,106-39.3c25.7-26.2,39.8-61,42.5-104.4h73c-1.6,32.3-7.9,60.9-19.1,85.7c-11.1,24.9-26.3,45.9-45.6,63.1
			c-19.3,17.2-42.3,30.2-69.1,38.9c-26.7,8.7-56.2,13.1-88.5,13.1c-48.2,0-88.6-8.5-121.5-25.4c-32.8-16.9-59.3-39.3-79.4-67.1
			c-20.1-27.8-34.5-59.1-43.3-94.1c-8.7-34.9-13.1-70.7-13.1-107.2c0-38.6,5-75.7,15.1-111.1c10.1-35.5,25.4-66.7,46-93.7
			c20.6-27,47-48.4,79-64.3c32-15.9,70.3-23.8,114.7-23.8c41.3,0,75.9,7.9,104,23.8c28,15.9,48.4,38.4,61.1,67.5V8.7H1559.9z"/>
		<path class="st0" d="M2107.6,494.6L2259.3,8.7h200.1v52.4h-81v463.6h81v52.4h-220.7v-52.4h73V61.1h-5.6l-169.1,516h-61.9
			L1906,61.1h-5.6v463.6h73.8v52.4h-215.9v-52.4h81.8V61.1h-81.8V8.7h202.4L2107.6,494.6z"/>
		<path class="st0" d="M2641.9,527.1h64.3v50h-195.3v-50h66.7V209.6h-65.9v-46.8h130.2V527.1z M2646.7,75.4h-73.8V8.7h73.8V75.4z"/>
		<path class="st0" d="M3093.6,162.7v152.4h-50V308c-0.5-13.2-3.3-26.1-8.3-38.5c-5-12.4-12-23.7-21-33.7s-19.6-18.1-31.8-24.2
			c-12.2-6.1-25.7-9.1-40.5-9.1c-22.2,0-41.1,4.9-56.8,14.7c-15.6,9.8-28.3,22.4-38.1,37.7c-9.8,15.3-16.9,32.8-21.4,52.4
			c-4.5,19.6-6.7,39.2-6.7,58.7c0,20.1,2.5,40,7.5,59.5c5,19.6,12.6,37.2,22.6,52.8c10.1,15.6,22.8,28.3,38.1,38.1
			c15.3,9.8,33.3,14.7,54,14.7c23.3,0,43.5-7.4,60.7-22.2c17.2-14.8,28.7-35.7,34.5-62.7l1.6-9.5h60.3l-0.8,14.3
			c-2.6,20.6-8.6,39.2-17.9,55.6c-9.3,16.4-21.2,30.2-35.7,41.3c-14.6,11.1-31.2,19.7-50,25.8c-18.8,6.1-38.5,9.1-59.1,9.1
			c-29.6,0-56-5.4-79-16.3c-23-10.8-42.5-25.8-58.3-44.9c-15.9-19.1-28.1-41.3-36.5-66.7c-8.5-25.4-12.7-52.4-12.7-81
			c0-37,4.9-69.6,14.7-97.6c9.8-28.1,22.8-51.3,38.9-69.9c16.1-18.5,34.9-32.5,56.4-42.1c21.4-9.5,43.8-14.3,67.1-14.3
			c27,0,50,5,69.1,15.1c19.1,10.1,35.5,26.5,49.2,49.2v-51.6H3093.6z"/>
		<path class="st0" d="M3398.8,212.8c-4.5-0.5-8.9-0.8-13.1-0.8c-76.7,0-115.1,51.1-115.1,153.2v161.9h78.6v50h-208.8v-50h65.9
			V209.6h-65.9v-46.8h130.2v82.6c6.4-18,13-32.7,19.8-44.1c6.9-11.4,14.8-20.4,23.8-27c9-6.6,19.2-11.2,30.6-13.9s25-4.2,40.9-4.8
			h27v59.5C3407.9,214.1,3403.3,213.3,3398.8,212.8z"/>
		<path class="st0" d="M3786.6,523.9c-34.9,39.2-81.2,58.7-138.9,58.7c-64.6,0-113.3-22-146.1-65.9c-31.8-43.4-47.6-94.2-47.6-152.4
			c0-33.3,4.8-63.2,14.3-89.7c9.5-26.5,22.9-49,40.1-67.5c17.2-18.5,37.8-32.7,61.9-42.5c24.1-9.8,50.9-14.7,80.6-14.7
			c30.7,0,57.8,5.4,81.4,16.3c23.6,10.9,43.3,26.1,59.1,45.6c15.9,19.6,27.8,42.6,35.7,69.1c7.9,26.5,11.9,55.3,11.9,86.5
			C3839,432.1,3821.5,484.2,3786.6,523.9z M3690.9,523.9c14.6-6.9,27.9-17.2,40.1-31c12.7-13.8,22.2-31.8,28.6-54
			c6.4-22.2,9.5-47.6,9.5-76.2c0-52.4-10.6-92.7-31.8-121.1c-21.2-28.3-51.6-42.5-91.3-42.5c-19.1,0-36.3,3.8-51.6,11.5
			c-15.3,7.7-28.3,18.5-38.9,32.5c-10.6,14-18.8,31-24.6,50.8c-5.8,19.8-8.7,41.7-8.7,65.5c0,36,3.6,64.2,10.7,84.5
			c7.1,20.4,16.8,37.2,29,50.4c24.3,26.5,52.7,39.7,84.9,39.7C3661.7,534.3,3676.4,530.8,3690.9,523.9z"/>
	</g>
	<g>
		<path class="st0" d="M80.9,669.8c4.4,2.2,7.8,4.9,10.2,8.2c2.4,3.3,4,6.8,4.8,10.5c0.8,3.7,1.1,7.1,1.1,10.1
			c0,3.8-0.6,7.2-1.7,10.4c-1.1,3.2-2.7,6-4.8,8.4c-2.1,2.5-4.6,4.5-7.6,6.1s-6.2,2.6-9.7,3.1c8.6,0.6,15.2,3.7,19.9,9.3
			c4.7,5.6,7,13,7,22.2c0,3.9-0.7,7.9-2,12c-1.3,4.1-3.5,7.8-6.6,11.2c-3.1,3.3-7,6.1-11.8,8.2c-4.8,2.1-10.7,3.2-17.8,3.2H0v-11.6
			h17.8V678.2H0.2v-11.6h63.4C70.7,666.5,76.5,667.6,80.9,669.8z M68.1,720.1c3.4-1.5,6.1-3.3,8.1-5.6c2-2.3,3.4-4.8,4.1-7.7
			c0.8-2.8,1.1-5.6,1.1-8.3c0-2.6-0.3-5.1-0.9-7.6c-0.6-2.5-1.7-4.6-3.4-6.5c-1.7-1.9-4-3.4-7-4.6c-2.9-1.2-6.7-1.8-11.4-1.8H33.1
			v44.2h22.2C60.4,722.3,64.7,721.6,68.1,720.1z M70.6,778.2c3.6-1.8,6.5-4,8.5-6.5c2.1-2.5,3.4-5.1,4.1-7.7
			c0.7-2.6,1.1-4.7,1.1-6.3c0-3.4-0.4-6.6-1.1-9.5c-0.8-2.9-2-5.5-3.8-7.6c-1.8-2.1-4.1-3.8-7-5c-2.9-1.2-6.4-1.8-10.6-1.8H33.1
			v47.2h23.2C62.2,780.9,66.9,780,70.6,778.2z"/>
		<path class="st0" d="M175.1,711.8c-1-0.1-2-0.2-2.9-0.2c-17,0-25.5,11.3-25.5,34v35.9H164v11.1h-46.3v-11.1h14.6v-70.4h-14.6
			v-10.4h28.9V719c1.4-4,2.9-7.2,4.4-9.8c1.5-2.5,3.3-4.5,5.3-6c2-1.5,4.3-2.5,6.8-3.1c2.5-0.6,5.5-0.9,9.1-1.1h6v13.2
			C177.1,712.1,176,711.9,175.1,711.8z"/>
		<path class="st0" d="M215.8,781.5h14.3v11.1h-43.3v-11.1h14.8v-70.4h-14.6v-10.4h28.9V781.5z M216.9,681.3h-16.4v-14.8h16.4V681.3
			z"/>
		<path class="st0" d="M290.6,700.7v10.4h-26.4v60c0,3.8,0.8,6.7,2.3,8.9c1.5,2.2,3.8,3.3,6.7,3.3c3,0,5.4-1.3,7-4
			c1.6-2.6,2.4-7.2,2.4-13.8v-1.1h11.4v2.1c0,3.8-0.3,7.3-1,10.6c-0.6,3.3-1.8,6.2-3.5,8.7c-1.7,2.5-4,4.4-6.8,5.8
			c-2.8,1.4-6.3,2.1-10.6,2.1c-8,0-13.7-2.1-17.1-6.2c-3.4-4.2-5.1-10.4-5.1-18.7v-57.7h-15.8v-10.4h15.8v-18l14.3-5.3v23.2H290.6z"
			/>
		<path class="st0" d="M333,781.5h14.3v11.1H304v-11.1h14.8v-70.4h-14.6v-10.4H333V781.5z M334.1,681.3h-16.4v-14.8h16.4V681.3z"/>
		<path class="st0" d="M427.2,700.7v29.6h-11.1c0-0.4,0-0.8-0.1-1.2c-0.1-0.5-0.1-0.9-0.1-1.2c-0.2-3.4-1-6.4-2.2-9
			c-1.2-2.6-2.8-4.5-4.7-5.8c-2.8-2-5.7-3.2-8.7-3.7c-3-0.5-5.2-0.7-6.8-0.7c-5.3,0-9.7,1.4-13.4,4.1c-3.6,2.8-5.5,6.8-5.5,12.1
			c0,2.1,0.4,3.9,1.2,5.3c0.8,1.4,1.9,2.6,3.3,3.5c1.4,0.9,3,1.7,4.8,2.3c1.8,0.6,3.7,1.1,5.5,1.4c1.9,0.4,4.1,0.7,6.7,1.1
			c2.6,0.4,5.2,0.9,7.8,1.6c2.6,0.6,5.1,1.3,7.5,2.1c2.3,0.8,4.3,1.7,6,2.7c1.4,0.9,2.7,1.9,4,3c1.2,1.1,2.3,2.4,3.3,4
			c1,1.6,1.8,3.5,2.4,5.8c0.6,2.3,0.9,5,0.9,8.2c0,4-0.8,7.7-2.4,11.1s-3.7,6.4-6.4,8.9c-2.7,2.5-5.9,4.5-9.5,5.9
			c-3.6,1.4-7.6,2.1-11.8,2.1c-3.6,0-6.8-0.3-9.6-0.8s-5.2-1.4-7.4-2.6c-2.2-1.2-4.1-2.9-5.8-4.9c-1.7-2.1-3.4-4.5-5-7.5v14.6h-11.1
			v-31.7h11.1c0.5,4.1,1.4,7.6,2.9,10.4c1.5,2.8,3.3,5.1,5.5,6.9c2.2,1.8,4.7,3,7.5,3.8c2.8,0.8,5.7,1.1,8.7,1.1
			c5.3,0,9.7-1.5,13.2-4.4c3.5-2.9,5.3-7,5.3-12.3c0-3.4-0.8-6.1-2.4-8c-1.6-1.9-3.7-3.4-6.4-4.3c-1.8-0.7-3.9-1.2-6.4-1.6
			c-2.5-0.4-5.1-0.7-7.8-1.1c-2.7-0.4-5.5-0.9-8.3-1.6c-2.8-0.6-5.5-1.5-7.9-2.5c-4-1.8-7.3-4.3-9.9-7.5s-3.9-7.9-3.9-14.2
			c0-4.6,0.8-8.6,2.6-12c1.7-3.4,4-6.3,6.9-8.6c2.9-2.3,6.2-4.1,10.1-5.3c3.9-1.2,8-1.8,12.5-1.8c4.7,0,9.2,0.9,13.5,2.8
			c4.3,1.9,7.7,4.9,10.1,9.2v-9.2H427.2z"/>
		<path class="st0" d="M472.3,712.8c7.2-10,16.7-15,28.5-15c4.2,0,8.1,0.6,11.5,1.8c3.5,1.2,6.5,3,9.1,5.4c2.6,2.3,4.6,5.3,6,8.9
			c1.4,3.6,2.1,7.7,2.1,12.4v55.1h15.1v11.1h-44.5v-11.1h15.1v-52.3c0-6.3-1.4-11.4-4.3-15.1c-2.9-3.8-7.3-5.6-13.3-5.6
			c-2.8,0-5.7,0.4-8.7,1.3c-3,0.9-5.7,2.5-8.2,4.8c-2.5,2.3-4.5,5.4-6.1,9.3s-2.4,8.9-2.4,14.9v42.8h15.1v11.1h-44.2v-11.1H458
			V676.9h-14.8v-10.4h29V712.8z"/>
		<path class="st0" d="M680.6,669.8c4.4,2.2,7.8,4.9,10.2,8.2c2.4,3.3,4,6.8,4.8,10.5c0.8,3.7,1.1,7.1,1.1,10.1
			c0,3.8-0.6,7.2-1.7,10.4c-1.1,3.2-2.7,6-4.8,8.4c-2.1,2.5-4.6,4.5-7.6,6.1s-6.2,2.6-9.7,3.1c8.6,0.6,15.2,3.7,19.9,9.3
			c4.7,5.6,7,13,7,22.2c0,3.9-0.7,7.9-2,12c-1.3,4.1-3.5,7.8-6.6,11.2c-3.1,3.3-7,6.1-11.8,8.2c-4.8,2.1-10.7,3.2-17.8,3.2h-62
			v-11.6h17.8V678.2h-17.6v-11.6h63.4C670.4,666.5,676.2,667.6,680.6,669.8z M667.8,720.1c3.4-1.5,6.1-3.3,8.1-5.6
			c2-2.3,3.4-4.8,4.1-7.7c0.8-2.8,1.1-5.6,1.1-8.3c0-2.6-0.3-5.1-0.9-7.6c-0.6-2.5-1.7-4.6-3.4-6.5c-1.7-1.9-4-3.4-7-4.6
			c-2.9-1.2-6.7-1.8-11.4-1.8h-25.7v44.2H655C660.1,722.3,664.4,721.6,667.8,720.1z M670.3,778.2c3.6-1.8,6.5-4,8.5-6.5
			c2.1-2.5,3.4-5.1,4.1-7.7c0.7-2.6,1.1-4.7,1.1-6.3c0-3.4-0.4-6.6-1.1-9.5c-0.8-2.9-2-5.5-3.8-7.6c-1.8-2.1-4.1-3.8-7-5
			c-2.9-1.2-6.4-1.8-10.6-1.8h-28.7v47.2H656C661.9,780.9,666.6,780,670.3,778.2z"/>
		<path class="st0" d="M774.7,711.8c-1-0.1-2-0.2-2.9-0.2c-17,0-25.5,11.3-25.5,34v35.9h17.4v11.1h-46.3v-11.1h14.6v-70.4h-14.6
			v-10.4h28.9V719c1.4-4,2.9-7.2,4.4-9.8c1.5-2.5,3.3-4.5,5.3-6c2-1.5,4.3-2.5,6.8-3.1c2.5-0.6,5.5-0.9,9.1-1.1h6v13.2
			C776.8,712.1,775.7,711.9,774.7,711.8z"/>
		<path class="st0" d="M860.7,780.8c-7.7,8.7-18,13-30.8,13c-14.3,0-25.1-4.9-32.4-14.6c-7-9.6-10.6-20.9-10.6-33.8
			c0-7.4,1.1-14,3.2-19.9c2.1-5.9,5.1-10.9,8.9-15c3.8-4.1,8.4-7.2,13.7-9.4c5.3-2.2,11.3-3.3,17.9-3.3c6.8,0,12.8,1.2,18,3.6
			c5.2,2.4,9.6,5.8,13.1,10.1c3.5,4.3,6.2,9.4,7.9,15.3c1.8,5.9,2.6,12.3,2.6,19.2C872.3,760.4,868.5,772,860.7,780.8z M839.5,780.8
			c3.2-1.5,6.2-3.8,8.9-6.9c2.8-3.1,4.9-7,6.3-12c1.4-4.9,2.1-10.6,2.1-16.9c0-11.6-2.3-20.6-7-26.8c-4.7-6.3-11.4-9.4-20.2-9.4
			c-4.2,0-8,0.8-11.4,2.6c-3.4,1.7-6.3,4.1-8.6,7.2c-2.3,3.1-4.2,6.9-5.5,11.3c-1.3,4.4-1.9,9.2-1.9,14.5c0,8,0.8,14.2,2.4,18.7
			s3.7,8.2,6.4,11.2c5.4,5.9,11.7,8.8,18.8,8.8C833,783.1,836.3,782.3,839.5,780.8z"/>
		<path class="st0" d="M973.6,781.5v11.1h-27.8v-18.1c-3.1,6.9-7,11.9-11.7,14.9s-10.9,4.5-18.4,4.5c-9.4,0-16.6-2.5-21.7-7.4
			c-5.1-4.9-7.7-11.5-7.7-19.7c0-4.6,0.6-8.5,1.9-11.7c1.3-3.2,3-6,5.2-8.2c2.2-2.2,4.7-4,7.6-5.4c2.9-1.3,6-2.4,9.2-3.1
			c2.6-0.6,4.7-0.9,6.4-0.9c1.7,0,4-0.1,7-0.2c3.6-0.1,7-0.2,10.2-0.2h12v-7.9c0-6.7-1.9-11.8-5.6-15.4c-3.8-3.6-8.5-5.4-14.3-5.4
			c-4.6,0-7.9,0.4-10.1,1.3c-2.2,0.9-4.1,2.1-5.9,3.8c-1.6,1.4-2.9,3.1-3.9,5.2c-0.9,2.1-1.5,4.7-1.8,8h-14.8
			c0.4-5.5,1.5-10.1,3.5-13.8c2-3.7,4.8-6.8,8.4-9.2c2.9-2,6.2-3.5,9.9-4.4c3.6-0.9,8.2-1.4,13.6-1.4c4.9,0,8.9,0.4,12,1.1
			c3.1,0.8,6,2,8.8,3.6c4.1,2.3,7.4,5.4,9.8,9.1c2.4,3.7,3.6,9.1,3.6,16.3v53.5H973.6z M938,774.3c4.8-6,7.4-14.8,7.7-26.3
			c-2.1-0.4-4.3-0.6-6.6-0.6c-2.3-0.1-4.8-0.1-7.7-0.1c-2.5,0-4.8,0-7.1,0.1c-2.3,0.1-4.6,0.3-7,0.8c-4.9,0.9-8.8,2.7-11.7,5.4
			c-2.9,2.6-4.3,6.8-4.3,12.6c0,5,1.3,9.2,4,12.4c2.7,3.2,6.7,4.8,12,4.8C926.3,783.4,933.2,780.4,938,774.3z"/>
		<path class="st0" d="M1066.5,781.5h14.8v11.1h-29v-18.3c-2.5,6.7-6.4,11.6-11.7,14.8c-5.3,3.2-11.5,4.8-18.6,4.8
			c-10.3,0-19.2-4-26.6-12c-3.8-4.1-6.6-9.1-8.5-15c-1.9-5.9-2.9-13.1-2.9-21.6c0-5.8,0.7-11.4,2.1-17.1s3.6-10.7,6.7-15.2
			c3.1-4.5,7-8.2,11.9-10.9c4.9-2.8,10.8-4.1,17.7-4.1c7,0,13.1,1.5,18,4.6c5,3,8.9,7.5,11.9,13.2v-38.7h-15.1v-10.4h29.4V781.5z
			 M1035.7,781c3.2-1.4,5.7-3.1,7.7-5.2c2.9-3.2,5.1-7,6.6-11.5c1.5-4.5,2.2-10.8,2.2-18.7c0-5.5-0.6-10.5-1.8-15.1
			c-1.2-4.5-2.8-8.4-5-11.6c-2.2-3.2-4.9-5.7-8.1-7.5c-3.2-1.8-6.9-2.6-11-2.6c-4.8,0-8.9,1.1-12.4,3.2c-3.5,2.1-6.3,4.8-8.5,8.2
			c-2.2,3.3-3.9,7.1-4.9,11.3c-1.1,4.2-1.6,8.3-1.6,12.4c0,6.3,0.5,11.6,1.5,15.9s2.6,8.2,4.8,11.9c2.2,3.5,5,6.3,8.3,8.4
			c3.3,2.1,7.4,3.1,12.3,3.1C1029.2,783.1,1032.5,782.4,1035.7,781z"/>
		<path class="st0" d="M1166.8,700.7v33.8h-11.1v-1.6c-0.1-2.9-0.7-5.8-1.8-8.5c-1.1-2.8-2.7-5.2-4.7-7.5c-2-2.2-4.3-4-7-5.4
			c-2.7-1.4-5.7-2-9-2c-4.9,0-9.1,1.1-12.6,3.3c-3.5,2.2-6.3,5-8.4,8.4c-2.2,3.4-3.8,7.3-4.8,11.6c-1,4.3-1.5,8.7-1.5,13
			c0,4.5,0.6,8.9,1.7,13.2c1.1,4.3,2.8,8.2,5,11.7c2.2,3.5,5,6.3,8.4,8.5c3.4,2.2,7.4,3.3,12,3.3c5.2,0,9.7-1.6,13.5-4.9
			c3.8-3.3,6.4-7.9,7.7-13.9l0.4-2.1h13.4l-0.2,3.2c-0.6,4.6-1.9,8.7-4,12.3c-2.1,3.6-4.7,6.7-7.9,9.2c-3.2,2.5-6.9,4.4-11.1,5.7
			c-4.2,1.3-8.5,2-13.1,2c-6.6,0-12.4-1.2-17.5-3.6c-5.1-2.4-9.4-5.7-12.9-9.9c-3.5-4.2-6.2-9.2-8.1-14.8c-1.9-5.6-2.8-11.6-2.8-18
			c0-8.2,1.1-15.4,3.3-21.6c2.2-6.2,5-11.4,8.6-15.5c3.6-4.1,7.7-7.2,12.5-9.3c4.8-2.1,9.7-3.2,14.9-3.2c6,0,11.1,1.1,15.3,3.3
			c4.2,2.2,7.9,5.9,10.9,10.9v-11.4H1166.8z"/>
		<path class="st0" d="M1267,781.5v11.1h-27.8v-18.1c-3.1,6.9-7,11.9-11.7,14.9s-10.9,4.5-18.4,4.5c-9.4,0-16.6-2.5-21.7-7.4
			c-5.1-4.9-7.7-11.5-7.7-19.7c0-4.6,0.6-8.5,1.9-11.7c1.3-3.2,3-6,5.2-8.2c2.2-2.2,4.7-4,7.6-5.4c2.9-1.3,6-2.4,9.2-3.1
			c2.6-0.6,4.7-0.9,6.4-0.9c1.7,0,4-0.1,7-0.2c3.6-0.1,7-0.2,10.2-0.2h12v-7.9c0-6.7-1.9-11.8-5.6-15.4c-3.8-3.6-8.5-5.4-14.3-5.4
			c-4.6,0-7.9,0.4-10.1,1.3c-2.2,0.9-4.1,2.1-5.9,3.8c-1.6,1.4-2.9,3.1-3.9,5.2c-0.9,2.1-1.5,4.7-1.8,8h-14.8
			c0.4-5.5,1.5-10.1,3.5-13.8c2-3.7,4.8-6.8,8.4-9.2c2.9-2,6.2-3.5,9.9-4.4c3.6-0.9,8.2-1.4,13.6-1.4c4.9,0,8.9,0.4,12,1.1
			c3.1,0.8,6,2,8.8,3.6c4.1,2.3,7.4,5.4,9.8,9.1c2.4,3.7,3.6,9.1,3.6,16.3v53.5H1267z M1231.4,774.3c4.8-6,7.4-14.8,7.7-26.3
			c-2.1-0.4-4.3-0.6-6.6-0.6c-2.3-0.1-4.8-0.1-7.7-0.1c-2.5,0-4.8,0-7.1,0.1c-2.3,0.1-4.6,0.3-7,0.8c-4.9,0.9-8.8,2.7-11.7,5.4
			c-2.9,2.6-4.3,6.8-4.3,12.6c0,5,1.3,9.2,4,12.4c2.7,3.2,6.7,4.8,12,4.8C1219.8,783.4,1226.6,780.4,1231.4,774.3z"/>
		<path class="st0" d="M1346.7,700.7v29.6h-11.1c0-0.4,0-0.8-0.1-1.2c-0.1-0.5-0.1-0.9-0.1-1.2c-0.2-3.4-1-6.4-2.2-9
			s-2.8-4.5-4.7-5.8c-2.8-2-5.7-3.2-8.7-3.7c-3-0.5-5.2-0.7-6.8-0.7c-5.3,0-9.7,1.4-13.4,4.1c-3.6,2.8-5.5,6.8-5.5,12.1
			c0,2.1,0.4,3.9,1.2,5.3c0.8,1.4,1.9,2.6,3.3,3.5c1.4,0.9,3,1.7,4.8,2.3c1.8,0.6,3.7,1.1,5.5,1.4c1.9,0.4,4.1,0.7,6.7,1.1
			c2.6,0.4,5.2,0.9,7.8,1.6c2.6,0.6,5.1,1.3,7.5,2.1c2.3,0.8,4.3,1.7,6,2.7c1.4,0.9,2.7,1.9,4,3c1.2,1.1,2.3,2.4,3.3,4
			c1,1.6,1.8,3.5,2.4,5.8c0.6,2.3,0.9,5,0.9,8.2c0,4-0.8,7.7-2.4,11.1s-3.7,6.4-6.4,8.9c-2.7,2.5-5.9,4.5-9.5,5.9
			c-3.6,1.4-7.6,2.1-11.8,2.1c-3.6,0-6.8-0.3-9.6-0.8c-2.8-0.5-5.2-1.4-7.4-2.6c-2.2-1.2-4.1-2.9-5.8-4.9c-1.7-2.1-3.4-4.5-5-7.5
			v14.6h-11.1v-31.7h11.1c0.5,4.1,1.4,7.6,2.9,10.4c1.5,2.8,3.3,5.1,5.5,6.9c2.2,1.8,4.7,3,7.5,3.8c2.8,0.8,5.7,1.1,8.7,1.1
			c5.3,0,9.7-1.5,13.2-4.4c3.5-2.9,5.3-7,5.3-12.3c0-3.4-0.8-6.1-2.4-8c-1.6-1.9-3.7-3.4-6.4-4.3c-1.8-0.7-3.9-1.2-6.4-1.6
			c-2.5-0.4-5.1-0.7-7.8-1.1c-2.7-0.4-5.5-0.9-8.3-1.6c-2.8-0.6-5.5-1.5-7.9-2.5c-4-1.8-7.3-4.3-9.9-7.5c-2.6-3.2-3.9-7.9-3.9-14.2
			c0-4.6,0.8-8.6,2.6-12c1.7-3.4,4-6.3,6.9-8.6c2.9-2.3,6.2-4.1,10.1-5.3c3.9-1.2,8-1.8,12.5-1.8c4.7,0,9.2,0.9,13.5,2.8
			c4.3,1.9,7.7,4.9,10.1,9.2v-9.2H1346.7z"/>
		<path class="st0" d="M1415.4,700.7v10.4H1389v60c0,3.8,0.8,6.7,2.3,8.9c1.5,2.2,3.8,3.3,6.7,3.3c3,0,5.4-1.3,7-4
			c1.6-2.6,2.4-7.2,2.4-13.8v-1.1h11.4v2.1c0,3.8-0.3,7.3-1,10.6c-0.6,3.3-1.8,6.2-3.5,8.7c-1.7,2.5-4,4.4-6.8,5.8
			c-2.8,1.4-6.3,2.1-10.6,2.1c-8,0-13.7-2.1-17.1-6.2c-3.4-4.2-5.1-10.4-5.1-18.7v-57.7h-15.8v-10.4h15.8v-18l14.3-5.3v23.2H1415.4z
			"/>
		<path class="st0" d="M1457.8,781.5h14.3v11.1h-43.3v-11.1h14.8v-70.4h-14.6v-10.4h28.9V781.5z M1458.8,681.3h-16.4v-14.8h16.4
			V681.3z"/>
		<path class="st0" d="M1579.6,781.5v11.1h-43.1v-11.1h14.4v-48.2c0-7.9-1.4-13.9-4.3-18c-2.9-4.2-7.5-6.2-14-6.2
			c-5.3,0-9.6,1.2-12.9,3.5c-3.3,2.3-6,5.9-8,10.6c-1.9,4.1-2.8,10.9-2.8,20.4v38h14.4v11.1h-44v-11.1h15.3v-70.4h-15v-10.4h29.2
			v16.5c2.3-6.7,5.7-11.6,10.1-14.7c4.4-3.1,10.3-4.7,17.7-4.7c2.8,0,5.6,0.3,8.4,0.8s5.2,1.4,7.2,2.7c4.1,2.5,7.3,5.6,9.5,9.5
			c2.2,3.9,3.3,9.2,3.3,15.8v54.7H1579.6z"/>
		<path class="st0" d="M1688.2,700.7v10.4h-15.1v73.8c0,4.1-0.2,7.9-0.7,11.5c-0.5,3.6-1.3,6.9-2.6,9.9c-3.1,7-8,12.1-14.8,15.3
			c-6.8,3.2-14.5,4.8-23.1,4.8c-12.3,0-21.4-2.2-27.4-6.5c-5.9-4.3-9.4-10.4-10.3-18.3h15.8c0.6,4.2,2.7,7.6,6.3,10.2
			c3.6,2.6,9,3.9,16,3.9c2.9,0,5.9-0.4,8.9-1.1c3-0.7,5.7-1.9,8.1-3.7c2.4-1.8,4.4-4.1,6.1-7.1c1.6-3,2.6-6.7,2.8-11.2
			c0.2-2.8,0.4-5.3,0.4-7.3c0.1-2.1,0.1-4,0.1-5.7v-3.2c-3.5,5.6-7.7,9.9-12.4,12.9c-4.8,3-11,4.5-18.7,4.5
			c-6.2,0-11.7-1.2-16.5-3.7c-4.8-2.5-8.9-5.8-12.1-10c-3.3-4.2-5.8-9.2-7.5-14.9c-1.7-5.7-2.6-11.7-2.6-18
			c0-18.1,3.9-30.8,11.8-38.2c4-3.8,8.3-6.5,12.9-8.4c4.6-1.8,9.4-2.7,14.2-2.7c6.7,0,12.8,1.4,18.2,4.2c5.5,2.8,9.8,7.2,12.9,13.2
			v-14.6H1688.2z M1650.2,773.9c2.9-3.1,5.1-6.8,6.5-11.3c1.4-4.5,2.1-10.2,2.1-17.2c0-5.6-0.7-10.6-2.2-15.1
			c-1.5-4.4-3.4-8.1-5.9-11.1c-2.5-3-5.3-5.3-8.6-6.9c-3.3-1.6-6.7-2.4-10.4-2.4c-8.4,0-15.1,3.3-20.1,9.8
			c-4.9,6.5-7.4,15.6-7.4,27.2c0,5.6,0.7,10.7,2.1,15.1c1.4,4.5,3.3,8.2,5.6,11.3c2.3,3.1,5.1,5.4,8.4,7c3.2,1.6,6.7,2.5,10.3,2.5
			C1637.8,782.9,1644.3,779.9,1650.2,773.9z"/>
		<path class="st0" d="M1855.1,666.5v44.7h-13.7c-0.6-10.2-3.7-18.5-9.3-24.8c-5.6-6.3-13.8-9.5-24.5-9.5
			c-13.5,0-23.7,4.5-30.7,13.4c-7,8.9-10.5,21.5-10.5,37.8c0,17.4,3.4,30.7,10.2,40c6.8,9.3,16.8,13.9,29.9,13.9
			c10,0,17.8-2.9,23.5-8.7c5.7-5.8,8.8-13.5,9.4-23.1h16.2c-0.4,7.2-1.8,13.5-4.2,19c-2.5,5.5-5.8,10.2-10.1,14
			c-4.3,3.8-9.4,6.7-15.3,8.6c-5.9,1.9-12.5,2.9-19.6,2.9c-10.7,0-19.7-1.9-26.9-5.6c-7.3-3.8-13.1-8.7-17.6-14.9
			c-4.5-6.2-7.7-13.1-9.6-20.9c-1.9-7.7-2.9-15.7-2.9-23.8c0-8.6,1.1-16.8,3.3-24.6c2.2-7.9,5.6-14.8,10.2-20.8
			c4.6-6,10.4-10.7,17.5-14.3c7.1-3.5,15.6-5.3,25.4-5.3c9.2,0,16.8,1.8,23.1,5.3c6.2,3.5,10.7,8.5,13.6,15v-18.3H1855.1z"/>
		<path class="st0" d="M1946.2,780.8c-7.7,8.7-18,13-30.8,13c-14.3,0-25.1-4.9-32.4-14.6c-7-9.6-10.6-20.9-10.6-33.8
			c0-7.4,1.1-14,3.2-19.9c2.1-5.9,5.1-10.9,8.9-15c3.8-4.1,8.4-7.2,13.7-9.4c5.3-2.2,11.3-3.3,17.9-3.3c6.8,0,12.8,1.2,18,3.6
			c5.2,2.4,9.6,5.8,13.1,10.1c3.5,4.3,6.2,9.4,7.9,15.3c1.8,5.9,2.6,12.3,2.6,19.2C1957.9,760.4,1954,772,1946.2,780.8z M1925,780.8
			c3.2-1.5,6.2-3.8,8.9-6.9c2.8-3.1,4.9-7,6.3-12c1.4-4.9,2.1-10.6,2.1-16.9c0-11.6-2.3-20.6-7-26.8c-4.7-6.3-11.4-9.4-20.2-9.4
			c-4.2,0-8,0.8-11.4,2.6c-3.4,1.7-6.3,4.1-8.6,7.2c-2.3,3.1-4.2,6.9-5.5,11.3c-1.3,4.4-1.9,9.2-1.9,14.5c0,8,0.8,14.2,2.4,18.7
			s3.7,8.2,6.4,11.2c5.4,5.9,11.7,8.8,18.8,8.8C1918.6,783.1,1921.8,782.3,1925,780.8z"/>
		<path class="st0" d="M2053.8,709.2c1.6-2.4,3.6-4.5,5.9-6.2c2.3-1.7,4.8-3,7.7-3.9c2.8-0.9,5.7-1.3,8.8-1.3
			c7.9,0,14.6,2.3,20.2,6.9c2.9,2.3,5.1,5.5,6.5,9.3c1.4,3.9,2.1,9.4,2.1,16.7v50.7h13.4v11.1h-42.1v-11.1h14.4v-47.2
			c0-3.2-0.1-6.3-0.4-9.3c-0.3-3.1-1-5.8-2.1-8.2c-1.1-2.4-2.8-4.3-5.2-5.7c-2.3-1.4-5.6-2.1-9.9-2.1c-2.6,0-5.2,0.5-7.7,1.5
			s-4.9,2.6-6.9,4.8c-2,2.2-3.6,5.2-4.9,8.8c-1.3,3.6-1.9,8-1.9,13.2v44.2h14.3v11.1h-42.8v-11.1h14.3v-47.2c0-3.2-0.1-6.3-0.4-9.3
			c-0.3-3.1-1-5.8-2.1-8.1c-1.1-2.3-2.8-4.3-5.2-5.7c-2.3-1.5-5.6-2.2-9.9-2.2c-2.7,0-5.3,0.6-7.9,1.7c-2.6,1.1-4.9,2.8-6.9,5.1
			c-2,2.3-3.6,5.2-4.8,8.9c-1.2,3.6-1.8,8-1.8,13v43.8h14.4v11.1h-43.7v-11.1h15v-70.4h-15v-10.4h29.2v16.5c1.4-6,4.5-10.7,9.2-14.2
			c4.8-3.5,10.2-5.2,16.5-5.2c7,0,12.8,1.7,17.2,5.2c4.4,3.5,7.4,8.2,9.1,14.2C2051,714.3,2052.1,711.6,2053.8,709.2z"/>
		<path class="st0" d="M2219,766.2c-1.7,5.8-4.4,10.8-8.2,14.9c-3.6,4.1-7.5,7.2-11.6,9.4c-4.1,2.2-9,3.3-14.6,3.3
			c-6.7,0-12.8-1.3-18.3-4c-5.5-2.7-10-7.5-13.4-14.3v35h14.8v10.6h-43.8v-10.6h14.8v-99.4h-14.4v-10.4h28.7v18
			c3.4-7,7.6-12.3,12.5-15.7c4.9-3.4,11.4-5.1,19.4-5.1c4.3,0,8.2,0.5,11.4,1.6c3.3,1.1,6.2,2.6,8.8,4.5c2.6,1.9,4.8,4.3,6.8,7
			c1.9,2.8,3.8,5.8,5.5,9.1c2.8,5.5,4.2,14,4.2,25.3C2221.5,753.5,2220.7,760.4,2219,766.2z M2191.9,780.2c3.5-2.1,6.3-4.8,8.5-8.2
			s3.9-7.2,4.9-11.5c1.1-4.3,1.6-8.7,1.6-13.3c0-12.6-2.4-22.1-7.2-28.7s-11.1-9.9-19-9.9c-4.2,0-8.2,0.9-12.1,2.8
			c-3.8,1.9-7.1,5-9.8,9.3c-1.8,2.8-3.2,6.1-4.3,9.9c-1.1,3.8-1.7,8.7-1.7,14.8c0,8.2,1,14.8,3,19.8c2,5,4.4,8.8,7.2,11.4
			c2.8,2.6,5.7,4.4,8.8,5.3c3,0.9,5.6,1.3,7.7,1.3C2184.3,783.2,2188.4,782.2,2191.9,780.2z"/>
		<path class="st0" d="M2323.1,781.5v11.1h-27.8v-18.1c-3.1,6.9-7,11.9-11.7,14.9c-4.8,3-10.9,4.5-18.4,4.5
			c-9.4,0-16.6-2.5-21.7-7.4c-5.1-4.9-7.7-11.5-7.7-19.7c0-4.6,0.6-8.5,1.9-11.7c1.3-3.2,3-6,5.2-8.2c2.2-2.2,4.7-4,7.6-5.4
			c2.9-1.3,6-2.4,9.2-3.1c2.6-0.6,4.7-0.9,6.4-0.9c1.7,0,4-0.1,7-0.2c3.6-0.1,7-0.2,10.2-0.2h12v-7.9c0-6.7-1.9-11.8-5.6-15.4
			c-3.8-3.6-8.5-5.4-14.3-5.4c-4.6,0-7.9,0.4-10.1,1.3c-2.2,0.9-4.1,2.1-5.9,3.8c-1.6,1.4-2.9,3.1-3.9,5.2c-0.9,2.1-1.5,4.7-1.8,8
			H2239c0.4-5.5,1.5-10.1,3.5-13.8c2-3.7,4.8-6.8,8.4-9.2c2.9-2,6.2-3.5,9.9-4.4c3.6-0.9,8.2-1.4,13.6-1.4c4.9,0,8.9,0.4,12,1.1
			c3.1,0.8,6,2,8.8,3.6c4.1,2.3,7.4,5.4,9.8,9.1c2.4,3.7,3.6,9.1,3.6,16.3v53.5H2323.1z M2287.5,774.3c4.8-6,7.4-14.8,7.7-26.3
			c-2.1-0.4-4.3-0.6-6.6-0.6c-2.3-0.1-4.8-0.1-7.7-0.1c-2.5,0-4.8,0-7.1,0.1c-2.3,0.1-4.6,0.3-7,0.8c-4.9,0.9-8.8,2.7-11.7,5.4
			c-2.9,2.6-4.3,6.8-4.3,12.6c0,5,1.3,9.2,4,12.4c2.7,3.2,6.7,4.8,12,4.8C2275.9,783.4,2282.7,780.4,2287.5,774.3z"/>
		<path class="st0" d="M2430.5,781.5v11.1h-43.1v-11.1h14.4v-48.2c0-7.9-1.4-13.9-4.3-18c-2.9-4.2-7.5-6.2-14-6.2
			c-5.3,0-9.6,1.2-12.9,3.5c-3.3,2.3-6,5.9-8,10.6c-1.9,4.1-2.8,10.9-2.8,20.4v38h14.4v11.1h-44v-11.1h15.3v-70.4h-15v-10.4h29.2
			v16.5c2.3-6.7,5.7-11.6,10.1-14.7c4.4-3.1,10.3-4.7,17.7-4.7c2.8,0,5.6,0.3,8.4,0.8c2.8,0.5,5.2,1.4,7.2,2.7
			c4.1,2.5,7.3,5.6,9.5,9.5c2.2,3.9,3.3,9.2,3.3,15.8v54.7H2430.5z"/>
		<path class="st0" d="M2475.5,711.1h-14.3l22.5,64.4l21.8-64.4h-14.4v-10.4h37.7v10.4h-8.1c-4.3,12-8.2,22.6-11.7,31.9
			c-3.5,9.3-6.5,17.6-9.2,24.7c-2.6,7.2-4.9,13.3-6.8,18.6c-1.9,5.2-3.6,9.7-5.1,13.3c-1.3,3.1-2.4,5.7-3.4,7.9
			c-1,2.2-2.1,4.2-3.2,5.9c-1.1,1.7-2.4,3.2-4,4.4c-1.5,1.2-3.4,2.3-5.6,3.3c-3.2,1.4-7,2.1-11.4,2.1c-1.6,0-3.3-0.1-5.1-0.4
			c-1.8-0.3-3.5-0.6-5.1-0.8v-11.6c3.3,0.8,6.7,1.2,10.4,1.2c1.4,0,2.8-0.2,4.1-0.7s2.7-1.4,4-2.8c1.3-1.4,2.5-3.3,3.7-5.8
			c1.2-2.5,2.3-5.6,3.5-9.5l-30.8-81.7h-8.8v-10.4h39.3V711.1z"/>
		<path class="st0" d="M2662.8,774.3l33.6-107.7h44.4v11.6h-18v102.8h18v11.6h-48.9v-11.6h16.2V678.2h-1.2l-37.5,114.4h-13.7
			l-37.5-114.4h-1.2v102.8h16.4v11.6h-47.9v-11.6h18.1V678.2h-18.1v-11.6h44.9L2662.8,774.3z"/>
		<path class="st0" d="M2781.3,781.5h14.3v11.1h-43.3v-11.1h14.8v-70.4h-14.6v-10.4h28.9V781.5z M2782.3,681.3H2766v-14.8h16.4
			V681.3z"/>
		<path class="st0" d="M2881.4,700.7v33.8h-11.1v-1.6c-0.1-2.9-0.7-5.8-1.8-8.5c-1.1-2.8-2.7-5.2-4.7-7.5c-2-2.2-4.3-4-7-5.4
			c-2.7-1.4-5.7-2-9-2c-4.9,0-9.1,1.1-12.6,3.3c-3.5,2.2-6.3,5-8.4,8.4c-2.2,3.4-3.8,7.3-4.8,11.6c-1,4.3-1.5,8.7-1.5,13
			c0,4.5,0.6,8.9,1.7,13.2c1.1,4.3,2.8,8.2,5,11.7c2.2,3.5,5,6.3,8.4,8.5c3.4,2.2,7.4,3.3,12,3.3c5.2,0,9.7-1.6,13.5-4.9
			c3.8-3.3,6.4-7.9,7.7-13.9l0.4-2.1h13.4l-0.2,3.2c-0.6,4.6-1.9,8.7-4,12.3s-4.7,6.7-7.9,9.2c-3.2,2.5-6.9,4.4-11.1,5.7
			c-4.2,1.3-8.5,2-13.1,2c-6.6,0-12.4-1.2-17.5-3.6c-5.1-2.4-9.4-5.7-12.9-9.9c-3.5-4.2-6.2-9.2-8.1-14.8c-1.9-5.6-2.8-11.6-2.8-18
			c0-8.2,1.1-15.4,3.3-21.6c2.2-6.2,5-11.4,8.6-15.5c3.6-4.1,7.7-7.2,12.5-9.3c4.8-2.1,9.7-3.2,14.9-3.2c6,0,11.1,1.1,15.3,3.3
			c4.2,2.2,7.9,5.9,10.9,10.9v-11.4H2881.4z"/>
		<path class="st0" d="M2949.1,711.8c-1-0.1-2-0.2-2.9-0.2c-17,0-25.5,11.3-25.5,34v35.9h17.4v11.1h-46.3v-11.1h14.6v-70.4h-14.6
			v-10.4h28.9V719c1.4-4,2.9-7.2,4.4-9.8c1.5-2.5,3.3-4.5,5.3-6c2-1.5,4.3-2.5,6.8-3.1c2.5-0.6,5.5-0.9,9.1-1.1h6v13.2
			C2951.1,712.1,2950.1,711.9,2949.1,711.8z"/>
		<path class="st0" d="M3035.1,780.8c-7.7,8.7-18,13-30.8,13c-14.3,0-25.1-4.9-32.4-14.6c-7-9.6-10.6-20.9-10.6-33.8
			c0-7.4,1.1-14,3.2-19.9c2.1-5.9,5.1-10.9,8.9-15c3.8-4.1,8.4-7.2,13.7-9.4c5.3-2.2,11.3-3.3,17.9-3.3c6.8,0,12.8,1.2,18,3.6
			c5.2,2.4,9.6,5.8,13.1,10.1c3.5,4.3,6.2,9.4,7.9,15.3c1.8,5.9,2.6,12.3,2.6,19.2C3046.7,760.4,3042.8,772,3035.1,780.8z
			 M3013.9,780.8c3.2-1.5,6.2-3.8,8.9-6.9c2.8-3.1,4.9-7,6.3-12c1.4-4.9,2.1-10.6,2.1-16.9c0-11.6-2.3-20.6-7-26.8
			c-4.7-6.3-11.4-9.4-20.2-9.4c-4.2,0-8,0.8-11.4,2.6c-3.4,1.7-6.3,4.1-8.6,7.2c-2.3,3.1-4.2,6.9-5.5,11.3
			c-1.3,4.4-1.9,9.2-1.9,14.5c0,8,0.8,14.2,2.4,18.7c1.6,4.5,3.7,8.2,6.4,11.2c5.4,5.9,11.7,8.8,18.8,8.8
			C3007.4,783.1,3010.7,782.3,3013.9,780.8z"/>
		<path class="st0" d="M3135.8,700.7v33.8h-11.1v-1.6c-0.1-2.9-0.7-5.8-1.8-8.5c-1.1-2.8-2.7-5.2-4.7-7.5c-2-2.2-4.3-4-7-5.4
			c-2.7-1.4-5.7-2-9-2c-4.9,0-9.1,1.1-12.6,3.3c-3.5,2.2-6.3,5-8.4,8.4c-2.2,3.4-3.8,7.3-4.8,11.6c-1,4.3-1.5,8.7-1.5,13
			c0,4.5,0.6,8.9,1.7,13.2c1.1,4.3,2.8,8.2,5,11.7c2.2,3.5,5,6.3,8.4,8.5c3.4,2.2,7.4,3.3,12,3.3c5.2,0,9.7-1.6,13.5-4.9
			c3.8-3.3,6.4-7.9,7.7-13.9l0.4-2.1h13.4l-0.2,3.2c-0.6,4.6-1.9,8.7-4,12.3c-2.1,3.6-4.7,6.7-7.9,9.2c-3.2,2.5-6.9,4.4-11.1,5.7
			c-4.2,1.3-8.5,2-13.1,2c-6.6,0-12.4-1.2-17.5-3.6c-5.1-2.4-9.4-5.7-12.9-9.9c-3.5-4.2-6.2-9.2-8.1-14.8c-1.9-5.6-2.8-11.6-2.8-18
			c0-8.2,1.1-15.4,3.3-21.6c2.2-6.2,5-11.4,8.6-15.5c3.6-4.1,7.7-7.2,12.5-9.3c4.8-2.1,9.7-3.2,14.9-3.2c6,0,11.1,1.1,15.3,3.3
			c4.2,2.2,7.9,5.9,10.9,10.9v-11.4H3135.8z"/>
		<path class="st0" d="M3221,780.8c-7.7,8.7-18,13-30.8,13c-14.3,0-25.1-4.9-32.4-14.6c-7-9.6-10.6-20.9-10.6-33.8
			c0-7.4,1.1-14,3.2-19.9c2.1-5.9,5.1-10.9,8.9-15c3.8-4.1,8.4-7.2,13.7-9.4c5.3-2.2,11.3-3.3,17.9-3.3c6.8,0,12.8,1.2,18,3.6
			c5.2,2.4,9.6,5.8,13.1,10.1c3.5,4.3,6.2,9.4,7.9,15.3c1.8,5.9,2.6,12.3,2.6,19.2C3232.6,760.4,3228.7,772,3221,780.8z
			 M3199.8,780.8c3.2-1.5,6.2-3.8,8.9-6.9c2.8-3.1,4.9-7,6.3-12c1.4-4.9,2.1-10.6,2.1-16.9c0-11.6-2.3-20.6-7-26.8
			c-4.7-6.3-11.4-9.4-20.2-9.4c-4.2,0-8,0.8-11.4,2.6c-3.4,1.7-6.3,4.1-8.6,7.2c-2.3,3.1-4.2,6.9-5.5,11.3
			c-1.3,4.4-1.9,9.2-1.9,14.5c0,8,0.8,14.2,2.4,18.7c1.6,4.5,3.7,8.2,6.4,11.2c5.4,5.9,11.7,8.8,18.8,8.8
			C3193.3,783.1,3196.5,782.3,3199.8,780.8z"/>
		<path class="st0" d="M3328.5,709.2c1.6-2.4,3.6-4.5,5.9-6.2c2.3-1.7,4.8-3,7.7-3.9c2.8-0.9,5.7-1.3,8.8-1.3
			c7.9,0,14.6,2.3,20.2,6.9c2.9,2.3,5.1,5.5,6.5,9.3c1.4,3.9,2.1,9.4,2.1,16.7v50.7h13.4v11.1h-42.1v-11.1h14.4v-47.2
			c0-3.2-0.1-6.3-0.4-9.3c-0.3-3.1-1-5.8-2.1-8.2c-1.1-2.4-2.8-4.3-5.2-5.7c-2.3-1.4-5.6-2.1-9.9-2.1c-2.6,0-5.2,0.5-7.7,1.5
			c-2.6,1-4.9,2.6-6.9,4.8c-2,2.2-3.6,5.2-4.9,8.8c-1.3,3.6-1.9,8-1.9,13.2v44.2h14.3v11.1h-42.8v-11.1h14.3v-47.2
			c0-3.2-0.1-6.3-0.4-9.3c-0.3-3.1-1-5.8-2.1-8.1c-1.1-2.3-2.8-4.3-5.2-5.7c-2.3-1.5-5.6-2.2-9.9-2.2c-2.7,0-5.3,0.6-7.9,1.7
			c-2.6,1.1-4.9,2.8-6.9,5.1c-2,2.3-3.6,5.2-4.8,8.9c-1.2,3.6-1.8,8-1.8,13v43.8h14.4v11.1h-43.7v-11.1h15v-70.4h-15v-10.4h29.2
			v16.5c1.4-6,4.5-10.7,9.2-14.2c4.8-3.5,10.2-5.2,16.5-5.2c7,0,12.8,1.7,17.2,5.2c4.4,3.5,7.4,8.2,9.1,14.2
			C3325.7,714.3,3326.9,711.6,3328.5,709.2z"/>
		<path class="st0" d="M3493.7,766.2c-1.7,5.8-4.4,10.8-8.2,14.9c-3.6,4.1-7.5,7.2-11.6,9.4c-4.1,2.2-9,3.3-14.6,3.3
			c-6.7,0-12.8-1.3-18.3-4c-5.5-2.7-10-7.5-13.4-14.3v35h14.8v10.6h-43.8v-10.6h14.8v-99.4h-14.4v-10.4h28.7v18
			c3.4-7,7.6-12.3,12.5-15.7c4.9-3.4,11.4-5.1,19.4-5.1c4.3,0,8.2,0.5,11.4,1.6c3.3,1.1,6.2,2.6,8.8,4.5c2.6,1.9,4.8,4.3,6.8,7
			c1.9,2.8,3.8,5.8,5.5,9.1c2.8,5.5,4.2,14,4.2,25.3C3496.3,753.5,3495.4,760.4,3493.7,766.2z M3466.6,780.2
			c3.5-2.1,6.3-4.8,8.5-8.2s3.9-7.2,4.9-11.5c1.1-4.3,1.6-8.7,1.6-13.3c0-12.6-2.4-22.1-7.2-28.7s-11.1-9.9-19-9.9
			c-4.2,0-8.2,0.9-12.1,2.8c-3.8,1.9-7.1,5-9.8,9.3c-1.8,2.8-3.2,6.1-4.3,9.9c-1.1,3.8-1.7,8.7-1.7,14.8c0,8.2,1,14.8,3,19.8
			c2,5,4.4,8.8,7.2,11.4c2.8,2.6,5.7,4.4,8.8,5.3c3,0.9,5.6,1.3,7.7,1.3C3459.1,783.2,3463.2,782.2,3466.6,780.2z"/>
		<path class="st0" d="M3534.8,757.9c0,8.9,1.5,15.4,4.4,19.4c2.9,4,7.4,6,13.4,6c4,0,7.9-1.1,11.6-3.2c3.8-2.1,6.7-5.7,9-10.7
			c2.1-4.9,3.2-11.4,3.2-19.4v-38.9h-15.5v-10.4h29.7v80.8h14.6v11.1h-28.9V775c-2.2,6.8-5.4,11.6-9.6,14.5s-9.9,4.3-17.3,4.3
			c-5.6,0-10.8-1.1-15.4-3.2c-4.6-2.1-8.2-5.8-10.6-10.9c-0.5-1.1-0.9-2.1-1.2-3.2c-0.4-1.1-0.6-2.4-0.9-4c-0.2-1.6-0.4-3.5-0.5-5.6
			c-0.1-2.2-0.2-4.9-0.2-8.2v-47.7h-14.4v-10.4h28.7V757.9z"/>
		<path class="st0" d="M3667.9,700.7v10.4h-26.4v60c0,3.8,0.8,6.7,2.3,8.9c1.5,2.2,3.8,3.3,6.7,3.3c3,0,5.4-1.3,7-4
			c1.6-2.6,2.4-7.2,2.4-13.8v-1.1h11.4v2.1c0,3.8-0.3,7.3-1,10.6c-0.6,3.3-1.8,6.2-3.5,8.7c-1.7,2.5-4,4.4-6.8,5.8
			c-2.8,1.4-6.3,2.1-10.6,2.1c-8,0-13.7-2.1-17.1-6.2c-3.4-4.2-5.1-10.4-5.1-18.7v-57.7h-15.8v-10.4h15.8v-18l14.3-5.3v23.2H3667.9z
			"/>
		<path class="st0" d="M3701.7,764.3c1.4,3.6,3.2,6.8,5.3,9.6c2.3,3.1,5.1,5.3,8.4,6.9c3.2,1.5,7.7,2.3,13.5,2.3
			c2.6,0,5.1-0.4,7.7-1.2c2.5-0.8,4.8-2,6.9-3.6c2.1-1.6,3.8-3.5,5.4-5.6c1.5-2.2,2.6-4.6,3.2-7.3l0.2-1.4h13.6l-0.4,1.6
			c-1.8,8.8-6,15.7-12.8,20.8s-15.4,7.6-26,7.6c-13.8,0-24.3-4-31.5-12.1c-7.2-8.1-10.7-19.8-10.7-35.2c0-7.4,1-14.2,3-20.4
			c2-6.2,5-11.4,9.2-15.5c4.1-4.2,8.8-7.4,14.1-9.5c5.3-2.1,10.7-3.2,16.4-3.2c5,0,9.9,0.9,14.7,2.6c4.8,1.7,8.5,3.8,11.2,6.2
			c5.5,5,9.2,10.7,11.2,17.1c1.9,6.3,2.9,13,2.9,20.1v5.6h-67.8C3699.4,755.8,3700.3,760.7,3701.7,764.3z M3750.1,728.1
			c-1.1-3.6-2.6-6.9-4.8-9.9s-4.8-5.3-7.9-7.1c-3.2-1.8-6.9-2.7-11.1-2.7c-7.2,0-13.2,2.8-18,8.3c-4.9,5.5-7.7,12.9-8.5,22.2h51.9
			C3751.7,735.4,3751.2,731.8,3750.1,728.1z"/>
		<path class="st0" d="M3835.9,711.8c-1-0.1-2-0.2-2.9-0.2c-17,0-25.5,11.3-25.5,34v35.9h17.4v11.1h-46.3v-11.1h14.6v-70.4h-14.6
			v-10.4h28.9V719c1.4-4,2.9-7.2,4.4-9.8c1.5-2.5,3.3-4.5,5.3-6c2-1.5,4.3-2.5,6.8-3.1c2.5-0.6,5.5-0.9,9.1-1.1h6v13.2
			C3837.9,712.1,3836.9,711.9,3835.9,711.8z"/>
	</g>
</g>
</svg>
