<?xml version="1.0" encoding="utf-8"?>
<!-- Generator: Adobe Illustrator 25.0.0, SVG Export Plug-In . SVG Version: 6.00 Build 0)  -->
<svg version="1.1" id="Layer_1" xmlns="http://www.w3.org/2000/svg" xmlns:xlink="http://www.w3.org/1999/xlink" x="0px" y="0px"
	 viewBox="0 0 3840 1034.5" style="enable-background:new 0 0 3840 1034.5;" xml:space="preserve">
<style type="text/css">
	.st0{fill:#FFFFFF;}
	.st1{fill:#D70101;}
	.st2{fill:#F48400;}
	.st3{fill:#F1D801;}
	.st4{fill:#4ABB1F;}
	.st5{fill:#246CD7;}
</style>
<g>
	<polygon class="st0" points="2708.5,572.2 2708.5,358.1 2503.1,572.2 	"/>
	<path class="st0" d="M1984.6,595.8h-306.9c-26.6,0-48.2,21.6-48.2,48.2v56.1c0,26.6,21.6,48.2,48.2,48.2h306.9
		c26.6,0,48.2-21.6,48.2-48.2V644C2032.8,617.4,2011.2,595.8,1984.6,595.8z"/>
	<path class="st0" d="M3322.8,0H1806h-159.8h-1129C231.6,0,0,231.6,0,517.2v0c0,285.7,231.6,517.2,517.2,517.2h1129H1806h1516.8
		c285.7,0,517.2-231.6,517.2-517.2v0C3840,231.6,3608.4,0,3322.8,0z M2954.8,103.7H3473c30.2,0,54.7,24.5,54.7,54.7v0
		c0,30.2-24.5,54.7-54.7,54.7h-518.2V103.7z M2954.8,282.8H3641c30.2,0,54.7,24.5,54.7,54.7v0c0,30.2-24.5,54.7-54.7,54.7h-686.2
		V282.8z M367,103.7h500.1c-36.9,22.5-70.3,50.2-99.7,83.3c-7.5,8.4-14.6,17.3-21.4,26.2H367c-30.2,0-54.7-24.5-54.7-54.7
		C312.2,128.3,336.7,103.7,367,103.7z M199,282.8h503c-17.6,34.3-31.2,71.1-40.5,109.5H199c-30.2,0-54.7-24.5-54.7-54.7
		S168.8,282.8,199,282.8z M103.6,516.7c0-30.2,24.5-54.7,54.7-54.7h491.3c-1.8,18-2.9,36.3-2.9,54.8c0,18.5,1,36.7,2.9,54.7H158.3
		C128.1,571.4,103.6,546.9,103.6,516.7z M144.3,695.8c0-30.2,24.5-54.7,54.7-54.7h462.5c9.3,38.4,22.9,75.1,40.5,109.5H199
		C168.8,750.5,144.3,726,144.3,695.8z M367,929.6c-30.2,0-54.7-24.5-54.7-54.7c0-30.2,24.5-54.7,54.7-54.7h379
		c6.9,9,13.9,17.8,21.5,26.2c29.4,33,62.8,60.8,99.7,83.2H367z M1128.6,929.6c-550.6,0-550.6-825.9,0-825.9h324.8l-101.1,176.1
		h-223.7v0c-315.8,0-315.8,473.6,0,473.6v0h223.7l101.1,176.1H1128.6z M2208.9,690.9c0,129-104.6,233.5-233.5,233.5H1687
		c-129,0-233.5-104.6-233.5-233.5V337.3c0-129,104.6-233.5,233.5-233.5h288.4c129,0,233.5,104.6,233.5,233.5h-176.1V328
		c0-26.6-21.6-48.2-48.2-48.2h-306.9c-26.6,0-48.2,21.6-48.2,48.2v125.9c30.5-22.2,67.2-34.2,104.9-34.2h240.9
		c129,0,233.5,104.6,233.5,233.5V690.9z M2884.7,929.6h-176.1V748.3h-449.5V572.2v0l449.5-468.4h176.1v468.4h189.5L2973,748.3h-88.4
		V929.6z M3473,929.6h-519.4V820.1H3473c30.2,0,54.7,24.5,54.7,54.7C3527.8,905.1,3503.3,929.6,3473,929.6z M3641,750.5h-589.7
		l62.9-109.5H3641c30.2,0,54.7,24.5,54.7,54.7S3671.2,750.5,3641,750.5z M3681.7,571.4h-527.6l62.9-109.5h464.7
		c30.2,0,54.7,24.5,54.7,54.7C3736.4,546.9,3711.9,571.4,3681.7,571.4z"/>
</g>
</svg>
