<?xml version="1.0" encoding="utf-8"?>
<!-- Generator: Adobe Illustrator 25.0.0, SVG Export Plug-In . SVG Version: 6.00 Build 0)  -->
<svg version="1.1" id="Layer_1" xmlns="http://www.w3.org/2000/svg" xmlns:xlink="http://www.w3.org/1999/xlink" x="0px" y="0px"
	 viewBox="0 0 3800.4 379.6" style="enable-background:new 0 0 3800.4 379.6;" xml:space="preserve">
<style type="text/css">
	.st0{fill-rule:evenodd;clip-rule:evenodd;fill:#3E3632;}
	.st1{fill-rule:evenodd;clip-rule:evenodd;fill:#FD2537;}
	.st2{fill-rule:evenodd;clip-rule:evenodd;fill:#FD7801;}
	.st3{fill-rule:evenodd;clip-rule:evenodd;fill:#F2F540;}
	.st4{fill-rule:evenodd;clip-rule:evenodd;fill:#48CC31;}
	.st5{fill-rule:evenodd;clip-rule:evenodd;fill:#14A3FD;}
	.st6{fill:#FFFFFF;}
	.st7{fill:#282422;}
	.st8{fill:url(#SVGID_1_);}
	.st9{fill:url(#SVGID_2_);}
	.st10{fill:url(#SVGID_3_);}
	.st11{fill:url(#SVGID_4_);}
	.st12{fill:url(#SVGID_5_);}
	.st13{fill:url(#SVGID_6_);}
	.st14{fill:url(#SVGID_7_);}
	.st15{fill:url(#SVGID_8_);}
	.st16{fill:url(#SVGID_9_);}
	.st17{fill:url(#SVGID_10_);}
	.st18{fill:url(#SVGID_11_);}
	.st19{fill:url(#SVGID_12_);}
	.st20{fill:url(#SVGID_13_);}
	.st21{fill:url(#SVGID_14_);}
	.st22{fill:url(#SVGID_15_);}
	.st23{fill-rule:evenodd;clip-rule:evenodd;fill:#FFFFFF;}
	.st24{fill:url(#SVGID_16_);}
	.st25{fill:url(#SVGID_17_);}
	.st26{fill:url(#SVGID_18_);}
	.st27{fill:url(#SVGID_19_);}
	.st28{fill:url(#SVGID_20_);}
	.st29{fill:url(#SVGID_21_);}
	.st30{fill:url(#SVGID_22_);}
	.st31{fill:url(#SVGID_23_);}
	.st32{fill:url(#SVGID_24_);}
	.st33{fill:url(#SVGID_25_);}
	.st34{fill:url(#SVGID_26_);}
	.st35{fill:url(#SVGID_27_);}
	.st36{fill:url(#SVGID_28_);}
	.st37{fill:url(#SVGID_29_);}
	.st38{fill:url(#SVGID_30_);}
	.st39{fill-rule:evenodd;clip-rule:evenodd;}
</style>
<g>
	<path class="st23" d="M1643.5,165c-7.1,0-14.4,0.2-21.3,1.6c-13.8,2.7-14,13.3-14,25.3c0,5.8-0.2,13.6,4,18
		c6,6.4,23.3,6.4,31.3,6.4c7.6,0,15.6,0,22.9-2c12.2-3.3,12-14.4,12-25.3c0-6-0.2-13.8-4.9-18.2C1667.8,165.2,1650.9,165,1643.5,165
		z"/>
	<path class="st23" d="M1948.3,159.9c-6,0-12,0-17.8,0.9c-11.1,1.6-15.1,5.8-15.3,16.9h63.3v-2.4c0-4-0.2-7.1-3.1-10.2
		C1970.7,159.9,1954.7,159.9,1948.3,159.9z"/>
	<path class="st23" d="M1306.1,165c-7.1,0-14.4,0.2-21.3,1.6c-13.8,2.7-14,13.3-14,25.3c0,5.8-0.2,13.6,4,18
		c6,6.4,23.3,6.4,31.3,6.4c7.6,0,15.6,0,22.9-2c12.2-3.3,12-14.4,12-25.3c0-6-0.2-13.8-4.9-18.2C1330.3,165.2,1313.4,165,1306.1,165
		z"/>
	<path class="st23" d="M633.5,165c-7.1,0-14.4,0.2-21.3,1.6c-13.8,2.7-14,13.3-14,25.3c0,5.8-0.2,13.6,4,18c6,6.4,23.3,6.4,31.3,6.4
		c7.6,0,15.6,0,22.9-2c12.2-3.3,12-14.4,12-25.3c0-6-0.2-13.8-4.9-18.2C657.7,165.2,640.8,165,633.5,165z"/>
	<path class="st23" d="M1475.3,165c-9.8,0-29.6-1.1-34.4,10c-1.8,4.4-2,10.2-2,14.9c0,6.2-0.2,15.8,4.4,20.7
		c5.3,5.8,22.4,5.8,29.6,5.8c8,0,17.8-0.4,25.3-2.9c10.7-3.3,10.4-13.6,10.4-23.1c0-4.9-0.2-10.9-2.2-15.6
		C1501.7,164.1,1484.8,165,1475.3,165z"/>
	<path class="st23" d="M3513.4,166.5c20.5,2,42.5,1.2,63,1.2c6.6,0,26,0,30.6-4.6c2.9-2.9,2.9-8.4,2.9-12.1
		c0-16.8-13.6-15.9-26.9-16.2c-11.6-0.3-22.8-0.6-34.4-0.6c-11.8,0-24.3-0.3-36.1,1.4c-9.8,1.4-12.4,6.6-12.4,16.2
		C3500.1,161.8,3503.6,165.3,3513.4,166.5z"/>
	<path class="st23" d="M3610.6,0H189.8C85.4,0,0,85.4,0,189.8c0,104.4,85.4,189.8,189.8,189.8h3420.8
		c104.4,0,189.8-85.4,189.8-189.8C3800.4,85.4,3715,0,3610.6,0z M220,302.5c-9.6,2.6-19.7,4-30.1,4c-64.4,0-116.6-52.2-116.6-116.6
		c0-64.4,52.2-116.6,116.6-116.6c10.4,0,20.5,1.4,30.1,4v58.7c-8.9-5-19.2-7.9-30.1-7.9c-34.1,0-61.8,27.7-61.8,61.8
		s27.7,61.8,61.8,61.8c10.9,0,21.2-2.9,30.1-7.9V302.5z M220,240.7v-46.6h55l46.6,46.6H220z M274.9,185.6h-55v-46.6h101.6
		L274.9,185.6z M441,210.5c5.6,5.3,20.9,5.8,28,5.8c4.9,0,9.6,0,14.4-0.7c9.8-1.3,15.6-4.2,17.1-14.7h40c-0.4,11.8-1.1,23.1-9.8,32
		c-9.1,9.6-23.1,11.6-35.8,12.2c-9.6,0.4-18.9,0.7-28.4,0.7c-17.1,0-41.6,0.4-56.2-9.8c-14.2-10-13.6-30.9-13.6-46.2
		c0-15.1-0.2-33.1,12.4-43.8c13.8-11.6,42.4-10.7,59.3-10.7s46.2-0.7,60.2,10.7c3.8,3.1,6.2,6.2,8.2,10.9c3.3,7.8,3.6,15.3,3.8,23.8
		h-40C499,164.5,481,165,468.3,165c-6.9,0-21.3,0.2-26.9,4.9c-5.3,4.4-5.3,16-5.3,22.2C436.1,198.1,436.3,206.1,441,210.5z
		 M707.7,189.6c0,6.4-0.2,13.1-0.7,19.6c-0.9,10.2-3.6,19.3-11.6,26.2c-13.6,11.8-45.6,10.4-62.2,10.4c-17.3,0-48,1.6-62.2-10.4
		c-4-3.3-6.4-6.9-8.4-11.6c-4.4-10.9-3.8-24.7-3.8-36.2c0-5.8,0-11.8,0.7-17.6c0.9-10,4.7-18.9,12.9-25.1
		c13.3-10.2,45.1-9.6,60.9-9.6c16,0,47.3-0.7,60.9,9.6c3.8,2.9,6.2,5.8,8.4,10C708.4,165.2,707.7,178.3,707.7,189.6z M958.7,194.1
		v49.1h-39.3v-49.1c0-22.7-2.4-29.1-26.7-29.1c-27.1,0-29.1,10.7-29.1,34.9v43.3h-39.3v-49.1v-7.3c0-19.1-8.2-21.8-26-21.8
		c-28,0-29.8,10-29.8,34.9v43.3h-39.3V138.1h37.1v15.8h1.8c7.3-16.2,26.9-18.4,42.7-18.4c20,0,37.6,3.3,47.8,22
		c8-19.6,26.7-22,45.6-22c15.3,0,32.4,1.8,43.6,13.6c3.8,4,6.7,8.2,8.2,13.6C958.9,172.7,958.7,183.6,958.7,194.1z M1210.9,194.1
		v49.1h-39.3v-49.1c0-22.7-2.4-29.1-26.7-29.1c-27.1,0-29.1,10.7-29.1,34.9v43.3h-39.3v-49.1v-7.3c0-19.1-8.2-21.8-26-21.8
		c-28,0-29.8,10-29.8,34.9v43.3h-39.3V138.1h37.1v15.8h1.8c7.3-16.2,26.9-18.4,42.7-18.4c20,0,37.6,3.3,47.8,22
		c8-19.6,26.7-22,45.6-22c15.3,0,32.4,1.8,43.6,13.6c3.8,4,6.7,8.2,8.2,13.6C1211.2,172.7,1210.9,183.6,1210.9,194.1z M1380.3,189.6
		c0,6.4-0.2,13.1-0.7,19.6c-0.9,10.2-3.6,19.3-11.6,26.2c-13.6,11.8-45.6,10.4-62.2,10.4c-17.3,0-48,1.6-62.2-10.4
		c-4-3.3-6.4-6.9-8.4-11.6c-4.4-10.9-3.8-24.7-3.8-36.2c0-5.8,0-11.8,0.7-17.6c0.9-10,4.7-18.9,12.9-25.1
		c13.3-10.2,45.1-9.6,60.9-9.6c16,0,47.3-0.7,60.9,9.6c3.8,2.9,6.2,5.8,8.4,10C1381,165.2,1380.3,178.3,1380.3,189.6z M1547.5,243.2
		h-37.1v-13.8h-2c-2.7,4.4-4.7,7.3-9.1,10c-9.8,6-26.2,6.4-37.3,6.4c-16.2,0-38.2,0.2-51.1-11.1c-11.6-10.2-11.3-30.4-11.3-44.7
		c0-16.4,0.4-36.4,15.6-46.7c13.3-8.9,32-8,47.3-8c11.6,0,24.2-0.2,34.4,5.8c5.1,2.9,6.9,5.8,9.8,10.9h1.6V95h39.3V243.2z
		 M1717.8,189.6c0,6.4-0.2,13.1-0.7,19.6c-0.9,10.2-3.6,19.3-11.6,26.2c-13.6,11.8-45.6,10.4-62.2,10.4c-17.3,0-48,1.6-62.2-10.4
		c-4-3.3-6.4-6.9-8.4-11.6c-4.4-10.9-3.8-24.7-3.8-36.2c0-5.8,0-11.8,0.7-17.6c0.9-10,4.7-18.9,12.9-25.1
		c13.3-10.2,45.1-9.6,60.9-9.6c16,0,47.3-0.7,60.9,9.6c3.8,2.9,6.2,5.8,8.4,10C1718.4,165.2,1717.8,178.3,1717.8,189.6z
		 M1861.1,180.5c0,1.3-0.2,2.9-0.2,4.2H1824c0-15.6-5.1-19.8-20.7-19.8c-24.2,0-24.9,15.3-24.9,34.7v43.6h-39.3V138.1h37.1v15.8h1.8
		c9.1-16.2,23.8-18.4,40.9-18.4c12.2,0,26.9,1.6,35.1,11.8C1861.4,156.3,1861.1,169.4,1861.1,180.5z M2017.9,199.2h-102.7
		c0,6-0.2,12.9,4.9,17.1c5.3,4.2,20.2,4.4,26.7,4.4s24.4,0.2,28.7-4.4c1.8-1.8,2.2-4.2,2.7-6.7h39.1c-0.9,10-2.9,17.8-10.4,24.7
		c-13.6,12.2-46,11.6-63.1,11.6c-15.6,0-41.6,0.2-54.5-9.8c-4-3.1-6.7-6.7-8.9-11.1c-4.9-10.2-4.4-22.9-4.4-33.8
		c0-6.7,0-13.3,0.7-19.8c1.1-10.7,4.7-20.2,13.6-26.7c13.8-10,41.3-9.3,57.6-9.3c14.9,0,31.1-0.4,45.6,3.8
		c23.3,6.9,24.9,28.2,24.9,49.3C2018.1,192.1,2018.1,195.6,2017.9,199.2z M2923.5,324.7h-830.7V297h830.7V324.7z M2923.5,264.2
		h-830.7v-27.8h830.7V264.2z M2923.5,203.7h-830.7v-27.8h830.7V203.7z M2923.5,143.2h-830.7v-27.8h830.7V143.2z M2923.5,82.7h-830.7
		V54.9h830.7V82.7z M3140.4,285.8h-59V143.3h-15l-56.9,48l-32.4-37.9l70.2-60.4h93.1V285.8z M3410,285.8h-230
		c0-7.5-0.6-15.3-0.6-22.8c0-15.6-0.3-31.2,2.3-46.5c5.2-32.1,32.9-36.1,60.7-38.4l72.8-5.8c9.2-0.9,19.4-0.9,28.3-4
		c8.4-2.9,8.4-7.8,8.4-15.9c0-5.5,0-11.6-4.9-15c-7.2-5.5-38.4-4-46.8-4c-17.6,0-36.7-0.9-54.3,2c-13.3,2-11.8,11.6-11.8,23.1v6.4
		h-56.9v-7.8c0-15.9,0.3-37.9,12.1-50.3c13.3-13.9,42.8-14.4,60.4-15.3c12.4-0.6,24.9-0.6,37.3-0.6h5.5l47.7,0.3
		c18.5,0,42.2,0.3,56.1,14.4c10.7,11,10.7,32.9,10.7,47.1c0,14.4-0.3,29.8-8.4,42.5c-10.7,17.1-41,19.4-59,20.5
		c-13.9,0.9-27.5,1.7-41.3,2.6c-11,0.6-22,1.4-32.9,2.3c-4.9,0.3-17.3,1.2-22,2.9c-9.2,3.5-9.2,9.8-9.2,18.2h176V285.8z
		 M3653.6,276.3c-19.1,13.9-65,11.8-87.9,11.8h-26.3c-23.7,0-62.7,1.7-82.9-11.8c-13.6-9.2-14.7-27.7-14.7-42.8
		c0-12.7,1.2-26.3,10.4-35.8c6.9-7.2,17.6-8.7,27.2-10.4c-4.3-0.3-9-0.6-13.3-1.7c-19.4-5.2-22-24.3-22-41.6
		c0-28,8.4-44.5,37.6-49.1c24-3.8,49.1-4,73.4-4c13.3,0,26.6,0.3,39.9,0.9c17,0.9,41.3,1.4,55.8,11.3c13.3,9,15.3,27.2,15.3,41.9
		c0,11.3-1.4,24.3-9,32.9c-6.9,8.1-16.2,9-26.3,9.5c10.4,1.7,19.4,2.9,27.2,10.4c10.1,9.5,10.4,26.3,10.4,39.3
		C3668.3,251.4,3666.3,267.3,3653.6,276.3z"/>
	<path class="st23" d="M3583.1,209.5c-10.4-0.3-20.8-0.6-31.2-0.6c-9.5,0-43.3-0.9-49.7,3.8c-4.3,3.2-4.3,10.4-4.3,15.3
		c0,4.3,0.3,9.2,3.8,12.4c6.6,5.8,42.2,4.3,50.6,4.3c10.1,0,20.2-0.3,30.3-0.6c7.2,0,24.6,0.9,28.3-7.5c1.4-3.2,1.4-7.5,1.4-11
		c0-4-0.3-9.2-3.5-12.1C3604.5,209.2,3588.6,209.5,3583.1,209.5z"/>
</g>
</svg>
