<?xml version="1.0" encoding="utf-8"?>
<!-- Generator: Adobe Illustrator 25.0.0, SVG Export Plug-In . SVG Version: 6.00 Build 0)  -->
<svg version="1.1" id="Layer_1" xmlns="http://www.w3.org/2000/svg" xmlns:xlink="http://www.w3.org/1999/xlink" x="0px" y="0px"
	 viewBox="0 0 3840 477.8" style="enable-background:new 0 0 3840 477.8;" xml:space="preserve">
<style type="text/css">
	.st0{fill:#EC2224;}
	.st1{fill:#FFFFFF;}
	.st2{fill:url(#SVGID_1_);}
	.st3{fill:url(#SVGID_2_);}
	.st4{fill:url(#SVGID_3_);}
	.st5{fill:url(#SVGID_4_);}
	.st6{fill:url(#SVGID_5_);}
	.st7{fill:url(#SVGID_6_);}
	.st8{fill:url(#SVGID_7_);}
	.st9{fill:url(#SVGID_8_);}
	.st10{fill:url(#SVGID_9_);}
	.st11{fill:url(#SVGID_10_);}
	.st12{fill:url(#SVGID_11_);}
	.st13{fill:url(#SVGID_12_);}
	.st14{fill:url(#SVGID_13_);}
	.st15{fill:url(#SVGID_14_);}
	.st16{fill:url(#SVGID_15_);}
	.st17{fill:url(#SVGID_16_);}
	.st18{fill:url(#SVGID_17_);}
	.st19{fill:url(#SVGID_18_);}
	.st20{fill:url(#SVGID_19_);}
	.st21{fill:url(#SVGID_20_);}
	.st22{fill:url(#SVGID_21_);}
	.st23{fill:url(#SVGID_22_);}
	.st24{fill:url(#SVGID_23_);}
	.st25{fill:url(#SVGID_24_);}
	.st26{fill:url(#SVGID_25_);}
	.st27{fill:url(#SVGID_26_);}
	.st28{fill:url(#SVGID_27_);}
	.st29{fill:url(#SVGID_28_);}
	.st30{fill:url(#SVGID_29_);}
	.st31{fill:url(#SVGID_30_);}
	.st32{fill:url(#SVGID_31_);}
	.st33{fill:url(#SVGID_32_);}
	.st34{fill:url(#SVGID_33_);}
	.st35{fill:url(#SVGID_34_);}
	.st36{fill:url(#SVGID_35_);}
	.st37{fill:url(#SVGID_36_);}
	.st38{fill:url(#SVGID_37_);}
	.st39{fill:url(#SVGID_38_);}
</style>
<g>
	<g>
		<path class="st1" d="M2618.1,415.5h25.8c19.2,0,27.5,14,27.5,31.2s-8.3,31.2-27.5,31.2h-25.8V415.5z M2629,468.9h10.7
			c17.1,0,20.8-9.8,20.8-22.3c0-12.5-3.7-22.3-20.8-22.3H2629V468.9z"/>
		<path class="st1" d="M2710.8,415.5h11.6l24,62.3h-11.7l-5.8-16.5H2704l-5.8,16.5h-11.3L2710.8,415.5z M2707,453.1h19l-9.3-26.8
			h-0.3L2707,453.1z"/>
		<path class="st1" d="M2751.4,415.5h50.4v9.4h-19.8v52.9h-10.9V425h-19.7V415.5z"/>
		<path class="st1" d="M2830.8,415.5h11.6l24,62.3h-11.7l-5.8-16.5H2824l-5.8,16.5h-11.3L2830.8,415.5z M2827,453.1h19l-9.3-26.8
			h-0.3L2827,453.1z"/>
		<path class="st1" d="M2922.7,415.5h10.9v52.9h31.7v9.4h-42.6V415.5z"/>
		<path class="st1" d="M2971.9,415.5h50.4v9.4h-19.8v52.9h-10.9V425h-19.7V415.5z"/>
		<path class="st1" d="M3042.7,415.5h25.8c19.2,0,27.5,14,27.5,31.2s-8.3,31.2-27.5,31.2h-25.8V415.5z M3053.6,468.9h10.7
			c17.1,0,20.8-9.8,20.8-22.3c0-12.5-3.7-22.3-20.8-22.3h-10.7V468.9z"/>
		<path class="st1" d="M3100.7,466.1h12.1v11.8h-12.1V466.1z"/>
	</g>
	<g>
		<g>
			<polygon class="st1" points="324.6,327.2 293,382 276,382 307.7,327.2 			"/>
			<path class="st1" d="M389.4,215l73.7-127.6c7.6-13.2,21.7-21.3,36.9-21.3h156.5l8.5-14.7H557.6l-57.3,0
				c-20.6,0-39.8,11.1-50.2,29l-27.8,48.2l-0.8,1.4l-49.1,85H389.4z"/>
			<g>
				<path class="st1" d="M689.5,8.9l-131.9,0l0,0h-57.3c-35.9,0-69.1,19.2-87,50.2l-27.8,48.2l-0.8,1.5L323.2,215h38.1l80.5-139.4
					c12-20.8,34.4-33.7,58.4-33.7h170.1L689.5,8.9z"/>
				<path class="st1" d="M476.6,149.1h131.9l42.4-73.4H499.9c-11.8,0-22.7,6.3-28.6,16.5L400.4,215h38.1L476.6,149.1z"/>
				<polygon class="st1" points="373.8,327.2 342.2,382 304,382 335.7,327.2 				"/>
				<polygon class="st1" points="258.5,327.2 226.9,382 265,382 296.6,327.2 				"/>
			</g>
			<path class="st1" d="M97.1,149.1h90.1L175,170.3c-38.7,67,9.7,150.7,87,150.7h0l378.4,0L605.3,382h38.1l25.6-44.4
				c5.9-10.2,5.9-22.8,0-33c-5.9-10.2-16.8-16.5-28.6-16.5H262c-24.4,0-46.2-12.6-58.4-33.7c-12.2-21.1-12.2-46.3,0-67.5l12.2-21.2
				c5.9-10.2,5.9-22.8,0-33c-5.9-10.2-16.8-16.5-28.6-16.5H78L97.1,149.1z"/>
			<path class="st1" d="M58.5,82.3h127.7c24.4,0,46.2,12.6,58.4,33.7c12.2,21.1,12.2,46.3,0,67.5l-12.2,21.2
				c-5.9,10.2-5.9,22.8,0,33c5.9,10.2,16.8,16.5,28.6,16.5l378.4,0c24.4,0,46.2,12.6,58.4,33.7c10.8,18.6,12,40.4,3.8,59.8
				L681.8,382h38.8l5.8-10c38.7-67-9.7-150.7-87-150.7l-204.4,0H319.7l-58.7,0l12.2-21.2c38.7-67-9.7-150.7-87-150.7h-1l-21.9,21.9
				l-21.9-21.9h-102L58.5,82.3z"/>
			<g>
				<polygon class="st1" points="147.6,43.1 163.3,27.4 179.1,43.1 195.7,43.1 163.3,10.7 130.9,43.1 				"/>
			</g>
			<path class="st1" d="M50.4,116.2L0,97.8l29.2-18.4l7.2,12.4h149.8c20.9,0,39.7,10.8,50.2,29c10.5,18.1,10.5,39.8,0,57.9
				l-12.2,21.2c-7.6,13.2-7.6,29.4,0,42.6c7.6,13.2,21.7,21.3,36.9,21.3l378.4,0c20.9,0,39.7,10.8,50.2,29
				c10.5,18.1,10.5,39.8,0,57.9L671.4,382h-17l22.9-39.6c7.6-13.2,7.6-29.4,0-42.6c-7.6-13.2-21.7-21.3-36.9-21.3H377.4H262
				c-20.9,0-39.7-10.8-50.2-29c-10.5-18.1-10.5-39.8,0-57.9l12.2-21.2c7.6-13.2,7.6-29.4,0-42.6c-7.6-13.2-21.7-21.3-36.9-21.3H45
				L50.4,116.2z"/>
		</g>
		<g>
			<path class="st1" d="M1009.5,8.9H820.8V382H987c130.1,0,190.7-72.6,190.7-187.1C1177.7,100.9,1133.9,8.9,1009.5,8.9z
				 M980.7,286.4h-44.9V104.5h36.6c83.1,0,90.4,65.3,90.4,88.8C1062.8,228.4,1052.3,286.4,980.7,286.4z M1497,209
				c38.2-14.1,55.9-54.9,55.9-93.5c0-70.5-56.4-106.6-121.8-106.6h-219V382h115V251.9h61.1c45.5,0,48.6,37.1,51.7,72.6
				c1.6,19.3,3.6,38.7,9.4,57.5h115c-10.4-17.2-11-61.7-12.5-80C1547.7,255.5,1528.4,221,1497,209z M1387.3,171.9h-60.1V97.7h53.8
				c43.9,0,57,13.6,57,37.1C1438,168.3,1408.7,171.9,1387.3,171.9z M1719.1,8.9L1581.6,382h115.5l16.7-53.3h118.6l15.7,53.3h119.1
				L1831.4,8.9H1719.1z M1738.9,248.7l36.1-115h1l33.4,115H1738.9z M2164.3,256.6h50.7c-5.7,27.7-32.9,41.3-59.6,41.3
				c-70,0-84.1-61.1-84.1-96.1c0-25.6-2.6-108.7,76.3-108.7c27.2,0,50.2,19.3,54.3,46.5h110.3C2295.4,51.7,2235.3,0,2140.2,0
				c-84.1,0-183.9,57-183.9,199.1c0,106.1,67.9,191.8,178.2,191.8c40.8,0,80.5-14.1,106.1-47l3.7,38.1h72.6V176.6h-152.6V256.6z
				 M2536.8,0c-113.4,0-189.2,81.5-189.2,195.4c0,113.9,75.8,195.4,189.2,195.4c113.4,0,189.2-81.5,189.2-195.4
				C2726,81.5,2650.2,0,2536.8,0z M2536.8,297.9c-29.3,0-74.2-19.3-74.2-102.4S2507.6,93,2536.8,93c29.3,0,74.2,19.3,74.2,102.4
				S2566.1,297.9,2536.8,297.9z M2987.3,8.9v199.6h-1.1L2877.5,8.9h-117.6V382h108.7V178.2h1L2984.1,382h111.8V8.9H2987.3z"/>
		</g>
	</g>
	<g>
		<path class="st1" d="M3399,115.5c-2.1-6.8-7.3-14.1-15.2-19.9c-7.3-4.7-16.7-6.3-28.2-6.3c-39.7,0-59.6,38.7-63.2,74.7
			c24.6-22.5,51.2-28.2,84.1-28.2c70,0,121.8,44.9,121.8,116c0,89.4-62.7,134.3-149.4,134.3c-110.3,0-155.2-83.6-155.2-173
			c0-114.4,52.8-199.1,164.1-199.1c78.4,0,125.4,30.3,136.9,101.4H3399z M3299.2,253.4c0,28.7,20.9,50.2,49.7,50.2
			c31.4,0,53.3-22.5,53.3-50.2c0-25.6-20.9-48.1-53.3-48.1C3320.6,205.4,3299.2,226.3,3299.2,253.4z"/>
		<path class="st1" d="M3682.2,309.9h-161.5v-98.2l166.2-193.3h104V221h49.1v88.8h-49.1V382h-108.7V309.9z M3593.4,221h88.8V119.1
			L3593.4,221z"/>
	</g>
</g>
</svg>
