<?xml version="1.0" encoding="utf-8"?>
<!-- Generator: Adobe Illustrator 25.4.1, SVG Export Plug-In . SVG Version: 6.00 Build 0)  -->
<svg version="1.1" id="Layer_1" xmlns="http://www.w3.org/2000/svg" xmlns:xlink="http://www.w3.org/1999/xlink" x="0px" y="0px"
	 viewBox="0 0 3839 893.6" style="enable-background:new 0 0 3839 893.6;" xml:space="preserve">
<style type="text/css">
	.st0{fill:#FFFFFF;}
	.st1{font-family:'SegoePro-Bold';}
	.st2{font-size:176.5954px;}
	.st3{letter-spacing:-7;}
	.st4{letter-spacing:-7.3;}
	.st5{letter-spacing:-10;}
	.st6{letter-spacing:-8;}
	.st7{letter-spacing:-8.2;}
</style>
<g>
	<g>
		<text transform="matrix(1 0 0 1 1909.0028 841.2499)" class="st0 st1 st2 st3">C</text>
		<text transform="matrix(1.1 0 0 1 2011.2557 841.2499)" class="st0 st1 st2 st4">O</text>
		<text transform="matrix(1 0 0 1 2149.7229 841.2499)" class="st0 st1 st2 st3">MPUTER</text>
		<text transform="matrix(1 0 0 1 2852.8523 841.2499)" class="st0 st1 st2 st5">SYSTEM</text>
		<text transform="matrix(1 0 0 1 1338.9872 841.2499)" class="st0 st1 st2 st6">H</text>
		<text transform="matrix(1.1 0 0 1 1465.4496 841.2499)" class="st0 st1 st2 st7">O</text>
		<text transform="matrix(1 0 0 1 1602.9457 841.2499)" class="st0 st1 st2 st6">ME</text>
	</g>
	<g>
		<g>
			<g>
				<path class="st0" d="M985.4,88.6l179.8,262.8l-54.1,196.9L813.3,95.5L985.4,88.6 M990.5,78.4l-195.3,7.8l319.6,486l61.2-222.6
					L990.5,78.4L990.5,78.4z"/>
			</g>
			<g>
				<path class="st0" d="M791,98.1l310.8,472.5l-82.8,74.8L681.7,132.6L791,98.1 M795.2,86.3L666.1,127l351,533.6l97.9-88.4
					L795.2,86.3L795.2,86.3z"/>
			</g>
			<g>
				<path class="st0" d="M666,145.1l336.9,512.2l-94.6,54.9L599.9,243.2L666,145.1 M666.1,127l-78.2,116.1l317.3,482.4l111.9-64.9
					L666.1,127L666.1,127z"/>
			</g>
		</g>
		<g>
			<path class="st0" d="M589.1,263.3l276.6,420.5l-151.6,30.6L517.5,408.9L589.1,263.3 M587.9,243.2L506,409.5l203.4,316l172.8-34.9
				L587.9,243.2L587.9,243.2z"/>
		</g>
		<g>
			<g>
				<g>
					<path class="st0" d="M2531.5,96.4l-283.8-0.1l-44.2,342.9L2075.2,96.3h-173.1l-191.3,361.9l46.6-361.9h-153.1l-54.5,423.3
						h-143.7c-31.2,0-55.3-27.4-51.3-58.4l47-364.9h-153.1l-25.3,196.2C1179.2,124.2,1025.9,0,843.6,0
						C700.6,0,575.4,76.5,506.7,190.8l-35.3-94.4H298.3L0,660.6h153.6L234.3,508h232.9l5.2,13.9l0.1-0.1
						c53.4,153.7,199.3,264,371.2,264c85.1,0,163.9-27.2,228.2-73.2l84.5,128.6h177.9l-157.6-239.9c10.3-16.5,19.5-33.8,27.3-51.9
						c19,63.6,77.9,111.1,149.2,111.1h331.6h72.7l80.7-152.6H2071l57.1,152.6H2328l36.5-283.5l164.6,283.5H2694l-102.3-176.1
						C2793.5,429.2,2773.4,96.4,2531.5,96.4z M303.5,377.1L370.7,250l47.5,127.1H303.5z M843.6,650.6
						C701.3,650.6,586,535.2,586,392.9c0-142.3,115.4-257.6,257.6-257.6c142.3,0,257.6,115.4,257.6,257.6
						C1101.3,535.2,985.9,650.6,843.6,650.6z M1907.3,377.1l67.2-127.1l47.5,127.1H1907.3z M2495,377.1l-130.5,0.1l18-139.8
						l124.7,0.1C2600.4,237.4,2588.2,377.1,2495,377.1z"/>
				</g>
				<g>
					<polygon class="st0" points="2766.7,96.3 2694,660.6 2847.1,660.6 2919.8,96.3 					"/>
				</g>
				<g>
					<path class="st0" d="M3300.9,96.3l-54.5,423.3h-143.7c-31.2,0-55.3-27.4-51.3-58.4l47-364.9h-153.1l-50.1,388.7
						c-12,93.1,60.5,175.6,154.4,175.6h331.6l72.7-564.3H3300.9z"/>
				</g>
				<g>
					<path class="st0" d="M3694.5,299.8c0,0-84.7-24.1-71.2-72.2c13.6-48.1,133.6-38.7,167.7,26.9l19.5-151.4
						c0,0-54.3-43.3-146.7-43.3c-92.4,0-202.8,77.8-202.8,187s68.4,154.6,110.7,175.1c37.5,18.2,128,52.8,101,110.7
						c-36.7,78.7-188.7,25.6-237.6-122.2l-27.4,212.7c0,0,65.8,102.2,205.6,102.2c93.3,0,214.4-57.2,225.2-211.5
						C3843.1,448.4,3817.7,344.2,3694.5,299.8z"/>
				</g>
			</g>
		</g>
	</g>
</g>
</svg>
