<?xml version="1.0" encoding="utf-8"?>
<!-- Generator: Adobe Illustrator 26.0.3, SVG Export Plug-In . SVG Version: 6.00 Build 0)  -->
<svg version="1.1" id="Layer_1" xmlns="http://www.w3.org/2000/svg" xmlns:xlink="http://www.w3.org/1999/xlink" x="0px" y="0px"
	 viewBox="0 0 3839 1557.6" style="enable-background:new 0 0 3839 1557.6;" xml:space="preserve">
<style type="text/css">
	.st0{fill:#FFFFFF;}
</style>
<path class="st0" d="M0,0v1557.6h3839V0H0z M3190.5,1325.8L2962.6,1005l-227.8,320.8h-345.3L2790,761.9l-176.5-248.5h-127.6h-49.6
	h-533.9c-83.1,0-83.1,124.7,0,124.7h247.1c458.5,0,458.5,687.7,0,687.7h-471.3h-99h-192.7l-134.4-492.7l-134.5,492.7H863.8
	L729.4,833.1L595,1325.8H303.2L601.6,231.8h255.5l133.6,489.7l133.6-489.7h255.6l221.5,812.4h548.1c83.1,0,83.1-124.7,0-124.7
	h-247.1c-458.5,0-458.5-687.7,0-687.7h533.9h49.6h272.8l203.9,287l203.9-287h345.3l-376.5,530.1l400.5,563.8H3190.5z"/>
</svg>
