<?xml version="1.0" encoding="utf-8"?>
<!-- Generator: Adobe Illustrator 25.0.0, SVG Export Plug-In . SVG Version: 6.00 Build 0)  -->
<svg version="1.1" id="Layer_1" xmlns="http://www.w3.org/2000/svg" xmlns:xlink="http://www.w3.org/1999/xlink" x="0px" y="0px"
	 viewBox="0 0 2026.3 2160" style="enable-background:new 0 0 2026.3 2160;" xml:space="preserve">
<style type="text/css">
	.st0{fill-rule:evenodd;clip-rule:evenodd;fill:#8D8E8E;}
	.st1{fill-rule:evenodd;clip-rule:evenodd;}
	.st2{fill-rule:evenodd;clip-rule:evenodd;fill:#CB262D;}
	.st3{fill-rule:evenodd;clip-rule:evenodd;fill:#922E34;}
	.st4{fill-rule:evenodd;clip-rule:evenodd;fill:#CDCDCD;}
	.st5{fill-rule:evenodd;clip-rule:evenodd;fill:#9B2685;}
	.st6{fill-rule:evenodd;clip-rule:evenodd;fill:#333990;}
	.st7{fill-rule:evenodd;clip-rule:evenodd;fill:#802D89;}
	.st8{fill-rule:evenodd;clip-rule:evenodd;fill:#F3E444;}
	.st9{fill-rule:evenodd;clip-rule:evenodd;fill:#999041;}
	.st10{fill-rule:evenodd;clip-rule:evenodd;fill:#C9C9C9;}
	.st11{fill-rule:evenodd;clip-rule:evenodd;fill:#FFFFFF;}
	.st12{fill-rule:evenodd;clip-rule:evenodd;fill:#666666;}
	.st13{fill:#FFFFFF;}
	.st14{opacity:0.6;fill-rule:evenodd;clip-rule:evenodd;fill:#FFFFFF;}
	.st15{opacity:0.15;fill-rule:evenodd;clip-rule:evenodd;fill:#FFFFFF;}
	.st16{fill-rule:evenodd;clip-rule:evenodd;fill:#363636;}
	.st17{fill-rule:evenodd;clip-rule:evenodd;fill:#999999;}
	.st18{opacity:0.6;fill-rule:evenodd;clip-rule:evenodd;}
	.st19{opacity:0.15;fill-rule:evenodd;clip-rule:evenodd;}
</style>
<g>
	<polygon class="st14" points="1614.6,879.5 1547.8,879.5 1481,879.5 1414.2,879.5 1347.3,879.5 1280.5,879.5 1280.5,946.3 
		1213.7,946.3 1213.7,1013.2 1146.8,1013.2 1146.8,1080 1146.8,1146.8 1146.8,1213.7 1146.8,1280.5 1146.8,1347.3 1213.7,1347.3 
		1213.7,1414.2 1280.5,1414.2 1280.5,1347.3 1280.5,1280.5 1280.5,1213.7 1280.5,1146.8 1347.3,1146.8 1347.3,1080 1414.2,1080 
		1481,1080 1547.8,1080 1614.6,1080 1681.5,1080 1681.5,1146.8 1748.3,1146.8 1748.3,1213.7 1815.1,1213.7 1882,1213.7 
		1948.8,1213.7 1948.8,1146.8 1948.8,1080 1948.8,1013.2 1882,1013.2 1882,946.3 1815.1,946.3 1748.3,946.3 1748.3,879.5 
		1681.5,879.5 	"/>
	<path class="st14" d="M1614.6,211.2h-66.8H1481h-66.8V278v66.8h66.8h66.8h66.8V278V211.2z M1604,334.2h-179.1V221.9H1604V334.2z"/>
	<polygon class="st14" points="1280.5,812.7 1347.3,812.7 1414.2,812.7 1481,812.7 1547.8,812.7 1614.6,812.7 1681.5,812.7 
		1748.3,812.7 1748.3,745.8 1815.1,745.8 1815.1,679 1815.1,612.2 1815.1,545.3 1748.3,545.3 1748.3,478.5 1681.5,478.5 
		1614.6,478.5 1614.6,411.7 1547.8,411.7 1481,411.7 1414.2,411.7 1414.2,344.9 1347.3,344.9 1347.3,278 1347.3,211.2 1414.2,211.2 
		1414.2,144.4 1481,144.4 1547.8,144.4 1614.6,144.4 1614.6,211.2 1681.5,211.2 1681.5,278 1748.3,278 1815.1,278 1815.1,211.2 
		1815.1,144.4 1748.3,144.4 1681.5,144.4 1681.5,77.5 1614.6,77.5 1547.8,77.5 1481,77.5 1414.2,77.5 1347.3,77.5 1347.3,144.4 
		1280.5,144.4 1213.7,144.4 1213.7,211.2 1213.7,278 1213.7,344.9 1213.7,411.7 1280.5,411.7 1347.3,411.7 1347.3,478.5 
		1414.2,478.5 1481,478.5 1547.8,478.5 1547.8,545.3 1614.6,545.3 1614.6,612.2 1681.5,612.2 1681.5,679 1614.6,679 1614.6,745.8 
		1547.8,745.8 1481,745.8 1414.2,745.8 1347.3,745.8 1347.3,679 1347.3,612.2 1280.5,612.2 1213.7,612.2 1213.7,679 1213.7,745.8 
		1280.5,745.8 	"/>
	<path class="st14" d="M1414.2,612.2V679h66.8h66.8h66.8v-66.8h-66.8v-66.8H1481h-66.8h-66.8v66.8H1414.2z M1358,556h179.1v66.8
		h66.8v45.4h-179.1v-66.8H1358V556z"/>
	<path class="st14" d="M1213.7,1547.8h66.8V1481h-66.8v-66.8h-66.8v-66.8H1080v-66.8h-66.8v66.8v66.8v66.8v66.8v66.8v66.8h66.8
		v-66.8h66.8v-66.8H1213.7z M1136.1,1537.1v66.8h-66.8v66.8h-45.4v-379.6h45.4v66.8h66.8v66.8h66.8v66.8h66.8v45.4H1136.1z"/>
	<path class="st14" d="M745.8,812.7h66.8v-66.8V679v-66.8h-66.8V679v66.8H679v66.8v66.8h66.8V812.7z M735.1,868.8h-45.4V756.5h66.8
		V622.9H802V802h-66.8V868.8z"/>
	<path class="st14" d="M411.7,679v-66.8h-66.8V679v66.8v66.8h66.8h66.8v-66.8h-66.8V679z M467.8,756.5V802H355.5V622.9H401v133.7
		H467.8z"/>
	<path class="st14" d="M478.5,1547.8V1481v-66.8v-66.8v-66.8h-66.8h-66.8v66.8v66.8v66.8v66.8v66.8v66.8v66.8h66.8h66.8h66.8v-66.8
		v-66.8h-66.8V1547.8z M534.6,1625.3v112.3H355.5v-446.4h112.3v334.2H534.6z"/>
	<path class="st14" d="M1280.5,879.5v-66.8h-66.8v66.8H1280.5z M1224.3,823.4h45.4v45.4h-45.4V823.4z"/>
	<path class="st14" d="M1614.6,1681.5h66.8v-66.8h-66.8h-66.8v66.8H1614.6z M1558.5,1625.3h112.3v45.4h-112.3V1625.3z"/>
	<polygon class="st14" points="1347.3,1280.5 1347.3,1347.3 1347.3,1414.2 1347.3,1481 1347.3,1547.8 1347.3,1614.7 1414.2,1614.7 
		1414.2,1681.5 1481,1681.5 1481,1614.7 1547.8,1614.7 1547.8,1547.8 1547.8,1481 1547.8,1414.2 1547.8,1347.3 1547.8,1280.5 
		1547.8,1213.7 1547.8,1146.8 1481,1146.8 1414.2,1146.8 1347.3,1146.8 1347.3,1213.7 	"/>
	<polygon class="st14" points="1213.7,946.3 1213.7,879.5 1146.8,879.5 1080,879.5 1013.2,879.5 946.3,879.5 879.5,879.5 
		812.7,879.5 745.8,879.5 745.8,946.3 679,946.3 679,1013.2 612.2,1013.2 612.2,1080 612.2,1146.8 545.3,1146.8 545.3,1213.7 
		545.3,1280.5 545.3,1347.3 545.3,1414.2 545.3,1481 545.3,1547.8 545.3,1614.7 612.2,1614.7 612.2,1681.5 679,1681.5 679,1614.7 
		679,1547.8 745.8,1547.8 745.8,1481 745.8,1414.2 745.8,1347.3 745.8,1280.5 745.8,1213.7 745.8,1146.8 812.7,1146.8 812.7,1080 
		879.5,1080 946.3,1080 1013.2,1080 1013.2,1146.8 1013.2,1213.7 1080,1213.7 1080,1146.8 1080,1080 1080,1013.2 1146.8,1013.2 
		1146.8,946.3 	"/>
	<path class="st14" d="M1681.5,1213.7v-66.8h-66.8v66.8v66.8h66.8h66.8v-66.8H1681.5z M1737.6,1269.8h-112.3v-112.3h45.4v66.8h66.8
		V1269.8z"/>
	<polygon class="st14" points="679,2015.6 745.8,2015.6 745.8,1948.8 745.8,1882 745.8,1815.1 812.7,1815.1 812.7,1748.3 
		879.5,1748.3 879.5,1681.5 946.3,1681.5 946.3,1614.7 946.3,1547.8 946.3,1481 946.3,1414.2 946.3,1347.3 946.3,1280.5 
		946.3,1213.7 946.3,1146.8 879.5,1146.8 812.7,1146.8 812.7,1213.7 812.7,1280.5 812.7,1347.3 812.7,1414.2 812.7,1481 
		812.7,1547.8 812.7,1614.7 745.8,1614.7 745.8,1681.5 679,1681.5 679,1748.3 612.2,1748.3 612.2,1815.1 545.3,1815.1 478.5,1815.1 
		411.7,1815.1 344.8,1815.1 278,1815.1 278,1748.3 278,1681.5 278,1614.7 278,1547.8 278,1481 278,1414.2 278,1347.3 278,1280.5 
		278,1213.7 344.8,1213.7 411.7,1213.7 478.5,1213.7 478.5,1146.8 545.3,1146.8 545.3,1080 545.3,1013.2 612.2,1013.2 612.2,946.3 
		679,946.3 679,879.5 612.2,879.5 545.3,879.5 478.5,879.5 411.7,879.5 344.8,879.5 278,879.5 211.2,879.5 144.3,879.5 77.5,879.5 
		77.5,946.3 77.5,1013.2 77.5,1080 77.5,1146.8 77.5,1213.7 77.5,1280.5 77.5,1347.3 77.5,1414.2 77.5,1481 77.5,1547.8 
		77.5,1614.7 77.5,1681.5 77.5,1748.3 77.5,1815.1 77.5,1882 77.5,1948.8 77.5,2015.6 77.5,2082.5 144.3,2082.5 211.2,2082.5 
		278,2082.5 344.8,2082.5 411.7,2082.5 478.5,2082.5 545.3,2082.5 612.2,2082.5 612.2,2015.6 	"/>
	<polygon class="st14" points="211.2,77.5 144.3,77.5 144.3,144.4 144.3,211.2 144.3,278 144.3,344.9 144.3,411.7 144.3,478.5 
		144.3,545.3 144.3,612.2 144.3,679 144.3,745.8 144.3,812.7 211.2,812.7 278,812.7 278,745.8 278,679 278,612.2 278,545.3 
		278,478.5 278,411.7 344.8,411.7 344.8,478.5 411.7,478.5 411.7,545.3 411.7,612.2 478.5,612.2 478.5,679 478.5,745.8 545.3,745.8 
		545.3,812.7 612.2,812.7 612.2,745.8 679,745.8 679,679 679,612.2 745.8,612.2 745.8,545.3 745.8,478.5 812.7,478.5 812.7,411.7 
		879.5,411.7 879.5,478.5 879.5,545.3 879.5,612.2 879.5,679 879.5,745.8 879.5,812.7 946.3,812.7 1013.2,812.7 1013.2,745.8 
		1013.2,679 1013.2,612.2 1013.2,545.3 1013.2,478.5 1013.2,411.7 1013.2,344.9 1013.2,278 1013.2,211.2 1013.2,144.4 1013.2,77.5 
		946.3,77.5 879.5,77.5 812.7,77.5 812.7,144.4 812.7,211.2 745.8,211.2 745.8,278 745.8,344.9 679,344.9 679,411.7 679,478.5 
		612.2,478.5 612.2,545.3 612.2,612.2 545.3,612.2 545.3,545.3 545.3,478.5 478.5,478.5 478.5,411.7 478.5,344.9 411.7,344.9 
		411.7,278 411.7,211.2 344.8,211.2 344.8,144.4 344.8,77.5 278,77.5 	"/>
	<polygon class="st14" points="1614.6,1347.3 1614.6,1414.2 1614.6,1481 1614.6,1547.8 1681.5,1547.8 1681.5,1614.7 1748.3,1614.7 
		1748.3,1681.5 1681.5,1681.5 1681.5,1748.3 1614.6,1748.3 1547.8,1748.3 1481,1748.3 1414.2,1748.3 1414.2,1681.5 1347.3,1681.5 
		1347.3,1614.7 1280.5,1614.7 1213.7,1614.7 1146.8,1614.7 1146.8,1681.5 1146.8,1748.3 1146.8,1815.1 1146.8,1882 1213.7,1882 
		1213.7,1948.8 1280.5,1948.8 1280.5,2015.6 1347.3,2015.6 1347.3,2082.5 1414.2,2082.5 1481,2082.5 1547.8,2082.5 1614.6,2082.5 
		1681.5,2082.5 1748.3,2082.5 1748.3,2015.6 1815.1,2015.6 1882,2015.6 1882,1948.8 1948.8,1948.8 1948.8,1882 1948.8,1815.1 
		1948.8,1748.3 1948.8,1681.5 1948.8,1614.7 1948.8,1547.8 1948.8,1481 1882,1481 1882,1414.2 1815.1,1414.2 1748.3,1414.2 
		1748.3,1347.3 1681.5,1347.3 	"/>
	<path class="st14" d="M1959.5,1291.2v-66.8h66.8v-221.9h-66.8v-66.8h-66.8v-66.8H1759v-45.4h66.8v-66.8h66.8V534.7h-66.8v-66.8
		H1759V401h-133.7v-45.4h267.3V133.7h-66.8V66.8h-133.7V0h-355.5v66.8H1203v66.8h-66.8v288.7h66.8v66.8h133.7v45.4h-200.5v221.9
		h66.8V802h-112.3V0H802v66.8h-66.8v133.7h-66.8v133.7h-66.8v133.7H556V334.2h-66.8V200.5h-66.8V66.8h-66.8V0H66.8v802H0v1358h622.9
		v-66.8H802v66.8h489.2v-66.8h45.4v66.8H1759v-66.8h133.7v-66.8h66.8v-66.8h66.8v-489.2h-66.8v-66.8h-66.8v-66.8H1759v-45.4H1959.5z
		 M1815.1,1347.3h66.8v66.8h66.8v66.8h66.8v66.8v66.8v66.8v66.8v66.8v66.8v66.8h-66.8v66.8H1882v66.8h-66.8h-66.8v66.8h-66.8h-66.8
		h-66.8H1481h-66.8h-66.8v-66.8h-66.8v66.8h-66.8h-66.8H1080h-66.8h-66.8h-66.8h-66.8v-66.8h-66.8H679h-66.8v66.8h-66.8h-66.8h-66.8
		h-66.8H278h-66.8h-66.8H77.5H10.7v-66.8v-66.8v-66.8V1882v-66.8v-66.8v-66.8v-66.8v-66.8V1481v-66.8v-66.8v-66.8v-66.8v-66.8V1080
		v-66.8v-66.8v-66.8v-66.8h66.8v-66.8V679v-66.8v-66.8v-66.8v-66.8v-66.8V278v-66.8v-66.8V77.5V10.7h66.8h66.8H278h66.8v66.8h66.8
		v66.8v66.8h66.8V278v66.8h66.8v66.8v66.8h66.8v-66.8v-66.8H679V278v-66.8h66.8v-66.8V77.5h66.8V10.7h66.8h66.8h66.8h66.8v66.8v66.8
		v66.8V278v66.8v66.8v66.8v66.8v66.8V679v66.8v66.8h66.8h66.8v-66.8h-66.8V679v-66.8v-66.8h66.8h66.8h66.8v-66.8h-66.8h-66.8v-66.8
		h-66.8v-66.8V278v-66.8v-66.8h66.8V77.5h66.8h66.8V10.7h66.8h66.8h66.8h66.8h66.8v66.8h66.8h66.8v66.8h66.8v66.8V278v66.8h-66.8
		h-66.8h-66.8h-66.8v66.8h66.8h66.8v66.8h66.8v66.8h66.8v66.8V679v66.8h-66.8v66.8h-66.8v66.8h66.8h66.8v66.8h66.8v66.8h66.8v66.8
		v66.8v66.8h-66.8v66.8H1882h-66.8h-66.8v66.8H1815.1z"/>
	<polygon class="st14" points="1213.7,2015.6 1213.7,1948.8 1146.8,1948.8 1146.8,1882 1080,1882 1080,1815.1 1080,1748.3 
		1013.2,1748.3 946.3,1748.3 946.3,1815.1 879.5,1815.1 879.5,1882 812.7,1882 812.7,1948.8 812.7,2015.6 812.7,2082.5 
		879.5,2082.5 946.3,2082.5 1013.2,2082.5 1080,2082.5 1146.8,2082.5 1213.7,2082.5 1280.5,2082.5 1280.5,2015.6 	"/>
	<rect x="77.5" y="879.5" class="st11" width="66.8" height="66.8"/>
	<rect x="77.5" y="946.3" class="st11" width="66.8" height="66.8"/>
	<rect x="77.5" y="1013.2" class="st11" width="66.8" height="66.8"/>
	<rect x="77.5" y="1080" class="st11" width="66.8" height="66.8"/>
	<rect x="77.5" y="1146.8" class="st11" width="66.8" height="66.8"/>
	<rect x="77.5" y="1213.7" class="st11" width="66.8" height="66.8"/>
	<rect x="77.5" y="1280.5" class="st11" width="66.8" height="66.8"/>
	<rect x="77.5" y="1347.3" class="st11" width="66.8" height="66.8"/>
	<rect x="77.5" y="1414.2" class="st11" width="66.8" height="66.8"/>
	<rect x="77.5" y="1481" class="st11" width="66.8" height="66.8"/>
	<rect x="77.5" y="1547.8" class="st11" width="66.8" height="66.8"/>
	<rect x="77.5" y="1614.7" class="st11" width="66.8" height="66.8"/>
	<rect x="77.5" y="1681.5" class="st11" width="66.8" height="66.8"/>
	<rect x="77.5" y="1748.3" class="st11" width="66.8" height="66.8"/>
	<rect x="77.5" y="1815.1" class="st14" width="66.8" height="66.8"/>
	<rect x="77.5" y="1882" class="st14" width="66.8" height="66.8"/>
	<rect x="144.4" y="879.5" class="st11" width="66.8" height="66.8"/>
	<rect x="144.4" y="946.3" class="st11" width="66.8" height="66.8"/>
	<rect x="144.4" y="1013.2" class="st11" width="66.8" height="66.8"/>
	<rect x="144.4" y="1080" class="st11" width="66.8" height="66.8"/>
	<rect x="144.4" y="1146.8" class="st11" width="66.8" height="66.8"/>
	<rect x="144.4" y="1213.7" class="st11" width="66.8" height="66.8"/>
	<rect x="144.4" y="1280.5" class="st11" width="66.8" height="66.8"/>
	<rect x="144.4" y="1347.3" class="st11" width="66.8" height="66.8"/>
	<rect x="144.4" y="1414.2" class="st11" width="66.8" height="66.8"/>
	<rect x="144.4" y="1481" class="st11" width="66.8" height="66.8"/>
	<rect x="144.4" y="1547.8" class="st11" width="66.8" height="66.8"/>
	<rect x="144.4" y="1614.7" class="st11" width="66.8" height="66.8"/>
	<rect x="144.4" y="1681.5" class="st11" width="66.8" height="66.8"/>
	<rect x="144.4" y="1748.3" class="st11" width="66.8" height="66.8"/>
	<rect x="144.4" y="1815.1" class="st14" width="66.8" height="66.8"/>
	<rect x="144.4" y="1882" class="st14" width="66.8" height="66.8"/>
	<rect x="211.2" y="879.5" class="st11" width="66.8" height="66.8"/>
	<rect x="211.2" y="946.3" class="st11" width="66.8" height="66.8"/>
	<rect x="211.2" y="1013.2" class="st11" width="66.8" height="66.8"/>
	<rect x="278" y="879.5" class="st11" width="66.8" height="66.8"/>
	<rect x="278" y="946.3" class="st11" width="66.8" height="66.8"/>
	<rect x="278" y="1013.2" class="st11" width="66.8" height="66.8"/>
	<rect x="344.8" y="879.5" class="st11" width="66.8" height="66.8"/>
	<rect x="344.8" y="946.3" class="st11" width="66.8" height="66.8"/>
	<rect x="344.8" y="1013.2" class="st11" width="66.8" height="66.8"/>
	<rect x="411.7" y="879.5" class="st11" width="66.8" height="66.8"/>
	<rect x="478.5" y="879.5" class="st11" width="66.8" height="66.8"/>
	<rect x="545.3" y="879.5" class="st11" width="66.8" height="66.8"/>
	<rect x="411.7" y="946.3" class="st11" width="66.8" height="66.8"/>
	<rect x="478.5" y="946.3" class="st11" width="66.8" height="66.8"/>
	<rect x="411.7" y="1013.2" class="st11" width="66.8" height="66.8"/>
	<rect x="478.5" y="1013.2" class="st11" width="66.8" height="66.8"/>
	<rect x="211.2" y="1080" class="st11" width="66.8" height="66.8"/>
	<rect x="211.2" y="1146.8" class="st11" width="66.8" height="66.8"/>
	<rect x="211.2" y="1213.7" class="st11" width="66.8" height="66.8"/>
	<rect x="211.2" y="1280.5" class="st11" width="66.8" height="66.8"/>
	<rect x="211.2" y="1347.3" class="st11" width="66.8" height="66.8"/>
	<rect x="211.2" y="1414.2" class="st11" width="66.8" height="66.8"/>
	<rect x="211.2" y="1481" class="st11" width="66.8" height="66.8"/>
	<rect x="211.2" y="1547.8" class="st11" width="66.8" height="66.8"/>
	<rect x="211.2" y="1614.7" class="st11" width="66.8" height="66.8"/>
	<rect x="211.2" y="1681.5" class="st11" width="66.8" height="66.8"/>
	<rect x="211.2" y="1748.3" class="st11" width="66.8" height="66.8"/>
	<rect x="211.2" y="1815.1" class="st14" width="66.8" height="66.8"/>
	<rect x="211.2" y="1882" class="st14" width="66.8" height="66.8"/>
	<rect x="1748.3" y="144.4" class="st14" width="66.8" height="66.8"/>
	<rect x="1681.5" y="144.4" class="st11" width="66.8" height="66.8"/>
	<rect x="1614.6" y="144.4" class="st11" width="66.8" height="66.8"/>
	<rect x="1614.6" y="77.5" class="st14" width="66.8" height="66.8"/>
	<rect x="1347.3" y="144.4" class="st14" width="66.8" height="66.8"/>
	<rect x="1280.5" y="211.2" class="st14" width="66.8" height="66.8"/>
	<rect x="1280.5" y="278" class="st14" width="66.8" height="66.8"/>
	<rect x="1280.5" y="344.9" class="st14" width="66.8" height="66.8"/>
	<rect x="1347.3" y="344.9" class="st14" width="66.8" height="66.8"/>
	<rect x="1547.8" y="411.7" class="st14" width="66.8" height="66.8"/>
	<rect x="1681.5" y="478.5" class="st14" width="66.8" height="66.8"/>
	<rect x="1748.3" y="545.3" class="st14" width="66.8" height="66.8"/>
	<rect x="1748.3" y="612.2" class="st14" width="66.8" height="66.8"/>
	<rect x="1748.3" y="679" class="st14" width="66.8" height="66.8"/>
	<rect x="1681.5" y="745.8" class="st14" width="66.8" height="66.8"/>
	<rect x="1547.8" y="77.5" class="st11" width="66.8" height="66.8"/>
	<rect x="1481" y="77.5" class="st11" width="66.8" height="66.8"/>
	<rect x="1414.2" y="77.5" class="st11" width="66.8" height="66.8"/>
	<rect x="1347.3" y="77.5" class="st11" width="66.8" height="66.8"/>
	<rect x="1280.5" y="144.4" class="st11" width="66.8" height="66.8"/>
	<rect x="1213.7" y="144.4" class="st11" width="66.8" height="66.8"/>
	<rect x="1213.7" y="211.2" class="st11" width="66.8" height="66.8"/>
	<rect x="1213.7" y="278" class="st11" width="66.8" height="66.8"/>
	<rect x="1213.7" y="344.9" class="st11" width="66.8" height="66.8"/>
	<rect x="1347.3" y="411.7" class="st11" width="66.8" height="66.8"/>
	<rect x="1414.2" y="411.7" class="st11" width="66.8" height="66.8"/>
	<rect x="1481" y="411.7" class="st11" width="66.8" height="66.8"/>
	<rect x="1614.6" y="478.5" class="st11" width="66.8" height="66.8"/>
	<rect x="1614.6" y="545.3" class="st11" width="66.8" height="66.8"/>
	<rect x="1681.5" y="545.3" class="st11" width="66.8" height="66.8"/>
	<rect x="1681.5" y="612.2" class="st11" width="66.8" height="66.8"/>
	<rect x="1681.5" y="679" class="st11" width="66.8" height="66.8"/>
	<rect x="1614.6" y="679" class="st11" width="66.8" height="66.8"/>
	<rect x="1614.6" y="745.8" class="st11" width="66.8" height="66.8"/>
	<rect x="1547.8" y="745.8" class="st11" width="66.8" height="66.8"/>
	<rect x="1481" y="745.8" class="st11" width="66.8" height="66.8"/>
	<rect x="1414.2" y="745.8" class="st11" width="66.8" height="66.8"/>
	<rect x="1347.3" y="745.8" class="st11" width="66.8" height="66.8"/>
	<rect x="1280.5" y="612.2" class="st11" width="66.8" height="66.8"/>
	<rect x="1280.5" y="679" class="st11" width="66.8" height="66.8"/>
	<rect x="1213.7" y="612.2" class="st11" width="66.8" height="66.8"/>
	<rect x="1213.7" y="679" class="st11" width="66.8" height="66.8"/>
	<rect x="144.4" y="77.5" class="st11" width="66.8" height="66.8"/>
	<rect x="144.4" y="144.4" class="st11" width="66.8" height="66.8"/>
	<rect x="144.4" y="211.2" class="st11" width="66.8" height="66.8"/>
	<rect x="144.4" y="278" class="st11" width="66.8" height="66.8"/>
	<rect x="144.4" y="344.9" class="st11" width="66.8" height="66.8"/>
	<rect x="144.4" y="411.7" class="st11" width="66.8" height="66.8"/>
	<rect x="144.4" y="478.5" class="st11" width="66.8" height="66.8"/>
	<rect x="144.4" y="545.3" class="st11" width="66.8" height="66.8"/>
	<rect x="144.4" y="612.2" class="st11" width="66.8" height="66.8"/>
	<rect x="144.4" y="679" class="st11" width="66.8" height="66.8"/>
	<rect x="144.4" y="745.8" class="st11" width="66.8" height="66.8"/>
	<rect x="211.2" y="77.5" class="st11" width="66.8" height="66.8"/>
	<rect x="211.2" y="144.4" class="st11" width="66.8" height="66.8"/>
	<rect x="211.2" y="211.2" class="st11" width="66.8" height="66.8"/>
	<rect x="812.7" y="77.5" class="st11" width="66.8" height="66.8"/>
	<rect x="545.3" y="679" class="st11" width="66.8" height="66.8"/>
	<rect x="545.3" y="745.8" class="st11" width="66.8" height="66.8"/>
	<rect x="612.2" y="545.3" class="st11" width="66.8" height="66.8"/>
	<rect x="612.2" y="612.2" class="st11" width="66.8" height="66.8"/>
	<rect x="612.2" y="679" class="st11" width="66.8" height="66.8"/>
	<rect x="545.3" y="679" class="st11" width="66.8" height="66.8"/>
	<rect x="679" y="411.7" class="st11" width="66.8" height="66.8"/>
	<rect x="679" y="478.5" class="st11" width="66.8" height="66.8"/>
	<rect x="612.2" y="478.5" class="st11" width="66.8" height="66.8"/>
	<rect x="679" y="545.3" class="st11" width="66.8" height="66.8"/>
	<rect x="745.8" y="278" class="st11" width="66.8" height="66.8"/>
	<rect x="745.8" y="211.2" class="st11" width="66.8" height="66.8"/>
	<rect x="745.8" y="344.9" class="st11" width="66.8" height="66.8"/>
	<rect x="679" y="344.9" class="st11" width="66.8" height="66.8"/>
	<rect x="745.8" y="411.7" class="st11" width="66.8" height="66.8"/>
	<rect x="679" y="411.7" class="st11" width="66.8" height="66.8"/>
	<rect x="812.7" y="211.2" class="st11" width="66.8" height="66.8"/>
	<rect x="812.7" y="278" class="st11" width="66.8" height="66.8"/>
	<rect x="879.5" y="144.4" class="st11" width="66.8" height="66.8"/>
	<rect x="812.7" y="144.4" class="st11" width="66.8" height="66.8"/>
	<rect x="278" y="211.2" class="st11" width="66.8" height="66.8"/>
	<rect x="278" y="278" class="st11" width="66.8" height="66.8"/>
	<rect x="278" y="144.4" class="st11" width="66.8" height="66.8"/>
	<rect x="344.8" y="344.9" class="st11" width="66.8" height="66.8"/>
	<rect x="344.8" y="411.7" class="st11" width="66.8" height="66.8"/>
	<rect x="344.8" y="278" class="st11" width="66.8" height="66.8"/>
	<rect x="411.7" y="478.5" class="st11" width="66.8" height="66.8"/>
	<rect x="411.7" y="545.3" class="st11" width="66.8" height="66.8"/>
	<rect x="411.7" y="411.7" class="st11" width="66.8" height="66.8"/>
	<rect x="478.5" y="612.2" class="st11" width="66.8" height="66.8"/>
	<rect x="478.5" y="679" class="st11" width="66.8" height="66.8"/>
	<rect x="478.5" y="545.3" class="st11" width="66.8" height="66.8"/>
	<rect x="879.5" y="211.2" class="st11" width="66.8" height="66.8"/>
	<rect x="879.5" y="278" class="st11" width="66.8" height="66.8"/>
	<rect x="879.5" y="344.9" class="st11" width="66.8" height="66.8"/>
	<rect x="879.5" y="411.7" class="st11" width="66.8" height="66.8"/>
	<rect x="879.5" y="478.5" class="st11" width="66.8" height="66.8"/>
	<rect x="879.5" y="545.3" class="st11" width="66.8" height="66.8"/>
	<rect x="879.5" y="612.2" class="st11" width="66.8" height="66.8"/>
	<rect x="879.5" y="679" class="st11" width="66.8" height="66.8"/>
	<rect x="879.5" y="77.5" class="st11" width="66.8" height="66.8"/>
	<rect x="946.3" y="77.5" class="st14" width="66.8" height="66.8"/>
	<rect x="946.3" y="144.4" class="st14" width="66.8" height="66.8"/>
	<rect x="946.3" y="211.2" class="st14" width="66.8" height="66.8"/>
	<rect x="946.3" y="278" class="st14" width="66.8" height="66.8"/>
	<rect x="946.3" y="344.9" class="st14" width="66.8" height="66.8"/>
	<rect x="946.3" y="411.7" class="st14" width="66.8" height="66.8"/>
	<rect x="946.3" y="478.5" class="st14" width="66.8" height="66.8"/>
	<rect x="946.3" y="545.3" class="st14" width="66.8" height="66.8"/>
	<rect x="946.3" y="612.2" class="st14" width="66.8" height="66.8"/>
	<rect x="946.3" y="679" class="st14" width="66.8" height="66.8"/>
	<rect x="278" y="77.5" class="st14" width="66.8" height="66.8"/>
	<rect x="344.8" y="211.2" class="st14" width="66.8" height="66.8"/>
	<rect x="278" y="344.9" class="st14" width="66.8" height="66.8"/>
	<rect x="211.2" y="278" class="st14" width="66.8" height="66.8"/>
	<rect x="211.2" y="344.9" class="st14" width="66.8" height="66.8"/>
	<rect x="211.2" y="411.7" class="st14" width="66.8" height="66.8"/>
	<rect x="211.2" y="478.5" class="st14" width="66.8" height="66.8"/>
	<rect x="211.2" y="545.3" class="st14" width="66.8" height="66.8"/>
	<rect x="211.2" y="612.2" class="st14" width="66.8" height="66.8"/>
	<rect x="211.2" y="679" class="st14" width="66.8" height="66.8"/>
	<rect x="211.2" y="745.8" class="st14" width="66.8" height="66.8"/>
	<rect x="411.7" y="344.9" class="st14" width="66.8" height="66.8"/>
	<rect x="478.5" y="478.5" class="st14" width="66.8" height="66.8"/>
	
		<rect x="812.7" y="344.9" transform="matrix(-1 -4.594337e-11 4.594337e-11 -1 1692.1659 756.539)" class="st14" width="66.8" height="66.8"/>
	<rect x="545.3" y="1146.8" class="st11" width="66.8" height="66.8"/>
	<rect x="545.3" y="1213.7" class="st14" width="66.8" height="66.8"/>
	<rect x="545.3" y="1280.5" class="st11" width="66.8" height="66.8"/>
	<rect x="545.3" y="1347.3" class="st14" width="66.8" height="66.8"/>
	<rect x="545.3" y="1414.2" class="st11" width="66.8" height="66.8"/>
	<rect x="545.3" y="1481" class="st14" width="66.8" height="66.8"/>
	<rect x="612.2" y="1547.8" class="st14" width="66.8" height="66.8"/>
	<rect x="679" y="1481" class="st14" width="66.8" height="66.8"/>
	<rect x="946.3" y="1748.3" class="st14" width="66.8" height="66.8"/>
	<rect x="545.3" y="1547.8" class="st11" width="66.8" height="66.8"/>
	<rect x="612.2" y="1614.7" class="st11" width="66.8" height="66.8"/>
	<rect x="1013.2" y="1748.3" class="st11" width="66.8" height="66.8"/>
	<rect x="879.5" y="1815.1" class="st14" width="66.8" height="66.8"/>
	<rect x="1013.2" y="1815.1" class="st14" width="66.8" height="66.8"/>
	<rect x="946.3" y="1815.1" class="st11" width="66.8" height="66.8"/>
	<rect x="812.7" y="1882" class="st14" width="66.8" height="66.8"/>
	<rect x="946.3" y="1882" class="st14" width="66.8" height="66.8"/>
	<rect x="1080" y="1882" class="st14" width="66.8" height="66.8"/>
	<rect x="879.5" y="1882" class="st11" width="66.8" height="66.8"/>
	<rect x="1013.2" y="1882" class="st11" width="66.8" height="66.8"/>
	<rect x="879.5" y="1948.8" class="st14" width="66.8" height="66.8"/>
	<rect x="1013.2" y="1948.8" class="st14" width="66.8" height="66.8"/>
	<rect x="1146.8" y="1948.8" class="st14" width="66.8" height="66.8"/>
	<rect x="946.3" y="1948.8" class="st15" width="66.8" height="66.8"/>
	<rect x="812.7" y="1948.8" class="st15" width="66.8" height="66.8"/>
	<rect x="1080" y="1948.8" class="st15" width="66.8" height="66.8"/>
	<rect x="946.3" y="2015.6" class="st14" width="66.8" height="66.8"/>
	<rect x="1080" y="2015.6" class="st14" width="66.8" height="66.8"/>
	<rect x="1213.7" y="2015.6" class="st14" width="66.8" height="66.8"/>
	<rect x="1013.2" y="2015.6" class="st15" width="66.8" height="66.8"/>
	<rect x="812.7" y="2015.6" class="st14" width="66.8" height="66.8"/>
	<rect x="879.5" y="2015.6" class="st15" width="66.8" height="66.8"/>
	<rect x="1146.8" y="2015.6" class="st15" width="66.8" height="66.8"/>
	<rect x="612.2" y="1080" class="st11" width="66.8" height="66.8"/>
	<rect x="612.2" y="1146.8" class="st14" width="66.8" height="66.8"/>
	<rect x="612.2" y="1013.2" class="st14" width="66.8" height="66.8"/>
	<rect x="679" y="946.3" class="st14" width="66.8" height="66.8"/>
	<rect x="745.8" y="879.5" class="st14" width="66.8" height="66.8"/>
	<rect x="612.2" y="1213.7" class="st11" width="66.8" height="66.8"/>
	<rect x="612.2" y="1280.5" class="st14" width="66.8" height="66.8"/>
	<rect x="612.2" y="1347.3" class="st11" width="66.8" height="66.8"/>
	<rect x="612.2" y="1414.2" class="st14" width="66.8" height="66.8"/>
	<rect x="612.2" y="1481" class="st11" width="66.8" height="66.8"/>
	<rect x="679" y="1013.2" class="st11" width="66.8" height="66.8"/>
	<rect x="679" y="1080" class="st14" width="66.8" height="66.8"/>
	<rect x="679" y="1146.8" class="st15" width="66.8" height="66.8"/>
	<rect x="679" y="1213.7" class="st14" width="66.8" height="66.8"/>
	<rect x="679" y="1280.5" class="st15" width="66.8" height="66.8"/>
	<rect x="679" y="1347.3" class="st14" width="66.8" height="66.8"/>
	<rect x="679" y="1414.2" class="st15" width="66.8" height="66.8"/>
	<rect x="745.8" y="946.3" class="st11" width="66.8" height="66.8"/>
	<rect x="745.8" y="1013.2" class="st14" width="66.8" height="66.8"/>
	<rect x="745.8" y="1080" class="st15" width="66.8" height="66.8"/>
	<rect x="812.7" y="879.5" class="st11" width="66.8" height="66.8"/>
	<rect x="812.7" y="946.3" class="st14" width="66.8" height="66.8"/>
	<rect x="812.7" y="1013.2" class="st11" width="66.8" height="66.8"/>
	<rect x="946.3" y="879.5" class="st11" width="66.8" height="66.8"/>
	<rect x="946.3" y="946.3" class="st14" width="66.8" height="66.8"/>
	<rect x="946.3" y="1013.2" class="st11" width="66.8" height="66.8"/>
	<rect x="879.5" y="879.5" class="st14" width="66.8" height="66.8"/>
	<rect x="1347.3" y="1146.8" class="st14" width="66.8" height="66.8"/>
	<rect x="1414.2" y="1146.8" class="st11" width="66.8" height="66.8"/>
	<rect x="1481" y="1146.8" class="st14" width="66.8" height="66.8"/>
	<rect x="1347.3" y="1213.7" class="st15" width="66.8" height="66.8"/>
	<rect x="1414.2" y="1213.7" class="st14" width="66.8" height="66.8"/>
	<rect x="1481" y="1213.7" class="st11" width="66.8" height="66.8"/>
	<rect x="1347.3" y="1280.5" class="st14" width="66.8" height="66.8"/>
	<rect x="1414.2" y="1280.5" class="st11" width="66.8" height="66.8"/>
	<rect x="1481" y="1280.5" class="st14" width="66.8" height="66.8"/>
	<rect x="1347.3" y="1347.3" class="st15" width="66.8" height="66.8"/>
	<rect x="1414.2" y="1347.3" class="st14" width="66.8" height="66.8"/>
	<rect x="1481" y="1347.3" class="st11" width="66.8" height="66.8"/>
	<rect x="1347.3" y="1414.2" class="st14" width="66.8" height="66.8"/>
	<rect x="1414.2" y="1414.2" class="st11" width="66.8" height="66.8"/>
	<rect x="1481" y="1414.2" class="st14" width="66.8" height="66.8"/>
	<rect x="1347.3" y="1547.8" class="st14" width="66.8" height="66.8"/>
	<rect x="1414.2" y="1547.8" class="st11" width="66.8" height="66.8"/>
	<rect x="1481" y="1547.8" class="st14" width="66.8" height="66.8"/>
	<rect x="1414.2" y="1614.7" class="st14" width="66.8" height="66.8"/>
	<rect x="1347.3" y="1481" class="st15" width="66.8" height="66.8"/>
	<rect x="1414.2" y="1481" class="st14" width="66.8" height="66.8"/>
	<rect x="1481" y="1481" class="st11" width="66.8" height="66.8"/>
	<rect x="879.5" y="946.3" class="st11" width="66.8" height="66.8"/>
	<rect x="879.5" y="1013.2" class="st14" width="66.8" height="66.8"/>
	<rect x="1013.2" y="879.5" class="st14" width="66.8" height="66.8"/>
	<rect x="1013.2" y="946.3" class="st11" width="66.8" height="66.8"/>
	<rect x="1080" y="879.5" class="st11" width="66.8" height="66.8"/>
	<rect x="1013.2" y="1013.2" class="st14" width="66.8" height="66.8"/>
	<rect x="1080" y="946.3" class="st14" width="66.8" height="66.8"/>
	<rect x="1146.8" y="879.5" class="st14" width="66.8" height="66.8"/>
	<rect x="1013.2" y="1080" class="st15" width="66.8" height="66.8"/>
	<rect x="1013.2" y="1146.8" class="st14" width="66.8" height="66.8"/>
	<rect x="812.7" y="1146.8" class="st11" width="66.8" height="66.8"/>
	<rect x="812.7" y="1213.7" class="st11" width="66.8" height="66.8"/>
	<rect x="812.7" y="1280.5" class="st11" width="66.8" height="66.8"/>
	<rect x="879.5" y="1146.8" class="st11" width="66.8" height="66.8"/>
	<rect x="879.5" y="1213.7" class="st11" width="66.8" height="66.8"/>
	<rect x="879.5" y="1280.5" class="st11" width="66.8" height="66.8"/>
	<rect x="812.7" y="1347.3" class="st11" width="66.8" height="66.8"/>
	<rect x="812.7" y="1414.2" class="st11" width="66.8" height="66.8"/>
	<rect x="812.7" y="1481" class="st11" width="66.8" height="66.8"/>
	<rect x="879.5" y="1347.3" class="st11" width="66.8" height="66.8"/>
	<rect x="879.5" y="1414.2" class="st11" width="66.8" height="66.8"/>
	<rect x="879.5" y="1481" class="st11" width="66.8" height="66.8"/>
	<rect x="812.7" y="1547.8" class="st11" width="66.8" height="66.8"/>
	<rect x="812.7" y="1614.7" class="st11" width="66.8" height="66.8"/>
	<rect x="812.7" y="1681.5" class="st11" width="66.8" height="66.8"/>
	<rect x="879.5" y="1547.8" class="st11" width="66.8" height="66.8"/>
	<rect x="879.5" y="1614.7" class="st11" width="66.8" height="66.8"/>
	<rect x="745.8" y="1614.7" class="st11" width="66.8" height="66.8"/>
	<rect x="745.8" y="1681.5" class="st11" width="66.8" height="66.8"/>
	<rect x="745.8" y="1748.3" class="st11" width="66.8" height="66.8"/>
	<rect x="77.5" y="1748.3" class="st11" width="66.8" height="66.8"/>
	<rect x="77.5" y="1815.1" class="st11" width="66.8" height="66.8"/>
	<rect x="77.5" y="1882" class="st11" width="66.8" height="66.8"/>
	<rect x="77.5" y="1948.8" class="st14" width="66.8" height="66.8"/>
	<rect x="77.5" y="2015.6" class="st14" width="66.8" height="66.8"/>
	<rect x="144.4" y="1748.3" class="st11" width="66.8" height="66.8"/>
	<rect x="144.4" y="1815.1" class="st11" width="66.8" height="66.8"/>
	<rect x="144.4" y="1882" class="st11" width="66.8" height="66.8"/>
	<rect x="144.4" y="1948.8" class="st14" width="66.8" height="66.8"/>
	<rect x="144.4" y="2015.6" class="st14" width="66.8" height="66.8"/>
	<rect x="211.2" y="1748.3" class="st11" width="66.8" height="66.8"/>
	<rect x="211.2" y="1815.1" class="st11" width="66.8" height="66.8"/>
	<rect x="211.2" y="1882" class="st11" width="66.8" height="66.8"/>
	<rect x="278" y="1815.1" class="st14" width="66.8" height="66.8"/>
	<rect x="278" y="1882" class="st14" width="66.8" height="66.8"/>
	<rect x="344.8" y="1815.1" class="st14" width="66.8" height="66.8"/>
	<rect x="344.8" y="1882" class="st14" width="66.8" height="66.8"/>
	<rect x="411.7" y="1815.1" class="st14" width="66.8" height="66.8"/>
	<rect x="411.7" y="1882" class="st14" width="66.8" height="66.8"/>
	<rect x="278" y="1815.1" class="st11" width="66.8" height="66.8"/>
	<rect x="278" y="1882" class="st11" width="66.8" height="66.8"/>
	<rect x="344.8" y="1815.1" class="st11" width="66.8" height="66.8"/>
	<rect x="344.8" y="1882" class="st11" width="66.8" height="66.8"/>
	<rect x="411.7" y="1815.1" class="st11" width="66.8" height="66.8"/>
	<rect x="411.7" y="1882" class="st11" width="66.8" height="66.8"/>
	<rect x="478.5" y="1815.1" class="st14" width="66.8" height="66.8"/>
	<rect x="478.5" y="1882" class="st14" width="66.8" height="66.8"/>
	<rect x="545.3" y="1815.1" class="st14" width="66.8" height="66.8"/>
	<rect x="545.3" y="1882" class="st14" width="66.8" height="66.8"/>
	<rect x="478.5" y="1815.1" class="st11" width="66.8" height="66.8"/>
	<rect x="478.5" y="1882" class="st11" width="66.8" height="66.8"/>
	<rect x="545.3" y="1815.1" class="st11" width="66.8" height="66.8"/>
	<rect x="545.3" y="1882" class="st11" width="66.8" height="66.8"/>
	<rect x="612.2" y="1748.3" class="st11" width="66.8" height="66.8"/>
	<rect x="612.2" y="1815.1" class="st11" width="66.8" height="66.8"/>
	<rect x="679" y="1748.3" class="st11" width="66.8" height="66.8"/>
	<rect x="679" y="1681.5" class="st11" width="66.8" height="66.8"/>
	<rect x="679" y="1815.1" class="st11" width="66.8" height="66.8"/>
	<rect x="211.2" y="1948.8" class="st14" width="66.8" height="66.8"/>
	<rect x="612.2" y="879.5" class="st14" width="66.8" height="66.8"/>
	<rect x="545.3" y="946.3" class="st14" width="66.8" height="66.8"/>
	<rect x="478.5" y="1080" class="st14" width="66.8" height="66.8"/>
	<rect x="411.7" y="1080" class="st14" width="66.8" height="66.8"/>
	<rect x="344.8" y="1080" class="st14" width="66.8" height="66.8"/>
	<rect x="344.8" y="1146.8" class="st14" width="66.8" height="66.8"/>
	<rect x="411.7" y="1146.8" class="st14" width="66.8" height="66.8"/>
	<rect x="278" y="1146.8" class="st14" width="66.8" height="66.8"/>
	<rect x="278" y="1080" class="st14" width="66.8" height="66.8"/>
	<rect x="211.2" y="2015.6" class="st14" width="66.8" height="66.8"/>
	<rect x="278" y="1948.8" class="st14" width="66.8" height="66.8"/>
	<rect x="278" y="2015.6" class="st14" width="66.8" height="66.8"/>
	<rect x="344.8" y="1948.8" class="st14" width="66.8" height="66.8"/>
	<rect x="344.8" y="2015.6" class="st14" width="66.8" height="66.8"/>
	<rect x="411.7" y="1948.8" class="st14" width="66.8" height="66.8"/>
	<rect x="411.7" y="2015.6" class="st14" width="66.8" height="66.8"/>
	<rect x="478.5" y="1948.8" class="st14" width="66.8" height="66.8"/>
	<rect x="478.5" y="2015.6" class="st14" width="66.8" height="66.8"/>
	<rect x="545.3" y="1948.8" class="st14" width="66.8" height="66.8"/>
	<rect x="545.3" y="2015.6" class="st14" width="66.8" height="66.8"/>
	<rect x="612.2" y="1882" class="st14" width="66.8" height="66.8"/>
	<rect x="612.2" y="1948.8" class="st14" width="66.8" height="66.8"/>
	<rect x="679" y="1882" class="st14" width="66.8" height="66.8"/>
	<rect x="679" y="1948.8" class="st14" width="66.8" height="66.8"/>
	<rect x="879.5" y="745.8" class="st11" width="66.8" height="66.8"/>
	<rect x="946.3" y="745.8" class="st14" width="66.8" height="66.8"/>
	<rect x="1146.8" y="1080" class="st11" width="66.8" height="66.8"/>
	<rect x="1146.8" y="1681.5" class="st14" width="66.8" height="66.8"/>
	<rect x="1681.5" y="1080" class="st14" width="66.8" height="66.8"/>
	<rect x="1146.8" y="1748.3" class="st14" width="66.8" height="66.8"/>
	<rect x="1748.3" y="1146.8" class="st14" width="66.8" height="66.8"/>
	<rect x="1882" y="1146.8" class="st14" width="66.8" height="66.8"/>
	<rect x="1882" y="1080" class="st14" width="66.8" height="66.8"/>
	<rect x="1815.1" y="1146.8" class="st14" width="66.8" height="66.8"/>
	<rect x="1146.8" y="1815.1" class="st14" width="66.8" height="66.8"/>
	<rect x="1213.7" y="1815.1" class="st14" width="66.8" height="66.8"/>
	<rect x="1213.7" y="1882" class="st14" width="66.8" height="66.8"/>
	<rect x="1280.5" y="1882" class="st14" width="66.8" height="66.8"/>
	<rect x="1280.5" y="1948.8" class="st14" width="66.8" height="66.8"/>
	<rect x="1347.3" y="1882" class="st14" width="66.8" height="66.8"/>
	<rect x="1347.3" y="1948.8" class="st14" width="66.8" height="66.8"/>
	<rect x="1748.3" y="1882" class="st14" width="66.8" height="66.8"/>
	<rect x="1748.3" y="1948.8" class="st14" width="66.8" height="66.8"/>
	<rect x="1815.1" y="1882" class="st14" width="66.8" height="66.8"/>
	<rect x="1815.1" y="1948.8" class="st14" width="66.8" height="66.8"/>
	<rect x="1882" y="1815.1" class="st14" width="66.8" height="66.8"/>
	<rect x="1681.5" y="1547.8" class="st14" width="66.8" height="66.8"/>
	<rect x="1614.6" y="1481" class="st14" width="66.8" height="66.8"/>
	<rect x="1882" y="1882" class="st14" width="66.8" height="66.8"/>
	<rect x="1414.2" y="1948.8" class="st14" width="66.8" height="66.8"/>
	<rect x="1414.2" y="2015.6" class="st14" width="66.8" height="66.8"/>
	<rect x="1347.3" y="2015.6" class="st14" width="66.8" height="66.8"/>
	<rect x="1481" y="1948.8" class="st14" width="66.8" height="66.8"/>
	<rect x="1547.8" y="1948.8" class="st14" width="66.8" height="66.8"/>
	<rect x="1547.8" y="2015.6" class="st14" width="66.8" height="66.8"/>
	<rect x="1481" y="2015.6" class="st14" width="66.8" height="66.8"/>
	<rect x="1614.6" y="1948.8" class="st14" width="66.8" height="66.8"/>
	<rect x="1681.5" y="1948.8" class="st14" width="66.8" height="66.8"/>
	<rect x="1681.5" y="2015.6" class="st14" width="66.8" height="66.8"/>
	<rect x="1614.6" y="2015.6" class="st14" width="66.8" height="66.8"/>
	<rect x="1213.7" y="1080" class="st11" width="66.8" height="66.8"/>
	<rect x="1280.5" y="1080" class="st11" width="66.8" height="66.8"/>
	<rect x="1146.8" y="1013.2" class="st11" width="66.8" height="66.8"/>
	<rect x="1213.7" y="1013.2" class="st11" width="66.8" height="66.8"/>
	<rect x="1280.5" y="1013.2" class="st11" width="66.8" height="66.8"/>
	<rect x="1213.7" y="946.3" class="st11" width="66.8" height="66.8"/>
	<rect x="1280.5" y="946.3" class="st11" width="66.8" height="66.8"/>
	<rect x="1347.3" y="946.3" class="st11" width="66.8" height="66.8"/>
	<rect x="1280.5" y="879.5" class="st11" width="66.8" height="66.8"/>
	<rect x="1347.3" y="879.5" class="st11" width="66.8" height="66.8"/>
	<rect x="1414.2" y="879.5" class="st11" width="66.8" height="66.8"/>
	<rect x="1481" y="879.5" class="st11" width="66.8" height="66.8"/>
	<rect x="1547.8" y="879.5" class="st11" width="66.8" height="66.8"/>
	<rect x="1614.6" y="879.5" class="st11" width="66.8" height="66.8"/>
	<rect x="1681.5" y="879.5" class="st11" width="66.8" height="66.8"/>
	<rect x="1414.2" y="946.3" class="st11" width="66.8" height="66.8"/>
	<rect x="1481" y="946.3" class="st11" width="66.8" height="66.8"/>
	<rect x="1547.8" y="946.3" class="st11" width="66.8" height="66.8"/>
	<rect x="1614.6" y="946.3" class="st11" width="66.8" height="66.8"/>
	<rect x="1681.5" y="946.3" class="st11" width="66.8" height="66.8"/>
	<rect x="1414.2" y="1013.2" class="st11" width="66.8" height="66.8"/>
	<rect x="1347.3" y="1013.2" class="st11" width="66.8" height="66.8"/>
	<rect x="1481" y="1013.2" class="st11" width="66.8" height="66.8"/>
	<rect x="1547.8" y="1013.2" class="st11" width="66.8" height="66.8"/>
	<rect x="1614.6" y="1013.2" class="st11" width="66.8" height="66.8"/>
	<rect x="1681.5" y="1013.2" class="st11" width="66.8" height="66.8"/>
	<rect x="1748.3" y="946.3" class="st11" width="66.8" height="66.8"/>
	<rect x="1748.3" y="1013.2" class="st11" width="66.8" height="66.8"/>
	<rect x="1815.1" y="946.3" class="st11" width="66.8" height="66.8"/>
	<rect x="1815.1" y="1013.2" class="st11" width="66.8" height="66.8"/>
	<rect x="1882" y="1013.2" class="st11" width="66.8" height="66.8"/>
	<rect x="1815.1" y="1080" class="st11" width="66.8" height="66.8"/>
	<rect x="1748.3" y="1080" class="st11" width="66.8" height="66.8"/>
	<rect x="1146.8" y="1146.8" class="st11" width="66.8" height="66.8"/>
	<rect x="1213.7" y="1146.8" class="st11" width="66.8" height="66.8"/>
	<rect x="1146.8" y="1213.7" class="st11" width="66.8" height="66.8"/>
	<rect x="1213.7" y="1213.7" class="st11" width="66.8" height="66.8"/>
	<rect x="1146.8" y="1280.5" class="st14" width="66.8" height="66.8"/>
	<rect x="1213.7" y="1280.5" class="st11" width="66.8" height="66.8"/>
	<rect x="1213.7" y="1347.3" class="st14" width="66.8" height="66.8"/>
	<rect x="1213.7" y="1614.7" class="st11" width="66.8" height="66.8"/>
	<rect x="1146.8" y="1614.7" class="st11" width="66.8" height="66.8"/>
	<rect x="1213.7" y="1681.5" class="st11" width="66.8" height="66.8"/>
	<rect x="1280.5" y="1614.7" class="st11" width="66.8" height="66.8"/>
	<rect x="1280.5" y="1681.5" class="st11" width="66.8" height="66.8"/>
	<rect x="1347.3" y="1681.5" class="st11" width="66.8" height="66.8"/>
	<rect x="1213.7" y="1748.3" class="st11" width="66.8" height="66.8"/>
	<rect x="1280.5" y="1748.3" class="st11" width="66.8" height="66.8"/>
	<rect x="1347.3" y="1748.3" class="st11" width="66.8" height="66.8"/>
	<rect x="1347.3" y="1815.1" class="st11" width="66.8" height="66.8"/>
	<rect x="1414.2" y="1748.3" class="st11" width="66.8" height="66.8"/>
	<rect x="1414.2" y="1815.1" class="st11" width="66.8" height="66.8"/>
	<rect x="1414.2" y="1882" class="st11" width="66.8" height="66.8"/>
	<rect x="1481" y="1815.1" class="st11" width="66.8" height="66.8"/>
	<rect x="1481" y="1748.3" class="st11" width="66.8" height="66.8"/>
	<rect x="1481" y="1882" class="st11" width="66.8" height="66.8"/>
	<rect x="1547.8" y="1882" class="st11" width="66.8" height="66.8"/>
	<rect x="1547.8" y="1748.3" class="st11" width="66.8" height="66.8"/>
	<rect x="1547.8" y="1815.1" class="st11" width="66.8" height="66.8"/>
	<rect x="1614.6" y="1414.2" class="st11" width="66.8" height="66.8"/>
	<rect x="1614.6" y="1347.3" class="st11" width="66.8" height="66.8"/>
	<rect x="1681.5" y="1347.3" class="st11" width="66.8" height="66.8"/>
	<rect x="1681.5" y="1414.2" class="st11" width="66.8" height="66.8"/>
	<rect x="1748.3" y="1481" class="st11" width="66.8" height="66.8"/>
	<rect x="1748.3" y="1414.2" class="st11" width="66.8" height="66.8"/>
	<rect x="1815.1" y="1414.2" class="st11" width="66.8" height="66.8"/>
	<rect x="1815.1" y="1481" class="st11" width="66.8" height="66.8"/>
	<rect x="1748.3" y="1614.7" class="st11" width="66.8" height="66.8"/>
	<rect x="1748.3" y="1547.8" class="st11" width="66.8" height="66.8"/>
	<rect x="1815.1" y="1547.8" class="st11" width="66.8" height="66.8"/>
	<rect x="1815.1" y="1614.7" class="st11" width="66.8" height="66.8"/>
	<rect x="1882" y="1481" class="st11" width="66.8" height="66.8"/>
	<rect x="1882" y="1547.8" class="st11" width="66.8" height="66.8"/>
	<rect x="1882" y="1614.7" class="st11" width="66.8" height="66.8"/>
	<rect x="1681.5" y="1681.5" class="st11" width="66.8" height="66.8"/>
	<rect x="1748.3" y="1681.5" class="st11" width="66.8" height="66.8"/>
	<rect x="1815.1" y="1681.5" class="st11" width="66.8" height="66.8"/>
	<rect x="1882" y="1681.5" class="st11" width="66.8" height="66.8"/>
	<rect x="1815.1" y="1748.3" class="st11" width="66.8" height="66.8"/>
	<rect x="1882" y="1748.3" class="st11" width="66.8" height="66.8"/>
	<rect x="1614.6" y="1748.3" class="st11" width="66.8" height="66.8"/>
	<rect x="1681.5" y="1748.3" class="st11" width="66.8" height="66.8"/>
	<rect x="1748.3" y="1748.3" class="st11" width="66.8" height="66.8"/>
	<rect x="1815.1" y="1815.1" class="st11" width="66.8" height="66.8"/>
	<rect x="1614.6" y="1815.1" class="st11" width="66.8" height="66.8"/>
	<rect x="1681.5" y="1815.1" class="st11" width="66.8" height="66.8"/>
	<rect x="1614.6" y="1882" class="st11" width="66.8" height="66.8"/>
	<rect x="1681.5" y="1882" class="st11" width="66.8" height="66.8"/>
	<rect x="1748.3" y="1815.1" class="st11" width="66.8" height="66.8"/>
	<rect x="1681.5" y="1481" class="st11" width="66.8" height="66.8"/>
	<rect x="1280.5" y="1815.1" class="st11" width="66.8" height="66.8"/>
	<rect x="545.3" y="612.2" class="st14" width="66.8" height="66.8"/>
	<rect x="1280.5" y="745.8" class="st11" width="66.8" height="66.8"/>
	<rect x="1547.8" y="478.5" class="st11" width="66.8" height="66.8"/>
	<rect x="1681.5" y="211.2" class="st11" width="66.8" height="66.8"/>
	<rect x="1748.3" y="211.2" class="st14" width="66.8" height="66.8"/>
</g>
</svg>
