<?xml version="1.0" encoding="utf-8"?>
<!-- Generator: Adobe Illustrator 26.3.1, SVG Export Plug-In . SVG Version: 6.00 Build 0)  -->
<svg version="1.1" id="Layer_1" xmlns="http://www.w3.org/2000/svg" xmlns:xlink="http://www.w3.org/1999/xlink" x="0px" y="0px"
	 viewBox="0 0 3839 603.7" style="enable-background:new 0 0 3839 603.7;" xml:space="preserve">
<style type="text/css">
	.st0{display:none;}
	.st1{display:inline;}
	.st2{fill:#FFFFFF;}
	.st3{fill:#C30207;}
</style>
<g class="st0">
	<g class="st1">
		<g>
			<path class="st2" d="M924.4,593.1L924.4,593.1l-2.6-0.1h-22.3h-44.3h-2.9v215.5h47.3V635.3h22.3c31.8,0,31.8,51,0,51h-11.9v42.3
				h11.9h2.6v-0.1C1019.4,728.5,1019.4,593.1,924.4,593.1z"/>
			<path class="st2" d="M1339.8,589.8c-40.6,0-73.6,33-73.6,73.6c0,40,31.8,72.5,71.6,73.6l-35.6,79.7h49.8l55.4-124.1
				c3.9-8.9,6-18.8,6-29.1C1413.4,622.7,1380.5,589.8,1339.8,589.8z M1339.8,691.4c-15.5,0-28.1-12.6-28.1-28.1s12.6-28.1,28.1-28.1
				c15.5,0,28.1,12.6,28.1,28.1S1355.3,691.4,1339.8,691.4z"/>
			<path class="st2" d="M1117.3,591.6c-43.1,0-77.7,18.6-97.2,52.5c-20.7,35.8-20.7,82.1,0,118c19.5,33.9,54.1,52.5,97.2,52.5h13.6
				h1.8v-1.8v-42.2v-1.8h-1.8h-13.6c-25.5,0-45.8-11-57.3-30.9c-12-20.9-12-48.9,0-69.7c11.5-19.9,31.9-30.9,57.3-30.9h13.6h1.8
				v-1.8v-42.2v-1.8h-1.8H1117.3z"/>
			<path class="st2" d="M1566.7,655.6c0-37.1-31.1-67.2-69.4-67.2c-38.3,0-69.4,30.1-69.4,67.2c0,16.8,6.4,32.1,16.9,43.8
				c-12.6,12.7-20.4,29.9-20.4,48.9c0,39,32.6,70.6,72.9,70.6c40.3,0,72.9-31.6,72.9-70.6c0-19-7.8-36.2-20.4-48.9
				C1560.4,687.7,1566.7,672.4,1566.7,655.6z M1497.3,632.8c12.6,0,22.9,10.2,22.9,22.9c0,12.6-10.2,22.9-22.9,22.9
				c-12.6,0-22.9-10.2-22.9-22.9C1474.5,643,1484.7,632.8,1497.3,632.8z M1497.3,772.6c-14.6,0-26.5-11.9-26.5-26.5
				s11.9-26.5,26.5-26.5c14.6,0,26.5,11.9,26.5,26.5S1512,772.6,1497.3,772.6z"/>
			<path class="st2" d="M1661.9,590.6c-49.3,0-79.5,36.2-79.5,114.2c0,77.9,30.2,114.2,79.5,114.2c49.3,0,79.5-36.2,79.5-114.2
				S1711.2,590.6,1661.9,590.6z M1693.9,704.9L1693.9,704.9c0,49-10.3,70.8-32,70.8c-21.6,0-31.9-21.8-32-70.9l0,0c0,0,0-0.1,0-0.1
				s0-0.1,0-0.1l0,0c0-49,10.3-70.9,32-70.9c21.6,0,31.9,21.8,32,70.9l0,0c0,0,0,0.1,0,0.1S1693.9,704.8,1693.9,704.9z"/>
			<path class="st2" d="M1833.3,590.6c-49.3,0-79.5,36.2-79.5,114.2c0,77.9,30.2,114.2,79.5,114.2c49.3,0,79.5-36.2,79.5-114.2
				S1882.7,590.6,1833.3,590.6z M1865.3,704.9L1865.3,704.9c0,49-10.3,70.8-32,70.8c-21.6,0-31.9-21.8-32-70.9l0,0c0,0,0-0.1,0-0.1
				s0-0.1,0-0.1l0,0c0-49,10.3-70.9,32-70.9c21.6,0,31.9,21.8,32,70.9l0,0c0,0,0,0.1,0,0.1S1865.3,704.8,1865.3,704.9z"/>
		</g>
		<g>
			<g>
				<rect x="1936.8" y="591.7" class="st2" width="45.6" height="20.5"/>
				<path class="st2" d="M2001.9,651.2c0,8-6.5,14.5-14.5,14.5v0h-50.6v20.5h50.6c19.3,0,35-15.7,35-35v-54.8h-20.5V651.2z"/>
				<path class="st2" d="M2283.2,591.7c-4.3,0-7.9,3.5-7.9,7.9c0,4.3,3.5,7.9,7.9,7.9c4.3,0,7.9-3.5,7.9-7.9
					C2291.1,595.2,2287.5,591.7,2283.2,591.7z"/>
				<path class="st2" d="M2304.4,591.7c-4.3,0-7.9,3.5-7.9,7.9c0,4.3,3.5,7.9,7.9,7.9c4.3,0,7.9-3.5,7.9-7.9
					C2312.3,595.2,2308.7,591.7,2304.4,591.7z"/>
				<path class="st2" d="M2263.5,630.5c14.3-14.3,4.2-38.8-16-38.8H2188v18.1h57.4c4.9,0,7.3,5.9,3.9,9.3l-45.9,45.8
					c-1.5,1.5-3.5,2.3-5.6,2.3h-12.8v16v2.9h14.9c5.1,0,10-2,13.6-5.6l13.3-13.3l10.9-10.8c7.7,7,18.1,25.4,18.1,29.7h18.5
					c0-12.1-16.1-34.8-23.9-42.5L2263.5,630.5z"/>
			</g>
			<g>
				<rect x="2033.1" y="591.7" class="st2" width="20.5" height="45.6"/>
				<path class="st2" d="M2084,651.2c0,8-6.5,14.5-14.5,14.5l-36.4,0v20.5h36.4c19.3,0,35-15.7,35-35v-59.5H2084V651.2z"/>
			</g>
		</g>
	</g>
</g>
<g>
	<g>
		<polygon class="st2" points="3139.1,353.8 3196.9,321.1 3126.3,279.7 3089.8,453.9 2936,282.2 2864.1,363.4 2886.1,365.5 
			2901.7,382.9 2855.3,603.7 2940.4,560.7 2900.5,524.1 2924.7,408.6 3089.1,592.2 		"/>
		<path class="st2" d="M3453,289.5h-210.7h-2h-39.2c-2.2,0-2.7,3.1-0.7,3.8c19.9,7.1,35.3,17.9,33.3,27.4l-19.1,91.1
			c-2.3,11.2-21.3,16-38.7,18c-2.8,0.3-2.8,4.4-0.1,4.8c22.4,3.6,30.5,8.2,31.6,11.1l-21,100.1c-3.4,16-26.4,19.8-46.3,27
			c-2.1,0.7-1.5,3.8,0.7,3.8h39.2h23.5h71.3h96.2h43.3h0.9l19.3-91.8c0.6-3.1-3.5-4.7-5.1-2.1c-15.9,25.5-51.4,75.2-87.1,75.2h-63.7
			l24.9-118.8h16.1h0.1c24.9,0,42.3,38.4,48.1,53.2c0.6,1.6,3,1.4,3.4-0.3l25.4-120.9c0.4-1.8-2-3-3.1-1.5
			c-11.6,14.9-42.5,50.9-70.9,50.9h-15.1l23.6-112.6h66.6c34.5,0,45.7,36.9,50.1,82.4c0.3,3.7,5.6,4,6.4,0.4l21.2-101.3H3453z"/>
		<path class="st2" d="M3670.4,576.5l60.3-116.3c1.8-3.3-1-4.5-3.9-2.1c-114.5,94.9-191.2,8.7-179.9-47.6
			c12.4-61.6,61-92.1,106-102.3l47,60.5l42.3-20.7l-32.3-70.5c-101.1-4.8-230,58.7-236.1,174.9
			C3470.7,510.4,3526.8,626.4,3670.4,576.5z"/>
	</g>
	<g>
		<g>
			<rect x="2855.3" y="8.5" class="st2" width="119.6" height="53.7"/>
			<rect x="2855.3" y="86.6" class="st2" width="119.6" height="53.7"/>
			<path class="st2" d="M3025.8,164.3c0,21-17,38-38,38v0h-132.5V256h132.5c50.6,0,91.7-41,91.7-91.7V20.8h-53.7V164.3z"/>
			<path class="st2" d="M3762.8,8.5c-11.4,0-20.6,9.2-20.6,20.6c0,11.4,9.2,20.6,20.6,20.6c11.4,0,20.6-9.2,20.6-20.6
				C3783.4,17.7,3774.2,8.5,3762.8,8.5z"/>
			<path class="st2" d="M3818.4,8.5c-11.4,0-20.6,9.2-20.6,20.6c0,11.4,9.2,20.6,20.6,20.6c11.4,0,20.6-9.2,20.6-20.6
				C3839,17.7,3829.8,8.5,3818.4,8.5z"/>
			<path class="st2" d="M3711.3,110.1c37.6-37.4,11-101.6-42-101.6h-155.9V56h150.3c12.8,0,19.1,15.4,10.1,24.4l-120.3,119.9
				c-3.9,3.9-9.2,6.1-14.8,6.1h-33.5v42v7.5h38.9c13.3,0,26.1-5.3,35.6-14.7l34.9-34.8l28.4-28.3c20.1,18.5,47.5,66.5,47.5,77.9
				h48.5c0-31.8-42.3-91.2-62.5-111.2L3711.3,110.1z"/>
		</g>
		<g>
			<rect x="3107.5" y="8.5" class="st2" width="53.7" height="119.5"/>
			<rect x="3318.2" y="104.4" class="st2" width="206.3" height="53.7"/>
			<path class="st2" d="M3240.8,164.4c0,21-17,37.9-37.9,37.9l-95.4,0V256h95.4c50.6,0,91.6-41,91.6-91.6V8.5h-53.7V164.4z"/>
		</g>
	</g>
	<g>
		<rect x="734.7" y="250.9" class="st2" width="293" height="99"/>
		<path class="st2" d="M189,12.2V12h-6.8h-58.3H7.7H0v564.5h123.9V122.6h58.3c83.4,0,83.4,133.6,0,133.6h-31.2v110.9h31.2h6.8V367
			C438,367,438,12.2,189,12.2z"/>
		<path class="st2" d="M694.3,8.3c-113,0-203.5,48.8-254.7,137.5c-54.2,93.9-54.2,215.2,0,309.1c51.2,88.7,141.7,137.5,254.7,137.5
			H730h4.7v-4.7V477.2v-4.7H730h-35.7c-66.8,0-120.1-28.7-150.2-80.9c-31.5-54.6-31.5-128,0-182.7c30.1-52.2,83.5-80.9,150.2-80.9
			H730h4.7v-4.7V12.9V8.3H730H694.3z"/>
		<path class="st2" d="M1885.8,176c0-97.2-81.4-176-181.8-176c-100.4,0-181.8,78.8-181.8,176c0,43.9,16.7,84,44.2,114.8
			c-33,33.2-53.4,78.3-53.4,128c0,102.1,85.5,184.9,191,184.9s191-82.8,191-184.9c0-49.7-20.4-94.8-53.4-128
			C1869.1,260,1885.8,219.9,1885.8,176z M1704,116.1c33.1,0,59.9,26.8,59.9,59.9s-26.8,59.9-59.9,59.9c-33.1,0-59.9-26.8-59.9-59.9
			S1670.9,116.1,1704,116.1z M1704,482.4c-38.3,0-69.4-31.1-69.4-69.4s31.1-69.4,69.4-69.4c38.3,0,69.4,31.1,69.4,69.4
			S1742.3,482.4,1704,482.4z"/>
		<path class="st2" d="M1455.9,176c0-97.2-81.4-176-181.8-176c-100.4,0-181.8,78.8-181.8,176c0,43.9,16.7,84,44.2,114.8
			c-33,33.2-53.4,78.3-53.4,128c0,102.1,85.5,184.9,191,184.9s191-82.8,191-184.9c0-49.7-20.4-94.8-53.4-128
			C1439.2,260,1455.9,219.9,1455.9,176z M1274.1,116.1c33.1,0,59.9,26.8,59.9,59.9s-26.8,59.9-59.9,59.9
			c-33.1,0-59.9-26.8-59.9-59.9S1241,116.1,1274.1,116.1z M1274.1,482.4c-38.3,0-69.4-31.1-69.4-69.4s31.1-69.4,69.4-69.4
			c38.3,0,69.4,31.1,69.4,69.4S1312.4,482.4,1274.1,482.4z"/>
		<path class="st2" d="M2135.1,5.6c-129.2,0-208.2,94.9-208.2,299.1c0,204.1,79,299.1,208.2,299.1c129.2,0,208.2-94.9,208.2-299.1
			S2264.3,5.6,2135.1,5.6z M2218.9,305L2218.9,305c-0.1,128.4-27.1,185.6-83.8,185.6c-56.7,0-83.7-57.2-83.8-185.6l0,0
			c0-0.1,0-0.2,0-0.3s0-0.2,0-0.3l0,0c0.1-128.4,27.1-185.6,83.8-185.6c56.7,0,83.7,57.2,83.8,185.6l0,0c0,0.1,0,0.2,0,0.3
			S2218.9,304.9,2218.9,305z"/>
		<path class="st2" d="M2584.2,5.6C2455,5.6,2376,100.5,2376,304.6c0,204.1,79,299.1,208.2,299.1s208.2-94.9,208.2-299.1
			S2713.5,5.6,2584.2,5.6z M2668,305L2668,305c-0.1,128.4-27.1,185.6-83.8,185.6c-56.7,0-83.7-57.2-83.8-185.6l0,0
			c0-0.1,0-0.2,0-0.3s0-0.2,0-0.3l0,0c0.1-128.4,27.1-185.6,83.8-185.6c56.7,0,83.7,57.2,83.8,185.6l0,0c0,0.1,0,0.2,0,0.3
			S2668,304.9,2668,305z"/>
	</g>
</g>
</svg>
