<?xml version="1.0" encoding="utf-8"?>
<!-- Generator: Adobe Illustrator 26.0.3, SVG Export Plug-In . SVG Version: 6.00 Build 0)  -->
<svg version="1.1" id="Layer_1" xmlns="http://www.w3.org/2000/svg" xmlns:xlink="http://www.w3.org/1999/xlink" x="0px" y="0px"
	 viewBox="0 0 3839 993.6" style="enable-background:new 0 0 3839 993.6;" xml:space="preserve">
<style type="text/css">
	.st0{fill:#FFFFFF;}
	.st1{fill:none;stroke:#231F20;stroke-width:2.206;stroke-miterlimit:10;}
	.st2{fill:none;stroke:#231F20;stroke-width:2.5576;stroke-miterlimit:10;}
	.st3{fill:none;stroke:#FFFFFF;stroke-width:5;stroke-miterlimit:10;}
	.st4{fill:none;stroke:#FFFFFF;stroke-width:5.7969;stroke-miterlimit:10;}
</style>
<g>
	<g>
		<path class="st0" d="M1297.7,0c-21.3-1.2-20.7,56.1,1.3,53.4C1322.9,50.3,1314.9,1,1297.7,0z"/>
		<path class="st0" d="M1175.1,36.8c-10.5,11.5,39.8,58,50.9,41.3C1238.1,59.7,1185.6,25.3,1175.1,36.8z"/>
		<path class="st0" d="M1130.9,116.1c-9.6,17.4,35.5,51.2,47.3,29.9C1191,122.8,1136.4,106.1,1130.9,116.1z"/>
		<path class="st0" d="M1428.9,10.6c-19.9-15.2-57.3,41.3-34.1,53C1420.1,76.4,1444.9,22.8,1428.9,10.6z"/>
		<path class="st0" d="M1527.2,81.8c-6.6-21.2-73,5.3-61.4,25.4C1478.4,129.1,1532.5,98.9,1527.2,81.8z"/>
		<path class="st0" d="M3033,37.9l-715,166.7l-907.1-13.5c-1.4,5.8-4.7,11.9-12.2,17.9l919,13.7l2.2,0l2.2-0.5l711-165.8
			l781.7,169.2l-268,725.1H2421.4l-809.6-54.5l-1.6-0.1l-1.6,0.2l-711.4,79L202.4,857l-180-637.1L480.8,99.8l304.8,21.7l468.4,71.7
			c-7-7.8-8.8-14.8-8.9-19.6l-457.4-70l-308.6-22L0,207.1l188.1,665.8l708.6,120.7l713.9-79.3l810.2,54.5h1138.6L3839,212.4
			L3033,37.9z"/>
		<g>
			<path class="st0" d="M3102.7,342.8c56,0,106.2,3.9,149.2,11.6c39.8,7.1,73.7,17.5,100.6,30.9c48.3,24,73.8,57.1,73.8,95.8v75.7
				c0,41.1-27.3,85.2-73.1,117.8c-39.8,28.4-112.7,62.2-234.4,62.2c-66.4,0-125.4-6.3-175.5-18.8c-43.1-10.7-79.7-26-108.8-45.4
				c-24.3-16.2-42.9-34.9-55.3-55.6c-9.9-16.5-15.4-34.1-15.4-49.4v-19.3c0-22.9,7.3-47.1,21.2-70.1c14.9-24.6,36.4-47,63.9-66.4
				c29.9-21.2,65.6-37.8,106.1-49.5C2999.7,349.4,3049.4,342.8,3102.7,342.8 M2959.8,666.6h283.4c67.7,0,122.8-55.1,122.8-122.8V491
				c0-67.7-55.1-122.8-122.8-122.8h-283.4c-67.7,0-122.8,55.1-122.8,122.8v52.8C2837,611.5,2892.1,666.6,2959.8,666.6 M3102.7,337.8
				c-225.9,0-343.8,116.2-343.8,210.5v19.3c0,58.8,74.3,174.3,359.9,174.3c216.1,0,312.5-106.7,312.5-185.1v-75.7
				C3431.3,404.7,3336.8,337.8,3102.7,337.8L3102.7,337.8z M2959.8,661.6c-65.1,0-117.8-52.7-117.8-117.8V491
				c0-65.1,52.7-117.8,117.8-117.8h283.4c65.1,0,117.8,52.7,117.8,117.8v52.8c0,65.1-52.7,117.8-117.8,117.8H2959.8L2959.8,661.6z"
				/>
		</g>
		<g>
			<path class="st0" d="M2873.3,160.2c-33.2,23.1,43.3,133,87.9,112.1C2983.8,261.8,2905.3,137.9,2873.3,160.2z"/>
			<path class="st0" d="M3248.2,159.2c-37.9-12.6-121.8,96.5-91.2,115.9C3194.4,298.7,3297.7,175.7,3248.2,159.2z"/>
			<path class="st0" d="M3511.1,262.1c-10.3-11.3-161.4,49.7-132.3,85.5C3405.4,380.3,3535.8,289,3511.1,262.1z"/>
			<path class="st0" d="M3601.6,533.8c11.2-37.7-156.9-52.9-164-13.7C3431.9,552.2,3590.8,570.3,3601.6,533.8z"/>
			<path class="st0" d="M3503.2,757.9c25.3-28.4-109-114-131.3-82.5C3353.6,701.3,3478.7,785.4,3503.2,757.9z"/>
			<path class="st0" d="M2609.6,319.9c25.2-28.7,151.7,38,136.3,83.2C2733.3,440,2582.7,350.6,2609.6,319.9z"/>
			<path class="st0" d="M2833.1,695.5c22.6,37-97.5,125.2-125.6,87C2687.6,755.3,2817,668.9,2833.1,695.5z"/>
			<path class="st0" d="M3021.1,752.5c33.4,15.8-34.7,141.9-64.8,127.5C2923.6,864.3,2989.6,737.6,3021.1,752.5z"/>
			<path class="st0" d="M3199.1,746.4c47.4-19.9,97,120.9,55.1,133.2C3216.2,890.7,3164.3,761.1,3199.1,746.4z"/>
			<path class="st0" d="M2566.6,579.5c5.5-31.1,155.1-45.8,159.5-1.8C2728.7,603.5,2561.7,607.3,2566.6,579.5z"/>
			<path class="st0" d="M3096.9,404.4c-0.7,0.9-64,23.1-54.6,39.2c5.5,9.4,14.4,4.2,21.6-1.1c27.2-19.8,41.1,7.7,23.6,17.8
				c-36.9,21.3-80.9,2.2-80.4-22.2c0.5-24.6,29.4-43.1,29.4-43.1"/>
			<path class="st0" d="M3228.8,426.6c-0.7,0.9-80.5,4.7-69,27.2c4.9,9.7,12.4,0.5,20.9-2c14.4-4.1,27.5,21.1,7.6,24.1
				c-23.5,3.5-68.4-2.9-68.4-30.2c0-24.6,29.4-43.1,29.4-43.1"/>
			<g>
				<path class="st0" d="M3142.3,578.9h-60.9c-50.5,0-107.1-30.8-109.5-32.1c-7.6-4.2-10.4-13.7-6.2-21.3
					c4.2-7.6,13.7-10.4,21.3-6.2c1,0.5,52.3,28.3,94.4,28.3h60.9c25.4,0,46.7-1.8,57-4.8c8.3-2.4,17.1,2.3,19.5,10.7
					c2.4,8.3-2.3,17.1-10.7,19.5C3191,577.8,3162.9,578.9,3142.3,578.9z"/>
			</g>
			<path class="st0" d="M3300.8,490.9c-17.1,23.8-24.9,67-45.9,85c-48.5,41.6-97,48.5-163.4,48.5c-119.2,0-166.1-29.3-200.2-77.7
				c-16.1-22.8-2.5-47.2,10.3-65.2c18.3-25.8,44.9-74.5,178.7-74.5c109.5,0,158.7,32.9,177.5,46.3c16.5,11.8,25.7,17.8,36.3,20.1
				C3302.1,475.1,3305.5,484.3,3300.8,490.9z M3080.2,315.3c-225.9,0-343.8,116.2-343.8,210.5v19.3c0,58.8,74.3,174.3,359.9,174.3
				c216.1,0,312.5-106.7,312.5-185.1v-75.7C3408.8,382.1,3314.2,315.3,3080.2,315.3z"/>
		</g>
		<g>
			<path class="st0" d="M589.7,255.1c18,0,37.5,0.6,57.9,1.9c66.2,4,121.7,14.4,165.1,30.9c36.9,14,65.3,32.6,84.3,55.1
				c27.3,32.4,30,66.7,27.4,89.8c-2,18.5-7.8,35.9-17.2,51.8c-11.2,19.1-27.7,35.8-48.8,49.8c-53.1,35.2-135.5,53-244.8,53h-0.5
				c-3.3,0-6.3,1.4-8.4,3.9c-2.1,2.5-2.9,5.7-2.3,8.9c1.8,9.9,8.3,21.6,15.2,33.9c9.5,17.1,20.2,36.4,20.7,54.3
				c0.7,23.2-5.4,41.5-18,54.5c-18.8,19.4-48.6,23.4-70.2,23.4c-7.8,0-16-0.5-24.3-1.5c-28.9-3.5-54.6-15.4-76.3-35.4
				c-18.1-16.6-33.6-38.9-46-66.2c-25.2-55.2-29.6-112-30-118.3c-2.5-37.2-17.8-64-31.3-87.5c-12.7-22.1-23.6-41.1-23.6-65.4
				c0-7.4,4.5-12.7,13.8-16.2c7.6-2.8,18.4-4.4,31.2-4.4c11.6,0,20.9,1.2,21,1.3l5.8,0.8l-0.1-5.9c0-1.3-0.1-2.7-0.1-4.1
				c-0.6-15.1-1.7-40.4,20-62.9C439.1,270.5,499.6,255.1,589.7,255.1 M493.5,500.4h5h227.8h5v-5V307.2v-5h-5H498.5h-5v5v188.2V500.4
				 M589.7,250.1c-219.3,0-205.2,90.7-204.6,117.9c0,0-9.5-1.3-21.6-1.3c-21.1,0-50,3.9-50,25.5c0,53,50.3,83.6,54.9,153.2
				c2.4,36.7,26.4,208.6,156.7,224.5c8.4,1,16.7,1.6,24.9,1.6c51,0,95-21.4,93.3-83.1c-0.9-32.4-32-67-36-89
				c-0.7-3.6,2.2-6.9,5.9-6.9c0,0,0,0,0,0c0.2,0,0.3,0,0.5,0c246.7,0,308.2-90.5,315.7-159.1c7.5-68-34.9-166.4-281.4-181.4
				C626.9,250.7,607.5,250.1,589.7,250.1L589.7,250.1z M498.5,495.4V307.2h227.8v188.2H498.5L498.5,495.4z"/>
		</g>
		<g>
			<path class="st0" d="M1363.5,492.9c35.2,0,59.3,8.2,73.7,25.1c11.2,13.1,16.8,31.9,17.1,57.6c0.3,23.3-3.7,49.3-7.6,74.3
				c-0.3,2-0.6,4.1-0.9,6.1c-3.2,20.7-0.9,37.7,1.1,52.7c2.2,16.4,4.1,30.6-0.7,46.9c-8,27.1-22.9,47.7-44.2,61.2
				c-18.2,11.5-40.9,17.6-65.7,17.6c-19.3,0-39.5-3.8-56.8-10.8c-16.6-6.7-29.7-15.7-36.8-25.6c-11.7-16.1-17.3-38.2-16.6-65.6
				c0.6-23.4,5.5-46.1,8.8-61.1l0.4-1.6c2.3-10.6,0.9-27.1-0.5-44.7c-1.5-18.2-3-37.1-0.4-48.6c6.3-27.1,19.8-47.9,40.3-61.7
				C1296.2,500.3,1326.1,492.9,1363.5,492.9 M1363.5,487.9c-78.8,0-121.1,31.6-134.1,87.5c-5.4,23.5,5.3,72.7,0.9,93.3
				c-6.5,30-20.8,92.2,8.3,132.3c15.6,21.5,55.8,38.4,97.6,38.4c47.3,0,96.7-21.6,114.7-82.4c9.8-33.2-6.6-58.5-0.2-100.3
				C1462.9,578,1480,487.9,1363.5,487.9L1363.5,487.9z"/>
		</g>
		<g>
			<path class="st0" d="M2214.3,390.7c25.4,0,57.2,8.3,85,22.3c26.2,13.2,40.4,27.1,40.4,33.5c0,11.6-5.6,19-18.7,24.5
				c-13.1,5.5-32.1,8.4-54,11.8c-15.4,2.4-32.8,5-50.8,9c-49.3,11-105.6,24.9-149.2,44c-23.8,10.4-41.5,21.3-54.2,33.3
				c-14.7,13.9-22.1,29.2-22.1,45.5c0,18.8,1.8,38.5,14.6,54.6c15.5,19.6,43.5,29.1,85.4,29.1c57.2,0,96.2-16.6,137.5-34.2
				c39.1-16.7,79.5-33.9,137.6-36c1.5-0.1,3.1-0.1,4.6-0.1c18.5,0,36.4,3.9,49.1,10.7c14.6,7.8,22,18.8,22,32.7
				c0,6.8-7.3,17.7-19.5,29.3c-14,13.3-33.3,26.8-55.8,38.9c-32.3,17.5-98.9,46.9-181.2,46.9h-151.5c-33.9,0-96-12.9-152.4-41.1
				c-28.8-14.4-51.7-30.7-67.9-48.4c-18.3-19.9-27.6-41-27.6-62.8v0l0,0l-1.1-62.1c-0.1-6.7,2.6-13.1,7.5-17.8
				c44.9-42.5,105.8-81.6,171.4-110.1c38.2-16.6,77.9-29.6,117.8-38.5C2125.4,395.7,2170.2,390.7,2214.3,390.7 M2214.3,385.7
				c-187.4,0-345.1,88.7-425.8,165c-5.9,5.6-9.2,13.4-9.1,21.5l1.1,62.1c0,98.6,177.9,157.3,253,157.3H2185
				c141,0,261.5-86.5,261.5-120.1c0-34.4-40.4-48.4-76.2-48.4c-1.6,0-3.2,0-4.8,0.1c-118.7,4.2-163.2,70.2-274.9,70.2
				c-90.7,0-95-46.2-95-78.7c0-63,121.7-95.5,221.6-117.8c68.7-15.4,127.4-10.5,127.4-50.2C2344.7,426.3,2273.1,385.7,2214.3,385.7
				L2214.3,385.7z"/>
		</g>
		<path class="st0" d="M625.3,229.4c-279.8-17-263.4,86.6-262.8,116c0,0-71.7-9.8-71.7,24.2c0,53,50.3,83.6,54.9,153.2
			c2.4,36.7,26.4,208.6,156.7,224.5c60.6,7.4,120.2-10,118.2-81.5c-0.9-32.4-32-67-36-89c-0.7-3.6,2.2-6.9,5.9-6.9
			c247.1,0.1,308.6-90.5,316.2-159.1C914.3,342.8,871.9,244.4,625.3,229.4z M700,391.3c-26.7,49.7-107.5,60.3-140.7,62.6
			c-8.6,0.6-16.5-4.5-19.6-12.5l-23.6-60.9c-2.7-7,0.6-14.8,7.5-17.7c40.3-17.3,66-29.5,101.4-22.2
			C644.1,344.6,712.3,368.4,700,391.3z"/>
		<path class="st0" d="M1428.3,634.2c12.1-78.8,29.2-168.9-87.3-168.9c-78.8,0-121.1,31.6-134.1,87.5c-5.4,23.5,5.3,72.7,0.9,93.3
			c-6.5,30-20.8,92.2,8.3,132.3c33.3,45.9,178.4,70.5,212.3-44C1438.3,701.3,1421.8,675.9,1428.3,634.2z"/>
		<path class="st0" d="M1756.9,549.6c-0.1-8.1,3.2-15.9,9.1-21.5c80.7-76.3,238.4-165,425.8-165c58.8,0,130.4,40.6,130.4,60.8
			c0,39.7-58.7,34.9-127.4,50.2c-100,22.4-221.6,54.8-221.6,117.8c0,32.4,4.2,78.7,95,78.7c111.6,0,156.1-66,274.9-70.2
			c36.9-1.3,81,12.4,81,48.3c0,33.6-120.4,120.1-261.5,120.1l-151.5,0c-75.1,0-253-58.7-253-157.3L1756.9,549.6z"/>
		<path class="st0" d="M1338.7,73.5c-119.5-4-140.7,84.2-140.7,109c0,62.7,81.5,67.3,84.9,92.4c1.9,13.8,3.5,44.3,43.4,51.4
			c3.6,0.6,4.1,5.7,0.6,6.9c-16.1,5.7-37.4,15.6-37.4,28.2c0,20.2,24.8,28.1,64.6,28.1c0,0,36.2,2.3,36.2-9.8
			c0-7-15.2-12.3-28.1-15.6c-3.7-0.9-3.6-6.1,0.1-7c15.3-3.5,34.8-10,34.8-20.2c0-9.8-16.6-16-30.2-19.4c-3.7-0.9-3.6-6.2,0.2-7
			l12.9-2.6c5.6-1.1,9.7-5.9,10.5-11.6c7.2-55.7,76.8-45.2,76.8-122.3C1467.3,149.2,1439.2,76.9,1338.7,73.5z M1397.6,209.8
			c-14.7,11-28.7,25.8-39.4,52.6c-1.1,2.7-3.6,4.6-6.5,4.9c-5,0.4-11.5-0.1-15.8-0.5c-2.8-0.3-5.3-2-6.2-4.7
			c-7.1-20.4-34.3-42.6-53.7-52.8c-26.4-13.9-30.9-28.5-30.9-36.3c0-14.6,1.5-53.9,85.8-52.5c2,0,4.1,0,6.2,0.1
			c69.1,2.3,74.5,46.5,74.5,52.6C1411.6,183,1415,196.9,1397.6,209.8z"/>
		<ellipse class="st0" cx="1340.2" cy="410.8" rx="17.2" ry="15.7"/>
	</g>
</g>
</svg>
