<?xml version="1.0" encoding="utf-8"?>
<!-- Generator: Adobe Illustrator 26.3.1, SVG Export Plug-In . SVG Version: 6.00 Build 0)  -->
<svg version="1.1" id="Layer_1" xmlns="http://www.w3.org/2000/svg" xmlns:xlink="http://www.w3.org/1999/xlink" x="0px" y="0px"
	 viewBox="0 0 3839 1313.5" style="enable-background:new 0 0 3839 1313.5;" xml:space="preserve">
<style type="text/css">
	.st0{fill:#DD1000;}
	.st1{fill:#FFFFFF;}
	.st2{font-family:'HelveticaNeueLTStd-Roman';}
	.st3{font-size:131.4064px;}
</style>
<g>
	<g>
		<path class="st1" d="M0,543.1v292.3h479.7V543.1H0z M425.3,759.4c0,21.4-17.4,38.8-38.8,38.8h-332V754h250.2v-42.7H93.2
			c-21.4,0-38.7-17.4-38.8-38.8v-53.4c0-21.4,17.4-38.8,38.8-38.8h332v44.2H175v42.7h211.5c21.4,0,38.8,17.4,38.8,38.8V759.4z"/>
		<g>
			<path class="st1" d="M1700.7,542.9v292.3h479.7V542.9H1700.7z M2131.6,759.1c0,21.4-17.4,38.8-38.8,38.8h-343.4V580.1h343.4
				c21.4,0,38.8,17.4,38.8,38.8V759.1z"/>
			<path class="st1" d="M1983.7,624.3H1870v129.4h113.7c15.1,0,27.3-12.2,27.3-27.3v-74.8C2011,636.5,1998.8,624.3,1983.7,624.3z"/>
		</g>
		<g>
			<path class="st1" d="M855.9,624.3h-98.4c-11.8,0-21.3,9.5-21.3,21.3v86.8c0,11.8,9.5,21.3,21.3,21.3h98.4
				c11.8,0,21.4-9.5,21.3-21.3v-86.8C877.2,633.8,867.7,624.3,855.9,624.3z"/>
			<path class="st1" d="M566.9,542.9v292.3h479.7V542.9H566.9z M997.9,759.1c0,21.4-17.4,38.8-38.8,38.8H654.5
				c-21.4,0-38.8-17.4-38.8-38.8V618.9c0-21.4,17.3-38.8,38.7-38.8h304.7c21.4,0,38.8,17.4,38.8,38.8V759.1z"/>
		</g>
		<g>
			<path class="st1" d="M1414.4,624.3h-119.7v42.6h119.7c11.8,0,21.3-9.5,21.3-21.3C1435.7,633.8,1426.2,624.3,1414.4,624.3z"/>
			<path class="st1" d="M1133.8,542.9v292.3h479.7V542.9H1133.8z M1429.2,797.9l-40.1-86.8h-94.4v86.8h-120.6V580.1h343.4
				c21.4,0,38.8,17.4,38.8,38.8v53.4c0,21.4-17.4,38.8-38.8,38.8l41.7,65l14,21.8H1429.2z"/>
		</g>
	</g>
	<g>
		<text transform="matrix(1 0 0 1 2407.4133 1009.1238)" class="st1 st2 st3">Creative Computer</text>
		<g>
			<g>
				<polygon class="st1" points="2827.4,718 2654.3,287.3 2509.2,835.4 2585.4,835.4 2668.7,520.7 2827.4,915.5 2986.1,520.8 
					3069.4,835.4 3145.6,835.4 3000.5,287.3 				"/>
				<polygon class="st1" points="2827.4,672.4 3003.8,233.4 3163.2,835.4 3239.4,835.4 3018.2,0 2827.4,474.8 2636.6,0 
					2415.4,835.4 2491.6,835.4 2651,233.4 				"/>
			</g>
			<g>
				<path class="st0" d="M3182.8,1126.4L3182.8,1126.4l10.4-8.9L3182.8,1126.4z"/>
				<path class="st1" d="M3428.8,1222.9c168.9,0,306.4-137.4,306.4-306.4s-137.4-306.4-306.4-306.4c-47.5,0-93,10.6-135.3,31.4
					l-18.3,9l107-317.6h414.3l42.5-73.7h-509.7l-169.1,501.7l8.7,41.3l48.2,17.3c36.8-80.1,117.7-135.8,211.6-135.8l0,0
					c128.3,0,232.7,104.4,232.7,232.7s-104.4,232.7-232.7,232.7c-68.2,0-132.7-29.8-177-81.7l-58.6,50l2.5-2.2
					C3254.1,1183.7,3339,1222.9,3428.8,1222.9z"/>
				<path class="st1" d="M3428.8,519.5c-4.6,0-9.2,0.1-13.8,0.2l32.4-96.1h296.9l42.5-73.7h-392.3L3304.1,618
					c39.4-16.5,81.3-24.9,124.7-24.9c178.3,0,323.3,145.1,323.3,323.4s-145,323.4-323.3,323.4c-94.8,0-184.4-41.4-246-113.5
					l-56,47.8c75.6,88.5,185.7,139.3,302,139.3c218.9,0,397-178.1,397-397S3647.7,519.5,3428.8,519.5z"/>
			</g>
		</g>
	</g>
</g>
</svg>
