<?xml version="1.0" encoding="utf-8"?>
<!-- Generator: Adobe Illustrator 26.3.1, SVG Export Plug-In . SVG Version: 6.00 Build 0)  -->
<svg version="1.1" id="Layer_1" xmlns="http://www.w3.org/2000/svg" xmlns:xlink="http://www.w3.org/1999/xlink" x="0px" y="0px"
	 viewBox="0 0 3839 1189.8" style="enable-background:new 0 0 3839 1189.8;" xml:space="preserve">
<style type="text/css">
	.st0{fill:#FFFFFF;}
</style>
<g>
	<g>
		<path class="st0" d="M0,426.9v292.3h479.7V426.9H0z M425.3,508.3H175V551h211.5c21.4,0,38.8,17.4,38.8,38.8v53.4
			c0,21.4-17.4,38.8-38.8,38.8h-332v-44.2h250.2v-42.7H93.2c-21.4,0-38.8-17.4-38.8-38.8v-53.4c0-21.4,17.4-38.8,38.8-38.8h332
			V508.3z"/>
		<g>
			<path class="st0" d="M1983.7,508.1H1870v129.5h113.7c15.1,0,27.3-12.2,27.3-27.3v-74.8C2011,520.3,1998.8,508.1,1983.7,508.1z"/>
			<path class="st0" d="M1700.7,426.7V719h479.7V426.7H1700.7z M2131.6,643c0,21.4-17.4,38.8-38.8,38.8h-343.4V463.9h343.4
				c21.4,0,38.8,17.4,38.8,38.8V643z"/>
		</g>
		<g>
			<path class="st0" d="M855.9,508.1h-98.4c-11.8,0-21.3,9.5-21.3,21.3v86.8c0,11.8,9.5,21.3,21.3,21.3h98.4
				c11.8,0,21.3-9.5,21.3-21.3v-86.8C877.3,517.6,867.7,508.1,855.9,508.1z"/>
			<path class="st0" d="M566.9,426.7V719h479.7V426.7H566.9z M997.8,643c0,21.4-17.4,38.8-38.8,38.8H654.4
				c-21.4,0-38.8-17.4-38.8-38.8V502.7c0-21.4,17.4-38.8,38.8-38.8h304.6c21.4,0,38.8,17.4,38.8,38.8V643z"/>
		</g>
		<g>
			<path class="st0" d="M1414.4,508.1h-119.7v42.7h119.7c11.8,0,21.3-9.5,21.3-21.3S1426.2,508.1,1414.4,508.1z"/>
			<path class="st0" d="M1133.8,426.7V719h479.7V426.7H1133.8z M1429.2,681.7l-40.1-86.8h-94.4v86.8h-120.6V463.9h343.4
				c21.4,0,38.8,17.4,38.8,38.8v53.4c0,21.4-17.4,38.8-38.8,38.8l41.7,65l13.9,21.8H1429.2z"/>
		</g>
	</g>
	<g>
		<g>
			<path class="st0" d="M2500.7,40.9c-3.5-17.8-17.8-26.8-35.3-26.8c-30,0-42.7,24.7-42.7,51c0,28.8,12.7,52.8,42.9,52.8
				c22.1,0,34.8-15.5,36.4-36.4h16.8c-3.2,31.4-22.8,50.5-54.5,50.5c-39.2,0-58.2-28.9-58.2-65.6c0-36.5,20.8-66.4,59.6-66.4
				c26.3,0,48,14.1,51.9,40.9H2500.7z"/>
			<path class="st0" d="M2530.3,37.8h14.1V57h0.4c7.2-14.6,17.3-21.9,33.5-21.4v15.9c-24.2,0-33,13.8-33,36.9V129h-15V37.8z"/>
			<path class="st0" d="M2660.4,100.1c-4.1,20.1-18.5,31.1-39,31.1c-29.1,0-42.9-20.1-43.8-48c0-27.4,18-47.5,42.9-47.5
				c32.3,0,42.2,30.2,41.3,52.2h-68.3c-0.5,15.9,8.5,30,28.4,30c12.4,0,21-6,23.6-17.8H2660.4z M2646,74.6
				c-0.7-14.3-11.5-25.8-26.3-25.8c-15.7,0-25.1,11.8-26.1,25.8H2646z"/>
			<path class="st0" d="M2753,128.6c-2.6,1.6-6,2.5-10.8,2.5c-7.8,0-12.7-4.2-12.7-14.1c-8.3,9.7-19.4,14.1-32.1,14.1
				c-16.6,0-30.2-7.4-30.2-25.6c0-20.6,15.4-25.1,30.9-28.1c16.6-3.2,30.7-2.1,30.7-13.4c0-13.1-10.8-15.2-20.3-15.2
				c-12.7,0-22.1,3.9-22.8,17.3h-15c0.9-22.6,18.4-30.5,38.6-30.5c16.4,0,34.2,3.7,34.2,25.1v46.9c0,7.1,0,10.2,4.8,10.2
				c1.2,0,2.6-0.2,4.6-0.9V128.6z M2728.6,81.9c-5.8,4.2-17.1,4.4-27.2,6.2c-9.9,1.8-18.4,5.3-18.4,16.4c0,9.9,8.5,13.4,17.6,13.4
				c19.8,0,27.9-12.4,27.9-20.6V81.9z"/>
			<path class="st0" d="M2781.2,37.8h18.2V51h-18.2v56.6c0,6.9,1.9,8.1,11.3,8.1h6.9V129h-11.5c-15.5,0-21.7-3.2-21.7-19.9V51h-15.5
				V37.8h15.5V10.4h15V37.8z"/>
			<path class="st0" d="M2824.2,21.4h-15V3h15V21.4z M2809.2,37.8h15V129h-15V37.8z"/>
			<path class="st0" d="M2881.8,129h-16.1l-33.9-91.2h16.8l25.6,76.1h0.4l24.9-76.1h15.7L2881.8,129z"/>
			<path class="st0" d="M2996.9,100.1c-4.1,20.1-18.5,31.1-39,31.1c-29.1,0-42.9-20.1-43.8-48c0-27.4,18-47.5,42.9-47.5
				c32.3,0,42.2,30.2,41.3,52.2H2930c-0.5,15.9,8.5,30,28.4,30c12.4,0,21-6,23.6-17.8H2996.9z M2982.4,74.6
				c-0.7-14.3-11.5-25.8-26.3-25.8c-15.7,0-25.1,11.8-26.1,25.8H2982.4z"/>
			<path class="st0" d="M3148.7,40.9c-3.5-17.8-17.8-26.8-35.3-26.8c-30,0-42.7,24.7-42.7,51c0,28.8,12.7,52.8,42.9,52.8
				c22.1,0,34.8-15.5,36.4-36.4h16.8c-3.2,31.4-22.8,50.5-54.5,50.5c-39.2,0-58.2-28.9-58.2-65.6c0-36.5,20.8-66.4,59.6-66.4
				c26.3,0,48,14.1,51.9,40.9H3148.7z"/>
			<path class="st0" d="M3218.5,35.6c28.9,0,44.3,21,44.3,47.8c0,26.6-15.4,47.6-44.3,47.6s-44.3-21-44.3-47.6
				C3174.2,56.6,3189.6,35.6,3218.5,35.6z M3218.5,117.9c15.7,0,28.4-12.4,28.4-34.4c0-22.2-12.7-34.6-28.4-34.6
				c-15.7,0-28.4,12.4-28.4,34.6C3190.1,105.5,3202.8,117.9,3218.5,117.9z"/>
			<path class="st0" d="M3274.3,37.8h14.1v13.4h0.4c6.7-10.2,16.9-15.5,29.5-15.5c11.1,0,21.4,4.4,25.1,15.5
				c6.2-9.7,16.9-15.5,28.6-15.5c18.2,0,30.4,7.6,30.4,26.5V129h-15V69.2c0-11.3-3-20.3-17.6-20.3c-14.5,0-23.8,9.2-23.8,23.3V129
				h-15V69.2c0-11.8-3.7-20.3-17.1-20.3c-17.8,0-24.4,16.4-24.4,23.3V129h-15V37.8z"/>
			<path class="st0" d="M3418.9,37.8h15v12.4h0.4c4.9-10.1,16.6-14.5,29.1-14.5c28.1,0,42,22.2,42,48s-13.8,47.5-41.6,47.5
				c-9.4,0-22.8-3.5-29.5-14.3h-0.4v47.1h-15V37.8z M3461.3,48.9c-20.1,0-27.9,17.3-27.9,34.4c0,18,8.1,34.6,28.8,34.6
				c20.5,0,27.4-17.5,27.4-35.3C3489.5,65.5,3480.7,48.9,3461.3,48.9z"/>
			<path class="st0" d="M3592.4,129h-14.1v-14.5h-0.4c-6.4,11.3-16.6,16.6-29.6,16.6c-24,0-31.4-13.8-31.4-33.4v-60h15v61.8
				c0,11.1,7.1,18.4,18.5,18.4c18.2,0,27-12.2,27-28.6V37.8h15V129z"/>
			<path class="st0" d="M3630.1,37.8h18.2V51h-18.2v56.6c0,6.9,1.9,8.1,11.3,8.1h6.9V129h-11.5c-15.5,0-21.7-3.2-21.7-19.9V51h-15.5
				V37.8h15.5V10.4h15V37.8z"/>
			<path class="st0" d="M3733.1,100.1c-4.1,20.1-18.5,31.1-39,31.1c-29.1,0-42.9-20.1-43.8-48c0-27.4,18-47.5,42.9-47.5
				c32.3,0,42.2,30.2,41.3,52.2h-68.3c-0.5,15.9,8.5,30,28.4,30c12.4,0,21-6,23.6-17.8H3733.1z M3718.7,74.6
				c-0.7-14.3-11.5-25.8-26.3-25.8c-15.7,0-25.1,11.8-26.1,25.8H3718.7z"/>
			<path class="st0" d="M3744.7,37.8h14.1V57h0.4c7.2-14.6,17.3-21.9,33.5-21.4v15.9c-24.2,0-33,13.8-33,36.9V129h-15V37.8z"/>
		</g>
		<g>
			<path class="st0" d="M3138.8,375c0-104.5-84.7-189.2-189.2-189.2c-76.6,0-142.5,45.7-172.3,111.2
				c-29.7-65.5-95.6-111.2-172.2-111.2c-64.3,0-121.1,32.2-155.3,81.2v-64.2h-34V375v341.6h34h0V375c0-85.7,69.5-155.3,155.2-155.3
				c85.7,0,155.3,69.5,155.3,155.3v0v341.6h34h0V375c0-85.7,69.5-155.3,155.3-155.3c85.7,0,155.2,69.5,155.2,155.3v341.7h34V375z"/>
			<path class="st0" d="M3457.1,374.5l36.3-154.8h299.3v-34h-291.4h-13.5h-21.4l-48.5,206.8l0,0l-3.4,14.6h3.4h12.8
				c206.7,0,374.4,167.6,374.4,374.3v0c0,206.7-167.6,374.3-374.4,374.3h-12.8v34h12.8c225.5,0,408.3-182.8,408.3-408.3v0
				C3839,564.9,3670.2,388.1,3457.1,374.5z"/>
			<path class="st0" d="M3230.2,537.4c-9.2,0-16.7,7.5-16.7,16.7c0,9.2,7.5,16.6,16.7,16.6c9.2,0,16.6-7.5,16.6-16.6
				C3246.9,544.9,3239.4,537.4,3230.2,537.4z"/>
			<path class="st0" d="M3271.8,537.4c-9.2,0-16.6,7.5-16.6,16.7c0,9.2,7.5,16.6,16.6,16.6c9.2,0,16.6-7.5,16.6-16.6
				C3288.4,544.9,3281,537.4,3271.8,537.4z"/>
			<path class="st0" d="M3313.3,537.4c-9.2,0-16.7,7.5-16.7,16.7c0,9.2,7.5,16.6,16.7,16.6c9.2,0,16.6-7.5,16.6-16.6
				C3330,544.9,3322.5,537.4,3313.3,537.4z"/>
			<path class="st0" d="M3354.8,537.4c-9.2,0-16.6,7.5-16.6,16.7c0,9.2,7.5,16.6,16.6,16.6s16.6-7.5,16.6-16.6
				C3371.5,544.9,3364,537.4,3354.8,537.4z"/>
			<path class="st0" d="M3230.2,579c-9.2,0-16.7,7.5-16.7,16.6c0,9.2,7.5,16.7,16.7,16.7c9.2,0,16.6-7.5,16.6-16.7
				C3246.9,586.4,3239.4,579,3230.2,579z"/>
			<path class="st0" d="M3271.8,579c-9.2,0-16.6,7.5-16.6,16.6c0,9.2,7.5,16.7,16.6,16.7c9.2,0,16.6-7.5,16.6-16.7
				C3288.4,586.4,3281,579,3271.8,579z"/>
			<path class="st0" d="M3313.3,579c-9.2,0-16.7,7.5-16.7,16.6c0,9.2,7.5,16.7,16.7,16.7c9.2,0,16.6-7.5,16.6-16.7
				C3330,586.4,3322.5,579,3313.3,579z"/>
			<path class="st0" d="M3354.8,579c-9.2,0-16.6,7.5-16.6,16.6c0,9.2,7.5,16.7,16.6,16.7s16.6-7.5,16.6-16.7
				C3371.5,586.4,3364,579,3354.8,579z"/>
			<path class="st0" d="M3230.2,620.5c-9.2,0-16.7,7.5-16.7,16.6c0,9.2,7.5,16.6,16.7,16.6c9.2,0,16.6-7.5,16.6-16.6
				C3246.9,627.9,3239.4,620.5,3230.2,620.5z"/>
			<ellipse class="st0" cx="3271.8" cy="637.1" rx="16.6" ry="16.6"/>
			<path class="st0" d="M3313.3,620.5c-9.2,0-16.7,7.5-16.7,16.6c0,9.2,7.5,16.6,16.7,16.6c9.2,0,16.6-7.5,16.6-16.6
				C3330,627.9,3322.5,620.5,3313.3,620.5z"/>
			<ellipse class="st0" cx="3354.8" cy="637.1" rx="16.6" ry="16.6"/>
			<path class="st0" d="M3230.2,662c-9.2,0-16.7,7.5-16.7,16.6s7.5,16.6,16.7,16.6c9.2,0,16.6-7.5,16.6-16.6S3239.4,662,3230.2,662z
				"/>
			<ellipse class="st0" cx="3271.8" cy="678.7" rx="16.6" ry="16.6"/>
			<path class="st0" d="M3313.3,662c-9.2,0-16.7,7.5-16.7,16.6s7.5,16.6,16.7,16.6c9.2,0,16.6-7.5,16.6-16.6S3322.5,662,3313.3,662z
				"/>
			<ellipse class="st0" cx="3354.8" cy="678.7" rx="16.6" ry="16.6"/>
		</g>
	</g>
</g>
</svg>
