<?xml version="1.0" encoding="utf-8"?>
<!-- Generator: Adobe Illustrator 26.4.1, SVG Export Plug-In . SVG Version: 6.00 Build 0)  -->
<svg version="1.1" id="Layer_1" xmlns="http://www.w3.org/2000/svg" xmlns:xlink="http://www.w3.org/1999/xlink" x="0px" y="0px"
	 viewBox="0 0 3839 1017.9" style="enable-background:new 0 0 3839 1017.9;" xml:space="preserve">
<style type="text/css">
	.st0{fill:#FFFFFF;}
	.st1{fill:#FF0000;}
	.st2{fill:#FF7300;}
	.st3{fill:#FFE600;}
	.st4{fill:url(#SVGID_1_);}
	.st5{fill:#191919;}
	.st6{fill:#1A1B1A;}
	.st7{fill:#1C1C1B;}
	.st8{fill:#1D1E1C;}
	.st9{fill:#1E201D;}
	.st10{fill:#20211F;}
	.st11{fill:#212320;}
	.st12{fill:#222521;}
	.st13{fill:#242622;}
	.st14{fill:#252823;}
	.st15{fill:#262A24;}
	.st16{fill:#282C25;}
	.st17{fill:#292D26;}
	.st18{fill:#2B2F28;}
	.st19{fill:#2C3129;}
	.st20{fill:#2D322A;}
	.st21{fill:#2F342B;}
	.st22{fill:#30362C;}
	.st23{fill:#31372D;}
	.st24{fill:#33392E;}
	.st25{fill:#343B2F;}
	.st26{fill:#353C30;}
	.st27{fill:#373E32;}
	.st28{fill:#384033;}
	.st29{fill:#394134;}
	.st30{fill:#3B4335;}
	.st31{fill:#3C4536;}
	.st32{fill:#3D4637;}
	.st33{fill:#3F4838;}
	.st34{fill:#404A39;}
	.st35{fill:#414B3B;}
	.st36{fill:#434D3C;}
	.st37{fill:#444F3D;}
	.st38{fill:#45513E;}
	.st39{fill:#47523F;}
	.st40{fill:#485440;}
	.st41{fill:#495641;}
	.st42{fill:#4B5742;}
	.st43{fill:#4C5944;}
	.st44{fill:#4E5B45;}
	.st45{fill:#4F5C46;}
	.st46{fill:#505E47;}
	.st47{fill:#526048;}
	.st48{fill:#536149;}
	.st49{fill:#54634A;}
	.st50{fill:#56654B;}
	.st51{fill:#57664C;}
	.st52{fill:#58684E;}
	.st53{fill:#5A6A4F;}
	.st54{fill:#5B6B50;}
	.st55{fill:#5C6D51;}
	.st56{fill:#5E6F52;}
	.st57{fill:#5F7153;}
	.st58{fill:#607254;}
	.st59{fill:#627455;}
	.st60{fill:#637657;}
	.st61{fill:#647758;}
	.st62{fill:#667959;}
	.st63{fill:#677B5A;}
	.st64{fill:#687C5B;}
	.st65{fill:#6A7E5C;}
	.st66{fill:#6B805D;}
	.st67{fill:#6C815E;}
	.st68{fill:#6E835F;}
	.st69{fill:#6F8561;}
	.st70{fill:#718662;}
	.st71{fill:#728863;}
	.st72{fill:#738A64;}
	.st73{fill:#758B65;}
	.st74{fill:#768D66;}
	.st75{fill:#778F67;}
	.st76{fill:#799168;}
	.st77{fill:#7A926A;}
	.st78{fill:#7B946B;}
	.st79{fill:#7D966C;}
	.st80{fill:#7E976D;}
	.st81{fill:#7F996E;}
	.st82{fill:#819B6F;}
	.st83{fill:#829C70;}
	.st84{fill:#839E71;}
	.st85{fill:#85A073;}
	.st86{fill:#86A174;}
	.st87{fill:#87A375;}
	.st88{fill:#89A576;}
	.st89{fill:#8AA677;}
	.st90{fill:#8BA878;}
	.st91{fill:#8DAA79;}
	.st92{fill:#8EAB7A;}
	.st93{fill:#8FAD7B;}
	.st94{fill:#91AF7D;}
	.st95{fill:#92B07E;}
	.st96{fill:#94B27F;}
	.st97{fill:#95B480;}
	.st98{fill:#96B681;}
	.st99{fill:#98B782;}
	.st100{fill:#99B983;}
	.st101{fill:#9ABB84;}
	.st102{fill:#9CBC86;}
	.st103{fill:#9DBE87;}
	.st104{fill:#9EC088;}
	.st105{fill:#A0C189;}
	.st106{fill:#A1C38A;}
	.st107{fill:url(#SVGID_00000012467922503209096450000000490016700494547126_);}
	.st108{fill:url(#SVGID_00000153664790247781989210000007775944099304730005_);}
	.st109{fill:url(#SVGID_00000174589839847004577530000010471668643798157993_);}
	.st110{fill:url(#SVGID_00000016059060350815074560000002154289590336129727_);}
	.st111{fill:url(#SVGID_00000033367495157627738240000012965344044550925727_);}
	.st112{fill:url(#SVGID_00000054253027713501544430000014222817692049085358_);}
	.st113{fill:#FF0C00;}
	.st114{fill:#E6E6E6;}
	.st115{fill:url(#SVGID_00000081623776877488579710000017195874208696199347_);}
	.st116{fill:url(#SVGID_00000053537901435050687820000017162985914639569573_);}
	.st117{fill:url(#SVGID_00000146467050027749948260000016891935992587518854_);}
	.st118{fill:url(#SVGID_00000112595981163427442850000000251058280427774866_);}
	.st119{fill:url(#SVGID_00000098932808981364333810000015201396524622281109_);}
	.st120{fill:url(#SVGID_00000077297173318603478820000013103975565903454337_);}
	.st121{fill:#E5E4E6;}
	.st122{fill:#E4E3E6;}
	.st123{fill:#E3E1E7;}
	.st124{fill:#E1E0E7;}
	.st125{fill:#E0DEE7;}
	.st126{fill:#DFDDE7;}
	.st127{fill:#DEDBE8;}
	.st128{fill:#DDDAE8;}
	.st129{fill:#DCD8E8;}
	.st130{fill:#DBD7E8;}
	.st131{fill:#D9D5E9;}
	.st132{fill:#D8D4E9;}
	.st133{fill:#D7D2E9;}
	.st134{fill:#D6D1E9;}
	.st135{fill:#D5CFEA;}
	.st136{fill:#D4CEEA;}
	.st137{fill:#D3CCEA;}
	.st138{fill:#D2CBEA;}
	.st139{fill:#D0C9EB;}
	.st140{fill:#CFC8EB;}
	.st141{fill:#CEC6EB;}
	.st142{fill:#CDC5EB;}
	.st143{fill:#CCC3EC;}
	.st144{fill:#CBC2EC;}
	.st145{fill:#CAC0EC;}
	.st146{fill:#C8BFEC;}
	.st147{fill:#C7BDED;}
	.st148{fill:#C6BCED;}
	.st149{fill:#C5BAED;}
	.st150{fill:#C4B9ED;}
	.st151{fill:#C3B7EE;}
	.st152{fill:#C2B6EE;}
	.st153{fill:#C0B4EE;}
	.st154{fill:#BFB2EE;}
	.st155{fill:#BEB1EF;}
	.st156{fill:#BDAFEF;}
	.st157{fill:#BCAEEF;}
	.st158{fill:#BBACEF;}
	.st159{fill:#BAABF0;}
	.st160{fill:#B8A9F0;}
	.st161{fill:#B7A8F0;}
	.st162{fill:#B6A6F0;}
	.st163{fill:#B5A5F1;}
	.st164{fill:#B4A3F1;}
	.st165{fill:#B3A2F1;}
	.st166{fill:#B2A0F1;}
	.st167{fill:#B09FF2;}
	.st168{fill:#AF9DF2;}
	.st169{fill:#AE9CF2;}
	.st170{fill:#AD9AF2;}
	.st171{fill:#AC99F3;}
	.st172{fill:#AB97F3;}
	.st173{fill:#AA96F3;}
	.st174{fill:#A994F3;}
	.st175{fill:#A793F4;}
	.st176{fill:#A691F4;}
	.st177{fill:#A590F4;}
	.st178{fill:#A48EF4;}
	.st179{fill:#A38DF5;}
	.st180{fill:#A28BF5;}
	.st181{fill:#A18AF5;}
	.st182{fill:#9F88F5;}
	.st183{fill:#9E87F6;}
	.st184{fill:#9D85F6;}
	.st185{fill:#9C84F6;}
	.st186{fill:#9B82F6;}
	.st187{fill:#9A81F7;}
	.st188{fill:#997FF7;}
	.st189{fill:#977DF7;}
	.st190{fill:#967CF7;}
	.st191{fill:#957AF8;}
	.st192{fill:#9479F8;}
	.st193{fill:#9377F8;}
	.st194{fill:#9276F8;}
	.st195{fill:#9174F9;}
	.st196{fill:#8F73F9;}
	.st197{fill:#8E71F9;}
	.st198{fill:#8D70F9;}
	.st199{fill:#8C6EFA;}
	.st200{fill:#8B6DFA;}
	.st201{fill:#8A6BFA;}
	.st202{fill:#896AFA;}
	.st203{fill:#8768FB;}
	.st204{fill:#8667FB;}
	.st205{fill:#8565FB;}
	.st206{fill:#8464FB;}
	.st207{fill:#8362FC;}
	.st208{fill:#8261FC;}
	.st209{fill:#815FFC;}
	.st210{fill:#805EFC;}
	.st211{fill:#7E5CFD;}
	.st212{fill:#7D5BFD;}
	.st213{fill:#7C59FD;}
	.st214{fill:#7B58FD;}
	.st215{fill:#7A56FE;}
	.st216{fill:#7955FE;}
	.st217{fill:#7853FE;}
	.st218{fill:#7652FE;}
	.st219{fill:#7550FF;}
	.st220{fill:#744FFF;}
	.st221{fill:#734DFF;}
	.st222{fill:url(#SVGID_00000134952038922432175300000002508989889521680289_);}
	.st223{fill:url(#SVGID_00000085240822566179182580000012135820300565736832_);}
	.st224{fill:url(#SVGID_00000176722572224306976450000000890039492033506985_);}
	.st225{fill:url(#SVGID_00000036959783193015436510000007738054070866727305_);}
	.st226{fill:url(#SVGID_00000022563007923730845800000006904415790173643176_);}
	.st227{fill:url(#SVGID_00000036245265909185077050000001553342478048525503_);}
</style>
<g>
	<g>
		<path class="st0" d="M767.9,148.5L721.1,47.7C707.6,18.6,678.5,0,646.4,0H358.1L586,383.1h89l-89.1-161H721
			C758.8,222,783.8,182.8,767.9,148.5z M539.8,138.8L510,85h126.9l27.1,53.8H539.8z"/>
		<path class="st0" d="M3067,0h-270.2l-126.5,383.1h219.3c50.9,0,97.1-29.5,118.5-75.6l107.4-231.3C3132.1,40.6,3106.2,0,3067,0z
			 M2921.5,293.3h-126.1l77-208.3h137.5L2921.5,293.3z"/>
		<path class="st0" d="M3779.2,0h-158.7c-55.5,0-106.9,28.9-135.7,76.3l-142.1,233.6c-19.5,32.1,3.6,73.1,41.1,73.1h162.4
			c41.5,0,80.5-19.6,105.4-52.8L3827,95.4C3856.4,56,3828.3,0,3779.2,0z M3585.9,293.3h-137.6l135-208.3h150L3585.9,293.3z"/>
		<polygon class="st0" points="2629.6,0 2527.8,383.1 2625.6,383.1 2744.1,0 		"/>
		<path class="st0" d="M2338.7,293.3L2338.7,293.3L2390.4,0h-100.1l-52.3,383.1h107.5c54,0,103.1-31.2,126-80.1L2613.8,0h-101.7
			l-122.6,261C2380.3,280.7,2360.5,293.3,2338.7,293.3z"/>
		<path class="st0" d="M2087.1,0h-155.5l-1,383.1h78.5l3.3-89.8h108.6l-7.4,89.8h83.8l27.6-227.3C2235.1,73,2170.5,0,2087.1,0z
			 M2132.9,147.5l-6.1,74.5H2015l5.1-137h55.1C2109.1,85,2135.6,113.9,2132.9,147.5z"/>
		<polyline class="st0" points="1525.2,85 1461.8,85 1515.8,383.1 1437.3,383.1 1372.9,85 1309.5,85 1289,0 1511.9,0 1525.2,85 		
			"/>
		<path class="st0" d="M1131.6,0h137l20.9,85h-117.8l61.5,208.3h107.4l22.1,89.8h-124c-38.3,0-72.4-24.5-84.5-60.8l-80.9-241.3
			C1060.1,41.1,1089.7,0,1131.6,0z"/>
		<path class="st0" d="M775.1,81.9l104.2,231.9c18.9,42.1,60.8,69.2,107,69.2h163l-31-89.8H956.5L926.9,222h166.8l-28.7-83.3H892.4
			L870.1,85h176.3l-29.3-85h-189C786,0,757.9,43.5,775.1,81.9z"/>
		<path class="st0" d="M239.5,383.1h205.9c46.6,0,75.3-51,51-90.8l-56.8-93.4c-22.7-37.3-63.3-60.1-107-60.1H160.9l-38-53.8h247.6
			L318.7,0H47.1C8.4,0-13.7,44.1,9.4,75.1l64.4,86.2c28.5,38.2,73.3,60.6,121,60.6h162.8l46.2,71.3H172.4L239.5,383.1z"/>
		<path class="st0" d="M3080.8,383.1h187.5l53.2-89.8h-176l37-71.3h181.3l49.4-83.3h-187.5l27.9-53.8h191.5l50.4-85h-219.2
			c-52.7,0-100.7,30.2-123.4,77.7l-114.3,238.5C3023.9,347.2,3046.5,383.1,3080.8,383.1z"/>
		<path class="st0" d="M1709.7,216.7l126.9,166.4h93.9l-119.7-161l0,0c39.7,0,71.6-32.5,70.9-72.2l-1.1-60.7
			c-0.9-49.5-41.3-89.1-90.8-89.1h-254.7l56.1,383.1h81.4L1639.4,85H1779l3.1,53.8h-33.8c-28.5,0-50.9,24.5-48.3,53v0
			C1700.8,200.8,1704.2,209.4,1709.7,216.7z"/>
		<g>
			<polygon class="st0" points="3529.5,493.6 3561.6,450.6 289.9,450.6 322.1,493.6 			"/>
			<polygon class="st0" points="3497.3,536.7 354.3,536.7 386.5,579.8 3465.1,579.8 			"/>
			<polygon class="st0" points="418.7,622.9 450.8,665.9 3400.8,665.9 3432.9,622.9 			"/>
		</g>
	</g>
	<g>
		<g>
			<g>
				<path class="st0" d="M1758.9,816.9c-35.4,0-64.2,28.7-64.2,64.2c0,35.4,28.7,64.2,64.2,64.2c35.4,0,64.2-28.7,64.2-64.2
					C1823.1,845.6,1794.4,816.9,1758.9,816.9z M2190.4,902.8h69.1c112.9,0,112.9-169.4,0-169.4h-153.8v64.5h153.8
					c26.9,0,26.9,40.4,0,40.4h-69.1c-42.3,0-84.7,28.2-84.7,84.7v20.2v23.3v41.1h237.5v-64.5h-173V923h0
					C2170.2,909.5,2180.3,902.8,2190.4,902.8z M1653.6,733.4l-70.7,139.3l-70.7-139.3h-73.7l0,0h-127.9
					c-112.9,0-112.9,169.4,0,169.4h77.5c26.9,0,26.9,40.4,0,40.4h-157.7v64.5h157.7c112.9,0,112.9-169.4,0-169.4h-77.5
					c-26.9,0-26.9-40.4,0-40.4h160.6l74.8,147.4l36.8,72.6l36.8-72.6l107.5-211.9H1653.6z M2072,799.4c0-40.7-31.6-65.9-70.1-65.9
					c-1.4,0-169.2,0-169.2,0v64.5h156.6c26.9,0,26.9,40.4,0,40.4c-14.7,0-92.1,0-92.1,0v64.5c0,0,82.7,0,92.1,0
					c26.9,0,26.9,40.4,0,40.4h-156.6v64.5c0,0,165.5,0,169.2,0c38.4,0,70.1-25.2,70.1-65.9c0-50.6-37.4-71.2-59.6-71.2
					C2034.6,870.6,2072,850,2072,799.4z M2553.4,870.6c22.2,0,59.6-20.6,59.6-71.2c0-40.7-31.6-65.9-70.1-65.9c-4,0-90.7,0-96.8,0
					c-38.4,0-70.1,25.2-70.1,65.9c0,50.6,37.4,71.2,59.6,71.2c-22.2,0-59.6,20.6-59.6,71.2c0,40.7,31.6,65.9,70.1,65.9
					c3.6,0,8.1,0,12.6,0h13.8h43.9h12.5c5,0,10,0,13.9,0c38.4,0,70.1-25.2,70.1-65.9C2613,891.1,2575.6,870.6,2553.4,870.6z
					 M2530.3,943.2h-71.5c-26.9,0-26.9-40.4,0-40.4c5.6,0,67.9,0,71.5,0C2557.3,902.8,2557.3,943.2,2530.3,943.2z M2530.3,838.3
					c-6.7,0-66.4,0-71.5,0c-26.9,0-26.9-40.4,0-40.4c4,0,71.5,0,71.5,0C2557.3,797.9,2557.3,838.3,2530.3,838.3z"/>
			</g>
		</g>
	</g>
</g>
</svg>
