<?xml version="1.0" encoding="utf-8"?>
<!-- Generator: Adobe Illustrator 25.4.1, SVG Export Plug-In . SVG Version: 6.00 Build 0)  -->
<svg version="1.1" id="Layer_1" xmlns="http://www.w3.org/2000/svg" xmlns:xlink="http://www.w3.org/1999/xlink" x="0px" y="0px"
	 viewBox="0 0 3839 1510.3" style="enable-background:new 0 0 3839 1510.3;" xml:space="preserve">
<style type="text/css">
	.st0{fill:#FFFFFF;}
</style>
<g>
	<g>
		<path class="st0" d="M752.4,131.8v186.9c0,19.8-10.1,22.9-19.8,26v6.6h86.3v-6.6c-9.7-3.1-19.8-6.1-19.8-26V131.8
			c0-11.3,3.5-14,18.3-14c40.4,0,60.2,0.8,74.6,23.2l5-3.1L880.7,90H670.4l-16.3,48l5.1,3.1c17.5-22.1,31.1-23.2,75-23.2
			C748.9,117.9,752.4,120.6,752.4,131.8z M850.7,158.6c12.8,3.5,19.4,6.6,19.4,26v134.1c0,19.8-6.6,22.9-19.4,26v6.6h162.8
			l18.6-46.7l-5.1-3.5c-16.3,21.5-33.4,26.4-55.9,26.4h-42c-13.2,0-16.3-0.3-16.3-13.2v-55.9h50.9c19.8,0,22.9,4.7,26.1,16.4h7.7
			v-55.9h-7.7c-3.1,11.7-6.2,16.7-26.1,16.7h-50.9v-47c0-9.7,3.1-12.9,16.3-12.9c0,0,32.7,0,35.7,0c22.9,0,35,5.9,52.4,24.4l5-3.5
			l-16.3-44.7H850.7V158.6z M1060,181.6l49.8,70.3l-47,66.8c-14.4,20.2-22.9,22.9-36.1,26v6.6h75.4v-6.6
			c-14.4-2.7-20.6-8.2-10.9-23.3l32.9-51.4l34.7,49.9c12.8,18.3-0.8,23.2-12.5,24.8v6.6h136.3v-6.6c-13.6-2.3-19.8-7-12.8-25.6
			l8.9-23.2h81.6l8.6,23.2c5.5,15.2,3.5,23.3-12.4,25.6v6.6h83.9v-6.6c-9.7-3.1-18.6-11.2-22.9-22.5L1352.6,152h-44.3l-62.2,158.6
			c-6.6,16.4-12.6,24.2-19.2,28.7c-5.1-3.2-9.8-8.3-16.1-17l-54.6-77.6l44.2-62.4c11.7-16.7,21.4-20.2,33-23.7V152h-71.1v6.6
			c14.7,1.2,19,9.4,10.5,22.1l-30.8,45.6l-27.8-41.8c-11.7-17.1-3.1-24.1,9.7-26.1v-6.6h-94.4v6.6
			C1042.6,162.1,1049.1,166,1060,181.6z M1320.2,186.6l31.9,87H1287L1320.2,186.6z M1458.5,351.2c0-3.2,3.1-9.8,7-9.8
			c8.9,4.3,24.1,13.2,52,13.2c47,0,80-23.3,80-62.9c0-37.3-20.6-52.5-60.2-61.4l-36.1-8.2c-20.6-4.7-27.2-10.6-27.2-23.3
			c0-14.8,11.6-24.5,37.3-24.5c28.7,0,51.3,13.6,67.6,32.4l5.1-3.5l-14.8-51.3h-9.3c0,4.3-1.9,8.9-5.8,8.9c-8.6-4.7-21.8-12-44.3-12
			c-40.4,0-71.9,20.9-71.9,59c0,29.1,17.5,47.3,55.6,55.9l34.2,7.8c22.9,4.9,31.1,13.2,31.1,27.6c0,19.8-15.9,30.3-41.9,30.3
			c-36.5,0-59.8-19.2-78.9-41.2l-5.1,3.5l15.9,59.5H1458.5L1458.5,351.2z"/>
		<path class="st0" d="M1723.3,96.9c12.1,3.5,21.7,6.6,21.7,26v195.9c0,19.8-9.7,22.9-21.7,26v6.6h90.1v-6.6
			c-12-3.1-21.8-6.2-21.8-26V122.9c0-19.5,9.7-22.6,21.8-26v-6.6h-90.1V96.9L1723.3,96.9z M1970.7,158.7c11.6,3.5,18.3,6.6,18.3,26
			v81.6h-1.2L1887.6,152h-58.6v6.6c11.7,4.9,19.4,8.9,19.4,26v134.1c0,18.6-6.6,22.9-19.4,26v6.6h66.4v-6.6
			c-10.5-3.1-20.6-7.3-20.6-26V203h1.2L2008.5,354h7V184.7c0-19.4,9.7-22.6,17.5-26V152h-62.2L1970.7,158.7L1970.7,158.7z
			 M2144.3,230.5l-36.1-8.1c-20.6-4.7-27.2-10.6-27.2-23.3c0-14.7,11.7-24.5,37.3-24.5c28.8,0,51.3,13.6,67.6,32.4l5.1-3.5
			l-14.7-51.3h-9.4c0,4.3-1.9,9-5.8,9c-8.6-4.7-21.7-12-44.3-12c-40.5,0-72,20.9-72,59c0,29,17.5,47.3,55.6,55.9l34.1,7.8
			c22.9,4.9,31.1,13.2,31.1,27.6c0,19.8-15.9,30.2-42,30.2c-36.4,0-59.9-19-78.9-41.1l-5.1,3.5l15.9,59.4h9.7c0-3.1,3.1-9.7,7-9.7
			c8.9,4.3,24.1,13.2,52,13.2c47,0,80-23.2,80-62.9C2204.6,254.5,2184,239.4,2144.3,230.5z M2216.2,152.1l-16,51.3l5.1,3.5
			c21.4-28.4,27.2-31.1,55.5-31.1c9.7,0,12.8,0.8,12.8,12.8v130.2c0,19.8-5.8,22.9-21.7,26v6.6h85.5v-6.6
			c-15.6-3.1-21.8-6.1-21.8-26V188.6c0-12,3.1-12.8,12.9-12.8c28.4,0,35.9,2.6,57.1,31.1l5.1-3.5l-15.9-51.3H2216.2z M2562.2,292.2
			c-12-19.4-24.4-28-38.8-31.5v-1.2c34.2-5.5,53.6-23.3,53.6-52.5c0-38.7-31.1-55.2-81.2-55.2h-102.2v6.6c12.9,3.5,19.5,6.6,19.5,26
			v134.1c0,19.8-6.6,22.9-19.5,26v6.6h83.5v-6.6c-12-3.1-20.2-6.2-20.2-26v-49.6h20.6c24.1,0,27.6,9.7,43.1,42.4
			c12.8,26.8,29.9,43.5,62.1,43.5c16.4,0,22.9-3.2,29.5-6.6v-5.5C2586.3,338.8,2577.8,317.5,2562.2,292.2z M2491.2,245.6H2457v-52.9
			c0-12.8,3.2-16.3,12.9-16.3h22.1c24.1,0,38.1,9.3,38.1,32.6C2530,233.6,2514.1,245.6,2491.2,245.6z M2738.9,158.7
			c10.1,2.4,19.8,6.6,19.8,26v98.3c0,32.7-12.4,47-49.3,47c-39.2,0-53.2-14.4-53.2-47v-98.3c0-19.4,7.4-23.7,19.5-26v-6.6h-81.6v6.6
			c12,1.9,19.8,6.6,19.8,26V286c0,53.2,46.2,68.8,89.8,68.8c48.6,0,83.1-16.4,83.1-72v-98.3c0-19.4,5.9-23.2,17.9-26V152H2739
			L2738.9,158.7L2738.9,158.7z M2945.6,281.4l-57.5-129.4h-71.4v6.6c12.8,3.5,19.4,6.6,19.4,26v134.1c0,17.4-7.4,22.1-19.4,26v6.6
			h63.3v-6.6c-13.2-3.5-19-8.6-19-26V193.7l71.8,160.8h5.5l69.9-160.8v125.1c0,19.8-8.5,23.2-18.2,26v6.6h81.6v-6.6
			c-12.8-3.1-19.4-6.2-19.4-26V184.7c0-19.4,6.6-22.6,19.4-26v-6.6h-70.3L2945.6,281.4z M3207.4,327.6h-42
			c-13.2,0-16.3-0.3-16.3-13.2v-55.9h50.9c19.8,0,22.9,4.6,26,16.3h7.8v-55.9h-7.8c-3.1,11.6-6.2,16.7-26,16.7h-50.9v-47
			c0-9.7,3.1-12.9,16.3-12.9c0,0,32.6,0,35.7,0c22.9,0,34.9,5.9,52.5,24.4l5-3.5l-16.4-44.7h-155.4v6.6c12.9,3.5,19.4,6.6,19.4,26
			v134.1c0,19.8-6.6,22.9-19.4,26v6.6h162.8l18.7-46.7l-5.1-3.5C3247,322.5,3229.9,327.6,3207.4,327.6z M3414.8,158.7
			c11.6,3.5,18.3,6.6,18.3,26v81.6h-1.2L3331.7,152H3273v6.6c11.7,4.9,19.5,8.9,19.5,26v134.1c0,18.6-6.6,22.9-19.5,26v6.6h66.4
			v-6.6c-10.6-3.1-20.6-7.3-20.6-26V203h1.1L3452.4,354h7.1V184.7c0-19.4,9.7-22.6,17.5-26V152h-62.1L3414.8,158.7L3414.8,158.7z
			 M3495.2,152.1l-15.9,51.3l5.1,3.5c21.4-28.4,27.2-31.1,55.6-31.1c9.7,0,12.8,0.8,12.8,12.8v130.2c0,19.8-5.8,22.9-21.7,26v6.6
			h85.5v-6.6c-15.6-3.1-21.8-6.1-21.8-26V188.6c0-12,3.2-12.8,12.9-12.8c28.4,0,35.8,2.6,57.1,31.1l5.1-3.5l-15.9-51.3H3495.2z
			 M3779.5,230.5l-36.1-8.1c-20.6-4.7-27.2-10.6-27.2-23.3c0-14.7,11.6-24.5,37.2-24.5c28.7,0,51.3,13.6,67.6,32.4l4.9-3.5
			l-14.6-51.3h-9.4c0,4.3-2,9-5.8,9c-8.6-4.7-21.8-12-44.4-12c-40.5,0-72,20.9-72,59c0,29,17.5,47.3,55.5,55.9l34.1,7.8
			c22.8,4.9,31.1,13.2,31.1,27.6c0,19.8-15.8,30.2-42,30.2c-36.5,0-59.9-19-78.9-41.1l-5.1,3.5l15.8,59.4h9.8c0-3.1,3.1-9.7,7-9.7
			c8.9,4.3,24.2,13.2,52,13.2c46.8,0,80-23.2,80-62.9C3839.7,254.5,3819.1,239.4,3779.5,230.5z"/>
		<path class="st0" d="M464.2,149.9V90.5h-95.3l-12,59.9h34.3l-11,55.2h-34.3L334,265.3c-0.9,4.1-1.6,7-2,9.8
			c-2.8,18.3,5.2,17.4,30.8,17.4l-11.7,58.8h-44.9c-42.4,0-77-0.4-68-43.9c1.4-6.6,3.1-13.4,4.3-19.8l16-82.1h-33l11-55.2h33
			l12-59.9h-30.8V0H136.6v184H0c3.4,47.7,45.6,54.7,61,88.6c10.6,23.4,19.9,64.5,50.8,64.8c23.7,0.3,23.7-30.7,54.3-30.7
			c30.5,0,44,57.9,71.2,105.7c20.3,37.5,54.1,62.6,84.7,64.8c25.1,1.7,37.3-6.8,37.3-6.8c-6.8-13.6-10.2-27.3-10.2-47.7
			c0-30.7,23.7-61.3,50.9-81.8c37.3-27.2,78-37.6,91.5-40.9v-95.5C491.4,204.5,464.2,190,464.2,149.9z M308.7,292.5l40.1-202.1
			h-46.2l-40.1,202.1H308.7z M361.2,26.6H315l-8.8,44.6h46.2L361.2,26.6z"/>
	</g>
	<g>
		<g>
			<rect x="769.2" y="652.3" class="st0" width="243.3" height="842.5"/>
		</g>
		<g>
			<polygon class="st0" points="723.6,652.2 0,652.2 0,876.1 240.1,876.1 240.1,1494.7 483.5,1494.7 483.5,876.1 723.6,876.1 			"/>
		</g>
		<g>
			<path class="st0" d="M2442.6,644.8c-189.6,0-343.3,105.8-343.3,297.5c0,212.3,156.6,288.6,305.3,288.6
				c46.4,0,112.5-24.5,155.9-58.1c21.1,204.4-209.4,215.9-231.3,94.9h-212.3c35.3,190.3,201.8,243,331.8,242.6
				c172.6-0.5,337.1-137.9,337.1-471.1C2785.7,762.9,2632.2,644.8,2442.6,644.8z M2434.4,1064.9c-71.5,0-129.4-57.9-129.4-129.4
				s57.9-129.4,129.4-129.4s129.4,58,129.4,129.4C2563.9,1007,2505.9,1064.9,2434.4,1064.9z"/>
		</g>
		<g>
			<path class="st0" d="M1693.1,644.8c-189.6,0-343.3,105.8-343.3,297.5c0,212.3,156.6,288.6,305.3,288.6
				c46.4,0,112.5-24.5,155.9-58.1c21.1,204.4-209.4,215.9-231.3,94.9h-212.4c35.3,190.3,201.7,243,331.8,242.6
				c172.6-0.5,337.1-137.9,337.1-471.1C2036.1,762.9,1882.6,644.8,1693.1,644.8z M1684.8,1064.9c-71.5,0-129.4-57.9-129.4-129.4
				s57.9-129.4,129.4-129.4c71.5,0,129.4,58,129.4,129.4C1814.3,1007,1756.3,1064.9,1684.8,1064.9z"/>
		</g>
		<g>
			<rect x="1084.4" y="967.3" class="st0" width="193.5" height="159.4"/>
		</g>
		<g>
			<g>
				<g>
					<g>
						<path class="st0" d="M3733.1,1510.3h-244c-12.3,0-22.3-10-22.3-22.3v-164.7h-340.4c-12.3,0-22.3-10-22.3-22.3v-184.3
							c0-5.4,1.9-10.6,5.5-14.6l390.3-449.7c4.2-4.9,10.4-7.7,16.8-7.7h216.3c12.3,0,22.3,10,22.3,22.3v437.8h61.3
							c12.3,0,22.3,10,22.3,22.3V1301c0,12.3-10,22.3-22.3,22.3h-61.3V1488C3755.4,1500.3,3745.4,1510.3,3733.1,1510.3z
							 M3511.3,1465.7h199.4V1301c0-12.3,10-22.3,22.3-22.3h61.3v-129.2h-61.3c-12.3,0-22.3-10-22.3-22.3V689.4h-183.9l-378.2,435.7
							v153.6H3489c12.3,0,22.3,10,22.3,22.3V1465.7z"/>
					</g>
				</g>
				<g>
					<g>
						<path class="st0" d="M3489,1149.5h-229.6c-8.7,0-16.7-5.1-20.3-13c-3.6-7.9-2.3-17.3,3.5-23.9L3472.2,848
							c6.1-7,15.9-9.5,24.6-6.3c8.7,3.3,14.5,11.6,14.5,20.9v264.5C3511.3,1139.5,3501.4,1149.5,3489,1149.5z M3308.3,1104.9h158.4
							V922.4L3308.3,1104.9z"/>
					</g>
				</g>
			</g>
		</g>
		<g>
			<polygon class="st0" points="3124,689.4 2741.2,1510.3 2804.8,1510.3 3187.6,689.4 			"/>
		</g>
	</g>
</g>
</svg>
