<?xml version="1.0" encoding="utf-8"?>
<!-- Generator: Adobe Illustrator 26.3.1, SVG Export Plug-In . SVG Version: 6.00 Build 0)  -->
<svg version="1.1" xmlns="http://www.w3.org/2000/svg" xmlns:xlink="http://www.w3.org/1999/xlink" x="0px" y="0px"
	 viewBox="0 0 3839 590.6" style="enable-background:new 0 0 3839 590.6;" xml:space="preserve">
<style type="text/css">
	.st0{display:none;}
	.st1{display:inline;fill:#9F00A8;}
	.st2{display:inline;}
	.st3{fill:#FFFFFF;}
	.st4{fill:#2C376B;}
	.st5{fill:#5FA5F0;}
	.st6{fill:#1B1C2B;}
	.st7{display:inline;fill:#FFFFFF;}
	.st8{display:inline;fill:#2C376B;}
	.st9{display:inline;opacity:0.39;}
	.st10{fill:#606060;stroke:#FFFFFF;stroke-width:0.9229;stroke-miterlimit:10;}
	.st11{fill:#2C376B;stroke:#5364A5;stroke-miterlimit:10;}
	.st12{fill:#474747;}
	.st13{fill:#BFBFBF;}
</style>
<g id="tic80">
	<g>
		<g>
			<g>
				<rect x="36.9" class="st3" width="36.9" height="36.9"/>
				<rect x="73.8" class="st3" width="36.9" height="36.9"/>
				<rect x="110.7" class="st3" width="36.9" height="36.9"/>
				<rect x="147.7" class="st3" width="36.9" height="36.9"/>
				<rect x="184.6" class="st3" width="36.9" height="36.9"/>
				<rect x="221.5" class="st3" width="36.9" height="36.9"/>
				<rect x="258.4" class="st3" width="36.9" height="36.9"/>
				<rect x="295.3" class="st3" width="36.9" height="36.9"/>
				<rect x="332.2" class="st3" width="36.9" height="36.9"/>
				<rect x="369.1" class="st3" width="36.9" height="36.9"/>
				<rect x="406" class="st3" width="36.9" height="36.9"/>
				<rect x="443" class="st3" width="36.9" height="36.9"/>
			</g>
			<g>
				<rect y="36.9" class="st3" width="36.9" height="36.9"/>
				<rect x="36.9" y="36.9" class="st3" width="36.9" height="36.9"/>
				<rect x="443" y="36.9" class="st3" width="36.9" height="36.9"/>
				<rect x="479.9" y="36.9" class="st3" width="36.9" height="36.9"/>
			</g>
			<g>
				<rect y="73.8" class="st3" width="36.9" height="36.9"/>
				<rect x="479.9" y="73.8" class="st3" width="36.9" height="36.9"/>
			</g>
			<g>
				<rect y="110.7" class="st3" width="36.9" height="36.9"/>
				<rect x="479.9" y="110.7" class="st3" width="36.9" height="36.9"/>
			</g>
			<g>
				<rect y="147.7" class="st3" width="36.9" height="36.9"/>
				<rect x="73.8" y="147.7" class="st3" width="36.9" height="36.9"/>
				<rect x="110.7" y="147.7" class="st3" width="36.9" height="36.9"/>
				<rect x="147.7" y="147.7" class="st3" width="36.9" height="36.9"/>
				<rect x="184.6" y="147.7" class="st3" width="36.9" height="36.9"/>
				<rect x="221.5" y="147.7" class="st3" width="36.9" height="36.9"/>
				<rect x="258.4" y="147.7" class="st3" width="36.9" height="36.9"/>
				<rect x="295.3" y="147.7" class="st3" width="36.9" height="36.9"/>
				<rect x="332.2" y="147.7" class="st3" width="36.9" height="36.9"/>
				<rect x="369.1" y="147.7" class="st3" width="36.9" height="36.9"/>
				<rect x="479.9" y="147.7" class="st3" width="36.9" height="36.9"/>
				<rect x="516.8" y="147.7" class="st3" width="36.9" height="36.9"/>
				<rect x="553.7" y="147.7" class="st3" width="36.9" height="36.9"/>
			</g>
			<g>
				<rect y="184.6" class="st3" width="36.9" height="36.9"/>
				<rect x="73.8" y="184.6" class="st3" width="36.9" height="36.9"/>
				<rect x="110.7" y="184.6" class="st3" width="36.9" height="36.9"/>
				<rect x="184.6" y="184.6" class="st3" width="36.9" height="36.9"/>
				<rect x="221.5" y="184.6" class="st3" width="36.9" height="36.9"/>
				<rect x="258.4" y="184.6" class="st3" width="36.9" height="36.9"/>
				<rect x="332.2" y="184.6" class="st3" width="36.9" height="36.9"/>
				<rect x="369.1" y="184.6" class="st3" width="36.9" height="36.9"/>
				<rect x="479.9" y="184.6" class="st3" width="36.9" height="36.9"/>
				<rect x="553.7" y="184.6" class="st3" width="36.9" height="36.9"/>
			</g>
			<g>
				<rect y="221.5" class="st3" width="36.9" height="36.9"/>
				<rect x="73.8" y="221.5" class="st3" width="36.9" height="36.9"/>
				<rect x="110.7" y="221.5" class="st3" width="36.9" height="36.9"/>
				<rect x="184.6" y="221.5" class="st3" width="36.9" height="36.9"/>
				<rect x="221.5" y="221.5" class="st3" width="36.9" height="36.9"/>
				<rect x="258.4" y="221.5" class="st3" width="36.9" height="36.9"/>
				<rect x="332.2" y="221.5" class="st3" width="36.9" height="36.9"/>
				<rect x="369.1" y="221.5" class="st3" width="36.9" height="36.9"/>
				<rect x="479.9" y="221.5" class="st3" width="36.9" height="36.9"/>
				<rect x="553.7" y="221.5" class="st3" width="36.9" height="36.9"/>
			</g>
			<g>
				<rect y="258.4" class="st3" width="36.9" height="36.9"/>
				<rect x="73.8" y="258.4" class="st3" width="36.9" height="36.9"/>
				<rect x="110.7" y="258.4" class="st3" width="36.9" height="36.9"/>
				<rect x="184.6" y="258.4" class="st3" width="36.9" height="36.9"/>
				<rect x="221.5" y="258.4" class="st3" width="36.9" height="36.9"/>
				<rect x="258.4" y="258.4" class="st3" width="36.9" height="36.9"/>
				<rect x="332.2" y="258.4" class="st3" width="36.9" height="36.9"/>
				<rect x="369.1" y="258.4" class="st3" width="36.9" height="36.9"/>
				<rect x="479.9" y="258.4" class="st3" width="36.9" height="36.9"/>
				<rect x="553.7" y="258.4" class="st3" width="36.9" height="36.9"/>
			</g>
			<g>
				<rect y="295.3" class="st3" width="36.9" height="36.9"/>
				<rect x="73.8" y="295.3" class="st3" width="36.9" height="36.9"/>
				<rect x="110.7" y="295.3" class="st3" width="36.9" height="36.9"/>
				<rect x="147.7" y="295.3" class="st3" width="36.9" height="36.9"/>
				<rect x="184.6" y="295.3" class="st3" width="36.9" height="36.9"/>
				<rect x="221.5" y="295.3" class="st3" width="36.9" height="36.9"/>
				<rect x="258.4" y="295.3" class="st3" width="36.9" height="36.9"/>
				<rect x="295.3" y="295.3" class="st3" width="36.9" height="36.9"/>
				<rect x="332.2" y="295.3" class="st3" width="36.9" height="36.9"/>
				<rect x="369.1" y="295.3" class="st3" width="36.9" height="36.9"/>
				<rect x="516.8" y="295.3" class="st3" width="36.9" height="36.9"/>
				<rect x="553.7" y="295.3" class="st3" width="36.9" height="36.9"/>
			</g>
			<g>
				<rect y="332.2" class="st3" width="36.9" height="36.9"/>
				<rect x="479.9" y="332.2" class="st3" width="36.9" height="36.9"/>
				<rect x="516.8" y="332.2" class="st3" width="36.9" height="36.9"/>
			</g>
			<g>
				<rect y="369.1" class="st3" width="36.9" height="36.9"/>
				<rect x="147.7" y="369.1" class="st3" width="36.9" height="36.9"/>
				<rect x="295.3" y="369.1" class="st3" width="36.9" height="36.9"/>
				<rect x="479.9" y="369.1" class="st3" width="36.9" height="36.9"/>
			</g>
			<g>
				<rect y="406" class="st3" width="36.9" height="36.9"/>
				<rect x="184.6" y="406" class="st3" width="36.9" height="36.9"/>
				<rect x="221.5" y="406" class="st3" width="36.9" height="36.9"/>
				<rect x="258.4" y="406" class="st3" width="36.9" height="36.9"/>
				<rect x="479.9" y="406" class="st3" width="36.9" height="36.9"/>
			</g>
			<g>
				<rect y="443" class="st3" width="36.9" height="36.9"/>
				<rect x="479.9" y="443" class="st3" width="36.9" height="36.9"/>
			</g>
			<g>
				<rect y="479.9" class="st3" width="36.9" height="36.9"/>
				<rect x="443" y="479.9" class="st3" width="36.9" height="36.9"/>
				<rect x="479.9" y="479.9" class="st3" width="36.9" height="36.9"/>
			</g>
			<g>
				<rect y="516.8" class="st3" width="36.9" height="36.9"/>
				<rect x="36.9" y="516.8" class="st3" width="36.9" height="36.9"/>
				<rect x="184.6" y="516.8" class="st3" width="36.9" height="36.9"/>
				<rect x="221.5" y="516.8" class="st3" width="36.9" height="36.9"/>
				<rect x="258.4" y="516.8" class="st3" width="36.9" height="36.9"/>
				<rect x="406" y="516.8" class="st3" width="36.9" height="36.9"/>
				<rect x="443" y="516.8" class="st3" width="36.9" height="36.9"/>
			</g>
			<g>
				<rect x="36.9" y="553.7" class="st3" width="36.9" height="36.9"/>
				<rect x="73.8" y="553.7" class="st3" width="36.9" height="36.9"/>
				<rect x="110.7" y="553.7" class="st3" width="36.9" height="36.9"/>
				<rect x="147.7" y="553.7" class="st3" width="36.9" height="36.9"/>
				<rect x="184.6" y="553.7" class="st3" width="36.9" height="36.9"/>
				<rect x="258.4" y="553.7" class="st3" width="36.9" height="36.9"/>
				<rect x="295.3" y="553.7" class="st3" width="36.9" height="36.9"/>
				<rect x="332.2" y="553.7" class="st3" width="36.9" height="36.9"/>
				<rect x="369.1" y="553.7" class="st3" width="36.9" height="36.9"/>
				<rect x="406" y="553.7" class="st3" width="36.9" height="36.9"/>
			</g>
		</g>
		<g>
			<g>
				<rect x="885.9" y="184.6" class="st3" width="36.9" height="36.9"/>
				<rect x="849" y="184.6" class="st3" width="36.9" height="36.9"/>
				<rect x="775.2" y="184.6" class="st3" width="36.9" height="36.9"/>
				<rect x="738.3" y="184.6" class="st3" width="36.9" height="36.9"/>
				<rect x="701.4" y="184.6" class="st3" width="36.9" height="36.9"/>
				<rect x="922.8" y="184.6" class="st3" width="36.9" height="36.9"/>
				<rect x="1033.6" y="184.6" class="st3" width="36.9" height="36.9"/>
				<rect x="1070.5" y="184.6" class="st3" width="36.9" height="36.9"/>
				<rect x="1328.9" y="184.6" class="st3" width="36.9" height="36.9"/>
				<rect x="1365.8" y="184.6" class="st3" width="36.9" height="36.9"/>
				<rect x="1513.5" y="184.6" class="st3" width="36.9" height="36.9"/>
				<rect x="1550.4" y="184.6" class="st3" width="36.9" height="36.9"/>
				<rect x="1808.8" y="184.6" class="st3" width="36.9" height="36.9"/>
				<rect x="1919.5" y="184.6" class="st3" width="36.9" height="36.9"/>
				<rect x="3433" y="184.6" class="st3" width="36.9" height="36.9"/>
			</g>
			<g>
				<rect x="885.9" y="221.5" class="st3" width="36.9" height="36.9"/>
				<rect x="738.3" y="221.5" class="st3" width="36.9" height="36.9"/>
				<rect x="996.7" y="221.5" class="st3" width="36.9" height="36.9"/>
				<rect x="1292" y="221.5" class="st3" width="36.9" height="36.9"/>
				<rect x="1402.7" y="221.5" class="st3" width="36.9" height="36.9"/>
				<rect x="1476.5" y="221.5" class="st3" width="36.9" height="36.9"/>
				<rect x="1587.3" y="221.5" class="st3" width="36.9" height="36.9"/>
				<rect x="1808.8" y="221.5" class="st3" width="36.9" height="36.9"/>
				<rect x="1845.7" y="221.5" class="st3" width="36.9" height="36.9"/>
				<rect x="1993.3" y="221.5" class="st3" width="36.9" height="36.9"/>
				<rect x="2030.2" y="221.5" class="st3" width="36.9" height="36.9"/>
				<rect x="2067.2" y="221.5" class="st3" width="36.9" height="36.9"/>
				<rect x="2177.9" y="221.5" class="st3" width="36.9" height="36.9"/>
				<rect x="2288.6" y="221.5" class="st3" width="36.9" height="36.9"/>
				<rect x="2547" y="221.5" class="st3" width="36.9" height="36.9"/>
				<rect x="2583.9" y="221.5" class="st3" width="36.9" height="36.9"/>
				<rect x="2694.7" y="221.5" class="st3" width="36.9" height="36.9"/>
				<rect x="2731.6" y="221.5" class="st3" width="36.9" height="36.9"/>
				<rect x="2842.3" y="221.5" class="st3" width="36.9" height="36.9"/>
				<rect x="2879.2" y="221.5" class="st3" width="36.9" height="36.9"/>
				<rect x="2916.2" y="221.5" class="st3" width="36.9" height="36.9"/>
				<rect x="2953.1" y="221.5" class="st3" width="36.9" height="36.9"/>
				<rect x="3063.8" y="221.5" class="st3" width="36.9" height="36.9"/>
				<rect x="3100.7" y="221.5" class="st3" width="36.9" height="36.9"/>
				<rect x="3137.6" y="221.5" class="st3" width="36.9" height="36.9"/>
				<rect x="3248.4" y="221.5" class="st3" width="36.9" height="36.9"/>
				<rect x="3359.1" y="221.5" class="st3" width="36.9" height="36.9"/>
				<rect x="3433" y="221.5" class="st3" width="36.9" height="36.9"/>
				<rect x="3469.9" y="221.5" class="st3" width="36.9" height="36.9"/>
				<rect x="3580.6" y="221.5" class="st3" width="36.9" height="36.9"/>
				<rect x="3617.5" y="221.5" class="st3" width="36.9" height="36.9"/>
				<rect x="3728.3" y="221.5" class="st3" width="36.9" height="36.9"/>
				<rect x="3802.1" y="221.5" class="st3" width="36.9" height="36.9"/>
			</g>
			<g>
				<rect x="885.9" y="258.4" class="st3" width="36.9" height="36.9"/>
				<rect x="738.3" y="258.4" class="st3" width="36.9" height="36.9"/>
				<rect x="996.7" y="258.4" class="st3" width="36.9" height="36.9"/>
				<rect x="1144.3" y="258.4" class="st3" width="36.9" height="36.9"/>
				<rect x="1181.2" y="258.4" class="st3" width="36.9" height="36.9"/>
				<rect x="1218.1" y="258.4" class="st3" width="36.9" height="36.9"/>
				<rect x="1328.9" y="258.4" class="st3" width="36.9" height="36.9"/>
				<rect x="1365.8" y="258.4" class="st3" width="36.9" height="36.9"/>
				<rect x="1476.5" y="258.4" class="st3" width="36.9" height="36.9"/>
				<rect x="1587.3" y="258.4" class="st3" width="36.9" height="36.9"/>
				<rect x="1808.8" y="258.4" class="st3" width="36.9" height="36.9"/>
				<rect x="1919.5" y="258.4" class="st3" width="36.9" height="36.9"/>
				<rect x="1993.3" y="258.4" class="st3" width="36.9" height="36.9"/>
				<rect x="2104.1" y="258.4" class="st3" width="36.9" height="36.9"/>
				<rect x="2177.9" y="258.4" class="st3" width="36.9" height="36.9"/>
				<rect x="2288.6" y="258.4" class="st3" width="36.9" height="36.9"/>
				<rect x="2510.1" y="258.4" class="st3" width="36.9" height="36.9"/>
				<rect x="2657.8" y="258.4" class="st3" width="36.9" height="36.9"/>
				<rect x="2768.5" y="258.4" class="st3" width="36.9" height="36.9"/>
				<rect x="2842.3" y="258.4" class="st3" width="36.9" height="36.9"/>
				<rect x="2916.2" y="258.4" class="st3" width="36.9" height="36.9"/>
				<rect x="2990" y="258.4" class="st3" width="36.9" height="36.9"/>
				<rect x="3063.8" y="258.4" class="st3" width="36.9" height="36.9"/>
				<rect x="3174.6" y="258.4" class="st3" width="36.9" height="36.9"/>
				<rect x="3248.4" y="258.4" class="st3" width="36.9" height="36.9"/>
				<rect x="3359.1" y="258.4" class="st3" width="36.9" height="36.9"/>
				<rect x="3433" y="258.4" class="st3" width="36.9" height="36.9"/>
				<rect x="3543.7" y="258.4" class="st3" width="36.9" height="36.9"/>
				<rect x="3617.5" y="258.4" class="st3" width="36.9" height="36.9"/>
				<rect x="3654.4" y="258.4" class="st3" width="36.9" height="36.9"/>
				<rect x="3728.3" y="258.4" class="st3" width="36.9" height="36.9"/>
				<rect x="3765.2" y="258.4" class="st3" width="36.9" height="36.9"/>
			</g>
			<g>
				<rect x="885.9" y="295.3" class="st3" width="36.9" height="36.9"/>
				<rect x="738.3" y="295.3" class="st3" width="36.9" height="36.9"/>
				<rect x="996.7" y="295.3" class="st3" width="36.9" height="36.9"/>
				<rect x="1292" y="295.3" class="st3" width="36.9" height="36.9"/>
				<rect x="1402.7" y="295.3" class="st3" width="36.9" height="36.9"/>
				<rect x="1476.5" y="295.3" class="st3" width="36.9" height="36.9"/>
				<rect x="1587.3" y="295.3" class="st3" width="36.9" height="36.9"/>
				<rect x="1808.8" y="295.3" class="st3" width="36.9" height="36.9"/>
				<rect x="1919.5" y="295.3" class="st3" width="36.9" height="36.9"/>
				<rect x="1993.3" y="295.3" class="st3" width="36.9" height="36.9"/>
				<rect x="2104.1" y="295.3" class="st3" width="36.9" height="36.9"/>
				<rect x="2177.9" y="295.3" class="st3" width="36.9" height="36.9"/>
				<rect x="2288.6" y="295.3" class="st3" width="36.9" height="36.9"/>
				<rect x="2510.1" y="295.3" class="st3" width="36.9" height="36.9"/>
				<rect x="2657.8" y="295.3" class="st3" width="36.9" height="36.9"/>
				<rect x="2768.5" y="295.3" class="st3" width="36.9" height="36.9"/>
				<rect x="2842.3" y="295.3" class="st3" width="36.9" height="36.9"/>
				<rect x="2916.2" y="295.3" class="st3" width="36.9" height="36.9"/>
				<rect x="2990" y="295.3" class="st3" width="36.9" height="36.9"/>
				<rect x="3063.8" y="295.3" class="st3" width="36.9" height="36.9"/>
				<rect x="3174.6" y="295.3" class="st3" width="36.9" height="36.9"/>
				<rect x="3248.4" y="295.3" class="st3" width="36.9" height="36.9"/>
				<rect x="3359.1" y="295.3" class="st3" width="36.9" height="36.9"/>
				<rect x="3433" y="295.3" class="st3" width="36.9" height="36.9"/>
				<rect x="3543.7" y="295.3" class="st3" width="36.9" height="36.9"/>
				<rect x="3580.6" y="295.3" class="st3" width="36.9" height="36.9"/>
				<rect x="3728.3" y="295.3" class="st3" width="36.9" height="36.9"/>
			</g>
			<g>
				<rect x="885.9" y="332.2" class="st3" width="36.9" height="36.9"/>
				<rect x="849" y="332.2" class="st3" width="36.9" height="36.9"/>
				<rect x="738.3" y="332.2" class="st3" width="36.9" height="36.9"/>
				<rect x="922.8" y="332.2" class="st3" width="36.9" height="36.9"/>
				<rect x="1033.6" y="332.2" class="st3" width="36.9" height="36.9"/>
				<rect x="1070.5" y="332.2" class="st3" width="36.9" height="36.9"/>
				<rect x="1328.9" y="332.2" class="st3" width="36.9" height="36.9"/>
				<rect x="1365.8" y="332.2" class="st3" width="36.9" height="36.9"/>
				<rect x="1513.5" y="332.2" class="st3" width="36.9" height="36.9"/>
				<rect x="1550.4" y="332.2" class="st3" width="36.9" height="36.9"/>
				<rect x="1845.7" y="332.2" class="st3" width="36.9" height="36.9"/>
				<rect x="1919.5" y="332.2" class="st3" width="36.9" height="36.9"/>
				<rect x="1993.3" y="332.2" class="st3" width="36.9" height="36.9"/>
				<rect x="2104.1" y="332.2" class="st3" width="36.9" height="36.9"/>
				<rect x="2214.8" y="332.2" class="st3" width="36.9" height="36.9"/>
				<rect x="2251.7" y="332.2" class="st3" width="36.9" height="36.9"/>
				<rect x="2288.6" y="332.2" class="st3" width="36.9" height="36.9"/>
				<rect x="2547" y="332.2" class="st3" width="36.9" height="36.9"/>
				<rect x="2583.9" y="332.2" class="st3" width="36.9" height="36.9"/>
				<rect x="2694.7" y="332.2" class="st3" width="36.9" height="36.9"/>
				<rect x="2731.6" y="332.2" class="st3" width="36.9" height="36.9"/>
				<rect x="2842.3" y="332.2" class="st3" width="36.9" height="36.9"/>
				<rect x="2916.2" y="332.2" class="st3" width="36.9" height="36.9"/>
				<rect x="2990" y="332.2" class="st3" width="36.9" height="36.9"/>
				<rect x="3063.8" y="332.2" class="st3" width="36.9" height="36.9"/>
				<rect x="3100.7" y="332.2" class="st3" width="36.9" height="36.9"/>
				<rect x="3137.6" y="332.2" class="st3" width="36.9" height="36.9"/>
				<rect x="3285.3" y="332.2" class="st3" width="36.9" height="36.9"/>
				<rect x="3322.2" y="332.2" class="st3" width="36.9" height="36.9"/>
				<rect x="3359.1" y="332.2" class="st3" width="36.9" height="36.9"/>
				<rect x="3469.9" y="332.2" class="st3" width="36.9" height="36.9"/>
				<rect x="3580.6" y="332.2" class="st3" width="36.9" height="36.9"/>
				<rect x="3617.5" y="332.2" class="st3" width="36.9" height="36.9"/>
				<rect x="3728.3" y="332.2" class="st3" width="36.9" height="36.9"/>
			</g>
			<g>
				<rect x="2288.6" y="369.1" class="st3" width="36.9" height="36.9"/>
				<rect x="3063.8" y="369.1" class="st3" width="36.9" height="36.9"/>
			</g>
			<g>
				<rect x="2214.8" y="406" class="st3" width="36.9" height="36.9"/>
				<rect x="2251.7" y="406" class="st3" width="36.9" height="36.9"/>
				<rect x="3063.8" y="406" class="st3" width="36.9" height="36.9"/>
			</g>
		</g>
	</g>
</g>
<g id="Layer_2">
</g>
</svg>
