<?xml version="1.0" encoding="utf-8"?>
<!-- Generator: Adobe Illustrator 26.5.0, SVG Export Plug-In . SVG Version: 6.00 Build 0)  -->
<svg version="1.1" id="Layer_1" xmlns="http://www.w3.org/2000/svg" xmlns:xlink="http://www.w3.org/1999/xlink" x="0px" y="0px"
	 viewBox="0 0 2237.8 2199" style="enable-background:new 0 0 2237.8 2199;" xml:space="preserve">
<style type="text/css">
	.st0{display:none;}
	.st1{display:inline;}
	.st2{fill:none;stroke:#231F20;stroke-width:1.9023;stroke-miterlimit:10;}
	.st3{fill:#3E96FF;}
	.st4{fill:#FF3C22;}
	.st5{fill:#3C8929;}
	.st6{fill:#FFC200;}
	.st7{fill:none;stroke:#231F20;stroke-width:1.2267;stroke-miterlimit:10;}
	.st8{fill:none;stroke:#231F20;stroke-width:1.6305;stroke-miterlimit:10;}
	.st9{fill:none;stroke:#231F20;stroke-width:1.5509;stroke-miterlimit:10;}
	.st10{fill:none;stroke:#231F20;stroke-width:4.1843;stroke-miterlimit:10;}
	.st11{fill:none;stroke:#231F20;stroke-width:4.3996;stroke-miterlimit:10;}
	.st12{fill:none;stroke:#231F20;stroke-width:3.8067;stroke-miterlimit:10;}
	.st13{fill:#FFFFFF;}
</style>
<g>
	<g>
		<g>
			<path class="st13" d="M1911.6,492.1c-32.7-39.6-71.9-76.2-116.5-108.8c-53.5-39.1-115.4-72.8-184-100.2
				c-82.4-32.9-186.2-50.3-308.6-51.5c-0.1,0-0.3,0-0.4,0c-2.5,0-5,0.2-7.4,0.7c-2.5-0.5-5.1-0.8-7.7-0.8c0,0,0,0,0,0c0,0,0,0,0,0
				c0,0,0,0-0.1,0c0,0,0,0,0,0c-38.6,0-79.3,1.6-121.1,4.7c-7.2-7-17.1-11.4-27.9-11.4h0c-0.3,0-0.7,0-1,0l-90.9,2
				c0.2-1.4,0.2-2.9,0.2-4.3c0-22.1-17.9-40-40-40h0c-0.3,0-0.7,0-1,0l-82.5,1.8c0.2-1.5,0.2-2.9,0.2-4.4c0-21.9-17.7-39.8-39.6-40
				c-0.1,0-0.3,0-0.4,0c-0.2,0-0.3,0-0.5,0c0,0,0,0,0,0c0,0,0,0,0,0c-0.2,0-0.3,0-0.5,0l-67.9,1.5l6.4-15.9
				c2.1-4.8,3.2-10.2,3.2-15.8c0-21.9-17.7-39.8-39.6-40c-0.1,0-0.3,0-0.4,0c-0.2,0-0.3,0-0.5,0c0,0,0,0,0,0c0,0,0,0,0,0
				c-0.2,0-0.3,0-0.5,0L714,71.3l6.2-15.6c2.1-4.8,3.2-10.2,3.2-15.8c0-21.9-17.7-39.8-39.6-40c-0.1,0-0.3,0-0.4,0
				c-0.2,0-0.3,0-0.5,0c0,0,0,0,0,0c0,0,0,0,0,0c-0.2,0-0.3,0-0.5,0l-52,1.1c-16,0.4-30.3,10.3-36.3,25.2l-14.9,37.4
				c-5,12.5-3.4,26.6,4.3,37.6c7.5,10.8,19.8,17.2,32.9,17.2c0.3,0,0.6,0,0.9,0l51.9-1.1l-8.9,22.2c-0.8,2-1.4,4.1-1.9,6.3
				c-7.2-9.7-18.7-16.1-31.8-16.2c-0.1,0-0.3,0-0.4,0c-0.1,0-0.3,0-0.4,0c-0.2,0-0.4,0-0.6,0l-41.2,0.9c-16,0.4-30.3,10.3-36.3,25.2
				l-13.3,33.4c-5,12.5-3.4,26.6,4.3,37.6c7.5,10.8,19.8,17.2,32.9,17.2c0.3,0,0.6,0,0.9,0l41.3-0.9c4.9-0.1,9.7-1.1,14.1-2.9
				l-11.3,28.2c-0.4,1-0.8,2.1-1.1,3.1c-6.2-13.8-20-23.4-36-23.6c-0.1,0-0.3,0-0.4,0c-0.2,0-0.3,0-0.5,0c0,0,0,0,0,0c0,0,0,0,0,0
				c-0.2,0-0.3,0-0.5,0l-41.2,0.9c-16,0.4-30.3,10.3-36.3,25.2l-13.3,33.4c-5,12.5-3.4,26.6,4.3,37.6c7.5,10.8,19.8,17.2,32.9,17.2
				c0.3,0,0.6,0,0.9,0l41.3-0.9c4.9-0.1,9.7-1.1,14.1-2.9l-10.9,27.3c-7.1-10.6-19.1-17.5-32.8-17.7c-0.1,0-0.3,0-0.4,0
				c-0.2,0-0.3,0-0.5,0c0,0,0,0,0,0c0,0,0,0,0,0c-0.2,0-0.3,0-0.5,0l-52,1.1c-16,0.4-30.3,10.3-36.3,25.2l-14.9,37.4
				c-5,12.5-3.4,26.6,4.3,37.6c7.5,10.8,19.8,17.2,32.9,17.2c0.3,0,0.6,0,0.9,0l51.9-1.1l-8.9,22.2c-0.8,2-1.4,4.1-1.9,6.3
				c-7.2-9.7-18.7-16.1-31.8-16.2c0,0,0,0,0,0c0,0,0,0,0,0c-0.1,0-0.3,0-0.4,0c-0.1,0-0.3,0-0.4,0c-0.2,0-0.4,0-0.6,0l-41.2,0.9
				c-16,0.4-30.3,10.3-36.3,25.2L387.3,557c-5,12.5-3.4,26.6,4.3,37.6c7.5,10.8,19.8,17.2,32.9,17.2c0.3,0,0.6,0,0.9,0l41.3-0.9
				c4.9-0.1,9.7-1.1,14.1-2.9l-11.3,28.2c-0.4,0.9-0.7,1.9-1,2.8c-6.2-13.8-20-23.4-36-23.6c-0.1,0-0.3,0-0.4,0c-0.1,0-0.3,0-0.4,0
				c-0.2,0-0.4,0-0.6,0l-41.2,0.9c-16,0.4-30.3,10.3-36.3,25.2L340.2,675c-5,12.5-3.4,26.6,4.3,37.6c7.5,10.8,19.8,17.2,32.9,17.2
				c0.3,0,0.6,0,0.9,0l41.3-0.9c4.9-0.1,9.7-1.1,14.1-2.9l-10.9,27.3c-7.1-10.6-19.1-17.5-32.8-17.7c-0.1,0-0.3,0-0.4,0
				c-0.2,0-0.3,0-0.5,0c0,0,0,0,0,0c0,0,0,0,0,0c-0.2,0-0.3,0-0.5,0l-52,1.1c-16,0.4-30.3,10.3-36.3,25.2l-14.9,37.4
				c-5,12.5-3.4,26.6,4.3,37.6c7.5,10.8,19.8,17.2,32.9,17.2c0.3,0,0.6,0,0.9,0l51.9-1.1l-8.9,22.2c-5,12.5-3.4,26.6,4.3,37.6
				c7.5,10.8,19.8,17.2,32.9,17.2c0.3,0,0.6,0,0.9,0l47.4-1l-10.5,26.3c-5,12.5-3.4,26.6,4.3,37.6c7.5,10.8,19.8,17.2,32.9,17.2
				c0.3,0,0.6,0,0.9,0l60.5-1.3l-1.5,3.7c-5,12.5-3.4,26.6,4.3,37.6c7.5,10.8,19.8,17.2,32.9,17.2c0.3,0,0.6,0,0.9,0l75.1-1.7
				l-4.3,10.9c-5,12.5-3.4,26.6,4.3,37.6c7.5,10.8,19.8,17.2,32.9,17.2c0.3,0,0.6,0,0.9,0l85-1.9c-0.8,9.6,1.8,19.3,7.7,27.2
				c7.6,10.2,19.5,16.2,32.2,16.2c1.1,0,2.2,0,3.3-0.1c45.8-3.8,90.2-5.7,131.9-5.8c2.5,0,5-0.2,7.4-0.7c2.4,0.5,4.9,0.7,7.4,0.8
				c112.5,1.2,206.6,16.6,279.8,45.8c62.4,24.9,118.4,55.4,166.5,90.5c39.2,28.7,73.5,60.7,102,95.1c7.7,9.3,19,14.5,30.9,14.5
				c2,0,4.1-0.2,6.2-0.5c14-2.2,25.7-11.6,31-24.7l341.7-855.5C1923.3,518.9,1920.9,503.4,1911.6,492.1z M612.8,203l-41.3,0.9
				l13.4-33.4l41.3-0.9L612.8,203z M565.5,321.2l-41.3,0.9l13.3-33.4l41.3-0.9L565.5,321.2z M465.8,571l-41.3,0.9l13.4-33.4
				l41.3-0.9L465.8,571z M418.7,688.9l-41.3,0.9l13.3-33.4l41.3-0.9L418.7,688.9z M374.6,813l-52.2,1.1l14.9-37.4l52.2-1.1
				L374.6,813z M1151.7,277.4c44.4-3.7,89.9-5.9,135.2-5.9L1238,393.8l-133.8,2.5L1151.7,277.4z M556.9,800.4l72.7-1.6L611,845.4
				l-72.7,1.6L556.9,800.4z M540.5,690.4l17.5-0.4l-3,7.6C550.7,694.3,545.8,691.8,540.5,690.4z M585.4,729l18.6-46.6l72.7-1.6
				l-18.6,46.6L585.4,729z M607.9,642.4l1.3-3.3c3.4,1.5,7.1,2.5,10.9,3L607.9,642.4z M735.7,547.9l-21,52.6l-89.4,2l21-52.6
				L735.7,547.9z M650.8,440.4l6.9-0.1l-1.2,2.9C654.7,442.1,652.8,441.2,650.8,440.4z M703.8,432.7l72.7-1.6l-18.6,46.6l-72.7,1.6
				L703.8,432.7z M686.4,322.5l18.5-0.4l-3.1,7.9C697.3,326.4,692.1,323.8,686.4,322.5z M707.6,392.6L707.6,392.6
				c0.1-0.1,0.1,0,0.1,0L707.6,392.6z M823.7,312.9l-18.6,46.6l-72.7,1.6l18.6-46.6L823.7,312.9z M754.9,274.4l1.3-3.3
				c3.4,1.5,7.1,2.5,10.9,3L754.9,274.4z M852.2,360.9l94.7-2.1l-24,60.2l-94.7,2.1L852.2,360.9z M828.9,273.3l4.7-0.1l-0.4,0.9
				C831.8,273.7,830.4,273.5,828.9,273.3z M705.2,728.8l94.7-2.1l-24,60.2l-94.7,2.1L705.2,728.8z M681.9,641.2l4.7-0.1l-0.4,0.9
				C684.9,641.7,683.4,641.4,681.9,641.2z M722.3,659.6l26.7-66.7l110.1-2.4l-26.7,66.7L722.3,659.6z M823.4,771.6l105.3-2.3
				l-29.2,73l-105.6,3.3L823.4,771.6z M831.1,723.7l35.2-88.2l124.5-2.7l-35.2,88.2L831.1,723.7z M893.5,596.1l29.6-74.2l105.3-2.3
				l-29.6,74.2L893.5,596.1z M940.7,477.9l29.6-74.2l105.3-2.3l-29.6,74.2L940.7,477.9z M899.7,477l-24,60.2l-94.7,2.1l24-60.2
				L899.7,477z M658.1,846.8l94.7-2.1l-24,60.2L634,907L658.1,846.8z M776.2,889.5l105.3-2.3l-29.6,74.2l-105.3,2.3L776.2,889.5z
				 M907.1,889.6l133.8-2.5l-41.6,104.3l-133.8,2.5L907.1,889.6z M913.2,874.3l41.6-104.3l133.8-2.5L1047,871.8L913.2,874.3z
				 M961,754.8l41.6-104.3l133.8-2.5l-41.6,104.3L961,754.8z M1008.7,635.3l41.6-104.3l133.8-2.5l-41.6,104.3L1008.7,635.3z
				 M1056.4,515.9l41.6-104.3l133.8-2.5l-41.6,104.3L1056.4,515.9z M1013.3,267.6l124.5-2.7l-35.2,88.2l-124.5,2.7L1013.3,267.6z
				 M895.9,225l110.1-2.4l-26.7,66.7l-110.1,2.4L895.9,225z M793.3,181.9l89.4-2l-21,52.6l-89.4,2L793.3,181.9z M714.6,111.3
				l68.8-1.5l-17.2,43.1l-68.8,1.5L714.6,111.3z M668.5,77.4l-52.2,1.1l14.9-37.4l52.2-1.1L668.5,77.4z M662.9,185.4
				c1-2.3,1.8-4.7,2.3-7.2c7.5,10.2,19.5,16.3,32.2,16.3c0.3,0,0.6,0,0.9,0l47.4-1l-5.2,13.1c-4.8-2.1-10.1-3.3-15.6-3.4
				c-0.1,0-0.3,0-0.4,0c-0.2,0-0.3,0-0.5,0c0,0,0,0,0,0c0,0,0,0,0,0c-0.2,0-0.3,0-0.5,0l-55,1.2c-4.9,0.1-9.7,1.1-14.1,2.9
				L662.9,185.4z M669.1,244.4l55.2-1.2L708.8,282l-55.2,1.2L669.1,244.4z M615.7,303.6c0.6-1.3,1-2.6,1.5-4c1,2.2,2.2,4.4,3.6,6.4
				c5.7,8.2,14.1,13.8,23.5,16.1l-23.2,0.5c-4.9,0.1-9.7,1.1-14.1,2.9L615.7,303.6z M621.9,362.6l55.2-1.2l-15.5,38.8l-55.1,1.2
				L621.9,362.6z M573.2,423.7C573.2,423.7,573.2,423.6,573.2,423.7c0.1,0.1,0.2,0.3,0.3,0.4c4.7,6.7,11.2,11.8,18.6,14.6l-25.2,0.6
				L573.2,423.7z M567.6,479.2l68.8-1.5l-17.2,43.1l-68.8,1.5L567.6,479.2z M521.5,445.3l-52.2,1.1l14.9-37.4l52.2-1.1L521.5,445.3z
				 M515.9,553.3c1-2.3,1.8-4.7,2.3-7.2c7.5,10.2,19.5,16.3,32.2,16.3c0.3,0,0.6,0,0.9,0l47.4-1l-5.2,13.1
				c-4.8-2.1-10.1-3.3-15.6-3.4c-0.1,0-0.3,0-0.4,0c-0.2,0-0.3,0-0.5,0c0,0,0,0,0,0c0,0,0,0,0,0c-0.2,0-0.3,0-0.5,0l-55,1.2
				c-4.9,0.1-9.7,1.1-14.1,2.9L515.9,553.3z M522.1,612.3l55.2-1.2l-15.5,38.8l-55.2,1.2L522.1,612.3z M468.8,671.3
				c0.5-1.2,1-2.5,1.4-3.7c1,2.2,2.2,4.3,3.6,6.4c5.5,7.9,13.6,13.5,22.7,15.9l-22.3,0.5c-4.9,0.1-9.7,1.1-14.1,2.9L468.8,671.3z
				 M475,730.2l55.2-1.2l-15.5,38.8l-55.2,1.2L475,730.2z M510.8,807.9l-1.2,2.9c-1.8-1.1-3.7-2-5.7-2.8L510.8,807.9z M426.3,791.4
				C426.3,791.4,426.3,791.4,426.3,791.4c0.1,0.1,0.2,0.3,0.3,0.5c4.6,6.7,11.1,11.7,18.5,14.5l-25,0.6L426.3,791.4z M472.3,888.5
				l-68.8,1.5l17.2-43.1l68.8-1.5L472.3,888.5z M567.8,968.1l-89.4,2l21-52.6l89.4-2L567.8,968.1z M575.4,1027.3l26.7-66.7
				l110.1-2.4l-26.7,66.7L575.4,1027.3z M808.7,1088.6l-124.5,2.7l35.2-88.2l124.5-2.7L808.7,1088.6z M945.1,1127
				c-45.3,0-90.7,2.2-135.2,5.9l49.5-123.8l133.8-2.5L945.1,1127z M1539,1373.1c-54.1-65.6-142.3-140.5-284.5-197.3
				c-85.9-34.3-189.2-47.6-294.2-48.7l48-120.1l0,0l108.8-272.4l0,0l28-70.1l0,0l108.2-271.2c0,0,0.1,0,0.1,0l48.6-121.7
				c105,1.1,208.3,14.4,294.2,48.7c142.1,56.8,230.3,131.7,284.5,197.3L1539,1373.1z"/>
		</g>
		<g>
			<path class="st13" d="M1550.8,432.7l-108.3,271.2c0.2,0.1,0.4,0.1,0.5,0.2c74.9,29.9,137.8,67.5,187.8,112.1l108.3-271.2
				c-50-44.6-112.9-82.2-187.8-112.1C1551.1,432.9,1550.9,432.8,1550.8,432.7z"/>
		</g>
		<g>
			<path class="st13" d="M1370.2,682.2l1.3-3.4l107-267.8c-62.9-13.9-138.8-19.9-225-17.7l-108.3,271.2
				C1231.4,662.4,1307.3,668.3,1370.2,682.2z"/>
		</g>
		<g>
			<path class="st13" d="M1414.4,774.1L1299,1062.8c0.2,0.1,0.4,0.1,0.5,0.2c71.2,28.4,135.2,62.7,191.6,102.6l111.6-279.3
				c-50-44.6-112.9-82.2-187.8-112.1C1414.8,774.2,1414.6,774.1,1414.4,774.1z"/>
		</g>
		<g>
			<path class="st13" d="M1232.2,1027.5l109.9-275.2c-62.9-13.9-138.8-19.9-225-17.7L1008.3,1007c81.2,3.6,154.4,14.3,219.3,32.1
				L1232.2,1027.5z"/>
		</g>
	</g>
	<path class="st13" d="M2135.4,1648.2c-51.5-54.1-61-94.2-61-141.7c0-109,36.7-136,52.2-136c21.5,0,43.2,17.3,58.9,54.1
		c15.7,36.8,27,98.4,30.1,152.1h8.3v-231.3h-8.3c-4,24.5-10,36.8-17.9,36.8c-4.5,0-9.7-2.7-15.7-8c-23.4-19.9-32.8-29.8-56.6-29.8
		c-60.7,0-91.5,109-91.5,199.3c0,118.7,31.2,165.3,89.5,219.1c64.4,59.5,68.8,123.5,68.8,179.3c0,32.5-17,123.6-58,123.6
		c-59.8,0-90.4-143.1-90.4-208.1h-8.3v235.7h8.3c4.3-24.5,10.5-36.8,18.6-36.8c9.1,0,29.4,35,75.9,35c56.3,0,99.5-107.5,99.5-191.4
		C2237.8,1728.1,2187.7,1703.2,2135.4,1648.2z"/>
	<g>
		<path class="st13" d="M23.6,1760.5c2.7-1.9,4.1-4.3,4.1-7s-1.4-5.1-4.1-7c-2.7-1.9-6-2.9-9.8-2.9s-7.1,1-9.8,2.9
			c-2.7,1.9-4,4.2-4,7c0,2.8,1.3,5.1,4,7.1c2.7,1.9,5.9,2.9,9.8,2.9S20.9,1762.5,23.6,1760.5z"/>
		<path class="st13" d="M184.4,1676.8c-8.9-7-21.5-11.7-38-14.1l-1.9,2.8c11,3.4,18.6,6.9,22.8,10.4c6.1,5.1,9.1,10.8,9.1,17.1
			c0,8.9-5.7,16-17.1,21.2c-11.4,5.2-24.6,7.8-39.5,7.8c-14.6,0-26.4-2.6-35.3-7.9c-6.7-4-10.1-9.2-10.1-15.7c0-4,1.4-7.2,4.1-9.5
			c2.8-2.3,6.9-3.6,12.3-3.9c5.4-0.4,9-1.1,10.9-2.2c3.5-1.9,5.2-4.8,5.2-8.7c0-2.9-1.1-5.1-3.2-6.7c-2.1-1.6-4.9-2.4-8.4-2.4
			c-7,0-13.8,2.8-20.3,8.5c-6.5,5.7-9.8,12.9-9.8,21.6c0,11.7,6.1,21.7,18.4,30.1c12.3,8.3,28.2,12.5,47.9,12.5
			c20.3,0,36.4-3.8,48.3-11.3c11.9-7.5,17.9-16.4,17.9-26.5C197.7,1691.6,193.3,1683.9,184.4,1676.8z"/>
		<path class="st13" d="M88.4,1614.5c3.1-2.8,4.7-5.4,4.7-7.6c0-2.3-1.2-4.4-3.7-6c-2.5-1.7-5.5-2.5-9-2.5c-4,0-7.5,1.2-10.6,3.5
			c-3,2.3-4.6,5.3-4.6,8.9c0,7.9,9.4,15.5,28.1,23H65.3v4.1l15.3,27l4.9-1c-1.4-2.5-2-4.8-2-6.8c0-1.7,0.6-3.1,1.9-4.2
			c1.3-1.1,3.3-1.9,6.1-2.3c2.8-0.4,11.4-0.6,26-0.6h48.4c7.3,0,11.7,0.2,13.2,0.5c3.2,0.7,5.5,1.8,7,3.4c2,2.2,3,5.6,3,10.1h4.9
			V1618H189c0,4-0.8,7.1-2.5,9.3s-3.7,3.6-6.1,4.5c-3.5,1.2-8.8,1.9-15.7,1.9h-59.9c-8.5-3.1-14.7-6.1-18.4-9.1
			c-1.8-1.4-2.7-2.6-2.7-3.8C83.7,1619.4,85.3,1617.3,88.4,1614.5z"/>
		<path class="st13" d="M163.1,1526.2c-11.5-3.8-22.8-5.7-34-5.7c-15.9,0-30,3.5-42.3,10.4c-14.4,8.2-21.5,19-21.5,32.5
			c0,7.4,2.7,14.4,8.1,21c5.4,6.6,13.8,12,25.1,16c11.3,4.1,22.7,6.1,34.2,6.1c15.7,0,29.9-3.3,42.5-10c15-7.9,22.5-18.6,22.5-32.1
			c0-8.2-2.9-15.7-8.7-22.5C183.2,1535.3,174.6,1530,163.1,1526.2z M168.3,1580.7c-13.2,5.2-28.9,7.7-47,7.7
			c-11.3,0-20.5-1.1-27.7-3.2c-7.2-2.1-12.2-5-15.1-8.4c-2.9-3.5-4.3-6.9-4.3-10.4c0-7.1,4.4-13,13.1-17.6
			c12.7-6.8,30.2-10.2,52.4-10.2c17.7,0,30.2,2,37.5,6.1c7.3,4.1,10.9,9.3,10.9,15.6C188.1,1568.7,181.5,1575.5,168.3,1580.7z"/>
		<path class="st13" d="M187.3,1465.8c-7-6.1-16.1-9.2-27.5-9.2c-14.7,0-26.6,6.6-35.6,19.8l-9.7,14.2c-4.2,6.2-8.1,10.3-11.9,12.3
			c-3.6,2.1-8,3.1-13.1,3.1c-4.1,0-7.8-1.4-11.2-4.2c-3.4-2.8-5-6.5-5-11c0-6,2.4-10.9,7.2-14.8c4.8-3.9,13.9-7,27.3-9.5v-3.2H65.3
			v3.2c2.2,0.8,3.6,1.5,4.2,2c0.6,0.6,1,1.4,1,2.4c0,1.1-0.7,3.3-2,6.6c-2.1,5-3.1,9.3-3.1,12.8c0,8,3.5,14.5,10.4,19.5
			c6.9,5,15.5,7.6,25.8,7.6c7.9,0,14.5-1.5,19.6-4.4c5.3-2.9,11.2-9.1,17.7-18.5c6.5-9.4,12-15.7,16.2-18.9
			c4.3-3.2,9.5-4.7,15.8-4.7c5.2,0,9.6,1.4,13.3,4.2c3.7,2.8,5.5,6.5,5.5,11c0,6.4-3.2,12.1-9.7,17.2c-6.5,5.1-16,8.6-28.8,10.4v3.2
			h44.6v-3.2c-2.4-0.8-3.5-2-3.5-3.5c0-1.4,0.5-3.1,1.4-5.3c2.7-7,4.1-13.3,4.1-18.7C197.7,1478.8,194.3,1472,187.3,1465.8z"/>
		<path class="st13" d="M163.1,1372.3c-11.5-3.8-22.8-5.7-34-5.7c-15.9,0-30,3.5-42.3,10.4c-14.4,8.2-21.5,19-21.5,32.5
			c0,7.4,2.7,14.4,8.1,21c5.4,6.6,13.8,12,25.1,16c11.3,4.1,22.7,6.1,34.2,6.1c15.7,0,29.9-3.3,42.5-10c15-7.9,22.5-18.6,22.5-32.1
			c0-8.2-2.9-15.7-8.7-22.5C183.2,1381.4,174.6,1376.1,163.1,1372.3z M168.3,1426.8c-13.2,5.2-28.9,7.7-47,7.7
			c-11.3,0-20.5-1.1-27.7-3.2c-7.2-2.1-12.2-5-15.1-8.4c-2.9-3.5-4.3-6.9-4.3-10.4c0-7.1,4.4-13,13.1-17.6
			c12.7-6.8,30.2-10.2,52.4-10.2c17.7,0,30.2,2,37.5,6.1c7.3,4.1,10.9,9.3,10.9,15.6C188.1,1414.8,181.5,1421.6,168.3,1426.8z"/>
		<path class="st13" d="M29.2,1352c8.6,2.9,19.2,4.3,31.6,4.3H69v17.3h9.8v-17.3h82.1c8.9,0,14.9,0.4,18,1.2
			c3.1,0.8,5.5,2.3,7.4,4.4c1.8,2.1,2.7,4.5,2.7,7.1v4h4.9v-53.3H189v8.1c0,4-2,7.2-6,9.6c-3.1,1.8-10.5,2.7-22.1,2.7H78.8v-23h-0.3
			v-4.6h84c9,0,15.7-0.7,20-2c4.3-1.4,7.6-3.5,10-6.3c2.3-2.9,3.5-5.8,3.5-8.8c0-4.4-2.2-8.7-6.8-12.9c-4.5-4.2-11.2-7.4-20.1-9.6
			v3.8c3.6,1.1,6.4,2.7,8.3,4.7c1.9,2,2.8,4.1,2.8,6.2c0,2.6-1.4,4.7-4.2,6.4c-2.8,1.7-8.3,2.5-16.4,2.5h-81v-20.9H69v20.9H30
			c-2.1-1.3-4.3-1.9-6.7-1.9c-5.1,0-9.7,1.9-13.8,5.7c-6.2,5.7-9.3,12-9.3,18.8c0,7.3,2.7,14,8,19.8
			C13.6,1344.8,20.5,1349.2,29.2,1352z M12.7,1320.1c1.7-2,5.1-4.2,10-6.6c5-2.4,8.2-4.4,9.7-6.1c1.5-1.7,2.3-3.2,2.3-4.7
			c0-0.4-0.1-0.8-0.2-1.1c5.7,1.8,9.9,3.2,12.4,4.3c6.5,2.9,12.2,6.3,17,10c1.9,1.5,3.6,3,5.1,4.5v20h-9c-19.5,0-31.5-0.5-36.2-1.4
			c-4.7-0.9-8.1-2.4-10.4-4.5c-2.2-2.1-3.3-4.6-3.3-7.6C10.1,1324.3,11,1322.1,12.7,1320.1z"/>
		<path class="st13" d="M193.3,1254.4c-3-2.1-6.5-3.2-10.7-3.2c-4.2,0-7.8,1-10.7,3.1c-3,2.1-4.4,4.6-4.4,7.7c0,3,1.5,5.5,4.4,7.6
			c2.9,2.1,6.5,3.2,10.8,3.2c4.2,0,7.8-1.1,10.7-3.2c3-2.1,4.4-4.7,4.4-7.6C197.7,1259.1,196.3,1256.5,193.3,1254.4z"/>
		<g>
			<path class="st13" d="M1531.6,1349.8c-43.6,0.9-81,28.3-112.4,102c-30.9,72.6-50.6,164.2-51.8,267c1.2,102.9,21,194.5,51.8,267
				c31.4,73.8,68.8,101.1,112.4,102c43.6-0.9,81-28.3,112.4-102c30.9-72.6,50.6-164.2,51.8-267c-1.2-102.9-21-194.5-51.8-267
				C1612.7,1378.1,1575.2,1350.7,1531.6,1349.8z M1539.7,2070c-5.1,2.1-11,2.1-16.1,0c-41.1-17-88.5-129.5-89-351.1
				c0.6-221.6,48-334.2,89-351.1c5.1-2.1,11-2.1,16.1,0c41.1,17,88.5,129.5,89,351.1C1628.1,1940.5,1580.7,2053,1539.7,2070z"/>
			<path class="st13" d="M2071.8,1353.2h-38.6h-14.4h-38.6l0,10.2c30.9,0,36.5,44.6,30.6,82.6l0,0l-67.6,437.4l-59.6-461.5
				c0,0,0,0,0,0l-3.1-23.9c-1.6-18.9,1-34.6,23.6-34.6l0-10.2h-46.3h-6.7H1834h-4.9H1781l0,10.2c23.3,0,33.6,17.9,39,47.8
				l21.4,158.8l-48.5,313.5l-59.6-461.5c0,0,0,0,0,0l-3.1-23.9c-1.6-18.9,1-34.6,23.6-34.6l0-10.2h-45h-8h-17.1h-3.6h-49.4l0,10.2
				c23.3,0,33.6,17.9,39,47.8l91.3,677.8v0h16.6h0l71.4-461.6l62.2,461.6l0,0h0h16.6h0l101.2-654.2v0c6.5-42.1,19-71.5,42.7-71.5
				L2071.8,1353.2z"/>
			<path class="st13" d="M187.1,1740.6c-1.3,1.6-3.2,2.8-5.8,3.6c-2.6,0.8-7.8,1.2-15.6,1.2H65.3v4.3l15.3,26.9l4.9-1.4
				c-1.4-2.6-2-4.8-2-6.6c0-1.7,0.6-3,1.7-4c1.1-1,3.2-1.7,6.1-2.1c4-0.6,12.8-0.9,26.3-0.9h48.1c7.7,0,13,0.4,15.7,1.3
				s4.7,2.1,5.9,3.6c1,1.2,1.5,3.3,1.7,6.4h-0.1v4.6c0,5.2-1.9,9-5.7,11.4c-2.8,1.8-9.9,2.7-21.3,2.7H41c-10.4,0-17-0.7-19.9-2.1
				c-4.7-2.3-7.1-6.3-7.1-12v-4.6H9v37.4l144.7,47.2L9,1905.4v37.4h5c0-5.4,0.9-9.3,2.7-11.7c1.8-2.4,4-4.1,6.6-5
				c3.6-1.3,9.5-1.9,17.7-1.9h120.8c10.4,0,17,0.7,19.9,2.1c4.7,2.3,7.1,6.3,7.1,11.9v4.7h5v-46h-5v4.7c0,5.2-1.9,9-5.7,11.4
				c-2.8,1.8-9.9,2.6-21.3,2.6H38.3l155.6-51.1v-3.2l-155.6-51h123.6c10.4,0,17,0.7,19.9,2.1c4.7,2.3,7.1,6.2,7.1,11.9v4.7h5v-53.8
				v-2.4v-41H189C189,1736.1,188.4,1739,187.1,1740.6z"/>
			<path class="st13" d="M1199.1,1353.2h-70.6h-12.4h-36.9h-30h-18.7h-4.4h-48.6v10.2c36.2,0,41.3,58.5,41.3,58.5v458.9
				l-182.1-527.7H810h-15.6h-0.3H791h-29.6h-20.2h-8.8h-24H695h-24h-28.9l4.4-28.3v0c7.6-49.2,22.2-83.5,49.9-83.5l0-12h-45.1h-16.8
				h-45.1l0,12c36.1,0,42.7,52.2,35.8,96.5l0,0l-79,511l-69.6-539.1c0,0,0,0,0,0l-3.6-27.9c-1.9-22,1.1-40.4,27.6-40.4v-12h-54.1
				h-7.8h-19.9h-5.8h-56.2v12c27.2,0,39.2,20.9,45.6,55.9l25,185.5l-56.6,366.2L301,1309.7c0,0,0,0,0,0l-3.6-27.9
				c-1.9-22,1.1-40.4,27.6-40.4l0-12h-52.6h-9.4h-19.9h-4.2h-57.7l0,12c27.2,0,39.2,20.9,45.6,55.9l106.7,791.8v0h19.4h0l83.4-539.2
				l72.6,539.2v0h0h19.4h0L642,1354.3v9.1c25.5,0,28.7,27.8,29.1,47.1v608.2c-0.3,19.3-3.6,47.1-29.1,47.1v10.2H671h61.3h17.4h48.6
				h4.4h48.6v-10.2c-36.2,0-41.3-58.5-41.3-58.5v-528.1l208.8,605.2v0h19v-59.4v0V1936v0v-514c0,0,3.6-41.2,26.2-54.5
				c21.7,13.2,22.4,54.5,22.4,54.5v585.5c0,0-1.1,58.5-37.3,58.5v10.2h48.3h31.1h70.6c166,0,168.2-361.5,168.2-361.5
				S1365.2,1353.2,1199.1,1353.2z M791,2007.4c0,0-4.6,52.1-35.5,58c-20.2-4-22.9-28.8-23.2-46.6v-608.2c0.3-16.5,2.7-39,19.1-45.4
				c28.5,9.9,39.6,58.9,39.6,59v0l0,0V2007.4z M1177.2,2055.4c0,0-28-1.2-28-10V1384c0-8.8,28-10,28-10c130.3,0,129,336.3,129,336.3
				v8.9C1306.2,1719.1,1307.5,2055.4,1177.2,2055.4z"/>
			<path class="st13" d="M362.9,2148c-1.7-1.9-3.7-2.8-6.1-2.8c-2.4,0-4.7,0.7-7,2s-4.9,3.7-7.8,7.1l2.8-9.2l-13.3,2
				c0.1-0.8,0.1-1.7,0.1-2.5c0-3.3-0.8-6.4-2.4-9.5c-1.6-3-3.7-5.4-6.5-6.9c-2.8-1.6-6-2.3-9.5-2.3c-4.3,0-8.4,0.9-12.2,2.7
				c-3.8,1.8-7.4,4.3-10.8,7.6c-3.4,3.3-6.3,7.4-8.7,12.4c-2.4,4.9-3.7,9.9-3.7,15c0,2.8,0.7,5.8,2,8.8c1.3,3,3.4,5.5,6.2,7.3
				c2.8,1.9,6.3,2.8,10.5,2.8c5.8,0,11.4-1.7,16.9-5c5.4-3.4,9.8-8.2,13.2-14.6c2.6-4.9,4.2-9.6,4.8-14.2c1.3-0.2,2.3-0.3,3-0.3
				c0.9,0,1.5,0.2,1.9,0.6c0.4,0.4,0.6,1,0.6,1.7c0,0.5-0.3,1.9-0.9,4.1l-10.1,35c-1,3.4-1.9,5.4-2.7,6.2c-0.9,0.7-2.5,1.2-5,1.3
				l-0.4,1.5h18.8l0.4-1.5c-2.1,0-3.4-0.1-4.1-0.3c-0.7-0.2-1.2-0.5-1.5-1c-0.3-0.4-0.5-0.9-0.5-1.5c0-0.6,0.3-1.9,0.9-4l2.9-10.3
				c1.3,0.7,2.4,1.3,3.5,1.6c1,0.3,2.2,0.4,3.5,0.4c6.3,0,11.9-3,16.7-9.1c4.8-6.1,7.1-12,7.1-17.9
				C365.4,2152.3,364.6,2149.9,362.9,2148z M320.3,2158.1c-2.2,5.7-4.8,10.3-8,14c-2.5,2.9-5,5-7.3,6.2c-2.3,1.2-4.7,1.8-7.1,1.8
				c-4,0-7-1.5-8.9-4.4c-1.9-2.9-2.9-6.3-2.9-10c0-5.3,1.2-10.9,3.7-16.9c2-4.8,4.2-8.8,6.7-11.8c2.5-3,5-5.2,7.6-6.5
				c2.5-1.3,5.1-2,7.8-2c3.9,0,6.8,1.4,8.8,4.2c1.9,2.8,2.9,6,2.9,9.6C323.5,2147.2,322.5,2152.5,320.3,2158.1z M357.3,2163.3
				c-0.9,2.7-1.8,5-2.9,7c-1.1,2-2.3,3.7-3.7,5.3c-1.4,1.5-2.8,2.7-4.2,3.4c-1.4,0.8-2.8,1.2-4.2,1.2c-2.8,0-5-1-6.7-3l3.5-11.9
				c1.3-4.4,3.4-8.3,6.2-11.6c2.8-3.3,5.7-5,8.5-5c1.3,0,2.4,0.6,3.4,1.7c1,1.1,1.5,2.8,1.5,4.9
				C358.6,2157.9,358.1,2160.6,357.3,2163.3z"/>
			<path class="st13" d="M384.7,2163.7c4.5-1.6,7.9-3.8,10.2-6.4c1.8-2,2.6-4.1,2.6-6.4c0-1.6-0.7-2.9-2-4.1
				c-1.4-1.1-3.4-1.7-6.3-1.7c-3.9,0-7.7,1.2-11.4,3.5c-3.7,2.3-6.8,5.5-9.2,9.7c-2.4,4.2-3.7,8.2-3.7,12.2c0,3,1,5.7,3,8.1
				c2,2.4,4.9,3.7,8.8,3.7c5.7,0,11.7-3.1,18.1-9.4l-0.8-1.2c-3.5,2.7-6.1,4.4-7.9,5.2c-1.8,0.8-3.6,1.2-5.5,1.2
				c-2.4,0-4.4-0.8-6.1-2.5c-1.7-1.7-2.5-3.7-2.5-6.1c0-0.9,0.1-2,0.3-3.3C377.6,2165.7,381.7,2164.8,384.7,2163.7z M379.2,2151.5
				c3-2.9,5.9-4.3,8.6-4.3c1.3,0,2.3,0.3,3,1c0.7,0.7,1.1,1.6,1.1,2.7c0,1.8-0.8,3.8-2.5,5.8c-1.6,2-4.1,3.8-7.4,5.3
				c-2.5,1.1-5.7,1.9-9.6,2.3C373.9,2158.7,376.1,2154.4,379.2,2151.5z"/>
			<path class="st13" d="M425.2,2153.3c0.9-1.6,1.4-3.3,1.4-5c0-1-0.3-1.7-0.8-2.3c-0.5-0.5-1.2-0.8-2.1-0.8c-1.4,0-3.1,0.9-5.3,2.7
				c-3.8,3.2-8,8.7-12.7,16.7l5.8-19.4l-13.8,2.2l0.3,1.5c1.5-0.2,2.5-0.4,3.1-0.4c0.9,0,1.6,0.2,2.1,0.6c0.4,0.3,0.6,0.7,0.6,1.2
				c0,1.2-0.4,3.3-1.3,6.2l-7.4,24.8h6.1l1.3-5c0.2-0.6,0.8-2.4,1.9-5.5c0.8-2.2,1.8-4.2,2.9-6c2.6-4.2,5-7.5,7.2-10.1
				c1.4-1.7,2.5-2.7,3.2-3.1c0.4-0.2,0.8-0.3,1.3-0.3c0.3,0,0.5,0.1,0.8,0.3c0.2,0.2,0.3,0.5,0.4,1c0.1,0.8,0.4,1.4,0.8,1.8
				c0.4,0.4,1,0.6,1.6,0.6C423.7,2155.1,424.6,2154.5,425.2,2153.3z"/>
			<path class="st13" d="M450.7,2172.3l7.8-27.1l-6.4,1l-1.4,4.6c-0.6-2-1.4-3.4-2.5-4.2c-1.1-0.9-2.4-1.3-4.1-1.3
				c-2.7,0-5.6,1.1-8.7,3.4c-3.9,2.8-7.1,6.6-9.7,11.3c-2.5,4.7-3.8,9.2-3.8,13.4c0,2.8,0.7,5,2.1,6.6c1.4,1.6,3.1,2.4,5,2.4
				c2,0,4.1-0.7,6.2-2c2.9-1.8,6.1-5,9.6-9.5l-0.8,3c-0.6,2.1-0.9,3.8-0.9,5.2c0,1.1,0.3,1.9,0.9,2.5c0.6,0.6,1.4,0.9,2.6,0.9
				c1.7,0,3.4-0.7,5.4-2.2c1.9-1.5,3.8-3.6,5.7-6.3l-1.4-1c-1.7,2.4-3.1,4-4.2,4.8c-0.6,0.4-1,0.6-1.4,0.6c-0.3,0-0.6-0.1-0.8-0.4
				c-0.3-0.3-0.4-0.7-0.4-1.1c0-0.2,0-0.5,0.1-0.9L450.7,2172.3z M442.3,2171.2c-3.4,4.3-6.6,6.4-9.5,6.4c-1.2,0-2.2-0.5-3.1-1.6
				c-0.9-1.1-1.4-2.5-1.4-4.3c0-3.6,1.1-7.6,3.2-12.1c2.1-4.4,4.5-7.8,7.2-10.1c1.9-1.6,3.7-2.4,5.4-2.4c1.5,0,2.7,0.5,3.6,1.5
				c0.9,1,1.3,2.6,1.3,4.9C449.1,2159.7,446.9,2165.5,442.3,2171.2z"/>
			<path class="st13" d="M494.3,2136.2c0.8-0.8,1.2-1.7,1.2-2.8c0-1.1-0.4-2.1-1.2-2.8c-0.8-0.8-1.7-1.2-2.8-1.2
				c-1.1,0-2.1,0.4-2.8,1.2c-0.8,0.8-1.2,1.7-1.2,2.8c0,1.1,0.4,2,1.2,2.8c0.8,0.8,1.7,1.2,2.8,1.2S493.5,2136.9,494.3,2136.2z"/>
			<path class="st13" d="M492,2145.2l-12.2,2l0.3-1h-6.3l3.1-10.9h-1.8c-2.4,3.9-4.6,6.7-6.5,8.2c-1.9,1.6-4.4,2.8-7.3,3.6l-0.4,1.6
				h6l-6.7,23.1c-0.9,3-1.3,5.2-1.3,6.6c0,1.1,0.4,2.1,1.1,2.8c0.7,0.7,1.7,1.1,2.9,1.1c1.5,0,3-0.5,4.5-1.5c2.2-1.5,4.5-4,6.9-7.5
				l-1.3-1c-2.2,2.7-3.6,4.4-4.3,4.9c-1.1,0.9-2,1.4-2.6,1.4c-0.3,0-0.5-0.1-0.8-0.4c-0.2-0.2-0.3-0.6-0.3-1c0-0.7,0.4-2.4,1.1-4.9
				l6.9-23.6h5v0.3c1.8-0.3,3-0.4,3.6-0.4c0.7,0,1.3,0.2,1.7,0.6c0.4,0.4,0.6,0.9,0.6,1.4c0,0.7-0.4,2.6-1.3,5.5l-5.2,17.9
				c-0.7,2.3-1,3.9-1,4.9c0,1,0.3,1.8,1,2.5c0.7,0.7,1.6,1,2.7,1c1.7,0,3.4-0.7,5.2-2.1c2.4-1.9,4.6-4.2,6.4-7l-1.4-0.9
				c-1.5,2.2-3.1,3.9-4.6,5.1c-0.6,0.4-1,0.6-1.4,0.6c-0.3,0-0.6-0.1-0.9-0.4c-0.3-0.3-0.4-0.6-0.4-1c0-0.4,0.3-1.5,0.8-3.4
				L492,2145.2z"/>
			<path class="st13" d="M527,2172.4c-1.7,2.3-3.2,4-4.6,5.1c-0.5,0.3-0.8,0.5-1.2,0.5c-0.2,0-0.5-0.1-0.7-0.4
				c-0.2-0.3-0.3-0.6-0.3-0.9c0-0.4,0.3-1.6,0.8-3.6l4.9-16.8c0.8-2.7,1.2-4.8,1.2-6.4c0-1.4-0.4-2.6-1.3-3.4
				c-0.9-0.9-2-1.3-3.3-1.3c-2.4,0-5,1.2-7.6,3.5c-2.6,2.3-6.5,7.2-11.4,14.7l5.3-18.2l-13.8,2.5l0.2,1.4l1.5-0.2
				c0.8-0.1,1.4-0.2,1.7-0.2c0.7,0,1.3,0.2,1.7,0.7c0.5,0.4,0.7,1,0.7,1.5c0,0.6-0.4,2.4-1.3,5.4l-7.3,25h6l2-6.6
				c0.8-2.7,1.9-5.2,3.1-7.4c2.4-4.3,4.6-7.8,6.7-10.6c2.1-2.8,4.2-4.7,6.2-5.9c1-0.6,1.9-1,2.7-1c0.5,0,0.9,0.2,1.3,0.5
				c0.3,0.3,0.5,0.8,0.5,1.3c0,1.1-0.3,2.7-0.9,4.7l-4.6,16.1c-0.9,3.1-1.4,5.3-1.4,6.6c0,1,0.3,1.8,0.9,2.4
				c0.6,0.6,1.4,0.9,2.4,0.9c1.2,0,2.6-0.5,4.2-1.6c2.2-1.5,4.6-4,7-7.6L527,2172.4z"/>
			<path class="st13" d="M554.5,2145.8c-1.3-0.4-2.9-0.6-4.9-0.6c-5.5,0-9.9,1.5-13.2,4.5c-3.3,3-5,6.4-5,10.1
				c0,2.3,0.9,4.4,2.6,6.3c1.7,1.9,4,3.1,7,3.7c-3.5,1.4-5.8,2.8-6.8,4c-1.1,1.2-1.6,2.3-1.6,3.4c0,1.1,0.6,2.2,1.8,3.2
				c-3.4,1.9-5.4,3.1-6.1,3.6c-1.1,0.8-2.1,1.8-2.9,3.1c-0.8,1.2-1.1,2.4-1.1,3.6c0,1.4,0.6,2.8,1.8,4.1c1.2,1.3,3.1,2.4,5.8,3.2
				c2.7,0.8,5.7,1.2,9,1.2c3.8,0,7.2-0.5,10.3-1.5c3.1-1,5.5-2.4,7.1-4.3c1.6-1.8,2.4-3.8,2.4-6c0-1.8-0.7-3.5-2-4.9
				c-1.4-1.4-4.2-2.6-8.5-3.6l-7.7-1.8c-1.9-0.5-3.2-0.9-3.6-1.3c-0.5-0.4-0.7-0.9-0.7-1.5c0-0.5,0.3-0.9,0.8-1.3
				c1.4-1.2,3.5-2.2,6.4-3c5.2-0.3,9.4-1.8,12.4-4.6c3-2.7,4.5-5.9,4.5-9.4c0-1.3-0.3-2.6-0.8-4h6.7l1.2-4.2h-10.8
				C557,2146.8,555.8,2146.2,554.5,2145.8z M548.4,2184.3c2.9,0.6,4.8,1.3,5.8,2.3c1,0.9,1.5,1.9,1.5,3c0,2.1-1.4,3.7-4.1,5
				c-2.7,1.3-6,1.9-9.8,1.9c-4.4,0-7.8-0.8-10.1-2.5c-1.6-1.1-2.4-2.6-2.4-4.4c0-1.5,0.6-3,1.7-4.6c1.1-1.5,2.7-2.8,4.9-3.8
				C542.7,2183,546.8,2184,548.4,2184.3z M554.3,2158.5c-0.5,2.1-1.3,3.8-2.2,5.2c-0.9,1.4-2,2.4-3.3,3.2c-1.3,0.8-2.7,1.2-4.1,1.2
				c-1.8,0-3.3-0.7-4.6-2c-1.3-1.3-1.9-3-1.9-5c0-3.3,1-6.4,2.9-9.4c2-3,4.4-4.5,7.4-4.5c1.9,0,3.5,0.6,4.7,1.8
				c1.2,1.2,1.8,2.9,1.8,5C555.1,2154.9,554.9,2156.4,554.3,2158.5z"/>
			<path class="st13" d="M611.8,2174.5c1.5-2.6,2.2-5.2,2.2-8c0-2.4-0.6-4.7-1.8-6.8c-1.2-2.1-3.7-5.1-7.7-8.9
				c-4-3.8-6.5-6.6-7.6-8.3c-1.1-1.7-1.7-3.5-1.7-5.3c0-2.1,0.9-4,2.6-5.6c1.7-1.6,4-2.4,6.7-2.4c3.5,0,6.3,1,8.4,3.1
				c2.1,2.1,3.2,4.7,3.2,7.9c0,1-0.1,2.3-0.2,3.9h1.4l4.2-18H620c-0.7,1.3-1.4,2.2-2,2.6c-0.6,0.4-1.2,0.6-2,0.6
				c-0.5,0-0.9,0-1.2-0.1c-0.2-0.1-1-0.4-2.6-1c-2.2-0.9-3.7-1.4-4.5-1.6c-1.3-0.3-2.7-0.4-4.2-0.4c-4.4,0-8,1.3-10.9,4
				c-2.8,2.7-4.2,5.9-4.2,9.7c0,2.4,0.6,4.6,1.8,6.8c0.7,1.3,2.4,3.3,5.1,6c5.4,5.6,8.8,9.5,10,11.7c0.8,1.5,1.2,3.1,1.2,5
				c0,2.8-0.9,5.3-2.7,7.4c-1.8,2.1-4.5,3.2-7.9,3.2c-3.8,0-6.8-1.1-9.1-3.4c-2.3-2.3-3.5-5.3-3.5-8.9c0-1.3,0.1-2.9,0.3-4.8h-1.4
				l-4.5,20.1h1.5c0.9-2.1,2.1-3.2,3.7-3.2c0.7,0,1.6,0.2,2.6,0.6c3,1.1,5.2,1.9,6.6,2.2c1.4,0.3,2.9,0.4,4.5,0.4
				c3.2,0,6.2-0.7,8.9-2.1C608.3,2179.1,610.4,2177.1,611.8,2174.5z"/>
			<path class="st13" d="M648.8,2150.7c0-1.7-0.4-3-1.2-4c-0.8-1-1.8-1.5-3-1.5c-1,0-1.8,0.3-2.4,1c-0.6,0.7-1,1.5-1,2.6
				c0,0.9,0.3,1.7,0.8,2.3c0.5,0.7,1.2,1.1,2,1.4c0.8,0.3,1.3,0.5,1.5,0.7c0.2,0.2,0.3,0.4,0.3,0.7c0,0.5-0.1,0.9-0.2,1.3
				c-0.3,0.9-1.1,2.3-2.4,4.5c-2.2,3.5-4,6.2-5.4,8.3c-3,4.2-5.4,7.2-6.9,9.1l-1.8-19.6c-0.3-3.9-0.7-6.6-1-7.9
				c-0.3-1.3-1-2.8-1.9-4.3l-11.7,2.9l0.4,1.5c1.4-0.2,2.4-0.2,3-0.2c1.8,0,3,0.5,3.8,1.4c0.7,0.9,1.3,3.4,1.7,7.6l2.2,25.3
				c-1.2,1.7-3.1,3.8-5.7,6.4c-1.9,2-3.6,3.4-5.1,4.3c-0.4,0.3-0.7,0.4-0.8,0.4c-0.2,0-0.3-0.1-0.5-0.2c-0.2-0.2-0.4-0.6-0.7-1.3
				c-0.3-0.6-0.5-1-0.7-1.1c-0.3-0.2-0.8-0.4-1.3-0.4c-1,0-2,0.4-2.8,1.3c-0.9,0.9-1.3,1.8-1.3,2.8c0,0.8,0.3,1.6,0.9,2.2
				c0.6,0.6,1.4,0.9,2.2,0.9c1.4,0,3-0.6,5-1.8c1.9-1.2,4.9-4.1,8.9-8.6c5.8-6.6,10.8-12.7,14.9-18.3c4.1-5.6,6.9-9.7,8.3-12.4
				C648,2155.2,648.8,2152.8,648.8,2150.7z"/>
			<path class="st13" d="M669.2,2147.1c-0.5,0-1.4-0.3-2.7-0.8c-1.4-0.5-2.2-0.8-2.6-0.9c-0.7-0.1-1.5-0.2-2.3-0.2
				c-3,0-5.4,0.9-7.2,2.7s-2.8,4-2.8,6.5c0,1.4,0.3,2.8,1,4.2c0.7,1.4,2.2,3.5,4.6,6.3c2.4,2.8,3.9,5,4.7,6.6c0.4,0.9,0.6,1.9,0.6,3
				c0,1.7-0.6,3-1.8,4.2c-1.2,1.1-2.8,1.7-4.8,1.7c-2.6,0-4.7-0.8-6.2-2.5c-1.5-1.7-2.4-4.5-2.5-8.6h-1.5l-2.4,12.9h1.5
				c0.6-1.2,1.5-1.8,2.7-1.8c0.5,0,1.2,0.2,2,0.5c2.5,0.9,4.7,1.4,6.6,1.4c3.5,0,6.4-1.1,8.7-3.2c2.3-2.1,3.5-4.6,3.5-7.4
				c0-1.7-0.5-3.5-1.5-5.4c-1-1.9-3.2-4.8-6.7-8.5c-1.3-1.4-2.2-2.6-2.5-3.4c-0.4-0.8-0.6-1.6-0.6-2.5c0-1.3,0.5-2.4,1.5-3.3
				c1-0.9,2.3-1.4,3.9-1.4c2.1,0,3.8,0.8,5.2,2.4c1.4,1.6,2.1,4.2,2.3,7.8h1.5l2.4-12.3h-1.5
				C671.3,2146.5,670.4,2147.1,669.2,2147.1z"/>
			<path class="st13" d="M683.8,2177.2c-1.1,0.9-2,1.4-2.6,1.4c-0.3,0-0.5-0.1-0.8-0.4c-0.2-0.2-0.3-0.6-0.3-1
				c0-0.7,0.4-2.4,1.1-4.9l6.9-23.6h6.2l0.7-2.5h-6.3l3.1-10.9H690c-2.4,3.9-4.6,6.7-6.5,8.2c-1.9,1.6-4.4,2.8-7.3,3.6l-0.4,1.6h6
				l-6.7,23.1c-0.9,3-1.3,5.2-1.3,6.6c0,1.1,0.4,2.1,1.1,2.8c0.7,0.7,1.7,1.1,2.9,1.1c1.5,0,3-0.5,4.5-1.5c2.2-1.5,4.5-4,6.9-7.5
				l-1.3-1C685.8,2175,684.4,2176.6,683.8,2177.2z"/>
			<path class="st13" d="M711.7,2177c-1.8,0.8-3.6,1.2-5.5,1.2c-2.4,0-4.4-0.8-6.1-2.5c-1.7-1.7-2.5-3.7-2.5-6.1
				c0-0.9,0.1-2,0.3-3.3c5.4-0.6,9.6-1.5,12.6-2.6c4.5-1.6,7.9-3.8,10.2-6.4c1.8-2,2.6-4.1,2.6-6.4c0-1.6-0.7-2.9-2-4.1
				c-1.4-1.1-3.4-1.7-6.3-1.7c-3.9,0-7.7,1.2-11.4,3.5c-3.7,2.3-6.8,5.5-9.2,9.7c-2.5,4.2-3.7,8.2-3.7,12.2c0,3,1,5.7,3,8.1
				c2,2.4,4.9,3.7,8.8,3.7c5.7,0,11.7-3.1,18.1-9.4l-0.8-1.2C716.1,2174.5,713.4,2176.2,711.7,2177z M704.8,2151.5
				c3-2.9,5.9-4.3,8.6-4.3c1.3,0,2.3,0.3,3,1c0.7,0.7,1.1,1.6,1.1,2.7c0,1.8-0.8,3.8-2.5,5.8c-1.6,2-4.1,3.8-7.4,5.3
				c-2.5,1.1-5.7,1.9-9.6,2.3C699.5,2158.7,701.8,2154.4,704.8,2151.5z"/>
			<path class="st13" d="M769,2176.9c-0.7,0.5-1.1,0.8-1.4,0.8s-0.5-0.1-0.6-0.3c-0.2-0.3-0.4-0.6-0.4-1c0-0.4,0.5-2.2,1.4-5.6
				l4.4-15.5c0.5-1.7,0.7-3.4,0.7-4.9c0-1.8-0.4-3.1-1.2-3.9c-0.8-0.8-1.8-1.3-3-1.3c-2.1,0-4.2,0.9-6.4,2.7c-3.9,3.3-8,9-12.3,17.1
				l2.8-10.1c0.6-2.1,0.9-3.8,0.9-5.1c0-1.3-0.4-2.4-1.3-3.3c-0.9-0.9-2-1.3-3.3-1.3c-1.5,0-3,0.4-4.4,1.3c-2.4,1.5-4.9,3.9-7.4,7.2
				c-1.6,2.1-3.6,5.3-5.9,9.5l5.2-18l-13.8,2.5l0.4,1.5c1.6-0.3,2.5-0.5,2.9-0.5c0.8,0,1.5,0.2,2,0.7c0.5,0.5,0.8,1,0.8,1.6
				c0,0.2-0.1,0.6-0.3,1.1l-1,3.4l-7.4,25.9h5.9c2.5-7.9,4.1-12.6,4.8-14.1c1.4-3.1,3.3-6.4,5.9-9.8c2.5-3.4,4.6-5.6,6.2-6.7
				c1-0.6,1.9-1,2.8-1c0.4,0,0.8,0.2,1.1,0.5c0.3,0.3,0.4,0.9,0.4,1.6c0,0.9-0.4,2.6-1.1,5.2l-6.8,24.2h6c1.8-6.3,3.8-11.4,5.9-15.5
				c3.2-6.1,6.6-10.8,10.3-14.2c1.3-1.1,2.4-1.7,3.6-1.7c0.4,0,0.8,0.2,1.1,0.6c0.3,0.4,0.4,0.9,0.4,1.6c0,0.5,0,1-0.1,1.5
				c-0.1,0.3-0.5,2-1.3,4.9l-3.6,12.8c-1.1,3.9-1.6,6.4-1.6,7.7c0,0.9,0.3,1.7,0.9,2.4c0.6,0.6,1.4,1,2.3,1c1,0,2.1-0.3,3.3-1
				c1.2-0.7,2.6-1.9,4.3-3.8c1.7-1.9,2.9-3.3,3.5-4.4l-1.3-0.8C772,2174.2,770.6,2175.7,769,2176.9z"/>
			<path class="st13" d="M890.5,2132.6c1.5-1.4,2.9-2.5,4.4-3.2c0.8-0.4,1.8-0.7,3.1-0.8l0.4-1.5h-16.3l-0.5,1.5
				c1.7,0.1,2.8,0.4,3.4,1c0.6,0.5,0.9,1.2,0.9,1.9c0,0.6-0.2,1.3-0.6,2.2c-0.6,1.2-2,3.4-4.3,6.5l-21.1,28.8l3.2-32.3
				c0.3-2.7,0.6-4.4,0.8-5c0.5-1.1,1.2-1.9,2.1-2.3c0.9-0.5,2.5-0.7,4.8-0.7l0.4-1.5h-21.4l-0.4,1.5h1.4c1.9,0,3.3,0.4,4.2,1.2
				c0.9,0.8,1.3,1.8,1.3,3c0,0.8-0.1,2.3-0.3,4.6l-4.5,45.1h1.4l30.5-41.5C886.7,2136.8,889,2134,890.5,2132.6z"/>
			<path class="st13" d="M897.2,2163.7c4.5-1.6,7.9-3.8,10.2-6.4c1.8-2,2.6-4.1,2.6-6.4c0-1.6-0.7-2.9-2-4.1
				c-1.4-1.1-3.4-1.7-6.3-1.7c-3.9,0-7.7,1.2-11.4,3.5c-3.7,2.3-6.8,5.5-9.2,9.7c-2.5,4.2-3.7,8.2-3.7,12.2c0,3,1,5.7,3,8.1
				c2,2.4,4.9,3.7,8.8,3.7c5.7,0,11.7-3.1,18.1-9.4l-0.8-1.2c-3.5,2.7-6.1,4.4-7.9,5.2c-1.8,0.8-3.6,1.2-5.5,1.2
				c-2.4,0-4.4-0.8-6.1-2.5c-1.7-1.7-2.5-3.7-2.5-6.1c0-0.9,0.1-2,0.3-3.3C890,2165.7,894.2,2164.8,897.2,2163.7z M891.6,2151.5
				c3-2.9,5.9-4.3,8.6-4.3c1.3,0,2.3,0.3,3,1c0.7,0.7,1.1,1.6,1.1,2.7c0,1.8-0.8,3.8-2.5,5.8c-1.6,2-4.1,3.8-7.4,5.3
				c-2.5,1.1-5.7,1.9-9.6,2.3C886.3,2158.7,888.6,2154.4,891.6,2151.5z"/>
			<path class="st13" d="M932.5,2152.6c0.1,0.8,0.4,1.4,0.8,1.8s1,0.6,1.6,0.6c1.2,0,2.1-0.6,2.8-1.8c0.9-1.6,1.4-3.3,1.4-5
				c0-1-0.3-1.7-0.8-2.3c-0.5-0.5-1.2-0.8-2.1-0.8c-1.4,0-3.1,0.9-5.3,2.7c-3.8,3.2-8,8.7-12.7,16.7l5.8-19.4l-13.8,2.2l0.3,1.5
				c1.5-0.2,2.5-0.4,3.1-0.4c0.9,0,1.6,0.2,2.1,0.6c0.4,0.3,0.6,0.7,0.6,1.2c0,1.2-0.4,3.3-1.3,6.2l-7.4,24.8h6.1l1.3-5
				c0.2-0.6,0.8-2.4,1.9-5.5c0.8-2.2,1.8-4.2,2.9-6c2.6-4.2,5-7.5,7.2-10.1c1.4-1.7,2.5-2.7,3.2-3.1c0.4-0.2,0.8-0.3,1.3-0.3
				c0.3,0,0.5,0.1,0.8,0.3C932.4,2151.8,932.5,2152.1,932.5,2152.6z"/>
			<path class="st13" d="M957.8,2147.1c-0.5,0-1.4-0.3-2.7-0.8c-1.4-0.5-2.2-0.8-2.6-0.9c-0.7-0.1-1.5-0.2-2.3-0.2
				c-3,0-5.4,0.9-7.2,2.7c-1.9,1.8-2.8,4-2.8,6.5c0,1.4,0.3,2.8,1,4.2c0.7,1.4,2.2,3.5,4.6,6.3c2.4,2.8,3.9,5,4.7,6.6
				c0.4,0.9,0.6,1.9,0.6,3c0,1.7-0.6,3-1.8,4.2c-1.2,1.1-2.8,1.7-4.8,1.7c-2.6,0-4.7-0.8-6.2-2.5c-1.5-1.7-2.4-4.5-2.5-8.6h-1.5
				l-2.4,12.9h1.5c0.6-1.2,1.5-1.8,2.7-1.8c0.5,0,1.2,0.2,2,0.5c2.5,0.9,4.7,1.4,6.6,1.4c3.5,0,6.4-1.1,8.7-3.2
				c2.3-2.1,3.5-4.6,3.5-7.4c0-1.7-0.5-3.5-1.5-5.4c-1-1.9-3.2-4.8-6.7-8.5c-1.3-1.4-2.2-2.6-2.5-3.4c-0.4-0.8-0.6-1.6-0.6-2.5
				c0-1.3,0.5-2.4,1.5-3.3c1-0.9,2.3-1.4,3.9-1.4c2,0,3.8,0.8,5.2,2.4c1.4,1.6,2.1,4.2,2.3,7.8h1.5l2.4-12.3h-1.5
				C959.9,2146.5,959,2147.1,957.8,2147.1z"/>
			<path class="st13" d="M980.2,2136.2c0.8-0.8,1.2-1.7,1.2-2.8c0-1.1-0.4-2.1-1.2-2.8c-0.8-0.8-1.7-1.2-2.8-1.2
				c-1.1,0-2.1,0.4-2.8,1.2c-0.8,0.8-1.2,1.7-1.2,2.8c0,1.1,0.4,2,1.2,2.8c0.8,0.8,1.7,1.2,2.8,1.2S979.5,2136.9,980.2,2136.2z"/>
			<path class="st13" d="M977.9,2145.2l-13.8,2.2v1.6c1.8-0.3,3-0.4,3.6-0.4c0.7,0,1.3,0.2,1.7,0.6c0.4,0.4,0.6,0.9,0.6,1.4
				c0,0.7-0.4,2.6-1.3,5.5l-5.2,17.9c-0.7,2.3-1,3.9-1,4.9c0,1,0.3,1.8,1,2.5c0.7,0.7,1.6,1,2.7,1c1.7,0,3.4-0.7,5.2-2.1
				c2.4-1.9,4.6-4.2,6.4-7l-1.4-0.9c-1.5,2.2-3.1,3.9-4.6,5.1c-0.6,0.4-1,0.6-1.4,0.6c-0.3,0-0.6-0.1-0.9-0.4
				c-0.3-0.3-0.4-0.6-0.4-1c0-0.4,0.3-1.5,0.8-3.4L977.9,2145.2z"/>
			<path class="st13" d="M1011,2148.7c-2.3-2.3-5.2-3.5-8.7-3.5s-7.2,1.1-10.9,3.4c-3.8,2.3-6.8,5.4-9,9.3
				c-2.2,3.9-3.4,7.9-3.4,11.8c0,3.7,1.2,6.7,3.5,9c2.3,2.3,5.3,3.5,8.9,3.5c3.6,0,7.2-1.1,11-3.4c3.8-2.3,6.7-5.4,8.8-9.3
				c2.1-3.9,3.2-7.9,3.2-11.9C1014.4,2154,1013.3,2151,1011,2148.7z M1002.9,2171.9c-3.3,5.6-6.8,8.4-10.6,8.4
				c-1.9,0-3.6-0.7-4.8-2.1c-1.3-1.4-1.9-3.3-1.9-5.9c0-5.5,1.6-11.1,4.9-16.7c3.3-5.6,6.9-8.4,10.8-8.4c1.9,0,3.5,0.7,4.7,2
				c1.2,1.3,1.8,3.2,1.8,5.7C1007.8,2160.7,1006.2,2166.4,1002.9,2171.9z"/>
			<path class="st13" d="M1044,2177.5c-0.5,0.3-0.8,0.5-1.2,0.5c-0.2,0-0.5-0.1-0.7-0.4c-0.2-0.3-0.3-0.6-0.3-0.9
				c0-0.4,0.3-1.6,0.8-3.6l4.9-16.8c0.8-2.7,1.2-4.8,1.2-6.4c0-1.4-0.4-2.6-1.3-3.4c-0.9-0.9-2-1.3-3.3-1.3c-2.4,0-5,1.2-7.6,3.5
				c-2.6,2.3-6.5,7.2-11.4,14.7l5.3-18.2l-13.8,2.5l0.2,1.4l1.5-0.2c0.8-0.1,1.4-0.2,1.7-0.2c0.7,0,1.3,0.2,1.7,0.7
				c0.5,0.4,0.7,1,0.7,1.5c0,0.6-0.4,2.4-1.3,5.4l-7.3,25h6l2-6.6c0.8-2.7,1.9-5.2,3.1-7.4c2.4-4.3,4.6-7.8,6.7-10.6
				c2.1-2.8,4.2-4.7,6.1-5.9c1-0.6,1.9-1,2.7-1c0.5,0,0.9,0.2,1.3,0.5c0.3,0.3,0.5,0.8,0.5,1.3c0,1.1-0.3,2.7-0.9,4.7l-4.6,16.1
				c-0.9,3.1-1.4,5.3-1.4,6.6c0,1,0.3,1.8,0.9,2.4s1.4,0.9,2.4,0.9c1.2,0,2.6-0.5,4.2-1.6c2.2-1.5,4.6-4,7-7.6l-1.2-0.8
				C1046.9,2174.7,1045.4,2176.4,1044,2177.5z"/>
			<path class="st13" d="M1089.7,2126.1c-2.6,0-5,0.8-7.1,2.4c-2.2,1.6-3.9,3.9-5.3,7l1.5,0.4c2.3-3.7,5-5.6,7.9-5.6
				c1.9,0,3.5,0.7,4.8,2.1c1.3,1.4,2,3.1,2,5.2c0,2.8-1.1,5.2-3.4,7.2c-3.2,2.8-8,4.8-14.4,5.8v1.2c2.7,0.2,5.2,0.9,7.4,2.1
				c2.3,1.2,3.9,2.9,5,4.9c1.1,2,1.6,4.3,1.6,6.8c0,3.1-0.8,6.1-2.3,8.9c-1.6,2.8-3.5,4.2-5.9,4.2c-1,0-1.9-0.2-2.9-0.5
				c-0.9-0.3-2.2-0.9-3.9-1.9c-1.7-0.9-2.7-1.5-3.1-1.6c-0.7-0.2-1.4-0.3-2.1-0.3c-1,0-1.8,0.3-2.5,1c-0.7,0.7-1,1.5-1,2.4
				c0,1.1,0.6,2,1.7,2.8c1.7,1.2,4.3,1.8,7.6,1.8c3.7,0,7.2-0.9,10.5-2.7s6-4.4,7.9-7.7c1.9-3.3,2.9-6.7,2.9-10c0-3-0.7-5.6-2.1-7.7
				c-1.4-2.1-3.5-3.8-6.3-4.9c4.4-1.8,7.6-3.8,9.4-6.1c1.8-2.3,2.7-4.6,2.7-7.1c0-2.9-1-5.3-2.9-7.1
				C1095.4,2127,1092.9,2126.1,1089.7,2126.1z"/>
			<path class="st13" d="M1105.6,2174.2c-1.1,0-2.1,0.4-2.9,1.2c-0.8,0.8-1.2,1.7-1.2,2.9s0.4,2.1,1.2,2.9c0.8,0.8,1.7,1.2,2.9,1.2
				c1.1,0,2.1-0.4,2.9-1.2c0.8-0.8,1.2-1.7,1.2-2.9s-0.4-2.1-1.2-2.9C1107.7,2174.6,1106.8,2174.2,1105.6,2174.2z"/>
			<path class="st13" d="M1148.2,2126.1h-1.9l-13.5,3.8l0.5,1.4c1.5-0.3,2.5-0.5,3.2-0.5c0.9,0,1.6,0.3,2.1,0.8
				c0.5,0.5,0.8,1.3,0.8,2.2c0,0.5,0,1-0.1,1.6c-0.1,0.3-0.4,1.4-0.9,3.4l-9.3,32.1c-0.9,3.2-1.8,5.4-2.7,6.6
				c-0.6,0.8-1.4,1.4-2.5,1.9c-0.7,0.3-2.1,0.5-4.3,0.5l-0.6,1.5h20.6l0.4-1.5c-2.5-0.2-4.1-0.5-4.8-1.1c-0.7-0.5-1-1.3-1-2.3
				c0-1.2,0.4-3.1,1.1-5.7L1148.2,2126.1z"/>
		</g>
	</g>
</g>
</svg>
