<?xml version="1.0" encoding="utf-8"?>
<!-- Generator: Adobe Illustrator 26.2.1, SVG Export Plug-In . SVG Version: 6.00 Build 0)  -->
<svg version="1.1" id="Layer_1" xmlns="http://www.w3.org/2000/svg" xmlns:xlink="http://www.w3.org/1999/xlink" x="0px" y="0px"
	 viewBox="0 0 3839 950.4" style="enable-background:new 0 0 3839 950.4;" xml:space="preserve">
<style type="text/css">
	.st0{fill:#FFFFFF;}
</style>
<g>
	<rect x="33.2" y="33.3" class="st0" width="3761.3" height="879"/>
	<g>
		<g>
			<g>
				<path d="M1023.7,484.4l1.6,1.6c41.4-59.4,59.4-73.4,93-73.4c10.2,0,17.2,0.8,28.9,5.5v75c-15.6-8.6-26.6-11.7-40.6-11.7
					c-34.4,0-57.8,21.1-94.5,89.8l-27.3,197.7h-66.4L967.4,418h66.4L1023.7,484.4z"/>
				<path d="M1412.7,754.7c-33.6,18-61.7,25-97.7,25c-94.5,0-154.7-63.3-154.7-161.7c0-114.1,89.1-210.9,227.4-210.9
					c18,0,38.3,2.3,60.2,6.2l-8.6,58.6c-18-3.9-34.4-5.5-50.8-5.5c-97.7,0-160.2,73.4-160.2,147.7c0,66.4,36.7,106.3,96.1,106.3
					c35.2,0,63.3-10.2,96.1-29.7L1412.7,754.7z"/>
				<path d="M1574.4,474.2l1.6,1.6c39.1-45.3,80.5-68.7,121.9-68.7c63.3,0,89.1,55.5,79.7,122.7L1744,768.8h-66.4l33.6-243
					c6.3-44.5-10.9-68.7-39.8-68.7c-32,0-72.7,37.5-106.2,83.6l-32,228.1h-66.4l75-532.8h66.4L1574.4,474.2z"/>
				<path d="M1861.9,768.8h-66.4l49.2-350.8h66.4L1861.9,768.8z M1928.3,307.8c0,21.1-17.2,38.3-38.3,38.3
					c-21.1,0-38.3-17.2-38.3-38.3c0-21.1,17.2-38.3,38.3-38.3C1911.2,269.5,1928.3,286.7,1928.3,307.8z"/>
				<path d="M2025.2,478.9l1.6,1.6c43-48.4,82-68,121.1-68c28.9,0,70.3,14.8,79.7,78.9c50.8-62.5,96.9-78.9,131.2-78.9
					c50.8,0,93.8,38.3,80.5,128.9l-32,227.4h-66.4l32.8-230.5c7-46.1-7-73.4-35.9-73.4c-23.4,0-61.7,17.2-110.2,81.2l-32,222.7
					h-66.4l31.3-221.9c7.8-50.8-1.6-82-39.1-82c-25.8,0-68.7,32-105.5,81.2l-31.3,222.7h-66.4l50-350.8h66.4L2025.2,478.9z"/>
				<path d="M2733.8,740.6c-35.2,25.8-75,39.1-117.2,39.1c-89.1,0-146.9-67.2-146.9-169.5c0-114.8,72.7-203.1,166.4-203.1
					c78.1,0,136.7,72.7,121.9,179.7h-218.8c-16.4,93.8,35.2,138.3,89.8,138.3c32.8,0,70.3-15.6,114.1-47.7L2733.8,740.6z
					 M2696.3,540.6c0-44.5-19.5-78.9-63.3-78.9c-39.1,0-65.6,25.8-83.6,78.9H2696.3z"/>
				<path d="M3072.8,768.8c-28.1,7.8-55.5,10.9-89.8,10.9c-118,0-184.4-57.8-184.4-162.5c0-75,63.3-210.2,230.5-210.2h28.1
					l24.2-171.1h66.4L3072.8,768.8z M3049.4,462.5h-17.2c-108.6,0-165.6,78.1-165.6,153.1c0,69.5,41.4,109.4,116.4,109.4
					c10.2,0,19.5,0,30.5-1.6L3049.4,462.5z"/>
				<path d="M3411.1,740.6c-35.2,25.8-75,39.1-117.2,39.1c-89.1,0-146.9-67.2-146.9-169.5c0-114.8,72.7-203.1,166.4-203.1
					c78.1,0,136.7,72.7,121.9,179.7h-218.8c-16.4,93.8,35.2,138.3,89.8,138.3c32.8,0,70.3-15.6,114.1-47.7L3411.1,740.6z
					 M3373.6,540.6c0-44.5-19.5-78.9-63.3-78.9c-39.1,0-65.6,25.8-83.6,78.9H3373.6z"/>
				<path d="M3704.1,513.3c-39.8-30.5-76.6-46.1-105.5-46.1c-27.3,0-47.7,16.4-47.7,36.7c0,50,139.8,74.2,139.8,171.1
					c0,63.3-46.9,104.7-108.6,104.7c-43.7,0-71.9-10.9-121.9-46.1l11.7-64.1c46.1,36.7,79.7,52.3,107.8,52.3
					c26.6,0,45.3-16.4,45.3-39.1c0-58.6-137.5-79.7-137.5-175c0-60.2,43-100.8,110.2-100.8c36.7,0,73.4,14.1,106.3,36.7V513.3z"/>
			</g>
			<polygon class="st0" points="283.7,927.7 53.3,910.8 443.2,433.4 628.8,393.3 781.2,483.7 769.6,927.7 			"/>
			<polygon class="st0" points="438.5,416.6 559.2,235.3 776,13.7 781.2,483.7 602.7,384.3 			"/>
			<path d="M413.7,512.8c111.6-139.6,304.3-80.9,342.5-8.9c0,0,42.1-43.7,35.8-51.2c-41.2-49.5-121.1-83.4-202.3-83.4
				c-87.9,0-166.7,38-221.8,106.9L289,574.7L413.7,512.8z"/>
			<polygon points="0,0 0,927.7 66.1,927.7 66.5,0 			"/>
			<polygon points="3772.5,0 3772.5,927.7 3838.6,927.7 3839,0 			"/>
			<polygon points="3777.2,0.1 0,0.1 0,66.1 3777.2,66.5 			"/>
			<polygon points="3839,883.9 0,883.9 0,950 3839,950.4 			"/>
		</g>
	</g>
	<g>
		<polygon points="734.9,7.1 40.5,883.9 119.6,883.9 808.1,15.1 781.2,15 		"/>
	</g>
	<polygon points="807.7,883.9 808,10.5 748,10.2 748,883.9 	"/>
</g>
</svg>
