<?xml version="1.0" encoding="utf-8"?>
<!-- Generator: Adobe Illustrator 27.0.1, SVG Export Plug-In . SVG Version: 6.00 Build 0)  -->
<svg version="1.1" id="Layer_1" xmlns="http://www.w3.org/2000/svg" xmlns:xlink="http://www.w3.org/1999/xlink" x="0px" y="0px"
	 viewBox="0 0 3839 1130.08" style="enable-background:new 0 0 3839 1130.08;" xml:space="preserve">
<style type="text/css">
	.st0{fill:#FFFFFF;}
	.st1{fill:#62B647;}
	.st2{clip-path:url(#SVGID_00000133501887598906092740000012991682150880475779_);fill:#0D97D3;}
	.st3{clip-path:url(#SVGID_00000180329492657276916760000009967947251597927564_);fill:#924092;}
	.st4{clip-path:url(#SVGID_00000036967649557484789960000015850003214751184006_);fill:#E11F32;}
	.st5{clip-path:url(#SVGID_00000096762707352935407210000003389461736814802050_);fill:#F08020;}
	.st6{clip-path:url(#SVGID_00000165194070112898910520000011951465198713463978_);fill:#F2BC1A;}
	.st7{clip-path:url(#SVGID_00000017504570375870910710000017026409021908453253_);fill:#62B647;}
	.st8{clip-path:url(#SVGID_00000058583060635183393150000000446467304155295640_);fill:#0D97D3;}
	.st9{clip-path:url(#SVGID_00000003814160390308735610000018415088766609143197_);fill:#924092;}
	.st10{clip-path:url(#SVGID_00000011750777808003836590000005962267473375461524_);fill:#E11F32;}
	.st11{clip-path:url(#SVGID_00000097465019936905411300000012223533249241309830_);fill:#F08020;}
	.st12{clip-path:url(#SVGID_00000170275295421921013610000005566777831446309795_);fill:#F2BC1A;}
	.st13{clip-path:url(#SVGID_00000182505764470102317010000006603861506788405165_);fill:#62B647;}
	.st14{clip-path:url(#SVGID_00000134968986602400743510000004012809906335567020_);fill:#0D97D3;}
	.st15{clip-path:url(#SVGID_00000029043968988986583080000000720953569904629912_);fill:#924092;}
	.st16{clip-path:url(#SVGID_00000111170203243665767730000004577482963751183538_);fill:#E11F32;}
	.st17{clip-path:url(#SVGID_00000157992344337657637020000010232299278466683779_);fill:#F08020;}
	.st18{clip-path:url(#SVGID_00000110435231240664902100000000948272177018140049_);fill:#F2BC1A;}
	.st19{clip-path:url(#SVGID_00000139972498125425355450000015024541469620788890_);fill:#62B647;}
	.st20{clip-path:url(#SVGID_00000161618534075636487500000008389144446761209019_);fill:#0D97D3;}
	.st21{clip-path:url(#SVGID_00000078754366641321047620000016650689003549792390_);fill:#924092;}
	.st22{clip-path:url(#SVGID_00000132807781205897224150000013060201910894475167_);fill:#E11F32;}
	.st23{clip-path:url(#SVGID_00000161591745254210609730000006695487407277260975_);fill:#F08020;}
	.st24{clip-path:url(#SVGID_00000078749702422864508010000015677916097614952627_);fill:#F2BC1A;}
	.st25{clip-path:url(#SVGID_00000128453858306051917000000014017270998959674257_);fill:#62B647;}
	.st26{clip-path:url(#SVGID_00000092428742201781527800000003870182498692260749_);fill:#0D97D3;}
	.st27{clip-path:url(#SVGID_00000160905021099759456590000002625930451854893972_);fill:#924092;}
	.st28{clip-path:url(#SVGID_00000091010656073900416420000012088604142508321455_);fill:#E11F32;}
	.st29{clip-path:url(#SVGID_00000006668386922375132750000001262499421930918824_);fill:#F08020;}
	.st30{clip-path:url(#SVGID_00000024693566505202176110000007843252319447096452_);fill:#F2BC1A;}
	.st31{clip-path:url(#SVGID_00000091697292834873292240000001642874389601619605_);fill:#62B647;}
	.st32{clip-path:url(#SVGID_00000073689286116701832590000004425124382980293045_);fill:#0D97D3;}
	.st33{clip-path:url(#SVGID_00000093156222164192762850000005864964114281596601_);fill:#924092;}
	.st34{clip-path:url(#SVGID_00000039854121789327101980000011987128924534228356_);fill:#E11F32;}
	.st35{clip-path:url(#SVGID_00000008113535976896333520000011280509839410030008_);fill:#F08020;}
	.st36{clip-path:url(#SVGID_00000078738150010627898520000004005059297460000918_);fill:#F2BC1A;}
	.st37{clip-path:url(#SVGID_00000103958671122204664380000006962887654314532762_);fill:#62B647;}
</style>
<g>
	<g>
		<path d="M537.27,149.17c16.2-21.25,28.56-44.17,36.32-69.39c8.4-27.64,10.46-53.9,6.15-79.79c-23.42,2.21-47.81,10.17-73.25,24.26
			S460.9,55.44,444.55,75.4c-16.35,19.96-27.99,42.21-36.45,66.26c-9.59,28.43-12.25,53.97-7.42,78.64
			c25.42,0.75,50.53-5.87,76.53-20.07C500.83,187.51,521.07,170.42,537.27,149.17z"/>
		<path d="M257.63,945.89c13.2-0.67,27.09-3.26,40.3-7.09c6.55-1.92,17.8-6.42,35.02-13.61c14.48-5.85,26.41-10.35,36.97-12.94
			c15.16-3.83,31.01-5.85,47.54-5.85c16.53,0,32.37,1.92,47.54,5.85c9.19,2.59,21.81,7.09,36.97,13.61
			c15.16,6.42,27.09,10.35,35.02,12.94c13.89,3.83,27.68,5.85,42.25,5.17c21.13,0,40.88-5.85,59.37-17.44
			c15.85-10.35,31.69-24.53,48.22-43.99c10.56-12.27,24.45-31.05,42.25-56.25c19.17-28.46,36.29-58.84,50.86-92.48
			c5.28-12.27,11.25-27.12,16.53-43.99c-10.56-3.83-21.81-9.68-34.33-18.11c-25.72-16.77-46.85-37.47-62.7-61.43
			c-22.4-32.97-33.65-71.11-34.33-114.52c0-35.55,8.61-69.86,26.41-100.91c12.52-21.95,29.73-42.07,50.18-60.18
			c9.19-8.43,19.17-15.52,29.73-21.95c-25.04-36.22-58.78-62.1-100.35-78.3c-23.77-9.01-50.18-14.85-79.23-16.77
			c-15.16-1.25-31.01-0.67-46.85,1.92c-13.2,1.92-27.68,5.85-42.94,10.35c-9.88,3.83-22.4,8.43-38.24,14.18
			c-15.85,6.42-27.09,10.35-32.96,12.27c-10.56,3.26-19.76,5.17-26.41,5.17c-8.61,0-19.76-1.92-32.96-6.42
			c-3.91-1.25-16.53-6.42-38.93-14.85c-17.12-6.42-31.69-11.6-43.53-14.85c-16.53-3.83-31.69-5.85-46.17-5.85
			c-41.57,0.67-79.91,11.6-116.2,33.64c-36.29,21.37-64.65,50.41-85.78,87.3C13.79,386.42,0,441.42,0,504.1
			c0,56.25,9.88,113.85,30.32,173.94c18.49,55.01,42.94,103.5,72.57,145.47c17.12,25.2,31.69,44.66,43.53,58.17
			c17.12,20.7,34.33,35.55,50.86,45.9C216.75,940.04,236.5,945.89,257.63,945.89z"/>
		<g>
			<g>
				<defs>
					<path id="SVGID_00000181046036904073288050000012595905086949764285_" d="M257.63,945.89c13.2-0.67,27.09-3.26,40.3-7.09
						c6.55-1.92,17.8-6.42,35.02-13.61c14.48-5.85,26.41-10.35,36.97-12.94c15.16-3.83,31.01-5.85,47.54-5.85
						c16.53,0,32.37,1.92,47.54,5.85c9.19,2.59,21.81,7.09,36.97,13.61c15.16,6.42,27.09,10.35,35.02,12.94
						c13.89,3.83,27.68,5.85,42.25,5.17c21.13,0,40.88-5.85,59.37-17.44c15.85-10.35,31.69-24.53,48.22-43.99
						c10.56-12.27,24.45-31.05,42.25-56.25c19.17-28.46,36.29-58.84,50.86-92.48c5.28-12.27,11.25-27.12,16.53-43.99
						c-10.56-3.83-21.81-9.68-34.33-18.11c-25.72-16.77-46.85-37.47-62.7-61.43c-22.4-32.97-33.65-71.11-34.33-114.52
						c0-35.55,8.61-69.86,26.41-100.91c12.52-21.95,29.73-42.07,50.18-60.18c9.19-8.43,19.17-15.52,29.73-21.95
						c-25.04-36.22-58.78-62.1-100.35-78.3c-23.77-9.01-50.18-14.85-79.23-16.77c-15.16-1.25-31.01-0.67-46.85,1.92
						c-13.2,1.92-27.68,5.85-42.94,10.35c-9.88,3.83-22.4,8.43-38.24,14.18c-15.85,6.42-27.09,10.35-32.96,12.27
						c-10.56,3.26-19.76,5.17-26.41,5.17c-8.61,0-19.76-1.92-32.96-6.42c-3.91-1.25-16.53-6.42-38.93-14.85
						c-17.12-6.42-31.69-11.6-43.53-14.85c-16.53-3.83-31.69-5.85-46.17-5.85c-41.57,0.67-79.91,11.6-116.2,33.64
						c-36.29,21.37-64.65,50.41-85.78,87.3C13.79,386.42,0,441.42,0,504.1c0,56.25,9.88,113.85,30.32,173.94
						c18.49,55.01,42.94,103.5,72.57,145.47c17.12,25.2,31.69,44.66,43.53,58.17c17.12,20.7,34.33,35.55,50.86,45.9
						C216.75,940.04,236.5,945.89,257.63,945.89z"/>
				</defs>
				<use xlink:href="#SVGID_00000181046036904073288050000012595905086949764285_"  style="overflow:visible;"/>
				<clipPath id="SVGID_00000029041809237845970210000017730417352763946140_">
					<use xlink:href="#SVGID_00000181046036904073288050000012595905086949764285_"  style="overflow:visible;"/>
				</clipPath>
			</g>
		</g>
		<g>
			<g>
				<defs>
					<path id="SVGID_00000028309835858765724680000007565845565934516884_" d="M257.63,945.89c13.2-0.67,27.09-3.26,40.3-7.09
						c6.55-1.92,17.8-6.42,35.02-13.61c14.48-5.85,26.41-10.35,36.97-12.94c15.16-3.83,31.01-5.85,47.54-5.85
						c16.53,0,32.37,1.92,47.54,5.85c9.19,2.59,21.81,7.09,36.97,13.61c15.16,6.42,27.09,10.35,35.02,12.94
						c13.89,3.83,27.68,5.85,42.25,5.17c21.13,0,40.88-5.85,59.37-17.44c15.85-10.35,31.69-24.53,48.22-43.99
						c10.56-12.27,24.45-31.05,42.25-56.25c19.17-28.46,36.29-58.84,50.86-92.48c5.28-12.27,11.25-27.12,16.53-43.99
						c-10.56-3.83-21.81-9.68-34.33-18.11c-25.72-16.77-46.85-37.47-62.7-61.43c-22.4-32.97-33.65-71.11-34.33-114.52
						c0-35.55,8.61-69.86,26.41-100.91c12.52-21.95,29.73-42.07,50.18-60.18c9.19-8.43,19.17-15.52,29.73-21.95
						c-25.04-36.22-58.78-62.1-100.35-78.3c-23.77-9.01-50.18-14.85-79.23-16.77c-15.16-1.25-31.01-0.67-46.85,1.92
						c-13.2,1.92-27.68,5.85-42.94,10.35c-9.88,3.83-22.4,8.43-38.24,14.18c-15.85,6.42-27.09,10.35-32.96,12.27
						c-10.56,3.26-19.76,5.17-26.41,5.17c-8.61,0-19.76-1.92-32.96-6.42c-3.91-1.25-16.53-6.42-38.93-14.85
						c-17.12-6.42-31.69-11.6-43.53-14.85c-16.53-3.83-31.69-5.85-46.17-5.85c-41.57,0.67-79.91,11.6-116.2,33.64
						c-36.29,21.37-64.65,50.41-85.78,87.3C13.79,386.42,0,441.42,0,504.1c0,56.25,9.88,113.85,30.32,173.94
						c18.49,55.01,42.94,103.5,72.57,145.47c17.12,25.2,31.69,44.66,43.53,58.17c17.12,20.7,34.33,35.55,50.86,45.9
						C216.75,940.04,236.5,945.89,257.63,945.89z"/>
				</defs>
				<use xlink:href="#SVGID_00000028309835858765724680000007565845565934516884_"  style="overflow:visible;"/>
				<clipPath id="SVGID_00000026876966963380658640000011434105702222303420_">
					<use xlink:href="#SVGID_00000028309835858765724680000007565845565934516884_"  style="overflow:visible;"/>
				</clipPath>
			</g>
		</g>
		<g>
			<g>
				<defs>
					<path id="SVGID_00000078734333395300596580000005232511173637878952_" d="M257.63,945.89c13.2-0.67,27.09-3.26,40.3-7.09
						c6.55-1.92,17.8-6.42,35.02-13.61c14.48-5.85,26.41-10.35,36.97-12.94c15.16-3.83,31.01-5.85,47.54-5.85
						c16.53,0,32.37,1.92,47.54,5.85c9.19,2.59,21.81,7.09,36.97,13.61c15.16,6.42,27.09,10.35,35.02,12.94
						c13.89,3.83,27.68,5.85,42.25,5.17c21.13,0,40.88-5.85,59.37-17.44c15.85-10.35,31.69-24.53,48.22-43.99
						c10.56-12.27,24.45-31.05,42.25-56.25c19.17-28.46,36.29-58.84,50.86-92.48c5.28-12.27,11.25-27.12,16.53-43.99
						c-10.56-3.83-21.81-9.68-34.33-18.11c-25.72-16.77-46.85-37.47-62.7-61.43c-22.4-32.97-33.65-71.11-34.33-114.52
						c0-35.55,8.61-69.86,26.41-100.91c12.52-21.95,29.73-42.07,50.18-60.18c9.19-8.43,19.17-15.52,29.73-21.95
						c-25.04-36.22-58.78-62.1-100.35-78.3c-23.77-9.01-50.18-14.85-79.23-16.77c-15.16-1.25-31.01-0.67-46.85,1.92
						c-13.2,1.92-27.68,5.85-42.94,10.35c-9.88,3.83-22.4,8.43-38.24,14.18c-15.85,6.42-27.09,10.35-32.96,12.27
						c-10.56,3.26-19.76,5.17-26.41,5.17c-8.61,0-19.76-1.92-32.96-6.42c-3.91-1.25-16.53-6.42-38.93-14.85
						c-17.12-6.42-31.69-11.6-43.53-14.85c-16.53-3.83-31.69-5.85-46.17-5.85c-41.57,0.67-79.91,11.6-116.2,33.64
						c-36.29,21.37-64.65,50.41-85.78,87.3C13.79,386.42,0,441.42,0,504.1c0,56.25,9.88,113.85,30.32,173.94
						c18.49,55.01,42.94,103.5,72.57,145.47c17.12,25.2,31.69,44.66,43.53,58.17c17.12,20.7,34.33,35.55,50.86,45.9
						C216.75,940.04,236.5,945.89,257.63,945.89z"/>
				</defs>
				<use xlink:href="#SVGID_00000078734333395300596580000005232511173637878952_"  style="overflow:visible;"/>
				<clipPath id="SVGID_00000142158106254649365570000003463650824039305367_">
					<use xlink:href="#SVGID_00000078734333395300596580000005232511173637878952_"  style="overflow:visible;"/>
				</clipPath>
			</g>
		</g>
		<g>
			<g>
				<defs>
					<path id="SVGID_00000040550150913898144850000005441997697718861970_" d="M257.63,945.89c13.2-0.67,27.09-3.26,40.3-7.09
						c6.55-1.92,17.8-6.42,35.02-13.61c14.48-5.85,26.41-10.35,36.97-12.94c15.16-3.83,31.01-5.85,47.54-5.85
						c16.53,0,32.37,1.92,47.54,5.85c9.19,2.59,21.81,7.09,36.97,13.61c15.16,6.42,27.09,10.35,35.02,12.94
						c13.89,3.83,27.68,5.85,42.25,5.17c21.13,0,40.88-5.85,59.37-17.44c15.85-10.35,31.69-24.53,48.22-43.99
						c10.56-12.27,24.45-31.05,42.25-56.25c19.17-28.46,36.29-58.84,50.86-92.48c5.28-12.27,11.25-27.12,16.53-43.99
						c-10.56-3.83-21.81-9.68-34.33-18.11c-25.72-16.77-46.85-37.47-62.7-61.43c-22.4-32.97-33.65-71.11-34.33-114.52
						c0-35.55,8.61-69.86,26.41-100.91c12.52-21.95,29.73-42.07,50.18-60.18c9.19-8.43,19.17-15.52,29.73-21.95
						c-25.04-36.22-58.78-62.1-100.35-78.3c-23.77-9.01-50.18-14.85-79.23-16.77c-15.16-1.25-31.01-0.67-46.85,1.92
						c-13.2,1.92-27.68,5.85-42.94,10.35c-9.88,3.83-22.4,8.43-38.24,14.18c-15.85,6.42-27.09,10.35-32.96,12.27
						c-10.56,3.26-19.76,5.17-26.41,5.17c-8.61,0-19.76-1.92-32.96-6.42c-3.91-1.25-16.53-6.42-38.93-14.85
						c-17.12-6.42-31.69-11.6-43.53-14.85c-16.53-3.83-31.69-5.85-46.17-5.85c-41.57,0.67-79.91,11.6-116.2,33.64
						c-36.29,21.37-64.65,50.41-85.78,87.3C13.79,386.42,0,441.42,0,504.1c0,56.25,9.88,113.85,30.32,173.94
						c18.49,55.01,42.94,103.5,72.57,145.47c17.12,25.2,31.69,44.66,43.53,58.17c17.12,20.7,34.33,35.55,50.86,45.9
						C216.75,940.04,236.5,945.89,257.63,945.89z"/>
				</defs>
				<use xlink:href="#SVGID_00000040550150913898144850000005441997697718861970_"  style="overflow:visible;"/>
				<clipPath id="SVGID_00000008108071293834583910000002562790540417434297_">
					<use xlink:href="#SVGID_00000040550150913898144850000005441997697718861970_"  style="overflow:visible;"/>
				</clipPath>
			</g>
		</g>
		<g>
			<g>
				<defs>
					<path id="SVGID_00000163070918422314110090000012597893493889536921_" d="M257.63,945.89c13.2-0.67,27.09-3.26,40.3-7.09
						c6.55-1.92,17.8-6.42,35.02-13.61c14.48-5.85,26.41-10.35,36.97-12.94c15.16-3.83,31.01-5.85,47.54-5.85
						c16.53,0,32.37,1.92,47.54,5.85c9.19,2.59,21.81,7.09,36.97,13.61c15.16,6.42,27.09,10.35,35.02,12.94
						c13.89,3.83,27.68,5.85,42.25,5.17c21.13,0,40.88-5.85,59.37-17.44c15.85-10.35,31.69-24.53,48.22-43.99
						c10.56-12.27,24.45-31.05,42.25-56.25c19.17-28.46,36.29-58.84,50.86-92.48c5.28-12.27,11.25-27.12,16.53-43.99
						c-10.56-3.83-21.81-9.68-34.33-18.11c-25.72-16.77-46.85-37.47-62.7-61.43c-22.4-32.97-33.65-71.11-34.33-114.52
						c0-35.55,8.61-69.86,26.41-100.91c12.52-21.95,29.73-42.07,50.18-60.18c9.19-8.43,19.17-15.52,29.73-21.95
						c-25.04-36.22-58.78-62.1-100.35-78.3c-23.77-9.01-50.18-14.85-79.23-16.77c-15.16-1.25-31.01-0.67-46.85,1.92
						c-13.2,1.92-27.68,5.85-42.94,10.35c-9.88,3.83-22.4,8.43-38.24,14.18c-15.85,6.42-27.09,10.35-32.96,12.27
						c-10.56,3.26-19.76,5.17-26.41,5.17c-8.61,0-19.76-1.92-32.96-6.42c-3.91-1.25-16.53-6.42-38.93-14.85
						c-17.12-6.42-31.69-11.6-43.53-14.85c-16.53-3.83-31.69-5.85-46.17-5.85c-41.57,0.67-79.91,11.6-116.2,33.64
						c-36.29,21.37-64.65,50.41-85.78,87.3C13.79,386.42,0,441.42,0,504.1c0,56.25,9.88,113.85,30.32,173.94
						c18.49,55.01,42.94,103.5,72.57,145.47c17.12,25.2,31.69,44.66,43.53,58.17c17.12,20.7,34.33,35.55,50.86,45.9
						C216.75,940.04,236.5,945.89,257.63,945.89z"/>
				</defs>
				<use xlink:href="#SVGID_00000163070918422314110090000012597893493889536921_"  style="overflow:visible;"/>
				<clipPath id="SVGID_00000096052007065578378530000015811343845960347032_">
					<use xlink:href="#SVGID_00000163070918422314110090000012597893493889536921_"  style="overflow:visible;"/>
				</clipPath>
			</g>
		</g>
		<g>
			<g>
				<defs>
					<path id="SVGID_00000034778296725475136930000003655704789291747510_" d="M257.63,945.89c13.2-0.67,27.09-3.26,40.3-7.09
						c6.55-1.92,17.8-6.42,35.02-13.61c14.48-5.85,26.41-10.35,36.97-12.94c15.16-3.83,31.01-5.85,47.54-5.85
						c16.53,0,32.37,1.92,47.54,5.85c9.19,2.59,21.81,7.09,36.97,13.61c15.16,6.42,27.09,10.35,35.02,12.94
						c13.89,3.83,27.68,5.85,42.25,5.17c21.13,0,40.88-5.85,59.37-17.44c15.85-10.35,31.69-24.53,48.22-43.99
						c10.56-12.27,24.45-31.05,42.25-56.25c19.17-28.46,36.29-58.84,50.86-92.48c5.28-12.27,11.25-27.12,16.53-43.99
						c-10.56-3.83-21.81-9.68-34.33-18.11c-25.72-16.77-46.85-37.47-62.7-61.43c-22.4-32.97-33.65-71.11-34.33-114.52
						c0-35.55,8.61-69.86,26.41-100.91c12.52-21.95,29.73-42.07,50.18-60.18c9.19-8.43,19.17-15.52,29.73-21.95
						c-25.04-36.22-58.78-62.1-100.35-78.3c-23.77-9.01-50.18-14.85-79.23-16.77c-15.16-1.25-31.01-0.67-46.85,1.92
						c-13.2,1.92-27.68,5.85-42.94,10.35c-9.88,3.83-22.4,8.43-38.24,14.18c-15.85,6.42-27.09,10.35-32.96,12.27
						c-10.56,3.26-19.76,5.17-26.41,5.17c-8.61,0-19.76-1.92-32.96-6.42c-3.91-1.25-16.53-6.42-38.93-14.85
						c-17.12-6.42-31.69-11.6-43.53-14.85c-16.53-3.83-31.69-5.85-46.17-5.85c-41.57,0.67-79.91,11.6-116.2,33.64
						c-36.29,21.37-64.65,50.41-85.78,87.3C13.79,386.42,0,441.42,0,504.1c0,56.25,9.88,113.85,30.32,173.94
						c18.49,55.01,42.94,103.5,72.57,145.47c17.12,25.2,31.69,44.66,43.53,58.17c17.12,20.7,34.33,35.55,50.86,45.9
						C216.75,940.04,236.5,945.89,257.63,945.89z"/>
				</defs>
				<use xlink:href="#SVGID_00000034778296725475136930000003655704789291747510_"  style="overflow:visible;"/>
				<clipPath id="SVGID_00000100374713718828662780000016035602044401483953_">
					<use xlink:href="#SVGID_00000034778296725475136930000003655704789291747510_"  style="overflow:visible;"/>
				</clipPath>
			</g>
		</g>
	</g>
	<g>
		<g>
			<path d="M1068.7,676.54c-16.98,0-20.97,3.08-33.96,51.36c-19.97,82.17-28.96,108.87-28.96,126.33c0,17.46,12.98,26.7,36.95,29.78
				c16.98,2.05,29.96,3.08,29.96,14.38c0,9.24-7.99,11.3-17.98,11.3c-17.98,0-42.95-4.11-64.92-4.11c-25.97,0-57.93,4.11-64.92,4.11
				s-11.99-4.11-11.99-11.3c0-9.24,7.99-12.33,15.98-13.35c14.98-2.05,28.96-6.16,37.95-34.92
				c55.93-177.69,104.87-359.48,151.81-539.22c3.99-12.33,6.99-23.62,8.99-34.92c3-14.38,5.99-28.76,17.98-28.76
				c10.99,0,12.98,8.22,16.98,23.62c53.93,186.93,108.87,375.92,163.8,563.88c6.99,21.57,16.98,47.25,34.96,50.33
				c11.99,3.08,29.96,5.14,29.96,16.43c0,6.16-6.99,8.22-19.97,8.22c-25.97,0-46.94-4.11-73.91-4.11c-27.96,0-55.93,4.11-77.9,4.11
				c-7.99,0-16.98-3.08-16.98-11.3c0-9.24,11.99-13.35,26.97-13.35c15.98,0,32.96-3.08,32.96-26.71
				c0-13.35-13.98-51.35-34.96-130.44c-12.98-44.17-14.98-51.36-37.95-51.36H1068.7z M1178.56,650.86c19.97,0,21.97-2.05,21.97-8.22
				c0-4.11-2-13.35-4.99-22.6c-9.99-35.95-29.96-97.58-53.93-188.99c-3-15.41-7.99-22.6-13.98-22.6c-6.99,0-8.99,8.22-14.98,33.9
				c-20.97,79.09-34.96,130.44-44.94,166.39c-5.99,24.65-7.99,31.84-7.99,34.92c0,5.14,3,7.19,20.97,7.19H1178.56z"/>
			<path d="M1478.16,1049.37c0,39.82,9.79,49.5,47,54.88c11.75,2.15,20.57,3.23,20.57,15.07c0,6.46-6.86,10.76-20.57,10.76
				c-17.63,0-29.38-4.31-70.51-4.31c-38.19,0-61.7,4.31-77.36,4.31c-14.69,0-19.59-3.23-19.59-10.76c0-7.53,3.92-11.84,15.67-15.07
				c40.15-7.53,44.07-12.91,44.07-62.42V534.12c0-24.75-3.92-31.21-24.48-37.66c-17.63-5.38-24.48-6.46-24.48-11.84
				c0-10.76,4.9-11.84,14.69-17.22c31.34-16.14,54.84-32.29,66.59-44.12c11.75-8.61,15.67-15.07,20.56-15.07s6.86,4.31,6.86,15.07
				v45.2c0,4.31,1.96,7.53,5.88,7.53c3.92,0,13.71-10.76,25.46-22.6c21.54-19.37,48.96-39.82,80.3-39.82
				c82.26,0,155.71,100.08,155.71,255.04c0,146.35-73.45,249.66-175.29,249.66c-26.44,0-46.03-7.53-62.67-13.99
				c-9.79-4.31-16.65-8.61-22.52-8.61s-5.87,7.53-5.87,23.67V1049.37z M1678.92,666.48c0-125.91-40.15-210.92-108.7-210.92
				c-25.46,0-50.92,10.76-68.55,30.13c-14.69,16.14-23.5,37.66-23.5,58.11v249.66c0,37.66,7.83,64.57,24.48,81.79
				c14.69,16.14,36.23,23.67,57.78,23.67c67.57,0,118.49-74.25,118.49-231.37V666.48z"/>
			<path d="M1869.85,1049.37c0,39.82,9.79,49.5,47,54.88c11.75,2.15,20.57,3.23,20.57,15.07c0,6.46-6.86,10.76-20.57,10.76
				c-17.63,0-29.38-4.31-70.51-4.31c-38.19,0-61.7,4.31-77.36,4.31c-14.69,0-19.59-3.23-19.59-10.76c0-7.53,3.92-11.84,15.67-15.07
				c40.15-7.53,44.07-12.91,44.07-62.42V534.12c0-24.75-3.92-31.21-24.48-37.66c-17.63-5.38-24.48-6.46-24.48-11.84
				c0-10.76,4.9-11.84,14.69-17.22c31.34-16.14,54.84-32.29,66.59-44.12c11.75-8.61,15.67-15.07,20.56-15.07
				c4.9,0,6.86,4.31,6.86,15.07v45.2c0,4.31,1.96,7.53,5.88,7.53c3.92,0,13.71-10.76,25.46-22.6c21.54-19.37,48.97-39.82,80.3-39.82
				c82.26,0,155.71,100.08,155.71,255.04c0,146.35-73.45,249.66-175.29,249.66c-26.44,0-46.03-7.53-62.67-13.99
				c-9.79-4.31-16.65-8.61-22.52-8.61s-5.87,7.53-5.87,23.67V1049.37z M2070.61,666.48c0-125.91-40.15-210.92-108.7-210.92
				c-25.46,0-50.92,10.76-68.55,30.13c-14.69,16.14-23.5,37.66-23.5,58.11v249.66c0,37.66,7.83,64.57,24.48,81.79
				c14.69,16.14,36.23,23.67,57.78,23.67c67.57,0,118.49-74.25,118.49-231.37V666.48z"/>
			<path d="M2198.33,313c0-26.9-3.92-33.36-31.34-37.66c-14.69-2.15-19.59-3.23-19.59-10.76c0-7.53,3.92-10.76,13.71-13.99
				c35.26-12.91,58.76-22.6,71.49-31.21c11.75-7.53,15.67-10.76,21.54-10.76c2.94,0,4.9,3.23,4.9,16.14v612.83
				c0,33.36,9.79,38.74,44.07,46.27c10.77,2.15,20.57,3.23,20.57,12.91c0,7.53-3.92,12.91-10.77,12.91
				c-12.73,0-27.42-4.31-83.24-4.31c-49.94,0-64.63,4.31-78.34,4.31c-4.9,0-11.75-3.23-11.75-12.91c0-7.53,8.81-11.84,17.63-12.91
				c37.21-4.31,41.13-17.22,41.13-52.73V313z"/>
			<path d="M2419.22,637.43c-19.59,0-25.46,5.38-25.46,22.6c0,126.98,50.92,213.07,128.29,213.07c47,0,77.36-22.6,92.05-58.11
				c9.79-20.45,12.73-35.51,19.59-35.51c3.92,0,6.85,3.23,6.85,12.91c0,16.14-8.81,36.59-14.69,49.5
				c-23.5,47.35-69.53,76.41-118.49,76.41c-111.64,0-180.19-101.16-180.19-245.36c0-181.86,94.01-264.73,180.19-264.73
				c79.32,0,133.18,67.8,133.18,171.11c0,53.81,0,58.11-21.54,58.11H2419.22z M2396.69,586.85c0,17.22,2.94,21.52,41.13,21.52
				c20.57,0,39.17-1.08,55.82-2.15c33.3-2.15,60.71-6.46,70.51-11.84c11.75-7.53,17.63-19.37,17.63-47.35
				c0-64.57-28.4-114.07-81.28-114.07c-61.69,0-103.8,74.25-103.8,152.81V586.85z"/>
		</g>
		<g>
			<path d="M3156.06,890.14c-33.9-5.38-37.77-23.67-37.77-62.42v-484.5c0-30.13,5.81-44.12,33.9-47.35
				c28.09-4.31,40.68-2.15,40.68-16.14c0-9.69-7.75-13.99-20.34-13.99c-24.21,0-321.1,0-347.25,0c-14.53,0-20.34,6.46-20.34,13.99
				c0,15.06,9.68,11.84,37.77,16.14c27.12,3.23,33.9,9.68,33.9,47.35v488.8c0,45.2-2.91,51.65-37.77,58.11
				c-16.47,3.23-32.93,4.3-32.93,17.22c0,11.84,6.78,11.84,18.4,11.84c14.53,0,332.72,0,346.28,0c16.47,0,20.34-4.31,20.34-10.76
				C3190.92,894.45,3172.52,893.37,3156.06,890.14z M3052.43,832.03c0,45.2-2.91,51.65-37.78,58.11c-0.06,0.01-0.12,0.02-0.18,0.03
				c-11.19,2.19-22.73,2.2-33.93,0.03c-0.1-0.02-0.21-0.04-0.31-0.06c-33.9-5.38-37.77-23.67-37.77-62.42v-484.5
				c0-30.13,5.81-44.12,33.9-47.35c0.08-0.01,0.16-0.02,0.24-0.04c13.78-2.1,27.8-2.11,41.58-0.02c0.11,0.02,0.23,0.03,0.34,0.05
				c27.11,3.23,33.9,9.68,33.9,47.35V832.03z"/>
			<g>
				<path d="M3499.13,873.24c0,5.36-0.69,10.71-2.76,14.54c-2.76,6.89-7.57,11.48-15.84,16.07
					c-23.41,16.07-61.29,25.25-100.55,25.25c-112.26,0-188.7-101.02-188.7-241.07c0-162.24,96.42-260.96,200.41-260.96
					c39.26,0,69.56,6.89,89.53,19.13c8.95,4.59,10.33,13.01,11.02,42.86c0,19.9,0.69,36.74,0,54.34
					c-0.69,19.13-2.76,22.96-11.02,22.96c-7.57,0-11.71-10.71-21.35-35.2c-17.22-47.45-34.44-81.89-75.07-81.89
					c-71.63,0-117.77,102.55-117.77,228.06c0,146.94,44.77,217.65,118.46,217.65c44.59,0,48.89-31.69,48.89-48.52v-92.6
					c0-40.56-7.57-42.86-27.55-45.92c-15.15-1.53-22.73-2.3-22.73-13.01c0-6.12,5.51-9.95,15.84-9.95
					c17.22,0.77,35.12,3.06,64.74,3.06c30.99,0,46.83-3.06,59.23-3.06c11.02,0,15.15,3.06,15.15,9.95c0,10.71-6.2,8.42-22.73,13.78
					c-12.39,3.83-17.22,6.89-17.22,36.74V873.24z"/>
				<path d="M3660.84,935.68c-35.84-2.03-65.7-5.6-84.75-20.14c-8.05-8.42-8.04-31.58-8.77-69.08c0-22.2,0-50.51,2.93-66.58
					c0.73-8.42,3.67-11.48,10.26-11.48c9.52,0,11.72,9.18,13.92,19.9c17.58,75,58.06,115.92,106.41,115.92
					c46.15,0,79.43-37.09,79.43-89.13c0-55.87-47.39-87.24-90.61-114.79c-10.25-6.12-21.24-13.78-31.5-20.66
					c-43.96-29.85-95.49-64.28-95.49-130.86c0-73.47,53.7-121.68,146.77-121.68c33.69,0,73.26,10.71,88.64,19.9
					c6.59,3.83,7.33,6.89,8.06,24.49c0.73,12.25,0.73,28.32,0.73,52.04c0,32.14-0.73,38.26-10.99,38.26s-10.26-13.01-14.65-28.32
					c-16.12-57.4-53.55-81.23-90.18-81.23c-35.16,0-73,24.59-73,65.16c0,75.66,73.08,92.6,123.62,123.98
					c46.15,29.85,97.34,80.94,97.34,154.41C3839,869.81,3752.54,940.88,3660.84,935.68z"/>
			</g>
		</g>
	</g>
</g>
</svg>
