<?xml version="1.0" encoding="utf-8"?>
<!-- Generator: Adobe Illustrator 25.2.3, SVG Export Plug-In . SVG Version: 6.00 Build 0)  -->
<svg version="1.1" id="Layer_1" xmlns="http://www.w3.org/2000/svg" xmlns:xlink="http://www.w3.org/1999/xlink" x="0px" y="0px"
	 viewBox="0 0 3839.02 489.89" style="enable-background:new 0 0 3839.02 489.89;" xml:space="preserve">
<style type="text/css">
	.st0{fill:#FF681D;}
	.st1{fill:#FF0000;}
	.st2{fill:url(#SVGID_1_);}
	.st3{fill:url(#SVGID_2_);}
	.st4{fill:#00CFFF;}
	.st5{fill:#004CC6;}
	.st6{fill:url(#SVGID_3_);}
	.st7{fill:url(#SVGID_4_);}
	.st8{fill:#D8D8D8;}
	.st9{fill:url(#SVGID_5_);}
	.st10{fill:url(#SVGID_6_);}
	.st11{fill:url(#SVGID_7_);}
	.st12{fill:#FFFFFF;}
	.st13{fill:url(#SVGID_8_);}
	.st14{fill:url(#SVGID_9_);}
	.st15{fill:url(#SVGID_10_);}
	.st16{fill:url(#SVGID_11_);}
	.st17{fill:url(#SVGID_12_);}
	.st18{fill:url(#SVGID_13_);}
	.st19{fill:url(#SVGID_14_);}
	.st20{fill:#666666;}
	.st21{fill:#999999;}
</style>
<g>
	<g>
		<path class="st12" d="M2277.61,8.53h-13.8h-155.89l-56.18,122.74h59.93c12.76,0,23.1,10.34,23.1,23.1v335.52h378.65
			c54.41,0,98.51-44.11,98.51-98.51V107.04c0-54.41-44.11-98.51-98.51-98.51H2277.61z M2459.78,367.15h-195.97V131.27h13.8h182.17
			c12.76,0,23.1,10.34,23.1,23.1v189.68C2482.88,356.81,2472.54,367.15,2459.78,367.15z"/>
		<path class="st12" d="M2974.68,8.53h-164.4h-97.77l-56.18,122.74h48.12c16.44,0,27.61,16.71,21.33,31.9l-135.17,326.72h139.65
			l31.66-76.53h240.61l31.66,76.53h139.65L2974.68,8.53z M2812.71,290.62l64.69-156.37c1.78-4.29,7.85-4.29,9.63,0l59.55,143.88
			c2.46,5.95-1.91,12.5-8.35,12.5L2812.71,290.62L2812.71,290.62z"/>
		<path class="st12" d="M1929.12,8.53h-164.4h-97.77l-56.18,122.74h48.12c16.44,0,27.61,16.71,21.33,31.9l-135.17,326.72h139.65
			l31.66-76.53h240.61l31.66,76.53h139.65L1929.12,8.53z M1767.15,290.62l64.69-156.37c1.78-4.29,7.85-4.29,9.63,0l59.55,143.88
			c2.46,5.95-1.91,12.5-8.35,12.5L1767.15,290.62L1767.15,290.62z"/>
		<path class="st12" d="M3590.47,7.73l-87.84,277.62v0.8L3414.79,8.53h-268.51l-56.18,122.74h65.73c12.76,0,23.1,10.34,23.1,23.1
			v335.52h129.05V137.06c0-6.77,9.53-8.24,11.57-1.79l112.21,354.62l141.76-0.8l112.21-354.62c2.04-6.46,11.57-4.98,11.57,1.79
			v352.83h129.05V7.72h-235.88V7.73z"/>
	</g>
	<g>
		<path d="M2290.28,0.81h-13.8h-155.89l-56.18,122.74h59.93c12.76,0,23.1,10.34,23.1,23.1v335.52h378.65
			c54.41,0,98.51-44.11,98.51-98.51V99.32c0-54.41-44.11-98.51-98.51-98.51H2290.28z M2472.45,359.44h-195.97V123.56h13.8h182.17
			c12.76,0,23.1,10.34,23.1,23.1v189.68C2495.55,349.09,2485.21,359.44,2472.45,359.44z"/>
		<path d="M2987.35,0.81h-164.4h-97.77L2669,123.55h48.12c16.44,0,27.61,16.71,21.33,31.9l-135.17,326.72h139.65l31.66-76.53h240.61
			l31.66,76.53h139.65L2987.35,0.81z M2825.38,282.91l64.69-156.37c1.78-4.29,7.85-4.29,9.63,0l59.55,143.88
			c2.46,5.95-1.91,12.5-8.35,12.5L2825.38,282.91L2825.38,282.91z"/>
		<path d="M1941.79,0.81h-164.4h-97.77l-56.18,122.74h48.12c16.44,0,27.61,16.71,21.33,31.9l-135.17,326.72h139.65l31.66-76.53
			h240.61l31.66,76.53h139.65L1941.79,0.81z M1779.82,282.91l64.69-156.37c1.78-4.29,7.85-4.29,9.63,0l59.55,143.88
			c2.46,5.95-1.91,12.5-8.35,12.5L1779.82,282.91L1779.82,282.91z"/>
		<path d="M3603.14,0.01l-87.84,277.62v0.8L3427.46,0.81h-268.51l-56.18,122.74h65.73c12.76,0,23.1,10.34,23.1,23.1v335.52h129.05
			V129.34c0-6.77,9.53-8.24,11.57-1.79l112.21,354.62l141.76-0.8l112.21-354.62c2.04-6.46,11.57-4.98,11.57,1.79v352.83h129.05V0
			h-235.88V0.01z"/>
	</g>
	<g>
		<path class="st12" d="M425.59,489.35c-16.34,0-29.64-13.3-29.64-29.64V230.69c0-5.34,4.33-9.67,9.67-9.67h106.4
			c5.34,0,9.67,4.33,9.67,9.67v248.98c0,5.34-4.33,9.67-9.67,9.67L425.59,489.35L425.59,489.35z"/>
		<path class="st12" d="M756.09,489.35c-16.34,0-29.64-13.3-29.64-29.64V230.69c0-5.34,4.33-9.67,9.67-9.67H842.2
			c5.34,0,9.67,4.33,9.67,9.67v248.98c0,5.34-4.33,9.67-9.67,9.67L756.09,489.35L756.09,489.35z"/>
		<path class="st12" d="M479.45,489.35c-5.34,0-9.67-4.33-9.67-9.67v-97.27c0-5.34,4.33-9.67,9.67-9.67h6.12
			c-10.18-15.13-15.8-33.07-15.8-51.52v-7.88c0-50.9,41.38-92.28,92.28-92.28h200.04c5.34,0,9.67,4.33,9.67,9.67V328
			c0,5.23-4.13,9.44-9.28,9.67c10.18,15.13,15.8,33.07,15.8,51.52v7.88c0,50.9-41.38,92.28-92.28,92.28H479.45z"/>
		<path class="st12" d="M325.82,270.2c-50.47,0-91.5-41.03-91.5-91.5V92.31c0-50.47,41.03-91.5,91.5-91.5l152.65,0.16
			c50.39,0.04,91.38,41.11,91.38,91.5v86.23c0,50.47-41.03,91.5-91.5,91.5L325.82,270.2L325.82,270.2z M444.43,152.76v-35.38h-84.67
			v35.38H444.43L444.43,152.76z"/>
		<path class="st12" d="M1253.63,270.7c-50.47,0-91.5-41.03-91.5-91.5V92.77c0-50.47,41.03-91.5,91.5-91.5l152.65,0.16
			c50.39,0.08,91.38,41.11,91.38,91.5v86.23c0,50.47-41.03,91.5-91.5,91.5h-152.53L1253.63,270.7L1253.63,270.7z M1372.23,153.23
			v-35.37h-84.67v35.37H1372.23z"/>
		<path class="st12" d="M891.54,489.89c-50.47,0-91.5-41.03-91.5-91.5V312c0-50.47,41.03-91.5,91.5-91.5l152.65,0.16
			c50.39,0.04,91.38,41.11,91.38,91.5v86.23c0,50.47-41.03,91.5-91.5,91.5L891.54,489.89L891.54,489.89z M1010.14,372.42v-35.37
			h-84.67v35.37H1010.14z"/>
		<path class="st12" d="M91.5,270.7C41.03,270.7,0,229.63,0,179.2V92.77c0-50.43,41.03-91.5,91.5-91.5l168.95,0.08
			c16.34,0,29.6,13.3,29.6,29.64v77.18c0,5.34-4.33,9.67-9.67,9.67H125.43v35.37h154.95c5.34,0,9.67,4.33,9.67,9.67l19.03,98.13
			c0,5.34-4.33,9.67-9.67,9.67L91.5,270.7L91.5,270.7z"/>
		<path class="st12" d="M1019.35,270.7c-50.47,0-91.5-41.03-91.5-91.5V92.77c0-50.47,41.03-91.5,91.5-91.5l168.95,0.08
			c16.34,0,29.6,13.3,29.6,29.64v77.18c0,5.34-4.33,9.67-9.67,9.67h-154.95v35.37h154.95c5.34,0,9.67,4.33,9.67,9.67v98.13
			c0,5.34-4.33,9.67-9.67,9.67L1019.35,270.7L1019.35,270.7z"/>
		<path class="st12" d="M605.54,270.31c-50.47,0-91.5-41.03-91.5-91.5V11.18c0-5.34,4.33-9.67,9.67-9.67h86.15
			c16.34,0,29.64,13.3,29.64,29.64v121.72h100.35c5.34,0,9.67,4.33,9.67,9.67v98.13c0,5.34-4.33,9.67-9.67,9.67H605.54V270.31z"/>
		<path class="st12" d="M785.14,270.7c-50.47,0-91.5-41.03-91.5-91.5V10.91c0-2.57,1.01-5.03,2.85-6.83
			c1.79-1.79,4.29-2.85,6.83-2.85L954.1,1.39c16.34,0,29.6,13.3,29.6,29.64v77.18c0,5.34-4.33,9.67-9.67,9.67h-4.45v35.37h4.45
			c5.34,0,9.67,4.33,9.67,9.67v98.13c0,5.34-4.33,9.67-9.67,9.67H785.15v-0.02H785.14z"/>
		<path class="st12" d="M1323.05,488.64c-16.15-0.2-29.29-13.46-29.29-29.64V337.04h-84.67v142.63c0,5.34-4.33,9.67-9.67,9.67
			h-86.15c-16.34,0-29.64-13.3-29.64-29.64V230.18c0-5.34,4.33-9.67,9.67-9.67h104.06c0.23,0,0.47,0,0.66,0.04l129.76,0.12
			c50.39,0.04,91.38,41.11,91.38,91.5v167.82c0,2.57-1.05,5.07-2.89,6.86c-1.79,1.79-4.25,2.81-6.79,2.81
			C1409.48,489.62,1323.05,488.64,1323.05,488.64z"/>
		<path class="st12" d="M213.03,489.35c-3.47,0-6.63-1.83-8.39-4.84L60.88,235.53c-1.72-3-1.72-6.67,0-9.67s4.91-4.84,8.39-4.84
			h122.5c3.47,0,6.63,1.83,8.39,4.84l62.17,107.68l62.17-107.68c1.72-3,4.91-4.84,8.39-4.84h122.5c3.47,0,6.63,1.83,8.39,4.84
			c1.72,3,1.72,6.67,0,9.67L320.02,484.51c-1.72,3-4.91,4.84-8.39,4.84H213.03z"/>
	</g>
	<g>
		<g>
			<path d="M405.62,459.74V230.69h106.4v248.98h-86.47C414.55,479.67,405.62,470.74,405.62,459.74z"/>
			<path d="M736.16,459.74V230.69h106.08v248.98h-86.15C745.09,479.67,736.16,470.74,736.16,459.74z"/>
			<path d="M479.45,479.67V382.4h27.18c-16.69-15.13-27.18-36.97-27.18-61.19v-7.88c0-45.55,37.05-82.6,82.6-82.6h200.04V328h-20.67
				c16.69,15.13,27.18,36.97,27.18,61.19v7.88c0,45.55-37.05,82.6-82.6,82.6H479.45z"/>
			<path d="M325.82,260.53c-45.12,0-81.83-36.7-81.83-81.83V92.31c0-45.12,36.7-81.83,81.83-81.83l152.65,0.16
				c45.09,0.04,81.75,36.74,81.75,81.82v86.23c0,45.12-36.7,81.83-81.83,81.83L325.82,260.53L325.82,260.53z"/>
			<path d="M1253.63,261.03c-45.12,0-81.82-36.7-81.82-81.83V92.77c0-45.12,36.7-81.83,81.82-81.83l152.65,0.16
				c45.09,0.04,81.75,36.74,81.75,81.83v86.23c0,45.12-36.7,81.83-81.82,81.83h-152.57L1253.63,261.03L1253.63,261.03z"/>
			<path d="M891.54,480.22c-45.12,0-81.83-36.7-81.83-81.82v-86.39c0-45.12,36.7-81.82,81.83-81.82l152.65,0.16
				c45.09,0.04,81.75,36.74,81.75,81.83v86.23c0,45.12-36.7,81.82-81.82,81.82H891.54V480.22z"/>
			<path d="M91.5,261.03c-45.2,0-81.83-36.62-81.83-81.83V92.77c0-45.09,36.7-81.83,81.83-81.83l168.95,0.08
				c11,0,19.93,8.93,19.93,19.97l53.28,230.03L91.5,261.03L91.5,261.03z"/>
			<path d="M1019.35,261.03c-45.2,0-81.83-36.62-81.83-81.83V92.77c0-45.12,36.7-81.83,81.83-81.83l168.95,0.08
				c11,0,19.93,8.93,19.93,19.97v131.9v98.13L1019.35,261.03L1019.35,261.03z"/>
			<path d="M605.54,260.64c-45.2,0-81.82-36.62-81.82-81.83V11.18h86.15c11.04,0,19.97,8.93,19.97,19.97v131.36h110.02v98.13H605.54
				L605.54,260.64z"/>
			<path d="M785.14,261.03c-45.2,0-81.82-36.62-81.82-81.83V10.91l250.78,0.16c11,0,19.93,8.93,19.93,19.97v77.18h-14.12v54.72
				h14.12v98.13H785.15v-0.04H785.14z"/>
			<path d="M1303.43,459V327.37h-104.02v152.3h-86.15c-11.04,0-19.97-8.93-19.97-19.97V230.18h104.06v0.04l130.42,0.12
				c45.16,0.04,81.75,36.66,81.75,81.83v167.82l-86.39-0.98C1312.21,478.86,1303.43,469.96,1303.43,459z"/>
			<polygon points="213.03,479.67 69.27,230.69 191.78,230.69 262.33,352.88 332.88,230.69 455.39,230.69 311.63,479.67 			"/>
		</g>
		<rect x="532.06" y="224.33" width="17.9" height="17.9"/>
	</g>
	<g>
		<g>
			<path class="st12" d="M325.82,237.05h152.53c32.22,0,58.35-26.13,58.35-58.35V92.47c0-32.21-26.09-58.31-58.27-58.35
				l-152.57-0.16c-32.25-0.04-58.42,26.09-58.42,58.35v86.39C267.48,210.91,293.61,237.05,325.82,237.05z M326.6,106.86
				c0-12.48,10.14-22.62,22.62-22.62h105.69c12.48,0,22.62,10.14,22.62,22.62v56.4c0,12.48-10.14,22.62-22.62,22.62H349.22
				c-12.48,0-22.62-10.14-22.62-22.62V106.86z M1406.24,34.59l-152.53-0.16c-32.25-0.04-58.42,26.09-58.42,58.35v86.39
				c0,32.22,26.13,58.35,58.35,58.35h152.53c32.22,0,58.35-26.13,58.35-58.35V92.94C1464.51,60.76,1438.42,34.63,1406.24,34.59z
				 M1405.38,163.76c0,12.48-10.14,22.62-22.62,22.62h-105.69c-12.48,0-22.62-10.14-22.62-22.62v-56.43
				c0-12.48,10.14-22.62,22.62-22.62h105.69c12.48,0,22.62,10.14,22.62,22.62V163.76z M256.91,186.38H114.94
				c-12.48,0-22.62-10.14-22.62-22.62v-56.43c0-12.48,10.14-22.62,22.62-22.62h141.97v-50.2L91.54,34.43
				c-32.22,0-58.39,26.13-58.39,58.35v86.39c0,32.25,26.13,58.39,58.35,58.39h165.4v-51.18H256.91z M1019.35,237.55h165.4v-51.17
				h-141.96c-12.48,0-22.62-10.14-22.62-22.62v-56.43c0-12.48,10.14-22.62,22.62-22.62h141.96v-50.2l-165.37-0.08
				c-32.25-0.04-58.42,26.09-58.42,58.35v86.39C961,211.42,987.13,237.55,1019.35,237.55z M605.54,237.16h110.8v-51.17h-87.36
				c-12.48,0-22.62-10.14-22.62-22.62V34.66h-59.17v144.15C547.2,211.03,573.29,237.16,605.54,237.16z M785.14,237.55h165.4v-51.17
				H801.05c-8.35,0-15.13-6.79-15.13-15.13l0,0c0-8.35,6.79-15.13,15.13-15.13h135.37v-40.29H801.48c-8.58,0-15.56-6.98-15.56-15.56
				s6.98-15.56,15.56-15.56h149.06v-50.2l-223.75-0.16v144.81C726.8,211.42,752.89,237.55,785.14,237.55z M429.1,456.2h59.44V254.17
				H429.1V456.2z M759.64,456.2h59.13V254.17h-59.13V456.2L759.64,456.2z M686,330.03H574.85c-7.06,0-12.75-5.73-12.75-12.75l0,0
				c0-7.06,5.73-12.75,12.75-12.75h163.77v-50.31H562.1c-32.64,0-59.13,26.48-59.13,59.13v7.88c0,32.64,26.48,59.13,59.13,59.13
				h111.15c7.06,0,12.75,5.73,12.75,12.75s-5.73,12.75-12.75,12.75H502.97v50.31H686c32.64,0,59.13-26.48,59.13-59.13v-7.88
				C745.13,356.51,718.65,330.03,686,330.03z M1044.15,253.82l-152.53-0.16c-32.25-0.04-58.42,26.09-58.42,58.35v86.39
				c0,32.21,26.13,58.35,58.35,58.35h152.53c32.22,0,58.35-26.13,58.35-58.35v-86.23C1102.42,279.95,1076.33,253.82,1044.15,253.82z
				 M1043.29,382.95c0,12.48-10.14,22.62-22.62,22.62H914.98c-12.48,0-22.62-10.14-22.62-22.62v-56.4
				c0-12.48,10.14-22.62,22.62-22.62h105.69c12.48,0,22.62,10.14,22.62,22.62V382.95z M1327.77,253.82l-152.53-0.16
				c-0.43,0-0.9,0.04-1.33,0.08v-0.08h-57.1v202.57h59.13V326.55c0-12.48,10.14-22.62,22.62-22.62h105.69
				c12.48,0,22.62,10.14,22.62,22.62v129.02l59.13,0.66V312.16C1386.04,279.95,1359.95,253.82,1327.77,253.82z M262.33,399.84
				L178.2,254.17h-68.29L226.56,456.2h71.49L414.7,254.17h-68.29L262.33,399.84z"/>
		</g>
	</g>
</g>
</svg>
