<?xml version="1.0" encoding="utf-8"?>
<!-- Generator: Adobe Illustrator 25.0.0, SVG Export Plug-In . SVG Version: 6.00 Build 0)  -->
<svg version="1.1" id="Layer_1" xmlns="http://www.w3.org/2000/svg" xmlns:xlink="http://www.w3.org/1999/xlink" x="0px" y="0px"
	 viewBox="0 0 3840 629" style="enable-background:new 0 0 3840 629;" xml:space="preserve">
<style type="text/css">
	.st0{fill:#FFFFFF;}
</style>
<g>
	<rect x="75.4" y="9.4" class="st0" width="3651.5" height="602.3"/>
	<g>
		<path d="M1866.9,223.2h-50.3v69.3h56.2c20,0,47.4-3.4,47.4-34.7C1920.1,235.9,1907.9,223.2,1866.9,223.2z"/>
		<path d="M3583.2,390.7h-8.1c2.2,3.3,2.1,8.6,3,13.4c0.8,4.7,2.5,8.9,8.2,8.9c4.9,0,6.3-6.2,6.3-10
			C3592.5,398.2,3590,390.7,3583.2,390.7z"/>
		<path d="M3565.7,442.3c-13.7,0-24.4,4-24.4,22.8v11.8h48.8v-11.8C3590,446.3,3579.3,442.3,3565.7,442.3z"/>
		<path d="M2946.8,218.8c-27.3,0-69.3,18.1-69.3,95.7c0,77.6,42,95.7,69.3,95.7c27.3,0,69.3-18.1,69.3-95.7
			C3016.2,236.9,2974.2,218.8,2946.8,218.8z"/>
		<path d="M3575,150.7c-10.9,0-17.4,5.3-17.4,13.7c0,10.2,9.1,13.9,18,13.9c8.5,0,16.9-4.2,16.9-13.7
			C3592.5,154.8,3583.6,150.7,3575,150.7z"/>
		<path d="M3743.4,0H96.6C43.2,0,0,43.2,0,96.6v435.8C0,585.7,43.2,629,96.6,629h3646.8c53.3,0,96.6-43.2,96.6-96.6V96.6
			C3840,43.2,3796.8,0,3743.4,0z M3586.9,118.8h12.9v13.3h-12.9V118.8z M3531.5,258.4h58v-34.7h10.3v46.7h-68.3V258.4z
			 M3584.9,204.5c4.5,0,6.8-0.4,6.8-5.3c0-1.5,0-3.1-0.4-4.6h8.4c0.2,2.4,0.6,4.7,0.6,7.1c0,11.4-4.4,13.5-12.6,13.7h-29.2v8.2h-8.1
			v-8.2h-14.8v-10.9h14.8v-9.9h8.1v9.9H3584.9z M3584.9,353.9c4.5,0,6.8-0.4,6.8-5.3c0-1.5,0-3.1-0.4-4.6h8.4
			c0.2,2.4,0.6,4.7,0.6,7.1c0,11.4-4.4,13.5-12.6,13.7h-29.2v8.2h-8.1v-8.2h-14.8v-10.9h14.8V344h8.1v9.9H3584.9z M761.2,190.6
			l1.2-2.1l39.7-68.8c25.7-44.4,73.1-71.8,124.4-71.8h81.9l0,0l188.4,0l-27.3,47.2h-243c-34.3,0-66.3,18.5-83.5,48.2L728,342.5
			h-54.5L761.2,190.6z M926,129.8c-21.7,0-41.8,11.6-52.7,30.4L768.1,342.5h-24.3L813.9,221l1.2-2.1l39.7-68.8
			c14.7-25.5,42.2-41.4,71.7-41.4l81.9,0h153.3l-12.1,21H926z M1141.7,143.4l-60.6,104.9H892.7l-54.4,94.2h-54.5L885.1,167
			c8.4-14.6,24-23.6,40.9-23.6H1141.7z M445,50.5l46.3,46.3h-23.8L445,74.3l-22.5,22.5h-23.8L445,50.5z M535.8,581l45.2-78.2h54.5
			L590.3,581H535.8z M606.1,581l45.2-78.2h24.3L630.4,581H606.1z M700.6,581h-54.5l45.2-78.2h54.5L700.6,581z M1076.5,581l50.3-87
			l-540.7,0h0c-110.5,0-179.6-119.7-124.4-215.4l17.5-30.3H350.4l-27.3-47.2h156.1c16.9,0,32.4,9,40.9,23.6
			c8.4,14.6,8.4,32.6,0,47.2l-17.5,30.3c-17.4,30.2-17.4,66.2,0,96.4c17.4,30.2,48.6,48.2,83.5,48.2h540.7c16.9,0,32.4,9,40.9,23.6
			c8.4,14.6,8.4,32.6,0,47.2L1131,581H1076.5z M1146.8,581l32.7-56.6c10.9-18.8,10.9-42,0-60.8c-10.9-18.8-31-30.4-52.7-30.4H750.9
			H586.1c-29.9,0-56.7-15.5-71.7-41.4c-15-25.9-15-56.8,0-82.8l17.5-30.3c10.9-18.8,10.9-42,0-60.8c-10.9-18.8-31-30.4-52.7-30.4
			H275.9l7.8,13.7l-72-26.3l41.7-26.3l10.2,17.8h214.1c29.9,0,56.7,15.5,71.7,41.4c15,25.9,15,56.8,0,82.7l-17.5,30.3
			c-10.9,18.8-10.9,42,0,60.8c10.9,18.8,31,30.4,52.7,30.4l540.7,0c29.9,0,56.7,15.5,71.7,41.4s15,56.8,0,82.8l-25.9,44.8H1146.8z
			 M1249.6,566.7l-8.3,14.4h-55.4l28.2-48.9c11.7-27.7,9.9-58.9-5.4-85.5c-17.4-30.2-48.6-48.2-83.5-48.2l-540.7,0
			c-16.9,0-32.4-9-40.9-23.6c-8.4-14.6-8.4-32.6,0-47.2l17.5-30.3c17.4-30.2,17.4-66.2,0-96.4c-17.4-30.2-48.6-48.2-83.5-48.2H295.3
			L268,105.6h145.7l31.3,31.3l31.3-31.3h1.4c110.5,0,179.6,119.7,124.4,215.4l-17.5,30.3l83.9,0h164.8l292,0
			C1235.8,351.3,1304.9,471,1249.6,566.7z M1498.8,488.8h-155.3V140.2h176.3c116.2,0,157.2,85.9,157.2,173.8
			C1677,420.9,1620.4,488.8,1498.8,488.8z M1930.9,488.8c-5.4-17.6-7.3-35.6-8.8-53.7c-2.9-33.2-5.9-67.9-48.3-67.9h-57.1v121.6
			h-107.4V140.2h204.6c61,0,113.8,33.7,113.8,99.6c0,36.1-16.6,74.2-52.2,87.4c29.3,11.2,47.4,43.5,51.3,86.9
			c1.5,17.1,1.9,58.6,11.7,74.7H1930.9z M2303.4,488.8l-14.7-49.8h-110.8l-15.6,49.8h-107.9l128.4-348.6h105l126.9,348.6H2303.4z
			 M2741.3,488.8h-67.9l-3.4-35.6c-23.9,30.8-61,43.9-99.1,43.9c-103,0-166.5-80.1-166.5-179.2c0-132.8,93.3-186,171.9-186
			c88.9,0,145,48.3,160.6,130.4h-103c-3.9-25.4-25.4-43.5-50.8-43.5c-73.7,0-71.3,77.6-71.3,101.6c0,32.7,13.2,89.8,78.6,89.8
			c24.9,0,50.3-12.7,55.7-38.6h-47.4v-74.7h142.6V488.8z M2946.8,497.1c-105.9,0-176.7-76.2-176.7-182.6
			c0-106.4,70.8-182.6,176.7-182.6c106,0,176.8,76.2,176.8,182.6C3123.6,420.9,3052.8,497.1,2946.8,497.1z M3469.2,488.8h-104.5
			l-106.9-190.4h-1v190.4h-101.6V140.2h109.9l101.6,186.5h1V140.2h101.6V488.8z M3599.8,488.8h-68.3v-28.3c0-21,15.3-30.1,34.2-30.1
			c18.8,0,34.2,9.1,34.2,30.1V488.8z M3601.1,407c0,8.9-4.8,16.9-14.5,16.9c-12.3,0-14.3-9.9-15.4-19c-1.4-7.9-0.6-14.8-7-14.8
			c-5.6,0-6.7,5.8-6.7,10.2c0,6.1,2.5,10.4,7.8,10.9v10.9c-12.7-0.8-16.5-11.6-16.5-22.5c0-9.7,3.9-19.8,14.4-19.8h25.4
			c2.7,0,3.7-0.6,3.7-2.6c0-0.7,0-1.5-0.2-2.7h7.6c0.6,1.6,1.2,5.1,1.2,6.9c0,4.4-1.5,7.6-6,8.4
			C3599.3,394.2,3601.1,401.1,3601.1,407z M3601.1,321.9c0,8.9-4.8,16.9-14.5,16.9c-12.3,0-14.3-9.9-15.4-19
			c-1.4-7.8-0.6-14.8-7-14.8c-5.6,0-6.7,5.8-6.7,10.2c0,6.1,2.5,10.4,7.8,10.9V337c-12.7-0.8-16.5-11.6-16.5-22.5
			c0-9.7,3.9-19.8,14.4-19.8h25.4c2.7,0,3.7-0.6,3.7-2.6c0-0.7,0-1.5-0.2-2.7h7.6c0.6,1.6,1.2,5.1,1.2,6.9c0,4.4-1.5,7.6-6,8.4
			C3599.3,309.1,3601.1,316.1,3601.1,321.9z M3574.7,189.2c-17.9,0-25.7-10.6-25.7-21.4c0-6.2,2.3-13.1,7.7-16.5v-0.2h-25.3v-10.9
			h68.3v10.3h-6.7v0.2c5.6,2.9,8,9.1,8,15.3C3601.1,181.6,3589.6,189.2,3574.7,189.2z"/>
		<polygon points="2235,256.9 2201.3,364.3 2267.2,364.3 2236,256.9 		"/>
		<path d="M3583.2,305.6h-8.1c2.2,3.3,2.1,8.6,3,13.4c0.8,4.7,2.5,8.9,8.2,8.9c4.9,0,6.3-6.2,6.3-10
			C3592.5,313.1,3590,305.6,3583.2,305.6z"/>
		<path d="M1485.1,229.5h-34.2v169.9h42c66.9,0,76.7-54.2,76.7-86.9C1569.6,290.6,1562.7,229.5,1485.1,229.5z"/>
	</g>
</g>
</svg>
