<?xml version="1.0" encoding="utf-8"?>
<!-- Generator: Adobe Illustrator 25.0.0, SVG Export Plug-In . SVG Version: 6.00 Build 0)  -->
<svg version="1.1" id="Layer_1" xmlns="http://www.w3.org/2000/svg" xmlns:xlink="http://www.w3.org/1999/xlink" x="0px" y="0px"
	 viewBox="0 0 3840 391.3" style="enable-background:new 0 0 3840 391.3;" xml:space="preserve">
<style type="text/css">
	.st0{fill:#FFFFFF;}
</style>
<g>
	<path d="M2878.4,140.4c-4.7-81.7,46.2-128.8,126.2-128.8c72.3,0,121.5,30.4,121.5,93.7c0,76.2-74.5,100.1-130.5,134.4v0.4h134.8
		v72.7h-258c-1.7-28.7,6.8-53.5,21.4-73.6c24.8-34.7,67.6-57.3,105.7-80.5c15.4-9.4,40.2-21.4,40.2-43.2c0-27-15.8-36.4-35.9-36.4
		c-34.2,0-45.8,24.8-44.9,61.2H2878.4z"/>
	<g>
		<path d="M2143.9,340.3h21.1c15.7,0,22.5,11.4,22.5,25.5s-6.8,25.5-22.5,25.5h-21.1V340.3z M2152.8,384h8.8c14,0,17-8,17-18.2
			s-3-18.2-17-18.2h-8.8V384z"/>
		<path d="M2219.8,340.3h9.5l19.6,51h-9.6l-4.8-13.5h-20.4l-4.8,13.5h-9.2L2219.8,340.3z M2216.7,371h15.6l-7.6-21.9h-0.2
			L2216.7,371z"/>
		<path d="M2253.1,340.3h41.3v7.7h-16.2v43.3h-8.9V348h-16.2V340.3z"/>
		<path d="M2318.1,340.3h9.5l19.6,51h-9.6l-4.8-13.5h-20.4l-4.8,13.5h-9.2L2318.1,340.3z M2315,371h15.6l-7.6-21.9h-0.2L2315,371z"
			/>
		<path d="M2393.4,340.3h8.9v43.3h25.9v7.7h-34.9V340.3z"/>
		<path d="M2433.7,340.3h41.3v7.7h-16.2v43.3h-8.9V348h-16.2V340.3z"/>
		<path d="M2491.6,340.3h21.1c15.7,0,22.5,11.4,22.5,25.5s-6.8,25.5-22.5,25.5h-21.1V340.3z M2500.5,384h8.8c14,0,17-8,17-18.2
			s-3-18.2-17-18.2h-8.8V384z"/>
		<path d="M2539.1,381.7h9.9v9.6h-9.9V381.7z"/>
	</g>
	<g>
		<g>
			<polygon points="265.8,268 240,312.8 226,312.8 251.9,268 			"/>
			<path d="M318.9,176.1l60.3-104.5c6.2-10.8,17.7-17.4,30.2-17.4h128.1l6.9-12h-87.9l-46.9,0c-16.9,0-32.6,9.1-41.1,23.7
				l-22.8,39.4l-0.7,1.2L305,176.1H318.9z"/>
			<g>
				<path d="M564.6,7.3l-108,0l0,0h-46.9c-29.4,0-56.6,15.7-71.3,41.1l-22.8,39.4l-0.7,1.2l-50.3,87h31.2l65.9-114.2
					c9.8-17,28.2-27.6,47.8-27.6H549L564.6,7.3z"/>
				<path d="M390.3,122.1h108L533,62H409.4c-9.7,0-18.6,5.2-23.4,13.5l-58.1,100.6h31.2L390.3,122.1z"/>
				<polygon points="306.1,268 280.2,312.8 249,312.8 274.9,268 				"/>
				<polygon points="211.7,268 185.8,312.8 217,312.8 242.9,268 				"/>
			</g>
			<path d="M79.5,122.1h73.8l-10,17.4c-31.7,54.9,7.9,123.4,71.3,123.4h0l309.9,0l-28.8,49.9h31.2l21-36.4c4.8-8.4,4.8-18.7,0-27.1
				c-4.8-8.4-13.8-13.5-23.4-13.5H214.6c-20,0-37.9-10.3-47.8-27.6c-10-17.3-10-37.9,0-55.2l10-17.4c4.8-8.4,4.8-18.7,0-27.1
				c-4.8-8.4-13.8-13.5-23.4-13.5H63.9L79.5,122.1z"/>
			<path d="M47.9,67.4h104.5c20,0,37.9,10.3,47.8,27.6c10,17.3,10,37.9,0,55.2l-10,17.4c-4.8,8.4-4.8,18.7,0,27.1
				c4.8,8.4,13.8,13.5,23.4,13.5l309.9,0c20,0,37.9,10.3,47.8,27.6c8.8,15.3,9.8,33.1,3.1,49l-16.2,28h31.7l4.7-8.2
				c31.7-54.9-7.9-123.4-71.3-123.4l-167.3,0h-94.4l-48.1,0l10-17.4c31.7-54.9-7.9-123.4-71.3-123.4h-0.8l-17.9,17.9l-17.9-17.9
				H32.3L47.9,67.4z"/>
			<g>
				<polygon points="120.9,35.3 133.7,22.4 146.6,35.3 160.3,35.3 133.7,8.8 107.2,35.3 				"/>
			</g>
			<path d="M41.3,95.1L0,80.1l23.9-15l5.9,10.2h122.7c17.1,0,32.5,8.9,41.1,23.7c8.6,14.8,8.6,32.6,0,47.4l-10,17.4
				c-6.2,10.8-6.2,24.1,0,34.9c6.2,10.8,17.7,17.4,30.2,17.4l309.9,0c17.1,0,32.5,8.9,41.1,23.7c8.6,14.8,8.6,32.6,0,47.4
				l-14.8,25.7h-13.9l18.7-32.4c6.2-10.8,6.2-24.1,0-34.9c-6.2-10.8-17.7-17.4-30.2-17.4H309h-94.4c-17.1,0-32.5-8.9-41.1-23.7
				c-8.6-14.8-8.6-32.6,0-47.4l10-17.4c6.2-10.8,6.2-24.1,0-34.9c-6.2-10.8-17.7-17.4-30.2-17.4H36.8L41.3,95.1z"/>
		</g>
		<g>
			<path d="M826.7,7.3H672.2v305.5h136.1c106.5,0,156.2-59.5,156.2-153.2C964.4,82.6,928.5,7.3,826.7,7.3z M803.1,234.5h-36.8V85.6
				h30c68,0,74,53.5,74,72.7C870.3,187,861.7,234.5,803.1,234.5z M1225.9,171.2c31.2-11.6,45.8-44.9,45.8-76.6
				c0-57.8-46.2-87.3-99.7-87.3H992.7v305.5h94.1V206.3h50.1c37.2,0,39.8,30.4,42.4,59.5c1.3,15.8,3,31.7,7.7,47.1h94.1
				c-8.6-14.1-9-50.5-10.3-65.5C1267.4,209.2,1251.6,181,1225.9,171.2z M1136,140.8h-49.2V80h44.1c35.9,0,46.6,11.1,46.6,30.4
				C1177.5,137.8,1153.6,140.8,1136,140.8z M1407.7,7.3l-112.5,305.5h94.6l13.7-43.6h97.1l12.8,43.6h97.6L1499.7,7.3H1407.7z
				 M1424,203.7l29.5-94.1h0.9l27.4,94.1H1424z M1772.3,210.1h41.5c-4.7,22.7-27,33.8-48.8,33.8c-57.3,0-68.9-50.1-68.9-78.7
				c0-21-2.1-89,62.5-89c22.3,0,41.1,15.8,44.5,38.1h90.3C1879.7,42.4,1830.5,0,1752.6,0C1683.7,0,1602,46.6,1602,163
				c0,86.9,55.6,157,145.9,157c33.4,0,65.9-11.6,86.9-38.5l3,31.2h59.5V144.6h-124.9V210.1z M2077.4,0c-92.9,0-154.9,66.8-154.9,160
				c0,93.3,62,160,154.9,160c92.9,0,154.9-66.8,154.9-160C2232.3,66.8,2170.3,0,2077.4,0z M2077.4,243.9c-24,0-60.8-15.8-60.8-83.9
				s36.8-83.9,60.8-83.9c24,0,60.8,15.8,60.8,83.9S2101.4,243.9,2077.4,243.9z M2446.2,7.3v163.5h-0.9l-89-163.5h-96.3v305.5h89
				V145.9h0.9l93.7,166.9h91.6V7.3H2446.2z"/>
		</g>
	</g>
	<path d="M2624.2,114.3c0.4-35.1,14.5-60.8,37.2-77.9c22.7-16.7,53.5-24.8,86.9-24.8c86.4,0,115.1,51.3,115.1,76.6
		c0,62.5-39.4,62.5-39.4,63.8v0.9c0,3.4,48.8,3.4,48.8,69.8c0,36.4-27.4,93.7-124.9,93.7c-133.9,0-134.4-94.1-132.2-116.4h81.3
		c-0.4,15.8,3.4,27.8,11.6,35.5c8.1,9.8,20.5,13.3,35.5,13.3c24.4,0,39.8-9,39.8-33.4c0-26.1-20.1-30.8-39.8-30.8
		c-12.4,0-18.4,1.3-24.8,2.1v-58.2c6.4,0.4,13.3,1.7,24.8,1.7c18,0,40.7-3.9,40.7-27c0-18.8-21.4-26.1-38.9-26.1
		c-23.1,0-41.9,12.4-41.1,37.2H2624.2z"/>
	<g>
		<path d="M3268.2,0h65l-119.8,320.1h-65L3268.2,0z"/>
		<path d="M3478.9,94.6c-1.7-5.6-6-11.6-12.4-16.3c-6-3.9-13.7-5.1-23.1-5.1c-32.5,0-48.8,31.7-51.8,61.2
			c20.1-18.4,41.9-23.1,68.9-23.1c57.3,0,99.7,36.8,99.7,95c0,73.2-51.3,110-122.4,110c-90.3,0-127.1-68.5-127.1-141.6
			c0-93.7,43.2-163,134.4-163c64.2,0,102.7,24.8,112.1,83H3478.9z M3397.1,207.5c0,23.5,17.1,41.1,40.7,41.1
			c25.7,0,43.6-18.4,43.6-41.1c0-21-17.1-39.4-43.6-39.4C3414.7,168.2,3397.1,185.3,3397.1,207.5z"/>
		<path d="M3710.8,253.8h-132.2v-80.5L3714.6,15h85.2v166h40.2v72.7h-40.2v59.1h-89V253.8z M3638,181h72.7V97.6L3638,181z"/>
	</g>
</g>
</svg>
