<?xml version="1.0" encoding="utf-8"?>
<!-- Generator: Adobe Illustrator 26.0.3, SVG Export Plug-In . SVG Version: 6.00 Build 0)  -->
<svg version="1.1" id="Layer_1" xmlns="http://www.w3.org/2000/svg" xmlns:xlink="http://www.w3.org/1999/xlink" x="0px" y="0px"
	 viewBox="0 0 3839 843.9" style="enable-background:new 0 0 3839 843.9;" xml:space="preserve">
<style type="text/css">
	.st0{enable-background:new    ;}
	.st1{fill:#FFFFFF;}
</style>
<g>
	<g>
		<g>
			<g>
				<path d="M1370.2,729.1h19.6v44.6h51v-44.6h19.6v112.1h-19.6v-50.6h-51v50.6h-19.6V729.1z"/>
			</g>
			<g>
				<path d="M1582.7,785.2c0,32-20.1,58.7-53.7,58.7s-53.7-26.7-53.7-58.7s20.1-58.7,53.7-58.7
					C1562.6,726.4,1582.7,753.1,1582.7,785.2z M1494.9,785.2c0,21.5,10,42.7,34.1,42.7c24,0,34.1-21.2,34.1-42.7s-10-42.7-34.1-42.7
					C1505,742.5,1494.9,763.7,1494.9,785.2z"/>
			</g>
			<g>
				<path d="M1597.6,729.1h27.6l30.9,87.8h0.3l30.1-87.8h27.3v112.1h-18.7v-86.5h-0.3l-31.1,86.5h-16.2l-31.1-86.5h-0.3v86.5h-18.7
					V729.1H1597.6z"/>
			</g>
			<g>
				<path d="M1734.7,729.1h80.7v17h-61.1v29.4h56.5v16h-56.5v32.8h62.2v17h-81.8L1734.7,729.1L1734.7,729.1z"/>
			</g>
			<g>
				<path d="M1953,764.8c-3.3-12.9-11.6-22.3-28-22.3c-24,0-34.1,21.2-34.1,42.7s10,42.7,34.1,42.7c17.4,0,27-13,28.6-29.4h19.2
					c-1.6,26.9-20.6,45.4-47.7,45.4c-33.6,0-53.7-26.7-53.7-58.7s20.1-58.7,53.7-58.7c25.3,0.2,45.2,14.1,47.6,38.3H1953z"/>
			</g>
			<g>
				<path d="M2088.9,785.2c0,32-20.1,58.7-53.7,58.7c-33.6,0-53.7-26.7-53.7-58.7s20.1-58.7,53.7-58.7
					C2068.8,726.4,2088.9,753.1,2088.9,785.2z M2001.1,785.2c0,21.5,10,42.7,34.1,42.7c24,0,34.1-21.2,34.1-42.7s-10-42.7-34.1-42.7
					C2011.2,742.5,2001.1,763.7,2001.1,785.2z"/>
			</g>
			<g>
				<path d="M2103.8,729.1h27.6l30.9,87.8h0.3l30.1-87.8h27.3v112.1h-18.7v-86.5h-0.3l-31.1,86.5h-16.2l-31.1-86.5h-0.3v86.5h-18.7
					V729.1H2103.8z"/>
			</g>
			<g>
				<path d="M2240.9,729.1h49.5c32,0,38.2,20.7,38.2,34.7c0,13.8-6.1,34.5-38.2,34.4h-29.8v43H2241L2240.9,729.1L2240.9,729.1z
					 M2260.6,782.2h28.7c8.8,0,19.6-4.4,19.6-18.5c0-14.8-9-18.5-19.3-18.5h-29.1v37H2260.6z"/>
			</g>
			<g>
				<path d="M2339.5,729.1h19.6v65.3c0,15.1,0.9,32.5,26.4,32.5c25.4,0,26.4-17.4,26.4-32.5v-65.3h19.6v71.8c0,28.7-18.4,43-46,43
					s-46-14.3-46-43V729.1z"/>
			</g>
			<g>
				<path d="M2440.6,729.1h90.8v17h-35.6v95.2h-19.6v-95.2h-35.5L2440.6,729.1L2440.6,729.1z"/>
			</g>
			<g>
				<path d="M2541,729.1h80.7v17h-61.1v29.4h56.5v16h-56.5v32.8h62.2v17H2541V729.1z"/>
			</g>
			<g>
				<path d="M2637.1,729.1h53.5c24.5,0,37.1,11.3,37.1,30.3c0,21.5-14.9,27-18.5,28.3v0.3c6.8,0.9,16.6,6,16.6,23.7
					c0,13,1.9,25,6.1,29.5h-21c-3-4.9-3-11-3-16.5c0-20.6-4.2-29.7-22.3-29.7h-28.9v46.2h-19.6L2637.1,729.1L2637.1,729.1z
					 M2656.7,780.1h32.2c12.4,0,19.2-6.1,19.2-17.9c0-14.3-9.3-17.1-19.5-17.1h-31.9V780.1z"/>
			</g>
			<g>
				<path d="M2804.2,803.9c0,17.3,12.7,24,28.4,24c17.3,0,23.7-8.5,23.7-17c0-8.6-4.7-12.1-9.3-13.8c-7.9-3-18.1-5-33.4-9.3
					c-19.2-5.2-24.8-16.8-24.8-28.4c0-22.5,20.7-33,41-33c23.4,0,43,12.4,43,35.8h-19.6c-0.9-14.4-10.7-19.8-24.2-19.8
					c-9.1,0-20.6,3.3-20.6,14.6c0,7.9,5.3,12.2,13.3,14.4c1.7,0.5,26.5,6.9,32.3,8.6c14.8,4.4,21.8,17,21.8,28.6
					c0,25.1-22.3,35.2-44.6,35.2c-25.6,0-46.3-12.2-46.8-40h19.8V803.9z"/>
			</g>
			<g>
				<path d="M2915.2,797.3l-42.1-68.1h22.8l29.7,50.2l29.2-50.2h22l-41.9,68.1v44h-19.6L2915.2,797.3L2915.2,797.3z"/>
			</g>
			<g>
				<path d="M2993.5,803.9c0,17.3,12.7,24,28.4,24c17.3,0,23.7-8.5,23.7-17c0-8.6-4.7-12.1-9.3-13.8c-7.9-3-18.1-5-33.4-9.3
					c-19.2-5.2-24.8-16.8-24.8-28.4c0-22.5,20.7-33,41-33c23.4,0,43,12.4,43,35.8h-19.6c-0.9-14.4-10.7-19.8-24.2-19.8
					c-9.1,0-20.6,3.3-20.6,14.6c0,7.9,5.3,12.2,13.3,14.4c1.7,0.5,26.5,6.9,32.3,8.6c14.8,4.4,21.8,17,21.8,28.6
					c0,25.1-22.3,35.2-44.6,35.2c-25.6,0-46.3-12.2-46.8-40h19.8V803.9z"/>
			</g>
			<g>
				<path d="M3068.5,729.1h90.8v17h-35.6v95.2H3104v-95.2h-35.5V729.1z"/>
			</g>
			<g>
				<path d="M3168.9,729.1h80.7v17h-61.1v29.4h56.5v16h-56.5v32.8h62.2v17h-81.8L3168.9,729.1L3168.9,729.1z"/>
			</g>
			<g>
				<path d="M3264.9,729.1h27.6l30.9,87.8h0.3l30.1-87.8h27.3v112.1h-18.7v-86.5h-0.3l-31.1,86.5h-16l-31.1-86.5h-0.3v86.5h-18.7
					V729.1z"/>
			</g>
		</g>
		<g>
			<g>
				<g>
					<polygon class="st1" points="812.5,103.4 992.8,88.8 1181.2,364.4 1100.5,541.3 					"/>
					<path d="M990.3,94l185.2,270.9L1099.7,531L821.3,107.7L990.3,94 M995.3,83.5L803.7,99.1l297.6,452.5l85.7-187.7L995.3,83.5
						L995.3,83.5z"/>
				</g>
				<g>
					<polygon class="st1" points="679.5,138.3 801.5,104.9 1101.5,561 1022,659.1 					"/>
					<path d="M799.3,110.6l296,450.1l-72.9,89.9l-335-509.4L799.3,110.6 M803.7,99.1l-132.2,36.2l350.1,532.3l86.1-106.2L803.7,99.1
						L803.7,99.1z"/>
				</g>
				<g>
					<polygon class="st1" points="580.1,222.3 662.5,130.7 1014.1,665.2 901.5,710.9 					"/>
					<path d="M661.9,138.9l344.6,524l-103.1,41.9l-317-482L661.9,138.9 M663.1,122.5l-89.3,99.3l325.8,495.3l122-49.6L663.1,122.5
						L663.1,122.5z"/>
				</g>
			</g>
			<g>
				<polygon class="st1" points="503.1,397.3 588.1,252.6 873.7,686.9 707.9,711 				"/>
				<path d="M588.4,262.1L865.2,683l-154.8,22.5L509,397.2L588.4,262.1 M587.9,243.2l-90.7,154.3l208.3,318.9l176.7-25.7
					L587.9,243.2L587.9,243.2z"/>
			</g>
			<g>
				<g>
					<g>
						<path d="M2531.5,96.4l-283.8-0.1l-44.2,342.9L2075.2,96.3h-173.1l-191.3,361.9l46.6-361.9h-153.1l-54.5,423.3h-143.7
							c-31.2,0-55.3-27.4-51.3-58.4l47-364.9h-153.1l-25.3,196.2C1179.2,124.2,1025.9,0,843.6,0c-143,0-268.2,76.5-336.9,190.8
							l-35.3-94.4H298.3L0,660.6h153.6L234.3,508h232.9l5.3,13.8c53.4,153.7,199.3,264,371.2,264c85.1,0,163.9-27.2,228.2-73.2
							l84.5,128.6h177.9l-157.6-239.9c10.3-16.5,19.5-33.8,27.3-51.9c19,63.6,77.9,111.1,149.2,111.1h331.6h72.7l80.7-152.6H2071
							l57.1,152.6H2328l36.5-283.5l164.6,283.5H2694l-102.3-176.1C2793.5,429.2,2773.4,96.4,2531.5,96.4z M303.5,377.1L370.7,250
							l47.5,127.1H303.5z M843.6,650.6C701.3,650.6,586,535.2,586,392.9s115.4-257.6,257.6-257.6c142.3,0,257.6,115.4,257.6,257.6
							C1101.3,535.2,985.9,650.6,843.6,650.6z M1907.3,377.1l67.2-127.1l47.5,127.1H1907.3z M2495,377.1l-130.5,0.1l18-139.8
							l124.7,0.1C2600.4,237.4,2588.2,377.1,2495,377.1z"/>
					</g>
					<g>
						<polygon points="2766.7,96.3 2694,660.6 2847.1,660.6 2919.8,96.3 						"/>
					</g>
					<g>
						<path d="M3300.9,96.3l-54.5,423.3h-143.7c-31.2,0-55.3-27.4-51.3-58.4l47-364.9h-153.1L2895.2,485
							c-12,93.1,60.5,175.6,154.4,175.6h331.6l72.7-564.3L3300.9,96.3L3300.9,96.3z"/>
					</g>
					<g>
						<path d="M3694.5,299.8c0,0-84.7-24.1-71.2-72.2c13.6-48.1,133.6-38.7,167.7,26.9l19.5-151.4c0,0-54.3-43.3-146.7-43.3
							s-202.8,77.8-202.8,187s68.4,154.6,110.7,175.1c37.5,18.2,128,52.8,101,110.7c-36.7,78.7-188.7,25.6-237.6-122.2l-27.4,212.7
							c0,0,65.8,102.2,205.6,102.2c93.3,0,214.4-57.2,225.2-211.5C3843.1,448.4,3817.7,344.2,3694.5,299.8z"/>
					</g>
				</g>
			</g>
		</g>
	</g>
</g>
</svg>
