<?xml version="1.0" encoding="utf-8"?>
<!-- Generator: Adobe Illustrator 26.0.3, SVG Export Plug-In . SVG Version: 6.00 Build 0)  -->
<svg version="1.1" id="Layer_1" xmlns="http://www.w3.org/2000/svg" xmlns:xlink="http://www.w3.org/1999/xlink" x="0px" y="0px"
	 viewBox="0 0 3839 1299.2" style="enable-background:new 0 0 3839 1299.2;" xml:space="preserve">
<style type="text/css">
	.st0{fill:#FFFFFF;}
	.st1{fill:#FFFFFA;}
	.st2{fill:#FF0000;}
</style>
<g>
	<polygon points="2872.8,334.3 2533.2,334.3 2533.2,0 2916.1,0 	"/>
	<rect x="1515.5" y="964.8" width="677.3" height="334.3"/>
	<rect x="1899.2" y="482.4" width="293.5" height="334.3"/>
	<path d="M1899.2,816.7c-544.5,0-544.5-816.7,0-816.7c0,111.5,0,222.8,0,334.3c-98.7,0-98.7,148.1,0,148.1
		C1899.2,593.8,1899.2,705.3,1899.2,816.7z"/>
	<path d="M2192.7,482.4c544.5,0,544.5,816.7,0,816.7c0-111.5,0-222.8,0-334.3c98.7,0,98.7-148.1,0-148.1
		C2192.7,705.3,2192.7,593.8,2192.7,482.4z"/>
	<polygon points="3839,1299.2 2916.1,0 2625.1,167.5 3428.9,1299.2 	"/>
	<polygon points="2477.7,1299.2 3400.5,0 3810.5,0 2887.7,1299.2 	"/>
	<rect x="1899.2" y="0" width="692.9" height="334.3"/>
	<polygon points="346.5,1299.2 506.2,714 665.7,1299.2 967.3,1299.2 1126.9,714 1286.6,1299.2 1633.1,1299.2 1278.7,0 975.1,0 
		816.5,581.5 657.9,0 354.4,0 0,1299.2 	"/>
</g>
</svg>
