<?xml version="1.0" encoding="utf-8"?>
<!-- Generator: Adobe Illustrator 26.0.3, SVG Export Plug-In . SVG Version: 6.00 Build 0)  -->
<svg version="1.1" id="Layer_1" xmlns="http://www.w3.org/2000/svg" xmlns:xlink="http://www.w3.org/1999/xlink" x="0px" y="0px"
	 viewBox="0 0 3839 1557.6" style="enable-background:new 0 0 3839 1557.6;" xml:space="preserve">
<style type="text/css">
	.st0{fill:#FFFFFF;}
	.st1{fill:#FFFFFA;}
	.st2{fill:#FF0000;}
</style>
<g>
	<rect x="0" width="3839" height="1557.6"/>
	<g>
		<g>
			<g>
				<polygon class="st1" points="2722.2,513.4 2436.3,513.4 2436.3,231.8 2758.7,231.8 				"/>
			</g>
			<g>
				<rect x="1579.3" y="1044.2" class="st1" width="570.3" height="281.5"/>
			</g>
			<g>
				<rect x="1902.4" y="638" class="st1" width="247.1" height="281.5"/>
			</g>
			<g>
				<path class="st1" d="M1902.4,919.6c-458.5,0-458.5-687.7,0-687.7c0,93.9,0,187.7,0,281.5c-83.1,0-83.1,124.7,0,124.7
					C1902.4,731.9,1902.4,825.7,1902.4,919.6z"/>
			</g>
			<g>
				<path class="st1" d="M2149.5,638c458.5,0,458.5,687.7,0,687.7c0-93.9,0-187.7,0-281.5c83.1,0,83.1-124.7,0-124.7
					C2149.5,825.7,2149.5,731.9,2149.5,638z"/>
			</g>
			<g>
				<polygon class="st1" points="3535.8,1325.8 2758.7,231.8 2513.6,372.9 3190.5,1325.8 				"/>
			</g>
			<g>
				<polygon class="st1" points="2389.5,1325.8 3166.5,231.8 3511.8,231.8 2734.8,1325.8 				"/>
			</g>
			<g>
				<rect x="1902.4" y="231.8" class="st1" width="583.4" height="281.5"/>
			</g>
			<g>
				<polygon class="st1" points="595,1325.8 729.4,833.1 863.8,1325.8 1117.7,1325.8 1252.2,833.1 1386.5,1325.8 1678.3,1325.8 
					1379.9,231.8 1124.3,231.8 990.7,721.5 857.2,231.8 601.6,231.8 303.2,1325.8 				"/>
			</g>
		</g>
	</g>
</g>
</svg>
