<?xml version="1.0" encoding="utf-8"?>
<!-- Generator: Adobe Illustrator 26.3.1, SVG Export Plug-In . SVG Version: 6.00 Build 0)  -->
<svg version="1.1" id="Layer_1" xmlns="http://www.w3.org/2000/svg" xmlns:xlink="http://www.w3.org/1999/xlink" x="0px" y="0px"
	 viewBox="0 0 3839 1115.1" style="enable-background:new 0 0 3839 1115.1;" xml:space="preserve">
<style type="text/css">
	.st0{fill:#D02026;}
	.st1{fill:#FFFFFF;}
</style>
<g>
	<g>
		<g>
			<g>
				<path d="M2301.8,1002.5h-90c-39.3,0-71.3-32-71.3-71.3v-61.4c0-39.3,32-71.3,71.3-71.3h90c39.3,0,71.3,32,71.3,71.3v61.4
					C2373.1,970.6,2341.1,1002.5,2301.8,1002.5z M2211.8,846.4c-12.9,0-23.4,10.5-23.4,23.4v61.4c0,12.9,10.5,23.4,23.4,23.4h90
					c12.9,0,23.4-10.5,23.4-23.4v-61.4c0-12.9-10.5-23.4-23.4-23.4H2211.8z"/>
			</g>
			<g>
				<path d="M2421.4,1113.8h-329.2c-67.3,0-122-54.7-122-122V831.7c0-39.4,18.8-74.5,47.8-96.8c-16-15.1-26-36.5-26-60.3V532.4
					c0-45.7,37.2-82.9,82.9-82.9h124.5v211.4c0,12.9,10.5,23.3,23.4,23.3h68c12.9,0,23.3-10.5,23.3-23.3V632
					c0-12.9-10.5-23.3-23.3-23.3h-34V449.5h181.8c45.7,0,82.9,37.2,82.9,82.9v142.2c0,23.7-10,45.1-26,60.3
					c29.1,22.3,47.8,57.4,47.8,96.8v160.2C2543.4,1059.1,2488.7,1113.8,2421.4,1113.8z M2092.2,757.5c-40.9,0-74.1,33.2-74.1,74.1
					v160.2c0,40.9,33.2,74.1,74.1,74.1h329.2c40.9,0,74.1-33.2,74.1-74.1V831.7c0-40.9-33.2-74.1-74.1-74.1v-47.9h17.2
					c19.3,0,35.1-15.7,35.1-35.1V532.4c0-19.3-15.7-35.1-35.1-35.1h-134v64.8c32.7,6.5,57.4,35.3,57.4,69.9v28.9
					c0,39.3-31.9,71.2-71.2,71.2h-68c-39.3,0-71.2-31.9-71.2-71.2V497.4H2075c-19.3,0-35.1,15.7-35.1,35.1v142.2
					c0,19.3,15.7,35.1,35.1,35.1h17.2V757.5z"/>
			</g>
			<g>
				<path d="M3069.2,1113.8H2741c-67.3,0-122-54.7-122-122V571.5c0-67.3,54.7-122,122-122h96.2v481.8c0,12.9,10.5,23.3,23.3,23.3
					h89.1c12.9,0,23.3-10.5,23.3-23.3V632c0-12.9-10.5-23.3-23.3-23.3h-55.1V449.5h174.7c67.3,0,122,54.7,122,122v420.4
					C3191.2,1059.1,3136.5,1113.8,3069.2,1113.8z M2741,497.4c-40.9,0-74.1,33.2-74.1,74.1v420.4c0,40.9,33.2,74.1,74.1,74.1h328.2
					c40.9,0,74.1-33.2,74.1-74.1V571.5c0-40.9-33.2-74.1-74.1-74.1h-126.8v63.4h7.3c39.3,0,71.2,31.9,71.2,71.2v299.3
					c0,39.3-31.9,71.2-71.2,71.2h-89.1c-39.3,0-71.2-31.9-71.2-71.2v-434H2741z"/>
			</g>
			<g>
				<path d="M3717,1113.8h-328.2c-67.3,0-122-54.7-122-122V571.5c0-67.3,54.7-122,122-122h96.2v481.8c0,12.9,10.5,23.3,23.3,23.3
					h89.1c12.9,0,23.3-10.5,23.3-23.3V632c0-12.9-10.5-23.3-23.3-23.3h-55.1V449.5H3717c67.3,0,122,54.7,122,122v420.4
					C3839,1059.1,3784.3,1113.8,3717,1113.8z M3388.8,497.4c-40.9,0-74.1,33.2-74.1,74.1v420.4c0,40.9,33.2,74.1,74.1,74.1H3717
					c40.9,0,74.1-33.2,74.1-74.1V571.5c0-40.9-33.2-74.1-74.1-74.1h-126.8v63.4h7.3c39.3,0,71.2,31.9,71.2,71.2v299.3
					c0,39.3-31.9,71.2-71.2,71.2h-89.1c-39.3,0-71.2-31.9-71.2-71.2v-434H3388.8z"/>
			</g>
		</g>
		<g>
			<path d="M763.2,449.6l-174.2,0l0,137.1c0,0,37.6,0,37.6,0c18.7,0,33.8,15.1,33.8,33.8v494.6h215.4l0-552.9
				C875.8,500,825.4,449.6,763.2,449.6z"/>
			<path d="M433,449.6l-154.9,0l0,137.1c0,0,18.3,0,18.3,0c18.7,0,33.8,15.1,33.8,33.8v494.6h215.4l0-552.9
				C545.6,500,495.2,449.6,433,449.6z"/>
			<rect y="449.6" width="215.4" height="665.6"/>
			<rect x="1594.1" y="703.4" width="277" height="159.5"/>
			<g>
				<polygon points="1195.7,586.7 975.1,586.7 975.1,449.6 1296.6,449.6 				"/>
				<path d="M1364,449.6L976.6,975.9c-42.5,57.7-1.3,139.2,70.4,139.2h98.4L1540,576.6c38.7-52.7,1-127-64.4-127H1364z"/>
				<g>
					<polygon points="1313.6,978 1510.9,978 1510.9,1115.1 1212.6,1115.1 					"/>
				</g>
			</g>
		</g>
	</g>
	<g>
		<g>
			
				<g id="g9277_00000179627725773245616550000008162964772725081277_" transform="matrix(0,1.5459704,1.5459704,0,415.67057,649.33146)">
				<path id="path9279_00000074416215550273957890000007382651159126636423_" d="M-340.9,747.4V621.9h-73v-64.8H-223v64.8h-76.7
					v125.5h76.7v64.8h-190.9v-64.8H-340.9"/>
			</g>
			
				<g id="g9281_00000150061491777893491470000000516838878611266717_" transform="matrix(0,1.5459704,1.5459704,0,451.89266,657.95179)">
				<path id="path9283_00000098213638501418599660000002712741333555316625_" d="M-305.3,897.1l-74.1,45.2l74.1,43.8V897.1
					 M-419.5,917.1l190.9-116.3v49.6l-39.1,23.8v134.1l39.1,23.1v79.2l-190.9-116.3V917.1"/>
			</g>
			
				<g id="g9285_00000057858495415545565950000017233699564120829326_" transform="matrix(0,1.5459704,1.5459704,0,550.35088,651.36905)">
				<path id="path9287_00000007396239541519977380000006712868059472848026_" d="M-332.5,1304.1c-20.2,15.4-49.9,13.4-66.9-16.3
					c-15.9-27.6-21.7-80.4-21.7-113.4c0-52.7,3.6-86.7,8.5-115.6h188.2v64.8H-384c-4.6,23.4-4.7,47.1-4.3,55.9
					c1.1,25.7,5.1,40.2,13.4,51.8c8.5,12,27.4,15.2,40.5-0.3c9.8-11.6,17.4-35.2,9.4-88l12.2-7.4l88.5,99.7v88.3L-301,1235
					C-303.8,1256.3-312.3,1288.6-332.5,1304.1"/>
			</g>
			
				<g id="g9289_00000113337405572553458580000012991833180045988508_" transform="matrix(0,1.5459704,1.5459704,0,346.11736,647.86124)">
				<path id="path9291_00000136395073635126972180000012437571311202902420_" d="M-347,459.9c-7.3-37.4-11.8-69.3-23.9-69.3
					c-13.5,0-16.9,25.7-13,62.2c3.6,34.5,12.7,67,25.6,97.3l-37.8,23c-9.3-24.5-21.3-75-22.6-120.9c-1.5-50.3,3.1-135.1,53.9-138.8
					c46.5-3.3,57.6,62.9,67.7,106.4c9.9,42.4,13.4,82.1,28.1,82.1c10.3,0,18.4-14,15.6-51.1c-3.3-44.6-15.5-82.5-34.3-120.4
					l41.3-25.1c16.4,42,29.6,97,30.4,146.6c1,59-8.5,125.5-59,127C-317.3,580.4-332.1,536.7-347,459.9"/>
			</g>
			
				<g id="g9293_00000053508335046185298450000007450179754220399521_" transform="matrix(0,1.5459704,1.5459704,0,594.18532,651.0413)">
				<path id="path9295_00000068637994611793634710000004466654519204141447_" d="M-333.8,1485.3c9.2-11.2,12.4-27.6,12.4-53.4
					c-0.1-19.1-3.6-38.8-7.2-54.8h-55c-4.6,23.3-4.7,47.5-4.3,56.3c1.1,25.9,5.5,41,13.4,52.2
					C-366.5,1497.2-346.8,1501.1-333.8,1485.3 M-399.1,1541.9c-15.6-26.4-21.7-75.8-21.7-113.8c0-52.8,3.6-87.1,8.5-116h188.2v64.8
					h-69c3.3,20.1,5.3,45.2,5.1,66.9c-0.5,53.1-12.9,92.5-32.5,110.4C-348.2,1579.9-381.7,1571.3-399.1,1541.9"/>
			</g>
		</g>
	</g>
</g>
</svg>
