<?xml version="1.0" encoding="utf-8"?>
<!-- Generator: Adobe Illustrator 26.3.1, SVG Export Plug-In . SVG Version: 6.00 Build 0)  -->
<svg version="1.1" id="Layer_1" xmlns="http://www.w3.org/2000/svg" xmlns:xlink="http://www.w3.org/1999/xlink" x="0px" y="0px"
	 viewBox="0 0 2395.2 2159" style="enable-background:new 0 0 2395.2 2159;" xml:space="preserve">
<style type="text/css">
	.st0{fill:#FFFFFF;}
</style>
<g>
	<g>
		<g>
			<path d="M1216.7,787.6c0-175.9-142.6-318.5-318.5-318.5c-129,0-239.8,76.8-289.9,187.1C558.3,546,447.5,469.1,318.5,469.1
				c-108.3,0-203.7,54.1-261.3,136.7V497.7H0v289.9v575h57.2h0v-575c0-144.3,117-261.3,261.3-261.3c144.3,0,261.3,117,261.3,261.3v0
				v575H637h0v-575c0-144.3,117-261.3,261.3-261.3c144.3,0,261.3,117,261.3,261.3v575h57.2V787.6z"/>
			<path d="M1752.4,786.8l61.1-260.5h503.8v-57.2h-490.4h-22.7h-36.1l-81.7,348.1l0,0l-5.7,24.5h5.7h21.5c347.9,0,630,282.1,630,630
				v0c0,348-282.1,630-630,630h-21.5v57.2h21.5c379.5,0,687.2-307.7,687.2-687.2v0C2395.2,1107.2,2111.2,809.8,1752.4,786.8z"/>
			<path d="M1370.7,1061c-15.5,0-28,12.5-28,28c0,15.5,12.5,28,28,28c15.5,0,28-12.5,28-28C1398.7,1073.6,1386.2,1061,1370.7,1061z"
				/>
			<path d="M1440.6,1061c-15.5,0-28,12.5-28,28c0,15.5,12.5,28,28,28c15.5,0,28-12.5,28-28C1468.6,1073.6,1456.1,1061,1440.6,1061z"
				/>
			<path d="M1510.5,1061c-15.5,0-28,12.5-28,28c0,15.5,12.5,28,28,28c15.5,0,28-12.5,28-28C1538.5,1073.6,1526,1061,1510.5,1061z"/>
			<path d="M1580.4,1061c-15.5,0-28,12.5-28,28c0,15.5,12.5,28,28,28c15.5,0,28-12.5,28-28C1608.4,1073.6,1595.9,1061,1580.4,1061z"
				/>
			<path d="M1370.7,1130.9c-15.5,0-28,12.5-28,28c0,15.5,12.5,28,28,28c15.5,0,28-12.5,28-28
				C1398.7,1143.5,1386.2,1130.9,1370.7,1130.9z"/>
			<path d="M1440.6,1130.9c-15.5,0-28,12.5-28,28c0,15.5,12.5,28,28,28c15.5,0,28-12.5,28-28
				C1468.6,1143.5,1456.1,1130.9,1440.6,1130.9z"/>
			<path d="M1510.5,1130.9c-15.5,0-28,12.5-28,28c0,15.5,12.5,28,28,28c15.5,0,28-12.5,28-28
				C1538.5,1143.5,1526,1130.9,1510.5,1130.9z"/>
			<path d="M1580.4,1130.9c-15.5,0-28,12.5-28,28c0,15.5,12.5,28,28,28c15.5,0,28-12.5,28-28
				C1608.4,1143.5,1595.9,1130.9,1580.4,1130.9z"/>
			<path d="M1370.7,1200.9c-15.5,0-28,12.5-28,28c0,15.5,12.5,28,28,28c15.5,0,28-12.5,28-28
				C1398.7,1213.4,1386.2,1200.9,1370.7,1200.9z"/>
			<ellipse cx="1440.6" cy="1228.9" rx="28" ry="28"/>
			<path d="M1510.5,1200.9c-15.5,0-28,12.5-28,28c0,15.5,12.5,28,28,28c15.5,0,28-12.5,28-28
				C1538.5,1213.4,1526,1200.9,1510.5,1200.9z"/>
			<ellipse cx="1580.4" cy="1228.9" rx="28" ry="28"/>
			<path d="M1370.7,1270.8c-15.5,0-28,12.5-28,28c0,15.5,12.5,28,28,28c15.5,0,28-12.5,28-28
				C1398.7,1283.3,1386.2,1270.8,1370.7,1270.8z"/>
			<ellipse cx="1440.6" cy="1298.8" rx="28" ry="28"/>
			<path d="M1510.5,1270.8c-15.5,0-28,12.5-28,28c0,15.5,12.5,28,28,28c15.5,0,28-12.5,28-28
				C1538.5,1283.3,1526,1270.8,1510.5,1270.8z"/>
			<ellipse cx="1580.4" cy="1298.8" rx="28" ry="28"/>
		</g>
		<path d="M109.9,1518.7c-4.1-20.7-20.7-31.1-40.9-31.1c-34.8,0-49.5,28.7-49.5,59.2c0,33.4,14.7,61.2,49.7,61.2
			c25.6,0,40.3-18,42.2-42.2h19.4c-3.7,36.4-26.4,58.5-63.2,58.5c-45.4,0-67.5-33.6-67.5-76.1c0-42.4,24.2-77,69.2-77
			c30.5,0,55.7,16.4,60.2,47.5H109.9z"/>
		<path d="M144.2,1515h16.4v22.3h0.4c8.4-17,20.1-25.4,38.9-24.8v18.4c-28,0-38.3,16-38.3,42.8v47.1h-17.4V1515z"/>
		<path d="M295.2,1587.3c-4.7,23.3-21.5,36-45.2,36c-33.8,0-49.7-23.3-50.8-55.7c0-31.7,20.9-55.1,49.7-55.1
			c37.5,0,48.9,35,47.9,60.6h-79.2c-0.6,18.4,9.8,34.8,33,34.8c14.3,0,24.4-7,27.4-20.7H295.2z M278.4,1557.8
			c-0.8-16.6-13.3-29.9-30.5-29.9c-18.2,0-29.1,13.7-30.3,29.9H278.4z"/>
		<path d="M402.5,1620.4c-3.1,1.8-7,2.9-12.5,2.9c-9,0-14.7-4.9-14.7-16.4c-9.6,11.3-22.5,16.4-37.3,16.4c-19.2,0-35-8.6-35-29.7
			c0-23.9,17.8-29.1,35.8-32.5c19.2-3.7,35.6-2.5,35.6-15.6c0-15.1-12.5-17.6-23.5-17.6c-14.7,0-25.6,4.5-26.4,20.1h-17.4
			c1-26.2,21.3-35.4,44.8-35.4c19,0,39.7,4.3,39.7,29.1v54.4c0,8.2,0,11.9,5.5,11.9c1.4,0,3.1-0.2,5.3-1V1620.4z M374.3,1566.2
			c-6.8,4.9-19.9,5.1-31.5,7.2c-11.5,2-21.3,6.1-21.3,19c0,11.5,9.8,15.6,20.5,15.6c22.9,0,32.3-14.3,32.3-23.9V1566.2z"/>
		<path d="M435.2,1515h21.1v15.4h-21.1v65.7c0,8,2.3,9.4,13.1,9.4h8v15.4H443c-18,0-25.2-3.7-25.2-23.1v-67.3h-18V1515h18v-31.7
			h17.4V1515z"/>
		<path d="M485.1,1496h-17.4v-21.3h17.4V1496z M467.7,1515h17.4v105.8h-17.4V1515z"/>
		<path d="M551.9,1620.8h-18.6L494,1515h19.4l29.7,88.2h0.4l28.9-88.2h18.2L551.9,1620.8z"/>
		<path d="M685.4,1587.3c-4.7,23.3-21.5,36-45.2,36c-33.8,0-49.7-23.3-50.8-55.7c0-31.7,20.9-55.1,49.7-55.1
			c37.5,0,48.9,35,47.9,60.6h-79.2c-0.6,18.4,9.8,34.8,33,34.8c14.3,0,24.4-7,27.4-20.7H685.4z M668.6,1557.8
			c-0.8-16.6-13.3-29.9-30.5-29.9c-18.2,0-29.1,13.7-30.3,29.9H668.6z"/>
		<path d="M861.4,1518.7c-4.1-20.7-20.7-31.1-40.9-31.1c-34.8,0-49.5,28.7-49.5,59.2c0,33.4,14.7,61.2,49.7,61.2
			c25.6,0,40.3-18,42.2-42.2h19.4c-3.7,36.4-26.4,58.5-63.2,58.5c-45.4,0-67.5-33.6-67.5-76.1c0-42.4,24.2-77,69.2-77
			c30.5,0,55.7,16.4,60.2,47.5H861.4z"/>
		<path d="M942.5,1512.6c33.6,0,51.4,24.4,51.4,55.5c0,30.9-17.8,55.3-51.4,55.3s-51.4-24.4-51.4-55.3
			C891.1,1536.9,908.9,1512.6,942.5,1512.6z M942.5,1607.9c18.2,0,33-14.3,33-39.9c0-25.8-14.7-40.1-33-40.1
			c-18.2,0-33,14.3-33,40.1C909.5,1593.6,924.2,1607.9,942.5,1607.9z"/>
		<path d="M1007.2,1515h16.4v15.6h0.4c7.8-11.9,19.6-18,34.2-18c12.9,0,24.8,5.1,29.1,18c7.2-11.3,19.6-18,33.2-18
			c21.1,0,35.2,8.8,35.2,30.7v77.6h-17.4v-69.4c0-13.1-3.5-23.5-20.5-23.5c-16.8,0-27.6,10.6-27.6,27v65.9h-17.4v-69.4
			c0-13.7-4.3-23.5-19.9-23.5c-20.7,0-28.2,19-28.2,27v65.9h-17.4V1515z"/>
		<path d="M1174.9,1515h17.4v14.3h0.4c5.7-11.7,19.2-16.8,33.8-16.8c32.5,0,48.7,25.8,48.7,55.7s-16,55.1-48.3,55.1
			c-10.8,0-26.4-4.1-34.2-16.6h-0.4v54.6h-17.4V1515z M1224,1527.9c-23.3,0-32.3,20.1-32.3,39.9c0,20.9,9.4,40.1,33.4,40.1
			c23.7,0,31.7-20.3,31.7-40.9C1256.7,1547.1,1246.5,1527.9,1224,1527.9z"/>
		<path d="M1376.1,1620.8h-16.4V1604h-0.4c-7.4,13.1-19.2,19.2-34.4,19.2c-27.8,0-36.4-16-36.4-38.7V1515h17.4v71.6
			c0,12.9,8.2,21.3,21.5,21.3c21.1,0,31.3-14.1,31.3-33.2V1515h17.4V1620.8z"/>
		<path d="M1419.9,1515h21.1v15.4h-21.1v65.7c0,8,2.3,9.4,13.1,9.4h8v15.4h-13.3c-18,0-25.2-3.7-25.2-23.1v-67.3h-18V1515h18v-31.7
			h17.4V1515z"/>
		<path d="M1539.3,1587.3c-4.7,23.3-21.5,36-45.2,36c-33.8,0-49.7-23.3-50.8-55.7c0-31.7,20.9-55.1,49.7-55.1
			c37.5,0,48.9,35,47.9,60.6h-79.2c-0.6,18.4,9.8,34.8,33,34.8c14.3,0,24.4-7,27.4-20.7H1539.3z M1522.5,1557.8
			c-0.8-16.6-13.3-29.9-30.5-29.9c-18.2,0-29.1,13.7-30.3,29.9H1522.5z"/>
		<path d="M1552.7,1515h16.4v22.3h0.4c8.4-17,20.1-25.4,38.9-24.8v18.4c-28,0-38.3,16-38.3,42.8v47.1h-17.4V1515z"/>
	</g>
	<g>
		<g>
			<rect y="0.2" width="509.8" height="310.6"/>
			<path class="st0" d="M99.1,179h224.7v45.3H57.9v46.9h352.9c22.8,0,41.2-18.4,41.2-41.2v-56.8c0-22.8-18.4-41.2-41.2-41.2H186
				V86.8H452V39.8H99.1c-22.8,0-41.2,18.4-41.2,41.2v56.8C57.9,160.6,76.3,179,99.1,179z"/>
		</g>
		<g>
			<rect x="1807.5" width="509.8" height="310.6"/>
			<path class="st0" d="M1859.3,39.6V271h365c22.8,0,41.2-18.4,41.2-41.2V80.8c0-22.8-18.4-41.2-41.2-41.2H1859.3z M2108.3,224.1
				h-120.8V86.5h120.8c16,0,29,13,29,29v79.5C2137.3,211.1,2124.3,224.1,2108.3,224.1z"/>
		</g>
		<g>
			<rect x="602.5" width="509.8" height="310.6"/>
			<path class="st0" d="M654.3,80.8v149.1c0,22.8,18.4,41.2,41.2,41.2h323.8c22.8,0,41.2-18.4,41.2-41.2V80.8
				c0-22.8-18.4-41.2-41.2-41.2H695.5C672.8,39.6,654.3,58,654.3,80.8z M909.7,224.1H805.1c-12.5,0-22.7-10.1-22.7-22.7v-92.3
				c0-12.5,10.1-22.7,22.7-22.7h104.6c12.5,0,22.7,10.1,22.7,22.7v92.3C932.4,214,922.2,224.1,909.7,224.1z"/>
		</g>
		<g>
			<rect x="1205" width="509.8" height="310.6"/>
			<path class="st0" d="M1672,271l-14.8-23.1l-44.3-69.1c22.8,0,41.2-18.4,41.2-41.2V80.8c0-22.8-18.4-41.2-41.2-41.2h-365V271H1376
				v-92.3h100.4l42.6,92.3H1672z M1376,131.9V86.5h127.2c12.5,0,22.7,10.1,22.7,22.7s-10.1,22.7-22.7,22.7H1376z"/>
		</g>
	</g>
</g>
</svg>
