<?xml version="1.0" encoding="utf-8"?>
<!-- Generator: Adobe Illustrator 26.3.1, SVG Export Plug-In . SVG Version: 6.00 Build 0)  -->
<svg version="1.1" xmlns="http://www.w3.org/2000/svg" xmlns:xlink="http://www.w3.org/1999/xlink" x="0px" y="0px"
	 viewBox="0 0 3839 658.1" style="enable-background:new 0 0 3839 658.1;" xml:space="preserve">
<style type="text/css">
	.st0{display:none;}
	.st1{display:inline;fill:#9F00A8;}
	.st2{display:inline;}
	.st3{fill:#FFFFFF;}
	.st4{fill:#2C376B;}
	.st5{fill:#5FA5F0;}
	.st6{fill:#1B1C2B;}
	.st7{display:inline;fill:#FFFFFF;}
	.st8{display:inline;fill:#2C376B;}
	.st9{display:inline;opacity:0.39;}
	.st10{fill:#606060;stroke:#FFFFFF;stroke-width:0.9229;stroke-miterlimit:10;}
	.st11{fill:#2C376B;stroke:#5364A5;stroke-miterlimit:10;}
	.st12{fill:#474747;}
	.st13{fill:#BFBFBF;}
</style>
<g id="tic80">
	<g>
		<g>
			<g>
				<rect x="914" y="219.4" width="36.6" height="36.6"/>
				<rect x="877.5" y="219.4" width="36.6" height="36.6"/>
				<rect x="804.4" y="219.4" width="36.6" height="36.6"/>
				<rect x="767.8" y="219.4" width="36.6" height="36.6"/>
				<rect x="731.2" y="219.4" width="36.6" height="36.6"/>
				<rect x="950.6" y="219.4" width="36.6" height="36.6"/>
				<rect x="1060.3" y="219.4" width="36.6" height="36.6"/>
				<rect x="1096.9" y="219.4" width="36.6" height="36.6"/>
				<rect x="1352.8" y="219.4" width="36.6" height="36.6"/>
				<rect x="1389.4" y="219.4" width="36.6" height="36.6"/>
				<rect x="1535.6" y="219.4" width="36.6" height="36.6"/>
				<rect x="1572.2" y="219.4" width="36.6" height="36.6"/>
				<rect x="1828.1" y="219.4" width="36.6" height="36.6"/>
				<rect x="1937.8" y="219.4" width="36.6" height="36.6"/>
				<rect x="3436.8" y="219.4" width="36.6" height="36.6"/>
			</g>
			<g>
				<rect x="914" y="255.9" width="36.6" height="36.6"/>
				<rect x="767.8" y="255.9" width="36.6" height="36.6"/>
				<rect x="1023.7" y="255.9" width="36.6" height="36.6"/>
				<rect x="1316.2" y="255.9" width="36.6" height="36.6"/>
				<rect x="1425.9" y="255.9" width="36.6" height="36.6"/>
				<rect x="1499" y="255.9" width="36.6" height="36.6"/>
				<rect x="1608.7" y="255.9" width="36.6" height="36.6"/>
				<rect x="1828.1" y="255.9" width="36.6" height="36.6"/>
				<rect x="1864.7" y="255.9" width="36.6" height="36.6"/>
				<rect x="2010.9" y="255.9" width="36.6" height="36.6"/>
				<rect x="2047.5" y="255.9" width="36.6" height="36.6"/>
				<rect x="2084" y="255.9" width="36.6" height="36.6"/>
				<rect x="2193.7" y="255.9" width="36.6" height="36.6"/>
				<rect x="2303.4" y="255.9" width="36.6" height="36.6"/>
				<rect x="2559.3" y="255.9" width="36.6" height="36.6"/>
				<rect x="2595.9" y="255.9" width="36.6" height="36.6"/>
				<rect x="2705.6" y="255.9" width="36.6" height="36.6"/>
				<rect x="2742.1" y="255.9" width="36.6" height="36.6"/>
				<rect x="2851.8" y="255.9" width="36.6" height="36.6"/>
				<rect x="2888.4" y="255.9" width="36.6" height="36.6"/>
				<rect x="2925" y="255.9" width="36.6" height="36.6"/>
				<rect x="2961.5" y="255.9" width="36.6" height="36.6"/>
				<rect x="3071.2" y="255.9" width="36.6" height="36.6"/>
				<rect x="3107.8" y="255.9" width="36.6" height="36.6"/>
				<rect x="3144.3" y="255.9" width="36.6" height="36.6"/>
				<rect x="3254" y="255.9" width="36.6" height="36.6"/>
				<rect x="3363.7" y="255.9" width="36.6" height="36.6"/>
				<rect x="3436.8" y="255.9" width="36.6" height="36.6"/>
				<rect x="3473.4" y="255.9" width="36.6" height="36.6"/>
				<rect x="3583.1" y="255.9" width="36.6" height="36.6"/>
				<rect x="3619.6" y="255.9" width="36.6" height="36.6"/>
				<rect x="3729.3" y="255.9" width="36.6" height="36.6"/>
				<rect x="3802.4" y="255.9" width="36.6" height="36.6"/>
			</g>
			<g>
				<rect x="914" y="292.5" width="36.6" height="36.6"/>
				<rect x="767.8" y="292.5" width="36.6" height="36.6"/>
				<rect x="1023.7" y="292.5" width="36.6" height="36.6"/>
				<rect x="1170" y="292.5" width="36.6" height="36.6"/>
				<rect x="1206.5" y="292.5" width="36.6" height="36.6"/>
				<rect x="1243.1" y="292.5" width="36.6" height="36.6"/>
				<rect x="1352.8" y="292.5" width="36.6" height="36.6"/>
				<rect x="1389.4" y="292.5" width="36.6" height="36.6"/>
				<rect x="1499" y="292.5" width="36.6" height="36.6"/>
				<rect x="1608.7" y="292.5" width="36.6" height="36.6"/>
				<rect x="1828.1" y="292.5" width="36.6" height="36.6"/>
				<rect x="1937.8" y="292.5" width="36.6" height="36.6"/>
				<rect x="2010.9" y="292.5" width="36.6" height="36.6"/>
				<rect x="2120.6" y="292.5" width="36.6" height="36.6"/>
				<rect x="2193.7" y="292.5" width="36.6" height="36.6"/>
				<rect x="2303.4" y="292.5" width="36.6" height="36.6"/>
				<rect x="2522.8" y="292.5" width="36.6" height="36.6"/>
				<rect x="2669" y="292.5" width="36.6" height="36.6"/>
				<rect x="2778.7" y="292.5" width="36.6" height="36.6"/>
				<rect x="2851.8" y="292.5" width="36.6" height="36.6"/>
				<rect x="2925" y="292.5" width="36.6" height="36.6"/>
				<rect x="2998.1" y="292.5" width="36.6" height="36.6"/>
				<rect x="3071.2" y="292.5" width="36.6" height="36.6"/>
				<rect x="3180.9" y="292.5" width="36.6" height="36.6"/>
				<rect x="3254" y="292.5" width="36.6" height="36.6"/>
				<rect x="3363.7" y="292.5" width="36.6" height="36.6"/>
				<rect x="3436.8" y="292.5" width="36.6" height="36.6"/>
				<rect x="3546.5" y="292.5" width="36.6" height="36.6"/>
				<rect x="3619.6" y="292.5" width="36.6" height="36.6"/>
				<rect x="3656.2" y="292.5" width="36.6" height="36.6"/>
				<rect x="3729.3" y="292.5" width="36.6" height="36.6"/>
				<rect x="3765.9" y="292.5" width="36.6" height="36.6"/>
			</g>
			<g>
				<rect x="914" y="329.1" width="36.6" height="36.6"/>
				<rect x="767.8" y="329.1" width="36.6" height="36.6"/>
				<rect x="1023.7" y="329.1" width="36.6" height="36.6"/>
				<rect x="1316.2" y="329.1" width="36.6" height="36.6"/>
				<rect x="1425.9" y="329.1" width="36.6" height="36.6"/>
				<rect x="1499" y="329.1" width="36.6" height="36.6"/>
				<rect x="1608.7" y="329.1" width="36.6" height="36.6"/>
				<rect x="1828.1" y="329.1" width="36.6" height="36.6"/>
				<rect x="1937.8" y="329.1" width="36.6" height="36.6"/>
				<rect x="2010.9" y="329.1" width="36.6" height="36.6"/>
				<rect x="2120.6" y="329.1" width="36.6" height="36.6"/>
				<rect x="2193.7" y="329.1" width="36.6" height="36.6"/>
				<rect x="2303.4" y="329.1" width="36.6" height="36.6"/>
				<rect x="2522.8" y="329.1" width="36.6" height="36.6"/>
				<rect x="2669" y="329.1" width="36.6" height="36.6"/>
				<rect x="2778.7" y="329.1" width="36.6" height="36.6"/>
				<rect x="2851.8" y="329.1" width="36.6" height="36.6"/>
				<rect x="2925" y="329.1" width="36.6" height="36.6"/>
				<rect x="2998.1" y="329.1" width="36.6" height="36.6"/>
				<rect x="3071.2" y="329.1" width="36.6" height="36.6"/>
				<rect x="3180.9" y="329.1" width="36.6" height="36.6"/>
				<rect x="3254" y="329.1" width="36.6" height="36.6"/>
				<rect x="3363.7" y="329.1" width="36.6" height="36.6"/>
				<rect x="3436.8" y="329.1" width="36.6" height="36.6"/>
				<rect x="3546.5" y="329.1" width="36.6" height="36.6"/>
				<rect x="3583.1" y="329.1" width="36.6" height="36.6"/>
				<rect x="3729.3" y="329.1" width="36.6" height="36.6"/>
			</g>
			<g>
				<rect x="914" y="365.6" width="36.6" height="36.6"/>
				<rect x="877.5" y="365.6" width="36.6" height="36.6"/>
				<rect x="767.8" y="365.6" width="36.6" height="36.6"/>
				<rect x="950.6" y="365.6" width="36.6" height="36.6"/>
				<rect x="1060.3" y="365.6" width="36.6" height="36.6"/>
				<rect x="1096.9" y="365.6" width="36.6" height="36.6"/>
				<rect x="1352.8" y="365.6" width="36.6" height="36.6"/>
				<rect x="1389.4" y="365.6" width="36.6" height="36.6"/>
				<rect x="1535.6" y="365.6" width="36.6" height="36.6"/>
				<rect x="1572.2" y="365.6" width="36.6" height="36.6"/>
				<rect x="1864.7" y="365.6" width="36.6" height="36.6"/>
				<rect x="1937.8" y="365.6" width="36.6" height="36.6"/>
				<rect x="2010.9" y="365.6" width="36.6" height="36.6"/>
				<rect x="2120.6" y="365.6" width="36.6" height="36.6"/>
				<rect x="2230.3" y="365.6" width="36.6" height="36.6"/>
				<rect x="2266.8" y="365.6" width="36.6" height="36.6"/>
				<rect x="2303.4" y="365.6" width="36.6" height="36.6"/>
				<rect x="2559.3" y="365.6" width="36.6" height="36.6"/>
				<rect x="2595.9" y="365.6" width="36.6" height="36.6"/>
				<rect x="2705.6" y="365.6" width="36.6" height="36.6"/>
				<rect x="2742.1" y="365.6" width="36.6" height="36.6"/>
				<rect x="2851.8" y="365.6" width="36.6" height="36.6"/>
				<rect x="2925" y="365.6" width="36.6" height="36.6"/>
				<rect x="2998.1" y="365.6" width="36.6" height="36.6"/>
				<rect x="3071.2" y="365.6" width="36.6" height="36.6"/>
				<rect x="3107.8" y="365.6" width="36.6" height="36.6"/>
				<rect x="3144.3" y="365.6" width="36.6" height="36.6"/>
				<rect x="3290.6" y="365.6" width="36.6" height="36.6"/>
				<rect x="3327.1" y="365.6" width="36.6" height="36.6"/>
				<rect x="3363.7" y="365.6" width="36.6" height="36.6"/>
				<rect x="3473.4" y="365.6" width="36.6" height="36.6"/>
				<rect x="3583.1" y="365.6" width="36.6" height="36.6"/>
				<rect x="3619.6" y="365.6" width="36.6" height="36.6"/>
				<rect x="3729.3" y="365.6" width="36.6" height="36.6"/>
			</g>
			<g>
				<rect x="2303.4" y="402.2" width="36.6" height="36.6"/>
				<rect x="3071.2" y="402.2" width="36.6" height="36.6"/>
			</g>
			<g>
				<rect x="2230.3" y="438.7" width="36.6" height="36.6"/>
				<rect x="2266.8" y="438.7" width="36.6" height="36.6"/>
				<rect x="3071.2" y="438.7" width="36.6" height="36.6"/>
			</g>
		</g>
		<g>
			<g>
				<rect x="548.4" y="511.9" width="36.6" height="36.6"/>
				<rect x="548.4" y="475.3" width="36.6" height="36.6"/>
				<rect x="548.4" y="438.7" width="36.6" height="36.6"/>
				<rect x="548.4" y="402.2" width="36.6" height="36.6"/>
				<rect x="585" y="402.2" width="36.6" height="36.6"/>
				<rect x="585" y="365.6" width="36.6" height="36.6"/>
				<rect x="621.6" y="365.6" width="36.6" height="36.6"/>
				<rect x="621.6" y="329.1" width="36.6" height="36.6"/>
				<rect x="621.6" y="292.5" width="36.6" height="36.6"/>
				<rect x="621.6" y="255.9" width="36.6" height="36.6"/>
				<rect x="621.6" y="219.4" width="36.6" height="36.6"/>
				<rect x="621.6" y="182.8" width="36.6" height="36.6"/>
				<rect x="621.6" y="146.2" width="36.6" height="36.6"/>
				<rect x="585" y="146.2" width="36.6" height="36.6"/>
				<rect x="548.4" y="146.2" width="36.6" height="36.6"/>
				<rect x="548.4" y="109.7" width="36.6" height="36.6"/>
				<rect x="548.4" y="73.1" width="36.6" height="36.6"/>
				<rect x="548.4" y="36.6" width="36.6" height="36.6"/>
				<rect x="511.9" y="36.6" width="36.6" height="36.6"/>
				<rect x="511.9" y="0" width="36.6" height="36.6"/>
				<rect x="475.3" y="0" width="36.6" height="36.6"/>
				<rect x="438.7" y="0" width="36.6" height="36.6"/>
				<rect x="402.2" y="0" width="36.6" height="36.6"/>
				<rect x="365.6" y="0" width="36.6" height="36.6"/>
				<rect x="329.1" y="0" width="36.6" height="36.6"/>
				<rect x="292.5" y="0" width="36.6" height="36.6"/>
				<rect x="255.9" y="0" width="36.6" height="36.6"/>
				<rect x="219.4" y="0" width="36.6" height="36.6"/>
				<rect x="182.8" y="0" width="36.6" height="36.6"/>
				<rect x="146.2" y="0" width="36.6" height="36.6"/>
				<rect x="109.7" y="0" width="36.6" height="36.6"/>
				<rect x="73.1" y="0" width="36.6" height="36.6"/>
				<rect x="36.6" y="0" width="36.6" height="36.6"/>
				<rect x="36.6" y="36.6" width="36.6" height="36.6"/>
				<rect y="36.6" width="36.6" height="36.6"/>
				<rect y="73.1" width="36.6" height="36.6"/>
				<rect y="109.7" width="36.6" height="36.6"/>
				<rect y="146.2" width="36.6" height="36.6"/>
				<rect y="182.8" width="36.6" height="36.6"/>
				<rect y="219.4" width="36.6" height="36.6"/>
				<rect y="255.9" width="36.6" height="36.6"/>
				<rect y="292.5" width="36.6" height="36.6"/>
				<rect y="329.1" width="36.6" height="36.6"/>
				<rect y="365.6" width="36.6" height="36.6"/>
				<rect y="402.2" width="36.6" height="36.6"/>
				<rect y="438.7" width="36.6" height="36.6"/>
				<rect y="475.3" width="36.6" height="36.6"/>
				<rect y="511.9" width="36.6" height="36.6"/>
				<rect y="548.4" width="36.6" height="36.6"/>
				<rect y="585" width="36.6" height="36.6"/>
				<rect x="36.6" y="585" width="36.6" height="36.6"/>
				<rect x="36.6" y="621.6" width="36.6" height="36.6"/>
				<rect x="73.1" y="621.6" width="36.6" height="36.6"/>
				<rect x="109.7" y="621.6" width="36.6" height="36.6"/>
				<rect x="146.2" y="621.6" width="36.6" height="36.6"/>
				<rect x="182.8" y="621.6" width="36.6" height="36.6"/>
				<rect x="219.4" y="621.6" width="36.6" height="36.6"/>
				<rect x="255.9" y="621.6" width="36.6" height="36.6"/>
				<rect x="255.9" y="585" width="36.6" height="36.6"/>
				<rect x="292.5" y="621.6" width="36.6" height="36.6"/>
				<rect x="329.1" y="621.6" width="36.6" height="36.6"/>
				<rect x="365.6" y="621.6" width="36.6" height="36.6"/>
				<rect x="402.2" y="621.6" width="36.6" height="36.6"/>
				<rect x="438.7" y="621.6" width="36.6" height="36.6"/>
				<rect x="475.3" y="621.6" width="36.6" height="36.6"/>
				<rect x="475.3" y="585" width="36.6" height="36.6"/>
				<rect x="511.9" y="585" width="36.6" height="36.6"/>
				<rect x="511.9" y="548.4" width="36.6" height="36.6"/>
				<rect x="548.4" y="548.4" width="36.6" height="36.6"/>
			</g>
			<g>
				<g>
					<rect x="73.1" y="36.6" class="st3" width="36.6" height="36.6"/>
					<rect x="109.7" y="36.6" class="st3" width="36.6" height="36.6"/>
					<rect x="146.2" y="36.6" class="st3" width="36.6" height="36.6"/>
					<rect x="182.8" y="36.6" class="st3" width="36.6" height="36.6"/>
					<rect x="219.4" y="36.6" class="st3" width="36.6" height="36.6"/>
					<rect x="255.9" y="36.6" class="st3" width="36.6" height="36.6"/>
					<rect x="292.5" y="36.6" class="st3" width="36.6" height="36.6"/>
					<rect x="329.1" y="36.6" class="st3" width="36.6" height="36.6"/>
					<rect x="365.6" y="36.6" class="st3" width="36.6" height="36.6"/>
					<rect x="402.2" y="36.6" class="st3" width="36.6" height="36.6"/>
					<rect x="438.7" y="36.6" class="st3" width="36.6" height="36.6"/>
					<rect x="475.3" y="36.6" class="st3" width="36.6" height="36.6"/>
				</g>
				<g>
					<rect x="36.6" y="73.1" class="st3" width="36.6" height="36.6"/>
					<rect x="73.1" y="73.1" class="st3" width="36.6" height="36.6"/>
					<rect x="109.7" y="73.1" width="36.6" height="36.6"/>
					<rect x="146.2" y="73.1" width="36.6" height="36.6"/>
					<rect x="182.8" y="73.1" width="36.6" height="36.6"/>
					<rect x="219.4" y="73.1" width="36.6" height="36.6"/>
					<rect x="255.9" y="73.1" width="36.6" height="36.6"/>
					<rect x="292.5" y="73.1" width="36.6" height="36.6"/>
					<rect x="329.1" y="73.1" width="36.6" height="36.6"/>
					<rect x="365.6" y="73.1" width="36.6" height="36.6"/>
					<rect x="402.2" y="73.1" width="36.6" height="36.6"/>
					<rect x="438.7" y="73.1" width="36.6" height="36.6"/>
					<rect x="475.3" y="73.1" class="st3" width="36.6" height="36.6"/>
					<rect x="511.9" y="73.1" class="st3" width="36.6" height="36.6"/>
				</g>
				<g>
					<rect x="36.6" y="109.7" class="st3" width="36.6" height="36.6"/>
					<rect x="475.3" y="109.7" width="36.6" height="36.6"/>
					<rect x="511.9" y="109.7" class="st3" width="36.6" height="36.6"/>
				</g>
				<g>
					<rect x="36.6" y="146.2" class="st3" width="36.6" height="36.6"/>
					<rect x="109.7" y="146.2" width="36.6" height="36.6"/>
					<rect x="146.2" y="146.2" width="36.6" height="36.6"/>
					<rect x="182.8" y="146.2" width="36.6" height="36.6"/>
					<rect x="219.4" y="146.2" width="36.6" height="36.6"/>
					<rect x="255.9" y="146.2" width="36.6" height="36.6"/>
					<rect x="292.5" y="146.2" width="36.6" height="36.6"/>
					<rect x="329.1" y="146.2" width="36.6" height="36.6"/>
					<rect x="365.6" y="146.2" width="36.6" height="36.6"/>
					<rect x="402.2" y="146.2" width="36.6" height="36.6"/>
					<rect x="475.3" y="146.2" width="36.6" height="36.6"/>
					<rect x="511.9" y="146.2" class="st3" width="36.6" height="36.6"/>
				</g>
				<g>
					<rect x="36.6" y="182.8" class="st3" width="36.6" height="36.6"/>
					<rect x="109.7" y="182.8" class="st3" width="36.6" height="36.6"/>
					<rect x="146.2" y="182.8" class="st3" width="36.6" height="36.6"/>
					<rect x="182.8" y="182.8" class="st3" width="36.6" height="36.6"/>
					<rect x="219.4" y="182.8" class="st3" width="36.6" height="36.6"/>
					<rect x="255.9" y="182.8" class="st3" width="36.6" height="36.6"/>
					<rect x="292.5" y="182.8" class="st3" width="36.6" height="36.6"/>
					<rect x="329.1" y="182.8" class="st3" width="36.6" height="36.6"/>
					<rect x="365.6" y="182.8" class="st3" width="36.6" height="36.6"/>
					<rect x="402.2" y="182.8" class="st3" width="36.6" height="36.6"/>
					<rect x="475.3" y="182.8" width="36.6" height="36.6"/>
					<rect x="511.9" y="182.8" class="st3" width="36.6" height="36.6"/>
					<rect x="548.4" y="182.8" class="st3" width="36.6" height="36.6"/>
					<rect x="585" y="182.8" class="st3" width="36.6" height="36.6"/>
				</g>
				<g>
					<rect x="36.6" y="219.4" class="st3" width="36.6" height="36.6"/>
					<rect x="109.7" y="219.4" class="st3" width="36.6" height="36.6"/>
					<rect x="146.2" y="219.4" class="st3" width="36.6" height="36.6"/>
					<rect x="182.8" y="219.4" width="36.6" height="36.6"/>
					<rect x="219.4" y="219.4" class="st3" width="36.6" height="36.6"/>
					<rect x="255.9" y="219.4" class="st3" width="36.6" height="36.6"/>
					<rect x="292.5" y="219.4" class="st3" width="36.6" height="36.6"/>
					<rect x="329.1" y="219.4" width="36.6" height="36.6"/>
					<rect x="365.6" y="219.4" class="st3" width="36.6" height="36.6"/>
					<rect x="402.2" y="219.4" class="st3" width="36.6" height="36.6"/>
					<rect x="475.3" y="219.4" width="36.6" height="36.6"/>
					<rect x="511.9" y="219.4" class="st3" width="36.6" height="36.6"/>
					<rect x="548.4" y="219.4" width="36.6" height="36.6"/>
					<rect x="585" y="219.4" class="st3" width="36.6" height="36.6"/>
				</g>
				<g>
					<rect x="36.6" y="255.9" class="st3" width="36.6" height="36.6"/>
					<rect x="109.7" y="255.9" class="st3" width="36.6" height="36.6"/>
					<rect x="146.2" y="255.9" class="st3" width="36.6" height="36.6"/>
					<rect x="182.8" y="255.9" width="36.6" height="36.6"/>
					<rect x="219.4" y="255.9" class="st3" width="36.6" height="36.6"/>
					<rect x="255.9" y="255.9" class="st3" width="36.6" height="36.6"/>
					<rect x="292.5" y="255.9" class="st3" width="36.6" height="36.6"/>
					<rect x="329.1" y="255.9" width="36.6" height="36.6"/>
					<rect x="365.6" y="255.9" class="st3" width="36.6" height="36.6"/>
					<rect x="402.2" y="255.9" class="st3" width="36.6" height="36.6"/>
					<rect x="475.3" y="255.9" width="36.6" height="36.6"/>
					<rect x="511.9" y="255.9" class="st3" width="36.6" height="36.6"/>
					<rect x="548.4" y="255.9" width="36.6" height="36.6"/>
					<rect x="585" y="255.9" class="st3" width="36.6" height="36.6"/>
				</g>
				<g>
					<rect x="36.6" y="292.5" class="st3" width="36.6" height="36.6"/>
					<rect x="109.7" y="292.5" class="st3" width="36.6" height="36.6"/>
					<rect x="146.2" y="292.5" class="st3" width="36.6" height="36.6"/>
					<rect x="182.8" y="292.5" width="36.6" height="36.6"/>
					<rect x="219.4" y="292.5" class="st3" width="36.6" height="36.6"/>
					<rect x="255.9" y="292.5" class="st3" width="36.6" height="36.6"/>
					<rect x="292.5" y="292.5" class="st3" width="36.6" height="36.6"/>
					<rect x="329.1" y="292.5" width="36.6" height="36.6"/>
					<rect x="365.6" y="292.5" class="st3" width="36.6" height="36.6"/>
					<rect x="402.2" y="292.5" class="st3" width="36.6" height="36.6"/>
					<rect x="475.3" y="292.5" width="36.6" height="36.6"/>
					<rect x="511.9" y="292.5" class="st3" width="36.6" height="36.6"/>
					<rect x="548.4" y="292.5" width="36.6" height="36.6"/>
					<rect x="585" y="292.5" class="st3" width="36.6" height="36.6"/>
				</g>
				<g>
					<rect x="36.6" y="329.1" class="st3" width="36.6" height="36.6"/>
					<rect x="109.7" y="329.1" class="st3" width="36.6" height="36.6"/>
					<rect x="146.2" y="329.1" class="st3" width="36.6" height="36.6"/>
					<rect x="182.8" y="329.1" class="st3" width="36.6" height="36.6"/>
					<rect x="219.4" y="329.1" class="st3" width="36.6" height="36.6"/>
					<rect x="255.9" y="329.1" class="st3" width="36.6" height="36.6"/>
					<rect x="292.5" y="329.1" class="st3" width="36.6" height="36.6"/>
					<rect x="329.1" y="329.1" class="st3" width="36.6" height="36.6"/>
					<rect x="365.6" y="329.1" class="st3" width="36.6" height="36.6"/>
					<rect x="402.2" y="329.1" class="st3" width="36.6" height="36.6"/>
					<rect x="475.3" y="329.1" width="36.6" height="36.6"/>
					<rect x="511.9" y="329.1" width="36.6" height="36.6"/>
					<rect x="548.4" y="329.1" class="st3" width="36.6" height="36.6"/>
					<rect x="585" y="329.1" class="st3" width="36.6" height="36.6"/>
				</g>
				<g>
					<rect x="36.6" y="365.6" class="st3" width="36.6" height="36.6"/>
					<rect x="475.3" y="365.6" width="36.6" height="36.6"/>
					<rect x="511.9" y="365.6" class="st3" width="36.6" height="36.6"/>
					<rect x="548.4" y="365.6" class="st3" width="36.6" height="36.6"/>
				</g>
				<g>
					<rect x="36.6" y="402.2" class="st3" width="36.6" height="36.6"/>
					<rect x="182.8" y="402.2" class="st3" width="36.6" height="36.6"/>
					<rect x="329.1" y="402.2" class="st3" width="36.6" height="36.6"/>
					<rect x="475.3" y="402.2" width="36.6" height="36.6"/>
					<rect x="511.9" y="402.2" class="st3" width="36.6" height="36.6"/>
				</g>
				<g>
					<rect x="36.6" y="438.7" class="st3" width="36.6" height="36.6"/>
					<rect x="219.4" y="438.7" class="st3" width="36.6" height="36.6"/>
					<rect x="255.9" y="438.7" class="st3" width="36.6" height="36.6"/>
					<rect x="292.5" y="438.7" class="st3" width="36.6" height="36.6"/>
					<rect x="475.3" y="438.7" width="36.6" height="36.6"/>
					<rect x="511.9" y="438.7" class="st3" width="36.6" height="36.6"/>
				</g>
				<g>
					<rect x="36.6" y="475.3" class="st3" width="36.6" height="36.6"/>
					<rect x="475.3" y="475.3" width="36.6" height="36.6"/>
					<rect x="511.9" y="475.3" class="st3" width="36.6" height="36.6"/>
				</g>
				<g>
					<rect x="36.6" y="511.9" class="st3" width="36.6" height="36.6"/>
					<rect x="73.1" y="511.9" width="36.6" height="36.6"/>
					<rect x="109.7" y="511.9" width="36.6" height="36.6"/>
					<rect x="146.2" y="511.9" width="36.6" height="36.6"/>
					<rect x="182.8" y="511.9" width="36.6" height="36.6"/>
					<rect x="219.4" y="511.9" width="36.6" height="36.6"/>
					<rect x="255.9" y="511.9" width="36.6" height="36.6"/>
					<rect x="292.5" y="511.9" width="36.6" height="36.6"/>
					<rect x="329.1" y="511.9" width="36.6" height="36.6"/>
					<rect x="365.6" y="511.9" width="36.6" height="36.6"/>
					<rect x="402.2" y="511.9" width="36.6" height="36.6"/>
					<rect x="438.7" y="511.9" width="36.6" height="36.6"/>
					<rect x="475.3" y="511.9" class="st3" width="36.6" height="36.6"/>
					<rect x="511.9" y="511.9" class="st3" width="36.6" height="36.6"/>
				</g>
				<g>
					<rect x="36.6" y="548.4" class="st3" width="36.6" height="36.6"/>
					<rect x="73.1" y="548.4" class="st3" width="36.6" height="36.6"/>
					<rect x="109.7" y="548.4" width="36.6" height="36.6"/>
					<rect x="146.2" y="548.4" width="36.6" height="36.6"/>
					<rect x="182.8" y="548.4" width="36.6" height="36.6"/>
					<rect x="219.4" y="548.4" class="st3" width="36.6" height="36.6"/>
					<rect x="255.9" y="548.4" class="st3" width="36.6" height="36.6"/>
					<rect x="292.5" y="548.4" class="st3" width="36.6" height="36.6"/>
					<rect x="329.1" y="548.4" width="36.6" height="36.6"/>
					<rect x="365.6" y="548.4" width="36.6" height="36.6"/>
					<rect x="402.2" y="548.4" width="36.6" height="36.6"/>
					<rect x="438.7" y="548.4" class="st3" width="36.6" height="36.6"/>
					<rect x="475.3" y="548.4" class="st3" width="36.6" height="36.6"/>
				</g>
				<g>
					<rect x="73.1" y="585" class="st3" width="36.6" height="36.6"/>
					<rect x="109.7" y="585" class="st3" width="36.6" height="36.6"/>
					<rect x="146.2" y="585" class="st3" width="36.6" height="36.6"/>
					<rect x="182.8" y="585" class="st3" width="36.6" height="36.6"/>
					<rect x="219.4" y="585" class="st3" width="36.6" height="36.6"/>
					<rect x="292.5" y="585" class="st3" width="36.6" height="36.6"/>
					<rect x="329.1" y="585" class="st3" width="36.6" height="36.6"/>
					<rect x="365.6" y="585" class="st3" width="36.6" height="36.6"/>
					<rect x="402.2" y="585" class="st3" width="36.6" height="36.6"/>
					<rect x="438.7" y="585" class="st3" width="36.6" height="36.6"/>
				</g>
			</g>
		</g>
	</g>
</g>
<g id="Layer_2">
</g>
</svg>
