<?xml version="1.0" encoding="utf-8"?>
<!-- Generator: Adobe Illustrator 26.3.1, SVG Export Plug-In . SVG Version: 6.00 Build 0)  -->
<svg version="1.1" xmlns="http://www.w3.org/2000/svg" xmlns:xlink="http://www.w3.org/1999/xlink" x="0px" y="0px"
	 viewBox="0 0 3839 788.8" style="enable-background:new 0 0 3839 788.8;" xml:space="preserve">
<style type="text/css">
	.st0{display:none;}
	.st1{display:inline;fill:#9F00A8;}
	.st2{display:inline;}
	.st3{fill:#FFFFFF;}
	.st4{fill:#2C376B;}
	.st5{fill:#5FA5F0;}
	.st6{fill:#1B1C2B;}
	.st7{display:inline;fill:#FFFFFF;}
	.st8{display:inline;fill:#2C376B;}
	.st9{display:inline;opacity:0.39;}
	.st10{fill:#606060;stroke:#FFFFFF;stroke-width:0.9229;stroke-miterlimit:10;}
	.st11{fill:#2C376B;stroke:#5364A5;stroke-miterlimit:10;}
	.st12{fill:#474747;}
	.st13{fill:#BFBFBF;}
</style>
<g id="tic80">
	<g>
		<g>
			<g>
				<rect x="52.6" class="st12" width="52.6" height="52.6"/>
				<rect x="105.2" class="st12" width="52.6" height="52.6"/>
				<rect x="157.8" class="st12" width="52.6" height="52.6"/>
				<rect x="210.4" class="st12" width="52.6" height="52.6"/>
				<rect x="262.9" class="st12" width="52.6" height="52.6"/>
				<rect x="315.5" class="st12" width="52.6" height="52.6"/>
				<rect x="368.1" class="st12" width="52.6" height="52.6"/>
				<rect x="420.7" class="st12" width="52.6" height="52.6"/>
				<rect x="473.3" class="st12" width="52.6" height="52.6"/>
				<rect x="525.9" class="st12" width="52.6" height="52.6"/>
			</g>
			<g>
				<rect y="52.6" class="st13" width="52.6" height="52.6"/>
				<rect x="52.6" y="52.6" class="st13" width="52.6" height="52.6"/>
				<rect x="105.2" y="52.6" class="st13" width="52.6" height="52.6"/>
				<rect x="157.8" y="52.6" class="st13" width="52.6" height="52.6"/>
				<rect x="210.4" y="52.6" class="st13" width="52.6" height="52.6"/>
				<rect x="262.9" y="52.6" class="st13" width="52.6" height="52.6"/>
				<rect x="315.5" y="52.6" class="st13" width="52.6" height="52.6"/>
				<rect x="368.1" y="52.6" class="st13" width="52.6" height="52.6"/>
				<rect x="420.7" y="52.6" class="st13" width="52.6" height="52.6"/>
				<rect x="473.3" y="52.6" class="st13" width="52.6" height="52.6"/>
				<rect x="525.9" y="52.6" class="st13" width="52.6" height="52.6"/>
				<rect x="578.5" y="52.6" width="52.6" height="52.6"/>
			</g>
			<g>
				<rect y="105.2" class="st13" width="52.6" height="52.6"/>
				<rect x="52.6" y="105.2" class="st12" width="52.6" height="52.6"/>
				<rect x="105.2" y="105.2" class="st12" width="52.6" height="52.6"/>
				<rect x="157.8" y="105.2" class="st12" width="52.6" height="52.6"/>
				<rect x="210.4" y="105.2" class="st12" width="52.6" height="52.6"/>
				<rect x="262.9" y="105.2" class="st12" width="52.6" height="52.6"/>
				<rect x="315.5" y="105.2" class="st12" width="52.6" height="52.6"/>
				<rect x="368.1" y="105.2" class="st12" width="52.6" height="52.6"/>
				<rect x="420.7" y="105.2" class="st12" width="52.6" height="52.6"/>
				<rect x="473.3" y="105.2" class="st12" width="52.6" height="52.6"/>
				<rect x="525.9" y="105.2" class="st13" width="52.6" height="52.6"/>
				<rect x="578.5" y="105.2" width="52.6" height="52.6"/>
			</g>
			<g>
				<rect y="157.8" class="st13" width="52.6" height="52.6"/>
				<rect x="52.6" y="157.8" class="st3" width="52.6" height="52.6"/>
				<rect x="105.2" y="157.8" class="st3" width="52.6" height="52.6"/>
				<rect x="157.8" y="157.8" class="st3" width="52.6" height="52.6"/>
				<rect x="210.4" y="157.8" class="st3" width="52.6" height="52.6"/>
				<rect x="262.9" y="157.8" class="st3" width="52.6" height="52.6"/>
				<rect x="315.5" y="157.8" class="st3" width="52.6" height="52.6"/>
				<rect x="368.1" y="157.8" class="st3" width="52.6" height="52.6"/>
				<rect x="420.7" y="157.8" class="st3" width="52.6" height="52.6"/>
				<rect x="473.3" y="157.8" class="st3" width="52.6" height="52.6"/>
				<rect x="525.9" y="157.8" class="st13" width="52.6" height="52.6"/>
				<rect x="578.5" y="157.8" width="52.6" height="52.6"/>
			</g>
			<g>
				<rect y="210.4" class="st13" width="52.6" height="52.6"/>
				<rect x="52.6" y="210.4" class="st3" width="52.6" height="52.6"/>
				<rect x="105.2" y="210.4" class="st3" width="52.6" height="52.6"/>
				<rect x="157.8" y="210.4" width="52.6" height="52.6"/>
				<rect x="210.4" y="210.4" class="st3" width="52.6" height="52.6"/>
				<rect x="262.9" y="210.4" class="st3" width="52.6" height="52.6"/>
				<rect x="315.5" y="210.4" class="st3" width="52.6" height="52.6"/>
				<rect x="368.1" y="210.4" width="52.6" height="52.6"/>
				<rect x="420.7" y="210.4" class="st3" width="52.6" height="52.6"/>
				<rect x="473.3" y="210.4" class="st3" width="52.6" height="52.6"/>
				<rect x="525.9" y="210.4" class="st13" width="52.6" height="52.6"/>
				<rect x="578.5" y="210.4" width="52.6" height="52.6"/>
				<rect x="683.7" y="210.4" width="52.6" height="52.6"/>
			</g>
			<g>
				<rect y="262.9" class="st13" width="52.6" height="52.6"/>
				<rect x="52.6" y="262.9" class="st3" width="52.6" height="52.6"/>
				<rect x="105.2" y="262.9" class="st3" width="52.6" height="52.6"/>
				<rect x="157.8" y="262.9" width="52.6" height="52.6"/>
				<rect x="210.4" y="262.9" class="st3" width="52.6" height="52.6"/>
				<rect x="262.9" y="262.9" class="st3" width="52.6" height="52.6"/>
				<rect x="315.5" y="262.9" class="st3" width="52.6" height="52.6"/>
				<rect x="368.1" y="262.9" width="52.6" height="52.6"/>
				<rect x="420.7" y="262.9" class="st3" width="52.6" height="52.6"/>
				<rect x="473.3" y="262.9" class="st3" width="52.6" height="52.6"/>
				<rect x="525.9" y="262.9" class="st13" width="52.6" height="52.6"/>
				<rect x="578.5" y="262.9" width="52.6" height="52.6"/>
				<rect x="683.7" y="262.9" width="52.6" height="52.6"/>
			</g>
			<g>
				<rect y="315.5" class="st13" width="52.6" height="52.6"/>
				<rect x="52.6" y="315.5" class="st3" width="52.6" height="52.6"/>
				<rect x="105.2" y="315.5" class="st3" width="52.6" height="52.6"/>
				<rect x="157.8" y="315.5" width="52.6" height="52.6"/>
				<rect x="210.4" y="315.5" class="st3" width="52.6" height="52.6"/>
				<rect x="262.9" y="315.5" class="st3" width="52.6" height="52.6"/>
				<rect x="315.5" y="315.5" class="st3" width="52.6" height="52.6"/>
				<rect x="368.1" y="315.5" width="52.6" height="52.6"/>
				<rect x="420.7" y="315.5" class="st3" width="52.6" height="52.6"/>
				<rect x="473.3" y="315.5" class="st3" width="52.6" height="52.6"/>
				<rect x="525.9" y="315.5" class="st13" width="52.6" height="52.6"/>
				<rect x="578.5" y="315.5" width="52.6" height="52.6"/>
				<rect x="683.7" y="315.5" width="52.6" height="52.6"/>
			</g>
			<g>
				<rect y="368.1" class="st13" width="52.6" height="52.6"/>
				<rect x="52.6" y="368.1" class="st3" width="52.6" height="52.6"/>
				<rect x="105.2" y="368.1" class="st3" width="52.6" height="52.6"/>
				<rect x="157.8" y="368.1" class="st3" width="52.6" height="52.6"/>
				<rect x="210.4" y="368.1" class="st3" width="52.6" height="52.6"/>
				<rect x="262.9" y="368.1" class="st3" width="52.6" height="52.6"/>
				<rect x="315.5" y="368.1" class="st3" width="52.6" height="52.6"/>
				<rect x="368.1" y="368.1" class="st3" width="52.6" height="52.6"/>
				<rect x="420.7" y="368.1" class="st3" width="52.6" height="52.6"/>
				<rect x="473.3" y="368.1" class="st3" width="52.6" height="52.6"/>
				<rect x="525.9" y="368.1" class="st13" width="52.6" height="52.6"/>
				<rect x="578.5" y="368.1" width="52.6" height="52.6"/>
				<rect x="631.1" y="368.1" width="52.6" height="52.6"/>
			</g>
			<g>
				<rect y="420.7" class="st13" width="52.6" height="52.6"/>
				<rect x="52.6" y="420.7" class="st13" width="52.6" height="52.6"/>
				<rect x="105.2" y="420.7" class="st13" width="52.6" height="52.6"/>
				<rect x="157.8" y="420.7" class="st13" width="52.6" height="52.6"/>
				<rect x="210.4" y="420.7" class="st13" width="52.6" height="52.6"/>
				<rect x="262.9" y="420.7" class="st13" width="52.6" height="52.6"/>
				<rect x="315.5" y="420.7" class="st13" width="52.6" height="52.6"/>
				<rect x="368.1" y="420.7" class="st13" width="52.6" height="52.6"/>
				<rect x="420.7" y="420.7" class="st13" width="52.6" height="52.6"/>
				<rect x="473.3" y="420.7" class="st13" width="52.6" height="52.6"/>
				<rect x="525.9" y="420.7" class="st13" width="52.6" height="52.6"/>
				<rect x="578.5" y="420.7" width="52.6" height="52.6"/>
			</g>
			<g>
				<rect y="473.3" class="st13" width="52.6" height="52.6"/>
				<rect x="52.6" y="473.3" class="st13" width="52.6" height="52.6"/>
				<rect x="105.2" y="473.3" class="st13" width="52.6" height="52.6"/>
				<rect x="157.8" y="473.3" class="st3" width="52.6" height="52.6"/>
				<rect x="210.4" y="473.3" class="st13" width="52.6" height="52.6"/>
				<rect x="262.9" y="473.3" class="st13" width="52.6" height="52.6"/>
				<rect x="315.5" y="473.3" class="st13" width="52.6" height="52.6"/>
				<rect x="368.1" y="473.3" class="st3" width="52.6" height="52.6"/>
				<rect x="420.7" y="473.3" class="st13" width="52.6" height="52.6"/>
				<rect x="473.3" y="473.3" class="st13" width="52.6" height="52.6"/>
				<rect x="525.9" y="473.3" class="st13" width="52.6" height="52.6"/>
				<rect x="578.5" y="473.3" width="52.6" height="52.6"/>
			</g>
			<g>
				<rect y="525.9" class="st13" width="52.6" height="52.6"/>
				<rect x="52.6" y="525.9" class="st13" width="52.6" height="52.6"/>
				<rect x="105.2" y="525.9" class="st13" width="52.6" height="52.6"/>
				<rect x="157.8" y="525.9" class="st13" width="52.6" height="52.6"/>
				<rect x="210.4" y="525.9" class="st3" width="52.6" height="52.6"/>
				<rect x="262.9" y="525.9" class="st3" width="52.6" height="52.6"/>
				<rect x="315.5" y="525.9" class="st3" width="52.6" height="52.6"/>
				<rect x="368.1" y="525.9" class="st13" width="52.6" height="52.6"/>
				<rect x="420.7" y="525.9" class="st13" width="52.6" height="52.6"/>
				<rect x="473.3" y="525.9" class="st13" width="52.6" height="52.6"/>
				<rect x="525.9" y="525.9" class="st13" width="52.6" height="52.6"/>
				<rect x="578.5" y="525.9" width="52.6" height="52.6"/>
			</g>
			<g>
				<rect y="578.5" class="st13" width="52.6" height="52.6"/>
				<rect x="52.6" y="578.5" class="st13" width="52.6" height="52.6"/>
				<rect x="105.2" y="578.5" class="st13" width="52.6" height="52.6"/>
				<rect x="157.8" y="578.5" class="st13" width="52.6" height="52.6"/>
				<rect x="210.4" y="578.5" class="st13" width="52.6" height="52.6"/>
				<rect x="262.9" y="578.5" class="st13" width="52.6" height="52.6"/>
				<rect x="315.5" y="578.5" class="st13" width="52.6" height="52.6"/>
				<rect x="368.1" y="578.5" class="st13" width="52.6" height="52.6"/>
				<rect x="420.7" y="578.5" class="st13" width="52.6" height="52.6"/>
				<rect x="473.3" y="578.5" class="st13" width="52.6" height="52.6"/>
				<rect x="525.9" y="578.5" class="st13" width="52.6" height="52.6"/>
				<rect x="578.5" y="578.5" width="52.6" height="52.6"/>
			</g>
			<g>
				<rect y="631.1" class="st12" width="52.6" height="52.6"/>
				<rect x="52.6" y="631.1" class="st12" width="52.6" height="52.6"/>
				<rect x="105.2" y="631.1" class="st12" width="52.6" height="52.6"/>
				<rect x="157.8" y="631.1" class="st12" width="52.6" height="52.6"/>
				<rect x="210.4" y="631.1" class="st12" width="52.6" height="52.6"/>
				<rect x="262.9" y="631.1" class="st12" width="52.6" height="52.6"/>
				<rect x="315.5" y="631.1" class="st12" width="52.6" height="52.6"/>
				<rect x="368.1" y="631.1" class="st12" width="52.6" height="52.6"/>
				<rect x="420.7" y="631.1" class="st12" width="52.6" height="52.6"/>
				<rect x="473.3" y="631.1" class="st12" width="52.6" height="52.6"/>
				<rect x="525.9" y="631.1" class="st12" width="52.6" height="52.6"/>
			</g>
			<g>
				<rect x="52.6" y="683.7" width="52.6" height="52.6"/>
				<rect x="105.2" y="683.7" width="52.6" height="52.6"/>
				<rect x="157.8" y="683.7" width="52.6" height="52.6"/>
				<rect x="368.1" y="683.7" width="52.6" height="52.6"/>
				<rect x="420.7" y="683.7" width="52.6" height="52.6"/>
				<rect x="473.3" y="683.7" width="52.6" height="52.6"/>
			</g>
		</g>
		<g>
			<g>
				<rect x="1209.5" y="52.6" width="52.6" height="52.6"/>
				<rect x="1157" y="52.6" width="52.6" height="52.6"/>
				<rect x="1051.8" y="52.6" width="52.6" height="52.6"/>
				<rect x="999.2" y="52.6" width="52.6" height="52.6"/>
				<rect x="946.6" y="52.6" width="52.6" height="52.6"/>
				<rect x="1262.1" y="52.6" width="52.6" height="52.6"/>
				<rect x="1419.9" y="52.6" width="52.6" height="52.6"/>
				<rect x="1472.5" y="52.6" width="52.6" height="52.6"/>
				<rect x="1840.6" y="52.6" width="52.6" height="52.6"/>
				<rect x="1893.2" y="52.6" width="52.6" height="52.6"/>
				<rect x="2103.6" y="52.6" width="52.6" height="52.6"/>
				<rect x="2156.2" y="52.6" width="52.6" height="52.6"/>
				<rect x="1209.5" y="105.2" width="52.6" height="52.6"/>
				<rect x="999.2" y="105.2" width="52.6" height="52.6"/>
				<rect x="1367.3" y="105.2" width="52.6" height="52.6"/>
				<rect x="1788" y="105.2" width="52.6" height="52.6"/>
				<rect x="1945.8" y="105.2" width="52.6" height="52.6"/>
				<rect x="2051" y="105.2" width="52.6" height="52.6"/>
				<rect x="2208.7" y="105.2" width="52.6" height="52.6"/>
				<rect x="1209.5" y="157.8" width="52.6" height="52.6"/>
				<rect x="999.2" y="157.8" width="52.6" height="52.6"/>
				<rect x="1367.3" y="157.8" width="52.6" height="52.6"/>
				<rect x="1577.7" y="157.8" width="52.6" height="52.6"/>
				<rect x="1630.3" y="157.8" width="52.6" height="52.6"/>
				<rect x="1682.8" y="157.8" width="52.6" height="52.6"/>
				<rect x="1840.6" y="157.8" width="52.6" height="52.6"/>
				<rect x="1893.2" y="157.8" width="52.6" height="52.6"/>
				<rect x="2051" y="157.8" width="52.6" height="52.6"/>
				<rect x="2208.7" y="157.8" width="52.6" height="52.6"/>
				<rect x="1209.5" y="210.4" width="52.6" height="52.6"/>
				<rect x="999.2" y="210.4" width="52.6" height="52.6"/>
				<rect x="1367.3" y="210.4" width="52.6" height="52.6"/>
				<rect x="1788" y="210.4" width="52.6" height="52.6"/>
				<rect x="1945.8" y="210.4" width="52.6" height="52.6"/>
				<rect x="2051" y="210.4" width="52.6" height="52.6"/>
				<rect x="2208.7" y="210.4" width="52.6" height="52.6"/>
				<rect x="1209.5" y="262.9" width="52.6" height="52.6"/>
				<rect x="1157" y="262.9" width="52.6" height="52.6"/>
				<rect x="999.2" y="262.9" width="52.6" height="52.6"/>
				<rect x="1262.1" y="262.9" width="52.6" height="52.6"/>
				<rect x="1419.9" y="262.9" width="52.6" height="52.6"/>
				<rect x="1472.5" y="262.9" width="52.6" height="52.6"/>
				<rect x="1840.6" y="262.9" width="52.6" height="52.6"/>
				<rect x="1893.2" y="262.9" width="52.6" height="52.6"/>
				<rect x="2103.6" y="262.9" width="52.6" height="52.6"/>
				<rect x="2156.2" y="262.9" width="52.6" height="52.6"/>
			</g>
			<g>
				<g>
					<rect x="946.6" y="420.7" width="52.6" height="52.6"/>
					<rect x="1104.4" y="420.7" width="52.6" height="52.6"/>
					<rect x="946.6" y="473.3" width="52.6" height="52.6"/>
					<rect x="999.2" y="473.3" width="52.6" height="52.6"/>
					<rect x="1209.5" y="473.3" width="52.6" height="52.6"/>
					<rect x="1262.1" y="473.3" width="52.6" height="52.6"/>
					<rect x="1314.7" y="473.3" width="52.6" height="52.6"/>
					<rect x="1472.5" y="473.3" width="52.6" height="52.6"/>
					<rect x="1630.3" y="473.3" width="52.6" height="52.6"/>
					<rect x="946.6" y="525.9" width="52.6" height="52.6"/>
					<rect x="1104.4" y="525.9" width="52.6" height="52.6"/>
					<rect x="1209.5" y="525.9" width="52.6" height="52.6"/>
					<rect x="1367.3" y="525.9" width="52.6" height="52.6"/>
					<rect x="1472.5" y="525.9" width="52.6" height="52.6"/>
					<rect x="1630.3" y="525.9" width="52.6" height="52.6"/>
					<rect x="946.6" y="578.5" width="52.6" height="52.6"/>
					<rect x="1104.4" y="578.5" width="52.6" height="52.6"/>
					<rect x="1209.5" y="578.5" width="52.6" height="52.6"/>
					<rect x="1367.3" y="578.5" width="52.6" height="52.6"/>
					<rect x="1472.5" y="578.5" width="52.6" height="52.6"/>
					<rect x="1630.3" y="578.5" width="52.6" height="52.6"/>
					<rect x="999.2" y="631.1" width="52.6" height="52.6"/>
					<rect x="1104.4" y="631.1" width="52.6" height="52.6"/>
					<rect x="1209.5" y="631.1" width="52.6" height="52.6"/>
					<rect x="1367.3" y="631.1" width="52.6" height="52.6"/>
					<rect x="1525.1" y="631.1" width="52.6" height="52.6"/>
					<rect x="1577.7" y="631.1" width="52.6" height="52.6"/>
					<rect x="1630.3" y="631.1" width="52.6" height="52.6"/>
					<rect x="1630.3" y="683.7" width="52.6" height="52.6"/>
					<rect x="1525.1" y="736.2" width="52.6" height="52.6"/>
					<rect x="1577.7" y="736.2" width="52.6" height="52.6"/>
				</g>
				<g>
					<rect x="3260.5" y="420.7" width="52.6" height="52.6"/>
					<rect x="1998.4" y="473.3" width="52.6" height="52.6"/>
					<rect x="2051" y="473.3" width="52.6" height="52.6"/>
					<rect x="2208.7" y="473.3" width="52.6" height="52.6"/>
					<rect x="2261.3" y="473.3" width="52.6" height="52.6"/>
					<rect x="2419.1" y="473.3" width="52.6" height="52.6"/>
					<rect x="2471.7" y="473.3" width="52.6" height="52.6"/>
					<rect x="2524.3" y="473.3" width="52.6" height="52.6"/>
					<rect x="2576.9" y="473.3" width="52.6" height="52.6"/>
					<rect x="2734.6" y="473.3" width="52.6" height="52.6"/>
					<rect x="2787.2" y="473.3" width="52.6" height="52.6"/>
					<rect x="2839.8" y="473.3" width="52.6" height="52.6"/>
					<rect x="2997.6" y="473.3" width="52.6" height="52.6"/>
					<rect x="3155.3" y="473.3" width="52.6" height="52.6"/>
					<rect x="3260.5" y="473.3" width="52.6" height="52.6"/>
					<rect x="3313.1" y="473.3" width="52.6" height="52.6"/>
					<rect x="3470.9" y="473.3" width="52.6" height="52.6"/>
					<rect x="3523.5" y="473.3" width="52.6" height="52.6"/>
					<rect x="3681.2" y="473.3" width="52.6" height="52.6"/>
					<rect x="3786.4" y="473.3" width="52.6" height="52.6"/>
					<rect x="1945.8" y="525.9" width="52.6" height="52.6"/>
					<rect x="2156.2" y="525.9" width="52.6" height="52.6"/>
					<rect x="2313.9" y="525.9" width="52.6" height="52.6"/>
					<rect x="2419.1" y="525.9" width="52.6" height="52.6"/>
					<rect x="2524.3" y="525.9" width="52.6" height="52.6"/>
					<rect x="2629.5" y="525.9" width="52.6" height="52.6"/>
					<rect x="2734.6" y="525.9" width="52.6" height="52.6"/>
					<rect x="2892.4" y="525.9" width="52.6" height="52.6"/>
					<rect x="2997.6" y="525.9" width="52.6" height="52.6"/>
					<rect x="3155.3" y="525.9" width="52.6" height="52.6"/>
					<rect x="3260.5" y="525.9" width="52.6" height="52.6"/>
					<rect x="3418.3" y="525.9" width="52.6" height="52.6"/>
					<rect x="3523.5" y="525.9" width="52.6" height="52.6"/>
					<rect x="3576.1" y="525.9" width="52.6" height="52.6"/>
					<rect x="3681.2" y="525.9" width="52.6" height="52.6"/>
					<rect x="3733.8" y="525.9" width="52.6" height="52.6"/>
					<rect x="1945.8" y="578.5" width="52.6" height="52.6"/>
					<rect x="2156.2" y="578.5" width="52.6" height="52.6"/>
					<rect x="2313.9" y="578.5" width="52.6" height="52.6"/>
					<rect x="2419.1" y="578.5" width="52.6" height="52.6"/>
					<rect x="2524.3" y="578.5" width="52.6" height="52.6"/>
					<rect x="2629.5" y="578.5" width="52.6" height="52.6"/>
					<rect x="2734.6" y="578.5" width="52.6" height="52.6"/>
					<rect x="2892.4" y="578.5" width="52.6" height="52.6"/>
					<rect x="2997.6" y="578.5" width="52.6" height="52.6"/>
					<rect x="3155.3" y="578.5" width="52.6" height="52.6"/>
					<rect x="3260.5" y="578.5" width="52.6" height="52.6"/>
					<rect x="3418.3" y="578.5" width="52.6" height="52.6"/>
					<rect x="3470.9" y="578.5" width="52.6" height="52.6"/>
					<rect x="3681.2" y="578.5" width="52.6" height="52.6"/>
					<rect x="1998.4" y="631.1" width="52.6" height="52.6"/>
					<rect x="2051" y="631.1" width="52.6" height="52.6"/>
					<rect x="2208.7" y="631.1" width="52.6" height="52.6"/>
					<rect x="2261.3" y="631.1" width="52.6" height="52.6"/>
					<rect x="2419.1" y="631.1" width="52.6" height="52.6"/>
					<rect x="2524.3" y="631.1" width="52.6" height="52.6"/>
					<rect x="2629.5" y="631.1" width="52.6" height="52.6"/>
					<rect x="2734.6" y="631.1" width="52.6" height="52.6"/>
					<rect x="2787.2" y="631.1" width="52.6" height="52.6"/>
					<rect x="2839.8" y="631.1" width="52.6" height="52.6"/>
					<rect x="3050.2" y="631.1" width="52.6" height="52.6"/>
					<rect x="3102.8" y="631.1" width="52.6" height="52.6"/>
					<rect x="3155.3" y="631.1" width="52.6" height="52.6"/>
					<rect x="3313.1" y="631.1" width="52.6" height="52.6"/>
					<rect x="3470.9" y="631.1" width="52.6" height="52.6"/>
					<rect x="3523.5" y="631.1" width="52.6" height="52.6"/>
					<rect x="3681.2" y="631.1" width="52.6" height="52.6"/>
					<rect x="2734.6" y="683.7" width="52.6" height="52.6"/>
					<rect x="2734.6" y="736.2" width="52.6" height="52.6"/>
				</g>
			</g>
		</g>
	</g>
</g>
<g id="Layer_2">
</g>
</svg>
