<?xml version="1.0" encoding="utf-8"?>
<!-- Generator: Adobe Illustrator 26.5.0, SVG Export Plug-In . SVG Version: 6.00 Build 0)  -->
<svg version="1.1" id="Layer_1" xmlns="http://www.w3.org/2000/svg" xmlns:xlink="http://www.w3.org/1999/xlink" x="0px" y="0px"
	 viewBox="0 0 2237.8 2159" style="enable-background:new 0 0 2237.8 2159;" xml:space="preserve">
<style type="text/css">
	.st0{display:none;}
	.st1{display:inline;}
	.st2{fill:none;stroke:#231F20;stroke-width:1.9023;stroke-miterlimit:10;}
	.st3{fill:#3E96FF;}
	.st4{fill:#FF3C22;}
	.st5{fill:#3C8929;}
	.st6{fill:#FFC200;}
	.st7{font-family:'TimesNewRomanPSMT';}
	.st8{font-size:126.9713px;}
	.st9{letter-spacing:-8.4;}
	.st10{letter-spacing:-11.2;}
	.st11{letter-spacing:-5.6;}
	.st12{letter-spacing:-12.6;}
	.st13{fill:none;stroke:#231F20;stroke-width:1.2267;stroke-miterlimit:10;}
	.st14{fill:none;stroke:#231F20;stroke-width:1.6305;stroke-miterlimit:10;}
	.st15{fill:none;stroke:#231F20;stroke-width:1.5509;stroke-miterlimit:10;}
	.st16{fill:none;stroke:#231F20;stroke-width:4.1843;stroke-miterlimit:10;}
	.st17{fill:none;stroke:#231F20;stroke-width:4.3996;stroke-miterlimit:10;}
	.st18{fill:none;stroke:#231F20;stroke-width:3.8067;stroke-miterlimit:10;}
	.st19{fill:#FFFFFF;}
</style>
<g class="st0">
	<g class="st1">
		<g>
			<g>
				<g>
					<polygon points="1018.3,2157.4 1026.1,2137.8 994.9,2138.5 987,2158.1 					"/>
					<polygon points="957,2106.6 950.2,2123.6 973.9,2123.1 980.7,2106.1 					"/>
				</g>
			</g>
		</g>
	</g>
	<g class="st1">
		<text transform="matrix(0 -0.7146 1 0 340.5937 54.8231)"><tspan x="0" y="0" class="st7 st8 st9">M</tspan><tspan x="104.1" y="0" class="st7 st8 st10">i</tspan><tspan x="128.1" y="0" class="st7 st8 st11">c</tspan><tspan x="178.2" y="0" class="st7 st8 st9">ro</tspan><tspan x="266.5" y="0" class="st7 st8 st11">s</tspan><tspan x="309.7" y="0" class="st7 st8 st12">o</tspan><tspan x="359.3" y="0" class="st7 st8 st9">ft.</tspan></text>
		<path d="M746.4,82.7c0,0-0.5,26.6-17,26.6v4.7h36.1V86.8"/>
		<g>
			<path d="M585.4,82.7c0,7.6-1,26.6,13.2,26.6l0,4.7h-24.1V86.8"/>
			<path d="M557.5,82.7c0,7.6,1,26.6-13.2,26.6l0,4.7h24.1V86.8"/>
		</g>
		<g>
			<path d="M1263.5-218.2v105.1h-3.8c-1.4-24.4-6.6-52.4-13.7-69.2c-7.1-16.7-17-24.6-26.8-24.6c-7.1,0-23.7,12.3-23.7,61.8
				c0,21.6,4.3,39.9,27.7,64.4c23.8,25,46.5,36.3,46.5,114.5c0,38.1-19.6,87-45.2,87c-21.1,0-30.4-15.9-34.5-15.9
				c-3.7,0-6.5,5.6-8.4,16.7h-3.8V14.6h3.8c0,29.5,13.9,94.6,41.1,94.6c18.7,0,26.4-41.4,26.4-56.2c0-25.4-2-54.5-31.3-81.5
				c-26.5-24.5-40.7-45.7-40.7-99.6c0-41,14-90.6,41.6-90.6c10.8,0,15.1,4.5,25.7,13.6c2.7,2.4,5.1,3.6,7.1,3.6
				c3.6,0,6.3-5.6,8.1-16.7H1263.5z"/>
			<path d="M797.6-214.7h-37.7l-0.4,16.7h-13v294h5.5l-0.5,18.1h46.2c75.5,0,76.5-164.3,76.5-164.3S873.1-214.7,797.6-214.7z
				 M787.6,104.5c0,0-12.7-0.6-12.7-4.6v-300.7c0-4,12.7-4.6,12.7-4.6c59.2,0,58.6,152.9,58.6,152.9v4
				C846.3-48.4,846.9,104.5,787.6,104.5z"/>
			<rect x="715.6" y="-193" width="8.6" height="310.7"/>
			<g>
				<path d="M620.7,82.7c0,0,2.3,26.6,18.8,26.6v4.7h-24.1V86.8"/>
				<path d="M612,82.7c0,0-2.3,26.6-18.8,26.6v4.7h24.1V86.8"/>
				<rect x="612" y="-214.7" transform="matrix(-1 -1.224647e-16 1.224647e-16 -1 1232.7335 -121.4462)" width="8.6" height="308"/>
			</g>
			<polygon points="632.9,-214.7 613.6,-214.7 612,-209.8 612,-182.5 715.6,117.7 724.3,90.7 724.3,50.2 			"/>
			<rect x="557.5" y="-214.7" width="27.9" height="328.7"/>
			<path d="M999.9-169.9c-14.3-33.5-31.3-46-51.1-46.4c-19.8,0.4-36.8,12.9-51.1,46.4c-14,33-23,74.6-23.6,121.4
				c0.6,46.8,9.5,88.4,23.6,121.4c14.3,33.5,31.3,46,51.1,46.4c19.8-0.4,36.8-12.9,51.1-46.4c14-33,23-74.6,23.6-121.4
				C1022.9-95.3,1013.9-136.9,999.9-169.9z M952.4,111.1c-2.3,1-5,1-7.3,0c-18.7-7.7-40.2-58.9-40.5-159.6
				c0.3-100.8,21.8-151.9,40.5-159.6c2.3-1,5-1,7.3,0c18.7,7.7,40.2,58.9,40.5,159.6C992.6,52.3,971.1,103.4,952.4,111.1z"/>
			<g>
				<g>
					<polygon points="1129,119.8 1179.7,-208.4 1172,-207.7 1121.4,119.8 					"/>
					<polygon points="1060.7,119.8 1106.1,-173.7 1098.5,-173.7 1053.1,119.8 					"/>
				</g>
				<g>
					<g>
						<g>
							<polyline points="1106.5,-201 1139.3,53 1129,119.8 1121.4,119.8 1078.3,-200.2 							"/>
						</g>
					</g>
					<g>
						<polyline points="1038.2,-201 1071,53 1060.7,119.8 1053.1,119.8 1010,-200.2 						"/>
					</g>
				</g>
			</g>
			<g>
				<g>
					<polygon points="492.6,119.8 551.9,-263.6 543,-262.8 483.8,119.8 					"/>
					<polygon points="412.9,119.8 465.9,-223.1 457.1,-223.1 404,119.8 					"/>
				</g>
				<g>
					<g>
						<g>
							<polyline points="466.4,-254.9 504.7,41.7 492.6,119.8 483.8,119.8 433.4,-254 							"/>
						</g>
					</g>
					<g>
						<polyline points="386.7,-254.9 424.9,41.7 412.9,119.8 404,119.8 353.7,-254 						"/>
					</g>
				</g>
			</g>
		</g>
		<g>
			<g>
				<path d="M516.7,267.2l8.7-87.5c0.4-4.4,0.6-7.4,0.6-9c0-2.3-0.9-4.3-2.6-5.8c-1.7-1.6-4.5-2.3-8.2-2.3h-2.8l0.8-2.9h41.5
					l-0.9,2.9c-4.5,0.1-7.6,0.5-9.3,1.4c-1.7,0.9-3,2.4-4,4.5c-0.5,1.1-1.1,4.4-1.6,9.7l-6.2,62.7l41-56c4.4-6,7.2-10.3,8.4-12.6
					c0.8-1.6,1.2-3,1.2-4.2c0-1.4-0.6-2.6-1.8-3.6c-1.2-1-3.4-1.7-6.7-1.9l0.9-2.9h31.6l-0.8,2.9c-2.5,0.2-4.5,0.7-6,1.5
					c-2.8,1.3-5.7,3.4-8.5,6.1c-2.8,2.7-7.3,8.3-13.4,16.6l-59.2,80.5H516.7z"/>
				<path d="M580.7,235.5c-0.4,2.6-0.5,4.7-0.5,6.4c0,4.6,1.6,8.5,4.9,11.7c3.3,3.2,7.2,4.8,11.9,4.8c3.7,0,7.3-0.8,10.7-2.3
					c3.4-1.5,8.5-4.9,15.3-10.1l1.6,2.2c-12.2,12.1-23.9,18.2-35,18.2c-7.5,0-13.2-2.4-17.1-7.1c-3.8-4.8-5.7-10-5.7-15.7
					c0-7.7,2.4-15.6,7.1-23.6c4.8-8.1,10.7-14.3,17.9-18.8c7.2-4.5,14.6-6.7,22.2-6.7c5.5,0,9.5,1.1,12.2,3.3c2.6,2.2,4,4.9,4,7.9
					c0,4.3-1.7,8.4-5.1,12.3c-4.5,5.1-11.1,9.3-19.8,12.4C599.3,232.7,591.2,234.3,580.7,235.5z M581.2,231.7
					c7.6-0.9,13.9-2.4,18.7-4.5c6.4-2.8,11.1-6.2,14.3-10.2s4.8-7.7,4.8-11.3c0-2.2-0.7-3.9-2.1-5.3c-1.4-1.3-3.3-2-5.9-2
					c-5.3,0-10.9,2.8-16.8,8.4C588.4,212.5,584,220.8,581.2,231.7z"/>
				<path d="M630.4,198.9l26.7-4.3l-11.2,37.7c9-15.5,17.3-26.3,24.7-32.4c4.2-3.5,7.6-5.3,10.2-5.3c1.7,0,3,0.5,4,1.5
					c1,1,1.5,2.5,1.5,4.4c0,3.4-0.9,6.7-2.6,9.8c-1.2,2.3-3,3.5-5.3,3.5c-1.2,0-2.2-0.4-3.1-1.2s-1.4-2-1.6-3.6
					c-0.1-1-0.3-1.6-0.7-1.9c-0.4-0.4-0.9-0.6-1.5-0.6c-0.9,0-1.7,0.2-2.5,0.6c-1.3,0.7-3.4,2.7-6.1,6c-4.3,5.1-8.9,11.6-14,19.7
					c-2.2,3.4-4,7.3-5.6,11.6c-2.2,5.9-3.4,9.4-3.7,10.6l-2.5,9.8h-11.9l14.3-48.1c1.7-5.6,2.5-9.6,2.5-11.9c0-0.9-0.4-1.7-1.2-2.3
					c-1-0.8-2.4-1.2-4.1-1.2c-1.1,0-3.1,0.2-6,0.7L630.4,198.9z"/>
				<path d="M731.3,194.6l-4.7,23.8h-2.9c-0.3-6.9-1.7-12-4.4-15.1c-2.7-3.2-6-4.7-10-4.7c-3.2,0-5.7,0.9-7.6,2.6
					c-1.9,1.8-2.8,3.9-2.8,6.4c0,1.7,0.4,3.3,1.1,4.9c0.7,1.6,2.4,3.7,4.9,6.5c6.7,7.3,11.1,12.9,13,16.6c2,3.7,2.9,7.2,2.9,10.5
					c0,5.4-2.2,10.1-6.7,14.3c-4.5,4.2-10.1,6.2-16.9,6.2c-3.7,0-8-0.9-12.9-2.6c-1.7-0.6-3-0.9-4-0.9c-2.3,0-4.1,1.2-5.3,3.6h-2.9
					l4.7-25.1h2.9c0.3,7.9,1.9,13.4,4.9,16.7s7,4.9,12.1,4.9c3.9,0,7-1.1,9.3-3.3c2.3-2.2,3.4-4.9,3.4-8.1c0-2.1-0.4-4-1.2-5.7
					c-1.4-3.1-4.5-7.4-9.1-12.9c-4.6-5.5-7.6-9.6-8.9-12.3c-1.3-2.7-2-5.5-2-8.2c0-5,1.8-9.2,5.5-12.7c3.6-3.5,8.3-5.2,14.1-5.2
					c1.7,0,3.2,0.1,4.5,0.4c0.7,0.2,2.4,0.7,5.1,1.7c2.7,1,4.4,1.5,5.3,1.5c2.2,0,4.1-1.2,5.6-3.6H731.3z"/>
				<path d="M761.8,194.6l-15.3,54.3c-1,3.7-1.6,5.9-1.6,6.6c0,0.8,0.2,1.5,0.7,2c0.5,0.5,1.1,0.8,1.7,0.8c0.8,0,1.7-0.4,2.8-1.2
					c2.9-2.3,5.9-5.6,8.9-9.9l2.7,1.8c-3.5,5.4-7.6,9.9-12.4,13.6c-3.5,2.7-6.9,4.1-10.1,4.1c-2.1,0-3.9-0.6-5.2-1.9
					c-1.3-1.3-2-2.9-2-4.8c0-1.9,0.6-5.1,1.9-9.5l10.1-34.7c1.7-5.7,2.5-9.2,2.5-10.7c0-1.1-0.4-2.1-1.2-2.8
					c-0.8-0.7-1.9-1.1-3.3-1.1c-1.1,0-3.5,0.3-7.1,0.9v-3L761.8,194.6z M760.8,163.8c2.2,0,4,0.8,5.5,2.2c1.5,1.5,2.2,3.3,2.2,5.5
					c0,2.1-0.8,3.9-2.3,5.5c-1.5,1.5-3.3,2.3-5.5,2.3c-2.1,0-3.9-0.8-5.5-2.3c-1.5-1.5-2.3-3.3-2.3-5.5c0-2.2,0.7-4,2.2-5.5
					C756.8,164.6,758.6,163.8,760.8,163.8z"/>
				<path d="M832.7,218.9c0,7.8-2.1,15.4-6.2,23c-4.1,7.6-9.8,13.6-17.2,18.1c-7.3,4.4-14.5,6.7-21.4,6.7c-7.1,0-12.9-2.3-17.3-6.8
					c-4.5-4.5-6.7-10.4-6.7-17.6c0-7.6,2.2-15.2,6.6-22.9c4.4-7.6,10.2-13.7,17.5-18.1c7.3-4.4,14.4-6.7,21.2-6.7s12.4,2.2,16.9,6.7
					C830.4,205.8,832.7,211.7,832.7,218.9z M819.8,213.5c0-4.8-1.2-8.5-3.5-11c-2.4-2.6-5.4-3.8-9.1-3.8c-7.6,0-14.6,5.4-21,16.3
					c-6.4,10.9-9.6,21.7-9.6,32.4c0,4.9,1.2,8.7,3.7,11.4c2.5,2.7,5.6,4,9.4,4c7.3,0,14.1-5.4,20.5-16.2
					C816.6,235.7,819.8,224.7,819.8,213.5z"/>
				<path d="M863.5,194.6l-10.3,35.3c9.7-14.4,17.1-23.9,22.2-28.4c5.1-4.5,10.1-6.8,14.8-6.8c2.6,0,4.7,0.9,6.4,2.6
					c1.7,1.7,2.5,3.9,2.5,6.7c0,3.1-0.7,7.2-2.2,12.4l-9.5,32.6c-1.1,3.8-1.6,6.1-1.6,6.9c0,0.7,0.2,1.3,0.6,1.8
					c0.4,0.5,0.9,0.7,1.3,0.7c0.6,0,1.4-0.3,2.2-1c2.7-2.2,5.7-5.5,9-9.9l2.4,1.5c-4.8,6.9-9.4,11.8-13.6,14.7c-3,2-5.7,3-8.1,3
					c-1.9,0-3.4-0.6-4.6-1.7c-1.1-1.2-1.7-2.7-1.7-4.7c0-2.5,0.9-6.7,2.6-12.8l9-31.2c1.1-3.9,1.7-6.9,1.7-9.1c0-1-0.3-1.9-1-2.5
					c-0.7-0.6-1.5-1-2.5-1c-1.4,0-3.2,0.6-5.2,1.9c-3.8,2.3-7.8,6.2-11.9,11.5c-4.1,5.3-8.5,12.2-13.1,20.5c-2.4,4.4-4.4,9.2-6,14.4
					l-3.9,12.8h-11.6l14.1-48.5c1.7-5.8,2.5-9.4,2.5-10.5c0-1.1-0.5-2.1-1.4-3c-0.9-0.9-2-1.3-3.4-1.3c-0.6,0-1.7,0.1-3.3,0.3
					l-2.9,0.5l-0.5-2.8L863.5,194.6z"/>
				<path d="M951.5,207.3v-2.2c12.5-1.9,21.8-5.6,28-11.2c4.4-3.9,6.7-8.6,6.7-14c0-4.1-1.3-7.5-3.9-10.1c-2.6-2.7-5.7-4-9.4-4
					c-5.8,0-10.9,3.6-15.4,10.8l-2.9-0.9c2.7-6,6.1-10.5,10.3-13.6c4.2-3.1,8.8-4.6,13.8-4.6c6.1,0,11,1.8,14.8,5.5
					c3.8,3.6,5.7,8.3,5.7,13.8c0,4.8-1.8,9.3-5.3,13.7c-3.5,4.4-9.6,8.3-18.3,11.8c5.4,2.2,9.4,5.4,12.2,9.6c2.7,4.2,4.1,9.2,4.1,15
					c0,6.5-1.9,12.9-5.6,19.4c-3.7,6.5-8.8,11.5-15.3,15c-6.5,3.5-13.3,5.3-20.4,5.3c-6.5,0-11.4-1.1-14.8-3.4
					c-2.2-1.5-3.3-3.4-3.3-5.4c0-1.8,0.7-3.4,2-4.7c1.3-1.3,2.9-1.9,4.8-1.9c1.3,0,2.7,0.2,4,0.6c0.8,0.3,2.9,1.3,6.1,3.1
					c3.2,1.8,5.7,3,7.6,3.6c1.8,0.6,3.7,0.9,5.6,0.9c4.7,0,8.5-2.7,11.5-8.1c3-5.4,4.5-11.1,4.5-17.2c0-5-1-9.4-3.1-13.3
					c-2-3.9-5.3-7-9.7-9.4C961.5,209,956.7,207.6,951.5,207.3z"/>
				<path d="M1003.3,250.9c2.2,0,4.1,0.8,5.6,2.3c1.5,1.5,2.3,3.4,2.3,5.5c0,2.2-0.8,4-2.3,5.5s-3.4,2.3-5.6,2.3
					c-2.2,0-4-0.8-5.5-2.3c-1.5-1.5-2.3-3.4-2.3-5.5c0-2.2,0.8-4,2.3-5.5C999.2,251.6,1001.1,250.9,1003.3,250.9z"/>
				<path d="M1050.3,194.6c2.5,2.7,4.4,5.4,5.7,8.1c0.9,1.9,2.5,6.7,4.6,14.7l6.8-10.2c1.8-2.5,4-4.8,6.6-7.1
					c2.6-2.2,4.9-3.8,6.8-4.6c1.2-0.5,2.6-0.8,4.1-0.8c2.2,0,4,0.6,5.3,1.8c1.3,1.2,2,2.6,2,4.3c0,2-0.4,3.3-1.2,4
					c-1.4,1.3-3.1,1.9-5,1.9c-1.1,0-2.2-0.2-3.5-0.7c-2.4-0.8-4.1-1.2-4.9-1.2c-1.2,0-2.7,0.7-4.4,2.2c-3.2,2.7-7,7.9-11.5,15.6
					l6.4,26.7c1,4.1,1.8,6.5,2.5,7.3c0.7,0.8,1.3,1.2,2,1.2c1.1,0,2.4-0.6,3.8-1.8c2.8-2.4,5.3-5.5,7.3-9.3l2.7,1.4
					c-3.3,6.1-7.4,11.2-12.4,15.2c-2.8,2.3-5.2,3.4-7.2,3.4c-2.9,0-5.2-1.6-6.9-4.9c-1.1-2-3.3-10.7-6.7-26
					c-8.1,14-14.5,23-19.4,27.1c-3.2,2.6-6.2,3.9-9.1,3.9c-2.1,0-4-0.8-5.7-2.2c-1.2-1.1-1.9-2.7-1.9-4.6c0-1.7,0.6-3.1,1.7-4.3
					c1.1-1.1,2.5-1.7,4.2-1.7c1.7,0,3.4,0.8,5.3,2.5c1.3,1.2,2.4,1.8,3.1,1.8c0.6,0,1.4-0.4,2.4-1.2c2.4-2,5.7-6.2,9.9-12.7
					c4.2-6.5,6.9-11.2,8.2-14.1c-3.2-12.6-4.9-19.2-5.2-19.9c-1.2-3.4-2.7-5.7-4.7-7.1c-1.9-1.4-4.7-2.1-8.4-2.1
					c-1.2,0-2.6,0.1-4.1,0.2v-2.8L1050.3,194.6z"/>
			</g>
		</g>
	</g>
	<g class="st1">
		<g>
			<g>
				<g>
					<polygon points="875.2,1208.6 891.2,1168.5 891.2,1168.5 947.7,1167.3 931.7,1207.3 					"/>
					<polygon points="755.4,1097.5 747.5,1117.1 778.8,1116.4 786.6,1096.8 					"/>
					<polygon points="734.4,1082 741.2,1065 717.5,1065.6 710.7,1082.6 					"/>
					<polygon points="791.1,1129.6 781.6,1153.5 822.3,1152.6 831.8,1128.7 					"/>
					<polygon points="825.7,1179.5 837.8,1149.1 887.9,1148 875.8,1178.4 					"/>
				</g>
				<g>
					<polygon points="941.9,1041.4 998.5,1040.2 1014.5,1000.1 957.9,1001.3 					"/>
					<polygon points="845.6,949.2 853.4,929.6 822.1,930.3 814.3,949.9 					"/>
					<polygon points="777.5,915.4 784.3,898.4 808,897.9 801.2,914.9 					"/>
					<polygon points="889,985.4 898.6,961.5 857.9,962.4 848.4,986.3 					"/>
					<polygon points="904.6,982 892.5,1012.3 942.5,1011.2 954.7,980.9 					"/>
				</g>
				<g>
					<g>
						<polygon class="st3" points="986.3,1062.1 938.4,1063.2 925,1096.8 973,1095.4 						"/>
					</g>
					<polygon class="st3" points="794.4,1008.4 801.5,990.8 826.6,990.2 819.5,1007.9 					"/>
					<polygon class="st3" points="763.1,957.2 757.1,972.4 775.9,972 781.9,956.8 					"/>
					<polygon class="st3" points="830.2,1043.9 838.7,1022.7 871.8,1022 863.3,1043.1 					"/>
					<polygon class="st3" points="927.8,1042.8 916.8,1070.2 873.8,1071.1 884.7,1043.8 					"/>
				</g>
				<g>
					<polygon class="st3" points="903.5,1150.6 917,1116.8 964.8,1115.8 951.4,1149.5 					"/>
					<polygon class="st3" points="805.1,1043.9 798.1,1061.5 773,1062.1 780.1,1044.4 					"/>
					<polygon class="st3" points="754.4,1025.6 760.5,1010.4 741.7,1010.8 735.6,1026 					"/>
					<polygon class="st3" points="808.8,1097.5 817.3,1076.3 850.4,1075.6 841.9,1096.8 					"/>
					<polygon class="st3" points="906.3,1096.4 895.4,1123.8 852.3,1124.7 863.3,1097.4 					"/>
				</g>
				<g>
					<polygon class="st4" points="1031.6,948.6 1018.1,982.4 970.3,983.4 983.8,949.7 					"/>
					<polygon class="st4" points="839.8,894.9 846.8,877.2 871.9,876.7 864.9,894.3 					"/>
					<polygon class="st4" points="802.4,858.9 808.5,843.7 827.3,843.3 821.2,858.5 					"/>
					<polygon class="st4" points="875.6,930.3 884.1,909.2 917.1,908.4 908.7,929.6 					"/>
					<polygon class="st4" points="973.1,929.3 962.2,956.6 919.1,957.6 930.1,930.2 					"/>
				</g>
				<g>
					<polygon class="st4" points="1005.2,895.9 991.8,929.7 1039.6,928.6 1053.1,894.9 					"/>
					<polygon class="st4" points="861.2,841.2 868.3,823.5 893.4,823 886.3,840.6 					"/>
					<polygon class="st4" points="823.9,805.1 830,790 848.7,789.5 842.7,804.7 					"/>
					<polygon class="st4" points="897.1,876.6 905.5,855.4 938.6,854.7 930.1,875.9 					"/>
					<polygon class="st4" points="994.6,875.5 983.7,902.9 940.6,903.9 951.5,876.5 					"/>
				</g>
				<g>
					<g>
						<polygon points="1081.3,832.8 1065.3,872.9 1008.7,874.1 1024.8,834.1 						"/>
						<polygon points="912.4,782 920.2,762.3 889,763 881.1,782.6 						"/>
						<polygon points="851.1,731.1 844.3,748.1 868,747.6 874.8,730.6 						"/>
						<polygon points="915.2,819 924.7,795.1 965.4,794.2 955.9,818.1 						"/>
						<polygon points="971.4,814.7 959.3,845 1009.4,843.9 1021.5,813.6 						"/>
					</g>
				</g>
				<g>
					<polygon points="1059,1061.4 998.2,1062.5 979.3,1109.9 1040.1,1108.8 					"/>
					<polygon points="1018.4,1163.1 1037.3,1115.7 976.5,1116.8 957.6,1164.2 					"/>
					<path d="M954.8,1171.2l-22.5,56.3c20.2-1.7,40.9-2.7,61.4-2.7l21.9-54.8L954.8,1171.2z"/>
					<polygon points="1001,1055.6 1019.9,1008.2 1080.7,1007 1061.8,1054.4 					"/>
					<polygon points="1083.5,1000.1 1022.7,1001.3 1041.6,953.9 1102.4,952.7 					"/>
					<polygon points="1105.2,945.8 1044.4,946.9 1063.3,899.5 1124.1,898.4 					"/>
					<path d="M1126.9,891.5l22.2-55.6c-20.6,0-41.3,1-61.4,2.7l-21.6,54.1L1126.9,891.5z"/>
					<path d="M1289.8,858c-39.1-15.6-86-21.6-133.8-22.1l-155.4,388.9c47.8,0.5,94.7,6.5,133.8,22.1
						c64.6,25.8,104.7,59.9,129.3,89.7l155.4-388.9C1394.5,917.9,1354.4,883.8,1289.8,858z"/>
				</g>
				<g>
					<path class="st5" d="M1305.5,1083.5c-22.7-20.3-51.3-37.4-85.4-51c-0.1,0-0.2-0.1-0.2-0.1l49.2-123.3c0.1,0,0.2,0.1,0.2,0.1
						c34.1,13.6,62.7,30.7,85.4,51L1305.5,1083.5z"/>
					<path class="st4" d="M1133.9,891.2l-49.2,123.3c39.2-1,73.7,1.8,102.3,8.1l0.6-1.5l48.6-121.8
						C1207.7,893,1173.1,890.3,1133.9,891.2z"/>
					<path class="st6" d="M1207.1,1064.3c0.1,0,0.2,0.1,0.2,0.1c34.1,13.6,62.7,30.7,85.4,51l-50.7,127
						c-25.7-18.1-54.8-33.7-87.1-46.6c-0.1,0-0.2-0.1-0.2-0.1L1207.1,1064.3z"/>
					<path class="st3" d="M1072,1046.4l-49.5,123.8c36.9,1.6,70.2,6.5,99.7,14.6l2.1-5.2l50-125.1
						C1145.7,1048.2,1111.2,1045.4,1072,1046.4z"/>
				</g>
			</g>
			<text transform="matrix(0 -0.7146 1 0 652.2578 1597.1869)"><tspan x="0" y="0" class="st7 st8 st9">M</tspan><tspan x="104.1" y="0" class="st7 st8 st10">i</tspan><tspan x="128.1" y="0" class="st7 st8 st11">c</tspan><tspan x="178.2" y="0" class="st7 st8 st9">ro</tspan><tspan x="266.5" y="0" class="st7 st8 st11">s</tspan><tspan x="309.7" y="0" class="st7 st8 st12">o</tspan><tspan x="359.3" y="0" class="st7 st8 st9">ft.</tspan></text>
			<path d="M1575.2,1324.1v105.1h-3.8c-1.4-24.4-6.6-52.4-13.7-69.2c-7.1-16.7-17-24.6-26.8-24.6c-7.1,0-23.7,12.3-23.7,61.8
				c0,21.6,4.3,39.9,27.7,64.4c23.8,25,46.5,36.3,46.5,114.5c0,38.1-19.6,87-45.2,87c-21.1,0-30.4-15.9-34.5-15.9
				c-3.7,0-6.5,5.6-8.4,16.7h-3.8v-107.2h3.8c0,29.5,13.9,94.6,41.1,94.6c18.7,0,26.4-41.4,26.4-56.2c0-25.4-2-54.5-31.3-81.5
				c-26.5-24.5-40.7-45.7-40.7-99.6c0-41,14-90.6,41.6-90.6c10.8,0,15.1,4.5,25.7,13.6c2.7,2.4,5.1,3.6,7.1,3.6
				c3.6,0,6.3-5.6,8.1-16.7H1575.2z"/>
			<path d="M1109.3,1327.6h-37.7l-0.4,16.7h-13v294h5.5l-0.5,18.1h46.2c75.5,0,76.5-164.3,76.5-164.3S1184.8,1327.6,1109.3,1327.6z
				 M1099.3,1646.9c0,0-12.7-0.6-12.7-4.6v-300.7c0-4,12.7-4.6,12.7-4.6c59.2,0,58.6,152.9,58.6,152.9v4
				C1157.9,1494,1158.5,1646.9,1099.3,1646.9z"/>
			<path d="M1058.1,1625.1c0,0-0.5,26.6-17,26.6v4.7h36.1v-27.1"/>
			<path d="M1058.1,1358.9c0,0-0.5-26.6-17-26.6v-4.7h36.1v27.1"/>
			<path d="M1027.3,1358.9c0,0-2.3-26.6-18.8-26.6v-4.7h24.1v27.1"/>
			<path d="M923.7,1359.9c0,0-6.2-27.6-22.7-27.6v-4.7h24.1v27.1"/>
			<path d="M1035.9,1358.9c0,0,2.3-26.6,18.8-26.6v-4.7h-24.1v27.1"/>
			<g>
				<path d="M869.2,1358.9c0-7.6,1-26.6-13.2-26.6l0-4.7h24.1v27.1"/>
				<path d="M897,1358.9c0-7.6-1-26.6,13.2-26.6l0-4.7h-24.1v27.1"/>
			</g>
			<g>
				<path d="M897,1625.1c0,7.6-1,26.6,13.2,26.6l0,4.7h-24.1v-27.1"/>
				<path d="M869.2,1625.1c0,7.6,1,26.6-13.2,26.6l0,4.7h24.1v-27.1"/>
			</g>
			<rect x="1027.3" y="1349.4" width="8.6" height="310.7"/>
			<g>
				<path d="M932.4,1625.1c0,0,2.3,26.6,18.8,26.6v4.7H927v-27.1"/>
				<path d="M923.7,1625.1c0,0-2.3,26.6-18.8,26.6v4.7H929v-27.1"/>
				
					<rect x="923.7" y="1327.6" transform="matrix(-1 -1.224647e-16 1.224647e-16 -1 1856.0596 2963.281)" width="8.6" height="308"/>
			</g>
			<polygon points="944.5,1327.6 925.3,1327.6 923.7,1332.5 923.7,1359.9 1027.3,1660.1 1035.9,1633.1 1035.9,1592.6 			"/>
			<rect x="869.2" y="1327.6" width="27.9" height="328.7"/>
			<path d="M1311.5,1372.5c-14.3-33.5-31.3-46-51.1-46.4c-19.8,0.4-36.8,12.9-51.1,46.4c-14,33-23,74.6-23.6,121.4
				c0.6,46.8,9.5,88.4,23.6,121.4c14.3,33.5,31.3,46,51.1,46.4c19.8-0.4,36.8-12.9,51.1-46.4c14-33,23-74.6,23.6-121.4
				C1334.5,1447.1,1325.5,1405.5,1311.5,1372.5z M1264.1,1653.5c-2.3,1-5,1-7.3,0c-18.7-7.7-40.2-58.9-40.5-159.6
				c0.3-100.8,21.8-151.9,40.5-159.6c2.3-1,5-1,7.3,0c18.7,7.7,40.2,58.9,40.5,159.6C1304.3,1594.6,1282.7,1645.8,1264.1,1653.5z"/>
			<g>
				<g>
					<polygon points="1440.6,1662.2 1491.4,1334 1483.7,1334.6 1433.1,1662.2 					"/>
					<polygon points="1372.3,1662.2 1417.7,1368.7 1410.2,1368.7 1364.8,1662.2 					"/>
				</g>
				<g>
					<g>
						<g>
							<path d="M1392.3,1358.4c-2.3-16.2-6.8-26.1-18.5-26.1l0-4.7h24.1v27.1"/>
							<path d="M1420.4,1358.9c-1.6-12.4-5.2-26.6,9.3-26.6l0-4.7h-24.1v27.1"/>
							<polyline points="1418.2,1341.4 1451,1595.4 1440.6,1662.2 1433.1,1662.2 1390,1342.2 							"/>
						</g>
						<g>
							<path d="M1486.6,1364.8c3-19.2,8.7-32.5,19.4-32.5l0-4.7h-24.1v27.1"/>
							<path d="M1478.3,1369.9c2.7-17.3,0.1-37.6-13.9-37.6l0-4.7h24.1v27.1"/>
						</g>
					</g>
					<g>
						<path d="M1324,1358.4c-2.3-16.2-6.8-26.1-18.5-26.1l0-4.7h24.1v27.1"/>
						<path d="M1352.2,1358.9c-1.6-12.4-5.2-26.6,9.3-26.6l0-4.7h-24.1v27.1"/>
						<polyline points="1349.9,1341.4 1382.7,1595.4 1372.3,1662.2 1364.8,1662.2 1321.7,1342.2 						"/>
					</g>
					<rect x="1395.7" y="1327.6" width="13.1" height="23.2"/>
					<rect x="1328" y="1327.6" width="13.1" height="23.2"/>
				</g>
			</g>
			<g>
				<g>
					<polygon points="804.3,1662.2 863.6,1278.8 854.6,1279.6 795.5,1662.2 					"/>
					<polygon points="724.5,1662.2 777.6,1319.3 768.7,1319.3 715.7,1662.2 					"/>
				</g>
				<g>
					<g>
						<g>
							<path d="M747.8,1307.3c-2.7-18.9-7.9-30.5-21.6-30.5l0-5.4h28.2v31.7"/>
							<path d="M780.7,1307.9c-1.9-14.5-6.1-31.1,10.9-31.1l0-5.4h-28.2v31.7"/>
							<polyline points="778.1,1287.4 816.4,1584.1 804.3,1662.2 795.5,1662.2 745.1,1288.4 							"/>
						</g>
						<g>
							<path d="M858,1314.7c3.5-22.4,10.1-37.9,22.7-37.9l0-5.4h-28.2v31.7"/>
							<path d="M848.3,1320.7c3.1-20.2,0.1-43.9-16.3-43.9l0-5.4h28.2v31.7"/>
						</g>
					</g>
					<g>
						<path d="M668,1307.3c-2.7-18.9-7.9-30.5-21.6-30.5l0-5.4h28.2v31.7"/>
						<path d="M701,1307.9c-1.9-14.5-6.1-31.1,10.9-31.1l0-5.4h-28.2v31.7"/>
						<polyline points="698.3,1287.4 736.6,1584.1 724.5,1662.2 715.7,1662.2 665.3,1288.4 						"/>
					</g>
					<rect x="751.8" y="1271.4" width="15.2" height="27"/>
					<rect x="672.7" y="1271.4" width="15.2" height="27"/>
				</g>
			</g>
		</g>
		<g>
			<g>
				<path d="M1643.3,1583.3v-3.1c17-2.6,29.7-7.7,38.1-15.2c6.1-5.3,9.1-11.7,9.1-19.1c0-5.6-1.8-10.2-5.3-13.8
					c-3.5-3.6-7.8-5.4-12.8-5.4c-7.9,0-14.9,4.9-21,14.7l-3.9-1.2c3.7-8.2,8.4-14.3,14.1-18.5c5.7-4.2,12-6.3,18.9-6.3
					c8.3,0,15,2.5,20.2,7.4c5.1,5,7.7,11.2,7.7,18.9c0,6.5-2.4,12.7-7.2,18.7c-4.8,6-13.1,11.3-24.9,16.1c7.3,3,12.8,7.4,16.6,13
					c3.7,5.7,5.6,12.5,5.6,20.4c0,8.8-2.5,17.6-7.6,26.5c-5.1,8.8-12,15.7-20.9,20.5c-8.8,4.8-18.1,7.2-27.8,7.2
					c-8.9,0-15.6-1.5-20.2-4.6c-3-2.1-4.5-4.6-4.5-7.4c0-2.5,0.9-4.6,2.7-6.3c1.8-1.8,4-2.6,6.6-2.6c1.8,0,3.7,0.3,5.5,0.8
					c1.1,0.4,3.9,1.8,8.3,4.2c4.4,2.5,7.8,4.1,10.3,4.9c2.5,0.8,5,1.2,7.6,1.2c6.3,0,11.6-3.7,15.7-11c4.1-7.4,6.2-15.2,6.2-23.5
					c0-6.8-1.4-12.8-4.2-18.1c-2.8-5.3-7.2-9.6-13.1-12.8C1656.9,1585.6,1650.4,1583.8,1643.3,1583.3z"/>
				<path d="M1711.7,1642.7c3,0,5.6,1,7.7,3.1c2.1,2.1,3.1,4.6,3.1,7.6c0,3-1.1,5.5-3.2,7.6c-2.1,2.1-4.6,3.1-7.6,3.1
					c-3,0-5.5-1-7.6-3.1c-2.1-2.1-3.1-4.6-3.1-7.6c0-3,1-5.5,3.1-7.6C1706.2,1643.7,1708.8,1642.7,1711.7,1642.7z"/>
				<path d="M1782.2,1566c3.4,3.7,6.1,7.3,7.8,11c1.3,2.5,3.3,9.2,6.2,20l9.3-13.9c2.5-3.4,5.5-6.6,9-9.7c3.5-3.1,6.6-5.2,9.3-6.3
					c1.7-0.7,3.6-1.1,5.6-1.1c3,0,5.4,0.8,7.2,2.4c1.8,1.6,2.7,3.6,2.7,5.9c0,2.7-0.5,4.5-1.6,5.5c-2,1.8-4.2,2.6-6.8,2.6
					c-1.5,0-3.1-0.3-4.8-1c-3.3-1.1-5.5-1.7-6.7-1.7c-1.7,0-3.7,1-6,3c-4.4,3.7-9.6,10.7-15.6,21.2l8.7,36.3c1.3,5.6,2.5,8.9,3.4,10
					c0.9,1.1,1.8,1.6,2.7,1.6c1.5,0,3.2-0.8,5.2-2.4c3.9-3.2,7.2-7.5,9.9-12.7l3.7,1.9c-4.4,8.3-10.1,15.2-16.9,20.7
					c-3.9,3.1-7.1,4.6-9.8,4.6c-3.9,0-7.1-2.2-9.4-6.7c-1.5-2.7-4.5-14.6-9.2-35.5c-11,19.1-19.8,31.4-26.4,36.9
					c-4.3,3.5-8.4,5.3-12.5,5.3c-2.8,0-5.4-1-7.7-3.1c-1.7-1.5-2.5-3.6-2.5-6.2c0-2.3,0.8-4.3,2.3-5.8c1.5-1.5,3.5-2.3,5.7-2.3
					c2.3,0,4.6,1.1,7.2,3.4c1.8,1.6,3.2,2.4,4.2,2.4c0.8,0,1.9-0.6,3.3-1.7c3.3-2.7,7.8-8.4,13.5-17.3c5.7-8.9,9.4-15.3,11.2-19.2
					c-4.4-17.1-6.7-26.2-7.1-27.1c-1.6-4.6-3.7-7.8-6.3-9.7c-2.6-1.9-6.4-2.9-11.5-2.9c-1.6,0-3.5,0.1-5.6,0.2v-3.8L1782.2,1566z"/>
			</g>
		</g>
	</g>
</g>
<g>
	<g>
		<g>
			<polygon points="684.2,1051.3 719.4,963.2 719.4,963.2 843.9,960.4 808.7,1048.6 			"/>
			<polygon points="420.7,806.9 403.5,850.1 472.3,848.5 489.5,805.4 			"/>
			<polygon points="374.6,773 389.5,735.6 337.4,736.8 322.4,774.1 			"/>
			<polygon points="499.4,877.5 478.4,930.1 567.8,928.1 588.8,875.6 			"/>
			<polygon points="575.4,987.3 602.1,920.6 712.2,918.1 685.5,984.9 			"/>
		</g>
		<g>
			<polygon points="831.1,683.7 955.5,680.9 990.8,592.8 866.3,595.5 			"/>
			<polygon points="619.2,480.9 636.4,437.7 567.6,439.2 550.4,482.4 			"/>
			<polygon points="469.3,406.5 484.3,369.1 536.4,367.9 521.5,405.3 			"/>
			<polygon points="714.7,560.5 735.7,507.9 646.3,509.8 625.3,562.4 			"/>
			<polygon points="749,552.9 722.3,619.6 832.4,617.2 859.1,550.5 			"/>
		</g>
		<g>
			<g>
				<polygon points="928.6,729.3 823.4,731.6 793.8,805.6 899.4,802.3 				"/>
			</g>
			<polygon points="506.6,611.1 522.1,572.3 577.3,571.1 561.8,609.9 			"/>
			<polygon points="437.8,498.5 424.5,531.9 465.8,531 479.1,497.6 			"/>
			<polygon points="585.4,689 604,642.5 676.8,640.8 658.2,687.4 			"/>
			<polygon points="799.9,686.7 775.9,746.9 681.2,749 705.2,688.8 			"/>
		</g>
		<g>
			<polygon points="746.6,923.8 776.2,849.5 881.5,847.2 851.8,921.4 			"/>
			<polygon points="530.2,689 514.7,727.8 459.5,729.1 475,690.2 			"/>
			<polygon points="418.7,648.9 432,615.5 390.7,616.4 377.3,649.8 			"/>
			<polygon points="538.3,807 556.9,760.4 629.6,758.8 611,805.4 			"/>
			<polygon points="752.8,804.7 728.8,864.9 634,867 658.1,806.8 			"/>
		</g>
		<g>
			<polygon points="1028.4,479.5 998.7,553.8 893.5,556.1 923.1,481.9 			"/>
			<polygon points="606.4,361.3 621.9,322.6 677.1,321.3 661.6,360.2 			"/>
			<polygon points="524.2,282.2 537.6,248.7 578.9,247.8 565.5,281.2 			"/>
			<polygon points="685.2,439.3 703.8,392.7 776.5,391.1 757.9,437.7 			"/>
			<polygon points="899.7,437 875.6,497.2 780.9,499.3 805,439.1 			"/>
		</g>
		<g>
			<polygon points="970.3,363.7 940.7,437.9 1045.9,435.6 1075.6,361.3 			"/>
			<polygon points="653.6,243.2 669.1,204.4 724.3,203.1 708.8,242 			"/>
			<polygon points="571.4,164 584.8,130.5 626.1,129.6 612.8,163 			"/>
			<polygon points="732.4,321.1 751,274.5 823.7,272.9 805.1,319.5 			"/>
			<polygon points="946.9,318.8 922.9,379 828.1,381.1 852.2,320.9 			"/>
		</g>
		<g>
			<g>
				<polygon points="1137.7,224.8 1102.5,313 978.1,315.7 1013.3,227.6 				"/>
				<polygon points="766.1,112.9 783.4,69.8 714.6,71.3 697.4,114.5 				"/>
				<polygon points="631.2,1.1 616.3,38.5 668.5,37.4 683.4,0 				"/>
				<polygon points="772.3,194.5 793.3,141.9 882.7,139.9 861.7,192.5 				"/>
				<polygon points="895.9,185 869.3,251.7 979.4,249.3 1006,182.5 				"/>
			</g>
		</g>
		<g>
			<polygon points="1088.7,727.5 954.9,730.1 913.2,834.3 1047,831.8 			"/>
			<polygon points="999.3,951.3 1040.9,847 907.1,849.6 865.5,953.8 			"/>
			<path d="M859.4,969.1l-49.5,123.8c44.4-3.7,89.9-5.9,135.2-5.9l48.1-120.5L859.4,969.1z"/>
			<polygon points="961,714.8 1002.6,610.6 1136.4,608 1094.8,712.3 			"/>
			<polygon points="1142.5,592.8 1008.7,595.3 1050.3,491.1 1184.2,488.6 			"/>
			<polygon points="1190.2,473.3 1056.4,475.9 1098.1,371.6 1231.9,369.1 			"/>
			<path d="M1238,353.8l48.9-122.3c-45.3,0-90.7,2.2-135.2,5.9l-47.5,118.9L1238,353.8z"/>
			<path d="M1596.3,280.3c-85.9-34.3-189.2-47.6-294.2-48.7l-341.7,855.5c105,1.1,208.3,14.4,294.2,48.7
				c142.1,56.8,230.3,131.7,284.5,197.3l341.7-855.5C1826.6,412,1738.4,337,1596.3,280.3z"/>
		</g>
		<g>
			<path class="st19" d="M1630.8,776.2c-50-44.6-112.9-82.2-187.8-112.1c-0.2-0.1-0.4-0.1-0.5-0.2l108.3-271.2
				c0.2,0.1,0.4,0.1,0.5,0.2c74.9,29.9,137.8,67.5,187.8,112.1L1630.8,776.2z"/>
			<path class="st19" d="M1253.4,353.3l-108.2,271.2c86.2-2.1,162.1,3.9,225,17.7l1.3-3.4l107-267.8
				C1415.6,357.2,1339.6,351.2,1253.4,353.3z"/>
			<path class="st19" d="M1414.4,734.1c0.2,0.1,0.4,0.1,0.5,0.2c74.9,29.9,137.8,67.5,187.8,112.1l-111.6,279.3
				c-56.5-39.9-120.5-74.2-191.6-102.6c-0.2-0.1-0.4-0.1-0.5-0.2L1414.4,734.1z"/>
			<path class="st19" d="M1117.1,694.6L1008.3,967c81.2,3.6,154.4,14.3,219.3,32.1l4.6-11.5l109.9-275.2
				C1279.3,698.5,1203.4,692.5,1117.1,694.6z"/>
		</g>
	</g>
	<path d="M2135.4,1608.2c-51.5-54.1-61-94.2-61-141.7c0-109,36.7-136,52.2-136c21.5,0,43.2,17.3,58.9,54.1
		c15.7,36.8,27,98.4,30.1,152.1h8.3v-231.3h-8.3c-4,24.5-10,36.8-17.9,36.8c-4.5,0-9.7-2.7-15.7-8c-23.4-19.9-32.8-29.8-56.6-29.8
		c-60.7,0-91.5,109-91.5,199.3c0,118.7,31.2,165.3,89.5,219.1c64.4,59.5,68.8,123.5,68.8,179.3c0,32.5-17,123.6-58,123.6
		c-59.8,0-90.4-143.1-90.4-208.1h-8.3v235.7h8.3c4.3-24.5,10.5-36.8,18.6-36.8c9.1,0,29.4,35,75.9,35c56.3,0,99.5-107.5,99.5-191.4
		C2237.8,1688.1,2187.7,1663.2,2135.4,1608.2z"/>
	<g>
		<path d="M23.6,1720.5c2.7-1.9,4.1-4.3,4.1-7s-1.4-5.1-4.1-7c-2.7-1.9-6-2.9-9.8-2.9s-7.1,1-9.8,2.9c-2.7,1.9-4,4.2-4,7
			c0,2.8,1.3,5.1,4,7.1c2.7,1.9,5.9,2.9,9.8,2.9S20.9,1722.5,23.6,1720.5z"/>
		<path d="M184.4,1636.8c-8.9-7-21.5-11.7-38-14.1l-1.9,2.8c11,3.4,18.6,6.9,22.8,10.4c6.1,5.1,9.1,10.8,9.1,17.1
			c0,8.9-5.7,16-17.1,21.2c-11.4,5.2-24.6,7.8-39.5,7.8c-14.6,0-26.4-2.6-35.3-7.9c-6.7-4-10.1-9.2-10.1-15.7c0-4,1.4-7.2,4.1-9.5
			c2.8-2.3,6.9-3.6,12.3-3.9c5.4-0.4,9-1.1,10.9-2.2c3.5-1.9,5.2-4.8,5.2-8.7c0-2.9-1.1-5.1-3.2-6.7c-2.1-1.6-4.9-2.4-8.4-2.4
			c-7,0-13.8,2.8-20.3,8.5c-6.5,5.7-9.8,12.9-9.8,21.6c0,11.7,6.1,21.7,18.4,30.1c12.3,8.3,28.2,12.5,47.9,12.5
			c20.3,0,36.4-3.8,48.3-11.3c11.9-7.5,17.9-16.4,17.9-26.5C197.7,1651.6,193.3,1643.9,184.4,1636.8z"/>
		<path d="M88.4,1574.5c3.1-2.8,4.7-5.4,4.7-7.6c0-2.3-1.2-4.4-3.7-6c-2.5-1.7-5.5-2.5-9-2.5c-4,0-7.5,1.2-10.6,3.5
			c-3,2.3-4.6,5.3-4.6,8.9c0,7.9,9.4,15.5,28.1,23H65.3v4.1l15.3,27l4.9-1c-1.4-2.5-2-4.8-2-6.8c0-1.7,0.6-3.1,1.9-4.2
			c1.3-1.1,3.3-1.9,6.1-2.3c2.8-0.4,11.4-0.6,26-0.6h48.4c7.3,0,11.7,0.2,13.2,0.5c3.2,0.7,5.5,1.8,7,3.4c2,2.2,3,5.6,3,10.1h4.9
			V1578H189c0,4-0.8,7.1-2.5,9.3s-3.7,3.6-6.1,4.5c-3.5,1.2-8.8,1.9-15.7,1.9h-59.9c-8.5-3.1-14.7-6.1-18.4-9.1
			c-1.8-1.4-2.7-2.6-2.7-3.8C83.7,1579.4,85.3,1577.3,88.4,1574.5z"/>
		<path d="M163.1,1486.2c-11.5-3.8-22.8-5.7-34-5.7c-15.9,0-30,3.5-42.3,10.4c-14.4,8.2-21.5,19-21.5,32.5c0,7.4,2.7,14.4,8.1,21
			c5.4,6.6,13.8,12,25.1,16c11.3,4.1,22.7,6.1,34.2,6.1c15.7,0,29.9-3.3,42.5-10c15-7.9,22.5-18.6,22.5-32.1
			c0-8.2-2.9-15.7-8.7-22.5C183.2,1495.3,174.6,1490,163.1,1486.2z M168.3,1540.7c-13.2,5.2-28.9,7.7-47,7.7
			c-11.3,0-20.5-1.1-27.7-3.2c-7.2-2.1-12.2-5-15.1-8.4c-2.9-3.5-4.3-6.9-4.3-10.4c0-7.1,4.4-13,13.1-17.6
			c12.7-6.8,30.2-10.2,52.4-10.2c17.7,0,30.2,2,37.5,6.1c7.3,4.1,10.9,9.3,10.9,15.6C188.1,1528.7,181.5,1535.5,168.3,1540.7z"/>
		<path d="M187.3,1425.8c-7-6.1-16.1-9.2-27.5-9.2c-14.7,0-26.6,6.6-35.6,19.8l-9.7,14.2c-4.2,6.2-8.1,10.3-11.9,12.3
			c-3.6,2.1-8,3.1-13.1,3.1c-4.1,0-7.8-1.4-11.2-4.2c-3.4-2.8-5-6.5-5-11c0-6,2.4-10.9,7.2-14.8c4.8-3.9,13.9-7,27.3-9.5v-3.2H65.3
			v3.2c2.2,0.8,3.6,1.5,4.2,2c0.6,0.6,1,1.4,1,2.4c0,1.1-0.7,3.3-2,6.6c-2.1,5-3.1,9.3-3.1,12.8c0,8,3.5,14.5,10.4,19.5
			c6.9,5,15.5,7.6,25.8,7.6c7.9,0,14.5-1.5,19.6-4.4c5.3-2.9,11.2-9.1,17.7-18.5c6.5-9.4,12-15.7,16.2-18.9
			c4.3-3.2,9.5-4.7,15.8-4.7c5.2,0,9.6,1.4,13.3,4.2c3.7,2.8,5.5,6.5,5.5,11c0,6.4-3.2,12.1-9.7,17.2c-6.5,5.1-16,8.6-28.8,10.4v3.2
			h44.6v-3.2c-2.4-0.8-3.5-2-3.5-3.5c0-1.4,0.5-3.1,1.4-5.3c2.7-7,4.1-13.3,4.1-18.7C197.7,1438.8,194.3,1432,187.3,1425.8z"/>
		<path d="M163.1,1332.3c-11.5-3.8-22.8-5.7-34-5.7c-15.9,0-30,3.5-42.3,10.4c-14.4,8.2-21.5,19-21.5,32.5c0,7.4,2.7,14.4,8.1,21
			c5.4,6.6,13.8,12,25.1,16c11.3,4.1,22.7,6.1,34.2,6.1c15.7,0,29.9-3.3,42.5-10c15-7.9,22.5-18.6,22.5-32.1
			c0-8.2-2.9-15.7-8.7-22.5C183.2,1341.4,174.6,1336.1,163.1,1332.3z M168.3,1386.8c-13.2,5.2-28.9,7.7-47,7.7
			c-11.3,0-20.5-1.1-27.7-3.2c-7.2-2.1-12.2-5-15.1-8.4c-2.9-3.5-4.3-6.9-4.3-10.4c0-7.1,4.4-13,13.1-17.6
			c12.7-6.8,30.2-10.2,52.4-10.2c17.7,0,30.2,2,37.5,6.1c7.3,4.1,10.9,9.3,10.9,15.6C188.1,1374.8,181.5,1381.6,168.3,1386.8z"/>
		<path d="M29.2,1312c8.6,2.9,19.2,4.3,31.6,4.3H69v17.3h9.8v-17.3h82.1c8.9,0,14.9,0.4,18,1.2c3.1,0.8,5.5,2.3,7.4,4.4
			c1.8,2.1,2.7,4.5,2.7,7.1v4h4.9v-53.3H189v8.1c0,4-2,7.2-6,9.6c-3.1,1.8-10.5,2.7-22.1,2.7H78.8v-23h-0.3v-4.6h84
			c9,0,15.7-0.7,20-2c4.3-1.4,7.6-3.5,10-6.3c2.3-2.9,3.5-5.8,3.5-8.8c0-4.4-2.2-8.7-6.8-12.9c-4.5-4.2-11.2-7.4-20.1-9.6v3.8
			c3.6,1.1,6.4,2.7,8.3,4.7c1.9,2,2.8,4.1,2.8,6.2c0,2.6-1.4,4.7-4.2,6.4c-2.8,1.7-8.3,2.5-16.4,2.5h-81v-20.9H69v20.9H30
			c-2.1-1.3-4.3-1.9-6.7-1.9c-5.1,0-9.7,1.9-13.8,5.7c-6.2,5.7-9.3,12-9.3,18.8c0,7.3,2.7,14,8,19.8
			C13.6,1304.8,20.5,1309.2,29.2,1312z M12.7,1280.1c1.7-2,5.1-4.2,10-6.6c5-2.4,8.2-4.4,9.7-6.1c1.5-1.7,2.3-3.2,2.3-4.7
			c0-0.4-0.1-0.8-0.2-1.1c5.7,1.8,9.9,3.2,12.4,4.3c6.5,2.9,12.2,6.3,17,10c1.9,1.5,3.6,3,5.1,4.5v20h-9c-19.5,0-31.5-0.5-36.2-1.4
			c-4.7-0.9-8.1-2.4-10.4-4.5c-2.2-2.1-3.3-4.6-3.3-7.6C10.1,1284.3,11,1282.1,12.7,1280.1z"/>
		<path d="M193.3,1214.4c-3-2.1-6.5-3.2-10.7-3.2c-4.2,0-7.8,1-10.7,3.1c-3,2.1-4.4,4.6-4.4,7.7c0,3,1.5,5.5,4.4,7.6
			c2.9,2.1,6.5,3.2,10.8,3.2c4.2,0,7.8-1.1,10.7-3.2c3-2.1,4.4-4.7,4.4-7.6C197.7,1219.1,196.3,1216.5,193.3,1214.4z"/>
		<g>
			<path d="M1531.6,1309.8c-43.6,0.9-81,28.3-112.4,102c-30.9,72.6-50.6,164.2-51.8,267c1.2,102.9,21,194.5,51.8,267
				c31.4,73.8,68.8,101.1,112.4,102c43.6-0.9,81-28.3,112.4-102c30.9-72.6,50.6-164.2,51.8-267c-1.2-102.9-21-194.5-51.8-267
				C1612.7,1338.1,1575.2,1310.7,1531.6,1309.8z M1539.7,2030c-5.1,2.1-11,2.1-16.1,0c-41.1-17-88.5-129.5-89-351.1
				c0.6-221.6,48-334.2,89-351.1c5.1-2.1,11-2.1,16.1,0c41.1,17,88.5,129.5,89,351.1C1628.1,1900.5,1580.7,2013,1539.7,2030z"/>
			<path d="M2071.8,1313.2h-38.6h-14.4h-38.6l0,10.2c30.9,0,36.5,44.6,30.6,82.6l0,0l-67.6,437.4l-59.6-461.5c0,0,0,0,0,0l-3.1-23.9
				c-1.6-18.9,1-34.6,23.6-34.6l0-10.2h-46.3h-6.7H1834h-4.9H1781l0,10.2c23.3,0,33.6,17.9,39,47.8l21.4,158.8l-48.5,313.5
				l-59.6-461.5c0,0,0,0,0,0l-3.1-23.9c-1.6-18.9,1-34.6,23.6-34.6l0-10.2h-45h-8h-17.1h-3.6h-49.4l0,10.2c23.3,0,33.6,17.9,39,47.8
				l91.3,677.8v0h16.6h0l71.4-461.6l62.2,461.6l0,0h0h16.6h0l101.2-654.2v0c6.5-42.1,19-71.5,42.7-71.5L2071.8,1313.2z"/>
			<path d="M187.1,1700.6c-1.3,1.6-3.2,2.8-5.8,3.6c-2.6,0.8-7.8,1.2-15.6,1.2H65.3v4.3l15.3,26.9l4.9-1.4c-1.4-2.6-2-4.8-2-6.6
				c0-1.7,0.6-3,1.7-4c1.1-1,3.2-1.7,6.1-2.1c4-0.6,12.8-0.9,26.3-0.9h48.1c7.7,0,13,0.4,15.7,1.3s4.7,2.1,5.9,3.6
				c1,1.2,1.5,3.3,1.7,6.4h-0.1v4.6c0,5.2-1.9,9-5.7,11.4c-2.8,1.8-9.9,2.7-21.3,2.7H41c-10.4,0-17-0.7-19.9-2.1
				c-4.7-2.3-7.1-6.3-7.1-12v-4.6H9v37.4l144.7,47.2L9,1865.4v37.4h5c0-5.4,0.9-9.3,2.7-11.7c1.8-2.4,4-4.1,6.6-5
				c3.6-1.3,9.5-1.9,17.7-1.9h120.8c10.4,0,17,0.7,19.9,2.1c4.7,2.3,7.1,6.3,7.1,11.9v4.7h5v-46h-5v4.7c0,5.2-1.9,9-5.7,11.4
				c-2.8,1.8-9.9,2.6-21.3,2.6H38.3l155.6-51.1v-3.2l-155.6-51h123.6c10.4,0,17,0.7,19.9,2.1c4.7,2.3,7.1,6.2,7.1,11.9v4.7h5v-53.8
				v-2.4v-41H189C189,1696.1,188.4,1699,187.1,1700.6z"/>
			<path d="M1199.1,1313.2h-70.6h-12.4h-36.9h-30h-18.7h-4.4h-48.6v10.2c36.2,0,41.3,58.5,41.3,58.5v458.9l-182.1-527.7H810h-15.6
				h-0.3H791h-29.6h-20.2h-8.8h-24H695h-24h-28.9l4.4-28.3v0c7.6-49.2,22.2-83.5,49.9-83.5l0-12h-45.1h-16.8h-45.1l0,12
				c36.1,0,42.7,52.2,35.8,96.5l0,0l-79,511l-69.6-539.1c0,0,0,0,0,0l-3.6-27.9c-1.9-22,1.1-40.4,27.6-40.4v-12h-54.1h-7.8h-19.9
				h-5.8h-56.2v12c27.2,0,39.2,20.9,45.6,55.9l25,185.5l-56.6,366.2L301,1269.7c0,0,0,0,0,0l-3.6-27.9c-1.9-22,1.1-40.4,27.6-40.4
				l0-12h-52.6h-9.4h-19.9h-4.2h-57.7l0,12c27.2,0,39.2,20.9,45.6,55.9l106.7,791.8v0h19.4h0l83.4-539.2l72.6,539.2v0h0h19.4h0
				L642,1314.3v9.1c25.5,0,28.7,27.8,29.1,47.1v608.2c-0.3,19.3-3.6,47.1-29.1,47.1v10.2H671h61.3h17.4h48.6h4.4h48.6v-10.2
				c-36.2,0-41.3-58.5-41.3-58.5v-528.1l208.8,605.2v0h19v-59.4v0V1896v0v-514c0,0,3.6-41.2,26.2-54.5
				c21.7,13.2,22.4,54.5,22.4,54.5v585.5c0,0-1.1,58.5-37.3,58.5v10.2h48.3h31.1h70.6c166,0,168.2-361.5,168.2-361.5
				S1365.2,1313.2,1199.1,1313.2z M791,1967.4c0,0-4.6,52.1-35.5,58c-20.2-4-22.9-28.8-23.2-46.6v-608.2c0.3-16.5,2.7-39,19.1-45.4
				c28.5,9.9,39.6,58.9,39.6,59v0l0,0V1967.4z M1177.2,2015.4c0,0-28-1.2-28-10V1344c0-8.8,28-10,28-10c130.3,0,129,336.3,129,336.3
				v8.9C1306.2,1679.1,1307.5,2015.4,1177.2,2015.4z"/>
			<path d="M362.9,2108c-1.7-1.9-3.7-2.8-6.1-2.8c-2.4,0-4.7,0.7-7,2s-4.9,3.7-7.8,7.1l2.8-9.2l-13.3,2c0.1-0.8,0.1-1.7,0.1-2.5
				c0-3.3-0.8-6.4-2.4-9.5c-1.6-3-3.7-5.4-6.5-6.9c-2.8-1.6-6-2.3-9.5-2.3c-4.3,0-8.4,0.9-12.2,2.7c-3.8,1.8-7.4,4.3-10.8,7.6
				c-3.4,3.3-6.3,7.4-8.7,12.4c-2.4,4.9-3.7,9.9-3.7,15c0,2.8,0.7,5.8,2,8.8c1.3,3,3.4,5.5,6.2,7.3c2.8,1.9,6.3,2.8,10.5,2.8
				c5.8,0,11.4-1.7,16.9-5c5.4-3.4,9.8-8.2,13.2-14.6c2.6-4.9,4.2-9.6,4.8-14.2c1.3-0.2,2.3-0.3,3-0.3c0.9,0,1.5,0.2,1.9,0.6
				c0.4,0.4,0.6,1,0.6,1.7c0,0.5-0.3,1.9-0.9,4.1l-10.1,35c-1,3.4-1.9,5.4-2.7,6.2c-0.9,0.7-2.5,1.2-5,1.3l-0.4,1.5h18.8l0.4-1.5
				c-2.1,0-3.4-0.1-4.1-0.3c-0.7-0.2-1.2-0.5-1.5-1c-0.3-0.4-0.5-0.9-0.5-1.5c0-0.6,0.3-1.9,0.9-4l2.9-10.3c1.3,0.7,2.4,1.3,3.5,1.6
				c1,0.3,2.2,0.4,3.5,0.4c6.3,0,11.9-3,16.7-9.1c4.8-6.1,7.1-12,7.1-17.9C365.4,2112.3,364.6,2109.9,362.9,2108z M320.3,2118.1
				c-2.2,5.7-4.8,10.3-8,14c-2.5,2.9-5,5-7.3,6.2c-2.3,1.2-4.7,1.8-7.1,1.8c-4,0-7-1.5-8.9-4.4c-1.9-2.9-2.9-6.3-2.9-10
				c0-5.3,1.2-10.9,3.7-16.9c2-4.8,4.2-8.8,6.7-11.8c2.5-3,5-5.2,7.6-6.5c2.5-1.3,5.1-2,7.8-2c3.9,0,6.8,1.4,8.8,4.2
				c1.9,2.8,2.9,6,2.9,9.6C323.5,2107.2,322.5,2112.5,320.3,2118.1z M357.3,2123.3c-0.9,2.7-1.8,5-2.9,7c-1.1,2-2.3,3.7-3.7,5.3
				c-1.4,1.5-2.8,2.7-4.2,3.4c-1.4,0.8-2.8,1.2-4.2,1.2c-2.8,0-5-1-6.7-3l3.5-11.9c1.3-4.4,3.4-8.3,6.2-11.6c2.8-3.3,5.7-5,8.5-5
				c1.3,0,2.4,0.6,3.4,1.7c1,1.1,1.5,2.8,1.5,4.9C358.6,2117.9,358.1,2120.6,357.3,2123.3z"/>
			<path d="M384.7,2123.7c4.5-1.6,7.9-3.8,10.2-6.4c1.8-2,2.6-4.1,2.6-6.4c0-1.6-0.7-2.9-2-4.1c-1.4-1.1-3.4-1.7-6.3-1.7
				c-3.9,0-7.7,1.2-11.4,3.5c-3.7,2.3-6.8,5.5-9.2,9.7c-2.4,4.2-3.7,8.2-3.7,12.2c0,3,1,5.7,3,8.1c2,2.4,4.9,3.7,8.8,3.7
				c5.7,0,11.7-3.1,18.1-9.4l-0.8-1.2c-3.5,2.7-6.1,4.4-7.9,5.2c-1.8,0.8-3.6,1.2-5.5,1.2c-2.4,0-4.4-0.8-6.1-2.5
				c-1.7-1.7-2.5-3.7-2.5-6.1c0-0.9,0.1-2,0.3-3.3C377.6,2125.7,381.7,2124.8,384.7,2123.7z M379.2,2111.5c3-2.9,5.9-4.3,8.6-4.3
				c1.3,0,2.3,0.3,3,1c0.7,0.7,1.1,1.6,1.1,2.7c0,1.8-0.8,3.8-2.5,5.8c-1.6,2-4.1,3.8-7.4,5.3c-2.5,1.1-5.7,1.9-9.6,2.3
				C373.9,2118.7,376.1,2114.4,379.2,2111.5z"/>
			<path d="M425.2,2113.3c0.9-1.6,1.4-3.3,1.4-5c0-1-0.3-1.7-0.8-2.3c-0.5-0.5-1.2-0.8-2.1-0.8c-1.4,0-3.1,0.9-5.3,2.7
				c-3.8,3.2-8,8.7-12.7,16.7l5.8-19.4l-13.8,2.2l0.3,1.5c1.5-0.2,2.5-0.4,3.1-0.4c0.9,0,1.6,0.2,2.1,0.6c0.4,0.3,0.6,0.7,0.6,1.2
				c0,1.2-0.4,3.3-1.3,6.2l-7.4,24.8h6.1l1.3-5c0.2-0.6,0.8-2.4,1.9-5.5c0.8-2.2,1.8-4.2,2.9-6c2.6-4.2,5-7.5,7.2-10.1
				c1.4-1.7,2.5-2.7,3.2-3.1c0.4-0.2,0.8-0.3,1.3-0.3c0.3,0,0.5,0.1,0.8,0.3c0.2,0.2,0.3,0.5,0.4,1c0.1,0.8,0.4,1.4,0.8,1.8
				c0.4,0.4,1,0.6,1.6,0.6C423.7,2115.1,424.6,2114.5,425.2,2113.3z"/>
			<path d="M450.7,2132.3l7.8-27.1l-6.4,1l-1.4,4.6c-0.6-2-1.4-3.4-2.5-4.2c-1.1-0.9-2.4-1.3-4.1-1.3c-2.7,0-5.6,1.1-8.7,3.4
				c-3.9,2.8-7.1,6.6-9.7,11.3c-2.5,4.7-3.8,9.2-3.8,13.4c0,2.8,0.7,5,2.1,6.6c1.4,1.6,3.1,2.4,5,2.4c2,0,4.1-0.7,6.2-2
				c2.9-1.8,6.1-5,9.6-9.5l-0.8,3c-0.6,2.1-0.9,3.8-0.9,5.2c0,1.1,0.3,1.9,0.9,2.5c0.6,0.6,1.4,0.9,2.6,0.9c1.7,0,3.4-0.7,5.4-2.2
				c1.9-1.5,3.8-3.6,5.7-6.3l-1.4-1c-1.7,2.4-3.1,4-4.2,4.8c-0.6,0.4-1,0.6-1.4,0.6c-0.3,0-0.6-0.1-0.8-0.4
				c-0.3-0.3-0.4-0.7-0.4-1.1c0-0.2,0-0.5,0.1-0.9L450.7,2132.3z M442.3,2131.2c-3.4,4.3-6.6,6.4-9.5,6.4c-1.2,0-2.2-0.5-3.1-1.6
				c-0.9-1.1-1.4-2.5-1.4-4.3c0-3.6,1.1-7.6,3.2-12.1c2.1-4.4,4.5-7.8,7.2-10.1c1.9-1.6,3.7-2.4,5.4-2.4c1.5,0,2.7,0.5,3.6,1.5
				c0.9,1,1.3,2.6,1.3,4.9C449.1,2119.7,446.9,2125.5,442.3,2131.2z"/>
			<path d="M494.3,2096.2c0.8-0.8,1.2-1.7,1.2-2.8c0-1.1-0.4-2.1-1.2-2.8c-0.8-0.8-1.7-1.2-2.8-1.2c-1.1,0-2.1,0.4-2.8,1.2
				c-0.8,0.8-1.2,1.7-1.2,2.8c0,1.1,0.4,2,1.2,2.8c0.8,0.8,1.7,1.2,2.8,1.2S493.5,2096.9,494.3,2096.2z"/>
			<path d="M492,2105.2l-12.2,2l0.3-1h-6.3l3.1-10.9h-1.8c-2.4,3.9-4.6,6.7-6.5,8.2c-1.9,1.6-4.4,2.8-7.3,3.6l-0.4,1.6h6l-6.7,23.1
				c-0.9,3-1.3,5.2-1.3,6.6c0,1.1,0.4,2.1,1.1,2.8c0.7,0.7,1.7,1.1,2.9,1.1c1.5,0,3-0.5,4.5-1.5c2.2-1.5,4.5-4,6.9-7.5l-1.3-1
				c-2.2,2.7-3.6,4.4-4.3,4.9c-1.1,0.9-2,1.4-2.6,1.4c-0.3,0-0.5-0.1-0.8-0.4c-0.2-0.2-0.3-0.6-0.3-1c0-0.7,0.4-2.4,1.1-4.9
				l6.9-23.6h5v0.3c1.8-0.3,3-0.4,3.6-0.4c0.7,0,1.3,0.2,1.7,0.6c0.4,0.4,0.6,0.9,0.6,1.4c0,0.7-0.4,2.6-1.3,5.5l-5.2,17.9
				c-0.7,2.3-1,3.9-1,4.9c0,1,0.3,1.8,1,2.5c0.7,0.7,1.6,1,2.7,1c1.7,0,3.4-0.7,5.2-2.1c2.4-1.9,4.6-4.2,6.4-7l-1.4-0.9
				c-1.5,2.2-3.1,3.9-4.6,5.1c-0.6,0.4-1,0.6-1.4,0.6c-0.3,0-0.6-0.1-0.9-0.4c-0.3-0.3-0.4-0.6-0.4-1c0-0.4,0.3-1.5,0.8-3.4
				L492,2105.2z"/>
			<path d="M527,2132.4c-1.7,2.3-3.2,4-4.6,5.1c-0.5,0.3-0.8,0.5-1.2,0.5c-0.2,0-0.5-0.1-0.7-0.4c-0.2-0.3-0.3-0.6-0.3-0.9
				c0-0.4,0.3-1.6,0.8-3.6l4.9-16.8c0.8-2.7,1.2-4.8,1.2-6.4c0-1.4-0.4-2.6-1.3-3.4c-0.9-0.9-2-1.3-3.3-1.3c-2.4,0-5,1.2-7.6,3.5
				c-2.6,2.3-6.5,7.2-11.4,14.7l5.3-18.2l-13.8,2.5l0.2,1.4l1.5-0.2c0.8-0.1,1.4-0.2,1.7-0.2c0.7,0,1.3,0.2,1.7,0.7
				c0.5,0.4,0.7,1,0.7,1.5c0,0.6-0.4,2.4-1.3,5.4l-7.3,25h6l2-6.6c0.8-2.7,1.9-5.2,3.1-7.4c2.4-4.3,4.6-7.8,6.7-10.6
				c2.1-2.8,4.2-4.7,6.2-5.9c1-0.6,1.9-1,2.7-1c0.5,0,0.9,0.2,1.3,0.5c0.3,0.3,0.5,0.8,0.5,1.3c0,1.1-0.3,2.7-0.9,4.7l-4.6,16.1
				c-0.9,3.1-1.4,5.3-1.4,6.6c0,1,0.3,1.8,0.9,2.4c0.6,0.6,1.4,0.9,2.4,0.9c1.2,0,2.6-0.5,4.2-1.6c2.2-1.5,4.6-4,7-7.6L527,2132.4z"
				/>
			<path d="M554.5,2105.8c-1.3-0.4-2.9-0.6-4.9-0.6c-5.5,0-9.9,1.5-13.2,4.5c-3.3,3-5,6.4-5,10.1c0,2.3,0.9,4.4,2.6,6.3
				c1.7,1.9,4,3.1,7,3.7c-3.5,1.4-5.8,2.8-6.8,4c-1.1,1.2-1.6,2.3-1.6,3.4c0,1.1,0.6,2.2,1.8,3.2c-3.4,1.9-5.4,3.1-6.1,3.6
				c-1.1,0.8-2.1,1.8-2.9,3.1c-0.8,1.2-1.1,2.4-1.1,3.6c0,1.4,0.6,2.8,1.8,4.1c1.2,1.3,3.1,2.4,5.8,3.2c2.7,0.8,5.7,1.2,9,1.2
				c3.8,0,7.2-0.5,10.3-1.5c3.1-1,5.5-2.4,7.1-4.3c1.6-1.8,2.4-3.8,2.4-6c0-1.8-0.7-3.5-2-4.9c-1.4-1.4-4.2-2.6-8.5-3.6l-7.7-1.8
				c-1.9-0.5-3.2-0.9-3.6-1.3c-0.5-0.4-0.7-0.9-0.7-1.5c0-0.5,0.3-0.9,0.8-1.3c1.4-1.2,3.5-2.2,6.4-3c5.2-0.3,9.4-1.8,12.4-4.6
				c3-2.7,4.5-5.9,4.5-9.4c0-1.3-0.3-2.6-0.8-4h6.7l1.2-4.2h-10.8C557,2106.8,555.8,2106.2,554.5,2105.8z M548.4,2144.3
				c2.9,0.6,4.8,1.3,5.8,2.3c1,0.9,1.5,1.9,1.5,3c0,2.1-1.4,3.7-4.1,5c-2.7,1.3-6,1.9-9.8,1.9c-4.4,0-7.8-0.8-10.1-2.5
				c-1.6-1.1-2.4-2.6-2.4-4.4c0-1.5,0.6-3,1.7-4.6c1.1-1.5,2.7-2.8,4.9-3.8C542.7,2143,546.8,2144,548.4,2144.3z M554.3,2118.5
				c-0.5,2.1-1.3,3.8-2.2,5.2c-0.9,1.4-2,2.4-3.3,3.2c-1.3,0.8-2.7,1.2-4.1,1.2c-1.8,0-3.3-0.7-4.6-2c-1.3-1.3-1.9-3-1.9-5
				c0-3.3,1-6.4,2.9-9.4c2-3,4.4-4.5,7.4-4.5c1.9,0,3.5,0.6,4.7,1.8c1.2,1.2,1.8,2.9,1.8,5C555.1,2114.9,554.9,2116.4,554.3,2118.5z
				"/>
			<path d="M611.8,2134.5c1.5-2.6,2.2-5.2,2.2-8c0-2.4-0.6-4.7-1.8-6.8c-1.2-2.1-3.7-5.1-7.7-8.9c-4-3.8-6.5-6.6-7.6-8.3
				c-1.1-1.7-1.7-3.5-1.7-5.3c0-2.1,0.9-4,2.6-5.6c1.7-1.6,4-2.4,6.7-2.4c3.5,0,6.3,1,8.4,3.1c2.1,2.1,3.2,4.7,3.2,7.9
				c0,1-0.1,2.3-0.2,3.9h1.4l4.2-18H620c-0.7,1.3-1.4,2.2-2,2.6c-0.6,0.4-1.2,0.6-2,0.6c-0.5,0-0.9,0-1.2-0.1c-0.2-0.1-1-0.4-2.6-1
				c-2.2-0.9-3.7-1.4-4.5-1.6c-1.3-0.3-2.7-0.4-4.2-0.4c-4.4,0-8,1.3-10.9,4c-2.8,2.7-4.2,5.9-4.2,9.7c0,2.4,0.6,4.6,1.8,6.8
				c0.7,1.3,2.4,3.3,5.1,6c5.4,5.6,8.8,9.5,10,11.7c0.8,1.5,1.2,3.1,1.2,5c0,2.8-0.9,5.3-2.7,7.4c-1.8,2.1-4.5,3.2-7.9,3.2
				c-3.8,0-6.8-1.1-9.1-3.4c-2.3-2.3-3.5-5.3-3.5-8.9c0-1.3,0.1-2.9,0.3-4.8h-1.4l-4.5,20.1h1.5c0.9-2.1,2.1-3.2,3.7-3.2
				c0.7,0,1.6,0.2,2.6,0.6c3,1.1,5.2,1.9,6.6,2.2c1.4,0.3,2.9,0.4,4.5,0.4c3.2,0,6.2-0.7,8.9-2.1
				C608.3,2139.1,610.4,2137.1,611.8,2134.5z"/>
			<path d="M648.8,2110.7c0-1.7-0.4-3-1.2-4c-0.8-1-1.8-1.5-3-1.5c-1,0-1.8,0.3-2.4,1c-0.6,0.7-1,1.5-1,2.6c0,0.9,0.3,1.7,0.8,2.3
				c0.5,0.7,1.2,1.1,2,1.4c0.8,0.3,1.3,0.5,1.5,0.7c0.2,0.2,0.3,0.4,0.3,0.7c0,0.5-0.1,0.9-0.2,1.3c-0.3,0.9-1.1,2.3-2.4,4.5
				c-2.2,3.5-4,6.2-5.4,8.3c-3,4.2-5.4,7.2-6.9,9.1l-1.8-19.6c-0.3-3.9-0.7-6.6-1-7.9c-0.3-1.3-1-2.8-1.9-4.3l-11.7,2.9l0.4,1.5
				c1.4-0.2,2.4-0.2,3-0.2c1.8,0,3,0.5,3.8,1.4c0.7,0.9,1.3,3.4,1.7,7.6l2.2,25.3c-1.2,1.7-3.1,3.8-5.7,6.4c-1.9,2-3.6,3.4-5.1,4.3
				c-0.4,0.3-0.7,0.4-0.8,0.4c-0.2,0-0.3-0.1-0.5-0.2c-0.2-0.2-0.4-0.6-0.7-1.3c-0.3-0.6-0.5-1-0.7-1.1c-0.3-0.2-0.8-0.4-1.3-0.4
				c-1,0-2,0.4-2.8,1.3c-0.9,0.9-1.3,1.8-1.3,2.8c0,0.8,0.3,1.6,0.9,2.2c0.6,0.6,1.4,0.9,2.2,0.9c1.4,0,3-0.6,5-1.8
				c1.9-1.2,4.9-4.1,8.9-8.6c5.8-6.6,10.8-12.7,14.9-18.3c4.1-5.6,6.9-9.7,8.3-12.4C648,2115.2,648.8,2112.8,648.8,2110.7z"/>
			<path d="M669.2,2107.1c-0.5,0-1.4-0.3-2.7-0.8c-1.4-0.5-2.2-0.8-2.6-0.9c-0.7-0.1-1.5-0.2-2.3-0.2c-3,0-5.4,0.9-7.2,2.7
				s-2.8,4-2.8,6.5c0,1.4,0.3,2.8,1,4.2c0.7,1.4,2.2,3.5,4.6,6.3c2.4,2.8,3.9,5,4.7,6.6c0.4,0.9,0.6,1.9,0.6,3c0,1.7-0.6,3-1.8,4.2
				c-1.2,1.1-2.8,1.7-4.8,1.7c-2.6,0-4.7-0.8-6.2-2.5c-1.5-1.7-2.4-4.5-2.5-8.6h-1.5l-2.4,12.9h1.5c0.6-1.2,1.5-1.8,2.7-1.8
				c0.5,0,1.2,0.2,2,0.5c2.5,0.9,4.7,1.4,6.6,1.4c3.5,0,6.4-1.1,8.7-3.2c2.3-2.1,3.5-4.6,3.5-7.4c0-1.7-0.5-3.5-1.5-5.4
				c-1-1.9-3.2-4.8-6.7-8.5c-1.3-1.4-2.2-2.6-2.5-3.4c-0.4-0.8-0.6-1.6-0.6-2.5c0-1.3,0.5-2.4,1.5-3.3c1-0.9,2.3-1.4,3.9-1.4
				c2.1,0,3.8,0.8,5.2,2.4c1.4,1.6,2.1,4.2,2.3,7.8h1.5l2.4-12.3h-1.5C671.3,2106.5,670.4,2107.1,669.2,2107.1z"/>
			<path d="M683.8,2137.2c-1.1,0.9-2,1.4-2.6,1.4c-0.3,0-0.5-0.1-0.8-0.4c-0.2-0.2-0.3-0.6-0.3-1c0-0.7,0.4-2.4,1.1-4.9l6.9-23.6
				h6.2l0.7-2.5h-6.3l3.1-10.9H690c-2.4,3.9-4.6,6.7-6.5,8.2c-1.9,1.6-4.4,2.8-7.3,3.6l-0.4,1.6h6l-6.7,23.1c-0.9,3-1.3,5.2-1.3,6.6
				c0,1.1,0.4,2.1,1.1,2.8c0.7,0.7,1.7,1.1,2.9,1.1c1.5,0,3-0.5,4.5-1.5c2.2-1.5,4.5-4,6.9-7.5l-1.3-1
				C685.8,2135,684.4,2136.6,683.8,2137.2z"/>
			<path d="M711.7,2137c-1.8,0.8-3.6,1.2-5.5,1.2c-2.4,0-4.4-0.8-6.1-2.5c-1.7-1.7-2.5-3.7-2.5-6.1c0-0.9,0.1-2,0.3-3.3
				c5.4-0.6,9.6-1.5,12.6-2.6c4.5-1.6,7.9-3.8,10.2-6.4c1.8-2,2.6-4.1,2.6-6.4c0-1.6-0.7-2.9-2-4.1c-1.4-1.1-3.4-1.7-6.3-1.7
				c-3.9,0-7.7,1.2-11.4,3.5c-3.7,2.3-6.8,5.5-9.2,9.7c-2.5,4.2-3.7,8.2-3.7,12.2c0,3,1,5.7,3,8.1c2,2.4,4.9,3.7,8.8,3.7
				c5.7,0,11.7-3.1,18.1-9.4l-0.8-1.2C716.1,2134.5,713.4,2136.2,711.7,2137z M704.8,2111.5c3-2.9,5.9-4.3,8.6-4.3
				c1.3,0,2.3,0.3,3,1c0.7,0.7,1.1,1.6,1.1,2.7c0,1.8-0.8,3.8-2.5,5.8c-1.6,2-4.1,3.8-7.4,5.3c-2.5,1.1-5.7,1.9-9.6,2.3
				C699.5,2118.7,701.8,2114.4,704.8,2111.5z"/>
			<path d="M769,2136.9c-0.7,0.5-1.1,0.8-1.4,0.8s-0.5-0.1-0.6-0.3c-0.2-0.3-0.4-0.6-0.4-1c0-0.4,0.5-2.2,1.4-5.6l4.4-15.5
				c0.5-1.7,0.7-3.4,0.7-4.9c0-1.8-0.4-3.1-1.2-3.9c-0.8-0.8-1.8-1.3-3-1.3c-2.1,0-4.2,0.9-6.4,2.7c-3.9,3.3-8,9-12.3,17.1l2.8-10.1
				c0.6-2.1,0.9-3.8,0.9-5.1c0-1.3-0.4-2.4-1.3-3.3c-0.9-0.9-2-1.3-3.3-1.3c-1.5,0-3,0.4-4.4,1.3c-2.4,1.5-4.9,3.9-7.4,7.2
				c-1.6,2.1-3.6,5.3-5.9,9.5l5.2-18l-13.8,2.5l0.4,1.5c1.6-0.3,2.5-0.5,2.9-0.5c0.8,0,1.5,0.2,2,0.7c0.5,0.5,0.8,1,0.8,1.6
				c0,0.2-0.1,0.6-0.3,1.1l-1,3.4l-7.4,25.9h5.9c2.5-7.9,4.1-12.6,4.8-14.1c1.4-3.1,3.3-6.4,5.9-9.8c2.5-3.4,4.6-5.6,6.2-6.7
				c1-0.6,1.9-1,2.8-1c0.4,0,0.8,0.2,1.1,0.5c0.3,0.3,0.4,0.9,0.4,1.6c0,0.9-0.4,2.6-1.1,5.2l-6.8,24.2h6c1.8-6.3,3.8-11.4,5.9-15.5
				c3.2-6.1,6.6-10.8,10.3-14.2c1.3-1.1,2.4-1.7,3.6-1.7c0.4,0,0.8,0.2,1.1,0.6c0.3,0.4,0.4,0.9,0.4,1.6c0,0.5,0,1-0.1,1.5
				c-0.1,0.3-0.5,2-1.3,4.9l-3.6,12.8c-1.1,3.9-1.6,6.4-1.6,7.7c0,0.9,0.3,1.7,0.9,2.4c0.6,0.6,1.4,1,2.3,1c1,0,2.1-0.3,3.3-1
				c1.2-0.7,2.6-1.9,4.3-3.8c1.7-1.9,2.9-3.3,3.5-4.4l-1.3-0.8C772,2134.2,770.6,2135.7,769,2136.9z"/>
			<path d="M890.5,2092.6c1.5-1.4,2.9-2.5,4.4-3.2c0.8-0.4,1.8-0.7,3.1-0.8l0.4-1.5h-16.3l-0.5,1.5c1.7,0.1,2.8,0.4,3.4,1
				c0.6,0.5,0.9,1.2,0.9,1.9c0,0.6-0.2,1.3-0.6,2.2c-0.6,1.2-2,3.4-4.3,6.5l-21.1,28.8l3.2-32.3c0.3-2.7,0.6-4.4,0.8-5
				c0.5-1.1,1.2-1.9,2.1-2.3c0.9-0.5,2.5-0.7,4.8-0.7l0.4-1.5h-21.4l-0.4,1.5h1.4c1.9,0,3.3,0.4,4.2,1.2c0.9,0.8,1.3,1.8,1.3,3
				c0,0.8-0.1,2.3-0.3,4.6l-4.5,45.1h1.4l30.5-41.5C886.7,2096.8,889,2094,890.5,2092.6z"/>
			<path d="M897.2,2123.7c4.5-1.6,7.9-3.8,10.2-6.4c1.8-2,2.6-4.1,2.6-6.4c0-1.6-0.7-2.9-2-4.1c-1.4-1.1-3.4-1.7-6.3-1.7
				c-3.9,0-7.7,1.2-11.4,3.5c-3.7,2.3-6.8,5.5-9.2,9.7c-2.5,4.2-3.7,8.2-3.7,12.2c0,3,1,5.7,3,8.1c2,2.4,4.9,3.7,8.8,3.7
				c5.7,0,11.7-3.1,18.1-9.4l-0.8-1.2c-3.5,2.7-6.1,4.4-7.9,5.2c-1.8,0.8-3.6,1.2-5.5,1.2c-2.4,0-4.4-0.8-6.1-2.5
				c-1.7-1.7-2.5-3.7-2.5-6.1c0-0.9,0.1-2,0.3-3.3C890,2125.7,894.2,2124.8,897.2,2123.7z M891.6,2111.5c3-2.9,5.9-4.3,8.6-4.3
				c1.3,0,2.3,0.3,3,1c0.7,0.7,1.1,1.6,1.1,2.7c0,1.8-0.8,3.8-2.5,5.8c-1.6,2-4.1,3.8-7.4,5.3c-2.5,1.1-5.7,1.9-9.6,2.3
				C886.3,2118.7,888.6,2114.4,891.6,2111.5z"/>
			<path d="M932.5,2112.6c0.1,0.8,0.4,1.4,0.8,1.8s1,0.6,1.6,0.6c1.2,0,2.1-0.6,2.8-1.8c0.9-1.6,1.4-3.3,1.4-5c0-1-0.3-1.7-0.8-2.3
				c-0.5-0.5-1.2-0.8-2.1-0.8c-1.4,0-3.1,0.9-5.3,2.7c-3.8,3.2-8,8.7-12.7,16.7l5.8-19.4l-13.8,2.2l0.3,1.5c1.5-0.2,2.5-0.4,3.1-0.4
				c0.9,0,1.6,0.2,2.1,0.6c0.4,0.3,0.6,0.7,0.6,1.2c0,1.2-0.4,3.3-1.3,6.2l-7.4,24.8h6.1l1.3-5c0.2-0.6,0.8-2.4,1.9-5.5
				c0.8-2.2,1.8-4.2,2.9-6c2.6-4.2,5-7.5,7.2-10.1c1.4-1.7,2.5-2.7,3.2-3.1c0.4-0.2,0.8-0.3,1.3-0.3c0.3,0,0.5,0.1,0.8,0.3
				C932.4,2111.8,932.5,2112.1,932.5,2112.6z"/>
			<path d="M957.8,2107.1c-0.5,0-1.4-0.3-2.7-0.8c-1.4-0.5-2.2-0.8-2.6-0.9c-0.7-0.1-1.5-0.2-2.3-0.2c-3,0-5.4,0.9-7.2,2.7
				c-1.9,1.8-2.8,4-2.8,6.5c0,1.4,0.3,2.8,1,4.2c0.7,1.4,2.2,3.5,4.6,6.3c2.4,2.8,3.9,5,4.7,6.6c0.4,0.9,0.6,1.9,0.6,3
				c0,1.7-0.6,3-1.8,4.2c-1.2,1.1-2.8,1.7-4.8,1.7c-2.6,0-4.7-0.8-6.2-2.5c-1.5-1.7-2.4-4.5-2.5-8.6h-1.5l-2.4,12.9h1.5
				c0.6-1.2,1.5-1.8,2.7-1.8c0.5,0,1.2,0.2,2,0.5c2.5,0.9,4.7,1.4,6.6,1.4c3.5,0,6.4-1.1,8.7-3.2c2.3-2.1,3.5-4.6,3.5-7.4
				c0-1.7-0.5-3.5-1.5-5.4c-1-1.9-3.2-4.8-6.7-8.5c-1.3-1.4-2.2-2.6-2.5-3.4c-0.4-0.8-0.6-1.6-0.6-2.5c0-1.3,0.5-2.4,1.5-3.3
				c1-0.9,2.3-1.4,3.9-1.4c2,0,3.8,0.8,5.2,2.4c1.4,1.6,2.1,4.2,2.3,7.8h1.5l2.4-12.3h-1.5C959.9,2106.5,959,2107.1,957.8,2107.1z"
				/>
			<path d="M980.2,2096.2c0.8-0.8,1.2-1.7,1.2-2.8c0-1.1-0.4-2.1-1.2-2.8c-0.8-0.8-1.7-1.2-2.8-1.2c-1.1,0-2.1,0.4-2.8,1.2
				c-0.8,0.8-1.2,1.7-1.2,2.8c0,1.1,0.4,2,1.2,2.8c0.8,0.8,1.7,1.2,2.8,1.2S979.5,2096.9,980.2,2096.2z"/>
			<path d="M977.9,2105.2l-13.8,2.2v1.6c1.8-0.3,3-0.4,3.6-0.4c0.7,0,1.3,0.2,1.7,0.6c0.4,0.4,0.6,0.9,0.6,1.4
				c0,0.7-0.4,2.6-1.3,5.5l-5.2,17.9c-0.7,2.3-1,3.9-1,4.9c0,1,0.3,1.8,1,2.5c0.7,0.7,1.6,1,2.7,1c1.7,0,3.4-0.7,5.2-2.1
				c2.4-1.9,4.6-4.2,6.4-7l-1.4-0.9c-1.5,2.2-3.1,3.9-4.6,5.1c-0.6,0.4-1,0.6-1.4,0.6c-0.3,0-0.6-0.1-0.9-0.4
				c-0.3-0.3-0.4-0.6-0.4-1c0-0.4,0.3-1.5,0.8-3.4L977.9,2105.2z"/>
			<path d="M1011,2108.7c-2.3-2.3-5.2-3.5-8.7-3.5s-7.2,1.1-10.9,3.4c-3.8,2.3-6.8,5.4-9,9.3c-2.2,3.9-3.4,7.9-3.4,11.8
				c0,3.7,1.2,6.7,3.5,9c2.3,2.3,5.3,3.5,8.9,3.5c3.6,0,7.2-1.1,11-3.4c3.8-2.3,6.7-5.4,8.8-9.3c2.1-3.9,3.2-7.9,3.2-11.9
				C1014.4,2114,1013.3,2111,1011,2108.7z M1002.9,2131.9c-3.3,5.6-6.8,8.4-10.6,8.4c-1.9,0-3.6-0.7-4.8-2.1
				c-1.3-1.4-1.9-3.3-1.9-5.9c0-5.5,1.6-11.1,4.9-16.7c3.3-5.6,6.9-8.4,10.8-8.4c1.9,0,3.5,0.7,4.7,2c1.2,1.3,1.8,3.2,1.8,5.7
				C1007.8,2120.7,1006.2,2126.4,1002.9,2131.9z"/>
			<path d="M1044,2137.5c-0.5,0.3-0.8,0.5-1.2,0.5c-0.2,0-0.5-0.1-0.7-0.4c-0.2-0.3-0.3-0.6-0.3-0.9c0-0.4,0.3-1.6,0.8-3.6l4.9-16.8
				c0.8-2.7,1.2-4.8,1.2-6.4c0-1.4-0.4-2.6-1.3-3.4c-0.9-0.9-2-1.3-3.3-1.3c-2.4,0-5,1.2-7.6,3.5c-2.6,2.3-6.5,7.2-11.4,14.7
				l5.3-18.2l-13.8,2.5l0.2,1.4l1.5-0.2c0.8-0.1,1.4-0.2,1.7-0.2c0.7,0,1.3,0.2,1.7,0.7c0.5,0.4,0.7,1,0.7,1.5
				c0,0.6-0.4,2.4-1.3,5.4l-7.3,25h6l2-6.6c0.8-2.7,1.9-5.2,3.1-7.4c2.4-4.3,4.6-7.8,6.7-10.6c2.1-2.8,4.2-4.7,6.1-5.9
				c1-0.6,1.9-1,2.7-1c0.5,0,0.9,0.2,1.3,0.5c0.3,0.3,0.5,0.8,0.5,1.3c0,1.1-0.3,2.7-0.9,4.7l-4.6,16.1c-0.9,3.1-1.4,5.3-1.4,6.6
				c0,1,0.3,1.8,0.9,2.4s1.4,0.9,2.4,0.9c1.2,0,2.6-0.5,4.2-1.6c2.2-1.5,4.6-4,7-7.6l-1.2-0.8
				C1046.9,2134.7,1045.4,2136.4,1044,2137.5z"/>
			<path d="M1089.7,2086.1c-2.6,0-5,0.8-7.1,2.4c-2.2,1.6-3.9,3.9-5.3,7l1.5,0.4c2.3-3.7,5-5.6,7.9-5.6c1.9,0,3.5,0.7,4.8,2.1
				c1.3,1.4,2,3.1,2,5.2c0,2.8-1.1,5.2-3.4,7.2c-3.2,2.8-8,4.8-14.4,5.8v1.2c2.7,0.2,5.2,0.9,7.4,2.1c2.3,1.2,3.9,2.9,5,4.9
				c1.1,2,1.6,4.3,1.6,6.8c0,3.1-0.8,6.1-2.3,8.9c-1.6,2.8-3.5,4.2-5.9,4.2c-1,0-1.9-0.2-2.9-0.5c-0.9-0.3-2.2-0.9-3.9-1.9
				c-1.7-0.9-2.7-1.5-3.1-1.6c-0.7-0.2-1.4-0.3-2.1-0.3c-1,0-1.8,0.3-2.5,1c-0.7,0.7-1,1.5-1,2.4c0,1.1,0.6,2,1.7,2.8
				c1.7,1.2,4.3,1.8,7.6,1.8c3.7,0,7.2-0.9,10.5-2.7s6-4.4,7.9-7.7c1.9-3.3,2.9-6.7,2.9-10c0-3-0.7-5.6-2.1-7.7
				c-1.4-2.1-3.5-3.8-6.3-4.9c4.4-1.8,7.6-3.8,9.4-6.1c1.8-2.3,2.7-4.6,2.7-7.1c0-2.9-1-5.3-2.9-7.1
				C1095.4,2087,1092.9,2086.1,1089.7,2086.1z"/>
			<path d="M1105.6,2134.2c-1.1,0-2.1,0.4-2.9,1.2c-0.8,0.8-1.2,1.7-1.2,2.9s0.4,2.1,1.2,2.9c0.8,0.8,1.7,1.2,2.9,1.2
				c1.1,0,2.1-0.4,2.9-1.2c0.8-0.8,1.2-1.7,1.2-2.9s-0.4-2.1-1.2-2.9C1107.7,2134.6,1106.8,2134.2,1105.6,2134.2z"/>
			<path d="M1148.2,2086.1h-1.9l-13.5,3.8l0.5,1.4c1.5-0.3,2.5-0.5,3.2-0.5c0.9,0,1.6,0.3,2.1,0.8c0.5,0.5,0.8,1.3,0.8,2.2
				c0,0.5,0,1-0.1,1.6c-0.1,0.3-0.4,1.4-0.9,3.4l-9.3,32.1c-0.9,3.2-1.8,5.4-2.7,6.6c-0.6,0.8-1.4,1.4-2.5,1.9
				c-0.7,0.3-2.1,0.5-4.3,0.5l-0.6,1.5h20.6l0.4-1.5c-2.5-0.2-4.1-0.5-4.8-1.1c-0.7-0.5-1-1.3-1-2.3c0-1.2,0.4-3.1,1.1-5.7
				L1148.2,2086.1z"/>
		</g>
	</g>
</g>
</svg>
