<?xml version="1.0" encoding="utf-8"?>
<!-- Generator: Adobe Illustrator 26.3.1, SVG Export Plug-In . SVG Version: 6.00 Build 0)  -->
<svg version="1.1" id="Layer_1" xmlns="http://www.w3.org/2000/svg" xmlns:xlink="http://www.w3.org/1999/xlink" x="0px" y="0px"
	 viewBox="0 0 3839 1249.9" style="enable-background:new 0 0 3839 1249.9;" xml:space="preserve">
<style type="text/css">
	.st0{fill:#C5B9A4;}
	.st1{fill:#FFFFFF;}
	.st2{fill:#FFFFFF;stroke:#FFFFFF;stroke-width:29.6135;stroke-linecap:round;stroke-linejoin:round;stroke-miterlimit:10;}
	.st3{fill:#FF1E00;}
</style>
<g>
	<g>
		<g>
			<g>
				<g>
					<g>
						<g>
							<path class="st0" d="M72.8,1235.1c-0.7,0-1.3,0-2-0.1c-31.1-1-56.1-26.7-56.1-58V447.5c0-32,26-58,58-58l440.5,0.1
								c32,0,58,26,58,58v729.4c0,32-26,58-58,58H72.8z M148.4,505.7c-9.6,0.7-17.3,8.7-17.3,18.5v576c0,10.2,8.3,18.6,18.6,18.6
								h196.7c10.2,0,18.6-8.3,18.6-18.6V944.3c0-32,26-58,58-58h13.7c10.2,0,18.6-8.4,18.6-18.7V524.3c0-10.2-8.3-18.6-18.6-18.6
								h-287C149.2,505.8,148.8,505.8,148.4,505.7z"/>
							<path class="st1" d="M72.8,404.3l440.5,0.1c23.8,0,43.2,19.3,43.2,43.2v729.4c0,23.8-19.3,43.2-43.2,43.2H72.8v-0.1
								c-23.8,0-43.2-19.3-43.2-43.2V447.5C29.6,423.7,49,404.3,72.8,404.3 M149.6,1133.5h196.7c18.5,0,33.4-15,33.4-33.4V944.3
								c0-23.8,19.3-43.2,43.2-43.2h13.7c18.5,0,33.4-15,33.4-33.5V524.3c0-18.5-15-33.4-33.4-33.4h-287v-0.1
								c-18.5,0-33.4,15-33.4,33.4v576C116.3,1118.6,131.3,1133.5,149.6,1133.5 M72.9,374.7C72.9,374.7,72.8,374.7,72.9,374.7
								C32.7,374.7,0,407.4,0,447.5V1177c0,39.1,31,71.1,69.7,72.8c1,0.1,2.1,0.2,3.2,0.2h440.5c40.2,0,72.8-32.7,72.8-72.8V447.6
								c0-40.2-32.7-72.8-72.8-72.8L72.9,374.7L72.9,374.7z M149.6,1103.9c-2.1,0-3.7-1.7-3.7-3.7v-576c0-1.8,1.3-3.3,2.9-3.7
								c0.3,0,0.5,0,0.8,0h287c2.1,0,3.7,1.7,3.7,3.7v343.3c0,2.1-1.7,3.8-3.7,3.8H423c-40.2,0-72.8,32.7-72.8,72.8v155.9
								c0,2.1-1.7,3.7-3.7,3.7H149.6L149.6,1103.9z"/>
						</g>
						<path class="st2" d="M72.8,409.2l440.5,0.1c21.1,0,38.3,17.1,38.3,38.3v8.9V486v420.1v232.6v17.4v21
							c0,21.1-17.1,38.3-38.3,38.3H475H111.2H72.8c-21.1,0-38.3-17.1-38.3-38.3v-38.4V485.9v-29.5v-8.9
							C34.5,426.4,51.7,409.2,72.8,409.2 M149.6,1138.5h196.7c21.1,0,38.3-17.1,38.3-38.3V944.3c0-21.1,17.1-38.3,38.3-38.3h13.7
							c21.2,0,38.3-17.2,38.3-38.4V524.3c0-21.1-17.1-38.3-38.3-38.3h-287c-21.1,0-38.3,17.1-38.3,38.3v576
							C111.3,1121.3,128.5,1138.5,149.6,1138.5 M72.8,399.4L72.8,399.4L72.8,399.4c-26.5,0-48.1,21.6-48.1,48.2v8.9v29.5v652.7v38.4
							c0,26.6,21.6,48.1,48.1,48.1h38.4H475h38.4c26.6,0,48.1-21.6,48.1-48.1v-21v-17.4V906V486v-29.5v-8.9
							c0-26.6-21.6-48.1-48.1-48.1L72.8,399.4L72.8,399.4z M149.6,1128.7c-15.7,0-28.4-12.7-28.4-28.4v-576
							c0-15.7,12.7-28.4,28.4-28.4h287c15.7,0,28.4,12.7,28.4,28.4v343.4c0,15.8-12.7,28.5-28.4,28.5H423
							c-26.6,0-48.1,21.6-48.1,48.1v155.9c0,15.7-12.7,28.4-28.4,28.4L149.6,1128.7L149.6,1128.7z"/>
					</g>
					<g>
						<g>
							<path class="st0" d="M1407,1235.1c-32.1,0-58.1-26.1-58.1-58.1V903.6c0-16.7-7.3-32.4-20-43.2l-106.4-90.8
								c-12.9-11-20.4-27.1-20.4-44.1V447.6c0-32.1,26.1-58.1,58.1-58.1s58.1,26.1,58.1,58.1V690c0,5.5,2.4,10.6,6.6,14.2l103,87.8
								c6.8,5.8,15.4,9,24.3,9c8.9,0,17.6-3.2,24.3-9l103.1-87.9c4.2-3.5,6.5-8.7,6.5-14.2V447.6c0-32.1,26.1-58.1,58.1-58.1
								c32.1,0,58.1,26.1,58.1,58.1v277.7c0,17.1-7.4,33.2-20.4,44.2l-106.4,90.8c-12.7,10.8-20,26.6-20,43.2V1177
								c0,32.1-26.1,58.1-58.1,58.1H1407z"/>
							<path class="st1" d="M1644.4,404.3c23.9,0,43.3,19.4,43.3,43.3v277.7c0,12.7-5.5,24.7-15.2,32.9L1566.1,849
								c-16,13.6-25.2,33.5-25.2,54.5V1177c0,23.9-19.4,43.3-43.3,43.3H1407c-23.9,0-43.3-19.4-43.3-43.3V903.6
								c0-21-9.2-40.9-25.2-54.5l-106.4-90.8c-9.7-8.2-15.2-20.2-15.2-32.9V447.6c0-23.9,19.4-43.3,43.3-43.3s43.3,19.4,43.3,43.3
								V690c0,9.8,4.2,19.1,11.7,25.5l103,87.8c9.5,8.1,21.5,12.5,34,12.5s24.5-4.4,34-12.5l103-87.8c7.5-6.3,11.7-15.6,11.7-25.5
								V447.6C1601,423.7,1620.5,404.3,1644.4,404.3 M1644.4,374.7c-40.2,0-72.9,32.7-72.9,72.9V690c0,0.8-0.2,2-1.2,2.8
								c0,0-0.1,0.1-0.1,0.1l-103,87.8c-4.1,3.5-9.4,5.5-14.7,5.5s-10.6-1.9-14.7-5.4l-103.1-87.9c-0.9-0.7-1.3-1.8-1.3-2.9V447.6
								c0-40.2-32.7-72.9-72.9-72.9c-40.2,0-72.9,32.7-72.9,72.9v277.8c0,21.4,9.3,41.6,25.6,55.4l106.4,90.8
								c9.4,8,14.8,19.7,14.8,32V1177c0,40.2,32.7,72.9,72.9,72.9h90.6c40.2,0,72.9-32.7,72.9-72.9V903.5c0-12.3,5.4-24,14.8-31.9
								l106.4-90.8c16.3-13.8,25.6-34,25.6-55.4V447.6C1717.3,407.4,1684.6,374.7,1644.4,374.7L1644.4,374.7z"/>
						</g>
						<path class="st2" d="M1644.2,409.2c21.2,0,38.4,17.2,38.4,38.4v277.7c0,11.2-4.9,21.9-13.4,29.1l-106.4,90.8
							c-17.1,14.5-26.9,35.8-26.9,58.2V1177c0,21.2-17.2,38.4-38.4,38.4h-90.3c-21.2,0-38.4-17.2-38.4-38.4V903.6
							c0-22.4-9.8-43.7-26.9-58.2l-106.4-90.8c-8.6-7.3-13.4-18-13.4-29.1V447.6c0-21.2,17.2-38.4,38.4-38.4s38.4,17.2,38.4,38.4
							V690c0,11.2,4.9,21.9,13.4,29.1l103,87.8c10.7,9.2,23.9,13.7,37.1,13.7s26.5-4.5,37.1-13.7l103-87.8
							c8.6-7.3,13.4-18,13.4-29.1V447.6C1605.8,426.4,1622.9,409.2,1644.2,409.2 M1644.2,399.4c-26.6,0-48.2,21.6-48.2,48.2V690
							c0,8.4-3.7,16.3-10,21.7l-103,87.8c-8.6,7.3-19.5,11.4-30.7,11.4c-11.3,0-22.2-4-30.7-11.4l-103-87.8
							c-6.3-5.4-10-13.3-10-21.7V447.6c0-26.6-21.6-48.2-48.2-48.2s-48.2,21.6-48.2,48.2v277.7c0,14.1,6.1,27.5,16.9,36.6
							l106.4,90.8c14.9,12.7,23.5,31.2,23.5,50.7V1177c0,26.6,21.6,48.2,48.2,48.2h90.3c26.6,0,48.2-21.6,48.2-48.2V903.6
							c0-19.5,8.6-38.1,23.5-50.7l106.5-90.8c10.8-9.2,16.9-22.5,16.9-36.6V447.6C1692.3,421,1670.7,399.4,1644.2,399.4
							L1644.2,399.4z"/>
					</g>
					<g>
						<g>
							<path class="st0" d="M3528.8,1235.1c-32.1,0-58.1-26.1-58.1-58.1V903.6c0-16.7-7.3-32.4-20-43.2l-106.4-90.8
								c-12.9-11-20.4-27.1-20.4-44.1V447.6c0-32.1,26.1-58.1,58.1-58.1c32.1,0,58.1,26.1,58.1,58.1V690c0,5.5,2.4,10.6,6.6,14.2
								l103,87.8c6.8,5.8,15.4,9,24.3,9c8.9,0,17.6-3.2,24.3-9l103.1-87.9c4.2-3.5,6.5-8.7,6.5-14.2V447.6
								c0-32.1,26.1-58.1,58.1-58.1c15.4,0,30,6,41,16.9c11,11,17,25.6,17,41.1v277.7c0,17.1-7.4,33.2-20.4,44.2l-106.4,90.8
								c-12.7,10.8-20,26.6-20,43.2v273.5c0,32.1-26.1,58.1-58.1,58.1h-88.8C3529.9,1235.1,3529.3,1235.1,3528.8,1235.1z"/>
							<path class="st1" d="M3766.2,404.3c11.5,0,22.4,4.5,30.6,12.6c8.2,8.2,12.6,19.1,12.6,30.6v277.7c0,12.7-5.5,24.7-15.2,32.9
								l-106.4,90.8c-16,13.6-25.2,33.5-25.2,54.5v273.5c0,23.9-19.4,43.3-43.3,43.3h-90.5v0.1c-23.9,0-43.3-19.4-43.3-43.3V903.6
								c0-21-9.2-40.9-25.2-54.5l-106.4-90.8c-9.7-8.2-15.2-20.2-15.2-32.9V447.6c0-23.9,19.4-43.3,43.3-43.3s43.3,19.4,43.3,43.3
								V690c0,9.8,4.2,19.1,11.7,25.5l103,87.8c9.5,8.1,21.5,12.5,34,12.5s24.5-4.4,34-12.5l103-87.8c7.5-6.3,11.7-15.6,11.7-25.5
								V447.6C3722.8,423.7,3742.3,404.3,3766.2,404.3 M3766.2,374.7c-40.2,0-72.9,32.7-72.9,72.9V690c0,0.8-0.2,2-1.2,2.8
								c0,0-0.1,0.1-0.1,0.1l-103,87.8c-4.1,3.5-9.4,5.5-14.7,5.5c-5.4,0-10.6-1.9-14.7-5.4l-103.1-87.9c-0.9-0.7-1.3-1.8-1.3-2.9
								V447.6c0-40.2-32.7-72.9-72.9-72.9s-72.9,32.7-72.9,72.9v277.8c0,21.4,9.3,41.6,25.6,55.4l106.4,90.8
								c9.4,8,14.8,19.7,14.8,32V1177c0,40.2,32.7,72.9,72.9,72.9c0.8,0,1.6,0,2.4-0.1h88.1c40.2,0,72.9-32.7,72.9-72.9V903.4
								c0-12.3,5.4-24,14.8-31.9l106.4-90.8c16.3-13.8,25.6-34,25.6-55.4V447.5c0-19.5-7.6-37.8-21.3-51.5c0,0-0.1-0.1-0.1-0.1
								C3803.7,382.2,3785.5,374.7,3766.2,374.7L3766.2,374.7z"/>
						</g>
						<path class="st2" d="M3766,409.2c21.2,0,38.4,17.2,38.4,38.4v277.7c0,11.2-4.9,21.9-13.4,29.1l-106.4,90.8
							c-17.1,14.5-26.9,35.8-26.9,58.2V1177c0,21.2-17.2,38.4-38.4,38.4h-90.3c-21.2,0-38.4-17.2-38.4-38.4V903.6
							c0-22.4-9.8-43.7-26.9-58.2l-106.4-90.8c-8.6-7.3-13.4-18-13.4-29.1V447.6c0-21.2,17.2-38.4,38.4-38.4s38.4,17.2,38.4,38.4
							V690c0,11.2,4.9,21.9,13.4,29.1l103,87.8c10.7,9.2,23.9,13.7,37.1,13.7c13.2,0,26.5-4.5,37.1-13.7l103-87.8
							c8.6-7.3,13.4-18,13.4-29.1V447.6C3727.6,426.4,3744.7,409.2,3766,409.2 M3766,399.4c-26.6,0-48.2,21.6-48.2,48.2V690
							c0,8.4-3.7,16.3-10,21.7l-103,87.8c-8.6,7.3-19.5,11.4-30.7,11.4c-11.3,0-22.2-4-30.7-11.4l-103-87.8
							c-6.3-5.4-10-13.3-10-21.7V447.6c0-26.6-21.6-48.2-48.2-48.2c-26.6,0-48.2,21.6-48.2,48.2v277.7c0,14.1,6.1,27.5,16.9,36.6
							l106.4,90.8c14.9,12.7,23.5,31.2,23.5,50.7V1177c0,26.6,21.6,48.2,48.2,48.2h90.3c26.6,0,48.2-21.6,48.2-48.2V903.6
							c0-19.5,8.6-38.1,23.5-50.7l106.5-90.8c10.8-9.2,16.9-22.5,16.9-36.6V447.6c0-12.8-5-25-14.1-34.1
							C3790.9,404.4,3778.8,399.4,3766,399.4L3766,399.4z"/>
					</g>
					<g>
						<g>
							<path class="st0" d="M2340.1,1235c-32,0-58-26-58-58V998.1c0-32,26-58,58-58h90.4c32,0,58,26,58,58v102.2
								c0,10.2,8.3,18.6,18.6,18.6h135.2c10.2,0,18.6-8.3,18.6-18.6V878.9c0-10.2-8.3-18.6-18.6-18.6h-302.4c-32,0-58-26-58-58
								V447.5c0-32,26.1-58,58.2-58h379.2c32,0,58,26,58,58v167.2c0,32.1-26.1,58.1-58.1,58.1c-32.1,0-58.1-26.1-58.1-58.1v-90.4
								c0-10.2-8.3-18.6-18.6-18.6h-225.6c-10.2,0-18.6,8.3-18.6,18.6v201.3c0,10.2,8.3,18.6,18.6,18.6h302.4c32,0,58,26,58,58V1177
								c0,32-26,58-58,58H2340.1z"/>
							<path class="st1" d="M2719.4,404.3c23.8,0,43.2,19.3,43.2,43.2v167.2c0,23.9-19.4,43.3-43.3,43.3s-43.3-19.4-43.3-43.3v-90.4
								c0-18.5-15-33.4-33.4-33.4h-225.6c-18.5,0-33.4,15-33.4,33.4v201.3c0,18.5,15,33.4,33.4,33.4h302.4
								c23.8,0,43.2,19.3,43.2,43.2V1177c0,23.8-19.3,43.2-43.2,43.2h-379.2c-23.8,0-43.2-19.3-43.2-43.2V998.1
								c0-23.8,19.3-43.2,43.2-43.2h90.4c23.8,0,43.2,19.3,43.2,43.2v102.2c0,18.5,15,33.4,33.4,33.4h135.2
								c18.5,0,33.4-15,33.4-33.4V878.9c0-18.5-15-33.4-33.4-33.4h-302.4c-23.8,0-43.2-19.3-43.2-43.2V447.5
								c0-23.8,19.4-43.2,43.4-43.2H2719.4 M2719.4,374.7h-379.2c-40.3,0-73,32.7-73,72.8v354.8c0,40.2,32.7,72.8,72.8,72.8h302.4
								c2.1,0,3.7,1.7,3.7,3.7v221.4c0,2.1-1.7,3.7-3.7,3.7h-135.2c-2.1,0-3.7-1.7-3.7-3.7V998.1c0-40.2-32.7-72.8-72.8-72.8h-90.4
								c-40.2,0-72.8,32.7-72.8,72.8V1177c0,40.2,32.7,72.8,72.8,72.8h379.2c40.2,0,72.8-32.7,72.8-72.8V802.2
								c0-40.2-32.7-72.8-72.8-72.8h-302.4c-2.1,0-3.7-1.7-3.7-3.7V524.3c0-2.1,1.7-3.7,3.7-3.7h225.6c2.1,0,3.7,1.7,3.7,3.7v90.4
								c0,40.2,32.7,72.9,72.9,72.9s72.9-32.7,72.9-72.9V447.5C2792.2,407.4,2759.5,374.7,2719.4,374.7L2719.4,374.7z"/>
						</g>
						<path class="st2" d="M2719.4,409.2c21.1,0,38.3,17.1,38.3,38.3v167.2c0,21.2-17.2,38.4-38.4,38.4s-38.4-17.2-38.4-38.4v-90.4
							c0-21.1-17.1-38.3-38.3-38.3h-225.6c-21.1,0-38.3,17.1-38.3,38.3v201.3c0,21.1,17.1,38.3,38.3,38.3h302.4
							c21.1,0,38.3,17.1,38.3,38.3V1177c0,21.1-17.1,38.3-38.3,38.3h-379.2c-21.1,0-38.3-17.1-38.3-38.3V998.1
							c0-21.1,17.1-38.3,38.3-38.3h90.4c21.1,0,38.3,17.1,38.3,38.3v102.2c0,21.1,17.1,38.3,38.3,38.3h135.2
							c21.1,0,38.3-17.1,38.3-38.3V878.9c0-21.1-17.1-38.3-38.3-38.3h-302.4c-21.1,0-38.3-17.1-38.3-38.3V447.5
							c0-21.1,17.2-38.3,38.5-38.3H2719.4 M2719.4,399.4h-379.2c-26.7,0-48.3,21.6-48.3,48.1v354.8c0,26.6,21.6,48.1,48.1,48.1
							h302.4c15.7,0,28.4,12.7,28.4,28.4V1100c0,15.7-12.7,28.4-28.4,28.4h-135.2c-15.7,0-28.4-12.7-28.4-28.4V998.1
							c0-26.6-21.6-48.1-48.1-48.1h-90.4c-26.6,0-48.1,21.6-48.1,48.1v179c0,26.6,21.6,48.1,48.1,48.1h379.2
							c26.6,0,48.1-21.6,48.1-48.1V802.2c0-26.6-21.6-48.1-48.1-48.1H2417c-15.7,0-28.4-12.7-28.4-28.4V524.3
							c0-15.7,12.7-28.4,28.4-28.4h225.6c15.7,0,28.4,12.7,28.4,28.4v90.4c0,26.6,21.6,48.2,48.2,48.2s48.2-21.6,48.2-48.2V447.5
							C2767.4,421,2745.9,399.4,2719.4,399.4L2719.4,399.4z"/>
					</g>
					<g>
						<g>
							<path class="st0" d="M1797.5,1235c-32,0-58-26-58-58V998.1c0-32,26-58,58-58h90.4c32,0,58,26,58,58v102.2
								c0,10.2,8.3,18.6,18.6,18.6h135.3c10.2,0,18.6-8.3,18.6-18.6V878.9c0-10.2-8.3-18.6-18.6-18.6h-302.4c-32,0-58-26-58-58
								V447.5c0-32,26.1-58,58.1-58h379.2c32,0,58,26,58,58v167.2c0,32.1-26.1,58.1-58.1,58.1c-32.1,0-58.1-26.1-58.1-58.1v-90.4
								c0-10.2-8.3-18.6-18.6-18.6h-225.6c-10.2,0-18.6,8.3-18.6,18.6v201.3c0,10.2,8.3,18.6,18.6,18.6h302.4c32,0,58,26,58,58V1177
								c0,32-26,58-58,58H1797.5z"/>
							<path class="st1" d="M2176.8,404.3c23.8,0,43.2,19.3,43.2,43.2v167.2c0,23.9-19.4,43.3-43.3,43.3s-43.3-19.4-43.3-43.3v-90.4
								c0-18.5-15-33.4-33.4-33.4h-225.6c-18.5,0-33.4,15-33.4,33.4v201.3c0,18.5,15,33.4,33.4,33.4h302.4
								c23.8,0,43.2,19.3,43.2,43.2V1177c0,23.8-19.3,43.2-43.2,43.2h-379.2c-23.8,0-43.2-19.3-43.2-43.2V998.1
								c0-23.8,19.3-43.2,43.2-43.2h90.4c23.8,0,43.2,19.3,43.2,43.2v102.2c0,18.5,15,33.4,33.4,33.4h135.3
								c18.5,0,33.4-15,33.4-33.4V878.9c0-18.5-15-33.4-33.4-33.4h-302.4c-23.8,0-43.2-19.3-43.2-43.2V447.5
								c0-23.8,19.4-43.2,43.3-43.2H2176.8 M2176.8,374.7h-379.2c-40.2,0-72.9,32.7-72.9,72.8v354.8c0,40.2,32.7,72.8,72.8,72.8
								h302.4c2.1,0,3.7,1.7,3.7,3.7v221.4c0,2.1-1.7,3.7-3.7,3.7h-135.3c-2.1,0-3.7-1.7-3.7-3.7V998.1c0-40.2-32.7-72.8-72.8-72.8
								h-90.4c-40.2,0-72.8,32.7-72.8,72.8V1177c0,40.2,32.7,72.8,72.8,72.8h379.2c40.2,0,72.8-32.7,72.8-72.8V802.2
								c0-40.2-32.7-72.8-72.8-72.8h-302.4c-2.1,0-3.7-1.7-3.7-3.7V524.3c0-2.1,1.7-3.7,3.7-3.7H2100c2.1,0,3.7,1.7,3.7,3.7v90.4
								c0,40.2,32.7,72.9,72.9,72.9s72.9-32.7,72.9-72.9V447.5C2249.6,407.4,2216.9,374.7,2176.8,374.7L2176.8,374.7z"/>
						</g>
						<path class="st2" d="M2176.8,409.2c21.1,0,38.3,17.1,38.3,38.3v167.2c0,21.2-17.2,38.4-38.4,38.4s-38.4-17.2-38.4-38.4v-90.4
							c0-21.1-17.1-38.3-38.3-38.3h-225.6c-21.1,0-38.3,17.1-38.3,38.3v201.3c0,21.1,17.1,38.3,38.3,38.3h302.4
							c21.1,0,38.3,17.1,38.3,38.3V1177c0,21.1-17.1,38.3-38.3,38.3h-379.2c-21.1,0-38.3-17.1-38.3-38.3V998.1
							c0-21.1,17.1-38.3,38.3-38.3h90.4c21.1,0,38.3,17.1,38.3,38.3v102.2c0,21.1,17.1,38.3,38.3,38.3h135.3
							c21.1,0,38.3-17.1,38.3-38.3V878.9c0-21.1-17.1-38.3-38.3-38.3h-302.4c-21.1,0-38.3-17.1-38.3-38.3V447.5
							c0-21.1,17.2-38.3,38.4-38.3H2176.8 M2176.8,399.4h-379.2c-26.6,0-48.2,21.6-48.2,48.1v354.8c0,26.6,21.6,48.1,48.1,48.1
							h302.4c15.7,0,28.4,12.7,28.4,28.4V1100c0,15.7-12.7,28.4-28.4,28.4h-135.3c-15.7,0-28.4-12.7-28.4-28.4V998.1
							c0-26.6-21.6-48.1-48.1-48.1h-90.5c-26.6,0-48.1,21.6-48.1,48.1v179c0,26.6,21.6,48.1,48.1,48.1h379.2
							c26.6,0,48.1-21.6,48.1-48.1V802.2c0-26.6-21.6-48.1-48.1-48.1h-302.4c-15.7,0-28.4-12.7-28.4-28.4V524.3
							c0-15.7,12.7-28.4,28.4-28.4H2100c15.7,0,28.4,12.7,28.4,28.4v90.4c0,26.6,21.6,48.2,48.2,48.2s48.2-21.6,48.2-48.2V447.5
							C2224.9,421,2203.3,399.4,2176.8,399.4L2176.8,399.4z"/>
					</g>
					<g>
						<g>
							<path class="st0" d="M2879,1235.1c-32.1,0-58.1-26.1-58.1-58.1V447.5c0-32.1,26.1-58.1,58.1-58.1h350.8
								c32.1,0,58.1,26.1,58.1,58.1c0,15.6-6,30.1-17,41c-10.8,10.9-25.4,17-41,17h-274.2c-10.3,0-18.7,8.4-18.7,18.7v201.1
								c0,10.3,8.4,18.7,18.7,18.7h274c32.1,0,58.1,26.1,58.1,58.1c0,32.1-26.1,58.1-58.1,58.1h-183.6c-10.3,0-18.7,8.4-18.7,18.7
								V1100c0,10.3,8.4,18.7,18.7,18.7h183.6c32.1,0,58.1,26.1,58.1,58.1c0,32.1-26.1,58.1-58.1,58.1h-348.4
								C2880.6,1235.1,2879.8,1235.1,2879,1235.1z"/>
							<path class="st1" d="M3229.8,404.2c23.9,0,43.3,19.4,43.3,43.3c0,11.5-4.4,22.4-12.6,30.5c-8.1,8.2-19,12.6-30.5,12.6h-274.2
								c-18.5,0-33.5,15-33.5,33.5v201.1c0,18.5,15,33.5,33.5,33.5h274c23.9,0,43.3,19.4,43.3,43.3c0,23.9-19.4,43.3-43.3,43.3
								h-183.6c-18.5,0-33.5,15-33.5,33.5V1100c0,18.5,15,33.5,33.5,33.5h183.6c23.9,0,43.3,19.4,43.3,43.3
								c0,23.9-19.4,43.3-43.3,43.3H2879v0.2c-23.9,0-43.3-19.4-43.3-43.3V447.5c0-23.9,19.4-43.3,43.3-43.3H3229.8 M3229.8,374.6
								H2879c-40.2,0-72.9,32.7-72.9,72.9V1177c0,40.2,32.7,72.9,72.9,72.9c1.2,0,2.3-0.1,3.4-0.2h347.4c40.2,0,72.9-32.7,72.9-72.9
								c0-40.2-32.7-72.9-72.9-72.9h-183.6c-2.1,0-3.8-1.8-3.8-3.8V878.8c0-2.1,1.8-3.8,3.8-3.8h183.6c40.2,0,72.9-32.7,72.9-72.9
								c0-40.2-32.7-72.9-72.9-72.9h-274c-2.1,0-3.8-1.8-3.8-3.8V524.1c0-2.1,1.8-3.8,3.8-3.8H3230c19.5,0,37.8-7.6,51.4-21.3
								c13.7-13.6,21.3-31.9,21.3-51.4C3302.7,407.3,3270,374.6,3229.8,374.6L3229.8,374.6z"/>
						</g>
						<path class="st2" d="M3229.8,409.2c21.2,0,38.4,17.2,38.4,38.4c0,21.1-17.1,38.3-38.2,38.3c-0.1,0-0.1,0-0.2,0h-274.1
							c-21.2,0-38.4,17.2-38.4,38.4v201.1c0,21.2,17.2,38.4,38.4,38.4h274.1c21.2,0,38.4,17.2,38.4,38.4s-17.2,38.4-38.4,38.4
							h-183.6c-21.2,0-38.4,17.2-38.4,38.4v221.2c0,21.2,17.2,38.4,38.4,38.4h183.6c21.2,0,38.4,17.2,38.4,38.4
							s-17.2,38.4-38.4,38.4h-350.7c-21.2,0-38.4-17.2-38.4-38.4V447.5c0-21.2,17.2-38.4,38.4-38.4L3229.8,409.2 M3229.8,399.4
							h-350.7c-26.6,0-48.2,21.6-48.2,48.2V1177c0,26.6,21.6,48.2,48.2,48.2h350.7c26.6,0,48.2-21.6,48.2-48.2s-21.6-48.2-48.2-48.2
							h-183.6c-15.8,0-28.5-12.8-28.5-28.5V879c0-15.8,12.8-28.5,28.5-28.5h183.6c26.6,0,48.2-21.6,48.2-48.2
							c0-26.6-21.6-48.2-48.2-48.2h-274.1c-15.8,0-28.5-12.8-28.5-28.5V524.3c0-15.8,12.8-28.5,28.5-28.5h274.1h0.2
							c26.5,0,48.1-21.6,48.1-48.1C3278,421,3256.3,399.4,3229.8,399.4L3229.8,399.4z"/>
					</g>
					<g>
						<g>
							<path class="st0" d="M668.6,1235c-32,0-58-26-58-58V447.5c0-32,26-58,58-58h301.7c108.5,0,196.7,88.2,196.7,196.7v452
								c0,108.5-88.2,196.7-196.7,196.7h-300C669.8,1235,669.2,1235,668.6,1235z M835.8,505.7c-10.2,0-18.6,8.3-18.6,18.6v576.1
								c0,10.2,8.3,18.6,18.6,18.6h139.1c42,0,76.1-34.1,76.1-76.1v-461c0-42-34.1-76.1-76.1-76.1H835.8z"/>
							<path class="st1" d="M970.4,404.3c100.3,0,181.9,81.6,181.9,181.9v452c0,100.3-81.6,181.9-181.9,181.9H668.6v0.1
								c-23.8,0-43.2-19.3-43.2-43.2V447.5c0-23.8,19.3-43.2,43.2-43.2H970.4 M835.8,1133.6h139.1c50.1,0,90.9-40.8,90.9-90.9v-461
								c0-50.1-40.8-90.9-90.9-90.9H835.8c-18.5,0-33.4,15-33.4,33.4v576.1C802.5,1118.7,817.5,1133.6,835.8,1133.6 M970.4,374.7
								H668.6c-40.2,0-72.8,32.7-72.8,72.8V1177c0,40.2,32.7,72.8,72.8,72.8c0.8,0,1.6,0,2.4-0.1h299.3
								c116.6,0,211.5-94.9,211.5-211.5v-452C1181.9,469.6,1087,374.7,970.4,374.7L970.4,374.7z M835.8,1104c-2.1,0-3.7-1.7-3.7-3.7
								V524.2c0-2.1,1.7-3.7,3.7-3.7h139.1c33.8,0,61.3,27.5,61.3,61.3v461c0,33.8-27.5,61.3-61.3,61.3H835.8L835.8,1104z"/>
						</g>
						<path class="st2" d="M970.4,409.2c97.8,0,177.1,79.3,177.1,177.1v452c0,97.8-79.3,177.1-177.1,177.1H668.6
							c-21.1,0-38.3-17.1-38.3-38.3v-29.5v-700c0-21.1,17.1-38.3,38.3-38.3H970.4 M835.8,1138.6h139.1c52.9,0,95.8-42.9,95.8-95.8
							v-461c0-52.9-42.9-95.8-95.8-95.8H835.8c-21.1,0-38.3,17.1-38.3,38.3v576.1C797.6,1121.4,814.6,1138.6,835.8,1138.6
							 M970.4,399.4H668.6c-26.6,0-48.1,21.6-48.1,48.1v699.9v29.5c0,26.6,21.6,48.1,48.1,48.1h301.7c25.3,0,49.7-4.9,72.7-14.7
							c22.2-9.4,42.2-22.9,59.4-40.1c17.2-17.2,30.6-37.1,40.1-59.4c9.8-23,14.7-47.5,14.7-72.7V586.2c0-25.3-4.9-49.7-14.7-72.7
							c-9.4-22.2-22.9-42.2-40.1-59.4c-17.2-17.2-37.1-30.6-59.4-40.1C1020.1,404.3,995.7,399.4,970.4,399.4L970.4,399.4z
							 M835.8,1128.8c-15.7,0-28.4-12.7-28.4-28.4V524.3c0-15.7,12.7-28.4,28.4-28.4h139.1c47.5,0,86,38.6,86,86v461
							c0,47.5-38.6,86-86,86H835.8L835.8,1128.8z"/>
					</g>
				</g>
				<g>
					<g>
						<g>
							<path class="st3" d="M2848.5,243.1c-3.7,0-7.2-1.4-9.9-3.8l-25-22.6l-24.9,22.6c-2.7,2.5-6.3,3.8-9.9,3.8h-141.7
								c-6.5,0-12.3-4.3-14.2-10.6c-1.9-6.3,0.6-13,6.1-16.6l79.3-52.1l-81.9-53.9c-5.5-3.6-7.9-10.4-6-16.6
								c1.9-6.3,7.6-10.6,14.2-10.6H2778c3.7,0,7.2,1.4,9.9,3.8l25.6,23.2l25.7-23.2c2.7-2.5,6.3-3.8,9.9-3.8h143.5
								c6.5,0,12.3,4.3,14.2,10.6c1.9,6.3-0.6,13-6,16.6l-81.8,53.9l79.3,52.1c5.5,3.6,7.9,10.3,6.1,16.6
								c-1.9,6.3-7.6,10.6-14.2,10.6H2848.5z"/>
							<path class="st1" d="M2992.7,97.6l-100.6,66.2l98.1,64.5h-141.7l-34.9-31.6l-34.8,31.6h-141.7l98.1-64.5l-100.7-66.2H2778
								l35.5,32.2l35.6-32.2H2992.7 M2992.7,68h-143.5c-7.3,0-14.4,2.7-19.8,7.6l-15.8,14.2l-15.7-14.2c-5.4-4.9-12.5-7.7-19.9-7.7
								h-143.6c-13.1,0-24.6,8.6-28.4,21.1s1.2,26,12.1,33.2l63,41.5l-60.5,39.7c-10.9,7.2-15.9,20.7-12.1,33.2s15.3,21.1,28.4,21.1
								h141.7c7.4,0,14.4-2.7,19.9-7.7l15-13.6l15.1,13.6c5.4,4.9,12.5,7.6,19.9,7.6h141.7c13.1,0,24.6-8.6,28.4-21.1
								s-1.2-26.1-12.1-33.2l-60.5-39.7l63-41.5c10.9-7.2,15.8-20.7,12.1-33.2C3017.3,76.6,3005.8,68,2992.7,68L2992.7,68z
								 M2992.7,127.2L2992.7,127.2L2992.7,127.2L2992.7,127.2z"/>
						</g>
						<path class="st2" d="M2976.3,102.6l-93.2,61.3l90.6,59.6h-123.4l-36.8-33.3l-36.7,33.3h-123.4l90.6-59.6l-93.2-61.3h125.3
							l37.4,33.9l37.5-33.9L2976.3,102.6 M3009.2,92.7h-32.8h-125.3h-3.8l-2.8,2.6l-30.9,27.9l-30.8-27.9l-2.8-2.6h-3.8h-125.3
							h-32.8l27.4,18.1l80.7,53.1l-78.2,51.4l-27.4,18.1h32.8h123.4h3.8l2.8-2.6l30.1-27.3l30.2,27.3l2.8,2.6h3.8h123.4h32.8
							l-27.4-18.1l-78.2-51.4l80.7-53.1L3009.2,92.7L3009.2,92.7z"/>
					</g>
					<g>
						<g>
							<path class="st3" d="M1326.5,244.7c-35.3,0-62.2-7.7-80.1-22.9c-16.6-14-25.4-34.4-25.4-59c0-24.4,8.8-44.8,25.3-58.9
								c18-15.2,44.9-22.9,80.1-22.9c17.6,0,35,1.9,51.1,5.5c2.6-2.4,6.1-3.8,9.9-3.8h78.6c8.2,0,14.8,6.6,14.8,14.8v130.7
								c0,8.2-6.6,14.8-14.8,14.8h-78.6c-3.9,0-7.4-1.5-10-3.9C1361.4,242.8,1344.1,244.7,1326.5,244.7z M1335.5,163
								c2.3,0.4,5.5,0.6,10.1,0.6c4.1,0,7.8-0.3,11-0.7c-3.2-0.4-6.9-0.7-11-0.7C1341.1,162.3,1337.8,162.6,1335.5,163z"/>
							<path class="st1" d="M1326.5,95.8c21.6,0,42.5,3,61,8.6v-6.9h78.6v130.7h-78.6v-7.1c-18.7,5.8-39.6,8.8-61,8.8
								c-31.6,0-55.4-6.5-70.5-19.3c-13.3-11.3-20.1-27.3-20.1-47.7s6.8-36.3,20.1-47.7C1271.2,102.4,1294.9,95.8,1326.5,95.8
								 M1345.6,178.5c26,0,42-9.1,42-15.5c0-6.3-16.3-15.5-42-15.5c-29,0-29,11.6-29,15.5C1316.6,178.5,1338.5,178.5,1345.6,178.5
								 M1326.5,66.2c-38.7,0-68.9,8.9-89.6,26.3c0,0-0.1,0.1-0.1,0.1c-20,17-30.5,41.3-30.5,70.2c0,29,10.6,53.3,30.6,70.3
								c20.6,17.5,50.8,26.4,89.6,26.4c16.4,0,32.7-1.6,48.1-4.6c3.9,1.9,8.3,3,12.9,3h78.6c16.4,0,29.6-13.3,29.6-29.6V97.5
								c0-16.4-13.3-29.6-29.6-29.6h-78.6c-4.6,0-8.9,1-12.8,2.9C1359.3,67.8,1343,66.2,1326.5,66.2L1326.5,66.2z"/>
						</g>
						<path class="st2" d="M1326.5,100.9c24.5,0,47.1,3.8,65.9,10.5v-8.9h68.7v120.9h-68.7v-9c-18.9,6.6-41.6,10.5-65.9,10.5
							c-65.3,0-85.7-27.8-85.7-62.1S1261.3,100.9,1326.5,100.9 M1345.6,183.4c26,0,46.9-9.2,46.9-20.4c0-11.3-21-20.4-46.9-20.4
							s-34,9.2-34,20.4C1311.6,174.2,1319.8,183.4,1345.6,183.4 M1326.5,91c-32.9,0-57.6,6.9-73.7,20.5
							c-14.5,12.2-21.8,29.5-21.8,51.3s7.3,39.1,21.8,51.3c16.1,13.6,40.9,20.5,73.7,20.5c19.5,0,38.6-2.5,56.1-7.1v5.5h9.8h68.7
							h9.8v-9.8V102.6v-9.8h-9.8h-68.7h-9.8v5.3C1365.3,93.5,1346.3,91,1326.5,91L1326.5,91z M1345.6,173.5c-12.4,0-18.3-2.3-21-4.2
							c-2.2-1.6-3.2-3.5-3.2-6.4s0.9-4.8,3.2-6.4c2.8-1.9,8.6-4.2,21-4.2c10.3,0,20,1.6,27.5,4.4c6.7,2.6,9.1,5.3,9.5,6.1
							c-0.4,0.8-2.7,3.6-9.4,6.1C1365.7,171.9,1355.9,173.5,1345.6,173.5L1345.6,173.5z"/>
					</g>
					<g>
						<g>
							<path class="st3" d="M2039.9,244.7c-35.3,0-62.2-7.7-80.1-22.9c-16.6-14-25.4-34.4-25.4-59c0-24.4,8.8-44.8,25.3-58.9
								c18-15.2,44.9-22.9,80.1-22.9c17.6,0,35,1.9,51.1,5.5c2.6-2.4,6.1-3.8,9.9-3.8h78.6c8.2,0,14.8,6.6,14.8,14.8v130.7
								c0,8.2-6.6,14.8-14.8,14.8h-78.6c-3.9,0-7.4-1.5-10-3.9C2074.8,242.8,2057.4,244.7,2039.9,244.7z M2048.9,163
								c2.3,0.4,5.5,0.6,10.1,0.6c4.1,0,7.8-0.3,11-0.7c-3.2-0.4-6.9-0.7-11-0.7C2054.5,162.3,2051.2,162.6,2048.9,163z"/>
							<path class="st1" d="M2039.9,95.8c21.6,0,42.5,3,61,8.6v-6.9h78.6v130.7h-78.6v-7.1c-18.7,5.8-39.6,8.8-61,8.8
								c-31.6,0-55.4-6.5-70.5-19.3c-13.3-11.3-20.1-27.3-20.1-47.7s6.8-36.3,20.1-47.7C1984.6,102.4,2008.3,95.8,2039.9,95.8
								 M2059,178.5c25.9,0,41.9-9.1,42-15.6c-0.1-6.2-16.4-15.4-42-15.4c-29,0-29,11.6-29,15.5C2030,178.5,2051.9,178.5,2059,178.5
								 M2039.9,66.2c-38.7,0-68.9,8.9-89.6,26.3c0,0-0.1,0.1-0.1,0.1c-20,17-30.5,41.3-30.5,70.2c0,29,10.6,53.3,30.6,70.3
								c20.6,17.5,50.8,26.4,89.6,26.4c16.4,0,32.7-1.6,48.1-4.6c3.9,1.9,8.3,3,12.9,3h78.6c16.4,0,29.6-13.3,29.6-29.6V97.5
								c0-16.4-13.3-29.6-29.6-29.6h-78.6c-4.6,0-8.9,1-12.8,2.9C2072.7,67.8,2056.3,66.2,2039.9,66.2L2039.9,66.2z"/>
						</g>
						<path class="st2" d="M2039.9,100.9c24.5,0,47.1,3.8,65.9,10.5v-8.9h68.7v120.9h-68.7v-9c-18.9,6.6-41.6,10.5-65.9,10.5
							c-65.3,0-85.7-27.8-85.7-62.1S1974.5,100.9,2039.9,100.9 M2059,183.4c25.9,0,46.8-9.2,46.9-20.4c0-11.3-21-20.4-46.9-20.4
							c-25.9,0-34,9.2-34,20.4C2025.1,174.2,2033.2,183.4,2059,183.4 M2039.9,91c-32.9,0-57.6,6.9-73.7,20.5
							c-14.5,12.2-21.8,29.5-21.8,51.3s7.3,39.1,21.8,51.3c16.1,13.6,40.9,20.5,73.7,20.5c19.5,0,38.6-2.5,56.1-7.1v5.5h9.8h68.7
							h9.8v-9.8V102.6v-9.8h-9.8h-68.7h-9.8v5.3C2078.7,93.5,2059.5,91,2039.9,91L2039.9,91z M2059,173.5c-12.4,0-18.3-2.3-21-4.2
							c-2.2-1.6-3.2-3.5-3.2-6.4s0.9-4.8,3.2-6.4c2.8-1.9,8.6-4.2,21-4.2c10.3,0,20,1.6,27.5,4.4c6.6,2.6,9,5.2,9.5,6.1
							c-0.4,0.9-2.8,3.6-9.4,6.1C2079.2,171.9,2069.3,173.5,2059,173.5L2059,173.5z"/>
					</g>
					<g>
						<g>
							<path class="st3" d="M1506.6,298.3c-8.2,0-14.8-6.6-14.8-14.8v-49.7c0-2.4,0.6-4.6,1.6-6.6c-2.5-1.6-4.8-3.4-7-5.3
								c-16.6-14-25.4-34.4-25.4-59c0-24.4,8.8-44.8,25.3-58.9c18-15.2,44.9-22.9,80.1-22.9c17.6,0,34.9,1.9,50.9,5.5
								c2.7-2.4,6.2-3.8,9.9-3.8h78.6c8.2,0,14.8,6.6,14.8,14.8V226c0,39.8-32.4,72.3-72.3,72.3H1506.6z M1575.3,163
								c2.3,0.4,5.5,0.6,10.1,0.6c4.1,0,7.8-0.3,11-0.7c-3.2-0.4-6.9-0.7-11-0.7C1580.9,162.3,1577.6,162.6,1575.3,163z"/>
							<path class="st1" d="M1566.4,95.8c21.6,0,42.5,3,60.9,8.6l-0.1-6.9h78.6V226c0,31.7-25.8,57.4-57.4,57.4h-141.7v-49.7h112.9
								c4.3,0,7.9-3.6,7.9-7.9v-4.6c-18.7,5.6-39.6,8.7-61,8.7c-31.6,0-55.4-6.5-70.5-19.3c-13.3-11.3-20.1-27.3-20.1-47.7
								s6.8-36.3,20.1-47.7C1511.1,102.4,1534.8,95.8,1566.4,95.8 M1585.4,178.5c26,0,42-9.1,42-15.5c-0.1-6.3-16.4-15.5-42-15.5
								c-29,0-29,11.6-29,15.5C1556.4,178.5,1578.3,178.5,1585.4,178.5 M1566.4,66.2c-38.7,0-68.9,8.9-89.6,26.3
								c0,0-0.1,0.1-0.1,0.1c-20,17-30.5,41.3-30.5,70.2c0,29,10.6,53.3,30.6,70.3c0.1,0.1,0.1,0.1,0.2,0.2c0,0.1,0,0.3,0,0.4v49.7
								c0,16.4,13.3,29.6,29.6,29.6h141.7c48,0,87.1-39.1,87.1-87.1V97.5c0-16.4-13.3-29.6-29.6-29.6h-78.6c-4.4,0-8.8,1-12.7,2.9
								C1599.1,67.8,1582.8,66.2,1566.4,66.2L1566.4,66.2z"/>
						</g>
						<path class="st2" d="M1566.4,100.9c24.5,0,47.1,3.8,65.9,10.5l-0.1-8.9h68.7v96.9v23.9v2.8c0,28.9-23.5,52.5-52.5,52.5h-136.9
							v-40h108c7.1,0,12.7-5.7,12.7-12.7v-2.6v-3.8v-5c-18.9,6.6-41.6,10.5-65.9,10.5c-65.3,0-85.7-27.8-85.7-62.1
							S1501,100.9,1566.4,100.9 M1585.4,183.4c26,0,46.9-9.2,46.9-20.4c0-11.3-21-20.4-46.9-20.4s-34,9.2-34,20.4
							C1551.5,174.2,1559.6,183.4,1585.4,183.4 M1566.4,91c-32.9,0-57.6,6.9-73.7,20.5c-14.5,12.2-21.8,29.5-21.8,51.3
							s7.3,39.1,21.8,51.3c7.4,6.2,16.7,11.2,27.7,14.5h-8.9h-9.8v9.8v40v9.8h9.8h136.9c34.3,0,62.4-27.9,62.4-62.4v-2.8v-23.9
							v-96.6v-9.8h-9.8h-68.7h-10l0.1,5.3C1605.1,93.5,1585.9,91,1566.4,91L1566.4,91z M1585.4,173.5c-12.4,0-18.3-2.3-21-4.2
							c-2.2-1.6-3.2-3.5-3.2-6.4s0.9-4.8,3.2-6.4c2.8-1.9,8.6-4.2,21-4.2c10.3,0,20,1.6,27.5,4.4c6.7,2.6,9.1,5.3,9.5,6.1
							c-0.4,0.8-2.7,3.6-9.4,6.1C1605.6,171.9,1595.7,173.5,1585.4,173.5L1585.4,173.5z M1618.2,228.8c1.1-0.3,2.3-0.6,3.4-0.9
							c-0.5,0.5-1.3,0.9-2.1,0.9H1618.2L1618.2,228.8z"/>
					</g>
					<g>
						<g>
							<path class="st3" d="M1723.9,243.3c-8.2,0-14.8-6.6-14.8-14.8V97.6c0-8.2,6.6-14.8,14.8-14.8h78.6c5.6,0,10.5,3.1,13,7.7
								c15.7-4.8,35.7-9.4,54.7-9.4c21.4,0,41.6,6.3,57,17.9c0,0,0.1,0,0.1,0.1c18,13.7,27.5,33,27.6,55.7l0,73.4
								c0,8.2-6.6,14.8-14.8,14.8h-77.3c-0.4,0-0.8,0-1.2,0c-8.2,0-14.8-6.6-14.8-14.8v-60c-0.7,0-1.5-0.1-2.2-0.1
								c-0.3,0-0.6,0-0.7,0c-0.2,0-0.1,0-0.3,0c-0.1,0-9.9,0.8-19.3,3.1c-3.1,0.7-5.4,1.4-7,2v55.1c0,8.2-6.6,14.8-14.8,14.8H1723.9
								z"/>
							<path class="st1" d="M1870.2,95.9c18.4,0,35.3,5.3,48.1,14.9c14.2,10.9,21.7,26.1,21.8,44v73.3h-78.5V160
								c0-6.4-15.2-6.6-17-6.6c-1.4,0-2.3,0.1-2.3,0.1s-10.9,0.9-21.5,3.5c-15,3.6-18.4,7.6-18.4,8.9v62.7h-78.6V97.6h78.6v13
								C1815.4,105.7,1844,95.9,1870.2,95.9 M1861.6,228.2L1861.6,228.2L1861.6,228.2 M1870.2,66.3c-17.1,0-34.6,3.2-50.1,7.4
								c-4.9-3.6-11-5.8-17.6-5.8h-78.6c-16.4,0-29.6,13.3-29.6,29.6v130.9c0,16.4,13.3,29.6,29.6,29.6h78.6
								c15.8,0,28.7-12.4,29.6-28c1,15.5,13.8,27.8,29.6,27.8c0.8,0,1.6,0,2.4-0.1h76c16.4,0,29.6-13.3,29.6-29.6v-73.3
								c0-0.1,0-0.1,0-0.2c-0.1-27.1-12-51-33.5-67.4c-0.1,0-0.1-0.1-0.2-0.1C1918.2,73.7,1894.8,66.3,1870.2,66.3L1870.2,66.3z"/>
						</g>
						<path class="st2" d="M1870.4,100.9c33.7,0,64.9,19.1,64.9,54.1v68.4h-68.7v-63.5c0-10.5-15.6-11.5-21.8-11.5
							c-1.6,0-2.6,0.1-2.6,0.1s-44.4,3.8-44.4,17.2v57.7h-68.7V102.6h68.7V118C1797.6,118,1836.6,100.9,1870.4,100.9 M1870.4,91
							c-23,0-47.9,7.3-62.9,12.5v-1.1v-9.8h-9.8H1729h-9.8v9.8v120.9v9.8h9.8h68.7h9.8v-9.8V167c1.4-1.1,5.8-3.8,18.2-6.2
							c8.5-1.7,16.1-2.5,17.1-2.6c0.2,0,0.9,0,1.9,0c6.8,0,10.8,1.4,12,2.2v63v9.8h9.8h68.7h9.8v-9.8V155
							c-0.1-19.3-8.5-36.3-23.7-48C1907.9,96.7,1889.7,91,1870.4,91L1870.4,91z"/>
					</g>
					<g>
						<g>
							<path class="st3" d="M2559.9,250.7c-34.8,0-68-7.9-93.4-22.4c-28.8-16.5-44.6-39.6-44.6-65c0-25.5,15.8-48.5,44.6-65
								c25.3-14.5,58.5-22.5,93.4-22.5c34.8,0,68,7.9,93.4,22.4c28.8,16.5,44.6,39.6,44.6,65c0,25.4-15.8,48.5-44.4,65
								c-24.8,14.2-57.3,22.2-91.8,22.4C2561.1,250.7,2560.5,250.7,2559.9,250.7z M2559.9,154.9c-11.3,0-18.5,5.6-18.5,8.6
								c0,2.9,7.2,8.6,18.5,8.6c6,0,11.5-1.6,15.2-4.3c0,0,0.1-0.1,0.1-0.1c1.9-1.4,3.1-3,3.1-4.1
								C2578.3,160.5,2571.1,154.9,2559.9,154.9z"/>
							<path class="st1" d="M2559.9,90.7c32.5,0,63,7.3,86.1,20.4c23.9,13.7,37.1,32.2,37.1,52.1c0,19.9-13.1,38.4-37,52.1
								c-23,13.2-53.5,20.4-85.9,20.4c0,0.1-0.3,0.1-0.3,0.1c-32.4,0-63-7.3-86.1-20.4c-23.9-13.7-37.1-32.2-37.1-52.1
								c0-19.8,13.1-38.4,37.1-52.1C2496.9,98,2527.4,90.7,2559.9,90.7 M2559.9,186.9c9.2,0,17.8-2.6,24.1-7.3
								c5.9-4.3,9.2-10.1,9.2-16.1c0-12.9-14.9-23.4-33.3-23.4c-18.4,0-33.3,10.5-33.3,23.4C2526.6,176.4,2541.5,186.9,2559.9,186.9
								 M2559.9,61.1c-37.5,0-73.3,8.7-100.8,24.4c-15.7,9-28.1,19.8-37,32.3c-9.8,13.8-15,29.6-15,45.5c0,16,5.2,31.7,15.1,45.6
								c8.8,12.4,21.2,23.2,36.9,32.2c0,0,0.1,0,0.1,0.1c27.6,15.7,63.3,24.3,100.7,24.3c0.9,0,1.7,0,2.6-0.1
								c36.7-0.3,71.6-9,98.4-24.4c15.6-9,28-19.8,36.8-32.2c9.8-13.8,15-29.6,15-45.5c0-16-5.2-31.7-15.1-45.6
								c-8.8-12.4-21.2-23.2-36.9-32.2c0,0-0.1,0-0.1-0.1C2633,69.7,2597.2,61.1,2559.9,61.1L2559.9,61.1z"/>
						</g>
						<path class="st2" d="M2559.9,95.6c65.3,0,118.3,30.2,118.3,67.6c0,37.3-52.7,67.6-118,67.6c-0.1,0-0.2,0-0.3,0
							c-65.3,0-118.3-30.2-118.3-67.6C2441.6,126.1,2494.6,95.6,2559.9,95.6 M2559.9,191.7c21.1,0,38.2-12.6,38.2-28.3
							c0-15.6-17.1-28.3-38.2-28.3c-21.1,0-38.2,12.6-38.2,28.3S2538.7,191.7,2559.9,191.7 M2559.9,85.9c-33.3,0-64.7,7.5-88.4,21.1
							c-25.5,14.6-39.6,34.6-39.6,56.4s14,41.8,39.6,56.4c23.8,13.6,55.2,21.1,88.4,21.1h0.3c33.2,0,64.6-7.5,88.2-21.1
							c25.5-14.6,39.5-34.6,39.5-56.4s-14-41.8-39.6-56.4C2624.6,93.4,2593.1,85.9,2559.9,85.9L2559.9,85.9z M2559.9,181.9
							c-15.4,0-28.4-8.5-28.4-18.5c0-10,13-18.5,28.4-18.5c15.4,0,28.4,8.5,28.4,18.5c0,5.9-4.5,10.1-7.2,12.1
							C2575.6,179.5,2567.9,181.9,2559.9,181.9L2559.9,181.9z"/>
					</g>
					<g>
						<g>
							<path class="st3" d="M1140.6,243.1c-8.2,0-14.8-6.6-14.8-14.8v-34.8l-24.4,42.3c-2.6,4.6-7.5,7.4-12.8,7.4h-92.5
								c-5.3,0-10.2-2.8-12.8-7.4l-24.4-42.2v34.8c0,8.2-6.6,14.8-14.8,14.8h-86.4c-8.2,0-14.8-6.6-14.8-14.8V29.6
								c0-8.2,6.6-14.8,14.8-14.8H981c5.3,0,10.2,2.8,12.8,7.4l48.4,83.8l48.5-83.8c2.6-4.6,7.5-7.4,12.8-7.4H1227
								c8.2,0,14.8,6.6,14.8,14.8v198.7c0,8.2-6.6,14.8-14.8,14.8H1140.6z"/>
							<path class="st1" d="M1227,29.6v198.7h-86.5v-90.1l-52,90.1h-92.5l-52-90v90h-86.4V29.6H981l61.2,106l61.3-106H1227 M1227,0
								h-123.5c-10.6,0-20.3,5.6-25.6,14.8l-35.6,61.6l-35.6-61.6C1001.4,5.6,991.6,0,981,0H857.7C841.3,0,828,13.3,828,29.6v198.7
								c0,16.4,13.3,29.6,29.6,29.6H944c11.2,0,21-6.2,26-15.4l0.4,0.6c5.3,9.2,15.1,14.8,25.6,14.8h92.5c10.6,0,20.4-5.6,25.6-14.8
								l0.4-0.6c5,9.2,14.8,15.4,26,15.4h86.5c16.4,0,29.6-13.3,29.6-29.6V29.6C1256.6,13.3,1243.4,0,1227,0L1227,0z"/>
						</g>
						<path class="st2" d="M1222.1,34.5v188.9h-76.6V119.9l-59.8,103.5h-86.8l-59.7-103.5v103.5h-76.6v-189H917h22.2h39.1
							l64.1,110.9l64.2-110.9h39.1h22.2H1222.1 M1231.9,24.7h-9.8h-54.4h-22.2h-39.1h-5.6l-2.9,4.9l-55.6,96.2l-55.6-96.2l-2.9-4.9
							h-5.6h-39.1H917h-54.4h-9.8v9.8v188.9v9.8h9.8h76.6h9.8v-9.8v-66.8l41.4,71.8l2.9,4.9h5.6h86.8h5.6l2.9-4.9l41.5-71.8v66.9
							v9.8h9.8h76.6h9.8v-9.8v-189v-9.8H1231.9z"/>
					</g>
					<g>
						<g>
							<path class="st3" d="M2273.6,243.1c-4.5,0-8.7-2-11.5-5.5l-105.8-130.7c-3.6-4.4-4.3-10.5-1.9-15.7c2.5-5.2,7.7-8.4,13.4-8.4
								h104.8c4.7,0,9.1,2.2,11.9,6l33.6,45.7l33.6-45.7c2.8-3.8,7.2-6,11.9-6h104.8c5.7,0,10.9,3.3,13.4,8.4
								c2.5,5.2,1.7,11.3-1.9,15.7L2374,237.6c-2.8,3.5-7,5.5-11.5,5.5H2273.6z"/>
							<path class="st1" d="M2468.5,97.6l-105.9,130.7h-88.9L2167.8,97.6h104.8l45.5,61.9l45.5-61.9H2468.5 M2468.5,68h-104.8
								c-9.4,0-18.3,4.5-23.9,12.1l-21.6,29.4l-21.6-29.4c-5.6-7.6-14.4-12.1-23.9-12.1h-104.8c-11.4,0-21.8,6.6-26.7,16.9
								c-4.9,10.3-3.5,22.5,3.7,31.4l105.8,130.7c5.6,6.9,14.1,11,23,11h88.9c8.9,0,17.4-4,23-11l105.9-130.7
								c7.2-8.9,8.6-21.1,3.7-31.4C2490.3,74.6,2479.9,68,2468.5,68L2468.5,68z M2468.5,127.2L2468.5,127.2L2468.5,127.2
								L2468.5,127.2z"/>
						</g>
						<path class="st2" d="M2458.2,102.6l-97.9,120.9h-41.2h-1.9H2276l-97.9-120.9h92l48,65.3l48-65.3L2458.2,102.6 M2478.7,92.7
							h-20.6h-92h-4.9l-3,4l-40.1,54.6l-40.1-54.6l-3-4h-4.9h-92h-20.6l12.9,16l97.9,120.9l3,3.7h4.6h41.3h1.9h41.2h4.6l3-3.7
							l97.9-120.8L2478.7,92.7L2478.7,92.7z"/>
					</g>
				</g>
			</g>
		</g>
		<g>
			<g>
				<g>
					<g>
						<g>
							<path class="st0" d="M72.8,1230.2c-29.3,0-53.1-23.8-53.1-53.1V447.5c0-29.3,23.8-53.1,53.1-53.1l440.5,0.1
								c29.3,0,53.1,23.8,53.1,53.1v729.4c0,29.3-23.8,53.1-53.1,53.1H72.8z M149.6,500.8c-13,0-23.5,10.5-23.5,23.5v575.9
								c0,13,10.5,23.5,23.5,23.5h196.7c13,0,23.5-10.5,23.5-23.5V944.3c0-29.3,23.8-53.1,53.1-53.1h13.7c13,0,23.5-10.5,23.5-23.5
								V524.3c0-13-10.5-23.5-23.5-23.5H149.6z"/>
							<path class="st1" d="M72.8,409.2l440.5,0.1c21.1,0,38.3,17.1,38.3,38.3v8.9V486v420v232.7v17.4v21
								c0,21.1-17.1,38.3-38.3,38.3H475H111.2H72.8c-21.1,0-38.3-17.1-38.3-38.3v-38.4V485.9v-29.5v-8.9
								C34.5,426.4,51.6,409.2,72.8,409.2 M149.6,1138.5h196.7c21.1,0,38.3-17.1,38.3-38.3V944.3c0-21.1,17.1-38.3,38.3-38.3h13.7
								c21.2,0,38.3-17.2,38.3-38.3V524.3c0-21.1-17.1-38.3-38.3-38.3h-287c-21.1,0-38.3,17.1-38.3,38.3v575.9
								C111.3,1121.3,128.4,1138.5,149.6,1138.5 M72.9,379.6C72.9,379.6,72.8,379.6,72.9,379.6c-37.5,0-67.9,30.5-67.9,67.9v8.9
								v29.5v652.7v38.4c0,37.4,30.5,67.9,67.9,67.9h38.4H475h38.4c37.4,0,67.9-30.5,67.9-67.9v-21v-17.4V906V486v-29.5v-8.9
								c0-37.4-30.5-67.9-67.9-67.9L72.9,379.6L72.9,379.6z M149.6,1108.9c-4.8,0-8.7-3.9-8.7-8.7V524.3c0-4.8,3.9-8.7,8.7-8.7h287
								c4.8,0,8.7,3.9,8.7,8.7v343.4c0,4.8-3.9,8.7-8.7,8.7H423c-37.4,0-67.9,30.5-67.9,67.9v155.9c0,4.8-3.9,8.7-8.7,8.7H149.6
								L149.6,1108.9z"/>
						</g>
					</g>
					<g>
						<g>
							<path class="st0" d="M1407,1230.2c-29.3,0-53.2-23.9-53.2-53.2V903.5c0-18.1-7.9-35.2-21.7-47l-106.4-90.8
								c-11.8-10-18.6-24.8-18.6-40.4V447.6c0-29.3,23.9-53.2,53.2-53.2s53.2,23.9,53.2,53.2V690c0,6.9,3,13.4,8.2,17.8l103.1,87.9
								c7.7,6.5,17.5,10.2,27.5,10.2c10.1,0,19.8-3.6,27.5-10.2l103.1-87.8c5.2-4.4,8.2-11,8.2-17.9V447.6
								c0-29.3,23.9-53.2,53.2-53.2c14.2,0,27.6,5.6,37.7,15.7c10,10.1,15.5,23.4,15.4,37.6v277.7c0,15.6-6.8,30.3-18.6,40.4
								l-106.4,90.8c-13.8,11.7-21.8,28.8-21.8,47V1177c0,29.3-23.9,53.2-53.2,53.2H1407z"/>
							<path class="st1" d="M1644.2,409.2c21.1,0,38.4,17.2,38.3,38.4v277.8c0,11.2-4.8,21.8-13.4,29.1l-106.4,90.8
								c-17.2,14.5-26.9,35.8-26.9,58.2V1177c0,21.2-17.2,38.4-38.4,38.4H1407c-21.2,0-38.4-17.2-38.4-38.4V903.5
								c0-22.4-9.9-43.7-26.9-58.2l-106.4-90.8c-8.5-7.2-13.4-18-13.4-29.1V447.6c0-21.2,17.2-38.4,38.4-38.4
								c21.2,0,38.4,17.2,38.4,38.4V690c0,11.2,4.8,21.8,13.4,29.1l103,87.8c10.7,9.1,23.9,13.7,37.1,13.7
								c13.2,0,26.4-4.6,37.1-13.7l103-87.8c8.5-7.2,13.4-18,13.4-29.1V447.6C1605.8,426.4,1622.9,409.2,1644.2,409.2 M1644.2,379.6
								c-37.5,0-68,30.5-68,68V690c0,2.5-1.1,5-3,6.5c0,0,0,0,0,0l-103,87.8c-5,4.3-11.4,6.6-17.9,6.6s-12.9-2.3-17.9-6.6
								l-103.1-87.8c-1.9-1.6-3-4-3-6.6V447.6c0-37.5-30.5-68-68-68s-68,30.5-68,68v277.7c0,20,8.7,38.8,23.8,51.7l106.4,90.8
								c0,0,0,0,0,0c10.5,8.9,16.5,21.9,16.5,35.7V1177c0,37.5,30.5,68,68,68h90.3c37.5,0,68-30.5,68-68V903.6
								c0-13.8,6-26.8,16.4-35.6c0,0,0.1-0.1,0.1-0.1l106.4-90.8c15.1-12.9,23.8-31.7,23.8-51.6V447.7c0.1-18.1-7-35.2-19.8-48
								C1679.5,386.7,1662.4,379.6,1644.2,379.6L1644.2,379.6z"/>
						</g>
					</g>
					<g>
						<g>
							<path class="st0" d="M3528.8,1230.2c-29.3,0-53.2-23.9-53.2-53.2V903.5c0-18.1-7.9-35.2-21.7-47l-106.4-90.8
								c-11.8-10-18.6-24.8-18.6-40.4V447.6c0-29.3,23.9-53.2,53.2-53.2s53.2,23.9,53.2,53.2V690c0,6.9,3,13.4,8.2,17.8l103.1,87.9
								c7.7,6.5,17.5,10.2,27.5,10.2c10.1,0,19.8-3.6,27.5-10.2l103-87.8c5.2-4.4,8.2-11,8.2-17.9V447.6c0-29.3,23.9-53.2,53.2-53.2
								c14.2,0,27.6,5.6,37.7,15.7c10,10.1,15.5,23.4,15.4,37.6v277.7c0,15.6-6.8,30.3-18.6,40.4L3694,856.6
								c-13.8,11.7-21.8,28.8-21.8,47V1177c0,29.3-23.9,53.2-53.2,53.2H3528.8z"/>
							<path class="st1" d="M3766,409.2c21.1,0,38.4,17.2,38.3,38.4v277.8c0,11.2-4.8,21.8-13.4,29.1l-106.4,90.8
								c-17.2,14.5-26.9,35.8-26.9,58.2V1177c0,21.2-17.2,38.4-38.4,38.4h-90.3c-21.2,0-38.4-17.2-38.4-38.4V903.5
								c0-22.4-9.9-43.7-26.9-58.2L3357,754.4c-8.5-7.2-13.4-18-13.4-29.1V447.6c0-21.2,17.2-38.4,38.4-38.4
								c21.2,0,38.4,17.2,38.4,38.4V690c0,11.2,4.8,21.8,13.4,29.1l103,87.8c10.7,9.1,23.9,13.7,37.1,13.7s26.4-4.6,37.1-13.7
								l103-87.8c8.5-7.2,13.4-18,13.4-29.1V447.6C3727.6,426.4,3744.7,409.2,3766,409.2 M3766,379.6c-37.5,0-68,30.5-68,68V690
								c0,2.5-1.1,5-3,6.5c0,0,0,0,0,0l-103,87.8c-5,4.3-11.4,6.6-17.9,6.6c-6.5,0-12.9-2.3-17.9-6.6L3453,696.5c-1.9-1.6-3-4-3-6.6
								V447.6c0-37.5-30.5-68-68-68s-68,30.5-68,68v277.7c0,20,8.7,38.8,23.8,51.7l106.4,90.8c0,0,0,0,0,0
								c10.5,8.9,16.5,21.9,16.5,35.7V1177c0,37.5,30.5,68,68,68h90.3c37.5,0,68-30.5,68-68V903.6c0-13.8,6-26.8,16.4-35.6
								c0,0,0.1-0.1,0.1-0.1l106.4-90.8c15.1-12.9,23.8-31.7,23.8-51.6V447.7c0.1-18.1-7-35.2-19.8-48
								C3801.3,386.7,3784.2,379.6,3766,379.6L3766,379.6z"/>
						</g>
					</g>
					<g>
						<g>
							<path class="st0" d="M2340.1,1230.2c-29.3,0-53.1-23.8-53.1-53.1v-179c0-29.3,23.8-53.1,53.1-53.1h90.4
								c29.3,0,53.1,23.8,53.1,53.1v102.1c0,13,10.5,23.5,23.5,23.5h135.2c13,0,23.5-10.5,23.5-23.5V878.9c0-13-10.5-23.5-23.5-23.5
								h-302.4c-29.3,0-53.1-23.8-53.1-53.1V447.5c0-29.3,23.9-53.1,53.3-53.1h379.2c29.3,0,53.1,23.8,53.1,53.1v167.2
								c0,29.3-23.9,53.2-53.2,53.2s-53.2-23.9-53.2-53.2v-90.4c0-13-10.5-23.5-23.5-23.5h-225.6c-13,0-23.5,10.5-23.5,23.5v201.3
								c0,13,10.5,23.5,23.5,23.5h302.4c29.3,0,53.1,23.8,53.1,53.1v374.9c0,29.3-23.8,53.1-53.1,53.1H2340.1z"/>
							<path class="st1" d="M2719.4,409.2c21.1,0,38.3,17.1,38.3,38.3v167.2c0,21.2-17.2,38.4-38.4,38.4s-38.4-17.2-38.4-38.4v-90.4
								c0-21.1-17.1-38.3-38.3-38.3h-225.6c-21.1,0-38.3,17.1-38.3,38.3v201.3c0,21.1,17.1,38.3,38.3,38.3h302.4
								c21.1,0,38.3,17.1,38.3,38.3v374.9c0,21.1-17.1,38.3-38.3,38.3h-379.2c-21.1,0-38.3-17.1-38.3-38.3v-179
								c0-21.1,17.1-38.3,38.3-38.3h90.4c21.1,0,38.3,17.1,38.3,38.3v102.1c0,21.1,17.1,38.3,38.3,38.3h135.2
								c21.1,0,38.3-17.1,38.3-38.3V878.9c0-21.1-17.1-38.3-38.3-38.3h-302.4c-21.1,0-38.3-17.1-38.3-38.3V447.5
								c0-21.1,17.2-38.3,38.5-38.3H2719.4 M2719.4,379.6h-379.2c-37.6,0-68.1,30.5-68.1,67.9v354.8c0,37.4,30.5,67.9,67.9,67.9
								h302.4c4.8,0,8.7,3.9,8.7,8.7v221.3c0,4.8-3.9,8.7-8.7,8.7h-135.2c-4.8,0-8.7-3.9-8.7-8.7V998.1c0-37.4-30.5-67.9-67.9-67.9
								h-90.4c-37.4,0-67.9,30.5-67.9,67.9v179c0,37.4,30.5,67.9,67.9,67.9h379.2c37.4,0,67.9-30.5,67.9-67.9V802.2
								c0-37.4-30.5-67.9-67.9-67.9h-302.4c-4.8,0-8.7-3.9-8.7-8.7V524.3c0-4.8,3.9-8.7,8.7-8.7h225.6c4.8,0,8.7,3.9,8.7,8.7v90.4
								c0,37.5,30.5,68,68,68s68-30.5,68-68V447.5C2787.3,410.1,2756.8,379.6,2719.4,379.6L2719.4,379.6z"/>
						</g>
					</g>
					<g>
						<g>
							<path class="st0" d="M1797.5,1230.2c-29.3,0-53.1-23.8-53.1-53.1v-179c0-29.3,23.8-53.1,53.1-53.1h90.4
								c29.3,0,53.1,23.8,53.1,53.1v102.1c0,13,10.5,23.5,23.5,23.5h135.3c13,0,23.5-10.5,23.5-23.5V878.9c0-13-10.5-23.5-23.5-23.5
								h-302.4c-29.3,0-53.1-23.8-53.1-53.1V447.5c0-29.3,23.9-53.1,53.2-53.1h379.2c29.3,0,53.1,23.8,53.1,53.1v167.2
								c0,29.3-23.9,53.2-53.2,53.2s-53.2-23.9-53.2-53.2v-90.4c0-13-10.5-23.5-23.5-23.5h-225.6c-13,0-23.5,10.5-23.5,23.5v201.3
								c0,13,10.5,23.5,23.5,23.5h302.4c29.3,0,53.1,23.8,53.1,53.1v374.9c0,29.3-23.8,53.1-53.1,53.1H1797.5z"/>
							<path class="st1" d="M2176.8,409.2c21.1,0,38.3,17.1,38.3,38.3v167.2c0,21.2-17.2,38.4-38.4,38.4
								c-21.2,0-38.4-17.2-38.4-38.4v-90.4c0-21.1-17.1-38.3-38.3-38.3h-225.6c-21.1,0-38.3,17.1-38.3,38.3v201.3
								c0,21.1,17.1,38.3,38.3,38.3h302.4c21.1,0,38.3,17.1,38.3,38.3v374.9c0,21.1-17.1,38.3-38.3,38.3h-379.2
								c-21.1,0-38.3-17.1-38.3-38.3v-179c0-21.1,17.1-38.3,38.3-38.3h90.4c21.1,0,38.3,17.1,38.3,38.3v102.1
								c0,21.1,17.1,38.3,38.3,38.3h135.3c21.1,0,38.3-17.1,38.3-38.3V878.9c0-21.1-17.1-38.3-38.3-38.3h-302.4
								c-21.1,0-38.3-17.1-38.3-38.3V447.5c0-21.1,17.3-38.3,38.4-38.3H2176.8 M2176.8,379.6h-379.2c-37.5,0-68,30.5-68,67.9v354.8
								c0,37.4,30.5,67.9,67.9,67.9h302.4c4.8,0,8.7,3.9,8.7,8.7v221.3c0,4.8-3.9,8.7-8.7,8.7h-135.3c-4.8,0-8.7-3.9-8.7-8.7V998.1
								c0-37.4-30.5-67.9-67.9-67.9h-90.4c-37.4,0-67.9,30.5-67.9,67.9v179c0,37.4,30.5,67.9,67.9,67.9h379.2
								c37.4,0,67.9-30.5,67.9-67.9V802.2c0-37.4-30.5-67.9-67.9-67.9h-302.4c-4.8,0-8.7-3.9-8.7-8.7V524.3c0-4.8,3.9-8.7,8.7-8.7
								H2100c4.8,0,8.7,3.9,8.7,8.7v90.4c0,37.5,30.5,68,68,68c37.5,0,68-30.5,68-68V447.5C2244.7,410.1,2214.2,379.6,2176.8,379.6
								L2176.8,379.6z"/>
						</g>
					</g>
					<g>
						<g>
							<path class="st0" d="M2879.1,1230.3c-29.3,0-53.2-23.9-53.2-53.2V447.6c0-29.3,23.9-53.2,53.2-53.2h350.7
								c29.3,0,53.2,23.9,53.2,53.2c0,14.2-5.5,27.5-15.5,37.5c-10,10-23.3,15.6-37.5,15.6c0,0-274.3,0-274.3,0
								c-13,0-23.6,10.6-23.6,23.6v201.1c0,13,10.6,23.6,23.6,23.6h274.1c29.3,0,53.2,23.9,53.2,53.2c0,29.3-23.9,53.2-53.2,53.2
								h-183.6c-13,0-23.6,10.6-23.6,23.6v221.3c0,13,10.6,23.6,23.6,23.6h183.6c29.3,0,53.2,23.9,53.2,53.2s-23.9,53.2-53.2,53.2
								H2879.1z"/>
							<path class="st1" d="M3229.8,409.2c21.2,0,38.4,17.2,38.4,38.4c0,21.2-17.1,38.3-38.2,38.3c-0.1,0-0.1,0-0.2,0h-274.1
								c-21.2,0-38.4,17.2-38.4,38.4v201.1c0,21.2,17.2,38.4,38.4,38.4h274.1c21.2,0,38.4,17.2,38.4,38.4
								c0,21.2-17.2,38.4-38.4,38.4h-183.6c-21.2,0-38.4,17.2-38.4,38.4v221.3c0,21.2,17.2,38.4,38.4,38.4h183.6
								c21.2,0,38.4,17.2,38.4,38.4c0,21.2-17.2,38.4-38.4,38.4h-350.7c-21.2,0-38.4-17.2-38.4-38.4V447.6
								c0-21.2,17.2-38.4,38.4-38.4H3229.8 M3229.8,379.6h-350.7c-37.5,0-68,30.5-68,68v729.4c0,37.5,30.5,68,68,68h350.7
								c37.5,0,68-30.5,68-68c0-37.5-30.5-68-68-68h-183.6c-4.8,0-8.8-3.9-8.8-8.8V879c0-4.8,3.9-8.8,8.8-8.8h183.6
								c37.5,0,68-30.5,68-68c0-37.5-30.5-68-68-68h-274.1c-4.8,0-8.8-3.9-8.8-8.8V524.3c0-4.8,3.9-8.8,8.8-8.8h274.1l0.2,0
								c37.4,0,67.8-30.5,67.8-67.9C3297.8,410.1,3267.3,379.6,3229.8,379.6L3229.8,379.6z"/>
						</g>
					</g>
					<g>
						<g>
							<path class="st0" d="M668.6,1230.1c-29.3,0-53.1-23.8-53.1-53.1V447.5c0-29.3,23.8-53.1,53.1-53.1l301.7-0.1
								c51.3,0,99.5,20,135.7,56.2c36.2,36.2,56.2,84.4,56.2,135.7v452c0,51.3-20,99.5-56.2,135.7c-36.2,36.2-84.4,56.2-135.7,56.2
								H668.6z M835.8,500.8c-13,0-23.5,10.5-23.5,23.5v576c0,13,10.5,23.5,23.5,23.5h139.1c44.7,0,81-36.3,81-80.9v-461
								c0-44.7-36.4-81-81-81H835.8z"/>
							<path class="st1" d="M970.4,409.1c97.8,0,177.1,79.3,177.1,177.1v452c0,97.8-79.3,177.1-177.1,177.1H668.6
								c-21.1,0-38.3-17.1-38.3-38.3v-29.5V447.5c0-21.1,17.1-38.3,38.3-38.3L970.4,409.1 M835.8,1138.6h139.1
								c52.9,0,95.8-42.9,95.8-95.7v-461c0-52.9-42.9-95.8-95.8-95.8H835.8c-21.1,0-38.3,17.1-38.3,38.3v576
								C797.6,1121.4,814.6,1138.6,835.8,1138.6 M970.4,379.5C970.4,379.5,970.4,379.5,970.4,379.5l-301.8,0.1
								c-37.4,0-67.9,30.5-67.9,67.9v699.9v29.5c0,37.4,30.5,67.9,67.9,67.9h301.7c27.9,0,55-5.5,80.5-16.3
								c24.6-10.4,46.7-25.3,65.7-44.3c19-19,33.9-41.1,44.3-65.7c10.8-25.5,16.3-52.6,16.3-80.5v-452c0-27.9-5.5-55-16.3-80.5
								c-10.4-24.6-25.3-46.7-44.3-65.7c-19-19-41.1-33.9-65.7-44.3C1025.4,385,998.3,379.5,970.4,379.5L970.4,379.5z M835.8,1109
								c-4.8,0-8.7-3.9-8.7-8.7v-576c0-4.8,3.9-8.7,8.7-8.7h139.1c36.5,0,66.2,29.7,66.2,66.2v461c0,36.5-29.7,66.1-66.2,66.1H835.8
								L835.8,1109z"/>
						</g>
					</g>
				</g>
				<g>
					<g>
						<g>
							<path class="st3" d="M2850.4,238.3c-3.7,0-7.2-1.4-9.9-3.8l-26.9-24.3l-26.8,24.3c-2.7,2.5-6.3,3.8-10,3.8h-123.5
								c-6.5,0-12.3-4.3-14.2-10.6c-1.9-6.3,0.6-13,6-16.6l71.8-47.2l-74.4-48.9c-5.5-3.6-7.9-10.4-6-16.6
								c1.9-6.3,7.6-10.6,14.2-10.6h125.4c3.7,0,7.2,1.4,9.9,3.8l27.5,24.9l27.6-24.9c2.7-2.5,6.3-3.8,9.9-3.8h125.3
								c6.5,0,12.3,4.3,14.2,10.6c1.9,6.3-0.6,13-6,16.6l-74.4,48.9l71.8,47.2c5.5,3.6,7.9,10.4,6,16.6c-1.9,6.3-7.6,10.6-14.2,10.6
								H2850.4z"/>
							<path class="st1" d="M2976.3,102.6L2976.3,102.6 M2976.3,102.6l-93.2,61.3l90.6,59.6h-123.4l-36.8-33.4l-36.7,33.4h-123.5
								l90.6-59.6l-93.2-61.3h125.4l37.4,33.9l37.5-33.9H2976.3 M2976.3,72.9L2976.3,72.9H2851c-7.3,0-14.4,2.7-19.8,7.6l-17.6,15.9
								L2796,80.6c-5.4-4.9-12.5-7.7-19.9-7.7h-125.4c-13.1,0-24.6,8.6-28.4,21.1c-3.8,12.5,1.2,26,12.1,33.2l55.6,36.6l-53,34.9
								c-10.9,7.2-15.8,20.7-12.1,33.2c3.8,12.5,15.3,21.1,28.4,21.1h123.5c7.4,0,14.5-2.7,19.9-7.7l16.8-15.3l16.9,15.3
								c5.4,4.9,12.5,7.7,19.9,7.7h123.4c13.1,0,24.6-8.6,28.4-21.1c3.8-12.5-1.2-26-12.1-33.2l-53-34.9l55.2-36.3
								c1.2-0.8,2.3-1.6,3.4-2.5c1.4-1.2,2.7-2.5,3.8-4c4.1-5.1,6.5-11.5,6.5-18.5C3005.9,86.2,2992.7,73,2976.3,72.9
								C2976.3,72.9,2976.3,72.9,2976.3,72.9C2976.3,72.9,2976.3,72.9,2976.3,72.9L2976.3,72.9z M2976.3,132.2L2976.3,132.2
								L2976.3,132.2L2976.3,132.2z"/>
						</g>
					</g>
					<g>
						<g>
							<path class="st3" d="M1326.5,239.9c-34,0-59.9-7.3-76.9-21.7c-15.7-13.3-23.6-31.8-23.6-55.2c0-28.7,13.1-76.9,100.5-76.9
								c19.3,0,38,2.2,55,6.5c2.7-3,6.6-4.8,10.9-4.8h68.7c8.2,0,14.8,6.6,14.8,14.8v121c0,8.2-6.6,14.8-14.8,14.8h-68.7
								c-4.4,0-8.4-2-11.1-5.1C1364.1,237.6,1345.4,239.9,1326.5,239.9z M1345.6,157.3c-12.1,0-16.7,2.3-18.1,3.3
								c-0.7,0.5-1,0.7-1,2.3c0,1.6,0.3,1.8,1,2.3c1.4,1,6,3.3,18.2,3.3c13.7,0,23.9-3,29.1-5.6
								C1369.5,160.3,1359.3,157.3,1345.6,157.3z"/>
							<path class="st1" d="M1326.5,100.9c24.5,0,47.1,3.8,65.9,10.5v-8.8h68.7v121h-68.7v-9c-18.9,6.5-41.6,10.5-65.9,10.5
								c-65.2,0-85.7-27.8-85.7-62.1S1261.2,100.9,1326.5,100.9 M1345.6,183.4c26,0,46.9-9.2,46.9-20.4s-21.1-20.4-46.9-20.4
								s-34,9.2-34,20.4S1319.7,183.4,1345.6,183.4 M1326.5,71.3c-18.5,0-35,2-49,6c-14.8,4.2-27.4,10.7-37.5,19.2
								c-18.8,16-28.8,39-28.8,66.5c0,27.5,10,50.5,28.8,66.5c10.1,8.6,22.7,15,37.5,19.2c14.1,4,30.5,6,49,6
								c17.6,0,34.9-1.8,51.3-5.3c4.3,2.5,9.3,3.9,14.6,3.9h68.7c16.4,0,29.6-13.3,29.6-29.6v-121c0-16.4-13.3-29.6-29.6-29.6h-68.7
								c-5.2,0-10,1.3-14.3,3.7C1361.9,73.1,1344.5,71.3,1326.5,71.3L1326.5,71.3z"/>
						</g>
					</g>
					<g>
						<g>
							<path class="st3" d="M2039.8,239.9c-34,0-59.9-7.3-76.9-21.7c-15.7-13.3-23.6-31.8-23.6-55.2c0-28.7,13.1-76.9,100.5-76.9
								c19.3,0,38,2.2,55,6.5c2.7-3,6.6-4.8,10.9-4.8h68.7c8.2,0,14.8,6.6,14.8,14.8v121c0,8.2-6.6,14.8-14.8,14.8h-68.7
								c-4.4,0-8.4-2-11.1-5.1C2077.3,237.6,2058.7,239.9,2039.8,239.9z M2059,157.3c-12.1,0-16.7,2.3-18.1,3.3
								c-0.7,0.5-1,0.7-1,2.3c0,1.6,0.3,1.8,1,2.3c1.4,1,6,3.3,18.2,3.3c14.3,0,24-3.1,29-5.7C2083,160.4,2073.3,157.3,2059,157.3z"
								/>
							<path class="st1" d="M2039.8,100.9c24.5,0,47.1,3.8,65.9,10.5v-8.8h68.7v121h-68.7v-9c-18.9,6.5-41.6,10.5-65.9,10.5
								c-65.2,0-85.7-27.8-85.7-62.1S1974.4,100.9,2039.8,100.9 M2059,183.4c25.8,0,46.7-9.2,46.9-20.4c0-11.3-21-20.4-46.9-20.4
								c-25.8,0-34,9.2-34,20.4S2033.2,183.4,2059,183.4 M2039.8,71.3c-18.5,0-35,2-49,6c-14.8,4.2-27.4,10.7-37.5,19.2
								c-18.8,16-28.8,39-28.8,66.5c0,27.5,10,50.5,28.8,66.5c10.1,8.6,22.7,15,37.5,19.2c14.1,4,30.5,6,49,6
								c17.6,0,34.9-1.8,51.3-5.3c4.3,2.5,9.3,3.9,14.6,3.9h68.7c16.4,0,29.6-13.3,29.6-29.6v-121c0-16.4-13.3-29.6-29.6-29.6h-68.7
								c-5.2,0-10,1.3-14.3,3.7C2075.2,73.1,2057.7,71.3,2039.8,71.3L2039.8,71.3z"/>
						</g>
					</g>
					<g>
						<g>
							<path class="st3" d="M1511.5,293.6c-8.2,0-14.8-6.6-14.8-14.8v-40c0-4.8,2.3-9.1,5.9-11.8c-4.8-2.6-9.2-5.5-13.2-8.8
								c-15.7-13.3-23.6-31.8-23.6-55.2c0-28.7,13.1-76.9,100.5-76.9c19.3,0,38,2.2,55,6.5c0.2-0.2,0.3-0.3,0.5-0.5
								c2.8-2.8,6.5-4.3,10.5-4.3h68.7c8.2,0,14.8,6.6,14.8,14.8v123.7c0,37.1-30.2,67.3-67.3,67.3H1511.5z M1585.4,157.3
								c-12.1,0-16.7,2.3-18.1,3.3c-0.7,0.5-1,0.7-1,2.3c0,1.6,0.3,1.8,1,2.3c1.4,1,6,3.3,18.2,3.3c14.3,0,24.1-3.1,29.1-5.6
								C1609.3,160.3,1599.1,157.3,1585.4,157.3z"/>
							<path class="st1" d="M1566.3,100.9c24.5,0,47.1,3.8,65.9,10.5l0-8.8h68.7v97v23.9v2.8c0,28.9-23.5,52.5-52.5,52.5h-136.9v-40
								h108c7,0,12.7-5.6,12.7-12.7v-2.6v-3.8v-5c-18.9,6.5-41.6,10.5-65.9,10.5c-65.2,0-85.7-27.8-85.7-62.1
								S1500.9,100.9,1566.3,100.9 M1585.4,183.4c25.9,0,46.9-9.2,46.9-20.4s-21.1-20.4-46.9-20.4c-25.8,0-34,9.2-34,20.4
								S1559.6,183.4,1585.4,183.4 M1566.3,71.3c-18.5,0-35,2-49,6c-14.8,4.2-27.4,10.6-37.5,19.2c-18.8,16-28.8,39-28.8,66.5
								c0,27.5,10,50.5,28.8,66.5c0.9,0.8,1.9,1.6,2.9,2.3c-0.5,2.2-0.8,4.6-0.8,7v40c0,16.4,13.3,29.6,29.6,29.6h136.9
								c45.3,0,82.1-36.8,82.1-82.1v-2.8v-23.9v-97c0-16.4-13.3-29.6-29.6-29.6h-68.7c-5,0-9.9,1.3-14.3,3.7
								C1601.7,73.1,1584.2,71.3,1566.3,71.3L1566.3,71.3z"/>
						</g>
					</g>
					<g>
						<g>
							<path class="st3" d="M1866.6,238.3c-8.2,0-14.8-6.6-14.8-14.8v-59.5c-1.6-0.3-4-0.7-7-0.7c-0.8,0-1.4,0-1.6,0
								c-11.9,1-25.1,4-30.7,6.6v53.5c0,8.2-6.6,14.8-14.8,14.8H1729c-8.2,0-14.8-6.6-14.8-14.8V102.6c0-8.2,6.6-14.8,14.8-14.8
								h68.7c6.2,0,11.6,3.8,13.7,9.3c15.5-5.1,37.9-11,58.9-11c46,0,79.5,28.9,79.8,68.8l0,68.6c0,8.2-6.6,14.8-14.8,14.8H1866.6z"
								/>
							<path class="st1" d="M1870.4,100.9c33.7,0,64.8,19.1,64.9,54.1v68.5h-68.7V160c0-10.5-15.5-11.5-21.8-11.5
								c-1.6,0-2.6,0.1-2.6,0.1s-44.4,3.8-44.4,17.2v57.7H1729V102.6h68.7V118C1797.7,118,1836.7,100.9,1870.4,100.9 M1870.4,71.3
								c-18.8,0-38.1,4.1-53.6,8.6c-5.1-4.3-11.8-6.9-19-6.9H1729c-16.4,0-29.6,13.3-29.6,29.6v120.9c0,16.4,13.3,29.6,29.6,29.6
								h68.7c16.4,0,29.6-13.3,29.6-29.6v-42.7c2.9-0.7,6.3-1.3,9.7-1.8v44.5c0,16.4,13.3,29.6,29.6,29.6h68.7
								c16.4,0,29.6-13.3,29.6-29.6V155c0-0.1,0-0.1,0-0.2c-0.1-25.5-11.4-48.1-31.6-63.5C1916.5,78.4,1894.1,71.3,1870.4,71.3
								L1870.4,71.3z"/>
						</g>
					</g>
					<g>
						<g>
							<path class="st3" d="M2559.8,245.8c-74.6,0-133-36.2-133-82.4s58.4-82.4,133.1-82.4s133.1,36.2,133.1,82.4
								c0,23.6-14.9,45.1-42,60.7c-24.5,14-56.7,21.8-90.8,21.8C2560.2,245.8,2559.8,245.8,2559.8,245.8z M2559.9,149.8
								c-13.4,0-23.4,7.1-23.4,13.5s10,13.5,23.4,13.5c13.4,0,23.4-7.1,23.4-13.5S2573.2,149.8,2559.9,149.8z"/>
							<path class="st1" d="M2559.9,95.7c65.3,0,118.3,30.2,118.3,67.6c0,37.4-52.7,67.6-117.9,67.6c-0.1,0-0.2,0-0.3,0
								c-65.3,0-118.3-30.2-118.3-67.6C2441.6,126.1,2494.5,95.7,2559.9,95.7 M2559.9,191.7c21.1,0,38.2-12.6,38.2-28.3
								c0-15.7-17.1-28.3-38.2-28.3s-38.2,12.6-38.2,28.3C2521.7,179.1,2538.7,191.7,2559.9,191.7 M2559.9,66.1
								c-36.7,0-71.6,8.4-98.3,23.7c-14.4,8.3-26,18.2-34.4,29.6c-9.9,13.4-15.1,28.5-15.1,43.9c0,15.4,5.2,30.6,15.1,43.9
								c8.4,11.4,20,21.3,34.5,29.6c26.7,15.3,61.6,23.7,98.3,23.7h0.3c36.6,0,71.5-8.4,98.1-23.7c14.4-8.3,26-18.2,34.4-29.6
								c9.8-13.3,15-28.5,15-43.9c0-15.4-5.2-30.6-15.1-43.9c-8.4-11.4-20-21.3-34.5-29.6C2631.5,74.5,2596.5,66.1,2559.9,66.1
								L2559.9,66.1z"/>
						</g>
					</g>
					<g>
						<g>
							<path class="st3" d="M1145.5,238.3c-8.2,0-14.8-6.6-14.8-14.8v-48.3l-32.2,55.7c-2.6,4.6-7.5,7.4-12.8,7.4h-86.8
								c-5.3,0-10.2-2.8-12.8-7.4L954,175.2v48.2c0,8.2-6.6,14.8-14.8,14.8h-76.6c-8.2,0-14.8-6.6-14.8-14.8v-189
								c0-8.2,6.6-14.8,14.8-14.8h115.7c5.3,0,10.2,2.8,12.8,7.4l51.2,88.8l51.3-88.8c2.6-4.6,7.5-7.4,12.8-7.4h115.7
								c8.2,0,14.8,6.6,14.8,14.8v189c0,8.2-6.6,14.8-14.8,14.8H1145.5z"/>
							<path class="st1" d="M1222.1,34.5v189h-76.6V119.9l-59.8,103.5h-86.8l-59.7-103.5v103.5h-76.6v-189H917h22.2h39.1l64,111
								l64.2-111h39.1h22.2H1222.1 M1222.1,4.8h-54.4h-22.2h-39.1c-10.6,0-20.4,5.6-25.6,14.8l-38.5,66.6l-38.3-66.6
								c-5.3-9.2-15.1-14.8-25.7-14.8h-39.1H917h-54.4c-16.4,0-29.6,13.3-29.6,29.6v189c0,16.4,13.3,29.6,29.6,29.6h76.6
								c14.3,0,26.2-10.1,29-23.6l5.1,8.8c5.3,9.2,15.1,14.8,25.7,14.8h86.8c10.6,0,20.4-5.6,25.6-14.8l5.1-8.9
								c2.7,13.5,14.7,23.7,29,23.7h76.6c16.4,0,29.6-13.3,29.6-29.6v-189C1251.7,18.1,1238.4,4.8,1222.1,4.8L1222.1,4.8z"/>
						</g>
					</g>
					<g>
						<g>
							<path class="st3" d="M2276,238.3c-4.5,0-8.7-2-11.5-5.5l-97.9-120.9c-3.6-4.4-4.3-10.5-1.9-15.7c2.5-5.2,7.7-8.4,13.4-8.4h92
								c4.7,0,9.1,2.2,11.9,6l36.1,49l36.1-49c2.8-3.8,7.2-6,11.9-6h92.1c5.7,0,10.9,3.3,13.4,8.4c2.5,5.2,1.7,11.3-1.9,15.7
								l-97.9,120.9c-2.8,3.5-7,5.5-11.5,5.5H2276z"/>
							<path class="st1" d="M2458.2,102.6L2458.2,102.6 M2458.2,102.6l-97.9,120.9h-41.2h-1.9H2276l-97.9-120.9h92l48.1,65.2
								l48-65.2H2458.2 M2458.2,72.9L2458.2,72.9h-92.1c-9.4,0-18.3,4.5-23.9,12.1l-24.1,32.8L2293.9,85c-5.6-7.6-14.4-12-23.8-12
								h-92c-11.4,0-21.8,6.6-26.7,16.9c-4.9,10.3-3.5,22.5,3.7,31.4l97.9,120.9c5.6,6.9,14.1,11,23,11h41.3h1.9h41.2
								c8.9,0,17.4-4,23-11l97.7-120.7c4.3-5.1,6.8-11.7,6.8-18.9C2487.8,86.2,2474.6,73,2458.2,72.9
								C2458.2,72.9,2458.2,72.9,2458.2,72.9C2458.2,72.9,2458.2,72.9,2458.2,72.9L2458.2,72.9z M2458.2,132.2L2458.2,132.2
								L2458.2,132.2L2458.2,132.2z"/>
						</g>
					</g>
				</g>
			</g>
		</g>
	</g>
	<g>
		<g>
			<g>
				<g>
					<g>
						<path class="st0" d="M72.8,1220.2c-23.8,0-43.2-19.3-43.2-43.2V447.5c0-23.8,19.3-43.2,43.2-43.2l440.5,0.1
							c23.8,0,43.2,19.3,43.2,43.2v729.4c0,23.8-19.3,43.2-43.2,43.2L72.8,1220.2L72.8,1220.2z M149.6,490.9
							c-18.5,0-33.4,15-33.4,33.4v576c0,18.5,15,33.4,33.4,33.4h196.7c18.5,0,33.4-15,33.4-33.4V944.3c0-23.8,19.3-43.2,43.2-43.2
							h13.7c18.5,0,33.4-15,33.4-33.5V524.3c0-18.5-15-33.4-33.4-33.4L149.6,490.9L149.6,490.9z"/>
						<path class="st1" d="M72.8,409.2l440.5,0.1c21.1,0,38.3,17.1,38.3,38.3v8.9V486v420.1v232.6v17.4v21
							c0,21.1-17.1,38.3-38.3,38.3H475H111.2H72.8c-21.1,0-38.3-17.1-38.3-38.3v-38.4V485.9v-29.5v-8.9
							C34.5,426.4,51.7,409.2,72.8,409.2 M149.6,1138.5h196.7c21.1,0,38.3-17.1,38.3-38.3V944.3c0-21.1,17.1-38.3,38.3-38.3h13.7
							c21.2,0,38.3-17.2,38.3-38.4V524.3c0-21.1-17.1-38.3-38.3-38.3h-287c-21.1,0-38.3,17.1-38.3,38.3v576
							C111.3,1121.3,128.5,1138.5,149.6,1138.5 M72.8,399.4L72.8,399.4L72.8,399.4c-26.5,0-48.1,21.6-48.1,48.2v8.9v29.5v652.7v38.4
							c0,26.6,21.6,48.1,48.1,48.1h38.4H475h38.4c26.6,0,48.1-21.6,48.1-48.1v-21v-17.4V906V486v-29.5v-8.9
							c0-26.6-21.6-48.1-48.1-48.1L72.8,399.4L72.8,399.4z M149.6,1128.7c-15.7,0-28.4-12.7-28.4-28.4v-576
							c0-15.7,12.7-28.4,28.4-28.4h287c15.7,0,28.4,12.7,28.4,28.4v343.4c0,15.8-12.7,28.5-28.4,28.5H423
							c-26.6,0-48.1,21.6-48.1,48.1v155.9c0,15.7-12.7,28.4-28.4,28.4L149.6,1128.7L149.6,1128.7z"/>
					</g>
					<g>
						<path class="st0" d="M1407,1220.3c-23.9,0-43.3-19.4-43.3-43.3V903.6c0-21-9.2-40.9-25.2-54.5l-106.4-90.8
							c-9.7-8.2-15.2-20.2-15.2-32.9V447.6c0-23.9,19.4-43.3,43.3-43.3c23.9,0,43.3,19.4,43.3,43.3V690c0,9.8,4.2,19.1,11.7,25.5
							l103,87.8c9.5,8.1,21.5,12.5,34,12.5s24.5-4.4,34-12.5l103-87.8c7.5-6.3,11.7-15.6,11.7-25.5V447.6
							c0-23.9,19.4-43.3,43.3-43.3c23.9,0,43.3,19.4,43.3,43.3v277.7c0,12.7-5.5,24.7-15.2,32.9L1566.1,849
							c-16,13.6-25.2,33.5-25.2,54.5V1177c0,23.9-19.4,43.3-43.3,43.3H1407z"/>
						<path class="st1" d="M1644.2,409.2c21.2,0,38.4,17.2,38.4,38.4v277.7c0,11.2-4.9,21.9-13.4,29.1l-106.4,90.8
							c-17.1,14.5-26.9,35.8-26.9,58.2V1177c0,21.2-17.2,38.4-38.4,38.4h-90.3c-21.2,0-38.4-17.2-38.4-38.4V903.6
							c0-22.4-9.8-43.7-26.9-58.2l-106.4-90.8c-8.6-7.3-13.4-18-13.4-29.1V447.6c0-21.2,17.2-38.4,38.4-38.4s38.4,17.2,38.4,38.4
							V690c0,11.2,4.9,21.9,13.4,29.1l103,87.8c10.7,9.2,23.9,13.7,37.1,13.7s26.5-4.5,37.1-13.7l103-87.8
							c8.6-7.3,13.4-18,13.4-29.1V447.6C1605.8,426.4,1622.9,409.2,1644.2,409.2 M1644.2,399.4c-26.6,0-48.2,21.6-48.2,48.2V690
							c0,8.4-3.7,16.3-10,21.7l-103,87.8c-8.6,7.3-19.5,11.4-30.7,11.4c-11.3,0-22.2-4-30.7-11.4l-103-87.8
							c-6.3-5.4-10-13.3-10-21.7V447.6c0-26.6-21.6-48.2-48.2-48.2s-48.2,21.6-48.2,48.2v277.7c0,14.1,6.1,27.5,16.9,36.6
							l106.4,90.8c14.9,12.7,23.5,31.2,23.5,50.7V1177c0,26.6,21.6,48.2,48.2,48.2h90.3c26.6,0,48.2-21.6,48.2-48.2V903.6
							c0-19.5,8.6-38.1,23.5-50.7l106.5-90.8c10.8-9.2,16.9-22.5,16.9-36.6V447.6C1692.3,421,1670.7,399.4,1644.2,399.4
							L1644.2,399.4z"/>
					</g>
					<g>
						<path class="st0" d="M3528.8,1220.3c-23.9,0-43.3-19.4-43.3-43.3V903.6c0-21-9.2-40.9-25.2-54.5l-106.4-90.8
							c-9.7-8.2-15.2-20.2-15.2-32.9V447.6c0-23.9,19.4-43.3,43.3-43.3s43.3,19.4,43.3,43.3V690c0,9.8,4.2,19.1,11.7,25.5l103,87.8
							c9.5,8.1,21.5,12.5,34,12.5c12.4,0,24.5-4.4,34-12.5l103-87.8c7.5-6.3,11.7-15.6,11.7-25.5V447.6c0-23.9,19.4-43.3,43.3-43.3
							c11.5,0,22.4,4.5,30.6,12.6c8.2,8.2,12.6,19.1,12.6,30.6v277.7c0,12.7-5.5,24.7-15.2,32.9l-106.4,90.8
							c-16,13.6-25.2,33.5-25.2,54.5v273.5c0,23.9-19.4,43.3-43.3,43.3L3528.8,1220.3L3528.8,1220.3z"/>
						<path class="st1" d="M3766,409.2c21.2,0,38.4,17.2,38.4,38.4v277.7c0,11.2-4.9,21.9-13.4,29.1l-106.4,90.8
							c-17.1,14.5-26.9,35.8-26.9,58.2V1177c0,21.2-17.2,38.4-38.4,38.4h-90.3c-21.2,0-38.4-17.2-38.4-38.4V903.6
							c0-22.4-9.8-43.7-26.9-58.2l-106.4-90.8c-8.6-7.3-13.4-18-13.4-29.1V447.6c0-21.2,17.2-38.4,38.4-38.4s38.4,17.2,38.4,38.4
							V690c0,11.2,4.9,21.9,13.4,29.1l103,87.8c10.7,9.2,23.9,13.7,37.1,13.7c13.2,0,26.5-4.5,37.1-13.7l103-87.8
							c8.6-7.3,13.4-18,13.4-29.1V447.6C3727.6,426.4,3744.7,409.2,3766,409.2 M3766,399.4c-26.6,0-48.2,21.6-48.2,48.2V690
							c0,8.4-3.7,16.3-10,21.7l-103,87.8c-8.6,7.3-19.5,11.4-30.7,11.4c-11.3,0-22.2-4-30.7-11.4l-103-87.8
							c-6.3-5.4-10-13.3-10-21.7V447.6c0-26.6-21.6-48.2-48.2-48.2c-26.6,0-48.2,21.6-48.2,48.2v277.7c0,14.1,6.1,27.5,16.9,36.6
							l106.4,90.8c14.9,12.7,23.5,31.2,23.5,50.7V1177c0,26.6,21.6,48.2,48.2,48.2h90.3c26.6,0,48.2-21.6,48.2-48.2V903.6
							c0-19.5,8.6-38.1,23.5-50.7l106.5-90.8c10.8-9.2,16.9-22.5,16.9-36.6V447.6c0-12.8-5-25-14.1-34.1
							C3790.9,404.4,3778.8,399.4,3766,399.4L3766,399.4z"/>
					</g>
					<g>
						<path class="st0" d="M2340.1,1220.2c-23.8,0-43.2-19.3-43.2-43.2V998.1c0-23.8,19.3-43.2,43.2-43.2h90.4
							c23.8,0,43.2,19.3,43.2,43.2v102.2c0,18.5,15,33.4,33.4,33.4h135.2c18.5,0,33.4-15,33.4-33.4V878.9c0-18.5-15-33.4-33.4-33.4
							h-302.4c-23.8,0-43.2-19.3-43.2-43.2V447.5c0-23.8,19.4-43.2,43.4-43.2h379.2c23.8,0,43.2,19.3,43.2,43.2v167.2
							c0,23.9-19.4,43.3-43.3,43.3s-43.3-19.4-43.3-43.3v-90.4c0-18.5-15-33.4-33.4-33.4h-225.6c-18.5,0-33.4,15-33.4,33.4v201.3
							c0,18.5,15,33.4,33.4,33.4h302.4c23.8,0,43.2,19.3,43.2,43.2V1177c0,23.8-19.3,43.2-43.2,43.2H2340.1z"/>
						<path class="st1" d="M2719.4,409.2c21.1,0,38.3,17.1,38.3,38.3v167.2c0,21.2-17.2,38.4-38.4,38.4s-38.4-17.2-38.4-38.4v-90.4
							c0-21.1-17.1-38.3-38.3-38.3h-225.6c-21.1,0-38.3,17.1-38.3,38.3v201.3c0,21.1,17.1,38.3,38.3,38.3h302.4
							c21.1,0,38.3,17.1,38.3,38.3V1177c0,21.1-17.1,38.3-38.3,38.3h-379.2c-21.1,0-38.3-17.1-38.3-38.3V998.1
							c0-21.1,17.1-38.3,38.3-38.3h90.4c21.1,0,38.3,17.1,38.3,38.3v102.2c0,21.1,17.1,38.3,38.3,38.3h135.2
							c21.1,0,38.3-17.1,38.3-38.3V878.9c0-21.1-17.1-38.3-38.3-38.3h-302.4c-21.1,0-38.3-17.1-38.3-38.3V447.5
							c0-21.1,17.2-38.3,38.5-38.3H2719.4 M2719.4,399.4h-379.2c-26.7,0-48.3,21.6-48.3,48.1v354.8c0,26.6,21.6,48.1,48.1,48.1
							h302.4c15.7,0,28.4,12.7,28.4,28.4V1100c0,15.7-12.7,28.4-28.4,28.4h-135.2c-15.7,0-28.4-12.7-28.4-28.4V998.1
							c0-26.6-21.6-48.1-48.1-48.1h-90.4c-26.6,0-48.1,21.6-48.1,48.1v179c0,26.6,21.6,48.1,48.1,48.1h379.2
							c26.6,0,48.1-21.6,48.1-48.1V802.2c0-26.6-21.6-48.1-48.1-48.1H2417c-15.7,0-28.4-12.7-28.4-28.4V524.3
							c0-15.7,12.7-28.4,28.4-28.4h225.6c15.7,0,28.4,12.7,28.4,28.4v90.4c0,26.6,21.6,48.2,48.2,48.2s48.2-21.6,48.2-48.2V447.5
							C2767.4,421,2745.9,399.4,2719.4,399.4L2719.4,399.4z"/>
					</g>
					<g>
						<path class="st0" d="M1797.5,1220.2c-23.8,0-43.2-19.3-43.2-43.2V998.1c0-23.8,19.3-43.2,43.2-43.2h90.4
							c23.8,0,43.2,19.3,43.2,43.2v102.2c0,18.5,15,33.4,33.4,33.4h135.3c18.5,0,33.4-15,33.4-33.4V878.9c0-18.5-15-33.4-33.4-33.4
							h-302.4c-23.8,0-43.2-19.3-43.2-43.2V447.5c0-23.8,19.4-43.2,43.3-43.2h379.2c23.8,0,43.2,19.3,43.2,43.2v167.2
							c0,23.9-19.4,43.3-43.3,43.3s-43.3-19.4-43.3-43.3v-90.4c0-18.5-15-33.4-33.4-33.4h-225.6c-18.5,0-33.4,15-33.4,33.4v201.3
							c0,18.5,15,33.4,33.4,33.4h302.4c23.8,0,43.2,19.3,43.2,43.2V1177c0,23.8-19.3,43.2-43.2,43.2H1797.5z"/>
						<path class="st1" d="M2176.8,409.2c21.1,0,38.3,17.1,38.3,38.3v167.2c0,21.2-17.2,38.4-38.4,38.4s-38.4-17.2-38.4-38.4v-90.4
							c0-21.1-17.1-38.3-38.3-38.3h-225.6c-21.1,0-38.3,17.1-38.3,38.3v201.3c0,21.1,17.1,38.3,38.3,38.3h302.4
							c21.1,0,38.3,17.1,38.3,38.3V1177c0,21.1-17.1,38.3-38.3,38.3h-379.2c-21.1,0-38.3-17.1-38.3-38.3V998.1
							c0-21.1,17.1-38.3,38.3-38.3h90.4c21.1,0,38.3,17.1,38.3,38.3v102.2c0,21.1,17.1,38.3,38.3,38.3h135.3
							c21.1,0,38.3-17.1,38.3-38.3V878.9c0-21.1-17.1-38.3-38.3-38.3h-302.4c-21.1,0-38.3-17.1-38.3-38.3V447.5
							c0-21.1,17.2-38.3,38.4-38.3H2176.8 M2176.8,399.4h-379.2c-26.6,0-48.2,21.6-48.2,48.1v354.8c0,26.6,21.6,48.1,48.1,48.1
							h302.4c15.7,0,28.4,12.7,28.4,28.4V1100c0,15.7-12.7,28.4-28.4,28.4h-135.3c-15.7,0-28.4-12.7-28.4-28.4V998.1
							c0-26.6-21.6-48.1-48.1-48.1h-90.5c-26.6,0-48.1,21.6-48.1,48.1v179c0,26.6,21.6,48.1,48.1,48.1h379.2
							c26.6,0,48.1-21.6,48.1-48.1V802.2c0-26.6-21.6-48.1-48.1-48.1h-302.4c-15.7,0-28.4-12.7-28.4-28.4V524.3
							c0-15.7,12.7-28.4,28.4-28.4H2100c15.7,0,28.4,12.7,28.4,28.4v90.4c0,26.6,21.6,48.2,48.2,48.2s48.2-21.6,48.2-48.2V447.5
							C2224.9,421,2203.3,399.4,2176.8,399.4L2176.8,399.4z"/>
					</g>
					<g>
						<path class="st0" d="M2879,1220.3c-23.9,0-43.3-19.4-43.3-43.3V447.5c0-23.9,19.4-43.3,43.3-43.3h350.8
							c23.9,0,43.3,19.4,43.3,43.3c0,11.5-4.4,22.4-12.6,30.5c-8.1,8.2-19,12.6-30.5,12.6h-274.2c-18.5,0-33.5,15-33.5,33.5v201.1
							c0,18.5,15,33.5,33.5,33.5h274c23.9,0,43.3,19.4,43.3,43.3s-19.4,43.3-43.3,43.3h-183.6c-18.5,0-33.5,15-33.5,33.5V1100
							c0,18.5,15,33.5,33.5,33.5h183.6c23.9,0,43.3,19.4,43.3,43.3c0,23.9-19.4,43.3-43.3,43.3H2879V1220.3z"/>
						<path class="st1" d="M3229.8,409.2c21.2,0,38.4,17.2,38.4,38.4c0,21.1-17.1,38.3-38.2,38.3c-0.1,0-0.1,0-0.2,0h-274.1
							c-21.2,0-38.4,17.2-38.4,38.4v201.1c0,21.2,17.2,38.4,38.4,38.4h274.1c21.2,0,38.4,17.2,38.4,38.4s-17.2,38.4-38.4,38.4
							h-183.6c-21.2,0-38.4,17.2-38.4,38.4v221.2c0,21.2,17.2,38.4,38.4,38.4h183.6c21.2,0,38.4,17.2,38.4,38.4
							s-17.2,38.4-38.4,38.4h-350.7c-21.2,0-38.4-17.2-38.4-38.4V447.5c0-21.2,17.2-38.4,38.4-38.4L3229.8,409.2 M3229.8,399.4
							h-350.7c-26.6,0-48.2,21.6-48.2,48.2V1177c0,26.6,21.6,48.2,48.2,48.2h350.7c26.6,0,48.2-21.6,48.2-48.2s-21.6-48.2-48.2-48.2
							h-183.6c-15.8,0-28.5-12.8-28.5-28.5V879c0-15.8,12.8-28.5,28.5-28.5h183.6c26.6,0,48.2-21.6,48.2-48.2
							c0-26.6-21.6-48.2-48.2-48.2h-274.1c-15.8,0-28.5-12.8-28.5-28.5V524.3c0-15.8,12.8-28.5,28.5-28.5h274.1h0.2
							c26.5,0,48.1-21.6,48.1-48.1C3278,421,3256.3,399.4,3229.8,399.4L3229.8,399.4z"/>
					</g>
					<g>
						<path class="st0" d="M668.6,1220.2c-23.8,0-43.2-19.3-43.2-43.2V447.5c0-23.8,19.3-43.2,43.2-43.2h301.7
							c100.3,0,181.9,81.6,181.9,181.9v452c0,100.3-81.6,181.9-181.9,181.9L668.6,1220.2L668.6,1220.2z M835.8,490.9
							c-18.5,0-33.4,15-33.4,33.4v576.1c0,18.5,15,33.4,33.4,33.4h139.1c50.1,0,90.9-40.8,90.9-90.9v-461
							c0-50.1-40.8-90.9-90.9-90.9L835.8,490.9L835.8,490.9z"/>
						<path class="st1" d="M970.4,409.2c97.8,0,177.1,79.3,177.1,177.1v452c0,97.8-79.3,177.1-177.1,177.1H668.6
							c-21.1,0-38.3-17.1-38.3-38.3v-29.5v-700c0-21.1,17.1-38.3,38.3-38.3H970.4 M835.8,1138.6h139.1c52.9,0,95.8-42.9,95.8-95.8
							v-461c0-52.9-42.9-95.8-95.8-95.8H835.8c-21.1,0-38.3,17.1-38.3,38.3v576.1C797.6,1121.4,814.6,1138.6,835.8,1138.6
							 M970.4,399.4H668.6c-26.6,0-48.1,21.6-48.1,48.1v699.9v29.5c0,26.6,21.6,48.1,48.1,48.1h301.7c25.3,0,49.7-4.9,72.7-14.7
							c22.2-9.4,42.2-22.9,59.4-40.1c17.2-17.2,30.6-37.1,40.1-59.4c9.8-23,14.7-47.5,14.7-72.7V586.2c0-25.3-4.9-49.7-14.7-72.7
							c-9.4-22.2-22.9-42.2-40.1-59.4c-17.2-17.2-37.1-30.6-59.4-40.1C1020.1,404.3,995.7,399.4,970.4,399.4L970.4,399.4z
							 M835.8,1128.8c-15.7,0-28.4-12.7-28.4-28.4V524.3c0-15.7,12.7-28.4,28.4-28.4h139.1c47.5,0,86,38.6,86,86v461
							c0,47.5-38.6,86-86,86H835.8L835.8,1128.8z"/>
					</g>
				</g>
				<g>
					<g>
						<polygon class="st3" points="2848.5,228.3 2813.5,196.7 2778.7,228.3 2636.9,228.3 2735.1,163.9 2634.4,97.6 2778,97.6 
							2813.5,129.8 2849.2,97.6 2992.7,97.6 2892.1,163.9 2990.2,228.3 						"/>
						<path class="st1" d="M2976.3,102.6l-93.2,61.3l90.6,59.6h-123.4l-36.8-33.3l-36.7,33.3h-123.4l90.6-59.6l-93.2-61.3h125.3
							l37.4,33.9l37.5-33.9L2976.3,102.6 M3009.2,92.7h-32.8h-125.3h-3.8l-2.8,2.6l-30.9,27.9l-30.8-27.9l-2.8-2.6h-3.8h-125.3
							h-32.8l27.4,18.1l80.7,53.1l-78.2,51.4l-27.4,18.1h32.8h123.4h3.8l2.8-2.6l30.1-27.3l30.2,27.3l2.8,2.6h3.8h123.4h32.8
							l-27.4-18.1l-78.2-51.4l80.7-53.1L3009.2,92.7L3009.2,92.7z"/>
					</g>
					<g>
						<path class="st3" d="M1326.5,229.9c-31.6,0-55.4-6.5-70.5-19.3c-13.3-11.3-20.1-27.3-20.1-47.7s6.8-36.3,20.1-47.7
							c15.2-12.8,38.9-19.3,70.5-19.3c21.6,0,42.5,3,61,8.6v-6.9h78.6v130.7h-78.6v-7.1C1368.9,226.9,1347.9,229.9,1326.5,229.9z
							 M1345.6,147.5c-29,0-29,11.6-29,15.5c0,15.5,21.9,15.5,29,15.5c26,0,42-9.1,42-15.5C1387.5,156.6,1371.2,147.5,1345.6,147.5z
							"/>
						<path class="st1" d="M1326.5,100.9c24.5,0,47.1,3.8,65.9,10.5v-8.9h68.7v120.9h-68.7v-9c-18.9,6.6-41.6,10.5-65.9,10.5
							c-65.3,0-85.7-27.8-85.7-62.1S1261.3,100.9,1326.5,100.9 M1345.6,183.4c26,0,46.9-9.2,46.9-20.4c0-11.3-21-20.4-46.9-20.4
							s-34,9.2-34,20.4C1311.6,174.2,1319.8,183.4,1345.6,183.4 M1326.5,91c-32.9,0-57.6,6.9-73.7,20.5
							c-14.5,12.2-21.8,29.5-21.8,51.3s7.3,39.1,21.8,51.3c16.1,13.6,40.9,20.5,73.7,20.5c19.5,0,38.6-2.5,56.1-7.1v5.5h9.8h68.7
							h9.8v-9.8V102.6v-9.8h-9.8h-68.7h-9.8v5.3C1365.3,93.5,1346.3,91,1326.5,91L1326.5,91z M1345.6,173.5c-12.4,0-18.3-2.3-21-4.2
							c-2.2-1.6-3.2-3.5-3.2-6.4s0.9-4.8,3.2-6.4c2.8-1.9,8.6-4.2,21-4.2c10.3,0,20,1.6,27.5,4.4c6.7,2.6,9.1,5.3,9.5,6.1
							c-0.4,0.8-2.7,3.6-9.4,6.1C1365.7,171.9,1355.9,173.5,1345.6,173.5L1345.6,173.5z"/>
					</g>
					<g>
						<path class="st3" d="M2039.9,229.9c-31.6,0-55.4-6.5-70.5-19.3c-13.3-11.3-20.1-27.3-20.1-47.7s6.8-36.3,20.1-47.7
							c15.2-12.8,38.9-19.3,70.5-19.3c21.6,0,42.5,3,61,8.6v-6.9h78.6v130.7h-78.6v-7.1C2082.2,226.9,2061.3,229.9,2039.9,229.9z
							 M2059,147.5c-29,0-29,11.6-29,15.5c0,15.5,21.9,15.5,29,15.5c25.9,0,41.9-9.1,42-15.6C2100.9,156.6,2084.6,147.5,2059,147.5z
							"/>
						<path class="st1" d="M2039.9,100.9c24.5,0,47.1,3.8,65.9,10.5v-8.9h68.7v120.9h-68.7v-9c-18.9,6.6-41.6,10.5-65.9,10.5
							c-65.3,0-85.7-27.8-85.7-62.1S1974.5,100.9,2039.9,100.9 M2059,183.4c25.9,0,46.8-9.2,46.9-20.4c0-11.3-21-20.4-46.9-20.4
							c-25.9,0-34,9.2-34,20.4C2025.1,174.2,2033.2,183.4,2059,183.4 M2039.9,91c-32.9,0-57.6,6.9-73.7,20.5
							c-14.5,12.2-21.8,29.5-21.8,51.3s7.3,39.1,21.8,51.3c16.1,13.6,40.9,20.5,73.7,20.5c19.5,0,38.6-2.5,56.1-7.1v5.5h9.8h68.7
							h9.8v-9.8V102.6v-9.8h-9.8h-68.7h-9.8v5.3C2078.7,93.5,2059.5,91,2039.9,91L2039.9,91z M2059,173.5c-12.4,0-18.3-2.3-21-4.2
							c-2.2-1.6-3.2-3.5-3.2-6.4s0.9-4.8,3.2-6.4c2.8-1.9,8.6-4.2,21-4.2c10.3,0,20,1.6,27.5,4.4c6.6,2.6,9,5.2,9.5,6.1
							c-0.4,0.9-2.8,3.6-9.4,6.1C2079.2,171.9,2069.3,173.5,2059,173.5L2059,173.5z"/>
					</g>
					<g>
						<path class="st3" d="M1506.6,283.5v-49.7h112.9c4.3,0,7.9-3.6,7.9-7.9v-4.6c-18.7,5.6-39.6,8.7-61,8.7
							c-31.6,0-55.4-6.5-70.5-19.3c-13.3-11.3-20.1-27.3-20.1-47.7s6.8-36.3,20.1-47.7c15.2-12.8,38.9-19.3,70.5-19.3
							c21.6,0,42.5,3,60.9,8.6l-0.1-6.9h78.6V226c0,31.7-25.8,57.4-57.4,57.4H1506.6z M1585.4,147.5c-29,0-29,11.6-29,15.5
							c0,15.5,21.9,15.5,29,15.5c26,0,42-9.1,42-15.5C1627.3,156.6,1611,147.5,1585.4,147.5z"/>
						<path class="st1" d="M1566.4,100.9c24.5,0,47.1,3.8,65.9,10.5l-0.1-8.9h68.7v96.9v23.9v2.8c0,28.9-23.5,52.5-52.5,52.5h-136.9
							v-40h108c7.1,0,12.7-5.7,12.7-12.7v-2.6v-3.8v-5c-18.9,6.6-41.6,10.5-65.9,10.5c-65.3,0-85.7-27.8-85.7-62.1
							S1501,100.9,1566.4,100.9 M1585.4,183.4c26,0,46.9-9.2,46.9-20.4c0-11.3-21-20.4-46.9-20.4s-34,9.2-34,20.4
							C1551.5,174.2,1559.6,183.4,1585.4,183.4 M1566.4,91c-32.9,0-57.6,6.9-73.7,20.5c-14.5,12.2-21.8,29.5-21.8,51.3
							s7.3,39.1,21.8,51.3c7.4,6.2,16.7,11.2,27.7,14.5h-8.9h-9.8v9.8v40v9.8h9.8h136.9c34.3,0,62.4-27.9,62.4-62.4v-2.8v-23.9
							v-96.6v-9.8h-9.8h-68.7h-10l0.1,5.3C1605.1,93.5,1585.9,91,1566.4,91L1566.4,91z M1585.4,173.5c-12.4,0-18.3-2.3-21-4.2
							c-2.2-1.6-3.2-3.5-3.2-6.4s0.9-4.8,3.2-6.4c2.8-1.9,8.6-4.2,21-4.2c10.3,0,20,1.6,27.5,4.4c6.7,2.6,9.1,5.3,9.5,6.1
							c-0.4,0.8-2.7,3.6-9.4,6.1C1605.6,171.9,1595.7,173.5,1585.4,173.5L1585.4,173.5z M1618.2,228.8c1.1-0.3,2.3-0.6,3.4-0.9
							c-0.5,0.5-1.3,0.9-2.1,0.9H1618.2L1618.2,228.8z"/>
					</g>
					<g>
						<path class="st3" d="M1861.6,228.3V160c0-6.4-15.2-6.6-17-6.6c-1.4,0-2.3,0.1-2.3,0.1s-10.9,0.9-21.5,3.5
							c-15,3.6-18.4,7.6-18.4,8.9v62.7h-78.6V97.6h78.6v13c12.9-4.9,41.6-14.7,67.7-14.7c18.4,0,35.3,5.3,48.1,14.9
							c14.2,10.9,21.7,26.1,21.8,44v73.3L1861.6,228.3L1861.6,228.3z"/>
						<path class="st1" d="M1870.4,100.9c33.7,0,64.9,19.1,64.9,54.1v68.4h-68.7v-63.5c0-10.5-15.6-11.5-21.8-11.5
							c-1.6,0-2.6,0.1-2.6,0.1s-44.4,3.8-44.4,17.2v57.7h-68.7V102.6h68.7V118C1797.6,118,1836.6,100.9,1870.4,100.9 M1870.4,91
							c-23,0-47.9,7.3-62.9,12.5v-1.1v-9.8h-9.8H1729h-9.8v9.8v120.9v9.8h9.8h68.7h9.8v-9.8V167c1.4-1.1,5.8-3.8,18.2-6.2
							c8.5-1.7,16.1-2.5,17.1-2.6c0.2,0,0.9,0,1.9,0c6.8,0,10.8,1.4,12,2.2v63v9.8h9.8h68.7h9.8v-9.8V155
							c-0.1-19.3-8.5-36.3-23.7-48C1907.9,96.7,1889.7,91,1870.4,91L1870.4,91z"/>
					</g>
					<g>
						<path class="st3" d="M2559.9,235.9c-32.4,0-63-7.3-86.1-20.4c-23.9-13.7-37.1-32.2-37.1-52.1c0-19.8,13.1-38.4,37.1-52.1
							c23.1-13.2,53.6-20.5,86.1-20.5s63,7.3,86.1,20.4c23.9,13.7,37.1,32.2,37.1,52.1s-13.1,38.4-37,52.1
							c-23,13.2-53.5,20.4-85.9,20.4C2560.2,235.9,2559.9,235.9,2559.9,235.9z M2559.9,140.1c-18.4,0-33.3,10.5-33.3,23.4
							c0,12.9,14.9,23.4,33.3,23.4c9.2,0,17.8-2.6,24.1-7.3c5.9-4.3,9.2-10.1,9.2-16.1C2593.1,150.5,2578.2,140.1,2559.9,140.1z"/>
						<path class="st1" d="M2559.9,95.6c65.3,0,118.3,30.2,118.3,67.6c0,37.3-52.7,67.6-118,67.6c-0.1,0-0.2,0-0.3,0
							c-65.3,0-118.3-30.2-118.3-67.6C2441.6,126.1,2494.6,95.6,2559.9,95.6 M2559.9,191.7c21.1,0,38.2-12.6,38.2-28.3
							c0-15.6-17.1-28.3-38.2-28.3c-21.1,0-38.2,12.6-38.2,28.3S2538.7,191.7,2559.9,191.7 M2559.9,85.9c-33.3,0-64.7,7.5-88.4,21.1
							c-25.5,14.6-39.6,34.6-39.6,56.4s14,41.8,39.6,56.4c23.8,13.6,55.2,21.1,88.4,21.1h0.3c33.2,0,64.6-7.5,88.2-21.1
							c25.5-14.6,39.5-34.6,39.5-56.4s-14-41.8-39.6-56.4C2624.6,93.4,2593.1,85.9,2559.9,85.9L2559.9,85.9z M2559.9,181.9
							c-15.4,0-28.4-8.5-28.4-18.5c0-10,13-18.5,28.4-18.5c15.4,0,28.4,8.5,28.4,18.5c0,5.9-4.5,10.1-7.2,12.1
							C2575.6,179.5,2567.9,181.9,2559.9,181.9L2559.9,181.9z"/>
					</g>
					<g>
						<polygon class="st3" points="1140.6,228.3 1140.6,138.2 1088.5,228.3 996.1,228.3 944,138.3 944,228.3 857.7,228.3 
							857.7,29.6 981,29.6 1042.2,135.6 1103.5,29.6 1227,29.6 1227,228.3 						"/>
						<path class="st1" d="M1222.1,34.5v188.9h-76.6V119.9l-59.8,103.5h-86.8l-59.7-103.5v103.5h-76.6v-189H917h22.2h39.1
							l64.1,110.9l64.2-110.9h39.1h22.2H1222.1 M1231.9,24.7h-9.8h-54.4h-22.2h-39.1h-5.6l-2.9,4.9l-55.6,96.2l-55.6-96.2l-2.9-4.9
							h-5.6h-39.1H917h-54.4h-9.8v9.8v188.9v9.8h9.8h76.6h9.8v-9.8v-66.8l41.4,71.8l2.9,4.9h5.6h86.8h5.6l2.9-4.9l41.5-71.8v66.9
							v9.8h9.8h76.6h9.8v-9.8v-189v-9.8H1231.9z"/>
					</g>
					<g>
						<polygon class="st3" points="2273.6,228.3 2167.8,97.6 2272.6,97.6 2318.1,159.5 2363.6,97.6 2468.5,97.6 2362.5,228.3 						
							"/>
						<path class="st1" d="M2458.2,102.6l-97.9,120.9h-41.2h-1.9H2276l-97.9-120.9h92l48,65.3l48-65.3L2458.2,102.6 M2478.7,92.7
							h-20.6h-92h-4.9l-3,4l-40.1,54.6l-40.1-54.6l-3-4h-4.9h-92h-20.6l12.9,16l97.9,120.9l3,3.7h4.6h41.3h1.9h41.2h4.6l3-3.7
							l97.9-120.8L2478.7,92.7L2478.7,92.7z"/>
					</g>
				</g>
			</g>
		</g>
		<g>
			<g>
				<g>
					<g>
						<path class="st0" d="M72.8,409.2c-21.2,0-38.3,17.2-38.3,38.3v8.9v29.5v652.7v38.4c0,21.2,17.2,38.3,38.3,38.3h38.4H475h38.4
							c21.2,0,38.3-17.2,38.3-38.3v-21v-17.4V906V486v-29.5v-8.9c0-21.2-17.2-38.3-38.3-38.3L72.8,409.2L72.8,409.2z M436.7,906H423
							c-21.2,0-38.3,17.2-38.3,38.3v155.9c0,21.2-17.2,38.3-38.3,38.3H149.6c-21.2,0-38.3-17.2-38.3-38.3V524.3
							c0-21.2,17.2-38.3,38.3-38.3h287c21.2,0,38.3,17.2,38.3,38.3v343.4C475,888.9,457.9,906,436.7,906z"/>
					</g>
					<g>
						<path class="st0" d="M1644.2,409.2L1644.2,409.2c-21.2,0-38.4,17.2-38.4,38.4V690c0,11.2-4.9,21.9-13.4,29.1l-103,87.8
							c-21.4,18.3-52.8,18.3-74.2,0l-103-87.8c-8.6-7.3-13.4-18-13.4-29.1V447.6c0-21.2-17.2-38.4-38.4-38.4l0,0
							c-21.2,0-38.4,17.2-38.4,38.4v277.7c0,11.2,4.9,21.9,13.4,29.1l106.4,90.8c17.1,14.5,26.9,35.8,26.9,58.2V1177
							c0,21.2,17.2,38.4,38.4,38.4h90.3c21.2,0,38.4-17.2,38.4-38.4V903.6c0-22.4,9.8-43.7,26.9-58.2l106.4-90.8
							c8.6-7.3,13.4-18,13.4-29.1V447.6C1682.6,426.4,1665.3,409.2,1644.2,409.2z"/>
					</g>
					<g>
						<path class="st0" d="M3766,409.2L3766,409.2c-21.2,0-38.4,17.2-38.4,38.4V690c0,11.2-4.9,21.9-13.4,29.1l-103,87.8
							c-21.4,18.3-52.8,18.3-74.2,0l-103-87.8c-8.6-7.3-13.4-18-13.4-29.1V447.6c0-21.2-17.2-38.4-38.4-38.4l0,0
							c-21.2,0-38.4,17.2-38.4,38.4v277.7c0,11.2,4.9,21.9,13.4,29.1l106.4,90.8c17.1,14.5,26.9,35.8,26.9,58.2V1177
							c0,21.2,17.2,38.4,38.4,38.4h90.3c21.2,0,38.4-17.2,38.4-38.4V903.6c0-22.4,9.8-43.7,26.9-58.2l106.4-90.8
							c8.6-7.3,13.4-18,13.4-29.1V447.6C3804.4,426.4,3787.1,409.2,3766,409.2z"/>
					</g>
					<g>
						<path class="st0" d="M2301.6,447.5v354.8c0,21.2,17.2,38.3,38.3,38.3h302.4c21.2,0,38.3,17.2,38.3,38.3v221.3
							c0,21.2-17.2,38.3-38.3,38.3h-135.2c-21.2,0-38.3-17.2-38.3-38.3V998.1c0-21.2-17.2-38.3-38.3-38.3h-90.4
							c-21.2,0-38.3,17.2-38.3,38.3v179c0,21.2,17.2,38.3,38.3,38.3h379.2c21.2,0,38.3-17.2,38.3-38.3V802.2
							c0-21.2-17.2-38.3-38.3-38.3h-302.4c-21.2,0-38.3-17.2-38.3-38.3V524.3c0-21.2,17.2-38.3,38.3-38.3h225.6
							c21.2,0,38.3,17.2,38.3,38.3v90.4c0,21.2,17.2,38.4,38.4,38.4l0,0c21.2,0,38.4-17.2,38.4-38.4V447.5
							c0-21.2-17.2-38.3-38.3-38.3h-379.2C2318.8,409.2,2301.6,426.4,2301.6,447.5z"/>
					</g>
					<g>
						<path class="st0" d="M1759.2,447.5v354.8c0,21.2,17.2,38.3,38.3,38.3h302.4c21.2,0,38.3,17.2,38.3,38.3v221.3
							c0,21.2-17.2,38.3-38.3,38.3h-135.3c-21.2,0-38.3-17.2-38.3-38.3V998.1c0-21.2-17.2-38.3-38.3-38.3h-90.4
							c-21.2,0-38.3,17.2-38.3,38.3v179c0,21.2,17.2,38.3,38.3,38.3h379.2c21.2,0,38.3-17.2,38.3-38.3V802.2
							c0-21.2-17.2-38.3-38.3-38.3h-302.4c-21.2,0-38.3-17.2-38.3-38.3V524.3c0-21.2,17.2-38.3,38.3-38.3H2100
							c21.2,0,38.3,17.2,38.3,38.3v90.4c0,21.2,17.2,38.4,38.4,38.4l0,0c21.2,0,38.4-17.2,38.4-38.4V447.5
							c0-21.2-17.2-38.3-38.3-38.3h-379.2C1776.4,409.2,1759.2,426.4,1759.2,447.5z"/>
					</g>
					<g>
						<path class="st0" d="M3268.2,447.6L3268.2,447.6c0-21.2-17.2-38.4-38.4-38.4h-350.7c-21.2,0-38.4,17.2-38.4,38.4v729.4
							c0,21.2,17.2,38.4,38.4,38.4h350.7c21.2,0,38.4-17.2,38.4-38.4l0,0c0-21.2-17.2-38.4-38.4-38.4h-183.6
							c-21.2,0-38.4-17.2-38.4-38.4V879c0-21.2,17.2-38.4,38.4-38.4h183.6c21.2,0,38.4-17.2,38.4-38.4l0,0
							c0-21.2-17.2-38.4-38.4-38.4h-274.1c-21.2,0-38.4-17.2-38.4-38.4V524.3c0-21.2,17.2-38.4,38.4-38.4h274.1
							C3251,486,3268.2,468.9,3268.2,447.6z"/>
					</g>
					<g>
						<path class="st0" d="M668.6,409.2c-21.2,0-38.3,17.2-38.3,38.3v699.9v29.5c0,21.2,17.2,38.3,38.3,38.3h301.7
							c97.8,0,177.1-79.3,177.1-177.1v-452c0-97.8-79.3-177.1-177.1-177.1L668.6,409.2L668.6,409.2z M974.9,1138.6H835.8
							c-21.2,0-38.3-17.2-38.3-38.3v-576c0-21.2,17.2-38.3,38.3-38.3h139.1c52.9,0,95.8,42.9,95.8,95.8v461
							C1070.8,1095.6,1027.8,1138.6,974.9,1138.6z"/>
					</g>
				</g>
				<g>
					<g>
						<polygon class="st3" points="2976.3,102.6 2851,102.6 2813.5,136.4 2776.1,102.6 2650.8,102.6 2743.9,163.9 2653.3,223.5 
							2776.8,223.5 2813.5,190.1 2850.4,223.5 2973.7,223.5 2883.1,163.9 						"/>
					</g>
					<g>
						<path class="st3" d="M1392.5,111.3c-18.9-6.7-41.5-10.5-65.9-10.5c-65.3,0-85.7,27.8-85.7,62.1s20.4,62.1,85.7,62.1
							c24.4,0,47.1-3.9,65.9-10.5v9h68.7v-121h-68.7V111.3z M1345.6,183.4c-25.9,0-34-9.2-34-20.4c0-11.3,8.2-20.4,34-20.4
							s46.9,9.2,46.9,20.4C1392.5,174.2,1371.5,183.4,1345.6,183.4z"/>
					</g>
					<g>
						<path class="st3" d="M2105.7,111.3c-18.9-6.7-41.5-10.5-65.9-10.5c-65.3,0-85.7,27.8-85.7,62.1s20.4,62.1,85.7,62.1
							c24.4,0,47.1-3.9,65.9-10.5v9h68.7v-121h-68.7V111.3z M2059,183.4c-25.9,0-34-9.2-34-20.4c0-11.3,8.2-20.4,34-20.4
							c25.9,0,46.9,9.2,46.9,20.4C2105.7,174.2,2084.8,183.4,2059,183.4z"/>
					</g>
					<g>
						<path class="st3" d="M1632.2,111.3c-18.9-6.7-41.5-10.5-65.9-10.5c-65.3,0-85.7,27.8-85.7,62.1s20.4,62.1,85.7,62.1
							c24.4,0,47.1-3.9,65.9-10.5v5v3.8v2.6c0,7.1-5.7,12.7-12.7,12.7h-108v40h136.9c29,0,52.5-23.6,52.5-52.5v-2.8v-23.9v-97h-68.7
							L1632.2,111.3L1632.2,111.3z M1585.4,183.4c-25.9,0-34-9.2-34-20.4c0-11.3,8.2-20.4,34-20.4s46.9,9.2,46.9,20.4
							C1632.3,174.2,1611.3,183.4,1585.4,183.4z"/>
					</g>
					<g>
						<path class="st3" d="M1870.4,100.9c-33.7,0-72.6,17.1-72.6,17.1v-15.4H1729v120.9h68.7v-57.7c0-13.4,44.4-17.2,44.4-17.2
							s24.5-1.7,24.5,11.4v63.5h68.7V155C1935.1,120,1904.1,100.9,1870.4,100.9z"/>
					</g>
					<g>
						<path class="st3" d="M2678.1,163.4c0-37.4-52.9-67.6-118.3-67.6s-118.3,30.3-118.3,67.6c0,37.4,52.9,67.6,118.3,67.6
							C2625.2,231.1,2678.1,200.8,2678.1,163.4z M2559.9,191.7c-21.1,0-38.2-12.6-38.2-28.3s17.1-28.3,38.2-28.3
							c21.1,0,38.2,12.6,38.2,28.3S2581,191.7,2559.9,191.7z"/>
					</g>
					<g>
						<polygon class="st3" points="1145.5,34.5 1106.4,34.5 1042.2,145.5 978.3,34.5 939.2,34.5 917,34.5 862.6,34.5 862.6,223.5 
							939.2,223.5 939.2,119.9 998.9,223.5 1085.7,223.5 1145.5,119.9 1145.5,223.5 1222.1,223.5 1222.1,34.5 1167.7,34.5 						"/>
					</g>
					<g>
						<polygon class="st3" points="2366.1,102.6 2318.1,167.8 2270.1,102.6 2178.1,102.6 2276,223.5 2317.2,223.5 2319.1,223.5 
							2360.3,223.5 2458.2,102.6 						"/>
					</g>
				</g>
			</g>
		</g>
	</g>
</g>
</svg>
