<?xml version="1.0" encoding="utf-8"?>
<!-- Generator: Adobe Illustrator 26.3.1, SVG Export Plug-In . SVG Version: 6.00 Build 0)  -->
<svg version="1.1" id="Layer_1" xmlns="http://www.w3.org/2000/svg" xmlns:xlink="http://www.w3.org/1999/xlink" x="0px" y="0px"
	 viewBox="0 0 3839 1054.2" style="enable-background:new 0 0 3839 1054.2;" xml:space="preserve">
<style type="text/css">
	.st0{fill:#FFFFFF;}
</style>
<g>
	<g>
		<g>
			<path class="st0" d="M1856.3,892.4c-8.2,0-14.8-6.6-14.8-14.8V594.1c0-8.2,6.6-14.8,14.8-14.8h395.9c8.2,0,14.8,6.6,14.8,14.8
				v283.5c0,8.2-6.6,14.8-14.8,14.8H1856.3z M2157.1,782.4v-93.2h-205.7v93.2H2157.1z"/>
			<path class="st0" d="M2252.2,594.1v9.8v263.9v9.8h-9.8h-30.4h-30.4h-254.9H1887h-20.9h-9.8v-9.8V603.9v-9.8h9.8h20.9h39.9h254.9
				h30.4h30.4H2252.2 M1936.5,797.2h235.3V674.4h-235.3V797.2 M2252.2,564.6h-9.8h-30.4h-30.4h-254.9H1887h-20.9h-9.8
				c-16.3,0-29.5,13.2-29.5,29.5v9.8v263.9v9.8c0,16.3,13.2,29.5,29.5,29.5h9.8h20.9h39.9h254.9h30.4h30.4h9.8
				c16.3,0,29.5-13.2,29.5-29.5v-9.8V603.9v-9.8C2281.8,577.8,2268.6,564.6,2252.2,564.6L2252.2,564.6z M1966.1,704h176.2v63.7
				h-176.2V704L1966.1,704z"/>
		</g>
		<g>
			<path class="st0" d="M3413.4,892.4c-8.2,0-14.8-6.6-14.8-14.8V594.1c0-8.2,6.6-14.8,14.8-14.8h396c8.2,0,14.8,6.6,14.8,14.8
				v283.5c0,8.2-6.6,14.8-14.8,14.8H3413.4z M3714.4,782.4v-93.2h-205.8v93.2H3714.4z"/>
			<path class="st0" d="M3809.5,594.1v9.8v263.9v9.8h-9.8h-30.4h-30.4h-255h-39.9h-20.9h-9.8v-9.8V603.9v-9.8h9.8h20.9h40h254.9
				h30.4h30.4H3809.5 M3493.8,797.2h235.4V674.4h-235.4V797.2 M3809.5,564.6h-9.8h-30.4h-30.4h-254.9h-40h-20.9h-9.8
				c-16.3,0-29.5,13.2-29.5,29.5v9.8v263.9v9.8c0,16.3,13.2,29.5,29.5,29.5h9.8h20.9h39.9h255h30.4h30.4h9.8
				c16.3,0,29.5-13.2,29.5-29.5v-9.8V603.9v-9.8C3839,577.8,3825.8,564.6,3809.5,564.6L3809.5,564.6z M3523.3,704h176.3v63.7h-176.3
				V704L3523.3,704z"/>
		</g>
		<g>
			<path class="st0" d="M2940.5,892.4c-8.2,0-14.8-6.6-14.8-14.8V594.1c0-8.2,6.6-14.8,14.8-14.8h80.3c8.2,0,14.8,6.6,14.8,14.8
				v188.3h205.8V594.1c0-8.2,6.6-14.8,14.8-14.8h80.3c8.2,0,14.8,6.6,14.8,14.8v283.5c0,8.2-6.6,14.8-14.8,14.8H2940.5z"/>
			<path class="st0" d="M3336.6,594.1v9.8v263.9v9.8h-9.8h-30.4H3266h-255h-39.9h-20.9h-9.8v-9.8V603.9v-9.8h9.8h60.7h9.8v9.8v193.3
				h235.4V603.9v-9.8h9.8h60.7H3336.6 M3336.6,564.6h-9.8H3266h-9.8c-16.3,0-29.5,13.2-29.5,29.5v9.8v163.7h-176.3V603.9v-9.8
				c0-16.3-13.2-29.5-29.5-29.5h-9.8h-60.7h-9.8c-16.3,0-29.5,13.2-29.5,29.5v9.8v263.9v9.8c0,16.3,13.2,29.5,29.5,29.5h9.8h20.9
				h39.9h255h30.4h30.4h9.8c16.3,0,29.5-13.2,29.5-29.5v-9.8V603.9v-9.8C3366.1,577.8,3352.9,564.6,3336.6,564.6L3336.6,564.6z"/>
		</g>
		<g>
			<path class="st0" d="M414,892.4c-8.2,0-14.8-6.6-14.8-14.8V594.1c0-8.2,6.6-14.8,14.8-14.8h80.3c8.2,0,14.8,6.6,14.8,14.8v188.3
				h205.7V594.1c0-8.2,6.6-14.8,14.8-14.8H810c8.2,0,14.8,6.6,14.8,14.8v283.5c0,8.2-6.6,14.8-14.8,14.8H414z"/>
			<path class="st0" d="M810,594.1v9.8v263.9v9.8h-9.8h-30.4h-30.5H484.5h-39.9h-20.9H414v-9.8V603.9v-9.8h9.8h60.7h9.8v9.8v193.3
				h235.3V603.9v-9.8h9.8h60.8H810 M810,564.6h-9.8h-60.8h-9.8c-16.3,0-29.5,13.2-29.5,29.5v9.8v163.7H523.9V603.9v-9.8
				c0-16.3-13.2-29.5-29.5-29.5h-9.8h-60.7H414c-16.3,0-29.5,13.2-29.5,29.5v9.8v263.9v9.8c0,16.3,13.2,29.5,29.5,29.5h9.8h20.9
				h39.9h254.9h30.5h30.4h9.8c16.3,0,29.5-13.2,29.5-29.5v-9.8V603.9v-9.8C839.5,577.8,826.3,564.6,810,564.6L810,564.6z"/>
		</g>
		<g>
			<path class="st0" d="M217.8,1021.6c-8.2,0-14.8-6.6-14.8-14.8V560H29.5c-8.2,0-14.8-6.6-14.8-14.8v-80.4
				c0-8.2,6.6-14.8,14.8-14.8h456.8c8.2,0,14.8,6.6,14.8,14.8v80.4c0,8.2-6.6,14.8-14.8,14.8H312.9v446.8c0,8.2-6.6,14.8-14.8,14.8
				H217.8z"/>
			<path class="st0" d="M486.4,464.8v9.8v60.8v9.8h-9.8H298.1V997v9.8h-9.8h-60.7h-9.8V997V545.3H39.3h-9.8v-9.8v-60.8v-9.8h9.8
				h437.3H486.4 M486.4,435.3h-9.8H39.3h-9.8C13.2,435.3,0,448.5,0,464.8v9.8v60.8v9.8c0,16.3,13.2,29.5,29.5,29.5h9.8h148.9V997
				v9.8c0,16.3,13.2,29.5,29.5,29.5h9.8h60.7h9.8c16.3,0,29.5-13.2,29.5-29.5V997V574.8h148.9h9.8c16.3,0,29.5-13.2,29.5-29.5v-9.8
				v-60.8v-9.8C515.9,448.5,502.7,435.3,486.4,435.3L486.4,435.3z"/>
		</g>
		<g>
			<path class="st0" d="M1368.9,892.4c-8.2,0-14.8-6.6-14.8-14.8V594.1c0-8.2,6.6-14.8,14.8-14.8h451.4c6,0,11.4,3.6,13.6,9.1
				c2.3,5.5,1,11.9-3.2,16.1l-131.3,131.3l131.3,131.3c4.2,4.2,5.5,10.6,3.2,16.1c-2.3,5.5-7.7,9.1-13.6,9.1H1368.9z M1590.6,782.4
				l-36.1-36.1c-2.8-2.8-4.3-6.5-4.3-10.4c0-3.9,1.6-7.7,4.3-10.4l36.2-36.2H1464v93.2H1590.6z"/>
			<path class="st0" d="M1820.3,594.1L1820.3,594.1 M1820.3,594.1l-16.7,16.7l-125,125l125,125l16.7,16.7h-23.6h-72.8h-284.4h-36
				h-24.8h-9.8v-9.8V603.9v-9.8h9.8h24.8h36h271.2h85.9H1820.3 M1449.2,797.2h177.1l-11.5-11.5l-31.1-31.1l-11.8-11.8l-6.9-6.9
				l6.9-6.9l54.5-54.5h-177.2V797.2 M1820.3,564.6L1820.3,564.6h-23.7h-85.9h-271.2h-36h-24.8h-9.8c-16.3,0-29.5,13.2-29.5,29.5v9.8
				v263.9v9.8c0,16.3,13.2,29.5,29.5,29.5h9.8h24.8h36h284.4h72.8h23.6c11.9,0,22.7-7.2,27.3-18.2c4.6-11,2-23.7-6.4-32.2
				l-16.7-16.7l-104.1-104.1l104.1-104.1l16.6-16.6c5.4-5.4,8.8-12.8,8.8-21C1849.9,577.8,1836.7,564.6,1820.3,564.6
				C1820.3,564.6,1820.3,564.6,1820.3,564.6C1820.3,564.6,1820.3,564.6,1820.3,564.6L1820.3,564.6z M1820.3,623.7L1820.3,623.7
				L1820.3,623.7L1820.3,623.7z M1478.8,704h76.3l-4.1,4.1l-6.9,6.9c-5.5,5.5-8.7,13.1-8.7,20.9c0,7.8,3.1,15.3,8.7,20.9l6.9,6.9
				l4,4h-76.2V704L1478.8,704z"/>
		</g>
		<g>
			<path class="st0" d="M1218.7,892.4c-3.9,0-7.7-1.6-10.4-4.3l-141.7-141.7c-5.8-5.8-5.8-15.1,0-20.9l36.2-36.2H976.1v188.4
				c0,8.2-6.6,14.8-14.8,14.8h-80.4c-8.2,0-14.8-6.6-14.8-14.8V594.1c0-8.2,6.6-14.8,14.8-14.8h451.4c6,0,11.4,3.6,13.6,9.1
				c2.3,5.5,1,11.9-3.2,16.1l-131.3,131.3l131.3,131.3c4.2,4.2,5.5,10.6,3.2,16.1c-2.3,5.5-7.7,9.1-13.6,9.1H1218.7z"/>
			<path class="st0" d="M1332.3,594.1L1332.3,594.1 M1332.3,594.1l-16.7,16.7l-125,125l125,125l16.7,16.7h-23.6h-85.9h-4.1l-2.9-2.9
				l-89-89l-31.1-31.1l-11.8-11.8l-6.9-6.9l6.9-6.9l54.4-54.5h-177v193.4v9.8h-9.8h-60.8h-9.8v-9.8V603.9v-9.8h9.8h24.8h36h271.2
				h85.9H1332.3 M1332.3,564.6L1332.3,564.6h-23.7h-85.9H951.5h-36h-24.8h-9.8c-16.3,0-29.5,13.2-29.5,29.5v9.8v263.9v9.8
				c0,16.3,13.2,29.5,29.5,29.5h9.8h60.8h9.8c16.3,0,29.5-13.2,29.5-29.5v-9.8V704h76.2l-4.1,4.1l-6.9,6.9
				c-11.5,11.5-11.5,30.2,0,41.8l6.9,6.9l11.8,11.8l31.1,31.1l89,89l2.9,2.9c5.5,5.5,13.1,8.7,20.9,8.7h4.1h85.9h23.6
				c11.9,0,22.7-7.2,27.3-18.2c4.6-11,2-23.7-6.4-32.2l-16.7-16.7l-104.1-104.1l104.1-104.1l16.6-16.6c5.4-5.4,8.8-12.8,8.8-21
				C1361.9,577.8,1348.7,564.6,1332.3,564.6C1332.4,564.6,1332.4,564.6,1332.3,564.6C1332.3,564.6,1332.3,564.6,1332.3,564.6
				L1332.3,564.6z M1332.3,623.7L1332.3,623.7L1332.3,623.7L1332.3,623.7z"/>
		</g>
		<g>
			<path class="st0" d="M2498.8,1039.4c-8.2,0-14.8-6.6-14.8-14.8V447c0-8.2,6.6-14.8,14.8-14.8h101.8c3.9,0,7.7,1.6,10.4,4.3
				l288.5,288.4c5.8,5.8,5.8,15.1,0,20.9l-289.2,289.2c-2.8,2.8-6.5,4.3-10.4,4.3H2498.8z M2593.9,896.1l160.6-160.6l-160.6-160.6
				V896.1z"/>
			<path class="st0" d="M2600.6,447l2.9,2.9l266.9,266.8l11.8,11.8l6.9,6.9l-6.9,6.9l-279.5,279.5l-2.9,2.9h-4.1h-85.9h-1.3h-9.8
				v-9.8v-558V447h9.8h60.7h27.2H2600.6 M2579.1,931.7l196.3-196.3l-196.3-196.3V931.7 M2600.6,417.5h-4.1h-27.2h-60.7h-9.8
				c-16.3,0-29.5,13.2-29.5,29.5v9.8v558v9.8c0,16.3,13.2,29.5,29.5,29.5h9.8h1.3h85.9h4.1c7.8,0,15.3-3.1,20.9-8.7l2.9-2.9
				L2903,763.2l6.9-6.9c11.5-11.5,11.5-30.2,0-41.8l-6.9-6.9l-11.8-11.8L2624.3,429l-2.9-2.9
				C2615.9,420.6,2608.4,417.5,2600.6,417.5L2600.6,417.5z M2608.6,860.4V610.5l124.9,124.9L2608.6,860.4L2608.6,860.4z"/>
		</g>
		<g>
			<path class="st0" d="M1373.4,341c-8.2,0-14.8-6.6-14.8-14.8V38.6c0-8.2,6.6-14.8,14.8-14.8h96.1c13.3,0,27.8,4.7,43.1,14.1
				c13.6,8.4,23.8,17.9,27.6,21.6l0.2,0.2c0.2,0.2,0.4,0.4,0.6,0.6l108.7,120.6V38.6c0-8.2,6.6-14.8,14.8-14.8h71
				c8.2,0,14.8,6.6,14.8,14.8v287.6c0,8.2-6.6,14.8-14.8,14.8l-100.2,0c-25.8,0-50.5-10.9-67.8-29.8
				c-0.1-0.1-108.4-120.7-108.4-120.7v135.8c0,8.2-6.6,14.8-14.8,14.8H1373.4z"/>
			<path class="st0" d="M1735.5,38.6v9.8v268v9.8h-9.8h-90.1l-0.3,0c-21.6,0-42.4-9.1-56.9-25l0,0l0,0l-134-149.2v164.6v9.8h-9.8
				h-51.2h-9.8v-9.8V48.3v-9.8h9.8h86.3c10.6,0,22.5,4,35.4,11.9c12.3,7.6,21.5,16.2,24.9,19.5l0.2,0.2l0.2,0.2l134.3,148.9v-171
				v-9.8h9.8h51.4H1735.5 M1735.5,9h-9.8h-51.4h-9.8c-16.3,0-29.5,13.2-29.5,29.5v9.8v94.1l-82.8-91.8l-0.2-0.2
				c-0.4-0.4-0.8-0.8-1.1-1.2l-0.2-0.2c-5.1-5.1-15.8-14.9-30.3-23.7C1502.7,14.5,1485.6,9,1469.5,9h-86.3h-9.8
				c-16.3,0-29.5,13.2-29.5,29.5v9.8v268.1v9.8c0,16.3,13.2,29.5,29.5,29.5h9.8h51.2h9.8c16.3,0,29.5-13.2,29.5-29.5v-9.8V229
				l82.4,91.8c0.1,0.1,0.2,0.2,0.3,0.3c20.2,22,48.8,34.6,78.7,34.6c0,0,0.1,0,0.1,0l0.3,0h90.1h9.8c16.3,0,29.5-13.2,29.5-29.5
				v-9.8v-268v-9.8C1765,22.2,1751.8,9,1735.5,9L1735.5,9z"/>
		</g>
		<g>
			<path class="st0" d="M2343.8,349.9c-25.3,0-50.9-1.1-76.1-3.3c-40.1-2.5-78.5-12.7-114.3-30.4c-0.1,0-0.3-0.1-0.3-0.2
				c-24.5-12.7-42.8-33.1-54.3-60.8c-9-21.5-13.5-47.4-13.1-74.9c0.3-25.4,4.6-48.5,12.6-68.6c10.1-25.2,25.9-44.9,47-58.6
				c26.9-17.7,54.3-23.6,84.7-29.1c35.4-6.3,72.1-9.3,112.3-9.3c0,0,0,0,0,0c33.9,0,70.7,2.2,112.5,6.8l8.7,1
				c7.5,0.8,13.2,7.1,13.2,14.7v58.9c0,4.4-2,8.6-5.4,11.4c-2.7,2.2-6,3.4-9.4,3.4c-0.9,0-1.9-0.1-2.8-0.3l-11.7-2.3
				c-29-5.6-58.1-8.6-84.2-8.6c-24.4,0-45.3,2.5-62.3,7.4c-15.4,4.5-26.8,10.9-32.8,18.5c-11.4,14.8-17.2,33.3-16.4,52.1l0,0.2
				c0,0.2,0,0.4,0,0.7v0.2c0,19.3,3.9,35.3,11.7,47.6c10.3,16.3,28.3,26.5,53.6,30.1c13.7,2,28.2,3,43.1,3c26.3,0,55.2-3.1,90.8-9.6
				l11.5-2.1c0.9-0.2,1.8-0.2,2.7-0.2c3.4,0,6.7,1.2,9.4,3.4c3.4,2.8,5.3,6.9,5.4,11.3l0.4,64.2c0.1,7.4-5.5,13.8-12.8,14.7
				l-8.6,1.1C2420.9,347.4,2382.2,349.9,2343.8,349.9z"/>
			<path class="st0" d="M2342.3,29.5c33.4,0,69.6,2.2,110.9,6.7l8.7,1V46v38.2v11.9l-11.7-2.3c-29.9-5.8-60-8.9-87-8.9
				c-25.8,0-48.1,2.7-66.4,8c-18.7,5.4-32.3,13.4-40.3,23.6c-13.5,17.5-20.5,39.5-19.5,61.8l0,0.2v0.2c0,22.1,4.7,40.8,13.9,55.5
				c12.7,20.2,34.2,32.6,64,36.9c14.4,2.1,29.6,3.2,45.2,3.2c27.2,0,57-3.1,93.5-9.9l11.5-2.1l0.1,11.7l0.3,43.9l0.1,8.6l-8.6,1.1
				c-37.4,4.9-75.5,7.4-113.3,7.4c-24.9,0-50.2-1.1-75-3.2c-38.2-2.4-74.8-12.1-108.8-28.9l-0.1,0l-0.1,0
				c-21.3-11-37.3-28.9-47.4-53.3c-8.2-19.7-12.3-43.6-12-69.1c0.3-23.6,4.2-44.9,11.6-63.3c9-22.3,22.9-39.7,41.3-51.7
				c24.6-16.2,50.5-21.8,79.3-26.9C2267.1,32.5,2303,29.5,2342.3,29.5 M2342.3,0C2342.3,0,2342.3,0,2342.3,0
				c-41,0-78.6,3.1-114.9,9.5c0,0-0.1,0-0.1,0c-30.8,5.5-61,12.1-90.2,31.3c-23.6,15.4-41.3,37.4-52.6,65.4
				c-8.8,21.8-13.4,46.7-13.7,74c-0.4,29.4,4.5,57.4,14.2,80.7c12.9,31,33.4,53.9,61.1,68.2l0.1,0c0.1,0.1,0.3,0.2,0.5,0.2l0.1,0
				c0,0,0,0,0,0c37.4,18.5,77.7,29.2,119.7,31.9c25.6,2.2,51.5,3.3,77.2,3.3c39,0,78.4-2.6,117.1-7.7l8.6-1.1
				c14.8-1.9,25.8-14.6,25.7-29.5l-0.1-8.6l-0.3-43.9l-0.1-11.7c-0.1-8.7-4-17-10.7-22.6c-5.3-4.4-12-6.8-18.8-6.8
				c-1.8,0-3.6,0.2-5.4,0.5l-11.5,2.1c-34.7,6.4-62.7,9.4-88.2,9.4c-14.2,0-28-1-40.9-2.9c0,0,0,0-0.1,0
				c-21.1-3-35.3-10.7-43.2-23.4c-6.2-9.9-9.4-23.3-9.4-39.8v-0.2c0-0.4,0-0.9,0-1.3l0-0.2c-0.7-15.3,4-30.4,13.3-42.4
				c2.4-3,8.8-8.7,25.3-13.4c15.6-4.5,35.1-6.8,58.1-6.8c25.2,0,53.3,2.9,81.4,8.3l11.7,2.3c1.9,0.4,3.8,0.5,5.6,0.5
				c6.8,0,13.5-2.3,18.8-6.7c6.8-5.6,10.7-14,10.7-22.8V84.2V46v-8.8c0-15.1-11.3-27.7-26.3-29.4l-8.7-1
				C2414.1,2.3,2376.8,0,2342.3,0L2342.3,0z"/>
		</g>
		<g>
			<path class="st0" d="M1951.7,344.2c-34.6,0-67.1-0.7-99.4-2c-39.2-1.6-67.9-13.1-85.4-34.2c-16.5-19.9-19.5-43.6-20.3-59.7l0-0.3
				c0-0.2,0-0.5,0-0.7V38.6c0-8.2,6.6-14.8,14.8-14.8h336c8.2,0,14.8,6.6,14.8,14.8v57.7c0,8.2-6.6,14.8-14.8,14.8h-189.7v19.1h172
				c8.2,0,14.8,6.6,14.8,14.8v56.9c0,8.2-6.6,14.8-14.8,14.8H1908c0.2,10.6,0.5,19.2,0.6,21.5c0,0,0,0.1,0,0.1
				c0.3,6.2,1.3,9.2,2,9.8c0.8,0.7,4.5,3,17.5,3.9h0.4c1.2,0,5.1,0,11.1,0l0.9,0c18.8,0.1,57.9,0.2,92.9,0.2
				c26.9,0,46.4-0.1,58.1-0.3c0,0,10.1-0.1,10.2-0.1c3.9,0,7.6,1.5,10.4,4.2c2.8,2.8,4.4,6.6,4.4,10.5V326c0,7.9-6.3,14.4-14.2,14.8
				l-9.4,0.4C2038.6,343.2,1993.8,344.2,1951.7,344.2z"/>
			<path class="st0" d="M2097.4,38.6v9.8v38.1v9.8h-9.8H1893v48.7h177h9.8v9.8V192v9.8h-9.8H1893c0.2,16.8,0.7,33.4,0.8,37l0,0l0,0
				c0.6,13.3,4.2,18,7.4,20.6c4.9,4.1,13.3,6.4,26.4,7.3h0.9c1.2,0,5.4,0,11.7,0c18.8,0.1,58,0.2,93.1,0.2c26.9,0,46.5-0.1,58.3-0.3
				l9.9-0.1v9.9v40.1v9.4l-9.4,0.4c-54,2.1-98.6,3.1-140.5,3.1c-34.4,0-66.7-0.7-98.7-2c-78.6-3.3-89.9-47.2-91.6-79.9l0-0.2V247
				V48.3v-9.8h9.8h316.4H2097.4 M2097.4,9h-9.8h-316.4h-9.8c-16.3,0-29.5,13.2-29.5,29.5v9.8V247v0.2c0,0.5,0,1,0,1.5l0,0.2
				c1.4,28.6,9.2,50.9,23.7,68.4c20.3,24.4,52.6,37.7,96.2,39.5c32.5,1.4,65.2,2,100,2c42.3,0,87.3-1,141.6-3.1l9.4-0.4
				c15.9-0.6,28.4-13.7,28.4-29.5v-9.4v-40.1v-9.9c0-7.9-3.2-15.5-8.8-21c-5.5-5.4-13-8.5-20.7-8.5c-0.1,0-0.3,0-0.4,0l-9.9,0.1
				c-11.6,0.2-31,0.3-57.8,0.3c-35,0-74.1-0.1-92.9-0.2l-0.1,0l-1.4,0c-5.4,0-9,0-10.3,0c-2.2-0.2-3.9-0.4-5.4-0.6
				c0-1.1-0.1-2.9-0.2-5.2H2070h9.8c16.3,0,29.5-13.2,29.5-29.5V192v-37.3v-9.8c0-7.5-2.8-14.3-7.3-19.5c14.1-2.2,25-14.4,25-29.2
				v-9.8V48.3v-9.8C2126.9,22.2,2113.7,9,2097.4,9L2097.4,9z"/>
		</g>
	</g>
	<g>
		<g>
			<path d="M1861.2,872.7V599h386.1v273.7H1861.2z M2176.7,802.1V669.6h-245.1v132.5H2176.7z"/>
			<path class="st0" d="M2242.4,603.9v263.9h-30.4h-30.4h-254.9H1887h-20.9V603.9h20.9h39.9h254.9h30.4H2242.4 M1926.7,807h254.9
				V664.7h-254.9V807 M2252.2,594.1h-9.8h-30.4h-30.4h-254.9H1887h-20.9h-9.8v9.8v263.9v9.8h9.8h20.9h39.9h254.9h30.4h30.4h9.8v-9.8
				V603.9V594.1L2252.2,594.1z M1936.5,674.4h235.3v122.7h-235.3V674.4L1936.5,674.4z"/>
		</g>
		<g>
			<path d="M3418.3,872.7V599h386.2v273.7H3418.3z M3734,802.1V669.6h-245.2v132.5H3734z"/>
			<path class="st0" d="M3799.7,603.9v263.9h-30.4h-30.4h-255h-39.9h-20.9V603.9h20.9h40h254.9h30.4H3799.7 M3484,807h255V664.7
				h-255V807 M3809.5,594.1h-9.8h-30.4h-30.4h-254.9h-40h-20.9h-9.8v9.8v263.9v9.8h9.8h20.9h39.9h255h30.4h30.4h9.8v-9.8V603.9
				V594.1L3809.5,594.1z M3493.8,674.4h235.4v122.7h-235.4V674.4L3493.8,674.4z"/>
		</g>
		<g>
			<polygon points="2945.4,872.7 2945.4,599 3016,599 3016,802.1 3261.1,802.1 3261.1,599 3331.7,599 3331.7,872.7 			"/>
			<path class="st0" d="M3326.8,603.9v263.9h-30.4H3266h-255h-39.9h-20.9V603.9h60.7V807h255V603.9H3326.8 M3336.6,594.1h-9.8H3266
				h-9.8v9.8v193.3h-235.4V603.9v-9.8h-9.8h-60.7h-9.8v9.8v263.9v9.8h9.8h20.9h39.9h255h30.4h30.4h9.8v-9.8V603.9V594.1
				L3336.6,594.1z"/>
		</g>
		<g>
			<polygon points="418.9,872.7 418.9,599 489.4,599 489.4,802.1 734.5,802.1 734.5,599 805.1,599 805.1,872.7 			"/>
			<path class="st0" d="M800.2,603.9v263.9h-30.4h-30.5H484.5h-39.9h-20.9V603.9h60.7V807h254.9V603.9H800.2 M810,594.1h-9.8h-60.8
				h-9.8v9.8v193.3H494.3V603.9v-9.8h-9.8h-60.7H414v9.8v263.9v9.8h9.8h20.9h39.9h254.9h30.5h30.4h9.8v-9.8V603.9V594.1L810,594.1z"
				/>
		</g>
		<g>
			<polygon points="222.7,1001.9 222.7,540.4 34.4,540.4 34.4,469.7 481.5,469.7 481.5,540.4 293.2,540.4 293.2,1001.9 			"/>
			<path class="st0" d="M476.6,474.6v60.8H288.3V997h-60.7V535.5H39.3v-60.8H476.6 M486.4,464.8h-9.8H39.3h-9.8v9.8v60.8v9.8h9.8
				h178.5V997v9.8h9.8h60.7h9.8V997V545.3h178.5h9.8v-9.8v-60.8V464.8L486.4,464.8z"/>
		</g>
		<g>
			<path d="M1373.8,872.7V599h434.7l-136.8,136.8l136.8,136.8H1373.8z M1638.1,802.1l-66.2-66.2l66.3-66.3h-193.9v132.5H1638.1z"/>
			<path class="st0" d="M1796.7,603.9l-131.9,131.9l131.9,131.9h-72.8h-284.4h-36h-24.8V603.9h24.8h36h271.2H1796.7 M1439.4,807
				h210.5l-28.2-28.2l-31.1-31.1l-11.8-11.8l71.2-71.2h-210.5h-0.1V807 M1820.3,594.1h-23.6h-85.9h-271.2h-36h-24.8h-9.8v9.8v263.9
				v9.8h9.8h24.8h36h284.4h72.8h23.6l-16.7-16.7l-125-125l125-125L1820.3,594.1L1820.3,594.1z M1449.2,674.4h177.2l-54.5,54.5
				l-6.9,6.9l6.9,6.9l11.8,11.8l31.1,31.1l11.5,11.5h-177.1V674.4L1449.2,674.4z"/>
		</g>
		<g>
			<polygon points="1220.7,872.7 1083.9,735.9 1150.1,669.6 956.4,669.6 956.4,872.7 885.8,872.7 885.8,599 1320.5,599 
				1183.7,735.9 1320.5,872.7 			"/>
			<path class="st0" d="M1308.7,603.9l-131.9,131.9l131.9,131.9h-85.9l-89-89l-31.1-31.1l-11.8-11.8l71.1-71.2H951.5v203.1h-60.8
				V603.9h24.8h36h271.2H1308.7 M1332.3,594.1h-23.6h-85.9H951.5h-36h-24.8h-9.8v9.8v263.9v9.8h9.8h60.8h9.8v-9.8V674.4h177
				l-54.4,54.5l-6.9,6.9l6.9,6.9l11.8,11.8l31.1,31.1l89,89l2.9,2.9h4.1h85.9h23.6l-16.7-16.7l-125-125l125-125L1332.3,594.1
				L1332.3,594.1z"/>
		</g>
		<g>
			<path d="M2503.7,1019.7V451.9h94.9l283.6,283.5l-284.4,284.4H2503.7z M2574.2,943.5l208.1-208.1l-208.1-208.1V943.5z"/>
			<path class="st0" d="M2596.5,456.8l266.9,266.8l11.8,11.8l-279.5,279.5h-85.9h-1.3v-558h60.7H2596.5 M2569.3,955.4l219.9-219.9
				l-219.9-219.9V955.4 M2600.6,447h-4.1h-27.2h-60.7h-9.8v9.8v558v9.8h9.8h1.3h85.9h4.1l2.9-2.9l279.5-279.5l6.9-6.9l-6.9-6.9
				l-11.8-11.8l-266.9-266.8L2600.6,447L2600.6,447z M2579.1,931.7V539.2l196.3,196.3L2579.1,931.7L2579.1,931.7z"/>
		</g>
		<g>
			<path d="M1378.3,321.3V43.4h91.2c25.8,0,53.7,26.9,56.8,30l0.1,0.1l142.9,158.5V43.4h61.2v277.8l-95.4,0
				c-20.2,0-39.7-8.5-53.3-23.4l-142.5-158.7v182.2H1378.3z"/>
			<path class="st0" d="M1725.7,48.3v268h-90.1c-0.1,0-0.2,0-0.3,0c-18.9,0-37-7.9-49.7-21.8l-151-168.2v190.1h-51.2V48.3h86.3
				c19.8,0,43.1,18.4,53.4,28.6l151.3,167.9V48.3H1725.7 M1735.5,38.6h-9.8h-51.4h-9.8v9.8v171L1530.2,70.4l-0.2-0.2l-0.2-0.2
				c-3.4-3.4-12.6-12-24.9-19.5c-12.9-7.9-24.8-11.9-35.4-11.9h-86.3h-9.8v9.8v268.1v9.8h9.8h51.2h9.8v-9.8V151.9l134,149.2l0,0l0,0
				c14.6,15.9,35.3,25,56.9,25l0.3,0l0,0h90.1h9.8v-9.8v-268V38.6L1735.5,38.6z"/>
		</g>
		<g>
			<path d="M2343.8,330.2c-24.8,0-49.9-1.1-74.7-3.2c-37.5-2.3-73.6-11.9-107-28.4c-20.3-10.5-35.5-27.6-45.2-50.9
				c-7.9-19.1-11.9-42.3-11.6-67.1c0.3-23,4.1-43.7,11.2-61.6c8.6-21.3,21.9-38,39.5-49.4c23.9-15.6,49.2-21.1,77.4-26.2
				c34.2-6.1,69.9-9,108.9-9c33.2,0,69.3,2.2,110.4,6.7l4.4,0.5v48.5l-5.8-1.1c-30.2-5.9-60.6-9-88-9c-54.4,0-93.6,11.9-110.6,33.5
				c-14.2,18.4-21.5,41.5-20.5,65l0,0.2c0,38.9,14.2,87.4,82.1,97.2c14.6,2.1,30.1,3.2,45.9,3.2c27.6,0,57.5-3.2,94.4-10l5.7-1.1
				l0.4,54l-4.3,0.6C2419.2,327.8,2381.3,330.2,2343.8,330.2z"/>
			<path class="st0" d="M2342.3,39.3c36.9,0,73.6,2.7,109.8,6.7v38.2c-30-5.8-60.6-9.1-88.9-9.1c-51.2,0-95,10.6-114.4,35.4
				c-15,19.4-22.6,43.6-21.5,68.3c0,36.4,12.3,91.4,86.3,102.1c15.6,2.3,31.2,3.3,46.6,3.3c32.2,0,64.1-4.3,95.3-10l0.3,43.9
				c-37.2,4.9-74.6,7.3-112,7.3c-24.8,0-49.6-1.1-74.3-3.2c-36.5-2.3-72.3-11.7-105.2-27.9c-41.5-21.5-54.7-69.6-54.1-113.5
				c0.5-40.4,12.3-83.5,48.5-107c23.6-15.5,48.9-20.7,75.6-25.5C2270.4,41.9,2306.4,39.3,2342.3,39.3 M2342.3,29.5v9.8V29.5
				c-39.3,0-75.2,3-109.7,9.1c-28.8,5.2-54.6,10.8-79.3,26.9c-18.4,12-32.4,29.4-41.3,51.7c-7.4,18.4-11.3,39.7-11.6,63.3
				c-0.3,25.5,3.8,49.4,12,69.1c10.1,24.4,26.1,42.3,47.4,53.3l0.1,0l0.1,0c34,16.8,70.6,26.5,108.8,28.9c24.8,2.2,50.1,3.2,75,3.2
				c37.8,0,75.9-2.5,113.3-7.4l8.6-1.1l-0.1-8.6l-0.3-43.9l-0.1-11.7l-11.5,2.1c-36.5,6.7-66.3,9.9-93.5,9.9
				c-15.6,0-30.9-1.1-45.2-3.2c-29.8-4.3-51.3-16.7-64-36.9c-9.2-14.7-13.9-33.4-13.9-55.5v-0.2l0-0.2c-1-22.3,5.9-44.3,19.5-61.8
				c8-10.2,21.6-18.2,40.3-23.6c18.3-5.3,40.6-8,66.4-8c27,0,57.1,3.1,87,8.9l11.7,2.3V84.2V46v-8.8l-8.7-1
				C2412,31.7,2375.7,29.5,2342.3,29.5L2342.3,29.5z"/>
		</g>
		<g>
			<path d="M1951.7,324.5c-34.3,0-66.5-0.7-98.5-2c-32.7-1.4-55.5-9.7-69.7-25.5c-14-15.6-16.5-35.9-17.2-49.8l0-0.1V43.4h326.2
				v47.9h-204.4v58.5h186.8v47.1h-186.8c0.1,18.4,0.7,38.2,0.9,42.1c0.9,22.6,10.4,30.7,38.5,32.6h1.1c1.2,0,5.4,0,11.7,0
				c18.8,0.1,58,0.2,93.1,0.2c27,0,46.6-0.1,58.3-0.3l5-0.1v49.7l-4.7,0.2C2038.1,323.5,1993.5,324.5,1951.7,324.5z"/>
			<path class="st0" d="M2087.6,48.3v38.1h-204.4v68.3H2070V192h-186.8c0,20.2,0.7,43.1,0.9,47.2c1.1,26,13.1,35.6,44.9,37.3
				l-0.4-0.1c5,0,58.2,0.3,104.9,0.3c23.4,0,45.1-0.1,58.4-0.3v40.1c-47.3,1.8-93.5,3.1-140.1,3.1c-32.4,0-65-0.6-98.3-2
				c-68.7-2.8-80.5-37.3-82.2-70.6V48.3H2087.6 M2097.4,38.6h-9.8h-316.4h-9.8v9.8V247v0.2l0,0.2c1.6,32.7,12.9,76.7,91.6,79.9
				c32.1,1.4,64.4,2,98.7,2c41.9,0,86.5-1,140.5-3.1l9.4-0.4v-9.4v-40.1v-9.9l-9.9,0.1c-11.7,0.2-31.3,0.3-58.3,0.3
				c-35.1,0-74.3-0.1-93.1-0.2c-6.3,0-10.5,0-11.7,0h-0.9c-13.1-0.9-21.5-3.2-26.4-7.3c-3.1-2.6-6.8-7.3-7.4-20.6l0,0l0,0
				c-0.2-3.6-0.7-20.2-0.8-37H2070h9.8V192v-37.3v-9.8h-9.8h-177V96.2h194.6h9.8v-9.8V48.3V38.6L2097.4,38.6z"/>
		</g>
	</g>
</g>
</svg>
