<?xml version="1.0" encoding="utf-8"?>
<!-- Generator: Adobe Illustrator 26.5.0, SVG Export Plug-In . SVG Version: 6.00 Build 0)  -->
<svg version="1.1" id="Layer_1" xmlns="http://www.w3.org/2000/svg" xmlns:xlink="http://www.w3.org/1999/xlink" x="0px" y="0px"
	 viewBox="0 0 3839 594.78" style="enable-background:new 0 0 3839 594.78;" xml:space="preserve">
<style type="text/css">
	.st0{fill:#FFFFFF;}
	.st1{fill:#CE181E;}
	.st2{fill:#F47B30;}
	.st3{fill:#A19FA3;}
	.st4{fill:#17B3E8;}
	.st5{fill:#E60012;}
</style>
<g>
	<g>
		<g>
			<path class="st0" d="M988.29,576.34c-8.16,0-14.77-6.61-14.77-14.77V209.4c0-8.16,6.61-14.77,14.77-14.77h122.36
				c8.16,0,14.77,6.61,14.77,14.77v352.17c0,8.16-6.61,14.77-14.77,14.77H988.29z"/>
			<path class="st0" d="M1110.65,209.4v9.79v332.6v9.79h-9.79H998.08h-9.79v-9.79v-332.6v-9.79h9.79h102.79H1110.65 M1110.65,179.86
				h-9.79H998.08h-9.79c-16.31,0-29.54,13.22-29.54,29.54v9.79v332.6v9.79c0,16.31,13.22,29.54,29.54,29.54h9.79h102.79h9.79
				c16.31,0,29.54-13.22,29.54-29.54v-9.79v-332.6v-9.79C1140.19,193.09,1126.96,179.86,1110.65,179.86L1110.65,179.86z"/>
		</g>
		<g>
			<path class="st0" d="M779.4,576.34c-8.16,0-14.77-6.61-14.77-14.77V209.4c0-8.16,6.61-14.77,14.77-14.77h122.31
				c8.16,0,14.77,6.61,14.77,14.77v352.17c0,8.16-6.61,14.77-14.77,14.77H779.4z"/>
			<path class="st0" d="M901.71,209.4v9.79v332.6v9.79h-9.79H789.19h-9.79v-9.79v-332.6v-9.79h9.79h102.74H901.71 M901.71,179.86
				h-9.79H789.19h-9.79c-16.31,0-29.54,13.22-29.54,29.54v9.79v332.6v9.79c0,16.31,13.22,29.54,29.54,29.54h9.79h102.74h9.79
				c16.31,0,29.54-13.22,29.54-29.54v-9.79v-332.6v-9.79C931.25,193.09,918.03,179.86,901.71,179.86L901.71,179.86z"/>
		</g>
		<g>
			<path class="st0" d="M539.92,580.01c-26.76,0-49.49-9.07-67.58-26.94c-13.29-13.13-23.5-30.64-30.36-52.05
				c-5.9-18.21-32.1-113.47-53.67-192.51c-21.56,79.02-47.74,174.26-53.63,192.52c-6.9,21.42-17.11,38.93-30.35,52.03
				c-18.08,17.88-40.82,26.95-67.59,26.95c-24.17,0-46.49-8.41-64.55-24.33c-15.53-13.68-27.52-32.56-34.7-54.59
				C123.34,457.57,22.99,94.72,18.73,79.29L15.3,66.9c-1.23-4.45-0.31-9.21,2.48-12.88s7.14-5.82,11.75-5.82h129.08
				c6.75,0,12.64,4.58,14.31,11.12l68.48,268.52c20.77-79.44,49.35-188.14,56.35-211.59c6.94-23.36,18.32-41.38,33.83-53.54
				c15.4-12.07,34.49-18.19,56.75-18.19c22.26,0,41.35,6.12,56.75,18.19c15.51,12.16,26.9,30.17,33.84,53.55
				c6.97,23.44,35.53,132.15,56.28,211.58l68.55-268.53c1.67-6.54,7.56-11.11,14.31-11.11h128.99c4.61,0,8.96,2.15,11.75,5.82
				s3.71,8.43,2.48,12.88l-3.43,12.39c-4.26,15.43-104.61,378.28-118.71,421.77c-7.14,22.04-19.14,40.93-34.69,54.62
				C586.41,571.6,564.09,580.01,539.92,580.01z"/>
			<path class="st0" d="M388.35,59.29c18.87,0,34.9,5.06,47.64,15.04c13.05,10.23,22.74,25.75,28.79,46.13
				c8.7,29.27,51.21,192.08,70.59,266.49l80.83-316.63l1.88-7.37h7.6h108.54h12.86l-3.43,12.39
				c-4.26,15.41-104.46,377.79-118.52,421.15c-6.33,19.52-16.84,36.15-30.41,48.09c-15.33,13.5-34.28,20.64-54.8,20.64
				c-22.73,0-41.97-7.63-57.2-22.68c-11.58-11.44-20.56-26.95-26.68-46.05c-7.44-22.95-48.76-174.41-67.74-244.22
				c-18.97,69.8-60.28,221.26-67.69,244.2c-6.17,19.15-15.14,34.65-26.68,46.07c-15.21,15.05-34.46,22.68-57.2,22.68
				c-20.52,0-39.46-7.14-54.78-20.64c-13.54-11.93-24.06-28.56-30.42-48.08C137.43,453.15,37.22,90.76,32.96,75.35l-3.43-12.39H42.4
				h108.62h7.6l1.88,7.37l80.75,316.62c19.39-74.41,61.93-237.21,70.67-266.48c6.05-20.39,15.74-35.91,28.79-46.14
				C353.45,64.35,369.47,59.29,388.35,59.29 M747.07,62.96L747.07,62.96 M388.35,29.75c-25.64,0-47.8,7.18-65.86,21.33
				c-17.97,14.08-31.05,34.6-38.89,60.98c-5.51,18.44-23.66,86.9-42,156.75L189.12,63.03l-1.88-7.37
				c-3.34-13.08-15.12-22.24-28.62-22.24h-7.6H42.4H29.54c-9.22,0-17.92,4.31-23.51,11.65c-5.59,7.34-7.42,16.87-4.97,25.76
				l3.43,12.39c10.7,38.7,104.93,379.31,118.95,422.43c7.99,24.56,21.47,45.68,38.98,61.11c20.8,18.33,46.5,28.01,74.31,28.01
				c30.37,0,57.33-10.8,77.98-31.22c14.94-14.78,26.39-34.3,34.02-58.02c4.69-14.53,21.92-76.67,39.57-141.05
				c17.65,64.34,34.88,126.46,39.62,141.09c7.59,23.67,19.04,43.18,34.03,57.99c20.65,20.42,47.61,31.21,77.96,31.21
				c27.82,0,53.52-9.69,74.32-28.01c17.54-15.45,31.02-36.59,38.98-61.15c13.96-43.07,108.2-383.69,118.89-422.39l3.22-11.66
				c0.83-2.72,1.27-5.61,1.27-8.61c0-16.31-13.22-29.54-29.54-29.54h0h-12.86H625.68h-7.6c-13.5,0-25.28,9.15-28.62,22.23
				l-1.88,7.37l-52.54,205.81c-18.32-69.85-36.46-138.32-41.94-156.77c-7.83-26.37-20.91-46.88-38.88-60.97
				C436.15,36.93,413.99,29.75,388.35,29.75L388.35,29.75z"/>
		</g>
		<g>
			<path class="st0" d="M1048.36,185.54c-46.73,0-84.75-37.05-84.75-82.58c0-22.25,8.93-43.12,25.14-58.78
				c15.98-15.43,37.15-23.93,59.61-23.93c48.32,0,86.16,36.34,86.16,82.71c0,22.56-9.09,43.54-25.59,59.08
				C1092.84,177.19,1071.33,185.54,1048.36,185.54z"/>
			<path class="st0" d="M1048.36,35.01c40.03,0,71.39,29.85,71.39,67.95c0,18.45-7.44,35.61-20.94,48.33
				c-13.34,12.56-31.26,19.48-50.45,19.48c-38.59,0-69.98-30.42-69.98-67.81c0-18.21,7.33-35.31,20.63-48.16
				C1012.22,42.04,1029.75,35.01,1048.36,35.01 M1048.37,5.47C1048.37,5.47,1048.36,5.47,1048.37,5.47
				c-26.32,0-51.13,9.97-69.88,28.08c-19.12,18.47-29.64,43.11-29.64,69.4c0,53.68,44.64,97.35,99.52,97.35
				c26.75,0,51.86-9.77,70.7-27.52c19.5-18.36,30.23-43.16,30.23-69.83c0-26.59-10.6-51.33-29.86-69.66
				C1100.58,15.36,1075.34,5.47,1048.37,5.47L1048.37,5.47z"/>
		</g>
		<g>
			<path class="st0" d="M839.39,185.54c-46.76,0-84.79-37.04-84.79-82.57c-0.03-21.67,8.5-42.17,24.02-57.71
				c16.11-16.13,37.69-25.01,60.77-25.01c48.32,0,86.16,36.33,86.16,82.71C925.55,149.26,887.7,185.54,839.39,185.54z"/>
			<path class="st0" d="M839.39,35.01c40.03,0,71.4,29.85,71.4,67.95c0,38.03-31.36,67.81-71.4,67.81
				c-38.61,0-70.02-30.42-70.02-67.8c-0.02-17.74,6.97-34.53,19.71-47.28C802.39,42.35,820.26,35.01,839.39,35.01 M839.39,5.47
				c-27.03,0-52.32,10.42-71.22,29.35c-18.31,18.34-28.38,42.56-28.34,68.19c0,53.63,44.66,97.3,99.56,97.3
				c26.97,0,52.2-9.86,71.05-27.77c19.27-18.3,29.88-43.01,29.88-69.58c0-26.59-10.6-51.33-29.86-69.66
				C891.6,15.35,866.36,5.47,839.39,5.47L839.39,5.47z"/>
		</g>
		<g>
			<path class="st0" d="M1484.98,323.84c-25.96,0-49.53-10.3-66.37-29.01c-16.74-18.59-25.61-43.71-25.64-72.62V35.01
				c0-8.16,6.61-14.77,14.77-14.77h154.47c8.16,0,14.77,6.61,14.77,14.77v187.23c0,28.92-8.86,54.03-25.63,72.63
				C1534.51,313.55,1510.94,323.84,1484.98,323.84z"/>
			<path class="st0" d="M1562.22,35.01v9.79v177.44c0,25.21-7.55,46.9-21.83,62.74c-14.01,15.54-33.68,24.09-55.4,24.09
				c-21.71,0-41.39-8.57-55.39-24.12c-14.27-15.84-21.82-37.54-21.84-62.76V44.79v-9.79h9.79h134.9H1562.22 M1562.22,5.47h-9.79
				h-134.9h-9.79c-16.31,0-29.54,13.22-29.54,29.54v9.79v177.4c0.03,32.65,10.21,61.18,29.43,82.52
				c19.68,21.86,47.15,33.89,77.34,33.89c30.19,0,57.66-12.02,77.34-33.85c19.25-21.35,29.43-49.89,29.43-82.52V44.79v-9.79
				C1591.75,18.7,1578.53,5.47,1562.22,5.47L1562.22,5.47z"/>
		</g>
		<g>
			<path class="st0" d="M1326.43,452.32c-38.31,0-68.42-10.68-89.49-31.75c-21.07-21.07-31.75-51.17-31.75-89.49l-0.04-218.66
				c0-27.34,8.71-50.5,25.2-66.98c16.49-16.49,39.65-25.2,66.98-25.2h67.46c8.16,0,14.77,6.61,14.77,14.77v188.6
				c0,18.39,2.55,34.83,7.59,48.87c4.62,12.88,11.39,23.83,20.12,32.54c8.6,8.59,19.32,15.22,31.86,19.71
				c13.3,4.77,28.73,7.19,45.85,7.19c17.12,0,32.55-2.42,45.86-7.19c12.55-4.49,23.27-11.13,31.88-19.72
				c8.74-8.71,15.51-19.66,20.14-32.54c5.04-14.03,7.6-30.47,7.6-48.86V35.01c0-8.16,6.61-14.77,14.77-14.77h67.46
				c27.33,0,50.49,8.71,66.98,25.19c16.48,16.48,25.21,39.63,25.24,66.97l-0.04,218.68c0,38.31-10.68,68.42-31.75,89.48
				c-21.07,21.07-51.18,31.75-89.49,31.75H1326.43z"/>
			<path class="st0" d="M1672.69,35.01c23.33,0,42.88,7.22,56.54,20.87c13.66,13.65,20.89,33.2,20.91,56.54l-0.04,218.66
				c0,34.25-9.23,60.85-27.42,79.04c-18.2,18.2-44.79,27.42-79.04,27.42h-317.2c-34.25,0-60.85-9.23-79.04-27.42
				c-18.2-18.2-27.42-44.79-27.42-79.04l-0.04-218.67c0-23.33,7.22-42.88,20.87-56.54c13.66-13.65,33.21-20.87,56.54-20.87H1355
				h9.79v9.79v178.81c0,20.1,2.85,38.22,8.46,53.86c5.37,14.95,13.3,27.74,23.59,38.01c10.15,10.13,22.71,17.93,37.31,23.16
				c14.91,5.34,32.01,8.05,50.84,8.05c18.83,0,35.93-2.71,50.84-8.05c14.61-5.23,27.17-13.03,37.33-23.16
				c10.29-10.27,18.24-23.06,23.61-38.01c5.62-15.64,8.47-33.76,8.47-53.86V44.79v-9.79h9.79H1672.69 M1672.69,5.47h-57.67h-9.79
				c-16.31,0-29.54,13.22-29.54,29.54v9.79v178.81c0,16.68-2.26,31.44-6.73,43.87c-3.88,10.81-9.49,19.92-16.67,27.08
				c-7.06,7.04-15.95,12.51-26.43,16.27c-11.71,4.19-25.46,6.32-40.88,6.32c-15.42,0-29.17-2.13-40.87-6.32
				c-10.48-3.75-19.36-9.23-26.41-16.26c-7.17-7.16-12.78-16.27-16.66-27.08c-4.46-12.43-6.72-27.19-6.72-43.88V44.79v-9.79
				c0-16.31-13.22-29.54-29.54-29.54H1355h-57.67c-31.34,0-58.11,10.21-77.42,29.52c-19.32,19.32-29.52,46.09-29.52,77.42
				l0.04,218.67c0,42.36,12.14,75.99,36.08,99.92c23.94,23.94,57.56,36.08,99.93,36.08h317.2c42.37,0,75.99-12.14,99.93-36.08
				c23.94-23.94,36.08-57.56,36.08-99.93l0.04-218.66c-0.03-31.37-10.26-58.14-29.57-77.44C1730.79,15.68,1704.02,5.47,1672.69,5.47
				L1672.69,5.47z"/>
		</g>
		<g>
			<path class="st0" d="M3245.17,580.01c-4.08,0-7.98-1.69-10.77-4.67c-2.79-2.98-4.23-6.98-3.96-11.05l27.14-420.67
				c0.5-7.77,6.95-13.82,14.74-13.82h116.81v-12.13c0.01-56.74,46.18-102.9,102.92-102.9c0,0,70.57,0,70.57,0
				c56.74,0,102.9,46.16,102.91,102.9v12.13h116.81c7.79,0,14.24,6.05,14.74,13.82l27.14,420.67c0.26,4.07-1.17,8.07-3.96,11.05
				c-2.79,2.98-6.69,4.67-10.77,4.67H3245.17z M3731.14,491.8l-17.66-273.81h-47.97v49.79c0,15.08-12.27,27.35-27.35,27.35h-33.48
				c-15.08,0-27.35-12.27-27.35-27.35v-49.79h-100.03v49.79c0,15.02-12.24,27.29-27.28,27.35h-33.56
				c-15.08,0-27.35-12.27-27.35-27.35v-49.79h-47.99l-17.65,273.81H3731.14z M3577.34,129.8v-12.13c0-8.13-6.61-14.75-14.73-14.76
				h-70.55c-8.14,0-14.76,6.62-14.76,14.76v12.13H3577.34z"/>
			<path class="st0" d="M3562.6,29.54c48.6,0,88.14,39.54,88.14,88.13v26.9h122.35h0.05h9.17l0.59,9.16l25.88,401.1l0.67,10.42
				h-10.44h-543.42h-10.44l0.67-10.42l25.88-401.1l0.59-9.16h9.17h122.4v-26.9c0.01-48.6,39.55-88.13,88.15-88.13H3562.6
				 M3462.54,144.57h129.57v-26.9c0-16.26-13.23-29.51-29.48-29.53h-70.56c-16.28,0-29.53,13.25-29.53,29.53V144.57 M3604.69,280.36
				c-6.94,0-12.58-5.64-12.58-12.58v-64.56h-129.57v64.56c0,6.91-5.62,12.55-12.57,12.58h-33.51c-6.94,0-12.58-5.64-12.58-12.58
				v-64.56h-76.6l-19.55,303.35h439.17l-19.56-303.35h-76.58v64.56c0,6.94-5.64,12.58-12.58,12.58H3604.69 M3562.6,0
				C3562.6,0,3562.6,0,3562.6,0h-70.56c-64.01,0-116.25,51.36-117.66,115.03h-92.89h-9.17c-15.58,0-28.47,12.09-29.48,27.64
				l-0.59,9.16l-25.88,401.1l-0.67,10.42c-0.53,8.15,2.34,16.15,7.93,22.1c5.58,5.96,13.38,9.34,21.55,9.34h10.44h543.42h10.44
				c8.16,0,15.96-3.38,21.55-9.33c5.58-5.96,8.45-13.96,7.93-22.1l-0.67-10.42l-25.88-401.1l-0.59-9.16
				c-1-15.54-13.9-27.64-29.48-27.64h-9.17h-0.05h-92.84C3678.84,51.36,3626.6,0,3562.6,0L3562.6,0z M3680.28,232.76h19.35
				l15.75,244.28h-376.16l15.75-244.28h19.37v35.02c0,23.22,18.89,42.12,42.12,42.12h33.51c0.04,0,0.07,0,0.11,0
				c23.16-0.08,42-18.98,42-42.12v-35.02h70.5v35.02c0,23.22,18.89,42.12,42.12,42.12h33.48c23.22,0,42.12-18.89,42.12-42.12V232.76
				L3680.28,232.76z"/>
		</g>
		<g>
			<path class="st0" d="M1991.04,499.44c-21.16,0-41.99-4.09-61.92-12.14c-19.43-7.85-36.99-19.07-52.22-33.33
				c-32.41-30.35-50.25-70.78-50.25-113.84c0-20.6,4.11-40.89,12.21-60.33c7.81-18.75,18.93-35.73,33.03-50.48
				c14.3-14.96,30.87-26.76,49.24-35.09c19.44-8.81,39.96-13.27,61-13.27c27.81,0,56.34,7.75,82.5,22.43
				c23.2,13.01,43.27,31.13,55.05,49.71l0.11,0.17c0.12,0.18,0.23,0.37,0.34,0.56l0.1,0.18c7.3,12.66,13.23,32.13-0.05,52.83
				c-5.44,8.49-13.69,16.29-26.06,24.52h38.48c4.04,0,7.9,1.65,10.69,4.58c2.79,2.92,4.26,6.86,4.07,10.89l-0.48,10.25
				c-1.89,40.06-19.61,76.71-49.9,103.2C2068.08,485.53,2030.46,499.44,1991.04,499.44z M1996.49,388.49
				c8.4-1.29,15.84-4.72,21.81-10.12c1.85-1.67,3.52-3.5,4.99-5.46L1996.49,388.49z"/>
			<path class="st0" d="M1982.13,195.73c25.28,0,51.31,7.1,75.28,20.54c21.13,11.85,39.29,28.16,49.8,44.74l0.11,0.17l0.1,0.18
				c7.66,13.28,7.76,25.9,0.32,37.5c-5.67,8.84-15.78,17.15-32.75,26.94l-118.6,68.9c8.87,5.62,20.83,9.13,32.41,9.13
				c15.27,0,28.89-5.01,39.39-14.5c9.89-8.93,16.03-21.13,17.31-34.37l0.85-8.85h8.89h67.09h10.26l-0.48,10.25
				c-1.7,36.01-17.64,68.96-44.87,92.78c-26.2,22.91-60.36,35.53-96.21,35.53c-19.25,0-38.23-3.72-56.39-11.07
				c-17.73-7.17-33.77-17.4-47.66-30.42c-29.39-27.53-45.58-64.13-45.58-103.06c0-18.63,3.73-37.02,11.07-54.65
				c7.11-17.06,17.23-32.52,30.07-45.95c12.99-13.59,28.02-24.3,44.66-31.84C1944.73,199.75,1963.2,195.73,1982.13,195.73
				 M1923.43,333.56l91.15-52.59c-8.6-5.32-17.55-7.77-27.86-7.77c-18.93,0-36.73,8.39-48.83,23.01
				C1929.01,306.92,1924.02,320.03,1923.43,333.56 M2132.6,346.12L2132.6,346.12 M1982.13,166.19c-23.16,0-45.73,4.91-67.1,14.59
				c-20.1,9.11-38.21,22-53.82,38.33c-15.36,16.07-27.47,34.57-35.99,55c-8.86,21.25-13.35,43.46-13.35,66.01
				c0,47.19,19.51,91.45,54.93,124.62c16.56,15.51,35.66,27.7,56.78,36.24c21.7,8.77,44.39,13.22,67.46,13.22
				c43,0,84.07-15.21,115.66-42.83c33.34-29.15,52.84-69.5,54.93-113.62l0.46-9.8c0.04-0.61,0.06-1.23,0.06-1.85
				c0-16.31-13.22-29.54-29.54-29.54h0h-1.17c0.4-0.59,0.8-1.18,1.18-1.78c13.49-21.03,13.63-45.25,0.4-68.2l-0.09-0.16
				c-0.21-0.37-0.43-0.74-0.66-1.1l-0.11-0.17c-13.24-20.88-34.66-40.3-60.3-54.67C2043.49,174.6,2012.46,166.19,1982.13,166.19
				L1982.13,166.19z"/>
		</g>
		<g>
			<path class="st0" d="M2891.66,580.01c-8.16,0-14.77-6.61-14.77-14.77V231.31c0-8.16,6.61-14.77,14.77-14.77h84.42
				c2.54,0,4.93,0.64,7.01,1.77c11.17-4.49,26.28-8.62,44.1-8.62c18.99,0,37.52,3.82,55.08,11.35c16.89,7.25,32.1,17.58,45.21,30.71
				c13.14,13.16,23.48,28.44,30.72,45.42c7.56,17.7,11.39,36.43,11.39,55.66c0,37.99-14.96,73.89-42.12,101.08
				c-13.11,13.13-28.32,23.45-45.21,30.69c-17.56,7.53-36.09,11.34-55.08,11.34c-13.98,0-26.3-2.54-36.34-5.8v75.08
				c0,8.16-6.61,14.77-14.77,14.77H2891.66z M3025.02,316.95c-20,0-34.52,15.09-34.52,35.89c0,20.79,14.52,35.87,34.52,35.87
				c19.77,0,35.25-15.76,35.25-35.87C3060.27,332.71,3044.79,316.95,3025.02,316.95z"/>
			<path class="st0" d="M3027.2,224.46c16.98,0,33.55,3.42,49.26,10.16c15.15,6.5,28.8,15.78,40.58,27.57
				c11.8,11.82,21.09,25.54,27.59,40.78c6.77,15.86,10.2,32.64,10.2,49.87c0,34.05-13.42,66.24-37.8,90.64
				c-11.77,11.79-25.43,21.06-40.58,27.56c-15.71,6.73-32.28,10.15-49.26,10.15c-19.92,0-38.22-6.15-51.11-13.59v87.86v9.79h-9.79
				h-64.85h-9.79v-9.79V241.1v-9.79h9.79h64.85h9.79v6.76C2988.98,230.62,3007.28,224.46,3027.2,224.46 M3025.02,403.48
				c28.05,0,50.02-22.24,50.02-50.64c0-28.41-21.97-50.66-50.02-50.66c-28.1,0-49.29,21.78-49.29,50.66
				C2975.73,381.71,2996.92,403.48,3025.02,403.48 M3027.2,194.92c-17.3,0-32.34,3.46-44.22,7.66c-2.21-0.53-4.52-0.81-6.89-0.81
				h-9.79h-64.85h-9.79c-16.31,0-29.54,13.22-29.54,29.54v9.79v314.36v9.79c0,16.31,13.22,29.54,29.54,29.54h9.79h64.85h9.79
				c16.31,0,29.54-13.22,29.54-29.54v-9.79v-46.53c6.7,1.12,13.92,1.8,21.58,1.8c21,0,41.49-4.22,60.9-12.54
				c18.63-7.99,35.4-19.37,49.84-33.83c29.95-29.98,46.44-69.58,46.44-111.51c0-21.24-4.23-41.92-12.58-61.46
				c-7.99-18.72-19.38-35.56-33.85-50.05c-14.44-14.47-31.21-25.86-49.84-33.85C3068.69,199.14,3048.2,194.92,3027.2,194.92
				L3027.2,194.92z M3025.02,373.94c-11.81,0-19.75-8.48-19.75-21.1c0-12.63,7.94-21.12,19.75-21.12c11.67,0,20.48,9.08,20.48,21.12
				C3045.5,364.87,3036.7,373.94,3025.02,373.94L3025.02,373.94z"/>
		</g>
		<g>
			<path class="st0" d="M2041.13,216.09c-2.58,0-5.15-0.39-7.61-1.17l-0.32-0.1c-0.31-0.1-0.61-0.2-0.91-0.32l-0.3-0.12
				c-10.82-4.22-17.48-15.62-15.84-27.12l11.19-80.64c1.67-12.64,12.54-22.16,25.31-22.16c2.83,0,5.63,0.47,8.31,1.39
				c0.01,0,0.42,0.15,0.43,0.15l31.63,11.52c7.1,2.56,12.68,8.13,15.27,15.28c2.62,7.22,1.87,15.16-2.05,21.77l-0.31,0.51
				l-43.38,69.12C2058.04,211.51,2049.81,216.09,2041.13,216.09z"/>
			<path class="st0" d="M2052.65,99.24c1.2,0,2.38,0.2,3.51,0.59l0.09,0.03l0.09,0.03l31.63,11.52c3.01,1.08,5.35,3.43,6.45,6.44
				c1.11,3.05,0.79,6.4-0.87,9.19l-0.06,0.1l-0.06,0.1l-43.37,69.11c-1.9,3.07-5.29,4.97-8.91,4.97c-1.08,0-2.14-0.16-3.17-0.49
				l-0.31-0.1l-0.3-0.12c-4.51-1.76-7.26-6.48-6.58-11.27l11.21-80.75C2042.67,103.25,2047.22,99.24,2052.65,99.24 M2052.65,69.7
				c-20.14,0-37.28,15-39.94,34.93l-11.19,80.62c-1.25,8.85,0.55,17.99,5.07,25.75c4.54,7.79,11.66,13.88,20.03,17.15l0.3,0.12
				c0.61,0.24,1.23,0.46,1.85,0.65l0.31,0.1c3.9,1.23,7.96,1.85,12.05,1.85c13.72,0,26.73-7.23,33.97-18.87l43.33-69.05l0.08-0.13
				c0.13-0.2,0.25-0.41,0.37-0.61l0.06-0.1c6.18-10.42,7.36-22.93,3.23-34.33c-4.08-11.25-12.86-20.03-24.1-24.12l0,0l-31.63-11.52
				l-0.07-0.03c-0.18-0.06-0.35-0.13-0.53-0.19l-0.09-0.03C2061.53,70.44,2057.12,69.7,2052.65,69.7L2052.65,69.7z"/>
		</g>
		<g>
			<path class="st0" d="M2014.27,213.25c-10.51,0-20.04-6.65-23.69-16.54l-28.04-76.7c-2.66-7.13-1.89-15.38,2.09-21.98
				c3.95-6.55,10.82-11.06,18.39-12.1c0,0,33.38-4.7,33.41-4.7c1.13-0.15,2.28-0.23,3.42-0.23c7.11,0,13.96,3,18.78,8.22
				c4.76,5.17,7.2,12.15,6.69,19.16l-5.83,81.54c-0.01,0.13-0.05,0.51-0.05,0.51c-1.12,11.44-9.84,20.7-21.22,22.49
				c-0.03,0-0.12,0.02-0.16,0.02C2016.8,213.15,2015.53,213.25,2014.27,213.25z"/>
			<path class="st0" d="M2019.84,95.78c3,0,5.89,1.26,7.92,3.47c2.01,2.18,3.03,5.11,2.81,8.07l-5.82,81.43l-0.01,0.13l-0.01,0.13
				c-0.46,4.76-4.09,8.61-8.82,9.36l-0.03,0l-0.03,0c-0.52,0.08-1.05,0.12-1.57,0.12c-4.36,0-8.31-2.76-9.84-6.89l-28.02-76.65
				c-1.13-3.04-0.81-6.49,0.87-9.28c1.67-2.77,4.56-4.66,7.76-5.09l33.3-4.68l0.03,0l0.03,0
				C2018.87,95.81,2019.36,95.78,2019.84,95.78 M2019.84,66.24c-1.8,0-3.61,0.12-5.39,0.36c-0.02,0-0.06,0.01-0.07,0.01
				c-0.03,0-0.12,0.02-0.15,0.02l-33.23,4.67c-12.12,1.66-22.69,8.61-29.01,19.1c-6.26,10.39-7.49,23.37-3.29,34.74l27.99,76.58
				c0.01,0.03,0.02,0.07,0.04,0.1c5.79,15.66,20.88,26.19,37.55,26.19c2,0,4.01-0.15,5.99-0.45c0.01,0,0.06-0.01,0.07-0.01
				c0.03,0,0.06-0.01,0.08-0.01c0.02,0,0.07-0.01,0.09-0.01c18.02-2.84,31.85-17.51,33.62-35.67l0.01-0.08
				c0.03-0.26,0.05-0.53,0.07-0.79l0.01-0.13l5.82-81.45c0.8-11.05-3.05-22.06-10.56-30.2
				C2041.87,70.97,2031.07,66.24,2019.84,66.24L2019.84,66.24z"/>
		</g>
		<g>
			<path class="st0" d="M2760.51,495.95c-79.23,0-143.69-64.19-143.69-143.1c0-78.95,64.46-143.18,143.69-143.18
				c79.22,0,143.67,64.23,143.67,143.18C2904.18,431.76,2839.73,495.95,2760.51,495.95z M2760.51,317.5
				c-18.86,0-34.2,15.9-34.2,35.43c0,19.54,15.34,35.43,34.2,35.43c18.85,0,34.18-15.9,34.18-35.43
				C2794.69,333.4,2779.36,317.5,2760.51,317.5z"/>
			<path class="st0" d="M2760.51,224.44c71.08,0,128.9,57.61,128.9,128.41c0,70.76-57.82,128.33-128.9,128.33
				c-71.09,0-128.92-57.57-128.92-128.33C2631.59,282.05,2689.42,224.44,2760.51,224.44 M2760.51,403.14
				c26.99,0,48.95-22.52,48.95-50.2c0-27.68-21.96-50.2-48.95-50.2c-27,0-48.97,22.52-48.97,50.2
				C2711.54,380.62,2733.51,403.14,2760.51,403.14 M2760.51,194.9c-87.37,0-158.46,70.86-158.46,157.95
				c0,87.05,71.08,157.87,158.46,157.87c87.36,0,158.44-70.82,158.44-157.87C2918.95,265.76,2847.87,194.9,2760.51,194.9
				L2760.51,194.9z M2760.51,373.6c-10.72,0-19.43-9.27-19.43-20.66c0-11.39,8.72-20.66,19.43-20.66c10.71,0,19.41,9.27,19.41,20.66
				C2779.92,364.33,2771.21,373.6,2760.51,373.6L2760.51,373.6z"/>
		</g>
		<g>
			<path class="st0" d="M2063.55,231.2c-7.33,0-14.29-3.17-19.09-8.71c-7.77-8.98-8.3-21.91-1.3-31.46c0,0,47.85-66.13,47.89-66.18
				c4.76-6.51,12.47-10.41,20.58-10.41c7.25,0,14.17,3.09,19.01,8.49c0,0,22.6,25.1,22.62,25.13c5.03,5.66,7.28,13.21,6.16,20.7
				c-1.11,7.5-5.46,14.07-11.93,18.04l-0.54,0.32l-71.04,40.88c-0.25,0.14-0.5,0.28-0.76,0.41l-0.26,0.13
				C2071.38,230.28,2067.46,231.2,2063.55,231.2z"/>
			<path class="st0" d="M2111.63,129.21c3.06,0,5.97,1.3,8.01,3.57l22.54,25.03l0.02,0.02l0.02,0.02c2.12,2.38,3.06,5.56,2.6,8.72
				c-0.47,3.16-2.31,5.94-5.04,7.61l-0.11,0.07l-0.12,0.07l-70.76,40.71l-0.25,0.14l-0.26,0.13c-1.46,0.73-3.1,1.12-4.73,1.12
				c-3.05,0-5.94-1.32-7.94-3.62c-3.23-3.73-3.45-9.08-0.54-13.05l47.83-66.1l0.02-0.02l0.02-0.02
				C2104.96,130.86,2108.21,129.21,2111.63,129.21 M2111.63,99.67c-12.8,0-24.96,6.17-32.53,16.5c-0.01,0.02-0.02,0.03-0.04,0.05
				c-0.02,0.02-0.05,0.06-0.06,0.08c-0.01,0.01-0.03,0.04-0.03,0.05l-47.8,66.06c-11.02,15.13-10.16,35.57,2.1,49.74
				c7.64,8.8,18.66,13.83,30.27,13.83c6.19,0,12.4-1.46,17.94-4.23l0.27-0.14c0.51-0.25,1.01-0.52,1.5-0.8l0.25-0.14l70.77-40.72
				l0.13-0.07c0.23-0.13,0.46-0.27,0.68-0.4l0.11-0.07c10.21-6.25,17.07-16.63,18.83-28.46c1.76-11.83-1.79-23.74-9.73-32.68
				c-0.03-0.03-0.06-0.06-0.09-0.1c-0.01-0.01-0.04-0.05-0.05-0.06l-22.54-25.04C2133.99,104.55,2123.06,99.67,2111.63,99.67
				L2111.63,99.67z"/>
		</g>
		<g>
			<path class="st0" d="M2382.78,489.08c-8.16,0-14.77-6.61-14.77-14.77V140.38c0-8.16,6.61-14.77,14.77-14.77h84.44
				c8.16,0,14.77,6.61,14.77,14.77v75.18c11.19-3.81,23.26-5.81,35.4-5.81c32.98,0,63.81,11.98,86.82,33.73
				c26.11,24.68,39.92,59.67,39.92,101.18v129.56c0,8.16-6.61,14.77-14.77,14.77h-84.47c-8.16,0-14.77-6.61-14.77-14.77V349.41
				c0-12.33-2.8-21.09-8.31-26.04c-5.27-4.73-12.05-5.09-14.01-5.09c-7.22,0-12.98,2.29-17.11,6.8c-5.61,6.13-8.7,17.05-8.7,30.74
				v118.49c0,8.16-6.61,14.77-14.77,14.77H2382.78z"/>
			<path class="st0" d="M2467.21,140.38v9.79v88.95c3.9-2.59,8.06-4.88,12.44-6.81c11.52-5.09,24.56-7.79,37.73-7.79
				c29.19,0,56.42,10.54,76.68,29.69c23.09,21.82,35.29,53.1,35.29,90.45v119.77v9.79h-9.79h-64.9h-9.79v-9.79V349.41
				c0-16.7-4.45-29.16-13.22-37.03c-8.92-8.01-19.66-8.87-23.87-8.87c-7.93,0-19.23,2.01-28,11.6
				c-8.23,8.99-12.58,23.07-12.58,40.72v108.7v9.79h-9.79h-64.87h-9.79v-9.79V150.17v-9.79h9.79h64.87H2467.21 M2467.21,110.84
				h-9.79h-64.87h-9.79c-16.31,0-29.54,13.22-29.54,29.54v9.79v314.36v9.79c0,16.31,13.22,29.54,29.54,29.54h9.79h64.87h9.79
				c16.31,0,29.54-13.22,29.54-29.54v-9.79v-108.7c0-11.43,2.49-18.22,4.83-20.77c0.5-0.55,1.83-2,6.22-2
				c0.69,0,2.94,0.24,4.14,1.32c1.57,1.41,3.41,6.2,3.41,15.04v115.03v9.79c0,16.31,13.22,29.54,29.54,29.54h9.79h64.9h9.79
				c16.31,0,29.54-13.22,29.54-29.54v-9.79V344.67c0-45.68-15.4-84.38-44.54-111.92c-25.76-24.35-60.2-37.76-96.97-37.76
				c-6.93,0-13.85,0.58-20.63,1.7v-46.52v-9.79C2496.75,124.07,2483.53,110.84,2467.21,110.84L2467.21,110.84z"/>
		</g>
		<g>
			<path class="st0" d="M2255.03,498.33c-23.44,0-48.54-6.47-72.61-18.71c-22.83-11.61-43.47-27.7-59.7-46.53l-7.08-8.21
				c-2.73-3.17-3.99-7.34-3.47-11.49c0.52-4.15,2.78-7.88,6.2-10.27l72.04-50.26c2.55-1.78,5.5-2.66,8.45-2.66
				c3.52,0,7.02,1.25,9.8,3.72l5.77,5.11c12.68,11.24,27.45,23.24,42.33,23.24c3.31,0,6.64-1.17,8.9-3.12
				c1.31-1.13,1.78-2.11,1.87-2.43c0-1.01-0.14-1.8-4.01-4.11c-7.15-4.28-21.22-9.11-36.24-14.1l-1.15-0.38
				c-31.96-10.6-57.16-26.94-74.9-48.56c-17.27-21.04-26.4-46.17-26.4-72.68c0-33.07,14.12-63.87,39.75-86.73
				c24.52-21.87,56.68-33.91,90.55-33.91c23.26,0,47.36,6.29,69.71,18.18c20.11,10.7,38.08,25.43,51.97,42.59l6.62,8.18
				c2.58,3.19,3.72,7.31,3.14,11.37c-0.58,4.06-2.82,7.7-6.18,10.04l-68.27,47.52c-2.54,1.77-5.49,2.65-8.44,2.65
				c-3.35,0-6.68-1.13-9.4-3.38l-7.23-5.97c-9.97-8.27-18.58-15.4-32.91-15.4c-9.36,0-11.98,3.29-12.07,3.9c0,0.14,0,0.25,0.01,0.33
				c0.31,0.38,1.29,1.42,3.79,2.95c7.25,4.46,19.38,8.51,33.43,13.2l0.95,0.32c35.98,11.99,63.26,29.26,81.09,51.33
				c16.45,20.36,24.79,44.36,24.79,71.33c0,31.45-13.47,62.65-36.95,85.61C2324.55,485.07,2291.11,498.33,2255.03,498.33z"/>
			<path class="st0" d="M2255.15,131.01c20.84,0,42.55,5.69,62.77,16.45c18.37,9.78,34.77,23.21,47.43,38.85l6.62,8.18l-8.64,6.01
				l-53.54,37.27l-6.09,4.24l-5.73-4.73l-1.49-1.23c-10.63-8.81-22.67-18.79-42.33-18.79c-18.44,0-26.84,9.66-26.84,18.64
				c0,4.8,1.31,10.04,10.82,15.89c8.7,5.35,21.58,9.65,36.5,14.63l0.95,0.32c33.26,11.08,58.25,26.76,74.27,46.6
				c14.27,17.67,21.51,38.54,21.51,62.05c0,27.5-11.85,54.85-32.5,75.05c-21.85,21.36-51.62,33.13-83.82,33.13
				c-21.12,0-43.91-5.91-65.92-17.1c-21.13-10.74-40.22-25.61-55.21-43.01l-7.08-8.21l8.89-6.2l56.83-39.65l6.32-4.41l5.77,5.11
				c14.71,13.04,32.08,26.96,52.13,26.96c6.85,0,13.61-2.45,18.55-6.71c4.44-3.84,6.99-8.76,6.99-13.5
				c0-14.34-13.05-19.95-50.36-32.34l-1.15-0.38c-29.27-9.71-52.2-24.49-68.14-43.91c-15.07-18.37-23.04-40.26-23.04-63.31
				c0-28.8,12.36-55.69,34.82-75.71C2196.24,141.73,2224.91,131.01,2255.15,131.01 M2255.15,101.48
				c-37.5,0-73.15,13.37-100.38,37.66c-28.82,25.7-44.69,60.42-44.69,97.76c0,29.97,10.29,58.34,29.75,82.05
				c8.97,10.92,19.61,20.61,31.84,29l-52.85,36.87l-8.89,6.2c-6.85,4.78-11.36,12.24-12.41,20.54c-1.04,8.29,1.47,16.64,6.93,22.97
				l7.08,8.21c17.48,20.28,39.67,37.59,64.2,50.06c26.13,13.29,53.56,20.31,79.31,20.31c39.97,0,77.07-14.75,104.47-41.54
				c26.31-25.72,41.39-60.77,41.39-96.17c0-30.43-9.44-57.55-28.06-80.61c-10.98-13.59-25.07-25.48-42.12-35.58l49.5-34.46
				l8.63-6.01c6.73-4.69,11.22-11.97,12.37-20.09c1.15-8.12-1.12-16.36-6.29-22.74l-6.62-8.18c-15.13-18.69-34.67-34.71-56.51-46.34
				C2307.32,108.36,2280.82,101.48,2255.15,101.48L2255.15,101.48z"/>
		</g>
	</g>
	<g>
		<g>
			<g>
				<g>
					<rect x="993.18" y="214.29" class="st3" width="112.57" height="342.38"/>
					<path class="st0" d="M1100.86,219.19v332.6H998.08v-332.6H1100.86 M1110.65,209.4h-9.79H998.08h-9.79v9.79v332.6v9.79h9.79
						h102.79h9.79v-9.79v-332.6V209.4L1110.65,209.4z"/>
				</g>
				<g>
					<rect x="784.29" y="214.29" class="st3" width="112.53" height="342.38"/>
					<path class="st0" d="M891.93,219.19v332.6H789.19v-332.6H891.93 M901.71,209.4h-9.79H789.19h-9.79v9.79v332.6v9.79h9.79h102.74
						h9.79v-9.79v-332.6V209.4L901.71,209.4z"/>
				</g>
				<g>
					<path class="st3" d="M539.92,560.35c-26.59,0-61.92-11.34-79.23-65.36c-8.11-25-56.78-203.86-72.39-261.35
						c-15.61,57.49-64.27,236.35-72.35,261.36c-17.39,54.01-52.68,65.35-79.22,65.35c-19.31,0-37.13-6.71-51.55-19.42
						c-12.89-11.36-22.92-27.24-29-45.93C142.12,451.74,38.72,77.82,37.68,74.05l-1.71-6.2h118.85l86.38,338.7
						c15.83-60.82,66.01-253.22,75.41-284.7c11.36-38.27,35.5-57.67,71.74-57.67s60.38,19.41,71.74,57.68
						c9.36,31.47,59.5,223.88,75.32,284.7l86.47-338.71h118.76l-1.71,6.2C737.88,77.82,634.49,451.74,620.47,495
						c-6.06,18.68-16.08,34.57-28.99,45.93C577.06,553.63,559.23,560.35,539.92,560.35z"/>
					<path class="st0" d="M388.35,69.08c32.73,0,55.86,16.5,67.05,54.18c11.19,37.64,80.05,302.92,80.05,302.92l90.23-353.43h108.54
						c0,0-104.25,377.09-118.4,420.74c-11.06,34.1-37.15,61.96-75.89,61.96c-44.27,0-65.06-32.29-74.57-61.96
						c-9.55-29.46-77.04-278.55-77.04-278.55s-67.49,249.09-77,278.55c-9.55,29.68-30.25,61.96-74.57,61.96
						c-38.74,0-64.79-27.86-75.9-61.96C146.64,449.84,42.4,72.75,42.4,72.75h108.62l90.14,353.43c0,0,68.91-265.28,80.14-302.92
						C332.49,85.57,355.62,69.08,388.35,69.08 M388.35,59.29c-18.87,0-34.9,5.06-47.64,15.04c-13.05,10.23-22.74,25.75-28.79,46.14
						c-8.74,29.27-51.28,192.07-70.67,266.48L160.5,70.33l-1.88-7.37h-7.6H42.4H29.54l3.43,12.39
						c4.26,15.41,104.47,377.8,118.57,421.16c6.36,19.52,16.87,36.15,30.42,48.08c15.32,13.5,34.27,20.64,54.78,20.64
						c22.74,0,41.99-7.63,57.2-22.68c11.54-11.41,20.51-26.91,26.68-46.07c7.41-22.94,48.71-174.39,67.69-244.2
						c18.98,69.81,60.29,221.27,67.74,244.22c6.12,19.1,15.1,34.61,26.68,46.05c15.22,15.05,34.47,22.68,57.2,22.68
						c20.52,0,39.47-7.14,54.8-20.64c13.56-11.95,24.08-28.58,30.41-48.09c14.06-43.36,114.26-405.75,118.52-421.15l3.43-12.39
						h-12.86H625.68h-7.6l-1.88,7.36l-80.83,316.63c-19.37-74.41-61.88-237.22-70.59-266.49c-6.05-20.38-15.74-35.91-28.79-46.13
						C423.25,64.35,407.22,59.29,388.35,59.29L388.35,59.29z"/>
				</g>
				<g>
					<path class="st3" d="M1048.36,165.87c-35.89,0-65.09-28.23-65.09-62.92c0-34.77,29.2-63.05,65.09-63.05
						c37.29,0,66.5,27.7,66.5,63.05C1114.87,138.24,1085.65,165.87,1048.36,165.87z"/>
					<path class="st0" d="M1048.36,44.79c34.5,0,61.61,25.52,61.61,58.16c0,32.51-27.11,58.03-61.61,58.03
						c-33.22,0-60.19-25.96-60.19-58.03C988.17,70.85,1015.15,44.79,1048.36,44.79 M1048.36,35.01
						C1048.36,35.01,1048.37,35.01,1048.36,35.01c-18.62,0-36.14,7.03-49.35,19.79c-13.3,12.85-20.63,29.95-20.63,48.16
						c0,37.39,31.39,67.81,69.98,67.81c19.19,0,37.11-6.92,50.45-19.48c13.51-12.72,20.95-29.88,20.95-48.33
						C1119.76,64.86,1088.39,35.01,1048.36,35.01L1048.36,35.01L1048.36,35.01z"/>
				</g>
				<g>
					<path class="st3" d="M839.39,165.87c-35.91,0-65.13-28.23-65.13-62.92c-0.02-16.42,6.47-31.98,18.28-43.81
						c12.39-12.41,29.03-19.25,46.86-19.25c37.29,0,66.5,27.7,66.5,63.05C905.89,138.24,876.68,165.87,839.39,165.87z"/>
					<path class="st0" d="M839.39,44.79c34.54,0,61.61,25.52,61.61,58.16c0,32.55-27.07,58.03-61.61,58.03
						c-33.26,0-60.24-26.01-60.24-58.03C779.1,70.85,806.13,44.79,839.39,44.79 M839.39,35.01c-19.13,0-37,7.34-50.32,20.68
						c-12.73,12.75-19.73,29.54-19.71,47.28c0,37.38,31.41,67.8,70.02,67.8c40.03,0,71.39-29.79,71.39-67.81
						C910.78,64.85,879.42,35.01,839.39,35.01L839.39,35.01z"/>
				</g>
			</g>
			<g>
				<g>
					<path class="st4" d="M1484.98,304.18c-42.55,0-72.29-33.71-72.34-81.98V39.9h144.68v182.34
						C1557.32,270.48,1527.58,304.18,1484.98,304.18z"/>
					<path class="st0" d="M1552.43,44.79v177.44c0,47.1-29.01,77.05-67.45,77.05s-67.4-29.99-67.45-77.09V44.79H1552.43
						 M1562.22,35.01h-9.79h-134.9h-9.79v9.79v177.4c0.02,25.22,7.58,46.91,21.84,62.76c14,15.55,33.68,24.12,55.39,24.12
						c21.72,0,41.4-8.56,55.4-24.09c14.28-15.84,21.83-37.53,21.83-62.74V44.79V35.01L1562.22,35.01z"/>
				</g>
				<g>
					<path class="st4" d="M1326.43,432.66c-32.91,0-58.34-8.74-75.58-25.99c-17.25-17.25-25.99-42.68-25.99-75.58l-0.04-218.66
						c0-44.73,27.79-72.52,72.52-72.52h62.57v183.71c0,81.33,45.59,127.97,125.09,127.97c79.53,0,125.14-46.64,125.14-127.97V39.9
						h62.57c44.71,0,72.51,27.78,72.56,72.51l-0.04,218.67c0,32.91-8.74,58.34-25.99,75.58c-17.25,17.25-42.68,25.99-75.58,25.99
						H1326.43z"/>
					<path class="st0" d="M1672.69,44.79c42.15,0,67.62,25.48,67.67,67.62l-0.04,218.66c0,63.42-33.26,96.68-96.68,96.68h-317.2
						c-63.42,0-96.68-33.26-96.68-96.68l-0.04-218.66c0-42.15,25.48-67.62,67.62-67.62H1355v178.81
						c0,86.29,49.8,132.86,129.99,132.86c80.19,0,130.03-46.57,130.03-132.86V44.79H1672.69 M1672.69,35.01h-57.67h-9.79v9.79
						v178.81c0,20.09-2.85,38.21-8.47,53.86c-5.37,14.95-13.31,27.74-23.61,38.01c-10.16,10.14-22.72,17.93-37.33,23.16
						c-14.91,5.34-32.02,8.05-50.85,8.05c-18.83,0-35.93-2.71-50.84-8.05c-14.6-5.23-27.16-13.03-37.31-23.16
						c-10.29-10.27-18.23-23.06-23.59-38.01c-5.61-15.64-8.46-33.76-8.46-53.86V44.79v-9.79H1355h-57.67
						c-23.33,0-42.88,7.22-56.54,20.87c-13.65,13.65-20.87,33.21-20.87,56.54l0.04,218.67c0,34.25,9.23,60.85,27.42,79.04
						c18.2,18.2,44.79,27.42,79.04,27.42h317.2c34.25,0,60.85-9.23,79.04-27.42c18.2-18.2,27.42-44.79,27.42-79.04l0.04-218.66
						c-0.02-23.34-7.26-42.89-20.91-56.54C1715.57,42.23,1696.02,35.01,1672.69,35.01L1672.69,35.01z"/>
				</g>
			</g>
		</g>
		<g>
			<path class="st2" d="M3250.39,560.35l26.51-410.88h131.88v-31.79c0.01-45.9,37.35-83.24,83.25-83.24h70.57
				c45.9,0,83.24,37.34,83.25,83.24v31.79h131.83l0.35,4.58l26.21,406.31H3250.39z M3752.11,511.47l-20.2-313.14h-86.06v69.45
				c0,4.24-3.45,7.68-7.69,7.68h-33.48c-4.24,0-7.69-3.45-7.69-7.68v-69.45h-139.36v69.45c0,4.22-3.44,7.67-7.66,7.68h-33.52
				c-4.24,0-7.69-3.45-7.69-7.68v-69.45h-86.08l-20.19,313.14H3752.11z M3597.01,149.46v-31.79c0-18.96-15.42-34.4-34.38-34.42
				h-70.56c-18.98,0-34.42,15.44-34.42,34.42v31.79H3597.01z"/>
			<path class="st0" d="M3492.03,39.32c0,0,0.01,0,0.01,0h70.56c43.27,0,78.35,35.08,78.36,78.35v36.68h132.14h0.05l25.88,401.1
				h-543.42l25.88-401.1h132.19v-36.68C3413.68,74.4,3448.76,39.32,3492.03,39.32 M3452.75,154.35h149.14v-36.68
				c0-21.69-17.57-39.29-39.26-39.31h-70.56c-21.71,0-39.31,17.6-39.31,39.31V154.35 M3604.69,270.57c-1.54,0-2.79-1.25-2.79-2.79
				v-74.34h-149.14v74.34c0,1.54-1.24,2.79-2.78,2.79h-33.51c0,0,0,0,0,0c-1.54,0-2.79-1.25-2.79-2.79v-74.34h-95.56l-20.82,322.92
				h460.04l-20.83-322.92h-0.05h-95.49v74.34c0,1.54-1.25,2.79-2.79,2.79H3604.69 M3562.6,29.54h-70.56
				c-48.61,0-88.15,39.53-88.15,88.13v26.9h-122.4h-9.17l-0.59,9.16l-25.88,401.1l-0.67,10.42h10.44h543.42h10.44l-0.67-10.42
				l-25.88-401.1l-0.59-9.16h-9.17h-0.05h-122.35v-26.9C3650.74,69.07,3611.2,29.54,3562.6,29.54L3562.6,29.54z M3462.54,144.57
				v-26.9c0-16.28,13.25-29.53,29.53-29.53h70.56c16.25,0.02,29.48,13.27,29.48,29.53v26.9H3462.54L3462.54,144.57z M3650.75,203.22
				h76.58l19.56,303.35h-439.17l19.55-303.35h76.6v64.56c0,6.94,5.64,12.58,12.58,12.58h33.51c6.95-0.03,12.57-5.67,12.57-12.58
				v-64.56h129.57v64.56c0,6.94,5.64,12.58,12.58,12.58h33.48c6.94,0,12.58-5.64,12.58-12.58V203.22L3650.75,203.22z"/>
		</g>
		<g>
			<path class="st2" d="M1991.04,479.78c-36.75,0-73.45-14.64-100.7-40.16c-28.39-26.59-44.03-61.93-44.03-99.49
				c0-35.34,14.5-70.78,39.79-97.22c26.07-27.27,60.18-42.28,96.04-42.28c52.6,0,101.58,32.46,120.95,63l0.11,0.18
				c15.24,26.45-5.73,43.4-30.66,57.78l-124.97,72.6c9.86,8.86,25.64,14.55,41.25,14.55c32.7,0,58.59-22.41,61.57-53.29l0.43-4.42
				h76.67l-0.24,5.12c-1.64,34.67-16.98,66.39-43.2,89.32C2058.72,467.59,2025.7,479.78,1991.04,479.78z M1986.72,268.3
				c-20.39,0-39.56,9.03-52.6,24.78c-11.43,13.81-16.88,31.29-15.4,48.84l104.93-60.54C2012.33,272.48,2000.44,268.3,1986.72,268.3z
				"/>
			<path class="st0" d="M1982.13,205.51c50.96,0,98.08,31.19,116.82,60.73c12.04,20.88-0.91,34.97-28.86,51.09l-130.34,75.72
				c10.62,13.05,30.99,20.56,49.07,20.56c36.98,0,63.4-26.15,66.44-57.71h67.09c-3.33,70.35-63.67,118.98-131.3,118.98
				c-73.17,0-139.84-58.66-139.84-134.76C1851.2,269.37,1910.04,205.51,1982.13,205.51 M1914.86,349.8l117.23-67.63
				c-13.13-12.14-27.38-18.75-45.37-18.75C1941.04,263.41,1906.36,305.02,1914.86,349.8 M1982.13,195.73
				c-18.93,0-37.4,4.02-54.91,11.95c-16.64,7.54-31.67,18.25-44.66,31.84c-12.84,13.43-22.96,28.89-30.07,45.95
				c-7.35,17.63-11.07,36.01-11.07,54.65c0,38.93,16.19,75.54,45.58,103.06c13.89,13.01,29.93,23.25,47.66,30.42
				c18.16,7.34,37.13,11.07,56.39,11.07c35.85,0,70.01-12.62,96.21-35.53c27.23-23.82,43.17-56.76,44.87-92.78l0.48-10.25h-10.26
				h-67.09h-8.89l-0.85,8.85c-1.27,13.23-7.42,25.44-17.31,34.37c-10.5,9.48-24.12,14.5-39.39,14.5c-11.58,0-23.54-3.52-32.41-9.13
				l118.6-68.9c16.97-9.79,27.08-18.1,32.75-26.94c7.44-11.6,7.33-24.22-0.32-37.5l-0.1-0.18l-0.11-0.17
				c-10.52-16.58-28.67-32.89-49.8-44.74C2033.44,202.83,2007.41,195.73,1982.13,195.73L1982.13,195.73z M1923.43,333.56
				c0.59-13.53,5.58-26.63,14.45-37.35c12.1-14.62,29.9-23.01,48.83-23.01c10.31,0,19.26,2.45,27.86,7.77L1923.43,333.56
				L1923.43,333.56z"/>
		</g>
		<g>
			<path class="st2" d="M2896.56,560.35V236.2h74.64v11.04c11.13-8.39,31.56-17.9,56.01-17.9c32.34,0,63.01,12.89,86.38,36.29
				c23.45,23.49,36.37,54.45,36.37,87.19c0,32.74-12.92,63.7-36.37,87.18c-23.36,23.39-54.04,36.27-86.38,36.27
				c-24.44,0-44.88-9.49-56.01-17.86v101.92H2896.56z M3025.02,297.28c-30.89,0-54.18,23.88-54.18,55.55
				c0,31.66,23.29,55.54,54.18,55.54c30.79,0,54.91-24.39,54.91-55.54C3079.93,321.69,3055.81,297.28,3025.02,297.28z"/>
			<path class="st0" d="M3027.2,234.24c63.97,0,117.85,53.42,117.85,118.59c0,65.19-53.88,118.56-117.85,118.56
				c-30.67,0-54.64-15.68-59.77-23.29h-1.13v107.35h-64.85V241.1h64.85v16.49h1.13C2972.56,249.96,2996.53,234.24,3027.2,234.24
				 M3025.02,413.26c33.88,0,59.8-27.11,59.8-60.43s-25.93-60.44-59.8-60.44c-33.98,0-59.08,26.72-59.08,60.44
				C2965.94,386.58,2991.04,413.26,3025.02,413.26 M3027.2,224.46c-19.92,0-38.22,6.17-51.11,13.62v-6.76h-9.79h-64.85h-9.79v9.79
				v314.36v9.79h9.79h64.85h9.79v-9.79v-87.86c12.9,7.44,31.2,13.59,51.11,13.59c16.98,0,33.55-3.41,49.26-10.15
				c15.15-6.5,28.81-15.77,40.58-27.56c24.37-24.4,37.8-56.59,37.8-90.64c0-17.23-3.43-34.01-10.2-49.87
				c-6.51-15.24-15.79-28.96-27.59-40.78c-11.77-11.79-25.43-21.07-40.58-27.57C3060.75,227.87,3044.17,224.46,3027.2,224.46
				L3027.2,224.46z M3025.02,403.48c-28.1,0-49.29-21.77-49.29-50.64c0-28.88,21.19-50.66,49.29-50.66
				c28.05,0,50.02,22.25,50.02,50.66C3075.04,381.23,3053.07,403.48,3025.02,403.48L3025.02,403.48z"/>
		</g>
		<g>
			<path class="st2" d="M2041.13,196.43c-0.58,0-1.15-0.09-1.7-0.26l-0.16-0.05l-0.15-0.06c-2.43-0.95-3.9-3.51-3.5-6.09
				l11.21-80.73c0.37-2.92,2.85-5.11,5.82-5.11c0.65,0,1.3,0.11,1.92,0.32l31.73,11.56c1.61,0.57,2.9,1.85,3.5,3.5
				c0.6,1.67,0.43,3.5-0.48,5.03l-43.44,69.23C2044.88,195.42,2043.07,196.43,2041.13,196.43
				C2041.13,196.43,2041.13,196.43,2041.13,196.43z"/>
			<path class="st0" d="M2052.65,109.03c0.11,0,0.22,0.02,0.33,0.06l31.65,11.53c0.57,0.2,0.81,0.89,0.49,1.43l-43.4,69.15
				c-0.13,0.22-0.36,0.34-0.6,0.34c-0.08,0-0.15-0.01-0.23-0.04c-0.3-0.12-0.49-0.46-0.44-0.78l11.22-80.85
				C2051.74,109.37,2052.18,109.03,2052.65,109.03 M2052.65,99.24c-5.43,0-9.98,4.01-10.67,9.36l-11.21,80.75
				c-0.68,4.79,2.06,9.51,6.58,11.27l0.3,0.12l0.31,0.1c1.03,0.32,2.09,0.49,3.17,0.49c3.62,0,7.02-1.9,8.91-4.97l43.37-69.11
				l0.06-0.1l0.06-0.1c1.66-2.79,1.97-6.14,0.87-9.19c-1.09-3.01-3.44-5.35-6.45-6.44l-31.63-11.52l-0.09-0.03l-0.09-0.03
				C2055.03,99.44,2053.85,99.24,2052.65,99.24L2052.65,99.24z"/>
		</g>
		<g>
			<path class="st2" d="M2014.27,193.59c-2.32,0-4.43-1.47-5.24-3.66L1981,113.24c-0.62-1.65-0.45-3.54,0.47-5.06
				c0.93-1.54,2.47-2.54,4.24-2.77l33.31-4.69c0.29-0.04,0.56-0.06,0.82-0.06c1.64,0,3.22,0.69,4.32,1.89
				c1.1,1.19,1.66,2.81,1.53,4.44l-5.83,81.52c-0.25,2.54-2.19,4.6-4.71,5C2014.83,193.57,2014.55,193.59,2014.27,193.59z"/>
			<path class="st0" d="M2019.84,105.56c0.56,0,1.02,0.46,0.97,1.04l-5.82,81.44c-0.03,0.34-0.29,0.59-0.61,0.64
				c-0.04,0.01-0.07,0.01-0.11,0.01c-0.29,0-0.55-0.18-0.65-0.46l-28.04-76.7c-0.22-0.56,0.15-1.2,0.76-1.27l33.35-4.69
				C2019.75,105.57,2019.79,105.56,2019.84,105.56 M2019.84,95.78c-0.48,0-0.97,0.03-1.45,0.1l-0.03,0l-0.03,0l-33.3,4.68
				c-3.2,0.43-6.09,2.32-7.76,5.09c-1.68,2.79-2,6.24-0.87,9.28l28.02,76.65c1.53,4.13,5.48,6.89,9.84,6.89
				c0.52,0,1.05-0.04,1.57-0.12l0.03,0l0.03,0c4.73-0.75,8.36-4.59,8.82-9.36l0.01-0.13l0.01-0.13l5.82-81.43
				c0.22-2.96-0.81-5.89-2.81-8.07C2025.73,97.04,2022.84,95.78,2019.84,95.78L2019.84,95.78z"/>
		</g>
		<g>
			<path class="st2" d="M2760.51,476.29c-68.39,0-124.03-55.37-124.03-123.44c0-68.11,55.64-123.52,124.03-123.52
				c68.38,0,124.01,55.41,124.01,123.52C2884.52,420.91,2828.89,476.29,2760.51,476.29z M2760.51,297.84
				c-29.7,0-53.86,24.72-53.86,55.1c0,30.38,24.16,55.1,53.86,55.1c29.69,0,53.85-24.72,53.85-55.1
				C2814.35,322.56,2790.2,297.84,2760.51,297.84z"/>
			<path class="st0" d="M2760.51,234.23c65.81,0,119.12,53.24,119.12,118.63c0,65.37-53.3,118.54-119.12,118.54
				c-65.83,0-119.13-53.17-119.13-118.54C2641.38,287.46,2694.68,234.23,2760.51,234.23 M2760.51,412.92
				c32.39,0,58.74-26.91,58.74-59.99s-26.35-59.99-58.74-59.99c-32.43,0-58.76,26.91-58.76,59.99S2728.08,412.92,2760.51,412.92
				 M2760.51,224.44c-71.09,0-128.92,57.61-128.92,128.41c0,70.76,57.83,128.33,128.92,128.33c71.08,0,128.9-57.57,128.9-128.33
				C2889.41,282.05,2831.59,224.44,2760.51,224.44L2760.51,224.44z M2760.51,403.14c-27,0-48.97-22.52-48.97-50.2
				c0-27.68,21.97-50.2,48.97-50.2c26.99,0,48.95,22.52,48.95,50.2C2809.46,380.62,2787.5,403.14,2760.51,403.14L2760.51,403.14z"/>
		</g>
		<g>
			<path class="st2" d="M2063.55,211.54c-1.63,0-3.17-0.7-4.23-1.92c-1.75-2.02-1.85-4.9-0.25-7.03l47.8-66.06
				c1.12-1.53,2.89-2.43,4.76-2.43c1.67,0,3.27,0.72,4.38,1.96l22.53,25.03c1.18,1.32,1.69,3.05,1.44,4.77
				c-0.26,1.73-1.26,3.24-2.75,4.16l-71,40.85l-0.13,0.06C2065.31,211.33,2064.43,211.54,2063.55,211.54L2063.55,211.54z"/>
			<path class="st0" d="M2111.63,138.99c0.27,0,0.53,0.11,0.72,0.32l22.55,25.05c0.41,0.46,0.29,1.16-0.24,1.49l-70.76,40.71
				c-0.11,0.06-0.24,0.09-0.36,0.09c-0.2,0-0.4-0.08-0.54-0.24c-0.22-0.25-0.24-0.61-0.03-0.88l47.85-66.13
				C2111.03,139.13,2111.33,138.99,2111.63,138.99 M2111.63,129.21c-3.42,0-6.67,1.65-8.69,4.41l-0.02,0.02l-0.02,0.02l-47.83,66.1
				c-2.91,3.97-2.7,9.32,0.54,13.05c2,2.3,4.89,3.62,7.94,3.62c1.63,0,3.27-0.39,4.73-1.12l0.26-0.13l0.25-0.14l70.76-40.71
				l0.12-0.07l0.11-0.07c2.73-1.67,4.57-4.45,5.04-7.61c0.47-3.16-0.48-6.33-2.6-8.72l-0.02-0.02l-0.02-0.02l-22.54-25.03
				C2117.6,130.51,2114.69,129.21,2111.63,129.21L2111.63,129.21z"/>
		</g>
		<g>
			<path class="st2" d="M2387.67,469.42V145.27h74.65v103.71c14.33-12.4,34.15-19.56,55.06-19.56
				c51.57,0,107.08,36.07,107.08,115.25v124.67h-74.68V349.41c0-48.34-34.97-50.79-41.98-50.79c-12.78,0-23.72,4.56-31.61,13.19
				c-9.07,9.91-13.86,25.13-13.86,44.02v113.59H2387.67z"/>
			<path class="st0" d="M2457.43,150.17v110.07h0.69c13.25-16.04,34.97-25.93,59.26-25.93c50.3,0,102.19,35.26,102.19,110.36v119.77
				h-64.9V349.41c0-43.92-28.29-55.68-46.87-55.68c-26.77,0-50.37,18.7-50.37,62.1v108.7h-64.87V150.17H2457.43 M2467.21,140.38
				h-9.79h-64.87h-9.79v9.79v314.36v9.79h9.79h64.87h9.79v-9.79v-108.7c0-17.65,4.35-31.73,12.58-40.72
				c8.77-9.59,20.07-11.6,28-11.6c4.21,0,14.95,0.86,23.87,8.87c8.77,7.87,13.22,20.33,13.22,37.03v115.03v9.79h9.79h64.9h9.79
				v-9.79V344.67c0-37.35-12.2-68.63-35.29-90.45c-20.26-19.15-47.49-29.69-76.68-29.69c-13.17,0-26.21,2.69-37.73,7.79
				c-4.38,1.94-8.54,4.22-12.44,6.81v-88.95V140.38L2467.21,140.38z"/>
		</g>
		<g>
			<path class="st2" d="M2255.03,478.67c-40.75,0-86.84-22.93-117.42-58.41l-3.54-4.11l64.44-44.96l2.88,2.56
				c15.38,13.64,33.61,28.19,55.38,28.19c16.21,0,30.43-11.73,30.43-25.1c0-18.33-17.44-24.94-53.72-36.99l-1.15-0.38
				c-28.38-9.42-50.55-23.68-65.9-42.37c-14.35-17.48-21.93-38.3-21.93-60.2c0-55.68,49.63-100.99,110.64-100.99
				c20.05,0,40.96,5.49,60.47,15.87c17.8,9.47,33.68,22.48,45.93,37.61l3.31,4.09l-60.91,42.39l-4.34-3.59
				c-11.26-9.34-24.03-19.92-45.45-19.92c-21.8,0-31.73,12.2-31.73,23.53c0,17.41,18.31,24.37,50.66,35.16l0.95,0.32
				c32.35,10.78,56.58,25.93,72.01,45.03c13.55,16.78,20.42,36.62,20.42,58.97c0,26.19-11.31,52.27-31.03,71.55
				C2314.5,467.4,2285.95,478.67,2255.03,478.67z"/>
			<path class="st0" d="M2255.15,140.8c41.07,0,79.86,23.58,102.59,51.67l-53.54,37.27c-11.51-9.5-25.84-22.26-50.05-22.26
				c-23.78,0-36.63,13.82-36.63,28.42c0,22.01,23.75,29.71,54.96,40.12c67.23,22.4,89.09,60.39,89.09,99.37
				c0,50.28-43.31,98.39-106.54,98.39c-40.64,0-85.41-23.87-113.71-56.71l56.83-39.65c15.04,13.33,34.62,29.42,58.62,29.42
				c19.43,0,35.33-14.25,35.33-29.99c0-22.92-22.4-30.11-58.22-42.01c-57.12-18.96-84.48-57.29-84.48-97.93
				C2149.4,182.59,2198.27,140.8,2255.15,140.8 M2255.15,131.01c-30.24,0-58.91,10.71-80.72,30.17
				c-22.45,20.02-34.82,46.91-34.82,75.71c0,23.05,7.97,44.94,23.04,63.31c15.94,19.42,38.87,34.2,68.14,43.91l1.15,0.38
				c37.31,12.39,50.36,18.01,50.36,32.34c0,4.74-2.55,9.66-6.99,13.5c-4.94,4.27-11.7,6.71-18.55,6.71
				c-20.05,0-37.42-13.91-52.13-26.96l-5.77-5.11l-6.32,4.41l-56.83,39.65l-8.89,6.2l7.08,8.21c14.99,17.39,34.08,32.27,55.21,43.01
				c22,11.19,44.8,17.1,65.92,17.1c32.2,0,61.97-11.76,83.82-33.13c20.66-20.19,32.5-47.55,32.5-75.05
				c0-23.5-7.24-44.38-21.51-62.05c-16.03-19.84-41.02-35.52-74.27-46.6l-0.95-0.32c-14.92-4.98-27.8-9.28-36.5-14.63
				c-9.51-5.85-10.82-11.1-10.82-15.89c0-8.98,8.4-18.64,26.84-18.64c19.66,0,31.7,9.98,42.33,18.79l1.49,1.23l5.73,4.73l6.09-4.24
				l53.54-37.27l8.64-6.01l-6.62-8.18c-12.66-15.64-29.06-29.07-47.43-38.85C2297.7,136.7,2275.99,131.01,2255.15,131.01
				L2255.15,131.01z"/>
		</g>
	</g>
</g>
</svg>
