<?xml version="1.0" encoding="utf-8"?>
<!-- Generator: Adobe Illustrator 26.3.1, SVG Export Plug-In . SVG Version: 6.00 Build 0)  -->
<svg version="1.1" id="Layer_1" xmlns="http://www.w3.org/2000/svg" xmlns:xlink="http://www.w3.org/1999/xlink" x="0px" y="0px"
	 viewBox="0 0 3839 1875.9" style="enable-background:new 0 0 3839 1875.9;" xml:space="preserve">
<style type="text/css">
	.st0{fill:#FFFFFF;}
	.st1{fill:#A19FA3;}
</style>
<g>
	<g>
		<g>
			<path class="st0" d="M2847.3,472.8c-31.9,0-62.7-6-91.7-17.8c-28-11.4-53.3-27.8-75.2-48.8c-21.7-20.7-38.8-45.2-50.9-72.7
				c-12.5-28.4-18.8-58.5-18.8-89.4c0-31,6.3-61.1,18.8-89.5c12-27.3,29.1-51.8,50.9-72.8c21.6-20.9,46.9-37.3,75.2-48.9
				c28.9-11.9,59.8-17.9,91.8-17.9c65,0,125.7,23.4,170.9,65.8c45.6,43,70.6,101,70.6,163.3C3088.8,372.3,2982.7,472.8,2847.3,472.8
				z"/>
			<path class="st0" d="M2847.3,29.5c61.2,0,118.4,22,160.8,61.8c42.5,40.2,66,94.3,66,152.5c0,120.1-99.6,214.2-226.8,214.2
				c-29.9,0-58.9-5.6-86.2-16.7c-26.4-10.7-50.1-26.2-70.5-45.8c-20.5-19.6-36.4-42.5-47.7-68c-11.6-26.5-17.5-54.5-17.5-83.5
				c0-29,5.9-57.1,17.5-83.6c11.2-25.5,27.3-48.4,47.7-68.1s44.1-35.1,70.5-45.9C2788.4,35.2,2817.5,29.5,2847.3,29.5 M2847.3,0
				c-33.9,0-66.7,6.4-97.4,19.1c-30,12.3-56.8,29.8-79.8,52c-23.2,22.4-41.4,48.4-54.2,77.5c-13.3,30.3-20,62.4-20,95.5
				c0,33,6.7,65.1,20,95.4c12.9,29.3,31.2,55.4,54.3,77.5c23.2,22.3,50,39.7,79.8,51.8c30.8,12.5,63.5,18.9,97.3,18.9
				c69.1,0,133.5-24.9,181.3-70.1c48.3-45.6,75-107.3,75-173.6c0-66.4-26.7-128.2-75.2-174c0,0,0,0-0.1-0.1
				C2980.4,24.8,2916.1,0,2847.3,0L2847.3,0z"/>
		</g>
		<g>
			<path class="st0" d="M2660.8,1848.1c-8.2,0-14.8-6.6-14.8-14.8v-1190c0-8.2,6.6-14.8,14.8-14.8h381.2c8.2,0,14.8,6.6,14.8,14.8
				v1190c0,8.2-6.6,14.8-14.8,14.8H2660.8z"/>
			<path class="st0" d="M3042.1,643.3v9.8v1170.4v9.7h-9.7h-361.7h-9.7v-9.7V653.1v-9.7h9.7h361.7H3042.1 M3042.1,613.8h-9.7h-361.7
				h-9.7c-16.3,0-29.5,13.2-29.5,29.5v9.7v1170.5v9.7c0,16.3,13.2,29.5,29.5,29.5h9.7h361.7h9.7c16.3,0,29.5-13.2,29.5-29.5v-9.7
				V653.2v-9.8C3071.6,627,3058.4,613.8,3042.1,613.8L3042.1,613.8z"/>
		</g>
		<g>
			<path class="st0" d="M3582.8,472.9c-130.4,0-236.5-102.7-236.5-228.9c0-126.4,106.1-229.2,236.5-229.2
				c135.4,0,241.4,100.7,241.4,229.2C3824.2,372.4,3718.2,472.9,3582.8,472.9z"/>
			<path class="st0" d="M3582.8,29.5c127.1,0,226.7,94.2,226.7,214.4c0,120.1-99.5,214.2-226.7,214.2
				c-122.3,0-221.7-96.1-221.7-214.2C3361.1,125.7,3460.5,29.5,3582.8,29.5 M3582.8,0c-138.6,0-251.3,109.5-251.3,244
				c0,134.4,112.7,243.7,251.3,243.7c69.1,0,133.4-24.9,181.3-70.1c48.3-45.6,74.9-107.3,74.9-173.6c0-66.3-26.6-128.1-74.9-173.8
				C3716.2,24.9,3651.9,0,3582.8,0L3582.8,0z"/>
		</g>
		<g>
			<path class="st0" d="M3396.1,1848.1c-8.2,0-14.8-6.6-14.8-14.8v-1190c0-8.2,6.6-14.8,14.8-14.8h381.4c8.2,0,14.8,6.6,14.8,14.8
				v1190c0,8.2-6.6,14.8-14.8,14.8H3396.1z"/>
			<path class="st0" d="M3777.6,643.3v9.8v1170.4v9.7h-9.7h-361.9h-9.7v-9.7V653.1v-9.7h9.7h361.9H3777.6 M3777.6,613.8h-9.7h-361.9
				h-9.7c-16.3,0-29.5,13.2-29.5,29.5v9.7v1170.5v9.7c0,16.3,13.2,29.5,29.5,29.5h9.7h361.9h9.7c16.3,0,29.5-13.2,29.5-29.5v-9.7
				V653.2v-9.8C3807.1,627,3793.9,613.8,3777.6,613.8L3777.6,613.8z"/>
		</g>
		<g>
			<path class="st0" d="M1793.6,1861.1c-78,0-143.8-26.3-195.6-78.3c-38.8-39-69.2-91.7-90.2-156.8
				c-24.7-77-159.8-571.4-247.7-894.2c-180.8,664.4-234.6,853.5-247.6,894.2c-21.2,65.8-52,119-91.5,158.1
				c-51.6,51.1-116.9,76.9-194.3,76.9c-36,0-70.6-6.3-102.7-18.8c-30.4-11.9-58.5-29.2-83.7-51.3c-46.4-40.9-82.5-97.9-104.1-164.9
				C386.6,1473.8,22.2,156.9,18.7,144.3L15.3,132c-1.2-4.4-0.3-9.2,2.5-12.9c2.8-3.7,7.1-5.8,11.8-5.8h402.7c6.7,0,12.5,4.5,14.3,11
				c0,0,2,7.5,2,7.5l293.7,1151.6C891.9,709.8,978.8,382,1000.5,308.6c10.2-34.6,23.7-65.4,40-91.7c16.2-26.2,35.7-48.4,58-65.8
				c22-17.2,47-30.2,74.4-38.6c26.5-8.1,55.8-12.3,87.1-12.3c31.6,0,60.9,4.1,87.1,12.2c27.3,8.4,52.4,21.4,74.4,38.6
				c22.1,17.3,41.6,39.4,58,65.8c16.2,26,29.7,56.8,40,91.7c31.1,104.1,190.7,715.1,258.3,974.6l293.7-1151.4l1.9-7.4
				c1.7-6.6,7.6-11.1,14.3-11.1h402.7c4.6,0,9,2.2,11.8,5.8c2.8,3.7,3.7,8.4,2.5,12.9l-3.4,12.4c-3.5,12.6-367.5,1329.3-417,1481.8
				c-21.8,67-57.8,124-104.2,164.9c-25.4,22.3-53.5,39.6-83.7,51.3C1864.1,1854.8,1829.6,1861.1,1793.6,1861.1z"/>
			<path class="st0" d="M1260,115c29.9,0,57.8,3.8,82.7,11.5c25.7,7.9,49.1,20.1,69.6,36.1c20.9,16.3,39.2,37.2,54.5,61.9
				c15.6,24.9,28.5,54.5,38.4,88.1c34.7,116.1,227.2,855.2,272.6,1029.6l307.9-1206.9l1.9-7.4h7.6h382.2h12.9l-3.4,12.4
				c-3.6,13.3-367.5,1329-416.8,1481.2c-21,64.5-55.5,119.2-99.9,158.3c-24,21.2-50.6,37.5-79.3,48.6
				c-30.4,11.8-63.2,17.8-97.4,17.8c-164.5,0-238.6-122.3-271.8-224.9c-29.1-91-217.1-781.9-261.7-945.9
				c-44.6,164-232.5,854.9-261.7,945.9c-20.5,63.6-50.1,114.8-87.8,152.1c-48.7,48.2-110.7,72.7-183.9,72.7c-34.3,0-67-6-97.4-17.8
				c-28.7-11.2-55.3-27.6-79.3-48.6c-44.4-39.1-79-93.8-99.8-158.3C400.7,1469.4,36.6,153.7,33,140.4L29.5,128h12.9h382.2h7.6l2,7.4
				l307.9,1207c45.5-174.4,238.2-913.5,272.5-1029.6c9.9-33.6,22.9-63.2,38.4-88.1c15.4-24.8,33.7-45.6,54.5-61.9
				c20.5-16,43.9-28.3,69.6-36.1C1202.2,118.9,1230.1,115,1260,115 M2490.4,128L2490.4,128 M1260,85.5c-32.8,0-63.6,4.3-91.5,12.9
				c-29.1,8.9-55.7,22.8-79.2,41.1c-23.6,18.5-44.3,41.9-61.4,69.6c-17,27.4-31,59.4-41.6,95.3c-21,71.1-103,380.3-243.9,919.8
				L462.8,128.1c0-0.1-0.1-0.2-0.1-0.3l-2-7.4c-3.4-12.9-15.2-21.9-28.5-21.9h-7.6H42.4H29.5c-9.2,0-17.9,4.3-23.5,11.7
				c-5.6,7.3-7.4,16.9-4.9,25.8l3.4,12.3l0,0c3.5,12.6,368,1330,417.6,1482.4c22.5,69.5,60,128.7,108.4,171.4
				c26.5,23.3,56.1,41.5,88,54c0,0,0.1,0,0.1,0c33.9,13.2,70.2,19.8,108.1,19.8c40.2,0,77.9-6.8,112-20.3
				c34.4-13.6,65.6-34.1,92.7-60.9c41.2-40.8,73.2-96,95.2-164.1c18-56.1,98.6-346.6,233.6-842.5
				c87.6,321.5,210.2,769.3,233.6,842.4c0,0,0,0.1,0,0.1c21.8,67.3,53.3,122,93.8,162.7c25.7,25.8,55,45.8,87.3,59.6
				c35.9,15.3,75.8,23.1,118.8,23.1c37.8,0,74.2-6.7,108.1-19.8c31.8-12.3,61.4-30.5,88.1-54c48.4-42.6,85.9-101.8,108.5-171.4
				C2147.7,1478,2512,160.9,2515.4,148.2l3.2-11.6c0.8-2.7,1.3-5.6,1.3-8.7c0-16.3-13.2-29.5-29.5-29.5c0,0,0,0-0.1,0c0,0,0,0,0,0h0
				h-12.9h-382.2h-7.6c-13.5,0-25.3,9.2-28.6,22.3l-1.9,7.3h0L1777.6,1224c-73.6-282.2-214.9-822.3-244-919.7
				c-10.7-36.1-24.7-68.2-41.6-95.3c-17.3-27.8-37.9-51.2-61.4-69.6c-23.4-18.4-50.1-32.2-79.2-41.1
				C1323.8,89.8,1293,85.5,1260,85.5L1260,85.5z"/>
		</g>
	</g>
	<g>
		<g>
			<path class="st1" d="M2847.2,453.2c-119.5,0-216.8-93.8-216.8-209.2c0-115.5,97.3-209.5,216.9-209.5
				c124.4,0,221.7,92.1,221.7,209.5C3069,361.4,2971.7,453.2,2847.2,453.2z"/>
			<path class="st0" d="M2847.3,39.3c121.5,0,216.9,89.8,216.9,204.6c0,114.7-95.4,204.3-217,204.3c-116.9,0-211.9-91.5-211.9-204.3
				C2635.3,131.1,2730.3,39.3,2847.3,39.3 M2847.3,29.5c-29.8,0-58.9,5.6-86.2,16.8c-26.4,10.8-50.1,26.2-70.5,45.9
				c-20.4,19.7-36.4,42.6-47.7,68.1c-11.6,26.5-17.5,54.5-17.5,83.6c0,28.9,5.9,57,17.5,83.5c11.2,25.5,27.2,48.4,47.7,68
				c20.4,19.6,44.1,35.1,70.5,45.8c27.3,11.1,56.2,16.7,86.2,16.7c127.1,0,226.8-94,226.8-214.2c0-58.2-23.4-112.3-66-152.5
				C2965.6,51.5,2908.5,29.5,2847.3,29.5L2847.3,29.5z"/>
		</g>
		<g>
			<rect x="2665.6" y="648.3" class="st1" width="371.5" height="1180.4"/>
			<path class="st0" d="M3032.3,653.2v1170.5h-361.7V653.2H3032.3 M3042.1,643.3h-9.7h-361.7h-9.7v9.7v1170.5v9.7h9.7h361.7h9.7
				v-9.7V653.2V643.3L3042.1,643.3z"/>
		</g>
		<g>
			<path class="st1" d="M3582.8,453.2c-119.6,0-216.9-93.8-216.9-209.2c0-115.5,97.3-209.5,216.9-209.5
				c124.4,0,221.7,92.1,221.7,209.5C3804.5,361.4,3707.2,453.2,3582.8,453.2z"/>
			<path class="st0" d="M3582.8,39.3c121.7,0,216.9,89.8,216.9,204.6c0,114.7-95.3,204.3-216.9,204.3c-116.9,0-212-91.5-212-204.3
				S3465.9,39.3,3582.8,39.3 M3582.8,29.5c-122.3,0-221.7,96.2-221.7,214.4c0,118.1,99.4,214.2,221.7,214.2
				c127.1,0,226.7-94,226.7-214.2C3809.5,123.8,3709.9,29.5,3582.8,29.5L3582.8,29.5z"/>
		</g>
		<g>
			<rect x="3400.9" y="648.3" class="st1" width="371.7" height="1180.4"/>
			<path class="st0" d="M3767.8,653.2v1170.5h-361.9V653.2H3767.8 M3777.6,643.3h-9.7h-361.9h-9.7v9.7v1170.5v9.7h9.7h361.9h9.7
				v-9.7V653.2V643.3L3777.6,643.3z"/>
		</g>
		<g>
			<path class="st1" d="M1793.4,1841.4c-161.6,0-234.3-120.4-267-221.4c-30.3-94.5-232.7-839.2-266.3-963
				c-33.7,124-235.9,868.5-266.3,963c-32.7,101-105.6,221.4-267.1,221.4c-33.6,0-65.7-5.9-95.6-17.5c-28.1-10.9-54.3-27-77.8-47.8
				c-43.8-38.6-77.8-92.6-98.4-156.2C405.4,1468,41.4,152.3,37.7,139.1l-1.8-6.2h392.6l313.5,1229
				c34.3-131.7,241.4-927.1,277.3-1047.8c19.6-65.8,50.3-115.4,91.4-147.6c39.5-31,89.8-46.7,149.5-46.7s109.9,15.8,149.4,46.7
				c41,32.1,71.7,81.8,91.2,147.6c36,120.7,243.1,916.1,277.4,1047.8l313.4-1229h392.4l-1.7,6.2
				c-3.6,13.3-367.5,1328.9-416.7,1480.9c-20.7,63.7-54.8,117.7-98.6,156.2c-23.5,20.7-49.7,36.8-77.8,47.8
				C1859.1,1835.5,1827,1841.4,1793.4,1841.4z"/>
			<path class="st0" d="M1260,124.8c115.2,0,196.4,58.1,235.9,190.7c39.6,132.4,282.1,1066,282.1,1066l317.2-1243.8h382.1
				c0,0-366.9,1327.1-416.6,1480.7c-39.1,120-130.9,218.1-267.3,218.1c-155.8,0-228.6-113.6-262.4-218.1
				c-33.3-103.8-271-980.3-271-980.3s-237.6,876.5-271,980.3c-33.8,104.5-106.5,218.1-262.5,218.1c-136.4,0-228.2-98.1-267.1-218.1
				C409.5,1464.8,42.4,137.7,42.4,137.7h382.3l317.3,1243.8c0,0,242.7-933.6,282-1066C1063.5,182.9,1144.8,124.8,1260,124.8
				 M1260,115c-29.9,0-57.8,3.9-82.8,11.6c-25.7,7.9-49.1,20.1-69.6,36.1c-20.9,16.3-39.2,37.1-54.5,61.9
				c-15.5,24.9-28.5,54.5-38.4,88.1C980.3,428.9,787.6,1168,742.1,1342.4l-307.9-1207l-2-7.4h-7.6H42.4H29.5l3.4,12.4
				c3.6,13.3,367.8,1329,417.2,1481.1c20.9,64.5,55.4,119.2,99.8,158.3c23.9,21.1,50.6,37.4,79.3,48.6
				c30.4,11.8,63.1,17.8,97.4,17.8c73.3,0,135.2-24.4,183.9-72.7c37.7-37.3,67.3-88.5,87.8-152.1c29.2-91,217.1-781.9,261.7-945.9
				c44.6,164,232.6,854.9,261.7,945.9c33.2,102.6,107.2,224.9,271.8,224.9c34.2,0,67-6,97.4-17.8c28.7-11.1,55.2-27.5,79.3-48.6
				c44.4-39.1,79-93.8,99.9-158.3c49.3-152.1,413.1-1467.9,416.8-1481.2l3.4-12.4h-12.9h-382.2h-7.6l-1.9,7.4l-307.9,1206.9
				c-45.4-174.4-238-913.5-272.6-1029.6c-9.9-33.6-22.8-63.2-38.4-88.1c-15.4-24.7-33.7-45.6-54.5-61.9
				c-20.5-16-43.9-28.3-69.6-36.1C1317.8,118.8,1289.9,115,1260,115L1260,115z"/>
		</g>
	</g>
</g>
</svg>
