<?xml version="1.0" encoding="utf-8"?>
<!-- Generator: Adobe Illustrator 26.3.1, SVG Export Plug-In . SVG Version: 6.00 Build 0)  -->
<svg version="1.1" id="Layer_1" xmlns="http://www.w3.org/2000/svg" xmlns:xlink="http://www.w3.org/1999/xlink" x="0px" y="0px"
	 viewBox="0 0 3839 1574" style="enable-background:new 0 0 3839 1574;" xml:space="preserve">
<style type="text/css">
	.st0{fill:#FFFFFF;}
	.st1{fill:#E31E26;}
</style>
<g>
	<g>
		<g>
			<path class="st0" d="M602,941.9c-71.3,0-138.7-12.2-200.3-36.4c-59.3-23.2-111.6-56.7-155.6-99.6
				c-87.4-85.1-135.6-201-135.6-326.4c0-62.3,11.9-122.5,35.3-179c23.2-55.9,56.8-105.7,99.8-148.2C289.4,109,341.4,75.1,400,51.7
				c61.3-24.5,128-36.9,198.4-36.9h2639c70.4,0,137.2,12.3,198.4,36.7c58.5,23.3,110.5,57.1,154.6,100.3
				c43,42.3,76.7,92.1,100.2,148.1c23.6,56.4,35.7,116.8,36,179.6c0,62.6-12,122.8-35.6,179.2c-23.3,55.6-57.2,105.2-100.5,147.4
				c-44.1,42.9-96.5,76.4-155.6,99.6c-61.6,24.1-128.9,36.4-199.8,36.4H602z"/>
			<path class="st0" d="M3237.3,29.5c68.6,0,133.5,12,193,35.6c56.8,22.6,107.1,55.3,149.7,97.1c41.6,41,74.2,89.2,96.9,143.3
				c22.8,54.6,34.6,113.2,34.9,174c0,60.7-11.6,118.9-34.5,173.4c-22.5,53.8-55.2,101.7-97.2,142.5c-42.7,41.6-93.3,73.9-150.6,96.4
				c-59.9,23.4-125.2,35.3-194.5,35.3H602c-69.5,0-135.1-11.9-195-35.3c-57.3-22.4-108-54.8-150.6-96.4
				c-84.6-82.3-131.1-194.5-131.1-315.9c0-60.5,11.5-118.7,34.2-173.4c22.4-54.1,54.9-102.3,96.5-143.4
				c42.4-41.8,92.8-74.6,149.6-97.4c59.4-23.7,124.3-35.8,192.9-35.8c0.9,0,1.7,0,2.5,0h2634C3235.6,29.5,3236.4,29.5,3237.3,29.5
				 M3237.3,0h-2.5h-2634h-2.5c-72.3,0-140.8,12.8-203.8,37.9c-60.4,24.2-114,59.1-159.3,103.8c-44.4,43.9-79.1,95.4-103,153.1
				C108,353.1,95.7,415.3,95.7,479.5c0,129.4,49.8,249.1,140.1,337c45.4,44.2,99.4,78.8,160.5,102.7
				c63.4,24.8,132.6,37.4,205.7,37.4h2632.9c72.8,0,141.9-12.6,205.2-37.4c60.9-23.9,114.9-58.4,160.5-102.7
				c44.8-43.5,79.7-94.7,103.8-152.2c24.4-58.1,36.8-120.3,36.8-184.8c0,0,0-0.1,0-0.1c-0.3-64.7-12.8-127-37.1-185.2
				c-24.2-57.8-59-109.2-103.4-152.9c-45.4-44.6-99.1-79.4-159.4-103.5C3378.2,12.7,3309.6,0,3237.3,0L3237.3,0z"/>
		</g>
		<g>
			<path class="st0" d="M1388.5,1262.2c-8.2,0-14.8-6.6-14.8-14.8v-39.9h-74.2v39.9c0,8.2-6.6,14.8-14.8,14.8h-90.6
				c-8.2,0-14.8-6.6-14.8-14.8v-232.7c0-8.2,6.6-14.8,14.8-14.8h209.4c24.9,0,48.3,10,65.8,28c17.3,17.8,26.9,41.5,26.9,66.6
				c0,16-4.1,32-11.9,46.1c-2.5,4.7-5.5,9.1-8.9,13.3c13,17.5,14.9,35.2,15.1,42.9c0,0.1,0,0.6,0,0.6v49.9c0,8.2-6.6,14.8-14.8,14.8
				H1388.5z M1373.9,1104.8v-4.5h-74.2v4.5H1373.9z"/>
			<path class="st0" d="M1403.6,1014.7c20.9,0,40.5,8.4,55.1,23.5c14.7,15.1,22.7,35.1,22.7,56.3c0,13.7-3.5,27.2-10,39
				c-4.1,7.6-9.6,14.4-15.9,20.2c17.4,16.4,20.1,35.3,20.3,43.5v0.1v0.1v40.2v9.7h-9.7h-67.8h-9.7v-9.7v-40.2v-1.3
				c0-1.9-1.6-3.4-3.4-3.4h-96.9c-1.9,0-3.4,1.6-3.4,3.4v41.5v9.7h-9.7h-71.1h-9.7v-9.7v-135.1v-78.1v-9.7h9.7h184.5H1403.6
				 M1288.4,1119.6h96.9c1.9,0,3.4-1.6,3.4-3.4V1089c0-1.9-1.6-3.4-3.4-3.4h-96.9c-1.9,0-3.4,1.6-3.4,3.4v27.2
				C1284.9,1118,1286.5,1119.6,1288.4,1119.6 M1403.6,985.2h-15.2h-184.5h-9.7c-16.3,0-29.5,13.2-29.5,29.5v9.7v78.1v135.1v9.7
				c0,16.3,13.2,29.5,29.5,29.5h9.7h71.1h9.7c16.3,0,29.5-13.2,29.5-29.5v-9.7v-15.4h44.7v15.4v9.7c0,16.3,13.2,29.5,29.5,29.5h9.7
				h67.8h9.7c16.3,0,29.5-13.2,29.5-29.5v-9.7v-40.2v-0.1v-0.1c0-0.2,0-0.5,0-0.7c-0.2-7.9-1.9-24.5-12-42.1c1.4-2.2,2.7-4.4,4-6.7
				c8.9-16.3,13.7-34.7,13.7-53.2c0-29-11-56.3-31.1-76.9C1459.6,996.7,1432.5,985.2,1403.6,985.2L1403.6,985.2z"/>
		</g>
		<g>
			<path class="st0" d="M1959.7,1262.2c-8.2,0-14.8-6.6-14.8-14.8v-37.7h-71.6v37.7c0,8.2-6.6,14.8-14.8,14.8h-89.2
				c-8.2,0-14.8-6.6-14.8-14.8v-159.6c0-48.4,39.4-87.8,87.8-87.8h133.5c23.5,0,45.7,9.2,62.3,25.9c16.5,16.6,25.6,38.6,25.5,62
				l0,159.5c0,8.2-6.6,14.8-14.8,14.8H1959.7z M1945.2,1104.7v-2.3h-71.6v2.3H1945.2z"/>
			<path class="st0" d="M1975.9,1014.7c40.4,0,73.2,32.8,73,73.1v17v132.8v9.7h-9.7h-69.7h-9.7v-9.7v-42.7h-101.1v42.7v9.7h-9.7
				h-69.7h-9.7v-9.7v-132.8v-17c0-40.3,32.8-73.1,73.1-73.1h16.1h37.8h25.6h37.8H1975.9 M1858.8,1119.5H1960v-24
				c0-4.3-3.5-7.8-7.8-7.8h-29.9h-25.7h-29.9c-4.3,0-7.8,3.5-7.8,7.8V1119.5 M1975.9,985.2h-16.1H1922h-25.6h-37.8h-16.1
				c-56.6,0-102.6,46-102.6,102.6v17v132.8v9.7c0,16.3,13.2,29.5,29.5,29.5h9.7h69.7h9.7c16.3,0,29.5-13.2,29.5-29.5v-9.7v-13.2h42
				v13.2v9.7c0,16.3,13.2,29.5,29.5,29.5h9.7h69.7h9.7c16.3,0,29.5-13.2,29.5-29.5v-9.7v-132.8v-17c0.1-27.3-10.5-53-29.8-72.4
				C2029.2,995.9,2003.4,985.2,1975.9,985.2L1975.9,985.2z"/>
		</g>
		<g>
			<path class="st0" d="M2077,1262.2c-8.2,0-14.8-6.6-14.8-14.8v-232.7c0-8.2,6.6-14.8,14.8-14.8h91.7c8.2,0,14.8,6.6,14.8,14.8
				v232.7c0,8.2-6.6,14.8-14.8,14.8H2077z"/>
			<path class="st0" d="M2168.7,1014.7v9.7v213.2v9.7h-9.7h-72.2h-9.7v-9.7v-213.2v-9.7h9.7h72.2H2168.7 M2168.7,985.2h-9.7h-72.2
				h-9.7c-16.3,0-29.5,13.2-29.5,29.5v9.7v213.2v9.7c0,16.3,13.2,29.5,29.5,29.5h9.7h72.2h9.7c16.3,0,29.5-13.2,29.5-29.5v-9.7
				v-213.2v-9.7C2198.2,998.4,2185,985.2,2168.7,985.2L2168.7,985.2z"/>
		</g>
		<g>
			<path class="st0" d="M2411.2,1262.2c-8.2,0-14.8-6.6-14.8-14.8v-143.6h-100v143.6c0,8.2-6.6,14.8-14.8,14.8h-88.2
				c-8.2,0-14.8-6.6-14.8-14.8v-232.7c0-8.2,6.6-14.8,14.8-14.8h236.5c22.2,0,43.1,8.7,58.9,24.5c15.7,15.7,24.3,36.6,24.2,58.7
				v164.3c0,8.2-6.6,14.8-14.8,14.8H2411.2z"/>
			<path class="st0" d="M2429.9,1014.7c37.7,0,68.4,30.7,68.3,68.3v12.3v25.8v17.1v99.3v9.7h-9.7H2421h-9.7v-9.7v-99.2v-43.5
				c0-3.2-2.6-5.8-5.8-5.8h-118c-3.2,0-5.8,2.6-5.8,5.8v142.8v9.7h-9.7h-68.7h-9.7v-9.7v-213.2v-9.7h9.7H2429.9 M2429.9,985.2
				h-226.8h-9.7c-16.3,0-29.5,13.2-29.5,29.5v9.7v213.2v9.7c0,16.3,13.2,29.5,29.5,29.5h9.7h68.7h9.7c16.3,0,29.5-13.2,29.5-29.5
				v-9.7v-119h70.5v19.8v99.2v9.7c0,16.3,13.2,29.5,29.5,29.5h9.7h67.5h9.7c16.3,0,29.5-13.2,29.5-29.5v-9.7v-99.3v-17.1v-25.8
				v-12.3c0.1-26-10.1-50.6-28.5-69.1C2480.7,995.4,2456.1,985.2,2429.9,985.2L2429.9,985.2z"/>
		</g>
		<g>
			<path class="st0" d="M2825.4,1262.2c-8.2,0-14.8-6.6-14.8-14.8v-143.7H2776v143.7c0,8.2-6.6,14.8-14.8,14.8h-90.5
				c-8.2,0-14.8-6.6-14.8-14.8v-143.7h-34.7v143.7c0,8.2-6.6,14.8-14.8,14.8h-82.4c-8.2,0-14.8-6.6-14.8-14.8v-232.7
				c0-8.2,6.6-14.8,14.8-14.8h319.9c23.4,0,45.4,9.2,61.8,25.8c16.3,16.5,25.1,38.2,24.8,61.3v160.3c0,8.2-6.6,14.8-14.8,14.8
				H2825.4z"/>
			<path class="st0" d="M2844.1,1014.7c39.9,0,72.4,32.4,71.9,72.3v150.6v9.7h-9.7h-67.5h-3.4h-9.7v-9.7v-133.3v-10.1
				c0-2.9-2.4-5.2-5.2-5.2h-53.8c-2.9,0-5.2,2.4-5.2,5.2v10.1v133.3v9.7h-9.7h-71h-9.7v-9.7v-117.5v-26c0-2.9-2.4-5.2-5.2-5.2h-53.8
				c-2.9,0-5.2,2.4-5.2,5.2v10.1v133.3v9.7h-9.7h-62.9h-9.7v-9.7v-213.2v-9.7h9.7H2844.1 M2844.1,985.2h-310.2h-9.7
				c-16.3,0-29.5,13.2-29.5,29.5v9.7v213.2v9.7c0,16.3,13.2,29.5,29.5,29.5h9.7h62.9h9.7c16.3,0,29.5-13.2,29.5-29.5v-9.7v-119.1
				h5.1v1.7v117.5v9.7c0,16.3,13.2,29.5,29.5,29.5h9.7h71h9.7c16.3,0,29.5-13.2,29.5-29.5v-9.7v-119.1h5.1v119.1v9.7
				c0,16.3,13.2,29.5,29.5,29.5h9.7h3.4h67.5h9.7c16.3,0,29.5-13.2,29.5-29.5v-9.7v-150.5c0.3-27-10-52.5-29.1-71.8
				C2897.1,995.9,2871.5,985.2,2844.1,985.2L2844.1,985.2z"/>
		</g>
		<g>
			<path class="st0" d="M3434.7,1262.2c-8.2,0-14.8-6.6-14.8-14.8v-143.6H3320v143.6c0,8.2-6.6,14.8-14.8,14.8H3217
				c-8.2,0-14.8-6.6-14.8-14.8v-232.7c0-8.2,6.6-14.8,14.8-14.8h236.5c22.3,0,43.2,8.7,58.9,24.5c15.6,15.7,24.2,36.6,24.1,58.7
				v164.3c0,8.2-6.6,14.8-14.8,14.8H3434.7z"/>
			<path class="st0" d="M3453.5,1014.7c37.8,0,68.4,30.7,68.2,68.3v12.3v25.8v17.1v99.3v9.7h-9.7h-67.5h-9.7v-9.7v-99.2v-43.5
				c0-3.2-2.6-5.8-5.8-5.8h-117.9c-3.2,0-5.8,2.6-5.8,5.8v142.8v9.7h-9.7h-68.7h-9.7v-9.7v-213.2v-9.7h9.7H3453.5 M3453.5,985.2
				h-226.8h-9.7c-16.3,0-29.5,13.2-29.5,29.5v9.7v213.2v9.7c0,16.3,13.2,29.5,29.5,29.5h9.7h68.7h9.7c16.3,0,29.5-13.2,29.5-29.5
				v-9.7v-119h70.4v19.8v99.2v9.7c0,16.3,13.2,29.5,29.5,29.5h9.7h67.5h9.7c16.3,0,29.5-13.2,29.5-29.5v-9.7v-99.3v-17.1v-25.8
				v-12.2c0.1-26-10-50.6-28.4-69.1C3504.4,995.4,3479.8,985.2,3453.5,985.2L3453.5,985.2z"/>
		</g>
		<g>
			<path class="st0" d="M530.4,1262.2c-8.2,0-14.8-6.6-14.8-14.8v-143.6h-99.9v143.6c0,8.2-6.6,14.8-14.8,14.8h-88.2
				c-8.2,0-14.8-6.6-14.8-14.8v-232.7c0-8.2,6.6-14.8,14.8-14.8h236.5c22.3,0,43.2,8.7,58.9,24.5c15.6,15.7,24.2,36.6,24.1,58.7
				l0,164.3c0,8.2-6.6,14.8-14.8,14.8H530.4z"/>
			<path class="st0" d="M549.2,1014.7c37.8,0,68.4,30.7,68.2,68.3v12.3v25.8v17.1v99.3v9.7h-9.7h-67.5h-9.7v-9.7v-99.2v-43.5
				c0-3.2-2.6-5.8-5.8-5.8H406.7c-3.2,0-5.8,2.6-5.8,5.8v142.8v9.7h-9.7h-68.7h-9.7v-9.7v-213.2v-9.7h9.7H549.2 M549.2,985.2H322.5
				h-9.7c-16.3,0-29.5,13.2-29.5,29.5v9.7v213.2v9.7c0,16.3,13.2,29.5,29.5,29.5h9.7h68.7h9.7c16.3,0,29.5-13.2,29.5-29.5v-9.7v-119
				h70.4v19.8v99.2v9.7c0,16.3,13.2,29.5,29.5,29.5h9.7h67.5h9.7c16.3,0,29.5-13.2,29.5-29.5v-9.7v-99.3v-17.1v-25.8v-12.2
				c0.1-26-10-50.6-28.4-69.1C600.1,995.4,575.5,985.2,549.2,985.2L549.2,985.2z"/>
		</g>
		<g>
			<path class="st0" d="M102,1262.3c-23.4,0-45.3-9.1-61.7-25.5c-16.5-16.6-25.5-38.5-25.5-61.7v-160.3c0-8.2,6.6-14.8,14.8-14.8
				h258.3c8.2,0,14.8,6.6,14.8,14.8v73.7c0,6.2-3.9,11.6-9.4,13.7c0,0.1,0,0.2,0,0.3v57.1c0,0.2,0,0.3,0,0.5
				c5.4,2.2,9.3,7.5,9.3,13.7v73.6c0,8.2-6.6,14.8-14.8,14.8H102z"/>
			<path class="st0" d="M287.8,1014.7v9.7v54.2v9.8H278l-159-0.1c-3.9,0-7.1,3.2-7.1,7.1c0,3.9,3.2,7.1,7.1,7.1h149.8h9.7v9.7v37.6
				v9.7h-9.7H118.9c-3.9,0-7.1,3.2-7.1,7.1c0,3.9,3.2,7.1,7.1,7.1h159h9.7v9.7v54.2v9.7H278H102c-19.4,0-37.6-7.5-51.3-21.2
				c-13.6-13.7-21.2-31.9-21.2-51.3v-150.5v-9.7h9.7h62.8h175.9H287.8 M287.8,985.2h-9.7H102.1H39.3h-9.7
				c-16.3,0-29.5,13.2-29.5,29.5v9.7V1175c0,27.2,10.6,52.8,29.7,72.1c0,0,0.1,0.1,0.1,0.1c19.2,19.2,44.9,29.8,72.2,29.8h176h9.7
				c16.3,0,29.5-13.2,29.5-29.5v-9.7v-54.2v-9.7c0-8.5-3.6-16.1-9.3-21.5v-2.5v-37.6v-2.3c5.8-5.4,9.4-13.1,9.4-21.6v-9.8v-54.2
				v-9.7C317.3,998.4,304.1,985.2,287.8,985.2L287.8,985.2z"/>
		</g>
		<g>
			<path class="st0" d="M986.8,1262.3c-23.4,0-45.3-9.1-61.7-25.5c-16.5-16.6-25.5-38.5-25.5-61.7v-160.3c0-8.2,6.6-14.8,14.8-14.8
				h258.3c8.2,0,14.8,6.6,14.8,14.8v73.7c0,6.2-3.9,11.6-9.4,13.7c0,0.1,0,0.2,0,0.3v57.1c0,0.1,0,0.3,0,0.4
				c5.5,2.2,9.4,7.5,9.4,13.7v73.6c0,8.2-6.6,14.8-14.8,14.8H986.8z"/>
			<path class="st0" d="M1172.6,1014.7v9.7v54.2v9.8h-9.8l-159-0.1c-3.9,0-7.1,3.2-7.1,7.1c0,3.9,3.2,7.1,7.1,7.1h149.8h9.7v9.7
				v37.6v9.7h-9.7h-149.8c-3.9,0-7.1,3.2-7.1,7.1c0,3.9,3.2,7.1,7.1,7.1h159.1h9.7v9.7v54.2v9.7h-9.7h-176
				c-19.4,0-37.6-7.5-51.3-21.2c-13.6-13.7-21.2-31.9-21.2-51.3v-150.5v-9.7h9.7h62.8h175.9H1172.6 M1172.6,985.2h-9.7H986.9h-62.8
				h-9.7c-16.3,0-29.5,13.2-29.5,29.5v9.7V1175c0,27.2,10.6,52.8,29.7,72.1c0,0,0,0.1,0.1,0.1c19.2,19.2,44.9,29.8,72.2,29.8h176
				h9.7c16.3,0,29.5-13.2,29.5-29.5v-9.7v-54.2v-9.7c0-8.5-3.6-16.2-9.4-21.6v-2.4v-37.6v-2.3c5.8-5.4,9.4-13.1,9.4-21.6v-9.8v-54.2
				v-9.7C1202.1,998.4,1188.9,985.2,1172.6,985.2L1172.6,985.2z"/>
		</g>
		<g>
			<path class="st0" d="M3008.9,1262.3c-23.4,0-45.3-9.1-61.7-25.5c-16.5-16.6-25.5-38.5-25.5-61.7v-160.3c0-8.2,6.6-14.8,14.8-14.8
				h258.2c8.2,0,14.8,6.6,14.8,14.8v73.7c0,6.2-3.9,11.6-9.4,13.7c0,0.1,0,0.2,0,0.3v57.1c0,0.1,0,0.3,0,0.4
				c5.5,2.2,9.4,7.5,9.4,13.7v73.6c0,8.2-6.6,14.8-14.8,14.8H3008.9z"/>
			<path class="st0" d="M3194.6,1014.7v9.7v54.2v9.8h-9.8l-159-0.1c-3.9,0-7.1,3.2-7.1,7.1c0,3.9,3.2,7.1,7.1,7.1h149.8h9.7v9.7
				v37.6v9.7h-9.7h-149.8c-3.9,0-7.1,3.2-7.1,7.1c0,3.9,3.2,7.1,7.1,7.1h159.1h9.7v9.7v54.2v9.7h-9.7h-175.9
				c-19.4,0-37.6-7.5-51.3-21.2c-13.6-13.7-21.2-31.9-21.2-51.3v-150.5v-9.7h9.7h62.8h175.9H3194.6 M3194.6,985.2h-9.7H3009h-62.8
				h-9.7c-16.3,0-29.5,13.2-29.5,29.5v9.7V1175c0,27.2,10.6,52.8,29.7,72.1c0,0,0,0.1,0.1,0.1c19.2,19.2,44.9,29.8,72.2,29.8h175.9
				h9.7c16.3,0,29.5-13.2,29.5-29.5v-9.7v-54.2v-9.7c0-8.5-3.6-16.2-9.4-21.6v-2.4v-37.6v-2.3c5.8-5.4,9.4-13.1,9.4-21.6v-9.8v-54.2
				v-9.7C3224.1,998.4,3210.9,985.2,3194.6,985.2L3194.6,985.2z"/>
		</g>
		<g>
			<path class="st0" d="M3624,1262.2c-8.2,0-14.8-6.6-14.8-14.8v-144.8h-75.5c-8.2,0-14.8-6.6-14.8-14.8v-73.1
				c0-8.2,6.6-14.8,14.8-14.8h275.8c8.2,0,14.8,6.6,14.8,14.8v73.2c0,8.2-6.6,14.8-14.8,14.8h-75.5v144.7c0,8.2-6.6,14.8-14.8,14.8
				H3624z"/>
			<path class="st0" d="M3809.5,1014.7v9.8v53.6v9.7h-9.7h-75.4c-2.9,0-5.1,2.3-5.1,5.1v144.6v9.7h-9.7h-75.7h-9.7v-9.7v-144.7
				c0-2.9-2.3-5.1-5.1-5.1h-75.4h-9.7v-9.7v-53.6v-9.7h9.7h256.3H3809.5 M3809.5,985.2h-9.7h-256.3h-9.7
				c-16.3,0-29.5,13.2-29.5,29.5v9.7v53.6v9.7c0,16.3,13.2,29.5,29.5,29.5h9.7h51v120.3v9.7c0,16.3,13.2,29.5,29.5,29.5h9.7h75.7
				h9.7c16.3,0,29.5-13.2,29.5-29.5v-9.7v-120.2h51h9.7c16.3,0,29.5-13.2,29.5-29.5v-9.7v-53.6v-9.8
				C3839,998.4,3825.8,985.2,3809.5,985.2L3809.5,985.2z"/>
		</g>
		<g>
			<path class="st0" d="M1574.8,1262.2c-8.2,0-14.8-6.6-14.8-14.8v-144.8h-75.5c-8.2,0-14.8-6.6-14.8-14.8v-73.1
				c0-8.2,6.6-14.8,14.8-14.8h275.8c8.2,0,14.8,6.6,14.8,14.8v73.2c0,8.2-6.6,14.8-14.8,14.8h-75.5v144.7c0,8.2-6.6,14.8-14.8,14.8
				H1574.8z"/>
			<path class="st0" d="M1760.3,1014.7v9.8v53.6v9.7h-9.7h-75.4c-2.9,0-5.1,2.3-5.1,5.1v144.6v9.7h-9.7h-75.7h-9.7v-9.7v-144.7
				c0-2.9-2.3-5.1-5.1-5.1h-75.4h-9.7v-9.7v-53.6v-9.7h9.7h256.3H1760.3 M1760.3,985.2h-9.7h-256.3h-9.7
				c-16.3,0-29.5,13.2-29.5,29.5v9.7v53.6v9.7c0,16.3,13.2,29.5,29.5,29.5h9.7h51v120.3v9.7c0,16.3,13.2,29.5,29.5,29.5h9.7h75.7
				h9.7c16.3,0,29.5-13.2,29.5-29.5v-9.7v-120.2h51h9.7c16.3,0,29.5-13.2,29.5-29.5v-9.7v-53.6v-9.8
				C1789.8,998.4,1776.6,985.2,1760.3,985.2L1760.3,985.2z"/>
		</g>
		<g>
			<path class="st0" d="M716.3,1262.2c-8.2,0-14.8-6.6-14.8-14.8v-144.8H626c-8.2,0-14.8-6.6-14.8-14.8v-73.1
				c0-8.2,6.6-14.8,14.8-14.8h275.8c8.2,0,14.8,6.6,14.8,14.8v73.2c0,8.2-6.6,14.8-14.8,14.8h-75.5v144.7c0,8.2-6.6,14.8-14.8,14.8
				H716.3z"/>
			<path class="st0" d="M901.8,1014.7v9.8v53.6v9.7h-9.7h-75.4c-2.9,0-5.1,2.3-5.1,5.1v144.6v9.7h-9.7h-75.7h-9.7v-9.7v-144.7
				c0-2.9-2.3-5.1-5.1-5.1h-75.4H626v-9.7v-53.6v-9.7h9.7h256.3H901.8 M901.8,985.2h-9.7H635.8H626c-16.3,0-29.5,13.2-29.5,29.5v9.7
				v53.6v9.7c0,16.3,13.2,29.5,29.5,29.5h9.7h51v120.3v9.7c0,16.3,13.2,29.5,29.5,29.5h9.7h75.7h9.7c16.3,0,29.5-13.2,29.5-29.5
				v-9.7v-120.2h51h9.7c16.3,0,29.5-13.2,29.5-29.5v-9.7v-53.6v-9.8C931.3,998.4,918.1,985.2,901.8,985.2L901.8,985.2z"/>
		</g>
		<g>
			<path class="st0" d="M1589.2,1558.9c-8.2,0-14.8-6.6-14.8-14.8v-73.4c0-8.2,6.6-14.8,14.8-14.8h19.6c-1.8-1.2-3.5-2.5-5.1-3.8
				c-19.4-15.8-29.3-38.9-29.3-68.9c0-22.3,9.6-44.4,26.3-60.8c17-16.6,39.1-25.8,62.3-25.8h197.1c8.2,0,14.8,6.6,14.8,14.8v73.3
				c0,8.2-6.6,14.8-14.8,14.8h-18.8c2.4,1.6,4.7,3.2,6.9,5c20.5,16.4,31.3,39.8,31.3,67.7c0,24.1-10.1,46.4-28.3,62.9
				c-16.6,15.1-38.6,23.8-60.3,23.8H1589.2z"/>
			<path class="st0" d="M1860.1,1311.6v9.6v53.9v9.7h-9.7h-171.2c-4,0-6.5,4-6.5,7.8c0,1.9,0,5.4,10,5.4h100.1
				c21.7,0,41.6,6.4,56.2,18.1c16.8,13.5,25.8,32.9,25.8,56.1c0,19.8-8.3,38.2-23.4,51.9c-14,12.7-32.4,20-50.4,20h-192.1h-9.7v-9.7
				v-53.9v-9.7h9.7h175.9c4,0,6.5-4,6.5-7.8c0-5.3-11.1-5.4-11.2-5.4h-100.1c-23.9,0-43.1-5.6-56.9-16.8
				c-15.8-12.8-23.8-32.1-23.8-57.4c0-18.3,8-36.6,21.9-50.2c14.2-13.9,32.6-21.6,52-21.6h187.5H1860.1 M1860.1,1282.1h-9.6H1663
				c-27.1,0-52.9,10.7-72.7,30c-19.5,19.1-30.7,45.1-30.7,71.3c0,27,7.4,46.7,16.9,60.7c-10,4.7-16.9,14.9-16.9,26.7v9.7v53.9v9.7
				c0,16.3,13.2,29.5,29.5,29.5h9.7H1791c25.3,0,50.9-10.1,70.2-27.6c21.4-19.3,33.1-45.5,33.1-73.8c0-23.3-6.9-44.5-19.8-61.7
				c9-5.1,15.1-14.7,15.1-25.8v-9.7v-53.9v-9.6C1889.7,1295.3,1876.4,1282.1,1860.1,1282.1L1860.1,1282.1z"/>
		</g>
		<g>
			<path class="st0" d="M1016.1,1558.9c-8.2,0-14.8-6.6-14.8-14.8v-73.4c0-8.2,6.6-14.8,14.8-14.8h19.7c-1.7-1.1-3.3-2.3-4.8-3.5
				c-10.1-7.7-17.8-17.6-23.1-29.3c-5.2-11.8-7.9-25.2-7.9-39.8c0-22.5,10.1-44.8,27.6-61.2c17.5-16.3,40.4-25.3,64.5-25.3h197.2
				c8.2,0,14.8,6.6,14.8,14.8v73.3c0,8.2-6.6,14.8-14.8,14.8h-18.7c5.2,3.3,10,7.1,14.2,11.4c15.7,15.8,23.9,36.9,23.9,61.2
				c0,24.2-10,46.6-28.3,62.9c-17.1,15.3-39.4,23.7-62.7,23.7H1016.1z"/>
			<path class="st0" d="M1289.4,1311.7v9.6v53.9v9.7h-9.7h-171.2c-2.8,0-7.7,3.9-7.7,7.8c0,4.4,6.1,5.4,11.2,5.4h97.9
				c26.7,0,49.6,8.4,64.7,23.4c12.9,13,19.6,30.5,19.6,50.8c0,20-8.3,38.4-23.3,51.9c-14.4,12.8-33.1,19.9-52.9,19.9h-192.1h-9.7
				v-9.7v-53.9v-9.7h9.7h173.6c2.8,0,7.7-3.9,7.7-7.8c0-4.4-6.1-5.4-11.2-5.4H1098c-24.1,0-43.7-5.6-58-16.7
				c-8.1-6.2-14.4-14.2-18.6-23.6c-4.3-9.7-6.6-21.1-6.6-33.8c0-18.4,8.4-36.8,22.9-50.4c14.8-13.8,34.2-21.4,54.4-21.4h187.5
				H1289.4 M1289.4,1282.2h-9.7h-187.5c-27.9,0-54.4,10.4-74.6,29.3c-20.5,19.2-32.3,45.4-32.3,72c0,16.7,3.1,32.1,9.1,45.8
				c0,0,0,0.1,0,0.1c2.4,5.3,5.2,10.4,8.5,15c-9.7,4.8-16.4,14.9-16.4,26.5v9.7v53.9v9.7c0,16.3,13.2,29.5,29.5,29.5h9.7H1218
				c26.9,0,52.7-9.7,72.5-27.4c0,0,0,0,0.1-0.1c21.4-19.2,33.2-45.4,33.2-73.9c0-23.5-6.7-44.6-19.6-61.8
				c8.9-5.1,14.9-14.7,14.9-25.7v-9.7v-53.9v-9.6C1319,1295.4,1305.8,1282.2,1289.4,1282.2L1289.4,1282.2z"/>
		</g>
		<g>
			<path class="st0" d="M2732.3,1559.2c-8.2,0-14.8-6.6-14.8-14.8v-143.7h-34.7v143.7c0,8.2-6.6,14.8-14.8,14.8h-90.5
				c-8.2,0-14.8-6.6-14.8-14.8v-143.7h-34.7v143.6c0,8.2-6.6,14.8-14.8,14.8H2431c-8.2,0-14.8-6.6-14.8-14.8v-232.7
				c0-8.2,6.6-14.8,14.8-14.8h319.9c23.4,0,45.1,9.1,61.2,25.7c16.4,16.3,25.4,38.2,25.4,61.5v160.4c0,8.2-6.6,14.8-14.8,14.8
				H2732.3z"/>
			<path class="st0" d="M2750.9,1311.7c19.3,0,37.4,7.6,50.7,21.3c13.7,13.6,21.2,31.8,21.2,51.1v150.6v9.7h-9.7h-67.5h-3.4h-9.7
				v-9.7v-133.3v-10.1c0-2.9-2.4-5.2-5.2-5.2h-53.8c-2.9,0-5.2,2.4-5.2,5.2v10.1v133.3v9.7h-9.7h-71h-9.7v-9.7v-117.5v-26
				c0-2.9-2.4-5.2-5.2-5.2h-53.8c-2.9,0-5.2,2.4-5.2,5.2v10v133.3v9.7h-9.7h-62.9h-9.7v-9.7v-213.2v-9.7h9.7H2750.9 M2750.9,1282.2
				h-310.2h-9.7c-16.3,0-29.5,13.2-29.5,29.5v9.7v213.2v9.7c0,16.3,13.2,29.5,29.5,29.5h9.7h62.9h9.7c16.3,0,29.5-13.2,29.5-29.5
				v-9.7v-119h5.1v1.7v117.5v9.7c0,16.3,13.2,29.5,29.5,29.5h9.7h71h9.7c16.3,0,29.5-13.2,29.5-29.5v-9.7v-119.1h5.1v119.1v9.7
				c0,16.3,13.2,29.5,29.5,29.5h9.7h3.4h67.5h9.7c16.3,0,29.5-13.2,29.5-29.5v-9.7v-150.6c0-27.2-10.5-52.8-29.7-71.9
				C2803.7,1292.8,2778.2,1282.2,2750.9,1282.2L2750.9,1282.2z"/>
		</g>
		<g>
			<path class="st0" d="M1390.9,1559.1c-8.2,0-14.8-6.6-14.8-14.8v-48h-7.5c-47.2,0-85.6-38.4-85.6-85.6v-99.1
				c0-8.2,6.6-14.8,14.8-14.8h87.2c8.2,0,14.8,6.6,14.8,14.8v80.7h78.6v-80.7c0-8.2,6.6-14.8,14.8-14.8h85.4
				c8.2,0,14.8,6.6,14.8,14.8v99.1c0,47.2-38.4,85.6-85.6,85.6h-8.1v48c0,8.2-6.6,14.8-14.8,14.8H1390.9z"/>
			<path class="st0" d="M1578.5,1311.7v9.8v89.2c0,39-31.8,70.8-70.8,70.8h-22.8v53.1v9.7h-9.7h-74.5h-9.7v-9.7v-53.1h-22.3
				c-39,0-70.8-31.8-70.8-70.8v-11.2v-78.1v-9.7h9.7h66.3h1.5h9.7v9.7v79.6c0,3.4,2.8,6.2,6.2,6.2h95.7c3.4,0,6.2-2.8,6.2-6.2v-79.6
				v-9.7h9.7h0.4h64.1h1.6H1578.5 M1578.5,1282.2h-9.6h-1.6h-64.1h-0.4h-9.7c-16.3,0-29.5,13.2-29.5,29.5v9.7v56.2h-49v-56.2v-9.7
				c0-16.3-13.2-29.5-29.5-29.5h-9.7h-1.5h-66.3h-9.7c-16.3,0-29.5,13.2-29.5,29.5v9.7v78.1v11.2c0,52.9,41.1,96.3,93,100.1v23.8
				v9.7c0,16.3,13.2,29.5,29.5,29.5h9.7h74.5h9.7c16.3,0,29.5-13.2,29.5-29.5v-9.7v-23.8c52.2-3.5,93.6-47,93.6-100.1v-89.2v-9.8
				C1608.1,1295.4,1594.8,1282.2,1578.5,1282.2L1578.5,1282.2z"/>
		</g>
		<g>
			<path class="st0" d="M2222.6,1559.2c-23.4,0-45.3-9.1-61.7-25.5c-16.5-16.6-25.5-38.5-25.5-61.7v-160.4c0-8.2,6.6-14.8,14.8-14.8
				h258.3c8.2,0,14.8,6.6,14.8,14.8v73.8c0,6.2-3.9,11.6-9.4,13.7c0,0.1,0,0.2,0,0.3v57.1c0,0.2,0,0.3,0,0.5
				c5.4,2.2,9.3,7.5,9.3,13.7v73.6c0,8.2-6.6,14.8-14.8,14.8H2222.6z"/>
			<path class="st0" d="M2408.4,1311.6v9.8v54.2v9.8h-9.8l-159-0.1c-3.9,0-7.1,3.2-7.1,7.1c0,3.9,3.2,7.1,7.1,7.1h149.8h9.7v9.7
				v37.6v9.7h-9.7h-149.8c-3.9,0-7.1,3.2-7.1,7.1c0,3.9,3.2,7.1,7.1,7.1h159h9.7v9.7v54.2v9.7h-9.7h-175.9
				c-19.4,0-37.6-7.5-51.3-21.2c-13.6-13.7-21.2-31.9-21.2-51.3v-150.6v-9.7h9.7h62.8h175.9H2408.4L2408.4,1311.6 M2408.4,1282.1
				L2408.4,1282.1h-9.8h-175.9h-62.8h-9.7c-16.3,0-29.5,13.2-29.5,29.5v9.7V1472c0,27.2,10.6,52.8,29.7,72.1c0,0,0,0.1,0.1,0.1
				c19.2,19.2,44.9,29.8,72.2,29.8h175.9h9.7c16.3,0,29.5-13.2,29.5-29.5v-9.7v-54.2v-9.7c0-8.5-3.6-16.1-9.3-21.5v-2.5v-37.6v-2.3
				c5.8-5.4,9.4-13.1,9.4-21.6v-9.8v-54.2v-9.8C2437.9,1295.3,2424.7,1282.1,2408.4,1282.1L2408.4,1282.1z"/>
		</g>
		<g>
			<path class="st0" d="M1957,1558.9c-8.2,0-14.8-6.6-14.8-14.8v-144.7h-75.5c-8.2,0-14.8-6.6-14.8-14.8v-73.1
				c0-8.2,6.6-14.8,14.8-14.8h275.8c8.2,0,14.8,6.6,14.8,14.8v73.1c0,8.2-6.6,14.8-14.8,14.8H2067v144.7c0,8.2-6.6,14.8-14.8,14.8
				H1957z"/>
			<path class="st0" d="M2142.5,1311.6v9.7v53.6v9.7h-9.7h-75.4c-2.9,0-5.1,2.3-5.1,5.1v144.6v9.7h-9.7h-75.7h-9.7v-9.7v-144.6
				c0-2.9-2.3-5.1-5.1-5.1h-75.4h-9.7v-9.7v-53.6v-9.7h9.7h256.3H2142.5 M2142.5,1282.1h-9.7h-256.3h-9.7
				c-16.3,0-29.5,13.2-29.5,29.5v9.7v53.6v9.7c0,16.3,13.2,29.5,29.5,29.5h9.7h51v120.2v9.7c0,16.3,13.2,29.5,29.5,29.5h9.7h75.7
				h9.7c16.3,0,29.5-13.2,29.5-29.5v-9.7v-120.2h51h9.7c16.3,0,29.5-13.2,29.5-29.5v-9.7v-53.6v-9.7
				C2172.1,1295.3,2158.8,1282.1,2142.5,1282.1L2142.5,1282.1z"/>
		</g>
	</g>
	<g>
		<g>
			<g>
				<path class="st0" d="M602,922.3c-68.8,0-133.8-11.8-193.2-35.1C352.1,865,302,833,259.8,791.9
					c-83.7-81.4-129.7-192.4-129.7-312.4c0-119.7,45.9-231,129.3-313.3c41.9-41.5,91.8-73.8,147.9-96.3
					c58.8-23.5,123.1-35.4,191-35.4c0.8,0,1.7,0,2.5,0h2634.1c0.8,0,1.6,0,2.5,0c67.9,0,132.2,11.9,191,35.3
					c56.2,22.4,106,54.7,148.1,96.1c83.5,82.1,129.8,193.5,130.3,313.7c0,119.9-46.2,230.9-130.2,312.4
					c-42.2,41.1-92.4,73.2-149.1,95.3c-59.3,23.2-124.1,35.1-192.7,35.1L602,922.3L602,922.3z"/>
				<path class="st0" d="M3237.3,39.3c276.9,0,463.4,199.9,464.4,440.2c0,239.9-187.5,437.9-466.9,437.9H602
					c-280.7,0-466.9-198-466.9-437.9c0-239.2,186.4-440.2,463.4-440.2c0.8,0,1.7,0,2.5,0H3235C3235.7,39.4,3236.5,39.3,3237.3,39.3
					 M3237.3,29.5L3237.3,29.5c-0.9,0-1.7,0-2.5,0h-2634c-0.8,0-1.6,0-2.5,0c-68.6,0-133.5,12.1-192.9,35.8
					c-56.8,22.7-107.1,55.5-149.6,97.4c-41.6,41.1-74,89.3-96.5,143.4c-22.6,54.6-34.2,112.9-34.2,173.4
					c0,121.4,46.6,233.5,131.2,315.9c42.6,41.6,93.3,73.9,150.6,96.4c59.9,23.4,125.4,35.3,195,35.3h2632.9
					c69.2,0,134.6-11.9,194.5-35.3c57.3-22.4,107.9-54.8,150.6-96.4c41.9-40.8,74.6-88.7,97.2-142.5
					c22.8-54.4,34.5-112.7,34.5-173.4c-0.3-60.8-12-119.3-34.9-174c-22.6-54.1-55.2-102.3-96.9-143.3
					c-42.5-41.7-92.8-74.4-149.7-97.1C3370.8,41.6,3305.9,29.5,3237.3,29.5L3237.3,29.5z"/>
			</g>
			<g>
				<path class="st0" d="M1393.5,1242.6v-46.4c0-4.6-3.7-8.4-8.4-8.4h-96.9c-4.6,0-8.4,3.7-8.4,8.4v46.4H1199v-222.9h204.5
					c40.4,0,73.2,33.6,73.2,74.8c0,23.3-10.5,45-28.5,59.2c19.9,16,22.6,35.5,22.9,43.7v45.3L1393.5,1242.6L1393.5,1242.6z
					 M1288.4,1080.6c-4.6,0-8.4,3.7-8.4,8.4v27.2c0,4.6,3.7,8.4,8.4,8.4h96.9c4.6,0,8.4-3.7,8.4-8.4V1089c0-4.6-3.7-8.4-8.4-8.4
					H1288.4z"/>
				<path class="st0" d="M1403.6,1024.5c37.7,0,68.2,31.3,68.2,69.9c0,24.8-12.8,46.8-31.9,59.1c21.6,14.4,26.1,33.5,26.4,43.9v40.2
					h-67.8v-40.2v-1.3c0-7.3-5.9-13.3-13.3-13.3h-96.9c-7.3,0-13.3,5.9-13.3,13.3v41.5h-71.1v-135.1v-78.1h184.5L1403.6,1024.5
					 M1288.4,1129.4h96.9c7.3,0,13.3-5.9,13.3-13.3V1089c0-7.3-5.9-13.3-13.3-13.3h-96.9c-7.3,0-13.3,5.9-13.3,13.3v27.2
					C1275.1,1123.4,1281.1,1129.4,1288.4,1129.4 M1403.6,1014.7h-15.2h-184.5h-9.7v9.7v78.1v135.1v9.7h9.7h71.1h9.7v-9.7v-41.5
					c0-1.9,1.6-3.4,3.4-3.4h96.9c1.9,0,3.4,1.6,3.4,3.4v1.3v40.2v9.7h9.7h67.8h9.7v-9.7v-40.2v-0.1v-0.1
					c-0.2-8.2-2.9-27.1-20.3-43.5c6.3-5.8,11.7-12.6,15.9-20.2c6.5-11.8,10-25.3,10-39c0-21.3-8.1-41.3-22.7-56.3
					C1444,1023.1,1424.4,1014.7,1403.6,1014.7L1403.6,1014.7z M1288.4,1119.6c-1.9,0-3.4-1.6-3.4-3.4V1089c0-1.9,1.6-3.4,3.4-3.4
					h96.9c1.9,0,3.4,1.6,3.4,3.4v27.2c0,1.9-1.6,3.4-3.4,3.4H1288.4L1288.4,1119.6z"/>
			</g>
			<g>
				<path class="st0" d="M1964.6,1242.6v-52.5h-111v52.5h-79.6v-154.8c0-37.6,30.6-68.1,68.1-68.1h133.6c37.6,0,68.1,30.6,68.1,68.1
					v154.8H1964.6z M1964.7,1124.4v-28.8c0-7-5.7-12.6-12.6-12.6h-85.5c-7,0-12.6,5.7-12.6,12.6v28.8H1964.7z"/>
				<path class="st0" d="M1975.9,1024.5c35,0,63.3,28.4,63.3,63.3v17v132.8h-69.7v-52.5h-120.7v52.5h-69.7v-132.8v-17
					c0-35,28.4-63.3,63.3-63.3h16.1h37.8h25.7h37.8L1975.9,1024.5 M1849.1,1129.3h120.5v-33.8c0-9.7-7.8-17.5-17.5-17.5h-29.9h-25.7
					h-29.9c-9.7,0-17.5,7.8-17.5,17.5L1849.1,1129.3 M1975.9,1014.7h-16.1H1922h-25.6h-37.8h-16.1c-40.3,0-73.1,32.8-73.1,73.1v17
					v132.8v9.7h9.7h69.7h9.7v-9.7v-42.7h101.1v42.7v9.7h9.7h69.7h9.7v-9.7v-132.8v-17C2049.1,1047.5,2016.3,1014.7,1975.9,1014.7
					L1975.9,1014.7z M1858.8,1119.5v-24c0-4.2,3.4-7.8,7.8-7.8h29.9h25.7h29.9c4.2,0,7.8,3.4,7.8,7.8v24H1858.8L1858.8,1119.5z"/>
			</g>
			<g>
				<rect x="2081.8" y="1019.7" class="st0" width="82" height="222.9"/>
				<path class="st0" d="M2158.9,1024.5v213.2h-72.2v-213.2H2158.9 M2168.7,1014.7h-9.7h-72.2h-9.7v9.7v213.2v9.7h9.7h72.2h9.7v-9.7
					v-213.2V1014.7L2168.7,1014.7z"/>
			</g>
			<g>
				<path class="st0" d="M2416.1,1242.6v-147.7c0-5.9-4.8-10.7-10.7-10.7h-117.9c-5.9,0-10.7,4.8-10.7,10.7v147.7h-78.6v-222.9
					h231.7c35.1,0,63.5,28.5,63.5,63.5v159.4H2416.1z"/>
				<path class="st0" d="M2429.9,1024.5c32.4,0,58.6,26.3,58.6,58.6v12.3v25.8v17.1v99.3H2421v-99.3v-43.4c0-8.7-7-15.7-15.7-15.7
					h-117.9c-8.7,0-15.7,7-15.7,15.7v142.8h-68.7v-213.2H2429.9 M2429.9,1014.7h-226.8h-9.7v9.7v213.2v9.7h9.7h68.7h9.7v-9.7v-142.8
					c0-3.2,2.7-5.8,5.8-5.8h118c3.2,0,5.8,2.7,5.8,5.8v43.5v99.2v9.7h9.7h67.5h9.7v-9.7v-99.3v-17.1v-25.8v-12.3
					C2498.4,1045.5,2467.6,1014.7,2429.9,1014.7L2429.9,1014.7z"/>
			</g>
			<g>
				<path class="st0" d="M2830.7,1242.6v-148.3c0-5.6-4.5-10.1-10.1-10.1h-53.8c-5.6,0-10.1,4.5-10.1,10.1v148.3h-80.8v-148.3
					c0-5.6-4.5-10.1-10.1-10.1h-53.8c-5.6,0-10.1,4.5-10.1,10.1v148.3h-72.7v-222.9h315.1c37.1,0,67.3,30.2,67.3,67.3v155.6H2830.7z
					"/>
				<path class="st0" d="M2844.1,1024.5c34.5,0,62.5,28,62.5,62.5v150.6H2839h-3.4v-133.3v-10.1c0-8.3-6.7-15.1-15.1-15.1h-53.8
					c-8.3,0-15.1,6.7-15.1,15.1v10.1v133.3h-71v-117.5v-26c0-8.3-6.7-15.1-15.1-15.1h-53.8c-8.3,0-15.1,6.7-15.1,15.1v10.1v133.3
					h-62.9v-213.2H2844.1 M2844.1,1014.7h-310.2h-9.7v9.7v213.2v9.7h9.7h62.9h9.7v-9.7v-133.3v-10.1c0-2.9,2.4-5.2,5.2-5.2h53.8
					c2.9,0,5.2,2.4,5.2,5.2v26v117.5v9.7h9.7h71h9.7v-9.7v-133.3v-10.1c0-2.9,2.4-5.2,5.2-5.2h53.8c2.9,0,5.2,2.4,5.2,5.2v10.1
					v133.3v9.7h9.7h3.4h67.5h9.7v-9.7V1087C2916.4,1047.1,2883.9,1014.7,2844.1,1014.7L2844.1,1014.7z"/>
			</g>
			<g>
				<path class="st0" d="M3439.7,1242.6v-147.7c0-5.9-4.8-10.7-10.7-10.7h-117.9c-5.9,0-10.7,4.8-10.7,10.7v147.7h-78.6v-222.9
					h231.7c35.1,0,63.5,28.5,63.5,63.5v159.4H3439.7z"/>
				<path class="st0" d="M3453.5,1024.5c32.4,0,58.6,26.3,58.6,58.6v12.3v25.8v17.1v99.3h-67.5v-99.3v-43.4c0-8.7-7-15.7-15.7-15.7
					h-117.9c-8.7,0-15.7,7-15.7,15.7v142.8h-68.7v-213.2H3453.5 M3453.5,1014.7h-226.8h-9.7v9.7v213.2v9.7h9.7h68.7h9.7v-9.7v-142.8
					c0-3.2,2.7-5.8,5.8-5.8h117.9c3.2,0,5.8,2.7,5.8,5.8v43.5v99.2v9.7h9.7h67.5h9.7v-9.7v-99.3v-17.1v-25.8v-12.3
					C3522,1045.5,3491.3,1014.7,3453.5,1014.7L3453.5,1014.7z"/>
			</g>
			<g>
				<path class="st0" d="M535.4,1242.6v-147.7c0-5.9-4.8-10.7-10.7-10.7H406.8c-5.9,0-10.7,4.8-10.7,10.7v147.7h-78.6v-222.9h231.7
					c35.1,0,63.5,28.5,63.5,63.5v159.4H535.4z"/>
				<path class="st0" d="M549.2,1024.5c32.4,0,58.6,26.3,58.6,58.6v12.3v25.8v17.1v99.3h-67.5v-99.3v-43.4c0-8.7-7-15.7-15.7-15.7
					H406.8c-8.7,0-15.7,7-15.7,15.7v142.8h-68.7v-213.2H549.2 M549.2,1014.7H322.5h-9.7v9.7v213.2v9.7h9.7h68.7h9.7v-9.7v-142.8
					c0-3.2,2.7-5.8,5.8-5.8h117.9c3.2,0,5.8,2.7,5.8,5.8v43.5v99.2v9.7h9.7h67.5h9.7v-9.7v-99.3v-17.1v-25.8v-12.3
					C617.6,1045.5,587,1014.7,549.2,1014.7L549.2,1014.7z"/>
			</g>
			<g>
				<path class="st0" d="M102,1242.7c-37.2,0-67.5-30.3-67.5-67.5v-155.5H283v64l-163.9-0.1c-6.6,0-11.9,5.3-11.9,11.9
					c0,6.6,5.3,11.9,11.9,11.9h154.7v47.5H118.9c-6.6,0-11.9,5.3-11.9,11.9c0,6.6,5.3,11.9,11.9,11.9h163.9v64L102,1242.7
					L102,1242.7z"/>
				<path class="st0" d="M278.1,1024.5v54.2l-159-0.1c-9.4,0-16.8,7.5-16.8,16.8c0,9.4,7.5,16.8,16.8,16.8h149.8v37.6H118.9
					c-9.4,0-16.8,7.5-16.8,16.8c0,9.4,7.5,16.8,16.8,16.8h159v54.2H102c-34.7,0-62.7-28.1-62.7-62.7v-150.5h62.8L278.1,1024.5
					 M287.8,1014.7h-9.7h-176H39.3h-9.7v9.7V1175c0,19.4,7.6,37.6,21.2,51.3c13.7,13.7,31.9,21.2,51.3,21.2h176h9.7v-9.7v-54.2v-9.7
					H278h-159c-3.8,0-7.1-3.2-7.1-7.1c0-3.8,3.2-7.1,7.1-7.1h149.8h9.7v-9.7v-37.6v-9.7h-9.7H118.9c-3.8,0-7.1-3.2-7.1-7.1
					c0-3.8,3.2-7.1,7.1-7.1l159,0.1h9.8v-9.8v-54.2V1014.7L287.8,1014.7z"/>
			</g>
			<g>
				<path class="st0" d="M986.8,1242.7c-37.2,0-67.5-30.3-67.5-67.5v-155.5h248.5v64l-163.9-0.1c-6.6,0-11.9,5.3-11.9,11.9
					c0,6.6,5.3,11.9,11.9,11.9h154.7v47.5h-154.8c-6.6,0-11.9,5.3-11.9,11.9c0,6.6,5.3,11.9,11.9,11.9h163.9v64L986.8,1242.7
					L986.8,1242.7z"/>
				<path class="st0" d="M1162.8,1024.5v54.2l-159-0.1c-9.4,0-16.8,7.5-16.8,16.8c0,9.4,7.5,16.8,16.8,16.8h149.8v37.6h-149.9
					c-9.4,0-16.8,7.5-16.8,16.8c0,9.4,7.5,16.8,16.8,16.8h159.1v54.2h-176c-34.7,0-62.7-28.1-62.7-62.7v-150.5h62.8L1162.8,1024.5
					 M1172.6,1014.7h-9.7h-176h-62.8h-9.7v9.7V1175c0,19.4,7.6,37.6,21.2,51.3c13.7,13.7,31.9,21.2,51.3,21.2h176h9.7v-9.7v-54.2
					v-9.7h-9.7h-159.1c-3.8,0-7.1-3.2-7.1-7.1c0-3.8,3.2-7.1,7.1-7.1h149.8h9.7v-9.7v-37.6v-9.7h-9.7h-149.8c-3.8,0-7.1-3.2-7.1-7.1
					c0-3.8,3.2-7.1,7.1-7.1l159,0.1h9.8v-9.8v-54.2V1014.7L1172.6,1014.7z"/>
			</g>
			<g>
				<path class="st0" d="M3008.8,1242.7c-37.2,0-67.5-30.3-67.5-67.5v-155.5h248.5v64l-163.9-0.1c-6.6,0-11.9,5.3-11.9,11.9
					c0,6.6,5.3,11.9,11.9,11.9h154.7v47.5h-154.8c-6.6,0-11.9,5.3-11.9,11.9c0,6.6,5.3,11.9,11.9,11.9h163.9v64L3008.8,1242.7
					L3008.8,1242.7z"/>
				<path class="st0" d="M3184.8,1024.5v54.2l-159-0.1c-9.4,0-16.8,7.5-16.8,16.8c0,9.4,7.5,16.8,16.8,16.8h149.8v37.6h-149.9
					c-9.4,0-16.8,7.5-16.8,16.8c0,9.4,7.5,16.8,16.8,16.8h159v54.2h-175.9c-34.7,0-62.7-28.1-62.7-62.7v-150.5h62.8L3184.8,1024.5
					 M3194.6,1014.7h-9.7H3009h-62.8h-9.7v9.7V1175c0,19.4,7.6,37.6,21.2,51.3c13.7,13.7,31.9,21.2,51.3,21.2h175.9h9.7v-9.7v-54.2
					v-9.7h-9.7h-159.1c-3.8,0-7.1-3.2-7.1-7.1c0-3.8,3.2-7.1,7.1-7.1h149.8h9.7v-9.7v-37.6v-9.7h-9.7h-149.8c-3.8,0-7.1-3.2-7.1-7.1
					c0-3.8,3.2-7.1,7.1-7.1l159,0.1h9.8v-9.8v-54.2V1014.7L3194.6,1014.7z"/>
			</g>
			<g>
				<path class="st0" d="M3628.8,1242.6V1093c0-5.5-4.5-10-10-10h-80.2v-63.4h266v63.4h-80.2c-5.5,0-10,4.5-10,10v149.6H3628.8z"/>
				<path class="st0" d="M3799.7,1024.5v53.6h-75.4c-8.3,0-15,6.7-15,15v144.6h-75.7V1093c0-8.3-6.7-15-15-15h-75.4v-53.6H3799.7
					 M3809.5,1014.7h-9.7h-256.3h-9.7v9.7v53.6v9.7h9.7h75.4c2.9,0,5.1,2.3,5.1,5.1v144.7v9.7h9.7h75.7h9.7v-9.7V1093
					c0-2.9,2.3-5.1,5.1-5.1h75.4h9.7v-9.7v-53.6L3809.5,1014.7L3809.5,1014.7z"/>
			</g>
			<g>
				<path class="st0" d="M1579.5,1242.6V1093c0-5.5-4.5-10-10-10h-80.2v-63.4h266.1v63.4h-80.2c-5.5,0-10,4.5-10,10v149.6H1579.5z"
					/>
				<path class="st0" d="M1750.4,1024.5v53.6H1675c-8.3,0-15,6.7-15,15v144.6h-75.7V1093c0-8.3-6.7-15-15-15H1494v-53.6H1750.4
					 M1760.3,1014.7h-9.7h-256.3h-9.7v9.7v53.6v9.7h9.7h75.4c2.9,0,5.1,2.3,5.1,5.1v144.7v9.7h9.7h75.7h9.7v-9.7V1093
					c0-2.9,2.3-5.1,5.1-5.1h75.4h9.7v-9.7v-53.6V1014.7L1760.3,1014.7z"/>
			</g>
			<g>
				<path class="st0" d="M721.1,1242.6V1093c0-5.5-4.5-10-10-10h-80.2v-63.4H897v63.4h-80.2c-5.5,0-10,4.5-10,10v149.6H721.1z"/>
				<path class="st0" d="M892.1,1024.5v53.6h-75.4c-8.3,0-15,6.7-15,15v144.6H726V1093c0-8.3-6.7-15-15-15h-75.4v-53.6H892.1
					 M901.8,1014.7h-9.7H635.8H626v9.7v53.6v9.7h9.7h75.4c2.9,0,5.1,2.3,5.1,5.1v144.7v9.7h9.7h75.7h9.7v-9.7V1093
					c0-2.9,2.3-5.1,5.1-5.1h75.4h9.7v-9.7v-53.6V1014.7L901.8,1014.7z"/>
			</g>
			<g>
				<path class="st0" d="M1593.8,1539.4v-63.7h180.8c6.3,0,11.4-5.7,11.4-12.6c0-10-14.5-10.3-16-10.3h-100.1
					c-48.9,0-75.9-24.6-75.9-69.4c0-17,7.5-34.1,20.4-46.8c13.3-13,30.5-20.2,48.5-20.2h192.4v63.7h-176.1
					c-6.3,0-11.4,5.7-11.4,12.6c0,2.6,0,10.3,14.9,10.3h100.1c20.5,0,39.4,6,53.1,17c15.7,12.5,24,30.6,24,52.3
					c0,18.3-7.8,35.4-21.9,48.2c-13.1,11.9-30.2,18.7-47.1,18.7L1593.8,1539.4L1593.8,1539.4z"/>
				<path class="st0" d="M1850.4,1321.4v53.9h-171.2c-9.4,0-16.3,8.1-16.3,17.5c0,10.6,8.1,15.3,19.8,15.3h100.1
					c37.2,0,72.2,21.1,72.2,64.5c0,36.2-32.7,62-64.1,62h-192.1v-53.9h175.9c9.4,0,16.3-8.1,16.3-17.5c0-10.6-10.5-15.3-21-15.3
					h-100.1c-40.7,0-71-17.6-71-64.5c0-32.7,29.1-62,64.1-62H1850.4 M1860.2,1311.6h-9.7H1663c-19.4,0-37.8,7.7-52,21.6
					c-13.9,13.6-21.9,31.9-21.9,50.2c0,25.3,8.1,44.6,23.8,57.4c13.8,11.2,33,16.8,56.9,16.8H1770c0.1,0,11.2,0.1,11.2,5.4
					c0,3.7-2.5,7.8-6.5,7.8h-175.9h-9.7v9.7v53.9v9.7h9.7H1791c18,0,36.4-7.3,50.4-20c15.2-13.7,23.4-32.1,23.4-51.9
					c0-23.2-9-42.6-25.8-56.1c-14.7-11.7-34.6-18.1-56.2-18.1h-100.1c-10,0-10-3.5-10-5.4c0-3.7,2.5-7.8,6.5-7.8h171.2h9.7v-9.7
					v-53.9L1860.2,1311.6L1860.2,1311.6z"/>
			</g>
			<g>
				<path class="st0" d="M1020.9,1539.4v-63.7h178.5c5.5,0,12.5-6.1,12.5-12.6c0-9-10-10.3-16-10.3H1098c-23,0-41.6-5.3-54.9-15.7
					c-15.5-11.9-23.3-30-23.3-53.6c0-36.2,33.2-66.9,72.5-66.9h192.4v63.7h-176.1c-5.5,0-12.5,6.1-12.5,12.6c0,9,10,10.3,16,10.3
					h97.9c25.3,0,47.1,7.8,61.1,22c11.9,12,18.2,28.4,18.2,47.4c0,18.5-7.7,35.6-21.7,48.2c-13.4,12-31,18.7-49.5,18.7h-197.1
					V1539.4z"/>
				<path class="st0" d="M1279.6,1321.5v53.9h-171.2c-8.1,0-17.4,8.2-17.4,17.5c0,10.6,9.4,15.3,21,15.3h97.9
					c40.8,0,74.5,21.1,74.4,64.4c0,36.2-31.4,62-66.4,62h-192.1v-53.9h173.6c8.1,0,17.4-8.2,17.4-17.5c0-10.6-9.4-15.3-21-15.3
					h-97.9c-40.8,0-73.4-17.6-73.4-64.4c0-32.7,30.3-62,67.5-62H1279.6 M1289.4,1311.7h-9.7h-187.5c-20.3,0-39.7,7.6-54.4,21.4
					c-14.6,13.6-22.9,32-22.9,50.4c0,12.7,2.3,24,6.6,33.8c4.2,9.5,10.5,17.4,18.6,23.6c14.3,11.1,33.9,16.7,58,16.7h97.9
					c5.1,0,11.2,1,11.2,5.4c0,3.8-4.9,7.8-7.7,7.8h-173.6h-9.7v9.7v53.9v9.7h9.7H1218c19.8,0,38.5-7.1,52.9-19.9
					c15.1-13.5,23.3-31.9,23.3-51.9c0-20.3-6.7-37.8-19.6-50.8c-15.1-15.1-38-23.4-64.7-23.4H1112c-5.1,0-11.2-1-11.2-5.4
					c0-3.8,4.9-7.8,7.7-7.8h171.2h9.7v-9.7v-53.9V1311.7L1289.4,1311.7z"/>
			</g>
			<g>
				<path class="st0" d="M2737.5,1539.5v-148.3c0-5.6-4.5-10.1-10.1-10.1h-53.8c-5.6,0-10.1,4.5-10.1,10.1v148.3h-80.8v-148.3
					c0-5.6-4.5-10.1-10.1-10.1h-53.9c-5.6,0-10.1,4.5-10.1,10.1v148.3h-72.7v-222.9h315.1c18,0,34.9,7,47.7,19.7
					c12.7,12.7,19.8,29.6,19.8,47.7v155.6H2737.5z"/>
				<path class="st0" d="M2750.9,1321.5c34.5,0,62.5,28,62.5,62.5v150.6h-67.5h-3.4v-133.3v-10.1c0-8.3-6.7-15.1-15.1-15.1h-53.8
					c-8.3,0-15.1,6.7-15.1,15.1v10.1v133.3h-71v-117.5v-26c0-8.3-6.7-15.1-15.1-15.1h-53.9c-8.3,0-15.1,6.7-15.1,15.1v10.1v133.3
					h-62.9v-213.2L2750.9,1321.5 M2750.9,1311.7h-310.2h-9.7v9.7v213.2v9.7h9.7h62.9h9.7v-9.7v-133.3v-10c0-2.9,2.4-5.2,5.2-5.2
					h53.8c2.9,0,5.2,2.4,5.2,5.2v26v117.5v9.7h9.7h71h9.7v-9.7v-133.3v-10.1c0-2.9,2.4-5.2,5.2-5.2h53.8c2.9,0,5.2,2.4,5.2,5.2v10.1
					v133.3v9.7h9.7h3.4h67.5h9.7v-9.7v-150.6c0-19.3-7.5-37.5-21.2-51.1C2788.3,1319.3,2770.2,1311.7,2750.9,1311.7L2750.9,1311.7z"
					/>
			</g>
			<g>
				<path class="st0" d="M1395.8,1539.5v-62.9h-27.2c-36.3,0-65.9-29.5-65.9-65.9v-94.1h77.3v84.4c0,6.1,5,11.1,11.1,11.1h95.7
					c6.1,0,11.1-5,11.1-11.1v-84.4h75.8v94.1c0,36.3-29.5,65.9-65.9,65.9h-27.8v62.9H1395.8z"/>
				<path class="st0" d="M1568.9,1321.5v89.2c0,33.7-27.4,61-61,61h-32.7v62.9h-74.5v-62.9h-32c-33.7,0-61-27.4-61-61v-11.2v-78.1
					h66.1h1.5v79.6c0,8.9,7.1,16,16,16h95.7c8.9,0,16-7.1,16-16v-79.6h0.4h64.1L1568.9,1321.5 M1578.7,1311.7h-9.7h-1.6h-64.1h-0.4
					h-9.7v9.7v79.6c0,3.4-2.8,6.2-6.2,6.2h-95.7c-3.4,0-6.2-2.8-6.2-6.2v-79.6v-9.7h-9.7h-1.5h-66.3h-9.7v9.7v78.1v11.2
					c0,39,31.8,70.8,70.8,70.8h22.3v53.1v9.7h9.7h74.5h9.7v-9.7v-53.1h22.8c39,0,70.8-31.8,70.8-70.8v-89.2v-9.8H1578.7z"/>
			</g>
			<g>
				<path class="st0" d="M2222.5,1539.5c-37.2,0-67.5-30.3-67.5-67.5v-155.5h248.5v64l-163.9-0.1c-6.6,0-11.9,5.3-11.9,11.9
					c0,6.6,5.3,11.9,11.9,11.9h154.7v47.5h-154.7c-6.6,0-11.9,5.3-11.9,11.9c0,6.6,5.3,11.9,11.9,11.9h163.9v64L2222.5,1539.5
					L2222.5,1539.5z"/>
				<path class="st0" d="M2398.4,1321.4v54.2l-159-0.1c-9.4,0-16.8,7.5-16.8,16.8c0,9.4,7.5,16.8,16.8,16.8h149.8v37.6h-149.8
					c-9.4,0-16.8,7.5-16.8,16.8c0,9.4,7.5,16.8,16.8,16.8h159v54.2h-175.9c-34.7,0-62.7-28.1-62.7-62.7v-150.5h62.8L2398.4,1321.4
					 M2408.3,1311.6h-9.7h-175.9h-62.8h-9.7v9.7V1472c0,19.4,7.6,37.6,21.2,51.3c13.7,13.7,31.9,21.2,51.3,21.2h175.9h9.7v-9.7
					v-54.2v-9.7h-9.7h-159c-3.8,0-7.1-3.2-7.1-7.1c0-3.8,3.2-7.1,7.1-7.1h149.8h9.7v-9.7v-37.6v-9.7h-9.7h-149.8
					c-3.8,0-7.1-3.2-7.1-7.1c0-3.8,3.2-7.1,7.1-7.1l159,0.1h9.8v-9.8v-54.2L2408.3,1311.6L2408.3,1311.6z"/>
			</g>
			<g>
				<path class="st0" d="M1961.8,1539.4v-149.6c0-5.5-4.5-10-10-10h-80.2v-63.4h266v63.4h-80.2c-5.5,0-10,4.5-10,10v149.6H1961.8z"
					/>
				<path class="st0" d="M2132.8,1321.4v53.6h-75.4c-8.3,0-15,6.7-15,15v144.6h-75.7V1390c0-8.3-6.7-15-15-15h-75.4v-53.6H2132.8
					 M2142.5,1311.6h-9.7h-256.3h-9.7v9.7v53.6v9.7h9.7h75.4c2.9,0,5.1,2.3,5.1,5.1v144.6v9.7h9.7h75.7h9.7v-9.7v-144.6
					c0-2.9,2.3-5.1,5.1-5.1h75.4h9.7v-9.7v-53.6V1311.6L2142.5,1311.6z"/>
			</g>
		</g>
		<g>
			<g>
				<path class="st0" d="M3233.7,810.2H602c-222.4,1.2-357.5-147.9-357.5-331.9S380.7,147.7,602,146.5h2631.8
					c221.2,0,357.5,147.9,357.5,331.9S3455,810.2,3233.7,810.2z"/>
				<g>
					<g>
						<path class="st1" d="M796.5,559.9L618.3,271.1H489v413.3h128.1V395.6l179.4,288.8h128.1V271.1h-128L796.5,559.9L796.5,559.9z
							 M1809.6,409.6v-40.8h-67.5V313h-124.6v55.8H1550v40.8h67.5v274.8h124.6V409.6H1809.6z M995.5,684.4h124.6V409.6H995.5V684.4z
							 M995.5,355h124.6v-85H995.5V355z M3173.2,391c-100.1,0-181.7,68.7-181.7,154.9c0,85,81.5,154.9,181.7,154.9
							c100.1,0,181.7-68.7,181.7-154.9S3275.7,391,3173.2,391z M3223.3,603c0,44.3-25.7,61.7-51.2,61.7c-24.4,0-51.2-18.6-51.2-61.7
							c0-16.3,0-59.4,0-59.4s0-40.8,0-57c0-43.1,25.7-61.7,51.2-61.7c24.4,0,51.2,17.4,51.2,61.7c0,16.3,0,47.8,0,58.2
							C3223.3,545.9,3223.3,586.7,3223.3,603z M2829.7,423.6c-19.8-11.7-40.8-22.1-69.9-24.4c-89.6-8.1-158.3,71-158.3,144.3
							c0,95.5,73.4,131.6,85,136.3c41.8,19.8,95.5,19.8,143.2-10.5c0,2.4,0,16.3,0,16.3H2952V272.2h-122.3
							C2829.7,271.1,2829.7,359.6,2829.7,423.6z M2829.7,545.9c0,0,0,31.4,0,48.9c0,41.8-29.1,53.6-48.9,53.6
							c-19.8,0-48.9-11.7-48.9-53.6c0-15.2,0-48.9,0-48.9s0-35,0-48.9c0-43.1,29.1-53.6,48.9-53.6c19.8,0,48.9,10.5,48.9,53.6
							C2829.7,510.9,2829.7,545.9,2829.7,545.9z M1411.2,396.9c-40.8,1.2-75.6,18.6-99,41.8c0-7,0-29.1,0-29.1h-123.4v274.8h123.4
							c0,0,0-168.9,0-180.6c0-24.4,25.7-50.1,59.4-50.1c33.8,0,57,26.8,57,50.1c0,17.4,0,180.6,0,180.6H1552c0,0,0-130.5,0-149.1
							C1552.1,425.9,1457.9,395.6,1411.2,396.9z M2422.1,396.9c-40.8,1.2-75.6,18.6-99,41.8c0-7,0-29.1,0-29.1h-123.4v274.8h123.3
							c0,0,0-168.9,0-180.6c0-24.4,25.7-50.1,59.4-50.1c33.8,0,57,26.8,57,50.1c0,17.4,0,180.6,0,180.6h123.5c0,0,0-130.5,0-149.1
							C2561.9,425.9,2467.4,395.6,2422.1,396.9z M2160,548.2c0-85-82.7-156.1-184-156.1c-101.3,0-182.8,68.7-182.8,154.9
							c0,85,81.5,154.9,182.8,154.9c83.9,0,154.9-47.8,176.9-113h-123.4c0,0,0,1.2,0,16.3c0,50.1-32.6,61.7-51.2,61.7
							c-18.6,0-52.4-11.7-52.4-61.7c0-15.2,0-57,0-57L2160,548.2L2160,548.2z M1935.4,451.6c9.4-17.4,28-24.4,44.3-25.7
							c16.3,0,33.8,8.1,44.3,25.7c8.1,14,8.1,30.3,8.1,53.6h-103.7C1926,480.8,1926,465.6,1935.4,451.6z M3406.2,322.3
							c0-14-10.5-19.8-30.3-19.8h-28v71h17.4v-29.1h8.1l14,29.1h18.6l-15.2-31.4C3400.3,338.6,3406.2,331.6,3406.2,322.3z
							 M3373.5,332.8h-8.1v-21h7c10.5,0,15.2,3.4,15.2,10.5C3388.6,330.5,3382.7,332.8,3373.5,332.8z M3373.5,274.5
							c-35,0-64.1,28-64.1,64.1c0,35,29.1,64.1,64.1,64.1c35,0,64.1-29.1,64.1-64.1C3437.5,302.5,3408.4,274.5,3373.5,274.5z
							 M3373.5,389.8c-28,0-51.2-23.2-51.2-51.2c0-28,23.2-51.2,51.2-51.2s51.2,23.2,51.2,51.2
							C3424.7,366.6,3402.5,389.8,3373.5,389.8z M3234.8,39.4h-2634c-278.3-1.2-465.7,200.4-465.7,440.2S321.4,917.5,602,917.5
							h2632.9c279.4,0,466.9-198,466.9-437.9C3700.8,238.5,3513.2,38.1,3234.8,39.4z M3233.7,810.2H602
							c-222.4,1.2-357.5-147.9-357.5-331.9S380.7,147.7,602,146.5h2631.8c221.2,0,357.5,147.9,357.5,331.9S3455,810.2,3233.7,810.2z
							 M3234.8,39.4h-2634c-278.3-1.2-465.7,200.4-465.7,440.2S321.4,917.5,602,917.5h2632.9c279.4,0,466.9-198,466.9-437.9
							C3700.8,238.5,3513.2,38.1,3234.8,39.4z M3233.7,810.2H602c-222.4,1.2-357.5-147.9-357.5-331.9S380.7,147.7,602,146.5h2631.8
							c221.2,0,357.5,147.9,357.5,331.9S3455,810.2,3233.7,810.2z M3234.8,39.4h-2634c-278.3-1.2-465.7,200.4-465.7,440.2
							S321.4,917.5,602,917.5h2632.9c279.4,0,466.9-198,466.9-437.9C3700.8,238.5,3513.2,38.1,3234.8,39.4z M3233.7,810.2H602
							c-222.4,1.2-357.5-147.9-357.5-331.9S380.7,147.7,602,146.5h2631.8c221.2,0,357.5,147.9,357.5,331.9S3455,810.2,3233.7,810.2z
							"/>
					</g>
				</g>
			</g>
			<g>
				<path d="M1439.9,1153.6C1439.9,1153.6,1440.1,1153.8,1439.9,1153.6c19.1-12.4,31.9-34.3,31.9-59.1c0-38.6-30.5-69.9-68.2-69.9
					h-15.2h-184.5v78.1v135h71.1v-41.5c0-7.3,5.9-13.3,13.3-13.3h96.9c7.3,0,13.3,5.9,13.3,13.3v1.3v40.2h67.8v-40.2
					C1465.9,1187,1461.5,1167.9,1439.9,1153.6z M1288.4,1129.4c-7.3,0-13.3-5.9-13.3-13.3V1089c0-7.3,5.9-13.3,13.3-13.3h96.9
					c7.3,0,13.3,5.9,13.3,13.3v27.2c0,7.3-5.9,13.3-13.3,13.3H1288.4z"/>
				<path d="M1975.9,1024.5h-16.1H1922h-25.6h-37.8h-16.1c-35,0-63.3,28.4-63.3,63.3v17v132.8h69.7v-52.5h120.7v52.5h69.7v-132.8
					v-17C2039.2,1052.8,2010.9,1024.5,1975.9,1024.5z M1849.1,1129.3v-33.8c0-9.7,7.8-17.5,17.5-17.5h29.9h25.7h29.9
					c9.7,0,17.5,7.8,17.5,17.5v33.8H1849.1z"/>
				<rect x="2086.7" y="1024.5" width="72.2" height="213.2"/>
				<path d="M2429.9,1024.5h-226.8v213.2h68.7v-142.8c0-8.7,7-15.7,15.7-15.7h117.9c8.7,0,15.7,7,15.7,15.7v43.5v99.2h67.5v-99.3
					v-17.1v-25.8v-12.3C2488.6,1050.8,2462.3,1024.5,2429.9,1024.5z"/>
				<path d="M2844.1,1024.5h-310.2v213.2h62.9v-133.3v-10.1c0-8.3,6.7-15.1,15.1-15.1h53.8c8.3,0,15.1,6.7,15.1,15.1v26l0,0v117.5
					h71v-133.3v-10.1c0-8.3,6.7-15.1,15.1-15.1h53.8c8.3,0,15.1,6.7,15.1,15.1v10.1v133.3h3.4h67.5V1087
					C2906.6,1052.5,2878.6,1024.5,2844.1,1024.5z"/>
				<path d="M3453.5,1024.5h-226.8v213.2h68.7v-142.8c0-8.7,7-15.7,15.7-15.7H3429c8.7,0,15.7,7,15.7,15.7v43.5v99.2h67.5v-99.3
					v-17.1v-25.8v-12.3C3512.2,1050.8,3485.9,1024.5,3453.5,1024.5z"/>
				<path d="M549.2,1024.5H322.5v213.2h68.7v-142.8c0-8.7,7-15.7,15.7-15.7h117.9c8.7,0,15.7,7,15.7,15.7v43.5v99.2h67.5v-99.3
					v-17.1v-25.8v-12.3C607.9,1050.8,581.6,1024.5,549.2,1024.5z"/>
				<path d="M278.1,1078.7v-54.2h-176l0,0H39.3v150.5c0,34.7,28.1,62.7,62.7,62.7h176v-54.2h-159c-9.4,0-16.8-7.5-16.8-16.8l0,0
					c0-9.4,7.5-16.8,16.8-16.8h149.8v-37.6H118.9c-9.4,0-16.8-7.5-16.8-16.8l0,0c0-9.4,7.5-16.8,16.8-16.8L278.1,1078.7z"/>
				<path d="M1162.8,1078.7v-54.2h-176l0,0h-62.8v150.5c0,34.7,28.1,62.7,62.7,62.7h176v-54.2h-159.1c-9.4,0-16.8-7.5-16.8-16.8l0,0
					c0-9.4,7.5-16.8,16.8-16.8h149.8v-37.6h-149.8c-9.4,0-16.8-7.5-16.8-16.8l0,0c0-9.4,7.5-16.8,16.8-16.8L1162.8,1078.7z"/>
				<path d="M3184.8,1078.7v-54.2H3009l0,0h-62.8v150.5c0,34.7,28.1,62.7,62.7,62.7h175.9v-54.2h-159.1c-9.4,0-16.8-7.5-16.8-16.8
					l0,0c0-9.4,7.5-16.8,16.8-16.8h149.8v-37.6h-149.8c-9.4,0-16.8-7.5-16.8-16.8l0,0c0-9.4,7.5-16.8,16.8-16.8L3184.8,1078.7
					L3184.8,1078.7z"/>
				<path d="M3799.7,1024.5h-256.3v53.6h75.4c8.3,0,15,6.7,15,15v144.6h75.7V1093c0-8.3,6.7-15,15-15h75.4v-53.6H3799.7z"/>
				<path d="M1750.4,1024.5h-256.3v53.6h75.4c8.3,0,15,6.7,15,15v144.6h75.7V1093c0-8.3,6.7-15,15-15h75.4v-53.6H1750.4z"/>
				<path d="M892.1,1024.5H635.8v53.6h75.4c8.3,0,15,6.7,15,15v144.6h75.7V1093c0-8.3,6.7-15,15-15h75.2V1024.5z"/>
			</g>
			<g>
				<path d="M1782.7,1408.1h-100.1c-11.7,0-19.8-4.6-19.8-15.3c0-9.5,7-17.5,16.3-17.5h171.2v-53.9h-187.5c-35,0-64.1,29.3-64.1,62
					c0,46.9,30.3,64.5,71,64.5h100.1c10.5,0,21,4.6,21,15.3c0,9.5-7,17.5-16.3,17.5h-175.9v53.9h192.1c31.4,0,64.1-25.8,64.1-62
					C1854.9,1429.2,1820,1408.1,1782.7,1408.1z"/>
				<path d="M1209.8,1408.2h-97.9c-11.7,0-21-4.6-21-15.3c0-9.4,9.4-17.5,17.4-17.5h171.2v-53.9h-187.5c-37.2,0-67.5,29.3-67.5,62
					c0,46.8,32.6,64.4,73.4,64.4h97.9c11.7,0,21,4.6,21,15.3c0,9.4-9.4,17.5-17.4,17.5h-173.6v53.9H1218c35,0,66.4-25.8,66.4-62
					C1284.4,1429.3,1250.7,1408.2,1209.8,1408.2z"/>
				<path d="M2750.9,1321.5h-310.2v213.2h62.9v-133.3v-10.1c0-8.3,6.7-15.1,15.1-15.1h53.8c8.3,0,15.1,6.7,15.1,15.1v26l0,0v117.5
					h71v-133.3v-10.1c0-8.3,6.7-15.1,15.1-15.1h53.8c8.3,0,15.1,6.7,15.1,15.1v10.1v133.3h3.4h67.5v-150.6
					C2813.4,1349.5,2785.4,1321.5,2750.9,1321.5z"/>
				<path d="M1567.3,1321.5h-64.1h-0.4v79.6c0,9-7.2,16-16,16h-95.7c-9,0-16-7.2-16-16v-79.6h-1.5h-66v78.1v11.2
					c0,33.7,27.4,61,61,61h32.1v62.9h74.5v-62.9h32.7c33.7,0,61-27.4,61-61v-89.2L1567.3,1321.5L1567.3,1321.5z"/>
				<path d="M2398.4,1375.6v-54.2h-175.9l0,0h-62.8V1472c0,34.7,28.1,62.7,62.7,62.7h175.9v-54.2h-159c-9.4,0-16.8-7.5-16.8-16.8
					l0,0c0-9.4,7.5-16.8,16.8-16.8h149.8v-37.6h-149.8c-9.4,0-16.8-7.5-16.8-16.8l0,0c0-9.4,7.5-16.8,16.8-16.8L2398.4,1375.6
					L2398.4,1375.6z"/>
				<path d="M2132.8,1321.4h-256.3v53.6h75.4c8.3,0,15,6.7,15,15v144.6h75.7V1390c0-8.3,6.7-15,15-15h75.4v-53.6H2132.8z"/>
			</g>
		</g>
	</g>
</g>
</svg>
