<?xml version="1.0" encoding="utf-8"?>
<!-- Generator: Adobe Illustrator 26.3.1, SVG Export Plug-In . SVG Version: 6.00 Build 0)  -->
<svg version="1.1" id="Layer_1" xmlns="http://www.w3.org/2000/svg" xmlns:xlink="http://www.w3.org/1999/xlink" x="0px" y="0px"
	 viewBox="0 0 3839 1195.1" style="enable-background:new 0 0 3839 1195.1;" xml:space="preserve">
<style type="text/css">
	.st0{fill:#FFFFFF;}
	.st1{fill:#FFFFFF;stroke:#FFFFFF;stroke-width:29.6139;stroke-linecap:round;stroke-linejoin:round;stroke-miterlimit:10;}
	.st2{fill:#30308F;}
	.st3{fill:#EC2024;}
</style>
<g>
	<g>
		<g>
			<g>
				<path class="st0" d="M3174.6,1170.1c-8.2,0-14.8-6.6-14.8-14.8v-4.9c0-84,19.5-159.6,59.7-231.3
					c39.7-70.9,99.7-138.1,183.6-205.4c10.5-8.5,109.1-90.7,146.9-125.8c2.3-2.2,4.6-4.3,7-6.4c38-35,70.7-65.3,70.7-157.7
					c0-53.1-32.1-58.8-45.9-58.8c-20.8,0-43.4,11.5-60.4,30.8c-14.7,16.7-32.2,46.7-32.2,95.2v4.9c0,8.2-6.6,14.8-14.8,14.8h-167
					c-8.2,0-14.8-6.6-14.8-14.8v-4.9c0-85.7,28.9-165.7,81.3-225.2c54.6-61.9,130.4-97.4,207.8-97.4c66.9,0,128.4,26.1,173.3,73.5
					c44.6,47.2,69.2,111.8,69.2,181.9c0,78.4-15.9,144.1-48.5,200.9c-27.4,47.7-61,78.7-85.6,101.4l-6.4,5.9
					c-42.5,39.6-146.5,126.1-157.5,135c-44.5,35.7-79.3,70.1-105.7,104.4h295.1c4.3,0,8.4,1.9,11.3,5.2c2.8,3.3,4,7.7,3.4,11.9
					l-26.8,169.3c-1.1,7.2-7.3,12.5-14.6,12.5H3174.6z"/>
				<path class="st0" d="M3581.7,183.1c129.8,0,227.7,103.4,227.7,240.6c0,172.1-81,246.7-129.3,291.3l-6.4,5.9
					c-42.3,39.4-145.8,125.5-156.8,134.4c-55.5,44.6-96.6,87.5-125.3,130.7h323.9l-26.8,169.3h-514.2v-4.9
					c0-81.4,18.9-154.7,57.8-224.1c38.7-69.2,97.6-135,179.9-201.1c10.6-8.6,109.7-91.1,147.7-126.5c2.3-2.2,4.6-4.3,6.9-6.4
					c38.8-35.8,75.5-69.7,75.5-168.5c0-54.3-31.4-73.6-60.7-73.6c-25,0-51.7,13.4-71.5,35.9c-16.4,18.6-35.9,51.9-35.9,104.9v4.9
					h-167v-4.9c0-82.1,27.6-158.6,77.6-215.4C3436.7,216.8,3508.4,183.1,3581.7,183.1 M3581.7,153.5c-81.7,0-161.5,37.3-219,102.4
					c-54.8,62.2-85,145.6-85,235v4.9c0,16.4,13.3,29.6,29.6,29.6h167c16.4,0,29.6-13.3,29.6-29.6v-4.9c0-43.8,15.5-70.6,28.5-85.4
					c14.1-15.9,32.9-25.8,49.3-25.8c5.8,0,14,1.3,20.3,7.7c7.1,7.1,10.8,19.7,10.8,36.3c0,39.8-6.2,69.6-19.5,93.5
					c-11.7,21.1-27.8,36-46.5,53.2c-2.3,2.2-4.7,4.3-7,6.5c-37.5,34.9-135.4,116.5-146.2,125.2c-85.3,68.6-146.5,137.1-187.1,209.7
					c-41.4,74-61.6,152-61.6,238.6v4.9c0,16.4,13.3,29.6,29.6,29.6h514.2c14.6,0,27-10.6,29.2-25l26.8-169.3
					c1.4-8.6-1.1-17.3-6.7-23.9c-5.6-6.6-13.9-10.4-22.5-10.4H3452c22.7-25.5,50.3-51.4,83.5-78c0,0,0,0,0.1,0
					c11-8.9,115.4-95.7,158.3-135.6l6.4-5.9c25.3-23.3,59.9-55.2,88.4-104.9c15.6-27.2,27.8-57.1,36.1-88.9
					c9.5-36.4,14.4-76.6,14.4-119.3c0-73.9-26-142.2-73.3-192.1C3718,181.2,3652.7,153.5,3581.7,153.5L3581.7,153.5z"/>
			</g>
			<path class="st1" d="M3581.7,188c127.1,0,222.8,101.3,222.8,235.7c0,170.1-80,243.7-127.9,287.8l-6.3,5.8
				c-42.8,39.9-146.8,126.3-156.5,134.1c-63.5,51.1-104.7,97.3-131.2,139.4h327.2l-25.2,159.5h-374.6h-130.4
				c0-159.6,73.8-291.2,235.9-421.4c10.4-8.4,109.6-91,148-126.8c41.9-39.1,84-71.7,84-178.5c0-53.4-30.1-78.5-65.6-78.5
				c-50.7,0-112.3,51.5-112.3,145.7h-157.2c0-80.9,27.1-156.2,76.4-212.1C3439.5,221.1,3509.9,188,3581.7,188 M3581.7,178.2
				c-74.6,0-147.7,34.3-200.4,94.1c-50.9,57.6-78.9,135.3-78.9,218.6v9.8h9.8h157.2h9.8v-9.8c0-21.3,3.3-41.2,9.8-59.2
				c5.9-16.2,14.2-30.5,24.9-42.5c18.9-21.4,44.2-34.2,67.8-34.2c15.7,0,29.2,5.6,38.9,16.1c11.1,12,16.9,30.2,16.9,52.6
				c0,44.3-7.1,77.8-22.5,105.5c-13.6,24.5-31.9,41.5-51.4,59.4c-2.3,2.1-4.6,4.3-6.9,6.4c-37.9,35.3-136.9,117.7-147.5,126.3
				c-82.8,66.5-142,132.8-181.1,202.5c-39.3,70.2-58.4,144.3-58.4,226.5v9.8h9.8h130.4h374.6h8.4l1.3-8.3l25.2-159.5l1.8-11.4h-11.5
				h-308.9c11.6-16.6,25.2-33.3,40.6-49.9c22-23.7,48.3-47.9,78.4-72.1c11-8.9,114.6-95.1,157.1-134.6l6.3-5.8l0.1-0.1
				c24-22.2,57-52.5,83.7-99c14.6-25.4,25.9-53.3,33.7-83c9-34.4,13.6-72.4,13.6-112.9c0-67.5-23.6-129.6-66.4-175
				C3704.9,203.2,3645.8,178.2,3581.7,178.2L3581.7,178.2z"/>
		</g>
		<g>
			<g>
				<path class="st0" d="M297.8,1175.7c-65.5,0-128.6-21.4-177.7-60.1c-50.6-39.9-81.7-94.8-87.7-154.7
					c-7-69.9,2.4-132.4,27.8-185.8c25.5-53.6,67.4-98.7,124.6-134.2c70.7-43.8,144.7-66,219.9-66c46,0,93.1,8.3,140.1,24.6l3.8,1.3
					c6.7,2.3,10.8,9,9.8,16l-0.6,4c-7.5,53.2-17.3,110-17.4,110.6l-1.1,6.3c-0.8,4.5-3.6,8.4-7.7,10.6c-2.2,1.1-4.5,1.7-6.9,1.7
					c-2.1,0-4.2-0.5-6.2-1.4l-5.8-2.7c-25.3-11.7-57.5-17.8-93.2-17.8c-67.6,0-133.3,22.1-175.7,59.2
					c-38.2,33.3-59.6,70.6-63.6,110.6c-3.9,39.1,9.9,68.8,16,79.8c9.6,17.1,23.8,30.3,42.2,39.2c16.5,8,36,12.2,56.2,12.2
					c12.5,0,25.1-1.7,36.2-4.9l3.6-19.8h-68.3c-4.3,0-8.4-1.9-11.2-5.2c-2.8-3.3-4-7.6-3.4-11.9l17.3-111
					c1.1-7.2,7.3-12.5,14.6-12.5h216.1c4.3,0,8.4,1.9,11.3,5.2c2.8,3.3,4,7.6,3.4,11.9l-8.3,52.9l147.8-335.4
					c2.4-5.4,7.7-8.8,13.6-8.8h144.5c7.2,0,13.4,5.2,14.6,12.4l60.3,361.6L1004.9,600c2-6.1,7.7-10.2,14.1-10.2h117.5
					c7.1,0,13.3,5.1,14.6,12.1l43.2,235.7l81.3-191.3c-5.8-6.5-11.1-14.9-12.4-24.8c-1.2-9.2,1.2-18.3,6.9-25.8
					c41-53.3,82.1-103.6,122.9-150.4c-66.9,38.1-110.6,60.8-130.3,67.6c-8.1,2.8-16.7,4.2-25.6,4.2c-17.4,0-36-5.7-51-15.5
					c-13.4-8.9-22.8-20.1-26.9-32.2c-9.5-9-15.4-19.5-17.2-30c-11.7,7.2-21.7,13.2-30,18.1c-99.6,58.3-169.8,91-208.6,97.4
					c-3.8,0.6-7.6,0.9-11.4,0.9c-28.3,0-54.4-17.7-65.5-44.2c-6.9-7-12.4-15.3-15.9-24.3c-11.3-28.1-8.5-45.6,12.3-78.3
					c13.9-21.8,88.1-89.9,176.3-170.2c26.8-24.3,47.9-43.5,55.9-51.4c18.5-18.3,31.7-25.7,45.6-25.7c20.6,0,32.2,17.2,41.5,31
					c1.7,2.5,3.1,5.1,4.2,7.8c3.9,4.5,7.4,9.6,11.2,15.2c8.9,13.1,9.5,28.5,1.8,43.4c-6.6,12.7-17,21.1-21.9,24.6
					c-9.5,8.3-22.2,19.3-36.9,32c-14.6,12.6-31.4,27.2-48.6,42.1c27.9-15.6,56.7-31.7,82.2-45.8c63.4-35.2,115.6-69.9,155.1-103
					c2.3-1.9,4.9-4.2,7.6-6.7c14.6-13.1,31.1-28.1,50.4-28.1c9.8,0,27,4.1,36.4,30.2c9.3,7.2,15.7,19.5,19.3,37.3
					c3,15.1,0.2,28.5-8.8,42.2c-7.4,11.2-18.4,22-32.5,35.6c-9.5,9.2-21.1,20.6-34.5,34.9c83.3-50.3,186-109.9,260.4-153
					c0,0,21-12.2,30.5-17.7c8.2-4.8,17-7.2,25.9-7.2c25.1,0,44.1,18.4,51.3,37.9c10.1,9.4,16.8,22.2,18.3,35.1
					c0.7,5.8,0.2,11.4-1.3,16.6c46.4-24.4,88-40.3,127.7-49.2c20.5-4.6,38.8-8.4,55-8.4c33.1,0,48.1,17,54.9,31.3
					c0.9,1.9,1.7,3.8,2.5,5.6c5.3,4.7,9.6,10.5,12.9,17.4c24.4,51.3,2.8,81.4-11.5,101.2c-1.3,1.8-2.6,3.6-3.8,5.4
					c-19,27.6-54.2,58.6-104.5,92.4c-37.5,25.1-69.9,42.6-73.4,44.5c-50.4,26.8-95.1,40.4-133,40.4c-38.8,0-70.4-13.8-94.1-40.9
					c-0.3-0.3-1-1-1.8-1.8c-32.8,22.6-65.1,50.9-98,85.8h5.2c7.9,0,14.5,6.2,14.8,14.2l23.8,550.6c0.2,4-1.3,8-4.1,10.9
					c-2.8,2.9-6.7,4.6-10.7,4.6h-120.9c-7.9,0-14.4-6.2-14.8-14.2l-11.2-253.6l-111.7,258.8c-2.3,5.4-7.7,8.9-13.6,8.9h-81.4
					c-7,0-13.1-5-14.5-11.8l-47.4-232.2l-74.4,233.7c-2,6.1-7.7,10.3-14.1,10.3H773.9c-7.2,0-13.3-5.2-14.6-12.2L733,1008.3h-99.1
					l-68.9,153c-2.4,5.3-7.7,8.7-13.5,8.7H424.8c-5,0-9.7-2.5-12.4-6.7c-1.8-2.7-2.6-5.9-2.4-9
					C373.9,1168.4,335.7,1175.7,297.8,1175.7z M709,863.9l-3.9-20.3l-9.1,20.2L709,863.9z"/>
				<path class="st0" d="M1100.9,176.5c12.7,0,20.7,11.9,29.2,24.5c1.6,2.3,2.8,4.8,3.5,7.3c4,4.2,7.7,9.6,11.9,15.8
					c13.3,19.6-5.2,39.9-17,48.1c-9.5,8.3-22.5,19.5-37.4,32.4c-50.3,43.5-122.2,105.7-151,132.9c19.5-10.8,50.7-28.2,86.2-48.2
					c37.3-20.9,79.5-44.5,115.2-64.4c64.2-35.7,117.2-70.9,157.4-104.6c2.5-2,5.2-4.5,8-7.1c12.6-11.4,26.9-24.2,40.5-24.2
					c11.2,0,19.2,8.4,23.9,25c8.2,4,13.9,14.1,17.2,30.6c4.7,23.5-10.1,38-37.1,64.3c-21.9,21.4-54,52.6-92.7,105.2
					c86.3-54.7,236-141.6,336.4-199.9c10.7-6.2,20.9-12.1,30.5-17.7c6-3.5,12.2-5.2,18.5-5.2c19.1,0,34.2,15.8,38.5,31.6
					c9,7.2,15.2,17.8,16.4,28.3c0.9,7.4-0.9,14-5.1,18.9c-6.9,8-22.4,25.4-44.7,50.1c76.1-48.3,137-76,194.2-88.8
					c19.6-4.4,37.1-8,51.8-8c20.6,0,34.2,7.5,41.6,22.9c1.3,2.8,2.5,5.6,3.6,8.4c4.9,3.6,8.9,8.6,11.8,14.7
					c20.6,43.4,3.5,67.2-10.2,86.2c-1.4,1.9-2.7,3.7-4,5.6c-43.2,62.5-167.5,129.4-172.8,132.2c-48.2,25.6-90.6,38.7-126,38.7
					c-34.3,0-62.2-12.1-82.9-35.8c-0.9-1-2.4-2.4-4-4c-2.1-2-4.7-4.4-7.1-7.1c-0.9,0.6-1.7,1.1-2.6,1.7c-0.7,0.5-1.6,1-2.6,1.7
					c-42.8,28.8-84.8,66.9-128.1,116.2h38.6l23.8,550.6h-120.9l-14.1-317.9l-137.3,317.9h-81.4L1062,867.3l-91.6,287.9H773.9
					l-28.5-161.7H624.4l-72.9,161.7H424.8l13.3-30.1c-43.9,23.5-92.2,35.9-140.3,35.9c-62.2,0-122-20.2-168.6-56.9
					c-47.4-37.4-76.6-88.7-82.1-144.5C33.7,824.6,82.6,721.6,192.6,653.5c68.4-42.3,139.7-63.7,212.1-63.7c44.3,0,89.8,8,135.3,23.8
					l3.8,1.3l-0.6,4C535.9,671.5,526,728.5,526,729l-1.1,6.3l-5.8-2.7c-27.3-12.6-61.6-19.2-99.4-19.2
					c-71.1,0-140.4,23.5-185.4,62.8c-41.1,35.9-64.2,76.4-68.6,120.3c-4.4,43.2,11,76.3,17.8,88.5c11.1,19.8,27.5,35.1,48.7,45.3
					c18.5,9,40.2,13.7,62.6,13.7c0,0,0,0,0,0c17.4,0,34.7-3,49.2-8.4l8.3-45.9h-86l17.3-111h216.1l-26,165.2l193.6-439.5h144.5
					l70.2,421.4L1019,604.6h117.5l52.1,284.2l104.7-246.1c-5.8-4.8-14-13.1-15.3-23.2c-0.7-5.3,0.7-10.5,4-14.8
					c62.4-81.2,124.9-155,186.1-220c-84,49.5-178.5,103.4-210.1,114.2c-6.5,2.3-13.5,3.4-20.8,3.4c-14.6,0-30.2-4.8-42.8-13.1
					c-11.9-7.9-19.8-18-22-28c-12.5-10.6-18.2-23.5-15.2-34.7c1.4-5.3,4.2-11.8,8.4-19.2c-25.6,16.1-46.1,28.7-60.9,37.3
					c-67.4,39.4-157.4,88-203.5,95.6c-3,0.5-6,0.7-9,0.7c-22.7,0-43.6-14.5-52.2-36.1c-0.2-0.6-0.5-1.2-0.7-1.8
					c-6.5-5.9-11.5-13.3-14.7-21.3c-8.8-21.9-8.4-34.4,11-64.9c14-21.9,106.4-105.9,173.8-167.2c26.9-24.4,48.1-43.7,56.3-51.8
					C1081,182.9,1091.5,176.5,1100.9,176.5 M1858.2,320.8c-80.1,23.6-182.9,82.9-260.6,132.6c2.8,0.3,5.8,0.5,8.8,0.5
					c40.4,0,101.2-27.2,186-83.1C1807.6,360.8,1835.6,340.9,1858.2,320.8 M727,878.7l-16.2-84l-37.5,83.9L727,878.7 M499.8,878.8
					L499.8,878.8 M1100.9,146.9c-22.5,0-40.9,15.2-56,30c-7.7,7.6-29.8,27.6-55.3,50.8l-0.1,0.1C879.2,328.1,824.4,379.6,810.7,401
					c-23.4,36.8-26.7,59.1-13.6,91.9c3.9,9.9,9.8,19.1,17.1,27c13.9,30.5,44.7,50.7,78,50.7c4.6,0,9.2-0.4,13.8-1.1
					c23.9-3.9,57.3-16.5,102-38.5c32.2-15.8,69.7-36.2,111.6-60.7c4.5-2.6,9.4-5.6,14.9-8.8c3.1,5.7,7.2,11.1,12.1,16.2
					c5.7,13.8,16.5,26.5,31.5,36.3c17.3,11.4,38.9,18,59.1,18c10.6,0,20.8-1.7,30.5-5c13.4-4.6,35.9-15.7,61.7-29.3
					c-23.6,28.6-47.3,58.4-70.9,89.1c-8.1,10.6-11.6,23.6-9.9,36.8c1.2,8.7,4.6,17.2,10,25.1l-58.6,137.8l-34.3-187.2
					c-2.6-14.1-14.8-24.3-29.1-24.3H1019c-12.8,0-24.2,8.3-28.2,20.5l-99.4,306.1L841,599.7c-2.4-14.3-14.7-24.7-29.2-24.7H667.4
					c-11.7,0-22.4,6.9-27.1,17.7L522.5,859.9c-5.4-6.5-13.5-10.6-22.6-10.7c0,0,0,0,0,0c0,0,0,0-0.1,0c0,0,0,0-0.1,0c0,0,0,0,0,0h0
					H283.7c-14.6,0-27,10.6-29.3,25l-17.3,111c-0.8,5.1-0.2,10.3,1.6,15.1c-12.6-7.4-22.4-17.3-29.3-29.7
					c-5.4-9.7-17.7-36.2-14.2-71.1c3.7-36.2,23.4-70.2,58.6-101c19.2-16.8,44.4-30.8,73-40.4c29.1-9.9,61.3-15.1,93-15.1
					c33.5,0,63.6,5.7,87,16.5l5.8,2.7c3.9,1.8,8.2,2.7,12.4,2.7c4.7,0,9.5-1.1,13.8-3.4c8.1-4.3,13.8-12.1,15.4-21.2l1.1-6.3
					c0.1-0.6,10-57.7,17.5-111.1l0.6-4c2-14-6.2-27.5-19.6-32.1l-3.8-1.3c-48.6-16.9-97.4-25.4-145-25.4
					c-78,0-154.6,22.9-227.7,68.2c-59.7,37-103.5,84.2-130.2,140.4c-26.6,55.9-36.4,121.1-29.2,193.7
					c6.4,63.9,39.5,122.4,93.2,164.8c51.7,40.8,118.1,63.3,186.9,63.3c34.8,0,69.9-5.9,103.5-17.3c5.6,7.3,14.3,11.6,23.5,11.6
					h126.7c11.6,0,22.2-6.8,27-17.4l65-144.3h77.1l24.2,137.3c2.5,14.2,14.8,24.5,29.2,24.5h196.6c12.9,0,24.3-8.3,28.2-20.6
					l57.1-179.5l36,176.5c2.8,13.8,14.9,23.7,29,23.7h81.4c11.8,0,22.5-7,27.2-17.9l86.2-199.6l8.4,189.2
					c0.7,15.8,13.7,28.3,29.6,28.3h120.9c8.1,0,15.8-3.3,21.4-9.1c5.6-5.8,8.5-13.7,8.2-21.8l-23.8-550.6
					c-0.3-7.6-3.5-14.4-8.4-19.4c23.4-23.4,46.5-43.4,69.8-60.4c11.6,11.3,24.8,20.3,39.4,26.6c17.5,7.6,37.2,11.4,58.3,11.4
					c40.3,0,87.3-14.2,139.9-42.1c0,0,0,0,0.1,0c3.6-1.9,36.6-19.7,74.7-45.3c51.9-34.8,88.4-67.2,108.5-96.3
					c1.1-1.6,2.3-3.3,3.6-5.1l0-0.1c7.5-10.5,17.9-24.9,22.7-44.2c5.6-22.4,2.3-46.7-9.8-72.1c-3.6-7.6-8.3-14.2-13.9-19.8
					c-0.5-1.1-1-2.2-1.5-3.3c-6.4-13.4-15.9-23.6-28.2-30.5c-11.3-6.2-24.7-9.3-40.1-9.3c-17.8,0-36.9,4-58.3,8.7
					c-31,6.9-62.3,17.7-95.9,33c-4.5,2-9,4.2-13.5,6.4c-2.8-13.1-9.7-25.8-19.5-35.8c-10-23.3-33.3-44.3-63.9-44.3
					c-11.6,0-22.9,3.1-33.4,9.3c-9.6,5.6-19.8,11.5-30.5,17.7c-49.3,28.6-111.1,64.5-171.5,100.1c9.5-15.9,12.4-32.3,8.9-49.9
					c-2.3-11.4-5.6-20.8-10-28.7c-3.2-5.7-7-10.5-11.3-14.5c-13.3-32.4-38.1-36.1-48.8-36.1c-25,0-44.6,17.7-60.3,31.9
					c-2.7,2.4-5.2,4.6-7.2,6.3c0,0,0,0,0,0c-30.5,25.6-68.8,52.1-114.1,79.2c2.4-3.2,4.8-6.8,6.8-10.8c10.2-19.6,9.2-41-2.7-58.5
					c-3.5-5.1-6.9-10.2-10.8-14.8c-1.3-2.8-2.9-5.6-4.7-8.3c-4.9-7.3-10.1-14.9-16.9-21.6C1126.9,152.2,1114.5,146.9,1100.9,146.9
					L1100.9,146.9z"/>
			</g>
			<path class="st1" d="M1100.9,181.4c9.5,0,16.1,9,25.2,22.3c1.6,2.4,2.6,4.7,3.2,7.1c3.9,3.9,7.8,9.4,12.2,16
				c14.1,20.9-15.9,41.4-15.9,41.4c-48.1,41.9-186.3,160.3-200.7,177.6c-1.7,2-3.1,4-4.3,5.9c4.6-1.2,10-3.4,16.1-6.8
				c36.9-20.3,134.7-75.4,207.4-115.8c78.1-43.4,127.3-79.2,158.2-105.2c12.6-10.5,30.7-30.2,45.4-30.2c8.2,0,15.4,6.2,19.8,23.7
				c7,2.2,13,10.2,16.5,27.9c8.2,40.5-49.3,51.1-142.6,184.5c-0.1,0.1-0.1,0.2-0.2,0.3c3.3-1.6,6.9-3.6,10.8-6.1
				c92.7-59.5,270.2-161.9,376.3-223.6c5.5-3.2,10.9-4.6,16-4.6c17,0,31,15.2,34.1,29.5c14.1,10.3,21.2,30.4,11.9,41.1
				c-10.4,12.1-38.8,43.6-70.5,78.4c106-71.2,172-97.4,224.8-109.1c19-4.2,36.3-7.9,50.8-7.9c17,0,30,5,37.1,20.1
				c1.5,3.3,2.9,6.4,4,9.4c4.7,3.1,8.5,7.6,11.4,13.7c21.3,44.9,0.4,66.5-13.7,86.9c-43,62.3-171.1,130.7-171.1,130.7
				c-49.8,26.5-90.7,38.1-123.7,38.1c-34.5,0-60.5-12.7-79.2-34.1c-2.8-3.2-9.1-8.3-13.9-14.4c-3.8,2.7-4.8,3.2-8.8,5.9
				c-54.1,36.4-99.4,82.5-136.1,125.2h44.7l23.4,540.8h-111.1l-14.8-334.6L1199,1150.3h-74.1l-61.8-302.5l-96.2,302.5H778
				l-28.5-161.7H621.2l-72.9,161.7h-116l16.2-36.8c-1.1,0.7-2.4,1.5-3.9,2.3c-48.1,27.8-98.6,40.2-146.8,40.2
				c-125,0-234.5-83.4-245.8-197C38.5,823.2,89.4,723.2,195.2,657.7c52.7-32.6,123.1-63,209.6-63c41,0,85.6,6.8,133.7,23.5
				c-7.5,53.1-17.3,110-17.3,110c-28.2-13-63.8-19.7-101.4-19.7c-66.3,0-139,20.7-188.6,64c-95.5,83.5-74.5,174.2-51.9,214.9
				c24.8,44.2,72.3,61.6,115.6,61.6c19.6,0,38.2-3.5,53.6-9.7l9.8-54.4h-86.1l15.8-101.1H494l-31,196.8l207.5-471.1h137.1
				l72.9,437.1l142-437.1h109.9l54.3,296.3l111.7-262.6c-0.2-1-0.3-1.9-0.3-2.9c-12.1-9.2-20.2-22.1-12.3-32.5
				c84-109.3,156.7-190.2,210.5-245.5c-88.6,52.7-204.8,119.9-240,132.1c-6.3,2.2-12.7,3.1-19.2,3.1c-29.2,0-57.6-19.8-60.3-38.8
				c-11.3-9-17.8-20.5-15-30.8c2.6-9.8,10.2-22.8,19.6-36.3c-28.1,17.8-58.3,36.7-79.3,49c-73.6,43-158.8,87.9-201.8,95
				c-2.8,0.5-5.5,0.7-8.2,0.7c-21.6,0-40.2-14.2-47.6-33c-0.4-1-0.8-1.9-1.1-2.9c-6.3-5.5-11.2-12.5-14.3-20.2
				c-8.2-20.3-8.2-31,10.6-60.5c19.2-30.1,201.2-190.3,229.4-218.1C1083.5,187.3,1093.2,181.4,1100.9,181.4 M1606.4,458.8
				c44.4,0,109.6-31.8,188.7-83.9c19.2-12.6,56.6-39.4,80.4-63.7c-50,11.6-138.8,46.4-290.7,144.6
				C1591.3,457.8,1598.5,458.8,1606.4,458.8 M732.9,883.7l-20.3-105.1l-46.9,105L732.9,883.7 M1100.9,171.6
				C1100.9,171.6,1100.9,171.6,1100.9,171.6c-10.8,0-22.4,6.8-38.6,22.9c-8.1,8-29.3,27.3-56.1,51.6
				c-84.5,76.8-161.4,147.5-174.7,168.2c-20.5,32.1-20.8,46.1-11.4,69.4c3.3,8.3,8.5,16,15.1,22.3c0.1,0.3,0.2,0.5,0.3,0.8
				c9.3,23.4,32.1,39.2,56.7,39.2c3.2,0,6.5-0.3,9.8-0.8c46.8-7.7,137.4-56.5,205.2-96.2c12-7,27.7-16.6,46.8-28.5
				c-0.6,1.7-1.1,3.3-1.5,4.8c-3.4,12.7,2.4,27,15.6,38.7c6.2,23.1,37.8,43.3,69.2,43.3c7.8,0,15.4-1.2,22.4-3.7
				c28.3-9.8,106.1-53.3,182.1-97.7c-54,59-108.9,124.6-163.6,195.9c-4.2,5.4-5.9,11.8-5,18.4c1.3,10.1,8.3,18.4,14.3,23.9
				l-96.8,227.7l-48.4-264.1l-1.5-8h-8.2h-109.9h-7.1l-2.2,6.8l-129.6,398.9l-66.3-397.5l-1.4-8.2h-8.3H670.6h-6.4l-2.6,5.9
				l-177.1,402.1l19.2-122.3l1.8-11.3H494H287.9h-8.4l-1.3,8.3l-15.8,101.1l-1.8,11.3h11.5h74.4l-6.7,37.3
				c-13.4,4.6-29.1,7.1-44.9,7.1c-21.7,0-42.6-4.6-60.5-13.2c-20.3-9.8-36-24.4-46.6-43.3c-6.6-11.8-21.4-43.7-17.2-85.6
				c4.3-42.6,26.8-82,67-117.1c44.2-38.6,112.3-61.6,182.2-61.6c37.1,0,70.7,6.5,97.3,18.7l11.6,5.4l2.2-12.6
				c0.1-0.6,9.9-57.6,17.3-110.3l1.1-8l-7.6-2.6c-46-16-92-24.1-136.9-24.1c-40.6,0-81.2,6.7-120.5,19.8
				c-31.6,10.5-63.3,25.6-94.2,44.7c-54.9,34-95.2,77.2-120,128.3C44.7,830,35.4,891.3,42.2,960c5.7,57.1,35.5,109.6,84,147.9
				c47.4,37.4,108.3,58,171.6,58c25.5,0,51.1-3.4,76-10c18.5-4.9,36.7-11.7,54.3-20.2l-4.7,10.6l-6.1,13.8h15.1h116h6.3l2.6-5.8
				l70.3-156h113.8l27,153.6l1.4,8.1h8.2h188.8h7.2l2.2-6.8l84.8-266.5l54.2,265.5l1.6,7.9h8h74.1h6.5l2.6-5.9l127.5-295.3
				l12.9,291.9l0.4,9.4h9.4h111.1h10.3l-0.4-10.2l-23.4-540.8l-0.4-9.4h-9.4h-23c40.4-45,79.8-80.2,119.9-107.2
				c0.7-0.4,1.3-0.8,1.8-1.2c1.6,1.6,3.1,3,4.4,4.3c1.5,1.5,3,2.8,3.7,3.7c21.7,24.9,50.8,37.5,86.6,37.5
				c36.2,0,79.3-13.2,128.3-39.2c1.3-0.7,32.9-17.6,70.2-42.5c50.7-33.7,85.8-64.4,104.3-91.3c1.2-1.8,2.5-3.6,3.9-5.5
				c7.1-9.9,15.2-21.1,18.8-35.8c4.2-16.9,1.5-35.1-8.2-55.4c-3-6.4-7.1-11.7-12.2-15.7c-1-2.5-2.1-4.9-3.2-7.4
				c-8.2-17.3-23.3-25.7-46-25.7c-15.2,0-33,3.7-52.9,8.2c-50.3,11.2-103.3,33.8-166.6,71.4c9.3-10.3,17.3-19.3,21.9-24.7
				c5.1-5.9,7.3-14,6.3-22.7c-1.3-11.2-7.7-22.6-17-30.5c-5.4-17.1-22-33.7-42.8-33.7c-7.2,0-14.2,2-21,5.9
				c-9.6,5.6-19.8,11.5-30.5,17.7c-92,53.4-225.4,130.8-313.6,185.6c31.2-39.6,57.2-64.9,75.9-83.1c14-13.6,24-23.4,30.7-33.3
				c7.8-11.6,10.3-22.9,7.8-35.4c-3.4-16.9-9.3-27.8-17.9-33c-2.4-7.7-5.5-13.7-9.4-18c-5-5.6-11.5-8.5-18.6-8.5
				c-15.5,0-30.5,13.6-43.8,25.5c-2.8,2.6-5.5,5-7.9,6.9c-40,33.6-92.7,68.6-156.7,104.1c-35.8,19.9-78,43.5-115.3,64.4
				c-17.7,9.9-34.3,19.2-49,27.4c35.3-31.4,84.5-74,119.3-104.1c14.9-12.9,27.7-24,37.3-32.3c2.1-1.5,9.2-6.9,15.1-14.8
				c10.1-13.6,11.1-27.8,2.9-39.9c-4-5.9-7.7-11.2-11.6-15.6c-0.9-2.6-2.2-5.1-3.8-7.5C1125.3,185.1,1116.2,171.6,1100.9,171.6
				L1100.9,171.6L1100.9,171.6z M1614.3,448.6c102.2-64.4,173.2-97.9,221.2-115.2c-17.3,13.8-34.9,26.1-45.8,33.2
				c-41.2,27.1-75.9,47-106,60.8C1656.3,439.9,1633,447,1614.3,448.6L1614.3,448.6z M680.8,873.8l28.1-62.8l12.2,62.8L680.8,873.8
				L680.8,873.8z"/>
		</g>
		<g>
			<g>
				<path class="st0" d="M1472.3,1170c-4.3,0-8.5-1.9-11.3-5.2c-2.8-3.3-4-7.7-3.4-11.9l87.9-550.5c1.1-7.2,7.3-12.5,14.6-12.5
					h317.4c4.3,0,8.4,1.9,11.3,5.2c2.8,3.3,4,7.7,3.4,11.9l-20,125.9c-1.1,7.2-7.3,12.5-14.6,12.5h-181.1l-8.8,56.8h153.1
					c4.3,0,8.5,1.9,11.3,5.2c2.8,3.3,4,7.7,3.4,11.9l-20.1,125.9c-1.1,7.2-7.3,12.5-14.6,12.5h-155.9l-9.1,56.9h176.5
					c4.3,0,8.5,1.9,11.3,5.2c2.8,3.3,4,7.7,3.4,11.9l-20.1,125.8c-1.1,7.2-7.3,12.5-14.6,12.5H1472.3z"/>
				<path class="st0" d="M1877.6,604.7L1877.6,604.7 M1877.6,604.7l-20,125.9h-193.8l-13.3,86.4h170.4l-20.1,125.9h-168.5
					l-13.8,86.5h193.8l-20.1,125.8h-319.8l87.9-550.5H1877.6 M1820.9,817L1820.9,817 M1877.6,575.1L1877.6,575.1h-317.4
					c-14.6,0-26.9,10.6-29.2,24.9l-87.9,550.5c-1.4,8.6,1.1,17.3,6.7,23.9c5.6,6.6,13.9,10.4,22.5,10.4h319.8
					c14.5,0,26.9-10.6,29.2-24.9l20.1-125.8c1.4-8.6-1.1-17.3-6.7-23.9c-5.6-6.6-13.9-10.4-22.5-10.4h-159.1l4.4-27.3h143.3
					c14.6,0,26.9-10.6,29.2-24.9l20-125.2c0.3-1.7,0.5-3.5,0.5-5.3c0-16.4-13.3-29.6-29.6-29.6h0H1685l4.2-27.2h168.4
					c14.6,0,27-10.6,29.2-25l19.9-125.2c0.3-1.7,0.5-3.5,0.5-5.3C1907.2,588.3,1894,575.1,1877.6,575.1L1877.6,575.1z M1877.6,634.3
					L1877.6,634.3L1877.6,634.3L1877.6,634.3z"/>
			</g>
			<path class="st1" d="M1871.9,609.6l-18.5,116.1h-193.8l-14.8,96.2h170.4L1796.6,938H1628l-15.4,96.3h193.8l-18.6,116h-309.8
				l86.3-540.7H1871.9 M1883.4,599.8h-11.5h-307.5h-8.4l-1.3,8.3l-86.3,540.7l-1.8,11.4h11.5h309.8h8.4l1.3-8.3l18.6-116l1.8-11.4
				h-11.5h-182.3l12.3-76.7h160.1h8.4l1.3-8.3l18.6-116.1l1.8-11.4h-11.5h-158.9l11.8-76.6h185.4h8.4l1.3-8.3l18.5-116.1
				L1883.4,599.8L1883.4,599.8z"/>
		</g>
		<g>
			<g>
				<path class="st0" d="M2880.3,1170c-4.3,0-8.4-1.9-11.3-5.2c-2.8-3.3-4-7.6-3.4-11.9l40.2-255.3l-131.6-286.7
					c-2.1-4.6-1.7-9.9,1-14.2c2.7-4.2,7.4-6.8,12.5-6.8h138.2c6.1,0,11.6,3.7,13.8,9.4l56,143.1l90.6-145.5c2.7-4.3,7.5-7,12.6-7
					h141.3c5.4,0,10.4,2.9,13,7.7c2.6,4.7,2.4,10.5-0.5,15.1L3050,931.5l-34.1,225.9c-1.1,7.2-7.3,12.6-14.6,12.6H2880.3z"/>
				<path class="st0" d="M3240.1,604.7l-204.3,321.5l-34.6,229h-121l40.9-259.7l-133.5-290.8h138.2l66.8,170.6l106.2-170.6H3240.1
					 M3240.1,575.1h-141.3c-10.2,0-19.7,5.3-25.1,14l-75,120.4l-45.3-115.6c-4.4-11.3-15.4-18.8-27.6-18.8h-138.2
					c-10.1,0-19.5,5.1-24.9,13.6s-6.2,19.2-2,28.3l129.7,282.7l-39.5,250.9c-1.3,8.6,1.1,17.3,6.7,23.9c5.6,6.6,13.9,10.4,22.5,10.4
					h121c14.6,0,27.1-10.7,29.3-25.2l33.6-222.8l200.9-316.2c5.8-9.1,6.2-20.7,1-30.1C3260.9,580.9,3250.9,575.1,3240.1,575.1
					L3240.1,575.1z M3240.1,634.3L3240.1,634.3L3240.1,634.3L3240.1,634.3z"/>
			</g>
			<path class="st1" d="M3231.2,609.6l-200,314.8l-34.1,225.9H2886l40.3-255.5l-130.9-285.2h127.2l69.1,176.6l109.9-176.6H3231.2
				 M3249.1,599.8h-17.9h-129.6h-5.5l-2.9,4.6l-99.5,159.9l-62-158.3l-2.4-6.2h-6.7h-127.2H2780l6.4,13.9l129.7,282.5l-39.8,252.6
				l-1.8,11.3h11.5h111.1h8.4l1.3-8.4l33.8-223.8l198.9-313.1L3249.1,599.8L3249.1,599.8z"/>
		</g>
		<g>
			<g>
				<path class="st0" d="M2606.8,1180.3c-16,0-32-1.8-47.5-5.4c-65.4-15.2-119.5-60-152.5-126.2c-32.3-64.9-40.4-142.9-22.7-219.7
					c32-138.7,141.9-239.3,261.5-239.3c16,0,32,1.8,47.7,5.5c65.4,15.1,119.6,59.9,152.5,126.1c32.3,64.9,40.4,142.9,22.7,219.6
					C2836.3,1079.6,2726.3,1180.3,2606.8,1180.3L2606.8,1180.3z M2648,734.5c-19.9,0-41.4,9.9-60.7,28
					c-21.3,19.9-38.4,47.8-49.3,80.6c-13.3,39.7-15.8,81.5-7.1,117.5c8.3,34.1,25.5,58.6,48.5,68.8c7.7,3.4,15.8,5.2,24.1,5.2
					c19.8,0,41.3-9.9,60.6-28c21.3-19.9,38.3-47.9,49.2-80.7c13.2-39.7,15.7-81.4,7-117.5c-8.3-34.1-25.5-58.6-48.5-68.9
					C2664.4,736.2,2656.3,734.5,2648,734.5z"/>
				<path class="st0" d="M2645.5,604.5c14.9,0,29.8,1.7,44.3,5.1c61,14.1,111.7,56.1,142.6,118.3c30.8,61.9,38.4,136.3,21.5,209.7
					c-30.5,132.1-134.5,227.9-247.2,227.9c0,0,0,0,0,0c-14.8,0-29.7-1.7-44.2-5c-61-14.2-111.6-56.2-142.6-118.4
					c-30.8-61.9-38.5-136.3-21.6-209.7C2428.9,700.4,2532.8,604.5,2645.5,604.5 M2603.6,1049.3c23.6,0,48.7-11.3,70.7-32
					c23.1-21.6,41.4-51.7,53.2-86.8c29.1-87.5,6.9-179.3-49.5-204.5c-9.5-4.2-19.6-6.4-30-6.4c-23.6,0-48.8,11.3-70.8,31.9
					c-23.1,21.6-41.5,51.6-53.2,86.8c-29.2,87.5-7,179.3,49.5,204.5C2583,1047.2,2593.2,1049.3,2603.6,1049.3 M2606.8,1165.5
					C2606.8,1165.5,2606.8,1165.5,2606.8,1165.5C2606.8,1165.5,2606.8,1165.5,2606.8,1165.5 M2606.8,1165.5
					C2606.8,1165.5,2606.8,1165.5,2606.8,1165.5C2606.8,1165.5,2606.8,1165.5,2606.8,1165.5 M2645.5,574.9
					c-31.6,0-63.1,6.5-93.4,19.4c-29.1,12.3-56.4,30.1-81,52.9c-24.4,22.5-45.5,49.1-62.7,79.2c-17.6,30.7-30.6,64.1-38.8,99.4
					c-18.5,80.1-10,161.6,23.9,229.6c35,70.2,92.7,117.8,162.4,134c16.7,3.9,33.8,5.8,50.9,5.8c31.6,0,63.1-6.5,93.4-19.4
					c29.1-12.3,56.4-30.1,81-52.9c24.4-22.5,45.5-49.1,62.7-79.2c17.6-30.7,30.7-64.2,38.8-99.4c18.5-80,10-161.6-23.9-229.5
					c-35-70.3-92.7-117.8-162.5-134C2679.8,576.9,2662.6,574.9,2645.5,574.9L2645.5,574.9z M2603.6,1019.7c-6.2,0-12.3-1.3-18-3.9
					c-18.5-8.3-33.1-29.7-40.2-58.8c-3.9-16-5.3-33.4-4.4-51.7c1-19.3,4.8-38.7,11.1-57.6c10.2-30.5,25.9-56.3,45.4-74.5
					c16.3-15.2,34.7-24,50.6-24c6.2,0,12.2,1.3,17.9,3.8c18.4,8.3,33.1,29.7,40.1,58.8c3.9,16,5.3,33.4,4.4,51.7
					c-1,19.3-4.7,38.7-11,57.5c-10.2,30.5-25.8,56.3-45.3,74.6C2637.8,1011,2619.4,1019.7,2603.6,1019.7L2603.6,1019.7z"/>
			</g>
			<path class="st1" d="M2645.5,609.4c14.4,0,28.8,1.6,43.2,4.9c123.1,28.5,194.9,172.7,160.5,322.1
				c-30.5,132.1-133.8,224.1-242.4,224.1c-14.3,0-28.7-1.6-43.1-4.9c-123-28.6-194.9-172.7-160.5-322.2
				C2433.7,701.5,2536.9,609.4,2645.5,609.4 M2603.6,1054.2c50.8,0,103.9-48,128.5-122.2c30-90,6.7-184.2-52.1-210.5
				c-10.4-4.6-21.1-6.8-32-6.8c-50.9,0-104,48-128.7,122.1c-30,90.1-6.6,184.3,52.1,210.5C2581.9,1052,2592.7,1054.2,2603.6,1054.2
				 M2645.5,599.6c-55.4,0-111.2,23.1-157.1,65.1c-22.6,20.7-42.3,45.3-58.3,73.2c-16.5,28.7-28.8,60.2-36.5,93.4
				c-8.7,37.6-11,75.5-7,112.7c3.9,36,13.6,69.7,28.9,100.4c15.3,30.8,35.5,56.9,59.9,77.5c25.4,21.5,54.3,36.1,85.9,43.4
				c14.8,3.4,30.1,5.2,45.3,5.2c55.4,0,111.2-23.1,157.1-65.1c22.7-20.7,42.3-45.3,58.3-73.2c16.6-28.8,28.9-60.2,36.5-93.5
				c8.7-37.6,11-75.5,7-112.6c-3.9-36-13.6-69.7-28.9-100.4c-15.3-30.8-35.5-56.9-59.9-77.5c-25.4-21.5-54.4-36.1-86-43.4
				C2676.1,601.4,2660.8,599.6,2645.5,599.6L2645.5,599.6z M2603.6,1044.4c-9.7,0-19.2-2-28.1-6c-25.6-11.4-44.7-38-53.8-74.7
				c-9.4-38-6.9-82,7-123.7c11.5-34.4,29.4-63.7,51.9-84.7c21.1-19.7,45.1-30.6,67.5-30.6c9.7,0,19.1,2,28,5.9
				c25.6,11.5,44.7,38,53.8,74.8c9.4,38,6.9,81.9-7,123.7c-11.4,34.4-29.4,63.7-51.9,84.8C2649.9,1033.5,2626,1044.4,2603.6,1044.4
				L2603.6,1044.4z"/>
		</g>
		<g>
			<g>
				<path class="st0" d="M1949.4,1169c-4.3,0-8.5-1.9-11.3-5.2c-2.8-3.3-4-7.7-3.4-11.9l86.7-542.4c0.6-3.8,2.6-7,5.3-9.2
					c2.5-4.4,7.3-7.4,12.7-7.4c0.7,0,66.4-0.4,127.7-0.4c35.9,0,63.2,0.1,81,0.4c24.8,0.4,54,10.7,79.9,28.2
					c28.5,19.3,50.8,45.8,62.7,74.6c11.9,28.7,14,58.9,6.2,89.9c-7.4,29.2-23.6,58.5-48.2,87.2c21.9,23.4,36.4,48.8,43,75.7
					c7.2,29.3,5.1,59.2-6.4,88.9c-13.7,35.5-40.4,68.8-75.2,93.7c-33.6,24.1-72,37.9-105.2,37.9H1949.4z M2183.2,1025.4
					c18.8,0,34.1-4.6,44.3-13.3c7.6-6.5,12-15.2,12-24c0-9.5-4-16.9-12.3-22.4c-8.1-5.5-19.7-8.6-31.8-8.6h-76.3l-10.8,68.4H2183.2z
					 M2196.5,807.4c17.1,0,27.6-6.9,33.4-12.6c7-6.9,10.9-16,10.9-24.8c0-8.8-4.2-23.7-32.1-23.7h-55.6l-10.4,61.1H2196.5z"/>
				<path class="st0" d="M2167.3,607.3c35.9,0,63,0.1,80.7,0.4c22,0.3,48.2,9.7,71.9,25.7c26.1,17.7,46.5,41.8,57.4,68
					c10.6,25.7,12.5,52.8,5.5,80.6c-7.7,30.4-25.9,61.1-54.2,91.3c25.6,24.2,42.1,50.7,49,78.7c6.5,26.3,4.5,53.2-5.8,80.1
					c-12.7,32.9-37.5,63.8-70,87c-31.1,22.3-66.4,35.1-96.6,35.1h-255.8l86.7-542.4l3.6,0.6l0-4.7
					C2040.3,607.7,2106.3,607.3,2167.3,607.3 M2125.2,822.2h71.4c22.2,0,36.1-9.2,43.9-16.9c9.7-9.7,15.3-22.6,15.3-35.3
					c0-18.6-12.3-38.5-46.9-38.5h-68.1L2125.2,822.2 M2090.9,1040.2h92.3c22.3,0,41-5.8,53.9-16.9c10.9-9.3,17.2-22.2,17.2-35.3
					c0-31.5-30.5-45.8-58.9-45.8h-88.9L2090.9,1040.2 M2167.3,577.7c-61.2,0-127.2,0.4-127.8,0.4c-9.9,0.1-18.7,5-24,12.5
					c-4.6,4.4-7.6,10.2-8.6,16.6l-86.7,542.4c-1.4,8.6,1.1,17.3,6.7,23.9c5.6,6.6,13.9,10.4,22.5,10.4h255.8c18.5,0,38-3.7,58.1-11
					c19.3-7,38.1-17,55.8-29.7c37.1-26.6,65.7-62.2,80.4-100.4c12.6-32.6,14.9-65.5,6.9-97.8c-6.3-25.6-19.1-49.9-37.9-72.5
					c21.6-27.3,36-55.2,43.1-83.2c8.6-34.1,6.3-67.5-6.8-99.2c-13.1-31.5-37.3-60.4-68.1-81.2c-28.7-19.4-59.9-30.3-88-30.8
					C2230.6,577.8,2203.3,577.7,2167.3,577.7L2167.3,577.7z M2165.6,761.1h43.2c11,0,14.7,2.9,15.6,3.7c1.4,1.4,1.7,3.5,1.7,5.1
					c0,4.9-2.5,10.2-6.6,14.3c-5.5,5.5-13.2,8.3-23,8.3h-36.3L2165.6,761.1L2165.6,761.1z M2131.7,971.8h63.6
					c9.1,0,17.9,2.3,23.6,6.1c4.8,3.2,5.7,6.3,5.7,10.2c0,4.4-2.5,9.1-6.8,12.7c-7.4,6.3-19.7,9.8-34.7,9.8h-57.6L2131.7,971.8
					L2131.7,971.8z"/>
			</g>
			<path class="st1" d="M2167.3,612.2c30.9,0,60.7,0.1,80.7,0.4c74.8,1.2,214.5,115.2,73.6,260.9c137,124-13.5,275.7-116.4,275.7
				c-72.4,0-250,0-250,0l85.8-536.7h-1.3C2039.7,612.6,2105.6,612.2,2167.3,612.2 M2119.3,827.1c0,0,15.9,0,77.2,0
				c74.7,0,90.7-100.6,12.3-100.6c-69.8,0-72.3,0-72.3,0L2119.3,827.1 M2085.2,1045.1c0,0,36.7,0,98,0c98,0,100.4-107.8,12.2-107.8
				c-69.8,0-93.1,0-93.1,0L2085.2,1045.1 M2167.3,602.4c-61,0-127,0.4-127.7,0.4l0,9.6l-8.4-1.3l-85.8,536.7l-1.8,11.4h11.5h250
				c31.2,0,67.5-13.1,99.4-36c33.2-23.8,58.7-55.5,71.7-89.2c10.7-27.8,12.7-55.7,6-83c-6.8-27.7-22.6-53.8-46.9-77.7
				c27-29.7,44.6-59.9,52.1-89.9c7.3-28.9,5.3-57-5.7-83.7c-24.4-58.8-88.4-96-133.7-96.8C2230.4,602.5,2203.2,602.4,2167.3,602.4
				L2167.3,602.4z M2144.8,736.4h64c14,0,25.2,3.6,32.5,10.5c7.8,7.4,9.5,16.6,9.5,23.1c0,11.4-5.1,23-13.9,31.8
				c-7.1,7.1-19.9,15.5-40.4,15.5H2131L2144.8,736.4L2144.8,736.4z M2110.6,947.1h84.7c17.3,0,31.6,4.6,41.3,13.2
				c8.2,7.3,12.7,17.1,12.7,27.7c0,11.8-5.5,23-15.5,31.5c-12.1,10.3-29.6,15.7-50.7,15.7h-86.5L2110.6,947.1L2110.6,947.1z"/>
		</g>
		<g>
			<g>
				<path class="st0" d="M83.2,602.9c-26.5,0-43.2-10.9-49.8-32.6c-12.7-9.4-18.7-25.8-18.7-50.7v-16.7c0-24.1,18.1-44.3,42.2-46.8
					l49.5-4.9c1.5-0.1,3-0.2,4.5-0.2c8.7,0,17.3,2.5,24.7,7.3l7.5,4.8c4.6,3,9.8,4.6,15,4.6l1.6,0c83.8,0,319.8-36.6,476-60.9
					l17.5-2.7c21.8-3.4,48.3-7.4,68.9-12c-23.5-8.6-53.1-17.5-85.1-25.4c-13.9-3.5-28.7-6.8-43.1-10c-70.6-15.7-143.6-32-175.3-81
					c-2-3.1-3.8-6.5-5.4-10.1c-3.8-4.2-7.1-8.5-10-13c-10.2-15.8-15.1-38.8-13.5-63.3c1.7-26,10.5-46.4,24.1-55.9
					c34.4-24,109.5-53.8,196.1-77.7c94.4-26,187-41,254.1-41c8.6,0,17,0.2,24.8,0.7c45.1,2.7,76.9,8.2,100.2,17.3
					c24.3,9.5,39.5,23.1,46.4,41.7c9.7,9.2,15.9,20.5,18.3,33.6c4.9,26.6,10.1,75.6-10.8,105c-23.3,32.9-67.5,49.9-99.8,62.4
					c-8.5,3.3-15.8,6.1-20.8,8.5c-4.4,2.1-9,3.2-13.6,3.2c-5.8,0-24.2-2.2-32.3-28.3c-7.3-5.1-15.2-15.1-18.1-35.1
					c-4.3-30.3,5.9-65.3,33.9-73.4c6.3-1.8,19.5-5.7,33.8-10.3c-8.4-0.6-17.3-0.9-26.7-0.9c-47.8,0-108.2,7.6-179.6,22.7
					c-89.4,18.9-154.3,43.4-194.6,61.6c14,3.5,29.5,7.2,46.1,11.2c62.5,14.8,133.4,31.6,185.8,56.1c22,10.2,40.4,28.3,52.1,51.1
					c22.4,26.3,32.8,62.7,27.3,95.6c-4.4,26.4-18.7,47.4-40,59.3c-11.4,6.3-45.2,19.7-143.6,38.8c-70.8,13.7-155,26.3-231.1,34.6
					c-58.1,6.3-112.8,11.3-165.8,16.2c-56.5,5.2-109.9,10.1-154.8,15.5C94.5,602.5,88.6,602.9,83.2,602.9L83.2,602.9z"/>
				<path class="st0" d="M864.3,29.6c8.3,0,16.4,0.2,23.9,0.7c84.9,5.1,125.4,20.9,134.7,52.6c9.1,7.6,14.5,16.7,16.6,27.9
					c3.6,19.5,10.1,67.8-8.3,93.7c-20.7,29.3-62.6,45.4-93.1,57.1c-8.8,3.4-16.4,6.3-21.9,9c-2.4,1.2-4.8,1.7-7.2,1.7
					c-9.4,0-16.5-8.7-19.6-23.6c-8.1-2.4-14-12.2-16.1-27.1c-3.3-23.4,3.7-51.4,23.4-57.1c18.3-5.3,62.9-18.7,83.4-29.1
					c0.5-0.2,0.9-0.5,1.3-0.7c-21.5-6.9-49-10.4-81.8-10.4c-48.8,0-110.3,7.8-182.7,23c-115.5,24.4-191,58.2-225.8,76.2
					c-2.6,1.3-4.9,2.6-6.9,3.8c21.5,6.9,50.7,13.8,83.9,21.7c61.8,14.7,131.9,31.3,183,55.1c19.5,9.1,35.8,25.4,45.9,46
					c20.4,23.1,30,55.6,25.1,84.9c-3.7,21.8-15.3,39.2-32.6,48.8c-37.9,21-210.4,54.4-369.1,71.6c-57.9,6.3-112.6,11.3-165.5,16.1
					c-56.6,5.2-110.1,10.1-155.2,15.6c-6.2,0.8-11.5,1.1-16.3,1.1c0,0,0,0,0,0c-22,0-33.2-8.2-36.8-27.1
					c-8.7-4.3-16.8-13.5-16.8-41.3v-16.7c0-16.5,12.4-30.3,28.9-32.1l49.4-4.9c1-0.1,2-0.2,3-0.2c5.9,0,11.7,1.7,16.7,4.9l7.5,4.8
					c7,4.6,15,7,23.1,7l1.6,0c85,0,321.7-36.7,478.3-61.1l17.5-2.7c45.5-7,92.3-14.2,107.1-25.6c-25.1-12.8-69.8-27.9-121.9-40.9
					c-14.1-3.5-29-6.8-43.4-10c-67.7-15.1-137.7-30.6-166.1-74.5c-1.9-3-3.7-6.4-5.2-10.2c-3.9-4.1-7.4-8.4-10.2-12.9
					c-8.4-13-12.5-33.2-11.1-54.2c1.4-21.2,8.1-37.9,17.9-44.8C455.6,122.4,529,93.5,614.1,70C707.3,44.3,798.5,29.6,864.3,29.6
					 M864.3,0c-68.3,0-162.4,15.1-258,41.5C516.8,66.2,441.8,96,405.6,121.3c-17.6,12.3-28.4,36.1-30.4,67.1
					c-1.8,27.5,3.9,53.9,15.8,72.3c2.9,4.5,6.3,8.9,9.9,13.1c1.7,3.5,3.5,6.9,5.5,9.9c16.3,25.1,43.3,44.7,82.6,59.7
					c31.5,12,67.3,20,101.9,27.7c14.2,3.2,29,6.4,42.7,9.9c9.2,2.3,18.1,4.7,26.8,7.1c-3.1,0.5-6.2,1-9.3,1.4l-17.6,2.7
					c-155.7,24.2-391,60.7-473.7,60.7l-1.5,0c0,0-0.1,0-0.1,0c-2.3,0-4.7-0.7-6.9-2.1c-0.1,0-0.1-0.1-0.2-0.1l-7.5-4.8
					c0,0-0.1,0-0.1-0.1c-9.8-6.3-21.1-9.6-32.7-9.6c-2,0-4,0.1-6,0.3l-49.4,4.9c-0.1,0-0.1,0-0.2,0C23.8,444.7,0,471.2,0,502.9v16.7
					c0,17.5,2.7,31.4,8.2,42.6c3.2,6.6,7.5,12.2,12.6,16.9c4.1,11,10.7,19.9,19.6,26.4c11.2,8.2,25.2,12.2,42.8,12.2
					c6,0,12.5-0.4,19.9-1.3c44.6-5.4,97.9-10.3,154.3-15.5c53-4.9,107.8-9.9,166-16.2c76.4-8.3,161.1-20.9,232.3-34.7
					c52.7-10.2,121.1-25.5,148-40.4c12.8-7.1,23.5-16.9,31.7-29.3c7.9-11.9,13.2-25.5,15.8-40.5c3.2-18.8,1.8-38.9-3.8-58.1
					c-5.2-17.7-14.1-34.3-25.7-48.3c-13.2-25-33.7-44.9-58.2-56.2c-53.8-25.1-125.4-42-188.6-57c-0.7-0.2-1.3-0.3-2-0.5
					c38-14.5,88-30.3,150.1-43.4c51.8-10.9,97.7-17.9,136.9-20.8c-4.7,5.9-8.6,13-11.5,21c-5.3,14.9-6.9,32.4-4.5,49.3
					c2.6,18.2,9.7,32.7,20.2,41.9c9.5,25,28.6,34.2,44.8,34.2c6.8,0,13.6-1.6,20-4.7c4.5-2.2,11.6-4.9,19.7-8
					c34.1-13.1,80.7-31.1,106.6-67.6c11.5-16.2,17.5-38.4,17.8-66c0.3-19.7-2.4-38.2-4.6-50.3c-2.8-15.2-9.6-28.3-20.3-39.3
					c-8.9-20.8-26.8-36.6-53.6-47.1C969.9,9.4,936.6,3.5,890,0.7C881.8,0.2,873.2,0,864.3,0L864.3,0z"/>
			</g>
			<path class="st1" d="M864.3,34.5c8.1,0,16,0.2,23.6,0.7c91.5,5.5,123.7,23.2,130.7,50.5c9.4,7.4,14.2,16.1,16.1,26
				c4.8,25.9,8.3,67.7-7.5,90c-25.8,36.4-88.2,52.5-113.1,64.5c-1.8,0.9-3.5,1.3-5.1,1.3c-8,0-13.4-10.1-15.3-23c0,0-0.1,0-0.1,0
				c-20.6,0-23.9-66.9,4.5-75.2c27.8-8.1,65.9-20.1,84.3-29.5c4.4-2.2,7.6-4.4,9.8-6.5c-2.8-1.1-5.5-2.1-7.9-2.9
				c-19.9-6.6-47.1-11.1-84.6-11.1c-44.9,0-104.4,6.4-183.7,23.1c-114.4,24.2-189.4,57.2-227,76.6c-6.6,3.4-11.9,6.6-15.6,9.6
				c57.6,21,193.4,41.5,275.7,79.8c20.1,9.3,34.9,25.6,43.9,44.3c34.6,38.6,35.4,103.8-5.8,126.6c-38,21-211.1,54.1-367.3,71
				c-122.2,13.3-235,21.3-320.8,31.7c-5.9,0.7-11.1,1.1-15.7,1.1c-20.8,0-29.7-7.6-32.4-25.6c-12.2-4.9-16.3-16.8-16.3-37.9v-16.7
				c0-14,10.6-25.7,24.6-27.2l49.4-4.9c0.8-0.1,1.7-0.1,2.5-0.1c5,0,9.9,1.5,14.1,4.2l7.5,4.8c7.7,5,16.6,7.8,25.7,7.8
				c0.5,0,1.1,0,1.6,0c88.7,0,343-40,496.6-63.8c61.3-9.4,105.1-16.7,114.1-31.8c-24.8-14.1-73.7-30.6-128.6-44.3
				c-78.8-19.6-173.3-31-206.6-82.5c-2-3.1-3.7-6.5-5.1-10.2c-3.9-4-7.4-8.3-10.3-12.9c-16.9-26.1-12.6-79.7,5.4-92.3
				C491.3,103.5,720,34.5,864.3,34.5 M864.3,24.7c-66.2,0-157.9,14.8-251.5,40.6c-85.6,23.6-159.6,52.8-193.1,76.3
				c-15.8,11.1-19.2,37.6-19.9,48.5c-1.5,22,3,43.4,11.9,57.2c2.9,4.5,6.3,8.8,10.2,12.9c1.5,3.7,3.3,7.1,5.3,10.1
				c29.5,45.6,100.5,61.4,169.2,76.7c14.4,3.2,29.3,6.5,43.3,10c46.4,11.6,86.9,24.7,112.6,36.5c-4.7,2.1-11.6,4.4-21.4,6.8
				c-19.1,4.7-44.5,8.8-75.8,13.6l-17.6,2.7c-156.5,24.3-392.9,61-477.5,61c-0.5,0-1,0-1.5,0h0h0c-7.2,0-14.2-2.1-20.4-6.2l0,0l0,0
				l-7.5-4.8c-5.9-3.7-12.6-5.7-19.4-5.7c-1.2,0-2.4,0.1-3.5,0.2L58.1,466l0,0l0,0c-19,2-33.3,17.9-33.3,37v16.7
				c0,17.1,2.2,35.3,17.4,44.5c4.6,19.7,17.8,28.9,41.2,28.9c5,0,10.5-0.4,16.9-1.2c45-5.5,98.5-10.4,155.1-15.5
				c52.9-4.9,107.7-9.9,165.6-16.2c75.2-8.1,158.5-20.5,228.7-34.1c42-8.1,116.4-23.8,142.2-38.1c18.7-10.4,31.1-28.9,35.1-52.3
				c5.1-30.5-4.7-64.3-25.8-88.4c-10.6-21.3-27.6-38.2-48-47.7c-51.5-24-121.9-40.7-183.9-55.4c-27.6-6.5-52.4-12.4-72.3-18.2
				c36-18.3,109.9-50.4,221-73.9c72.1-15.2,133.2-22.9,181.7-22.9c26.1,0,48.8,2.2,67.6,6.7c-22.3,9.3-56.5,19.5-71.9,23.9
				c-11,3.2-19.6,12.7-24.1,26.6c-3.5,10.8-4.5,23.9-2.8,35.9c1.2,8.1,3.5,15.1,6.7,20.4c3.1,5.1,6.7,7.9,10,9.6
				c3.9,15.7,12.5,24.9,23.8,24.9c3.1,0,6.3-0.8,9.3-2.2c5.4-2.6,12.9-5.5,21.6-8.8c31.1-12,73.7-28.4,95.3-58.9
				c8.2-11.5,12.6-28,13.3-49c0.6-18.5-2-36.6-4.2-48.4c-2.2-11.9-7.8-21.7-17.1-29.8c-5.2-16.2-17.8-28.2-38.4-36.9
				c-22.1-9.3-54.9-15.1-100.2-17.8C880.9,24.9,872.7,24.7,864.3,24.7L864.3,24.7z"/>
		</g>
		<g>
			<g>
				<path class="st0" d="M2008.8,573.6c-25.6,0-48.5-4.4-68-13.2c-17.5-7.8-30.8-21.3-38.5-39.1c-16.7-17.1-24.6-41.5-22.3-69.1
					c2.4-29.9,16.8-62.6,41.6-94.6c27.7-35.8,67.7-70.5,119-103.2c37.7-24,76.4-44.7,111.7-59.6c42.9-18.1,79.5-27.4,108.8-27.4
					c47.2,0,67.6,23.5,76.4,44.6c11.9,11.7,19.2,27.6,21.7,47.5c1.4,11.1-0.2,21.9-4.9,32.6c40-30.4,78.7-63.1,117.9-99.6
					c-4.5-8-8-16.8-10.7-26.4c-4.3-15.6-5.6-30.7-3.8-44.8c6.3-48.1,41.1-53.3,55.8-53.3c6.2,0,12.9,0.8,19.9,2.4
					c23.5,5.3,41.1,19.8,49.9,41.1c14.1,13.6,21.6,33.1,21.8,56.6c0.1,15.3-2.9,29.9-6.7,40.9c18.6,17,34.5,33.3,44.3,52.5
					c7.1,8.6,12.5,17,16.5,25.4c17.6,36.9,9.8,77.3-4.3,114.5c105.1-20.8,219.3-20.8,270.5-20.8h2.3c91.1,0,159.7,1.9,210,5.8
					c74.5,5.8,96.4,15,106.3,27c4,4.7,6.9,10.5,8.9,17.1c2.6,1.8,4.7,3.8,6.6,6c11.3,13.5,14.4,34.4,9.1,62.1
					c-3.9,20.7-21.3,35.5-42.3,36.1c0,0-54.2,1.3-54.3,1.3c0,0-0.4,0-0.4,0c-16.2,0-30.2-10.8-34.2-26.4l-0.7-2.5
					c-0.5-0.3-1-0.7-1.5-1c-42.2-5.1-89.4-7.7-140.3-7.7c-120.5,0-264.4,14.9-394.6,40.8c-6,1.2-11.7,1.8-17.1,1.8
					c-25,0-43.8-13-52.3-36c-13.1-11.5-20.1-29.8-20.5-53.5c-0.3-18.9,3.7-38,7.9-48.4c9-22.9,17.1-40.6,23.6-54.8
					c16.5-36.1,19.3-43.1,10.6-59.5c-2.7-3.6-5.8-7.5-9.4-12.1c-101.4,90.3-202.2,164.7-292.2,215.6
					C2156.5,545.4,2072.8,573.6,2008.8,573.6L2008.8,573.6z M2014.4,449c-3.2,4.3-5.8,8.1-8,11.5c3.9-0.5,7.7-1.1,11.3-1.8
					c11.3-2,22.4-4.3,33.2-6.9c-0.7,0-1.4,0-2,0C2037,451.9,2025.4,450.9,2014.4,449z"/>
				<path class="st0" d="M2513.5,82.7c5.1,0,10.7,0.7,16.7,2c20,4.5,34,16.6,40.6,35.2c28.9,24.8,20,72.6,10.1,93
					c22.2,19.9,39.8,36.9,49.3,56.6c6.9,8.2,12,15.9,15.7,23.6c18.6,39.2,4.3,84.7-15.6,128.7c110.4-26.5,239.2-26.5,295.2-26.5h2.2
					c90.7,0,159,1.9,208.8,5.8c74.9,5.8,90.7,15.2,96.1,21.7c3.6,4.3,6,10,7.3,17c3.6,1.8,6.3,3.8,8.1,6c5.7,6.8,11.4,21.1,6,49.9
					c-2.6,13.8-14.2,23.7-28.2,24l-54,1.3l-0.3,0c-9.4,0-17.6-6.3-19.9-15.3l-1.2-4.4c-0.5-1.9-1.4-3.6-2.6-5.1
					c-2.4-1-4.5-2.5-6.3-4.3c-0.7-0.2-1.4-0.4-2.2-0.5c-43.4-5.4-92-8.1-144.6-8.1c-121.4,0-266.3,15-397.5,41.1
					c-5,1-9.8,1.5-14.2,1.5c-20.2,0-33.8-10.4-39.6-30c-27.2-19.2-18-71.4-11.5-87.7c8.9-22.5,16.9-40,23.3-54
					c17-37.1,22.7-49.6,9.6-73.7c-5.1-6.8-11.3-14.6-20.2-25.5c-104.5,94.4-208.6,171.8-301.2,224.2
					c-92.1,52.1-173.2,79.6-234.6,79.6c0,0,0,0,0,0c-23.5,0-44.4-4-62-11.9c-14.9-6.7-25.9-18.4-32-34c-15-14-22.1-35-20.1-59.5
					c2.2-27,15.5-57,38.5-86.8c26.6-34.4,65.4-68,115.3-99.8c37.1-23.6,74.9-43.8,109.5-58.4c41.1-17.4,75.8-26.2,103-26.2
					c33.1,0,54.6,12.9,63.8,38.3c10.8,9.4,17.3,23.1,19.6,40.8c4.9,38.7-40.4,68.3-88.5,99.5c-5.5,3.6-11.1,7.2-16.6,10.9
					c-23.1,15.3-105.1,65.4-190.5,65.4c-14.2,0-27.9-1.5-40.6-4.3c-14,17.8-22.8,32.3-26.2,43.3c2.6,0.3,5.4,0.5,8.5,0.5
					c10,0,20.6-1.6,29.6-3.2c111.1-19.4,199.6-70.9,264.3-113.7c73.2-48.4,139.1-100.8,206.9-164.8c-6.9-9.4-12-20.2-15.5-32.8
					c-3.8-13.7-4.9-26.8-3.4-39C2476.8,89.7,2497.2,82.7,2513.5,82.7 M2261.7,263.5c-25.7,4.9-56.2,16.5-89.5,34.2
					c-27.5,14.6-55.5,32.6-79.6,51.1C2145.2,332.8,2215.7,299.1,2261.7,263.5 M2513.5,53.1c-16.5,0-31.4,4.8-43.1,13.8
					c-15.1,11.7-24.3,29.3-27.3,52.3c0,0,0,0.1,0,0.1c-2,16.1-0.6,33.1,4.2,50.6c0,0,0,0,0,0.1c1.9,6.8,4.1,13.1,6.8,19.1
					c-26.7,24.6-53.2,47.4-80.1,68.9c0-0.1,0-0.3-0.1-0.4c-2.8-22.1-10.8-40.2-23.9-54c-14.9-32.9-46.2-51-88.9-51
					c-31.2,0-69.8,9.6-114.5,28.5c-36.1,15.2-75.4,36.3-113.9,60.7c-52.7,33.6-94.1,69.5-122.8,106.6
					c-26.5,34.3-41.9,69.7-44.6,102.5c-2.5,31,6.2,58.7,24.6,78.7c9.3,20,24.8,35.3,44.9,44.3c21.4,9.6,46.3,14.4,74,14.4
					c33.8,0,72.6-7.3,115.3-21.8c41.4-14,86.4-34.8,133.9-61.6c87.3-49.4,184.6-120.5,282.6-206.7c2.2,4.9,1.9,6.9,1.5,9
					c-1.3,7.1-6.5,18.6-13.9,34.6c-6.6,14.4-14.8,32.3-23.9,55.5c-4.3,11-9.3,31.7-8.9,54.1c0.3,19,4.7,44.1,22.8,61.9
					c4.9,11.8,12.2,21.4,21.7,28.6c11.8,8.9,26.7,13.7,43.1,13.7c6.3,0,13-0.7,19.9-2.1c129.4-25.7,272.2-40.5,391.8-40.5
					c47,0,90.8,2.2,130.3,6.7c7.6,18.5,25.8,31,46.4,31c0.1,0,0.2,0,0.3,0l0.3,0c0.1,0,0.3,0,0.4,0l54-1.3c0,0,0,0,0.1,0
					c13.5-0.3,26.6-5.3,36.8-14c10.2-8.7,17.2-20.8,19.7-34.1c3.1-16.6,3.6-31.4,1.3-44c-2.2-12-6.8-22.2-13.6-30.4
					c-1.6-1.9-3.3-3.7-5.2-5.3c-2.5-6.6-5.9-12.5-10.1-17.7c-7.8-9.4-19.2-15.8-36.8-20.7c-18.1-5-44.2-8.8-79.7-11.6
					c-50.6-3.9-119.7-5.8-211.1-5.8h-2.2c-47.7,0-149.5,0-248.6,16.6c2.5-9,4-16,4.9-21.6c5.1-29.8,2.1-56.8-9.1-80.3
					c-4.3-9.1-10.1-18-17.5-27.2c-9.5-18.1-23.9-33.8-39.8-48.9c3.1-11.8,4.7-24.5,4.7-36.5c-0.2-26.4-8.5-48.7-24.1-64.9
					c-11-24.4-31.7-41-59.1-47.1C2528.6,54,2520.8,53.1,2513.5,53.1L2513.5,53.1z"/>
			</g>
			<path class="st1" d="M2513.5,87.6c4.8,0,10.1,0.7,15.6,1.9c21.2,4.7,32.4,17.8,37.4,33.3c28.5,23.1,19,72.8,8.2,91.3
				c22.1,19.7,41.5,37.6,51.3,58.1c0,0,0,0,0,0.1c6.3,7.4,11.6,15,15.4,23c19.9,41.9-0.4,92.1-19.2,132.5c-0.2,0.5-0.4,0.9-0.6,1.4
				c111.2-28.7,244.6-28.9,303.9-28.9c0.8,0,1.5,0,2.2,0c169.9,0,285.6,6.8,301.1,25.6c3.8,4.5,5.8,10.6,6.6,17.2
				c4.1,1.8,7.1,3.7,8.8,5.8c9.1,10.9,7.8,30.8,4.9,45.9c-2.2,11.4-11.9,19.7-23.5,20l-54,1.3c-0.1,0-0.1,0-0.2,0
				c-7.1,0-13.4-4.7-15.1-11.6l-1.2-4.4c-0.8-3.1-2.3-5.8-4.4-8c-2.5-0.9-4.7-2.4-6.5-4.4c-1.4-0.5-2.8-0.9-4.3-1.1
				c-45.7-5.7-94.8-8.2-145.2-8.2c-138.2,0-285.6,18.7-398.5,41.2c-4.8,1-9.2,1.4-13.2,1.4c-21.1,0-31.3-12.4-35.4-28.2
				c-26.3-16.4-17.4-67.2-11.2-82.8c32.3-81.9,52.5-95.9,32.5-132.2c-6.4-8.6-14.3-18.4-23.8-30
				c-217.8,197.4-414.6,305.9-536.4,305.9c-22.7,0-42.8-3.8-60-11.4c-13.8-6.1-24.3-17.3-29.8-32.4
				c-41.1-36.8-27.3-137.5,132.1-239.1c67.5-43,152.6-83.8,209.9-83.8c28.9,0,50.8,10.4,59.6,36.3c10,8.3,16.7,20.9,18.9,38.5
				c5.1,40-51.7,71.7-102.9,105.7c-45.1,30-118.8,64.5-187.8,64.5c-14.5,0-28.8-1.5-42.5-4.9c-19.3,24.2-28.2,41.1-30.3,52.7
				c4.4,1.1,9.4,1.5,14.5,1.5c10.8,0,22.3-1.9,30.5-3.3c104.8-18.3,190.2-64.2,266.1-114.4c81-53.5,147.6-108.5,210.7-168.4
				c-8.4-10.4-13.8-22-17.4-34.7c-3.3-12.1-4.8-24.6-3.2-37C2480.6,98.3,2494,87.6,2513.5,87.6 M2071.5,359.7
				c58.3-13.3,155.4-58,206.6-103.3C2213.7,261.2,2122.8,315.9,2071.5,359.7 M2513.5,77.8c-25.9,0-42.2,15.8-46,44.6
				c-1.6,12.8-0.4,26.6,3.5,40.9c3.3,11.6,7.8,21.8,13.8,30.9c-66.5,62.5-131.2,113.9-203.1,161.4c-44.2,29.2-82.6,51-120.9,68.4
				c-47.3,21.6-93.6,36.1-141.5,44.5c-8.9,1.5-19.2,3.1-28.8,3.1c-0.5,0-1.1,0-1.6,0c3.4-7.7,9.7-18.5,21.2-33.5
				c12.2,2.5,25.2,3.8,38.7,3.8c32.6,0,68.4-7.3,106.4-21.7c29.8-11.3,60.7-27.1,86.9-44.5c5.5-3.6,11.1-7.3,16.6-10.8
				c22.9-14.9,46.5-30.3,63.5-46.4c20.7-19.6,29.6-38.5,27.1-57.9c-2.3-18.4-9.2-32.8-20.3-43c-5.2-13.5-13.9-23.8-25.8-30.6
				c-11.3-6.5-25.5-9.7-42.2-9.7c-27.9,0-63.2,8.9-104.9,26.6c-34.8,14.7-72.9,35.1-110.2,58.8c-50.3,32.1-89.5,66-116.5,100.9
				c-23.6,30.5-37.2,61.4-39.5,89.4c-2.1,25.5,5.3,47.7,20.8,62.7c6.5,16.1,18.6,28.8,34.1,35.7c18.2,8.2,39.8,12.3,64,12.3
				c31.4,0,67.6-6.9,107.8-20.6c39.6-13.5,83.1-33.5,129.3-59.6c46.6-26.3,95.9-58.8,146.7-96.6c49.5-36.8,100.4-78.7,151.6-124.8
				c7.1,8.7,12.2,15.3,16.6,21.1c11.3,20.8,7.5,30.9-10,69c-6.5,14.1-14.5,31.6-23.4,54.3c-7,17.6-16.4,70.7,11.9,92.5
				c6.7,20.6,22.1,32,43.8,32c4.7,0,9.8-0.5,15.1-1.6c130.9-26,275.4-41,396.6-41c52.3,0,100.8,2.7,143.9,8.1c0.1,0,0.2,0,0.4,0.1
				c1.7,1.5,3.5,2.7,5.5,3.7c0.5,0.7,0.8,1.6,1,2.4l0,0l0,0l1.2,4.4c2.9,11.1,13,18.9,24.6,18.9l0.4,0l0.1,0l0.1,0l54-1.3
				c7.9-0.2,15.5-3.1,21.4-8.2c5.9-5.1,10-12.1,11.5-19.8c4.7-24.7,2.3-42.8-7-54c-1.9-2.2-4.3-4.3-7.5-6.1
				c-1.5-6.8-4.1-12.5-7.9-17c-6.8-8.3-24-17.5-99.5-23.4c-50-3.9-118.4-5.8-209.2-5.8h-2.2c-54.5,0-178,0-286.7,24.4
				c7-16.2,13.4-33.2,17.2-50.7c6.1-28.3,4.3-52.2-5.7-73.1c-3.8-7.9-9-15.9-15.9-24.2c-9.5-19.4-26.4-36.1-47.5-55.1
				c5.1-11.8,8.2-27.2,8.4-41.5c0.2-22.7-6.8-41.1-20.3-53.2c-7.3-19.6-22.3-32.4-43.7-37.1C2525,78.5,2519,77.8,2513.5,77.8
				L2513.5,77.8z M2122.9,333.2c16.6-11.2,34.2-21.9,51.6-31.1c22.5-11.9,43.7-21.1,62.9-27.2c-18.7,12.4-40.5,24.8-64.2,36.3
				C2156.2,319.5,2139.1,326.9,2122.9,333.2L2122.9,333.2z"/>
		</g>
	</g>
	<g>
		<g>
			<path class="st2" d="M3513.8,851.5c9.7-7.9,113.7-94.3,156.5-134.1l6.3-5.8c47.8-44.1,127.9-117.7,127.9-287.8
				c0-134.3-95.7-235.7-222.8-235.7c-71.8,0-142.2,33.1-193.1,90.7c-49.3,55.9-76.4,131.2-76.4,212.1h157.2l0,0
				c0-160.2,177.9-196.8,177.9-67.2c0,106.8-42,139.4-84,178.5c-38.4,35.7-137.6,118.3-148,126.8
				c-162,130.2-235.9,261.8-235.9,421.4h130.4l0,0h374.6l25.2-159.5h-327.2C3409.1,948.8,3450.3,902.5,3513.8,851.5z"/>
			<g>
				<g>
					<path class="st2" d="M732.9,883.7l-20.3-105.1l-46.9,105L732.9,883.7 M1469.3,1150.3h-111.1l-14.8-334.6L1199,1150.3h-74.1
						l-61.8-302.5l-96.2,302.5H778l-28.5-161.7H621.2l-72.9,161.7h-116l238.2-540.8h137.1l72.9,437.1l142-437.1h109.9l54.3,296.3
						l126-296.3H1446L1469.3,1150.3"/>
					<polyline class="st2" points="1787.9,1150.3 1806.5,1034.3 1612.6,1034.3 1628,938 1796.6,938 1815.1,821.9 1644.7,821.9 
						1659.6,725.7 1853.4,725.7 1871.9,609.6 1564.4,609.6 1478.1,1150.3 1787.9,1150.3 					"/>
					<polyline class="st2" points="3231.2,609.6 3101.6,609.6 2991.7,786.1 2922.5,609.6 2795.4,609.6 2926.3,894.8 2886,1150.3 
						2997.1,1150.3 3031.1,924.4 3231.2,609.6 					"/>
					<path class="st2" d="M2571.5,1047.4c58.8,26.3,130.7-25.2,160.7-115.3c30-90,6.7-184.2-52.1-210.5
						c-58.8-26.1-130.7,25.4-160.7,115.3C2489.3,926.9,2512.7,1021.1,2571.5,1047.4 M2403.2,833.5
						c34.5-149.5,162.2-247.7,285.5-219.1c123.1,28.5,194.9,172.7,160.5,322.1c-34.6,149.6-162.3,247.7-285.5,219.2
						C2440.7,1127.1,2368.8,982.9,2403.2,833.5"/>
					<path class="st2" d="M195.2,657.7C89.4,723.2,38.5,823.2,52,959c15.7,157.5,219.8,256.8,392.6,156.8
						c15.1-8.7,9.2-7.4,14.8-12.4L494,883.8H287.9l-15.8,101.1h86.1l-9.8,54.4c-49.3,19.8-133.3,12.4-169.2-51.9
						c-22.7-40.7-43.7-131.4,51.9-214.9c77.8-68,212.3-80.2,290.1-44.4c0,0,9.8-56.9,17.3-110C389.1,566.4,273,609.6,195.2,657.7"/>
					<path class="st2" d="M2041,612.6l-85.8,536.7c0,0,177.6,0,250,0c102.9,0,253.4-151.7,116.4-275.7
						c140.9-145.7,1.3-259.7-73.6-260.9c-60-1-208.3,0-208.3,0L2041,612.6 M2102.3,937.3c0,0,23.3,0,93.1,0
						c88.2,0,85.8,107.8-12.2,107.8c-61.3,0-98,0-98,0L2102.3,937.3 M2136.5,726.5c0,0,2.5,0,72.3,0c78.5,0,62.5,100.6-12.3,100.6
						c-61.3,0-77.2,0-77.2,0L2136.5,726.5"/>
				</g>
			</g>
		</g>
		<g>
			<path class="st2" d="M1034.6,111.7c-5.4-29-36.6-47.7-131.3-53.4C761.8,49.8,510.4,124,440.8,172.7c-18,12.6-22.3,66.2-5.4,92.3
				c33.3,51.5,127.9,62.8,206.6,82.5s145.1,45.1,145.7,60.8c0.7,19.8-46.4,27.7-115.9,38.4c-154.5,23.9-411,64.2-498.2,63.7
				c-9.1,0-18.1-2.7-25.7-7.8l-7.5-4.8c-4.9-3.1-10.8-4.6-16.6-4l-49.4,4.9c-13.9,1.4-24.6,13.2-24.6,27.2v16.7
				c0,34.2,10.6,44.2,49.1,39.5c85.8-10.4,198.7-18.5,320.8-31.7c156.1-16.9,329.3-50,367.3-71c50.5-28,37.8-119.7-22.8-147.9
				c-85.8-40-229.9-60.5-282.7-82.5c-22.9-9.5-15-18.4,7.3-29.9c37.6-19.4,112.6-52.4,227-76.6c145.5-30.7,224.5-26.6,268.3-12.1
				c15.7,5.2,44.1,16.9,13.6,32.3c-18.4,9.3-56.5,21.4-84.3,29.5c-30.6,8.9-24.4,85.9,0.6,73.9c24.9-12,87.3-28.1,113.1-64.5
				C1043,179.4,1039.4,137.6,1034.6,111.7z"/>
			<path class="st2" d="M2943.2,423.3c-59.2,0-198.7-0.2-312.5,30.5c-11.2,3-21,0.8-8.4-26.1c18.9-40.4,39.2-90.5,19.2-132.5
				c-12.6-26.4-41.2-48.5-70.9-75.7c14-12.5,34.2-93.5-26-106.9c-27.9-6.3-47.7,2.5-51.9,34.2c-1.6,12.4-0.1,24.9,3.2,37
				c3.5,12.7,8.9,24.3,17.4,34.7c-63.1,59.9-129.7,114.9-210.7,168.4c-75.9,50.2-161.3,96.1-266.1,114.4c-29.3,5.1-102,15.8-30.1-74
				c79.4,19.6,175.8-23.4,230.4-59.6c51.3-34,108-65.7,102.9-105.7c-12.7-99.7-165.3-36.5-273,32.1
				c-175.9,112-174.5,223-117.7,248.4c109.2,48.8,338-60.3,596.4-294.5c72.3,88.2,50.8,73.5,6.7,185.2c-8,20.1-20.5,99.4,44.4,86.5
				c154-30.6,372.4-54.3,543.6-33c7.4,0.9,13.4,6.3,15.2,13.5l1.2,4.4c1.8,7,8.2,11.7,15.3,11.6l54-1.3c11.6-0.3,21.3-8.6,23.5-20
				c2.8-15,4.2-35-4.9-45.9C3228.6,430.1,3113,423.3,2943.2,423.3z M2301.7,257.1c5.1,0.8,7.3,7.2,3.7,10.9
				c-60.4,63.5-225.4,131-260,116.8C2088.4,335.7,2226.4,245,2301.7,257.1z M2535.4,192.3L2535.4,192.3L2535.4,192.3
				C2535.5,192.4,2535.5,192.4,2535.4,192.3z"/>
			<path class="st2" d="M1947.9,271.3c-13.3-27.9-46.6-21.4-87.9-12.2c-63.5,14.1-146.3,49.2-295.1,158.8c-4.2,3.1-9.3-2.6-5.8-6.4
				c48.9-53.2,114.2-124.9,131.2-144.7c15.4-18-14.5-61.8-46.6-43c-106.2,61.7-283.6,164.1-376.3,223.6c-31.1,20-44,8.5-26-17.3
				c93.3-133.5,150.7-144.1,142.6-184.5c-11.3-56.1-46.1-15.3-66.3,1.6c-30.9,25.9-80.1,61.8-158.2,105.2
				c-72.7,40.4-170.5,95.5-207.4,115.8c-35.4,19.3-46.1,0.5-27.2-22.2c14.4-17.4,152.6-135.7,200.7-177.6c0,0,30-20.5,15.9-41.4
				c-16.3-24.2-24.7-34-56.9-2.3c-28.2,27.8-210.2,188-229.4,218.1c-18.8,29.5-18.8,40.2-10.6,60.5c8.3,21.1,30.7,36.4,55.8,32.3
				c43-7.1,128.3-51.9,201.8-95c34.9-20.4,94.7-58.6,128.7-80.6c3.8-2.5,8.2,2.5,5.1,5.9c-21.5,24.5-52.8,62.8-58.7,85.1
				c-6.7,25,40.7,56.7,79.1,43.4c45.3-15.6,224.8-122.6,306.9-172.1c4.6-2.8,9.4,3.4,5.4,7.2c-52.2,49-148.5,146.7-267.4,301.5
				c-16.9,22,38.5,55.4,50.1,40.4c42.4-54.5,104.1-131.7,186.1-186.9c4-2.7,5-3.2,8.8-5.9c4.8,6.1,11.1,11.2,13.9,14.4
				c36.6,42,101,50.3,202.9-3.9c0,0,128.1-68.4,171.1-130.7C1948.3,337.8,1969.2,316.2,1947.9,271.3z M1810.5,398
				c-114.4,75.4-199.9,108.2-235,63.8c183.1-119.5,276.9-148.8,321.8-154.7c6.5-0.9,10.9,6.5,7,11.7
				C1884.3,346.1,1833.8,382.6,1810.5,398z"/>
		</g>
		<g>
			<path class="st3" d="M1019.2,88.6c-5.4-29-36.6-47.7-131.3-53.4C746.4,26.7,495,100.9,425.4,149.6c-18,12.6-22.3,66.2-5.4,92.3
				c33.3,51.5,127.9,62.8,206.6,82.5s145.1,45.1,145.7,60.8c0.7,19.8-46.4,27.7-115.9,38.4c-154.5,24-411,64.3-498.2,63.8
				c-9.1,0-18.1-2.7-25.7-7.8l-7.5-4.8c-4.9-3.1-10.8-4.6-16.6-4l-49.4,4.9c-13.9,1.5-24.6,13.2-24.6,27.2v16.7
				c0,34.2,10.6,44.2,49.1,39.5c85.8-10.4,198.7-18.5,320.8-31.7c156.1-16.9,329.3-50,367.3-71c50.5-28,37.8-119.7-22.8-147.9
				C663.1,268.5,519,248,466.2,226c-22.9-9.5-15-18.4,7.3-29.9c37.6-19.4,112.6-52.4,227-76.6C846.1,88.7,925,92.9,968.7,107.5
				c15.7,5.2,44.1,16.9,13.6,32.3c-18.4,9.3-56.5,21.4-84.3,29.5c-30.6,8.9-24.4,85.9,0.6,73.9c24.9-12,87.3-28.1,113.1-64.5
				C1027.5,156.3,1024,114.5,1019.2,88.6z"/>
			<path class="st3" d="M2927.7,400.2c-59.2,0-198.7-0.2-312.5,30.5c-11.2,3-21,0.8-8.4-26.1c18.9-40.4,39.2-90.5,19.2-132.5
				c-12.6-26.4-41.2-48.5-70.9-75.7c14-12.5,34.2-93.5-26-106.9c-27.9-6.3-47.7,2.5-51.9,34.2c-1.6,12.4-0.1,24.9,3.2,37
				c3.5,12.7,8.9,24.3,17.4,34.7c-63.1,59.9-129.7,114.9-210.7,168.4c-75.9,50.2-161.3,96.1-266.1,114.4c-29.3,5.1-102,15.8-30.1-74
				c79.4,19.6,175.8-23.4,230.4-59.6c51.3-34,108-65.7,102.9-105.7c-12.7-99.7-165.3-36.5-273,32.1
				c-175.9,112-174.5,223-117.7,248.4c109.2,48.8,338-60.3,596.4-294.5c72.3,88.2,50.8,73.5,6.7,185.2c-8,20.1-20.5,99.4,44.4,86.5
				c154-30.6,372.4-54.3,543.6-33c7.4,0.9,13.4,6.3,15.2,13.5l1.2,4.4c1.8,7,8.2,11.7,15.3,11.6l54-1.3c11.6-0.3,21.3-8.6,23.5-20
				c2.8-15,4.2-35-4.9-45.9C3213.3,407,3097.6,400.2,2927.7,400.2z M2286.3,234.1c5.1,0.8,7.3,7.2,3.7,10.9
				c-60.4,63.5-225.4,131-260,116.8C2073,312.6,2211,221.9,2286.3,234.1z M2520.1,169.2L2520.1,169.2L2520.1,169.2
				C2520.2,169.3,2520.1,169.3,2520.1,169.2z"/>
			<path class="st3" d="M1932.5,248.2c-13.3-27.9-46.6-21.4-87.9-12.2c-63.5,14.1-146.3,49.2-295.1,158.8c-4.2,3.1-9.3-2.6-5.8-6.4
				c48.9-53.2,114.2-124.9,131.2-144.7c15.4-18-14.5-61.8-46.6-43c-106.2,61.7-283.6,164.1-376.3,223.6c-31.1,20-44,8.5-26-17.3
				c93.3-133.5,150.7-144.1,142.6-184.5c-11.3-56.1-46.1-15.3-66.3,1.6c-30.9,25.9-80.1,61.8-158.2,105.2
				c-72.7,40.4-170.5,95.5-207.4,115.8c-35.4,19.3-46.1,0.5-27.2-22.2c14.4-17.4,152.6-135.7,200.7-177.6c0,0,30-20.5,15.9-41.4
				c-16.3-24.2-24.7-34-56.9-2.3c-28.2,27.8-210.2,188-229.4,218.1C821,449,821,459.7,829.2,480.1c8.3,21.1,30.7,36.4,55.8,32.3
				c43-7.1,128.3-51.9,201.8-95c34.9-20.4,94.7-58.6,128.7-80.6c3.8-2.5,8.2,2.5,5.1,5.9c-21.5,24.5-52.8,62.8-58.7,85.1
				c-6.7,25,40.7,56.7,79.1,43.4c45.3-15.6,224.8-122.6,306.9-172.1c4.6-2.8,9.4,3.4,5.4,7.2c-52.2,49-148.5,146.7-267.4,301.5
				c-16.9,22,38.5,55.4,50.1,40.4c42.4-54.5,104.1-131.7,186.1-186.9c4-2.7,5-3.2,8.8-5.9c4.8,6.1,11.1,11.2,13.9,14.4
				c36.6,42,101,50.3,202.9-3.9c0,0,128.1-68.4,171.1-130.7C1932.9,314.7,1953.8,293.1,1932.5,248.2z M1795.1,374.9
				c-114.4,75.4-199.9,108.2-235,63.8C1743.2,319.2,1837,289.9,1881.9,284c6.5-0.9,10.9,6.5,7,11.7
				C1868.9,323,1818.5,359.6,1795.1,374.9z"/>
		</g>
	</g>
</g>
</svg>
