<?xml version="1.0" encoding="utf-8"?>
<!-- Generator: Adobe Illustrator 26.5.0, SVG Export Plug-In . SVG Version: 6.00 Build 0)  -->
<svg version="1.1" id="Layer_1" xmlns="http://www.w3.org/2000/svg" xmlns:xlink="http://www.w3.org/1999/xlink" x="0px" y="0px"
	 viewBox="0 0 3839 536.76" style="enable-background:new 0 0 3839 536.76;" xml:space="preserve">
<style type="text/css">
	.st0{fill:#FFFFFF;}
	.st1{fill:#CE181E;}
	.st2{fill:#F47B30;}
	.st3{fill:#A19FA3;}
	.st4{fill:#17B3E8;}
	.st5{fill:#E60012;}
</style>
<g>
	<g>
		<g>
			<g>
				<path class="st0" d="M3306.25,521.99c-4.08,0-7.98-1.69-10.77-4.67c-2.79-2.98-4.23-6.98-3.96-11.05l24.23-375.59
					c0.5-7.77,6.95-13.82,14.74-13.82h101.94v-8c0.01-51.89,42.23-94.1,94.11-94.1c0,0,62.63,0,62.63,0
					c51.89,0,94.1,42.21,94.11,94.1v8h101.94c7.79,0,14.24,6.05,14.74,13.82l24.23,375.59c0.26,4.07-1.17,8.07-3.96,11.05
					c-2.79,2.98-6.69,4.67-10.77,4.67H3306.25z M3735.81,438.17l-15.32-237.49h-37.21v41.42c0,14.91-12.13,27.04-27.04,27.04h-29.71
					c-14.91,0-27.04-12.13-27.04-27.04v-41.42h-83.25v41.42c0,14.86-12.1,26.99-26.98,27.04h-29.79
					c-14.91,0-27.04-12.13-27.04-27.04v-41.42h-37.23l-15.31,237.49H3735.81z M3599.49,116.87v-8c0-5.69-4.62-10.32-10.31-10.33
					h-62.61c-5.7,0-10.33,4.63-10.33,10.33v8H3599.49z"/>
				<path class="st0" d="M3589.18,29.54c43.74,0,79.33,35.59,79.34,79.33v22.77h107.53h9.18l0.59,9.16l22.97,356l0.67,10.42h-10.45
					H3316.7h-10.45l0.67-10.42l22.97-356l0.59-9.16h9.18h107.53v-22.77c0.01-43.74,35.6-79.33,79.35-79.33H3589.18 M3501.47,131.63
					h112.79v-22.77c0-13.82-11.25-25.08-25.06-25.1h-62.63c-13.84,0-25.1,11.26-25.1,25.1V131.63 M3626.53,254.37
					c-6.77,0-12.27-5.51-12.27-12.27v-56.19h-112.79v56.19c0,6.74-5.48,12.25-12.26,12.27h-29.74c-6.77,0-12.27-5.51-12.27-12.27
					v-56.19h-65.84l-17.21,267.03h387.42l-17.22-267.03h-65.83v56.19c0,6.77-5.51,12.27-12.27,12.27H3626.53 M3589.18,0h-62.63
					c-57.76,0-105.17,45.21-108.68,102.1h-78.2h-9.18c-15.58,0-28.47,12.09-29.48,27.64l-0.59,9.16l-22.97,356l-0.67,10.42
					c-0.53,8.15,2.34,16.15,7.93,22.1c5.58,5.96,13.38,9.34,21.55,9.34h10.45h482.32h10.45c8.16,0,15.96-3.38,21.55-9.34
					c5.58-5.96,8.45-13.96,7.93-22.1l-0.67-10.42l-22.97-356l-0.59-9.16c-1-15.54-13.9-27.64-29.48-27.64h-9.18h-78.2
					C3694.33,45.21,3646.93,0,3589.18,0L3589.18,0z M3698.06,215.45h8.59l13.41,207.95h-324.42l13.41-207.95h8.61v26.65
					c0,23.05,18.76,41.81,41.81,41.81h29.74c0.04,0,0.07,0,0.11,0c22.99-0.08,41.7-18.84,41.69-41.81v-26.65h53.71v26.65
					c0,23.05,18.76,41.81,41.81,41.81h29.71c23.05,0,41.81-18.76,41.81-41.81V215.45L3698.06,215.45z"/>
			</g>
			<g>
				<path class="st0" d="M2238.77,199c-2.58,0-5.13-0.39-7.59-1.17l-0.29-0.09c-0.32-0.1-0.63-0.21-0.94-0.33l-0.3-0.12
					c-10.78-4.2-17.42-15.58-15.78-27.04l9.93-71.54c1.67-12.58,12.49-22.06,25.21-22.06c2.82,0,5.6,0.46,8.27,1.38
					c0.09,0.03,0.27,0.09,0.36,0.13l28.14,10.25c7.07,2.55,12.64,8.1,15.22,15.22c2.61,7.19,1.86,15.1-2.05,21.68l-0.31,0.52
					l-38.49,61.34C2255.63,194.43,2247.42,199,2238.77,199z"/>
				<path class="st0" d="M2249,91.41c1.18,0,2.35,0.2,3.47,0.58l0.09,0.03l0.09,0.03l28.07,10.22c2.98,1.07,5.3,3.4,6.39,6.38
					c1.09,3.02,0.78,6.34-0.86,9.1l-0.06,0.1l-0.06,0.1l-38.49,61.34c-1.89,3.05-5.26,4.93-8.85,4.93c-1.07,0-2.13-0.16-3.15-0.49
					l-0.31-0.1l-0.3-0.12c-4.48-1.75-7.21-6.44-6.53-11.19l9.95-71.66C2239.12,95.37,2243.62,91.41,2249,91.41 M2249,61.87
					c-20.09,0-37.18,14.97-39.84,34.85l-9.93,71.5c-1.25,8.84,0.54,17.97,5.06,25.72c4.53,7.78,11.63,13.86,20,17.12l0.29,0.11
					c0.61,0.24,1.23,0.46,1.86,0.65l0.31,0.1c3.9,1.23,7.94,1.85,12.03,1.85c13.69,0,26.67-7.21,33.91-18.82l38.46-61.29l0.07-0.1
					c0.13-0.21,0.26-0.42,0.38-0.63l0.06-0.1c6.17-10.39,7.35-22.87,3.22-34.24c-4.08-11.24-12.85-20.01-24.09-24.08l-28.03-10.21
					l-0.09-0.03c-0.17-0.06-0.35-0.12-0.52-0.18l-0.09-0.03C2257.85,62.6,2253.45,61.87,2249,61.87L2249,61.87z"/>
			</g>
			<g>
				<path class="st0" d="M2194.31,450.49c-19.14,0-37.98-3.69-56-10.98c-17.56-7.1-33.44-17.24-47.2-30.13
					c-29.33-27.47-45.48-64.07-45.48-103.06c0-36.52,14.92-73.07,40.92-100.26c12.94-13.53,27.93-24.21,44.56-31.75
					c17.13-7.76,35.2-11.8,53.72-12.02l-18.42-50.38c-2.65-7.1-1.88-15.32,2.08-21.89c3.94-6.54,10.81-11.04,18.37-12.06
					c0,0,29.57-4.16,29.59-4.16c1.12-0.15,2.27-0.23,3.41-0.23c7.08,0,13.9,2.98,18.7,8.18c4.75,5.15,7.18,12.12,6.66,19.11
					l-4.92,68.76c0,0,40.47-55.92,40.48-55.95c4.79-6.54,12.46-10.43,20.54-10.43c7.21,0,14.11,3.08,18.92,8.45
					c0,0,20.1,22.33,20.15,22.39c4.97,5.63,7.18,13.12,6.08,20.55c-1.11,7.47-5.44,14.01-11.88,17.96l-0.58,0.34l-47.52,27.34
					c9.92,8.44,18.24,17.75,24.31,27.32l0.11,0.17c0.11,0.18,0.22,0.36,0.33,0.54l0.1,0.18c9.71,16.85,9.68,34.53-0.1,49.79
					c-3.9,6.08-9.31,11.76-16.8,17.5h26.66c4.04,0,7.9,1.65,10.69,4.57c2.79,2.92,4.26,6.86,4.07,10.89l-0.49,10.26
					c-1.72,36.32-17.78,69.54-45.23,93.55C2264.01,437.89,2229.97,450.49,2194.31,450.49z"/>
				<path class="st0" d="M2219.87,88.33c2.97,0,5.83,1.25,7.84,3.43c1.99,2.16,3.01,5.07,2.79,8l-5.17,72.27l-0.01,0.13l-0.01,0.13
					c-0.41,4.13-3.2,7.56-7.03,8.86c10.94,2.79,21.76,6.97,32.18,12.48c-2.89-3.68-2.99-8.75-0.21-12.55l42.45-58.66l0.02-0.02
					l0.02-0.02c2-2.73,5.22-4.37,8.61-4.37c3.03,0,5.91,1.29,7.93,3.54l20,22.22l0.02,0.03l0.02,0.03c2.1,2.36,3.03,5.51,2.57,8.64
					c-0.47,3.13-2.28,5.88-4.99,7.53l-0.11,0.07l-0.12,0.07l-62.8,36.14l-0.25,0.14l-0.26,0.13c-1.45,0.73-3.08,1.11-4.7,1.11
					c-0.41,0-0.81-0.03-1.21-0.08c17.33,10.38,32.09,24.05,40.9,37.93l0.11,0.18l0.1,0.18c7.02,12.18,7.11,23.76,0.26,34.44
					c-5.13,8-14.22,15.49-29.44,24.27l-103.66,60.22c7.5,4.31,17.19,6.98,26.6,6.98c26.16,0,46.86-17.82,49.22-42.37l0.85-8.86h8.9
					h59.55h10.27l-0.48,10.26c-1.53,32.27-15.8,61.79-40.2,83.13c-23.45,20.51-54.04,31.81-86.12,31.81
					c-17.23,0-34.21-3.33-50.46-9.9c-15.87-6.42-30.21-15.57-42.65-27.22c-26.31-24.64-40.8-57.42-40.8-92.29
					c0-32.76,13.42-65.58,36.83-90.06c11.63-12.16,25.08-21.75,39.99-28.5c15.69-7.11,32.24-10.71,49.19-10.71
					c7.12,0,14.3,0.63,21.47,1.87c-1.18-1.1-2.12-2.47-2.71-4.05l-24.87-68.03c-1.12-3.01-0.81-6.44,0.86-9.2
					c1.66-2.75,4.52-4.62,7.68-5.04l29.55-4.16l0.03,0l0.03,0C2218.91,88.36,2219.4,88.33,2219.87,88.33 M2135.54,298.49l77.47-44.7
					c-6.97-3.95-14.25-5.78-22.53-5.78c-16.47,0-31.96,7.3-42.49,20.02C2140.71,276.82,2136.44,287.45,2135.54,298.49
					 M2321.12,310.53L2321.12,310.53 M2219.87,58.79c-1.79,0-3.61,0.12-5.38,0.36c-0.01,0-0.05,0.01-0.06,0.01
					c-0.02,0-0.03,0-0.05,0.01c-0.03,0-0.08,0.01-0.11,0.01l-29.46,4.15c-12.1,1.65-22.65,8.59-28.95,19.05
					c-6.24,10.36-7.47,23.29-3.29,34.63l11.75,32.14c-13.46,2.04-26.61,5.94-39.29,11.69c-18.36,8.32-34.89,20.09-49.14,35
					c-28.61,29.92-45.02,70.18-45.02,110.47c0,43.12,17.81,83.56,50.15,113.84c15.1,14.14,32.51,25.26,51.76,33.04
					c19.79,8,40.49,12.06,61.54,12.06c39.24,0,76.73-13.89,105.57-39.11c30.5-26.68,48.35-63.6,50.26-103.97l0.46-9.8
					c0.04-0.61,0.06-1.23,0.06-1.85c0-14.49-10.42-26.54-24.18-29.05c4.69-8.86,7.03-18.28,6.96-28.06
					c-0.08-10.9-3.2-21.78-9.27-32.31l-0.1-0.17c-0.21-0.36-0.43-0.72-0.65-1.08l-0.11-0.18c-3.53-5.57-7.73-11.06-12.48-16.35
					l30.59-17.6l0.13-0.08c0.22-0.13,0.44-0.26,0.65-0.39l0.11-0.07c10.2-6.25,17.04-16.59,18.8-28.39
					c1.75-11.78-1.77-23.64-9.66-32.55c-0.07-0.08-0.14-0.16-0.2-0.23l-20.02-22.24c-7.61-8.46-18.5-13.32-29.89-13.32
					c-12.77,0-24.9,6.15-32.44,16.46c-0.02,0.02-0.03,0.05-0.05,0.07c-0.03,0.04-0.07,0.1-0.1,0.14l-10,13.82l1.22-17.06
					c0.8-11.04-3.04-22.02-10.54-30.15C2241.84,63.51,2231.07,58.79,2219.87,58.79L2219.87,58.79z"/>
			</g>
			<g>
				<path class="st0" d="M2992.57,521.99c-8.16,0-14.77-6.61-14.77-14.77V400.1c-23.98,28.93-60.25,47.29-100.53,47.29
					c-40.26,0-76.54-18.36-100.53-47.3v26.36c0,8.16-6.61,14.77-14.77,14.77h-77.19c-8.16,0-14.77-6.61-14.77-14.77V314.55
					c0-6.96-1.12-16.26-6.46-21.05c-3.94-3.54-9.1-3.81-10.58-3.81c-5.6,0-10.02,1.73-13.14,5.14c-4.51,4.93-7,13.95-7,25.42v106.27
					c0,8.16-6.61,14.77-14.77,14.77h-77.16c-8.16,0-14.77-6.61-14.77-14.77v-298.6c0-8.16,6.61-14.77,14.77-14.77h77.16
					c8.16,0,14.77,6.61,14.77,14.77v64.05c9.16-2.72,18.89-4.14,28.65-4.14c29.98,0,58.02,10.9,78.96,30.69
					c10.18,9.62,18.3,20.96,24.26,33.73c22.7-38.67,64.84-64.49,112.57-64.49c40.28,0,76.55,18.36,100.53,47.31v-26.45
					c0-8.16,6.61-14.77,14.77-14.77h77.15c2.03,0,3.96,0.41,5.72,1.15c12.29-4.71,25.58-7.23,38.54-7.23
					c17.23,0,34.05,3.47,49.98,10.3c15.32,6.57,29.11,15.94,40.99,27.84c24.63,24.67,38.19,57.22,38.19,91.67
					c0,34.46-13.56,67.01-38.19,91.67c-11.89,11.9-25.68,21.26-40.99,27.83c-15.93,6.83-32.74,10.29-49.98,10.29
					c-9.83,0-19.86-1.45-29.49-4.2v64.04c0,8.16-6.61,14.77-14.77,14.77H2992.57z M3112.04,288.51c-16.15,0-27.87,12.23-27.87,29.09
					c0,16.85,11.72,29.07,27.87,29.07c15.99,0,28.52-12.77,28.52-29.07C3140.55,301.28,3128.03,288.51,3112.04,288.51z M2877.27,289
					c-15.21,0-27.59,12.87-27.59,28.68c0,15.81,12.38,28.68,27.59,28.68c15.2,0,27.57-12.87,27.57-28.68
					C2904.84,301.87,2892.47,289,2877.27,289z"/>
				<path class="st0" d="M2618.05,127.92v9.79v76.92c3.01-1.88,6.18-3.56,9.48-5.03c10.36-4.58,22.1-7.01,33.94-7.01
					c26.19,0,50.63,9.47,68.82,26.66c20.72,19.58,31.67,47.62,31.67,81.09v0.11c3.73-60.13,54.01-107.92,115.3-107.92
					c61.35,0,111.68,47.9,115.3,108.14v-92.25v-9.79h9.79h57.56h9.79v5.25c11.5-6.29,27.23-11.33,44.26-11.33
					c15.22,0,30.08,3.06,44.16,9.11c13.58,5.83,25.81,14.14,36.36,24.71c21.84,21.88,33.87,50.73,33.87,81.24
					c0,30.51-12.03,59.36-33.87,81.23c-10.55,10.56-22.79,18.87-36.36,24.69c-14.08,6.04-28.94,9.1-44.16,9.1
					c-17.03,0-32.76-5.03-44.26-11.31v76.12v9.79h-9.79h-57.56h-9.79v-9.79V324.55c-3.62,60.19-53.95,108.07-115.3,108.07
					c-61.29,0-111.58-47.76-115.3-107.85v91.89v9.79h-9.79h-57.6h-9.79v-9.79v-102.1c0-14.49-3.82-25.27-11.36-32.04
					c-7.63-6.85-16.84-7.59-20.45-7.59c-6.82,0-16.52,1.72-24.04,9.93c-7.11,7.77-10.87,20.01-10.87,35.39v96.48v9.79h-9.79h-57.57
					h-9.79v-9.79V137.71v-9.79h9.79h57.57H2618.05 M3112.04,361.43c24.27,0,43.29-19.26,43.29-43.84
					c0-24.59-19.01-43.85-43.29-43.85c-24.31,0-42.64,18.85-42.64,43.85C3069.4,342.59,3087.73,361.43,3112.04,361.43
					 M2877.27,361.13c23.35,0,42.34-19.49,42.34-43.45c0-23.96-18.99-43.45-42.34-43.45c-23.36,0-42.36,19.49-42.36,43.45
					C2834.91,341.64,2853.91,361.13,2877.27,361.13 M2618.05,98.38h-9.79h-57.57h-9.79c-16.31,0-29.54,13.22-29.54,29.54v9.79
					v279.01v9.79c0,16.31,13.22,29.54,29.54,29.54h9.79h57.57h9.79c16.31,0,29.54-13.22,29.54-29.54v-9.79v-96.48
					c0-9.87,2.25-14.5,3.12-15.44c0.01-0.01,0.02-0.02,0.03-0.03c0.21-0.09,0.95-0.31,2.22-0.31c0.18,0.01,0.49,0.06,0.72,0.12
					c0.39,0.75,1.55,3.5,1.55,9.97v102.1v9.79c0,16.31,13.22,29.54,29.54,29.54h9.79h57.6h9.79c13.89,0,25.54-9.58,28.69-22.5
					c24.25,18.03,54.28,28.67,86.61,28.67c31.97,0,61.67-10.39,85.76-28.03v63.3v9.79c0,16.31,13.22,29.54,29.54,29.54h9.79h57.56
					h9.79c16.31,0,29.54-13.22,29.54-29.54v-9.79v-36.2c4.91,0.62,9.84,0.93,14.72,0.93c19.24,0,38.01-3.87,55.8-11.49
					c17.05-7.31,32.4-17.73,45.62-30.97c27.41-27.45,42.51-63.71,42.51-102.11c0-38.39-15.09-74.65-42.5-102.11
					c-13.22-13.24-28.57-23.67-45.62-30.98c-17.78-7.63-36.56-11.5-55.8-11.5c-13.1,0-26.5,2.27-39.13,6.53
					c-1.67-0.29-3.38-0.44-5.13-0.44h-9.79h-57.56h-9.79c-13.91,0-25.57,9.61-28.71,22.56c-24.24-18.02-54.26-28.66-86.59-28.66
					c-44.55,0-84.73,20.22-111.44,52.13c-4.51-6.21-9.59-11.99-15.24-17.33c-23.69-22.39-55.34-34.73-89.11-34.73
					c-4.65,0-9.29,0.28-13.88,0.83v-36.18v-9.79C2647.59,111.61,2634.37,98.38,2618.05,98.38L2618.05,98.38z M3112.04,331.9
					c-7.96,0-13.1-5.61-13.1-14.3c0-8.7,5.14-14.32,13.1-14.32c7.97,0,13.75,6.02,13.75,14.32
					C3125.79,325.88,3120,331.9,3112.04,331.9L3112.04,331.9z M2877.27,331.6c-7.07,0-12.82-6.24-12.82-13.91
					c0-7.67,5.75-13.91,12.82-13.91c7.06,0,12.8,6.24,12.8,13.91C2890.07,325.35,2884.33,331.6,2877.27,331.6L2877.27,331.6z"/>
			</g>
			<g>
				<path class="st0" d="M2428.62,449.5c-41.8,0-88.72-23.11-119.54-58.87l-7.08-8.22c-2.73-3.17-3.99-7.34-3.47-11.49
					c0.52-4.15,2.78-7.88,6.2-10.27l65.67-45.81c1.16-0.81,2.4-1.43,3.68-1.87c-15.96-8.57-29.27-19.28-39.73-32.03
					c-15.74-19.17-24.06-42.09-24.06-66.26c0-30.15,12.86-58.22,36.21-79.05c22.27-19.86,51.47-30.8,82.21-30.8
					c21.09,0,42.94,5.69,63.17,16.46c18.17,9.67,34.42,22.99,46.98,38.51l6.62,8.18c2.58,3.19,3.72,7.31,3.14,11.37
					c-0.58,4.06-2.82,7.7-6.18,10.04l-62.26,43.34c-1.69,1.18-3.57,1.96-5.5,2.35c21.4,9.9,38.31,22.45,50.44,37.47
					c15,18.58,22.61,40.46,22.61,65.05c0,28.65-12.26,57.07-33.63,77.96C2491.74,437.45,2461.37,449.5,2428.62,449.5z
					 M2396.72,323.05c10.33,9,22.06,17.91,33.44,17.91c2.58,0,5.13-1.27,6.35-2.3c-4.74-3.88-23.88-10.24-33.38-13.39l-1.02-0.34
					C2400.29,324.32,2398.49,323.69,2396.72,323.05z M2421.94,214.39c6.16,3.79,16.79,7.34,29.1,11.44l0.84,0.28
					c1.94,0.65,3.86,1.31,5.75,2l-2.34-1.94c-8.44-7-15.72-13.03-27.45-13.03c-3.01,0-5.09,0.44-6.42,0.92
					C2421.58,214.16,2421.76,214.27,2421.94,214.39z"/>
				<path class="st0" d="M2428.72,119.6c18.68,0,38.13,5.09,56.23,14.73c16.44,8.75,31.11,20.77,42.44,34.76l6.62,8.18l-8.64,6.02
					l-47.52,33.08l-6.1,4.25l-5.73-4.73l-1.32-1.09c-9.29-7.7-19.82-16.43-36.86-16.43c-15.61,0-22.72,8-22.72,15.44
					c0,3.93,1.1,8.25,9.08,13.16c7.61,4.68,18.99,8.48,32.16,12.88l0.84,0.28c29.72,9.9,52.07,23.94,66.44,41.72
					c12.83,15.88,19.33,34.65,19.33,55.77c0,24.7-10.64,49.27-29.18,67.4c-19.6,19.16-46.3,29.72-75.17,29.72
					c-37.69,0-80.22-21.09-108.35-53.74l-7.08-8.22l8.9-6.21l50.44-35.19l6.33-4.41l5.77,5.12c12.9,11.44,28.13,23.65,45.53,23.65
					c10.18,0,21.56-7.2,21.56-16.83c0-11.99-11.39-16.84-43.94-27.66l-1.02-0.34c-26.18-8.69-46.7-21.92-60.99-39.32
					c-13.54-16.5-20.7-36.17-20.7-56.89c0-25.88,11.11-50.04,31.27-68.03C2375.91,129.21,2401.61,119.6,2428.72,119.6
					 M2428.72,90.07c-34.37,0-67.06,12.27-92.04,34.55c-26.54,23.66-41.15,55.65-41.15,90.07c0,27.63,9.48,53.79,27.41,75.63
					c6.94,8.45,14.96,16.09,24.02,22.88l-41.77,29.14l-8.9,6.21c-6.85,4.78-11.36,12.24-12.41,20.54
					c-1.04,8.29,1.47,16.64,6.93,22.97l7.08,8.22c16.35,18.98,37.05,34.98,59.84,46.29c23.35,11.58,47.86,17.7,70.88,17.7
					c36.64,0,70.67-13.54,95.82-38.13c24.2-23.65,38.07-55.92,38.07-88.52c0-28.05-8.71-53.06-25.89-74.33
					c-8.8-10.89-19.75-20.58-32.77-29.01l38.4-26.73l8.64-6.02c6.73-4.69,11.22-11.97,12.37-20.09c1.15-8.12-1.12-16.36-6.29-22.74
					l-6.63-8.18c-13.8-17.05-31.61-31.66-51.52-42.25C2476.47,96.36,2452.23,90.07,2428.72,90.07L2428.72,90.07z M2429.25,201.53
					C2429.25,201.53,2429.25,201.53,2429.25,201.53L2429.25,201.53L2429.25,201.53z"/>
			</g>
			<g>
				<path class="st0" d="M144.42,267.01c-35.38,0-64.16-28.79-64.16-64.18c0.08-35.35,28.82-64.09,64.07-64.09
					c0,0,0.14,14.77,0.14,14.77v-14.77c35.35,0,64.11,28.76,64.11,64.11C208.58,238.23,179.8,267.01,144.42,267.01z"/>
				<path class="st0" d="M144.33,153.51l0.09,0h0.05c27.21,0,49.34,22.13,49.34,49.34c0,27.23-22.16,49.39-49.39,49.39
					s-49.39-22.16-49.39-49.41C95.1,175.63,117.21,153.51,144.33,153.51 M144.36,123.97c-0.01,0-0.02,0-0.03,0
					c-43.37,0-78.74,35.34-78.84,78.79c0,0.02,0,0.05,0,0.07c0,43.53,35.41,78.95,78.93,78.95s78.93-35.41,78.93-78.93
					c0-43.49-35.38-78.88-78.88-78.88h-0.05L144.36,123.97L144.36,123.97z"/>
			</g>
			<g>
				<path class="st0" d="M287.51,521.99c-15.08,0-27.22-11.85-27.65-26.97l-0.01-0.7V79.09c0-0.15,0.01-0.63,0.01-0.63
					c0.51-14.83,12.5-26.41,27.3-26.41h65.15c35.38,0,68.65,13.77,93.68,38.79c25.03,25.02,38.82,58.28,38.82,93.67v205.04
					c0,35.38-13.79,68.65-38.82,93.67c-25.03,25.01-58.3,38.79-93.68,38.79H287.51z M367.69,290.07c-9.44,0.44-16.93,8.1-17.12,17.6
					c-0.19,9.75,7.48,17.92,17.16,18.39c9.44-0.44,16.93-8.1,17.12-17.6C385.03,298.72,377.37,290.54,367.69,290.07z"/>
				<path class="st0" d="M352.31,66.82c31.44,0,61,12.24,83.24,34.46c22.24,22.23,34.49,51.78,34.49,83.22v205.04
					c0,31.44-12.25,60.99-34.49,83.22c-22.24,22.22-51.8,34.46-83.24,34.46h-64.8c-7.03,0-12.69-5.54-12.89-12.61l0-0.14v-0.14
					V79.31v-0.05v-0.17l0.01-0.17c0.23-6.79,5.74-12.11,12.54-12.11H352.31 M367.72,340.84c17.56-0.45,31.55-14.51,31.9-32.09
					c0.34-18-13.96-32.97-31.91-33.46c-17.56,0.45-31.55,14.51-31.9,32.09C335.46,325.38,349.76,340.35,367.72,340.84 M352.31,37.28
					h-65.15c-22.8,0-41.28,17.85-42.06,40.63c0,0.02,0,0.04,0,0.07l-0.01,0.17c-0.01,0.32-0.02,0.63-0.02,0.95v0.17v0.05v415.02
					v0.14c0,0.28,0,0.56,0.01,0.84l0,0.14c0.31,11.11,4.84,21.5,12.75,29.23c7.96,7.79,18.5,12.08,29.67,12.08h64.8
					c39.33,0,76.31-15.31,104.12-43.11c27.83-27.81,43.15-64.78,43.15-104.12V184.5c0-39.33-15.32-76.31-43.15-104.12
					C428.62,52.59,391.64,37.28,352.31,37.28L352.31,37.28z M367.77,311.2c-1.4-0.39-2.46-1.74-2.43-3.26
					c0.03-1.48,0.96-2.65,2.32-3.01c1.4,0.39,2.46,1.74,2.43,3.26C370.05,309.67,369.12,310.84,367.77,311.2L367.77,311.2z"/>
			</g>
			<g>
				<path class="st0" d="M147.27,521.99c-35.4,0-68.68-13.78-93.7-38.79c-25.02-25.01-38.8-58.28-38.8-93.67V184.5
					c0-35.38,13.78-68.65,38.79-93.66c25.02-25.02,58.28-38.79,93.66-38.79h91.99c15.08,0,27.25,11.8,27.7,26.87l0.01,0.74v414.67
					c0,15.28-12.41,27.66-27.66,27.66H147.27z M147.07,135.07c-12.95,0-25.61,5.28-34.74,14.47c-9.36,9.36-14.49,21.76-14.49,34.97
					v205.11c-0.03,13.01,5.23,25.7,14.44,34.84c0.01,0.01,0.08,0.08,0.09,0.09c9.12,9.18,21.76,14.43,34.72,14.43h36.77v-303.9
					L147.07,135.07z"/>
				<path class="st0" d="M239.22,66.82c7.04,0,12.73,5.51,12.94,12.55l0,0.15v0.15v414.67v0.05c0,7.08-5.78,12.84-12.89,12.84
					h-91.99c-31.46,0-61.03-12.24-83.26-34.46c-22.23-22.22-34.47-51.78-34.47-83.22V184.5c0-31.44,12.24-60.99,34.47-83.22
					c22.23-22.23,51.78-34.47,83.22-34.47H239.22 M147.09,453.74l0.19,0h51.35V120.3h-51.38l-0.16,0
					c-16.87,0-33.34,6.85-45.23,18.83c-12.11,12.11-18.78,28.22-18.78,45.37v205.11c-0.04,16.89,6.81,33.41,18.81,45.32l0.03,0.02
					l0.02,0.02C113.76,446.9,130.22,453.74,147.09,453.74 M239.22,37.28h-91.99c-39.33,0-76.3,15.31-104.11,43.12
					C15.31,108.2,0,145.17,0,184.5v205.04c0,39.33,15.32,76.31,43.13,104.11c27.81,27.8,64.8,43.11,104.15,43.11h91.99
					c23.4,0,42.43-19.01,42.43-42.38v-0.05V79.66v-0.15c0-0.29,0-0.58-0.01-0.87l0-0.15c-0.34-11.15-4.91-21.53-12.87-29.25
					C260.85,41.53,250.34,37.28,239.22,37.28L239.22,37.28z M147.06,424.2c-9.04-0.01-17.85-3.66-24.17-10.03
					c-0.03-0.03-0.05-0.05-0.07-0.08c-0.02-0.02-0.06-0.06-0.08-0.08c-0.01-0.01-0.04-0.04-0.05-0.05
					c-6.43-6.38-10.1-15.23-10.08-24.29c0-0.02,0-0.05,0-0.07V184.5c0-9.26,3.6-17.95,10.13-24.49c0.03-0.03,0.05-0.05,0.07-0.08
					c6.37-6.42,15.22-10.1,24.27-10.1l0.12,0h21.88V424.2h-21.81L147.06,424.2L147.06,424.2z"/>
			</g>
			<g>
				<path class="st0" d="M1896.15,231.66c-48,0-87.06-39.14-87.06-87.26c0-48.09,39.05-87.21,87.06-87.21
					c48.03,0,87.11,39.12,87.11,87.21C1983.26,192.51,1944.18,231.66,1896.15,231.66z M1896.14,132.41
					c-6.55,0.01-11.87,5.38-11.87,11.98c0,6.57,5.33,11.94,11.88,11.99c6.59-0.05,11.94-5.4,11.94-11.96
					C1908.07,137.84,1902.71,132.44,1896.14,132.41z"/>
				<path class="st0" d="M1896.15,71.96c39.89,0,72.34,32.5,72.34,72.44c0,39.97-32.45,72.49-72.34,72.49
					c-39.86,0-72.29-32.52-72.29-72.49C1823.86,104.45,1856.29,71.96,1896.15,71.96 M1896.15,171.15
					c14.73-0.05,26.7-12.05,26.7-26.73c-0.04-14.73-12.03-26.74-26.7-26.78c-14.7,0-26.65,12-26.65,26.75
					C1869.5,159.1,1881.45,171.1,1896.15,171.15 M1896.15,42.42c-56.15,0-101.83,45.75-101.83,101.98
					c0,56.26,45.68,102.03,101.83,102.03c56.18,0,101.88-45.77,101.88-102.03C1998.03,88.17,1952.33,42.42,1896.15,42.42
					L1896.15,42.42z"/>
			</g>
			<g>
				<path class="st0" d="M756.99,227.66c-8.16,0-14.77-6.61-14.77-14.77V75.91c0-8.16,6.61-14.77,14.77-14.77h45.68
					c8.16,0,14.77,6.61,14.77,14.77v136.98c0,8.16-6.61,14.77-14.77,14.77H756.99z"/>
				<path class="st0" d="M802.67,75.91v9.79v117.39v9.79h-9.79h-26.1h-9.79v-9.79V85.7v-9.79h9.79h26.1H802.67 M802.67,46.37h-9.79
					h-26.1h-9.79c-16.31,0-29.54,13.22-29.54,29.54v9.79v117.39v9.79c0,16.31,13.22,29.54,29.54,29.54h9.79h26.1h9.79
					c16.31,0,29.54-13.22,29.54-29.54v-9.79V85.7v-9.79C832.21,59.59,818.99,46.37,802.67,46.37L802.67,46.37z"/>
			</g>
			<g>
				<path class="st0" d="M1639.08,227.66c-8.16,0-14.77-6.61-14.77-14.77V75.91c0-8.16,6.61-14.77,14.77-14.77h58.29
					c46.8,0,84.94,37.34,85.01,83.24c0,45.93-38.11,83.28-84.96,83.28H1639.08z M1698.57,153.83c5.2,0,9.44-4.23,9.44-9.44
					c0-5.22-4.25-9.47-9.47-9.49h-1v18.92H1698.57z"/>
				<path class="st0" d="M1697.37,75.91c38.67,0,70.18,30.72,70.24,68.49c0,37.77-31.49,68.49-70.19,68.49h-48.55h-9.79v-9.79V85.7
					v-9.79h9.79H1697.37 M1682.76,168.6h15.8c13.35,0,24.2-10.86,24.2-24.2c0-13.34-10.87-24.22-24.2-24.25h-15.8V168.6
					 M1697.37,46.37h-48.5h-9.79c-16.31,0-29.54,13.22-29.54,29.54v9.79v117.39v9.79c0,16.31,13.22,29.54,29.54,29.54h9.79h48.55
					c54.99,0,99.73-43.97,99.73-98.03C1797.06,90.32,1752.3,46.37,1697.37,46.37L1697.37,46.37z"/>
			</g>
			<g>
				<path class="st0" d="M1894.36,509.14c-8.16,0-14.77-6.61-14.77-14.77v-73.57h-54.27v73.57c0,8.16-6.61,14.77-14.77,14.77h-65.38
					c-8.16,0-14.77-6.61-14.77-14.77V253.3c0-8.16,6.61-14.77,14.77-14.77h65.38c8.16,0,14.77,6.61,14.77,14.77v72.57h54.27V253.3
					c0-8.16,6.61-14.77,14.77-14.77h65.43c8.16,0,14.77,6.61,14.77,14.77v241.07c0,8.16-6.61,14.77-14.77,14.77H1894.36z"/>
				<path class="st0" d="M1959.79,253.3v9.79v221.48v9.79H1950h-45.85h-9.79v-9.79v-78.55h-83.81v78.55v9.79h-9.79h-45.8h-9.79
					v-9.79V263.09v-9.79h9.79h45.8h9.79v9.79v77.55h83.81v-77.55v-9.79h9.79H1950H1959.79 M1959.79,223.76H1950h-45.85h-9.79
					c-16.31,0-29.54,13.22-29.54,29.54v9.79v48.01h-24.73v-48.01v-9.79c0-16.31-13.22-29.54-29.54-29.54h-9.79h-45.8h-9.79
					c-16.31,0-29.54,13.22-29.54,29.54v9.79v221.48v9.79c0,16.31,13.22,29.54,29.54,29.54h9.79h45.8h9.79
					c16.31,0,29.54-13.22,29.54-29.54v-9.79v-49.01h24.73v49.01v9.79c0,16.31,13.22,29.54,29.54,29.54h9.79H1950h9.79
					c16.31,0,29.54-13.22,29.54-29.54v-9.79V263.09v-9.79C1989.33,236.98,1976.1,223.76,1959.79,223.76L1959.79,223.76z"/>
			</g>
			<g>
				<path class="st0" d="M650.27,227.66c-4.67,0-9.07-2.21-11.85-5.96l-17.05-22.94l-0.01,14.14c-0.01,8.15-6.62,14.76-14.77,14.76
					h-43.33c-8.16,0-14.77-6.61-14.77-14.77V75.91c0-8.16,6.61-14.77,14.77-14.77h38.39c4.65,0,9.03,2.19,11.82,5.91l16.52,22.03
					V75.91c0-8.16,6.61-14.77,14.77-14.77h43.39c8.16,0,14.77,6.61,14.77,14.77v136.98c0,8.16-6.61,14.77-14.77,14.77H650.27z"/>
				<path class="st0" d="M688.13,75.91v9.79v117.39v9.79h-9.79h-23.15h-4.92l-2.94-3.95l-40.71-54.77l-0.03,48.93l-0.01,9.79h-9.79
					h-23.75h-9.79v-9.79V85.7v-9.79h9.79h23.7h4.9l2.94,3.92l40.17,53.58V85.7v-9.79h9.79h23.8H688.13 M688.13,46.37h-9.79h-23.8
					h-9.79c-8.5,0-16.16,3.59-21.55,9.34c-5.55-5.92-13.34-9.34-21.55-9.34h-4.9h-23.7h-9.79c-16.31,0-29.54,13.22-29.54,29.54v9.79
					v117.39v9.79c0,16.31,13.22,29.54,29.54,29.54h9.79h23.75h9.79c8.65,0,16.44-3.72,21.84-9.65c5.57,6.12,13.48,9.65,21.84,9.65
					h4.92h23.15h9.79c16.31,0,29.54-13.22,29.54-29.54v-9.79V85.7v-9.79C717.67,59.59,704.44,46.37,688.13,46.37L688.13,46.37z"/>
			</g>
			<g>
				<path class="st0" d="M958.64,227.66c-4.67,0-9.07-2.21-11.86-5.96l-16.95-22.82v14.02c0,8.16-6.61,14.77-14.77,14.77h-43.39
					c-8.16,0-14.77-6.61-14.77-14.77V75.91c0-8.16,6.61-14.77,14.77-14.77h38.39c4.65,0,9.03,2.19,11.82,5.91l16.46,21.98V75.91
					c0-8.16,6.61-14.77,14.77-14.77h43.44c8.16,0,14.77,6.61,14.77,14.77v136.98c0,8.16-6.61,14.77-14.77,14.77H958.64z"/>
				<path class="st0" d="M996.56,75.91v9.79v117.39v9.79h-9.79h-23.2h-4.93l-2.94-3.95l-40.64-54.72v48.88v9.79h-9.79h-23.8h-9.79
					v-9.79V85.7v-9.79h9.79h23.7h4.9l2.94,3.92l40.11,53.55V85.7v-9.79h9.79h23.85H996.56 M996.56,46.37h-9.79h-23.85h-9.79
					c-8.49,0-16.14,3.58-21.53,9.31c-5.55-5.91-13.33-9.31-21.53-9.31h-4.9h-23.7h-9.79c-16.31,0-29.54,13.22-29.54,29.54v9.79
					v117.39v9.79c0,16.31,13.22,29.54,29.54,29.54h9.79h23.8h9.79c8.63,0,16.39-3.7,21.79-9.59c5.56,6.08,13.46,9.59,21.79,9.59
					h4.93h23.2h9.79c16.31,0,29.54-13.22,29.54-29.54v-9.79V85.7v-9.79C1026.1,59.59,1012.87,46.37,996.56,46.37L996.56,46.37z"/>
			</g>
			<g>
				<path class="st0" d="M1245.95,227.66c-3.92,0-7.67-1.55-10.44-4.32c-2.77-2.77-4.33-6.53-4.33-10.45V75.96
					c0-8.15,6.61-14.76,14.76-14.77c0,0,110.84-0.06,110.84-0.06c3.92,0,7.67,1.55,10.44,4.32c2.77,2.77,4.33,6.53,4.33,10.45v41.14
					c0,4.46-1.98,8.46-5.1,11.16v32.18c3.12,2.71,5.1,6.71,5.1,11.16v41.28c0,8.15-6.61,14.76-14.76,14.77
					C1356.79,227.6,1245.96,227.66,1245.95,227.66z"/>
				<path class="st0" d="M1356.78,75.9v9.8v21.55v9.79h-9.79h-57.65v5.76h52.55h9.79v9.79v21.25v9.79h-9.79h-52.55v7.91h57.65h9.79
					v9.79v21.7v9.79l-9.79,0.01l-91.24,0.05l-9.8,0.01v-9.8V85.75v-9.79l9.79-0.01l91.24-0.05L1356.78,75.9 M1356.78,46.36
					c-0.01,0-0.01,0-0.02,0l-9.8,0.01l-91.24,0.05l-9.79,0.01c-16.31,0.01-29.52,13.23-29.52,29.54v9.79v117.34v9.8
					c0,7.84,3.11,15.35,8.66,20.89c5.54,5.54,13.05,8.65,20.88,8.65c0.01,0,0.01,0,0.02,0l9.8-0.01l91.24-0.05l9.79-0.01
					c16.31-0.01,29.52-13.23,29.52-29.54v-9.79v-21.7v-9.79c0-6.15-1.88-11.87-5.1-16.6v-1.11v-20.21c3.22-4.73,5.1-10.44,5.1-16.6
					v-9.79V85.7v-9.8c0-7.84-3.11-15.35-8.66-20.89C1372.13,49.47,1364.61,46.36,1356.78,46.36L1356.78,46.36z"/>
			</g>
			<g>
				<path class="st0" d="M659.89,515.19c-54.15,0-96.62-20.15-108.34-26.33l-8.85-4.66c-3.51-1.85-6.13-5.04-7.27-8.84
					c-1.14-3.8-0.69-7.91,1.23-11.38l30.71-55.49c1.94-3.51,5.23-6.08,9.11-7.12c1.26-0.34,2.54-0.5,3.82-0.5
					c2.66,0,5.3,0.72,7.63,2.12l8.7,5.25c8.56,5.16,32.17,17.17,66.46,17.17c12.97,0,21.39-1.32,26.7-2.76
					c-9.65-2.67-23.46-5.06-40.05-7.94l-0.48-0.08c-36.31-6.23-61.16-14.87-78.18-27.21c-20.2-14.64-30.44-35.12-30.44-60.89
					c0-28.71,15.39-53.77,43.34-70.57c21.77-13.09,50.92-20.59,79.97-20.59c44.15,0,83.77,14.38,94.86,18.78l9.21,3.66
					c3.67,1.46,6.6,4.32,8.14,7.96c1.54,3.63,1.56,7.73,0.06,11.39l-23.25,56.55c-1.49,3.63-4.37,6.52-7.99,8.02
					c-1.81,0.75-3.74,1.13-5.67,1.13c-1.92,0-3.85-0.38-5.66-1.13l-9.07-3.76c-9.66-4.01-34.7-13.32-58.39-13.32
					c-1.26,0-2.5,0.01-3.71,0.04c2.01,0.36,4.15,0.73,6.44,1.11c47.23,7.76,79.51,19.71,98.69,36.53
					c22.05,19.34,24.57,42.21,24.54,57.73c0,15.45-3.27,29.54-9.71,41.87c-6.53,12.5-16.22,23.02-28.8,31.27
					C731.38,507.79,699.84,515.19,659.89,515.19z"/>
				<path class="st0" d="M663.94,250.15c41.53,0,78.94,13.58,89.41,17.74l9.21,3.66l-3.77,9.17l-15.75,38.3l-3.74,9.08l-9.07-3.76
					c-10.48-4.35-37.7-14.45-64.04-14.45c-14.95,0-27.01,1.65-34.88,4.77c-9.17,3.63-9.17,7.6-9.17,9.29
					c0,9.14,32.25,14.44,44.39,16.43c44.42,7.3,74.3,18.11,91.34,33.06c17.34,15.2,19.53,32.9,19.5,46.6
					c0,13.07-2.7,24.86-8.03,35.05c-5.35,10.24-13.36,18.91-23.81,25.76c-19.81,12.99-48.63,19.58-85.65,19.58
					c-50.76,0-90.49-18.85-101.46-24.63l-8.85-4.66l4.84-8.75l20.95-37.85l4.92-8.89l8.7,5.25c9.62,5.8,36.09,19.29,74.09,19.29
					c25.11,0,37.11-4.61,42.75-8.48c4.22-2.89,6.35-6.31,6.51-10.43c0.09-2.44,0.22-6.12-10.88-10.36
					c-10.7-4.08-27.7-7.03-49.22-10.75l-0.46-0.08c-34.03-5.84-56.92-13.66-72.04-24.61c-16.38-11.87-24.34-27.87-24.34-48.93
					c0-23.32,12.85-43.89,36.18-57.91C611.12,256.88,637.49,250.15,663.94,250.15 M663.94,220.61c-31.65,0-63.57,8.27-87.58,22.7
					c-15.64,9.4-27.98,21.22-36.67,35.13c-9.05,14.48-13.83,31.11-13.83,48.09c0,15.09,3.07,28.9,9.12,41.07
					c5.4,10.85,13.17,20.42,23.15,28.51c-1.4,1.59-2.64,3.34-3.68,5.23l-4.92,8.89l-20.95,37.85l-4.84,8.75
					c-3.85,6.95-4.73,15.15-2.46,22.76c2.27,7.61,7.51,13.98,14.54,17.68l8.85,4.66c12.48,6.58,57.68,28.03,115.22,28.03
					c42.87,0,77.14-8.21,101.85-24.41c14.71-9.65,26.08-22.02,33.79-36.78c7.55-14.44,11.38-30.82,11.38-48.68l0,0
					c0.01-7.7-0.47-19.42-4.79-32.24c-4.74-14.04-13.07-26.37-24.78-36.63c-3.66-3.21-7.67-6.24-12.04-9.1
					c0.49-0.9,0.93-1.83,1.32-2.79l3.74-9.08l15.75-38.3l3.77-9.17c3-7.3,2.96-15.5-0.13-22.77c-3.08-7.27-8.95-13-16.29-15.92
					l-9.21-3.66C752.55,235.78,710.72,220.61,663.94,220.61L663.94,220.61z"/>
			</g>
			<g>
				<path class="st0" d="M1606.17,516.84c-78.74,0-142.8-64.04-142.8-142.75s64.06-142.75,142.8-142.75l0.11,0
					c47.73,0,91.99,23.63,118.46,63.21l4.8,7.18c4.14,6.19,3.02,14.48-2.59,19.36l-51.44,44.66c-2.71,2.35-6.15,3.62-9.68,3.62
					c-0.79,0-1.58-0.06-2.37-0.19c-4.33-0.7-8.12-3.29-10.35-7.06l-5.98-10.11c-8.15-13.78-23.34-22.34-39.65-22.34
					c-25.19,0-45.68,19.93-45.68,44.43c0,24.47,20.49,44.38,45.68,44.38c16.31,0,31.5-8.56,39.65-22.34l5.98-10.12
					c2.23-3.77,6.02-6.36,10.35-7.06c0.79-0.13,1.58-0.19,2.36-0.19c3.54,0,6.98,1.27,9.69,3.62l51.45,44.74
					c5.63,4.89,6.72,13.21,2.56,19.4l-4.84,7.18c-13.09,19.43-30.83,35.47-51.3,46.39C1652.86,511.05,1629.62,516.84,1606.17,516.84
					z"/>
				<path class="st0" d="M1606.32,246.1c42.74,0,82.42,21.18,106.13,56.65l4.8,7.18l-6.52,5.66l-36.05,31.3l-8.87,7.7l-5.98-10.11
					c-10.79-18.25-30.86-29.59-52.37-29.59c-33.33,0-60.45,26.56-60.45,59.2c0,32.62,27.12,59.15,60.45,59.15
					c21.51,0,41.57-11.34,52.37-29.59l5.98-10.12l8.87,7.71l36.05,31.35l6.53,5.68l-4.84,7.18c-11.75,17.43-27.65,31.82-46,41.62
					c-18.39,9.81-39.23,15-60.26,15c-70.6,0-128.04-57.41-128.04-127.99s57.44-127.99,128.03-127.99L1606.32,246.1L1606.32,246.1
					 M1606.32,216.56c-0.01,0-0.01,0-0.02,0l-0.16,0c-86.86,0-157.55,70.66-157.55,157.52s70.69,157.52,157.57,157.52
					c25.87,0,51.51-6.39,74.17-18.48c22.59-12.05,42.16-29.75,56.59-51.17l4.84-7.18c8.33-12.37,6.14-29.01-5.11-38.8l-6.53-5.68
					l-36.05-31.35l-5.63-4.9l5.61-4.87l36.05-31.3l6.52-5.66c11.24-9.76,13.46-26.35,5.19-38.72l-4.8-7.18
					C1707.8,242.64,1658.94,216.56,1606.32,216.56L1606.32,216.56z M1607.47,403.69c-17.05,0-30.91-13.28-30.91-29.61
					c0-16.36,13.87-29.66,30.91-29.66c11.11,0,21.44,5.78,26.94,15.09l5.98,10.11c0.94,1.59,2.02,3.07,3.22,4.44
					c-1.2,1.36-2.27,2.85-3.21,4.43l-5.99,10.12C1628.91,397.91,1618.59,403.69,1607.47,403.69L1607.47,403.69z"/>
			</g>
			<g>
				<path class="st0" d="M1521.45,227.66c-4.67,0-9.07-2.21-11.86-5.96l-16.95-22.82v14.02c0,8.16-6.61,14.77-14.77,14.77h-43.39
					c-8.16,0-14.77-6.61-14.77-14.77V75.91c0-8.16,6.61-14.77,14.77-14.77h38.39c4.65,0,9.03,2.19,11.82,5.92l16.46,21.98V75.91
					c0-8.16,6.61-14.77,14.77-14.77h43.44c8.16,0,14.77,6.61,14.77,14.77v136.98c0,8.16-6.61,14.77-14.77,14.77H1521.45z"/>
				<path class="st0" d="M1559.37,75.91v9.79v117.39v9.79h-9.79h-23.2h-4.93l-2.94-3.95l-40.64-54.72v48.88v9.79h-9.79h-23.8h-9.79
					v-9.79V85.7v-9.79h9.79h23.7h4.9l2.94,3.92l40.11,53.55V85.7v-9.79h9.79h23.85H1559.37 M1559.37,46.37h-9.79h-23.85h-9.79
					c-8.49,0-16.14,3.58-21.53,9.31c-5.55-5.91-13.33-9.31-21.53-9.31h-4.9h-23.7h-9.79c-16.31,0-29.54,13.22-29.54,29.54v9.79
					v117.39v9.79c0,16.31,13.22,29.54,29.54,29.54h9.79h23.8h9.79c8.63,0,16.39-3.7,21.79-9.59c5.56,6.08,13.46,9.59,21.79,9.59
					h4.93h23.2h9.79c16.31,0,29.54-13.22,29.54-29.54v-9.79V85.7v-9.79C1588.91,59.59,1575.68,46.37,1559.37,46.37L1559.37,46.37z"
					/>
			</g>
			<g>
				<path class="st0" d="M1326.85,509.14c-8.16,0-14.77-6.61-14.77-14.77V334.65h-55.98c-8.16,0-14.77-6.61-14.77-14.77V253.3
					c0-8.16,6.61-14.77,14.77-14.77h207.17c8.16,0,14.77,6.61,14.77,14.77v66.58c0,8.16-6.61,14.77-14.77,14.77h-54.43v159.72
					c0,8.16-6.61,14.77-14.77,14.77H1326.85z"/>
				<path class="st0" d="M1463.28,253.3v9.79v47v9.79h-9.79h-59.4v164.69v9.79h-9.79h-47.65h-9.79v-9.79V319.88h-60.95h-9.79v-9.79
					v-47v-9.79h9.79h187.59H1463.28 M1463.28,223.76h-9.79H1265.9h-9.79c-16.31,0-29.54,13.22-29.54,29.54v9.79v47v9.79
					c0,16.31,13.22,29.54,29.54,29.54h9.79h31.41v135.16v9.79c0,16.31,13.22,29.54,29.54,29.54h9.79h47.65h9.79
					c16.31,0,29.54-13.22,29.54-29.54v-9.79V349.42h29.86h9.79c16.31,0,29.54-13.22,29.54-29.54v-9.79v-47v-9.79
					C1492.81,236.98,1479.59,223.76,1463.28,223.76L1463.28,223.76z"/>
			</g>
			<g>
				<path class="st0" d="M983.65,509.14c-6.62,0-12.43-4.4-14.22-10.77l-19.47-69.2l-19.57,69.22c-1.8,6.36-7.6,10.75-14.21,10.75
					h-68.01c-6.61,0-12.41-4.39-14.21-10.75l-68.24-241.07c-1.26-4.45-0.36-9.24,2.43-12.93c2.79-3.69,7.15-5.86,11.78-5.86h68.68
					c6.7,0,12.55,4.5,14.27,10.98l21.86,82.23l24.11-82.58c1.84-6.3,7.61-10.63,14.18-10.63h53.98c6.56,0,12.34,4.33,14.18,10.63
					l24.29,83.26l22.08-82.93c1.72-6.47,7.58-10.97,14.27-10.97h68.64c4.63,0,8.99,2.17,11.79,5.87c2.79,3.7,3.69,8.49,2.42,12.94
					l-68.57,241.07c-1.81,6.35-7.6,10.73-14.21,10.73H983.65z"/>
				<path class="st0" d="M1120.47,253.3L1120.47,253.3 M1120.47,253.3l-3.55,12.47l-63,221.48l-2.02,7.11h-7.4h-53.45h-7.42
					l-2.01-7.14l-31.64-112.46l-31.8,112.48l-2.02,7.13h-7.41h-53.2h-7.41l-2.02-7.13l-62.7-221.48l-3.53-12.46h12.95h48.2h7.53
					l1.93,7.28l33.53,126.15l36.9-126.38l2.06-7.05h7.34h39.3h7.34l2.06,7.05l37.06,127.04l33.76-126.81l1.94-7.27h7.53h48.15
					H1120.47 M1120.48,223.76L1120.48,223.76h-12.97h-48.15h-7.53c-13.39,0-25.1,9-28.54,21.94l-1.94,7.27l-6.52,24.49l-7.41-25.39
					l-2.06-7.05c-3.68-12.6-15.23-21.27-28.36-21.27h-7.34h-39.3h-7.34c-13.12,0-24.68,8.66-28.35,21.26l-2.06,7.05l-7.21,24.69
					l-6.32-23.77l-1.93-7.28c-3.44-12.94-15.16-21.95-28.55-21.95h-7.53h-48.2h-12.95c-9.26,0-17.98,4.34-23.56,11.72
					c-5.58,7.38-7.38,16.96-4.86,25.86l3.53,12.46l62.7,221.48l2.02,7.13c3.6,12.71,15.21,21.49,28.42,21.49h7.41h53.2h7.41
					c13.22,0,24.83-8.78,28.42-21.5l2.02-7.13l3.31-11.7l3.28,11.65l2.01,7.14c3.58,12.74,15.2,21.54,28.43,21.54h7.42h53.45h7.4
					c13.2,0,24.8-8.76,28.41-21.46l2.02-7.11l63-221.48l3.34-11.73c0.87-2.79,1.34-5.75,1.34-8.82
					C1150.02,236.98,1136.79,223.76,1120.48,223.76L1120.48,223.76z M1120.47,282.83L1120.47,282.83L1120.47,282.83L1120.47,282.83z
					"/>
			</g>
			<g>
				<path class="st0" d="M1152.71,509.14c-8.16,0-14.77-6.61-14.77-14.77V253.3c0-8.16,6.61-14.77,14.77-14.77h68.88
					c8.16,0,14.77,6.61,14.77,14.77v241.07c0,8.16-6.61,14.77-14.77,14.77H1152.71z"/>
				<path class="st0" d="M1221.59,253.3v9.79v221.48v9.79h-9.79h-49.3h-9.79v-9.79V263.09v-9.79h9.79h49.3H1221.59 M1221.59,223.76
					h-9.79h-49.3h-9.79c-16.31,0-29.54,13.22-29.54,29.54v9.79v221.48v9.79c0,16.31,13.22,29.54,29.54,29.54h9.79h49.3h9.79
					c16.31,0,29.54-13.22,29.54-29.54v-9.79V263.09v-9.79C1251.13,236.98,1237.91,223.76,1221.59,223.76L1221.59,223.76z"/>
			</g>
			<g>
				<path class="st0" d="M1098.06,227.66c-8.16,0-14.77-6.61-14.77-14.77v-77.72h-22.73c-8.16,0-14.77-6.61-14.77-14.77V75.91
					c0-8.16,6.61-14.77,14.77-14.77h119.03c8.16,0,14.77,6.61,14.77,14.77v44.48c0,8.16-6.61,14.77-14.77,14.77h-21.88v77.72
					c0,8.16-6.61,14.77-14.77,14.77H1098.06z"/>
				<path class="st0" d="M1179.6,75.91v9.79v24.9v9.79h-9.79h-26.85v82.7v9.79h-9.79h-25.3h-9.79v-9.79v-82.7h-27.7h-9.79v-9.79
					V85.7v-9.79h9.79h99.44H1179.6 M1179.6,46.37h-9.79h-99.44h-9.79c-16.31,0-29.54,13.22-29.54,29.54v9.79v24.9v9.79
					c0,16.31,13.22,29.54,29.54,29.54h7.96v53.16v9.79c0,16.31,13.22,29.54,29.54,29.54h9.79h25.3h9.79
					c16.31,0,29.54-13.22,29.54-29.54v-9.79v-53.16h7.11c16.31,0,29.54-13.22,29.54-29.54v-9.79V85.7v-9.79
					C1209.13,59.59,1195.91,46.37,1179.6,46.37L1179.6,46.37z"/>
			</g>
		</g>
		<g>
			<g>
				<path class="st2" d="M3311.48,502.33l23.6-365.79h117.02v-27.66c0.01-41.04,33.4-74.43,74.44-74.43h62.64
					c41.04,0,74.44,33.39,74.44,74.43v27.66h116.97l0.34,4.58l23.3,361.21H3311.48z M3756.79,457.84l-17.85-276.82h-75.31v61.09
					c0,4.07-3.31,7.38-7.38,7.38h-29.71c-4.07,0-7.37-3.31-7.37-7.38v-61.09h-122.58v61.09c0,4.05-3.3,7.36-7.35,7.38h-29.76
					c-4.07,0-7.38-3.31-7.38-7.38v-61.09h-75.33l-17.84,276.82H3756.79z M3619.16,136.53v-27.66c0-16.52-13.44-29.98-29.96-30
					h-62.62c-16.54,0-30,13.46-30,30v27.66H3619.16z"/>
				<path class="st0" d="M3526.54,39.33C3526.54,39.33,3526.54,39.33,3526.54,39.33h62.64c38.41,0,69.54,31.13,69.55,69.54v32.56
					H3776h0.04l22.97,356H3316.7l22.97-356h117.32v-32.56C3457,70.46,3488.13,39.33,3526.54,39.33 M3491.68,141.43h132.37v-32.56
					c0-19.25-15.6-34.87-34.85-34.89h-62.63c-19.27,0-34.89,15.62-34.89,34.89V141.43 M3626.53,244.58c-1.37,0-2.48-1.11-2.48-2.48
					v-65.99h-132.37v65.99c0,1.37-1.1,2.47-2.47,2.48h-29.74c-1.37,0-2.48-1.11-2.48-2.48v-65.99h-84.82l-18.48,286.62h408.32
					l-18.49-286.62h-0.04h-84.76v65.99c0,1.37-1.11,2.48-2.48,2.48H3626.53 M3589.18,29.54h-62.63c-43.75,0-79.34,35.59-79.35,79.33
					v22.77h-107.53h-9.18l-0.59,9.16l-22.97,356l-0.67,10.42h10.45h482.32h10.45l-0.67-10.42l-22.97-356l-0.59-9.16h-9.18h-107.53
					v-22.77C3668.51,65.13,3632.92,29.54,3589.18,29.54L3589.18,29.54z M3501.47,131.63v-22.77c0-13.84,11.26-25.1,25.1-25.1h62.63
					c13.81,0.02,25.06,11.28,25.06,25.1v22.77H3501.47L3501.47,131.63z M3668.52,185.91h65.83l17.22,267.03h-387.42l17.21-267.03
					h65.84v56.19c0,6.77,5.51,12.27,12.27,12.27h29.74c6.78-0.02,12.26-5.53,12.26-12.27v-56.19h112.79v56.19
					c0,6.77,5.51,12.27,12.27,12.27h29.71c6.77,0,12.27-5.51,12.27-12.27V185.91L3668.52,185.91z"/>
			</g>
			<g>
				<path class="st2" d="M2238.77,179.33c-0.57,0-1.13-0.09-1.68-0.26l-0.15-0.05l-0.15-0.06c-2.41-0.93-3.86-3.46-3.45-6.02
					l9.94-71.63c0.36-2.87,2.8-5.02,5.72-5.02c0.64,0,1.28,0.11,1.89,0.31l28.17,10.26c1.58,0.56,2.85,1.82,3.44,3.44
					c0.59,1.64,0.42,3.43-0.47,4.93l-38.56,61.45C2242.47,178.33,2240.68,179.33,2238.77,179.33
					C2238.77,179.33,2238.77,179.33,2238.77,179.33z"/>
				<path class="st0" d="M2249,101.2c0.1,0,0.2,0.02,0.29,0.05l28.09,10.23c0.51,0.18,0.72,0.79,0.43,1.27l-38.52,61.38
					c-0.11,0.19-0.32,0.3-0.53,0.3c-0.07,0-0.14-0.01-0.2-0.03c-0.27-0.11-0.43-0.4-0.39-0.69l9.96-71.76
					C2248.19,101.5,2248.57,101.2,2249,101.2 M2249,91.41c-5.38,0-9.88,3.97-10.57,9.27l-9.95,71.66
					c-0.68,4.76,2.05,9.45,6.53,11.19l0.3,0.12l0.31,0.1c1.02,0.32,2.08,0.49,3.15,0.49c3.6,0,6.97-1.88,8.85-4.93l38.49-61.34
					l0.06-0.1l0.06-0.1c1.64-2.77,1.96-6.08,0.86-9.1c-1.08-2.98-3.41-5.31-6.39-6.38l-28.07-10.22l-0.09-0.03l-0.09-0.03
					C2251.35,91.6,2250.18,91.41,2249,91.41L2249,91.41z"/>
			</g>
			<g>
				<path class="st2" d="M2194.31,430.82c-32.75,0-65.47-13.05-89.76-35.8c-25.31-23.71-39.26-55.21-39.26-88.71
					c0-31.51,12.93-63.1,35.47-86.67c23.25-24.31,53.66-37.7,85.64-37.7c46.89,0,90.55,28.94,107.82,56.18l0.11,0.18
					c13.77,23.9-5.04,39.13-27.41,52.04l-110.23,64.04c8.68,7.4,22.46,12.28,35.65,12.28c28.73,0,51.48-19.68,54.09-46.79l0.43-4.43
					h69.13l-0.24,5.13c-1.46,30.92-15.15,59.22-38.53,79.67C2254.65,419.95,2225.21,430.82,2194.31,430.82z M2190.48,243.12
					c-17.93,0-34.79,7.94-46.26,21.79c-9.87,11.92-14.66,26.94-13.61,42.08l91.66-52.88
					C2212.51,246.64,2202.26,243.12,2190.48,243.12z"/>
				<path class="st0" d="M2186.4,186.84c45.23,0,87.06,27.69,103.69,53.9c10.68,18.53-0.81,31.04-25.62,45.35l-115.69,67.21
					c9.42,11.58,27.51,18.25,43.55,18.25c32.82,0,56.27-23.21,58.97-51.22h59.55c-2.95,62.44-56.51,105.6-116.54,105.6
					c-64.94,0-124.12-52.06-124.12-119.61C2070.19,243.51,2122.42,186.84,2186.4,186.84 M2126.7,314.9l104.05-60.03
					c-11.65-10.77-24.3-16.64-40.27-16.64C2149.94,238.22,2119.15,275.15,2126.7,314.9 M2186.4,177.04
					c-16.96,0-33.51,3.6-49.19,10.71c-14.9,6.75-28.36,16.34-39.99,28.5c-23.4,24.48-36.83,57.3-36.83,90.06
					c0,34.87,14.49,67.64,40.8,92.29c12.43,11.64,26.78,20.8,42.65,27.22c16.25,6.57,33.23,9.9,50.46,9.9
					c32.08,0,62.67-11.3,86.12-31.81c24.4-21.34,38.68-50.86,40.2-83.13l0.48-10.26h-10.27h-59.55h-8.9l-0.85,8.86
					c-2.36,24.55-23.06,42.37-49.22,42.37c-9.41,0-19.1-2.66-26.6-6.98l103.66-60.22c15.22-8.78,24.31-16.27,29.44-24.27
					c6.85-10.67,6.76-22.26-0.26-34.44l-0.1-0.18l-0.11-0.18c-9.43-14.87-25.69-29.47-44.6-40.08
					C2232.32,183.4,2209.03,177.04,2186.4,177.04L2186.4,177.04z M2135.54,298.49c0.9-11.04,5.17-21.67,12.45-30.46
					c10.53-12.72,26.02-20.02,42.49-20.02c8.28,0,15.56,1.83,22.53,5.78L2135.54,298.49L2135.54,298.49z"/>
			</g>
			<g>
				<path class="st2" d="M2214.93,176.8c-2.29,0-4.37-1.45-5.17-3.61l-24.88-68.07c-0.61-1.62-0.44-3.47,0.46-4.97
					c0.91-1.51,2.42-2.5,4.16-2.72l29.56-4.16c0.29-0.04,0.55-0.06,0.81-0.06c1.61,0,3.16,0.68,4.24,1.86
					c1.08,1.17,1.63,2.76,1.5,4.36l-5.18,72.37c-0.25,2.51-2.16,4.54-4.65,4.93l-0.38,0.06L2214.93,176.8z"/>
				<path class="st0" d="M2219.87,98.12c0.5,0,0.91,0.41,0.86,0.92l-5.17,72.28c-0.03,0.3-0.25,0.52-0.54,0.57
					c-0.03,0.01-0.07,0.01-0.1,0.01c-0.26,0-0.48-0.16-0.58-0.41l-24.88-68.08c-0.19-0.49,0.14-1.06,0.67-1.12l29.6-4.16
					C2219.79,98.13,2219.83,98.12,2219.87,98.12 M2219.87,88.33c-0.48,0-0.96,0.03-1.43,0.1l-0.03,0l-0.03,0l-29.55,4.16
					c-3.17,0.42-6.03,2.3-7.68,5.04c-1.66,2.76-1.98,6.19-0.86,9.2l24.87,68.03c1.52,4.11,5.44,6.84,9.78,6.84
					c0.52,0,1.05-0.04,1.56-0.12l0.03,0l0.03,0c4.69-0.74,8.3-4.56,8.76-9.29l0.01-0.13l0.01-0.13l5.17-72.27
					c0.22-2.93-0.8-5.84-2.79-8C2225.71,89.58,2222.85,88.33,2219.87,88.33L2219.87,88.33z"/>
			</g>
			<g>
				<path class="st2" d="M2997.46,502.33V213.52h67.35v9.27c10.15-7.34,27.98-15.36,49.16-15.36c28.85,0,56.21,11.5,77.06,32.38
					c20.92,20.95,32.44,48.58,32.44,77.78c0,29.21-11.52,56.83-32.44,77.77c-20.84,20.86-48.21,32.35-77.06,32.35
					c-21.18,0-39-8-49.16-15.32v89.93H2997.46z M3112.04,268.84c-27.1,0-47.54,20.96-47.54,48.75c0,27.78,20.44,48.74,47.54,48.74
					c27.02,0,48.18-21.41,48.18-48.74C3160.22,290.26,3139.06,268.84,3112.04,268.84z"/>
				<path class="st0" d="M3113.97,212.33c56.78,0,104.6,47.42,104.6,105.26c0,57.86-47.82,105.23-104.6,105.23
					c-27.22,0-48.49-13.92-53.05-20.67h-1v95.28h-57.56V218.42h57.56v14.64h1C3065.48,226.28,3086.75,212.33,3113.97,212.33
					 M3112.04,371.23c30.07,0,53.08-24.06,53.08-53.63c0-29.57-23.01-53.65-53.08-53.65c-30.16,0-52.43,23.72-52.43,53.65
					C3059.6,347.54,3081.88,371.23,3112.04,371.23 M3113.97,202.54c-17.03,0-32.76,5.04-44.26,11.33v-5.25h-9.79h-57.56h-9.79v9.79
					v279.01v9.79h9.79h57.56h9.79v-9.79v-76.12c11.5,6.28,27.23,11.31,44.26,11.31c15.22,0,30.07-3.06,44.16-9.1
					c13.58-5.82,25.81-14.13,36.36-24.69c21.84-21.87,33.87-50.72,33.87-81.23c0-30.51-12.03-59.36-33.87-81.24
					c-10.55-10.57-22.79-18.88-36.36-24.71C3144.05,205.6,3129.19,202.54,3113.97,202.54L3113.97,202.54z M3112.04,361.43
					c-24.31,0-42.64-18.85-42.64-43.84c0-25,18.33-43.85,42.64-43.85c24.27,0,43.29,19.26,43.29,43.85
					C3155.32,342.18,3136.31,361.43,3112.04,361.43L3112.04,361.43z"/>
			</g>
			<g>
				<path class="st2" d="M2258.67,192.74c-1.61,0-3.13-0.69-4.17-1.9c-1.72-1.99-1.82-4.84-0.25-6.93l42.42-58.63
					c1.1-1.5,2.84-2.38,4.68-2.38c1.64,0,3.21,0.7,4.3,1.93l19.99,22.21c1.16,1.3,1.66,3,1.41,4.69c-0.25,1.7-1.24,3.18-2.7,4.08
					l-63.04,36.28l-0.13,0.06C2260.4,192.53,2259.53,192.74,2258.67,192.74z"/>
				<path class="st0" d="M2301.34,127.8c0.24,0,0.47,0.09,0.64,0.28l20.02,22.23c0.36,0.4,0.25,1.03-0.21,1.32l-62.8,36.14
					c-0.1,0.05-0.21,0.08-0.32,0.08c-0.18,0-0.35-0.07-0.48-0.21c-0.2-0.22-0.21-0.54-0.03-0.78l42.47-58.7
					C2300.81,127.92,2301.08,127.8,2301.34,127.8 M2301.34,118c-3.39,0-6.61,1.63-8.61,4.37l-0.02,0.02l-0.02,0.02l-42.45,58.67
					c-2.89,3.95-2.67,9.26,0.54,12.96c1.98,2.28,4.85,3.59,7.88,3.59c1.62,0,3.25-0.38,4.7-1.11l0.26-0.13l0.25-0.14l62.8-36.14
					l0.12-0.07l0.11-0.07c2.7-1.66,4.52-4.4,4.99-7.53c0.46-3.13-0.47-6.27-2.57-8.64l-0.02-0.03l-0.02-0.03l-20-22.22
					C2307.26,119.29,2304.37,118,2301.34,118L2301.34,118z"/>
			</g>
			<g>
				<path class="st2" d="M2545.79,421.62V132.82h67.37v91.4c12.74-10.61,30.07-16.72,48.32-16.72c46.04,0,95.59,32.18,95.59,102.85
					v111.2h-67.4V314.55c0-42.38-30.58-44.53-36.71-44.53c-9.34,0-39.81,3.62-39.81,50.22v101.38H2545.79z"/>
				<path class="st0" d="M2608.26,137.71v97.69h0.61c11.76-14.23,31.04-23.01,52.6-23.01c44.64,0,90.7,31.3,90.7,97.95v106.31h-57.6
					v-102.1c0-38.98-25.11-49.42-41.6-49.42c-23.76,0-44.7,16.6-44.7,55.12v96.48h-57.57V137.71H2608.26 M2618.05,127.92h-9.79
					h-57.57h-9.79v9.79v279.01v9.79h9.79h57.57h9.79v-9.79v-96.48c0-15.38,3.76-27.62,10.87-35.39c7.52-8.21,17.22-9.93,24.04-9.93
					c3.6,0,12.81,0.74,20.45,7.59c7.54,6.77,11.36,17.55,11.36,32.04v102.1v9.79h9.79h57.6h9.79v-9.79V310.34
					c0-33.46-10.95-61.5-31.67-81.09c-18.19-17.19-42.63-26.66-68.82-26.66c-11.84,0-23.57,2.42-33.94,7.01
					c-3.3,1.46-6.48,3.14-9.48,5.03v-76.92V127.92L2618.05,127.92z"/>
			</g>
			<g>
				<path class="st2" d="M2877.27,427.72c-61,0-110.63-49.4-110.63-110.11c0-60.76,49.63-110.18,110.63-110.18
					c61,0,110.62,49.43,110.62,110.18C2987.89,378.32,2938.26,427.72,2877.27,427.72z M2877.27,269.34
					c-26.06,0-47.25,21.69-47.25,48.35c0,26.66,21.2,48.35,47.25,48.35c26.05,0,47.24-21.69,47.24-48.35
					C2924.5,291.03,2903.31,269.34,2877.27,269.34z"/>
				<path class="st0" d="M2877.27,212.32c58.41,0,105.72,47.25,105.72,105.29c0,58.02-47.31,105.21-105.72,105.21
					c-58.43,0-105.74-47.19-105.74-105.21C2771.53,259.57,2818.84,212.32,2877.27,212.32 M2877.27,370.93
					c28.75,0,52.13-23.88,52.13-53.24c0-29.36-23.39-53.24-52.13-53.24c-28.78,0-52.15,23.88-52.15,53.24
					C2825.12,347.05,2848.49,370.93,2877.27,370.93 M2877.27,202.53c-63.7,0-115.53,51.63-115.53,115.08
					c0,63.42,51.83,115.01,115.53,115.01c63.7,0,115.52-51.59,115.52-115.01C2992.78,254.15,2940.96,202.53,2877.27,202.53
					L2877.27,202.53z M2877.27,361.13c-23.36,0-42.36-19.49-42.36-43.45c0-23.96,19-43.45,42.36-43.45
					c23.35,0,42.34,19.49,42.34,43.45C2919.61,341.64,2900.61,361.13,2877.27,361.13L2877.27,361.13z"/>
			</g>
			<g>
				<path class="st2" d="M2428.62,429.83c-36.32,0-77.4-20.43-104.64-52.04l-3.54-4.11l58.05-40.5l2.89,2.56
					c13.58,12.04,29.66,24.88,48.78,24.88c14.09,0,26.46-10.15,26.46-21.73c0-15.92-14.5-21.41-47.3-32.3l-1.02-0.34
					c-49.05-16.28-78.33-50.51-78.33-91.57c0-49.73,44.3-90.19,98.76-90.19c41.49,0,76.21,24.63,94.86,47.67l3.31,4.09l-54.89,38.21
					l-4.18-3.45c-9.93-8.23-21.18-17.55-39.99-17.55c-18.97,0-27.61,10.54-27.61,20.33c0,15.07,16.11,21.18,44.59,30.68l0.85,0.28
					c28.82,9.6,50.41,23.11,64.17,40.15c12.11,14.99,18.25,32.72,18.25,52.69c0,23.4-10.1,46.69-27.71,63.9
					C2481.69,419.77,2456.21,429.83,2428.62,429.83z"/>
				<path class="st0" d="M2428.73,129.4c36.45,0,70.88,20.93,91.06,45.86l-47.52,33.08c-10.22-8.43-22.94-19.76-44.42-19.76
					c-21.11,0-32.51,12.27-32.51,25.23c0,19.54,21.08,26.37,48.78,35.61c59.67,19.88,79.07,53.6,79.07,88.19
					c0,44.63-38.44,87.33-94.56,87.33c-36.07,0-75.81-21.18-100.93-50.34l50.44-35.19c13.35,11.84,30.73,26.11,52.03,26.11
					c17.24,0,31.36-12.64,31.36-26.62c0-20.34-19.88-26.73-51.67-37.29c-50.7-16.82-74.98-50.85-74.98-86.92
					C2334.87,166.49,2378.24,129.4,2428.73,129.4 M2428.73,119.6c-27.11,0-52.82,9.61-72.38,27.06
					c-20.17,17.98-31.27,42.14-31.27,68.03c0,20.72,7.16,40.39,20.7,56.89c14.28,17.4,34.8,30.63,60.99,39.32l1.02,0.34
					c32.55,10.81,43.94,15.67,43.94,27.66c0,9.63-11.38,16.83-21.56,16.83c-17.41,0-32.63-12.21-45.53-23.65l-5.77-5.12l-6.33,4.41
					l-50.44,35.19l-8.9,6.21l7.08,8.22c28.13,32.64,70.66,53.74,108.35,53.74c28.87,0,55.57-10.55,75.17-29.72
					c18.55-18.13,29.18-42.7,29.18-67.4c0-21.12-6.5-39.88-19.33-55.77c-14.36-17.78-36.71-31.82-66.44-41.72l-0.84-0.28
					c-13.18-4.4-24.55-8.19-32.16-12.88c-7.98-4.91-9.08-9.23-9.08-13.16c0-7.43,7.11-15.44,22.72-15.44
					c17.05,0,27.57,8.73,36.86,16.43l1.32,1.09l5.73,4.73l6.1-4.25l47.52-33.08l8.64-6.02l-6.62-8.18
					c-11.33-13.99-26-26.01-42.44-34.76C2466.85,124.7,2447.41,119.6,2428.73,119.6L2428.73,119.6z"/>
			</g>
			<g>
				<g>
					<path class="st5" d="M144.42,247.34c-24.53,0-44.49-19.96-44.49-44.49c0.06-24.51,19.97-44.44,44.4-44.44h0.1
						c24.55,0,44.48,19.94,44.48,44.44C188.92,227.38,168.96,247.34,144.42,247.34z"/>
					<path class="st0" d="M144.33,163.3c0.03,0,0.06,0,0.09,0c0.05,0,0.05,0,0.05,0c21.85,0,39.55,17.7,39.55,39.55
						c0,21.9-17.7,39.6-39.6,39.6c-21.9,0-39.6-17.75-39.6-39.6C104.88,180.98,122.53,163.3,144.33,163.3 M144.33,153.51
						L144.33,153.51c-27.12,0-49.24,22.12-49.3,49.32c0,27.26,22.16,49.41,49.39,49.41s49.39-22.16,49.39-49.39
						c0-27.21-22.13-49.34-49.34-49.34h-0.05L144.33,153.51L144.33,153.51L144.33,153.51z"/>
				</g>
				<g>
					<path class="st5" d="M287.51,502.33c-4.36,0-7.87-3.45-7.99-7.86l0-415.38c0.14-4.14,3.5-7.38,7.64-7.38h65.15
						c62.22,0,112.84,50.6,112.84,112.79v205.04c0,62.19-50.62,112.79-112.84,112.79H287.51z M367.7,270.39
						c-20.24,0.45-36.4,16.64-36.8,36.9c-0.4,20.73,16.11,37.96,36.81,38.45c20.24-0.45,36.4-16.64,36.8-36.9
						C404.91,288.12,388.4,270.89,367.7,270.39z"/>
					<path class="st0" d="M352.31,76.61c59.6,0,107.94,48.3,107.94,107.89v205.04c0,59.6-48.35,107.89-107.94,107.89h-64.8
						c-1.7,0-3.05-1.35-3.1-3.1V79.31v-0.05c0.05-1.45,1.25-2.65,2.75-2.65H352.31 M367.71,350.64c22.85-0.45,41.25-18.85,41.7-41.7
						c0.45-23.55-18.2-42.95-41.7-43.45c-22.85,0.45-41.25,18.85-41.7,41.7C325.56,330.74,344.21,350.14,367.71,350.64
						 M352.31,66.82h-65.15c-6.8,0-12.3,5.32-12.54,12.11l-0.01,0.17v0.17v0.05v415.02v0.14l0,0.14c0.2,7.07,5.86,12.62,12.89,12.62
						h64.8c31.44,0,61-12.24,83.24-34.46c22.24-22.23,34.49-51.78,34.49-83.22V184.5c0-31.44-12.25-60.99-34.49-83.22
						C413.31,79.05,383.75,66.82,352.31,66.82L352.31,66.82z M367.72,340.84c-17.96-0.49-32.26-15.46-31.91-33.46
						c0.35-17.58,14.34-31.64,31.9-32.09c17.96,0.49,32.26,15.46,31.91,33.46C399.27,326.33,385.27,340.39,367.72,340.84
						L367.72,340.84z"/>
				</g>
				<g>
					<path class="st5" d="M147.27,502.33c-62.22,0-112.84-50.6-112.84-112.79V184.5c0-62.19,50.6-112.79,112.79-112.79h91.99
						c4.38,0,7.91,3.43,8.04,7.8l0,414.82c0,4.43-3.59,8-8,8H147.27z M147.09,115.4c-18.16,0-35.91,7.38-48.68,20.25
						c-13.05,13.05-20.23,30.39-20.23,48.85v205.09c-0.05,18.21,7.34,36,20.25,48.82c12.77,12.86,30.5,20.23,48.66,20.23h56.44
						V115.4L147.09,115.4z"/>
					<path class="st0" d="M239.22,76.61c1.75,0,3.1,1.4,3.15,3.05v414.67c0,0.05,0,0.05,0,0.05c0,1.7-1.4,3.05-3.1,3.05h-91.99
						c-59.65,0-107.94-48.3-107.94-107.89V184.5c0-59.6,48.3-107.89,107.89-107.89H239.22 M147.09,463.53c0.06,0,0.13,0,0.19,0h61.1
						h0.05V110.51h-61.15c-0.06,0-0.12,0-0.19,0c-19.58,0-38.35,7.79-52.16,21.7c-13.95,13.95-21.65,32.55-21.65,52.3v205.09
						c-0.05,19.6,7.75,38.45,21.7,52.3C108.73,455.74,127.51,463.53,147.09,463.53 M239.22,66.82h-91.99
						c-31.44,0-60.99,12.24-83.22,34.47s-34.47,51.78-34.47,83.22v205.04c0,31.44,12.24,61,34.47,83.22
						c22.23,22.23,51.8,34.47,83.26,34.47h91.99c7.11,0,12.89-5.76,12.89-12.84v-0.05V79.66v-0.15l0-0.15
						C251.94,72.33,246.26,66.82,239.22,66.82L239.22,66.82z M147.09,453.74c-16.87,0-33.33-6.84-45.16-18.76l-0.02-0.02l-0.03-0.02
						c-11.99-11.91-18.85-28.43-18.8-45.32V184.5c0-17.15,6.67-33.26,18.78-45.37c11.89-11.98,28.37-18.83,45.23-18.83l0.16,0h51.38
						v333.44h-51.35L147.09,453.74L147.09,453.74z"/>
				</g>
				<g>
					<path class="st5" d="M1896.15,211.99c-37.16,0-67.39-30.32-67.39-67.59c0-37.24,30.23-67.54,67.39-67.54
						c37.19,0,67.44,30.3,67.44,67.54C1963.59,181.67,1933.34,211.99,1896.15,211.99z M1896.15,112.75
						c-17.4,0-31.55,14.2-31.55,31.65c0,17.41,14.16,31.61,31.56,31.65c17.41-0.04,31.59-14.24,31.59-31.65
						C1927.71,127,1913.53,112.79,1896.15,112.75z"/>
					<path class="st0" d="M1896.15,81.75c34.5,0,62.55,28.1,62.55,62.65c0,34.6-28.05,62.7-62.55,62.7c-34.45,0-62.5-28.1-62.5-62.7
						C1833.66,109.85,1861.7,81.75,1896.15,81.75 M1896.15,180.94c20.15-0.05,36.5-16.4,36.5-36.55
						c-0.05-20.15-16.35-36.5-36.5-36.55c-20.05,0-36.45,16.45-36.45,36.55C1859.7,164.55,1876,180.89,1896.15,180.94
						 M1896.15,71.96c-39.86,0-72.29,32.5-72.29,72.44c0,39.97,32.43,72.49,72.29,72.49c39.89,0,72.34-32.52,72.34-72.49
						C1968.49,104.45,1936.04,71.96,1896.15,71.96L1896.15,71.96z M1896.15,171.15c-14.7-0.05-26.65-12.05-26.65-26.75
						c0-14.75,11.96-26.75,26.65-26.75c14.68,0.04,26.67,12.05,26.7,26.78C1922.86,159.1,1910.88,171.1,1896.15,171.15
						L1896.15,171.15z"/>
				</g>
				<g>
					<rect x="761.88" y="80.8" class="st5" width="35.89" height="127.19"/>
					<path class="st0" d="M792.88,85.7v117.39h-26.1V85.7H792.88 M802.67,75.91h-9.79h-26.1h-9.79v9.79v117.39v9.79h9.79h26.1h9.79
						v-9.79V85.7V75.91L802.67,75.91z"/>
				</g>
				<g>
					<path class="st5" d="M1643.97,207.99V80.8h53.39c35.98,0,65.29,28.52,65.34,63.58c0,35.07-29.29,63.6-65.29,63.6H1643.97z
						 M1698.57,173.5c16.05,0,29.1-13.05,29.1-29.1c0-16.03-13.06-29.11-29.11-29.15h-20.69v58.25H1698.57z"/>
					<path class="st0" d="M1697.37,85.7c33.3,0,60.4,26.3,60.45,58.7c0,32.4-27.1,58.7-60.4,58.7h-48.55V85.7H1697.37
						 M1672.97,178.39h25.6c18.8,0,34-15.25,34-34c0-18.8-15.2-34-34-34.05h-25.6V178.39 M1697.37,75.91h-48.5h-9.79v9.79v117.39
						v9.79h9.79h48.55c38.7,0,70.19-30.72,70.19-68.49C1767.55,106.63,1736.04,75.91,1697.37,75.91L1697.37,75.91z M1682.76,120.14
						h15.8c13.33,0.04,24.2,10.92,24.2,24.25c0,13.35-10.86,24.2-24.2,24.2h-15.8V120.14L1682.76,120.14z"/>
				</g>
				<g>
					<polygon class="st5" points="1899.25,489.47 1899.25,401.13 1805.65,401.13 1805.65,489.47 1750.06,489.47 1750.06,258.19 
						1805.65,258.19 1805.65,345.54 1899.25,345.54 1899.25,258.19 1954.89,258.19 1954.89,489.47 					"/>
					<path class="st0" d="M1950,263.09v221.48h-45.85v-88.34h-103.39v88.34h-45.8V263.09h45.8v87.34h103.39v-87.34H1950
						 M1959.79,253.3H1950h-45.85h-9.79v9.79v77.55h-83.81v-77.55v-9.79h-9.79h-45.8h-9.79v9.79v221.48v9.79h9.79h45.8h9.79v-9.79
						v-78.55h83.81v78.55v9.79h9.79H1950h9.79v-9.79V263.09V253.3L1959.79,253.3z"/>
				</g>
				<g>
					<polygon class="st5" points="652.73,207.99 601.73,139.38 601.69,207.99 568.15,207.99 568.15,80.8 599.19,80.8 649.64,148.1 
						649.64,80.8 683.23,80.8 683.23,207.99 					"/>
					<path class="st0" d="M678.34,85.7v117.39h-23.15l-58.35-78.49l-0.05,78.49h-23.75V85.7h23.7l57.8,77.09V85.7H678.34
						 M688.13,75.91h-9.79h-23.8h-9.79v9.79v47.7l-40.17-53.58l-2.94-3.92h-4.9h-23.7h-9.79v9.79v117.39v9.79h9.79h23.75h9.79
						l0.01-9.79l0.03-48.93l40.71,54.77l2.94,3.95h4.92h23.15h9.79v-9.79V85.7V75.91L688.13,75.91z"/>
				</g>
				<g>
					<polygon class="st5" points="961.1,207.99 910.17,139.4 910.17,207.99 876.58,207.99 876.58,80.8 907.62,80.8 958.02,148.09 
						958.02,80.8 991.66,80.8 991.66,207.99 					"/>
					<path class="st0" d="M986.77,85.7v117.39h-23.2l-58.3-78.49v78.49h-23.8V85.7h23.7l57.75,77.09V85.7H986.77 M996.56,75.91
						h-9.79h-23.85h-9.79v9.79v47.68l-40.11-53.55l-2.94-3.92h-4.9h-23.7h-9.79v9.79v117.39v9.79h9.79h23.8h9.79v-9.79v-48.88
						l40.64,54.72l2.94,3.95h4.93h23.2h9.79v-9.79V85.7V75.91L996.56,75.91z"/>
				</g>
				<g>
					<polygon class="st5" points="1250.85,80.86 1351.89,80.8 1351.89,112.15 1284.44,112.15 1284.44,127.7 1346.79,127.7 
						1346.79,158.74 1284.44,158.74 1284.44,176.45 1351.89,176.45 1351.89,207.94 1250.85,207.99 					"/>
					<path class="st0" d="M1346.99,85.7v21.55h-67.45v25.35h62.35v21.25h-62.35v27.5h67.45v21.7l-91.24,0.05V85.75L1346.99,85.7
						 M1356.78,75.9l-9.8,0.01l-91.24,0.05l-9.79,0.01v9.79v117.34v9.8l9.8-0.01l91.24-0.05l9.79-0.01v-9.79v-21.7v-9.79h-9.79
						h-57.65v-7.91h52.55h9.79v-9.79V132.6v-9.79h-9.79h-52.55v-5.76h57.65h9.79v-9.79V85.7V75.9L1356.78,75.9z"/>
				</g>
				<g>
					<path class="st5" d="M659.89,495.52c-49.64,0-88.46-18.42-99.18-24.06l-4.42-2.33l25.83-46.67l4.35,2.62
						c9.97,6.01,37.39,20,76.62,20c34.35,0,53.58-8.39,54.15-23.64c0.52-14.3-19.29-18.34-64.16-26.11l-0.48-0.08
						c-33.26-5.7-55.5-13.25-69.99-23.75c-15.02-10.88-22.32-25.59-22.32-44.97c0-46.44,53.4-71.49,103.64-71.49
						c40.67,0,77.33,13.31,87.6,17.39l4.61,1.83l-19.5,47.42l-4.54-1.88c-10.75-4.46-38.69-14.83-65.92-14.83
						c-14.72,0-48.95,1.85-48.95,18.95c0,11.04,19.39,16.48,48.49,21.27c43.49,7.15,72.57,17.59,88.91,31.91
						c15.76,13.82,17.86,29.46,17.84,42.93c0,24.74-9.97,43.82-29.62,56.71C723.85,489.2,695.94,495.52,659.89,495.52z"/>
					<path class="st0" d="M663.94,259.94c39.3,0,74.59,12.6,85.79,17.05l-15.75,38.3c-10.25-4.25-39.1-15.2-67.8-15.2
						c-30.85,0-53.85,6.6-53.85,23.85c0,14.9,20.65,20.85,52.6,26.1c93.69,15.4,102.69,43.3,102.64,70
						c0,46.2-37.2,70.59-107.69,70.59c-48.25,0-85.69-17.6-96.89-23.5l20.95-37.85c9.95,6,38.5,20.7,79.14,20.7
						c50.45,0,58.65-17.75,59.05-28.35c0.7-19.25-23.95-23.45-68.7-31.2c-63.55-10.9-88.24-28.85-88.24-63.9
						C565.19,283.29,616.09,259.94,663.94,259.94 M663.94,250.15c-26.45,0-52.82,6.74-72.36,18.48
						c-23.33,14.02-36.18,34.59-36.18,57.91c0,21.06,7.96,37.07,24.34,48.93c15.12,10.96,38.01,18.78,72.04,24.61l0.46,0.08
						c21.52,3.73,38.52,6.67,49.22,10.75c11.11,4.24,10.97,7.92,10.88,10.36c-0.16,4.12-2.28,7.53-6.51,10.43
						c-5.65,3.87-17.65,8.48-42.75,8.48c-37.99,0-64.47-13.49-74.09-19.29l-8.7-5.25l-4.92,8.89l-20.95,37.85l-4.84,8.75l8.85,4.66
						c10.97,5.78,50.69,24.63,101.46,24.63c37.02,0,65.84-6.59,85.65-19.58c10.45-6.85,18.46-15.52,23.81-25.76
						c5.33-10.2,8.03-21.99,8.03-35.05c0.03-13.7-2.17-31.4-19.5-46.6c-17.05-14.95-46.92-25.76-91.34-33.06
						c-12.14-2-44.39-7.29-44.39-16.43c0-1.69,0-5.65,9.17-9.29c7.87-3.12,19.93-4.77,34.88-4.77c26.34,0,53.56,10.11,64.04,14.45
						l9.07,3.76l3.74-9.08l15.75-38.3l3.77-9.17l-9.21-3.66C742.87,263.72,705.47,250.15,663.94,250.15L663.94,250.15z"/>
				</g>
				<g>
					<path class="st5" d="M1606.17,497.17c-67.9,0-123.14-55.22-123.14-123.09c0-67.87,55.24-123.09,123.14-123.09h0.15
						c41.1,0,79.26,20.36,102.06,54.47l2.4,3.59l-43.74,37.98l-2.99-5.06c-11.67-19.73-33.35-31.99-56.58-31.99
						c-36.03,0-65.35,28.75-65.35,64.1c0,35.32,29.32,64.05,65.35,64.05c23.23,0,44.91-12.26,56.58-31.99l2.99-5.06l43.75,38.05
						l-2.42,3.59C1685.4,476.81,1647.19,497.17,1606.17,497.17z"/>
					<path class="st0" d="M1606.32,255.89c39.34,0,76.12,19.59,97.99,52.3l-36.05,31.3c-12.45-21.05-35.8-34.4-60.8-34.4
						c-38.75,0-70.25,30.95-70.25,69c0,38,31.5,68.95,70.25,68.95c25,0,48.35-13.35,60.8-34.4l36.05,31.35
						c-22.1,32.8-58.5,52.3-98.14,52.3c-65.2,0-118.24-53-118.24-118.19c0-65.2,53.05-118.19,118.24-118.19
						C1606.22,255.89,1606.27,255.89,1606.32,255.89 M1606.32,246.1L1606.32,246.1l-0.16,0c-70.59,0-128.03,57.41-128.03,127.99
						s57.44,127.99,128.04,127.99c21.03,0,41.87-5.19,60.26-15c18.35-9.79,34.26-24.18,46-41.62l4.84-7.18l-6.53-5.68l-36.05-31.35
						l-8.87-7.71l-5.98,10.12c-10.79,18.25-30.86,29.59-52.37,29.59c-33.33,0-60.45-26.54-60.45-59.15
						c0-32.64,27.12-59.2,60.45-59.2c21.51,0,41.57,11.34,52.37,29.59l5.98,10.11l8.87-7.7l36.05-31.3l6.52-5.66l-4.8-7.18
						C1688.74,267.27,1649.06,246.1,1606.32,246.1L1606.32,246.1z"/>
				</g>
				<g>
					<polygon class="st5" points="1523.91,207.99 1472.98,139.4 1472.98,207.99 1439.39,207.99 1439.39,80.8 1470.43,80.8 
						1520.83,148.09 1520.83,80.8 1554.47,80.8 1554.47,207.99 					"/>
					<path class="st0" d="M1549.58,85.7v117.39h-23.2l-58.3-78.49v78.49h-23.8V85.7h23.7l57.75,77.09V85.7H1549.58 M1559.37,75.91
						h-9.79h-23.85h-9.79v9.79v47.68l-40.11-53.56l-2.94-3.92h-4.9h-23.7h-9.79v9.79v117.39v9.79h9.79h23.8h9.79v-9.79v-48.88
						l40.64,54.72l2.94,3.95h4.93h23.2h9.79v-9.79V85.7V75.91L1559.37,75.91z"/>
				</g>
				<g>
					<polygon class="st5" points="1331.74,489.47 1331.74,314.98 1261,314.98 1261,258.19 1458.38,258.19 1458.38,314.98 
						1389.18,314.98 1389.18,489.47 					"/>
					<path class="st0" d="M1453.48,263.09v47h-69.2v174.49h-47.65V310.09h-70.75v-47H1453.48 M1463.28,253.3h-9.79H1265.9h-9.79
						v9.79v47v9.79h9.79h60.95v164.69v9.79h9.79h47.65h9.79v-9.79V319.88h59.4h9.79v-9.79v-47V253.3L1463.28,253.3z"/>
				</g>
				<g>
					<polygon class="st5" points="987.36,489.47 950.01,356.72 912.47,489.47 851.87,489.47 786.4,258.19 844.84,258.19 
						883.84,404.95 926.7,258.19 973.34,258.19 1016.35,405.61 1055.6,258.19 1113.99,258.19 1048.21,489.47 					"/>
					<path class="st0" d="M1107.51,263.09l-63,221.48h-53.45l-41.05-145.89l-41.25,145.89h-53.2l-62.7-221.48h48.2l42.55,160.09
						l46.75-160.09h39.3l46.9,160.74l42.8-160.74H1107.51 M1120.47,253.3h-12.97h-48.15h-7.53l-1.94,7.27l-33.76,126.81
						l-37.06-127.04l-2.06-7.05h-7.34h-39.3h-7.34l-2.06,7.05l-36.9,126.38l-33.53-126.15l-1.93-7.28h-7.53h-48.2h-12.95l3.53,12.46
						l62.7,221.48l2.02,7.13h7.41h53.2h7.41l2.02-7.13l31.8-112.48l31.64,112.46l2.01,7.14h7.42h53.45h7.4l2.02-7.11l63-221.48
						L1120.47,253.3L1120.47,253.3z"/>
				</g>
				<g>
					<rect x="1157.61" y="258.19" class="st5" width="59.09" height="231.28"/>
					<path class="st0" d="M1211.8,263.09v221.48h-49.3V263.09H1211.8 M1221.59,253.3h-9.79h-49.3h-9.79v9.79v221.48v9.79h9.79h49.3
						h9.79v-9.79V263.09V253.3L1221.59,253.3z"/>
				</g>
				<g>
					<polygon class="st5" points="1102.96,207.99 1102.96,115.5 1065.46,115.5 1065.46,80.8 1174.7,80.8 1174.7,115.5 
						1138.05,115.5 1138.05,207.99 					"/>
					<path class="st0" d="M1169.8,85.7v24.9h-36.65v92.49h-25.3V110.6h-37.5V85.7H1169.8 M1179.6,75.91h-9.79h-99.44h-9.79v9.79
						v24.9v9.79h9.79h27.7v82.7v9.79h9.79h25.3h9.79v-9.79v-82.7h26.85h9.79v-9.79V85.7V75.91L1179.6,75.91z"/>
				</g>
			</g>
		</g>
	</g>
	<circle class="st0" cx="369.39" cy="307.32" r="9.55"/>
</g>
</svg>
