<?xml version="1.0" encoding="utf-8"?>
<!-- Generator: Adobe Illustrator 26.3.1, SVG Export Plug-In . SVG Version: 6.00 Build 0)  -->
<svg version="1.1" id="Layer_1" xmlns="http://www.w3.org/2000/svg" xmlns:xlink="http://www.w3.org/1999/xlink" x="0px" y="0px"
	 viewBox="0 0 3839 1421.1" style="enable-background:new 0 0 3839 1421.1;" xml:space="preserve">
<style type="text/css">
	.st0{fill:#FFFFFF;}
	.st1{fill:#E50300;}
</style>
<g>
	<g>
		<g>
			<path class="st0" d="M29.5,1406.4c-8.2,0-14.8-6.6-14.8-14.8V405.7c0-8.2,6.6-14.8,14.8-14.8h3779.9c8.2,0,14.8,6.6,14.8,14.8
				v985.9c0,8.2-6.6,14.8-14.8,14.8H29.5z"/>
			<path class="st0" d="M3809.5,405.7v9.8v966.3v9.7h-9.7H39.3h-9.7v-9.7V415.4v-9.7h9.7h3760.5H3809.5 M3809.5,376.1h-9.6H39.3
				h-9.7C13.2,376.1,0,389.4,0,405.7v9.7v966.4v9.7c0,16.3,13.2,29.5,29.5,29.5h9.7h3760.4h9.7c16.3,0,29.5-13.2,29.5-29.5v-9.7
				V415.5v-9.8C3839,389.4,3825.8,376.1,3809.5,376.1L3809.5,376.1z"/>
		</g>
		<g>
			<path class="st0" d="M2214.4,368.5c-8.2,0-14.8-6.6-14.8-14.8V29.6c0-8.2,6.6-14.8,14.8-14.8h114.4c52.5,0,91.6,10.1,119.6,30.8
				c31.6,23.6,47.7,59.8,47.8,107.7c0,44.6-13.2,79.4-39.3,103.4c-25.4,23.6-62.1,35.5-109,35.5h-13.7l-0.3,51.8l-0.1,9.8
				c-0.1,8.1-6.7,14.6-14.8,14.6H2214.4z M2334.5,186.2c11.6-0.5,19.9-2.6,23.3-6c2.4-2.4,5.2-8.5,5.2-24.6
				c0-12.8-2.3-21.8-6.8-26.8c-3.9-4.3-11.2-6.8-21.7-7.4V186.2z"/>
			<path class="st0" d="M2328.9,29.6c49.2,0,85.5,9.2,110.8,27.9c27.8,20.7,41.7,52.9,41.8,95.9c0,40.3-11.6,71.4-34.6,92.6
				c-22.6,21-56,31.6-99,31.6h-28.4l-0.4,66.5l-0.1,9.7h-9.7h-85.2h-9.7V344V39.4v-9.7h9.7H2328.9 M2319.7,201.1h9.3
				c28.9,0,36.7-7.9,39.3-10.4c6.5-6.5,9.5-17.6,9.5-35.1c0-16.9-3.5-28.9-10.6-36.7c-7.7-8.4-20.2-12.4-38.2-12.4
				c-1.4,0-3.2-0.1-5.1-0.1c-1.3-0.1-2.7-0.1-4-0.1V201.1L2319.7,201.1 M2328.9,0.1h-104.7h-9.7c-16.3,0-29.5,13.2-29.5,29.5v9.7
				V344v9.7c0,16.3,13.2,29.5,29.5,29.5h9.7h85.2h9.7c16.2,0,29.4-13,29.5-29.2l0.1-9.7c0,0,0-0.1,0-0.1l0.2-37.1
				c50.2-0.2,89.9-13.4,118-39.4l0,0c14.9-13.7,26.1-30.7,33.5-50.5c7-18.7,10.5-40.2,10.5-63.8c0,0,0,0,0-0.1
				c-0.1-25.5-4.4-48.4-13-68.1c-9-20.8-22.7-38.1-40.7-51.5c0,0-0.1,0-0.1-0.1C2426.6,11.1,2384.6,0.1,2328.9,0.1L2328.9,0.1z"/>
		</g>
		<g>
			<path class="st0" d="M1557.6,368.6c-8.2,0-14.8-6.6-14.8-14.8v-109h-36.5v108.9c0,8.2-6.6,14.8-14.8,14.8h-105.2
				c-8.2,0-14.8-6.6-14.8-14.8V29.6c0-8.2,6.6-14.8,14.8-14.8h105.2c8.2,0,14.8,6.6,14.8,14.8v109h36.5v-109
				c0-8.2,6.6-14.8,14.8-14.8h105.2c8.2,0,14.8,6.6,14.8,14.8v324.2c0,8.2-6.6,14.8-14.8,14.8H1557.6z"/>
			<path class="st0" d="M1662.8,29.6v9.7v304.7v9.7h-9.7h-85.7h-9.7v-9.7v-114h-66.1V344v9.7h-9.7h-85.7h-9.7V344V39.4v-9.7h9.7
				h85.7h9.7v9.7v114h66.1v-114v-9.7h9.7h85.7H1662.8 M1662.8,0.1h-9.7h-85.7h-9.7c-16.3,0-29.5,13.2-29.5,29.5v9.7v84.5h-7V39.4
				v-9.7c0-16.3-13.2-29.5-29.5-29.5h-9.7h-85.7h-9.7c-16.3,0-29.5,13.2-29.5,29.5v9.7V344v9.7c0,16.3,13.2,29.5,29.5,29.5h9.7h85.7
				h9.7c16.3,0,29.5-13.2,29.5-29.5V344v-84.4h7v84.5v9.7c0,16.3,13.2,29.5,29.5,29.5h9.7h85.7h9.7c16.3,0,29.5-13.2,29.5-29.5v-9.7
				V39.4v-9.7C1692.3,13.3,1679.1,0.1,1662.8,0.1L1662.8,0.1z"/>
		</g>
		<g>
			<path class="st0" d="M1710,368.5c-8.2,0-14.8-6.6-14.8-14.8V29.6c0-8.2,6.6-14.8,14.8-14.8h105.1c8.2,0,14.8,6.6,14.8,14.8v324.1
				c0,8.2-6.6,14.8-14.8,14.8H1710z"/>
			<path class="st0" d="M1815.1,29.6v9.7V344v9.7h-9.7h-85.6h-9.7V344V39.4v-9.7h9.7h76.1h9.5H1815.1 M1815.1,0.1h-9.7h-9.5h-76.1
				h-9.7c-16.3,0-29.5,13.2-29.5,29.5v9.7V344v9.7c0,16.3,13.2,29.5,29.5,29.5h9.7h85.6h9.7c16.3,0,29.5-13.2,29.5-29.5V344V39.4
				v-9.7C1844.6,13.3,1831.4,0.1,1815.1,0.1L1815.1,0.1z"/>
		</g>
		<g>
			<path class="st0" d="M1862.2,368.5c-8.2,0-14.8-6.6-14.8-14.8V29.6c0-8.2,6.6-14.8,14.8-14.8h105.2c8.2,0,14.8,6.6,14.8,14.8
				v232.7h72.9c4.4,0,8.5,1.9,11.3,5.3c2.8,3.4,4,7.8,3.2,12.1l-2.1,11.5l-10.1,57.1l-1.5,8.1c-1.3,7-7.4,12.1-14.5,12.1H1862.2z"/>
			<path class="st0" d="M1967.4,29.6v9.7v237.7h75.9h11.7l-2.1,11.5l-10.1,57.1l-1.5,8.1h-8.2H1872h-9.7V344V39.4v-9.7h9.7h85.7
				H1967.4L1967.4,29.6 M2055,277.1L2055,277.1 M1967.4,0.1h-9.7H1872h-9.7c-16.3,0-29.5,13.2-29.5,29.5v9.7V344v9.7
				c0,16.3,13.2,29.5,29.5,29.5h9.7h161.2h8.2c14.3,0,26.5-10.2,29.1-24.2l1.5-8.1c0-0.1,0-0.1,0-0.2l10.1-57.1l1.9-10.8
				c0.4-1.9,0.6-3.9,0.6-5.9c0-16.3-13.2-29.5-29.5-29.5h0h-11.7h-46.4V39.4v-9.7C1996.9,13.3,1983.7,0.1,1967.4,0.1L1967.4,0.1z"/>
		</g>
		<g>
			<path class="st0" d="M2062.2,368.5c-8.2,0-14.8-6.6-14.8-14.8V29.6c0-8.2,6.6-14.8,14.8-14.8h105.2c8.2,0,14.8,6.6,14.8,14.8
				v324.1c0,8.2-6.6,14.8-14.8,14.8H2062.2z"/>
			<path class="st0" d="M2167.4,29.6v9.7V344v9.7h-9.7H2072h-9.7V344V39.4v-9.7h9.7h85.7H2167.4 M2167.4,0.1h-9.7H2072h-9.7
				c-16.3,0-29.5,13.2-29.5,29.5v9.7V344v9.7c0,16.3,13.2,29.5,29.5,29.5h9.7h85.7h9.7c16.3,0,29.5-13.2,29.5-29.5V344V39.4v-9.7
				C2196.9,13.3,2183.7,0.1,2167.4,0.1L2167.4,0.1z"/>
		</g>
		<g>
			<path class="st0" d="M2605.1,368.5c-29.1,0-74.9-5-108.1-9.7l-8.4-1.2c-7.3-1-12.7-7.3-12.7-14.6v-91.2c0-5.2,2.7-9.9,7.1-12.6
				c2.4-1.4,5-2.2,7.7-2.2c2.3,0,4.7,0.5,6.8,1.7l14.3,7.4c15.6,8,54.8,16.3,93.5,16.3c7.1,0,11.2-0.6,13.4-1.1
				c0.1-0.8,0.1-1.7,0.1-2.9c0-0.6-1.5-2.3-5.4-4.7c-7-4.2-18.6-8.5-31.9-13.2c-21.8-7.8-46.4-16.6-66.9-32.9
				c-12.3-9.7-21.4-20.8-27.8-33.7c-7.2-14.4-10.8-30.8-10.8-48.8c0-36.6,17.8-67.3,50.2-86.5c26.2-15.5,62-23.7,103.4-23.7
				c43.1,0,58.2,3.6,74.1,7.3l0.6,0.1c1.4,0.3,2.7,0.6,4.2,1c2.1,0.5,4.3,1,6.7,1.5l7.7,1.7c6.8,1.5,11.6,7.5,11.6,14.4v79.8
				c0,4.9-2.5,9.6-6.6,12.3c-2.5,1.6-5.3,2.5-8.2,2.5c-1.9,0-3.9-0.4-5.7-1.2l-13.6-5.7c-18-7.6-49.6-7.6-66.6-7.6
				c-10.3,0.1-18,0.7-23.1,1.8v0.7c4.8,4.4,25,10.9,35,14.2l0.3,0.1c21.9,7.1,46.6,15.2,67.4,30.5c12.3,9,22,20,28.7,32.4
				c7.6,14,11.4,30.1,11.4,48.1c0,43.3-15.3,75.5-45.5,95.7C2683.5,360.6,2649.9,368.5,2605.1,368.5z"/>
			<path class="st0" d="M2629.4,29.5c41.9,0,55.5,3.3,71.4,7.1c3.4,0.8,7,1.7,11,2.6l7.7,1.7v7.9v57.1v14.8l-13.6-5.7
				c-19.1-8.1-47.4-8.8-72.4-8.8c-13.9,0.1-23.7,1.1-30.2,3.2c-7.6,2.4-7.6,4.8-7.6,6.2v9.5c0,11.2,17.1,17.5,45.2,26.7
				c20.9,6.8,44.6,14.5,63.5,28.5c10.6,7.8,18.9,17.1,24.5,27.6c6.4,11.8,9.6,25.7,9.6,41.1c0,38.1-13.1,66.2-38.9,83.4
				c-21.8,14.5-52.7,21.6-94.6,21.6c-28.2,0-73.3-4.9-106-9.6l-8.5-1.2v-8.5v-66.7v-16l14.3,7.4c22.6,11.6,68.5,17.9,100.2,17.9
				c12.6,0,20.9-1.7,24.6-4.9c1.8-1.6,3.6-4.4,3.6-13.9c0-14.3-17.9-21.4-47.1-31.8c-20.7-7.4-44.1-15.8-62.6-30.5
				c-10.5-8.4-18.3-17.7-23.8-28.8c-6.1-12.2-9.3-26.5-9.3-42.2c0-31.6,14.9-57.1,42.9-73.7C2557.4,37,2590.6,29.5,2629.4,29.5
				 M2629.4,0c-44.1,0-82.5,8.9-111,25.8c-37,22-57.4,57.2-57.4,99.2c0,20.4,4.2,39,12.4,55.5c7.4,14.9,17.9,27.5,31.9,38.7
				c11,8.7,23,15.5,35.1,21.1c-9.2-2.1-16.9-4.6-22-7.2l-14.2-7.4c-4.3-2.2-8.9-3.3-13.6-3.3c-5.3,0-10.7,1.4-15.4,4.3
				c-8.8,5.4-14.2,14.9-14.2,25.2v16v66.7v8.5c0,14.7,10.9,27.2,25.5,29.3l8.5,1.2c33.7,4.8,80.3,9.8,110.1,9.8
				c47.9,0,84.2-8.7,111-26.5c0,0,0,0,0,0c23.7-15.9,52-47.5,52-108c0-20.4-4.4-38.9-13.2-55.1c-7.8-14.4-18.9-27-33-37.3
				c-3.6-2.7-7.4-5.2-11.2-7.5c2.9,0.9,5.8,1.3,8.8,1.3c5.7,0,11.4-1.7,16.3-4.9c8.2-5.5,13.2-14.7,13.2-24.6v-14.8V48.7v-7.9
				c0-13.9-9.7-25.9-23.2-28.9l-7.7-1.7c-2.2-0.5-4.3-1-6.4-1.5c-1.4-0.3-2.8-0.7-4.2-1l-0.6-0.1C2690.1,3.8,2674.2,0,2629.4,0
				L2629.4,0z"/>
		</g>
		<g>
			<path class="st0" d="M1100.6,368.5c-8.2,0-14.8-6.6-14.8-14.8V29.6c0-8.2,6.6-14.8,14.8-14.8H1215c52.4,0,91.6,10.1,119.6,30.8
				c31.6,23.6,47.7,59.8,47.8,107.7c0,44.6-13.2,79.4-39.3,103.4c-25.4,23.6-62.1,35.5-109,35.5h-13.7l-0.3,51.8l-0.1,9.8
				c-0.1,8.1-6.7,14.6-14.8,14.6H1100.6z M1220.7,186.2c11.6-0.5,19.9-2.6,23.3-6c2.4-2.4,5.2-8.5,5.2-24.6
				c0-12.8-2.3-21.8-6.8-26.8c-3.9-4.3-11.2-6.8-21.7-7.4V186.2z"/>
			<path class="st0" d="M1215,29.6c49.2,0,85.5,9.2,110.8,27.9c27.8,20.7,41.7,52.9,41.8,95.9c0,40.3-11.6,71.4-34.6,92.6
				c-22.6,21-56,31.6-99,31.6h-28.4l-0.4,66.5l-0.1,9.7h-9.7h-85.2h-9.7V344V39.4v-9.7h9.7H1215 M1205.9,201.1h9.3
				c28.9,0,36.7-7.9,39.3-10.4c6.5-6.5,9.5-17.6,9.5-35.1c0-16.9-3.5-28.9-10.6-36.7c-7.7-8.4-20.2-12.4-38.2-12.4
				c-1.4,0-3.2-0.1-5.1-0.1c-1.3-0.1-2.7-0.1-4-0.1V201.1L1205.9,201.1 M1215,0.1h-104.7h-9.7c-16.3,0-29.5,13.2-29.5,29.5v9.7V344
				v9.7c0,16.3,13.2,29.5,29.5,29.5h9.7h85.2h9.7c16.2,0,29.4-13,29.5-29.2l0.1-9.7c0,0,0-0.1,0-0.1l0.2-37.1
				c50.2-0.2,89.9-13.4,118-39.4l0,0c14.9-13.7,26.1-30.7,33.5-50.5c7-18.7,10.5-40.2,10.5-63.8c0,0,0,0,0-0.1
				c-0.1-25.5-4.4-48.4-13-68.1c-9-20.8-22.7-38.1-40.7-51.5c0,0-0.1,0-0.1-0.1C1312.7,11.1,1270.8,0.1,1215,0.1L1215,0.1z"/>
		</g>
	</g>
	<g>
		<rect x="110.5" y="486.5" class="st0" width="3618.3" height="824.2"/>
		<g>
			<g>
				<g>
					<rect x="1732.7" y="716.9" width="124.9" height="372.4"/>
					<rect x="3271.7" y="845.8" width="124.9" height="243.6"/>
					<rect x="3271.7" y="716.9" width="124.9" height="74.5"/>
					<g>
						<path d="M1066.1,862.7c-84,0-152.1,21.9-152.1,48.6c0,26.8,68,48.6,152.1,48.6s152.1-21.9,152.1-48.6
							C1218.2,884.6,1150.2,862.7,1066.1,862.7z M1066.1,949.2c-65.9,0-119.3-16.8-119.3-37.7c0-20.8,53.5-37.7,119.3-37.7
							s119.3,16.8,119.3,37.7C1185.6,932.3,1132.1,949.2,1066.1,949.2z"/>
					</g>
					<path d="M1531.8,959.2c-63.7,61.9-248,106.7-465.5,106.7c-270.4,0-489.6-69.1-489.6-154.5S795.9,757,1066.3,757
						c217.5,0,401.8,44.8,465.5,106.7h139.9c-66.9-87.2-312.6-152-605.6-152c-344.4,0-623.5,89.4-623.5,199.8
						s279.1,199.8,623.5,199.8c293,0,538.7-64.7,605.6-152L1531.8,959.2L1531.8,959.2z"/>
					<path d="M2159.2,716.9L2159.2,716.9h-317.4v42.2h317.4c270.4,0,489.6,64.4,489.6,144.1s-219.2,144.1-489.6,144.1h-317.4v42.2
						h317.4l0,0c344.4,0,623.5-83.3,623.5-186.3C2782.7,800.3,2503.6,716.9,2159.2,716.9z"/>
					<polygon class="st1" points="2851.7,850.3 2851.7,956 3165.5,903.1 					"/>
				</g>
				<g>
					<path d="M34.5,1386.9V410.6h3770.2v976.3H34.5z M3723.8,1305.9l0.1-814.6H115.3v814.6H3723.8z"/>
					<path class="st0" d="M3799.8,415.5v966.4H39.3V415.5H3799.8 M110.5,1310.8h3618.2l0.1-824.3H110.5V1310.8 M3809.6,405.7h-9.7
						H39.3h-9.7v9.7v966.4v9.7h9.7h3760.4h9.7v-9.7V415.5L3809.6,405.7L3809.6,405.7z M120.2,496.3H3719l-0.1,804.7H120.2V496.3
						L120.2,496.3z"/>
				</g>
			</g>
			<g>
				<g>
					<path d="M2219.3,349V34.6h109.6c48.1,0,83.4,8.9,107.9,27.2c26.4,19.6,39.8,50.6,39.9,92c0,38.8-11.1,68.7-33,88.9
						c-21.8,20.1-54,30.2-95.6,30.2h-33.2l-0.5,76.2L2219.3,349L2219.3,349z M2328.9,205.9c45.1,0,53.7-17.7,53.7-50.4
						c0-37.4-16.5-54.1-53.7-54.1c-1.3,0-3.1,0-5-0.1c-2.5,0-5.1-0.1-7.7-0.1c-0.5,0-0.9,0-1.3,0v104.6L2328.9,205.9L2328.9,205.9z"
						/>
					<path class="st0" d="M2328.9,39.4c89.6,0,142.8,31.7,142.9,114.2c0,75.1-42.6,114.3-123.8,114.3h-38.1l-0.5,76.2h-85.2V39.4
						C2248.4,39.4,2294.2,39.4,2328.9,39.4 M2309.9,210.8h19c45.3,0,58.6-17.1,58.6-55.3c0-36.9-15.6-59-58.6-59
						c-3,0-8.2-0.1-12.8-0.1c-2.4,0-4.5,0-6.2,0.1V210.8 M2328.9,29.6h-104.7h-9.7v9.7V344v9.7h9.7h85.2h9.7l0.1-9.7l0.4-66.5h28.4
						c42.9,0,76.3-10.6,99-31.6c22.9-21.2,34.6-52.3,34.6-92.6c-0.1-43-14.1-75.2-41.8-95.9C2414.3,38.8,2378.1,29.6,2328.9,29.6
						L2328.9,29.6z M2319.7,201v-94.7c1.4,0,2.8,0,4,0.1c2,0,3.7,0.1,5.1,0.1c18,0,30.5,4,38.2,12.4c7.1,7.8,10.6,19.8,10.6,36.7
						c0,17.4-3,28.6-9.5,35.1c-2.6,2.6-10.3,10.4-39.3,10.4L2319.7,201L2319.7,201z"/>
				</g>
				<g>
					<polygon points="1562.4,349 1562.4,225.2 1486.5,225.2 1486.5,349 1391,349 1391,34.6 1486.5,34.6 1486.5,158.3 1562.4,158.3 
						1562.4,34.6 1657.9,34.6 1657.9,349 					"/>
					<path class="st0" d="M1653,39.4V344h-85.7V220.3h-85.7V344H1396V39.4h85.7v123.8h85.7V39.4H1653 M1662.8,29.6h-9.7h-85.7h-9.7
						v9.7v114h-66.1v-114v-9.7h-9.7h-85.7h-9.7v9.7V344v9.7h9.7h85.7h9.7V344V230.1h66.1v114v9.7h9.7h85.7h9.7v-9.7V39.4V29.6
						L1662.8,29.6z"/>
				</g>
				<g>
					<rect x="1714.7" y="34.6" width="95.4" height="314.5"/>
					<path class="st0" d="M1805.2,39.4V344h-85.6V39.4h76.1H1805.2 M1815.1,29.6h-9.7h-9.5h-76.1h-9.7v9.7V344v9.7h9.7h85.6h9.7V344
						V39.4V29.6L1815.1,29.6z"/>
				</g>
				<g>
					<polygon points="1867.1,349 1867.1,34.6 1962.6,34.6 1962.6,282.1 2049.2,282.1 2037.2,349 					"/>
					<path class="st0" d="M1957.7,39.4v247.5h85.7l-10.1,57.1H1872V39.4H1957.7 M1967.4,29.6h-9.7H1872h-9.7v9.7V344v9.7h9.7h161.2
						h8.2l1.5-8.1l10.1-57.1l2.1-11.5h-11.7h-75.9V39.4L1967.4,29.6L1967.4,29.6z"/>
				</g>
				<g>
					<rect x="2067" y="34.6" width="95.5" height="314.5"/>
					<path class="st0" d="M2157.6,39.4V344H2072V39.4H2157.6 M2167.4,29.6h-9.7H2072h-9.7v9.7V344v9.7h9.7h85.7h9.7V344V39.4V29.6
						L2167.4,29.6z"/>
				</g>
				<g>
					<path d="M2605,349c-28,0-72.8-4.9-105.4-9.6l-4.2-0.6v-79l7.2,3.6c13.9,7.1,54,18.4,102.4,18.4c30.9,0,33.2-9.4,33.2-23.7
						c0-17.5-19.1-25.2-50.3-36.4c-41.2-14.8-92.5-33.1-92.5-96.9c0-29.7,14-53.9,40.6-69.6c23.1-13.8,55.5-21,93.4-21
						c41.4,0,54.1,3.1,70.2,7c3.4,0.9,7.1,1.7,11.1,2.6l3.8,0.8V113l-6.8-2.9c-19.9-8.4-48.7-9.2-74.2-9.2
						c-38.2,0.2-42.6,8.3-42.6,14.3v9.5c0,14.8,18.4,21.6,48.5,31.3c20.6,6.7,43.9,14.3,62.1,27.8c21.6,16,32.1,37.1,32.1,64.8
						c0,36.4-12.4,63.1-36.7,79.4C2675.9,342.2,2645.9,349,2605,349z"/>
					<path class="st0" d="M2629.4,39.3c49.9,0,57.7,4.6,80.3,9.5v57.1c-20.4-8.7-48.6-9.5-76.2-9.5c-25,0.1-47.5,3.2-47.5,19.2v9.5
						c0,46.8,142.8,25.3,142.8,123.8c0,73.8-50.9,95.2-123.8,95.2c-28.7,0-74.9-5.3-104.7-9.5v-66.7c26.3,13.5,76.1,19,104.7,19
						c32.2,0,38.1-10,38.1-28.6c0-52.5-142.8-29.8-142.8-133.3C2500.3,65,2558.9,39.3,2629.4,39.3 M2629.4,29.5
						c-38.8,0-72,7.5-95.9,21.7c-28.1,16.6-42.9,42.1-42.9,73.7c0,15.8,3.2,30,9.3,42.2c5.5,11,13.3,20.4,23.8,28.8
						c18.5,14.8,41.9,23.1,62.6,30.5c29.1,10.4,47.1,17.5,47.1,31.8c0,9.5-1.9,12.3-3.6,13.9c-3.7,3.2-12,4.9-24.6,4.9
						c-31.7,0-77.6-6.3-100.2-17.9l-14.3-7.4v16v66.7v8.5l8.5,1.2c32.8,4.6,77.9,9.6,106,9.6c41.9,0,72.9-7.1,94.6-21.6
						c25.8-17.2,38.9-45.3,38.9-83.4c0-15.4-3.2-29.2-9.6-41.1c-5.6-10.4-13.9-19.8-24.5-27.6c-18.9-14-42.6-21.7-63.5-28.5
						c-28.1-9.2-45.2-15.5-45.2-26.7v-9.5c0-1.4,0-3.8,7.6-6.2c6.5-2.1,16.3-3.1,30.2-3.2c25,0,53.3,0.7,72.4,8.8l13.6,5.7v-14.8
						V48.7v-7.9l-7.7-1.7c-4-0.9-7.6-1.8-11-2.6C2684.9,32.9,2671.3,29.5,2629.4,29.5L2629.4,29.5z"/>
				</g>
				<g>
					<path d="M1105.5,349V34.6H1215c48.1,0,83.4,8.9,107.9,27.2c26.4,19.6,39.8,50.6,39.9,92c0,38.8-11.1,68.7-33,88.9
						c-21.8,20.1-54,30.2-95.6,30.2h-33.2l-0.5,76.2L1105.5,349L1105.5,349z M1215,205.9c45.1,0,53.7-17.7,53.7-50.4
						c0-37.4-16.5-54.1-53.7-54.1c-1.3,0-3.1,0-5-0.1c-2.5,0-5.1-0.1-7.7-0.1c-0.5,0-0.9,0-1.3,0v104.6L1215,205.9L1215,205.9z"/>
					<path class="st0" d="M1215,39.4c89.6,0,142.8,31.7,142.9,114.2c0,75.1-42.6,114.3-123.8,114.3H1196l-0.5,76.2h-85.2V39.4
						C1140.5,39.4,1180.4,39.4,1215,39.4 M1196,210.8h19c45.3,0,58.6-17.1,58.6-55.3c0-36.9-15.6-59-58.6-59c-3,0-8.2-0.1-12.8-0.1
						c-2.4,0-4.5,0-6.2,0.1V210.8 M1215,29.6h-104.7h-9.7v9.7V344v9.7h9.7h85.2h9.7l0.1-9.7l0.4-66.5h28.4c42.9,0,76.3-10.6,99-31.6
						c22.9-21.2,34.6-52.3,34.6-92.6c-0.1-43-14.1-75.2-41.8-95.9C1300.5,38.8,1264.3,29.6,1215,29.6L1215,29.6z M1205.9,201v-94.7
						c1.4,0,2.8,0,4,0.1c2,0,3.7,0.1,5.1,0.1c18,0,30.5,4,38.2,12.4c7.1,7.8,10.6,19.8,10.6,36.7c0,17.4-3,28.6-9.5,35.1
						c-2.6,2.6-10.3,10.4-39.3,10.4L1205.9,201L1205.9,201z"/>
				</g>
			</g>
		</g>
	</g>
</g>
</svg>
