<svg xmlns="http://www.w3.org/2000/svg" viewBox="0 0 47 54">
  <defs>
    <style>
      .a {
        fill: none;
      }

      .b {
        fill: #1d1d1f;
      }
    </style>
  </defs>
  <title>apple_tv_plus_large_</title>
  <g>
    <rect class="a" width="47" height="54"/>
    <path class="b" d="M10.39,30.652a3.862,3.862,0,0,0,.88-2.742,3.77,3.77,0,0,0-2.51,1.311,3.618,3.618,0,0,0-.9,2.631,3.14,3.14,0,0,0,2.53-1.2m.82,1.381c-1.4-.081-2.58.8-3.25.8s-1.69-.756-2.79-.736a4.116,4.116,0,0,0-3.5,2.147c-1.5,2.6-.4,6.473,1.06,8.59C3.44,43.84,4.29,45.039,5.42,45s1.48-.7,2.77-.7,1.67.7,2.79.675,1.9-1.008,2.6-2.1a9.358,9.358,0,0,0,1.17-2.42,3.812,3.812,0,0,1-2.27-3.468,3.9,3.9,0,0,1,1.83-3.256,3.992,3.992,0,0,0-3.1-1.7m8.93-2.016V32.87h2.28v1.885H20.14v6.755c0,1.008.45,1.522,1.45,1.522a7.579,7.579,0,0,0,.82-.06v1.9a7.787,7.787,0,0,1-1.35.1c-2.36,0-3.27-.917-3.27-3.216V34.8H16V32.911h1.74V30.017ZM30.39,44.868h-2.5l-4.2-11.957h2.49l2.95,9.608h.06l2.95-9.608h2.44Zm10.98,0H39.21v-4.9H34.57V37.811H39.2v-4.9h2.16v4.9H46v2.158H41.37Z"/>
  </g>
</svg>
