<?xml version="1.0" encoding="utf-8"?>
<!-- Generator: Adobe Illustrator 25.0.0, SVG Export Plug-In . SVG Version: 6.00 Build 0)  -->
<svg version="1.1" id="Layer_1" xmlns="http://www.w3.org/2000/svg" xmlns:xlink="http://www.w3.org/1999/xlink" x="0px" y="0px"
	 viewBox="0 0 3840 480" style="enable-background:new 0 0 3840 480;" xml:space="preserve">
<style type="text/css">
	.st0{fill:#E7362E;}
	.st1{fill:#FFFFFF;}
</style>
<g>
	<g>
		
			<rect x="240.4" y="128.7" transform="matrix(-1.836970e-16 1 -1 -1.836970e-16 535.8176 -51.9336)" width="106.9" height="226.4"/>
		<g>
			<rect x="671.4" y="163.3" width="106.9" height="310.1"/>
			<path d="M778.3,163.3c-35.6,0-71.3,0-106.9,0c0-46.5-69.7-46.5-69.7,0c-35.6,0-71.3,0-106.9,0C494.7-25.8,778.3-25.8,778.3,163.3
				z"/>
			<rect x="494.7" y="163.3" width="106.9" height="310.1"/>
			
				<rect x="585.3" y="165.4" transform="matrix(-1.836970e-16 1 -1 -1.836970e-16 934.175 -343.3828)" width="106.9" height="260.1"/>
		</g>
		<g>
			<rect x="2990.3" y="92.4" width="106.9" height="381"/>
			
				<rect x="2990.3" y="-47.3" transform="matrix(-1.836970e-16 1 -1 -1.836970e-16 3118.7004 -2968.7678)" width="106.9" height="244.6"/>
		</g>
		<g>
			<rect x="2417.1" y="163.3" width="106.9" height="310.1"/>
			<path d="M2524,163.3c-35.6,0-71.3,0-106.9,0c0-46.5-69.7-46.5-69.7,0c-35.6,0-71.3,0-106.9,0C2240.5-25.8,2524-25.8,2524,163.3z"
				/>
			<rect x="2240.5" y="163.3" width="106.9" height="310.1"/>
			
				<rect x="2331.1" y="165.4" transform="matrix(-1.836970e-16 1 -1 -1.836970e-16 2679.9363 -2089.144)" width="106.9" height="260.1"/>
		</g>
		<g>
			<rect x="1008.1" y="158.7" width="106.9" height="314.7"/>
			<rect x="831.5" y="158.7" width="106.9" height="314.7"/>
			<path d="M1061.6,163.3c-35.6,0-17.8,0-53.5,0c0-46.5-69.7-46.5-69.7,0c-35.6,0-71.3,0-106.9,0
				C831.5-25.8,1061.6-25.8,1061.6,163.3z"/>
			<path d="M1291.7,163.3c-35.6,0-71.3,0-106.9,0c0-46.5-69.7-46.5-69.7,0c-35.6,0-17.8,0-53.5,0
				C1061.6-25.8,1291.7-25.8,1291.7,163.3z"/>
			<rect x="1184.8" y="158.7" width="106.9" height="314.7"/>
		</g>
		<g>
			<rect x="1903.7" y="158.7" width="106.9" height="314.7"/>
			<rect x="1727" y="158.7" width="106.9" height="314.7"/>
			<path d="M1957.2,163.3c-35.6,0-17.8,0-53.5,0c0-46.5-69.7-46.5-69.7,0c-35.6,0-71.3,0-106.9,0
				C1727-25.8,1957.2-25.8,1957.2,163.3z"/>
			<path d="M2187.3,163.3c-35.6,0-71.3,0-106.9,0c0-46.5-69.7-46.5-69.7,0c-35.6,0-17.8,0-53.5,0
				C1957.2-25.8,2187.3-25.8,2187.3,163.3z"/>
			<rect x="2080.3" y="158.7" width="106.9" height="314.7"/>
		</g>
		<g>
			
				<rect x="1419.3" y="151" transform="matrix(-1.836970e-16 1 -1 -1.836970e-16 1720.1232 -1225.2855)" width="106.9" height="192.8"/>
			<g>
				
					<rect x="1419.3" y="-21.5" transform="matrix(-1.836970e-16 1 -1 -1.836970e-16 1547.6432 -1397.7655)" width="106.9" height="192.8"/>
				<path d="M1451.8,366.4v-345h-106.9v365.7c0,47.6,38.6,86.2,86.2,86.2h138V366.4H1451.8z"/>
			</g>
		</g>
		<g>
			<g>
				
					<rect x="3281" y="151" transform="matrix(-1.836970e-16 1 -1 -1.836970e-16 3581.8918 -3087.0542)" width="106.9" height="192.8"/>
				<g>
					
						<rect x="3281" y="-21.5" transform="matrix(-1.836970e-16 1 -1 -1.836970e-16 3409.4119 -3259.5342)" width="106.9" height="192.8"/>
					<path d="M3313.6,366.4v-345h-106.9v365.7c0,47.6,38.6,86.2,86.2,86.2h138V366.4H3313.6z"/>
				</g>
			</g>
			<g>
				<rect x="3484.1" y="178" width="106.9" height="295.4"/>
				<polygon points="3697.6,276.6 3675,299.2 3591,233.5 3622.1,352.2 3749.9,480 3825.5,404.4 				"/>
				<path d="M3662,0c-98.3,0-178,79.7-178,178c0,73,44,135.7,106.9,163.1V233.5l30.8,117.7c13,3,26.4,4.7,40.2,4.7
					c98.3,0,178-79.7,178-178C3840,79.7,3760.3,0,3662,0z M3662,249c-39.2,0-71.1-31.8-71.1-71.1c0-39.2,31.8-71.1,71.1-71.1
					s71.1,31.8,71.1,71.1C3733.1,217.2,3701.3,249,3662,249z"/>
			</g>
		</g>
		<path d="M2880.8,21.5h-62.9h0c-62.5,0-115.9,45.2-126.1,106.9l-32.9,198.3c-3.8,22.9-23.6,39.8-46.9,39.8h-47.4v106.9h70
			c62.5,0,115.9-45.2,126.1-106.9l32.9-198.3c3.8-22.9,23.6-39.8,46.9-39.8h40.3V21.5z"/>
		<path d="M380.1,188.5l-40.8,40.8c0.2,2.6,0.4,5.1,0.4,7.7c0,64.3-52.1,116.4-116.4,116.4c-64.3,0-116.4-52.1-116.4-116.4
			S159,120.6,223.3,120.6c37.7,0,71,18,92.3,45.7l76-76c-40.9-46.9-101.1-76.6-168.3-76.6C100,13.7,0,113.7,0,237
			s100,223.3,223.3,223.3c123.3,0,223.3-100,223.3-223.3c0-16.7-1.8-32.9-5.3-48.5H380.1z"/>
	</g>
</g>
</svg>
