<?xml version="1.0" encoding="utf-8"?>
<!-- Generator: Adobe Illustrator 25.4.1, SVG Export Plug-In . SVG Version: 6.00 Build 0)  -->
<svg version="1.1" id="Layer_1" xmlns="http://www.w3.org/2000/svg" xmlns:xlink="http://www.w3.org/1999/xlink" x="0px" y="0px"
	 viewBox="0 0 3839 1328.6" style="enable-background:new 0 0 3839 1328.6;" xml:space="preserve">
<style type="text/css">
	.st0{fill:#232F95;}
	.st1{fill:#FFFFFF;}
	.st2{fill:url(#SVGID_1_);}
	.st3{fill:url(#SVGID_00000041980814058646802290000012346867926883153289_);}
	.st4{fill:url(#SVGID_00000094596972950198936790000013222581724368274848_);}
	.st5{fill:url(#SVGID_00000039108662149163276920000000451508915612021404_);}
	.st6{fill:url(#SVGID_00000040546483689596097430000001359949921980748938_);}
	.st7{fill:url(#SVGID_00000079457697827013767860000009457545381610902966_);}
	.st8{fill:url(#SVGID_00000156547256851013304670000001907664702725872281_);}
	.st9{fill:url(#SVGID_00000057125825648482550550000006052510934884438417_);}
	.st10{fill:url(#SVGID_00000015349201166856904310000002988633213618090880_);}
	.st11{fill:url(#SVGID_00000034086674674262032600000001571178948485733266_);}
	.st12{fill:url(#SVGID_00000150092111459947541430000002020671795681110447_);}
	.st13{fill:url(#SVGID_00000082345358009612241560000006211371873579282866_);}
	.st14{fill:url(#SVGID_00000072244377002548322960000008134196174445357244_);}
	.st15{fill:url(#SVGID_00000011029195074721810520000000728532661145098930_);}
	.st16{fill:url(#SVGID_00000059303725449987903300000006085574644860499383_);}
	.st17{fill:url(#SVGID_00000083063468255535594320000007088700802481387436_);}
	.st18{fill:url(#SVGID_00000052805431297526046730000005500688933425950109_);}
	.st19{fill:url(#SVGID_00000160164944383490135490000007121053551080502969_);}
	.st20{fill:url(#SVGID_00000080177647261086694730000003248578835188926353_);}
	.st21{fill:url(#SVGID_00000019677239134118274270000008481454470928217240_);}
	.st22{fill:url(#SVGID_00000066510429333576431910000012581940875420894383_);}
	.st23{fill:url(#SVGID_00000019678950997663260570000018314111424973285296_);}
	.st24{fill:url(#SVGID_00000029757046336466055250000003429465037847614598_);}
	.st25{fill:url(#SVGID_00000010309270451786629630000010284528508227718578_);}
	.st26{fill:url(#SVGID_00000096041225592904725310000018369783849185623223_);}
	.st27{fill:url(#SVGID_00000039829023230749611200000012099988480291956099_);}
	.st28{fill:url(#SVGID_00000008143265909270770180000001207187555254624658_);}
	.st29{fill:url(#SVGID_00000124849335005662481750000016285385670994969521_);}
	.st30{fill:url(#SVGID_00000145772256037615376110000011802158467960813468_);}
	.st31{fill:url(#SVGID_00000025444509940806523130000017198406174028535681_);}
	.st32{fill:url(#SVGID_00000178194668878816424430000005601136240998862229_);}
	.st33{fill:url(#SVGID_00000042000589563472089960000016872164713923609004_);}
	.st34{fill:url(#SVGID_00000048468529705047233840000011939901172778411420_);}
	.st35{fill:url(#SVGID_00000000903739578353450370000006655548847287641766_);}
	.st36{fill:url(#SVGID_00000078045845211223021160000006886799358080239279_);}
	.st37{fill:url(#SVGID_00000110454894198380997480000003142089797987016847_);}
	.st38{fill:url(#SVGID_00000114073394439662493310000012586678557277814406_);}
	.st39{fill:url(#SVGID_00000030478893223323566330000010961069220063397540_);}
	.st40{fill:url(#SVGID_00000003812921051324293250000016917626769347810993_);}
	.st41{fill:url(#SVGID_00000154395882154640750380000017761010728304510088_);}
	.st42{fill:url(#SVGID_00000002354903327091354500000010046240188873811379_);}
	.st43{fill:url(#SVGID_00000023982348586279628130000003316996719098716812_);}
	.st44{fill:url(#SVGID_00000165935461166325736130000000460537029979103879_);}
	.st45{fill:url(#SVGID_00000126302524243616610900000012635097864680683657_);}
	.st46{fill:url(#SVGID_00000076597017816042181530000012686469503743264406_);}
	.st47{fill:url(#SVGID_00000124135997626197655880000010433180400244921002_);}
	.st48{fill:url(#SVGID_00000078006733987362215670000016012803771066794368_);}
	.st49{fill:url(#SVGID_00000142867219071208773470000016524995114644246923_);}
	.st50{fill:url(#SVGID_00000049224059915159409950000015653499452047210156_);}
	.st51{fill:url(#SVGID_00000127029741959848491580000010044962644441374113_);}
	.st52{fill:url(#SVGID_00000040556955018228195590000016552717974649822890_);}
	.st53{fill:url(#SVGID_00000094610701136571724060000016921766766855165116_);}
	.st54{fill:url(#SVGID_00000122687561387683886510000018095184464148713635_);}
	.st55{fill:url(#SVGID_00000054945872966856913850000001120014691814700429_);}
	.st56{fill:url(#SVGID_00000132069256697221715510000015867928063732337025_);}
	.st57{fill:url(#SVGID_00000142139060851950705730000016410953192564978322_);}
	.st58{fill:url(#SVGID_00000073715601677746691600000005697528602044561844_);}
	.st59{fill:url(#SVGID_00000123401841736137660620000017861849237846639244_);}
	.st60{fill:url(#SVGID_00000026877709114393793690000012519896578314759846_);}
	.st61{fill:url(#SVGID_00000131363345738975419360000002864254553491920573_);}
	.st62{fill:url(#SVGID_00000051352945042419137820000010380384001457091753_);}
	.st63{fill:url(#SVGID_00000097489769239777279150000008250540292972587929_);}
	.st64{fill:url(#SVGID_00000035490150749464624940000007342735971209714338_);}
	.st65{fill:url(#SVGID_00000126305478341353663600000012144025887843615886_);}
	.st66{fill:url(#SVGID_00000049207074782293658080000014854815517002263430_);}
	.st67{fill:url(#SVGID_00000039126850908380262580000013664658808691724988_);}
	.st68{fill:url(#SVGID_00000100349022525104491140000011072296921984734874_);}
	.st69{fill:url(#SVGID_00000048480595341418980450000004142678215741154176_);}
	.st70{fill:url(#SVGID_00000109000678061151731790000007659542192782705063_);}
	.st71{fill:url(#SVGID_00000049223531238975769900000003994814581631538316_);}
	.st72{fill:url(#SVGID_00000175290422885983793440000002546770788388733862_);}
	.st73{fill:url(#SVGID_00000121254042078886813740000002586172792060794519_);}
	.st74{fill:url(#SVGID_00000179611958973553484880000012692767145525254577_);}
	.st75{fill:url(#SVGID_00000152256766300440874780000004332743216220362942_);}
	.st76{fill:url(#SVGID_00000008831425954908974010000017243073099234411412_);}
	.st77{fill:url(#SVGID_00000055669781847519852500000011328948251200249784_);}
	.st78{fill:url(#SVGID_00000026132367614007490150000014830230407676756612_);}
	.st79{fill:url(#SVGID_00000168815867167676414170000017160738909395334804_);}
	.st80{fill:url(#SVGID_00000121265312129527726640000017072241917985875385_);}
	.st81{fill:url(#SVGID_00000094579332163704380330000013049640827006278060_);}
	.st82{fill:url(#SVGID_00000160152959655820548920000009094305401005549444_);}
	.st83{fill:url(#SVGID_00000010268469333897013180000001040795212247093165_);}
	.st84{fill:url(#SVGID_00000000906434949853458800000013616479527863222915_);}
	.st85{fill:url(#SVGID_00000046340749191981870340000012840438902930653320_);}
	.st86{fill:url(#SVGID_00000183247397416867198040000004150190872121655942_);}
	.st87{fill:url(#SVGID_00000063608613359090403250000011205677266306637983_);}
	.st88{fill:url(#SVGID_00000055694519180503997350000015250430101325838771_);}
	.st89{fill:url(#SVGID_00000020384640548923382840000003520485967369470867_);}
	.st90{fill:url(#SVGID_00000163046400950094021330000015723391575505800376_);}
	.st91{fill:url(#SVGID_00000004509452843737351800000012383216211080770479_);}
	.st92{fill:url(#SVGID_00000002372327988560256130000004903370657928431508_);}
	.st93{fill:url(#SVGID_00000060007577007368704000000001825260937062509749_);}
	.st94{fill:url(#SVGID_00000172428556129502262540000006179947731034728330_);}
	.st95{fill:url(#SVGID_00000083806492584397434080000015935325227322557607_);}
	.st96{fill:url(#SVGID_00000080923870617818232110000004080937654368678036_);}
	.st97{fill:url(#SVGID_00000113335470280475092740000000574565244799682739_);}
	.st98{fill:url(#SVGID_00000066511416217164716530000001776116005907855773_);}
	.st99{fill:url(#SVGID_00000059279780950905136810000007844422099391759806_);}
	.st100{fill:url(#SVGID_00000026850400410991254730000005025389103179022465_);}
	.st101{fill:url(#SVGID_00000059305866373904566960000002833962974562718632_);}
	.st102{fill:#502F8E;}
	.st103{fill:url(#SVGID_00000065033899784400642760000013585151429680658110_);}
	.st104{fill:url(#SVGID_00000065045244991573430320000003439217008055943069_);}
	.st105{fill:url(#SVGID_00000070831360083028298370000005432377386978537389_);}
	.st106{fill:url(#SVGID_00000138560928411725728520000009367043838594501541_);}
	.st107{fill:url(#SVGID_00000010290715964941128910000008458074882084939422_);}
	.st108{fill:url(#SVGID_00000018945377957138782240000018268192941255062699_);}
	.st109{fill:url(#SVGID_00000038370920766816728420000004702633759138741409_);}
	.st110{fill:url(#SVGID_00000159436916859152445890000002908364005292907142_);}
	.st111{fill:url(#SVGID_00000001664441323515951700000001415750259458873786_);}
	.st112{fill:url(#SVGID_00000106838813189668572140000011829823992502551431_);}
	.st113{fill:url(#SVGID_00000130640196889002643150000014709082210726570372_);}
	.st114{fill:url(#SVGID_00000115484045089317998850000012470744059131112361_);}
	.st115{fill:url(#SVGID_00000101070764696853825240000005216283317747005342_);}
	.st116{fill:url(#SVGID_00000003093952515606566350000002425676457600686506_);}
	.st117{fill:url(#SVGID_00000089574537084461744640000003388630077485737148_);}
	.st118{fill:url(#SVGID_00000114056702077231691260000014965570322197786502_);}
	.st119{fill:url(#SVGID_00000058566620660402602810000006407641145842423742_);}
	.st120{fill:url(#SVGID_00000027562596699085615290000009546703799356470416_);}
	.st121{fill:url(#SVGID_00000064336611446051698800000000511156088477699759_);}
	.st122{fill:url(#SVGID_00000093864310212642257810000010033224181491553701_);}
	.st123{fill:url(#SVGID_00000148634680683117857040000002001845386518489279_);}
	.st124{fill:url(#SVGID_00000127024430171540532760000004460422196804418946_);}
	.st125{fill:url(#SVGID_00000015356240124145187580000018219812790966519481_);}
	.st126{fill:url(#SVGID_00000158725878773094206250000008489188641866865313_);}
	.st127{fill:url(#SVGID_00000142884580578669017910000004326030062604068744_);}
	.st128{fill:url(#SVGID_00000119837312201095000120000003814110422131965103_);}
	.st129{fill:url(#SVGID_00000095315526039864096830000005270597946957694113_);}
	.st130{fill:url(#SVGID_00000173854047185750277400000011928952791199638924_);}
	.st131{fill:url(#SVGID_00000180347991806083985370000014680336029966230178_);}
	.st132{fill:url(#SVGID_00000108281090846723358770000017669915268676365194_);}
	.st133{fill:url(#SVGID_00000129179480910384645100000011543975233253834647_);}
	.st134{fill:url(#SVGID_00000065041146140167446210000001730305180414664863_);}
	.st135{fill:url(#SVGID_00000085928934891940470620000016237873329025298577_);}
	.st136{fill:url(#SVGID_00000059302881882615395000000003977385799675180733_);}
	.st137{fill:url(#SVGID_00000123415451210036956500000002583087292198193796_);}
	.st138{fill:url(#SVGID_00000008857460412907705670000007522528934332564670_);}
	.st139{fill:url(#SVGID_00000096753953752925495180000015409514263788495034_);}
	.st140{fill:url(#SVGID_00000164502047659763034520000014155022469373190274_);}
	.st141{fill:url(#SVGID_00000059285919148352592130000015979730695237916852_);}
	.st142{fill:url(#SVGID_00000082354931890567562870000016022545668245233064_);}
	.st143{fill:url(#SVGID_00000137120727782436651000000017017534126783671483_);}
	.st144{fill:url(#SVGID_00000142863448639951364390000013856992750021556111_);}
	.st145{fill:url(#SVGID_00000109720483041576290840000000411567024572485011_);}
	.st146{fill:url(#SVGID_00000057128406095909472230000004801172399284586647_);}
	.st147{fill:url(#SVGID_00000055691060558676575720000017550982038908612491_);}
	.st148{fill:url(#SVGID_00000106861333015161154070000012802340000431957921_);}
	.st149{fill:url(#SVGID_00000175311190303729116560000008409199549288679819_);}
	.st150{fill:url(#SVGID_00000117677882022867571890000008670798719831877290_);}
	.st151{fill:url(#SVGID_00000115498638603494123900000015639776062570068880_);}
	.st152{fill:url(#SVGID_00000152256417853053317730000000755816726262789029_);}
	.st153{fill:url(#SVGID_00000011712877898185813760000008955689484308797367_);}
	.st154{fill:url(#SVGID_00000090286157211917293690000009254404172531167373_);}
	.st155{fill:url(#SVGID_00000147214049868583347250000008487899579314151050_);}
	.st156{fill:url(#SVGID_00000139259803222490290640000002928408372768671129_);}
	.st157{fill:url(#SVGID_00000112634632495837394790000013988503633414851471_);}
	.st158{fill:url(#SVGID_00000006699017464007311590000005595618561345340592_);}
	.st159{fill:url(#SVGID_00000183951580292551822310000013933286238475968404_);}
	.st160{fill:url(#SVGID_00000148636814149344535710000003420755422711516831_);}
	.st161{fill:url(#SVGID_00000146465699537407357390000000749762797114841495_);}
	.st162{fill:url(#SVGID_00000134242674961937109350000009853805865137150356_);}
	.st163{fill:url(#SVGID_00000031201482975004730980000000150106805242070178_);}
	.st164{fill:url(#SVGID_00000107563943654632227740000001998636720660855198_);}
	.st165{fill:url(#SVGID_00000116201307791474863690000004309042666074031746_);}
	.st166{fill:url(#SVGID_00000022547796348159454060000009555533532081777582_);}
	.st167{fill:url(#SVGID_00000136389303933938598050000000801682433147991225_);}
	.st168{fill:url(#SVGID_00000023966206835382924300000007440451486341985163_);}
	.st169{fill:url(#SVGID_00000029759411067581608590000012562028218649658019_);}
	.st170{fill:url(#SVGID_00000111159311798705304820000008225278919727605143_);}
</style>
<g>
	<g>
		<g>
			<path d="M1595.6,870.7l-3.8,6.9L1431,1169.5l-170.5-292.2l-3.9-6.7h-150.7l12.4,20.4l29,47.8c-46.5-44.2-117.7-68.2-210.4-68.2
				H633.6v379.5L409,877.6l-3.9-6.5h-116l-3.9,6.6L29.6,1308.2l-12,20.2h100.4v0.2h223.3v-101.1H210l131.5-237.1l185.7,331.3
				l3.8,6.8h149.7l-0.2-0.4h229.9c198.2,0,298.8-77.4,298.8-230.2c0-26.5-3.4-51-10-73.3l179.9,297l3.9,6.4h87.6l3.8-6.7
				l249.7-430.5l11.7-20.1H1595.6z M888,1221.4h-122V974.4h172c93,0,136.3,37.6,136.3,118.3C1074.3,1188.8,1027.2,1221.4,888,1221.4
				z"/>
			<polyline points="2611.3,870.7 2597.8,870.7 2597.8,1142.7 2254,873.5 2250.4,870.7 2160.2,870.7 2160.2,1250.5 1935.2,877.4 
				1931.2,870.9 1815.2,870.9 1811.4,877.4 1555.8,1308 1543.8,1328.3 1680.1,1328.3 1680.4,1327.8 1867.9,1327.8 1867.9,1226.7 
				1736.5,1226.7 1867.8,990.1 2053.5,1321.4 2057.3,1328.3 2207,1328.3 2206.9,1328 2282.5,1328 2282.5,1052.2 2625.1,1325.1 
				2628.8,1328 2718.8,1328 2718.8,870.7 2611.3,870.7 			"/>
			<path d="M3152.3,870.8h-268.1c-94.1,0-125.8,29.1-125.8,115.4v226.6c0,86,31.7,115.2,125.8,115.2h268.1
				c94.2,0,126-29.1,126-115.2v-64.2l-13.4-0.1l-105.5-0.2H3146v70.4h-255.5V977.2H3146v63.5l13.4,0.1l105.5,0.4l13.5,0v-55.1
				C3278.4,898.8,3247.7,870.8,3152.3,870.8"/>
			<polyline points="3801.7,1221.4 3453.7,1221.4 3453.7,1141.2 3661.4,1141.2 3661.4,1040.3 3453.7,1040.3 3453.7,974.3 
				3810.1,974.3 3810.1,870.8 3321.3,870.8 3321.3,1328 3815.1,1328 3815.1,1221.4 3801.7,1221.4 			"/>
		</g>
	</g>
	<path d="M1523.7,18l-151.9,357.5L1306.2,18h-132.6l-171.3,527.5L914.4,18H749L498.6,586.3L536,348.7H287.2l-19,122.3h104
		l-11.9,65.5c-59.6,23.8-160.9,14.8-204.1-62.6c-27.3-49.1-52.7-158.7,62.5-259.3c93.8-82,256.3-96.8,350.1-53.6
		c0,0,11.9-68.6,20.9-132.6C409.3-34.2,269.3,18,175.5,76.1C47.7,155.2-13.8,275.7,2.6,439.6c19,190.2,265.2,309.9,473.7,189.2
		c1.9-1.1,3.4-2,4.8-2.8l-19.6,44.5h140l87.9-195.2h154.9l34.3,195.2h228l116.2-365l74.6,365h89.4L1561,266.8l17.8,403.7h134.1
		L1684.7,18H1523.7 M743,348.7l56.6-126.6l24.6,126.6H743z"/>
	<polyline points="1723.4,670.5 2097.3,670.5 2119.7,530.5 1885.7,530.5 1904.3,414.3 2107.8,414.3 2130.1,274.3 1924.5,274.3 
		1942.4,158 2176.3,158 2198.6,18 1827.7,18 1723.4,670.5 	"/>
	<polygon points="3682.5,18 3550,231 3466.5,18 3313,18 3470.9,362.1 3422.4,670.5 3556.5,670.5 3597.7,397.9 3839,18 	"/>
	<path d="M3184.3,23.6c-148.6-34.3-302.8,84.1-344.4,264.5c-41.7,180.4,45.1,354.4,193.6,388.7s302.8-84,344.4-264.5
		C3419.6,232.1,3332.9,57.9,3184.3,23.6 M3236.8,407.2c-36.2,108.6-123,170.9-194,139.1c-70.9-31.7-99.1-145.4-62.9-254
		c36.1-108.6,123-170.8,193.9-139.1C3244.8,184.9,3273,298.7,3236.8,407.2z"/>
	<path d="M2652.6,21.7c-72.4-1.2-251.4,0-251.4,0h1.5l-103.5,647.5c0,0,214.4,0,301.6,0c124.2,0,305.8-183,140.5-332.5
		C2911.4,160.7,2742.8,23.2,2652.6,21.7 M2574.2,543.6c-73.9,0-118.3,0-118.3,0l20.8-130.2c0,0,28.1,0,112.4,0
		C2695.5,413.4,2692.5,543.6,2574.2,543.6z M2590.5,280.4c-73.9,0-93.2,0-93.2,0l20.7-121.3c0,0,3,0,87.2,0
		C2699.9,159.1,2680.7,280.4,2590.5,280.4z"/>
</g>
</svg>
