<?xml version="1.0" encoding="utf-8"?>
<!-- Generator: Adobe Illustrator 25.4.1, SVG Export Plug-In . SVG Version: 6.00 Build 0)  -->
<svg version="1.1" id="Layer_1" xmlns="http://www.w3.org/2000/svg" xmlns:xlink="http://www.w3.org/1999/xlink" x="0px" y="0px"
	 viewBox="0 0 3839 447.1" style="enable-background:new 0 0 3839 447.1;" xml:space="preserve">
<style type="text/css">
	.st0{fill:#232F95;}
	.st1{fill:#FFFFFF;}
	.st2{fill:url(#SVGID_1_);}
	.st3{fill:url(#SVGID_00000041273027997436056270000010269285864907315348_);}
	.st4{fill:url(#SVGID_00000081616208256078220230000008403886583833090216_);}
	.st5{fill:url(#SVGID_00000085946593826301394380000012107974500589195187_);}
	.st6{fill:url(#SVGID_00000066514503288814016770000014632383126245257882_);}
	.st7{fill:url(#SVGID_00000109724178625446160420000008636473001478767505_);}
	.st8{fill:url(#SVGID_00000030448791780089591590000014163892516796249014_);}
	.st9{fill:url(#SVGID_00000092430399218382065500000014611652768141685399_);}
	.st10{fill:url(#SVGID_00000101066128391296299310000008711010201927262142_);}
	.st11{fill:url(#SVGID_00000119117470136207809750000015414287731806387616_);}
	.st12{fill:url(#SVGID_00000178927023915452931470000016311970141299585938_);}
	.st13{fill:url(#SVGID_00000023975860750057832670000003432845821602231217_);}
	.st14{fill:url(#SVGID_00000007402032962631600780000006328704735098783891_);}
	.st15{fill:url(#SVGID_00000143602290968436195160000012767141053814461371_);}
	.st16{fill:url(#SVGID_00000082334884414587741810000018063723298262954915_);}
	.st17{fill:url(#SVGID_00000134232717763947893330000005496499328674547076_);}
	.st18{fill:url(#SVGID_00000106848532631295183000000011074392604340598415_);}
	.st19{fill:url(#SVGID_00000168821017000931230070000015429341259139942030_);}
	.st20{fill:url(#SVGID_00000119077504180045715530000005420468106459935140_);}
	.st21{fill:url(#SVGID_00000040547144031538118990000017882518020801302144_);}
	.st22{fill:url(#SVGID_00000118386084397599810090000010053381327250152081_);}
	.st23{fill:url(#SVGID_00000056387053486459141100000016802545082156781463_);}
	.st24{fill:url(#SVGID_00000012449970136431341660000018032974609570866579_);}
	.st25{fill:url(#SVGID_00000019662343070996639920000017712546084941158019_);}
	.st26{fill:url(#SVGID_00000057849911436993676280000016580851102751978903_);}
	.st27{fill:url(#SVGID_00000006705390934173896860000017690796838936690365_);}
	.st28{fill:url(#SVGID_00000114075321521361357520000010412362254950139015_);}
	.st29{fill:url(#SVGID_00000072239353859540069170000009726877389414060215_);}
	.st30{fill:url(#SVGID_00000075848604751712040990000013400626616324246444_);}
	.st31{fill:url(#SVGID_00000035502914821037084460000000066170493725122733_);}
	.st32{fill:url(#SVGID_00000044879367270371607950000017194240290032225723_);}
	.st33{fill:url(#SVGID_00000166648378867008316270000000073150532558922900_);}
	.st34{fill:url(#SVGID_00000094579417775481387220000010478921770298988189_);}
	.st35{fill:url(#SVGID_00000104673200426168894150000015174198155700737156_);}
	.st36{fill:url(#SVGID_00000082357066996114208890000010486658147125133963_);}
	.st37{fill:url(#SVGID_00000161592456884511017730000009303240887124859282_);}
	.st38{fill:url(#SVGID_00000067943577726803567400000000404236325289819579_);}
	.st39{fill:url(#SVGID_00000022522892500937315850000016103347908956002478_);}
	.st40{fill:url(#SVGID_00000068663452619173046390000014585985150216683182_);}
	.st41{fill:url(#SVGID_00000174598315960579644010000016991064030144130477_);}
	.st42{fill:url(#SVGID_00000124874296007414370980000005930040203054658232_);}
	.st43{fill:url(#SVGID_00000165951279292091946220000003305459342673983883_);}
	.st44{fill:url(#SVGID_00000047039728260229590600000013664016413599469974_);}
	.st45{fill:url(#SVGID_00000163769314415183813790000017120754017379531920_);}
	.st46{fill:url(#SVGID_00000137831561164929669290000015625670871500432041_);}
	.st47{fill:url(#SVGID_00000074419594032437734440000005070220457040769159_);}
	.st48{fill:url(#SVGID_00000084510271511199649030000001002176586245805984_);}
	.st49{fill:url(#SVGID_00000147189808692441090700000010904506785017350279_);}
	.st50{fill:url(#SVGID_00000090293736575715210200000012941115129776147631_);}
	.st51{fill:url(#SVGID_00000180324557482640115810000011170751668937581501_);}
	.st52{fill:url(#SVGID_00000097476738675861990370000013059447757697541265_);}
	.st53{fill:url(#SVGID_00000134970144989826189920000004780792207561424259_);}
	.st54{fill:url(#SVGID_00000044151644022460293370000006355496619504083336_);}
	.st55{fill:url(#SVGID_00000079468474744832360640000011973099973886623915_);}
	.st56{fill:url(#SVGID_00000105417039169850217070000017422139292729135262_);}
	.st57{fill:url(#SVGID_00000075872843466931531540000006457812940069840030_);}
	.st58{fill:url(#SVGID_00000179614581963010466600000008054386589575537067_);}
	.st59{fill:url(#SVGID_00000003100231272665654390000005570767678031274935_);}
	.st60{fill:url(#SVGID_00000176011430320143430600000015065547114592748970_);}
	.st61{fill:url(#SVGID_00000111191544332823029620000017427343159622137783_);}
	.st62{fill:url(#SVGID_00000043449061637712990720000014495500663973136267_);}
	.st63{fill:url(#SVGID_00000178199525324507136740000017574582028262671508_);}
	.st64{fill:url(#SVGID_00000098911628421211818580000015254539808357959309_);}
	.st65{fill:url(#SVGID_00000170253903491099838760000003801569091982988166_);}
	.st66{fill:url(#SVGID_00000181767777048423621870000011386939391093024917_);}
	.st67{fill:url(#SVGID_00000127039111674881677440000003060278471869732009_);}
	.st68{fill:url(#SVGID_00000150070792439725042740000005356017263257588140_);}
	.st69{fill:url(#SVGID_00000017491675561114559960000006120435398564694699_);}
	.st70{fill:url(#SVGID_00000088817058329896216410000001707322841257233810_);}
	.st71{fill:url(#SVGID_00000125581340370247836330000014684547934325379746_);}
	.st72{fill:url(#SVGID_00000079487526963431823740000001578195676767107751_);}
	.st73{fill:url(#SVGID_00000016786182812030738020000010094234478204775815_);}
	.st74{fill:url(#SVGID_00000113311194005815753980000010859095077264935565_);}
	.st75{fill:url(#SVGID_00000098915204529362840510000001865756714880428208_);}
	.st76{fill:url(#SVGID_00000121987065471580178180000012950755827239926156_);}
	.st77{fill:url(#SVGID_00000111907355550731612380000010583529121990336642_);}
	.st78{fill:url(#SVGID_00000059282693256746828230000015211544018084148408_);}
	.st79{fill:url(#SVGID_00000057138525405567683790000009791137944521911711_);}
	.st80{fill:url(#SVGID_00000156566529590944247460000008707773925127275438_);}
	.st81{fill:url(#SVGID_00000139267381068069772110000008197218699257498815_);}
	.st82{fill:url(#SVGID_00000119796058676601289760000015878070132975137936_);}
	.st83{fill:url(#SVGID_00000038393440722956704080000010682179651147346604_);}
	.st84{fill:url(#SVGID_00000145051802819217849810000015412905538180682674_);}
	.st85{fill:url(#SVGID_00000160893963671732825680000003394012825904524192_);}
	.st86{fill:url(#SVGID_00000103249673100095308870000001893117883395251621_);}
	.st87{fill:url(#SVGID_00000162317989929701180550000014547286023911227583_);}
	.st88{fill:url(#SVGID_00000168074455536249436450000018298507473241115312_);}
	.st89{fill:url(#SVGID_00000119811879048545671130000016338878229760839099_);}
	.st90{fill:url(#SVGID_00000144316472683744576760000007276765875614385832_);}
	.st91{fill:url(#SVGID_00000124842477115972030790000012437926283854263966_);}
	.st92{fill:url(#SVGID_00000076597252677712915190000006705211732094648970_);}
	.st93{fill:url(#SVGID_00000061432454603686500550000006130719343830966658_);}
	.st94{fill:url(#SVGID_00000072992526650298666510000006610094472320740233_);}
	.st95{fill:url(#SVGID_00000183971208911678200730000010355094356970216069_);}
	.st96{fill:url(#SVGID_00000019641559919943724890000012660588742791306687_);}
	.st97{fill:url(#SVGID_00000049926125961038657430000015171286556272168877_);}
	.st98{fill:url(#SVGID_00000089552146478791829840000015835579850642681482_);}
	.st99{fill:url(#SVGID_00000024685016039651434180000013221690362186263430_);}
	.st100{fill:url(#SVGID_00000147918353023606664880000003693342732691603080_);}
	.st101{fill:url(#SVGID_00000029726508071417924550000000204766220387481503_);}
	.st102{fill:#502F8E;}
	.st103{fill:url(#SVGID_00000131354659902850283020000000512782703534350480_);}
	.st104{fill:url(#SVGID_00000118396122600660653910000010827997983950004906_);}
	.st105{fill:url(#SVGID_00000118373683217867726930000009777461356706597278_);}
	.st106{fill:url(#SVGID_00000134936523104778210430000002477312939656792226_);}
	.st107{fill:url(#SVGID_00000117664768143525128570000013239895851661755836_);}
	.st108{fill:url(#SVGID_00000183936839114096134240000003854845549731690431_);}
	.st109{fill:url(#SVGID_00000011025209449113461480000015889096196399390363_);}
	.st110{fill:url(#SVGID_00000141433352337262236410000016365524159083009932_);}
	.st111{fill:url(#SVGID_00000169540084431144708010000010449897393992308631_);}
	.st112{fill:url(#SVGID_00000086668473985964802380000002848249152237514912_);}
	.st113{fill:url(#SVGID_00000010280892915450525290000013607312637819621282_);}
	.st114{fill:url(#SVGID_00000095331716466522797320000011522844924425240473_);}
	.st115{fill:url(#SVGID_00000049202018092093811750000006010734350976389264_);}
	.st116{fill:url(#SVGID_00000114769375956697887300000003790612908361506699_);}
	.st117{fill:url(#SVGID_00000134959050622203553600000007172920950200234935_);}
	.st118{fill:url(#SVGID_00000111911597927314188760000000472134828125871028_);}
	.st119{fill:url(#SVGID_00000033361732342154444700000003077429963263436189_);}
	.st120{fill:url(#SVGID_00000166658024632523092910000008434471224714485425_);}
	.st121{fill:url(#SVGID_00000165230886393313325260000008331114358848220606_);}
	.st122{fill:url(#SVGID_00000030451595631295864810000009636604607405493143_);}
	.st123{fill:url(#SVGID_00000094596866970252174900000015891097633343772549_);}
	.st124{fill:url(#SVGID_00000048501295531429695020000008038469447892371641_);}
	.st125{fill:url(#SVGID_00000104678326538488371270000011798787776934053537_);}
	.st126{fill:url(#SVGID_00000070103248767002669650000008476750096797836932_);}
	.st127{fill:url(#SVGID_00000004530233911514069860000000502788957467383742_);}
	.st128{fill:url(#SVGID_00000110443725672346471060000012531432894002588607_);}
	.st129{fill:url(#SVGID_00000145043121630583673710000003260054941840091835_);}
	.st130{fill:url(#SVGID_00000032628701842084667480000008491153957555034511_);}
	.st131{fill:url(#SVGID_00000151502354679659135340000001383150150028017592_);}
	.st132{fill:url(#SVGID_00000166637749998165976870000006934696014699521696_);}
	.st133{fill:url(#SVGID_00000104689300141460470020000007589445387592316567_);}
	.st134{fill:url(#SVGID_00000010276360753619497510000010319075486387382962_);}
	.st135{fill:url(#SVGID_00000062162434370109943430000012999368818381069955_);}
	.st136{fill:url(#SVGID_00000005954519801531688180000001155330593697085613_);}
	.st137{fill:url(#SVGID_00000011753263564885171880000001247237159119634873_);}
	.st138{fill:url(#SVGID_00000000916942640879341730000001660705350006545055_);}
	.st139{fill:url(#SVGID_00000004516903162486144950000008042403013147076246_);}
	.st140{fill:url(#SVGID_00000163046399934669715690000001755384290674422938_);}
	.st141{fill:url(#SVGID_00000083778784075693092210000011530465726064015281_);}
	.st142{fill:url(#SVGID_00000128459214576254145400000011015933923652438445_);}
	.st143{fill:url(#SVGID_00000073718252988048392380000007417259716204657069_);}
	.st144{fill:url(#SVGID_00000162318991101415990730000003289665827605009071_);}
	.st145{fill:url(#SVGID_00000085220999479984005270000005006460890307110819_);}
	.st146{fill:url(#SVGID_00000127004203324593325290000003600035157850163092_);}
	.st147{fill:url(#SVGID_00000173865434999101506590000004603458312183439524_);}
	.st148{fill:url(#SVGID_00000144331021559687918410000016553092942835694005_);}
	.st149{fill:url(#SVGID_00000057847567013738455010000009818969281009183931_);}
	.st150{fill:url(#SVGID_00000177446384266931612010000001387496806873999026_);}
	.st151{fill:url(#SVGID_00000083083632668742761170000011629852846186218394_);}
	.st152{fill:url(#SVGID_00000159427718866051203900000015824813233998108057_);}
	.st153{fill:url(#SVGID_00000127742648654837940510000003824215624167196801_);}
	.st154{fill:url(#SVGID_00000100348789190471670560000016564502756218065538_);}
	.st155{fill:url(#SVGID_00000035510656242633258100000008507737648391994508_);}
	.st156{fill:url(#SVGID_00000116921962680226933550000011902938721377475206_);}
	.st157{fill:url(#SVGID_00000099623801542930906100000016168250648328857256_);}
	.st158{fill:url(#SVGID_00000008830261583860415720000010665953875768359057_);}
	.st159{fill:url(#SVGID_00000084496284205519542540000016094183428602044585_);}
	.st160{fill:url(#SVGID_00000163030840213882950740000003884107545351319225_);}
	.st161{fill:url(#SVGID_00000165942534393274520370000012926965002409065608_);}
	.st162{fill:url(#SVGID_00000145774871633756911390000001181860781035710347_);}
	.st163{fill:url(#SVGID_00000167394740575537169260000008127374773204403892_);}
	.st164{fill:url(#SVGID_00000095336689159308976030000015164322577388295345_);}
	.st165{fill:url(#SVGID_00000162317340245839297970000004557591673461185435_);}
	.st166{fill:url(#SVGID_00000139268832762331387060000008324318485983019959_);}
	.st167{fill:url(#SVGID_00000038409486938141310740000012697267948067005877_);}
	.st168{fill:url(#SVGID_00000123408036086312246570000005273130367733667723_);}
	.st169{fill:url(#SVGID_00000077293743706307749240000002518926842301020547_);}
	.st170{fill:url(#SVGID_00000124120335778307059450000018419496774958251415_);}
</style>
<g>
	<path d="M1348.9,9c48.3,0,78.2,20.7,106.6,54.5c10.4-9.8,21.5-18.6,33.5-26.1c30-18.7,63.1-28.2,96.1-28.4h448.8l-29.8,46.9h564.7
		l51.1,88.1l46.7-88.1h373.6l93.8,73.6l0-73.6H3839v337.8h-650.5l-94.8-73.7v73.7h-527.1l-35.9-58.1c-28.9,32.5-80.7,58-165.6,58
		l-516.5,0.2l-7.1,46.8h-180.9l4-25.5c-1.8,1.2-3.6,2.5-5.4,3.6c-41.7,26.1-89.6,34.6-134.7,24.2c-34.6-8-64.6-26.5-88-51.9
		c-30.4,30-71.4,49.6-110.4,49.6H437.8l-14.1-80.4l-36.3,80.4H239.1c-46.7,7.9-93.7,1.7-135.4-19.7C45.7,391.2,7.6,337.5,1.6,277.2
		C-8.5,177,29.9,96.9,112.6,45.8C192-3.4,276.3-13,363.3,17.1l16,5.6L385.3,9h166l12.5,75.3L588.3,9"/>
	<g>
		<path class="st1" d="M2769.3,112h-68.5l-1.9,3.4l-78.4,142.5l-83.2-142.6l-1.9-3.3h-73.6l6,9.9l14.1,23.3
			c-22.7-21.6-57.4-33.3-102.7-33.3h-148v185.2l-109.6-181.8l-1.9-3.2h-56.6l-1.9,3.2l-124.7,210.1l-5.9,9.9h49v0.1h109v-49.4h-64.1
			l64.2-115.7l90.6,161.7l1.9,3.3h73l-0.1-0.2h112.2c96.7,0,145.8-37.8,145.8-112.3c0-12.9-1.7-24.9-4.9-35.7l87.8,144.9l1.9,3.1
			h42.8l1.9-3.3l121.9-210.1L2769.3,112 M2355.5,283.1H2296V162.6h83.9c45.4,0,66.5,18.4,66.5,57.7
			C2446.4,267.3,2423.5,283.1,2355.5,283.1z"/>
		<polyline class="st1" points="3196.6,112 3190,112 3190,244.7 3022.2,113.4 3020.4,112 2976.4,112 2976.4,297.4 2866.6,115.3 
			2864.7,112.1 2808.1,112.1 2806.2,115.3 2681.5,325.4 2675.6,335.3 2742.1,335.3 2742.3,335.1 2833.8,335.1 2833.8,285.7 
			2769.6,285.7 2833.7,170.3 2924.3,331.9 2926.2,335.3 2999.3,335.3 2999.2,335.2 3036.1,335.2 3036.1,200.6 3203.3,333.8 
			3205.1,335.2 3249.1,335.2 3249.1,112 3196.6,112 		"/>
		<path class="st1" d="M3460.6,112h-130.9c-45.9,0-61.4,14.2-61.4,56.3v110.6c0,42,15.5,56.2,61.4,56.2h130.9
			c46,0,61.5-14.2,61.5-56.2v-31.3l-6.5,0l-51.5-0.1h-6.6v34.4h-124.7V164h124.7v31l6.6,0l51.5,0.2l6.6,0v-26.9
			C3522.1,125.7,3507.2,112,3460.6,112"/>
		<polyline class="st1" points="3777.6,283.1 3607.7,283.1 3607.7,244 3709.1,244 3709.1,194.8 3607.7,194.8 3607.7,162.5 
			3781.6,162.5 3781.6,112 3543.1,112 3543.1,335.2 3784.1,335.2 3784.1,283.1 3777.6,283.1 		"/>
	</g>
	<g>
		<path class="st1" d="M799.8,64.4l-74.2,174.5l-32-174.5h-64.7l-83.6,257.4L502.4,64.4h-80.7L299.5,341.7l18.2-116H196.3l-9.3,59.7
			h50.7l-5.8,32c-29.1,11.6-78.5,7.2-99.6-30.6c-13.3-23.9-25.7-77.4,30.5-126.5c45.8-40,125.1-47.2,170.9-26.2
			c0,0,5.8-33.5,10.2-64.7c-88-30.6-156.3-5.1-202.1,23.3c-62.4,38.6-92.4,97.4-84.4,177.4c9.2,92.8,129.4,151.3,231.2,92.4
			c0.9-0.5,1.6-1,2.3-1.4l-9.6,21.7h68.3l42.9-95.2h75.6l16.7,95.2h111.3l56.7-178.1l36.4,178.1h43.6l85.1-197l8.7,197h65.5
			L878.3,64.4H799.8 M418.8,225.8l27.6-61.8l12,61.8H418.8z"/>
		<polyline class="st1" points="897.2,382.9 1079.7,382.9 1090.7,314.5 976.4,314.5 985.5,257.8 1084.8,257.8 1095.7,189.5 
			995.4,189.5 1004.1,132.7 1118.3,132.7 1129.2,64.4 948.1,64.4 897.2,382.9 		"/>
		<polyline class="st1" points="1788.7,168.4 1748,64.4 1673,64.4 1750.1,232.3 1726.4,382.9 1791.8,382.9 1811.9,249.8 
			1929.7,64.4 1853.4,64.4 1788.7,168.4 		"/>
		<path class="st1" d="M1610.2,67.1c-72.5-16.7-147.8,41-168.1,129.1c-20.4,88,22,173,94.5,189.7s147.8-41,168.1-129.1
			C1725.1,168.9,1682.7,83.9,1610.2,67.1 M1635.8,254.3c-17.7,53-60,83.4-94.7,67.9c-34.6-15.5-48.4-71-30.7-124
			c17.6-53,60-83.4,94.6-67.9C1639.7,145.9,1653.5,201.4,1635.8,254.3z"/>
		<path class="st1" d="M1350.7,66.2c-35.4-0.6-122.7,0-122.7,0h0.7l-50.5,316c0,0,104.6,0,147.2,0c60.6,0,149.3-89.3,68.6-162.3
			C1477,134,1394.8,66.9,1350.7,66.2 M1312.5,320.9c-36.1,0-57.7,0-57.7,0l10.1-63.5c0,0,13.7,0,54.8,0
			C1371.6,257.4,1370.2,320.9,1312.5,320.9z M1320.4,192.5c-36.1,0-45.5,0-45.5,0l10.1-59.2c0,0,1.4,0,42.6,0
			C1373.8,133.3,1364.4,192.5,1320.4,192.5z"/>
	</g>
</g>
</svg>
