<?xml version="1.0" encoding="utf-8"?>
<!-- Generator: Adobe Illustrator 26.3.1, SVG Export Plug-In . SVG Version: 6.00 Build 0)  -->
<svg version="1.1" id="Layer_1" xmlns="http://www.w3.org/2000/svg" xmlns:xlink="http://www.w3.org/1999/xlink" x="0px" y="0px"
	 viewBox="0 0 3839 1044.9" style="enable-background:new 0 0 3839 1044.9;" xml:space="preserve">
<style type="text/css">
	.st0{display:none;}
	.st1{display:inline;}
	.st2{fill:#FF0000;}
	.st3{fill:#FFFFFF;}
	.st4{fill-rule:evenodd;clip-rule:evenodd;fill:#FF0000;}
	.st5{fill-rule:evenodd;clip-rule:evenodd;fill:#FFFFFF;}
	.st6{fill-rule:evenodd;clip-rule:evenodd;}
</style>
<g id="old_not_used" class="st0">
	<g class="st1">
		<g>
			<g>
				<path d="M31.9,1141.4l-26.5-25.9V967.8l26.5-25.2l29.3,27.2v145L31.9,1141.4z M5.4,1339.5v-146.4l26.5-25.2l29.3,26.5v89.9
					L5.4,1339.5z M201.4,1353.8H15.6L68,1298h133.4l26.5,27.2L201.4,1353.8z"/>
				<path d="M302.8,1310.9l-26.5-25.2V1010l26.5-25.2l29.3,27.2v272.3L302.8,1310.9z M472.3,999.2H338.9l-25.9-26.5l27.2-29.3h132.1
					l26.5,29.3L472.3,999.2z M472.3,1353.8H340.3l-27.2-28.6l25.9-27.2h133.4l26.5,27.2L472.3,1353.8z"/>
				<path d="M591.5,1141.4l-26.5-25.9V961l55.8,52.4v101.4L591.5,1141.4z M564.9,1339.5v-146.4l26.5-25.2l29.3,26.5v89.9
					L564.9,1339.5z M761,999.2H627.5l-55.1-55.8H761l26.5,29.3L761,999.2z M761,1353.8H575.1l52.4-55.8H761l26.5,27.2L761,1353.8z
					 M799.1,1141.4l-26.5-25.9v-103.5l26.5-25.9l29.3,27.2v101.4L799.1,1141.4z M799.1,1310.9l-26.5-25.2v-92.6l26.5-25.2l29.3,26.5
					v89.9L799.1,1310.9z"/>
				<path d="M1059.1,1141.4l-26.5-25.9V967.8l26.5-25.2l29.3,27.2v145L1059.1,1141.4z M1059.1,1355.2l-26.5-25.9v-136.1l26.5-25.2
					l29.3,26.5v134.1L1059.1,1355.2z M1228.6,1182.3h-133.4l-25.9-27.2l27.2-28.6h132.1l26.5,28.6L1228.6,1182.3z M1266.7,1141.4
					l-26.5-25.9V967.8l26.5-25.2l29.3,27.2v145L1266.7,1141.4z M1266.7,1355.2l-26.5-25.9v-136.1l26.5-25.2l29.3,26.5v134.1
					L1266.7,1355.2z"/>
				<path d="M1389.9,1141.4l-26.5-25.9v-103.5l26.5-25.9l29.3,27.2v101.4L1389.9,1141.4z M1389.9,1353.8l-26.5-25.2v-135.5
					l26.5-25.2l29.3,26.5v132.1L1389.9,1353.8z M1559.4,999.2H1426l-25.9-26.5l27.2-29.3h132.1l26.5,29.3L1559.4,999.2z
					 M1559.4,1182.3H1426l-25.9-27.2l27.2-28.6l132.1,0.7l26.5,27.9L1559.4,1182.3z M1597.5,1141.4l-26.5-25.9v-103.5l26.5-25.9
					l29.3,27.2v101.4L1597.5,1141.4z M1597.5,1353.8l-26.5-25.2v-135.5l26.5-25.2l29.3,26.5v132.1L1597.5,1353.8z"/>
				<path d="M1720.7,1141.4l-26.5-25.9V967.8l26.5-25.2l29.3,27.2v145L1720.7,1141.4z M1720.7,1355.2l-26.5-25.9v-136.1l26.5-25.2
					l29.3,26.5v134.1L1720.7,1355.2z M1853.4,1115.6l-91.2-107.6v-38.1h40.2l89.2,105.5v40.2H1853.4z M1928.3,1141.4l-26.5-25.9
					V967.8l26.5-25.2l29.3,27.2v145L1928.3,1141.4z M1928.3,1355.2l-26.5-25.9v-136.1l26.5-25.2l29.3,26.5v134.1L1928.3,1355.2z"/>
				<path d="M2051.5,1141.4l-26.5-25.9V961l55.8,52.4v101.4L2051.5,1141.4z M2025,1339.5v-146.4l26.5-25.2l29.3,26.5v89.9
					L2025,1339.5z M2221,999.2h-133.4l-55.1-55.8H2221l26.5,29.3L2221,999.2z M2221,1353.8h-185.8l52.4-55.8H2221l26.5,27.2
					L2221,1353.8z M2259.1,1141.4l-26.5-25.9v-103.5l26.5-25.9l29.3,27.2v101.4L2259.1,1141.4z M2259.1,1310.9l-26.5-25.2v-92.6
					l26.5-25.2l29.3,26.5v89.9L2259.1,1310.9z"/>
				<path d="M2382.3,1141.4l-26.5-25.9V967.8l26.5-25.2l29.3,27.2v145L2382.3,1141.4z M2382.3,1355.2l-26.5-25.9v-136.1l26.5-25.2
					l29.3,26.5v134.1L2382.3,1355.2z M2551.8,1182.3h-133.4l-25.9-27.2l27.2-28.6h132.1l26.5,28.6L2551.8,1182.3z M2589.9,1141.4
					l-26.5-25.9V967.8l26.5-25.2l29.3,27.2v145L2589.9,1141.4z M2589.9,1355.2l-26.5-25.9v-136.1l26.5-25.2l29.3,26.5v134.1
					L2589.9,1355.2z"/>
				<path d="M2713.1,1141.4l-26.5-25.9v-103.5l26.5-25.9l29.3,27.2v101.4L2713.1,1141.4z M2713.1,1310.9l-26.5-25.2v-92.6l26.5-25.2
					l29.3,26.5v89.9L2713.1,1310.9z M2882.6,999.2h-133.4l-25.9-26.5l27.2-29.3h132.1l26.5,29.3L2882.6,999.2z M2882.6,1182.3
					h-133.4l-25.9-27.2l27.2-28.6h132.1l26.5,28.6L2882.6,1182.3z M2882.6,1353.8h-132.1l-27.2-28.6l25.9-27.2h133.4l26.5,27.2
					L2882.6,1353.8z"/>
				<path d="M3000.4,1141.4l-26.5-25.9V967.8l26.5-25.2l29.3,27.2v145L3000.4,1141.4z M2973.8,1339.5v-146.4l26.5-25.2l29.3,26.5
					v89.9L2973.8,1339.5z M3169.9,1353.8h-185.8l52.4-55.8h133.4l26.5,27.2L3169.9,1353.8z"/>
				<path d="M3271.3,1141.4l-26.5-25.9V961l55.8,52.4v101.4L3271.3,1141.4z M3244.8,1339.5v-146.4l26.5-25.2l29.3,26.5v89.9
					L3244.8,1339.5z M3440.8,999.2h-133.4l-55.1-55.8h188.6l26.5,29.3L3440.8,999.2z M3440.8,1353.8H3255l52.4-55.8h133.4l26.5,27.2
					L3440.8,1353.8z M3478.9,1141.4l-26.5-25.9v-103.5l26.5-25.9l29.3,27.2v101.4L3478.9,1141.4z M3478.9,1310.9l-26.5-25.2v-92.6
					l26.5-25.2l29.3,26.5v89.9L3478.9,1310.9z"/>
				<path d="M3602.1,1141.4l-26.5-25.9v-103.5l26.5-25.9l29.3,27.2v101.4L3602.1,1141.4z M3771.6,1353.8h-159.3l-26.5-28.6
					l25.9-27.2h160l26.5,27.2L3771.6,1353.8z M3795.4,999.2h-157.2l-25.9-26.5l27.2-29.3h155.9l26.5,29.3L3795.4,999.2z
					 M3771.6,1182.3h-133.4l-25.9-27.2l27.2-28.6h132.1l26.5,28.6L3771.6,1182.3z M3809.7,1310.9l-26.5-25.2v-92.6l26.5-25.2
					l29.3,26.5v89.9L3809.7,1310.9z"/>
			</g>
			<g>
				<polygon class="st6" points="5.4,803.9 181.1,803.9 181.1,750.3 80.6,750.3 80.6,719.9 174.8,719.9 174.8,666.3 80.6,666.3 
					80.6,634.8 179.1,634.8 179.1,581.2 5.4,581.2 				"/>
				<polygon class="st6" points="255.1,803.9 426.5,803.9 426.5,738.1 332,738.1 332,581.2 255.1,581.2 				"/>
				<polygon class="st6" points="494.5,803.9 670.2,803.9 670.2,750.3 569.7,750.3 569.7,719.9 663.9,719.9 663.9,666.3 
					569.7,666.3 569.7,634.8 668.2,634.8 668.2,581.2 494.5,581.2 				"/>
				<path class="st6" d="M910.4,739.7c-14.1,5.4-27.6,8.6-41.6,8.6c-31.9,0-54.8-19.5-54.8-57.8c0-36.4,24.7-55.8,57.4-55.8
					c12.9,0,25.8,3.8,38.5,8.3v-58.7c-20.7-4.2-33.3-7-54.6-7c-64.3,0-120,37.3-120,112c0,79.4,53.4,118.4,120,118.4
					c19.5,0,40.8-4.5,55.1-8.9V739.7z"/>
				<polygon class="st6" points="1181.6,581.2 969.1,581.2 969.1,646.9 1036.9,646.9 1036.9,803.9 1113.8,803.9 1113.8,646.9 
					1181.6,646.9 				"/>
				<path class="st6" d="M1320.4,630.9h21.2c15.5,0,30.2,2.9,30.2,23c0,22.7-15.5,24.6-31.3,24.6h-20.1V630.9z M1246.9,803.9h77
					v-75.6h17.2c9.5,0,17.2,1.3,21.8,11.5c6.3,13.4,7.2,48.2,10.6,64.1h80.1c-8-21.7-7.2-56.2-19-79.8
					c-7.2-11.8-17.2-20.7-33.9-23.9v-0.6c28.7-7.7,48-24.9,48-59c0-42.7-29.6-59.3-77.5-59.3h-124.3V803.9z"/>
				<path class="st6" d="M1595,692.5c0-20.7,2.3-61.6,30.7-61.6c29.3,0,31.3,40.8,31.6,61.6c-0.3,23.9-1.1,61.6-31.6,61.6
					C1598.2,754.1,1595,716.4,1595,692.5z M1737.7,692.5c0-74.7-41.9-115.2-112-115.2s-111.1,40.5-111.1,115.2
					c0,75.9,41.1,115.2,111.1,115.2S1737.7,768.4,1737.7,692.5z"/>
				<polygon class="st6" points="1806.9,803.9 1872.9,803.9 1872.9,642.4 1873.5,642.4 1912.5,803.9 2025.7,803.9 2025.7,581.2 
					1959.6,581.2 1959.6,738.1 1959.1,738.1 1922,581.2 1806.9,581.2 				"/>
				<rect x="2104.1" y="581.2" class="st6" width="77" height="222.7"/>
				<path class="st6" d="M2425.9,739.7c-14.1,5.4-27.6,8.6-41.6,8.6c-31.9,0-54.8-19.5-54.8-57.8c0-36.4,24.7-55.8,57.4-55.8
					c12.9,0,25.8,3.8,38.5,8.3v-58.7c-20.7-4.2-33.3-7-54.6-7c-64.3,0-120,37.3-120,112c0,79.4,53.4,118.4,120,118.4
					c19.5,0,40.8-4.5,55.1-8.9V739.7z"/>
				<path class="st6" d="M2658.4,585c-21-4.8-44.8-7.7-66.3-7.7c-45.6,0-103.1,10.8-103.1,72.1c0,86.5,105.4,59.4,105.4,89.3
					c0,11.2-16.4,15.3-34.5,15.3c-23,0-48.2-5.1-68.9-14.7v57.7c28.7,7.3,53.1,10.5,82.7,10.5c44.5,0,97.6-15,97.6-74.7
					c0-85.8-105.4-58.4-105.4-87.4c0-14.4,21-14.7,33-14.7c21.8,0,42.2,4.5,59.4,11.2V585z"/>
				<polygon class="st6" points="2755.3,742.6 2737.5,839.9 2783.2,839.9 2816.2,742.6 				"/>
				<polygon class="st6" points="3046,803.9 3217.5,803.9 3217.5,738.1 3123,738.1 3123,581.2 3046,581.2 				"/>
				<polygon class="st6" points="3456.9,581.2 3244.4,581.2 3244.4,646.9 3312.2,646.9 3312.2,803.9 3389.1,803.9 3389.1,646.9 
					3456.9,646.9 				"/>
				<path class="st6" d="M3601.7,632.8h19c27.6,0,34.5,19.8,34.5,58.1c0,37-6.3,57.4-34.2,57.4h-19.2V632.8z M3524.7,803.9h109.7
					c57.4,0,101.1-26.5,101.1-110.7c0-90.3-40.5-112-97.9-112h-112.8V803.9z"/>
				<rect x="3776" y="742.6" class="st6" width="62.6" height="61.3"/>
				<path d="M2413-46.9h-139.3v289.4h-199V-217h354.5c246,1.8,305.7,253.3,144.7,374.4c30.8,21.7,47,39.8,47,79.6v48.8h928
					c65.1,0,86.8-23.5,86.8-52.5c0-30.7-28.9-54.3-25.3-99.5c9.1-86.8,170-101.3,217.1,47c43.4,141.1-43.4,240.6-151.9,271.3
					c-34.4,9-63.3,3.6-106.7,5.4H2418.4V253.3c0-27.1-12.7-48.8-47-48.8h-48.8V29h95.9C2478.1,29,2478.1-52.4,2413-46.9z"/>
				<polygon points="557.1,-218.8 748.9,-218.8 748.9,-46.9 748.9,457.8 557.1,457.8 557.1,-46.9 				"/>
				<path d="M1454.3-218.8v171.8h-273.1c-142.9-3.6-204.4,92.3-204.4,179.1c0,79.6,54.3,155.6,171.8,153.8h108.5v-85H1107V27.2
					h347.3v430.5h-316.5c-256.9,1.8-345.5-157.4-340.1-369c3.6-112.2,94.1-305.7,325.6-307.5H1454.3z"/>
				<path d="M2013.2-218.8v171.8h-242.4c-63.3,3.6-70.5,86.8,10.9,85h231.5v173.7h-247.8c-59.7-1.8-59.7,72.4-7.2,74.2h519.1v171.8
					h-591.5c-170,3.6-289.4-184.5-117.6-343.7c-130.2-133.9-72.4-332.8,114-332.8H2013.2z"/>
				<polygon points="0,-218.8 504.7,-218.8 504.7,-46.9 352.7,-46.9 352.7,457.8 153.8,457.8 153.8,-46.9 0,-46.9 				"/>
				<path d="M70.5-28.8c36.2,0,65.1,27.1,65.1,63.3c0,34.4-28.9,65.1-65.1,65.1c-34.4,0-63.3-30.7-63.3-65.1
					C7.2-1.7,36.2-28.8,70.5-28.8z"/>
				<path d="M432.3-28.8c36.2,0,65.1,27.1,65.1,63.3c0,34.4-28.9,65.1-65.1,65.1C398,99.6,369,68.8,369,34.5
					C369-1.7,398-28.8,432.3-28.8z"/>
			</g>
		</g>
	</g>
</g>
<g>
	<g>
		<g>
			<path d="M2413,171.8h-139.3v289.4h-199V1.8h354.5c246,1.8,305.7,253.3,144.7,374.4c30.8,21.7,47,39.8,47,79.6v48.8h928
				c65.1,0,86.8-23.5,86.8-52.5c0-30.7-28.9-54.3-25.3-99.5c9.1-86.8,170-101.3,217.1,47c43.4,141.1-43.4,240.6-151.9,271.3
				c-34.4,9-63.3,3.6-106.7,5.4H2418.4V472.1c0-27.1-12.7-48.8-47-48.8h-48.8V247.8h95.9C2478.1,247.8,2478.1,166.4,2413,171.8z"/>
			<polygon points="557.1,0 748.9,0 748.9,171.8 748.9,676.5 557.1,676.5 557.1,171.8 			"/>
			<path d="M1454.3,0v171.8h-273.1c-142.9-3.6-204.4,92.3-204.4,179.1c0,79.6,54.3,155.6,171.8,153.8h108.5v-85H1107V246h347.3
				v430.5h-316.5c-256.9,1.8-345.5-157.4-340.1-369C801.3,195.4,891.8,1.8,1123.3,0H1454.3z"/>
			<path d="M2013.2,0v171.8h-242.4c-63.3,3.6-70.5,86.8,10.9,85h231.5v173.7h-247.8c-59.7-1.8-59.7,72.4-7.2,74.2h519.1v171.8
				h-591.5c-170,3.6-289.4-184.5-117.6-343.7C1438.1,199,1495.9,0,1682.2,0H2013.2z"/>
			<polygon points="0,0 504.7,0 504.7,171.8 352.7,171.8 352.7,676.5 153.8,676.5 153.8,171.8 0,171.8 			"/>
			<path d="M70.5,189.9c36.2,0,65.1,27.1,65.1,63.3c0,34.4-28.9,65.1-65.1,65.1c-34.4,0-63.3-30.7-63.3-65.1
				C7.2,217.1,36.2,189.9,70.5,189.9z"/>
			<path d="M432.3,189.9c36.2,0,65.1,27.1,65.1,63.3c0,34.4-28.9,65.1-65.1,65.1c-34.4,0-63.3-30.7-63.3-65.1
				C369,217.1,398,189.9,432.3,189.9z"/>
		</g>
	</g>
	<g>
		<path d="M0,782h89.3v182.2H199v76.3H0V782z"/>
		<path d="M473.9,1034.5c-16.7,5.2-41.3,10.4-64,10.4c-77.3,0-139.3-45.2-139.3-137.4c0-86.7,64.7-130,139.3-130
			c24.7,0,39.3,3.3,63.3,8.1v68.1c-14.7-5.2-29.7-9.6-44.7-9.6c-38,0-66.7,22.6-66.7,64.8c0,44.4,26.7,67,63.7,67
			c16.3,0,32-3.7,48.3-10V1034.5z"/>
		<path d="M555.6,782h131c66.7,0,113.6,25.2,113.6,130c0,97.8-50.7,128.5-117.3,128.5H555.6V782z M644.9,976h22.3
			c32.3,0,39.7-23.7,39.7-66.7c0-44.4-8-67.4-40-67.4h-22V976z"/>
		<path d="M1216.8,782h89.3v258.5h-89.3v-92.9h-59.7v92.9h-89.3V782h89.3v89.2h59.7V782z"/>
		<path d="M1458.1,782h123l83,258.5h-93.6l-15.3-55.9h-75.3l-14.3,55.9h-89L1458.1,782z M1492.1,922.3h51.7l-25.3-84.8h-0.7
			L1492.1,922.3z"/>
		<path d="M1732.7,782h133.6l43,182.2h0.7V782h76.7v258.5h-131.3L1810,853.1h-0.7v187.4h-76.7V782z"/>
		<path d="M2077,782h131c66.7,0,113.6,25.2,113.6,130c0,97.8-50.7,128.5-117.3,128.5H2077V782z M2166.3,976h22.3
			c32.3,0,39.7-23.7,39.7-66.7c0-44.4-8-67.4-40-67.4h-22V976z"/>
		<path d="M2556.2,782h89.3v258.5h-89.3v-92.9h-59.7v92.9h-89.3V782h89.3v89.2h59.7V782z"/>
		<path d="M2734.5,782h201.6v62.2h-114.3v36.7h109.3v62.2h-109.3v35.2h116.6v62.2h-204V782z"/>
		<path d="M3024.5,782h89.3v182.2h109.6v76.3h-199V782z"/>
		<path d="M3305.4,782h131c66.7,0,113.6,25.2,113.6,130c0,97.8-50.7,128.5-117.3,128.5h-127.3V782z M3394.7,976h22.3
			c32.3,0,39.7-23.7,39.7-66.7c0-44.4-8-67.4-40-67.4h-22V976z"/>
		<path d="M3824,852.7c-20-7.8-43.7-13-69-13c-14,0-38.3,0.4-38.3,17c0,33.7,122.3,1.9,122.3,101.5c0,69.2-61.7,86.7-113.3,86.7
			c-34.3,0-62.7-3.7-96-12.2v-67c24,11.1,53.3,17,80,17c21,0,40-4.8,40-17.8c0-34.8-122.3-3.3-122.3-103.7
			c0-71.1,66.7-83.7,119.6-83.7c25,0,52.7,3.3,77,8.9V852.7z"/>
	</g>
</g>
</svg>
