<?xml version="1.0" encoding="utf-8"?>
<!-- Generator: Adobe Illustrator 25.0.0, SVG Export Plug-In . SVG Version: 6.00 Build 0)  -->
<svg version="1.1" id="Layer_1" xmlns="http://www.w3.org/2000/svg" xmlns:xlink="http://www.w3.org/1999/xlink" x="0px" y="0px"
	 viewBox="0 0 3840 438" style="enable-background:new 0 0 3840 438;" xml:space="preserve">
<style type="text/css">
	.st0{fill:#502F8E;}
	.st1{fill:#FFFFFF;}
	.st2{fill:#232F95;}
	.st3{fill:url(#SVGID_1_);}
	.st4{fill:url(#SVGID_2_);}
	.st5{fill:url(#SVGID_3_);}
	.st6{fill:url(#SVGID_4_);}
	.st7{fill:url(#SVGID_5_);}
	.st8{fill:url(#SVGID_6_);}
	.st9{fill:url(#SVGID_7_);}
	.st10{fill:url(#SVGID_8_);}
	.st11{fill:url(#SVGID_9_);}
	.st12{fill:url(#SVGID_10_);}
	.st13{fill:url(#SVGID_11_);}
	.st14{fill:url(#SVGID_12_);}
	.st15{fill:url(#SVGID_13_);}
	.st16{fill:url(#SVGID_14_);}
	.st17{fill:url(#SVGID_15_);}
	.st18{fill:url(#SVGID_16_);}
	.st19{fill:url(#SVGID_17_);}
	.st20{fill:url(#SVGID_18_);}
	.st21{fill:url(#SVGID_19_);}
	.st22{fill:url(#SVGID_20_);}
	.st23{fill:url(#SVGID_21_);}
	.st24{fill:url(#SVGID_22_);}
	.st25{fill:url(#SVGID_23_);}
	.st26{fill:url(#SVGID_24_);}
	.st27{fill:url(#SVGID_25_);}
	.st28{fill:url(#SVGID_26_);}
	.st29{fill:url(#SVGID_27_);}
	.st30{fill:url(#SVGID_28_);}
	.st31{fill:url(#SVGID_29_);}
	.st32{fill:url(#SVGID_30_);}
	.st33{fill:url(#SVGID_31_);}
	.st34{fill:url(#SVGID_32_);}
	.st35{fill:url(#SVGID_33_);}
	.st36{fill:url(#SVGID_34_);}
	.st37{fill:url(#SVGID_35_);}
	.st38{fill:url(#SVGID_36_);}
	.st39{fill:url(#SVGID_37_);}
	.st40{fill:url(#SVGID_38_);}
	.st41{fill:url(#SVGID_39_);}
	.st42{fill:url(#SVGID_40_);}
	.st43{fill:url(#SVGID_41_);}
	.st44{fill:url(#SVGID_42_);}
	.st45{fill:url(#SVGID_43_);}
	.st46{fill:url(#SVGID_44_);}
	.st47{fill:url(#SVGID_45_);}
	.st48{fill:url(#SVGID_46_);}
	.st49{fill:url(#SVGID_47_);}
	.st50{fill:url(#SVGID_48_);}
	.st51{fill:url(#SVGID_49_);}
	.st52{fill:url(#SVGID_50_);}
	.st53{fill:url(#SVGID_51_);}
	.st54{fill:url(#SVGID_52_);}
	.st55{fill:url(#SVGID_53_);}
	.st56{fill:url(#SVGID_54_);}
	.st57{fill:url(#SVGID_55_);}
	.st58{fill:url(#SVGID_56_);}
	.st59{fill:url(#SVGID_57_);}
	.st60{fill:url(#SVGID_58_);}
	.st61{fill:url(#SVGID_59_);}
	.st62{fill:url(#SVGID_60_);}
	.st63{fill:url(#SVGID_61_);}
	.st64{fill:url(#SVGID_62_);}
	.st65{fill:url(#SVGID_63_);}
	.st66{fill:url(#SVGID_64_);}
	.st67{fill:url(#SVGID_65_);}
	.st68{fill:url(#SVGID_66_);}
	.st69{fill:url(#SVGID_67_);}
	.st70{fill:url(#SVGID_68_);}
	.st71{fill:url(#SVGID_69_);}
	.st72{fill:url(#SVGID_70_);}
	.st73{fill:url(#SVGID_71_);}
	.st74{fill:url(#SVGID_72_);}
	.st75{fill:url(#SVGID_73_);}
	.st76{fill:url(#SVGID_74_);}
	.st77{fill:url(#SVGID_75_);}
</style>
<g>
	<polygon points="415.9,222.6 455.7,222.6 443.7,160.5 	"/>
	<path d="M2403.4,161.4h-107V283h71.8h35.2c28.7,0,52.1-32.1,52.1-60.8C2455.4,193.5,2432.1,161.4,2403.4,161.4z"/>
	<path d="M1329.3,129.6c-41.3,0-42.8,0-42.8,0l-10.2,59.5c0,0,9.4,0,45.7,0C1366.2,189.1,1375.7,129.6,1329.3,129.6z"/>
	<path d="M1608.1,126.7c-34.8-15.6-77.4,15-95.1,68.2c-17.7,53.3-3.9,109,30.9,124.6c34.8,15.6,77.4-15,95.1-68.2
		C1656.7,198.1,1642.9,142.3,1608.1,126.7z"/>
	<path d="M1321.3,254.4c-41.3,0-55.1,0-55.1,0l-10.2,63.8c0,0,21.8,0,58,0C1372,318.2,1373.5,254.4,1321.3,254.4z"/>
	<path d="M3306.4,59.2h-162.5v77.7L3050,59.2h-375.8l-54.1,93.7L2566,59.2h-569.9L2028,8.9c0,0-437.4-0.1-440.2-0.1
		c-48.7,0-95.1,21.8-130.9,57.8c-27.3-36.4-70.2-57.2-103.5-57.7c-10.8-0.2-763.6,0-763.6,0l-30.5,93.9L543.5,8.9H385.3l-6.7,15.2
		l-21-7.3C271.8-12.8,188.7-3.3,110.4,45.2C29.4,95.3-8.3,173.9,1.5,272.3c5.9,58.6,43.1,110.9,99.5,139.8
		c30.3,15.5,63.4,23.3,96.8,23.3c12.8,0,25.6-1.2,38.3-3.4h143.5l42.8-94.9l16.7,94.9l887.9-0.6c39.6,0,81.5-21,111.3-52.5
		c23.4,27,53.8,46.7,89.4,55c12.1,2.8,24.6,4.2,37.1,4.2c39.8,0,78-14.6,110.3-39.5l-5.3,33.4H1840l7-46.7l228,0h326.3
		c52.2,0,99.1-24.3,129.4-62.1l35.8,62.1h523.8h1.8V305l97,80.2H3840V59.2H3306.4z M825.8,380.5l-8.8-198l-85.5,198h-43.8l-36.6-179
		l-57,179H482.4l-16.8-95.7h-76l-43.1,95.7h-68.7l9.6-21.8c-0.7,0.4-1.4,0.9-2.3,1.4c-102.3,59.2-223,0.4-232.4-92.8
		c-8-80.3,22.1-139.5,84.8-178.3c46-28.5,114.7-54.1,203.1-23.4c-4.4,31.4-10.2,65.1-10.2,65.1c-46-21.2-125.7-13.9-171.7,26.3
		C102.2,206.2,114.6,260,128,284c21.2,38,70.9,42.4,100.1,30.7l5.8-32.2h-51l9.3-59.9h122L296,339.1L418.8,60.4h81.1l43.1,258.7
		l84-258.7h65l32.1,175.4l74.5-175.4h78.9l13.9,320H825.8z M1118.8,129.1h-114.7l-8.8,57h100.8l-11,68.7h-99.8l-9.1,57h114.7
		l-11,68.7H896.7l51.1-320h181.9L1118.8,129.1z M1327.1,379.8c-42.8,0-147.9,0-147.9,0l50.8-317.6h-0.7c0,0,87.8-0.6,123.3,0
		c44.2,0.7,126.9,68.2,43.5,154.4C1477.1,290,1388,379.8,1327.1,379.8z M1708.2,253.9c-20.4,88.5-96.1,146.6-168.9,129.7
		c-72.9-16.8-115.4-102.2-95-190.7c20.4-88.5,96-146.5,168.9-129.7C1686.1,80,1728.6,165.4,1708.2,253.9z M1815.9,246.7l-20.2,133.7
		H1730l23.8-151.3l-77.4-168.8h75.2l40.9,104.5l65-104.5h76.7L1815.9,246.7z M2643.8,333.8h-47.5l-80.6-139.6
		c-1.2-2.1-4.5-0.8-3.9,1.6c2.2,8.9,3.3,18.2,3.1,27.7c-0.7,61.5-52.2,110.3-113.6,110.3h-6.9h-26.3h-28.6h-43.1h-9h-33h-17.5h-23.3
		h-28l-93.1-161.2L2028.7,283h63.7v50.8h-161.9l128.9-223.2h66.1l111.3,192.8V283V110.6h12h47.6h43.1h31.8h32
		c29.9,0,57.1,11.8,77.2,31c1.8,1.7,4.5-0.5,3.3-2.6l-16.4-28.4h68.8l83.8,145.2l83.8-145.2h68.8L2643.8,333.8z M3254.9,333.8h-47.2
		l-167-138.1v138.1h-39.5h-20.1h-48.7l-93.1-161.2L2775.6,283h63.8v50.8h-161.9l128.9-223.2h66.1L2981.2,299V110.6h50.2l163.9,135.6
		V110.6h59.6V333.8z M3527.8,161.4v35.4h-65.2v-35.4h-123.4V283h123.4v-35.4h65.2v42.1c0,24.4-19.7,44.1-44.1,44.1h-165.6
		c-24.4,0-44.1-19.7-44.1-44.1v-135c0-24.4,19.7-44.1,44.1-44.1h165.6c24.4,0,44.1,19.7,44.1,44.1V161.4z M3788.5,161.4h-173.3v35.4
		h100.9v50.8h-100.9V283h173.3v50.8h-173.3h-59.7h-5.5V110.6h5.5h59.7h173.3V161.4z"/>
</g>
</svg>
