<?xml version="1.0" encoding="utf-8"?>
<!-- Generator: Adobe Illustrator 25.0.0, SVG Export Plug-In . SVG Version: 6.00 Build 0)  -->
<svg version="1.1" id="Layer_1" xmlns="http://www.w3.org/2000/svg" xmlns:xlink="http://www.w3.org/1999/xlink" x="0px" y="0px"
	 viewBox="0 0 3840 1269.9" style="enable-background:new 0 0 3840 1269.9;" xml:space="preserve">
<style type="text/css">
	.st0{fill:#232F95;}
	.st1{fill:#FFFFFF;}
	.st2{fill:#502F8E;}
	.st3{fill:url(#SVGID_1_);}
	.st4{fill:url(#SVGID_2_);}
	.st5{fill:url(#SVGID_3_);}
	.st6{fill:url(#SVGID_4_);}
	.st7{fill:url(#SVGID_5_);}
	.st8{fill:url(#SVGID_6_);}
	.st9{fill:url(#SVGID_7_);}
	.st10{fill:url(#SVGID_8_);}
	.st11{fill:url(#SVGID_9_);}
	.st12{fill:url(#SVGID_10_);}
	.st13{fill:url(#SVGID_11_);}
	.st14{fill:url(#SVGID_12_);}
	.st15{fill:url(#SVGID_13_);}
	.st16{fill:url(#SVGID_14_);}
	.st17{fill:url(#SVGID_15_);}
	.st18{fill:url(#SVGID_16_);}
	.st19{fill:url(#SVGID_17_);}
	.st20{fill:url(#SVGID_18_);}
	.st21{fill:url(#SVGID_19_);}
	.st22{fill:url(#SVGID_20_);}
	.st23{fill:url(#SVGID_21_);}
	.st24{fill:url(#SVGID_22_);}
	.st25{fill:url(#SVGID_23_);}
	.st26{fill:url(#SVGID_24_);}
	.st27{fill:url(#SVGID_25_);}
	.st28{fill:url(#SVGID_26_);}
	.st29{fill:url(#SVGID_27_);}
	.st30{fill:url(#SVGID_28_);}
	.st31{fill:url(#SVGID_29_);}
	.st32{fill:url(#SVGID_30_);}
	.st33{fill:url(#SVGID_31_);}
	.st34{fill:url(#SVGID_32_);}
	.st35{fill:url(#SVGID_33_);}
	.st36{fill:url(#SVGID_34_);}
	.st37{fill:url(#SVGID_35_);}
	.st38{fill:url(#SVGID_36_);}
	.st39{fill:url(#SVGID_37_);}
	.st40{fill:url(#SVGID_38_);}
	.st41{fill:url(#SVGID_39_);}
	.st42{fill:url(#SVGID_40_);}
	.st43{fill:url(#SVGID_41_);}
	.st44{fill:url(#SVGID_42_);}
	.st45{fill:url(#SVGID_43_);}
	.st46{fill:url(#SVGID_44_);}
	.st47{fill:url(#SVGID_45_);}
	.st48{fill:url(#SVGID_46_);}
	.st49{fill:url(#SVGID_47_);}
	.st50{fill:url(#SVGID_48_);}
	.st51{fill:url(#SVGID_49_);}
	.st52{fill:url(#SVGID_50_);}
	.st53{fill:url(#SVGID_51_);}
	.st54{fill:url(#SVGID_52_);}
	.st55{fill:url(#SVGID_53_);}
	.st56{fill:url(#SVGID_54_);}
	.st57{fill:url(#SVGID_55_);}
	.st58{fill:url(#SVGID_56_);}
	.st59{fill:url(#SVGID_57_);}
	.st60{fill:url(#SVGID_58_);}
	.st61{fill:url(#SVGID_59_);}
	.st62{fill:url(#SVGID_60_);}
	.st63{fill:url(#SVGID_61_);}
	.st64{fill:url(#SVGID_62_);}
	.st65{fill:url(#SVGID_63_);}
	.st66{fill:url(#SVGID_64_);}
	.st67{fill:url(#SVGID_65_);}
	.st68{fill:url(#SVGID_66_);}
	.st69{fill:url(#SVGID_67_);}
	.st70{fill:url(#SVGID_68_);}
	.st71{fill:url(#SVGID_69_);}
	.st72{fill:url(#SVGID_70_);}
	.st73{fill:url(#SVGID_71_);}
	.st74{fill:url(#SVGID_72_);}
	.st75{fill:url(#SVGID_73_);}
	.st76{fill:url(#SVGID_74_);}
	.st77{fill:url(#SVGID_75_);}
	.st78{fill:url(#SVGID_76_);}
	.st79{fill:url(#SVGID_77_);}
	.st80{fill:url(#SVGID_78_);}
	.st81{fill:url(#SVGID_79_);}
	.st82{fill:url(#SVGID_80_);}
	.st83{fill:url(#SVGID_81_);}
	.st84{fill:url(#SVGID_82_);}
	.st85{fill:url(#SVGID_83_);}
	.st86{fill:url(#SVGID_84_);}
	.st87{fill:url(#SVGID_85_);}
	.st88{fill:url(#SVGID_86_);}
	.st89{fill:url(#SVGID_87_);}
	.st90{fill:url(#SVGID_88_);}
	.st91{fill:url(#SVGID_89_);}
	.st92{fill:url(#SVGID_90_);}
	.st93{fill:url(#SVGID_91_);}
	.st94{fill:url(#SVGID_92_);}
	.st95{fill:url(#SVGID_93_);}
	.st96{fill:url(#SVGID_94_);}
	.st97{fill:url(#SVGID_95_);}
	.st98{fill:url(#SVGID_96_);}
	.st99{fill:url(#SVGID_97_);}
	.st100{fill:url(#SVGID_98_);}
	.st101{fill:url(#SVGID_99_);}
	.st102{fill:url(#SVGID_100_);}
	.st103{fill:url(#SVGID_101_);}
	.st104{fill:url(#SVGID_102_);}
	.st105{fill:url(#SVGID_103_);}
	.st106{fill:url(#SVGID_104_);}
	.st107{fill:url(#SVGID_105_);}
	.st108{fill:url(#SVGID_106_);}
</style>
<g>
	<g>
		<path class="st2" d="M824.4,348.8l-24.6-126.7l-56.6,126.7H824.4 M1713.4,670.7h-134.1l-17.9-403.8L1387,670.7h-89.4l-74.5-365.1
			l-116.2,365.1h-228l-34.3-195.2h-155l-87.9,195.2H461.6L749.2,18h165.4l87.9,527.5L1173.9,18h132.6l65.6,357.6l152-357.6h160.9
			L1713.4,670.7"/>
		<polyline class="st2" points="2097.9,670.7 2120.3,530.6 1886.3,530.6 1904.9,414.4 2108.3,414.4 2130.7,274.3 1925,274.3 
			1942.9,158 2176.9,158 2199.2,18 1828.2,18 1723.8,670.7 2097.9,670.7 		"/>
		<polyline class="st2" points="3840,18 3683.5,18 3550.9,231 3467.4,18 3314,18 3471.9,362.2 3423.3,670.7 3557.4,670.7 
			3598.6,398 3840,18 		"/>
		<path class="st2" d="M3043.7,546.4c70.9,31.8,157.8-30.5,193.9-139.1c36.2-108.6,8-222.3-62.9-254.1
			c-70.9-31.7-157.8,30.6-194,139.1C2944.5,400.9,2972.7,514.6,3043.7,546.4 M2840.7,288.1c41.6-180.4,195.9-298.9,344.5-264.5
			c148.6,34.3,235.4,208.5,193.7,388.9C3337.3,593,3183,711.4,3034.4,677.1C2885.7,642.7,2799,468.6,2840.7,288.1"/>
		<path class="st2" d="M175.5,76.1C47.7,155.2-13.8,275.8,2.6,439.7c19,190.2,265.3,310,473.9,189.3c18.2-10.6,11.1-8.9,17.9-15
			l41.7-265.2H287.3L268.2,471h104l-11.9,65.6c-59.6,23.9-161,14.9-204.2-62.6c-27.3-49-52.7-158.6,62.6-259.3
			c93.9-82,256.3-96.8,350.2-53.6c0,0,11.9-68.6,20.9-132.7C409.4-34.2,269.4,18,175.5,76.1"/>
		<path class="st2" d="M2403.4,21.6l-103.5,647.8c0,0,214.5,0,301.7,0c124.3,0,305.9-183.1,140.5-332.8
			c170.1-176,1.5-313.5-88.7-315c-72.5-1.2-251.4,0-251.4,0H2403.4 M2477.3,413.5c0,0,28.1,0,112.4,0
			c106.5,0,103.6,130.1-14.8,130.1c-73.9,0-118.3,0-118.3,0L2477.3,413.5 M2518.7,159.1c0,0,2.9,0,87.3,0
			c94.6,0,75.4,121.3-14.8,121.3c-73.9,0-93.2,0-93.2,0L2518.7,159.1"/>
	</g>
	<g>
		<polygon class="st2" points="2707,814.8 2585.5,814.8 2585.5,1091.3 2251.1,814.8 2148.6,814.8 2148.6,1269.9 2270.2,1269.9 
			2270.2,988.2 2610.8,1269.9 2707,1269.9 		"/>
		<path class="st2" d="M3263.5,990.6v-72.2v-13.7c0-49.7-40.3-90-90-90h-337.7c-49.7,0-90,40.3-90,90V1180c0,49.7,40.3,90,90,90
			h337.7c49.7,0,90-40.3,90-90v-85.8h-132.9v72.2h-251.7V918.4h251.7v72.2H3263.5z"/>
		<polygon class="st2" points="3795.2,918.4 3795.2,814.8 3441.8,814.8 3320.1,814.8 3308.9,814.8 3308.9,1269.9 3320.1,1269.9 
			3441.8,1269.9 3795.2,1269.9 3795.2,1166.3 3441.8,1166.3 3441.8,1094.2 3647.7,1094.2 3647.7,990.6 3441.8,990.6 3441.8,918.4 		
			"/>
		<polygon class="st2" points="1926.8,814.8 1792.1,814.8 1529.3,1269.9 1859.4,1269.9 1859.4,1166.3 1729.4,1166.3 1859.4,941.1 
			2049.3,1269.9 2189.6,1269.9 		"/>
		<path class="st2" d="M1583.1,814.8l-170.9,296l-170.9-296h-140.3l33.4,57.9c2.5,4.3-3.1,8.8-6.7,5.3
			c-40.9-39.2-96.3-63.2-157.4-63.2h-65.3H840h-87.9h-97.1h-24.4v351.6v41.6l-227-393.2H268.8L6,1269.9h330.1v-103.6h-130l130-225.2
			L526,1269.9h57.1h47.4h35.8h67.4h18.4H840h58.4h53.5h14.2c125.3,0,230.3-99.6,231.7-224.9c0.2-19.5-2-38.5-6.4-56.5
			c-1.2-4.9,5.4-7.6,8-3.2l164.4,284.7h96.9l262.8-455.2H1583.1z M970.2,1166.3h-71.8H752.1V918.4h218.2
			c58.5,0,106.2,65.4,106.2,124S1028.8,1166.3,970.2,1166.3z"/>
	</g>
</g>
</svg>
