<svg xmlns="http://www.w3.org/2000/svg" viewBox="0 0 102.2 55.7" class="m_svg_object"><title>logo_simple</title><g><path d="M18.6,31.8H17.1a6.1,6.1,0,0,1-1-12.2h1a6.2,6.2,0,0,0,5.4-6.2c0-3.2-2.4-5-5.5-5.4V.4c6.6,0,11.9,4.5,11.9,11.1a12,12,0,0,1-3.2,8.1h0a13.6,13.6,0,0,1-7.1,25.2Z" style="fill: #231815"/><path d="M18.6,45.2h-.4v-13H17.1a6.6,6.6,0,0,1-6.6-6.5,6.6,6.6,0,0,1,5.6-6.5H17a5.9,5.9,0,0,0,5.1-5.9c0-2.8-1.9-4.6-5.2-5h-.3V0H17c7,0,12.3,4.9,12.3,11.5a12.4,12.4,0,0,1-3,8,13.9,13.9,0,0,1,6.3,11.7A14,14,0,0,1,18.6,45.2ZM19,31.3V44.4a13.2,13.2,0,0,0,6.5-24.5h-.3l.2-.5a11.3,11.3,0,0,0,3.1-7.8C28.5,5.5,23.7.9,17.4.8V7.6c3.5.5,5.6,2.6,5.6,5.7a6.6,6.6,0,0,1-5.8,6.6h-.9a5.9,5.9,0,0,0-4.9,5.8,5.8,5.8,0,0,0,5.8,5.8l1.4-.2Z"/></g><g><path d="M18.4,14.4a4.7,4.7,0,0,0-4.7-4.6V1.1A10.5,10.5,0,0,0,6.4,19.2h0l.2.2A14.2,14.2,0,0,0,.4,31.3,14.5,14.5,0,0,0,14.9,45.8h.8V34.7h-.4a7.9,7.9,0,0,1-7.9-7.9,8,8,0,0,1,7.2-7.9h-.2A4.5,4.5,0,0,0,18.4,14.4Z" style="fill: #231815"/><path d="M14.9,46.2A14.9,14.9,0,0,1,0,31.3a15.3,15.3,0,0,1,5.9-12,10.7,10.7,0,0,1-3.1-7.7A10.9,10.9,0,0,1,13.7.7h.4V9.5a5,5,0,0,1,4.7,4.9,5,5,0,0,1-4.2,4.9h-.2a7.5,7.5,0,0,0,.9,15h.8V46.2H14.9ZM6.5,18.8l.7.6-.4.3a14.1,14.1,0,0,0,8.1,25.7h.4V35.1h0a8.3,8.3,0,0,1-.8-16.6A4.1,4.1,0,0,0,18,14.4a4.2,4.2,0,0,0-4.3-4.2h-.4V1.5A10.2,10.2,0,0,0,3.5,11.6,10.2,10.2,0,0,0,6.5,18.8Z"/></g><g><path d="M18.6,31.8H17.1a6.1,6.1,0,0,1-1-12.2h1a6.2,6.2,0,0,0,5.4-6.2c0-3.2-2.4-5-5.5-5.4V.4c6.6,0,11.9,4.5,11.9,11.1a12,12,0,0,1-3.2,8.1h0a13.6,13.6,0,0,1-7.1,25.2Z" style="fill: #f6ae13"/><path d="M18.6,45.2h-.4v-13H17.1a6.6,6.6,0,0,1-6.6-6.5,6.6,6.6,0,0,1,5.6-6.5H17a5.9,5.9,0,0,0,5.1-5.9c0-2.8-1.9-4.6-5.2-5h-.3V0H17c7,0,12.3,4.9,12.3,11.5a12.4,12.4,0,0,1-3,8,13.9,13.9,0,0,1,6.3,11.7A14,14,0,0,1,18.6,45.2ZM19,31.3V44.4a13.2,13.2,0,0,0,6.5-24.5h-.3l.2-.5a11.3,11.3,0,0,0,3.1-7.8C28.5,5.5,23.7.9,17.4.8V7.6c3.5.5,5.6,2.6,5.6,5.7a6.6,6.6,0,0,1-5.8,6.6h-.9a5.9,5.9,0,0,0-4.9,5.8,5.8,5.8,0,0,0,5.8,5.8l1.4-.2Z" style="fill: #231815"/></g><g><path d="M18.4,14.4a4.7,4.7,0,0,0-4.7-4.6V1.1A10.5,10.5,0,0,0,6.4,19.2h0l.2.2A14.2,14.2,0,0,0,.4,31.3,14.5,14.5,0,0,0,14.9,45.8h.8V34.7h-.4a7.9,7.9,0,0,1-7.9-7.9,8,8,0,0,1,7.2-7.9h-.2A4.5,4.5,0,0,0,18.4,14.4Z" style="fill: #f6ae13"/><path d="M14.9,46.2A14.9,14.9,0,0,1,0,31.3a15.3,15.3,0,0,1,5.9-12,10.7,10.7,0,0,1-3.1-7.7A10.9,10.9,0,0,1,13.7.7h.4V9.5a5,5,0,0,1,4.7,4.9,5,5,0,0,1-4.2,4.9h-.2a7.5,7.5,0,0,0,.9,15h.8V46.2H14.9ZM6.5,18.8l.7.6-.4.3a14.1,14.1,0,0,0,8.1,25.7h.4V35.1h0a8.3,8.3,0,0,1-.8-16.6A4.1,4.1,0,0,0,18,14.4a4.2,4.2,0,0,0-4.3-4.2h-.4V1.5A10.2,10.2,0,0,0,3.5,11.6,10.2,10.2,0,0,0,6.5,18.8Z" style="fill: #231815"/></g><rect x="35.5" y="21.4" width="12.9" height="21.72"/><path d="M62.1,31.4c2.1,0,3.8.8,3.8,2.9v8.9h11V32.4a11,11,0,0,0-11-11H51V43.2H62Z"/><path d="M102.2,21.4H89.3A10.9,10.9,0,0,0,78.4,32.3h0A10.8,10.8,0,0,0,89.3,43.1h2.5s-.1,2.7-2.2,2.7H78.9v9.9H90.4s11.8.9,11.8-11.5Z"/></svg>