<?xml version="1.0" encoding="utf-8"?>
<!-- Generator: Adobe Illustrator 25.0.0, SVG Export Plug-In . SVG Version: 6.00 Build 0)  -->
<svg version="1.1" id="Layer_1" xmlns="http://www.w3.org/2000/svg" xmlns:xlink="http://www.w3.org/1999/xlink" x="0px" y="0px"
	 viewBox="0 0 3839 1042.4" style="enable-background:new 0 0 3839 1042.4;" xml:space="preserve">
<style type="text/css">
	.st0{fill:#E5B623;}
	.st1{fill:url(#SVGID_1_);}
	.st2{fill:#DDA544;}
	.st3{fill:#D3AC6E;}
	.st4{fill:url(#SVGID_2_);}
	.st5{fill:#BB924A;}
	.st6{fill:url(#SVGID_3_);}
	.st7{fill:url(#SVGID_4_);}
	.st8{fill:url(#SVGID_5_);}
	.st9{fill:url(#SVGID_6_);}
	.st10{fill:url(#SVGID_7_);}
	.st11{fill:#806530;}
	.st12{fill:url(#SVGID_8_);}
	.st13{fill:url(#SVGID_9_);}
	.st14{fill:url(#SVGID_10_);}
	.st15{fill:url(#SVGID_11_);}
	.st16{fill:url(#SVGID_12_);}
	.st17{fill:#8B7035;}
	.st18{fill:url(#SVGID_13_);}
	.st19{fill:url(#SVGID_14_);}
	.st20{fill:url(#SVGID_15_);}
	.st21{fill:url(#SVGID_16_);}
	.st22{fill:url(#SVGID_17_);}
	.st23{fill:url(#SVGID_18_);}
	.st24{fill:url(#SVGID_19_);}
	.st25{fill:url(#SVGID_20_);}
	.st26{fill:url(#SVGID_21_);}
	.st27{fill:url(#SVGID_22_);}
	.st28{fill:url(#SVGID_23_);}
	.st29{fill:url(#SVGID_24_);}
	.st30{fill:url(#SVGID_25_);}
	.st31{fill:url(#SVGID_26_);}
	.st32{fill:url(#SVGID_27_);}
	.st33{fill:url(#SVGID_28_);}
	.st34{fill:url(#SVGID_29_);}
	.st35{fill:url(#SVGID_30_);}
	.st36{fill:url(#SVGID_31_);}
	.st37{fill:url(#SVGID_32_);}
	.st38{fill:url(#SVGID_33_);}
	.st39{fill:url(#SVGID_34_);}
	.st40{fill:url(#SVGID_35_);}
	.st41{fill:url(#SVGID_36_);}
	.st42{fill:url(#SVGID_37_);}
	.st43{fill:url(#SVGID_38_);}
	.st44{fill:url(#SVGID_39_);}
	.st45{fill:url(#SVGID_40_);}
	.st46{fill:url(#SVGID_41_);}
	.st47{fill:url(#SVGID_42_);}
	.st48{fill:url(#SVGID_43_);}
	.st49{fill:url(#SVGID_44_);}
	.st50{fill:url(#SVGID_45_);}
	.st51{fill:url(#SVGID_46_);}
	.st52{fill:url(#SVGID_47_);}
	.st53{fill:url(#SVGID_48_);}
	.st54{fill:url(#SVGID_49_);}
	.st55{fill:url(#SVGID_50_);}
	.st56{fill:url(#SVGID_51_);}
	.st57{fill:url(#SVGID_52_);}
	.st58{fill:url(#SVGID_53_);}
	.st59{fill:url(#SVGID_54_);}
	.st60{fill:url(#SVGID_55_);}
	.st61{fill:url(#SVGID_56_);}
	.st62{fill:url(#SVGID_57_);}
	.st63{fill:url(#SVGID_58_);}
	.st64{fill:url(#SVGID_59_);}
	.st65{fill:url(#SVGID_60_);}
	.st66{fill:url(#SVGID_61_);}
	.st67{fill:url(#SVGID_62_);}
	.st68{fill:url(#SVGID_63_);}
	.st69{fill:url(#SVGID_64_);}
	.st70{fill:url(#SVGID_65_);}
	.st71{fill:url(#SVGID_66_);}
	.st72{fill:url(#SVGID_67_);}
	.st73{fill:url(#SVGID_68_);}
	.st74{fill:url(#SVGID_69_);}
	.st75{fill:url(#SVGID_70_);}
	.st76{fill:url(#SVGID_71_);}
	.st77{fill:url(#SVGID_72_);}
	.st78{fill:url(#SVGID_73_);}
	.st79{fill:url(#SVGID_74_);}
	.st80{fill:url(#SVGID_75_);}
	.st81{fill:url(#SVGID_76_);}
	.st82{fill:url(#SVGID_77_);}
	.st83{fill:url(#SVGID_78_);}
	.st84{fill:url(#SVGID_79_);}
	.st85{fill:url(#SVGID_80_);}
	.st86{fill:url(#SVGID_81_);}
	.st87{fill:url(#SVGID_82_);}
	.st88{fill:url(#SVGID_83_);}
	.st89{fill:#70572B;}
	.st90{fill:#F4BC1E;}
	.st91{fill:url(#SVGID_84_);}
	.st92{fill:url(#SVGID_85_);}
	.st93{fill:url(#SVGID_86_);}
	.st94{fill:url(#SVGID_87_);}
	.st95{fill:url(#SVGID_88_);}
	.st96{fill:url(#SVGID_89_);}
	.st97{fill:#FFFFFF;}
</style>
<g>
	<g>
		<path d="M223.9,1013.6l-61,17.7c-1.2,0.3-2.4,0.7-3.7,1c-1.3,0.3-2.6,0.6-4,0.9c-1.4,0.3-2.8,0.6-4.2,0.8
			c-1.4,0.3-2.9,0.5-4.5,0.8l61.6-17.8c1.5-0.2,2.9-0.5,4.3-0.7c1.4-0.3,2.8-0.5,4.1-0.8c1.3-0.3,2.6-0.6,3.8-0.9
			S222.7,1014,223.9,1013.6z"/>
		<path d="M2676.1,928.1l-26.3-14.1c0-0.5,0.1-0.9,0.1-1.4c0-0.5,0.1-0.9,0.1-1.4c0-0.5,0.1-0.9,0.1-1.4s0.1-0.9,0.1-1.4l26.3,13.9
			c0,0.5-0.1,1-0.1,1.5s-0.1,1-0.1,1.5c0,0.5-0.1,1-0.1,1.5S2676.1,927.7,2676.1,928.1z"/>
		<path d="M2438.3,915l-18-13.7c0-0.5,0-0.9,0.1-1.4c0-0.5,0-0.9,0.1-1.4c0-0.5,0-0.9,0.1-1.4s0-0.9,0.1-1.4l18,13.5
			c0,0.5,0,1-0.1,1.5c0,0.5,0,1-0.1,1.5c0,0.5,0,1-0.1,1.5C2438.4,914.1,2438.4,914.5,2438.3,915z"/>
		<path d="M1348.2,892.6l-20.6,13.4c-1.9,1.3-4,2.4-6.1,3.4c-2.2,1-4.4,1.9-6.7,2.7c-2.3,0.8-4.8,1.4-7.3,1.8
			c-2.5,0.5-5.1,0.8-7.7,0.9l21.5-13.7c2.5-0.1,5-0.4,7.4-0.9c2.4-0.4,4.8-1,7-1.8c2.3-0.7,4.4-1.6,6.5-2.6
			C1344.3,895,1346.3,893.9,1348.2,892.6z"/>
		<path d="M2107.1,905l-6.5-13.3c0-0.5,0-0.9,0-1.4c0-0.5,0-0.9,0-1.4s0-0.9,0-1.4c0-0.5,0-0.9,0-1.4l6.5,13.1c0,0.5,0,1,0,1.5
			c0,0.5,0,1,0,1.5c0,0.5,0,1,0,1.5S2107.1,904.5,2107.1,905z"/>
		<path d="M2796.8,927.2l-30.5-14.1c1.4,0.7,2.9,1.3,4.5,1.8c1.5,0.5,3.1,1,4.7,1.5c1.6,0.4,3.3,0.8,4.9,1.1
			c1.7,0.3,3.4,0.5,5.1,0.6l31.2,14.3c-1.8-0.1-3.6-0.4-5.3-0.7c-1.7-0.3-3.5-0.7-5.1-1.1c-1.7-0.4-3.3-0.9-4.9-1.5
			C2799.9,928.5,2798.3,927.9,2796.8,927.2z"/>
		<path d="M1581.9,876l-12.1,12.8c-2.2,2.3-4.6,4.4-7.4,6.2c-2.7,1.9-5.7,3.5-8.8,4.9c-3.2,1.4-6.5,2.5-10.1,3.2
			c-3.5,0.8-7.2,1.3-11,1.4l13.4-13.3c3.7-0.1,7.2-0.6,10.6-1.3s6.6-1.8,9.7-3.1c3.1-1.3,5.9-2.9,8.5-4.7
			C1577.4,880.2,1579.8,878.2,1581.9,876z"/>
		<path d="M2624.9,913.5l-24.5-13.6c1.7,0.9,3.5,1.8,5.3,2.6c1.8,0.8,3.8,1.4,5.7,2s4,1,6.1,1.4s4.2,0.6,6.4,0.8l25.3,13.9
			c-2.2-0.1-4.5-0.4-6.6-0.8s-4.3-0.9-6.3-1.5c-2-0.6-4-1.3-5.9-2.1C2628.5,915.4,2626.6,914.5,2624.9,913.5z"/>
		<path d="M2281.2,889.2l-12.6-12.8c2.1,2.1,4.5,4.1,7.1,5.8c2.6,1.7,5.4,3.3,8.4,4.5c3,1.3,6.2,2.3,9.5,3c3.3,0.7,6.8,1.2,10.4,1.3
			l13.8,13.3c-3.7-0.1-7.3-0.6-10.8-1.3c-3.5-0.8-6.8-1.8-9.9-3.1s-6-2.9-8.7-4.7C2285.9,893.4,2283.4,891.4,2281.2,889.2z"/>
		<path d="M3589.4,547l-58-0.9c2.9-2,4.8-4.5,5.7-7.2c0.9-2.6,0.9-5.4,0-8.1c-0.9-2.6-2.7-5-5.2-6.9c-2.6-1.9-5.9-3.3-9.9-3.9
			c-13.9-1.9-27.8-3.9-41.7-5.8c-13.9-1.9-27.8-3.8-41.7-5.6c-13.9-1.8-27.8-3.7-41.8-5.4c-13.9-1.8-27.8-3.5-41.8-5.3l51.6-0.8
			c14.4,1.8,28.8,3.6,43.3,5.5s28.8,3.7,43.3,5.6c14.4,1.9,28.8,3.8,43.2,5.8c14.4,2,28.8,3.9,43.2,6c4.2,0.6,7.6,2,10.3,4
			c2.6,2,4.5,4.5,5.4,7.2s1,5.6,0,8.3S3592.4,544.9,3589.4,547z"/>
		<path d="M1323.7,420.4l20.7,3.5c-12.7,0.6-25.4,1.3-38.1,2s-25.4,1.4-38.1,2.1c-12.7,0.7-25.4,1.5-38.1,2.2
			c-12.7,0.8-25.4,1.6-38.1,2.4c-9.3,0.6-16.9,2.6-23.1,5.3c-6.2,2.7-11,6.1-14.6,9.4s-6,6.5-7.6,9s-2.2,4-2.2,4l-27.9-2.2
			c0,0,0.7-1.6,2.3-4.1c1.6-2.5,4.1-5.9,7.9-9.3c3.7-3.4,8.7-6.9,15.1-9.7s14.3-4.9,23.9-5.5c13.2-0.8,26.3-1.7,39.5-2.4
			c13.2-0.8,26.3-1.6,39.5-2.3c13.2-0.7,26.3-1.5,39.5-2.2C1297.4,421.7,1310.6,421.1,1323.7,420.4z"/>
		<path d="M2438.6,909.2l-18-13.5c0.2,0,0.4,0,0.7,0c0.2,0,0.4,0,0.7,0c0.2,0,0.4,0,0.7,0s0.4,0,0.7,0c6.2,0,12.1-1,17.6-2.8
			c5.4-1.8,10.3-4.4,14.5-7.7s7.6-7.1,10.1-11.5c2.5-4.4,3.9-9.2,4.2-14.3c1.8-36.4,3.6-72.7,5.3-109.1c1.8-36.4,3.6-72.7,5.3-109.1
			c1.8-36.4,3.6-72.7,5.3-109.1c1.8-36.4,3.6-72.7,5.3-109.1l20.6-3.5c-1.8,37.7-3.7,75.4-5.5,113c-1.8,37.7-3.7,75.4-5.5,113
			c-1.8,37.7-3.7,75.4-5.5,113c-1.8,37.7-3.7,75.4-5.5,113c-0.3,5.3-1.8,10.3-4.3,14.8c-2.5,4.5-6.1,8.5-10.4,11.9
			c-4.3,3.4-9.4,6.1-15,7.9c-5.6,1.9-11.8,2.9-18.2,2.9c-0.2,0-0.5,0-0.7,0c-0.2,0-0.5,0-0.7,0s-0.5,0-0.7,0
			S2438.8,909.2,2438.6,909.2z"/>
		<path d="M2511.5,419.5l-20.6,3.5c-18.3-0.9-36.6-1.7-54.9-2.6c-18.3-0.8-36.6-1.6-54.9-2.3c-18.3-0.7-36.6-1.4-54.9-2
			s-36.6-1.2-54.9-1.8l12.7-3.8c19,0.6,37.9,1.2,56.9,1.8c19,0.7,37.9,1.4,56.9,2.1s37.9,1.5,56.9,2.4S2492.5,418.6,2511.5,419.5z"
			/>
		<path d="M1959.2,394.5l-1.4,4.4c-18.9,5.6-37.7,11.2-56.5,16.9c-18.8,5.7-37.6,11.4-56.3,17.2c-18.8,5.8-37.5,11.6-56.2,17.5
			c-18.7,5.9-37.4,11.8-56,17.8l-6.7-1.9c19.3-6.2,38.7-12.3,58-18.4c19.4-6.1,38.8-12.1,58.2-18.1c19.4-6,38.9-11.9,58.4-17.8
			C1920.2,406.2,1939.7,400.3,1959.2,394.5z"/>
		<path d="M2998.5,997.9l-37.5-16.6c34.4-38.1,60.1-76.8,78.5-115.4c18.4-38.6,29.3-77.2,34.1-115c4.8-37.8,3.4-74.7-2.8-110.1
			s-17.5-69.3-32.4-100.9c-14.7-31.6-33.1-60.9-53.7-87.2c-20.6-26.3-43.3-49.5-66.7-69c-23.4-19.5-47.4-35.2-70.4-46.3
			c-23.1-11.2-45.3-17.8-65-19.1l31.1-7.3c20.4,1.4,43.4,8.2,67.3,19.8c23.9,11.6,48.8,27.8,73,48c24.2,20.2,47.8,44.3,69.1,71.5
			c21.3,27.2,40.4,57.6,55.6,90.3c15.5,32.7,27.1,67.8,33.6,104.5s7.9,75,2.9,114.1c-5,39.1-16.3,79.1-35.4,119.1
			C3060.8,918.4,3034.1,958.5,2998.5,997.9z"/>
		<path d="M3514.2,313.3l57.4-7.5c2-0.3,4.1-0.5,6.2-0.7c2.1-0.2,4.2-0.4,6.3-0.5s4.3-0.2,6.5-0.3s4.4-0.1,6.6-0.1
			c2.7,0,5.4,0,8.1,0.1c2.7,0.1,5.5,0.3,8.3,0.5s5.6,0.5,8.5,0.8c2.9,0.3,5.7,0.7,8.6,1.1c32.3,4.6,55.4,14.7,71.8,27.1
			s26.2,27.3,31.9,41.6s7.4,28,7.6,38.1c0.2,10.1-0.9,16.7-0.9,16.7l-63.3,3.2c0,0,1.1-6.3,0.9-16.1c-0.2-9.8-1.9-23-7.4-36.8
			c-5.5-13.8-14.9-28.1-30.8-40.2c-15.8-12-38.1-21.7-69.3-26.2c-2.8-0.4-5.6-0.7-8.3-1c-2.8-0.3-5.5-0.5-8.2-0.7s-5.4-0.3-8-0.4
			s-5.2-0.1-7.8-0.1c-2.1,0-4.3,0-6.4,0.1c-2.1,0.1-4.2,0.2-6.2,0.3c-2.1,0.1-4.1,0.3-6.1,0.5S3516.2,313,3514.2,313.3z"/>
		<path d="M3816.8,300l-65.9,7.7c2.7-0.3,5.4-1.1,7.9-2c2.5-1,4.8-2.1,6.7-3.3c2-1.2,3.6-2.3,4.8-3.1c1.2-0.9,1.9-1.5,2-1.6l66.7-8
			c-0.1,0.1-0.9,0.8-2.1,1.7c-1.2,0.9-2.9,2.1-4.9,3.3c-2,1.2-4.4,2.4-7,3.4S3819.7,299.7,3816.8,300z"/>
		<path d="M2767.4,306.9c-0.5-2.9-1.4-5.6-2.9-8.1c-1.5-2.5-3.5-4.7-6.3-6.7c-2.7-2-6.2-3.8-10.4-5.4c-2.8-1.1-5.8-2.1-8.9-3
			c-3.1-0.8-6.4-1.6-9.9-2.1c-3.5-0.6-7.1-1-10.9-1.3c-3.8-0.3-7.8-0.4-12-0.4l-27.3,8.4c4,0,7.9,0.1,11.6,0.4
			c3.7,0.3,7.2,0.7,10.6,1.2c3.4,0.5,6.5,1.2,9.6,2.1c3,0.8,5.9,1.8,8.6,2.9c4.1,1.5,7.4,3.3,10.1,5.2c2.6,1.9,4.6,4.1,6,6.5
			c1.4,2.4,2.3,5,2.8,7.8c0.5,2.8,0.5,5.9,0.3,9.1c-3.2,45.8-6.4,91.6-9.6,137.4c-3.2,45.8-6.4,91.6-9.6,137.4
			c-3.2,45.8-6.4,91.6-9.6,137.4c-3.2,45.8-6.4,91.6-9.6,137.4c-0.4,5-1.9,9.7-4.4,14c-2.5,4.2-5.9,8-10,11.2
			c-4.1,3.1-9,5.7-14.3,7.4c-5.3,1.7-11.1,2.7-17.2,2.7c-0.3,0-0.6,0-0.9,0c-0.3,0-0.6,0-1,0c-0.3,0-0.6,0-1,0s-0.6,0-1-0.1
			l26.3,13.9c0.3,0,0.7,0,1,0.1c0.3,0,0.7,0,1,0c0.3,0,0.7,0,1,0c0.3,0,0.7,0,1,0c6.3,0,12.3-1,17.8-2.8c5.5-1.8,10.5-4.4,14.8-7.7
			c4.3-3.3,7.8-7.2,10.4-11.6s4.1-9.3,4.5-14.5c3.3-47.5,6.6-94.9,9.9-142.4c3.3-47.5,6.6-94.9,9.9-142.4
			c3.3-47.5,6.6-94.9,9.9-142.4c3.3-47.5,6.6-94.9,9.9-142.4C2767.9,313,2767.9,309.8,2767.4,306.9z"/>
		<path d="M1555.3,262.9l12.6,9c-0.9-0.7-2-1.3-3.2-1.8c-1.2-0.5-2.4-1-3.8-1.4s-2.8-0.7-4.4-0.9c-1.6-0.2-3.2-0.3-5-0.3
			c-1.9,0-4,0.1-6.2,0.4c-2.2,0.3-4.5,0.7-6.9,1.3s-5,1.3-7.7,2.2c-2.7,0.9-5.5,2-8.5,3.3l-14.3-8.9c3.1-1.3,6-2.5,8.8-3.4
			c2.8-1,5.5-1.7,8-2.3c2.5-0.6,4.9-1,7.2-1.3c2.3-0.3,4.4-0.4,6.4-0.4c1.8,0,3.6,0.1,5.2,0.3c1.6,0.2,3.1,0.5,4.5,0.9
			c1.4,0.4,2.7,0.9,3.9,1.5C1553.2,261.6,1554.3,262.2,1555.3,262.9z"/>
		<path d="M2117.4,253.6l-6.9,9.3c-1.8,1.8-12.3,11.2-27,24.2c-14.7,13.1-33.6,29.8-52.2,46.3c-18.6,16.5-37.1,32.9-50.8,45.1
			c-13.7,12.2-22.7,20.3-22.6,20.4l1.4-4.4c-0.1-0.1,9.2-8.5,23.4-21.1c14.2-12.6,33.3-29.5,52.6-46.7s38.9-34.5,54.1-48
			C2104.6,265.2,2115.5,255.5,2117.4,253.6z"/>
		<path d="M3623,1025.3l-59.2-17.5c-47.7-14.1-94.8-34.2-138.2-61.6s-83.1-62-115.6-105.1c-32.6-43.1-58.1-94.7-73.3-156
			s-20-132.4-11.2-214.5c2.6-23.2,7.4-44.4,13.6-63.6c6.2-19.1,13.8-36.2,21.9-51c8.1-14.9,16.8-27.6,25.2-38.2s16.5-18.9,23.5-25
			c3.2-2.8,5.4-6.2,6.6-9.8c1.2-3.6,1.4-7.4,0.7-11.1c-0.7-3.7-2.4-7.2-4.9-10.2c-2.5-3-5.9-5.5-10.1-7.1c-1.2-0.5-2.4-0.9-3.7-1.3
			c-1.3-0.4-2.5-0.8-3.8-1.1c-1.3-0.3-2.6-0.6-4-0.8c-1.3-0.2-2.7-0.4-4.1-0.6l49.2-9.7c1.4,0.2,2.9,0.4,4.2,0.6
			c1.4,0.3,2.8,0.5,4.1,0.9c1.4,0.3,2.7,0.7,4,1.1c1.3,0.4,2.6,0.9,3.8,1.3c4.3,1.7,7.8,4.2,10.4,7.4c2.6,3.1,4.3,6.7,5.1,10.5
			s0.5,7.8-0.7,11.5c-1.2,3.7-3.5,7.3-6.9,10.2c-7.3,6.3-15.7,14.9-24.3,25.9s-17.7,24.1-26.1,39.5c-8.4,15.4-16.3,33.1-22.7,52.9
			c-6.4,19.8-11.4,41.8-14.1,65.8c-9.1,85-4.1,158.7,11.6,222.2s42.2,117,75.9,161.7c33.8,44.7,74.8,80.5,119.8,108.8
			C3524.8,989.9,3573.7,1010.7,3623,1025.3z"/>
		<path d="M3335.6,241.1l-49.2,9.7c0.1-0.5,0.1-0.9,0.2-1.4c0.1-0.5,0.1-0.9,0.2-1.4s0.1-0.9,0.2-1.4s0.1-0.9,0.2-1.4l49.2-9.9
			c-0.1,0.5-0.1,1-0.2,1.5c-0.1,0.5-0.1,1-0.2,1.5c-0.1,0.5-0.1,1-0.2,1.5C3335.7,240.2,3335.6,240.7,3335.6,241.1z"/>
		<path d="M3208.4,245.2l46.4-9.9c1.1-0.2,2.1-0.4,3.2-0.6c1.1-0.2,2.2-0.3,3.3-0.4s2.2-0.2,3.4-0.3c1.1-0.1,2.3-0.1,3.5-0.1
			c0.6,0,1.2,0,1.9,0c0.6,0,1.2,0,1.9,0.1c0.6,0,1.3,0.1,1.9,0.1c0.6,0.1,1.3,0.1,1.9,0.2l-47.1,10c-0.6-0.1-1.2-0.1-1.8-0.2
			s-1.2-0.1-1.8-0.1c-0.6,0-1.2-0.1-1.8-0.1s-1.2,0-1.8,0c-1.1,0-2.2,0-3.3,0.1s-2.2,0.1-3.3,0.3c-1.1,0.1-2.1,0.3-3.2,0.4
			C3210.5,244.8,3209.4,245,3208.4,245.2z"/>
		<path d="M3153.4,465.2l-42.9,1.9c1.7-16.2,3.3-32.4,5-48.7c1.7-16.2,3.3-32.4,5-48.7c1.7-16.2,3.3-32.4,5-48.7
			c1.7-16.2,3.3-32.5,5-48.7c0.5-5.3-0.3-10.4-2.4-15.3s-5.3-9.3-9.5-13.2c-4.2-3.9-9.3-7.3-15-9.8c-5.8-2.5-12.2-4.3-19.1-4.9
			l41.9-10.5c7.2,0.7,13.8,2.5,19.8,5.1s11.3,6.1,15.6,10.1s7.7,8.7,9.8,13.7c2.1,5,3,10.4,2.5,15.8c-1.7,16.8-3.5,33.6-5.2,50.4
			c-1.7,16.8-3.5,33.6-5.2,50.4s-3.5,33.6-5.2,50.4C3156.9,431.6,3155.2,448.4,3153.4,465.2z"/>
		<path d="M1313.4,215l21.1,10.6c-76.7,6.6-135.7,44.5-178,100.7s-67.8,130.9-77.7,211.1c-9.9,80.2-4.1,165.9,16.4,244.3
			s55.5,149.5,104.1,200.3l-25.9,16.6c-50.4-52.7-86.7-126.3-107.8-207.6c-21.2-81.2-27.2-170-16.9-253.1
			c10.2-83.1,36.7-160.4,80.5-218.7S1233.9,221.8,1313.4,215z"/>
		<path d="M3126.6,218.7l-41.9,10.5c0-0.5,0.1-0.9,0.1-1.4c0-0.5,0.1-0.9,0.1-1.4c0-0.5,0.1-0.9,0.1-1.4c0-0.5,0.1-0.9,0.1-1.4
			l41.9-10.7c-0.1,0.5-0.1,1-0.1,1.5c0,0.5-0.1,1-0.1,1.5c0,0.5-0.1,1-0.1,1.5S3126.6,218.2,3126.6,218.7z"/>
		<path d="M28.5,210.7l65.7,10.8c-1.1-0.2-2.1-0.3-3.2-0.5c-1.1-0.1-2.2-0.2-3.2-0.3s-2.2-0.2-3.3-0.2c-1.1,0-2.2-0.1-3.3-0.1
			c-1.1,0-2.2,0-3.3,0.1c-1.1,0-2.2,0.1-3.4,0.2c-1.1,0.1-2.3,0.2-3.4,0.3c-1.1,0.1-2.3,0.3-3.4,0.5L0.9,210.7
			c1.2-0.2,2.4-0.4,3.6-0.5c1.2-0.1,2.4-0.3,3.5-0.3c1.2-0.1,2.3-0.2,3.5-0.2s2.3-0.1,3.5-0.1c1.2,0,2.3,0,3.5,0.1s2.3,0.1,3.4,0.2
			c1.1,0.1,2.3,0.2,3.4,0.3C26.3,210.4,27.4,210.5,28.5,210.7z"/>
		<path d="M1017.5,198.7l31.3,11.2c-1.6-0.6-3.1-1-4.8-1.5c-1.6-0.4-3.3-0.8-5-1.1s-3.5-0.5-5.2-0.7c-1.8-0.1-3.6-0.2-5.4-0.2
			c-0.4,0-0.8,0-1.2,0s-0.8,0-1.3,0s-0.8,0-1.3,0.1s-0.8,0.1-1.3,0.1l-32.2-11.3c0.4,0,0.9-0.1,1.3-0.1c0.4,0,0.9,0,1.3-0.1
			s0.9,0,1.3,0c0.4,0,0.9,0,1.3,0c1.9,0,3.8,0.1,5.6,0.2s3.6,0.4,5.4,0.7c1.8,0.3,3.5,0.7,5.2,1.1
			C1014.3,197.6,1015.9,198.2,1017.5,198.7z"/>
		<path d="M1957.1,256.1l-1.3,9.2c0,0-0.7-1.1-2.2-2.9c-1.4-1.9-3.5-4.5-6.3-7.7c-2.8-3.2-6.2-7-10.2-11s-8.6-8.3-13.8-12.6
			c-5.2-4.3-10.9-8.5-17.1-12.6c-6.2-4-13-7.8-20.1-11c-7.2-3.2-14.8-5.9-22.9-7.8c-8.1-1.9-16.5-2.9-25.4-2.9
			c-11.9,0.1-23,1-33.5,2.8c-10.4,1.8-20.1,4.3-29.1,7.7c-9,3.4-17.2,7.6-24.8,12.7c-7.5,5.1-14.4,10.9-20.5,17.6
			c-6.1,6.7-11.6,13.9-16.4,21.6c-4.8,7.7-8.9,16-12.2,24.8c-3.3,8.8-5.8,18.1-7.5,27.8c-1.7,9.8-2.5,20.1-2.5,30.9
			c0.9,42.1,1.7,84.3,2.6,126.4s1.7,84.3,2.6,126.4c0.9,42.1,1.7,84.3,2.6,126.4c0.9,42.1,1.7,84.3,2.6,126.4
			c0.1,5.2,1.5,10.2,3.9,14.7s5.9,8.5,10.1,11.9c4.2,3.4,9.3,6.1,14.8,8c5.6,1.9,11.7,2.9,18.1,2.9l-5.2,13.1
			c-6.6,0-13.9-1.1-19.7-3c-5.8-2-11-4.8-15.4-8.3c-4.4-3.5-8-7.7-10.5-12.4c-2.5-4.7-4-9.8-4.1-15.2c-0.9-43.7-1.8-87.3-2.6-131
			c-0.9-43.7-1.8-87.3-2.6-131c-0.9-43.7-1.8-87.3-2.6-131s-1.8-87.3-2.6-131c-0.1-11.2,0.8-21.9,2.6-32c1.8-10.1,4.4-19.8,7.8-28.9
			s7.7-17.6,12.6-25.6c5-8,10.7-15.5,17-22.4c6.4-6.9,13.4-13,21.3-18.3c7.8-5.2,16.4-9.6,25.7-13.2c9.3-3.5,19.4-6.2,30.2-8
			c10.8-1.8,22.4-2.8,34.7-2.9c9.2,0,17.9,1.1,26.3,3c8.4,1.9,16.3,4.7,23.7,8s14.4,7.2,20.9,11.4c6.4,4.2,12.4,8.6,17.7,13
			c5.4,4.4,10.1,8.9,14.3,13s7.7,8,10.6,11.4s5.1,6.1,6.5,8C1956.4,255,1957.1,256.1,1957.1,256.1z"/>
		<path d="M2640.3,200.4l25.9-11.5c1.9-0.8,3.8-1.6,5.8-2.2c2-0.6,4.1-1.2,6.2-1.6c2.1-0.4,4.3-0.8,6.5-1c2.2-0.2,4.5-0.3,6.8-0.3
			c0.4,0,0.7,0,1.1,0c0.4,0,0.7,0,1.1,0c0.4,0,0.7,0,1.1,0c0.4,0,0.7,0,1.1,0.1l-27,11.7c-0.3,0-0.7,0-1-0.1c-0.3,0-0.7,0-1,0
			c-0.3,0-0.7,0-1,0s-0.7,0-1,0c-2.2,0-4.4,0.1-6.5,0.3c-2.1,0.2-4.2,0.5-6.3,1s-4,0.9-6,1.6S2642.1,199.6,2640.3,200.4z"/>
		<path d="M2514,366.9l-20.6,5.4c0.6-12.3,1.2-24.6,1.8-36.9c0.6-12.3,1.2-24.6,1.8-36.9c0.6-12.3,1.2-24.6,1.8-36.9
			s1.2-24.6,1.8-36.9c0.3-5.3-0.9-10.4-3.2-15.1s-5.8-9-10.1-12.7c-4.4-3.7-9.6-6.8-15.5-9s-12.4-3.6-19.4-3.9l19.2-12.1
			c7.2,0.3,13.9,1.7,20.1,4c6.1,2.3,11.6,5.5,16.1,9.3c4.5,3.8,8.1,8.3,10.5,13.2s3.6,10.2,3.3,15.7c-0.6,12.8-1.3,25.5-1.9,38.3
			s-1.3,25.5-1.9,38.3s-1.3,25.5-1.9,38.3S2514.7,354.2,2514,366.9z"/>
		<path d="M2706.1,279.9l-27.3,8.4c-0.5,0,6-6.7,16-16.6s23.7-23.2,37.4-36.4c13.7-13.2,27.5-26.4,37.8-36.4
			c10.4-9.9,17.4-16.5,17.5-16.5l31.2-12.2c-0.1,0-7.4,6.8-18.1,17.1s-25,24-39.2,37.7s-28.3,27.4-38.7,37.7
			C2712.3,273,2705.5,279.9,2706.1,279.9z"/>
		<path d="M1483.7,167.5l15.1,12.3c-6.9,0.3-13.5,1.6-19.4,3.7c-5.9,2.2-11.2,5.2-15.6,8.8s-7.9,7.9-10.2,12.6s-3.5,9.8-3.3,15.1
			c0.5,12.3,1,24.6,1.5,37s1,24.6,1.5,36.9c0.5,12.3,1,24.6,1.5,36.9c0.5,12.3,1,24.6,1.5,37c0.2,4.2,0.3,8.5,0.5,12.7
			c0.2,4.2,0.3,8.5,0.5,12.7c0.2,4.2,0.3,8.5,0.5,12.7c0.2,4.2,0.3,8.5,0.5,12.7c1.5,36.4,2.9,72.8,4.4,109.2
			c1.5,36.4,2.9,72.8,4.4,109.2c1.5,36.4,3,72.8,4.4,109.2s3,72.8,4.4,109.2c0.2,5.2,1.7,10,4.1,14.4c2.4,4.4,5.9,8.3,10.1,11.6
			c4.2,3.3,9.1,5.9,14.6,7.8c5.2,1.7,10.9,2.7,16.9,2.8l-11.3,13.3c-10.3,2-14.9-1-20.6-2.9c-5.7-1.9-10.8-4.6-15.1-8
			s-7.9-7.5-10.4-12c-2.5-4.6-4-9.6-4.3-14.9c-1.5-37.7-3.1-75.4-4.6-113.1c-1.5-37.7-3.1-75.4-4.6-113.1
			c-1.5-37.7-3.1-75.4-4.6-113.1c-1.5-37.7-3.1-75.4-4.6-113.1c-0.2-4.4-0.4-8.8-0.5-13.2c-0.2-4.4-0.4-8.8-0.5-13.2
			c-0.2-4.4-0.4-8.8-0.5-13.2c-0.2-4.4-0.4-8.8-0.5-13.2c-0.5-12.8-1-25.5-1.6-38.3s-1-25.5-1.5-38.3c-0.5-12.8-1-25.5-1.5-38.3
			c-0.5-12.8-1-25.5-1.6-38.3c-0.2-5.5,1-10.8,3.4-15.6s6.1-9.3,10.6-13.1c4.6-3.8,10-6.9,16.2-9.2
			C1469.8,169.1,1476.5,167.8,1483.7,167.5z"/>
		<path d="M2289,191.9l13.3-11.8c2.3-2.1,4.9-4,7.8-5.6c2.8-1.7,5.9-3.1,9.2-4.3c3.3-1.2,6.7-2.1,10.3-2.7s7.4-0.9,11.2-0.9
			c0.2,0,0.4,0,0.6,0c0.2,0,0.4,0,0.6,0s0.4,0,0.6,0c0.2,0,0.4,0,0.6,0l-14.7,12.3c-0.2,0-0.4,0-0.6,0c-0.2,0-0.4,0-0.6,0
			c-0.2,0-0.4,0-0.6,0c-0.2,0-0.4,0-0.6,0c-3.7,0-7.3,0.3-10.8,0.9c-3.5,0.6-6.8,1.5-10,2.6c-3.2,1.1-6.1,2.5-8.9,4.1
			C2293.8,188.1,2291.3,189.9,2289,191.9z"/>
		<path d="M2471.6,171.7l-19.2,12.1c0-0.5,0-0.9,0.1-1.4c0-0.5,0-0.9,0.1-1.4c0-0.5,0-0.9,0.1-1.4c0-0.5,0-0.9,0.1-1.4l19.2-12.3
			c0,0.5,0,1-0.1,1.5c0,0.5,0,1-0.1,1.5s0,1-0.1,1.5S2471.6,171.2,2471.6,171.7z"/>
		<path d="M1483.5,161.7l15.1,12.5c0,0.5,0,0.9,0,1.4c0,0.5,0,0.9,0,1.4c0,0.5,0,0.9,0,1.4c0,0.5,0,0.9,0,1.4l-15.1-12.3
			c0-0.5,0-1-0.1-1.5c0-0.5,0-1-0.1-1.5c0-0.5,0-1-0.1-1.5C1483.5,162.6,1483.5,162.2,1483.5,161.7z"/>
		<path d="M2107.2,899.2l-6.5-13.1c6.6,0,12.9-1,18.6-2.9s10.8-4.6,15.1-8c4.3-3.4,7.8-7.4,10.2-11.9s3.8-9.5,3.9-14.7
			c1.1-53,2.1-105.9,3.2-158.9c1.1-53,2.1-105.9,3.2-158.9c1.1-53,2.1-105.9,3.2-158.9s2.1-105.9,3.2-158.9c0.1-5.3-1.2-10.4-3.6-15
			c-2.4-4.6-6-8.9-10.5-12.4s-9.8-6.5-15.8-8.5s-12.5-3.2-19.5-3.3l6.9-12.5c7.2,0.1,14,1.3,20.2,3.5s11.7,5.1,16.3,8.8
			c4.6,3.7,8.3,8,10.9,12.9s3.9,10.1,3.8,15.6c-1.1,54.9-2.2,109.8-3.3,164.6s-2.2,109.8-3.3,164.6c-1.1,54.9-2.2,109.8-3.3,164.6
			c-1.1,54.9-2.2,109.7-3.3,164.6c-0.1,5.4-1.6,10.6-4.1,15.2s-6.1,8.9-10.6,12.4c-4.5,3.5-9.8,6.3-15.7,8.3
			C2120.5,898.1,2114,899.2,2107.2,899.2z"/>
		<path d="M2118.8,161l-6.9,12.5c0-0.5,0-0.9,0-1.4c0-0.5,0-0.9,0-1.4c0-0.5,0-0.9,0-1.4s0-0.9,0-1.4l6.9-12.7c0,0.5,0,1,0,1.5
			c0,0.5,0,1,0,1.5c0,0.5,0,1,0,1.5C2118.8,160,2118.8,160.5,2118.8,161z"/>
		<path d="M929.1,326.5c-1.1-13.7-3.1-27.8-6.1-42.4c-2.9-14.6-6.8-29.7-11.4-45.4c-4.7-15.7-10.2-32.1-16.4-49.4
			c-6.3-17.2-13.3-35.3-21.1-54.3l-37.6-13.9c8,19.7,15.3,38.4,21.8,56.3c6.5,17.8,12.2,34.8,17,51.1c4.8,16.3,8.8,31.9,11.8,47
			c3,15.1,5.2,29.7,6.3,43.9c3.3,43.7-1.2,94.9-13.6,149.4s-32.9,112.4-61.8,169.5c-28.9,57-66.1,113.2-112.1,164.3
			c-46,51.1-100.7,97.1-164.5,133.8c-17.6,10.1-33.6,19.3-47.7,27.4c-14.1,8.1-26.2,15-36.2,20.7c-9.9,5.7-17.7,10.1-23,13
			c-5.3,3-8,4.5-8.1,4.5l51.8-16.7c0,0,2.7-1.5,7.8-4.4s12.6-7.1,22.2-12.6c9.6-5.5,21.3-12.2,34.9-19.9c13.6-7.8,29-16.6,46-26.4
			c61.6-35.5,114.4-79.9,158.8-129.2c44.4-49.3,80.3-103.5,108.2-158.6c27.9-55,47.6-110.9,59.6-163.6
			C928,418.1,932.2,368.6,929.1,326.5z"/>
		<path d="M881,103.7l36.1,14.5c-4.3,0.4-8.4,1-12.3,2c-4,0.9-7.8,2.1-11.4,3.6s-7.1,3.1-10.3,5c-3.2,1.9-6.2,4-8.9,6.2l-37.6-13.9
			c2.8-2.4,5.9-4.5,9.3-6.5s6.9-3.7,10.6-5.2c3.8-1.5,7.7-2.7,11.8-3.7C872.3,104.7,876.6,104.1,881,103.7z"/>
		<path d="M880.4,97.8l36.1,14.7c0,0.5,0.1,0.9,0.1,1.4c0.1,0.5,0.1,0.9,0.2,1.4c0.1,0.5,0.1,0.9,0.2,1.4c0.1,0.5,0.1,0.9,0.1,1.4
			L881,103.7c-0.1-0.5-0.1-1-0.2-1.5c-0.1-0.5-0.1-1-0.2-1.5c-0.1-0.5-0.1-1-0.2-1.5C880.5,98.8,880.4,98.3,880.4,97.8z"/>
		<path d="M559.7,82.2l47.2,15.2c-5.7-1.8-11.6-3.5-17.7-4.9c-6.1-1.4-12.4-2.6-19-3.6c-6.5-1-13.3-1.7-20.2-2.2
			c-7-0.5-14.1-0.8-21.5-0.8c-3.3,0-6.6,0.1-10,0.2c-3.4,0.1-6.8,0.3-10.2,0.5s-7,0.5-10.5,0.8c-3.5,0.3-7.1,0.7-10.8,1.1
			c-48,6-84.3,18.6-111.4,35.2s-45.2,37.4-56.9,59.8c-11.7,22.3-17.1,46.2-18.9,69c-1.8,22.9-0.1,44.7,2.5,63.1
			c0.8,5.7,5.1,36.8,11.5,82.2c6.3,45.4,14.7,105.2,23.5,168.1c8.8,62.9,18,129.1,26.1,187.2s15.1,108.4,19.5,139.5
			c0.6,3.9,1.6,7.7,3,11.2c1.5,3.5,3.3,6.7,5.5,9.4s4.8,4.9,7.6,6.5c2.8,1.5,6,2.4,9.3,2.4c0.4,0,0.9,0,1.3,0c0.4,0,0.9-0.1,1.3-0.1
			c0.4-0.1,0.9-0.1,1.3-0.2c0.5-0.1,0.9-0.2,1.4-0.3l-54.2,14.4c-0.5,0.1-0.9,0.2-1.4,0.3c-0.5,0.1-0.9,0.2-1.4,0.2
			c-0.5,0.1-0.9,0.1-1.4,0.1c-0.5,0-0.9,0-1.4,0c-3.5,0-6.7-0.9-9.7-2.5c-2.9-1.6-5.6-3.9-7.9-6.7c-2.3-2.8-4.2-6.1-5.7-9.8
			c-1.5-3.6-2.6-7.6-3.1-11.7c-4.5-32.3-11.8-84.3-20.2-144.6s-18-128.8-27.1-194S262.6,440.3,256,393.3
			c-6.6-47.1-11.1-79.3-11.9-85.2c-2.7-19-4.5-41.7-2.6-65.4c1.9-23.7,7.5-48.4,19.6-71.5c12.1-23.1,30.8-44.6,59-61.9
			S385.7,79,435.5,72.8c3.8-0.4,7.5-0.8,11.1-1.2c3.7-0.3,7.3-0.6,10.9-0.8c3.6-0.2,7.1-0.4,10.6-0.5c3.5-0.1,6.9-0.2,10.3-0.2
			c7.7,0,15.1,0.3,22.3,0.8c7.2,0.5,14.2,1.3,20.9,2.3c6.8,1,13.3,2.3,19.6,3.7C547.6,78.5,553.8,80.2,559.7,82.2z"/>
		<path d="M811.6,59.9l38.5,16c7.8,3.3,15.2,6.5,21.9,9.8s13,6.4,18.6,9.5s10.6,6.1,14.9,9c4.3,2.9,8,5.7,11,8.3l-36.1-14.7
			c-3.1-2.7-6.9-5.6-11.4-8.6c-4.5-3-9.7-6.1-15.5-9.4c-5.8-3.2-12.2-6.5-19.2-9.9C827.3,66.7,819.7,63.3,811.6,59.9z"/>
		<polygon points="1510.5,905.3 1521.7,892 1521.9,897.9 1510.7,911.1 		"/>
		<polygon points="1743.3,899.2 1748.5,886.1 1748.6,891.9 1743.4,905.1 		"/>
	</g>
	<g>
		<path class="st97" d="M3396.4,555.9c2.5-20.3,5.9-39.9,10.1-58.7c57.7,7.2,115.4,14.8,173,22.9c16.7,2.3,21.9,18.6,9.8,27
			c32-18.1,64.3-40.4,94.7-65.2c-87.5-12.9-175.1-24.9-262.8-35.9c33.3-93.6,98-154.9,209.3-139.3
			c129.4,18.6,110.4,123.7,110.4,123.6c45.3-45.8,81.6-95.4,98-140.6c0,0-14.7,12.5-28.2,10.4c-125.6-19.6-251.3-37.2-377.3-52.9
			c-16.4-2-32.7-4-49.1-6c-16.1-1.9-32.1-3.8-48.2-5.7c-0.2,1.9-0.5,3.9-0.7,5.8c5.7,0.7,11.2,2,16.2,4c17.3,6.7,21.4,27.9,7.9,39.6
			c-29,25.2-76.4,87.8-87.2,184.1c-39.1,364.2,181,519.5,392.5,567.5C3437.2,960.4,3370.5,768.7,3396.4,555.9z"/>
		<path class="st97" d="M2523.8,168.3c-17.3-0.8-34.6-1.7-51.9-2.4c-0.1,2-0.2,3.9-0.3,5.9c28.7,1.3,51.1,20.2,50,42.2
			c-2.5,51-5,102-7.5,153.1c-76.2-3.7-152.3-6.7-228.6-9c1.5-51.1,3.1-102.1,4.6-153.2c0.6-22,24.4-39.1,53.1-38.1
			c0.1-2,0.1-3.9,0.2-5.9c-17.3-0.6-34.6-1.1-52-1.7c-40.2-1.2-80.4-2.2-120.5-3c-17.3-0.3-34.7-0.7-52-0.9c0,2-0.1,3.9-0.1,5.9
			c28.7,0.4,51.6,18.7,51.2,40.7c0,0,0,0,0,0c-4.4,219.5-8.8,439-13.2,658.5c0,0,0,0,0,0c-0.5,22-22.7,39.3-49.6,38.9
			c0,2-0.1,3.9-0.1,5.9c16.3,0.3,32.5,0.5,48.8,0.9c37.7,0.8,75.4,1.7,113.1,2.8c16.3,0.5,32.5,1,48.8,1.6c0.1-2,0.1-3.9,0.2-5.9
			c-26.9-0.9-48.2-19.4-47.6-41.3c4.5-150.8,9-301.7,13.5-452.5c75.9,2.3,151.7,5.3,227.6,9c-7.4,150.7-14.8,301.5-22.2,452.2
			c0,0,0,0,0,0c-1.1,22-23.8,38.7-50.7,37.5c-0.1,2-0.2,3.9-0.3,5.9c16.3,0.7,32.5,1.5,48.8,2.3c37.7,1.8,75.4,3.9,113,6.1
			c16.2,1,32.5,1.9,48.7,3c0.1-2,0.2-3.9,0.4-5.9c-26.9-1.7-47.7-20.8-46.4-42.7c12.9-219.2,25.8-438.3,38.7-657.5c0,0,0,0,0,0
			c1.3-21.9,25.5-38.4,54.2-36.6c0.1-2,0.2-3.9,0.4-5.9c-17.3-1.1-34.6-2.1-51.9-3.2C2604.1,172.4,2563.9,170.2,2523.8,168.3z"/>
		<path class="st97" d="M3276.3,228.5c-17.2-1.9-34.5-3.8-51.8-5.6c-15.2-1.6-30.4-3.2-45.6-4.8c-17.3-1.8-34.5-3.5-51.8-5.2
			c-0.2,1.9-0.4,3.9-0.6,5.8c28.6,2.8,49.9,22.9,47.7,44.8c0,0,0,0,0,0c0,0,0,0,0,0c-6.9,67.2-13.9,134.5-20.8,201.7
			c-43.3-121.2-145.8-233.6-334.8-294.9c-0.3-0.2-114.8,109.5-114.5,109.7c17.5-0.2,32,2.1,43.6,6.8c17,6.4,20.8,16.1,19.9,29.6
			c-13.3,189.8-26.5,379.7-39.8,569.5c0,0,0,0,0,0h0c-1.5,21.9-24.6,38.2-51.5,36.4c-0.1,2-0.3,3.9-0.4,5.9
			c16.2,1.1,32.5,2.2,48.7,3.3c14.3,1,28.6,2,42.9,3.1c16.2,1.2,32.5,2.4,48.7,3.7c0.2-1.9,0.3-3.9,0.5-5.8
			c-26.9-2.1-47.4-21.5-45.8-43.4c0,0,0,0,0,0c14.2-192.6,28.4-385.3,42.5-577.9c81.7,5.5,204.1,98.7,265,229.6
			c61.8,131,62.3,299.6-80.2,457.3c89.9-53.7,157.7-137.6,178.8-333.5c0,0,0,0,0,0c14.1-132.1,28.2-264.1,42.4-396.2
			c2.3-21.8,27.4-37.1,56-33.9C3275.9,232.4,3276.1,230.4,3276.3,228.5z"/>
		<path class="st97" d="M1878.2,143c-55.4,0.2-121.2,15.9-181.7,36c-103.6,34.3-191.7,81.4-191.7,81.4c1.1,1.8,2.1,3.6,3.2,5.3
			c37.1-16.1,54.1-3.1,54.5,9.8c5.9,195.8,11.8,391.7,17.7,587.5c0,0,0,0,0,0c0.6,22-20.7,40.4-47.6,41.3c0.1,2,0.1,3.9,0.2,5.9
			c16.3-0.6,32.5-1.1,48.8-1.6c37.7-1.1,75.4-2.1,113.1-2.8c16.3-0.3,32.5-0.6,48.8-0.9c0-2-0.1-3.9-0.1-5.9c0,0,0,0,0,0
			c-26.9,0.4-49.1-16.9-49.6-38.9c0,0,0,0,0,0c-3.5-174.6-7.1-349.2-10.6-523.8c-0.2-44.8,14.6-81.2,40-109
			c25.4-27.7,62.5-41.9,110.9-42.3c73.7-0.5,123.1,70.9,123,70.9c-27.6,39.7-54.9,79.5-82,119.3c-50.1,30-99.7,60.4-149.1,91
			c77.2-24.7,155-48.7,233.1-71.9c-0.5-0.3,150.5-133.5,158.1-140.9C2117.6,253.8,2036.8,142.5,1878.2,143z"/>
		<path class="st97" d="M1311.1,169.1c-106.8,5.4-213.6,12.2-320.4,20.4c0.1,1.9,0.3,3.9,0.4,5.9c16.4-1.3,31.4,3.5,41.6,11.8
			c10.4,8.6,10.8,23.8,1.4,33.5c-84.9,83.8-236.6,578.3,139.2,758c-201.5-210.8-178-756.4,140-783.7c2.5,49.1,4.9,98.1,7.4,147.2
			c0.1,1.9,0.2,3.8,0.3,5.7c-57.2,2.9-114.3,6.2-171.4,9.9l0,0c-13.6,24.8-24.5,51.9-32.9,80.4c0,0,10.6-26.2,49.1-28.7
			c52.6-3.4,105.2-6.4,157.9-9c7.6,150.7,15.2,301.4,22.8,452.2c0,0,0,0,0,0c1.1,22-19.9,40.8-46.8,42.3c0.1,2,0.2,3.9,0.3,5.9
			c16.2-0.9,32.5-1.7,48.7-2.6c37.7-1.9,75.4-3.6,113.1-5.1c16.3-0.7,32.5-1.3,48.8-1.9c-0.1-2-0.1-3.9-0.2-5.9
			c-26.9,1-49.5-15.9-50.4-37.9l0,0c-6.1-150.8-12.2-301.6-18.3-452.4c-0.7-17.5-1.4-35.1-2.1-52.6c-2.1-51-4.1-102.1-6.2-153.1
			c0,0,0,0,0,0c-0.9-21.9,21.6-40.7,50.3-41.8c-0.1-2-0.1-3.9-0.2-5.9c-41.7,1.5-83.4,3.2-125.2,5.2
			C1342.6,167.6,1326.8,168.3,1311.1,169.1z"/>
		<path class="st97" d="M880.4,97.8C834.8,57.5,627.9-19.6,427.8,4.6C224.3,28.5,35.3,153.9,0,204.9c0.3,1.9,0.6,3.9,0.9,5.8
			c0,0,0,0,0,0c37.3-5.9,71.1,12.4,75.5,40.6c37.6,246.1,75.2,492.3,112.7,738.4c4.3,28.4-7.8,39.6-42.7,45.1c0.4,2.5,0.8,5,1.2,7.6
			c92.9-14.6,185.8-28,278.9-40.3c0,0,44.4-25,114.8-65.6c255.2-147,365-442.3,352-617c-4.5-57-24.9-119.6-56.9-198.4
			c11.3-9.4,26.9-15.9,44.5-17.4C880.8,101.7,880.6,99.8,880.4,97.8z M726.6,392.5c-2.4,158.6-105.2,387.8-359.7,540.2
			c-20.1,12-36.3-5.7-39.3-26.7c-18-129.1-83.4-597.9-83.4-597.9c-10.7-76-7.7-210.5,191.4-235.3
			C692.5,42.7,728.3,281.1,726.6,392.5z"/>
	</g>
</g>
</svg>
