<?xml version="1.0" encoding="utf-8"?>
<!-- Generator: Adobe Illustrator 26.5.0, SVG Export Plug-In . SVG Version: 6.00 Build 0)  -->
<svg version="1.1" id="Layer_1" xmlns="http://www.w3.org/2000/svg" xmlns:xlink="http://www.w3.org/1999/xlink" x="0px" y="0px"
	 viewBox="0 0 3850.2 2159" style="enable-background:new 0 0 3850.2 2159;" xml:space="preserve">
<style type="text/css">
	.st0{fill:#F6AE13;}
	.st1{fill:#FFFFFF;}
</style>
<g>
	<g>
		<path class="st1" d="M239,1945h139.3v40.8h-91.8v26.2h83.1v37.8h-83.1v27.5h93v40.8H239V1945z"/>
		<path class="st1" d="M421,1945h48.2v173.2H421V1945z"/>
		<path class="st1" d="M511.1,2032.1v-0.5c0-50.5,39.6-90,93.3-90c30.4,0,51.9,9.4,70.3,25.2l-28.2,33.9
			c-12.4-10.4-24.7-16.3-41.8-16.3c-25,0-44.3,21-44.3,47.5v0.5c0,28,19.5,48,47,48c11.6,0,20.5-2.5,27.7-7.2v-21h-34.1V2017h79.7
			v77.9c-18.3,15.1-43.8,26.7-75.2,26.7C551.4,2121.6,511.1,2084.5,511.1,2032.1z"/>
		<path class="st1" d="M723.3,1945h48v64.8h61.6V1945h48v173.2h-48v-65.8h-61.6v65.8h-48V1945z"/>
		<path class="st1" d="M969.9,1987.1H918V1945h151.9v42.1h-51.9v131.1h-48V1987.1z"/>
		<path class="st1" d="M1107.9,1945h48.2v173.2h-48.2V1945z"/>
		<path class="st1" d="M1203.9,1945h44.8l71.2,91.5V1945h47.5v173.2h-42.1l-74-95v95h-47.5V1945z"/>
		<path class="st1" d="M1408.2,2032.1v-0.5c0-50.5,39.6-90,93.3-90c30.4,0,51.9,9.4,70.3,25.2l-28.2,33.9
			c-12.4-10.4-24.7-16.3-41.8-16.3c-25,0-44.3,21-44.3,47.5v0.5c0,28,19.5,48,47,48c11.6,0,20.5-2.5,27.7-7.2v-21H1498V2017h79.7
			v77.9c-18.3,15.1-43.8,26.7-75.2,26.7C1448.6,2121.6,1408.2,2084.5,1408.2,2032.1z"/>
		<path class="st1" d="M1699.1,2032.1v-0.5c0-50.5,38.8-90,91.3-90c35.4,0,58.1,14.8,73.5,36.1l-36.1,28
			c-9.9-12.4-21.3-20.3-37.8-20.3c-24.2,0-41.3,20.5-41.3,45.8v0.5c0,26,17.1,46.3,41.3,46.3c18.1,0,28.7-8.4,39.1-21l36.1,25.7
			c-16.3,22.5-38.3,39.1-76.7,39.1C1739,2121.6,1699.1,2083.8,1699.1,2032.1z"/>
		<path class="st1" d="M1890.8,2032.1v-0.5c0-49.7,40.1-90,93.5-90s93,39.8,93,89.5v0.5c0,49.7-40.1,90-93.5,90
			C1930.4,2121.6,1890.8,2081.8,1890.8,2032.1z M2028.4,2032.1v-0.5c0-25-18.1-46.8-44.5-46.8c-26.2,0-43.8,21.3-43.8,46.3v0.5
			c0,25,18.1,46.8,44.3,46.8C2010.8,2078.4,2028.4,2057.1,2028.4,2032.1z"/>
		<path class="st1" d="M2106.3,2069.9h49v48.2h-49V2069.9z"/>
		<path class="st1" d="M2186.9,2140.9c16.6-2,25.2-9.9,24.7-23.3h-19v-48.2h49v39.3c0,36.6-20,49.2-51,50.2L2186.9,2140.9z"/>
		<path class="st1" d="M2283.7,1945h48v131.1h83.9v42.1h-131.8V1945z"/>
		<path class="st1" d="M2469.6,1987.1h-51.9V1945h151.9v42.1h-51.9v131.1h-48V1987.1z"/>
		<path class="st1" d="M2606.7,1945h66.8c61.8,0,97.7,35.6,97.7,85.6v0.5c0,50-36.4,87.1-98.7,87.1h-65.8V1945z M2674.2,2075.6
			c28.7,0,47.7-15.8,47.7-43.8v-0.5c0-27.7-19-43.8-47.7-43.8h-19.5v88.1H2674.2z"/>
		<path class="st1" d="M2799.9,2069.9h49v48.2h-49V2069.9z"/>
	</g>
	<g>
		<g>
			<rect x="1312.3" y="815" class="st1" width="490.1" height="824.4"/>
			<path class="st1" d="M2322.9,1195c79.8,0,144.4,30.4,144.4,110.2v334.3h417.9V1233c2.1-228.7-181.6-415.8-410.3-417.9
				c-1.3,0-2.5,0-3.8,0h-569.9v824.4h421.7V1195z"/>
			<path class="st1" d="M3850.2,815h-493.9c-228.7,0-414.1,185.4-414.1,414.1l0,0l0,0c0,226.6,183.7,410.3,410.3,410.3
				c1.3,0,2.5,0,3.8,0h95c0,0-3.8,102.6-83.6,102.6h-406.5v376.1h440.7c0,0,444.5,34.2,444.5-436.9L3850.2,815z"/>
		</g>
		<g>
			<path d="M565,1741.1c-147.1,0-285.4-57.3-389.4-161.3c-104-104-161.3-242.3-161.3-389.4c0-182.3,88.7-350.5,238.3-453.6
				c-81.7-75.6-128.1-181.4-128.1-293.2c0-219.6,178.1-398.4,397.5-399.5V14.3H629c238.3,0,432.2,193.9,432.2,432.2
				c0,112.5-42.3,217.7-119.6,298.5c71.5,43.7,131.7,104.5,174.7,176.6c47.7,79.8,72.9,171.3,72.9,264.7
				c0,138.1-53.8,267.9-151.4,365.5c-97.6,97.6-227.5,151.4-365.6,151.4H667v38H565z"/>
			<g>
				<path class="st1" d="M629,28.6c230.8,0,417.9,187.1,417.9,417.9c0,118.5-49.3,225.4-128.5,301.4
					c153.1,86.2,256.5,250.2,256.5,438.3c0,277.6-225.1,502.7-502.7,502.7h-19.5v38H565c-296.3,0-536.5-240.2-536.5-536.5
					c0-189.8,98.6-356.6,247.4-452C192,667.8,138.7,561.9,138.7,443.7c0-212.7,172.5-385.2,385.2-385.2h12.3V28.6H629 M629,0h-92.8
					h-28.6v28.6v1.6c-50.1,1.9-98.7,12.7-144.8,32.2c-49.3,20.8-93.5,50.7-131.5,88.7c-38,38-67.8,82.2-88.7,131.5
					c-21.6,51-32.5,105.2-32.5,161.1c0,109.9,43.4,214.2,120.2,291.5C165.4,783,110.9,844.6,71.5,915C24.7,998.7,0,1093.9,0,1190.4
					c0,76.3,14.9,150.3,44.4,220c28.5,67.3,69.2,127.7,121.1,179.6c51.9,51.9,112.3,92.6,179.6,121.1c69.7,29.5,143.7,44.4,220,44.4
					h87.6h28.6v-28.6v-9.5c68.5-1.1,135-15.1,197.7-41.7c63.3-26.8,120.1-65.1,168.9-113.8c48.8-48.8,87.1-105.6,113.8-168.9
					c27.7-65.5,41.8-135.1,41.8-206.8c0-96-25.9-190.1-74.9-272.1c-41.3-69.1-97.9-128-164.9-172.1c31-35,56.1-74.4,74.9-117.5
					c24.5-56.3,36.9-116.2,36.9-178c0-60.3-11.8-118.7-35.1-173.8c-22.5-53.2-54.7-100.9-95.7-141.9c-41-41-88.7-73.2-141.9-95.7
					C747.7,11.8,689.3,0,629,0L629,0z"/>
			</g>
		</g>
		<path class="st1" d="M614.2,756.2c122.2,0,221.4-118.4,221.4-240.7c0-117.3-91.2-213.2-206.5-220.8V8.1H507.6v381.4v0.8
			c5.2-0.5,10.6-0.8,16-0.8h0c87.1,0,157.7,70.6,157.7,157.7c0,67.3-42.2,124.7-101.6,147.4c-12.3,4.7-25.2,7.2-38.3,8.3
			c-5.9,0.5-11.8,1.2-17.7,2c-0.1,0-0.1,0-0.2,0c-0.1,0-0.2,0-0.3,0.1C369.8,727,251.9,859,251.9,1018.6
			c0,172,137.1,312,307.9,316.8v407.8h121.4v-554.6c-22.2,7-45.8,10.7-70.4,10.3c-119.3-1.8-216.5-99.3-218-218.6
			C391.3,856.8,491,756.2,614.2,756.2z"/>
	</g>
</g>
</svg>
