<?xml version="1.0" encoding="utf-8"?>
<!-- Generator: Adobe Illustrator 26.0.3, SVG Export Plug-In . SVG Version: 6.00 Build 0)  -->
<svg version="1.1" id="Layer_1" xmlns="http://www.w3.org/2000/svg" xmlns:xlink="http://www.w3.org/1999/xlink" x="0px" y="0px"
	 viewBox="0 0 2029.7 2159" style="enable-background:new 0 0 2029.7 2159;" xml:space="preserve">
<style type="text/css">
	.st0{fill:#FFFFFF;}
	.st1{fill:#FF8C1A;}
	.st2{fill:#FF0000;}
	.st3{fill:none;stroke:#000000;stroke-width:5.3016;}
	.st4{fill:#797979;}
	.st5{fill:none;stroke:#000000;stroke-width:6.7225;}
	.st6{fill:none;stroke:#000000;stroke-width:6.7272;}
	.st7{fill:none;stroke:#000000;stroke-width:5.4239;}
</style>
<g>
	<rect y="0" class="st0" width="2029.7" height="2159"/>
	<path d="M692.5,1115.7c26.4-81.7,63.1-225.8,132.6-328.2c29-42.8,71.9-73.8,107.7-93.5c20.8-11.5,40.8-15,62.1-20
		c18.7-4.4,40.7-8.8,57.2-10c10.3-0.7,20.8-2.2,31.9-3.3c12.1-1.1,22-2.2,33-4.4c9.9-1.1,33.9-4.9,41.8-6.6
		c20.9-4.4,40.7-12.1,53.9-16.6c11.9-4,25.3-11.1,37.4-15.5c2.4-0.9,15.1-9,18.7-11c49.9-29.3,94.6-79.5,115.1-117.8
		c32.7-61.4,59.2-123.5,81.8-189.1c9.9-28.7,16.5-46.4,31.9-90.5h-483.8c-26.4,85-48.4,149.1-81.4,235.2
		c-31,80.9-87.5,146.4-166,182.2c-87.7,40-182.1,33.5-272.7,64.1c-177.1,59.6-233.1,260.5-283.7,425.1H692.5"/>
	<path d="M1015.5,1558.8c26.4-81.7,63.1-225.7,132.6-328.2c29.1-42.9,72-73.8,107.7-93.5c20.8-11.5,40.8-15,62.1-20.1
		c18.7-4.4,40.7-8.9,57.2-9.9c10.3-0.7,20.8-2.2,31.9-3.3c12.1-1.1,22-2.2,33-4.4c9.9-1.1,34-4.9,41.8-6.6
		c20.9-4.4,40.6-12.1,53.9-16.6c11.9-4,25.3-11.1,37.4-15.5c2.4-0.9,15.1-9,18.7-11c50-29.3,94.6-79.5,115.1-117.9
		c32.8-61.4,59.2-123.5,81.8-189.1c10-28.7,16.5-46.4,31.9-90.6h-483.8c-26.4,85-48.4,149.1-81.4,235.2
		c-31,80.9-87.5,146.3-166,182.2c-87.7,40-182.2,33.6-272.7,64c-177.1,59.6-233.1,260.6-283.7,425.1H1015.5"/>
	<g>
		<polygon points="494.4,1689.4 409,1689.4 326.4,1803.7 325.7,1803.7 325.7,1689.4 253.5,1689.4 253.5,1949.7 325.7,1949.7 
			325.7,1811.3 326.4,1811.3 412.2,1949.7 501.6,1949.7 404.6,1804.1 		"/>
		<path d="M620.7,1684c-86.2,0-134.9,49.8-134.9,135.6c0,85.8,48.7,135.6,134.9,135.6c86.2,0,134.9-49.8,134.9-135.6
			C755.5,1733.7,706.9,1684,620.7,1684z M620.7,1904.7c-49,0-59.1-45.4-59.1-84c0-40.8,10.1-86.2,59.1-86.2
			c49,0,59.1,45.4,59.1,86.2C679.8,1859.2,669.7,1904.7,620.7,1904.7z"/>
		<polygon points="965,1882.7 964.3,1883.4 877,1689.4 776,1689.4 776,1949.7 840.9,1949.7 840.9,1750.3 841.7,1750.3 930,1949.7 
			1029.9,1949.7 1029.9,1689.4 965,1689.4 		"/>
		<path d="M1150,1689.4l-102.8,260.3h72.1l17-50.8H1242l17.3,50.8h81.5L1238,1689.4H1150z M1154.7,1848.4l35.3-108.2h1.1l33.2,108.2
			H1154.7z"/>
		<polygon points="1514.6,1865.7 1513.9,1865.7 1471.4,1689.4 1357.1,1689.4 1357.1,1949.7 1420.2,1949.7 1420.2,1730.1 
			1420.9,1729.4 1478.2,1949.7 1543.1,1949.7 1604.1,1731.2 1604.8,1731.9 1604.8,1949.7 1667.9,1949.7 1667.9,1689.4 
			1555.8,1689.4 		"/>
		<rect x="1704.7" y="1689.4" width="72.1" height="260.3"/>
	</g>
</g>
</svg>
