<?xml version="1.0" encoding="utf-8"?>
<!-- Generator: Adobe Illustrator 26.0.3, SVG Export Plug-In . SVG Version: 6.00 Build 0)  -->
<svg version="1.1" id="Layer_1" xmlns="http://www.w3.org/2000/svg" xmlns:xlink="http://www.w3.org/1999/xlink" x="0px" y="0px"
	 viewBox="0 0 3839 1021.1" style="enable-background:new 0 0 3839 1021.1;" xml:space="preserve">
<style type="text/css">
	.st0{fill:#A21F2C;}
	.st1{fill:#FFFFFF;}
</style>
<g>
	<g>
		<path class="st1" d="M0,0.1v491h170.4V142.8h280.4v348.3h170.4V147c0-81.1-65.8-147-147-147H0V0.1z"/>
		<path class="st1" d="M699.2,0.1v122.2h484.7v52H846.2c-81.1,0-147,65.8-147,147v22.9c0,81.1,65.8,147,147,147h508.1V147
			c0-81.1-65.8-147-147-147H699.2V0.1z M869.7,368.9v-72.6h314.3v72.6H869.7z"/>
		<g>
			<path class="st1" d="M1449.5,0.1v491h170.4V142.8h193.3v348.3h170.4V142.8H2177v348.3h170.4V147c0-81.1-65.8-147-147-147h-751
				V0.1z"/>
			<path class="st1" d="M2432.8,147v197c0,81.1,65.8,147,147,147H3047V348.3h-443.6V142.8H3047V0.1h-467.1
				C2498.7,0.1,2432.8,65.9,2432.8,147z"/>
			<path class="st1" d="M3132.6,147v197c0,81.1,65.8,147,147,147H3692c81.1,0,147-65.8,147-147V147c0-81.1-65.8-147-147-147h-412.3
				C3198.5,0.1,3132.6,65.9,3132.6,147z M3303,368.9V122.3h365.6V369H3303V368.9z"/>
		</g>
	</g>
	<g>
		<g>
			<path class="st1" d="M887,1021.1c-93.7,0-162.8-73.7-162.8-167.5c0-92.8,68.7-168.4,164.3-168.4c58.9,0,94.1,20.8,126.6,51.5
				L990,763.7c-27.3-26-57.9-44.5-102.1-44.5c-71.9,0-125.7,57.9-125.7,133.6S816.5,987.3,888,987.3c44.5,0,73.7-17.1,104.9-46.8
				l24.1,23.7C983.1,998.4,946,1021.1,887,1021.1z"/>
			<path class="st1" d="M1094.9,690.8h36.6v290.9h182.8v33.8h-219.4V690.8z"/>
			<path class="st1" d="M1698.6,1015.6h-39.4l-38-85.8h-176.7l-38.5,85.8h-37.6l148-327.1h34.3L1698.6,1015.6z M1532.9,731.2
				l-74.2,165.6h148L1532.9,731.2z"/>
			<path class="st1" d="M1886.5,835.5c72.4,15.8,105.8,42.2,105.8,92.3c0,56.2-46.4,92.3-110.8,92.3c-51.5,0-93.7-17.2-132.7-52
				l22.7-26.9c33.8,30.6,66.3,45.9,111.4,45.9c43.6,0,72.4-22.7,72.4-55.7c0-30.6-16.3-47.7-84.4-62.2c-74.7-16.3-109-40.3-109-94.1
				c0-52,45-89.1,106.7-89.1c47.3,0,81.1,13.4,114.1,39.9l-21.3,28.3c-30.1-24.5-60.3-35.3-93.7-35.3c-42.2,0-69.1,23.2-69.1,52.9
				C1798.3,803,1815,820.3,1886.5,835.5z"/>
			<path class="st1" d="M2192.7,835.5c72.4,15.8,105.8,42.2,105.8,92.3c0,56.2-46.4,92.3-110.8,92.3c-51.5,0-93.7-17.2-132.7-52
				l22.7-26.9c33.8,30.6,66.3,45.9,111.4,45.9c43.6,0,72.4-22.7,72.4-55.7c0-30.6-16.3-47.7-84.4-62.2c-74.7-16.3-109-40.3-109-94.1
				c0-52,45-89.1,106.7-89.1c47.3,0,81.1,13.4,114.1,39.9l-21.3,28.3c-30.1-24.5-60.3-35.3-93.7-35.3c-42.2,0-69.1,23.2-69.1,52.9
				C2104.6,803,2121.3,820.3,2192.7,835.5z"/>
			<path class="st1" d="M2427.1,690.8v324.8h-36.6V690.8H2427.1z"/>
			<path class="st1" d="M2684.6,1021.1c-93.7,0-162.8-73.7-162.8-167.5c0-92.8,68.7-168.4,164.3-168.4c58.9,0,94.1,20.8,126.6,51.5
				l-25.1,26.9c-27.3-26-57.9-44.5-102.1-44.5c-71.9,0-125.7,57.9-125.7,133.6s54.2,134.6,125.7,134.6c44.5,0,73.7-17.1,104.9-46.8
				l24.1,23.7C2780.7,998.4,2743.6,1021.1,2684.6,1021.1z"/>
			<path class="st1" d="M3009,835.5c72.4,15.8,105.8,42.2,105.8,92.3c0,56.2-46.4,92.3-110.8,92.3c-51.5,0-93.7-17.2-132.7-52
				l22.7-26.9c33.8,30.6,66.3,45.9,111.4,45.9c43.6,0,72.4-22.7,72.4-55.7c0-30.6-16.3-47.7-84.4-62.2c-74.7-16.3-109-40.3-109-94.1
				c0-52,45-89.1,106.7-89.1c47.3,0,81.1,13.4,114.1,39.9l-21.3,28.3c-30.1-24.5-60.3-35.3-93.7-35.3c-42.2,0-69.1,23.2-69.1,52.9
				C2920.8,803,2937.5,820.3,3009,835.5z"/>
		</g>
	</g>
</g>
</svg>
