<?xml version="1.0" encoding="utf-8"?>
<!-- Generator: Adobe Illustrator 25.2.3, SVG Export Plug-In . SVG Version: 6.00 Build 0)  -->
<svg version="1.1" id="Layer_1" xmlns="http://www.w3.org/2000/svg" xmlns:xlink="http://www.w3.org/1999/xlink" x="0px" y="0px"
	 viewBox="0 0 3839 1306.18" style="enable-background:new 0 0 3839 1306.18;" xml:space="preserve">
<style type="text/css">
	.st0{fill:url(#SVGID_1_);}
	.st1{fill:#FFFFFF;}
	.st2{fill:none;stroke:#FFFFFF;stroke-width:60.539;stroke-linecap:round;stroke-miterlimit:10;}
	.st3{fill:none;stroke:#FFFFFF;stroke-width:56.7553;stroke-miterlimit:10;}
	.st4{fill:url(#SVGID_2_);}
</style>
<path d="M3185.91,28.38c-29.43,0-58.38,2.08-86.73,6.02L323.39,327.65C157.81,343.74,28.38,483.28,28.38,653.09
	c0,169.8,129.43,309.35,295.01,325.44l2775.8,293.25c28.35,3.94,57.29,6.02,86.73,6.02c345.02,0,624.71-279.69,624.71-624.71
	C3810.62,308.07,3530.93,28.38,3185.91,28.38z"/>
<g>
	<path class="st1" d="M3185.91,1306.18c-29.95,0-60.28-2.1-90.16-6.23l-2775.34-293.2c-87.21-8.48-168.12-49.03-227.57-114.17
		C32.97,827,0,741.95,0,653.09c0-88.86,32.97-173.91,92.83-239.5c59.46-65.14,140.36-105.69,227.81-114.19L3095.74,6.23
		c29.9-4.13,60.24-6.23,90.17-6.23C3546.02,0,3839,292.97,3839,653.09S3546.02,1306.18,3185.91,1306.18z M3185.91,56.76
		c-27.48,0-55.35,1.94-82.82,5.75l-0.92,0.11L326.37,355.87c-73.68,7.16-141.65,41.24-191.62,95.99
		c-50.29,55.1-77.99,126.57-77.99,201.23c0,74.67,27.7,146.13,77.99,201.23c49.97,54.75,117.94,88.83,191.38,95.97l2776.49,293.32
		l0.46,0.06c27.46,3.82,55.32,5.75,82.82,5.75c328.82,0,596.33-267.51,596.33-596.33S3514.73,56.76,3185.91,56.76z"/>
</g>
<g>
	<path class="st1" d="M830.69,426.84h147.03c73.2,0,121.35,14.77,154.1,47.51c23.76,23.76,35.31,54.58,35.31,91.82
		c0,111.72-90.53,181.06-223.44,181.06h-73.84l-34.67,129.06h-125.2L830.69,426.84z M942.41,650.28c61.64,0,96.95-27.61,96.95-69.98
		c0-12.2-4.49-23.12-12.84-31.46c-12.2-12.2-30.18-17.34-53.29-17.34H927l-31.46,118.78H942.41z"/>
	<path class="st1" d="M1265.37,426.84h124.56l-120.71,449.45h-124.56L1265.37,426.84z"/>
	<path class="st1" d="M1470.83,426.84h116.22l116.21,249.76l67.42-249.76h123.92l-120.71,449.45h-109.15l-121.35-258.75
		l-69.34,258.75h-123.92L1470.83,426.84z"/>
	<path class="st1" d="M1972.28,426.84h186.84c122.64,0,162.44,50.73,162.44,107.86c0,57.15-37.88,99.52-100.81,114.93
		c39.81,14.13,68.06,43.66,68.06,89.89c0,77.69-64.85,136.76-204.18,136.76h-233.07L1972.28,426.84z M2094.27,776.13
		c43.02,0,69.34-19.26,69.34-47.51c0-23.12-18.62-35.31-55.22-35.31h-86.04l-22.47,82.82H2094.27z M2130.22,605.98
		c44.3,0,68.06-17.33,68.06-45.58c0-20.55-16.05-33.39-53.93-33.39h-77.69l-20.55,78.97H2130.22z"/>
	<path class="st1" d="M2582.88,423.63h121.99l69.99,452.66h-130.98l-10.92-80.26H2459.6l-53.93,80.26h-135.48L2582.88,423.63z
		 M2622.69,699.08l-16.05-129.05l-84.11,129.05H2622.69z"/>
	<path class="st1" d="M2928.31,426.84h125.2l-91.17,340.3h214.45l-29.53,109.15H2807.6L2928.31,426.84z"/>
	<path class="st1" d="M3324.46,426.84h125.2l-91.17,340.3h214.45l-29.53,109.15h-339.65L3324.46,426.84z"/>
</g>
<path class="st1" d="M555.76,527.58c68.37,103.44,39.93,242.73-63.51,311.1c-103.44,68.37-242.73,39.93-311.09-63.52
	c-68.37-103.44-39.93-242.73,63.51-311.1C348.11,395.7,487.39,424.13,555.76,527.58z"/>
</svg>
