<?xml version="1.0" encoding="utf-8"?>
<!-- Generator: Adobe Illustrator 25.4.1, SVG Export Plug-In . SVG Version: 6.00 Build 0)  -->
<svg version="1.1" id="Layer_1" xmlns="http://www.w3.org/2000/svg" xmlns:xlink="http://www.w3.org/1999/xlink" x="0px" y="0px"
	 viewBox="0 0 3839 2066.3" style="enable-background:new 0 0 3839 2066.3;" xml:space="preserve">
<style type="text/css">
	.st0{fill:#FFFFFF;}
	.st1{clip-path:url(#SVGID_00000004547590973921272590000004117026609432209833_);fill:#FFFFFF;}
	.st2{clip-path:url(#SVGID_00000051342828724064223440000010478338632700123281_);fill:#FFFFFF;}
	.st3{clip-path:url(#SVGID_00000146494767388173853980000009297014013454787506_);fill:#FFFFFF;}
	.st4{clip-path:url(#SVGID_00000050637475466555018640000009692678675388799650_);fill:#FFFFFF;}
	.st5{clip-path:url(#SVGID_00000032643786555668511960000005419896840194599597_);fill:#FFFFFF;}
	.st6{clip-path:url(#SVGID_00000057137127611872385430000007774858255534780812_);fill:#FFFFFF;}
	.st7{clip-path:url(#SVGID_00000116945587046592272150000010570768268881579669_);fill:#FFFFFF;}
	.st8{clip-path:url(#SVGID_00000172442692536030169330000007820685155907382685_);fill:#FFFFFF;}
	.st9{clip-path:url(#SVGID_00000113318127028963395710000012721657157402558399_);fill:#FFFFFF;}
	.st10{clip-path:url(#SVGID_00000064312064207578205020000002986166413135972230_);fill:#FFFFFF;}
	.st11{clip-path:url(#SVGID_00000023249232271597412540000009770762948062856070_);fill:#FFFFFF;}
	.st12{clip-path:url(#SVGID_00000142877971277534478650000016925235516726470036_);fill:#FFFFFF;}
	.st13{clip-path:url(#SVGID_00000155834385579201495980000005979324117732646020_);fill:#FFFFFF;}
	.st14{clip-path:url(#SVGID_00000123437715193650502440000018086353874109936310_);fill:#FFFFFF;}
	.st15{clip-path:url(#SVGID_00000105418612035416025690000011132083312347202690_);fill:#FFFFFF;}
	.st16{clip-path:url(#SVGID_00000019664588144812223140000003000434345825491856_);fill:#FFFFFF;}
	.st17{fill:#AA9644;stroke:#000000;stroke-width:33.9831;stroke-linecap:round;stroke-miterlimit:10;}
	.st18{fill:#199A40;stroke:#000000;stroke-width:33.9831;stroke-linecap:round;stroke-miterlimit:10;}
	.st19{fill:#D4BF7C;stroke:#000000;stroke-width:33.9831;stroke-linecap:round;stroke-miterlimit:10;}
	.st20{fill:#F4134B;stroke:#000000;stroke-width:33.9831;stroke-linecap:round;stroke-miterlimit:10;}
	
		.st21{clip-path:url(#SVGID_00000096740101812001572560000013677111001108011907_);fill:url(#path2694_00000103975710870835139770000012735156867400923779_);stroke:#000000;stroke-width:33.9831;stroke-linecap:round;stroke-miterlimit:10;}
	
		.st22{clip-path:url(#SVGID_00000026136775560427268410000016271112598078842537_);fill:url(#path2796_00000162312111659995389630000010187303369748132283_);}
	
		.st23{clip-path:url(#SVGID_00000137098920253022876470000001628989452900526526_);fill:url(#path2824_00000150796312454442463320000000300105959606965126_);}
	
		.st24{clip-path:url(#SVGID_00000178193219865076355720000002726755072740168119_);fill:url(#path2852_00000072991946584362714040000000379071537600414088_);}
	.st25{fill:#034693;}
	
		.st26{clip-path:url(#SVGID_00000072273880017695006460000016161644042987296896_);fill:url(#path2694_00000155122644754851488210000015298597249627602879_);stroke:#000000;stroke-width:33.9831;stroke-linecap:round;stroke-miterlimit:10;}
	
		.st27{clip-path:url(#SVGID_00000010997852919418071070000003395649513781535935_);fill:url(#path2796_00000090285422417897405630000009952205863533118361_);}
	
		.st28{clip-path:url(#SVGID_00000007415571149124020790000001514818091410257543_);fill:url(#path2824_00000149381925447124314650000002042974946516269983_);}
	
		.st29{clip-path:url(#SVGID_00000098933246276008111060000006062213978434086789_);fill:url(#path2852_00000110467873320859211140000010255029808261213078_);}
	.st30{fill:#AA9644;stroke:#000000;stroke-width:34.2866;stroke-linecap:round;stroke-miterlimit:10;}
	.st31{fill:#199A40;stroke:#000000;stroke-width:34.2866;stroke-linecap:round;stroke-miterlimit:10;}
	.st32{fill:#D4BF7C;stroke:#000000;stroke-width:34.2866;stroke-linecap:round;stroke-miterlimit:10;}
	.st33{fill:#F4134B;stroke:#000000;stroke-width:34.2866;stroke-linecap:round;stroke-miterlimit:10;}
	
		.st34{clip-path:url(#SVGID_00000158736291509253299790000012657576885367108030_);fill:url(#path2694_00000108304119550682403280000007090630389021381047_);stroke:#000000;stroke-width:34.2866;stroke-linecap:round;stroke-miterlimit:10;}
	
		.st35{clip-path:url(#SVGID_00000159460034844320932410000011859898810321372554_);fill:url(#path2796_00000155862452838679598790000011276965727422367645_);}
	
		.st36{clip-path:url(#SVGID_00000054257726100246933200000003666383508483314339_);fill:url(#path2824_00000157301923966495574690000015794179506849202306_);}
	
		.st37{clip-path:url(#SVGID_00000177444672519916706860000011295404271818379448_);fill:url(#path2852_00000060008027188409279590000005148951501542422198_);}
	
		.st38{clip-path:url(#SVGID_00000007401984189284643820000003511873892036300476_);fill:url(#path2694_00000152978987053462836730000005567081684146532757_);stroke:#000000;stroke-width:34.2866;stroke-linecap:round;stroke-miterlimit:10;}
	
		.st39{clip-path:url(#SVGID_00000027600077926220375720000016943189211531066253_);fill:url(#path2796_00000030468738240746794780000011035423424170916999_);}
	
		.st40{clip-path:url(#SVGID_00000002368309377131701690000013260394183920096410_);fill:url(#path2824_00000088837953757648949470000013492942747030187929_);}
	
		.st41{clip-path:url(#SVGID_00000020363252466318149740000006043032086332296087_);fill:url(#path2852_00000034773571322406209250000012662504909287379368_);}
	.st42{fill:none;}
	.st43{fill:#AA9644;}
	.st44{fill:#199A40;}
	.st45{fill:#D4BF7C;}
	.st46{fill:#F4134B;}
	
		.st47{clip-path:url(#SVGID_00000033367344721672401450000011995343936728730027_);fill:url(#path2694_00000145042007606028247990000011883558243724325558_);}
	
		.st48{clip-path:url(#SVGID_00000093898337758162822200000015218741620449287564_);fill:url(#path2796_00000130609219074990647970000001440677981390448513_);}
	
		.st49{clip-path:url(#SVGID_00000145059105065453777660000008679809549092398520_);fill:url(#path2824_00000181771357571519022200000018295039643129598854_);}
	
		.st50{clip-path:url(#SVGID_00000068675492443967262260000008770303420368076450_);fill:url(#path2852_00000025408282741728680170000013548563492977908352_);}
	
		.st51{clip-path:url(#SVGID_00000070091476802367841740000007155537686134509755_);fill:url(#path2694_00000052821066625239106980000007629072927321606060_);}
	
		.st52{clip-path:url(#SVGID_00000030455385493916055430000016473128772059197085_);fill:url(#path2796_00000086657087733989611140000011922463546812685452_);}
	
		.st53{clip-path:url(#SVGID_00000075148770780513021580000011333464897027241113_);fill:url(#path2824_00000067922126777590365940000015936280407645329070_);}
	
		.st54{clip-path:url(#SVGID_00000142854609135386595320000012426044837075339408_);fill:url(#path2852_00000176042385068471764090000012438220177677681053_);}
	
		.st55{clip-path:url(#SVGID_00000148633601533569283120000008532591902480011161_);fill:url(#path2694_00000105392962892276841300000002372733153510293635_);}
	
		.st56{clip-path:url(#SVGID_00000174581713324311849480000003058253045764831900_);fill:url(#path2796_00000176016536592420086300000017213626427927020208_);}
	
		.st57{clip-path:url(#SVGID_00000116230546158985848000000009123752595512225210_);fill:url(#path2824_00000043417627325567362220000003637030737238737060_);}
	
		.st58{clip-path:url(#SVGID_00000098918099647163060210000010662981299105052307_);fill:url(#path2852_00000018946851972503132840000006408163245267144860_);}
	
		.st59{clip-path:url(#SVGID_00000139992466873812287930000002264013423250017936_);fill:url(#path2694_00000051342406694418955600000010542452137739841442_);}
	
		.st60{clip-path:url(#SVGID_00000021820506492460431000000000432276138252081813_);fill:url(#path2796_00000127755326742097542940000011709924273205971642_);}
	
		.st61{clip-path:url(#SVGID_00000072981656810870681230000016504424489420558264_);fill:url(#path2824_00000152953787963647875990000003751602885601346982_);}
	
		.st62{clip-path:url(#SVGID_00000051384291247290449410000011920030090659363722_);fill:url(#path2852_00000098899282451337961260000017597843960305781899_);}
	.st63{fill:#FFFFFF;stroke:#000000;stroke-width:33.9831;stroke-linecap:round;stroke-miterlimit:10;}
	
		.st64{clip-path:url(#SVGID_00000156564889380415101610000008950931481334142387_);fill:#FFFFFF;stroke:#000000;stroke-width:33.9831;stroke-linecap:round;stroke-miterlimit:10;}
	.st65{clip-path:url(#SVGID_00000143605254437908307890000017563310647931491505_);fill:#FFFFFF;}
	.st66{clip-path:url(#SVGID_00000033337277010710799890000013164790969826230415_);fill:#FFFFFF;}
	.st67{clip-path:url(#SVGID_00000097489093736875891990000004862392753063686043_);fill:#FFFFFF;}
	
		.st68{clip-path:url(#SVGID_00000071517968735471771730000001236897714278939805_);fill:#FFFFFF;stroke:#000000;stroke-width:33.9831;stroke-linecap:round;stroke-miterlimit:10;}
	.st69{clip-path:url(#SVGID_00000176725888369556819480000003451988263521249167_);fill:#FFFFFF;}
	.st70{clip-path:url(#SVGID_00000082370301973347598830000016600996974644969906_);fill:#FFFFFF;}
	.st71{clip-path:url(#SVGID_00000165946022581775445840000006817933720441777316_);fill:#FFFFFF;}
	.st72{fill:#FFFFFF;stroke:#000000;stroke-width:34.2866;stroke-linecap:round;stroke-miterlimit:10;}
	
		.st73{clip-path:url(#SVGID_00000023984305669546812990000015170139280072770944_);fill:#FFFFFF;stroke:#000000;stroke-width:34.2866;stroke-linecap:round;stroke-miterlimit:10;}
	.st74{clip-path:url(#SVGID_00000022559532377447606370000013200521026881517972_);fill:#FFFFFF;}
	.st75{clip-path:url(#SVGID_00000052808971785580152490000012303750564516366249_);fill:#FFFFFF;}
	.st76{clip-path:url(#SVGID_00000068648452581862596730000007997556204057427645_);fill:#FFFFFF;}
	
		.st77{clip-path:url(#SVGID_00000074418276819500335770000005361870987234788503_);fill:#FFFFFF;stroke:#000000;stroke-width:34.2866;stroke-linecap:round;stroke-miterlimit:10;}
	.st78{clip-path:url(#SVGID_00000174577948307625504840000016360845988253526200_);fill:#FFFFFF;}
	.st79{clip-path:url(#SVGID_00000170998749318364879160000008278285029999390125_);fill:#FFFFFF;}
	.st80{clip-path:url(#SVGID_00000135657768158754173310000017476497413261379483_);fill:#FFFFFF;}
</style>
<g>
	<g>
		<g>
			<g>
				<path class="st0" d="M1215.4,344.8c-14.7-46.8-58.9-80.2-109.6-80.2c-50.8,0-95,33.4-109.6,80.2l-38.8,114.9V271.3H754.2
					c-36.1,0-69.5,14.7-95,38.8v-38.8H450.6c-38.8,0-73.5,16-99,42.8v-42.8H153.7C69.5,271.3,0,340.8,0,425.1
					c0,40.1,16,77.5,41.4,104.3H0v179.1h197.9c56.2,0,104.3-29.4,132.4-74.9c22.8,44.1,68.2,74.9,121.7,74.9h209.9v-38.8
					c24.1,24.1,57.5,38.8,95,38.8H1337L1215.4,344.8z"/>
				<g>
					<g>
						<path d="M197.9,561.5H30.9v52.1h167.1c32.1,0,58.9-26.8,58.9-58.9c0-32.1-26.8-58.9-58.9-58.9h-42.8
							c-38.8,0-70.9-32.1-70.9-70.9s32.1-70.9,70.9-70.9h165.8V302H153.8c-68.2,0-123,54.8-123,123s54.8,123,123,123h42.8
							c4,0,6.7,2.7,6.7,6.7C203.3,558.8,200.6,561.5,197.9,561.5z"/>
						<path d="M153.8,419.7h167.1v-53.5H153.8c-32.1,0-58.9,26.8-58.9,58.9s26.8,58.9,58.9,58.9h42.8c38.8,0,70.9,32.1,70.9,70.9
							c0,38.8-32.1,70.9-70.9,70.9H30.9v52.1h167.1c68.2,0,123-54.8,123-123s-54.8-123-123-123h-42.8c-4,0-6.7-2.7-6.7-6.7
							C148.5,422.4,151.1,419.7,153.8,419.7z"/>
					</g>
					<g>
						<path d="M754.2,366.2c-22.8,0-40.1,17.4-40.1,40.1v167.1c0,22.8,17.4,40.1,40.1,40.1h108.3V495.9h-82.9V548h30.8v12h-30.8
							c-6.7,0-12-5.3-12-12V430.4c0-6.7,5.3-12,12-12H928v-52.1H754.2L754.2,366.2z"/>
						<path d="M1083.1,613.6h121.7l-82.9-246c-2.7-6.7-8-12-16-12c-6.7,0-13.3,5.3-16,10.7l-107,311.5h61.5l37.4-111v46.8H1083.1z
							 M1104.5,501.3l17.4,53.5h-36.1L1104.5,501.3z"/>
						<path d="M1186,356.9c-10.7-34.8-42.8-61.5-81.5-61.5c-38.7,0-70.9,25.4-80.2,60.2l-97.6,286.1v-210h-147v52.1h96.3v141.8
							H755.5c-29.4,0-52.1-24.1-52.1-52.1V406.3c0-29.4,24.1-52.1,52.1-52.1H928V302H754.2c-57.5,0-104.3,46.8-104.3,104.3v167.1
							c0,57.5,46.8,104.3,104.3,104.3h215.2l108.3-314.2c4-12,14.7-20.1,28.1-20.1s24.1,8,28.1,20.1l88.2,262.1H1083v52.1h211.3l0,0
							L1186,356.9z"/>
					</g>
					<g>
						<path d="M450.7,625.6c-29.4,0-52.1-24.1-52.1-52.1V406.3c0-29.4,24.1-52.1,52.1-52.1h179.1V302H450.7
							c-57.5,0-104.3,46.8-104.3,104.3v167.1c0,57.5,46.8,104.3,104.3,104.3h179.1v-52.1H450.7z"/>
						<path d="M462.7,549.4h129.7v-52.1H410.6v77.5c0,22.8,17.4,40.1,40.1,40.1h179.1v-52.1H474.7
							C468,561.5,462.7,556.1,462.7,549.4z"/>
						<path d="M592.4,431.7H462.7c0-6.7,5.3-12,12-12h153.7v-53.5H450.7c-22.8,0-40.1,17.4-40.1,40.1v77.5h181.8V431.7z"/>
					</g>
				</g>
			</g>
		</g>
	</g>
	<g>
		<g>
			<g>
				<g>
					<path class="st0" d="M262.7,2050.9c-30.5,0-55.5-13.3-70.4-37.5c-7.2-11.7-16.6-25.6-27.5-41.6
						c-29.7-43.7-70.3-103.6-101.3-174.2c-17.2-39.2-30-78.5-37.9-116.7c-9.3-44.9-12.3-89.9-8.9-133.8
						c2.7-35.6,37.8-53.9,52.7-61.8c17.9-9.4,42-19.5,73.8-30.9c55.5-19.9,124.1-40.1,179.3-56.3c9-2.6,17.6-5.2,25.9-7.6
						c-2-4.3-3.7-8.8-5-13.4c-9.8-34.4-2.6-67.6,20.3-93.4c16.3-18.4,37.2-30.3,57.4-41.7c13.6-7.7,29-16.5,35.4-24.1
						c17-20.2,38.2-34.4,63.2-42.4c23.3-7.5,46.4-8.3,61.7-8.3c20.9,0,42.6,2,65.5,4.1c21.3,2,43.2,4,66.1,4.6
						c125.5-154,265.9-310.6,361-415.6c37.1-41,78.4-87.9,122.1-137.7l11.7,10l-11.6-10.2c69.6-79.2,141.5-161,201.3-223.7
						c44.4-46.5,76.2-76.5,100.3-94.4c22.9-17,40-24.3,57.4-24.3c1.4,0,2.8,0,4.1,0.1c30.4,2.2,55.3,15.6,72,38.7
						c14.5,20.1,21.9,46.6,21.9,78.7c0.1,27.6-5.3,54.5-9.8,72.2c-29,113.8-60.5,280.9-62,408.6c-0.2,19.8-0.6,43.5-1,66.3l0,0.2
						c-0.9,56.3-2,125.1-1.8,187.6c72.7-9.2,143.5-17,221.1-24.4c17.1-1.6,34.6-3.2,52.1-4.8c76.3-97,175.4-218.2,223.5-256.6
						c22.2-17.7,42.8-26.4,63-26.4c12.7,0,44.3,4.1,63.1,41.8c6.5,13,8.7,25.4,10.6,35.4c0.8,4.5,1.9,10.6,2.9,12.4
						c11.5,20.8,8.3,44.1-7.4,94.9c16.3-18.1,33.4-35.4,49-49.6c53.4-48.6,81.6-54.8,100.3-54.8c3.8,0,7.6,0.3,11.2,1
						c13.2,2.3,24.9,7.4,34.8,14.9c5.9-15.4,16.8-28.9,28.9-42.5c-31.2-72.2-78.8-157.9-133.1-239.7c-6.9,12.6-15.2,23.5-24.8,32.6
						c-20.4,19.2-46.4,29.4-75,29.4c-9.1,0-18.6-1-28.1-3.1c-37.2-7.9-68.1-29.7-87-61.4c-6.1-10.2-10.7-21.1-13.7-32.4l-12.2,19.6
						c-3.2,5.2-7.4,9.7-12.3,13.1c3.1,7.5,4.1,15.7,3,23.9l-3.7,26c-1.4,9.9-5.9,18.9-12.8,25.8c5,7.8,7.6,17,7.3,26.5l-2.1,62.9
						c-0.5,13.6-6.8,26.2-17.5,34.6c-8.1,6.4-18.3,10-28.6,10c-3,0-6.1-0.3-9.1-0.9c-36.3-7.2-70.7-31.2-96.8-67.4
						c-26.5-36.6-42.3-82.5-45.7-132.5c-0.9-12.8-0.9-25.7-0.2-38.5l-4.6,8.8c-4,7.7-10,13.9-17.3,18.3c1.7,7.1,1.6,14.6-0.2,21.9
						l-16.5,64.7c-4.1,16-16.5,28.7-32.4,33.1c-4,1.1-8.1,1.7-12.3,1.7c-12.3,0-23.8-4.8-32.5-13.4c-35.7-35.5-61.7-84.3-73.3-137.5
						c-11.9-54.5-8.6-110.4,9.5-161.8c16.3-46.3,34.6-82.9,57.8-115.1c21.1-29.3,46.8-55.7,78.5-80.6c2.4-23,10.9-44.9,24.5-63.7
						c15.1-20.7,36.3-37.1,61.3-47.4c30-12.4,60-18.6,89.2-18.6c24.6,0,49,4.5,72.6,13.4c3.4-12.3,8.1-23.5,14.3-33.9
						c24.3-40.7,68.9-65.2,132.5-72.8c20.6-2.4,40-3.7,57.6-3.7c50.1,0,89.4,10.1,116.7,30.1c11.1,8.1,20.1,17.6,27,28.5
						c26.8,1.4,62.6,7.4,95.7,26.1c35.3,19.9,61.2,51,75.3,90.1c57.7,28.2,108.8,57.1,150.6,113.4c43.9,59.1,53.5,136.1,27.8,222.7
						c-5,16.7-18.7,29.1-35.9,32.3c-2.7,0.5-5.5,0.8-8.3,0.8c-14.3,0-28-6.8-36.7-18.2l-51-66.9c-1.4-1.8-2.7-3.8-3.8-5.8
						c-0.9,0-1.8,0-2.7-0.1c4.8,30.8,8,64.3,5.5,96.7c-3.4,42.5-16.5,79-40.2,111.6c-4.9,6.7-11.5,11.9-18.9,15.2
						c4.8,8,9.5,16,14.1,24.2c40.3-25.7,87.8-39.6,138.5-40.3c1.4,0,2.8,0,4.1,0c50.1,0,91.9,12.5,124,37
						c32.2,24.6,52.1,59.5,57.4,100.9c7.4,57.7,1.4,107.9-19.1,157.9c-10.4,25.5-23.9,49.5-38.1,72.2c47.2-1.1,93.5-1.7,138.1-1.7
						c23.3,0,46.8,0.2,69.9,0.4c123.9-33.5,260.8-59.4,283.3-61c7.3-0.5,14.1-0.8,20.4-0.8c15,0,27.2,1.5,37.2,4.5
						c30.9,9.4,38.7,32.4,40.7,41.8c1.7,8.2,2.3,21.5-5.4,35.9c24.5,2.5,48.6,5.3,72,8.2c124,15.7,199.4,33.3,235.6,41.7
						c6.8,1.6,12.2,2.8,15.3,3.5c54.1,10.8,86.5,38.6,86.7,74.2c0.1,22.9-14.6,50.5-56.1,59.1c-44.1,9.2-137.8,19.5-267.6,33.9
						c-203.5,22.4-481,53-757.4,99.8c7.2,61.2,12.2,114.1,15.5,151.3c138,25.9,281.6,130.2,338.1,174.8c15.4,12.2,21.4,32.8,15,51.3
						c-6.4,18.5-24,31-43.6,31H1783.7c-21.7,0-40.7-15.4-45.2-36.7c-4.4-21.3,6.8-43,26.7-51.7c120.3-52.5,247.1-94,376.8-123.3
						c112.5-25.4,227.3-41.5,341.4-48.1c1-18.9,2.2-43.6,3.2-72c-7-0.3-13.4-1.5-19.5-3.8c-7.9-2.9-15.7-6.8-23.1-11.6
						c-1.2-0.8-2.4-1.6-3.6-2.5c-53.8,12.1-133.5,29.2-225.7,49.1l-0.3,0.1c-168.7,36.3-377.4,81.1-575.3,126.6
						c0.2,0.5,0.4,0.9,0.6,1.4c15.7,28.3,20.2,56.8,13,82.3c-4.8,16.9-17.2,40.8-49,58.1c-17.6,9.6-34,14.2-50.2,14.2
						c-18.3,0-32.3-5.9-42.6-10.2c-8.8-3.7-14.1-6-23.6-6c-3.1,0-6.6,0.3-10.3,0.8c-4.2,0.6-8.6,0.9-13.3,0.9
						c-11.9,0-35.8-2.1-62.9-16c-23.7-12.2-43.9-30.2-60.1-53.7c-366.3,94.1-774.1,251.6-933.5,315.3l-2.1,0.8
						c-10,4-20,8.2-29.7,12.2C332.8,2035.5,296,2050.9,262.7,2050.9z M1052.4,1191c17,1.4,33.7,3.1,51,4.8c10,1,21.1,2.2,32.4,3.2
						c36-6.2,73.7-12.4,112.3-18.5c4.4-84.7,12.8-167.6,25.8-251.6C1193.9,1019.5,1121,1105.8,1052.4,1191z M2435.1,1007.8
						c-0.6,8.1-1.6,16.7-3.2,25.8c-1.5,9-3.5,18.5-6,29.2c17.6-1.1,35.9-2.1,54.8-3.3c-1.5-13.5-3.1-26.3-4.8-38.1
						C2461.2,1020.5,2447.2,1015.8,2435.1,1007.8z M2651.1,912c6.2,18.2,12.3,38.1,18.2,59.5c0.8-2.2,1.5-4.3,2.2-6.5
						c7.8-24.3,7-40.6,3.7-47.7c-0.6-1.3-0.9-1.9-2-2.7c-1.3-0.9-5.3-3-14.9-3C2656.1,911.7,2653.7,911.8,2651.1,912z"/>
					<path class="st0" d="M2248,30.8c46.8,0,83,9.1,107.6,27.1c11.8,8.6,20.9,19.2,26.9,31.1c26.7,0.5,63.7,5.4,97.3,24.4
						c33.9,19.2,58,49.3,70.4,87.7c56.2,27.3,109,55.3,150.7,111.5c40.9,55.1,49.7,127.4,25.4,209.1c-3.3,11.1-12.5,19.4-23.9,21.5
						c-1.9,0.3-3.7,0.5-5.6,0.5c-9.5,0-18.6-4.4-24.5-12.1l-51-66.9c-3-4-5-8.6-5.8-13.4c-3.1,1-6.3,1.5-9.5,1.5
						c-6.4,0-12.8-2-18.3-6c-1.5-1.1-3.1-2.3-4.8-3.5c15.9,86.8,19.8,159.1-27.4,223.9c-5.8,8-15.1,12.7-24.9,12.7
						c-1.7,0-3.4-0.1-5.1-0.4c-0.8-0.1-1.5-0.3-2.2-0.5c12.6,19.9,24,39.6,34.5,58.9c40.5-30.2,90.1-46.5,144-47.3
						c1.3,0,2.6,0,3.9,0h0c46.7,0,85.3,11.4,114.7,33.9c28.9,22,46.7,53.4,51.5,90.6c7.1,55,1.3,102.7-18.1,150.1
						c-12.9,31.5-30.7,61-52.6,94.1c57-1.6,112.7-2.4,166.8-2.4c24.2,0,48.2,0.2,71.8,0.5c126.3-34.2,262.2-59.7,282.4-61.1
						c6.9-0.5,13.4-0.7,19.3-0.7c13.5,0,24.2,1.3,32.8,3.9c23,7,28.7,23.4,30.1,30.2c2.3,11.4,0.5,28.5-21.5,45.2
						c34.7,3.3,68.4,7,101.2,11.1c123.2,15.6,198.1,33.1,234.1,41.5c6.9,1.6,12.4,2.9,15.7,3.6c46.4,9.3,74.2,31.4,74.3,59.2
						c0,8.2-3,35.5-43.8,44c-43.3,9.1-136.8,19.4-266.2,33.6c-206.3,22.8-491.1,54.2-772.8,102.4c8.9,74.2,14.8,137.5,18.2,177.2
						c137.4,21.3,284.1,127.4,342.8,173.8c10.3,8.1,14.3,21.9,10,34.2c-4.3,12.4-16,20.7-29.1,20.7H1783.7
						c-14.6,0-27.1-10.2-30.1-24.5c-3-14.3,4.5-28.6,17.8-34.5c119.5-52.2,245.3-93.3,374.1-122.3c116.3-26.2,234.8-42.5,352.6-48.5
						c1.4-25.2,3.1-61,4.6-103c-4.5,0.7-8.6,1-12.4,1c-6.6,0-12.4-0.9-17.8-2.9c-6.8-2.5-13.5-5.9-19.9-10c-2.9-1.9-5.8-4-8.5-6.2
						c-1.7,0.4-3.5,0.8-5.2,1.2c-53.8,12.1-134.4,29.4-227.7,49.5c-173.3,37.3-390.4,83.9-593.6,130.8c2.6,6.4,5.4,12.7,8.4,19.2
						c13.9,24.9,18,49.5,11.9,71.1c-4,14.1-14.4,34-41.6,48.8c-15.2,8.3-29.2,12.3-42.8,12.3c-15.2,0-27.1-5-36.6-9
						c-9.5-4-17-7.2-29.6-7.2c-3.8,0-8,0.3-12.4,0.9c-3.5,0.5-7.2,0.7-11.2,0.7c-10.5,0-31.7-1.9-55.8-14.3
						c-23.7-12.2-43.7-31.1-59.3-56c-0.3-0.5-0.7-1.1-1-1.6c-369.8,94-784.6,254.1-946.1,318.7l-2.1,0.8c-10.1,4-20.2,8.2-29.9,12.3
						c-41.1,17.2-76.6,32-106.8,32c-32,0-48.8-16.4-57.2-30.2c-7.3-12-16.9-26-27.9-42.2c-29.4-43.2-69.5-102.5-100-171.8
						c-16.8-38.3-29.2-76.5-36.9-113.6c-9-43.4-11.9-87-8.6-129.5c1.8-23.9,23.5-38.3,44.5-49.3c17.2-9,40.7-18.8,71.9-30
						c55.1-19.8,123.5-39.9,178.4-56.1c16.3-4.8,31.9-9.4,45.4-13.5c-6.6-7.8-11.3-16.7-14.1-26.5c-8.4-29.6-2.6-56.9,17-79
						c14.6-16.5,34.4-27.7,53.4-38.5c15.5-8.8,31.5-17.8,39.6-27.5c33.8-40.1,78.2-45.3,113.2-45.3c20.2,0,41.5,2,64,4
						c23.9,2.2,48.6,4.5,74.7,4.7c126.2-155.3,268.4-314,365.2-420.8c37.2-41.1,78.6-88.1,122.3-137.9
						c69.5-79.1,141.4-160.8,201-223.3c90.9-95.2,122.5-113.9,146.6-113.9c1,0,2,0,3,0.1c25.7,1.8,46.6,13,60.6,32.4
						c12.6,17.4,19,40.9,19,69.7c0.1,26-5.1,51.5-9.4,68.4c-29.2,114.7-61,283.2-62.4,412.2c-0.2,19.5-0.6,42.2-1,66.3
						c-1,62-2.2,138.4-1.7,205.5c75.9-9.8,152.2-18.4,237.9-26.5c19.1-1.8,38.6-3.6,58.6-5.4c68.4-87.2,175.8-219.9,225.1-259.3
						c19.3-15.5,36.8-23,53.3-23c12.2,0,34.9,4.3,49.4,33.3c5.5,11,7.5,21.8,9.2,31.3c1.3,7.1,2.4,13.1,4.6,17.1
						c11,19.8,3.4,47.1-22.8,126.6c-3.8,11.6-7.5,22.9-10.8,33c7.2-9.2,13.8-17.7,19.3-24.7c23.9-30.1,53.7-62.2,79.7-85.8
						c50-45.5,75.3-50.8,89.9-50.8c0,0,0,0,0,0c2.9,0,5.8,0.2,8.5,0.7c18.5,3.2,33.4,13.1,42.9,28.4c12.3,19.8,15,47.3,8.4,86.3
						c-2.7,15.7-6.6,32.2-11,48.4c29.4-1.8,59.9-3.6,91.8-5.5c-2.3-24.4-5.1-47.3-8.6-68.2c-2.5,0.3-5,0.4-7.5,0.4
						c-20,0-39-8.7-52.1-23.8c-12.1-13.9-17.6-31.9-15.1-49.3c2.9-20,17.7-36.6,34.8-55.9c0.2-0.2,0.4-0.5,0.7-0.7
						c-38.6-92-98.9-194-154-274.5c-0.6,1.7-1.2,3.5-1.8,5.2c-7.4,19.7-17.7,35.9-30.6,48c-17.5,16.5-39.8,25.2-64.4,25.2
						c-8,0-16.4-0.9-24.9-2.7c-33-7-60.3-26.2-77-54.2c-15.1-25.3-19.8-55.4-13.1-83.2c-0.8,0-1.6-0.1-2.4-0.2
						c0.5,6.5-1,13.1-4.5,18.7l-32.1,51.7c-5,8.1-13.2,13-22,14.2c0.9,1.4,1.8,2.7,2.8,3.8c6.2,6.8,9,16,7.7,25.1l-3.7,26
						c-1.4,10-7.7,18.7-16.7,23.2c-0.8,0.4-1.6,0.8-2.5,1.1c1.7,2.9,3.6,5.7,5.8,8.2c5.2,5.9,8,13.6,7.8,21.5l-2.1,62.9
						c-0.3,9-4.6,17.5-11.6,23.1c-5.5,4.3-12.2,6.6-19.1,6.6c-2,0-4-0.2-6-0.6c-32.5-6.5-63.5-28.3-87.4-61.3
						c-24.8-34.3-39.6-77.4-42.8-124.6c-3.3-48,6-91.1,18.5-125.7c-2.3,0.5-4.6,0.8-7,0.8c-2,0-4.1-0.2-6.1-0.6
						c1.4,6.9,0.4,14.1-2.9,20.4l-36.3,69.3c-4.2,8.1-11.8,13.8-20.6,15.8c-1.1,0.2-2.3,0.4-3.4,0.6c0.8,1.6,1.7,3.3,2.6,5
						c3.6,6.8,4.6,14.7,2.7,22.1l-16.5,64.7c-2.7,10.7-11,19.1-21.6,22.1c-2.7,0.7-5.5,1.1-8.2,1.1c-8,0-15.9-3.1-21.7-9
						c-33.6-33.4-58.2-79.6-69.1-129.8c-11.3-51.7-8.2-104.8,8.9-153.4c15.8-44.9,33.5-80.2,55.8-111.2
						c21.3-29.6,47.8-56.4,80.8-81.6c2.4-46,31.1-86,76.9-104.9c28.2-11.6,56.2-17.5,83.3-17.5c28.7,0,56.7,6.6,83.7,19.6
						c2.3-15.4,7-31.9,16.4-47.6c21.7-36.4,62.4-58.4,121.1-65.4C2212.1,32,2230.9,30.8,2248,30.8 M2494.4,636l-4.4-14.5
						c-1.1-3.5-1.5-7.2-1.3-10.9c0.1-1.4,0.2-2.8,0.3-4.3c-7.9-0.8-15.1-4.7-20.3-10.7l-17.6-20.8c-6.3-7.5-8.6-17.4-6.5-26.7
						c-2.2,0.5-4.5,0.8-6.8,0.8c-5.9,0-11.8-1.7-16.8-5C2448.6,574.7,2472.9,605.5,2494.4,636 M2198.8,649.7c0.3,0,0.6,0,1,0
						C2199.2,649.7,2198.7,649.7,2198.8,649.7 M1136.4,1214.6c40.3-7,82.4-13.9,126.4-20.8c4.9-106,16.3-208.7,34.8-314.8
						c-101.1,113.2-192.2,220.6-275.7,325.4c27.4,1.4,53.2,4,79.9,6.7C1113.2,1212.3,1124.6,1213.5,1136.4,1214.6 M2665,1016
						c9.2-15.6,16.4-31.3,21.2-46.2c7.9-24.6,9-46.1,3-59c-1.9-4-6.8-14.5-30.8-14.5c-4.8,0-10,0.4-15.5,1.3
						c-4.1,0.6-8.2,1.6-12.1,2.9C2642.7,933.2,2654.2,971.8,2665,1016 M2481.2,975.5C2481.1,975.5,2481.1,975.5,2481.2,975.5
						c0,0,0.1,0,0.2,0c0.1,0,0.3,0,0.4,0C2481.6,975.5,2481.4,975.5,2481.2,975.5 M2248,0C2248,0,2248,0,2248,0
						c-18.2,0-38.2,1.3-59.5,3.8c-33.1,3.9-61.8,12.4-85.4,25.1C2078,42.5,2058.3,61,2044.6,84c-4.2,7.1-7.8,14.5-10.9,22.3
						c-20.5-6.2-41.6-9.3-62.8-9.3c-31.2,0-63.2,6.7-95.1,19.8c-27.6,11.4-51.1,29.6-67.9,52.6c-14,19.2-23,41.3-26.6,64.6
						c-30.6,24.7-55.7,50.8-76.5,79.8c-13.9,19.4-26.2,40.2-37.3,63.6c-2.7-26.5-10.7-49.1-23.8-67.4c-9.7-13.5-21.9-24.2-36.3-31.9
						c-14.1-7.5-29.9-12-47-13.2c-1.7-0.1-3.5-0.2-5.2-0.2c-20.9,0-40.8,8.2-66.6,27.3c-24.8,18.4-57.3,49-102.3,96.1
						c-60,62.9-132.1,144.9-201.8,224.2c-43.7,49.7-84.9,96.6-122,137.6c-94,103.7-232.2,258-356.7,410.3
						c-19.7-0.8-38.9-2.5-57.6-4.3c-23.3-2.1-45.2-4.2-66.9-4.2c-38.4,0-94.3,5.8-136.7,56.2c-4.6,5.5-20,14.2-31.3,20.6
						c-20.3,11.5-43.2,24.5-61.3,44.9c-26.3,29.7-34.7,67.6-23.8,106.9c-3.1,0.9-6.3,1.9-9.5,2.8l-0.6,0.2
						c-55.3,16.3-124.2,36.5-180.1,56.6c-32.5,11.7-57.3,22-75.8,31.7c-10.9,5.7-24.8,13.7-36.5,24.9c-14.8,14.2-23,30.8-24.4,49.3
						c-3.5,45.4-0.4,91.9,9.2,138.1c8.1,39.2,21.2,79.5,38.9,119.7c31.6,71.9,72.7,132.5,102.7,176.7c10.8,15.9,20.1,29.6,27.1,41
						c17.7,28.9,47.4,44.9,83.5,44.9c36.4,0,74.5-15.9,118.7-34.3l0.1,0c9.6-4,19.5-8.1,29.4-12.1l2.1-0.8
						c157.7-63.1,558.8-218,921.6-312.1c16.5,21.4,36.4,38.1,59.3,49.9c29.9,15.4,56.6,17.7,69.9,17.7c5.3,0,10.5-0.3,15.4-1
						c3-0.4,5.7-0.6,8.2-0.6c6.1,0,8.9,1.1,17.7,4.8c10.8,4.6,27.2,11.4,48.6,11.4c18.9,0,37.7-5.3,57.5-16.1
						c36.5-19.9,50.9-47.7,56.5-67.5c6.9-24.4,4.7-50.7-6.2-77.2c192.2-44,393.1-87.1,556.4-122.3l0.1,0
						c88.7-19.1,165.9-35.7,219.6-47.7c7.9,5,16.1,9.1,24.5,12.1c2.9,1,5.8,1.9,8.8,2.6c-0.7,16.3-1.4,31.2-2,44.2
						c-110.4,7.1-221.3,23.1-330.1,47.6c-130.7,29.5-258.4,71.2-379.6,124.2c-12.9,5.6-23.6,15.6-30,28.2c-6.5,12.5-8.4,27-5.6,40.8
						c2.9,13.8,10.5,26.3,21.4,35.2c10.9,8.9,24.7,13.8,38.8,13.8h1283.7c26.2,0,49.5-16.6,58.1-41.3c8.6-24.7,0.6-52.2-20-68.5
						c-32.5-25.7-84.2-63.7-145.7-98.9c-67.5-38.6-130.5-64.3-187.6-76.7c-3-33.2-7.2-76.5-12.8-125.8
						c271.2-45.3,542.4-75.2,742.2-97.3c130.2-14.4,224.3-24.7,269.1-34.1c32-6.7,48.5-22.9,56.6-35.4c10.2-15.5,11.7-31,11.7-38.9
						c-0.1-12-3-23.6-8.9-34.3c-5.3-9.7-12.9-18.5-22.5-26.2c-16.9-13.5-39.7-23.2-67.7-28.8c-2.8-0.6-8.3-1.8-14.6-3.3l-0.2,0
						c-36.5-8.5-112.4-26.2-237.2-42c-17.3-2.2-35.1-4.3-53.1-6.3c1.5-8.5,1.4-17.2-0.3-25.7c-1.4-6.9-4.8-17.2-12.7-27.5
						c-9.3-12.1-22.6-21-38.6-25.9c-11.5-3.5-25.2-5.2-41.7-5.2c-6.6,0-13.8,0.3-21.4,0.8c-23.5,1.6-157.9,26.9-284.2,60.9
						c-22.5-0.3-45.4-0.4-68-0.4c-35.9,0-72.9,0.4-110.6,1.1c9.2-16.1,17.7-32.9,24.8-50.4c21.5-52.5,27.9-105.2,20.1-165.7
						c-2.9-22.5-9.8-43.5-20.5-62.3c-10.8-18.9-25.2-35.4-42.8-48.9c-34.9-26.6-79.8-40.2-133.4-40.2c-1.4,0-2.9,0-4.3,0
						c-44.9,0.6-87.4,11-125,30.3c1.4-1.6,2.8-3.2,4-5c25.4-34.9,39.5-74,43.1-119.4c1.2-15.7,1.2-31.7,0.3-47.4l24.1,31.7
						c11.6,15.2,29.9,24.2,48.9,24.2c3.7,0,7.5-0.3,11.1-1c11.2-2,21.5-7.2,30-14.7c8.5-7.6,14.6-17.4,17.9-28.3
						c13.3-44.7,17.6-87.5,12.8-127c-4.9-40.7-19.4-77.4-43-109.2c-21.1-28.4-46.3-52.5-77.3-73.7c-24.1-16.5-49.3-29.8-73.5-41.7
						c-15.8-39.8-43.2-71.6-79.9-92.3c-32.5-18.4-67.3-25.3-94.8-27.5c-7.2-9.8-16-18.5-26.4-26.1C2343.7,11.1,2301.4,0,2248,0
						L2248,0L2248,0z M1594,1115.1c0-57.6,1-119,1.8-170.1c0.4-22.9,0.7-46.6,1-66.5c1-87.9,16.5-195,35.5-290
						c0.8,4.8,1.7,9.5,2.8,14.3c12.2,56,39.7,107.6,77.5,145.1c11.6,11.5,27,17.9,43.4,17.9c5.5,0,11-0.7,16.4-2.2
						c21.2-5.9,37.8-22.8,43.3-44.1l12.1-47.4c7,41.1,22.3,78.8,45,110.1c28.5,39.4,66.2,65.5,106.3,73.5c3.9,0.8,8,1.2,12.1,1.2
						c13.8,0,27.4-4.7,38.2-13.3c14.2-11.2,22.7-28.1,23.3-46.1l2.1-62.9c0.3-8.7-1.2-17.2-4.4-25.1c5.1-7.6,8.4-16.3,9.8-25.6
						l3.7-26c1-7.1,0.8-14.2-0.6-21.1c1.3-1.4,2.5-2.8,3.7-4.2c1.2,2.3,2.4,4.5,3.8,6.7c21.1,35.4,55.6,59.8,97,68.5
						c10.6,2.3,21.2,3.4,31.3,3.4c32.6,0,62.2-11.6,85.5-33.5c5.1-4.8,9.8-10,14.2-15.7c46.3,71.7,86.9,145.2,115.2,208.9
						c-6.3,7.5-12.3,15.2-17.2,23.5c-8-3.9-16.6-6.7-25.8-8.3c-4.5-0.8-9.2-1.2-13.8-1.2c-31.9,0-66,18.1-110.7,58.8
						c-3.3,3-6.7,6.2-10.1,9.5c2.1-15.7,1.8-33-7.2-49.8c-0.5-1.7-1.2-5.7-1.8-8.7c-1.9-10.4-4.5-24.6-11.9-39.5
						c-16-31.9-44-50.3-76.9-50.3c-23.8,0-47.6,9.7-72.6,29.7c-48.3,38.6-145.6,157.1-221.8,253.9c-15.4,1.4-30.7,2.8-45.6,4.2
						C1726.7,1099.6,1660.9,1106.8,1594,1115.1L1594,1115.1z M1082.5,1178.3c53.2-65.5,109-131.8,168.8-200.3
						c-8.4,63-14.3,125.6-17.9,189.3c-33.6,5.4-66.5,10.8-98.2,16.3c-9.7-0.9-19.1-1.9-30.2-3
						C1097.4,1179.8,1089.9,1179,1082.5,1178.3L1082.5,1178.3z M2445.3,1046.3c0.7-3.5,1.3-6.8,1.8-10.1c0.3-1.7,0.5-3.3,0.8-5
						c4.7,1.7,9.4,3,14.3,3.9c0.4,3.3,0.9,6.6,1.3,10C2457.4,1045.6,2451.3,1046,2445.3,1046.3L2445.3,1046.3z"/>
				</g>
			</g>
			<g>
				<path id="path2658_00000031898558746845538560000007450317963967233157_" class="st0" d="M2223.6,459.5
					c73.9,76.1,251.5,339,289.9,511.8c42.5,191.2,12.8,618.5,12.8,618.5l97.7,30l92.1-30c0,0-32-462.8-117.3-686.7
					c-43.3-113.6-119.4-283.7-309.1-443.5C2236.3,404.6,2227.9,428.5,2223.6,459.5z"/>
				<path id="path2660_00000163775958443672350440000003325429243349035666_" class="st0" d="M2360,120.3
					c57.6-4.3,142.9,10.7,164.2,102.4c61.8,29.9,112.5,55,152,108.2c49,66.1,31.5,145.6,20.6,182.1l-51-66.9
					c4.8-28.8-10.7-59.5-10.7-59.5s-19.7,24.3-29.1,35.5c-22.1-16.3-66.7-43.9-67.3-43.2c24,116.8,43.2,199.9-8,270.3l-11.2-36.8
					c1.6-25.6,8-68.8,8-68.8l-35.2,32l-17.6-20.8c14.4-28.8,9.1-72,9.1-72l-45.9,35.2l-22.4-23.5c5.3-30.9-8.5-66.1-8.5-66.1
					l-34.1,41.6c-34.1-13.9-86.4-17.1-152.5-4.3c-34.8,6.7-106.6,30.9-135.4,43.7l-37.3-36.3c0,0-4.3,33.1,3.2,69.3l-32.1,51.7
					l-38.7-22.7c0,0,0.5,53.2,22.9,77.7l-3.7,26l-31.5-17.4c0,0,0,45.9,25.6,74.6l-2.1,62.9c-48-9.6-99.5-69-105.6-157.8
					c-7.5-109.8,58.7-192,58.7-192s-38.4,4.3-77.8,38.4l-44.8-32c0,0-6.4,26.7,8.5,68.2l-36.3,69.3l-41.6-32
					c0,0-10.7,24.5,20.3,82.1l-16.5,64.7c-60.1-59.8-84.2-162-52.8-251.3c27.7-78.9,64-134.4,138.6-187.7
					c-4.3-42.7,21.3-76.8,57.6-91.7c80.6-33.2,140.8-6.4,183.4,27.7c2.1-38.4-12.8-121.6,113-136.5
					C2332.1,48.7,2357.8,94.7,2360,120.3z"/>
				<path id="path2662_00000026165331099202943410000010519642015837449661_" class="st0" d="M3067.4,1745.4H1783.7
					c242-105.7,500.8-161.6,751.4-169.9h184.3C2837.5,1585.9,2978.3,1674.9,3067.4,1745.4z"/>
				<path id="path2664_00000018225761258755566210000009249212114509057701_" class="st0" d="M2231.5,465.3
					c25.6,11.2,52.8,80,33.6,131.2c-11.3,30.1-35.3,61.7-84.8,51.2c-52.8-11.2-78-61.8-65.6-104
					C2130.7,489.3,2191.6,447.9,2231.5,465.3z"/>
				<path d="M2248,61.5c91.1,0,110.2,36.9,112,58.8c5.6-0.4,11.4-0.6,17.5-0.6c56.1,0,127.5,20.2,146.8,103
					c61.8,29.9,112.5,55,152,108.2c49.1,66.1,31.5,145.6,20.6,182.1l-51-66.9c4.8-28.8-10.7-59.5-10.7-59.5s-19.7,24.3-29.1,35.5
					c-21.8-16.1-65.7-43.2-67.3-43.2c0,0,0,0,0,0c24,116.8,43.2,199.9-8,270.3l-11.2-36.8c1.6-25.6,8-68.8,8-68.8l-35.2,32
					l-17.6-20.8c14.4-28.8,9.1-72,9.1-72l-45.9,35.2l-22.4-23.5c5.3-30.9-8.5-66.1-8.5-66.1l-34.1,41.6c-19.4-7.9-44.7-12.3-75-12.3
					c-3.1,0-6.3,0-9.6,0.1c0.6,0.6,1,1,1.6,1.6c189.7,159.9,265.8,329.9,309.1,443.5c76.5,200.8,110.1,593.4,116.2,672.4h4.4
					c118,10.4,258.8,99.4,348,169.9H1783.7c239.5-104.6,495.4-160.3,743.5-169.5c4.6-74.5,24.3-433.7-13.7-604.5
					c-33.1-148.8-169.5-364.5-253.9-470.1c11.6,27.2,17,64.4,5.4,95.3c-9.8,26.1-29.1,53.2-66.2,53.2c-5.7,0-11.9-0.7-18.6-2.1
					c-52.8-11.2-78-61.8-65.6-104c7-23.8,22.6-45.1,41.2-60.1c-27.8,9-55.7,19.1-71.1,26l-37.3-36.3c0,0-4.3,33.1,3.2,69.3
					l-32.1,51.7l-38.7-22.7c0,0,0.5,53.2,22.9,77.7l-3.7,26l-31.5-17.4c0,0,0,45.9,25.6,74.6l-2.1,62.9c-48-9.6-99.5-69-105.6-157.8
					c-7.5-109.8,58.6-192,58.6-192s-38.4,4.3-77.8,38.4l-44.8-32c0,0-6.4,26.7,8.5,68.2l-36.3,69.3l-41.6-32
					c0,0-10.7,24.5,20.3,82.1l-16.5,64.7c-60.1-59.8-84.2-162-52.8-251.3c27.7-78.9,64-134.4,138.6-187.7
					c-4.3-42.7,21.3-76.8,57.6-91.7c26-10.7,49.8-15.2,71.6-15.2c45.9,0,82.9,19.8,111.8,42.9c2.1-38.4-12.8-121.6,113-136.5
					C2215.4,62.6,2232.7,61.5,2248,61.5 M2248,30.8L2248,30.8c-17,0-35.8,1.2-55.8,3.6c-58.7,7-99.4,29-121.1,65.4
					c-9.4,15.7-14,32.2-16.4,47.6c-27-13-55.1-19.6-83.7-19.6c-27.1,0-55.2,5.9-83.3,17.5c-45.8,18.9-74.6,58.9-76.9,104.9
					c-33,25.2-59.5,52-80.8,81.6c-22.3,31-40,66.3-55.8,111.2c-17.1,48.7-20.2,101.7-8.9,153.4c10.9,50.3,35.5,96.4,69.1,129.8
					c5.8,5.8,13.7,9,21.7,9c2.7,0,5.5-0.4,8.2-1.1c10.6-2.9,18.9-11.4,21.6-22.1l16.5-64.7c1.9-7.5,0.9-15.4-2.7-22.1
					c-0.9-1.7-1.8-3.3-2.6-5c1.1-0.1,2.3-0.3,3.4-0.6c8.9-2,16.4-7.7,20.6-15.8l36.3-69.3c3.3-6.3,4.3-13.5,2.9-20.4
					c2,0.4,4.1,0.6,6.1,0.6c2.3,0,4.7-0.3,7-0.8c-12.5,34.6-21.7,77.7-18.5,125.7c3.2,47.2,18,90.3,42.8,124.6
					c23.9,33.1,55,54.8,87.4,61.3c2,0.4,4,0.6,6,0.6c6.9,0,13.6-2.3,19.1-6.6c7.1-5.6,11.3-14,11.6-23.1l2.1-62.9
					c0.3-7.9-2.5-15.6-7.8-21.5c-2.2-2.5-4.1-5.2-5.8-8.2c0.8-0.3,1.7-0.7,2.5-1.1c9.1-4.5,15.3-13.2,16.7-23.2l3.7-26
					c1.3-9.1-1.6-18.3-7.7-25.1c-1-1.1-1.9-2.3-2.8-3.8c8.8-1.2,17-6.1,22-14.2l32.1-51.7c3.5-5.6,5.1-12.2,4.5-18.7
					c0.8,0.1,1.6,0.1,2.4,0.2c-6.7,27.9-2,57.9,13.1,83.2c16.7,28,44,47.2,77,54.2c8.5,1.8,16.9,2.7,24.9,2.7
					c24.6,0,46.9-8.7,64.4-25.2c12.9-12.1,23.2-28.3,30.6-48c0.6-1.7,1.2-3.4,1.8-5.2C2372.4,714,2459,867.6,2483.5,978
					c33.6,151.2,20.6,459,14.6,568.4c-117.8,6-236.3,22.3-352.6,48.5c-128.8,29-254.6,70.2-374.1,122.3
					c-13.3,5.8-20.8,20.2-17.8,34.5c3,14.3,15.5,24.5,30.1,24.5h1283.7c13.1,0,24.8-8.3,29.1-20.7c4.3-12.4,0.3-26.1-10-34.2
					c-58.7-46.4-205.4-152.5-342.8-173.8c-4.6-55-14.2-155.2-29.9-266.8c-24-170.7-53-301.4-86.2-388.5
					c-24.2-63.4-55.9-136.3-104.3-213c0.7,0.2,1.5,0.3,2.2,0.5c1.7,0.3,3.4,0.4,5.1,0.4c9.7,0,19-4.6,24.9-12.7
					c47.1-64.8,43.3-137.1,27.4-223.9c1.7,1.2,3.3,2.4,4.8,3.5c5.5,4.1,11.9,6,18.3,6c3.2,0,6.5-0.5,9.5-1.5
					c0.8,4.8,2.8,9.4,5.8,13.4l51,66.9c5.9,7.7,15,12.1,24.5,12.1c1.8,0,3.7-0.2,5.6-0.5c11.4-2.1,20.6-10.4,23.9-21.5
					c24.2-81.7,15.5-154.1-25.4-209.1c-41.8-56.3-94.5-84.2-150.7-111.5c-12.3-38.4-36.5-68.6-70.4-87.7
					c-33.6-19-70.6-23.9-97.3-24.4c-6-11.9-15.1-22.5-26.9-31.1C2330.9,39.9,2294.7,30.8,2248,30.8L2248,30.8L2248,30.8z
					 M2379.5,500.1c1.8-0.4,3.6-1,5.4-1.7c0.4,3.6,1.5,7.1,3.2,10.4C2385.3,505.9,2382.4,503,2379.5,500.1L2379.5,500.1z
					 M2494.4,635.9c-21.5-30.4-45.8-61.2-73.4-92.1c5.1,3.3,10.9,5,16.8,5c2.3,0,4.5-0.2,6.8-0.8c-2.1,9.3,0.2,19.2,6.5,26.7
					l17.6,20.8c5.1,6.1,12.4,9.9,20.3,10.7c-0.1,1.5-0.2,2.9-0.3,4.3c-0.2,3.7,0.2,7.4,1.3,10.9L2494.4,635.9L2494.4,635.9z"/>
				<g>
					<g>
						<defs>
							<path id="SVGID_00000160167489245116846520000009511419589944887947_" d="M1270.9,1223.6c398.3-62.4,580.6-81.6,1329.2-124.8
								c748.1-43.2,1079.7,52.8,1127.7,62.4c48,9.6,67.2,35.2,30.2,42.9c-132.6,27.7-793.2,72.3-1325.9,192.2
								c-194.7,43.9-729.4,153.6-1089.3,244.7c-416.3,105.5-883,292.7-954.9,321.5c-72,28.8-134.4,62.4-156.3,26.6
								c-49-80-184.4-237.7-169-438.7c2.6-34.2,232.9-95.4,330-125.3C642.3,1348.4,872.7,1286,1270.9,1223.6"/>
						</defs>
						<clipPath id="SVGID_00000014618930702822702110000015707629292997758391_">
							<use xlink:href="#SVGID_00000160167489245116846520000009511419589944887947_"  style="overflow:visible;"/>
						</clipPath>
						
							<path id="path2694_00000074403088436506356130000013410068831557293968_" style="clip-path:url(#SVGID_00000014618930702822702110000015707629292997758391_);fill:#FFFFFF;" d="
							M47.3,2027v-969.3h3747.8V2027H47.3z"/>
					</g>
					<path d="M2968,1087.8c491.5,0,720.6,65.6,759.9,73.5c48,9.6,67.2,35.2,30.2,42.9c-132.6,27.7-793.2,72.3-1325.9,192.2
						c-194.7,43.9-729.4,153.6-1089.3,244.7c-416.3,105.5-883,292.7-954.9,321.5c-49.7,19.9-94.9,42.1-125.3,42.1
						c-13.6,0-24.2-4.4-31-15.5c-49-80-184.4-237.7-169-438.7c2.6-34.2,232.9-95.4,330-125.3c249.5-76.8,479.9-139.2,878.2-201.5
						c398.3-62.4,580.6-81.6,1329.2-124.8C2736.4,1091,2858.6,1087.8,2968,1087.8 M2968,1057c-117,0-241.3,3.8-369.6,11.2
						c-400.8,23.1-616.9,38.1-797.1,55.3c-191.7,18.3-335.9,38.6-535.1,69.8c-382,59.8-612.8,119.6-882.4,202.5
						c-15.8,4.9-35.7,10.7-56.8,16.9c-54.9,16.2-123.3,36.3-178.4,56.1c-31.1,11.2-54.7,21-71.9,30c-21,11-42.7,25.5-44.5,49.3
						c-3.3,42.5-0.4,86.1,8.6,129.5c7.7,37.1,20.1,75.3,36.9,113.6c30.4,69.3,70.6,128.5,100,171.8c11,16.2,20.5,30.3,27.9,42.2
						c8.4,13.8,25.2,30.2,57.2,30.2c30.2,0,65.7-14.8,106.8-32c9.7-4.1,19.8-8.3,29.9-12.3l2.1-0.8
						c161.9-64.8,578.5-225.6,949-319.4c260.3-65.9,607.4-140.6,860.8-195c93.3-20.1,174-37.4,227.7-49.5
						c362.6-81.7,781.8-127.9,1059.2-158.5c129.4-14.3,222.8-24.6,266.2-33.6c40.8-8.5,43.9-35.8,43.8-44
						c-0.1-27.8-27.9-49.9-74.3-59.2c-3.3-0.7-8.8-1.9-15.7-3.6c-36-8.4-110.9-25.8-234.1-41.5C3332,1066.8,3158.3,1057,2968,1057
						L2968,1057z"/>
				</g>
				<g>
					<defs>
						<path id="SVGID_00000129921598590242928080000005280543381418696077_" d="M2841.3,819.2c14.4,112-30.4,171.2-100.8,275.1
							c-38.4,56.7-139.2,156.8-139.2,156.8s209.5-89.8,367.9-140.8c139.2-44.8,332.7-81.6,355.1-83.2c68.8-4.8,62.4,17.6,6.4,41.6
							c-33.9,14.5-265.5,105.6-435.1,174.4c-186.7,75.7-377.5,182.4-412.7,169.6c-4.6-1.7-9.1-4-13.5-6.9
							c-39.1-25.7-43.3-81.7-12.1-116.6c36.8-41.1,103-93.6,200-209.2c88.9-106.1,94.2-230-19.2-212.7
							c-73.6,11.2-118.4,96-142.4,105.6c-27.1,10.8-54.6-11.4-51.2-35.2c3.2-22.4,51.2-56,68.8-97.6
							c16.4-38.7,73.6-116.8,188.7-118.4C2786.9,720.4,2834,761.7,2841.3,819.2"/>
					</defs>
					<clipPath id="SVGID_00000015321768976107194750000006831561805412012988_">
						<use xlink:href="#SVGID_00000129921598590242928080000005280543381418696077_"  style="overflow:visible;"/>
					</clipPath>
					
						<path id="path2796_00000160175160511218739330000015264543303890130858_" style="clip-path:url(#SVGID_00000015321768976107194750000006831561805412012988_);fill:#FFFFFF;" d="
						M2428.7,1425.4v-705h964.5v705H2428.7z"/>
				</g>
				<g>
					<defs>
						<path id="SVGID_00000027567678519625264960000011521314188181634186_" d="M2160.2,882.8c7.5,15,5.5,33.6,14.4,49.6
							c8,14.4-30.8,113.3-43.2,160c-14.4,54.4-35.7,130.6-35.7,130.6s79.8-106.2,115.7-151.4c43.2-54.4,118.2-130.1,148.8-124.8
							c64,11.2,5.6,147.8-8.2,211.8c-15.7,40-53.8,130.7-30.4,133.5c29,3.4,35.3-41,54-24.2c32.6,29.2-73.6,112-92.2,99.6
							c-16.8-11.2-40,17.6-62.4-12.8c-19.7-26.8-14.7-64.2,21.6-149.6c36.3-85.3,62.1-167.7,62.1-167.7s-51.1,54.8-110.9,140.8
							c-68.2,98.1-108.8,155.7-153.6,166.4c-7.2,1.7-14.5-0.8-21.1-5c-17.1-11-25.2-31.7-22-51.8c4.9-30.9,13.9-84.4,23.9-124.5
							c14.9-59.7,32-123.7,51.2-174.9c-154.3,168.9-296.3,394.8-366.4,504.5c-3.1,4.8-7.8,8.2-13.3,9.7c-11.7,3-22.6,5.5-34.2,7.4
							c-13.9,2.3-26.9-8-27-22.1c-0.2-49.6,23.4-30.7,42.1-64.4c34.5-62.1,345.5-472.4,430.8-540.7
							C2134.2,858.7,2150.6,863.6,2160.2,882.8"/>
					</defs>
					<clipPath id="SVGID_00000116235846862218953610000018124250772382939790_">
						<use xlink:href="#SVGID_00000027567678519625264960000011521314188181634186_"  style="overflow:visible;"/>
					</clipPath>
					
						<path id="path2824_00000036210655931194339050000004733598994985598638_" style="clip-path:url(#SVGID_00000116235846862218953610000018124250772382939790_);fill:#FFFFFF;" d="
						M1624.3,1513V858.7h799.8V1513H1624.3z"/>
				</g>
				<path d="M2138.3,866.5c9.8,0,16.8,6.1,21.9,16.3c7.5,15,5.5,33.6,14.4,49.6c8,14.4-30.8,113.3-43.2,160
					c-14.4,54.4-35.7,130.6-35.7,130.6s79.8-106.2,115.7-151.4c41.7-52.5,113.2-125,145.5-125c1.1,0,2.2,0.1,3.2,0.3
					c46.6,8.2,28.3,83,9.5,147.7c-11.6,40-24.7,79.6-38.8,118.8c-13.7,38-24.5,77-9.3,78.8c1.1,0.1,2.1,0.2,3.1,0.2
					c22,0,30.1-28.2,42.7-28.2c2.5,0,5.2,1.1,8.2,3.8c30.3,27.2-59.6,100.8-87.2,100.8c-2,0-3.7-0.4-5-1.3c-3-2-6.3-2.7-9.7-2.7
					c-8.4,0-17.8,4.4-27.6,4.4c-8.2,0-16.7-3.1-25.1-14.5c-19.7-26.8-14.7-64.2,21.6-149.6c36.3-85.3,62.1-167.7,62.1-167.7
					s-51.1,54.8-110.9,140.8c-68.2,98.1-108.8,155.7-153.6,166.4c-1.6,0.4-3.1,0.5-4.7,0.5c-5.6,0-11.2-2.2-16.4-5.5
					c-17.2-11-25.2-31.7-22.1-51.8c4.9-30.9,13.9-84.4,23.9-124.4c14.9-59.7,32-123.7,51.2-174.9
					c-154.3,168.9-296.3,394.8-366.4,504.5c-3.1,4.8-7.8,8.2-13.4,9.7c-11.7,3-22.6,5.5-34.2,7.4c-1.3,0.2-2.6,0.3-3.8,0.3
					c-12.3,0-23.1-9.7-23.1-22.4c-0.2-49.6,23.4-30.7,42.1-64.4c34.5-62.1,345.5-472.4,430.8-540.7
					C2118.4,871.4,2129.5,866.5,2138.3,866.5 M2138.3,835.8L2138.3,835.8c-16.6,0-34,7.5-53.3,23
					c-52.9,42.3-172.8,192.2-239.5,277.7c-93.3,119.6-180.7,239-199,272c-3.6,6.4-6.3,8.1-12.2,11.7c-6.7,4.1-16.8,10.2-24.1,22.7
					c-6.7,11.4-9.8,25.7-9.7,45.2c0.1,29.2,24.3,53,53.9,53c2.9,0,5.9-0.2,8.8-0.7c11.6-1.9,23-4.4,37-8
					c13.1-3.4,24.3-11.5,31.5-22.9c3-4.7,6.2-9.6,9.4-14.8c56.5-88.6,150.9-236.5,258.7-373c-3,11.6-5.9,23.1-8.7,34.2
					c-10.4,41.8-19.8,97.6-24.5,127.1c-5.2,32.9,8.9,65.3,35.9,82.6c10.8,6.9,21.8,10.4,32.9,10.4c4,0,8-0.5,11.8-1.4
					c52.9-12.6,94-67.4,157.3-158c-28.2,70.8-36.5,118.3-8.4,156.5c16.4,22.3,36.2,27,49.8,27c8.7,0,16.1-1.7,22-3.2
					c1.1-0.3,2.3-0.6,3.4-0.8c5.1,2.3,10.9,3.6,16.9,3.6c23.9,0,52.8-20.2,67.9-32.3c14.9-11.9,41.4-35.9,51.8-62.9
					c8.7-22.6,4.2-44.8-12-59.3c-10.7-9.6-21.5-11.6-28.7-11.6c-4.2,0-8,0.6-11.5,1.7c6.4-18.8,33.8-99.3,39-116.9
					c8-27.4,17.1-58.4,21.9-87c6.6-39,3.9-66.4-8.4-86.3c-9.5-15.3-24.4-25.2-42.9-28.4c-2.8-0.5-5.6-0.7-8.5-0.7c0,0,0,0,0,0
					c-14.7,0-39.9,5.3-89.9,50.8c-26,23.6-55.7,55.7-79.7,85.8c-5.6,7-12.2,15.5-19.3,24.7c3.2-10.2,6.9-21.4,10.7-33
					c26.2-79.5,33.8-106.8,22.8-126.6c-2.2-4-3.3-10.1-4.6-17.1c-1.7-9.5-3.7-20.3-9.2-31.3C2173.2,840.1,2150.6,835.8,2138.3,835.8
					L2138.3,835.8z"/>
				<g>
					<g>
						<defs>
							<path id="SVGID_00000147200176723962632070000001419471208334562212_" d="M1598.7,458.4c-28.4,111.3-61.8,283.7-63.4,419.4
								c-1.2,101.1-5.9,283.3,0.5,379.3c35.2,5.9,58.1,26.7,59.2,49.1c1.8,38.4-30.4,46.4-52.8,55.2c4.8,108,14.4,187.9,56.5,278.6
								c17.1,29.9,17.4,60.1-17.1,78.9c-46.9,25.6-49.1-14.9-110.9-6.4c-17.9,2.5-64-4.3-96-55.4c-42.5-68-46.9-174.9-74.6-292.2
								c-145,0-204.7,68.2-454.3,42.7c-40.5,53.3-67.7,94.8-136.5,191.9c-98.1,138.6-141.4,205.8-202.6,241
								c-70.4,40.5-128,32-171.7,26.9c-18.3-2.1-41.5-37.6-24.5-61C427.8,1645.1,528,1535.4,624,1407.5c0,0-215.4,29.9-236.2-43.2
								c-18.9-66.4,69.8-76.2,104-116.8c49.8-59.1,134.4-23.5,243.1-25.6c117.3-145,249.5-294.3,373.2-430.8
								C1266.3,616.6,1509,322.8,1556,326.2C1615.8,330.4,1612.5,404,1598.7,458.4z M1349.2,776.2
								c-136.5,149.3-268.7,302.9-390.3,458.5c113-4.3,181.3,21.3,332.7,14.9C1295.7,1085.9,1315,934,1349.2,776.2"/>
						</defs>
						<clipPath id="SVGID_00000122711349801109381480000007004123425119711920_">
							<use xlink:href="#SVGID_00000147200176723962632070000001419471208334562212_"  style="overflow:visible;"/>
						</clipPath>
						
							<path id="path2852_00000008106508065867819420000007496952567605772941_" style="clip-path:url(#SVGID_00000122711349801109381480000007004123425119711920_);fill:#FFFFFF;" d="
							M293.4,1881V322.8H1616V1881H293.4z"/>
					</g>
					<path d="M1555.2,326.1c0.3,0,0.6,0,0.8,0c59.7,4.3,56.5,77.9,42.7,132.2c-28.4,111.3-61.8,283.7-63.4,419.5
						c-1.1,101.1-5.9,283.3,0.5,379.3c35.2,5.9,58.1,26.7,59.2,49.1c1.8,38.4-30.4,46.4-52.8,55.2c4.8,108,14.4,187.9,56.5,278.6
						c17.1,29.9,17.4,60.1-17.1,78.9c-11.6,6.3-20.4,8.6-28.1,8.6c-20.4,0-32.7-16.2-66.2-16.2c-5,0-10.5,0.4-16.6,1.2
						c-2,0.3-4.3,0.4-6.9,0.4c-21,0-60.6-10.4-89-55.9c-42.5-68-46.9-174.9-74.6-292.2c-122.1,0-183.7,48.4-349.2,48.4
						c-31,0-65.7-1.7-105.1-5.7c-40.5,53.3-67.7,94.8-136.5,191.9c-98.1,138.6-141.4,205.8-202.6,241c-43.4,25-81.9,31.3-115.3,31.3
						c-20.8,0-39.6-2.5-56.4-4.4c-18.3-2.1-41.5-37.6-24.5-61C427.8,1645.1,528,1535.4,624,1407.5c0,0-43.6,6-93.4,6
						c-61,0-131.3-9-142.8-49.2c-18.9-66.4,69.9-76.2,104-116.8c22.9-27.2,53.1-34.3,89.7-34.3c40.6,0,89,8.8,143.8,8.8
						c3.2,0,6.4,0,9.7-0.1c117.3-145,249.5-294.3,373.2-430.8C1265.5,617.5,1506.3,326.1,1555.2,326.1 M958.9,1234.7
						c8.8-0.3,17.3-0.5,25.6-0.5c86.6,0,150.3,16.4,259.1,16.4c15.1,0,31-0.3,48-1c4.2-163.8,23.5-315.6,57.6-473.5
						C1212.7,925.5,1080.4,1079,958.9,1234.7 M1555.2,295.4c-24,0-55.7,18.6-146.6,113.9c-59.6,62.5-131.5,144.2-200.9,223.3
						c-43.8,49.8-85.1,96.8-122.3,137.9c-96.8,106.8-238.9,265.5-365.2,420.8c-26.1-0.3-50.8-2.5-74.7-4.7c-22.5-2.1-43.8-4-64-4
						c-35,0-79.4,5.1-113.2,45.3c-8.2,9.7-24.2,18.8-39.6,27.5c-19.1,10.8-38.8,22-53.4,38.5c-19.5,22.1-25.4,49.4-17,79
						c8.3,29.2,33.3,49.7,74.3,60.9c25.8,7.1,58.8,10.6,98.1,10.6c9.2,0,18.2-0.2,26.7-0.5c-27.8,35.4-56.2,70.2-85.6,106.3
						c-58.6,71.9-119.2,146.2-186.1,238.1c-13.7,18.9-15.7,43.2-5.3,66.8c10.4,23.7,30.4,40.5,51.1,42.9l4.6,0.5
						c16.2,1.9,34.6,4.1,55.3,4.1c46.5,0,89.3-11.6,130.7-35.4c61-35.1,102.4-93.8,184.7-210.7c8.7-12.4,17.9-25.4,27.7-39.2
						c23.8-33.7,42.4-60.3,58.8-83.8c26.5-38,45.3-64.8,66.8-93.7c31.9,2.8,62.4,4.2,90.9,4.2c92.6,0,154.7-14.8,209.5-27.8
						c39.1-9.3,73.8-17.5,115.2-19.9c6.1,28.5,11,56.3,15.8,83.4c13.6,76.5,25.3,142.6,57.2,193.6c15.6,25,35.6,43.8,59.3,56
						c24.1,12.4,45.3,14.3,55.8,14.3c3.9,0,7.7-0.2,11.2-0.7c4.4-0.6,8.6-0.9,12.4-0.9c12.6,0,20.1,3.2,29.6,7.2
						c9.5,4,21.4,9,36.6,9c13.6,0,27.6-4,42.8-12.3c27.2-14.8,37.6-34.7,41.6-48.8c6.1-21.7,2-46.3-11.9-71.1
						c-35.8-77.5-46.9-147.4-52.1-244c8.9-3.9,18.2-8.9,26.7-16.1c17.6-15.1,26.2-36.3,25-61.1c-0.9-19.6-10.7-38.4-27.6-52.7
						c-9.3-7.9-20.4-14.2-32.8-18.8c-3.5-78.4-1.6-198.7-0.2-288.7c0.4-24.1,0.7-46.8,1-66.3c1.5-129,33.2-297.5,62.4-412.2
						c4.3-16.8,9.4-42.4,9.4-68.4c-0.1-28.9-6.5-52.3-19-69.7c-14-19.3-34.9-30.5-60.6-32.4C1557.2,295.4,1556.2,295.4,1555.2,295.4
						L1555.2,295.4z M1021.9,1204.4c83.6-104.8,174.6-212.3,275.7-325.4c-20.1,114.7-31.7,225.6-35.9,340.8
						c-6.1,0.1-12.2,0.2-18.1,0.2c-56,0-99.6-4.5-141.7-8.8C1075.1,1208.4,1049.3,1205.8,1021.9,1204.4L1021.9,1204.4z"/>
				</g>
				<path d="M2705.7,721.6c82.5,0,128.4,40.9,135.7,97.6c14.4,112-30.4,171.1-100.8,275.1c-38.4,56.7-139.2,156.8-139.2,156.8
					s209.5-89.8,367.9-140.8c139.2-44.8,332.7-81.6,355.1-83.2c6.4-0.4,12.1-0.7,17.1-0.7c50,0,40.1,20.5-10.8,42.2
					c-33.9,14.6-265.5,105.6-435.1,174.4c-176.3,71.5-356.3,170.6-405.4,170.6c-2.9,0-5.3-0.3-7.3-1.1c-4.6-1.7-9.1-4-13.5-6.9
					c-39.1-25.7-43.3-81.7-12.1-116.6c36.8-41.1,103-93.6,200-209.2c83.3-99.4,93.2-214.4,0.9-214.4c-6.2,0-13,0.5-20.1,1.6
					c-73.6,11.2-118.4,96-142.4,105.6c-4.9,1.9-9.7,2.8-14.4,2.8c-21.5,0-39.6-18.5-36.8-38c3.2-22.4,51.2-56,68.8-97.6
					c16.4-38.7,73.6-116.8,188.8-118.4C2703.4,721.6,2704.5,721.6,2705.7,721.6 M2705.7,690.8L2705.7,690.8c-1.3,0-2.6,0-3.9,0
					c-56.7,0.8-108.6,18.8-150.2,52c-41.5,33.1-60.3,70.6-66.5,85.1c-7.1,16.9-22.5,34.1-36.1,49.3c-17.2,19.3-32,35.9-34.8,55.9
					c-2.5,17.4,3,35.4,15.1,49.3c13.1,15.1,32.1,23.8,52.1,23.8c8.8,0,17.5-1.7,25.9-5c14.6-5.8,26.2-18.8,42.3-36.7
					c23.2-25.8,54.9-61.2,93.3-67c5.5-0.8,10.8-1.3,15.5-1.3c24.1,0,29,10.6,30.8,14.5c6,12.9,4.9,34.4-3,59
					c-9.4,29.2-28,61.3-52.4,90.3c-63.4,75.6-113.9,124.2-150.7,159.7c-19,18.3-35.5,34.2-48.6,48.8c-21.8,24.3-31.8,56.8-27.6,89.1
					c4,30.4,20.6,57.3,45.7,73.8c6.4,4.2,13.1,7.6,19.9,10c5.4,2,11.2,2.9,17.8,2.9c34.5,0,96.4-28,212.1-81.8
					c63-29.3,134.5-62.5,204.9-91.1c89.1-36.2,195.7-78.6,281.2-112.6c77.1-30.7,138-54.9,154.4-62c16.8-7.2,30.2-14.6,39.8-21.9
					c22.1-16.8,24-33.9,21.6-45.3c-1.4-6.7-7.1-23.2-30.1-30.2c-8.6-2.6-19.3-3.9-32.8-3.9c-5.9,0-12.4,0.2-19.3,0.7
					c-24.6,1.7-221,39.1-362.4,84.6c-77.3,24.9-167.2,59.2-239.1,87.8c17.6-20.3,33.9-40.4,45.3-57.2c3.4-5,6.7-9.9,10-14.7
					c33.6-49.5,60.2-88.6,77.8-131.5c19.4-47.4,25.1-95.1,18.1-150.1c-4.8-37.2-22.6-68.5-51.5-90.6
					C2791,702.2,2752.4,690.8,2705.7,690.8L2705.7,690.8z"/>
			</g>
		</g>
		<rect x="2428.7" y="1023.2" class="st0" width="53.2" height="39.6"/>
		<rect x="2372.8" y="486.7" width="21.7" height="32.2"/>
	</g>
</g>
</svg>
