<?xml version="1.0" encoding="utf-8"?>
<!-- Generator: Adobe Illustrator 25.4.1, SVG Export Plug-In . SVG Version: 6.00 Build 0)  -->
<svg version="1.1" id="Layer_1" xmlns="http://www.w3.org/2000/svg" xmlns:xlink="http://www.w3.org/1999/xlink" x="0px" y="0px"
	 viewBox="0 0 3839 1713" style="enable-background:new 0 0 3839 1713;" xml:space="preserve">
<style type="text/css">
	.st0{fill:#FFFFFF;}
</style>
<g>
	<g>
		<g>
			<g>
				<g>
					<path class="st0" d="M507.8,808.5H0v158.4h507.8c97.5,0,178.7-81.3,178.7-178.7s-81.3-178.7-178.7-178.7H377.8
						c-117.8,0-215.3-97.5-215.3-215.3S260,178.7,377.8,178.7h503.7V20.3H373.8C166.6,20.3,0,186.9,0,394.1s166.6,373.8,373.8,373.8
						h129.9c12.2,0,20.3,8.1,20.3,20.3C524,800.3,515.9,808.5,507.8,808.5z"/>
					<path class="st0" d="M373.8,377.8h507.8V215.3H373.8c-97.5,0-178.7,81.3-178.7,178.7s81.3,178.7,178.7,178.7h129.9
						c117.8,0,215.3,97.5,215.3,215.3s-97.5,215.3-215.3,215.3H0v158.4h507.8c207.2,0,373.8-166.6,373.8-373.8
						S715,414.4,507.8,414.4H377.8c-12.2,0-20.3-8.1-20.3-20.3C357.5,385.9,365.6,377.8,373.8,377.8z"/>
				</g>
				<g>
					<path class="st0" d="M2197.8,215.3c-69.1,0-121.9,52.8-121.9,121.9v507.8c0,69.1,52.8,121.9,121.9,121.9h329.1V609.3h-251.9
						v158.4h93.4v36.6h-93.4c-20.3,0-36.6-16.3-36.6-36.6V410.3c0-20.3,16.3-36.6,36.6-36.6H2726V215.3H2197.8z"/>
					<path class="st0" d="M3197.2,966.9h369.6L3315,219.4c-8.1-20.3-24.3-36.6-48.8-36.6c-20.3,0-40.6,16.3-48.8,32.5l-325,946.6
						h186.9l113.8-337.1v142.2H3197.2z M3262.2,625.6l52.8,162.5h-109.7L3262.2,625.6z"/>
					<path class="st0" d="M3510,186.9C3477.5,81.3,3380.1,0,3262.2,0s-215.3,77.1-243.7,182.9l-296.5,869.3V414.4h-446.9v158.4
						h292.5v430.6h-365.7c-89.4,0-158.4-73.1-158.4-158.4V337.1c0-89.4,73.1-158.4,158.4-158.4h524V20.3h-528.2
						c-174.7,0-316.8,142.2-316.8,316.8V845c0,174.7,142.2,316.8,316.8,316.8h654.1l329.1-954.7c12.2-36.6,44.7-61,85.3-61
						c40.6,0,73.1,24.3,85.3,61l268.2,796.2h-422.5v158.4H3839l0,0L3510,186.9z"/>
				</g>
				<g>
					<path class="st0" d="M1275.6,1003.4c-89.4,0-158.4-73.1-158.4-158.4V337.1c0-89.4,73.1-158.4,158.4-158.4h544.3V20.3h-544.3
						c-174.7,0-316.8,142.2-316.8,316.8V845c0,174.7,142.2,316.8,316.8,316.8h544.3v-158.4H1275.6z"/>
					<path class="st0" d="M1312.2,771.9h394.1V613.4h-552.5v235.7c0,69.1,52.8,121.9,121.9,121.9H1820V812.5h-471.2
						C1328.5,808.5,1312.2,792.2,1312.2,771.9z"/>
					<path class="st0" d="M1706.3,414.4h-394.1c0-20.3,16.3-36.6,36.6-36.6H1816V215.3h-540.3c-69.1,0-121.9,52.8-121.9,121.9v235.7
						h552.5C1706.3,572.8,1706.3,414.4,1706.3,414.4z"/>
				</g>
			</g>
		</g>
	</g>
	<g>
		<g>
			<path class="st0" d="M3139.1,1494.2h8.2c2.3,7.6,11.6,11.2,44.4,11.2c80,0,101.6-20.3,101.6-39.5c0-20.7-28.1-41.3-89.4-41.3
				c-78.8,0-133.2,33.2-133.2,48c0,3.1,1.2,5.8,2.3,8.1l-7,4.5l-61.9-62.5l8.2-3.6c2.3,1.3,5.2,2.7,8.7,2.7
				c17,0,52.6-50.4,188.1-50.4c95.2,0,167.1,39.5,167.1,91.2c0,30.6-21.6,54.4-59,62.9v0.9c49,13.4,83,39.1,83,81.7
				c0,58-73.6,99.3-187,99.3c-152.5,0-185.8-40.4-205.6-40.4c-4.7,0-8.2,1.8-11.6,4l-9.3-2.7l46.7-77.2l8.7,4c0,1.3-0.6,3.1-0.6,5.4
				c0,17.6,64.8,53.9,161.8,53.9c73.6,0,113.9-19.8,113.9-48c0-24.7-30.4-51.7-115-51.7c-43.8,0-53.2,4.9-54.9,13h-8.2v-73.6H3139.1
				z"/>
			<path class="st0" d="M3451.6,1438l8.2-4.9c1.2,1.3,3.5,2.2,7,2.2c16.3,0,60.2-63.8,184.6-63.8c72.4,0,163,31.9,163,94.4
				c0,119.5-223.2,106.9-282.8,182.4h281.5c12.8,0,17.6-3.6,17.6-10.8h8.2v75.4h-8.2c0-6.3-4.7-9.9-17.6-9.9h-375
				c0-164,293.3-156.8,293.3-234.1c0-29.2-43.8-44.4-83.6-44.4c-67.2,0-124.4,43.1-124.4,62.9c0,4,2.3,6.7,4.7,9l-7.6,5.4
				L3451.6,1438z"/>
		</g>
		<g>
			<path class="st0" d="M381.4,1472.1l-9.3-4c0.6-1.8,1.2-4,1.2-6.3c0-5.8-54.9-37.3-150.1-37.3c-91.1,0-130.2,21.6-130.2,49.4
				c0,73.7,344-34.1,344,128.5c0,59.3-74.8,105.1-224.3,105.1c-142.5,0-183.4-35-196.8-35c-3.5,0-5.3,2.2-8.2,3.6l-7.6-1.3
				l48.5-76.4l9.3,3.6c0,1.8-1.2,3.6-1.2,7.2c0,26.5,75.3,45.4,150.1,45.4c106.3,0,142.5-23.4,142.5-48.1
				c0-88.1-339.3,21.1-339.3-128c0-75.5,103.4-106.9,216.7-106.9c101.6,0,172.9,34.1,179.9,34.1c7.6,0,8.8-1.8,10.5-3.1l9.3,2.2
				L381.4,1472.1z"/>
			<path class="st0" d="M569.5,1376v6.3c-4.1,0-7.6,1.8-7.6,4c0,3.1,3.5,5.8,8.2,10.8l104,110.1l107.5-112.3
				c2.3-2.7,4.7-5.4,4.7-6.7c0-2.7-4.1-5.4-8.2-5.8v-6.3h119.7v6.3c-12.3,0.4-22.2,7.6-30.4,16.6L714.9,1562v121.3
				c0,9.9,2.9,13.5,14.6,13.5v6.3H617.9v-6.3c11.7,0,14-3.6,14-13.5V1562l-160.6-163.1c-8.8-9-14.6-16.6-28.6-16.6v-6.3H569.5z"/>
			<path class="st0" d="M1261,1472.1l-9.3-4c0.6-1.8,1.2-4,1.2-6.3c0-5.8-54.9-37.3-150.1-37.3c-91.1,0-130.2,21.6-130.2,49.4
				c0,73.7,344-34.1,344,128.5c0,59.3-74.8,105.1-224.3,105.1c-142.5,0-183.4-35-196.8-35c-3.5,0-5.3,2.2-8.2,3.6l-7.6-1.3
				l48.5-76.4l9.3,3.6c0,1.8-1.2,3.6-1.2,7.2c0,26.5,75.3,45.4,150.1,45.4c106.3,0,142.5-23.4,142.5-48.1
				c0-88.1-339.3,21.1-339.3-128c0-75.5,103.4-106.9,216.7-106.9c101.6,0,172.9,34.1,179.9,34.1c7.6,0,8.8-1.8,10.5-3.1l9.3,2.2
				L1261,1472.1z"/>
			<path class="st0" d="M1598.6,1683.3c0,9.9,2.9,13.5,18.1,13.5v6.3h-118.6v-6.3c15.2,0,17.5-3.6,17.5-13.5V1429h-140.8
				c-14,0-19.9,3.6-19.9,11.2h-8.2v-75h8.2c0,7.2,5.8,10.8,19.9,10.8h364.5c14,0,19.9-3.6,19.9-10.8h8.2v75h-8.2
				c0-7.6-5.8-11.2-19.9-11.2h-140.8V1683.3z"/>
			<path class="st0" d="M1806.5,1696.8c12.8,0,15.2-3.6,15.2-13.5v-287.5c0-9.9-2.3-13.5-15.2-13.5v-6.3h379.1
				c14,0,19.9-3.6,19.9-9.9h8.2v74.6h-8.2c0-8.1-5.8-11.7-19.9-11.7h-280.9v80h183.4c14,0,19.9-3.6,19.9-11.7h8.2v75.5h-8.2
				c0-3.6-1.2-6.3-4.7-8.1c-2.9-1.8-8.2-2.7-15.2-2.7h-183.4v88.1h286.2c14,0,19.9-3.6,19.9-10.8h8.2v73.7h-8.2
				c0-6.3-5.8-9.9-19.9-9.9h-384.3V1696.8z"/>
			<path class="st0" d="M2753.3,1376v6.3c-13.4,0-15.8,3.6-15.8,13.5v287.5c0,9.9,2.3,13.5,15.8,13.5v6.3h-112.7v-6.3
				c11.7,0,14-3.6,14-13.5v-201.7h-1.2l-150.7,221.5h-8.2l-148.9-223.7h-1.2v204c0,9.9,2.3,13.5,17.5,13.5v6.3h-104v-6.3
				c12.8,0,15.2-3.6,15.2-13.5v-287.5c0-9.9-2.3-13.5-15.2-13.5v-6.3h129.7v6.3c-7.6,0-15.2,3.1-15.2,8.5c0,4,4.1,8.1,12.8,21.1
				l118,173.4l129.7-185.1c2.9-3.6,6.4-8.5,6.4-11.7c0-4-5.3-5.8-15.2-6.3v-6.3H2753.3z"/>
		</g>
	</g>
</g>
</svg>
