<?xml version="1.0" encoding="utf-8"?>
<!-- Generator: Adobe Illustrator 25.4.1, SVG Export Plug-In . SVG Version: 6.00 Build 0)  -->
<svg version="1.1" id="Layer_1" xmlns="http://www.w3.org/2000/svg" xmlns:xlink="http://www.w3.org/1999/xlink" x="0px" y="0px"
	 viewBox="0 0 3839 1374.7" style="enable-background:new 0 0 3839 1374.7;" xml:space="preserve">
<style type="text/css">
	.st0{fill:#FFFFFF;}
</style>
<g>
	<g>
		<path class="st0" d="M395.6,1124.9l-9.7-4.2c0.6-1.9,1.2-4.2,1.2-6.5c0-6.1-56.9-38.7-155.7-38.7c-94.5,0-135.1,22.4-135.1,51.3
			c0,76.4,356.8-35.4,356.8,133.3c0,61.5-77.5,109-232.6,109c-147.8,0-190.2-36.3-204.2-36.3c-3.6,0-5.5,2.3-8.5,3.7l-7.9-1.4
			l50.3-79.2l9.7,3.7c0,1.9-1.2,3.7-1.2,7.5c0,27.5,78.1,47.1,155.7,47.1c110.3,0,147.8-24.2,147.8-49.9c0-91.3-352,21.9-352-132.8
			c0-78.3,107.2-110.9,224.8-110.9c105.4,0,179.3,35.4,186.6,35.4c7.9,0,9.1-1.9,10.9-3.3l9.7,2.3L395.6,1124.9z"/>
		<path class="st0" d="M590.7,1025.2v6.5c-4.2,0-7.9,1.9-7.9,4.2c0,3.3,3.6,6.1,8.5,11.2l107.8,114.2l111.5-116.5
			c2.4-2.8,4.8-5.6,4.8-7c0-2.8-4.2-5.6-8.5-6.1v-6.5h124.2v6.5c-12.7,0.5-23,7.9-31.5,17.2l-158.1,169.2v125.8c0,10.3,3,14,15.1,14
			v6.5H640.9v-6.5c12.1,0,14.5-3.7,14.5-14v-125.8L488.9,1049c-9.1-9.3-15.1-17.2-29.7-17.2v-6.5H590.7z"/>
		<path class="st0" d="M1307.9,1124.9l-9.7-4.2c0.6-1.9,1.2-4.2,1.2-6.5c0-6.1-56.9-38.7-155.7-38.7c-94.5,0-135.1,22.4-135.1,51.3
			c0,76.4,356.8-35.4,356.8,133.3c0,61.5-77.5,109-232.6,109c-147.8,0-190.2-36.3-204.2-36.3c-3.6,0-5.5,2.3-8.5,3.7l-7.9-1.4
			l50.3-79.2l9.7,3.7c0,1.9-1.2,3.7-1.2,7.5c0,27.5,78.1,47.1,155.7,47.1c110.3,0,147.8-24.2,147.8-49.9c0-91.3-352,21.9-352-132.8
			c0-78.3,107.2-110.9,224.8-110.9c105.4,0,179.3,35.4,186.6,35.4c7.9,0,9.1-1.9,10.9-3.3l9.7,2.3L1307.9,1124.9z"/>
		<path class="st0" d="M1658.1,1343.9c0,10.3,3,14,18.8,14v6.5h-123v-6.5c15.8,0,18.2-3.7,18.2-14v-263.8h-146
			c-14.5,0-20.6,3.7-20.6,11.7h-8.5V1014h8.5c0,7.5,6.1,11.2,20.6,11.2h378c14.5,0,20.6-3.7,20.6-11.2h8.5v77.8h-8.5
			c0-7.9-6.1-11.7-20.6-11.7h-146V1343.9z"/>
		<path class="st0" d="M1873.8,1357.9c13.3,0,15.8-3.7,15.8-14v-298.2c0-10.3-2.4-14-15.8-14v-6.5h393.2c14.5,0,20.6-3.7,20.6-10.3
			h8.5v77.4h-8.5c0-8.4-6.1-12.1-20.6-12.1h-291.4v82.9h190.2c14.5,0,20.6-3.7,20.6-12.1h8.5v78.3h-8.5c0-3.7-1.2-6.5-4.8-8.4
			c-3-1.9-8.5-2.8-15.8-2.8h-190.2v91.3h296.8c14.5,0,20.6-3.7,20.6-11.2h8.5v76.4h-8.5c0-6.5-6.1-10.3-20.6-10.3h-398.6V1357.9z"/>
		<path class="st0" d="M2855.8,1025.2v6.5c-13.9,0-16.4,3.7-16.4,14v298.2c0,10.3,2.4,14,16.4,14v6.5h-116.9v-6.5
			c12.1,0,14.5-3.7,14.5-14v-209.2h-1.2l-156.3,229.7h-8.5l-154.5-232.1h-1.2v211.6c0,10.3,2.4,14,18.2,14v6.5H2342v-6.5
			c13.3,0,15.8-3.7,15.8-14v-298.2c0-10.3-2.4-14-15.8-14v-6.5h134.5v6.5c-7.9,0-15.8,3.3-15.8,8.9c0,4.2,4.2,8.4,13.3,21.9
			l122.4,179.9l134.5-192c3-3.7,6.7-8.9,6.7-12.1c0-4.2-5.5-6.1-15.8-6.5v-6.5H2855.8z"/>
		<path class="st0" d="M3262.1,1110.9c-46,0.9-53.3,7.5-55.7,18.6h-8.5V1055h8.5c0,7.5,6.7,10.3,15.1,10.3
			c12.7,0,41.8-9.8,41.8-21.9c0-7-7.3-11.7-15.8-11.7v-6.5h118.7v6.5c-13.3,0-18.2,5.6-18.2,16.8v292.7c0,11.2,4.8,16.8,18.2,16.8
			v6.5h-122.4v-6.5c13.3,0,18.2-5.6,18.2-16.8V1110.9z"/>
		<path class="st0" d="M3768.7,1122.1l-7.3-2.8c1.2-1.9,1.2-3.3,1.2-5.1c0-11.2-35.7-38.7-107.2-38.7c-86,0-142.4,35-148.4,102.5
			c45.4-30.3,98.1-40.1,149-40.1c92.7,0,183,37.3,183,112.3c0,86.2-103,118.8-200.5,118.8c-141.8,0-217.5-63.8-217.5-170.1
			c0-106.2,92.1-178.5,230.2-178.5c43.6,0,76.9,7.5,101.2,14.9c24.2,7.5,39.4,14.9,45.4,14.9c4.8,0,6.7-1.9,9.1-4.2l7.9,2.3
			L3768.7,1122.1z M3637.9,1192.9c-72.7,0-115.1,31.7-115.1,60.6c0,41.9,42.4,60.6,115.1,60.6c72.7,0,115.1-18.6,115.1-60.6
			C3753,1211.6,3710.6,1192.9,3637.9,1192.9z"/>
	</g>
	<g>
		<path class="st0" d="M2934,151C2906.3,62.9,2823.3,0,2727.6,0c-95.6,0-178.7,62.9-206.4,151l-73,216.5V12.6h-382.6
			c-68,0-130.9,27.7-178.7,73v-73h-392.7c-73,0-138.4,30.2-186.3,80.5V12.6H935.5C776.9,12.6,646,143.5,646,302
			c0,75.5,30.2,146,78,196.3h-78v337.3h372.5c105.7,0,196.3-55.4,249.2-141c42.8,83.1,128.4,141,229.1,141h395.2v-73
			c45.3,45.3,108.2,73,178.7,73h1092.4L2934,151z"/>
		<g>
			<g>
				<g>
					<path d="M1018.5,558.8H703.9V657h314.6c60.4,0,110.8-50.3,110.8-110.8s-50.3-110.8-110.8-110.8H938
						c-73,0-133.4-60.4-133.4-133.4S865,168.6,938,168.6h312.1V70.5H935.5c-128.4,0-231.6,103.2-231.6,231.6
						s103.2,231.6,231.6,231.6h80.5c7.6,0,12.6,5,12.6,12.6C1028.6,553.8,1023.6,558.8,1018.5,558.8z"/>
					<path d="M935.5,292h314.6V191.3H935.5c-60.4,0-110.8,50.3-110.8,110.8S875,412.8,935.5,412.8h80.5c73,0,133.4,60.4,133.4,133.4
						S1089,679.6,1016,679.6H703.9v98.2h314.6c128.4,0,231.6-103.2,231.6-231.6s-103.2-231.6-231.6-231.6H938
						c-7.6,0-12.6-5-12.6-12.6C925.4,297,930.4,292,935.5,292z"/>
				</g>
				<g>
					<path d="M2065.6,191.3c-42.8,0-75.5,32.7-75.5,75.5v314.6c0,42.8,32.7,75.5,75.5,75.5h203.9V435.5h-156.1v98.2h57.9v22.7h-57.9
						c-12.6,0-22.7-10.1-22.7-22.7V312.1c0-12.6,10.1-22.7,22.7-22.7h279.4v-98.2H2065.6z"/>
					<path d="M2684.8,657h229.1l-156.1-463.1c-5-12.6-15.1-22.7-30.2-22.7c-12.6,0-25.2,10.1-30.2,20.1L2496,777.8h115.8l70.5-208.9
						V657H2684.8z M2725.1,445.5l32.7,100.7h-68L2725.1,445.5z"/>
					<path d="M2878.6,173.7c-20.1-65.4-80.5-115.8-153.5-115.8c-73,0-133.4,47.8-151,113.3l-183.7,538.7V314.6h-276.9v98.2h181.2
						v266.8h-226.5c-55.4,0-98.2-45.3-98.2-98.2V266.8c0-55.4,45.3-98.2,98.2-98.2h324.7V70.5h-327.2
						c-108.2,0-196.3,88.1-196.3,196.3v314.6c0,108.2,88.1,196.3,196.3,196.3h405.2l203.9-591.5c7.6-22.7,27.7-37.8,52.9-37.8
						c25.2,0,45.3,15.1,52.9,37.8l166.1,493.3h-261.8v98.2h397.7l0,0L2878.6,173.7z"/>
				</g>
				<g>
					<path d="M1494.2,679.6c-55.4,0-98.2-45.3-98.2-98.2V266.8c0-55.4,45.3-98.2,98.2-98.2h337.3V70.5h-337.3
						c-108.2,0-196.3,88.1-196.3,196.3v314.6c0,108.2,88.1,196.3,196.3,196.3h337.3v-98.2H1494.2z"/>
					<path d="M1516.9,536.1h244.2V438h-342.3v146c0,42.8,32.7,75.5,75.5,75.5h337.3v-98.2h-292
						C1527,558.8,1516.9,548.7,1516.9,536.1z"/>
					<path d="M1761.1,314.6h-244.2c0-12.6,10.1-22.7,22.7-22.7H1829V191.3h-334.8c-42.8,0-75.5,32.7-75.5,75.5v146h342.3
						C1761.1,412.8,1761.1,314.6,1761.1,314.6z"/>
				</g>
			</g>
		</g>
	</g>
</g>
</svg>
