<?xml version="1.0" encoding="utf-8"?>
<!-- Generator: Adobe Illustrator 25.0.0, SVG Export Plug-In . SVG Version: 6.00 Build 0)  -->
<svg version="1.1" id="Layer_1" xmlns="http://www.w3.org/2000/svg" xmlns:xlink="http://www.w3.org/1999/xlink" x="0px" y="0px"
	 viewBox="0 0 3839 1788.6" style="enable-background:new 0 0 3839 1788.6;" xml:space="preserve">
<style type="text/css">
	.st0{fill:#FFFFFF;}
	.st1{fill:#1281C4;}
	.st2{fill:#0057A6;}
</style>
<g>
	<g>
		<path class="st0" d="M3489.7,230.3C3447.4,96,3320.7,0,3174.9,0c-145.9,0-272.6,96-314.8,230.3l-111.3,330.2V19.2h-583.5
			c-103.7,0-199.6,42.2-272.6,111.3V19.2h-598.9c-111.3,0-211.1,46.1-284.1,122.8V19.2H441.5C199.6,19.2,0,218.8,0,460.7
			c0,115.2,46.1,222.7,119,299.4H0v514.4h568.2c161.2,0,299.4-84.5,380.1-215c65.3,126.7,195.8,215,349.3,215h602.7v-111.3
			c69.1,69.1,165.1,111.3,272.6,111.3H3839L3489.7,230.3z"/>
		<g>
			<g>
				<path d="M568.2,852.3H88.3V1002h479.9c92.1,0,168.9-76.8,168.9-168.9s-76.8-168.9-168.9-168.9H445.3
					c-111.3,0-203.5-92.1-203.5-203.5S334,257.2,445.3,257.2h476V107.5H441.5c-195.8,0-353.2,157.4-353.2,353.2
					s157.4,353.2,353.2,353.2h122.8c11.5,0,19.2,7.7,19.2,19.2C583.5,844.6,575.8,852.3,568.2,852.3z"/>
				<path d="M441.5,445.3h479.9V291.8H441.5c-92.1,0-168.9,76.8-168.9,168.9s76.8,168.9,168.9,168.9h122.8
					c111.3,0,203.5,92.1,203.5,203.5s-92.1,203.5-203.5,203.5h-476v149.7h479.9c195.8,0,353.2-157.4,353.2-353.2
					S764,479.9,568.2,479.9H445.3c-11.5,0-19.2-7.7-19.2-19.2C426.1,453,433.8,445.3,441.5,445.3z"/>
			</g>
			<g>
				<path d="M2165.2,291.8c-65.3,0-115.2,49.9-115.2,115.2v479.9c0,65.3,49.9,115.2,115.2,115.2h311V664.1h-238v149.7h88.3v34.6
					h-88.3c-19.2,0-34.6-15.4-34.6-34.6V476c0-19.2,15.4-34.6,34.6-34.6h426.1V291.8H2165.2z"/>
				<path d="M3109.6,1002h349.3l-238-706.4c-7.7-19.2-23-34.6-46.1-34.6c-19.2,0-38.4,15.4-46.1,30.7l-307.1,894.5h176.6
					l107.5-318.6V1002H3109.6z M3171,679.5l49.9,153.6h-103.7L3171,679.5z"/>
				<path d="M3405.2,264.9c-30.7-99.8-122.8-176.6-234.2-176.6s-203.5,72.9-230.3,172.8l-280.2,821.5V479.9h-422.3v149.7h276.4
					v406.9H2169c-84.5,0-149.7-69.1-149.7-149.7V406.9c0-84.5,69.1-149.7,149.7-149.7h495.2V107.5h-499.1
					c-165.1,0-299.4,134.4-299.4,299.4v479.9c0,165.1,134.4,299.4,299.4,299.4h618.1l311-902.2c11.5-34.6,42.2-57.6,80.6-57.6
					c38.4,0,69.1,23,80.6,57.6l253.4,752.4h-399.3v149.7h606.6l0,0L3405.2,264.9z"/>
			</g>
			<g>
				<path d="M1293.7,1036.5c-84.5,0-149.7-69.1-149.7-149.7V406.9c0-84.5,69.1-149.7,149.7-149.7h514.4V107.5h-514.4
					c-165.1,0-299.4,134.4-299.4,299.4v479.9c0,165.1,134.4,299.4,299.4,299.4h514.4v-149.7H1293.7z"/>
				<path d="M1328.3,817.7h372.4V668h-522.1v222.7c0,65.3,49.9,115.2,115.2,115.2h514.4V856.1h-445.3
					C1343.7,852.3,1328.3,836.9,1328.3,817.7z"/>
				<path d="M1700.7,479.9h-372.4c0-19.2,15.4-34.6,34.6-34.6h441.5V291.8h-510.6c-65.3,0-115.2,49.9-115.2,115.2v222.7h522.1
					C1700.7,629.6,1700.7,479.9,1700.7,479.9z"/>
			</g>
		</g>
	</g>
	<g>
		<g>
			<path class="st0" d="M888.2,1788.6c-90.9,0-157.9-71.5-157.9-162.4c0-90,66.6-163.3,159.3-163.3c57.1,0,91.3,20.2,122.8,49.9
				l-24.3,26.1c-26.5-25.2-56.2-43.2-99-43.2c-69.7,0-121.9,56.2-121.9,129.6s52.6,130.5,121.9,130.5c43.2,0,71.5-16.6,101.7-45.4
				l23.4,23C981.3,1766.5,945.3,1788.6,888.2,1788.6z"/>
			<path class="st0" d="M1089.8,1468.2h35.5v282.1h177.3v32.8h-212.8V1468.2z"/>
			<path class="st0" d="M1675.2,1783.2H1637l-36.9-83.2h-171.4l-37.3,83.2h-36.5l143.5-317.2h33.3L1675.2,1783.2z M1514.6,1507.3
				l-72,160.6h143.5L1514.6,1507.3z"/>
			<path class="st0" d="M1857.5,1608.6c70.2,15.3,102.6,40.9,102.6,89.5c0,54.5-45,89.5-107.5,89.5c-49.9,0-90.9-16.7-128.7-50.4
				l22-26.1c32.8,29.7,64.3,44.5,108,44.5c42.3,0,70.2-22,70.2-54c0-29.7-15.8-46.3-81.9-60.3c-72.4-15.8-105.7-39.1-105.7-91.3
				c0-50.4,43.6-86.4,103.5-86.4c45.9,0,78.7,13,110.7,38.7l-20.7,27.4c-29.2-23.8-58.5-34.2-90.9-34.2c-40.9,0-67,22.5-67,51.3
				C1772,1577.1,1788.2,1593.7,1857.5,1608.6z"/>
			<path class="st0" d="M2154.5,1608.6c70.2,15.3,102.6,40.9,102.6,89.5c0,54.5-45,89.5-107.5,89.5c-49.9,0-90.9-16.7-128.7-50.4
				l22-26.1c32.8,29.7,64.3,44.5,108,44.5c42.3,0,70.2-22,70.2-54c0-29.7-15.8-46.3-81.9-60.3c-72.4-15.8-105.7-39.1-105.7-91.3
				c0-50.4,43.6-86.4,103.5-86.4c45.9,0,78.7,13,110.7,38.7l-20.7,27.4c-29.2-23.8-58.5-34.2-90.9-34.2c-40.9,0-67,22.5-67,51.3
				C2069,1577.1,2085.2,1593.7,2154.5,1608.6z"/>
			<path class="st0" d="M2381.7,1468.2v315h-35.5v-315H2381.7z"/>
			<path class="st0" d="M2631.5,1788.6c-90.9,0-157.9-71.5-157.9-162.4c0-90,66.6-163.3,159.3-163.3c57.1,0,91.3,20.2,122.8,49.9
				l-24.3,26.1c-26.5-25.2-56.2-43.2-99-43.2c-69.7,0-121.9,56.2-121.9,129.6s52.6,130.5,121.9,130.5c43.2,0,71.5-16.6,101.7-45.4
				l23.4,23C2724.6,1766.5,2688.6,1788.6,2631.5,1788.6z"/>
			<path class="st0" d="M2946,1608.6c70.2,15.3,102.6,40.9,102.6,89.5c0,54.5-45,89.5-107.5,89.5c-49.9,0-90.9-16.7-128.7-50.4
				l22-26.1c32.8,29.7,64.3,44.5,108,44.5c42.3,0,70.2-22,70.2-54c0-29.7-15.8-46.3-81.9-60.3c-72.4-15.8-105.7-39.1-105.7-91.3
				c0-50.4,43.6-86.4,103.5-86.4c45.9,0,78.7,13,110.7,38.7l-20.7,27.4c-29.2-23.8-58.5-34.2-90.9-34.2c-40.9,0-67,22.5-67,51.3
				C2860.5,1577.1,2876.7,1593.7,2946,1608.6z"/>
		</g>
	</g>
</g>
</svg>
