<?xml version="1.0" encoding="utf-8"?>
<!-- Generator: Adobe Illustrator 25.0.0, SVG Export Plug-In . SVG Version: 6.00 Build 0)  -->
<svg version="1.1" id="Layer_1" xmlns="http://www.w3.org/2000/svg" xmlns:xlink="http://www.w3.org/1999/xlink" x="0px" y="0px"
	 viewBox="0 0 3839 1638.2" style="enable-background:new 0 0 3839 1638.2;" xml:space="preserve">
<style type="text/css">
	.st0{fill:#FFFFFF;}
	.st1{font-family:'HelveticaNeueLTStd-Cn';}
	.st2{font-size:159.8286px;}
</style>
<g>
	<g>
		<g>
			<g>
				<path class="st0" d="M3034.9,0l-216.5,320.6L2602,0h-389.9c-83.6,0-151.5,77.1-151.5,172.1v35.1h-104.4
					C1944.6,90.8,1857.4,0,1751.9,0H951.3L405.1,0c-71.7,0-137.6,18.1-196,53.9c-58.9,36.1-107.7,90-141.2,155.9
					c-66.3,130.5-66.3,299.2,0,429.7c0.4,0.8,0.9,1.7,1.3,2.5H0v543h725.5c145.2,0,238.7-65.7,293.4-124.8h116.2V1185h477.8v-52.2
					c0-40.1,28.6-72.6,63.9-72.6h778.6c35.3,0,63.9,32.5,63.9,72.6v51.5h407.4L3726.4,0H3034.9z"/>
			</g>
		</g>
		<path d="M3074.7,91.8l-256.3,379.6L2562.2,91.8l-350,0c-39,0-70.7,36-70.7,80.3l0,126.8h-264.6v-65.2c0-78.4-55.9-142-124.9-142
			H951.3l-546.2,0c-116.9,0-214.3,59.7-267.2,163.8c-52.1,102.6-52.1,235.3,0,337.9c33.4,65.7,84.5,113.7,147,140.2H80.8v359.5
			h644.8c125.4,0,202.3-58.4,244.7-107.3c4.9-5.7,9.6-11.5,14.1-17.5h231.5v124.8h316.3v-52.2c0-40.1,28.6-72.6,63.9-72.6h940.1
			c35.3,0,63.9,32.5,63.9,72.6v51.5h286.9L3562.6,91.8H3074.7z"/>
		<g>
			<g>
				<path class="st0" d="M1711.7,715.5h687.3V539.6h-687.3V715.5z M1796.1,233.7c0-27.7-19.8-50.2-44.1-50.2H951.3v50.2
					c0-27.7-19.8-50.2-44.1-50.2l-502.1,0c-301,0-301,482.1,0,482.1v0h320.5c93.8,0,93.8,159.9,0,159.9h-564v175.9h564
					c332.8,0,332.8-511.7,0-511.7H405.1v0c-80.6,4.5-89-140,0-144.5c0,0,0,0,0,0h546.2h345.3v656.3h154.8V345.2h344.6V233.7z
					 M3154.7,183.6l-336.2,498l-336.2-498H2238l551.8,817.2h57.3l551.8-817.2H3154.7z"/>
			</g>
		</g>
	</g>
	<g>
		<path class="st0" d="M208.2,1548.4v8c0,25.4,4.6,41.7,23.1,41.7c10.7,0,20.9-10.6,20.9-33.4c0-24.6-8-33.7-31.1-46.3
			c-31.1-16.7-45.5-36.8-45.5-81.9c0-52.7,20.7-79.6,53.7-79.6c31.1,0,53.7,20.9,53.7,72.8v7.6h-33.6c0-25.4-5.6-40.2-19-40.2
			c-15.8,0-19.9,15.5-19.9,31.5c0,16.7,3.2,26.9,18,36.8l27,18.2c26.3,17.8,33.1,38.7,33.1,71.7c0,57.2-22.4,83-60.3,83
			c-39.6,0-55.2-28.8-55.2-78.9v-11H208.2z"/>
		<path class="st0" d="M403.2,1362.2v44.7h-62v63.7h58.4v44.7h-58.4v72.8h64.5v44.7h-99.5v-270.7H403.2z"/>
		<path class="st0" d="M500.3,1442.6c0-20.1-5.8-45.5-19.9-45.5c-17,0-23.8,27.3-23.8,94.8c0,65.2,3.9,106.1,24.1,106.1
			c8.3,0,21.6-14,21.6-43.2v-27.7h-23.1V1487h56.7v146H510v-25h-0.5c-8.3,21.2-20.2,30.3-36.5,30.3c-43,0-51.6-50-51.6-143.7
			c0-91,13.6-137.6,58.4-137.6c38.4,0,54,30.7,54,85.7H500.3z"/>
		<path class="st0" d="M596.8,1530.9h34l-16.8-121.7h-0.5L596.8,1530.9z M592.2,1362.2h43.3l46,270.7H645l-8-57.2h-46.2l-8,57.2
			h-36.5L592.2,1362.2z"/>
		<path class="st0" d="M853.7,1362.2v44.7h-37.9v225.9h-35V1407h-37.9v-44.7H853.7z"/>
		<path class="st0" d="M870.5,1632.9v-270.7h35v270.7H870.5z"/>
		<path class="st0" d="M1033.2,1362.2v44.7h-37.9v225.9h-35V1407h-37.9v-44.7H1033.2z"/>
		<path class="st0" d="M1073.3,1530.9h34l-16.8-121.7h-0.5L1073.3,1530.9z M1068.7,1362.2h43.3l46,270.7h-36.5l-8-57.2h-46.2
			l-8,57.2h-36.5L1068.7,1362.2z"/>
		<path class="st0" d="M1210.5,1362.2l42.3,185.4h0.5v-185.4h32.1v270.7h-39.9l-42.8-189.5h-0.5v189.5h-32.1v-270.7H1210.5z"/>
		<path class="st0" d="M1394.2,1362.2l24.6,200.2h0.7l25.8-200.2h36.2l-39.9,270.7h-45l-39.9-270.7H1394.2z"/>
		<path class="st0" d="M1496.1,1632.9v-270.7h35v270.7H1496.1z"/>
		<path class="st0" d="M1593.8,1592.7h15.6c24.3,0,29.2-23.9,29.2-97.4c0-61.4-3.2-92.9-29.9-92.9h-14.8V1592.7z M1558.8,1362.2
			h57.4c48.6,0,57.4,51.9,57.4,131.5c0,95.9-13.1,139.1-59.6,139.1h-55.2V1362.2z"/>
		<path class="st0" d="M1793.8,1362.2v44.7h-62v63.7h58.4v44.7h-58.4v72.8h64.5v44.7h-99.5v-270.7H1793.8z"/>
		<path class="st0" d="M1869.2,1598c20.7,0,24.1-27.7,24.1-100.5c0-72.4-3.4-100.5-24.1-100.5s-24.1,28.1-24.1,100.5
			C1845.1,1570.4,1848.5,1598,1869.2,1598z M1869.2,1356.9c52.5,0,59.1,58.4,59.1,140.6s-6.6,140.6-59.1,140.6
			c-52.5,0-59.1-58.4-59.1-140.6S1816.7,1356.9,1869.2,1356.9z"/>
		<path class="st0" d="M2084.4,1442.6c0-20.1-5.8-45.5-19.9-45.5c-17,0-23.8,27.3-23.8,94.8c0,65.2,3.9,106.1,24.1,106.1
			c8.3,0,21.6-14,21.6-43.2v-27.7h-23.1V1487h56.7v146h-25.8v-25h-0.5c-8.3,21.2-20.2,30.3-36.5,30.3c-43,0-51.6-50-51.6-143.7
			c0-91,13.6-137.6,58.4-137.6c38.4,0,54,30.7,54,85.7H2084.4z"/>
		<path class="st0" d="M2181,1530.9h34l-16.8-121.7h-0.5L2181,1530.9z M2176.4,1362.2h43.3l46,270.7h-36.5l-8-57.2h-46.2l-8,57.2
			h-36.5L2176.4,1362.2z"/>
		<path class="st0" d="M2278.5,1362.2h52.1l24.8,191.1h0.5l25.1-191.1h51.8v270.7h-32.1v-216.1h-0.5l-30.9,216.1H2342l-30.9-216.1
			h-0.5v216.1h-32.1V1362.2z"/>
		<path class="st0" d="M2554.8,1362.2v44.7h-62v63.7h58.4v44.7h-58.4v72.8h64.5v44.7h-99.5v-270.7H2554.8z"/>
		<path class="st0" d="M2661.4,1548.4v8c0,25.4,4.6,41.7,23.1,41.7c10.7,0,20.9-10.6,20.9-33.4c0-24.6-8-33.7-31.1-46.3
			c-31.1-16.7-45.5-36.8-45.5-81.9c0-52.7,20.7-79.6,53.8-79.6c31.1,0,53.7,20.9,53.7,72.8v7.6h-33.6c0-25.4-5.6-40.2-19-40.2
			c-15.8,0-19.9,15.5-19.9,31.5c0,16.7,3.2,26.9,18,36.8l27,18.2c26.3,17.8,33.1,38.7,33.1,71.7c0,57.2-22.4,83-60.3,83
			c-39.6,0-55.2-28.8-55.2-78.9v-11H2661.4z"/>
		<path class="st0" d="M2787.4,1362.2l22.9,104.6h0.5l24.3-104.6h37.9l-45,164.1v106.5h-35v-106.5l-45-164.1H2787.4z"/>
		<path class="st0" d="M2909.7,1548.4v8c0,25.4,4.6,41.7,23.1,41.7c10.7,0,20.9-10.6,20.9-33.4c0-24.6-8-33.7-31.1-46.3
			c-31.1-16.7-45.5-36.8-45.5-81.9c0-52.7,20.7-79.6,53.8-79.6c31.1,0,53.7,20.9,53.7,72.8v7.6h-33.6c0-25.4-5.6-40.2-19-40.2
			c-15.8,0-19.9,15.5-19.9,31.5c0,16.7,3.2,26.9,18,36.8l27,18.2c26.3,17.8,33.1,38.7,33.1,71.7c0,57.2-22.4,83-60.3,83
			c-39.6,0-55.2-28.8-55.2-78.9v-11H2909.7z"/>
		<path class="st0" d="M3109.4,1362.2v44.7h-37.9v225.9h-35V1407h-37.9v-44.7H3109.4z"/>
		<path class="st0" d="M3221.5,1362.2v44.7h-62v63.7h58.4v44.7h-58.4v72.8h64.5v44.7h-99.5v-270.7H3221.5z"/>
		<path class="st0" d="M3242.2,1362.2h52.1l24.8,191.1h0.5l25.1-191.1h51.8v270.7h-32.1v-216.1h-0.5l-30.9,216.1h-27.2l-30.9-216.1
			h-0.5v216.1h-32.1V1362.2z"/>
	</g>
	<text transform="matrix(1.0156 0 0 1 3649.5781 306.8613)" class="st0 st1 st2">TM</text>
</g>
</svg>
