<?xml version="1.0" encoding="utf-8"?>
<!-- Generator: Adobe Illustrator 26.5.0, SVG Export Plug-In . SVG Version: 6.00 Build 0)  -->
<svg version="1.1" id="Layer_1" xmlns="http://www.w3.org/2000/svg" xmlns:xlink="http://www.w3.org/1999/xlink" x="0px" y="0px"
	 viewBox="0 0 3839 1058.53" style="enable-background:new 0 0 3839 1058.53;" xml:space="preserve">
<style type="text/css">
	.st0{fill:#F91716;}
	.st1{fill:#FFFFFF;}
</style>
<g>
	<g>
		<polygon class="st1" points="1930.49,859.32 2227.22,859.32 2227.22,1058.53 2259.41,1058.53 2259.41,859.32 2556.13,859.32 
			2556.13,827.13 1930.49,827.13 		"/>
		<path class="st1" d="M561.64,926.73H66.4c-44.94,0-44.94-67.41,0-67.41h553.75v-32.19H66.4c-87.86,0-87.86,131.79,0,131.79h495.25
			c44.94,0,44.94,67.41,0,67.41v0H0v32.19h561.64C649.51,1058.53,649.51,926.73,561.64,926.73z"/>
		<path class="st1" d="M1847.54,926.73h-495.25c-44.94,0-44.94-67.41,0-67.41h553.75v-32.19h-553.75c-87.86,0-87.86,131.79,0,131.79
			h495.25c44.94,0,44.94,67.41,0,67.41v0h-561.64v32.19h561.64C1935.4,1058.53,1935.4,926.73,1847.54,926.73z"/>
		<path class="st1" d="M1236.64,893.03c0,22.47-16.85,33.7-33.7,33.7v0H707.14c-22.47,0-33.71-16.85-33.71-33.7h0v-65.9h-32.19v65.9
			c0,32.95,21.97,65.9,65.9,65.9h231.8v99.6h32.19v-99.6h231.8c32.95,0,65.9-21.97,65.9-65.9v-65.9h-32.19V893.03z"/>
		<path class="st1" d="M2567.73,893.03v99.6c0,32.95,21.97,65.9,65.9,65.9h553.48v-32.19h-553.48c-22.47,0-33.71-16.85-33.71-33.7
			v-33.7h572.37v-32.19h-572.37v-33.7c0-22.47,16.85-33.7,33.71-33.7v0h553.48v-32.19h-553.48
			C2600.68,827.13,2567.73,849.1,2567.73,893.03z"/>
		<path class="st1" d="M3726.5,837.61l-180.51,170.65c-12.35,11.67-31.66,11.67-44.01,0l-180.51-170.65
			c-42.53-40.21-112.52-10.05-112.5,48.48l0.04,171.13c0,0.72,0.59,1.31,1.31,1.31h29.57c0.72,0,1.31-0.59,1.31-1.31V886.33
			c0-30.35,36.3-45.99,58.36-25.14l12.92,12.21l167.29,158.16c24.81,23.45,63.61,23.45,88.42,0l180.21-170.38
			c22.06-20.85,58.36-5.22,58.36,25.14v170.88c0,0.73,0.59,1.31,1.31,1.31h29.57c0.73,0,1.31-0.59,1.31-1.31l0.04-171.13
			C3839.02,827.56,3769.02,797.4,3726.5,837.61z"/>
	</g>
	<g>
		<g>
			<g>
				<path class="st1" d="M643.3,16h-195v25.6h25.4c34.1,0,61.7,31.8,61.7,65.7v316.4L202.9,16H0v25.6c45.3,0,81.1,40.9,81.1,86.3
					v443.4c0,45.3-47.8,60.4-81.1,60.4v25.6h220.4v-25.6c-41.3-0.2-63.1-5.9-77.2-19.2c-14.1-13.4-17.9-31.1-17.9-55.4V141.5
					l430.5,524.9h23.5V108c0-33.1,25.9-61.2,64-62.6V16z"/>
				<circle class="st1" cx="1943.7" cy="334.6" r="74.4"/>
				<path class="st1" d="M2362.6,357.3v31h24.2c39.3,0,50.5,19,50.5,52.9v151.6c-9,11-39.7,24.8-83,24.8c-8.8,0-59-1-96.5-31.8
					c-39.2-32.2-65.6-97.4-65.6-252.4c0-201.8,71-287.3,173.9-287.3c33.5,0,147,22.6,195.3,168.6h30.3V4.1h-28.6
					c-3.6,28.3-26,44-68.3,26.4C2430.9,4,2373.8,0,2332,0c-164.6,0-304.9,152.5-304.9,334.6c0,209.8,158.4,332.7,328.5,332.7
					c80.6,0,166.1-18.6,233.8-52.9V441.2c0-40.6,28.3-52.9,66.5-52.9v-31L2362.6,357.3L2362.6,357.3z"/>
				<g>
					<path class="st1" d="M1185.2,459.4c-15.9,87.9-91.7,156.5-176.7,154.3h-73.4c-23,0-41.7-18.7-41.7-41.7V347.2h20.1
						c60,0,98.3,50.2,98.3,136.6h26.3V330.7v-7.8V172.7h-26.3c0,76-32.1,130.9-98.4,130.9h-20.1V54.5h105.5
						c142,0,146.8,126.5,146.8,142.8h28.3V59.9V16H662.2v25.5h36.1c27.6,0,50,26.1,50,53.6v472.1c0,49.7-32.6,61-60.2,61h-25.9v29.2
						h86.1h433l29.2-198L1185.2,459.4L1185.2,459.4z"/>
					<path class="st1" d="M1533.5,9.3c-184.6,0-326.7,135.9-326.7,331.3s142.2,331.3,326.7,331.3c184.6,0,326.8-135.9,326.8-331.3
						S1718.1,9.3,1533.5,9.3z M1533.5,629c-88.7,0-160.4-81.2-160.4-288.5S1445,52.1,1533.5,52.1c88.7,0,160.4,81.2,160.4,288.5
						C1694.1,547.8,1622.2,629,1533.5,629z"/>
				</g>
				<g>
					<path class="st1" d="M3163.9,459.4c-15.9,87.9-91.7,156.5-176.7,154.3h-73.4c-23,0-41.7-18.7-41.7-41.7V347.2h20.1
						c60,0,98.3,50.2,98.3,136.6h26.3V330.7v-7.8V172.7h-26.3c0,76-32.1,130.9-98.4,130.9H2872V54.5h105.5
						c142,0,146.8,126.5,146.8,142.8h28.3V59.9V16h-511.7v25.5h36.1c27.6,0,50,26.1,50,53.6v472.1c0,49.7-32.6,61-60.2,61h-25.9
						v29.2h86.1h433l29.2-198L3163.9,459.4L3163.9,459.4z"/>
					<path class="st1" d="M3512.2,9.3c-184.6,0-326.7,135.9-326.7,331.3s142.2,331.3,326.7,331.3c184.6,0,326.8-135.9,326.8-331.3
						S3696.8,9.3,3512.2,9.3z M3512.2,629c-88.7,0-160.4-81.2-160.4-288.5S3423.7,52,3512.2,52c88.7,0,160.4,81.2,160.4,288.5
						C3672.8,547.8,3600.9,629,3512.2,629z"/>
				</g>
			</g>
		</g>
	</g>
</g>
</svg>
