<?xml version="1.0" encoding="utf-8"?>
<!-- Generator: Adobe Illustrator 27.0.0, SVG Export Plug-In . SVG Version: 6.00 Build 0)  -->
<svg version="1.1" id="Layer_1" xmlns="http://www.w3.org/2000/svg" xmlns:xlink="http://www.w3.org/1999/xlink" x="0px" y="0px"
	 viewBox="0 0 3899 865.7" style="enable-background:new 0 0 3899 865.7;" xml:space="preserve">
<style type="text/css">
	.st0{display:none;}
	.st1{display:inline;}
	.st2{fill:#FFFFFF;}
</style>
<g class="st0">
	<g class="st1">
		<g>
			<g>
				<g>
					<path d="M1056.8,704.2l-44.1-134.7H826l-44,134.7H673.8l190-530.9h111.7l189.9,530.9H1056.8z M986,487.7l-66.4-204l-66.8,204
						H986z"/>
				</g>
				<g>
					<path class="st2" d="M972,178.3l186.3,520.9h-97.9l-44.1-134.7H822.4l-44.1,134.7h-97.5l186.4-520.9L972,178.3 M845.9,492.7
						h147l-72.2-221.6h-2.2L845.9,492.7 M979,168.3h-7H867.3h-7l-2.4,6.6L671.5,695.8l-4.8,13.3h14.1h97.5h7.2l2.2-6.9l41.8-127.8
						H1009l41.8,127.8l2.2,6.9h7.2h97.9h14.1l-4.8-13.3L981.3,174.9L979,168.3L979,168.3z M859.6,482.7l59.9-182.9l59.6,182.9H859.6
						L859.6,482.7z"/>
				</g>
			</g>
			<g>
				<g>
					<path d="M1195.8,830.6v-519h99.9v54.8c10.8-17.4,24.6-31.6,41.2-42.1c21.5-13.7,46.5-20.6,74.4-20.6
						c49.4,0,90.7,19.1,119.6,55.2c28.7,35.9,43.9,87.5,43.9,149v0.4c0,61.2-15.1,112.5-43.8,148.4c-28.8,36.1-69.8,55.1-118.6,55.1
						c-27.4,0-53.3-6.9-74.8-20c-16.9-10.3-31.1-24.3-41.8-41.2v179.9h-100V830.6z M1384.5,389.3c-53.6,0-89.6,47.6-89.6,118.5v0.4
						c0,70.4,36,117.7,89.6,117.7c54.6,0,88.5-45.1,88.5-117.7v-0.4c0-36.4-8.4-66.6-24.2-87.4
						C1433.3,400.1,1411,389.3,1384.5,389.3z"/>
				</g>
				<g>
					<path class="st2" d="M1411.2,308.6c97.2,0,158.5,75.9,158.5,199.3v0.4c0,122.7-61.4,198.6-157.4,198.6
						c-54.5,0-98.2-27.4-119.8-72.2h-1.8v190.9h-89.9V316.5h89.9v66.1h1.8C1314.4,336.7,1356.3,308.6,1411.2,308.6 M1384.5,631
						c57.4,0,93.5-47.3,93.5-122.7v-0.4c0-76.6-36.1-123.5-93.5-123.5c-55.6,0-94.6,48.3-94.6,123.5v0.4
						C1289.9,583,1328.9,631,1384.5,631 M1411.2,298.6c-28.8,0-54.8,7.2-77,21.3c-12.8,8.2-24,18.3-33.5,30.5v-33.9v-10h-10h-89.9
						h-10v10v509.1v10h10h89.9h10v-10V666c9.6,11.9,21.2,22,34.2,30c22.3,13.6,49.1,20.8,77.4,20.8c50.4,0,92.7-19.7,122.5-57
						c29.4-36.8,44.9-89.2,44.9-151.5v-0.4c0-62.7-15.6-115.3-45-152.1C1504.8,318.4,1462.1,298.6,1411.2,298.6L1411.2,298.6z
						 M1384.5,621c-24.3,0-45.2-10.2-60.3-29.5c-15.9-20.3-24.3-49.1-24.3-83.3v-0.4c0-34.3,8.4-63.3,24.4-83.8
						c15.1-19.4,36-29.7,60.3-29.7c25,0,45.8,10.1,60.3,29.1c15.2,20,23.2,49.2,23.2,84.4v0.4c0,34.8-8,63.7-23.2,83.6
						C1430.3,610.9,1409.4,621,1384.5,621L1384.5,621z"/>
				</g>
			</g>
			<g>
				<g>
					<path d="M1618.8,830.6v-519h99.9v54.8c10.7-17.4,24.6-31.6,41.2-42.1c21.5-13.7,46.5-20.6,74.4-20.6
						c49.4,0,90.7,19.1,119.6,55.2c28.7,35.9,43.9,87.5,43.9,149v0.4c0,61.2-15.1,112.5-43.8,148.4c-28.8,36.1-69.8,55.1-118.6,55.1
						c-27.4,0-53.3-6.9-74.8-20c-16.9-10.3-31.1-24.3-41.8-41.2v180L1618.8,830.6L1618.8,830.6z M1807.5,389.3
						c-53.6,0-89.6,47.6-89.6,118.5v0.4c0,70.4,36,117.7,89.6,117.7c54.6,0,88.5-45.1,88.5-117.7v-0.4c0-36.4-8.4-66.6-24.2-87.4
						C1856.4,400.1,1834.1,389.3,1807.5,389.3z"/>
				</g>
				<g>
					<path class="st2" d="M1834.2,308.6c97.2,0,158.5,75.9,158.5,199.3v0.4c0,122.7-61.4,198.6-157.4,198.6
						c-54.5,0-98.2-27.4-119.8-72.2h-1.8v190.9h-89.9V316.5h89.9v66.1h1.8C1737.4,336.7,1779.3,308.6,1834.2,308.6 M1807.5,631
						c57.3,0,93.5-47.3,93.5-122.7v-0.4c0-76.6-36.1-123.5-93.5-123.5c-55.6,0-94.6,48.3-94.6,123.5v0.4
						C1713,583,1752,631,1807.5,631 M1834.2,298.6c-28.8,0-54.8,7.2-77,21.3c-12.8,8.2-24,18.3-33.5,30.5v-33.9v-10h-10h-89.9h-10
						v10v509.1v10h10h89.9h10v-10V666c9.6,11.9,21.2,22,34.2,30c22.3,13.6,49.1,20.8,77.4,20.8c50.4,0,92.7-19.7,122.5-57
						c29.4-36.8,44.9-89.2,44.9-151.5v-0.4c0-62.7-15.6-115.3-45-152.1C1927.8,318.4,1885.1,298.6,1834.2,298.6L1834.2,298.6z
						 M1807.5,621c-24.3,0-45.2-10.2-60.3-29.5c-15.9-20.3-24.3-49.1-24.3-83.3v-0.4c0-34.3,8.4-63.3,24.4-83.8
						c15.1-19.4,36-29.7,60.3-29.7c25,0,45.8,10.1,60.3,29.1c15.2,20,23.2,49.2,23.2,84.4v0.4c0,34.8-8,63.7-23.2,83.6
						C1853.3,610.9,1832.5,621,1807.5,621L1807.5,621z"/>
				</g>
			</g>
			<g>
				<g>
					<rect x="2044.3" y="173.3" width="99.9" height="530.9"/>
				</g>
				<g>
					<path class="st2" d="M2139.2,178.3v520.9h-89.9V178.3l0,0H2139.2 M2149.2,168.3h-10h-89.9h-10v10v520.9v10h10h89.9h10v-10
						V178.3V168.3L2149.2,168.3z"/>
				</g>
			</g>
			<g>
				<g>
					<path d="M2380,711.7c-116.4,0-188.8-77.7-188.8-202.8v-0.4c0-60.6,17.3-111.9,50.1-148.6c33.1-36.9,79.6-56.5,134.6-56.5
						c110.7,0,182.3,77.5,182.3,197.4v33.9h-267.7c3.1,60.8,37,96.9,91.6,96.9c30.9,0,67-14.2,77.9-45.9l1.6-6.1h94.4l-2.8,10.1
						c-12.3,60.7-70.6,121.9-173.1,121.9L2380,711.7z M2460.2,465c-3.6-25.7-12.6-45.7-26.9-59.7c-14.4-14.2-33.4-21.3-56.3-21.3
						c-45.4,0.1-76.8,30.3-84.9,81.1h168.1V465z"/>
				</g>
				<g>
					<path class="st2" d="M2375.9,308.5c109.3,0,177.3,76.9,177.3,192.4v28.9h-267.9c1.5,67.1,38.2,106.9,96.8,106.9
						c44.8,0,74-23.9,82.7-49.4l0.7-2.6h84.1l-1.1,4c-11.9,58.8-68.2,118.1-168.3,118.1c-0.1,0-0.2,0-0.2,0
						c-114.6,0-183.8-76.2-183.8-197.8v-0.4C2196.2,387.9,2266.6,308.5,2375.9,308.5 M2286.4,469.9h179.5c-6.5-60.6-41.2-91-88.8-91
						C2329.4,379,2293.6,411.1,2286.4,469.9 M2375.9,298.5c-28.2,0-54.5,5.1-78.1,15.1c-23.2,9.9-43.5,24.3-60.2,43
						c-33.6,37.6-51.4,90.1-51.4,151.9v0.4c0,62.4,17.8,114.7,51.6,151.2c34.1,37,83.3,56.5,142.2,56.5h0.2
						c48.3,0,90.9-13.5,123.3-39.1c28.4-22.4,47.8-53.1,54.6-86.6l1-3.6l3.5-12.6h-13.1h-84.1h-7.6l-2,7.4l-0.6,2.2
						c-10.2,29.3-44,42.4-73.2,42.4c-25.9,0-47.5-8.6-62.4-25c-13.5-14.9-21.7-36.1-23.9-61.9h257.4h10v-10v-28.9
						c0-59.6-17.4-110.2-50.2-146.3C2479.5,317.9,2432.1,298.5,2375.9,298.5L2375.9,298.5z M2298.1,460c4.3-21,13-38.3,25.4-50.4
						c13.8-13.5,32.3-20.6,53.5-20.7c21.6,0,39.4,6.7,52.8,19.9c12.4,12.2,20.6,29.3,24.5,51.2H2298.1L2298.1,460z"/>
				</g>
			</g>
			<g>
				<g>
					<path d="M2749.2,704.2V311.5h99.9v392.6h-99.9V704.2z M2799.3,266.6c-30.4,0-55.2-24.3-55.2-54.1c0-30.5,24.2-54.4,55.2-54.4
						c30.7,0,54.8,23.9,54.8,54.4C2854.1,242.4,2829.5,266.6,2799.3,266.6z"/>
				</g>
				<g>
					<path class="st2" d="M2799.3,163.1c28.2,0,49.8,22,49.8,49.4c0,26.7-21.7,49.1-49.8,49.1s-50.2-22.4-50.2-49.1
						C2749.1,185.1,2771.1,163.1,2799.3,163.1 M2844.1,316.5v382.7h-89.9V316.5H2844.1 M2799.3,153.1c-16.3,0-31.4,6.1-42.7,17.3
						c-11.3,11.1-17.5,26.1-17.5,42.1c0,32.6,27,59.1,60.2,59.1c16.2,0,31.2-6.2,42.5-17.5c11.1-11.1,17.3-25.9,17.3-41.6
						C2859.1,179.2,2832.8,153.1,2799.3,153.1L2799.3,153.1z M2854,306.6h-10h-89.9h-10v10v382.7v10h10h89.9h10v-10V316.5V306.6
						L2854,306.6z"/>
				</g>
			</g>
			<g>
				<g>
					<path d="M3155.2,713.2c-76.2,0-139.9-25.6-184.4-74.1c-44.4-48.3-67.8-117.6-67.8-200.1v-0.7c0-82.4,23.6-151.5,68.1-199.9
						c44.6-48.5,108.3-74.1,184.2-74.1c76,0,139.7,25.6,184.1,74.1c44.3,48.3,67.8,117.4,67.8,199.9v0.7
						c0,82.6-23.4,151.8-67.6,200.1C3295,687.6,3231.3,713.2,3155.2,713.2z M3155.2,255.1c-44.1,0-81.1,16.9-107.1,48.7
						c-26.3,32.3-40.2,78.8-40.2,134.3v0.7c0,55.6,13.9,102.1,40.1,134.6c25.9,32,63,48.9,107.2,48.9c44.5,0,81.7-17.1,107.6-49.3
						c26-32.4,39.7-78.8,39.7-134.2v-0.7c0-55.5-13.9-101.9-40.1-134.2C3236.4,272,3199.4,255.1,3155.2,255.1z"/>
				</g>
				<g>
					<path class="st2" d="M3155.2,169.3c152,0,246.9,103.6,246.9,269v0.7c0,165.7-94.6,269.3-246.9,269.3
						c-152.3,0-247.3-103.6-247.3-269.3v-0.7C2907.9,272.8,3003.5,169.3,3155.2,169.3 M3155.2,627.4c94.2,0,152.3-73.7,152.3-188.5
						v-0.7c0-115.6-59.2-188.1-152.3-188.1c-92.8,0-152.3,72.2-152.3,188.1v0.7C3002.8,554.8,3062.1,627.4,3155.2,627.4
						 M3155.2,159.3c-77.3,0-142.3,26.2-187.8,75.7c-45.4,49.3-69.4,119.6-69.4,203.3v0.7c0,83.9,23.9,154.2,69.2,203.5
						c45.5,49.5,110.5,75.7,188.1,75.7s142.5-26.2,187.9-75.7c45.1-49.3,68.9-119.6,68.9-203.5v-0.7c0-83.7-23.9-154-69.1-203.3
						C3297.5,185.5,3232.6,159.3,3155.2,159.3L3155.2,159.3z M3155.2,617.4c-42.6,0-78.4-16.3-103.3-47.1c-25.5-31.5-39-77-39-131.4
						v-0.7c0-54.4,13.5-99.8,39.1-131.2c25-30.7,60.7-46.9,103.2-46.9c42.6,0,78.4,16.3,103.3,47c25.5,31.4,39,76.8,39,131.1v0.7
						C3297.5,549,3243,617.4,3155.2,617.4L3155.2,617.4z"/>
				</g>
			</g>
			<g>
				<g>
					<path d="M3655.4,713.3c-59.9,0-110.9-14.2-147.6-40.9c-37.3-27.2-58.6-66.5-61.7-113.7l-0.8-10.8h98.7l1.4,8.6
						c3.1,20.5,15.1,37.6,34.8,49.6c20,12.3,47.1,18.8,78.4,18.8c31.1,0,57.1-6.7,75.2-19.3c17.5-12.2,26.7-29.3,26.7-49.7v-0.4
						c0-36.1-25.3-55.5-90.2-69.1l-55.9-11.6c-52.8-11-91.2-28.4-117.4-53.4c-26.3-25.1-39.7-58.1-39.7-98V323
						c0.4-93.5,81.9-158.8,198.1-158.8c56.5,0,105.1,14.6,140.4,42.2c35.2,27.5,55.3,66.1,58.1,111.7l0.7,11.4h-98.7l-1.4-8.7
						c-2.8-20.8-13.4-38-30.6-49.9c-17.4-12-41.4-18.4-69.1-18.4c-57.1,0.4-94,26.1-94,65.4v0.4c0,17.1,6.4,30.1,20.2,40.8
						c14.1,11,36.1,19.4,67.2,25.9l56.3,11.6c55.8,11.5,95.3,28.9,120.8,53c26.1,24.6,38.7,57.2,38.7,99.5v0.4
						C3864,650.5,3784.1,713.3,3655.4,713.3L3655.4,713.3z"/>
				</g>
				<g>
					<path class="st2" d="M3655.3,169.2c113.7,0,188.1,59.9,193.5,149.2l0.4,6.1h-89.1l-0.7-4.4c-6.1-45.5-46.3-72.6-104.7-72.6
						c-61,0.4-98.9,28.9-98.9,70.4v0.4c0,36.8,28.5,58.5,91.3,71.5l56.4,11.6c108.3,22.4,155.6,66.5,155.6,147.7v0.4
						c0,97.2-76.6,158.9-203.6,158.9c-119.4-0.1-198.2-56.5-204.3-149.9l-0.4-5.4h89.1l0.7,4.4c6.8,44.8,52.7,72.6,118.1,72.6
						c65.7,0,106.9-29.2,106.9-74v-0.4c0-39-27-59.9-94.2-74l-56-11.6c-102.5-21.3-153.1-68.9-153.1-146.6V323
						C3462.6,231.2,3543.1,169.2,3655.3,169.2 M3655.3,159.2c-28.6,0-55.7,3.9-80.4,11.6c-24.5,7.6-46.1,18.7-64.2,33.1
						c-18.5,14.6-32.9,32-42.8,51.9c-10.3,20.5-15.5,43.1-15.6,67.1v0.4c0,41.4,13.9,75.6,41.2,101.6c13.5,12.8,30.5,23.9,50.6,33.1
						c19.7,8.9,43,16.2,69.3,21.6l56,11.6c32.4,6.8,54.7,15.2,68.2,25.7c12.5,9.8,18.1,21.7,18.1,38.5v0.4
						c0,18.6-8.5,34.4-24.5,45.6c-17.3,12-42.3,18.4-72.4,18.4c-30.3,0-56.5-6.2-75.8-18c-18.3-11.2-29.5-27.2-32.4-46.1l0,0l0,0
						l-0.7-4.4l-1.3-8.4h-8.5H3451h-11l0.8,10.7l0.4,5.4c6.5,98.1,88.6,159.1,214.2,159.2c64.3,0,118.1-15.6,155.6-45.1
						c37.9-29.8,58-72.6,58-123.7V549c0-43.8-13.2-77.5-40.3-103.1c-26.3-24.8-66.6-42.6-123.3-54.3L3649,380
						c-30.3-6.3-51.6-14.4-65.1-24.9c-12.5-9.7-18.3-21.4-18.3-36.8v-0.4c0-17.2,7.8-31.9,22.5-42.5c16-11.5,39-17.7,66.5-17.9
						c26.7,0,49.7,6.1,66.3,17.5c16.3,11.2,25.9,26.8,28.5,46.5v0.1v0.1l0.7,4.4l1.3,8.4h8.5h89.1h10.6l-0.7-10.6l-0.4-6.1
						c-1.4-23.4-7.4-45.3-17.7-64.9c-10.2-19.4-24.4-36.3-42.3-50.3C3762.6,174.1,3712.9,159.2,3655.3,159.2L3655.3,159.2z"/>
				</g>
			</g>
		</g>
		<g>
			<path d="M401.4,141.9c24.8-29.7,36.9-67.9,34.2-106.5c-37.8,3.7-72.8,21.9-97.5,50.9c-24.8,28-37.3,64.9-35,102.2
				C341.4,189.3,377.8,172,401.4,141.9 M433.3,195.6c-54.4-3.2-100.2,31-126.3,31s-65.7-29.3-108.3-28.6
				c-56.9,1.6-108.7,33.4-135.9,83.4C4.6,382.4,47.2,532.7,104,614.9c27.5,39,60.6,85.7,104.5,84.1c43.9-1.6,57.4-27.1,107.6-27.1
				S381,699,424.4,698.1s73.8-39.1,101-81.5c19.6-29,34.9-60.6,45.5-94c-53.4-23.6-87.8-76.4-88.1-134.7
				c0.7-51.5,27.4-99.1,71.1-126.5C526,221.9,481.5,197.6,433.3,195.6"/>
			<path class="st2" d="M206.3,704c-45.5,0-79.2-47.7-106.4-86.2C68.9,572.9,45.4,514,35.4,456c-8.4-48-11.1-117.8,23-177.1
				c27.9-51.4,81.6-84.3,140.1-85.9c25.2-0.4,48.8,9,69.6,17.3c15.3,6.1,28.5,11.3,38.8,11.3c9.3,0,22.3-5.2,37.3-11.1
				c24.5-9.7,55.1-21.8,89.2-19.9c24.4,1,48.6,7.7,70.1,19.5c21.4,11.7,40.2,28.5,54.3,48.5l3,4.3l-4.5,2.8
				c-42.4,26.5-68.1,72.3-68.8,122.3c0.3,56.3,33.7,107.3,85.2,130.1l4.1,1.8l-1.4,4.3c-10.8,33.9-26.2,65.9-46,95.2
				c-12.3,19.1-27.3,40.9-45.2,57.3c-19.1,17.4-38.7,26.1-59.9,26.5c-22.3,0.5-37.7-6.2-52.7-12.7c-15.3-6.6-31.2-13.5-55.8-13.5
				c-25.4,0-40.6,6.6-56.6,13.6c-14.3,6.2-29.1,12.7-50.8,13.5C207.9,704,207.1,704,206.3,704z M200.2,202.9c-0.5,0-0.9,0-1.4,0
				c-54.9,1.5-105.4,32.5-131.6,80.8l-0.1,0.1C49,315.2,30.6,370.2,45.2,454.3c9.8,56.5,32.7,114,62.9,157.7
				c26.2,37.1,58.9,83.4,100.2,81.9c19.8-0.7,33.1-6.5,47.1-12.7c16.3-7.1,33.1-14.5,60.6-14.5c26.7,0,43.5,7.3,59.8,14.3
				c14.6,6.3,28.4,12.3,48.5,11.9c38.7-0.8,66.7-32.2,96.9-79.2l0.1-0.1c18.5-27.3,33.1-57.1,43.5-88.5
				c-52.7-25.2-86.7-78.6-87-137.3c0.7-51.8,26.4-99.1,69-127.8c-12.8-16.9-29.3-31.2-47.9-41.3c-20.1-11-42.8-17.3-65.7-18.2h-0.1
				c-31.9-1.9-61.4,9.8-85,19.2c-16,6.3-29.8,11.8-41,11.8c-12.3,0-26.3-5.6-42.5-12.1C244.9,211.7,222.8,202.9,200.2,202.9z
				 M305.3,193.6c-0.8,0-1.5,0-2.3,0l-4.6-0.1l-0.3-4.6c-2.4-38.4,10.7-77,36.2-105.8C359.8,53,395.6,34.3,435,30.5l5.1-0.5l0.4,5.1
				c2.9,40.1-9.6,79.2-35.3,110C381.4,175.5,344.2,193.6,305.3,193.6z M430.9,41c-34.7,4.6-66.2,21.8-89,48.6
				c-22.7,25.7-35,59.7-34,94c34.9-0.8,68.1-17.3,89.6-44.7l0.1-0.1C420.5,111.3,432.2,76.7,430.9,41z"/>
		</g>
	</g>
</g>
<g>
	<g>
		<g>
			<path class="st2" d="M1053.2,724.2c-6.5,0-12.2-4.2-14.3-10.3l-40.7-124.4H840.5l-40.7,124.4c-2,6.2-7.8,10.3-14.3,10.3H666.7
				c-4.9,0-9.5-2.4-12.3-6.4s-3.5-9.1-1.9-13.7L846,163.2c2.1-6,7.8-9.9,14.1-9.9H979c6.3,0,12,4,14.1,9.9l193.4,540.9
				c1.6,4.6,0.9,9.7-1.9,13.7s-7.4,6.4-12.3,6.4H1053.2z M958.5,467.7l-39-119.6l-39.2,119.6H958.5z"/>
			<path class="st2" d="M979,168.3l2.4,6.6l186.3,520.9l4.8,13.3h-14.1h-97.9h-7.2l-2.2-6.9l-41.8-127.8H829.6l-41.8,127.8l-2.2,6.9
				h-7.2h-97.5h-14.1l4.8-13.3L858,174.9l2.4-6.6h7H972L979,168.3 M859.6,482.7h119.5l-59.6-182.9L859.6,482.7 M979,138.3h-7H867.3
				h-7c-12.7,0-24,8-28.2,19.9l-2.4,6.6L643.3,685.7l-4.8,13.3c-3.3,9.2-1.9,19.4,3.7,27.4c5.6,8,14.8,12.7,24.5,12.7h14.1h97.5h7.2
				c13,0,24.5-8.3,28.5-20.7l2.2-6.9l35.1-107.2h136l35.1,107.2l2.2,6.9c4,12.3,15.5,20.7,28.5,20.7h7.2h97.9h14.1
				c9.8,0,18.9-4.7,24.5-12.7s7-18.2,3.7-27.4l-4.8-13.3l-186.3-520.9l-2.4-6.6C1003,146.3,991.7,138.3,979,138.3L979,138.3z
				 M901,452.7l18.4-56.3l18.3,56.3H901L901,452.7z"/>
		</g>
		<g>
			<path class="st2" d="M1190.8,850.5c-8.3,0-15-6.7-15-15v-529c0-8.3,6.7-15,15-15h109.8c8.3,0,15,6.7,15,15v8.1
				c3.4-2.6,6.9-5,10.5-7.3c24.7-15.7,53.4-23.7,85.1-23.7c55.6,0,102.4,21.7,135.2,62.7c31.6,39.5,48.3,95.4,48.3,161.5v0.4
				c0,65.7-16.6,121.4-48.1,160.9c-32.7,41-79.1,62.7-134.2,62.7c-31.1,0-60.6-7.9-85.2-23c-3.9-2.4-7.7-5-11.4-7.7v134.4
				c0,8.3-6.7,15-15,15H1190.8z M1384.5,409.3c-19.8,0-36.1,8-48.4,23.9c-13.9,17.8-21.2,43.6-21.2,74.6v0.4
				c0,30.7,7.3,56.3,21.1,74c12.3,15.8,28.6,23.7,48.5,23.7c20.4,0,36.7-7.8,48.4-23.3c13.2-17.3,20.1-43,20.1-74.5v-0.4
				c0-32-7-58-20.1-75.3C1421.1,417.1,1404.9,409.3,1384.5,409.3z"/>
			<path class="st2" d="M1411.2,298.6c50.9,0,93.6,19.7,123.4,57.1c29.4,36.8,45,89.4,45,152.1v0.4c0,62.3-15.5,114.7-44.9,151.5
				c-29.7,37.3-72.1,57-122.5,57c-28.3,0-55.1-7.2-77.4-20.8c-13.1-7.9-24.6-18.1-34.2-30v159.5v10h-10h-89.9h-10v-10V316.5v-10h10
				h89.9h10v10v33.9c9.5-12.1,20.7-22.3,33.5-30.5C1356.4,305.8,1382.4,298.6,1411.2,298.6 M1384.5,621c25,0,45.8-10.1,60.4-29.2
				c15.2-19.9,23.2-48.8,23.2-83.6v-0.4c0-35.3-8-64.5-23.2-84.4c-14.5-19-35.3-29.1-60.3-29.1c-24.3,0-45.1,10.3-60.3,29.7
				c-15.9,20.5-24.4,49.5-24.4,83.8v0.4c0,34.1,8.4,62.9,24.3,83.3C1339.3,610.8,1360.1,621,1384.5,621 M1411.2,268.6
				c-31.4,0-60.1,7.2-85.5,21.5c-5.4-8.2-14.6-13.5-25.1-13.5h-10h-89.9h-10c-16.6,0-30,13.4-30,30v10v509.1v10
				c0,16.6,13.4,30,30,30h10h89.9h10c16.6,0,30-13.4,30-30v-10V728c24.5,12.3,52.4,18.8,81.7,18.8c29.5,0,56.9-5.8,81.6-17.3
				c24.9-11.6,46.6-28.8,64.3-51c33.6-42.2,51.4-101,51.4-170.2v-0.4c0-69.6-17.8-128.6-51.5-170.8c-17.8-22.3-39.5-39.4-64.7-51.1
				C1468.6,274.5,1440.9,268.6,1411.2,268.6L1411.2,268.6z M1384.5,591c-15.2,0-27.2-5.9-36.7-18c-11.7-15-18-37.4-18-64.8v-0.4
				c0-27.6,6.2-50.2,18-65.4c9.5-12.2,21.4-18.1,36.6-18.1c15.7,0,27.6,5.6,36.4,17.3c11,14.5,17.1,38,17.1,66.3v0.4
				c0,27.8-6,51-17,65.4C1412.1,585.3,1400.1,591,1384.5,591L1384.5,591z"/>
		</g>
		<g>
			<path class="st2" d="M1613.8,850.5c-8.3,0-15-6.7-15-15v-529c0-8.3,6.7-15,15-15h109.8c8.3,0,15,6.7,15,15v8.1
				c3.4-2.6,6.9-5,10.5-7.3c24.7-15.7,53.4-23.7,85.1-23.7c55.6,0,102.4,21.7,135.2,62.7c31.6,39.5,48.3,95.4,48.3,161.5v0.4
				c0,65.7-16.6,121.4-48.1,160.9c-32.7,41-79.1,62.7-134.2,62.7c-31.1,0-60.6-7.9-85.2-23c-3.9-2.4-7.7-5-11.4-7.7v134.4
				c0,8.3-6.7,15-15,15H1613.8z M1807.5,409.3c-19.8,0-36.1,8-48.4,23.9c-13.9,17.8-21.2,43.6-21.2,74.6v0.4
				c0,30.7,7.3,56.3,21.1,74c12.3,15.8,28.6,23.7,48.5,23.7c20.3,0,36.6-7.8,48.4-23.3c13.2-17.3,20.1-43,20.1-74.5v-0.4
				c0-32-7-58-20.1-75.3C1844.2,417.1,1827.9,409.3,1807.5,409.3z"/>
			<path class="st2" d="M1834.2,298.6c50.9,0,93.6,19.7,123.4,57.1c29.4,36.8,45,89.4,45,152.1v0.4c0,62.3-15.5,114.7-44.9,151.5
				c-29.7,37.3-72.1,57-122.5,57c-28.3,0-55.1-7.2-77.4-20.8c-13.1-7.9-24.6-18.1-34.2-30v159.5v10h-10h-89.9h-10v-10V316.5v-10h10
				h89.9h10v10v33.9c9.5-12.1,20.7-22.3,33.5-30.5C1779.4,305.8,1805.4,298.6,1834.2,298.6 M1807.5,621c24.9,0,45.8-10.1,60.3-29.2
				c15.2-19.9,23.2-48.8,23.2-83.6v-0.4c0-35.3-8-64.5-23.2-84.4c-14.5-19-35.3-29.1-60.3-29.1c-24.3,0-45.1,10.3-60.3,29.7
				c-15.9,20.5-24.4,49.5-24.4,83.8v0.4c0,34.1,8.4,62.9,24.3,83.3C1762.4,610.8,1783.2,621,1807.5,621 M1834.2,268.6
				c-31.4,0-60.1,7.2-85.5,21.5c-5.4-8.2-14.6-13.5-25.1-13.5h-10h-89.9h-10c-16.6,0-30,13.4-30,30v10v509.1v10
				c0,16.6,13.4,30,30,30h10h89.9h10c16.6,0,30-13.4,30-30v-10V728c24.5,12.3,52.4,18.8,81.7,18.8c29.5,0,56.9-5.8,81.6-17.3
				c24.9-11.6,46.6-28.8,64.3-51c33.6-42.2,51.4-101,51.4-170.2v-0.4c0-69.6-17.8-128.6-51.5-170.8c-17.8-22.3-39.5-39.4-64.7-51.1
				C1891.6,274.5,1863.9,268.6,1834.2,268.6L1834.2,268.6z M1807.5,591c-15.2,0-27.2-5.9-36.7-18c-11.7-15-18-37.4-18-64.8v-0.4
				c0-27.6,6.2-50.2,18-65.4c9.5-12.2,21.4-18.1,36.6-18.1c15.7,0,27.6,5.6,36.4,17.3c11,14.5,17.1,38,17.1,66.3v0.4
				c0,27.7-6.1,51-17.1,65.4C1835.1,585.3,1823.2,591,1807.5,591L1807.5,591z"/>
		</g>
		<g>
			<path class="st2" d="M2039.3,724.2c-8.3,0-15-6.7-15-15V168.3c0-8.3,6.7-15,15-15h109.8c8.3,0,15,6.7,15,15v540.9
				c0,8.3-6.7,15-15,15H2039.3z"/>
			<path class="st2" d="M2149.2,168.3v10v520.9v10h-10h-89.9h-10v-10V178.3v-10h10h89.9L2149.2,168.3 M2149.2,138.3h-10h-89.9h-10
				c-16.6,0-30,13.4-30,30v10v520.9v10c0,16.6,13.4,30,30,30h10h89.9h10c16.6,0,30-13.4,30-30v-10V178.3v-10
				C2179.2,151.7,2165.8,138.3,2149.2,138.3L2149.2,138.3z"/>
		</g>
		<g>
			<path class="st2" d="M2380,731.7c-63.2,0-116.1-21.2-153.2-61.3c-36.3-39.4-55.6-95.2-55.6-161.4v-0.4
				c0-65.6,19.1-121.5,55.2-161.9c18.2-20.3,40.3-36.1,65.5-46.8c25.4-10.8,53.7-16.3,84-16.3c60.5,0,111.7,21.1,148.1,61
				c35.4,38.9,54.1,93,54.1,156.4v38.9c0,8.3-6.7,15-15,15h-250c3.3,15.1,9.2,27.7,17.6,36.8c12,13.1,29.7,20.1,51.3,20.1
				c32.5,0,53.2-16.4,58.8-31.9l2.4-9c1.8-6.5,7.7-11.1,14.5-11.1h104.8c4.7,0,9.1,2.2,11.9,5.9c2.8,3.7,3.8,8.6,2.5,13.1l-4.3,15.8
				c-7.6,36.7-28.9,70.4-59.9,94.9c-35.1,27.7-81,42.3-132.6,42.3h-0.1V731.7z M2435,445c-3.8-10.4-9-18.9-15.6-25.5
				c-10.5-10.4-24.8-15.6-42.3-15.6c-17.2,0-32.1,5.7-43.1,16.4c-6.6,6.4-11.9,14.8-15.9,24.7H2435z"/>
			<path class="st2" d="M2375.9,298.5c56.2,0,103.6,19.4,137,56.1c32.9,36.1,50.2,86.7,50.2,146.3v28.9v10h-10h-257.4
				c2.2,25.8,10.3,47.1,23.9,61.9c14.9,16.4,36.5,25,62.4,25c29.1,0,63-13.1,73.2-42.4l0.6-2.2l2-7.4h7.6h84.1h13.1l-3.5,12.6
				l-1,3.6c-6.8,33.5-26.2,64.2-54.6,86.6c-32.4,25.6-75.1,39.1-123.3,39.1h-0.2c-58.9,0-108-19.5-142.2-56.5
				c-33.7-36.5-51.6-88.8-51.6-151.2v-0.4c0-61.8,17.8-114.3,51.4-151.9c16.7-18.7,37-33.2,60.2-43
				C2321.4,303.6,2347.7,298.5,2375.9,298.5 M2298.1,460h156.3c-3.9-21.8-12.1-39-24.5-51.2c-13.4-13.2-31.2-19.9-52.8-19.9
				c-21.2,0-39.7,7.2-53.5,20.7C2311,421.7,2302.4,439,2298.1,460 M2375.9,268.5c-32.3,0-62.5,5.9-89.8,17.5s-51.1,28.6-70.8,50.6
				c-38.6,43.2-59.1,102.6-59.1,171.9v0.4c0,70.1,20.6,129.4,59.5,171.6c20.1,21.7,44.5,38.4,72.8,49.6c27.6,11,58.3,16.5,91.4,16.5
				h0.2c55.1,0,104.2-15.8,141.9-45.6c33.6-26.5,56.7-63.1,65.2-103.1l0.7-2.7l3.5-12.6c2.4-8.6,0.8-17.8-4.3-25
				c3.7-5,5.9-11.2,5.9-17.9v-10v-28.9c0-67.2-20.1-124.8-58.1-166.5c-19.7-21.6-43.5-38.2-70.8-49.4
				C2437.6,274.1,2407.8,268.5,2375.9,268.5L2375.9,268.5z M2345.6,430c8.1-7.3,18.7-11.1,31.5-11.1c13.5,0,23.8,3.6,31.6,11.1
				H2345.6L2345.6,430z M2334,569.8h94.1l-1.2,4.5l-0.3,1c-5.6,14.1-26.4,21.4-44.5,21.4c-17.5,0-31-5.1-40.2-15.2
				C2338.8,578.2,2336.2,574.3,2334,569.8L2334,569.8z"/>
		</g>
		<g>
			<path class="st2" d="M2799.3,286.6c-41.5,0-75.2-33.2-75.2-74.1c0-20,7.8-38.8,21.9-52.7c14.1-14,33-21.6,53.2-21.6
				c41.9,0,74.8,32.7,74.8,74.4c0,19.7-7.7,38.3-21.7,52.2C2838.3,278.9,2819.5,286.6,2799.3,286.6z"/>
			<path class="st2" d="M2799.3,153.1c33.5,0,59.8,26.1,59.8,59.4c0,15.7-6.1,30.5-17.3,41.6c-11.3,11.3-26.3,17.5-42.5,17.5
				c-33.2,0-60.2-26.5-60.2-59.1c0-16,6.2-30.9,17.5-42.1C2767.9,159.3,2783.1,153.1,2799.3,153.1 M2799.3,123.1
				c-24.2,0-46.9,9.2-63.8,26c-17,16.8-26.4,39.3-26.4,63.4c0,49.1,40.5,89.1,90.2,89.1c24.2,0,46.8-9.3,63.7-26.2
				c16.8-16.8,26.1-39.1,26.1-62.8c0-24.2-9.3-46.7-26.2-63.5C2846.1,132.4,2823.5,123.1,2799.3,123.1L2799.3,123.1z"/>
		</g>
		<g>
			<path class="st2" d="M2744.2,724.2c-8.3,0-15-6.7-15-15V306.6c0-8.3,6.7-15,15-15H2854c8.3,0,15,6.7,15,15v402.6
				c0,8.3-6.7,15-15,15H2744.2z"/>
			<path class="st2" d="M2854,306.6v10v382.7v10h-10h-89.9h-10v-10V316.5v-10h10h89.9h10 M2854,276.6h-10h-89.9h-10
				c-16.6,0-30,13.4-30,30v10v382.7v10c0,16.6,13.4,30,30,30h10h89.9h10c16.6,0,30-13.4,30-30v-10V316.5v-10
				C2884,290,2870.6,276.6,2854,276.6L2854,276.6z"/>
		</g>
		<g>
			<path class="st2" d="M3155.2,733.2c-81.9,0-150.8-27.9-199.2-80.6c-47.8-52.1-73.1-126-73.1-213.7v-0.7
				c0-87.5,25.4-161.3,73.4-213.4c48.5-52.7,117.3-80.5,198.9-80.5c81.7,0,150.5,27.9,198.9,80.6c47.8,52.1,73,125.9,73,213.4v0.7
				c0,87.7-25.2,161.6-72.9,213.6C3305.8,705.3,3237,733.2,3155.2,733.2z M3155.2,275.1c-37.9,0-69.6,14.3-91.6,41.4
				c-23.4,28.7-35.8,70.8-35.8,121.7v0.7c0,51,12.3,93.2,35.7,122c22,27.2,53.7,41.5,91.7,41.5c38.4,0,70.3-14.6,92.4-42.3
				c22.9-28.7,35-70.6,35-121.2v-0.7c0-50.8-12.3-92.9-35.7-121.6C3224.8,289.5,3193.1,275.1,3155.2,275.1z"/>
			<path class="st2" d="M3155.2,159.3c77.4,0,142.4,26.2,187.8,75.7c45.2,49.3,69.1,119.5,69.1,203.3v0.7
				c0,83.9-23.8,154.3-68.9,203.5c-45.4,49.6-110.4,75.7-187.9,75.7c-77.6,0-142.6-26.2-188.1-75.7C2922,593.2,2898,522.8,2898,439
				v-0.7c0-83.6,24-153.9,69.4-203.3C3012.9,185.5,3077.9,159.3,3155.2,159.3 M3155.2,617.4c87.8,0,142.4-68.4,142.4-178.5v-0.7
				c0-54.3-13.5-99.7-39-131.1c-25-30.8-60.7-47-103.3-47s-78.3,16.2-103.2,46.9c-25.6,31.4-39.1,76.8-39.1,131.2v0.7
				c0,54.5,13.5,99.9,39,131.4C3076.8,601.2,3112.5,617.4,3155.2,617.4 M3155.2,129.3c-42.3,0-81.7,7.2-117,21.4
				c-35.9,14.5-67.2,36-92.9,63.9c-50.6,55-77.3,132.3-77.3,223.6v0.7c0,91.5,26.6,168.9,77.1,223.8c25.7,28,56.9,49.5,92.9,64
				c35.4,14.2,74.8,21.5,117.3,21.5s81.9-7.2,117.2-21.5c35.9-14.5,67.2-36,92.8-64c50.3-54.9,76.8-132.3,76.8-223.8v-0.7
				c0-91.4-26.6-168.6-77-223.5c-25.7-28-56.9-49.5-92.8-64C3237,136.5,3197.6,129.3,3155.2,129.3L3155.2,129.3z M3155.2,587.4
				c-16.9,0-32.3-3.1-45.9-9.3c-13.2-6-24.7-15-34.2-26.7c-21.2-26.1-32.3-65-32.3-112.5v-0.7c0-47.4,11.2-86.2,32.4-112.3
				c9.5-11.6,21-20.6,34.2-26.6c13.5-6.1,28.9-9.3,45.8-9.3c16.9,0,32.3,3.1,45.9,9.3c13.2,6,24.7,15,34.2,26.6
				c21.1,26,32.3,64.8,32.3,112.2v0.7c0,47.2-11,85.8-31.7,111.8C3216.4,575.1,3189.3,587.4,3155.2,587.4L3155.2,587.4z"/>
		</g>
		<g>
			<path class="st2" d="M3655.4,733.3c-64.9-0.1-120.5-15.9-160.8-45.8c-41.3-30.7-64.9-74.7-68.4-127.4l-1.2-16
				c-0.3-4.2,1.1-8.3,4-11.3c2.8-3.1,6.8-4.8,11-4.8h108.3c7.4,0,13.7,5.4,14.8,12.6c0,0,2.1,12.9,2.1,13
				c2.3,14.6,10.8,26.5,25.4,35.5c16.9,10.4,40.4,15.8,67.9,15.8c27,0,49-5.4,63.8-15.7c12-8.4,18.1-19.6,18.1-33.3v-0.4
				c0-12.3-3.5-19.7-12.3-26.7c-11.4-8.9-32.3-16.6-62-22.9l-55.9-11.6c-27.4-5.7-51.7-13.3-72.4-22.7
				c-21.7-9.8-40.1-21.9-54.8-35.9c-30.4-29-45.9-66.9-45.9-112.5v-0.4c0.1-26.4,5.9-51.2,17.2-73.8c10.9-21.9,26.7-41.1,46.9-57
				c19.6-15.5,42.9-27.5,69.1-35.6c26.2-8.1,54.7-12.3,84.9-12.3c61,0,113.8,16,152.7,46.4c19.6,15.3,35.2,33.9,46.4,55.2
				c11.3,21.5,17.8,45.4,19.3,71l1.1,16.7c0.3,4.1-1.2,8.2-4,11.2s-6.8,4.7-10.9,4.7h-108.3c-7.4,0-13.7-5.4-14.8-12.6l-2-12.9
				c0-0.1-0.1-0.5-0.1-0.5c-2.1-15.5-9.3-27.3-22.2-36.1c-14.1-9.7-34-14.8-57.7-14.8c-24.4,0.2-44.4,5.4-57.8,15.1
				c-10.8,7.8-16.3,18-16.3,30.4v0.4c0,10.9,3.6,18.1,12.5,25c11.5,8.9,31.3,16.4,58.9,22.1l56.3,11.6
				c59.5,12.3,102.2,31.3,130.5,58.1c30.3,28.6,45,65.9,45,114v0.4c0,55.8-22,102.7-63.7,135.5
				C3780.1,716.6,3723.1,733.3,3655.4,733.3L3655.4,733.3z"/>
			<path class="st2" d="M3655.3,159.2c57.6,0,107.2,14.9,143.5,43.2c17.9,14,32.1,30.9,42.3,50.3c10.3,19.6,16.2,41.5,17.7,64.9
				l0.4,6.1l0.7,10.6h-10.6h-89.1h-8.5l-1.3-8.4l-0.7-4.4v-0.1v-0.1c-2.7-19.6-12.2-35.3-28.5-46.5c-16.6-11.4-39.5-17.5-66.3-17.5
				c-27.6,0.2-50.6,6.4-66.5,17.9c-14.7,10.6-22.5,25.3-22.5,42.5v0.4c0,15.4,5.8,27.1,18.3,36.8c13.5,10.5,34.8,18.6,65.1,24.9
				l56.4,11.6c56.7,11.7,97,29.5,123.3,54.3c27.1,25.6,40.3,59.4,40.3,103.1v0.4c0,51.1-20,93.8-58,123.7
				c-37.5,29.5-91.3,45.1-155.6,45.1c-125.7-0.1-207.8-61.1-214.2-159.2l-0.4-5.4L3440,543h10.7h89.1h8.5l1.3,8.4l0.7,4.4l0,0l0,0
				c2.9,18.9,14.1,34.9,32.4,46.1c19.3,11.8,45.5,18,75.8,18c30.1,0,55.1-6.4,72.4-18.4c16.1-11.2,24.5-27,24.5-45.6v-0.4
				c0-16.8-5.6-28.7-18.1-38.5c-13.4-10.5-35.7-18.9-68.2-25.7l-56-11.6c-26.3-5.5-49.6-12.7-69.3-21.6
				c-20.1-9.1-37.1-20.2-50.6-33.1c-27.3-26.1-41.2-60.3-41.2-101.6V323c0.1-24,5.4-46.6,15.6-67.1c9.9-19.9,24.4-37.4,42.8-51.9
				c18.2-14.3,39.8-25.5,64.2-33.1C3599.6,163.1,3626.7,159.2,3655.3,159.2 M3655.3,129.2c-31.7,0-61.7,4.4-89.3,12.9
				c-28,8.7-52.9,21.5-73.9,38.2c-21.9,17.3-39.1,38.2-51.1,62.1c-12.3,24.7-18.7,51.7-18.8,80.4v0.1v0.4c0,24.5,4.2,47.3,12.5,67.8
				c8.5,20.9,21.2,39.6,38,55.5c15.9,15.2,35.7,28.2,58.9,38.7c21.7,9.8,47.1,17.8,75.5,23.7l56,11.6c34.1,7.2,49.2,14.8,55.8,20
				c4.6,3.6,6.6,6.5,6.6,14.9v0.4c0,8.8-3.7,15.4-11.7,21c-12.1,8.4-31.7,13-55.2,13c-24.4,0-45.8-4.8-60.1-13.6
				c-10.7-6.5-16.9-15-18.4-25c0-0.1,0-0.3-0.1-0.4l-0.7-4.3l-1.3-8.4c-2.3-14.6-14.9-25.3-29.6-25.3h-8.5h-89.1H3440
				c-8.3,0-16.3,3.5-22,9.6s-8.6,14.3-8,22.6l0.8,10.7l0.4,5.3c1.9,28.5,9.3,54.9,22.1,78.5c12.6,23.3,30.2,43.5,52.4,59.9
				c42.9,31.9,101.5,48.7,169.7,48.8c71.1,0,131.4-17.8,174.2-51.6c22.6-17.8,40-39.6,51.8-64.7c11.7-24.9,17.6-52.7,17.6-82.5v-0.4
				c0-25.5-4-48.8-12-69.3c-8.2-21.1-20.9-39.8-37.6-55.6c-30.4-28.8-75.5-49-137.8-61.9l-56.4-11.6c-31.5-6.5-46.1-14-52.7-19.2
				c-5.1-4-6.7-7.1-6.7-13.2v-0.4c0-4.7,1-11.7,10-18.2c10.7-7.7,28.1-12.1,49.1-12.2c20.3,0,37.8,4.3,49.2,12.2
				c9.3,6.4,14.3,14.6,15.8,25.8v0.1c0,0.3,0.1,0.5,0.1,0.8v0.1l0.7,4.3l1.3,8.4c2.3,14.6,14.9,25.3,29.6,25.3h8.5h89.1h10.6
				c8.3,0,16.2-3.4,21.9-9.5c5.7-6,8.6-14.2,8.1-22.5l-0.7-10.6l-0.4-6.1c-1.7-27.7-8.8-53.5-21-76.9c-12.2-23.2-29.1-43.4-50.4-60
				C3775.7,146.3,3719.7,129.2,3655.3,129.2L3655.3,129.2z"/>
		</g>
		<g>
			<path class="st2" d="M305.3,208.6c-0.9,0-1.7,0-2.6,0l-4.6-0.1c-7.8-0.1-14.2-6.3-14.7-14l-0.3-4.6C280.5,147.5,295,105,323,73.2
				c28.1-33,67.4-53.5,110.6-57.7l5.1-0.5c0.5,0,1-0.1,1.4-0.1c3.5,0,7,1.2,9.7,3.5c3.1,2.6,5,6.4,5.3,10.4l0.4,5.1
				c3.2,43.9-10.5,86.7-38.6,120.5C390.3,188.3,348.6,208.6,305.3,208.6z"/>
			<path class="st2" d="M440.2,30l0.4,5.1c2.9,40.1-9.6,79.2-35.3,110c-23.9,30.5-61.1,48.5-99.9,48.5c-0.8,0-1.5,0-2.3,0l-4.6-0.1
				l-0.3-4.6c-2.4-38.4,10.7-77,36.2-105.8c25.5-30.1,61.3-48.8,100.7-52.6L440.2,30 M440.2,0c-1,0-1.9,0-2.9,0.1l-5.1,0.5
				c-47.1,4.6-89.9,26.9-120.5,62.8c-30.6,34.7-46.4,81.1-43.5,127.4l0.3,4.6c1,15.6,13.8,27.8,29.4,28.1l4.6,0.1c0.9,0,1.9,0,2.8,0
				c23.6,0,47.3-5.5,68.7-15.8c21.3-10.3,40.1-25.5,54.6-43.8c30.4-36.7,45.3-83.2,41.8-131l-0.4-5.1c-0.6-8.1-4.4-15.6-10.6-20.8
				C454.1,2.5,447.2,0,440.2,0L440.2,0z"/>
		</g>
		<g>
			<path class="st2" d="M206.3,719c-53.3,0-89.5-51.3-118.6-92.6l-0.1-0.1c-32.2-46.6-56.6-107.7-67-167.7
				c-8.7-50.5-11.5-123.8,24.8-187c30.5-56,89-91.8,152.8-93.6c0.1,0,0.1,0,0.2,0c0.6,0,1.2,0,1.8,0c27.5,0,52,9.7,73.6,18.3
				c13.3,5.3,25.8,10.3,33.3,10.3c6.4,0,19.3-5.1,31.8-10.1c23.8-9.4,53.3-21.1,87.3-21.1c2.7,0,5.5,0.1,8.2,0.2
				c26.6,1.1,53.1,8.5,76.5,21.3c23.4,12.8,44,31.1,59.4,53l3,4.3c2.4,3.4,3.3,7.6,2.4,11.6c-0.8,4-3.3,7.6-6.7,9.7l-4.5,2.8
				c-38,23.8-61.1,64.8-61.7,109.7c0.3,50.3,30.2,96,76.2,116.3l4.1,1.8c7,3.1,10.6,11,8.2,18.3l-1.4,4.3
				c-11.2,35.2-27.3,68.5-47.8,98.9c-12.8,19.9-28.5,42.6-47.6,60.1c-21.9,19.9-44.7,29.9-69.7,30.4c-0.8,0-1.6,0-2.5,0
				c-24.3,0-41.4-7.4-56.5-14c-14.6-6.3-28.3-12.3-49.8-12.3c-22.3,0-35.4,5.7-50.6,12.4c-14.9,6.5-31.7,13.9-56.2,14.7
				C208.2,719,207.3,719,206.3,719z"/>
			<path class="st2" d="M426.1,190.4c2.5,0,4.9,0.1,7.4,0.2c24.4,1,48.6,7.7,70.1,19.5c21.4,11.7,40.2,28.5,54.3,48.5l3,4.3
				l-4.5,2.8C514,292.2,488.3,338,487.6,388c0.3,56.3,33.7,107.3,85.2,130.1l4.1,1.8l-1.4,4.3c-10.8,33.9-26.2,65.9-46,95.2
				c-12.3,19.1-27.3,40.9-45.2,57.3c-19.1,17.4-38.7,26.1-59.9,26.5c-0.7,0-1.4,0-2.2,0c-21.1,0-36.1-6.5-50.5-12.7
				c-15.3-6.6-31.2-13.5-55.8-13.5c-25.4,0-40.6,6.6-56.6,13.6c-14.3,6.2-29.1,12.7-50.8,13.5c-0.8,0-1.6,0-2.4,0
				c-45.5,0-79.2-47.7-106.4-86.2C68.9,572.9,45.4,514,35.4,456c-8.4-48-11.1-117.8,23-177.1c27.9-51.4,81.6-84.3,140.1-85.9
				c0.5,0,1.1,0,1.6,0c24.6,0,47.7,9.2,68,17.3c15.3,6.1,28.5,11.3,38.8,11.3c9.3,0,22.3-5.2,37.3-11.1
				C367.1,201.5,395,190.4,426.1,190.4 M426.1,160.4c-36.9,0-69.2,12.8-92.8,22.2c-8.8,3.5-22,8.7-26.3,9
				c-4.7-0.1-17.9-5.4-27.7-9.2c-21.7-8.6-48.8-19.4-79.1-19.4c-0.7,0-1.4,0-2.1,0c-0.1,0-0.2,0-0.3,0
				c-69,1.9-132.4,40.7-165.4,101.3c-38.4,67-35.6,144-26.5,196.9c10.8,62,36.1,125.3,69.4,173.7c0.1,0.1,0.1,0.2,0.2,0.3
				c14.3,20.2,30.5,43.2,50.1,61.9c11.7,11.2,23.2,19.6,35.2,25.7c14.8,7.5,30.1,11.3,45.6,11.3c1.1,0,2.3,0,3.5-0.1
				c27.4-1,46.4-9.3,61.7-16c14.8-6.5,25.5-11.1,44.6-11.1c18.4,0,29.6,4.9,43.8,11c15.6,6.8,35.1,15.2,62.5,15.2c0.9,0,1.8,0,2.8,0
				c28.4-0.6,55.1-12.1,79.5-34.3c20.4-18.6,36.8-42.2,50.1-62.9c21.3-31.6,38-66.1,49.6-102.6l1.4-4.3c4.6-14.6-2.5-30.3-16.5-36.5
				l-4.1-1.8c-40.6-17.9-67-58.1-67.3-102.5c0.6-39.7,21.1-76,54.7-97l4.5-2.8c7-4.4,11.9-11.4,13.5-19.5s-0.1-16.5-4.9-23.2l-3-4.3
				c-16.7-23.8-39-43.7-64.4-57.6c-25.4-13.9-54.1-21.9-83-23.1C432.1,160.5,429.1,160.4,426.1,160.4L426.1,160.4z"/>
		</g>
	</g>
	<g>
		<g>
			<g>
				<g>
					<path d="M1056.8,704.2l-44.1-134.7H826l-44,134.7H673.8l190-530.9h111.7l189.9,530.9H1056.8z M986,487.7l-66.4-204l-66.8,204
						H986z"/>
				</g>
				<g>
					<path class="st2" d="M972,178.3l186.3,520.9h-97.9l-44.1-134.7H822.4l-44.1,134.7h-97.5l186.4-520.9L972,178.3 M845.9,492.7
						h147l-72.2-221.6h-2.2L845.9,492.7 M979,168.3h-7H867.3h-7l-2.4,6.6L671.5,695.8l-4.8,13.3h14.1h97.5h7.2l2.2-6.9l41.8-127.8
						H1009l41.8,127.8l2.2,6.9h7.2h97.9h14.1l-4.8-13.3L981.3,174.9L979,168.3L979,168.3z M859.6,482.7l59.9-182.9l59.6,182.9H859.6
						L859.6,482.7z"/>
				</g>
			</g>
			<g>
				<g>
					<path d="M1195.8,830.6v-519h99.9v54.8c10.8-17.4,24.6-31.6,41.2-42.1c21.5-13.7,46.5-20.6,74.4-20.6
						c49.4,0,90.7,19.1,119.6,55.2c28.7,35.9,43.9,87.5,43.9,149v0.4c0,61.2-15.1,112.5-43.8,148.4c-28.8,36.1-69.8,55.1-118.6,55.1
						c-27.4,0-53.3-6.9-74.8-20c-16.9-10.3-31.1-24.3-41.8-41.2v179.9h-100V830.6z M1384.5,389.3c-53.6,0-89.6,47.6-89.6,118.5v0.4
						c0,70.4,36,117.7,89.6,117.7c54.6,0,88.5-45.1,88.5-117.7v-0.4c0-36.4-8.4-66.6-24.2-87.4
						C1433.3,400.1,1411,389.3,1384.5,389.3z"/>
				</g>
				<g>
					<path class="st2" d="M1411.2,308.6c97.2,0,158.5,75.9,158.5,199.3v0.4c0,122.7-61.4,198.6-157.4,198.6
						c-54.5,0-98.2-27.4-119.8-72.2h-1.8v190.9h-89.9V316.5h89.9v66.1h1.8C1314.4,336.7,1356.3,308.6,1411.2,308.6 M1384.5,631
						c57.4,0,93.5-47.3,93.5-122.7v-0.4c0-76.6-36.1-123.5-93.5-123.5c-55.6,0-94.6,48.3-94.6,123.5v0.4
						C1289.9,583,1328.9,631,1384.5,631 M1411.2,298.6c-28.8,0-54.8,7.2-77,21.3c-12.8,8.2-24,18.3-33.5,30.5v-33.9v-10h-10h-89.9
						h-10v10v509.1v10h10h89.9h10v-10V666c9.6,11.9,21.2,22,34.2,30c22.3,13.6,49.1,20.8,77.4,20.8c50.4,0,92.7-19.7,122.5-57
						c29.4-36.8,44.9-89.2,44.9-151.5v-0.4c0-62.7-15.6-115.3-45-152.1C1504.8,318.4,1462.1,298.6,1411.2,298.6L1411.2,298.6z
						 M1384.5,621c-24.3,0-45.2-10.2-60.3-29.5c-15.9-20.3-24.3-49.1-24.3-83.3v-0.4c0-34.3,8.4-63.3,24.4-83.8
						c15.1-19.4,36-29.7,60.3-29.7c25,0,45.8,10.1,60.3,29.1c15.2,20,23.2,49.2,23.2,84.4v0.4c0,34.8-8,63.7-23.2,83.6
						C1430.3,610.9,1409.4,621,1384.5,621L1384.5,621z"/>
				</g>
			</g>
			<g>
				<g>
					<path d="M1618.8,830.6v-519h99.9v54.8c10.7-17.4,24.6-31.6,41.2-42.1c21.5-13.7,46.5-20.6,74.4-20.6
						c49.4,0,90.7,19.1,119.6,55.2c28.7,35.9,43.9,87.5,43.9,149v0.4c0,61.2-15.1,112.5-43.8,148.4c-28.8,36.1-69.8,55.1-118.6,55.1
						c-27.4,0-53.3-6.9-74.8-20c-16.9-10.3-31.1-24.3-41.8-41.2v180L1618.8,830.6L1618.8,830.6z M1807.5,389.3
						c-53.6,0-89.6,47.6-89.6,118.5v0.4c0,70.4,36,117.7,89.6,117.7c54.6,0,88.5-45.1,88.5-117.7v-0.4c0-36.4-8.4-66.6-24.2-87.4
						C1856.4,400.1,1834.1,389.3,1807.5,389.3z"/>
				</g>
				<g>
					<path class="st2" d="M1834.2,308.6c97.2,0,158.5,75.9,158.5,199.3v0.4c0,122.7-61.4,198.6-157.4,198.6
						c-54.5,0-98.2-27.4-119.8-72.2h-1.8v190.9h-89.9V316.5h89.9v66.1h1.8C1737.4,336.7,1779.3,308.6,1834.2,308.6 M1807.5,631
						c57.3,0,93.5-47.3,93.5-122.7v-0.4c0-76.6-36.1-123.5-93.5-123.5c-55.6,0-94.6,48.3-94.6,123.5v0.4
						C1713,583,1752,631,1807.5,631 M1834.2,298.6c-28.8,0-54.8,7.2-77,21.3c-12.8,8.2-24,18.3-33.5,30.5v-33.9v-10h-10h-89.9h-10
						v10v509.1v10h10h89.9h10v-10V666c9.6,11.9,21.2,22,34.2,30c22.3,13.6,49.1,20.8,77.4,20.8c50.4,0,92.7-19.7,122.5-57
						c29.4-36.8,44.9-89.2,44.9-151.5v-0.4c0-62.7-15.6-115.3-45-152.1C1927.8,318.4,1885.1,298.6,1834.2,298.6L1834.2,298.6z
						 M1807.5,621c-24.3,0-45.2-10.2-60.3-29.5c-15.9-20.3-24.3-49.1-24.3-83.3v-0.4c0-34.3,8.4-63.3,24.4-83.8
						c15.1-19.4,36-29.7,60.3-29.7c25,0,45.8,10.1,60.3,29.1c15.2,20,23.2,49.2,23.2,84.4v0.4c0,34.8-8,63.7-23.2,83.6
						C1853.3,610.9,1832.5,621,1807.5,621L1807.5,621z"/>
				</g>
			</g>
			<g>
				<g>
					<rect x="2044.3" y="173.3" width="99.9" height="530.9"/>
				</g>
				<g>
					<path class="st2" d="M2139.2,178.3v520.9h-89.9V178.3l0,0H2139.2 M2149.2,168.3h-10h-89.9h-10v10v520.9v10h10h89.9h10v-10
						V178.3V168.3L2149.2,168.3z"/>
				</g>
			</g>
			<g>
				<g>
					<path d="M2380,711.7c-116.4,0-188.8-77.7-188.8-202.8v-0.4c0-60.6,17.3-111.9,50.1-148.6c33.1-36.9,79.6-56.5,134.6-56.5
						c110.7,0,182.3,77.5,182.3,197.4v33.9h-267.7c3.1,60.8,37,96.9,91.6,96.9c30.9,0,67-14.2,77.9-45.9l1.6-6.1h94.4l-2.8,10.1
						c-12.3,60.7-70.6,121.9-173.1,121.9L2380,711.7z M2460.2,465c-3.6-25.7-12.6-45.7-26.9-59.7c-14.4-14.2-33.4-21.3-56.3-21.3
						c-45.4,0.1-76.8,30.3-84.9,81.1h168.1V465z"/>
				</g>
				<g>
					<path class="st2" d="M2375.9,308.5c109.3,0,177.3,76.9,177.3,192.4v28.9h-267.9c1.5,67.1,38.2,106.9,96.8,106.9
						c44.8,0,74-23.9,82.7-49.4l0.7-2.6h84.1l-1.1,4c-11.9,58.8-68.2,118.1-168.3,118.1c-0.1,0-0.2,0-0.2,0
						c-114.6,0-183.8-76.2-183.8-197.8v-0.4C2196.2,387.9,2266.6,308.5,2375.9,308.5 M2286.4,469.9h179.5c-6.5-60.6-41.2-91-88.8-91
						C2329.4,379,2293.6,411.1,2286.4,469.9 M2375.9,298.5c-28.2,0-54.5,5.1-78.1,15.1c-23.2,9.9-43.5,24.3-60.2,43
						c-33.6,37.6-51.4,90.1-51.4,151.9v0.4c0,62.4,17.8,114.7,51.6,151.2c34.1,37,83.3,56.5,142.2,56.5h0.2
						c48.3,0,90.9-13.5,123.3-39.1c28.4-22.4,47.8-53.1,54.6-86.6l1-3.6l3.5-12.6h-13.1h-84.1h-7.6l-2,7.4l-0.6,2.2
						c-10.2,29.3-44,42.4-73.2,42.4c-25.9,0-47.5-8.6-62.4-25c-13.5-14.9-21.7-36.1-23.9-61.9h257.4h10v-10v-28.9
						c0-59.6-17.4-110.2-50.2-146.3C2479.5,317.9,2432.1,298.5,2375.9,298.5L2375.9,298.5z M2298.1,460c4.3-21,13-38.3,25.4-50.4
						c13.8-13.5,32.3-20.6,53.5-20.7c21.6,0,39.4,6.7,52.8,19.9c12.4,12.2,20.6,29.3,24.5,51.2H2298.1L2298.1,460z"/>
				</g>
			</g>
			<g>
				<g>
					<path d="M2749.2,704.2V311.5h99.9v392.6h-99.9V704.2z M2799.3,266.6c-30.4,0-55.2-24.3-55.2-54.1c0-30.5,24.2-54.4,55.2-54.4
						c30.7,0,54.8,23.9,54.8,54.4C2854.1,242.4,2829.5,266.6,2799.3,266.6z"/>
				</g>
				<g>
					<path class="st2" d="M2799.3,163.1c28.2,0,49.8,22,49.8,49.4c0,26.7-21.7,49.1-49.8,49.1s-50.2-22.4-50.2-49.1
						C2749.1,185.1,2771.1,163.1,2799.3,163.1 M2844.1,316.5v382.7h-89.9V316.5H2844.1 M2799.3,153.1c-16.3,0-31.4,6.1-42.7,17.3
						c-11.3,11.1-17.5,26.1-17.5,42.1c0,32.6,27,59.1,60.2,59.1c16.2,0,31.2-6.2,42.5-17.5c11.1-11.1,17.3-25.9,17.3-41.6
						C2859.1,179.2,2832.8,153.1,2799.3,153.1L2799.3,153.1z M2854,306.6h-10h-89.9h-10v10v382.7v10h10h89.9h10v-10V316.5V306.6
						L2854,306.6z"/>
				</g>
			</g>
			<g>
				<g>
					<path d="M3155.2,713.2c-76.2,0-139.9-25.6-184.4-74.1c-44.4-48.3-67.8-117.6-67.8-200.1v-0.7c0-82.4,23.6-151.5,68.1-199.9
						c44.6-48.5,108.3-74.1,184.2-74.1c76,0,139.7,25.6,184.1,74.1c44.3,48.3,67.8,117.4,67.8,199.9v0.7
						c0,82.6-23.4,151.8-67.6,200.1C3295,687.6,3231.3,713.2,3155.2,713.2z M3155.2,255.1c-44.1,0-81.1,16.9-107.1,48.7
						c-26.3,32.3-40.2,78.8-40.2,134.3v0.7c0,55.6,13.9,102.1,40.1,134.6c25.9,32,63,48.9,107.2,48.9c44.5,0,81.7-17.1,107.6-49.3
						c26-32.4,39.7-78.8,39.7-134.2v-0.7c0-55.5-13.9-101.9-40.1-134.2C3236.4,272,3199.4,255.1,3155.2,255.1z"/>
				</g>
				<g>
					<path class="st2" d="M3155.2,169.3c152,0,246.9,103.6,246.9,269v0.7c0,165.7-94.6,269.3-246.9,269.3
						c-152.3,0-247.3-103.6-247.3-269.3v-0.7C2907.9,272.8,3003.5,169.3,3155.2,169.3 M3155.2,627.4c94.2,0,152.3-73.7,152.3-188.5
						v-0.7c0-115.6-59.2-188.1-152.3-188.1c-92.8,0-152.3,72.2-152.3,188.1v0.7C3002.8,554.8,3062.1,627.4,3155.2,627.4
						 M3155.2,159.3c-77.3,0-142.3,26.2-187.8,75.7c-45.4,49.3-69.4,119.6-69.4,203.3v0.7c0,83.9,23.9,154.2,69.2,203.5
						c45.5,49.5,110.5,75.7,188.1,75.7s142.5-26.2,187.9-75.7c45.1-49.3,68.9-119.6,68.9-203.5v-0.7c0-83.7-23.9-154-69.1-203.3
						C3297.5,185.5,3232.6,159.3,3155.2,159.3L3155.2,159.3z M3155.2,617.4c-42.6,0-78.4-16.3-103.3-47.1c-25.5-31.5-39-77-39-131.4
						v-0.7c0-54.4,13.5-99.8,39.1-131.2c25-30.7,60.7-46.9,103.2-46.9c42.6,0,78.4,16.3,103.3,47c25.5,31.4,39,76.8,39,131.1v0.7
						C3297.5,549,3243,617.4,3155.2,617.4L3155.2,617.4z"/>
				</g>
			</g>
			<g>
				<g>
					<path d="M3655.4,713.3c-59.9,0-110.9-14.2-147.6-40.9c-37.3-27.2-58.6-66.5-61.7-113.7l-0.8-10.8h98.7l1.4,8.6
						c3.1,20.5,15.1,37.6,34.8,49.6c20,12.3,47.1,18.8,78.4,18.8c31.1,0,57.1-6.7,75.2-19.3c17.5-12.2,26.7-29.3,26.7-49.7v-0.4
						c0-36.1-25.3-55.5-90.2-69.1l-55.9-11.6c-52.8-11-91.2-28.4-117.4-53.4c-26.3-25.1-39.7-58.1-39.7-98V323
						c0.4-93.5,81.9-158.8,198.1-158.8c56.5,0,105.1,14.6,140.4,42.2c35.2,27.5,55.3,66.1,58.1,111.7l0.7,11.4h-98.7l-1.4-8.7
						c-2.8-20.8-13.4-38-30.6-49.9c-17.4-12-41.4-18.4-69.1-18.4c-57.1,0.4-94,26.1-94,65.4v0.4c0,17.1,6.4,30.1,20.2,40.8
						c14.1,11,36.1,19.4,67.2,25.9l56.3,11.6c55.8,11.5,95.3,28.9,120.8,53c26.1,24.6,38.7,57.2,38.7,99.5v0.4
						C3864,650.5,3784.1,713.3,3655.4,713.3L3655.4,713.3z"/>
				</g>
				<g>
					<path class="st2" d="M3655.3,169.2c113.7,0,188.1,59.9,193.5,149.2l0.4,6.1h-89.1l-0.7-4.4c-6.1-45.5-46.3-72.6-104.7-72.6
						c-61,0.4-98.9,28.9-98.9,70.4v0.4c0,36.8,28.5,58.5,91.3,71.5l56.4,11.6c108.3,22.4,155.6,66.5,155.6,147.7v0.4
						c0,97.2-76.6,158.9-203.6,158.9c-119.4-0.1-198.2-56.5-204.3-149.9l-0.4-5.4h89.1l0.7,4.4c6.8,44.8,52.7,72.6,118.1,72.6
						c65.7,0,106.9-29.2,106.9-74v-0.4c0-39-27-59.9-94.2-74l-56-11.6c-102.5-21.3-153.1-68.9-153.1-146.6V323
						C3462.6,231.2,3543.1,169.2,3655.3,169.2 M3655.3,159.2c-28.6,0-55.7,3.9-80.4,11.6c-24.5,7.6-46.1,18.7-64.2,33.1
						c-18.5,14.6-32.9,32-42.8,51.9c-10.3,20.5-15.5,43.1-15.6,67.1v0.4c0,41.4,13.9,75.6,41.2,101.6c13.5,12.8,30.5,23.9,50.6,33.1
						c19.7,8.9,43,16.2,69.3,21.6l56,11.6c32.4,6.8,54.7,15.2,68.2,25.7c12.5,9.8,18.1,21.7,18.1,38.5v0.4
						c0,18.6-8.5,34.4-24.5,45.6c-17.3,12-42.3,18.4-72.4,18.4c-30.3,0-56.5-6.2-75.8-18c-18.3-11.2-29.5-27.2-32.4-46.1l0,0l0,0
						l-0.7-4.4l-1.3-8.4h-8.5H3451h-11l0.8,10.7l0.4,5.4c6.5,98.1,88.6,159.1,214.2,159.2c64.3,0,118.1-15.6,155.6-45.1
						c37.9-29.8,58-72.6,58-123.7V549c0-43.8-13.2-77.5-40.3-103.1c-26.3-24.8-66.6-42.6-123.3-54.3L3649,380
						c-30.3-6.3-51.6-14.4-65.1-24.9c-12.5-9.7-18.3-21.4-18.3-36.8v-0.4c0-17.2,7.8-31.9,22.5-42.5c16-11.5,39-17.7,66.5-17.9
						c26.7,0,49.7,6.1,66.3,17.5c16.3,11.2,25.9,26.8,28.5,46.5v0.1v0.1l0.7,4.4l1.3,8.4h8.5h89.1h10.6l-0.7-10.6l-0.4-6.1
						c-1.4-23.4-7.4-45.3-17.7-64.9c-10.2-19.4-24.4-36.3-42.3-50.3C3762.6,174.1,3712.9,159.2,3655.3,159.2L3655.3,159.2z"/>
				</g>
			</g>
		</g>
		<g>
			<path d="M401.4,141.9c24.8-29.7,36.9-67.9,34.2-106.5c-37.8,3.7-72.8,21.9-97.5,50.9c-24.8,28-37.3,64.9-35,102.2
				C341.4,189.3,377.8,172,401.4,141.9 M433.3,195.6c-54.4-3.2-100.2,31-126.3,31s-65.7-29.3-108.3-28.6
				c-56.9,1.6-108.7,33.4-135.9,83.4C4.6,382.4,47.2,532.7,104,614.9c27.5,39,60.6,85.7,104.5,84.1c43.9-1.6,57.4-27.1,107.6-27.1
				S381,699,424.4,698.1s73.8-39.1,101-81.5c19.6-29,34.9-60.6,45.5-94c-53.4-23.6-87.8-76.4-88.1-134.7
				c0.7-51.5,27.4-99.1,71.1-126.5C526,221.9,481.5,197.6,433.3,195.6"/>
			<path class="st2" d="M206.3,704c-45.5,0-79.2-47.7-106.4-86.2C68.9,572.9,45.4,514,35.4,456c-8.4-48-11.1-117.8,23-177.1
				c27.9-51.4,81.6-84.3,140.1-85.9c25.2-0.4,48.8,9,69.6,17.3c15.3,6.1,28.5,11.3,38.8,11.3c9.3,0,22.3-5.2,37.3-11.1
				c24.5-9.7,55.1-21.8,89.2-19.9c24.4,1,48.6,7.7,70.1,19.5c21.4,11.7,40.2,28.5,54.3,48.5l3,4.3l-4.5,2.8
				c-42.4,26.5-68.1,72.3-68.8,122.3c0.3,56.3,33.7,107.3,85.2,130.1l4.1,1.8l-1.4,4.3c-10.8,33.9-26.2,65.9-46,95.2
				c-12.3,19.1-27.3,40.9-45.2,57.3c-19.1,17.4-38.7,26.1-59.9,26.5c-22.3,0.5-37.7-6.2-52.7-12.7c-15.3-6.6-31.2-13.5-55.8-13.5
				c-25.4,0-40.6,6.6-56.6,13.6c-14.3,6.2-29.1,12.7-50.8,13.5C207.9,704,207.1,704,206.3,704z M200.2,202.9c-0.5,0-0.9,0-1.4,0
				c-54.9,1.5-105.4,32.5-131.6,80.8l-0.1,0.1C49,315.2,30.6,370.2,45.2,454.3c9.8,56.5,32.7,114,62.9,157.7
				c26.2,37.1,58.9,83.4,100.2,81.9c19.8-0.7,33.1-6.5,47.1-12.7c16.3-7.1,33.1-14.5,60.6-14.5c26.7,0,43.5,7.3,59.8,14.3
				c14.6,6.3,28.4,12.3,48.5,11.9c38.7-0.8,66.7-32.2,96.9-79.2l0.1-0.1c18.5-27.3,33.1-57.1,43.5-88.5
				c-52.7-25.2-86.7-78.6-87-137.3c0.7-51.8,26.4-99.1,69-127.8c-12.8-16.9-29.3-31.2-47.9-41.3c-20.1-11-42.8-17.3-65.7-18.2h-0.1
				c-31.9-1.9-61.4,9.8-85,19.2c-16,6.3-29.8,11.8-41,11.8c-12.3,0-26.3-5.6-42.5-12.1C244.9,211.7,222.8,202.9,200.2,202.9z
				 M305.3,193.6c-0.8,0-1.5,0-2.3,0l-4.6-0.1l-0.3-4.6c-2.4-38.4,10.7-77,36.2-105.8C359.8,53,395.6,34.3,435,30.5l5.1-0.5l0.4,5.1
				c2.9,40.1-9.6,79.2-35.3,110C381.4,175.5,344.2,193.6,305.3,193.6z M430.9,41c-34.7,4.6-66.2,21.8-89,48.6
				c-22.7,25.7-35,59.7-34,94c34.9-0.8,68.1-17.3,89.6-44.7l0.1-0.1C420.5,111.3,432.2,76.7,430.9,41z"/>
		</g>
	</g>
</g>
</svg>
