<?xml version="1.0" encoding="utf-8"?>
<!-- Generator: Adobe Illustrator 26.3.1, SVG Export Plug-In . SVG Version: 6.00 Build 0)  -->
<svg version="1.1" id="Layer_1" xmlns="http://www.w3.org/2000/svg" xmlns:xlink="http://www.w3.org/1999/xlink" x="0px" y="0px"
	 viewBox="0 0 3839 869.9" style="enable-background:new 0 0 3839 869.9;" xml:space="preserve">
<style type="text/css">
	.st0{fill:#FF0000;}
	.st1{fill:#FFFFFF;}
	.st2{fill-rule:evenodd;clip-rule:evenodd;fill:#FFCC00;}
</style>
<g>
	<g>
		<g>
			<path class="st0" d="M30.6,732.3c-8.2,0-14.8-6.6-14.8-14.8V404.3c0-8.2,6.6-14.8,14.8-14.8h256.6c8.2,0,14.8,6.6,14.8,14.8
				v313.2c0,8.2-6.6,14.8-14.8,14.8H30.6z"/>
			<path class="st1" d="M287.2,404.3v9.6v293.9v9.6h-9.6H40.3h-9.6v-9.6V413.9v-9.6h9.6h237.3H287.2 M287.2,374.7h-9.6H40.3h-9.6
				c-16.3,0-29.5,13.2-29.5,29.5v9.6v293.9v9.6c0,16.3,13.2,29.5,29.5,29.5h9.6h237.3h9.6c16.3,0,29.5-13.2,29.5-29.5v-9.6V413.9
				v-9.6C316.7,388,303.5,374.7,287.2,374.7L287.2,374.7z"/>
		</g>
		<g>
			<path class="st0" d="M29.5,855c-8.2,0-14.8-6.6-14.8-14.8V731.8c0-8.2,6.6-14.8,14.8-14.8h619.8c8.2,0,14.8,6.6,14.8,14.8v108.5
				c0,8.2-6.6,14.8-14.8,14.8H29.5z"/>
			<path class="st1" d="M649.4,731.8v9.6v89.2v9.6h-9.6H39.2h-9.6v-9.6v-89.2v-9.6h9.6h600.6H649.4 M649.4,702.2h-9.6H39.2h-9.6
				C13.2,702.2,0,715.4,0,731.8v9.6v89.2v9.6c0,16.3,13.2,29.5,29.5,29.5h9.6h600.5h9.6c16.3,0,29.5-13.2,29.5-29.5v-9.6v-89.2v-9.6
				C678.9,715.4,665.7,702.2,649.4,702.2L649.4,702.2z"/>
		</g>
		<g>
			<path class="st0" d="M953.9,705.3c-2.9,0-5.8-0.9-8.3-2.6l-5.3-3.6L558.1,434l-25.4-17.6c-5.3-3.7-7.6-10.4-5.7-16.5
				c1.9-6.2,7.6-10.4,14.1-10.4H908c3.2,0,6.2,1,8.8,2.9c0,0,2.7,2,2.8,2L1132,554.6l11.1,8.4c3.9,2.9,6.1,7.5,5.9,12.4
				c-0.2,4.8-2.7,9.3-6.8,11.9l-11.7,7.5L967.3,699.5l-5.5,3.5C959.4,704.5,956.6,705.3,953.9,705.3z"/>
			<path class="st1" d="M908,404.3l2.7,2l212.5,160.1l11.1,8.4l-11.7,7.5L959.3,687.1l-5.4,3.4l-5.3-3.6l-382-265l-25.4-17.6h30.9
				h332.8H908 M908,374.7h-3.2H572.1h-30.9c-12.9,0-24.3,8.4-28.2,20.7c-3.9,12.3,0.7,25.7,11.4,33.1l25.4,17.6l382,265
				c0,0,0.1,0.1,0.1,0.1l5.3,3.6c5,3.4,10.9,5.2,16.7,5.2c5.5,0,11-1.5,15.9-4.6l5.4-3.4c0,0,0.1,0,0.1-0.1l163.2-104.8l11.7-7.5
				c8.2-5.2,13.2-14.1,13.6-23.8c0.4-9.7-4-18.9-11.8-24.7l-11.1-8.4L928.4,382.7c-0.1,0-0.1-0.1-0.2-0.1l-2.7-2
				C920.5,376.8,914.3,374.7,908,374.7L908,374.7z"/>
		</g>
		<g>
			<path class="st0" d="M2380.2,855.1c-2.9,0-5.8-0.9-8.2-2.5l-2.3-1.5l-648.6-416.6l-27.8-17.8c-5.5-3.5-8-10.3-6.2-16.6
				c1.8-6.3,7.6-10.6,14.2-10.6h262.4c2.8,0,5.6,0.8,8,2.3c0,0,2.6,1.7,2.7,1.7L2374.2,659V404.3c0-8.2,6.6-14.8,14.8-14.8h137.9
				c8.2,0,14.8,6.6,14.8,14.8v436.1c0,8.2-6.6,14.8-14.8,14.8H2380.2z"/>
			<path class="st1" d="M2526.9,404.3v9.6v416.8v9.6h-9.6h-134.2h-2.9l-2.4-1.6l-648.7-416.7l-27.8-17.8h33h226.5h3l2.5,1.6
				L2389,686.6V413.9v-9.6h9.6h118.6H2526.9 M2526.9,374.7h-9.6h-118.6h-9.6c-16.3,0-29.5,13.2-29.5,29.5v9.6v217.6l-376.8-250.2
				c-0.1-0.1-0.3-0.2-0.4-0.3l-2.5-1.6c-4.8-3-10.3-4.7-15.9-4.7h-3h-226.5h-33c-13.1,0-24.7,8.6-28.3,21.2
				c-3.7,12.6,1.4,26.1,12.4,33.2l27.8,17.8l648.4,416.5l2.1,1.4c4.9,3.2,10.6,5,16.4,5h2.9h134.2h9.6c16.3,0,29.5-13.2,29.5-29.5
				v-9.6V413.9v-9.6C2556.4,388,2543.2,374.7,2526.9,374.7L2526.9,374.7z"/>
		</g>
		<g>
			<path class="st0" d="M1720.7,855c-8.2,0-14.8-6.6-14.8-14.8v-9.7l1.1-372.1l0.1-17.7c0-5.4,3-10.3,7.7-12.9
				c2.2-1.2,4.6-1.8,7-1.8c2.8,0,5.6,0.8,8,2.3l272,174.8l4.4,2.9c4.2,2.7,6.8,7.4,6.8,12.4v221.8c0,8.2-6.6,14.8-14.8,14.8H1720.7z
				"/>
			<path class="st1" d="M1721.9,440.8l14.9,9.6l257.2,165.2l4.4,2.9v5.3v206.9v9.6h-9.6h-258.3h-9.7v-9.7l1.1-372.1L1721.9,440.8
				 M1721.9,411.3c-4.8,0-9.7,1.2-14.1,3.6c-9.5,5.1-15.4,15-15.5,25.8l-0.1,17.6c0,0,0,0.1,0,0.1l-1.1,372.1c0,0,0,0.1,0,0.1v9.7
				c0,16.3,13.2,29.5,29.5,29.5h9.7h258.3h9.6c16.3,0,29.5-13.2,29.5-29.5v-9.6V623.8v-5.3c0-10-5.1-19.4-13.5-24.8l-4.4-2.9
				l-257.2-165.2l-14.9-9.6C1733,412.8,1727.4,411.3,1721.9,411.3L1721.9,411.3z"/>
		</g>
		<g>
			<path class="st0" d="M970.1,855c-8.2,0-14.8-6.6-14.8-14.8V703.7c0-5,2.5-9.7,6.8-12.4l4.4-2.9l459.1-294.9l2.3-1.5
				c2.4-1.6,5.3-2.5,8.2-2.5h224.7c6.5,0,12.2,4.2,14.1,10.4c1.9,6.2-0.4,12.9-5.7,16.5l-25.5,17.6l-400.1,277.1v129.1
				c0,8.2-6.6,14.8-14.8,14.8H970.1z"/>
			<path class="st1" d="M1660.8,404.3L1660.8,404.3 M1660.8,404.3l-25.5,17.6l-406.4,281.5v127.2v9.6h-9.6H979.8h-9.6v-9.6V709v-5.3
				l4.4-2.9l459.2-295l2.4-1.6h2.9h190.8H1660.8 M1660.8,374.7L1660.8,374.7h-31H1439h-2.9c-5.8,0-11.5,1.7-16.4,5l-2.2,1.4
				L958.6,676l-4.5,2.9c-8.4,5.4-13.5,14.8-13.5,24.8v5.3v121.6v9.6c0,16.3,13.2,29.5,29.5,29.5h9.6h239.5h9.6
				c16.3,0,29.5-13.2,29.5-29.5v-9.6V718.9l393.7-272.7l25.1-17.3c1.1-0.7,2.2-1.6,3.1-2.4c1.2-1.1,2.4-2.3,3.4-3.6
				c4.1-5.1,6.6-11.5,6.6-18.6C1690.4,388,1677.2,374.8,1660.8,374.7C1660.9,374.7,1660.9,374.7,1660.8,374.7
				C1660.9,374.7,1660.9,374.7,1660.8,374.7L1660.8,374.7z M1660.8,433.8L1660.8,433.8L1660.8,433.8L1660.8,433.8z"/>
		</g>
		<g>
			<path class="st0" d="M3357.8,855c-2,0-3.9-0.4-5.7-1.2c0,0-2-0.8-2.1-0.9l-501.2-219l-22.1-9.6c-5.5-2.4-9-8-8.9-14
				c0.2-6,4-11.4,9.7-13.4l22.6-8.3l111.5-40.8l3.6-1.4c1.7-0.6,3.5-1,5.2-1c2,0,4,0.4,5.9,1.2l3.6,1.6l175.7,76.7l76.7-28.1
				l3.6-1.4c1.7-0.6,3.5-1,5.2-1c2,0,4.1,0.4,6,1.3l3.5,1.6l482.1,210.7l42.4,18.5c6.4,2.8,10,9.7,8.6,16.6
				c-1.4,6.8-7.5,11.8-14.5,11.8H3357.8z"/>
			<path class="st1" d="M2970.5,560.3l3.6,1.6l181.1,79.1l82.3-30.1l3.6-1.4l3.5,1.6l482.2,210.7l42.4,18.5H3723h-363.1h-2.1
				l-1.9-0.8l-501.2-219l-22.2-9.6l22.6-8.3l111.6-40.9L2970.5,560.3 M2970.5,530.8c-3.5,0-7.1,0.6-10.5,1.9l-3.5,1.3l-111.4,40.8
				l-22.6,8.3c-11.3,4.1-19,14.8-19.4,26.9c-0.4,12.1,6.7,23.2,17.7,28l22.2,9.6l501.1,219c0.1,0.1,0.2,0.1,0.4,0.2l1.9,0.8
				c3.6,1.5,7.5,2.3,11.5,2.3h2.1H3723h46.3c14,0,26.1-9.8,28.9-23.5c2.9-13.7-4.3-27.5-17.1-33.1l-42.4-18.5L3256.6,584l-3.5-1.5
				c-3.8-1.7-7.9-2.5-12-2.5c-3.5,0-7.1,0.6-10.5,1.9l-3.5,1.3l-71.1,26l-170.2-74.3c0,0-0.1,0-0.1,0l-3.6-1.6
				C2978.5,531.6,2974.5,530.8,2970.5,530.8L2970.5,530.8z"/>
		</g>
		<g>
			<path class="st0" d="M3405.1,566.2c-2,0-4.1-0.4-6-1.3l-3.5-1.6l-148.8-65l-22.1-9.6c-5.5-2.4-9-8-8.9-14c0.2-6,4-11.4,9.7-13.4
				l22.6-8.3l169.5-62l1.5-0.6c1.7-0.6,3.4-0.9,5.2-0.9h385.2c7.2,0,13.3,5.1,14.5,12.2c1.2,7.1-2.7,14-9.5,16.4l-51.5,18.8
				c0,0-349.4,127.2-349.4,127.2l-3.6,1.3C3408.4,565.9,3406.7,566.2,3405.1,566.2z"/>
			<path class="st1" d="M3809.5,404.2L3809.5,404.2 M3809.5,404.2L3758,423l-349.2,127.1l-3.6,1.3l-3.5-1.6l-148.9-65.1l-22.2-9.6
				l22.6-8.3l169.6-62l1.6-0.6h1.7h328.6H3809.5 M3809.5,374.6L3809.5,374.6h-54.9H3426h-1.7c-3.5,0-7.1,0.6-10.4,1.9l-1.5,0.6
				l-169.4,62l-22.6,8.3c-11.3,4.1-19,14.8-19.4,26.9c-0.4,12.1,6.7,23.2,17.7,28l22.2,9.6l148.7,65l3.5,1.5c3.8,1.7,7.9,2.5,12,2.5
				c3.3,0,6.6-0.6,9.8-1.7l3.6-1.3c0.1,0,0.2-0.1,0.3-0.1l349.2-127.1l50.9-18.6c2.4-0.8,4.7-2,6.9-3.4c2.3-1.5,4.3-3.3,6.1-5.4
				c4-4.7,6.6-10.7,7.1-17.3c0-0.7,0.1-1.5,0.1-2.3C3838.8,387.7,3825.7,374.6,3809.5,374.6L3809.5,374.6z M3809.5,433.7
				L3809.5,433.7L3809.5,433.7L3809.5,433.7z"/>
		</g>
		<g>
			<path class="st0" d="M2586.2,855.1c-7.2,0-13.3-5.1-14.5-12.2c-1.2-7.1,2.8-14,9.5-16.4l51.6-18.8c0,0,349.4-127.2,349.4-127.2
				l3.6-1.3c1.6-0.6,3.2-0.8,4.9-0.8c1.9,0,3.9,0.4,5.7,1.1c0,0,3.7,1.5,3.8,1.6l148.8,65.2l22.1,9.6c5.5,2.4,9,8,8.9,14
				c-0.2,6-4,11.4-9.7,13.4l-22.6,8.3l-169.5,62l-1.5,0.6c-1.7,0.6-3.4,0.9-5.2,0.9H2586.2z"/>
			<path class="st1" d="M2990.7,693.2l3.5,1.5l148.8,65.2l22.2,9.6l-22.6,8.3l-169.5,62l-1.6,0.6h-1.7h-328.6h-54.9l51.6-18.8
				L2987,694.4L2990.7,693.2 M2990.7,663.6c-3.3,0-6.6,0.6-9.8,1.7l-3.6,1.3c-0.1,0-0.2,0.1-0.3,0.1l-349.2,127.1l-51.6,18.8
				c-13.5,4.9-21.5,18.8-19,32.9c2.5,14.1,14.8,24.4,29.1,24.4h54.9h328.6h1.7c3.5,0,7.1-0.6,10.4-1.9l1.5-0.5l169.4-62l22.6-8.3
				c11.3-4.1,19-14.8,19.4-26.9s-6.7-23.2-17.7-28l-22.1-9.6l-148.8-65.2c-0.2-0.1-0.3-0.1-0.5-0.2l-3.5-1.5
				C2998.4,664.4,2994.5,663.6,2990.7,663.6L2990.7,663.6z"/>
		</g>
		<g>
			<path class="st0" d="M3425.2,698.9c-2,0-4.1-0.4-6-1.3l-3.5-1.6l-175.6-76.7l-76.7,28.1l-3.6,1.4c-1.7,0.6-3.5,1-5.2,1
				c-2,0-4.1-0.4-6-1.3l-3.5-1.6L2663,436.2l-42.4-18.5c-6.4-2.8-10-9.7-8.6-16.6c1.4-6.8,7.5-11.8,14.5-11.8h411.5
				c2.1,0,4.1,0.4,6,1.3l1.8,0.8l501.1,218.9l22.1,9.6c5.5,2.4,9,8,8.9,14c-0.2,6-4,11.4-9.7,13.4l-22.6,8.3L3434,696.6l-3.6,1.4
				C3428.7,698.6,3426.9,698.9,3425.2,698.9z"/>
			<path class="st1" d="M3037.9,404.2l1.8,0.8l501.2,219l22.2,9.6l-22.6,8.3l-111.6,40.9l-3.6,1.4l-3.5-1.6l-181.1-79.1l-82.3,30.1
				l-3.6,1.4l-3.5-1.6l-482.2-210.7l-42.4-18.5h46.3h363.1H3037.9 M3037.9,374.6h-2.1h-363.1h-46.3c-14,0-26.1,9.8-28.9,23.5
				c-2.9,13.7,4.3,27.5,17.1,33.1l42.4,18.5l482.1,210.7l3.5,1.5c3.8,1.7,7.9,2.5,12,2.5c3.5,0,7.1-0.6,10.5-1.9l3.5-1.3l71.1-26
				l170.1,74.3l3.5,1.5c3.8,1.7,7.9,2.5,12,2.5c3.5,0,7.1-0.6,10.5-1.9l3.5-1.3l111.4-40.8l22.6-8.3c11.3-4.1,19-14.8,19.4-26.9
				c0.4-12.1-6.7-23.2-17.7-28l-22.2-9.6l-501-218.9l-1.7-0.8C3046.1,375.5,3042.1,374.6,3037.9,374.6L3037.9,374.6z"/>
		</g>
		<g>
			<path class="st0" d="M1343.8,323c-3.5,0-7-1.3-9.7-3.6c-3.2-2.8-5.1-6.9-5.1-11.2v-58c0-7.3,5.3-13.5,12.5-14.6l8.3-1.3
				c8.9-1.3,18.2-4.6,27.8-9.6c10.5-5.6,20.1-13,28.3-22.2c8.2-9.1,15.1-19.9,20.6-32.1c5.4-12.1,9.3-26.2,12.1-44.7
				c2.8-18.9,4.4-39.2,5-63.6V30c0-8.2,6.6-14.8,14.8-14.8h38.8c0.6,0,1.2,0,1.7,0.1h29c0.6-0.1,1.1-0.1,1.7-0.1h22.6
				c0.8,0,1.6,0,2.4,0c0.6,0,1.3,0,1.9,0c0.5,0,1,0,1.5,0c0.2,0,0.4,0,0.7,0h9.7c3.9,0,7.7,1.6,10.5,4.4c2.8,2.8,4.3,6.6,4.3,10.5
				l-0.1,9.7c-0.2,28.7,1,53.3,3.6,75.1c2.1,16.7,5.3,36.1,12.4,52.7c0,0,0,0.1,0.1,0.1c6.6,15.8,16,29.8,27.2,40.5
				c11.3,10.7,24.7,18.7,38.8,23.2c3.9,1.2,7.7,2.1,11.5,2.7l8.2,1.2c7.3,1,12.7,7.3,12.7,14.6V308c0,4.3-1.8,8.3-5,11.1
				c-2.7,2.4-6.2,3.7-9.7,3.7c-0.7,0-1.3,0-2-0.1l-11-1.5c-10.9-1.5-22.3-4.3-34.6-8.4c-0.1,0-0.1,0-0.2-0.1
				c-14.2-4.9-27.1-11.2-38.5-18.6c-7.6-4.8-15.1-10.8-24.4-19.3c-5.9-5.4-11.3-11.1-16.2-16.9v48.8c0,8.2-6.6,14.8-14.8,14.8h-30.9
				c-3.1,0-5.9,0-8.3,0.1c-2.2,0-4.2,0-6.1,0c0,0-9.8,0.1-9.8,0.1c-3.9,0-7.6-1.5-10.3-4.2c-2.8-2.7-4.4-6.5-4.4-10.4l-0.1-9.7
				c-0.1-13.3-0.1-26.6-0.1-39.6c-6.7,8-14.5,15.8-23.2,23.2c-15.7,13.7-34.5,24.4-56,31.7c-12.1,4.1-23.5,6.9-34.8,8.5l-11,1.6
				C1345.2,322.9,1344.5,323,1343.8,323z"/>
			<path class="st1" d="M1568.4,30L1568.4,30 M1568.4,30l-0.1,9.7c-0.2,29,1,54.3,3.7,77.1c2.3,17.7,5.6,38.3,13.5,56.7
				c7.4,17.7,17.9,33.4,30.6,45.5c12.8,12.1,28.2,21.4,44.5,26.6c4.7,1.5,9.4,2.6,13.8,3.2l8.3,1.2v8.4c0,12.8,0,25.6,0,38.4V308
				l-11-1.5c-10-1.4-20.5-3.9-31.9-7.8c-13-4.5-24.9-10.2-35.3-17c-7-4.4-13.9-9.9-22.4-17.7c-12.6-11.6-22.5-23.9-29.8-36.7
				c-4.2-7.4-7.9-15.5-11.1-24.8v94.7v9.6h-9.6c-1.9,0-3.8,0-5.7,0c-2.6,0-5.2,0-7.8,0c-2.7,0-5.2,0-7.8,0c-5.9,0-10.3,0.1-14.6,0.1
				l-9.7,0.1l-0.1-9.7c-0.1-16.8-0.1-33.9-0.1-50.3c0-10.4,0-21.2,0-31.8c0-4.5,0-9,0-13.4c-1.9,5.7-4.3,11.5-7.2,17.6
				c-8.5,17.9-22.1,34.9-40.5,50.5c-14.2,12.4-31.3,22.2-51.1,28.9c-11.2,3.8-21.7,6.4-32.1,7.9l-11,1.6v-11.1c0-12.8,0-25.7,0-38.5
				v-8.4l8.3-1.3c10.4-1.6,21.4-5.3,32.4-11.1c12.1-6.4,22.9-14.9,32.4-25.3c9.3-10.2,17-22.4,23.1-36c5.9-13.1,10.1-28.5,13.2-48.4
				c2.9-19.3,4.5-40.2,5.1-65.7c0-4.5,0-9.1,0-13.5c0-3.1,0-6.1,0-9.2V30h9.6c3.2,0,6.5,0,9.7,0c3.2,0,6.5,0,9.7,0h9.6v0.1
				c3.6,0,7.5,0,12.1,0c3,0,5.8,0,8.7,0c2.9,0,5.7,0,8.6,0c1,0,2,0,3.1,0V30h9.6c2.2,0,4.3,0,6.5,0c2.2,0,4.3,0,6.5,0
				c1.4,0,2.9,0,4.3,0c0.7,0,1.4,0,2.2,0H1568.4 M1568.4,0.5L1568.4,0.5h-9.8c-0.4,0-0.9,0-1.3,0c-0.1,0-0.4,0-0.8,0
				c-0.6,0-1.1,0-1.7,0c-0.9,0-1.7,0-2.6,0h-6.5h-6.5h-9.6c-0.8,0-1.6,0-2.4,0.1h-0.6h-8.6h-8.7h-9.7c-0.8-0.1-1.6-0.1-2.4-0.1h-9.6
				h-9.7h-9.7h-9.6c-16.3,0-29.5,13.2-29.5,29.5v9.6v9.2V62c-0.6,23.7-2.1,43.3-4.8,61.6c-2.6,17-6.1,30-10.9,40.7
				c0,0,0,0.1-0.1,0.1c-4.8,10.8-10.9,20.3-18.1,28.3c-7.1,7.8-15.3,14.2-24.3,19c-8,4.2-15.8,6.9-23,8c0,0-0.1,0-0.1,0l-8.3,1.3
				c-14.4,2.2-25,14.6-25,29.2v8.4v38.5v11.1c0,8.6,3.7,16.7,10.2,22.3c5.4,4.7,12.3,7.2,19.4,7.2c1.4,0,2.8-0.1,4.2-0.3l11-1.6
				c12.2-1.7,24.5-4.7,37.5-9.2c22.8-7.8,42.9-19.1,59.7-33.6c0,1.4,0,2.9,0,4.3c0,0,0,0.1,0,0.1l0.1,9.7c0.1,7.8,3.3,15.3,8.9,20.8
				c5.5,5.4,12.9,8.4,20.7,8.4c0.1,0,0.2,0,0.3,0l9.6-0.1c2,0,4.1,0,6.2,0c2.5,0,5.1-0.1,8.2-0.1h7.8h7.8h5.7h9.6
				c16.3,0,29.5-13.2,29.5-29.5v-9.6v-3.9c6.3,5.3,12,9.6,17.8,13.3c12.3,8,26.3,14.7,41.6,20.1c0.1,0,0.2,0.1,0.3,0.1
				c13.3,4.5,25.5,7.4,37.3,9c0,0,0.1,0,0.1,0l11,1.5c1.3,0.2,2.6,0.3,3.9,0.3c7.1,0,14-2.6,19.5-7.3c6.4-5.6,10.1-13.7,10.1-22.2
				v-11.1v-38.4v-8.4c0-14.7-10.8-27.2-25.4-29.2l-8.1-1.2c-3-0.5-6.1-1.2-9.3-2.2c-12-3.8-23.4-10.7-33.1-19.8
				c-9.7-9.3-17.9-21.5-23.7-35.4c0-0.1-0.1-0.2-0.1-0.3c-6.4-15-9.3-33-11.3-48.7c-2.6-21.2-3.7-45.2-3.5-73.2l0.1-9.3
				c0-0.2,0-0.5,0-0.7C1597.9,13.7,1584.7,0.5,1568.4,0.5L1568.4,0.5z M1568.4,59.6L1568.4,59.6L1568.4,59.6L1568.4,59.6z"/>
		</g>
		<g>
			<path class="st0" d="M1865.2,321.5c-6.5,0-12.3-4.3-14.2-10.6l-2.1-7c-3.3-11.2-6.6-22.6-9.8-33.6l-2.7-9.2
				c-0.4-1.4-0.8-2.9-1.3-4.4h-41c-5,16.9-9.4,32.1-13.7,47.1l-2.1,7.1c-1.9,6.3-7.6,10.6-14.2,10.6h-60.2c-4.6,0-9-2.2-11.8-5.9
				c-2.8-3.7-3.7-8.5-2.4-13l3.5-12.3c25.1-86.7,46-158.8,64.9-223.8c0.2-0.6,0.4-1.1,0.6-1.7c0.2-0.6,0.4-1.3,0.6-2
				c0.2-0.8,0.4-1.6,0.7-2.4l0-0.1c1.9-7.1,4.6-16.8,12-25.6c10-12.5,25.9-20,42.7-20c13,0,25.4,4.5,35,12.5
				c8.6,7.2,14.8,17,18,28.2c4.1,14.2,8.3,28.5,12.4,42.7c6,20.7,12.1,41.4,18,61.7c11.4,39.3,23.2,80,34.9,120.1l2.9,10l3.6,12.5
				c1.3,4.5,0.4,9.3-2.4,13c-2.8,3.7-7.2,5.9-11.8,5.9H1865.2z"/>
			<path class="st1" d="M1815,29.6c9.6,0,18.6,3.2,25.5,9.1c6.3,5.3,10.9,12.6,13.3,21c10.1,34.9,20.5,70.2,30.4,104.5
				c12.4,42.6,25.2,86.7,37.8,130.2l3.5,12.4h-12.9h-4.7c-3.5,0-7.2,0-10.7,0c-3.5,0-7.2,0-10.7,0c-4.6,0-9.4,0-14,0h-7.3l-2.1-7
				c-4.2-14.3-8.4-28.8-12.4-42.7c-1.5-5-2.9-10-4.3-15.1c-8.9,0-17.8,0-26.7,0h-12.7h-12.7c-3.7,0-7.4,0-11.1,0
				c-5.4,18.5-10.9,37.4-16.8,57.8l-2.1,7h-7.3c-5.8,0-11.6,0-17.4,0h-6.5h-6.6c-3.2,0-6.3,0-9.5,0h-12.9l3.5-12.3
				c24.9-86.3,45.6-157.4,64.9-223.8l0.1-0.2l0.1-0.2c0.6-1.8,1.1-3.7,1.7-5.7c1.8-6.5,3.7-13.9,9.3-20.3
				C1790.9,35.1,1802.6,29.6,1815,29.6 M1799.4,186c4.2,0,8.8,0,13.9,0c4.9,0,9.9,0,14.9,0c0.6,0,1.3,0,2,0
				c-3.5-12.1-7-24.2-10.5-36.3c-1.6-5.5-3.2-11.1-4.8-16.6c-2.3,8-4.6,16-6.9,23.8C1805.1,166.4,1802.2,176.2,1799.4,186 M1815,0.1
				c-21.2,0-41.4,9.5-54.1,25.3c-9.4,11.2-12.7,23-14.8,31c-0.2,0.8-0.5,1.6-0.7,2.4c-0.1,0.4-0.2,0.8-0.3,1.1
				c-0.3,0.8-0.6,1.6-0.8,2.4c-18.9,65.1-39.9,137.2-64.9,223.9l-3.6,12.3c-2.6,8.9-0.8,18.5,4.8,25.9c5.6,7.4,14.3,11.8,23.6,11.8
				h12.9h9.5h6.6h6.5h17.4h7.3c13.1,0,24.6-8.6,28.3-21.2l2.1-7c0-0.1,0-0.1,0-0.2c3.4-11.8,6.9-23.7,10.6-36.5h1.7h12.7h4.4
				c0.3,1,0.6,1.9,0.8,2.9c3.2,11,6.5,22.5,9.8,33.8l2.1,7c3.7,12.5,15.2,21.2,28.3,21.2h7.3h14h10.7h10.7h4.7h12.9
				c9.3,0,18-4.4,23.6-11.8s7.4-17,4.8-25.9l-3.5-12.4c0,0,0-0.1,0-0.1l-3.3-11.2c-11.4-39.3-23.2-80-34.6-119
				c-5.9-20.4-12.1-41.5-18-61.9c-4.1-14.2-8.3-28.4-12.4-42.5c-4-14-11.8-26.3-22.6-35.4C1847.3,5.8,1831.5,0.1,1815,0.1L1815,0.1z
				"/>
		</g>
		<g>
			<path class="st0" d="M2148.7,321.8c-6.5,0-12.3-4.3-14.2-10.6c0,0-2.1-7.1-2.1-7.2c-1.2-4.2-2.4-8.3-3.6-12.5
				c-1.2-4.2-2.4-8.4-3.6-12.6c-1.9-6.5-3.8-13.2-5.7-19.9c-0.2-0.7-0.4-1.4-0.6-2.1h-40.8c-1.3,4.6-2.7,9.3-4,13.8
				c-1.3,4.3-2.5,8.7-3.8,13.1c-1.9,6.6-3.9,13.4-5.8,20l-2,7c-1.8,6.4-7.6,10.8-14.2,10.8h-60.2c-4.6,0-9-2.2-11.8-5.9
				c-2.8-3.7-3.7-8.5-2.4-13l3.5-12.4c15.1-52.5,31.9-110.5,49.9-172.4c4.4-15.5,9.3-32.2,15.3-52.7c0.2-0.7,0.4-1.3,0.7-2
				c0.3-0.9,0.6-2.2,0.9-3.4c1.6-6.1,3.8-14.3,9.5-22.1c9.9-14.3,27.1-23.1,44.9-23.1c4.8,0,9.4,0.6,13.5,1.9
				c18.8,4.7,33.9,19.7,39.4,39.5c9.4,32.6,19.7,68,32.4,111.4l8.5,29.1V71c0.1-23.3,16.4-45.5,38.7-52.8c5.6-2,11.7-3,18.3-3
				c0,0,47,0,47.1,0c17.2,0.4,34.2,5.6,49.1,15.3c12.1,7.8,22.2,18.2,29.6,30.2V30c0-8.2,6.6-14.8,14.8-14.8h60
				c8.1,0,14.7,6.5,14.8,14.6c0,0,0.1,9.7,0.1,9.7v267.1c0,8.2-6.6,14.8-14.8,14.8h-121.6c-5,0-9.6-2.5-12.3-6.6l-2.9-4.3
				c-11.4-17-22.9-34.4-33.3-50.2v46.4c0,8.2-6.6,14.8-14.8,14.8h-54.4c-0.5,0.1-1.1,0.1-1.6,0.1l-12.7,0.1c-4.4,0.1-9.1,0.1-15,0.1
				H2148.7z M2345.4,202.5c9.2,14,18.6,28,27.8,41.7l2.1,3.2v-74.5c-4.6,7.6-10.2,14.4-16.7,20.1
				C2354.1,196.9,2349.6,199.9,2345.4,202.5z M2280.2,138.8c10.2-4.1,17.4-9.4,21-15.4c1.6-2.7,1.7-8.2,0.2-14.4
				c-0.1-0.4-0.2-0.7-0.2-1.1c-0.8-2.3-3.8-4.7-6-4.7h-14.9V138.8z"/>
			<path class="st1" d="M2098.8,29.5c3.2,0,6.5,0.4,9.6,1.4c13.8,3.2,25.1,14.7,29.1,29.2c10.7,37.1,21.6,74.3,32.4,111.5
				c11.7,40.3,23.8,81.9,35.7,122.9l1.7,5.8v-3.3c0-32.3,0-64.6,0-96.9c0-42.3,0-86.2,0-129.2c0.1-17.1,12.2-33.5,28.7-38.8
				c4.1-1.5,8.7-2.2,13.6-2.2c0.4,0,0.7,0,0.7,0s0,0,0,0c6.2,0,12.3,0,18.5,0c3.6,0,7.3,0,10.9,0s7.3,0,10.9,0h5.5h0.1h0.1
				c14.5,0.3,28.8,4.7,41.4,12.9c12.5,8.1,22.4,19.2,28.7,32.2c7.6,14.7,10,33,7.6,54.4c-1.7,21-10.8,40-25.1,52.4
				c-4.7,4.2-9.8,7.3-14.8,10.2c-3.1,1.9-6,3.6-8.7,5.6c0,0.3,0,0.9,0.2,1.5c13.7,21.1,28,42.2,41.7,62.8
				c6.5,9.7,13.3,19.8,19.9,29.7l2.9,4.3c0-85.5,0-170.9,0-256.3V30h9.6h40.7h9.6l0.1,9.6c0,28.6,0,57.2,0,85.8
				c0,56.2,0,114.4,0,171.6v9.7h-9.7c-4.7,0-9.5,0-14.2,0c-3.6,0-7.2,0-10.8,0s-7.2,0-10.8,0h-4.8h-2.5h-7.2h-10.8c-3,0-6,0-9,0
				c-3.3,0-6.7,0-10,0c-3.3,0-6.7,0-10,0c-6.4,0-11.6,0-16.4,0h-5.2l-2.9-4.3c-12.1-18.1-24.3-36.6-36.1-54.5
				c-7.6-11.5-15.5-23.3-23.1-35.1c-0.4-0.5-0.7-1.1-1.1-1.7c0,28.4,0,57.4,0,86v9.6h-9.6c-5,0-9.9,0-15,0h-6.1h-6.1
				c-3.8,0-7.7,0-11.5,0h-7.8l0,0.1l-12.8,0.1c-4.2,0.1-9,0.1-14.8,0.1c-3,0-5.8,0-8.7,0c-2.9,0-5.7,0-8.6,0s-5.6,0-8.4,0h-7.3
				l-2.1-7c-2.4-8.4-4.8-16.7-7.2-25.1c-3.1-10.7-6.3-21.8-9.5-32.7c-6.6,0-13.3,0-19.9,0c-6.9,0-13.9,0-20.9,0
				c-8.4,0-15.6,0-22.3,0c-2.4,8.2-4.7,16.4-7.1,24.4c-3.2,10.9-6.5,22.2-9.6,33.3l-2,7h-7.3c-3,0-6,0-9.1,0h-8.1h-8.1
				c-4.9,0-9.8,0-14.8,0h-12.9l3.5-12.4c16.5-57.5,33.5-115.9,49.9-172.3c5-17.5,10.1-35.2,15.3-52.7l0.1-0.2l0.1-0.2
				c0.6-1.6,1.1-3.4,1.6-5.3c1.5-5.5,3.2-11.7,7.3-17.3C2073.1,36,2085.7,29.5,2098.8,29.5 M2265.4,167.3c4.2-6.1,10.5-11,18.2-14
				c14.6-5.5,24.7-13.1,30.2-22.4c4.6-7.9,3.5-18.2,1.8-25.4v-0.1v-0.1c-2-9.3-11.2-16.8-20.6-16.8c-0.2,0-0.4,0-0.6,0h-0.1h-0.1
				c-2.5,0-5,0-7.6,0c-2.1,0-4.2,0-6.4,0c-2.1,0-4.1,0-6.2,0c-3.3,0-6.1,0-8.7,0C2265.4,114.6,2265.4,141.2,2265.4,167.3
				 M2083.3,186c7,0,14,0,20.9,0h9.6c-3.1-10.5-6.1-21.1-9.1-31.4c-2.1-7.1-4.1-14.3-6.2-21.5c-0.6,2.2-1.3,4.3-1.9,6.5
				C2092.3,154.9,2087.8,170.4,2083.3,186 M2098.8,0c-11.1,0-22.2,2.7-32.2,7.8c-10,5.1-18.5,12.6-24.8,21.5
				c-7.3,10-10,20.1-11.8,26.8c0,0,0,0.1,0,0.1c-0.2,0.6-0.4,1.5-0.6,2.1c-0.4,0.9-0.7,1.9-1,2.9c-6,20.5-10.8,37.2-15.3,52.7
				c-18,61.8-34.8,119.8-49.9,172.4c0,0,0,0,0,0.1l-3.5,12.4c-2.5,8.9-0.8,18.5,4.8,25.9c5.6,7.4,14.3,11.8,23.6,11.8h12.9h14.8h8.1
				h8.1h9.1h7.3c13.2,0,24.8-8.8,28.4-21.5l2-7c1.9-6.6,3.8-13.3,5.8-19.9c1.3-4.4,2.6-8.8,3.8-13.1c0.3-1.1,0.6-2.1,0.9-3.2h0.1
				h18.6c1.1,3.8,2.2,7.5,3.2,11.2c1.2,4.2,2.4,8.5,3.6,12.7c1.2,4.1,2.4,8.3,3.5,12.4c0,0.1,0.1,0.2,0.1,0.4l2.1,7
				c3.7,12.5,15.2,21.2,28.3,21.2h7.3h8.4h8.6h8.7c5.7,0,10.7,0,15.2-0.1l12.6-0.1c0.7,0,1.5,0,2.2-0.1h5.4h11.5h6.1h6.1h15h9.6
				c15.5,0,28.1-11.9,29.4-27c2.1,3.2,4.2,6.3,6.3,9.5l2.8,4.3c5.5,8.3,14.7,13.3,24.7,13.3h5.2h16.4h10h10h9h10.8h7.2h2.5h4.8h10.8
				h10.8h14.2h9.7c16.3,0,29.5-13.2,29.5-29.5V297V125.3V39.6c0-0.1,0-0.2,0-0.3l-0.1-9.6c-0.2-16.2-13.3-29.2-29.5-29.2h-9.6h-40.7
				h-9.6c-14.1,0-25.8,9.8-28.8,23c-2.4-1.9-5-3.7-7.6-5.3c-17.2-11.1-36.8-17.2-56.8-17.6c-0.2,0-0.4,0-0.6,0h-0.1h-0.1h-5.5h-10.9
				h-10.9h-18.5h-0.7c-8.2,0-16,1.3-23.1,3.7c-13.6,4.5-25.9,13.5-34.7,25.4c-8.9,12.1-13.9,26.7-14,41.2c0,0.1,0,0.1,0,0.2v22
				c-4.2-14.3-8.1-27.8-11.9-40.9c-3.3-12-9.7-22.9-18.4-31.6c-8.8-8.8-19.6-15-31.3-18C2110.8,0.8,2104.9,0,2098.8,0L2098.8,0z"/>
		</g>
		<g>
			<path class="st0" d="M1926.6,321.4c-8.2,0-14.8-6.6-14.8-14.8V103.3H1873c-8.2,0-14.8-6.6-14.8-14.8V30c0-8.2,6.6-14.8,14.8-14.8
				h164.8c8.2,0,14.8,6.6,14.8,14.8v58.6c0,8.2-6.6,14.8-14.8,14.8h-38.8v203.2c0,8.2-6.6,14.8-14.8,14.8H1926.6z"/>
			<path class="st1" d="M2037.8,30v9.7V79v9.6h-9.6h-8.4h-13.1h-13.1c-3.2,0-6.2,0-9.4,0v44.9c0,54.4,0,109,0,163.4v9.6h-9.6h-38.4
				h-9.6V297v-54.6c0-51.3,0-102.5,0-153.8c-3.1,0-6,0-9.1,0c-4.7,0-9.6,0-14.3,0c-4.7,0-9.6,0-14.3,0h-6.3h-9.6v-9.6
				c0-6.5,0-13.1,0-19.7c0-6.5,0-13,0-19.5V30h9.6h145.6H2037.8 M2037.8,0.5h-9.6h-145.6h-9.6c-16.3,0-29.5,13.2-29.5,29.5v9.6v19.5
				v19.7v9.6c0,16.3,13.2,29.5,29.5,29.5h9.6h6.3h8.1v124.3V297v9.6c0,16.3,13.2,29.5,29.5,29.5h9.6h38.4h9.6
				c16.3,0,29.5-13.2,29.5-29.5V297V133.5v-15.4h6h8.4h9.6c16.3,0,29.5-13.2,29.5-29.5V79V39.8V30
				C2067.4,13.7,2054.2,0.5,2037.8,0.5L2037.8,0.5z"/>
		</g>
	</g>
	<g>
		<g>
			<g>
				<g>
					<g>
						<rect x="35.4" y="409.1" class="st2" width="246.9" height="303.6"/>
						<path class="st1" d="M277.6,413.9v293.9H40.3V413.9H277.6 M287.2,404.3h-9.6H40.3h-9.6v9.6v293.9v9.6h9.6h237.3h9.6v-9.6
							V413.9L287.2,404.3L287.2,404.3z"/>
					</g>
					<g>
						<rect x="34.4" y="736.6" class="st2" width="610.2" height="99"/>
						<path class="st1" d="M639.7,741.4v89.2H39.2v-89.2H639.7 M649.4,731.8h-9.6H39.2h-9.6v9.6v89.2v9.6h9.6h600.5h9.6v-9.6v-89.2
							L649.4,731.8L649.4,731.8z"/>
					</g>
					<g>
						<polygon class="st2" points="556.5,409.1 906.4,409.1 1125.8,574.3 954,684.8 						"/>
						<path class="st1" d="M904.9,413.9L1117.3,574L954.1,678.9l-382-265H904.9 M908,404.3h-3.2H572.1h-30.9l25.4,17.6l382,265
							l5.3,3.6l5.4-3.4l163.2-104.9l11.7-7.5l-11.1-8.4L910.7,406.3L908,404.3L908,404.3z"/>
					</g>
					<g>
						<polygon class="st2" points="2381.6,835.4 1717.9,409.1 1962.3,409.1 2393.7,695.6 2393.7,409.1 2522.1,409.1 2522.1,835.4 
													"/>
						<path class="st1" d="M2517.2,413.9v416.7H2383l-648.6-416.7h226.5l437.7,290.8V413.9H2517.2 M2526.9,404.3h-9.6h-118.6h-9.6
							v9.6v272.6l-422.7-280.7l-2.5-1.6h-3h-226.5h-33l27.8,17.8l648.7,416.7l2.4,1.6h2.9h134.2h9.6v-9.6V413.9V404.3L2526.9,404.3z
							"/>
					</g>
					<g>
						<polygon class="st2" points="1725.6,835.4 1726.7,449.7 1993.5,621.1 1993.5,835.4 						"/>
						<path class="st1" d="M1731.5,458.5l257.2,165.2v206.9h-258.3L1731.5,458.5 M1721.9,440.8l-0.1,17.6l-1.1,372.1v9.7h9.7h258.3
							h9.6v-9.6V623.8v-5.3l-4.4-2.9l-257.2-165.2L1721.9,440.8L1721.9,440.8z"/>
					</g>
					<g>
						<polygon class="st2" points="975,835.4 975,706.4 1437.6,409.1 1645.3,409.1 1224.1,700.8 1224.1,835.4 						"/>
						<path class="st1" d="M1629.8,413.9l-410.6,284.5v132.2H979.8V709L1439,413.9L1629.8,413.9 M1660.8,404.3h-31H1439h-2.9
							l-2.4,1.6l-459.2,295l-4.4,2.9v5.3v121.6v9.6h9.6h239.5h9.6v-9.6V703.4l406.4-281.5L1660.8,404.3L1660.8,404.3z"/>
					</g>
				</g>
				<g>
					<g>
						<polygon class="st2" points="3358.8,835.4 2845.6,611.2 2970.4,565.6 3155,646.2 3240.9,614.7 3746.1,835.4 3359.8,835.4 
													"/>
						<path class="st1" d="M2970.2,570.8l184.6,80.6l86-31.5l482.2,210.7h-363.1l-501.2-219L2970.2,570.8 M2970.5,560.3l-3.6,1.4
							l-111.6,40.9l-22.6,8.3l22.2,9.6l501.2,219l1.9,0.8h2.1H3723h46.3l-42.4-18.5L3244.7,611l-3.5-1.6l-3.6,1.4l-82.3,30.1
							l-181.1-79.1L2970.5,560.3L2970.5,560.3z"/>
					</g>
					<g>
						<polygon class="st2" points="3243.5,475.6 3425.2,409 3782,409 3405.2,546.2 						"/>
						<path class="st1" d="M3754.5,413.9L3405.3,541L3256.4,476l169.5-62H3754.5 M3809.5,404.2h-54.9H3426h-1.7l-1.6,0.6l-169.5,62
							l-22.6,8.3l22.2,9.6l148.9,65.1l3.5,1.6l3.6-1.3L3758,423L3809.5,404.2L3809.5,404.2z"/>
					</g>
				</g>
			</g>
			<g>
				<g>
					<polygon class="st0" points="2613.6,835.4 2990.5,698.4 3152.2,769 2970.6,835.4 					"/>
					<path class="st1" d="M2990.4,703.6l148.9,65.1l-169.6,62h-328.6L2990.4,703.6 M2990.7,693.2l-3.6,1.3l-349.2,127.1l-51.6,18.8
						h54.9h328.6h1.7l1.6-0.6l169.6-62l22.6-8.3l-22.2-9.6l-148.8-65.2L2990.7,693.2L2990.7,693.2z"/>
				</g>
				<g>
					<polygon class="st0" points="3240.7,598.3 3154.8,629.8 2649.6,409.1 3036.9,409 3550.1,633.3 3425.4,679 					"/>
					<path class="st1" d="M3035.9,413.9l501.2,219l-111.6,40.9l-184.6-80.6l-86,31.5l-482.2-210.7L3035.9,413.9 M3037.9,404.2h-2.1
						h-363.1h-46.3l42.4,18.5L3151,633.4l3.5,1.6l3.6-1.4l82.3-30.1l181.1,79.1l3.5,1.6l3.6-1.4l111.6-40.9l22.6-8.3l-22.2-9.6
						l-501.2-219L3037.9,404.2L3037.9,404.2z"/>
				</g>
				<g>
					<g>
						<path class="st0" d="M1348.6,297.1c0-12.8,0-25.7,0-38.5v-4.1l4.1-0.6c11-1.7,22.4-5.5,34-11.6c12.5-6.6,23.8-15.5,33.7-26.4
							c9.6-10.6,17.6-23.1,23.9-37.3c6.1-13.5,10.4-29.2,13.6-49.7c3-19.6,4.6-40.7,5.2-66.4c0-4.4,0-9.1,0-13.5c0-3.1,0-6.1,0-9.2
							V35h4.8c3.2,0,6.5,0,9.7,0s6.5,0,9.7,0h4.8v4.8c0,9.2,0,18.3,0,27.5c0,6.1,0,12.3,0,18.4c0.1,11.3-0.2,23.5-0.8,38.5
							c-0.8,16.8-1.9,36.4-5.1,55.6c-2,11.8-6,24.1-12.2,37.4c-8.2,17.3-21.5,33.8-39.4,49c-13.6,11.9-30.2,21.4-49.4,28.1
							c-10.9,3.7-21.2,6.3-31.2,7.7l-5.5,0.8L1348.6,297.1z"/>
						<path class="st1" d="M1487.5,39.8c0,15.3,0,30.6,0,45.9c0.1,12.8-0.3,25.5-0.8,38.3c-0.9,18.4-2.1,36.8-5,55
							c-2.1,12.5-6.4,24.6-11.8,36.1c-8.8,18.5-22.5,34.2-38.1,47.4c-13.9,12.2-30.4,21.1-47.9,27.2c-9.8,3.3-20,6-30.3,7.5
							c0-12.8,0-25.7,0-38.5c12.4-1.9,24.4-6.3,35.4-12.1c13.2-7,25-16.3,35.1-27.4c10.3-11.4,18.5-24.6,24.7-38.6
							c7.4-16.1,11.2-33.5,14-51c3.3-22.2,4.7-44.6,5.2-67c0.1-7.6,0-15.2,0-22.7C1474.5,39.8,1481,39.8,1487.5,39.8 M1497.1,30
							h-9.6c-3.2,0-6.5,0-9.7,0s-6.5,0-9.7,0h-9.6v9.6c0,3.1,0,6.1,0,9.2c0,4.4,0,9,0,13.5c-0.6,25.5-2.3,46.4-5.1,65.7
							c-3.1,20-7.3,35.3-13.2,48.4l0,0l0,0c-6.1,13.7-13.9,25.8-23.1,36c-9.5,10.4-20.3,18.9-32.4,25.3c-11,5.8-22,9.6-32.4,11.1
							l-8.3,1.3v8.4c0,12.8,0,25.7,0,38.5v11.1l11-1.6c10.4-1.5,20.9-4,32.1-7.9c19.8-6.8,36.9-16.5,51.1-28.9
							c18.4-15.7,32-32.6,40.5-50.5c6.5-13.8,10.5-26.4,12.6-38.7c3.2-19.5,4.4-39.2,5.2-56.2l0,0l0,0c0.6-15.1,0.9-27.4,0.8-38.7
							c0-6.1,0-12.2,0-18.3c0-9.2,0-18.3,0-27.6L1497.1,30L1497.1,30z"/>
					</g>
					<g>
						<path class="st0" d="M1490.5,297.2c-0.1-16.7-0.1-33.8-0.1-50.3c0-10.6,0-21.2,0-31.8c0-22.5,0-45.1,0-67.6
							c0-35.8,0-71.8,0-107.6V35h4.8c4.6,0,9.3,0,13.8,0c2.9,0,14.5,0,17.4,0h9.6v266.9h-4.8c-1.9,0-3.7,0-5.7,0h-15.6
							c-5.8,0-10.3,0-14.6,0.1h-4.8L1490.5,297.2z"/>
						<path class="st1" d="M1509.1,39.8c5.7,0,11.5,0,17.2,0c1.6,0,3.2,0,4.8,0c0,85.8,0,171.5,0,257.3c-1.9,0-3.7,0-5.7,0
							c-5.1,0-10.3,0-15.5,0c-4.9,0-9.7,0-14.7,0.1c-0.2-27.4,0-54.6-0.1-82c0-58.5,0-116.9,0-175.3
							C1500,39.8,1504.5,39.8,1509.1,39.8 M1540.9,30.1h-9.6c-1.6,0-3.2,0-4.8,0c-2.9,0-5.7,0-8.6,0c-2.9,0-5.7,0-8.7,0
							c-5.4,0-9.8,0-13.9,0l-9.6,0.1v9.6c0,35.9,0,72.5,0,107.8c0,22.4,0,45,0,67.4c0,10.6,0,21.4,0,31.8c0,16.4,0,33.5,0.1,50.3
							l0.1,9.7l9.7-0.1c4.2,0,8.7-0.1,14.6-0.1c2.6,0,5.1,0,7.8,0c2.6,0,5.2,0,7.8,0c1.9,0,3.8,0,5.7,0h9.6v-9.6V39.8v-9.6H1540.9z"
							/>
					</g>
					<g>
						<path class="st0" d="M1672.5,301.8c-9.7-1.3-19.9-3.8-31-7.6c-12.7-4.4-24.3-9.9-34.4-16.5c-6.7-4.3-13.4-9.6-21.7-17.2
							c-12.1-11.2-21.9-23.1-28.8-35.5c-5.4-9.5-9.8-20.3-13.6-33v-0.1c-3.1-11.2-4.3-22.4-5.6-34.9c-2.2-23.8-3.2-48.2-3-75V68.4
							c0-9.6,0-19.1,0-28.7V35h17.7c2.2,0,4.3,0,6.5,0h4.8v4.8c-0.2,29.2,1,54.6,3.7,77.7c2.3,18,5.7,39,13.8,58
							c7.7,18.3,18.7,34.6,31.8,47.2c13.3,12.7,29.3,22.3,46.4,27.8c5,1.6,9.9,2.8,14.6,3.4l4.1,0.6v4.2c0,12.8,0,25.6,0,38.4v5.5
							L1672.5,301.8z"/>
						<path class="st1" d="M1552.1,39.8c2.2,0,4.3,0,6.5,0c-0.2,26.2,0.7,52.4,3.8,78.3c2.6,20.2,6.1,40.5,14.2,59.3
							c7.6,18.2,18.6,35.1,32.9,48.7c13.7,13,30.2,23,48.2,28.8c5,1.6,10.1,2.9,15.4,3.6c0,12.8,0,25.6,0,38.5
							c-10.2-1.4-20.3-4-30.1-7.4c-11.6-4-22.9-9.3-33.3-16c-7.6-4.8-14.5-10.6-21.1-16.7c-10.9-10-20.7-21.5-28-34.4
							c-5.7-10-9.9-21-13.2-32c-3-11.1-4.2-22.6-5.4-34.1c-2.3-24.7-3.1-49.6-3-74.4c0-14.1,0-28.2,0-42.1
							C1543.5,39.8,1547.8,39.8,1552.1,39.8 M1552.1,30c-2.2,0-4.3,0-6.5,0c-2.2,0-4.3,0-6.5,0h-9.6v9.6c0,9.5,0,18.9,0,28.4v13.8
							c-0.2,26.9,0.8,51.5,3,75.3v0.1v0.1c1.3,12.2,2.6,24,5.7,35.6v0.1v0.1c3.8,13.2,8.5,24.3,14.1,34.1
							c7.3,12.8,17.2,25.1,29.8,36.7c8.5,7.8,15.4,13.3,22.4,17.7c10.4,6.8,22.4,12.5,35.3,17l0,0l0,0c11.4,3.8,21.9,6.4,31.9,7.8
							l11,1.5v-11.1c0-12.8,0-25.6,0-38.4v-8.4l-8.3-1.2c-4.4-0.7-9.1-1.8-13.8-3.2c-16.3-5.2-31.7-14.5-44.5-26.6
							c-12.7-12.1-23.2-27.8-30.6-45.5l0,0l0,0c-7.9-18.4-11.2-39-13.5-56.7c-2.8-22.8-3.9-48-3.7-77.1l0.1-9.7h-9.7
							C1556.5,30.1,1554.3,30,1552.1,30L1552.1,30z"/>
					</g>
					<g>
						<path class="st0" d="M1757,302c-5.8,0-11.5,0-17.3,0h-13.5c-3.1,0-6.1,0-9.3,0h-6.4l1.8-6.2c24.9-86.1,45.5-157.1,64.9-223.8
							l0.1-0.2c0.6-1.9,1.2-3.8,1.7-5.9c1.7-6.4,3.4-13,8.4-18.5c6.4-8.1,16.6-12.9,27.7-12.9c8.5,0,16.3,2.9,22.3,8.1
							c5.5,4.6,9.6,11.2,11.8,18.6c10.1,34.9,20.3,69.6,30.4,104.5c12.4,42.6,25.3,86.7,37.8,130.1l1.8,6.2H1908h-21.6
							c-4.6,0-9.4,0-14,0h-3.6l-1-3.4c-4.1-14.2-8.4-28.7-12.4-42.6c-1.8-6.2-3.5-12.4-5.4-18.6c-10,0-20.1,0-30.1,0
							c0,0-35.5,0-40.5,0c-5.7,19.6-11.6,39.7-17.8,61.2l-1,3.5H1757z M1793,190.8c6.8,0,13.6,0,20.4,0c4.9,0,20.5,0,23.2,0
							c-4.1-14.2-8.3-28.4-12.3-42.5c-3.2-10.9-6.3-21.8-9.5-32.7c-3.9,13.4-7.8,26.7-11.5,39.8C1799.8,167.2,1796.4,179,1793,190.8
							z"/>
						<path class="st1" d="M1815,39.3c6.9,0,13.8,2.3,19.1,6.9c5,4.2,8.6,10,10.3,16.3c22.7,78.2,45.6,156.4,68.2,234.6
							c-1.6,0-3.2,0-4.7,0c-7.2,0-14.3,0-21.5,0c-4.7,0-9.4,0-14.1,0c-6.3-21.6-12.5-43.1-18.7-64.8c-11.3,0-22.6,0-34,0
							c-8.5,0-16.9,0-25.5,0c-6.1,0-12.3,0-18.4,0c-6.3,21.6-12.6,43.1-18.9,64.8c-5.8,0-11.6,0-17.4,0c-4.3,0-8.8,0-13.1,0
							c-3.2,0-6.3,0-9.5,0c21.6-74.6,43.2-149.3,64.9-223.8c2.6-7.8,3.5-16.5,9.2-22.8C1796.8,43.1,1806,39.3,1815,39.3
							 M1813.3,195.6c9.9,0,19.9,0,29.7,0c-9.5-32.4-18.8-64.9-28.3-97.3c-9.6,32.4-18.8,64.9-28.3,97.3
							C1795.4,195.6,1804.4,195.6,1813.3,195.6 M1815,29.6c-12.4,0-24.1,5.4-31.3,14.6c-5.5,6.4-7.5,13.8-9.3,20.3
							c-0.6,2-1.1,3.9-1.7,5.7l-0.1,0.2l-0.1,0.2c-19.3,66.4-40,137.6-64.9,223.8l-3.5,12.3h12.9c3.2,0,6.3,0,9.5,0h6.6h6.5
							c5.8,0,11.6,0,17.4,0h7.3l2.1-7c5.9-20.4,11.4-39.3,16.8-57.8c3.7,0,7.4,0,11.1,0h12.7h12.7c8.9,0,17.8,0,26.7,0
							c1.5,5,2.9,10,4.3,15.1c4,14,8.2,28.5,12.4,42.7l2.1,7h7.3c4.6,0,9.4,0,14,0c3.5,0,7.2,0,10.7,0c3.5,0,7.2,0,10.7,0h4.7h12.9
							l-3.5-12.4c-12.6-43.4-25.4-87.5-37.8-130.2c-9.9-34.3-20.3-69.6-30.4-104.5c-2.4-8.4-7-15.7-13.3-21
							C1833.6,32.9,1824.6,29.6,1815,29.6L1815,29.6z M1799.4,186c2.9-9.7,5.7-19.6,8.5-29.1c2.3-7.9,4.6-15.9,6.9-23.8
							c1.6,5.5,3.2,11.1,4.8,16.6c3.5,12.1,7,24.2,10.5,36.3c-0.7,0-1.4,0-2,0c-4.9,0-9.9,0-14.9,0
							C1808.1,186,1803.6,186,1799.4,186L1799.4,186z"/>
					</g>
					<g>
						<path class="st0" d="M2151.5,298.4c-2.5-8.4-4.8-16.7-7.2-25.1c-3.4-11.9-7-24.1-10.4-36.2c0,0-37.3,0-44.3,0
							c-8.7,0-17.4,0-26.1,0c-2.7,9.4-5.4,18.8-8.1,27.9c-3.2,10.9-6.5,22.3-9.6,33.4l-1,3.5h-28.8c-4.9,0-9.8,0-14.8,0h-6.4
							l1.8-6.2c16.5-57.4,33.5-115.7,49.8-172.1c5.1-17.6,15.4-53,15.4-53v-0.1c0.6-1.8,1.1-3.6,1.7-5.6c1.5-5.3,3-10.8,6.6-15.8
							c6.4-9.2,17.5-14.9,29-14.9c2.9,0,5.7,0.4,8.5,1.1c12,2.8,22.1,13,25.6,25.9c10.8,37.1,21.7,74.3,32.5,111.6
							c11.9,41,23.8,81.8,35.7,122.8l1.8,6.1l-6.4,0.1c-4.9,0-9.8,0-14.8,0c-2.9,0-14.4,0-17.2,0c-2.8,0-5.6,0-8.4,0h-3.6
							L2151.5,298.4z M2076.8,190.8c9.3,0,18.6,0,27.9,0h15.7c-3.6-12.5-7.3-25.1-10.8-37.6c-3.5-12.3-7.2-24.9-10.8-37.5
							c-2.2,7.6-4.3,15.1-6.6,22.6C2087.1,155.5,2082,173.2,2076.8,190.8z"/>
						<path class="st1" d="M2098.8,39.2c2.5,0,4.9,0.3,7.3,1c10.9,2.5,19.2,11.9,22.2,22.4c22.7,78.2,45.5,156.3,68.2,234.4
							c-4.9,0-9.8,0.1-14.7,0.1c-5.7,0-11.5,0-17.2,0c-2.8,0-5.6,0-8.4,0c-6.2-21.6-12.4-43.2-18.7-64.8c-2.1,0-4.1,0-6.3,0
							c-14,0-27.9,0-41.8,0c-9.8,0-19.7,0-29.5,0c-6.2,21.6-12.6,43.1-18.8,64.8c-3.1,0-6.1,0-9.1,0c-5.4,0-10.7,0-16.1,0
							c-4.9,0-9.8,0-14.8,0c21.6-75,43.4-150,65.2-225c2.3-6.8,3.2-14.3,7.6-20.1C2079.3,44,2089,39.2,2098.8,39.2 M2104.3,195.6
							c7.5,0,15,0,22.5,0c-9.4-32.5-18.8-65-28.2-97.5c-9.4,32.5-18.8,65-28.2,97.5C2081.8,195.6,2093,195.6,2104.3,195.6
							 M2098.8,29.5c-13.1,0-25.7,6.5-32.9,16.9c-4.1,5.6-5.8,11.8-7.3,17.3c-0.5,1.9-1,3.7-1.6,5.3l-0.1,0.2l-0.1,0.2
							c-5.1,17.5-10.2,35.2-15.3,52.7c-16.4,56.4-33.4,114.8-49.9,172.3l-3.5,12.4h12.9c4.9,0,9.8,0,14.8,0h8.1h8.1
							c3.1,0,6.1,0,9.1,0h7.3l2-7c3.2-11.1,6.5-22.4,9.6-33.3c2.4-8,4.7-16.2,7.1-24.4c6.7,0,13.9,0,22.3,0c7,0,14,0,20.9,0
							c6.6,0,13.3,0,19.9,0c3.2,10.9,6.4,22,9.5,32.7c2.4,8.4,4.8,16.7,7.2,25.1l2.1,7h7.3c2.8,0,5.5,0,8.4,0s5.7,0,8.6,0
							c2.9,0,5.7,0,8.7,0c5.8,0,10.5,0,14.8-0.1l12.8-0.1l-3.5-12.3c-11.9-41-24-82.6-35.7-122.9c-10.8-37.1-21.7-74.3-32.4-111.5
							c-4-14.6-15.4-26-29.1-29.2C2105.3,29.9,2102,29.5,2098.8,29.5L2098.8,29.5z M2083.3,186c4.4-15.6,9-31.1,13.4-46.4
							c0.6-2.2,1.3-4.3,1.9-6.5c2.1,7.2,4.1,14.4,6.2,21.5c3,10.3,6,20.9,9.1,31.4h-9.6C2097.3,186,2090.3,186,2083.3,186
							L2083.3,186z"/>
					</g>
					<g>
						<path class="st0" d="M1931.4,302v-59.3c0-53,0-105.8,0-158.8c-4.6,0-9.3,0-13.9,0H1889h-11.2v-4.8c0-6.5,0-13.1,0-19.6
							s0-13.1,0-19.6v-4.8H2033V84h-13.2h-26.3c-4.7,0-9.5,0-14.2,0v50.3c0,54.4,0,108.6,0,163v4.8L1931.4,302L1931.4,302z"/>
						<path class="st1" d="M2028.3,39.8c0,13.1,0,26.2,0,39.3c-2.8,0-5.5,0-8.3,0c-8.8,0-17.5,0-26.3,0c-6.3,0-12.7,0-19,0
							c0,72.7,0,145.4,0,218.1c-12.8,0-25.6,0-38.4,0c0-72.7,0-145.4,0-218.1c-6.2,0-12.5,0-18.7,0c-9.6,0-19,0-28.6,0
							c-2.1,0-4.2,0-6.3,0c0-13.1,0-26.2,0-39.3C1931.2,39.8,1979.8,39.8,2028.3,39.8 M2037.9,30h-9.6h-145.6h-9.6v9.6
							c0,6.5,0,13,0,19.5c0,6.6,0,13.2,0,19.7v9.6h9.6h6.3c4.7,0,9.6,0,14.3,0c4.7,0,9.6,0,14.3,0c3.1,0,6,0,9.1,0
							c0,51.3,0,102.5,0,153.8V297v9.6h9.6h38.4h9.6V297c0-54.4,0-109,0-163.4V88.6c3.2,0,6.2,0,9.4,0h13.1h13.1h8.4h9.6V79V39.8
							L2037.9,30L2037.9,30z"/>
					</g>
					<g>
						<path class="st0" d="M2329.9,299.8c-12.1-18.1-24.2-36.6-36-54.4c-7.8-11.7-15.5-23.4-23.2-35.2c-6.7-9.7-8.4-22.7-4.4-33.8
							c3-8.2,10-15,19.3-18.6c15.7-6,26.6-14.2,32.7-24.5c5.5-9.4,4.3-21,2.4-29v-0.1c-2.6-11.5-13.7-20.6-25.3-20.6
							c-0.3,0-0.5,0-0.8,0h-0.1c-2.6,0-5,0-7.6,0c-2.1,0-10.4,0-12.5,0c-3.2,0-6.5,0-9.6,0h-0.2c-1,0-2,0.4-2.7,1.2
							c-0.7,0.7-1,1.5-1,2.3c0,36.6,0,73.2,0,109.7c0,33.5,0,67,0,100.3v4.8h-4.8c-4.9,0-9.9,0-14.9,0h-12.7c-3.7,0-7.4,0-11.1,0
							h-4.8v-4.8c0-32.4,0-64.7,0-97.1c0-43,0-86.1,0-129.1c0.1-15.2,10.7-29.5,25.3-34.3c3.6-1.3,7.7-1.9,12-1.9c0.4,0,0.8,0,1.1,0
							c6.2,0,12.3,0,18.5,0h27.4c27.5,0.5,53.9,17.5,65.9,42.3c7.2,14.1,9.5,30.9,7.1,51.7c-1.6,19.7-10.1,37.7-23.5,49.2
							c-4.3,3.8-9.3,6.9-14.1,9.7c-3.3,2.1-6.5,3.9-9.5,6.1c-2,1.5-2,4.9-0.9,7.4c13.8,21.3,28.2,42.6,42,63.3
							c6.5,9.7,13.3,19.8,19.9,29.7l5,7.5h-9.1c-3,0-5.9,0-8.9,0h-20.2c-5.5,0-10.9,0-16.4,0h-2.6L2329.9,299.8z"/>
						<path class="st1" d="M2249.5,39.7c0.4,0,0.7,0,1.1,0c6.2,0,12.4,0,18.6,0c7.3,0,14.6,0,21.8,0c1.9,0,3.6,0,5.5,0
							c25.8,0.5,50.3,16.4,61.5,39.7c7.7,15.1,8.5,32.6,6.6,49.1c-1.4,17.3-8.6,34.6-21.9,46.1c-7,6.2-15.8,10-23.3,15.7
							c-4.1,3.2-4.3,9.3-2.2,13.6c20.3,31.3,41.5,62.2,62.1,93.3c-3,0-5.9,0-9,0c-6.7,0-13.4,0-20.1,0c-5.5,0-11,0-16.5,0
							c-19.9-29.8-39.5-59.8-59.3-89.6c-5.8-8.5-7.4-19.8-3.9-29.4c2.8-7.5,9.3-12.9,16.4-15.7c13.8-5.3,27.5-13.6,35.2-26.6
							c5.8-9.8,5.5-21.9,2.9-32.6c-3-13.6-16-24.4-30-24.4c-0.3,0-0.6,0-0.9,0c-2.6,0-5,0-7.6,0c-4.1,0-8.3,0-12.5,0
							c-3.2,0-6.5,0-9.7,0c-0.1,0-0.1,0-0.2,0c-4.4,0-8.6,3.8-8.5,8.4c0,70,0,140,0,210c-5,0-10,0-15,0c-4,0-8.1,0-12.2,0
							c-3.8,0-7.7,0-11.5,0c0-75.3,0-150.7,0-226.1c0.1-13.2,9.5-25.6,22-29.6C2242.5,40.2,2246,39.7,2249.5,39.7 M2249.5,30
							L2249.5,30c-4.9,0-9.5,0.7-13.6,2.2c-16.4,5.3-28.6,21.7-28.7,38.8l0,0l0,0c0,43,0,86.8,0,129.2c0,32.3,0,64.6,0,96.9v9.6h9.6
							c3.8,0,7.7,0,11.5,0h6.1h6.1c5,0,9.9,0,15,0h9.6v-9.6c0-28.6,0-57.6,0-86c0.4,0.6,0.7,1.2,1.1,1.7
							c7.7,11.7,15.6,23.5,23.1,35.1c11.8,17.9,24,36.4,36.1,54.5l2.9,4.3h5.2c4.8,0,10,0,16.4,0c3.3,0,6.7,0,10,0c3.3,0,6.7,0,10,0
							c3,0,6,0,9,0h18l-10-15c-6.6-9.9-13.4-20-19.9-29.7c-13.8-20.6-28.1-41.7-41.7-62.8c-0.2-0.6-0.2-1.2-0.2-1.5
							c2.7-2,5.6-3.7,8.7-5.6c4.9-3,10-6,14.8-10.2c14.3-12.4,23.4-31.4,25.1-52.4c2.5-21.4,0-39.7-7.6-54.4
							c-6.3-13-16.1-24.1-28.7-32.2c-12.6-8.2-26.9-12.6-41.4-12.9h-0.1h-0.1h-5.5c-3.6,0-7.3,0-10.9,0s-7.3,0-10.9,0
							c-6.2,0-12.3,0-18.5,0C2250.3,30,2249.9,30,2249.5,30L2249.5,30L2249.5,30z M2286.7,88.4c2.6,0,5.1,0,7.6,0h0.1h0.1
							c0.2,0,0.4,0,0.6,0c9.4,0,18.6,7.6,20.6,16.8v0.1v0.1c1.8,7.2,2.9,17.5-1.8,25.4l0,0l0,0c-5.5,9.4-15.7,16.9-30.2,22.4l0,0
							l0,0c-7.7,3-14,7.9-18.2,14c0-26.1,0-52.7,0-78.9c2.6,0,5.3,0,8.7,0c2.1,0,4.1,0,6.2,0C2282.4,88.4,2284.6,88.4,2286.7,88.4
							L2286.7,88.4z"/>
					</g>
					<g>
						<path class="st0" d="M2440.3,302c-4.7,0-9.5,0-14.2,0h-21.8h-9.6v-4.8c0-85.8,0-171.5,0-257.4V35h50.4v4.8
							c0,28.7,0,57.3,0,86.1c0,57.1,0,114.2,0,171.3v4.8L2440.3,302z"/>
						<path class="st1" d="M2440.4,39.8c0,85.8,0,171.5,0,257.4c-4.7,0-9.5,0-14.2,0c-7.2,0-14.5,0-21.7,0c-1.6,0-3.2,0-4.8,0
							c0-85.8,0-171.5,0-257.4C2413.2,39.8,2426.8,39.8,2440.4,39.8 M2450,30h-9.6h-40.7h-9.6v9.6c0,85.8,0,171.5,0,257.4v9.6h9.6
							h4.8c3.6,0,7.2,0,10.8,0c3.6,0,7.2,0,10.8,0c4.7,0,9.5,0,14.2,0h9.7V297c0-57.2,0-115.4,0-171.6c0-28.6,0-57.2,0-85.8L2450,30
							L2450,30z"/>
					</g>
				</g>
			</g>
		</g>
		<g>
			<g>
				<g>
					<g>
						<rect x="40.3" y="413.9" class="st2" width="237.3" height="293.9"/>
					</g>
					<g>
						<rect x="39.2" y="741.4" class="st2" width="600.5" height="89.2"/>
					</g>
					<g>
						<polygon class="st2" points="904.9,413.9 572,413.9 954.1,678.9 1117.3,574 						"/>
					</g>
					<g>
						<polygon class="st2" points="2398.6,413.9 2398.6,704.7 1960.9,413.9 1734.5,413.9 2383.1,830.6 2517.2,830.6 2517.2,413.9 
													"/>
					</g>
					<g>
						<polygon class="st2" points="1730.5,830.6 1988.7,830.6 1988.7,623.8 1731.5,458.5 						"/>
					</g>
					<g>
						<polygon class="st2" points="979.8,709 979.8,830.6 1219.2,830.6 1219.2,698.4 1629.8,413.9 1439,413.9 						"/>
					</g>
				</g>
				<g>
					<g>
						<polygon class="st2" points="3240.7,619.9 3154.8,651.4 2970.2,570.8 2858.6,611.6 3359.8,830.6 3722.9,830.6 						"/>
					</g>
					<g>
						<polygon class="st2" points="3754.5,413.9 3426,413.9 3256.5,476 3405.4,540.9 						"/>
					</g>
				</g>
			</g>
			<g>
				<g>
					<polygon class="st0" points="2641.1,830.6 2969.7,830.6 3139.2,768.6 2990.4,703.6 					"/>
				</g>
				<g>
					<polygon class="st0" points="3035.9,413.9 2672.7,413.9 3154.9,624.6 3240.8,593.1 3425.5,673.8 3537.1,632.9 					"/>
				</g>
				<g>
					<g>
						<path class="st0" d="M1468,39.8c0,7.6,0,15.2,0,22.7c-0.5,22.4-1.9,44.8-5.2,67c-2.7,17.4-6.6,34.9-14,51
							c-6.2,14-14.5,27.2-24.7,38.6c-9.9,11-21.9,20.4-35.1,27.4c-11.1,5.8-23,10.2-35.4,12.1c0,12.8,0,25.7,0,38.5
							c10.3-1.5,20.5-4,30.3-7.5c17.4-6,34-15,47.9-27.2c15.6-13.2,29.3-28.8,38.1-47.4c5.4-11.5,9.7-23.6,11.8-36.1
							c3.1-18.2,4.2-36.6,5-55c0.5-12.8,0.9-25.5,0.8-38.3c0-15.3,0-30.6,0-45.9C1481,39.8,1474.5,39.8,1468,39.8z"/>
					</g>
					<g>
						<path class="st0" d="M1495.3,39.8c0,58.4,0,116.9,0,175.3c0,27.4-0.1,54.6,0.1,82c11.9-0.1,23.9,0,35.8,0
							c0-85.8,0-171.5,0-257.3C1519.3,39.8,1507.2,39.7,1495.3,39.8z"/>
					</g>
					<g>
						<path class="st0" d="M1609.5,226.2c-14.3-13.6-25.3-30.5-32.9-48.7c-8.1-18.8-11.6-39.1-14.2-59.3c-3.2-26-4-52.2-3.8-78.3
							c-6.5,0-12.9,0-19.4,0c0,14.1,0,28.2,0,42.1c-0.2,24.8,0.7,49.7,3,74.4c1.2,11.4,2.5,22.9,5.4,34.1c3.2,11.1,7.5,22,13.2,32
							c7.3,12.9,17,24.3,28,34.4c6.6,6.1,13.5,11.9,21.1,16.7c10.3,6.7,21.7,12,33.3,16c9.7,3.3,19.9,6,30.1,7.4
							c0-12.8,0-25.6,0-38.5c-5.2-0.8-10.3-2.1-15.4-3.6C1639.8,249.2,1623.1,239.2,1609.5,226.2z"/>
					</g>
					<g>
						<path class="st0" d="M1834.1,46.2c-12.3-10.7-33-8.6-43,4.2c-5.6,6.4-6.6,15.1-9.2,22.8c-21.7,74.6-43.3,149.2-64.9,223.8
							c13.4,0,26.7,0,40.1,0c6.2-21.7,12.5-43.2,18.9-64.8c25.9,0,51.9,0,77.8,0c6.2,21.6,12.4,43.2,18.7,64.8c13.4,0,26.9,0,40.3,0
							c-22.7-78.2-45.5-156.4-68.2-234.6C1842.7,56.2,1839.2,50.4,1834.1,46.2z M1786.5,195.6c9.5-32.4,18.8-64.9,28.3-97.3
							c9.5,32.4,18.8,64.9,28.3,97.3C1824.2,195.6,1805.4,195.7,1786.5,195.6z"/>
					</g>
					<g>
						<path class="st0" d="M2106.1,40.2c-11.9-3.2-25.4,1.8-32.4,11.9c-4.4,5.8-5.3,13.3-7.6,20.1c-21.8,74.9-43.6,150-65.2,225
							c13.3,0,26.7,0,40,0c6.2-21.6,12.6-43.1,18.8-64.8c25.9-0.1,51.8,0,77.7,0c6.3,21.6,12.5,43.2,18.7,64.8
							c13.4,0,26.9,0.1,40.3,0c-22.7-78.2-45.5-156.3-68.2-234.4C2125.4,52.1,2117,42.6,2106.1,40.2z M2070.4,195.6
							c9.4-32.5,18.8-65,28.2-97.5c9.4,32.5,18.8,65,28.2,97.5C2108,195.6,2089.2,195.6,2070.4,195.6z"/>
					</g>
					<g>
						<path class="st0" d="M2028.3,79.1c0-13.1,0-26.2,0-39.3c-48.5,0-97.1,0-145.6,0c0,13.1,0,26.2,0,39.3c17.8,0,35.7,0,53.6,0
							c0,72.7,0,145.4,0,218.1c12.8,0,25.6,0,38.4,0c0-72.7,0-145.4,0-218.1C1992.6,79,2010.4,79.1,2028.3,79.1z"/>
					</g>
					<g>
						<path class="st0" d="M2319.4,190.2c7.5-5.6,16.2-9.4,23.3-15.7c13.3-11.4,20.6-28.8,21.9-46.1c2-16.5,1.2-34.1-6.6-49.1
							c-11.1-23.2-35.7-39.2-61.5-39.7c-15.3,0-30.6,0-45.9,0c-3.9-0.1-7.9,0.3-11.5,1.6c-12.5,4-22,16.4-22,29.6
							c0.1,75.3,0,150.7,0,226.1c12.9,0,25.8,0,38.7,0c0-70,0-140,0-210c-0.1-4.5,4.1-8.5,8.7-8.4c9.9-0.1,19.8,0,29.7,0
							c14.4-0.5,27.9,10.4,31,24.4c2.7,10.7,3,22.8-2.9,32.6c-7.7,13.1-21.3,21.4-35.2,26.6c-7.3,2.9-13.8,8.3-16.4,15.7
							c-3.4,9.6-1.9,21,3.9,29.4c19.8,29.8,39.4,59.9,59.3,89.6c15.2-0.1,30.3,0,45.5,0c-20.8-31.1-41.8-61.9-62.1-93.3
							C2315.1,199.5,2315.3,193.3,2319.4,190.2z"/>
					</g>
					<g>
						<path class="st0" d="M2440.4,39.8c-13.6,0-27.2,0-40.7,0c0,85.8,0,171.5,0,257.4c13.6,0,27.2,0,40.7,0
							C2440.4,211.3,2440.4,125.5,2440.4,39.8z"/>
					</g>
				</g>
			</g>
		</g>
	</g>
</g>
</svg>
