<?xml version="1.0" encoding="utf-8"?>
<!-- Generator: Adobe Illustrator 27.2.0, SVG Export Plug-In . SVG Version: 6.00 Build 0)  -->
<svg version="1.1" id="Layer_1" xmlns="http://www.w3.org/2000/svg" xmlns:xlink="http://www.w3.org/1999/xlink" x="0px" y="0px"
	 viewBox="0 0 3840 577.49" style="enable-background:new 0 0 3840 577.49;" xml:space="preserve">
<style type="text/css">
	.st0{fill:#D5A53C;}
	.st1{fill:#FFFFFF;}
	.st2{fill:#EA3323;}
	.st3{fill-rule:evenodd;clip-rule:evenodd;fill:#48A2C9;}
	.st4{font-family:'HelveticaNeueLTStd-Md';}
	.st5{font-size:45.3268px;}
	.st6{fill:none;stroke:#FFE000;stroke-width:4.5502;stroke-miterlimit:10;}
	.st7{fill:none;stroke:#FFE000;stroke-width:4.6213;stroke-miterlimit:10;}
</style>
<g>
	<g>
		<g>
			<path class="st1" d="M2988.03,478.47c-8.16,0-14.77-6.61-14.77-14.77v-349.9c0-8.16,6.61-14.77,14.77-14.77h103.45
				c8.16,0,14.77,6.61,14.77,14.77v349.9c0,8.16-6.61,14.77-14.77,14.77H2988.03z"/>
			<path class="st1" d="M3091.49,113.79v9.8v330.3v9.8h-9.8h-83.85h-9.8v-9.8v-330.3v-9.8h9.8h83.85H3091.49 M3091.49,84.25h-9.8
				h-83.85h-9.8c-16.32,0-29.55,13.23-29.55,29.55v9.8v330.3v9.8c0,16.32,13.23,29.55,29.55,29.55h9.8h83.85h9.8
				c16.32,0,29.55-13.23,29.55-29.55v-9.8v-330.3v-9.8C3121.03,97.48,3107.8,84.25,3091.49,84.25L3091.49,84.25z"/>
		</g>
		<g>
			<path class="st1" d="M2502.02,478.47c-8.16,0-14.77-6.61-14.77-14.77v-349.9c0-8.16,6.61-14.77,14.77-14.77h103.46
				c8.16,0,14.77,6.61,14.77,14.77v349.9c0,8.16-6.61,14.77-14.77,14.77H2502.02z"/>
			<path class="st1" d="M2605.47,113.79v9.8v330.3v9.8h-9.8h-83.85h-9.8v-9.8v-330.3v-9.8h9.8h83.85H2605.47 M2605.47,84.25h-9.8
				h-83.85h-9.8c-16.32,0-29.55,13.23-29.55,29.55v9.8v330.3v9.8c0,16.32,13.23,29.55,29.55,29.55h9.8h83.85h9.8
				c16.32,0,29.55-13.23,29.55-29.55v-9.8v-330.3v-9.8C2635.02,97.48,2621.79,84.25,2605.47,84.25L2605.47,84.25z"/>
		</g>
		<g>
			<path class="st1" d="M2244.53,478.47c-5.97,0-11.35-3.59-13.64-9.11l-145.31-349.9c-1.89-4.56-1.38-9.76,1.36-13.87
				c2.74-4.11,7.35-6.57,12.29-6.57h112.17c6.08,0,11.53,3.72,13.75,9.37l73.47,187.12l73.47-187.12c2.22-5.65,7.68-9.37,13.75-9.37
				h112.17c4.94,0,9.55,2.47,12.29,6.57c2.74,4.11,3.25,9.31,1.36,13.87l-145.31,349.9c-2.29,5.51-7.67,9.11-13.64,9.11H2244.53z"/>
			<path class="st1" d="M2498.01,113.79L2498.01,113.79 M2498.01,113.79l-5.63,13.56l-137.17,330.3l-2.51,6.04h-6.54h-11.76h-71.57
				h-11.76h-6.54l-2.51-6.04l-137.17-330.3l-5.63-13.56h14.68h90.81h6.68l2.44,6.22l84.78,215.92l84.78-215.92l2.44-6.22h6.68h90.81
				H2498.01 M2498.01,84.25L2498.01,84.25h-14.69h-90.81h-6.68c-12.15,0-23.06,7.44-27.5,18.75l-2.44,6.22l-57.27,145.88
				l-57.27-145.87l-2.44-6.22c-4.44-11.31-15.35-18.75-27.5-18.75h-6.68h-90.81h-14.68c-9.87,0-19.09,4.93-24.57,13.14
				c-5.48,8.21-6.5,18.62-2.71,27.74l5.63,13.56l137.17,330.3l2.51,6.04c4.58,11.03,15.35,18.21,27.29,18.21h6.54h11.76h71.57h11.76
				h6.54c11.94,0,22.71-7.19,27.29-18.22l2.51-6.04l137.17-330.3l5.35-12.88c1.64-3.67,2.55-7.74,2.55-12.02
				C2527.56,97.48,2514.33,84.25,2498.01,84.25L2498.01,84.25z M2498.01,143.34L2498.01,143.34L2498.01,143.34L2498.01,143.34z"/>
		</g>
		<g>
			<path class="st1" d="M1071.49,478.47c-8.16,0-14.77-6.61-14.77-14.77v-349.9c0-8.16,6.61-14.77,14.77-14.77h103.45
				c8.16,0,14.77,6.61,14.77,14.77v349.9c0,8.16-6.61,14.77-14.77,14.77H1071.49z"/>
			<path class="st1" d="M1174.94,113.79v9.8v330.3v9.8h-9.8h-83.85h-9.8v-9.8v-330.3v-9.8h9.8h83.85H1174.94 M1174.94,84.25h-9.8
				h-83.85h-9.8c-16.32,0-29.55,13.23-29.55,29.55v9.8v330.3v9.8c0,16.32,13.23,29.55,29.55,29.55h9.8h83.85h9.8
				c16.32,0,29.55-13.23,29.55-29.55v-9.8v-330.3v-9.8C1204.49,97.48,1191.26,84.25,1174.94,84.25L1174.94,84.25z"/>
		</g>
		<g>
			<path class="st1" d="M3707,478.47c-8.16,0-14.77-6.61-14.77-14.77V241.17c0-12.97-10.55-23.52-23.52-23.52h-66.21v246.04
				c0,8.16-6.61,14.77-14.77,14.77h-103.46c-8.16,0-14.77-6.61-14.77-14.77v-349.9c0-8.16,6.61-14.77,14.77-14.77h207.37
				c35.68,0,69.23,13.89,94.46,39.13c25.23,25.23,39.13,58.78,39.13,94.46v231.09c0,8.16-6.61,14.77-14.77,14.77H3707z"/>
			<path class="st1" d="M3691.64,113.79c31.74,0,61.57,12.36,84.01,34.8c22.44,22.44,34.8,52.28,34.8,84.01v221.29v9.8h-9.8h-83.85
				h-9.8v-9.8V241.17c0-21.11-17.18-38.29-38.29-38.29h-80.98v251.02v9.8h-9.8h-83.85h-9.8v-9.8V193.07v-54.93v-14.55v-9.8h9.8
				H3691.64 M3691.64,84.25h-197.57h-9.8c-16.32,0-29.55,13.23-29.55,29.55v9.8v14.55v54.93v260.82v9.8
				c0,16.32,13.23,29.55,29.55,29.55h9.8h83.85h9.8c16.32,0,29.55-13.23,29.55-29.55v-9.8V232.42h51.43c4.82,0,8.75,3.92,8.75,8.75
				v212.73v9.8c0,16.32,13.23,29.55,29.55,29.55h9.8h83.85h9.8c16.32,0,29.55-13.23,29.55-29.55v-9.8V232.6
				c0-39.63-15.43-76.88-43.45-104.9C3768.53,99.68,3731.27,84.25,3691.64,84.25L3691.64,84.25z"/>
		</g>
		<g>
			<path class="st1" d="M942.4,478.47c-8.16,0-14.77-6.61-14.77-14.77V241.17c0-12.97-10.55-23.52-23.52-23.52h-38.17v246.04
				c0,8.16-6.61,14.77-14.77,14.77H747.72c-8.16,0-14.77-6.61-14.77-14.77V217.65h-61.69v246.04c0,8.16-6.61,14.77-14.77,14.77
				H553.03c-8.16,0-14.77-6.61-14.77-14.77v-349.9c0-8.16,6.61-14.77,14.77-14.77h374.02c35.68,0,69.23,13.89,94.46,39.13
				c25.23,25.23,39.13,58.78,39.13,94.46v231.09c0,8.16-6.61,14.77-14.77,14.77H942.4z"/>
			<path class="st1" d="M927.05,113.79c31.74,0,61.57,12.36,84.01,34.8c22.44,22.44,34.8,52.28,34.8,84.01v221.29v9.8h-9.8H952.2
				h-9.8v-9.8V241.17c0-21.11-17.18-38.29-38.29-38.29h-52.94v251.02v9.8h-9.8h-83.85h-9.8v-9.8V202.88h-91.23v251.02v9.8h-9.8
				h-83.85h-9.8v-9.8V193.07v-69.48v-9.8h9.8h83.85h110.83h83.85H927.05 M927.05,84.25h-85.68h-83.85H646.68h-83.85h-9.8
				c-16.32,0-29.55,13.23-29.55,29.55v9.8v69.48v260.82v9.8c0,16.32,13.23,29.55,29.55,29.55h9.8h83.85h9.8
				c16.32,0,29.55-13.23,29.55-29.55v-9.8V232.42h32.14v221.47v9.8c0,16.32,13.23,29.55,29.55,29.55h9.8h83.85h9.8
				c16.32,0,29.55-13.23,29.55-29.55v-9.8V232.42h23.4c4.82,0,8.75,3.92,8.75,8.75v212.73v9.8c0,16.32,13.23,29.55,29.55,29.55h9.8
				h83.85h9.8c16.32,0,29.55-13.23,29.55-29.55v-9.8V232.6c0-39.63-15.43-76.88-43.45-104.9
				C1003.93,99.68,966.67,84.25,927.05,84.25L927.05,84.25z"/>
		</g>
		<g>
			<path class="st1" d="M2645.48,478.47c-8.16,0-14.77-6.61-14.77-14.77v-80.84c0-8.16,6.61-14.77,14.77-14.77h193.67
				c13.3,0,15.29-7.56,15.29-12.07c0-1.87-0.4-5.4-3.04-8.12c-3.19-3.27-8.42-3.96-12.25-3.96l-117.51,0
				c-18.64,0-47.2-7.12-71.45-27.1c-19.35-15.94-42.41-45.43-42.41-95.36c0-49.93,23.06-79.41,42.41-95.35
				c24.25-19.98,52.81-27.1,71.45-27.1h230.18c8.16,0,14.77,6.61,14.77,14.77v80.84c0,8.16-6.61,14.77-14.77,14.77h-193.67
				c-13.3,0-15.29,7.56-15.29,12.07s1.99,12.07,15.29,12.07l117.51,0c18.64,0,47.2,7.12,71.45,27.1
				c19.35,15.94,42.41,45.42,42.41,95.36c0,49.93-23.06,79.41-42.41,95.36c-24.25,19.98-52.81,27.1-71.45,27.1H2645.48z"/>
			<path class="st1" d="M2951.81,113.79v9.8v61.24v9.8h-9.8h-183.87c-20.77,0-30.06,13.48-30.06,26.85
				c0,13.36,9.3,26.85,30.06,26.85l7.72,0l8.27,0h101.52c16.08,0,40.82,6.23,62.05,23.73c16.89,13.92,37.03,39.78,37.03,83.95
				c0,44.17-20.14,70.03-37.03,83.95c-21.23,17.5-45.98,23.73-62.05,23.73h-220.38h-9.8v-9.8v-61.24v-9.8h9.8h183.87
				c20.77,0,30.06-13.48,30.06-26.85c0-13.36-9.3-26.85-30.06-26.85l-15.99,0h-101.52c-16.08,0-40.82-6.23-62.05-23.73
				c-16.89-13.92-37.03-39.78-37.03-83.95c0-44.17,20.14-70.03,37.03-83.95c21.24-17.5,45.98-23.73,62.05-23.73h220.37H2951.81
				 M2951.81,84.25h-9.8h-220.37c-12.22,0-25.62,2.39-38.73,6.92c-15.45,5.33-29.61,13.26-42.11,23.55
				c-13.43,11.06-24.28,24.45-32.27,39.79c-10.3,19.78-15.52,42.31-15.52,66.96c0,24.65,5.22,47.18,15.52,66.96
				c7.99,15.34,18.84,28.73,32.27,39.79c12.5,10.3,26.66,18.22,42.11,23.55c1.56,0.54,3.12,1.04,4.68,1.52h-32.31h-9.8
				c-16.32,0-29.55,13.23-29.55,29.55v9.8v61.24v9.8c0,16.32,13.23,29.55,29.55,29.55h9.8h220.38c12.22,0,25.62-2.39,38.73-6.92
				c15.45-5.33,29.61-13.26,42.11-23.55c13.43-11.06,24.28-24.45,32.27-39.79c10.3-19.78,15.52-42.31,15.52-66.96
				c0-24.65-5.22-47.18-15.52-66.96c-7.99-15.34-18.84-28.73-32.27-39.79c-12.5-10.3-26.66-18.22-42.11-23.55
				c-1.56-0.54-3.12-1.05-4.68-1.52h32.31h9.8c16.32,0,29.55-13.23,29.55-29.55v-9.8v-61.24v-9.8
				C2981.36,97.48,2968.13,84.25,2951.81,84.25L2951.81,84.25z"/>
		</g>
		<g>
			<path class="st1" d="M3290.48,485.74c-36.45,0-69.11-6.68-97.06-19.84c-25.19-11.86-46.53-28.92-63.44-50.69
				c-37.59-48.4-41.65-104.56-41.65-126.46c0-21.9,4.06-78.06,41.65-126.46c16.91-21.78,38.26-38.83,63.44-50.69
				c27.96-13.17,60.61-19.84,97.06-19.84c36.45,0,69.11,6.68,97.06,19.84c25.19,11.86,46.53,28.92,63.44,50.69
				c37.59,48.4,41.65,104.56,41.65,126.46c0,21.9-4.06,78.06-41.65,126.46c-16.91,21.78-38.26,38.83-63.44,50.69
				C3359.59,479.06,3326.93,485.74,3290.48,485.74z M3225.3,292.46c0.6,27.46,7.23,48.06,19.71,61.27
				c10.63,11.25,26.3,17.2,45.29,17.2l0.48,0c19.1-0.09,34.81-6.14,45.42-17.5c12.92-13.84,19.4-35.63,19.26-64.78l-0.05-9.85
				c0-0.2,0-0.4,0.01-0.6c-1.42-24.01-7.9-42.29-19.27-54.35c-10.66-11.31-26.4-17.28-45.53-17.28c-19.12,0-34.87,5.98-45.53,17.28
				c-12.99,13.77-19.57,35.54-19.57,64.68v1.42C3225.51,290.79,3225.44,291.63,3225.3,292.46z"/>
			<path class="st1" d="M3290.48,106.52c34.26,0,64.8,6.2,90.77,18.43c23.06,10.86,42.6,26.47,58.07,46.39
				c34.79,44.79,38.54,97.02,38.54,117.4c0,20.38-3.76,72.61-38.54,117.4c-15.47,19.92-35.01,35.53-58.07,46.39
				c-25.97,12.23-56.51,18.43-90.77,18.43c-34.26,0-64.8-6.2-90.77-18.43c-23.06-10.86-42.6-26.47-58.07-46.39
				c-34.79-44.79-38.54-97.02-38.54-117.4c0-20.38,3.76-72.61,38.54-117.4c15.47-19.92,35.01-35.53,58.07-46.39
				C3225.68,112.72,3256.22,106.52,3290.48,106.52 M3290.3,385.7l0.52,0c23.3-0.11,42.72-7.79,56.17-22.19
				c15.58-16.68,23.39-41.89,23.23-74.93l-0.05-9.85h0.06c-1.44-28.25-9.28-50.09-23.35-65.02c-13.52-14.34-32.98-21.92-56.28-21.92
				s-42.76,7.58-56.28,21.92c-15.66,16.61-23.59,41.78-23.59,74.82v1.42l-0.24,0.82c0.38,32.22,8.38,56.81,23.78,73.1
				C3247.77,378.15,3267.14,385.7,3290.3,385.7 M3290.48,76.98c-38.64,0-73.42,7.15-103.36,21.25c-27.31,12.86-50.46,31.36-68.82,55
				c-40.39,52.01-44.75,112.1-44.75,135.52s4.36,83.52,44.75,135.52c18.35,23.63,41.51,42.14,68.82,55
				c29.94,14.1,64.72,21.25,103.36,21.25c38.64,0,73.42-7.15,103.36-21.25c27.31-12.86,50.46-31.36,68.82-55
				c40.39-52.01,44.75-112.1,44.75-135.52s-4.36-83.52-44.75-135.52c-18.35-23.63-41.51-42.14-68.82-55
				C3363.9,84.12,3329.12,76.98,3290.48,76.98L3290.48,76.98z M3240.09,293.29c0.13-1.11,0.19-2.22,0.19-3.34v-1.42
				c0-17.36,2.7-40.92,15.55-54.55c7.91-8.39,19.61-12.64,34.78-12.64c15.17,0,26.87,4.25,34.78,12.64
				c8.85,9.39,13.98,24.36,15.24,44.52c0,0.12,0,0.25,0,0.37l0.05,9.85c0.08,17.36-2.5,40.93-15.28,54.62
				c-7.87,8.42-19.54,12.73-34.69,12.81l-0.4,0c-15.04,0-26.67-4.23-34.55-12.57C3246.01,333.28,3240.75,316.37,3240.09,293.29
				L3240.09,293.29z"/>
		</g>
		<g>
			<path class="st1" d="M1955.18,485.74c-36.45,0-69.11-6.68-97.06-19.84c-25.19-11.86-46.53-28.92-63.44-50.69
				c-37.59-48.4-41.65-104.56-41.65-126.46c0-2.1,0.04-4.69,0.16-7.7h-75.76c-8.16,0-14.77-6.61-14.77-14.77v-51.33
				c0-3.05-2.48-5.54-5.53-5.54h-15.94v254.29c0,8.16-6.61,14.77-14.77,14.77h-103.45c-8.16,0-14.77-6.61-14.77-14.77v-349.9
				c0-8.16,6.61-14.77,14.77-14.77h182c27.68,0,52.06,12.65,68.64,35.62c7.16,9.92,12.7,21.42,16.44,33.91
				c1.51-2.13,3.06-4.22,4.65-6.27c16.91-21.78,38.26-38.83,63.44-50.69c27.96-13.17,60.61-19.84,97.06-19.84
				c36.45,0,69.11,6.68,97.06,19.84c25.19,11.86,46.53,28.92,63.44,50.69c37.59,48.4,41.65,104.56,41.65,126.46
				c0,21.9-4.06,78.06-41.65,126.46c-16.91,21.78-38.26,38.83-63.44,50.69C2024.29,479.06,1991.63,485.74,1955.18,485.74z
				 M1889.99,292.45c0.6,27.46,7.23,48.07,19.71,61.28c10.63,11.25,26.3,17.2,45.29,17.2l0.48,0c19.09-0.09,34.81-6.14,45.41-17.5
				c12.92-13.84,19.4-35.63,19.26-64.78l-0.05-9.85c0-0.2,0-0.4,0.01-0.6c-1.42-24.01-7.9-42.29-19.27-54.35
				c-10.66-11.31-26.4-17.28-45.53-17.28c-19.12,0-34.87,5.98-45.53,17.28c-12.99,13.77-19.57,35.54-19.57,64.68v1.42
				C1890.21,290.79,1890.14,291.63,1889.99,292.45z"/>
			<path class="st1" d="M1955.18,106.52c34.26,0,64.8,6.2,90.77,18.43c23.06,10.86,42.6,26.47,58.07,46.39
				c34.79,44.79,38.54,97.02,38.54,117.4c0,20.38-3.76,72.61-38.54,117.4c-15.47,19.92-35.01,35.53-58.07,46.39
				c-25.97,12.23-56.51,18.43-90.77,18.43s-64.8-6.2-90.77-18.43c-23.06-10.86-42.6-26.47-58.07-46.39
				c-34.79-44.79-38.54-97.02-38.54-117.4c0-5.45,0.28-13.21,1.34-22.47h-81.92h-9.8v-9.8v-41.53c0-11.2-9.11-20.31-20.31-20.31
				h-30.72v259.26v9.8h-9.8h-83.85h-9.8v-9.8v-330.3v-9.8h9.8h41.93h41.93h88.34c49.85,0,75.94,47.31,75.94,94.04v9.39
				c5.71-15.15,13.85-30.93,25.47-45.88c15.47-19.92,35.01-35.53,58.07-46.39C1890.38,112.72,1920.92,106.52,1955.18,106.52
				 M1955,385.7l0.52,0c23.29-0.11,42.72-7.79,56.17-22.19c15.58-16.68,23.39-41.89,23.23-74.93l-0.05-9.85h0.06
				c-1.44-28.25-9.28-50.09-23.35-65.02c-13.52-14.34-32.98-21.92-56.28-21.92c-23.3,0-42.76,7.58-56.28,21.92
				c-15.66,16.61-23.59,41.78-23.59,74.82v1.42l-0.24,0.82c0.38,32.22,8.38,56.81,23.78,73.1
				C1912.47,378.15,1931.84,385.7,1955,385.7 M1955.18,76.98c-38.64,0-73.42,7.15-103.36,21.25c-22,10.36-41.3,24.38-57.57,41.79
				c-2.6-4.92-5.51-9.6-8.69-14.02c-19.43-26.92-48.06-41.75-80.62-41.75h-88.34h-41.93h-41.93h-9.8
				c-16.32,0-29.55,13.23-29.55,29.55v9.8v330.3v9.8c0,16.32,13.23,29.55,29.55,29.55h9.8h83.85h9.8
				c16.32,0,29.55-13.23,29.55-29.55v-9.8V286.56c5.39,5.7,13.02,9.26,21.48,9.26h9.8h51.16c0.93,26.96,7.82,81.06,44.63,128.45
				c18.35,23.63,41.51,42.14,68.82,55c29.94,14.1,64.72,21.25,103.36,21.25s73.42-7.15,103.36-21.25
				c27.31-12.86,50.46-31.36,68.82-55c40.39-52.01,44.75-112.1,44.75-135.52s-4.36-83.51-44.75-135.52
				c-18.35-23.63-41.51-42.14-68.82-55C2028.6,84.12,1993.82,76.98,1955.18,76.98L1955.18,76.98z M1904.79,293.27
				c0.12-1.1,0.19-2.21,0.19-3.32v-1.42c0-17.36,2.7-40.92,15.55-54.55c7.91-8.39,19.61-12.64,34.78-12.64s26.87,4.25,34.78,12.64
				c8.85,9.39,13.98,24.36,15.24,44.52c0,0.12,0,0.25,0,0.37l0.05,9.85c0.08,17.36-2.5,40.93-15.28,54.62
				c-7.87,8.43-19.55,12.74-34.72,12.81l-0.38,0c-15.04,0-26.67-4.23-34.55-12.57C1913.7,336.44,1905.62,321.96,1904.79,293.27
				L1904.79,293.27z"/>
		</g>
		<g>
			<path class="st1" d="M1335.05,478.47c-44.16,0-84.8-18.43-114.45-51.88c-15.01-16.94-26.68-37.16-34.69-60.09
				c-8.26-23.67-12.45-49.82-12.45-77.74c0-53.77,15.99-99.86,46.24-133.27c16.44-18.16,36.79-32.19,60.5-41.7
				c24.38-9.79,52.3-14.75,82.98-14.75h138.18c8.16,0,14.77,6.61,14.77,14.77v89.08c0,8.16-6.61,14.77-14.77,14.77H1380.9
				c-40.39,0-73.24,32.86-73.24,73.24c0,11.55,3.72,30.45,14.21,45.74c12.7,18.51,32.01,27.5,59.04,27.5h120.45
				c8.16,0,14.77,6.61,14.77,14.77v84.79c0,8.16-6.61,14.77-14.77,14.77H1335.05z"/>
			<path class="st1" d="M1501.36,113.79v9.8v69.48v9.8h-9.8H1380.9c-48.53,0-88.02,39.48-88.02,88.01c0,14.32,4.41,36.04,16.8,54.1
				c15.44,22.51,39.4,33.92,71.22,33.92h110.65h9.8v9.8v65.19v9.8h-9.8h-156.51c-39.87,0-76.59-16.66-103.39-46.91
				c-13.73-15.5-24.43-34.06-31.8-55.17c-7.71-22.1-11.63-46.61-11.63-72.87c0-50.05,14.67-92.7,42.42-123.36
				c14.92-16.48,33.44-29.24,55.05-37.91c22.62-9.08,48.69-13.68,77.48-13.68h128.38H1501.36 M1501.36,84.25h-9.8h-128.38
				c-32.58,0-62.35,5.32-88.49,15.81c-25.8,10.36-47.99,25.66-65.94,45.5c-32.75,36.18-50.07,85.69-50.07,143.19
				c0,29.58,4.47,57.38,13.28,82.61c8.64,24.76,21.29,46.63,37.58,65.02c32.49,36.67,77.06,56.86,125.51,56.86h156.51h9.8
				c16.32,0,29.55-13.23,29.55-29.55v-9.8v-65.19v-9.8c0-16.32-13.23-29.55-29.55-29.55h-9.8h-110.65
				c-13.9,0-33.89-2.19-46.86-21.09c-8.03-11.7-11.62-27.2-11.62-37.38c0-32.24,26.23-58.47,58.47-58.47h110.66h9.8
				c16.32,0,29.55-13.23,29.55-29.55v-9.8v-69.48v-9.8C1530.91,97.48,1517.68,84.25,1501.36,84.25L1501.36,84.25z"/>
		</g>
		<g>
			<path class="st1" d="M75.11,562.71c-33.27,0-60.34-27.07-60.34-60.34V75.11c0-33.27,27.07-60.34,60.34-60.34h280.97
				c33.27,0,60.34,27.07,60.34,60.34v427.27c0,33.27-27.07,60.34-60.34,60.34H75.11z"/>
			<path class="st1" d="M356.08,29.55c25.12,0,45.56,20.44,45.56,45.56v427.27c0,25.12-20.44,45.56-45.56,45.56H75.11
				c-25.12,0-45.57-20.44-45.57-45.56V75.11c0-25.12,20.44-45.56,45.57-45.56H356.08 M356.08,0H75.11C33.7,0,0,33.69,0,75.11v427.27
				c0,41.42,33.7,75.11,75.11,75.11h280.97c41.42,0,75.11-33.69,75.11-75.11V75.11C431.19,33.69,397.49,0,356.08,0L356.08,0z"/>
		</g>
	</g>
	<g>
		<g>
			<g>
				<rect x="2992.93" y="118.69" class="st0" width="93.65" height="340.1"/>
				<path class="st1" d="M3081.69,123.59v330.3h-83.85v-330.3H3081.69 M3091.49,113.79h-9.8h-83.85h-9.8v9.8v330.3v9.8h9.8h83.85
					h9.8v-9.8v-330.3V113.79L3091.49,113.79z"/>
			</g>
			<g>
				<rect x="2506.92" y="118.69" class="st0" width="93.65" height="340.1"/>
				<path class="st1" d="M2595.67,123.59v330.3h-83.85v-330.3H2595.67 M2605.47,113.79h-9.8h-83.85h-9.8v9.8v330.3v9.8h9.8h83.85
					h9.8v-9.8v-330.3V113.79L2605.47,113.79z"/>
			</g>
			<g>
				<polygon class="st0" points="2247.8,458.79 2106.56,118.69 2208.06,118.69 2298.61,349.34 2389.17,118.69 2490.67,118.69 
					2349.43,458.79 				"/>
				<path class="st1" d="M2483.33,123.59l-137.17,330.3h-11.76h-71.57h-11.76l-137.17-330.3h90.81l93.9,239.16l93.9-239.16H2483.33
					 M2498.01,113.79h-14.68h-90.81h-6.68l-2.44,6.22l-84.78,215.92l-84.78-215.92l-2.44-6.22h-6.68h-90.81h-14.68l5.63,13.56
					l137.17,330.3l2.51,6.04h6.54h11.76h71.57h11.76h6.54l2.51-6.04l137.17-330.3L2498.01,113.79L2498.01,113.79z"/>
			</g>
			<g>
				<rect x="1076.39" y="118.69" class="st0" width="93.65" height="340.1"/>
				<path class="st1" d="M1165.14,123.59v330.3h-83.85v-330.3H1165.14 M1174.94,113.79h-9.8h-83.85h-9.8v9.8v330.3v9.8h9.8h83.85
					h9.8v-9.8v-330.3V113.79L1174.94,113.79z"/>
			</g>
			<g>
				<path class="st0" d="M3711.9,458.79V241.17c0-23.82-19.38-43.19-43.19-43.19h-85.88v260.82h-93.65v-340.1h202.47
					c62.81,0,113.91,51.1,113.91,113.91v226.19H3711.9z"/>
				<path class="st1" d="M3691.64,123.59c60.2,0,109.01,48.81,109.01,109.01v221.29h-83.85V241.17c0-26.56-21.53-48.09-48.09-48.09
					h-90.78v260.82h-83.85V193.07v-54.93v-14.55H3691.64 M3691.64,113.79h-197.57h-9.8v9.8v14.55v54.93v260.82v9.8h9.8h83.85h9.8
					v-9.8V202.88h80.98c21.11,0,38.29,17.18,38.29,38.29v212.73v9.8h9.8h83.85h9.8v-9.8V232.6c0-31.74-12.36-61.57-34.8-84.01
					C3753.21,126.15,3723.38,113.79,3691.64,113.79L3691.64,113.79z"/>
			</g>
			<g>
				<path class="st0" d="M1527.84,458.79v-340.1h177.1c46.64,0,71.04,44.84,71.04,89.14v53.53h-93.65v-46.43
					c0-13.9-11.31-25.21-25.21-25.21h-35.62v269.06H1527.84z"/>
				<path class="st1" d="M1704.94,123.59c45.15,0,66.14,44.74,66.14,84.24v48.63h-83.85v-41.53c0-16.63-13.48-30.11-30.11-30.11
					h-40.52v269.06h-83.85v-330.3h41.93h41.93H1704.94 M1704.94,113.79h-88.34h-41.93h-41.93h-9.8v9.8v330.3v9.8h9.8h83.85h9.8v-9.8
					V194.63h30.72c11.2,0,20.31,9.11,20.31,20.31v41.53v9.8h9.8h83.85h9.8v-9.8v-48.63C1780.87,161.1,1754.79,113.79,1704.94,113.79
					L1704.94,113.79z"/>
			</g>
			<g>
				<path class="st0" d="M947.3,458.79V241.17c0-23.82-19.38-43.19-43.19-43.19h-57.84v260.82h-93.65V197.97H651.58v260.82h-93.65
					v-340.1h369.12c62.81,0,113.91,51.1,113.91,113.91v226.19H947.3z"/>
				<path class="st1" d="M927.05,123.59c60.2,0,109.01,48.81,109.01,109.01v221.29H952.2V241.17c0-26.56-21.53-48.09-48.09-48.09
					h-62.74v260.82h-83.85V193.07H646.68v260.82h-83.85V193.07v-69.48h83.85h110.83h83.85H927.05 M927.05,113.79h-85.68h-83.85
					H646.68h-83.85h-9.8v9.8v69.48v260.82v9.8h9.8h83.85h9.8v-9.8V202.88h91.23v251.02v9.8h9.8h83.85h9.8v-9.8V202.88h52.94
					c21.11,0,38.29,17.18,38.29,38.29v212.73v9.8h9.8h83.85h9.8v-9.8V232.6c0-31.74-12.36-61.57-34.8-84.01
					S958.78,113.79,927.05,113.79L927.05,113.79z"/>
			</g>
			<g>
				<path class="st0" d="M2650.38,458.79v-71.04h188.77c10.96,0,20.08-3.44,26.38-9.96c5.54-5.73,8.59-13.47,8.59-21.79
					c0-21.81-18.12-31.75-34.96-31.75h-117.51c-15.23,0-38.7-5.94-58.94-22.61c-16.08-13.25-35.25-37.91-35.25-80.17
					c0-42.26,19.17-66.92,35.25-80.17c20.23-16.67,43.71-22.61,58.94-22.61h225.28v71.04h-188.77c-10.96,0-20.08,3.44-26.38,9.96
					c-5.54,5.73-8.59,13.47-8.59,21.79c0,21.81,18.12,31.75,34.96,31.75l117.51,0c15.23,0,38.7,5.94,58.94,22.61
					c16.08,13.25,35.25,37.91,35.25,80.17c0,42.26-19.17,66.92-35.25,80.17c-20.23,16.67-43.71,22.61-58.94,22.61H2650.38z"/>
				<path class="st1" d="M2942.01,123.59v61.24h-183.87c-53.15,0-53.15,73.29,0,73.29v0h15.99v0h101.52
					c29.81,0,89.29,24.69,89.29,97.88c0,73.19-59.48,97.88-89.29,97.88h-220.38v-61.24h183.87c53.15,0,53.15-73.29,0-73.29v0h-15.99
					v0h-101.52c-29.81,0-89.29-24.69-89.29-97.89c0-73.19,59.48-97.88,89.29-97.88H2942.01 M2951.81,113.79h-9.8h-220.38
					c-16.08,0-40.82,6.23-62.05,23.73c-16.89,13.92-37.03,39.78-37.03,83.95c0,44.17,20.14,70.03,37.03,83.95
					c21.24,17.5,45.98,23.73,62.06,23.73h101.52l15.99,0c20.77,0,30.06,13.48,30.06,26.85c0,13.36-9.3,26.85-30.06,26.85h-183.87
					h-9.8v9.8v61.24v9.8h9.8h220.38c16.08,0,40.82-6.23,62.05-23.73c16.89-13.92,37.03-39.78,37.03-83.95
					c0-44.17-20.14-70.03-37.03-83.95c-21.23-17.5-45.98-23.73-62.05-23.73h-101.52l-8.27,0l-7.72,0
					c-20.77,0-30.06-13.48-30.06-26.85c0-13.36,9.3-26.85,30.06-26.85h183.87h9.8v-9.8v-61.24V113.79L2951.81,113.79z"/>
			</g>
			<g>
				<path class="st0" d="M3290.48,466.07c-33.53,0-63.37-6.04-88.68-17.97c-22.36-10.53-41.29-25.65-56.29-44.96
					c-33.86-43.59-37.51-94.52-37.51-114.4c0-19.87,3.66-70.8,37.51-114.4c14.99-19.31,33.93-34.43,56.29-44.96
					c25.32-11.92,55.15-17.97,88.68-17.97s63.37,6.04,88.68,17.97c22.36,10.53,41.29,25.65,56.29,44.96
					c33.86,43.59,37.51,94.52,37.51,114.4c0,19.87-3.66,70.8-37.51,114.4c-14.99,19.31-33.93,34.43-56.29,44.96
					C3353.85,460.02,3324.01,466.07,3290.48,466.07z M3205.59,290.09c0.54,63.89,31.38,100.52,84.71,100.51l0.54,0
					c24.68-0.12,45.33-8.33,59.73-23.75c16.46-17.62,24.72-43.97,24.55-78.3l-0.02-4.92h0.22c-1.54-61.56-32.22-96.74-84.71-96.74
					c-53.87,0-84.77,37.05-84.77,101.64v0.71L3205.59,290.09z"/>
				<path class="st1" d="M3290.48,116.32c139.49,0,177.58,105.28,177.58,172.42c0,67.14-38.09,172.42-177.58,172.42
					c-139.49,0-177.58-105.28-177.58-172.42C3112.9,221.6,3150.99,116.32,3290.48,116.32 M3290.3,395.5c0.19,0,0.38,0,0.57,0
					c49.52-0.24,89.52-31.58,89.16-106.97h0.26c0-75.39-40.15-106.54-89.67-106.54c-49.52,0-89.67,31.15-89.67,106.54l-0.26,0.86
					C3201.04,364.49,3241.03,395.5,3290.3,395.5 M3290.48,106.52c-34.26,0-64.8,6.2-90.77,18.43
					c-23.06,10.86-42.6,26.47-58.07,46.39c-34.79,44.79-38.54,97.02-38.54,117.4c0,20.38,3.76,72.61,38.54,117.4
					c15.47,19.92,35.01,35.53,58.07,46.39c25.97,12.23,56.51,18.43,90.77,18.43s64.8-6.2,90.77-18.43
					c23.06-10.86,42.6-26.47,58.07-46.39c34.79-44.79,38.54-97.02,38.54-117.4c0-20.38-3.76-72.61-38.54-117.4
					c-15.47-19.92-35.01-35.53-58.07-46.39C3355.28,112.72,3324.74,106.52,3290.48,106.52L3290.48,106.52z M3210.49,290.77
					l0.24-0.82v-1.42c0-33.04,7.94-58.21,23.59-74.82c13.52-14.34,32.98-21.92,56.28-21.92s42.76,7.58,56.28,21.92
					c14.07,14.92,21.91,36.76,23.35,65.02h-0.06l0.05,9.85c0.16,33.04-7.66,58.25-23.23,74.93c-13.45,14.41-32.88,22.08-56.17,22.19
					l-0.52,0c-23.16,0-42.53-7.55-56.03-21.82C3218.87,347.58,3210.87,322.99,3210.49,290.77L3210.49,290.77z"/>
			</g>
			<g>
				<path class="st0" d="M1955.18,466.07c-33.53,0-63.37-6.04-88.68-17.97c-22.36-10.53-41.29-25.65-56.29-44.96
					c-33.86-43.59-37.51-94.52-37.51-114.4c0-19.87,3.66-70.8,37.51-114.4c14.99-19.31,33.93-34.43,56.29-44.96
					c25.32-11.92,55.15-17.97,88.68-17.97c33.53,0,63.37,6.04,88.68,17.97c22.36,10.53,41.29,25.65,56.29,44.96
					c33.86,43.59,37.51,94.52,37.51,114.4c0,19.87-3.66,70.8-37.51,114.4c-14.99,19.31-33.93,34.43-56.29,44.96
					C2018.55,460.02,1988.71,466.07,1955.18,466.07z M1870.28,290.09c0.54,63.89,31.38,100.52,84.71,100.51l0.54,0
					c24.68-0.12,45.33-8.33,59.73-23.75c16.46-17.62,24.72-43.97,24.55-78.3l-0.02-4.92h0.22c-1.53-61.56-32.22-96.74-84.71-96.74
					c-53.87,0-84.77,37.05-84.77,101.64v0.71L1870.28,290.09z"/>
				<path class="st1" d="M1955.18,116.32c139.49,0,177.58,105.28,177.58,172.42c0,67.14-38.09,172.42-177.58,172.42
					S1777.6,355.89,1777.6,288.74C1777.6,221.6,1815.69,116.32,1955.18,116.32 M1955,395.5c0.19,0,0.38,0,0.57,0
					c49.52-0.24,89.52-31.58,89.16-106.97h0.26c0-75.39-40.15-106.54-89.67-106.54c-49.52,0-89.67,31.15-89.67,106.54l-0.26,0.86
					C1865.74,364.49,1905.73,395.5,1955,395.5 M1955.18,106.52c-34.26,0-64.8,6.2-90.77,18.43c-23.06,10.86-42.6,26.47-58.07,46.39
					c-34.79,44.79-38.54,97.02-38.54,117.4c0,20.38,3.76,72.61,38.54,117.4c15.47,19.92,35.01,35.53,58.07,46.39
					c25.97,12.23,56.51,18.43,90.77,18.43c34.26,0,64.8-6.2,90.77-18.43c23.06-10.86,42.6-26.47,58.07-46.39
					c34.79-44.79,38.54-97.02,38.54-117.4c0-20.38-3.76-72.61-38.54-117.4c-15.47-19.92-35.01-35.53-58.07-46.39
					C2019.98,112.72,1989.44,106.52,1955.18,106.52L1955.18,106.52z M1875.19,290.77l0.24-0.82v-1.42
					c0-33.04,7.94-58.21,23.59-74.82c13.52-14.34,32.98-21.92,56.28-21.92s42.76,7.58,56.28,21.92
					c14.07,14.92,21.91,36.76,23.35,65.02h-0.06l0.05,9.85c0.16,33.04-7.66,58.25-23.23,74.93c-13.45,14.41-32.88,22.08-56.17,22.19
					l-0.52,0c-23.16,0-42.53-7.55-56.03-21.82C1883.57,347.58,1875.57,322.99,1875.19,290.77L1875.19,290.77z"/>
			</g>
			<g>
				<path class="st0" d="M1335.05,458.79c-38.45,0-73.86-16.07-99.72-45.26c-27.61-31.16-42.2-74.31-42.2-124.79
					c0-48.81,14.23-90.33,41.15-120.07c29.6-32.7,74.18-49.98,128.9-49.98h133.28v79.28H1380.9c-51.23,0-92.92,41.68-92.92,92.92
					c0,15.05,4.64,37.89,17.66,56.87c16.41,23.92,41.73,36.05,75.25,36.05h115.56v74.99H1335.05z"/>
				<path class="st1" d="M1491.56,123.59v69.48H1380.9c-54.02,0-97.82,43.79-97.82,97.82c0,28.63,16.78,97.82,97.82,97.82
					c0,0,0.01,0,0.01,0h110.65v65.19h-156.51c-73.46,0-137.02-61.24-137.02-165.15c0-91.21,51.31-165.15,165.15-165.15H1491.56
					 M1501.36,113.79h-9.8h-128.38c-28.79,0-54.86,4.6-77.48,13.68c-21.6,8.67-40.12,21.43-55.05,37.91
					c-27.75,30.65-42.42,73.31-42.42,123.36c0,26.26,3.91,50.78,11.63,72.87c7.37,21.11,18.07,39.67,31.8,55.17
					c26.8,30.25,63.52,46.91,103.39,46.91h156.51h9.8v-9.8v-65.19v-9.8h-9.8h-110.65c-31.82,0-55.78-11.41-71.22-33.92
					c-12.39-18.05-16.8-39.78-16.8-54.1c0-48.53,39.48-88.02,88.02-88.02h110.66h9.8v-9.8v-69.48V113.79L1501.36,113.79z"/>
			</g>
		</g>
		<g>
			<path d="M75.11,543.04c-22.42,0-40.66-18.24-40.66-40.66V75.11c0-22.42,18.24-40.66,40.66-40.66h280.97
				c22.42,0,40.66,18.24,40.66,40.66v427.27c0,22.42-18.24,40.66-40.66,40.66H75.11z"/>
			<path class="st1" d="M356.08,39.35c19.75,0,35.76,16.01,35.76,35.76v427.27c0,19.75-16.01,35.76-35.76,35.76H75.11
				c-19.75,0-35.76-16.01-35.76-35.76V75.11c0-19.75,16.01-35.76,35.76-35.76H356.08 M356.08,29.55H75.11
				c-25.12,0-45.57,20.44-45.57,45.56v427.27c0,25.12,20.44,45.56,45.57,45.56h280.97c25.12,0,45.56-20.44,45.56-45.56V75.11
				C401.64,49.99,381.2,29.55,356.08,29.55L356.08,29.55z"/>
		</g>
		<g>
			<path class="st2" d="M198.8,176.64c0.04-0.13,0-4.75,0-4.75l-0.73,4.75l-26.71,98.9h-25.07l-26.64-98.9
				c-0.29-0.38-0.84-4.84-0.84-4.84v4.84l-0.1,98.9H82.22V69.42h45.08l30.47,112.05l0.57,3.31l0.57-3.31l29.7-112.05h47.09v206.12
				h-36.88L198.8,176.64"/>
			<path class="st3" d="M279.47,103.77c2.18-0.29,10.51-0.15,10.51-0.15c7.77-0.1,23.98,7.33,23.71,22.66
				c-0.35,20.97-16.4,25.3-23.69,25.41c0,0-8.38,0.15-10.53,0.15L279.47,103.77 M279.72,188.41c3.39-0.08,10.98,0.07,10.98,0.07
				c14.29,0.12,29.15,9.19,28.86,25.47c-0.33,19.56-15.65,26.98-28.15,27.02c0,0-8.44,0.19-11.71,0.06L279.72,188.41z M242.94,69.42
				l49.41,0.04c35.63,0.04,59.67,26.43,58.37,55.4c-0.86,19.58-8.84,33.95-18.81,42.2c20.34,12.96,28.84,38.41,24.63,60.11
				c-6.97,35.88-36.59,48.43-63.49,48.43h-49.98L242.94,69.42z"/>
		</g>
		<text transform="matrix(1 0 0 1 131.139 472.7235)" class="st1 st4 st5">MILTON</text>
		<text transform="matrix(1 0 0 1 106.6414 514.9344)" class="st1 st4 st5">BRADLEY</text>
		<polyline class="st6" points="39.35,389.44 101.07,389.44 115.59,358.7 131.5,416.94 152.38,348.79 166.62,404.01 179.68,367.04 
			187.9,389.44 220.84,389.44 235.89,357.44 247.34,415.07 274.23,346.69 290.63,412.12 315.5,359.55 327.28,389.44 391.84,389.44 
					"/>
		<g>
			<path class="st1" d="M99.03,325.45H81.38c-1.39-0.36-2.19-1.25-2.4-2.67l4.43-1.61h14.44L99.03,325.45z M79.09,321.7l1.39-13.9
				l1.18-1.07l2.88,3.21l-1.02,10.16L79.09,321.7z M86.3,292.29l-1.01,10.16l-3.53,3.21l-0.97-1.07l1.39-13.9L86.3,292.29z
				 M100.85,291.22H86.47l-4.12-1.6c0.49-1.42,1.48-2.32,2.94-2.67h17.59L100.85,291.22z M99.03,304.06l1.93,2.14l-2.35,2.14H84.7
				l-1.93-2.14l2.36-2.14H99.03z"/>
			<path class="st1" d="M108.64,309.94l-1.13,11.23l-2.03,4.28c-1.39-0.36-2.19-1.25-2.4-2.67l1.5-14.97l1.18-1.07L108.64,309.94z
				 M105.86,305.66l-0.97-1.07l1.5-14.97c0.5-1.42,1.49-2.32,2.95-2.67l1.18,4.28l-1.13,11.23L105.86,305.66z M108.59,321.17h12.83
				l4.12,1.61c-0.5,1.43-1.48,2.32-2.94,2.67h-16.04L108.59,321.17z"/>
			<path class="st1" d="M149.51,325.45h-17.64c-1.39-0.36-2.19-1.25-2.4-2.67l4.43-1.61h14.44L149.51,325.45z M129.57,321.7
				l1.39-13.9l1.18-1.07l2.88,3.21L134,320.1L129.57,321.7z M136.78,292.29l-1.01,10.16l-3.53,3.21l-0.97-1.07l1.39-13.9
				L136.78,292.29z M151.33,291.22h-14.38l-4.12-1.6c0.49-1.42,1.48-2.32,2.94-2.67h17.59L151.33,291.22z M149.51,304.06l1.93,2.14
				l-2.35,2.14h-13.9l-1.93-2.14l2.36-2.14H149.51z"/>
			<path class="st1" d="M173.61,325.45h-17.64c-1.39-0.36-2.19-1.25-2.4-2.67l4.43-1.61h14.44L173.61,325.45z M153.67,321.7
				l1.39-13.9l1.18-1.07l2.88,3.21l-1.02,10.16L153.67,321.7z M160.88,292.29l-1.01,10.16l-3.53,3.21l-0.97-1.07l1.39-13.9
				L160.88,292.29z M175.43,291.22h-14.38l-4.12-1.6c0.49-1.42,1.48-2.32,2.94-2.67h17.59L175.43,291.22z"/>
			<path class="st1" d="M185.03,291.22l-4.12-1.6c0.5-1.42,1.49-2.32,2.95-2.67h17.05c1.39,0.36,2.2,1.25,2.41,2.67l-4.44,1.6
				H185.03z M190.38,306.73l1.92,2.14l-1.39,13.9c-0.49,1.43-1.48,2.32-2.94,2.67l-1.18-4.28l1.23-12.3L190.38,306.73z
				 M188.56,303.52l1.13-11.23h4.27l-1.13,11.23l-2.35,2.14L188.56,303.52z"/>
			<path class="st1" d="M209.55,309.94l-1.13,11.23l-2.03,4.28c-1.39-0.36-2.19-1.25-2.4-2.67l1.5-14.97l1.18-1.07L209.55,309.94z"
				/>
			<polygon class="st1" points="211.31,292.29 210.3,302.45 206.77,305.66 205.8,304.59 207.19,290.69 			"/>
			<path class="st1" d="M224.26,291.22h-12.78l-4.12-1.6c0.49-1.42,1.48-2.32,2.94-2.67h15.99L224.26,291.22z"/>
			<polygon class="st1" points="224.04,304.06 225.96,306.2 223.61,308.34 209.71,308.34 207.78,306.2 210.14,304.06 			"/>
			<path class="st1" d="M210.68,309.4h3.2l12.51,13.9c-0.85,1.43-2.36,2.14-4.49,2.14l-11.55-12.83L210.68,309.4z"/>
			<path class="st1" d="M224.2,302.45l1.12-11.23l2.03-4.28c1.4,0.36,2.2,1.25,2.41,2.67l-1.5,14.97l-1.18,1.07L224.2,302.45z"/>
			<polygon class="st1" points="236.59,309.94 235.46,321.17 233.7,322.77 231.29,320.1 232.52,307.8 233.7,306.73 			"/>
			<polygon class="st1" points="250.22,323.31 247.87,325.45 236.1,325.45 234.18,323.31 236.53,321.17 248.29,321.17 			"/>
			<polygon class="st1" points="254.02,306.73 254.98,307.8 253.74,320.1 250.81,322.77 249.36,321.17 250.49,309.94 			"/>
			<g>
				<polygon class="st1" points="233.81,305.66 232.84,304.59 234.07,292.29 237.01,289.62 238.46,291.22 237.33,302.45 				"/>
				<polygon class="st1" points="251.29,291.22 239.52,291.22 237.6,289.09 239.95,286.95 251.71,286.95 253.64,289.09 				"/>
				<polygon class="st1" points="251.24,302.45 252.35,291.22 254.12,289.62 256.53,292.29 255.3,304.59 254.12,305.66 				"/>
			</g>
			<path class="st1" d="M264.46,309.94l-1.13,11.23l-2.03,4.28c-1.39-0.36-2.19-1.25-2.4-2.67l1.5-14.97l1.18-1.07L264.46,309.94z"
				/>
			<path class="st1" d="M281.9,306.73l0.96,1.07l-1.5,14.97c-0.5,1.43-1.48,2.32-2.94,2.67l-1.18-4.28l1.13-11.23L281.9,306.73z"/>
			<path class="st1" d="M291.66,306.2l0.96,1.07l-1.5,14.97c-0.5,1.42-1.48,2.32-2.94,2.67l-1.18-4.28l1.13-11.23L291.66,306.2z
				 M288.83,302.45l1.12-11.23l2.03-4.28c1.39,0.36,2.2,1.25,2.41,2.67l-1.5,14.97l-1.18,1.07L288.83,302.45z"/>
			<path class="st1" d="M316.67,325.45h-17.64c-1.39-0.36-2.19-1.25-2.4-2.67l4.43-1.61h14.44L316.67,325.45z M296.73,321.7
				l1.39-13.9l1.18-1.07l2.88,3.21l-1.02,10.16L296.73,321.7z M303.94,292.29l-1.01,10.16l-3.53,3.21l-0.97-1.07l1.39-13.9
				L303.94,292.29z M318.49,291.22h-14.38l-4.12-1.6c0.49-1.42,1.48-2.32,2.94-2.67h17.59L318.49,291.22z"/>
			<path class="st1" d="M339.08,325.45h-16.04c-1.39-0.36-2.19-1.25-2.4-2.67l4.43-1.61h12.83L339.08,325.45z"/>
			<polygon class="st1" points="327.95,292.29 326.94,302.45 323.42,305.66 322.45,304.59 323.84,290.69 			"/>
			<path class="st1" d="M328.12,291.22l-4.12-1.6c0.49-1.42,1.48-2.32,2.94-2.67H344c1.4,0.36,2.2,1.25,2.41,2.67l-4.44,1.6H328.12z
				"/>
			<g>
				<polygon class="st1" points="340.68,304.06 342.61,306.2 340.26,308.34 326.35,308.34 324.43,306.2 326.78,304.06 				"/>
				<path class="st1" d="M343.63,306.73l0.96,1.07l-1.5,14.97c-0.5,1.43-1.48,2.32-2.94,2.67l-1.18-4.28l1.13-11.23L343.63,306.73z"
					/>
			</g>
			<g>
				<polygon class="st1" points="261.76,305.66 260.8,304.59 262.03,292.29 264.97,289.62 266.42,291.22 265.29,302.45 				"/>
				<polygon class="st1" points="279.25,291.22 267.48,291.22 265.56,289.09 267.91,286.95 279.67,286.95 281.6,289.09 				"/>
				<polygon class="st1" points="279.2,302.45 280.31,291.22 282.08,289.62 284.49,292.29 283.26,304.59 282.08,305.66 				"/>
			</g>
		</g>
	</g>
</g>
</svg>
