<?xml version="1.0" encoding="utf-8"?>
<!-- Generator: Adobe Illustrator 26.3.1, SVG Export Plug-In . SVG Version: 6.00 Build 0)  -->
<svg version="1.1" xmlns="http://www.w3.org/2000/svg" xmlns:xlink="http://www.w3.org/1999/xlink" x="0px" y="0px"
	 viewBox="0 0 3839 1181.5" style="enable-background:new 0 0 3839 1181.5;" xml:space="preserve">
<style type="text/css">
	.st0{fill:#FFFFFF;}
	.st1{fill:#E60012;}
	.st2{fill:#33529C;}
	.st3{fill:url(#SVGID_1_);}
	.st4{fill:url(#SVGID_00000118364206710428780990000011803511781733787787_);}
	.st5{fill:#27569C;}
</style>
<g id="Layer_1">
</g>
<g id="Layer_1_copy">
	<g>
		<g>
			<g>
				<path class="st0" d="M464.1,1166.7c-46.6,0-91.4-3.8-133.2-11.4c-42.5-7.7-81.8-19.1-116.7-33.9c-36.4-15.4-68.4-34.4-95.2-56.6
					c-28.1-23-50.9-49.7-67.8-79.4c-16.1-28.3-27-59.4-32.4-92.3c-5.3-31.8-5.5-65.7-0.6-101c4.7-34.3,14.1-69.9,27.9-105.7
					c13.6-35.4,31.7-71.6,53.7-107.5c44.3-72.5,103.3-143.2,175.5-210.3c74.3-69,159.7-131.3,253.9-185.1
					c96-54.8,195.2-97.3,294.7-126.4c47.9-14,95.6-24.6,141.8-31.7c45.9-7.1,90.8-10.7,133.3-10.7c83.5,0,156.9,13.5,218.1,40.2
					c31.7,13.7,59.9,31.1,84,51.5c24.9,21.2,45.5,45.9,61.3,73.4c62.2,109,49,262.4-36,421c-20.5,38.2-44.9,76.2-72.6,113
					c-28,37.3-59.9,73.9-94.8,108.9c-73.1,73.3-157.5,137.5-251,190.8c-88.4,50.5-181.8,89.4-277.6,115.6
					C639.3,1154.1,549.7,1166.7,464.1,1166.7z"/>
				<path class="st0" d="M1099.1,29.5c81.4,0,152.8,13.1,212.2,39c30.4,13.2,57.4,29.7,80.3,49.2c23.6,20.1,43.1,43.4,58.1,69.5
					c59.6,104.5,46.4,252.6-36.2,406.6c-20.1,37.4-44.1,74.8-71.4,111.1c-27.8,36.9-59.3,73.1-93.4,107.3
					c-72.2,72.4-155.6,135.8-247.8,188.4c-87.4,49.9-179.7,88.3-274.2,114.2c-89.7,24.5-178,37-262.5,37
					c-45.7,0-89.6-3.7-130.6-11.1c-41.2-7.5-79.4-18.5-113.5-33c-34.9-14.8-65.7-33-91.6-54.3c-26.8-22-48.4-47.4-64.4-75.3
					c-15.2-26.7-25.5-56-30.6-87.3c-5-30.3-5.2-62.8-0.6-96.6c4.5-33,13.6-67.4,27.1-102.4c13.3-34.6,30.9-69.9,52.5-105.2
					c43.5-71.3,101.7-141,173-207.2c73.6-68.4,158.1-130,251.2-183.1c95.1-54.2,193.2-96.3,291.5-125
					c47.3-13.8,94.3-24.3,139.9-31.3C1013.2,33.1,1057.3,29.5,1099.1,29.5 M1099.1,0c-43.3,0-88.9,3.7-135.6,10.9
					c-46.8,7.2-95.1,18-143.7,32.1C719.2,72.4,619,115.4,521.9,170.8c-95.2,54.4-181.5,117.3-256.6,187.1
					c-73.2,68-133.1,139.8-178.1,213.4C64.8,608,46.3,645,32.4,681.3c-14.2,36.8-23.9,73.5-28.8,109c-5,36.7-4.8,72.1,0.7,105.4l0,0
					c5.7,34.6,17.1,67.3,34.1,97.2c17.8,31.3,41.8,59.4,71.3,83.5c27.9,23,61.1,42.8,98.8,58.7c35.9,15.2,76.2,26.9,119.8,34.8
					c42.7,7.7,88.4,11.6,135.8,11.6c86.9,0,177.9-12.8,270.3-38.1c97-26.6,191.6-66,281.1-117.1c94.6-54,180.1-119,254.1-193.2
					c35.3-35.4,67.7-72.6,96.1-110.4c28.1-37.3,52.9-76,73.8-114.8c21.3-39.7,38.4-79.6,51-118.8c12.5-39.1,20.6-77.6,23.8-114.5
					c3.3-37.4,1.8-73.4-4.5-106.9c-6.5-34.4-18.1-66.4-34.5-95.1c0,0,0,0,0-0.1c-16.7-29-38.4-55.1-64.6-77.3
					c-25.2-21.4-54.7-39.5-87.7-53.8C1259.9,13.9,1184.6,0,1099.1,0L1099.1,0z"/>
			</g>
			<g>
				<path class="st0" d="M1333.1,876.1c-23.6,0-33.3-14.2-36.3-20.4c0,0,0-0.1,0-0.1c-4.2-8.6-8.6-26.8,10-50.9
					c0,0,116.9-148.7,116.9-148.7c18.3-23.5,50.8-41.2,75.7-41.2h233.2c27.6,0,37.6,15.2,40.6,21.9c5.8,12.4,3.4,27.2-6.3,39.5
					c-13.6,17.6-41.9,30.3-67.4,30.3h-106.4c-3.2,0-9.9,1.9-17.6,6.3c-7.8,4.3-15.1,10.4-19.8,16.2c0,0-82.9,106.1-83,106.1
					c-8.8,10.9-20.9,21-34.2,28.5c-14.5,8.1-28.9,12.4-41.7,12.4H1333.1z"/>
				<path class="st0" d="M1732.6,629.6c18.2,0,24.9,8.3,27.2,13.3c3.4,7.4,1.9,16.1-4.5,24.2c-10.8,14.1-34.8,24.6-55.7,24.6h-106.4
					c-6.5,0-15.6,3-24.8,8.2c-9.6,5.3-18.3,12.6-24.1,19.9l-82.9,106c-7.6,9.5-18.2,18.3-29.9,24.9c-12.1,6.8-24.3,10.5-34.5,10.5
					h-63.8c-14.9,0-20.9-7.7-23.1-12.2c-2.8-5.6-5.2-17.6,8.5-35.3l116.9-148.6c15.6-20,43.7-35.5,64.1-35.5H1732.6 M1732.6,600.1
					h-233.2c-19,0-36.7,7.6-48.2,14c-15.4,8.5-29.3,20.2-39.2,32.9l-116.8,148.5c-0.1,0.1-0.1,0.1-0.2,0.2
					c-9.3,12-14.8,24.3-16.3,36.6c-1.3,10.5,0.3,20.9,4.7,29.9c0,0.1,0.1,0.1,0.1,0.2c3.8,7.6,9.5,14.2,16.6,19
					c9.3,6.3,20.4,9.5,32.9,9.5h63.8c15.3,0,32.2-4.9,48.9-14.3c15-8.4,28.6-19.8,38.5-32.2c0.1-0.1,0.2-0.2,0.2-0.3l82.8-105.9
					c3.5-4.3,9.3-9.1,15.3-12.4c0,0,0.1-0.1,0.1-0.1c5.5-3.1,9.5-4.2,10.6-4.4h106.1c30.1,0,62.6-14.8,79-36
					c13.2-16.7,16.2-37.2,8.1-54.7c-3.9-8.6-10.3-15.9-18.6-21.1C1758.3,603.3,1746.4,600.1,1732.6,600.1L1732.6,600.1z"/>
			</g>
			<g>
				<path class="st0" d="M1660,876c-23.9,0-33.6-14.4-36.6-20.6c0-0.1-0.1-0.1-0.1-0.2c-4.1-8.7-8.3-26.9,10.5-50.7
					c0,0,116.7-148.7,116.7-148.7c18.6-23.4,51.3-41,75.9-41h317.7c16.4,0,30.1,7.7,36.7,20.7c0.1,0.1,0.1,0.2,0.2,0.3
					c7.1,15,3.4,33.5-10.1,50.6l-50.2,63.7c-18.3,23.3-51,40.9-76,40.9h-6.7c5.3,3.1,10.1,7.7,13.4,14.4c6.1,12.3,4.2,27.2-5.2,39.8
					c-0.3,0.4-0.6,0.7-0.9,1.1c-13.7,16.9-42.6,29.6-67.6,29.6H1660z"/>
				<path class="st0" d="M2144.2,629.5c11,0,19.5,4.6,23.5,12.6c4.6,9.7,1.6,22.5-8.4,35.1l-50.2,63.8
					c-15.6,19.8-43.8,35.2-64.4,35.2h-190.8c-14.4,0-33.3,8.2-40.5,17.6l-0.2,0.2l-0.2,0.2c-1.3,1.4-1.7,2.4-1.9,2.9
					c0.9,0.7,3.7,2.1,9.6,2.1h190.7c17.7,0,24.4,8,26.8,12.8c3.6,7.3,2.3,16.2-3.8,24.4l-0.1,0.1l-0.1,0.1
					c-10.6,13.6-36,24.6-56.5,24.6H1660c-15.1,0-21.1-7.7-23.3-12.3c-2.7-5.6-5.1-17.6,8.8-35.2L1762.1,665
					c15.9-19.9,44.2-35.4,64.4-35.4H2144.2 M1886.3,714.3c0.2,0,0.4,0,0.6,0h85c14.6,0,33.1-7.9,40.4-17.2l0.1-0.1l0.1-0.1
					c1.5-1.8,1.9-2.9,2-3.3c-0.8-0.6-3.5-2-9.5-2h-84.8c-14.1,0-33.7,8.5-40.5,17.4v0.1v0.1c-1.4,1.8-1.8,2.9-2,3.4
					C1878.7,713.2,1881.4,714.3,1886.3,714.3 M2144.2,600h-317.7c-29.2,0-66,19.6-87.5,46.6c0,0.1-0.1,0.1-0.1,0.2l-116.7,148.7
					c-9.4,11.9-15,24.2-16.6,36.5c-1.4,10.4,0.1,20.7,4.4,29.7c0.1,0.1,0.1,0.2,0.2,0.3c3.8,7.7,9.6,14.4,16.8,19.3
					c9.3,6.3,20.4,9.5,33.1,9.5h317.7c13.9,0,29.4-3.4,43.7-9.7c10.4-4.5,24.8-12.5,35.1-25.2c0.5-0.6,1-1.2,1.5-1.8
					c11.9-15.9,14.9-34.8,8.4-51.3c10.4-2.8,19.6-7,26.6-10.8c15.4-8.5,29.4-20.1,39.4-32.7l50.2-63.8c7.6-9.6,12.7-19.7,15.2-30
					c3-12.6,1.9-25.1-3.3-36c-0.1-0.2-0.2-0.4-0.3-0.7C2184.9,610.8,2166.3,600,2144.2,600L2144.2,600z"/>
			</g>
			<g>
				<path class="st0" d="M2090.2,876c-23.6,0-33.2-14.2-36.2-20.3c-4.3-8.6-8.8-26.7,9.9-50.9c0,0,50.3-64.1,50.3-64.1
					c18.2-23.4,50.7-41.1,75.6-41.1h6.2c-7.3-4.5-11.2-10.4-13.3-14.7c0-0.1-0.1-0.1-0.1-0.2c-2.7-5.9-7.6-21.5,6.3-39
					c13.7-17.7,42.7-31,67.6-31h318.1c16.3,0,29.9,7.7,36.3,20.7c0,0.1,0.1,0.1,0.1,0.2c7.3,15.1,3.6,33.6-10.1,50.7l-116.8,148.4
					c-18,23.5-50.8,41.3-76.3,41.3H2090.2z"/>
				<path class="st0" d="M2574.6,629.5c10.8,0,19.2,4.6,23.1,12.5c4.7,9.7,1.7,22.5-8.4,35.1l-116.9,148.6
					c-15.3,20-43.6,35.5-64.6,35.5h-317.7c-14.9,0-20.8-7.6-23-12.1c-2.8-5.5-5.3-17.5,8.4-35.3l50.2-64
					c15.5-19.9,43.5-35.4,64-35.4h190.6c14.4,0,33.2-8,41.3-17.3c1.4-1.9,1.7-3,1.8-3.4c-0.7-0.6-3.4-2-9.4-2h-190.7
					c-18.4,0-25-8.2-27.4-13.1c-2-4.2-4-12.9,4.5-23.6c10.9-14.2,35.4-25.3,56-25.3H2574.6 M2229.3,799.3h85
					c15.6,0,34-9.1,40.9-17.3c1.4-1.8,1.7-3.1,1.8-3.5c-0.7-0.6-3.3-2.1-9.5-2.1h-84.6c-14.3,0-33.6,8.4-41.3,17.9
					c-1.3,1.7-1.7,2.7-1.8,3.1C2220.7,797.9,2223.4,799.3,2229.3,799.3 M2574.6,600h-318.1c-14,0-29.6,3.5-43.8,10
					c-10.4,4.7-25,13.1-35.5,26.6c-7.4,9.4-11.6,19.6-12.4,30.2c-0.5,7.2,0.5,14.4,3.1,21c-10.3,2.8-19.4,7.1-26.3,10.9
					c-15.3,8.5-29.2,20.1-39.1,32.8l-50.2,64c-0.1,0.1-0.1,0.2-0.2,0.2c-9.3,12.1-14.7,24.4-16.2,36.7c-1.3,10.6,0.4,20.9,4.9,29.9
					c3.8,7.6,9.5,14.2,16.6,19c9.2,6.3,20.3,9.5,32.9,9.5h317.7c30.1,0,67-19.7,87.9-47l116.7-148.3c7.7-9.6,12.9-19.7,15.3-30.1
					c3-12.7,1.8-25.2-3.5-36.2c-0.1-0.1-0.1-0.2-0.2-0.3C2615.2,610.8,2596.6,600,2574.6,600L2574.6,600z"/>
			</g>
			<g>
				<path class="st0" d="M2520.2,876c-16.7,0-29.9-7.4-36.3-20.3c-4.3-8.6-8.7-26.7,10.1-51c0,0,117-148.8,117-148.8
					c8.5-10.8,20.5-20.9,33.9-28.4c14.5-8.2,29.3-12.7,41.8-12.7h190.7c8.3,0,27.2-8.7,37.9-22.3l16.3-20.9
					c18.4-23.8,51.2-41.7,76.2-41.7h63.4c16.3,0,29.9,7.7,36.3,20.6c0,0,0,0.1,0.1,0.1c7.3,14.9,3.6,33.6-10.2,51.2l-183,232.9
					c-18.3,23.5-51.2,41.3-76.6,41.3H2520.2z M2744.2,784.4c9.1,0,27.7-9.9,37.2-22.2c0,0,44.1-55.8,44.1-55.8h-66
					c-3.2,0-9.7,1.6-17.8,6.2c-7.7,4.3-15,10.4-19.6,16.3l-43.6,55.5H2744.2z"/>
				<path class="st0" d="M3071.3,544.7c10.8,0,19.2,4.5,23.1,12.4c4.7,9.6,1.6,22.6-8.6,35.6l-182.9,232.9
					c-15.6,20-44.1,35.6-65,35.6h-317.7c-15,0-20.9-7.6-23.1-12.1c-2.8-5.5-5.2-17.5,8.6-35.3l117-148.7c7.3-9.3,17.7-18,29.5-24.7
					c12.2-6.9,24.5-10.7,34.6-10.7h190.7c13.4,0,36.4-11.2,49.5-28l16.3-21c15.7-20.2,44-36,64.6-36H3071.3 M2659.4,799.4v-0.2h84.8
					c14.8,0,37.2-12.8,48.9-28l50.3-63.6c6.3-8,7-13.3,6.3-14.7c-0.2-0.4-1.8-1.3-5.4-1.3h-84.8c-6.8,0-15.9,3-25.1,8.2
					c-9.5,5.3-18.1,12.6-23.9,20l-50.1,63.7c-6.9,8.9-6.8,13.8-6.4,14.7C2654.2,798.5,2655.8,799.4,2659.4,799.4 M3071.3,515.1
					h-63.4c-19.1,0-36.9,7.7-48.5,14.2c-15.4,8.6-29.4,20.4-39.4,33.3l-16.3,20.9l0,0c-8,10.3-22.1,16.3-26.4,16.6h-190.6
					c-15.2,0-32.2,5-49.1,14.5c-15.3,8.6-28.5,19.8-38.2,32.2l-117,148.7c-0.1,0.1-0.1,0.1-0.1,0.2c-9.3,12-14.8,24.4-16.4,36.6
					c-1.4,10.6,0.3,21,4.8,30c3.8,7.6,9.6,14.2,16.7,19c9.2,6.3,20.3,9.4,32.9,9.4h317.7c29.9,0,67-19.8,88.2-47L3109.1,611
					c0,0,0-0.1,0.1-0.1c17.4-22.3,21.7-46.6,11.8-66.8c0-0.1-0.1-0.1-0.1-0.2C3111.8,525.9,3093.3,515.1,3071.3,515.1L3071.3,515.1z
					 M2759.7,721.2h35.3l-25.1,31.7c-0.1,0.1-0.1,0.2-0.2,0.3c-3.1,4-8.3,8.4-13.9,11.7c-6.2,3.7-10.6,4.7-11.7,4.8h-35.2l24.8-31.6
					c3.4-4.4,9.3-9.2,15.2-12.5c0,0,0.1-0.1,0.1-0.1C2754.6,722.3,2758.6,721.3,2759.7,721.2L2759.7,721.2z"/>
			</g>
			<g>
				<path class="st0" d="M2950.4,875.9c-23.5,0-33.1-14.2-36.1-20.3c-4.3-8.6-8.8-26.7,9.9-50.9c0,0,116.7-148.8,116.7-148.9
					c18.6-23.4,51.3-41,75.9-41H3435c16.4,0,30,7.7,36.4,20.6c0,0,0,0.1,0.1,0.2c7.2,15,3.5,33.4-10.2,50.6l-50,63.8
					c-17.9,23-51.3,41-76.1,41h-6.8c5.4,3.2,10.4,7.9,13.8,14.8c6.1,12.4,3.8,27.3-5.9,39.8c-13.3,17.3-42.5,30.3-67.9,30.3H2950.4z
					"/>
				<path class="st0" d="M3435,629.5c10.8,0,19.3,4.6,23.1,12.4c4.6,9.6,1.6,22.4-8.5,35.1l-50,63.8c-15.2,19.5-44.1,35.3-64.5,35.3
					h-191c-14.4,0-33.3,8.2-40.5,17.6l-0.1,0.2l-0.1,0.2c-1.2,1.5-1.7,2.5-1.8,3c0.8,0.7,3.6,2.1,9.5,2.1h190.7
					c17.9,0,24.6,8.2,27,13c3.5,7.3,2,16.2-4.3,24.3c-10.4,13.6-35.6,24.6-56.2,24.6h-317.8c-14.8,0-20.7-7.6-22.9-12.1
					c-2.8-5.5-5.3-17.5,8.4-35.3L3052.4,665c15.9-19.9,44.2-35.4,64.4-35.4H3435 M3177.6,714.3h84.9c14.5,0,33.3-8,40.2-17l0.2-0.2
					l0.2-0.2c1.4-1.6,1.9-2.8,2.1-3.2c-0.9-0.7-3.7-2-9.6-2h-85c-13.9,0-33.1,8.4-40.6,17.5c-1.3,1.8-1.7,2.9-1.8,3.2
					C3169.1,713.1,3171.9,714.3,3177.6,714.3 M3435,600h-318.1c-29.2,0-66,19.6-87.5,46.6c0,0.1-0.1,0.1-0.1,0.2l-116.6,148.7
					c-0.1,0.1-0.1,0.2-0.2,0.2c-9.3,12.1-14.7,24.4-16.2,36.7c-1.3,10.6,0.4,20.9,4.9,29.9c3.8,7.6,9.5,14.1,16.5,18.9
					c9.2,6.3,20.3,9.5,32.8,9.5h317.8c30,0,63.5-15.2,79.6-36.1c12.4-16,15.7-35.1,9-52c10.4-2.8,19.6-7.1,26.7-10.9
					c15.6-8.6,29.6-20.2,39.4-32.7l49.9-63.7c7.7-9.6,12.8-19.7,15.3-30c3.1-12.7,1.9-25.2-3.4-36.1c0-0.1-0.1-0.2-0.1-0.3
					C3475.7,610.8,3457.1,600,3435,600L3435,600z"/>
			</g>
			<g>
				<path class="st0" d="M3380.7,875.9c-16.7,0-29.9-7.4-36.3-20.3c-4.3-8.6-8.7-26.5,9.9-50.9c0,0,116.7-148.9,116.8-148.9
					c18.6-23.4,51.3-41,75.9-41h233.1c19.4,0,34.2,7.9,40.8,21.7c6,12.4,3.6,27.3-6.3,39.7c-13.8,17.5-42.2,30.2-67.4,30.2H3641
					c-8.7,0-28.1,10.6-37.4,22.4c0,0-83.1,106.1-83.1,106.2c-8.8,10.9-20.9,21-34.2,28.5c-14.5,8.1-28.9,12.4-41.7,12.4H3380.7z"/>
				<path class="st0" d="M3780.1,629.5c13.4,0,23.4,4.8,27.5,13.3c3.5,7.4,1.9,16.1-4.5,24.1c-11,14-35.1,24.6-55.8,24.6H3641
					c-14.2,0-37.5,13.4-49,28.1l-83,106c-7.6,9.5-18.2,18.3-29.9,24.9c-12.1,6.8-24.3,10.5-34.5,10.5h-63.9
					c-15,0-20.9-7.6-23.1-12.1c-2.8-5.5-5.2-17.4,8.5-35.3L3482.6,665c15.9-19.9,44.2-35.4,64.4-35.4H3780.1 M3780.1,600H3547
					c-29.2,0-66,19.6-87.5,46.6c0,0.1-0.1,0.1-0.1,0.2l-116.6,148.7c-0.1,0.1-0.2,0.2-0.2,0.3c-9.2,12.1-14.7,24.4-16.2,36.5
					c-1.3,10.6,0.3,21,4.8,30c3.8,7.6,9.6,14.2,16.6,19c9.2,6.3,20.3,9.4,32.9,9.4h63.9c15.3,0,32.2-4.9,48.9-14.3
					c15-8.4,28.6-19.8,38.5-32.2c0.1-0.1,0.1-0.2,0.2-0.3l83-106c6.8-8.6,21.2-16.1,26-16.7h106c29.8,0,62.3-14.7,78.9-35.8
					c13.5-16.9,16.5-37.6,8.1-55.3C3825.3,611.2,3805,600,3780.1,600L3780.1,600z"/>
			</g>
			<g>
				<path class="st0" d="M1969.1,457.2c-33.5,0-65.3-5.8-94.5-17.3c-28.2-11.1-53.1-27.1-74.1-47.6c-41.9-40.7-64.9-96.1-64.9-156.1
					c0-59.8,23-115.3,64.7-156.3c20.9-20.6,45.7-36.7,73.8-47.9c29.1-11.5,60.7-17.4,94.1-17.4h1180.7c33.3,0,65,5.8,94.1,17.4
					c27.9,11.1,52.7,27.2,73.8,47.9c41.7,41,64.7,96.5,64.7,156.3c0,59.9-23,115.4-64.8,156.1c-21.1,20.5-46,36.5-74,47.6
					c-29.3,11.5-61.1,17.3-94.5,17.3H1969.1z"/>
				<path class="st0" d="M3148.8,29.5c31.5,0,61.3,5.5,88.7,16.3c26.2,10.4,49.3,25.5,68.9,44.7c38.9,38.2,60.3,89.9,60.3,145.7
					s-21.4,107.5-60.4,145.5c-19.6,19.1-42.8,34.1-69.1,44.4c-27.5,10.7-57.4,16.2-89.1,16.2h-1179c-31.7,0-61.7-5.5-89.1-16.2
					c-26.3-10.3-49.6-25.3-69.2-44.4c-39-37.9-60.5-89.6-60.5-145.5c0-55.7,21.4-107.5,60.3-145.7c19.6-19.3,42.7-34.3,68.9-44.7
					c27.3-10.8,57.1-16.3,88.6-16.3h0.6h1179.5H3148.8 M3148.8,0h-0.6H1968.7h-0.6c-35.2,0-68.7,6.2-99.5,18.4
					c-29.9,11.9-56.4,29.1-78.7,51.1c-44.5,43.7-69.1,103-69.1,166.8c0,64,24.6,123.2,69.4,166.7c22.4,21.8,49,38.9,79,50.7
					c31,12.1,64.6,18.3,99.9,18.3h1179c35.2,0,68.8-6.1,99.9-18.3c0,0,0,0,0.1,0c29.9-11.8,56.4-28.8,78.9-50.7
					c44.7-43.5,69.3-102.7,69.3-166.7c0-63.8-24.5-123-69.1-166.8c-22.5-22.1-49-39.2-78.7-51.1c0,0,0,0-0.1,0
					C3217.5,6.2,3184,0,3148.8,0L3148.8,0z"/>
			</g>
		</g>
		<g>
			<g>
				<g>
					<path class="st1" d="M464.2,1147c-90.8,0-174.6-15.1-242.1-43.7c-34.5-14.6-64.9-32.6-90.4-53.7c-26.3-21.7-47.6-46.6-63.2-74
						c-29.7-51.9-40-112.7-30.7-180.8c8.9-65.3,35.4-134.5,78.8-205.6c43.2-70.9,101.2-140.3,172.1-206.1
						c73.4-68.1,157.5-129.5,250.3-182.4c94.8-54.1,192.6-96,290.5-124.5c94.7-27.8,185.4-41.7,269.6-41.7
						c166.2,0,289.2,55.1,346.5,155.2c58.8,103,45.6,249.5-36.2,401.9c-40.8,76-96,149.1-164,217.3
						c-71.9,72.1-155,135.2-246.7,187.7C828.1,1093.5,638.4,1147,464.2,1147L464.2,1147z"/>
					<path class="st0" d="M1099.1,39.4c157.8,0,283.9,50.7,342.2,152.7c118.8,208.1-67.2,584.2-445.2,800.2
						c-179.1,102-368.9,149.9-531.9,149.9c-181.1,0-328.9-59.2-391.5-168.9C-46.2,764.5,163.6,420.8,541.4,205
						C734.6,94.7,934.1,39.4,1099.1,39.4 M1099.1,29.5c-41.7,0-85.9,3.5-131,10.5c-45.6,7-92.6,17.5-139.9,31.3
						c-98.4,28.7-196.4,70.8-291.5,125c-93,53.2-177.5,114.7-251.2,183.1c-71.3,66.2-129.5,135.9-173,207.2
						C90.9,622,73.2,657.3,59.9,691.9c-13.5,35-22.5,69.4-27.1,102.4c-4.6,33.8-4.4,66.3,0.6,96.6c5.1,31.3,15.5,60.6,30.6,87.3
						c16,28,37.6,53.4,64.4,75.3c25.9,21.4,56.7,39.6,91.6,54.3c34.2,14.5,72.4,25.5,113.5,33c41,7.4,84.9,11.1,130.6,11.1
						c84.5,0,172.8-12.5,262.5-37c94.5-25.9,186.8-64.3,274.2-114.2c92.3-52.7,175.6-116.1,247.8-188.4
						c34.2-34.3,65.7-70.4,93.4-107.3c27.3-36.2,51.3-73.6,71.4-111.1c82.6-154,95.8-302.2,36.2-406.6c-15-26.1-34.5-49.4-58.1-69.5
						c-22.9-19.5-49.9-36-80.3-49.2C1251.9,42.6,1180.5,29.5,1099.1,29.5L1099.1,29.5z"/>
				</g>
				<g>
					<path class="st1" d="M1333.1,856.4c-12.3,0-17-5.9-18.8-9.5c-3.8-7.9-1-18.6,8-30.1l116.9-148.6c14.5-18.5,41.5-33.6,60.3-33.6
						h233.2c11.3,0,19.7,3.8,22.8,10.4c1.6,3.3,3.2,10.1-3.9,19.1c-9.8,12.8-32.6,22.7-51.9,22.7h-106.4c-15.6,0-40.3,14-52.9,29.9
						l-82.9,106c-15,18.9-41.5,33.6-60.6,33.6L1333.1,856.4L1333.1,856.4z"/>
					<path class="st0" d="M1732.6,639.5c17.7,0,24.5,9.7,15.1,21.6c-9.1,11.7-30.4,20.9-47.9,20.9h-106.4c-17.1,0-43,14.5-56.7,31.8
						l-83,106c-14,17.6-39.2,31.7-56.7,31.7h-63.8c-17.6,0-20.7-14-7-31.7L1443,671.2c13.3-17,38.8-31.7,56.4-31.7L1732.6,639.5
						 M1732.6,629.6h-233.2c-20.4,0-48.5,15.6-64.1,35.5l-116.9,148.6l0,0l0,0c-13.7,17.7-11.2,29.7-8.5,35.3
						c2.3,4.5,8.3,12.2,23.1,12.2h63.8c10.1,0,22.3-3.7,34.5-10.5c11.7-6.6,22.3-15.5,29.9-24.9l0,0l0,0l82.9-106
						c5.8-7.3,14.6-14.6,24.1-19.9c9.3-5.2,18.3-8.2,24.8-8.2h106.4c21,0,44.9-10.5,55.7-24.6c6.4-8.1,8-16.8,4.5-24.2
						C1757.5,637.9,1750.8,629.6,1732.6,629.6L1732.6,629.6z"/>
				</g>
				<g>
					<path class="st1" d="M1659.9,856.4c-12.4,0-17.1-6-18.9-9.6c-2.2-4.5-4.1-14.6,8.2-30.1L1765.8,668
						c14.8-18.5,41.9-33.6,60.6-33.6h317.7c12.4,0,17.2,6.2,19,9.8c3.8,8,1,18.8-7.8,29.8l-50.2,63.8
						c-14.5,18.4-41.6,33.4-60.6,33.4h-190.8c-15.9,0-36.3,9-44.4,19.6l-0.1,0.1l-0.1,0.1c-2.7,3.2-3.6,6-2.8,8
						c1.1,2.3,5.4,5,14.2,5h190.7c11.1,0,19.1,3.5,22.3,10.1c1.7,3.2,3.4,10.1-3.3,19.3l-0.1,0.1c-9.8,12.5-33.4,22.7-52.7,22.7
						L1659.9,856.4L1659.9,856.4z M1920.3,686.7c-15.6,0-36.7,9.3-44.4,19.4c-2.7,3.4-3.6,6.6-2.8,8.6c1.1,2.3,5.3,4.6,13.9,4.6h85
						c16.1,0,36-8.6,44.2-19.1c2.8-3.4,3.7-6.5,2.8-8.6c-1.1-2.3-5.4-4.9-14-4.9H1920.3z"/>
					<path class="st0" d="M2144.2,639.4c17.6,0,21,14.7,7.4,31.7l-50.2,63.9c-13.8,17.5-39.6,31.5-56.7,31.5h-190.8
						c-17.5,0-39.4,9.7-48.2,21.6c-9.5,11.1-2.5,21.1,15.2,21.1h190.7c17.5,0,23.8,9.7,15.1,21.6c-8.9,11.2-31.2,20.9-48.7,20.9
						h-317.7c-17.7,0-20.9-14-6.9-31.7l116.7-148.7c13.6-17,39.3-31.7,56.7-31.7L2144.2,639.4 M1887,724.2h85c17.6,0,39-9.4,48-21
						c9.5-11.5,2.5-21.4-15.1-21.4h-84.8c-17.1,0-39.6,9.7-48.2,21.4C1862.9,715,1869.5,724.2,1887,724.2 M2144.2,629.5h-317.7
						c-20.2,0-48.5,15.6-64.4,35.4l0,0l0,0l-116.7,148.7c-13.9,17.6-11.4,29.6-8.8,35.2c2.3,4.6,8.3,12.3,23.3,12.3h317.7
						c20.5,0,45.9-11,56.5-24.6l0.1-0.1l0.1-0.1c6.1-8.2,7.5-17.1,3.8-24.4c-2.4-4.8-9.1-12.8-26.8-12.8h-190.7
						c-5.8,0-8.7-1.4-9.6-2.1c0.2-0.5,0.6-1.5,1.9-2.9l0.2-0.2l0.2-0.2c7.2-9.5,26.1-17.6,40.5-17.6h190.8
						c20.6,0,48.8-15.5,64.4-35.2l50.2-63.8c9.9-12.5,13-25.3,8.4-35.1C2163.7,634.2,2155.2,629.5,2144.2,629.5L2144.2,629.5z
						 M1877.8,712.6c0.2-0.6,0.6-1.7,2-3.4v-0.1V709c6.8-9,26.4-17.4,40.5-17.4h84.8c5.9,0,8.7,1.4,9.5,2c-0.1,0.5-0.5,1.6-2,3.3
						l-0.1,0.1l-0.1,0.1c-7.3,9.4-25.8,17.2-40.4,17.2h-85C1881.6,714.4,1878.7,713.2,1877.8,712.6L1877.8,712.6z"/>
				</g>
				<g>
					<path class="st1" d="M2090.1,856.4c-12.2,0-16.9-5.9-18.6-9.4c-3.8-7.9-1.1-18.6,7.9-30.2l50.3-64
						c14.4-18.5,41.4-33.6,60.2-33.6h190.6c15.9,0,36.1-8.6,45.1-19.1c2.6-3.3,3.5-6.5,2.5-8.6c-1.2-2.4-5.4-4.8-13.9-4.8h-190.7
						c-11.5,0-19.9-3.7-22.9-10.3c-1.5-3.2-3.1-9.8,3.9-18.5c10-13.1,32.9-23.4,52.2-23.4h318.1c12.1,0,16.8,6.1,18.6,9.8
						c3.8,8.1,1,18.9-7.9,29.9l-116.9,148.7c-14.4,18.8-41.1,33.6-60.6,33.6L2090.1,856.4L2090.1,856.4z M2262.9,771.5
						c-15.8,0-36.4,9.1-45.1,19.7c-2.6,3.2-3.4,6.2-2.5,8.3c1.1,2.4,5.4,4.8,14,4.8h85c15.6,0,35.9-8.8,44.6-19.2
						c1.6-2.1,3.8-5.8,2.5-8.8c-1.2-2.4-5.4-4.9-13.9-4.9L2262.9,771.5L2262.9,771.5z"/>
					<path class="st0" d="M2574.6,639.4c17.1,0,20.7,14.7,7,31.7l-117,148.7c-13.5,17.7-39.1,31.7-56.8,31.7h-317.7
						c-17.5,0-20.5-14-6.9-31.7l50.2-64c13.6-17.5,39.1-31.7,56.3-31.7h190.6c17.6,0,39.1-9.4,48.8-21c9-11.5,2.5-21.4-15.2-21.4
						h-190.7c-17.3,0-24.7-9.2-15.2-20.9c9-11.7,30.5-21.6,48.2-21.6L2574.6,639.4 M2229.2,809.2h85c17.4,0,39.2-9.7,48.4-21.1
						c9-11.6,2.3-21.6-15.3-21.6h-84.6c-17.6,0-39.4,9.7-48.8,21.6C2205.1,799.3,2211.5,809.2,2229.2,809.2 M2574.6,629.5h-318.1
						c-20.6,0-45.1,11.1-56,25.3c-8.6,10.7-6.5,19.4-4.5,23.6c2.4,4.9,9,13.1,27.4,13.1h190.7c5.9,0,8.7,1.4,9.4,2
						c-0.1,0.5-0.4,1.6-1.8,3.4c-8.1,9.4-26.9,17.3-41.3,17.3h-190.6c-20.5,0-48.5,15.6-64,35.4l-50.2,64l0,0l0,0
						c-13.7,17.8-11.1,29.8-8.4,35.3c2.3,4.5,8.2,12.1,23,12.1h317.7c21,0,49.3-15.6,64.6-35.5l116.9-148.6
						c10-12.5,13.1-25.3,8.4-35.1C2593.8,634.2,2585.5,629.5,2574.6,629.5L2574.6,629.5z M2221.7,794.3c7.7-9.6,27-17.9,41.3-17.9
						h84.6c6.1,0,8.8,1.5,9.5,2.1c-0.1,0.5-0.4,1.8-1.8,3.5c-6.9,8.3-25.3,17.3-40.9,17.3h-85c-5.9,0-8.7-1.4-9.5-2
						C2220,796.9,2220.4,795.9,2221.7,794.3L2221.7,794.3z"/>
				</g>
				<g>
					<path class="st1" d="M2520.3,856.4c-12.2,0-16.9-5.9-18.7-9.4c-3.8-7.8-1-18.5,8.1-30.2l117-148.7
						c14.5-18.5,41.5-33.6,60.2-33.6h190.7c16.5,0,40.5-13.4,53.4-29.8l16.3-21c14.5-18.8,41.7-34.1,60.6-34.1h63.4
						c12.2,0,16.9,6,18.7,9.6c3.8,8,1,19.1-8,30.5l-182.7,233c-14.5,18.6-41.9,33.7-61.1,33.7h-317.8V856.4z M2759.5,686.8
						c-15.9,0-40.1,13.7-52.9,29.9l-50.1,63.7c-7.6,9.6-8.6,16.5-7,19.8c1.7,3.4,6.9,4,9.7,4h84.8c16,0,40.3-13.7,52.9-29.8
						l50.4-63.7c7.5-9.6,8.5-16.5,6.8-19.9c-1.7-3.3-6.2-4-9.8-4H2759.5z"/>
					<path class="st0" d="M3071.3,554.4c17.5,0,20.7,14.6,6.9,32.2l-182.7,233c-13.9,17.8-39.8,31.8-57.3,31.8h-317.7
						c-17.7,0-20.5-14-6.8-31.7l117-148.7c13.3-17,38.9-31.7,56.3-31.7h190.7c17.7,0,43.3-14,57.2-31.7l16.3-21
						c13.6-17.6,39.4-32.2,56.8-32.2L3071.3,554.4 M2659.4,809.2h84.8c17.7,0,43.1-14.2,56.7-31.7l50.3-63.7
						c13.6-17.3,10.6-31.8-6.9-31.8h-84.8c-17.7,0-43.1,14.5-56.7,31.8l-50.1,63.7C2638.9,795,2641.9,809.2,2659.4,809.2
						 M3071.3,544.7h-63.4c-20.6,0-48.9,15.9-64.6,36l-16.3,21c-13.1,16.7-36.1,28-49.5,28h-190.7c-10,0-22.3,3.8-34.6,10.7
						c-11.8,6.7-22.3,15.5-29.5,24.7l-117,148.7l0,0l0,0c-13.8,17.8-11.3,29.8-8.6,35.3c2.3,4.5,8.2,12.1,23.1,12.1h317.7
						c20.9,0,49.4-15.7,65-35.6l182.9-232.9c10.1-13,13.3-26,8.6-35.6C3090.5,549.2,3082.1,544.7,3071.3,544.7L3071.3,544.7z
						 M2659.4,799.4c-3.6,0-5.2-0.9-5.4-1.2c-0.4-0.9-0.5-5.8,6.4-14.7l50.1-63.7c5.8-7.4,14.5-14.7,23.9-20
						c9.2-5.2,18.3-8.2,25.1-8.2h84.8c3.6,0,5.2,0.9,5.4,1.3c0.7,1.4,0,6.7-6.3,14.7l-50.3,63.6l0,0l0,0c-11.7,15.2-34.2,28-48.9,28
						h-84.8V799.4z"/>
				</g>
				<g>
					<path class="st1" d="M2950.3,856.4c-12.1,0-16.8-5.9-18.6-9.5c-2.3-4.5-4.2-14.5,7.9-30.2L3056.2,668
						c14.8-18.5,41.9-33.6,60.6-33.6h318.1c12.2,0,17,6.1,18.8,9.7c3.8,8,1,18.9-7.9,29.9l-50,63.8c-14.3,18.4-41.5,33.4-60.6,33.4
						h-191c-15.9,0-36.3,9-44.4,19.6l-0.1,0.2c-1.6,1.9-3.9,5.3-2.7,8.1c1.1,2.3,5.4,5,14.1,5h190.7c11.3,0,19.4,3.6,22.5,10.2
						c1.6,3.3,3.2,10.1-3.8,19.2c-9.6,12.5-33.1,22.7-52.4,22.7L2950.3,856.4L2950.3,856.4z M3166.1,706.2c-2.5,3.4-3.3,6.5-2.4,8.5
						c1.1,2.3,5.4,4.6,13.9,4.6h84.9c16.1,0,36.3-8.7,44.1-19l0.1-0.1l0.1-0.1c2.8-3.3,3.8-6.4,3-8.4c-1.1-2.3-5.4-4.9-14.2-4.9h-85
						C3195.1,686.7,3174.4,695.8,3166.1,706.2z"/>
					<path class="st0" d="M3435,639.4c17.5,0,20.7,14.7,7.1,31.7l-50,63.9c-13.6,17.5-39.8,31.5-56.7,31.5h-191
						c-17.7,0-39.4,9.7-48.2,21.6c-9.4,11.1-2.3,21.1,15.2,21.1h190.7c17.6,0,24.1,9.7,14.9,21.6c-8.7,11.2-30.8,20.9-48.4,20.9
						h-317.8c-17.4,0-20.5-14-6.9-31.7l116.6-148.7c13.6-17,39.1-31.7,56.7-31.7L3435,639.4 M3177.6,724.2h84.9
						c17.5,0,39.2-9.4,47.9-21c9.7-11.5,2.8-21.4-15-21.4h-85c-16.9,0-39.1,9.7-48.2,21.4C3153.5,715,3160.2,724.2,3177.6,724.2
						 M3435,629.5h-318.1c-20.2,0-48.5,15.6-64.4,35.4l0,0l0,0l-116.6,148.7l0,0l0,0c-13.7,17.8-11.1,29.8-8.4,35.3
						c2.3,4.5,8.2,12.1,22.9,12.1h317.8c20.6,0,45.8-11,56.2-24.6c6.3-8.1,7.9-17,4.3-24.3c-2.4-4.8-9.1-13-27-13h-190.7
						c-5.8,0-8.7-1.4-9.5-2.1c0.1-0.5,0.6-1.5,1.8-3l0.1-0.2l0.1-0.2c7.2-9.5,26.1-17.6,40.5-17.6h191c20.4,0,49.3-15.9,64.5-35.3
						l50-63.8c10-12.6,13.1-25.4,8.5-35.1C3454.2,634.2,3445.8,629.5,3435,629.5L3435,629.5z M3170,709.2
						c7.5-9.2,26.7-17.5,40.6-17.5h85c5.8,0,8.7,1.3,9.6,2c-0.2,0.5-0.7,1.7-2.1,3.2l-0.2,0.2l-0.2,0.2c-6.9,9.1-25.7,17-40.2,17
						h-84.9c-5.7,0-8.5-1.2-9.4-1.9C3168.3,712,3168.7,711,3170,709.2L3170,709.2z"/>
				</g>
				<g>
					<path class="st1" d="M3380.6,856.4c-12.2,0-16.9-5.9-18.7-9.4c-3.8-7.8-1-18.5,8-30.2L3486.4,668
						c14.8-18.5,41.9-33.6,60.6-33.6h233.1c11.4,0,19.8,3.8,22.9,10.5c1.6,3.3,3.2,10.1-4,19c-10.1,13-32.6,22.7-52,22.7h-106.2
						c-15.7,0-40.4,14-52.9,29.9l-83,106c-15,18.9-41.5,33.6-60.6,33.6L3380.6,856.4L3380.6,856.4z"/>
					<path class="st0" d="M3780.1,639.4c17.6,0,24.7,9.7,15.2,21.6c-9.4,11.8-30.4,21-48.1,21h-106.2c-17.1,0-43.1,14.5-56.7,31.8
						l-83,106c-14,17.6-39.2,31.7-56.7,31.7h-63.9c-17.7,0-20.5-14-6.9-31.7l116.6-148.7c13.6-17,39.2-31.7,56.7-31.7L3780.1,639.4
						 M3780.1,629.5H3547c-20.2,0-48.5,15.6-64.4,35.4l0,0l0,0L3366,813.7l0,0l0,0c-13.7,17.9-11.2,29.8-8.5,35.3
						c2.3,4.5,8.2,12.1,23.1,12.1h63.9c10.1,0,22.3-3.7,34.5-10.5c11.7-6.6,22.3-15.5,29.9-24.9l0,0l0,0l83-106
						c11.5-14.7,34.9-28.1,49-28.1h106.2c20.8,0,44.8-10.6,55.8-24.6c6.4-8,8.1-16.7,4.5-24.1
						C3803.6,634.4,3793.5,629.5,3780.1,629.5L3780.1,629.5z"/>
				</g>
				<g>
					<path class="st1" d="M1969,437.5c-60.6,0-115.7-21.1-154.9-59.3c-38-37-59-87.5-59-142.1c0-54.4,20.9-105,58.8-142.3
						c39.2-38.3,93.9-59.5,154.2-59.5h1180.7c60.3,0,115,21.2,154.1,59.7c37.9,37.3,58.8,87.8,58.8,142.3
						c0,54.5-20.9,105-58.9,142.1c-39.2,38.2-94.1,59.2-154.8,59.3H1969V437.5z"/>
					<path class="st0" d="M3148.8,39.3c124.4,0,208,89.6,208,197c0,107.6-83.6,196.3-208.8,196.4H1969
						c-125.2-0.1-208.9-88.7-208.9-196.4c0-107.4,83.6-197,208-197c0.2,0,0.4,0,0.6,0h1179.5C3148.4,39.3,3148.6,39.3,3148.8,39.3
						 M3148.8,29.5L3148.8,29.5h-0.6H1968.7h-0.6c-31.5,0-61.3,5.5-88.6,16.3c-26.2,10.4-49.3,25.4-68.9,44.7
						c-38.9,38.2-60.3,90-60.3,145.7c0,55.9,21.5,107.6,60.5,145.5c19.6,19.1,42.9,34.1,69.2,44.4c27.4,10.7,57.4,16.2,89.1,16.2
						h1179c31.7,0,61.6-5.5,89.1-16.2c26.3-10.3,49.5-25.3,69.1-44.4c39-38,60.4-89.7,60.4-145.5s-21.4-107.5-60.3-145.7
						c-19.6-19.2-42.7-34.3-68.9-44.7C3210.2,35.1,3180.3,29.5,3148.8,29.5L3148.8,29.5z"/>
				</g>
			</g>
			<path class="st0" d="M3152.5,401.5H1952c-92.3,0-167.1-74.8-167.1-167.1l0,0c0-92.3,74.8-167.1,167.1-167.1h1200.5
				c92.3,0,167.1,74.8,167.1,167.1l0,0C3319.6,326.7,3244.7,401.5,3152.5,401.5z"/>
			<g>
				<g>
					<path class="st2" d="M996.1,992.2c-378,215.5-804.5,189.4-923.3-18.9C-46.2,764.5,163.6,420.8,541.4,205
						C919.5-10.7,1322-16.4,1441.3,192.1C1560.1,400.1,1374,776.3,996.1,992.2"/>
					<path class="st0" d="M931.7,902.9c-339.6,194.1-701.7,199.4-808.6,11.9C15.8,727.4,204.8,418.3,544.3,224.3
						C883.8,30.4,1246,25.1,1353.2,212.7C1460.1,399.9,1271.5,709,931.7,902.9"/>
					<path class="st2" d="M1004.2,444.1c-7.8-17.1-21.4-35.7-39.8-43.6c-42-18.7-104.5-2.2-171.7,37.1
						c-30.1,17.7-70.4,47.2-95.2,72.7c-28.4,0-53.6,0-76,0c131.2-125.8,296.7-182.2,361.3-147.4c13.1,7.1,20.5,16.7,23.8,30.8
						c1.7,5.8,2.2,12.2,2.2,18.9C1008.9,422.1,1007,432.8,1004.2,444.1 M1284.4,348.5L1284.4,348.5c-4.6-45.9-27-85.8-63.6-112.4
						c-122.9-89.3-397.2-24.5-638.6,150.7c-53.6,38.9-100.3,80.4-140.7,123.5c-27.4,0-180.8,0-180.8,0L161,639.6c0,0,91.9,0,185.7,0
						c-23.8,45.6-36.7,89.1-36.7,128.7c0,53.8,22.7,100,64.3,130.1c79,57.6,220.7,52.9,388.8-13.1l73.2-28.7l-81.6-90.7h-41
						C635.1,802.5,559,812,520.1,791.1c-14.9-7.9-22.9-19.3-25.2-36.9c-0.9-4.2-1.1-8.5-1.1-12.9c0-28.1,11.7-63.8,32.5-101.6
						c10.6,0,60.5,0,126.9,0c6.5,21.3,21.3,38.5,42.4,47.9c41.9,18.3,104.7,6.7,171.9-32.5c7.8-4.7,15.9-9.7,23.8-15.5
						c129.8,0,244.1,0,244.1,0s4.9-1.1,8.6-4.5c4.4-4.2,15.6-16.6,15.6-16.6c82.3-89.8,125.3-176.5,125.3-252
						C1285,360.6,1284.8,354.5,1284.4,348.5"/>
					
						<linearGradient id="SVGID_1_" gradientUnits="userSpaceOnUse" x1="220.6235" y1="-10388.0205" x2="1228.9685" y2="-10388.0205" gradientTransform="matrix(1 0 0 1 0 10929.8633)">
						<stop  offset="0" style="stop-color:#FFFFFF"/>
						<stop  offset="0.8351" style="stop-color:#00ADEB"/>
					</linearGradient>
					<path class="st3" d="M567.4,472.7C703.9,332.1,889.4,258,981.1,307.5c22.4,12.2,37.1,31.1,43.2,56.4c9.9,42.2-4,99.8-38,160.3
						H523.2C536.5,506.9,551.1,489.5,567.4,472.7 M1228.3,324.3c-3.2-35.3-19.6-65-47.4-85.2c-108.7-80.4-370.9-13.5-596.2,152.7
						c-57.8,42.6-107.1,87.3-147.1,132.3H259.8l-39.2,51.6h175.6c-43.6,60.6-67.7,119.4-67.7,170.1c0,41.5,16.8,76,48.2,99.1
						c67.7,50.2,200.3,43.6,354.5-17.9l21.1-8.3l-38.3-43.6l-9.7,4.5c-90,42.3-170.2,51.2-219.6,24.7c-25.6-13.8-41-36.4-45.4-67.1
						c-6.3-45.2,10.9-102.5,47.3-161.6h613c0,0,5.8,0.2,10.1-4.8c4.5-4.7,4.5-4.7,4.5-4.7C1194,477.7,1234.6,392,1228.3,324.3"/>
					
						<linearGradient id="SVGID_00000073711693655910597780000014420197748567694496_" gradientUnits="userSpaceOnUse" x1="662.3345" y1="-10408.0684" x2="953.351" y2="-10408.0684" gradientTransform="matrix(1 0 0 1 0 10929.8633)">
						<stop  offset="0" style="stop-color:#FFFFFF"/>
						<stop  offset="1" style="stop-color:#00ADEB"/>
					</linearGradient>
					<path style="fill:url(#SVGID_00000073711693655910597780000014420197748567694496_);" d="M952.8,427.7
						c6.6,46.4-52.6,126-132.7,178.1c-79.8,52-150.2,56.7-157.2,10.2c-7-46.3,52.5-126,132.5-178.2
						C875.4,385.8,945.8,381,952.8,427.7"/>
					<path class="st0" d="M900.3,431c2.3,15.4-17.4,42-44.1,59.4c-26.6,17.4-50.2,18.9-52.5,3.5c-2.2-15.5,17.5-42.2,44.3-59.4
						C874.7,417.2,898.2,415.7,900.3,431"/>
					<path class="st5" d="M1699.6,681.8h-106.4c-17.1,0-43,14.5-56.7,31.8l-83,106c-14,17.6-39.2,31.7-56.7,31.7H1333
						c-17.6,0-20.7-14-7-31.7l116.9-148.6c13.3-17,38.8-31.7,56.4-31.7h233.2c17.7,0,24.5,9.7,15.1,21.6
						C1738.6,672.8,1717.2,681.8,1699.6,681.8"/>
					<path class="st5" d="M2005,681.8h-84.8c-17.1,0-39.6,9.7-48.2,21.4c-9.2,11.7-2.5,21,15.1,21h85c17.6,0,39-9.4,48-21
						C2029.5,691.7,2022.5,681.8,2005,681.8 M1977.7,851.6H1660c-17.7,0-20.9-14-6.9-31.7l116.7-148.7c13.6-17,39.3-31.7,56.7-31.7
						h317.7c17.6,0,21,14.7,7.4,31.7l-50.2,63.9c-13.8,17.5-39.6,31.5-56.7,31.5h-190.8c-17.5,0-39.4,9.7-48.2,21.6
						c-9.5,11.1-2.5,21.1,15.2,21.1h190.7c17.5,0,23.8,9.7,15.1,21.6C2017.7,841.9,1995.2,851.6,1977.7,851.6"/>
					<path class="st5" d="M2347.4,766.6h-84.6c-17.6,0-39.4,9.7-48.8,21.6c-9,11.1-2.5,21.1,15.3,21.1h85c17.4,0,39.2-9.7,48.4-21.1
						C2371.6,776.4,2364.9,766.6,2347.4,766.6 M2407.8,851.6h-317.7c-17.5,0-20.5-14-6.9-31.7l50.2-64
						c13.6-17.5,39.1-31.7,56.3-31.7h190.6c17.6,0,39.1-9.4,48.8-21c9-11.5,2.5-21.4-15.2-21.4h-190.7c-17.3,0-24.7-9.2-15.2-20.9
						c9-11.7,30.5-21.6,48.2-21.6h318.1c17.1,0,20.7,14.7,7,31.7l-117,148.7C2451.2,837.5,2425.6,851.6,2407.8,851.6"/>
					<path class="st5" d="M2851.1,713.8c13.6-17.3,10.6-31.8-6.9-31.8h-84.8c-17.7,0-43.1,14.5-56.7,31.8l-50.1,63.7
						c-13.8,17.5-10.7,31.7,6.7,31.7h84.8c17.7,0,43.1-14.2,56.7-31.7L2851.1,713.8 M2838,851.6h-317.7c-17.7,0-20.5-14-6.8-31.7
						l117-148.7c13.3-17,38.9-31.7,56.3-31.7h190.7c17.7,0,43.3-14,57.2-31.7l16.3-21c13.6-17.6,39.4-32.2,56.8-32.2h63.4
						c17.5,0,20.7,14.6,6.9,32.2l-182.7,233C2881.4,837.5,2855.5,851.6,2838,851.6"/>
					<path class="st5" d="M3295.4,681.8h-85c-16.9,0-39.1,9.7-48.2,21.4c-8.8,11.7-2.1,21,15.4,21h84.9c17.5,0,39.2-9.4,47.9-21
						C3320.2,691.7,3313.2,681.8,3295.4,681.8 M3268.2,851.6h-317.8c-17.4,0-20.5-14-6.9-31.7L3060,671.2
						c13.6-17,39.1-31.7,56.7-31.7h318.1c17.5,0,20.7,14.7,7.1,31.7l-50,63.9c-13.6,17.5-39.8,31.5-56.7,31.5h-191
						c-17.7,0-39.4,9.7-48.2,21.6c-9.4,11.1-2.3,21.1,15.2,21.1h190.7c17.6,0,24.1,9.7,14.9,21.6
						C3308,841.9,3285.8,851.6,3268.2,851.6"/>
					<path class="st5" d="M3747.2,681.8h-106.2c-17.1,0-43.1,14.5-56.7,31.8l-83,106.1c-14,17.6-39.2,31.7-56.7,31.7h-63.9
						c-17.7,0-20.5-14-6.9-31.7l116.6-148.7c13.6-17,39.2-31.7,56.7-31.7h233.1c17.6,0,24.7,9.7,15.2,21.6
						C3786.1,672.8,3764.9,681.8,3747.2,681.8"/>
				</g>
				<g>
					<path class="st1" d="M2056.1,272.2l-79.8-129.2h-57.7v185.2h57.3V199.2l80.2,129.1h57.2V143.1H2056L2056.1,272.2z
						 M2510.3,205.5v-18.3h-30.1v-25h-55.7v25h-30.2v18.3h30.2v122.9h55.8l-0.1-122.9H2510.3L2510.3,205.5z M2145.2,328.3h55.6
						V205.2l-55.6-0.1V328.3z M2145,180.9h55.8V143H2145V180.9z M3121,196.7c-45,0-81.4,30.9-81.4,69.1c0,38.2,36.4,69.1,81.4,69.1
						c45,0,81.4-30.9,81.4-69.1S3166,196.7,3121,196.7 M3143.3,291.8c0,19.6-11.5,27.8-22.7,27.8c-11.1,0-22.7-8.2-22.7-27.8v-26.6
						c0,0,0-18.2,0-25.7c0-19.5,11.6-27.7,22.7-27.7c11,0,22.7,8.2,22.7,27.7c0,7.5,0,21.3,0.1,26.2
						C3143.4,266,3143.3,284.4,3143.3,291.8 M2966.5,211.2c-9-5-18.3-9.7-31.5-10.9c-40.2-3.5-70.8,31.9-70.8,64.5
						c0,42.8,33,58.7,38,61c18.8,8.8,42.8,8.8,64.1-4.6c0,1.2,0,7.2,0,7.2h55V143.1h-54.8L2966.5,211.2L2966.5,211.2z M2966.9,266
						v21.9c0,19-13.1,24-21.9,24c-8.9,0-21.9-5-21.9-24v-22v-22c0-19.1,13-23.9,21.9-23.9c8.7,0,21.8,4.8,21.8,23.9
						C2966.9,250.6,2966.9,266,2966.9,266 M2331.2,199.5c-18.4,0.5-33.8,8.5-44.4,18.5c-0.1-3.1,0-12.9,0-12.9l-55.3,0.1l0.1,123.1
						h55.2c0,0-0.1-75.6-0.1-80.9c0-10.6,11.3-22.6,26.5-22.6c15.2,0,25.5,11.9,25.5,22.6v80.9h55.4c0,0-0.1-58.3,0-67
						C2394.3,212.5,2352,198.9,2331.2,199.5 M2783.8,199.5c-18.4,0.5-33.8,8.5-44.5,18.5c-0.1-3.1,0-12.9,0-12.9l-55.2,0.1
						l-0.1,123.1h55.3c0,0-0.1-75.6-0.1-80.9c0-10.6,11.3-22.6,26.5-22.6c15.2,0,25.5,11.9,25.5,22.6v80.9h55.3c0,0-0.1-58.3,0-67
						C2846.8,212.5,2804.5,198.9,2783.8,199.5 M2667.2,267.2c0-38.2-36.8-69.8-82.2-69.8c-45.3,0-82,30.9-82,69.1s36.7,69.1,82,69.1
						c37.6,0,69.3-21.5,79.1-50.5h-55.5c0,0,0.1,0.6,0.1,7.5c0,22.5-14.8,27.6-23,27.6s-23.3-5-23.3-27.6c0-6.8,0.1-25.5,0.1-25.5
						L2667.2,267.2 M2566,223.9c4.4-7.6,12.3-11.1,19.6-11.2c7.3,0.1,15.3,3.6,19.6,11.2c3.4,6.2,3.7,13.4,3.6,24.2h-46.5
						C2562.2,237.3,2562.4,230,2566,223.9 M3224.5,166c0-6.1-4.4-9.2-13.4-9.2h-12.4v31.5h7.7v-12.9h3.8l6,12.9h8.6l-7.1-14.1
						C3222,173.2,3224.5,170.1,3224.5,166 M3210.1,170.9h-3.8v-9.2h3.3c4.6,0,7,1.4,7,4.7C3216.6,169.6,3214.5,170.9,3210.1,170.9
						 M3210.4,144.5c-15.8,0-28.6,12.7-28.6,28.5s12.8,28.5,28.6,28.5c15.7,0,28.4-12.7,28.4-28.5S3226.1,144.5,3210.4,144.5
						 M3210.4,196c-12.7,0-23.1-10.2-23.1-23c0-12.7,10.2-23,23.1-23c12.7,0,23,10.3,23,23C3233.4,185.7,3223.1,196,3210.4,196
						 M3148.2,39.3H1968.7c-124.7-0.3-208.6,89.4-208.6,197s83.7,196.3,208.9,196.4h1179c125.2-0.1,208.8-88.7,208.8-196.4
						C3356.9,128.8,3273,39.1,3148.2,39.3 M3147.7,384.4H1969.3c-99.5,0.4-160-66.4-160-148.4s60.8-148.2,160-148.4h1178.3
						c99.1,0.2,160,66.4,160,148.4S3247.1,384.8,3147.7,384.4"/>
				</g>
			</g>
		</g>
	</g>
</g>
</svg>
