<?xml version="1.0" encoding="utf-8"?>
<!-- Generator: Adobe Illustrator 26.3.1, SVG Export Plug-In . SVG Version: 6.00 Build 0)  -->
<svg version="1.1" id="Layer_1" xmlns="http://www.w3.org/2000/svg" xmlns:xlink="http://www.w3.org/1999/xlink" x="0px" y="0px"
	 viewBox="0 0 3839 1275.4" style="enable-background:new 0 0 3839 1275.4;" xml:space="preserve">
<style type="text/css">
	.st0{fill:#FFFFFF;}
	.st1{fill:url(#SVGID_1_);}
	.st2{fill:url(#SVGID_00000139292090997671353890000010996773512479596732_);}
	.st3{fill:url(#SVGID_00000181080944035345208030000016941485668512520589_);}
	.st4{fill:url(#SVGID_00000068658508320646382810000011995697821683651732_);}
	.st5{fill:url(#SVGID_00000034782842421637876780000000130452112546803641_);}
</style>
<g>
	<g>
		<g>
			<path class="st0" d="M2354.2,468.1c-8.2,0-14.8-6.6-14.8-14.8V218.1c0-8.2,6.6-14.8,14.8-14.8h689.4V91.2h-689.4
				c-8.2,0-14.8-6.6-14.8-14.8V29.6c0-8.2,6.6-14.8,14.8-14.8h751c8.2,0,14.8,6.6,14.8,14.8v235c0,8.2-6.6,14.8-14.8,14.8h-689.4
				v173.9c0,8.2-6.6,14.8-14.8,14.8H2354.2z"/>
			<path class="st0" d="M3105.2,29.6v8.9v217.3v8.9h-8.9H2401v179.8v8.9h-8.9h-29h-8.9v-8.9V227v-8.9h8.9h695.3V76.4h-695.3h-8.9
				v-8.9v-29v-8.9h8.9h733.1H3105.2L3105.2,29.6 M3105.2,0.1L3105.2,0.1h-9h-733.1h-8.9c-16.3,0-29.5,13.2-29.5,29.5v8.9v29v8.9
				c0,16.3,13.2,29.5,29.5,29.5h8.9h665.8v82.6h-665.8h-8.9c-16.3,0-29.5,13.2-29.5,29.5v8.9v217.5v8.9c0,16.3,13.2,29.5,29.5,29.5
				h8.9h29h8.9c16.3,0,29.5-13.2,29.5-29.5v-8.9V294.2h665.8h8.9c16.3,0,29.5-13.2,29.5-29.5v-8.9V38.5v-8.9
				C3134.7,13.3,3121.5,0.1,3105.2,0.1L3105.2,0.1z"/>
		</g>
		<g>
			<path class="st0" d="M733.9,468.1c-8.2,0-14.8-6.6-14.8-14.8V218.1c0-8.2,6.6-14.8,14.8-14.8h689.6V91.1H733.9
				c-8.2,0-14.8-6.6-14.8-14.8V29.5c0-8.2,6.6-14.8,14.8-14.8H1485c8.2,0,14.8,6.6,14.8,14.8v235.1c0,8.2-6.6,14.8-14.8,14.8H795.5
				v173.9c0,8.2-6.6,14.8-14.8,14.8H733.9z"/>
			<path class="st0" d="M1485,29.5v8.9v217.4v8.9h-8.9H780.7v179.8v8.9h-8.9h-29h-8.9v-8.9V227v-8.9h8.9h695.5V76.3H742.8h-8.9v-8.9
				v-29v-8.9h8.9H1476H1485L1485,29.5 M1485,0L1485,0h-9H742.8h-8.9c-16.3,0-29.5,13.2-29.5,29.5v8.9v29v8.9
				c0,16.3,13.2,29.5,29.5,29.5h8.9h666v82.7h-666h-8.9c-16.3,0-29.5,13.2-29.5,29.5v8.9v217.5v8.9c0,16.3,13.2,29.5,29.5,29.5h8.9
				h29h8.9c16.3,0,29.5-13.2,29.5-29.5v-8.9V294.2h665.9h8.9c16.3,0,29.5-13.2,29.5-29.5v-8.9V38.4v-8.9
				C1514.5,13.2,1501.3,0,1485,0L1485,0z"/>
		</g>
		<g>
			<path class="st0" d="M1467.1,468c-8.2,0-14.8-6.6-14.8-14.8v-46.8c0-8.2,6.6-14.8,14.8-14.8h359.5V29.5c0-8.2,6.6-14.8,14.8-14.8
				h422.2c8.2,0,14.9,6.6,14.9,14.8v46.7c0,8.2-6.6,14.8-14.8,14.8h-359.4v362.2c0,8.2-6.6,14.8-14.8,14.8H1467.1z"/>
			<path class="st0" d="M2263.6,29.5v8.9v28.9v8.9h-8.9h-365.3v368.1v8.9h-8.9h-404.7h-8.9v-8.9v-29v-8.9h8.9h365.4v-368v-8.9h8.9
				h404.5H2263.6L2263.6,29.5 M2263.6,0L2263.6,0h-9h-404.5h-8.9c-16.3,0-29.5,13.2-29.5,29.5v8.9v338.5h-335.9h-8.9
				c-16.3,0-29.5,13.2-29.5,29.5v8.9v29v8.9c0,16.3,13.2,29.5,29.5,29.5h8.9h404.7h8.9c16.3,0,29.5-13.2,29.5-29.5v-8.9V105.7h335.8
				h8.9c16.3,0,29.5-13.2,29.5-29.5v-8.9V38.4v-8.9C2293.2,13.2,2279.9,0,2263.6,0L2263.6,0z"/>
		</g>
		<g>
			<path class="st0" d="M2375.4,1259.6c-8.2,0-14.8-6.6-14.8-14.8V948.6c0-32.1-6.1-78.1-34.9-114.8c-33.4-42.5-90.3-64-169.2-64
				s-135.9,21.5-169.2,64c-28.8,36.7-34.9,82.7-34.9,114.8v296.3c0,8.2-6.6,14.8-14.8,14.8h-142.8c-8.2,0-14.8-6.6-14.8-14.8V948.6
				c0-40.3,7.7-79.9,22.9-117.6c16-39.5,39.5-74.8,70-104.9c68.3-67.5,166.3-103.1,283.4-103.1c117,0,215.1,35.6,283.7,103
				c30.4,30,54,65.3,70,104.9c15.2,37.8,22.8,77.4,22.8,117.7v296.3c0,8.2-6.6,14.8-14.8,14.8H2375.4z"/>
			<path class="st0" d="M2156.4,637.7c113.1,0,207.6,34.2,273.3,98.8c28.9,28.6,51.4,62.2,66.7,99.9c14.4,35.8,21.8,73.6,21.8,112.1
				v96.3V1236v8.9h-8.9h-125h-8.9v-8.9v-191.1v-96.3c0-72.3-28.5-193.6-218.9-193.6s-218.9,121.3-218.9,193.6v96.3V1236v8.9h-8.9
				h-125h-8.9v-8.9v-191.1v-96.3c0-38.5,7.4-76.2,21.9-112c15.3-37.7,37.7-71.3,66.7-99.9C1948.8,671.9,2043.3,637.7,2156.4,637.7
				 M2156.4,608.2c-121.1,0-222.7,37.1-293.8,107.4c-31.9,31.6-56.6,68.5-73.3,109.9c-15.9,39.5-24,80.9-24,123.1v96.3V1236v8.9
				c0,16.3,13.2,29.5,29.5,29.5h8.9h125h8.9c16.3,0,29.5-13.2,29.5-29.5v-8.9v-191.1v-96.3c0-29.8,5.5-72.3,31.7-105.6
				c30.4-38.7,83.5-58.4,157.6-58.4c74.2,0,127.2,19.6,157.6,58.4c26.2,33.4,31.7,75.9,31.7,105.6v96.3V1236v8.9
				c0,16.3,13.2,29.5,29.5,29.5h8.9h125h8.9c16.3,0,29.5-13.2,29.5-29.5v-8.9v-191.1v-96.3c0-42.2-8-83.6-23.9-123.1
				c0,0,0-0.1,0-0.1c-16.8-41.5-41.5-78.5-73.3-109.9c0,0,0,0,0,0C2379,645.3,2277.3,608.2,2156.4,608.2L2156.4,608.2z"/>
		</g>
		<g>
			<path class="st0" d="M1190.6,1259.6c-8.2,0-14.8-6.6-14.8-14.8V948.6c0-32.1-6.1-78.1-34.9-114.8c-33.4-42.5-90.3-64-169.2-64
				s-135.9,21.5-169.2,64c-28.8,36.7-34.9,82.7-34.9,114.8v296.3c0,8.2-6.6,14.8-14.8,14.8H610.1c-8.2,0-14.8-6.6-14.8-14.8V948.6
				c0-32.1-6.1-78.1-34.9-114.8c-33.4-42.5-90.3-64-169.2-64c-78.9,0-135.9,21.5-169.2,64c-28.8,36.7-34.9,82.7-34.9,114.8v296.3
				c0,8.2-6.6,14.8-14.8,14.8H29.5c-8.2,0-14.8-6.6-14.8-14.8V948.6c0-40.4,7.7-80,22.9-117.7c16-39.5,39.5-74.8,70-104.9
				c68.4-67.5,166.4-103.1,283.4-103.1c69,0,131.5,12.3,185.8,36.6c40.6,18.4,75.8,43.1,104.7,73.6c29-30.6,64.2-55.2,104.7-73.5
				c54.1-24.3,116.5-36.7,185.6-36.7c117.1,0,215.1,35.6,283.4,103c30.3,29.8,53.9,65.1,70,104.9c15.2,37.5,22.8,77.1,22.8,117.7
				v296.3c0,8.2-6.6,14.8-14.8,14.8H1190.6z"/>
			<path class="st0" d="M391.1,637.6c67.1,0,127.4,11.9,179.8,35.3c43.9,19.9,81.1,47.5,110.8,82.2c29.6-34.8,66.9-62.3,110.8-82.1
				c52.1-23.4,112.4-35.3,179.5-35.3c113.1,0,207.6,34.2,273,98.8c29,28.6,51.4,62.2,66.7,99.9c14.5,35.8,21.8,73.6,21.8,112.1v96.3
				V1236v8.9h-8.9h-125h-8.9v-8.9v-191.1v-96.3c0-72.3-28.5-193.6-218.9-193.6S752.8,876.3,752.8,948.6v96.3V1236v8.9H744h-125h-8.9
				v-8.9v-191.1v-96.3c0-72.3-28.5-193.6-218.9-193.6S172.3,876.3,172.3,948.6v96.3V1236v8.9h-8.9h-125h-8.9v-8.9v-191.1v-96.3
				c0-38.5,7.4-76.3,21.9-112.1c15.3-37.7,37.7-71.3,66.7-99.9C183.5,671.9,278,637.6,391.1,637.6 M391.1,608.1
				c-121,0-222.6,37.1-293.8,107.4c0,0,0,0,0,0C65.4,747.1,40.7,784,24,825.3C8.1,864.8,0,906.3,0,948.6v96.3V1236v8.9
				c0,16.3,13.2,29.5,29.5,29.5h8.9h125h8.9c16.3,0,29.5-13.2,29.5-29.5v-8.9v-191.1v-96.3c0-29.8,5.5-72.3,31.7-105.6
				c30.4-38.7,83.5-58.4,157.6-58.4s127.2,19.6,157.6,58.4c26.2,33.4,31.7,75.9,31.7,105.6v96.3V1236v8.9
				c0,16.3,13.2,29.5,29.5,29.5h8.9h125h8.9c16.3,0,29.5-13.2,29.5-29.5v-8.9v-191.1v-96.3c0-29.8,5.5-72.3,31.7-105.6
				c30.4-38.7,83.5-58.4,157.6-58.4s127.2,19.6,157.6,58.4c26.2,33.4,31.7,75.9,31.7,105.6v96.3V1236v8.9
				c0,16.3,13.2,29.5,29.5,29.5h8.9h125h8.9c16.3,0,29.5-13.2,29.5-29.5v-8.9v-191.1v-96.3c0-42.5-8-83.9-23.9-123.2
				c-16.9-41.7-41.6-78.7-73.3-109.9c-71.1-70.1-172.7-107.2-293.7-107.2c-71.2,0-135.6,12.8-191.6,37.9c-37.5,16.9-70.5,39-98.6,66
				c-28.1-27-61.1-49.2-98.6-66.1c0,0-0.1,0-0.1-0.1C526.7,620.9,462.1,608.1,391.1,608.1L391.1,608.1z"/>
		</g>
		<g>
			<path class="st0" d="M1490.5,769.9c-8.2,0-14.8-6.6-14.8-14.8V637.7c0-8.2,6.6-14.8,14.8-14.8h142.8c8.2,0,14.8,6.6,14.8,14.8
				v117.4c0,8.2-6.6,14.8-14.8,14.8H1490.5z"/>
			<path class="st0" d="M1633.3,637.7v8.9v99.6v8.9h-8.9h-125h-8.9v-8.9v-99.6v-8.9h8.9h125H1633.3 M1633.3,608.2h-8.9h-125h-8.9
				c-16.3,0-29.5,13.2-29.5,29.5v8.9v99.6v8.9c0,16.3,13.2,29.5,29.5,29.5h8.9h125h8.9c16.3,0,29.5-13.2,29.5-29.5v-8.9v-99.6v-8.9
				C1662.8,621.4,1649.6,608.2,1633.3,608.2L1633.3,608.2z"/>
		</g>
		<g>
			<path class="st0" d="M1490.5,1259.6c-8.2,0-14.8-6.6-14.8-14.8V842.6c0-8.2,6.6-14.8,14.8-14.8h142.8c8.2,0,14.8,6.6,14.8,14.8
				v402.2c0,8.2-6.6,14.8-14.8,14.8H1490.5z"/>
			<path class="st0" d="M1633.3,842.6v8.9V1236v8.9h-8.9h-125h-8.9v-8.9V851.5v-8.9h8.9h125H1633.3 M1633.3,813.1h-8.9h-125h-8.9
				c-16.3,0-29.5,13.2-29.5,29.5v8.9V1236v8.9c0,16.3,13.2,29.5,29.5,29.5h8.9h125h8.9c16.3,0,29.5-13.2,29.5-29.5v-8.9V851.5v-8.9
				C1662.8,826.3,1649.6,813.1,1633.3,813.1L1633.3,813.1z"/>
		</g>
		<g>
			<path class="st0" d="M2676.2,769.9c-8.2,0-14.8-6.6-14.8-14.8V637.7c0-8.2,6.6-14.8,14.8-14.8h142.8c8.2,0,14.8,6.6,14.8,14.8
				v117.4c0,8.2-6.6,14.8-14.8,14.8H2676.2z"/>
			<path class="st0" d="M2818.9,637.7v8.9v99.6v8.9h-8.9h-125h-8.9v-8.9v-99.6v-8.9h8.9h125H2818.9 M2818.9,608.2h-8.9h-125h-8.9
				c-16.3,0-29.5,13.2-29.5,29.5v8.9v99.6v8.9c0,16.3,13.2,29.5,29.5,29.5h8.9h125h8.9c16.3,0,29.5-13.2,29.5-29.5v-8.9v-99.6v-8.9
				C2848.5,621.4,2835.3,608.2,2818.9,608.2L2818.9,608.2z"/>
		</g>
		<g>
			<path class="st0" d="M2676.2,1259.6c-8.2,0-14.8-6.6-14.8-14.8V842.6c0-8.2,6.6-14.8,14.8-14.8h142.8c8.2,0,14.8,6.6,14.8,14.8
				v402.2c0,8.2-6.6,14.8-14.8,14.8H2676.2z"/>
			<path class="st0" d="M2818.9,842.6v8.9V1236v8.9h-8.9h-125h-8.9v-8.9V851.5v-8.9h8.9h125H2818.9 M2818.9,813.1h-8.9h-125h-8.9
				c-16.3,0-29.5,13.2-29.5,29.5v8.9V1236v8.9c0,16.3,13.2,29.5,29.5,29.5h8.9h125h8.9c16.3,0,29.5-13.2,29.5-29.5v-8.9V851.5v-8.9
				C2848.5,826.3,2835.3,813.1,2818.9,813.1L2818.9,813.1z"/>
		</g>
		<g>
			<path class="st0" d="M2969.3,1260.6c-8.2,0-14.8-6.6-14.8-14.8v-117.4c0-8.2,6.6-14.8,14.8-14.8h129.9
				c78.9,0,135.9-21.5,169.2-64c28.8-36.7,34.9-82.7,34.9-114.8V802.7c0-40.3,7.7-79.9,22.9-117.6c16-39.5,39.5-74.8,70-104.9
				c68.3-67.5,166.3-103.1,283.4-103.1h129.9c8.2,0,14.8,6.6,14.8,14.8v117.3c0,8.2-6.6,14.8-14.8,14.8h-129.9
				c-78.9,0-135.9,21.5-169.2,64c-28.8,36.7-34.9,82.7-34.9,114.8V935c0,40.3-7.7,79.9-22.9,117.6c-16,39.5-39.5,74.8-70,104.9
				c-68.3,67.5-166.3,103.1-283.4,103.1H2969.3z"/>
			<path class="st0" d="M3809.5,491.8v8.9v99.5v8.9h-8.9h-121c-190.4,0-218.9,121.3-218.9,193.6V935c0,38.5-7.4,76.2-21.9,112
				c-15.3,37.7-37.7,71.3-66.7,99.9c-65.5,64.7-159.9,98.9-273,98.9h-121h-8.9v-8.9v-99.6v-8.9h8.9h121
				c190.4,0,218.9-121.3,218.9-193.6V802.7c0-38.5,7.4-76.2,21.9-112c15.3-37.7,37.7-71.3,66.7-99.9c65.5-64.7,159.9-98.9,273-98.9
				h121H3809.5 M3809.5,462.3h-8.9h-121c-121.1,0-222.7,37.1-293.8,107.4c-31.9,31.6-56.6,68.5-73.3,109.9
				c-15.9,39.5-24,80.9-24,123.1v132.2c0,29.8-5.5,72.3-31.7,105.6c-30.4,38.7-83.5,58.4-157.6,58.4h-121h-8.9
				c-16.3,0-29.5,13.2-29.5,29.5v8.9v99.6v8.9c0,16.3,13.2,29.5,29.5,29.5h8.9h121c121.1,0,222.7-37.1,293.8-107.4
				c31.9-31.6,56.6-68.5,73.3-109.9c15.9-39.5,24-80.9,24-123.1V802.7c0-29.8,5.5-72.3,31.7-105.6c30.4-38.7,83.5-58.4,157.6-58.4
				h121h8.9c16.3,0,29.5-13.2,29.5-29.5v-8.9v-99.5v-8.9C3839,475.5,3825.8,462.3,3809.5,462.3L3809.5,462.3z"/>
		</g>
	</g>
	<g>
		<g>
			<g>
				<polygon points="2358.6,448.7 2358.6,222.4 3062.8,222.4 3062.8,71.9 2358.6,71.9 2358.6,34.1 3100.6,34.1 3100.6,260.2 
					2396.4,260.2 2396.4,448.7 				"/>
				<path class="st0" d="M3096.2,38.5v217.4h-704.1v188.5h-29V226.9h704.1V67.4h-704.1V38.5H3096.2 M3105.1,29.6h-8.9h-733.1h-8.9
					v8.9v29v8.9h8.9h695.3v141.7h-695.3h-8.9v8.9v217.5v8.9h8.9h29h8.9v-8.9V264.7h695.3h8.9v-8.9V38.5L3105.1,29.6L3105.1,29.6z"/>
			</g>
			<g>
				<polygon points="738.4,448.7 738.4,222.4 1442.8,222.4 1442.8,71.8 738.4,71.8 738.4,34 1480.5,34 1480.5,260.2 776.2,260.2 
					776.2,448.7 				"/>
				<path class="st0" d="M1476,38.4v217.5H771.8v188.5h-29V226.9h704.3V67.3H742.8V38.4H1476 M1484.9,29.5h-8.9H742.8h-8.9v8.9v29
					v8.9h8.9h695.5v141.8H742.8h-8.9v8.9v217.5v8.9h8.9h29h8.9v-8.9V264.7h695.4h8.9v-8.9V38.4L1484.9,29.5L1484.9,29.5z"/>
			</g>
			<g>
				<polygon points="1471.6,448.7 1471.6,410.9 1845.9,410.9 1845.9,34 2259.1,34 2259.1,71.8 1885,71.8 1885,448.7 				"/>
				<path class="st0" d="M2254.7,38.4v29h-374.1v376.9H1476v-29h374.2V38.4H2254.7 M2263.5,29.5h-8.9h-404.5h-8.9v8.9v368h-365.4
					h-8.9v8.9v29v8.9h8.9h404.7h8.9v-8.9V76.2h365.3h8.9v-8.9V38.4L2263.5,29.5L2263.5,29.5z"/>
			</g>
		</g>
		<g>
			<g>
				
					<linearGradient id="SVGID_1_" gradientUnits="userSpaceOnUse" x1="632.8976" y1="12026.7979" x2="632.8976" y2="12625.1465" gradientTransform="matrix(1 0 0 -1 1523.5 13267.3096)">
					<stop  offset="0" style="stop-color:#48407D"/>
					<stop  offset="1" style="stop-color:#6A93C9"/>
				</linearGradient>
				<path class="st1" d="M2379.6,1240.4V948.6c0-73.9-29-198-223.2-198c-194.3,0-223.2,124.1-223.2,198v291.8h-133.9V948.6
					c0-38,7.2-75.1,21.5-110.4c15.1-37.1,37.1-70.3,65.7-98.5c64.7-63.8,158-97.6,270-97.6c112,0,205.3,33.8,270,97.6
					c28.6,28.2,50.6,61.3,65.7,98.5c14.3,35.2,21.5,72.5,21.5,110.5v291.8L2379.6,1240.4L2379.6,1240.4z"/>
				<path class="st0" d="M2156.4,646.6c241.4,0,352.7,156.1,352.7,302.1v96.3v191.1h-125V1045v-96.3c0-105.5-56.5-202.3-227.6-202.3
					s-227.6,96.8-227.6,202.3v96.3v191.1h-125V1045v-96.3C1803.7,802.7,1915.1,646.6,2156.4,646.6 M2156.4,637.7
					c-113.1,0-207.6,34.2-273,98.9c-28.9,28.7-51.4,62.2-66.7,99.9c-14.5,35.8-21.9,73.6-21.9,112v96.3V1236v8.9h8.9h125h8.9v-8.9
					v-191.1v-96.3c0-72.3,28.5-193.6,218.9-193.6s218.9,121.3,218.9,193.6v96.3V1236v8.9h8.9h125h8.9v-8.9v-191.1v-96.3
					c0-38.6-7.4-76.3-21.8-112.1c-15.3-37.7-37.7-71.4-66.7-99.9C2364,671.9,2269.5,637.7,2156.4,637.7L2156.4,637.7z"/>
			</g>
			<g>
				
					<linearGradient id="SVGID_00000041257792511891069000000005490099648471513004_" gradientUnits="userSpaceOnUse" x1="-842.1981" y1="12026.8965" x2="-842.1981" y2="12625.2451" gradientTransform="matrix(1 0 0 -1 1523.5 13267.3096)">
					<stop  offset="0" style="stop-color:#48407D"/>
					<stop  offset="1" style="stop-color:#6A93C9"/>
				</linearGradient>
				<path style="fill:url(#SVGID_00000041257792511891069000000005490099648471513004_);" d="M1194.7,1240.4V948.6
					c0-73.9-29-198-223.2-198c-194.3,0-223.2,124.1-223.2,198v291.8H614.4V948.6c0-73.9-29-198-223.2-198
					c-194.3,0-223.2,124.1-223.2,198v291.8H34V948.6c0-38,7.2-75.1,21.5-110.5c15.1-37.1,37.1-70.3,65.7-98.5
					c64.7-63.8,158-97.6,269.9-97.6c66.4,0,126.1,11.7,177.6,35c45,20.3,82.9,48.9,112.6,85c29.7-36.1,67.6-64.7,112.6-85
					c51.5-23.2,111.3-35,177.7-35c112,0,205.3,33.8,269.9,97.6c28.6,28.2,50.6,61.3,65.7,98.5c14.3,35.2,21.5,72.5,21.5,110.5v291.8
					H1194.7z"/>
				<path class="st0" d="M391.1,646.5c138.2,0,233.7,51.4,290.2,122.6c56.4-71.2,151.9-122.5,290.3-122.5
					c241.3,0,352.7,156.1,352.6,302.1v96.3v191.1h-125V1045v-96.3c0-105.5-56.5-202.3-227.6-202.3s-227.6,96.8-227.6,202.3v96.3
					v191.1h-125V1045v-96.3c0-105.5-56.5-202.3-227.6-202.3S163.4,843,163.4,948.6v96.3V1236h-125v-191.1v-96.3
					C38.4,802.6,149.8,646.6,391.1,646.5 M391.1,637.6L391.1,637.6L391.1,637.6c-113.1,0-207.6,34.3-273,98.9
					c-28.9,28.7-51.4,62.2-66.7,99.9c-14.5,35.8-21.9,73.6-21.9,112.1v96.3V1236v8.9h8.9h125h8.9v-8.9v-191.1v-96.3
					c0-72.3,28.5-193.6,218.9-193.6s218.9,121.3,218.9,193.6v96.3V1236v8.9h8.9h125h8.9v-8.9v-191.1v-96.3
					c0-72.3,28.5-193.6,218.9-193.6s218.9,121.3,218.9,193.6v96.3V1236v8.9h8.9h125h8.9v-8.9v-191.1v-96.3
					c0-38.6-7.3-76.3-21.8-112.1c-15.3-37.7-37.6-71.4-66.7-99.9c-65.5-64.6-159.9-98.8-273-98.8c-67.1,0-127.4,11.9-179.5,35.3
					c-43.9,19.8-81.1,47.4-110.8,82.1c-29.6-34.8-66.9-62.3-110.8-82.2C518.5,649.5,458.1,637.6,391.1,637.6L391.1,637.6z"/>
			</g>
			<g>
				<g>
					<g>
						
							<linearGradient id="SVGID_00000139283780290086787970000006931827570305686680_" gradientUnits="userSpaceOnUse" x1="38.3892" y1="12026.9951" x2="38.3892" y2="12625.1465" gradientTransform="matrix(1 0 0 -1 1523.5 13267.3096)">
							<stop  offset="0" style="stop-color:#48407D"/>
							<stop  offset="1" style="stop-color:#6A93C9"/>
						</linearGradient>
						<path style="fill:url(#SVGID_00000139283780290086787970000006931827570305686680_);" d="M1494.9,1240.3V847.1h133.9v393.3
							H1494.9z M1494.9,750.7V642.2h133.9v108.5H1494.9z"/>
						<path class="st0" d="M1624.4,646.6v99.6h-125v-99.6H1624.4 M1624.4,851.5V1236h-125V851.5H1624.4 M1633.3,637.7h-8.9h-125
							h-8.9v8.9v99.6v8.9h8.9h125h8.9v-8.9v-99.6V637.7L1633.3,637.7z M1633.3,842.6h-8.9h-125h-8.9v8.9V1236v8.9h8.9h125h8.9v-8.9
							V851.5V842.6L1633.3,842.6z"/>
					</g>
				</g>
			</g>
			<g>
				<g>
					<g>
						
							<linearGradient id="SVGID_00000064313921946122142690000000864552420777086626_" gradientUnits="userSpaceOnUse" x1="1224.1567" y1="12026.9951" x2="1224.1567" y2="12625.1465" gradientTransform="matrix(1 0 0 -1 1523.5 13267.3096)">
							<stop  offset="0" style="stop-color:#48407D"/>
							<stop  offset="1" style="stop-color:#6A93C9"/>
						</linearGradient>
						<path style="fill:url(#SVGID_00000064313921946122142690000000864552420777086626_);" d="M2680.7,1240.3V847.1h133.9v393.3
							H2680.7z M2680.7,750.7V642.2h133.9v108.5H2680.7z"/>
						<path class="st0" d="M2810.2,646.6v99.6h-125v-99.6H2810.2 M2810.2,851.5V1236h-125V851.5H2810.2 M2818.9,637.7h-8.9h-125
							h-8.9v8.9v99.6v8.9h8.9h125h8.9v-8.9v-99.6V637.7L2818.9,637.7z M2818.9,842.6h-8.9h-125h-8.9v8.9V1236v8.9h8.9h125h8.9v-8.9
							V851.5V842.6L2818.9,842.6z"/>
					</g>
				</g>
			</g>
			<g>
				
					<linearGradient id="SVGID_00000124132380411779445010000010871555735317161107_" gradientUnits="userSpaceOnUse" x1="1865.9263" y1="12025.9121" x2="1865.9263" y2="12771.0654" gradientTransform="matrix(1 0 0 -1 1523.5 13267.3096)">
					<stop  offset="0" style="stop-color:#48407D"/>
					<stop  offset="1" style="stop-color:#6A93C9"/>
				</linearGradient>
				<path style="fill:url(#SVGID_00000124132380411779445010000010871555735317161107_);" d="M2973.8,1241.3v-108.5h125.4
					c194.3,0,223.2-124.1,223.2-198V802.7c0-38,7.2-75.1,21.5-110.4c15.1-37.1,37.1-70.3,65.7-98.5c64.7-63.8,158-97.6,270-97.6
					H3805v108.5h-125.4c-194.3,0-223.2,124.1-223.2,198V935c0,38-7.2,75.1-21.5,110.4c-15.1,37.1-37.1,70.3-65.7,98.5
					c-64.7,63.8-158,97.6-270,97.6L2973.8,1241.3L2973.8,1241.3z"/>
				<path class="st0" d="M3800.6,500.7v99.6h-121c-171.1,0-227.6,96.8-227.6,202.3v132.2c0,145.9-111.5,302.1-352.7,302.1h-121
					v-99.7h121c171.1,0,227.6-96.8,227.6-202.3V802.7c0-145.9,111.5-302.1,352.7-302.1L3800.6,500.7 M3809.5,491.8h-8.9h-121
					c-113.1,0-207.6,34.2-273,98.9c-28.9,28.7-51.4,62.2-66.7,99.9c-14.5,35.8-21.9,73.6-21.9,112v132.2
					c0,72.3-28.5,193.6-218.9,193.6h-121h-8.9v8.9v99.6v8.9h8.9h121c113.1,0,207.6-34.2,273-98.9c28.9-28.7,51.4-62.2,66.7-99.9
					c14.5-35.8,21.9-73.6,21.9-112V802.7c0-72.3,28.5-193.6,218.9-193.6h121h8.9v-8.9v-99.5V491.8L3809.5,491.8z"/>
			</g>
		</g>
	</g>
</g>
</svg>
