<?xml version="1.0" encoding="utf-8"?>
<!-- Generator: Adobe Illustrator 26.3.1, SVG Export Plug-In . SVG Version: 6.00 Build 0)  -->
<svg version="1.1" id="Layer_1" xmlns="http://www.w3.org/2000/svg" xmlns:xlink="http://www.w3.org/1999/xlink" x="0px" y="0px"
	 viewBox="0 0 3839 922.8" style="enable-background:new 0 0 3839 922.8;" xml:space="preserve">
<style type="text/css">
	.st0{fill:#FFFFFF;}
	.st1{fill:#00A336;}
</style>
<g>
	<g>
		<g>
			<path class="st0" d="M182.4,908c-35.3,0-67.8-10.5-96.6-31.3c-25.1-18.2-47.2-44.1-65.6-77.2l-3.5-6.2
				c-3.2-5.6-2.3-12.7,2.1-17.4l4.9-5.2l57.8-61l11.3-12c2.8-3,6.7-4.6,10.7-4.6c1.1,0,2.2,0.1,3.3,0.4c5.1,1.2,9.2,4.9,10.8,9.9
				l5,15.8c4.9,15.3,13.7,29.4,24.7,39.5c7.5,6.9,19.6,15.2,34.3,15.2c16.5,0,34.3-14.5,34.3-46.5c0-14-4.4-23.7-14.6-32.3
				c-11-9.2-27-15.8-42.4-22.1c-1.2-0.5-2.4-1-3.6-1.5c-0.8-0.3-1.6-0.7-2.5-1c-0.6-0.2-1.2-0.4-1.8-0.7c-17.7-7.9-31.7-15.2-44-23
				c-15.1-9.6-27.4-19.9-37.6-31.6c-23.4-27-34.8-60.3-34.8-102c0-45.9,15.6-88.7,44-120.5c29.4-33.1,69.8-51.3,113.9-51.3
				c23.8,0,51.1,6,76.9,16.9c27.6,11.6,51.4,28.2,66.9,46.6l4.6,5.5c4.1,4.9,4.6,12,1.1,17.5l-3.8,6l-41.9,66.4l-8,12.6
				c-2.7,4.2-7.3,6.8-12.2,6.9c-0.1,0-0.2,0-0.2,0c-4.9,0-9.5-2.4-12.2-6.5l-8.3-12.2c-7.2-10.3-14.4-17.7-22.2-22.5
				c-7.9-4.9-16.2-7.2-26.1-7.2c-14.8,0-31.2,12.7-31.2,30.8c0,6.8,1.9,12.8,10.9,20.1c9.9,7.9,25.4,15,41.8,22.4l1.4,0.7
				c27,12.3,57.6,26.3,82.4,51.3c30.1,30.2,44.7,69,44.7,118.8c0,27.1-3.9,52.5-11.6,75.6c-7.8,23.4-19.4,44.1-34.6,61.5
				C279.5,888.8,234.9,908,182.4,908z"/>
			<path class="st0" d="M192.7,356c21.7,0,47,5.5,71.1,15.8c25.5,10.7,47.4,25.9,61.3,42.5l4.6,5.5l-3.8,6L284,492.3l-8,12.6
				l-8.4-12.3c-8.3-11.9-16.9-20.7-26.6-26.7c-10.2-6.4-21.3-9.5-33.9-9.5c-22.2,0-46,18.3-46,45.6c0,12.7,5,22.4,16.4,31.6
				c11.4,9.2,28,16.6,45.5,24.6c26.1,11.9,55.7,25.3,79,48.6c27.2,27.3,40.4,62.7,40.4,108.4c0,25.4-3.6,49.3-10.8,70.9
				c-7.2,21.7-17.9,40.7-31.7,56.5c-28.8,33.1-69.4,50.5-117.6,50.5c-32.2,0-61.7-9.6-87.9-28.6c-23.4-16.9-44-41.3-61.3-72.4
				l-3.5-6.3l4.9-5.2l57.8-60.9l11.3-12l5,15.8c5.7,17.7,15.9,34,28.8,45.9c9.5,8.7,24.8,19.1,44.3,19.1c24.3,0,49-21,49-61.2
				c0-18.4-6.3-32.2-19.8-43.6c-12.7-10.6-29.8-17.7-46.4-24.5c-2.4-1-4.8-2-7.2-3h-0.1h-0.1c-17-7.6-30.4-14.6-42-22
				c-14-8.9-25.2-18.3-34.4-28.8c-21-24.1-31.2-54.4-31.2-92.4c0-42.1,14.3-81.5,40.3-110.7C116.4,372.5,153,356,192.7,356
				 M192.7,326.5c-48.3,0-92.7,20-125,56.3C36.9,417.3,20,463.6,20,513.1c0,22.1,3.1,42.6,9.3,60.8c6.4,18.8,16.2,36,29.2,50.9
				c11.1,12.8,24.5,24,40.8,34.4c12.8,8.2,27.4,15.8,45.8,24c0.9,0.4,1.8,0.7,2.7,1c0.6,0.3,1.3,0.5,1.9,0.8
				c1.1,0.5,2.3,0.9,3.4,1.4c0,0,0.1,0,0.1,0.1c14.4,5.9,29.3,12,38.6,19.8c6.8,5.8,9.3,11.3,9.3,21c0,21.8-10.1,31.7-19.5,31.7
				c-9.9,0-18.7-6.1-24.3-11.3c-9.1-8.4-16.4-20.2-20.6-33.1l-5-15.7c-3.2-10-11.4-17.5-21.6-19.8c-2.2-0.5-4.4-0.7-6.6-0.7
				c-8,0-15.8,3.3-21.5,9.3l-11.3,12L13,760.5c0,0,0,0-0.1,0.1l-4.9,5.2c-8.9,9.4-10.6,23.5-4.3,34.7l3.5,6.3
				c19.5,34.9,42.9,62.5,69.8,81.9c31.4,22.7,66.8,34.2,105.2,34.2c28,0,54.1-5.1,77.7-15.2c24-10.3,44.9-25.6,62.1-45.4
				c16.5-18.9,29.1-41.3,37.4-66.6C367.8,771,372,744,372,715.3c0-26.3-4-50.3-11.9-71.4c-8.1-21.8-20.6-41.3-37.1-57.8
				c-26.8-26.9-60-42.1-86.8-54.3l-0.9-0.4l-0.6-0.3c-15.6-7.1-30.3-13.8-38.7-20.5c-5.4-4.3-5.4-6.1-5.4-8.6
				c0-10.7,10.5-16,16.4-16c7.1,0,12.7,1.5,18.2,5c0,0,0,0,0,0c6,3.8,11.9,9.8,17.8,18.3l8.3,12.2c5.5,8.1,14.7,12.9,24.4,12.9
				c0.2,0,0.3,0,0.5,0c10-0.2,19.2-5.3,24.5-13.7l8-12.6l41.9-66.4l3.8-5.9c7-10.9,6-25-2.3-34.9l-4.6-5.5
				c-17-20.2-42.7-38.2-72.5-50.8C247.8,332.9,218.5,326.5,192.7,326.5L192.7,326.5z"/>
		</g>
		<g>
			<path class="st0" d="M564.9,908c-33.4,0-63.3-6.2-88.8-18.5c-24.7-11.8-45.6-29.3-61.9-52c-15.1-20.9-26.3-46.2-33.6-75.2
				c-6.6-26.7-10-56.8-10-89.4V369c0-8.2,6.6-14.8,14.8-14.8H494c8.2,0,14.8,6.6,14.8,14.8v284.7c0,29.2,1.2,62.4,10.4,87.2
				c4.2,11.4,9.8,19.9,16.6,25.4c7.4,6,16.7,8.8,29.1,8.8c12.4,0,21.6-2.8,29.1-8.8c0,0,0.1-0.1,0.1-0.1
				c6.7-5.3,12.3-13.8,16.5-25.2c9.2-24.8,10.4-58,10.4-87.2V369c0-8.2,6.6-14.8,14.8-14.8h108.6c8.2,0,14.8,6.6,14.8,14.8v303.9
				c0,33-3.4,63.1-10,89.5c-7.2,28.9-18.5,54.2-33.5,75.1c-16.3,22.7-37.2,40.2-61.9,52.1C628.2,901.8,598.3,908,564.9,908z"/>
			<path class="st0" d="M744.4,369v9.7v294.1c0,31.5-3.2,60.5-9.6,85.9c-6.8,27.3-17.3,50.8-31.2,70.1
				c-14.9,20.7-33.9,36.6-56.3,47.4c-23.5,11.3-51.3,17-82.4,17c-31.1,0-58.9-5.7-82.4-17c-22.4-10.7-41.5-26.7-56.3-47.4
				c-13.9-19.3-24.4-42.8-31.2-70.1c-6.3-25.4-9.6-54.4-9.6-85.9V378.8V369h9.7h89.1h9.7v9.7v275c0,30.5,1.4,65.4,11.3,92.4
				c5.2,14,12.3,24.6,21.2,31.8c10.1,8.2,22.6,12.1,38.4,12.1c15.7,0,28.3-3.9,38.4-12.1c9-7.1,16-17.8,21.2-31.7
				c9.9-26.9,11.3-61.8,11.3-92.4V378.8V369h9.7h89.1H744.4 M744.4,339.5h-9.7h-89.1h-9.7c-16.3,0-29.5,13.2-29.5,29.5v9.7v275.1
				c0,26.3-1.1,59.4-9.5,82.1c-3.2,8.7-7.3,15.2-11.8,18.8c-0.1,0.1-0.1,0.1-0.2,0.2c-3,2.4-8.3,5.6-19.9,5.6
				c-11.4,0-16.6-3-19.8-5.5c-4.6-3.8-8.8-10.4-12-19.1c-8.4-22.8-9.5-55.8-9.5-82.1v-275V369c0-16.3-13.2-29.5-29.5-29.5h-9.7
				h-89.1h-9.7c-16.3,0-29.5,13.2-29.5,29.5v9.7v294.1c0,33.8,3.5,65.1,10.4,93c7.7,30.8,19.8,57.8,35.9,80.2
				c17.8,24.7,40.5,43.8,67.5,56.7c27.5,13.2,59.5,19.9,95.2,19.9c35.7,0,67.7-6.7,95.2-19.9c27-12.9,49.7-32,67.5-56.7
				c16.1-22.4,28.2-49.4,35.9-80.2c6.9-27.5,10.4-58.8,10.4-93.1V378.8V369C773.9,352.7,760.7,339.5,744.4,339.5L744.4,339.5z"/>
		</g>
		<g>
			<path class="st0" d="M806.2,894.9c-8.2,0-14.8-6.6-14.8-14.8V369c0-8.2,6.6-14.8,14.8-14.8h131.1c27.1,0,51.3,3.1,71.8,9.3
				c23.2,6.7,43.1,17.3,59.2,31.4c17.2,15.1,30.3,34.3,38.8,57c8.5,22.6,12.8,49.3,12.8,79.4c0,57.9-15.1,102.8-44.9,133.7
				c-29.4,30.5-71.7,46-125.7,46h-19.7v169.1c0,8.2-6.6,14.8-14.8,14.8H806.2z M929.6,582.3c19.9-0.5,31.9-3.2,38.6-8.6
				c7.9-6.4,11.8-20.4,11.8-43c0-36.8-9.2-46.6-50.4-47.6V582.3z"/>
			<path class="st0" d="M937.3,369c25.4,0,48.2,2.9,67.6,8.7c21.2,6.1,39.2,15.7,53.7,28.4c15.3,13.4,27,30.5,34.7,51.1
				c7.9,20.9,11.9,45.9,11.9,74.2c0,53.9-13.7,95.4-40.8,123.5c-26.5,27.5-65.3,41.5-115.1,41.5h-34.5v174.1v9.7h-9.7h-89.1h-9.7
				v-9.7V378.8V369h9.7H937.3 M914.8,597.2h8.5c27.6,0,43.8-3.5,54.3-12c11.7-9.5,17.2-26.8,17.2-54.4c0-53.2-23.8-62.5-73.9-62.5
				h-6V597.2 M937.3,339.5H815.9h-9.7c-16.3,0-29.5,13.2-29.5,29.5v9.7v491.6v9.7c0,16.3,13.2,29.5,29.5,29.5h9.7h89.1h9.7
				c16.3,0,29.5-13.2,29.5-29.5v-9.7V725.9h4.9c28.2,0,53.9-4.1,76.3-12.2c23.5-8.5,43.7-21.4,60.1-38.3c32.5-33.7,49-82.2,49-144
				c0-31.9-4.6-60.4-13.8-84.6c-9.3-25-23.8-46.2-42.8-62.9c-17.8-15.6-39.6-27.2-64.8-34.5C991.3,342.8,965.7,339.5,937.3,339.5
				L937.3,339.5z M944.3,566.5v-67.6c7.1,0.9,12,2.4,14.7,4.4c3.9,2.9,6.1,12.9,6.1,27.4c0,25.7-5.6,30.9-6.2,31.5c0,0,0,0-0.1,0.1
				C957.3,563.5,953.5,565.4,944.3,566.5L944.3,566.5z"/>
		</g>
		<g>
			<path class="st0" d="M1144.6,894.9c-8.2,0-14.8-6.6-14.8-14.8V369c0-8.2,6.6-14.8,14.8-14.8h255.9c8.2,0,14.8,6.6,14.8,14.8
				v103.1c0,8.2-6.6,14.8-14.8,14.8H1268v59.2h127c8.2,0,14.8,6.6,14.8,14.8v102.9c0,8.2-6.6,14.8-14.8,14.8h-127v84h132.5
				c8.2,0,14.8,6.6,14.8,14.8v102.9c0,8.2-6.6,14.8-14.8,14.8H1144.6z"/>
			<path class="st0" d="M1400.5,369v9.9v83.4v9.7h-9.7h-137.6v88.7h132h9.7v9.7V654v9.7h-9.7h-132v113.5h137.6h9.7v9.7v83.4v9.7
				h-9.7h-236.4h-9.7v-9.7V378.8V369h9.7h236.4H1400.5 M1400.5,339.5h-9.7h-236.4h-9.7c-16.3,0-29.5,13.2-29.5,29.5v9.7v491.6v9.7
				c0,16.3,13.2,29.5,29.5,29.5h9.7h236.4h9.7c16.3,0,29.5-13.2,29.5-29.5v-9.7V787v-9.7c0-16.3-13.2-29.5-29.5-29.5h-9.7h-108
				v-54.4h102.5h9.7c16.3,0,29.5-13.2,29.5-29.5V654v-83.4v-9.7c0-16.3-13.2-29.5-29.5-29.5h-9.7h-102.5v-29.6h108h9.7
				c16.3,0,29.5-13.2,29.5-29.5v-9.7V379V369C1430.1,352.7,1416.8,339.5,1400.5,339.5L1400.5,339.5z"/>
		</g>
		<g>
			<path class="st0" d="M1663.8,894.9c-5.4,0-10.4-2.9-12.9-7.7l-2.7-5l-66-118.1v115.9c0,8.2-6.6,14.8-14.8,14.8h-108.6
				c-8.2,0-14.8-6.6-14.8-14.8V369c0-8.2,6.6-14.8,14.8-14.8h130.4c53.5,0,96.1,13.7,126.7,40.8c33.7,30,50.8,74.3,50.8,131.8
				c0,36.7-9.8,72.4-27.5,100.5c-13.8,21.9-32,38.6-53.2,49.1l112.4,180.9l9.3,14.9c2.8,4.6,3,10.3,0.4,15
				c-2.6,4.7-7.5,7.6-12.9,7.6H1663.8z M1582.3,579.9c14.5-1.2,25.3-4.4,32.1-9.7c9.3-7.2,13.8-20.5,13.8-40.9
				c0-29.2-10.1-36.5-13.4-38.8c-6.8-4.8-17.5-7.6-32.5-8.5V579.9z"/>
			<path class="st0" d="M1589.1,369c49.8,0,89.1,12.5,116.9,37.1c30.3,27,45.8,67.6,45.8,120.7c0,34-9,66.9-25.2,92.7
				c-15.7,24.8-37.1,41.8-62.5,49.8l121.7,195.8l9.4,15h-17.6h-107.9h-5.7l-2.8-5l-93.7-167.6v162.9v9.7h-9.7h-89.1h-9.7v-9.7V378.8
				V369h9.7H1589.1 M1567.5,595.2h1.7c24.9,0,42.6-4.3,54.3-13.3c13.2-10.1,19.6-27.4,19.6-52.6c0-37-14.9-47.5-19.7-50.9
				c-11.2-7.9-28.3-11.6-53.6-11.6h-2.3V595.2 M1589.1,339.5h-120.6h-9.7c-16.3,0-29.5,13.2-29.5,29.5v9.7v491.6v9.7
				c0,16.3,13.2,29.5,29.5,29.5h9.7h89.1h9.7c16.3,0,29.5-13.2,29.5-29.5v-9.7v-49.5l38.4,68.6l2.7,4.9c5.2,9.4,15.1,15.3,25.9,15.3
				h5.7h107.9h17.6c10.7,0,20.6-5.8,25.8-15.2c5.2-9.4,4.9-20.9-0.8-30l-9.3-14.9l-104.3-167.9c17.6-11.5,32.9-27.1,45.1-46.4
				c19.2-30.5,29.8-69,29.8-108.4c0-30-4.5-57.1-13.4-80.6c-9.3-24.6-23.6-45.5-42.2-62.2c0,0,0,0,0,0
				C1692.2,354.5,1646.3,339.5,1589.1,339.5L1589.1,339.5z M1597,562.5v-63.6c4.9,1.2,7.7,2.6,9.3,3.7c1.3,0.9,1.9,1.4,3,3.3
				c1.6,2.8,4.2,9.6,4.2,23.5c0,10.5-1.4,24-8.1,29.2C1603.9,559.6,1601.3,561.1,1597,562.5L1597,562.5z"/>
		</g>
		<g>
			<path class="st0" d="M1951.3,908c-6.3,0-11.9-4-14-10l-2.3-6.6l-174.7-504.6l-4.5-13c-1.6-4.5-0.9-9.5,1.9-13.4
				c2.8-3.9,7.3-6.2,12-6.2h116.7c6.3,0,12,4,14,10l2.3,6.7l86.3,260.2l79.8-259.6l2.2-7c1.9-6.2,7.6-10.3,14.1-10.3h116.8
				c4.8,0,9.3,2.3,12.1,6.3c2.8,3.9,3.5,8.9,1.8,13.5l-4.6,13l-177.6,504.7l-2.2,6.5c-2.1,5.9-7.7,9.9-13.9,9.9H1951.3z"/>
			<path class="st0" d="M2201.9,369L2201.9,369 M2201.9,369l-4.6,13l-177.6,504.7l-2.3,6.5h-6.9h-52.2h-7l-2.3-6.6L1774.4,382
				l-4.5-13h13.8h95.8h7.1l2.3,6.7l100.8,303.9l93.3-303.8l2.2-6.9h7.2h95.8H2201.9 M2201.9,339.5L2201.9,339.5h-13.8h-95.8h-7.2
				c-12.9,0-24.3,8.4-28.2,20.7l-2.2,6.9c0,0.1,0,0.1-0.1,0.2l-66.2,215.4l-71.7-216.2c0-0.1,0-0.1-0.1-0.2l-2.3-6.7
				c-4.1-12-15.3-20.1-28-20.1h-7.1h-95.8h-13.8c-9.6,0-18.5,4.6-24.1,12.4c-5.5,7.8-7,17.8-3.8,26.8l4.5,13l174.7,504.6l2.2,6.5
				c4.1,11.9,15.3,19.9,27.9,19.9h7h52.2h6.9c12.6,0,23.8-8,27.9-19.8l2.2-6.4l177.6-504.7l4.3-12.2c1.3-3.3,2-6.9,2-10.6
				C2231.4,352.7,2218.2,339.5,2201.9,339.5L2201.9,339.5z M2201.9,398.6L2201.9,398.6L2201.9,398.6L2201.9,398.6z"/>
		</g>
		<g>
			<path class="st0" d="M2220.9,894.9c-8.2,0-14.8-6.6-14.8-14.8V369c0-8.2,6.6-14.8,14.8-14.8h108.6c8.2,0,14.8,6.6,14.8,14.8
				v511.1c0,8.2-6.6,14.8-14.8,14.8H2220.9z"/>
			<path class="st0" d="M2329.5,369v9.7v491.6v9.7h-9.7h-89.1h-9.7v-9.7V378.8V369h9.7h89.1H2329.5 M2329.5,339.5h-9.7h-89.1h-9.7
				c-16.3,0-29.5,13.2-29.5,29.5v9.7v491.6v9.7c0,16.3,13.2,29.5,29.5,29.5h9.7h89.1h9.7c16.3,0,29.5-13.2,29.5-29.5v-9.7V378.8V369
				C2359,352.7,2345.8,339.5,2329.5,339.5L2329.5,339.5z"/>
		</g>
		<g>
			<path class="st0" d="M2524.7,908c-35.3,0-67.8-10.5-96.6-31.3c-25.1-18.2-47.2-44.1-65.6-77.2l-3.5-6.2
				c-3.2-5.6-2.3-12.7,2.1-17.4l4.9-5.2l57.7-60.8l11.3-12c2.8-3,6.7-4.6,10.7-4.6c1.1,0,2.2,0.1,3.3,0.4c5.1,1.2,9.2,4.9,10.8,9.9
				l5,15.8c4.9,15.3,13.7,29.4,24.7,39.5c7.5,6.9,19.6,15.2,34.3,15.2c16.5,0,34.3-14.5,34.3-46.5c0-14-4.4-23.7-14.6-32.3
				c-11-9.2-27-15.8-42.4-22.1c-1.2-0.5-2.4-1-3.6-1.5c-0.8-0.3-1.6-0.7-2.5-1c-0.6-0.2-1.2-0.4-1.8-0.7c-18.5-8.2-32.1-15.3-44-23
				c-15.2-9.7-27.4-20.1-37.5-31.7c-23.4-27.1-34.8-60.5-34.8-102.1c0-45.9,15.6-88.7,44-120.5c29.4-33.1,69.8-51.3,113.9-51.3
				c23.8,0,51.1,6,76.9,16.9c27.6,11.6,51.4,28.2,66.9,46.6l4.6,5.5c4.1,4.9,4.6,12,1.1,17.4l-3.8,6l-41.9,66.4l-8,12.6
				c-2.7,4.2-7.3,6.8-12.2,6.9c-0.1,0-0.2,0-0.2,0c-4.9,0-9.5-2.4-12.2-6.5l-8.3-12.2c-7.2-10.3-14.4-17.7-22.2-22.5
				c-7.9-4.9-16.2-7.2-26.1-7.2c-14.8,0-31.2,12.7-31.2,30.8c0,6.8,1.9,12.8,10.9,20.1c9.9,7.9,25.4,15,41.8,22.4l1.4,0.7
				c27,12.3,57.6,26.3,82.4,51.3c30.1,30.2,44.7,69,44.7,118.8c0,27.1-3.9,52.5-11.6,75.6c-7.8,23.4-19.4,44.1-34.6,61.5
				C2621.8,888.8,2577.3,908,2524.7,908z"/>
			<path class="st0" d="M2535,356c21.8,0,47,5.5,71.2,15.8c25.5,10.7,47.4,25.9,61.3,42.5l4.6,5.5l-3.8,6l-41.9,66.5l-8,12.6
				l-8.4-12.3c-8.3-11.9-16.9-20.7-26.6-26.7c-10.2-6.4-21.3-9.5-33.9-9.5c-22.2,0-46,18.3-46,45.6c0,12.7,5,22.4,16.4,31.6
				c11.4,9.2,28,16.6,45.5,24.6c26.1,11.9,55.7,25.3,79,48.6c27.2,27.3,40.4,62.7,40.4,108.4c0,25.4-3.6,49.3-10.8,70.9
				c-7.2,21.7-17.9,40.7-31.7,56.5c-28.8,33.1-69.4,50.5-117.6,50.5c-32.2,0-61.7-9.6-87.9-28.6c-23.4-16.9-44-41.3-61.3-72.4
				l-3.5-6.3l4.9-5.2l57.7-60.8l11.3-12l5,15.8c5.7,17.7,15.9,34,28.8,45.9c9.5,8.7,24.8,19.1,44.3,19.1c24.3,0,49-21,49-61.2
				c0-18.4-6.3-32.2-19.8-43.6c-12.7-10.6-29.8-17.7-46.4-24.5c-2.4-1-4.8-2-7.2-3h-0.1h-0.1c-17-7.6-30.4-14.5-42-22
				c-14-9-25.2-18.4-34.4-28.9c-21-24.2-31.2-54.4-31.2-92.5c0-42.1,14.3-81.5,40.3-110.7C2458.7,372.5,2495.3,356,2535,356
				 M2535,326.5c-48.3,0-92.7,20-125,56.3c-30.8,34.5-47.7,80.8-47.7,130.3c0,22.1,3.1,42.6,9.3,60.9c6.4,18.8,16.2,36,29.1,50.9
				c0,0,0,0,0,0c11,12.7,24.3,23.9,40.7,34.4c12.6,8.1,26.8,15.5,46,24.1c0.9,0.4,1.8,0.7,2.7,1c0.6,0.3,1.3,0.5,1.9,0.8
				c1.1,0.5,2.3,0.9,3.4,1.4c0,0,0.1,0,0.1,0.1c14.4,5.9,29.3,12,38.6,19.8c6.8,5.8,9.3,11.3,9.3,21c0,21.8-10.1,31.7-19.5,31.7
				c-9.9,0-18.7-6.1-24.3-11.3c-9.1-8.4-16.4-20.2-20.6-33.2l-5-15.7c-3.2-10-11.4-17.5-21.6-19.8c-2.2-0.5-4.4-0.7-6.6-0.7
				c-8,0-15.8,3.3-21.5,9.3l-11.3,12l-57.6,60.7c0,0,0,0-0.1,0.1l-4.9,5.2c-8.9,9.4-10.6,23.5-4.3,34.8l3.5,6.2
				c19.5,34.9,42.9,62.5,69.8,81.9c31.4,22.7,66.8,34.2,105.2,34.2c28,0,54.1-5.1,77.7-15.2c24-10.3,44.9-25.6,62.1-45.4
				c16.5-18.9,29.1-41.3,37.4-66.6c8.2-24.5,12.3-51.5,12.3-80.2c0-26.3-4-50.3-11.9-71.4c-8.1-21.8-20.6-41.3-37.1-57.8
				c-26.8-26.9-60-42.1-86.8-54.3l-0.9-0.4l-0.6-0.3c-15.6-7.1-30.3-13.8-38.7-20.5c-5.4-4.3-5.4-6.1-5.4-8.6
				c0-10.7,10.5-16,16.4-16c7.1,0,12.7,1.5,18.2,5c0,0,0,0,0,0c6,3.8,11.9,9.8,17.8,18.3l8.3,12.2c5.5,8.1,14.7,12.9,24.4,12.9
				c0.2,0,0.3,0,0.5,0c10-0.2,19.2-5.3,24.5-13.7l8-12.6l41.9-66.4l3.8-5.9c7-10.9,6-25-2.3-34.9l-4.6-5.5
				c-17-20.2-42.7-38.2-72.5-50.8C2590.1,332.9,2560.7,326.5,2535,326.5L2535,326.5z"/>
		</g>
		<g>
			<path class="st0" d="M2730.2,894.9c-8.2,0-14.8-6.6-14.8-14.8V369c0-8.2,6.6-14.8,14.8-14.8h108.6c8.2,0,14.8,6.6,14.8,14.8
				v511.1c0,8.2-6.6,14.8-14.8,14.8H2730.2z"/>
			<path class="st0" d="M2838.8,369v9.7v491.6v9.7h-9.7H2740h-9.7v-9.7V378.8V369h9.7h89.1H2838.8 M2838.8,339.5h-9.7H2740h-9.7
				c-16.3,0-29.5,13.2-29.5,29.5v9.7v491.6v9.7c0,16.3,13.2,29.5,29.5,29.5h9.7h89.1h9.7c16.3,0,29.5-13.2,29.5-29.5v-9.7V378.8V369
				C2868.4,352.7,2855.1,339.5,2838.8,339.5L2838.8,339.5z"/>
		</g>
		<g>
			<path class="st0" d="M3730.4,904.7c-4.8,0-9.2-2.3-12-6.2c0,0-3-4.2-3-4.2l-197.2-281.5v267.5c0,8.2-6.6,14.8-14.8,14.8h-108.6
				c-8.2,0-14.8-6.6-14.8-14.8V356c0-8.2,6.6-14.8,14.8-14.8h79.1c4.9,0,9.4,2.4,12.2,6.4l2.8,4.1l197.3,281.4V369
				c0-8.2,6.6-14.8,14.8-14.8h108.6c8.2,0,14.8,6.6,14.8,14.8v520.9c0,8.2-6.6,14.8-14.8,14.8H3730.4z"/>
			<path class="st0" d="M3473.8,356l2.9,4.1L3700.9,680V378.8V369h9.7h89.1h9.7v9.7v501.4v9.7h-9.7h-64.2h-5.1l-3-4.1l-224.1-319.9
				v304.5v9.7h-9.7h-89.1h-9.7v-9.7V365.8V356h9.7h64.2H3473.8 M3473.8,326.5h-5.1h-64.2h-9.7c-16.3,0-29.5,13.2-29.5,29.5v9.7
				v504.6v9.7c0,16.3,13.2,29.5,29.5,29.5h9.7h89.1h9.7c16.3,0,29.5-13.2,29.5-29.5v-9.7V659.5l170.4,243.2c0.1,0.1,0.1,0.1,0.2,0.2
				l3,4.1c5.5,7.8,14.5,12.4,24,12.4h5.1h64.2h9.7c16.3,0,29.5-13.2,29.5-29.5v-9.7V378.8V369c0-16.3-13.2-29.5-29.5-29.5h-9.7
				h-89.1h-9.7c-16.3,0-29.5,13.2-29.5,29.5v9.7v207.6l-170.4-243.1l-2.8-4C3492.6,331.3,3483.5,326.5,3473.8,326.5L3473.8,326.5z"
				/>
		</g>
		<g>
			<path class="st0" d="M2928.1,808.6c-5.3,0-10.2-2.8-12.8-7.4l-8.7-15.2c-26.6-46.4-40.6-102.5-40.6-162.2
				c0-38.7,5.9-75.6,17.4-109.8c11.5-34,28.4-64.3,50.3-89.9c22.4-26.3,49.2-46.7,79.7-60.8c31.7-14.6,66.4-22,103.2-22
				c36.5,0,71.3,7.3,103.3,21.8c0,0,0.1,0,0.1,0.1c30.5,14.1,57.3,34.6,79.7,60.8c21.9,25.6,38.8,55.9,50.3,89.9
				c11.6,34.1,17.4,71,17.4,109.8c0,59.7-14.1,115.8-40.6,162.2l-8.7,15.2c-2.6,4.6-7.5,7.4-12.8,7.4c0,0-0.1,0-0.1,0
				c-5.3,0-10.2-3-12.8-7.7l-8.4-15.3l-59.3-107.7l-1.7-3.1c-1.7-3-2.2-6.6-1.5-10l0.7-3.4c2.6-13.7,4-27.6,4-41.5
				c0-35-11.1-69.6-30.3-94.8c-14.1-18.4-39.3-40.4-79.1-40.4c-39.8,0-65,22-79.2,40.5c-19.3,25.3-30.3,59.8-30.3,94.8
				c0,13.9,1.3,27.9,4,41.5l0.7,3.4c0.7,3.4,0.1,6.9-1.5,10l-60.8,110.8l-8.3,15.3c-2.6,4.7-7.5,7.6-12.8,7.7
				C2928.2,808.6,2928.2,808.6,2928.1,808.6z"/>
			<path class="st0" d="M3116.6,355.9c34.7,0,67.3,7,97.2,20.5c28.6,13.2,53.7,32.4,74.6,57c20.6,24.1,36.6,52.8,47.6,85.1
				c11,32.5,16.6,67.9,16.6,105.1c0,57.2-13.4,110.7-38.7,154.9l-8.7,15.2l-8.4-15.3l-59.3-107.7l-1.7-3.1l0.7-3.4
				c2.9-14.9,4.2-29.7,4.2-44.3c0-38.2-12.2-76.1-33.4-103.8c-16.1-21.1-45-46.2-90.9-46.2c-45.9,0-74.7,25.2-90.9,46.3
				c-21.2,27.8-33.4,65.6-33.4,103.8c0,14.6,1.4,29.5,4.2,44.3l0.7,3.4l-1.7,3.1l-59.1,107.7l-8.4,15.4l-8.7-15.2
				c-25.3-44.2-38.7-97.8-38.7-154.9c0-37.1,5.6-72.5,16.6-105.1c10.9-32.3,27-60.9,47.6-85.1c21-24.6,46.1-43.8,74.6-57
				C3049.2,362.9,3081.8,355.9,3116.6,355.9 M3116.6,326.4c-38.9,0-75.7,7.9-109.4,23.4c-32.4,15-60.9,36.7-84.7,64.7
				c-23.1,27.1-40.9,58.9-53.1,94.8c-12.1,35.7-18.2,74.2-18.2,114.5c0,62.2,14.7,120.9,42.6,169.6l8.7,15.1
				c5.3,9.2,15.1,14.9,25.6,14.9c0.1,0,0.2,0,0.3,0c10.7-0.1,20.5-6,25.6-15.4l8.3-15.3l59.1-107.7l1.7-3.1c3.3-6.1,4.4-13.2,3.1-20
				l-0.7-3.3c-2.4-12.7-3.7-25.7-3.7-38.6c0-31.8,10-63.1,27.3-85.8c17.6-23,40.3-34.7,67.4-34.7c27.1,0,49.8,11.6,67.4,34.6
				c17.3,22.7,27.3,53.9,27.3,85.8c0,12.9-1.2,25.9-3.7,38.6l-0.7,3.3c-1.4,6.8-0.3,13.9,3.1,20l1.7,3.1l59.3,107.8l8.3,15.2
				c5.1,9.4,14.9,15.2,25.6,15.3c0.1,0,0.2,0,0.3,0c10.6,0,20.4-5.7,25.6-14.9l8.7-15.2c27.9-48.7,42.6-107.3,42.6-169.5
				c0-40.4-6.1-79-18.2-114.6c-12.1-35.8-30-67.7-53.1-94.7c-23.8-27.9-52.3-49.7-84.7-64.7c-0.1,0-0.1-0.1-0.2-0.1
				C3192,334.2,3155.2,326.4,3116.6,326.4L3116.6,326.4z"/>
		</g>
		<g>
			<path class="st0" d="M2912.1,894.9c-5.2,0-10.1-2.8-12.7-7.3c-2.7-4.5-2.7-10.1-0.2-14.6l8-14.5l187.8-341.6l8.6-15.6
				c2.6-4.7,7.6-7.7,13-7.7c5.4,0,10.4,2.9,13,7.7l8.6,15.7l187.8,341.6l8,14.5c2.5,4.6,2.4,10.1-0.2,14.6
				c-2.7,4.5-7.5,7.3-12.7,7.3H2912.1z"/>
			<path class="st0" d="M3116.4,508.4l8.6,15.7l187.9,341.7l8,14.5h-16.5h-375.6h-16.5l8-14.5L3107.8,524L3116.4,508.4
				 M3116.4,478.8c-10.8,0-20.7,5.9-25.9,15.4l-8.6,15.6l-187.7,341.6l-8,14.4c-5,9.2-4.9,20.3,0.4,29.3c5.3,9,15,14.5,25.4,14.5
				h16.5h375.6h16.5c10.4,0,20.1-5.5,25.4-14.5c5.3-9,5.5-20.1,0.4-29.3l-8-14.5l-187.9-341.6l-8.5-15.6
				C3137.1,484.7,3127.2,478.8,3116.4,478.8L3116.4,478.8z"/>
		</g>
		<g>
			<path class="st0" d="M1493.9,309.3c-6.4,0-12.1-4.1-14.1-10.2l-2.2-6.7l-80.4-245.4l-4.2-12.8c-1.5-4.5-0.7-9.4,2.1-13.3
				c2.8-3.8,7.2-6.1,12-6.1h122.5c1.2,0,2.3,0.1,3.4,0.4c1.1-0.3,2.2-0.4,3.4-0.4h122.5c1.1,0,2.2,0.1,3.3,0.4
				c1.1-0.2,2.2-0.4,3.3-0.4h111.8c5,0,9.6,2.5,12.4,6.7c2.7,4.2,3.2,9.4,1.2,14l-5.8,13.2l-11.1,26.6c-0.2,0.7-0.4,1.3-0.7,2
				L1771,82l-6,14.1c0,0-1.2,2.9-1.2,3l-25.7,61.2l-10.1,24.1c-0.1,0.3-0.3,0.7-0.5,1l-3,7.1c-0.1,0.3-0.2,0.6-0.3,0.9
				c0,0-1.4,3.4-1.4,3.5l-41,97.2l-2.6,6.1c-2.3,5.4-7.7,9-13.6,9h-42.6c-6.4,0-12.1-4.1-14.1-10.2l-2.2-6.7l-22.8-69.5l-30.1,71.5
				l-2.6,6.1c-2.3,5.4-7.7,9-13.6,9H1493.9z"/>
			<path class="st0" d="M1777.1,29.5l-5.8,13.3l-11.9,28.5l0.1,0.1l-2.1,4.8l-6.1,14.3l-1.2,3l-25.7,61.2l-10.1,24.1v-0.1l-3.8,9.1
				v0.1l-1.4,3.3l-41,97.2l-2.6,6h-6.5h-29h-7.1l-2.2-6.7l-35.2-107.1l-45.4,107.9l-2.6,6h-6.5h-18.6h-11.6h-7.1l-2.2-6.7
				l-80.4-245.5l-4.2-12.8h13.6h101.8h7.1l2.2,6.7l33,100l3.7-9l-27.9-85l-4.2-12.8h13.5h101.9h7.1l2.2,6.7l32.2,98.4l3.7-9
				l-27.3-83.3l-4.2-12.8h13.5h83.5H1777.1 M1777.1,0h-14.8h-83.5h-13.5c-1.1,0-2.2,0.1-3.3,0.2c-1.1-0.1-2.2-0.2-3.3-0.2h-7.1
				h-101.9h-13.5c-1.1,0-2.3,0.1-3.4,0.2c-1.1-0.1-2.3-0.2-3.4-0.2h-7.1h-101.8H1407c-9.5,0-18.4,4.6-23.9,12.2s-7.1,17.6-4.1,26.6
				l4.2,12.8l80.4,245.3l2.2,6.7c3.9,12.2,15.3,20.4,28.1,20.4h7.1h11.6h18.6h6.5c11.8,0,22.5-7.1,27.2-18l2.6-6c0,0,0-0.1,0.1-0.1
				l14.7-35l10.5,31.9l2.2,6.7c3.9,12.2,15.3,20.4,28.1,20.4h7.1h29h6.5c11.8,0,22.5-7.1,27.2-18l2.6-6c0,0,0-0.1,0-0.1l41-97.2
				c0-0.1,0.1-0.2,0.1-0.2l1.4-3.3c0.2-0.4,0.3-0.7,0.4-1.1l2.7-6.3c0.2-0.5,0.5-1,0.7-1.5l10.1-24.1l25.7-61.3
				c0.1-0.2,0.1-0.3,0.2-0.5l1.1-2.6l6-14l2.1-4.8c0.4-0.9,0.7-1.9,1-2.8l10.8-25.7l5.7-13.1c4-9.1,3.1-19.7-2.3-28
				C1796.4,5,1787.1,0,1777.1,0L1777.1,0z"/>
		</g>
		<g>
			<path class="st0" d="M1779.2,91.1c-4.9,0-9.5-2.4-12.2-6.5c-2.7-4.1-3.3-9.2-1.5-13.8l5.4-13.5l10.9-27.2l2.5-6.1
				c2.3-5.6,7.7-9.2,13.7-9.2h632.6c8.2,0,14.8,6.6,14.8,14.8v46.8c0,8.2-6.6,14.8-14.8,14.8H1779.2z"/>
			<path class="st0" d="M2430.6,29.5v9.7v27.3v9.7h-9.7h-627.2h-14.5l5.4-13.5l10.9-27.2l2.5-6.1h6.6h616.3H2430.6 M2430.6,0h-9.7
				h-616.3h-6.6c-12,0-22.9,7.3-27.4,18.5l-2.5,6.1l-10.9,27.2l-5.4,13.5c-3.7,9.1-2.6,19.4,2.9,27.5c5.5,8.1,14.7,13,24.5,13h14.5
				h627.2h9.7c16.3,0,29.5-13.2,29.5-29.5v-9.7V39.3v-9.7C2460.2,13.2,2446.9,0,2430.6,0L2430.6,0z"/>
		</g>
		<g>
			<path class="st0" d="M1691,309.3c-4.9,0-9.5-2.4-12.2-6.5c-2.7-4.1-3.3-9.2-1.5-13.8l5.4-13.5l13.4-33.2
				c2.3-5.6,7.7-9.2,13.7-9.2h720.8c8.2,0,14.8,6.6,14.8,14.8v46.7c0,8.2-6.6,14.8-14.8,14.8H1691z"/>
			<path class="st0" d="M2430.6,247.8v9.8v27.1v9.7h-9.7h-715.4H1691l5.4-13.5l10.9-27.1l2.5-6.1h6.6h704.5H2430.6 M2430.6,218.3
				h-9.7h-704.5h-6.6c-12,0-22.9,7.3-27.4,18.5l-2.5,6.1L1669,270c0,0,0,0,0,0.1l-5.4,13.5c-3.7,9.1-2.6,19.4,2.9,27.5
				c5.5,8.1,14.7,13,24.5,13h14.5h715.4h9.7c16.3,0,29.5-13.2,29.5-29.5v-9.7v-27.1v-9.8C2460.2,231.5,2446.9,218.3,2430.6,218.3
				L2430.6,218.3z"/>
		</g>
		<g>
			<path class="st0" d="M2119.3,254.9c-0.6,0-1.2,0-1.7-0.1h-74.3c-1.7,0-3.4-0.3-5-0.9c-1.6,0.6-3.3,0.9-5,0.9c0,0-74.6,0-74.6,0
				c-0.6,0.1-1.1,0.1-1.7,0.1h-75.6c-0.6,0-1.2,0-1.7-0.1h-81c-1.7,0-3.4-0.3-5-0.9c-1.6,0.6-3.3,0.9-5,0.9H1714
				c-4.9,0-9.5-2.5-12.3-6.6c-2.7-4.1-3.3-9.3-1.4-13.8l5.6-13.6c0,0,52.4-126.3,52.5-126.3L1763,84l2.6-5.9
				c2.3-5.4,7.7-8.9,13.6-8.9h19.6c5.6,0,10.6,3.1,13.2,8.1l2.5,4.8l9.8,17.9v-16c0-8.2,6.6-14.8,14.8-14.8h160.5
				c5.1,0,9.6,2.6,12.2,6.5c2.7-4,7.3-6.5,12.2-6.5h19.6c5.6,0,10.6,3.1,13.2,8.1l2.5,4.8l45.5,83V83.9c0-8.2,6.6-14.8,14.8-14.8
				h110.5c5.5,0,22.2,0,35.6,10.7c0,0,0.1,0,0.1,0.1c8,6.4,17.5,19,17.5,42.4c0,11.5-2.2,21.3-6.7,29.4c2.5,3.6,4.7,7.5,6.5,11.4
				c0,0,28.5-68.6,28.5-68.7l4.5-10.5l2.6-5.9c2.3-5.4,7.7-8.9,13.6-8.9h19.6c5.6,0,10.6,3.1,13.2,8.1l2.5,4.8l74.8,136.5l8,14.4
				c2.5,4.6,2.4,10.1-0.2,14.6c-2.7,4.5-7.5,7.3-12.7,7.3h-85.6c-1.7,0-3.4-0.3-5-0.9c-1.6,0.6-3.3,0.9-5,0.9h-64.6
				c-0.6,0.1-1.1,0.1-1.7,0.1H2119.3z M1866.5,177.3v-12h-6.6L1866.5,177.3z M1971.7,170.2l2-4.9h-2V170.2z"/>
			<path class="st0" d="M2351.6,83.9l2.6,5l74.9,136.7l8,14.5h-16.5h-63.1h-5.9l-2.8-5.2l-7.3-14v2.2v7.3v9.7h-9.7h-50.1h-6.5v0.1
				h-9.7h-63h-7.5h-9.7H2129h-9.7V240h-7h-63.1h-5.9l-2.8-5.2l-7.3-14v2.2v7.3v9.7h-9.7h-50.1h-14.7l5.6-13.6l31.5-75.9h-6.2h-17.2
				h-9.7v-9.7c0-5.3-2-10.1-5.7-14.4v104v9.7h-9.7H1891h-9.7V240h-13.7h-63.1h-5.9l-2.8-5.2l-7.3-14v2.2v7.3v9.7h-9.7h-50.1H1714
				l5.6-13.6l52.4-126.1l4.5-10.5l2.6-5.9h6.5h7.3h5.8l2.6,5l74.9,136.7l5.1,9.3v-4.5V126.3c-3.8,4.2-5.7,9.1-5.7,14.4v9.7h-9.7
				h-17.2h-9.7v-9.7v-29.8V93.6v-9.7h9.7h17.2h123.9h9.6v9.7v0.3v16.9v29.9v1.3l17.3-41.7l4.5-10.5l2.6-5.9h6.5h7.3h5.8l2.6,5
				l73.4,133.8V110.9v-0.7V93.6v-9.7h9.7h73.4h27.4c7.3,0,18,0.8,26.5,7.5c8,6.4,12,16.8,12,30.9c0,13.3-3.6,23.3-10.7,29.8
				c2.3,2.2,4.4,4.7,6.4,7.6c7,10,11.2,22.5,11.2,33.5v27.1l49.8-120l4.5-10.5l2.6-5.9h6.5h7.3H2351.6 M2351.6,54.4h-5.8h-7.3h-6.5
				c-11.8,0-22.4,7-27.1,17.8l-2.6,5.9c0,0,0,0.1,0,0.1l-4.5,10.5c0,0.1-0.1,0.2-0.1,0.3l-3.5,8.4c-4.5-14.2-12.4-23.4-19.5-29
				c-0.1,0-0.1-0.1-0.2-0.1c-17.5-13.9-38.1-13.9-44.8-13.9h-27.4H2129h-9.7c-16.3,0-29.5,13.2-29.5,29.5v9.7v13.7L2072,75.1
				l-2.4-4.6c-5-9.9-15.2-16.1-26.3-16.1h-5.8h-7.3h-6.5c-4.3,0-8.4,0.9-12.2,2.6c-3.7-1.7-7.9-2.6-12.2-2.6h-9.6h-123.9h-17.2h-9.7
				c-7.8,0-14.8,3-20.1,7.9c-5.4-5-12.5-7.9-20.1-7.9h-5.8h-7.3h-6.5c-11.8,0-22.4,7-27.1,17.8l-2.6,5.9c0,0,0,0.1,0,0.1l-4.5,10.5
				c0,0.1-0.1,0.2-0.1,0.3l-52.4,126.1c0,0,0,0,0,0.1l-5.6,13.6c-3.8,9.1-2.7,19.5,2.7,27.7c5.5,8.2,14.7,13.1,24.6,13.1h14.7h50.1
				h9.7c1.7,0,3.4-0.1,5-0.4c1.6,0.3,3.3,0.4,5,0.4h5.9h63.1h11.3c0.8,0.1,1.6,0.1,2.4,0.1h9.7h56.1h9.7c0.8,0,1.6,0,2.4-0.1h14
				h50.1h9.7c1.7,0,3.4-0.1,5-0.4c1.6,0.3,3.3,0.4,5,0.4h5.9h63.1h4.6c0.8,0.1,1.6,0.1,2.4,0.1h9.7h56.1h9.7h7.5h63h9.7
				c0.8,0,1.6,0,2.4-0.1h4.1h50.1h9.7c1.7,0,3.4-0.1,5-0.4c1.6,0.3,3.3,0.4,5,0.4h5.9h63.1h16.5c10.4,0,20.1-5.5,25.4-14.5
				c5.3-9,5.5-20.1,0.4-29.3l-7.9-14.4l-74.7-136.3l-2.4-4.6C2372.9,60.6,2362.8,54.4,2351.6,54.4L2351.6,54.4z"/>
		</g>
	</g>
	<g>
		<g>
			<g>
				<g>
					<path d="M182.3,888.3c-31.1,0-59.7-9.3-85.1-27.6c-22.8-16.5-43-40.3-60-70.8l-1.8-3.2l65.8-69.2l2.6,7.9
						c5.9,18.5,16.6,35.5,30.1,48c14.5,13.4,30.9,20.4,47.7,20.4c26.8,0,54-22.7,54-66.2c0-44.2-35.2-58.7-69.2-72.7
						c-2.5-1-4.8-2-7.2-3H159C96.2,624,54.3,589.8,54.3,513.2c0-41,13.9-79.2,39.1-107.4c25.7-28.8,60.9-44.8,99.2-44.8
						c39.9,0,99,21.2,128.7,56.5l2.3,2.8L275.8,496l-4.2-6.1c-17.6-25.8-38.7-38.3-64.5-38.3c-24.6,0-50.9,20.3-50.9,50.5
						c0,31.2,28.6,44.2,64.8,60.7c51.9,23.5,116.5,52.9,116.5,152.6c0,50.2-14.3,93.1-41.4,124.3
						C268.3,871.4,228.9,888.3,182.3,888.3z"/>
					<path class="st0" d="M192.7,365.8c40.7,0,97,21.6,124.9,54.7L275.7,487c-16.9-24.8-38.8-40.5-68.5-40.5
						c-28.5,0-55.8,23.5-55.8,55.4c0,82.8,181.3,48.2,181.3,213.2c0,98.5-57,168.2-150.4,168.2c-63,0-109.2-39.2-140.7-95.8
						l57.6-60.6c12.1,37.8,44.2,71.8,82.4,71.8c36.4,0,58.9-33.3,58.9-71.1c0-50.8-43.6-65.2-79.4-80.1
						c-58.9-26.2-101.9-58.1-101.9-134.3C59.2,431.7,115.6,365.8,192.7,365.8 M192.7,356c-39.7,0-76.3,16.4-102.9,46.4
						c-26,29.1-40.3,68.5-40.3,110.7c0,38,10.2,68.2,31.2,92.4c9.2,10.5,20.4,20,34.4,28.8c11.6,7.4,25,14.4,42,22h0.1h0.1
						c2.4,1,4.8,2,7.2,3c16.5,6.8,33.7,13.9,46.4,24.5c13.5,11.4,19.8,25.2,19.8,43.6c0,40.3-24.7,61.2-49,61.2
						c-19.5,0-34.9-10.4-44.3-19.1c-12.9-11.9-23-28.2-28.8-45.9l-5-15.8l-11.3,12l-57.8,60.9l-4.9,5.2l3.5,6.3
						c17.3,31.1,37.9,55.4,61.3,72.4c26.2,18.9,55.7,28.6,87.9,28.6c48.1,0,88.8-17.4,117.6-50.5c13.8-15.9,24.5-34.9,31.7-56.5
						c7.2-21.6,10.8-45.5,10.8-70.9c0-45.7-13.2-81.1-40.4-108.4c-23.2-23.3-52.9-36.7-79-48.6c-17.5-8-34.1-15.5-45.5-24.6
						c-11.4-9.2-16.4-18.9-16.4-31.6c0-27.3,23.8-45.6,46-45.6c12.6,0,23.6,3.1,33.9,9.5c9.6,6,18.3,14.8,26.6,26.7l8.4,12.3l8-12.6
						l41.9-66.5l3.8-6l-4.6-5.5c-14-16.6-35.8-31.8-61.3-42.5C239.7,361.5,214.4,356,192.7,356L192.7,356z"/>
				</g>
				<g>
					<path d="M564.9,888.4c-59.7,0-105-21-134.8-62.3c-26.5-36.7-39.9-88.2-39.9-153.1V374h98.9v280c0,31,1.4,66.4,11.6,94
						c11.7,31.7,32.7,47.1,64.2,47.1s52.5-15.4,64.2-47.1c10.2-27.7,11.6-63.1,11.6-94.1V374h98.8v298.9
						c0,64.9-13.4,116.4-39.9,153.1C669.8,867.3,624.4,888.4,564.9,888.4z"/>
					<path class="st0" d="M734.6,378.8v294.1c0,119.9-47.3,210.6-169.7,210.6s-169.7-90.7-169.7-210.6V378.8h89.1v275.1
						c0,60.6,4.9,146,80.6,146s80.6-85.4,80.6-146V378.8H734.6 M744.4,369h-9.7h-89.1h-9.7v9.7v275.1c0,30.5-1.4,65.5-11.3,92.4
						c-5.1,13.9-12.2,24.6-21.2,31.7c-10.1,8.2-22.7,12.1-38.4,12.1c-15.8,0-28.3-3.9-38.4-12.1c-8.9-7.2-16-17.8-21.2-31.8
						c-9.9-27-11.3-61.8-11.3-92.4v-275V369h-9.7h-89.1h-9.7v9.7v294.1c0,31.5,3.2,60.5,9.6,85.9c6.8,27.3,17.3,50.8,31.2,70.1
						c14.9,20.7,33.9,36.6,56.3,47.4c23.5,11.3,51.3,17,82.4,17c31.1,0,58.9-5.7,82.4-17c22.4-10.7,41.5-26.7,56.3-47.4
						c13.9-19.3,24.4-42.8,31.2-70.1c6.4-25.4,9.6-54.4,9.6-85.9V378.8L744.4,369L744.4,369z"/>
				</g>
				<g>
					<path d="M811,875.2V374h126.2c51.5,0,91.3,12,118.3,35.7c29.7,26.1,44.8,67.1,44.8,121.7c0,52.6-13.3,93-39.4,120.1
						c-25.6,26.5-63.1,40-111.7,40h-39.4v183.8L811,875.2L811,875.2z M923.3,602.1c50.6,0,76.4-11,76.4-71.4
						c0-28.2-6.7-45.9-21.1-55.8c-8.3-5.7-21.6-11.6-57.7-11.6h-10.8v138.8H923.3z"/>
					<path class="st0" d="M937.3,378.8c95.8,0,158.2,41.2,158.2,152.5c0,104.4-52.8,155.2-146.1,155.2h-44.2v183.9H816V378.8H937.3
						 M905.1,607h18.2c52.8,0,81.2-12.4,81.2-76.3c0-63.2-34-72.4-83.7-72.4h-15.8V607 M937.3,369H815.9h-9.7v9.7v491.6v9.7h9.7
						h89.1h9.7v-9.7V696.3h34.5c49.8,0,88.6-14,115.1-41.5c27.1-28.1,40.8-69.6,40.8-123.5c0-28.4-4-53.4-11.9-74.2
						c-7.7-20.6-19.4-37.7-34.7-51.1c-14.5-12.7-32.5-22.3-53.7-28.4C985.5,371.9,962.7,369,937.3,369L937.3,369z M914.8,468.2h6
						c50.1,0,73.9,9.4,73.9,62.5c0,27.7-5.5,45-17.2,54.4c-10.4,8.5-26.7,12-54.3,12h-8.5V468.2L914.8,468.2z"/>
				</g>
				<g>
					<polygon points="1149.3,875.2 1149.3,374 1395.6,374 1395.6,467.1 1248.2,467.1 1248.2,565.7 1390.1,565.7 1390.1,658.8 
						1248.2,658.8 1248.2,782.1 1395.6,782.1 1395.6,875.2 					"/>
					<path class="st0" d="M1390.7,378.8v83.4h-147.3v108.3h141.9v83.4h-141.9v133h147.3v83.5h-236.4V378.8H1390.7 M1400.5,369h-9.7
						h-236.4h-9.7v9.7v491.6v9.7h9.7h236.4h9.7v-9.7V787v-9.7h-9.7h-137.6V663.7h132h9.7V654v-83.4v-9.7h-9.7h-132v-88.7h137.6h9.7
						v-9.7V379V369L1400.5,369z"/>
				</g>
				<g>
					<path d="M1666.8,875.2l-104.4-186.5v186.5h-98.9V374h125.5c48.5,0,86.7,12.1,113.5,35.8c29.3,26,44.2,65.4,44.2,117.1
						c0,33.1-8.7,65.1-24.5,90.1c-16.2,25.8-39,42.7-66,49.5l130,208.8L1666.8,875.2L1666.8,875.2z M1569.1,600.1
						c26.1,0,44.8-4.7,57.3-14.3c14.5-11.2,21.6-29.6,21.6-56.4c0-56-31.2-67.4-78.1-67.4h-7.3v138.2L1569.1,600.1L1569.1,600.1z"/>
					<path class="st0" d="M1589.1,378.8c90.4,0,152.8,43,152.8,148c0,62.5-32.1,125.2-93.4,136.3l129,207.3h-107.9l-110.9-198.2
						h-1.2v198.3h-89.1V378.8H1589.1 M1557.6,605L1557.6,605L1557.6,605h11.4c49.1,0,83.7-15.7,83.7-75.7c0-60.6-35.7-72.4-83-72.4
						h-12.1L1557.6,605 M1589.1,369h-120.6h-9.7v9.7v491.6v9.7h9.7h89.1h9.7v-9.7V707.5l93.7,167.6l2.8,5h5.7h107.9h17.6l-9.4-15
						L1664,669.3c25.4-8,46.9-25,62.5-49.8c16.2-25.8,25.2-58.7,25.2-92.7c0-53.1-15.5-93.7-45.8-120.7
						C1678.2,381.5,1638.9,369,1589.1,369L1589.1,369z M1567.4,466.8h2.4c25.3,0,42.3,3.7,53.6,11.6c4.8,3.4,19.7,13.9,19.7,50.9
						c0,25.2-6.4,42.4-19.6,52.6c-11.6,9-29.3,13.3-54.3,13.3h-1.7L1567.4,466.8L1567.4,466.8z"/>
				</g>
				<g>
					<polygon points="1954.7,888.4 1776.6,374 1882.9,374 1989.6,695.7 2088.6,374 2194.9,374 2013.8,888.4 					"/>
					<path class="st0" d="M2188,378.8l-177.7,504.6h-52.2l-174.7-504.6h95.8L1989.1,710h1.2l101.8-331.2L2188,378.8 M2201.9,369
						h-13.8h-95.8h-7.2l-2.2,6.9l-93.3,303.8l-100.8-303.9l-2.3-6.7h-7.1h-95.8h-13.8l4.5,13L1949,886.6l2.3,6.6h7h52.2h6.9l2.3-6.5
						L2197.3,382L2201.9,369L2201.9,369z"/>
				</g>
				<g>
					<rect x="2225.7" y="374" width="98.9" height="501.4"/>
					<path class="st0" d="M2319.7,378.8v491.6h-89.1V378.8H2319.7 M2329.5,369h-9.7h-89.1h-9.7v9.7v491.6v9.7h9.7h89.1h9.7v-9.7
						V378.8V369L2329.5,369z"/>
				</g>
				<g>
					<path d="M2524.5,888.3c-31.1,0-59.7-9.3-85.1-27.6c-22.8-16.5-43-40.3-60-70.8l-1.8-3.2l65.8-69.2l2.6,7.9
						c5.9,18.5,16.6,35.5,30.1,48c14.5,13.4,30.9,20.4,47.7,20.4c26.8,0,54-22.7,54-66.2c0-44.2-35.2-58.7-69.2-72.7
						c-2.5-1-4.8-2-7.2-3c-62.9-27.9-104.9-62.1-104.9-138.8c0-41,13.9-79.2,39.1-107.4c25.7-28.8,60.9-44.8,99.2-44.8
						c39.9,0,99,21.2,128.7,56.5l2.3,2.8l-47.8,75.8l-4.2-6.1c-17.6-25.8-38.7-38.3-64.5-38.3c-24.6,0-50.9,20.3-50.9,50.5
						c0,31.2,28.6,44.2,64.8,60.7c51.9,23.5,116.5,52.9,116.5,152.6c0,50.2-14.3,93.1-41.4,124.3
						C2610.6,871.4,2571.2,888.3,2524.5,888.3z"/>
					<path class="st0" d="M2535,365.8c40.7,0,97,21.6,124.9,54.7L2618,487c-16.9-24.8-38.8-40.5-68.5-40.5
						c-28.5,0-55.8,23.5-55.8,55.4c0,82.8,181.3,48.2,181.3,213.2c0,98.5-57,168.2-150.4,168.2c-63,0-109.2-39.2-140.7-95.8
						l57.6-60.6c12.1,37.8,44.2,71.8,82.4,71.8c36.4,0,58.9-33.3,58.9-71.1c0-50.8-43.6-65.2-79.4-80.1
						c-58.9-26-101.8-58.1-101.8-134.3C2401.6,431.7,2457.9,365.8,2535,365.8 M2535,356c-39.7,0-76.3,16.4-102.9,46.4
						c-26,29.1-40.3,68.5-40.3,110.7c0,38,10.2,68.2,31.2,92.5c9.2,10.5,20.4,20,34.4,28.9c11.6,7.5,25,14.4,42,22h0.1h0.1
						c2.4,1,4.8,2,7.2,3c16.5,6.8,33.7,13.9,46.4,24.5c13.5,11.4,19.8,25.2,19.8,43.6c0,40.3-24.7,61.2-49,61.2
						c-19.5,0-34.9-10.4-44.3-19.1c-12.9-11.9-23-28.2-28.8-45.9l-5-15.8l-11.3,12l-57.7,60.8l-4.9,5.2l3.5,6.3
						c17.3,31.1,37.9,55.4,61.3,72.4c26.2,18.9,55.7,28.6,87.9,28.6c48.1,0,88.8-17.4,117.6-50.5c13.8-15.9,24.5-34.9,31.7-56.5
						c7.2-21.6,10.8-45.5,10.8-70.9c0-45.7-13.2-81.1-40.4-108.4c-23.2-23.3-52.9-36.7-79-48.6c-17.5-8-34.1-15.5-45.5-24.6
						c-11.4-9.2-16.4-18.9-16.4-31.6c0-27.3,23.8-45.6,46-45.6c12.6,0,23.6,3.1,33.9,9.5c9.6,6,18.3,14.8,26.6,26.7l8.4,12.3l8-12.6
						l41.9-66.5l3.8-6l-4.6-5.5c-14-16.6-35.8-31.8-61.3-42.5C2581.9,361.5,2556.7,356,2535,356L2535,356z"/>
				</g>
				<g>
					<rect x="2735.1" y="374" width="98.9" height="501.4"/>
					<path class="st0" d="M2829.1,378.8v491.6H2740V378.8H2829.1 M2838.8,369h-9.7H2740h-9.7v9.7v491.6v9.7h9.7h89.1h9.7v-9.7V378.8
						V369L2838.8,369z"/>
				</g>
				<g>
					<polygon points="3732.9,885.1 3498.4,550.4 3498.4,875.2 3399.6,875.2 3399.6,361 3471.2,361 3705.7,695.5 3705.7,374 
						3804.5,374 3804.5,885.1 					"/>
					<path class="st0" d="M3468.7,365.8l240.7,343.6h1.2V378.8h89.1v501.4h-64.2l-240.7-343.6h-1.2v333.8h-89.1V365.8H3468.7
						 M3473.8,356h-5.1h-64.2h-9.7v9.7v504.6v9.7h9.7h89.1h9.7v-9.7V565.9l224.1,319.9l3,4.1h5.1h64.2h9.7v-9.7V378.8V369h-9.7
						h-89.1h-9.7v9.7V680l-224.2-319.8L3473.8,356L3473.8,356z"/>
				</g>
				<g>
					<path d="M2923.6,776.3c-24.9-43.4-38-96.1-38-152.4c0-73,22.4-139.3,63.1-187c20.6-24,45.1-42.8,73-55.7
						c28.9-13.4,60.9-20.3,94.9-20.3c34,0,66,6.8,94.9,20.3c27.9,12.9,52.5,31.7,73,55.7c40.7,47.7,63.1,114.1,63.1,187
						c0,56.3-13.2,109-38,152.4l-4.3,7.6L3240.9,667l0.3-1.8c2.9-15.1,4.3-30.3,4.3-45.2c0-39.3-12.5-78.2-34.4-106.7
						c-16.8-22-46.9-48.1-94.7-48.1c-47.9,0-77.9,26.2-94.7,48.1c-21.9,28.6-34.4,67.4-34.4,106.7c0,14.9,1.5,30.1,4.3,45.2l0.3,1.8
						l-64.1,116.9L2923.6,776.3z"/>
					<path class="st0" d="M3116.6,365.7c136.4,0,226.2,112,226.2,258.2c0,56.2-13.2,107.8-37.4,150l-59.3-107.7
						c3-15.5,4.4-31.1,4.4-46.1c0-79.6-49.7-159.8-134-159.8s-134,80.2-134,159.8c0,15,1.5,30.6,4.4,46.1l-59.1,107.7
						c-24.2-42.2-37.4-93.7-37.4-150C2890.4,477.8,2980.1,365.7,3116.6,365.7 M3116.6,355.9c-34.8,0-67.3,7-97,20.7
						c-28.6,13.2-53.7,32.4-74.6,57c-20.6,24.1-36.6,52.8-47.6,85.1c-11,32.6-16.6,67.9-16.6,105.1c0,57.1,13.4,110.7,38.7,154.9
						l8.7,15.2l8.4-15.4l59.1-107.7l1.7-3.1l-0.7-3.4c-2.9-14.8-4.2-29.7-4.2-44.3c0-38.2,12.2-76,33.4-103.8
						c16.1-21.1,45-46.3,90.9-46.3c45.9,0,74.7,25.1,90.9,46.2c21.2,27.7,33.4,65.6,33.4,103.8c0,14.6-1.4,29.4-4.2,44.3l-0.7,3.4
						l1.7,3.1l59.3,107.7l8.4,15.3l8.7-15.2c25.3-44.2,38.7-97.7,38.7-154.9c0-37.1-5.6-72.6-16.6-105.1
						c-10.9-32.3-27-60.9-47.6-85.1c-21-24.6-46.1-43.8-74.6-57C3183.9,362.9,3151.2,355.9,3116.6,355.9L3116.6,355.9z"/>
				</g>
				<g>
					<polygon class="st1" points="2920.4,875.2 3116.4,518.5 3312.5,875.2 					"/>
					<path class="st0" d="M3116.4,528.7l187.9,341.7h-375.6L3116.4,528.7 M3116.4,508.4l-8.6,15.7l-187.8,341.7l-8,14.5h16.5h375.6
						h16.5l-8-14.5L3125,524L3116.4,508.4L3116.4,508.4z"/>
				</g>
			</g>
			<g>
				<g>
					<polygon points="1626.6,289.7 1586.3,166.7 1534.5,289.7 1497.5,289.7 1413.8,34.5 1525.9,34.5 1563.9,150.3 1573.4,127.6 
						1542.9,34.5 1655.1,34.5 1692.5,148.7 1702.1,125.9 1672.2,34.5 1769.7,34.5 1754,72.1 1754,72.1 1753,74.5 1746.9,88.8 
						1714.9,165 1714.9,164.9 1705.3,187.7 1704.7,189.4 1662.4,289.7 					"/>
					<path class="st0" d="M1762.4,39.3l-14,33.2v0.1l-6.1,14.3l-1.3,3l-25.7,61.2v-0.1l-15.4,36.5v0.1l-41,97.2h-29l-43.3-132
						l-55.5,132h-18.6h-11.6l-80.3-245.5h101.8l41,124.9l15.4-36.4l-29-88.5h101.9l40.4,123.3l15.4-36.5l-28.5-86.7L1762.4,39.3
						 M1777.1,29.5h-14.8h-83.5h-13.5l4.2,12.8l27.3,83.3l-3.7,9l-32.2-98.4l-2.2-6.7h-7.1h-101.9h-13.5l4.2,12.8l27.9,85l-3.7,9
						l-33-100l-2.2-6.7h-7.1h-101.8H1407l4.2,12.8l80.4,245.5l2.2,6.7h7.1h11.6h18.6h6.5l2.6-6l45.4-107.9l35.2,107.1l2.2,6.7h7.1
						h29h6.5l2.6-6l41-97.2l1.4-3.3v-0.1l3.8-9.1v0.1l10.1-24.1l25.7-61.2l1.2-3l6.1-14.3l2.1-4.8l-0.1-0.1l11.9-28.5L1777.1,29.5
						L1777.1,29.5z"/>
				</g>
				<g>
					<polygon points="1786.4,71.5 1801.2,34.5 2425.7,34.5 2425.7,71.5 					"/>
					<path class="st0" d="M2420.9,39.3v27.2h-627.2l10.9-27.2H2420.9 M2430.6,29.5h-9.7h-616.3h-6.6l-2.5,6.1l-10.9,27.2l-5.4,13.5
						h14.5h627.2h9.7v-9.7V39.3V29.5L2430.6,29.5z"/>
				</g>
				<g>
					<polygon points="1698.2,289.7 1713,252.7 2425.7,252.7 2425.7,289.7 					"/>
					<path class="st0" d="M2420.9,257.7v27.1h-715.4l10.9-27.1L2420.9,257.7 M2430.6,247.8h-9.7h-704.5h-6.6l-2.5,6.1l-10.9,27.1
						l-5.4,13.5h14.5h715.4h9.7v-9.7v-27.1V247.8L2430.6,247.8z"/>
				</g>
				<g>
					<g>
						<path d="M1801.7,235.2l-13.4-25.7h-21c0.4,1.2,1.1,2.1,2.2,2.7l14.3,8.1v15h-62.3l55.1-132.8l5.8-13.6h13.4l80.2,146.4
							L1801.7,235.2L1801.7,235.2z M1774.4,182.5l-1.1-2l-0.9,2H1774.4z"/>
						<path class="st0" d="M1792.9,93.6l74.9,136.7h-63.1l-13.4-25.7h-28.9v3.4c0,3.5,1.9,6.8,4.9,8.5l11.7,6.7v7.3h-50.1
							l52.3-126.2l4.5-10.5L1792.9,93.6 M1765.1,187.5h17.3l-9.6-18.4L1765.1,187.5 M1798.7,83.9h-5.8h-7.3h-6.5l-2.6,5.9l-4.5,10.5
							l0,0l0,0l-52.4,126.1L1714,240h14.7h50.1h9.7v-9.7V223v-2.2l7.3,14l2.8,5.2h5.9h63.1h16.5l-8-14.5l-74.9-136.7L1798.7,83.9
							L1798.7,83.9z M1783.4,214.3h1.9l0.8,1.6l-2.4-1.4L1783.4,214.3L1783.4,214.3z"/>
					</g>
				</g>
				<g>
					<g>
						<path d="M2046.3,235.2l-13.4-25.7h-20.9c0.4,1.2,1.1,2.1,2.2,2.7l14.3,8.1v15h-62.3l55.1-132.8l5.8-13.6h13.4l80.2,146.4
							L2046.3,235.2L2046.3,235.2z M2019,182.5l-1.1-2l-0.9,2H2019z"/>
						<path class="st0" d="M2037.6,93.6l74.9,136.7h-63.1l-13.4-25.7H2007v3.4c0,3.5,1.9,6.8,4.9,8.5l11.7,6.7v7.3h-50.1l52.4-126.1
							l4.5-10.5h7.1 M2009.8,187.5h17.3l-9.6-18.4L2009.8,187.5 M2043.4,83.9h-5.8h-7.3h-6.5l-2.6,5.9l-4.5,10.5l0,0l0,0
							l-52.4,126.1l-5.6,13.6h14.7h50.1h9.7v-9.7V223v-2.2l7.3,14l2.8,5.2h5.9h63.1h16.5l-8-14.5l-74.9-136.7L2043.4,83.9
							L2043.4,83.9z M2028,214.3h1.9l0.8,1.6l-2.4-1.4L2028,214.3L2028,214.3z"/>
					</g>
				</g>
				<g>
					<g>
						<path d="M2354.6,235.2l-13.4-25.7h-20.9c0.4,1.2,1.1,2.1,2.2,2.7l14.3,8.1v15h-62.3l55.1-132.8l5.8-13.6h13.4l80.2,146.4
							H2354.6z M2327.3,182.5l-1.1-2l-0.9,2H2327.3z"/>
						<path class="st0" d="M2345.8,93.6l74.9,136.7h-63.1l-13.4-25.7h-28.9v3.4c0,3.5,1.9,6.8,4.9,8.5l11.7,6.7v7.3h-50.1
							l52.4-126.1l4.5-10.5h7.1 M2318.1,187.5h17.3l-9.6-18.4L2318.1,187.5 M2351.6,83.9h-5.8h-7.3h-6.5l-2.6,5.9l-4.5,10.5l0,0l0,0
							l-52.4,126.1L2267,240h14.7h50.1h9.7v-9.7V223v-2.2l7.3,14l2.8,5.2h5.9h63.1h16.5l-8-14.5l-74.9-136.7L2351.6,83.9
							L2351.6,83.9z M2336.3,214.3h1.9l0.8,1.6l-2.4-1.4L2336.3,214.3L2336.3,214.3z"/>
					</g>
				</g>
				<g>
					<path d="M1886.2,235.3V116.6c-1.4,0.5-2.7,1.2-3.8,2.2c-5.3,4.1-11.6,11.3-11.6,22.1v4.9h-27V88.8h150.8v56.9h-27v-4.9
						c0-10.6-6.3-17.8-11.6-22c-1.2-0.9-2.5-1.7-3.8-2.2v118.6H1886.2z"/>
					<path class="st0" d="M1989.7,93.6v0.3v16.9v29.8h-17.2c0-12.9-7.8-21.4-13.5-25.8c-3.3-2.7-7.6-4-11.7-4v119.5h-56.1V110.9
						c-4.3,0-8.5,1.4-11.7,4c-5.8,4.5-13.5,12.9-13.5,25.8h-17.2v-29.8V93.6h17.2H1989.7 M1999.5,83.9h-9.7h-123.9h-17.2h-9.7v9.7
						v17.2v29.8v9.7h9.7h17.2h9.7v-9.7c0-5.3,1.9-10.1,5.7-14.4v104.1v9.7h9.7h56.1h9.7v-9.7v-104c3.7,4.2,5.7,9.1,5.7,14.4v9.7h9.7
						h17.2h9.7v-9.7v-29.9V93.9v-0.3L1999.5,83.9L1999.5,83.9z"/>
				</g>
				<g>
					<path d="M2197.5,235.3v-70.9h-7.5v70.9h-65.9V88.8h105.6c14.4,0,33.6,3.4,33.6,33.6c0,16.8-6,25.3-13.8,29.5
						c3.7,2.7,7.2,6.3,10.3,10.7c6.5,9.3,10.3,20.7,10.3,30.6v42H2197.5z M2197.5,137.6v-21.8h-7.5v21.8H2197.5z"/>
					<path class="st0" d="M2229.8,93.6c15.9,0,28.7,4.8,28.7,28.7c0,23.9-12.8,28.7-28.7,28.7h3.2c17.9,0,32.4,24.3,32.4,42.2v37.2
						h-63v-70.9h-17.2v70.9H2129V110.9v-0.7V93.6h73.4H2229.8 M2185,142.4h17.2v-31.5H2185V142.4 M2229.8,83.9h-27.4H2129h-9.7v9.7
						v16.5v0.7v119.5v9.7h9.7h56.1h9.7h7.5h63h9.7v-9.7v-37.2c0-10.9-4.2-23.4-11.2-33.5c-2-2.9-4.1-5.4-6.4-7.6
						c7.1-6.5,10.7-16.5,10.7-29.8c0-14.1-4-24.5-12-30.9C2247.8,84.7,2237,83.9,2229.8,83.9L2229.8,83.9z"/>
				</g>
			</g>
		</g>
		<rect x="1776" y="208.1" class="st0" width="15.9" height="9.9"/>
		<rect x="2019.9" y="208.1" class="st0" width="15.9" height="9.9"/>
		<rect x="2327.4" y="208.1" class="st0" width="15.9" height="9.9"/>
	</g>
</g>
</svg>
