<?xml version="1.0" encoding="utf-8"?>
<!-- Generator: Adobe Illustrator 26.0.1, SVG Export Plug-In . SVG Version: 6.00 Build 0)  -->
<svg version="1.1" id="Layer_1" xmlns="http://www.w3.org/2000/svg" xmlns:xlink="http://www.w3.org/1999/xlink" x="0px" y="0px"
	 viewBox="0 0 3839 859" style="enable-background:new 0 0 3839 859;" xml:space="preserve">
<style type="text/css">
	.st0{fill:#FFFFFF;}
	.st1{fill:#EEC21A;stroke:#FFFFFF;stroke-width:9.941;stroke-miterlimit:10;}
	.st2{fill:#EEC21A;}
</style>
<g>
	<g>
		<g>
			<g>
				<polygon points="2199.2,852.3 2199.2,783.4 2173.1,783.4 2173.1,749.7 2263.6,749.7 2263.6,783.4 2237.6,783.4 2237.6,852.3 
									"/>
				<path class="st0" d="M2258.6,754.6v23.8h-25.9v69h-28.5v-69h-0.1h-25.9v-23.8H2258.6 M2268.5,744.7h-9.9h-80.5h-9.9v9.9v23.8
					v9.9h9.9h16.1v59v9.9h9.9h28.5h9.9v-9.9v-59h16h9.9v-9.9v-23.8V744.7L2268.5,744.7z"/>
			</g>
			<g>
				<path d="M2263.8,852.4V749.7h35.7V777c4.6-2.5,9.9-3.7,16.4-3.7c7.5,0,14.3,2.4,19.3,6.9c5.7,5,8.7,12.3,8.7,21v51.2h-35.7
					v-40.3c0-8.2-1.1-8.2-3.5-8.2c-1.7,0-5.3,0-5.3,8.1v40.6H2263.8z"/>
				<path class="st0" d="M2294.5,754.6v32.6h0.3c4.4-5.2,10.1-8.9,21.1-8.9c12,0,23.1,7.4,23.1,22.9v46.2h-25.7v-35.3
					c0-7.8-0.9-13.2-8.4-13.2c-4.4,0-10.2,2.2-10.2,13v35.6h-25.7v-92.8H2294.5 M2304.4,744.7h-9.9h-25.7h-9.9v9.9v92.8v9.9h9.9
					h25.7h9.9v-0.1h8.7h25.7h9.9v-9.9v-46.2c0-12.8-5.6-20.5-10.4-24.7c-5.9-5.2-13.9-8.1-22.6-8.1c-4.2,0-8,0.4-11.4,1.4v-15.1
					V744.7L2304.4,744.7z"/>
			</g>
			<g>
				<path d="M2387.7,854c-25.6,0-42.7-16.1-42.7-40.2c0-23.1,17.4-40.6,40.6-40.6c28.3,0,43.2,15.9,43.2,46.1v3.4h0.7l-2.4,6.6
					C2421.6,844.8,2406.9,854,2387.7,854z M2381.1,824.4c1.4,2.1,3.6,3.2,6.5,3.2c2.9,0,5.6-1.1,6.6-2.5l0.4-0.7H2381.1z
					 M2392.1,801c-1.1-0.9-2.5-1.4-4.2-1.4c-2.3,0-4.1,0.4-5.4,1.4H2392.1z"/>
				<path class="st0" d="M2385.5,778.3c26.7,0,38.3,14.9,38.3,41.2h-49.3c0.7,7.7,5.1,13.1,13.1,13.1c4.2,0,8.6-1.6,10.7-4.8h24.1
					c-5.2,14.5-19.4,21.3-34.7,21.3c-21.6,0-37.8-12.7-37.8-35.2C2350,794.3,2364.3,778.3,2385.5,778.3 M2374.7,806h24.6
					c0-6.3-4.7-11.3-11.3-11.3C2380.3,794.7,2375.9,798.7,2374.7,806 M2385.5,768.3c-26,0-45.5,19.6-45.5,45.5
					c0,13.7,4.9,25.2,14.1,33.5c8.6,7.6,20.2,11.7,33.6,11.7c9.6,0,18.7-2.3,26.1-6.5c8.5-4.9,14.7-12.3,18-21.4l0.6-1.7h1.3v-3.8
					l2.8-7.8h-2.8C2433.2,785.9,2416.1,768.3,2385.5,768.3L2385.5,768.3z"/>
			</g>
			<g>
				<path d="M2473.4,852.3V749.7h52.8c26.8,0,39,19,39,36.7c0,23.8-15.5,38-41.3,38h-11.9v28H2473.4z M2518,792.2
					c9.8,0,10.2-1.7,10.2-4.9c0-2.8,0-4-8.5-4h-7.8v8.8H2518z"/>
				<path class="st0" d="M2526.2,754.6c25.1,0,34,18.4,34,31.7c0,22.5-15.1,33-36.4,33h-16.9v28h-28.5v-92.7H2526.2 M2507,797.2h11
					c7.4,0,15.2-0.5,15.2-9.8c0-8.4-6.5-8.9-13.5-8.9H2507V797.2 M2526.2,744.7h-47.8h-9.9v9.9v92.7v9.9h9.9h28.5h9.9v-9.9v-18.1h7
					c28.6,0,46.3-16.5,46.3-42.9c0-10-3.6-19.9-10-27.3C2554.6,752.5,2544.1,744.7,2526.2,744.7L2526.2,744.7z"/>
			</g>
			<g>
				<path d="M2564.4,852.3V775h34.6v2.4c4-2.8,8.7-4.1,14.3-4.1c2.7,0,5.5,0.4,8.7,1.1l3.8,0.9V809l-6.6-2.3
					c-2.3-0.8-4.1-1.4-8.5-1.4c-5.1,0-10.6,1.2-10.6,15.4v31.6H2564.4z"/>
				<path class="st0" d="M2613.4,778.3c2.6,0,5.1,0.4,7.6,1V802c-2.6-0.9-5-1.7-10.1-1.7c-10.1,0-15.6,6-15.6,20.4v26.6h-25.7V780
					h24.7v10.7h0.3C2598.5,782.7,2604,778.3,2613.4,778.3 M2613.4,768.3c-3.9,0-7.4,0.6-10.7,1.7h-8.6h-24.7h-9.9v9.9v67.4v9.9h9.9
					h25.7h9.9v-9.9v-26.6c0-6.6,1.4-8.8,1.8-9.4c0.2-0.3,0.8-1.1,3.8-1.1c3.6,0,4.8,0.4,6.9,1.1l13.2,4.6v-14v-22.8v-7.8l-7.6-1.8
					C2619.6,768.7,2616.5,768.3,2613.4,768.3L2613.4,768.3z"/>
			</g>
			<g>
				<path d="M2658.6,854c-30.8,0-41.7-21.8-41.7-40.5c0-18.6,10.9-40.3,41.7-40.3c30.8,0,41.7,21.7,41.7,40.3c0,11-3.6,21-10.2,28.1
					C2682.7,849.8,2671.8,854,2658.6,854z M2658.6,801.9c-2.1,0-6.1,0-6.1,11.6c0,11.7,3.9,11.7,6.1,11.7c2.1,0,6.1,0,6.1-11.7
					C2664.6,801.9,2660.7,801.9,2658.6,801.9z"/>
				<path class="st0" d="M2658.6,778.3c25.3,0,36.8,16.6,36.8,35.3c0,18.7-11.4,35.5-36.8,35.5c-25.3,0-36.8-16.7-36.8-35.5
					C2621.8,794.9,2633.2,778.3,2658.6,778.3 M2658.6,830.3c9.7,0,11-9.6,11-16.7c0-7.2-1.3-16.6-11-16.6c-9.7,0-11,9.4-11,16.6
					S2648.8,830.3,2658.6,830.3 M2658.6,768.3c-18.5,0-29.3,7.5-35.2,13.8c-7.4,8-11.5,19.2-11.5,31.4c0,12.3,4.1,23.5,11.5,31.5
					c5.9,6.3,16.7,13.9,35.2,13.9c32.3,0,46.7-22.8,46.7-45.4c0-12.2-4.1-23.4-11.5-31.4C2687.9,775.9,2677,768.3,2658.6,768.3
					L2658.6,768.3z M2658.4,806.9c0.1,0,0.1,0,0.2,0c0.1,0,0.2,0,0.2,0c0.3,0.7,0.9,2.5,0.9,6.7c0,4.3-0.6,6.1-0.9,6.8
					c-0.1,0-0.1,0-0.2,0c-0.1,0-0.1,0-0.2,0c-0.3-0.7-0.9-2.5-0.9-6.8C2657.5,809.4,2658.1,807.6,2658.4,806.9L2658.4,806.9z"/>
			</g>
			<g>
				<path d="M2705.7,852.3v-51.6h-10.4V775h10.5c0.3-5.8,1.7-12.4,6.8-17.5c7.2-7.2,15.7-7.8,26-7.8c2.4,0,4.6,0.1,6.9,0.3
					c1.7,0.1,3.2,0.2,4.8,0.2l4.8,0.1v28.3l-0.7-0.1v22.3h-13v51.6H2705.7z"/>
				<path class="st0" d="M2738.6,754.6c3.9,0,7.7,0.4,11.5,0.5v17.7c-2.1-0.3-4.2-0.9-6.3-0.9c-6.3,0-8.3,1.8-8,8.1h13.5v15.8h-13
					v51.6h-25.7v-51.6h-10.4V780h10.5c-0.3-6.7,0.4-14,5.4-19C2721.7,755.4,2728.2,754.6,2738.6,754.6 M2738.6,744.7
					c-10.7,0-20.9,0.7-29.5,9.3c-4.9,4.9-6.9,10.9-7.8,16.1h-1.1h-9.9v9.9v15.8v9.9h9.9h0.5v41.6v9.9h9.9h25.7h9.9v-9.9v-41.6h3.1
					h9.9v-9.9v-11.6l0.7,0.1v-11.5v-17.7v-9.7l-9.7-0.2c-1.5,0-3-0.1-4.6-0.2C2743.5,744.8,2741.1,744.7,2738.6,744.7L2738.6,744.7z
					"/>
			</g>
			<g>
				<path d="M2792,854c-25.6,0-42.7-16.1-42.7-40.2c0-23.1,17.4-40.6,40.6-40.6c28.3,0,43.2,15.9,43.2,46.1v3.4h0.7l-2.4,6.6
					C2825.9,844.8,2811.1,854,2792,854z M2785.3,824.4c1.4,2.1,3.6,3.2,6.5,3.2c2.9,0,5.6-1.1,6.6-2.5l0.4-0.7H2785.3z M2796.2,801
					c-1.1-0.9-2.5-1.4-4.2-1.4c-2.3,0-4.1,0.4-5.4,1.4H2796.2z"/>
				<path class="st0" d="M2789.8,778.3c26.7,0,38.3,14.9,38.3,41.2h-49.3c0.7,7.7,5.1,13.1,13.1,13.1c4.2,0,8.6-1.6,10.7-4.8h24.1
					c-5.2,14.5-19.4,21.3-34.7,21.3c-21.6,0-37.8-12.7-37.8-35.2C2754.2,794.3,2768.5,778.3,2789.8,778.3 M2778.8,806h24.6
					c0-6.3-4.7-11.3-11.3-11.3C2784.4,794.7,2780,798.7,2778.8,806 M2789.8,768.3c-26,0-45.5,19.6-45.5,45.5
					c0,13.7,4.9,25.2,14.1,33.5c8.6,7.6,20.2,11.7,33.6,11.7c9.6,0,18.7-2.3,26.1-6.5c8.5-4.9,14.7-12.3,18-21.4l0.6-1.7h1.3v-3.8
					l2.8-7.8h-2.8C2837.4,785.9,2820.4,768.3,2789.8,768.3L2789.8,768.3z"/>
			</g>
			<g>
				<path d="M2868.7,853.8c-9.6,0-18.5-2.1-25.1-6c-8.6-5.1-13.2-12.9-13.5-22.6l-0.1-5.1h14.9c-7.6-3.9-13.2-10.1-13.2-20.6
					c0-9.5,4.7-16.9,13.5-21.5c8.3-4.3,18.1-4.9,23.3-4.9c23.4,0,37.1,9.5,37.7,26.1l0.2,5.1h-11.2c8.5,4.5,12.8,11.4,12.8,20.8
					C2908,843.4,2893.7,853.8,2868.7,853.8z M2864.9,825.9c0.2,0.4,0.5,0.9,1.2,1.5c0.3,0.2,1.4,0.7,3.5,0.7c1.1,0,2.2-0.2,2.9-0.4
					C2871.1,827.1,2868.5,826.6,2864.9,825.9z"/>
				<path class="st0" d="M2868.5,778.1c14.5,0,32.1,4,32.7,21.3h-23.5v0.2c-0.1-2.2-1.3-3.9-3-5.1c-1.6-1.3-3.7-2-5.7-2
					c-3.7,0-7.8,0.8-7.8,5.2c0,2,1.6,2.9,3,3.5c4.3,1.8,14,2.4,22.6,5.2c8.5,2.7,16.1,7.8,16.1,18.8c0,18.7-17.9,23.8-34.3,23.8
					c-15.8,0-33.2-6.4-33.6-23.8h24.6c0.1,2.4,1.2,4.3,3.1,6c1.3,1.2,3.8,2,6.9,2c3.4,0,8.7-1.3,8.7-5.2c0-3.9-2.2-5.1-14.1-7.2
					c-19.6-3.4-27.5-9.6-27.5-21.2C2836.7,782.6,2855,778.1,2868.5,778.1 M2868.5,768.1c-25.4,0-41.7,12.3-41.7,31.4
					c0,6,1.5,11.2,4.6,15.6h-6.4l0.2,10.2c0.3,11.3,5.9,20.8,15.9,26.7c7.4,4.3,17.2,6.7,27.6,6.7c11.3,0,20.8-2.1,28.1-6.1
					c10.4-5.7,16.1-15.5,16.1-27.6c0-4.9-1-10.6-4.6-15.8h3.2l-0.4-10.3c-0.4-11.4-6.3-20.5-16.6-25.7
					C2887.7,769.9,2878.9,768.1,2868.5,768.1L2868.5,768.1z"/>
			</g>
			<g>
				<path d="M2943.3,853.8c-9.6,0-18.5-2.1-25.1-6c-8.6-5.1-13.2-12.9-13.5-22.6l-0.1-5.1h14.9c-7.6-3.9-13.2-10.1-13.2-20.6
					c0-9.5,4.7-16.9,13.5-21.5c8.3-4.3,18.1-4.9,23.3-4.9c23.4,0,37.1,9.5,37.7,26.1l0.2,5.1h-11.2c8.5,4.5,12.8,11.4,12.8,20.8
					C2982.5,843.4,2968.2,853.8,2943.3,853.8z M2939.4,825.9c0.2,0.4,0.5,0.9,1.2,1.5c0.3,0.2,1.4,0.7,3.5,0.7
					c1.1,0,2.2-0.2,2.9-0.4C2945.6,827.1,2943.1,826.6,2939.4,825.9z"/>
				<path class="st0" d="M2943.1,778.1c14.5,0,32.1,4,32.7,21.3h-23.5v0.2c-0.1-2.2-1.3-3.9-3-5.1c-1.6-1.3-3.7-2-5.7-2
					c-3.7,0-7.8,0.8-7.8,5.2c0,2,1.6,2.9,3,3.5c4.3,1.8,14,2.4,22.6,5.2c8.5,2.7,16.1,7.8,16.1,18.8c0,18.7-17.9,23.8-34.3,23.8
					c-15.8,0-33.2-6.4-33.6-23.8h24.6c0.1,2.4,1.2,4.3,3.1,6c1.3,1.2,3.8,2,6.9,2c3.4,0,8.7-1.3,8.7-5.2c0-3.9-2.2-5.1-14.1-7.2
					c-19.6-3.4-27.5-9.6-27.5-21.2C2911.2,782.6,2929.5,778.1,2943.1,778.1 M2943.1,768.1c-25.4,0-41.7,12.3-41.7,31.4
					c0,6,1.5,11.2,4.6,15.6h-6.4l0.2,10.2c0.3,11.3,5.9,20.8,15.9,26.7c7.4,4.3,17.2,6.7,27.6,6.7c11.3,0,20.8-2.1,28.1-6.1
					c10.4-5.7,16.1-15.5,16.1-27.6c0-4.9-1-10.6-4.6-15.8h3.2l-0.4-10.3c-0.4-11.4-6.3-20.5-16.6-25.7
					C2962.2,769.9,2953.4,768.1,2943.1,768.1L2943.1,768.1z"/>
			</g>
			<g>
				<rect x="2983.4" y="775" width="35.7" height="77.3"/>
				<path class="st0" d="M3014.1,780v67.4h-25.7V780H3014.1 M3024.1,770h-9.9h-25.7h-9.9v9.9v67.4v9.9h9.9h25.7h9.9v-9.9V780V770
					L3024.1,770z"/>
			</g>
			<g>
				<rect x="2983.4" y="749.7" width="35.7" height="28"/>
				<path class="st0" d="M3014.1,754.6v18.1h-25.7v-18.1H3014.1 M3024.1,744.7h-9.9h-25.7h-9.9v9.9v18.1v9.9h9.9h25.7h9.9v-9.9
					v-18.1V744.7L3024.1,744.7z"/>
			</g>
			<g>
				<path d="M3062.6,854c-30.8,0-41.7-21.8-41.7-40.5c0-18.6,10.9-40.3,41.7-40.3s41.7,21.7,41.7,40.3c0,11-3.6,21-10.2,28.1
					C3086.7,849.8,3075.8,854,3062.6,854z M3062.6,801.9c-2.1,0-6.1,0-6.1,11.6c0,11.7,3.9,11.7,6.1,11.7c2.1,0,6.1,0,6.1-11.7
					C3068.7,801.9,3064.7,801.9,3062.6,801.9z"/>
				<path class="st0" d="M3062.6,778.3c25.3,0,36.8,16.6,36.8,35.3c0,18.7-11.4,35.5-36.8,35.5s-36.8-16.7-36.8-35.5
					C3025.9,794.9,3037.3,778.3,3062.6,778.3 M3062.6,830.3c9.7,0,11-9.6,11-16.7c0-7.2-1.3-16.6-11-16.6c-9.7,0-11,9.4-11,16.6
					S3052.9,830.3,3062.6,830.3 M3062.6,768.3c-18.5,0-29.3,7.5-35.2,13.8c-7.4,8-11.5,19.2-11.5,31.4c0,12.3,4.1,23.5,11.5,31.5
					c5.9,6.3,16.7,13.9,35.2,13.9c32.3,0,46.7-22.8,46.7-45.4c0-12.2-4.1-23.4-11.5-31.4C3092,775.9,3081.1,768.3,3062.6,768.3
					L3062.6,768.3z M3062.4,806.9c0.1,0,0.1,0,0.2,0s0.2,0,0.2,0c0.3,0.7,0.9,2.5,0.9,6.7c0,4.3-0.6,6.1-0.9,6.8c-0.1,0-0.1,0-0.2,0
					c-0.1,0-0.1,0-0.2,0c-0.3-0.7-0.9-2.5-0.9-6.8C3061.5,809.4,3062.1,807.6,3062.4,806.9L3062.4,806.9z"/>
			</g>
			<g>
				<path d="M3105.5,852.4V775h34.8v2.5c4.8-2.8,10.5-4.2,17.3-4.2c7.5,0,14.3,2.4,19.3,6.9c5.7,5,8.7,12.3,8.7,21v51.2h-35.7v-40.3
					c0-8.2-1.1-8.2-3.5-8.2c-1.7,0-5.3,0-5.3,8.1v40.6H3105.5z"/>
				<path class="st0" d="M3157.6,778.3c12,0,23.1,7.4,23.1,22.9v46.2h-25.7v-35.3c0-7.8-0.9-13.2-8.4-13.2c-4.4,0-10.2,2.2-10.2,13
					v35.6h-25.7V780h0.1h24.8v8.5h0.3C3140.4,781.8,3147.3,778.3,3157.6,778.3 M3157.6,768.3c-4.5,0-8.6,0.6-12.4,1.7h-9.8h-24.8
					h-0.1h-9.9v9.9v67.5v9.9h9.9h25.7h9.9v-0.1h8.7h25.7h9.9v-9.9v-46.2c0-12.8-5.6-20.5-10.4-24.7
					C3174.3,771.2,3166.2,768.3,3157.6,768.3L3157.6,768.3z"/>
			</g>
			<g>
				<path d="M3214.3,854c-17.5,0-28.7-9.9-28.7-25.3c0-13.8,8.5-20.1,18.1-23.4h-15.1l0.2-5.2c0.4-10.5,5.5-18.3,14.6-22.5
					c6.1-2.9,14.3-4.3,25-4.3c16.1,0,26.2,3.2,31.8,10c5.1,6.3,5.1,14.1,5.1,20.9v28c0,4.6,0.3,9.3,2.3,12.4l4.9,7.6h-38.7l-1-2.4
					C3227.9,852.7,3221.7,854,3214.3,854z M3221.8,827.5c0.2,0.4,1.1,1.4,3.1,1.4c3.3,0,5.1-1.5,5.6-4.7c-1.3,0.4-2.6,0.7-3.8,0.9
					c-3.8,0.9-4.6,1.5-4.8,1.7l0,0C3221.8,826.9,3221.8,827,3221.8,827.5z M3227.2,798.5c-4.5,0-4.6,1.3-4.7,2.2l-0.1,0.9
					c1.9-0.3,3.7-0.5,5.2-0.8c1.9-0.4,2.7-0.7,3-0.9c0,0,0-0.1,0-0.2C3230.7,798.5,3227.3,798.5,3227.2,798.5z"/>
				<path class="st0" d="M3228.4,778.3c32.2,0,31.9,13.4,31.9,26.3v27.6c0,5.1,0.3,10.7,3.1,15.1h-26.2c-0.7-1.8-1-4.6-0.9-6.4h-0.3
					c-5.5,6.3-13.4,8.1-21.7,8.1c-13,0-23.8-6.3-23.8-20.4c0-21.3,24.9-20.5,38.1-23c3.5-0.7,7.1-1.7,7.1-6c0-4.6-4.3-6.3-8.4-6.3
					c-8,0-9.4,4-9.6,6.9h-23.9c0.4-9.4,5.1-15.1,11.7-18.2C3211.9,779.1,3220.6,778.3,3228.4,778.3 M3224.8,833.8
					c5.9,0,10.3-3.5,10.7-10.5V817c-3.1,1.6-6.6,2.5-10,3.3c-5.7,1.3-8.7,2.7-8.7,7.3C3216.8,830.7,3220.2,833.8,3224.8,833.8
					 M3228.4,768.3c-11.5,0-20.4,1.6-27.2,4.8c-10.7,5-16.9,14.5-17.4,26.8l-0.4,10.4h3.5c-4.1,4.9-6.2,11.1-6.2,18.4
					c0,12.4,5.9,19.5,10.9,23.3c5.9,4.6,13.8,7,22.8,7c5.9,0,11.1-0.8,15.8-2.5l0.3,0.8h6.8h26.2h18.1l-9.7-15.3
					c-1.5-2.4-1.5-7.4-1.5-9.8v-27.6v-0.4c0-7.3,0-16.4-6.2-24.1C3257.5,772.1,3246.1,768.3,3228.4,768.3L3228.4,768.3z"/>
			</g>
			<g>
				<rect x="3269.6" y="749.7" width="35.7" height="102.7"/>
				<path class="st0" d="M3300.3,754.6v92.7h-25.7v-92.7H3300.3 M3310.2,744.7h-9.9h-25.7h-9.9v9.9v92.7v9.9h9.9h25.7h9.9v-9.9
					v-92.7V744.7L3310.2,744.7z"/>
			</g>
			<g>
				<path d="M3417.9,852.3l-3.9-13.2H3392l-4.2,13.2h-39.5l37.7-102.7h34.9l37.4,102.7H3417.9z M3405.4,809.3l-2-6.9l-2.2,6.9
					H3405.4z"/>
				<path class="st0" d="M3417.5,754.6l33.8,92.7h-29.6l-3.9-13.2h-29.4l-4.2,13.2h-28.7l34.1-92.7H3417.5 M3394.4,814.3h17.6
					l-8.3-28.5h-0.3L3394.4,814.3 M3424.4,744.7h-7h-27.9h-6.9l-2.4,6.5l-34.1,92.7l-4.9,13.4h14.2h28.7h7.3l2.2-6.9l2-6.3h14.7
					l1.8,6.1l2.1,7.1h7.4h29.6h14.2l-4.9-13.3l-33.8-92.7L3424.4,744.7L3424.4,744.7z"/>
			</g>
			<g>
				<path d="M3452.3,852.3V775h34.6v2.4c4-2.8,8.7-4.1,14.3-4.1c2.7,0,5.5,0.4,8.7,1.1l3.8,0.9V809l-6.6-2.3
					c-2.3-0.8-4.1-1.4-8.5-1.4c-5.1,0-10.6,1.2-10.6,15.4v31.6H3452.3z"/>
				<path class="st0" d="M3501.2,778.3c2.6,0,5.1,0.4,7.6,1V802c-2.6-0.9-5-1.7-10.1-1.7c-10.1,0-15.6,6-15.6,20.4v26.6h-25.7V780
					h24.7v10.7h0.3C3486.4,782.7,3491.8,778.3,3501.2,778.3 M3501.2,768.3c-3.9,0-7.4,0.6-10.7,1.7h-8.6h-24.7h-9.9v9.9v67.4v9.9
					h9.9h25.7h9.9v-9.9v-26.6c0-6.6,1.4-8.8,1.8-9.4c0.2-0.3,0.8-1.1,3.8-1.1c3.6,0,4.8,0.4,6.9,1.1l13.2,4.6v-14v-22.8v-7.8
					l-7.6-1.8C3507.4,768.7,3504.3,768.3,3501.2,768.3L3501.2,768.3z"/>
			</g>
			<g>
				<path d="M3546.2,853.9c-24,0-41.4-16.9-41.4-40.3c0-11.5,4.3-21.9,12.2-29.3c7.6-7.2,18-11.1,29.3-11.1
					c22.2,0,37.6,12.5,39.2,31.8l0.5,5.4H3556v-4.6l-4.9,0.3c-0.2-1.8-0.7-2.7-1.1-3.1l-0.1-0.1c-0.9-0.8-2.2-1-3.2-1
					c-2.7,0-6.4,0-6.4,11.7c0,11.6,3.5,11.6,6.4,11.6c3.1,0,4.8-2.8,5.1-5.4l0.5-4.4h34.7l-0.7,5.6c-1.3,10-6,18.4-13.6,24.4
					C3565.7,850.9,3556.3,853.9,3546.2,853.9z"/>
				<path class="st0" d="M3546.2,778.2c17.7,0,32.7,8.7,34.3,27.2H3556v0.1c-0.3-2.7-1.2-5-2.9-6.4c-1.6-1.4-3.8-2.2-6.5-2.2
					c-9.8,0-11.3,8.5-11.3,16.7c0,8.2,1.4,16.6,11.3,16.6c5.6,0,9.4-4.6,10-9.8h24.6c-1.2,9-5.5,16.2-11.7,21.2
					c-6.1,4.8-14.3,7.4-23.4,7.4c-20.3,0-36.5-14-36.5-35.3C3509.7,792.4,3525.9,778.2,3546.2,778.2 M3546.2,768.2
					c-12.5,0-24.1,4.4-32.7,12.5c-8.9,8.4-13.8,20.1-13.8,33c0,12.9,4.9,24.6,13.8,32.9c8.5,8,20.1,12.3,32.6,12.3
					c11.3,0,21.7-3.4,29.5-9.5c8.6-6.8,14-16.4,15.4-27.7l1.5-11.2h-1.7l-0.5-5.9C3588.5,782.5,3571.1,768.2,3546.2,768.2
					L3546.2,768.2z"/>
			</g>
			<g>
				<path d="M3611.5,854c-17.5,0-28.7-9.9-28.7-25.3c0-13.8,8.5-20.1,18.1-23.4h-15.1l0.2-5.2c0.4-10.5,5.5-18.3,14.6-22.5
					c6.1-2.9,14.3-4.3,25-4.3c16.1,0,26.2,3.2,31.8,10c5.1,6.3,5.1,14.1,5.1,20.9v28c0,4.6,0.3,9.3,2.3,12.4l4.9,7.6H3631l-1-2.4
					C3625.1,852.7,3618.9,854,3611.5,854z M3619,827.5c0.2,0.4,1.1,1.4,3.1,1.4c3.3,0,5.1-1.5,5.6-4.7c-1.3,0.4-2.6,0.7-3.8,0.9
					c-3.8,0.9-4.6,1.5-4.8,1.7l0,0C3619,826.9,3619,827,3619,827.5z M3624.4,798.5c-4.5,0-4.6,1.3-4.7,2.2l-0.1,0.9
					c1.9-0.3,3.7-0.5,5.2-0.8c1.9-0.4,2.7-0.7,3-0.9c0,0,0-0.1,0-0.2C3627.9,798.5,3624.5,798.5,3624.4,798.5z"/>
				<path class="st0" d="M3625.6,778.3c32.2,0,31.9,13.4,31.9,26.3v27.6c0,5.1,0.3,10.7,3.1,15.1h-26.2c-0.7-1.8-1-4.6-0.9-6.4h-0.3
					c-5.5,6.3-13.4,8.1-21.7,8.1c-13,0-23.8-6.3-23.8-20.4c0-21.3,24.9-20.5,38.1-23c3.5-0.7,7.1-1.7,7.1-6c0-4.6-4.3-6.3-8.4-6.3
					c-8,0-9.4,4-9.6,6.9h-23.9c0.4-9.4,5.1-15.1,11.7-18.2C3609.1,779.1,3617.8,778.3,3625.6,778.3 M3622,833.8
					c5.9,0,10.3-3.5,10.7-10.5V817c-3.1,1.6-6.6,2.5-10,3.3c-5.7,1.3-8.7,2.7-8.7,7.3C3614,830.7,3617.4,833.8,3622,833.8
					 M3625.6,768.3c-11.5,0-20.4,1.6-27.2,4.8c-10.7,5-16.9,14.5-17.4,26.8l-0.4,10.4h3.5c-4.1,4.9-6.2,11.1-6.2,18.4
					c0,12.4,5.9,19.5,10.9,23.3c5.9,4.6,13.8,7,22.8,7c5.9,0,11.1-0.8,15.8-2.5l0.3,0.8h6.8h26.2h18.1L3669,842
					c-1.5-2.4-1.5-7.4-1.5-9.8v-27.6v-0.4c0-7.3,0-16.4-6.2-24.1C3654.7,772.1,3643.3,768.3,3625.6,768.3L3625.6,768.3z"/>
			</g>
			<g>
				<path d="M3696.4,853.9c-10.3,0-19.3-4.8-25.4-13.7c-5-7.3-7.9-17.1-7.9-27c0-7.2,1.2-17.6,6.6-26.1c5.8-9.1,15.2-13.9,27-13.9
					c5,0,9.7,1.2,13.7,3.4v-27h35.7v102.8h-34.7v-1.6C3707.9,852.7,3703.2,853.9,3696.4,853.9z M3705.1,801.9c-1.7,0-6.4,0-6.4,11.6
					c0,11.7,4.5,11.7,6.4,11.7c1.7,0,6.4,0,6.4-11.7C3711.5,801.9,3707,801.9,3705.1,801.9z"/>
				<path class="st0" d="M3741.2,754.5v92.8h-24.7v-7.5h-0.3c-3.3,4.3-7.2,9-19.8,9c-19.1,0-28.3-18.8-28.3-35.7
					c0-15.8,6.1-35.1,28.7-35.1c7.7,0,14.5,3.4,18.4,9h0.3v-32.7H3741.2 M3705.1,830.3c9.2,0,11.3-8.7,11.3-16.7
					s-2.1-16.6-11.3-16.6c-9.2,0-11.3,8.7-11.3,16.6C3693.8,821.6,3695.9,830.3,3705.1,830.3 M3751.2,744.6h-9.9h-25.7h-9.9v9.9
					v14.8c-2.8-0.7-5.7-1.1-8.7-1.1c-17.2,0-26.5,8.8-31.2,16.2c-6.1,9.6-7.4,21-7.4,28.8c0,10.9,3.2,21.7,8.8,29.8
					c7,10.2,17.5,15.8,29.5,15.8c4.9,0,8.9-0.6,12.2-1.6h7.9h24.7h9.9v-9.9v-92.8V744.6L3751.2,744.6z M3704.8,806.9
					c0.1,0,0.2,0,0.3,0c0.1,0,0.2,0,0.3,0c0.3,0.6,1.1,2.4,1.1,6.6c0,4.3-0.8,6.2-1.1,6.7c-0.1,0-0.2,0-0.3,0c-0.1,0-0.2,0-0.3,0
					c-0.3-0.6-1.1-2.4-1.1-6.7C3703.7,809.3,3704.5,807.5,3704.8,806.9L3704.8,806.9z"/>
			</g>
			<g>
				<path d="M3790.2,854c-25.6,0-42.7-16.1-42.7-40.2c0-23.1,17.4-40.6,40.6-40.6c28.3,0,43.2,15.9,43.2,46.1v3.4h0.7l-2.4,6.6
					C3824.1,844.8,3809.4,854,3790.2,854z M3783.6,824.4c1.4,2.1,3.6,3.2,6.5,3.2c2.9,0,5.6-1.1,6.6-2.5l0.4-0.7H3783.6z
					 M3794.5,801c-1.1-0.9-2.5-1.4-4.2-1.4c-2.3,0-4.1,0.4-5.4,1.4H3794.5z"/>
				<path class="st0" d="M3788,778.3c26.7,0,38.3,14.9,38.3,41.2H3777c0.7,7.7,5.1,13.1,13.1,13.1c4.2,0,8.6-1.6,10.7-4.8h24.1
					c-5.2,14.5-19.4,21.3-34.7,21.3c-21.6,0-37.8-12.7-37.8-35.2C3752.4,794.3,3766.8,778.3,3788,778.3 M3777.1,806h24.6
					c0-6.3-4.7-11.3-11.3-11.3C3782.7,794.7,3778.3,798.7,3777.1,806 M3788,768.3c-26,0-45.5,19.6-45.5,45.5
					c0,13.7,4.9,25.2,14.1,33.5c8.6,7.6,20.2,11.7,33.6,11.7c9.6,0,18.7-2.3,26.1-6.5c8.5-4.9,14.7-12.3,18-21.4l0.6-1.7h1.3v-3.8
					l2.8-7.8h-2.8C3835.7,785.9,3818.6,768.3,3788,768.3L3788,768.3z"/>
			</g>
		</g>
		<g>
			<polygon points="3703.9,713.2 3703.9,698.3 3674.6,698.3 3674.6,678.5 3645.3,678.5 3645.3,653.8 3615.9,653.8 3615.9,624.3 
				3586.6,624.2 3586.6,589.9 3557.2,589.9 3557.2,550.6 3527.9,550.6 3527.9,285 3557.2,285 3557.2,245.6 3586.6,245.6 
				3586.6,211.2 3615.9,211.2 3615.9,181.7 3645.3,181.7 3645.3,156.9 3674.6,156.9 3674.6,137.2 3703.9,137.2 3703.9,122.3 
				3831.3,122.3 3831.3,294.9 3743.2,294.9 3743.2,314.6 3713.9,314.6 3713.9,334.3 3684.6,334.3 3684.6,344 3831.3,344 
				3831.3,491.6 3684.6,491.6 3684.6,501.3 3713.9,501.3 3713.9,520.9 3743.2,520.9 3743.2,540.6 3831.3,540.6 3831.3,713.2 			"/>
			<path class="st0" d="M3826.3,127.2v162.7h-88.1v19.7h-29.3v19.7h-29.3V349h146.7v137.7h-146.7v19.6h29.3v19.7h29.3v19.7h88.1
				v162.6h-117.4v-14.9h-29.3v-19.8h-29.3v-24.7h-29.4v-29.5l-29.3-0.1V585h-29.3v-39.4h-29.3V289.9h29.3v-39.4h29.3v-34.4h29.3
				v-29.5h29.3h0.1v-0.1v-24.7h29.3v-19.8h29.3v-14.9H3826.3 M3836.2,117.3h-9.9h-117.4h-9.9v9.9v5h-19.4h-9.9v9.9v9.8h-19.4h-9.9
				v9.9v14.8h-19.5h-9.9v9.9v19.6h-19.4h-9.9v9.9v24.5h-19.4h-9.9v9.9V280h-19.4h-9.9v9.9v255.6v9.9h9.9h19.4V585v9.9h9.9h19.4v24.4
				v9.9l9.9,0l19.4,0.1v19.6v9.9h9.9h19.5v14.7v9.9h9.9h19.4v9.8v9.9h9.9h19.4v5v9.9h9.9h117.4h9.9v-9.9V545.6v-9.9h-9.9h-78.1v-9.7
				V516h-9.9h-19.4v-9.7v-9.6h107.4h9.9v-9.9V349V339h-9.9h-107.4v-9.7v-9.7h19.4h9.9v-9.9v-9.7h78.1h9.9v-9.9V127.2V117.3
				L3836.2,117.3z"/>
		</g>
		<g>
			<polygon points="3227.2,713.2 3227.2,698.3 3197.9,698.3 3197.9,678.5 3168.5,678.5 3168.5,653.8 3139.2,653.8 3139.2,624.3 
				3109.8,624.2 3109.8,589.9 3080.5,589.9 3080.5,550.6 3051.1,550.6 3051.1,285 3080.5,285 3080.5,245.6 3109.8,245.6 
				3109.8,211.2 3139.2,211.2 3139.2,181.7 3168.5,181.6 3168.5,156.9 3197.9,156.9 3197.9,137.2 3227.2,137.2 3227.2,122.3 
				3339.8,122.3 3339.8,294.9 3266.5,294.9 3266.5,314.6 3237.2,314.6 3237.2,354 3207.8,354 3207.8,481.6 3237.2,481.6 
				3237.2,520.9 3266.5,520.9 3266.5,540.6 3329.9,540.6 3329.9,520.9 3359.2,520.9 3359.2,5 3515.9,5 3515.9,589.9 3486.6,589.9 
				3486.6,624.2 3457.2,624.3 3457.2,653.8 3427.9,653.8 3427.9,678.5 3398.6,678.5 3398.5,698.3 3369.2,698.3 3369.2,713.2 			"/>
			<path class="st0" d="M3510.9,9.9v575h-29.3v34.3l-29.3,0.1v29.5h-29.3v24.7h-29.3l-0.1,19.8h-29.3v14.9h-132v-14.9h-29.3v-19.8
				h-29.4v-24.7h-29.3v-29.5l-29.3-0.1V585h-29.3v-39.4h-29.4V289.9h29.4v-39.4h29.3v-34.4h29.3v-29.5l29.3-0.1v-24.7h29.4v-19.8
				h29.3v-14.9h102.7v162.7h-73.4v19.7h-29.3V349h-29.3v137.6h29.3v39.4h29.3v19.7h73.4v-19.7h29.3v-19.7V9.9H3510.9 M3520.9,0h-9.9
				h-146.7h-9.9v9.9v496.3v9.7h-19.4h-9.9v9.9v9.7h-53.5v-9.7V516h-9.9h-19.4v-29.4v-9.9h-9.9h-19.4V358.9h19.4h9.9V349v-29.4h19.4
				h9.9v-9.9v-9.7h63.4h9.9v-9.9V127.2v-9.9h-9.9h-102.7h-9.9v9.9v5h-19.4h-9.9v9.9v9.8h-19.5h-9.9v9.9v14.7l-19.4,0.1l-9.9,0v9.9
				v19.6h-19.4h-9.9v9.9v24.5h-19.4h-9.9v9.9V280h-19.5h-9.9v9.9v255.6v9.9h9.9h19.5V585v9.9h9.9h19.4v24.4v9.9l9.9,0l19.4,0.1v19.6
				v9.9h9.9h19.4v14.7v9.9h9.9h19.5v9.8v9.9h9.9h19.4v5v9.9h9.9h132h9.9v-9.9v-5h19.4h9.9l0-9.9l0-9.9h19.4h9.9v-9.9v-14.7h19.4h9.9
				v-9.9v-19.6l19.4-0.1l9.9,0v-9.9v-24.4h19.4h9.9V585V9.9V0L3520.9,0z"/>
		</g>
		<g>
			<polygon points="2882.4,713.3 2882.4,314.6 2853.1,314.6 2853.1,294.9 2789.6,294.9 2789.6,314.6 2760.3,314.6 2760.3,354 
				2730.9,354 2730.9,481.6 2760.3,481.6 2760.3,520.9 2789.6,520.9 2789.6,540.6 2863,540.6 2863,713.2 2750.3,713.2 2750.3,698.3 
				2721,698.3 2721,678.5 2691.7,678.5 2691.7,653.8 2662.4,653.8 2662.4,624.3 2632.9,624.2 2632.9,589.9 2603.6,589.9 
				2603.6,550.6 2574.3,550.6 2574.3,285 2603.6,285 2603.6,245.6 2632.9,245.6 2632.9,211.2 2662.4,211.2 2662.4,181.7 
				2691.7,181.7 2691.7,156.9 2721,156.9 2721,137.2 2750.3,137.2 2750.3,122.3 2892.4,122.3 2892.4,137.2 2921.7,137.2 
				2921.7,156.9 2951,156.9 2951,181.6 2980.3,181.7 2980.3,211.2 3009.6,211.2 3009.7,245.6 3039.1,245.6 3039.1,713.3 			"/>
			<path class="st0" d="M2887.4,127.2v14.9h29.3v19.8h29.3v24.7l29.3,0.1v29.5h29.3l0.1,34.4h29.3v457.7h-146.7V309.6h-29.3v-19.7
				h-73.5v19.7h-29.3V349H2726v137.6h29.3v39.4h29.3v19.7h73.5v162.6h-102.8v-14.9H2726v-19.8h-29.3v-24.7h-29.3v-29.5l-29.4-0.1
				V585h-29.3v-39.4h-29.3V289.9h29.3v-39.4h29.3v-34.4h29.4v-29.5h29.3v-24.7h29.3v-19.8h29.3v-14.9H2887.4 M2897.3,117.3h-9.9
				h-132.1h-9.9v9.9v5H2726h-9.9v9.9v9.8h-19.4h-9.9v9.9v14.8h-19.4h-9.9v9.9v19.6h-19.5h-9.9v9.9v24.5h-19.4h-9.9v9.9V280h-19.4
				h-9.9v9.9v255.6v9.9h9.9h19.4V585v9.9h9.9h19.4v24.4v9.9l9.9,0l19.5,0.1v19.6v9.9h9.9h19.4v14.7v9.9h9.9h19.4v9.8v9.9h9.9h19.4v5
				v9.9h9.9h102.8h9.9v-9.9V545.6v-9.9h-9.9h-63.5v-9.7V516h-9.9h-19.4v-29.4v-9.9h-9.9h-19.4V358.9h19.4h9.9V349v-29.4h19.4h9.9
				v-9.9v-9.7h53.6v9.7v9.9h9.9h19.4v388.7v9.9h9.9h146.7h9.9v-9.9V250.6v-9.9h-9.9h-19.4l-0.1-24.5l0-9.9h-9.9h-19.4v-19.6v-9.9
				l-9.9,0l-19.4-0.1v-14.7V152h-9.9h-19.4v-9.8v-9.9h-9.9h-19.4v-5V117.3L2897.3,117.3z"/>
		</g>
		<g>
			<polygon points="2434.8,713.2 2434.8,698.3 2405.5,698.3 2405.5,678.5 2376.2,678.5 2376.2,653.8 2346.9,653.8 2346.9,624.3 
				2317.5,624.2 2317.5,589.8 2288.1,589.9 2288.1,550.6 2258.8,550.6 2258.8,285 2288.1,285 2288.1,245.6 2317.5,245.6 
				2317.5,211.2 2346.9,211.2 2346.9,181.7 2376.2,181.7 2376.2,156.9 2405.5,156.9 2405.5,137.2 2434.8,137.2 2434.8,122.3 
				2562.2,122.3 2562.2,294.9 2474.1,294.9 2474.1,314.6 2444.8,314.6 2444.8,354 2415.5,354 2415.5,481.6 2444.8,481.6 
				2444.8,520.9 2474.1,520.9 2474.1,540.6 2562.2,540.6 2562.2,713.2 			"/>
			<path class="st0" d="M2557.2,127.2v162.7h-88.1v19.7h-29.3V349h-29.3v137.6h29.3v39.4h29.3v19.7h88.1v162.6h-117.4v-14.9h-29.3
				v-19.8h-29.3v-24.7h-29.3v-29.5l-29.3-0.1V585v-0.1l-29.4,0.1v-39.4h-29.3V289.9h29.3v-39.4h29.4v-34.4h29.3v-29.5h29.3v-24.7
				h29.3v-19.8h29.3v-14.9H2557.2 M2567.1,117.3h-9.9h-117.4h-9.9v9.9v5h-19.4h-9.9v9.9v9.8h-19.4h-9.9v9.9v14.8h-19.4h-9.9v9.9
				v19.6h-19.4h-9.9v9.9v24.5h-19.5h-9.9v9.9V280h-19.4h-9.9v9.9v255.6v9.9h9.9h19.4V585v10l10,0l19.4-0.1v24.4v9.9l9.9,0l19.4,0.1
				v19.6v9.9h9.9h19.4v14.7v9.9h9.9h19.4v9.8v9.9h9.9h19.4v5v9.9h9.9h117.4h9.9v-9.9V545.6v-9.9h-9.9h-78.1v-9.7V516h-9.9h-19.4
				v-29.4v-9.9h-9.9h-19.4V358.9h19.4h9.9V349v-29.4h19.4h9.9v-9.9v-9.7h78.1h9.9v-9.9V127.2V117.3L2567.1,117.3z"/>
		</g>
		<path class="st1" d="M1801.6,216.2v34.4l-29.3,0.1v39.3h-29.3v255.6h29.3V585h29.3v34.3h29.4v0.1v29.5h29.3v24.7h29.3v19.8h29.3
			v14.9h146.7v-14.9h29.3l0.1-19.8h29.3v-24.7h29.3v-29.5l29.3-0.1V585h29.3v-39.4h29.3V289.9h-29.3v-39.3l-29.3-0.1v-34.4h-29.3
			v-29.5h-29.3V162h-29.3l-0.1-19.9h-29.3v-14.9H1919v14.9h-29.3v19.8l-29.3,0.1v24.7H1831v29.5 M2095,486.6h-29.3v39.4h-29.3v19.7
			h-88.1v-19.7H1919v-39.4h-29.3V349h29.3v-39.4h29.3V290h88.1v19.6h29.3V349h29.3V486.6z"/>
		<g>
			<polygon class="st2" points="1598.8,713.2 1510.5,510.1 1510.5,383.3 1539.9,383.3 1539.9,363.6 1569.2,363.6 1569.2,295 
				1491.1,294.9 1491.1,713.2 1334.5,713.2 1334.5,245.7 1363.8,245.6 1363.8,211.2 1393.2,211.2 1393.2,181.7 1422.5,181.7 
				1422.5,157.1 1451.8,157 1451.8,137.2 1481.2,137.2 1481.3,122.3 1593.8,122.3 1593.8,137.2 1623.2,137.2 1623.2,157 
				1652.5,157.1 1652.5,181.7 1681.8,181.7 1681.8,211.2 1711.2,211.2 1711.2,245.6 1725.9,245.7 1725.9,388 1711.2,388 
				1711.2,426.4 1681.8,426.4 1681.8,456.9 1645,456.9 1756.4,713.2 			"/>
			<path class="st0" d="M1588.9,127.2v14.9h29.3v19.8l29.3,0.1v24.7h29.3v29.5h29.4v34.4l14.7,0.1v132.4h-14.7v38.4h-29.3h-0.1V452
				h-39.5l111.4,256.2h-146.7l-86.6-199.1V388.2h29.3v-19.7h29.3V290l-88.1-0.1v418.3h-146.6V250.7l29.3-0.1v-34.4h29.3v-29.5h29.3
				V162l29.3-0.1v-19.8h29.3l0.1-14.9H1588.9 M1598.8,117.3h-9.9h-102.7h-9.9l-0.1,9.9l0,5h-19.4h-9.9v9.9v9.9l-19.4,0.1l-9.9,0v9.9
				v14.7h-19.4h-9.9v9.9v19.6h-19.4h-9.9v9.9v24.5l-19.4,0.1l-9.9,0v9.9v457.5v9.9h9.9h146.6h9.9v-9.9V299.9l68.2,0.1v58.7h-19.4
				h-9.9v9.9v9.7h-19.4h-9.9v9.9v120.9v2.1l0.8,1.9l86.6,199.1l2.6,6h6.5h146.7h15.2l-6-13.9l-105.4-242.3h24.3h9.9V452v-20.6h19.5
				h9.9v-9.9V393h4.8h9.9v-9.9V250.7v-9.9l-9.9-0.1l-4.8,0v-24.5v-9.9h-9.9h-19.5v-19.6v-9.9h-9.9h-19.4V162v-9.9l-9.9,0l-19.4-0.1
				v-9.9v-9.9h-9.9h-19.4v-5V117.3L1598.8,117.3z"/>
		</g>
		<g>
			<polygon class="st2" points="1209.8,713.2 1209.8,698.3 1180.5,698.3 1180.4,678.5 1151,678.5 1151,653.8 1121.7,653.8 
				1121.7,624.3 1092.4,624.2 1092.4,589.9 1063.1,589.9 1063.1,550.6 1033.7,550.6 1033.7,275.2 944,275.2 944,211.2 973.3,211.2 
				973.3,181.7 1002.6,181.7 1002.7,156.9 1032,156.9 1032,68.3 1188.7,68.3 1188.7,156.9 1218,156.9 1218,181.6 1247.3,181.6 
				1247.3,211.1 1276.7,211.2 1276.7,275.2 1190.3,275.2 1190.4,481.6 1219.7,481.6 1219.7,520.9 1249,520.9 1249,540.6 
				1322.5,540.6 1322.5,713.2 			"/>
			<path class="st0" d="M1183.7,73.3v88.7h29.3v24.7h29.3v29.5l29.3,0.1v54.1h-86.4l0.1,216.3h29.3v39.4h29.3v19.7h73.5v162.6
				h-102.8v-14.9h-29.3l-0.1-19.8H1156v-24.7h-29.3v-29.5l-29.3-0.1V585H1068v-39.4h-29.3V270.3h-89.8v-54.1h29.3v-29.5h29.3
				l0.1-24.7h29.3V73.3H1183.7 M1193.7,63.3h-9.9H1037h-9.9v9.9V152h-19.4h-9.9l0,9.9l-0.1,14.8h-19.4h-9.9v9.9v19.6h-19.4H939v9.9
				v54.1v9.9h9.9h79.8v265.4v9.9h9.9h19.4V585v9.9h9.9h19.4v24.4v9.9l9.9,0l19.4,0.1v19.6v9.9h9.9h19.4v14.7v9.9h9.9h19.4l0,9.9
				l0,9.9h9.9h19.4v5v9.9h9.9h102.8h9.9v-9.9V545.6v-9.9h-9.9H1254v-9.7V516h-9.9h-19.4v-29.4v-9.9h-9.9h-19.4l-0.1-196.4h76.4h9.9
				v-9.9v-54.1v-9.9l-9.9,0l-19.4-0.1v-19.6v-9.9h-9.9H1223v-14.7V152h-9.9h-19.4V73.3V63.3L1193.7,63.3z"/>
		</g>
		<g>
			<polygon class="st2" points="628.5,713.2 628.5,698.3 599.2,698.3 599.2,678.5 569.8,678.5 569.8,653.8 540.5,653.8 540.5,624.3 
				511.2,624.2 511.1,589.9 481.8,589.9 481.8,501.3 638.4,501.3 638.4,520.9 667.7,520.9 667.8,540.5 745.9,540.5 745.9,520.9 
				775.3,520.9 775.2,491.5 745.9,491.5 745.9,471.9 540.5,471.9 540.5,432.6 511.2,432.6 511.2,393.3 481.8,393.3 481.8,245.7 
				511.2,245.6 511.2,211.2 540.5,211.2 540.5,181.7 569.8,181.7 569.8,157.1 599.2,157 599.2,137.2 628.5,137.2 628.5,122.3 
				785.1,122.3 785.2,137.2 814.6,137.2 814.6,156.9 843.9,156.9 843.9,181.6 873.2,181.7 873.2,211.2 902.5,211.2 902.5,245.6 
				932,245.6 932,334.3 775.3,334.3 775.2,314.6 745.9,314.6 745.9,294.9 667.8,295 667.7,314.6 638.4,314.6 638.4,344 667.7,344 
				667.8,363.6 873.2,363.6 873.2,403 902.5,403 902.6,442.2 932,442.2 932,589.8 902.6,589.8 902.5,624.2 873.2,624.2 873.2,653.8 
				843.9,653.8 843.9,678.5 814.6,678.5 814.6,698.3 785.2,698.3 785.1,713.2 			"/>
			<path class="st0" d="M780.2,127.2l0.1,14.9h29.3v19.8h29.3v24.7l29.3,0.1v29.5h29.3v34.4H927v78.7H780.3l-0.1-19.7h-29.3v-19.7
				l-88,0.1l-0.1,19.6h-29.3V349h29.3l0.1,19.6h205.4v39.4h29.3l0.1,39.3H927v137.7h-29.3l-0.1,34.4h-29.3v29.6h-29.3v24.7h-29.3
				v19.8h-29.3l-0.1,14.9H633.5v-14.9h-29.3v-19.8h-29.3v-24.7h-29.3v-29.5l-29.3-0.1l-0.1-34.3h-29.3v-78.7h146.7v19.7h29.3
				l0.1,19.6h88v-19.6h29.4l-0.1-39.4h-29.3V467H545.5v-39.4h-29.3v-39.4l-0.1,0.1h-29.3V250.7l29.4-0.1v-34.4h29.3v-29.5h29.3V162
				l29.3-0.1v-19.8h29.3v-14.9h117.4H780.2 M790,117.3h-9.9h-29.3H633.5h-9.9v9.9v5h-19.4h-9.9v9.9v9.9l-19.4,0.1l-9.9,0v9.9v14.7
				h-19.4h-9.9v9.9v19.6h-19.4h-9.9v9.9v24.5l-19.5,0.1l-9.9,0v9.9v137.7v9.9h9.9h19.5v29.3v9.9h9.9h19.4V467v9.9h9.9h195.4v9.6v9.9
				h9.9h19.4l0,19.5h-19.5h-9.9v9.9v9.6h-68.1l0-9.7l-0.1-9.9h-9.9h-19.4v-9.7v-9.9h-9.9H486.7h-9.9v9.9V585v9.9h9.9h19.4l0.1,24.4
				l0,9.9l9.9,0l19.4,0.1v19.6v9.9h9.9h19.4v14.7v9.9h9.9h19.4v9.8v9.9h9.9h19.4v5v9.9h9.9h146.7h9.9l0.1-9.9l0-5h19.4h9.9v-9.9
				v-9.8h19.4h9.9v-9.9v-14.7h19.4h9.9v-9.9v-19.7h19.4h9.9l0-9.9l0.1-24.5H927h9.9v-9.9V447.2v-9.9H927h-19.4l-0.1-29.3l0-9.9h-9.9
				h-19.4v-29.4v-9.9h-9.9H672.8l0-9.7l-0.1-9.9h-9.9h-19.4v-19.5h19.4h9.9l0.1-9.9l0-9.7l68.1-0.1v9.7v9.9h9.9h19.4l0,9.8l0,9.9
				h9.9H927h9.9v-9.9v-78.7v-9.9H927h-19.5v-24.5v-9.9h-9.9h-19.4v-19.6v-9.9l-9.9,0l-19.4-0.1v-14.7V152h-9.9h-19.4v-9.8v-9.9h-9.9
				h-19.4l0-5L790,117.3L790,117.3z"/>
		</g>
		<g>
			<polygon class="st2" points="313.1,713.3 313.1,314.6 283.8,314.6 283.8,294.9 220.3,295 220.2,314.6 190.9,314.6 190.9,354 
				161.6,354 161.6,481.6 190.9,481.6 190.9,520.9 220.3,520.9 220.3,540.6 293.7,540.6 293.7,713.2 181,713.2 181,698.3 
				151.7,698.3 151.7,678.5 122.4,678.5 122.4,653.8 93,653.8 93,624.2 63.6,624.2 63.6,589.9 34.3,589.9 34.3,550.6 5,550.6 5,285 
				34.3,285 34.3,245.7 63.6,245.6 63.6,211.2 93,211.2 93,181.7 122.4,181.7 122.4,157.1 151.7,157 151.7,137.2 181,137.2 
				181,122.3 323,122.3 323,137.2 352.4,137.2 352.4,156.9 381.7,156.9 381.7,181.7 411,181.7 411.1,211.2 440.4,211.2 440.4,245.6 
				469.8,245.6 469.8,713.3 			"/>
			<path class="st0" d="M318.1,127.2v14.9h29.3v19.8h29.3v24.7H406l0.1,29.5h29.3v34.4h29.3v457.7H318.1V309.6h-29.3v-19.7
				l-73.4,0.1l-0.1,19.6H186V349h-29.3v137.6H186v39.4h29.3v19.7h73.5v162.6H186v-14.9h-29.3v-19.8h-29.3v-24.7H98v-29.5v-0.1H68.6
				V585H39.3v-39.4H9.9V289.9h29.3v-39.3l29.3-0.1v-34.4H98v-29.5h29.3V162l29.3-0.1v-19.8H186v-14.9H318.1 M328,117.3h-9.9H186H176
				v9.9v5h-19.4h-9.9v9.9v9.9l-19.4,0.1l-9.9,0v9.9v14.7H98h-9.9v9.9v19.6H68.6h-9.9v9.9v24.5l-19.4,0.1l-9.9,0v9.9V280H9.9H0v9.9
				v255.6v9.9h9.9h19.4V585v9.9h9.9h19.4v24.4v9.9h9.9h19.5v19.7v9.9H98h19.4v14.7v9.9h9.9h19.4v9.8v9.9h9.9H176v5v9.9h9.9h102.8
				h9.9v-9.9V545.6v-9.9h-9.9h-63.5v-9.7V516h-9.9h-19.4v-29.4v-9.9H186h-19.4V358.9H186h9.9V349v-29.4h19.4h9.9l0.1-9.9l0-9.7
				l53.5-0.1v9.7v9.9h9.9h19.4v388.7v9.9h9.9h146.7h9.9v-9.9V250.6v-9.9h-9.9h-19.4v-24.5v-9.9h-9.9H416l-0.1-19.6l0-9.9H406h-19.4
				v-14.8V152h-9.9h-19.4v-9.8v-9.9h-9.9H328v-5V117.3L328,117.3z"/>
		</g>
	</g>
	<g>
		<g>
			<g>
				<polygon points="2178.1,778.4 2204,778.4 2204.1,778.4 2204.1,847.4 2232.7,847.4 2232.7,778.4 2258.6,778.4 2258.6,754.6 
					2178.1,754.6 				"/>
			</g>
			<g>
				<path d="M2315.9,778.3c-10.9,0-16.7,3.8-21.1,8.9h-0.3v-32.6h-25.7v92.8h25.7v-35.6c0-10.8,5.9-13,10.2-13
					c7.6,0,8.4,5.5,8.4,13.2v35.3h25.7v-46.2C2338.9,785.6,2327.9,778.3,2315.9,778.3z"/>
			</g>
			<g>
				<path d="M2385.5,778.3c-21.3,0-35.6,16-35.6,35.6c0,22.5,16.2,35.2,37.8,35.2c15.3,0,29.5-6.8,34.7-21.3h-24.1
					c-2.1,3.2-6.6,4.8-10.7,4.8c-8.1,0-12.4-5.5-13.1-13.1h49.3C2423.8,793.2,2412.3,778.3,2385.5,778.3z M2374.7,806
					c1.2-7.4,5.6-11.3,13.2-11.3c6.7,0,11.3,5.1,11.3,11.3H2374.7z"/>
			</g>
			<g>
				<path d="M2526.2,754.6h-47.8v92.7h28.5v-28h16.9c21.3,0,36.4-10.5,36.4-33C2560.2,773,2551.3,754.6,2526.2,754.6z M2518,797.2
					h-11v-18.8h12.7c7.1,0,13.5,0.5,13.5,8.9C2533.2,796.7,2525.4,797.2,2518,797.2z"/>
			</g>
			<g>
				<path d="M2594.4,790.7h-0.3V780h-24.7v67.4h25.7v-26.6c0-14.4,5.5-20.4,15.6-20.4c5.2,0,7.6,0.8,10.1,1.7v-22.8
					c-2.5-0.6-5-1-7.6-1C2604,778.3,2598.5,782.7,2594.4,790.7z"/>
			</g>
			<g>
				<path d="M2658.6,778.3c-25.3,0-36.8,16.6-36.8,35.3c0,18.8,11.4,35.5,36.8,35.5c25.3,0,36.8-16.8,36.8-35.5
					C2695.4,794.9,2683.9,778.3,2658.6,778.3z M2658.6,830.3c-9.7,0-11-9.5-11-16.7s1.3-16.6,11-16.6s11,9.4,11,16.6
					C2669.6,820.6,2668.3,830.3,2658.6,830.3z"/>
			</g>
			<g>
				<path d="M2716.1,761c-5,5-5.7,12.3-5.4,19h-10.5v15.8h10.4v51.6h25.7v-51.6h13V780h-13.5c-0.4-6.3,1.7-8.1,8-8.1
					c2.1,0,4.2,0.6,6.3,0.9v-17.7c-3.9-0.1-7.7-0.5-11.5-0.5C2728.2,754.6,2721.7,755.4,2716.1,761z"/>
			</g>
			<g>
				<path d="M2789.8,778.3c-21.3,0-35.6,16-35.6,35.6c0,22.5,16.2,35.2,37.8,35.2c15.3,0,29.5-6.8,34.7-21.3h-24.1
					c-2.1,3.2-6.6,4.8-10.7,4.8c-8.1,0-12.4-5.5-13.1-13.1h49.3C2828.1,793.2,2816.5,778.3,2789.8,778.3z M2778.8,806
					c1.2-7.4,5.6-11.3,13.2-11.3c6.7,0,11.3,5.1,11.3,11.3H2778.8z"/>
			</g>
			<g>
				<path d="M2886.9,806.3c-8.5-2.8-18.3-3.4-22.6-5.2c-1.4-0.6-3-1.5-3-3.5c0-4.4,4.1-5.2,7.8-5.2c2,0,4.1,0.7,5.7,2
					c1.7,1.2,2.9,2.9,3,5.1v-0.2h23.5c-0.6-17.3-18.2-21.3-32.7-21.3c-13.5,0-31.8,4.5-31.8,21.5c0,11.5,8,17.8,27.5,21.2
					c11.9,2.1,14.1,3.3,14.1,7.2s-5.4,5.2-8.7,5.2c-3.1,0-5.6-0.8-6.9-2c-1.9-1.7-3-3.6-3.1-6h-24.6c0.4,17.4,17.8,23.8,33.6,23.8
					c16.4,0,34.3-5.1,34.3-23.8C2903,814.1,2895.4,809,2886.9,806.3z"/>
			</g>
			<g>
				<path d="M2961.4,806.3c-8.5-2.8-18.3-3.4-22.6-5.2c-1.4-0.6-3-1.5-3-3.5c0-4.4,4.1-5.2,7.8-5.2c2,0,4.1,0.7,5.7,2
					c1.7,1.2,2.9,2.9,3,5.1v-0.2h23.5c-0.6-17.3-18.2-21.3-32.7-21.3c-13.5,0-31.8,4.5-31.8,21.5c0,11.5,8,17.8,27.5,21.2
					c11.9,2.1,14.1,3.3,14.1,7.2s-5.4,5.2-8.7,5.2c-3.1,0-5.6-0.8-6.9-2c-1.9-1.7-3-3.6-3.1-6h-24.6c0.4,17.4,17.8,23.8,33.6,23.8
					c16.4,0,34.3-5.1,34.3-23.8C2977.5,814.1,2970,809,2961.4,806.3z"/>
			</g>
			<g>
				<rect x="2988.4" y="780" width="25.7" height="67.4"/>
			</g>
			<g>
				<rect x="2988.4" y="754.6" width="25.7" height="18.1"/>
			</g>
			<g>
				<path d="M3062.6,778.3c-25.3,0-36.8,16.6-36.8,35.3c0,18.8,11.4,35.5,36.8,35.5c25.3,0,36.8-16.8,36.8-35.5
					C3099.4,794.9,3088,778.3,3062.6,778.3z M3062.6,830.3c-9.7,0-11-9.5-11-16.7s1.3-16.6,11-16.6s11,9.4,11,16.6
					C3073.7,820.6,3072.4,830.3,3062.6,830.3z"/>
			</g>
			<g>
				<path d="M3157.6,778.3c-10.2,0-17.2,3.5-22,10.2h-0.3V780h-24.8h-0.1v67.5h25.7v-35.6c0-10.8,5.9-13,10.2-13
					c7.6,0,8.4,5.5,8.4,13.2v35.3h25.7v-46.2C3180.6,785.6,3169.6,778.3,3157.6,778.3z"/>
			</g>
			<g>
				<path d="M3260.3,832.3v-27.6c0-12.9,0.3-26.3-31.9-26.3c-7.9,0-16.5,0.8-23,3.9c-6.7,3.1-11.3,8.7-11.7,18.2h23.9
					c0.2-2.9,1.7-6.9,9.6-6.9c4.2,0,8.4,1.7,8.4,6.3c0,4.3-3.6,5.3-7.1,6c-13.1,2.5-38.1,1.7-38.1,23c0,14.1,10.7,20.4,23.8,20.4
					c8.2,0,16.2-1.8,21.7-8.1h0.3c-0.1,1.8,0.2,4.6,0.9,6.4h26.2C3260.6,843,3260.3,837.3,3260.3,832.3L3260.3,832.3z M3235.6,823.3
					c-0.4,7.1-4.9,10.5-10.7,10.5c-4.7,0-8.1-3.2-8.1-6.3c0-4.6,3.1-6,8.7-7.3c3.5-0.8,7-1.7,10-3.3V823.3z"/>
			</g>
			<g>
				<rect x="3274.5" y="754.6" width="25.7" height="92.7"/>
			</g>
			<g>
				<path d="M3389.5,754.6l-34.1,92.7h28.7l4.2-13.2h29.4l3.9,13.2h29.6l-33.8-92.7H3389.5z M3394.4,814.3l8.9-28.5h0.3l8.3,28.5
					H3394.4z"/>
			</g>
			<g>
				<path d="M3482.2,790.7h-0.3V780h-24.7v67.4h25.7v-26.6c0-14.4,5.5-20.4,15.6-20.4c5.2,0,7.6,0.8,10.1,1.7v-22.8
					c-2.5-0.6-5-1-7.6-1C3491.8,778.3,3486.4,782.7,3482.2,790.7z"/>
			</g>
			<g>
				<path d="M3546.7,830.3c-9.9,0-11.3-8.4-11.3-16.6s1.5-16.7,11.3-16.7c2.7,0,4.9,0.8,6.5,2.2c1.7,1.4,2.6,3.7,2.9,6.4v-0.1h24.5
					c-1.6-18.5-16.6-27.2-34.3-27.2c-20.3,0-36.5,14.2-36.5,35.5s16.2,35.3,36.5,35.3c9,0,17.3-2.6,23.4-7.4
					c6.3-5,10.5-12.1,11.7-21.2h-24.6C3556.1,825.7,3552.3,830.3,3546.7,830.3z"/>
			</g>
			<g>
				<path d="M3657.5,832.3v-27.6c0-12.9,0.3-26.3-31.9-26.3c-7.9,0-16.5,0.8-23,3.9c-6.7,3.1-11.3,8.7-11.7,18.2h23.9
					c0.2-2.9,1.7-6.9,9.6-6.9c4.2,0,8.4,1.7,8.4,6.3c0,4.3-3.6,5.3-7.1,6c-13.1,2.5-38.1,1.7-38.1,23c0,14.1,10.7,20.4,23.8,20.4
					c8.2,0,16.2-1.8,21.7-8.1h0.3c-0.1,1.8,0.2,4.6,0.9,6.4h26.2C3657.8,843,3657.5,837.3,3657.5,832.3L3657.5,832.3z M3632.8,823.3
					c-0.4,7.1-4.9,10.5-10.7,10.5c-4.7,0-8.1-3.2-8.1-6.3c0-4.6,3.1-6,8.7-7.3c3.5-0.8,7-1.7,10-3.3V823.3z"/>
			</g>
			<g>
				<path d="M3715.5,787.2h-0.3c-3.9-5.7-10.7-9-18.4-9c-22.7,0-28.7,19.3-28.7,35.1c0,16.9,9.2,35.7,28.3,35.7
					c12.6,0,16.5-4.8,19.8-9h0.3v7.5h24.7v-92.8h-25.7V787.2z M3705.1,830.3c-9.2,0-11.3-8.6-11.3-16.7c0-7.9,2.1-16.6,11.3-16.6
					c9.2,0,11.3,8.6,11.3,16.6S3714.4,830.3,3705.1,830.3z"/>
			</g>
			<g>
				<path d="M3790.1,832.6c-8.1,0-12.4-5.5-13.1-13.1h49.3c0-26.2-11.5-41.2-38.3-41.2c-21.3,0-35.6,16-35.6,35.6
					c0,22.5,16.2,35.2,37.8,35.2c15.3,0,29.5-6.8,34.7-21.3h-24.1C3798.8,831,3794.3,832.6,3790.1,832.6z M3790.3,794.7
					c6.7,0,11.3,5.1,11.3,11.3h-24.6C3778.3,798.7,3782.7,794.7,3790.3,794.7z"/>
			</g>
		</g>
		<g>
			<polygon points="3708.9,127.2 3708.9,142.1 3679.6,142.1 3679.6,161.9 3650.3,161.9 3650.3,186.6 3650.3,186.7 3650.2,186.7 
				3620.8,186.7 3620.8,216.2 3591.5,216.2 3591.5,250.6 3562.2,250.6 3562.2,289.9 3532.9,289.9 3532.9,545.6 3562.2,545.6 
				3562.2,585 3591.5,585 3591.5,619.2 3620.8,619.3 3620.8,648.9 3650.3,648.9 3650.3,673.5 3679.6,673.5 3679.6,693.3 
				3708.9,693.3 3708.9,708.2 3826.3,708.2 3826.3,545.6 3738.2,545.6 3738.2,525.9 3708.9,525.9 3708.9,506.2 3679.6,506.2 
				3679.6,486.7 3826.3,486.7 3826.3,349 3679.6,349 3679.6,329.3 3708.9,329.3 3708.9,309.6 3738.2,309.6 3738.2,289.9 
				3826.3,289.9 3826.3,127.2 			"/>
		</g>
		<g>
			<polygon points="3364.2,9.9 3364.2,506.2 3364.2,525.9 3334.9,525.9 3334.9,545.6 3261.5,545.6 3261.5,525.9 3232.2,525.9 
				3232.2,486.6 3202.9,486.6 3202.9,349 3232.2,349 3232.2,309.6 3261.5,309.6 3261.5,289.9 3334.9,289.9 3334.9,127.2 
				3232.2,127.2 3232.2,142.1 3202.9,142.1 3202.9,161.9 3173.5,161.9 3173.5,186.6 3144.1,186.7 3144.1,216.2 3114.8,216.2 
				3114.8,250.6 3085.5,250.6 3085.5,289.9 3056.1,289.9 3056.1,545.6 3085.5,545.6 3085.5,585 3114.8,585 3114.8,619.2 
				3144.1,619.3 3144.1,648.9 3173.5,648.9 3173.5,673.5 3202.9,673.5 3202.9,693.3 3232.2,693.3 3232.2,708.2 3364.2,708.2 
				3364.2,693.3 3393.5,693.3 3393.6,673.5 3422.9,673.5 3422.9,648.9 3452.3,648.9 3452.3,619.3 3481.6,619.2 3481.6,585 
				3510.9,585 3510.9,9.9 			"/>
		</g>
		<g>
			<polygon points="3004.8,250.6 3004.7,216.2 2975.4,216.2 2975.4,186.7 2946,186.6 2946,161.9 2916.7,161.9 2916.7,142.1 
				2887.4,142.1 2887.4,127.2 2755.3,127.2 2755.3,142.1 2726,142.1 2726,161.9 2696.6,161.9 2696.6,186.7 2667.3,186.7 
				2667.3,216.2 2637.9,216.2 2637.9,250.6 2608.6,250.6 2608.6,289.9 2579.3,289.9 2579.3,545.6 2608.6,545.6 2608.6,585 
				2637.9,585 2637.9,619.2 2667.3,619.3 2667.3,648.9 2696.6,648.9 2696.6,673.5 2726,673.5 2726,693.3 2755.3,693.3 2755.3,708.2 
				2858.1,708.2 2858.1,545.6 2784.6,545.6 2784.6,525.9 2755.3,525.9 2755.3,486.6 2726,486.6 2726,349 2755.3,349 2755.3,309.6 
				2784.6,309.6 2784.6,289.9 2858.1,289.9 2858.1,309.6 2887.4,309.6 2887.4,708.3 3034.1,708.3 3034.1,250.6 			"/>
		</g>
		<g>
			<polygon points="2439.8,127.2 2439.8,142.1 2410.5,142.1 2410.5,161.9 2381.2,161.9 2381.2,186.7 2351.8,186.7 2351.8,216.2 
				2322.5,216.2 2322.5,250.6 2293.1,250.6 2293.1,289.9 2263.8,289.9 2263.8,545.6 2293.1,545.6 2293.1,585 2322.5,584.9 
				2322.5,585 2322.5,619.2 2351.8,619.3 2351.8,648.9 2381.2,648.9 2381.2,673.5 2410.5,673.5 2410.5,693.3 2439.8,693.3 
				2439.8,708.2 2557.2,708.2 2557.2,545.6 2469.1,545.6 2469.1,545.6 2469.1,525.9 2439.8,525.9 2439.8,486.6 2410.5,486.6 
				2410.5,349 2439.8,349 2439.8,309.6 2469.1,309.6 2469.1,289.9 2557.2,289.9 2557.2,127.2 			"/>
		</g>
		<path class="st2" d="M1801.6,216.2v34.4l-29.3,0.1v39.3h-29.3v255.6h29.3V585h29.3v34.3h29.4v0.1v29.5h29.3v24.7h29.3v19.8h29.3
			v14.9h146.7v-14.9h29.3l0.1-19.8h29.3v-24.7h29.3v-29.5l29.3-0.1V585h29.3v-39.4h29.3V289.9h-29.3v-39.3l-29.3-0.1v-34.4h-29.3
			v-29.5h-29.3V162h-29.3l-0.1-19.9h-29.3v-14.9H1919v14.9h-29.3v19.8l-29.3,0.1v24.7H1831v29.5 M2095,486.6h-29.3v39.4h-29.3v19.7
			h-88.1v-19.7H1919v-39.4h-29.3V349h29.3v-39.4h29.3V290h88.1v19.6h29.3V349h29.3V486.6z"/>
		<g>
			<polygon class="st2" points="1637.4,452 1676.8,452 1676.8,421.4 1676.9,421.4 1706.3,421.4 1706.3,383.1 1721,383.1 1721,250.7 
				1706.3,250.6 1706.3,216.2 1676.8,216.2 1676.8,186.7 1647.5,186.7 1647.5,162 1618.2,161.9 1618.2,142.1 1588.9,142.1 
				1588.9,127.2 1486.2,127.2 1486.1,142.1 1456.8,142.1 1456.8,161.9 1427.4,162 1427.4,186.7 1398.1,186.7 1398.1,216.2 
				1368.8,216.2 1368.8,250.6 1339.5,250.7 1339.5,708.2 1486.1,708.2 1486.1,289.9 1574.2,290 1574.2,368.6 1544.8,368.6 
				1544.8,388.2 1515.5,388.2 1515.5,509.1 1602.1,708.2 1748.8,708.2 			"/>
		</g>
		<g>
			<polygon class="st2" points="1244.1,545.6 1244.1,525.9 1214.7,525.9 1214.7,486.6 1185.4,486.6 1185.3,270.3 1271.7,270.3 
				1271.7,216.2 1242.4,216.1 1242.4,186.6 1213,186.6 1213,161.9 1183.7,161.9 1183.7,73.3 1037,73.3 1037,161.9 1007.7,161.9 
				1007.6,186.7 978.3,186.7 978.3,216.2 948.9,216.2 948.9,270.3 1038.7,270.3 1038.7,545.6 1068,545.6 1068,585 1097.3,585 
				1097.3,619.2 1126.7,619.3 1126.7,648.9 1156,648.9 1156,673.5 1185.3,673.5 1185.4,693.3 1214.7,693.3 1214.7,708.2 
				1317.5,708.2 1317.5,545.6 			"/>
		</g>
		<g>
			<polygon class="st2" points="897.6,250.6 897.6,216.2 868.2,216.2 868.2,186.7 838.9,186.6 838.9,161.9 809.6,161.9 809.6,142.1 
				780.3,142.1 780.2,127.2 750.8,127.2 633.5,127.2 633.5,142.1 604.1,142.1 604.1,161.9 574.8,162 574.8,186.7 545.5,186.7 
				545.5,216.2 516.2,216.2 516.2,250.6 486.7,250.7 486.7,388.3 516.1,388.3 516.2,388.2 516.2,427.6 545.5,427.6 545.5,467 
				750.8,467 750.8,486.6 780.2,486.6 780.3,525.9 750.8,525.9 750.8,545.5 662.9,545.5 662.8,525.9 633.5,525.9 633.5,506.2 
				486.7,506.2 486.7,585 516.1,585 516.2,619.2 545.5,619.3 545.5,648.9 574.8,648.9 574.8,673.5 604.1,673.5 604.1,693.3 
				633.5,693.3 633.5,708.2 780.2,708.2 780.3,693.3 809.6,693.3 809.6,673.5 838.9,673.5 838.9,648.9 868.2,648.9 868.2,619.2 
				897.6,619.2 897.7,584.9 927,584.9 927,447.2 897.7,447.2 897.6,407.9 868.2,407.9 868.2,368.6 662.9,368.6 662.8,349 633.5,349 
				633.5,309.6 662.8,309.6 662.9,290 750.8,289.9 750.8,309.6 780.2,309.6 780.3,329.3 927,329.3 927,250.6 			"/>
		</g>
		<g>
			<polygon class="st2" points="435.5,250.6 435.5,216.2 406.1,216.2 406,186.7 376.7,186.7 376.7,161.9 347.4,161.9 347.4,142.1 
				318.1,142.1 318.1,127.2 186,127.2 186,142.1 156.7,142.1 156.7,161.9 127.3,162 127.3,186.7 98,186.7 98,216.2 68.6,216.2 
				68.6,250.6 39.3,250.7 39.3,289.9 9.9,289.9 9.9,545.6 39.3,545.6 39.3,545.6 39.3,585 68.6,585 68.6,619.2 98,619.2 98,619.3 
				98,648.9 127.3,648.9 127.3,673.5 156.7,673.5 156.7,693.3 186,693.3 186,708.2 288.8,708.2 288.8,545.6 215.3,545.6 
				215.3,545.6 215.3,525.9 186,525.9 186,486.6 156.7,486.6 156.7,349 186,349 186,309.6 215.3,309.6 215.4,290 288.8,289.9 
				288.8,309.6 318.1,309.6 318.1,708.3 464.8,708.3 464.8,250.6 			"/>
		</g>
	</g>
</g>
</svg>
