<?xml version="1.0" encoding="utf-8"?>
<!-- Generator: Adobe Illustrator 26.0.1, SVG Export Plug-In . SVG Version: 6.00 Build 0)  -->
<svg version="1.1" id="Layer_1" xmlns="http://www.w3.org/2000/svg" xmlns:xlink="http://www.w3.org/1999/xlink" x="0px" y="0px"
	 viewBox="0 0 3839 718.8" style="enable-background:new 0 0 3839 718.8;" xml:space="preserve">
<style type="text/css">
	.st0{fill:#FFFFFF;}
	.st1{fill:#EEC21A;stroke:#FFFFFF;stroke-width:9.9482;stroke-miterlimit:10;}
	.st2{fill:#EEC21A;}
</style>
<g>
	<g>
		<g>
			<polygon points="3706.6,713.7 3706.6,698.8 3677.3,698.8 3677.3,679 3647.9,679 3647.9,654.3 3618.5,654.3 3618.5,624.7 
				3589.1,624.6 3589.1,590.3 3559.8,590.3 3559.8,551 3530.4,551 3530.4,285.2 3559.8,285.2 3559.8,245.8 3589.1,245.8 
				3589.1,211.4 3618.5,211.4 3618.5,181.8 3647.9,181.8 3647.9,157.1 3677.3,157.1 3677.3,137.3 3706.6,137.3 3706.6,122.3 
				3834,122.3 3834,295.1 3745.9,295.1 3745.9,314.8 3716.6,314.8 3716.6,334.5 3687.2,334.5 3687.2,344.3 3834,344.3 3834,492 
				3687.2,492 3687.2,501.6 3716.6,501.6 3716.6,521.3 3745.9,521.3 3745.9,541 3834,541 3834,713.7 			"/>
			<path class="st0" d="M3829.1,127.3v162.8h-88.1v19.7h-29.3v19.7h-29.3v19.7h146.8V487h-146.8v19.6h29.3v19.7h29.3V546h88.1v162.7
				h-117.5v-14.9h-29.3V674h-29.3v-24.7h-29.4v-29.5l-29.3-0.1v-34.3h-29.3V546h-29.3V290.2h29.3v-39.4h29.3v-34.4h29.3v-29.5h29.3
				h0.1v-0.1V162h29.3v-19.8h29.3v-14.9H3829.1 M3839,117.4h-9.9h-117.5h-9.9v9.9v5h-19.4h-9.9v9.9v9.8h-19.4h-9.9v9.9v14.8h-19.5
				h-9.9v9.9v19.6h-19.4h-9.9v9.9v24.5h-19.4h-9.9v9.9v29.4h-19.4h-9.9v9.9V546v9.9h9.9h19.4v29.4v9.9h9.9h19.4v24.4v9.9l9.9,0
				l19.4,0.1v19.6v9.9h9.9h19.5V674v9.9h9.9h19.4v9.8v9.9h9.9h19.4v5v9.9h9.9h117.5h9.9v-9.9V546V536h-9.9h-78.2v-9.7v-9.9h-9.9
				h-19.4v-9.7v-9.6h107.5h9.9V487V349.2v-9.9h-9.9h-107.5v-9.7v-9.7h19.4h9.9v-9.9v-9.7h78.2h9.9v-9.9V127.3V117.4L3839,117.4z"/>
		</g>
		<g>
			<polygon points="3229.6,713.7 3229.6,698.8 3200.2,698.8 3200.2,679 3170.8,679 3170.8,654.3 3141.4,654.3 3141.4,624.7 
				3112.1,624.6 3112.1,590.3 3082.7,590.3 3082.7,551 3053.3,551 3053.3,285.2 3082.7,285.2 3082.7,245.8 3112.1,245.8 
				3112.1,211.4 3141.4,211.4 3141.4,181.8 3170.8,181.7 3170.8,157.1 3200.2,157.1 3200.2,137.3 3229.6,137.3 3229.6,122.3 
				3342.3,122.3 3342.3,295.1 3268.8,295.1 3268.8,314.8 3239.5,314.8 3239.5,354.2 3210.2,354.2 3210.2,481.9 3239.5,481.9 
				3239.5,521.3 3268.8,521.3 3268.8,541 3332.3,541 3332.3,521.3 3361.6,521.3 3361.6,5 3518.4,5 3518.4,590.3 3489.1,590.3 
				3489.1,624.6 3459.7,624.7 3459.7,654.3 3430.4,654.3 3430.4,679 3401,679 3400.9,698.8 3371.6,698.8 3371.6,713.7 			"/>
			<path class="st0" d="M3513.4,9.9v575.4h-29.3v34.3l-29.3,0.1v29.5h-29.3V674h-29.3l-0.1,19.8h-29.3v14.9h-132.1v-14.9h-29.3V674
				h-29.4v-24.7h-29.3v-29.5l-29.3-0.1v-34.3h-29.3V546h-29.4V290.2h29.4v-39.4h29.3v-34.4h29.3v-29.5l29.3-0.1V162h29.4v-19.8h29.3
				v-14.9h102.8v162.8h-73.4v19.7h-29.3v39.4h-29.3v137.7h29.3v39.4h29.3V546h73.4v-19.7h29.3v-19.7V9.9H3513.4 M3523.4,0h-9.9
				h-146.8h-9.9v9.9v496.6v9.7h-19.4h-9.9v9.9v9.7h-53.5v-9.7v-9.9h-9.9h-19.4v-29.4V477h-9.9h-19.4V359.2h19.4h9.9v-9.9v-29.4h19.4
				h9.9v-9.9v-9.7h63.5h9.9v-9.9V127.3v-9.9h-9.9h-102.8h-9.9v9.9v5h-19.4h-9.9v9.9v9.8h-19.5h-9.9v9.9v14.8l-19.4,0.1l-9.9,0v9.9
				v19.6h-19.4h-9.9v9.9v24.5h-19.4h-9.9v9.9v29.4h-19.5h-9.9v9.9V546v9.9h9.9h19.5v29.4v9.9h9.9h19.4v24.4v9.9l9.9,0l19.4,0.1v19.6
				v9.9h9.9h19.4V674v9.9h9.9h19.5v9.8v9.9h9.9h19.4v5v9.9h9.9h132.1h9.9v-9.9v-5h19.4h9.9l0-9.9l0-9.9h19.4h9.9V674v-14.7h19.4h9.9
				v-9.9v-19.6l19.4-0.1l9.9,0v-9.9v-24.4h19.4h9.9v-9.9V9.9V0L3523.4,0z"/>
		</g>
		<g>
			<polygon points="2884.5,713.8 2884.5,314.8 2855.2,314.8 2855.2,295.1 2791.6,295.1 2791.6,314.8 2762.3,314.8 2762.3,354.2 
				2732.9,354.2 2732.9,481.9 2762.3,481.9 2762.3,521.3 2791.6,521.3 2791.6,541 2865.1,541 2865.1,713.7 2752.3,713.7 
				2752.3,698.8 2723,698.8 2723,679 2693.6,679 2693.6,654.3 2664.3,654.3 2664.3,624.7 2634.8,624.6 2634.8,590.3 2605.5,590.3 
				2605.5,551 2576.1,551 2576.1,285.2 2605.5,285.2 2605.5,245.8 2634.8,245.8 2634.8,211.4 2664.3,211.4 2664.3,181.8 
				2693.6,181.8 2693.6,157.1 2723,157.1 2723,137.3 2752.3,137.3 2752.3,122.3 2894.4,122.3 2894.4,137.3 2923.8,137.3 
				2923.8,157.1 2953.1,157.1 2953.1,181.7 2982.5,181.8 2982.5,211.4 3011.8,211.4 3011.9,245.8 3041.3,245.8 3041.3,713.8 			"/>
			<path class="st0" d="M2889.5,127.3v14.9h29.3V162h29.3v24.7l29.3,0.1v29.5h29.3l0.1,34.4h29.3v458.1h-146.8v-399h-29.3v-19.7
				h-73.5v19.7h-29.3v39.4h-29.3v137.7h29.3v39.4h29.3V546h73.5v162.7h-102.9v-14.9h-29.3V674h-29.3v-24.7h-29.3v-29.5l-29.4-0.1
				v-34.3h-29.3V546h-29.3V290.2h29.3v-39.4h29.3v-34.4h29.4v-29.5h29.3V162h29.3v-19.8h29.3v-14.9H2889.5 M2899.4,117.4h-9.9
				h-132.2h-9.9v9.9v5h-19.4h-9.9v9.9v9.8h-19.4h-9.9v9.9v14.8h-19.4h-9.9v9.9v19.6h-19.5h-9.9v9.9v24.5h-19.4h-9.9v9.9v29.4h-19.4
				h-9.9v9.9V546v9.9h9.9h19.4v29.4v9.9h9.9h19.4v24.4v9.9l9.9,0l19.5,0.1v19.6v9.9h9.9h19.4V674v9.9h9.9h19.4v9.8v9.9h9.9h19.4v5
				v9.9h9.9h102.9h9.9v-9.9V546V536h-9.9h-63.6v-9.7v-9.9h-9.9h-19.4v-29.4V477h-9.9h-19.4V359.2h19.4h9.9v-9.9v-29.4h19.4h9.9v-9.9
				v-9.7h53.6v9.7v9.9h9.9h19.4v389v9.9h9.9h146.8h9.9v-9.9V250.8v-9.9h-9.9h-19.4l-0.1-24.5l0-9.9h-9.9h-19.4v-19.6v-9.9l-9.9,0
				l-19.4-0.1V162v-9.9h-9.9h-19.4v-9.8v-9.9h-9.9h-19.4v-5V117.4L2899.4,117.4z"/>
		</g>
		<g>
			<polygon points="2436.6,713.7 2436.6,698.8 2407.2,698.8 2407.2,679 2377.9,679 2377.9,654.3 2348.6,654.3 2348.6,624.7 
				2319.2,624.6 2319.2,590.3 2289.8,590.4 2289.8,551 2260.4,551 2260.4,285.2 2289.8,285.2 2289.8,245.8 2319.2,245.8 
				2319.2,211.4 2348.6,211.4 2348.6,181.8 2377.9,181.8 2377.9,157.1 2407.2,157.1 2407.2,137.3 2436.6,137.3 2436.6,122.3 
				2564,122.3 2564,295.1 2475.9,295.1 2475.9,314.8 2446.5,314.8 2446.5,354.2 2417.2,354.2 2417.2,481.9 2446.5,481.9 
				2446.5,521.3 2475.9,521.3 2475.9,541 2564,541 2564,713.7 			"/>
			<path class="st0" d="M2559,127.3v162.8h-88.1v19.7h-29.3v39.4h-29.3v137.7h29.3v39.4h29.3V546h88.1v162.7h-117.5v-14.9h-29.3V674
				h-29.3v-24.7h-29.3v-29.5l-29.3-0.1v-34.3v-0.1l-29.4,0.1V546h-29.3V290.2h29.3v-39.4h29.4v-34.4h29.3v-29.5h29.3V162h29.3v-19.8
				h29.3v-14.9H2559 M2569,117.4h-9.9h-117.5h-9.9v9.9v5h-19.4h-9.9v9.9v9.8h-19.4h-9.9v9.9v14.8h-19.4h-9.9v9.9v19.6h-19.4h-9.9
				v9.9v24.5h-19.5h-9.9v9.9v29.4h-19.4h-9.9v9.9V546v9.9h9.9h19.4v29.4v10l10,0l19.5-0.1v24.4v9.9l9.9,0l19.4,0.1v19.6v9.9h9.9
				h19.4V674v9.9h9.9h19.4v9.8v9.9h9.9h19.4v5v9.9h9.9H2559h9.9v-9.9V546V536h-9.9h-78.2v-9.7v-9.9h-9.9h-19.4v-29.4V477h-9.9h-19.4
				V359.2h19.4h9.9v-9.9v-29.4h19.4h9.9v-9.9v-9.7h78.2h9.9v-9.9V127.3V117.4L2569,117.4z"/>
		</g>
		<path class="st1" d="M1802.9,216.3v34.4l-29.3,0.1v39.3h-29.3V546h29.3v39.4h29.3v34.3h29.4v0.1v29.5h29.3V674h29.3v19.8h29.3
			v14.9h146.8v-14.9h29.3l0.1-19.8h29.3v-24.7h29.3v-29.5l29.3-0.1v-34.3h29.3V546h29.3V290.2H2214v-39.3l-29.3-0.1v-34.4h-29.3
			v-29.5h-29.3v-24.7h-29.3l-0.1-19.9h-29.3v-14.9h-146.8v14.9H1891V162l-29.3,0.1v24.7h-29.3v29.5 M2096.5,486.9h-29.3v39.4h-29.3
			V546h-88.1v-19.7h-29.3v-39.4H1891V349.2h29.3v-39.4h29.3v-19.6h88.1v19.6h29.3v39.4h29.3V486.9z"/>
		<g>
			<polygon class="st2" points="1600,713.7 1511.6,510.5 1511.6,383.6 1541,383.6 1541,363.9 1570.3,363.9 1570.3,295.2 
				1492.1,295.1 1492.1,713.7 1335.5,713.7 1335.5,245.9 1364.8,245.8 1364.8,211.4 1394.2,211.4 1394.2,181.8 1423.5,181.8 
				1423.5,157.2 1452.8,157.1 1452.8,137.3 1482.2,137.3 1482.3,122.3 1595,122.3 1595,137.3 1624.3,137.3 1624.3,157.1 
				1653.7,157.2 1653.7,181.8 1683,181.8 1683,211.4 1712.5,211.4 1712.5,245.8 1727.2,245.9 1727.2,388.3 1712.5,388.3 
				1712.5,426.7 1683,426.7 1683,457.3 1646.1,457.3 1757.6,713.7 			"/>
			<path class="st0" d="M1590,127.3v14.9h29.3V162l29.3,0.1v24.7h29.3v29.5h29.4v34.4l14.7,0.1v132.5h-14.7v38.4h-29.3h-0.1v30.5
				h-39.5l111.5,256.4h-146.8l-86.6-199.2v-121h29.3v-19.7h29.3v-78.6l-88.1-0.1v418.6h-146.7V250.9l29.3-0.1v-34.4h29.3v-29.5h29.3
				v-24.7l29.3-0.1v-19.8h29.3l0.1-14.9H1590 M1600,117.4h-9.9h-102.8h-9.9l-0.1,9.9l0,5h-19.5h-9.9v9.9v9.9l-19.4,0.1l-9.9,0v9.9
				v14.7h-19.4h-9.9v9.9v19.6h-19.4h-9.9v9.9v24.5l-19.4,0.1l-9.9,0v9.9v457.9v9.9h9.9h146.7h9.9v-9.9V300.1l68.2,0.1v58.7h-19.4
				h-9.9v9.9v9.7h-19.4h-9.9v9.9v121v2.1l0.8,1.9l86.6,199.2l2.6,6h6.5h146.8h15.2l-6.1-13.9l-105.5-242.5h24.3h9.9v-9.9v-20.6h19.5
				h9.9v-9.9v-28.4h4.8h9.9v-9.9V250.9V241l-9.9-0.1l-4.8,0v-24.5v-9.9h-9.9H1688v-19.6v-9.9h-9.9h-19.4v-14.7v-9.9l-9.9,0
				l-19.4-0.1v-9.9v-9.9h-9.9H1600v-5V117.4L1600,117.4z"/>
		</g>
		<g>
			<polygon class="st2" points="1210.6,713.7 1210.6,698.8 1181.3,698.8 1181.2,679 1151.8,679 1151.8,654.3 1122.5,654.3 
				1122.5,624.7 1093.2,624.6 1093.2,590.3 1063.8,590.3 1063.8,551 1034.5,551 1034.5,275.4 944.7,275.4 944.7,211.4 974,211.4 
				974,181.8 1003.4,181.8 1003.5,157.1 1032.8,157.1 1032.8,68.3 1189.5,68.3 1189.5,157.1 1218.9,157.1 1218.9,181.7 
				1248.2,181.7 1248.2,211.3 1277.6,211.4 1277.6,275.4 1191.1,275.4 1191.2,481.9 1220.6,481.9 1220.6,521.3 1249.9,521.3 
				1249.9,541 1323.4,541 1323.4,713.7 			"/>
			<path class="st0" d="M1184.6,73.3V162h29.3v24.7h29.3v29.5l29.3,0.1v54.1h-86.4l0.1,216.4h29.3v39.4h29.3V546h73.5v162.7h-102.9
				v-14.9h-29.3l-0.1-19.8h-29.3v-24.7h-29.3v-29.5l-29.3-0.1v-34.3h-29.3V546h-29.3V270.5h-89.8v-54.1H979v-29.5h29.3l0.1-24.8
				h29.3V73.3H1184.6 M1194.5,63.4h-9.9h-146.8h-9.9v9.9v78.8h-19.4h-9.9l0,9.9l-0.1,14.9H979H969v9.9v19.6h-19.4h-9.9v9.9v54.1v9.9
				h9.9h79.9V546v9.9h9.9h19.4v29.4v9.9h9.9h19.4v24.4v9.9l9.9,0l19.4,0.1v19.6v9.9h9.9h19.4V674v9.9h9.9h19.4l0,9.9l0,9.9h9.9h19.4
				v5v9.9h9.9h102.9h9.9v-9.9V546V536h-9.9h-63.6v-9.7v-9.9h-9.9h-19.4v-29.4V477h-9.9h-19.4l-0.1-196.5h76.5h9.9v-9.9v-54.1v-9.9
				l-9.9,0l-19.4-0.1v-19.6v-9.9h-9.9h-19.4V162v-9.9h-9.9h-19.4V73.3V63.4L1194.5,63.4z"/>
		</g>
		<g>
			<polygon class="st2" points="628.9,713.7 628.9,698.8 599.6,698.8 599.6,679 570.3,679 570.3,654.3 540.9,654.3 540.9,624.7 
				511.6,624.6 511.5,590.3 482.1,590.3 482.1,501.6 638.9,501.6 638.9,521.3 668.2,521.3 668.3,540.9 746.4,540.9 746.4,521.3 
				775.8,521.3 775.8,491.9 746.4,491.9 746.4,472.3 540.9,472.3 540.9,432.9 511.6,432.9 511.6,393.6 482.1,393.6 482.1,245.9 
				511.6,245.8 511.6,211.4 540.9,211.4 540.9,181.8 570.3,181.8 570.3,157.2 599.6,157.1 599.6,137.3 628.9,137.3 628.9,122.3 
				785.7,122.3 785.8,137.3 815.1,137.3 815.1,157.1 844.5,157.1 844.5,181.7 873.8,181.8 873.8,211.4 903.2,211.4 903.2,245.8 
				932.6,245.8 932.6,334.5 775.9,334.5 775.8,314.8 746.4,314.8 746.4,295.1 668.3,295.2 668.2,314.8 638.9,314.8 638.9,344.3 
				668.2,344.3 668.3,363.9 873.8,363.9 873.8,403.2 903.2,403.2 903.3,442.5 932.6,442.5 932.6,590.2 903.3,590.2 903.2,624.7 
				873.8,624.7 873.8,654.3 844.5,654.3 844.5,679 815.1,679 815.1,698.8 785.8,698.8 785.7,713.7 			"/>
			<path class="st0" d="M780.7,127.3l0.1,14.9h29.3V162h29.3v24.7l29.3,0.1v29.5h29.3v34.4h29.4v78.8H780.8l-0.1-19.7h-29.3v-19.7
				l-88,0.1l-0.1,19.6h-29.3v39.4h29.3l0.1,19.6h205.5v39.4h29.3l0.1,39.3h29.3v137.8h-29.3l-0.1,34.4h-29.3v29.6h-29.3V674h-29.3
				v19.8h-29.3l-0.1,14.9H633.9v-14.9h-29.3V674h-29.3v-24.7h-29.3v-29.5l-29.3-0.1l-0.1-34.3h-29.3v-78.8h146.8v19.7h29.3l0.1,19.6
				h88v-19.6h29.4l-0.1-39.4h-29.3v-19.6H545.9v-39.4h-29.3v-39.4l-0.1,0.1h-29.3V250.9l29.4-0.1v-34.4h29.3v-29.5h29.3v-24.7
				l29.3-0.1v-19.8h29.3v-14.9h117.5H780.7 M790.6,117.4h-9.9h-29.3H633.9H624v9.9v5h-19.4h-9.9v9.9v9.9l-19.4,0.1l-9.9,0v9.9v14.7
				h-19.4h-9.9v9.9v19.6h-19.4h-9.9v9.9v24.5l-19.5,0.1l-9.9,0v9.9v137.8v9.9h9.9h19.5v29.3v9.9h9.9h19.4v29.4v9.9h9.9h195.6v9.6
				v9.9h9.9h19.4l0,19.5h-19.5h-9.9v9.9v9.6h-68.2l0-9.7l-0.1-9.9h-9.9h-19.4v-9.7v-9.9h-9.9H487.1h-9.9v9.9v78.8v9.9h9.9h19.4
				l0.1,24.4l0,9.9l9.9,0l19.4,0.1v19.6v9.9h9.9h19.4V674v9.9h9.9h19.4v9.8v9.9h9.9H624v5v9.9h9.9h146.8h9.9l0.1-9.9l0-5h19.5h9.9
				v-9.9V684h19.4h9.9V674v-14.7h19.4h9.9v-9.9v-19.7h19.4h9.9l0-9.9l0.1-24.5h19.4h9.9v-9.9V447.5v-9.9h-9.9h-19.4l-0.1-29.4l0-9.9
				h-9.9h-19.4v-29.4v-9.9h-9.9H673.3l0-9.7l-0.1-9.9h-9.9h-19.4v-19.5h19.4h9.9l0.1-9.9l0-9.7l68.2-0.1v9.7v9.9h9.9h19.4l0,9.8
				l0,9.9h9.9h146.8h9.9v-9.9v-78.8v-9.9h-9.9h-19.5v-24.5v-9.9h-9.9h-19.4v-19.6v-9.9l-9.9,0l-19.4-0.1V162v-9.9h-9.9h-19.4v-9.8
				v-9.9h-9.9h-19.5l0-5L790.6,117.4L790.6,117.4z"/>
		</g>
		<g>
			<polygon class="st2" points="313.3,713.8 313.3,314.8 284,314.8 284,295.1 220.5,295.2 220.4,314.8 191.1,314.8 191.1,354.2 
				161.7,354.2 161.7,481.9 191.1,481.9 191.1,521.3 220.4,521.3 220.4,541 293.9,541 293.9,713.7 181.1,713.7 181.1,698.8 
				151.8,698.8 151.8,679 122.4,679 122.4,654.3 93.1,654.3 93.1,624.7 63.7,624.7 63.7,590.3 34.3,590.3 34.3,551 5,551 5,285.2 
				34.3,285.2 34.3,245.9 63.7,245.8 63.7,211.4 93.1,211.4 93.1,181.8 122.4,181.8 122.4,157.2 151.8,157.1 151.8,137.3 
				181.1,137.3 181.1,122.3 323.3,122.3 323.3,137.3 352.6,137.3 352.6,157.1 382,157.1 382,181.8 411.3,181.8 411.4,211.4 
				440.7,211.4 440.7,245.8 470.1,245.8 470.1,713.8 			"/>
			<path class="st0" d="M318.3,127.3v14.9h29.3V162H377v24.8h29.3l0.1,29.5h29.3v34.4h29.3v458.1H318.3v-399H289v-19.7l-73.4,0.1
				l-0.1,19.6h-29.3v39.4h-29.3v137.7h29.3v39.4h29.3V546H289v162.7H186.1v-14.9h-29.3V674h-29.3v-24.7H98.1v-29.5v-0.1H68.6v-34.3
				H39.3V546H9.9V290.2h29.3v-39.3l29.3-0.1v-34.4h29.4v-29.5h29.3v-24.7l29.3-0.1v-19.8h29.3v-14.9H318.3 M328.2,117.4h-9.9H186.1
				h-9.9v9.9v5h-19.4h-9.9v9.9v9.9l-19.4,0.1l-9.9,0v9.9v14.7H98.1h-9.9v9.9v19.6H68.6h-9.9v9.9v24.5l-19.4,0.1l-9.9,0v9.9v29.3H9.9
				H0v9.9V546v9.9h9.9h19.4v29.4v9.9h9.9h19.4v24.4v9.9h9.9h19.5v19.7v9.9h9.9h19.4V674v9.9h9.9h19.4v9.8v9.9h9.9h19.4v5v9.9h9.9
				H289h9.9v-9.9V546V536H289h-63.6v-9.7v-9.9h-9.9h-19.4v-29.4V477h-9.9h-19.4V359.2h19.4h9.9v-9.9v-29.4h19.4h9.9l0.1-9.9l0-9.7
				l53.6-0.1v9.7v9.9h9.9h19.4v389v9.9h9.9h146.8h9.9v-9.9V250.8v-9.9h-9.9h-19.4v-24.5v-9.9h-9.9h-19.4l-0.1-19.6l0-9.9h-9.9h-19.4
				V162v-9.9H377h-19.4v-9.8v-9.9h-9.9h-19.4v-5V117.4L328.2,117.4z"/>
		</g>
	</g>
	<g>
		<g>
			<polygon points="3711.6,127.3 3711.6,142.2 3682.2,142.2 3682.2,162 3652.9,162 3652.9,186.7 3652.9,186.8 3652.8,186.8 
				3623.4,186.8 3623.4,216.3 3594.1,216.3 3594.1,250.8 3564.8,250.8 3564.8,290.2 3535.4,290.2 3535.4,546 3564.8,546 
				3564.8,585.4 3594.1,585.4 3594.1,619.7 3623.4,619.8 3623.4,649.3 3652.9,649.3 3652.9,674 3682.2,674 3682.2,693.8 
				3711.6,693.8 3711.6,708.7 3829.1,708.7 3829.1,546 3740.9,546 3740.9,526.3 3711.6,526.3 3711.6,506.6 3682.2,506.6 3682.2,487 
				3829.1,487 3829.1,349.2 3682.2,349.2 3682.2,329.5 3711.6,329.5 3711.6,309.8 3740.9,309.8 3740.9,290.2 3829.1,290.2 
				3829.1,127.3 			"/>
		</g>
		<g>
			<polygon points="3366.6,9.9 3366.6,506.6 3366.6,526.3 3337.3,526.3 3337.3,546 3263.9,546 3263.9,526.3 3234.5,526.3 
				3234.5,486.9 3205.2,486.9 3205.2,349.2 3234.5,349.2 3234.5,309.8 3263.9,309.8 3263.9,290.2 3337.3,290.2 3337.3,127.3 
				3234.5,127.3 3234.5,142.2 3205.2,142.2 3205.2,162 3175.7,162 3175.7,186.7 3146.4,186.8 3146.4,216.3 3117.1,216.3 
				3117.1,250.8 3087.7,250.8 3087.7,290.2 3058.3,290.2 3058.3,546 3087.7,546 3087.7,585.4 3117.1,585.4 3117.1,619.7 
				3146.4,619.8 3146.4,649.3 3175.7,649.3 3175.7,674 3205.2,674 3205.2,693.8 3234.5,693.8 3234.5,708.7 3366.6,708.7 
				3366.6,693.8 3396,693.8 3396.1,674 3425.4,674 3425.4,649.3 3454.8,649.3 3454.8,619.8 3484.1,619.7 3484.1,585.4 3513.4,585.4 
				3513.4,9.9 			"/>
		</g>
		<g>
			<polygon points="3006.9,250.8 3006.8,216.3 2977.5,216.3 2977.5,186.8 2948.2,186.7 2948.2,162 2918.8,162 2918.8,142.2 
				2889.5,142.2 2889.5,127.3 2757.3,127.3 2757.3,142.2 2727.9,142.2 2727.9,162 2698.6,162 2698.6,186.8 2669.2,186.8 
				2669.2,216.3 2639.8,216.3 2639.8,250.8 2610.5,250.8 2610.5,290.2 2581.1,290.2 2581.1,546 2610.5,546 2610.5,585.4 
				2639.8,585.4 2639.8,619.7 2669.2,619.8 2669.2,649.3 2698.6,649.3 2698.6,674 2727.9,674 2727.9,693.8 2757.3,693.8 
				2757.3,708.7 2860.1,708.7 2860.1,546 2786.6,546 2786.6,526.3 2757.3,526.3 2757.3,486.9 2727.9,486.9 2727.9,349.2 
				2757.3,349.2 2757.3,309.8 2786.6,309.8 2786.6,290.2 2860.1,290.2 2860.1,309.8 2889.5,309.8 2889.5,708.8 3036.3,708.8 
				3036.3,250.8 			"/>
		</g>
		<g>
			<polygon points="2441.6,127.3 2441.6,142.2 2412.2,142.2 2412.2,162 2382.9,162 2382.9,186.8 2353.5,186.8 2353.5,216.3 
				2324.2,216.3 2324.2,250.8 2294.7,250.8 2294.7,290.2 2265.4,290.2 2265.4,546 2294.7,546 2294.7,585.4 2324.2,585.3 
				2324.2,585.4 2324.2,619.7 2353.5,619.8 2353.5,649.3 2382.9,649.3 2382.9,674 2412.2,674 2412.2,693.8 2441.6,693.8 
				2441.6,708.7 2559,708.7 2559,546 2470.9,546 2470.9,546 2470.9,526.3 2441.6,526.3 2441.6,486.9 2412.2,486.9 2412.2,349.2 
				2441.6,349.2 2441.6,309.8 2470.9,309.8 2470.9,290.2 2559,290.2 2559,127.3 			"/>
		</g>
		<path class="st2" d="M1802.9,216.3v34.4l-29.3,0.1v39.3h-29.3V546h29.3v39.4h29.3v34.3h29.4v0.1v29.5h29.3V674h29.3v19.8h29.3
			v14.9h146.8v-14.9h29.3l0.1-19.8h29.3v-24.7h29.3v-29.5l29.3-0.1v-34.3h29.3V546h29.3V290.2H2214v-39.3l-29.3-0.1v-34.4h-29.3
			v-29.5h-29.3v-24.7h-29.3l-0.1-19.9h-29.3v-14.9h-146.8v14.9H1891V162l-29.3,0.1v24.7h-29.3v29.5 M2096.5,486.9h-29.3v39.4h-29.3
			V546h-88.1v-19.7h-29.3v-39.4H1891V349.2h29.3v-39.4h29.3v-19.6h88.1v19.6h29.3v39.4h29.3V486.9z"/>
		<g>
			<polygon class="st2" points="1638.6,452.3 1678,452.3 1678,421.7 1678.1,421.7 1707.5,421.7 1707.5,383.4 1722.2,383.4 
				1722.2,250.9 1707.5,250.8 1707.5,216.3 1678,216.3 1678,186.8 1648.7,186.8 1648.7,162.1 1619.4,162 1619.4,142.2 1590,142.2 
				1590,127.3 1487.3,127.3 1487.2,142.2 1457.8,142.2 1457.8,162 1428.5,162.1 1428.5,186.8 1399.1,186.8 1399.1,216.3 
				1369.8,216.3 1369.8,250.8 1340.4,250.9 1340.4,708.7 1487.2,708.7 1487.2,290.2 1575.3,290.3 1575.3,368.8 1545.9,368.8 
				1545.9,388.5 1516.6,388.5 1516.6,509.5 1603.2,708.7 1750.1,708.7 			"/>
		</g>
		<g>
			<polygon class="st2" points="1245,546 1245,526.3 1215.6,526.3 1215.6,486.9 1186.3,486.9 1186.2,270.5 1272.6,270.5 
				1272.6,216.3 1243.3,216.2 1243.3,186.7 1213.9,186.7 1213.9,162 1184.6,162 1184.6,73.3 1037.8,73.3 1037.8,162 1008.4,162 
				1008.3,186.8 979,186.8 979,216.3 949.6,216.3 949.6,270.5 1039.4,270.5 1039.4,546 1068.8,546 1068.8,585.4 1098.1,585.4 
				1098.1,619.7 1127.5,619.8 1127.5,649.3 1156.8,649.3 1156.8,674 1186.2,674 1186.3,693.8 1215.6,693.8 1215.6,708.7 
				1318.5,708.7 1318.5,546 			"/>
		</g>
		<g>
			<polygon class="st2" points="898.2,250.8 898.2,216.3 868.9,216.3 868.9,186.8 839.5,186.7 839.5,162 810.2,162 810.2,142.2 
				780.8,142.2 780.7,127.3 751.4,127.3 633.9,127.3 633.9,142.2 604.6,142.2 604.6,162 575.2,162.1 575.2,186.8 545.9,186.8 
				545.9,216.3 516.5,216.3 516.5,250.8 487.1,250.9 487.1,388.6 516.4,388.6 516.5,388.5 516.5,427.9 545.9,427.9 545.9,467.3 
				751.4,467.3 751.4,486.9 780.7,486.9 780.8,526.3 751.4,526.3 751.4,545.9 663.4,545.9 663.3,526.3 633.9,526.3 633.9,506.6 
				487.1,506.6 487.1,585.4 516.4,585.4 516.5,619.7 545.9,619.8 545.9,649.3 575.2,649.3 575.2,674 604.6,674 604.6,693.8 
				633.9,693.8 633.9,708.7 780.7,708.7 780.8,693.8 810.2,693.8 810.2,674 839.5,674 839.5,649.3 868.9,649.3 868.9,619.7 
				898.2,619.7 898.3,585.3 927.6,585.3 927.6,447.5 898.3,447.5 898.2,408.2 868.9,408.2 868.9,368.8 663.4,368.8 663.3,349.2 
				633.9,349.2 633.9,309.8 663.3,309.8 663.4,290.3 751.4,290.2 751.4,309.8 780.7,309.8 780.8,329.5 927.6,329.5 927.6,250.8 			
				"/>
		</g>
		<g>
			<polygon class="st2" points="435.8,250.8 435.8,216.3 406.4,216.3 406.3,186.8 377,186.8 377,162 347.6,162 347.6,142.2 
				318.3,142.2 318.3,127.3 186.1,127.3 186.1,142.2 156.8,142.2 156.8,162 127.4,162.1 127.4,186.8 98.1,186.8 98.1,216.3 
				68.6,216.3 68.6,250.8 39.3,250.9 39.3,290.2 9.9,290.2 9.9,546 39.3,546 39.3,546 39.3,585.4 68.6,585.4 68.6,619.7 98.1,619.7 
				98.1,619.8 98.1,649.3 127.4,649.3 127.4,674 156.8,674 156.8,693.8 186.1,693.8 186.1,708.7 289,708.7 289,546 215.5,546 
				215.5,546 215.5,526.3 186.1,526.3 186.1,486.9 156.8,486.9 156.8,349.2 186.1,349.2 186.1,309.8 215.5,309.8 215.6,290.3 
				289,290.2 289,309.8 318.3,309.8 318.3,708.8 465.1,708.8 465.1,250.8 			"/>
		</g>
	</g>
</g>
</svg>
