<?xml version="1.0" encoding="utf-8"?>
<!-- Generator: Adobe Illustrator 26.0.1, SVG Export Plug-In . SVG Version: 6.00 Build 0)  -->
<svg version="1.1" id="Layer_1" xmlns="http://www.w3.org/2000/svg" xmlns:xlink="http://www.w3.org/1999/xlink" x="0px" y="0px"
	 viewBox="0 0 3839 748.6" style="enable-background:new 0 0 3839 748.6;" xml:space="preserve">
<style type="text/css">
	.st0{fill:#FBDD00;}
	.st1{fill:#FFFFFF;}
	.st2{fill:#010101;}
</style>
<g>
	<g>
		<g>
			<g>
				<path class="st0" d="M240.3,743.6c-64.4,0-124.3-25.1-168.6-70.7c-21-21.6-37.5-46.6-49-74.3C10.9,570.4,5,540.8,5,510.7
					c0-60.9,23.3-118.4,65.6-161.8c43.3-44.4,101.8-68.8,165-68.8c72.5,0,128,20.5,174.8,64.4l3.2,3l-53.8,72.5l-4.1-4.2
					c-44.2-45.1-89.4-50.3-119.6-50.3c-78.8,0-140.6,63.8-140.6,145.2c0,33.7,12,67,33.7,93.9c20.5,25.3,48.2,43.3,78.3,50.8
					l265.2-366.4h74.7v445.9h-90.6V613.3c-9.3,19.9-30.1,55-70.3,84.6C345.2,728.2,296,743.6,240.3,743.6z M321.7,643.2
					c13.8-7.4,25.6-19.3,37.5-37.4l1.5-2.2h96.1v-14.2h-93.9L321.7,643.2z M456.8,510.4V452L417,510.4H456.8z"/>
				<path class="st1" d="M235.6,285.1c67.8,0,123.7,18.3,171.4,63l-47.7,64.2c-27.1-27.7-63.6-51.8-123.1-51.8
					c-83.7,0-145.5,68.3-145.5,150.2c0,73,53,135.5,119,150.2l265.7-367h67.2v435.9h-80.7V584.3H360.5l-53.6,70.1
					c25.3-7.1,41.8-23.6,56.5-46h90.1c-24.2,54.2-91.3,130.2-213.3,130.2c0,0,0,0,0,0c-133.1,0-230.3-108.4-230.3-228
					C9.9,389.3,106,285.1,235.6,285.1 M407.6,515.4h54.2v-77.8h-1.2L407.6,515.4 M235.6,275.1c-64.5,0-124.3,25-168.5,70.3
					c-21.1,21.7-37.7,46.9-49.3,75C6,449.2,0,479.5,0,510.7c0,30.8,6.1,61,18,89.9c11.8,28.3,28.6,53.9,50,75.9
					c45.3,46.5,106.5,72.2,172.2,72.2l0,0c0,0,0,0,0,0c29.8,0,58.3-4.5,84.5-13.2c23.3-7.8,45.1-19.1,64.7-33.5
					c30.8-22.7,50.4-48.5,62.4-68.6v96.5v9.9h9.9h80.7h9.9v-9.9V293.9v-9.9h-9.9h-67.2h-5.1l-3,4.1L205.5,649.6
					c-27.8-7.7-53.3-24.6-72.4-48.2c-21-25.9-32.5-58.2-32.5-90.7c0-37.5,13.7-72.7,38.7-99c25.3-26.6,59.7-41.3,96.9-41.3
					c26.1,0,48.8,4.8,69.4,14.6c16.4,7.8,31.6,19,46.6,34.3l8.1,8.3l6.9-9.4L415,354l5.3-7.1l-6.5-6.1
					c-24.6-23.1-51.3-39.6-81.7-50.4C303.3,280.1,271.7,275.1,235.6,275.1L235.6,275.1z M426.4,505.4l25.4-37.3v37.3H426.4
					L426.4,505.4z M365.4,594.3h86.5v4.3h-88.4h-1.3L365.4,594.3L365.4,594.3z"/>
			</g>
			<g>
				<path class="st0" d="M879.4,743.6c-29.7,0-60.2-10-84.3-27.7c-25.2,17.9-56.8,27.7-89.5,27.7c-32.4,0-67.2-11.9-93.2-31.9
					c-23-17.6-51-50.5-53.7-106.6l-0.3-5.2H653l0.4,4.5c4.7,49.9,41.6,53.8,52.8,53.8c14.7,0,28.5-4.9,38.7-13.8
					c10.6-9.2,16.4-21.9,16.4-36c0-36.5-19.6-44.7-62.7-62.6c-5.4-2.2-10.9-4.5-16.8-7.1l-1.5-0.7c-19.7-8.5-44.2-19-64.3-38.7
					c-23.9-23.4-35.5-53.6-35.5-92.5c0-37.2,13-69.1,37.6-92.2c23.8-22.4,57.6-34.7,95.1-34.7c30.6,0,62.2,11.9,85.4,31.9
					c24-20.6,55.4-31.9,89-31.9c29.4,0,61.2,11.2,85,29.9c21,16.5,46.5,47.1,48.9,99.2l0.2,5.2h-92.2l-0.4-4.5
					c-2.7-29.4-17.5-44.4-44-44.4c-23.1,0-39.8,16.5-39.8,39.2c0,31.9,18.1,41.1,62.6,56c32.2,10.5,117.7,38.6,117.7,139
					c0,42.1-14.3,78.2-41.3,104.4C958.3,729.6,920.9,743.6,879.4,743.6z M846.5,642.8c9,11.4,26.6,15.5,39.4,15.5
					c28.1,0,49.2-20.7,49.2-48c0-18.4-4.6-29.9-15.8-39.7c-11.7-10.2-30.6-18.5-59.3-29.3c-1.4-0.5-2.8-1.1-4.3-1.6
					c-6.6-2.5-14.1-5.3-22.1-8.9c12.2,19.5,18.4,42.6,18.4,68.9C852,613.9,850.2,628,846.5,642.8z M711,365.4
					c-18.4,0-39.8,9.8-39.8,37.4c0,25.9,14.9,40.5,61.2,60.2c2.3,0.9,4.9,2,7.6,3c9.9,3.9,21.3,8.4,33.1,14.2
					c-12-19.8-18.1-43.5-18.1-70.8C752.2,380.3,737.4,365.4,711,365.4z"/>
				<path class="st1" d="M887.7,285.1c50.6,0,124.9,35.3,129,124.3h-82.5c-3.5-38.9-27.1-48.9-48.9-48.9
					c-25.3,0-44.8,18.3-44.8,44.2c0,35.9,21.8,46,66,60.7c35.9,11.8,114.3,39.5,114.3,134.3c0,83.6-58.9,139-141.4,139
					c-27.1,0-58.3-8.8-84.3-28.9c-25.9,19.4-58.3,28.9-89.5,28.9c-56,0-137.3-37.7-142-133.7h84.8c4.1,43.6,33,58.3,57.7,58.3
					c31.8,0,60.1-21.8,60.1-54.8c0-44.8-28.9-51.3-82.5-74.2c-38.3-16.5-98.4-41.2-98.4-127.2c0-73.6,53.6-121.9,127.8-121.9
					c27.1,0,60.1,10,85.4,33.6C821.1,298,852.4,285.1,887.7,285.1 M791.1,495.9c-17.7-18.9-31.2-45.9-31.2-86.6
					c-3.5-38.9-27.1-48.9-48.9-48.9c-30,0-44.8,20-44.8,42.4c0,28.9,17.1,44.8,64.2,64.8C746.3,474.1,769.3,482.4,791.1,495.9
					 M885.9,663.3c30.6,0,54.2-22.4,54.2-53c0-39.5-20.6-51.8-78.3-73.6c-12.4-4.7-29.4-10.6-46.5-21.2
					c18.3,18.9,31.8,45.4,31.8,84.2c0,15.9-2.4,30.6-5.9,44.2C850.6,658,870.6,663.3,885.9,663.3 M887.7,275.1
					c-33.2,0-64.5,10.7-88.9,30.4c-11.4-9.2-24.4-16.6-38.6-21.8c-15.2-5.6-31.4-8.6-46.8-8.6c-19.5,0-37.9,3.1-54.7,9.3
					c-16.7,6.1-31.5,15.1-43.8,26.7c-12.5,11.7-22.3,25.8-28.9,41.9c-6.8,16.4-10.3,34.6-10.3,53.9c0,21.2,3.5,40.4,10.5,57.1
					c6.1,14.6,15,27.7,26.5,38.9c20.7,20.3,45.7,31,65.8,39.7l1.5,0.7c5.9,2.5,11.5,4.9,16.9,7.1c20.3,8.5,36.4,15.1,46.3,23.7
					c9.5,8.2,13.4,18.2,13.4,34.3c0,16.1-8,26.4-14.7,32.2c-9.4,8.1-22,12.6-35.5,12.6c-11.5,0-22.2-3.7-30.2-10.5
					c-10.1-8.5-16-21.6-17.6-38.8l-0.9-9h-9.1h-84.8h-10.4l0.5,10.4c2.8,58,31.8,92,55.6,110.3c14.2,10.9,30.3,19.3,48.1,25
					c15.9,5.2,32.6,7.9,48.2,7.9c32.4,0,63.9-9.4,89.4-26.6c24.5,16.9,54.8,26.6,84.3,26.6c21.5,0,41.9-3.6,60.4-10.6
					c18.4-7,34.6-17.2,48.1-30.3c13.7-13.3,24.3-29.2,31.6-47.3c7.4-18.5,11.2-38.9,11.2-60.7c0-43.9-15.9-79.6-47.2-105.9
					c-26.5-22.3-58.5-32.8-73.9-37.8c-18.7-6.2-36.3-12.5-46.4-20.7c-9-7.3-12.7-16.1-12.7-30.5c0-9.9,3.4-18.4,9.9-24.7
					c6.3-6.2,15.2-9.6,25-9.6c23.8,0,36.6,13,39,39.8l0.8,9h9.1h82.5h10.4l-0.5-10.4c-2.5-54-29-85.7-50.8-102.9
					C951.2,286.7,918.2,275.1,887.7,275.1L887.7,275.1z M734.2,458.5c-23.5-10-37.9-18.3-46.6-27c-8.1-8-11.5-16.6-11.5-28.7
					c0-15.7,9.1-32.5,34.8-32.5c23.7,0,36.4,12.9,39,39.4c0.1,22.3,4.1,42.3,11.9,59.9c-7.1-3.1-13.9-5.8-20.1-8.2
					C739.1,460.4,736.6,459.4,734.2,458.5L734.2,458.5z M852,641.5c3.4-14.3,5-28,5-41.8c0-21.8-4.1-41.5-12.2-58.9
					c3.3,1.3,6.4,2.4,9.2,3.5c1.5,0.6,2.9,1.1,4.3,1.6c28.2,10.6,46.7,18.7,57.8,28.4c10.1,8.8,14.1,18.9,14.1,35.9
					c0,12-4.5,23-12.6,30.9c-8.1,7.9-19.4,12.2-31.7,12.2C874.2,653.3,859.9,649.6,852,641.5L852,641.5z"/>
			</g>
			<g>
				<polygon class="st0" points="1028.8,734.8 1028.8,288.9 1273.2,288.9 1273.2,374.3 1119.5,374.3 1119.5,470.9 1266.7,470.9 
					1266.7,556.3 1119.5,556.3 1119.5,649.4 1273.2,649.4 1273.2,734.8 				"/>
				<path class="st1" d="M1268.2,293.9v75.4h-153.8v106.6h147.3v75.4h-147.3v103.1h153.8v75.4h-234.5V293.9H1268.2 M1278.2,283.9
					h-9.9h-234.5h-9.9v9.9v435.9v9.9h9.9h234.5h9.9v-9.9v-75.4v-9.9h-9.9h-143.8v-83.2h137.3h9.9v-9.9v-75.4V466h-9.9h-137.3v-86.7
					h143.8h9.9v-9.9v-75.4V283.9L1278.2,283.9z"/>
			</g>
			<g>
				<polygon class="st0" points="1584.6,734.8 1584.6,374.3 1522.6,374.3 1522.6,288.9 1737.1,288.9 1737.1,374.3 1675.2,374.3 
					1675.2,734.8 				"/>
				<path class="st1" d="M1732.2,293.9v75.4h-61.9v360.5h-80.7V369.3h-61.9v-75.4H1732.2 M1742.1,283.9h-9.9h-204.6h-9.9v9.9v75.4
					v9.9h9.9h52v350.6v9.9h9.9h80.7h9.9v-9.9V379.2h52h9.9v-9.9v-75.4V283.9L1742.1,283.9z"/>
			</g>
			<g>
				<polygon class="st0" points="1352.6,734.8 1352.6,374.3 1290.6,374.3 1290.6,288.9 1505.2,288.9 1505.2,374.3 1443.2,374.3 
					1443.2,734.8 				"/>
				<path class="st1" d="M1500.2,293.9v75.4h-61.9v360.5h-80.7V369.3h-61.9v-75.4H1500.2 M1510.2,283.9h-9.9h-204.6h-9.9v9.9v75.4
					v9.9h9.9h52v350.6v9.9h9.9h80.7h9.9v-9.9V379.2h52h9.9v-9.9v-75.4V283.9L1510.2,283.9z"/>
			</g>
			<g>
				<polygon class="st0" points="1754.6,734.8 1754.6,288.9 1999,288.9 1999,374.3 1845.2,374.3 1845.2,470.9 1992.5,470.9 
					1992.5,556.3 1845.2,556.3 1845.2,649.4 1999,649.4 1999,734.8 				"/>
				<path class="st1" d="M1994,293.9v75.4h-153.8v106.6h147.3v75.4h-147.3v103.1H1994v75.4h-234.5V293.9H1994 M2004,283.9h-9.9
					h-234.5h-9.9v9.9v435.9v9.9h9.9H1994h9.9v-9.9v-75.4v-9.9h-9.9h-143.8v-83.2h137.3h9.9v-9.9v-75.4V466h-9.9h-137.3v-86.7H1994
					h9.9v-9.9v-75.4V283.9L2004,283.9z"/>
			</g>
			<g>
				<polygon class="st0" points="2424.4,734.8 2110.5,288.9 2222.2,288.9 2411.4,566.4 2411.4,288.9 2502.1,288.9 2502.1,734.8 				
					"/>
				<path class="st1" d="M2497.1,293.9v435.9H2427l-306.9-435.9h99.6l195.6,286.9h1.2V293.9H2497.1 M2507,283.9h-9.9h-80.7h-9.9v9.9
					v256.4l-178.6-262l-3-4.3h-5.3h-99.6h-19.2l11,15.7l306.9,435.9l3,4.2h5.2h70.1h9.9v-9.9V293.9V283.9L2507,283.9z"/>
			</g>
			<g>
				<rect x="2519.2" y="288.9" class="st0" width="90.7" height="445.9"/>
				<path class="st1" d="M2604.9,293.9v435.9h-80.7V293.9H2604.9 M2614.8,283.9h-9.9h-80.7h-9.9v9.9v435.9v9.9h9.9h80.7h9.9v-9.9
					V293.9V283.9L2614.8,283.9z"/>
			</g>
			<g>
				<path class="st0" d="M2755.7,743.6c-38.7,0-74.9-13.9-102-39.3c-27.2-25.5-43.2-60.7-45-99.2l-0.2-5.2h94.6l0.4,4.5
					c2.3,26,17.4,53.8,52.8,53.8c27.1,0,55.1-18.6,55.1-49.8c0-40.1-32-51.6-65.9-63.8c-4.6-1.7-9.4-3.4-14-5.2
					c-2.3-0.9-4.5-1.7-6.7-2.6c-11.4-4.4-22.2-8.6-33.2-14.1c-45.1-23.4-67-60.5-67-113.4c0-35.8,13.7-68.8,38.7-92.7
					c24.6-23.6,58-36.6,94.1-36.6c35.4,0,68.5,13.2,93.1,37c24.5,23.8,39,56.4,40.8,92l0.3,5.2h-92.3l-0.4-4.6
					c-2.9-36.6-25.5-44.3-43.9-44.3c-23.1,0-39.8,16.5-39.8,39.2c0,15.4,5.8,26.7,18.1,35.5c11.4,8.1,26.7,12.9,41.6,17.5
					c3.1,1,6.3,2,9.3,3c37.5,12.4,65,28.1,83.9,47.9c22.7,23.8,33.8,53.6,33.8,91.1c0,41-14.8,77.9-41.7,104
					C2833.8,729.4,2796.6,743.6,2755.7,743.6z"/>
				<path class="st1" d="M2757.5,285c70.7,0,125.5,53.6,129,124.3H2804c-2.4-29.5-18.3-48.9-48.9-48.9c-25.3,0-44.8,18.3-44.8,44.2
					c0,41.8,40.1,50.1,72.5,60.7c66,21.8,114.3,57.7,114.3,134.3c0,82.5-60.1,139-141.4,139c-77.1,0-138.4-56.6-142-133.7h84.8
					c2.9,33,23,58.3,57.7,58.3c31.2,0,60.1-21.8,60.1-54.8c0-49.5-44.8-58.9-83.1-73.6c-13.6-5.3-26.5-10-39.5-16.5
					c-44.2-23-64.2-58.9-64.2-109C2629.6,337.5,2686.2,285,2757.5,285 M2757.5,275.1c-37.4,0-72,13.5-97.5,38
					c-26,24.9-40.2,59.1-40.2,96.3c0,27.3,5.5,50.1,16.9,69.7c11.5,19.7,29.2,35.9,52.7,48.2l0.1,0l0.1,0
					c11.2,5.6,22.1,9.8,33.7,14.3c2.2,0.9,4.4,1.7,6.6,2.6l0,0l0,0c4.7,1.8,9.5,3.5,14.1,5.2c17,6.1,33,11.9,44.7,21.1
					c12.2,9.5,17.8,21.6,17.8,38.1c0,16-8.1,26.4-14.9,32.2c-9.3,8-22.2,12.6-35.3,12.6c-13.8,0-25.1-4.6-33.5-13.6
					c-8.1-8.7-13-21-14.3-35.6l-0.8-9.1h-9.1h-84.8h-10.4l0.5,10.4c1.8,39.8,18.3,76.2,46.5,102.6c28,26.2,65.4,40.6,105.4,40.6
					c42.2,0,80.6-14.7,108.1-41.4c13.8-13.3,24.5-29.3,31.8-47.3c7.6-18.5,11.4-38.8,11.4-60.3c0-19.7-3.1-37.8-9.2-53.8
					c-5.8-15.1-14.5-28.9-25.9-40.8c-19.5-20.4-47.6-36.5-86-49.2c-3.1-1-6.3-2-9.4-3c-14.5-4.5-29.5-9.2-40.2-16.8
					c-11.1-7.9-16-17.5-16-31.4c0-9.9,3.4-18.4,9.9-24.7c6.3-6.2,15.2-9.6,25-9.6c12,0,21.3,3.5,27.8,10.3
					c6.4,6.7,10.1,16.6,11.1,29.4l0.7,9.2h9.2h82.5h10.5l-0.5-10.4c-1.8-36.8-16.9-70.7-42.3-95.3
					C2828.5,288.7,2794.2,275.1,2757.5,275.1L2757.5,275.1z"/>
			</g>
			<g>
				<rect x="2901" y="288.9" class="st0" width="90.6" height="445.9"/>
				<path class="st1" d="M2986.6,293.9v435.9h-80.7V293.9H2986.6 M2996.6,283.9h-9.9h-80.7h-9.9v9.9v435.9v9.9h9.9h80.7h9.9v-9.9
					V293.9V283.9L2996.6,283.9z"/>
			</g>
			<g>
				<path class="st0" d="M3231.1,743.6c-128.5,0-233-103.4-233-230.6c0-62.5,24.2-121.1,68.2-165c43.9-43.8,102.4-67.9,164.8-67.9
					c62.4,0,120.9,24.1,164.8,67.9c44,43.9,68.2,102.5,68.2,165c0,61.8-24.4,119.9-68.6,163.4C3351.4,719.8,3293,743.6,3231.1,743.6
					z M3231.1,365.4c-38.6,0-74.6,15.5-101.4,43.7c-26.4,27.8-40.9,64.5-40.9,103.3c0,38.4,14.7,74.8,41.3,102.4
					c26.9,28,62.8,43.4,101,43.4c38.2,0,74-15.4,101-43.4c26.6-27.7,41.3-64.1,41.3-102.4c0-38.8-14.5-75.5-40.9-103.3
					C3305.7,381,3269.7,365.4,3231.1,365.4z"/>
				<path class="st1" d="M3231.1,285.1c126.1,0,228,101.3,228,228c0,125.5-103.1,225.6-228,225.6s-228-100.1-228-225.6
					C3003.1,386.4,3105,285.1,3231.1,285.1 M3231.1,663.3c82.5,0,147.3-69.5,147.3-150.8c0-81.9-63.6-152-147.3-152
					c-83.7,0-147.3,70.1-147.3,152C3083.8,593.7,3148.6,663.3,3231.1,663.3 M3231.1,275.1c-32.2,0-63.3,6.3-92.7,18.6
					c-28.4,11.9-53.8,29-75.6,50.8c-21.8,21.8-39,47.2-51,75.6c-12.4,29.4-18.7,60.6-18.7,92.9c0,32,6.3,63,18.9,92.1
					c12.1,28.1,29.3,53.2,51.3,74.8c21.9,21.5,47.3,38.4,75.7,50.2c29.3,12.2,60.3,18.4,92.1,18.4c31.9,0,62.9-6.2,92.1-18.4
					c28.3-11.8,53.8-28.7,75.7-50.2c22-21.6,39.2-46.8,51.3-74.8C3462.7,576,3469,545,3469,513c0-32.3-6.3-63.6-18.7-92.9
					c-12-28.4-29.1-53.8-51-75.6c-21.8-21.8-47.3-38.9-75.6-50.8C3294.4,281.4,3263.3,275.1,3231.1,275.1L3231.1,275.1z
					 M3231.1,653.3c-36.8,0-71.4-14.9-97.4-41.9c-12.5-13-22.4-28.1-29.3-44.9c-7.1-17.3-10.7-35.5-10.7-54.1
					c0-18.8,3.5-37.2,10.5-54.6c6.8-16.9,16.6-32.2,29-45.3c25.8-27.2,60.6-42.2,97.8-42.2c37.2,0,72,15,97.8,42.2
					c12.4,13.1,22.2,28.3,29,45.3c7,17.4,10.5,35.7,10.5,54.6c0,18.6-3.6,36.8-10.7,54.1c-6.9,16.8-16.7,31.9-29.3,44.9
					C3302.5,638.4,3267.9,653.3,3231.1,653.3L3231.1,653.3z"/>
			</g>
			<g>
				<polygon class="st0" points="3736,734.8 3560.7,429.5 3560.7,734.8 3470,734.8 3470,288.9 3569.8,288.9 3743.4,594.1 
					3743.4,288.9 3834,288.9 3834,734.8 				"/>
				<path class="st1" d="M3829.1,293.9v435.9h-90.1l-182-316.9h-1.2v316.9H3475V293.9h91.9l180.3,316.9h1.2V293.9H3829.1
					 M3839,283.9h-9.9h-80.7h-9.9v9.9v281.4L3575.5,289l-2.9-5h-5.8H3475h-9.9v9.9v435.9v9.9h9.9h80.7h9.9v-9.9V448.1l164.6,286.7
					l2.9,5h5.8h90.1h9.9v-9.9V293.9V283.9L3839,283.9z"/>
			</g>
		</g>
		<g>
			<g>
				<polygon class="st2" points="928.6,192.9 928.6,9.1 1063.7,9.1 1063.7,45.4 969,45.4 969,81 1056.7,81 1056.7,115.7 969,115.7 
					969,156.7 1065.4,156.7 1065.4,192.9 				"/>
				<path class="st1" d="M1058.7,14.1v26.3H964v45.5h87.7v24.8H964v50.9h96.4V188H933.6V14.1H1058.7 M1068.7,4.1h-9.9H933.6h-9.9
					v9.9V188v9.9h9.9h126.9h9.9V188v-26.3v-9.9h-9.9H974v-31h77.7h9.9v-9.9V85.9V76h-9.9H974V50.3h84.8h9.9v-9.9V14.1V4.1
					L1068.7,4.1z"/>
			</g>
			<g>
				<path class="st2" d="M1082,192.9V9.1h81.7c23.6,0,41.2,6.9,52.1,20.7c10,12.5,12,27.6,12,38.1c0,10.4-2.1,25.4-12,37.8
					c-10.9,13.6-28.2,20.5-51.7,20.5l-41.8,0v66.7H1082z M1162,91.4c6,0,25.5-1.7,25.5-23.8c0-16.7-7.5-23.8-25-23.8h-40.1v47.5
					H1162z"/>
				<path class="st1" d="M1163.7,14.1c49.7,0,59.2,32.2,59.2,53.8c0,21.4-9.4,53.3-58.6,53.3c-0.2,0-0.4,0-0.5,0h-46.3V188H1087
					V14.1H1163.7 M1117.4,96.4h44.6c13.6,0,30.4-6.8,30.4-28.7c0-22.9-13.9-28.7-30-28.7h-45.1V96.4 M1163.7,4.1H1087h-9.9v9.9V188
					v9.9h9.9h30.4h9.9V188v-56.8h36.3l0.5,0c25,0,43.7-7.5,55.5-22.4c10.8-13.5,13-29.7,13-40.9c0-11.3-2.3-27.7-13.1-41.2
					C1207.8,11.7,1188.9,4.1,1163.7,4.1L1163.7,4.1z M1127.4,48.9h35.1c6.8,0,11.8,1.2,14.8,3.6c5.2,4.1,5.2,12.4,5.2,15.1
					c0,6.7-2,11.5-6.1,14.6c-3.5,2.6-8.7,4.1-14.4,4.1h-34.6V48.9L1127.4,48.9z"/>
			</g>
			<g>
				<path class="st2" d="M1323.5,197.1c-26.3,0-48.8-9.9-65-28.6c-15-17.4-23.3-41.3-23.3-67.4c0-26.1,8.3-50,23.3-67.4
					c16.2-18.7,38.6-28.6,65-28.6c26.3,0,48.8,9.9,65,28.6c15,17.4,23.3,41.3,23.3,67.4c0,26.1-8.3,50-23.3,67.4
					C1372.2,187.2,1349.8,197.1,1323.5,197.1z M1323.5,39.8c-15.6,0-27.8,6.2-36.3,18.5c-7.5,10.8-11.6,26-11.6,42.8
					c0,16.8,4.1,32,11.6,42.8c8.5,12.3,20.7,18.5,36.3,18.5c15.6,0,27.8-6.2,36.3-18.5c7.5-10.8,11.6-26,11.6-42.8
					c0-16.8-4.1-32-11.6-42.8C1351.3,46,1339.1,39.8,1323.5,39.8z"/>
				<path class="st1" d="M1323.5,9.9c52.1,0,83.3,41.4,83.3,91.1c0,49.7-31.2,91.1-83.3,91.1c-52.1,0-83.3-41.4-83.3-91.1
					C1240.2,51.4,1271.3,9.9,1323.5,9.9 M1323.5,167.3c37.3,0,52.8-32.9,52.8-66.2s-15.6-66.2-52.8-66.2s-52.8,32.9-52.8,66.2
					C1270.6,134.4,1286.2,167.3,1323.5,167.3 M1323.5,0c-14.1,0-27.2,2.7-39.1,8.1c-11.4,5.2-21.3,12.6-29.6,22.2
					c-15.8,18.3-24.5,43.4-24.5,70.7c0,27.3,8.7,52.4,24.5,70.7c8.3,9.6,18.2,17.1,29.6,22.2c11.9,5.4,25,8.1,39.1,8.1
					c14.1,0,27.2-2.7,39.1-8.1c11.4-5.2,21.3-12.6,29.6-22.2c15.8-18.3,24.5-43.4,24.5-70.7c0-27.3-8.7-52.4-24.5-70.7
					c-8.3-9.6-18.2-17.1-29.6-22.2C1350.7,2.7,1337.5,0,1323.5,0L1323.5,0z M1323.5,157.3c-13.9,0-24.7-5.5-32.2-16.3
					c-6.9-10-10.7-24.2-10.7-40c0-15.8,3.8-30,10.7-40c7.5-10.8,18.3-16.3,32.2-16.3s24.7,5.5,32.2,16.3c6.9,10,10.7,24.2,10.7,40
					c0,15.8-3.8,30-10.7,40C1348.2,151.8,1337.4,157.3,1323.5,157.3L1323.5,157.3z"/>
			</g>
			<g>
				<path class="st2" d="M1508.5,197.1c-26.3,0-48.8-9.9-64.9-28.6c-15-17.4-23.3-41.3-23.3-67.4c0-26.1,8.3-50,23.3-67.4
					c16.2-18.7,38.6-28.6,65-28.6c20.9,0.1,39.3,5.9,53.3,16.8c14.8,11.4,23.6,27.7,25.5,47.1l0.5,5.5H1548l-1-3.7
					c-5.2-20.5-18.2-30.8-38.5-30.8c-15.6,0-27.8,6.2-36.3,18.5c-7.5,10.8-11.6,26-11.6,42.8c0,16.8,4.1,32,11.6,42.8
					c8.5,12.3,20.7,18.5,36.3,18.5c22.2,0,36.9-15.3,39.4-41.1l0.4-4.5h39.5l-0.3,5.3c-1.3,21.8-9.5,40.5-23.7,54.1
					C1549.6,189.8,1530.4,197.1,1508.5,197.1z"/>
				<path class="st1" d="M1508.5,9.9c39.2,0.2,70.1,21.9,73.8,59.4h-30.4c-5.1-20-18-34.6-43.4-34.6c-37.3,0-52.8,32.9-52.8,66.2
					s15.6,66.2,52.8,66.2c27,0,41.9-20.2,44.3-45.6h29.7c-2.4,41.6-31.9,70.4-74,70.4c-52.1,0-83.3-41.4-83.3-91.1
					C1425.3,51.4,1456.4,9.9,1508.5,9.9 M1508.6,0L1508.6,0c-14.1,0-27.3,2.7-39.1,8.1c-11.4,5.2-21.3,12.6-29.6,22.2
					c-15.8,18.3-24.5,43.4-24.5,70.7c0,27.3,8.7,52.4,24.5,70.7c8.3,9.6,18.2,17.1,29.6,22.2c11.9,5.4,25,8.1,39.1,8.1
					c23.2,0,43.5-7.7,58.8-22.3c15.1-14.5,23.8-34.3,25.2-57.4l0.6-10.5h-10.5h-29.7h-9l-0.9,9c-1.1,11-4.7,20.2-10.4,26.6
					c-6,6.6-14,10-24,10c-13.9,0-24.7-5.5-32.2-16.3c-6.9-10-10.7-24.2-10.7-40c0-15.8,3.8-30,10.7-40c7.5-10.8,18.3-16.3,32.2-16.3
					c9.6,0,17.1,2.4,22.7,7.3c5.1,4.4,8.8,11.1,11,19.8l1.9,7.5h7.7h30.4h11l-1.1-10.9c-2-20.8-11.5-38.3-27.4-50.6
					C1550,6.3,1530.5,0.1,1508.6,0L1508.6,0L1508.6,0z"/>
			</g>
			<g>
				<polygon class="st2" points="1714.2,192.9 1714.2,114.5 1645,114.5 1645,192.9 1604.6,192.9 1604.6,9.1 1645,9.1 1645,78.3 
					1714.2,78.3 1714.2,9.1 1754.6,9.1 1754.6,192.9 				"/>
				<path class="st1" d="M1749.6,14.1V188h-30.4v-78.4H1640V188h-30.4V14.1h0h30.4v69.2h79.1V14.1H1749.6 M1759.6,4.1h-9.9h-30.4
					h-9.9v9.9v59.2H1650V14.1V4.1h-9.9h-30.4h-9.9v9.9l0,173.9v9.9h9.9h30.4h9.9V188v-68.5h59.3V188v9.9h9.9h30.4h9.9V188V14.1V4.1
					L1759.6,4.1z"/>
			</g>
			<g>
				<polygon class="st2" points="1887.4,192.9 1887.4,45.4 1832.3,45.4 1832.3,9.1 1983,9.1 1983,45.4 1927.8,45.4 1927.8,192.9 
									"/>
				<path class="st1" d="M1978.1,14.1v26.3h-55.3V188h-30.4V40.4h-55l0-26.3H1978.1 M1837.3,14.1L1837.3,14.1L1837.3,14.1
					 M1837.3,14.1L1837.3,14.1 M1988,4.1h-9.9h-140.8h-9.9v9.9l0,26.3v9.9h9.9h45.1V188v9.9h9.9h30.4h9.9V188V50.3h45.3h9.9v-9.9
					V14.1V4.1L1988,4.1z"/>
			</g>
			<g>
				<polygon class="st2" points="2032.9,192.9 1971.7,9.1 2013.8,9.1 2054.1,136.1 2095.2,9.1 2136.7,9.1 2073.9,192.9 				"/>
				<path class="st1" d="M2129.8,14.1L2070.4,188h-33.9l-58-173.9h31.7l43.6,137.6h0.5l44.6-137.6H2129.8 M2143.7,4.1h-13.9h-30.9
					h-7.2l-2.2,6.9l-35.2,108.8l-34.5-108.8l-2.2-6.9h-7.3h-31.7h-13.8l4.4,13.1l58,173.9l2.3,6.8h7.2h33.9h7.1l2.3-6.7l59.4-173.9
					L2143.7,4.1L2143.7,4.1z"/>
			</g>
			<g>
				<path class="st2" d="M2290,197.1c-26.3,0-48.8-9.9-65-28.6c-15-17.4-23.3-41.3-23.3-67.4c0-26.1,8.3-50,23.3-67.4
					c16.2-18.7,38.6-28.6,65-28.6c20.5,0,38.8,5.5,52.8,16c15.1,11.3,24.4,27.8,26.7,47.8l0.7,5.6h-39.7l-0.6-4.3
					c-1.8-13.9-13.3-30.2-39.9-30.2c-15.6,0-27.8,6.2-36.3,18.5c-7.5,10.8-11.6,26-11.6,42.8c0,16.8,4.1,32,11.6,42.8
					c8.5,12.2,20.7,18.5,36.3,18.5c0.4,0,0.8,0,1.2,0c24.9,0,40.1-13.7,42.3-37.8h-46V91.4h84v101.5H2343l-3.5-15.3
					C2325.2,191.5,2310.6,197.1,2290,197.1z"/>
				<path class="st1" d="M2290,10c38,0,69.9,20.2,74.5,59.4h-29.7c-2.9-22.9-22.9-34.6-44.8-34.6c-37.3,0-52.8,32.9-52.8,66.2
					c0,33.4,15.6,66.2,52.8,66.2c0.4,0,0.8,0,1.2,0c30.4,0,47-18.6,47.5-47.7h-46.3V96.4h74V188h0H2347l-4.6-20.5
					c-16.3,18.5-31.2,24.6-52.4,24.6c-52.1,0-83.3-41.4-83.3-91.1C2206.8,51.4,2237.9,10,2290,10 M2290,0c-14.1,0-27.2,2.7-39.1,8.1
					c-11.4,5.2-21.3,12.6-29.6,22.2c-15.8,18.3-24.5,43.4-24.5,70.7c0,27.3,8.7,52.4,24.5,70.7c8.3,9.6,18.2,17.1,29.6,22.2
					c11.9,5.4,25,8.1,39.1,8.1c18.7,0,33.1-4.5,46.5-15.2l0.7,3.3l1.8,7.8h7.9h19.5h9.9l0-9.9V96.4v-9.9h-9.9h-74h-9.9v9.9v23.1v9.9
					h9.9h35.3c-1.4,7.4-4.4,13.4-8.7,17.9c-6.4,6.6-15.7,9.9-27.8,9.9c-0.3,0-0.7,0-1,0l-0.1,0h-0.1c-13.9,0-24.7-5.5-32.2-16.3
					c-6.9-10-10.7-24.2-10.7-40c0-15.8,3.8-30,10.7-40c7.5-10.8,18.3-16.3,32.2-16.3c9.1,0,17.6,2.4,23.8,6.9
					c6.4,4.6,10.2,11,11.2,19l1.1,8.7h8.8h29.7h11.2l-1.3-11.1C2369.6,26.8,2336.4,0,2290,0L2290,0z"/>
			</g>
			<g>
				<path class="st2" d="M2509.4,192.9l-16.3-46h-62.4l-16.3,46h-42.2l70.5-183.8h39.2l70.8,183.8H2509.4z M2481.5,113.8l-19.4-55.8
					l-19.6,55.8H2481.5z"/>
				<path class="st1" d="M2478.5,14.1l67,173.9h-32.6l-16.3-46h-69.4l-16.3,46h-31.4l66.7-173.9H2478.5 M2435.4,118.8h53.1
					L2462.4,44h-0.7L2435.4,118.8 M2485.4,4.1h-6.8h-32.4h-6.8l-2.4,6.4l-66.7,173.9l-5.2,13.5h14.5h31.4h7l2.3-6.6l14-39.4h55.4
					l14,39.4l2.3,6.6h7h32.6h14.5l-5.2-13.5l-67-173.9L2485.4,4.1L2485.4,4.1z M2449.5,108.9l12.6-35.8l12.5,35.8H2449.5
					L2449.5,108.9z"/>
			</g>
			<g>
				<polygon class="st2" points="2708.1,192.9 2708.1,81 2667.8,192.9 2635.8,192.9 2595.5,81 2595.5,192.9 2556.6,192.9 
					2556.6,9.1 2608,9.1 2652.6,135.8 2696.1,9.1 2747,9.1 2747,192.9 				"/>
				<path class="st1" d="M2742,14.1V188h-29V53.8h-0.5L2664.3,188h-25.1L2591,53.8h-0.5V188h-29l0-173.9h42.9l48,136.1h0.5
					l46.8-136.1H2742 M2561.6,14.1L2561.6,14.1L2561.6,14.1 M2561.6,14.1L2561.6,14.1 M2752,4.1h-9.9h-42.4h-7.1l-2.3,6.7
					l-37.7,109.8l-38.7-109.9l-2.3-6.6h-7h-42.9h-9.9v9.9l0,173.9v9.9h9.9h29h9.9V188v-78.4l29.4,81.8l2.4,6.6h7h25.1h7l2.4-6.6
					l29.4-81.8V188v9.9h9.9h29h9.9V188V14.1V4.1L2752,4.1z"/>
			</g>
			<g>
				<polygon class="st2" points="2773.6,192.9 2773.6,9.1 2908.7,9.1 2908.7,45.4 2814,45.4 2814,81 2901.7,81 2901.7,115.7 
					2814,115.7 2814,156.7 2910.4,156.7 2910.4,192.9 				"/>
				<path class="st1" d="M2903.7,14.1v26.3H2809v45.5h87.7v24.8H2809v50.9h96.4V188h-126.9V14.1H2903.7 M2778.6,14.1L2778.6,14.1
					L2778.6,14.1 M2913.7,4.1h-9.9h-125.2h0h-9.9v9.9V188v9.9h9.9h126.9h9.9V188v-26.3v-9.9h-9.9H2819v-31h77.7h9.9v-9.9V85.9V76
					h-9.9H2819V50.3h84.8h9.9v-9.9V14.1V4.1L2913.7,4.1z"/>
			</g>
		</g>
	</g>
	<g>
		<g>
			<g>
				<path class="st0" d="M209.6,660.9c-66-14.7-119-77.2-119-150.2c0-81.9,61.9-150.2,145.5-150.2c59.5,0,96,24.2,123.1,51.8
					l47.7-64.2c-47.7-44.8-103.7-63-171.4-63C106,285.1,9.9,389.3,9.9,510.7c0,119.6,97.2,228,230.3,228
					c121.9,0,189.1-76,213.3-130.2h-90.1c-14.7,22.4-31.2,38.9-56.5,46l53.6-70.1h101.3v145.5h80.7V293.9h-67.2L209.6,660.9z
					 M461.8,515.4h-54.2l53-77.8h1.2V515.4z"/>
			</g>
			<g>
				<path class="st0" d="M906.5,465.3c-44.2-14.7-66-24.7-66-60.7c0-25.9,19.4-44.2,44.8-44.2c21.8,0,45.4,10,48.9,48.9h82.5
					c-4.1-89-78.4-124.3-129-124.3c-35.3,0-66.6,13-89,33.6c-25.3-23.6-58.3-33.6-85.4-33.6c-74.2,0-127.8,48.3-127.8,121.9
					c0,86,60.1,110.7,98.4,127.2c53.6,23,82.5,29.5,82.5,74.2c0,33-28.3,54.8-60.1,54.8c-24.7,0-53.6-14.7-57.7-58.3h-84.8
					c4.7,96,86,133.7,142,133.7c31.2,0,63.6-9.4,89.5-28.9c25.9,20,57.2,28.9,84.3,28.9c82.5,0,141.4-55.4,141.4-139
					C1020.8,504.8,942.5,477.1,906.5,465.3z M730.4,467.7c-47.1-20-64.2-35.9-64.2-64.8c0-22.4,14.7-42.4,44.8-42.4
					c21.8,0,45.4,10,48.9,48.9c0,40.7,13.5,67.7,31.2,86.6C769.3,482.4,746.3,474.1,730.4,467.7z M885.9,663.3
					c-15.3,0-35.3-5.3-44.8-19.4c3.5-13.5,5.9-28.3,5.9-44.2c0-38.9-13.5-65.4-31.8-84.2c17.1,10.6,34.2,16.5,46.5,21.2
					c57.7,21.8,78.4,34.2,78.3,73.6C940.1,640.9,916.6,663.3,885.9,663.3z"/>
			</g>
			<g>
				<polygon class="st0" points="1033.8,729.8 1268.2,729.8 1268.2,654.4 1114.5,654.4 1114.5,551.3 1261.8,551.3 1261.8,475.9 
					1114.5,475.9 1114.5,369.3 1268.2,369.3 1268.2,293.9 1033.8,293.9 				"/>
			</g>
			<g>
				<polygon class="st0" points="1527.6,369.3 1589.5,369.3 1589.5,729.8 1670.2,729.8 1670.2,369.3 1732.2,369.3 1732.2,293.9 
					1527.6,293.9 				"/>
			</g>
			<g>
				<polygon class="st0" points="1295.6,369.3 1357.6,369.3 1357.6,729.8 1438.3,729.8 1438.3,369.3 1500.2,369.3 1500.2,293.9 
					1295.6,293.9 				"/>
			</g>
			<g>
				<polygon class="st0" points="1759.5,729.8 1994,729.8 1994,654.4 1840.3,654.4 1840.3,551.3 1987.5,551.3 1987.5,475.9 
					1840.3,475.9 1840.3,369.3 1994,369.3 1994,293.9 1759.5,293.9 				"/>
			</g>
			<g>
				<polygon class="st0" points="2416.4,580.8 2415.2,580.8 2219.6,293.9 2120.1,293.9 2427,729.8 2497.1,729.8 2497.1,293.9 
					2416.4,293.9 				"/>
			</g>
			<g>
				<rect x="2524.2" y="293.9" class="st0" width="80.7" height="435.9"/>
			</g>
			<g>
				<path class="st0" d="M2782.8,465.3c-32.4-10.6-72.5-18.9-72.5-60.7c0-25.9,19.4-44.2,44.8-44.2c30.6,0,46.5,19.4,48.9,48.9h82.5
					c-3.5-70.7-58.3-124.3-129-124.3c-71.3,0-127.8,52.4-127.8,124.3c0,50.1,20,86,64.2,109c13,6.5,25.9,11.2,39.5,16.5
					c38.3,14.7,83.1,24.2,83.1,73.6c0,33-28.9,54.8-60.1,54.8c-34.7,0-54.8-25.3-57.7-58.3h-84.8c3.5,77.2,64.8,133.7,142,133.7
					c81.3,0,141.4-56.6,141.4-139C2897.1,523,2848.8,487.1,2782.8,465.3z"/>
			</g>
			<g>
				<rect x="2905.9" y="293.9" class="st0" width="80.7" height="435.9"/>
			</g>
			<g>
				<path class="st0" d="M3231.1,285.1c-126.1,0-228,101.3-228,228c0,125.5,103.1,225.6,228,225.6s228-100.1,228-225.6
					C3459.1,386.4,3357.2,285.1,3231.1,285.1z M3231.1,663.3c-82.5,0-147.3-69.5-147.3-150.8c0-81.9,63.6-152,147.3-152
					c83.6,0,147.3,70.1,147.3,152C3378.4,593.7,3313.6,663.3,3231.1,663.3z"/>
			</g>
			<g>
				<polygon class="st0" points="3748.3,293.9 3748.3,610.8 3747.2,610.8 3566.9,293.9 3475,293.9 3475,729.8 3555.7,729.8 
					3555.7,412.9 3556.9,412.9 3738.9,729.8 3829.1,729.8 3829.1,293.9 				"/>
			</g>
		</g>
		<g>
			<g>
				<polygon class="st2" points="933.6,14.1 1058.7,14.1 1058.7,40.4 964,40.4 964,85.9 1051.7,85.9 1051.7,110.8 964,110.8 
					964,161.7 1060.4,161.7 1060.4,188 933.6,188 				"/>
			</g>
			<g>
				<path class="st2" d="M1087,14.1h76.7c49.7,0,59.2,32.2,59.2,53.8c0,21.4-9.5,53.6-59.2,53.3h-46.3V188H1087V14.1z M1117.4,96.4
					h44.6c13.6,0,30.4-6.8,30.4-28.7c0-22.9-13.9-28.7-30-28.7h-45.1V96.4z"/>
			</g>
			<g>
				<path class="st2" d="M1406.8,101c0,49.7-31.2,91.1-83.3,91.1c-52.1,0-83.3-41.4-83.3-91.1c0-49.7,31.2-91.1,83.3-91.1
					C1375.6,9.9,1406.8,51.4,1406.8,101z M1270.6,101c0,33.4,15.6,66.2,52.8,66.2s52.8-32.9,52.8-66.2s-15.6-66.2-52.8-66.2
					S1270.6,67.7,1270.6,101z"/>
			</g>
			<g>
				<path class="st2" d="M1551.9,69.4c-5.1-20-18-34.6-43.4-34.6c-37.3,0-52.8,32.9-52.8,66.2s15.6,66.2,52.8,66.2
					c27,0,41.9-20.2,44.3-45.6h29.7c-2.4,41.6-31.9,70.4-74,70.4c-52.1,0-83.3-41.4-83.3-91.1c0-49.7,31.2-91.1,83.3-91.1
					c39.2,0.2,70.1,21.9,73.8,59.4H1551.9z"/>
			</g>
			<g>
				<polygon class="st2" points="1609.6,14.1 1640,14.1 1640,83.2 1719.2,83.2 1719.2,14.1 1749.6,14.1 1749.6,188 1719.2,188 
					1719.2,109.5 1640,109.5 1640,188 1609.6,188 1609.6,14.1 				"/>
			</g>
			<g>
				<polygon class="st2" points="1837.3,14.1 1978.1,14.1 1978.1,40.4 1922.8,40.4 1922.8,188 1892.4,188 1892.4,40.4 1837.3,40.4 
					1837.3,14.1 				"/>
			</g>
			<g>
				<polygon class="st2" points="1978.6,14.1 2010.2,14.1 2053.8,151.7 2054.3,151.7 2098.9,14.1 2129.8,14.1 2070.4,188 
					2036.5,188 				"/>
			</g>
			<g>
				<path class="st2" d="M2366.5,188H2347l-4.6-20.5c-16.3,18.5-31.2,24.6-52.4,24.6c-52.1,0-83.3-41.4-83.3-91.1
					c0-49.7,31.2-91.1,83.3-91.1c38,0,69.9,20.2,74.5,59.4h-29.7c-2.9-22.9-22.9-34.6-44.8-34.6c-37.3,0-52.8,32.9-52.8,66.2
					s15.6,66.2,52.8,66.2c31.2,0.5,48.2-18.3,48.7-47.7h-46.3V96.4h74L2366.5,188L2366.5,188z"/>
			</g>
			<g>
				<path class="st2" d="M2446.1,14.1h32.4l67,173.9h-32.6l-16.3-46h-69.4l-16.3,46h-31.4L2446.1,14.1z M2435.4,118.8h53.1
					L2462.4,44h-0.7L2435.4,118.8z"/>
			</g>
			<g>
				<polygon class="st2" points="2561.6,14.1 2604.4,14.1 2652.4,150.2 2652.9,150.2 2699.6,14.1 2742,14.1 2742,188 2713,188 
					2713,53.8 2712.5,53.8 2664.3,188 2639.3,188 2591,53.8 2590.5,53.8 2590.5,188 2561.6,188 2561.6,14.1 				"/>
			</g>
			<g>
				<polygon class="st2" points="2778.6,14.1 2903.7,14.1 2903.7,40.4 2809,40.4 2809,85.9 2896.7,85.9 2896.7,110.8 2809,110.8 
					2809,161.7 2905.4,161.7 2905.4,188 2778.6,188 2778.6,14.1 				"/>
			</g>
		</g>
	</g>
</g>
</svg>
