<?xml version="1.0" encoding="utf-8"?>
<!-- Generator: Adobe Illustrator 26.0.3, SVG Export Plug-In . SVG Version: 6.00 Build 0)  -->
<svg version="1.1" id="Layer_1" xmlns="http://www.w3.org/2000/svg" xmlns:xlink="http://www.w3.org/1999/xlink" x="0px" y="0px"
	 viewBox="0 0 3839 1427.6" style="enable-background:new 0 0 3839 1427.6;" xml:space="preserve">
<style type="text/css">
	.st0{display:none;}
	.st1{display:inline;}
	.st2{fill:#65B7FF;}
	.st3{fill:#FFFFFF;}
	.st4{fill:#65B7FF;stroke:#FFFFFF;stroke-width:9.9118;stroke-miterlimit:10;}
	.st5{fill:#65B7FF;stroke:#FFFFFF;stroke-width:9.9482;stroke-miterlimit:10;}
</style>
<g class="st0">
	<g class="st1">
		<g>
			<g>
				<g>
					<g>
						<polygon class="st2" points="278.1,671.2 116.9,671.2 -7.1,795.3 -7.1,1001.1 116.9,1125.1 184.5,1125 184.5,970.2 
							147.8,970.2 147.8,826.1 247.2,826.1 247.2,910.4 402.1,910.4 402.1,795.3 						"/>
						<polygon class="st2" points="210.5,970.2 210.5,1125 247.2,1125 247.2,1269.1 147.8,1269.1 147.8,1176.2 -7.1,1176.2 
							-7.1,1300 116.9,1424 278.1,1424 402.1,1300 402.1,1094.1 278.1,970.2 						"/>
					</g>
					<g>
						<polygon class="st2" points="634.7,1269.1 598,1269.1 598,671.2 443.1,671.2 443.1,1300 567.1,1424 634.7,1424 						"/>
						<polygon class="st2" points="697.4,671.2 697.4,1269.1 660.7,1269.1 660.7,1424 728.3,1424 852.3,1300 852.3,671.2 						"/>
					</g>
					<g>
						<polygon class="st2" points="1859.3,970.2 1859.3,826.1 1859.3,671.2 1859.3,671.2 1704.4,671.2 1704.4,1424 1859.3,1424 
							1859.3,1394.5 1859.3,1125 						"/>
						<polygon class="st2" points="1989.5,671.2 1960.5,671.2 1939.2,671.2 1885.3,671.2 1885.3,826.1 1958.6,826.1 1958.6,893.7 
							1958.6,948.4 1958.6,970.2 1885.3,970.2 1885.3,1125 1958.6,1125 1958.6,1149.6 1958.6,1202.5 1958.6,1418.9 2113.5,1418.9 
							2113.5,1200.8 2113.5,1149.6 2113.5,1132 2029.1,1047.6 2113.5,963.2 2113.5,948.4 2113.5,894.4 2113.5,829 2113.5,808 
							2113.5,795.3 						"/>
					</g>
					<g>
						<rect x="1513.6" y="970.2" class="st2" width="121.6" height="154.9"/>
						<polygon class="st2" points="1661.2,671.2 1487.6,671.2 1487.6,671.2 1332.7,671.2 1332.7,1424 1454.9,1424 1454.9,1424 
							1661.2,1424 1661.2,1269.1 1487.6,1269.1 1487.6,1210.5 1487.6,1125 1487.6,970.2 1487.6,941.1 1487.6,826.1 1661.2,826.1 
													"/>
					</g>
					<g>
						<polygon class="st2" points="1176.3,671.2 1072.1,671.2 1072.1,826.1 1145.4,826.1 1145.4,1019.4 1072.1,1019.4 
							1072.1,1174.2 1176.3,1174.2 1300.3,1050.2 1300.3,795.3 						"/>
						<polygon class="st2" points="1046,1174.2 1046,1019.4 1046,826.1 1046,671.2 891.2,671.2 891.2,1424 1046,1424 						"/>
					</g>
				</g>
				<g>
					<path class="st2" d="M2595.8,980.7v-37.3h-229.6c-26.1,0-47.3,21.2-47.3,47.3v113.7c0,26.1,21.2,47.3,47.3,47.3h229.6v-118.2
						h-138.5v37.3h92.1v43.5h-184.2V980.7L2595.8,980.7L2595.8,980.7z"/>
					<polygon class="st2" points="3517.8,980.7 3517.8,943.4 3321.5,943.4 3275.1,943.4 3275.1,980.7 3275.1,1151.8 3321.5,1151.8 
						3321.5,1070.9 3487.4,1070.9 3487.4,1033.6 3321.5,1033.6 3321.5,980.7 					"/>
					<polygon class="st2" points="3831.9,943.4 3766.3,943.4 3687.5,1022.2 3608.6,943.4 3543,943.4 3647.2,1047.6 3543,1151.8 
						3608.6,1151.8 3687.5,1072.9 3766.3,1151.8 3831.9,1151.8 3727.7,1047.6 					"/>
					<polygon class="st2" points="3186.7,1151.8 3238.9,1151.8 3132.1,943.4 3041.6,943.4 2934.7,1151.8 2986.9,1151.8 
						3074.6,980.7 3099,980.7 					"/>
				</g>
				<rect x="2318.8" y="788.8" class="st2" width="1513.1" height="37.3"/>
				<rect x="2318.8" y="671.2" class="st2" width="1513.1" height="37.3"/>
				<g>
					<rect x="2318.8" y="1381.6" class="st2" width="1513.1" height="37.3"/>
					<rect x="2318.8" y="1264.1" class="st2" width="1513.1" height="37.3"/>
				</g>
			</g>
			<path class="st2" d="M2838.9,1071.1h23.6c26.2-0.1,47.3-21.3,47.3-47.4v-33.3c0-25.9-21-47-47-47h-223.4v208.3h46.3V1071h91.4
				c0.1,0,0.2,0.1,0.3,0.2l56.4,67.3h0l11.3,13.4h0.2h60.4l-12.6-15.1h0l-54.6-65.1C2838.4,1071.4,2838.5,1071.1,2838.9,1071.1z
				 M2686.3,1033.7c-0.2-0.1-0.4-0.2-0.4-0.4v-52.4h177.6v52.9H2686.3z"/>
		</g>
		<g>
			<g>
				<polygon class="st2" points="2190.8,103 2023.3,178.6 1969.8,129.9 1989.2,199.6 1846.3,315.1 2013.8,239.5 2067.2,288.2 
					2047.9,218.6 				"/>
				<g>
					<polygon class="st2" points="2190.8,103 2023.3,178.6 1969.8,129.9 1989.2,199.6 1846.3,315.1 2013.8,239.5 2067.2,288.2 
						2047.9,218.6 					"/>
				</g>
				<g>
					<path class="st2" d="M2025,170.2l1.5-0.7c0.7-2.8,1.2-5.6,1.8-8.6l2.7-17.9l-29.4,5.8L2025,170.2z"/>
					<path class="st2" d="M1888.7,254l29.2-5.8l63-50.9l-11.6-41.9l-8.5,1.7l-2.4,15.7c-0.6,4.1-3.8,7.5-7.9,8.3l-37.2,7.4
						c-3.7,0.7-7-2.4-6.4-6.1L1922.7,80c0.6-4.1,3.8-7.5,7.9-8.3l37.2-7.4c3.7-0.7,7,2.4,6.4,6.1l-2.3,15l70.2-13.9l3.4-21.8
						c4.8-30.9-22.6-57-53.2-50.9L1930.1,11c-40.1,7.9-71,40.2-77.3,80.7l-17.1,111.3C1830.8,234,1858.1,260.1,1888.7,254z"/>
				</g>
				<path class="st2" d="M1399.7,377.2c-27.1-21.6-40.9-44.3-41.3-67.3c-0.9-64.7,107.9-128.7,278.1-164.3l1.8-11.6
					c-174.3,35.7-291.9,101.9-290.9,176.1c0.6,44,42.8,84.1,113.6,115.8l1.8-11.3C1437.5,403,1416.4,390.6,1399.7,377.2z"/>
				<path class="st2" d="M1931.6,106.1l-1.7,11c65.4-0.1,128.7,3.7,188.1,11.1l19.1-8.6C2073.7,110.8,2004.4,106,1931.6,106.1z"/>
				<path class="st2" d="M2174.2,125.4l-11.5,9.3c52.5,8.5,101,19.9,143.9,34.2c50.9,16.9,90.8,36.7,118.5,58.9
					c27.1,21.6,40.9,44.3,41.3,67.3c0.9,66-112.4,131.3-288.5,166.4c-66,13.1-139.2,21.6-214.1,24.9c-1.9,3.9-4,7.7-6.2,11.3
					c80-3.2,155.4-12,222.5-25.3c177.9-35.4,298.4-102.3,297.4-177.4C2476.4,219.6,2353.6,155.9,2174.2,125.4z"/>
				<g>
					<path class="st2" d="M2294.6,243.8l-57.7,11.5c-3.4,0.7-6,3.4-6.5,6.9l-1.8,11.6l69.3-13.8c3.4-0.7,6-3.4,6.5-6.9l0,0
						C2305.3,247.5,2300.2,242.6,2294.6,243.8z"/>
					<path class="st2" d="M1853.6,336l-8.8,57.6c-0.7,4.5,3.4,8.4,7.9,7.5l65.7-13.1l11-71.5l-70.5,13.9
						C1856.2,331.1,1854.1,333.3,1853.6,336z M1877.3,353.4l20.7-4.1l-2.6,16.8l-20.7,4.1L1877.3,353.4z"/>
					<path class="st2" d="M2354.7,203.8c-10.3-15.6-28.9-23-46.6-19.5l-72.6,14.4c-19.1,3.8-35.6,14.9-46.6,30.3
						c-0.4-0.4-0.7-0.7-1.1-1.1c-10.7-10.1-25.7-14.6-40.1-11.6l-88,17.5l7,25.1l86.1-17.1c13.1-2.6,24.8,8.6,22.8,21.8l-16.4,106.7
						L2130,376l14.4-93.3c0.7-4.5-3.4-8.4-7.9-7.5l-65.7,13.1L2055.1,391l-29.1,5.8l18.4-119.5l-32.3-29.4l-86.6,39.1l8.7-1.8
						l29.1-5.8l0,0L1939,436.8c-7.1,46.3-42.4,83.1-88.3,92.3l-32.4,6.4l4.8-31.2l22.7-4.5c34.2-6.8,60.6-34.3,65.9-68.8l1.9-11.8
						l-77.1,15.4c-13.1,2.6-24.8-8.6-22.8-21.8l11.2-72.8c2-13,9-24.3,19.1-31.8v-0.1l51.5-41.6l-36.8,7.3
						c-19.1,3.8-35.6,14.9-46.6,30.3c-0.4-0.4-0.7-0.7-1.1-1.1c-10.7-10.1-25.7-14.6-40.1-11.6l-78,15.5l2.2-14.1l9-58.6l55-10.9
						c40.1-7.9,71-40.2,77.3-80.7l8.1-52.8c4.8-30.9-22.6-57-53.2-50.9l-129.1,25.7l-24.1,156.3l-130.9,26c-3.4,0.7-6,3.4-6.5,6.9
						l-41.7,271.2c-0.9,5.6,4.1,10.5,9.8,9.4l175.8-34.9l0,0l56.8-11.3l15.8-102.7l20.7-4.1l-15.9,102.7l83.4-16.6l2.1-14
						c9.9,6.6,22.1,9.2,34.1,6.9l33.1-6.6c-8.3,10.6-20.2,18.2-33.9,20.9l-34.9,7c-3.4,0.7-6,3.4-6.5,6.9l-10.5,68.6
						c-0.9,5.6,4.1,10.5,9.8,9.4l57.3-11.4c56.6-11.3,100.1-56.7,109-113.8l0.9-5.5l56.2-11.2l0,0l56.2-11.2l15.8-102.7l20.7-4.1
						L2098.8,409l83.4-16.6l2.1-14c9.9,6.6,22.1,9.2,34.1,6.8l118.4-23.6c3.4-0.7,6-3.4,6.5-6.9l12.4-80.2l-3.3,0.6
						c3.1-6.4,5.2-13.4,6.4-20.7l2.7-17.9C2363.2,225.1,2361,213.4,2354.7,203.8z M1722.7,113l44.1-8.7c3.7-0.7,7,2.4,6.4,6.1
						l-6.7,43.8c-0.6,4.1-3.8,7.5-7.9,8.3l-44.8,8.9L1722.7,113z M1621.5,477.2l-12.6,2.6l-14.8,2.9l-82.8,16.5l-22.9,4.5l36-233.9
						l9.6-1.9l71.1-14.1l32.2-6.4l-4.8,31.2l-9.3,1.9l-74.6,14.8l-10.6,68.8l34.9-6.9l6.3-1.2l22.9-4.5l-4.8,31.2l-12.3,2.5
						l-16.9,3.4l-34.9,7l-11,71.5l76.6-15.2l4.2-0.9l23.3-4.7L1621.5,477.2z M1553.6,434l2.6-16.8l64.1-12.7l13.2-85.9l-64.1,12.7
						l2.2-14.1l53.2-10.6l24.2-4.8l-3.4,22.4l-14.6,94.4L1553.6,434z M1782.3,445.2l-29.1,5.8l14.4-93.3c0.7-4.5-3.4-8.4-7.9-7.5
						l-65.7,13.1L1678.2,466l-29.1,5.8l20.6-133.8l106.2-21.2c13.1-2.6,24.8,8.6,22.8,21.8L1782.3,445.2z M1998.8,402.2l-29.1,5.8
						l20.6-133.9l29.1-5.8L1998.8,402.2z M2335.9,231.7l-2.9,18.8c-3.1,20.4-18.7,36.5-38.8,40.6l-70.4,14l-2.1,13.5
						c-0.7,4.5,3.4,8.4,7.9,7.5l65.7-13.1l13-2.6l16.1-3.2l-4.8,31.2l-5.5,1.1l-100.8,20c-13.1,2.6-24.8-8.6-22.8-21.8l11.2-72.8
						c3.1-20.4,18.7-36.5,38.8-40.6L2313,210C2326.3,207.3,2337.9,218.5,2335.9,231.7z"/>
				</g>
			</g>
		</g>
	</g>
</g>
<g>
	<g>
		<g>
			<g>
				<g>
					<g>
						<polygon class="st2" points="5,1000.6 5,792.5 130.8,666.7 294.6,666.7 420.4,792.5 420.4,913.6 257,913.6 257,830.1 
							168.4,830.1 168.4,963 204.7,963 204.7,1126.3 130.8,1126.5 						"/>
						<path class="st3" d="M292.5,671.6l122.9,122.9v114.1H261.9v-83.5h-98.5v142.8h36.4v153.5l-67,0.1L9.9,998.6V794.5l122.9-122.9
							H292.5 M296.6,661.7h-4.1H132.8h-4.1l-2.9,2.9L2.9,787.5L0,790.4v4.1v204.1v4.1l2.9,2.9l122.9,122.9l2.9,2.9l4.1,0l67-0.1
							l9.9,0v-9.9V967.9V958h-9.9h-26.4v-123H252v73.6v9.9h9.9h153.5h9.9v-9.9V794.5v-4.1l-2.9-2.9L299.5,664.6L296.6,661.7
							L296.6,661.7z"/>
					</g>
					<g>
						<polygon class="st2" points="130.8,1422.7 5,1296.9 5,1167.1 168.4,1167.1 168.4,1259.2 257,1259.2 257,1126.4 220.6,1126.4 
							220.6,963 294.6,963 420.4,1088.7 420.4,1296.9 294.6,1422.7 						"/>
						<path class="st3" d="M292.5,967.9l122.9,122.9v204l-122.9,122.9H132.8L9.9,1294.8v-122.7h153.5v92.1h98.5v-142.8h-36.4V967.9
							H292.5 M296.6,958h-4.1h-67h-9.9v9.9v153.5v9.9h9.9H252v123h-78.7v-82.2v-9.9h-9.9H9.9H0v9.9v122.7v4.1l2.9,2.9l122.9,122.9
							l2.9,2.9h4.1h159.7h4.1l2.9-2.9l122.9-122.9l2.9-2.9v-4.1v-204v-4.1l-2.9-2.9L299.5,960.9L296.6,958L296.6,958z"/>
					</g>
				</g>
				<g>
					<g>
						<polygon class="st2" points="577,1422.7 451.2,1296.9 451.2,666.7 614.6,666.7 614.6,1259.2 651,1259.2 651,1422.7 						"/>
						<path class="st3" d="M609.7,671.6v592.6H646v153.5h-67l-122.9-122.9V671.6H609.7 M619.6,661.7h-9.9H456.1h-9.9v9.9v623.2v4.1
							l2.9,2.9L572,1424.7l2.9,2.9h4.1h67h9.9v-9.9v-153.5v-9.9H646h-26.4V671.6V661.7L619.6,661.7z"/>
					</g>
					<g>
						<polygon class="st2" points="666.8,1422.7 666.8,1259.2 703.2,1259.2 703.2,666.7 866.6,666.7 866.6,1296.9 740.8,1422.7 
													"/>
						<path class="st3" d="M861.7,671.6v623.2l-122.9,122.9h-67v-153.5h36.4V671.6H861.7 M871.6,661.7h-9.9H708.2h-9.9v9.9v582.7
							h-26.4h-9.9v9.9v153.5v9.9h9.9h67h4.1l2.9-2.9l122.9-122.9l2.9-2.9v-4.1V671.6V661.7L871.6,661.7z"/>
					</g>
				</g>
				<g>
					<g>
						<rect x="1701.3" y="666.7" class="st2" width="163.4" height="756"/>
						<path class="st3" d="M1859.8,671.6v153.5v142.8v153.5v267.1v29.2h-153.5V671.6H1859.8 M1869.7,661.7h-9.9h-153.5h-9.9v9.9
							v746.1v9.9h9.9h153.5h9.9v-9.9v-29.2v-267.1V967.9V825.1V671.6V661.7L1869.7,661.7z"/>
					</g>
					<g>
						<polygon class="st2" points="1953.3,1417.7 1953.3,1126.4 1880.6,1126.4 1880.6,963 1953.3,963 1953.3,830.1 1880.6,830.1 
							1880.6,666.7 1991,666.7 2116.8,792.5 2116.8,963.1 2035.2,1044.6 2116.8,1126.2 2116.8,1417.7 						"/>
						<path class="st3" d="M1988.9,671.6l122.9,122.9v12.6V828v64.8v53.5V961l-83.7,83.6l83.7,83.7v17.5v50.8v216.2h-153.5v-214.6
							v-52.4v-24.4h-72.7V967.9h72.7v-21.6v-54.2v-67h-72.7V671.6h53.4h21.1H1988.9 M1993,661.7h-4.1h-28.8H1939h-53.4h-9.9v9.9
							v153.5v9.9h9.9h62.8v57v54.2V958h-62.8h-9.9v9.9v153.5v9.9h9.9h62.8v14.5v52.4v214.6v9.9h9.9h153.5h9.9v-9.9v-216.2v-50.8
							v-17.5v-4.1l-2.9-2.9l-76.6-76.6l76.6-76.6l2.9-2.9V961v-14.7v-53.5V828v-20.8v-12.6v-4.1l-2.9-2.9l-122.9-122.9L1993,661.7
							L1993,661.7z"/>
					</g>
				</g>
				<g>
					<g>
						<rect x="1512.2" y="963" class="st2" width="130.5" height="163.4"/>
						<path class="st3" d="M1637.7,967.9v153.5h-120.6V967.9H1637.7 M1647.6,958h-9.9h-120.6h-9.9v9.9v153.5v9.9h9.9h120.6h9.9v-9.9
							V967.9V958L1647.6,958z"/>
					</g>
					<g>
						<polygon class="st2" points="1332.9,1422.7 1332.9,666.7 1668.5,666.7 1668.5,830.1 1496.3,830.1 1496.3,1259.2 
							1668.5,1259.2 1668.5,1422.7 						"/>
						<path class="st3" d="M1663.5,671.6v153.5h-172.1v113.9v28.9v153.5v84.7v58.1h172.1v153.5H1459h-121.1V671.6h153.5H1663.5
							 M1673.4,661.7h-9.9h-172.1h-153.5h-9.9v9.9v746.1v9.9h9.9H1459h204.5h9.9v-9.9v-153.5v-9.9h-9.9h-162.2v-48.2v-84.7V967.9
							v-28.9v-104h162.2h9.9v-9.9V671.6V661.7L1673.4,661.7z"/>
					</g>
				</g>
				<g>
					<g>
						<polygon class="st2" points="1074.6,1175.1 1074.6,1011.7 1147.3,1011.7 1147.3,830.1 1074.6,830.1 1074.6,666.7 
							1184.9,666.7 1310.7,792.5 1310.7,1049.3 1184.9,1175.1 						"/>
						<path class="st3" d="M1182.8,671.6l122.9,122.9v252.7l-122.9,122.9h-103.3v-153.5h72.7V825.1h-72.7V671.6H1182.8 M1187,661.7
							h-4.1h-103.3h-9.9v9.9v153.5v9.9h9.9h62.8v171.7h-62.8h-9.9v9.9v153.5v9.9h9.9h103.3h4.1l2.9-2.9l122.9-122.9l2.9-2.9v-4.1
							V794.5v-4.1l-2.9-2.9l-122.9-122.9L1187,661.7L1187,661.7z"/>
					</g>
					<g>
						<rect x="895.3" y="666.7" class="st2" width="163.4" height="756"/>
						<path class="st3" d="M1053.7,671.6v153.5v191.5v153.5v247.6H900.2V671.6H1053.7 M1063.7,661.7h-9.9H900.2h-9.9v9.9v746.1v9.9
							h9.9h153.5h9.9v-9.9v-247.6v-153.5V825.1V671.6V661.7L1063.7,661.7z"/>
					</g>
				</g>
			</g>
			<g>
				<g>
					<path class="st2" d="M2362.2,1152.9c-28.6,0-51.9-23.3-51.9-51.9V988.3c0-28.6,23.3-51.9,51.9-51.9h232.6v46.9h-228.5v122.6
						h172.6v-33.2h-91.3v-46.9h147.2v127H2362.2z"/>
					<path class="st3" d="M2589.8,941.4v37h-228.5v132.5h182.5v-43.1h-91.3v-37h137.3v117.1h-227.6c-25.9,0-46.9-21-46.9-46.9V988.3
						c0-25.9,21-46.9,46.9-46.9H2589.8 M2589.8,978.4L2589.8,978.4L2589.8,978.4 M2589.8,978.4L2589.8,978.4 M2599.8,931.5h-9.9
						h-227.6c-31.3,0-56.8,25.5-56.8,56.8V1101c0,31.3,25.5,56.8,56.8,56.8h227.6h9.9v-9.9v-117.1v-9.9h-9.9h-137.3h-9.9v9.9v37v9.9
						h9.9h81.4v23.3h-162.7V988.3h218.6h9.9v-9.9v-37V931.5L2599.8,931.5z"/>
				</g>
				<g>
					<polygon class="st2" points="3258.2,1152.9 3258.2,936.4 3508.7,936.4 3508.7,983.3 3314.1,983.3 3314.1,1025.8 3478.5,1025.8 
						3478.5,1072.8 3314.1,1072.8 3314.1,1152.9 					"/>
					<path class="st3" d="M3503.7,941.4v37h-194.6v52.4h164.4v37h-164.4v80.1h-46V978.4v-37h46H3503.7 M3513.6,931.5h-9.9h-194.6
						h-46h-9.9v9.9v37v169.5v9.9h9.9h46h9.9v-9.9v-70.2h154.5h9.9v-9.9v-37v-9.9h-9.9H3319v-32.6h184.7h9.9v-9.9v-37V931.5
						L3513.6,931.5z"/>
				</g>
				<g>
					<polygon class="st2" points="3748,1152.9 3671.9,1076.8 3595.8,1152.9 3516.8,1152.9 3625,1044.6 3516.8,936.4 3595.8,936.4 
						3671.9,1012.5 3748,936.4 3827,936.4 3718.8,1044.6 3827,1152.9 					"/>
					<path class="st3" d="M3815.1,941.4l-103.3,103.3l103.3,103.3h-65l-78.1-78.1l-78.2,78.1h-65l103.3-103.3l-103.3-103.3h65
						l78.2,78.1l78.1-78.1H3815.1 M3839,931.5h-23.9h-65h-4.1l-2.9,2.9l-71.1,71.1l-71.2-71.1l-2.9-2.9h-4.1h-65h-23.9l16.9,16.9
						l96.3,96.3l-96.3,96.3l-16.9,16.9h23.9h65h4.1l2.9-2.9l71.2-71.1l71.1,71.1l2.9,2.9h4.1h65h23.9l-16.9-16.9l-96.3-96.3
						l96.3-96.3L3839,931.5L3839,931.5z"/>
				</g>
				<g>
					<polygon class="st2" points="3172.5,1152.9 3085.6,983.3 3067.4,983.3 2980.5,1152.9 2917.7,1152.9 3028.7,936.4 3124.4,936.4 
						3235.4,1152.9 					"/>
					<path class="st3" d="M3121.4,941.4l105.9,206.5h-51.7l-86.9-169.5h-24.3l-86.9,169.5h-51.7l105.9-206.5H3121.4 M3127.4,931.5
						h-6.1h-89.7h-6.1l-2.8,5.4L2917,1143.4l-7.4,14.4h16.2h51.7h6.1l2.8-5.4l84.1-164.1h12.1l84.2,164.1l2.8,5.4h6.1h51.7h16.2
						l-7.4-14.4l-105.9-206.5L3127.4,931.5L3127.4,931.5z"/>
				</g>
			</g>
			<g>
				<rect x="2310.4" y="783.2" class="st2" width="1509.7" height="46.9"/>
				<path class="st3" d="M3815.1,788.1v37H2315.3v-37H3815.1 M3825,778.2h-9.9H2315.3h-9.9v9.9v37v9.9h9.9h1499.7h9.9v-9.9v-37
					V778.2L3825,778.2z"/>
			</g>
			<g>
				<rect x="2310.4" y="666.7" class="st2" width="1509.7" height="46.9"/>
				<path class="st3" d="M3815.1,671.6v37H2315.3v-37H3815.1 M3825,661.7h-9.9H2315.3h-9.9v9.9v37v9.9h9.9h1499.7h9.9v-9.9v-37
					V661.7L3825,661.7z"/>
			</g>
			<g>
				<g>
					<rect x="2310.4" y="1370.8" class="st2" width="1509.7" height="46.9"/>
					<path class="st3" d="M3815.1,1375.7v37H2315.3v-37H3815.1 M3825,1365.8h-9.9H2315.3h-9.9v9.9v37v9.9h9.9h1499.7h9.9v-9.9v-37
						V1365.8L3825,1365.8z"/>
				</g>
				<g>
					<rect x="2310.4" y="1254.3" class="st2" width="1509.7" height="46.9"/>
					<path class="st3" d="M3815.1,1259.2v37H2315.3v-37H3815.1 M3825,1249.3h-9.9H2315.3h-9.9v9.9v37v9.9h9.9h1499.7h9.9v-9.9v-37
						V1249.3L3825,1249.3z"/>
				</g>
			</g>
		</g>
		<g>
			<path class="st2" d="M2834.8,1153l-12.7-15.1l-54.6-65.1H2684v80h-55.8V936.4h226.4c28.4,0,51.5,23.1,51.5,51.5v33
				c0,28.5-23.3,51.9-51.9,52h-13.7l67.2,80.1H2834.8z M2850.2,1025.9v-42.5h-166.1v42.5H2850.2z"/>
			<path class="st3" d="M2854.6,941.4c25.7,0,46.5,20.8,46.5,46.5v33c0,25.9-21,46.9-46.9,47h-23.4c-0.4,0-0.5,0.4-0.3,0.7
				l54.1,64.5h0l12.5,14.9h-59.8h-0.2l-11.2-13.3h0L2770,1068c-0.1-0.1-0.2-0.2-0.3-0.2h-90.6v80h-45.9V941.4H2854.6 M2679.5,1030.8
				h175.6v-52.4h-176v52C2679.1,1030.6,2679.3,1030.8,2679.5,1030.8 M2854.6,931.5h-221.4h-9.9v9.9v206.5v9.9h9.9h45.9h9.9v-9.9
				v-70.1h76.2l53.1,63.3l11.2,13.3l3,3.5h4.6h0.2h59.8h21.3l-13.7-16.3l-12.5-14.9l-41-48.9h3c31.4-0.1,56.8-25.7,56.8-56.9v-33
				C2911,956.8,2885.7,931.5,2854.6,931.5L2854.6,931.5z M2689.1,988.4h156.2v32.6h-156.2V988.4L2689.1,988.4z"/>
		</g>
	</g>
	<g>
		<path class="st3" d="M2472.6,298.4c-0.5-34.6-24.9-68.1-70.7-96.8c-42.7-26.8-104.1-49.6-177.5-66.1c-14.6-3.3-29.9-6.3-45.4-9.1
			l1.4-1.1l0,0l32.5-26.2c4.2-3.4,0.1-10-4.8-7.8l-33,14.9l-31.9,14.4L2133,119c-63.9-8.9-131.7-13.4-201.7-13.4h-2.9l2.4-15.7
			c0.1-0.5,0.5-1,1-1.1l31.9-6.3l-3.4,22.1l86.2-17.2l4.2-27.2c4.2-27.1-13.5-53.1-40.2-59.1c-7.1-1.6-14.4-1.7-21.7-0.2L1928,13.1
			c-34.3,6.8-62.4,30.6-75.5,62.1c-5.6-17-19.8-30.7-38.3-34.9c-7.1-1.6-14.4-1.7-21.7-0.2l-131.8,26.2l-10,65.3l-7.4,1.5
			c-85.9,17.6-158.1,42.8-208.8,72.9c-54.2,32.1-82.5,69.2-82,107.4c0.6,45.2,40.7,87,115.9,120.7l6.1,2.7l-13,84.3
			c-1.3,8.4,3.7,16.8,11.9,19c2.5,0.7,5,0.8,7.5,0.2l316.8-63c-2.1,2.3-3.5,5.3-4,8.5l-10.2,66.4c-1.3,8.4,3.7,16.8,11.9,19
			c2.5,0.7,5,0.8,7.5,0.2l55.9-11.1c35.4-7,66-27.2,86.6-55l11.4-0.4c77.2-3,150.7-11.4,218.6-24.9c87.6-17.4,161.3-42.7,213.3-73
			C2444.1,374.5,2473.1,337,2472.6,298.4z"/>
		<g>
			<g>
				<polygon class="st2" points="2184.3,111.1 2020.7,184.9 1968.6,137.4 1987.5,205.4 1847.9,318.2 2011.5,244.4 2063.7,291.9 
					2044.7,223.9 				"/>
			</g>
			<g>
				<g>
					<polygon class="st2" points="2184.3,111.1 2020.7,184.9 1968.6,137.4 1987.5,205.4 1847.9,318.2 2011.5,244.4 2063.7,291.9 
						2044.7,223.9 					"/>
				</g>
			</g>
			<g>
				<g>
					<path class="st2" d="M2022.4,176.8l1.5-0.7c0.7-2.7,1.3-5.5,1.7-8.3l2.7-17.5l-28.7,5.7L2022.4,176.8z"/>
				</g>
				<g>
					<path class="st2" d="M1889.4,258.6l28.5-5.7l61.5-49.7l-11.4-41l-8.3,1.7l-2.4,15.3c-0.6,4.1-3.7,7.3-7.7,8.1l-36.4,7.3
						c-3.6,0.7-6.8-2.4-6.2-6l15.4-100c0.6-4.1,3.7-7.3,7.7-8.1l36.4-7.2c3.6-0.7,6.8,2.4,6.2,6l-2.2,14.7l68.5-13.6l3.3-21.3
						c4.6-30.1-22.1-55.7-51.9-49.7l-60.7,12.1c-39.2,7.8-69.3,39.3-75.4,78.8l-16.7,108.7C1832.8,239,1859.5,264.5,1889.4,258.6z"
						/>
				</g>
			</g>
			<g>
				<path class="st2" d="M1412,378.9c-26.4-21.1-40-43.2-40.3-65.7c-0.8-63.2,105.4-125.7,271.5-160.4l1.8-11.4
					c-170.2,34.9-285,99.5-284.1,171.9c0.6,43,41.8,82.1,110.9,113.1l1.7-11.1C1448.9,404.1,1428.3,391.9,1412,378.9z"/>
			</g>
			<g>
				<path class="st2" d="M1931.3,114.1l-1.7,10.8c63.8-0.1,125.7,3.6,183.6,10.9l18.6-8.4C2070,118.8,2002.3,114.1,1931.3,114.1z"/>
			</g>
			<g>
				<path class="st2" d="M2168,133l-11.2,9c51.2,8.3,98.7,19.5,140.5,33.4c49.7,16.5,88.6,35.9,115.7,57.5
					c26.4,21.1,40,43.2,40.3,65.7c0.9,64.5-109.7,128.2-281.7,162.4c-64.4,12.8-135.9,21.1-209.1,24.3c-1.9,3.8-3.9,7.5-6.1,11.1
					c78.1-3.1,151.7-11.7,217.2-24.7c173.7-34.5,291.3-99.8,290.4-173.2C2463.1,225,2343.2,162.8,2168,133z"/>
			</g>
			<g>
				<g>
					<path class="st2" d="M2285.6,248.6l-56.3,11.2c-3.3,0.7-5.9,3.4-6.4,6.7l-1.8,11.4l67.6-13.5c3.3-0.7,5.9-3.4,6.4-6.7l0,0
						C2296,252.2,2291.1,247.5,2285.6,248.6z"/>
				</g>
				<g>
					<path class="st2" d="M1855.2,338.6l-8.6,56.2c-0.7,4.4,3.2,8.2,7.6,7.3l64.2-12.8l10.7-69.8l-68.8,13.7
						C1857.6,333.7,1855.6,335.9,1855.2,338.6z M1878.2,355.5l20.2-4l-2.5,16.4l-20.2,4L1878.2,355.5z"/>
				</g>
				<g>
					<path class="st2" d="M2344.2,209.5c-10.1-15.3-28.2-22.4-45.5-19l-70.8,14.1c-18.7,3.7-34.8,14.6-45.4,29.5
						c-0.4-0.4-0.7-0.7-1.1-1.1c-10.4-9.9-25-14.2-39.2-11.4l-85.9,17.1l6.8,24.5l84-16.7c12.8-2.5,24.2,8.4,22.2,21.3l-16,104.2
						l-28.4,5.7l14-91.1c0.7-4.4-3.2-8.2-7.6-7.3l-64.2,12.8l-15.4,100.3l-28.4,5.7l17.9-116.7l-31.5-28.7l-84.6,38.2l8.5-1.7
						l28.4-5.7l0,0l-23.6,153.6c-6.9,45.2-41.4,81.2-86.2,90.1l-31.6,6.3l4.7-30.5l22.1-4.4c33.4-6.7,59.2-33.5,64.3-67.2l1.8-11.6
						l-75.3,15c-12.8,2.5-24.2-8.4-22.2-21.3l10.9-71.1c2-12.6,8.8-23.6,18.6-31l0-0.1l50.3-40.6l-35.9,7.1
						c-18.7,3.7-34.8,14.6-45.4,29.5c-0.4-0.4-0.7-0.7-1.1-1.1c-10.4-9.9-25-14.2-39.2-11.4l-76.2,15.1l2.1-13.8l8.8-57.2l53.7-10.7
						c39.2-7.8,69.3-39.3,75.4-78.8l7.9-51.6c4.6-30.1-22.1-55.7-51.9-49.7l-126,25.1L1644.7,226l-127.8,25.4
						c-3.3,0.7-5.9,3.3-6.4,6.7l-40.7,264.8c-0.8,5.5,4.1,10.2,9.5,9.1l171.6-34.1l0,0l55.4-11l15.4-100.3l20.2-4l-15.4,100.3
						l81.4-16.2l2.1-13.7c9.7,6.5,21.7,9,33.3,6.7l32.3-6.4c-8.1,10.3-19.7,17.8-33.1,20.4l-34.1,6.8c-3.3,0.7-5.9,3.3-6.4,6.7
						l-10.3,66.9c-0.8,5.5,4.1,10.2,9.5,9.1l55.9-11.1c55.3-11,97.8-55.4,106.4-111.1l0.8-5.4l54.9-10.9l0,0l54.9-10.9l15.4-100.3
						l20.2-4l-15.4,100.3l81.4-16.2l2.1-13.7c9.7,6.5,21.7,9,33.3,6.7l115.6-23c3.3-0.7,5.9-3.3,6.4-6.7l12.1-78.3l-3.2,0.6
						c3-6.3,5.1-13.1,6.2-20.2l2.7-17.5C2352.6,230.3,2350.4,218.9,2344.2,209.5z M1727.3,120.9l43.1-8.6c3.6-0.7,6.8,2.4,6.2,6
						l-6.6,42.8c-0.6,4.1-3.7,7.3-7.7,8.1l-43.7,8.7L1727.3,120.9z M1628.5,476.5l-12.3,2.5l-14.5,2.9l-80.8,16.1l-22.3,4.4
						l35.1-228.4l9.4-1.9l69.4-13.8l31.5-6.2l-4.7,30.5l-9.1,1.8l-72.8,14.4l-10.3,67.2l34.1-6.8l6.1-1.2l22.3-4.4l-4.7,30.5
						l-12,2.4l-16.5,3.3l-34.1,6.8l-10.7,69.8l74.7-14.9l4.1-0.8l22.8-4.5L1628.5,476.5z M1562.3,434.3l2.5-16.4l62.5-12.4
						l12.9-83.9l-62.5,12.4l2.1-13.8l51.9-10.3l23.6-4.7l-3.4,21.9l-14.2,92.2L1562.3,434.3z M1785.5,445.3l-28.4,5.7l14-91.1
						c0.7-4.4-3.2-8.2-7.6-7.3l-64.2,12.8l-15.4,100.3l-28.4,5.7l20.1-130.7l103.7-20.6c12.8-2.5,24.2,8.4,22.2,21.3L1785.5,445.3z
						 M1996.9,403.2l-28.4,5.7l20.1-130.7l28.4-5.7L1996.9,403.2z M2325.9,236.7l-2.8,18.3c-3.1,19.9-18.2,35.7-37.9,39.6
						l-68.8,13.7l-2,13.2c-0.7,4.4,3.2,8.2,7.6,7.3l64.2-12.8l12.7-2.5l15.7-3.1l-4.7,30.5l-5.4,1.1l-98.3,19.6
						c-12.8,2.5-24.2-8.4-22.2-21.3l10.9-71.1c3.1-19.9,18.2-35.7,37.9-39.6l70.8-14.1C2316.5,212.9,2327.9,223.8,2325.9,236.7z"/>
				</g>
			</g>
		</g>
	</g>
</g>
</svg>
