<?xml version="1.0" encoding="utf-8"?>
<!-- Generator: Adobe Illustrator 26.0.3, SVG Export Plug-In . SVG Version: 6.00 Build 0)  -->
<svg version="1.1" id="Layer_1" xmlns="http://www.w3.org/2000/svg" xmlns:xlink="http://www.w3.org/1999/xlink" x="0px" y="0px"
	 viewBox="0 0 3839 689.7" style="enable-background:new 0 0 3839 689.7;" xml:space="preserve">
<style type="text/css">
	.st0{display:none;}
	.st1{display:inline;}
	.st2{fill:#65B7FF;}
	.st3{fill:#FFFFFF;}
	.st4{fill:#65B7FF;stroke:#FFFFFF;stroke-width:9.9118;stroke-miterlimit:10;}
	.st5{fill:#65B7FF;stroke:#FFFFFF;stroke-width:9.9482;stroke-miterlimit:10;}
</style>
<g class="st0">
	<g class="st1">
		<g>
			<g>
				<g>
					<g>
						<polygon class="st2" points="641.9,7.1 497.3,7.1 386.1,118.4 386.1,303.1 497.3,414.4 558,414.3 558,275.4 525,275.4 
							525,146.1 614.2,146.1 614.2,221.7 753.2,221.7 753.2,118.4 						"/>
						<polygon class="st2" points="581.3,275.4 581.3,414.3 614.2,414.3 614.2,543.6 525,543.6 525,460.2 386.1,460.2 386.1,571.3 
							497.3,682.6 641.9,682.6 753.2,571.3 753.2,386.6 641.9,275.4 						"/>
					</g>
					<g>
						<polygon class="st2" points="961.9,543.6 929,543.6 929,7.1 790,7.1 790,571.3 901.3,682.6 961.9,682.6 						"/>
						<polygon class="st2" points="1018.2,7.1 1018.2,543.6 985.3,543.6 985.3,682.6 1045.9,682.6 1157.2,571.3 1157.2,7.1 						
							"/>
					</g>
					<g>
						<polygon class="st2" points="2060.8,275.4 2060.8,146.1 2060.8,7.1 2060.8,7.1 1921.8,7.1 1921.8,682.6 2060.8,682.6 
							2060.8,656.1 2060.8,414.3 						"/>
						<polygon class="st2" points="2177.6,7.1 2151.6,7.1 2132.5,7.1 2084.1,7.1 2084.1,146.1 2149.9,146.1 2149.9,206.7 
							2149.9,255.8 2149.9,275.4 2084.1,275.4 2084.1,414.3 2149.9,414.3 2149.9,436.4 2149.9,483.8 2149.9,678.1 2288.9,678.1 
							2288.9,482.3 2288.9,436.4 2288.9,420.6 2213.2,344.8 2288.9,269.1 2288.9,255.8 2288.9,207.3 2288.9,148.7 2288.9,129.8 
							2288.9,118.4 						"/>
					</g>
					<g>
						<rect x="1750.6" y="275.4" class="st2" width="109.1" height="139"/>
						<polygon class="st2" points="1883.1,7.1 1727.2,7.1 1727.2,7.1 1588.3,7.1 1588.3,682.6 1697.9,682.6 1697.9,682.6 
							1883.1,682.6 1883.1,543.6 1727.2,543.6 1727.2,491 1727.2,414.3 1727.2,275.4 1727.2,249.3 1727.2,146.1 1883.1,146.1 						
							"/>
					</g>
					<g>
						<polygon class="st2" points="1447.9,7.1 1354.4,7.1 1354.4,146.1 1420.2,146.1 1420.2,319.5 1354.4,319.5 1354.4,458.4 
							1447.9,458.4 1559.2,347.2 1559.2,118.4 						"/>
						<polygon class="st2" points="1331,458.4 1331,319.5 1331,146.1 1331,7.1 1192.1,7.1 1192.1,682.6 1331,682.6 						"/>
					</g>
				</g>
				<g>
					<path class="st2" d="M2721.7,284.8v-33.5h-206c-23.4,0-42.5,19-42.5,42.5v102c0,23.4,19,42.5,42.5,42.5h206v-106h-124.3v33.5
						h82.6v39h-165.3v-120L2721.7,284.8L2721.7,284.8z"/>
					<polygon class="st2" points="3549,284.8 3549,251.3 3372.8,251.3 3331.2,251.3 3331.2,284.8 3331.2,438.3 3372.8,438.3 
						3372.8,365.8 3521.7,365.8 3521.7,332.3 3372.8,332.3 3372.8,284.8 					"/>
					<polygon class="st2" points="3830.9,251.3 3772,251.3 3701.3,322.1 3630.5,251.3 3571.7,251.3 3665.1,344.8 3571.7,438.3 
						3630.5,438.3 3701.3,367.6 3772,438.3 3830.9,438.3 3737.4,344.8 					"/>
					<polygon class="st2" points="3252,438.3 3298.7,438.3 3202.9,251.3 3121.7,251.3 3025.8,438.3 3072.6,438.3 3151.3,284.8 
						3173.2,284.8 					"/>
				</g>
				<rect x="2473.2" y="112.6" class="st2" width="1357.7" height="33.5"/>
				<rect x="2473.2" y="7.1" class="st2" width="1357.7" height="33.5"/>
				<g>
					<rect x="2473.2" y="644.5" class="st2" width="1357.7" height="33.5"/>
					<rect x="2473.2" y="539.1" class="st2" width="1357.7" height="33.5"/>
				</g>
			</g>
			<path class="st2" d="M2939.8,365.9h21.2c23.5-0.1,42.5-19.1,42.5-42.6v-29.8c0-23.3-18.9-42.1-42.1-42.1h-200.4v186.9h41.6v-72.4
				h82c0.1,0,0.2,0,0.3,0.1l50.6,60.4h0l10.1,12.1h0.2h54.2l-11.3-13.5h0l-49-58.4C2939.3,366.2,2939.5,365.9,2939.8,365.9z
				 M2802.9,332.3c-0.2,0-0.3-0.2-0.3-0.4v-47h159.4v47.4H2802.9z"/>
		</g>
		<g>
			<g>
				<polygon class="st2" points="268.8,511.2 223.6,411.1 252.7,379.1 211.1,390.7 142.1,305.3 187.3,405.4 158.1,437.4 
					199.8,425.8 				"/>
				<g>
					<polygon class="st2" points="268.8,511.2 223.6,411.1 252.7,379.1 211.1,390.7 142.1,305.3 187.3,405.4 158.1,437.4 
						199.8,425.8 					"/>
				</g>
				<g>
					<path class="st2" d="M228.7,412.1l0.4,0.9c1.7,0.4,3.4,0.7,5.1,1.1l10.7,1.6l-3.5-17.6L228.7,412.1z"/>
					<path class="st2" d="M178.6,330.7l3.5,17.5l30.4,37.7l25-7l-1-5.1l-9.4-1.4c-2.5-0.4-4.5-2.3-5-4.7l-4.4-22.3
						c-0.4-2.2,1.4-4.2,3.6-3.8l61.2,9.4c2.5,0.4,4.5,2.3,5,4.7L292,378c0.4,2.2-1.4,4.2-3.6,3.8l-9-1.4l8.3,42l13,2
						c18.5,2.8,34.1-13.5,30.4-31.8l-7.4-37.2c-4.7-24-24-42.4-48.2-46.2L209,299C190.5,296,174.9,312.4,178.6,330.7z"/>
				</g>
				<path class="st2" d="M104.9,38.4c12.9-16.2,26.5-24.5,40.2-24.7c38.7-0.5,76.9,64.5,98.2,166.2l7,1.1
					C229,76.8,189.4,6.5,145.1,7.1C118.8,7.5,94.8,32.7,75.8,75l6.7,1.1C89.5,61,96.9,48.4,104.9,38.4z"/>
				<path class="st2" d="M267,356.3l-6.6-1c0.1,39.1-2.2,76.9-6.6,112.4l5.1,11.4C264.1,441.2,267,399.8,267,356.3z"/>
				<path class="st2" d="M255.4,501.3l-5.5-6.9c-5.1,31.4-11.9,60.4-20.5,86c-10.1,30.4-21.9,54.3-35.2,70.8
					c-12.9,16.2-26.5,24.5-40.2,24.7c-39.4,0.5-78.5-67.2-99.5-172.4c-7.9-39.4-12.9-83.2-14.9-128c-2.3-1.2-4.6-2.4-6.7-3.7
					c1.9,47.8,7.2,92.9,15.1,133c21.1,106.3,61.1,178.3,106,177.8C199.1,681.9,237.2,608.5,255.4,501.3z"/>
				<g>
					<path class="st2" d="M184.7,573.2l-6.9-34.5c-0.4-2.1-2.1-3.6-4.1-3.9l-7-1.1l8.2,41.4c0.4,2.1,2.1,3.6,4.1,3.9l0,0
						C182.5,579.6,185.4,576.6,184.7,573.2z"/>
					<path class="st2" d="M129.6,309.7l-34.4-5.3c-2.7-0.4-5,2-4.5,4.7l7.8,39.3l42.7,6.6l-8.3-42.1
						C132.5,311.2,131.2,310,129.6,309.7z M119.2,323.8l2.5,12.4l-10-1.5l-2.5-12.4L119.2,323.8z"/>
					<path class="st2" d="M208.6,609.2c9.3-6.2,13.8-17.2,11.7-27.8l-8.6-43.4c-2.3-11.4-8.9-21.3-18.1-27.8
						c0.2-0.2,0.4-0.4,0.6-0.6c6.1-6.4,8.7-15.3,7-24l-10.4-52.6l-15,4.2l10.2,51.5c1.6,7.8-5.1,14.8-13,13.6l-63.8-9.8l-3.5-17.4
						l55.8,8.6c2.7,0.4,5-2,4.5-4.7l-7.8-39.3l-61.4-9.4l-3.5-17.4l71.4,11l17.6-19.3l-23.4-51.8l1.1,5.2l3.5,17.4l0,0l-94.1-14.5
						c-27.7-4.3-49.7-25.4-55.2-52.8l-3.8-19.4l18.7,2.8l2.7,13.6c4.1,20.5,20.5,36.2,41.1,39.4l7.1,1.1l-9.2-46.1
						c-1.6-7.8,5.1-14.8,13-13.6l43.5,6.7c7.8,1.2,14.5,5.4,19,11.4h0.1l24.9,30.8l-4.4-22c-2.3-11.4-8.9-21.3-18.1-27.8
						c0.2-0.2,0.4-0.4,0.6-0.6c6.1-6.4,8.7-15.3,7-24l-9.3-46.6l8.4,1.3l35,5.4l6.5,32.9c4.7,24,24,42.4,48.2,46.2l31.6,4.9
						c18.5,2.8,34.1-13.5,30.4-31.8l-15.3-77.1l-93.4-14.4l-15.6-78.3c-0.4-2.1-2.1-3.6-4.1-3.9L16.7,73.8c-3.4-0.5-6.3,2.5-5.6,5.9
						l20.9,105l0,0l6.7,34l61.4,9.4l2.5,12.4L41.2,231l9.9,49.8l8.4,1.3c-4,5.9-5.5,13.2-4.1,20.4l4,19.8
						c-6.3-5-10.9-12.1-12.5-20.2l-4.2-20.8c-0.4-2.1-2.1-3.6-4.1-3.9l-41-6.3c-3.4-0.5-6.3,2.5-5.6,5.9l6.8,34.2
						c6.7,33.9,33.9,59.9,68,65.1l3.3,0.5l6.7,33.6l0,0l6.7,33.6l61.4,9.4l2.5,12.4L86,456.2l9.9,49.8l8.4,1.3
						c-4,5.9-5.5,13.2-4.1,20.4l14.1,70.8c0.4,2.1,2.1,3.6,4.1,3.9l47.9,7.4l-0.4-2c3.8,1.8,8,3.1,12.4,3.8l10.7,1.6
						C195.9,614.3,202.9,613,208.6,609.2z M262.8,231.4l5.2,26.4c0.4,2.2-1.4,4.2-3.6,3.8l-26.2-4c-2.5-0.4-4.5-2.3-5-4.7l-5.3-26.8
						L262.8,231.4z M45.1,171l-1.5-7.5l-1.7-8.9L32,105.1l-2.7-13.7L169.1,113l1.2,5.7l8.4,42.5l3.8,19.2l-18.7-2.8l-1.1-5.5
						l-8.9-44.6l-41.1-6.3l4.1,20.8l0.7,3.7l2.7,13.7l-18.7-2.8l-1.5-7.3l-2-10.1L94,118.3l-42.7-6.6l9.1,45.8l0.5,2.5l2.8,13.9
						L45.1,171z M71,130.4l10,1.5l7.6,38.3l51.4,7.9l-7.6-38.3l8.4,1.3l6.3,31.8l2.8,14.4l-13.4-2.1l-56.4-8.7L71,130.4z
						 M64.3,267.1l-3.5-17.4l55.8,8.6c2.7,0.4,5-2,4.5-4.7l-7.8-39.3l-61.4-9.4l-3.5-17.4l80,12.3l12.7,63.5
						c1.6,7.8-5.1,14.8-13,13.6L64.3,267.1z M90,396.5l-3.5-17.4l80,12.3l3.5,17.4L90,396.5z M191.9,597.9l-11.2-1.7
						c-12.2-1.8-21.8-11.2-24.3-23.2l-8.4-42.1l-8.1-1.3c-2.7-0.4-5,2-4.5,4.7l7.8,39.3l1.5,7.8l1.9,9.6l-18.7-2.8l-0.6-3.3
						l-12-60.2c-1.6-7.8,5.1-14.8,13-13.6l43.5,6.7c12.2,1.8,21.8,11.2,24.3,23.2l8.6,43.3C206.5,592.2,199.8,599.1,191.9,597.9z"/>
				</g>
			</g>
		</g>
	</g>
</g>
<g>
	<g>
		<g>
			<g>
				<g>
					<g>
						<polygon class="st2" points="393.8,305.5 393.8,118.2 507.1,5 654.6,5 767.8,118.2 767.8,227.7 620.1,227.7 620.1,152.7 
							541.6,152.7 541.6,271 574.2,271 574.2,418.7 507.1,418.8 						"/>
						<path class="st3" d="M652.5,9.9l110.4,110.4v102.4H625v-75h-88.4v128.2h32.6v137.8l-60.1,0.1L398.8,303.5V120.3L509.1,9.9
							H652.5 M656.6,0h-4.1H509.1H505l-2.9,2.9L391.7,113.3l-2.9,2.9v4.1v183.2v4.1l2.9,2.9l110.4,110.4l2.9,2.9l4.1,0l60.1-0.1
							l9.9,0v-9.9V275.9V266h-9.9h-22.7V157.7h68.6v65v9.9h9.9h137.8h9.9v-9.9V120.3v-4.1l-2.9-2.9L659.5,2.9L656.6,0L656.6,0z"/>
					</g>
					<g>
						<polygon class="st2" points="507.1,684.7 393.8,571.5 393.8,454.3 541.6,454.3 541.6,537 620.1,537 620.1,418.7 587.4,418.7 
							587.4,271 654.6,271 767.8,384.2 767.8,571.5 654.6,684.7 						"/>
						<path class="st3" d="M652.5,275.9l110.4,110.3v183.2L652.5,679.8H509.1L398.8,569.4V459.3h137.8v82.7H625V413.7h-32.6V275.9
							H652.5 M656.6,266h-4.1h-60.1h-9.9v9.9v137.8v9.9h9.9h22.7V532h-68.6v-72.8v-9.9h-9.9H398.8h-9.9v9.9v110.2v4.1l2.9,2.9
							l110.4,110.4l2.9,2.9h4.1h143.4h4.1l2.9-2.9l110.4-110.4l2.9-2.9v-4.1V386.3v-4.1l-2.9-2.9L659.5,268.9L656.6,266L656.6,266z"
							/>
					</g>
				</g>
				<g>
					<g>
						<polygon class="st2" points="907.7,684.7 794.4,571.5 794.4,5 942.2,5 942.2,537 974.8,537 974.8,684.7 						"/>
						<path class="st3" d="M937.2,9.9v532h32.6v137.8h-60.1L799.4,569.4V9.9H937.2 M947.1,0h-9.9H799.4h-9.9v9.9v559.5v4.1l2.9,2.9
							l110.4,110.4l2.9,2.9h4.1h60.1h9.9v-9.9V541.9V532h-9.9h-22.7V9.9V0L947.1,0z"/>
					</g>
					<g>
						<polygon class="st2" points="988.1,684.7 988.1,537 1020.7,537 1020.7,5 1168.4,5 1168.4,571.5 1055.2,684.7 						"/>
						<path class="st3" d="M1163.5,9.9v559.5l-110.4,110.4H993V541.9h32.6V9.9H1163.5 M1173.4,0h-9.9h-137.8h-9.9v9.9V532H993h-9.9
							v9.9v137.8v9.9h9.9h60.1h4.1l2.9-2.9l110.4-110.4l2.9-2.9v-4.1V9.9V0L1173.4,0z"/>
					</g>
				</g>
				<g>
					<g>
						<rect x="1916.8" y="5" class="st2" width="147.8" height="679.8"/>
						<path class="st3" d="M2059.6,9.9v137.8v128.2v137.8v239.8v26.2h-137.8V9.9H2059.6 M2069.5,0h-9.9h-137.8h-9.9v9.9v669.9v9.9
							h9.9h137.8h9.9v-9.9v-26.2V413.7V275.9V147.8V9.9V0L2069.5,0z"/>
					</g>
					<g>
						<polygon class="st2" points="2143.1,680.3 2143.1,418.7 2077.8,418.7 2077.8,271 2143.1,271 2143.1,152.7 2077.8,152.7 
							2077.8,5 2177.6,5 2290.8,118.2 2290.8,271.8 2217.8,344.8 2290.8,417.9 2290.8,680.3 						"/>
						<path class="st3" d="M2175.5,9.9l110.4,110.4v11.4v18.7v58.2v48.1v13.2l-75.1,75.1l75.1,75.1v15.7v45.6v194.1H2148V482.7v-47
							v-21.9h-65.3V275.9h65.3v-19.4v-48.7v-60.1h-65.3V9.9h48h18.9H2175.5 M2179.6,0h-4.1h-25.9h-18.9h-48h-9.9v9.9v137.8v9.9h9.9
							h55.4v50.2v48.7v9.5h-55.4h-9.9v9.9v137.8v9.9h9.9h55.4v12v47v192.6v9.9h9.9h137.8h9.9v-9.9V481.2v-45.6v-15.7v-4.1l-2.9-2.9
							l-68.1-68.1l68.1-68l2.9-2.9v-4.1v-13.2v-48.1v-58.2v-18.7v-11.4v-4.1l-2.9-2.9L2182.5,2.9L2179.6,0L2179.6,0z"/>
					</g>
				</g>
				<g>
					<g>
						<rect x="1747" y="271" class="st2" width="118.2" height="147.8"/>
						<path class="st3" d="M1860.2,275.9v137.8H1752V275.9H1860.2 M1870.1,266h-9.9H1752h-9.9v9.9v137.8v9.9h9.9h108.2h9.9v-9.9
							V275.9V266L1870.1,266z"/>
					</g>
					<g>
						<polygon class="st2" points="1586.1,684.7 1586.1,5 1888.3,5 1888.3,152.7 1733.8,152.7 1733.8,537 1888.3,537 1888.3,684.7 
													"/>
						<path class="st3" d="M1883.4,9.9v137.8h-154.5V250v25.9v137.8v76v52.2h154.5v137.8h-183.6H1591V9.9h137.8H1883.4 M1893.3,0
							h-9.9h-154.5H1591h-9.9v9.9v669.9v9.9h9.9h108.7h183.6h9.9v-9.9V541.9V532h-9.9h-144.6v-42.2v-76V275.9V250v-92.4h144.6h9.9
							v-9.9V9.9V0L1893.3,0z"/>
					</g>
				</g>
				<g>
					<g>
						<polygon class="st2" points="1354.1,462.4 1354.1,314.7 1419.4,314.7 1419.4,152.7 1354.1,152.7 1354.1,5 1453.9,5 
							1567.1,118.2 1567.1,349.2 1453.9,462.4 						"/>
						<path class="st3" d="M1451.8,9.9l110.4,110.4v226.9l-110.4,110.3h-92.8V319.7h65.3V147.8h-65.3V9.9H1451.8 M1455.9,0h-4.1
							h-92.8h-9.9v9.9v137.8v9.9h9.9h55.4v152.1h-55.4h-9.9v9.9v137.8v9.9h9.9h92.8h4.1l2.9-2.9l110.4-110.3l2.9-2.9v-4.1V120.3
							v-4.1l-2.9-2.9L1458.8,2.9L1455.9,0L1455.9,0z"/>
					</g>
					<g>
						<rect x="1193.1" y="5" class="st2" width="147.8" height="679.8"/>
						<path class="st3" d="M1335.9,9.9v137.8v171.9v137.8v222.3h-137.8V9.9H1335.9 M1345.8,0h-9.9h-137.8h-9.9v9.9v669.9v9.9h9.9
							h137.8h9.9v-9.9V457.5V319.7V147.8V9.9V0L1345.8,0z"/>
					</g>
				</g>
			</g>
			<g>
				<g>
					<path class="st2" d="M2510.7,442.5c-26,0-47.1-21.1-47.1-47.1V294.2c0-26,21.1-47.1,47.1-47.1H2720v43.1h-205.2v109h154v-28.8
						h-81.9v-43.1H2720v115.1H2510.7z"/>
					<path class="st3" d="M2715,252.1v33.2h-205.2v119h163.9v-38.7h-81.9v-33.2H2715v105.1h-204.3c-23.3,0-42.1-18.9-42.1-42.1
						V294.2c0-23.3,18.9-42.1,42.1-42.1H2715 M2715,285.3L2715,285.3L2715,285.3 M2715,285.3L2715,285.3 M2725,242.2h-9.9h-204.3
						c-28.7,0-52,23.3-52,52v101.2c0,28.7,23.3,52,52,52H2715h9.9v-9.9V332.4v-9.9h-9.9h-123.2h-9.9v9.9v33.2v9.9h9.9h72v18.9
						h-144.1v-99.1H2715h9.9v-9.9v-33.2V242.2L2725,242.2z"/>
				</g>
				<g>
					<polygon class="st2" points="3314.6,442.5 3314.6,247.2 3540.5,247.2 3540.5,290.3 3365.8,290.3 3365.8,327.4 3513.4,327.4 
						3513.4,370.6 3365.8,370.6 3365.8,442.5 					"/>
					<path class="st3" d="M3535.5,252.1v33.2h-174.7v47h147.6v33.2h-147.6v71.9h-41.3V285.3v-33.2h41.3H3535.5 M3545.4,242.2h-9.9
						h-174.7h-41.3h-9.9v9.9v33.2v152.2v9.9h9.9h41.3h9.9v-9.9v-62h137.7h9.9v-9.9v-33.2v-9.9h-9.9h-137.7v-27.2h164.8h9.9v-9.9
						v-33.2V242.2L3545.4,242.2z"/>
				</g>
				<g>
					<polygon class="st2" points="3754.6,442.5 3686.5,374.4 3618.4,442.5 3546,442.5 3643.7,344.8 3546,247.2 3618.4,247.2 
						3686.5,315.2 3754.6,247.2 3827,247.2 3729.4,344.8 3827,442.5 					"/>
					<path class="st3" d="M3815.1,252.1l-92.7,92.7l92.7,92.7h-58.4l-70.1-70.1l-70.2,70.1H3558l92.7-92.7l-92.7-92.7h58.3
						l70.2,70.1l70.1-70.1H3815.1 M3839,242.2h-23.9h-58.4h-4.1l-2.9,2.9l-63.1,63.1l-63.2-63.1l-2.9-2.9h-4.1H3558H3534l16.9,16.9
						l85.7,85.7l-85.7,85.7l-16.9,16.9h23.9h58.3h4.1l2.9-2.9l63.2-63.1l63.1,63.1l2.9,2.9h4.1h58.4h23.9l-16.9-16.9l-85.7-85.7
						l85.7-85.7L3839,242.2L3839,242.2z"/>
				</g>
				<g>
					<polygon class="st2" points="3237.9,442.5 3159.8,290.3 3144.1,290.3 3066.1,442.5 3008.5,442.5 3108.7,247.2 3195.3,247.2 
						3295.4,442.5 					"/>
					<path class="st3" d="M3192.2,252.1l95.1,185.4h-46.4l-78.1-152.2h-21.8l-78,152.2h-46.4l95.1-185.4H3192.2 M3198.3,242.2h-6.1
						h-80.5h-6.1l-2.8,5.4L3007.8,433l-7.4,14.4h16.2h46.4h6.1l2.8-5.4l75.2-146.8h9.7l75.3,146.8l2.8,5.4h6.1h46.4h16.2l-7.4-14.4
						l-95.1-185.4L3198.3,242.2L3198.3,242.2z"/>
				</g>
			</g>
			<g>
				<rect x="2463.6" y="109.6" class="st2" width="1356.4" height="43.1"/>
				<path class="st3" d="M3815.1,114.5v33.2H2468.6v-33.2H3815.1 M3825,104.6h-9.9H2468.6h-9.9v9.9v33.2v9.9h9.9h1346.5h9.9v-9.9
					v-33.2V104.6L3825,104.6z"/>
			</g>
			<g>
				<rect x="2463.6" y="5" class="st2" width="1356.4" height="43.1"/>
				<path class="st3" d="M3815.1,9.9v33.2H2468.6V9.9H3815.1 M3825,0h-9.9H2468.6h-9.9v9.9v33.2v9.9h9.9h1346.5h9.9v-9.9V9.9V0
					L3825,0z"/>
			</g>
			<g>
				<g>
					<rect x="2463.6" y="637.1" class="st2" width="1356.4" height="43.1"/>
					<path class="st3" d="M3815.1,642.1v33.2H2468.6v-33.2H3815.1 M3825,632.1h-9.9H2468.6h-9.9v9.9v33.2v9.9h9.9h1346.5h9.9v-9.9
						v-33.2V632.1L3825,632.1z"/>
				</g>
				<g>
					<rect x="2463.6" y="532.5" class="st2" width="1356.4" height="43.1"/>
					<path class="st3" d="M3815.1,537.5v33.2H2468.6v-33.2H3815.1 M3825,527.5h-9.9H2468.6h-9.9v9.9v33.2v9.9h9.9h1346.5h9.9v-9.9
						v-33.2V527.5L3825,527.5z"/>
				</g>
			</g>
		</g>
		<g>
			<path class="st2" d="M2934.7,442.6l-11.5-13.7l-48.8-58.2h-74.2v71.8H2749V247.2h203.7c25.8,0,46.7,21,46.7,46.7v29.6
				c0,25.9-21.1,47.1-47.1,47.2h-11.2l60.3,71.9H2934.7z M2948.3,327.5v-37.1h-148.1v37.1H2948.3z"/>
			<path class="st3" d="M2952.7,252.1c23.1,0,41.8,18.7,41.8,41.8v29.6c0,23.3-18.8,42.1-42.1,42.2h-21c-0.3,0-0.5,0.3-0.3,0.6
				l48.6,57.9h0l11.3,13.4h-53.7h-0.2l-10-12h0l-50.2-59.9c-0.1-0.1-0.2-0.1-0.3-0.1h-81.3v71.8h-41.2V252.1H2952.7 M2795.6,332.4
				h157.7v-47h-158V332C2795.2,332.2,2795.4,332.4,2795.6,332.4 M2952.7,242.2h-198.8h-9.9v9.9v185.4v9.9h9.9h41.2h9.9v-9.9v-61.9
				h66.9l47.4,56.5l10,12l3,3.5h4.6h0.2h53.7h21.3l-13.7-16.3l-11.3-13.4l-35.4-42.2h0.5c28.7-0.1,52-23.5,52-52.1v-29.6
				C3004.4,265.4,2981.2,242.2,2952.7,242.2L2952.7,242.2z M2805.1,295.3h138.2v27.2h-138.2V295.3L2805.1,295.3z"/>
		</g>
	</g>
	<g>
		<path class="st3" d="M168.3,689.7c21.3-0.3,41.9-15.3,59.6-43.5c16.5-26.3,30.6-64.1,40.7-109.3c2-9,3.9-18.4,5.6-28l0.7,0.9l0,0
			l16.2,20c2.1,2.6,6.2,0.1,4.8-3l-9.2-20.3l-8.9-19.6l0.9-6.3c5.5-39.3,8.2-81.1,8.2-124.2v-1.8l9.7,1.5c0.3,0.1,0.6,0.3,0.7,0.6
			l3.9,19.6l-13.6-2.1l10.6,53.1l16.7,2.6c16.7,2.6,32.7-8.3,36.4-24.8c1-4.4,1-8.9,0.1-13.4l-7.4-37.4
			c-4.2-21.1-18.8-38.4-38.2-46.5c10.5-3.4,18.9-12.2,21.5-23.6c1-4.4,1-8.9,0.1-13.4l-16.2-81.2l-40.2-6.2l-0.9-4.6
			c-10.8-52.9-26.4-97.4-44.9-128.6C205.5,17.1,182.6-0.3,159.1,0c-27.8,0.4-53.5,25.1-74.3,71.4l-1.7,3.8l-51.9-8
			c-5.2-0.8-10.3,2.3-11.7,7.3c-0.4,1.5-0.5,3.1-0.1,4.6l38.8,195.1c-1.4-1.3-3.3-2.2-5.2-2.5l-40.9-6.3c-5.2-0.8-10.3,2.3-11.7,7.3
			c-0.4,1.5-0.5,3.1-0.1,4.6l6.8,34.4c4.3,21.8,16.7,40.6,33.9,53.3l0.3,7c1.9,47.5,7,92.8,15.3,134.6c10.7,53.9,26.3,99.3,45,131.3
			C121.4,672.1,144.5,690,168.3,689.7z"/>
		<g>
			<g>
				<polygon class="st2" points="283.6,512.2 238.2,411.5 267.4,379.4 225.6,391 156.1,305.1 201.6,405.8 172.3,437.9 214.2,426.3 
									"/>
			</g>
			<g>
				<g>
					<polygon class="st2" points="283.6,512.2 238.2,411.5 267.4,379.4 225.6,391 156.1,305.1 201.6,405.8 172.3,437.9 214.2,426.3 
											"/>
				</g>
			</g>
			<g>
				<g>
					<path class="st2" d="M243.2,412.5l0.4,0.9c1.7,0.4,3.4,0.8,5.1,1l10.8,1.7l-3.5-17.6L243.2,412.5z"/>
				</g>
				<g>
					<path class="st2" d="M192.8,330.6l3.5,17.6l30.6,37.9l25.2-7l-1-5.1l-9.4-1.5c-2.5-0.4-4.5-2.3-5-4.8l-4.5-22.4
						c-0.4-2.2,1.5-4.2,3.7-3.8l61.5,9.5c2.5,0.4,4.5,2.3,5,4.8l4.5,22.4c0.4,2.2-1.5,4.2-3.7,3.8l-9-1.4l8.4,42.2l13.1,2
						c18.5,2.9,34.3-13.6,30.6-32l-7.4-37.4c-4.8-24.1-24.2-42.7-48.5-46.4l-66.9-10.3C204.9,295.8,189.2,312.2,192.8,330.6z"/>
				</g>
			</g>
			<g>
				<path class="st2" d="M118.8,36.7c13-16.3,26.6-24.6,40.5-24.8c38.9-0.5,77.4,64.9,98.7,167.2l7,1.1
					C243.5,75.3,203.8,4.6,159.2,5.2c-26.4,0.4-50.5,25.7-69.7,68.3l6.8,1C103.3,59.4,110.8,46.7,118.8,36.7z"/>
			</g>
			<g>
				<path class="st2" d="M281.8,356.4l-6.7-1c0.1,39.3-2.2,77.4-6.7,113l5.2,11.4C278.9,441.8,281.8,400.2,281.8,356.4z"/>
			</g>
			<g>
				<path class="st2" d="M270.2,502.2l-5.6-6.9c-5.1,31.5-12,60.7-20.6,86.5c-10.2,30.6-22.1,54.6-35.4,71.2
					c-13,16.3-26.6,24.6-40.5,24.8c-39.7,0.5-78.9-67.5-100-173.4c-7.9-39.6-13-83.6-14.9-128.7c-2.3-1.1-4.6-2.4-6.8-3.7
					c1.9,48.1,7.2,93.4,15.2,133.7c21.3,106.9,61.5,179.4,106.6,178.8C213.5,683.9,251.8,610,270.2,502.2z"/>
			</g>
			<g>
				<g>
					<path class="st2" d="M199,574.6l-6.9-34.7c-0.4-2-2.1-3.6-4.1-4l-7-1.1l8.3,41.6c0.4,2,2.1,3.6,4.1,4l0,0
						C196.8,581,199.7,578,199,574.6z"/>
				</g>
				<g>
					<path class="st2" d="M143.6,309.5l-34.6-5.3c-2.7-0.4-5,2-4.5,4.7l7.9,39.5l43,6.6l-8.4-42.3
						C146.6,311.1,145.2,309.8,143.6,309.5z M133.2,323.8l2.5,12.4l-10.1-1.5l-2.5-12.4L133.2,323.8z"/>
				</g>
				<g>
					<path class="st2" d="M223,610.7c9.4-6.2,13.8-17.4,11.7-28L226,539c-2.3-11.5-9-21.4-18.2-28c0.2-0.2,0.4-0.4,0.7-0.6
						c6.1-6.4,8.7-15.4,7-24.1L205,433.4l-15.1,4.2l10.3,51.7c1.6,7.9-5.2,14.9-13.1,13.7l-64.1-9.9l-3.5-17.5l56.1,8.6
						c2.7,0.4,5-2,4.5-4.7l-7.9-39.5l-61.7-9.5l-3.5-17.5l71.8,11l17.7-19.4L173,352.7l1,5.2l3.5,17.5l0,0l-94.6-14.6
						c-27.8-4.3-50-25.5-55.5-53.1l-3.9-19.5l18.8,2.9l2.7,13.6c4.1,20.6,20.6,36.4,41.4,39.6l7.1,1.1l-9.2-46.3
						c-1.6-7.9,5.2-14.9,13.1-13.7l43.8,6.7c7.8,1.2,14.6,5.4,19.1,11.5l0,0l25,31l-4.4-22.1c-2.3-11.5-9-21.4-18.2-28
						c0.2-0.2,0.4-0.4,0.7-0.6c6.1-6.4,8.7-15.4,7-24.1l-9.3-46.9l8.5,1.3l35.2,5.4l6.6,33.1c4.8,24.1,24.2,42.7,48.5,46.4l31.7,4.9
						c18.5,2.9,34.3-13.6,30.6-32l-15.4-77.6l-94-14.5l-15.6-78.7c-0.4-2-2-3.6-4.1-3.9L30.1,72.3c-3.4-0.5-6.3,2.5-5.6,5.9
						l21,105.6l0,0l6.8,34.1l61.7,9.5l2.5,12.4l-61.7-9.5l10,50.1l8.4,1.3c-4,6-5.5,13.3-4.1,20.5l4,19.9
						c-6.4-5-10.9-12.1-12.6-20.4l-4.2-21c-0.4-2-2-3.6-4.1-3.9L11,270.5c-3.4-0.5-6.3,2.5-5.6,5.9l6.8,34.4
						c6.8,34,34.1,60.2,68.4,65.5l3.3,0.5l6.7,33.8l0,0l6.7,33.8l61.7,9.5l2.5,12.4l-61.7-9.5l10,50.1l8.4,1.3
						c-4,6-5.5,13.3-4.1,20.5l14.2,71.2c0.4,2,2,3.6,4.1,3.9l48.2,7.4l-0.4-2c3.9,1.9,8.1,3.2,12.4,3.8l10.8,1.7
						C210.2,615.8,217.3,614.5,223,610.7z M277.6,230.8l5.3,26.5c0.4,2.2-1.5,4.2-3.7,3.8l-26.4-4.1c-2.5-0.4-4.5-2.3-5-4.8
						l-5.4-26.9L277.6,230.8z M58.7,170l-1.5-7.6l-1.8-8.9l-9.9-49.8L42.8,90l140.6,21.6l1.1,5.8l8.5,42.8l3.8,19.4l-18.8-2.9
						l-1.1-5.6l-8.9-44.8l-41.4-6.4l4.2,21l0.8,3.8l2.7,13.7l-18.8-2.9l-1.5-7.4l-2-10.1l-4.2-21l-43-6.6l9.2,46l0.5,2.6l2.8,14
						L58.7,170z M84.7,129.2l10.1,1.5l7.7,38.5l51.6,7.9l-7.7-38.5l8.5,1.3l6.4,32l2.9,14.5l-13.5-2.1l-56.8-8.7L84.7,129.2z
						 M77.9,266.7l-3.5-17.5l56.1,8.6c2.7,0.4,5-2,4.5-4.7l-7.9-39.5l-61.7-9.5L62,186.6l80.5,12.4l12.7,63.8
						c1.6,7.9-5.2,14.9-13.1,13.7L77.9,266.7z M103.8,396.8l-3.5-17.5l80.5,12.4l3.5,17.5L103.8,396.8z M206.3,599.4l-11.3-1.7
						c-12.2-1.9-22-11.2-24.4-23.4l-8.4-42.3l-8.1-1.3c-2.7-0.4-5,2-4.5,4.7l7.9,39.5l1.6,7.8l1.9,9.7l-18.8-2.9l-0.7-3.3
						l-12.1-60.5c-1.6-7.9,5.2-14.9,13.1-13.7l43.8,6.7c12.2,1.9,22,11.2,24.4,23.4l8.7,43.6C221,593.6,214.2,600.6,206.3,599.4z"/>
				</g>
			</g>
		</g>
	</g>
</g>
</svg>
