<?xml version="1.0" encoding="utf-8"?>
<!-- Generator: Adobe Illustrator 26.0.3, SVG Export Plug-In . SVG Version: 6.00 Build 0)  -->
<svg version="1.1" id="Layer_1" xmlns="http://www.w3.org/2000/svg" xmlns:xlink="http://www.w3.org/1999/xlink" x="0px" y="0px"
	 viewBox="0 0 3839 1619.9" style="enable-background:new 0 0 3839 1619.9;" xml:space="preserve">
<style type="text/css">
	.st0{fill:#FFFFFF;}
	.st1{fill:#334FA2;}
	.st2{fill:#F01B25;}
</style>
<g>
	<g>
		<g>
			<path class="st1" d="M1920.1,224.2l10.4-10.4h-37.1v-31.7h15.8v-87h-15.8V63.3h80.6V50.7h38.1v12.6h80.6V95H2077v87h15.7v31.7
				h-41.4v26.1c0,13.1-10.7,23.8-23.8,23.8h-36.8v-38.1h22.1c0.2,0,0.4-0.2,0.4-0.4v-11.3h-49.6l24.9,24.9l-26.9,26.9L1920.1,224.2z
				 M2038.9,155.1v-6.8h-26.8v6.8H2038.9z M1974,155.1v-6.8h-26.7v6.8H1974z"/>
			<path class="st0" d="M2007.1,55.7v12.6h80.6v21.8h-80.6v9.6h54.9l0,0h10v77.7h-25.6v9.6h41.4v21.8h-41.4v21.7v9.4
				c0,10.3-8.5,18.8-18.8,18.8h-31.8v-28.2h17.1c3,0,5.4-2.4,5.4-5.4v-16.3h-66.6l29.9,29.9l-19.9,19.9l-34.5-34.5l15.3-15.3h-44.2
				V187h119.9v-9.6h-75.9l0,0h-28.2V99.8h15.3l0,0h49.5v-9.6h-80.6V68.3h80.6V55.7H2007.1 M2007.1,125.9h36.7v-8.8h-36.7V125.9
				 M1942.3,125.9h36.7v-8.8h-36.7V125.9 M2007.1,160h36.7v-16.7h-36.7V160 M1942.3,160h36.7v-16.7h-36.7V160 M2017.1,45.7h-9.9
				H1979h-9.9v9.9v2.7h-70.7h-9.9v9.9V90v9.9h9.9h5.9V177h-5.9h-9.9v9.9v21.8v9.9h9.9h20.1l-5.4,5.4l7,7l34.5,34.5l7,7l7-7
				l17.1-17.1v10.1v9.9h9.9h31.8c15.9,0,28.8-12.9,28.8-28.8v-9.4v-11.7h31.4h9.9v-9.9v-21.8v-9.9h-9.9h-5.8V100h5.8h9.9v-9.9V68.3
				v-9.9h-9.9h-70.7v-2.7v-10H2017.1z M1975.6,218.8h32.6v1.8h-12.5h-9.9v8.3L1975.6,218.8L1975.6,218.8z"/>
		</g>
		<g>
			<path class="st1" d="M2123.6,268.5c-3.3-3.2-7.6-7.1-11.7-10.8c-4.2-3.8-8.6-7.8-12-11.1l-3.6-3.5l3.5-3.5
				c14.8-14.9,21.6-28,21.5-41.3V63.2h159.9l0,0h7.9v95.6v5v76.1c0,13.1-10.7,23.8-23.8,23.8h-36.8v-38.1h22.1
				c0.2,0,0.4-0.2,0.4-0.4v-11.3v-5v-9.5h-26.8v64.3h-38.1v-64.3h-26.7c-0.2,26-10.4,50.6-28.8,69.1l-3.5,3.5L2123.6,268.5z
				 M2251,161.3v-10.9h-26.8v10.9H2251z M2186.1,161.3v-10.9h-26.7v10.9H2186.1z M2251,112.3v-11h-26.8v11H2251z M2186.1,112.3v-11
				h-26.7v11H2186.1z"/>
			<path class="st0" d="M2276.3,68.2L2276.3,68.2h7.9v95.6l0,0v66.8v9.4c0,10.3-8.5,18.8-18.8,18.8h-31.8v-28.2h17.1
				c3,0,5.4-2.4,5.4-5.4v-16.3l0,0v-14.5h-36.8v64.3h-28.2v-64.3h-36.6v3.6l0,0c0.1,25.1-9.7,49.1-27.4,67
				c-6.7-6.6-17.1-15.4-23.8-22c12.4-12.5,23.1-27.3,23-44.9V68.2h9.3H2276.3 M2219.3,117.3h36.8V96.4h-36.8V117.3 M2154.5,117.3
				h36.6V96.4h-36.6V117.3 M2219.3,166.2h36.8v-20.8h-36.8V166.2 M2154.5,166.2h36.6v-20.8h-36.6V166.2 M2276.3,58.3h-140.7h-9.3
				h-9.9v9.9v129.9l0,0l0,0c0.1,11.9-6.3,23.9-20.1,37.8l-7,7.1l7.1,7c3.5,3.4,7.9,7.4,12.2,11.3c4.1,3.7,8.4,7.6,11.6,10.7l7.1,7
				l7-7.1c9.7-9.8,17.2-21.2,22.5-34c4.4-10.8,7-22.1,7.6-33.7h16.9v54.4v9.9h9.9h28.2h9.9h4.4h31.8c15.9,0,28.8-12.9,28.8-28.8
				v-9.4v-66.8v-9.9l0,0V68.2v-9.9h-7.9L2276.3,58.3L2276.3,58.3z M2229.2,106.3h16.9v1h-16.9V106.3L2229.2,106.3z M2164.4,106.3
				h16.7v1h-16.7V106.3L2164.4,106.3z M2229.2,155.4h16.9v0.9h-16.9V155.4L2229.2,155.4z M2164.4,155.4h16.7v0.9h-16.7V155.4
				L2164.4,155.4z M2229.2,204.3h16.9v4.6v9.9l0,0v1.8h-12.5h-4.4V204.3L2229.2,204.3z"/>
		</g>
		<g>
			<rect x="2492.2" y="64.2" class="st1" width="25" height="55.2"/>
			<path class="st0" d="M2512.2,69.2v45.3h-15V69.2H2512.2 M2522.2,59.3h-9.9h-15h-9.9v9.9v45.3v9.9h9.9h15h9.9v-9.9V69.2V59.3
				L2522.2,59.3z"/>
		</g>
		<g>
			<rect x="2526.2" y="64.2" class="st1" width="25" height="55.2"/>
			<path class="st0" d="M2546.2,69.2v45.3h-15V69.2H2546.2 M2556.2,59.3h-9.9h-15h-9.9v9.9v45.3v9.9h9.9h15h9.9v-9.9V69.2V59.3
				L2556.2,59.3z"/>
		</g>
		<g>
			<path class="st1" d="M3116,263.7V69.1h42.6v62.2c33.7,1.1,67.2,9.7,97.1,25.1l4.4,2.3l-2.3,4.4c-2.4,4.7-5.5,11.3-8.4,17.6
				c-3,6.4-6.1,13.1-8.6,18l-2.3,4.4l-4.4-2.3c-20.4-10.5-47.1-22.7-75.5-25.9v88.7H3116V263.7z"/>
			<path class="st0" d="M3153.6,74.1v62.1c34.6,0.3,68.7,8.7,99.8,24.6c-5,9.6-12,26-17,35.6c-26.3-13.6-54-24.9-82.8-26.9v89.2
				H3121V74.1H3153.6 M3163.5,64.1h-9.9H3121h-9.9V74v184.6v9.9h9.9h32.6h9.9v-9.9v-78.1c25.5,3.9,49.6,15,68.3,24.6l8.8,4.6
				l4.6-8.8c2.6-5,5.7-11.7,8.7-18.2c2.9-6.3,5.9-12.8,8.3-17.4l4.6-8.8l-8.9-4.6c-29.1-15-61.6-23.7-94.4-25.4V74.1L3163.5,64.1
				L3163.5,64.1z"/>
		</g>
		<g>
			<rect x="3296.4" y="65.9" class="st1" width="131.3" height="42.6"/>
			<path class="st0" d="M3422.7,70.9v32.6h-121.4V70.9H3422.7 M3432.7,60.9h-9.9h-121.4h-9.9v9.9v32.6v9.9h9.9h121.4h9.9v-9.9V70.9
				V60.9L3432.7,60.9z"/>
		</g>
		<g>
			<path class="st1" d="M3531.7,263.7v-91.1c-21.6,9.1-44.4,13.7-67.9,13.7h-5.5v-42.6h5.5c49.9,0,95.1-27.5,118-71.8l1.4-2.7h46.2
				l-2.7,6.8c-11.1,27.8-29.2,52.3-52.4,71.1v116.6H3531.7z"/>
			<path class="st0" d="M3622.1,74.1c-11.4,28.4-29.8,52.5-52.8,70.6v114h-32.6v-93.8c-22.3,10.6-47.1,16.4-72.9,16.4
				c-0.2,0-0.3,0-0.5,0v-32.6c0.2,0,0.4,0,0.5,0c51.9,0,98.9-29.1,122.4-74.5h35.9 M3636.8,64.1h-14.7h-35.8h-6.1l-2.8,5.4
				c-10.7,20.8-27,38.2-46.9,50.4c-20.1,12.3-43.1,18.8-66.7,18.8h-0.5h-10v10v32.6v9.9h9.9h0.5c21.7,0,42.8-3.8,62.9-11.3v78.8v9.9
				h9.9h32.6h9.9v-9.9V149.4c23-19.1,40.9-43.8,52.1-71.6L3636.8,64.1L3636.8,64.1z"/>
		</g>
		<g>
			<rect x="2379.7" y="67.7" class="st1" width="102.5" height="42.6"/>
			<path class="st0" d="M2477.1,72.7v32.6h-92.5V72.7H2477.1 M2487.1,62.7h-9.9h-92.5h-9.9v9.9v32.6v9.9h9.9h92.5h9.9v-9.9V72.7
				V62.7L2487.1,62.7z"/>
		</g>
		<g>
			<path class="st1" d="M2595.3,263.7v-70c-15.6,6.7-31.4,10.6-46.3,11.5l-4.4,0.2l-7.2-42.6h5.9c27.4,0,78-24.3,91.7-57.8l1.3-3.1
				h42.5l-1.7,6.3c-5.9,21.6-19.4,42-39.1,59v96.5H2595.3z"/>
			<path class="st0" d="M2672.2,106.9c-6.2,22.7-20.8,42.5-39.3,58v93.8h-32.6V186c-17.1,8.3-35.1,13.3-51.5,14.2l-5.5-32.4
				c30.7,0,82.2-26.4,96.3-60.9C2650.4,106.9,2661.3,106.9,2672.2,106.9 M2685.2,97h-13h-32.6h-6.7l-2.5,6.2
				c-5.6,13.6-19.4,27.7-37.8,38.6c-16.8,9.9-35.7,16.1-49.3,16.1h-11.8l2,11.6l5.5,32.4l1.5,8.8l8.9-0.5c13.2-0.7,27.2-3.8,41-9.1
				v57.6v9.9h9.9h32.6h9.9v-9.9v-89.2c19.5-17.4,33-38,38.9-60L2685.2,97L2685.2,97z"/>
		</g>
		<g>
			<path class="st1" d="M2834.8,269.1c-1.5-2.2-3-4.4-4.5-6.6c-13.1-19.3-26.7-39.3-41.9-52.5c-24.6,30.9-55.4,50.4-85.2,53.6
				l-4.3,0.5l-1.1-4.2c-0.6-2.3-7.5-29.3-8.2-32l-1.3-4.6l4.6-1.4c35.5-11,57.3-34.5,69.4-52.3c19.4-28.6,20.8-30.7,21-50H2697V76.9
				h128.9v37.6c0,18.6-5.1,39.1-14.9,59.4c20.2,14.8,38.7,37.8,55.7,60.5l2.3,3.1l-30.5,37.1L2834.8,269.1z"/>
			<path class="st0" d="M2820.9,81.8v32.6c0,19.6-6,40.9-16.2,61c21,14.2,40.7,38.6,58,61.8l-23.8,28.9
				c-16.3-23.8-32.1-48.5-51.3-63.4c-22.3,29.6-53.2,52.3-85,55.8c-0.5-2-7.5-29.2-8.3-32.1c67-20.8,93.8-86.7,93.9-112H2702V81.8
				H2820.9 M2830.9,71.9h-9.9h-119h-9.9v9.9v32.6v9.9h9.9h75.1c-2.4,11.4-8.6,27-18.9,42.2c-11.6,17.2-32.7,39.8-66.8,50.4l-9.2,2.9
				l2.6,9.3c0.8,2.7,7.6,29.7,8.2,31.9l2.1,8.4l8.6-0.9c29.8-3.2,60.4-21.8,85.2-51.3c13.3,12.7,25.4,30.6,37.3,48.1
				c1.5,2.2,3,4.4,4.5,6.6l7.5,10.9l8.4-10.2l23.8-28.9l5-6l-4.7-6.2c-16.3-21.8-34-43.8-53.4-59c8.9-19.8,13.6-39.6,13.6-57.9V81.8
				L2830.9,71.9L2830.9,71.9z"/>
		</g>
		<g>
			<rect x="3197.3" y="64.2" class="st1" width="25" height="55.2"/>
			<path class="st0" d="M3217.3,69.2v45.3h-15V69.2H3217.3 M3227.3,59.3h-9.9h-15h-9.9v9.9v45.3v9.9h9.9h15h9.9v-9.9V69.2V59.3
				L3227.3,59.3z"/>
		</g>
		<g>
			<rect x="3231.4" y="64.2" class="st1" width="25" height="55.2"/>
			<path class="st0" d="M3251.4,69.2v45.3h-15V69.2H3251.4 M3261.3,59.3h-9.9h-15h-9.9v9.9v45.3v9.9h9.9h15h9.9v-9.9V69.2V59.3
				L3261.3,59.3z"/>
		</g>
		<g>
			<rect x="3809.1" y="64.2" class="st1" width="25" height="55.1"/>
			<path class="st0" d="M3829.1,69.2v45.2h-15V69.2H3829.1 M3839,59.3h-9.9h-15h-9.9v9.9v45.2v9.9h9.9h15h9.9v-9.9V69.2V59.3
				L3839,59.3z"/>
		</g>
		<g>
			<path class="st1" d="M3297.2,263.7l-6.6-42.6h43.5c42.9,0,63.5-28.9,65.7-59h-126.4v-42.6h169.1v32.3v5
				c0,28.3-9.6,54.5-27.1,73.8c-19.6,21.7-47.8,33.1-81.4,33.1H3297.2z"/>
			<path class="st0" d="M3437.6,124.5v32.3l0,0c0,51.9-34.2,102-103.5,102h-32.6l-5.1-32.6h37.7c47.3,0,70.7-33.5,70.8-69h-126.6
				v-32.6L3437.6,124.5 M3447.5,114.5h-9.9h-159.2h-9.9v9.9V157v9.9h9.9h115.9c-1.8,12-6.7,22.8-14.4,31.1
				c-10.8,11.8-26.6,18-45.8,18h-37.7h-11.6l1.8,11.5l5.1,32.6l1.3,8.4h8.5h32.6c35,0,64.5-12,85.1-34.8
				c18.3-20.2,28.3-47.6,28.3-77.1v-9.9l0,0v-22.3L3447.5,114.5L3447.5,114.5z"/>
		</g>
		<g>
			<path class="st1" d="M2889.1,259.5c-2.1-12.4-3.8-23-5.1-32.4l-0.7-5.1l5.2-0.5c28.2-2.6,54.5-13.3,74.1-30
				c14.1-12,30.8-32.5,32.2-62.8v-9.3h-53.2c-9.6,21.3-25.5,49.8-48.2,70.9l-5.1,4.8l-17.6-40.5l2.4-2.4
				c17.2-17.3,31.6-46.6,42.8-87l1.3-4.7l41.8,10.4c0,0-1.6,5.6-1.7,5.9h80v24.4v5v13.2h0.1v5c0,37.1-14.1,69.7-40.7,94.2
				c-24.9,23-60.2,38.5-102,44.9l-4.8,0.7L2889.1,259.5z"/>
			<path class="st0" d="M2920.7,66.5l32.1,8c-0.7,2.4-1.4,4.9-2.2,7.3h81.8v24.4l0,0v18.2h0.1c0,74.8-58.1,122-138.5,134.2
				c-1.6-9.4-3.5-20.8-5.1-32.2c57.1-5.3,110.9-43.9,110.9-102h-0.1v-10h-61.4c-12,27.2-28.3,53.6-48.3,72.2l-13.4-30.9
				C2898.7,133.4,2912.3,96.6,2920.7,66.5 M2913.7,54.5l-2.6,9.3c-11,39.5-25,68.1-41.6,84.8l-4.7,4.8l2.7,6.2l13.4,30.9l5.6,12.9
				l10.3-9.5c22.3-20.6,38.1-48.2,48-69.5h45v0.1v4.1c-1.4,28.5-17.1,47.8-30.5,59.1c-18.6,15.9-44.6,26.4-71.3,28.8l-10.3,1
				l1.4,10.3c1.3,9.5,3,20.2,5.1,32.6l1.7,9.6l9.6-1.5c42.8-6.5,79-22.5,104.6-46.2c27.7-25.5,42.3-59.4,42.3-97.9v-9.9h-0.1v-8.3
				v-9.9l0,0V81.8v-9.9h-9.9h-68.5l1.3-4.5l-10-2.5l-32.1-8L2913.7,54.5L2913.7,54.5z"/>
		</g>
		<g>
			<path class="st1" d="M3655,263.7l-0.7-4.2c-0.5-3.2-5.9-37.8-5.9-37.8h10.9c29,0,52.9-8.6,68.9-24.8
				c16.1-16.2,24.6-40.2,24.6-69.3v-8.2H3643V76.9h125.6V106h1.8V64.2h25v63.5c0,42.4-11.2,75.7-33.1,98.9
				c-23.3,24.6-57.9,37.1-103.1,37.1H3655z"/>
			<path class="st0" d="M3790.5,69.2v45.2l0,0v13.2l0,0l0,0v0.1l0,0c0,80-40.9,131-131.2,131c-0.5-3.2-5-32-5-32c5.1,0,5.1,0,5.1,0
				c62,0,98.5-37,98.5-99.1v-13.1H3648V81.8h115.7v29.1h11.8V69.2H3790.5 M3800.4,59.3h-9.9h-15h-9.9v9.9v2.7h-1.8h-115.7h-9.9v9.9
				v32.6v9.9h9.9h99.9v3.2c0,56.6-32.3,89.1-88.5,89.1h-5.1h-11.6l1.8,11.5c0,0,4.5,28.9,5,32l1.3,8.4h8.5
				c46.6,0,82.5-13,106.7-38.6c22.9-24.2,34.5-58.6,34.5-102.3l0,0l0,0l0,0v-0.1v-13.2V69.2L3800.4,59.3L3800.4,59.3z"/>
		</g>
		<g>
			<polygon class="st1" points="107.1,273.3 75.3,181.9 75.3,273.3 5,273.3 5,65 102.7,65 134.5,155.9 134.5,65 204.8,65 
				204.8,273.3 			"/>
			<path class="st0" d="M199.9,70v198.4h-89.2L70.8,153.9h-0.5v114.5H9.9V70h89.2L139,183.8h0.5V70H199.9 M209.8,60.1h-9.9h-60.4
				h-9.9V70v56.6l-21-59.9l-2.3-6.7h-7.1H9.9H0v10v198.4v9.9h9.9h60.4h9.9v-9.9v-57l20.9,60.3l2.3,6.7h7.1h89.2h9.9v-9.9V70v-9.9
				H209.8z"/>
		</g>
		<g>
			<polygon class="st1" points="443.7,273.3 412,181.9 412,273.3 341.6,273.3 341.6,65 439.4,65 471.2,156 471.2,65 541.5,65 
				541.5,273.3 			"/>
			<path class="st0" d="M536.5,70v198.4h-89.2l-39.8-114.5H407v114.5h-60.4V70h89.2l39.9,113.8h0.5V70H536.5 M546.5,60.1h-9.9h-60.3
				h-9.9V70v56.8l-21.1-60.1L443,60h-7.1h-89.2h-9.9v10v198.4v9.9h9.9H407h9.9v-9.9v-57l20.9,60.3l2.3,6.7h7.1h89.2h9.9v-9.9V70
				v-9.9H546.5z"/>
		</g>
		<g>
			<polygon class="st1" points="1023.5,273.3 991.7,181.9 991.7,273.3 921.4,273.3 921.4,65 1019.1,65 1051,156.2 1051,65 
				1121.3,65 1121.3,273.3 			"/>
			<path class="st0" d="M1116.3,70v198.4H1027l-39.8-114.5h-0.5v114.5h-60.4V70h89.2l39.8,113.8h0.6V70H1116.3 M1126.2,60.1h-9.9
				H1056h-9.9V70v56.9L1025,66.7l-2.3-6.7h-7.1h-89.2h-9.9v10v198.4v9.9h9.9h60.4h9.9v-9.9v-57l20.9,60.3l2.3,6.7h7.1h89.2h9.9v-9.9
				V70L1126.2,60.1L1126.2,60.1z"/>
		</g>
		<g>
			<rect x="231.3" y="65" class="st1" width="84.4" height="208.2"/>
			<path class="st0" d="M310.7,70v198.3h-74.4V70H310.7 M320.6,60.1h-9.9h-74.4h-9.9V70v198.3v9.9h9.9h74.4h9.9v-9.9V70V60.1
				L320.6,60.1z"/>
		</g>
		<g>
			<polygon class="st1" points="600.5,273.3 600.5,128.9 553.1,128.9 553.1,65 732.3,65 732.3,128.9 684.8,128.9 684.8,273.3 			"/>
			<path class="st0" d="M727.3,70v53.9h-47.5v144.4h-74.4V123.9H558V70H727.3 M737.3,60.1h-9.9H558.1h-9.9V70v53.9v9.9h9.9h37.4
				v134.5v9.9h9.9h74.4h9.9v-9.9V133.9h37.5h9.9V124V70v-9.9H737.3z"/>
		</g>
		<g>
			<path class="st1" d="M1143.3,273.2V65h93.1c36.9,0,64.3,10.2,81.6,30.4c15.2,17.8,22.6,42.6,22.6,75.9c0,30.6-9.4,56.4-27.1,74.4
				s-42.8,27.5-72.6,27.5H1143.3z M1228.4,218.4c13.4,0,18.1-5.2,20.4-9.2c4.4-7.3,4.8-23,4.8-39.9c0-16.8-0.4-32.5-4.8-40
				c-3.7-6.4-10-9.2-20.4-9.2h-2.3v98.2h2.3V218.4z"/>
			<path class="st0" d="M1236.5,70c75.2,0,99.2,42.6,99.2,101.3c0,59.9-36.9,97-94.7,97h-92.6V70H1236.5 M1221.1,223.4h7.3
				c11.9,0,20-3.7,24.7-11.6c5-8.3,5.5-23.3,5.5-42.4c0-19.2-0.6-34.2-5.5-42.5c-4.7-8-12.6-11.6-24.7-11.6h-7.3V223.4 M1236.5,60.1
				h-88.1h-9.9V70v198.3v9.9h9.9h92.6c63.6,0,104.7-42,104.7-106.9c0-34.5-7.8-60.4-23.8-79.1C1303.6,70.9,1274.9,60.1,1236.5,60.1
				L1236.5,60.1z M1231.1,213.4v-88.1c8.6,0.5,11.6,3.6,13.4,6.7c3.8,6.4,4.1,22.7,4.1,37.4c0,12.2,0,30.5-4,37.2l0,0l0,0
				C1242.8,209.6,1239.8,212.8,1231.1,213.4L1231.1,213.4z"/>
		</g>
		<g>
			<path class="st1" d="M1452.3,278.6c-63.9,0-102.1-40.9-102.1-109.3c0-68.5,38.2-109.4,102.1-109.4s102.1,40.9,102.1,109.4
				C1554.4,237.7,1516.2,278.6,1452.3,278.6z M1452.3,120c-6.3,0-15,0-15,49.2c-0.1,25.9,2.5,41.6,7.7,46.8c1.7,1.7,3.8,2.4,7.4,2.4
				c4.6,0,7.4-0.9,9.8-6c3.5-7.3,5.2-21.4,5.2-43.1C1467.4,120,1458.3,120,1452.3,120z"/>
			<path class="st0" d="M1452.3,64.8c64.8,0,97.1,42.6,97.1,104.5s-32.2,104.4-97.1,104.4c-64.8,0-97.1-42.6-97.1-104.4
				C1355.2,107.4,1387.5,64.8,1452.3,64.8 M1452.3,223.4c11.4,0,20-5.6,20-54.1c0-47.5-8.1-54.2-20-54.2s-20,6.7-20,54.2
				C1432.2,217.7,1440.9,223.4,1452.3,223.4 M1452.3,54.9c-17.1,0-32.7,2.8-46.3,8.4c-13.4,5.5-24.8,13.5-34,24
				c-17.5,19.9-26.7,48.2-26.7,82c0,33.7,9.2,62.1,26.7,81.9c9.2,10.5,20.7,18.6,34,24c13.6,5.5,29.1,8.4,46.3,8.4
				c17.1,0,32.7-2.8,46.3-8.3c13.4-5.4,24.8-13.5,34-24c17.5-19.8,26.7-48.2,26.7-82s-9.2-62.1-26.7-82c-9.2-10.5-20.7-18.6-34-24
				C1485,57.7,1469.4,54.9,1452.3,54.9L1452.3,54.9z M1452.3,213.5c-2.9,0-3.5-0.5-3.8-0.9c-1.9-1.9-6.3-9.9-6.2-43.3
				c0-20.4,1.6-34.2,4.6-40.8c1.5-3.3,2.5-3.5,5.4-3.5s3.9,0.2,5.4,3.5c3.1,6.7,4.6,20.4,4.6,40.7c0,20.6-1.6,34.4-4.7,41
				C1456.2,213.2,1455.5,213.5,1452.3,213.5L1452.3,213.5z"/>
		</g>
		<g>
			<g>
				<path class="st2" d="M1641.3,178.5c-22,0-40-8-52.1-23.2c-10.5-13.1-16.2-31.4-16.2-51.6c0-30.1,10.3-56.4,29.1-74
					c16.9-15.7,39.2-24,66.2-24.6c2-0.1,3.9-0.2,5.7-0.2c3.9,0,6.8,0.3,9.1,0.5l4.5,0.4v4.6l-0.2,38.7l-5.3-0.4
					c-1.4-0.1-3-0.2-4.6-0.2c-2.1,0-4.4,0.1-7.9,0.3c-16.7,0.8-28.7,5-36.1,12.6c5.5-1.8,11.7-2.7,18.7-2.7
					c14.1,0,27.1,5.2,36.7,14.7c10.4,10.4,16,25,16,42.3c0,17.1-6.5,33-18.2,44.6C1674.9,172.1,1658.8,178.5,1641.3,178.5z
					 M1624.6,115.6c1.4,19.6,12.5,21.2,15.9,21.2h0.1c5.5,0,11.5-5.9,11.5-18.7c0-4.3-1.1-18.5-13.8-18.5c-6.5,0-11,4.2-12.7,8.5
					l-0.1,0.2l-0.1,0.2C1624.7,109.8,1624.6,112.9,1624.6,115.6z"/>
			</g>
			<g>
				<path class="st0" d="M1674,9.9c3.7,0,6.5,0.3,8.7,0.5l-0.2,33.3c-1.6-0.1-3.3-0.2-5-0.2c-2.4,0-5,0.1-8.1,0.3
					c-31.4,1.5-44.1,14.8-48.3,29.9h0.8c7.8-6.9,17.5-10,30.4-10c24.9,0,47.7,18.1,47.7,52c0,32.5-25.1,57.8-58.5,57.8
					c-44.2,0-63.4-33.7-63.4-69.8c0-29.4,10.4-54.3,27.6-70.3c16.3-15.1,37.3-22.7,63-23.3C1670.5,10,1672.3,9.9,1674,9.9
					 M1640.5,141.7c0.1,0,0.1,0,0.2,0c10.2,0,16.4-10.4,16.4-23.7c-0.1-11.2-5.2-23.5-18.8-23.5c-8.3,0-14.8,5.2-17.3,11.6
					c-1,2-1.3,4.8-1.3,9.6C1620.6,128.5,1626.6,141.7,1640.5,141.7 M1674,0c-1.9,0-3.8,0.1-5.9,0.2c-28.2,0.7-51.5,9.4-69.3,25.9
					c-19.8,18.6-30.7,46.1-30.7,77.6c0,21.3,6.1,40.7,17.3,54.7c13.1,16.4,32.5,25.1,56,25.1c18.8,0,36.1-7,48.8-19.6
					c12.7-12.6,19.6-29.7,19.6-48.2c0-18.6-6-34.4-17.4-45.8c-8.3-8.3-19-13.6-30.8-15.5c2.5-0.3,5.2-0.6,8.2-0.7l0,0l0,0
					c3.3-0.2,5.6-0.3,7.6-0.3c1.5,0,2.9,0,4.2,0.2l10.6,0.8l0.1-10.7l0.2-33.3l0.1-9.1l-9.1-0.9h-0.1C1681.2,0.3,1678.1,0,1674,0
					L1674,0z M1629.9,110.5l0.1-0.3l0.2-0.4c1-2.6,3.9-5.3,8-5.3c2.9,0,4.7,0.9,6.2,3.1c1.6,2.5,2.6,6.3,2.6,10.5
					c0,6.6-2.3,13.7-6.5,13.7l0,0l0,0h-0.1c-3.1,0-5.2-1.2-7.1-3.9c-2-3-3.4-7.5-3.8-12.5C1629.6,112,1629.8,110.9,1629.9,110.5
					L1629.9,110.5z"/>
			</g>
		</g>
		<g>
			<g>
				<path class="st2" d="M1772.7,176v-35.6h-66.2v-34.8l55.2-98.3h60.7v90.5h16.8v42.6h-16.8V176H1772.7z M1772.7,97.8V75.6
					c0-2.8,0-5.6,0.1-8.5c-1.7,3.6-3.4,7.3-5.3,11l-9.7,19.7H1772.7z"/>
			</g>
			<g>
				<path class="st0" d="M1817.4,12.2v90.5h16.8v32.6h-16.8V171h-39.8v-35.6h-66.2v-28.6l53.1-94.6L1817.4,12.2 M1777.6,102.8V75.6
					c0-10,0.6-20.5,1.1-31.6h-0.9c-5,10.7-9.3,20.9-14.8,31.9l-13,26.4l-0.2,0.5H1777.6 M1827.4,2.3h-9.9h-52.8h-5.8l-2.9,5.1
					l-53.1,94.6l-1.3,2.3v2.6v28.6v9.9h9.9h56.2V171v9.9h9.9h39.8h9.9V171v-25.7h6.9h9.9v-9.9v-32.6v-9.9h-9.9h-6.9V12.2V2.3H1827.4
					z M1765.7,92.8l2-4v4H1765.7L1765.7,92.8z"/>
			</g>
		</g>
		<g>
			<polygon class="st1" points="744.3,273.3 744.3,65 901.5,65 901.5,127.4 827.5,127.4 827.5,138.2 895.6,138.2 895.6,199.1 
				827.5,199.1 827.5,211.4 903.8,211.4 903.8,273.3 			"/>
			<path class="st0" d="M896.5,70v52.4h-74v20.8h68.1v50.9h-68.1v22.2h76.3v52H749.3V70H896.5 M906.5,60.1h-9.9H749.3h-9.9V70v198.4
				v9.9h9.9h149.5h9.9v-9.9v-52v-9.9h-9.9h-66.4v-2.3h58.2h9.9v-9.9v-50.9v-9.9h-9.9h-58.2v-0.9h64.1h9.9v-9.9V70v-9.9H906.5z"/>
		</g>
		<g>
			<path class="st1" d="M489.4,1615.1c-80.9,0-154.2-15-217.8-44.6c-59.1-27.5-109.9-67.5-150.9-119c-38.3-48-67.7-105.4-87.4-170.5
				c-18.7-61.8-28.2-128.8-28.2-199.3c0-109.7,18.8-212.5,56-305.7c36.1-90.7,87.9-168,153.7-229.8
				c61.7-56.9,133.4-100.7,213.2-130.1c79-29.1,168.6-45.1,266.4-47.5c14.4-0.7,28.2-1.1,41-1.1c29.6,0,50.8,2,66.3,3.4l4.5,0.4
				v262.1l-5.3-0.4c-12.2-0.9-24.8-1.3-38.4-1.3c-15.9,0-33.4,0.5-60.6,1.8c-108.9,5.2-195.4,30-257,73.7
				c-48.6,34.5-82.6,81.4-101.2,139.5c58.7-49.2,131.4-72.1,228-72.1c73.8,0,143.7,20.5,202.2,59.4c59,39.1,104.4,96,131.7,164.7
				l344.1-613.3H1657v684h171V385.8h461c71.9,0,139.1,9.8,199.8,29.2c58.2,18.6,110.9,46,156.7,81.6c44.2,34.4,82,76.4,112.4,125
				c23.8,38,43,79.9,57.4,125V385.8h461.1c88.9,0,170.1,14.9,241.6,44.4c68,28,126.7,69,174.7,121.8c46.2,50.9,81.8,112,105.8,181.7
				c23.6,68.4,35.5,143.7,35.5,223.8v65.7c0,80.1-11.9,155.4-35.5,223.8c-24,69.7-59.6,130.9-105.8,181.7
				c-48,52.8-106.8,93.8-174.7,121.9c-71.4,29.5-152.7,44.4-241.6,44.4h-461v-360.9c-14.4,45.1-33.6,87-57.4,125
				c-30.4,48.6-68.2,90.7-112.4,125c-45.7,35.6-98.5,63.1-156.7,81.7c-60.7,19.4-128,29.2-199.8,29.2h-461v-269.1h-171v269
				l-310.6,0.1v-269H910.8c-29.9,84.4-84,156.2-156.8,207.5c-75.5,53.4-167,81.6-264.5,81.6L489.4,1615.1L489.4,1615.1z
				 M330.5,1171.8c3.5,51.4,18.1,98.1,41,131.6c27.4,39.9,64.9,60.2,111.7,60.2h1.6c35.3,0,65.2-17.1,86.7-49.6
				c20.6-31.3,32-75.5,32-124.4c-0.3-45.7-11.6-87.5-31.9-117.7c-24.4-36.2-60-54.5-105.9-54.5c-28.7,0-56,8.6-78.9,24.9
				c-21.3,15.1-37.9,36.3-46.7,59.8l-0.1,0.2l-0.1,0.2C333.2,1116.4,330.5,1136.5,330.5,1171.8z M3276.4,1337.1
				c27.6,0,53.7-7,77.7-20.9c24.8-14.4,46.7-35.8,65-63.7c40.4-61.4,61.7-152,61.7-262.1s-21.3-200.7-61.7-262.1
				c-18.3-27.9-40.2-49.3-65-63.7c-23.9-13.9-50.1-20.9-77.7-20.9h-137.9v693.4L3276.4,1337.1L3276.4,1337.1z M2289,1337.1
				c27.6,0,53.7-7,77.7-20.9c24.8-14.4,46.7-35.8,65-63.7c40.4-61.4,61.7-152,61.7-262.1s-21.3-200.7-61.7-262.1
				c-18.3-27.9-40.2-49.3-65-63.7c-23.9-13.9-50.1-20.9-77.7-20.9h-137.9v693.4L2289,1337.1L2289,1337.1z M1346.4,1069.8V868.5
				c0-67.9,3.4-137.9,7-212c0.3-5.6,0.5-11.2,0.8-16.9c-11.5,25-22.7,49.8-33.6,74c-23.2,51.5-47.1,104.7-74.8,159.9l-96.8,196.3
				H1346.4z"/>
			<path class="st0" d="M735.3,372.6c28.4,0,48.6,1.8,65.8,3.4v252.2c-12.8-0.9-25.4-1.3-38.8-1.3c-18,0-37.4,0.7-60.8,1.8
				c-237.3,11.3-333,112.2-365.6,226.5h5.7c58.9-51.6,131.8-75.4,230-75.4c143.4,0,277.5,79.2,333.1,230.9l347.8-620H1652v684h181
				v-684h21.3h62h35.7h194.2H2289c292.9,0,472.6,162.3,531.3,391.1V390.7h21.4h62h35.7h194.2h142.9c363.4,0,552.6,250,552.5,566.7
				v65.7c0,316.8-189.1,566.8-552.6,566.8h-142.9h-194.2h-35.7h-62h-21.3v-391.2c-58.7,228.8-238.4,391.2-531.3,391.2h-142.9h-194.2
				h-35.7h-62H1833v-269.1h-181v269l-300.6,0.1v-269H907.3C848.5,1491.3,689.1,1610,489.6,1610c-0.1,0-0.1,0-0.2,0
				c-333.9,0-479.3-255-479.3-528.3c0-222.3,78.9-410.6,208.1-531.8C341.5,436,500,378.5,694.5,373.7
				C709.8,372.9,723.3,372.6,735.3,372.6 M1141.6,1074.8h209.8V868.5c0-76,4.3-155.3,8.3-238.8h-6.4c-37.6,81-69.9,158-111.9,241.4
				l-98.5,199.8L1141.6,1074.8 M3133.6,1342.1h142.9c112.5,0,209.4-114.3,209.4-351.7s-96.9-351.7-209.4-351.7h-142.9V1342.1
				 M2146.1,1342.1H2289c112.5,0,209.4-114.3,209.4-351.7s-96.9-351.7-209.4-351.7h-142.9V1342.1 M483.2,1368.5h1.6
				c77.3,0,123.7-78.5,123.7-179c-0.5-85-39.3-177.2-142.8-177.2c-62.7,0-112,39.6-130.3,87.9c-7.1,14.8-9.8,36-9.8,71.6
				C332.1,1267.8,378.1,1368.5,483.2,1368.5 M735.3,362.7c-12.9,0-26.8,0.4-41.2,1.1c-49,1.2-96.2,5.8-140.5,13.7
				c-44.6,7.9-87.5,19.4-127.4,34.1c-40.2,14.8-78.6,33.3-114.1,54.9c-35.7,21.8-69.6,47.4-100.7,76.1l0,0l0,0
				c-32.8,30.8-62.6,66-88.5,104.7c-26,38.9-48.4,81.6-66.5,126.9C38.1,820.1,24,869.2,14.6,920C5,972,0.1,1026.4,0.1,1081.7
				c0,70.9,9.5,138.5,28.4,200.7c19.9,65.7,49.6,123.6,88.3,172.1c41.5,52.1,92.9,92.6,152.7,120.4c64.3,29.9,138.3,45,219.9,45h0.2
				c98.5,0,191-28.5,267.3-82.5c36.9-26,69.3-57.5,96.3-93.5c25.8-34.4,46.3-72.4,61.1-113.1h427.1V1590v10h10l300.6-0.1h9.9v-9.9
				v-259.1H1823V1590v9.9h9.9h21.3h62h35.7h194.2H2289c72.4,0,140.1-9.9,201.4-29.4c58.8-18.7,112-46.5,158.2-82.5
				c44.6-34.7,82.8-77.2,113.6-126.3c19-30.3,35.1-63.2,48.2-98.1V1590v9.9h9.9h21.3h62h35.7h194.2h142.9
				c89.5,0,171.5-15.1,243.5-44.8c68.6-28.3,128-69.7,176.5-123.1c46.6-51.4,82.6-113.1,106.8-183.5
				c23.7-68.9,35.8-144.8,35.8-225.4v-65.7c0-80.6-12-156.5-35.7-225.4c-24.2-70.3-60.1-132-106.8-183.4
				c-48.5-53.4-107.9-94.8-176.5-123.1c-72-29.7-153.9-44.8-243.4-44.8h-142.9h-194.2h-35.7h-62h-21.4h-9.9v9.9V717
				c-13.1-34.9-29.2-67.8-48.2-98.1c-30.7-49.1-68.9-91.6-113.6-126.3c-46.2-36-99.5-63.7-158.2-82.5
				c-61.2-19.5-129-29.4-201.4-29.4h-142.9H1952h-35.7h-62H1833h-9.9v9.9v674H1662v-674v-9.9h-9.9h-399.5h-5.8l-2.9,5.1L906.2,987.6
				c-13-30.3-29.4-58.2-49.1-83.1c-22.8-29-50-54.1-80.6-74.4c-59.4-39.4-130.3-60.2-205-60.2c-90.5,0-160.4,20-217.6,62.5
				c7.4-19.3,16.7-37.3,27.7-53.6c17.4-25.9,39.6-48.5,66-67.3c29.1-20.6,64.1-37.2,104-49.1c43.5-13,94.1-21,150.3-23.7
				c27.1-1.3,44.6-1.8,60.4-1.8c13.5,0,26,0.4,38.1,1.3l10.6,0.7v-10.7V376v-9.1l-9-0.8C786.5,364.6,765.1,362.7,735.3,362.7
				L735.3,362.7z M3143.5,648.7h132.9c26.7,0,52,6.8,75.2,20.2c24.2,14,45.5,34.9,63.4,62.1c19.1,29.1,34,65,44.3,106.7
				c11,44.8,16.6,96.2,16.6,152.7s-5.6,107.9-16.6,152.7c-10.3,41.7-25.1,77.6-44.3,106.7c-17.9,27.2-39.2,48.1-63.4,62.1
				c-23.2,13.4-48.5,20.2-75.2,20.2h-132.9V648.7L3143.5,648.7z M2156.1,648.7H2289c26.7,0,52,6.8,75.2,20.2
				c24.2,14,45.5,34.9,63.4,62.1c19.1,29.1,34,65,44.3,106.7c11,44.8,16.6,96.2,16.6,152.7s-5.6,107.9-16.6,152.7
				c-10.3,41.7-25.1,77.6-44.3,106.7c-17.9,27.2-39.2,48.1-63.4,62.1c-23.2,13.4-48.5,20.2-75.2,20.2h-132.9V648.7L2156.1,648.7z
				 M1250.2,875.7c27.8-55.2,51.7-108.5,74.9-160c7.4-16.6,15.1-33.5,22.8-50.5c-3.4,70.9-6.5,138.1-6.5,203.4v196.3H1157
				L1250.2,875.7L1250.2,875.7z M335.5,1171.6c0-33.9,2.7-54,8.9-67l0.2-0.4l0.1-0.4c8.5-22.6,24.5-43,45-57.5
				c22.1-15.7,48.4-24,76-24c44.1,0,78.3,17.6,101.7,52.3c19.8,29.3,30.8,70.2,31.1,114.9c0,48-11.1,91.2-31.2,121.6
				c-20.5,31-49,47.3-82.5,47.3h-1.6c-45,0-81.2-19.5-107.6-58C353.2,1267.9,339,1222.1,335.5,1171.6L335.5,1171.6z"/>
		</g>
		<g>
			<path class="st1" d="M2372,228.5l4.7-1.5c25.3-8,40.2-14.9,47.1-21.7c5.4-5.4,5.4-10.5,5.2-18.3c0-1.2,0-2.5,0-3.8v-15.9h-73.4
				v-42.6h177.2v42.6h-61.2v16c0,54.4-37.9,68.6-83.6,80.3l-4.6,1.2L2372,228.5z"/>
			<path class="st0" d="M2527.7,129.7v32.6h-61.2v20.8v0.1c0,51.1-35.6,64.2-79.9,75.5l-8.5-27c60.4-19.1,55.7-29.9,55.7-48.5v-0.1
				v-20.8h-73.4v-32.6L2527.7,129.7 M2537.7,119.7h-9.9h-167.2h-9.9v9.9v32.6v9.9h9.9h63.5V183v0.1c0,1.4,0,2.7,0,3.9
				c0.1,8.1,0,10.9-3.8,14.7c-6.2,6.1-20.9,12.8-45,20.5l-9.5,3l3,9.5l8.5,27l2.8,9l9.1-2.3c21.3-5.5,43.5-11.9,60.1-24.6
				c18.3-14,27.2-33.9,27.2-60.6v-0.1v-10.9h51.2h9.9v-9.9v-32.6L2537.7,119.7L2537.7,119.7z"/>
		</g>
	</g>
</g>
</svg>
