<?xml version="1.0" encoding="utf-8"?>
<!-- Generator: Adobe Illustrator 26.0.1, SVG Export Plug-In . SVG Version: 6.00 Build 0)  -->
<svg version="1.1" id="Layer_1" xmlns="http://www.w3.org/2000/svg" xmlns:xlink="http://www.w3.org/1999/xlink" x="0px" y="0px"
	 viewBox="0 0 3839 695.5" style="enable-background:new 0 0 3839 695.5;" xml:space="preserve">
<style type="text/css">
	.st0{fill:#FDBC1A;}
	.st1{stroke:#FFFFFF;stroke-width:9.9456;stroke-miterlimit:10;}
	.st2{fill:#FFFFFF;}
</style>
<g>
	<g>
		<g>
			<g>
				<path class="st0" d="M670.5,510.3v-12.9l10.8-7c31.1-19.9,49.7-53.6,49.7-90.2S712.5,330,681.4,310l-10.8-7v-12.9V77.5
					c0-23.6-19.2-42.9-42.8-42.9H136.9C113.3,34.6,94,53.8,94,77.5v212.7v12.9l-10.8,7C52,330,33.5,363.7,33.5,400.3
					s18.6,70.2,49.6,90.2l10.8,7v12.9v46.4v22l-22.1,1.4c-21.6,1.4-38.4,19.2-38.4,40.7c0,22.7,18.4,41.1,41,41.1h218.4
					c10.4-39.6,46.5-68.8,89.3-68.8s79,29.2,89.3,68.8h218.4c22.7,0,41-18.4,41-41.1c0-21.5-16.9-39.3-38.5-40.7l-22.1-1.4v-22.2
					L670.5,510.3L670.5,510.3z"/>
			</g>
			<g>
				<g>
					<g>
						<path class="st1" d="M526.5,162.2c28.6,0,55.6,11.1,75.8,31.4c20.3,20.3,31.4,47.1,31.4,75.9c0,28.6-11.1,55.6-31.4,75.8
							c-20.3,20.3-47.2,31.4-75.8,31.4c-28.5,0-55.6-11.1-75.8-31.4c-20.3-20.3-31.4-47.2-31.4-75.8c0-28.6,11.1-55.6,31.4-75.9
							C470.9,173.4,497.9,162.2,526.5,162.2 M526.5,138.6c-72.2,0-130.8,58.6-130.8,130.8s58.6,130.8,130.8,130.8
							c72.2,0,130.9-58.6,130.9-130.8S598.8,138.6,526.5,138.6L526.5,138.6z"/>
					</g>
				</g>
				<g>
					<circle cx="437.9" cy="269.4" r="36.6"/>
					<path class="st2" d="M437.9,237.8c17.5,0,31.6,14.2,31.6,31.6s-14.2,31.6-31.6,31.6c-17.5,0-31.6-14.2-31.6-31.6
						S420.4,237.8,437.9,237.8 M437.9,227.9c-22.9,0-41.6,18.6-41.6,41.6S415,311,437.9,311c22.9,0,41.6-18.6,41.6-41.6
						S460.8,227.9,437.9,227.9L437.9,227.9z"/>
				</g>
			</g>
			<g>
				<g>
					<g>
						<path class="st1" d="M238.1,162.2c28.6,0,55.6,11.1,75.8,31.4c20.3,20.3,31.4,47.1,31.4,75.9c0,28.6-11.1,55.6-31.4,75.8
							c-20.3,20.3-47.2,31.4-75.8,31.4s-55.6-11.1-75.8-31.4c-20.3-20.3-31.4-47.2-31.4-75.8c0-28.6,11.1-55.6,31.4-75.9
							C182.5,173.4,209.5,162.2,238.1,162.2 M238.1,138.6c-72.2,0-130.8,58.6-130.8,130.8s58.6,130.8,130.8,130.8
							s130.8-58.6,130.8-130.8S310.3,138.6,238.1,138.6L238.1,138.6z"/>
					</g>
				</g>
				<g>
					<ellipse transform="matrix(0.7071 -0.7071 0.7071 0.7071 -94.8213 309.9341)" cx="326.7" cy="269.4" rx="36.6" ry="36.6"/>
					<path class="st2" d="M326.7,237.8c17.5,0,31.6,14.2,31.6,31.6s-14.2,31.6-31.6,31.6c-17.5,0-31.6-14.2-31.6-31.6
						S309.2,237.8,326.7,237.8 M326.7,227.9c-22.9,0-41.6,18.6-41.6,41.6s18.6,41.6,41.6,41.6c22.9,0,41.6-18.6,41.6-41.6
						S349.6,227.9,326.7,227.9L326.7,227.9z"/>
				</g>
			</g>
			<g>
				<path d="M446.1,690.5v-5c0-35.2-28.6-63.9-63.9-63.9s-63.9,28.6-63.9,63.9v5H74.5C36.2,690.5,5,659.3,5,620.9
					c0-34.9,26.2-64.2,60.6-68.8v-39.2C27.6,487.6,5,445.7,5,400.2c0-45.3,22.6-87.3,60.5-112.7V77.5c0-39.4,32-71.4,71.4-71.4
					h490.9c19.1,0,37,7.4,50.4,21c13.4,13.5,20.8,31.4,20.7,50.5v210.1c38,25.2,60.6,67.2,60.6,112.7c0,45.4-22.6,87.3-60.6,112.7
					v39.2c34.3,4.4,60.6,33.7,60.6,68.7c0,38.4-31.2,69.6-69.5,69.6H446.1z M690.1,657c19.9,0,36-16.2,36-36.1
					c0-18.8-14.9-34.5-33.8-35.7l-26.7-1.7v-88.7l13.1-8.4c29.7-19.1,47.4-51.2,47.4-86c0-34.9-17.7-67-47.4-86l-13.1-8.4V77.5
					c0-20.9-17-37.9-37.8-37.9H136.9C116,39.6,99,56.6,99,77.5v228.2l-13.1,8.4c-29.6,19.1-47.3,51.3-47.3,86
					c0,34.9,17.7,67.1,47.3,86l13.1,8.4v88.9l-26.7,1.7c-18.9,1.2-33.7,16.9-33.7,35.7c0,19.9,16.2,36.1,36,36.1h214.7
					c12.4-40.7,50.1-68.8,93.1-68.8c42.9,0,80.6,28.1,93.1,68.8H690.1z"/>
				<path class="st2" d="M627.8,11c36.6,0,66.3,29.7,66.1,66.4v212.8c36.4,23.2,60.6,63.7,60.6,110s-24.3,86.7-60.6,110v46.4
					c33.8,2.1,60.6,29.8,60.6,64.1c0,35.7-28.8,64.6-64.5,64.6H451c0-38-30.8-68.8-68.8-68.8c-38,0-68.8,30.8-68.8,68.8H74.5
					c-35.6,0-64.5-28.9-64.5-64.6c0-34.3,26.8-62.1,60.6-64.2v-46.4C34.2,487,9.9,446.6,9.9,400.2c0-46.2,24.3-86.7,60.5-110V77.5
					c0-36.7,29.7-66.4,66.4-66.4H627.8 M74.5,662H293c10.3-39.6,46.5-68.8,89.3-68.8c42.8,0,78.9,29.2,89.3,68.8h218.5
					c22.6,0,41-18.4,41-41.1c0-21.5-16.9-39.3-38.5-40.7l-22.1-1.4v-22v-46.4v-12.9l10.8-7c31.1-20,49.7-53.6,49.7-90.2
					c0-36.6-18.6-70.3-49.7-90.2l-10.8-7v-12.9V77.5c0-23.7-19.2-42.9-42.8-42.9H136.9C113.2,34.6,94,53.9,94,77.5V290v12.9l-10.8,7
					c-31,20-49.6,53.6-49.6,90.2c0,36.6,18.5,70.3,49.6,90.2l10.8,7v12.9v46.4v22.2l-22.1,1.4c-21.5,1.4-38.4,19.2-38.4,40.7
					C33.5,643.6,51.8,662,74.5,662 M627.8,1.1H136.9c-42.1,0-76.4,34.3-76.4,76.4v207.4C22.5,311.4,0,354.1,0,400.2
					c0,46.2,22.5,89,60.6,115.3v32.4c-15.3,2.9-29.4,10.5-40.2,22C7.2,583.7,0,601.8,0,620.9c0,41.1,33.4,74.6,74.5,74.6h238.9h9.9
					v-9.9c0-32.5,26.4-58.9,58.9-58.9s58.9,26.4,58.9,58.9v9.9h9.9h238.9c19.9,0,38.6-7.8,52.7-21.9c14.1-14.1,21.8-32.8,21.8-52.7
					c0-19.1-7.2-37.2-20.3-51c-10.9-11.4-24.9-19-40.2-21.9v-32.4c38-26.5,60.6-69.2,60.6-115.3c0-46.3-22.5-89-60.6-115.3V77.5
					c0.1-20.4-7.7-39.5-22.1-54C667.3,9.1,648.2,1.1,627.8,1.1L627.8,1.1z M74.5,652c-17.1,0-31-14-31-31.1
					c0-16.2,12.8-29.7,29.1-30.8l22.1-1.4l9.3-0.6v-9.3v-22.2v-46.4v-12.9v-5.4l-4.6-2.9l-10.8-7c-28.2-18-45.1-48.6-45.1-81.8
					c0-33.1,16.8-63.7,45.1-81.8l10.8-7l4.6-2.9v-5.4V290V77.5c0-18.2,14.8-32.9,32.9-32.9h490.9c18.1,0,32.8,14.8,32.8,32.9v212.7
					v12.9v5.4l4.6,2.9l10.8,7c28.3,18.1,45.2,48.7,45.2,81.8c0,33.1-16.9,63.7-45.2,81.8l-10.8,7l-4.6,2.9v5.4v12.9v46.4v22v9.3
					l9.3,0.6l22.1,1.4c16.4,1.1,29.2,14.6,29.2,30.8c0,17.2-13.9,31.1-31,31.1H479c-14.2-40.9-52.9-68.8-96.7-68.8
					c-23,0-44.8,7.5-62.9,21.7C303.8,617,292,633.6,285.6,652H74.5L74.5,652z"/>
			</g>
		</g>
		<g>
			<g>
				<path d="M828.2,690.4V225.9h204.4c40.5,0,73.6,33,73.7,73.6v317.4c0,40.6-33,73.6-73.6,73.6H828.2z M1032.7,656.9
					c21.4,0,38.9-16.8,40-37.9l0-2.1V299.4c0-22.1-18-40.1-40.1-40.1h-171v397.6H1032.7z"/>
				<path class="st2" d="M1032.6,230.8c37.9,0,68.6,30.7,68.7,68.6v317.4c0,37.9-30.7,68.6-68.6,68.6H833.1V230.8H1032.6
					 M856.6,661.9h176c24.9,0,45.1-20.2,45.1-45.1h-0.1V299.4c0-24.9-20.2-45.1-45.1-45.1H856.6V661.9 M1032.6,220.9H833.1h-9.9v9.9
					v454.6v9.9h9.9h199.5c43.3,0,78.6-35.2,78.6-78.6V299.5C1111.1,256.1,1075.8,220.9,1032.6,220.9L1032.6,220.9z M866.6,264.3h166
					c19.4,0,35.1,15.7,35.1,35.1v317.5v2.7c-1.4,18.1-16.5,32.5-35,32.5H866.6V264.3L866.6,264.3z"/>
			</g>
			<g>
				<path d="M1347.9,690.4c-40.6,0-73.6-33-73.6-73.6v-170l132.3,88.8v27.6c0,3.6,2.4,6.8,5.5,7.3c0.4,0.1,0.8,0.1,1.2,0.1
					c3.7,0,6.8-3,6.8-6.7V536L1307,460.2c-20.4-13.7-32.6-36.5-32.6-61.1v-99.8c0-40.6,33-73.6,73.6-73.6h130.9
					c40.6,0,73.6,33,73.6,73.6v170.1l-132.3-88.8V353c0-3.6-2.4-6.8-5.6-7.3c-0.4-0.1-0.8-0.1-1.3-0.1c-3.7,0-6.7,3-6.7,6.7v27.9
					l113.2,75.8c20.4,13.7,32.6,36.6,32.6,61.2v99.7c0,40.6-33,73.6-73.6,73.6H1347.9z M1307.8,616.8c0,22.1,18,40.1,40.1,40.1
					h130.9c22.1,0,40.1-18,40.1-40.1v-99.8c0-13.5-6.6-25.9-17.8-33.4l-115.4-77.3l-12.6-8.4v-45.7c0-11.7,5.2-22.9,14.2-30.6
					c7.4-6.2,16.7-9.6,26.1-9.6c2.1,0,4.1,0.2,6.5,0.6c19.6,3.2,33.7,20.1,33.7,40.3v9.9l65.3,43.8V299.5c0-22.1-18-40.1-40.1-40.1
					H1348c-22.1,0-40.1,18-40.1,40.1v99.9c0,13.5,6.6,25.9,17.8,33.4l115.4,77.3l12.6,8.4v45.7c0,11.7-5.2,22.9-14.2,30.6
					c-7.4,6.2-16.7,9.6-26.1,9.6c-2.1,0-4.1-0.2-6.5-0.6c-19.6-3.2-33.7-20.1-33.7-40.3v-9.9l-65.3-43.8V616.8z"/>
				<path class="st2" d="M1478.8,230.7c37.9,0,68.6,30.7,68.6,68.6v160.7l-122.3-82.2v-7.1V353c0-5.9-4-11.2-9.7-12.2
					c-0.7-0.1-1.4-0.2-2.1-0.2c-6.4,0-11.6,5.3-11.6,11.7v30.5l115.4,77.3c19,12.7,30.4,34.1,30.4,57.1v32.4v-22v89.2
					c0,37.9-30.7,68.6-68.6,68.6h-130.9c-37.9,0-68.6-30.7-68.6-68.6V456.1l122.3,82.2v7.1v17.9c0,5.9,4,11.3,9.7,12.2
					c0.7,0.1,1.3,0.2,2,0.2c6.5,0,11.7-5.2,11.7-11.7v-30.5l-115.4-77.3c-19-12.7-30.4-34.1-30.4-57v-99.8
					c0-37.9,30.7-68.6,68.6-68.6H1478.8 M1413.5,599.3c-2,0-3.9-0.2-5.8-0.5c-17.1-2.8-29.5-17.7-29.5-35.4v-12.5l-75.3-50.5v116.5
					c0,24.9,20.2,45.1,45.1,45.1h130.9c24.9,0,45.1-20.2,45.1-45.1v-89.2v-10.5c0-15.1-7.5-29.1-20-37.5l-115.4-77.3l-10.4-7v-12.5
					v-30.5c0-10.3,4.6-20.1,12.4-26.9c6.5-5.4,14.5-8.4,22.9-8.4c2,0,3.9,0.2,5.8,0.5c17.1,2.8,29.5,17.6,29.5,35.4v12.5L1524,416
					V299.5c0-24.9-20.2-45.1-45.1-45.1H1348c-24.9,0-45.1,20.2-45.1,45.1v99.9c0,15.1,7.5,29.1,20,37.5l115.4,77.3l10.4,7v12.5v30.5
					c0,10.3-4.6,20.1-12.4,26.9C1429.9,596.3,1421.8,599.3,1413.5,599.3 M1478.8,220.8h-130.9c-43.3,0-78.6,35.2-78.6,78.6v99.8
					c0,18.9,6.8,36.9,18.7,50.9l-3.2-2.2l-15.5-10.4v18.7v160.7c0,43.3,35.2,78.6,78.6,78.6h130.9c43.3,0,78.6-35.2,78.6-78.6v-67.2
					v-32.4c0-19-6.8-37-18.7-51l3.3,2.2l15.5,10.4v-18.7V299.4C1557.4,256,1522.1,220.8,1478.8,220.8L1478.8,220.8z M1413.5,609.3
					c10.6,0,21-3.8,29.2-10.7l0.1-0.1l0.1-0.1c10.1-8.7,15.9-21.2,15.9-34.4v-30.5V521v-5.3l-4.4-3l-10.4-7l-115.4-77.3
					c-9.8-6.5-15.6-17.4-15.6-29.2v-99.9c0-19.4,15.7-35.1,35.1-35.1h130.9c19.4,0,35.1,15.7,35.1,35.1v97.9l-55.4-37.2V353
					c0-22.6-15.9-41.6-37.9-45.2c-2.7-0.4-5-0.6-7.4-0.6c-10.6,0-21,3.8-29.2,10.6l-0.1,0.1l-0.1,0.1c-10.1,8.7-15.9,21.2-15.9,34.4
					v30.5v12.5v5.3l4.4,3l10.4,7l115.4,77.3c9.8,6.5,15.6,17.4,15.6,29.2v10.5v89.2c0,19.4-15.7,35.1-35.1,35.1h-130.9
					c-19.4,0-35.1-15.7-35.1-35.1V519l55.4,37.2v7.2c0,22.6,15.9,41.6,37.9,45.2C1408.8,609.1,1411.1,609.3,1413.5,609.3
					L1413.5,609.3z M1411.6,377.5v-25.2c0-1,0.8-1.8,1.7-1.8c0.1,0,0.2,0,0.4,0c0.8,0.1,1.5,1.3,1.5,2.4v17.9v7.1v2L1411.6,377.5
					L1411.6,377.5z M1413.4,565.7c-0.1,0-0.3,0-0.4,0l0,0l0,0c-0.5-0.1-1.3-1.1-1.3-2.4v-17.9v-7.1v-2l3.6,2.4v25.2
					C1415.2,564.9,1414.4,565.7,1413.4,565.7L1413.4,565.7z"/>
			</g>
			<g>
				<path d="M2689.7,690.4c-40.6,0-73.6-33-73.6-73.6v-170l132.3,88.8v27.6c0,3.6,2.4,6.8,5.5,7.3c0.4,0.1,0.8,0.1,1.2,0.1
					c3.7,0,6.8-3,6.8-6.7V536l-113.2-75.8c-20.4-13.7-32.6-36.5-32.6-61.1v-99.8c0-40.6,33-73.6,73.6-73.6h130.9
					c40.6,0,73.6,33,73.6,73.6v170.1l-132.3-88.8V353c0-3.6-2.4-6.8-5.6-7.3c-0.4-0.1-0.8-0.1-1.3-0.1c-3.7,0-6.7,3-6.7,6.7v27.9
					l113.2,75.8c20.3,13.6,32.5,36.5,32.6,61.2v99.7c0,40.6-33,73.6-73.6,73.6H2689.7z M2649.6,616.8c0,22.1,18,40.1,40.1,40.1
					h130.9c22.1,0,40.1-18,40.1-40.1v-89.2l0.1-10.6c0-13.4-6.6-25.9-17.8-33.3l-115.4-77.3l-12.6-8.4v-45.7
					c0-11.7,5.2-22.9,14.2-30.6c7.4-6.2,16.7-9.6,26.1-9.6c2,0,4.2,0.2,6.5,0.6c19.6,3.2,33.7,20.1,33.7,40.3v9.9l65.2,43.8V299.5
					c0-22.1-18-40.1-40.1-40.1h-130.9c-22.1,0-40.1,18-40.1,40.1v99.9c0,13.5,6.6,25.9,17.8,33.4l115.4,77.3l12.6,8.4v45.7
					c0,11.7-5.2,22.9-14.2,30.6c-7.4,6.2-16.7,9.6-26.1,9.6c-2,0-4.2-0.2-6.5-0.6c-19.6-3.2-33.7-20.1-33.7-40.3v-9.9l-65.3-43.8
					V616.8z"/>
				<path class="st2" d="M2820.6,230.7c37.9,0,68.6,30.7,68.6,68.6v160.7l-122.3-82.2v-7.1V353c0-5.9-4-11.2-9.7-12.2
					c-0.7-0.1-1.4-0.2-2.1-0.2c-6.4,0-11.6,5.3-11.6,11.7v30.5l115.4,77.3c19,12.7,30.3,34.1,30.4,57.1v32.4v-22v89.2
					c0,37.9-30.7,68.6-68.6,68.6h-130.9c-37.9,0-68.6-30.7-68.6-68.6V456.1l122.3,82.2v7.1v17.9c0,5.9,4,11.3,9.7,12.2
					c0.7,0.1,1.3,0.2,2,0.2c6.5,0,11.7-5.2,11.7-11.7v-30.5l-115.4-77.3c-19-12.7-30.4-34.1-30.4-57v-99.8
					c0-37.9,30.7-68.6,68.6-68.6H2820.6 M2755.2,599.3c-1.9,0-3.9-0.2-5.8-0.5c-17.1-2.8-29.5-17.7-29.5-35.4v-12.5l-75.3-50.5
					v116.5c0,24.9,20.2,45.1,45.1,45.1h130.9c24.9,0,45.1-20.2,45.1-45.1v-89.2l0.1-10.5c0-15.1-7.5-29.1-20-37.5l-115.4-77.3
					l-10.4-7v-12.5v-30.5c0-10.3,4.6-20.1,12.4-26.9c6.5-5.4,14.5-8.4,22.9-8.4c1.9,0,3.9,0.2,5.8,0.5c17.1,2.8,29.5,17.6,29.5,35.4
					v12.5l75.2,50.5V299.5c0-24.9-20.2-45.1-45.1-45.1h-130.9c-24.9,0-45.1,20.2-45.1,45.1v99.9c0,15.1,7.5,29.1,20,37.5l115.4,77.3
					l10.4,7v12.5v30.5c0,10.3-4.6,20.1-12.4,26.9C2771.6,596.3,2763.6,599.3,2755.2,599.3 M2820.6,220.8h-130.9
					c-43.3,0-78.6,35.2-78.6,78.6v99.8c0,18.9,6.8,36.9,18.7,50.9l-3.2-2.2l-15.5-10.4v18.7v160.7c0,43.3,35.2,78.6,78.6,78.6h130.9
					c43.3,0,78.6-35.2,78.6-78.6v-67.2v-32.4c-0.1-19-6.9-37-18.8-51.1l3.3,2.2l15.5,10.4v-18.7V299.4
					C2899.1,256,2863.9,220.8,2820.6,220.8L2820.6,220.8z M2755.2,609.3c10.6,0,21-3.8,29.2-10.6l0.1-0.1l0.1-0.1
					c10.1-8.7,15.9-21.2,15.9-34.4v-30.5V521v-5.3l-4.4-3l-10.4-7l-115.4-77.3c-9.8-6.5-15.6-17.4-15.6-29.2v-99.9
					c0-19.4,15.7-35.1,35.1-35.1h130.9c19.4,0,35.1,15.7,35.1,35.1v97.9l-55.3-37.2V353c0-22.6-15.9-41.6-37.9-45.2
					c-2.6-0.4-5.1-0.6-7.4-0.6c-10.6,0-21,3.8-29.2,10.6l-0.1,0.1l-0.1,0.1c-10.1,8.7-15.9,21.2-15.9,34.4v30.5v12.5v5.3l4.4,3
					l10.4,7l115.4,77.3c9.8,6.5,15.6,17.4,15.6,29.2l-0.1,10.5l0,0v0v89.2c0,19.4-15.7,35.1-35.1,35.1h-130.9
					c-19.4,0-35.1-15.7-35.1-35.1V519l55.4,37.2v7.2c0,22.6,15.9,41.6,37.9,45.2C2750.5,609.1,2753,609.3,2755.2,609.3L2755.2,609.3
					z M2753.3,377.5v-25.2c0-1,0.8-1.8,1.7-1.8c0.1,0,0.2,0,0.4,0c0.8,0.1,1.5,1.3,1.5,2.4v17.9v7.1v2L2753.3,377.5L2753.3,377.5z
					 M2755.1,565.7c-0.1,0-0.3,0-0.4,0l0,0l0,0c-0.5-0.1-1.3-1.1-1.3-2.4v-17.9v-7.1v-2l3.6,2.4v25.2
					C2756.9,564.9,2756.1,565.7,2755.1,565.7L2755.1,565.7z"/>
			</g>
			<g>
				<path d="M2106.5,690.4c-40.6,0-73.6-33-73.6-73.6v-170l132.3,88.8v27.6c0,3.6,2.4,6.8,5.5,7.3c0.4,0.1,0.8,0.1,1.2,0.1
					c3.7,0,6.8-3,6.8-6.7V536l-113.2-75.8c-20.4-13.7-32.6-36.5-32.6-61.1v-99.8c0-40.6,33-73.6,73.6-73.6h130.9
					c40.6,0,73.6,33,73.6,73.6v170.1l-132.3-88.8V353c0-3.6-2.4-6.8-5.6-7.3c-0.4-0.1-0.8-0.1-1.3-0.1c-3.7,0-6.7,3-6.7,6.7v27.9
					l113.2,75.8c20.4,13.7,32.6,36.6,32.6,61.2v99.7c0,40.6-33,73.6-73.6,73.6H2106.5z M2066.4,616.8c0,22.1,18,40.1,40.1,40.1h131
					c22.1,0,40.1-18,40.1-40.1v-99.8c0-13.5-6.6-25.9-17.8-33.4l-115.4-77.3l-12.6-8.4v-45.7c0-11.7,5.2-22.9,14.2-30.6
					c7.4-6.2,16.7-9.6,26.1-9.6c2,0,4.2,0.2,6.5,0.6c19.6,3.2,33.7,20.1,33.7,40.3v9.9l65.2,43.8V299.5c0-22.1-18-40.1-40.1-40.1
					h-130.9c-22.1,0-40.1,18-40.1,40.1v99.9c0,13.5,6.6,25.9,17.8,33.4l115.4,77.3l12.6,8.4v45.7c0,11.7-5.2,22.9-14.2,30.6
					c-7.4,6.2-16.7,9.6-26.1,9.6c-2,0-4.2-0.2-6.5-0.6c-19.6-3.2-33.7-20.1-33.7-40.3v-9.9l-65.3-43.8V616.8z"/>
				<path class="st2" d="M2237.4,230.7c37.9,0,68.6,30.7,68.6,68.6v160.7l-122.3-82.2v-7.1V353c0-5.9-4-11.2-9.7-12.2
					c-0.7-0.1-1.4-0.2-2.1-0.2c-6.4,0-11.6,5.3-11.6,11.7v30.5l115.4,77.3c19,12.7,30.4,34.1,30.4,57.1v32.4v-22v89.2
					c0,37.9-30.7,68.6-68.6,68.6h-130.9c-37.9,0-68.6-30.7-68.6-68.6V456.1l122.3,82.2v7.1v17.9c0,5.9,4,11.3,9.7,12.2
					c0.7,0.1,1.3,0.2,2,0.2c6.5,0,11.7-5.2,11.7-11.7v-30.5l-115.4-77.3c-19-12.7-30.4-34.1-30.4-57v-99.8
					c0-37.9,30.7-68.6,68.6-68.6H2237.4 M2172,599.3c-1.9,0-3.9-0.2-5.8-0.5c-17.1-2.8-29.5-17.7-29.5-35.4v-12.5l-75.3-50.5v116.5
					c0,24.9,20.2,45.1,45.1,45.1h131c24.9,0,45.1-20.2,45.1-45.1v-89.2v-10.5c0-15.1-7.5-29.1-20-37.5l-115.4-77.3l-10.4-7v-12.5
					v-30.5c0-10.3,4.6-20.1,12.4-26.9c6.5-5.4,14.5-8.4,22.9-8.4c1.9,0,3.9,0.2,5.8,0.5c17.1,2.8,29.5,17.6,29.5,35.4v12.5
					l75.2,50.5V299.5c0-24.9-20.2-45.1-45.1-45.1h-130.9c-24.9,0-45.1,20.2-45.1,45.1v99.9c0,15.1,7.5,29.1,20,37.5l115.4,77.3
					l10.4,7v12.5v30.5c0,10.3-4.6,20.1-12.4,26.9C2188.4,596.3,2180.4,599.3,2172,599.3 M2237.4,220.8h-130.9
					c-43.3,0-78.6,35.2-78.6,78.6v99.8c0,18.9,6.8,36.9,18.7,50.9l-3.2-2.2l-15.5-10.4v18.7v160.7c0,43.3,35.2,78.6,78.6,78.6h130.9
					c43.3,0,78.6-35.2,78.6-78.6v-67.2v-32.4c0-19-6.8-37-18.7-51l3.3,2.2l15.5,10.4v-18.7V299.4
					C2315.9,256,2280.7,220.8,2237.4,220.8L2237.4,220.8z M2172,609.3c10.6,0,21-3.8,29.2-10.7l0.1-0.1l0.1-0.1
					c10.1-8.7,15.9-21.2,15.9-34.4v-30.5V521v-5.3l-4.4-3l-10.4-7L2087,428.5c-9.8-6.5-15.6-17.4-15.6-29.2v-99.9
					c0-19.4,15.7-35.1,35.1-35.1h130.9c19.4,0,35.1,15.7,35.1,35.1v97.9l-55.3-37.2V353c0-22.6-15.9-41.6-37.9-45.2
					c-2.6-0.4-5.1-0.6-7.4-0.6c-10.6,0-21,3.8-29.2,10.6l-0.1,0.1l-0.1,0.1c-10.1,8.7-15.9,21.2-15.9,34.4v30.5v12.5v5.3l4.4,3
					l10.4,7l115.4,77.3c9.8,6.5,15.6,17.4,15.6,29.2v10.5v89.2c0,19.4-15.7,35.1-35.1,35.1h-131c-19.4,0-35.1-15.7-35.1-35.1V519
					l55.4,37.2v7.2c0,22.6,15.9,41.6,37.9,45.2C2167.3,609.1,2169.8,609.3,2172,609.3L2172,609.3z M2170.1,377.5v-25.2
					c0-1,0.8-1.8,1.7-1.8c0.1,0,0.2,0,0.4,0c0.8,0.1,1.5,1.3,1.5,2.4v17.9v7.1v2L2170.1,377.5L2170.1,377.5z M2171.9,565.7
					c-0.1,0-0.3,0-0.4,0l0,0l0,0c-0.5-0.1-1.3-1.1-1.3-2.4v-17.9v-7.1v-2l3.6,2.4v25.2C2173.7,564.9,2172.9,565.7,2171.9,565.7
					L2171.9,565.7z"/>
			</g>
			<g>
				<path d="M1127,690.4V225.9h132.3v464.6H1127z M1225.9,657V259.3h-65.3V657H1225.9z"/>
				<path class="st2" d="M1254.3,230.8v454.6H1132V230.8H1254.3 M1155.6,662h75.3V254.3h-75.3V662 M1264.3,220.9h-9.9H1132h-9.9v9.9
					v454.6v9.9h9.9h122.3h9.9v-9.9V230.8V220.9L1264.3,220.9z M1165.5,264.3h55.4V652h-55.4V264.3L1165.5,264.3z"/>
			</g>
			<g>
				<path d="M2964.6,690.4V345.7H2905V225.9h251.4v119.8h-59.6v344.7H2964.6z M3063.2,657V312.2h59.6l-0.1-52.9h-184.4v52.9h59.6
					V657H3063.2z"/>
				<path class="st2" d="M3151.5,230.8v109.9h-59.6v344.7h-122.3V340.7H2910V230.8h59.6h122.3H3151.5 M2933.4,317.2h59.6V662h75.3
					V317.2h59.6l-0.1-62.9h-194.3V317.2 M3161.4,220.9h-9.9h-59.6h-122.3H2910h-9.9v9.9v109.9v9.9h9.9h49.6v334.8v9.9h9.9h122.3h9.9
					v-9.9V350.7h49.6h9.9v-9.9V230.8V220.9L3161.4,220.9z M2943.3,264.3h174.5l0.1,43h-49.6h-9.9v9.9V652h-55.4V317.2v-9.9h-9.9
					h-49.6V264.3L2943.3,264.3z"/>
			</g>
			<g>
				<path d="M926.9,604.2v-292h37.3c23.8,0,43.2,19.4,43.2,43.2V561c0,23.8-19.4,43.2-43.2,43.2H926.9z M964.2,570.8
					c5.4,0,9.7-4.4,9.7-9.7V355.5c0-5.4-4.4-9.7-9.7-9.7h-3.8v225.1H964.2z"/>
				<path class="st2" d="M964.2,317.2c21.1,0,38.2,17.2,38.2,38.2V561c0,21.1-17.1,38.2-38.2,38.2h-32.3V317.2H964.2 M955.5,575.8
					h8.8c8.2,0,14.7-6.6,14.7-14.7V355.5c0-8.2-6.6-14.7-14.7-14.7h-8.8V575.8 M964.2,307.2h-32.3H922v9.9v282.1v9.9h9.9h32.3
					c26.5,0,48.1-21.6,48.1-48.1V355.4C1012.4,328.8,990.8,307.2,964.2,307.2L964.2,307.2z M965.4,565.7V350.8
					c2.1,0.5,3.6,2.4,3.6,4.6V561C969,563.3,967.5,565.1,965.4,565.7L965.4,565.7z"/>
			</g>
			<g>
				<path d="M1708.4,690.4V568.9l-13.5-13.5v135.1h-132.3V225.9h132.3V361l13.5-13.5V225.9h132.3v176.5l-55.8,55.8l55.8,55.8v176.4
					H1708.4z M1807.2,656.9V527.8l-69.7-69.7l69.7-69.7V259.3h-65.3v101.9l-80.5,80.5V259.3h-65.3v397.6h65.3V474.5l80.5,80.5v101.9
					H1807.2z"/>
				<path class="st2" d="M1835.7,230.8v169.5l-57.9,57.9l57.9,57.9v169.4h-122.3V566.8l-23.5-23.5v142.1h-122.3V230.8h122.3V373
					l23.5-23.5V230.8H1835.7 M1666.4,429.6V254.3h-75.3v407.6h75.3V486.5l70.5,70.5v104.8h75.3V525.7l-67.6-67.6l67.6-67.6V254.3
					h-75.3v104.8L1666.4,429.6 M1845.6,220.9h-9.9h-122.3h-9.9v9.9v114.5l-3.6,3.6V230.8v-9.9h-9.9h-122.3h-9.9v9.9v454.6v9.9h9.9
					h122.3h9.9v-9.9V567.3l3.6,3.6v114.5v9.9h9.9h122.3h9.9v-9.9V516.1V512l-2.9-2.9l-50.9-50.9l50.9-50.9l2.9-2.9v-4.1V230.8V220.9
					L1845.6,220.9z M1746.8,264.3h55.4v122.1l-64.7,64.7l-7,7l7,7l64.7,64.7v122.1h-55.4v-94.9v-4.1l-2.9-2.9l-70.5-70.5l-17-17v24
					v165.4H1601V264.3h55.4v165.4v24l17-17l70.5-70.5l2.9-2.9v-4.1V264.3L1746.8,264.3z"/>
			</g>
			<g>
				<path d="M2346.7,690.3V570.7H2469v-13.5h-72.2c-40.6,0-73.6-33-73.6-73.6V225.9h132.3V425h13.5V225.9h132.2v390.9
					c0,40.6-33,73.6-73.6,73.6H2346.7z M2527.7,656.9c22.1,0,40.1-18,40.1-40.1l0.2-357.5h-65.3v199.2h-80.6V259.3h-65.3v224.3
					c0,22.1,18,40.1,40.1,40.1h105.7v80.6h-122.3v52.7H2527.7z"/>
				<path class="st2" d="M2596.2,230.8v385.9c0,37.9-30.7,68.6-68.6,68.6h-175.9V575.7H2474v-23.5h-77.2
					c-37.9,0-68.6-30.7-68.6-68.6v-23v-65.9V230.8h122.3v199.1h23.5V230.8H2596.2 M2427,453.5v-23.6V254.3h-75.3v140.3v65.9v23
					c0,24.9,20.2,45.1,45.1,45.1h77.2h23.6v23.6v23.5v23.6H2474h-98.8v62.7h152.5c24.9,0,45.1-20.2,45.1-45.1l0.2-362.5h-75.3v175.6
					v23.6h-23.6h-23.5H2427 M2606.1,220.9h-9.9H2474h-9.9v9.9V420h-3.6V230.8v-9.9h-9.9h-122.3h-9.9v9.9v163.8v65.9v23
					c0,43.3,35.2,78.6,78.6,78.6h67.2v3.6h-112.4h-9.9v9.9v109.7v9.9h9.9h175.9c43.3,0,78.6-35.2,78.6-78.6V230.8V220.9
					L2606.1,220.9z M2507.6,264.3h55.4l-0.2,352.6c0,19.4-15.7,35.1-35.1,35.1h-142.5v-42.8h88.8h23.6h9.9v-9.9v-23.6v-23.5v-23.6
					v-9.9h-9.9H2474h-77.2c-19.4,0-35.1-15.7-35.1-35.1v-23v-65.9V264.3h55.4v165.7v23.6v9.9h9.9h23.6h23.5h23.6h9.9v-9.9v-23.6
					V264.3L2507.6,264.3z"/>
			</g>
			<g>
				<path d="M3166.7,690.4V225.9h221.9v119.8h-89.7v52.5h89.7v119.8h-89.7v52.7h89.7v119.6H3166.7z M3355,657v-52.7h-89.7V484.6
					h89.7v-52.9h-89.7V312.2h89.7v-52.9h-155V657H3355z"/>
				<path class="st2" d="M3383.6,230.8v109.9h-89.7v62.5h89.7v109.9h-89.7v62.7h89.7v109.7h-211.9V230.8H3383.6 M3195.1,662H3360
					v-62.7h-89.7V489.6h89.7v-62.9v0h-89.7V317.2h89.7v-62.9h-164.9V662 M3393.5,220.9h-9.9h-211.9h-9.9v9.9v454.6v9.9h9.9h211.9
					h9.9v-9.9V575.8v-9.9h-9.9h-79.8V523h79.8h9.9v-9.9V403.2v-9.9h-9.9h-79.8v-42.6h79.8h9.9v-9.9V230.8V220.9L3393.5,220.9z
					 M3205.1,264.3h145v43h-79.8h-9.9v9.9v109.6v9.9h9.9h79.8v43h-79.8h-9.9v9.9v109.7v9.9h9.9h79.8V652h-145V264.3L3205.1,264.3z"
					/>
			</g>
			<g>
				<path d="M3555.7,690.5v-338c0-3.8-3-6.9-6.9-6.9s-6.9,3-6.9,6.9v337.9h-132.3V225.9h167c16.4,0,32.3,5.5,45.2,15.5
					c13-10.1,28.8-15.5,45.1-15.5h93.4c40.6,0,73.6,33,73.6,73.6v391h-132.3v-338c0-3.8-3-6.9-6.9-6.9s-6.9,3-6.9,6.9v338.1H3555.7z
					 M3800.4,657V299.4c0-22.1-18-40.1-40.1-40.1h-93.4c-9.9,0-19.4,3.7-26.9,10.5c-4,3.7-8.5,13.7-12.3,27.4
					c-0.7,2.7-3.1,4.5-5.8,4.5c-2.8,0-5.1-1.8-5.8-4.5c-3.8-13.7-8.3-23.6-12.4-27.4c-7.4-6.7-16.9-10.4-26.9-10.4h-133.5v397.6
					h65.3V352.5c0-22.2,18.1-40.3,40.3-40.3c1.8,0,3.6,0.1,5.3,0.3c20,2.6,35.1,20.3,35.1,41.2v303.1h65.1V352.5
					c0-22.2,18.1-40.3,40.3-40.3c1.8,0,3.6,0.1,5.3,0.3c20,2.6,35.1,20.3,35.1,41.2V657H3800.4z"/>
				<path class="st2" d="M3760.4,230.8c37.9,0,68.6,30.7,68.6,68.6v386h-122.3v-333c0-6.6-5.3-11.8-11.8-11.8
					c-6.6,0-11.8,5.3-11.8,11.8v333.1h-122.3v-333c0-6.6-5.3-11.8-11.8-11.8c-6.6,0-11.8,5.3-11.8,11.8v332.9h-122.3V230.8h162
					c17.3,0,33.1,6.5,45.2,17c12.1-10.5,27.8-17,45.2-17H3760.4 M3621.9,296.6c-0.4,0-0.9-0.3-1-0.8c-2.1-7.6-7.1-23.6-13.8-29.7
					c-8-7.3-18.6-11.7-30.2-11.7h-138.4v407.6h75.3V352.5c0-19.5,15.8-35.3,35.3-35.3c1.5,0,3.1,0.1,4.7,0.3
					c17.9,2.3,30.7,18.3,30.7,36.3v308.1h75.1V352.5c0-19.5,15.8-35.3,35.3-35.3c1.5,0,3.1,0.1,4.7,0.3
					c17.9,2.3,30.7,18.3,30.7,36.3V662h75.3h-0.1V299.4c0-24.9-20.2-45.1-45.1-45.1h-93.4c-11.6,0-22.2,4.5-30.2,11.7
					c-6.8,6.3-11.6,22.2-13.7,29.7C3622.8,296.3,3622.4,296.6,3621.9,296.6 M3760.4,220.9H3667c-16.1,0-31.9,5-45.1,14.3
					c-13.2-9.3-28.9-14.3-45.2-14.3h-162h-9.9v9.9v454.6v9.9h9.9h122.3h9.9v-9.9V352.6c0-1.1,0.8-1.9,1.9-1.9s1.9,0.8,1.9,1.9v333
					v9.9h9.9h122.3h9.9v-9.9V352.5c0-1.1,0.8-1.9,1.9-1.9c1.1,0,1.9,0.8,1.9,1.9v333v9.9h9.9h122.3h9.9v-9.9v-386
					C3839,256.1,3803.8,220.9,3760.4,220.9L3760.4,220.9z M3643.4,273.4c6.6-5.9,14.9-9.1,23.5-9.1h93.4c19.4,0,35.1,15.7,35.1,35.1
					V652h-55.3V353.8c0-23.4-16.9-43.3-39.4-46.2c-2-0.3-4-0.4-5.9-0.4c-12.1,0-23.4,4.7-32,13.3c-8.5,8.6-13.2,19.9-13.2,32v299.5
					h-55.2V353.8c0-23.4-16.9-43.3-39.4-46.2c-2-0.3-4-0.4-5.9-0.4c-12.1,0-23.4,4.7-32,13.3c-8.5,8.6-13.2,19.9-13.2,32v299.5
					h-55.4V264.3h128.5c8.7,0,17.1,3.2,23.5,9.1c2.5,2.3,6.8,10.2,10.9,25c1.3,4.8,5.7,8.1,10.6,8.1c5,0,9.3-3.4,10.6-8.2
					C3636.7,283.7,3640.8,275.8,3643.4,273.4L3643.4,273.4z"/>
			</g>
		</g>
		<g>
			<path class="st0" d="M2820.5,662c24.9,0,45.1-20.2,45.1-45.1v-89.2l0,0v-10.4c0-15-7.5-29-20-37.5l-115.4-77.3l-10.4-7V383v-30.5
				c0-10.3,4.6-20.2,12.4-26.9c6.5-5.5,14.5-8.4,22.9-8.4c1.9,0,3.8,0.1,5.8,0.5c17.1,2.8,29.5,17.7,29.5,35.4v12.5l75.2,50.5V299.7
				c0-24.9-20.2-45.1-45.1-45.1h-130.9c-24.9,0-45.1,20.2-45.1,45.1v99.8c0,15,7.5,29,20,37.5l115.4,77.3l10.4,7v12.5v30.5
				c0,10.3-4.6,20.2-12.4,26.9c-6.5,5.5-14.5,8.4-22.9,8.4c-1.9,0-3.8-0.2-5.8-0.5c-17.1-2.8-29.5-17.7-29.5-35.4V551l-75.3-50.5
				V617c0,24.9,20.2,45.1,45.1,45.1L2820.5,662L2820.5,662z"/>
			<path class="st0" d="M2237.4,662c24.9,0,45.1-20.2,45.1-45.1v-89.2l0,0v-10.4c0-15-7.5-29-20-37.5l-115.4-77.3l-10.4-7V383v-30.5
				c0-10.3,4.6-20.2,12.4-26.9c6.5-5.5,14.5-8.4,22.9-8.4c1.9,0,3.8,0.1,5.8,0.5c17.1,2.8,29.5,17.7,29.5,35.4v12.5l75.2,50.5V299.7
				c0-24.9-20.2-45.1-45.1-45.1h-130.9c-24.9,0-45.1,20.2-45.1,45.1v99.8c0,15,7.5,29,20,37.5l115.4,77.3l10.4,7v12.5v30.5
				c0,10.3-4.6,20.2-12.4,26.9c-6.5,5.5-14.5,8.4-22.9,8.4c-1.9,0-3.8-0.2-5.8-0.5c-17.1-2.8-29.5-17.7-29.5-35.4V551l-75.3-50.5
				V617c0,24.9,20.2,45.1,45.1,45.1L2237.4,662L2237.4,662z"/>
			<path class="st0" d="M2572.7,616.8V254.3h-75.3v175.6v23.6h-23.6h-23.5h-23.6v-23.6V254.3h-75.3v140.3v65.9v23
				c0,24.9,20.2,45.1,45.1,45.1h77.2h23.6v23.6v23.5v23.6h-23.6H2375v62.7h152.5C2552.5,662,2572.7,641.7,2572.7,616.8z"/>
			<polygon class="st0" points="1736.9,662 1812.2,662 1812.2,525.8 1744.6,458.2 1812.2,390.5 1812.2,254.3 1736.9,254.3 
				1736.9,359.1 1666.4,429.7 1666.4,254.3 1591.1,254.3 1591.1,662 1666.4,662 1666.4,486.5 1736.9,557.2 			"/>
			<rect x="1155.6" y="254.3" class="st0" width="75.3" height="407.6"/>
			<path class="st0" d="M1478.7,662c24.9,0,45.1-20.2,45.1-45.1v-89.2l0,0v-10.4c0-15-7.5-29-20-37.5l-115.4-77.3l-10.4-7V383v-30.5
				c0-10.3,4.6-20.2,12.4-26.9c6.5-5.5,14.5-8.4,22.9-8.4c1.9,0,3.8,0.1,5.8,0.5c17.1,2.8,29.5,17.7,29.5,35.4v12.5l75.3,50.5V299.7
				c0-24.9-20.2-45.1-45.1-45.1h-130.9c-24.9,0-45.1,20.2-45.1,45.1v99.8c0,15,7.5,29,20,37.5l115.4,77.3l10.4,7v12.5v30.5
				c0,10.3-4.6,20.2-12.4,26.9c-6.5,5.5-14.5,8.4-22.9,8.4c-1.9,0-3.8-0.2-5.8-0.5c-17.1-2.8-29.5-17.7-29.5-35.4V551l-75.3-50.5
				V617c0,24.9,20.2,45.1,45.1,45.1L1478.7,662L1478.7,662z"/>
			<path class="st0" d="M1077.7,616.8V299.5c0-24.9-20.2-45.1-45.1-45.1h-176V662h175.9C1057.4,662,1077.7,641.7,1077.7,616.8z
				 M1002.4,561c0,21.1-17.1,38.2-38.2,38.2h-32.3V317.2h32.3c21.1,0,38.2,17.1,38.2,38.2V561L1002.4,561z"/>
			<path class="st0" d="M3730.3,353.8V662h75.3V299.5c0-24.9-20.2-45.1-45.1-45.1h-93.4c-11.6,0-22.3,4.5-30.2,11.7
				c-6.9,6.2-11.7,22.1-13.7,29.7c-0.3,1.1-1.8,1.1-2.1,0c-2.1-7.6-7.1-23.6-13.8-29.7c-8.1-7.3-18.6-11.7-30.2-11.7h-138.4V662
				h75.3V352.5c0-21,18.4-37.8,40-35c17.8,2.3,30.7,18.3,30.7,36.3V662h75.3V352.5c0-21,18.4-37.8,40-35
				C3717.4,319.8,3730.3,335.8,3730.3,353.8z"/>
			<polygon class="st0" points="2993,662 3068.3,662 3068.3,317.2 3127.8,317.2 3127.8,254.3 2933.6,254.3 2933.6,317.2 2993,317.2 
							"/>
			<polygon class="st0" points="3360,599.2 3270.3,599.2 3270.3,489.5 3360,489.5 3360,426.8 3270.3,426.8 3270.3,317.2 3360,317.2 
				3360,254.3 3195.1,254.3 3195.1,662 3360,662 			"/>
		</g>
		<g>
			<g>
				<path d="M1525.8,182.8c-48.5-0.5-87.7-40.4-87.3-89c-0.3-48.4,38.8-88.3,87.3-88.9c32.8,0.1,62.3,18.3,77.2,47.5l0.1,0.1
					l1.2,2.8c14.1-29.3,44-49.7,78.6-50.2c23,0.1,44.7,8.9,61.1,25c14.3,14.1,23.2,32.3,25.6,52V6.1h43.3l1.3,3
					c0.4,0.9,32.8,75.5,45,103.5c12.1-28,44.4-102.6,44.8-103.5l1.3-3h43.3v0.1h58.3c26.8,0.5,48.9,18.6,55.3,43.2V6.1h41.2v117.3
					c0.1,8.8,7.5,16.1,16.4,16.1l0.3,0c9.1-0.2,16.3-7.7,16.2-16.7l0-116.6h36.4l3.8,0.9V6.2h94V6.1h93.3v0.1h5l66.7-0.1
					c24,0.8,44.9,15.8,53.3,38.2c10.9,29.2-3.1,61.8-31.1,74.3c6.7,11.2,23.2,39.1,32.8,55.3l4.5,7.5h-46.7l-1.4-2.4
					c-0.4-0.6-27.5-46.4-42.3-71.2V182h-41.2v-0.7h-92.8V47.8h-25.9v133.6h-41.2V47.8h-26v76.5c-0.3,15.3-6.4,29.6-17.2,40.3
					c-10.8,10.7-25.2,16.5-40.4,16.5c0,0-0.7,0-1,0c-15.4-0.3-29.8-6.5-40.5-17.5c-10.7-11-16.5-25.6-16.2-41V79.3
					c-2.5,9.5-7.4,18.2-14.3,25.4c-10.8,11.2-25.3,17.5-40.9,17.8l-17.4,0v58.9h-82.1v-72c-5,11.5-13.9,32-30,69l-1.3,3h-34.3
					l-31.3-72.2v72.2h-41.1v-78.3c-2.2,18.7-10.4,36.2-23.7,50c-16.2,16.8-37.9,26.3-61.2,26.8c-0.6,0-1.1,0-1.7,0c0,0,0,0,0,0
					c-23,0-44.6-8.9-61.1-24.9c-7.1-6.9-12.9-14.9-17.2-23.6l-1.6,3.6l-0.1,0.1C1588.1,164.5,1558.6,182.7,1525.8,182.8
					L1525.8,182.8z M1682.8,47.7c-25.7,0-47.1,20.9-47.6,46.7c-0.2,26.5,21.2,48.4,47.7,48.6c12.5,0,24.3-4.8,33.3-13.6
					c9-8.8,14-20.5,14.3-33.1c0.3-12.7-4.4-24.8-13.3-34c-8.8-9.2-20.7-14.4-33.4-14.7C1683.5,47.7,1683.1,47.7,1682.8,47.7z
					 M1525.9,45.2c-25.9,0.7-46.7,21.5-47.4,47.5c-0.3,13,4.4,25.4,13.4,34.8c9,9.4,21,14.8,34,15.2c12.5-0.1,24.3-5,33.2-13.9
					l1.5-1.4h42.1c-4.4-10.3-6.9-21.4-7.1-32.9c-0.1-12,2.2-23.5,6.5-34l-41.9-0.1l-1.5-1.5C1550.1,50.1,1538.1,45.2,1525.9,45.2z
					 M2363.2,139.5v-23.2h-51.6v23.2H2363.2z M2435.1,81.8c9-0.3,16.2-7.8,16.1-16.8l0-0.1c0.1-9.2-7-16.6-16.1-17h-1.9l-28.8,0.1
					v33.8H2435.1z M2006.7,80.8c8.8-0.2,16-7.2,16.1-16.1c0.1-4.4-1.6-8.6-4.6-11.8c-3.1-3.2-7.2-5-11.6-5.1l-17.2,0v32.9H2006.7z
					 M2363.2,74.6V47.7h-51.6v26.9H2363.2z M1338.3,181.5l0.1-67.5l-49.4-97.9v123.6h42.2v41.8h-122.5v-0.1h-40.7v-72.1l-31.4,72.1
					h-34.3c0,0-21.3-49.1-31.4-72.1v72.2h-80.7v-26h-48.2c-3.7,5.4-17.8,26-17.8,26h-47.4l44.9-65.1h-47.1v65.1h-41.7V6.2h95.6v40.4
					h-53.9v28.1h53.9v31.7L997.6,6.1h32.6v0.1h42.9l46.3,106.4c12.1-28,44.4-102.5,44.8-103.4l1.3-3h162.6l1.4,2.7
					c8.4,16.4,22.4,43.7,29.5,57.6c7.8-15.4,23.7-46.2,29.5-57.6l1.4-2.7h44.2l-3.6,7.2c0,0-12.8,25.4-25.6,50.8
					c-6.4,12.7-12.8,25.4-17.6,34.9c-2.4,4.8-4.4,8.7-5.8,11.5c-0.7,1.4-1.7,3.3-1.7,3.3l-0.1,67.6H1338.3z M990.3,115.9v-31
					l-21.2,31H990.3z"/>
				<path class="st2" d="M1525.9,9.9c30.7,0.1,58.8,17.4,72.7,44.8l0.3,0.7l-36.6-0.1c-9.6-9.6-22.8-15.1-36.4-15.1
					c-28.5,0.7-51.5,23.8-52.3,52.3c-0.8,29.6,22.7,54.3,52.3,55.1c13.8-0.1,27-5.6,36.8-15.3h36.2l-0.3,0.7
					c-13.9,27.4-42,44.8-72.7,44.9c-45.9-0.5-82.7-38.1-82.3-83.9C1443.2,47.9,1480,10.4,1525.9,9.9 M1682.9,10.2
					c44.8,0.1,81.4,35.9,82.2,80.8c0.9,45.5-35.2,83-80.7,83.9c-0.6,0-1.1,0-1.7,0c-44.7,0-81.4-35.8-82.3-80.7
					C1600.1,48.4,1636.9,10.8,1682.9,10.2 M1682.8,148c28.6,0,52-22.9,52.6-51.5c0.6-29-22.5-53.1-51.5-53.7c-0.4,0-0.7,0-1.1,0
					c-28.5,0-52,22.9-52.6,51.5C1630,123.6,1653.5,147.7,1682.8,148 M2435.2,11c21.9,0.7,41.2,14.5,48.8,35
					c10.3,27.8-3.8,58.9-31.6,69.3c0,0-1.4,0.6-2.1,0.8c0.5,0.9,35.7,60.3,35.7,60.3h-35.1c0,0-49.9-84.1-51.5-86.7V177h-31.2V11.1
					h0.5L2435.2,11 M2399.4,86.7h35.8c11.8-0.3,21.2-10,21-21.9c0.1-11.8-9.1-21.6-21-22h-2l-33.8,0.1V86.7 M2358.7,11v31.7h-52.1
					v36.8h52.1v31.8h-52.1v33.1h52.1v31.8h-83.3V11H2358.7 M2172,11l0.4,0.1v111.5c0,0.6,0,1.1,0,1.7c-0.5,28.8-23.9,51.8-52.6,51.8
					c-0.3,0-0.6,0-0.9,0c-29.1-0.5-52.3-24.4-51.8-53.5V11h31.2v111.7c0,0.2,0,0.4,0,0.6c0.2,11.7,9.8,21.1,21.4,21.1
					c0.1,0,0.2,0,0.4,0c11.7-0.2,21.3-9.9,21.1-21.8V11H2172 M1943.6,11v165.4h-31.1V94.2c-0.5-0.1-3-0.7-3.5-0.8
					c-0.2,0.7-36,83-36,83h-27.7l-36.1-83.1c-0.5,0.1-3,0.7-3.5,0.8v82.3h-31.1V11h35.1c0,0,48.7,112.2,49.5,114
					c0.8-1.8,49.3-114,49.3-114h34.8H1943.6 M1025.3,11v165.4h-30v-26h-55.8c-0.2,0.3-17.8,26-17.8,26h-35.3L1000.2,11h24.6H1025.3
					 M959.8,120.8h35.5v-52L961.6,118C961.6,118,960.3,119.9,959.8,120.8 M2266.6,11.1v31.7h-27.1v133.6h-31.2V42.9h-27V11.1h84.7
					H2266.6 M2006.8,11.1c28.6,0.5,51.7,23.6,52.2,52.2c0.6,29.3-22.8,53.6-52.2,54.2h-22.3v58.9h-31.2V11.1h0.4H2006.8
					 M1984.4,85.7h22.3c11.5-0.2,20.9-9.4,21.1-21c0.2-11.8-9.2-21.7-21.1-21.9h-22.3V85.7 M1426,11.1c0,0-51.2,101.5-51.3,101.5
					l-0.1,63.9h-31.3l0.1-63.8L1292,11.1h33c0,0,33.1,64.7,33.9,66.2c0.7-1.6,33.9-66.2,33.9-66.2H1426 M1284,11.1v133.5h42.2v31.8
					h-73.4V11.1h30.7H1284 M1243.2,11.1v165.3h-29.6V11.1h29.2H1243.2 M1204,11.1v165.2h-31.1V94.1c-0.5-0.1-3-0.7-3.5-0.8l-36.1,83
					h-27.7c0,0-35.8-82.3-36.1-83c-0.5,0.1-3,0.7-3.5,0.8v82.3h-31.1V11.1h35.1l49.5,113.9c0.8-1.8,49.3-113.9,49.3-113.9h34.8H1204
					 M923.5,11.1v30.4h-53.9v38.1h53.9v31.6h-53.9v65.1h-31.7V11.1h85.2H923.5 M1525.8,0L1525.8,0c-24.9,0.3-48.1,10.2-65.5,27.9
					c-17.4,17.7-26.9,41.1-26.7,66c-0.2,24.8,9.3,48.2,26.6,65.9c17.4,17.8,40.7,27.7,65.5,27.9l0.1,0l0.1,0
					c16.9-0.1,33.4-4.8,47.9-13.7c12.9-8,23.6-19,31.2-32c3.8,5.9,8.3,11.5,13.4,16.5c17.4,17,40.3,26.3,64.5,26.3
					c0.6,0,1.2,0,1.8,0c24.6-0.5,47.6-10.5,64.7-28.3c6.1-6.3,11.2-13.4,15.2-21v40.8v9.9h9.9h31.1h9.9v-9.9v-43.3l20.5,47.2l2.6,6
					h6.5h27.7h6.5l2.6-6c8.7-20.1,15.4-35.4,20.4-47v43v9.9h9.9h31.1h9.9h31h9.9v-9.9v-48.9h12.3h0.1l0.1,0
					c16.9-0.3,32.6-7.2,44.3-19.4c2.1-2.2,4-4.5,5.8-6.9v21.3c-0.3,16.7,6,32.5,17.6,44.5c11.6,12,27.2,18.7,44,19
					c0.4,0,0.7,0,1.1,0c16.5,0,32.1-6.4,43.9-18c11.8-11.6,18.4-27.1,18.7-43.6l0-0.1v-0.1v-1.7V52.8h16v123.6v9.9h9.9h31.2h9.9
					v-9.9V52.8h15.9v123.5v9.9h9.9h82.8v0.7h9.9h31.2h9.9V177v-51.1c11.5,19.4,25.5,43,33,55.6l2.9,4.9h5.7h35.1h17.5l-8.9-15
					c-6.9-11.7-21.9-36.9-30-50.7c27.1-15.1,39.9-48.2,28.8-78.1c-9.1-24.4-31.8-40.7-57.8-41.5l-0.2,0l-0.2,0l-66.5,0.1V1.1h-9.9
					h-83.3h-9.9v0.1h-84h-7.7l-0.4-0.1h-1.2h-30.8h-9.9V11v111.6v0.1l0,0.1c0.1,6.3-5,11.6-11.3,11.7l-0.2,0
					c-6.2,0-11.3-5-11.5-11.2v-0.5V11V1.1h-9.9h-31.2h-9.9V11v16.4c-2-2.7-4.2-5.4-6.6-7.8C2038.9,8,2023.4,1.5,2007,1.2l-0.1,0
					h-0.1h-53.1h-0.2V1.1h-9.9h-0.3h-34.8h-6.5l-2.6,6c-11.3,26-29.4,67.9-40.2,92.9c-10.9-25.1-29.1-66.9-40.4-93l-2.6-6h-6.5
					h-35.1h-9.9V11v38.7c-4.4-8.4-10.2-16.1-17.1-23c-17.3-17-40.2-26.4-64.5-26.4l-0.1,0l-0.1,0c-24.9,0.3-48.1,10.3-65.5,28
					c-4.9,5-9.2,10.5-12.8,16.4c-7.6-12.7-18.1-23.3-30.7-31.1C1559.3,4.8,1542.8,0.1,1525.8,0L1525.8,0L1525.8,0z M1526,137.6
					c-24.1-0.7-43.1-20.8-42.5-44.9c0.6-23.3,19.3-42,42.5-42.6c10.9,0,21.5,4.5,29.3,12.2l2.9,2.9l4.1,0l32.7,0.1
					c-2.9,9.3-4.4,19-4.3,29l0,0.1l0,0.1c0.2,9.6,1.8,19,4.8,27.9h-32.8h-4.1l-2.9,2.9C1547.7,133.1,1537.1,137.5,1526,137.6
					L1526,137.6z M1640.1,94.4c0.3-11.2,4.8-21.7,12.8-29.5c8-7.9,18.6-12.2,29.8-12.2c0.3,0,0.6,0,0.9,0
					c23.5,0.5,42.3,20,41.8,43.6c-0.2,11.2-4.8,21.7-12.8,29.6c-8,7.8-18.6,12.2-29.8,12.2C1659.1,137.8,1640,118.2,1640.1,94.4
					L1640.1,94.4z M2316.5,52.7h41.7v16.9h-41.7V52.7L2316.5,52.7z M2409.3,52.9l23.9-0.1l1.8,0c6.4,0.3,11.3,5.5,11.2,12l0,0.1
					l0,0.1c0.1,6.3-4.9,11.6-11.2,11.8h-25.7V52.9L2409.3,52.9z M1994.4,52.8h12.2c3,0.1,5.9,1.3,8,3.5c2.1,2.2,3.3,5.2,3.3,8.2
					c-0.1,6.2-5,11.1-11.2,11.2h-12.2V52.8L1994.4,52.8z M2316.5,121.3h41.7v13.2h-41.7V121.3L2316.5,121.3z M1035.2,1.1h-9.9h-0.5
					h-24.6H995l-3,4.3l-58.5,85V79.7v-9.9h-9.9h-44V51.5h44h9.9v-9.9V11.1V1.2h-9.9h-0.4h-85.2H828v9.9v165.3v9.9h9.9h29.5h18.9
					h35.3h5.2l3-4.3c5.3-7.7,11.3-16.5,14.8-21.6h40.6v16v9.9h9.9h30h9.9h30.7h9.9v-9.9v-43.3c8.9,20.4,18.6,42.8,20.5,47.2l2.6,6
					h6.5h27.7h6.5l2.6-6l20.5-47.2v43.2v9.9h9.9h30.7v0.1h9.9h29.2h9.9h73.4h7.1l0,0.1h10h31.3h9.9l0-9.9l0.1-61.4
					c0.3-0.6,0.7-1.4,1.2-2.3c1.4-2.8,3.4-6.8,5.8-11.5c4.8-9.5,11.2-22.2,17.6-34.9c12.8-25.4,25.6-50.8,25.6-50.8l7.3-14.4H1426
					h-33.1h-6.1l-2.8,5.4c-8.6,16.8-18.3,35.6-25.1,48.9c-8-15.6-19.4-37.8-25-48.9l-2.8-5.4h-6.1h-31.1h-9.9h-0.5h-30.3h-9.9h-0.4
					H1214h-9.9h-0.4h-34.8h-6.5l-2.6,6c-11.3,26-29.4,67.8-40.2,92.9l-40.4-92.9l-2.6-6h-6.5L1035.2,1.1L1035.2,1.1L1035.2,1.1z
					 M1293.9,134.7V36.9l39.5,78.2l0,19.5h-7.2H1293.9L1293.9,134.7z M978.5,110.9l6.8-9.9v9.9H978.5L978.5,110.9z M879.6,121.2
					h32.7l-32.7,47.5V121.2L879.6,121.2z"/>
			</g>
		</g>
	</g>
	<g>
		<g>
			<g>
				<path class="st0" d="M670.5,510.3v-12.9l10.8-7c31.1-19.9,49.7-53.6,49.7-90.2S712.5,330,681.4,310l-10.8-7v-12.9V77.5
					c0-23.6-19.2-42.9-42.8-42.9H136.9C113.3,34.6,94,53.8,94,77.5v212.7v12.9l-10.8,7C52,330,33.5,363.7,33.5,400.3
					s18.6,70.2,49.6,90.2l10.8,7v12.9v46.4v22l-22.1,1.4c-21.6,1.4-38.4,19.2-38.4,40.7c0,22.7,18.4,41.1,41,41.1h218.4
					c10.4-39.6,46.5-68.8,89.3-68.8s79,29.2,89.3,68.8h218.4c22.7,0,41-18.4,41-41.1c0-21.5-16.9-39.3-38.5-40.7l-22.1-1.4v-22.2
					L670.5,510.3L670.5,510.3z"/>
			</g>
			<g>
				<g>
					<g>
						<path d="M526.5,162.2c28.6,0,55.6,11.1,75.8,31.4c20.3,20.3,31.4,47.1,31.4,75.9c0,28.6-11.1,55.6-31.4,75.8
							c-20.3,20.3-47.2,31.4-75.8,31.4c-28.5,0-55.6-11.1-75.8-31.4c-20.3-20.3-31.4-47.2-31.4-75.8c0-28.6,11.1-55.6,31.4-75.9
							C470.9,173.4,497.9,162.2,526.5,162.2 M526.5,138.6c-72.2,0-130.8,58.6-130.8,130.8s58.6,130.8,130.8,130.8
							c72.2,0,130.9-58.6,130.9-130.8S598.8,138.6,526.5,138.6L526.5,138.6z"/>
					</g>
				</g>
				<g>
					<circle cx="437.9" cy="269.4" r="31.6"/>
				</g>
			</g>
			<g>
				<g>
					<g>
						<path d="M238.1,162.2c28.6,0,55.6,11.1,75.8,31.4c20.3,20.3,31.4,47.1,31.4,75.9c0,28.6-11.1,55.6-31.4,75.8
							c-20.3,20.3-47.2,31.4-75.8,31.4s-55.6-11.1-75.8-31.4c-20.3-20.3-31.4-47.2-31.4-75.8c0-28.6,11.1-55.6,31.4-75.9
							C182.5,173.4,209.5,162.2,238.1,162.2 M238.1,138.6c-72.2,0-130.8,58.6-130.8,130.8s58.6,130.8,130.8,130.8
							s130.8-58.6,130.8-130.8S310.3,138.6,238.1,138.6L238.1,138.6z"/>
					</g>
				</g>
				<g>
					<circle cx="326.7" cy="269.4" r="31.6"/>
				</g>
			</g>
			<g>
				<path d="M693.9,556.8v-46.4c36.3-23.3,60.6-63.7,60.6-110c0-46.3-24.2-86.8-60.6-110V77.5c0.2-36.7-29.5-66.4-66.1-66.4H136.9
					c-36.7,0-66.4,29.7-66.4,66.4v212.7C34.2,313.5,9.9,354,9.9,400.2c0,46.3,24.3,86.8,60.6,110v46.4
					c-33.8,2.2-60.6,29.9-60.6,64.2c0,35.7,28.9,64.6,64.5,64.6h238.9c0-38,30.8-68.8,68.8-68.8c38,0,68.8,30.8,68.8,68.8h238.9
					c35.7,0,64.5-28.9,64.5-64.6C754.5,586.6,727.7,558.8,693.9,556.8z M690.1,662H471.6c-10.4-39.6-46.5-68.8-89.3-68.8
					s-79,29.2-89.3,68.8H74.5c-22.7,0-41-18.4-41-41.1c0-21.5,16.9-39.3,38.4-40.7l22.1-1.4v-22.2v-46.4v-12.9l-10.8-7
					c-31.1-19.9-49.6-53.6-49.6-90.2c0-36.6,18.6-70.2,49.6-90.2l10.8-7V290V77.5c0-23.6,19.2-42.9,42.9-42.9h490.9
					c23.6,0,42.8,19.2,42.8,42.9v212.7v12.9l10.8,7c31.1,19.9,49.7,53.6,49.7,90.2s-18.6,70.2-49.7,90.2l-10.8,7v12.9v46.4v22
					l22.1,1.4c21.6,1.4,38.5,19.2,38.5,40.7C731.1,643.6,712.7,662,690.1,662z"/>
			</g>
		</g>
		<g>
			<g>
				<path d="M1032.6,230.8H833.1v454.6h199.5c37.9,0,68.6-30.7,68.6-68.6V299.5C1101.2,261.6,1070.4,230.8,1032.6,230.8z
					 M1077.7,616.8c0,24.9-20.2,45.1-45.1,45.1h-176V254.3h175.9c24.9,0,45.1,20.2,45.1,45.1L1077.7,616.8L1077.7,616.8z"/>
			</g>
			<g>
				<path d="M1517,460.1l-115.4-77.3v-30.5c0-7.2,6.4-12.8,13.7-11.5c5.8,1,9.7,6.4,9.7,12.2v17.9v7.1l122.3,82.2V299.4
					c0-37.9-30.7-68.6-68.6-68.6h-130.9c-37.9,0-68.6,30.7-68.6,68.6v99.8c0,22.9,11.4,44.3,30.4,57l115.4,77.3v30.5
					c0,7.2-6.4,12.7-13.7,11.5c-5.8-0.9-9.7-6.4-9.7-12.2v-17.9v-7.1l-122.3-82.2v160.7c0,37.9,30.7,68.6,68.6,68.6h130.9
					c37.9,0,68.6-30.7,68.6-68.6v-89.2v22v-32.4C1547.4,494.2,1536,472.8,1517,460.1z M1523.9,527.6L1523.9,527.6v89.2
					c0,24.9-20.2,45.1-45.1,45.1h-130.9c-24.9,0-45.1-20.2-45.1-45.1V500.4l75.3,50.5v12.5c0,17.7,12.4,32.6,29.5,35.4
					c1.9,0.3,3.8,0.5,5.8,0.5c8.4,0,16.4-3,22.9-8.4c7.9-6.8,12.4-16.5,12.4-26.9v-30.5V521l-10.4-7L1323,436.8
					c-12.5-8.4-20-22.4-20-37.5v-99.9c0-24.9,20.2-45.1,45.1-45.1h130.9c24.9,0,45.1,20.2,45.1,45.1V416l-75.3-50.5V353
					c0-17.8-12.4-32.6-29.5-35.4c-1.9-0.3-3.8-0.5-5.8-0.5c-8.4,0-16.4,3-22.9,8.4c-7.9,6.8-12.4,16.5-12.4,26.9v30.5v12.5l10.4,7
					l115.4,77.3c12.5,8.4,20,22.4,20,37.5V527.6L1523.9,527.6z"/>
			</g>
			<g>
				<path d="M2858.8,460.1l-115.4-77.3v-30.5c0-7.2,6.4-12.8,13.7-11.5c5.8,1,9.7,6.4,9.7,12.2v17.9v7.1l122.3,82.2V299.4
					c0-37.9-30.7-68.6-68.6-68.6h-130.9c-37.9,0-68.6,30.7-68.6,68.6v99.8c0,22.9,11.4,44.3,30.4,57l115.4,77.3v30.5
					c0,7.2-6.4,12.7-13.7,11.5c-5.8-0.9-9.7-6.4-9.7-12.2v-17.9v-7.1l-122.3-82.2v160.7c0,37.9,30.7,68.6,68.6,68.6h130.9
					c37.9,0,68.6-30.7,68.6-68.6v-89.2v22v-32.4C2889.1,494.2,2877.8,472.8,2858.8,460.1z M2865.6,527.6L2865.6,527.6v89.2
					c0,24.9-20.2,45.1-45.1,45.1h-130.9c-24.9,0-45.1-20.2-45.1-45.1V500.4l75.3,50.5v12.5c0,17.7,12.4,32.6,29.5,35.4
					c1.9,0.3,3.9,0.5,5.8,0.5c8.4,0,16.4-3,22.9-8.4c7.9-6.8,12.4-16.5,12.4-26.9v-30.5V521l-10.4-7l-115.4-77.3
					c-12.5-8.4-20-22.4-20-37.5v-99.9c0-24.9,20.2-45.1,45.1-45.1h130.9c24.9,0,45.1,20.2,45.1,45.1V416l-75.2-50.5V353
					c0-17.8-12.4-32.6-29.5-35.4c-1.9-0.3-3.9-0.5-5.8-0.5c-8.4,0-16.4,3-22.9,8.4c-7.9,6.8-12.4,16.5-12.4,26.9v30.5v12.5l10.4,7
					l115.4,77.3c12.5,8.4,20,22.4,20,37.5L2865.6,527.6L2865.6,527.6z"/>
			</g>
			<g>
				<path d="M2275.6,460.1l-115.4-77.3v-30.5c0-7.2,6.4-12.8,13.7-11.5c5.8,1,9.7,6.4,9.7,12.2v17.9v7.1l122.3,82.2V299.4
					c0-37.9-30.7-68.6-68.6-68.6h-130.9c-37.9,0-68.6,30.7-68.6,68.6v99.8c0,22.9,11.4,44.3,30.4,57l115.4,77.3v30.5
					c0,7.2-6.4,12.7-13.7,11.5c-5.8-0.9-9.7-6.4-9.7-12.2v-17.9v-7.1l-122.3-82.2v160.7c0,37.9,30.7,68.6,68.6,68.6h130.9
					c37.9,0,68.6-30.7,68.6-68.6v-89.2v22v-32.4C2306,494.2,2294.5,472.8,2275.6,460.1z M2282.5,527.6L2282.5,527.6v89.2
					c0,24.9-20.2,45.1-45.1,45.1h-131c-24.9,0-45.1-20.2-45.1-45.1V500.4l75.3,50.5v12.5c0,17.7,12.4,32.6,29.5,35.4
					c1.9,0.3,3.9,0.5,5.8,0.5c8.4,0,16.4-3,22.9-8.4c7.9-6.8,12.4-16.5,12.4-26.9v-30.5V521l-10.4-7l-115.4-77.3
					c-12.5-8.4-20-22.4-20-37.5v-99.9c0-24.9,20.2-45.1,45.1-45.1h130.9c24.9,0,45.1,20.2,45.1,45.1V416l-75.2-50.5V353
					c0-17.8-12.4-32.6-29.5-35.4c-1.9-0.3-3.9-0.5-5.8-0.5c-8.4,0-16.4,3-22.9,8.4c-7.9,6.8-12.4,16.5-12.4,26.9v30.5v12.5l10.4,7
					l115.4,77.3c12.5,8.4,20,22.4,20,37.5V527.6L2282.5,527.6z"/>
			</g>
			<g>
				<path d="M1132,230.8v454.6h122.3V230.8H1132z M1230.9,662h-75.3V254.3h75.3V662z"/>
			</g>
			<g>
				<path d="M3091.9,230.8h-122.3H2910v109.9h59.6v344.7h122.3V340.7h59.6V230.8H3091.9z M3127.8,317.2h-59.6V662h-75.3V317.2h-59.6
					v-62.9h194.3L3127.8,317.2L3127.8,317.2z"/>
			</g>
			<g>
				<path d="M964.2,317.2h-32.3v282.1h32.3c21.1,0,38.2-17.1,38.2-38.2V355.4C1002.4,334.4,985.3,317.2,964.2,317.2z M978.9,561
					c0,8.2-6.6,14.7-14.7,14.7h-8.8v-235h8.8c8.2,0,14.7,6.6,14.7,14.7V561z"/>
			</g>
			<g>
				<path d="M1835.7,230.8h-122.3v118.7l-23.5,23.5V230.8h-122.3v454.6h122.3V543.3l23.5,23.5v118.7h122.3V516.1l-57.9-57.9
					l57.9-57.9V230.8z M1812.2,390.5l-67.6,67.6l67.6,67.6v136.2h-75.3V557.1l-70.5-70.5v175.3h-75.3V254.3h75.3v175.3l70.5-70.5
					V254.3h75.3V390.5z"/>
			</g>
			<g>
				<path d="M2474,230.8v199.1h-23.5V230.8h-122.3v163.8v65.9v23c0,37.9,30.7,68.6,68.6,68.6h77.2v23.5h-122.3v109.7h175.9
					c37.9,0,68.6-30.7,68.6-68.6V230.8H2474z M2572.7,616.8c0,24.9-20.2,45.1-45.1,45.1h-152.5v-62.7h98.8h23.6v-23.6v-23.5v-23.6
					H2474h-77.2c-24.9,0-45.1-20.2-45.1-45.1v-23v-65.9V254.3h75.3v175.6v23.6h23.6h23.5h23.6v-23.6V254.3h75.3L2572.7,616.8
					L2572.7,616.8z"/>
			</g>
			<g>
				<path d="M3293.9,340.7h89.7V230.8h-211.9v454.6h211.9V575.8h-89.7v-62.7h89.7V403.2h-89.7V340.7z M3360,426.8v62.9h-89.7v109.7
					h89.7V662h-164.9V254.3H3360v62.9h-89.7v109.6L3360,426.8L3360,426.8z"/>
			</g>
			<g>
				<path d="M3760.4,230.8H3667c-17.3,0-33,6.5-45.2,17c-12-10.5-27.8-17-45.2-17h-162v454.6h122.3V352.6c0-6.6,5.3-11.8,11.8-11.8
					c6.6,0,11.8,5.3,11.8,11.8v333h122.3V352.5c0-6.6,5.3-11.8,11.8-11.8c6.6,0,11.8,5.3,11.8,11.8v333h122.3v-386
					C3829.1,261.6,3798.3,230.8,3760.4,230.8z M3805.5,662h-75.3V353.8c0-18-12.8-34-30.7-36.3c-21.6-2.8-40,14-40,35v309.4h-75.1
					V353.8c0-18-12.8-34-30.7-36.3c-21.6-2.8-40,14-40,35v309.4h-75.3V254.3h138.4c11.6,0,22.3,4.5,30.2,11.7
					c6.8,6.2,11.7,22.2,13.8,29.7c0.3,1.1,1.8,1.1,2.1,0c2.1-7.6,7-23.5,13.7-29.7c8.1-7.3,18.6-11.7,30.2-11.7h93.4
					c24.9,0,45.1,20.2,45.1,45.1L3805.5,662L3805.5,662z"/>
			</g>
		</g>
		<g>
			<path class="st0" d="M2820.5,662c24.9,0,45.1-20.2,45.1-45.1v-89.2l0,0v-10.4c0-15-7.5-29-20-37.5l-115.4-77.3l-10.4-7V383v-30.5
				c0-10.3,4.6-20.2,12.4-26.9c6.5-5.5,14.5-8.4,22.9-8.4c1.9,0,3.8,0.1,5.8,0.5c17.1,2.8,29.5,17.7,29.5,35.4v12.5l75.2,50.5V299.7
				c0-24.9-20.2-45.1-45.1-45.1h-130.9c-24.9,0-45.1,20.2-45.1,45.1v99.8c0,15,7.5,29,20,37.5l115.4,77.3l10.4,7v12.5v30.5
				c0,10.3-4.6,20.2-12.4,26.9c-6.5,5.5-14.5,8.4-22.9,8.4c-1.9,0-3.8-0.2-5.8-0.5c-17.1-2.8-29.5-17.7-29.5-35.4V551l-75.3-50.5
				V617c0,24.9,20.2,45.1,45.1,45.1L2820.5,662L2820.5,662z"/>
			<path class="st0" d="M2237.4,662c24.9,0,45.1-20.2,45.1-45.1v-89.2l0,0v-10.4c0-15-7.5-29-20-37.5l-115.4-77.3l-10.4-7V383v-30.5
				c0-10.3,4.6-20.2,12.4-26.9c6.5-5.5,14.5-8.4,22.9-8.4c1.9,0,3.8,0.1,5.8,0.5c17.1,2.8,29.5,17.7,29.5,35.4v12.5l75.2,50.5V299.7
				c0-24.9-20.2-45.1-45.1-45.1h-130.9c-24.9,0-45.1,20.2-45.1,45.1v99.8c0,15,7.5,29,20,37.5l115.4,77.3l10.4,7v12.5v30.5
				c0,10.3-4.6,20.2-12.4,26.9c-6.5,5.5-14.5,8.4-22.9,8.4c-1.9,0-3.8-0.2-5.8-0.5c-17.1-2.8-29.5-17.7-29.5-35.4V551l-75.3-50.5
				V617c0,24.9,20.2,45.1,45.1,45.1L2237.4,662L2237.4,662z"/>
			<path class="st0" d="M2572.7,616.8V254.3h-75.3v175.6v23.6h-23.6h-23.5h-23.6v-23.6V254.3h-75.3v140.3v65.9v23
				c0,24.9,20.2,45.1,45.1,45.1h77.2h23.6v23.6v23.5v23.6h-23.6H2375v62.7h152.5C2552.5,662,2572.7,641.7,2572.7,616.8z"/>
			<polygon class="st0" points="1736.9,662 1812.2,662 1812.2,525.8 1744.6,458.2 1812.2,390.5 1812.2,254.3 1736.9,254.3 
				1736.9,359.1 1666.4,429.7 1666.4,254.3 1591.1,254.3 1591.1,662 1666.4,662 1666.4,486.5 1736.9,557.2 			"/>
			<rect x="1155.6" y="254.3" class="st0" width="75.3" height="407.6"/>
			<path class="st0" d="M1478.7,662c24.9,0,45.1-20.2,45.1-45.1v-89.2l0,0v-10.4c0-15-7.5-29-20-37.5l-115.4-77.3l-10.4-7V383v-30.5
				c0-10.3,4.6-20.2,12.4-26.9c6.5-5.5,14.5-8.4,22.9-8.4c1.9,0,3.8,0.1,5.8,0.5c17.1,2.8,29.5,17.7,29.5,35.4v12.5l75.3,50.5V299.7
				c0-24.9-20.2-45.1-45.1-45.1h-130.9c-24.9,0-45.1,20.2-45.1,45.1v99.8c0,15,7.5,29,20,37.5l115.4,77.3l10.4,7v12.5v30.5
				c0,10.3-4.6,20.2-12.4,26.9c-6.5,5.5-14.5,8.4-22.9,8.4c-1.9,0-3.8-0.2-5.8-0.5c-17.1-2.8-29.5-17.7-29.5-35.4V551l-75.3-50.5
				V617c0,24.9,20.2,45.1,45.1,45.1L1478.7,662L1478.7,662z"/>
			<path class="st0" d="M1077.7,616.8V299.5c0-24.9-20.2-45.1-45.1-45.1h-176V662h175.9C1057.4,662,1077.7,641.7,1077.7,616.8z
				 M1002.4,561c0,21.1-17.1,38.2-38.2,38.2h-32.3V317.2h32.3c21.1,0,38.2,17.1,38.2,38.2V561L1002.4,561z"/>
			<path class="st0" d="M3730.3,353.8V662h75.3V299.5c0-24.9-20.2-45.1-45.1-45.1h-93.4c-11.6,0-22.3,4.5-30.2,11.7
				c-6.9,6.2-11.7,22.1-13.7,29.7c-0.3,1.1-1.8,1.1-2.1,0c-2.1-7.6-7.1-23.6-13.8-29.7c-8.1-7.3-18.6-11.7-30.2-11.7h-138.4V662
				h75.3V352.5c0-21,18.4-37.8,40-35c17.8,2.3,30.7,18.3,30.7,36.3V662h75.3V352.5c0-21,18.4-37.8,40-35
				C3717.4,319.8,3730.3,335.8,3730.3,353.8z"/>
			<polygon class="st0" points="2993,662 3068.3,662 3068.3,317.2 3127.8,317.2 3127.8,254.3 2933.6,254.3 2933.6,317.2 2993,317.2 
							"/>
			<polygon class="st0" points="3360,599.2 3270.3,599.2 3270.3,489.5 3360,489.5 3360,426.8 3270.3,426.8 3270.3,317.2 3360,317.2 
				3360,254.3 3195.1,254.3 3195.1,662 3360,662 			"/>
		</g>
		<g>
			<g>
				<path d="M1443.5,93.9c-0.4,45.8,36.4,83.4,82.3,83.9c30.7-0.1,58.8-17.5,72.7-44.9l0.3-0.7h-36.2c-9.8,9.7-23,15.2-36.8,15.3
					c-29.6-0.8-53.1-25.5-52.3-55.1c0.8-28.5,23.8-51.6,52.3-52.3c13.6,0,26.8,5.5,36.4,15.1l36.6,0.1l-0.3-0.7
					c-13.9-27.4-42-44.7-72.7-44.8C1480,10.4,1443.2,47.9,1443.5,93.9z M1600.5,94.3c0.9,45.5,38.5,81.6,83.9,80.7
					c45.5-0.9,81.6-38.5,80.7-83.9c-0.9-44.9-37.5-80.7-82.2-80.8C1636.9,10.8,1600.1,48.4,1600.5,94.3L1600.5,94.3z M1630.2,94.3
					c0.6-29,24.7-52.1,53.7-51.5c29,0.6,52.1,24.7,51.5,53.7c-0.6,28.6-24,51.5-52.6,51.5C1653.5,147.7,1630,123.6,1630.2,94.3
					L1630.2,94.3z M2275.4,11v165.3h83.3v-31.8h-52.1v-33.1h52.1V79.6h-52.1V42.8h52.1V11H2275.4z M1024.8,11h-24.6L886.4,176.4
					h35.3c0,0,17.6-25.7,17.8-26h55.8v26h30V11H1024.8L1024.8,11z M961.6,118l33.6-49.1v52h-35.5C960.3,119.9,961.6,118,961.6,118z
					 M1943.3,11h-34.8c0,0-48.5,112.2-49.3,114c-0.8-1.8-49.5-114-49.5-114h-35.1v165.4h31.1V94.1c0.5-0.1,3-0.7,3.5-0.8l36.1,83.1
					h27.7c0,0,35.8-82.3,36-83c0.5,0.1,3,0.7,3.5,0.8v82.3h31.1V11H1943.3L1943.3,11z M2172,11h-30.8v111.6
					c0.2,11.8-9.3,21.6-21.1,21.8c-11.7,0.2-21.6-9.2-21.8-21.1c0-0.2,0-0.4,0-0.6V11h-31.2v111.6c-0.5,29.1,22.7,53,51.8,53.5
					c29.1,0.5,53-22.7,53.5-51.8c0-0.6,0-1.1,0-1.7V11.1L2172,11L2172,11z M2368.6,11.1h-0.5V177h31.2V89.7
					c1.6,2.6,51.5,86.7,51.5,86.7h35.1c0,0-35.2-59.4-35.7-60.3c0.7-0.2,2.1-0.8,2.1-0.8c27.8-10.4,42-41.5,31.6-69.3
					c-7.7-20.5-27-34.3-48.8-35L2368.6,11.1L2368.6,11.1z M2435.2,42.9c11.8,0.4,21.1,10.1,21,22c0.2,11.8-9.1,21.6-21,21.9h-35.8
					V43l33.8-0.1H2435.2z M1953.7,11.1h-0.4v165.3h31.2v-58.9h22.3c29.4-0.6,52.8-24.9,52.2-54.2c-0.5-28.6-23.6-51.7-52.2-52.2
					L1953.7,11.1L1953.7,11.1z M2006.7,42.9c11.8,0.2,21.3,10,21.1,21.9c-0.2,11.5-9.5,20.8-21.1,21h-22.3V42.9H2006.7L2006.7,42.9z
					 M2266.1,11.1h-84.7v31.7h27v133.6h31.2V42.9h27.1V11.1H2266.1L2266.1,11.1z M1392.9,11.1c0,0-33.2,64.6-33.9,66.2
					c-0.8-1.5-33.9-66.2-33.9-66.2h-33l51.3,101.6l-0.1,63.8h31.3l0.1-63.9c0.1,0,51.3-101.5,51.3-101.5H1392.9z M1283.5,11.1h-30.7
					v165.3h73.4v-31.8H1284V11.1H1283.5L1283.5,11.1z M1242.8,11.1h-29.2v165.3h29.6V11.1H1242.8L1242.8,11.1z M1203.6,11.1h-34.8
					c0,0-48.5,112.1-49.3,113.9l-49.5-113.9h-35.1v165.3h31.1V94.1c0.5-0.1,3-0.7,3.5-0.8c0.3,0.7,36.1,83,36.1,83h27.7l36.1-83
					c0.5,0.1,3,0.7,3.5,0.8v82.3h31.1V11.1H1203.6L1203.6,11.1z M923.2,11.1h-85.2v165.3h31.7v-65.1h53.9V79.7h-53.9V41.6h53.9V11.1
					H923.2L923.2,11.1z"/>
			</g>
		</g>
	</g>
</g>
</svg>
