<?xml version="1.0" encoding="utf-8"?>
<!-- Generator: Adobe Illustrator 26.0.3, SVG Export Plug-In . SVG Version: 6.00 Build 0)  -->
<svg version="1.1" id="Layer_1" xmlns="http://www.w3.org/2000/svg" xmlns:xlink="http://www.w3.org/1999/xlink" x="0px" y="0px"
	 viewBox="0 0 3839 1408.5" style="enable-background:new 0 0 3839 1408.5;" xml:space="preserve">
<style type="text/css">
	.st0{display:none;}
	.st1{display:inline;}
	.st2{fill:#FFFFFF;}
	.st3{fill:#FF8C1A;}
	.st4{fill:#FF0000;}
	.st5{fill:#797979;}
	.st6{fill:#A21F2C;}
	.st7{fill:#E41608;}
	.st8{fill:#F05100;}
	.st9{fill:url(#SVGID_1_);}
	.st10{fill:url(#SVGID_00000067218271868055688520000001040064280761572736_);}
	.st11{fill:url(#SVGID_00000011739007609766173360000008205917384544497048_);}
	.st12{fill:url(#SVGID_00000119108616064380383190000012068861724884217233_);}
	.st13{fill:url(#SVGID_00000005979272212347111320000008144384667336061615_);}
	.st14{fill:url(#SVGID_00000083065553864330542480000016996772994225370517_);}
	.st15{fill:url(#SVGID_00000178202344267765500210000002209780354279011242_);}
	.st16{fill:url(#SVGID_00000129893687109909046070000012122991423572337049_);}
	.st17{fill:url(#SVGID_00000029760723259348686040000018036598459082173598_);}
	.st18{fill:url(#SVGID_00000145768891481334695700000006048834191956251562_);}
	.st19{fill:#EB2027;}
	.st20{fill:#00AD9C;}
	.st21{fill:#FBB817;}
	.st22{fill:#0174BA;}
	.st23{fill:url(#SVGID_00000108288574102706807660000016840745959355499936_);}
	.st24{fill:url(#SVGID_00000090272755303755684850000000219263193343066016_);}
	.st25{fill:url(#SVGID_00000132065351543488280700000010977813715930380989_);}
	.st26{fill:url(#SVGID_00000119103976591818991890000009164433392549399981_);}
	.st27{fill:url(#SVGID_00000068665709250432113280000006524460329115453058_);}
	.st28{fill:url(#SVGID_00000096762441401061358470000001024543110938116796_);}
	.st29{fill:url(#SVGID_00000072966778819837230080000015968973325419960743_);}
	.st30{fill:url(#SVGID_00000068661136213508593550000005730332202887933078_);}
	.st31{fill:url(#SVGID_00000153679015488488468760000013301363347354032005_);}
	.st32{fill:url(#SVGID_00000002379197938168501990000016182043660085455755_);}
	.st33{fill:url(#SVGID_00000124153565881299746810000009312990036913944467_);}
	.st34{fill:url(#SVGID_00000105398130151304469420000003119967788411912579_);}
	.st35{fill:url(#SVGID_00000031182097311008196720000017304917100108817324_);}
	.st36{fill:url(#SVGID_00000078738526235581181140000008929181770295441047_);}
	.st37{fill:url(#SVGID_00000142164029979057765330000009430610251278188965_);}
	.st38{fill:url(#SVGID_00000179639315667002413650000007535559484201202565_);}
</style>
<g class="st0">
	<g class="st1">
		<g>
			<path d="M3111.2,775.5c-22.3,0-39.9-6.6-52.2-19.5c-11.5-12.1-17.8-29.5-18.3-50.5l-0.1-5.1h40.6l-0.2,5.2
				c-0.4,11,2.6,20.3,8.4,26.4c5.2,5.4,12.5,8.2,21.7,8.2c18.7,0,30.7-11.1,30.7-28.3c0-18.8-11-26.9-36.9-26.9
				c-2.1,0-4.3,0.1-6.6,0.2l-5.2,0.2v-33.1l5.2,0.2c0.9,0,1.8,0.1,2.8,0.1c10,0,33.3-2.4,33.3-24.4c0-12.6-9.9-21.4-24-21.4
				c-6.9,0-12.6,2.3-17.1,6.9c-5.9,6-9.1,15.5-8.8,26.1l0.1,5.1h-40.7l0.2-5.2c1.8-40.8,28.6-68.3,66.7-68.3
				c31.7,0,63.8,18.9,63.8,54.9c0,17.2-6.8,31.1-19.1,39.4c16.4,8.1,26.5,25.8,26.5,47.8c0,18.1-7.6,34.3-21.4,45.6
				C3147.7,769.7,3130.1,775.5,3111.2,775.5z"/>
			<path class="st2" d="M3110.9,576.3c29.1,0,58.8,16.8,58.8,49.9c0,18.6-8.5,33.6-26.3,40v0.5c21,4.3,33.7,22.7,33.7,46.7
				c0,35.2-30.3,57.1-65.9,57.1c-43.1,0-64.7-26.2-65.5-65.1h30.3c-0.8,22.7,11.4,39.7,35.1,39.7c20.2,0,35.7-12,35.7-33.3
				c0-26.3-20.3-31.9-41.9-31.9c-2.3,0-4.6,0.1-6.8,0.2v-22.7c1,0,2,0.1,3,0.1c19.2,0,38.3-7.6,38.3-29.4c0-15.7-12.3-26.4-29-26.4
				c-21.1,0-31.4,18.9-30.9,38.1h-30.3C3050.8,603.6,3073.4,576.3,3110.9,576.3 M3110.9,566.3c-40.9,0-69.8,29.4-71.7,73.1
				l-0.5,10.4h10.5h30.3h8.6v7.6v22.7v10.5l10.5-0.5c2.2-0.1,4.4-0.2,6.4-0.2c29.4,0,31.9,11.3,31.9,21.9
				c0,21.6-19.7,23.3-25.7,23.3c-7.7,0-13.8-2.2-18.1-6.6c-4.9-5-7.4-13.1-7-22.7l0.4-10.4H3076h-30.3h-10.2l0.2,10.2
				c0.5,22.2,7.3,40.8,19.7,53.8c13.1,13.8,32.5,21.1,55.8,21.1c20.1,0,38.8-6.3,52.6-17.6c15-12.3,23.3-29.9,23.3-49.5
				c0-21-8.5-38.4-22.7-48.4c9.9-9.3,15.3-22.7,15.3-38.8c0-18.3-8-34.4-22.5-45.3C3144.7,571.5,3128.3,566.3,3110.9,566.3
				L3110.9,566.3z M3089.6,647.1l-0.2-7.5c-0.2-9.1,2.5-17.5,7.4-22.4c3.5-3.6,8-5.4,13.5-5.4c9.5,0,19,5.1,19,16.4
				c0,16.8-17.8,19.4-28.3,19.4c-0.8,0-1.7,0-2.6-0.1L3089.6,647.1L3089.6,647.1z"/>
		</g>
		<g>
		</g>
		<g>
			<path d="M1599.1,772.2V571.4h89.1c63.1,0,69.9,44.8,69.9,64.1c0,11.3-2.3,27.7-13,41.1c-11.8,14.8-30.7,22.4-56.2,22.4
				c0,0-46.5,0-46.5,0v73.2H1599.1z M1686.3,661.6c6.7,0,28.4-1.9,28.4-26.5c0-18.3-8.6-26.5-27.8-26.5h-44.5v53H1686.3z"/>
			<path class="st2" d="M1688.2,576.4c54.5,0,64.9,35.2,64.9,59.1c0,23.4-10.3,58.5-64.2,58.5c-0.2,0-0.5,0-0.7,0h-50.8v73.2h-33.3
				V576.4H1688.2 M1637.4,666.6h48.9c15,0,33.4-7.4,33.4-31.5c0-25.1-15.2-31.5-32.8-31.5h-49.5V666.6 M1688.2,566.4h-84.1h-10v10
				v190.8v10h10h33.3h10v-10V704h40.8l0.7,0c27.1,0,47.3-8.2,60.1-24.2c11.6-14.6,14.1-32.1,14.1-44.3c0-12.3-2.5-30.1-14.2-44.8
				C1736,574.6,1715.6,566.4,1688.2,566.4L1688.2,566.4z M1647.4,613.6h39.5c16.6,0,22.8,5.8,22.8,21.5c0,18.7-14.7,21.5-23.4,21.5
				h-38.9V613.6L1647.4,613.6z"/>
		</g>
		<g>
			<rect x="1768.2" y="571.4" width="40.5" height="200.7"/>
			<path class="st2" d="M1803.7,576.4v190.7h-30.5V576.4H1803.7 M1813.7,566.4h-10h-30.5h-10v10v190.7v10h10h30.5h10v-10V576.4
				V566.4L1813.7,566.4z"/>
		</g>
		<g>
			<path d="M1948.4,775.9c-12.9,0-21.6-4.5-25.9-13.3c-11.7,8.4-28.1,13.3-45.5,13.3c-13.9,0-26.7-3.9-36-11.1
				c-10.6-8.2-16.2-20.1-16.2-34.3c0-41.3,37.3-45.7,57.5-48c4.7-0.9,9.2-1.4,13.5-1.9c17.4-2.2,23.5-3.7,23.5-12.6
				c0-9.1-7.9-13.7-23.6-13.7c-10.9,0-24.2,3-25.4,17.3l-0.4,4.6h-40.4l0.3-5.3c2-32.7,26.1-50.7,67.8-50.7
				c27.8,0,60.3,11.8,60.3,45.1v66.1l0.1,5c0,4.2,0.6,5.1,0.7,5.2c0,0,0,0,0,0c0,0,0.4,0.2,1.5,0.2c1.8,0,3.9,0,6.6-0.4l5.8-0.9
				v30.5l-3.3,1.2C1964.4,773.9,1954.2,775.9,1948.4,775.9z M1917.5,705.8c-6.2,2.1-13.3,3-20.2,3.8c-3.8,0.4-7.7,0.9-11.3,1.6
				c-15,2.4-20.8,7.5-20.8,18.1c0,10.3,16.7,12.6,23.1,12.6c11.3,0,29.2-5.8,29.2-21.2V705.8z"/>
			<path class="st2" d="M1897.6,625.2c26.9,0,55.3,11,55.3,40.1v71.1h0.1c0,7.4,1.6,10.4,7.2,10.4c1.9,0,4.3,0,7.4-0.5v21.1
				c-4.5,1.6-14.2,3.5-19.2,3.5c-12.3,0-21.1-4.3-23.5-16.8c-12.1,11.8-31.6,16.8-47.9,16.8c-24.8,0-47.2-13.4-47.2-40.4
				c0-34.4,27.5-40.1,53.2-43c21.8-4,41.3-1.6,41.3-19.5c0-15.7-16.2-18.7-28.6-18.7c-17.1,0-29.1,7-30.4,21.9h-30.5
				C1837,635.6,1867.1,625.2,1897.6,625.2 M1888.3,746.8c13.4,0,34.2-7,34.2-26.2v-22.7c-9.3,6.2-24,5.9-37.4,8.3
				c-13.1,2.1-24.9,6.9-24.9,23C1860.2,742.8,1877.6,746.8,1888.3,746.8 M1897.6,615.2c-44.1,0-70.6,20.2-72.8,55.4l-0.7,10.6h10.6
				h25.4c-6.6,1.7-13,4-18.6,7.4c-14.5,8.7-21.8,22.8-21.8,41.9c0,15.8,6.3,29,18.2,38.2c10.1,7.8,24,12.2,39,12.2
				c16.3,0,31.9-4.1,44-11.4c4.8,6.2,13.1,11.4,27.4,11.4c6.3,0,17.1-2.2,22.6-4.1l6.6-2.4v-7.1v-21.1v-11.7l-11.6,1.9
				c-1.1,0.2-2.1,0.3-3,0.3c0-0.1,0-0.2,0-0.3v-10h-0.1v-61.1c0-16.9-7.7-30.6-22.4-39.5C1929.4,619,1914.1,615.2,1897.6,615.2
				L1897.6,615.2z M1874.7,678.5l0.6-6.4c0.3-3.2,1.1-12.8,20.4-12.8c18.6,0,18.6,6.5,18.6,8.7c0,3.2-0.8,3.6-2.3,4.3
				c-3.5,1.7-10,2.5-16.8,3.3c-4.1,0.5-8.8,1.1-13.6,2C1879.3,677.9,1877,678.2,1874.7,678.5L1874.7,678.5z M1888.3,736.8
				c-3.9,0-9.5-0.7-13.8-2.7c-4.3-2.1-4.3-4-4.3-4.9c0-5.9,1.2-10.7,16.5-13.1l0.1,0l0.1,0c3.5-0.6,7.4-1.1,11.1-1.5
				c4.9-0.6,9.8-1.2,14.6-2.2v8.3C1912.5,733.8,1894.6,736.8,1888.3,736.8L1888.3,736.8z M1959.9,736.8L1959.9,736.8L1959.9,736.8
				L1959.9,736.8z"/>
		</g>
		<g>
			<path d="M1999.9,826.8c-7.4,0-14.5-0.5-21.8-1.6l-4.3-0.6v-35.8l5.8,1c0.8,0.1,1.6,0.3,2.4,0.4c3.9,0.7,7.6,1.3,11.1,1.3
				c10.7,0,13.1-4.3,16.6-15.7l2.9-9.1L1958.5,624h44.2l32.7,93.5l31.7-93.5h42.6l-56.2,152.5c-0.5,1.3-1.1,2.7-1.6,4
				C2042.4,804.3,2033.4,826.8,1999.9,826.8z"/>
			<path class="st2" d="M2102.5,629l-53.7,145.6c-10,24.8-17.1,47.2-48.9,47.2c-7.2,0-14.1-0.5-21.1-1.5v-25.6
				c4.8,0.8,9.6,1.8,14.4,1.8c14.2,0,17.7-7.4,21.4-19.2l3.4-10.7L1965.7,629h33.4l36.1,103.1h0.5l35-103.1H2102.5 M2116.9,619
				h-14.3h-31.8h-7.2l-2.3,6.8l-25.9,76.4l-26.8-76.5l-2.3-6.7h-7.1h-33.4h-14.5l5.2,13.6l51.1,134.3l-2.3,7.4
				c-3.6,11.4-4.9,12.2-11.9,12.2c-3.1,0-6.6-0.6-10.3-1.2c-0.8-0.1-1.6-0.3-2.5-0.4l-11.6-1.9v11.8v25.6v8.7l8.6,1.2
				c7.5,1.1,14.9,1.6,22.5,1.6c16.6,0,29.4-5.3,39-16.3c8-9.2,12.7-20.8,17.6-33.1c0.5-1.3,1.1-2.7,1.6-4l0.1-0.1l0.1-0.1
				l53.7-145.6L2116.9,619L2116.9,619z"/>
		</g>
		<g>
			<path d="M2188.7,776.8c-23.8,0-44.2-6-58.9-17.4c-16.4-12.7-25.3-32-25.7-55.7l-0.1-5.1h43.5l0,5c0,12.2,4.1,21.4,12.1,27.4
				c7.3,5.5,18.1,8.4,31.2,8.4c22.2,0,35.4-8.9,35.4-23.9c0-9.7-3.9-15.5-12.6-18.8c-8.3-3.2-18.4-5.8-31.3-9
				c-7.4-1.9-15.7-4-25.2-6.6c-37.9-10.2-45.9-34.6-45.9-53.2c0-42,38.8-61.1,74.8-61.1c46.8,0,78.2,26.5,78.2,66v5h-43.1l-0.3-4.7
				c-1.2-19.5-13-29-36.2-29c-7,0-30,1.4-30,19.9c0,6.2,2,15,19,19.8c0.4,0.1,2,0.5,4.3,1.1c11.6,3,42.4,11.1,50.8,13.6
				c28.2,8.3,40.8,32.8,40.8,53.4c0,21.3-9,38.7-25.9,50.1C2229.7,771.6,2210.1,776.8,2188.7,776.8z"/>
			<path class="st2" d="M2186.1,571.8c39.8,0,73.2,21.1,73.2,61h-33.4c-1.5-24.6-18.1-33.7-41.2-33.7c-15.5,0-35,5.6-35,24.9
				c0,13.4,9.1,20.8,22.7,24.6c3,0.8,45.1,11.8,55,14.7c25.1,7.4,37.2,28.9,37.2,48.6c0,42.8-37.9,59.9-75.9,59.9
				c-43.5,0-78.8-20.8-79.6-68.1h33.4c0,29.3,21.5,40.8,48.3,40.8c29.4,0,40.4-14.4,40.4-28.9c0-14.7-8.1-20.6-15.8-23.5
				c-13.3-5.1-30.8-8.6-56.9-15.8c-32.6-8.8-42.2-28.6-42.2-48.4C2116.3,589.7,2151.6,571.8,2186.1,571.8 M2186.1,561.8
				c-20.3,0-39.4,5.5-53.6,15.5c-17.1,12.1-26.2,29.6-26.2,50.6c0,13.3,3.7,24.8,10.9,34.4c8.4,11,21.4,19,38.7,23.7
				c9.5,2.6,17.9,4.8,25.2,6.6c12.7,3.2,22.7,5.8,30.7,8.9l0,0l0,0c5.6,2.1,9.3,5.3,9.3,14.1c0,12-11.1,18.9-30.4,18.9
				c-25.4,0-38.3-10.4-38.3-30.8l0-10h-10h-33.4H2099l0.2,10.2c0.4,25.3,10,45.9,27.7,59.5c15.6,12,37,18.4,61.9,18.4
				c22.4,0,42.9-5.5,57.8-15.6c18.4-12.4,28.1-31.2,28.1-54.3c0-12.3-3.9-24.6-11-34.7c-7.9-11.3-19.5-19.4-33.4-23.5
				c-8.4-2.5-39.3-10.6-50.9-13.6c-2.2-0.6-3.8-1-4.3-1.1c-15.3-4.3-15.3-11.5-15.3-15c0-13.4,17.5-14.9,25-14.9
				c26.4,0,30.5,13,31.2,24.3l0.6,9.4h9.4h33.4h10v-10c0-22-8.8-40.5-25.6-53.4C2229,568.1,2208.5,561.8,2186.1,561.8L2186.1,561.8z
				"/>
		</g>
		<g>
			<path d="M2336.6,773.4c-35.2,0-42.7-15.4-43.2-40.2l0-76.6h-23V624h23v-41.4h40.4V624h27.5v32.7h-27.5v68.7
				c0,4.7,0.1,9.4,1.5,11.6c0.4,0.7,1.5,2.4,8.2,2.4c4,0,7.9,0,11.6-0.9l6.2-1.6v34.6l-4.6,0.3c-2.3,0.2-4.7,0.4-7,0.7
				C2345.5,772.9,2341.1,773.4,2336.6,773.4z"/>
			<path class="st2" d="M2328.8,587.6V629h27.5v22.7h-27.5v73.7c0,12.6,1,19,14.7,19c4.2,0,8.5,0,12.8-1.1v23.5
				c-6.7,0.5-13.1,1.6-19.7,1.6c-31.8,0-37.7-12.3-38.2-35.3v-81.5h-23V629h23v-41.4H2328.8 M2338.8,577.6h-10h-30.4h-10v10V619h-13
				h-10v10v22.6v10h10h13v71.5v0.1l0,0.1c0.2,11.2,1.6,23.8,10,32.9c7.7,8.3,19.9,12.2,38.2,12.2c4.8,0,9.3-0.5,13.6-1
				c2.4-0.3,4.6-0.5,6.8-0.7l9.3-0.7v-9.3v-23.5v-12.9l-12.5,3.2c-3.1,0.8-6.6,0.8-10.3,0.8c-2.3,0-3.6-0.2-4.1-0.4
				c-0.4-1.3-0.6-4.1-0.6-8.6v-63.7h17.5h10v-10V629v-10h-10h-17.5v-31.4V577.6L2338.8,577.6z"/>
		</g>
		<g>
			<path d="M2491.9,775.9c-12.9,0-21.6-4.5-25.9-13.3c-13.5,9.7-31.7,13.3-45.5,13.3c-13.9,0-26.7-3.9-36-11.1
				c-10.7-8.2-16.3-20.1-16.3-34.3c0-41.4,37.3-45.7,57.5-48c4.7-0.9,9.2-1.4,13.5-1.9c17.5-2.2,23.6-3.7,23.6-12.6
				c0-9.1-7.9-13.7-23.6-13.7c-10.9,0-24.2,3-25.5,17.4l-0.4,4.5H2373l0.3-5.3c2-32.7,26.1-50.7,67.8-50.7
				c27.8,0,60.3,11.8,60.3,45.1v66.1l0.1,5c0,3.9,0.5,5,0.6,5.2c0.1,0.1,0.6,0.2,1.6,0.2c1.8,0,3.9,0,6.7-0.4l5.8-0.9v30.5l-3.3,1.2
				C2508,773.9,2497.8,775.9,2491.9,775.9z M2461,705.8c-6.2,2.1-13.3,3-20.2,3.8c-3.8,0.4-7.7,0.9-11.3,1.6
				c-15,2.4-20.8,7.5-20.8,18.1c0,10,15.1,12.6,23.1,12.6c11.3,0,29.2-5.8,29.2-21.2V705.8z"/>
			<path class="st2" d="M2441.1,625.2c26.9,0,55.3,11,55.3,40.1v71.1h0.1c0,7.4,1.5,10.4,7.2,10.4c1.9,0,4.3,0,7.5-0.5v21.1
				c-4.5,1.6-14.2,3.5-19.3,3.5c-12.3,0-21.1-4.3-23.5-16.8c-12,11.8-31.6,16.8-47.9,16.8c-24.8,0-47.3-13.4-47.3-40.4
				c0-34.4,27.5-40.1,53.2-43c21.9-4,41.4-1.6,41.4-19.5c0-15.7-16.3-18.7-28.6-18.7c-17.1,0-29.1,7-30.5,21.9h-30.4
				C2380.5,635.6,2410.6,625.2,2441.1,625.2 M2431.8,746.8c13.4,0,34.2-7,34.2-26.2v-22.7c-9.4,6.2-24.1,5.9-37.4,8.3
				c-13.1,2.1-24.9,6.9-24.9,23C2403.7,742.8,2421,746.8,2431.8,746.8 M2441.1,615.2c-44.1,0-70.6,20.2-72.8,55.4l-0.7,10.6h10.6
				h25.3c-6.6,1.7-13,4-18.6,7.4c-14.5,8.7-21.8,22.8-21.8,41.9c0,15.8,6.3,29,18.2,38.2c10.2,7.8,24,12.2,39.1,12.2
				c16.3,0,32-4.1,44-11.3c4.8,6.2,13.1,11.3,27.4,11.3c6.4,0,17.2-2.2,22.7-4.1l6.6-2.4v-7.1v-21.1v-11.7l-11.5,1.8
				c-1.2,0.2-2.2,0.3-3.2,0.3c0-0.1,0-0.2,0-0.3v-10h-0.1v-61.1c0-16.9-7.7-30.6-22.4-39.5C2472.9,619,2457.6,615.2,2441.1,615.2
				L2441.1,615.2z M2418.1,678.5l0.6-6.3c0.3-3.2,1.2-12.8,20.5-12.8c18.6,0,18.6,6.5,18.6,8.7c0,3.2-0.8,3.6-2.3,4.3
				c-3.5,1.7-10,2.5-16.9,3.3c-4.2,0.5-8.9,1.1-13.7,2C2422.7,677.9,2420.4,678.2,2418.1,678.5L2418.1,678.5z M2431.8,736.8
				c-3.9,0-9.6-0.7-13.8-2.7c-4.3-2-4.3-4-4.3-4.9c0-5.9,1.2-10.7,16.5-13.1l0.1,0l0.1,0c3.5-0.6,7.2-1.1,11-1.5
				c4.9-0.6,9.8-1.2,14.6-2.2v8.3C2456,733.8,2438.1,736.8,2431.8,736.8L2431.8,736.8z"/>
		</g>
		<g>
			<path d="M2575.4,773.4c-35.2,0-42.7-15.4-43.3-40.2l0-76.6h-23V624h23.1v-41.4h40.5V624h27.5v32.7h-27.5v68.7
				c0,4.7,0.1,9.4,1.5,11.6c0.4,0.7,1.5,2.4,8.2,2.4c4,0,7.9,0,11.6-0.9l6.2-1.6v34.6l-4.6,0.3c-2.4,0.2-4.8,0.4-7.1,0.7
				C2584.3,772.9,2580,773.4,2575.4,773.4z"/>
			<path class="st2" d="M2567.7,587.6V629h27.5v22.7h-27.5v73.7c0,12.6,1,19,14.7,19c4.2,0,8.5,0,12.8-1.1v23.5
				c-6.8,0.5-13.1,1.6-19.8,1.6c-31.8,0-37.7-12.3-38.3-35.3v-81.5h-23V629h0.1h23v-41.4H2567.7 M2577.7,577.6h-10h-30.5h-10v10V619
				h-13h-0.1h-10v10v22.6v10h10h13v71.5v0.1l0,0.1c0.3,11.2,1.7,23.8,10.1,32.8c7.7,8.3,19.9,12.2,38.2,12.2c4.8,0,9.3-0.5,13.6-1
				c2.4-0.3,4.6-0.5,6.9-0.7l9.3-0.7v-9.3v-23.5v-12.9l-12.5,3.2c-3.1,0.8-6.6,0.8-10.3,0.8c-2.3,0-3.6-0.2-4.1-0.4
				c-0.4-1.3-0.6-4.1-0.6-8.6v-63.7h17.5h10v-10V629v-10h-10h-17.5v-31.4V577.6L2577.7,577.6z"/>
		</g>
		<g>
			<rect x="2616.4" y="624" width="40.5" height="148.1"/>
			<path class="st2" d="M2651.9,629v138.1h-30.5V629H2651.9 M2661.9,619h-10h-30.5h-10v10v138.1v10h10h30.5h10v-10V629V619
				L2661.9,619z"/>
		</g>
		<g>
			<rect x="2616.4" y="571.4" width="40.5" height="38.8"/>
			<path class="st2" d="M2651.9,576.4v28.8h-30.5v-28.8H2651.9 M2661.9,566.4h-10h-30.5h-10v10v28.8v10h10h30.5h10v-10v-28.8V566.4
				L2661.9,566.4z"/>
		</g>
		<g>
			<path d="M2744.3,775.8c-45.3,0-74.6-30.6-74.6-77.9c0-22.5,6.8-41.7,19.6-55.6c13.4-14.5,32.5-22.1,55.2-22.1
				c22.7,0,41.8,7.7,55.1,22.1c12.8,13.9,19.6,33.1,19.6,55.6c0,47.3-29.3,77.9-74.7,77.9L2744.3,775.8z M2744.5,654.3
				c-23.7,0-34.3,21.9-34.3,43.6c0,21.9,10.6,43.9,34.3,43.9c23.6,0,34.2-22,34.2-43.9C2778.7,676.2,2768.2,654.3,2744.5,654.3z"/>
			<path class="st2" d="M2744.5,625.2c44.3,0,69.7,30.5,69.7,72.7c0,42.5-25.4,72.9-69.7,72.9c-0.1,0-0.1,0-0.2,0
				c-44.3,0-69.6-30.5-69.6-72.9C2674.7,655.7,2700.1,625.2,2744.5,625.2 M2744.5,746.8c27.2,0,39.2-24.8,39.2-48.9
				c0-23.8-12-48.6-39.2-48.6c-27.3,0-39.3,24.8-39.3,48.6C2705.2,722,2717.2,746.8,2744.5,746.8 M2744.5,615.2
				c-24.2,0-44.6,8.2-58.9,23.7c-13.7,14.8-20.9,35.2-20.9,59c0,23.8,7.2,44.3,20.8,59.1c14.3,15.6,34.6,23.8,58.8,23.8l0.2,0
				c24.2,0,44.5-8.2,58.8-23.7c13.7-14.8,20.9-35.3,20.9-59.2c0-23.7-7.2-44.1-20.9-59C2789,623.4,2768.7,615.2,2744.5,615.2
				L2744.5,615.2z M2744.5,736.8c-21.6,0-29.3-21-29.3-38.9c0-4,0.8-38.6,29.3-38.6c9.2,0,16.5,3.7,21.6,11.1
				c4.8,6.9,7.6,17,7.6,27.5C2773.7,715.9,2766.1,736.8,2744.5,736.8L2744.5,736.8z"/>
		</g>
		<g>
			<path d="M2923,772.1v-91.7c-0.6-21.6-9.2-26.1-22-26.1c-16.7,0-28.4,12.9-28.4,31.3v86.5h-40.4V624h38.9v12.1
				c10.1-10,23.8-15.8,38.5-15.8c33.8,0,53.9,19.4,53.9,52v99.8H2923z"/>
			<path class="st2" d="M2909.6,625.3c29.9,0,48.9,16,48.9,47v94.8H2928v-86.8c-0.6-21.6-9.1-31-27-31c-20.3,0-33.4,16.1-33.4,36.3
				v81.5h-30.4V629h0.1h28.8v20.3l0.5,0.6C2875.7,634.6,2891.5,625.3,2909.6,625.3 M2909.6,615.3c-12.2,0-23.8,3.6-33.5,10.2V619
				h-10h-28.8h-0.1h-10v10v138.1v10h10h30.4h10v-10v-81.5c0-13.1,7.2-26.3,23.4-26.3c9.3,0,16.4,1.6,17,21.1v86.7v10h10h30.5h10v-10
				v-94.8c0-17.8-5.7-32.5-16.4-42.5C2941.8,620.3,2927.1,615.3,2909.6,615.3L2909.6,615.3z"/>
		</g>
		<g>
			<path d="M1639.2,250.5c-6,0-10.8-4.8-10.8-10.7v-76.1c0-6,4.8-10.8,10.7-10.8h440.5c69.1,0,108.8-46.5,108.8-127.6v-378.8
				c0-65.4,20.4-120.9,58.9-160.5c20.2-20.8,45.1-36.8,74.1-47.7c30.3-11.4,65.2-17.2,103.5-17.2l503.8-0.1c2.8,0,5.6,1.2,7.6,3.2
				c2,2.1,3.1,4.8,3,7.7v75.9c0,6-4.7,10.7-10.7,10.7H2483c-69.1,0-108.7,46.6-108.7,127.8v379c0,65.3-20.4,120.7-58.9,160.3
				c-20.2,20.7-45.1,36.7-74.1,47.6c-30.3,11.4-65.2,17.2-103.5,17.2H1639.2z"/>
			<path class="st2" d="M2928.8-574c3.1,0,5.7,2.6,5.6,5.9v76c0,3.1-2.4,5.7-5.7,5.7H2483c-77.1,0-113.7,55.6-113.7,132.8v379
				c0,124.6-76.1,220.1-231.5,220.1h-498.6c-3.2,0-5.8-2.5-5.8-5.7v-76.1c0-3.2,2.5-5.8,5.7-5.8h440.5
				c77.3,0,113.8-55.5,113.8-132.6v-378.8c0-124.7,76.1-220.4,231.5-220.4L2928.8-574 M2928.8-584L2928.8-584L2928.8-584l-503.8,0.1
				c-38.9,0-74.4,5.9-105.3,17.5c-29.7,11.2-55.2,27.6-75.9,48.9c-39.5,40.5-60.3,97.2-60.3,163.9V25.3
				c0,77.9-37.8,122.6-103.8,122.6h-440.5c-8.7,0-15.7,7.1-15.7,15.8v76.1c0,8.7,7.1,15.7,15.8,15.7h498.6
				c38.9,0,74.4-5.9,105.3-17.5c29.7-11.2,55.2-27.6,75.9-48.8c39.5-40.5,60.3-97.1,60.3-163.8v-379c0-78,37.8-122.8,103.7-122.8
				h445.6c8.7,0,15.7-7,15.7-15.7V-568c0.1-4.2-1.5-8.2-4.4-11.3C2937-582.3,2932.9-584,2928.8-584L2928.8-584z"/>
		</g>
		<g>
			<path d="M476.8,250.4c-5.9,0-10.7-4.8-10.7-10.7v-242c0-127.5,86.5-223.7,201.1-223.7h720.4c69.1,0,108.8-46.5,108.8-127.6
				c0-81.2-39.7-127.8-108.8-127.8H476.8c-5.9,0-10.7-4.8-10.7-10.7v-76.1c0-5.9,4.8-10.7,10.7-10.7h969c38.3,0,73.2,5.8,103.5,17.2
				c29,10.9,53.9,27,74.1,47.8c38.5,39.6,58.8,95.1,58.8,160.4c0,65.3-20.4,120.7-58.9,160.3c-20.2,20.7-45.1,36.7-74.1,47.6
				c-30.3,11.4-65.2,17.2-103.5,17.2H755.1c-60.8,0-103.3,51.9-103.3,126.1v242c0,5.9-4.8,10.7-10.7,10.7H476.8z"/>
			<path class="st2" d="M1445.8-573.9c155.4,0,231.4,95.8,231.4,220.4c0,124.6-76.1,220.1-231.5,220.1H755.1
				c-63.8,0-108.3,53.9-108.3,131.1v242c0,3.1-2.6,5.7-5.7,5.7H476.8c-3.1,0-5.7-2.5-5.7-5.7v-242C471.1-127,555.3-221,667.2-221
				h720.4c77.3,0,113.8-55.5,113.8-132.6c0-77.2-36.6-132.8-113.8-132.8H476.8c-3.1,0-5.7-2.5-5.7-5.7v-76.1c0-3.2,2.6-5.7,5.7-5.7
				H1445.8 M1445.8-583.9h-969c-8.7,0-15.7,7-15.7,15.7v76.1c0,8.7,7,15.7,15.7,15.7h910.8c66,0,103.8,44.8,103.8,122.8
				c0,77.9-37.8,122.6-103.8,122.6H667.2c-117.5,0-206.1,98.3-206.1,228.7v242c0,8.7,7,15.7,15.7,15.7h164.3c8.7,0,15.7-7,15.7-15.7
				v-242c0-71.3,40.4-121.1,98.3-121.1h690.6c38.9,0,74.4-5.9,105.3-17.5c29.7-11.2,55.2-27.6,75.9-48.8
				c39.5-40.5,60.3-97.1,60.3-163.8c0-66.7-20.8-123.4-60.3-163.9c-20.7-21.3-46.2-37.8-75.9-48.9
				C1520.2-578,1484.8-583.9,1445.8-583.9L1445.8-583.9z"/>
		</g>
		<g>
			<path d="M3109.6,250.3c-6,0-10.8-4.8-10.8-10.7v-76c0-5.8,4.9-10.7,10.8-10.7h910.8c69.1,0,108.8-46.6,108.8-127.8l-0.1-10
				c0-24.9-3.2-60.7-18.6-90.6c-18-34.9-48.3-52.8-90.1-53.1h-910.8c-6,0-10.8-4.8-10.8-10.7v-76.1c0-6,4.8-10.8,10.8-10.8
				l910.5-0.1l0.3,0.1c69.1,0,108.8-46.5,108.8-127.6c0-81.2-39.7-127.8-108.8-127.8h-910.8c-6,0-10.8-4.8-10.8-10.7v-76
				c0-6,4.8-10.8,10.8-10.8l969,0.1c38.3,0,73.2,5.8,103.5,17.2c29,10.9,53.9,27,74.1,47.8c38.5,39.6,58.9,95.1,58.9,160.4
				c0,35.8-6.2,68.8-18.4,98.1c-12.5,30-31.1,55.4-55.3,75.5c-0.4,0.5-0.4,1.4,0.1,2c46.8,42.7,73.6,113.1,73.5,193v9.9
				c0,61.7-20.9,117.7-58.9,157.6c-42.2,44.4-103.6,67.8-177.7,67.8H3109.6z"/>
			<path class="st2" d="M3109.6-574l969,0.1c155.4,0,231.5,95.8,231.5,220.4c0,69.7-24,130-72.1,169.9c-2.5,2.5-2.4,6.7,0.1,9.2
				c48.1,43.8,72.1,115,72,189.4v9.9c0,117.2-76.1,220.4-231.5,220.4h-969c-3.2,0-5.8-2.5-5.8-5.7v-76c0-3.1,2.7-5.7,5.8-5.7h910.8
				c77.2,0,113.8-55.6,113.8-132.8l-0.1-10c0-50.1-13.2-147.8-113.7-148.6h-910.8c-3.2,0-5.8-2.6-5.8-5.7v-76.1
				c0-3.2,2.7-5.8,5.8-5.8l909.7-0.1l0.3,0.1h0.8c77.3,0,113.8-55.5,113.8-132.6c0-77.2-36.6-132.8-113.8-132.8h-910.8
				c-3.2,0-5.8-2.5-5.8-5.7v-76C3103.8-571.4,3106.5-574,3109.6-574 M3109.6-584L3109.6-584L3109.6-584c-8.7,0-15.8,7.1-15.8,15.8
				v76c0,8.7,7.1,15.7,15.8,15.7h910.8c66,0,103.8,44.8,103.8,122.8c0,77.6-37.5,122.2-103,122.6l-0.3-0.1l-1.6,0l-909.7,0.1
				c-8.7,0-15.8,7.1-15.8,15.8v76.1c0,8.7,7.1,15.7,15.8,15.7h910.8c39.8,0.3,68.6,17.3,85.7,50.4c14.9,29,18.1,64,18.1,88.2v0.1
				l0,0.1l0.1,9.9c0,78-37.8,122.8-103.8,122.8h-910.8c-8.7,0-15.8,7-15.8,15.7v76c0,8.7,7.1,15.7,15.8,15.7h969
				c75.5,0,138.1-24,181.3-69.4c19.8-20.8,35-45.6,45.3-73.7c9.9-27.1,14.9-56.5,14.9-87.3V15c0.1-79.6-26.1-150-72.2-193.9
				c23.2-20.2,41.1-45.2,53.4-74.6c12.5-29.9,18.8-63.5,18.8-100c0-66.7-20.9-123.3-60.3-163.9c-20.7-21.3-46.3-37.8-75.9-48.9
				c-30.9-11.7-66.3-17.6-105.3-17.6L3109.6-584L3109.6-584z"/>
		</g>
	</g>
</g>
<g>
	<g>
		<path d="M2636.3,1352.5c-22.2,0-39.7-6.5-52-19.4c-11.5-12-17.7-29.4-18.2-50.2l-0.1-5.1h40.4l-0.2,5.1
			c-0.4,10.9,2.6,20.2,8.4,26.2c5.2,5.4,12.5,8.1,21.6,8.1c18.6,0,30.5-11.1,30.5-28.2c0-18.7-11-26.7-36.7-26.7
			c-2,0-4.3,0.1-6.6,0.2l-5.2,0.2v-33l5.2,0.2c0.9,0,1.8,0.1,2.8,0.1c10,0,33.2-2.4,33.2-24.2c0-12.5-9.8-21.3-23.9-21.3
			c-6.8,0-12.6,2.3-17,6.9c-5.8,6-9,15.5-8.8,25.9l0.1,5.1h-40.4l0.2-5.2c1.8-40.6,28.5-67.9,66.4-67.9c31.5,0,63.5,18.8,63.5,54.6
			c0,17.1-6.8,30.9-19,39.2c16.3,8.1,26.4,25.6,26.4,47.5c0,18-7.6,34.1-21.3,45.4C2672.7,1346.7,2655.2,1352.5,2636.3,1352.5z"/>
		<path class="st2" d="M2636,1154.3c28.9,0,58.5,16.7,58.5,49.6c0,18.5-8.5,33.4-26.2,39.8v0.5c20.9,4.3,33.5,22.6,33.5,46.5
			c0,35-30.1,56.8-65.6,56.8c-42.9,0-64.4-26.1-65.2-64.8h30.1c-0.8,22.6,11.3,39.5,34.9,39.5c20.1,0,35.5-11.9,35.5-33.1
			c0-26.2-20.2-31.7-41.7-31.7c-2.3,0-4.5,0.1-6.8,0.2V1235c1,0,2,0.1,2.9,0.1c19.1,0,38.1-7.5,38.1-29.2
			c0-15.6-12.2-26.3-28.9-26.3c-21,0-31.2,18.8-30.7,37.9h-30.1C2576.2,1181.5,2598.7,1154.3,2636,1154.3 M2636,1144.4
			c-40.7,0-69.4,29.2-71.3,72.7l-0.5,10.4h10.4h30.1h8.6v7.6v22.6v10.4l10.4-0.5c2.2-0.1,4.4-0.2,6.3-0.2
			c29.3,0,31.7,11.2,31.7,21.8c0,21.5-19.6,23.2-25.6,23.2c-7.7,0-13.7-2.2-18-6.6c-4.8-5-7.3-13-7-22.6l0.4-10.3h-10.3h-30.1H2561
			l0.2,10.2c0.5,22.1,7.2,40.6,19.5,53.6c13.1,13.7,32.3,21,55.6,21c20,0,38.6-6.2,52.4-17.5c14.9-12.3,23.1-29.7,23.1-49.2
			c0-20.9-8.5-38.2-22.6-48.1c9.9-9.3,15.3-22.6,15.3-38.6c0-18.2-7.9-34.3-22.4-45.1C2669.7,1149.5,2653.4,1144.4,2636,1144.4
			L2636,1144.4z M2614.9,1224.7l-0.2-7.5c-0.2-9,2.5-17.4,7.4-22.3c3.5-3.6,8-5.4,13.4-5.4c9.4,0,18.9,5,18.9,16.3
			c0,16.8-17.7,19.3-28.2,19.3c-0.8,0-1.7,0-2.6-0.1L2614.9,1224.7L2614.9,1224.7z"/>
	</g>
	<g>
	</g>
	<g>
		<path d="M1132.1,1349.2v-199.8h88.6c62.8,0,69.5,44.6,69.5,63.8c0,11.3-2.2,27.5-12.9,40.9c-11.8,14.8-30.6,22.2-55.9,22.2
			c0,0-46.3,0-46.3,0v72.8H1132.1z M1218.9,1239.2c6.6,0,28.3-1.9,28.3-26.4c0-18.2-8.5-26.4-27.7-26.4h-44.3v52.7H1218.9z"/>
		<path class="st2" d="M1220.8,1154.4c54.2,0,64.6,35,64.6,58.8c0,23.3-10.3,58.2-63.9,58.2c-0.2,0-0.5,0-0.7,0h-50.5v72.8h-33.1
			v-189.8H1220.8 M1170.2,1244.2h48.6c14.9,0,33.2-7.4,33.2-31.3c0-25-15.1-31.3-32.6-31.3h-49.2V1244.2 M1220.8,1144.5h-83.7h-9.9
			v9.9v189.8v9.9h9.9h33.1h9.9v-9.9v-62.9h40.6l0.7,0c27,0,47.1-8.1,59.8-24.1c11.6-14.5,14-32,14-44c0-12.2-2.5-29.9-14.1-44.5
			C1268.3,1152.6,1248,1144.5,1220.8,1144.5L1220.8,1144.5z M1180.2,1191.4h39.3c16.5,0,22.7,5.8,22.7,21.4
			c0,18.6-14.6,21.4-23.3,21.4h-38.7V1191.4L1180.2,1191.4z"/>
	</g>
	<g>
		<rect x="1300.3" y="1149.4" width="40.3" height="199.7"/>
		<path class="st2" d="M1335.6,1154.4v189.7h-30.3v-189.7H1335.6 M1345.6,1144.5h-9.9h-30.3h-9.9v9.9v189.7v9.9h9.9h30.3h9.9v-9.9
			v-189.7V1144.5L1345.6,1144.5z"/>
	</g>
	<g>
		<path d="M1479.6,1352.9c-12.8,0-21.5-4.4-25.8-13.2c-11.7,8.4-28,13.2-45.2,13.2c-13.8,0-26.5-3.9-35.8-11.1
			c-10.6-8.2-16.2-20-16.2-34.1c0-41.1,37.1-45.4,57.2-47.7c4.7-0.9,9.1-1.4,13.4-1.9c17.3-2.1,23.4-3.7,23.4-12.5
			c0-9-7.9-13.6-23.5-13.6c-10.8,0-24,3-25.3,17.2l-0.4,4.5h-40.2l0.3-5.3c2-32.5,26-50.4,67.4-50.4c27.7,0,60,11.8,60,44.9v65.8
			l0.1,5c0,4.2,0.6,5.1,0.7,5.2c0,0,0,0,0,0c0,0,0.4,0.2,1.5,0.2c1.8,0,3.9,0,6.6-0.4l5.8-0.9v30.3l-3.3,1.2
			C1495.5,1350.9,1485.4,1352.9,1479.6,1352.9z M1448.9,1283.1c-6.2,2.1-13.2,2.9-20.1,3.7c-3.8,0.4-7.6,0.9-11.3,1.6
			c-14.9,2.4-20.7,7.4-20.7,18c0,10.3,16.6,12.5,23,12.5c11.2,0,29-5.7,29-21.1V1283.1z"/>
		<path class="st2" d="M1429.1,1203c26.8,0,55,10.9,55,39.9v70.7h0.1c0,7.4,1.6,10.3,7.2,10.3c1.9,0,4.3,0,7.4-0.5v21
			c-4.5,1.6-14.1,3.5-19.1,3.5c-12.2,0-21-4.3-23.4-16.7c-12,11.7-31.4,16.7-47.7,16.7c-24.7,0-47-13.3-47-40.2
			c0-34.2,27.4-39.9,52.9-42.8c21.7-4,41.1-1.6,41.1-19.4c0-15.6-16.1-18.6-28.5-18.6c-17,0-28.9,7-30.2,21.8h-30.3
			C1368.8,1213.3,1398.7,1203,1429.1,1203 M1419.8,1323.9c13.3,0,34-7,34-26.1v-22.6c-9.3,6.2-23.9,5.9-37.2,8.3
			c-13,2.1-24.8,6.9-24.8,22.9C1391.9,1320,1409.2,1323.9,1419.8,1323.9 M1429.1,1193c-43.9,0-70.2,20.1-72.4,55.1l-0.7,10.6h10.6
			h25.3c-6.6,1.7-12.9,4-18.5,7.4c-14.4,8.7-21.7,22.7-21.7,41.7c0,15.7,6.3,28.9,18.1,38c10.1,7.8,23.9,12.1,38.8,12.1
			c16.2,0,31.7-4.1,43.8-11.3c4.8,6.1,13,11.3,27.3,11.3c6.3,0,17-2.1,22.4-4.1l6.6-2.4v-7v-21v-11.7l-11.5,1.9
			c-1.1,0.2-2.1,0.3-3,0.3c0-0.1,0-0.2,0-0.3v-9.9h-0.1v-60.8c0-16.8-7.7-30.4-22.2-39.3C1460.7,1196.8,1445.5,1193,1429.1,1193
			L1429.1,1193z M1406.3,1256l0.6-6.4c0.3-3.1,1.1-12.7,20.3-12.7c18.5,0,18.5,6.5,18.5,8.7c0,3.2-0.8,3.6-2.3,4.3
			c-3.5,1.7-9.9,2.5-16.7,3.3c-4.1,0.5-8.8,1.1-13.6,2C1410.9,1255.4,1408.6,1255.6,1406.3,1256L1406.3,1256z M1419.8,1314
			c-3.9,0-9.5-0.7-13.7-2.7c-4.3-2-4.3-3.9-4.3-4.8c0-5.9,1.2-10.6,16.4-13.1l0.1,0l0.1,0c3.5-0.6,7.3-1.1,11-1.5
			c4.8-0.6,9.8-1.2,14.5-2.2v8.2C1443.9,1311,1426.1,1314,1419.8,1314L1419.8,1314z M1491.1,1314L1491.1,1314L1491.1,1314
			L1491.1,1314z"/>
	</g>
	<g>
		<path d="M1530.9,1403.5c-7.3,0-14.4-0.5-21.7-1.5l-4.3-0.6v-35.7l5.8,1c0.8,0.1,1.6,0.3,2.4,0.4c3.9,0.7,7.5,1.3,11.1,1.3
			c10.6,0,13-4.3,16.5-15.6l2.9-9l-54-142h44l32.6,93l31.6-93h42.3l-55.9,151.7c-0.5,1.3-1.1,2.7-1.6,4
			C1573.1,1381.1,1564.1,1403.5,1530.9,1403.5z"/>
		<path class="st2" d="M1632.9,1206.7l-53.4,144.8c-9.9,24.7-17,47-48.6,47c-7.2,0-14-0.5-21-1.5v-25.5c4.8,0.8,9.6,1.8,14.3,1.8
			c14.1,0,17.6-7.4,21.3-19.1l3.4-10.6l-52-136.9h33.2l35.9,102.6h0.5l34.8-102.6H1632.9 M1647.2,1196.8h-14.3h-31.6h-7.1l-2.3,6.8
			l-25.8,76l-26.6-76.1l-2.3-6.7h-7.1h-33.2h-14.4l5.1,13.5l50.8,133.6l-2.3,7.3c-3.6,11.3-4.9,12.2-11.8,12.2
			c-3.1,0-6.6-0.6-10.2-1.2c-0.8-0.1-1.6-0.3-2.5-0.4l-11.6-1.9v11.7v25.5v8.6l8.5,1.2c7.5,1.1,14.8,1.6,22.4,1.6
			c16.5,0,29.2-5.3,38.8-16.2c8-9.1,12.6-20.7,17.5-33c0.5-1.3,1.1-2.6,1.6-4l0.1-0.1l0.1-0.1l53.4-144.8L1647.2,1196.8
			L1647.2,1196.8z"/>
	</g>
	<g>
		<path d="M1718.7,1353.8c-23.7,0-44-6-58.6-17.3c-16.3-12.6-25.2-31.8-25.6-55.4l-0.1-5.1h43.3l0,5c0,12.1,4.1,21.3,12.1,27.3
			c7.3,5.5,18,8.4,31,8.4c22.1,0,35.2-8.9,35.2-23.8c0-9.7-3.9-15.5-12.5-18.7c-8.2-3.2-18.3-5.7-31.1-9c-7.3-1.9-15.6-4-25.1-6.6
			c-37.7-10.2-45.6-34.4-45.6-52.9c0-41.8,38.6-60.8,74.4-60.8c46.5,0,77.8,26.4,77.8,65.7v5H1751l-0.3-4.7
			c-1.2-19.4-13-28.9-36-28.9c-7,0-29.8,1.4-29.8,19.8c0,6.2,2,14.9,18.9,19.7c0.4,0.1,2,0.5,4.3,1.1c11.5,3,42.2,11.1,50.5,13.5
			c28,8.3,40.6,32.6,40.6,53.1c0,21.2-8.9,38.5-25.8,49.9C1759.4,1348.6,1740,1353.8,1718.7,1353.8z"/>
		<path class="st2" d="M1716.1,1149.8c39.6,0,72.8,21,72.8,60.7h-33.2c-1.5-24.5-18-33.5-41-33.5c-15.4,0-34.8,5.6-34.8,24.8
			c0,13.3,9.1,20.7,22.6,24.5c3,0.8,44.9,11.7,54.7,14.6c25,7.4,37,28.8,37,48.3c0,42.6-37.7,59.6-75.5,59.6
			c-43.3,0-78.4-20.7-79.2-67.7h33.2c0,29.2,21.4,40.6,48.1,40.6c29.2,0,40.2-14.3,40.2-28.8c0-14.6-8.1-20.5-15.7-23.4
			c-13.2-5.1-30.6-8.6-56.6-15.7c-32.4-8.8-42-28.5-42-48.2C1646.7,1167.6,1681.8,1149.8,1716.1,1149.8 M1716.1,1139.9
			c-20.2,0-39.2,5.5-53.3,15.5c-17.1,12-26.1,29.4-26.1,50.3c0,13.2,3.7,24.7,10.9,34.2c8.3,11,21.3,18.9,38.5,23.6
			c9.4,2.6,17.8,4.7,25.1,6.6c12.6,3.2,22.6,5.8,30.5,8.8l0,0l0,0c5.6,2.1,9.3,5.3,9.3,14.1c0,11.9-11,18.8-30.2,18.8
			c-25.2,0-38.1-10.3-38.1-30.7l0-9.9h-9.9h-33.2h-10.1l0.2,10.1c0.4,25.1,9.9,45.6,27.5,59.2c15.5,12,36.8,18.3,61.6,18.3
			c22.3,0,42.7-5.5,57.5-15.5c18.3-12.4,28-31,28-54c0-12.2-3.9-24.4-11-34.5c-7.9-11.2-19.4-19.3-33.2-23.4
			c-8.4-2.4-39-10.5-50.6-13.5c-2.2-0.6-3.8-1-4.3-1.1c-15.3-4.3-15.3-11.4-15.3-14.9c0-13.4,17.4-14.8,24.9-14.8
			c26.2,0,30.4,12.9,31.1,24.2l0.6,9.3h9.4h33.2h9.9v-9.9c0-21.9-8.8-40.3-25.4-53.1C1758.8,1146.1,1738.4,1139.9,1716.1,1139.9
			L1716.1,1139.9z"/>
	</g>
	<g>
		<path d="M1865.8,1350.4c-35.1,0-42.4-15.3-43-40l0-76.2H1800v-32.4h22.9v-41.2h40.2v41.2h27.4v32.5H1863v68.3
			c0,4.6,0.1,9.4,1.5,11.5c0.4,0.7,1.5,2.4,8.2,2.4c4,0,7.8,0,11.5-0.9l6.2-1.6v34.4l-4.6,0.3c-2.3,0.2-4.7,0.4-7,0.7
			C1874.6,1349.9,1870.3,1350.4,1865.8,1350.4z"/>
		<path class="st2" d="M1858.1,1165.6v41.2h27.4v22.6h-27.4v73.3c0,12.5,1,18.9,14.6,18.9c4.2,0,8.5,0,12.7-1.1v23.4
			c-6.7,0.5-13,1.6-19.6,1.6c-31.6,0-37.5-12.2-38-35.1v-81.1h-22.9v-22.5h22.9v-41.2H1858.1 M1868,1155.6h-9.9h-30.2h-9.9v9.9v31.2
			h-12.9h-9.9v9.9v22.5v9.9h9.9h12.9v71.1v0.1l0,0.1c0.2,11.1,1.6,23.7,10,32.7c7.7,8.3,19.8,12.2,38,12.2c4.7,0,9.2-0.5,13.6-1
			c2.3-0.3,4.5-0.5,6.8-0.7l9.2-0.7v-9.2v-23.4v-12.8l-12.4,3.2c-3.1,0.8-6.6,0.8-10.3,0.8c-2.3,0-3.6-0.2-4.1-0.4
			c-0.4-1.2-0.6-4.1-0.6-8.6v-63.4h17.4h9.9v-9.9v-22.6v-9.9h-9.9H1868v-31.2V1155.6L1868,1155.6z"/>
	</g>
	<g>
		<path d="M2020.3,1352.9c-12.8,0-21.5-4.4-25.8-13.2c-13.4,9.6-31.6,13.2-45.2,13.2c-13.8,0-26.6-3.9-35.8-11.1
			c-10.6-8.2-16.2-20-16.2-34.1c0-41.1,37.1-45.4,57.2-47.7c4.7-0.9,9.2-1.4,13.5-1.9c17.4-2.1,23.5-3.7,23.5-12.5
			c0-9-7.9-13.6-23.5-13.6c-10.8,0-24,3-25.4,17.3l-0.4,4.5H1902l0.3-5.3c2-32.5,26-50.4,67.4-50.4c27.7,0,60,11.8,60,44.9v65.8
			l0.1,5c0,3.9,0.5,5,0.6,5.2c0.1,0.1,0.6,0.2,1.6,0.2c1.8,0,3.9,0,6.7-0.4l5.7-0.9v30.3l-3.3,1.2
			C2036.3,1350.9,2026.1,1352.9,2020.3,1352.9z M1989.6,1283.1c-6.2,2.1-13.2,2.9-20.1,3.8c-3.7,0.4-7.6,0.9-11.3,1.6
			c-14.9,2.4-20.7,7.4-20.7,18c0,9.9,15,12.5,23,12.5c11.2,0,29-5.7,29-21.1V1283.1z"/>
		<path class="st2" d="M1969.8,1203c26.8,0,55,10.9,55,39.9v70.7h0.1c0,7.4,1.5,10.3,7.2,10.3c1.9,0,4.3,0,7.5-0.5v21
			c-4.5,1.6-14.1,3.5-19.2,3.5c-12.2,0-21-4.3-23.4-16.7c-11.9,11.7-31.4,16.7-47.7,16.7c-24.7,0-47.1-13.3-47.1-40.2
			c0-34.2,27.4-39.9,52.9-42.8c21.8-4,41.2-1.6,41.2-19.4c0-15.6-16.2-18.6-28.5-18.6c-17,0-28.9,7-30.3,21.8h-30.2
			C1909.5,1213.3,1939.4,1203,1969.8,1203 M1960.5,1323.9c13.3,0,34-7,34-26.1v-22.6c-9.4,6.2-24,5.9-37.2,8.3
			c-13,2.1-24.8,6.9-24.8,22.9C1932.6,1320,1949.8,1323.9,1960.5,1323.9 M1969.8,1193c-43.9,0-70.2,20.1-72.4,55.1l-0.7,10.6h10.6
			h25.2c-6.6,1.7-12.9,4-18.5,7.4c-14.4,8.7-21.7,22.7-21.7,41.7c0,15.7,6.3,28.9,18.2,38c10.1,7.8,23.9,12.1,38.9,12.1
			c16.3,0,31.8-4.1,43.8-11.3c4.8,6.1,13,11.3,27.2,11.3c6.4,0,17.1-2.1,22.5-4.1l6.6-2.4v-7v-21v-11.6l-11.5,1.8
			c-1.2,0.2-2.2,0.3-3.1,0.3c0-0.1,0-0.2,0-0.3v-9.9h-0.1v-60.8c0-16.8-7.7-30.4-22.2-39.3C2001.4,1196.8,1986.2,1193,1969.8,1193
			L1969.8,1193z M1946.9,1256l0.6-6.3c0.3-3.2,1.2-12.8,20.4-12.8c18.5,0,18.5,6.5,18.5,8.7c0,3.2-0.8,3.6-2.3,4.3
			c-3.5,1.7-10,2.5-16.8,3.3c-4.1,0.5-8.8,1.1-13.6,1.9C1951.4,1255.4,1949.2,1255.6,1946.9,1256L1946.9,1256z M1960.5,1314
			c-3.9,0-9.5-0.7-13.7-2.7c-4.3-2-4.3-3.9-4.3-4.8c0-5.9,1.2-10.6,16.4-13.1l0.1,0l0.1,0c3.5-0.6,7.1-1.1,11-1.5
			c4.8-0.6,9.8-1.2,14.5-2.2v8.2C1984.6,1311,1966.8,1314,1960.5,1314L1960.5,1314z"/>
	</g>
	<g>
		<path d="M2103.4,1350.4c-35,0-42.4-15.3-43.1-40l0-76.2h-22.9v-32.4h23v-41.2h40.3v41.2h27.4v32.5h-27.4v68.3
			c0,4.6,0.1,9.4,1.5,11.5c0.4,0.7,1.5,2.4,8.2,2.4c4,0,7.8,0,11.5-0.9l6.2-1.6v34.4l-4.6,0.3c-2.4,0.2-4.8,0.4-7.1,0.7
			C2112.2,1349.9,2107.9,1350.4,2103.4,1350.4z"/>
		<path class="st2" d="M2095.7,1165.6v41.2h27.4v22.6h-27.4v73.3c0,12.5,1,18.9,14.6,18.9c4.2,0,8.5,0,12.7-1.1v23.4
			c-6.8,0.5-13,1.6-19.7,1.6c-31.6,0-37.5-12.2-38.1-35.1v-81.1h-22.9v-22.5h0.1h22.9v-41.2H2095.7 M2105.7,1155.6h-9.9h-30.3h-9.9
			v9.9v31.2h-12.9h-0.1h-9.9v9.9v22.5v9.9h9.9h12.9v71.1v0.1l0,0.1c0.3,11.1,1.7,23.7,10.1,32.6c7.7,8.3,19.8,12.2,38,12.2
			c4.8,0,9.2-0.5,13.5-1c2.4-0.3,4.6-0.5,6.9-0.7l9.2-0.7v-9.2v-23.4v-12.8l-12.4,3.2c-3.1,0.8-6.6,0.8-10.3,0.8
			c-2.3,0-3.6-0.2-4.1-0.4c-0.4-1.2-0.6-4.1-0.6-8.6v-63.4h17.4h9.9v-9.9v-22.6v-9.9h-9.9h-17.4v-31.2V1155.6L2105.7,1155.6z"/>
	</g>
	<g>
		<rect x="2144.2" y="1201.8" width="40.3" height="147.3"/>
		<path class="st2" d="M2179.5,1206.7v137.4h-30.3v-137.4H2179.5 M2189.5,1196.8h-9.9h-30.3h-9.9v9.9v137.4v9.9h9.9h30.3h9.9v-9.9
			v-137.4V1196.8L2189.5,1196.8z"/>
	</g>
	<g>
		<rect x="2144.2" y="1149.4" width="40.3" height="38.6"/>
		<path class="st2" d="M2179.5,1154.4v28.7h-30.3v-28.7H2179.5 M2189.5,1144.5h-9.9h-30.3h-9.9v9.9v28.7v9.9h9.9h30.3h9.9v-9.9
			v-28.7V1144.5L2189.5,1144.5z"/>
	</g>
	<g>
		<path d="M2271.4,1352.8c-45.1,0-74.2-30.4-74.2-77.5c0-22.4,6.7-41.5,19.5-55.3c13.3-14.4,32.3-22,54.9-22
			c22.6,0,41.6,7.6,54.9,22c12.7,13.8,19.5,32.9,19.5,55.3c0,47.1-29.2,77.5-74.3,77.5L2271.4,1352.8z M2271.6,1231.9
			c-23.6,0-34.1,21.8-34.1,43.4c0,21.7,10.6,43.7,34.1,43.7c23.5,0,34-21.9,34-43.7C2305.6,1253.7,2295.1,1231.9,2271.6,1231.9z"/>
		<path class="st2" d="M2271.6,1203c44.1,0,69.3,30.3,69.3,72.3c0,42.3-25.3,72.5-69.3,72.5c-0.1,0-0.1,0-0.2,0
			c-44,0-69.2-30.3-69.2-72.5C2202.2,1233.3,2227.5,1203,2271.6,1203 M2271.6,1323.9c27.1,0,39-24.7,39-48.6
			c0-23.7-11.9-48.3-39-48.3c-27.2,0-39.1,24.7-39.1,48.3C2232.5,1299.3,2244.5,1323.9,2271.6,1323.9 M2271.6,1193
			c-24.1,0-44.3,8.2-58.6,23.6c-13.6,14.7-20.8,35-20.8,58.7c0,23.7,7.2,44.1,20.7,58.8c14.2,15.5,34.4,23.7,58.5,23.7l0.2,0
			c24,0,44.3-8.2,58.5-23.6c13.6-14.8,20.8-35.1,20.8-58.9c0-23.6-7.2-43.9-20.8-58.6C2315.9,1201.2,2295.7,1193,2271.6,1193
			L2271.6,1193z M2271.6,1314c-21.5,0-29.1-20.8-29.1-38.7c0-3.9,0.8-38.4,29.1-38.4c9.1,0,16.4,3.7,21.5,11
			c4.8,6.9,7.6,16.9,7.6,27.4C2300.7,1293.1,2293.1,1314,2271.6,1314L2271.6,1314z"/>
	</g>
	<g>
		<path d="M2449.1,1349.1v-91.3c-0.6-21.5-9.2-25.9-21.9-25.9c-16.6,0-28.3,12.8-28.3,31.1v86.1h-40.2v-147.3h38.7v12
			c10.1-10,23.7-15.7,38.3-15.7c33.6,0,53.6,19.3,53.6,51.7v99.3H2449.1z"/>
		<path class="st2" d="M2435.8,1203.1c29.7,0,48.6,15.9,48.6,46.8v94.3h-30.3v-86.4c-0.6-21.5-9.1-30.8-26.9-30.8
			c-20.2,0-33.2,16-33.2,36.1v81.1h-30.2v-137.4h0.1h28.7v20.2l0.5,0.6C2402,1212.3,2417.8,1203.1,2435.8,1203.1 M2435.8,1193.1
			c-12.2,0-23.7,3.6-33.3,10.2v-6.5h-9.9h-28.7h-0.1h-9.9v9.9v137.4v9.9h9.9h30.2h9.9v-9.9v-81.1c0-13,7.2-26.2,23.3-26.2
			c9.2,0,16.3,1.6,16.9,21v86.2v9.9h9.9h30.3h9.9v-9.9v-94.3c0-17.7-5.7-32.3-16.4-42.2C2467.8,1198.1,2453.2,1193.1,2435.8,1193.1
			L2435.8,1193.1z"/>
	</g>
	<g>
		<path d="M1172,830.2c-5.9,0-10.7-4.8-10.7-10.6v-75.7c0-5.9,4.8-10.7,10.6-10.7h438.2c68.8,0,108.2-46.3,108.2-126.9V229.3
			c0-65,20.3-120.2,58.6-159.6c20.1-20.6,44.9-36.6,73.7-47.5c30.2-11.4,64.8-17.1,103-17.1L2454.9,5c2.8,0,5.6,1.2,7.5,3.2
			c2,2.1,3.1,4.8,3,7.7v75.5c0,6-4.7,10.6-10.6,10.6h-443.3c-68.7,0-108.1,46.3-108.1,127.1v377c0,65-20.3,120.1-58.6,159.4
			c-20.1,20.6-44.9,36.6-73.7,47.4c-30.2,11.3-64.8,17.1-103,17.1H1172z"/>
		<path class="st2" d="M2454.9,9.9c3.1,0,5.7,2.6,5.6,5.9v75.6c0,3.1-2.4,5.7-5.7,5.7h-443.3c-76.7,0-113.1,55.3-113.1,132.1v377
			c0,124-75.7,219-230.3,219h-496c-3.2,0-5.8-2.5-5.8-5.7v-75.7c0-3.2,2.5-5.8,5.7-5.8h438.2c76.9,0,113.2-55.2,113.2-131.9V229.3
			c0-124.1,75.7-219.3,230.3-219.3L2454.9,9.9 M2454.9,0L2454.9,0L2454.9,0l-501.2,0.1c-38.7,0-74,5.9-104.7,17.5
			c-29.5,11.1-54.9,27.5-75.5,48.7c-39.3,40.3-60,96.7-60,163.1v376.8c0,77.5-37.6,122-103.3,122h-438.2c-8.6,0-15.6,7.1-15.6,15.7
			v75.7c0,8.6,7.1,15.6,15.7,15.6h496c38.7,0,74-5.9,104.7-17.4c29.5-11.1,54.9-27.4,75.5-48.6c39.3-40.3,60-96.6,60-162.9v-377
			c0-77.6,37.6-122.2,103.2-122.2h443.3c8.6,0,15.6-7,15.6-15.6V15.9c0.1-4.2-1.5-8.2-4.4-11.2C2463.1,1.7,2459,0,2454.9,0L2454.9,0
			z"/>
	</g>
	<g>
		<path d="M15.6,830.1c-5.9,0-10.6-4.8-10.6-10.6V578.7C5,451.8,91,356.2,205,356.2h716.7c68.8,0,108.2-46.3,108.2-126.9
			c0-80.8-39.5-127.1-108.2-127.1H15.6C9.7,102.1,5,97.3,5,91.4V15.7C5,9.8,9.7,5.1,15.6,5.1h964c38.1,0,72.8,5.8,102.9,17.1
			c28.8,10.9,53.6,26.9,73.7,47.5c38.3,39.4,58.5,94.6,58.5,159.6c0,65-20.3,120.1-58.6,159.4c-20.1,20.6-44.9,36.6-73.7,47.4
			c-30.2,11.3-64.8,17.1-103,17.1h-687c-60.5,0-102.8,51.6-102.8,125.4v240.8c0,5.9-4.8,10.6-10.6,10.6H15.6z"/>
		<path class="st2" d="M979.6,10c154.6,0,230.2,95.3,230.2,219.3c0,124-75.7,219-230.3,219h-687c-63.5,0-107.7,53.6-107.7,130.4
			v240.8c0,3.1-2.6,5.7-5.7,5.7H15.6c-3.1,0-5.7-2.5-5.7-5.7V578.7c0-124.1,83.8-217.6,195.1-217.6h716.7
			c76.9,0,113.2-55.2,113.2-131.9c0-76.8-36.4-132.1-113.2-132.1H15.6c-3.1,0-5.7-2.5-5.7-5.7V15.7c0-3.2,2.6-5.7,5.7-5.7H979.6
			 M979.6,0.1h-964C7,0.1,0,7.1,0,15.7v75.7C0,100,7,107,15.6,107h906.1c65.6,0,103.3,44.5,103.3,122.2c0,77.5-37.6,122-103.3,122
			H205C88.1,351.2,0,449,0,578.7v240.8c0,8.6,7,15.6,15.6,15.6h163.5c8.6,0,15.6-7,15.6-15.6V578.7c0-70.9,40.2-120.5,97.8-120.5
			h687c38.7,0,74-5.9,104.7-17.4c29.5-11.1,54.9-27.4,75.5-48.6c39.3-40.3,60-96.6,60-162.9c0-66.3-20.7-122.7-59.9-163.1
			c-20.6-21.2-46-37.6-75.5-48.7C1053.6,6,1018.4,0.1,979.6,0.1L979.6,0.1z"/>
	</g>
	<g>
		<path d="M2634.7,830c-5.9,0-10.7-4.8-10.7-10.6v-75.6c0-5.8,4.9-10.6,10.7-10.6h906.1c68.8,0,108.2-46.3,108.2-127.1l-0.1-9.9
			c0-24.7-3.2-60.4-18.5-90.1c-17.9-34.7-48.1-52.5-89.7-52.8h-906.1c-5.9,0-10.7-4.8-10.7-10.6v-75.7c0-5.9,4.8-10.7,10.7-10.7
			l905.8-0.1l0.3,0.1c68.8,0,108.2-46.3,108.2-126.9c0-80.8-39.5-127.1-108.2-127.1h-906.1c-5.9,0-10.7-4.8-10.7-10.6V15.7
			c0-5.9,4.8-10.7,10.7-10.7l964,0.1c38.1,0,72.8,5.8,103,17.1c28.8,10.9,53.6,26.9,73.7,47.5c38.3,39.4,58.6,94.6,58.6,159.6
			c0,35.6-6.2,68.5-18.3,97.5c-12.5,29.8-30.9,55.1-55,75.1c-0.4,0.5-0.3,1.4,0.1,2c46.6,42.5,73.2,112.5,73.1,192v9.8
			c0,61.4-20.8,117.1-58.5,156.8c-41.9,44.1-103.1,67.5-176.7,67.5H2634.7z"/>
		<path class="st2" d="M2634.7,9.9l964,0.1c154.6,0,230.3,95.3,230.3,219.3c0,69.3-23.9,129.3-71.7,169c-2.5,2.5-2.4,6.7,0.1,9.2
			c47.9,43.6,71.7,114.4,71.6,188.4v9.8c0,116.6-75.7,219.3-230.3,219.3h-964c-3.2,0-5.8-2.5-5.8-5.7v-75.6c0-3.1,2.7-5.7,5.8-5.7
			h906.1c76.8,0,113.2-55.3,113.2-132.1l-0.1-9.9c0-49.8-13.1-147-113.1-147.8h-906.1c-3.2,0-5.8-2.6-5.8-5.7v-75.7
			c0-3.2,2.7-5.8,5.8-5.8l905-0.1l0.3,0.1h0.8c76.9,0,113.2-55.2,113.2-131.9c0-76.8-36.4-132.1-113.2-132.1h-906.1
			c-3.2,0-5.8-2.5-5.8-5.7V15.7C2629,12.5,2631.7,9.9,2634.7,9.9 M2634.7,0L2634.7,0L2634.7,0c-8.7,0-15.7,7.1-15.7,15.7v75.6
			c0,8.6,7.1,15.6,15.7,15.6h906.1c65.6,0,103.3,44.5,103.3,122.2c0,77.2-37.3,121.6-102.5,122l-0.3-0.1l-1.6,0l-905,0.1
			c-8.7,0-15.7,7.1-15.7,15.7v75.7c0,8.6,7.1,15.6,15.7,15.6h906.1c39.6,0.3,68.3,17.2,85.2,50.1c14.8,28.8,18,63.6,18,87.8v0l0,0
			l0.1,9.9c0,77.6-37.7,122.1-103.3,122.1h-906.1c-8.7,0-15.7,7-15.7,15.6v75.6c0,8.6,7.1,15.6,15.7,15.6h964
			c75.1,0,137.4-23.9,180.3-69c19.7-20.7,34.8-45.4,45.1-73.3c9.9-27,14.8-56.2,14.8-86.9v-9.8c0.1-79.2-26-149.2-71.8-192.9
			c23.1-20.1,40.9-45,53.1-74.2c12.4-29.7,18.7-63.2,18.7-99.5c0-66.3-20.7-122.7-60-163.1c-20.6-21.2-46-37.6-75.5-48.7
			c-30.7-11.6-66-17.5-104.7-17.5L2634.7,0L2634.7,0z"/>
	</g>
</g>
</svg>
