<?xml version="1.0" encoding="utf-8"?>
<!-- Generator: Adobe Illustrator 25.0.0, SVG Export Plug-In . SVG Version: 6.00 Build 0)  -->
<svg version="1.1" id="Layer_1" xmlns="http://www.w3.org/2000/svg" xmlns:xlink="http://www.w3.org/1999/xlink" x="0px" y="0px"
	 viewBox="0 0 2548.1 2159" style="enable-background:new 0 0 2548.1 2159;" xml:space="preserve">
<style type="text/css">
	.st0{fill:#FFFFFF;}
	.st1{fill:#3DDC84;}
	.st2{fill:#A6F34E;}
	.st3{fill:none;stroke:#FFFFFF;stroke-width:32.5695;stroke-linecap:round;}
	.st4{fill:none;stroke:#FFFFFF;stroke-width:65.1391;stroke-linecap:round;}
	.st5{fill:#A4C639;}
	.st6{fill:none;stroke:#FFFFFF;stroke-width:13.0278;stroke-linecap:round;}
	.st7{fill:none;stroke:#A4C639;stroke-width:6.5139;stroke-linecap:round;}
	.st8{fill:none;stroke:#A4C639;stroke-width:39.0835;stroke-linecap:round;}
	.st9{fill:none;stroke:#FFFFFF;stroke-width:15;stroke-linecap:square;}
	.st10{fill:#A4C639;stroke:#FFFFFF;stroke-width:14.4;}
	.st11{fill:#A4C639;stroke:#FFFFFF;stroke-width:7.2;}
	.st12{fill:#FFFFFF;stroke:#FFFFFF;stroke-width:7.2;}
	.st13{fill:#0268AA;}
</style>
<rect x="996.8" y="236.3" class="st0" width="543" height="143"/>
<rect x="298.3" y="1878" class="st2" width="72.5" height="267.8"/>
<rect x="233.5" y="1740.8" transform="matrix(-1.836970e-16 1 -1 -1.836970e-16 2111.5732 1569.3055)" class="st2" width="75.2" height="199.2"/>
<path class="st2" d="M171.5,2070.7c0,25.1,0,50.1,0,75.2c-228.7,0-228.7-343,0-343c0,25.1,0,50.1,0,75.2
	C43.1,1878,43.1,2070.7,171.5,2070.7z"/>
<path class="st2" d="M1033.1,1878c0-25.1,0-50.1,0-75.2c228.7,0,228.7,343,0,343c0-25.1,0-50.1,0-75.2
	C1161.6,2070.7,1161.6,1878,1033.1,1878z"/>
<rect x="914.3" y="1759.1" transform="matrix(-1.836970e-16 1 -1 -1.836970e-16 2792.291 888.588)" class="st2" width="75.2" height="162.6"/>
<rect x="1324.8" y="1745.1" transform="matrix(-1.836970e-16 1 -1 -1.836970e-16 3202.8425 478.0365)" class="st2" width="75.2" height="190.8"/>
<path class="st2" d="M1457.8,1878c0-25.1,0-50.1,0-75.2c167.1,0,167.1,250.6,0,250.6c0-25.1,0-50.1,0-75.2
	C1524.6,1978.2,1524.6,1878,1457.8,1878z"/>
<rect x="914.3" y="2027" transform="matrix(-1.836970e-16 1 -1 -1.836970e-16 3060.137 1156.4341)" class="st2" width="75.2" height="162.6"/>
<rect x="167.8" y="2074.4" transform="matrix(-1.836970e-16 1 -1 -1.836970e-16 2313.7058 1902.8652)" class="st2" width="75.2" height="67.8"/>
<rect x="439.6" y="1968.9" class="st2" width="72.5" height="177"/>
<path class="st2" d="M512,1968.9c-24.2,0-48.3,0-72.5,0c0-236.7,355-236.7,355,0c-24.2,0-48.3,0-72.5,0
	C722.1,1828.8,512,1828.8,512,1968.9z"/>
<rect x="722.1" y="1968.9" class="st2" width="72.5" height="177"/>
<rect x="1327.6" y="1917.6" transform="matrix(-1.836970e-16 1 -1 -1.836970e-16 3378.2849 650.6295)" class="st2" width="72.5" height="193.6"/>
<path class="st2" d="M2376.6,1878c0-25.1,0-50.1,0-75.2c228.7,0,228.7,343,0,343c0-25.1,0-50.1,0-75.2
	C2505,2070.7,2505,1878,2376.6,1878z"/>
<rect x="2257.7" y="1759.1" transform="matrix(-1.836970e-16 1 -1 -1.836970e-16 4135.7275 -454.8488)" class="st2" width="75.2" height="162.6"/>
<rect x="2257.7" y="2027" transform="matrix(-1.836970e-16 1 -1 -1.836970e-16 4403.5737 -187.0027)" class="st2" width="75.2" height="162.6"/>
<path class="st2" d="M1710.6,1981.5c-24.2,0-48.3,0-72.5,0c0-236.7,355-236.7,355,0c-24.2,0-48.3,0-72.5,0
	C1920.7,1841.4,1710.6,1841.4,1710.6,1981.5z"/>
<path class="st2" d="M1920.7,1981.5c24.2,0,48.3,0,72.5,0c0,236.7-355,236.7-355,0c24.2,0,48.3,0,72.5,0
	C1710.6,2121.5,1920.7,2121.5,1920.7,1981.5z"/>
<rect x="2065.5" y="1802.8" class="st2" width="72.5" height="343"/>
<path class="st2" d="M1489.5,2145.9h74.8c12.9-78.4-33.8-167.7-139.9-167.7c0,24.2,0,48.3,0,72.5
	C1482.4,2050.7,1504.1,2105.1,1489.5,2145.9z"/>
<path class="st2" d="M1017.1,7.1c-3.7-6.6-12-9-18.7-5.4c-6.6,3.7-9,12-5.4,18.7l167.5,302.1c1.8,3.2,4.7,5.5,8.2,6.5
	c3.5,1,7.2,0.6,10.4-1.2c3.2-1.8,5.5-4.7,6.5-8.2c1-3.5,0.6-7.2-1.2-10.4L1017.1,7.1z"/>
<path class="st2" d="M1835.5,506.8c-53.2,0-96.5,43.3-96.5,96.5v402.2c0,53.2,43.3,96.5,96.5,96.5c53.2,0,96.5-43.3,96.5-96.5V603.3
	C1932,550.1,1888.7,506.8,1835.5,506.8z"/>
<path class="st2" d="M1433.2,965.8c-53.2,0-96.5,43.3-96.5,96.5v402.2c0,53.2,43.3,96.5,96.5,96.5s96.5-43.3,96.5-96.5v-402.2
	C1529.8,1009.1,1486.5,965.8,1433.2,965.8z"/>
<path class="st2" d="M1546.2,1.7c-2.1-1.2-4.4-1.7-6.6-1.7c-4.8,0-9.5,2.6-12,7.1l-167.5,302.1c-1.8,3.2-2.2,6.9-1.2,10.4
	c1,3.5,3.3,6.4,6.5,8.2c3.2,1.8,6.9,2.2,10.4,1.2c3.5-1,6.4-3.3,8.2-6.5l167.5-302.1C1555.2,13.8,1552.8,5.4,1546.2,1.7z"/>
<path class="st2" d="M709.2,506.8c-53.2,0-96.5,43.3-96.5,96.5v402.2c0,53.2,43.3,96.5,96.5,96.5c53.2,0,96.5-43.3,96.5-96.5V603.3
	C805.7,550.1,762.4,506.8,709.2,506.8z"/>
<path class="st2" d="M1111.4,965.8c-53.2,0-96.5,43.3-96.5,96.5v402.2c0,53.2,43.3,96.5,96.5,96.5s96.5-43.3,96.5-96.5v-402.2
	C1208,1009.1,1164.7,965.8,1111.4,965.8z"/>
<path class="st2" d="M841.7,523.4v624.2c0,57.5,46.6,104.1,104.1,104.1h653.1c57.5,0,104.1-46.6,104.1-104.1V523.4H841.7z"/>
<path class="st2" d="M1272.3,92.2c-237.7,0-430.4,177.7-430.6,397H1703C1702.7,270,1510,92.2,1272.3,92.2z M1073.6,331.7
	c-19.8,0-36-16.1-36-36s16.1-36,36-36c19.8,0,36,16.1,36,36S1093.4,331.7,1073.6,331.7z M1471.1,331.7c-19.8,0-36-16.1-36-36
	s16.1-36,36-36c19.8,0,36,16.1,36,36S1490.9,331.7,1471.1,331.7z"/>
</svg>
