<?xml version="1.0" encoding="utf-8"?>
<!-- Generator: Adobe Illustrator 25.0.0, SVG Export Plug-In . SVG Version: 6.00 Build 0)  -->
<svg version="1.1" id="Layer_1" xmlns="http://www.w3.org/2000/svg" xmlns:xlink="http://www.w3.org/1999/xlink" x="0px" y="0px"
	 viewBox="0 0 3840 430.71" style="enable-background:new 0 0 3840 430.71;" xml:space="preserve">
<style type="text/css">
	.st0{fill:#FFCC00;}
	.st1{fill-rule:evenodd;clip-rule:evenodd;fill:#FFCC00;}
	.st2{fill-rule:evenodd;clip-rule:evenodd;fill:#FF0000;}
</style>
<g>
	<g>
		<rect id="rect5539_3_" x="1.09" y="0.04" class="st0" width="245.22" height="303.72"/>
		<rect id="rect5541_3_" y="338.48" class="st0" width="620.66" height="92.23"/>
		<path id="path5543_3_" class="st1" d="M550.64,0.04h344l219.61,165.48l-168.72,108.4L550.64,0.04z"/>
		<path id="path5547_3_" class="st1" d="M1752.14,0.04l670.31,430.67h138.67V0.04h-122.61v300.46L1986.15,0.04H1752.14z"/>
		<path id="path5549_11_" class="st1" d="M1749.1,46.12l265.76,170.75v213.85h-266.9L1749.1,46.12z"/>
		<path id="path5549_10_" class="st1" d="M1446.76,0.04L972.14,304.99v125.73h247.45V294l424.4-293.95H1446.76z"/>
		<path id="path5549_9_" class="st1" d="M1760.44,5.37l265.76,170.75"/>
		<g>
			<path id="path5551-7_7_" class="st1" d="M3431.99,430.71l-518.03-226.35l115.34-42.23l190.8,83.33l88.84-32.52l498.38,217.76
				H3435.6H3431.99z"/>
			<path id="path5553-8_7_" class="st2" d="M3203.98,366.59l-153.84-67.22l-360.95,131.34h339.6L3203.98,366.59z"/>
		</g>
		<g>
			<path id="path5551-7_6_" class="st2" d="M3097.2,0l518.03,226.35l-115.34,42.23l-190.8-83.33l-88.84,32.52L2721.86,0l371.73,0
				L3097.2,0z"/>
			<path id="path5553-8_6_" class="st1" d="M3325.21,64.12l153.84,67.22L3840,0l-339.6,0L3325.21,64.12z"/>
		</g>
	</g>
</g>
</svg>
