<?xml version="1.0" encoding="utf-8"?>
<!-- Generator: Adobe Illustrator 27.0.0, SVG Export Plug-In . SVG Version: 6.00 Build 0)  -->
<svg version="1.1" id="Layer_1" xmlns="http://www.w3.org/2000/svg" xmlns:xlink="http://www.w3.org/1999/xlink" x="0px" y="0px"
	 viewBox="0 0 3839 884.34" style="enable-background:new 0 0 3839 884.34;" xml:space="preserve">
<style type="text/css">
	.st0{fill:#929497;}
	.st1{fill:#CE181E;}
	.st2{fill:#A0C90C;}
	.st3{fill:#E20123;}
	.st4{fill:#02A7E0;}
	.st5{fill:#F5AB00;}
	.st6{fill:#F02590;}
	.st7{fill:#049B81;}
	.st8{fill:#FFFFFF;}
</style>
<g>
	<path class="st0" d="M2154.82,675.74h-167.49c-24.31,0-43.98,19.88-43.98,44.09v119.49c0,24.1,19.67,43.98,43.98,43.98h167.49
		c24.31,0,43.98-19.88,43.98-43.98V719.83C2198.8,695.63,2179.13,675.74,2154.82,675.74 M2161.92,839.01c0,4.74-3.91,8.65-8.65,8.65
		h-164.5c-4.84,0-8.55-3.91-8.55-8.65V720.04c0-4.74,3.81-8.55,8.55-8.55h164.5c4.74,0,8.65,3.81,8.65,8.55V839.01z"/>
	<polygon class="st8" points="233.71,497.03 233.71,650.82 195.29,650.82 195.29,443.26 228.15,443.26 383.8,594.37 383.8,443.26 
		414.49,443.26 421.7,443.26 421.7,650.82 391.62,650.82 	"/>
	<polygon class="st8" points="619.07,497.03 619.07,650.82 580.54,650.82 580.54,443.26 613.4,443.26 768.94,594.37 768.94,443.26 
		799.74,443.26 806.95,443.26 806.95,650.82 776.98,650.82 	"/>
	<polygon class="st8" points="1417.38,497.03 1417.38,650.82 1378.96,650.82 1378.96,443.26 1411.71,443.26 1567.36,594.37 
		1567.36,443.26 1598.16,443.26 1605.37,443.26 1605.37,650.82 1575.39,650.82 	"/>
	<polygon class="st8" points="513.17,443.26 520.28,443.26 520.28,650.82 481.86,650.82 481.86,443.26 	"/>
	<polygon class="st8" points="1068.59,443.26 1075.6,443.26 1075.6,479 982.99,479 982.99,650.82 943.13,650.82 943.13,479 
		850.42,479 850.42,443.26 	"/>
	<polygon class="st8" points="1314.78,443.26 1321.89,443.26 1321.89,479 1157.28,479 1157.28,525.56 1284.71,525.56 1284.71,561.2 
		1157.28,561.2 1157.28,615.07 1321.89,615.07 1321.89,650.82 1119.17,650.82 1119.17,443.26 	"/>
	<path class="st8" d="M1882.05,473.64c-15.04-19.88-37.29-30.39-64.17-30.39h-154v207.56h154c26.89,0,49.13-10.51,64.17-30.28
		c14.11-18.44,21.53-43.88,21.53-73.55C1903.58,517.42,1896.06,491.98,1882.05,473.64 M1818.91,615.07h-117.94V479h1.13h116.91
		c36.88,0,50.06,36.67,50.06,67.99C1868.97,578.4,1855.89,615.07,1818.91,615.07"/>
	<path class="st8" d="M2154.82,443.26h-167.49c-24.31,0-43.98,19.88-43.98,44.09v119.59c0,24.1,19.67,43.98,43.98,43.98h167.49
		c24.31,0,43.98-19.88,43.98-43.98v-119.7C2198.8,463.03,2179.13,443.26,2154.82,443.26 M2161.92,606.52c0,4.64-3.91,8.55-8.65,8.55
		h-164.5c-4.84,0-8.55-3.91-8.55-8.55V487.55c0-4.64,3.81-8.45,8.55-8.45h164.5c4.74,0,8.65,3.81,8.65,8.45V606.52z"/>
	<path class="st8" d="M3403.38,796.26c39.97,15.76,124.02,28.43,189.64,28.43c71.8,0,101.67-24.62,101.67-55.52
		c0-27.81-27.71-44.09-107.13-73.14c-106-39.25-183.87-70.15-183.87-139.89c0-72.21,93.63-114.65,236.51-114.65
		c76.54,0,102.91,4.84,151.63,13.8l0.31,68.5c-47.8-9.17-90.13-24.62-156.06-24.62c-70.56,0-100.64,22.35-100.64,45.43
		c0,33.48,46.35,49.44,127.63,78.39c113,40.48,175.94,71.69,175.94,139.89c0,70.25-78.8,120.83-256.39,120.83
		c-73.03,0-123.3-4.74-179.23-13.8L3403.38,796.26L3403.38,796.26z"/>
	<path class="st8" d="M3252.27,851.89c-41.82,18.85-120.93,31.01-190.05,31.01H2797.9V442.43h264.32
		c69.12,0,148.23,12.26,190.15,31.11c101.77,45.94,135.04,119.49,135.04,189.12C3387.31,732.5,3354.35,805.84,3252.27,851.89
		 M3025.23,502.07h-84.57v319.94h84.57c129.89,0,211.68-55.42,211.68-159.35C3236.92,558.83,3155.13,502.07,3025.23,502.07"/>
	<path class="st1" d="M2612.58,641.85c0,0,123.3-19.67,123.3-96.42c0-75.09-131.34-105.79-271.01-105.79
		c-125.98,0-208.9,15.45-208.9,15.45v68.19c57.17-13.8,111.97-25.65,186.55-25.65c80.04,0,141.12,23.9,141.12,57.68
		c0,40.69-60.36,63.87-190.46,63.87h-59.74v61.39h55.62c136.9,0,214.88,20.6,214.88,70.87c0,44.81-69.63,72.11-156.37,72.11
		c-75.71,0-144.83-16.07-201.07-31.62v73.44c26.99,4.64,98.58,18.95,231.77,18.95c147.61,0,276.06-47.49,276.06-131.13
		C2754.22,683.06,2665.32,641.85,2612.58,641.85"/>
	<path class="st2" d="M99.08,166.88L7.82,154.83c-2.78-0.41-5.25,1.55-5.56,4.33c-2.99,25.44-2.99,51.2-0.1,76.64
		c0.31,2.78,2.88,4.74,5.67,4.33l91.27-11.95c2.68-0.31,4.53-2.78,4.22-5.46c-1.85-16.69-1.75-33.58,0.1-50.37
		C103.61,169.77,101.86,167.3,99.08,166.88"/>
	<path class="st3" d="M145.43,57.08L72.4,1.04c-2.16-1.65-5.36-1.34-7,0.93c-15.35,20.6-28.22,42.85-38.42,66.34
		c-1.13,2.47,0.1,5.46,2.68,6.49l84.98,35.33c2.47,1.03,5.36-0.1,6.39-2.58c6.8-15.45,15.25-30.08,25.24-43.68
		C148.01,61.82,147.6,58.83,145.43,57.08"/>
	<path class="st4" d="M113.91,285.14l-85.08,35.13c-2.47,1.03-3.81,4.02-2.68,6.59c10.2,23.59,22.97,45.84,38.32,66.44
		c1.65,2.16,4.84,2.58,7,0.93l73.14-55.93c2.16-1.65,2.58-4.74,0.93-6.9c-9.89-13.6-18.34-28.22-25.13-43.68
		C119.27,285.24,116.39,284.11,113.91,285.14"/>
	<path class="st8" d="M794.59,262.89h-75.4c-4.64,0-7.42,1.13-8.76,1.85c-0.31,0.21-0.62,0.41-0.93,0.62l-0.1,0.1
		c-11.64,7.73-28.22,14.83-49.65,14.83c-56.96,0-78.29-47.18-78.29-82.41c0-37.6,22.76-82.41,78.6-82.41
		c40.59,0,65.51,25.24,71.9,50.16c0.72,2.88,1.44,5.67-1.55,5.67H621.64c-3.09,0-5.67,2.58-5.67,5.67v46.87
		c0,3.19,2.58,5.67,5.67,5.67h150.39c31.11,0,39.35-9.79,39.35-38.94c0-84.78-69.74-145.24-150.08-145.24
		s-151.83,61.5-151.83,142.98c0,89.51,50.16,162.03,152.25,162.03c84.98,0,122.79-50.58,138.34-81.58
		C800.67,267.42,802.22,262.89,794.59,262.89"/>
	<path class="st8" d="M199.41,342.82c-2.27,0-4.02-1.85-4.02-4.02V172.14c0-63.25,52.84-126.49,138.65-126.49
		s138.65,63.25,138.65,126.49V338.7c0,2.27-1.85,4.02-4.12,4.02h-68.19c-2.27,0-4.12-1.85-4.12-4.02V181.82
		c0-29.87-21.73-59.85-62.22-59.85c-40.59,0-62.32,29.98-62.32,59.85V338.7c0,2.27-1.85,4.02-4.02,4.02h-68.29V342.82z"/>
	<path class="st8" d="M1076.94,52.85c2.27,0,4.12,1.85,4.12,4.02v172.85c0,29.77,13.08,43.88,34.1,43.88s36.46-14.11,36.46-43.88
		V56.87c0-2.27,1.85-4.02,4.02-4.02h71.8c2.27,0,4.02,1.85,4.02,4.02v178.62c0,70.35-47.18,114.44-104.45,114.44
		c-24.21,0-61.5-6.18-88.38-40.79c-22.04,34.61-57.79,40.79-83.54,40.79c-57.27,0-104.45-44.09-104.45-114.44V56.87
		c0-2.27,1.85-4.02,4.12-4.02h71.8c2.27,0,4.02,1.85,4.02,4.02v172.85c0,29.77,16.28,43.88,36.46,43.88
		c20.19,0,34.1-14.11,34.1-43.88V56.87c0-2.27,1.85-4.02,4.12-4.02H1076.94z"/>
	<path class="st5" d="M1341.26,228.48l91.27,12.05c2.78,0.41,5.25-1.55,5.67-4.33c2.99-25.44,2.99-51.2,0.1-76.64
		c-0.31-2.78-2.88-4.74-5.56-4.33l-91.27,11.85c-2.68,0.31-4.53,2.78-4.22,5.46c1.85,16.69,1.85,33.58-0.1,50.37
		C1336.72,225.7,1338.58,228.17,1341.26,228.48"/>
	<path class="st6" d="M1295.01,338.29l73.03,56.14c2.27,1.65,5.36,1.24,7-0.93c15.35-20.6,28.22-42.85,38.42-66.34
		c1.13-2.47-0.1-5.46-2.68-6.49l-84.98-35.33c-2.47-1.03-5.36,0.1-6.49,2.58c-6.8,15.45-15.25,29.98-25.24,43.57
		C1292.43,333.55,1292.74,336.64,1295.01,338.29"/>
	<path class="st7" d="M1326.42,110.33l85.08-35.23c2.58-1.03,3.81-4.02,2.68-6.49c-10.2-23.59-22.97-45.84-38.22-66.44
		c-1.65-2.27-4.84-2.58-7-0.93l-73.14,55.93c-2.16,1.65-2.58,4.64-0.93,6.9c9.89,13.6,18.34,28.22,25.13,43.68
		C1321.17,110.23,1323.95,111.36,1326.42,110.33"/>
</g>
</svg>
