<?xml version="1.0" encoding="utf-8"?>
<!-- Generator: Adobe Illustrator 26.3.1, SVG Export Plug-In . SVG Version: 6.00 Build 0)  -->
<svg version="1.1" id="Layer_1" xmlns="http://www.w3.org/2000/svg" xmlns:xlink="http://www.w3.org/1999/xlink" x="0px" y="0px"
	 viewBox="0 0 3839 657.3" style="enable-background:new 0 0 3839 657.3;" xml:space="preserve">
<style type="text/css">
	.st0{display:none;}
	.st1{display:inline;}
	.st2{fill:#17B3E8;}
	.st3{fill:#A19FA3;}
	.st4{fill:#A1A0A4;}
	.st5{fill:#FFFFFF;}
	.st6{fill-rule:evenodd;clip-rule:evenodd;}
	.st7{fill-rule:evenodd;clip-rule:evenodd;fill:#FFFFFF;}
	.st8{fill:#808184;}
	.st9{fill:#ED0972;}
</style>
<g id="Builder" class="st0">
	
		<image style="display:inline;overflow:visible;" width="514" height="355" xlink:href="../../dsiware-img1.png"  transform="matrix(1 0 0 1 1443.6539 156.2318)">
	</image>
	<g class="st1">
		<g>
			<path class="st2" d="M1799,194.8l-8.4,0l-0.8,0.1c-1.7,0.1-3.2,0.9-4.3,2.2l0,0l0.9-5h-9.3l-5.6,31.6h9.3l2.8-15.9
				c0.5-2.8,3-4.9,5.8-4.9l8,0L1799,194.8z"/>
			<path class="st2" d="M1730.6,182.5l-5.1,28.8c-0.4,2.3-2.6,4.2-5,4.2c-2.3,0-3.9-1.9-3.5-4.2l5.1-28.8h-4.6h-4.6l-5.1,28.8
				c-0.4,2.3-2.6,4.2-5,4.2c-2.3,0-3.9-1.9-3.5-4.2l5.1-28.8h-9.3l-4.8,27.2l-0.3,1.6c-1.3,7.4,3.7,13.4,11.1,13.4
				c3.4,0,6.7-1.3,9.5-3.4c2,2.1,4.9,3.4,8.3,3.4c7.4,0,14.6-6,15.9-13.4l0.2-1.3l4.8-27.5H1730.6z M1698.6,211.3L1698.6,211.3
				L1698.6,211.3z M1726.3,211.3L1726.3,211.3C1726.3,211.3,1726.3,211.3,1726.3,211.3z"/>
			<path class="st2" d="M1760,212.2l0.9-5.3c0.4-2.2-0.7-4.4-2.7-5.4c-0.7-0.3-1.5-0.5-2.3-0.5c-3.9,0-7.4,3.6-8.1,7.5
				c-0.7,3.9,1.6,7.1,5.6,7.1c1.3,0,2.6-0.3,3.7-1l-1.5,8.5c-2,1.8-5.7,1.7-6.6,1.6c-8-1.1-12.2-7.3-10.4-16.2
				c1.8-9,9.8-16.4,18.9-16.4c3.7,0,6.9,1.2,9.2,3.3c3,2.6,4.3,6.6,3.6,10.5l-1.5,8.4l0,0l-1.7,9.7h-9.3l2.5-14.1"/>
			<g>
				<path class="st2" d="M1817.3,192.1c-10.3,0-17.7,7.1-19.2,16.2c-1.5,9.2,4.8,16.2,13.9,16.4c5.5,0.1,10.8-2.3,14.4-6.2l-5.7-4.9
					c-1.9,2.4-4.8,3.9-7.8,3.9c-4.1,0-6.7-4.1-5.6-9.1c1.6-7.1,4.7-9.3,8.8-9.3c3.3,0,4.9,2.2,4.9,5.8l-10.1,0l-1.2,6.6l11,0v0h8.7
					c0.1-0.8,0.3-1.8,0.4-2.7C1831.3,199.8,1826.1,192.1,1817.3,192.1z"/>
			</g>
		</g>
		<g>
			<polygon class="st3" points="1829.5,218.9 1833.5,218.9 1833.5,219.6 1831.9,219.6 1831.9,224 1831.1,224 1831.1,219.6 
				1829.5,219.6 			"/>
			<polygon class="st3" points="1834.1,218.9 1835.3,218.9 1836.6,223 1837.8,218.9 1839.1,218.9 1839.1,224 1838.2,224 
				1838.2,219.8 1837,224 1836.1,224 1834.9,219.8 1834.9,224 1834.1,224 			"/>
		</g>
	</g>
	<g class="st1">
		<path class="st2" d="M1624.2,216.3c3.2,1.3,10.1,2.3,15.4,2.3c5.8,0,8.2-2,8.2-4.5c0-2.3-2.2-3.6-8.7-5.9
			c-8.6-3.2-14.9-5.7-14.9-11.3c0-5.8,7.6-9.3,19.2-9.3c6.2,0,8.3,0.4,12.3,1.1l0,5.5c-3.9-0.7-7.3-2-12.6-2c-5.7,0-8.2,1.8-8.2,3.7
			c0,2.7,3.8,4,10.3,6.4c9.2,3.3,14.3,5.8,14.3,11.3c0,5.7-6.4,9.8-20.8,9.8c-5.9,0-10-0.4-14.5-1.1"/>
		<path class="st2" d="M1612,220.8c-3.4,1.5-9.8,2.5-15.4,2.5h-21.5v-35.7h21.5c5.6,0,12,1,15.4,2.5c8.3,3.7,11,9.7,11,15.3
			C1622.9,211.2,1620.2,217.1,1612,220.8 M1593.5,192.5h-6.9v25.9h6.9c10.5,0,17.2-4.5,17.2-12.9
			C1610.7,197.1,1604.1,192.5,1593.5,192.5"/>
		<path class="st2" d="M1673.5,183c1.2,0,2.2,0.9,2.2,2.1c0,1.2-1,2.1-2.2,2.1c-1.2,0-2.2-0.9-2.2-2.1S1672.3,183,1673.5,183
			 M1675.4,200.6h-3.7v-11.3h3.7V200.6z M1673.5,204.2c6.8,0,12.4-5.5,12.4-12.4c0-6.8-5.6-12.4-12.4-12.4
			c-6.8,0-12.4,5.5-12.4,12.4C1661.1,198.6,1666.7,204.2,1673.5,204.2"/>
	</g>
</g>
<g>
	<g>
		<polygon class="st5" points="3697.7,570.5 3756.8,570.5 3756.8,581.6 3733.7,581.6 3733.7,646.2 3721,646.2 3721,581.6 
			3697.7,581.6 		"/>
		<polygon class="st5" points="3765.8,570.5 3784,570.5 3802.3,630.9 3820.6,570.5 3839,570.5 3839,646.2 3827,646.2 3827,583.6 
			3808.2,646.2 3795.9,646.2 3777.5,583.6 3777.5,646.2 3765.8,646.2 		"/>
		<path class="st9" d="M2267.6,44.8l-71.5,405.4l-0.3,1.6c-1.6,9.7-10.4,41.3-28.9,57.8c-4,3.4-15.6,13.9-43.9,14.1
			c-55.6,0.4-56.2-53.3-53.4-78.3l38-215.6l0.3-1.9l-38.2,216.6l70.5-399.7h-128.8l-32.3,183.2v-0.1l-24.4,138.6l-0.8,4.5l25.2-143
			l-0.4,1.9L1941,444.6c-5.8,24.7-25,79.5-81,79.1c-28.3-0.2-36.3-10.7-39-14.1c-12.7-16.5-10.3-48.1-8.5-57.8l0.3-1.6l71.5-405.4
			l-128.7-0.9l-71.5,405.2c-2.9,15.5-15.3,94.9,27.9,152.5c18.8,25.2,55.7,55.3,124.4,55.7c57.6,0.4,104.3-21.2,140.7-52.3
			c25.4,31.1,64.6,52.7,122.4,52.3c68.8-0.4,116.3-30.5,144-55.7c63.5-57.6,79-137,81.6-152.5l71.4-405.2L2267.6,44.8z"/>
		<path class="st9" d="M2628.1,634.3c-27.1,17.1-55.5,23-91.2,23c-84.7,0-180-80.5-152-234.9c24.6-134.9,136.2-236.7,265.3-236.7
			c125.7,0,216,75.8,190,218.3l-44,242.2h-133.2l37.6-207.1c14.5-79.5,3.4-127.6-68.5-127.6c-62.4,0-103.6,54.1-113.4,107.3
			c-12.6,69.9,19.6,103.6,69.5,103.6c24.4,0,46.3-5.5,62.2-11.4L2628.1,634.3z"/>
		<path class="st9" d="M3165.2,223.2c-36.4,0-69.4,10-99.6,28.8l11.5-63.8h-133l-83.9,458.6h133.2l44.6-243.6
			c9.6-24.8,35.7-62,105.9-62h94.3l21.4-118.1h-93.9"/>
		<path class="st9" d="M3382.2,417.7c-17.6,100.2,31.6,134.2,85.3,134.2c45.3,0,79.8-23.2,108.6-54.6l84.4,71.1
			c-54.2,56.4-133,88.8-205.1,88.8c-138.6,0-233.3-92.5-208-235.8c25.2-143.2,137-235.6,275.7-235.6c110.7,0,210,92.4,184.8,235.6
			l-7.6,43.4h-284.4l16.6-94.3h145.7c9.1-46.2-20.1-85.1-70.2-85.1C3447,285.6,3399.9,317.7,3382.2,417.7"/>
		<path class="st7" d="M714,536.2c46.9,18.6,145.9,33.5,223.3,33.5c84.6,0,119.7-29,119.7-65.4c0-32.7-32.6-52-126.1-86.1
			C806,372.2,714.3,335.8,714.3,253.7c0-84.9,110.2-135,278.4-135c90.2,0,121.2,5.7,178.5,16.3l0.3,80.6
			c-56.1-10.8-106.1-29.1-183.6-29.1c-83.1,0-118.5,26.4-118.4,53.5c0,39.4,54.4,58.3,150.1,92.4C1152.8,380,1227,416.9,1227,497.1
			c-0.2,82.7-92.9,142.3-302,142.3c-86,0-145.2-5.7-211.1-16.3V536.2z"/>
		<path class="st7" d="M268.3,190h-99.7v376.8h99.7c153.1,0,249.7-65.4,249.7-187.6C517.9,257,421.4,190,268.3,190 M535.9,601.9
			c-49.3,22.2-142.5,36.3-224.1,36.3H0V119.9h311.8c81.5,0,174.8,14.4,224.1,36.5c119.9,54.2,159,140.7,159,222.8
			C694.9,461.3,656.1,547.7,535.9,601.9"/>
		<path class="st5" d="M1430.9,0C1331.6,0,1251,80.5,1251,179.9s80.6,179.9,179.9,179.9S1611,279.2,1611,179.9S1530.2,0,1430.9,0
			 M1457.9,308.8h-53.8V144.6h53.8V308.8z M1430.6,113.8c-17.3,0-31.5-13.7-31.5-30.4c0-16.8,14.2-30.5,31.5-30.5
			c18.1,0,32.4,13.4,32.4,30.5C1463,100.4,1448.7,113.8,1430.6,113.8"/>
	</g>
</g>
</svg>
