<?xml version="1.0" encoding="utf-8"?>
<!-- Generator: Adobe Illustrator 26.0.3, SVG Export Plug-In . SVG Version: 6.00 Build 0)  -->
<svg version="1.1" id="Layer_1" xmlns="http://www.w3.org/2000/svg" xmlns:xlink="http://www.w3.org/1999/xlink" x="0px" y="0px"
	 viewBox="0 0 3839 647.2" style="enable-background:new 0 0 3839 647.2;" xml:space="preserve">
<style type="text/css">
	.st0{fill:#FFFFFF;}
	.st1{fill:#E31E26;}
	.st2{fill:#30308F;}
	.st3{fill:#C6C6C6;}
</style>
<g>
	<g>
		<g>
			<g>
				<g>
					<g>
						<path class="st0" d="M781.3,330.6l-23.3-120l-53.7,120.1h77 M1623.9,635.6h-127.1l-17-382.7l-165.3,382.7h-84.7l-70.7-346
							l-110.2,346h-216l-32.5-185H653.5l-83.3,185H437.5L710,17h156.8l83.4,500l162.5-500h125.7l62.1,338.9L1444.4,17H1597
							L1623.9,635.6"/>
						<polyline class="st0" points="1988.3,635.6 2009.5,502.9 1787.6,502.9 1805.3,392.7 1998.2,392.7 2019.4,259.9 1824.4,259.9 
							1841.3,149.8 2063,149.8 2084.2,17 1732.5,17 1633.8,635.6 1988.3,635.6 						"/>
						<polyline class="st0" points="3639.3,17 3491.1,17 3365.4,219 3286.2,17 3140.8,17 3290.5,343.2 3244.4,635.6 3371.5,635.6 
							3410.6,377.1 3639.3,17 						"/>
						<path class="st0" d="M2884.6,517.9c67.3,30.1,149.6-28.9,183.9-131.9c34.3-102.9,7.6-210.7-59.7-240.8
							c-67.2-30.1-149.5,29-183.9,131.9C2790.8,380,2817.4,487.8,2884.6,517.9 M2692.3,273.1c39.5-171,185.7-283.2,326.5-250.7
							c140.9,32.6,223,197.5,183.6,368.5c-39.5,171.1-185.7,283.2-326.5,250.7C2735.1,609.1,2652.8,444.2,2692.3,273.1"/>
						<path class="st0" d="M166.2,72.1c-121,75-179.3,189.2-163.7,344.6c18,180.3,251.4,293.8,449.2,179.5c17.3-10,10.5-8.5,17-14.2
							l39.6-251.3h-236l-18.1,115.8h98.6l-11.3,62.2C285,531.3,189,522.8,148.1,449.3c-25.9-46.5-50-150.4,59.4-245.7
							c89-77.7,242.9-91.8,331.9-50.8c0,0,11.3-65,19.8-125.8C388-32.4,255.2,17,166.2,72.1"/>
						<path class="st0" d="M2277.8,20.5l-98.2,613.9c0,0,203.2,0,285.9,0c117.8,0,289.9-173.6,133.2-315.4
							c161.2-166.8,1.4-297.1-84.1-298.5c-68.7-1.2-238.3,0-238.3,0L2277.8,20.5 M2347.9,391.9c0,0,26.6,0,106.5,0
							c100.9,0,98.2,123.4-14,123.4c-70.1,0-112.2,0-112.2,0L2347.9,391.9 M2387.2,150.9c0,0,2.8,0,82.7,0c89.7,0,71.5,115-14,115
							c-70.1,0-88.3,0-88.3,0L2387.2,150.9"/>
					</g>
				</g>
			</g>
		</g>
	</g>
	<g>
		<path class="st1" d="M3748.7,131.7l50.1-30.9V78.4h-71.7v22.2h50.1l-50.1,31.1v22.2h71.7v-22.2H3748.7z M3774.8,307.4h7.1v-11.7
			h9.7v-21.6h-9.7v-11.7h-7.1v11.7h-47.7v21.6h47.7V307.4z M3727.1,166.2v21.6h47.7v-21.6H3727.1z M3784.3,166.2v21.6h14.7v-21.6
			H3784.3z M3778,543.9c0-17.4-11.9-31.5-26.9-31.5c-14.7,0-26.9,14.1-26.9,31.5s11.9,31.5,26.9,31.5S3778,561.7,3778,543.9z
			 M3741.3,552.6c-7.7,0-10.7-4.4-10.7-8.9c0-4.2,3.2-8.9,10.7-8.9c2.8,0,10.3,0,10.3,0s7.1,0,9.9,0c7.5,0,10.7,4.4,10.7,8.9
			c0,4.2-3,8.9-10.7,8.9c-2.8,0-8.3,0-10.1,0C3751.1,552.6,3744.1,552.6,3741.3,552.6z M3772.4,484.3c2-3.4,3.8-7.1,4.2-12.1
			c1.4-15.6-12.3-27.5-25-27.5c-16.6,0-22.8,12.7-23.6,14.7c-3.4,7.3-3.4,16.6,1.8,24.8c-0.4,0-2.8,0-2.8,0v21.2h71.7v-21.2
			C3798.8,484.3,3783.5,484.3,3772.4,484.3z M3751.1,484.3c0,0-5.4,0-8.5,0c-7.3,0-9.3-5-9.3-8.5s2-8.5,9.3-8.5c2.6,0,8.5,0,8.5,0
			s6.1,0,8.5,0c7.5,0,9.3,5,9.3,8.5s-1.8,8.5-9.3,8.5C3757.2,484.3,3751.1,484.3,3751.1,484.3z M3777,238.3
			c-0.2-7.1-3.2-13.1-7.3-17.2c1.2,0,5,0,5,0v-21.4h-47.7v21.4c0,0,29.3,0,31.3,0c4.2,0,8.7,4.4,8.7,10.3s-4.6,9.9-8.7,9.9
			c-3,0-31.3,0-31.3,0v21.4c0,0,22.6,0,25.8,0C3771.9,262.8,3777.2,246.4,3777,238.3z M3777,413.6c-0.2-7.1-3.2-13.1-7.3-17.2
			c1.2,0,5,0,5,0v-21.4h-47.7v21.4c0,0,29.3,0,31.3,0c4.2,0,8.7,4.4,8.7,10.3c0,5.8-4.6,9.9-8.7,9.9c-3,0-31.3,0-31.3,0v21.4
			c0,0,22.6,0,25.8,0C3771.9,437.9,3777.2,421.5,3777,413.6z M3750.7,368.2c14.7,0,27.1-14.3,27.1-31.9s-11.9-31.7-26.9-31.7
			c-14.7,0-26.9,14.1-26.9,31.7c0,14.5,8.3,26.9,19.6,30.7v-21.4c0,0-0.2,0-2.8,0c-8.7,0-10.7-5.7-10.7-8.9c0-3.2,2-9.1,10.7-9.1
			c2.6,0,9.9,0,9.9,0V368.2z M3767.5,329.2c3,1.6,4.2,4.9,4.4,7.7c0,2.8-1.4,5.8-4.4,7.7c-2.4,1.4-5.3,1.4-9.3,1.4v-18
			C3762.5,327.6,3765.1,327.6,3767.5,329.2z M3789.9,584.3c2.4,0,3.4-1.8,3.4-5.3v-4.8H3781v3h5v1.4l-5,2.4v3.2l5.4-2.6
			C3787.1,583.3,3788.3,584.3,3789.9,584.3z M3788.1,578.7v-1.4h3.6v1.2c0,1.8-0.6,2.6-1.8,2.6
			C3788.5,581.3,3788.1,580.3,3788.1,578.7z M3798.2,578.7c0-6.1-4.9-11.1-11.1-11.1c-6.1,0-11.1,5-11.1,11.1
			c0,6.1,5,11.1,11.1,11.1C3793.3,589.8,3798.2,584.7,3798.2,578.7z M3778.2,578.7c0-4.9,4-8.9,8.9-8.9c4.9,0,8.9,4,8.9,8.9
			s-4,8.9-8.9,8.9S3778.2,583.7,3778.2,578.7z M3839,554.6V97.8c0.2-48.3-34.7-80.8-76.3-80.8c-41.6,0-75.9,32.3-75.9,81v456.6
			c0,48.5,34.3,81,75.9,81C3804.5,635.4,3839.2,602.9,3839,554.6z M3705.3,554.4V98c-0.2-38.6,25.7-62,57.6-62
			c31.9,0,57.4,23.6,57.6,62v456.4c0,38.4-25.7,62-57.6,62C3731,616.4,3705.3,592.8,3705.3,554.4z M3839,554.6V97.8
			c0.2-48.3-34.7-80.8-76.3-80.8c-41.6,0-75.9,32.3-75.9,81v456.6c0,48.5,34.3,81,75.9,81C3804.5,635.4,3839.2,602.9,3839,554.6z
			 M3705.3,554.4V98c-0.2-38.6,25.7-62,57.6-62c31.9,0,57.4,23.6,57.6,62v456.4c0,38.4-25.7,62-57.6,62
			C3731,616.4,3705.3,592.8,3705.3,554.4z M3839,554.6V97.8c0.2-48.3-34.7-80.8-76.3-80.8c-41.6,0-75.9,32.3-75.9,81v456.6
			c0,48.5,34.3,81,75.9,81C3804.5,635.4,3839.2,602.9,3839,554.6z M3705.3,554.4V98c-0.2-38.6,25.7-62,57.6-62
			c31.9,0,57.4,23.6,57.6,62v456.4c0,38.4-25.7,62-57.6,62C3731,616.4,3705.3,592.8,3705.3,554.4z"/>
	</g>
</g>
</svg>
