<?xml version="1.0" encoding="utf-8"?>
<!-- Generator: Adobe Illustrator 25.4.1, SVG Export Plug-In . SVG Version: 6.00 Build 0)  -->
<svg version="1.1" id="Layer_1" xmlns="http://www.w3.org/2000/svg" xmlns:xlink="http://www.w3.org/1999/xlink" x="0px" y="0px"
	 viewBox="0 0 3839 1503.7" style="enable-background:new 0 0 3839 1503.7;" xml:space="preserve">
<style type="text/css">
	.st0{fill:#232F95;}
	.st1{fill:#FFFFFF;}
	.st2{fill:url(#SVGID_1_);}
	.st3{fill:url(#SVGID_00000047057511835146977830000018373297848405938566_);}
	.st4{fill:url(#SVGID_00000028318225119121669200000005835623432439415953_);}
	.st5{fill:url(#SVGID_00000111901446239006421490000009164058356443233956_);}
	.st6{fill:url(#SVGID_00000056404573728722449510000001108525679344457091_);}
	.st7{fill:url(#SVGID_00000127750485656772357480000009741493624759763843_);}
	.st8{fill:url(#SVGID_00000062186855601773293040000003406937871293288353_);}
	.st9{fill:url(#SVGID_00000079456875474624806920000009829854514432336266_);}
	.st10{fill:url(#SVGID_00000061466424208124507070000001616453607015195310_);}
	.st11{fill:url(#SVGID_00000075160338043495113030000003134834999500884914_);}
	.st12{fill:url(#SVGID_00000182486415262029808470000016812655862358503095_);}
	.st13{fill:url(#SVGID_00000168799633992766561260000010476984789277953426_);}
	.st14{fill:url(#SVGID_00000118389858071421659940000007158435225234811048_);}
	.st15{fill:url(#SVGID_00000005245564869439727540000014233181007442446755_);}
	.st16{fill:url(#SVGID_00000013163457794760152900000013892783209432150442_);}
	.st17{fill:url(#SVGID_00000059992127177658341570000007398449399537690496_);}
	.st18{fill:url(#SVGID_00000034063462011952113610000000361141837874862996_);}
	.st19{fill:url(#SVGID_00000039834804138702141340000015470617994149853316_);}
	.st20{fill:url(#SVGID_00000121997948682778124290000012171696166004824708_);}
	.st21{fill:url(#SVGID_00000005247763298278345870000014690108413848868252_);}
	.st22{fill:url(#SVGID_00000124138293053673208380000001720306106168638368_);}
	.st23{fill:url(#SVGID_00000079447724459701094350000002873938838556204218_);}
	.st24{fill:url(#SVGID_00000172434677183610939120000010454457409322347148_);}
	.st25{fill:url(#SVGID_00000130637890186591404130000002487837683922180796_);}
	.st26{fill:url(#SVGID_00000115478296344819501730000004767211911017947289_);}
	.st27{fill:url(#SVGID_00000052086777783883029550000002576257018712261043_);}
	.st28{fill:url(#SVGID_00000116950760173609687230000014278494373164805532_);}
	.st29{fill:url(#SVGID_00000080901725125366276680000017846551854148039580_);}
	.st30{fill:url(#SVGID_00000102542135632487761470000006478139124890320055_);}
	.st31{fill:url(#SVGID_00000114766311697294619140000009880588740767578540_);}
	.st32{fill:url(#SVGID_00000133487402753863933820000017647460442360048541_);}
	.st33{fill:url(#SVGID_00000039853737686854165240000001796641761242123409_);}
	.st34{fill:url(#SVGID_00000097465179128482111600000017703820990916122035_);}
	.st35{fill:url(#SVGID_00000128479115778200264270000008476615336605868445_);}
	.st36{fill:url(#SVGID_00000134251278355286261650000014641982156620895116_);}
	.st37{fill:url(#SVGID_00000183241216764537066650000005718082863888724105_);}
	.st38{fill:url(#SVGID_00000140000173481956695410000004612098222540453301_);}
	.st39{fill:url(#SVGID_00000183222252049796888960000007850774800541140919_);}
	.st40{fill:url(#SVGID_00000079463168732504449160000011315733776373491343_);}
	.st41{fill:url(#SVGID_00000052802394331660485360000001847152247501731773_);}
	.st42{fill:url(#SVGID_00000072242325276514984950000016478966888504146613_);}
	.st43{fill:url(#SVGID_00000036242122474658981960000007552370398198748813_);}
	.st44{fill:url(#SVGID_00000008147268625302238620000002199686652341655227_);}
	.st45{fill:url(#SVGID_00000005269018370061193950000000794858932674778784_);}
	.st46{fill:url(#SVGID_00000130645662620256488330000007280798153695801276_);}
	.st47{fill:url(#SVGID_00000091738006660183718160000001915021964972470406_);}
	.st48{fill:url(#SVGID_00000080177429953047507000000015168880174541800077_);}
	.st49{fill:url(#SVGID_00000026858230439880660440000003844219580974596002_);}
	.st50{fill:url(#SVGID_00000147201292389107029660000002960496490673867944_);}
	.st51{fill:url(#SVGID_00000047774176883790392450000004855572015693144989_);}
	.st52{fill:url(#SVGID_00000032633688824591778590000011868908102687526839_);}
	.st53{fill:url(#SVGID_00000013156800184002125170000012982923121001518465_);}
	.st54{fill:url(#SVGID_00000139282869883510730260000006561341847556170932_);}
	.st55{fill:url(#SVGID_00000152243706133532932410000009723556874025864114_);}
	.st56{fill:url(#SVGID_00000142897839697979705140000017113506440306659754_);}
	.st57{fill:url(#SVGID_00000136407052939489172990000004214562296460655753_);}
	.st58{fill:url(#SVGID_00000157283539271641104990000014953377211040111264_);}
	.st59{fill:url(#SVGID_00000046318158896030155850000016674099421866750620_);}
	.st60{fill:url(#SVGID_00000176738346712560892330000011296646280633844907_);}
	.st61{fill:url(#SVGID_00000062187931230194609150000016647484046988232105_);}
	.st62{fill:url(#SVGID_00000109018641647873047010000017892931754882979218_);}
	.st63{fill:url(#SVGID_00000023260395657421614180000015764185459264685960_);}
	.st64{fill:url(#SVGID_00000157273790286334247700000000591590562197487268_);}
	.st65{fill:url(#SVGID_00000103258353355002054840000007142707644099487136_);}
	.st66{fill:url(#SVGID_00000172411785902728731660000009779293018740289726_);}
	.st67{fill:url(#SVGID_00000015350641887852842520000016537757233202128565_);}
	.st68{fill:url(#SVGID_00000065787333744846513710000004519096709012901005_);}
	.st69{fill:url(#SVGID_00000087396243259076054350000017578793801149916820_);}
	.st70{fill:url(#SVGID_00000098927168042620862540000017325043220570127753_);}
	.st71{fill:url(#SVGID_00000113313763751292061050000016115101802384398742_);}
	.st72{fill:url(#SVGID_00000129193423596666391770000003420683787269029040_);}
	.st73{fill:url(#SVGID_00000109751115825739623920000014270334162320475812_);}
	.st74{fill:url(#SVGID_00000181048847240970116650000003169194634794349965_);}
	.st75{fill:url(#SVGID_00000120521826321020549740000015505343656622910124_);}
	.st76{fill:url(#SVGID_00000067212363901885689570000004364482213432059042_);}
	.st77{fill:url(#SVGID_00000127036905050383132630000014607391463333853341_);}
	.st78{fill:url(#SVGID_00000021085625717578553510000015656855560330276492_);}
	.st79{fill:url(#SVGID_00000016042962556670562130000002694240074960332699_);}
	.st80{fill:url(#SVGID_00000123405540237821350810000004295563205703761805_);}
	.st81{fill:url(#SVGID_00000103963094528539587200000017703604369975219852_);}
	.st82{fill:url(#SVGID_00000083084412549626706990000014769796422410295206_);}
	.st83{fill:url(#SVGID_00000134209358000628458790000000854462352788196746_);}
	.st84{fill:url(#SVGID_00000123410380971881749210000013157759609119815821_);}
	.st85{fill:url(#SVGID_00000056399712230895833140000012841846989279824012_);}
	.st86{fill:url(#SVGID_00000080206420845808789280000007900878411555286462_);}
	.st87{fill:url(#SVGID_00000043428403084986472360000017964369772444941989_);}
	.st88{fill:url(#SVGID_00000181054796730947071860000007687064618898016695_);}
	.st89{fill:url(#SVGID_00000129203988371713335990000013713501810460212103_);}
	.st90{fill:url(#SVGID_00000052815568075958520470000017846043475731393409_);}
	.st91{fill:url(#SVGID_00000137101036926634182990000016677991842618858891_);}
	.st92{fill:url(#SVGID_00000150081730174415790070000000564154311619197085_);}
	.st93{fill:url(#SVGID_00000110465126136767133580000003062002715491254923_);}
	.st94{fill:url(#SVGID_00000135675719700804214630000004025862756614519225_);}
	.st95{fill:url(#SVGID_00000040571389286363311550000007520933988737375889_);}
	.st96{fill:url(#SVGID_00000076583002134284039700000017827834722167019455_);}
	.st97{fill:url(#SVGID_00000044138902929257706840000007754900124965735049_);}
	.st98{fill:url(#SVGID_00000071558062841923659650000006728592209017718691_);}
	.st99{fill:url(#SVGID_00000029047034728243926740000001119827029038027188_);}
	.st100{fill:url(#SVGID_00000044171118128937054140000016629312333420323255_);}
	.st101{fill:url(#SVGID_00000001660853291825638240000009888343300012131241_);}
	.st102{fill:#502F8E;}
	.st103{fill:url(#SVGID_00000137127739969055339830000001025426447016604071_);}
	.st104{fill:url(#SVGID_00000078762063838847133030000001228013594968725377_);}
	.st105{fill:url(#SVGID_00000041275175501864499050000007721074099580905401_);}
	.st106{fill:url(#SVGID_00000146477265074071188250000005384180663440973207_);}
	.st107{fill:url(#SVGID_00000047769773000546579590000013260623178635964549_);}
	.st108{fill:url(#SVGID_00000072278050629852940440000015029669464873565601_);}
	.st109{fill:url(#SVGID_00000118370030932896148710000018300805689246011524_);}
	.st110{fill:url(#SVGID_00000007419129078205134150000011567530472120374951_);}
	.st111{fill:url(#SVGID_00000177478742312335835710000018322522796438860430_);}
	.st112{fill:url(#SVGID_00000114785680770533448980000009830605311438285714_);}
	.st113{fill:url(#SVGID_00000068662655133467571890000010939156529148357806_);}
	.st114{fill:url(#SVGID_00000166651664577299182330000010621704145431564710_);}
	.st115{fill:url(#SVGID_00000054982388495792409890000009871150277292857236_);}
	.st116{fill:url(#SVGID_00000017489614876229349490000009529772539082327212_);}
	.st117{fill:url(#SVGID_00000121974580388758879120000000188001890609100966_);}
	.st118{fill:url(#SVGID_00000001628665946876112860000009883530999377908654_);}
	.st119{fill:url(#SVGID_00000098941631010375055450000014810571938748913336_);}
	.st120{fill:url(#SVGID_00000048487851431606807420000003779535937552283796_);}
	.st121{fill:url(#SVGID_00000097462760658880136200000015962603076017213611_);}
	.st122{fill:url(#SVGID_00000157994066551241396590000014454012025618181265_);}
	.st123{fill:url(#SVGID_00000057832542120728203530000016004319692042176931_);}
	.st124{fill:url(#SVGID_00000149346830062083413290000007848713723461763975_);}
	.st125{fill:url(#SVGID_00000015334354320466479910000016102421111050972811_);}
	.st126{fill:url(#SVGID_00000029755934371222152050000017327270256661194373_);}
	.st127{fill:url(#SVGID_00000168795308483852960350000018216802767223825539_);}
	.st128{fill:url(#SVGID_00000088101089537706973120000016536205450083337373_);}
	.st129{fill:url(#SVGID_00000088839653730607881230000007870351515358269577_);}
	.st130{fill:url(#SVGID_00000083770750757004204920000010734512380129130642_);}
	.st131{fill:url(#SVGID_00000052819319200975196880000001747505059380662676_);}
	.st132{fill:url(#SVGID_00000085248652718308750480000009584428841427534247_);}
	.st133{fill:url(#SVGID_00000065061511201237680410000009420713407858599821_);}
	.st134{fill:url(#SVGID_00000039848505801923112050000015314192190066795657_);}
	.st135{fill:url(#SVGID_00000150815115111332649010000000134700951851669687_);}
	.st136{fill:url(#SVGID_00000166668544500710959100000005002254697115793297_);}
	.st137{fill:url(#SVGID_00000068664328205560007800000005262718987659202970_);}
	.st138{fill:url(#SVGID_00000082334033139507073470000001320779377696121760_);}
	.st139{fill:url(#SVGID_00000132773622345213723530000000900254736812696469_);}
	.st140{fill:url(#SVGID_00000010281927677743438530000007954410028799302529_);}
	.st141{fill:url(#SVGID_00000103240984665671224890000009250167560090117275_);}
	.st142{fill:url(#SVGID_00000114073178310916428110000001698456010027462586_);}
	.st143{fill:url(#SVGID_00000104697444981784058180000000928832911271628684_);}
	.st144{fill:url(#SVGID_00000014594791738044764620000005320384741681173136_);}
	.st145{fill:url(#SVGID_00000136392992163718936320000011791884025390344113_);}
	.st146{fill:url(#SVGID_00000012456911159952519350000010982470537264815295_);}
	.st147{fill:url(#SVGID_00000005981763619671472840000016430633290318879896_);}
	.st148{fill:url(#SVGID_00000143598486373463423280000000118158315486673052_);}
	.st149{fill:url(#SVGID_00000063620818980751441970000000781566424683161248_);}
	.st150{fill:url(#SVGID_00000093877327690671166160000012379453408861939349_);}
	.st151{fill:url(#SVGID_00000143614341953326851110000016553649678136311205_);}
	.st152{fill:url(#SVGID_00000052797100940872867030000008434748146682675347_);}
	.st153{fill:url(#SVGID_00000161611054577099373800000008645580894424295312_);}
	.st154{fill:url(#SVGID_00000043456739021303412660000010341167945181552770_);}
	.st155{fill:url(#SVGID_00000098220955808083148390000014685935123562089908_);}
	.st156{fill:url(#SVGID_00000022550689409933067890000004615352705707266204_);}
	.st157{fill:url(#SVGID_00000050628102383337971330000018340723843026018479_);}
	.st158{fill:url(#SVGID_00000008141821265416875020000007600896056331103638_);}
	.st159{fill:url(#SVGID_00000171689917570818022210000007966646147042973848_);}
	.st160{fill:url(#SVGID_00000157279660245316718820000010630736477618360449_);}
	.st161{fill:url(#SVGID_00000090973650868183740470000016636729548109576364_);}
	.st162{fill:url(#SVGID_00000180324925129759809780000001944598828329666199_);}
	.st163{fill:url(#SVGID_00000052823275259909147900000013952139590270980512_);}
	.st164{fill:url(#SVGID_00000021798100066661365320000000241035277922210459_);}
	.st165{fill:url(#SVGID_00000170968796503271605610000004564130042039255728_);}
	.st166{fill:url(#SVGID_00000164480830345808893930000004014438483390534569_);}
	.st167{fill:url(#SVGID_00000013162375436323609990000005549371536363154103_);}
	.st168{fill:url(#SVGID_00000054976771584610990190000006977524812595588526_);}
	.st169{fill:url(#SVGID_00000033344435541166066880000007256426037525399227_);}
	.st170{fill:url(#SVGID_00000130635725740216940320000005243520896303109267_);}
</style>
<g>
	<g>
		<path class="st0" d="M2417.5,876.8l0,136.5l-174-136.5h-693.2l-86.6,163.5L1369,876.8H371.8L0,1503.4h991.1
			c157.5,0,253.6-47.4,307.2-107.6l66.6,107.9h978v-136.8l175.9,136.8h1207V876.8H2417.5z"/>
	</g>
	<g>
		<path class="st0" d="M3839,16.6h-832.7c-61.3,0.3-122.8,17.9-178.4,52.6c-22.2,13.9-42.9,30.2-62.2,48.4
			C2713.1,55,2657.6,16.6,2567.9,16.6H1156.6l-45.4,139.7L1088,16.6H780l-11.2,25.5L739,31.8C577.7-24.1,421.2-6.2,273.8,85
			c-153.3,94.9-224.6,243.4-206,429.4c11.2,111.8,82,211.4,189.5,266.3c77.5,39.7,164.7,51.3,251.3,36.6h275.2l67.3-149.2
			l26.2,149.2h1648.5c72.3,0,148.4-36.5,204.8-92.1c43.5,47.3,99.1,81.5,163.3,96.4c83.8,19.3,172.7,3.4,250-45
			c3.4-2.1,6.7-4.5,10-6.7l-7.5,47.4h335.7l47.3-313.8L3839,16.6z"/>
		<path class="st1" d="M1549,119.5l-137.6,323.8L1352,119.5h-120.1l-155.2,477.7l-79.6-477.7H847.4L620.7,634.1L654.5,419H429.2
			l-17.2,110.7h94.1L495.3,589c-54,21.5-145.7,13.4-184.9-56.7c-24.8-44.4-47.8-143.7,56.6-234.8c85-74.2,232.1-87.7,317.1-48.6
			c0,0,10.8-62.1,18.9-120.1c-163.2-56.7-290.1-9.5-375,43.2c-115.7,71.6-171.4,180.8-156.5,329.1c17.2,172.2,240.1,280.7,429,171.4
			c1.7-1,3-1.8,4.3-2.5L587,710.4h126.8l79.6-176.7h140.3l31,176.7h206.4l105.2-330.6l67.5,330.6h81l157.9-365.6l16.1,365.6h121.4
			l-25.6-590.9H1549 M842,419l51.3-114.6L915.5,419H842z"/>
		<polyline class="st1" points="1729.8,710.4 2068.4,710.4 2088.7,583.6 1876.8,583.6 1893.6,478.4 2077.9,478.4 2098.2,351.6 
			1911.9,351.6 1928.1,246.3 2139.9,246.3 2160.2,119.5 1824.2,119.5 1729.8,710.4 		"/>
		<polygon class="st1" points="3504,119.5 3383.9,312.4 3308.4,119.5 3169.4,119.5 3312.4,431.1 3268.4,710.4 3389.8,710.4 
			3427.1,463.5 3645.7,119.5 		"/>
		<path class="st1" d="M3052.8,124.6c-134.6-31.1-274.2,76.1-311.9,239.6c-37.8,163.3,40.8,320.9,175.4,352
			c134.6,31.1,274.2-76.1,311.9-239.5C3265.9,313.3,3187.4,155.7,3052.8,124.6 M3100.3,471.9c-32.8,98.3-111.4,154.7-175.7,126
			c-64.2-28.8-89.7-131.7-56.9-230c32.7-98.3,111.3-154.7,175.6-125.9C3107.6,270.7,3133.1,373.7,3100.3,471.9z"/>
		<path class="st1" d="M2571.3,122.8c-65.6-1.1-227.6,0-227.6,0h1.3l-93.7,586.4c0,0,194.2,0,273.1,0c112.5,0,277-165.8,127.2-301.1
			C2805.6,248.7,2653,124.2,2571.3,122.8 M2500.3,595.5c-67,0-107.1,0-107.1,0l18.8-117.9c0,0,25.4,0,101.7,0
			C2610.1,477.6,2607.4,595.5,2500.3,595.5z M2515,357.1c-67,0-84.4,0-84.4,0l18.8-109.8c0,0,2.7,0,79,0
			C2614.1,247.3,2596.7,357.1,2515,357.1z"/>
		<linearGradient id="SVGID_1_" gradientUnits="userSpaceOnUse" x1="3337.979" y1="3720.2935" x2="3337.979" y2="-2990.3328">
			<stop  offset="0" style="stop-color:#122570"/>
			<stop  offset="1" style="stop-color:#26399F"/>
		</linearGradient>
		<path class="st2" d="M3500.9,492.8l-44.4,294.7h-275l2.4-15.4c-4.8,3.3-9.4,6.7-14,10.3c-7.1,5.6-13.7,11.8-20.7,17.5l-2.8,17.5
			h335.7l47.3-313.8L3500.9,492.8z"/>
		
			<linearGradient id="SVGID_00000136385802490724232770000008326221515710090930_" gradientUnits="userSpaceOnUse" x1="1802.3435" y1="624.2606" x2="1802.3435" y2="1135.4169">
			<stop  offset="0" style="stop-color:#272E7F"/>
			<stop  offset="1" style="stop-color:#0C1D6A"/>
		</linearGradient>
		<path style="fill:url(#SVGID_00000136385802490724232770000008326221515710090930_);" d="M2731.6,682.2l-22,21.7
			c-53,52.3-121.7,83.5-183.8,83.5H902.4l-2.1-11.7c-8.7,6.3-18,11.8-27.3,17.2l4.3,24.4h1648.5c72.3,0,148.4-36.5,204.8-92.1
			L2731.6,682.2z"/>
		
			<linearGradient id="SVGID_00000060024177234902885560000001893332448907196304_" gradientUnits="userSpaceOnUse" x1="424.9282" y1="1.317389e-04" x2="424.9282" y2="823.4767">
			<stop  offset="0" style="stop-color:#7786DE"/>
			<stop  offset="1" style="stop-color:#05136D"/>
		</linearGradient>
		<path style="fill:url(#SVGID_00000060024177234902885560000001893332448907196304_);" d="M768.7,42.2L739,31.8
			C577.7-24.1,421.2-6.2,273.8,85c-153.3,94.9-224.6,243.4-206,429.4c11.2,111.8,82,211.4,189.5,266.3
			c77.5,39.7,164.7,51.3,251.3,36.6l-2.5-29.9l-2.5,0.4c-22.3,3.8-44.8,5.7-66.9,5.7c-59,0-114.8-13.3-165.8-39.4
			c-98.4-50.3-163.2-141-173.4-242.7c-8.7-87.1,3.3-165.5,35.7-233c32.3-67.3,84.9-123.9,156.3-168.1
			C375.9,57,466.1,29.9,557.7,29.9c56.1,0,113.8,10.2,171.5,30.2l55.7,19.4L768.7,42.2z"/>
		
			<linearGradient id="SVGID_00000044900390195397440410000016789186070188535961_" gradientUnits="userSpaceOnUse" x1="3146.49" y1="802.4175" x2="3482.1448" y2="802.4175">
			<stop  offset="0" style="stop-color:#272E7F"/>
			<stop  offset="1" style="stop-color:#0C1D6A"/>
		</linearGradient>
		<polygon style="fill:url(#SVGID_00000044900390195397440410000016789186070188535961_);" points="3181.5,787.5 3146.5,817.4 
			3482.1,817.4 3456.4,787.5 		"/>
		
			<linearGradient id="SVGID_00000169518701826930738930000013280803336571627408_" gradientUnits="userSpaceOnUse" x1="3170.2947" y1="707.5864" x2="3170.2947" y2="817.351">
			<stop  offset="0" style="stop-color:#282E97"/>
			<stop  offset="1" style="stop-color:#18247D"/>
		</linearGradient>
		<polygon style="fill:url(#SVGID_00000169518701826930738930000013280803336571627408_);" points="3194.1,707.6 3154,770 
			3146.5,817.4 3181.5,787.5 		"/>
		
			<linearGradient id="SVGID_00000125586513390855684140000004952984120771818667_" gradientUnits="userSpaceOnUse" x1="3500.8828" y1="260.0905" x2="3838.2717" y2="260.0905">
			<stop  offset="0" style="stop-color:#122570"/>
			<stop  offset="1" style="stop-color:#26399F"/>
		</linearGradient>
		<polygon style="fill:url(#SVGID_00000125586513390855684140000004952984120771818667_);" points="3839,16.6 3784.6,46.5 
			3500.9,492.8 3529.5,503.5 		"/>
		
			<linearGradient id="SVGID_00000141427486034225720230000001518169899388736393_" gradientUnits="userSpaceOnUse" x1="1140.0813" y1="16.6483" x2="1140.0813" y2="281.258">
			<stop  offset="0" style="stop-color:#91A1E1"/>
			<stop  offset="1" style="stop-color:#3A47B7"/>
		</linearGradient>
		<polygon style="fill:url(#SVGID_00000141427486034225720230000001518169899388736393_);" points="1156.6,16.6 1111.2,156.3 
			1101.8,281.8 1178.3,46.5 		"/>
		
			<linearGradient id="SVGID_00000063604263947203634830000015555121583371379868_" gradientUnits="userSpaceOnUse" x1="1086.9354" y1="16.6483" x2="1086.9354" y2="281.258">
			<stop  offset="1.491781e-07" style="stop-color:#4B51B9"/>
			<stop  offset="1" style="stop-color:#3649BD"/>
		</linearGradient>
		<polygon style="fill:url(#SVGID_00000063604263947203634830000015555121583371379868_);" points="1088,16.6 1062.7,46.5 
			1101.8,281.8 1111.2,156.3 		"/>
		
			<linearGradient id="SVGID_00000132776435315997049520000006881763235420491676_" gradientUnits="userSpaceOnUse" x1="779.9644" y1="31.5818" x2="1087.2916" y2="31.5818">
			<stop  offset="0" style="stop-color:#9AA3E7"/>
			<stop  offset="1" style="stop-color:#6E78D0"/>
		</linearGradient>
		<polygon style="fill:url(#SVGID_00000132776435315997049520000006881763235420491676_);" points="780,16.6 799.4,46.5 
			1062.7,46.5 1088,16.6 		"/>
		
			<linearGradient id="SVGID_00000092452241229603459300000017524595073932262049_" gradientUnits="userSpaceOnUse" x1="784.0779" y1="16.6483" x2="784.0779" y2="79.3257">
			<stop  offset="7.458905e-08" style="stop-color:#4954C2"/>
			<stop  offset="1" style="stop-color:#919DD6"/>
		</linearGradient>
		<polygon style="fill:url(#SVGID_00000092452241229603459300000017524595073932262049_);" points="780,16.6 768.7,42.2 784.9,79.5 
			799.4,46.5 		"/>
		
			<linearGradient id="SVGID_00000137101086172215850820000011836692114756172958_" gradientUnits="userSpaceOnUse" x1="506.1058" y1="802.4175" x2="783.2393" y2="802.4175">
			<stop  offset="0" style="stop-color:#0D245E"/>
			<stop  offset="1" style="stop-color:#1D2476"/>
		</linearGradient>
		<polygon style="fill:url(#SVGID_00000137101086172215850820000011836692114756172958_);" points="764.5,787.5 506.1,787.5 
			508.6,817.4 783.8,817.4 		"/>
		
			<linearGradient id="SVGID_00000092439665707011883810000013037889710333433018_" gradientUnits="userSpaceOnUse" x1="764.5462" y1="692.4075" x2="863.6025" y2="692.4075">
			<stop  offset="0" style="stop-color:#0D245E"/>
			<stop  offset="0.1868" style="stop-color:#142870"/>
			<stop  offset="0.4604" style="stop-color:#1C2C85"/>
			<stop  offset="0.7326" style="stop-color:#212E91"/>
			<stop  offset="1" style="stop-color:#232F95"/>
		</linearGradient>
		<polygon style="fill:url(#SVGID_00000092439665707011883810000013037889710333433018_);" points="851.2,668.1 863.8,567.5 
			764.5,787.5 783.8,817.4 		"/>
		<polyline class="st0" points="902.4,787.5 877.4,817.4 851.2,668.1 863.8,567.5 		"/>
		
			<linearGradient id="SVGID_00000012449662246145593460000001704646459920851388_" gradientUnits="userSpaceOnUse" x1="2962.343" y1="-103.5903" x2="2962.343" y2="2020.8651">
			<stop  offset="0" style="stop-color:#272E7F"/>
			<stop  offset="1" style="stop-color:#0C1D6A"/>
		</linearGradient>
		<path style="fill:url(#SVGID_00000012449662246145593460000001704646459920851388_);" d="M3133.7,747.6c-1.9,1.3-3.7,2.5-5.2,3.5
			l-0.4,0.2c-50.6,31.7-107.2,48.4-163.6,48.4c-21.5,0-43-2.4-63.8-7.2c-56.1-13-107.3-43.2-148.1-87.5l-20.9-22.8l-1,43
			c43.5,47.3,99.1,81.5,163.3,96.4c83.8,19.3,172.7,3.4,250-45c3.4-2.1,6.7-4.5,10-6.7l40.1-62.4l-56.6,37.5
			C3136.2,745.9,3135,746.8,3133.7,747.6z"/>
		
			<linearGradient id="SVGID_00000105418856839710753700000016113152495733316272_" gradientUnits="userSpaceOnUse" x1="1961.1859" y1="16.6483" x2="1961.1859" y2="161.231">
			<stop  offset="0" style="stop-color:#91A1E1"/>
			<stop  offset="1" style="stop-color:#3A47B7"/>
		</linearGradient>
		<path style="fill:url(#SVGID_00000105418856839710753700000016113152495733316272_);" d="M2765.7,117.7
			C2713.1,55,2657.6,16.6,2567.9,16.6H1156.6l21.7,29.9h1389.6c82.2,0,129.4,36.2,175,90.4l20.4,24.3
			C2763.3,161.2,2765.7,117.7,2765.7,117.7z"/>
		
			<linearGradient id="SVGID_00000129198723597497937650000013929747993341830316_" gradientUnits="userSpaceOnUse" x1="3301.1323" y1="16.648" x2="3301.1323" y2="161.2314">
			<stop  offset="0" style="stop-color:#9AB2E7"/>
			<stop  offset="1" style="stop-color:#7E86D6"/>
		</linearGradient>
		<path style="fill:url(#SVGID_00000129198723597497937650000013929747993341830316_);" d="M3839,16.6h-832.7
			c-61.3,0.3-122.8,17.9-178.4,52.6c-22.2,13.9-42.9,30.2-62.2,48.4l-2.5,43.5l23-21.8c18.2-17.3,37.6-32.3,57.5-44.8
			c50-31.2,106.2-47.9,162.6-48.1h778.2L3839,16.6z"/>
	</g>
	<g>
		<g>
			<path class="st1" d="M1614,981l-3.5,6.3L1465,1251.7l-154.4-264.6l-3.5-6h-136.5l11.2,18.4l26.3,43.3
				c-42.1-40-106.6-61.7-190.5-61.7H742.9v343.7L539.5,987.3l-3.5-5.9h-105l-3.5,6l-231.4,389.9l-10.9,18.3h91v0.1h202.2v-91.6h-119
				l119.1-214.8l168.2,300l3.5,6.2h135.5l-0.2-0.4h208.2c179.5,0,270.6-70.1,270.6-208.4c0-24-3.1-46.2-9.1-66.3l162.9,268.9
				l3.5,5.8h79.3l3.5-6.1l226.1-389.9l10.6-18.2H1614z M973.2,1298.6H862.7V1075h155.7c84.2,0,123.5,34.1,123.5,107.1
				C1141.9,1269.1,1099.4,1298.6,973.2,1298.6z"/>
			<polyline class="st1" points="2533.8,981 2521.7,981 2521.7,1227.4 2210.3,983.6 2207,981 2125.3,981 2125.3,1325 1921.6,987.1 
				1918,981.2 1813,981.2 1809.5,987.1 1578.1,1377 1567.2,1395.4 1690.6,1395.4 1690.9,1395 1860.7,1395 1860.7,1303.4 
				1741.6,1303.4 1860.6,1089.1 2028.7,1389.2 2032.2,1395.4 2167.8,1395.4 2167.7,1395.2 2236.2,1395.2 2236.2,1145.4 
				2546.4,1392.5 2549.7,1395.2 2631.2,1395.2 2631.2,981 2533.8,981 			"/>
			<path class="st1" d="M3023.8,981.1H2781c-85.2,0-113.9,26.4-113.9,104.5v205.2c0,77.9,28.7,104.3,113.9,104.3h242.8
				c85.3,0,114.1-26.4,114.1-104.3v-58.2l-12.1-0.1l-95.6-0.2h-12.2v63.8h-231.4v-218.6h231.4v57.5l12.2,0.1l95.5,0.3l12.2,0v-49.9
				C3138,1006.5,3110.2,981.1,3023.8,981.1"/>
			<polyline class="st1" points="3611.9,1298.6 3296.7,1298.6 3296.7,1226.1 3484.8,1226.1 3484.8,1134.7 3296.7,1134.7 
				3296.7,1074.8 3619.5,1074.8 3619.5,981.1 3176.9,981.1 3176.9,1395.2 3624.1,1395.2 3624.1,1298.6 3611.9,1298.6 			"/>
			
				<linearGradient id="SVGID_00000013162677457516683300000017707250863379771271_" gradientUnits="userSpaceOnUse" x1="651.3596" y1="942.4048" x2="651.3596" y2="1787.7435">
				<stop  offset="0" style="stop-color:#272E7F"/>
				<stop  offset="1" style="stop-color:#0C1D6A"/>
			</linearGradient>
			<path style="fill:url(#SVGID_00000013162677457516683300000017707250863379771271_);" d="M1276.1,1376
				c-39.6,44.5-121.3,97.6-284.9,97.6l-709.1,0.2l-229.6,0L0,1503.4l283.7,0.2l707.4-0.2c157.5,0,253.6-47.4,307.2-107.6l4.3-49.8
				L1276.1,1376z"/>
			
				<linearGradient id="SVGID_00000059991832441824787110000009019448691320654732_" gradientUnits="userSpaceOnUse" x1="1298.3694" y1="1424.8754" x2="1381.6403" y2="1424.8754">
				<stop  offset="0" style="stop-color:#222F91"/>
				<stop  offset="1" style="stop-color:#2C3491"/>
			</linearGradient>
			<polygon style="fill:url(#SVGID_00000059991832441824787110000009019448691320654732_);" points="1302.7,1346 1298.4,1395.8 
				1365,1503.7 1381.6,1473.8 			"/>
			
				<linearGradient id="SVGID_00000136404492495667353960000000819069007009919679_" gradientUnits="userSpaceOnUse" x1="1365.6991" y1="1488.7739" x2="2343.6965" y2="1488.7739">
				<stop  offset="0" style="stop-color:#272E7F"/>
				<stop  offset="1" style="stop-color:#0C1D6A"/>
			</linearGradient>
			<polygon style="fill:url(#SVGID_00000136404492495667353960000000819069007009919679_);" points="2313.8,1473.8 1382.4,1473.8 
				1365.7,1503.7 2343.7,1503.7 			"/>
			
				<linearGradient id="SVGID_00000128449639532617388870000005234764461247076014_" gradientUnits="userSpaceOnUse" x1="2328.0466" y1="1503.7072" x2="2328.0466" y2="1305.8505">
				<stop  offset="0" style="stop-color:#272E7F"/>
				<stop  offset="1" style="stop-color:#0C1D6A"/>
			</linearGradient>
			<polygon style="fill:url(#SVGID_00000128449639532617388870000005234764461247076014_);" points="2313.1,1305.9 2313.1,1473.8 
				2343,1503.7 2343,1366.9 			"/>
			
				<linearGradient id="SVGID_00000181799778945748109440000016057458870960496003_" gradientUnits="userSpaceOnUse" x1="2313.1138" y1="1404.7788" x2="2529.1609" y2="1404.7788">
				<stop  offset="0" style="stop-color:#272E7F"/>
				<stop  offset="1" style="stop-color:#0C1D6A"/>
			</linearGradient>
			<polygon style="fill:url(#SVGID_00000181799778945748109440000016057458870960496003_);" points="2313.1,1305.9 2343,1366.9 
				2518.9,1503.7 2529.2,1473.8 			"/>
			
				<linearGradient id="SVGID_00000003069425725911296910000005188564611092911258_" gradientUnits="userSpaceOnUse" x1="2518.9172" y1="1488.7739" x2="3725.9316" y2="1488.7739">
				<stop  offset="0" style="stop-color:#272E7F"/>
				<stop  offset="1" style="stop-color:#0C1D6A"/>
			</linearGradient>
			<polygon style="fill:url(#SVGID_00000003069425725911296910000005188564611092911258_);" points="3696.1,1473.8 2529.2,1473.8 
				2518.9,1503.7 3725.9,1503.7 			"/>
			
				<linearGradient id="SVGID_00000070833302448575197560000000148984178342663852_" gradientUnits="userSpaceOnUse" x1="3696.0657" y1="1190.2769" x2="3725.9316" y2="1190.2769">
				<stop  offset="0" style="stop-color:#122570"/>
				<stop  offset="1" style="stop-color:#26399F"/>
			</linearGradient>
			<polygon style="fill:url(#SVGID_00000070833302448575197560000000148984178342663852_);" points="3696.1,906.7 3696.1,1473.8 
				3725.9,1503.7 3725.9,876.8 			"/>
			
				<linearGradient id="SVGID_00000077289362461138931470000003728477090277272212_" gradientUnits="userSpaceOnUse" x1="2417.5349" y1="891.78" x2="3725.9316" y2="891.78">
				<stop  offset="0" style="stop-color:#9AB2E7"/>
				<stop  offset="1" style="stop-color:#7E86D6"/>
			</linearGradient>
			<polygon style="fill:url(#SVGID_00000077289362461138931470000003728477090277272212_);" points="2417.5,876.8 2447.4,906.7 
				3696.1,906.7 3725.9,876.8 			"/>
			
				<linearGradient id="SVGID_00000012445971792166714870000008028102788982481847_" gradientUnits="userSpaceOnUse" x1="2432.4692" y1="1074.7552" x2="2432.4692" y2="876.8466">
				<stop  offset="0" style="stop-color:#3A47B7"/>
				<stop  offset="1" style="stop-color:#91A1E1"/>
			</linearGradient>
			<polygon style="fill:url(#SVGID_00000012445971792166714870000008028102788982481847_);" points="2417.5,876.8 2417.5,1013.4 
				2447.4,1074.8 2447.4,906.7 			"/>
			
				<linearGradient id="SVGID_00000052799698612498138540000007236979854903883172_" gradientUnits="userSpaceOnUse" x1="2233.2422" y1="975.8009" x2="2447.4036" y2="975.8009">
				<stop  offset="0" style="stop-color:#91A1E1"/>
				<stop  offset="1" style="stop-color:#3A47B7"/>
			</linearGradient>
			<polygon style="fill:url(#SVGID_00000052799698612498138540000007236979854903883172_);" points="2417.5,1013.4 2243.6,876.8 
				2233.2,906.7 2447.4,1074.8 			"/>
			
				<linearGradient id="SVGID_00000021096663825982649300000002215623131709916825_" gradientUnits="userSpaceOnUse" x1="1550.3252" y1="891.78" x2="2243.561" y2="891.78">
				<stop  offset="0" style="stop-color:#9AB2E7"/>
				<stop  offset="1" style="stop-color:#7E86D6"/>
			</linearGradient>
			<polygon style="fill:url(#SVGID_00000021096663825982649300000002215623131709916825_);" points="1550.3,876.8 1568.3,906.7 
				2233.2,906.7 2243.6,876.8 			"/>
			
				<linearGradient id="SVGID_00000088132463597030304310000006843487288463615624_" gradientUnits="userSpaceOnUse" x1="1463.739" y1="989.4069" x2="1568.0801" y2="989.4069">
				<stop  offset="0" style="stop-color:#3A47B7"/>
				<stop  offset="1" style="stop-color:#91A1E1"/>
			</linearGradient>
			<polygon style="fill:url(#SVGID_00000088132463597030304310000006843487288463615624_);" points="1550.3,876.8 1463.7,1040.4 
				1464.9,1102 1568.3,906.7 			"/>
			
				<linearGradient id="SVGID_00000169521985038965208720000006846985437563795374_" gradientUnits="userSpaceOnUse" x1="1351.7616" y1="989.4069" x2="1464.672" y2="989.4069">
				<stop  offset="0" style="stop-color:#707FD1"/>
				<stop  offset="1" style="stop-color:#3649BD"/>
			</linearGradient>
			<polygon style="fill:url(#SVGID_00000169521985038965208720000006846985437563795374_);" points="1463.7,1040.4 1369,876.8 
				1351.8,906.7 1464.9,1102 			"/>
			
				<linearGradient id="SVGID_00000078758792412738375370000010310546999543592591_" gradientUnits="userSpaceOnUse" x1="317.2847" y1="891.7802" x2="1366.709" y2="891.7802">
				<stop  offset="0" style="stop-color:#9AB2E7"/>
				<stop  offset="1" style="stop-color:#7E86D6"/>
			</linearGradient>
			<polygon style="fill:url(#SVGID_00000078758792412738375370000010310546999543592591_);" points="371.8,876.8 388.8,906.7 
				1351.8,906.7 1369,876.8 			"/>
		</g>
		
			<linearGradient id="SVGID_00000130639416987648544660000007874303358174414486_" gradientUnits="userSpaceOnUse" x1="0" y1="1190.1317" x2="388.8104" y2="1190.1317">
			<stop  offset="0" style="stop-color:#05136D"/>
			<stop  offset="1" style="stop-color:#6886DE"/>
		</linearGradient>
		<polyline style="fill:url(#SVGID_00000130639416987648544660000007874303358174414486_);" points="52.4,1473.8 0,1503.4 
			371.8,876.8 388.8,906.7 		"/>
	</g>
</g>
</svg>
