<?xml version="1.0" encoding="utf-8"?>
<!-- Generator: Adobe Illustrator 25.4.1, SVG Export Plug-In . SVG Version: 6.00 Build 0)  -->
<svg version="1.1" id="Layer_1" xmlns="http://www.w3.org/2000/svg" xmlns:xlink="http://www.w3.org/1999/xlink" x="0px" y="0px"
	 viewBox="0 0 3839 1414.3" style="enable-background:new 0 0 3839 1414.3;" xml:space="preserve">
<style type="text/css">
	.st0{fill:#232F95;}
	.st1{fill:#FFFFFF;}
	.st2{fill:url(#SVGID_1_);}
	.st3{fill:url(#SVGID_00000093878388431116692870000004653315424477449864_);}
	.st4{fill:url(#SVGID_00000044863503007494601200000014471778808348743101_);}
	.st5{fill:url(#SVGID_00000017490491053429922270000017649890748685743748_);}
	.st6{fill:url(#SVGID_00000076602037149833202530000017590437198319581601_);}
	.st7{fill:url(#SVGID_00000059300064196114982330000008046178453321208509_);}
	.st8{fill:url(#SVGID_00000126287750177379485180000007554116048838480805_);}
	.st9{fill:url(#SVGID_00000001637180818769165620000000100767014716364191_);}
	.st10{fill:url(#SVGID_00000061462211727292705510000016764137161253211015_);}
	.st11{fill:url(#SVGID_00000173162520337171060690000005693353457570809505_);}
	.st12{fill:url(#SVGID_00000098217076316571938520000011923779955533505193_);}
	.st13{fill:url(#SVGID_00000005985373892906236490000000392979693171131837_);}
	.st14{fill:url(#SVGID_00000139268545092722465880000000392951782452462749_);}
	.st15{fill:url(#SVGID_00000132051934854890775690000004550119421757693601_);}
	.st16{fill:url(#SVGID_00000067933990579931326490000015123356889798174361_);}
	.st17{fill:url(#SVGID_00000052068972381844789380000011473003887277210270_);}
	.st18{fill:url(#SVGID_00000123413729205831016360000006035772096660417201_);}
	.st19{fill:url(#SVGID_00000160900029279248658820000008386202724229475234_);}
	.st20{fill:url(#SVGID_00000125592416857863431630000011250894878707087011_);}
	.st21{fill:url(#SVGID_00000104703619364131714340000001174875433383644340_);}
	.st22{fill:url(#SVGID_00000034785842306191433600000004226875207591095198_);}
	.st23{fill:url(#SVGID_00000124163054025789578960000000139015339772242621_);}
	.st24{fill:url(#SVGID_00000011734399547909083810000002053944976766440099_);}
	.st25{fill:url(#SVGID_00000113338924368575421620000018139134141811307696_);}
	.st26{fill:url(#SVGID_00000167354637264606966850000017780121019001111987_);}
	.st27{fill:url(#SVGID_00000134933904299707195680000006683062677024643465_);}
	.st28{fill:url(#SVGID_00000023961529194878690000000001524795371193131650_);}
	.st29{fill:url(#SVGID_00000000937507805597239430000008121291582812994734_);}
	.st30{fill:url(#SVGID_00000134223108784889224400000012543069401962828680_);}
	.st31{fill:url(#SVGID_00000013161522884285378850000012599594383483104928_);}
	.st32{fill:url(#SVGID_00000177472467151842123690000012409126090143541388_);}
	.st33{fill:url(#SVGID_00000100341159940755075030000017986396523251029678_);}
	.st34{fill:url(#SVGID_00000102544919158595114540000005150012761572129718_);}
	.st35{fill:url(#SVGID_00000155842636611872903100000017078613195915665314_);}
	.st36{fill:url(#SVGID_00000042703190292420736630000004749487389214486183_);}
	.st37{fill:url(#SVGID_00000183968195273321817020000006569222174770534300_);}
	.st38{fill:url(#SVGID_00000158720785685137295840000003685487526810347396_);}
	.st39{fill:url(#SVGID_00000003078810274889583360000003581030586653970613_);}
	.st40{fill:url(#SVGID_00000003088415516087332000000003139403006246114700_);}
	.st41{fill:url(#SVGID_00000029753739827788022100000008881328636677256848_);}
	.st42{fill:url(#SVGID_00000063605957738470320490000007837464246941696649_);}
	.st43{fill:url(#SVGID_00000111171070698175376630000006092078971149211011_);}
	.st44{fill:url(#SVGID_00000000219872515960992350000012305343718575712188_);}
	.st45{fill:url(#SVGID_00000070823163897825866370000013325360604746443940_);}
	.st46{fill:url(#SVGID_00000008855058572179192600000007900972741320952201_);}
	.st47{fill:url(#SVGID_00000029028593627061224130000011652579914198671037_);}
	.st48{fill:url(#SVGID_00000019680258290515796000000013178566757754431910_);}
	.st49{fill:url(#SVGID_00000168087508149714736550000012545074900551255190_);}
	.st50{fill:url(#SVGID_00000007393659687905243470000000968138051302242195_);}
	.st51{fill:url(#SVGID_00000135678524561424484540000007410357201972648081_);}
	.st52{fill:url(#SVGID_00000000203591867042322640000002940148075552628369_);}
	.st53{fill:url(#SVGID_00000029044900844868856050000016592515696313230727_);}
	.st54{fill:url(#SVGID_00000019675625740799778500000012093967700029882760_);}
	.st55{fill:url(#SVGID_00000042004821331911742730000017893412143181535162_);}
	.st56{fill:url(#SVGID_00000168797741619062241550000005522430293276557500_);}
	.st57{fill:url(#SVGID_00000057826220927770458900000010119203442027574173_);}
	.st58{fill:url(#SVGID_00000172437263411077123710000014987477794855418798_);}
	.st59{fill:url(#SVGID_00000060708678599840548790000008835577756981051289_);}
	.st60{fill:url(#SVGID_00000093859080336493679230000007227629373572789121_);}
	.st61{fill:url(#SVGID_00000137098069762000582740000015286908258847350206_);}
	.st62{fill:url(#SVGID_00000095315928736307417510000014688775110333573519_);}
	.st63{fill:url(#SVGID_00000090260400194115388780000005966849816699238547_);}
	.st64{fill:url(#SVGID_00000160155804233131316470000013994651081501260983_);}
	.st65{fill:url(#SVGID_00000164491263830943010790000013379012499174860189_);}
	.st66{fill:url(#SVGID_00000095337996183830961090000017351968058308429717_);}
	.st67{fill:url(#SVGID_00000132082427203792104330000007653468102018116510_);}
	.st68{fill:url(#SVGID_00000021094128409783355930000016672496576919663773_);}
	.st69{fill:url(#SVGID_00000031188727978925541110000002075154663537678777_);}
	.st70{fill:url(#SVGID_00000111869478977162742700000002973593178454730382_);}
	.st71{fill:url(#SVGID_00000158009073281332197830000006194173124573881227_);}
	.st72{fill:url(#SVGID_00000039816116241514409110000003383448299693246096_);}
	.st73{fill:url(#SVGID_00000138550570559547085900000000923035727033021322_);}
	.st74{fill:url(#SVGID_00000154422081214651719960000000016543694863166599_);}
	.st75{fill:url(#SVGID_00000170272774988290499000000006056303626394177722_);}
	.st76{fill:url(#SVGID_00000139254833747430198050000002045155721753729701_);}
	.st77{fill:url(#SVGID_00000165946825199674875430000001430133234400984480_);}
	.st78{fill:url(#SVGID_00000174565686140351858350000012937046560881504138_);}
	.st79{fill:url(#SVGID_00000021103009681426063930000014863093548889251985_);}
	.st80{fill:url(#SVGID_00000129916547717188184750000002834596654053892781_);}
	.st81{fill:url(#SVGID_00000087413367455854509900000003225308504146104218_);}
	.st82{fill:url(#SVGID_00000006701958048881923360000013451213331841491086_);}
	.st83{fill:url(#SVGID_00000059292973781157398700000011369581880452151970_);}
	.st84{fill:url(#SVGID_00000002346440908181803210000017431759459619539600_);}
	.st85{fill:url(#SVGID_00000178911379512720314950000018140700491048236935_);}
	.st86{fill:url(#SVGID_00000056406166205781841600000013016159603709945989_);}
	.st87{fill:url(#SVGID_00000168803287667909115830000013780554694860576934_);}
	.st88{fill:url(#SVGID_00000059993308156160865200000015324368778590467720_);}
	.st89{fill:url(#SVGID_00000156575203215059029250000016937987463197261453_);}
	.st90{fill:url(#SVGID_00000086651935496892232390000015000334140619821953_);}
	.st91{fill:url(#SVGID_00000072966635816653419750000011643494713672060308_);}
	.st92{fill:url(#SVGID_00000041986560626642828080000010254988957410855859_);}
	.st93{fill:url(#SVGID_00000119088786945559863290000006301077208787982468_);}
	.st94{fill:url(#SVGID_00000104697536307819281770000007188246079818476194_);}
	.st95{fill:url(#SVGID_00000126309159590069994090000008408116148946923673_);}
	.st96{fill:url(#SVGID_00000064346423543561985580000014321399028988003992_);}
	.st97{fill:url(#SVGID_00000126286135671860298490000010795088330486575536_);}
	.st98{fill:url(#SVGID_00000168079779746461831940000013932876184021471368_);}
	.st99{fill:url(#SVGID_00000088110205701554261450000003315160689298242442_);}
	.st100{fill:url(#SVGID_00000183240791136451620950000012170645420491613312_);}
	.st101{fill:url(#SVGID_00000083049667435771095580000015062365102121924774_);}
	.st102{fill:#502F8E;}
	.st103{fill:url(#SVGID_00000103241779919702365600000017035910426958151560_);}
	.st104{fill:url(#SVGID_00000093869398713252669460000006599158775430576309_);}
	.st105{fill:url(#SVGID_00000046321889317205490780000013460317613179014839_);}
	.st106{fill:url(#SVGID_00000111889731677969141320000011536167026052986280_);}
	.st107{fill:url(#SVGID_00000004522425102594189920000011341033829791907970_);}
	.st108{fill:url(#SVGID_00000169548238937333474690000005699285629934898854_);}
	.st109{fill:url(#SVGID_00000181808171159717540310000010795422690484946307_);}
	.st110{fill:url(#SVGID_00000134243866465499011480000009713821681133361854_);}
	.st111{fill:url(#SVGID_00000156555426736372193270000001295193992676218246_);}
	.st112{fill:url(#SVGID_00000102521191552667371930000016559003799786392745_);}
	.st113{fill:url(#SVGID_00000133509406775472686090000016757862061056671403_);}
	.st114{fill:url(#SVGID_00000099630605008701771810000007506903685737634737_);}
	.st115{fill:url(#SVGID_00000164496997267267028860000017721118642101515195_);}
	.st116{fill:url(#SVGID_00000079486589480744684810000010167244143230576554_);}
	.st117{fill:url(#SVGID_00000033362250294038413060000009166203096572755082_);}
	.st118{fill:url(#SVGID_00000006706743441097579270000015769685959415307155_);}
	.st119{fill:url(#SVGID_00000007387868121437651320000017740224127956584839_);}
	.st120{fill:url(#SVGID_00000107562724839142667780000011952211889935722377_);}
	.st121{fill:url(#SVGID_00000003824690414653537240000016158882676289130370_);}
	.st122{fill:url(#SVGID_00000037687121290333917840000002518874410909619126_);}
	.st123{fill:url(#SVGID_00000087395028471912176500000012794752872470427287_);}
	.st124{fill:url(#SVGID_00000174593383546599887810000016128116189560114823_);}
	.st125{fill:url(#SVGID_00000018918591791524612880000005666763088539522195_);}
	.st126{fill:url(#SVGID_00000072240782847398667170000000761324430005580187_);}
	.st127{fill:url(#SVGID_00000158745377815670153070000012962628855681056183_);}
	.st128{fill:url(#SVGID_00000091706549497380555620000016743615424217036732_);}
	.st129{fill:url(#SVGID_00000164473539768446609820000009710477646288479642_);}
	.st130{fill:url(#SVGID_00000040541600078571303650000009635446297863465635_);}
	.st131{fill:url(#SVGID_00000023263855367280579990000002311766854351504544_);}
	.st132{fill:url(#SVGID_00000031897511825907751700000014764537619151887765_);}
	.st133{fill:url(#SVGID_00000158024386841417846040000017466862146499685805_);}
	.st134{fill:url(#SVGID_00000127757158103545609940000008043995042244171423_);}
	.st135{fill:url(#SVGID_00000109734575285066297500000004108260961312325020_);}
	.st136{fill:url(#SVGID_00000097473744429635893230000011993076121051497095_);}
	.st137{fill:url(#SVGID_00000016039270646216213940000003291758314605886646_);}
	.st138{fill:url(#SVGID_00000100351552988994676460000017965746681593207942_);}
	.st139{fill:url(#SVGID_00000071523242330980221870000010545971425217413009_);}
	.st140{fill:url(#SVGID_00000039112669806886916190000011671423928994134414_);}
	.st141{fill:url(#SVGID_00000078758842096958487490000003469845160941550474_);}
	.st142{fill:url(#SVGID_00000109734002929452349350000013393588374363590545_);}
	.st143{fill:url(#SVGID_00000066490090385028560390000002997239837611266179_);}
	.st144{fill:url(#SVGID_00000044865337516140289450000008000235731592369557_);}
	.st145{fill:url(#SVGID_00000013181090647458321060000014158865866326860990_);}
	.st146{fill:url(#SVGID_00000051381506036428296360000004136954978720574604_);}
	.st147{fill:url(#SVGID_00000169545375164896916840000011335085565092470973_);}
	.st148{fill:url(#SVGID_00000162347462037102893220000013987233539957694380_);}
	.st149{fill:url(#SVGID_00000157988145386973905830000014005088845040986021_);}
	.st150{fill:url(#SVGID_00000158026769110669772050000008086847983420870325_);}
	.st151{fill:url(#SVGID_00000011011658771099669650000016539456176273399936_);}
	.st152{fill:url(#SVGID_00000180327253613465372580000002473985729504899213_);}
	.st153{fill:url(#SVGID_00000049222036320625603920000002664374162885408128_);}
	.st154{fill:url(#SVGID_00000172441475210937442070000002422837446414453425_);}
	.st155{fill:url(#SVGID_00000016768505464839622070000001194029960977006476_);}
	.st156{fill:url(#SVGID_00000172401254302537889480000017742309193458716087_);}
	.st157{fill:url(#SVGID_00000024688458757820852980000017143781284887443847_);}
	.st158{fill:url(#SVGID_00000111897508328641127410000017156993919201880232_);}
	.st159{fill:url(#SVGID_00000119100587961601264890000014853174104009755322_);}
	.st160{fill:url(#SVGID_00000069384063944246622490000014883756971678340784_);}
	.st161{fill:url(#SVGID_00000051347251980796254620000004258293403952087726_);}
	.st162{fill:url(#SVGID_00000109012249058523556190000011744559954941306283_);}
	.st163{fill:url(#SVGID_00000162341606253099990110000010243043070896386181_);}
	.st164{fill:url(#SVGID_00000000924851917710808690000000296407430096847791_);}
	.st165{fill:url(#SVGID_00000127738890276676044270000010462335918349347221_);}
	.st166{fill:url(#SVGID_00000157294404409181225350000018326623766481109945_);}
	.st167{fill:url(#SVGID_00000085249444103682991100000012439328956137970050_);}
	.st168{fill:url(#SVGID_00000013156113837225042830000013112660158380304811_);}
	.st169{fill:url(#SVGID_00000109726312903418794380000016476767380497850036_);}
	.st170{fill:url(#SVGID_00000138562695200580072340000011301251784694275978_);}
</style>
<g>
	<path class="st102" d="M3529.5,503.5L3839,16.6h-832.7c-61.3,0.3-122.8,17.9-178.4,52.6c-22.2,13.9-42.9,30.2-62.2,48.4
		C2713.1,55,2657.6,16.6,2567.9,16.6H1156.6l-45.4,139.7L1088,16.6H780l-11.2,25.5L739,31.8C577.7-24.1,421.2-6.2,273.8,85
		c-153.3,94.9-224.6,243.4-206,429.4c11.2,111.8,82,211.4,189.5,266.3c31.3,16.1,64.2,27.5,98,34.5L0,1414.1h991.1
		c157.5,0,253.6-47.4,307.2-107.6l66.6,107.9h978v-136.8l175.9,136.8h1207V787.5h-239.3L3529.5,503.5z"/>
	<g>
		<g>
			<path class="st1" d="M1614,891.7l-3.5,6.3L1465,1162.3l-154.4-264.6l-3.5-6h-136.5l11.2,18.4l26.3,43.3
				c-42.1-40-106.6-61.7-190.5-61.7H742.9v343.7L539.5,897.9l-3.5-5.9h-105l-3.5,6l-231.4,389.9l-10.9,18.3h91v0.1h202.2v-91.6h-119
				L478.4,1000l168.2,300l3.5,6.2h135.5l-0.2-0.4h208.2c179.5,0,270.6-70.1,270.6-208.4c0-24-3.1-46.2-9.1-66.3L1418,1300l3.5,5.8
				h79.3l3.5-6.1l226.1-389.9l10.6-18.2H1614z M973.2,1209.3H862.7V985.6h155.7c84.2,0,123.5,34.1,123.5,107.1
				C1141.9,1179.8,1099.4,1209.3,973.2,1209.3z"/>
			<polyline class="st1" points="2533.8,891.7 2521.7,891.7 2521.7,1138 2210.3,894.2 2207,891.7 2125.3,891.7 2125.3,1235.6 
				1921.6,897.7 1918,891.8 1813,891.8 1809.5,897.8 1578.1,1287.7 1567.2,1306 1690.6,1306 1690.9,1305.6 1860.7,1305.6 
				1860.7,1214 1741.6,1214 1860.6,999.8 2028.7,1299.8 2032.2,1306 2167.8,1306 2167.7,1305.8 2236.2,1305.8 2236.2,1056.1 
				2546.4,1303.2 2549.7,1305.8 2631.2,1305.8 2631.2,891.7 2533.8,891.7 			"/>
			<path class="st1" d="M3023.8,891.8H2781c-85.2,0-113.9,26.4-113.9,104.5v205.2c0,77.9,28.7,104.3,113.9,104.3h242.8
				c85.3,0,114.1-26.4,114.1-104.3v-58.2l-12.1-0.1l-95.6-0.2h-12.2v63.8h-231.4V988.1h231.4v57.5l12.2,0.1l95.5,0.3l12.2,0v-49.9
				C3138,917.2,3110.2,891.8,3023.8,891.8"/>
			<polyline class="st1" points="3611.9,1209.3 3296.7,1209.3 3296.7,1136.7 3484.8,1136.7 3484.8,1045.3 3296.7,1045.3 
				3296.7,985.5 3619.5,985.5 3619.5,891.8 3176.9,891.8 3176.9,1305.8 3624.1,1305.8 3624.1,1209.3 3611.9,1209.3 			"/>
		</g>
	</g>
	<path class="st1" d="M1549,119.5l-137.6,323.8L1352,119.5h-120.1l-155.2,477.7l-79.6-477.7H847.4L620.7,634.1L654.5,419H429.2
		l-17.2,110.7h94.1L495.3,589c-54,21.5-145.7,13.4-184.9-56.7c-24.8-44.4-47.8-143.7,56.6-234.8c85-74.2,232.1-87.7,317.1-48.6
		c0,0,10.8-62.1,18.9-120.1c-163.2-56.7-290.1-9.5-375,43.2c-115.7,71.6-171.4,180.8-156.5,329.1c17.2,172.2,240.1,280.7,429,171.4
		c1.7-1,3-1.8,4.3-2.5L587,710.4h126.8l79.6-176.7h140.3l31,176.7h206.4l105.2-330.6l67.5,330.6h81l157.9-365.6l16.1,365.6h121.4
		l-25.6-590.9H1549 M842,419l51.3-114.6L915.5,419H842z"/>
	<polyline class="st1" points="1729.8,710.4 2068.4,710.4 2088.7,583.6 1876.8,583.6 1893.6,478.4 2077.9,478.4 2098.1,351.6 
		1911.9,351.6 1928.1,246.3 2139.9,246.3 2160.2,119.5 1824.2,119.5 1729.8,710.4 	"/>
	<polygon class="st1" points="3504,119.5 3383.9,312.4 3308.4,119.5 3169.4,119.5 3312.4,431.1 3268.4,710.4 3389.8,710.4 
		3427.1,463.5 3645.7,119.5 	"/>
	<path class="st1" d="M3052.8,124.6c-134.6-31.1-274.2,76.1-311.9,239.6c-37.8,163.3,40.8,320.9,175.4,352
		c134.6,31.1,274.2-76.1,311.9-239.5C3265.9,313.3,3187.4,155.7,3052.8,124.6 M3100.3,471.9c-32.8,98.3-111.4,154.7-175.7,126
		c-64.2-28.8-89.7-131.7-56.9-230c32.7-98.3,111.3-154.7,175.6-125.9C3107.6,270.7,3133.1,373.7,3100.3,471.9z"/>
	<path class="st1" d="M2571.3,122.8c-65.6-1.1-227.6,0-227.6,0h1.3l-93.7,586.4c0,0,194.2,0,273.1,0c112.5,0,277-165.8,127.2-301.1
		C2805.6,248.7,2653,124.2,2571.3,122.8 M2500.3,595.5c-67,0-107.1,0-107.1,0l18.8-117.9c0,0,25.4,0,101.7,0
		C2610.1,477.6,2607.4,595.5,2500.3,595.5z M2515,357.1c-67,0-84.4,0-84.4,0l18.8-109.8c0,0,2.7,0,79,0
		C2614.1,247.3,2596.7,357.1,2515,357.1z"/>
</g>
</svg>
