<?xml version="1.0" encoding="utf-8"?>
<!-- Generator: Adobe Illustrator 26.0.1, SVG Export Plug-In . SVG Version: 6.00 Build 0)  -->
<svg version="1.1" id="Layer_1" xmlns="http://www.w3.org/2000/svg" xmlns:xlink="http://www.w3.org/1999/xlink" x="0px" y="0px"
	 viewBox="0 0 3839 687.8" style="enable-background:new 0 0 3839 687.8;" xml:space="preserve">
<style type="text/css">
	.st0{fill:#30308F;}
	.st1{fill:#E31E26;}
	.st2{fill:#C6C6C6;}
	.st3{fill:#FFFFFF;}
	.st4{fill:#BBBEBC;}
	.st5{fill:#8157A3;}
</style>
<g>
	<g>
		<g>
			<polygon class="st4" points="1871.1,48.5 2198.4,48.5 2186,136.8 1947.9,136.8 1923.5,311.4 2133.5,311.4 2121.1,399.8 
				1911.1,399.8 1885.3,584 2198.7,584 2186.3,672.3 1783.8,672.3 			"/>
			<polygon class="st4" points="3839,48.5 3728.5,48.5 3565.3,266 3448.9,48.5 3348.6,48.5 3512.3,354 3467.8,671.9 3557,671.9 
				3599.5,367.5 			"/>
			<polygon class="st4" points="1391.7,686.9 1621,251.9 1637.6,672.3 1728.4,672.3 1703.8,48.5 1625.8,48.5 1422.7,433.6 
				1328,48.5 1250.2,48.5 1046.7,672.3 1138.2,672.3 1280.7,235.9 			"/>
			<path class="st4" d="M3147.4,35.7c-172.8,0-274.1,160.7-296.7,322.5c-24.6,175.5,25.2,329.6,198.5,329.6
				c210.5,0,281.6-215.8,297.5-329.6C3380.4,117.2,3239.5,35.7,3147.4,35.7z M3259.1,346c-3.3,23.5-17.4,104.9-61.5,170.2
				c-38.3,56.8-85.5,83.2-148.5,83.2c-49,0-69.6-17.1-80.9-30c-31.2-35.9-42.4-110.2-30-198.8c12.8-91.4,71.2-246.3,209.1-246.3
				c21.7,0,53.6,10,78,37.9C3258.8,200.7,3270.5,264.2,3259.1,346z"/>
			<path class="st4" d="M482.5,615.3c-28.4,19.9-54.8,34.9-79.6,45.2c-38.7,16-68.4,18.5-88.1,18.5c-5,0-9.3-0.2-13.1-0.3
				c-1.3,0-3.2-0.1-3.8-0.1c-0.1,0-0.3,0-0.4,0c-103.5,0-164.9-45.4-197.9-83.5c-51-58.6-73.1-143.9-60.5-233.9
				c9.5-68.4,33.9-128,72.3-177.4c32.1-41.2,73.5-74.6,123.1-99.4c88.1-43.7,177.8-47.1,203.2-47.1c60.9,0,106.2,6.7,124.1,9.9
				l-12.4,88.5c-9.7-1.8-52.2-9.1-111.8-9.1c-54.3,0-278.4,18.8-310.4,247c-14.9,106.1,32.3,216,170.6,215.8
				c18.2,0,45.8,5.8,102.8-27.3l12.7-90.8h-93.3l12.2-87.1H515L482.5,615.3z"/>
			<path class="st4" d="M896.3,48.5h-78.7L532.7,672.3h95.8l77.6-169.9H885l28.8,170h88.4L896.3,48.5z M745.8,415.3l90.6-198.4
				l33.7,198.4H745.8z"/>
			<path class="st4" d="M2719.9,342.6c-4.9-4.3-9.9-8.3-15.1-12.1c34.2-33.4,53.1-79,53.2-128.6c0.1-59.4-23.5-95.6-43.3-115.4
				C2695,66.6,2659.1,44,2599.9,44h-96.1l0,0h-34.7l-87.9,628.3h32.6l0,0h192.7l0,0c50.5,0,99.2-22.4,133.3-63
				c29.3-34.9,46.2-80,46.2-123.9C2786.3,431,2762.7,380.3,2719.9,342.6z M2546,132.3h53.9l0,0c33.1,0,69.1,11.5,68.9,69.3
				c-0.1,54-41.1,90.7-92.7,90.7l0,0h-52.4L2546,132.3z M2606.8,584.1L2606.8,584.1h-123.8l28.4-203.2h83.5
				c41.9,1.1,102.2,42.3,102.2,104.7C2697.1,531.2,2660,584,2606.8,584.1z"/>
		</g>
	</g>
	<g>
		<g>
			<polygon class="st5" points="1835.4,12.8 2162.7,12.8 2150.3,101.1 1912.3,101.1 1887.8,275.7 2097.8,275.7 2085.4,364.1 
				1875.4,364.1 1849.6,548.3 2163,548.3 2150.6,636.5 1748.1,636.5 			"/>
			<polygon class="st5" points="3803.3,12.8 3692.8,12.8 3529.6,230.2 3413.2,12.8 3312.9,12.8 3476.6,318.3 3432.1,636.1 
				3521.4,636.1 3563.9,331.8 			"/>
			<polygon class="st5" points="1356,651.2 1585.3,216.2 1601.9,636.5 1692.7,636.5 1668.1,12.8 1590.1,12.8 1387,397.9 
				1292.3,12.8 1214.5,12.8 1011,636.5 1102.5,636.5 1245,200.1 			"/>
			<path class="st5" d="M3111.7,0c-172.8,0-274.1,160.7-296.7,322.5c-24.6,175.5,25.2,329.6,198.5,329.6
				c210.5,0,281.6-215.8,297.5-329.6C3344.7,81.4,3203.8,0,3111.7,0z M3223.4,310.3c-3.3,23.5-17.4,104.9-61.5,170.2
				c-38.3,56.8-85.5,83.2-148.5,83.2c-49,0-69.6-17.1-80.9-30c-31.2-35.9-42.4-110.2-30-198.8c12.8-91.4,71.2-246.3,209.1-246.3
				c21.7,0,53.6,10,78,37.9C3223.2,165,3234.8,228.5,3223.4,310.3z"/>
			<path class="st5" d="M446.8,579.6c-28.4,19.9-54.8,34.9-79.6,45.2c-38.7,16-68.4,18.5-88.1,18.5c-5,0-9.3-0.2-13.1-0.3
				c-1.3,0-3.2-0.1-3.8-0.1c-0.1,0-0.3,0-0.4,0c-103.5,0-164.9-45.4-197.9-83.5C13,500.8-9.1,415.5,3.5,325.4
				c9.5-68.4,33.9-128,72.3-177.4c32.1-41.2,73.5-74.6,123.1-99.4C287,5,376.8,1.6,402.1,1.6c60.9,0,106.2,6.7,124.1,9.9L513.9,100
				c-9.7-1.8-52.2-9.1-111.8-9.1c-54.3,0-278.4,18.8-310.4,247c-14.9,106.1,32.3,216,170.6,215.8c18.2,0,45.8,5.8,102.8-27.3
				l12.7-90.8h-93.3l12.2-87.1h182.6L446.8,579.6z"/>
			<path class="st5" d="M860.6,12.8H782L497,636.5h95.8l77.6-169.9h178.9l28.8,170h88.4L860.6,12.8z M710.1,379.5l90.6-198.4
				l33.7,198.4H710.1z"/>
			<path class="st5" d="M2684.2,306.8c-4.9-4.3-9.9-8.3-15.1-12.1c34.2-33.4,53.1-79,53.2-128.6c0.1-59.4-23.5-95.6-43.3-115.4
				c-19.7-19.8-55.7-42.5-114.8-42.5h-96.1l0,0h-34.7l-87.9,628.3h32.6l0,0h192.7l0,0c50.5,0,99.2-22.4,133.3-63
				c29.3-34.9,46.2-80,46.2-123.9C2750.6,395.3,2727,344.6,2684.2,306.8z M2510.3,96.6h53.9l0,0c33.1,0,69.1,11.5,68.9,69.3
				c-0.1,54-41.1,90.7-92.7,90.7l0,0h-52.4L2510.3,96.6z M2571.1,548.4L2571.1,548.4h-123.8l28.4-203.2h83.5
				c41.9,1.1,102.2,42.3,102.2,104.7C2661.4,495.5,2624.3,548.3,2571.1,548.4z"/>
		</g>
	</g>
</g>
</svg>
