<?xml version="1.0" encoding="utf-8"?>
<!-- Generator: Adobe Illustrator 25.4.1, SVG Export Plug-In . SVG Version: 6.00 Build 0)  -->
<svg version="1.1" id="Layer_1" xmlns="http://www.w3.org/2000/svg" xmlns:xlink="http://www.w3.org/1999/xlink" x="0px" y="0px"
	 viewBox="0 0 3839 1414.3" style="enable-background:new 0 0 3839 1414.3;" xml:space="preserve">
<style type="text/css">
	.st0{fill:#232F95;}
	.st1{fill:#FFFFFF;}
	.st2{fill:url(#SVGID_1_);}
	.st3{fill:url(#SVGID_00000111155831620639866600000003921391370441781127_);}
	.st4{fill:url(#SVGID_00000102505985199485770770000002354646192602757268_);}
	.st5{fill:url(#SVGID_00000125576369834967694360000008750145347336252329_);}
	.st6{fill:url(#SVGID_00000135687819843697360640000006178138543656851584_);}
	.st7{fill:url(#SVGID_00000159466921493868720810000014016182508573058443_);}
	.st8{fill:url(#SVGID_00000005963664294035192360000010232689159189231764_);}
	.st9{fill:url(#SVGID_00000028289871621437128210000015079656264657254296_);}
	.st10{fill:url(#SVGID_00000179622374488693294260000006428509399074704771_);}
	.st11{fill:url(#SVGID_00000129184652046110450460000006664022786634611385_);}
	.st12{fill:url(#SVGID_00000047040353598646357520000015233783875449208982_);}
	.st13{fill:url(#SVGID_00000128465994653147609660000002356153413276012958_);}
	.st14{fill:url(#SVGID_00000124843515884733181300000000975493194917203862_);}
	.st15{fill:url(#SVGID_00000041287490194169250410000016737827370745144460_);}
	.st16{fill:url(#SVGID_00000165236041691446987680000005084904786898057381_);}
	.st17{fill:url(#SVGID_00000183949014214310268350000009609324948710083971_);}
	.st18{fill:url(#SVGID_00000088851781461254300500000006851920764484114564_);}
	.st19{fill:url(#SVGID_00000096027901367377455620000006351458748177850772_);}
	.st20{fill:url(#SVGID_00000163045006492054414240000015303733003173297815_);}
	.st21{fill:url(#SVGID_00000124133705642821249080000004768747987113346205_);}
	.st22{fill:url(#SVGID_00000114768731945875480620000002539457988870048659_);}
	.st23{fill:url(#SVGID_00000163073950339811047650000017515012285716990100_);}
	.st24{fill:url(#SVGID_00000068637302818759395650000014331928639785075880_);}
	.st25{fill:url(#SVGID_00000080905215484906015530000016757500179074461873_);}
	.st26{fill:url(#SVGID_00000088820663036675996100000005074625290124592516_);}
	.st27{fill:url(#SVGID_00000158750510226715191150000015296448661273174697_);}
	.st28{fill:url(#SVGID_00000031207955803517378350000003532800925294346134_);}
	.st29{fill:url(#SVGID_00000041999318073065795220000001098796282890510479_);}
	.st30{fill:url(#SVGID_00000110430823044379712300000013858908252337647505_);}
	.st31{fill:url(#SVGID_00000103946264971653337990000008553512655500450239_);}
	.st32{fill:url(#SVGID_00000127760133219926337850000009198919923678461341_);}
	.st33{fill:url(#SVGID_00000126297753265187848600000004104448924967569591_);}
	.st34{fill:url(#SVGID_00000008833277450093800480000006217495151914939835_);}
	.st35{fill:url(#SVGID_00000036966391068821537410000008439398539339995543_);}
	.st36{fill:url(#SVGID_00000055670748804823379960000007551668827257974413_);}
	.st37{fill:url(#SVGID_00000172424596269058316640000000819781847684258444_);}
	.st38{fill:url(#SVGID_00000125586925699360725690000003283789030693180817_);}
	.st39{fill:url(#SVGID_00000027571041272524568500000015298002476423181199_);}
	.st40{fill:url(#SVGID_00000071545189202617430810000006534817371035438255_);}
	.st41{fill:url(#SVGID_00000156550682698456145650000007087030678488582536_);}
	.st42{fill:url(#SVGID_00000095320764000114775570000009462233817454140032_);}
	.st43{fill:url(#SVGID_00000102514523281597422960000009377680344598390149_);}
	.st44{fill:url(#SVGID_00000084507588244482266580000007917685195985323912_);}
	.st45{fill:url(#SVGID_00000178924607815115377220000004428381974945017266_);}
	.st46{fill:url(#SVGID_00000148646060500486268460000013146237913309537927_);}
	.st47{fill:url(#SVGID_00000152958648000672291710000015307639916022133377_);}
	.st48{fill:url(#SVGID_00000178917258206351504470000004291504326095087241_);}
	.st49{fill:url(#SVGID_00000178920245088709297140000016680930745378489738_);}
	.st50{fill:url(#SVGID_00000129917159589641049260000018090883685744880809_);}
	.st51{fill:url(#SVGID_00000181071821584505362330000017030227939017686438_);}
	.st52{fill:url(#SVGID_00000003816609578286839430000004440517338844064178_);}
	.st53{fill:url(#SVGID_00000021816503937097817170000013819552135466679221_);}
	.st54{fill:url(#SVGID_00000183951145400811889200000000618121169936689853_);}
	.st55{fill:url(#SVGID_00000101102539219882780450000003719937841384861058_);}
	.st56{fill:url(#SVGID_00000183961910716279688730000007112395034997792932_);}
	.st57{fill:url(#SVGID_00000162336997367908664000000007940044183100875179_);}
	.st58{fill:url(#SVGID_00000039130677364185276490000014266969434623134374_);}
	.st59{fill:url(#SVGID_00000047783105738019130320000014633016404570536366_);}
	.st60{fill:url(#SVGID_00000011750337611780726570000013502693707846538137_);}
	.st61{fill:url(#SVGID_00000006674794806524696930000013371361977527028413_);}
	.st62{fill:url(#SVGID_00000098904343007380300770000012479348707845482397_);}
	.st63{fill:url(#SVGID_00000087386093682477674360000002336906702549373321_);}
	.st64{fill:url(#SVGID_00000108294489057082372310000002383317667675496592_);}
	.st65{fill:url(#SVGID_00000051368249315405644690000018399974361766161031_);}
	.st66{fill:url(#SVGID_00000105418064807748624940000016306381836752136368_);}
	.st67{fill:url(#SVGID_00000072261679962212305160000008286479038696224427_);}
	.st68{fill:url(#SVGID_00000172398841209935902020000013900518959160018855_);}
	.st69{fill:url(#SVGID_00000062900436345161915750000011648221797971493037_);}
	.st70{fill:url(#SVGID_00000086664128717373690090000008150238684107899795_);}
	.st71{fill:url(#SVGID_00000160869930361446154990000016295628700523454863_);}
	.st72{fill:url(#SVGID_00000048486344557370565360000001513219322901257088_);}
	.st73{fill:url(#SVGID_00000005232601554370661190000008017184386436351408_);}
	.st74{fill:url(#SVGID_00000013908650767259040260000003808282214285952898_);}
	.st75{fill:url(#SVGID_00000085933251674414256090000013505591597167484057_);}
	.st76{fill:url(#SVGID_00000103949561111187055810000007498985008643805856_);}
	.st77{fill:url(#SVGID_00000111162032036420683190000000576236652284246432_);}
	.st78{fill:url(#SVGID_00000018218533963572417340000016835114783246867348_);}
	.st79{fill:url(#SVGID_00000003820356082619591960000001786236105030194878_);}
	.st80{fill:url(#SVGID_00000029757529805245030930000010474722249145135003_);}
	.st81{fill:url(#SVGID_00000117646066925799794250000013554168195865380996_);}
	.st82{fill:url(#SVGID_00000146496031361196703130000011610327754578062980_);}
	.st83{fill:url(#SVGID_00000075842378248539174930000003841841825330425009_);}
	.st84{fill:url(#SVGID_00000146488613654166133080000015835284975911055546_);}
	.st85{fill:url(#SVGID_00000174569748824825321370000009608438536170211767_);}
	.st86{fill:url(#SVGID_00000157994016389690208890000009553073283184751281_);}
	.st87{fill:url(#SVGID_00000088094735364594042250000002096994546538596252_);}
	.st88{fill:url(#SVGID_00000090993358089488101030000006045381561970617233_);}
	.st89{fill:url(#SVGID_00000003793881244704239660000010595431425589047197_);}
	.st90{fill:url(#SVGID_00000162311091279547178500000002421070925260168856_);}
	.st91{fill:url(#SVGID_00000172425013629557192010000005610618577153827723_);}
	.st92{fill:url(#SVGID_00000137116299466360090930000016766031387689321628_);}
	.st93{fill:url(#SVGID_00000168088746249613359380000017579993072394198454_);}
	.st94{fill:url(#SVGID_00000101808790435370140940000013666140995899031700_);}
	.st95{fill:url(#SVGID_00000176037820640440460690000015979205908963633026_);}
	.st96{fill:url(#SVGID_00000087378839378056133700000005665762503503259047_);}
	.st97{fill:url(#SVGID_00000137810388604049265580000015261360802731522949_);}
	.st98{fill:url(#SVGID_00000044173014407537582350000016531263900444008069_);}
	.st99{fill:url(#SVGID_00000121271349619948359980000001219976659143107457_);}
	.st100{fill:url(#SVGID_00000164511126829033100200000015337641773915872140_);}
	.st101{fill:url(#SVGID_00000036932241071343100240000007765938015855361981_);}
	.st102{fill:#502F8E;}
	.st103{fill:url(#SVGID_00000036251372296742234340000014290761139889725370_);}
	.st104{fill:url(#SVGID_00000008853054678031311610000018428472253974207400_);}
	.st105{fill:url(#SVGID_00000008846118374973541120000007210839448657387933_);}
	.st106{fill:url(#SVGID_00000106838263182621147290000015255230233791138183_);}
	.st107{fill:url(#SVGID_00000001630684608283675680000014164515598874084763_);}
	.st108{fill:url(#SVGID_00000137108355812556031780000009080209647651570110_);}
	.st109{fill:url(#SVGID_00000057830678313007710010000012017431246686948227_);}
	.st110{fill:url(#SVGID_00000170957859364850771090000003402348167107545257_);}
	.st111{fill:url(#SVGID_00000077287843655987309490000016789832724607440032_);}
	.st112{fill:url(#SVGID_00000072281100655539002790000007952468819740287620_);}
	.st113{fill:url(#SVGID_00000040573812978061329810000009577814239215475644_);}
	.st114{fill:url(#SVGID_00000079460190444506935780000004048075949219445675_);}
	.st115{fill:url(#SVGID_00000060744903777669835370000005615353148602590893_);}
	.st116{fill:url(#SVGID_00000021106302835952826970000009317184489639367834_);}
	.st117{fill:url(#SVGID_00000057867512656273821160000010457436725358317478_);}
	.st118{fill:url(#SVGID_00000119106398411782732590000017792179888989095298_);}
	.st119{fill:url(#SVGID_00000124153508231584034930000004731654696319087802_);}
	.st120{fill:url(#SVGID_00000058559845969719811410000015315788278890198680_);}
	.st121{fill:url(#SVGID_00000056385410202062330420000006334104535532994188_);}
	.st122{fill:url(#SVGID_00000093879957888941137650000003359491328662500792_);}
	.st123{fill:url(#SVGID_00000031208541866598604000000004047747697763873939_);}
	.st124{fill:url(#SVGID_00000061453077900063386580000002044776417746415239_);}
	.st125{fill:url(#SVGID_00000146500507757214854560000004821689623512530870_);}
	.st126{fill:url(#SVGID_00000003819639602468096780000013144772823472034977_);}
	.st127{fill:url(#SVGID_00000023959699375140884670000000155761568448343426_);}
	.st128{fill:url(#SVGID_00000180354571358538470330000001732809884278679987_);}
	.st129{fill:url(#SVGID_00000010284858850122035510000012679714933227294653_);}
	.st130{fill:url(#SVGID_00000139994528720323636910000007254416428379876001_);}
	.st131{fill:url(#SVGID_00000132808203613443972280000018265625857570661013_);}
	.st132{fill:url(#SVGID_00000181083466188099018210000011444804181829572287_);}
	.st133{fill:url(#SVGID_00000062875186091174252910000010669617004798679169_);}
	.st134{fill:url(#SVGID_00000111893472098060429360000000449394970850741140_);}
	.st135{fill:url(#SVGID_00000011005684254518352090000015286956151922343317_);}
	.st136{fill:url(#SVGID_00000160910139417218591810000006428271600538982559_);}
	.st137{fill:url(#SVGID_00000182499564561159479270000018326699335767706018_);}
	.st138{fill:url(#SVGID_00000076572742602134104350000011969449675760683653_);}
	.st139{fill:url(#SVGID_00000085961956969031056220000010642492123210370737_);}
	.st140{fill:url(#SVGID_00000072999152562050466670000011944965775155081629_);}
	.st141{fill:url(#SVGID_00000065767854046803778070000005075415008300119986_);}
	.st142{fill:url(#SVGID_00000041280786202012134260000015534635522609991090_);}
	.st143{fill:url(#SVGID_00000119103165187408034730000004583305741708083856_);}
	.st144{fill:url(#SVGID_00000016790521302516327010000011088643622070453408_);}
	.st145{fill:url(#SVGID_00000044888601943264166920000007970902295563136442_);}
	.st146{fill:url(#SVGID_00000169519328610677799880000007976115787783773866_);}
	.st147{fill:url(#SVGID_00000127027828053358944170000005650972635310499226_);}
	.st148{fill:url(#SVGID_00000054968186400808332450000007313695073981143216_);}
	.st149{fill:url(#SVGID_00000093163734951847127200000000889793317580350393_);}
	.st150{fill:url(#SVGID_00000128472868284657109780000004296849854750791317_);}
	.st151{fill:url(#SVGID_00000065795392523845977620000011688006695130277024_);}
	.st152{fill:url(#SVGID_00000127725037828641494890000018372380342737851776_);}
	.st153{fill:url(#SVGID_00000047042156146787235430000015653478412568785793_);}
	.st154{fill:url(#SVGID_00000176035722815367847270000004536325122525445540_);}
	.st155{fill:url(#SVGID_00000114058566928871680420000013621696264561814937_);}
	.st156{fill:url(#SVGID_00000016791367835541623010000009022567865681271461_);}
	.st157{fill:url(#SVGID_00000122693304374497811430000012725745249411198853_);}
	.st158{fill:url(#SVGID_00000016760037650210823790000010904899712354793092_);}
	.st159{fill:url(#SVGID_00000098917707943659990530000008221010442896029590_);}
	.st160{fill:url(#SVGID_00000071534127973441870170000007647776391460175517_);}
	.st161{fill:url(#SVGID_00000016782514982678602800000004543400314855856786_);}
	.st162{fill:url(#SVGID_00000134934459143720026360000018372068682464717194_);}
	.st163{fill:url(#SVGID_00000172441850778456384420000009540668683583963829_);}
	.st164{fill:url(#SVGID_00000115503454084374166340000005023665214171221659_);}
	.st165{fill:url(#SVGID_00000103253165500664416640000008802041873136478869_);}
	.st166{fill:url(#SVGID_00000075124601132318590760000003746280980555171756_);}
	.st167{fill:url(#SVGID_00000003816206492500957830000008053413438750542994_);}
	.st168{fill:url(#SVGID_00000161595627094538585830000015870733599908393346_);}
	.st169{fill:url(#SVGID_00000175321398282941928390000008482439895151973548_);}
	.st170{fill:url(#SVGID_00000130625419415949072190000013289145415420521404_);}
</style>
<g>
	<path class="st0" d="M3529.5,503.5L3839,16.6h-832.7c-61.3,0.3-122.8,17.9-178.4,52.6c-22.2,13.9-42.9,30.2-62.2,48.4
		C2713.1,55,2657.6,16.6,2567.9,16.6H1156.6l-45.4,139.7L1088,16.6H780l-11.2,25.5L739,31.8C577.7-24.1,421.2-6.2,273.8,85
		c-153.3,94.9-224.6,243.4-206,429.4c11.2,111.8,82,211.4,189.5,266.3c31.3,16.1,64.2,27.5,98,34.5L0,1414.1h991.1
		c157.5,0,253.6-47.4,307.2-107.6l66.6,107.9h978v-136.8l175.9,136.8h1207V787.5h-239.3L3529.5,503.5z"/>
	<g>
		<g>
			<path class="st1" d="M1614,891.7l-3.5,6.3L1465,1162.3l-154.4-264.6l-3.5-6h-136.5l11.2,18.4l26.3,43.3
				c-42.1-40-106.6-61.7-190.5-61.7H742.9v343.7L539.5,897.9l-3.5-5.9h-105l-3.5,6l-231.4,389.9l-10.9,18.3h91v0.1h202.2v-91.6h-119
				L478.4,1000l168.2,300l3.5,6.2h135.5l-0.2-0.4h208.2c179.5,0,270.6-70.1,270.6-208.4c0-24-3.1-46.2-9.1-66.3L1418,1300l3.5,5.8
				h79.3l3.5-6.1l226.1-389.9l10.6-18.2H1614z M973.2,1209.3H862.7V985.6h155.7c84.2,0,123.5,34.1,123.5,107.1
				C1141.9,1179.8,1099.4,1209.3,973.2,1209.3z"/>
			<polyline class="st1" points="2533.8,891.7 2521.7,891.7 2521.7,1138 2210.3,894.2 2207,891.7 2125.3,891.7 2125.3,1235.6 
				1921.6,897.7 1918,891.8 1813,891.8 1809.5,897.8 1578.1,1287.7 1567.2,1306 1690.6,1306 1690.9,1305.6 1860.7,1305.6 
				1860.7,1214 1741.6,1214 1860.6,999.8 2028.7,1299.8 2032.2,1306 2167.8,1306 2167.7,1305.8 2236.2,1305.8 2236.2,1056.1 
				2546.4,1303.2 2549.7,1305.8 2631.2,1305.8 2631.2,891.7 2533.8,891.7 			"/>
			<path class="st1" d="M3023.8,891.8H2781c-85.2,0-113.9,26.4-113.9,104.5v205.2c0,77.9,28.7,104.3,113.9,104.3h242.8
				c85.3,0,114.1-26.4,114.1-104.3v-58.2l-12.1-0.1l-95.6-0.2h-12.2v63.8h-231.4V988.1h231.4v57.5l12.2,0.1l95.5,0.3l12.2,0v-49.9
				C3138,917.2,3110.2,891.8,3023.8,891.8"/>
			<polyline class="st1" points="3611.9,1209.3 3296.7,1209.3 3296.7,1136.7 3484.8,1136.7 3484.8,1045.3 3296.7,1045.3 
				3296.7,985.5 3619.5,985.5 3619.5,891.8 3176.9,891.8 3176.9,1305.8 3624.1,1305.8 3624.1,1209.3 3611.9,1209.3 			"/>
		</g>
	</g>
	<path class="st1" d="M1549,119.5l-137.6,323.8L1352,119.5h-120.1l-155.2,477.7l-79.6-477.7H847.4L620.7,634.1L654.5,419H429.2
		l-17.2,110.7h94.1L495.3,589c-54,21.5-145.7,13.4-184.9-56.7c-24.8-44.4-47.8-143.7,56.6-234.8c85-74.2,232.1-87.7,317.1-48.6
		c0,0,10.8-62.1,18.9-120.1c-163.2-56.7-290.1-9.5-375,43.2c-115.7,71.6-171.4,180.8-156.5,329.1c17.2,172.2,240.1,280.7,429,171.4
		c1.7-1,3-1.8,4.3-2.5L587,710.4h126.8l79.6-176.7h140.3l31,176.7h206.4l105.2-330.6l67.5,330.6h81l157.9-365.6l16.1,365.6h121.4
		l-25.6-590.9H1549 M842,419l51.3-114.6L915.5,419H842z"/>
	<polyline class="st1" points="1729.8,710.4 2068.4,710.4 2088.7,583.6 1876.8,583.6 1893.6,478.4 2077.9,478.4 2098.1,351.6 
		1911.9,351.6 1928.1,246.3 2139.9,246.3 2160.2,119.5 1824.2,119.5 1729.8,710.4 	"/>
	<polygon class="st1" points="3504,119.5 3383.9,312.4 3308.4,119.5 3169.4,119.5 3312.4,431.1 3268.4,710.4 3389.8,710.4 
		3427.1,463.5 3645.7,119.5 	"/>
	<path class="st1" d="M3052.8,124.6c-134.6-31.1-274.2,76.1-311.9,239.6c-37.8,163.3,40.8,320.9,175.4,352
		c134.6,31.1,274.2-76.1,311.9-239.5C3265.9,313.3,3187.4,155.7,3052.8,124.6 M3100.3,471.9c-32.8,98.3-111.4,154.7-175.7,126
		c-64.2-28.8-89.7-131.7-56.9-230c32.7-98.3,111.3-154.7,175.6-125.9C3107.6,270.7,3133.1,373.7,3100.3,471.9z"/>
	<path class="st1" d="M2571.3,122.8c-65.6-1.1-227.6,0-227.6,0h1.3l-93.7,586.4c0,0,194.2,0,273.1,0c112.5,0,277-165.8,127.2-301.1
		C2805.6,248.7,2653,124.2,2571.3,122.8 M2500.3,595.5c-67,0-107.1,0-107.1,0l18.8-117.9c0,0,25.4,0,101.7,0
		C2610.1,477.6,2607.4,595.5,2500.3,595.5z M2515,357.1c-67,0-84.4,0-84.4,0l18.8-109.8c0,0,2.7,0,79,0
		C2614.1,247.3,2596.7,357.1,2515,357.1z"/>
</g>
</svg>
