<?xml version="1.0" encoding="utf-8"?>
<!-- Generator: Adobe Illustrator 26.3.1, SVG Export Plug-In . SVG Version: 6.00 Build 0)  -->
<svg version="1.1" id="Layer_1" xmlns="http://www.w3.org/2000/svg" xmlns:xlink="http://www.w3.org/1999/xlink" x="0px" y="0px"
	 viewBox="0 0 3839 783.3" style="enable-background:new 0 0 3839 783.3;" xml:space="preserve">
<style type="text/css">
	.st0{fill:#FFB71B;}
	.st1{fill:#FFFFFF;}
</style>
<g>
	<path class="st0" d="M343.2,113.6c-85,0-119.1,44.1-143,75v-64.2H0v603h200.2V557.4c17.8,21.6,54.1,67.3,136.8,67.3
		c121.4,0,211-105.1,211-261.3C548.1,231.9,476.2,113.6,343.2,113.6z M254.3,495.5c-26.3,0-41-11.6-53.3-20.1V265.2
		c18.6-11.6,33.2-19.3,54.9-19.3c61.1,0,83.5,58.8,83.5,124.5C338.6,463.8,292.2,495.5,254.3,495.5z"/>
	<rect x="584.4" class="st0" width="201.8" height="605.3"/>
	<path class="st0" d="M1332.7,605.3V313.1c0-52.6-0.8-124.5-80.4-175.5c-15.5-10.8-60.3-38.7-156.2-38.7
		C954,99,892.1,163.1,849.6,211l59.5,50.2c25.5-25.5,61.1-61.1,122.9-61.1c13.9,0,40.2,0.8,64.9,20.9c34,27.8,34.8,67.3,34.8,95.1
		c-26.3-8.5-64.2-20.9-116.7-20.9c-105.1,0-190.2,59.5-190.2,165.4c0,85.8,57.2,157.7,158.5,157.7c87.4,0,123.7-45.6,147.7-78.1
		v64.2h201.8V605.3z M1069.1,503.3c-32.5,0-51-25.5-51-51.8c0-24,15.5-58.8,69.6-58.8c17,0,27.8,2.3,44.1,6.2V470
		C1114.7,487.8,1098.5,503.3,1069.1,503.3z"/>
	<path class="st0" d="M1694.5,125.2c-58,164.7-64.2,182.4-86.6,264.4c-15.5-80.4-46.4-177-73.4-264.4h-212.6l182.4,439.1
		c-43.3,76.5-78.1,136.8-181.7,143.8v75c61.8,0.8,146.9,0.8,217.2-44.1s103.6-119.8,129.1-177l186.3-436.8
		C1855.3,125.2,1694.5,125.2,1694.5,125.2z"/>
	<path class="st0" d="M2172.3,170.8c-21.6-27.1-56.4-69.6-140.7-69.6c-136.8,0-208,124.5-208,263.6c0,136.8,71.1,252,204.1,252
		c89.7,0,125.2-50.2,144.6-77.3V603h201V4.6h-201V170.8z M2172.3,463.8c-17.8,9.3-32.5,18.6-57.2,18.6c-56.4,0-83.5-52.6-83.5-119.8
		c0-85,37.9-129.9,85-129.9c24.7,0,39.4,9.3,54.9,20.1v211H2172.3z"/>
	<path class="st0" d="M2841.8,136.8c-15.5-10.8-60.3-38.7-156.2-38.7c-142.2,0-204.1,64.2-246.6,112.1l59.5,50.2
		c25.5-25.5,61.1-61.1,122.9-61.1c13.9,0,40.2,0.8,64.9,20.9c34,27.8,34.8,67.3,34.8,95.1c-26.3-8.5-64.2-20.9-116.7-20.9
		c-105.1,0-190.2,59.5-190.2,165.4c0,85.8,57.2,157.7,158.5,157.7c87.4,0,123.7-45.6,147.7-78.1v64.2h201.8V311.5
		C2922.2,259,2921.4,187.1,2841.8,136.8z M2721.2,468.5c-17,17.8-33.2,33.2-61.8,33.2c-32.5,0-51-25.5-51-51.8
		c0-24,15.5-58.8,69.6-58.8c17,0,27.8,2.3,44.1,6.2v71.1H2721.2z"/>
	<path class="st0" d="M3263.8,515.6c-56.4,0-56.4-52.6-56.4-73.4V279.8h83.5V165.4h-82.7V47.9h-201v117.5h-53.3v114.4h53.3v171.6
		c0,41,2.3,87.4,40.2,125.2c33.2,32.5,81.2,45.6,126.8,45.6c72.7,0,114.4-27.8,143.8-46.4l-24-64.9
		C3283.9,514.1,3274.7,515.6,3263.8,515.6z"/>
	<path class="st0" d="M3638.8,511c-30.1,0-56.4-6.2-81.2-24.7c-34.8-24.7-41-54.9-45.6-83.5h327c0-61.8,0-190.9-116-262.8
		c-34-21.6-84.3-40.2-150-40.2C3415.4,99.7,3311,208,3311,359.5c0,150,102.8,257.4,272.1,257.4c146.9,0,212.6-91.2,236.6-124.5
		l-52.6-45.6C3743.9,471.6,3704.5,511,3638.8,511z M3576.9,208c64.2,0,67.3,66.5,69.6,96.6h-140.7
		C3509.7,270.6,3518.2,208,3576.9,208z"/>
</g>
</svg>
