<?xml version="1.0" encoding="utf-8"?>
<!-- Generator: Adobe Illustrator 25.4.1, SVG Export Plug-In . SVG Version: 6.00 Build 0)  -->
<svg version="1.1" id="Layer_1" xmlns="http://www.w3.org/2000/svg" xmlns:xlink="http://www.w3.org/1999/xlink" x="0px" y="0px"
	 viewBox="0 0 3839 684.1" style="enable-background:new 0 0 3839 684.1;" xml:space="preserve">
<style type="text/css">
	.st0{fill:#FFFFFF;}
	.st1{fill:#912620;}
	.st2{fill:#008471;}
	.st3{fill:#005090;}
	.st4{fill:#B22D2A;}
	.st5{fill:#B32D2A;}
	.st6{fill:#B42D2A;}
	.st7{fill:#B52D2A;}
	.st8{fill:#B62D2A;}
	.st9{fill:#B72D29;}
	.st10{fill:#B82D29;}
	.st11{fill:#B92D29;}
	.st12{fill:#BA2D29;}
	.st13{fill:#BB2D29;}
	.st14{fill:#BC2D29;}
	.st15{fill:#BD2D29;}
	.st16{fill:#BE2D29;}
	.st17{fill:#BF2D29;}
	.st18{fill:#C02D29;}
	.st19{fill:#C12D28;}
	.st20{fill:#C22D28;}
	.st21{fill:#C32D28;}
	.st22{fill:#C42D28;}
	.st23{fill:#C52D28;}
	.st24{fill:#C62D28;}
	.st25{fill:#C72D28;}
	.st26{fill:#C82D28;}
	.st27{fill:#C92D28;}
	.st28{fill:#CA2D28;}
	.st29{fill:#CA2E27;}
	.st30{fill:#CB2E27;}
	.st31{fill:#CC2E27;}
	.st32{fill:#CD2E27;}
	.st33{fill:#CE2E27;}
	.st34{fill:#CF2E27;}
	.st35{fill:#D02E27;}
	.st36{fill:#D12E27;}
	.st37{fill:#D22E27;}
	.st38{fill:#D32E27;}
	.st39{fill:#D42E26;}
	.st40{fill:#D52E26;}
	.st41{fill:#D62E26;}
	.st42{fill:#D72E26;}
	.st43{fill:#D82E26;}
	.st44{fill:#D92E26;}
	.st45{fill:#DA2E26;}
	.st46{fill:#DB2E26;}
	.st47{fill:#DC2E26;}
	.st48{fill:#DD2E26;}
	.st49{fill:#DE2E25;}
	.st50{fill:#DF2E25;}
	.st51{fill:#E02E25;}
	.st52{fill:#E12E25;}
	.st53{fill:#E22E25;}
	.st54{fill:#009588;}
	.st55{fill:#009587;}
	.st56{fill:#019486;}
	.st57{fill:#019485;}
	.st58{fill:#019384;}
	.st59{fill:#029383;}
	.st60{fill:#029382;}
	.st61{fill:#029281;}
	.st62{fill:#039280;}
	.st63{fill:#03917F;}
	.st64{fill:#03917E;}
	.st65{fill:#03917D;}
	.st66{fill:#04907C;}
	.st67{fill:#04907B;}
	.st68{fill:#048F7A;}
	.st69{fill:#058F79;}
	.st70{fill:#058F78;}
	.st71{fill:#058E77;}
	.st72{fill:#068E76;}
	.st73{fill:#068D75;}
	.st74{fill:#068D74;}
	.st75{fill:#078D73;}
	.st76{fill:#078C72;}
	.st77{fill:#078C71;}
	.st78{fill:#088B70;}
	.st79{fill:#088B6F;}
	.st80{fill:#088B6E;}
	.st81{fill:#088A6D;}
	.st82{fill:#098A6C;}
	.st83{fill:#09896B;}
	.st84{fill:#09896A;}
	.st85{fill:#0A8969;}
	.st86{fill:#0A8868;}
	.st87{fill:#0A8867;}
	.st88{fill:#0B8766;}
	.st89{fill:#0B8765;}
	.st90{fill:#0B8764;}
	.st91{fill:#0C8663;}
	.st92{fill:#0C8662;}
	.st93{fill:#0C8561;}
	.st94{fill:#0D8560;}
	.st95{fill:#0D845F;}
	.st96{fill:#0D845E;}
	.st97{fill:#0E835D;}
	.st98{fill:#0E835C;}
	.st99{fill:#0E835B;}
	.st100{fill:#0F825A;}
	.st101{fill:#0F8259;}
	.st102{fill:#0F8158;}
	.st103{fill:#108157;}
	.st104{fill:#108156;}
	.st105{fill:#108055;}
	.st106{fill:#118054;}
	.st107{fill:#117F53;}
	.st108{fill:#117F52;}
	.st109{fill:#117F51;}
	.st110{fill:#127E50;}
	.st111{fill:#127E4F;}
	.st112{fill:#127D4E;}
	.st113{fill:#137D4D;}
	.st114{fill:#137D4C;}
	.st115{fill:#137C4B;}
	.st116{fill:#147C4A;}
	.st117{fill:#147B49;}
	.st118{fill:#147B48;}
	.st119{fill:#157B47;}
	.st120{fill:#157A46;}
	.st121{fill:#157A45;}
	.st122{fill:#167944;}
	.st123{fill:#167943;}
	.st124{fill:#167942;}
	.st125{fill:#167841;}
	.st126{fill:#177840;}
	.st127{fill:#17773F;}
	.st128{fill:#17773E;}
	.st129{fill:#18773D;}
	.st130{fill:#18763C;}
	.st131{fill:#18763B;}
	.st132{fill:#19753A;}
	.st133{fill:#197539;}
	.st134{fill:#005EAA;}
	.st135{fill:#005EAB;}
	.st136{fill:#015FAC;}
	.st137{fill:#015FAD;}
	.st138{fill:#0160AE;}
	.st139{fill:#0260AF;}
	.st140{fill:#0261B0;}
	.st141{fill:#0261B1;}
	.st142{fill:#0362B2;}
	.st143{fill:#0362B3;}
	.st144{fill:#0362B4;}
	.st145{fill:#0463B5;}
	.st146{fill:#0463B6;}
	.st147{fill:#0464B7;}
	.st148{fill:#0564B8;}
	.st149{fill:#0565B9;}
	.st150{fill:#0565BA;}
	.st151{fill:#0666BB;}
	.st152{fill:#0666BC;}
	.st153{fill:#0666BD;}
	.st154{fill:#0767BE;}
	.st155{fill:#0767BF;}
	.st156{fill:#0768BF;}
	.st157{fill:#0768C0;}
	.st158{fill:#0869C1;}
	.st159{fill:#0869C2;}
	.st160{fill:#0869C3;}
	.st161{fill:#096AC4;}
	.st162{fill:#096AC5;}
	.st163{fill:#096BC6;}
	.st164{fill:#0A6BC7;}
	.st165{fill:#0A6CC8;}
	.st166{fill:#0A6CC9;}
	.st167{fill:#0B6DCA;}
	.st168{fill:#0B6DCB;}
	.st169{fill:#0B6DCC;}
	.st170{fill:#0C6ECD;}
	.st171{fill:#0C6ECE;}
	.st172{fill:#0C6FCF;}
	.st173{fill:#0D6FD0;}
	.st174{fill:#0D70D1;}
	.st175{fill:#0D70D2;}
	.st176{fill:#0E71D3;}
	.st177{fill:#0E71D4;}
	.st178{fill:#0058B7;}
	.st179{fill:#0058B6;}
	.st180{fill:#0057B5;}
	.st181{fill:#0057B4;}
	.st182{fill:#0057B3;}
	.st183{fill:#0057B2;}
	.st184{fill:#0056B1;}
	.st185{fill:#0056B0;}
	.st186{fill:#0056AF;}
	.st187{fill:#0056AE;}
	.st188{fill:#0055AD;}
	.st189{fill:#0055AC;}
	.st190{fill:#0055AB;}
	.st191{fill:#0055AA;}
	.st192{fill:#0054A9;}
	.st193{fill:#0054A8;}
	.st194{fill:#0054A7;}
	.st195{fill:#0054A6;}
	.st196{fill:#0053A5;}
	.st197{fill:#0053A4;}
	.st198{fill:#0053A3;}
	.st199{fill:#0053A2;}
	.st200{fill:#0052A1;}
	.st201{fill:#0052A0;}
	.st202{fill:#00529F;}
	.st203{fill:#00529E;}
	.st204{fill:#00519D;}
	.st205{fill:#00519C;}
	.st206{fill:#00519B;}
	.st207{fill:#00519A;}
	.st208{fill:#005099;}
	.st209{fill:#005098;}
	.st210{fill:#005097;}
	.st211{fill:#005096;}
	.st212{fill:#004F95;}
	.st213{fill:#004F94;}
	.st214{fill:#004F93;}
	.st215{fill:#004F92;}
	.st216{fill:#004E91;}
	.st217{fill:#004E90;}
	.st218{fill:#004E8F;}
	.st219{fill:#004E8E;}
	.st220{fill:#004D8D;}
	.st221{fill:#004D8C;}
	.st222{fill:#004D8B;}
	.st223{fill:#004D8A;}
	.st224{fill:#004C89;}
	.st225{fill:#004C88;}
	.st226{fill:#008472;}
	.st227{fill:#008572;}
	.st228{fill:#008671;}
	.st229{fill:#008771;}
	.st230{fill:#008871;}
	.st231{fill:#008970;}
	.st232{fill:#008A70;}
	.st233{fill:#008B6F;}
	.st234{fill:#008C6F;}
	.st235{fill:#008D6F;}
	.st236{fill:#008E6E;}
	.st237{fill:#008F6E;}
	.st238{fill:#00906D;}
	.st239{fill:#00916D;}
	.st240{fill:#00926D;}
	.st241{fill:#00936C;}
	.st242{fill:#00946C;}
	.st243{fill:#00956B;}
	.st244{fill:#00966B;}
	.st245{fill:#00976B;}
	.st246{fill:#00986A;}
	.st247{fill:#00996A;}
	.st248{fill:#D60700;}
	.st249{fill:#034693;}
	.st250{fill:url(#SVGID_1_);}
	.st251{fill:url(#SVGID_00000038398676180992276390000017588081877144956833_);}
	.st252{fill:url(#SVGID_00000140710171797933202750000014803717380487117753_);}
	.st253{fill:url(#SVGID_00000178197074262013981020000008634519679862294689_);}
	.st254{fill:url(#SVGID_00000137099860522762812400000010394470425712356509_);}
	.st255{fill:url(#SVGID_00000166635451293108762700000013607282686961651112_);}
	.st256{fill:url(#SVGID_00000058583324199659401490000013892585783232905869_);}
	.st257{fill:url(#SVGID_00000062911658500106637960000010632392752634278021_);}
	.st258{fill:url(#SVGID_00000106842236318063657720000010869072118715754147_);}
	.st259{fill:url(#SVGID_00000010304319670492464430000007559331697053102725_);}
	.st260{fill:url(#SVGID_00000124845343175729325100000010166527837031884694_);}
	.st261{fill:url(#SVGID_00000086658284239172737200000007433104194924149651_);}
	.st262{fill:url(#SVGID_00000148622532970544561820000013493667120975457973_);}
	.st263{fill:url(#SVGID_00000034054474933477648740000002433711716584787901_);}
	.st264{fill:url(#SVGID_00000130615578668263368690000011619698212697455523_);}
	.st265{fill:url(#SVGID_00000114057508936639933430000007816170643529792386_);}
	.st266{fill:url(#SVGID_00000182489250534130855690000001667688746049239208_);}
	.st267{fill:url(#SVGID_00000130619554886062641480000016215588074567930546_);}
	.st268{fill:url(#SVGID_00000032630891636924546190000010852445128242488217_);}
	.st269{fill:url(#SVGID_00000013898184680858524440000011887677834335236523_);}
	.st270{fill:url(#SVGID_00000018200830454964241090000011159104388334429862_);}
	.st271{fill:url(#SVGID_00000117667160375284415960000005249878605347751859_);}
	.st272{fill:url(#SVGID_00000147196608958823956200000007330451490717779082_);}
	.st273{fill:url(#SVGID_00000153706118991396829150000011952890525504939437_);}
	.st274{fill:url(#SVGID_00000137101433102570033220000008977412084459370116_);}
	.st275{fill:url(#SVGID_00000145758400143070855910000016408602900603832497_);}
	.st276{fill:url(#SVGID_00000030474358682482742340000014452557841976680887_);}
	.st277{fill:url(#SVGID_00000178163050592664098360000001175983660007539075_);}
	.st278{fill:url(#SVGID_00000043428830020111681000000017916042493440180364_);}
	.st279{fill:url(#SVGID_00000026852695799749703410000011139430007910615168_);}
	.st280{fill:url(#SVGID_00000152984773577379667260000010526465681672838074_);}
	.st281{fill:url(#SVGID_00000037659967869387662540000014470201541900705415_);}
	.st282{fill:url(#SVGID_00000046314678177077095880000004748445771330177180_);}
	.st283{fill:url(#SVGID_00000029038927325038453840000000791697288914276240_);}
	.st284{fill:url(#SVGID_00000163070983094697476850000011807599508186907265_);}
	.st285{fill:url(#SVGID_00000004521301351233226400000011522031761525161151_);}
	.st286{fill:url(#SVGID_00000141430253320296428730000015410993698432154532_);}
	.st287{fill:url(#SVGID_00000133493537754745397160000007010704014818953150_);}
	.st288{fill:url(#SVGID_00000060734423791360790660000002741568798567478921_);}
	.st289{fill:url(#SVGID_00000165208105011007493990000007069623528405887409_);}
	.st290{fill:url(#SVGID_00000171712291970932094110000011018499297784731011_);}
	.st291{fill:url(#SVGID_00000111894951952907426500000014072708810451632526_);}
	.st292{fill:url(#SVGID_00000065780319784268314300000017168790793070970287_);}
	.st293{fill:url(#SVGID_00000146467292969410942890000016903575075884805308_);}
	.st294{fill:url(#SVGID_00000016036986361145475660000008858825564152971926_);}
	.st295{fill:url(#SVGID_00000096767836427829603180000003058286522837519009_);}
	.st296{fill:url(#SVGID_00000007418030800624481740000014357993653215324554_);}
	.st297{fill:url(#SVGID_00000137128805043108920070000004645120212485995177_);}
	.st298{fill:url(#SVGID_00000075876179194496170450000002884962936728054703_);}
	.st299{fill:url(#SVGID_00000054254938145677712000000014883653517443698878_);}
	.st300{fill:url(#SVGID_00000130612885681010848880000011333291809435449477_);}
	.st301{fill:url(#SVGID_00000137110313072610371670000004756273117731395736_);}
	.st302{fill:url(#SVGID_00000096038125976531731060000008246068246591196086_);}
	.st303{fill:url(#SVGID_00000105396527075530531740000004877706120620332163_);}
	.st304{fill:url(#SVGID_00000024680891460505161250000010912563960578351258_);}
	.st305{fill:url(#SVGID_00000042007646930486135220000016679236758559389841_);}
	.st306{fill:url(#SVGID_00000026142573361588489740000016275993098354071689_);}
	.st307{fill:url(#SVGID_00000062877810848461879490000012552944038931700649_);}
	.st308{fill:url(#SVGID_00000103957002588624223910000001721628001797544614_);}
	.st309{fill:url(#SVGID_00000137128798986273390670000015582649954031467180_);}
	.st310{fill:url(#SVGID_00000183936071242688998960000017366653291784510902_);}
	.st311{fill:url(#SVGID_00000006686779851567815460000002706548142075589777_);}
	.st312{fill:url(#SVGID_00000131366049590800340380000013360954170066679222_);}
	.st313{fill:url(#SVGID_00000058572092391807499980000018436513169618019726_);}
	.st314{fill:url(#SVGID_00000089531853844174460350000005085671998086188943_);}
	.st315{fill:url(#SVGID_00000137113303668878229170000008215811485590968975_);}
	.st316{fill:url(#SVGID_00000013158915635412999110000013157424994561259668_);}
	.st317{fill:url(#SVGID_00000145055667538194277150000013041717317883217294_);}
	.st318{fill:url(#SVGID_00000076579280539093779470000007936349885208994195_);}
	.st319{fill:url(#SVGID_00000116215343921510077480000018206246699738758816_);}
	.st320{fill:url(#SVGID_00000163758426180128302420000002793264909120729747_);}
	.st321{fill:url(#SVGID_00000065791432079006211930000009013080790109115040_);}
	.st322{fill:url(#SVGID_00000168106673165493210240000008475226685368358281_);}
	.st323{fill:url(#SVGID_00000118366571372102836210000006134216114394602656_);}
	.st324{fill:url(#SVGID_00000010991718340154006370000017645512632614933381_);}
	.st325{fill:url(#SVGID_00000075138247841533581550000001925747797235260081_);}
	.st326{fill:url(#SVGID_00000047050643732804702870000002617018256660355969_);}
	.st327{fill:url(#SVGID_00000011030457872174250830000002417077609722328968_);}
	.st328{fill:url(#SVGID_00000080898027719264976240000003308947357534969519_);}
	.st329{fill:url(#SVGID_00000018230606457402809740000013570814923227451786_);}
	.st330{fill:url(#SVGID_00000180336781278437496450000001293629711366869165_);}
	.st331{fill:url(#SVGID_00000107584612908520169000000006792221980683882682_);}
	.st332{fill:url(#SVGID_00000077295382839074610270000017831248800590177426_);}
	.st333{fill:url(#SVGID_00000005264265457946570260000016664445623269712045_);}
	.st334{fill:url(#SVGID_00000124842070226175960200000004716334456932686977_);}
	.st335{fill:url(#SVGID_00000098212556611712532590000016046975029029229696_);}
	.st336{fill:url(#SVGID_00000036230979649399144010000014784067852469330067_);}
	.st337{fill:url(#SVGID_00000094612102705509959660000018388639120532731313_);}
	.st338{fill:url(#SVGID_00000006688770727525908480000008824866979209752496_);}
	.st339{fill:url(#SVGID_00000075868955865735937520000016084494744192489908_);}
	.st340{fill:url(#SVGID_00000129206815964679393230000012153792223437518749_);}
	.st341{fill:url(#SVGID_00000158726390154407537090000011417755758928429748_);}
	.st342{fill:url(#SVGID_00000036216836301887438740000015204099992387634067_);}
	.st343{fill:url(#SVGID_00000160182303394896756260000012701641520191133591_);}
	.st344{fill:url(#SVGID_00000183241579866878813960000001623741971486814892_);}
	.st345{fill:url(#SVGID_00000052080606903754310450000007141920770938830753_);}
	.st346{fill:#034693;stroke:#FFFFFF;stroke-width:25.205;stroke-miterlimit:10;}
	.st347{fill:url(#SVGID_00000165943621011704900520000017644783792466726566_);}
	.st348{fill:url(#SVGID_00000045596810317207757080000012836363682856278195_);}
	.st349{fill:url(#SVGID_00000006670744340637412840000011414683523120917168_);}
	.st350{fill:url(#SVGID_00000116212779040576477920000010989706642650977408_);}
	.st351{fill:url(#SVGID_00000111909954317486042990000005768046240832357529_);}
	.st352{fill:url(#SVGID_00000003812742307504984930000001969614610385874322_);}
	.st353{fill:url(#SVGID_00000146490778007253943090000014077462329723607211_);}
	.st354{fill:url(#SVGID_00000168811010449460044280000008664369167119910788_);}
</style>
<g>
	<g>
		<path class="st0" d="M3387.4,643.2l-2.6-29.7l-41.1-462.4c-3.3-36.6-20.1-69.3-47.3-92.1c-24.6-20.6-56.2-32-88.9-32
			c-27.2,0-53.2,7.8-75.3,22.7c-22,14.8-39.2,35.9-49.8,61.2c0,0,0,0.1,0,0.1l0,0.1l-201.3,486.5l-15.6,37.7
			c-3.5,8.4-2.5,18,2.5,25.6c5.1,7.6,13.6,12.1,22.7,12.1h40.8h116.8h18.2c11,0,21-6.6,25.2-16.8l7-16.8l27.7-66.9h36.9l4.6,50.9
			l2.2,24.8c1.3,14.1,13,24.8,27.2,24.8h24.9h108.4h29.8c7.6,0,14.9-3.2,20.1-8.9S3388.1,650.8,3387.4,643.2z M3330.5,645.6h-108.4
			h-24.9l-2.2-24.8l-6.8-75.7h-80.1l-34.7,83.7l-7,16.8h-18.2h-116.8h-40.8l15.6-37.7l201.3-486.5l0,0l0,0l0,0
			c17.3-41.4,55.6-67.1,99.9-67.1c26.3,0,51.7,9.1,71.4,25.6c21.6,18.1,35,44.2,37.6,73.6l41.1,462.4l2.6,29.7H3330.5z"/>
	</g>
	<path class="st0" d="M2977.9,56.1l-4.6,31.3l-15.9,107.7l-3.4,23.3h-23.5h-149.9l-8.2,54.5h113.4h31.6l-4.6,31.2l-15.8,108
		l-3.4,23.3h-23.6h-121.8l-7.1,47.7h141.3h31.6l-4.7,31.3l-16.1,108l-3.5,23.2H2866h-173.2h-36.1c-26.2,0-51.1-11.4-68.2-31.3
		c-17.2-19.9-24.8-46.2-20.9-72.1l61.5-409.3c3.2-21.4,13.9-40.9,30.3-54.9c16.3-14,37.2-21.8,58.8-21.8h228.1H2977.9 M2946.3,83.4
		h-228.1c-31.2,0-57.6,22.7-62.2,53.5l-61.5,409.4c-5.6,37.9,23.8,72.1,62.2,72.1h36.1H2866l16.1-108h-173l15.3-102.2h145.3
		l15.8-108h-145l16.4-109.1h173.4L2946.3,83.4 M2913.7,483.1L2913.7,483.1 M2977.9,28.9h-31.6h-228.1c-28.1,0-55.3,10.1-76.6,28.4
		c-21.4,18.3-35.4,43.8-39.5,71.6l-61.5,409.3c-5,33.8,4.9,68.1,27.2,94c22.3,25.9,54.7,40.8,88.9,40.8h36.1H2866h23.5
		c13.5,0,25-9.9,27-23.2l3.5-23.2l16.1-108l4.6-30.6c0.3-1.5,0.4-3.1,0.4-4.7c0-15.1-12.2-27.3-27.3-27.3h0h-2.4
		c4.7-4.1,7.9-9.9,8.9-16.5l3.4-23.3l15.8-108l4.6-31.2c1.2-7.8-1.2-15.8-6.3-21.8c-5.2-6-12.7-9.4-20.6-9.4h-31.6h-81.7l0,0h126.4
		h23.5c13.5,0,25-9.9,27-23.3l3.4-23.3l15.9-107.7l4.6-31.3c1.2-7.8-1.1-15.8-6.3-21.8C2993.3,32.3,2985.8,28.9,2977.9,28.9
		L2977.9,28.9z M2977.9,83.4L2977.9,83.4L2977.9,83.4L2977.9,83.4z M2656.6,591.1c-10.5,0-20.1-4.4-26.9-12.4
		c-6.8-7.9-9.8-18.2-8.3-28.5l61.5-409.3c2.6-17.5,17.4-30.2,35.2-30.2h196.5l-7.9,53.2h-149.9c-13.5,0-25,9.9-27,23.2l-16.4,109.1
		c-1.2,7.8,1.1,15.8,6.3,21.8c5.2,6,12.7,9.5,20.7,9.5H2854l-7.8,53.5h-121.8c-13.5,0-25,9.9-27,23.2l-15.3,102.2
		c-1.2,7.8,1.1,15.8,6.3,21.8c5.2,6,12.7,9.5,20.7,9.5h141.3l-8,53.5h-149.8H2656.6L2656.6,591.1z"/>
	<path class="st0" d="M2340.4,27.3c35.2,0,69.5,8.2,101.9,24.5c25.4,12.7,49.6,30.4,72,52.5c37.6,37.1,57.2,74.3,58,75.9l12.6,24.2
		l-24.2,12.6l-96.1,50.2l-23.6,12.5l-12.8-23.3c-0.5-0.8-10.5-18.2-27.2-35.1c-14-14.1-35.8-30.9-60.6-30.9
		c-37.6,0-73.9,19.3-102.2,54.3c-26.2,32.4-42.9,75.1-44.7,114.1c-2.1,44.7,7.8,79,29.5,101.7c20.8,21.8,46.8,26.6,55.1,26.6
		c28.9,0,56.5-11.3,79.3-31.6h-69.9h-40.8l15.6-37.7l44.7-108l7-16.8h18.2h123.7h45c25.5,0,48.8,11.7,64,32.1
		c15.1,20.4,19.6,46,12.4,70.2c-11.5,38.4-38.9,111.7-93.3,171.4c-25.2,27.7-53.4,49.3-83.8,64.4c-34.5,17.1-71.9,25.7-111.4,25.7
		c-26.8,0-58.3-6.8-88.7-19.2c-36.7-15-70.2-37.6-96.7-65.3c-25.2-26.5-44.5-57.7-57.3-92.7c-14.4-39.4-20.5-83.9-18.2-132.2
		c3.4-71.3,36.4-150,88.3-210.6c28.4-33.2,61.1-59.5,96.9-78.2C2253.2,37.8,2296,27.3,2340.4,27.3 M2288.7,629.6
		c148.8,0,230.5-135.9,262.4-242.1c10.1-33.6-15.2-67.3-50.2-67.3h-45h-123.7l-44.7,108h125.8c-27.7,49.5-77.1,86.1-135.3,86.1
		c-29.4,0-118-26.7-111.8-156.9c4.1-87.4,73.2-194.4,174.2-194.4c67,0,111.6,79.9,111.6,79.9l96.1-50.2c0,0-72.1-138.2-207.7-138.2
		c-168.2,0-279.4,168.6-285.3,294.2C2045,564,2214.8,629.6,2288.7,629.6 M2340.4,0c-48.8,0-95.9,11.6-139.9,34.5
		c-39,20.3-74.3,48.7-105.1,84.6c-55.8,65.1-91.2,150-94.8,227.1c-2.4,51.9,4.2,99.9,19.8,142.8c14.1,38.6,35.3,73,63.2,102.2
		c29.1,30.5,65.8,55.3,106.1,71.8c33.6,13.7,68.7,21.2,99,21.2c43.7,0,85.2-9.6,123.5-28.6c33.5-16.6,64.4-40.3,91.9-70.5
		c58-63.7,87.1-141.3,99.2-181.9c9.8-32.6,3.7-67-16.6-94.3c-16.1-21.6-38.9-35.9-64.6-41l51.3-26.8l24.2-12.6
		c13.3-7,18.5-23.4,11.5-36.8l-12.6-24.2c-2.2-4.3-23.1-43.2-63-82.7c-24.4-24.1-50.9-43.4-78.9-57.4C2418.3,9.2,2379.9,0,2340.4,0
		L2340.4,0z M2288.7,602.3c-39.2,0-101.6-21.2-145.9-67.7c-43.7-45.9-64.1-108-60.5-184.7c5.3-112,106-268.2,258.1-268.2
		c85.6,0,143.4,64.7,168.9,100.4l-48.3,25.2c-5.4-7.2-12.2-15.4-20.2-23.5c-30.8-31.5-65.5-48.2-100.4-48.2
		c-54.4,0-105.8,26.5-144.6,74.6c-16.5,20.5-30.4,44.7-40.2,70c-9.7,25-15.4,51.2-16.6,75.8c-1.5,31.5,2,60,10.4,84.7
		c7.5,22.1,19,41.4,34.1,57.2c30.6,32.1,70.1,43.5,94.5,43.5c33,0,65.5-10,94.1-29c26.3-17.4,48.7-42,64.9-71
		c4.7-8.4,4.6-18.8-0.3-27.1c-4.9-8.3-13.8-13.5-23.5-13.5h-85l22.1-53.4h105.4h45c8.1,0,15.4,3.7,20.2,10.1
		c4.8,6.4,6.2,14.4,3.9,22C2509.3,431.9,2446,602.3,2288.7,602.3L2288.7,602.3z M2230.5,423.4c-7.7-16.3-11-37.5-9.7-63.5
		c1.6-33.4,16.1-70.2,38.7-98.3c23-28.5,51.7-44.2,81-44.2c16.2,0,32.8,14.3,41.2,22.8c9.7,9.8,16.8,19.9,20.4,25.4h-69.8H2314
		c-11,0-21,6.6-25.2,16.8l-7,16.8l-44.7,108L2230.5,423.4L2230.5,423.4z"/>
	<path class="st0" d="M3628.3,56.1c21.2,0,43.9,5.3,65.7,15.4c20.9,9.6,40.9,23.7,58.1,40.5c18.1,17.8,32.4,38.1,42.7,60.3
		c11.3,24.4,17,49.9,17,75.7l0,0.5c0.3,23.1-3.6,47.1-11.6,69.4c-11.3,32-30.5,59.5-56.2,81.1c6.2,9.1,10.6,19.6,13.1,31.2l2.3,10.7
		l3.1,14.4l0.1,0.3l1.4,6.6l0,0l32.4,150.4l7.1,33h-33.8h-111.2h-22l-4.6-21.5l-33.8-156.6c-1.6-7.4-8.3-12.8-15.9-12.8h-25.8
		l-27.2,167.9l-3.7,22.9h-23.2h-109.3h-32l5.1-31.6l77.9-482.2c3.4-21.1,14.3-40.4,30.5-54.2c16.3-13.8,37-21.5,58.4-21.5h55.9
		H3628.3 M3393.1,618.3h109.3l30.9-190.8h49c20.5,0,38.3,14.4,42.6,34.4l33.8,156.6h111.2L3737.4,468c0,0,0,0-1.4-6.6l-0.1-0.3
		c-1-4.6-2.6-12.3-5.4-25.1c-6.9-32-31-39.2-31-39.2c89.3-49.9,85-142.5,85-148.6c0-91.4-85.4-164.7-156.2-164.7h-39.5H3533
		c-30.9,0-57.1,22.3-62,52.8L3393.1,618.3 M3628.3,28.9h-39.5H3533c-27.9,0-54.9,9.9-76.1,28c-21.2,18-35.3,43.1-39.8,70.6
		l-77.9,482.2l-5.1,31.6c-1.3,7.9,1,15.9,6.2,22c5.2,6.1,12.8,9.6,20.8,9.6h32h109.3h23.2c13.4,0,24.8-9.7,26.9-22.9l3.7-22.9
		l20.8-128.4l28.4,131.3l4.6,21.5c2.7,12.5,13.8,21.5,26.6,21.5h22h111.2h33.8c8.2,0,16-3.7,21.2-10.1c5.2-6.4,7.2-14.8,5.4-22.9
		l-7.1-33l-32.4-150.4c0,0,0,0,0,0l-1.4-6.6l-0.1-0.4l-3.1-14.4l-2.3-10.7c-1.5-6.8-3.5-13.4-6-19.7c21.5-22.1,37.6-48.2,48.1-77.8
		c9-25.4,13.5-52.7,13.1-78.9l0-0.3c0-29.8-6.6-59-19.5-86.9c-11.6-25.2-27.9-48.2-48.3-68.3c-19.3-19.1-42.1-34.9-65.8-45.9
		C3680.1,35.1,3653.4,28.9,3628.3,28.9L3628.3,28.9z M3425.1,591.1l72.8-450.5c2.8-17.3,17.6-29.9,35.1-29.9h55.9h39.5
		c58,0,128.9,63.4,128.9,137.5c0,0.3,0,0.7,0,1.2c0.3,19.5-4,86.1-71.1,123.6c-9.6,5.3-15,15.9-13.8,26.8
		c1.2,10.6,8.4,19.5,18.5,22.9c1.9,0.8,9.9,4.9,13,19.1l1.9,8.7l3.5,16.4l0.1,0.3c1,4.8,1.3,6.2,1.4,6.6h0l25.3,117.4h-55.4
		l-29.2-135.1c-3.4-15.7-12.2-30-24.7-40.1c-12.6-10.2-28.4-15.7-44.5-15.7h-49c-13.4,0-24.8,9.7-26.9,22.9l-27.2,167.9H3425.1
		L3425.1,591.1z"/>
	<path class="st0" d="M1922.2,56.1L1922.2,56.1 M1922.2,56.1l-4.6,31.3l-15.9,107.7l-3.4,23.3h-23.5h-149.9l-8.2,54.5h113.4h31.6
		l-4.6,31.2l-15.8,108l-3.4,23.3h-23.6h-121.8l-7.1,47.7h141.3h31.6l-4.7,31.3l-16.1,108l-3.5,23.2h-23.5h-173.2H1601
		c-26.2,0-51.1-11.4-68.2-31.3c-17.2-19.9-24.8-46.2-20.9-72.1l61.5-409.3c3.2-21.4,13.9-40.9,30.3-54.9
		c16.3-14,37.2-21.8,58.8-21.8h228.1H1922.2 M1601,618.3h36.1h173.2l16.1-108h-173l15.3-102.2h145.3l15.8-108h-145l16.4-109.1h173.4
		l15.9-107.7h-228.1c-31.2,0-57.6,22.7-62.2,53.5l-61.5,409.4C1533.1,584.1,1562.6,618.3,1601,618.3 M1922.2,28.9L1922.2,28.9h-31.6
		h-228.1c-28.1,0-55.3,10.1-76.6,28.4c-21.4,18.3-35.4,43.8-39.5,71.6l-61.5,409.3c-5,33.8,4.9,68.1,27.2,94
		c22.3,25.9,54.7,40.8,88.9,40.8h36.1h173.2h23.5c13.5,0,25-9.9,27-23.2l3.5-23.2l16.1-108l4.7-31.3c1.2-7.8-1.1-15.8-6.3-21.8
		c-5.2-6-12.7-9.5-20.7-9.5h-2.4c4.7-4.1,7.9-9.9,8.9-16.5l3.4-23.3l15.8-108l4.6-31.2c1.2-7.8-1.2-15.8-6.3-21.8
		c-5.2-6-12.7-9.4-20.6-9.4h-31.6h-81.7l0,0h126.4h23.5c13.5,0,25-9.9,27-23.3l3.4-23.3l15.9-107.7l4.5-30.6
		c0.3-1.5,0.4-3.1,0.4-4.6C1949.5,41.1,1937.3,28.9,1922.2,28.9L1922.2,28.9z M1922.2,83.4L1922.2,83.4L1922.2,83.4L1922.2,83.4z
		 M1601,591.1c-10.5,0-20.1-4.4-26.9-12.4c-6.8-7.9-9.8-18.2-8.3-28.5l61.5-409.3c2.6-17.5,17.4-30.2,35.2-30.2H1859l-7.9,53.2
		h-149.9c-13.5,0-25,9.9-27,23.2l-16.4,109.1c-1.2,7.8,1.1,15.8,6.3,21.8c5.2,6,12.7,9.5,20.7,9.5h113.5l-7.8,53.5h-121.8
		c-13.5,0-25,9.9-27,23.2l-15.3,102.2c-1.2,7.8,1.1,15.8,6.3,21.8c5.2,6,12.7,9.5,20.7,9.5h141.3l-8,53.5h-149.8H1601L1601,591.1z"
		/>
	<path class="st0" d="M806.8,54.3c26.3,0,51.7,9.1,71.4,25.6c21.6,18.1,35,44.2,37.6,73.6l41.1,462.4l0.2,2.3l0.6-4l70.8-470.6
		c4.1-27,16.9-49.7,37.1-65.6c18-14.2,40.9-21.9,64.7-21.9c23.3,0,45.9,7.6,63.7,21.3c20,15.4,32.9,37.5,37.5,63.8l27.9,160
		l89.3-187.3c17.2-36.2,50.8-57.9,89.7-57.9c30.2,0,59.8,13.4,79.1,35.9c18.8,21.8,26.6,50.4,22.1,80.3l-67.7,450.1l-3.5,23.2H1445
		h-109.2h-31.7l4.7-31.3l8.6-57.1l-20.2,42.5c-7.1,14.9-18,27-31.6,35.2c-12.5,7.5-27,11.4-41.9,11.4c-18.5,0-36.7-6.2-51.1-17.4
		c-15.9-12.4-26.2-29.8-29.8-50.3l-8.4-47.9l-13.8,91.7l-3.5,23.2h-23.5h-109h-25.1H953h-23.2H821.4h-24.9l-2.2-24.8l-6.8-75.7
		h-80.1l-34.7,83.7l-7,16.8h-18.2H530.7h-40.8l15.6-37.7l201.3-486.5l0,0l0,0c8.9-21.4,23.5-38.9,42-50.6
		C766,60,786,54.3,806.8,54.3 M530.7,618.3h116.8l41.6-100.6h123.3l9,100.6h108.4l-41.1-462.4c-4.3-47.8-43-74.4-81.9-74.4
		c-30.2,0-60.4,16-74.8,50.4L530.7,618.3 M1247.2,390.2L1204.6,146c-7.3-41.8-40.8-62.6-74.4-62.6c-34.2,0-68.3,21.5-74.8,64.3
		l-70.8,470.6h109l38.8-257.4l37.2,212.9c5.1,29.1,29.4,45.1,54,45.1c19.3,0,38.8-9.8,48.9-31l99.1-208.1l-35.8,238.5H1445
		l67.7-450.1c7.8-51.6-33.2-84.9-74.2-84.9c-25.5,0-51.2,12.9-65.1,42.3L1247.2,390.2 M806.8,27c-25.9,0-51,7.2-72.5,20.7
		c-23.3,14.7-41.5,36.5-52.6,63.1c0,0.1-0.1,0.2-0.1,0.3L480.3,597.5l-15.6,37.7c-3.5,8.4-2.5,18,2.5,25.6
		c5.1,7.6,13.6,12.1,22.7,12.1h40.8h116.8h18.2c11,0,21-6.6,25.2-16.8l7-16.8l27.7-66.9h36.9l4.6,50.9l2.2,24.8
		c1.3,14.1,13,24.8,27.2,24.8h24.9h108.4H953h6.5h25.1h109h23.5c13.5,0,24.9-9.9,27-23.2l1.3-8.6c3.2,3.3,6.7,6.4,10.4,9.3
		c19.1,14.9,43.2,23.2,67.8,23.2c19.8,0,39.1-5.3,55.9-15.3c0.1-0.1,0.2-0.1,0.3-0.2c1,1.9,2.2,3.7,3.6,5.3c5.2,6,12.7,9.5,20.7,9.5
		h31.7H1445h23.5c13.5,0,25-9.9,27-23.2l3.5-23.2l67.7-450.1c5.7-37.9-4.3-74.2-28.4-102.2c-24.4-28.4-61.7-45.3-99.8-45.3
		c-24.4,0-47.8,6.8-67.8,19.7c-19.8,12.8-35.9,31.4-46.6,53.7l-52.5,110.1l-13.2-75.8c-5.8-33.2-22.3-61.1-47.7-80.7
		c-22.5-17.4-51.1-27-80.4-27c-29.8,0-58.8,9.9-81.6,27.8c-25.7,20.3-42,49-47.1,82.9l-37.4,248.9L943,151.1
		c-3.3-36.6-20.1-69.3-47.3-92.1C871.1,38.3,839.5,27,806.8,27L806.8,27z M757.2,142.3c12.7-30.3,38.9-33.5,49.6-33.5
		c24.2,0,51.7,15.5,54.7,49.6L900,591.1h-53.6l-6.8-75.7c-1.3-14.1-13-24.8-27.2-24.8H689.2c-11,0-21,6.6-25.2,16.8l-34.7,83.7
		h-57.8L757.2,142.3L757.2,142.3z M1247.2,417.5c10.4,0,20-6,24.6-15.5l126.1-264.5c11.1-23.3,30.1-26.8,40.5-26.8
		c14.6,0,28.7,6.3,37.8,16.9c8.5,9.9,11.7,22.2,9.5,36.6l-64.2,426.9h-54l31.1-207.1c2-13.4-6.1-26.2-19-30.1
		c-2.6-0.8-5.3-1.2-8-1.2c-10.3,0-20,5.8-24.6,15.5l-99.1,208.1c-6.4,13.5-17.9,15.5-24.3,15.5c-10.7,0-24.2-5.9-27.1-22.6
		l-37.2-212.9c-2.3-13.1-13.6-22.6-26.9-22.6c-0.1,0-0.2,0-0.3,0c-13.4,0.2-24.6,10-26.6,23.2l-35.3,234.2h-53.9l66-439.3
		c4.6-30.3,28.6-41.1,47.8-41.1c19.6,0,42.4,10.5,47.5,40l42.6,244.2c2,11.7,11.4,20.7,23.2,22.3
		C1244.7,417.4,1246,417.5,1247.2,417.5L1247.2,417.5z"/>
	<path class="st0" d="M340.3,27.3c35.2,0,69.5,8.2,101.9,24.5c25.4,12.7,49.6,30.4,72,52.5c37.6,37.1,57.2,74.3,58,75.9l12.6,24.2
		l-24.2,12.6l-96.1,50.2l-23.6,12.5l-12.9-23.3c-0.5-0.9-10.6-18.3-27.2-35.1c-14-14.1-35.8-30.9-60.6-30.9
		c-37.6,0-73.9,19.3-102.2,54.3c-26.2,32.4-42.9,75.1-44.7,114.1c-2.1,44.7,7.8,79,29.5,101.7c20.8,21.8,46.8,26.6,55.1,26.6
		c28.9,0,56.5-11.3,79.3-31.6h-69.9h-40.8l15.6-37.7l44.7-108l7-16.8h18.2h123.7h45c25.5,0,48.8,11.7,64,32.1
		c15.1,20.4,19.6,46,12.4,70.2c-11.5,38.4-38.9,111.7-93.3,171.4c-25.2,27.7-53.4,49.3-83.8,64.4c-34.5,17.1-71.9,25.7-111.4,25.7
		c-26.8,0-58.3-6.8-88.7-19.2c-36.7-15-70.2-37.6-96.7-65.3c-25.2-26.5-44.5-57.7-57.3-92.7c-14.4-39.4-20.5-83.9-18.2-132.2
		c3.4-71.3,36.4-150,88.3-210.6c28.4-33.2,61.1-59.5,96.9-78.2C253,37.8,295.9,27.3,340.3,27.3 M288.6,629.6
		c148.8,0,230.5-135.9,262.4-242.1c10.1-33.6-15.2-67.3-50.2-67.3h-45H332.1l-44.7,108h125.8c-27.7,49.5-77.1,86.1-135.3,86.1
		c-29.4,0-118-26.7-111.8-156.9c4.1-87.4,73.2-194.4,174.2-194.4c67,0,111.6,79.9,111.6,79.9l96.1-50.2c0,0-72.1-138.2-207.7-138.2
		C172,54.5,60.9,223.2,55,348.7C44.8,564,214.6,629.6,288.6,629.6 M340.3,0c-48.8,0-95.9,11.6-139.9,34.5
		c-39,20.3-74.3,48.7-105.1,84.6C39.6,184.1,4.1,269,0.5,346.1C-2,398,4.7,446.1,20.3,488.9c14.1,38.6,35.3,73,63.2,102.2
		c29.1,30.5,65.8,55.3,106.1,71.8c33.6,13.7,68.7,21.2,99,21.2c43.7,0,85.2-9.6,123.5-28.6c33.5-16.6,64.4-40.3,91.9-70.5
		c58-63.7,87.1-141.3,99.2-181.9c9.8-32.6,3.7-67-16.6-94.3c-16.1-21.6-38.9-35.9-64.6-41l51.3-26.8l24.2-12.6
		c13.3-7,18.5-23.4,11.5-36.8l-12.6-24.2c-2.2-4.3-23.1-43.2-63-82.7c-24.4-24.1-50.9-43.4-78.9-57.4C418.2,9.2,379.8,0,340.3,0
		L340.3,0z M288.6,602.3c-39.2,0-101.6-21.2-145.9-67.7c-43.7-45.9-64.1-108-60.5-184.7c5.3-112,106-268.2,258.1-268.2
		c48.4,0,93.6,20.2,134.4,60.1c14.7,14.3,26.2,28.8,34.4,40.3l-48.3,25.2c-5.4-7.2-12.2-15.4-20.2-23.5
		c-30.8-31.5-65.5-48.2-100.4-48.2c-54.4,0-105.8,26.5-144.6,74.6c-16.5,20.5-30.4,44.7-40.2,70c-9.7,25-15.4,51.2-16.6,75.8
		c-1.5,31.5,2,60,10.4,84.7c7.5,22.1,19,41.4,34.1,57.2c30.6,32.1,70.1,43.5,94.5,43.5c33,0,65.5-10,94.1-29
		c26.3-17.4,48.7-42,64.9-71c4.7-8.4,4.6-18.8-0.3-27.1c-4.9-8.3-13.8-13.5-23.5-13.5h-85l22.1-53.4h105.4h45
		c8.1,0,15.4,3.7,20.2,10.1c4.8,6.4,6.2,14.4,3.9,22C509.2,431.9,445.9,602.3,288.6,602.3L288.6,602.3z M230.3,423.4
		c-7.7-16.3-11-37.5-9.7-63.5c1.6-33.4,16.1-70.2,38.7-98.3c23-28.5,51.7-44.2,81-44.2c16.2,0,32.8,14.3,41.2,22.8
		c9.7,9.8,16.8,19.9,20.4,25.4h-69.8h-18.2c-11,0-21,6.6-25.2,16.8l-7,16.8l-44.7,108L230.3,423.4L230.3,423.4z"/>
	<g>
		<linearGradient id="SVGID_1_" gradientUnits="userSpaceOnUse" x1="1714.3499" y1="83.3928" x2="1714.3499" y2="618.3148">
			<stop  offset="0.2309" style="stop-color:#FF2727"/>
			<stop  offset="0.8932" style="stop-color:#FFC600"/>
		</linearGradient>
		<path class="st250" d="M1890.6,83.4h-228.1c-31.2,0-57.6,22.7-62.2,53.5l-61.5,409.4c-5.6,37.9,23.8,72.1,62.2,72.1h36.1h173.2
			l16.1-108h-173l15.3-102.2h145.3l15.8-108h-145l16.4-109.1h173.4L1890.6,83.4z"/>
	</g>
	<g>
		
			<linearGradient id="SVGID_00000054979037005106910730000015973364364536692610_" gradientUnits="userSpaceOnUse" x1="2770.0017" y1="83.3928" x2="2770.0017" y2="618.3148">
			<stop  offset="0.2309" style="stop-color:#FF2727"/>
			<stop  offset="0.8932" style="stop-color:#FFC600"/>
		</linearGradient>
		<path style="fill:url(#SVGID_00000054979037005106910730000015973364364536692610_);" d="M2946.3,83.4h-228.1
			c-31.2,0-57.6,22.7-62.2,53.5l-61.5,409.4c-5.6,37.9,23.8,72.1,62.2,72.1h36.1H2866l16.1-108h-173l15.3-102.2h145.3l15.8-108h-145
			l16.4-109.1h173.4L2946.3,83.4z"/>
	</g>
	<g>
		
			<linearGradient id="SVGID_00000130641262898967772390000012637813733139022747_" gradientUnits="userSpaceOnUse" x1="730.2479" y1="81.5131" x2="730.2479" y2="618.3148">
			<stop  offset="0.2309" style="stop-color:#FF2727"/>
			<stop  offset="0.8932" style="stop-color:#FFC600"/>
		</linearGradient>
		<path style="fill:url(#SVGID_00000130641262898967772390000012637813733139022747_);" d="M806.8,81.5c-30.2,0-60.4,16-74.8,50.4
			L530.7,618.3h116.8l41.6-100.6h123.3l9,100.6h108.4l-41.1-462.4C884.4,108.1,845.7,81.5,806.8,81.5z M733.9,409.8l56.8-137.1
			l12.2,137.1H733.9z"/>
	</g>
	<g>
		
			<linearGradient id="SVGID_00000016049597261939952560000010111946538495399056_" gradientUnits="userSpaceOnUse" x1="1249.1333" y1="83.3928" x2="1249.1333" y2="618.9861">
			<stop  offset="0.2309" style="stop-color:#FF2727"/>
			<stop  offset="0.8932" style="stop-color:#FFC600"/>
		</linearGradient>
		<path style="fill:url(#SVGID_00000016049597261939952560000010111946538495399056_);" d="M1373.3,125.7l-126.1,264.5L1204.6,146
			c-7.3-41.8-40.8-62.6-74.4-62.6c-34.2,0-68.3,21.5-74.8,64.3l-70.8,470.6h109l38.8-257.4l37.2,212.9c5.1,29.1,29.4,45.1,54,45.1
			c19.3,0,38.8-9.8,48.9-31l99.1-208.1l-35.8,238.5H1445l67.7-450.1c7.8-51.6-33.2-84.9-74.2-84.9
			C1412.9,83.4,1387.2,96.3,1373.3,125.7z"/>
	</g>
	<g>
		
			<linearGradient id="SVGID_00000090274695686121911150000005585656567001276083_" gradientUnits="userSpaceOnUse" x1="303.8492" y1="54.5256" x2="303.8492" y2="629.5934">
			<stop  offset="0.2309" style="stop-color:#FF2727"/>
			<stop  offset="0.8932" style="stop-color:#FFC600"/>
		</linearGradient>
		<path style="fill:url(#SVGID_00000090274695686121911150000005585656567001276083_);" d="M548,192.7c0,0-72.1-138.2-207.7-138.2
			C172,54.5,60.9,223.2,55,348.7C44.8,564,214.6,629.6,288.6,629.6c148.8,0,230.5-135.9,262.4-242.1c10.1-33.6-15.2-67.3-50.2-67.3
			h-45H332.1l-44.7,108h125.8c-27.7,49.5-77.1,86.1-135.3,86.1c-29.4,0-118-26.7-111.8-156.9c4.1-87.4,73.2-194.4,174.2-194.4
			c67,0,111.6,79.9,111.6,79.9L548,192.7z"/>
	</g>
	<g>
		
			<linearGradient id="SVGID_00000145777698766954858960000001634947208190294714_" gradientUnits="userSpaceOnUse" x1="2304.0056" y1="54.5253" x2="2304.0056" y2="629.5931">
			<stop  offset="0.2309" style="stop-color:#FF2727"/>
			<stop  offset="0.8932" style="stop-color:#FFC600"/>
		</linearGradient>
		<path style="fill:url(#SVGID_00000145777698766954858960000001634947208190294714_);" d="M2548.1,192.7
			c0,0-72.1-138.2-207.7-138.2c-168.2,0-279.4,168.6-285.3,294.2C2045,564,2214.8,629.6,2288.7,629.6
			c148.8,0,230.5-135.9,262.4-242.1c10.1-33.6-15.2-67.3-50.2-67.3h-45h-123.7l-44.7,108h125.8c-27.7,49.5-77.1,86.1-135.3,86.1
			c-29.4,0-118-26.7-111.8-156.9c4.1-87.4,73.2-194.4,174.2-194.4c67,0,111.6,79.9,111.6,79.9L2548.1,192.7z"/>
	</g>
	<g>
		
			<linearGradient id="SVGID_00000023251819221880077420000017158132128723693725_" gradientUnits="userSpaceOnUse" x1="3588.7686" y1="83.3926" x2="3588.7686" y2="618.4493">
			<stop  offset="0.2309" style="stop-color:#FF2727"/>
			<stop  offset="0.8932" style="stop-color:#FFC600"/>
		</linearGradient>
		<path style="fill:url(#SVGID_00000023251819221880077420000017158132128723693725_);" d="M3737.4,468c0,0,0,0-1.4-6.6l-0.1-0.3
			c-1-4.6-2.6-12.3-5.4-25.1c-6.9-32-31-39.2-31-39.2c89.3-49.9,85-142.5,85-148.6c0-91.4-85.4-164.7-156.2-164.7h-39.5H3533
			c-30.9,0-57.1,22.3-62,52.8l-77.9,482.2h109.3l30.9-190.8h49c20.5,0,38.3,14.4,42.6,34.4l33.8,156.6h111.2L3737.4,468L3737.4,468z
			 M3598.4,319.6h-47.7l20.5-128.4h45c21.3,0,42.4,21.3,47.1,46.9C3670.5,276.1,3641.2,319.6,3598.4,319.6z"/>
	</g>
	<path d="M1662.5,56.1c-21.6,0-42.5,7.7-58.8,21.8c-16.4,14.1-27.2,33.6-30.3,54.9l-61.5,409.3c-3.9,26,3.8,52.2,20.9,72.1
		c17.1,19.9,42,31.3,68.2,31.3h36.1h173.2h23.5l3.5-23.2l16.1-108l4.7-31.3h-31.6h-141.3l7.1-47.7h121.8h23.6l3.4-23.3l15.8-108
		l4.6-31.2h-31.6h-113.4l8.2-54.5h149.9h23.5l3.4-23.3l15.9-107.7l4.6-31.3h-31.6H1662.5z M1874.7,191.1h-173.4l-16.4,109.1h145
		l-15.8,108h-145.3l-15.3,102.2h173l-16.1,108h-173.2H1601c-38.4,0-67.8-34.2-62.2-72.1l61.5-409.4c4.6-30.8,31-53.5,62.2-53.5
		h228.1L1874.7,191.1z"/>
	<path d="M2977.9,56.1h-31.6h-228.1c-21.6,0-42.5,7.7-58.8,21.8c-16.4,14.1-27.2,33.6-30.3,54.9l-61.5,409.3
		c-3.9,26,3.8,52.2,20.9,72.1c17.1,19.9,42,31.3,68.2,31.3h36.1H2866h23.5l3.5-23.2l16.1-108l4.7-31.3h-31.6h-141.3l7.1-47.7h121.8
		h23.6l3.4-23.3l15.8-108l4.6-31.2h-31.6h-113.4l8.2-54.5h149.9h23.5l3.4-23.3l15.9-107.7L2977.9,56.1z M2930.3,191.1h-173.4
		l-16.4,109.1h145l-15.8,108h-145.3l-15.3,102.2h173l-16.1,108h-173.2h-36.1c-38.4,0-67.8-34.2-62.2-72.1l61.5-409.4
		c4.6-30.8,31-53.5,62.2-53.5h228.1L2930.3,191.1z"/>
	<g>
		<polygon points="733.9,409.8 802.9,409.8 790.7,272.7 		"/>
	</g>
	<g>
		<polygon points="3134.7,409.8 3203.7,409.8 3191.5,272.7 		"/>
	</g>
	<path d="M2890.7,645.6h40.8h116.8h18.2l7-16.8l34.7-83.7h80.1l6.8,75.7l2.2,24.8h24.9h108.4h29.8l-2.6-29.7l-41.1-462.4
		c-2.6-29.4-16-55.5-37.6-73.6c-19.7-16.5-45.1-25.6-71.4-25.6c-44.3,0-82.6,25.7-99.9,67.1l0,0l0,0l-201.3,486.5L2890.7,645.6z
		 M3132.7,131.9c14.4-34.4,44.7-50.4,74.8-50.4c38.9,0,77.6,26.6,81.9,74.4l41.1,462.4h-108.4l-9-100.6h-123.3l-41.6,100.6h-116.8
		L3132.7,131.9z"/>
	<path d="M1517.5,92c-19.3-22.4-48.9-35.9-79.1-35.9c-39,0-72.5,21.6-89.7,57.9l-89.3,187.3l-27.9-160
		c-4.6-26.3-17.5-48.4-37.5-63.8c-17.8-13.7-40.4-21.3-63.7-21.3c-23.8,0-46.7,7.8-64.7,21.9c-20.2,15.9-33,38.6-37.1,65.6
		l-70.8,470.6l-0.6,4l-0.2-2.3l-41.1-462.4c-2.6-29.4-16-55.5-37.6-73.6c-19.7-16.5-45.1-25.6-71.4-25.6c-20.8,0-40.8,5.7-57.9,16.5
		c-18.6,11.7-33.1,29.2-42,50.6l0,0l0,0L505.5,607.9l-15.6,37.7h40.8h116.8h18.2l7-16.8l34.7-83.7h80.1l6.8,75.7l2.2,24.8h24.9
		h108.4H953h6.5h25.1h109h23.5l3.5-23.2l13.8-91.7l8.4,47.9c3.6,20.5,13.9,37.9,29.8,50.3c14.4,11.2,32.5,17.4,51.1,17.4
		c14.9,0,29.4-3.9,41.9-11.4c13.6-8.1,24.5-20.3,31.6-35.2l20.2-42.5l-8.6,57.1l-4.7,31.3h31.7H1445h23.5l3.5-23.2l67.7-450.1
		C1544.1,142.3,1536.3,113.8,1517.5,92z M821.4,618.3l-9-100.6H689.2l-41.6,100.6H530.7L732,131.9c14.4-34.4,44.6-50.4,74.8-50.4
		c38.9,0,77.6,26.6,81.9,74.4l41.1,462.4H821.4z M1512.6,168.2L1445,618.3h-109.2l35.8-238.5L1272.6,588c-10.1,21.2-29.5,31-48.9,31
		c-24.6,0-48.9-16-54-45.1l-37.2-212.9l-38.8,257.4h-109l70.8-470.6c6.4-42.8,40.5-64.3,74.8-64.3c33.6,0,67.1,20.8,74.4,62.6
		l42.6,244.2l126.1-264.5c14-29.4,39.6-42.3,65.1-42.3C1479.5,83.4,1520.4,116.7,1512.6,168.2z"/>
	<path d="M483.8,566.7c54.4-59.7,81.8-133,93.3-171.4c7.3-24.3,2.8-49.9-12.4-70.2c-15.2-20.4-38.5-32.1-64-32.1h-45H332.1h-18.2
		l-7,16.8l-44.7,108l-15.6,37.7h40.8h69.9c-22.8,20.2-50.4,31.6-79.3,31.6c-8.3,0-34.3-4.8-55.1-26.6c-21.7-22.7-31.6-57-29.5-101.7
		c1.8-39,18.6-81.7,44.7-114.1c28.3-35,64.5-54.3,102.2-54.3c24.8,0,46.6,16.8,60.6,30.9c16.7,16.8,26.7,34.2,27.2,35.1l12.9,23.3
		l23.6-12.5l96.1-50.2l24.2-12.6l-12.6-24.2c-0.8-1.6-20.4-38.8-58-75.9c-22.3-22.1-46.6-39.7-72-52.5
		c-32.4-16.2-66.7-24.5-101.9-24.5c-44.4,0-87.3,10.6-127.3,31.4c-35.9,18.7-68.5,45-96.9,78.2c-51.9,60.6-85,139.4-88.3,210.6
		c-2.3,48.3,3.8,92.7,18.2,132.2c12.8,35.1,32,66.3,57.3,92.7c26.5,27.8,59.9,50.4,96.7,65.3c30.4,12.4,61.9,19.2,88.7,19.2
		c39.4,0,76.9-8.7,111.4-25.7C430.4,616.1,458.6,594.4,483.8,566.7z M288.6,629.6c-74,0-243.8-65.6-233.6-280.9
		C60.9,223.2,172,54.5,340.3,54.5C475.9,54.5,548,192.7,548,192.7l-96.1,50.2c0,0-44.6-79.9-111.6-79.9c-101,0-170,107-174.2,194.4
		c-6.1,130.2,82.4,156.9,111.8,156.9c58.1,0,107.6-36.5,135.3-86.1H287.4l44.7-108h123.7h45c35,0,60.3,33.7,50.2,67.3
		C519.1,493.7,437.4,629.6,288.6,629.6z"/>
	<path d="M2483.9,566.7c54.4-59.7,81.8-133,93.3-171.4c7.3-24.3,2.8-49.9-12.4-70.2c-15.2-20.4-38.5-32.1-64-32.1h-45h-123.7H2314
		l-7,16.8l-44.7,108l-15.6,37.7h40.8h69.9c-22.8,20.2-50.4,31.6-79.3,31.6c-8.3,0-34.3-4.8-55.1-26.6c-21.7-22.7-31.6-57-29.5-101.7
		c1.8-39,18.6-81.7,44.7-114.1c28.3-35,64.5-54.3,102.2-54.3c24.8,0,46.6,16.8,60.6,30.9c16.7,16.8,26.7,34.3,27.2,35.1l12.8,23.3
		l23.6-12.5l96.1-50.2l24.2-12.6l-12.6-24.2c-0.8-1.6-20.4-38.8-58-75.9c-22.3-22.1-46.6-39.7-72-52.5
		c-32.4-16.2-66.7-24.5-101.9-24.5c-44.4,0-87.3,10.6-127.3,31.4c-35.9,18.7-68.5,45-96.9,78.2c-51.9,60.6-85,139.4-88.3,210.6
		c-2.3,48.3,3.8,92.7,18.2,132.2c12.8,35.1,32,66.3,57.3,92.7c26.5,27.8,59.9,50.4,96.7,65.3c30.4,12.4,61.9,19.2,88.7,19.2
		c39.4,0,76.9-8.7,111.4-25.7C2430.5,616.1,2458.7,594.4,2483.9,566.7z M2288.7,629.6c-74,0-243.8-65.6-233.6-280.9
		c5.9-125.5,117.1-294.2,285.3-294.2c135.6,0,207.7,138.2,207.7,138.2l-96.1,50.2c0,0-44.6-79.9-111.6-79.9
		c-101,0-170,107-174.2,194.4c-6.1,130.2,82.4,156.9,111.8,156.9c58.1,0,107.6-36.5,135.3-86.1h-125.8l44.7-108h123.7h45
		c35,0,60.3,33.7,50.2,67.3C2519.3,493.7,2437.5,629.6,2288.7,629.6z"/>
	<path d="M3598.1,467.6l33.8,156.6l4.6,21.5h22h111.2h33.8l-7.1-33L3764,462.3l0,0l-1.4-6.6l-0.1-0.3l-3.1-14.4l-2.3-10.7
		c-2.5-11.6-7-22.1-13.1-31.2c25.7-21.6,44.9-49.1,56.2-81.1c7.9-22.3,11.9-46.3,11.6-69.4l0-0.5c0-25.8-5.7-51.3-17-75.7
		c-10.3-22.2-24.6-42.5-42.7-60.3c-17.1-16.9-37.2-30.9-58.1-40.5c-21.8-10.1-44.5-15.4-65.7-15.4h-39.5H3533
		c-21.4,0-42.1,7.6-58.4,21.5c-16.3,13.8-27.1,33.1-30.5,54.2L3366.1,614l-5.1,31.6h32h109.3h23.2l3.7-22.9l27.2-167.9h25.8
		C3589.9,454.8,3596.6,460.2,3598.1,467.6z M3533.2,427.5l-30.9,190.8h-109.3l77.9-482.2c5-30.5,31.2-52.8,62-52.8h55.9h39.5
		c70.8,0,156.2,73.3,156.2,164.7c0,6.2,4.3,98.7-85,148.6c0,0,24.1,7.2,31,39.2c2.8,12.8,4.4,20.5,5.4,25.1l0.1,0.3
		c1.4,6.6,1.4,6.6,1.4,6.6l32.4,150.4h-111.2l-33.8-156.6c-4.3-20-22-34.4-42.6-34.4H3533.2z"/>
	<g>
		<path d="M3616.2,191.2h-45l-20.5,128.4h47.7c42.8,0,72.1-43.5,65-81.5C3658.6,212.6,3637.6,191.2,3616.2,191.2z M3626.5,278.3
			c-4.3,5.2-13.8,14-28.1,14h-15.7l11.8-73.8h21.7c6.4,0,17.7,10.3,20.3,24.5l0,0l0,0C3638.7,254.7,3634.9,268.2,3626.5,278.3z"/>
	</g>
	<path class="st0" d="M3636.5,243L3636.5,243c-2.6-14.3-14-24.6-20.3-24.6h-21.7l-11.8,73.8h15.7c14.4,0,23.8-8.8,28.1-14
		C3634.9,268.2,3638.7,254.7,3636.5,243L3636.5,243z"/>
	<g>
		
			<linearGradient id="SVGID_00000057844676922988424090000002553958676941344659_" gradientUnits="userSpaceOnUse" x1="3130.9668" y1="81.5131" x2="3130.9668" y2="618.3148">
			<stop  offset="0.2309" style="stop-color:#FF2727"/>
			<stop  offset="0.8932" style="stop-color:#FFC600"/>
		</linearGradient>
		<path style="fill:url(#SVGID_00000057844676922988424090000002553958676941344659_);" d="M3207.5,81.5c-30.1,0-60.4,16-74.8,50.4
			l-201.3,486.5h116.8l41.6-100.6h123.3l9,100.6h108.4l-41.1-462.4C3285.1,108.1,3246.4,81.5,3207.5,81.5z M3134.7,409.8l56.8-137.1
			l12.2,137.1H3134.7z"/>
	</g>
</g>
</svg>
