<?xml version="1.0" encoding="utf-8"?>
<!-- Generator: Adobe Illustrator 25.4.1, SVG Export Plug-In . SVG Version: 6.00 Build 0)  -->
<svg version="1.1" id="Layer_1" xmlns="http://www.w3.org/2000/svg" xmlns:xlink="http://www.w3.org/1999/xlink" x="0px" y="0px"
	 viewBox="0 0 2255.7 2159" style="enable-background:new 0 0 2255.7 2159;" xml:space="preserve">
<style type="text/css">
	.st0{fill:#FFFFFF;}
	.st1{fill:#912620;}
	.st2{fill:#008471;}
	.st3{fill:#005090;}
	.st4{fill:#B22D2A;}
	.st5{fill:#B32D2A;}
	.st6{fill:#B42D2A;}
	.st7{fill:#B52D2A;}
	.st8{fill:#B62D2A;}
	.st9{fill:#B72D29;}
	.st10{fill:#B82D29;}
	.st11{fill:#B92D29;}
	.st12{fill:#BA2D29;}
	.st13{fill:#BB2D29;}
	.st14{fill:#BC2D29;}
	.st15{fill:#BD2D29;}
	.st16{fill:#BE2D29;}
	.st17{fill:#BF2D29;}
	.st18{fill:#C02D29;}
	.st19{fill:#C12D28;}
	.st20{fill:#C22D28;}
	.st21{fill:#C32D28;}
	.st22{fill:#C42D28;}
	.st23{fill:#C52D28;}
	.st24{fill:#C62D28;}
	.st25{fill:#C72D28;}
	.st26{fill:#C82D28;}
	.st27{fill:#C92D28;}
	.st28{fill:#CA2D28;}
	.st29{fill:#CA2E27;}
	.st30{fill:#CB2E27;}
	.st31{fill:#CC2E27;}
	.st32{fill:#CD2E27;}
	.st33{fill:#CE2E27;}
	.st34{fill:#CF2E27;}
	.st35{fill:#D02E27;}
	.st36{fill:#D12E27;}
	.st37{fill:#D22E27;}
	.st38{fill:#D32E27;}
	.st39{fill:#D42E26;}
	.st40{fill:#D52E26;}
	.st41{fill:#D62E26;}
	.st42{fill:#D72E26;}
	.st43{fill:#D82E26;}
	.st44{fill:#D92E26;}
	.st45{fill:#DA2E26;}
	.st46{fill:#DB2E26;}
	.st47{fill:#DC2E26;}
	.st48{fill:#DD2E26;}
	.st49{fill:#DE2E25;}
	.st50{fill:#DF2E25;}
	.st51{fill:#E02E25;}
	.st52{fill:#E12E25;}
	.st53{fill:#E22E25;}
	.st54{fill:#009588;}
	.st55{fill:#009587;}
	.st56{fill:#019486;}
	.st57{fill:#019485;}
	.st58{fill:#019384;}
	.st59{fill:#029383;}
	.st60{fill:#029382;}
	.st61{fill:#029281;}
	.st62{fill:#039280;}
	.st63{fill:#03917F;}
	.st64{fill:#03917E;}
	.st65{fill:#03917D;}
	.st66{fill:#04907C;}
	.st67{fill:#04907B;}
	.st68{fill:#048F7A;}
	.st69{fill:#058F79;}
	.st70{fill:#058F78;}
	.st71{fill:#058E77;}
	.st72{fill:#068E76;}
	.st73{fill:#068D75;}
	.st74{fill:#068D74;}
	.st75{fill:#078D73;}
	.st76{fill:#078C72;}
	.st77{fill:#078C71;}
	.st78{fill:#088B70;}
	.st79{fill:#088B6F;}
	.st80{fill:#088B6E;}
	.st81{fill:#088A6D;}
	.st82{fill:#098A6C;}
	.st83{fill:#09896B;}
	.st84{fill:#09896A;}
	.st85{fill:#0A8969;}
	.st86{fill:#0A8868;}
	.st87{fill:#0A8867;}
	.st88{fill:#0B8766;}
	.st89{fill:#0B8765;}
	.st90{fill:#0B8764;}
	.st91{fill:#0C8663;}
	.st92{fill:#0C8662;}
	.st93{fill:#0C8561;}
	.st94{fill:#0D8560;}
	.st95{fill:#0D845F;}
	.st96{fill:#0D845E;}
	.st97{fill:#0E835D;}
	.st98{fill:#0E835C;}
	.st99{fill:#0E835B;}
	.st100{fill:#0F825A;}
	.st101{fill:#0F8259;}
	.st102{fill:#0F8158;}
	.st103{fill:#108157;}
	.st104{fill:#108156;}
	.st105{fill:#108055;}
	.st106{fill:#118054;}
	.st107{fill:#117F53;}
	.st108{fill:#117F52;}
	.st109{fill:#117F51;}
	.st110{fill:#127E50;}
	.st111{fill:#127E4F;}
	.st112{fill:#127D4E;}
	.st113{fill:#137D4D;}
	.st114{fill:#137D4C;}
	.st115{fill:#137C4B;}
	.st116{fill:#147C4A;}
	.st117{fill:#147B49;}
	.st118{fill:#147B48;}
	.st119{fill:#157B47;}
	.st120{fill:#157A46;}
	.st121{fill:#157A45;}
	.st122{fill:#167944;}
	.st123{fill:#167943;}
	.st124{fill:#167942;}
	.st125{fill:#167841;}
	.st126{fill:#177840;}
	.st127{fill:#17773F;}
	.st128{fill:#17773E;}
	.st129{fill:#18773D;}
	.st130{fill:#18763C;}
	.st131{fill:#18763B;}
	.st132{fill:#19753A;}
	.st133{fill:#197539;}
	.st134{fill:#005EAA;}
	.st135{fill:#005EAB;}
	.st136{fill:#015FAC;}
	.st137{fill:#015FAD;}
	.st138{fill:#0160AE;}
	.st139{fill:#0260AF;}
	.st140{fill:#0261B0;}
	.st141{fill:#0261B1;}
	.st142{fill:#0362B2;}
	.st143{fill:#0362B3;}
	.st144{fill:#0362B4;}
	.st145{fill:#0463B5;}
	.st146{fill:#0463B6;}
	.st147{fill:#0464B7;}
	.st148{fill:#0564B8;}
	.st149{fill:#0565B9;}
	.st150{fill:#0565BA;}
	.st151{fill:#0666BB;}
	.st152{fill:#0666BC;}
	.st153{fill:#0666BD;}
	.st154{fill:#0767BE;}
	.st155{fill:#0767BF;}
	.st156{fill:#0768BF;}
	.st157{fill:#0768C0;}
	.st158{fill:#0869C1;}
	.st159{fill:#0869C2;}
	.st160{fill:#0869C3;}
	.st161{fill:#096AC4;}
	.st162{fill:#096AC5;}
	.st163{fill:#096BC6;}
	.st164{fill:#0A6BC7;}
	.st165{fill:#0A6CC8;}
	.st166{fill:#0A6CC9;}
	.st167{fill:#0B6DCA;}
	.st168{fill:#0B6DCB;}
	.st169{fill:#0B6DCC;}
	.st170{fill:#0C6ECD;}
	.st171{fill:#0C6ECE;}
	.st172{fill:#0C6FCF;}
	.st173{fill:#0D6FD0;}
	.st174{fill:#0D70D1;}
	.st175{fill:#0D70D2;}
	.st176{fill:#0E71D3;}
	.st177{fill:#0E71D4;}
	.st178{fill:#0058B7;}
	.st179{fill:#0058B6;}
	.st180{fill:#0057B5;}
	.st181{fill:#0057B4;}
	.st182{fill:#0057B3;}
	.st183{fill:#0057B2;}
	.st184{fill:#0056B1;}
	.st185{fill:#0056B0;}
	.st186{fill:#0056AF;}
	.st187{fill:#0056AE;}
	.st188{fill:#0055AD;}
	.st189{fill:#0055AC;}
	.st190{fill:#0055AB;}
	.st191{fill:#0055AA;}
	.st192{fill:#0054A9;}
	.st193{fill:#0054A8;}
	.st194{fill:#0054A7;}
	.st195{fill:#0054A6;}
	.st196{fill:#0053A5;}
	.st197{fill:#0053A4;}
	.st198{fill:#0053A3;}
	.st199{fill:#0053A2;}
	.st200{fill:#0052A1;}
	.st201{fill:#0052A0;}
	.st202{fill:#00529F;}
	.st203{fill:#00529E;}
	.st204{fill:#00519D;}
	.st205{fill:#00519C;}
	.st206{fill:#00519B;}
	.st207{fill:#00519A;}
	.st208{fill:#005099;}
	.st209{fill:#005098;}
	.st210{fill:#005097;}
	.st211{fill:#005096;}
	.st212{fill:#004F95;}
	.st213{fill:#004F94;}
	.st214{fill:#004F93;}
	.st215{fill:#004F92;}
	.st216{fill:#004E91;}
	.st217{fill:#004E90;}
	.st218{fill:#004E8F;}
	.st219{fill:#004E8E;}
	.st220{fill:#004D8D;}
	.st221{fill:#004D8C;}
	.st222{fill:#004D8B;}
	.st223{fill:#004D8A;}
	.st224{fill:#004C89;}
	.st225{fill:#004C88;}
	.st226{fill:#008472;}
	.st227{fill:#008572;}
	.st228{fill:#008671;}
	.st229{fill:#008771;}
	.st230{fill:#008871;}
	.st231{fill:#008970;}
	.st232{fill:#008A70;}
	.st233{fill:#008B6F;}
	.st234{fill:#008C6F;}
	.st235{fill:#008D6F;}
	.st236{fill:#008E6E;}
	.st237{fill:#008F6E;}
	.st238{fill:#00906D;}
	.st239{fill:#00916D;}
	.st240{fill:#00926D;}
	.st241{fill:#00936C;}
	.st242{fill:#00946C;}
	.st243{fill:#00956B;}
	.st244{fill:#00966B;}
	.st245{fill:#00976B;}
	.st246{fill:#00986A;}
	.st247{fill:#00996A;}
	.st248{fill:#D60700;}
	.st249{fill:#034693;}
	.st250{fill:url(#SVGID_1_);}
	.st251{fill:url(#SVGID_00000015319522787886893420000017315879545601401755_);}
	.st252{fill:url(#SVGID_00000143592312969974676410000002513360145689618565_);}
	.st253{fill:url(#SVGID_00000062911980209640431860000005266345949854254491_);}
	.st254{fill:url(#SVGID_00000103258524267696276530000004870056220454881424_);}
	.st255{fill:url(#SVGID_00000065759575447798707910000000284750657688874880_);}
	.st256{fill:url(#SVGID_00000157294738940973231790000007880446736981496211_);}
	.st257{fill:url(#SVGID_00000044862465990530192670000004125381111281236390_);}
	.st258{fill:url(#SVGID_00000039128789898854732350000018107632664199884177_);}
	.st259{fill:url(#SVGID_00000047061887797695732210000015745521099204137116_);}
	.st260{fill:url(#SVGID_00000152955520481064867040000007906949279308216705_);}
	.st261{fill:url(#SVGID_00000137105486726603029400000016048270465784751491_);}
	.st262{fill:url(#SVGID_00000003098725843090781330000004561616389732832664_);}
	.st263{fill:url(#SVGID_00000106126868059110570260000013612339697672243371_);}
	.st264{fill:url(#SVGID_00000117661310208934646950000005871416377666173059_);}
	.st265{fill:url(#SVGID_00000039813667452101285350000005354828180392481424_);}
	.st266{fill:url(#SVGID_00000142859099469524356980000001074194322985250443_);}
	.st267{fill:url(#SVGID_00000178166017518257620940000004571540879695635872_);}
	.st268{fill:url(#SVGID_00000107589612808009079000000010797438104702495142_);}
	.st269{fill:url(#SVGID_00000076577262442860641450000004037583658502906523_);}
	.st270{fill:url(#SVGID_00000017506011410405891550000007169918263687814845_);}
	.st271{fill:url(#SVGID_00000044146689496071059730000006095637993906666661_);}
	.st272{fill:url(#SVGID_00000029739066921190932970000000082559535260018059_);}
	.st273{fill:url(#SVGID_00000069387828195025750740000017211554187199397297_);}
	.st274{fill:url(#SVGID_00000120542923698613638380000013599584681135467694_);}
	.st275{fill:url(#SVGID_00000030466650261435767390000014632146953520221879_);}
	.st276{fill:url(#SVGID_00000141450993261711055760000003212237009666734210_);}
	.st277{fill:url(#SVGID_00000052080053972750593850000004524267270936815020_);}
	.st278{fill:url(#SVGID_00000147928880785003022370000003743581267412447637_);}
	.st279{fill:url(#SVGID_00000095338629785813467640000015666559779378749875_);}
	.st280{fill:url(#SVGID_00000027569476860270695610000008939626873452547497_);}
	.st281{fill:url(#SVGID_00000003103319221086835060000008791707215099587001_);}
	.st282{fill:url(#SVGID_00000031912427676616357650000008214610060899495060_);}
	.st283{fill:url(#SVGID_00000051383525685845211540000006644880615296925576_);}
	.st284{fill:url(#SVGID_00000115503786568538374020000011221804797433124522_);}
	.st285{fill:url(#SVGID_00000088105540348999301530000018427863707649769626_);}
	.st286{fill:url(#SVGID_00000020391596774786960210000012240964236641639040_);}
	.st287{fill:url(#SVGID_00000059275529322850615900000011211317469373708417_);}
	.st288{fill:url(#SVGID_00000050640082120582228670000015319369944066162874_);}
	.st289{fill:url(#SVGID_00000176737280703141288380000001376810661936133523_);}
	.st290{fill:url(#SVGID_00000117660277999131268420000015435448512096110755_);}
	.st291{fill:url(#SVGID_00000011718341534928034110000014441467888050150050_);}
	.st292{fill:url(#SVGID_00000158009036505439483530000017069051713533924524_);}
	.st293{fill:url(#SVGID_00000036962670208603010030000015478160273834009730_);}
	.st294{fill:url(#SVGID_00000127761943600997122850000006199919869759961524_);}
	.st295{fill:url(#SVGID_00000003082709516227339880000002793386333736891292_);}
	.st296{fill:url(#SVGID_00000043448973483116006280000004159964665548799628_);}
	.st297{fill:url(#SVGID_00000116922315405346865420000016263546427320760241_);}
	.st298{fill:url(#SVGID_00000097460691456689019880000010107246862844403644_);}
	.st299{fill:url(#SVGID_00000035512407290845695890000014491928074889905024_);}
	.st300{fill:url(#SVGID_00000006690146907284816090000005520587569978715555_);}
	.st301{fill:url(#SVGID_00000105407354972292784070000014209917658148530341_);}
	.st302{fill:url(#SVGID_00000070107368915127120470000016676135572125884575_);}
	.st303{fill:url(#SVGID_00000052810938060711464550000016358281546691981699_);}
	.st304{fill:url(#SVGID_00000123438531477561918670000004076468562317901448_);}
	.st305{fill:url(#SVGID_00000046315038131263637050000016535113220889780098_);}
	.st306{fill:url(#SVGID_00000072246884834694215140000018047539932463485071_);}
	.st307{fill:url(#SVGID_00000107572411384453450630000018062250223171754378_);}
	.st308{fill:url(#SVGID_00000138542833021826597910000010811380859500583350_);}
	.st309{fill:url(#SVGID_00000111158928039105932710000014205104522094927537_);}
	.st310{fill:url(#SVGID_00000103957756954201750480000010972454696055247515_);}
	.st311{fill:url(#SVGID_00000126316667928797536650000016932643552586758567_);}
	.st312{fill:url(#SVGID_00000132049222607841749100000006658751128388716974_);}
	.st313{fill:url(#SVGID_00000100377565251630263460000017681768066890703544_);}
	.st314{fill:url(#SVGID_00000083803866028429973460000014749524490677117063_);}
	.st315{fill:url(#SVGID_00000049908824123373334780000014898745477743739271_);}
	.st316{fill:url(#SVGID_00000050658780030007321220000011602708650676281243_);}
	.st317{fill:url(#SVGID_00000132059767963213128140000007726744214054944911_);}
	.st318{fill:url(#SVGID_00000142884933232373194730000010580413466421511091_);}
	.st319{fill:url(#SVGID_00000013160501686232931940000017663091788719698563_);}
	.st320{fill:url(#SVGID_00000183954770598072948450000000890905037125150090_);}
	.st321{fill:url(#SVGID_00000165223108752764234390000004272665465255914371_);}
	.st322{fill:url(#SVGID_00000008139158878442915210000012148257102026019473_);}
	.st323{fill:url(#SVGID_00000022558743933066621410000012953163976702363780_);}
	.st324{fill:url(#SVGID_00000154408760885662524790000000236247667150718910_);}
	.st325{fill:url(#SVGID_00000093885315001577114580000016507324800230126993_);}
	.st326{fill:url(#SVGID_00000069385009474405745130000017387556941472835005_);}
	.st327{fill:url(#SVGID_00000128478498093557142160000016965836257484631191_);}
	.st328{fill:url(#SVGID_00000116943628973972099490000017804462823689834937_);}
	.st329{fill:url(#SVGID_00000074411025405408419660000009757245763904508040_);}
	.st330{fill:url(#SVGID_00000004539804972953066580000004685353707605066126_);}
	.st331{fill:url(#SVGID_00000122717504722949345050000010289246433440065435_);}
	.st332{fill:url(#SVGID_00000178191915804548084960000009553301936583476896_);}
	.st333{fill:url(#SVGID_00000057870408475982735490000005730187554879098792_);}
	.st334{fill:url(#SVGID_00000082326994847816253060000017000477981457535406_);}
	.st335{fill:url(#SVGID_00000064337591981616346140000017537110830440733835_);}
	.st336{fill:url(#SVGID_00000134969257408582605000000006679013302735301050_);}
	.st337{fill:url(#SVGID_00000116940928066789218800000006611332080150016927_);}
	.st338{fill:url(#SVGID_00000108268934674547212170000012398184996688852394_);}
	.st339{fill:url(#SVGID_00000032637664913149027050000000695092156484570022_);}
	.st340{fill:url(#SVGID_00000131366024958740500590000012770088845608832646_);}
	.st341{fill:url(#SVGID_00000138551924908913361230000017121231243091781782_);}
	.st342{fill:url(#SVGID_00000026871996329914261180000000638259605421623169_);}
	.st343{fill:url(#SVGID_00000000220715240119646580000012795138958163264388_);}
	.st344{fill:url(#SVGID_00000048466605615865143940000017557319485688260261_);}
	.st345{fill:url(#SVGID_00000169517116228727601470000005513123811055989693_);}
	.st346{fill:#034693;stroke:#FFFFFF;stroke-width:25.205;stroke-miterlimit:10;}
	.st347{fill:url(#SVGID_00000118398788250779430610000004214596232458026903_);}
	.st348{fill:url(#SVGID_00000148620215347585826700000015055942622679162518_);}
	.st349{fill:url(#SVGID_00000083768101149291492340000001938881814337737106_);}
	.st350{fill:url(#SVGID_00000093868166005105243730000005712366472529057177_);}
	.st351{fill:url(#SVGID_00000099662690770392188380000018328437102494011559_);}
	.st352{fill:url(#SVGID_00000105408818364878585960000009698167935000376232_);}
	.st353{fill:url(#SVGID_00000045615779323814950460000005670158397303183490_);}
	.st354{fill:url(#SVGID_00000037693689316942262380000008411389329843931552_);}
</style>
<g>
	<g>
		<g>
			<g>
				<path class="st239" d="M1536,18.3C1519.9,5.9,1499.7,0,1476.5,0c-98.5,0-252,106.2-380.5,272.4
					C937.1,477.8,876.6,697.1,960.8,762.2c16.1,12.4,36.3,18.3,59.5,18.3c98.5,0,252-106.2,380.5-272.4
					C1559.7,302.7,1620.2,83.4,1536,18.3z"/>
			</g>
		</g>
		<g>
			<g>
				<g>
					<path class="st248" d="M719.1,508.2C878,302.8,938.5,83.5,854.3,18.4C838.2,5.9,818,0,794.8,0c-98.5,0-252,106.2-380.5,272.4
						C255.4,477.8,194.9,697.1,279.1,762.2c16.1,12.4,36.3,18.3,59.5,18.3C437.1,780.6,590.6,674.4,719.1,508.2z"/>
				</g>
			</g>
			<g>
				<g>
					<path class="st249" d="M2082.6,508.2c158.8-205.4,219.3-424.7,135.1-489.8c-16.1-12.4-36.3-18.3-59.5-18.3
						c-98.5,0-252,106.2-380.5,272.4c-158.8,205.4-219.3,424.7-135.1,489.8c16.1,12.4,36.3,18.3,59.5,18.3
						C1800.6,780.6,1954.1,674.4,2082.6,508.2z"/>
				</g>
			</g>
		</g>
	</g>
	<g>
		<path class="st0" d="M1798.3,970.5L1798.3,970.5 M1798.3,970.5l-4.3,29.2l-14.9,100.8l-3.2,21.8h-22h-140.2l-7.7,51H1712h29.5
			l-4.3,29.2l-14.8,101l-3.2,21.8h-22h-114l-6.7,44.6h132.2h29.6l-4.4,29.3l-15.1,101l-3.2,21.7h-22h-162.1h-33.8
			c-24.5,0-47.8-10.7-63.8-29.3c-16-18.6-23.2-43.2-19.6-67.5l57.5-382.9c3-20,13-38.2,28.4-51.4c15.3-13.1,34.8-20.4,55-20.4h213.4
			H1798.3 M1497.7,1496.5h33.8h162.1l15.1-101h-161.8l14.3-95.6h135.9l14.8-101h-135.7l15.3-102h162.2l14.9-100.8h-213.4
			c-29.1,0-53.9,21.2-58.2,50l-57.5,383C1434.3,1464.4,1461.8,1496.5,1497.7,1496.5 M1798.3,945L1798.3,945h-29.6h-213.4
			c-26.3,0-51.7,9.4-71.7,26.5c-20,17.2-33.1,41-37,67l-57.5,382.9c-4.7,31.7,4.6,63.7,25.5,87.9c20.9,24.2,51.2,38.1,83.2,38.1
			h33.8h162.1h22c12.6,0,23.4-9.2,25.2-21.7l3.2-21.7l15.1-101l4.4-29.3c1.1-7.3-1.1-14.8-5.9-20.4c-4.8-5.6-11.9-8.9-19.3-8.9h-2.2
			c4.4-3.9,7.4-9.2,8.3-15.4l3.2-21.8l14.8-101l4.3-29.2c1.1-7.3-1.1-14.8-5.9-20.4c-4.8-5.6-11.9-8.8-19.3-8.8H1712h-76.4l0,0
			h118.3h22c12.6,0,23.4-9.3,25.2-21.8l3.2-21.8l14.9-100.8l4.2-28.6c0.2-1.4,0.4-2.9,0.4-4.3C1823.8,956.4,1812.4,945,1798.3,945
			L1798.3,945z M1798.3,996L1798.3,996L1798.3,996L1798.3,996z M1497.7,1471c-9.8,0-18.8-4.1-25.2-11.6c-6.3-7.4-9.2-17.1-7.7-26.6
			l57.5-382.9c2.4-16.4,16.3-28.3,33-28.3h183.9l-7.4,49.8h-140.2c-12.6,0-23.3,9.2-25.2,21.7l-15.3,102c-1.1,7.3,1,14.8,5.9,20.4
			c4.8,5.6,11.9,8.9,19.3,8.9h106.2l-7.3,50h-113.9c-12.6,0-23.4,9.2-25.2,21.7l-14.3,95.6c-1.1,7.3,1.1,14.8,5.9,20.4
			c4.8,5.6,11.9,8.9,19.3,8.9h132.2l-7.5,50h-140.1H1497.7L1497.7,1471z"/>
		<path class="st0" d="M754.8,968.8c24.6,0,48.4,8.5,66.8,24c20.2,16.9,32.7,41.4,35.2,68.9l38.4,432.6l0.2,2.2l0.6-3.7l66.2-440.3
			c3.8-25.3,15.8-46.5,34.7-61.3c16.8-13.2,38.3-20.5,60.5-20.5c21.8,0,43,7.1,59.6,19.9c18.7,14.4,30.8,35.1,35.1,59.7l26.1,149.7
			l83.5-175.2c16.1-33.9,47.5-54.1,84-54.1c28.3,0,56,12.5,74,33.5c17.6,20.4,24.9,47.1,20.7,75.1l-63.3,421l-3.3,21.7h-22h-102.1
			H1220l4.4-29.3l8-53.4l-18.9,39.8c-6.6,13.9-16.8,25.3-29.6,32.9c-11.7,7-25.2,10.7-39.2,10.7c-17.4,0-34.3-5.8-47.8-16.3
			c-14.9-11.6-24.5-27.9-27.8-47l-7.8-44.8l-12.9,85.8l-3.3,21.7h-21.9h-102h-23.5h-6.1h-21.7H768.5h-23.3l-2.1-23.2l-6.3-70.8
			h-74.9l-32.4,78.3l-6.5,15.8h-17H496.5h-38.2l14.6-35.3l188.3-455.1l0,0l0,0c8.4-20,22-36.4,39.3-47.3
			C716.6,974.1,735.3,968.8,754.8,968.8 M496.5,1496.5h109.3l38.9-94.1H760l8.4,94.1h101.4l-38.4-432.6c-4-44.7-40.2-69.6-76.6-69.6
			c-28.3,0-56.5,14.9-70,47.1L496.5,1496.5 M1166.8,1283.1l-39.8-228.5c-6.8-39.1-38.2-58.5-69.6-58.5c-32,0-63.9,20.1-70,60.2
			l-66.2,440.3h102l36.3-240.8l34.8,199.2c4.8,27.3,27.5,42.2,50.5,42.2c18.1,0,36.3-9.2,45.7-29l92.7-194.7l-33.5,223.1h102.1
			l63.3-421c7.3-48.2-31-79.4-69.5-79.4c-23.9,0-47.9,12.1-60.9,39.6L1166.8,1283.1 M754.8,943.3c-24.3,0-47.7,6.7-67.8,19.4
			c-21.8,13.8-38.8,34.2-49.2,59c0,0.1-0.1,0.2-0.1,0.3l-188.3,455l-14.6,35.3c-3.3,7.9-2.4,16.8,2.4,23.9
			c4.7,7.1,12.7,11.3,21.2,11.3h38.2h109.3h17c10.3,0,19.6-6.2,23.6-15.8l6.5-15.8l25.9-62.6h34.6l4.3,47.6l2.1,23.2
			c1.2,13.2,12.2,23.2,25.4,23.2h23.3h101.4h21.7h6.1h23.5h102h21.9c12.6,0,23.3-9.2,25.2-21.7l1.2-8c3,3.1,6.3,6,9.8,8.7
			c17.9,14,40.5,21.7,63.5,21.7c18.5,0,36.6-4.9,52.3-14.3c0.1-0.1,0.2-0.1,0.3-0.2c0.9,1.8,2,3.4,3.4,5c4.8,5.6,11.9,8.9,19.3,8.9
			h29.6h102.1h22c12.6,0,23.3-9.2,25.2-21.7l3.3-21.7l63.3-421c5.4-35.5-4.1-69.4-26.6-95.6c-22.8-26.6-57.7-42.4-93.4-42.4
			c-22.8,0-44.7,6.4-63.4,18.4c-18.6,12-33.6,29.3-43.6,50.3l-49.1,103l-12.4-70.9c-5.4-31-20.8-57.1-44.6-75.5
			c-21.1-16.3-47.8-25.3-75.2-25.3c-27.9,0-55,9.2-76.3,26c-24.1,19-39.3,45.8-44.1,77.6l-35,232.9l-19.7-222.2
			c-3.1-34.3-18.8-64.9-44.2-86.2C814.9,953.9,785.4,943.3,754.8,943.3L754.8,943.3z M708.3,1051.2c11.9-28.3,36.4-31.4,46.4-31.4
			c22.7,0,48.4,14.5,51.2,46.4l36,404.8h-50.2l-6.3-70.8c-1.2-13.2-12.2-23.2-25.4-23.2H644.7c-10.3,0-19.6,6.2-23.6,15.8
			l-32.4,78.3h-54.1L708.3,1051.2L708.3,1051.2z M1166.8,1308.6c9.7,0,18.7-5.6,23-14.5l117.9-247.5c10.3-21.8,28.2-25,37.9-25
			c13.6,0,26.8,5.9,35.3,15.8c7.9,9.2,10.9,20.8,8.9,34.3l-60,399.3h-50.5l29.1-193.8c1.9-12.5-5.7-24.5-17.8-28.2
			c-2.5-0.8-5-1.1-7.5-1.1c-9.6,0-18.7,5.5-23,14.5l-92.7,194.7c-6,12.6-16.8,14.5-22.7,14.5c-10,0-22.6-5.5-25.4-21.1l-34.8-199.2
			c-2.1-12.2-12.7-21.1-25.1-21.1c-0.1,0-0.2,0-0.3,0c-12.5,0.1-23.1,9.3-24.9,21.7l-33,219.1h-50.4l61.8-411
			c4.3-28.4,26.8-38.5,44.7-38.5c18.4,0,39.7,9.8,44.5,37.4l39.8,228.5c1.9,10.9,10.7,19.4,21.7,20.9
			C1164.5,1308.5,1165.6,1308.6,1166.8,1308.6L1166.8,1308.6z"/>
		<path class="st0" d="M318.3,943.5c32.9,0,65,7.7,95.3,22.9c23.8,11.9,46.4,28.4,67.3,49.1c35.2,34.7,53.5,69.5,54.3,71l11.8,22.6
			l-22.6,11.8l-89.9,47l-22,11.7l-12-21.8c-0.5-0.8-9.9-17.1-25.5-32.8c-13.1-13.2-33.5-28.9-56.7-28.9c-35.2,0-69.2,18-95.6,50.8
			c-24.5,30.4-40.1,70.3-41.9,106.8c-2,41.9,7.3,73.9,27.6,95.1c19.5,20.4,43.8,24.9,51.5,24.9c27,0,52.9-10.6,74.2-29.5h-65.4
			h-38.2l14.6-35.3l41.8-101l6.5-15.7h17h115.7h42.1c23.8,0,45.6,11,59.8,30.1c14.2,19,18.4,43,11.6,65.7
			c-10.8,35.9-36.4,104.5-87.3,160.3c-23.6,25.9-50,46.2-78.4,60.3c-32.3,16-67.3,24.1-104.2,24.1c-25.1,0-54.6-6.4-83-18
			c-34.4-14-65.6-35.2-90.4-61.1c-23.6-24.7-41.6-53.9-53.6-86.8c-13.4-36.9-19.2-78.5-17-123.6c3.1-66.7,34-140.3,82.6-197
			c26.6-31.1,57.1-55.7,90.7-73.1C236.7,953.4,276.8,943.5,318.3,943.5 M270,1507c139.2,0,215.7-127.1,245.4-226.5
			c9.4-31.4-14.2-62.9-47-62.9h-42.1H310.7l-41.8,101h117.7c-25.9,46.3-72.2,80.5-126.6,80.5c-27.5,0-110.4-25-104.6-146.8
			c3.9-81.7,68.5-181.9,162.9-181.9c62.7,0,104.4,74.7,104.4,74.7l89.9-47c0,0-67.5-129.3-194.3-129.3
			C160.9,969,57,1126.8,51.4,1244.2C41.9,1445.6,200.8,1507,270,1507 M318.3,918c-45.7,0-89.7,10.8-130.9,32.2
			c-36.5,19-69.5,45.6-98.3,79.1C37,1090.3,3.9,1169.7,0.5,1241.8c-2.3,48.5,3.9,93.5,18.5,133.6c13.2,36.1,33,68.3,59.1,95.6
			c27.2,28.6,61.6,51.8,99.2,67.1c31.4,12.8,64.3,19.9,92.6,19.9c40.8,0,79.7-9,115.5-26.7c31.3-15.5,60.2-37.7,86-65.9
			c54.3-59.6,81.5-132.2,92.8-170.2c9.2-30.5,3.5-62.7-15.5-88.2c-15-20.2-36.4-33.6-60.4-38.4l48-25l22.6-11.8
			c12.5-6.5,17.3-21.9,10.8-34.4l-11.8-22.6c-2.1-4-21.6-40.4-59-77.3c-22.8-22.5-47.7-40.6-73.8-53.7
			C391.2,926.6,355.3,918,318.3,918L318.3,918z M270,1481.5c-36.7,0-95-19.8-136.5-63.3c-40.9-42.9-60-101-56.6-172.8
			c4.9-104.8,99.2-250.9,241.4-250.9c45.2,0,87.6,18.9,125.8,56.2c13.7,13.4,24.5,27,32.2,37.7l-45.2,23.6c-5-6.7-11.4-14.4-18.9-22
			c-28.8-29.5-61.3-45-93.9-45c-50.9,0-99,24.8-135.3,69.8c-15.4,19.1-28.5,41.8-37.6,65.5c-9,23.4-14.4,47.9-15.5,70.9
			c-1.4,29.5,1.9,56.1,9.8,79.3c7.1,20.7,17.8,38.7,31.9,53.5c28.7,30,65.6,40.7,88.4,40.7c30.9,0,61.3-9.4,88.1-27.1
			c24.6-16.3,45.6-39.3,60.7-66.5c4.4-7.9,4.3-17.5-0.3-25.3c-4.6-7.8-12.9-12.6-22-12.6H307l20.7-50h98.6h42.1
			c7.5,0,14.4,3.5,18.9,9.5c4.4,6,5.8,13.5,3.6,20.6C476.3,1322.1,417.1,1481.5,270,1481.5L270,1481.5z M215.5,1314.2
			c-7.2-15.2-10.3-35.1-9.1-59.4c1.5-31.3,15-65.7,36.2-91.9c21.5-26.6,48.4-41.3,75.7-41.3c15.1,0,30.7,13.4,38.6,21.3
			c9.1,9.1,15.7,18.6,19.1,23.7h-65.3h-17c-10.3,0-19.6,6.2-23.6,15.7l-6.5,15.7l-41.8,101L215.5,1314.2L215.5,1314.2z"/>
		<g>
			<linearGradient id="SVGID_1_" gradientUnits="userSpaceOnUse" x1="1603.8096" y1="996.0363" x2="1603.8096" y2="1496.4669">
				<stop  offset="0.2309" style="stop-color:#FF2727"/>
				<stop  offset="0.8932" style="stop-color:#FFC600"/>
			</linearGradient>
			<path class="st250" d="M1768.7,996h-213.4c-29.1,0-53.9,21.2-58.2,50l-57.5,383c-5.3,35.4,22.2,67.5,58.2,67.5h33.8h162.1
				l15.1-101h-161.8l14.3-95.6h135.9l14.8-101h-135.7l15.3-102h162.2L1768.7,996z"/>
		</g>
		<g>
			
				<linearGradient id="SVGID_00000057834925873845968850000012662438114756384663_" gradientUnits="userSpaceOnUse" x1="683.1619" y1="994.2778" x2="683.1619" y2="1496.4669">
				<stop  offset="0.2309" style="stop-color:#FF2727"/>
				<stop  offset="0.8932" style="stop-color:#FFC600"/>
			</linearGradient>
			<path style="fill:url(#SVGID_00000057834925873845968850000012662438114756384663_);" d="M754.8,994.3c-28.3,0-56.5,14.9-70,47.1
				l-188.3,455.1h109.3l38.9-94.1H760l8.4,94.1h101.4l-38.4-432.6C827.4,1019.1,791.2,994.3,754.8,994.3z M686.6,1301.4l53.1-128.2
				l11.4,128.2H686.6z"/>
		</g>
		<g>
			
				<linearGradient id="SVGID_00000011744227952510877830000017818809606863440563_" gradientUnits="userSpaceOnUse" x1="1168.5898" y1="996.0363" x2="1168.5898" y2="1497.095">
				<stop  offset="0.2309" style="stop-color:#FF2727"/>
				<stop  offset="0.8932" style="stop-color:#FFC600"/>
			</linearGradient>
			<path style="fill:url(#SVGID_00000011744227952510877830000017818809606863440563_);" d="M1284.7,1035.6l-117.9,247.5
				l-39.8-228.5c-6.8-39.1-38.2-58.5-69.6-58.5c-32,0-63.9,20.1-70,60.2l-66.2,440.3h102l36.3-240.8l34.8,199.2
				c4.8,27.3,27.5,42.2,50.5,42.2c18.1,0,36.3-9.2,45.7-29l92.7-194.7l-33.5,223.1h102.1l63.3-421c7.3-48.2-31-79.4-69.5-79.4
				C1321.8,996,1297.8,1008.1,1284.7,1035.6z"/>
		</g>
		<g>
			
				<linearGradient id="SVGID_00000165195481594607678360000006951105453641544856_" gradientUnits="userSpaceOnUse" x1="284.2572" y1="969.0305" x2="284.2572" y2="1507.0183">
				<stop  offset="0.2309" style="stop-color:#FF2727"/>
				<stop  offset="0.8932" style="stop-color:#FFC600"/>
			</linearGradient>
			<path style="fill:url(#SVGID_00000165195481594607678360000006951105453641544856_);" d="M512.7,1098.3
				c0,0-67.5-129.3-194.3-129.3C160.9,969,57,1126.8,51.4,1244.2C41.9,1445.6,200.8,1507,270,1507c139.2,0,215.7-127.1,245.4-226.5
				c9.4-31.4-14.2-62.9-47-62.9h-42.1H310.7l-41.8,101h117.7c-25.9,46.3-72.2,80.5-126.6,80.5c-27.5,0-110.4-25-104.6-146.8
				c3.9-81.7,68.5-181.9,162.9-181.9c62.7,0,104.4,74.7,104.4,74.7L512.7,1098.3z"/>
		</g>
		<path d="M1555.3,970.5c-20.2,0-39.7,7.2-55,20.4c-15.3,13.2-25.4,31.4-28.4,51.4l-57.5,382.9c-3.6,24.3,3.5,48.9,19.6,67.5
			c16,18.6,39.3,29.3,63.8,29.3h33.8h162.1h22l3.2-21.7l15.1-101l4.4-29.3h-29.6h-132.2l6.7-44.6h114h22l3.2-21.8l14.8-101l4.3-29.2
			H1712h-106.1l7.7-51h140.2h22l3.2-21.8l14.9-100.8l4.3-29.2h-29.6H1555.3z M1753.8,1096.8h-162.2l-15.3,102H1712l-14.8,101h-135.9
			l-14.3,95.6h161.8l-15.1,101h-162.1h-33.8c-35.9,0-63.4-32-58.2-67.5l57.5-383c4.3-28.8,29-50,58.2-50h213.4L1753.8,1096.8z"/>
		<g>
			<polygon points="686.6,1301.4 751.1,1301.4 739.7,1173.1 			"/>
		</g>
		<path d="M1419.6,1004.1c-18.1-21-45.7-33.5-74-33.5c-36.5,0-67.9,20.2-84,54.1l-83.5,175.2l-26.1-149.7
			c-4.3-24.6-16.4-45.3-35.1-59.7c-16.6-12.9-37.8-19.9-59.6-19.9c-22.2,0-43.7,7.3-60.5,20.5c-18.9,14.9-30.9,36.1-34.7,61.3
			L896,1492.7l-0.6,3.7l-0.2-2.2l-38.4-432.6c-2.5-27.5-15-51.9-35.2-68.9c-18.5-15.5-42.2-24-66.8-24c-19.4,0-38.2,5.3-54.2,15.4
			c-17.4,11-31,27.3-39.3,47.3l0,0l0,0l-188.3,455.1l-14.6,35.3h38.2h109.3h17l6.5-15.8l32.4-78.3h74.9l6.3,70.8l2.1,23.2h23.3
			h101.4h21.7h6.1h23.5h102h21.9l3.3-21.7l12.9-85.8l7.8,44.8c3.4,19.2,13,35.4,27.8,47c13.5,10.5,30.4,16.3,47.8,16.3
			c13.9,0,27.5-3.7,39.2-10.7c12.7-7.6,23-19,29.6-32.9l18.9-39.8l-8,53.4l-4.4,29.3h29.6h102.1h22l3.3-21.7l63.3-421
			C1444.5,1051.2,1437.2,1024.5,1419.6,1004.1z M768.5,1496.5l-8.4-94.1H644.7l-38.9,94.1H496.5l188.3-455.1
			c13.4-32.2,41.7-47.1,70-47.1c36.4,0,72.6,24.9,76.6,69.6l38.4,432.6H768.5z M1415.1,1075.4l-63.3,421h-102.1l33.5-223.1
			l-92.7,194.7c-9.4,19.8-27.6,29-45.7,29c-23,0-45.7-14.9-50.5-42.2l-34.8-199.2l-36.3,240.8h-102l66.2-440.3
			c6-40.1,37.9-60.2,70-60.2c31.4,0,62.8,19.5,69.6,58.5l39.8,228.5l117.9-247.5c13.1-27.5,37.1-39.6,60.9-39.6
			C1384.1,996,1422.4,1027.2,1415.1,1075.4z"/>
		<path d="M452.6,1448.2c50.9-55.9,76.5-124.4,87.3-160.3c6.8-22.7,2.6-46.7-11.6-65.7c-14.2-19.1-36-30.1-59.8-30.1h-42.1H310.7
			h-17l-6.5,15.7l-41.8,101l-14.6,35.3h38.2h65.4c-21.3,18.9-47.2,29.5-74.2,29.5c-7.7,0-32-4.5-51.5-24.9
			c-20.3-21.3-29.6-53.3-27.6-95.1c1.7-36.5,17.4-76.4,41.9-106.8c26.4-32.8,60.4-50.8,95.6-50.8c23.2,0,43.6,15.7,56.7,28.9
			c15.6,15.7,25,32,25.5,32.8l12,21.8l22-11.7l89.9-47l22.6-11.8l-11.8-22.6c-0.8-1.5-19.1-36.3-54.3-71
			c-20.9-20.6-43.6-37.2-67.3-49.1c-30.3-15.2-62.4-22.9-95.3-22.9c-41.6,0-81.6,9.9-119.1,29.4c-33.6,17.5-64.1,42.1-90.7,73.1
			c-48.6,56.7-79.5,130.4-82.6,197c-2.1,45.1,3.6,86.7,17,123.6c11.9,32.8,30,62,53.6,86.8c24.8,26,56,47.1,90.4,61.1
			c28.4,11.6,57.9,18,83,18c36.9,0,71.9-8.1,104.2-24.1C402.6,1494.4,429,1474.1,452.6,1448.2z M270,1507
			c-69.2,0-228.1-61.4-218.6-262.8C57,1126.8,160.9,969,318.3,969c126.9,0,194.3,129.3,194.3,129.3l-89.9,47
			c0,0-41.7-74.7-104.4-74.7c-94.5,0-159.1,100.1-162.9,181.9c-5.7,121.8,77.1,146.8,104.6,146.8c54.4,0,100.7-34.2,126.6-80.5
			H268.8l41.8-101h115.7h42.1c32.8,0,56.4,31.5,47,62.9C485.6,1379.9,409.2,1507,270,1507z"/>
	</g>
	<g>
		<g>
			<path class="st0" d="M1794,2120.7l-2.5-27.8l-38.4-432.6c-3.1-34.3-18.8-64.9-44.2-86.2c-23-19.3-52.6-29.9-83.2-29.9
				c-25.4,0-49.8,7.3-70.5,21.2c-20.6,13.8-36.7,33.6-46.6,57.2c0,0,0,0.1,0,0.1l0,0.1l-188.3,455.1l-14.6,35.3
				c-3.3,7.9-2.4,16.8,2.4,23.9c4.7,7.1,12.7,11.3,21.2,11.3h38.2h109.3h17c10.3,0,19.6-6.2,23.6-15.8l6.5-15.8l25.9-62.6h34.6
				l4.3,47.6l2.1,23.2c1.2,13.2,12.2,23.2,25.4,23.2h23.3h101.4h27.9c7.2,0,14-3,18.8-8.3C1792.3,2134.9,1794.7,2127.8,1794,2120.7z
				 M1740.8,2122.9h-101.4h-23.3l-2.1-23.2l-6.3-70.8h-74.9l-32.4,78.3l-6.5,15.8h-17h-109.3h-38.2l14.6-35.3l188.3-455.1l0,0l0,0
				l0,0c16.2-38.7,52-62.8,93.5-62.8c24.6,0,48.4,8.5,66.8,24c20.2,16.9,32.7,41.4,35.2,68.9l38.4,432.6l2.5,27.8H1740.8z"/>
		</g>
		<path class="st0" d="M1410.9,1571.5l-4.3,29.2l-14.9,100.8l-3.2,21.8h-22h-140.2l-7.7,51h106.1h29.5l-4.3,29.2l-14.8,101
			l-3.2,21.8h-22h-114l-6.7,44.6h132.2h29.6l-4.4,29.3l-15.1,101l-3.2,21.7h-22h-162.1h-33.8c-24.5,0-47.8-10.7-63.8-29.3
			c-16-18.6-23.2-43.2-19.6-67.5l57.5-382.9c3-20,13-38.2,28.4-51.4c15.3-13.1,34.8-20.4,55-20.4h213.4H1410.9 M1381.3,1597h-213.4
			c-29.1,0-53.9,21.2-58.2,50l-57.5,383c-5.3,35.4,22.2,67.5,58.2,67.5h33.8h162.1l15.1-101h-161.8l14.3-95.6h135.9l14.8-101h-135.7
			l15.3-102h162.2L1381.3,1597 M1350.9,1970.9L1350.9,1970.9 M1410.9,1546h-29.6h-213.4c-26.3,0-51.7,9.4-71.7,26.5
			c-20,17.2-33.1,41-37,67l-57.5,382.9c-4.7,31.7,4.6,63.7,25.5,87.9c20.9,24.2,51.2,38.1,83.2,38.1h33.8h162.1h22
			c12.6,0,23.4-9.2,25.2-21.7l3.2-21.7l15.1-101l4.3-28.7c0.2-1.4,0.4-2.9,0.4-4.4c0-14.1-11.4-25.5-25.5-25.5h0h-2.2
			c4.4-3.9,7.4-9.2,8.3-15.4l3.2-21.8l14.8-101l4.3-29.2c1.1-7.3-1.1-14.8-5.9-20.4c-4.8-5.6-11.9-8.8-19.3-8.8h-29.5h-76.4l0,0
			h118.3h22c12.6,0,23.4-9.3,25.2-21.8l3.2-21.8l14.9-100.8l4.3-29.2c1.1-7.3-1.1-14.8-5.9-20.4
			C1425.3,1549.2,1418.3,1546,1410.9,1546L1410.9,1546z M1410.9,1597L1410.9,1597L1410.9,1597L1410.9,1597z M1110.3,2071.9
			c-9.8,0-18.8-4.1-25.2-11.6c-6.3-7.4-9.2-17.1-7.7-26.6l57.5-382.9c2.4-16.4,16.3-28.3,33-28.3h183.9l-7.4,49.8h-140.2
			c-12.6,0-23.3,9.2-25.2,21.7l-15.3,102c-1.1,7.3,1,14.8,5.9,20.4c4.8,5.6,11.9,8.9,19.3,8.9H1295l-7.3,50h-113.9
			c-12.6,0-23.4,9.2-25.2,21.7l-14.3,95.6c-1.1,7.3,1.1,14.8,5.9,20.4c4.8,5.6,11.9,8.9,19.3,8.9h132.2l-7.5,50h-140.1H1110.3
			L1110.3,2071.9z"/>
		<path class="st0" d="M814.6,1544.5c32.9,0,65,7.7,95.3,22.9c23.8,11.9,46.4,28.4,67.3,49.1c35.2,34.7,53.5,69.5,54.3,71l11.8,22.6
			l-22.6,11.8l-89.9,47l-22,11.7l-12-21.8c-0.4-0.8-9.8-17-25.5-32.8c-13.1-13.2-33.5-28.9-56.7-28.9c-35.2,0-69.2,18-95.6,50.8
			c-24.5,30.4-40.1,70.3-41.9,106.8c-2,41.9,7.3,73.9,27.6,95.1c19.5,20.4,43.8,24.9,51.5,24.9c27,0,52.9-10.6,74.2-29.5h-65.4
			h-38.2l14.6-35.3l41.8-101l6.5-15.7h17h115.7h42.1c23.8,0,45.6,11,59.8,30.1c14.2,19,18.4,43,11.6,65.7
			c-10.8,35.9-36.4,104.5-87.3,160.3c-23.6,25.9-50,46.2-78.4,60.2c-32.3,16-67.3,24.1-104.2,24.1c-25.1,0-54.6-6.4-83-18
			c-34.4-14-65.6-35.2-90.4-61.1c-23.6-24.7-41.6-53.9-53.6-86.8c-13.4-36.9-19.2-78.5-17-123.6c3.1-66.7,34-140.3,82.6-197
			c26.6-31.1,57.1-55.7,90.7-73.1C732.9,1554.4,773,1544.5,814.6,1544.5 M766.2,2108c139.2,0,215.7-127.1,245.4-226.5
			c9.4-31.4-14.2-62.9-47-62.9h-42.1H806.9l-41.8,101h117.7c-25.9,46.4-72.2,80.5-126.6,80.5c-27.5,0-110.4-25-104.6-146.8
			c3.9-81.7,68.5-181.9,162.9-181.9c62.7,0,104.4,74.7,104.4,74.7l89.9-47c0,0-67.5-129.3-194.3-129.3
			c-157.4,0-261.4,157.8-266.9,275.2C538.1,2046.6,697,2108,766.2,2108 M814.6,1519c-45.7,0-89.7,10.8-130.9,32.2
			c-36.5,19-69.5,45.6-98.3,79.1c-52.2,60.9-85.3,140.3-88.7,212.4c-2.3,48.5,3.9,93.5,18.5,133.6c13.2,36.1,33,68.3,59.1,95.6
			c27.2,28.6,61.6,51.8,99.2,67.1c31.4,12.8,64.3,19.9,92.6,19.9c40.8,0,79.7-9,115.5-26.7c31.3-15.5,60.2-37.7,86-65.9
			c54.3-59.6,81.5-132.2,92.8-170.2c9.2-30.5,3.5-62.7-15.5-88.2c-15-20.2-36.4-33.6-60.4-38.4l48-25l22.6-11.8
			c12.5-6.5,17.3-21.9,10.8-34.4l-11.8-22.6c-2.1-4-21.6-40.5-59-77.3c-22.8-22.5-47.7-40.6-73.8-53.7
			C887.4,1527.6,851.5,1519,814.6,1519L814.6,1519z M766.2,2082.5c-36.7,0-95-19.8-136.5-63.3c-40.9-42.9-60-101-56.6-172.8
			c4.9-104.8,99.2-250.9,241.4-250.9c80.1,0,134.2,60.5,158,94l-45.2,23.6c-5-6.7-11.4-14.4-18.9-22c-28.8-29.5-61.3-45-93.9-45
			c-50.9,0-99,24.8-135.3,69.8c-15.4,19.1-28.5,41.8-37.6,65.5c-9,23.4-14.4,47.9-15.5,70.9c-1.4,29.5,1.9,56.1,9.8,79.3
			c7.1,20.7,17.8,38.7,31.9,53.5c28.7,30,65.6,40.7,88.4,40.7c30.9,0,61.3-9.4,88.1-27.1c24.6-16.3,45.6-39.3,60.7-66.5
			c4.4-7.9,4.3-17.5-0.3-25.3c-4.6-7.8-12.9-12.6-22-12.6h-79.6l20.7-50h98.6h42.1c7.5,0,14.4,3.5,18.9,9.5c4.4,6,5.8,13.5,3.6,20.6
			C972.6,1923.1,913.4,2082.5,766.2,2082.5L766.2,2082.5z M711.7,1915.1c-7.2-15.2-10.3-35.1-9.1-59.4c1.5-31.3,15-65.7,36.2-91.9
			c21.5-26.6,48.4-41.3,75.7-41.3c15.1,0,30.7,13.4,38.6,21.3c9.1,9.1,15.7,18.6,19.1,23.7h-65.3h-17c-10.3,0-19.6,6.2-23.6,15.7
			l-6.5,15.7l-41.8,101L711.7,1915.1L711.7,1915.1z"/>
		<path class="st0" d="M2019.4,1571.5c19.8,0,41.1,5,61.5,14.4c19.5,9,38.3,22.1,54.3,37.9c16.9,16.7,30.4,35.7,40,56.4
			c10.5,22.8,15.9,46.6,15.9,70.8l0,0.4c0.3,21.6-3.4,44.1-10.8,65c-10.6,29.9-28.5,55.7-52.6,75.9c5.8,8.5,10,18.3,12.3,29.2
			l2.2,10l2.9,13.5l0.1,0.3l1.3,6.2l0,0l30.3,140.7l6.7,30.9h-31.6h-104h-20.6l-4.3-20.1l-31.7-146.5c-1.5-7-7.8-12-14.9-12h-24.1
			l-25.4,157.1l-3.5,21.4h-21.7h-102.2h-30l4.8-29.6l72.9-451.1c3.2-19.8,13.4-37.8,28.6-50.7c15.2-12.9,34.6-20.1,54.6-20.1h52.3
			H2019.4 M1799.3,2097.4h102.2l28.9-178.5h45.8c19.2,0,35.8,13.4,39.8,32.2l31.7,146.5h104l-30.3-140.7c0,0,0,0-1.3-6.2l-0.1-0.3
			c-0.9-4.3-2.5-11.5-5.1-23.5c-6.5-30-29-36.7-29-36.7c83.5-46.7,79.5-133.3,79.5-139.1c0-85.5-79.9-154.1-146.1-154.1h-36.9h-52.3
			c-28.9,0-53.4,20.9-58,49.4L1799.3,2097.4 M2019.4,1546h-36.9h-52.3c-26.1,0-51.3,9.3-71.2,26.1c-19.8,16.9-33,40.3-37.2,66
			l-72.9,451.1l-4.8,29.6c-1.2,7.4,0.9,14.9,5.8,20.6c4.8,5.7,11.9,9,19.4,9h30h102.2h21.7c12.5,0,23.2-9.1,25.2-21.4l3.5-21.4
			l19.4-120.1l26.6,122.9l4.3,20.1c2.5,11.7,12.9,20.1,24.9,20.1h20.6h104h31.6c7.7,0,15-3.5,19.8-9.5c4.8-6,6.7-13.9,5.1-21.4
			l-6.7-30.9l-30.3-140.7c0,0,0,0,0,0l-1.3-6.1l-0.1-0.3l-2.9-13.4l-2.2-10c-1.4-6.4-3.3-12.5-5.6-18.4c20.1-20.7,35.2-45,45-72.7
			c8.4-23.7,12.6-49.3,12.3-73.9l0-0.2c0-27.8-6.2-55.2-18.2-81.3c-10.9-23.6-26.1-45.1-45.2-63.9c-18.1-17.8-39.4-32.7-61.5-42.9
			C2067.8,1551.8,2042.9,1546,2019.4,1546L2019.4,1546z M1829.3,2071.9l68.1-421.5c2.6-16.2,16.5-27.9,32.9-27.9h52.3h36.9
			c54.3,0,120.6,59.4,120.6,128.6c0,0.3,0,0.7,0,1.2c0.3,18.2-3.7,80.5-66.5,115.6c-8.9,5-14,14.9-12.9,25.1
			c1.1,9.9,7.9,18.3,17.3,21.4c1.8,0.7,9.3,4.6,12.2,17.9l1.8,8.2l3.3,15.3l0.1,0.3c1,4.5,1.2,5.8,1.3,6.2h0l23.7,109.9h-51.8
			l-27.3-126.3c-3.2-14.7-11.4-28.1-23.1-37.5c-11.7-9.5-26.5-14.7-41.6-14.7h-45.8c-12.5,0-23.2,9.1-25.2,21.4l-25.4,157.1H1829.3
			L1829.3,2071.9z"/>
		<g>
			
				<linearGradient id="SVGID_00000080923285747354972730000016884583918870509714_" gradientUnits="userSpaceOnUse" x1="1216.4246" y1="1597.0089" x2="1216.4246" y2="2097.4395">
				<stop  offset="0.2309" style="stop-color:#FF2727"/>
				<stop  offset="0.8932" style="stop-color:#FFC600"/>
			</linearGradient>
			<path style="fill:url(#SVGID_00000080923285747354972730000016884583918870509714_);" d="M1381.3,1597h-213.4
				c-29.1,0-53.9,21.2-58.2,50l-57.5,383c-5.3,35.4,22.2,67.5,58.2,67.5h33.8h162.1l15.1-101h-161.8l14.3-95.6h135.9l14.8-101
				h-135.7l15.3-102h162.2L1381.3,1597z"/>
		</g>
		<g>
			
				<linearGradient id="SVGID_00000173162750143376776280000016636007081817972151_" gradientUnits="userSpaceOnUse" x1="780.4756" y1="1570.0028" x2="780.4756" y2="2107.9905">
				<stop  offset="0.2309" style="stop-color:#FF2727"/>
				<stop  offset="0.8932" style="stop-color:#FFC600"/>
			</linearGradient>
			<path style="fill:url(#SVGID_00000173162750143376776280000016636007081817972151_);" d="M1008.9,1699.3
				c0,0-67.5-129.3-194.3-129.3c-157.4,0-261.4,157.8-266.9,275.2C538.1,2046.6,697,2108,766.2,2108
				c139.2,0,215.7-127.1,245.4-226.5c9.4-31.4-14.2-62.9-47-62.9h-42.1H806.9l-41.8,101h117.7c-25.9,46.3-72.2,80.5-126.6,80.5
				c-27.5,0-110.4-25-104.6-146.8c3.9-81.7,68.5-181.9,162.9-181.9c62.7,0,104.4,74.7,104.4,74.7L1008.9,1699.3z"/>
		</g>
		<g>
			
				<linearGradient id="SVGID_00000149356916689958802140000010455173191831036585_" gradientUnits="userSpaceOnUse" x1="1982.3978" y1="1597.0088" x2="1982.3978" y2="2097.5654">
				<stop  offset="0.2309" style="stop-color:#FF2727"/>
				<stop  offset="0.8932" style="stop-color:#FFC600"/>
			</linearGradient>
			<path style="fill:url(#SVGID_00000149356916689958802140000010455173191831036585_);" d="M2121.4,1956.8c0,0,0,0-1.3-6.2
				l-0.1-0.3c-0.9-4.3-2.5-11.5-5.1-23.5c-6.5-30-29-36.7-29-36.7c83.5-46.7,79.5-133.3,79.5-139.1c0-85.5-79.9-154.1-146.1-154.1
				h-36.9h-52.3c-28.9,0-53.4,20.9-58,49.4l-72.9,451.1h102.2l28.9-178.5h45.8c19.2,0,35.8,13.4,39.8,32.2l31.7,146.5h104
				L2121.4,1956.8L2121.4,1956.8z M1991.4,1818h-44.6l19.2-120.1h42.1c20,0,39.7,20,44.1,43.8
				C2058.8,1777.3,2031.4,1818,1991.4,1818z"/>
		</g>
		<path d="M1410.9,1571.5h-29.6h-213.4c-20.2,0-39.7,7.2-55,20.4c-15.3,13.2-25.4,31.4-28.4,51.4l-57.5,382.9
			c-3.6,24.3,3.5,48.9,19.6,67.5c16,18.6,39.3,29.3,63.8,29.3h33.8h162.1h22l3.2-21.7l15.1-101l4.4-29.3h-29.6h-132.2l6.7-44.6h114
			h22l3.2-21.8l14.8-101l4.3-29.2h-29.5h-106.1l7.7-51h140.2h22l3.2-21.8l14.9-100.8L1410.9,1571.5z M1366.4,1697.8h-162.2
			l-15.3,102h135.7l-14.8,101h-135.9l-14.3,95.6h161.8l-15.1,101h-162.1h-33.8c-35.9,0-63.4-32-58.2-67.5l57.5-383
			c4.3-28.8,29-50,58.2-50h213.4L1366.4,1697.8z"/>
		<g>
			<polygon points="1557.6,1902.4 1622.2,1902.4 1610.8,1774.1 			"/>
		</g>
		<path d="M1329.3,2122.9h38.2h109.3h17l6.5-15.8l32.4-78.3h74.9l6.3,70.8l2.1,23.2h23.3h101.4h27.9l-2.5-27.8l-38.4-432.6
			c-2.5-27.5-15-51.9-35.2-68.9c-18.5-15.5-42.2-24-66.8-24c-41.5,0-77.3,24.1-93.5,62.8l0,0l0,0l-188.3,455.1L1329.3,2122.9z
			 M1555.7,1642.4c13.4-32.2,41.8-47.1,70-47.1c36.4,0,72.6,24.9,76.6,69.6l38.4,432.6h-101.4l-8.4-94.1h-115.3l-38.9,94.1h-109.3
			L1555.7,1642.4z"/>
		<path d="M948.8,2049.2c50.9-55.9,76.5-124.4,87.3-160.3c6.8-22.7,2.6-46.7-11.6-65.7c-14.2-19.1-36-30.1-59.8-30.1h-42.1H806.9
			h-17l-6.5,15.7l-41.8,101l-14.6,35.3h38.2h65.4c-21.3,18.9-47.2,29.5-74.2,29.5c-7.7,0-32-4.5-51.5-24.9
			c-20.3-21.3-29.6-53.3-27.6-95.1c1.7-36.5,17.4-76.4,41.9-106.8c26.4-32.8,60.4-50.8,95.6-50.8c23.2,0,43.6,15.7,56.7,28.9
			c15.6,15.8,25,32,25.5,32.8l12,21.8l22-11.7l89.9-47l22.6-11.8l-11.8-22.6c-0.8-1.5-19.1-36.3-54.3-71
			c-20.9-20.6-43.6-37.2-67.3-49.1c-30.3-15.2-62.4-22.9-95.3-22.9c-41.6,0-81.6,9.9-119.1,29.4c-33.6,17.5-64.1,42.1-90.7,73.1
			c-48.6,56.7-79.5,130.4-82.6,197c-2.1,45.1,3.6,86.7,17,123.6c11.9,32.8,30,62,53.6,86.8c24.8,26,56,47.1,90.4,61.1
			c28.4,11.6,57.9,18,83,18c36.9,0,71.9-8.1,104.2-24.1C898.8,2095.3,925.2,2075.1,948.8,2049.2z M766.2,2108
			c-69.2,0-228.1-61.4-218.6-262.8c5.5-117.5,109.5-275.2,266.9-275.2c126.9,0,194.3,129.3,194.3,129.3l-89.9,47
			c0,0-41.7-74.7-104.4-74.7c-94.5,0-159.1,100.1-162.9,181.9c-5.7,121.8,77.1,146.8,104.6,146.8c54.4,0,100.7-34.2,126.6-80.5
			H765.1l41.8-101h115.7h42.1c32.8,0,56.4,31.5,47,62.9C981.9,1980.9,905.4,2108,766.2,2108z"/>
		<path d="M1991.2,1956.5l31.7,146.5l4.3,20.1h20.6h104h31.6l-6.7-30.9l-30.3-140.7l0,0l-1.3-6.2l-0.1-0.3l-2.9-13.5l-2.2-10
			c-2.3-10.8-6.5-20.7-12.3-29.2c24-20.2,42-46,52.6-75.9c7.4-20.9,11.1-43.4,10.8-65l0-0.4c0-24.2-5.3-48-15.9-70.8
			c-9.6-20.8-23-39.8-40-56.4c-16-15.8-34.8-28.9-54.3-37.9c-20.4-9.4-41.6-14.4-61.5-14.4h-36.9h-52.3c-20,0-39.4,7.1-54.6,20.1
			c-15.2,12.9-25.3,30.9-28.6,50.7l-72.9,451.1l-4.8,29.6h30h102.2h21.7l3.5-21.4l25.4-157.1h24.1
			C1983.4,1944.5,1989.7,1949.5,1991.2,1956.5z M1930.4,1918.9l-28.9,178.5h-102.2l72.9-451.1c4.6-28.5,29.1-49.4,58-49.4h52.3h36.9
			c66.2,0,146.1,68.6,146.1,154.1c0,5.8,4,92.3-79.5,139.1c0,0,22.6,6.7,29,36.7c2.6,12,4.1,19.2,5.1,23.5l0.1,0.3
			c1.3,6.2,1.3,6.2,1.3,6.2l30.3,140.7h-104l-31.7-146.5c-4-18.7-20.6-32.2-39.8-32.2H1930.4z"/>
		<g>
			<path d="M2008.1,1697.9H1966l-19.2,120.1h44.6c40.1,0,67.5-40.7,60.8-76.2C2047.8,1717.8,2028,1697.9,2008.1,1697.9z
				 M2017.7,1779.4c-4.1,4.9-12.9,13.1-26.3,13.1h-14.7l11.1-69.1h20.3c6,0,16.6,9.6,19,23l0,0l0,0
				C2029.1,1757.3,2025.5,1769.9,2017.7,1779.4z"/>
		</g>
		<path class="st0" d="M2027.1,1746.4L2027.1,1746.4c-2.5-13.4-13.1-23-19-23h-20.3l-11.1,69.1h14.7c13.5,0,22.3-8.2,26.3-13.1
			C2025.5,1769.9,2029.1,1757.3,2027.1,1746.4L2027.1,1746.4z"/>
		<g>
			
				<linearGradient id="SVGID_00000022554966640062114160000006997623965910296495_" gradientUnits="userSpaceOnUse" x1="1554.1149" y1="1595.2504" x2="1554.1149" y2="2097.4395">
				<stop  offset="0.2309" style="stop-color:#FF2727"/>
				<stop  offset="0.8932" style="stop-color:#FFC600"/>
			</linearGradient>
			<path style="fill:url(#SVGID_00000022554966640062114160000006997623965910296495_);" d="M1625.7,1595.3
				c-28.1,0-56.5,14.9-70,47.1l-188.3,455.1h109.3l38.9-94.1H1631l8.4,94.1h101.4l-38.4-432.6
				C1698.3,1620.1,1662.1,1595.3,1625.7,1595.3z M1557.6,1902.4l53.1-128.2l11.4,128.2H1557.6z"/>
		</g>
	</g>
</g>
</svg>
