<?xml version="1.0" encoding="utf-8"?>
<!-- Generator: Adobe Illustrator 25.4.1, SVG Export Plug-In . SVG Version: 6.00 Build 0)  -->
<svg version="1.1" xmlns="http://www.w3.org/2000/svg" xmlns:xlink="http://www.w3.org/1999/xlink" x="0px" y="0px"
	 viewBox="0 0 3839 933.3" style="enable-background:new 0 0 3839 933.3;" xml:space="preserve">
<style type="text/css">
	.st0{fill:#FFFFFF;}
	.st1{fill:#034693;}
</style>
<g id="Layer_1">
	<g>
		<g>
			<g>
				<g>
					<g>
						<path class="st1" d="M2524.7,928.2l57.7-375.5l132.3-111.1h241.7L2938,560.5h-209.3l-10,65H2928l-18.2,118.8h-209.3l-10,65.1
							h209.3l-18.2,118.8H2524.7z M2841.6,881.7l4-25.9h-209.3l7.3-47.7l11.6-75.3l5.4-35.1h209.2l4-25.9h-209.3l7.3-47.7l11.6-75.2
							l3.7-23.7l-61.6,51.7l-46.7,304.7H2841.6z M2898.1,514l4-25.9h-170.8l-30.8,25.9H2898.1z"/>
						<path class="st0" d="M2950.3,446.8l-16.7,108.7h-209.3l-11.6,75.2h209.3l-16.7,108.7h-209.3l-11.6,75.3h209.3l-16.7,108.7
							h-346.6l56.5-367.7l129.4-108.7H2950.3 M2908.1,483h-178.5l-108.8,91.4l-47.9,312.4h273.1l5.6-36.1h-167h-42.3l6.4-41.8
							l11.6-75.3l4.8-30.8h31.1h178.1l5.6-36.1h-167h-42.3l6.4-41.8l11.6-75.2l4.8-30.8h31.2h178.1L2908.1,483 M2962.1,436.6h-11.8
							h-233.9h-3.7l-2.8,2.4l-129.4,108.7l-2.9,2.5l-0.6,3.8l-56.5,367.7l-1.8,11.7h11.8h346.6h8.7l1.3-8.6l16.7-108.7l1.8-11.7
							h-11.8h-197.5l8.5-54.9h200.6h8.7l1.3-8.6l16.7-108.7l1.8-11.7h-11.8h-197.5l8.4-54.8h200.6h8.7l1.3-8.6l16.7-108.7
							L2962.1,436.6L2962.1,436.6z M2733.2,493.2h163l-2.4,15.7h-169.4h-9.9L2733.2,493.2L2733.2,493.2z M2630.2,579.7l49.7-41.8
							l-1.6,10.4l-11.6,75.2l-6.4,41.9l-1.8,11.7h11.8h42.3h155.1l-2.4,15.7H2696h-31.1h-8.7l-1.3,8.6l-4.8,30.8l-11.6,75.3
							l-6.4,41.9l-1.8,11.7h11.8h42.3h155.1l-2.4,15.7h-252.6L2630.2,579.7L2630.2,579.7z"/>
					</g>
					<g>
						<path class="st1" d="M1524.3,928.2l57.7-375.5l132.3-111.1h241.7l-18.2,118.8h-209.3l-10,65h209.3l-18.2,118.8h-209.3
							l-10,65.1h209.3l-18.2,118.8H1524.3z M1841.2,881.7l4-25.9h-209.3l7.3-47.7l11.6-75.3l5.4-35.1h209.1l4-25.9h-209.3l7.3-47.7
							l11.6-75.2l3.7-23.6l-61.5,51.6l-46.7,304.7H1841.2z M1897.7,514l4-25.9H1731l-30.8,25.9H1897.7z"/>
						<path class="st0" d="M1950,446.8l-16.7,108.7H1724l-11.6,75.2h209.3l-16.7,108.7h-209.3l-11.6,75.3h209.3l-16.7,108.7h-346.6
							l56.5-367.7l129.4-108.7H1950 M1572.5,886.8h273.1l5.6-36.1h-167h-42.3l6.4-41.8l11.6-75.3l4.8-30.8h31h178.1l5.6-36.1h-167
							H1670l6.4-41.8l11.6-75.2l4.8-30.8h31.2H1902l5.6-36.1h-178.4l-108.8,91.4L1572.5,886.8 M1961.8,436.6H1950h-233.9h-3.7
							l-2.8,2.4l-129.4,108.7l-2.9,2.5l-0.6,3.8l-56.5,367.7l-1.8,11.7h11.8h346.6h8.7l1.3-8.6l16.7-108.7l1.8-11.7h-11.8H1696
							l8.5-54.9h200.6h8.7l1.3-8.6l16.7-108.7l1.8-11.7h-11.8h-197.5l8.4-54.8h200.6h8.7l1.3-8.6l16.7-108.7L1961.8,436.6
							L1961.8,436.6z M1732.9,493.2h162.9l-2.4,15.7h-169.4h-9.8L1732.9,493.2L1732.9,493.2z M1629.9,579.7l49.6-41.7l-1.6,10.3
							l-11.6,75.2l-6.4,41.9l-1.8,11.7h11.8h42.4h155.1l-2.4,15.7h-169.4h-31h-8.7l-1.3,8.6l-4.8,30.8l-11.6,75.3l-6.4,41.9
							l-1.8,11.7h11.8h42.3h155.1l-2.4,15.7h-252.6L1629.9,579.7L1629.9,579.7z"/>
					</g>
					<g>
						<path class="st1" d="M1105.1,928.2l56.5-367.7h-75L1030,928.2H882.5l57.7-375.5l132.3-111.1h475.4l-74.7,486.5h-147.6
							l56.5-367.6h-73l-56.5,367.7H1105.1z M1433.1,881.6l60.5-393.8h-404.8l-30.9,26h157.5l-7.3,47.7L1159,881.5h53.5l51.1-332.6
							l5.4-35.1h167.1l-7.3,47.7l-49.2,320.1H1433.1z M989.7,881.4l51.1-332.6l3.7-23.9L983,576.8l-46.7,304.7H989.7z"/>
						<path class="st0" d="M1541.9,446.8l-73.1,476.3h-137.3l56.5-367.6h-83.3l-56.5,367.7H1111l56.5-367.7h-85.3l-56.5,367.7H888.4
							l56.5-367.7l129.4-108.7H1541.9 M930.3,886.5h63.8l51.8-336.9l4.8-30.8h31.2h85.3h42.3l-6.4,41.8L1153,886.6h63.8l51.8-336.9
							l4.8-30.8h31.2h83.3h42.3l-6.4,41.8l-50.1,325.9h63.8l62.1-403.7v-0.3H1087l-108.8,91.4L930.3,886.5 M1553.7,436.6h-11.8
							h-467.7h-3.7l-2.8,2.4L938.3,547.6l-2.9,2.5l-0.6,3.8l-56.5,367.7l-1.8,11.7h11.8h137.3h8.7l1.3-8.6l55.1-359.1h64.8
							l-54.7,356l-1.8,11.7h11.8h137.2h8.7l1.3-8.6l55.1-359.1h62.7l-54.7,355.9l-1.8,11.7h11.8h137.3h8.7l1.3-8.6l73.1-476.3
							L1553.7,436.6L1553.7,436.6z M1090.7,492.9h397l-59,383.7h-43.2l48.3-314.2l6.4-41.8l1.8-11.7h-11.8h-42.3h-83.3h-31.2h-8.7
							l-1.3,8.6l-4.8,30.8l-50.5,328.3h-43.2l48.3-314.2l6.4-41.8l1.8-11.7h-11.8h-42.3h-85.3h-10L1090.7,492.9L1090.7,492.9z
							 M987.7,579.4l49.8-41.8l-1.6,10.5l-50.5,328.3h-43.2L987.7,579.4L987.7,579.4z"/>
					</g>
					<g>
						<path class="st1" d="M2086.5,928.2l57.7-375.5l132.3-111.1h166.8l92.8,118.8h-245.5l-27.2,176.9l133.1-111.8h123.4
							l-46.4,302.6H2086.5z M2433.6,881.7l32.3-209.7h-52.5l-30.9,25.9h25.8l-7.3,47.7l-11.6,75.2l-5.4,35.1h-186l7.3-47.7
							l39.8-259.1l3.7-23.6l-61.5,51.6l-46.7,304.7H2433.6z M2344.2,809.4l10-65h-91.9l-10,65H2344.2z M2440.8,514l-20.2-25.9
							h-127.3l-30.8,25.9H2440.8z"/>
						<path class="st0" d="M2440.8,446.8l84.9,108.7h-239.5l-39.8,259.1h102.2l11.6-75.2H2269l129.4-108.7H2514l-44.9,292.5h-376.7
							l56.5-367.7l129.4-108.7H2440.8 M2134.7,886.8H2438l33.8-219.9h-60.2l-43,36.1h33.8l-6.4,41.8l-11.6,75.2l-4.8,30.8h-31.2
							h-102.2H2204l6.4-41.8l39.8-259.1l4.8-30.8h31.2h165L2423,483h-131.6l-108.8,91.4L2134.7,886.8 M2445.8,436.6h-5h-162.5h-3.7
							l-2.8,2.4l-129.4,108.7l-2.9,2.5l-0.6,3.8l-56.5,367.7l-1.8,11.7h11.8h376.7h8.7l1.3-8.6l44.9-292.5l1.8-11.7H2514h-115.7
							h-3.7l-2.8,2.4l-121.3,101.9l24.5-159.2h230.8h20.8l-12.8-16.4l-84.9-108.7L2445.8,436.6L2445.8,436.6z M2295.1,493.2h123
							l12.3,15.7h-144.2h-9.8L2295.1,493.2L2295.1,493.2z M2192.1,579.7l49.6-41.7l-1.6,10.3l-39.8,259.1l-6.4,41.8l-1.8,11.7h11.8
							h42.3h102.2h31.2h8.7l1.3-8.6l4.8-30.8l11.6-75.2l6.4-41.9l1.8-11.7h-11.8h-5.9l18.8-15.7h44.7l-30.7,199.6h-282.7
							L2192.1,579.7L2192.1,579.7z M2266.7,749.5h2.3h79.4l-8.4,54.8h-81.6L2266.7,749.5L2266.7,749.5z"/>
					</g>
					<g>
						<path class="st1" d="M5.9,928.1l57.7-375.4l132.3-111.1h166.8l92.8,118.7H210l-27.2,176.9l133.1-111.8h123.4l-46.4,302.6H5.9z
							 M353.1,881.7L385.3,672h-52.5L302,697.9h25.8l-7.3,47.7l-11.6,75.2l-5.4,35.1h-186l7.3-47.7l39.8-259.1l3.7-23.6l-61.5,51.6
							L60.1,881.7H353.1z M263.6,809.3l10-65h-91.9l-10,65H263.6z M360.2,514L340,488.1H212.7L181.9,514H360.2z"/>
						<path class="st0" d="M360.2,446.8l84.9,108.6H205.6l-39.8,259.1H268l11.6-75.2h-91.2l129.4-108.7h115.7l-44.9,292.5H11.8
							l56.5-367.6l129.4-108.7H360.2 M54.2,886.8h303.3l33.8-219.9H331l-43,36.1h33.8l-6.4,41.8L303.9,820l-4.8,30.8H268H165.8
							h-42.3l6.4-41.8l39.8-259.1l4.8-30.8h31.2h165L342.5,483H210.9l-108.8,91.4L54.2,886.8 M365.1,436.6h-5H197.7H194l-2.8,2.4
							L61.8,547.6l-2.9,2.5l-0.6,3.8L1.8,921.5L0,933.2h11.8h376.7h8.7l1.3-8.6l44.9-292.5l1.8-11.7h-11.8H317.7H314l-2.8,2.4
							L189.9,724.7l24.5-159.2h230.8h20.8l-12.8-16.4l-84.9-108.6L365.1,436.6L365.1,436.6z M214.6,493.2h123l12.3,15.7H205.6h-9.8
							L214.6,493.2L214.6,493.2z M111.6,579.7l49.6-41.7l-1.6,10.3l-39.8,259.1l-6.4,41.8l-1.8,11.7h11.8h42.3H268h31.2h8.7l1.3-8.6
							l4.8-30.8l11.6-75.2l6.4-41.9l1.8-11.7h-11.8H316l18.8-15.7h44.7l-30.7,199.6H66L111.6,579.7L111.6,579.7z M186.1,749.4h2.3
							h79.4l-8.4,54.8h-81.6L186.1,749.4L186.1,749.4z"/>
					</g>
				</g>
				<g>
					<path class="st1" d="M2932.8,928.1l29.6-192.6l131.1-110.1h125.3l10-65h-247.5l141.5-118.8h271.8l-74.9,486.5H2932.8z
						 M3280.1,881.7l60.5-393.6l-200.6,0.1l-30.9,25.9h174.1l-7.3,47.7l-11.6,75.2l-5.4,35.1h-148.2l-17.7,14.8h10.3v11h151.6
						l-7.3,47.7l-4.4,28.4l-15.6,107.8H3280.1z M3179.5,881.7l4-26h-139l7.3-47.7l9-58.5h-20.3v-18.7l-34.7,29.1l-18.7,121.7H3179.5
						z M3190.6,809.3l10-65h-91.9l-10,65H3190.6z"/>
					<path class="st0" d="M3388.7,446.8l-73.3,476.3h-376.7l28.4-184.8l128.3-107.7h127.8l11.6-75.2h-239.5l129.4-108.7H3388.7
						 M3095.1,519.2h139.7h42.3l-6.4,41.8l-11.6,75.2l-4.8,30.8h-31.2h-114.6l-29.8,25h19.2v11h6.2h102.2h42.3l-6.4,41.8l-4.5,29
						l0,0l-16.3,113h62.7l62.1-403.8l-208.4,0.1L3095.1,519.2 M2981.2,886.8h202.7l5.5-36.2h-96.6h-42.3l6.4-41.8l9.9-64.3h-21.2
						V720l-44.5,37.4L2981.2,886.8 M3092.8,814.4H3195l11.6-75.2h-102.2L3092.8,814.4 M3400.6,436.6h-11.8h-264.1h-3.7l-2.8,2.4
						l-129.4,108.7l-21.4,17.9h27.9h227.6l-8.4,54.8h-119h-3.7l-2.8,2.4l-128.3,107.7l-2.9,2.5l-0.6,3.8l-28.4,184.8l-1.8,11.7h11.8
						h376.7h8.7l1.3-8.6l73.3-476.3L3400.6,436.6L3400.6,436.6z M3141.8,493.3l192.9-0.1l-58.9,383.5h-42.3l14.7-101.4l0.1-0.6
						l4.4-28.3l6.4-41.9l1.8-11.7h-11.8h-42.3h-98.2v-0.8v-10.2h-1.4l5.6-4.7h110.9h31.2h8.7l1.3-8.6l4.8-30.8l11.6-75.2l6.4-41.9
						l1.8-11.7h-11.8h-42.3H3123L3141.8,493.3L3141.8,493.3z M3010.6,762.6l24.9-20.9v2.7v10.2h10.2h9.3l-8.1,52.6l-6.4,41.9
						l-1.8,11.7h11.8h42.3h84.8l-2.4,15.8H2993L3010.6,762.6L3010.6,762.6z M3113.1,749.4h81.6l-8.4,54.8h-81.6L3113.1,749.4
						L3113.1,749.4z"/>
				</g>
				<g>
					<path class="st1" d="M3610.8,928.2l28.2-183.8h-91.9l-28.2,183.8h-147.6l57.7-375.5l132.3-111.1h271.8l-28.4,185.2l-75.5,63.4
						l54.9,70.8l-25.7,167.2H3610.8z M3718.5,881.7l16.6-108.1l-44.6-57.6l-4.5,29.4L3665,881.7H3718.5z M3479,881.6l22.8-148.7
						l5.4-35.1h151.1v-25.9h-147.2l7.3-47.7l11.6-75.2l3.7-23.8l-61.5,51.7l-46.7,304.7H3479z M3714.8,634v7.5l46.6-39.1l17.5-114.3
						h-200.7l-30.9,26h174.2l-7.3,47.7L3703,634H3714.8z M3657.3,625.5l10-65h-91.9l-10,65H3657.3z"/>
					<path class="st0" d="M3827.2,446.8l-27.2,177.4l-77.8,65.3l56.6,72.9L3754,923.2h-137.3l28.2-183.8h-102.2l-28.2,183.8h-137.3
						l56.5-367.7l129.4-108.7H3827.2 M3419.6,886.7h63.8l23.5-153l4.8-30.8h31.2H3645h42.4l0.5-3.3h-24.4v-32.7h-1.8h-102.2h-42.3
						l6.4-41.8l11.6-75.2l4.8-30.8h31.2h102.2h42.3l-6.4,41.8l-11.6,75.2l-0.5,3h12.6v13.3l56.4-47.4l18.7-122.1h-208.5l-108.8,91.4
						L3419.6,886.7 M3559.5,630.6h102.2l11.6-75.2H3571L3559.5,630.6 M3659.1,886.8h63.8l17.6-114.6l-47-60.6l-6.2-8l0-0.1l0,0
						l-6.3,41.2L3659.1,886.8 M3839,436.6h-11.8h-264.1h-3.7l-2.8,2.4l-129.4,108.7l-2.9,2.5l-0.6,3.8l-56.5,367.7l-1.8,11.7h11.8
						h137.3h8.7l1.3-8.6l26.9-175.2h81.6l-26.4,172.1l-1.8,11.7h11.8H3754h8.7l1.3-8.6l24.7-160.8l0.7-4.3l-2.7-3.5l-50.6-65.2
						l70.3-59l2.9-2.5l0.6-3.8l27.2-177.4L3839,436.6L3839,436.6z M3580,493.1h193l-16.3,106.6l-36.8,30.9v-1.6h-10.2h-0.8
						l10.2-66.5l6.4-41.9l1.8-11.7h-11.8h-42.3H3571h-9.9L3580,493.1L3580,493.1z M3477,579.6l49.7-41.7l-1.6,10.4l-11.6,75.2
						l-6.4,41.9l-1.8,11.7h11.8h42.3h93.9v15.7h-8.3h-102.2h-31.2h-8.7l-1.3,8.6l-4.8,30.8l-22.1,144.4h-43.2L3477,579.6L3477,579.6
						z M3579.7,565.6h81.6l-8.4,54.8h-81.6L3579.7,565.6L3579.7,565.6z M3670.9,876.6l20-130.4l2.7-17.7l36.1,46.5l-15.6,101.6
						H3670.9L3670.9,876.6z"/>
				</g>
				<g>
					<path class="st1" d="M444,928.1l29.6-192.6l131.1-110.1h125.3l10-65H492.6l141.5-118.8h271.8l-74.8,486.5H444z M790.3,880.5
						l60.1-391.3H651.5l-28.1,23.6h172.2l-7.5,49l-11.6,75.2L771,673H622.2l-15.9,13.3v11.4H766l-7.3,47.7l-11.6,75.2l-5.4,35.1
						h-186L563,808l11.3-73.3h-17.7v-6.6l-38.5,32.4l-18.4,120H790.3z M701.8,809.3l10-65H620l-10,65H701.8z"/>
					<path class="st0" d="M900,446.8l-73.2,476.3H450l28.4-184.8l128.3-107.7h127.8l11.6-75.2H506.5l129.4-108.7H900 M609.4,517.8
						H746h43.7l-6.6,43.2l-11.6,75.2l-4.9,31.8h-32.1H620.4L594,690.1h7.3v12.8h14.3h102.2h42.4l-6.4,41.8l-11.6,75.2l-4.8,30.8
						h-31.2H604h-42.3l6.4-41.8l11.6-75.2l0.6-4h-18.6v-12.5l-48.3,40.6l-19.6,127.8h300.9l61.6-401.5H649.6L609.4,517.8 M604,814.4
						h102.2l11.6-75.2H615.6L604,814.4 M911.8,436.6H900H635.9h-3.7l-2.8,2.4L500,547.6l-21.4,17.9h27.9h227.6l-8.4,54.8h-119H603
						l-2.8,2.4L471.9,730.4l-2.9,2.5l-0.6,3.8l-28.4,184.8l-1.8,11.7H450h376.8h8.7l1.3-8.6L910,448.3L911.8,436.6L911.8,436.6z
						 M653.3,494.3h191.1l-58.5,381.1H505.6l17.2-112.3l28.7-24.1v0.8h10.2h6.7L558,807.3l-6.4,41.9l-1.8,11.7h11.8H604h102.2h31.2
						h8.7l1.3-8.6l4.8-30.8l11.6-75.2l6.4-41.9l1.8-11.7h-11.8h-42.4H615.6h-4.2v-2.6v-1.4l12.7-10.6h110.5h32.1h8.7l1.3-8.6
						l4.9-31.8l11.6-75.1l6.6-43.2l1.8-11.7h-11.8H746H637.3L653.3,494.3L653.3,494.3z M624.3,749.4h81.6l-8.4,54.8h-81.6
						L624.3,749.4L624.3,749.4z"/>
				</g>
			</g>
		</g>
		<g>
			<path class="st0" d="M3576.3,482.9l-108.8,91.4l-47.9,312.4h63.8l23.5-153l4.8-30.8h31.2H3645h42.4l5.6-36.4l5.9-5l67.3-56.6
				l18.7-122.1H3576.3z M3682,650.7l-145.9-6.8l14.9-112.8l143.8,7.8L3682,650.7z"/>
			<path class="st0" d="M3138.1,483.1l-43,36.1h139.7h42.3l-6.4,41.8l-11.6,75.2l-4.8,30.8h-31.2h-114.6l-107.7,90.4l-19.9,129.5
				h303.3l62.1-403.8L3138.1,483.1z M3215.3,835.3l-143.6-4.7l13.3-109.4l137.7,8.5L3215.3,835.3z"/>
			<path class="st0" d="M649.6,484.1l-40.2,33.7H746h43.7l-6.6,43.2l-11.6,75.2l-4.9,31.8h-32.1H620.4l-107,89.9l-19.6,127.8h300.9
				l61.6-401.5H649.6z M711.2,836.4H577.4L604,729.7h125L711.2,836.4z"/>
			<g>
				<g>
					<g>
						<g>
							<g>
								<g>
									<path class="st1" d="M3673.2,555.4l-11.6,75.2h-102.2l11.6-75.2H3673.2 M3715.6,519.1h-42.3H3571h-31.2l-4.8,30.8
										l-11.6,75.2l-6.4,41.8h42.3h102.2h31.2l4.8-30.8l11.6-75.2L3715.6,519.1L3715.6,519.1z"/>
								</g>
							</g>
							<g>
								<path class="st1" d="M3206.5,739.2l-11.6,75.2h-102.2l11.6-75.2H3206.5 M3248.9,702.9h-42.3h-102.2h-31.2l-4.8,30.8
									l-11.6,75.2l-6.4,41.8h42.3H3195h31.2l4.8-30.8l11.6-75.2L3248.9,702.9L3248.9,702.9z"/>
							</g>
							<g>
								<path class="st1" d="M717.8,739.2l-11.6,75.2H604l11.6-75.2H717.8 M760.1,702.9h-42.3H615.6h-31.2l-4.8,30.8l-11.6,75.2
									l-6.4,41.8H604h102.2h31.2l4.8-30.8l11.6-75.2L760.1,702.9L760.1,702.9z"/>
							</g>
							<path class="st1" d="M856.3,484.1l-61.6,401.5H493.7l19.6-127.8l107-89.9h114.2h32.1l4.9-31.8l11.6-75.2l6.6-43.2H746H609.4
								l40.2-33.7H856.3 M900,446.8H635.9L506.5,555.4H746l-11.6,75.2H606.7L478.4,738.2L450,923.1h376.8L900,446.8L900,446.8z"/>
							<g>
								<path class="st1" d="M2933.7,555.4l16.7-108.7h-233.9L2587,555.4l-56.5,367.7h346.6l16.7-108.7h-209.3l11.6-75.3h209.3
									l16.7-108.7h-209.3l11.6-75.2H2933.7z M2712.8,666.8h167l-5.6,36.1H2696h-31.1l-4.8,30.8l-11.6,75.3l-6.4,41.8h42.3h167
									l-5.6,36.1h-273.1l47.9-312.4l108.8-91.4h178.5l-5.6,36.1h-178.1h-31.2l-4.8,30.8l-11.6,75.2l-6.4,41.8H2712.8z"/>
								<path class="st1" d="M1586.7,555.4l-56.5,367.7h346.6l16.7-108.7h-209.3l11.6-75.3h209.3l16.7-108.7h-209.3l11.6-75.2h209.3
									l16.7-108.7h-233.9L1586.7,555.4z M1907.6,483l-5.6,36.1h-178.1h-31.2l-4.8,30.8l-11.6,75.2l-6.4,41.8h42.3h167l-5.6,36.1
									h-178.1h-31l-4.8,30.8l-11.6,75.3l-6.4,41.8h42.3h167l-5.6,36.1h-273.1l47.9-312.4l108.8-91.4H1907.6z"/>
								<path class="st1" d="M1074.2,446.8L944.8,555.4l-56.5,367.7h137.3l56.5-367.7h85.3L1111,923.2h137.2l56.5-367.7h83.3
									l-56.5,367.6h137.3l73.1-476.3H1074.2z M1437.5,886.7h-63.8l50.1-325.9l6.4-41.8h-42.3h-83.3h-31.2l-4.8,30.8l-51.8,336.9
									H1153l50.1-325.9l6.4-41.8h-42.3h-85.3h-31.2l-4.8,30.8l-51.8,336.9h-63.8l47.9-312.4l108.8-91.4h412.5v0.3L1437.5,886.7z"
									/>
								<path class="st1" d="M2246.4,814.5l39.8-259.1h239.5l-84.9-108.7h-162.5l-129.4,108.7l-56.5,367.7h376.7l44.9-292.5h-115.7
									L2269,739.3h91.2l-11.6,75.2H2246.4z M2368.6,703l43-36.1h60.2L2438,886.8h-303.3l47.9-312.4l108.8-91.4H2423l28.1,36.1
									h-165h-31.2l-4.8,30.8l-39.8,259.1l-6.4,41.8h42.3h102.2h31.2l4.8-30.8l11.6-75.2l6.4-41.8H2368.6z"/>
								<path class="st1" d="M165.8,814.4l39.8-259.1h239.5l-84.9-108.6H197.7L68.3,555.4L11.8,923.1h376.7l44.9-292.5H317.7
									L188.3,739.2h91.2L268,814.4H165.8z M288.1,703l43-36.1h60.2l-33.8,219.9H54.2l47.9-312.4L210.9,483h131.6l28.1,36.1h-165
									h-31.2l-4.8,30.8l-39.8,259.1l-6.4,41.8h42.3H268h31.2l4.8-30.8l11.6-75.2l6.4-41.8H288.1z"/>
								<path class="st1" d="M3124.7,446.8l-129.4,108.7h239.5l-11.6,75.2h-127.8l-128.3,107.7l-28.4,184.8h376.7l73.3-476.3H3124.7
									z M3284.4,886.8h-303.3l19.9-129.5l107.7-90.4h114.6h31.2l4.8-30.8l11.6-75.2l6.4-41.8h-42.3h-139.7l43-36.1l208.4-0.1
									L3284.4,886.8z"/>
								<polygon class="st1" points="693.6,896.8 731.1,899 746.7,790 710.7,785.6 								"/>
								<path class="st1" d="M3827.2,446.8h-264.1l-129.4,108.7l-56.5,367.7h137.3l28.2-183.8H3645l-28.2,183.8H3754l24.7-160.8
									l-56.6-72.9l77.8-65.3L3827.2,446.8z M3740.4,772.2l-17.6,114.6h-63.8l21.8-142.1l6.3-41.2l0,0l0,0.1l6.2,8L3740.4,772.2z
									 M3766.1,605l-67.3,56.6l-5.9,5l-5.6,36.4H3645h-102.2h-31.2l-4.8,30.8l-23.5,153h-63.8l47.9-312.4l108.8-91.4h208.5
									L3766.1,605z"/>
							</g>
						</g>
					</g>
				</g>
				<g>
					<path class="st0" d="M2310.4,57.4C2299.8,23.9,2268.3,0,2232,0c-36.4,0-67.8,23.9-78.4,57.4l-27.7,82.2V4.8h-145.2
						c-25.8,0-49.7,10.6-67.8,27.7V4.8h-149.1c-27.7,0-52.6,11.5-70.7,30.6V4.8h-141.5c-60.2,0-109.9,49.7-109.9,109.9
						c0,28.6,11.5,55.5,29.7,74.5h-29.7v128.1h141.5c40.1,0,74.5-21,94.7-53.5c16.2,31.6,48.7,53.5,86.9,53.5h150v-27.7
						c17.2,17.2,41.1,27.7,67.8,27.7h414.8L2310.4,57.4z"/>
					<g>
						<g>
							<path class="st1" d="M1583.1,212.2h-119.4v37.3h119.4c23,0,42-19.1,42-42s-19.1-42-42-42h-30.6c-27.7,0-50.7-23-50.7-50.7
								s23-50.7,50.7-50.7h118.5V26.7h-119.4c-48.7,0-87.9,39.2-87.9,87.9s39.2,87.9,87.9,87.9h30.6c2.8,0,4.8,1.9,4.8,4.8
								C1586.9,210.2,1585.1,212.2,1583.1,212.2z"/>
							<path class="st1" d="M1551.6,110.9H1671V72.6h-119.4c-23,0-42,19.1-42,42s19.1,42,42,42h30.6c27.7,0,50.7,23,50.7,50.7
								s-23,50.7-50.7,50.7h-118.5v37.3H1583c48.7,0,87.9-39.2,87.9-87.9s-39.2-87.9-87.9-87.9h-30.6c-2.8,0-4.8-1.9-4.8-4.8
								C1547.8,112.7,1549.7,110.9,1551.6,110.9z"/>
						</g>
						<g>
							<path class="st1" d="M1980.6,72.6c-16.2,0-28.6,12.4-28.6,28.6v119.4c0,16.2,12.4,28.6,28.6,28.6h77.4v-84.1h-59.2v37.3h21.9
								v8.6h-21.9c-4.8,0-8.6-3.9-8.6-8.6v-84.1c0-4.8,3.9-8.6,8.6-8.6h106V72.6H1980.6z"/>
							<path class="st1" d="M2215.7,249.4h86.9l-59.2-175.8c-1.9-4.8-5.7-8.6-11.5-8.6c-4.8,0-9.5,3.9-11.5,7.6L2144,295.2h44
								l26.7-79.3v33.4h1V249.4z M2231.1,169.1l12.4,38.2h-25.8L2231.1,169.1z"/>
							<path class="st1" d="M2289.3,65.9c-7.6-24.9-30.6-44-58.3-44c-27.7,0-50.7,18.2-57.4,43l-69.8,204.5v-150h-105.1v37.3h68.8
								V258h-86c-21,0-37.3-17.2-37.3-37.3V101.3c0-21,17.2-37.3,37.3-37.3h123.3V26.7h-124.2c-41.1,0-74.5,33.4-74.5,74.5v119.4
								c0,41.1,33.4,74.5,74.5,74.5h153.9l77.4-224.5c2.8-8.6,10.6-14.3,20.1-14.3c9.5,0,17.2,5.7,20.1,14.3l63.1,187.3h-99.4v37.3
								h151l0,0L2289.3,65.9z"/>
						</g>
						<g>
							<path class="st1" d="M1763.7,258.1c-21,0-37.3-17.2-37.3-37.3V101.3c0-21,17.2-37.3,37.3-37.3h128.1V26.7h-128.1
								c-41.1,0-74.5,33.4-74.5,74.5v119.4c0,41.1,33.4,74.5,74.5,74.5h128.1V258h-128.1V258.1z"/>
							<path class="st1" d="M1772.3,203.5h92.7v-37.3h-130v55.5c0,16.2,12.4,28.6,28.6,28.6h128.1v-37.3h-110.9
								C1776.2,212.2,1772.3,208.3,1772.3,203.5z"/>
							<path class="st1" d="M1865.1,119.4h-92.7c0-4.8,3.9-8.6,8.6-8.6h109.9V72.6h-127c-16.2,0-28.6,12.4-28.6,28.6v55.5h130
								C1865.1,156.7,1865.1,119.4,1865.1,119.4z"/>
						</g>
					</g>
				</g>
			</g>
			<polygon class="st0" points="1670,666.8 1676.4,625 1687.9,549.8 1692.7,519.1 1723.9,519.1 1902,519.1 1907.6,483 1907.6,483 
				1729.2,483 1620.4,574.4 1572.5,886.8 1845.6,886.8 1851.2,850.8 1684.2,850.8 1641.8,850.8 1648.2,808.9 1659.8,733.7 
				1664.6,702.9 1695.6,702.9 1873.7,702.9 1879.3,666.8 1712.3,666.8 			"/>
			<polygon class="st0" points="930.3,886.5 994.1,886.5 1045.9,549.6 1050.7,518.9 1081.9,518.9 1167.2,518.9 1209.5,518.9 
				1203.1,560.7 1153,886.6 1216.8,886.6 1268.6,549.7 1273.4,519 1304.6,519 1387.8,519 1430.2,519 1423.8,560.8 1373.7,886.7 
				1437.5,886.7 1499.6,483 1499.6,482.7 1087,482.7 978.3,574.1 			"/>
			<polygon class="st0" points="331,666.9 288.1,703 321.9,703 315.5,744.8 303.9,820 299.1,850.8 268,850.8 165.8,850.8 
				123.4,850.8 129.8,808.9 169.7,549.8 174.4,519.1 205.6,519.1 370.6,519.1 342.5,483 342.5,483 210.9,483 102.1,574.4 
				54.2,886.8 357.4,886.8 391.3,666.9 			"/>
			<polygon class="st0" points="2411.6,666.9 2368.6,703 2402.4,703 2396,744.8 2384.4,820 2379.7,850.8 2348.5,850.8 2246.3,850.8 
				2204,850.8 2210.4,808.9 2250.2,549.8 2254.9,519.1 2286.1,519.1 2451.2,519.1 2423,483 2423,483 2291.4,483 2182.6,574.4 
				2134.7,886.8 2438,886.8 2471.8,666.9 			"/>
			<polygon class="st0" points="2688.4,549.8 2693.2,519.1 2724.3,519.1 2902.5,519.1 2908.1,483 2908.1,483 2729.5,483 
				2620.8,574.4 2572.8,886.8 2845.9,886.8 2851.5,850.8 2684.5,850.8 2642.2,850.8 2648.6,808.9 2660.2,733.7 2664.9,702.9 
				2696,702.9 2874.1,702.9 2879.7,666.8 2712.8,666.8 2670.4,666.8 2676.8,625 			"/>
			<polygon class="st0" points="3687.2,703.6 3687.2,703.5 3687.2,703.5 3680.9,744.7 3659.1,886.8 3722.9,886.8 3740.4,772.2 
				3693.4,711.6 			"/>
		</g>
	</g>
</g>
<g id="Layer_2">
</g>
</svg>
