<?xml version="1.0" encoding="utf-8"?>
<!-- Generator: Adobe Illustrator 25.4.1, SVG Export Plug-In . SVG Version: 6.00 Build 0)  -->
<svg version="1.1" id="Layer_1" xmlns="http://www.w3.org/2000/svg" xmlns:xlink="http://www.w3.org/1999/xlink" x="0px" y="0px"
	 viewBox="0 0 3839 502.5" style="enable-background:new 0 0 3839 502.5;" xml:space="preserve">
<style type="text/css">
	.st0{fill:#FFFFFF;}
	.st1{fill:#912620;}
	.st2{fill:#008471;}
	.st3{fill:#005090;}
	.st4{fill:#B22D2A;}
	.st5{fill:#B32D2A;}
	.st6{fill:#B42D2A;}
	.st7{fill:#B52D2A;}
	.st8{fill:#B62D2A;}
	.st9{fill:#B72D29;}
	.st10{fill:#B82D29;}
	.st11{fill:#B92D29;}
	.st12{fill:#BA2D29;}
	.st13{fill:#BB2D29;}
	.st14{fill:#BC2D29;}
	.st15{fill:#BD2D29;}
	.st16{fill:#BE2D29;}
	.st17{fill:#BF2D29;}
	.st18{fill:#C02D29;}
	.st19{fill:#C12D28;}
	.st20{fill:#C22D28;}
	.st21{fill:#C32D28;}
	.st22{fill:#C42D28;}
	.st23{fill:#C52D28;}
	.st24{fill:#C62D28;}
	.st25{fill:#C72D28;}
	.st26{fill:#C82D28;}
	.st27{fill:#C92D28;}
	.st28{fill:#CA2D28;}
	.st29{fill:#CA2E27;}
	.st30{fill:#CB2E27;}
	.st31{fill:#CC2E27;}
	.st32{fill:#CD2E27;}
	.st33{fill:#CE2E27;}
	.st34{fill:#CF2E27;}
	.st35{fill:#D02E27;}
	.st36{fill:#D12E27;}
	.st37{fill:#D22E27;}
	.st38{fill:#D32E27;}
	.st39{fill:#D42E26;}
	.st40{fill:#D52E26;}
	.st41{fill:#D62E26;}
	.st42{fill:#D72E26;}
	.st43{fill:#D82E26;}
	.st44{fill:#D92E26;}
	.st45{fill:#DA2E26;}
	.st46{fill:#DB2E26;}
	.st47{fill:#DC2E26;}
	.st48{fill:#DD2E26;}
	.st49{fill:#DE2E25;}
	.st50{fill:#DF2E25;}
	.st51{fill:#E02E25;}
	.st52{fill:#E12E25;}
	.st53{fill:#E22E25;}
	.st54{fill:#009588;}
	.st55{fill:#009587;}
	.st56{fill:#019486;}
	.st57{fill:#019485;}
	.st58{fill:#019384;}
	.st59{fill:#029383;}
	.st60{fill:#029382;}
	.st61{fill:#029281;}
	.st62{fill:#039280;}
	.st63{fill:#03917F;}
	.st64{fill:#03917E;}
	.st65{fill:#03917D;}
	.st66{fill:#04907C;}
	.st67{fill:#04907B;}
	.st68{fill:#048F7A;}
	.st69{fill:#058F79;}
	.st70{fill:#058F78;}
	.st71{fill:#058E77;}
	.st72{fill:#068E76;}
	.st73{fill:#068D75;}
	.st74{fill:#068D74;}
	.st75{fill:#078D73;}
	.st76{fill:#078C72;}
	.st77{fill:#078C71;}
	.st78{fill:#088B70;}
	.st79{fill:#088B6F;}
	.st80{fill:#088B6E;}
	.st81{fill:#088A6D;}
	.st82{fill:#098A6C;}
	.st83{fill:#09896B;}
	.st84{fill:#09896A;}
	.st85{fill:#0A8969;}
	.st86{fill:#0A8868;}
	.st87{fill:#0A8867;}
	.st88{fill:#0B8766;}
	.st89{fill:#0B8765;}
	.st90{fill:#0B8764;}
	.st91{fill:#0C8663;}
	.st92{fill:#0C8662;}
	.st93{fill:#0C8561;}
	.st94{fill:#0D8560;}
	.st95{fill:#0D845F;}
	.st96{fill:#0D845E;}
	.st97{fill:#0E835D;}
	.st98{fill:#0E835C;}
	.st99{fill:#0E835B;}
	.st100{fill:#0F825A;}
	.st101{fill:#0F8259;}
	.st102{fill:#0F8158;}
	.st103{fill:#108157;}
	.st104{fill:#108156;}
	.st105{fill:#108055;}
	.st106{fill:#118054;}
	.st107{fill:#117F53;}
	.st108{fill:#117F52;}
	.st109{fill:#117F51;}
	.st110{fill:#127E50;}
	.st111{fill:#127E4F;}
	.st112{fill:#127D4E;}
	.st113{fill:#137D4D;}
	.st114{fill:#137D4C;}
	.st115{fill:#137C4B;}
	.st116{fill:#147C4A;}
	.st117{fill:#147B49;}
	.st118{fill:#147B48;}
	.st119{fill:#157B47;}
	.st120{fill:#157A46;}
	.st121{fill:#157A45;}
	.st122{fill:#167944;}
	.st123{fill:#167943;}
	.st124{fill:#167942;}
	.st125{fill:#167841;}
	.st126{fill:#177840;}
	.st127{fill:#17773F;}
	.st128{fill:#17773E;}
	.st129{fill:#18773D;}
	.st130{fill:#18763C;}
	.st131{fill:#18763B;}
	.st132{fill:#19753A;}
	.st133{fill:#197539;}
	.st134{fill:#005EAA;}
	.st135{fill:#005EAB;}
	.st136{fill:#015FAC;}
	.st137{fill:#015FAD;}
	.st138{fill:#0160AE;}
	.st139{fill:#0260AF;}
	.st140{fill:#0261B0;}
	.st141{fill:#0261B1;}
	.st142{fill:#0362B2;}
	.st143{fill:#0362B3;}
	.st144{fill:#0362B4;}
	.st145{fill:#0463B5;}
	.st146{fill:#0463B6;}
	.st147{fill:#0464B7;}
	.st148{fill:#0564B8;}
	.st149{fill:#0565B9;}
	.st150{fill:#0565BA;}
	.st151{fill:#0666BB;}
	.st152{fill:#0666BC;}
	.st153{fill:#0666BD;}
	.st154{fill:#0767BE;}
	.st155{fill:#0767BF;}
	.st156{fill:#0768BF;}
	.st157{fill:#0768C0;}
	.st158{fill:#0869C1;}
	.st159{fill:#0869C2;}
	.st160{fill:#0869C3;}
	.st161{fill:#096AC4;}
	.st162{fill:#096AC5;}
	.st163{fill:#096BC6;}
	.st164{fill:#0A6BC7;}
	.st165{fill:#0A6CC8;}
	.st166{fill:#0A6CC9;}
	.st167{fill:#0B6DCA;}
	.st168{fill:#0B6DCB;}
	.st169{fill:#0B6DCC;}
	.st170{fill:#0C6ECD;}
	.st171{fill:#0C6ECE;}
	.st172{fill:#0C6FCF;}
	.st173{fill:#0D6FD0;}
	.st174{fill:#0D70D1;}
	.st175{fill:#0D70D2;}
	.st176{fill:#0E71D3;}
	.st177{fill:#0E71D4;}
	.st178{fill:#0058B7;}
	.st179{fill:#0058B6;}
	.st180{fill:#0057B5;}
	.st181{fill:#0057B4;}
	.st182{fill:#0057B3;}
	.st183{fill:#0057B2;}
	.st184{fill:#0056B1;}
	.st185{fill:#0056B0;}
	.st186{fill:#0056AF;}
	.st187{fill:#0056AE;}
	.st188{fill:#0055AD;}
	.st189{fill:#0055AC;}
	.st190{fill:#0055AB;}
	.st191{fill:#0055AA;}
	.st192{fill:#0054A9;}
	.st193{fill:#0054A8;}
	.st194{fill:#0054A7;}
	.st195{fill:#0054A6;}
	.st196{fill:#0053A5;}
	.st197{fill:#0053A4;}
	.st198{fill:#0053A3;}
	.st199{fill:#0053A2;}
	.st200{fill:#0052A1;}
	.st201{fill:#0052A0;}
	.st202{fill:#00529F;}
	.st203{fill:#00529E;}
	.st204{fill:#00519D;}
	.st205{fill:#00519C;}
	.st206{fill:#00519B;}
	.st207{fill:#00519A;}
	.st208{fill:#005099;}
	.st209{fill:#005098;}
	.st210{fill:#005097;}
	.st211{fill:#005096;}
	.st212{fill:#004F95;}
	.st213{fill:#004F94;}
	.st214{fill:#004F93;}
	.st215{fill:#004F92;}
	.st216{fill:#004E91;}
	.st217{fill:#004E90;}
	.st218{fill:#004E8F;}
	.st219{fill:#004E8E;}
	.st220{fill:#004D8D;}
	.st221{fill:#004D8C;}
	.st222{fill:#004D8B;}
	.st223{fill:#004D8A;}
	.st224{fill:#004C89;}
	.st225{fill:#004C88;}
	.st226{fill:#008472;}
	.st227{fill:#008572;}
	.st228{fill:#008671;}
	.st229{fill:#008771;}
	.st230{fill:#008871;}
	.st231{fill:#008970;}
	.st232{fill:#008A70;}
	.st233{fill:#008B6F;}
	.st234{fill:#008C6F;}
	.st235{fill:#008D6F;}
	.st236{fill:#008E6E;}
	.st237{fill:#008F6E;}
	.st238{fill:#00906D;}
	.st239{fill:#00916D;}
	.st240{fill:#00926D;}
	.st241{fill:#00936C;}
	.st242{fill:#00946C;}
	.st243{fill:#00956B;}
	.st244{fill:#00966B;}
	.st245{fill:#00976B;}
	.st246{fill:#00986A;}
	.st247{fill:#00996A;}
	.st248{fill:#D60700;}
	.st249{fill:#034693;}
	.st250{fill:url(#SVGID_1_);}
	.st251{fill:url(#SVGID_00000047041993604686955990000011603417057799641788_);}
	.st252{fill:url(#SVGID_00000112597257570817510760000002976813267085338502_);}
	.st253{fill:url(#SVGID_00000182526685517137064590000013975674466561428105_);}
	.st254{fill:url(#SVGID_00000131357153664545744320000010348459739057882018_);}
	.st255{fill:url(#SVGID_00000106858415020407957560000005555826722154907309_);}
	.st256{fill:url(#SVGID_00000031912046027285946270000012931782757645682099_);}
	.st257{fill:url(#SVGID_00000078043683895852940180000017782236649756893569_);}
	.st258{fill:url(#SVGID_00000064329386373733355820000003974825037939704451_);}
	.st259{fill:url(#SVGID_00000053513047527894852820000001668606092751161533_);}
	.st260{fill:url(#SVGID_00000065074152241327985710000007728659485253616260_);}
	.st261{fill:url(#SVGID_00000030474040207881996940000018436950504997006778_);}
	.st262{fill:url(#SVGID_00000118371924713503367200000012204077317392846499_);}
	.st263{fill:url(#SVGID_00000116211568079775728850000008814150944527351959_);}
	.st264{fill:url(#SVGID_00000074425780303249166100000007567142080019030708_);}
	.st265{fill:url(#SVGID_00000178192633084300959730000007473864659614235285_);}
	.st266{fill:url(#SVGID_00000050659007749302146180000007049322988510859701_);}
	.st267{fill:url(#SVGID_00000000935155701158258080000001199890794454604701_);}
	.st268{fill:url(#SVGID_00000047040144482453659780000011699909936322465161_);}
	.st269{fill:url(#SVGID_00000124159188217355956010000001076678736386065291_);}
	.st270{fill:url(#SVGID_00000044897863041474360710000007474520940624863645_);}
	.st271{fill:url(#SVGID_00000018202460301387671440000007741509495576520601_);}
	.st272{fill:url(#SVGID_00000161619446191726252530000015375236257345728437_);}
	.st273{fill:url(#SVGID_00000011745198051335254400000008178454719508298120_);}
	.st274{fill:url(#SVGID_00000151544621073252394380000013936942049770031751_);}
	.st275{fill:url(#SVGID_00000178905242922270663060000014243323824705044382_);}
	.st276{fill:url(#SVGID_00000176041320705461620390000004869123959044936080_);}
	.st277{fill:url(#SVGID_00000132794627688575328620000010822424151730729628_);}
	.st278{fill:url(#SVGID_00000017493442539373106190000013406282586160695724_);}
	.st279{fill:url(#SVGID_00000104697916864678892020000013558638117128209548_);}
	.st280{fill:url(#SVGID_00000111899985267739903730000010446751267703379589_);}
	.st281{fill:url(#SVGID_00000091010193369119207680000013430271181647631777_);}
	.st282{fill:url(#SVGID_00000103248117797100218250000016458006924630792586_);}
	.st283{fill:url(#SVGID_00000108292847446690974800000015369033854305214865_);}
	.st284{fill:url(#SVGID_00000146479276596810644720000014606239909398236858_);}
	.st285{fill:url(#SVGID_00000068650120546403319700000005198424731393357985_);}
	.st286{fill:url(#SVGID_00000180340301689299068320000006830926705360637573_);}
	.st287{fill:url(#SVGID_00000096030143609361468860000017136256096602573214_);}
	.st288{fill:url(#SVGID_00000158006587413144966260000007492369425618323611_);}
	.st289{fill:url(#SVGID_00000066511385417280931890000011436291676197953692_);}
	.st290{fill:url(#SVGID_00000018953255738613076310000005476506671206354581_);}
	.st291{fill:url(#SVGID_00000117670312358471717120000007303691737034478725_);}
	.st292{fill:url(#SVGID_00000170277137425190028510000008078307709814417806_);}
	.st293{fill:url(#SVGID_00000066510151465056946900000016392450342889104791_);}
	.st294{fill:url(#SVGID_00000067214323870864443000000001495395637672886659_);}
	.st295{fill:url(#SVGID_00000181795858804517771120000012840280030371421064_);}
	.st296{fill:url(#SVGID_00000023245126528317537300000001747496922981882005_);}
	.st297{fill:url(#SVGID_00000120521710771819546560000001205811051054130604_);}
	.st298{fill:url(#SVGID_00000063595561030281436070000002722421565650558650_);}
	.st299{fill:url(#SVGID_00000127729003543775774330000005979574007459067545_);}
	.st300{fill:url(#SVGID_00000124141595227620601970000015241318231348321179_);}
	.st301{fill:url(#SVGID_00000085231957296063018260000014974885404225615769_);}
	.st302{fill:url(#SVGID_00000111172275821691791750000005565100099399075974_);}
	.st303{fill:url(#SVGID_00000100369202395929135330000007253837548587634844_);}
	.st304{fill:url(#SVGID_00000109019375984744280630000008064341970596628378_);}
	.st305{fill:url(#SVGID_00000088846863392916480080000015794632708590241690_);}
	.st306{fill:url(#SVGID_00000176023796143371265820000008576008240889085572_);}
	.st307{fill:url(#SVGID_00000130642954398797393960000008197414115602845880_);}
	.st308{fill:url(#SVGID_00000145058643975010101460000003089692409023874472_);}
	.st309{fill:url(#SVGID_00000144336195553644234830000014977562903659307436_);}
	.st310{fill:url(#SVGID_00000180341825259298516080000016355422799791652539_);}
	.st311{fill:url(#SVGID_00000020390625607460104640000016436188744694924969_);}
	.st312{fill:url(#SVGID_00000143587311622249741520000012409613508967073208_);}
	.st313{fill:url(#SVGID_00000150096986612145013890000010737420873721114538_);}
	.st314{fill:url(#SVGID_00000071532857164873289280000007421383988944691344_);}
	.st315{fill:url(#SVGID_00000049926698569733705340000005487905496871668655_);}
	.st316{fill:url(#SVGID_00000140737325970098802660000007813330183860767625_);}
	.st317{fill:url(#SVGID_00000102535650904678454740000011021970613966258086_);}
	.st318{fill:url(#SVGID_00000023255492851736382400000011893295246677812612_);}
	.st319{fill:url(#SVGID_00000028326442352487581870000005567370497466338724_);}
	.st320{fill:url(#SVGID_00000038410218740060922990000004296906708482040226_);}
	.st321{fill:url(#SVGID_00000139260987148575108550000014284312132868468651_);}
	.st322{fill:url(#SVGID_00000169523578691618204110000009068126111333716639_);}
	.st323{fill:url(#SVGID_00000152266224615008527470000010554613006259815809_);}
	.st324{fill:url(#SVGID_00000173858420874383377600000009660707229509712055_);}
	.st325{fill:url(#SVGID_00000111885871830887454190000014378263590691172491_);}
	.st326{fill:url(#SVGID_00000073713404913889996450000011716823115335516828_);}
	.st327{fill:url(#SVGID_00000037688732709616022980000001251371131121534623_);}
	.st328{fill:url(#SVGID_00000044894465233298485460000016013203586647372986_);}
	.st329{fill:url(#SVGID_00000093889597248490144380000016969319044584767664_);}
	.st330{fill:url(#SVGID_00000091703114824957945200000006069795665221701507_);}
	.st331{fill:url(#SVGID_00000027576821903109173150000014883996892513443969_);}
	.st332{fill:url(#SVGID_00000129196723421413821400000014018740856541511554_);}
	.st333{fill:url(#SVGID_00000088849795550519267080000008149005887608400275_);}
	.st334{fill:url(#SVGID_00000051369637356323085950000005067932070827763126_);}
	.st335{fill:url(#SVGID_00000089562931606541085460000011516608020912410025_);}
	.st336{fill:url(#SVGID_00000083776210204108565700000004286468837781437624_);}
	.st337{fill:url(#SVGID_00000004514345585211590000000011806337892260126646_);}
	.st338{fill:url(#SVGID_00000021831370984147238110000010020964649167518384_);}
	.st339{fill:url(#SVGID_00000101824696908232033130000005496017271223741326_);}
	.st340{fill:url(#SVGID_00000134954302593644057980000008733126905547646903_);}
	.st341{fill:url(#SVGID_00000016761975759320425450000002645600089685319824_);}
	.st342{fill:url(#SVGID_00000122695367570986617140000005551670024819516845_);}
	.st343{fill:url(#SVGID_00000023961708887667788690000001175463257722600588_);}
	.st344{fill:url(#SVGID_00000170276945908306917170000007560588347280989826_);}
	.st345{fill:url(#SVGID_00000042713430837882905850000015716760114959770554_);}
	.st346{fill:#034693;stroke:#FFFFFF;stroke-width:25.205;stroke-miterlimit:10;}
	.st347{fill:url(#SVGID_00000067947349677966663890000004033800140499423164_);}
	.st348{fill:url(#SVGID_00000090990452423582745010000017218950082487333793_);}
	.st349{fill:url(#SVGID_00000167398168551386472240000016968186892679812756_);}
	.st350{fill:url(#SVGID_00000091016479916437738790000012004678464816122794_);}
	.st351{fill:url(#SVGID_00000017505858571974615120000009069250972564351872_);}
	.st352{fill:url(#SVGID_00000004531863003139399630000012633721396525000872_);}
	.st353{fill:url(#SVGID_00000070116267985607406850000001688947176423018139_);}
	.st354{fill:url(#SVGID_00000104678846710711045160000011037658525141847979_);}
</style>
<rect y="22.6" width="1.1" height="0.2"/>
<rect y="22.6" width="1.1" height="0.2"/>
<g>
	<g>
		<path class="st0" d="M3507.3,472.5l-1.9-21.8L3475.2,111c-2.4-26.9-14.7-50.9-34.7-67.7c-18.1-15.2-41.3-23.5-65.3-23.5
			c-20,0-39.1,5.8-55.3,16.6c-16.2,10.9-28.8,26.4-36.6,45c0,0,0,0.1,0,0.1l0,0l-147.8,357.3l-11.5,27.7c-2.6,6.2-1.9,13.2,1.9,18.8
			c3.7,5.6,10,8.9,16.6,8.9h30h85.8h13.4c8.1,0,15.4-4.9,18.5-12.4l5.1-12.4l20.3-49.1h27.1l3.3,37.4l1.6,18.2
			c0.9,10.3,9.6,18.2,19.9,18.2h18.3h79.6h21.9c5.6,0,11-2.4,14.8-6.5C3505.9,483.6,3507.8,478.1,3507.3,472.5z M3465.5,474.2h-79.6
			h-18.3l-1.6-18.2l-5-55.6h-58.8l-25.5,61.5l-5.1,12.4h-13.4h-85.8h-30l11.5-27.7l147.8-357.3l0,0l0,0l0,0
			c12.7-30.4,40.8-49.3,73.4-49.3c19.3,0,38,6.7,52.5,18.8c15.9,13.3,25.7,32.5,27.6,54.1l30.2,339.7l1.9,21.8H3465.5z"/>
	</g>
	<path class="st248" d="M74.6,492.5c-11.9,0-22.5-2.8-31.7-8.4c-28.3-17.2-38.8-58.3-29.6-115.5c8.7-54.2,34-117.6,71.2-178.7
		C116.1,138,153,93.3,191.1,60.6C229.6,27.5,265.7,10,295.3,10c11.9,0,22.5,2.8,31.7,8.4c28.3,17.2,38.8,58.3,29.6,115.5
		c-8.7,54.2-34,117.6-71.2,178.7c-31.7,51.9-68.6,96.6-106.6,129.3C140.2,475,104.2,492.5,74.6,492.5z"/>
	<path class="st0" d="M295.3,20c9.8,0,18.8,2.3,26.5,7c50.8,31,30.7,156.5-44.9,280.4c-64.1,105-147.5,175.2-202.3,175.2
		c-9.8,0-18.8-2.3-26.5-7c-50.8-31-30.7-156.5,44.9-280.4C157.1,90.1,240.4,20,295.3,20 M295.3,0L295.3,0c-32,0-70.3,18.3-110.7,53
		c-38.9,33.4-76.4,78.9-108.7,131.7C38,246.8,12.2,311.6,3.4,367c-4.5,28.3-4.5,53,0.1,73.5c5.4,23.8,17.2,41.8,34.1,52.1
		c10.8,6.6,23.2,9.9,36.9,9.9c32,0,70.3-18.3,110.7-53c38.9-33.4,76.4-78.9,108.7-131.7c37.9-62.1,63.6-126.8,72.5-182.3
		c4.5-28.3,4.5-53-0.1-73.5c-5.4-23.8-17.2-41.8-34.1-52.1C321.4,3.3,309,0,295.3,0L295.3,0z"/>
	<path class="st239" d="M401.2,492.5c-11.9,0-22.5-2.8-31.7-8.4c-28.3-17.2-38.8-58.3-29.6-115.5c8.7-54.2,34-117.6,71.2-178.7
		c31.7-51.9,68.6-96.6,106.6-129.3C556.3,27.5,592.3,10,621.9,10c11.9,0,22.5,2.8,31.7,8.4c28.3,17.2,38.8,58.3,29.6,115.5
		c-8.7,54.2-34,117.6-71.2,178.7c-31.7,51.9-68.6,96.6-106.6,129.3C466.9,475,430.8,492.5,401.2,492.5z"/>
	<path class="st0" d="M621.9,20c9.8,0,18.8,2.3,26.5,7c50.8,31,30.7,156.5-44.9,280.4c-64.1,105-147.5,175.2-202.3,175.2
		c-9.8,0-18.8-2.3-26.5-7c-50.8-31-30.7-156.5,44.9-280.4C483.7,90.1,567.1,20,621.9,20 M621.9,0L621.9,0c-32,0-70.3,18.3-110.7,53
		c-38.9,33.4-76.4,78.9-108.7,131.7C364.7,246.8,338.9,311.6,330,367c-4.5,28.3-4.5,53,0.1,73.5c5.4,23.8,17.2,41.8,34.1,52.1
		c10.8,6.6,23.2,9.9,36.9,9.9c32,0,70.3-18.3,110.7-53c38.9-33.4,76.4-78.9,108.7-131.7c37.9-62.1,63.6-126.8,72.5-182.3
		c4.5-28.3,4.5-53-0.1-73.5c-5.4-23.8-17.2-41.8-34.1-52.1C648.1,3.3,635.7,0,621.9,0L621.9,0z"/>
	<path class="st249" d="M727.9,492.5c-11.9,0-22.5-2.8-31.7-8.4c-28.3-17.2-38.8-58.3-29.6-115.5c8.7-54.2,34-117.6,71.2-178.7
		c31.7-51.9,68.6-96.6,106.6-129.3C883,27.5,919,10,948.6,10c11.9,0,22.5,2.8,31.7,8.4c14.4,8.8,24.2,23.6,29.2,44
		c14.2,58.3-13.6,156.5-70.8,250.1c-31.7,51.9-68.6,96.6-106.6,129.3C793.5,475,757.5,492.5,727.9,492.5z"/>
	<path class="st0" d="M948.6,20c9.8,0,18.8,2.3,26.5,7c50.8,30.9,30.7,156.5-44.9,280.4c-64.1,105-147.5,175.2-202.3,175.2
		c-9.8,0-18.8-2.3-26.5-7c-50.8-31-30.7-156.5,44.9-280.4C810.4,90.1,893.8,20,948.6,20 M948.6,0L948.6,0c-32,0-70.3,18.3-110.7,53
		c-38.9,33.4-76.4,78.9-108.7,131.7c-37.9,62.1-63.6,126.8-72.5,182.3c-4.5,28.3-4.5,53,0.1,73.5c5.4,23.8,17.2,41.8,34.1,52.1
		c10.8,6.6,23.2,9.9,36.9,9.9c32,0,70.3-18.3,110.7-53c38.9-33.4,76.4-78.9,108.7-131.7c28.6-46.9,50.5-95.8,63.3-141.2
		c13-46,15.9-86.3,8.6-116.4c-5.5-22.8-17.2-40.2-33.7-50.2C974.8,3.3,962.3,0,948.6,0L948.6,0z"/>
	<path class="st0" d="M3206.4,41.2l-3.4,23l-11.7,79.1l-2.5,17.1h-17.3h-110.1l-6,40.1h83.3h23.2l-3.4,22.9l-11.6,79.3l-2.5,17.1
		H3127h-89.5l-5.2,35h103.8h23.2l-3.4,23l-11.8,79.3l-2.5,17.1h-17.3H2997h-26.5c-19.3,0-37.5-8.4-50.1-23
		c-12.6-14.6-18.2-33.9-15.4-53l45.2-300.7c2.3-15.7,10.2-30,22.3-40.4c12-10.3,27.4-16,43.2-16h167.6H3206.4 M3183.2,61.3h-167.6
		c-22.9,0-42.3,16.7-45.7,39.3l-45.2,300.7c-4.1,27.8,17.5,53,45.7,53h26.5h127.3l11.8-79.3H3009l11.2-75.1H3127l11.6-79.3h-106.5
		l12-80.1h127.4L3183.2,61.3 M3159.3,354.9L3159.3,354.9 M3206.4,21.2h-23.2h-167.6c-20.6,0-40.6,7.4-56.3,20.8
		c-15.7,13.5-26,32.2-29,52.6l-45.2,300.6c-3.7,24.9,3.6,50,20,69c16.4,19,40.2,29.9,65.3,29.9h26.5h127.3h17.3
		c9.9,0,18.3-7.3,19.8-17.1l2.5-17.1l11.8-79.3l3.4-22.5c0.2-1.1,0.3-2.3,0.3-3.4c0-11.1-9-20-20-20h0h-1.7c3.4-3,5.8-7.3,6.5-12.1
		l2.5-17.1l11.6-79.3l3.4-22.9c0.8-5.8-0.9-11.6-4.7-16c-3.8-4.4-9.3-6.9-15.2-6.9h-23.2h-60l0,0h92.9h17.3
		c9.9,0,18.4-7.3,19.8-17.1l2.5-17.1l11.7-79.1l3.4-23c0.9-5.8-0.8-11.6-4.6-16C3217.8,23.7,3212.2,21.2,3206.4,21.2L3206.4,21.2z
		 M3206.4,61.3L3206.4,61.3L3206.4,61.3L3206.4,61.3z M2970.4,434.2c-7.7,0-14.7-3.2-19.8-9.1c-5-5.8-7.2-13.4-6.1-20.9l45.2-300.7
		c1.9-12.9,12.8-22.2,25.9-22.2H3160l-5.8,39.1h-110.1c-9.9,0-18.3,7.2-19.8,17.1l-12,80.1c-0.9,5.8,0.8,11.6,4.6,16
		c3.8,4.4,9.3,7,15.2,7h83.4l-5.8,39.3h-89.4c-9.9,0-18.3,7.3-19.8,17.1l-11.2,75.1c-0.9,5.8,0.8,11.6,4.6,16c3.8,4.4,9.3,7,15.2,7
		h103.8l-5.9,39.3h-110H2970.4L2970.4,434.2z"/>
	<path class="st0" d="M2738.2,20c25.9,0,51,6.1,74.8,18c18.7,9.4,36.5,22.3,52.9,38.5c27.6,27.3,42,54.6,42.6,55.7l9.3,17.7
		l-17.7,9.3l-70.6,36.9l-17.3,9.2l-9.4-17.1c-0.3-0.6-7.7-13.4-20-25.8c-10.3-10.4-26.3-22.7-44.5-22.7c-27.6,0-54.3,14.2-75.1,39.9
		c-19.2,23.8-31.5,55.2-32.9,83.8c-1.6,32.9,5.7,58,21.7,74.7c15.3,16,34.4,19.6,40.5,19.6c21.2,0,41.5-8.3,58.3-23.2h-51.3h-30
		l11.5-27.7l32.8-79.3l5.1-12.4h13.4h90.8h33c18.7,0,35.8,8.6,47,23.6c11.1,15,14.4,33.8,9.1,51.6c-8.4,28.2-28.6,82-68.5,125.9
		c-18.5,20.3-39.2,36.2-61.6,47.3c-25.3,12.5-52.9,18.9-81.8,18.9c-19.7,0-42.9-5-65.2-14.1c-27-11-51.5-27.6-71-48
		c-18.5-19.4-32.7-42.4-42.1-68.1c-10.5-29-15-61.6-13.4-97.1c2.5-52.3,26.7-110.2,64.9-154.7c20.9-24.4,44.8-43.7,71.2-57.4
		C2674.1,27.8,2705.5,20,2738.2,20 M2700.2,462.5c109.3,0,169.4-99.8,192.7-177.8c7.4-24.7-11.1-49.4-36.9-49.4h-33h-90.8
		l-32.8,79.3h92.4c-20.3,36.4-56.7,63.2-99.4,63.2c-21.6,0-86.7-19.6-82.1-115.2c3-64.2,53.8-142.8,127.9-142.8
		c49.2,0,82,58.7,82,58.7l70.6-36.9c0,0-53-101.5-152.6-101.5c-123.6,0-205.2,123.9-209.6,216.1
		C2521.1,414.3,2645.8,462.5,2700.2,462.5 M2738.2,0c-35.9,0-70.5,8.5-102.8,25.3c-28.6,14.9-54.6,35.8-77.2,62.1
		c-41,47.8-67,110.2-69.7,166.8c-1.8,38.1,3.1,73.4,14.6,104.9c10.3,28.4,25.9,53.6,46.4,75.1c21.4,22.4,48.3,40.7,77.9,52.7
		c24.7,10.1,50.5,15.6,72.7,15.6c32.1,0,62.6-7.1,90.7-21c24.6-12.2,47.3-29.6,67.5-51.8c42.6-46.8,64-103.8,72.9-133.6
		c7.2-24,2.7-49.2-12.2-69.3c-11.8-15.9-28.6-26.4-47.4-30.1l37.7-19.7l17.7-9.3c9.8-5.1,13.6-17.2,8.5-27l-9.3-17.7
		c-1.7-3.2-17-31.8-46.3-60.7c-17.9-17.7-37.4-31.9-58-42.2C2795.4,6.8,2767.2,0,2738.2,0L2738.2,0z M2700.2,442.5
		c-28.8,0-74.6-15.6-107.2-49.7c-32.1-33.7-47.1-79.3-44.4-135.7c3.9-82.3,77.9-197,189.6-197c62.9,0,105.4,47.5,124,73.8
		l-35.5,18.5c-4-5.3-8.9-11.3-14.8-17.3c-22.6-23.1-48.1-35.4-73.8-35.4c-40,0-77.7,19.5-106.2,54.8c-12.1,15-22.3,32.8-29.5,51.4
		c-7.1,18.4-11.3,37.6-12.2,55.7c-1.1,23.1,1.5,44.1,7.7,62.2c5.5,16.3,14,30.4,25,42c22.5,23.6,51.5,32,69.4,32
		c24.2,0,48.2-7.4,69.2-21.3c19.3-12.8,35.8-30.9,47.7-52.2c3.5-6.2,3.4-13.8-0.2-19.9c-3.6-6.1-10.2-9.9-17.3-9.9h-62.5l16.3-39.2
		h77.5h33c5.9,0,11.3,2.7,14.9,7.5c3.5,4.7,4.5,10.6,2.9,16.2C2862.2,317.3,2815.7,442.5,2700.2,442.5L2700.2,442.5z M2657.4,311.1
		c-5.7-12-8.1-27.6-7.2-46.6c1.2-24.6,11.8-51.6,28.5-72.2c16.9-20.9,38-32.4,59.5-32.4c11.9,0,24.1,10.5,30.3,16.8
		c7.1,7.2,12.4,14.6,15,18.6h-51.3h-13.4c-8.1,0-15.4,4.9-18.5,12.4l-5.1,12.4l-32.8,79.3L2657.4,311.1L2657.4,311.1z"/>
	<path class="st0" d="M3684.2,41.2c15.6,0,32.2,3.9,48.3,11.3c15.3,7.1,30.1,17.4,42.6,29.8c13.3,13.1,23.8,28,31.4,44.3
		c8.3,17.9,12.5,36.6,12.5,55.6l0,0.3c0.3,17-2.7,34.6-8.5,51c-8.3,23.5-22.4,43.7-41.3,59.6c4.5,6.7,7.8,14.4,9.7,22.9l1.7,7.8
		l2.3,10.6l0.1,0.2l1,4.8l0,0l23.8,110.5l5.2,24.2h-24.8h-81.7h-16.2l-3.4-15.8l-24.9-115c-1.2-5.5-6.1-9.4-11.7-9.4h-19l-20,123.3
		l-2.7,16.8h-17h-80.3h-23.5l3.8-23.2l57.2-354.2c2.5-15.5,10.5-29.7,22.4-39.8c11.9-10.2,27.2-15.8,42.9-15.8h41H3684.2
		 M3511.4,454.2h80.3l22.7-140.2h36c15.1,0,28.1,10.6,31.3,25.2l24.9,115h81.7l-23.8-110.5c0,0,0,0-1-4.9l0-0.2
		c-0.7-3.4-1.9-9-4-18.4c-5.1-23.5-22.8-28.8-22.8-28.8c65.6-36.7,62.4-104.6,62.4-109.2c0-67.2-62.7-121-114.7-121h-29h-41
		c-22.7,0-41.9,16.4-45.6,38.8L3511.4,454.2 M3684.2,21.2h-29h-41c-20.5,0-40.3,7.3-55.9,20.5c-15.6,13.2-25.9,31.6-29.2,51.8
		l-57.2,354.2l-3.8,23.2c-0.9,5.8,0.7,11.7,4.5,16.2c3.8,4.5,9.4,7,15.2,7h23.5h80.3h17c9.8,0,18.2-7.1,19.8-16.8l2.7-16.8
		l15.3-94.3l20.9,96.5l3.4,15.8c2,9.2,10.1,15.8,19.6,15.8h16.2h81.7h24.8c6.1,0,11.8-2.7,15.6-7.4c3.8-4.7,5.3-10.9,4-16.8
		l-5.2-24.2l-23.8-110.5c0,0,0,0,0,0l-1-4.8l-0.1-0.3l-2.3-10.6l-1.7-7.8c-1.1-5-2.6-9.8-4.4-14.4c15.8-16.2,27.6-35.4,35.3-57.1
		c6.6-18.6,9.9-38.7,9.6-58l0-0.2c0-21.9-4.8-43.3-14.3-63.9c-8.5-18.5-20.5-35.4-35.5-50.2c-14.2-14-30.9-25.6-48.3-33.7
		C3722.3,25.8,3702.7,21.2,3684.2,21.2L3684.2,21.2z M3534.9,434.2l53.5-331c2.1-12.7,12.9-21.9,25.8-21.9h41h29
		c42.6,0,94.7,46.6,94.7,101c0,0.2,0,0.5,0,0.9c0.2,14.3-2.9,63.2-52.2,90.8c-7,3.9-11,11.7-10.1,19.7c0.9,7.8,6.2,14.3,13.6,16.8
		c1.4,0.6,7.3,3.6,9.5,14l1.4,6.4l2.6,12l0.1,0.2c0.8,3.5,1,4.5,1,4.8h0l18.6,86.3h-40.7l-21.4-99.2c-2.5-11.5-8.9-22-18.1-29.5
		c-9.2-7.5-20.8-11.6-32.7-11.6h-36c-9.8,0-18.2,7.1-19.8,16.8l-20,123.3H3534.9L3534.9,434.2z"/>
	<path class="st0" d="M2430.9,41.2L2430.9,41.2 M2430.9,41.2l-3.4,23l-11.7,79.1l-2.5,17.1H2396h-110.1l-6,40.1h83.3h23.2l-3.4,22.9
		l-11.6,79.3l-2.5,17.1h-17.3H2262l-5.2,35h103.8h23.2l-3.4,23l-11.8,79.3l-2.5,17.1h-17.3h-127.3H2195c-19.3,0-37.5-8.4-50.1-23
		c-12.6-14.6-18.2-33.9-15.4-53l45.2-300.7c2.3-15.7,10.2-30,22.3-40.4c12-10.3,27.4-16,43.2-16h167.6H2430.9 M2195,454.2h26.5
		h127.3l11.8-79.3h-127.1l11.2-75.1h106.7l11.6-79.3h-106.5l12-80.1H2396l11.7-79.1h-167.6c-22.9,0-42.3,16.7-45.7,39.3l-45.2,300.7
		C2145.1,429.1,2166.7,454.2,2195,454.2 M2430.9,21.2L2430.9,21.2h-23.2h-167.6c-20.6,0-40.6,7.4-56.3,20.8
		c-15.7,13.5-26,32.2-29,52.6l-45.2,300.6c-3.7,24.9,3.6,50,20,69c16.4,19,40.2,29.9,65.3,29.9h26.5h127.3h17.3
		c9.9,0,18.3-7.3,19.8-17.1l2.5-17.1l11.8-79.3l3.4-23c0.9-5.8-0.8-11.6-4.6-16c-3.8-4.4-9.3-7-15.2-7h-1.7c3.4-3,5.8-7.3,6.5-12.1
		l2.5-17.1l11.6-79.3l3.4-22.9c0.8-5.8-0.9-11.6-4.7-16c-3.8-4.4-9.3-6.9-15.2-6.9h-23.2h-60l0,0h92.9h17.3
		c9.9,0,18.4-7.3,19.8-17.1l2.5-17.1l11.7-79.1l3.3-22.5c0.2-1.1,0.3-2.2,0.3-3.4C2451,30.2,2442,21.2,2430.9,21.2L2430.9,21.2z
		 M2430.9,61.3L2430.9,61.3L2430.9,61.3L2430.9,61.3z M2195,434.2c-7.7,0-14.7-3.2-19.8-9.1c-5-5.8-7.2-13.4-6.1-20.9l45.2-300.7
		c1.9-12.9,12.8-22.2,25.9-22.2h144.4l-5.8,39.1h-110.1c-9.9,0-18.3,7.2-19.8,17.1l-12,80.1c-0.9,5.8,0.8,11.6,4.6,16
		c3.8,4.4,9.3,7,15.2,7h83.4l-5.8,39.3h-89.4c-9.9,0-18.3,7.3-19.8,17.1l-11.2,75.1c-0.9,5.8,0.8,11.6,4.6,16c3.8,4.4,9.3,7,15.2,7
		h103.8l-5.9,39.3h-110H2195L2195,434.2z"/>
	<path class="st0" d="M1611.6,39.9c19.3,0,38,6.7,52.5,18.8c15.9,13.3,25.7,32.5,27.6,54.1l30.2,339.7l0.2,1.7l0.4-2.9l52-345.7
		c3-19.8,12.4-36.5,27.2-48.2c13.2-10.4,30.1-16.1,47.5-16.1c17.1,0,33.7,5.6,46.8,15.7c14.7,11.3,24.2,27.6,27.6,46.9l20.5,117.5
		l65.6-137.6c12.6-26.6,37.3-42.5,65.9-42.5c22.2,0,43.9,9.8,58.1,26.3c13.8,16,19.6,37,16.2,59l-49.7,330.6l-2.6,17h-17.2h-80.2
		h-23.3l3.5-23l6.3-41.9l-14.9,31.2c-5.2,10.9-13.2,19.9-23.2,25.8c-9.2,5.5-19.8,8.4-30.8,8.4c-13.6,0-26.9-4.5-37.5-12.8
		c-11.7-9.1-19.2-21.9-21.9-36.9l-6.1-35.2l-10.2,67.3l-2.6,17h-17.2h-80.1h-18.5h-4.8h-17.1h-79.6H1604l-1.6-18.2l-5-55.6h-58.8
		l-25.5,61.5l-5.1,12.4h-13.4h-85.8h-30l11.5-27.7l147.8-357.3l0,0l0,0c6.6-15.7,17.2-28.6,30.9-37.2
		C1581.6,44,1596.3,39.9,1611.6,39.9 M1408.8,454.2h85.8l30.6-73.9h90.5l6.6,73.9h79.6l-30.2-339.7c-3.2-35.1-31.6-54.6-60.2-54.6
		c-22.2,0-44.4,11.7-54.9,37L1408.8,454.2 M1935.1,286.6l-31.3-179.4c-5.3-30.7-30-46-54.6-46c-25.2,0-50.2,15.8-54.9,47.2
		l-52,345.7h80.1l28.5-189.1l27.3,156.4c3.7,21.4,21.6,33.1,39.6,33.1c14.2,0,28.5-7.2,35.9-22.8l72.8-152.9l-26.3,175.2h80.2
		l49.7-330.6c5.7-37.9-24.4-62.3-54.5-62.3c-18.7,0-37.6,9.5-47.8,31.1L1935.1,286.6 M1611.6,19.8c-19.1,0-37.5,5.3-53.2,15.2
		c-17.1,10.8-30.5,26.8-38.7,46.3c0,0.1-0.1,0.2-0.1,0.2l-147.8,357.3l-11.5,27.7c-2.6,6.2-1.9,13.2,1.9,18.8
		c3.7,5.6,10,8.9,16.6,8.9h30h85.8h13.4c8.1,0,15.4-4.9,18.5-12.4l5.1-12.4l20.3-49.1h27.1l3.3,37.4l1.6,18.2
		c0.9,10.3,9.6,18.2,19.9,18.2h18.3h79.6h17.1h4.8h18.5h80.1h17.2c9.9,0,18.3-7.2,19.8-17l0.9-6.3c2.4,2.4,4.9,4.7,7.7,6.8
		c14.1,11,31.8,17,49.8,17c14.6,0,28.8-3.9,41-11.2c0.1,0,0.2-0.1,0.2-0.1c0.7,1.4,1.6,2.7,2.6,3.9c3.8,4.4,9.3,7,15.2,7h23.3h80.2
		h17.2c9.9,0,18.3-7.2,19.8-17l2.6-17l49.7-330.6c4.2-27.9-3.2-54.5-20.8-75c-17.9-20.9-45.3-33.3-73.3-33.3
		c-17.9,0-35.1,5-49.8,14.5c-14.6,9.4-26.4,23-34.2,39.5L1953,156l-9.7-55.7c-4.2-24.4-16.3-44.9-35-59.3
		c-16.6-12.8-37.5-19.8-59.1-19.8c-21.9,0-43.2,7.3-59.9,20.4c-18.9,14.9-30.9,36-34.6,60.9l-27.5,182.9L1711.6,111
		c-2.4-26.9-14.7-50.9-34.7-67.7C1658.8,28.2,1635.6,19.8,1611.6,19.8L1611.6,19.8z M1575.1,104.6c9.3-22.2,28.6-24.6,36.4-24.6
		c17.8,0,38,11.4,40.2,36.4l28.2,317.9h-39.4l-5-55.6c-0.9-10.3-9.6-18.2-19.9-18.2h-90.5c-8.1,0-15.4,4.9-18.5,12.4l-25.5,61.5
		h-42.5L1575.1,104.6L1575.1,104.6z M1935.1,306.7c7.6,0,14.7-4.4,18.1-11.4l92.6-194.3c8.1-17.1,22.1-19.7,29.8-19.7
		c10.7,0,21.1,4.6,27.8,12.4c6.2,7.2,8.6,16.3,7,26.9l-47.1,313.6h-39.7l22.9-152.2c1.5-9.8-4.5-19.2-13.9-22.1
		c-1.9-0.6-3.9-0.9-5.9-0.9c-7.6,0-14.7,4.3-18.1,11.4l-72.8,152.9c-4.7,9.9-13.2,11.4-17.8,11.4c-7.9,0-17.8-4.3-19.9-16.6
		l-27.3-156.4c-1.7-9.6-10-16.6-19.7-16.6c-0.1,0-0.2,0-0.2,0c-9.8,0.1-18.1,7.3-19.6,17l-25.9,172h-39.6l48.5-322.7
		c3.4-22.3,21-30.2,35.1-30.2c14.4,0,31.2,7.7,34.9,29.4l31.3,179.4c1.5,8.6,8.4,15.2,17,16.4
		C1933.3,306.6,1934.2,306.7,1935.1,306.7L1935.1,306.7z"/>
	<path class="st0" d="M1268.9,20c25.9,0,51,6.1,74.8,18c18.7,9.4,36.5,22.3,52.9,38.5c27.6,27.3,42,54.6,42.6,55.7l9.3,17.7
		l-17.7,9.3l-70.6,36.9l-17.3,9.2l-9.4-17.1c-0.4-0.6-7.8-13.4-20-25.8c-10.3-10.4-26.3-22.7-44.5-22.7c-27.6,0-54.3,14.2-75.1,39.9
		c-19.2,23.8-31.5,55.2-32.9,83.8c-1.6,32.9,5.7,58,21.7,74.7c15.3,16,34.4,19.6,40.5,19.6c21.2,0,41.5-8.3,58.3-23.2H1230h-30
		l11.5-27.7l32.8-79.3l5.1-12.4h13.4h90.8h33c18.7,0,35.8,8.6,47,23.6c11.1,15,14.4,33.8,9.1,51.6c-8.4,28.2-28.6,82-68.5,125.9
		c-18.5,20.3-39.2,36.2-61.6,47.3c-25.3,12.5-52.9,18.9-81.8,18.9c-19.7,0-42.9-5-65.2-14.1c-27-11-51.5-27.6-71-48
		c-18.5-19.4-32.7-42.4-42.1-68.1c-10.5-29-15-61.6-13.4-97.1c2.5-52.3,26.7-110.2,64.9-154.7c20.9-24.4,44.8-43.7,71.2-57.4
		C1204.8,27.8,1236.2,20,1268.9,20 M1230.9,462.5c109.3,0,169.4-99.8,192.7-177.8c7.4-24.7-11.1-49.4-36.9-49.4h-33h-90.8
		l-32.8,79.3h92.4c-20.3,36.4-56.7,63.2-99.4,63.2c-21.6,0-86.7-19.6-82.1-115.2c3-64.2,53.8-142.8,127.9-142.8
		c49.2,0,82,58.7,82,58.7l70.6-36.9c0,0-53-101.5-152.6-101.5c-123.6,0-205.2,123.9-209.6,216.1
		C1051.8,414.3,1176.5,462.5,1230.9,462.5 M1268.9,0c-35.9,0-70.5,8.5-102.8,25.3c-28.6,14.9-54.6,35.8-77.2,62.1
		c-41,47.8-67,110.2-69.7,166.8c-1.8,38.1,3.1,73.4,14.6,104.9c10.3,28.4,25.9,53.6,46.4,75.1c21.4,22.4,48.3,40.7,77.9,52.7
		c24.7,10.1,50.5,15.6,72.7,15.6c32.1,0,62.6-7.1,90.7-21c24.6-12.2,47.3-29.6,67.5-51.8c42.6-46.8,64-103.8,72.9-133.6
		c7.2-24,2.7-49.2-12.2-69.3c-11.8-15.9-28.6-26.4-47.4-30.1L1440,177l17.7-9.3c9.8-5.1,13.6-17.2,8.5-27L1457,123
		c-1.7-3.2-17-31.8-46.3-60.7c-17.9-17.7-37.4-31.9-58-42.2C1326.1,6.8,1297.9,0,1268.9,0L1268.9,0z M1230.9,442.5
		c-28.8,0-74.6-15.6-107.2-49.7c-32.1-33.7-47.1-79.3-44.4-135.7c3.9-82.3,77.9-197,189.6-197c35.5,0,68.7,14.9,98.8,44.2
		c10.8,10.5,19.2,21.2,25.3,29.6l-35.5,18.5c-4-5.3-8.9-11.3-14.8-17.3c-22.6-23.1-48.1-35.4-73.8-35.4c-40,0-77.7,19.5-106.2,54.8
		c-12.1,15-22.3,32.8-29.5,51.4c-7.1,18.4-11.3,37.6-12.2,55.7c-1.1,23.1,1.5,44.1,7.7,62.2c5.5,16.3,14,30.4,25,42
		c22.5,23.6,51.5,32,69.4,32c24.2,0,48.2-7.4,69.2-21.3c19.3-12.8,35.8-30.9,47.7-52.2c3.5-6.2,3.4-13.8-0.2-19.9
		c-3.6-6.1-10.2-9.9-17.3-9.9H1260l16.3-39.2h77.5h33c5.9,0,11.3,2.7,14.9,7.5c3.5,4.7,4.5,10.6,2.9,16.2
		C1392.9,317.3,1346.5,442.5,1230.9,442.5L1230.9,442.5z M1188.1,311.1c-5.7-12-8.1-27.6-7.2-46.6c1.2-24.6,11.8-51.6,28.5-72.2
		c16.9-20.9,38-32.4,59.5-32.4c11.9,0,24.1,10.5,30.3,16.8c7.1,7.2,12.4,14.6,15,18.6h-51.3h-13.4c-8.1,0-15.4,4.9-18.5,12.4
		l-5.1,12.4l-32.8,79.3L1188.1,311.1L1188.1,311.1z"/>
	<g>
		<linearGradient id="SVGID_1_" gradientUnits="userSpaceOnUse" x1="2278.249" y1="61.2597" x2="2278.249" y2="454.2091">
			<stop  offset="0.2309" style="stop-color:#FF2727"/>
			<stop  offset="0.8932" style="stop-color:#FFC600"/>
		</linearGradient>
		<path class="st250" d="M2407.7,61.3h-167.6c-22.9,0-42.3,16.7-45.7,39.3l-45.2,300.7c-4.1,27.8,17.5,53,45.7,53h26.5h127.3
			l11.8-79.3h-127.1l11.2-75.1h106.7l11.6-79.3h-106.5l12-80.1H2396L2407.7,61.3z"/>
	</g>
	<g>
		
			<linearGradient id="SVGID_00000109714903986531519100000013857166777145964954_" gradientUnits="userSpaceOnUse" x1="3053.7224" y1="61.2597" x2="3053.7224" y2="454.2091">
			<stop  offset="0.2309" style="stop-color:#FF2727"/>
			<stop  offset="0.8932" style="stop-color:#FFC600"/>
		</linearGradient>
		<path style="fill:url(#SVGID_00000109714903986531519100000013857166777145964954_);" d="M3183.2,61.3h-167.6
			c-22.9,0-42.3,16.7-45.7,39.3l-45.2,300.7c-4.1,27.8,17.5,53,45.7,53h26.5h127.3l11.8-79.3H3009l11.2-75.1H3127l11.6-79.3h-106.5
			l12-80.1h127.4L3183.2,61.3z"/>
	</g>
	<g>
		
			<linearGradient id="SVGID_00000121257303165239502990000015611818459898907830_" gradientUnits="userSpaceOnUse" x1="1555.3357" y1="59.8789" x2="1555.3357" y2="454.2091">
			<stop  offset="0.2309" style="stop-color:#FF2727"/>
			<stop  offset="0.8932" style="stop-color:#FFC600"/>
		</linearGradient>
		<path style="fill:url(#SVGID_00000121257303165239502990000015611818459898907830_);" d="M1611.6,59.9c-22.2,0-44.4,11.7-54.9,37
			l-147.8,357.3h85.8l30.6-73.9h90.5l6.6,73.9h79.6l-30.2-339.7C1668.6,79.4,1640.2,59.9,1611.6,59.9z M1558,301l41.7-100.7l9,100.7
			H1558z"/>
	</g>
	<g>
		
			<linearGradient id="SVGID_00000036250802768651131040000001369383471823178134_" gradientUnits="userSpaceOnUse" x1="1936.5048" y1="61.2597" x2="1936.5048" y2="454.7022">
			<stop  offset="0.2309" style="stop-color:#FF2727"/>
			<stop  offset="0.8932" style="stop-color:#FFC600"/>
		</linearGradient>
		<path style="fill:url(#SVGID_00000036250802768651131040000001369383471823178134_);" d="M2027.7,92.3l-92.6,194.3l-31.3-179.4
			c-5.3-30.7-30-46-54.6-46c-25.2,0-50.2,15.8-54.9,47.2l-52,345.7h80.1l28.5-189.1l27.3,156.4c3.7,21.4,21.6,33.1,39.6,33.1
			c14.2,0,28.5-7.2,35.9-22.8l72.8-152.9l-26.3,175.2h80.2l49.7-330.6c5.7-37.9-24.4-62.3-54.5-62.3
			C2056.8,61.3,2037.9,70.7,2027.7,92.3z"/>
	</g>
	<g>
		
			<linearGradient id="SVGID_00000007427854023756677760000008465687605561291951_" gradientUnits="userSpaceOnUse" x1="1242.1066" y1="40.0541" x2="1242.1066" y2="462.4943">
			<stop  offset="0.2309" style="stop-color:#FF2727"/>
			<stop  offset="0.8932" style="stop-color:#FFC600"/>
		</linearGradient>
		<path style="fill:url(#SVGID_00000007427854023756677760000008465687605561291951_);" d="M1421.4,141.5c0,0-53-101.5-152.6-101.5
			c-123.6,0-205.2,123.9-209.6,216.1c-7.5,158.1,117.3,206.3,171.6,206.3c109.3,0,169.4-99.8,192.7-177.8
			c7.4-24.7-11.1-49.4-36.9-49.4h-33h-90.8l-32.8,79.3h92.4c-20.3,36.4-56.7,63.2-99.4,63.2c-21.6,0-86.7-19.6-82.1-115.2
			c3-64.2,53.8-142.8,127.9-142.8c49.2,0,82,58.7,82,58.7L1421.4,141.5z"/>
	</g>
	<g>
		
			<linearGradient id="SVGID_00000038387172190209641530000001913053565638681479_" gradientUnits="userSpaceOnUse" x1="2711.4055" y1="40.0539" x2="2711.4055" y2="462.4941">
			<stop  offset="0.2309" style="stop-color:#FF2727"/>
			<stop  offset="0.8932" style="stop-color:#FFC600"/>
		</linearGradient>
		<path style="fill:url(#SVGID_00000038387172190209641530000001913053565638681479_);" d="M2890.7,141.5c0,0-53-101.5-152.6-101.5
			c-123.6,0-205.2,123.9-209.6,216.1c-7.5,158.1,117.3,206.3,171.6,206.3c109.3,0,169.4-99.8,192.7-177.8
			c7.4-24.7-11.1-49.4-36.9-49.4h-33h-90.8l-32.8,79.3h92.4c-20.3,36.4-56.7,63.2-99.4,63.2c-21.6,0-86.7-19.6-82.1-115.2
			c3-64.2,53.8-142.8,127.9-142.8c49.2,0,82,58.7,82,58.7L2890.7,141.5z"/>
	</g>
	<g>
		
			<linearGradient id="SVGID_00000000197770628147738090000006401708078605784487_" gradientUnits="userSpaceOnUse" x1="3655.1819" y1="61.2596" x2="3655.1819" y2="454.3079">
			<stop  offset="0.2309" style="stop-color:#FF2727"/>
			<stop  offset="0.8932" style="stop-color:#FFC600"/>
		</linearGradient>
		<path style="fill:url(#SVGID_00000000197770628147738090000006401708078605784487_);" d="M3764.3,343.8c0,0,0,0-1-4.9l0-0.2
			c-0.7-3.4-1.9-9-4-18.4c-5.1-23.5-22.8-28.8-22.8-28.8c65.6-36.7,62.4-104.6,62.4-109.2c0-67.2-62.7-121-114.7-121h-29h-41
			c-22.7,0-41.9,16.4-45.6,38.8l-57.2,354.2h80.3l22.7-140.2h36c15.1,0,28.1,10.6,31.3,25.2l24.9,115h81.7L3764.3,343.8
			L3764.3,343.8z M3662.2,234.8h-35l15.1-94.3h33c15.7,0,31.2,15.7,34.6,34.4C3715.2,202.8,3693.7,234.8,3662.2,234.8z"/>
	</g>
	<path d="M2240.1,41.2c-15.9,0-31.2,5.7-43.2,16c-12,10.3-19.9,24.7-22.3,40.4l-45.2,300.7c-2.8,19.1,2.8,38.4,15.4,53
		c12.6,14.6,30.9,23,50.1,23h26.5h127.3h17.3l2.5-17.1l11.8-79.3l3.4-23h-23.2h-103.8l5.2-35h89.5h17.3l2.5-17.1l11.6-79.3l3.4-22.9
		h-23.2h-83.3l6-40.1H2396h17.3l2.5-17.1l11.7-79.1l3.4-23h-23.2H2240.1z M2396,140.4h-127.4l-12,80.1h106.5l-11.6,79.3h-106.7
		l-11.2,75.1h127.1l-11.8,79.3h-127.3H2195c-28.2,0-49.8-25.2-45.7-53l45.2-300.7c3.4-22.6,22.8-39.3,45.7-39.3h167.6L2396,140.4z"
		/>
	<path d="M3206.4,41.2h-23.2h-167.6c-15.9,0-31.2,5.7-43.2,16c-12,10.3-19.9,24.7-22.3,40.4l-45.2,300.7c-2.8,19.1,2.8,38.4,15.4,53
		c12.6,14.6,30.9,23,50.1,23h26.5h127.3h17.3l2.5-17.1l11.8-79.3l3.4-23h-23.2h-103.8l5.2-35h89.5h17.3l2.5-17.1l11.6-79.3l3.4-22.9
		h-23.2h-83.3l6-40.1h110.1h17.3l2.5-17.1l11.7-79.1L3206.4,41.2z M3171.5,140.4h-127.4l-12,80.1h106.5l-11.6,79.3h-106.7
		l-11.2,75.1h127.1l-11.8,79.3H2997h-26.5c-28.2,0-49.8-25.2-45.7-53l45.2-300.7c3.4-22.6,22.8-39.3,45.7-39.3h167.6L3171.5,140.4z"
		/>
	<g>
		<polygon points="1558,301 1608.7,301 1599.7,200.3 		"/>
	</g>
	<g>
		<polygon points="3321.6,301 3372.3,301 3363.4,200.3 		"/>
	</g>
	<path d="M3142.4,474.2h30h85.8h13.4l5.1-12.4l25.5-61.5h58.8l5,55.6l1.6,18.2h18.3h79.6h21.9l-1.9-21.8l-30.2-339.7
		c-1.9-21.6-11.8-40.8-27.6-54.1c-14.5-12.1-33.1-18.8-52.5-18.8c-32.6,0-60.7,18.9-73.4,49.3l0,0l0,0l-147.8,357.3L3142.4,474.2z
		 M3320.2,96.9c10.6-25.2,32.8-37,54.9-37c28.6,0,57,19.5,60.2,54.6l30.2,339.7h-79.6l-6.6-73.9h-90.5l-30.6,73.9h-85.8L3320.2,96.9
		z"/>
	<path d="M2133.6,67.6c-14.2-16.5-35.9-26.3-58.1-26.3c-28.6,0-53.3,15.9-65.9,42.5L1944,221.3l-20.5-117.5
		c-3.4-19.3-12.9-35.6-27.6-46.9c-13.1-10.1-29.7-15.7-46.8-15.7c-17.5,0-34.3,5.7-47.5,16.1c-14.8,11.7-24.2,28.3-27.2,48.2
		l-52,345.7l-0.4,2.9l-0.2-1.7l-30.2-339.7c-1.9-21.6-11.8-40.8-27.6-54.1c-14.5-12.1-33.1-18.8-52.5-18.8c-15.3,0-30,4.2-42.5,12.1
		c-13.6,8.6-24.3,21.5-30.9,37.2l0,0l0,0l-147.8,357.3l-11.5,27.7h30h85.8h13.4l5.1-12.4l25.5-61.5h58.8l5,55.6l1.6,18.2h18.3h79.6
		h17.1h4.8h18.5h80.1h17.2l2.6-17l10.2-67.3l6.1,35.2c2.6,15.1,10.2,27.8,21.9,36.9c10.6,8.2,23.9,12.8,37.5,12.8
		c11,0,21.6-2.9,30.8-8.4c10-6,18-14.9,23.2-25.8l14.9-31.2l-6.3,41.9l-3.5,23h23.3h80.2h17.2l2.6-17l49.7-330.6
		C2153.2,104.6,2147.4,83.6,2133.6,67.6z M1622.3,454.2l-6.6-73.9h-90.5l-30.6,73.9h-85.8l147.8-357.3c10.6-25.2,32.7-37,54.9-37
		c28.6,0,57,19.5,60.2,54.6l30.2,339.7H1622.3z M2130.1,123.6l-49.7,330.6h-80.2l26.3-175.2l-72.8,152.9
		c-7.4,15.6-21.7,22.8-35.9,22.8c-18,0-35.9-11.7-39.6-33.1l-27.3-156.4l-28.5,189.1h-80.1l52-345.7c4.7-31.5,29.8-47.2,54.9-47.2
		c24.7,0,49.3,15.3,54.6,46l31.3,179.4l92.6-194.3c10.3-21.6,29.1-31.1,47.8-31.1C2105.7,61.3,2135.8,85.7,2130.1,123.6z"/>
	<path d="M1374.3,416.3c39.9-43.9,60.1-97.7,68.5-125.9c5.3-17.8,2-36.6-9.1-51.6c-11.2-15-28.3-23.6-47-23.6h-33h-90.8h-13.4
		l-5.1,12.4l-32.8,79.3l-11.5,27.7h30h51.3c-16.7,14.9-37,23.2-58.3,23.2c-6.1,0-25.2-3.5-40.5-19.6c-15.9-16.7-23.2-41.8-21.7-74.7
		c1.4-28.7,13.6-60,32.9-83.8c20.8-25.7,47.4-39.9,75.1-39.9c18.2,0,34.2,12.3,44.5,22.7c12.2,12.3,19.6,25.1,20,25.8l9.4,17.1
		l17.3-9.2l70.6-36.9l17.7-9.3l-9.3-17.7c-0.6-1.1-15-28.5-42.6-55.7c-16.4-16.2-34.2-29.2-52.9-38.5c-23.8-11.9-49-18-74.8-18
		c-32.6,0-64.1,7.8-93.5,23.1c-26.4,13.7-50.3,33-71.2,57.4c-38.2,44.5-62.4,102.4-64.9,154.7c-1.7,35.4,2.8,68.1,13.4,97.1
		c9.4,25.8,23.5,48.7,42.1,68.1c19.5,20.4,44,37,71,48c22.3,9.1,45.5,14.1,65.2,14.1c29,0,56.5-6.4,81.8-18.9
		C1335.1,452.6,1355.8,436.6,1374.3,416.3z M1230.9,462.5c-54.3,0-179.1-48.2-171.6-206.3c4.4-92.2,86-216.1,209.6-216.1
		c99.6,0,152.6,101.5,152.6,101.5l-70.6,36.9c0,0-32.7-58.7-82-58.7c-74.2,0-124.9,78.6-127.9,142.8
		c-4.5,95.6,60.5,115.2,82.1,115.2c42.7,0,79.1-26.8,99.4-63.2H1230l32.8-79.3h90.8h33c25.7,0,44.3,24.8,36.9,49.4
		C1400.2,362.7,1340.2,462.5,1230.9,462.5z"/>
	<path d="M2843.6,416.3c39.9-43.9,60.1-97.7,68.5-125.9c5.3-17.8,2-36.6-9.1-51.6c-11.2-15-28.3-23.6-47-23.6h-33h-90.8h-13.4
		l-5.1,12.4l-32.8,79.3l-11.5,27.7h30h51.3c-16.7,14.9-37,23.2-58.3,23.2c-6.1,0-25.2-3.5-40.5-19.6c-15.9-16.7-23.2-41.8-21.7-74.7
		c1.4-28.7,13.6-60,32.9-83.8c20.8-25.7,47.4-39.9,75.1-39.9c18.2,0,34.2,12.3,44.5,22.7c12.3,12.4,19.6,25.2,20,25.8l9.4,17.1
		l17.3-9.2l70.6-36.9l17.7-9.3l-9.3-17.7c-0.6-1.1-15-28.5-42.6-55.7c-16.4-16.2-34.2-29.2-52.9-38.5c-23.8-11.9-49-18-74.8-18
		c-32.6,0-64.1,7.8-93.5,23.1c-26.4,13.7-50.3,33-71.2,57.4c-38.2,44.5-62.4,102.4-64.9,154.7c-1.7,35.4,2.8,68.1,13.4,97.1
		c9.4,25.8,23.5,48.7,42.1,68.1c19.5,20.4,44,37,71,48c22.3,9.1,45.5,14.1,65.2,14.1c29,0,56.5-6.4,81.8-18.9
		C2804.4,452.6,2825.1,436.6,2843.6,416.3z M2700.2,462.5c-54.3,0-179.1-48.2-171.6-206.3c4.4-92.2,86-216.1,209.6-216.1
		c99.6,0,152.6,101.5,152.6,101.5l-70.6,36.9c0,0-32.7-58.7-82-58.7c-74.2,0-124.9,78.6-127.9,142.8
		c-4.5,95.6,60.5,115.2,82.1,115.2c42.7,0,79.1-26.8,99.4-63.2h-92.4l32.8-79.3h90.8h33c25.7,0,44.3,24.8,36.9,49.4
		C2869.5,362.7,2809.5,462.5,2700.2,462.5z"/>
	<path d="M3662.1,343.5l24.9,115l3.4,15.8h16.2h81.7h24.8l-5.2-24.2l-23.8-110.5l0,0l-1-4.8l-0.1-0.2l-2.3-10.6l-1.7-7.8
		c-1.8-8.5-5.1-16.2-9.7-22.9c18.9-15.9,32.9-36.1,41.3-59.6c5.8-16.4,8.7-34,8.5-51l0-0.3c0-19-4.2-37.7-12.5-55.6
		c-7.5-16.3-18.1-31.2-31.4-44.3c-12.6-12.4-27.3-22.7-42.6-29.8c-16-7.4-32.7-11.3-48.3-11.3h-29h-41c-15.7,0-31,5.6-42.9,15.8
		c-11.9,10.2-19.9,24.3-22.4,39.8L3491.6,451l-3.8,23.2h23.5h80.3h17l2.7-16.8l20-123.3h19C3656,334.1,3660.9,338,3662.1,343.5z
		 M3614.4,314.1l-22.7,140.2h-80.3l57.2-354.2c3.6-22.4,22.9-38.8,45.6-38.8h41h29c52,0,114.7,53.9,114.7,121
		c0,4.5,3.2,72.5-62.4,109.2c0,0,17.7,5.3,22.8,28.8c2,9.4,3.2,15,4,18.4l0,0.2c1,4.9,1,4.9,1,4.9l23.8,110.5h-81.7l-24.9-115
		c-3.2-14.7-16.2-25.2-31.3-25.2H3614.4z"/>
	<g>
		<path d="M3675.3,140.5h-33l-15.1,94.3h35c31.5,0,53-32,47.7-59.9C3706.5,156.1,3691,140.5,3675.3,140.5z M3682.9,204.5
			c-3.2,3.8-10.1,10.3-20.7,10.3h-11.5l8.7-54.2h16c4.7,0,13,7.6,14.9,18l0,0l0,0C3691.9,187.1,3689,197,3682.9,204.5z"/>
	</g>
	<path class="st0" d="M3690.3,178.5L3690.3,178.5c-1.9-10.5-10.3-18.1-14.9-18.1h-16l-8.7,54.2h11.5c10.6,0,17.5-6.4,20.7-10.3
		C3689,197,3691.9,187.1,3690.3,178.5L3690.3,178.5z"/>
	<g>
		
			<linearGradient id="SVGID_00000084521080330958403810000011388915658166349986_" gradientUnits="userSpaceOnUse" x1="3318.8845" y1="59.8789" x2="3318.8845" y2="454.2091">
			<stop  offset="0.2309" style="stop-color:#FF2727"/>
			<stop  offset="0.8932" style="stop-color:#FFC600"/>
		</linearGradient>
		<path style="fill:url(#SVGID_00000084521080330958403810000011388915658166349986_);" d="M3375.1,59.9c-22.1,0-44.4,11.7-54.9,37
			l-147.8,357.3h85.8l30.6-73.9h90.5l6.6,73.9h79.6l-30.2-339.7C3432.1,79.4,3403.7,59.9,3375.1,59.9z M3321.6,301l41.7-100.7
			l9,100.7H3321.6z"/>
	</g>
</g>
</svg>
