<?xml version="1.0" encoding="utf-8"?>
<!-- Generator: Adobe Illustrator 25.4.1, SVG Export Plug-In . SVG Version: 6.00 Build 0)  -->
<svg version="1.1" xmlns="http://www.w3.org/2000/svg" xmlns:xlink="http://www.w3.org/1999/xlink" x="0px" y="0px"
	 viewBox="0 0 3839 901.2" style="enable-background:new 0 0 3839 901.2;" xml:space="preserve">
<style type="text/css">
	.st0{fill:#FFFFFF;}
	.st1{fill:#034693;}
</style>
<g id="Layer_1">
	<g>
		<g>
			<path class="st0" d="M1572.1,473.6l17.3-112.7h-515.1L940.2,473.6l17.3-112.7H642.9L497.4,483.1l-95.5-122.2H211.5L64,484.9
				L0,901.2h1908.1l83-540.4h-284.8L1572.1,473.6z"/>
			<path class="st0" d="M3839,360.9h-314.5l-134.4,112.8l17.3-112.9h-314.5l-134.4,112.9l17.3-112.9H2691l-145.6,122.3L2450,360.8
				h-190.4l-147.7,124l-64,416.4H3756l31.3-203.7l-44.1-56.8l60.6-50.9L3839,360.9z"/>
			<path class="st1" d="M2892.6,432.3l-5.5,35.5h-175.4h-30.7l-4.7,30.3l-11.4,74l-6.3,41.2h41.7h164.4l-5.5,35.5h-175.4h-30.6
				l-4.7,30.3l-11.4,74.1l-6.3,41.2h41.7H2837l-5.5,35.5h-268.8l47.2-307.5l107.1-90L2892.6,432.3 M2934.2,396.6H2704l-127.4,107
				l-55.6,362h341.2l16.4-107h-206l11.4-74.1h206l16.4-107h-206l11.4-74h206L2934.2,396.6L2934.2,396.6z"/>
			<path class="st1" d="M1907.8,432.3l-5.5,35.5H1727h-30.7l-4.7,30.3l-11.4,74l-6.3,41.2h41.7h164.4l-5.5,35.5h-175.4h-30.5
				l-4.7,30.3l-11.4,74.1l-6.3,41.2h41.7h164.4l-5.5,35.5h-268.8l47.2-307.5l107.1-90L1907.8,432.3 M1949.5,396.6h-230.2l-127.4,107
				l-55.6,362h341.2l16.4-107h-206l11.4-74.1h206l16.4-107h-206l11.4-74h206L1949.5,396.6L1949.5,396.6z"/>
			<path class="st1" d="M1506.1,432.3L1445,829.7h-62.8l49.3-320.8l6.3-41.2h-41.7h-82h-30.7l-4.7,30.3l-51,331.6H1165l49.3-320.8
				l6.3-41.2h-41.7h-84h-30.7l-4.7,30.3l-51,331.6h-62.8L992.9,522l107.1-90h406.1 M1547.8,396.6h-460.4L960,503.6l-55.6,362h135.2
				l55.6-362h84l-55.6,362h135.1l55.6-362h82l-55.6,361.9h135.2L1547.8,396.6L1547.8,396.6z"/>
			<path class="st1" d="M2415.2,432.3l27.7,35.5h-162.5h-30.7l-4.7,30.3l-39.2,255l-6.3,41.2h41.7h100.6h30.7l4.7-30.3l11.4-74
				l6.3-41.2h-33.3l42.3-35.5h59.3l-33.3,216.4h-298.5l47.2-307.5l107.1-90L2415.2,432.3 M2432.7,396.6h-160l-127.4,107l-55.6,362
				h370.8l44.2-287.9h-113.9l-127.4,107h89.8l-11.4,74h-100.6l39.2-255h235.7L2432.7,396.6L2432.7,396.6z"/>
			<path class="st1" d="M367.1,432.3l27.7,35.5H232.3h-30.7l-4.7,30.3l-39.2,255l-6.3,41.2h41.7h100.6h30.7l4.7-30.3l11.4-74
				l6.3-41.2h-33.3l42.3-35.5h59.3l-33.3,216.4H83.3l47.2-307.5l107.1-90L367.1,432.3 M384.5,396.6h-160l-127.4,107L41.6,865.5
				h370.8l44.2-287.9H342.7l-127.4,107h89.8l-11.4,74H193.1l39.2-255h235.7L384.5,396.6L384.5,396.6z"/>
			<path class="st1" d="M3645.9,503.6l-11.4,74h-100.6l11.4-74H3645.9 M3687.5,467.8h-41.7h-100.6h-30.7l-4.7,30.3l-11.4,74
				l-6.3,41.2h41.7h100.6h30.7l4.7-30.3l11.4-74L3687.5,467.8L3687.5,467.8z"/>
			<path class="st1" d="M3186.5,684.5l-11.4,74h-100.6l11.4-74H3186.5 M3228.2,648.7h-41.7h-100.6h-30.7l-4.7,30.3l-11.4,74
				l-6.3,41.2h41.7h100.6h30.7l4.7-30.3l11.4-74L3228.2,648.7L3228.2,648.7z"/>
			<path class="st1" d="M3324.2,432.3l-61.1,397.5h-298.5l19.6-127.5l106-89H3203h30.7l4.7-30.3l11.4-74l6.3-41.2h-41.7h-137.6
				l42.3-35.5L3324.2,432.3 M3365.8,396.6h-259.9l-127.4,107h235.7l-11.4,74h-125.8l-126.3,106l-28,182h370.8L3365.8,396.6
				L3365.8,396.6z"/>
			<path class="st1" d="M736.5,684.5l-11.4,74H624.5l11.4-74H736.5 M778.2,648.7h-41.7H635.9h-30.7l-4.7,30.3l-11.4,74l-6.3,41.2
				h41.7h100.6h30.7l4.7-30.3l11.4-74L778.2,648.7L778.2,648.7z"/>
			<path class="st1" d="M872.9,433.4l-60.7,395.2H516l19.3-125.8l105.4-88.5H753h31.6l4.8-31.3l11.4-74l6.5-42.5h-43H629.8
				l39.6-33.2H872.9 M915.9,396.6H655.9l-127.4,107h235.7l-11.4,74H627.1l-126.3,106l-28,182h370.9L915.9,396.6L915.9,396.6z"/>
			<polygon class="st1" points="729.5,730.1 712.7,839.6 749.6,841.8 765,734.5 			"/>
			<polygon class="st1" points="3179.5,730.1 3162.7,839.6 3200.7,834.8 3217.5,718.5 			"/>
			<path class="st1" d="M3797.4,396.6h-259.9l-127.4,107l-55.6,362h135.2l27.8-181h100.6l-27.8,181h135.2l24.3-158.3l-55.7-71.8
				l76.6-64.3L3797.4,396.6z M3737.3,552.4L3671,608l-5.8,4.9l-5.6,36.5l6.1,7.9L3712,717l-17.3,112.8H3632l21.5-139.9l6.2-40.6
				l0.8-0.6h-42.4h-100.6h-30.7l-4.7,30.3L3459,829.7h-62.8l47.2-307.5l107.1-90h205.2L3737.3,552.4z"/>
		</g>
		<g>
			<path class="st1" d="M1588.4,187.3h-117.6v36.7h117.6c22.6,0,41.4-18.8,41.4-41.4s-18.8-41.4-41.4-41.4h-30.1
				c-27.3,0-49.9-22.6-49.9-49.9s22.6-49.9,49.9-49.9H1675V4.7h-117.6c-48,0-86.6,38.6-86.6,86.6s38.6,86.6,86.6,86.6h30.1
				c2.8,0,4.7,1.9,4.7,4.7C1592.1,185.4,1590.3,187.3,1588.4,187.3z"/>
			<path class="st1" d="M1557.3,87.6h117.6V49.9h-117.6c-22.6,0-41.4,18.8-41.4,41.4s18.8,41.4,41.4,41.4h30.1
				c27.3,0,49.9,22.6,49.9,49.9s-22.6,49.9-49.9,49.9h-116.7v36.7h117.6c48,0,86.6-38.6,86.6-86.6S1636.3,96,1588.3,96h-30.1
				c-2.8,0-4.7-1.9-4.7-4.7C1553.6,89.4,1555.5,87.6,1557.3,87.6z"/>
			<path class="st1" d="M1979.7,49.9c-16,0-28.2,12.2-28.2,28.2v117.6c0,16,12.2,28.2,28.2,28.2h76.2v-82.8h-58.3v36.7h21.6v8.5
				h-21.6c-4.7,0-8.5-3.8-8.5-8.5V95c0-4.7,3.8-8.5,8.5-8.5H2102V49.9H1979.7z"/>
			<path class="st1" d="M2211.1,223.9h85.6l-58.3-173.1c-1.9-4.7-5.6-8.5-11.3-8.5c-4.7,0-9.4,3.8-11.3,7.5L2140.5,269h43.3
				l26.3-78.1v32.9L2211.1,223.9L2211.1,223.9z M2226.2,144.9l12.2,37.6H2213L2226.2,144.9z"/>
			<path class="st1" d="M2283.5,43.3C2276,18.8,2253.4,0,2226.1,0c-27.3,0-49.9,17.9-56.5,42.3L2101,243.6V96h-103.5v36.7h67.7v99.7
				h-84.7c-20.7,0-36.7-16.9-36.7-36.7V78.1c0-20.7,16.9-36.7,36.7-36.7h121.4V4.7h-122.3c-40.5,0-73.4,32.9-73.4,73.4v117.6
				c0,40.5,32.9,73.4,73.4,73.4H2131l76.2-221c2.8-8.5,10.4-14.1,19.8-14.1c9.4,0,16.9,5.6,19.8,14.1l62.1,184.4H2211V269h148.7l0,0
				L2283.5,43.3z"/>
			<path class="st1" d="M1766.1,232.4c-20.7,0-36.7-16.9-36.7-36.7V78.1c0-20.7,16.9-36.7,36.7-36.7h126.1V4.7h-126.1
				c-40.5,0-73.4,32.9-73.4,73.4v117.6c0,40.5,32.9,73.4,73.4,73.4h126.1v-36.7L1766.1,232.4L1766.1,232.4z"/>
			<path class="st1" d="M1774.6,178.8h91.3v-36.7h-128v54.6c0,16,12.2,28.2,28.2,28.2h126.1v-36.7H1783
				C1778.4,187.3,1774.6,183.5,1774.6,178.8z"/>
			<path class="st1" d="M1865.9,96h-91.3c0-4.7,3.8-8.5,8.5-8.5h108.2V49.9h-125.1c-16,0-28.2,12.2-28.2,28.2v54.6h128
				C1865.9,132.7,1865.9,96,1865.9,96z"/>
		</g>
	</g>
</g>
<g id="Layer_2">
</g>
</svg>
