<?xml version="1.0" encoding="utf-8"?>
<!-- Generator: Adobe Illustrator 26.0.3, SVG Export Plug-In . SVG Version: 6.00 Build 0)  -->
<svg version="1.1" id="Layer_1" xmlns="http://www.w3.org/2000/svg" xmlns:xlink="http://www.w3.org/1999/xlink" x="0px" y="0px"
	 viewBox="0 0 3839 496.3" style="enable-background:new 0 0 3839 496.3;" xml:space="preserve">
<style type="text/css">
	.st0{fill:url(#SVGID_1_);}
	.st1{fill:url(#SVGID_00000129888164901481114630000012334538581459236283_);}
	.st2{fill:url(#SVGID_00000173146788595014316550000000606429001147265931_);}
	.st3{fill:url(#SVGID_00000030460010473612876710000003727505424848326292_);}
	.st4{fill:url(#SVGID_00000176001786774568183350000001862141826880858551_);}
	.st5{fill:url(#SVGID_00000070077955961230991330000007353271971085671311_);}
	.st6{fill:url(#SVGID_00000063599763432445879710000013602962984071548095_);}
	.st7{fill:url(#SVGID_00000115504136352156709180000003291580829946835347_);}
	.st8{fill:url(#SVGID_00000119083787851405983040000006273772533782790312_);}
	.st9{fill:url(#SVGID_00000114073069456927584200000009054217474754889359_);}
	.st10{fill:url(#SVGID_00000078741689022340897410000002061697814231997583_);}
	.st11{fill:url(#SVGID_00000116936279314526792650000017208448081540912549_);}
	.st12{fill:url(#SVGID_00000047769558867703841620000017790095409763577507_);}
	.st13{fill:url(#SVGID_00000031922075699608133350000013777556834243548603_);}
	.st14{fill:url(#SVGID_00000083084103863202202500000017276160716908001924_);}
	.st15{fill:url(#SVGID_00000038374357831108838760000013271875924264973725_);}
	.st16{fill:url(#SVGID_00000110442143029709379030000011767325160099418274_);}
	.st17{fill:url(#SVGID_00000096044817421235277170000005814927821150288768_);}
	.st18{fill:url(#SVGID_00000037686482097291075340000006918405852136973191_);}
	.st19{fill:url(#SVGID_00000146459608845147941760000008055365042330561215_);}
	.st20{fill:url(#SVGID_00000010306934159506751220000005798917115546563200_);}
	.st21{fill:url(#SVGID_00000144313213128854534500000010260394396966269866_);}
	.st22{fill:url(#SVGID_00000085213294019516776590000014596721262930864059_);}
	.st23{fill:url(#SVGID_00000022546773762576462860000008492625562624705966_);}
	.st24{fill:url(#SVGID_00000047774659282365240120000004937271321308671419_);}
	.st25{fill:url(#SVGID_00000158728846889071171260000015941148138669880707_);}
	.st26{fill:url(#SVGID_00000059310832503258819510000000036463644479516582_);}
	.st27{fill:url(#SVGID_00000165196059160902527330000002136499189602688677_);}
	.st28{fill:url(#SVGID_00000176722592597286011790000010857335144342857401_);}
	.st29{fill:url(#SVGID_00000002376662733568226490000006127349197631181741_);}
	.st30{fill:url(#SVGID_00000116230120028569916770000006223489004994563744_);}
	.st31{fill:url(#SVGID_00000058557061601112377950000014712353579289073813_);}
	.st32{fill:url(#SVGID_00000109015386489114842390000004349440309653533062_);}
	.st33{fill:url(#SVGID_00000177463109401292771130000018427965952234118019_);}
	.st34{fill:url(#SVGID_00000024707213844656595680000015985969015156726158_);}
	.st35{fill:url(#SVGID_00000113317783215343282850000005156619385818888886_);}
	.st36{fill:url(#SVGID_00000025441199593502979760000004476543782138142100_);}
	.st37{fill:url(#SVGID_00000003069837571304262280000013768029979184766854_);}
	.st38{fill:url(#SVGID_00000061452522302266600130000017138657257917823670_);}
	.st39{fill:url(#SVGID_00000162354265222506485490000006167033471880131489_);}
	.st40{fill:url(#SVGID_00000056402337740306942760000001468727334378598806_);}
	.st41{fill:url(#SVGID_00000150061928302051914040000009320735762969942927_);}
	.st42{fill:url(#SVGID_00000049934290979023957370000014195180685577856402_);}
	.st43{fill:url(#SVGID_00000066496120153380849510000016944042115041312942_);}
	.st44{fill:url(#SVGID_00000059289302260870618370000006041810445691782553_);}
	.st45{fill:url(#SVGID_00000096775331774330128790000004851649946921703599_);}
	.st46{fill:url(#SVGID_00000075133182525842811420000018011701875212045226_);}
	.st47{fill:url(#SVGID_00000148622098471976627090000014158337977029402044_);}
	.st48{fill:url(#SVGID_00000069364835786246167630000014274857399349885588_);}
	.st49{fill:url(#SVGID_00000156566882988896487770000007278995662490877071_);}
	.st50{fill:#FFFFFF;}
	.st51{fill:url(#SVGID_00000060732458527524529640000005352024326617672369_);}
	.st52{fill:url(#SVGID_00000100365829462128392790000005480963083862816188_);}
	.st53{fill:url(#SVGID_00000003091574313404996790000012665155312099035042_);}
	.st54{fill:url(#SVGID_00000120539486071496496700000008986326058605814944_);}
	.st55{fill:url(#SVGID_00000140719608130300590190000014928482838326249123_);}
	.st56{fill:url(#SVGID_00000123439183536344622060000002251195724352076187_);}
	.st57{fill:url(#SVGID_00000122000813159327025000000002767911116474789763_);}
	.st58{fill:url(#SVGID_00000132804766386164671040000009504427208860905130_);}
	.st59{fill:url(#SVGID_00000173134369909594000780000013544456521914044579_);}
	.st60{fill:url(#SVGID_00000033357981681848849280000003317026180242164154_);}
	.st61{fill:url(#SVGID_00000160183194457030975080000000543885511461850532_);}
	.st62{fill:url(#SVGID_00000098910547156395546140000010588234279701184936_);}
	.st63{fill:url(#SVGID_00000061463688711601009180000000707738384209246083_);}
	.st64{fill:url(#SVGID_00000026142738050529646110000010535926511062949523_);}
	.st65{fill:url(#SVGID_00000168799581323365192150000004391150742941036463_);}
	.st66{fill:url(#SVGID_00000150790893178546669700000000479864381593443223_);}
	.st67{fill:url(#SVGID_00000165202803712368239540000003936952345625606560_);}
	.st68{fill:url(#SVGID_00000054244262989803422340000006190264393241235132_);}
	.st69{fill:url(#SVGID_00000177445970050453771740000007204481044548762003_);}
	.st70{fill:url(#SVGID_00000107589641430128761980000015259038531737661617_);}
	.st71{fill:url(#SVGID_00000024699932453326679560000006192189489424183726_);}
	.st72{fill:url(#SVGID_00000173855050752854154810000004266350360932407709_);}
	.st73{fill:url(#SVGID_00000052082750653241492670000016732770651226540164_);}
	.st74{fill:url(#SVGID_00000171682962243109212840000009807539073955272589_);}
	.st75{fill:url(#SVGID_00000021114099232891158400000007071281556967242150_);}
	.st76{fill:url(#SVGID_00000167365157187952688280000012868761651239840928_);}
	.st77{fill:url(#SVGID_00000011012480318880176200000011230959677402672262_);}
	.st78{fill:url(#SVGID_00000176020770618555172640000012185978152785919133_);}
	.st79{fill:url(#SVGID_00000000201446584477788490000013702311327400057520_);}
	.st80{fill:url(#SVGID_00000014629143733128567370000005981108225004775339_);}
	.st81{fill:url(#SVGID_00000066485957430025986790000016572245191330046909_);}
	.st82{fill:url(#SVGID_00000075885026508738623560000000047152741054950047_);}
	.st83{fill:url(#SVGID_00000083776031223204453470000016598651034116043442_);}
	.st84{fill:url(#SVGID_00000087393120058567354690000011757503785799782537_);}
	.st85{fill:url(#SVGID_00000041999090039874256530000006554167921635749030_);}
	.st86{fill:url(#SVGID_00000068670860050473781820000014927782452338751645_);}
	.st87{fill:url(#SVGID_00000159453918019434798160000003563136413367718296_);}
	.st88{fill:url(#SVGID_00000026156020634350983300000004264522508139017656_);}
	.st89{fill:url(#SVGID_00000152227746292187943610000014725748244746512288_);}
	.st90{fill:url(#SVGID_00000109725925173628409940000015724986297031423665_);}
	.st91{fill:url(#SVGID_00000075847325072126025800000009489276089697173388_);}
	.st92{fill:url(#SVGID_00000178192438179984329370000001066368460768302994_);}
	.st93{fill:url(#SVGID_00000150076131801054664810000012507024262703825070_);}
	.st94{fill:url(#SVGID_00000093151370440560439920000003053065152647797420_);}
	.st95{fill:url(#SVGID_00000096061128806259841780000008055512787615082882_);}
	.st96{fill:url(#SVGID_00000115501858627334087440000001664903557686545029_);}
	.st97{fill:url(#SVGID_00000019654533595570561430000004203503348923167126_);}
	.st98{fill:url(#SVGID_00000137825590284168928990000004235815880216340380_);}
	.st99{fill:url(#SVGID_00000095318032048120421910000001107619591211349919_);}
	.st100{fill:url(#SVGID_00000169558428531272052020000005221980440419254182_);}
</style>
<g>
	<g>
		
			<linearGradient id="SVGID_1_" gradientUnits="userSpaceOnUse" x1="1244.3799" y1="15329.2266" x2="1244.3799" y2="15713.2568" gradientTransform="matrix(1 0 0 -1 1523.5 15808.249)">
			<stop  offset="0" style="stop-color:#48407D"/>
			<stop  offset="1" style="stop-color:#6A93C9"/>
		</linearGradient>
		<path class="st0" d="M2767.9,95c-157.2,0-229.8,101.7-229.8,196.8v62.7V479h81.5V354.5v-62.7c0-68.8,36.9-131.9,148.3-131.9
			c111.5,0,148.3,63.1,148.3,131.9v62.7V479h81.5V354.5v-62.7C2997.6,196.7,2925,95,2767.9,95z"/>
		
			<linearGradient id="SVGID_00000163792547190404465520000009707188931893550479_" gradientUnits="userSpaceOnUse" x1="283.2878" y1="15329.2266" x2="283.2878" y2="15713.2568" gradientTransform="matrix(1 0 0 -1 1523.5 15808.249)">
			<stop  offset="0" style="stop-color:#48407D"/>
			<stop  offset="1" style="stop-color:#6A93C9"/>
		</linearGradient>
		<path style="fill:url(#SVGID_00000163792547190404465520000009707188931893550479_);" d="M1995.9,95
			c-90.1,0-152.3,33.4-189.1,79.9c-36.8-46.4-99-79.9-189.1-79.9c-157.2,0-229.8,101.7-229.8,196.8v62.7V479h81.5V354.5v-62.7
			c0-68.8,36.9-131.9,148.3-131.9S1766,223,1766,291.8v62.7V479h81.5V354.5v-62.7c0-68.8,36.9-131.9,148.3-131.9
			s148.3,63.1,148.3,131.9v62.7V479h81.5V354.5v-62.7C2225.7,196.7,2153,95,1995.9,95z"/>
		<g>
			<g>
				
					<linearGradient id="SVGID_00000113321111285482553480000004204943816947271844_" gradientUnits="userSpaceOnUse" x1="856.9968" y1="15329.2266" x2="856.9968" y2="15713.2568" gradientTransform="matrix(1 0 0 -1 1523.5 15808.249)">
					<stop  offset="0" style="stop-color:#48407D"/>
					<stop  offset="1" style="stop-color:#6A93C9"/>
				</linearGradient>
				<path style="fill:url(#SVGID_00000113321111285482553480000004204943816947271844_);" d="M2339.8,479h81.5V228.5h-81.5V479z
					 M2339.8,95v64.9h81.5V95H2339.8z"/>
			</g>
		</g>
		<g>
			<g>
				
					<linearGradient id="SVGID_00000000190088751211750830000001529197278589587091_" gradientUnits="userSpaceOnUse" x1="1629.4265" y1="15329.2266" x2="1629.4265" y2="15713.2568" gradientTransform="matrix(1 0 0 -1 1523.5 15808.249)">
					<stop  offset="0" style="stop-color:#48407D"/>
					<stop  offset="1" style="stop-color:#6A93C9"/>
				</linearGradient>
				<path style="fill:url(#SVGID_00000000190088751211750830000001529197278589587091_);" d="M3112.2,479h81.5V228.5h-81.5V479z
					 M3112.2,95v64.9h81.5V95H3112.2z"/>
			</g>
		</g>
		
			<linearGradient id="SVGID_00000016779893804708028020000003678977862024349336_" gradientUnits="userSpaceOnUse" x1="2047.5929" y1="15328.5156" x2="2047.5929" y2="15808.249" gradientTransform="matrix(1 0 0 -1 1523.5 15808.249)">
			<stop  offset="0" style="stop-color:#48407D"/>
			<stop  offset="1" style="stop-color:#6A93C9"/>
		</linearGradient>
		<path style="fill:url(#SVGID_00000016779893804708028020000003678977862024349336_);" d="M3760.2,0
			c-157.2,0-229.8,101.7-229.8,196.8v86.2c0,68.8-36.9,131.9-148.3,131.9h-78.8v64.9h78.8c157.2,0,229.8-101.7,229.8-196.8v-86.2
			c0-68.8,36.9-131.9,148.3-131.9h78.8V0H3760.2z"/>
	</g>
	<g>
		<g>
			<path class="st50" d="M215.4,478v-64.4H239c16.7,0,21,8.3,21,18c0,14.4-12.8,18-24.7,18h-13.8V478H215.4 M235.5,444.4
				c11.3,0,18.4-2.3,18.4-13.3c0-8-5.2-12.4-16.7-12.4h-15.7v25.6L235.5,444.4L235.5,444.4z"/>
			<rect x="268.1" y="413.6" class="st50" width="5.4" height="64.4"/>
			<path class="st50" d="M308,451c2-0.2,5.3-0.7,7.1-1.5c1.8-0.8,1.9-3.2,1.9-4.8c0-5.5-3.2-9.4-11.5-9.4c-7.4,0-12.5,2.4-13.5,10.5
				h-5.4c0.8-10.9,8.9-15.3,19-15.3c9.4,0,16.8,3.7,16.8,14.4v25.2c0,4.2,1.1,5.2,5.6,3.6v4.2c-0.8,0.3-2.7,0.9-4.2,0.9
				c-0.9,0-1.6-0.1-2.4-0.3c-3.6-0.5-4.2-3.6-4.3-6.9c-4.5,5-10.6,7.7-17.3,7.7c-8.1,0-15.5-4.4-15.5-13.3c0-7.8,5.3-12.5,16.2-13.9
				L308,451 M317.1,453.7c-4.6,1.9-9.2,2.2-13.9,2.6c-8.1,0.6-13.1,3.6-13.1,9.8c0,5.7,4.9,8.3,10,8.3c8.5,0,16.9-4.1,16.9-13.5
				L317.1,453.7L317.1,453.7z"/>
			<path class="st50" d="M335.6,490.6c1.4,0.3,3,0.5,4.5,0.5c6.1,0,7-8.8,9-12.8l-18-46.7h6l14.9,39.8l14.9-39.8h5.8l-17.3,45.7
				c-4.4,11.6-7.3,18.9-14.6,18.9c-1.9,0-3.7-0.3-5.1-0.6V490.6"/>
			<path class="st50" d="M385.4,458.8c1,11.5,8.7,15.7,18.5,15.7c11.5,0,16.3-6.2,16.3-13.3c0-20-39.3-6.7-39.3-32.1
				c0-9,7.4-17.3,21.8-17.3c14.5,0,21.7,8.8,21.7,19.2h-5.8c0-9.8-7.6-14-15.8-14c-12.3,0-16.8,7.6-15.7,14.2
				c2.8,16.7,39.3,4.7,39.3,29.6c0,11.8-8.7,18.8-23.5,18.8c-13.4,0-23.3-7-23.3-20.9L385.4,458.8"/>
			<path class="st50" d="M454.3,478.2c-1.2,0.3-3.6,1.1-6.2,1.1c-5.3,0-8.2-2.3-8.2-9.2v-33.9h-6.5v-4.5h6.5v-12.9h5.3v12.9h8.7v4.5
				h-8.7v31.8c0,4.5,0.2,6.5,4.7,6.5c1.4,0,3-0.3,4.4-0.6V478.2"/>
			<path class="st50" d="M485.6,451c2-0.2,5.3-0.7,7.1-1.5c1.8-0.8,2-3.2,2-4.8c0-5.5-3.2-9.4-11.5-9.4c-7.4,0-12.5,2.4-13.5,10.5
				h-5.4c0.8-10.9,9-15.3,19-15.3c9.4,0,16.8,3.7,16.8,14.4v25.2c0,4.2,1.1,5.2,5.6,3.6v4.2c-0.8,0.3-2.7,0.9-4.2,0.9
				c-0.9,0-1.6-0.1-2.4-0.3c-3.6-0.5-4.2-3.6-4.3-6.9c-4.5,5-10.6,7.7-17.3,7.7c-8.1,0-15.5-4.4-15.5-13.3c0-7.8,5.3-12.5,16.2-13.9
				L485.6,451 M494.6,453.7c-4.6,1.9-9.2,2.2-13.9,2.6c-8.1,0.6-13,3.6-13,9.8c0,5.7,4.9,8.3,10,8.3c8.5,0,16.9-4.1,16.9-13.5V453.7
				z"/>
			<path class="st50" d="M531.6,478.2c-1.3,0.3-3.6,1.1-6.2,1.1c-5.3,0-8.2-2.3-8.2-9.2v-33.9h-6.5v-4.5h6.5v-12.9h5.4v12.9h8.7v4.5
				h-8.7v31.8c0,4.5,0.2,6.5,4.6,6.5c1.4,0,3-0.3,4.4-0.6L531.6,478.2"/>
			<path class="st50" d="M542.1,413.6h5.9v8h-5.9V413.6z M542.3,431.7h5.3V478h-5.3V431.7z"/>
			<path class="st50" d="M557.9,454.9c0-13.5,7.2-24.4,21.5-24.4c14.5,0,21.5,10.8,21.5,24.4c0,14.7-8.5,24.4-21.5,24.4
				C567.6,479.1,557.9,471,557.9,454.9 M579.4,435.3c-11.3,0-15.7,9.6-15.7,19.6c0,11.5,5.4,19.6,15.7,19.6
				c11.3,0,15.7-9.7,15.7-19.6C595,444,590.7,435.3,579.4,435.3z"/>
			<path class="st50" d="M613.8,478h-5.3v-46.3h5.3v6.4c4.3-4.5,8.5-7.7,15-7.7c5.7,0,10.8,1.8,14.1,6.6c2.2,3.3,2.4,6.8,2.4,10.7
				V478h-5.4v-30.2c0-8.3-3.4-12.5-12-12.5c-6.6,0-11.2,4.3-12.9,9c-1.1,3-1.2,5.6-1.2,8.8L613.8,478"/>
			<path class="st50" d="M687.8,478v-64.4h23.5c16.7,0,21,8.3,21,18c0,14.4-12.8,18-24.7,18h-13.8V478H687.8 M707.8,444.4
				c11.3,0,18.4-2.3,18.4-13.3c0-8-5.2-12.4-16.7-12.4h-15.7v25.6L707.8,444.4L707.8,444.4z"/>
			<path class="st50" d="M734.8,454.9c0-13.5,7.2-24.4,21.5-24.4c14.5,0,21.5,10.8,21.5,24.4c0,14.7-8.5,24.4-21.5,24.4
				C744.5,479.1,734.8,471,734.8,454.9 M756.2,435.3c-11.3,0-15.7,9.6-15.7,19.6c0,11.5,5.4,19.6,15.7,19.6
				c11.3,0,15.7-9.7,15.7-19.6C771.9,444,767.6,435.3,756.2,435.3z"/>
			<path class="st50" d="M791,478h-5.3v-46.3h5.3v8.7h0.2c3-7.4,7.3-9.9,15.1-9.9v5.8c-12.1-0.3-15.3,8.7-15.3,19.1V478"/>
			<path class="st50" d="M836.3,478.2c-1.3,0.3-3.6,1.1-6.2,1.1c-5.3,0-8.2-2.3-8.2-9.2v-33.9h-6.5v-4.5h6.5v-12.9h5.4v12.9h8.7v4.5
				h-8.7v31.8c0,4.5,0.2,6.5,4.6,6.5c1.4,0,3-0.3,4.4-0.6L836.3,478.2"/>
			<path class="st50" d="M865.7,451c2-0.2,5.3-0.7,7.1-1.5c1.8-0.8,2-3.2,2-4.8c0-5.5-3.2-9.4-11.5-9.4c-7.4,0-12.5,2.4-13.5,10.5
				h-5.4c0.8-10.9,8.9-15.3,19-15.3c9.4,0,16.8,3.7,16.8,14.4v25.2c0,4.2,1.1,5.2,5.6,3.6v4.2c-0.8,0.3-2.7,0.9-4.2,0.9
				c-0.9,0-1.6-0.1-2.4-0.3c-3.6-0.5-4.2-3.6-4.3-6.9c-4.5,5-10.6,7.7-17.3,7.7c-8.1,0-15.5-4.4-15.5-13.3c0-7.8,5.3-12.5,16.2-13.9
				L865.7,451 M874.8,453.7c-4.6,1.9-9.2,2.2-13.9,2.6c-8.1,0.6-13,3.6-13,9.8c0,5.7,4.9,8.3,10,8.3c8.5,0,16.9-4.1,16.9-13.5V453.7
				z"/>
			<path class="st50" d="M901.5,478h-5.3v-64.4h5.3v25.5c3.4-5.7,10-8.7,16.6-8.7c14.1,0,20.6,11.5,20.6,24.5
				c0,13.7-6,24.3-20.9,24.3c-5.9,0-13-3.3-16.1-9.4h-0.2L901.5,478 M917.2,474.4c9,0,15.7-6.5,15.8-18.2c0.4-11.6-4.7-21-15.8-21
				c-9.7,0-15.6,9-15.6,19.4C901.5,465.9,907,474.4,917.2,474.4z"/>
			<rect x="950.5" y="413.6" class="st50" width="5.3" height="64.4"/>
			<path class="st50" d="M972.4,456.1c-0.1,10,5.3,18.3,15.6,18.3c6.9,0,12.4-3.8,14-10.6h6c-2.7,8.8-8.2,15.5-20,15.5
				c-14.9,0-21.3-10.6-21.3-24.2c0-13.5,8.1-24.6,21.3-24.6c12.7,0,20.5,9,20.4,25.7L972.4,456.1 M1002.7,451.7
				c0-9.1-5-16.4-14.7-16.4c-9.5,0-14.5,7.6-15.6,16.4H1002.7z"/>
			<polyline class="st50" points="861.2,208.5 861.2,306.9 846,306.9 846,193.4 1213.7,193.4 1213.7,110.1 846,110.1 846,95 
				1228.9,95 1228.9,208.5 861.2,208.5 			"/>
			<path class="st50" d="M655.6,464.9c0-2.9,1.1-5.6,3.2-7.7c2-2,4.8-3.2,7.7-3.2c2.9,0,5.6,1.1,7.7,3.2c2,2,3.2,4.8,3.2,7.7
				c0,6-4.9,10.9-10.9,10.9c-2.9,0-5.6-1.1-7.7-3.2C656.7,470.6,655.6,467.8,655.6,464.9 M666.4,478c3.5,0,6.7-1.3,9.2-3.8
				c2.5-2.5,3.8-5.8,3.8-9.2s-1.4-6.7-3.8-9.2c-2.5-2.5-5.8-3.8-9.2-3.8c-7.2,0-13,5.9-13,13c0,3.5,1.3,6.8,3.8,9.2
				C659.6,476.6,662.9,478,666.4,478"/>
			<path class="st50" d="M670,461.6c0,0.8-0.2,1.4-0.6,1.7c-0.5,0.3-1.1,0.4-1.9,0.4h-4.1v-4.1h4.3c0.5,0,1,0.1,1.4,0.3
				C669.7,460.2,670,460.8,670,461.6 M672.8,471c-0.2-0.1-0.3-0.3-0.4-0.6c0-0.3-0.1-0.6-0.1-1.1l0-1.8c0-0.9-0.2-1.6-0.5-1.9
				c-0.2-0.3-0.5-0.5-0.9-0.7c0.4-0.3,0.9-0.6,1.1-1.1c0.3-0.5,0.5-1.3,0.5-2.2c0-1.7-0.7-2.9-2.1-3.5c-0.7-0.3-1.7-0.5-2.8-0.5
				h-6.8V472h2.5V466h4c0.7,0,1.3,0.1,1.6,0.2c0.5,0.2,0.8,0.7,0.8,1.5l0.1,2.3c0,0.5,0.1,0.9,0.1,1.1c0,0.2,0.1,0.4,0.2,0.5
				l0.1,0.2h2.8v-0.9L672.8,471"/>
			<polyline class="st50" points="0,95 382.9,95 382.9,208.5 15.2,208.5 15.2,306.9 0,306.9 0,193.4 367.8,193.4 367.8,110.1 
				0,110.1 0,95 			"/>
			<polyline class="st50" points="578.2,95 578.2,291.8 382.9,291.8 382.9,306.9 594.1,306.9 594.1,110.1 789.5,110.1 789.5,95 
				578.2,95 			"/>
		</g>
	</g>
</g>
</svg>
