<?xml version="1.0" encoding="utf-8"?>
<!-- Generator: Adobe Illustrator 26.3.1, SVG Export Plug-In . SVG Version: 6.00 Build 0)  -->
<svg version="1.1" id="Layer_1" xmlns="http://www.w3.org/2000/svg" xmlns:xlink="http://www.w3.org/1999/xlink" x="0px" y="0px"
	 viewBox="0 0 3839 977.3" style="enable-background:new 0 0 3839 977.3;" xml:space="preserve">
<style type="text/css">
	.st0{display:none;}
	.st1{display:inline;}
	.st2{fill:#FF0000;}
	.st3{fill:#FFFFFF;}
	.st4{fill-rule:evenodd;clip-rule:evenodd;fill:#FF0000;}
	.st5{fill-rule:evenodd;clip-rule:evenodd;fill:#FFFFFF;}
	.st6{fill-rule:evenodd;clip-rule:evenodd;}
	.st7{font-family:'HelveticaNeueLTStd-BdEx';}
	.st8{font-size:208.8854px;}
	.st9{letter-spacing:104;}
</style>
<g id="old_not_used" class="st0">
</g>
<g id="not_outlined" class="st0">
	<g class="st1">
		<g>
			<g>
				<rect x="557.8" class="st2" width="203.1" height="706.1"/>
				<polygon class="st2" points="0,173.1 148.4,173.1 148.4,175.3 148.4,701.7 148.4,706.1 351.5,706.1 351.5,701.7 351.5,175.3 
					351.5,173.1 499.8,173.1 499.8,0 0,0 				"/>
				<path class="st2" d="M1117.9,0C915.6,0,808,176.5,808,353.1s107.8,353.1,309.9,353.1c0-29,0,0,0,0h365v-4.4V533v-93.5V266.4l0,0
					h-358.3v173.1h155.2V533h-103.4l0,0c-239.8,0-239.8-359.9,0-359.9l0,0H1483V0H1117.9C1117.9,0,1117.9,29,1117.9,0z"/>
				<path class="st2" d="M3718,296.6c-56.3-30-124,12.8-124,76.5c0,4.4,0,8.8,0,13.2c0,25.2,12.6,47.7,31.4,64.3
					c28,24.8,17.4,82.3-31.4,82.3l0,0h-921.8v-67.5c0-28-16-52.1-39.1-63.9c51.3-41.5,83.5-111.6,83.5-181.5
					C2716.5,110,2638,0,2529.2,0l0,0h-324.3l0,0h-101.4v478.3h203.1V173.1h152.2c25.4,0,47.9,19,49.3,44.1c1.4,27-20,49.1-46.5,49.1
					h-98.9v173.1h57.1c27.4,0,49.5,22.2,49.5,49.5v217.1h203.1l0,0h921.8l0,0c146.6,0,244.8-109.8,244.8-219.9
					C3838.6,411.6,3793.1,336.7,3718,296.6z"/>
				<path class="st2" d="M433.1,186.7c-36.7,0-66.7,30-66.7,66.7s30,66.7,66.7,66.7s66.7-30,66.7-66.7
					C499.8,216.5,469.9,186.7,433.1,186.7z"/>
				<path class="st2" d="M66.7,186.7C30,186.7,0,216.7,0,253.4s30,66.7,66.7,66.7s66.7-30,66.7-66.7
					C133.4,216.5,103.6,186.7,66.7,186.7z"/>
				<path class="st2" d="M1760.7,486.3c0-25.8,21-46.7,46.7-46.7h258.6V266.4h-258.6c-25.8,0-46.7-21-46.7-46.7s21-46.7,46.7-46.7
					h258.6V0h-323.9l0,0h-33.3c-100.6,0-182.1,81.7-182.1,182.1v26c0,80.1,62.7,144.8,82.5,144.8c-19.8,0-82.5,64.9-82.5,144.8v26
					c0,100.6,81.5,182.1,182.1,182.1h33.3l0,0h564.5V532.6h-499C1781.5,533,1760.7,512,1760.7,486.3z"/>
			</g>
		</g>
		<text transform="matrix(1 0 0 1 133.1167 973.1075)" class="st2 st7 st8 st9">LCD HANDHELDS</text>
	</g>
</g>
<g>
	<g>
		<g>
			<rect x="557.8" class="st2" width="203.1" height="706.1"/>
			<polygon class="st2" points="0,173.1 148.4,173.1 148.4,175.3 148.4,701.7 148.4,706.1 351.5,706.1 351.5,701.7 351.5,175.3 
				351.5,173.1 499.8,173.1 499.8,0 0,0 			"/>
			<path class="st2" d="M1117.9,0C915.6,0,808,176.5,808,353.1s107.8,353.1,309.9,353.1c0-29,0,0,0,0h365v-4.4V533v-93.5V266.4l0,0
				h-358.3v173.1h155.2V533h-103.4l0,0c-239.8,0-239.8-359.9,0-359.9l0,0H1483V0H1117.9C1117.9,0,1117.9,29,1117.9,0z"/>
			<path class="st2" d="M3718,296.6c-56.3-30-124,12.8-124,76.5c0,4.4,0,8.8,0,13.2c0,25.2,12.6,47.7,31.4,64.3
				c28,24.8,17.4,82.3-31.4,82.3l0,0h-921.8v-67.5c0-28-16-52.1-39.1-63.9c51.3-41.5,83.5-111.6,83.5-181.5
				C2716.5,110,2638,0,2529.2,0l0,0h-324.3l0,0h-101.4v478.3h203.1V173.1h152.2c25.4,0,47.9,19,49.3,44.1c1.4,27-20,49.1-46.5,49.1
				h-98.9v173.1h57.1c27.4,0,49.5,22.2,49.5,49.5v217.1h203.1l0,0h921.8l0,0c146.6,0,244.8-109.8,244.8-219.9
				C3838.6,411.6,3793.1,336.7,3718,296.6z"/>
			<path class="st2" d="M433.1,186.7c-36.7,0-66.7,30-66.7,66.7s30,66.7,66.7,66.7s66.7-30,66.7-66.7
				C499.8,216.5,469.9,186.7,433.1,186.7z"/>
			<path class="st2" d="M66.7,186.7C30,186.7,0,216.7,0,253.4s30,66.7,66.7,66.7s66.7-30,66.7-66.7
				C133.4,216.5,103.6,186.7,66.7,186.7z"/>
			<path class="st2" d="M1760.7,486.3c0-25.8,21-46.7,46.7-46.7h258.6V266.4h-258.6c-25.8,0-46.7-21-46.7-46.7s21-46.7,46.7-46.7
				h258.6V0h-323.9l0,0h-33.3c-100.6,0-182.1,81.7-182.1,182.1v26c0,80.1,62.7,144.8,82.5,144.8c-19.8,0-82.5,64.9-82.5,144.8v26
				c0,100.6,81.5,182.1,182.1,182.1h33.3l0,0h564.5V532.6h-499C1781.5,533,1760.7,512,1760.7,486.3z"/>
		</g>
	</g>
	<g>
		<path class="st2" d="M147.3,824h40.5v119.5h90.9v29.7H147.3V824z"/>
		<path class="st2" d="M528.5,880.4c-3.8-21.5-21.5-32.2-42.6-32.2c-38.4,0-46.6,30.1-46.6,50.3c0,20.3,8.1,50.3,46.6,50.3
			c19.6,0,38.6-9.4,42.6-33h44.1c-5,43.4-40.7,61.4-88.2,61.4c-54.3,0-88.2-23.4-88.2-78.8c0-55.4,33.8-78.8,88.2-78.8
			c35.9,0,81.7,9.2,87.7,60.6H528.5z"/>
		<path class="st2" d="M696.5,824h93c51.2,0,73.3,29.7,73.3,74.6c0,44.9-23,74.6-69.8,74.6h-96.5V824z M737,944.7h45.1
			c26.7,0,38.9-16.1,38.9-47.6c0-27.6-11.7-44.7-42.6-44.7H737V944.7z"/>
		<path class="st2" d="M1172.1,824h40.5v56h84v-56h40.5v149.1h-40.5v-64.8h-84v64.8h-40.5V824z"/>
		<path class="st2" d="M1577.1,942.4h-68.5l-12.1,30.7h-43.7l65.6-149.1h48.9l65.6,149.1h-43.7L1577.1,942.4z M1542.9,856.1
			l-23.4,59.1h46.8L1542.9,856.1z"/>
		<path class="st2" d="M1874.4,824h39.3v149.1h-44.1l-81.3-104h-0.4v104h-39.3V824h47l78.3,104h0.4V824z"/>
		<path class="st2" d="M2046.5,824h93c51.2,0,73.3,29.7,73.3,74.6c0,44.9-23,74.6-69.8,74.6h-96.5V824z M2087,944.7h45.1
			c26.7,0,38.9-16.1,38.9-47.6c0-27.6-11.7-44.7-42.6-44.7H2087V944.7z"/>
		<path class="st2" d="M2340.4,824h40.5v56h84v-56h40.5v149.1h-40.5v-64.8h-84v64.8h-40.5V824z"/>
		<path class="st2" d="M2638.3,824h139.3v28.4h-98.8v30.9h93.8v27.2h-93.8v34.3h99.6v28.4h-140.2V824z"/>
		<path class="st2" d="M2905.2,824h40.5v119.5h90.9v29.7h-131.4V824z"/>
		<path class="st2" d="M3160.5,824h93c51.2,0,73.3,29.7,73.3,74.6c0,44.9-23,74.6-69.8,74.6h-96.5V824z M3201,944.7h45.1
			c26.7,0,38.9-16.1,38.9-47.6c0-27.6-11.7-44.7-42.6-44.7H3201V944.7z"/>
		<path class="st2" d="M3555.3,867.2c-2.5-19.4-21.1-21.5-37.4-21.5c-16.7,0-27.6,7.5-27.6,17.5c0,7.9,6.7,12.3,17.1,14l50.8,8.1
			c27.2,4.4,47.8,14.6,47.8,41.8c0,27.8-18.8,50.1-77.5,50.1c-36.3,0-83.6-4.6-84-51.2h45.5c0.4,20.5,20.9,24,38.4,24
			c19,0,32-5.6,32-18.6c0-11.5-9.2-14.6-25.3-17.1l-37-5.6c-25.9-4-51-11.7-51-42.2c0-33.2,27.2-46.8,73.9-46.8
			c30.7,0,76.2,5.2,79,47.4H3555.3z"/>
	</g>
</g>
</svg>
