<?xml version="1.0" encoding="utf-8"?>
<!-- Generator: Adobe Illustrator 26.0.3, SVG Export Plug-In . SVG Version: 6.00 Build 0)  -->
<svg version="1.1" id="Layer_1" xmlns="http://www.w3.org/2000/svg" xmlns:xlink="http://www.w3.org/1999/xlink" x="0px" y="0px"
	 viewBox="0 0 3838.9 862.3" style="enable-background:new 0 0 3838.9 862.3;" xml:space="preserve">
<style type="text/css">
	.st0{fill:#FFFFFF;}
	.st1{fill:#FF0000;}
	.st2{fill:#00A336;}
	.st3{fill:#00FFFE;}
</style>
<g>
	<g>
		<path class="st0" d="M239.1,457.3c-17.3-25.3-39.6-41.3-70-41.3c-29.1,0-57,24-57,56.6c0,84.6,185.2,49.3,185.2,217.8
			c0,100.6-58.2,171.8-153.6,171.8c-64.4,0-111.5-40-143.7-97.9l58.8-61.9C71.2,741,104,775.7,143,775.7c37.2,0,60.1-34,60.1-72.6
			c0-51.9-44.6-66.6-81.1-81.9C61.9,594.5,18,561.9,18,484c0-83.2,57.6-150.5,136.3-150.5c41.5,0,99.1,22,127.6,55.9L239.1,457.3z"
			/>
		<path class="st0" d="M361.1,346.8h91v281c0,61.9,5,149.2,82.4,149.2s82.4-87.2,82.4-149.2v-281h91v300.4
			c0,122.5-48.3,215.1-173.4,215.1s-173.4-92.6-173.4-215.1V346.8z"/>
		<path class="st0" d="M882,848.9h-91V346.8h123.9c97.9,0,161.6,42,161.6,155.8c0,106.6-53.9,158.5-149.3,158.5H882V848.9z
			 M882,579.9h18.6c53.9,0,83-12.7,83-77.9c0-64.6-34.7-73.9-85.5-73.9H882V579.9z"/>
		<path class="st0" d="M1227.6,432v110.6h144.9v85.2h-144.9v135.9h150.5v85.2h-241.5V346.8h241.5V432H1227.6z"/>
		<path class="st0" d="M1773.3,848.9h-110.2l-113.3-202.5h-1.2v202.5h-91V346.8h123.2c92.3,0,156.1,44,156.1,151.2
			c0,63.9-32.8,127.9-95.4,139.2L1773.3,848.9z M1548.5,577.9h11.8c50.2,0,85.5-16,85.5-77.3c0-61.9-36.5-73.9-84.8-73.9h-12.4
			L1548.5,577.9L1548.5,577.9z"/>
		<path class="st0" d="M1989.5,685.1h1.2l104-338.3h97.9l-181.5,515.5h-53.3l-178.4-515.5h97.9L1989.5,685.1z"/>
		<path class="st0" d="M2327.1,848.9h-91V346.8h91V848.9z"/>
		<path class="st0" d="M2631.8,457.3c-17.3-25.3-39.6-41.3-70-41.3c-29.1,0-57,24-57,56.6c0,84.6,185.2,49.3,185.2,217.8
			c0,100.6-58.2,171.8-153.6,171.8c-64.4,0-111.5-40-143.7-97.9l58.8-61.9c12.4,38.6,45.2,73.3,84.2,73.3c37.2,0,60.1-34,60.1-72.6
			c0-51.9-44.6-66.6-81.1-81.9c-60.1-26.6-104-59.3-104-137.2c0-83.2,57.6-150.5,136.3-150.5c41.5,0,99.1,22,127.6,55.9
			L2631.8,457.3z"/>
		<path class="st0" d="M2847.4,848.9h-91V346.8h91V848.9z"/>
		<path class="st0" d="M3435.2,333.5h65.6l245.9,351h1.2V346.8h91v512.1h-65.6l-245.9-351h-1.2v341h-91V333.5z"/>
		<path class="st0" d="M3008.6,640.3c-3-15.8-4.5-31.8-4.5-47.1c0-81.2,50.8-163.2,136.9-163.2c86.1,0,136.9,81.9,136.9,163.2
			c0,15.3-1.5,31.3-4.5,47.1l60.5,110c24.7-43.1,38.2-95.8,38.2-153.2c0-149.2-91.7-263.7-231-263.7c-139.4,0-231,114.5-231,263.7
			c0,57.4,13.5,110.1,38.2,153.2L3008.6,640.3z"/>
		<polygon class="st1" points="3140.9,499.9 2949.1,848.9 3332.8,848.9 		"/>
	</g>
	<g>
		<g>
			<polygon class="st0" points="1757.8,0 1672.5,0 1709.9,114.1 			"/>
		</g>
		<polyline class="st0" points="1655.1,199 1732,16.3 1743.6,34 1737.4,48.6 1666.6,216.9 		"/>
		<polyline class="st0" points="1502.7,250.7 1601.3,16.3 1612.9,34 1521.7,250.7 		"/>
		<g>
			<polygon class="st0" points="1408.6,0 1490.8,250.7 1502.7,250.7 1554.5,127.7 1512.6,0 			"/>
		</g>
		<polygon class="st0" points="1652.4,250.7 1694.2,151.4 1644.6,0 1540.5,0 1622.7,250.7 		"/>
		<polygon class="st0" points="2430.4,27.8 1789.7,27.8 1800.9,0 2430.4,0 		"/>
		<polygon class="st0" points="2430.4,250.7 1699.6,250.7 1710.8,223 2430.4,223 		"/>
		<g>
			<path class="st0" d="M1789,55.5h-7.4l-4.6,10.8l-53.5,128.8h51.2v-7.4l-12-6.8c-3.1-1.7-5-5-5-8.6v-3.5h29.6l13.7,26.3h64.5
				L1789,55.5z M1760.6,151.3l7.9-18.8l9.8,18.8H1760.6z"/>
		</g>
		<g>
			<path class="st0" d="M2038.9,55.5h-7.4l-4.6,10.8l-53.5,128.8h51.2v-7.4l-12-6.8c-3.1-1.7-5-5-5-8.6v-3.5h29.6l13.7,26.3h64.5
				L2038.9,55.5z M2010.5,151.3l7.9-18.8l9.8,18.8H2010.5z"/>
		</g>
		<g>
			<path class="st0" d="M2353.8,55.5h-7.4l-4.6,10.8l-53.5,128.8h51.2v-7.4l-12-6.8c-3.1-1.7-5-5-5-8.6v-3.5h29.6l13.7,26.3h64.5
				L2353.8,55.5z M2325.4,151.3l7.9-18.8l9.8,18.8H2325.4z"/>
		</g>
		<path class="st0" d="M1863.5,55.5h-17.6v17.6v30.5h17.6c0-13.2,7.9-21.8,13.8-26.4c3.4-2.7,7.6-4.1,12-4.1l0,0v122.1h57.3V73.1
			l0,0c4.3,0,8.6,1.4,12,4.1c5.9,4.6,13.8,13.2,13.8,26.4h17.6V73.1V55.8v-0.3H1863.5z"/>
		<path class="st0" d="M2238.5,114.1h-3.3c16.2,0,29.3-4.9,29.3-29.3l0,0c0-24.4-13.1-29.3-29.3-29.3h-28l0,0h-74.9v16.9v0.7v122.1
			h57.3v-72.4h17.6v72.4h64.4v-38C2271.6,138.9,2256.8,114.1,2238.5,114.1z M2189.6,73.1h17.6v32.2h-17.6V73.1z"/>
	</g>
</g>
</svg>
