<?xml version="1.0" encoding="utf-8"?>
<!-- Generator: Adobe Illustrator 25.4.1, SVG Export Plug-In . SVG Version: 6.00 Build 0)  -->
<svg version="1.1" id="Layer_1" xmlns="http://www.w3.org/2000/svg" xmlns:xlink="http://www.w3.org/1999/xlink" x="0px" y="0px"
	 viewBox="0 0 3839 914.5" style="enable-background:new 0 0 3839 914.5;" xml:space="preserve">
<style type="text/css">
	.st0{fill:#FFFFFF;}
</style>
<g>
	<g>
		<g>
			<circle class="st0" cx="31.9" cy="31.9" r="31.9"/>
			<circle class="st0" cx="31.9" cy="126.4" r="31.9"/>
			<circle class="st0" cx="31.9" cy="220.9" r="31.9"/>
			<circle class="st0" cx="31.9" cy="315.4" r="31.9"/>
			<circle class="st0" cx="31.9" cy="410" r="31.9"/>
		</g>
		<g>
			<circle class="st0" cx="74.6" cy="79.1" r="31.9"/>
			<circle class="st0" cx="74.6" cy="268.2" r="31.9"/>
			<circle class="st0" cx="74.6" cy="362.7" r="31.9"/>
			<circle class="st0" cx="74.6" cy="457.2" r="31.9"/>
			<circle class="st0" cx="74.6" cy="835.4" r="31.9"/>
		</g>
		<g>
			<circle class="st0" cx="117.3" cy="31.9" r="31.9"/>
			<circle class="st0" cx="117.3" cy="315.4" r="31.9"/>
			<circle class="st0" cx="117.3" cy="410" r="31.9"/>
			<circle class="st0" cx="117.3" cy="504.5" r="31.9"/>
		</g>
		<g>
			<circle class="st0" cx="160.1" cy="173.7" r="31.9"/>
			<circle class="st0" cx="160.1" cy="362.7" r="31.9"/>
			<circle class="st0" cx="160.1" cy="457.2" r="31.9"/>
			<circle class="st0" cx="160.1" cy="551.8" r="31.9"/>
			<circle class="st0" cx="160.1" cy="835.4" r="31.9"/>
		</g>
		<g>
			<circle class="st0" cx="202.8" cy="31.9" r="31.9"/>
			<circle class="st0" cx="202.8" cy="126.4" r="31.9"/>
			<circle class="st0" cx="202.8" cy="220.9" r="31.9"/>
			<circle class="st0" cx="202.8" cy="410" r="31.9"/>
			<circle class="st0" cx="202.8" cy="504.5" r="31.9"/>
			<circle class="st0" cx="202.8" cy="599" r="31.9"/>
		</g>
		<g>
			<circle class="st0" cx="245.5" cy="173.7" r="31.9"/>
			<circle class="st0" cx="245.5" cy="362.7" r="31.9"/>
			<circle class="st0" cx="245.5" cy="457.2" r="31.9"/>
			<circle class="st0" cx="245.5" cy="551.8" r="31.9"/>
			<circle class="st0" cx="245.5" cy="646.3" r="31.9"/>
			<circle class="st0" cx="245.5" cy="835.4" r="31.9"/>
		</g>
		<g>
			<circle class="st0" cx="288.3" cy="31.9" r="31.9"/>
			<circle class="st0" cx="288.3" cy="410" r="31.9"/>
			<circle class="st0" cx="288.3" cy="504.5" r="31.9"/>
			<circle class="st0" cx="288.3" cy="599" r="31.9"/>
			<circle class="st0" cx="288.3" cy="693.6" r="31.9"/>
			<g>
				<circle class="st0" cx="288.3" cy="788.1" r="31.9"/>
			</g>
		</g>
		<g>
			<circle class="st0" cx="331" cy="79.1" r="31.9"/>
			<circle class="st0" cx="331" cy="268.2" r="31.9"/>
			<circle class="st0" cx="331" cy="362.7" r="31.9"/>
			<circle class="st0" cx="331" cy="457.2" r="31.9"/>
			<circle class="st0" cx="331" cy="551.8" r="31.9"/>
			<circle class="st0" cx="331" cy="646.3" r="31.9"/>
			<circle class="st0" cx="331" cy="740.8" r="31.9"/>
			<circle class="st0" cx="331" cy="835.4" r="31.9"/>
		</g>
		<g>
			<circle class="st0" cx="373.7" cy="31.9" r="31.9"/>
			<circle class="st0" cx="373.7" cy="126.4" r="31.9"/>
			<circle class="st0" cx="373.7" cy="315.4" r="31.9"/>
			<circle class="st0" cx="373.7" cy="410" r="31.9"/>
			<circle class="st0" cx="373.7" cy="504.5" r="31.9"/>
			<circle class="st0" cx="373.7" cy="599" r="31.9"/>
			<circle class="st0" cx="373.7" cy="693.6" r="31.9"/>
		</g>
		<g>
			<circle class="st0" cx="416.5" cy="79.1" r="31.9"/>
			<circle class="st0" cx="416.5" cy="268.2" r="31.9"/>
			<circle class="st0" cx="416.5" cy="362.7" r="31.9"/>
			<circle class="st0" cx="416.5" cy="457.2" r="31.9"/>
			<circle class="st0" cx="416.5" cy="551.8" r="31.9"/>
			<circle class="st0" cx="416.5" cy="646.3" r="31.9"/>
			<circle class="st0" cx="416.5" cy="835.4" r="31.9"/>
		</g>
		<g>
			<circle class="st0" cx="459.2" cy="31.9" r="31.9"/>
			<circle class="st0" cx="459.2" cy="599" r="31.9"/>
			<circle class="st0" cx="459.2" cy="693.6" r="31.9"/>
			<g>
				<circle class="st0" cx="459.2" cy="788.1" r="31.9"/>
			</g>
		</g>
		<g>
			<circle class="st0" cx="501.9" cy="173.7" r="31.9"/>
			<circle class="st0" cx="501.9" cy="362.7" r="31.9"/>
			<circle class="st0" cx="501.9" cy="646.3" r="31.9"/>
			<circle class="st0" cx="501.9" cy="740.8" r="31.9"/>
			<circle class="st0" cx="501.9" cy="835.4" r="31.9"/>
		</g>
		<g>
			<circle class="st0" cx="544.6" cy="31.9" r="31.9"/>
			<circle class="st0" cx="544.6" cy="126.4" r="31.9"/>
			<circle class="st0" cx="544.6" cy="220.9" r="31.9"/>
			<circle class="st0" cx="544.6" cy="693.6" r="31.9"/>
		</g>
		<g>
			<circle class="st0" cx="587.4" cy="173.7" r="31.9"/>
			<circle class="st0" cx="587.4" cy="362.7" r="31.9"/>
			<circle class="st0" cx="587.4" cy="740.8" r="31.9"/>
		</g>
		<g>
			<circle class="st0" cx="630.1" cy="31.9" r="31.9"/>
			<circle class="st0" cx="630.1" cy="315.4" r="31.9"/>
			<g>
				<circle class="st0" cx="630.1" cy="788.1" r="31.9"/>
			</g>
		</g>
		<g>
			<circle class="st0" cx="672.8" cy="79.1" r="31.9"/>
			<circle class="st0" cx="672.8" cy="268.2" r="31.9"/>
			<circle class="st0" cx="672.8" cy="835.4" r="31.9"/>
		</g>
		<g>
			<circle class="st0" cx="715.6" cy="31.9" r="31.9"/>
			<circle class="st0" cx="715.6" cy="126.4" r="31.9"/>
			<circle class="st0" cx="715.6" cy="220.9" r="31.9"/>
			<circle class="st0" cx="715.6" cy="315.4" r="31.9"/>
			<circle class="st0" cx="715.6" cy="410" r="31.9"/>
			<circle class="st0" cx="715.6" cy="504.5" r="31.9"/>
			<circle class="st0" cx="715.6" cy="599" r="31.9"/>
			<circle class="st0" cx="715.6" cy="693.6" r="31.9"/>
			<g>
				<circle class="st0" cx="715.6" cy="788.1" r="31.9"/>
				<circle class="st0" cx="715.6" cy="882.6" r="31.9"/>
			</g>
		</g>
	</g>
	<g>
		<path class="st0" d="M1164.8,249.5c15.3,7.5,27.1,17,35.4,28.4s13.9,23.5,16.5,36.4c2.6,12.8,4,24.5,4,35.1
			c0,13-1.9,25.1-5.8,36.1c-3.9,11-9.5,20.8-16.8,29.3c-7.3,8.6-16.1,15.6-26.3,21.1c-10.2,5.5-21.4,9.1-33.6,10.7
			c29.7,2,52.8,12.8,69,32.4c16.3,19.6,24.4,45.2,24.4,77c0,13.4-2.3,27.3-7,41.6c-4.7,14.3-12.3,27.2-22.9,38.8
			c-10.6,11.6-24.2,21.1-40.9,28.4c-16.7,7.3-37.3,11-61.7,11H884.1v-40.3h61.7V278.5h-61.1v-40.3h220
			C1129.5,238.2,1149.6,242,1164.8,249.5z M1120.5,424.2c11.8-5.1,21.2-11.6,28.1-19.6c6.9-7.9,11.7-16.8,14.4-26.6
			c2.6-9.8,4-19.3,4-28.7c0-9-1-17.7-3.1-26.3c-2-8.6-6-16.1-11.9-22.6c-5.9-6.5-14-11.8-24.1-15.9c-10.2-4.1-23.4-6.1-39.7-6.1
			h-89.2v153.4h77C1093.8,431.9,1108.7,429.3,1120.5,424.2z M1129.1,625.9c12.6-6.3,22.5-13.8,29.6-22.6
			c7.1-8.8,11.9-17.6,14.4-26.6c2.4-9,3.7-16.3,3.7-22c0-11.8-1.3-22.8-4-33c-2.6-10.2-7-18.9-13.1-26.3
			c-6.1-7.3-14.2-13.1-24.1-17.4c-10-4.3-22.3-6.4-37-6.4h-99.6v163.8h80.7C1100,635.4,1116.5,632.2,1129.1,625.9z"/>
		<path class="st0" d="M1572.4,249.5c15.3,7.5,27.1,17,35.4,28.4s13.9,23.5,16.5,36.4c2.6,12.8,4,24.5,4,35.1
			c0,13-1.9,25.1-5.8,36.1c-3.9,11-9.5,20.8-16.8,29.3c-7.3,8.6-16.1,15.6-26.3,21.1c-10.2,5.5-21.4,9.1-33.6,10.7
			c29.7,2,52.8,12.8,69,32.4c16.3,19.6,24.4,45.2,24.4,77c0,13.4-2.3,27.3-7,41.6c-4.7,14.3-12.3,27.2-22.9,38.8
			c-10.6,11.6-24.2,21.1-40.9,28.4c-16.7,7.3-37.3,11-61.7,11h-215.1v-40.3h61.7V278.5h-61.1v-40.3h220
			C1537,238.2,1557.1,242,1572.4,249.5z M1528.1,424.2c11.8-5.1,21.2-11.6,28.1-19.6c6.9-7.9,11.7-16.8,14.4-26.6
			c2.6-9.8,4-19.3,4-28.7c0-9-1-17.7-3.1-26.3c-2-8.6-6-16.1-11.9-22.6c-5.9-6.5-14-11.8-24.1-15.9c-10.2-4.1-23.4-6.1-39.7-6.1
			h-89.2v153.4h77C1501.4,431.9,1516.3,429.3,1528.1,424.2z M1536.6,625.9c12.6-6.3,22.5-13.8,29.6-22.6
			c7.1-8.8,11.9-17.6,14.4-26.6c2.4-9,3.7-16.3,3.7-22c0-11.8-1.3-22.8-4-33c-2.6-10.2-7-18.9-13.1-26.3
			c-6.1-7.3-14.2-13.1-24.1-17.4c-10-4.3-22.3-6.4-37-6.4h-99.6v163.8h80.7C1507.5,635.4,1524,632.2,1536.6,625.9z"/>
		<path class="st0" d="M2084.7,238.2v155.2h-47.7c-2-35.4-12.8-64.2-32.4-86.2c-19.6-22-47.9-33-84.9-33
			c-46.8,0-82.4,15.5-106.6,46.4c-24.2,31-36.4,74.8-36.4,131.4c0,60.3,11.8,106.5,35.4,138.7c23.6,32.2,58.3,48.3,103.9,48.3
			c34.6,0,61.8-10.1,81.6-30.2c19.8-20.2,30.7-46.9,32.7-80.4h56.2c-1.2,24.8-6.1,46.8-14.7,66c-8.6,19.1-20.3,35.3-35.1,48.6
			c-14.9,13.2-32.6,23.2-53.2,29.9c-20.6,6.7-43.3,10.1-68.1,10.1c-37.1,0-68.2-6.5-93.5-19.6c-25.3-13-45.6-30.2-61.1-51.6
			c-15.5-21.4-26.6-45.5-33.3-72.4c-6.7-26.9-10.1-54.4-10.1-82.5c0-29.7,3.9-58.3,11.6-85.5c7.7-27.3,19.6-51.3,35.4-72.1
			c15.9-20.8,36.2-37.3,60.8-49.5c24.6-12.2,54.1-18.3,88.3-18.3c31.8,0,58.5,6.1,80,18.3c21.6,12.2,37.3,29.5,47.1,51.9v-63.5
			H2084.7z"/>
		<path class="st0" d="M2506.3,612.1l116.7-374h154v40.3h-62.3v356.8h62.3v40.3h-169.9v-40.3h56.2V278.5h-4.3L2529,675.7h-47.7
			l-130.2-397.2h-4.3v356.8h56.8v40.3h-166.2v-40.3h62.9V278.5h-62.9v-40.3h155.8L2506.3,612.1z"/>
		<path class="st0" d="M2917.6,637.2h49.5v38.5h-150.3v-38.5h51.3V392.8h-50.7v-36.1h100.2V637.2z M2921.2,289.5h-56.8v-51.3h56.8
			V289.5z"/>
		<path class="st0" d="M3265.2,356.7V474h-38.5v-5.5c-0.4-10.2-2.5-20.1-6.4-29.6c-3.9-9.6-9.3-18.2-16.2-26
			c-6.9-7.7-15.1-14-24.4-18.6s-19.8-7-31.2-7c-17.1,0-31.7,3.8-43.7,11.3c-12,7.5-21.8,17.2-29.3,29c-7.5,11.8-13,25.3-16.5,40.3
			c-3.5,15.1-5.2,30.1-5.2,45.2c0,15.5,1.9,30.8,5.8,45.8c3.9,15.1,9.7,28.6,17.4,40.6c7.7,12,17.5,21.8,29.3,29.3
			c11.8,7.5,25.7,11.3,41.6,11.3c17.9,0,33.5-5.7,46.7-17.1c13.2-11.4,22.1-27.5,26.6-48.3l1.2-7.3h46.4l-0.6,11
			c-2,15.9-6.6,30.1-13.7,42.8c-7.1,12.6-16.3,23.2-27.5,31.8c-11.2,8.6-24,15.2-38.5,19.9c-14.5,4.7-29.6,7-45.5,7
			c-22.8,0-43.1-4.2-60.8-12.5c-17.7-8.4-32.7-19.9-44.9-34.5c-12.2-14.7-21.6-31.8-28.1-51.3c-6.5-19.6-9.8-40.3-9.8-62.3
			c0-28.5,3.8-53.6,11.3-75.2c7.5-21.6,17.5-39.5,29.9-53.8c12.4-14.3,26.9-25.1,43.4-32.4c16.5-7.3,33.7-11,51.6-11
			c20.8,0,38.5,3.9,53.2,11.6c14.7,7.7,27.3,20.4,37.9,37.9v-39.7H3265.2z"/>
		<path class="st0" d="M3500.2,395.2c-3.5-0.4-6.8-0.6-10.1-0.6c-59.1,0-88.6,39.3-88.6,117.9v124.7h60.5v38.5h-160.7v-38.5h50.7
			V392.8h-50.7v-36.1h100.2v63.5c4.9-13.8,10-25.2,15.3-33.9c5.3-8.8,11.4-15.7,18.3-20.8c6.9-5.1,14.8-8.7,23.5-10.7
			c8.8-2,19.2-3.3,31.5-3.7h20.8v45.8C3507.2,396.2,3503.6,395.6,3500.2,395.2z"/>
		<path class="st0" d="M3798.7,634.7c-26.9,30.1-62.5,45.2-106.9,45.2c-49.7,0-87.2-16.9-112.4-50.7
			c-24.4-33.4-36.7-72.5-36.7-117.3c0-25.7,3.7-48.7,11-69c7.3-20.4,17.6-37.7,30.9-51.9c13.2-14.3,29.1-25.2,47.7-32.7
			c18.5-7.5,39.2-11.3,62-11.3c23.6,0,44.5,4.2,62.6,12.5c18.1,8.4,33.3,20.1,45.5,35.1c12.2,15.1,21.4,32.8,27.5,53.2
			c6.1,20.4,9.2,42.6,9.2,66.6C3839,564.1,3825.6,604.2,3798.7,634.7z M3725,634.7c11.2-5.3,21.5-13.2,30.9-23.8
			c9.8-10.6,17.1-24.4,22-41.6c4.9-17.1,7.3-36.7,7.3-58.7c0-40.3-8.1-71.4-24.4-93.2c-16.3-21.8-39.7-32.7-70.3-32.7
			c-14.7,0-27.9,3-39.7,8.9c-11.8,5.9-21.8,14.3-29.9,25.1c-8.1,10.8-14.5,23.8-18.9,39.1c-4.5,15.3-6.7,32.1-6.7,50.4
			c0,27.7,2.8,49.4,8.2,65.1c5.5,15.7,12.9,28.6,22.3,38.8c18.7,20.4,40.5,30.6,65.4,30.6C3702.5,642.7,3713.8,640,3725,634.7z"/>
	</g>
</g>
</svg>
