<?xml version="1.0" encoding="utf-8"?>
<!-- Generator: Adobe Illustrator 25.4.1, SVG Export Plug-In . SVG Version: 6.00 Build 0)  -->
<svg version="1.1" id="Layer_1" xmlns="http://www.w3.org/2000/svg" xmlns:xlink="http://www.w3.org/1999/xlink" x="0px" y="0px"
	 viewBox="0 0 3839 1403.2" style="enable-background:new 0 0 3839 1403.2;" xml:space="preserve">
<style type="text/css">
	.st0{fill:#020202;}
	.st1{fill:#FFFFFF;}
	.st2{clip-path:url(#SVGID_00000130605670096236092960000011820116861251179414_);}
	.st3{fill:#243787;}
	.st4{fill:#231F20;}
	.st5{fill:#F17100;}
	.st6{fill:#E50069;}
	.st7{fill:#FCEC01;}
	.st8{fill:#00771F;}
	.st9{fill:#89BC27;}
	.st10{clip-path:url(#SVGID_00000080193580661192813850000011443099585318561719_);}
	.st11{clip-path:url(#SVGID_00000039843009559761468520000010935598797160523694_);}
	.st12{fill:#EA1E04;}
	.st13{clip-path:url(#SVGID_00000070814338154044849400000005393256709542684823_);}
	.st14{clip-path:url(#SVGID_00000111872469900954680220000000626782738309041807_);}
	.st15{clip-path:url(#SVGID_00000159447426027928912340000004297815508423628978_);}
	.st16{clip-path:url(#SVGID_00000038375947926626773500000013009135278521810307_);}
	.st17{clip-path:url(#SVGID_00000062870609470178166200000015015358695077874587_);}
	.st18{clip-path:url(#SVGID_00000022545637589498789760000007349615408323727792_);}
</style>
<g>
	<g>
		<g>
			<path class="st1" d="M146.3,1398.3c-7,0-12.8-5.1-13.7-12.1L5.4,319c-1.1-4.6,0.3-9.5,3.6-12.9L84.1,231c2.6-2.6,6-4,9.7-4h220
				c0.6,0,1.2,0,1.9,0.1l0.2,0c4,0.6,7.5,3,9.6,6.5l0.1,0.1c0.3,0.5,0.5,0.9,0.7,1.3c0.1,0.1,0.1,0.2,0.2,0.4
				c0.1,0.3,0.2,0.5,0.3,0.8c0.1,0.2,0.1,0.3,0.2,0.5c0.3,0.9,0.5,1.9,0.6,2.9l55.1,461.3L428.7,315c0.2-3.4,1.6-6.6,4-9l75.1-75.1
				c2.6-2.6,6-4,9.7-4h220c0.6,0,1.2,0,1.8,0.1c0.2,0,0.4,0.1,0.6,0.1c0.4,0.1,0.8,0.2,1.1,0.3c0.3,0.1,0.5,0.1,0.7,0.2
				c0.5,0.2,0.9,0.3,1.4,0.5c0.3,0.2,0.7,0.3,1,0.5c0.2,0.1,0.3,0.2,0.4,0.2c0.3,0.2,0.7,0.4,1,0.7l0.2,0.1c0.7,0.5,1.3,1,1.8,1.6
				l0.3,0.3l0.1,0.1c0.2,0.3,0.4,0.5,0.6,0.8c0.1,0.1,0.2,0.3,0.3,0.5c0.2,0.3,0.4,0.6,0.6,0.9l0.1,0.1l0.1,0.2
				c0.2,0.4,0.4,0.7,0.6,1.2c0.1,0.3,0.2,0.6,0.3,0.8c0,0,0.1,0.3,0.1,0.4c0.6,1.9,0.8,3.9,0.5,5.8L623.6,1311
				c-0.3,3-1.7,5.8-3.9,8.1l-75.2,75.2c-0.7,0.7-1.5,1.3-2.4,1.9c-0.1,0-0.2,0.1-0.3,0.2l-2.6-4.2l2.5,4.3c-0.2,0.1-0.3,0.2-0.5,0.3
				c-0.3,0.1-0.5,0.3-0.8,0.4c-0.1,0-0.2,0.1-0.3,0.1c-0.3,0.1-0.6,0.2-1,0.4c-0.1,0-0.1,0-0.2,0.1c-0.4,0.1-0.7,0.2-1.1,0.3l-0.1,0
				l-0.2,0c-0.3,0.1-0.7,0.1-1,0.2c-0.1,0-0.2,0-0.2,0c-0.5,0-0.9,0.1-1.4,0.1H146.3z"/>
			<path class="st1" d="M737.5,231.9c0.4,0,0.8,0,1.1,0.1c0.1,0,0.3,0,0.4,0.1c0.2,0,0.5,0.1,0.7,0.2c0.2,0,0.3,0.1,0.5,0.1
				c0.3,0.1,0.6,0.2,0.9,0.3c0.2,0.1,0.4,0.2,0.7,0.3c0.1,0,0.2,0.1,0.3,0.1c0.2,0.1,0.4,0.3,0.7,0.4c0,0,0,0,0.1,0
				c0.5,0.3,0.9,0.7,1.3,1.2c0,0,0,0,0.1,0.1c0,0,0,0,0,0c0.2,0.2,0.3,0.4,0.5,0.6c0.1,0.1,0.1,0.2,0.2,0.3c0.1,0.2,0.3,0.4,0.4,0.6
				c0,0,0.1,0.1,0.1,0.2c0.1,0.3,0.3,0.5,0.4,0.8c0.1,0.2,0.1,0.4,0.2,0.6c0,0.1,0.1,0.2,0.1,0.2c0.4,1.2,0.5,2.5,0.3,3.7
				L618.7,1310.4c-0.2,2-1.1,3.8-2.5,5.2l-75.1,75.1c-0.5,0.5-1.1,0.9-1.6,1.2c-0.1,0.1-0.2,0.1-0.3,0.2c-0.1,0.1-0.2,0.1-0.4,0.2
				c-0.2,0.1-0.4,0.2-0.5,0.3c-0.1,0-0.1,0.1-0.2,0.1c-0.2,0.1-0.4,0.2-0.7,0.2c0,0-0.1,0-0.1,0c-0.2,0.1-0.5,0.1-0.7,0.2
				c0,0-0.1,0-0.1,0c-0.2,0-0.5,0.1-0.7,0.1c0,0-0.1,0-0.1,0c-0.3,0-0.6,0-0.8,0H146.3c-4.5,0-8.2-3.3-8.8-7.8L10.3,318.1
				c-0.8-3,0-6.2,2.3-8.5l75.1-75.1c1.7-1.7,3.9-2.6,6.2-2.6h220c0.4,0,0.8,0,1.2,0.1c0.1,0,0.1,0,0.2,0c2.6,0.4,4.8,1.9,6.1,4.1
				c0,0,0,0.1,0.1,0.1c0.2,0.3,0.3,0.6,0.5,0.9c0,0.1,0.1,0.1,0.1,0.2c0.1,0.1,0.1,0.3,0.1,0.4c0,0.1,0.1,0.2,0.1,0.3
				c0.2,0.6,0.3,1.3,0.4,1.9l60.1,502.7l51-427.3c0.1-2.2,1-4.3,2.6-5.9l75.1-75.1c1.7-1.7,3.9-2.6,6.2-2.6H737.5 M737.5,222h-220
				c-5,0-9.7,2-13.2,5.5l-75.1,75.1c-3.2,3.2-5.1,7.5-5.4,12l-41.1,344.3l-50.2-419.9c-0.1-1.3-0.4-2.6-0.8-3.8
				c-0.1-0.2-0.1-0.4-0.2-0.6c-0.1-0.2-0.2-0.7-0.4-1.1c-0.1-0.2-0.2-0.4-0.3-0.6c-0.2-0.5-0.5-1.1-0.9-1.6l0,0l0,0
				c0-0.1-0.1-0.1-0.1-0.2c-2.9-4.7-7.6-7.9-13.1-8.8c-0.1,0-0.2,0-0.3,0l0,0c-1-0.1-1.8-0.2-2.6-0.2h-220c-5,0-9.7,2-13.2,5.5
				L5.5,302.6c-4.5,4.5-6.4,11.1-5,17.3l127.2,1066.9l0,0.1l0,0.1c1.3,9.5,9.1,16.4,18.6,16.4h388.5c0.6,0,1.2,0,1.8-0.1
				c0.1,0,0.3,0,0.4,0c0.5-0.1,0.9-0.1,1.4-0.2c0.1,0,0.2-0.1,0.4-0.1c0.5-0.1,0.9-0.2,1.4-0.4c0.1,0,0.2-0.1,0.4-0.1
				c0.4-0.1,0.9-0.3,1.3-0.5c0.2-0.1,0.3-0.1,0.5-0.2c0.3-0.1,0.7-0.3,1.1-0.5c0.2-0.1,0.4-0.2,0.7-0.4l0,0l0,0l0,0
				c0.2-0.1,0.4-0.2,0.5-0.3c1.2-0.7,2.2-1.5,3.2-2.5l0.1-0.1l0.1-0.1l75.1-75.1c3-3,4.9-6.9,5.3-11.1L756.1,243.1
				c0.4-2.7,0.1-5.3-0.7-7.9c0-0.1-0.1-0.3-0.1-0.4c-0.1-0.3-0.2-0.8-0.5-1.3c-0.3-0.7-0.6-1.2-0.8-1.6c-0.1-0.2-0.2-0.3-0.2-0.5
				c-0.3-0.5-0.6-0.9-0.8-1.3c-0.1-0.2-0.3-0.4-0.4-0.6c-0.2-0.3-0.5-0.6-0.7-0.9l-0.2-0.2l-0.4-0.4c0,0,0-0.1-0.1-0.1
				c-0.7-0.8-1.6-1.5-2.4-2.2c0,0-0.1-0.1-0.1-0.1l-0.1,0l-0.1,0c-0.4-0.3-0.9-0.6-1.4-0.9c-0.2-0.1-0.4-0.2-0.6-0.3
				c-0.3-0.1-0.8-0.4-1.4-0.7c-0.6-0.3-1.2-0.5-1.8-0.7l0,0l0,0c-0.3-0.1-0.6-0.2-1-0.3l0,0c-0.5-0.1-1-0.2-1.5-0.3l0,0l0,0
				c-0.3-0.1-0.6-0.1-0.8-0.1C739.1,222,738.3,222,737.5,222L737.5,222z"/>
		</g>
		<g>
			<path class="st1" d="M795.5,1398.3c-7.6,0-13.7-6.2-13.7-13.7V317.2c-0.4-4.1,1-8.2,3.9-11.1l75.1-75.1c2.6-2.6,6-4,9.7-4h218.4
				c0.6,0,1.2,0,1.9,0.1c0.1,0,0.3,0,0.4,0.1c1.2,0.2,2.4,0.6,3.5,1.1l0.3,0.1c1.1,0.5,2.1,1.2,3,2c0.1,0.1,0.3,0.2,0.4,0.4
				c0.3,0.3,0.6,0.6,0.9,0.9c0.3,0.3,0.5,0.6,0.8,1.1c0.1,0.2,0.2,0.3,0.3,0.4c0.5,0.8,1,1.6,1.3,2.3c0.9,2,1.2,4.3,1,6.6v1067.3
				c0,3.7-1.5,7.2-4.1,9.7l-73.3,73.3c-2,2.9-5.1,4.9-8.5,5.6c-0.1,0-0.3,0.1-0.4,0.1c-0.3,0-0.6,0.1-0.9,0.1
				c-0.5,0-0.9,0.1-1.4,0.1H795.5z"/>
			<path class="st1" d="M1088.8,231.9c0.4,0,0.8,0,1.2,0.1c0.1,0,0.2,0,0.3,0c0.8,0.1,1.6,0.4,2.3,0.7c0.1,0,0.1,0.1,0.2,0.1
				c0.7,0.3,1.3,0.8,1.9,1.3c0.1,0.1,0.2,0.2,0.3,0.2c0.2,0.2,0.4,0.4,0.5,0.6c0.2,0.2,0.4,0.5,0.6,0.7c0.1,0.1,0.1,0.2,0.2,0.2
				c0.3,0.5,0.6,1,0.9,1.5c0.6,1.4,0.8,2.9,0.6,4.4v1067.6c0,2.3-0.9,4.6-2.6,6.2l-73.7,73.7c-1.2,2-3.3,3.4-5.6,3.9
				c-0.1,0-0.2,0-0.2,0c-0.2,0-0.4,0.1-0.6,0.1c-0.3,0-0.6,0-0.9,0H795.5c-4.9,0-8.8-4-8.8-8.8V316.9c-0.3-2.6,0.6-5.4,2.5-7.3
				l75.1-75.1c1.7-1.7,3.9-2.6,6.2-2.6H1088.8 M1088.8,222H870.5c-5,0-9.7,2-13.2,5.5l-75.1,75.1c-3.9,3.9-5.9,9.4-5.4,14.8v1067.1
				c0,10.3,8.4,18.7,18.7,18.7h218.5c0.6,0,1.2,0,1.9-0.1c0.5,0,0.9-0.1,1.2-0.2c0.2,0,0.4-0.1,0.7-0.1c4.5-0.9,8.6-3.5,11.3-7.3
				l73-73c3.5-3.4,5.6-8.2,5.6-13.3V242.2c0.2-3-0.2-6-1.4-8.8c-0.5-1.1-1-2.1-1.8-3.2c-0.1-0.1-0.2-0.3-0.3-0.4l0,0l0,0
				c-0.4-0.6-0.8-1-1.2-1.5c-0.4-0.4-0.7-0.8-1.1-1.2l0,0l0,0c-0.2-0.2-0.4-0.3-0.5-0.5c-1.2-1.1-2.6-2-4-2.7
				c-0.1-0.1-0.2-0.1-0.4-0.2c-1.5-0.7-3.2-1.2-4.8-1.5c-0.2,0-0.4-0.1-0.5-0.1C1090.5,222,1089.7,222,1088.8,222L1088.8,222z"/>
		</g>
		<g>
			<path class="st1" d="M3358.2,1398.3c-99.8,0-181-81.2-181-181V483.1c0-45.7,17.1-89.3,48.2-122.9c0.5-0.8,1.1-1.5,1.8-2.2
				l81.7-81.6l0.2-0.2l0.3-0.2c0.9-0.9,1.8-1.6,2.9-2.1c33.4-30.2,76.3-46.8,121.1-46.8h219.8c45.8,0,89.6,17.3,123.3,48.8
				c0.4,0.3,0.7,0.7,1.1,1.1c17.6,16.7,31.5,36.4,41.2,58.5c10.1,23,15.2,47.4,15.2,72.7v734.2c0,45.8-17.2,89.4-48.5,123
				c-0.4,0.5-0.8,0.9-1.1,1.2l-74.9,74.9c-16.8,17.8-36.5,31.8-58.7,41.6c-23,10.2-47.6,15.4-72.9,15.4H3358.2z M3489.4,1096.9
				c0,14.9,9.8,28.1,23.6,32.7V528.4c0-13.5-10.4-24.6-23.6-25.7V1096.9z"/>
			<path class="st1" d="M3653.2,232c44.6,0,87.1,16.8,120,47.5c0.3,0.3,0.6,0.6,0.8,0.9c33.9,32.1,55.1,77.5,55.1,127.8v734.2
				c0,44.6-16.8,87.1-47.4,119.8c-0.2,0.3-0.5,0.6-0.8,0.9l-74.9,74.9c-32.1,34.1-77.7,55.4-128.1,55.4h-219.8
				c-97.1,0-176-79-176-176V483.1c0-46.3,18-88.4,47.3-119.9c0.4-0.6,0.8-1.2,1.3-1.7l82-81.9c0,0,0,0,0,0l0.1-0.1
				c0.7-0.7,1.4-1.2,2.3-1.6c32.5-29.6,74.4-46,118.3-46H3653.2 M3518,1136V528.4c0-16.9-13.7-30.7-30.7-30.7h-2.8v599.3
				C3484.4,1116.7,3499,1133.1,3518,1136 M3653.2,222.1h-219.8c-45.8,0-89.8,16.9-124,47.7c-1.2,0.7-2.3,1.6-3.4,2.6l0,0l-0.3,0.3
				l-82,81.9c-0.8,0.8-1.5,1.7-2.2,2.6c-31.8,34.5-49.3,79.2-49.3,126v734.2c0,102.5,83.4,185.9,185.9,185.9H3578
				c26,0,51.2-5.3,74.9-15.8c22.8-10.1,43.1-24.4,60.3-42.7l74.8-74.8c0.3-0.3,0.8-0.9,1.4-1.5c32-34.4,49.7-79.2,49.7-126.2V408.1
				c0-26-5.3-51.1-15.7-74.7c-10-22.6-24.2-42.8-42.2-60c-0.4-0.5-0.9-0.9-1.3-1.3C3745.2,239.8,3700.2,222.1,3653.2,222.1
				L3653.2,222.1z M3508,1121.8c-8.2-5.3-13.6-14.6-13.6-24.9V508.8c7.9,2.9,13.6,10.6,13.6,19.5V1121.8L3508,1121.8z"/>
		</g>
		<g>
			<path class="st1" d="M2464.9,1398.3c-7.6,0-13.7-6.2-13.7-13.7v-288.7c0-49.4,20.6-97.2,56.4-131.2c0.3-0.4,0.7-0.8,1.1-1.2
				l66.4-66.3c2.5-2.7,5.3-5.4,8.2-8.2l1.1-1.1c0.2-0.2,0.5-0.4,0.8-0.7l0.1-0.1c10.6-9.7,22-17.8,33.8-24.4l167.9-93.9V528.3
				c0-10.2-6-19.2-14.9-23.4v109.3c0,3.7-1.5,7.2-4.1,9.7l-74.5,74.5c-1.1,1.2-2.4,2.2-3.8,3c-0.1,0.1-0.3,0.1-0.4,0.2
				c-0.3,0.1-0.5,0.2-0.7,0.3c-0.2,0.1-0.4,0.1-0.6,0.2l-0.1,0.1c-0.2,0.1-0.4,0.1-0.5,0.2c-0.2,0.1-0.4,0.1-0.6,0.2l-0.1,0
				c-0.2,0-0.3,0.1-0.5,0.1c-0.2,0.1-0.5,0.1-0.7,0.1c-0.3,0-0.4,0.1-0.6,0.1c-0.5,0-0.9,0.1-1.4,0.1h-218.4
				c-7.6,0-13.7-6.2-13.7-13.7V483c0-25.2,5.1-49.6,15.2-72.6c9.7-22,23.4-41.6,40.9-58.3c0.4-0.5,0.8-0.9,1.2-1.4l67.3-67.3
				c2.4-2.6,5.2-5.3,7.7-7.7l0.9-0.9c0.6-0.6,1.1-1,1.5-1.3c33.4-30.1,76.3-46.7,121.1-46.7h219.8c99.8,0,181,81.2,181,181v314.9
				c0,49.3-20.6,97.2-56.6,131.4c-0.3,0.4-0.7,0.8-0.9,1l-52.6,50.2c-15.5,21-34.8,38.1-57.6,50.9l-167.9,93.8v72.8h321.9
				c0.6,0,1.2,0,1.9,0.1c0.2,0,0.3,0,0.4,0.1c1.2,0.2,2.4,0.6,3.5,1.1l0.2,0.1c1.2,0.6,2.2,1.3,3.1,2c0.1,0.1,0.3,0.2,0.4,0.4
				c0.3,0.3,0.6,0.6,0.9,0.9c0.3,0.3,0.5,0.6,0.8,1.1c0.1,0.2,0.2,0.3,0.3,0.4c0.5,0.8,0.9,1.5,1.3,2.3c0.9,2,1.2,4.3,1,6.6v171.6
				c0,3.7-1.5,7.2-4.1,9.7l-73.9,73.9c-2,2.6-4.9,4.4-8.1,5c-0.2,0-0.3,0.1-0.5,0.1c-0.3,0.1-0.6,0.1-0.9,0.1
				c-0.4,0-0.9,0.1-1.4,0.1H2464.9z"/>
			<path class="st1" d="M2926.7,231.8c97.1,0,176,79,176,176v314.9c0,48.3-20.2,94.8-55.3,128c-0.2,0.3-0.5,0.6-0.7,0.8l-52.8,50.4
				c-14.7,20.1-33.8,37.2-56.3,49.8l-170.4,95.2v80.6h326.9c0.4,0,0.8,0,1.2,0.1c0.1,0,0.2,0,0.3,0c0.8,0.1,1.6,0.4,2.3,0.7
				c0.1,0,0.1,0.1,0.2,0.1c0.7,0.3,1.3,0.8,1.9,1.3c0.1,0.1,0.2,0.2,0.3,0.2c0.2,0.2,0.4,0.4,0.5,0.6c0.2,0.2,0.4,0.5,0.6,0.7
				c0.1,0.1,0.1,0.2,0.2,0.2c0.3,0.5,0.6,1,0.9,1.5c0.6,1.4,0.8,2.9,0.6,4.4v171.9c0,2.3-0.9,4.6-2.6,6.2l-74.2,74.2
				c-1.3,1.7-3.2,3-5.3,3.4c-0.1,0-0.2,0-0.3,0c-0.2,0-0.4,0.1-0.5,0.1c-0.3,0-0.6,0-0.9,0h-554.1c-4.9,0-8.8-4-8.8-8.8v-288.7
				c0-49,20.5-95.1,55.1-127.9c0.3-0.4,0.5-0.7,0.9-1l66.5-66.4c2.5-2.7,5.3-5.4,8.2-8.2l1.1-1.1c0.2-0.2,0.5-0.4,0.7-0.6
				c10-9.2,21.1-17.2,32.8-23.7l170.5-95.3V528.3c0-14.9-10.7-27.4-24.9-30.2v116.1c0,2.3-0.9,4.6-2.6,6.2l-74.6,74.6
				c-0.7,0.8-1.5,1.5-2.5,2c-0.1,0-0.2,0.1-0.3,0.1c-0.2,0.1-0.3,0.2-0.5,0.2c-0.1,0.1-0.3,0.1-0.4,0.2c-0.1,0-0.2,0.1-0.4,0.1
				c-0.2,0-0.3,0.1-0.5,0.1c-0.1,0-0.2,0.1-0.4,0.1c-0.2,0-0.3,0.1-0.5,0.1c-0.1,0-0.2,0-0.3,0c-0.3,0-0.6,0-0.9,0h-218.4
				c-4.9,0-8.8-4-8.8-8.8V483c0-50.2,21.1-95.5,54.8-127.5c0.3-0.4,0.6-0.8,1-1.2l67.4-67.4c2.3-2.5,5-5.1,7.6-7.6l1-1
				c0.4-0.4,0.8-0.7,1.2-1c32.4-29.3,74.2-45.6,117.9-45.6H2926.7 M2926.7,221.9H2707c-45.9,0-90,17-124.2,47.8
				c-0.5,0.4-1.2,0.9-1.9,1.6l-0.9,0.9c-2.5,2.4-5.3,5.1-7.8,7.8l-67.2,67.2l-0.1,0.1l-0.1,0.1c-0.5,0.5-0.9,1-1.3,1.5
				c-17.8,17.1-31.8,37.1-41.7,59.6c-10.4,23.6-15.6,48.7-15.6,74.6v206.2c0,10.3,8.4,18.7,18.7,18.7h218.4c0.6,0,1.2,0,1.9-0.1
				c0.3,0,0.5-0.1,0.8-0.1l0,0c0.2,0,0.6-0.1,1-0.2c0.3-0.1,0.6-0.1,0.8-0.2l0,0c0.3-0.1,0.6-0.2,1-0.3c0.3-0.1,0.5-0.2,0.8-0.3
				c0.3-0.1,0.6-0.2,0.9-0.3c0.3-0.1,0.6-0.3,1-0.4l0,0c0.2-0.1,0.4-0.2,0.6-0.3c1.9-1,3.6-2.3,5-3.9l74.3-74.3
				c3.5-3.4,5.6-8.2,5.6-13.3v-99.4c3.1,3.7,5,8.4,5,13.5v237.6l-165.4,92.4c-12.1,6.7-23.8,15.1-34.6,25c-0.2,0.2-0.6,0.5-1.1,1
				l-1,1l0,0c-2.9,2.8-5.7,5.5-8.3,8.3l-66.3,66.2c-0.4,0.4-0.8,0.9-1.2,1.4c-18.1,17.3-32.3,37.7-42.3,60.6
				c-10.2,23.5-15.4,48.4-15.4,74v288.7c0,10.3,8.4,18.7,18.7,18.7H3019c0.6,0,1.2,0,1.9-0.1c0.5,0,0.8-0.1,1.1-0.1
				c0.3,0,0.5-0.1,0.7-0.1c4.2-0.8,8.1-3.2,10.8-6.6l73.7-73.7c3.5-3.4,5.6-8.2,5.6-13.3v-171.4c0.2-3-0.2-6-1.4-8.8
				c-0.5-1.1-1-2.1-1.8-3.2c-0.1-0.1-0.2-0.3-0.3-0.4l0,0l0,0l0,0c-0.4-0.5-0.8-1-1.2-1.5c-0.4-0.4-0.7-0.8-1.1-1.2
				c-0.2-0.2-0.4-0.4-0.6-0.5c-1.2-1.1-2.6-2-4-2.7l0,0l0,0c-0.1-0.1-0.2-0.1-0.3-0.2c-1.5-0.7-3.1-1.2-4.8-1.5
				c-0.2,0-0.3-0.1-0.5-0.1c-0.9-0.1-1.7-0.2-2.6-0.2h-317v-64.9l165.3-92.4c23.3-13,43.1-30.4,58.9-51.9l52.1-49.8l0.1-0.1l0.1-0.1
				c0.3-0.3,0.7-0.7,1-1.1c36.8-35.1,57.9-84.2,57.9-134.8V407.8C3112.7,305.3,3029.2,221.9,2926.7,221.9L2926.7,221.9z"/>
		</g>
		<g>
			<path class="st1" d="M1700,1374.9c-304.7,0-552.6-247.9-552.6-552.6c0-163.7,72.1-318,197.9-423.5c0.1-0.2,0.3-0.3,0.4-0.5
				c105.5-127.3,260.7-200.4,425.8-200.4l0.1,0c48.2,0,96.3,6.3,143,18.8c4.7,1.2,8.3,4.8,9.8,9.5l0.1,0.2c0.5,1.8,0.6,3.7,0.3,5.6
				v269.2c0,0.1,0,0.3,0,0.4h455.8c5.5,0,10.5,3.3,12.7,8.5c2.2,5.1,1,11-3,15l-70.4,70.4c-0.4,0.5-0.8,1-1.2,1.4l-159.5,159.4h5.7
				c3.8,0,7.4,1.5,9.8,4.1l215.4,215.4c5.3,5.3,5.3,14,0.1,19.4l-70.4,70.4c-1.8,2.5-4.5,4.3-7.6,5.1c-0.3,0.1-0.6,0.1-0.9,0.2
				c-0.2,0-0.5,0.1-0.7,0.1c-0.6,0.1-1.2,0.1-1.8,0.1h-384.2v199.9c0,3.7-1.5,7.3-4.1,9.7l-71,71c-0.4,0.4-0.8,0.8-1.2,1.2
				c-2.1,2-4.8,3.2-7.7,3.5C1794.8,1368.7,1747.5,1374.9,1700,1374.9z M1547.4,597.2c-31.1,45.4-47.6,98.4-47.6,153.5
				c0,102.4,56.8,195.2,148.2,242.1c38.5,19.7,80,29.7,123.5,29.7c18.1,0,36.2-1.8,54-5.5V843.2c-0.4-4.1,1.1-8.2,3.9-11.1
				l15.7-15.7h-5.9c-7.6,0-13.7-6.2-13.7-13.7V588.5c-0.2-2.3,0.1-4.7,1.1-6.8c-39-20.6-82.6-31.4-126.6-31.4
				C1645.3,550.3,1592.6,566.5,1547.4,597.2z"/>
			<path class="st1" d="M1771.7,202.8c47.8,0,95.4,6.3,141.7,18.6c3.1,0.8,5.4,3.2,6.3,6.2c0.3,1.3,0.4,2.7,0.1,4v269.6
				c0,1.9-0.6,3.9-1.9,5.4h462.7c3.6,0,6.8,2.2,8.2,5.5c1.4,3.3,0.6,7.1-1.9,9.6l-70.7,70.7c-0.3,0.4-0.6,0.8-1,1.2l-168,167.9h17.7
				c0,0,0,0,0,0h0.1c2.3,0,4.6,0.9,6.2,2.6l215.5,215.5c3.4,3.4,3.4,9,0,12.4l-70.7,70.7c-1.1,1.7-2.9,2.9-4.9,3.5
				c-0.2,0.1-0.4,0.1-0.6,0.1c-0.1,0-0.3,0-0.4,0.1c-0.4,0.1-0.7,0.1-1.1,0.1h-389.2v204.8c0,2.3-0.9,4.6-2.6,6.2l-71.1,71.1
				c-0.3,0.3-0.6,0.6-0.9,0.9c-1.4,1.4-3.3,2.1-5.3,2.3c-45.8,12.2-92.8,18.3-139.9,18.3c-301.9,0-547.7-245.6-547.7-547.7
				c0-168.6,76.5-319.6,196.6-420.1c0.2-0.2,0.3-0.5,0.5-0.7c104.6-126.2,258.3-198.6,422-198.6c0,0,0.1,0,0.1,0
				C1771.6,202.9,1771.7,202.8,1771.7,202.8 M1771.5,1027.5c19.9,0,39.7-2.2,59-6.4V843c-0.3-2.6,0.6-5.4,2.5-7.3l24.2-24.2h-17.9
				c-4.9,0-8.8-4-8.8-8.8V588.2c-0.3-2.6,0.6-5.4,2.5-7.3l0.9-0.9c-0.1-0.1-0.2-0.2-0.3-0.2c-40.8-22.5-86.9-34.5-133.6-34.5
				c-57.9,0-111.7,17.9-156.1,48.4c-32.1,46.4-49,100.7-49,157.1c0,107.4,61.4,200.6,150.9,246.5
				C1683.5,1016.6,1726.3,1027.5,1771.5,1027.5 M1771.7,192.9l-0.1,0l-0.1,0c-166.7,0-323.3,73.7-429.7,202.2
				c-0.1,0.1-0.1,0.1-0.2,0.2c-126.7,106.5-199.3,262-199.3,427c0,307.5,250.1,557.6,557.6,557.6c47.8,0,95.5-6.2,141.7-18.5
				c3.8-0.5,7.4-2.1,10.1-4.7c0.5-0.5,1-0.9,1.5-1.5l70.8-70.8c3.6-3.4,5.6-8.2,5.6-13.3v-194.9h379.2c0.8,0,1.6-0.1,2.4-0.2l0,0
				c0.3,0,0.6-0.1,0.9-0.1l0,0l0,0c0.4-0.1,0.8-0.2,1.2-0.3c4.1-1,7.6-3.4,10.1-6.6l70.1-70.1l0.1-0.1l0.1-0.1
				c7.1-7.4,7.1-19.2-0.1-26.4L2178.3,757c-2.2-2.2-4.9-3.9-7.9-4.8l151.8-151.8c0.5-0.5,1-1.1,1.5-1.7l70.2-70.2
				c5.4-5.4,7-13.5,4-20.5c-3-7-9.8-11.5-17.3-11.5h-450.9V232.4c0.3-2.4,0.2-4.9-0.4-7.3l0-0.2l-0.1-0.2
				c-1.9-6.4-6.9-11.3-13.2-12.9C1868.8,199.3,1820.3,192.9,1771.7,192.9L1771.7,192.9z M1551,600.8c44.1-29.8,95.6-45.6,149-45.6
				c41.8,0,83.4,10,120.7,29c-0.2,1.5-0.3,3-0.2,4.5v214.1c0,8.5,5.6,15.6,13.4,17.9l-8,8c-3.9,3.9-5.9,9.4-5.4,14.8v169.5
				c-16.2,3-32.7,4.6-49,4.6c-42.6,0-83.4-9.8-121.2-29.1c-89.8-46-145.5-137.1-145.5-237.7C1504.8,697,1520.8,645.2,1551,600.8
				L1551,600.8z"/>
		</g>
	</g>
	<g>
		<g>
			<g>
				<polygon class="st0" points="935.8,240.8 870.6,240.8 795.5,315.9 870.6,315.9 1013.9,315.9 1013.9,1194.4 1013.9,1384.4 
					1089,1309.3 1089,1183.9 1089,240.8 				"/>
				<path d="M1013.9,1393.3c-1.1,0-2.3-0.2-3.4-0.7c-3.3-1.4-5.5-4.6-5.5-8.2V324.6H795.5c-3.6,0-6.8-2.2-8.2-5.5s-0.6-7.1,1.9-9.6
					l75.1-75.1c1.7-1.7,3.9-2.6,6.2-2.6h218.4c4.9,0,8.8,4,8.8,8.8v1068.7c0,2.3-0.9,4.6-2.6,6.2l-75.1,75.1
					C1018.5,1392.4,1016.2,1393.3,1013.9,1393.3z M816.6,307.1h197.2c4.9,0,8.8,4,8.8,8.8v1047.5l57.5-57.5V249.6H874.2L816.6,307.1
					z"/>
			</g>
			<g>
				<polygon class="st0" points="203.5,240.8 94,240.8 18.8,315.9 102.9,315.9 238.7,315.9 340.6,1168.7 382.7,816.8 313.8,240.8 
									"/>
				<path d="M340.6,1177.6c-4.5,0-8.2-3.3-8.8-7.8L231,324.6H18.8c-3.6,0-6.8-2.2-8.2-5.5s-0.6-7.1,1.9-9.6l75.1-75.1
					c1.7-1.7,3.9-2.6,6.2-2.6h220c4.5,0,8.2,3.3,8.8,7.8l68.8,576c0.1,0.7,0.1,1.4,0,2.1l-42.1,352
					C348.9,1174.2,345.1,1177.6,340.6,1177.6z M40.1,307.1h198.7c4.5,0,8.2,3.3,8.8,7.8l93.1,779.9l33.2-278l-67.7-567.3H97.6
					L40.1,307.1z"/>
			</g>
			<g>
				<polygon class="st0" points="627.2,240.8 517.5,240.8 442.5,315.9 508.5,315.9 662.4,315.9 543.8,1309.3 543.8,1309.3 
					534.8,1384.4 609.9,1309.3 616.9,1251.2 616.9,1251.2 737.6,240.8 				"/>
				<path d="M534.8,1393.3c-1.3,0-2.6-0.3-3.9-0.9c-3.4-1.6-5.4-5.3-4.9-9L652.5,324.6h-210c-3.6,0-6.8-2.2-8.2-5.5
					c-1.4-3.3-0.6-7.1,1.9-9.6l75.1-75.1c1.7-1.7,3.9-2.6,6.2-2.6h220c2.5,0,4.9,1.1,6.6,3s2.5,4.4,2.2,6.9L618.7,1310.4
					c-0.2,2-1.1,3.8-2.5,5.2l-75.1,75.1C539.3,1392.4,537.1,1393.3,534.8,1393.3z M463.7,307.1h198.7c2.5,0,4.9,1.1,6.6,3
					c1.7,1.9,2.5,4.4,2.2,6.9L546.5,1360.3l55-55L727.7,249.5H521.2L463.7,307.1z"/>
			</g>
		</g>
		<g>
			<polygon class="st1" points="238.7,315.9 313.8,240.8 94,240.8 18.8,315.9 			"/>
			<path d="M238.7,324.6h-220c-3.6,0-6.8-2.2-8.2-5.5s-0.6-7.1,1.9-9.6l75.1-75.1c1.7-1.7,3.9-2.6,6.2-2.6h220
				c3.6,0,6.8,2.2,8.2,5.5c1.4,3.3,0.6,7.1-1.9,9.6L244.9,322C243.3,323.6,241,324.6,238.7,324.6z M40.1,307.1h195.1l57.5-57.5H97.6
				L40.1,307.1z"/>
		</g>
		<g>
			<polygon class="st1" points="517.5,240.8 737.6,240.8 662.4,315.9 442.5,315.9 			"/>
			<path d="M662.4,324.6h-220c-3.6,0-6.8-2.2-8.2-5.5c-1.4-3.3-0.6-7.1,1.9-9.6l75.1-75.1c1.7-1.7,3.9-2.6,6.2-2.6h220
				c3.6,0,6.8,2.2,8.2,5.5c1.4,3.3,0.6,7.1-1.9,9.6L668.6,322C667,323.6,664.7,324.6,662.4,324.6z M463.7,307.1h195.1l57.5-57.5
				H521.2L463.7,307.1z"/>
		</g>
		<g>
			<polygon class="st1" points="870.6,240.8 795.5,315.9 1013.9,315.9 1089,240.8 			"/>
			<path d="M795.5,324.6c-3.6,0-6.8-2.2-8.2-5.5s-0.6-7.1,1.9-9.6l75.1-75.1c1.7-1.7,3.9-2.6,6.2-2.6h218.4c3.6,0,6.8,2.2,8.2,5.5
				c1.4,3.3,0.6,7.1-1.9,9.6L1020,322c-1.7,1.7-3.9,2.6-6.2,2.6H795.5z M874.2,249.5L816.7,307h193.5l57.5-57.5H874.2z"/>
		</g>
		<g>
			<g>
				<path class="st0" d="M2926.9,240.8h-219.8c-43.6,0-83.1,16.7-112.7,44h-0.1l-1.2,1.2c-2.6,2.4-5,4.9-7.4,7.4l-67.4,67.4l0,0
					c3.7-3.5,7.6-6.8,11.6-9.8l0,0c4-3.1,8.1-6,12.3-8.7c0.2-0.1,0.4-0.2,0.6-0.4c4.1-2.6,8.3-5,12.5-7.3c0.5-0.3,1.1-0.5,1.7-0.8
					c4-2,8.1-3.9,12.2-5.6c1.1-0.4,2.2-0.8,3.3-1.2c3.8-1.4,7.5-2.8,11.3-4c1.8-0.5,3.6-0.9,5.4-1.4c3.3-0.9,6.6-1.8,9.9-2.5
					c2.8-0.6,5.7-0.9,8.6-1.3c2.5-0.4,4.9-0.8,7.5-1.1c5.5-0.5,11-0.8,16.6-0.8h219.8l0,0c5.2,0,10.3,0.3,15.4,0.8
					c1.5,0.1,3,0.3,4.5,0.5c3.8,0.4,7.5,1,11.1,1.7c1.5,0.3,2.9,0.5,4.3,0.8c9.7,2.1,19.2,5.1,28.3,8.8c1.3,0.5,2.6,1.1,3.9,1.7
					c3.3,1.5,6.6,3.1,9.8,4.8c1.3,0.7,2.5,1.3,3.8,2c4.3,2.4,8.5,4.9,12.4,7.6c4.5,3,8.8,6.3,12.8,9.7c4.4,3.7,8.6,7.6,12.6,11.5
					c1.3,1.3,2.5,2.8,3.8,4.2c2.6,2.8,5.2,5.7,7.6,8.7c1.4,1.7,2.7,3.6,4,5.4c2.1,2.8,4.2,5.7,6.1,8.7c1.3,2,2.5,4,3.7,6.1
					c1.7,3,3.4,6,5,9c1.1,2.2,2.1,4.3,3.1,6.5c1.4,3.1,2.7,6.3,4,9.6c0.9,2.3,1.7,4.5,2.5,6.8c1.1,3.4,2.1,6.9,3,10.3
					c0.6,2.2,1.2,4.5,1.7,6.8c0.8,3.9,1.5,7.8,2,11.7c0.3,2,0.7,3.9,0.9,6c0.6,6,1,11.9,1,18.1v0.1v289l0,0v26
					c0,36.5-11.9,71.2-33,99.6l0,0l54.8-52.3v-0.1c33.5-31.2,53.3-75.3,53.3-122.3V407.9C3094.1,315.7,3019.3,240.8,2926.9,240.8z"
					/>
				<path d="M2986.1,906.4c-0.1,0-0.3,0-0.4,0c-2.4-0.1-4.7-1.2-6.3-3c-2.7-3.1-3-7.8-0.5-11c20.5-27.6,31.2-60.2,31.2-94.4V483
					c0-5.6-0.3-11.2-1-17.3c-0.1-1.1-0.3-2.1-0.5-3.2l-0.4-2.5c-0.5-3.8-1.1-7.5-1.9-11.1c-0.3-1.5-0.7-2.9-1.1-4.4l-0.5-2
					c-0.9-3.3-1.8-6.6-2.8-9.7c-0.7-2.2-1.5-4.2-2.3-6.3c-1.2-3.2-2.5-6.2-3.8-9.2c-0.9-2.1-1.9-4.1-3-6.2c-1.5-2.9-3.1-5.8-4.7-8.6
					c-1.3-2.2-2.3-4-3.5-5.7c-1.8-2.8-3.8-5.5-5.8-8.2l-1.2-1.6c-0.9-1.2-1.7-2.3-2.6-3.5c-2.3-2.8-4.7-5.5-7.2-8.2l-1.6-1.7
					c-0.7-0.8-1.3-1.5-2-2.2c-4.1-4.1-8-7.7-11.9-10.9c-3.9-3.2-8-6.3-12.2-9.2c-3.8-2.6-7.8-4.9-11.7-7.2l-2.6-1.4
					c-4-2.1-7.1-3.6-10.2-5l-3.7-1.6c-8.7-3.6-17.6-6.4-26.8-8.4l-3.1-0.6c-4.5-0.8-8-1.4-11.5-1.8l-4.2-0.5
					c-4.9-0.5-9.6-0.7-14.6-0.7h-219.8c-5.2,0-10.4,0.3-15.7,0.8c-1.5,0.1-2.9,0.4-4.4,0.6l-5.1,0.8c-1.9,0.3-3.9,0.5-5.8,0.9
					c-2.7,0.5-5.3,1.2-8,1.9l-3.8,1c-1,0.2-1.9,0.5-2.9,0.7c-3.7,1.1-7.3,2.4-10.8,3.8l-3.1,1.1c-4,1.6-7.8,3.4-11.6,5.3
					c-0.1,0-1,0.5-1.1,0.5c-4.6,2.3-8.6,4.7-12.3,7.1c-4.6,2.9-8.5,5.7-12.2,8.6l-0.1,0.1c-3.8,3-7.5,6.1-11,9.4
					c-0.6,0.6-1.3,1.1-2.1,1.4c-3.9,2-8.6,0.8-11-2.7c-2.5-3.5-2.1-8.3,0.9-11.3l67.4-67.4c2.3-2.5,5-5.1,7.6-7.6l1-1
					c0.4-0.4,0.8-0.7,1.2-1c32.4-29.3,74.2-45.6,117.9-45.6h219.8c97.1,0,176,79,176,176v314.9c0,48.3-20.2,94.8-55.3,128
					c-0.2,0.3-0.5,0.6-0.7,0.8l-54.8,52.3C2990.6,905.5,2988.4,906.4,2986.1,906.4z M2632,307.1h219.8c5.5,0,10.8,0.3,16.2,0.8
					l4.7,0.5c4,0.5,7.9,1.1,11.7,1.8l4.6,0.9c10.1,2.2,20.2,5.3,29.7,9.3l4.1,1.8c3.6,1.6,7,3.2,10.3,5c1.9,1,3,1.5,4,2.1
					c4.5,2.5,8.9,5.1,13,8c4.7,3.2,9.3,6.6,13.5,10.1c4.5,3.7,8.8,7.7,13.2,12.2c0.9,0.9,1.8,1.9,2.7,2.9l1.3,1.5c2.8,3,5.5,6,8,9.2
					c1.1,1.4,2.1,2.7,3.1,4.1l1.1,1.5c2.2,3,4.4,6,6.4,9.1c1.3,1.9,2.5,4,3.7,6c2.1,3.5,3.8,6.6,5.5,9.8c1.2,2.3,2.3,4.5,3.3,6.9
					c1.5,3.3,2.9,6.7,4.2,10c0.9,2.4,1.8,4.8,2.6,7.2c1.2,3.6,2.2,7.2,3.2,10.8l0.5,1.9c0.5,1.7,0.9,3.5,1.3,5.2
					c0.9,4.1,1.5,8.2,2.1,12.3l0.3,2.1c0.2,1.4,0.5,2.8,0.6,4.2c0.7,6.7,1.1,12.9,1.1,19v315.1c0,19.4-3.2,38.4-9.3,56.5l15.5-14.8
					c0.3-0.3,0.5-0.6,0.9-0.9c32.1-29.9,50.5-72.1,50.5-115.9V407.9c0-87.3-71.1-158.5-158.5-158.5h-219.8
					c-39.6,0-77.5,14.8-106.8,41.7c-0.2,0.2-0.4,0.4-0.7,0.6l-0.3,0.3c-2.6,2.4-5,4.8-7.2,7.2l-17.4,17.4c2.3-0.8,4.6-1.6,6.9-2.3
					c1.2-0.4,2.5-0.7,3.8-1l3.4-0.9c3-0.8,6-1.6,9-2.2c2.3-0.5,4.5-0.8,6.8-1.1l4.7-0.7c1.8-0.3,3.6-0.6,5.4-0.8
					C2620.4,307.4,2626.3,307.1,2632,307.1z M3040.7,845.3L3040.7,845.3L3040.7,845.3z"/>
			</g>
			<g>
				<path class="st1" d="M3191,483.1v734.2c0,92.4,74.9,167.1,167.1,167.1h219.8c92.4,0,167.1-74.9,167.1-167.1V483.1
					c0-92.4-74.9-167.1-167.1-167.1h-219.8C3265.9,315.9,3191,390.7,3191,483.1z M3409.3,1172V528.4c0-21.8,17.7-39.5,39.5-39.5
					h38.4c21.8,0,39.5,17.7,39.5,39.5V1172c0,21.8-17.7,39.5-39.5,39.5h-38.4C3427,1211.5,3409.3,1193.8,3409.3,1172z"/>
				<path d="M3578,1393.3h-219.8c-97.1,0-176-79-176-176V483.1c0-97.1,79-176,176-176H3578c97.1,0,176,79,176,176v734.2
					C3753.9,1314.3,3674.9,1393.3,3578,1393.3z M3358.1,324.6c-87.3,0-158.5,71.1-158.5,158.5v734.2c0,87.3,71.1,158.5,158.5,158.5
					h219.8c87.3,0,158.5-71.1,158.5-158.5V483.1c0-87.3-71.1-158.5-158.5-158.5H3358.1L3358.1,324.6z M3487.2,1220.3h-38.4
					c-26.7,0-48.3-21.7-48.3-48.3V528.4c0-26.7,21.7-48.3,48.3-48.3h38.4c26.7,0,48.3,21.7,48.3,48.3V1172
					C3535.6,1198.6,3513.9,1220.3,3487.2,1220.3z M3448.8,497.6c-16.9,0-30.7,13.7-30.7,30.7V1172c0,16.9,13.7,30.7,30.7,30.7h38.4
					c16.9,0,30.7-13.7,30.7-30.7V528.4c0-16.9-13.7-30.7-30.7-30.7L3448.8,497.6L3448.8,497.6z"/>
			</g>
			<g>
				<g>
					<g>
						<path class="st0" d="M3689.9,1341.2l0.1,0.2l2.8-2.8C3691.9,1339.5,3690.9,1340.3,3689.9,1341.2z"/>
					</g>
					<g>
						<path class="st0" d="M3820.3,407.9c0-92.4-74.9-167.1-167.1-167.1h-219.8c-44.1,0-84,17.1-113.8,45l-0.6,0.1l-82,81.9l0.3,0.1
							c30.4-31.9,73.3-51.8,120.9-51.8h35.1H3578c23.1,0,45.1,4.7,65.1,13.1c24.6,10.3,46.1,26.6,63,46.7c1.2,1.4,2.3,2.9,3.4,4.4
							c7.4,9.4,13.7,19.6,19,30.4c10.6,22,16.8,46.6,16.8,72.7v695.3l0,0v38.9c0,44.6-17.5,85-46,114.9l71.7-71.8
							c1-1,2.1-2.1,3.1-3.1l0.7-0.7v-0.1c28.2-29.8,45.6-70.1,45.6-114.4L3820.3,407.9L3820.3,407.9z"/>
						<path d="M3699.2,1340.9c-2.2,0-4.4-0.8-6.2-2.5c-3.5-3.4-3.6-8.9-0.3-12.3c28.1-29.6,43.6-68.2,43.6-108.8V483
							c0-23.9-5.4-47.1-15.9-68.8c-5-10.3-11-20.1-18-28.9l-1.1-1.4c-0.7-0.9-1.4-1.8-2.1-2.7c-16.1-19.2-36.8-34.5-59.7-44.2
							c-19.5-8.3-40.3-12.4-61.7-12.4h-219.8c-43.6,0-84.3,17.4-114.5,49.1c-2.1,2.2-5.2,3.2-8.1,2.6c-3.2-0.6-5.9-3-6.9-6.1
							c-0.9-3.1-0.2-6.5,2.1-8.8l82-81.9c0.7-0.7,1.4-1.2,2.3-1.6c32.5-29.6,74.4-46,118.3-46h219.8c97.1,0,176,79,176,176v734.2
							c0,44.6-16.8,87.1-47.4,119.8c-0.2,0.3-0.5,0.6-0.8,0.9l-75.6,75.6C3703.7,1340.1,3701.4,1340.9,3699.2,1340.9z M3358.1,307.1
							h219.8c23.8,0,46.9,4.7,68.5,13.8c25.5,10.7,48.3,27.8,66.3,49c0.9,1.1,1.7,2.2,2.6,3.3l1,1.3c7.7,9.7,14.4,20.6,20,32
							c11.7,24.3,17.7,49.9,17.7,76.5v734.2c0,19.8-3.3,39.1-9.7,57.4l23.5-23.4l0,0c0.2-0.2,0.4-0.5,0.6-0.7
							c27.9-29.4,43.2-67.9,43.2-108.4V407.9c0-87.3-71.1-158.5-158.5-158.5h-219.8c-40.1,0-78.4,15.1-107.8,42.6
							c-0.5,0.5-1.2,0.9-1.8,1.3l-23.4,23.4C3318.7,310.4,3338.2,307.1,3358.1,307.1z"/>
					</g>
				</g>
				<g>
					<path class="st0" d="M3448.8,488.9c-21.8,0-39.5,17.7-39.5,39.5V1172c0,21.8,17.7,39.5,39.5,39.5h38.4
						c21.8,0,39.5-17.7,39.5-39.5v-35.6h-2.8c-21.8,0-39.5-17.7-39.5-39.5V488.9H3448.8z"/>
				</g>
			</g>
			<g>
				<path class="st0" d="M2722.7,488.9c-21.8,0-39.5,17.7-39.5,39.5v32.4l0,0v128.5l75.1-75.1v-62.7v-62.7L2722.7,488.9
					L2722.7,488.9z"/>
				<path d="M2683.3,698c-1.1,0-2.3-0.2-3.4-0.7c-3.3-1.4-5.5-4.6-5.5-8.2V528.4c0-26.7,21.7-48.3,48.2-48.3h35.6
					c4.9,0,8.8,4,8.8,8.8v125.4c0,2.3-0.9,4.6-2.6,6.2l-75.1,75.1C2687.8,697.1,2685.6,698,2683.3,698z M2722.7,497.6
					c-16.9,0-30.7,13.7-30.7,30.7v139.8l57.5-57.5v-113H2722.7z"/>
			</g>
			<g>
				<path class="st0" d="M2758.3,1136.4v-94.8l-54.9,30.6c-12.5,7-20.2,20.2-20.2,34.5v104.8h335.8v31.2v141.8l75.1-75.1v-66.7
					v-106.3H2758.3z"/>
				<path d="M3019,1393.3c-1.1,0-2.3-0.2-3.4-0.7c-3.3-1.4-5.5-4.6-5.5-8.2v-164.2h-327c-4.9,0-8.8-4-8.8-8.8v-104.8
					c0-17.5,9.5-33.6,24.8-42.2l54.9-30.6c2.7-1.5,6.1-1.5,8.8,0.1c2.7,1.6,4.4,4.5,4.4,7.6v86h326.9c4.9,0,8.8,4,8.8,8.8v173
					c0,2.3-0.9,4.6-2.6,6.2l-75.1,75.1C3023.6,1392.4,3021.3,1393.3,3019,1393.3z M2692,1202.7h327c4.9,0,8.8,4,8.8,8.8v151.8
					l57.5-57.5v-160.7h-327c-4.9,0-8.8-4-8.8-8.8v-79.8l-41.8,23.4c-9.7,5.4-15.7,15.7-15.7,26.8V1202.7z"/>
			</g>
			<g>
				<path class="st0" d="M2509.6,369.4l-2.6,2.6l0.1,0.1C2508,371.1,2508.8,370.3,2509.6,369.4z"/>
			</g>
			<g>
				<path class="st1" d="M3653.1,240.8h-219.9c-44.1,0-84,17.1-113.8,45l-0.6,0.1l-82,81.9l0.3,0.1c30.4-31.9,73.3-51.8,120.9-51.8
					h35.1h184.6c23.1,0,45.1,4.7,65.1,13.1c18.2,7.7,34.7,18.6,48.9,31.8l75.1-75.1C3737.1,258,3697,240.8,3653.1,240.8z"/>
				<path d="M3237.3,376.5c-0.6,0-1.2-0.1-1.7-0.2c-3.2-0.6-5.9-3-6.9-6.1c-0.9-3.1-0.2-6.5,2.1-8.8l82-81.9
					c0.7-0.7,1.4-1.2,2.3-1.6c32.5-29.6,74.4-46,118.3-46h219.8c44.6,0,87.1,16.8,120,47.5c1.8,1.6,2.8,3.9,2.8,6.3
					s-0.9,4.7-2.6,6.4l-75.1,75.1c-3.4,3.4-8.8,3.4-12.2,0.2c-13.7-12.8-29.3-23-46.4-30.2c-19.5-8.3-40.3-12.4-61.7-12.4h-219.8
					c-43.6,0-84.3,17.4-114.5,49.1C3242,375.5,3239.7,376.5,3237.3,376.5z M3358.1,307.1h219.8c23.8,0,46.9,4.7,68.5,13.8
					c16.3,6.9,31.5,16.3,45.2,27.9l62.6-62.6c-28.5-23.8-64.1-36.7-101.2-36.7h-219.8c-40.1,0-78.4,15.1-107.8,42.6
					c-0.5,0.5-1.2,0.9-1.8,1.3l-23.4,23.4C3318.7,310.4,3338.2,307.1,3358.1,307.1z"/>
			</g>
			<g>
				<polygon class="st1" points="2683.3,1211.5 2758.3,1136.4 3094.1,1136.4 3019,1211.5 				"/>
				<path d="M3019,1220.3h-335.8c-3.6,0-6.8-2.2-8.2-5.5c-1.4-3.3-0.6-7.1,1.9-9.6l75.1-75.1c1.7-1.7,3.9-2.6,6.2-2.6h335.9
					c3.6,0,6.8,2.2,8.2,5.5c1.4,3.3,0.6,7.1-1.9,9.6l-75.1,75.1C3023.6,1219.4,3021.4,1220.3,3019,1220.3z M2704.4,1202.7h311
					l57.5-57.5h-311L2704.4,1202.7z"/>
			</g>
			<g>
				<path class="st1" d="M2982.8,379.1l75.1-75.1c-30.6-38.6-77.9-63.4-130.9-63.4h-219.8c-43.6,0-83.1,16.7-112.7,44h-0.1l-1.2,1.2
					c-2.6,2.4-5,4.9-7.4,7.4l-67.4,67.4c29.8-27.8,69.7-44.8,113.7-44.8H2852c34.6,0,66.9,10.5,93.5,28.6c4.5,3,8.8,6.3,12.8,9.7
					C2967.3,361.4,2975.6,369.9,2982.8,379.1z"/>
				<path d="M2982.8,387.9c-0.2,0-0.3,0-0.5,0c-2.5-0.1-4.8-1.4-6.4-3.3c-7-8.9-14.8-16.8-23.4-23.9c-3.9-3.2-8-6.3-12.2-9.2
					c-26.2-17.7-56.8-27.1-88.6-27.1h-219.8c-40,0-78.2,15.1-107.7,42.5c-3.5,3.3-9,3.1-12.3-0.3c-3.3-3.5-3.3-9,0.1-12.3l67.4-67.4
					c2.3-2.5,5-5.1,7.6-7.6l1-1c0.4-0.4,0.8-0.7,1.2-1c32.4-29.3,74.2-45.6,117.9-45.6h219.8c53.9,0,104.2,24.4,137.9,66.8
					c2.8,3.5,2.5,8.6-0.7,11.6l-75.1,75.1C2987.4,387,2985.1,387.9,2982.8,387.9z M2632,307.1h219.8c35.3,0,69.3,10.4,98.4,30
					c4.7,3.2,9.3,6.6,13.5,10.1c7,5.8,13.5,12.1,19.6,19l62.6-62.6c-30.1-34.5-73.1-54.1-119.1-54.1H2707
					c-39.6,0-77.5,14.8-106.8,41.7c-0.2,0.2-0.4,0.4-0.7,0.6l-0.3,0.3c-2.6,2.4-5,4.8-7.2,7.2l-17.3,17.3
					C2593.1,310.4,2612.4,307.1,2632,307.1z"/>
			</g>
			<g>
				<path class="st1" d="M2464.8,483v206.1h218.4V528.4c0-21.8,17.7-39.5,39.5-39.5h38.4c21.8,0,39.5,17.7,39.5,39.5V787
					c0,14.3-7.8,27.5-20.2,34.5L2550.6,950c-52.9,29.5-85.8,85.5-85.8,146V1281v103.8h218.4l0,0h335.8v-173h-335.8V1107
					c0-14.3,7.8-27.5,20.2-34.5L2933.2,944c52.9-29.5,85.8-85.5,85.8-146V483c0-92.4-74.9-167.1-167.1-167.1H2632
					C2539.7,315.9,2464.8,390.7,2464.8,483z"/>
				<path d="M3019,1393.3h-554.1c-4.9,0-8.8-4-8.8-8.8v-288.7c0-63.8,34.6-122.7,90.2-153.7l229.8-128.4
					c9.7-5.4,15.7-15.7,15.7-26.8V528.3c0-16.9-13.7-30.7-30.7-30.7h-38.4c-16.9,0-30.7,13.7-30.7,30.7v161c0,4.9-4,8.8-8.8,8.8
					h-218.4c-4.9,0-8.8-4-8.8-8.8V483c0-97.1,79-176,176-176h219.8c97.1,0,176,79,176,176v315c0,63.8-34.6,122.7-90.2,153.7
					l-229.8,128.4c-9.7,5.4-15.7,15.7-15.7,26.8v95.9h327c4.9,0,8.8,4,8.8,8.8v173C3027.8,1389.3,3023.9,1393.3,3019,1393.3z
					 M2473.6,1375.7h536.6v-155.5h-327c-4.9,0-8.8-4-8.8-8.8v-104.8c0-17.5,9.5-33.6,24.8-42.2L2929,936.1c50-28,81.2-81,81.2-138.4
					V483c0-87.3-71.1-158.5-158.5-158.5h-219.8c-87.3,0-158.5,71.1-158.5,158.5v197.4h200.8V528.3c0-26.7,21.7-48.3,48.3-48.3h38.4
					c26.7,0,48.3,21.7,48.3,48.3v258.7c0,17.5-9.5,33.6-24.8,42.2l-229.8,128.4c-50,28-81.2,81-81.2,138.4v279.9L2473.6,1375.7
					L2473.6,1375.7z"/>
			</g>
			<g>
				<path class="st0" d="M2653,892.6l127.4-71.1c1.6-0.9,3.1-1.8,4.5-2.9c9.8-7.4,15.8-19.1,15.8-31.5v-9.9l-175,97.8
					c-11.5,6.5-22.1,14.2-31.6,22.9l0,0l-1.3,1.3c-2.7,2.6-5.4,5.2-8,8l-66.5,66.4h0.1c9.6-9,20.3-16.8,32-23.4L2653,892.6
					L2653,892.6z"/>
				<path d="M2518.4,981.9c-0.7,0-1.4-0.1-2-0.2c-3.1-0.7-5.6-3.1-6.5-6.2c-0.9-3.1-0.1-6.4,2.2-8.7l66.5-66.4
					c2.5-2.7,5.3-5.4,8.2-8.2l1.1-1.1c0.2-0.2,0.5-0.4,0.7-0.6c10-9.2,21.1-17.2,32.8-23.7l175-97.8c2.7-1.5,6.1-1.5,8.8,0.1
					s4.4,4.5,4.4,7.6v9.9c0,15.1-7.3,29.5-19.3,38.6c-1.7,1.3-3.5,2.5-5.5,3.6l-229.9,128.4c-10.7,6-21,13.4-30.3,22.2
					C2522.8,981.1,2520.6,981.9,2518.4,981.9z M2599.8,904.2l-0.9,0.9c-2.8,2.6-5.3,5.1-7.7,7.7l-9.6,9.6l194.4-108.6
					c1.2-0.7,2.4-1.4,3.5-2.3c6.3-4.7,10.4-11.6,11.8-19.3L2630,882.3c-10.7,6-20.8,13.2-29.9,21.7
					C2599.9,904.1,2599.8,904.2,2599.8,904.2z M2653,892.6L2653,892.6L2653,892.6z"/>
			</g>
		</g>
		<g>
			<g>
				<path class="st0" d="M1669.6,1341.2l0.1,0.2l2.8-2.8C1671.6,1339.5,1670.6,1340.3,1669.6,1341.2z"/>
			</g>
		</g>
		<rect x="795.5" y="315.9" class="st1" width="218.4" height="1068.7"/>
		<g>
			<path d="M1013.9,1393.3H795.5c-4.9,0-8.8-4-8.8-8.8V315.9c0-4.9,4-8.8,8.8-8.8h218.4c4.9,0,8.8,4,8.8,8.8v1068.7
				C1022.7,1389.3,1018.8,1393.3,1013.9,1393.3z M804.2,1375.7H1005V324.6H804.2V1375.7z"/>
		</g>
		<polygon class="st1" points="442.5,315.9 340.6,1168.7 238.7,315.9 18.8,315.9 146.3,1384.4 314.8,1384.4 366.4,1384.4 
			534.8,1384.4 662.4,315.9 		"/>
		<g>
			<path d="M534.8,1393.3H146.3c-4.5,0-8.2-3.3-8.8-7.8L10.1,317c-0.3-2.5,0.5-5,2.2-6.9c1.7-1.9,4.1-3,6.6-3h219.9
				c4.5,0,8.2,3.3,8.8,7.8l93.1,779.9l93.1-779.9c0.5-4.4,4.3-7.8,8.8-7.8h220c2.5,0,4.9,1.1,6.6,3c1.7,1.9,2.5,4.4,2.2,6.9
				L543.6,1385.5C543,1389.9,539.3,1393.3,534.8,1393.3z M154.2,1375.7h372.8L652.5,324.6H450.2l-101,845.1
				c-0.5,4.4-4.3,7.8-8.8,7.8s-8.2-3.3-8.8-7.8L231,324.6H28.7L154.2,1375.7z"/>
		</g>
		<path class="st1" d="M1839.3,1071.6c-41.3,23.2-88.7,36.4-139.4,36.4c-157.6,0-285.7-128.2-285.7-285.7s128.2-285.7,285.7-285.7
			c50.6,0,98.1,13.2,139.4,36.4V301.7c-44.5-11.8-91.1-18.3-139.4-18.3c-297.6,0-538.8,241.3-538.8,538.8s241.3,538.8,538.8,538.8
			c48.3,0,94.9-6.5,139.4-18.3L1839.3,1071.6L1839.3,1071.6z"/>
		<g>
			<path d="M1700,1369.9c-301.9,0-547.7-245.6-547.7-547.7s245.6-547.7,547.7-547.7c47.8,0,95.4,6.3,141.7,18.6
				c3.9,1,6.6,4.5,6.6,8.5v271.3c0,3.1-1.7,6-4.4,7.6c-2.7,1.6-6.1,1.6-8.8,0.1c-41.2-23.1-87.8-35.3-135.1-35.3
				c-152.7,0-276.9,124.3-276.9,276.9S1547.4,1099,1700,1099c47.3,0,93.9-12.2,135.1-35.3c2.7-1.5,6.1-1.5,8.8,0.1
				c2.7,1.6,4.4,4.5,4.4,7.6v271.3c0,4-2.7,7.5-6.6,8.5C1795.3,1363.6,1747.6,1369.9,1700,1369.9z M1700,292.3
				c-292.3,0-530.1,237.8-530.1,530.1s237.8,530.1,530.1,530.1c44,0,87.9-5.5,130.6-16.3v-249.9c-40.5,20.1-85.3,30.6-130.6,30.6
				c-162.4,0-294.5-132.1-294.5-294.5s132.1-294.5,294.5-294.5c45.3,0,90.1,10.5,130.6,30.6V308.6
				C1787.8,297.8,1743.8,292.3,1700,292.3z"/>
		</g>
		<g>
			<g>
				<path class="st0" d="M1486,750.5c0-60.5,18.9-116.6,51.1-162.8c-74.2,51.6-122.9,137.6-122.9,234.5
					c0,157.6,128.2,285.7,285.7,285.7c50.6,0,98.1-13.2,139.4-36.4v129.6v141.8l71.7-71.7v-74.7V999.8
					c-41.3,23.2-88.8,36.4-139.4,36.4C1614.1,1036.2,1486,908.1,1486,750.5z"/>
				<path d="M1839.3,1351.6c-1.1,0-2.3-0.2-3.4-0.7c-3.3-1.4-5.5-4.6-5.5-8.2v-256.7c-40.5,20.1-85.4,30.6-130.6,30.6
					c-162.4,0-294.5-132.1-294.5-294.5c0-96.2,47.4-186.5,126.6-241.7c3.5-2.4,8.3-2,11.2,1c3,3,3.4,7.8,1,11.2
					c-32.4,46.6-49.5,101.2-49.5,157.9c0,152.7,124.3,276.9,276.9,276.9c47.3,0,93.9-12.2,135.1-35.3c2.7-1.5,6.1-1.5,8.8,0.1
					c2.7,1.6,4.4,4.5,4.4,7.6v271.3c0,2.3-0.9,4.6-2.6,6.2l-71.7,71.7C1843.8,1350.7,1841.5,1351.6,1839.3,1351.6z M1839.3,1062.8
					c1.5,0,3.1,0.4,4.5,1.2c2.7,1.6,4.4,4.5,4.4,7.6v250.1l54.2-54.2v-253.1c-40.5,20.1-85.3,30.6-130.6,30.6
					c-162.4,0-294.5-132.1-294.5-294.5c0-43.5,9.5-85.8,27.7-124.6c-51.9,51.6-81.9,122.2-81.9,196.2
					c0,152.7,124.3,276.9,276.9,276.9c47.3,0,93.9-12.2,135.1-35.3C1836.3,1063.1,1837.8,1062.8,1839.3,1062.8z"/>
			</g>
			<g>
				<path class="st0" d="M1771.6,211.7c-167,0-316.4,76.1-415.3,195.4c93.3-77.3,212.9-123.7,343.5-123.7
					c48.3,0,94.9,6.5,139.4,18.3v93.4V573l71.7-71.7V399.7V230C1866.5,218.2,1819.9,211.7,1771.6,211.7z"/>
				<path d="M1839.3,581.9c-1.1,0-2.3-0.2-3.4-0.7c-3.3-1.4-5.5-4.6-5.5-8.2V308.5c-42.7-10.8-86.6-16.3-130.6-16.3
					c-123.2,0-243.1,43.2-337.9,121.7c-3.5,2.9-8.7,2.7-11.8-0.6c-3.2-3.2-3.5-8.4-0.6-11.8c104.6-126.2,258.3-198.6,422-198.6
					c47.8,0,95.4,6.3,141.7,18.6c3.9,1,6.6,4.5,6.6,8.5v271.3c0,2.3-0.9,4.6-2.6,6.2l-71.7,71.6
					C1843.8,581,1841.5,581.9,1839.3,581.9z M1700,274.7c47.8,0,95.4,6.3,141.7,18.6c3.9,1,6.6,4.5,6.6,8.5v250.1l54.2-54.2V236.8
					c-42.7-10.8-86.6-16.3-130.6-16.3c-127.3,0-248.5,45.3-343.7,126.5C1510.3,299.9,1604.2,274.7,1700,274.7z"/>
			</g>
		</g>
		<g>
			<path class="st1" d="M1839.3,301.7L1911,230c-44.5-11.8-91.1-18.3-139.4-18.3c-167,0-316.4,76.1-415.3,195.4
				c93.3-77.3,212.9-123.7,343.5-123.7C1748.1,283.4,1794.8,289.9,1839.3,301.7z"/>
			<path d="M1356.6,415.8c-2.3,0-4.5-0.9-6.3-2.6c-3.2-3.2-3.5-8.4-0.6-11.8c104.6-126.2,258.3-198.6,422-198.6
				c47.8,0,95.4,6.3,141.7,18.6c3.1,0.8,5.4,3.2,6.3,6.2c0.8,3.1-0.1,6.3-2.3,8.5l-71.7,71.7c-2.2,2.2-5.5,3.1-8.5,2.3
				c-44.8-11.9-90.8-18-137.1-18c-123.2,0-243.1,43.2-337.9,121.7C1360.4,415.2,1358.4,415.8,1356.6,415.8z M1771.6,220.5
				c-127.3,0-248.5,45.3-343.7,126.5c82.4-47.1,176.2-72.3,271.9-72.3c46.1,0,92,5.9,136.7,17.3l57.2-57.2
				C1853.8,225.3,1812.8,220.5,1771.6,220.5z"/>
		</g>
		<g>
			<path class="st0" d="M1839.3,1071.6l71.7-71.7c-41.3,23.2-88.8,36.4-139.4,36.4c-157.6,0-285.7-128.2-285.7-285.7
				c0-60.5,18.9-116.6,51.1-162.8c-74.2,51.6-122.9,137.6-122.9,234.5c0,157.6,128.2,285.7,285.7,285.7
				C1750.5,1108,1798,1094.7,1839.3,1071.6L1839.3,1071.6z"/>
			<path d="M1700,1116.8c-162.4,0-294.5-132.1-294.5-294.5c0-96.2,47.4-186.5,126.6-241.7c3.5-2.4,8.3-2,11.2,1c3,3,3.4,7.8,1,11.2
				c-32.4,46.6-49.5,101.2-49.5,157.9c0,152.7,124.3,276.9,276.9,276.9c47.3,0,93.9-12.2,135.1-35.3c3.8-2.2,8.7-1.2,11.3,2.4
				c2.7,3.5,2.3,8.5-0.8,11.5l-71.7,71.7c-0.6,0.6-1.2,1.1-1.9,1.5C1799.8,1103.8,1750.1,1116.8,1700,1116.8z M1504.9,626.1
				c-51.9,51.6-81.9,122.2-81.9,196.2c0,152.7,124.3,276.9,276.9,276.9c46.9,0,93.1-12,134-34.7l36.6-36.6
				c-31.6,11.3-65.2,17.2-98.9,17.2c-162.4,0-294.5-132.1-294.5-294.5C1477.1,707,1486.7,664.8,1504.9,626.1z M1839.3,1071.6
				L1839.3,1071.6L1839.3,1071.6z"/>
		</g>
		<g>
			<polygon class="st1" points="2065.3,841.9 1994.1,841.9 1839.3,841.9 1839.3,1057.4 1994.1,1057.4 2065.3,1057.4 2308.9,1057.4 
				2093.2,841.9 			"/>
			<path d="M2308.9,1066.3h-469.7c-4.9,0-8.8-4-8.8-8.8V842c0-4.9,4-8.8,8.8-8.8h254c2.3,0,4.6,0.9,6.2,2.6l215.5,215.5
				c2.5,2.5,3.3,6.3,1.9,9.6C2315.7,1064.1,2312.4,1066.3,2308.9,1066.3z M1848,1048.7h439.6l-197.9-198h-241.5v198H1848z"/>
		</g>
		<g>
			<polygon class="st0" points="2137.1,770.2 2065.7,770.2 1911,770.2 1839.3,841.9 1911,841.9 1939.2,841.9 1994.1,841.9 
				2065.3,841.9 2093.2,841.9 2237.1,985.7 2308.9,1057.4 2380.6,985.7 2165.1,770.2 			"/>
			<path d="M2308.9,1066.3c-2.3,0-4.6-0.9-6.2-2.6l-213-213h-250.4c-3.6,0-6.8-2.2-8.2-5.5c-1.4-3.3-0.6-7.1,1.9-9.6l71.7-71.7
				c1.7-1.7,3.9-2.6,6.2-2.6h254c2.3,0,4.6,0.9,6.2,2.6l215.5,215.5c3.4,3.4,3.4,9,0,12.4l-71.7,71.7
				C2313.5,1065.3,2311.2,1066.3,2308.9,1066.3z M1860.4,833.2h232.8c2.3,0,4.6,0.9,6.2,2.6l209.3,209.3l59.3-59.3l-206.7-206.7
				h-246.7L1860.4,833.2z"/>
		</g>
		<g>
			<polygon class="st1" points="2093.2,841.9 2165.1,770.2 1911,770.2 1839.3,841.9 			"/>
			<path d="M2093.2,850.7h-254c-3.6,0-6.8-2.2-8.2-5.5c-1.4-3.3-0.6-7.1,1.9-9.6l71.7-71.7c1.7-1.7,3.9-2.6,6.2-2.6h254
				c3.6,0,6.8,2.2,8.2,5.5c1.4,3.3,0.6,7.1-1.9,9.6l-71.7,71.7C2097.8,849.8,2095.6,850.7,2093.2,850.7z M1860.4,833.2h229.1
				l54.2-54.2h-229.1L1860.4,833.2z"/>
		</g>
		<g>
			<polygon class="st1" points="1994.1,587.2 2065.3,587.2 2308.9,587.2 2380.6,515.4 2137.1,515.4 2065.7,515.4 1911,515.4 
				1839.3,587.2 1911,587.2 			"/>
			<path d="M2308.9,595.9h-469.7c-3.6,0-6.8-2.2-8.2-5.5c-1.4-3.3-0.6-7.1,1.9-9.6l71.7-71.7c1.7-1.7,3.9-2.6,6.2-2.6h469.7
				c3.6,0,6.8,2.2,8.2,5.5c1.4,3.3,0.6,7.1-1.9,9.6l-71.7,71.7C2313.5,595,2311.2,595.9,2308.9,595.9z M1860.4,578.4h444.8
				l54.2-54.2h-444.8L1860.4,578.4z"/>
		</g>
		<g>
			<polygon class="st1" points="2065.3,802.6 2093.2,802.6 2308.9,587.2 2065.3,587.2 1994.1,587.2 1839.3,587.2 1839.3,802.6 
				1994.1,802.6 			"/>
			<path d="M2093.2,811.5h-254c-4.9,0-8.8-4-8.8-8.8V587.2c0-4.9,4-8.8,8.8-8.8h469.7c3.6,0,6.8,2.2,8.2,5.5
				c1.4,3.3,0.6,7.1-1.9,9.6l-215.6,215.5C2097.8,810.5,2095.6,811.5,2093.2,811.5z M1848,793.9h241.5l198-197.9h-439.6L1848,793.9
				L1848,793.9z"/>
		</g>
	</g>
	<g>
		<path class="st1" d="M132.6,101.1c-2.1-19.1-23.3-18.6-38.3-18.6c-8.1,0-25.2,0.3-31.7,5.8c-6.3,5.3-6.3,18.8-6.3,26.2
			c0,7.1,0.3,16.5,5.8,21.7c6.6,6.3,24.7,6.9,32.9,6.9c5.8,0,11.2,0,17-0.8c11.5-1.6,18.3-5,20.2-17.3h47.3
			c-0.5,13.9-1.3,27.3-11.5,37.7c-10.7,11.2-27.3,13.6-42.2,14.4c-11.2,0.5-22.2,0.8-33.5,0.8c-20.2,0-48.9,0.5-66.3-11.5
			C9.1,154.5,10,129.8,10,111.8c0-17.8-0.3-39,14.6-51.5c16.3-13.6,50-12.5,69.9-12.5S149,47,165.5,60.3c4.4,3.7,7.4,7.4,9.7,12.8
			c3.9,9.2,4.2,18.1,4.4,28.1L132.6,101.1L132.6,101.1z"/>
		<path class="st1" d="M375.5,134.6c-1,12-4.2,22.8-13.6,30.9c-15.9,13.9-53.7,12.3-73.3,12.3c-20.5,0-56.6,1.8-73.3-12.3
			c-4.7-3.9-7.6-8.1-9.9-13.6c-5.3-12.8-4.4-29-4.4-42.7c0-6.9,0-13.9,0.8-20.7c1-11.7,5.5-22.2,15.1-29.5
			c15.7-12,53.1-11.2,71.7-11.2c18.8,0,55.8-0.8,71.7,11.2c4.4,3.4,7.4,6.9,9.9,11.7c6.8,12,6.1,27.6,6.1,40.8
			C376.3,119.1,376,126.9,375.5,134.6z M324.3,89.3c-6.9-6.6-26.7-6.9-35.3-6.9c-8.4,0-17,0.3-25.2,1.8
			c-16.2,3.2-16.5,15.7-16.5,29.8c0,6.9-0.3,15.9,4.7,21.2c7.1,7.6,27.6,7.6,36.9,7.6c8.9,0,18.3,0,27-2.4
			c14.4-3.9,14.1-17,14.1-29.8C330,103.7,329.8,94.5,324.3,89.3z"/>
		<path class="st1" d="M625.6,174.7v-57.9c0-26.7-2.9-34.3-31.4-34.3c-31.9,0-34.3,12.5-34.3,41.1v51h-46.4v-57.9V108
			c0-22.5-9.7-25.7-30.6-25.7c-32.9,0-35.1,11.7-35.1,41.1v51h-46.4V50.7h43.7v18.6h2.1c8.7-19.1,31.7-21.7,50.2-21.7
			c23.6,0,44.3,3.9,56.3,25.9c9.5-23.1,31.4-25.9,53.7-25.9c18.1,0,38.3,2.1,51.3,15.9c4.4,4.7,7.9,9.7,9.7,15.9
			c3.7,12,3.4,24.9,3.4,37.2v57.8L625.6,174.7L625.6,174.7z"/>
		<path class="st1" d="M922.8,174.7v-57.9c0-26.7-2.9-34.3-31.4-34.3c-31.9,0-34.3,12.5-34.3,41.1v51h-46.4v-57.9V108
			c0-22.5-9.7-25.7-30.6-25.7c-32.9,0-35.1,11.7-35.1,41.1v51h-46.4V50.7h43.7v18.6h2.1c8.7-19.1,31.7-21.7,50.2-21.7
			c23.6,0,44.3,3.9,56.3,25.9c9.6-23.1,31.5-25.9,53.7-25.9c18.1,0,38.3,2.1,51.3,15.9c4.5,4.7,7.9,9.7,9.7,15.9
			c3.7,12,3.4,24.9,3.4,37.2v57.8L922.8,174.7L922.8,174.7z"/>
		<path class="st1" d="M1167.8,134.6c-1,12-4.2,22.8-13.6,30.9c-15.9,13.9-53.7,12.3-73.3,12.3c-20.5,0-56.6,1.8-73.3-12.3
			c-4.7-3.9-7.6-8.1-9.9-13.6c-5.3-12.8-4.5-29-4.5-42.7c0-6.9,0-13.9,0.8-20.7c1-11.7,5.5-22.2,15.1-29.5
			c15.7-12,53.1-11.2,71.7-11.2c18.8,0,55.8-0.8,71.7,11.2c4.4,3.4,7.4,6.9,9.9,11.7c6.8,12,6.1,27.6,6.1,40.8
			C1168.6,119.1,1168.3,126.9,1167.8,134.6z M1116.5,89.3c-6.9-6.6-26.7-6.9-35.3-6.9c-8.4,0-17,0.3-25.2,1.8
			c-16.2,3.2-16.5,15.7-16.5,29.8c0,6.9-0.3,15.9,4.7,21.2c7.1,7.6,27.6,7.6,36.9,7.6c8.9,0,18.3,0,27-2.4
			c14.4-3.9,14.1-17,14.1-29.8C1122.3,103.7,1122,94.5,1116.5,89.3z"/>
		<path class="st1" d="M1321.8,174.7v-16.2h-2.4c-3.2,5.3-5.5,8.7-10.7,11.7c-11.5,7.1-30.9,7.6-44,7.6c-19.1,0-45.1,0.3-60.3-13.1
			c-13.6-12-13.3-35.9-13.3-52.6c0-19.4,0.5-43,18.3-55c15.7-10.4,37.7-9.5,55.8-9.5c13.6,0,28.6-0.3,40.6,6.9
			c6.1,3.4,8.1,6.9,11.5,12.8h1.8V0h46.4v174.7H1321.8z M1317.1,94c-5.5-12.5-25.4-11.5-36.6-11.5c-11.5,0-34.8-1.3-40.6,11.7
			c-2.1,5.3-2.4,12-2.4,17.5c0,7.4-0.3,18.6,5.3,24.4c6.3,6.9,26.5,6.9,34.8,6.9c9.5,0,21-0.5,29.8-3.4
			c12.5-3.9,12.3-15.9,12.3-27.3C1319.6,106.5,1319.3,99.5,1317.1,94z"/>
		<path class="st1" d="M1565.3,134.6c-1,12-4.2,22.8-13.6,30.9c-15.9,13.9-53.7,12.3-73.3,12.3c-20.5,0-56.6,1.8-73.3-12.3
			c-4.7-3.9-7.6-8.1-9.9-13.6c-5.3-12.8-4.4-29-4.4-42.7c0-6.9,0-13.9,0.8-20.7c1-11.7,5.5-22.2,15.1-29.5
			c15.7-12,53.1-11.2,71.7-11.2c18.8,0,55.8-0.8,71.7,11.2c4.4,3.4,7.4,6.9,9.9,11.7c6.8,12,6.1,27.6,6.1,40.8
			C1566.1,119.1,1565.8,126.9,1565.3,134.6z M1513.9,89.3c-6.9-6.6-26.7-6.9-35.3-6.9c-8.4,0-17,0.3-25.2,1.8
			c-16.2,3.2-16.5,15.7-16.5,29.8c0,6.9-0.3,15.9,4.7,21.2c7.1,7.6,27.6,7.6,36.9,7.6c8.9,0,18.3,0,27-2.4
			c14.4-3.9,14.1-17,14.1-29.8C1519.7,103.7,1519.4,94.5,1513.9,89.3z"/>
		<path class="st1" d="M1734.6,105.8h-43.5c0-18.3-6.1-23.3-24.4-23.3c-28.6,0-29.3,18.1-29.3,40.8v51.3H1591V50.7h43.7v18.6h2.1
			c10.7-19.1,28.1-21.7,48.2-21.7c14.4,0,31.7,1.8,41.4,13.9c8.7,10.7,8.4,26.2,8.4,39.3C1734.9,102.4,1734.6,104.2,1734.6,105.8z"
			/>
		<path class="st1" d="M1919.4,122.8h-121c0,7.1-0.3,15.1,5.8,20.2c6.3,5,23.9,5.3,31.4,5.3c7.6,0,28.8,0.3,33.7-5.3
			c2.1-2.1,2.7-5,3.2-7.9h46.1c-1,11.7-3.4,21-12.3,29c-15.9,14.4-54.2,13.6-74.4,13.6c-18.3,0-48.9,0.3-64.2-11.5
			c-4.7-3.7-7.9-7.9-10.4-13.1c-5.8-12-5.3-27-5.3-39.8c0-7.9,0-15.7,0.8-23.3c1.3-12.5,5.5-23.9,15.9-31.4
			c16.2-11.7,48.7-10.9,67.8-10.9c17.5,0,36.6-0.5,53.7,4.4c27.6,8.1,29.3,33.2,29.3,58.1C1919.7,114.4,1919.7,118.6,1919.4,122.8z
			 M1873.2,94.5c0-4.7-0.3-8.4-3.7-12c-5.5-6.1-24.4-6.1-31.9-6.1c-7.1,0-14.1,0-21,1c-13.1,1.8-17.8,6.9-18.1,19.9h74.6
			L1873.2,94.5L1873.2,94.5z"/>
	</g>
</g>
</svg>
