<?xml version="1.0" encoding="utf-8"?>
<!-- Generator: Adobe Illustrator 26.0.3, SVG Export Plug-In . SVG Version: 6.00 Build 0)  -->
<svg version="1.1" id="Layer_1" xmlns="http://www.w3.org/2000/svg" xmlns:xlink="http://www.w3.org/1999/xlink" x="0px" y="0px"
	 viewBox="0 0 3839 843.9" style="enable-background:new 0 0 3839 843.9;" xml:space="preserve">
<style type="text/css">
	.st0{enable-background:new    ;}
	.st1{fill:#FFFFFF;}
</style>
<g>
	<g>
		<g>
			<path class="st1" d="M1370.2,729.1h19.6v44.6h51v-44.6h19.6v112.1h-19.6v-50.6h-51v50.6h-19.6V729.1z"/>
			<path class="st1" d="M1582.7,785.2c0,32-20.1,58.7-53.7,58.7c-33.6,0-53.7-26.7-53.7-58.7s20.1-58.7,53.7-58.7
				C1562.6,726.4,1582.7,753.1,1582.7,785.2z M1494.9,785.2c0,21.5,10,42.7,34.1,42.7c24,0,34.1-21.2,34.1-42.7
				c0-21.5-10-42.7-34.1-42.7C1505,742.5,1494.9,763.7,1494.9,785.2z"/>
			<path class="st1" d="M1597.6,729.1h27.6l30.9,87.8h0.3l30.1-87.8h27.3v112.1h-18.7v-86.5h-0.3l-31.1,86.5h-16.2l-31.1-86.5h-0.3
				v86.5h-18.7V729.1H1597.6z"/>
			<path class="st1" d="M1734.7,729.1h80.7v17h-61.1v29.4h56.5v16h-56.5v32.8h62.2v17h-81.8L1734.7,729.1L1734.7,729.1z"/>
			<path class="st1" d="M1952.9,764.8c-3.3-12.9-11.6-22.3-28-22.3c-24,0-34.1,21.2-34.1,42.7c0,21.5,10,42.7,34.1,42.7
				c17.4,0,27-13,28.6-29.4h19.2c-1.6,26.9-20.6,45.4-47.7,45.4c-33.6,0-53.7-26.7-53.7-58.7s20.1-58.7,53.7-58.7
				c25.3,0.2,45.2,14.1,47.6,38.3H1952.9z"/>
			<path class="st1" d="M2088.8,785.2c0,32-20.1,58.7-53.7,58.7s-53.7-26.7-53.7-58.7s20.1-58.7,53.7-58.7
				C2068.7,726.4,2088.8,753.1,2088.8,785.2z M2001,785.2c0,21.5,10,42.7,34.1,42.7c24,0,34.1-21.2,34.1-42.7
				c0-21.5-10-42.7-34.1-42.7C2011.1,742.5,2001,763.7,2001,785.2z"/>
			<path class="st1" d="M2103.7,729.1h27.6l30.9,87.8h0.3l30.1-87.8h27.3v112.1h-18.7v-86.5h-0.3l-31.1,86.5h-16.2l-31.1-86.5h-0.3
				v86.5h-18.7V729.1H2103.7z"/>
			<path class="st1" d="M2240.8,729.1h49.5c32,0,38.2,20.7,38.2,34.7c0,13.8-6.1,34.5-38.2,34.4h-29.8v43h-19.6L2240.8,729.1
				L2240.8,729.1z M2260.5,782.2h28.7c8.8,0,19.6-4.4,19.6-18.5c0-14.8-9-18.5-19.3-18.5h-29.1v37H2260.5z"/>
			<path class="st1" d="M2339.4,729.1h19.6v65.3c0,15.1,0.9,32.5,26.4,32.5c25.4,0,26.4-17.4,26.4-32.5v-65.3h19.6v71.8
				c0,28.7-18.4,43-46,43c-27.6,0-46-14.3-46-43V729.1z"/>
			<path class="st1" d="M2440.5,729.1h90.8v17h-35.6v95.2h-19.6v-95.2h-35.5L2440.5,729.1L2440.5,729.1z"/>
			<path class="st1" d="M2540.9,729.1h80.7v17h-61.1v29.4h56.5v16h-56.5v32.8h62.2v17h-81.8V729.1z"/>
			<path class="st1" d="M2637,729.1h53.5c24.5,0,37.1,11.3,37.1,30.3c0,21.5-14.9,27-18.5,28.3v0.3c6.8,0.9,16.6,6,16.6,23.7
				c0,13,1.9,25,6.1,29.5h-21c-3-4.9-3-11-3-16.5c0-20.6-4.2-29.7-22.3-29.7h-28.9v46.2H2637L2637,729.1L2637,729.1z M2656.6,780.1
				h32.2c12.4,0,19.2-6.1,19.2-17.9c0-14.3-9.3-17.1-19.5-17.1h-31.9V780.1z"/>
			<path class="st1" d="M2804.1,803.9c0,17.3,12.7,24,28.4,24c17.3,0,23.7-8.5,23.7-17c0-8.6-4.7-12.1-9.3-13.8
				c-7.9-3-18.1-5-33.4-9.3c-19.2-5.2-24.8-16.8-24.8-28.4c0-22.5,20.7-33,41-33c23.4,0,43,12.4,43,35.8h-19.6
				c-0.9-14.4-10.7-19.8-24.2-19.8c-9.1,0-20.6,3.3-20.6,14.6c0,7.9,5.3,12.2,13.3,14.4c1.7,0.5,26.5,6.9,32.3,8.6
				c14.8,4.4,21.8,17,21.8,28.6c0,25.1-22.3,35.2-44.6,35.2c-25.6,0-46.3-12.2-46.8-40h19.8V803.9z"/>
			<path class="st1" d="M2915.1,797.3l-42.1-68.1h22.8l29.7,50.2l29.2-50.2h22l-41.9,68.1v44h-19.6L2915.1,797.3L2915.1,797.3z"/>
			<path class="st1" d="M2993.4,803.9c0,17.3,12.7,24,28.4,24c17.3,0,23.7-8.5,23.7-17c0-8.6-4.7-12.1-9.3-13.8
				c-7.9-3-18.1-5-33.4-9.3c-19.2-5.2-24.8-16.8-24.8-28.4c0-22.5,20.7-33,41-33c23.4,0,43,12.4,43,35.8h-19.6
				c-0.9-14.4-10.7-19.8-24.2-19.8c-9.1,0-20.6,3.3-20.6,14.6c0,7.9,5.3,12.2,13.3,14.4c1.7,0.5,26.5,6.9,32.3,8.6
				c14.8,4.4,21.8,17,21.8,28.6c0,25.1-22.3,35.2-44.6,35.2c-25.6,0-46.3-12.2-46.8-40h19.8V803.9z"/>
			<path class="st1" d="M3068.4,729.1h90.8v17h-35.6v95.2h-19.7v-95.2h-35.5V729.1z"/>
			<path class="st1" d="M3168.8,729.1h80.7v17h-61.1v29.4h56.5v16h-56.5v32.8h62.2v17h-81.8L3168.8,729.1L3168.8,729.1z"/>
			<path class="st1" d="M3264.8,729.1h27.6l30.9,87.8h0.3l30.1-87.8h27.3v112.1h-18.7v-86.5h-0.3l-31.1,86.5h-16l-31.1-86.5h-0.3
				v86.5h-18.7V729.1z"/>
		</g>
		<g>
			<g>
				<g>
					<polygon points="812.5,103.4 992.8,88.8 1181.2,364.4 1100.5,541.3 					"/>
					<path class="st1" d="M990.3,94l185.2,270.9L1099.7,531L821.3,107.7L990.3,94 M995.3,83.5L803.7,99.1l297.6,452.5l85.7-187.7
						L995.3,83.5L995.3,83.5z"/>
				</g>
				<g>
					<polygon points="679.5,138.3 801.5,104.9 1101.5,561 1022,659.1 					"/>
					<path class="st1" d="M799.3,110.6l296,450.1l-72.9,89.9l-335-509.4L799.3,110.6 M803.7,99.1l-132.2,36.2l350.1,532.3
						l86.1-106.2L803.7,99.1L803.7,99.1z"/>
				</g>
				<g>
					<polygon points="580.1,222.3 662.5,130.7 1014.1,665.2 901.5,710.9 					"/>
					<path class="st1" d="M661.9,138.9l344.6,524l-103.1,41.9l-317-482L661.9,138.9 M663.1,122.5l-89.3,99.3l325.8,495.3l122-49.6
						L663.1,122.5L663.1,122.5z"/>
				</g>
			</g>
			<g>
				<polygon points="503.1,397.3 588.1,252.6 873.7,686.9 707.9,711 				"/>
				<path class="st1" d="M588.4,262.1L865.2,683l-154.8,22.5L509,397.2L588.4,262.1 M587.9,243.2l-90.7,154.3l208.3,318.9
					l176.7-25.7L587.9,243.2L587.9,243.2z"/>
			</g>
			<g>
				<g>
					<g>
						<path class="st1" d="M1160.4,833.8L1073.9,702l-6.3,4.5c-65.7,47-143.1,71.8-223.9,71.8c-81.7,0-159.7-25.2-225.6-73
							c-31.7-23-59.7-50.6-83.2-82c-23.7-31.8-42.3-66.8-55.3-104.1l-0.1-0.2l-7.1-18.6H229.8L149.1,653H12.4l290.4-549.3h163.4
							l38.9,104.1l8-13.3C546.8,138.6,594.5,91.7,651,59C709.3,25.3,775.9,7.5,843.6,7.5c174.9,0,328.1,118,372.7,286.9l9.8,37
							l29.3-227.6h138l-45.9,356.4c-2.2,16.9,3,33.9,14.3,46.7c11.2,12.8,27.5,20.1,44.5,20.1h150.3l54.5-423.3h138l-50.8,394.5
							l208.5-394.5h163.2l137,366.3l47.2-366.3l277.2,0.1c53.2,0,99.2,17,132.9,49.1c29.9,28.5,49.7,68.5,55.6,112.8
							c6.1,45.3-2.4,91.1-23.8,128.9c-23.4,41.4-60.2,69.9-106.4,82.6l-9.4,2.6l100.7,173.3h-147.6l-155.9-268.5h117.5
							c54.4,0,83.7-43.4,83.7-84.2c0-18.8-6.3-36.1-17.6-48.7c-12.9-14.2-31.5-21.8-53.9-21.8l-131.3-0.1l-19.9,154.7L2321.3,653
							h-188.1l-57.1-152.6h-242.6L1753,653.1h-399.8c-32.7,0-63.7-10.4-89.6-30.2c-24.9-18.9-43.5-45.8-52.4-75.6l-5.9-19.6
							l-8.2,18.7c-7.7,17.7-16.7,34.8-26.8,50.9l-2.6,4.1l152.7,232.3L1160.4,833.8L1160.4,833.8z M843.6,127.8
							c-146.2,0-265.1,118.9-265.1,265.1S697.4,658,843.6,658s265.1-118.9,265.1-265.1C1108.8,246.7,989.8,127.8,843.6,127.8z
							 M1894.8,384.6h138l-57.2-152.8L1894.8,384.6z M291.1,384.6h138l-57.2-152.8L291.1,384.6z"/>
						<path d="M843.6,15c42.9,0,85,7.1,125.1,21.2c38.8,13.6,74.9,33.4,107.4,58.8c32.2,25.2,60,55.1,82.5,89.1
							c22.9,34.5,39.9,72.3,50.4,112.3l19.5,74.1l9.8-76l23.6-183.1h122.9l-44.8,348c-2.5,19,3.4,38.2,16.1,52.6
							c12.7,14.4,30.9,22.7,50.1,22.7h143.7h13.2l1.7-13.1l52.9-410.2h122.9l-44.5,345l-10.6,82l38.6-73.1l187.1-353.9h153.7
							l124.6,333.2l21.1,56.5l7.7-59.9l42.5-329.9l270.6,0.1c26.7,0,51.5,4.3,73.7,12.9c20.4,7.9,38.6,19.4,54.1,34.1
							c28.7,27.3,47.6,65.8,53.4,108.4c5.9,43.7-2.3,87.8-22.9,124.3c-22.4,39.6-57.6,66.9-101.9,79l-18.8,5.1l9.8,16.8l89.2,153.6
							h-130.3L2390.4,392h104.5c59.2,0,91.2-47.2,91.2-91.6c0-20.7-6.9-39.8-19.6-53.7c-14.3-15.9-34.9-24.2-59.4-24.2l-124.7-0.1
							h-13.2l-1.7,13.1l-18,139.8l-2.2,16.9l0,0l-32.7,253.6h-176.4l-53.4-142.9l-3.6-9.7h-10.3h-232.9h-9l-4.2,8l-76.5,144.7h-63.7
							h-331.6c-31.1,0-60.5-9.9-85.1-28.6c-23.6-18-41.3-43.5-49.7-71.8l-11.7-39.2l-16.3,37.5c-7.6,17.4-16.4,34.1-26.3,49.9
							l-5.1,8.1l5.3,8l142.4,216.7h-142l-80.1-121.9l-8.6-13l-12.7,9.1c-64.4,46.1-140.3,70.4-219.5,70.4
							c-40.5,0-80.3-6.4-118.3-18.9c-36.8-12.1-71.4-29.8-102.9-52.7c-31.1-22.5-58.6-49.6-81.6-80.4c-23.3-31.1-41.5-65.5-54.2-102
							l-0.1-0.2l-0.1-0.2l-5.3-13.8l-3.7-9.6h-10.3H234.3h-9l-4.2,8L144.6,646H24.8l282.5-534.4H461l31.7,84.7l10.9,29l16-26.6
							c33-54.9,79.8-100.9,135.3-133c28.1-16.3,58.2-28.8,89.4-37.3C776.5,19.4,809.9,15,843.6,15 M843.6,665.5
							c150.3,0,272.6-122.3,272.6-272.6S993.9,120.3,843.6,120.3C693.3,120.3,571,242.6,571,392.9S693.3,665.5,843.6,665.5
							 M1882.4,392.1h24.8H2022h21.6l-7.6-20.2l-47.5-127.1l-11.7-31.2l-15.6,29.5L1894,370.2L1882.4,392.1 M278.6,392.1h24.8h114.8
							h21.6l-7.6-20.2l-47.5-127.1L373,213.5L357.5,243l-67.2,127.1L278.6,392.1 M843.6,0c-143,0-268.2,76.5-336.9,190.8l-35.3-94.4
							H298.3L0,660.6h153.6L234.3,508h232.9l5.3,13.8c53.4,153.7,199.3,264,371.2,264c85.1,0,163.9-27.2,228.2-73.2l84.5,128.6
							h177.9l-157.6-239.9c10.3-16.5,19.5-33.8,27.3-51.9c19,63.6,77.9,111.1,149.2,111.1h331.6h72.7l80.7-152.6h232.8l57.1,152.6
							h199.9l36.5-283.5L2529,660.5h164.9l-102.3-176.1c201.8-55.3,181.7-388.1-60.3-388.1l-283.8-0.1l-44.2,342.9L2075.1,96.3H1902
							l-191.3,361.9l46.6-361.9h-153.1l-54.5,423.3h-143.7c-31.2,0-55.3-27.4-51.3-58.4l47-364.9h-153.1l-25.3,196.2
							C1179.2,124.2,1025.9,0,843.6,0L843.6,0z M843.6,650.6C701.3,650.6,586,535.2,586,392.9s115.4-257.6,257.6-257.6
							c142.3,0,257.6,115.4,257.6,257.6C1101.3,535.2,985.9,650.6,843.6,650.6L843.6,650.6z M2364.5,377.1l18-139.8l124.7,0.1
							c93.1,0,80.9,139.7-12.2,139.7H2364.5L2364.5,377.1z M1907.2,377.1l67.2-127.1l47.5,127.1H1907.2L1907.2,377.1z M303.5,377.1
							L370.7,250l47.5,127.1H303.5L303.5,377.1z"/>
					</g>
					<g>
						<polygon class="st1" points="2702.4,653.1 2773.2,103.8 2911.2,103.8 2840.4,653.1 						"/>
						<path d="M2902.7,111.3l-68.9,534.4h-122.9l68.9-534.4L2902.7,111.3 M2919.7,96.3h-153.1l-72.7,564.3h153L2919.7,96.3
							L2919.7,96.3z"/>
					</g>
					<g>
						<path class="st1" d="M3049.5,653.1c-42.6,0-83.1-18.3-111.3-50.3c-28.1-32-41.1-74.6-35.7-116.8l49.3-382.2h138l-45.9,356.4
							c-2.2,16.9,3,33.9,14.3,46.7c11.2,12.8,27.5,20.1,44.5,20.1H3253l54.5-423.3h138L3374.7,653L3049.5,653.1L3049.5,653.1z"/>
						<path d="M3436.8,111.3l-68.9,534.4h-318.5c-20.7,0-40.6-4.4-59.1-13c-17.8-8.3-33.5-20-46.5-34.8
							c-13.1-14.9-22.7-31.9-28.6-50.6c-6.2-19.5-7.9-39.8-5.3-60.3l48.4-375.7h122.9l-44.8,348c-2.5,19,3.4,38.2,16.1,52.6
							c12.7,14.4,30.9,22.7,50.1,22.7h143.7h13.2l1.7-13.1l52.9-410.2L3436.8,111.3 M3453.8,96.3h-153.1l-54.5,423.3h-143.7
							c-31.2,0-55.3-27.4-51.3-58.4l47-364.9h-153.1L2895,485c-12,93.1,60.5,175.6,154.4,175.6H3381L3453.8,96.3L3453.8,96.3z"/>
					</g>
					<g>
						<path class="st1" d="M3613.2,717.8c-69.9,0-120.2-26.8-150.2-49.2c-27.1-20.3-42.9-40.8-47.6-47.4l23.3-180.7
							c20.4,45.4,48.3,75.2,69.7,93c32.7,27.2,70.2,42.9,102.8,42.9c31.8,0,56-14.4,68.2-40.6c6.6-14.1,7.4-28.1,2.5-41.5
							c-12.9-35.3-62.3-58.2-95.1-73.4c-4.3-2-8.4-3.9-11.9-5.6c-29.1-14.1-51.6-31.2-68.7-52.3c-25.1-30.9-37.8-70-37.8-116.1
							c0-48.1,22.8-93.8,64.1-128.7c37.6-31.8,86.7-50.8,131.2-50.8c75.9,0,125.8,30.4,138.7,39.3L3786.1,234
							c-25.7-30.2-69.4-44.1-103.6-44.1c-35.3,0-60.1,13.4-66.4,35.7c-15.2,53.8,69.6,79.5,76.1,81.4
							c53.2,19.2,92.1,51.4,115.6,95.5c23.8,44.7,24.8,88.6,23.2,110.8c-2.5,35.5-11.2,67.6-25.8,95.2c-13.1,24.7-30.9,45.9-53,63.1
							C3714.2,701,3663.6,717.8,3613.2,717.8z"/>
						<path d="M3663.8,74.8c44.6,0,79.5,10.9,101,20c13.6,5.8,23.7,11.6,29.7,15.5l-13.9,107.6c-27.6-24.2-66.7-35.5-98.2-35.5
							c-38.8,0-66.3,15.4-73.6,41.2c-4.3,15.3-5.2,44.8,37,70.9c19.5,12,40.2,18.5,43.9,19.6c51.3,18.6,88.8,49.5,111.3,91.9
							c22.9,43.1,23.9,85.4,22.4,106.8c-2.4,34.5-10.8,65.5-24.9,92.2c-12.6,23.8-29.7,44.2-51,60.7
							c-36.7,28.4-85.6,44.8-134.4,44.8c-29.8,0-58.5-5-85.1-14.8c-21.4-7.9-41.6-18.8-60.1-32.6c-23.9-17.8-38.8-35.8-44.8-43.8
							l19.8-153.5C3486,542.9,3556.8,584,3611.1,584c34.4,0,61.7-16.4,75-44.9c7.4-16,8.4-31.9,2.8-47.3
							c-13.9-38.2-65.1-61.9-98.9-77.7c-4.3-2-8.4-3.9-11.8-5.6c-28.1-13.6-49.7-30.1-66.2-50.3c-24-29.5-36.2-67-36.2-111.4
							c0-45.8,21.8-89.5,61.5-123C3573.7,93.1,3620.9,74.8,3663.8,74.8 M3663.8,59.8c-92.4,0-202.8,77.8-202.8,187
							s68.4,154.6,110.7,175.1c37.5,18.2,128,52.8,101,110.7c-11.5,24.6-34.1,36.3-61.4,36.3c-60.1,0-142.5-56.8-176.2-158.5
							l-27.4,212.7c0,0,65.8,102.2,205.6,102.2c93.3,0,214.4-57.2,225.2-211.5c4.6-65.4-20.8-169.6-144-214c0,0-84.7-24.1-71.2-72.2
							c5.7-20.2,30.2-30.3,59.2-30.3c40,0,88.7,19.2,108.5,57.2l19.5-151.4C3810.5,103.2,3756.2,59.8,3663.8,59.8L3663.8,59.8z"/>
					</g>
				</g>
			</g>
		</g>
	</g>
</g>
</svg>
