<?xml version="1.0" encoding="utf-8"?>
<!-- Generator: Adobe Illustrator 26.0.3, SVG Export Plug-In . SVG Version: 6.00 Build 0)  -->
<svg version="1.1" xmlns="http://www.w3.org/2000/svg" xmlns:xlink="http://www.w3.org/1999/xlink" x="0px" y="0px"
	 viewBox="0 0 3839 1990.7" style="enable-background:new 0 0 3839 1990.7;" xml:space="preserve">
<style type="text/css">
	.st0{fill:none;stroke:#221F1F;stroke-width:2.206;stroke-miterlimit:10;}
	.st1{fill:#FFFFFF;}
	.st2{fill:none;stroke:#221F1F;stroke-width:2.2331;stroke-miterlimit:10;}
	.st3{stroke:#FFFFFF;stroke-width:5.0614;stroke-miterlimit:10;}
	.st4{stroke:#FFFFFF;stroke-width:5;stroke-miterlimit:10;}
	.st5{fill:none;stroke:#221F1F;stroke-width:2.5576;stroke-miterlimit:10;}
	.st6{fill:none;stroke:#221F1F;stroke-width:2.1796;stroke-miterlimit:10;}
	.st7{stroke:#FFFFFF;stroke-width:4.9401;stroke-miterlimit:10;}
</style>
<g id="Layer_1">
	<g>
		<g>
			<g>
				<polygon points="293.6,1890.2 11.2,890.8 480,767.9 786.7,789.8 1354,876.6 2319,891 3033,724.5 3826.9,896.3 3439.8,1943.8 
					2374.6,1955.4 1607.1,1903.2 895.5,1981.6 				"/>
				<path class="st1" d="M3033.1,733.7l781.7,169.2l-381.4,1031.9l-1058.5,11.6l-766.3-52.1l-1.6-0.1l-1.6,0.2l-709.6,78.1
					l-595-90.3L22.4,897.2L480.8,777l304.8,21.7l566.4,86.7l1.2,0.2l1.2,0l963.2,14.4l2.2,0l2.2-0.5L3033.1,733.7 M3033,715.2
					l-715,166.7l-963.2-14.4l-567.1-86.8l-308.6-22L0,884.4l286.5,1013.9l608.9,92.4l712-78.4l767.1,52.2l1071.7-11.8l392.9-1063
					L3033,715.2L3033,715.2z"/>
			</g>
			<ellipse class="st1" cx="1340.2" cy="1088.1" rx="17.2" ry="15.7"/>
			<path class="st1" d="M1338.7,750.8c-119.5-4-140.7,84.2-140.7,109c0,62.7,81.5,67.3,84.9,92.4c1.9,13.8,3.5,44.3,43.4,51.4
				c3.6,0.6,4.1,5.7,0.6,6.9c-16.1,5.7-37.4,15.6-37.4,28.2c0,20.2,24.8,28.1,64.6,28.1c0,0,36.2,2.3,36.2-9.8
				c0-7-15.2-12.3-28.1-15.6c-3.7-0.9-3.6-6.1,0.1-7c15.3-3.5,34.8-10,34.8-20.2c0-9.8-16.6-16-30.2-19.4c-3.7-0.9-3.6-6.2,0.2-7
				l12.9-2.6c5.6-1.1,9.7-5.9,10.5-11.6c7.2-55.7,76.8-45.2,76.8-122.3C1467.3,826.5,1439.2,754.2,1338.7,750.8z M1397.6,887.1
				c-14.7,11-28.7,25.8-39.4,52.6c-1.1,2.7-3.6,4.6-6.5,4.9c-5,0.4-11.5-0.1-15.8-0.5c-2.8-0.3-5.3-2-6.2-4.7
				c-7.1-20.4-34.3-42.6-53.7-52.8c-26.4-13.9-30.9-28.5-30.9-36.3c0-14.6,1.5-53.9,85.8-52.5c2,0,4.1,0,6.2,0.1
				c69.1,2.3,74.5,46.5,74.5,52.6C1411.6,860.2,1415,874.2,1397.6,887.1z"/>
			<path class="st1" d="M1297.7,677.3c-21.3-1.2-20.7,56.1,1.3,53.4C1322.9,727.6,1314.9,678.3,1297.7,677.3z"/>
			<path class="st1" d="M1175.1,714c-10.5,11.5,39.8,58,50.9,41.3C1238.1,737,1185.6,702.6,1175.1,714z"/>
			<path class="st1" d="M1130.9,793.3c-9.6,17.4,35.5,51.2,47.3,29.9C1191,800.1,1136.4,783.4,1130.9,793.3z"/>
			<path class="st1" d="M1428.9,687.8c-19.9-15.2-57.3,41.3-34.1,53C1420.1,753.7,1444.9,700.1,1428.9,687.8z"/>
			<path class="st1" d="M1527.2,759.1c-6.6-21.2-73,5.3-61.4,25.4C1478.4,806.3,1532.5,776.2,1527.2,759.1z"/>
			<polygon class="st1" points="2420.8,1646.1 1610.6,1591.6 896.7,1670.9 188.1,1550.2 286.5,1898.3 895.3,1990.7 1607.3,1912.3 
				2374.4,1964.5 3446.1,1952.7 3559.4,1646.1 			"/>
			<g>
				<path d="M319.5,1739.2l8.2-31.5h89.6v31.5h-31.6v105.5l-32.5,3.2v-108.7H319.5z"/>
				<path d="M455.6,1748.7c5.7-6.3,15.5-9.9,23.7-9.9c27,0,36,18.2,36,44v61.8l-29.9,3.2v-62.8c0-12.1-5.9-18-14.9-18
					s-14.9,5.9-14.9,18v59.6l-29.9,3.2v-142.4l29.9-3.2V1748.7z"/>
				<path d="M565.1,1813.8c3.4,5.3,10.3,7.5,16.1,7.5c10.5,0,20.5-5.3,28.5-12.1l15.7,24.2c-13,9.5-27.8,16.2-44.8,16.2
					c-31.4,0-53-28.9-53-53.9c0-30.9,23.4-56.8,51.7-56.8c20.7,0,40,12.5,49.2,31.9L565.1,1813.8z M592.7,1769.3
					c-3.1-3.4-8-4.2-13.2-4.2c-13,0-23.2,12.9-23.2,26.3v3.6L592.7,1769.3z"/>
				<path d="M782.3,1745.9c-7.1-5.3-15.1-9.9-23.9-9.9c-22.2,0-37.9,16.8-37.9,40.6c0,24,14.7,41.4,37.9,41.4
					c8.8,0,17.8-5.1,24.7-10.3l-4,36.8c-5.4,3-17,5.1-23,5.1c-40,0-68.2-29.1-68.2-72.1c0-41.4,28.1-72.9,68-72.9
					c7.3,0,14.9,1.2,21.4,4.4L782.3,1745.9z"/>
				<path d="M793.6,1794.2c0-32.1,25.8-55.4,54.8-55.4c29.1,0,54.9,23.2,54.9,55.4c0,32.1-25.8,55.4-54.9,55.4
					C819.4,1849.5,793.6,1826.3,793.6,1794.2z M848.3,1820.2c13.4,0,25.1-11.5,25.1-26.1s-11.7-26.1-25.1-26.1
					c-13.2,0-24.9,11.5-24.9,26.1S835.1,1820.2,848.3,1820.2z"/>
				<path d="M914.6,1742l27.2-3.2v16.6h0.4c3.3-9.9,11.7-16.6,22.4-16.6c9.2,0,17.6,4.6,22.8,12.5c6.3-8.3,16.3-12.5,26.2-12.5
					c29.9,0,34.7,24,34.7,49.1v56.8l-29.9,3.2v-64.2c0-11.7-4.2-16.6-10.9-16.6c-5.7,0-11.1,6.5-11.1,16.6v61l-29.9,3.2v-64.2
					c0-10.1-3.3-16.6-10.9-16.6c-5.7,0-11.1,6.5-11.1,16.6v61l-29.9,3.2V1742z"/>
				<path d="M1092,1880.2l-29.9,3.2V1742l28-3.2v19h0.4c5.4-11.7,17.6-19,29.9-19c28.7,0,48.6,27.9,48.6,56.6
					c0,28.3-23.4,54.1-50.2,54.1c-9.8,0-21.1-2.6-26.4-11.9h-0.4V1880.2z M1114.8,1821.2c14,0,24.3-13.5,24.3-27.1
					c0-13.5-10.3-27.1-24.3-27.1c-14,0-24.3,13.5-24.3,27.1C1090.5,1807.7,1100.8,1821.2,1114.8,1821.2z"/>
				<path d="M1241,1743.6l29.9-3.2v104.2l-27.6,3.2v-15.8h-0.4c-5.7,13.7-17.4,17.4-25.7,17.4c-27,0-36-18.2-36-44v-61.8l29.9-3.2
					v62.8c0,12.1,5.9,18,14.9,18s14.9-5.9,14.9-18V1743.6z"/>
				<path d="M1281.8,1769.7l6.3-26.3h9.4v-20.6l29.9-12.1v32.7h17v26.3h-17v36.4c0,10.3,7.5,13.1,15.9,13.1c2.7,0,6.5-0.6,7.8-1.2
					l-8.6,31.1c-1.3,0.2-3.1,0.4-4.6,0.4c-26.4,0-40.4-13.3-40.4-41v-38.8H1281.8z"/>
				<path d="M1395.1,1813.8c3.4,5.3,10.3,7.5,16.1,7.5c10.5,0,20.5-5.3,28.5-12.1l15.7,24.2c-13,9.5-27.8,16.2-44.8,16.2
					c-31.4,0-53-28.9-53-53.9c0-30.9,23.4-56.8,51.7-56.8c20.7,0,40,12.5,49.2,31.9L1395.1,1813.8z M1422.7,1769.3
					c-3.1-3.4-8-4.2-13.2-4.2c-13,0-23.2,12.9-23.2,26.3v3.6L1422.7,1769.3z"/>
				<path d="M1468.6,1743.6l26.4-3.2v19.8h0.4c5.7-18.2,15.5-21.4,31.8-21.4l-8.4,31.5c-14.9-0.2-20.3,6.1-20.3,21.6v52.7l-29.9,3.2
					V1743.6z"/>
				<path d="M1575.1,1739.2l8.2-31.5h89.6v31.5h-31.6v105.5l-32.5,3.2v-108.7H1575.1z"/>
				<path d="M1711.2,1748.7c5.7-6.3,15.5-9.9,23.7-9.9c27,0,36,18.2,36,44v61.8l-29.9,3.2v-62.8c0-12.1-5.9-18-14.9-18
					s-14.9,5.9-14.9,18v59.6l-29.9,3.2v-142.4l29.9-3.2V1748.7z"/>
				<path d="M1799.1,1743.4c7.7-2.8,18.8-4.6,27-4.6c24.5,0,41.4,10.7,41.4,36.4v69.5l-26,3.2v-10.3h-0.4
					c-5.7,9.3-14.4,11.9-24.5,11.9c-22.2,0-34.3-15.4-34.3-37.6c0-21,16.3-34.1,35.2-34.1c7.5,0,15.9,3,22.2,7.9
					c0.2-1,0.2-2,0.2-3.2c0-14.3-6.3-17.4-19.1-17.4c-8.8,0-17.8,2.4-25.8,6.3L1799.1,1743.4z M1824.9,1825.3
					c8,0,14.7-5.1,14.7-13.7c0-8.5-6.7-13.5-14.7-13.5c-8.2,0-14.9,5.1-14.9,13.5C1810,1820.2,1816.7,1825.3,1824.9,1825.3z"/>
				<path d="M1877.6,1769.7l6.3-26.3h9.4v-20.6l29.9-12.1v32.7h17v26.3h-17v36.4c0,10.3,7.5,13.1,15.9,13.1c2.7,0,6.5-0.6,7.8-1.2
					l-8.6,31.1c-1.3,0.2-3.1,0.4-4.6,0.4c-26.4,0-40.4-13.3-40.4-41v-38.8H1877.6z"/>
				<path d="M2000.7,1739.2l8.2-31.5h89.6v31.5h-31.6v105.5l-32.5,3.2v-108.7H2000.7z"/>
				<path d="M2136.8,1748.7c5.7-6.3,15.5-9.9,23.7-9.9c27,0,36,18.2,36,44v61.8l-29.9,3.2v-62.8c0-12.1-5.9-18-14.9-18
					s-14.9,5.9-14.9,18v59.6l-29.9,3.2v-142.4l29.9-3.2V1748.7z"/>
				<path d="M2250.9,1713.5l-19.1,19.8l-21.6-16.6l18.8-20.2L2250.9,1713.5z M2246.5,1844.7l-29.9,3.2v-104.2l29.9-3.2V1844.7z"/>
				<path d="M2294.2,1754.6h0.4c7.7-12.1,17.4-15.8,25.7-15.8c27,0,36,18.2,36,44v61.8l-29.9,3.2v-62.8c0-12.1-5.9-18-14.9-18
					s-14.9,5.9-14.9,18v59.6l-29.9,3.2V1742l27.6-3.2V1754.6z"/>
				<path d="M2374.4,1705.5l29.9-3.2v82h0.4l34.5-47.1l30.8,9.9l-33.9,42.2l38.9,50.1l-33.7,8.5l-36.6-50.7h-0.4v47.5l-29.9,3.2
					V1705.5z"/>
				<path d="M2488.1,1813.8c5.9,6.3,13.2,9.5,21.6,9.5c5,0,13.4-0.8,13.4-8.3c0-14.3-45.9,0-45.9-42.2c0-23.2,17.8-33.9,37.3-33.9
					c11.9,0,24.1,6.1,32.7,14.5l-16.5,17.6c-4.2-3.4-10.1-5.9-15.7-5.9c-3.6,0-10.1,0.8-10.1,6.3c0,17.4,45.9,0,45.9,43.2
					c0,22.8-19.3,35-38.7,35c-16.7,0-26-3.4-39.2-14.1L2488.1,1813.8z"/>
				<path d="M2652.2,1704.5v140.2l-32.5,3.2v-140.2L2652.2,1704.5z"/>
				<path d="M2665,1769.7l6.3-26.3h9.4v-20.6l29.9-12.1v32.7h17v26.3h-17v36.4c0,10.3,7.5,13.1,15.9,13.1c2.7,0,6.5-0.6,7.8-1.2
					l-8.6,31.1c-1.3,0.2-3.1,0.4-4.6,0.4c-26.4,0-40.4-13.3-40.4-41v-38.8H2665z"/>
				<path d="M2762.1,1704.5c7.1,3.8,12.8,14.1,12.8,22.4c0,14.7-10,29.3-17.4,41l-14.9-7.7c3.4-7.1,9.4-17.8,9.4-25.7
					c0-6.9-4.2-13.5-10.3-15.6L2762.1,1704.5z"/>
				<path d="M2789.5,1813.8c5.9,6.3,13.2,9.5,21.6,9.5c5,0,13.4-0.8,13.4-8.3c0-14.3-45.9,0-45.9-42.2c0-23.2,17.8-33.9,37.3-33.9
					c11.9,0,24.1,6.1,32.7,14.5l-16.5,17.6c-4.2-3.4-10.1-5.9-15.7-5.9c-3.6,0-10.1,0.8-10.1,6.3c0,17.4,45.9,0,45.9,43.2
					c0,22.8-19.3,35-38.7,35c-16.7,0-26-3.4-39.2-14.1L2789.5,1813.8z"/>
				<path d="M2974.4,1704.5l70.8,138l-33.1,7.1l-13.4-29.7h-50l-13.2,29.7l-31.6-7.1l70.1-138H2974.4z M2956.6,1794.2h34.8
					l-17.4-33.9L2956.6,1794.2z"/>
				<path d="M3089.5,1739.2l8.2-31.5h89.6v31.5h-31.6v105.5l-32.5,3.2v-108.7H3089.5z"/>
				<path d="M3176.8,1794.2c0-32.1,25.8-55.4,54.8-55.4c29.1,0,54.9,23.2,54.9,55.4c0,32.1-25.8,55.4-54.9,55.4
					C3202.6,1849.5,3176.8,1826.3,3176.8,1794.2z M3231.5,1820.2c13.4,0,25.1-11.5,25.1-26.1s-11.7-26.1-25.1-26.1
					c-13.2,0-24.9,11.5-24.9,26.1S3218.3,1820.2,3231.5,1820.2z"/>
				<path d="M3338,1800.6l23.7-61.8l28.7,7.7l-58,137l-31.2-3.2l21.3-45.1l-37.5-88.9l29.1-7.5L3338,1800.6z"/>
				<path d="M3397.2,1827.9l20.5-21.2l20.5,21.2l-20.5,21.2L3397.2,1827.9z M3403.5,1802l-2.7-95l33.9-4.8l-3.4,96.6L3403.5,1802z"
					/>
			</g>
			<g>
				<rect x="2007" y="1868.7" width="538.3" height="21"/>
			</g>
			<path d="M1397.6,887.1c17.4-12.9,14-26.9,14-36.7c0-6.1-5.3-50.3-74.5-52.6c-2.1-0.1-4.2-0.1-6.2-0.1
				c-84.3-1.5-85.8,37.9-85.8,52.5c0,7.9,4.5,22.4,30.9,36.3c19.4,10.2,46.6,32.4,53.7,52.8c0.9,2.6,3.4,4.4,6.2,4.7
				c4.4,0.5,10.8,1,15.8,0.5c2.9-0.3,5.4-2.2,6.5-4.9C1369,912.9,1382.9,898.1,1397.6,887.1z"/>
			<g>
				<path d="M3118.8,1416.7c-66.6,0-125.8-6.4-176.1-18.9c-43.4-10.8-80.2-26.2-109.6-45.8c-24.6-16.4-43.5-35.4-56-56.4
					c-10.1-16.9-15.7-34.9-15.7-50.7v-19.3c0-23.3,7.5-48,21.6-71.4c15.1-24.9,36.8-47.5,64.6-67.2c44.8-31.7,125.4-69.4,255.2-69.4
					c109.4,0,193.9,14.4,251,42.7c49.2,24.4,75.1,58.3,75.1,98v75.7c0,41.9-27.7,86.7-74.2,119.9
					C3314.6,1382.6,3241.1,1416.7,3118.8,1416.7z M2959.8,1047.9c-66.3,0-120.3,54-120.3,120.3v52.8c0,66.3,54,120.3,120.3,120.3
					h283.4c66.3,0,120.3-54,120.3-120.3v-52.8c0-66.3-54-120.3-120.3-120.3H2959.8z"/>
				<path class="st1" d="M3102.7,1020.1c56,0,106.2,3.9,149.2,11.6c39.8,7.1,73.7,17.5,100.6,30.9c48.3,24,73.8,57.1,73.8,95.8v75.7
					c0,41.1-27.3,85.2-73.1,117.8c-39.8,28.4-112.7,62.2-234.4,62.2c-66.4,0-125.4-6.3-175.5-18.8c-43.1-10.7-79.7-26-108.8-45.4
					c-24.3-16.2-42.9-34.9-55.3-55.6c-9.9-16.5-15.4-34.1-15.4-49.4v-19.3c0-22.9,7.3-47.1,21.2-70.1c14.9-24.6,36.4-47,63.9-66.4
					c29.9-21.2,65.6-37.8,106.1-49.5C2999.7,1026.7,3049.4,1020.1,3102.7,1020.1 M2959.8,1343.9h283.4
					c67.7,0,122.8-55.1,122.8-122.8v-52.8c0-67.7-55.1-122.8-122.8-122.8h-283.4c-67.7,0-122.8,55.1-122.8,122.8v52.8
					C2837,1288.8,2892.1,1343.9,2959.8,1343.9 M3102.7,1015.1c-225.9,0-343.8,116.2-343.8,210.5v19.3c0,58.8,74.3,174.3,359.9,174.3
					c216.1,0,312.5-106.7,312.5-185.1v-75.7C3431.3,1082,3336.8,1015.1,3102.7,1015.1L3102.7,1015.1z M2959.8,1338.9
					c-65.1,0-117.8-52.7-117.8-117.8v-52.8c0-65.1,52.7-117.8,117.8-117.8h283.4c65.1,0,117.8,52.7,117.8,117.8v52.8
					c0,65.1-52.7,117.8-117.8,117.8H2959.8L2959.8,1338.9z"/>
			</g>
			<g>
				<path class="st1" d="M2873.3,837.5c-33.2,23.1,43.3,133,87.9,112.1C2983.8,939,2905.3,815.2,2873.3,837.5z"/>
				<path class="st1" d="M3248.2,836.5c-37.9-12.6-121.8,96.5-91.2,115.9C3194.4,976,3297.7,853,3248.2,836.5z"/>
				<path class="st1" d="M3511.1,939.4c-10.3-11.3-161.4,49.7-132.3,85.5C3405.4,1057.6,3535.8,966.3,3511.1,939.4z"/>
				<path class="st1" d="M3601.6,1211.1c11.2-37.7-156.9-52.9-164-13.7C3431.9,1229.5,3590.8,1247.6,3601.6,1211.1z"/>
				<path class="st1" d="M3503.2,1435.2c25.3-28.4-109-114-131.3-82.5C3353.6,1378.6,3478.7,1462.7,3503.2,1435.2z"/>
				<path class="st1" d="M2609.6,997.1c25.2-28.7,151.7,38,136.3,83.2C2733.3,1117.3,2582.7,1027.9,2609.6,997.1z"/>
				<path class="st1" d="M2833.1,1372.8c22.6,37-97.5,125.2-125.6,87C2687.6,1432.6,2817,1346.2,2833.1,1372.8z"/>
				<path class="st1" d="M3021.1,1429.8c33.4,15.8-34.7,141.9-64.8,127.5C2923.6,1541.6,2989.6,1414.9,3021.1,1429.8z"/>
				<path class="st1" d="M3199.1,1423.7c47.4-19.9,97,120.9,55.1,133.2C3216.2,1568,3164.3,1438.4,3199.1,1423.7z"/>
				<path class="st1" d="M2566.6,1256.8c5.5-31.1,155.1-45.8,159.5-1.8C2728.7,1280.8,2561.7,1284.6,2566.6,1256.8z"/>
				<path class="st1" d="M3096.9,1081.7c-0.7,0.9-64,23.1-54.6,39.2c5.5,9.4,14.4,4.2,21.6-1.1c27.2-19.8,41.1,7.7,23.6,17.8
					c-36.9,21.3-80.9,2.2-80.4-22.2c0.5-24.6,29.4-43.1,29.4-43.1"/>
				<path class="st1" d="M3228.8,1103.9c-0.7,0.9-80.5,4.7-69,27.2c4.9,9.7,12.4,0.5,20.9-2c14.4-4.1,27.5,21.1,7.6,24.1
					c-23.5,3.5-68.4-2.9-68.4-30.2c0-24.6,29.4-43.1,29.4-43.1"/>
				<g>
					<path class="st1" d="M3142.3,1256.2h-60.9c-50.5,0-107.1-30.8-109.5-32.1c-7.6-4.2-10.4-13.7-6.2-21.3
						c4.2-7.6,13.7-10.4,21.3-6.2c1,0.5,52.3,28.3,94.4,28.3h60.9c25.4,0,46.7-1.8,57-4.8c8.3-2.4,17.1,2.3,19.5,10.7
						c2.4,8.3-2.3,17.1-10.7,19.5C3191,1255.1,3162.9,1256.2,3142.3,1256.2z"/>
				</g>
				<path class="st1" d="M3300.8,1168.2c-17.1,23.8-24.9,67-45.9,85c-48.5,41.6-97,48.5-163.4,48.5c-119.2,0-166.1-29.3-200.2-77.7
					c-16-22.8-2.5-47.2,10.3-65.2c18.3-25.8,44.9-74.5,178.7-74.5c109.5,0,158.7,32.9,177.5,46.3c16.5,11.8,25.7,17.8,36.3,20.1
					C3302.1,1152.4,3305.5,1161.6,3300.8,1168.2z M3080.2,992.6c-225.9,0-343.8,116.2-343.8,210.5v19.3
					c0,58.8,74.3,174.3,359.9,174.3c216.1,0,312.5-106.7,312.5-185.1v-75.7C3408.8,1059.4,3314.2,992.6,3080.2,992.6z"/>
			</g>
			<g>
				<path d="M550,1446.3c-7.9,0-16.2-0.5-24.6-1.6c-29.5-3.6-55.6-15.7-77.7-36c-18.3-16.8-34-39.4-46.6-67
					c-25.3-55.6-29.8-112.8-30.2-119.2c-2.4-36.7-17.6-63.1-31-86.4c-12.3-21.5-23.9-41.7-23.9-66.6c0-19,25.8-23,47.5-23
					c11.8,0,21.2,1.3,21.3,1.3l2.9,0.4l-0.1-2.9c0-1.2-0.1-2.6-0.1-4.1c-0.6-14.5-1.7-41.5,20.7-64.8
					c29.6-30.8,90.7-46.5,181.5-46.5c18.1,0,37.6,0.6,58,1.9c66.4,4,122.2,14.5,165.8,31.1c37.3,14.2,66,33,85.3,55.9
					c27.8,33.1,30.6,68.1,28,91.7c-6.4,58.6-55.8,156.9-313.2,156.9c0,0,0,0,0,0h-0.5c-2.5,0-4.9,1.1-6.5,3
					c-1.6,1.9-2.2,4.4-1.8,6.8c1.7,9.4,8.1,21,14.9,33.2c9.6,17.3,20.5,37,21,55.5c0.7,23.9-5.6,42.8-18.8,56.4
					C606.6,1437.9,581.7,1446.3,550,1446.3z M496,1175.2h232.8V982H496V1175.2z"/>
				<path class="st1" d="M589.7,932.4c18,0,37.5,0.6,57.9,1.9c66.2,4,121.7,14.4,165.1,30.9c36.9,14,65.3,32.6,84.3,55.1
					c27.3,32.4,30,66.7,27.4,89.8c-2,18.5-7.8,35.9-17.2,51.8c-11.2,19.1-27.7,35.8-48.8,49.8c-53.1,35.2-135.5,53-244.8,53l-0.5,0
					c-3.3,0-6.3,1.4-8.4,3.9c-2.1,2.5-2.9,5.7-2.3,8.9c1.8,9.9,8.3,21.6,15.2,33.9c9.5,17.1,20.2,36.4,20.7,54.3
					c0.7,23.2-5.4,41.5-18,54.5c-18.8,19.4-48.6,23.4-70.2,23.4c-7.8,0-16-0.5-24.3-1.5c-28.9-3.5-54.6-15.4-76.3-35.4
					c-18.1-16.6-33.6-38.9-46-66.2c-25.2-55.2-29.6-112-30-118.3c-2.5-37.2-17.8-64-31.3-87.5c-12.7-22.1-23.6-41.1-23.6-65.4
					c0-7.4,4.5-12.7,13.8-16.2c7.6-2.8,18.4-4.4,31.2-4.4c11.6,0,20.9,1.2,21,1.3l5.8,0.8l-0.1-5.9c0-1.3-0.1-2.7-0.1-4.1
					c-0.6-15.1-1.7-40.4,20-62.9C439.1,947.8,499.6,932.4,589.7,932.4 M493.5,1177.7h5h227.8h5v-5V984.5v-5h-5H498.5h-5v5v188.2
					V1177.7 M589.7,927.4c-219.3,0-205.2,90.7-204.6,117.9c0,0-9.5-1.3-21.6-1.3c-21.1,0-50,3.9-50,25.5c0,53,50.3,83.6,54.9,153.2
					c2.4,36.7,26.4,208.6,156.7,224.5c8.4,1,16.7,1.6,24.9,1.6c51,0,95-21.4,93.3-83.1c-0.9-32.4-32-67-36-89
					c-0.7-3.6,2.2-6.9,5.9-6.9c0,0,0,0,0,0c0.2,0,0.3,0,0.5,0c246.7,0,308.2-90.5,315.7-159.1c7.5-68-34.9-166.4-281.4-181.4
					C626.9,928,607.5,927.4,589.7,927.4L589.7,927.4z M498.5,1172.7V984.5h227.8v188.2H498.5L498.5,1172.7z"/>
			</g>
			<g>
				<path d="M1336.3,1514.2c-39.7,0-79.9-15.7-95.6-37.3c-27.9-38.5-14.6-99.4-8.3-128.7l0.4-1.6c2.2-10.2,0.9-26.6-0.6-43.9
					c-1.5-18.4-3.1-37.4-0.3-49.3c6.4-27.8,20.3-49,41.3-63.2c22-14.8,52.4-22.4,90.3-22.4c35.9,0,60.7,8.5,75.6,26
					c26.1,30.5,18,83.1,10.1,133.9l-0.9,6.1c-3.1,20.3-0.9,37.1,1.1,52c2.1,16,4.2,31.1-0.8,47.9c-8.2,27.7-23.5,48.7-45.3,62.6
					C1384.7,1508,1361.6,1514.2,1336.3,1514.2C1336.3,1514.2,1336.3,1514.2,1336.3,1514.2z"/>
				<path class="st1" d="M1363.5,1170.2c35.2,0,59.3,8.2,73.7,25.1c11.2,13.1,16.8,31.9,17.1,57.6c0.3,23.3-3.7,49.3-7.6,74.3
					c-0.3,2-0.6,4.1-0.9,6.1c-3.2,20.7-0.9,37.7,1.1,52.7c2.2,16.4,4.1,30.6-0.7,46.9c-8,27.1-22.9,47.7-44.2,61.2
					c-18.2,11.5-40.9,17.6-65.7,17.6c-19.3,0-39.5-3.8-56.8-10.8c-16.6-6.7-29.7-15.7-36.8-25.6c-11.7-16.1-17.3-38.2-16.6-65.6
					c0.6-23.4,5.5-46.1,8.8-61.1l0.4-1.6c2.3-10.6,0.9-27.1-0.5-44.7c-1.5-18.2-3-37.1-0.4-48.6c6.3-27.1,19.8-47.9,40.3-61.7
					C1296.2,1177.6,1326.1,1170.2,1363.5,1170.2 M1363.5,1165.2c-78.8,0-121.1,31.6-134.1,87.5c-5.4,23.5,5.3,72.7,0.9,93.3
					c-6.5,30-20.8,92.2,8.3,132.3c15.6,21.5,55.8,38.4,97.6,38.4c47.3,0,96.7-21.6,114.7-82.4c9.8-33.2-6.6-58.5-0.2-100.3
					C1462.9,1255.3,1480,1165.2,1363.5,1165.2L1363.5,1165.2z"/>
			</g>
			<g>
				<path d="M2033.5,1466.3c-34.2,0-96.8-13-153.5-41.4c-29.1-14.6-52.2-31-68.6-48.9c-18.8-20.4-28.3-42.1-28.3-64.5l-1.1-62.2
					c-0.1-7.4,2.9-14.5,8.3-19.6c45.2-42.7,106.3-82,172.2-110.6c81.9-35.6,166.7-53.7,251.9-53.7c26.2,0,57.6,8.2,86.1,22.6
					c24.6,12.3,41.7,27.1,41.7,35.8c0,12.6-6.2,20.9-20.2,26.8c-13.4,5.7-32.5,8.6-54.6,12c-15.4,2.4-32.8,5-50.6,9
					c-49.2,11-105.4,24.8-148.8,43.8c-50.4,22-74.8,47.1-74.8,76.4c0,18.4,1.7,37.6,14,53.1c15,18.9,42.3,28.1,83.5,28.1
					c56.7,0,95.4-16.5,136.5-34c39.3-16.8,79.9-34.1,138.5-36.1c1.6-0.1,3.1-0.1,4.7-0.1c36.7,0,73.7,14.2,73.7,45.9
					c0,14.4-26.3,43.3-76.5,70.5c-32.5,17.6-99.5,47.2-182.4,47.2H2033.5z"/>
				<path class="st1" d="M2214.3,1068c25.4,0,57.2,8.3,85,22.3c26.2,13.2,40.4,27.1,40.4,33.5c0,11.6-5.6,19-18.7,24.5
					c-13.1,5.5-32.1,8.4-54,11.8c-15.4,2.4-32.8,5-50.8,9c-49.3,11-105.6,24.9-149.2,44c-23.8,10.4-41.5,21.3-54.2,33.3
					c-14.7,13.9-22.1,29.2-22.1,45.5c0,18.8,1.8,38.5,14.6,54.6c15.5,19.6,43.5,29.1,85.4,29.1c57.2,0,96.2-16.6,137.5-34.2
					c39.1-16.7,79.5-33.9,137.6-36c1.5-0.1,3.1-0.1,4.6-0.1c18.5,0,36.4,3.9,49.1,10.7c14.6,7.8,22,18.8,22,32.7
					c0,6.8-7.3,17.7-19.5,29.3c-14,13.3-33.3,26.8-55.8,38.9c-32.3,17.5-98.9,46.9-181.2,46.9h-151.5c-33.9,0-96-12.9-152.4-41.1
					c-28.8-14.4-51.7-30.7-67.9-48.4c-18.3-19.9-27.6-41-27.6-62.8v0l0,0l-1.1-62.1c-0.1-6.7,2.6-13.1,7.5-17.8
					c44.9-42.5,105.8-81.6,171.4-110.1c38.2-16.6,77.9-29.6,117.8-38.5C2125.4,1073,2170.2,1068,2214.3,1068 M2214.3,1063
					c-187.4,0-345.1,88.7-425.8,165c-5.9,5.6-9.2,13.4-9.1,21.5l1.1,62.1c0,98.6,177.9,157.3,253,157.3H2185
					c141,0,261.5-86.5,261.5-120.1c0-34.4-40.4-48.4-76.2-48.4c-1.6,0-3.2,0-4.8,0.1c-118.7,4.2-163.2,70.2-274.9,70.2
					c-90.7,0-95-46.2-95-78.7c0-63,121.7-95.5,221.6-117.8c68.7-15.4,127.4-10.5,127.4-50.2C2344.7,1103.6,2273.1,1063,2214.3,1063
					L2214.3,1063z"/>
			</g>
			<path class="st1" d="M625.3,906.7c-279.8-17-263.4,86.6-262.8,116c0,0-71.7-9.8-71.7,24.2c0,53,50.3,83.6,54.9,153.2
				c2.4,36.7,26.4,208.6,156.7,224.5c60.6,7.4,120.2-10,118.2-81.5c-0.9-32.4-32-67-36-89c-0.7-3.6,2.2-6.9,5.9-6.9
				c247.1,0.1,308.6-90.5,316.2-159.1C914.3,1020.1,871.9,921.7,625.3,906.7z M700,1068.6c-26.7,49.7-107.5,60.3-140.7,62.6
				c-8.6,0.6-16.5-4.5-19.6-12.5l-23.6-60.9c-2.7-7,0.6-14.8,7.5-17.7c40.3-17.3,66-29.5,101.4-22.2
				C644.1,1021.8,712.3,1045.7,700,1068.6z"/>
			<path class="st1" d="M1428.3,1311.5c12.1-78.8,29.2-168.9-87.3-168.9c-78.8,0-121.1,31.6-134.1,87.5c-5.4,23.5,5.3,72.7,0.9,93.3
				c-6.5,30-20.8,92.2,8.3,132.3c33.3,45.9,178.4,70.5,212.3-44C1438.3,1378.6,1421.8,1353.2,1428.3,1311.5z"/>
			<path class="st1" d="M1756.9,1226.9c-0.1-8.1,3.2-15.9,9.1-21.5c80.7-76.3,238.4-165,425.8-165c58.8,0,130.4,40.6,130.4,60.8
				c0,39.7-58.7,34.9-127.4,50.2c-100,22.4-221.6,54.8-221.6,117.8c0,32.4,4.2,78.7,95,78.7c111.6,0,156.1-66,274.9-70.2
				c36.9-1.3,81,12.4,81,48.3c0,33.6-120.4,120.1-261.5,120.1H2011c-75.1,0-253-58.7-253-157.3L1756.9,1226.9z"/>
		</g>
		<g>
			<path class="st1" d="M2742.5,116.6C2721.1,48.6,2657,0,2583.3,0c-73.8,0-137.9,48.6-159.3,116.5l-56.3,167.1V9.7h-295.2
				c-52.5,0-101,21.4-137.9,56.3V9.7h-303c-56.3,0-106.8,23.3-143.7,62.1V9.7h-287.5C1078,9.7,977,110.7,977,233.1
				c0,58.3,23.3,112.7,60.2,151.5H977v260.3h287.5c81.6,0,151.5-42.8,192.3-108.8c33,64.1,99.1,108.8,176.7,108.8h304.9v-56.3
				c35,35,83.5,56.3,137.9,56.3h842.9L2742.5,116.6z"/>
			<g>
				<g>
					<path d="M1264.5,431.2h-242.8v75.7h242.8c46.6,0,85.5-38.9,85.5-85.5s-38.9-85.5-85.5-85.5h-62.2c-56.3,0-103-46.6-103-103
						s46.6-102.9,103-102.9h240.8V54.4h-242.7c-99.1,0-178.7,79.6-178.7,178.7s79.6,178.7,178.7,178.7h62.1c5.8,0,9.7,3.9,9.7,9.7
						C1272.2,427.3,1268.3,431.2,1264.5,431.2z"/>
					<path d="M1200.4,225.3h242.8v-77.7h-242.8c-46.6,0-85.5,38.9-85.5,85.5s38.9,85.5,85.5,85.5h62.1c56.3,0,103,46.6,103,103
						s-46.6,103-103,103h-240.8v75.7h242.8c99.1,0,178.7-79.6,178.7-178.7s-79.6-178.7-178.7-178.7h-62.2c-5.8,0-9.7-3.9-9.7-9.7
						C1192.6,229.2,1196.5,225.3,1200.4,225.3z"/>
				</g>
				<g>
					<path d="M2072.4,147.6c-33,0-58.3,25.2-58.3,58.3v242.8c0,33,25.2,58.3,58.3,58.3h157.3V336h-120.4v75.7h44.7v17.5h-44.7
						c-9.7,0-17.5-7.8-17.5-17.5V240.9c0-9.7,7.8-17.5,17.5-17.5h215.6v-75.7H2072.4z"/>
					<path d="M2550.2,506.9H2727l-120.4-357.4c-3.9-9.7-11.6-17.5-23.3-17.5c-9.7,0-19.4,7.8-23.3,15.5l-155.4,452.6h89.3
						l54.4-161.2v68L2550.2,506.9L2550.2,506.9z M2581.3,343.8l25.2,77.7h-52.5L2581.3,343.8z"/>
					<path d="M2699.8,134c-15.5-50.5-62.1-89.3-118.5-89.3c-56.4,0-103,36.9-116.5,87.4L2323,547.7V242.8h-213.7v75.7h139.8v205.9
						h-174.8c-42.8,0-75.7-35-75.7-75.7V205.9c0-42.8,35-75.7,75.7-75.7h250.5V54.4h-252.5c-83.5,0-151.5,68-151.5,151.5v242.8
						c0,83.5,68,151.5,151.5,151.5h312.7l157.3-456.4c5.8-17.5,21.4-29.1,40.8-29.1s35,11.6,40.8,29.1l128.2,380.7h-202v75.7h306.9
						l0,0L2699.8,134z"/>
				</g>
				<g>
					<path d="M1631.5,524.4c-42.8,0-75.7-35-75.7-75.7V205.9c0-42.8,35-75.7,75.7-75.7h260.3V54.4h-260.3
						c-83.5,0-151.5,68-151.5,151.5v242.8c0,83.5,68,151.5,151.5,151.5h260.3v-75.7L1631.5,524.4L1631.5,524.4z"/>
					<path d="M1649,413.7h188.4V338h-264.1v112.7c0,33,25.2,58.3,58.3,58.3h260.3v-75.8h-225.3C1656.8,431.2,1649,423.4,1649,413.7z
						"/>
					<path d="M1837.4,242.8H1649c0-9.7,7.8-17.5,17.5-17.5h223.4v-77.7h-258.3c-33,0-58.3,25.2-58.3,58.3v112.7h264.1
						C1837.4,318.5,1837.4,242.8,1837.4,242.8z"/>
				</g>
			</g>
		</g>
	</g>
</g>
<g id="Layer_2">
</g>
</svg>
