<?xml version="1.0" encoding="utf-8"?>
<!-- Generator: Adobe Illustrator 26.0.3, SVG Export Plug-In . SVG Version: 6.00 Build 0)  -->
<svg version="1.1" xmlns="http://www.w3.org/2000/svg" xmlns:xlink="http://www.w3.org/1999/xlink" x="0px" y="0px"
	 viewBox="0 0 3839 1551.4" style="enable-background:new 0 0 3839 1551.4;" xml:space="preserve">
<style type="text/css">
	.st0{fill:none;stroke:#221F1F;stroke-width:2.206;stroke-miterlimit:10;}
	.st1{fill:#FFFFFF;}
	.st2{fill:none;stroke:#221F1F;stroke-width:2.2331;stroke-miterlimit:10;}
	.st3{stroke:#FFFFFF;stroke-width:5.0614;stroke-miterlimit:10;}
	.st4{stroke:#FFFFFF;stroke-width:5;stroke-miterlimit:10;}
	.st5{fill:none;stroke:#221F1F;stroke-width:2.5576;stroke-miterlimit:10;}
	.st6{fill:none;stroke:#221F1F;stroke-width:2.1796;stroke-miterlimit:10;}
	.st7{stroke:#FFFFFF;stroke-width:4.9401;stroke-miterlimit:10;}
</style>
<g id="Layer_1">
	<g>
		<g>
			<path class="st1" d="M2342.8,62.1C2331.4,25.9,2297.2,0,2257.9,0c-39.3,0-73.5,25.9-84.9,62.1l-30,89V5.2h-157.3
				c-28,0-53.8,11.4-73.5,30v-30h-161.4c-30,0-56.9,12.4-76.6,33.1V5.2h-153.2c-65.2,0-119,53.8-119,119c0,31.1,12.4,60,32.1,80.7
				h-32.1v138.7h153.2c43.5,0,80.7-22.8,102.5-58c17.6,34.2,52.8,58,94.2,58h162.5v-30c18.6,18.6,44.5,30,73.5,30h449.1L2342.8,62.1
				z"/>
			<g>
				<g>
					<path d="M1555.2,229.7h-129.4v40.4h129.4c24.8,0,45.5-20.7,45.5-45.5s-20.7-45.5-45.5-45.5h-33.1c-30,0-54.9-24.8-54.9-54.9
						s24.9-54.8,54.9-54.8h128.3V29h-129.3c-52.8,0-95.2,42.4-95.2,95.2s42.4,95.2,95.2,95.2h33.1c3.1,0,5.2,2.1,5.2,5.2
						S1557.3,229.7,1555.2,229.7z"/>
					<path d="M1521.1,120.1h129.4V78.7h-129.4c-24.8,0-45.5,20.7-45.5,45.5s20.7,45.5,45.5,45.5h33.1c30,0,54.9,24.8,54.9,54.9
						s-24.8,54.9-54.9,54.9h-128.3v40.4h129.4c52.8,0,95.2-42.4,95.2-95.2s-42.4-95.2-95.2-95.2h-33.1c-3.1,0-5.2-2.1-5.2-5.2
						C1516.9,122.1,1519,120.1,1521.1,120.1z"/>
				</g>
				<g>
					<path d="M1985.7,78.7c-17.6,0-31.1,13.5-31.1,31.1v129.4c0,17.6,13.5,31.1,31.1,31.1h83.8V179h-64.2v40.4h23.8v9.3h-23.8
						c-5.2,0-9.3-4.2-9.3-9.3v-91.1c0-5.2,4.2-9.3,9.3-9.3h114.9V78.7H1985.7z"/>
					<path d="M2240.3,270.1h94.2l-64.2-190.4c-2.1-5.2-6.2-9.3-12.4-9.3c-5.2,0-10.4,4.2-12.4,8.3l-82.8,241.1h47.6l29-85.9v36.2
						H2240.3L2240.3,270.1z M2256.9,183.2l13.5,41.4h-28L2256.9,183.2z"/>
					<path d="M2320,71.4c-8.3-26.9-33.1-47.6-63.1-47.6s-54.9,19.7-62.1,46.6l-75.5,221.4V129.4h-113.8v40.4h74.5v109.7h-93.2
						c-22.8,0-40.4-18.6-40.4-40.4V109.7c0-22.8,18.6-40.4,40.4-40.4h133.5V29h-134.5c-44.5,0-80.7,36.2-80.7,80.7V239
						c0,44.5,36.2,80.7,80.7,80.7h166.6l83.8-243.2c3.1-9.3,11.4-15.5,21.7-15.5s18.6,6.2,21.7,15.5l68.3,202.8h-107.6v40.4h163.5
						l0,0L2320,71.4z"/>
				</g>
				<g>
					<path d="M1750.8,279.4c-22.8,0-40.4-18.6-40.4-40.4V109.7c0-22.8,18.6-40.4,40.4-40.4h138.7V29h-138.7
						c-44.5,0-80.7,36.2-80.7,80.7V239c0,44.5,36.2,80.7,80.7,80.7h138.7v-40.4L1750.8,279.4L1750.8,279.4z"/>
					<path d="M1760.1,220.4h100.4v-40.4h-140.7v60c0,17.6,13.5,31.1,31.1,31.1h138.7v-40.4h-120
						C1764.3,229.7,1760.1,225.6,1760.1,220.4z"/>
					<path d="M1860.5,129.4h-100.4c0-5.2,4.2-9.3,9.3-9.3h119V78.7h-137.6c-17.6,0-31.1,13.5-31.1,31.1v60h140.7
						C1860.5,169.7,1860.5,129.4,1860.5,129.4z"/>
				</g>
			</g>
		</g>
		<g>
			<g>
				<polygon points="293.6,1450.9 11.2,451.5 480,328.6 786.7,350.5 1354,437.3 2319,451.7 3033,285.2 3826.9,457 3439.8,1504.5 
					2374.6,1516.1 1607.1,1463.9 895.5,1542.3 				"/>
				<path class="st1" d="M3033.1,294.4l781.7,169.2l-381.4,1031.9l-1058.5,11.6l-766.3-52.1l-1.6-0.1l-1.6,0.2l-709.6,78.1
					l-595-90.3L22.4,457.9l458.4-120.2l304.8,21.7l566.4,86.7l1.2,0.2l1.2,0l963.2,14.4l2.2,0l2.2-0.5L3033.1,294.4 M3033,275.9
					l-715,166.7l-963.2-14.4l-567.1-86.8l-308.6-22L0,445.1L286.5,1459l608.9,92.4l712-78.4l767.1,52.2l1071.7-11.8l392.9-1063
					L3033,275.9L3033,275.9z"/>
			</g>
			<ellipse class="st1" cx="1340.2" cy="648.8" rx="17.2" ry="15.7"/>
			<path class="st1" d="M1338.7,311.5c-119.5-4-140.7,84.2-140.7,109c0,62.7,81.5,67.3,84.9,92.4c1.9,13.8,3.5,44.3,43.4,51.4
				c3.6,0.6,4.1,5.7,0.6,6.9c-16.1,5.7-37.4,15.6-37.4,28.2c0,20.2,24.8,28.1,64.6,28.1c0,0,36.2,2.3,36.2-9.8
				c0-7-15.2-12.3-28.1-15.6c-3.7-0.9-3.6-6.1,0.1-7c15.3-3.5,34.8-10,34.8-20.2c0-9.8-16.6-16-30.2-19.4c-3.7-0.9-3.6-6.2,0.2-7
				l12.9-2.6c5.6-1.1,9.7-5.9,10.5-11.6c7.2-55.7,76.8-45.2,76.8-122.3C1467.3,387.2,1439.2,314.9,1338.7,311.5z M1397.6,447.8
				c-14.7,11-28.7,25.8-39.4,52.6c-1.1,2.7-3.6,4.6-6.5,4.9c-5,0.4-11.5-0.1-15.8-0.5c-2.8-0.3-5.3-2-6.2-4.7
				c-7.1-20.4-34.3-42.6-53.7-52.8c-26.4-13.9-30.9-28.5-30.9-36.3c0-14.6,1.5-53.9,85.8-52.5c2,0,4.1,0,6.2,0.1
				c69.1,2.3,74.5,46.5,74.5,52.6C1411.6,421,1415,434.9,1397.6,447.8z"/>
			<path class="st1" d="M1297.7,238c-21.3-1.2-20.7,56.1,1.3,53.4C1322.9,288.3,1314.9,239,1297.7,238z"/>
			<path class="st1" d="M1175.1,274.7c-10.5,11.5,39.8,58,50.9,41.3C1238.1,297.7,1185.6,263.3,1175.1,274.7z"/>
			<path class="st1" d="M1130.9,354.1c-9.6,17.4,35.5,51.2,47.3,29.9C1191,360.8,1136.4,344.1,1130.9,354.1z"/>
			<path class="st1" d="M1428.9,248.5c-19.9-15.2-57.3,41.3-34.1,53C1420.1,314.4,1444.9,260.8,1428.9,248.5z"/>
			<path class="st1" d="M1527.2,319.8c-6.6-21.2-73,5.3-61.4,25.4C1478.4,367.1,1532.5,336.9,1527.2,319.8z"/>
			<polygon class="st1" points="2420.8,1206.8 1610.6,1152.3 896.7,1231.6 188.1,1110.9 286.5,1459 895.3,1551.4 1607.3,1473 
				2374.4,1525.2 3446.1,1513.4 3559.4,1206.8 			"/>
			<g>
				<path d="M319.5,1299.9l8.2-31.5h89.6v31.5h-31.6v105.5l-32.5,3.2v-108.7H319.5z"/>
				<path d="M455.6,1309.4c5.7-6.3,15.5-9.9,23.7-9.9c27,0,36,18.2,36,44v61.8l-29.9,3.2v-62.8c0-12.1-5.9-18-14.9-18
					c-9,0-14.9,5.9-14.9,18v59.6l-29.9,3.2v-142.4l29.9-3.2V1309.4z"/>
				<path d="M565.1,1374.5c3.4,5.3,10.3,7.5,16.1,7.5c10.5,0,20.5-5.3,28.5-12.1l15.7,24.2c-13,9.5-27.8,16.2-44.8,16.2
					c-31.4,0-53-28.9-53-53.9c0-30.9,23.4-56.8,51.7-56.8c20.7,0,40,12.5,49.2,31.9L565.1,1374.5z M592.7,1330
					c-3.1-3.4-8-4.2-13.2-4.2c-13,0-23.2,12.9-23.2,26.3v3.6L592.7,1330z"/>
				<path d="M782.3,1306.6c-7.1-5.3-15.1-9.9-23.9-9.9c-22.2,0-37.9,16.8-37.9,40.6c0,24,14.7,41.4,37.9,41.4
					c8.8,0,17.8-5.1,24.7-10.3l-4,36.8c-5.4,3-17,5.1-23,5.1c-40,0-68.2-29.1-68.2-72.1c0-41.4,28.1-72.9,68-72.9
					c7.3,0,14.9,1.2,21.4,4.4L782.3,1306.6z"/>
				<path d="M793.6,1354.9c0-32.1,25.8-55.4,54.8-55.4c29.1,0,54.9,23.2,54.9,55.4s-25.8,55.4-54.9,55.4
					C819.4,1410.2,793.6,1387,793.6,1354.9z M848.3,1380.9c13.4,0,25.1-11.5,25.1-26.1s-11.7-26.1-25.1-26.1
					c-13.2,0-24.9,11.5-24.9,26.1S835.1,1380.9,848.3,1380.9z"/>
				<path d="M914.6,1302.7l27.2-3.2v16.6h0.4c3.3-9.9,11.7-16.6,22.4-16.6c9.2,0,17.6,4.6,22.8,12.5c6.3-8.3,16.3-12.5,26.2-12.5
					c29.9,0,34.7,24,34.7,49.1v56.8l-29.9,3.2v-64.2c0-11.7-4.2-16.6-10.9-16.6c-5.7,0-11.1,6.5-11.1,16.6v61l-29.9,3.2v-64.2
					c0-10.1-3.3-16.6-10.9-16.6c-5.7,0-11.1,6.5-11.1,16.6v61l-29.9,3.2V1302.7z"/>
				<path d="M1092,1440.9l-29.9,3.2v-141.4l28-3.2v19h0.4c5.4-11.7,17.6-19,29.9-19c28.7,0,48.6,27.9,48.6,56.6
					c0,28.3-23.4,54.1-50.2,54.1c-9.8,0-21.1-2.6-26.4-11.9h-0.4V1440.9z M1114.8,1381.9c14,0,24.3-13.5,24.3-27.1
					s-10.3-27.1-24.3-27.1s-24.3,13.5-24.3,27.1S1100.8,1381.9,1114.8,1381.9z"/>
				<path d="M1241,1304.4l29.9-3.2v104.2l-27.6,3.2v-15.8h-0.4c-5.7,13.7-17.4,17.4-25.7,17.4c-27,0-36-18.2-36-44v-61.8l29.9-3.2
					v62.8c0,12.1,5.9,18,14.9,18c9,0,14.9-5.9,14.9-18V1304.4z"/>
				<path d="M1281.8,1330.4l6.3-26.3h9.4v-20.6l29.9-12.1v32.7h17v26.3h-17v36.4c0,10.3,7.5,13.1,15.9,13.1c2.7,0,6.5-0.6,7.8-1.2
					l-8.6,31.1c-1.3,0.2-3.1,0.4-4.6,0.4c-26.4,0-40.4-13.3-40.4-41v-38.8H1281.8z"/>
				<path d="M1395.1,1374.5c3.4,5.3,10.3,7.5,16.1,7.5c10.5,0,20.5-5.3,28.5-12.1l15.7,24.2c-13,9.5-27.8,16.2-44.8,16.2
					c-31.4,0-53-28.9-53-53.9c0-30.9,23.4-56.8,51.7-56.8c20.7,0,40,12.5,49.2,31.9L1395.1,1374.5z M1422.7,1330
					c-3.1-3.4-8-4.2-13.2-4.2c-13,0-23.2,12.9-23.2,26.3v3.6L1422.7,1330z"/>
				<path d="M1468.6,1304.4l26.4-3.2v19.8h0.4c5.7-18.2,15.5-21.4,31.8-21.4l-8.4,31.5c-14.9-0.2-20.3,6.1-20.3,21.6v52.7l-29.9,3.2
					V1304.4z"/>
				<path d="M1575.1,1299.9l8.2-31.5h89.6v31.5h-31.6v105.5l-32.5,3.2v-108.7H1575.1z"/>
				<path d="M1711.2,1309.4c5.7-6.3,15.5-9.9,23.7-9.9c27,0,36,18.2,36,44v61.8l-29.9,3.2v-62.8c0-12.1-5.9-18-14.9-18
					s-14.9,5.9-14.9,18v59.6l-29.9,3.2v-142.4l29.9-3.2V1309.4z"/>
				<path d="M1799.1,1304.2c7.7-2.8,18.8-4.6,27-4.6c24.5,0,41.4,10.7,41.4,36.4v69.5l-26,3.2v-10.3h-0.4
					c-5.7,9.3-14.4,11.9-24.5,11.9c-22.2,0-34.3-15.4-34.3-37.6c0-21,16.3-34.1,35.2-34.1c7.5,0,15.9,3,22.2,7.9
					c0.2-1,0.2-2,0.2-3.2c0-14.3-6.3-17.4-19.1-17.4c-8.8,0-17.8,2.4-25.8,6.3L1799.1,1304.2z M1824.9,1386c8,0,14.7-5.1,14.7-13.7
					c0-8.5-6.7-13.5-14.7-13.5c-8.2,0-14.9,5-14.9,13.5C1810,1380.9,1816.7,1386,1824.9,1386z"/>
				<path d="M1877.6,1330.4l6.3-26.3h9.4v-20.6l29.9-12.1v32.7h17v26.3h-17v36.4c0,10.3,7.5,13.1,15.9,13.1c2.7,0,6.5-0.6,7.8-1.2
					l-8.6,31.1c-1.3,0.2-3.1,0.4-4.6,0.4c-26.4,0-40.4-13.3-40.4-41v-38.8H1877.6z"/>
				<path d="M2000.7,1299.9l8.2-31.5h89.6v31.5h-31.6v105.5l-32.5,3.2v-108.7H2000.7z"/>
				<path d="M2136.8,1309.4c5.7-6.3,15.5-9.9,23.7-9.9c27,0,36,18.2,36,44v61.8l-29.9,3.2v-62.8c0-12.1-5.9-18-14.9-18
					s-14.9,5.9-14.9,18v59.6l-29.9,3.2v-142.4l29.9-3.2V1309.4z"/>
				<path d="M2250.9,1274.3l-19.1,19.8l-21.6-16.6l18.8-20.2L2250.9,1274.3z M2246.5,1405.4l-29.9,3.2v-104.2l29.9-3.2V1405.4z"/>
				<path d="M2294.2,1315.3h0.4c7.7-12.1,17.4-15.8,25.7-15.8c27,0,36,18.2,36,44v61.8l-29.9,3.2v-62.8c0-12.1-5.9-18-14.9-18
					s-14.9,5.9-14.9,18v59.6l-29.9,3.2v-105.9l27.6-3.2V1315.3z"/>
				<path d="M2374.4,1266.2l29.9-3.2v82h0.4l34.5-47.1l30.8,9.9l-33.9,42.2l38.9,50.1l-33.7,8.5l-36.6-50.7h-0.4v47.5l-29.9,3.2
					V1266.2z"/>
				<path d="M2488.1,1374.5c5.9,6.3,13.2,9.5,21.6,9.5c5,0,13.4-0.8,13.4-8.3c0-14.3-45.9,0-45.9-42.2c0-23.2,17.8-33.9,37.3-33.9
					c11.9,0,24.1,6.1,32.7,14.5l-16.5,17.6c-4.2-3.4-10.1-5.9-15.7-5.9c-3.6,0-10.1,0.8-10.1,6.3c0,17.4,45.9,0,45.9,43.2
					c0,22.8-19.3,35-38.7,35c-16.7,0-26-3.4-39.2-14.1L2488.1,1374.5z"/>
				<path d="M2652.2,1265.2v140.2l-32.5,3.2v-140.2L2652.2,1265.2z"/>
				<path d="M2665,1330.4l6.3-26.3h9.4v-20.6l29.9-12.1v32.7h17v26.3h-17v36.4c0,10.3,7.5,13.1,15.9,13.1c2.7,0,6.5-0.6,7.8-1.2
					l-8.6,31.1c-1.3,0.2-3.1,0.4-4.6,0.4c-26.4,0-40.4-13.3-40.4-41v-38.8H2665z"/>
				<path d="M2762.1,1265.2c7.1,3.8,12.8,14.1,12.8,22.4c0,14.7-10,29.3-17.4,41l-14.9-7.7c3.4-7.1,9.4-17.8,9.4-25.7
					c0-6.9-4.2-13.5-10.3-15.6L2762.1,1265.2z"/>
				<path d="M2789.5,1374.5c5.9,6.3,13.2,9.5,21.6,9.5c5,0,13.4-0.8,13.4-8.3c0-14.3-45.9,0-45.9-42.2c0-23.2,17.8-33.9,37.3-33.9
					c11.9,0,24.1,6.1,32.7,14.5l-16.5,17.6c-4.2-3.4-10.1-5.9-15.7-5.9c-3.6,0-10.1,0.8-10.1,6.3c0,17.4,45.9,0,45.9,43.2
					c0,22.8-19.3,35-38.7,35c-16.7,0-26-3.4-39.2-14.1L2789.5,1374.5z"/>
				<path d="M2974.4,1265.2l70.8,138l-33.1,7.1l-13.4-29.7h-50l-13.2,29.7l-31.6-7.1l70.1-138H2974.4z M2956.6,1354.9h34.8
					l-17.4-33.9L2956.6,1354.9z"/>
				<path d="M3089.5,1299.9l8.2-31.5h89.6v31.5h-31.6v105.5l-32.5,3.2v-108.7H3089.5z"/>
				<path d="M3176.8,1354.9c0-32.1,25.8-55.4,54.8-55.4c29.1,0,54.9,23.2,54.9,55.4s-25.8,55.4-54.9,55.4
					C3202.6,1410.2,3176.8,1387,3176.8,1354.9z M3231.5,1380.9c13.4,0,25.1-11.5,25.1-26.1s-11.7-26.1-25.1-26.1
					c-13.2,0-24.9,11.5-24.9,26.1S3218.3,1380.9,3231.5,1380.9z"/>
				<path d="M3338,1361.3l23.7-61.8l28.7,7.7l-58,137l-31.2-3.2l21.3-45.1L3285,1307l29.1-7.5L3338,1361.3z"/>
				<path d="M3397.2,1388.6l20.5-21.2l20.5,21.2l-20.5,21.2L3397.2,1388.6z M3403.5,1362.7l-2.7-95l33.9-4.8l-3.4,96.6
					L3403.5,1362.7z"/>
			</g>
			<rect x="2007" y="1429.4" width="538.3" height="21"/>
			<path d="M1397.6,447.8c17.4-12.9,14-26.9,14-36.7c0-6.1-5.3-50.3-74.5-52.6c-2.1-0.1-4.2-0.1-6.2-0.1
				c-84.3-1.5-85.8,37.9-85.8,52.5c0,7.9,4.5,22.4,30.9,36.3c19.4,10.2,46.6,32.4,53.7,52.8c0.9,2.6,3.4,4.4,6.2,4.7
				c4.4,0.5,10.8,1,15.8,0.5c2.9-0.3,5.4-2.2,6.5-4.9C1369,473.6,1382.9,458.8,1397.6,447.8z"/>
			<path class="st4" d="M3361.1,781.7c0,65.1-52.7,117.8-117.8,117.8h-283.4c-65.1,0-117.8-52.7-117.8-117.8V729
				c0-65.1,52.7-117.8,117.8-117.8h283.4c65.1,0,117.8,52.7,117.8,117.8V781.7z"/>
			<g>
				<path class="st1" d="M2873.3,398.2c-33.2,23.1,43.3,133,87.9,112.1C2983.8,499.7,2905.3,375.9,2873.3,398.2z"/>
				<path class="st1" d="M3248.2,397.2c-37.9-12.6-121.8,96.5-91.2,115.9C3194.4,536.7,3297.7,413.7,3248.2,397.2z"/>
				<path class="st1" d="M3511.1,500.1c-10.3-11.3-161.4,49.7-132.3,85.5C3405.4,618.3,3535.8,527,3511.1,500.1z"/>
				<path class="st1" d="M3601.6,771.8c11.2-37.7-156.9-52.9-164-13.7C3431.9,790.2,3590.8,808.3,3601.6,771.8z"/>
				<path class="st1" d="M3503.2,995.9c25.3-28.4-109-114-131.3-82.5C3353.6,939.3,3478.7,1023.4,3503.2,995.9z"/>
				<path class="st1" d="M2609.6,557.8c25.2-28.7,151.7,38,136.3,83.2C2733.3,678,2582.7,588.6,2609.6,557.8z"/>
				<path class="st1" d="M2833.1,933.5c22.6,37-97.5,125.2-125.6,87C2687.6,993.3,2817,906.9,2833.1,933.5z"/>
				<path class="st1" d="M3021.1,990.5c33.4,15.8-34.7,141.9-64.8,127.5C2923.6,1102.3,2989.6,975.6,3021.1,990.5z"/>
				<path class="st1" d="M3199.1,984.4c47.4-19.9,97,120.9,55.1,133.2C3216.2,1128.7,3164.3,999.1,3199.1,984.4z"/>
				<path class="st1" d="M2566.6,817.5c5.5-31.1,155.1-45.8,159.5-1.8C2728.7,841.5,2561.7,845.3,2566.6,817.5z"/>
				<path class="st1" d="M3096.9,642.4c-0.7,0.9-64,23.1-54.6,39.2c5.5,9.4,14.4,4.2,21.6-1.1c27.2-19.8,41.1,7.7,23.6,17.8
					c-36.9,21.3-80.9,2.2-80.4-22.2c0.5-24.6,29.4-43.1,29.4-43.1"/>
				<path class="st1" d="M3228.8,664.6c-0.7,0.9-80.5,4.7-69,27.2c4.9,9.7,12.4,0.5,20.9-2c14.4-4.1,27.5,21.1,7.6,24.1
					c-23.5,3.5-68.4-2.9-68.4-30.2c0-24.6,29.4-43.1,29.4-43.1"/>
				<g>
					<path class="st1" d="M3142.3,816.9h-60.9c-50.5,0-107.1-30.8-109.5-32.1c-7.6-4.2-10.4-13.7-6.2-21.3
						c4.2-7.6,13.7-10.4,21.3-6.2l0,0c0.5,0.3,52.1,28.3,94.4,28.3h60.9c25.4,0,46.7-1.8,57-4.8c8.3-2.4,17.1,2.3,19.5,10.7
						s-2.3,17.1-10.7,19.5C3191,815.8,3162.9,816.9,3142.3,816.9z"/>
				</g>
				<path class="st1" d="M3300.8,728.9c-17.1,23.8-24.9,67-45.9,85c-48.5,41.6-97,48.5-163.4,48.5c-119.2,0-166.1-29.3-200.2-77.7
					c-16-22.8-2.5-47.2,10.3-65.2c18.3-25.8,44.9-74.5,178.7-74.5c109.5,0,158.7,32.9,177.5,46.3c16.5,11.8,25.7,17.8,36.3,20.1
					C3302.1,713.1,3305.5,722.3,3300.8,728.9z M3080.2,553.3c-225.9,0-343.8,116.2-343.8,210.5v19.3c0,58.8,74.3,174.3,359.9,174.3
					c216.1,0,312.5-106.7,312.5-185.1v-75.7C3408.8,620.1,3314.2,553.3,3080.2,553.3z"/>
			</g>
			<g>
				<rect x="501" y="547.7" width="222.8" height="183.2"/>
				<path class="st1" d="M721.3,550.2v178.2H503.5V550.2H721.3 M726.3,545.2H498.5v188.2h227.8V545.2L726.3,545.2z"/>
			</g>
			<path class="st1" d="M625.3,467.4c-279.8-17-263.4,86.6-262.8,116c0,0-71.7-9.8-71.7,24.2c0,53,50.3,83.6,54.9,153.2
				c2.4,36.7,26.4,208.6,156.7,224.5c60.6,7.4,120.2-10,118.2-81.5c-0.9-32.4-32-67-36-89c-0.7-3.6,2.2-6.9,5.9-6.9
				c247.1,0.1,308.6-90.5,316.2-159.1C914.3,580.8,871.9,482.4,625.3,467.4z M700,629.3c-26.7,49.7-107.5,60.3-140.7,62.6
				c-8.6,0.6-16.5-4.5-19.6-12.5l-23.6-60.9c-2.7-7,0.6-14.8,7.5-17.7c40.3-17.3,66-29.5,101.4-22.2
				C644.1,582.5,712.3,606.4,700,629.3z"/>
			<path class="st1" d="M1428.3,872.2c12.1-78.8,29.2-168.9-87.3-168.9c-78.8,0-121.1,31.6-134.1,87.5c-5.4,23.5,5.3,72.7,0.9,93.3
				c-6.5,30-20.8,92.2,8.3,132.3c33.3,45.9,178.4,70.5,212.3-44C1438.3,939.3,1421.8,913.9,1428.3,872.2z"/>
			<path class="st1" d="M1756.9,787.6c-0.1-8.1,3.2-15.9,9.1-21.5c80.7-76.3,238.4-165,425.8-165c58.8,0,130.4,40.6,130.4,60.8
				c0,39.7-58.7,34.9-127.4,50.2c-100,22.4-221.6,54.8-221.6,117.8c0,32.4,4.2,78.7,95,78.7c111.6,0,156.1-66,274.9-70.2
				c36.9-1.3,81,12.4,81,48.3c0,33.6-120.4,120.1-261.5,120.1l-151.5,0c-75.1,0-253-58.7-253-157.3L1756.9,787.6z"/>
		</g>
	</g>
</g>
<g id="Layer_2">
</g>
</svg>
