<?xml version="1.0" encoding="utf-8"?>
<!-- Generator: Adobe Illustrator 25.4.1, SVG Export Plug-In . SVG Version: 6.00 Build 0)  -->
<svg version="1.1" id="Layer_1" xmlns="http://www.w3.org/2000/svg" xmlns:xlink="http://www.w3.org/1999/xlink" x="0px" y="0px"
	 viewBox="0 0 3839 1914.6" style="enable-background:new 0 0 3839 1914.6;" xml:space="preserve">
<style type="text/css">
	.st0{fill:#FFFFFF;}
</style>
<g>
	<g>
		<g>
			<g>
				<path class="st0" d="M752.4,131.8v186.9c0,19.8-10.1,22.9-19.8,26v6.6h86.3v-6.6c-9.7-3.1-19.8-6.1-19.8-26V131.8
					c0-11.3,3.5-14,18.3-14c40.4,0,60.2,0.8,74.6,23.2l5-3.1L880.7,90H670.5l-16.3,48l5.1,3.1c17.5-22.1,31.1-23.2,75-23.2
					C748.9,117.9,752.4,120.6,752.4,131.8z M850.7,158.6c12.8,3.5,19.4,6.6,19.4,26v134.1c0,19.8-6.6,22.9-19.4,26v6.6h162.8
					l18.6-46.7l-5.1-3.5c-16.3,21.5-33.4,26.4-55.9,26.4h-42c-13.2,0-16.3-0.3-16.3-13.2v-55.9h50.9c19.8,0,22.9,4.7,26.1,16.4h7.7
					v-55.9h-7.7c-3.1,11.7-6.2,16.7-26.1,16.7h-50.9v-47c0-9.7,3.1-12.9,16.3-12.9c0,0,32.7,0,35.7,0c22.9,0,35,5.9,52.4,24.4l5-3.5
					l-16.3-44.7H850.7V158.6z M1060.1,181.6l49.8,70.3l-47,66.8c-14.4,20.2-22.9,22.9-36.1,26v6.6h75.4v-6.6
					c-14.4-2.7-20.6-8.2-10.9-23.3l32.9-51.4l34.7,49.9c12.8,18.3-0.8,23.2-12.5,24.8v6.6h136.3v-6.6c-13.6-2.3-19.8-7-12.8-25.6
					l8.9-23.2h81.6l8.6,23.2c5.5,15.2,3.5,23.3-12.4,25.6v6.6h83.9v-6.6c-9.7-3.1-18.6-11.2-22.9-22.5L1352.6,152h-44.3l-62.2,158.6
					c-6.6,16.4-12.6,24.2-19.2,28.7c-5.1-3.2-9.8-8.3-16.1-17l-54.6-77.6l44.2-62.4c11.7-16.7,21.4-20.2,33-23.7V152h-71.1v6.6
					c14.7,1.2,19,9.4,10.5,22.1l-30.8,45.6l-27.8-41.8c-11.7-17.1-3.1-24.1,9.7-26.1v-6.6h-94.4v6.6
					C1042.6,162.1,1049.2,166,1060.1,181.6z M1320.2,186.6l31.9,87H1287L1320.2,186.6z M1458.5,351.2c0-3.2,3.1-9.8,7-9.8
					c8.9,4.3,24.1,13.2,52,13.2c47,0,80-23.3,80-62.9c0-37.3-20.6-52.5-60.2-61.4l-36.1-8.2c-20.6-4.7-27.2-10.6-27.2-23.3
					c0-14.8,11.6-24.5,37.3-24.5c28.7,0,51.3,13.6,67.6,32.4l5.1-3.5l-14.8-51.3h-9.3c0,4.3-1.9,8.9-5.8,8.9
					c-8.6-4.7-21.8-12-44.3-12c-40.4,0-71.9,20.9-71.9,59c0,29.1,17.5,47.3,55.6,55.9l34.2,7.8c22.9,4.9,31.1,13.2,31.1,27.6
					c0,19.8-15.9,30.3-41.9,30.3c-36.5,0-59.8-19.2-78.9-41.2l-5.1,3.5l15.9,59.5H1458.5L1458.5,351.2z"/>
				<path class="st0" d="M1723.3,96.9c12.1,3.5,21.7,6.6,21.7,26v195.9c0,19.8-9.7,22.9-21.7,26v6.6h90.1v-6.6
					c-12-3.1-21.8-6.2-21.8-26V122.9c0-19.5,9.7-22.6,21.8-26v-6.6h-90.1V96.9L1723.3,96.9z M1970.7,158.7
					c11.6,3.5,18.3,6.6,18.3,26v81.6h-1.2L1887.7,152h-58.6v6.6c11.7,4.9,19.4,8.9,19.4,26v134.1c0,18.6-6.6,22.9-19.4,26v6.6h66.4
					v-6.6c-10.5-3.1-20.6-7.3-20.6-26V203h1.2L2008.5,354h7V184.7c0-19.4,9.7-22.6,17.5-26V152h-62.2L1970.7,158.7L1970.7,158.7z
					 M2144.3,230.5l-36.1-8.1c-20.6-4.7-27.2-10.6-27.2-23.3c0-14.7,11.7-24.5,37.3-24.5c28.8,0,51.3,13.6,67.6,32.4l5.1-3.5
					l-14.7-51.3h-9.4c0,4.3-1.9,9-5.8,9c-8.6-4.7-21.7-12-44.3-12c-40.5,0-72,20.9-72,59c0,29,17.5,47.3,55.6,55.9l34.1,7.8
					c22.9,4.9,31.1,13.2,31.1,27.6c0,19.8-15.9,30.2-42,30.2c-36.4,0-59.9-19-78.9-41.1l-5.1,3.5l15.9,59.4h9.7c0-3.1,3.1-9.7,7-9.7
					c8.9,4.3,24.1,13.2,52,13.2c47,0,80-23.2,80-62.9C2204.6,254.5,2184,239.4,2144.3,230.5z M2216.2,152.1l-16,51.3l5.1,3.5
					c21.4-28.4,27.2-31.1,55.5-31.1c9.7,0,12.8,0.8,12.8,12.8v130.2c0,19.8-5.8,22.9-21.7,26v6.6h85.5v-6.6
					c-15.6-3.1-21.8-6.1-21.8-26V188.6c0-12,3.1-12.8,12.9-12.8c28.4,0,35.9,2.6,57.1,31.1l5.1-3.5l-15.9-51.3H2216.2z
					 M2562.2,292.2c-12-19.4-24.4-28-38.8-31.5v-1.2c34.2-5.5,53.6-23.3,53.6-52.5c0-38.7-31.1-55.2-81.2-55.2h-102.2v6.6
					c12.9,3.5,19.5,6.6,19.5,26v134.1c0,19.8-6.6,22.9-19.5,26v6.6h83.5v-6.6c-12-3.1-20.2-6.2-20.2-26v-49.6h20.6
					c24.1,0,27.6,9.7,43.1,42.4c12.8,26.8,29.9,43.5,62.1,43.5c16.4,0,22.9-3.2,29.5-6.6v-5.5
					C2586.3,338.8,2577.8,317.5,2562.2,292.2z M2491.2,245.6H2457v-52.9c0-12.8,3.2-16.3,12.9-16.3h22.1c24.1,0,38.1,9.3,38.1,32.6
					C2530,233.6,2514.1,245.6,2491.2,245.6z M2738.9,158.7c10.1,2.4,19.8,6.6,19.8,26v98.3c0,32.7-12.4,47-49.3,47
					c-39.2,0-53.2-14.4-53.2-47v-98.3c0-19.4,7.4-23.7,19.5-26v-6.6h-81.6v6.6c12,1.9,19.8,6.6,19.8,26V286
					c0,53.2,46.2,68.8,89.8,68.8c48.6,0,83.1-16.4,83.1-72v-98.3c0-19.4,5.9-23.2,17.9-26V152H2739L2738.9,158.7L2738.9,158.7z
					 M2945.6,281.4l-57.5-129.4h-71.4v6.6c12.8,3.5,19.4,6.6,19.4,26v134.1c0,17.4-7.4,22.1-19.4,26v6.6h63.3v-6.6
					c-13.2-3.5-19-8.6-19-26V193.7l71.8,160.8h5.5l69.9-160.8v125.1c0,19.8-8.5,23.2-18.2,26v6.6h81.6v-6.6
					c-12.8-3.1-19.4-6.2-19.4-26V184.7c0-19.4,6.6-22.6,19.4-26v-6.6h-70.3L2945.6,281.4z M3207.4,327.6h-42
					c-13.2,0-16.3-0.3-16.3-13.2v-55.9h50.9c19.8,0,22.9,4.6,26,16.3h7.8v-55.9h-7.8c-3.1,11.6-6.2,16.7-26,16.7h-50.9v-47
					c0-9.7,3.1-12.9,16.3-12.9c0,0,32.6,0,35.7,0c22.9,0,34.9,5.9,52.5,24.4l5-3.5l-16.4-44.7h-155.4v6.6c12.9,3.5,19.4,6.6,19.4,26
					v134.1c0,19.8-6.6,22.9-19.4,26v6.6h162.8l18.7-46.7l-5.1-3.5C3247,322.5,3229.9,327.6,3207.4,327.6z M3414.8,158.7
					c11.6,3.5,18.3,6.6,18.3,26v81.6h-1.2L3331.7,152H3273v6.6c11.7,4.9,19.5,8.9,19.5,26v134.1c0,18.6-6.6,22.9-19.5,26v6.6h66.4
					v-6.6c-10.6-3.1-20.6-7.3-20.6-26V203h1.1L3452.4,354h7.1V184.7c0-19.4,9.7-22.6,17.5-26V152h-62.1L3414.8,158.7L3414.8,158.7z
					 M3495.2,152.1l-15.9,51.3l5.1,3.5c21.4-28.4,27.2-31.1,55.6-31.1c9.7,0,12.8,0.8,12.8,12.8v130.2c0,19.8-5.8,22.9-21.7,26v6.6
					h85.5v-6.6c-15.6-3.1-21.8-6.1-21.8-26V188.6c0-12,3.2-12.8,12.9-12.8c28.4,0,35.8,2.6,57.1,31.1l5.1-3.5l-15.9-51.3H3495.2z
					 M3779.5,230.5l-36.1-8.1c-20.6-4.7-27.2-10.6-27.2-23.3c0-14.7,11.6-24.5,37.2-24.5c28.7,0,51.3,13.6,67.6,32.4l4.9-3.5
					l-14.6-51.3h-9.4c0,4.3-2,9-5.8,9c-8.6-4.7-21.8-12-44.4-12c-40.5,0-72,20.9-72,59c0,29,17.5,47.3,55.5,55.9l34.1,7.8
					c22.8,4.9,31.1,13.2,31.1,27.6c0,19.8-15.8,30.2-42,30.2c-36.5,0-59.9-19-78.9-41.1l-5.1,3.5l15.8,59.4h9.8c0-3.1,3.1-9.7,7-9.7
					c8.9,4.3,24.2,13.2,52,13.2c46.8,0,80-23.2,80-62.9C3839.7,254.5,3819.1,239.4,3779.5,230.5z"/>
				<path class="st0" d="M464.2,149.9V90.5h-95.3l-12,59.9h34.3l-11,55.2h-34.3L334,265.3c-0.9,4.1-1.6,7-2,9.8
					c-2.8,18.3,5.2,17.4,30.8,17.4l-11.7,58.8h-44.9c-42.4,0-77-0.4-68-43.9c1.4-6.6,3.1-13.4,4.3-19.8l16-82.1h-33l11-55.2h33
					l12-59.9h-30.8V0H136.6v184H0c3.4,47.7,45.6,54.7,61,88.6c10.6,23.4,19.9,64.5,50.8,64.8c23.7,0.3,23.7-30.7,54.3-30.7
					c30.5,0,44,57.9,71.2,105.7c20.3,37.5,54.1,62.6,84.7,64.8c25.1,1.7,37.3-6.8,37.3-6.8c-6.8-13.6-10.2-27.3-10.2-47.7
					c0-30.7,23.7-61.3,50.9-81.8c37.3-27.2,78-37.6,91.5-40.9v-95.5C491.4,204.5,464.2,190,464.2,149.9z M308.7,292.5l40.1-202.1
					h-46.2l-40.1,202.1H308.7z M361.2,26.6H315l-8.8,44.6h46.2L361.2,26.6z"/>
			</g>
			<rect x="627.1" y="557.3" class="st0" width="198.4" height="686.7"/>
			<rect x="195.8" y="563.9" class="st0" width="198.4" height="680.1"/>
			<rect y="557.3" class="st0" width="589.9" height="182.6"/>
			<path class="st0" d="M1991.1,551.2c-154.6,0-279.8,86.3-279.8,242.5c0,173.1,127.7,235.2,248.8,235.2c37.8,0,91.7-20,127.1-47.4
				c17.2,166.7-170.7,176-188.6,77.4h-173.1c28.8,155.2,164.5,198.1,270.4,197.8c140.7-0.4,274.8-112.4,274.8-384
				C2270.9,647.5,2145.7,551.2,1991.1,551.2z M1984.4,893.6c-58.3,0-105.5-47.2-105.5-105.5c0-58.3,47.2-105.5,105.5-105.5
				s105.5,47.3,105.5,105.5C2090,846.4,2042.7,893.6,1984.4,893.6z"/>
			<path class="st0" d="M1380.2,551.2c-154.6,0-279.8,86.3-279.8,242.5c0,173.1,127.7,235.2,248.8,235.2c37.8,0,91.7-20,127.1-47.4
				c17.2,166.7-170.7,176-188.6,77.4h-173.2c28.8,155.2,164.5,198.1,270.4,197.8c140.7-0.4,274.8-112.4,274.8-384
				C1659.8,647.5,1534.6,551.2,1380.2,551.2z M1373.4,893.6c-58.3,0-105.5-47.2-105.5-105.5c0-58.3,47.2-105.5,105.5-105.5
				c58.3,0,105.5,47.3,105.5,105.5C1479,846.4,1431.7,893.6,1373.4,893.6z"/>
			<rect x="884" y="814.1" class="st0" width="157.8" height="130"/>
			<g>
				<g>
					<g>
						<path class="st0" d="M3043.1,1256.7h-198.9c-10,0-18.2-8.1-18.2-18.2v-134.3h-277.5c-10,0-18.2-8.1-18.2-18.2V935.9
							c0-4.4,1.6-8.6,4.5-11.9L2853,557.5c3.5-4,8.5-6.3,13.7-6.3h176.4c10,0,18.2,8.1,18.2,18.2v356.9h50c10,0,18.2,8.1,18.2,18.2
							v141.7c0,10-8.1,18.2-18.2,18.2h-50v134.3C3061.3,1248.6,3053.1,1256.7,3043.1,1256.7z M2862.3,1220.4h162.6v-134.3
							c0-10,8.1-18.2,18.2-18.2h50V962.6h-50c-10,0-18.2-8.1-18.2-18.2V587.6H2875l-308.3,355.2V1068h277.5c10,0,18.2,8.1,18.2,18.2
							V1220.4z"/>
					</g>
					<g>
						<path class="st0" d="M2844.2,962.6H2657c-7.1,0-13.6-4.2-16.5-10.6c-3-6.5-1.9-14.1,2.8-19.5l187.2-215.6
							c5-5.7,13-7.8,20.1-5.1c7.1,2.7,11.8,9.4,11.8,17v215.6C2862.3,954.5,2854.2,962.6,2844.2,962.6z M2696.8,926.3H2826V777.5
							L2696.8,926.3z"/>
					</g>
				</g>
				<g>
					<path class="st0" d="M3810.7,1256.7h-137.8c-7.8,0-14.7-4.9-17.2-12.3l-48-140.1h-214.1l-48,140.1c-2.5,7.3-9.4,12.3-17.2,12.3
						h-137.9c-5.9,0-11.4-2.8-14.8-7.6c-3.4-4.8-4.3-10.9-2.4-16.5l229.4-669.2c2.5-7.3,9.4-12.3,17.2-12.3h161.4
						c7.8,0,14.7,4.9,17.2,12.3l229.3,669.2c1.9,5.6,1,11.7-2.4,16.5C3822,1253.9,3816.5,1256.7,3810.7,1256.7z M3685.9,1220.4h99.3
						l-216.8-632.8h-135.5L3216,1220.4h99.4l48-140.1c2.5-7.3,9.4-12.3,17.2-12.3h240c7.8,0,14.7,4.9,17.2,12.3L3685.9,1220.4z
						 M3582.3,992.5h-163.4c-5.9,0-11.4-2.8-14.8-7.6c-3.4-4.8-4.3-10.9-2.4-16.5l81.8-238.4c2.5-7.3,9.4-12.3,17.2-12.3h0
						c7.8,0,14.7,4.9,17.2,12.3l81.7,238.4c1.9,5.6,1,11.7-2.4,16.5C3593.7,989.7,3588.2,992.5,3582.3,992.5z M3444.3,956.2h112.5
						L3500.6,792L3444.3,956.2z"/>
				</g>
			</g>
		</g>
		<polygon class="st0" points="2546.6,587.6 2234.6,1256.7 2286.4,1256.7 2598.4,587.6 		"/>
	</g>
	<g>
		<path class="st0" d="M424.7,1768.3c-4.1,52.5-57.8,74.8-110.8,74.8c-77.3,0-118.2-44.2-118.2-111.2c0-69.9,47.2-112,122-112
			c50,0,98.3,19.8,105.4,74h-42.9c-3.7-30.2-28.2-45.8-62.1-45.8c-43.8,0-79.3,28.6-79.3,83.9c0,44.2,26,83.1,77.3,83.1
			c38,0,63.6-17.8,65.8-46.7h42.8V1768.3z"/>
		<path class="st0" d="M600.7,1843.1c-84.4,0-129.8-40.5-129.8-111.6c0-67.4,42.9-111.6,129.8-111.6c84.4,0,129.8,40.5,129.8,111.6
			S685,1843.1,600.7,1843.1z M513.9,1731.5c0,47.2,30.2,83.5,86.8,83.5c56.6,0,86.8-36.4,86.8-83.5s-30.2-83.5-86.8-83.5
			C544.1,1648,513.9,1684.4,513.9,1731.5z"/>
		<path class="st0" d="M791.6,1674.9c0-15.7-0.8-30.6-1.6-47.2h38c0.8,10.4,1.6,22.3,1.6,36.8h0.8c23.5-31.9,53.3-44.6,87.2-44.6
			c34.7,0,63.6,17,75.6,52.1c14.9-28.6,47.2-52.1,85.6-52.1c59.1,0,95.5,29,95.5,96.3v119.1h-40.5v-103.8
			c0-50.4-14.5-83.5-58.7-83.5c-35.5,0-71.9,24.4-71.9,92.6v94.6h-40.5V1729c0-55.8-19-81-56.2-81c-35.5,0-74.4,25.6-74.4,86.8
			v100.4h-40.5v-160.3H791.6z"/>
		<path class="st0" d="M1247.9,1674.9c0-15.7-0.8-30.6-1.6-47.2h40.5c0.8,7.8,1.6,17.4,1.6,29.4c21.1-23.9,54.1-37.2,90.9-37.2
			c62,0,115.7,44.2,115.7,111.6s-53.7,111.6-115.7,111.6c-33.1,0-65.3-7.8-90.9-35.1v106.6h-40.5V1674.9z M1370.1,1815
			c48.4,0,81.8-31,81.8-83.5s-33.5-83.5-81.8-83.5c-48,0-81.8,31-81.8,83.5C1288.4,1783.9,1322.3,1815,1370.1,1815z"/>
		<path class="st0" d="M1786,1788.2c0,15.7,0.8,30.6,1.6,47.2h-38c-0.8-10.4-1.6-22.3-1.6-36.8h-0.8c-23.5,31.9-53.3,44.6-90.5,44.6
			c-58.3,0-100.5-32.7-100.5-97.5v-117.8h40.5v115.7c0,46.2,27.6,71.5,66.6,71.5c38.4,0,82.3-23.5,82.3-89.3v-97.9h40.5L1786,1788.2
			L1786,1788.2z"/>
		<path class="st0" d="M1890,1589.7l40.5-17v55h61.1v28.2h-61.1v119.4c0,22.3,6.2,34.3,31.4,34.3c7.4,0,19.4-0.8,31-2.5v28.2
			c-13.3,1.6-26.4,2.5-38.8,2.5c-40.9,0-64.1-13.3-64.1-59.5v-122.4h-54.1v-28.2h54.1V1589.7z"/>
		<path class="st0" d="M2262.5,1742.2h-194.3c4.1,42.5,31.4,72.7,76.9,72.7c29.4,0,60.3-12.4,69.5-42.1h42.9
			c-8.2,55.4-64.4,70.3-110.3,70.3c-76,0-119.5-41.7-119.5-107.5c0-75.6,45.4-115.7,120.7-115.7c73.6,0,114,39.7,114,109.9v12.3
			H2262.5z M2219.4,1714.2c-0.8-48-36.4-66.2-71.9-66.2c-41.7,0-71.5,20.2-77.7,66.2H2219.4z"/>
		<path class="st0" d="M2320.7,1674.9c0-15.7-0.8-30.6-1.6-47.2h38c0.8,12.4,1.6,27.3,1.6,41.3h0.8c18.6-33.5,36.8-44.2,83-44.2
			h13.7v36.4c-6.2-2.1-12-2.5-19.4-2.5c-48.8,0-75.6,34.3-75.6,76v100.4h-40.5L2320.7,1674.9L2320.7,1674.9z"/>
	</g>
</g>
</svg>
