<?xml version="1.0" encoding="utf-8"?>
<!-- Generator: Adobe Illustrator 26.3.1, SVG Export Plug-In . SVG Version: 6.00 Build 0)  -->
<svg version="1.1" id="Layer_1" xmlns="http://www.w3.org/2000/svg" xmlns:xlink="http://www.w3.org/1999/xlink" x="0px" y="0px"
	 viewBox="0 0 3839 276.3" style="enable-background:new 0 0 3839 276.3;" xml:space="preserve">
<style type="text/css">
	.st0{fill:#FFFFFF;}
</style>
<g>
	<g>
		<g>
			<g>
				<path class="st0" d="M3178.4,272.5h-86.8l1.7-185.9l-87.2,185.9h-69.9L2848.4,85l1.8,187.4h-86.8V4h143.2l64.5,151.3L3035.9,4
					h142.5V272.5z M3108,256.3h54.3V20.1h-115.6l-75.5,176.3l-75.1-176.3h-116.3v236.1h54.3l-1.8-188.8h26l88.5,188.8h49.3
					l88.5-188.8h25.3L3108,256.3z"/>
			</g>
			<g>
				<path class="st0" d="M3391.1,276.3c-5.3,0-10.6,0-15.8-0.1c-5.2,0-10.4-0.1-15.5-0.1c-18.2,0-37.1,0-55.5-0.4l-2.4,0
					c-25.1-0.4-63-0.9-85.3-18.7c-22.7-17.6-24.3-52.8-25.3-74c-1.1-15-1.1-30.1-1.1-44.7c0-14.6,0-29.8,1.1-44.8
					c1.4-22.1,3.4-55.7,25.1-73.7l0.1-0.1c9.8-7.9,22-12.9,37.3-15.3c28.2-4.8,58.8-4.6,88.5-4.4c5.9,0,11.8,0.1,17.5,0.1
					c18.4,0,36.1,0.4,54.9,0.7L3418,1c26.5,0.4,62.7,0.9,85,18.8c21.8,17.3,23.8,49.9,25.2,73.7l0,0.2c1.1,15,1.1,30.1,1.1,44.8
					c0,14.6,0,29.7-1.1,44.7c-0.9,20.8-2.5,55.4-25.1,73.8c-11.8,10-25,13.1-37.4,15C3441.2,275.8,3416,276.3,3391.1,276.3z
					 M3226.6,32.3c-16.3,13.6-18,41.7-19.3,62.3c-1,14.5-1,29.4-1,43.8c0,14.4,0,29.2,1,43.7l0,0.2c0.8,18.3,2.2,49,19.1,62.1
					l0.1,0.1c18,14.4,52.6,14.9,75.5,15.2l2.4,0c18.3,0.4,37.1,0.4,55.2,0.4c5.2,0,10.4,0,15.6,0.1c29.2,0.1,59.4,0.3,87.9-4.1
					c11.7-1.8,21.2-4.4,29.5-11.4l0.1-0.1c15.7-12.8,18.1-37.8,19.2-62.2l0-0.2c1-14.5,1-29.3,1-43.7c0-14.4,0-29.2-1-43.7l0-0.3
					c-1.3-21.9-3-49.2-19.2-62c-18-14.4-52.4-14.9-75.2-15.2l-3.5-0.1c-18.6-0.4-36.3-0.7-54.5-0.7c-5.8,0-11.5,0-17.6-0.1
					c-29-0.2-59-0.4-85.7,4.1l-0.1,0C3243.7,22.4,3234.3,26.2,3226.6,32.3z M3339.4,211c-8.3,0-17.7-0.2-26.6-0.9
					c-18.8-1.5-30.6-4.7-37.2-10.3c-13.8-11.8-13.6-35.3-13.5-50.9c0-1.4,0-2.8,0-4.1l0-3.1c0-29.6,0-47.4,8.5-59.4
					c9.6-13.6,27.7-16.2,55.7-16.2h45.1c2.1,0,4.1,0,6.2,0c14.7,0,29.9-0.1,45,2l0.1,0c12.1,1.8,25.4,5.4,30.9,24.7
					c4.2,14.4,4.2,38,4.2,52.2c0,1,0,2.1,0,3.2c0.1,16.2,0.2,40.7-13.6,51.9c-13.2,10.5-35.5,10.5-50.2,10.5c-5.6,0-11.4,0.1-17,0.2
					c-5.7,0.1-11.5,0.2-17.2,0.2c-1.9,0-4.4,0-7.2,0.1C3348.8,210.9,3344.3,211,3339.4,211z M3326.2,82.2c-25.8,0-37.7,2.6-42.5,9.4
					c-5.5,7.8-5.5,24.6-5.5,50.1l0,3.1c0,1.3,0,2.7,0,4.2c-0.1,12.6-0.3,31.6,7.8,38.4c9.4,8,50.8,7.4,66.4,7.2
					c2.9,0,5.4-0.1,7.4-0.1c5.6,0,11.4-0.1,17-0.2c5.7-0.1,11.5-0.2,17.2-0.2c11,0,31.4,0,40.1-6.9c7.7-6.3,7.6-27.7,7.5-39.2
					c0-1.2,0-2.3,0-3.3c0-12.4,0-35.5-3.6-47.7l0-0.1c-2.6-9.2-6.9-11.5-17.7-13.1c-13.9-1.9-28.5-1.9-42.7-1.8c-2.1,0-4.2,0-6.2,0
					H3326.2z"/>
			</g>
			<g>
				<path class="st0" d="M3668.1,275.5c-27.4,0-55.6-0.5-82.9-7.5c-40.8-10.5-44.2-42.5-44.2-71.8c0-3.5,0-6.8,0.4-10.7l0.7-7.3
					h83.4v8.1c0,2.9,0,9.7,2.1,13c2.7,1.5,13.9,4.6,59,4.2c1.4,0,2.6,0,3.4,0h32.8c13.1,0,22.5,0,26.2-2.8c3.1-2.4,4.5-9.9,4.5-24.3
					c0-4.8,0-11.4-1.7-15.1c-2.9-6-20.4-6.4-27.9-6.6c-1.3,0-2.4-0.1-3.5-0.1c-16.1-0.8-32.3-1.1-48.4-1.1c-1.9,0-3.9,0-6,0
					c-10.1-0.1-22.7-0.2-31.1,2c-5.4,1.5-6,1.6-6,9.2v8.1h-78.9V4h277.8v70.7h-177.4c-7.1,0-14.3,0-21.5-0.7c0,0.7,0,1.3,0,2
					c0,5.6,0.1,11.4,0,17.1c15.8-8.5,48.3-9.7,81.1-9.6l2.1,0c20.2,0,57.8,0,83.5,7.9c17.6,5.4,29.8,16.9,36.4,34.2
					c5.9,15.4,6.7,33.5,6.7,49.2c0,36.7-5.7,61.3-17.4,75.2l0,0c-9,10.6-21.1,15.3-31.7,18.4c-24.7,7.2-49.7,7.2-73.8,7.1l-32.5,0
					c-2.6,0-5.1,0-7.7,0C3673.3,275.5,3670.7,275.5,3668.1,275.5z M3557.3,194.5c0,0.6,0,1.2,0,1.7c0,31.8,4.9,49.2,32,56.1
					c27.9,7.1,57.7,7,86.6,6.9c2.6,0,5.1,0,7.7,0l32.5,0c23.1,0,46.9,0,69.3-6.5c8.3-2.5,17.7-6,24-13.4
					c6.2-7.3,13.6-24.5,13.6-64.7c0-36-5.3-59.9-31.6-67.9c-23.4-7.2-59.4-7.2-78.7-7.2l-2.1,0c-0.2,0-0.4,0-0.6,0
					c-59,0-69.3,5.7-73.1,7.9c-3.3,2.1-6.6,4.9-9.9,8.4l-15,16.1l1-22c0.5-11.1,0.5-22.8,0.4-34c0-3.8,0-7.6,0-11.4v-9.9l9.7,1.9
					c8.7,1.7,18.6,1.7,28,1.7h161.2V20.1h-245.5v136.7h47.2c1.5-7.9,6-13.7,17.3-16.7c10.5-2.8,24.3-2.7,35.4-2.6c2,0,4,0,5.8,0
					c16.3,0,32.8,0.4,49,1.1c0.9,0,2,0.1,3.2,0.1c13.1,0.3,34.9,0.8,42.2,15.8c3.3,7,3.3,15.7,3.3,22c0,17.9-1.8,30.3-11,37.2
					c-8,6-19.1,6-35.9,6h-32.8c-0.8,0-1.9,0-3.3,0c-52.3,0.4-66-3.4-71.3-9.7l-0.2-0.2c-3.5-4.5-5-9.9-5.6-15.5H3557.3z
					 M3627.5,199.3"/>
			</g>
		</g>
		<g>
			<g>
				<path class="st0" d="M179.8,76.4v188h-75.1v-188H0V12.1h284.6v64.3H179.8z"/>
			</g>
			<g>
				<path class="st0" d="M508.5,264.4v-91.5H346.6v91.5h-75.1V12.1h75.1v90.4h161.9V12.1h75.1v252.3H508.5z"/>
			</g>
			<g>
				<path class="st0" d="M911.6,182.7c-1.1,23.5-3.2,52.6-22.2,68.1c-9.9,8.3-21.2,11.3-33.5,13.2c-34.2,5.3-70.2,4.2-104.7,4.2
					c-18.3,0-37,0-55.4-0.4c-24.7-0.4-62.1-0.4-82.9-17c-19-14.8-21.2-45-22.2-68.1c-1.1-14.8-1.1-29.5-1.1-44.3
					c0-14.8,0-29.5,1.1-44.3c1.4-23.1,3.5-52.6,22.2-68.1c9.9-7.9,21.5-11.7,33.5-13.6c33.1-5.7,71.2-4.2,104.7-4.2
					c18.7,0,37,0.4,55.7,0.8c24.7,0.4,61.7,0.4,82.5,17c19,15.1,20.8,45,22.2,68.1c1.1,14.8,1.1,29.5,1.1,44.3
					C912.7,153.2,912.7,167.9,911.6,182.7z M837.2,94.9c-3.9-13.6-12-17-24.3-18.9c-16.6-2.3-33.5-1.9-50.1-1.9h-45.1
					c-57.1,0-56.1,12.1-56.1,70.7c0,14.4-1.4,38.6,10.6,48.8c13.4,11.3,62.8,9.1,79,9.1c11.3,0,22.9-0.4,34.2-0.4
					c13,0,34.2,0,45.1-8.7c11.6-9.5,10.6-34.8,10.6-48.8C841.1,131.2,841.1,108.1,837.2,94.9z"/>
			</g>
			<g>
				<path class="st0" d="M1247,264.4l1.8-188.8h-12l-88.5,188.8h-59.6l-88.5-188.8h-12.7l1.8,188.8h-70.5V12.1h129.8l69.8,163.8
					l70.2-163.8h129.1v252.3H1247z"/>
			</g>
			<g>
				<path class="st0" d="M1595.9,248.1c-16.9,19.7-54,18.9-76.9,19.3c-18.3,0.8-36.7,0.8-55,0.8c-30.7,0-67.7,1.1-97.7-6.1
					c-11.3-2.6-21.2-7.6-29.3-16.3c-12-12.5-13.4-28.7-13.4-45.8c0-6.4,0.4-12.9,0.7-19.3h69.1c0,5.7,0,11,1.8,16.3
					c1.1,3.4,2.5,5.7,5.3,7.9c6.7,5.7,26.8,4.9,34.6,4.9c10.2,0,20.1,0.4,30.3,0.4c12.7,0,25-0.4,37.7-0.4c8.8,0,31,1.1,37-7.9
					c2.5-4.2,2.5-9.8,2.5-14.4c0-19.3-14.1-18.5-28.6-18.9c-37.7-1.1-75.5-3.4-113.2-4.9c-20.5-0.8-46.5-1.5-61.4-19.3
					c-12.3-14.8-13.4-35.9-13.4-54.9c0-45,10.9-73.4,56.1-78.3c30.3-3.4,61.7-3,92.4-3c29.6,0,61-0.8,89.9,6.8
					c32.1,8.7,38.8,31.4,38.8,64.3v12.1h-69.5v-3.8c0-7.2-0.7-12.5-6.7-16.6c-6.7-4.9-22.6-4.5-30.3-4.5h-61
					c-7.4,0-28.2-0.4-34.6,4.5c-4.6,3.4-5.6,9.5-5.6,15.1c0,4.5,1.1,10.6,4.6,13.6c2.5,2.3,6,3,9.2,3.4c8.1,1.5,16.6,1.5,24.7,1.9
					c15.9,0.8,31.7,1.5,47.6,1.9c27.2,0.8,65.9,0.4,92.4,7.9c8.5,2.6,15.9,6.4,22.6,12.9c14.5,13.6,15.2,39.7,15.2,58.6
					C1611.7,207.6,1610,231.8,1595.9,248.1z"/>
			</g>
			<g>
				<path class="st0" d="M1939.8,182.7c-1.1,23.5-3.2,52.6-22.2,68.1c-9.9,8.3-21.2,11.3-33.5,13.2c-34.2,5.3-70.2,4.2-104.7,4.2
					c-18.3,0-37,0-55.4-0.4c-24.7-0.4-62.1-0.4-82.9-17c-19-14.8-21.2-45-22.2-68.1c-1.1-14.8-1.1-29.5-1.1-44.3
					c0-14.8,0-29.5,1.1-44.3c1.4-23.1,3.5-52.6,22.2-68.1c9.9-7.9,21.5-11.7,33.5-13.6c33.1-5.7,71.2-4.2,104.7-4.2
					c18.7,0,37,0.4,55.7,0.8c24.7,0.4,61.7,0.4,82.5,17c19,15.1,20.8,45,22.2,68.1c1.1,14.8,1.1,29.5,1.1,44.3
					C1940.8,153.2,1940.8,167.9,1939.8,182.7z M1865.4,94.9c-3.9-13.6-12-17-24.3-18.9c-16.6-2.3-33.5-1.9-50.1-1.9h-45.1
					c-57.1,0-56.1,12.1-56.1,70.7c0,14.4-1.4,38.6,10.6,48.8c13.4,11.3,62.8,9.1,79,9.1c11.3,0,22.9-0.4,34.2-0.4
					c13,0,34.2,0,45.1-8.7c11.6-9.5,10.6-34.8,10.6-48.8C1869.2,131.2,1869.2,108.1,1865.4,94.9z"/>
			</g>
			<g>
				<path class="st0" d="M2149.6,264.4l-123.8-188h-7.8l1.8,188h-73V12.1h125.5l123.1,188h7.4l-1.8-188h73v252.3H2149.6z"/>
			</g>
		</g>
		<g>
			<g>
				<g>
					<polygon class="st0" points="2649.2,204.9 2583.3,204.9 2583.3,85.3 2649.2,109.2 					"/>
					<polygon class="st0" points="2477.7,190.8 2411.9,166.8 2411.9,71.2 2477.7,71.2 					"/>
				</g>
				<g>
					<polygon class="st0" points="2530.5,210 2530.5,276.1 2677.1,222.8 2677.1,156.7 					"/>
					<g>
						<polygon points="2388.5,219.6 2388.5,163.1 2526,213.2 2526,269.7 						"/>
						<path class="st0" d="M2393,169.5l128.6,46.8v46.9L2393,216.5V169.5 M2384,156.7v66.1l146.5,53.3V210L2384,156.7L2384,156.7z"
							/>
					</g>
				</g>
				<g>
					<polygon class="st0" points="2384,53.3 2384,119.4 2530.5,66.1 2530.5,0 					"/>
					<g>
						<polygon points="2535,62.9 2535,6.4 2672.6,56.5 2672.6,113 						"/>
						<path class="st0" d="M2539.5,12.8l128.6,46.8v46.9l-128.6-46.8V12.8 M2530.5,0v66.1l146.5,53.3V53.3L2530.5,0L2530.5,0z"/>
					</g>
				</g>
			</g>
		</g>
	</g>
	<g>
		<polygon points="2895.9,20.1 2779.6,20.1 2779.6,256.3 2833.9,256.3 2832.1,67.5 2858.1,67.5 2946.6,256.3 2995.9,256.3 
			3084.4,67.5 3109.7,67.5 3108,256.3 3162.2,256.3 3162.2,20.1 3046.6,20.1 2971.1,196.4 		"/>
	</g>
	<g>
		<path d="M3512.1,94.4c-1.3-21.9-3-49.2-19.2-62c-18-14.4-52.4-14.9-75.2-15.2l-3.5-0.1c-18.6-0.4-36.3-0.7-54.5-0.7
			c-5.8,0-11.5,0-17.6-0.1c-29-0.2-59-0.4-85.7,4.1l-0.1,0c-12.6,2-22,5.8-29.6,11.9c-16.3,13.6-18,41.7-19.3,62.3
			c-1,14.5-1,29.4-1,43.8c0,14.4,0,29.2,1,43.7l0,0.2c0.8,18.3,2.2,49,19.1,62.1l0.1,0.1c18,14.4,52.6,14.9,75.5,15.2l2.4,0
			c18.3,0.4,37.1,0.4,55.2,0.4c5.2,0,10.4,0,15.6,0.1c29.2,0.1,59.4,0.3,87.9-4.1c11.7-1.8,21.2-4.4,29.5-11.4l0.1-0.1
			c15.8-12.8,18.1-37.8,19.2-62.2l0-0.2c1-14.5,1-29.3,1-43.7c0-14.4,0-29.2-1-43.7L3512.1,94.4z M3444.2,199.9
			c-13.2,10.5-35.5,10.5-50.2,10.5c-5.6,0-11.4,0.1-17,0.2c-5.7,0.1-11.5,0.2-17.2,0.2c-1.9,0-4.4,0-7.2,0.1
			c-3.8,0.1-8.3,0.1-13.2,0.1c-8.3,0-17.7-0.2-26.6-0.9c-18.8-1.5-30.6-4.7-37.2-10.3c-13.8-11.8-13.6-35.3-13.5-50.9
			c0-1.4,0-2.8,0-4.1l0-3.1c0-29.6,0-47.4,8.5-59.4c9.6-13.6,27.7-16.2,55.7-16.2h45.1c2.1,0,4.1,0,6.2,0c14.7,0,29.9-0.1,45,2
			l0.1,0c12.1,1.8,25.4,5.4,30.9,24.7c4.2,14.4,4.2,38,4.2,52.2c0,1,0,2.1,0,3.2C3457.8,164.2,3458,188.7,3444.2,199.9z"/>
	</g>
	<path d="M3791.2,106.8c-23.4-7.2-59.4-7.2-78.7-7.2l-2.1,0c-0.2,0-0.4,0-0.6,0c-59,0-69.3,5.7-73.1,7.9c-3.3,2.1-6.6,4.9-9.9,8.4
		l-15,16.1l1-22c0.5-11.1,0.5-22.8,0.4-34c0-3.8,0-7.6,0-11.4v-9.9l9.7,1.9c8.7,1.7,18.6,1.7,28,1.7h161.2V20.1h-245.5v136.7h47.2
		c1.5-7.9,6-13.7,17.3-16.7c10.5-2.8,24.3-2.7,35.4-2.6c2,0,4,0,5.8,0c16.3,0,32.8,0.4,49,1.1c0.9,0,2,0.1,3.2,0.1
		c13.1,0.3,34.9,0.8,42.2,15.8c3.3,7,3.3,15.7,3.3,22c0,17.9-1.8,30.3-11,37.2c-8,6-19.1,6-35.9,6h-32.8c-0.8,0-1.9,0-3.3,0
		c-52.3,0.4-66-3.4-71.3-9.7l-0.2-0.2c-3.5-4.5-5-9.9-5.6-15.5h-52.6c0,0.6,0,1.2,0,1.7c0,31.8,4.9,49.2,32,56.1
		c27.9,7.1,57.7,7,86.6,6.9c2.6,0,5.1,0,7.7,0l32.5,0c23.1,0,46.9,0,69.3-6.5c8.3-2.5,17.7-6,24-13.4c6.2-7.3,13.6-24.5,13.6-64.7
		C3822.8,138.7,3817.5,114.8,3791.2,106.8z"/>
</g>
</svg>
