<?xml version="1.0" encoding="utf-8"?>
<!-- Generator: Adobe Illustrator 25.2.3, SVG Export Plug-In . SVG Version: 6.00 Build 0)  -->
<svg version="1.1" id="Layer_1" xmlns="http://www.w3.org/2000/svg" xmlns:xlink="http://www.w3.org/1999/xlink" x="0px" y="0px"
	 viewBox="0 0 3839 1706.2" style="enable-background:new 0 0 3839 1706.2;" xml:space="preserve">
<style type="text/css">
	.st0{fill:#FF0000;}
	.st1{fill:#FFFFFF;}
</style>
<g>
	<g>
		<path class="st1" d="M3816.31,1474.6l-65.98-102.53c49.31-53.05,76.29-124.26,76.3-198.87
			c0.03-155.23-116.32-295.97-308.62-288.47c0,0.05,0,0.11,0,0.16h-61.31h-142.57c-78.74,0-142.57,63.83-142.57,142.57v524.22
			c0,78.74,63.83,142.57,142.57,142.57c78.74,0,142.57-63.83,142.57-142.57v-91.1h11.52l108.31,168.32
			c42.61,66.21,130.83,85.35,197.04,42.74l0,0C3839.78,1629.03,3858.91,1540.81,3816.31,1474.6z M3518.01,1129.6v-0.17
			c29.82,0,36.53,30.81,36.53,43.7c0.01,12.89-6.71,43.7-36.53,43.7v-0.96h-61.31v-86.27H3518.01z"/>
	</g>
	<g>
		<path class="st1" d="M3070.29,485.18v191.31c0,78.74,63.83,142.57,142.57,142.57c78.74,0,142.57-63.83,142.57-142.57V485.18
			l197.51-243.55c49.6-61.16,40.23-150.93-20.93-200.53s-150.93-40.23-200.53,20.93l-118.62,146.26L3094.25,62.04
			c-49.6-61.16-139.38-70.53-200.53-20.93c-61.16,49.6-70.53,139.37-20.93,200.53L3070.29,485.18z"/>
	</g>
	<g>
		<path class="st1" d="M2012.72,816.72c78.67,14.35,153.48-38.63,166.35-117.21l20.69-126.36l77.07,166.43
			c22.44,48.45,70.98,79.47,124.38,79.47c53.41,0,101.94-31.01,124.38-79.47l77.08-166.43l20.69,126.36
			c12.87,78.58,87.69,131.57,166.36,117.2c77.22-14.09,126.95-90.47,114.27-167.93l-83.83-511.95
			c-12.06-73.64-75.55-127.8-150.17-128.1c-59.75-0.24-114.16,34.37-139.26,88.59l-129.51,279.66l-129.5-279.65
			c-25.11-54.23-79.52-88.84-139.28-88.6c-74.63,0.3-138.13,54.47-150.19,128.12l-83.8,511.92
			C1885.76,726.25,1935.49,802.63,2012.72,816.72z"/>
	</g>
	<g>
		<path class="st1" d="M1428.25,831.43c289.08,5.65,449.5-199.57,449.51-415.65c0.01-216.09-160.41-421.31-449.51-415.67
			c-289.08-5.65-449.5,199.57-449.51,415.65C978.75,631.85,1139.15,837.07,1428.25,831.43z M1428.25,244.78
			c98.47,0,178.29,76.56,178.29,171s-79.83,171-178.29,171c-98.47,0-178.29-76.56-178.29-171S1329.79,244.78,1428.25,244.78z"/>
	</g>
	<g>
		<path class="st1" d="M2670.28,853.56c-289.08-5.65-449.5,199.57-449.51,415.65c0,216.09,160.41,421.31,449.51,415.67
			c289.08,5.65,449.5-199.57,449.51-415.65C3119.79,1053.14,2959.37,847.92,2670.28,853.56z M2670.28,1440.22
			c-98.47,0-178.29-76.56-178.29-171s79.83-171,178.29-171c98.47,0,178.29,76.56,178.29,171S2768.74,1440.22,2670.28,1440.22z"/>
	</g>
	<g>
		<path class="st1" d="M413.96,254h104.67v422.49c0,78.74,63.83,142.57,142.57,142.57l0,0c78.74,0,142.57-63.83,142.57-142.57V254
			h91.32c67.59,0,122.38-54.79,122.38-122.38S962.68,9.25,895.09,9.25H413.96c-67.59,0-122.37,54.79-122.37,122.38
			S346.38,254,413.96,254z"/>
	</g>
	<g>
		<path class="st1" d="M603.5,884.44H122.38C54.79,884.44,0,939.23,0,1006.81s54.79,122.37,122.38,122.37h104.67v422.49
			c0,78.74,63.83,142.57,142.57,142.57c78.74,0,142.57-63.83,142.57-142.57v-422.49h91.32c67.59,0,122.38-54.79,122.38-122.37
			S671.09,884.44,603.5,884.44z"/>
	</g>
	<g>
		<path class="st1" d="M2259.41,1006.81c0-67.59-54.79-122.38-122.38-122.38h-481.12c-67.59,0-122.38,54.79-122.38,122.38
			s54.79,122.37,122.38,122.37h104.67v422.49c0,78.74,63.83,142.57,142.57,142.57s142.57-63.83,142.57-142.57v-422.49h91.32
			C2204.62,1129.18,2259.41,1074.4,2259.41,1006.81z"/>
	</g>
	<g>
		<path class="st1" d="M1360.02,891.61c-78.74,0-142.57,63.83-142.57,142.57v323.72h0.01c0,21.07-4.2,40.3-12.26,56.53
			c-30.89,62.18-116.95,62.59-147.13,0.07c-7.69-15.93-11.69-35.01-11.69-56.59v-323.72c0-78.74-63.83-142.57-142.57-142.57
			c-78.74,0-142.57,63.83-142.57,142.57v323.72h0.01c8.29,247.11,197.21,348.31,370.67,348.31s362.37-101.2,370.67-348.31v-323.72
			C1502.58,955.44,1438.75,891.61,1360.02,891.61z"/>
	</g>
</g>
</svg>
