<?xml version="1.0" encoding="utf-8"?>
<!-- Generator: Adobe Illustrator 26.5.0, SVG Export Plug-In . SVG Version: 6.00 Build 0)  -->
<svg version="1.1" id="Layer_1" xmlns="http://www.w3.org/2000/svg" xmlns:xlink="http://www.w3.org/1999/xlink" x="0px" y="0px"
	 viewBox="0 0 2237.8 2199" style="enable-background:new 0 0 2237.8 2199;" xml:space="preserve">
<style type="text/css">
	.st0{display:none;}
	.st1{display:inline;}
	.st2{fill:none;stroke:#231F20;stroke-width:1.9023;stroke-miterlimit:10;}
	.st3{fill:#3E96FF;}
	.st4{fill:#FF3C22;}
	.st5{fill:#3C8929;}
	.st6{fill:#FFC200;}
	.st7{font-family:'TimesNewRomanPSMT';}
	.st8{font-size:126.9713px;}
	.st9{letter-spacing:-8.4;}
	.st10{letter-spacing:-11.2;}
	.st11{letter-spacing:-5.6;}
	.st12{letter-spacing:-12.6;}
	.st13{fill:none;stroke:#231F20;stroke-width:1.2267;stroke-miterlimit:10;}
	.st14{fill:none;stroke:#231F20;stroke-width:1.6305;stroke-miterlimit:10;}
	.st15{fill:none;stroke:#231F20;stroke-width:1.5509;stroke-miterlimit:10;}
	.st16{fill:none;stroke:#231F20;stroke-width:4.1843;stroke-miterlimit:10;}
	.st17{fill:none;stroke:#231F20;stroke-width:4.3996;stroke-miterlimit:10;}
	.st18{fill:none;stroke:#231F20;stroke-width:3.8067;stroke-miterlimit:10;}
	.st19{fill:#FFFFFF;}
</style>
<g class="st0">
	<g class="st1">
		<g>
			<g>
				<path d="M1395.7-458.9c-39.1-15.6-86-21.6-133.8-22.1L1106.6-92.1c47.8,0.5,94.7,6.5,133.8,22.1
					c64.6,25.8,104.7,59.9,129.3,89.7L1525-369.2C1500.4-399,1460.3-433.1,1395.7-458.9z"/>
			</g>
		</g>
		<text transform="matrix(0 -0.7146 1 0 758.1523 280.2477)"><tspan x="0" y="0" class="st7 st8 st9">M</tspan><tspan x="104.1" y="0" class="st7 st8 st10">i</tspan><tspan x="128.1" y="0" class="st7 st8 st11">c</tspan><tspan x="178.2" y="0" class="st7 st8 st9">ro</tspan><tspan x="266.5" y="0" class="st7 st8 st11">s</tspan><tspan x="309.7" y="0" class="st7 st8 st12">o</tspan><tspan x="359.3" y="0" class="st7 st8 st9">ft.</tspan></text>
		<path d="M1681,7.2v105.1h-3.8c-1.4-24.4-6.6-52.4-13.7-69.2c-7.1-16.7-17-24.6-26.8-24.6c-7.1,0-23.7,12.3-23.7,61.8
			c0,21.6,4.3,39.9,27.7,64.4c23.8,25,46.5,36.3,46.5,114.5c0,38.1-19.6,87-45.2,87c-21.1,0-30.4-15.9-34.5-15.9
			c-3.7,0-6.5,5.6-8.4,16.7h-3.8V240h3.8c0,29.5,13.9,94.6,41.1,94.6c18.7,0,26.4-41.4,26.4-56.2c0-25.4-2-54.5-31.3-81.5
			c-26.5-24.5-40.7-45.7-40.7-99.6c0-41,14-90.6,41.6-90.6c10.8,0,15.1,4.5,25.7,13.6c2.7,2.4,5.1,3.6,7.1,3.6
			c3.6,0,6.3-5.6,8.1-16.7H1681z"/>
		<path d="M1215.2,10.7h-37.7l-0.4,16.7h-13v294h5.5l-0.5,18.1h46.2c75.5,0,76.5-164.3,76.5-164.3S1290.6,10.7,1215.2,10.7z
			 M1205.2,329.9c0,0-12.7-0.6-12.7-4.6V24.7c0-4,12.7-4.6,12.7-4.6c59.2,0,58.6,152.9,58.6,152.9v4
			C1263.8,177,1264.4,329.9,1205.2,329.9z"/>
		<path d="M1163.9,308.1c0,0-0.5,26.6-17,26.6v4.7h36.1v-27.1"/>
		<path d="M1163.9,41.9c0,0-0.5-26.6-17-26.6v-4.7h36.1v27.1"/>
		<path d="M1133.2,41.9c0,0-2.3-26.6-18.8-26.6v-4.7h24.1v27.1"/>
		<path d="M1029.6,43c0,0-6.2-27.6-22.7-27.6v-4.7h24.1v27.1"/>
		<path d="M1141.8,41.9c0,0,2.3-26.6,18.8-26.6v-4.7h-24.1v27.1"/>
		<g>
			<path d="M975.1,41.9c0-7.6,1-26.6-13.2-26.6l0-4.7H986v27.1"/>
			<path d="M1002.9,41.9c0-7.6-1-26.6,13.2-26.6l0-4.7H992v27.1"/>
		</g>
		<g>
			<path d="M1002.9,308.1c0,7.6-1,26.6,13.2,26.6l0,4.7H992v-27.1"/>
			<path d="M975.1,308.1c0,7.6,1,26.6-13.2,26.6l0,4.7H986v-27.1"/>
		</g>
		<rect x="1133.2" y="32.5" width="8.6" height="310.7"/>
		<g>
			<path d="M1038.2,308.1c0,0,2.3,26.6,18.8,26.6v4.7h-24.1v-27.1"/>
			<path d="M1029.6,308.1c0,0-2.3,26.6-18.8,26.6v4.7h24.1v-27.1"/>
			<rect x="1029.6" y="10.7" transform="matrix(-1 -1.224647e-16 1.224647e-16 -1 2067.8479 329.403)" width="8.6" height="308"/>
		</g>
		<polygon points="1050.4,10.7 1031.2,10.7 1029.6,15.6 1029.6,43 1133.2,343.2 1141.8,316.2 1141.8,275.6 		"/>
		<rect x="975.1" y="10.7" width="27.9" height="328.7"/>
		<path d="M1417.4,55.5c-14.3-33.5-31.3-46-51.1-46.4c-19.8,0.4-36.8,12.9-51.1,46.4c-14,33-23,74.6-23.6,121.4
			c0.6,46.8,9.5,88.4,23.6,121.4c14.3,33.5,31.3,46,51.1,46.4c19.8-0.4,36.8-12.9,51.1-46.4c14-33,23-74.6,23.6-121.4
			C1440.4,130.2,1431.4,88.5,1417.4,55.5z M1370,336.6c-2.3,1-5,1-7.3,0c-18.7-7.7-40.2-58.9-40.5-159.6
			c0.3-100.8,21.8-151.9,40.5-159.6c2.3-1,5-1,7.3,0c18.7,7.7,40.2,58.9,40.5,159.6C1410.2,277.7,1388.6,328.9,1370,336.6z"/>
		<g>
			<g>
				<polygon points="1546.5,345.2 1597.3,17 1589.6,17.7 1539,345.2 				"/>
				<polygon points="1478.2,345.2 1523.6,51.7 1516.1,51.7 1470.7,345.2 				"/>
			</g>
			<g>
				<g>
					<g>
						<path d="M1498.1,41.5c-2.3-16.2-6.8-26.1-18.5-26.1l0-4.7h24.1v27.1"/>
						<path d="M1526.3,41.9c-1.6-12.4-5.2-26.6,9.3-26.6l0-4.7h-24.1v27.1"/>
						<polyline points="1524.1,24.4 1556.8,278.4 1546.5,345.2 1539,345.2 1495.8,25.3 						"/>
					</g>
					<g>
						<path d="M1592.5,47.8c3-19.2,8.7-32.5,19.4-32.5l0-4.7h-24.1v27.1"/>
						<path d="M1584.2,52.9c2.7-17.3,0.1-37.6-13.9-37.6l0-4.7h24.1v27.1"/>
					</g>
				</g>
				<g>
					<path d="M1429.9,41.5c-2.3-16.2-6.8-26.1-18.5-26.1l0-4.7h24.1v27.1"/>
					<path d="M1458.1,41.9c-1.6-12.4-5.2-26.6,9.3-26.6l0-4.7h-24.1v27.1"/>
					<polyline points="1455.8,24.4 1488.6,278.4 1478.2,345.2 1470.7,345.2 1427.6,25.3 					"/>
				</g>
				<rect x="1501.6" y="10.7" width="13.1" height="23.2"/>
				<rect x="1433.9" y="10.7" width="13.1" height="23.2"/>
			</g>
		</g>
		<g>
			<g>
				<polygon points="910.2,345.2 969.5,-38.2 960.5,-37.4 901.4,345.2 				"/>
				<polygon points="830.4,345.2 883.4,2.4 874.6,2.4 821.6,345.2 				"/>
			</g>
			<g>
				<g>
					<g>
						<polyline points="884,-29.5 922.3,267.2 910.2,345.2 901.4,345.2 851,-28.6 						"/>
					</g>
					<g>
						<path d="M954.2,3.7c3.1-20.2,0.1-43.9-16.3-43.9l0-5.4h28.2v31.7"/>
					</g>
				</g>
				<g>
					<polyline points="804.2,-29.5 842.5,267.2 830.4,345.2 821.6,345.2 771.2,-28.6 					"/>
				</g>
			</g>
		</g>
	</g>
	<g class="st1">
		<g>
			<g>
				<polygon points="530.7,1201.1 541,1175.3 541,1175.3 577.5,1174.5 567.2,1200.3 				"/>
				<polygon points="453.5,1129.5 448.4,1142.1 468.6,1141.7 473.6,1129 				"/>
				<polygon points="439.9,1119.5 444.3,1108.6 429,1108.9 424.6,1119.8 				"/>
				<polygon points="476.5,1150.2 470.4,1165.6 496.6,1165 502.7,1149.6 				"/>
				<polygon points="498.8,1182.3 506.6,1162.8 538.9,1162.1 531.1,1181.6 				"/>
			</g>
			<g>
				<polygon points="573.8,1093.3 610.2,1092.5 620.6,1066.7 584.1,1067.5 				"/>
				<polygon points="511.6,1033.9 516.7,1021.2 496.5,1021.7 491.5,1034.3 				"/>
				<polygon points="467.7,1012.1 472.1,1001.1 487.4,1000.8 483,1011.7 				"/>
				<polygon points="539.6,1057.2 545.8,1041.8 519.6,1042.4 513.4,1057.8 				"/>
				<polygon points="549.7,1055 541.9,1074.6 574.1,1073.8 582,1054.3 				"/>
			</g>
			<g>
				<g>
					<polygon class="st3" points="602.3,1106.7 571.5,1107.4 562.8,1129.1 593.8,1128.1 					"/>
				</g>
				<polygon class="st3" points="478.6,1072 483.2,1060.7 499.4,1060.3 494.8,1071.7 				"/>
				<polygon class="st3" points="458.5,1039 454.5,1048.8 466.7,1048.6 470.6,1038.8 				"/>
				<polygon class="st3" points="501.7,1094.9 507.2,1081.2 528.5,1080.8 523.1,1094.4 				"/>
				<polygon class="st3" points="564.6,1094.2 557.6,1111.9 529.8,1112.5 536.9,1094.8 				"/>
			</g>
			<g>
				<polygon class="st3" points="549,1163.7 557.7,1142 588.5,1141.3 579.8,1163 				"/>
				<polygon class="st3" points="485.5,1094.9 481,1106.3 464.8,1106.6 469.4,1095.3 				"/>
				<polygon class="st3" points="452.8,1083.1 456.8,1073.3 444.6,1073.6 440.7,1083.4 				"/>
				<polygon class="st3" points="487.9,1129.5 493.4,1115.8 514.7,1115.4 509.2,1129 				"/>
				<polygon class="st3" points="550.8,1128.8 543.8,1146.4 516,1147.1 523,1129.4 				"/>
			</g>
			<g>
				<polygon class="st4" points="631.6,1033.5 622.9,1055.2 592,1055.9 600.7,1034.2 				"/>
				<polygon class="st4" points="507.9,998.8 512.4,987.5 528.6,987.1 524.1,998.5 				"/>
				<polygon class="st4" points="483.8,975.6 487.7,965.8 499.8,965.5 495.9,975.3 				"/>
				<polygon class="st4" points="531,1021.7 536.4,1008 557.8,1007.6 552.3,1021.2 				"/>
				<polygon class="st4" points="593.9,1021 586.8,1038.7 559,1039.3 566.1,1021.6 				"/>
			</g>
			<g>
				<polygon class="st4" points="614.6,999.5 605.9,1021.3 636.7,1020.6 645.4,998.8 				"/>
				<polygon class="st4" points="521.7,964.2 526.3,952.8 542.4,952.4 537.9,963.8 				"/>
				<polygon class="st4" points="497.6,941 501.6,931.2 513.7,930.9 509.8,940.7 				"/>
				<polygon class="st4" points="544.8,987 550.3,973.4 571.6,972.9 566.1,986.6 				"/>
				<polygon class="st4" points="607.7,986.4 600.7,1004 572.9,1004.6 579.9,987 				"/>
			</g>
			<g>
				<g>
					<polygon points="663.7,958.8 653.3,984.7 616.8,985.5 627.2,959.6 					"/>
					<polygon points="554.7,926 559.8,913.4 539.6,913.8 534.6,926.4 					"/>
					<polygon points="515.2,893.2 510.8,904.2 526.1,903.9 530.5,892.9 					"/>
					<polygon points="556.5,949.9 562.7,934.5 588.9,933.9 582.7,949.3 					"/>
					<polygon points="592.8,947.1 585,966.7 617.2,966 625.1,946.4 					"/>
				</g>
			</g>
			<g>
				<polygon points="649.3,1106.2 610.1,1106.9 597.8,1137.5 637.1,1136.8 				"/>
				<polygon points="623.1,1171.8 635.3,1141.2 596.1,1142 583.8,1172.5 				"/>
				<path d="M582.1,1177l-14.5,36.3c13-1.1,26.3-1.7,39.6-1.7l14.1-35.3L582.1,1177z"/>
				<polygon points="611.8,1102.5 624,1071.9 663.3,1071.2 651.1,1101.7 				"/>
				<polygon points="665.1,1066.7 625.8,1067.4 638,1036.9 677.3,1036.1 				"/>
				<polygon points="679.1,1031.7 639.8,1032.4 652,1001.8 691.3,1001.1 				"/>
				<path d="M693,996.6l14.3-35.9c-13.3,0-26.6,0.7-39.6,1.7l-13.9,34.9L693,996.6z"/>
				<path d="M798.1,975.1c-25.2-10.1-55.5-13.9-86.3-14.3l-100.2,250.8c30.8,0.3,61.1,4.2,86.3,14.3c41.7,16.6,67.5,38.6,83.4,57.9
					l100.2-250.8C865.6,1013.7,839.8,991.7,798.1,975.1z"/>
			</g>
			<g>
				<path class="st5" d="M808.2,1120.5c-14.7-13.1-33.1-24.1-55.1-32.9c-0.1,0-0.1,0-0.2-0.1l31.8-79.5c0.1,0,0.1,0,0.2,0.1
					c22,8.8,40.4,19.8,55.1,32.9L808.2,1120.5z"/>
				<path class="st4" d="M697.6,996.5l-31.7,79.5c25.3-0.6,47.5,1.1,66,5.2l0.4-1l31.4-78.5C745.1,997.6,722.9,995.8,697.6,996.5z"
					/>
				<path class="st6" d="M744.8,1108.1c0.1,0,0.1,0,0.2,0.1c22,8.8,40.4,19.8,55.1,32.9l-32.7,81.9c-16.6-11.7-35.3-21.7-56.2-30.1
					c-0.1,0-0.1,0-0.2-0.1L744.8,1108.1z"/>
				<path class="st3" d="M657.6,1096.5l-31.9,79.9c23.8,1.1,45.3,4.2,64.3,9.4l1.3-3.4l32.2-80.7
					C705.2,1097.7,682.9,1095.9,657.6,1096.5z"/>
			</g>
		</g>
		<text transform="matrix(0 -0.7146 1 0 990.749 1218.7252)"><tspan x="0" y="0" class="st7 st8 st9">M</tspan><tspan x="104.1" y="0" class="st7 st8 st10">i</tspan><tspan x="128.1" y="0" class="st7 st8 st11">c</tspan><tspan x="178.2" y="0" class="st7 st8 st9">ro</tspan><tspan x="266.5" y="0" class="st7 st8 st11">s</tspan><tspan x="309.7" y="0" class="st7 st8 st12">o</tspan><tspan x="359.3" y="0" class="st7 st8 st9">ft.</tspan></text>
		<path d="M1913.6,945.7v105.1h-3.8c-1.4-24.4-6.6-52.4-13.7-69.2c-7.1-16.7-17-24.6-26.8-24.6c-7.1,0-23.7,12.3-23.7,61.8
			c0,21.6,4.3,39.9,27.7,64.4c23.8,25,46.5,36.3,46.5,114.5c0,38.1-19.6,87-45.2,87c-21.1,0-30.4-15.9-34.5-15.9
			c-3.7,0-6.5,5.6-8.4,16.7h-3.8v-107.2h3.8c0,29.5,13.9,94.6,41.1,94.6c18.7,0,26.4-41.4,26.4-56.2c0-25.4-2-54.5-31.3-81.5
			c-26.5-24.5-40.7-45.7-40.7-99.6c0-41,14-90.6,41.6-90.6c10.8,0,15.1,4.5,25.7,13.6c2.7,2.4,5.1,3.6,7.1,3.6
			c3.6,0,6.3-5.6,8.1-16.7H1913.6z"/>
		<path d="M1447.8,949.2H1410l-0.4,16.7h-13v294h5.5l-0.5,18.1h46.2c75.5,0,76.5-164.3,76.5-164.3S1523.2,949.2,1447.8,949.2z
			 M1437.8,1268.4c0,0-12.7-0.6-12.7-4.6V963.2c0-4,12.7-4.6,12.7-4.6c59.2,0,58.6,152.9,58.6,152.9v4
			C1496.4,1115.5,1497,1268.4,1437.8,1268.4z"/>
		<path d="M1396.5,1246.6c0,0-0.5,26.6-17,26.6v4.7h36.1v-27.1"/>
		<path d="M1396.5,980.4c0,0-0.5-26.6-17-26.6v-4.7h36.1v27.1"/>
		<path d="M1365.8,980.4c0,0-2.3-26.6-18.8-26.6v-4.7h24.1v27.1"/>
		<path d="M1262.2,981.4c0,0-6.2-27.6-22.7-27.6v-4.7h24.1v27.1"/>
		<path d="M1374.4,980.4c0,0,2.3-26.6,18.8-26.6v-4.7h-24.1v27.1"/>
		<g>
			<path d="M1207.7,980.4c0-7.6,1-26.6-13.2-26.6v-4.7h24.1v27.1"/>
			<path d="M1235.5,980.4c0-7.6-1-26.6,13.2-26.6v-4.7h-24.1v27.1"/>
		</g>
		<g>
			<path d="M1235.5,1246.6c0,7.6-1,26.6,13.2,26.6v4.7h-24.1v-27.1"/>
			<path d="M1207.7,1246.6c0,7.6,1,26.6-13.2,26.6v4.7h24.1v-27.1"/>
		</g>
		<rect x="1365.8" y="970.9" width="8.6" height="310.7"/>
		<g>
			<path d="M1270.8,1246.6c0,0,2.3,26.6,18.8,26.6v4.7h-24.1v-27.1"/>
			<path d="M1262.2,1246.6c0,0-2.3,26.6-18.8,26.6v4.7h24.1v-27.1"/>
			
				<rect x="1262.2" y="949.2" transform="matrix(-1 -1.224647e-16 1.224647e-16 -1 2533.0435 2206.3584)" width="8.6" height="308"/>
		</g>
		<polygon points="1283,949.2 1263.8,949.2 1262.2,954.1 1262.2,981.4 1365.8,1281.7 1374.4,1254.7 1374.4,1214.1 		"/>
		<rect x="1207.7" y="949.2" width="27.9" height="328.7"/>
		<path d="M1650,994c-14.3-33.5-31.3-46-51.1-46.4c-19.8,0.4-36.8,12.9-51.1,46.4c-14,33-23,74.6-23.6,121.4
			c0.6,46.8,9.5,88.4,23.6,121.4c14.3,33.5,31.3,46,51.1,46.4c19.8-0.4,36.8-12.9,51.1-46.4c14-33,23-74.6,23.6-121.4
			C1673,1068.6,1664,1027,1650,994z M1602.6,1275c-2.3,1-5,1-7.3,0c-18.7-7.7-40.2-58.9-40.5-159.6c0.3-100.8,21.8-151.9,40.5-159.6
			c2.3-1,5-1,7.3,0c18.7,7.7,40.2,58.9,40.5,159.6C1642.8,1216.2,1621.2,1267.3,1602.6,1275z"/>
		<g>
			<g>
				<polygon points="1779.1,1283.7 1829.9,955.5 1822.2,956.2 1771.6,1283.7 				"/>
				<polygon points="1710.8,1283.7 1756.2,990.2 1748.7,990.2 1703.3,1283.7 				"/>
			</g>
			<g>
				<g>
					<g>
						<path d="M1730.7,979.9c-2.3-16.2-6.8-26.1-18.5-26.1l0-4.7h24.1v27.1"/>
						<path d="M1758.9,980.4c-1.6-12.4-5.2-26.6,9.3-26.6l0-4.7h-24.1v27.1"/>
						<polyline points="1756.7,962.9 1789.4,1216.9 1779.1,1283.7 1771.6,1283.7 1728.4,963.7 						"/>
					</g>
					<g>
						<path d="M1825.1,986.3c3-19.2,8.7-32.5,19.4-32.5l0-4.7h-24.1v27.1"/>
						<path d="M1816.8,991.4c2.7-17.3,0.1-37.6-13.9-37.6l0-4.7h24.1v27.1"/>
					</g>
				</g>
				<g>
					<path d="M1662.5,979.9c-2.3-16.2-6.8-26.1-18.5-26.1l0-4.7h24.1v27.1"/>
					<path d="M1690.7,980.4c-1.6-12.4-5.2-26.6,9.3-26.6l0-4.7h-24.1v27.1"/>
					<polyline points="1688.4,962.9 1721.2,1216.9 1710.8,1283.7 1703.3,1283.7 1660.2,963.7 					"/>
				</g>
				<rect x="1734.2" y="949.2" width="13.1" height="23.2"/>
				<rect x="1666.5" y="949.2" width="13.1" height="23.2"/>
			</g>
		</g>
		<g>
			<g>
				<polygon points="1142.8,1283.7 1202.1,900.3 1193.1,901.1 1134,1283.7 				"/>
				<polygon points="1063,1283.7 1116,940.9 1107.2,940.9 1054.2,1283.7 				"/>
			</g>
			<g>
				<g>
					<g>
						<path d="M1086.3,928.8c-2.7-18.9-7.9-30.5-21.6-30.5l0-5.4h28.2v31.7"/>
						<path d="M1119.2,929.4c-1.9-14.5-6.1-31.1,10.9-31.1l0-5.4H1102v31.7"/>
						<polyline points="1116.6,909 1154.9,1205.7 1142.8,1283.7 1134,1283.7 1083.6,909.9 						"/>
					</g>
					<g>
						<path d="M1196.5,936.3c3.5-22.4,10.1-37.9,22.7-37.9l0-5.4H1191v31.7"/>
						<path d="M1186.8,942.2c3.1-20.2,0.1-43.9-16.3-43.9l0-5.4h28.2v31.7"/>
					</g>
				</g>
				<g>
					<path d="M1006.5,928.8c-2.7-18.9-7.9-30.5-21.6-30.5l0-5.4h28.2v31.7"/>
					<path d="M1039.5,929.4c-1.9-14.5-6.1-31.1,10.9-31.1l0-5.4h-28.2v31.7"/>
					<polyline points="1036.8,909 1075.1,1205.7 1063,1283.7 1054.2,1283.7 1003.8,909.9 					"/>
				</g>
				<rect x="1090.3" y="892.9" width="15.2" height="27"/>
				<rect x="1011.2" y="892.9" width="15.2" height="27"/>
			</g>
		</g>
		<g>
			<g>
				<path d="M1990.1,1204.9v-3.1c17-2.6,29.7-7.7,38.1-15.2c6.1-5.3,9.1-11.7,9.1-19.1c0-5.6-1.8-10.2-5.3-13.8
					c-3.5-3.6-7.8-5.4-12.8-5.4c-7.9,0-14.9,4.9-21,14.7l-3.9-1.2c3.7-8.2,8.4-14.3,14.1-18.5c5.7-4.2,12-6.3,18.9-6.3
					c8.3,0,15,2.5,20.2,7.4c5.1,5,7.7,11.2,7.7,18.9c0,6.5-2.4,12.7-7.2,18.7c-4.8,6-13.1,11.3-24.9,16.1c7.3,3,12.8,7.4,16.6,13
					c3.7,5.7,5.6,12.5,5.6,20.4c0,8.8-2.5,17.6-7.6,26.5c-5.1,8.8-12,15.7-20.9,20.5c-8.8,4.8-18.1,7.2-27.8,7.2
					c-8.9,0-15.6-1.5-20.2-4.6c-3-2.1-4.5-4.6-4.5-7.4c0-2.5,0.9-4.6,2.7-6.3c1.8-1.8,4-2.6,6.6-2.6c1.8,0,3.7,0.3,5.5,0.8
					c1.1,0.4,3.9,1.8,8.3,4.2c4.4,2.5,7.8,4.1,10.3,4.9c2.5,0.8,5,1.2,7.6,1.2c6.3,0,11.6-3.7,15.7-11c4.1-7.4,6.2-15.2,6.2-23.5
					c0-6.8-1.4-12.8-4.2-18.1c-2.8-5.3-7.2-9.6-13.1-12.8C2003.8,1207.1,1997.3,1205.3,1990.1,1204.9z"/>
				<path d="M2058.6,1264.2c3,0,5.6,1,7.7,3.1c2.1,2.1,3.1,4.6,3.1,7.6c0,3-1.1,5.5-3.2,7.6c-2.1,2.1-4.6,3.1-7.6,3.1
					c-3,0-5.5-1-7.6-3.1c-2.1-2.1-3.1-4.6-3.1-7.6c0-3,1-5.5,3.1-7.6C2053.1,1265.3,2055.7,1264.2,2058.6,1264.2z"/>
				<path d="M2129.1,1187.5c3.4,3.7,6.1,7.3,7.8,11c1.3,2.5,3.3,9.2,6.2,20l9.3-13.9c2.5-3.4,5.5-6.6,9-9.7c3.5-3.1,6.6-5.2,9.3-6.3
					c1.7-0.7,3.6-1.1,5.6-1.1c3,0,5.4,0.8,7.2,2.4c1.8,1.6,2.7,3.6,2.7,5.9c0,2.7-0.5,4.5-1.6,5.5c-2,1.8-4.2,2.6-6.8,2.6
					c-1.5,0-3.1-0.3-4.8-1c-3.3-1.1-5.5-1.7-6.7-1.7c-1.7,0-3.7,1-6,3c-4.4,3.7-9.6,10.7-15.6,21.2l8.7,36.3c1.3,5.6,2.5,8.9,3.4,10
					c0.9,1.1,1.8,1.6,2.7,1.6c1.5,0,3.2-0.8,5.2-2.4c3.9-3.2,7.2-7.5,9.9-12.7l3.7,1.9c-4.4,8.3-10.1,15.2-16.9,20.7
					c-3.9,3.1-7.1,4.6-9.8,4.6c-3.9,0-7.1-2.2-9.4-6.7c-1.5-2.7-4.5-14.6-9.2-35.5c-11,19.1-19.8,31.4-26.4,36.9
					c-4.3,3.5-8.4,5.3-12.5,5.3c-2.8,0-5.4-1-7.7-3.1c-1.7-1.5-2.5-3.6-2.5-6.2c0-2.3,0.8-4.3,2.3-5.8c1.5-1.5,3.5-2.3,5.7-2.3
					c2.3,0,4.6,1.1,7.2,3.4c1.8,1.6,3.2,2.4,4.2,2.4c0.8,0,1.9-0.6,3.3-1.7c3.3-2.7,7.8-8.4,13.5-17.3c5.7-8.9,9.4-15.3,11.2-19.2
					c-4.4-17.1-6.7-26.2-7.1-27.1c-1.6-4.6-3.7-7.8-6.3-9.7c-2.6-1.9-6.4-2.9-11.5-2.9c-1.6,0-3.5,0.1-5.6,0.2v-3.8L2129.1,1187.5z"
					/>
			</g>
		</g>
	</g>
	<g class="st1">
		<g>
			<g>
				<polygon class="st4" points="282.5,2206.2 287.7,2193.1 303.8,2192.8 298.6,2205.8 				"/>
			</g>
			<g>
				<polygon class="st4" points="333,2191 339,2175.8 360.5,2175.4 354.5,2190.5 				"/>
				<polygon class="st4" points="300.9,2160.1 306.1,2147.1 322.2,2146.7 317,2159.7 				"/>
			</g>
			<g>
				<g>
					<polygon points="521.6,2183.8 507.9,2218.2 459.4,2219.2 473.1,2184.9 					"/>
					<polygon points="376.8,2140.2 383.5,2123.4 356.7,2124 350,2140.8 					"/>
					<polygon points="324.2,2096.7 318.4,2111.2 338.7,2110.8 344.6,2096.2 					"/>
					<polygon points="379.2,2172 387.4,2151.5 422.2,2150.7 414,2171.2 					"/>
					<polygon points="427.4,2168.3 417,2194.3 459.9,2193.3 470.3,2167.3 					"/>
				</g>
			</g>
			<g>
				<path d="M560.7,2234.1l19-47.7c-17.6,0-35.4,0.9-52.7,2.3l-18.5,46.3L560.7,2234.1z"/>
				<path d="M700.3,2205.4c-33.5-13.4-73.7-18.5-114.6-19l-133.2,333.4c40.9,0.4,81.2,5.6,114.6,19c55.4,22.1,89.8,51.3,110.8,76.9
					l133.2-333.4C790.1,2256.7,755.7,2227.5,700.3,2205.4z"/>
			</g>
		</g>
	</g>
</g>
<g>
	<g>
		<g>
			<path class="st19" d="M684.2,1111.3c-6.5,0-12.7-3.2-16.4-8.6c-3.8-5.5-4.6-12.6-2.1-18.8l35.2-88.2c3-7.4,10.1-12.4,18.1-12.6
				l124.5-2.7c0.1,0,0.3,0,0.4,0c6.5,0,12.7,3.2,16.4,8.6c3.8,5.5,4.6,12.6,2.1,18.8l-35.2,88.2c-3,7.4-10.1,12.4-18.1,12.6
				l-124.5,2.7C684.5,1111.3,684.3,1111.3,684.2,1111.3z"/>
			<path class="st19" d="M843.9,1000.4L843.9,1000.4 M843.9,1000.4l-35.2,88.2l-124.5,2.7l35.2-88.2L843.9,1000.4 M843.9,960.4
				L843.9,960.4c-0.4,0-0.7,0-1,0l-124.3,2.7c-16,0.4-30.3,10.3-36.3,25.2l-35.2,88.2c-5,12.5-3.4,26.6,4.3,37.6
				c7.5,10.8,19.8,17.2,32.9,17.2c0.3,0,0.6,0,0.9,0l124.5-2.7c16-0.4,30.3-10.3,36.3-25.2l34.8-87.2c2.1-4.8,3.2-10.2,3.2-15.8
				C883.9,978.3,866,960.4,843.9,960.4L843.9,960.4z M843.9,1040.4L843.9,1040.4L843.9,1040.4L843.9,1040.4z"/>
		</g>
		<g>
			<path class="st19" d="M403.5,910.1c-6.5,0-12.7-3.2-16.4-8.6c-3.8-5.5-4.6-12.6-2.1-18.8l17.2-43.1c3-7.4,10.1-12.4,18.1-12.6
				l68.8-1.5c0.1,0,0.3,0,0.4,0c6.5,0,12.7,3.2,16.4,8.6c3.8,5.5,4.6,12.6,2.1,18.8L490.8,896c-3,7.4-10.1,12.4-18.1,12.6l-68.8,1.5
				C403.8,910.1,403.6,910.1,403.5,910.1z"/>
			<path class="st19" d="M489.5,845.4L489.5,845.4 M489.5,845.4l-17.2,43.1l-68.8,1.5l17.2-43.1L489.5,845.4 M489.5,805.4
				c-0.2,0-0.3,0-0.5,0c0,0,0,0,0,0c0,0,0,0,0,0c-0.2,0-0.3,0-0.5,0l-68.7,1.5c-16,0.4-30.3,10.3-36.3,25.2l-17.2,43.1
				c-5,12.5-3.4,26.6,4.3,37.6c7.5,10.8,19.8,17.2,32.9,17.2c0.3,0,0.6,0,0.9,0l68.8-1.5c16-0.4,30.3-10.3,36.3-25.2l16.9-42.2
				c2.1-4.8,3.2-10.2,3.2-15.8c0-21.9-17.7-39.8-39.6-40C489.8,805.4,489.7,805.4,489.5,805.4L489.5,805.4z M489.5,885.4
				L489.5,885.4L489.5,885.4L489.5,885.4z"/>
		</g>
		<g>
			<path class="st19" d="M322.4,834.1c-6.5,0-12.7-3.2-16.4-8.6c-3.8-5.5-4.6-12.6-2.1-18.8l14.9-37.4c3-7.4,10.1-12.4,18.1-12.6
				l52.2-1.1c0.1,0,0.3,0,0.4,0c6.5,0,12.7,3.2,16.4,8.6c3.8,5.5,4.6,12.6,2.1,18.8l-14.9,37.4c-3,7.4-10.1,12.4-18.1,12.6
				l-52.2,1.1C322.7,834.1,322.6,834.1,322.4,834.1z"/>
			<path class="st19" d="M389.5,775.6L389.5,775.6 M389.5,775.6L374.6,813l-52.2,1.1l14.9-37.4L389.5,775.6 M389.5,735.6
				c-0.2,0-0.3,0-0.5,0c0,0,0,0,0,0c0,0,0,0,0,0c-0.2,0-0.3,0-0.5,0l-52,1.1c-16,0.4-30.3,10.3-36.3,25.2l-14.9,37.4
				c-5,12.5-3.4,26.6,4.3,37.6c7.5,10.8,19.8,17.2,32.9,17.2c0.3,0,0.6,0,0.9,0l52.2-1.1c16-0.4,30.3-10.3,36.3-25.2l14.6-36.5
				c2.1-4.8,3.2-10.2,3.2-15.8c0-21.9-17.7-39.8-39.6-40C389.8,735.6,389.7,735.6,389.5,735.6L389.5,735.6z M389.5,815.6
				L389.5,815.6L389.5,815.6L389.5,815.6z"/>
		</g>
		<g>
			<path class="st19" d="M478.4,990.1c-6.5,0-12.7-3.2-16.4-8.6c-3.8-5.5-4.6-12.6-2.1-18.8l21-52.6c3-7.4,10.1-12.4,18.1-12.6
				l89.4-2c0.1,0,0.3,0,0.4,0c6.5,0,12.7,3.2,16.4,8.6c3.8,5.5,4.6,12.6,2.1,18.8l-21,52.6c-3,7.4-10.1,12.4-18.1,12.6l-89.4,2
				C478.7,990.1,478.5,990.1,478.4,990.1z"/>
			<path class="st19" d="M588.8,915.6L588.8,915.6 M588.8,915.6l-21,52.6l-89.4,2l21-52.6L588.8,915.6 M588.8,875.6
				c-0.1,0-0.3,0-0.4,0c-0.2,0-0.4,0-0.6,0l-89.3,2c-16,0.4-30.3,10.3-36.3,25.2l-21,52.6c-5,12.5-3.4,26.6,4.3,37.6
				c7.5,10.8,19.8,17.2,32.9,17.2c0.3,0,0.6,0,0.9,0l89.4-2c16-0.4,30.3-10.3,36.3-25.2l20.6-51.7c2.1-4.8,3.2-10.2,3.2-15.8
				c0-21.9-17.7-39.8-39.6-40C589.1,875.6,589,875.6,588.8,875.6L588.8,875.6z M588.8,955.6L588.8,955.6L588.8,955.6L588.8,955.6z"
				/>
		</g>
		<g>
			<path class="st19" d="M575.4,1047.3c-6.5,0-12.7-3.2-16.4-8.6c-3.8-5.5-4.6-12.6-2.1-18.8l26.7-66.7c3-7.4,10.1-12.4,18.1-12.6
				l110.1-2.4c0.1,0,0.3,0,0.4,0c6.5,0,12.7,3.2,16.4,8.6c3.8,5.5,4.6,12.6,2.1,18.8l-26.7,66.7c-3,7.4-10.1,12.4-18.1,12.6
				l-110.1,2.4C575.7,1047.3,575.6,1047.3,575.4,1047.3z"/>
			<path class="st19" d="M712.2,958.1L712.2,958.1 M712.2,958.1l-26.7,66.7l-110.1,2.4l26.7-66.7L712.2,958.1 M712.2,918.1
				L712.2,918.1c-0.4,0-0.7,0-1,0l-109.9,2.4c-16,0.4-30.3,10.3-36.3,25.2l-26.7,66.7c-5,12.5-3.4,26.6,4.3,37.6
				c7.5,10.8,19.8,17.2,32.9,17.2c0.3,0,0.6,0,0.9,0l110.1-2.4c16-0.4,30.3-10.3,36.3-25.2l26.3-65.8c2.1-4.8,3.2-10.2,3.2-15.8
				C752.2,936,734.3,918.1,712.2,918.1L712.2,918.1z M712.2,998.1L712.2,998.1L712.2,998.1L712.2,998.1z"/>
		</g>
		<g>
			<path class="st19" d="M831.1,743.7c-6.5,0-12.7-3.2-16.4-8.6c-3.8-5.5-4.6-12.6-2.1-18.8l35.2-88.2c3-7.4,10.1-12.4,18.1-12.6
				l124.5-2.7c0.1,0,0.3,0,0.4,0c6.5,0,12.7,3.2,16.4,8.6c3.8,5.5,4.6,12.6,2.1,18.8l-35.2,88.2c-3,7.4-10.1,12.4-18.1,12.6
				l-124.5,2.7C831.4,743.7,831.2,743.7,831.1,743.7z"/>
			<path class="st19" d="M990.8,632.8L990.8,632.8 M990.8,632.8l-35.2,88.2l-124.5,2.7l35.2-88.2L990.8,632.8 M990.8,592.8
				L990.8,592.8c-0.4,0-0.7,0-1,0l-124.3,2.7c-16,0.4-30.3,10.3-36.3,25.2l-35.2,88.2c-5,12.5-3.4,26.6,4.3,37.6
				c7.5,10.8,19.8,17.2,32.9,17.2c0.3,0,0.6,0,0.9,0l124.5-2.7c16-0.4,30.3-10.3,36.3-25.2l34.8-87.2c2.1-4.8,3.2-10.2,3.2-15.8
				C1030.8,610.7,1012.8,592.8,990.8,592.8L990.8,592.8z M990.8,672.8L990.8,672.8L990.8,672.8L990.8,672.8z"/>
		</g>
		<g>
			<path class="st19" d="M550.4,542.4c-6.5,0-12.7-3.2-16.4-8.6c-3.8-5.5-4.6-12.6-2.1-18.8l17.2-43.1c3-7.4,10.1-12.4,18.1-12.6
				l68.8-1.5c0.1,0,0.3,0,0.4,0c6.5,0,12.7,3.2,16.4,8.6c3.8,5.5,4.6,12.6,2.1,18.8l-17.2,43.1c-3,7.4-10.1,12.4-18.1,12.6
				l-68.8,1.5C550.7,542.4,550.5,542.4,550.4,542.4z"/>
			<path class="st19" d="M636.4,477.7L636.4,477.7 M636.4,477.7l-17.2,43.1l-68.8,1.5l17.2-43.1L636.4,477.7 M636.4,437.7
				c-0.2,0-0.3,0-0.5,0c0,0,0,0,0,0c0,0,0,0,0,0c-0.2,0-0.3,0-0.5,0l-68.7,1.5c-16,0.4-30.3,10.3-36.3,25.2l-17.2,43.1
				c-5,12.5-3.4,26.6,4.3,37.6c7.5,10.8,19.8,17.2,32.9,17.2c0.3,0,0.6,0,0.9,0l68.8-1.5c16-0.4,30.3-10.3,36.3-25.2l16.9-42.2
				c2.1-4.8,3.2-10.2,3.2-15.8c0-21.9-17.7-39.8-39.6-40C636.7,437.7,636.5,437.7,636.4,437.7L636.4,437.7z M636.4,517.7
				L636.4,517.7L636.4,517.7L636.4,517.7z"/>
		</g>
		<g>
			<path class="st19" d="M469.3,466.5c-6.5,0-12.7-3.2-16.4-8.6c-3.8-5.5-4.6-12.6-2.1-18.8l14.9-37.4c3-7.4,10.1-12.4,18.1-12.6
				l52.2-1.1c0.1,0,0.3,0,0.4,0c6.5,0,12.7,3.2,16.4,8.6c3.8,5.5,4.6,12.6,2.1,18.8l-14.9,37.4c-3,7.4-10.1,12.4-18.1,12.6
				l-52.2,1.1C469.6,466.5,469.5,466.5,469.3,466.5z"/>
			<path class="st19" d="M536.4,407.9L536.4,407.9 M536.4,407.9l-14.9,37.4l-52.2,1.1l14.9-37.4L536.4,407.9 M536.4,367.9
				c-0.2,0-0.3,0-0.5,0c0,0,0,0,0,0c0,0,0,0,0,0c-0.2,0-0.3,0-0.5,0l-52,1.1c-16,0.4-30.3,10.3-36.3,25.2l-14.9,37.4
				c-5,12.5-3.4,26.6,4.3,37.6c7.5,10.8,19.8,17.2,32.9,17.2c0.3,0,0.6,0,0.9,0l52.2-1.1c16-0.4,30.3-10.3,36.3-25.2l14.6-36.5
				c2.1-4.8,3.2-10.2,3.2-15.8c0-21.9-17.7-39.8-39.6-40C536.7,367.9,536.6,367.9,536.4,367.9L536.4,367.9z M536.4,447.9
				L536.4,447.9L536.4,447.9L536.4,447.9z"/>
		</g>
		<g>
			<path class="st19" d="M625.3,622.4c-6.5,0-12.7-3.2-16.4-8.6c-3.8-5.5-4.6-12.6-2.1-18.8l21-52.6c3-7.4,10.1-12.4,18.1-12.6
				l89.4-2c0.1,0,0.3,0,0.4,0c6.5,0,12.7,3.2,16.4,8.6c3.8,5.5,4.6,12.6,2.1,18.8l-21,52.6c-3,7.4-10.1,12.4-18.1,12.6l-89.4,2
				C625.6,622.4,625.4,622.4,625.3,622.4z"/>
			<path class="st19" d="M735.7,547.9L735.7,547.9 M735.7,547.9l-21,52.6l-89.4,2l21-52.6L735.7,547.9 M735.7,507.9
				c-0.2,0-0.3,0-0.5,0c0,0,0,0,0,0c0,0,0,0,0,0c-0.2,0-0.3,0-0.5,0l-89.3,2c-16,0.4-30.3,10.3-36.3,25.2l-21,52.6
				c-5,12.5-3.4,26.6,4.3,37.6c7.5,10.8,19.8,17.2,32.9,17.2c0.3,0,0.6,0,0.9,0l89.4-2c16-0.4,30.3-10.3,36.3-25.2l20.6-51.7
				c2.1-4.8,3.2-10.2,3.2-15.8c0-21.9-17.7-39.8-39.6-40C736,507.9,735.9,507.9,735.7,507.9L735.7,507.9z M735.7,587.9L735.7,587.9
				L735.7,587.9L735.7,587.9z"/>
		</g>
		<g>
			<path class="st19" d="M722.3,679.6c-6.5,0-12.7-3.2-16.4-8.6c-3.8-5.5-4.6-12.6-2.1-18.8l26.7-66.7c3-7.4,10.1-12.4,18.1-12.6
				l110.1-2.4c0.1,0,0.3,0,0.4,0c6.5,0,12.7,3.2,16.4,8.6c3.8,5.5,4.6,12.6,2.1,18.8L851,664.6c-3,7.4-10.1,12.4-18.1,12.6
				l-110.1,2.4C722.6,679.6,722.4,679.6,722.3,679.6z"/>
			<path class="st19" d="M859.1,590.5L859.1,590.5 M859.1,590.5l-26.7,66.7l-110.1,2.4l26.7-66.7L859.1,590.5 M859.1,550.5
				L859.1,550.5c-0.4,0-0.7,0-1,0l-109.9,2.4c-16,0.4-30.3,10.3-36.3,25.2l-26.7,66.7c-5,12.5-3.4,26.6,4.3,37.6
				c7.5,10.8,19.8,17.2,32.9,17.2c0.3,0,0.6,0,0.9,0l110.1-2.4c16-0.4,30.3-10.3,36.3-25.2l26.3-65.8c2.1-4.8,3.2-10.2,3.2-15.8
				C899.1,568.4,881.2,550.5,859.1,550.5L859.1,550.5z M859.1,630.5L859.1,630.5L859.1,630.5L859.1,630.5z"/>
		</g>
		<g>
			<path class="st19" d="M793.8,865.6c-6.5,0-12.6-3.2-16.4-8.5c-3.9-5.5-4.7-12.6-2.2-18.9l29.6-74c3-7.4,10.1-12.4,18.1-12.6
				l105.3-2.3c0.1,0,0.3,0,0.4,0c6.5,0,12.7,3.2,16.4,8.6c3.8,5.5,4.6,12.6,2.1,18.8l-29.2,73c-3,7.4-10,12.3-18,12.6l-105.6,3.3
				C794.2,865.5,794,865.6,793.8,865.6z"/>
			<path class="st19" d="M928.6,769.3L928.6,769.3 M928.6,769.3l-29.2,73l-105.6,3.3l29.6-74L928.6,769.3 M928.6,729.3L928.6,729.3
				c-0.4,0-0.7,0-1,0l-105.1,2.3c-16,0.4-30.3,10.3-36.3,25.2l-29.6,74c-5,12.5-3.4,26.7,4.4,37.8c7.5,10.7,19.7,17.1,32.8,17.1
				c0.4,0,0.8,0,1.2,0l105.6-3.3c15.9-0.5,30-10.4,35.9-25.1l28.8-72.1c2.1-4.8,3.2-10.2,3.2-15.8
				C968.6,747.2,950.7,729.3,928.6,729.3L928.6,729.3z M928.6,809.3L928.6,809.3L928.6,809.3L928.6,809.3z"/>
		</g>
		<g>
			<path class="st19" d="M506.6,671.1c-6.5,0-12.7-3.2-16.4-8.6c-3.8-5.5-4.6-12.6-2.1-18.8l15.5-38.8c3-7.4,10.1-12.4,18.1-12.6
				l55.2-1.2c0.1,0,0.3,0,0.4,0c6.5,0,12.7,3.2,16.4,8.6c3.8,5.5,4.6,12.6,2.1,18.8l-15.5,38.8c-3,7.4-10.1,12.4-18.1,12.6
				l-55.2,1.2C506.9,671.1,506.8,671.1,506.6,671.1z"/>
			<path class="st19" d="M577.3,611.1L577.3,611.1 M577.3,611.1l-15.5,38.8l-55.2,1.2l15.5-38.8L577.3,611.1 M577.3,571.1
				c-0.2,0-0.3,0-0.5,0c0,0,0,0,0,0c0,0,0,0,0,0c-0.2,0-0.3,0-0.5,0l-55,1.2c-16,0.4-30.3,10.3-36.3,25.2l-15.5,38.8
				c-5,12.5-3.4,26.6,4.3,37.6c7.5,10.8,19.8,17.2,32.9,17.2c0.3,0,0.6,0,0.9,0l55.2-1.2c16-0.4,30.3-10.3,36.3-25.2l15.1-37.9
				c2.1-4.8,3.2-10.2,3.2-15.8c0-21.9-17.7-39.8-39.6-40C577.6,571.1,577.5,571.1,577.3,571.1L577.3,571.1z M577.3,651.1
				L577.3,651.1L577.3,651.1L577.3,651.1z"/>
		</g>
		<g>
			<path class="st19" d="M424.5,591.9c-6.5,0-12.7-3.2-16.4-8.6c-3.8-5.5-4.6-12.6-2.1-18.8l13.4-33.4c3-7.4,10.1-12.4,18.1-12.6
				l41.3-0.9c0.1,0,0.3,0,0.4,0c6.5,0,12.7,3.2,16.4,8.6c3.8,5.5,4.6,12.6,2.1,18.8l-13.3,33.4c-3,7.4-10.1,12.4-18.1,12.6
				l-41.3,0.9C424.8,591.9,424.6,591.9,424.5,591.9z"/>
			<path class="st19" d="M479.1,537.6L479.1,537.6 M479.1,537.6L465.8,571l-41.3,0.9l13.4-33.4L479.1,537.6 M479.1,497.6
				c-0.1,0-0.3,0-0.4,0c-0.2,0-0.4,0-0.6,0l-41.2,0.9c-16,0.4-30.3,10.3-36.3,25.2L387.3,557c-5,12.5-3.4,26.6,4.3,37.6
				c7.5,10.8,19.8,17.2,32.9,17.2c0.3,0,0.6,0,0.9,0l41.3-0.9c16-0.4,30.3-10.3,36.3-25.2l13-32.5c2.1-4.8,3.2-10.2,3.2-15.8
				c0-21.9-17.7-39.8-39.6-40c0,0,0,0,0,0c0,0,0,0,0,0C479.4,497.6,479.3,497.6,479.1,497.6L479.1,497.6z M479.1,577.6L479.1,577.6
				L479.1,577.6L479.1,577.6z"/>
		</g>
		<g>
			<path class="st19" d="M585.4,749c-6.5,0-12.7-3.2-16.4-8.6c-3.8-5.5-4.6-12.6-2.1-18.8l18.6-46.6c3-7.4,10.1-12.4,18.1-12.6
				l72.7-1.6c0.1,0,0.3,0,0.4,0c6.5,0,12.7,3.2,16.4,8.6c3.8,5.5,4.6,12.6,2.1,18.8l-18.6,46.6c-3,7.4-10.1,12.4-18.1,12.6
				l-72.7,1.6C585.7,749,585.6,749,585.4,749z"/>
			<path class="st19" d="M676.8,680.8L676.8,680.8 M676.8,680.8l-18.6,46.6l-72.7,1.6l18.6-46.6L676.8,680.8 M676.8,640.8
				c-0.1,0-0.3,0-0.4,0c-0.2,0-0.4,0-0.6,0l-72.6,1.6c-16,0.4-30.3,10.3-36.3,25.2l-18.6,46.6c-5,12.5-3.4,26.6,4.3,37.6
				c7.5,10.8,19.8,17.2,32.9,17.2c0.3,0,0.6,0,0.9,0l72.7-1.6c16-0.4,30.3-10.3,36.3-25.2l18.2-45.7c2.1-4.8,3.2-10.2,3.2-15.8
				c0-21.9-17.7-39.8-39.6-40C677.1,640.9,676.9,640.8,676.8,640.8L676.8,640.8z M676.8,720.8L676.8,720.8L676.8,720.8L676.8,720.8z
				"/>
		</g>
		<g>
			<path class="st19" d="M681.2,809c-6.5,0-12.7-3.2-16.4-8.6c-3.8-5.5-4.6-12.6-2.1-18.8l24-60.2c3-7.4,10.1-12.4,18.1-12.6
				l94.7-2.1c0.1,0,0.3,0,0.4,0c6.5,0,12.7,3.2,16.4,8.6c3.8,5.5,4.6,12.6,2.1,18.8l-24,60.2c-3,7.4-10.1,12.4-18.1,12.6l-94.7,2.1
				C681.4,809,681.3,809,681.2,809z"/>
			<path class="st19" d="M799.9,726.7L799.9,726.7 M799.9,726.7l-24,60.2l-94.7,2.1l24-60.2L799.9,726.7 M799.9,686.7
				c-0.2,0-0.3,0-0.5,0c0,0,0,0,0,0c0,0,0,0,0,0c-0.2,0-0.3,0-0.5,0l-94.6,2.1c-16,0.4-30.3,10.3-36.3,25.2l-24,60.2
				c-5,12.5-3.4,26.6,4.3,37.6c7.5,10.8,19.8,17.2,32.9,17.2c0.3,0,0.6,0,0.9,0l94.7-2.1c16-0.4,30.3-10.3,36.3-25.2l23.7-59.3
				c2.1-4.8,3.2-10.2,3.2-15.8c0-21.9-17.7-39.8-39.6-40C800.2,686.7,800.1,686.7,799.9,686.7L799.9,686.7z M799.9,766.7
				L799.9,766.7L799.9,766.7L799.9,766.7z"/>
		</g>
		<g>
			<path class="st19" d="M746.6,983.8c-6.5,0-12.7-3.2-16.4-8.6c-3.8-5.5-4.6-12.6-2.1-18.8l29.6-74.2c3-7.4,10.1-12.4,18.1-12.6
				l105.3-2.3c0.1,0,0.3,0,0.4,0c6.5,0,12.7,3.2,16.4,8.6c3.8,5.5,4.6,12.6,2.1,18.8l-29.6,74.2c-3,7.4-10.1,12.4-18.1,12.6
				L747,983.7C746.9,983.8,746.7,983.8,746.6,983.8z"/>
			<path class="st19" d="M881.5,887.2L881.5,887.2 M881.5,887.2l-29.6,74.2l-105.3,2.3l29.6-74.2L881.5,887.2 M881.5,847.2
				L881.5,847.2c-0.4,0-0.7,0-1,0l-105.1,2.3c-16,0.4-30.3,10.3-36.3,25.2l-29.6,74.2c-5,12.5-3.4,26.6,4.3,37.6
				c7.5,10.8,19.8,17.2,32.9,17.2c0.3,0,0.6,0,0.9,0l105.3-2.3c16-0.4,30.3-10.3,36.3-25.2l29.3-73.3c2.1-4.8,3.2-10.2,3.2-15.8
				C921.5,865.1,903.6,847.2,881.5,847.2L881.5,847.2z M881.5,927.2L881.5,927.2L881.5,927.2L881.5,927.2z"/>
		</g>
		<g>
			<path class="st19" d="M459.5,789.1c-6.5,0-12.7-3.2-16.4-8.6c-3.8-5.5-4.6-12.6-2.1-18.8l15.5-38.8c3-7.4,10.1-12.4,18.1-12.6
				l55.2-1.2c0.1,0,0.3,0,0.4,0c6.5,0,12.7,3.2,16.4,8.6c3.8,5.5,4.6,12.6,2.1,18.8l-15.5,38.8c-3,7.4-10.1,12.4-18.1,12.6
				l-55.2,1.2C459.8,789.1,459.7,789.1,459.5,789.1z"/>
			<path class="st19" d="M530.2,729L530.2,729 M530.2,729l-15.5,38.8l-55.2,1.2l15.5-38.8L530.2,729 M530.2,689c-0.2,0-0.3,0-0.5,0
				c0,0,0,0,0,0c0,0,0,0,0,0c-0.2,0-0.3,0-0.5,0l-55,1.2c-16,0.4-30.3,10.3-36.3,25.2l-15.5,38.8c-5,12.5-3.4,26.6,4.3,37.6
				c7.5,10.8,19.8,17.2,32.9,17.2c0.3,0,0.6,0,0.9,0l55.2-1.2c16-0.4,30.3-10.3,36.3-25.2l15.1-37.9c2.1-4.8,3.2-10.2,3.2-15.8
				c0-21.9-17.7-39.8-39.6-40C530.5,689,530.3,689,530.2,689L530.2,689z M530.2,769L530.2,769L530.2,769L530.2,769z"/>
		</g>
		<g>
			<path class="st19" d="M377.3,709.8c-6.5,0-12.7-3.2-16.4-8.6c-3.8-5.5-4.6-12.6-2.1-18.8l13.4-33.4c3-7.4,10.1-12.4,18.1-12.6
				l41.3-0.9c0.1,0,0.3,0,0.4,0c6.5,0,12.7,3.2,16.4,8.6c3.8,5.5,4.6,12.6,2.1,18.8l-13.3,33.4c-3,7.4-10.1,12.4-18.1,12.6
				l-41.3,0.9C377.6,709.8,377.5,709.8,377.3,709.8z"/>
			<path class="st19" d="M432,655.5L432,655.5 M432,655.5l-13.3,33.4l-41.3,0.9l13.4-33.4L432,655.5 M432,615.5c-0.1,0-0.3,0-0.4,0
				c-0.2,0-0.4,0-0.6,0l-41.2,0.9c-16,0.4-30.3,10.3-36.3,25.2L340.2,675c-5,12.5-3.4,26.6,4.3,37.6c7.5,10.8,19.8,17.2,32.9,17.2
				c0.3,0,0.6,0,0.9,0l41.3-0.9c16-0.4,30.3-10.3,36.3-25.2l13-32.5c2.1-4.8,3.2-10.2,3.2-15.8c0-21.9-17.7-39.8-39.6-40
				C432.3,615.5,432.2,615.5,432,615.5L432,615.5z M432,695.5L432,695.5L432,695.5L432,695.5z"/>
		</g>
		<g>
			<path class="st19" d="M538.3,867c-6.5,0-12.7-3.2-16.4-8.6c-3.8-5.5-4.6-12.6-2.1-18.8l18.6-46.6c3-7.4,10.1-12.4,18.1-12.6
				l72.7-1.6c0.1,0,0.3,0,0.4,0c6.5,0,12.7,3.2,16.4,8.6c3.8,5.5,4.6,12.6,2.1,18.8l-18.6,46.6c-3,7.4-10.1,12.4-18.1,12.6
				l-72.7,1.6C538.6,867,538.4,867,538.3,867z"/>
			<path class="st19" d="M629.6,798.8L629.6,798.8 M629.6,798.8L611,845.4l-72.7,1.6l18.6-46.6L629.6,798.8 M629.6,758.8
				c-0.2,0-0.3,0-0.5,0c0,0,0,0,0,0c0,0,0,0,0,0c-0.2,0-0.3,0-0.5,0l-72.6,1.6c-16,0.4-30.3,10.3-36.3,25.2l-18.6,46.6
				c-5,12.5-3.4,26.6,4.3,37.6c7.5,10.8,19.8,17.2,32.9,17.2c0.3,0,0.6,0,0.9,0l72.7-1.6c16-0.4,30.3-10.3,36.3-25.2l18.2-45.7
				c2.1-4.8,3.2-10.2,3.2-15.8c0-21.9-17.7-39.8-39.6-40C629.9,758.8,629.8,758.8,629.6,758.8L629.6,758.8z M629.6,838.8
				L629.6,838.8L629.6,838.8L629.6,838.8z"/>
		</g>
		<g>
			<path class="st19" d="M634,927c-6.5,0-12.7-3.2-16.4-8.6c-3.8-5.5-4.6-12.6-2.1-18.8l24-60.2c3-7.4,10.1-12.4,18.1-12.6l94.7-2.1
				c0.1,0,0.3,0,0.4,0c6.5,0,12.7,3.2,16.4,8.6c3.8,5.5,4.6,12.6,2.1,18.8l-24,60.2c-3,7.4-10.1,12.4-18.1,12.6l-94.7,2.1
				C634.3,927,634.2,927,634,927z"/>
			<path class="st19" d="M752.8,844.7L752.8,844.7 M752.8,844.7l-24,60.2L634,907l24-60.2L752.8,844.7 M752.8,804.7
				c-0.2,0-0.3,0-0.5,0c0,0,0,0,0,0c0,0,0,0,0,0c-0.2,0-0.3,0-0.5,0l-94.6,2.1c-16,0.4-30.3,10.3-36.3,25.2l-24,60.2
				c-5,12.5-3.4,26.6,4.3,37.6c7.5,10.8,19.8,17.2,32.9,17.2c0.3,0,0.6,0,0.9,0l94.7-2.1c16-0.4,30.3-10.3,36.3-25.2l23.7-59.3
				c2.1-4.8,3.2-10.2,3.2-15.8c0-21.9-17.7-39.8-39.6-40C753.1,804.7,753,804.7,752.8,804.7L752.8,804.7z M752.8,884.7L752.8,884.7
				L752.8,884.7L752.8,884.7z"/>
		</g>
		<g>
			<path class="st19" d="M893.5,616.1c-6.5,0-12.7-3.2-16.4-8.6c-3.8-5.5-4.6-12.6-2.1-18.8l29.6-74.2c3-7.4,10.1-12.4,18.1-12.6
				l105.3-2.3c0.1,0,0.3,0,0.4,0c6.5,0,12.7,3.2,16.4,8.6c3.8,5.5,4.6,12.6,2.1,18.8l-29.6,74.2c-3,7.4-10.1,12.4-18.1,12.6
				l-105.3,2.3C893.8,616.1,893.6,616.1,893.5,616.1z"/>
			<path class="st19" d="M1028.4,519.5L1028.4,519.5 M1028.4,519.5l-29.6,74.2l-105.3,2.3l29.6-74.2L1028.4,519.5 M1028.4,479.5
				L1028.4,479.5c-0.4,0-0.7,0-1,0l-105.1,2.3c-16,0.4-30.3,10.3-36.3,25.2l-29.6,74.2c-5,12.5-3.4,26.6,4.3,37.6
				c7.5,10.8,19.8,17.2,32.9,17.2c0.3,0,0.6,0,0.9,0l105.3-2.3c16-0.4,30.3-10.3,36.3-25.2l29.3-73.3c2.1-4.8,3.2-10.2,3.2-15.8
				C1068.4,497.4,1050.5,479.5,1028.4,479.5L1028.4,479.5z M1028.4,559.5L1028.4,559.5L1028.4,559.5L1028.4,559.5z"/>
		</g>
		<g>
			<path class="st19" d="M606.4,421.3c-6.6,0-12.7-3.2-16.4-8.6c-3.8-5.5-4.6-12.6-2.1-18.8l15.5-38.8c3-7.4,10.1-12.4,18.1-12.6
				l55.2-1.2c0.1,0,0.3,0,0.4,0c6.5,0,12.7,3.2,16.4,8.6c3.8,5.5,4.6,12.6,2.1,18.8l-15.5,38.8c-3,7.5-10.1,12.4-18.2,12.6
				l-55.1,1.2C606.7,421.3,606.6,421.3,606.4,421.3z"/>
			<path class="st19" d="M677.1,361.3L677.1,361.3 M677.1,361.3l-15.5,38.8l-55.1,1.2l15.5-38.8L677.1,361.3 M677.1,321.3
				c-0.2,0-0.3,0-0.5,0c0,0,0,0,0,0c0,0,0,0,0,0c-0.2,0-0.3,0-0.5,0l-55,1.2c-16,0.4-30.3,10.3-36.3,25.2l-15.5,38.8
				c-5,12.5-3.4,26.6,4.3,37.6c7.5,10.8,19.8,17.2,32.9,17.2c0.3,0,0.6,0,0.8,0l55.1-1.2c16.1-0.3,30.3-10.2,36.3-25.2l15.1-37.9
				c2.1-4.8,3.2-10.2,3.2-15.8c0-21.9-17.7-39.8-39.6-40C677.4,321.3,677.2,321.3,677.1,321.3L677.1,321.3z M677.1,401.3
				L677.1,401.3L677.1,401.3L677.1,401.3z"/>
		</g>
		<g>
			<path class="st19" d="M524.2,342.2c-6.5,0-12.7-3.2-16.4-8.6c-3.8-5.5-4.6-12.6-2.1-18.8l13.3-33.4c3-7.4,10.1-12.4,18.1-12.6
				l41.3-0.9c0.1,0,0.3,0,0.4,0c6.5,0,12.7,3.2,16.4,8.6c3.8,5.5,4.6,12.6,2.1,18.8l-13.4,33.4c-3,7.4-10.1,12.4-18.1,12.6
				l-41.3,0.9C524.5,342.2,524.4,342.2,524.2,342.2z"/>
			<path class="st19" d="M578.9,287.8L578.9,287.8 M578.9,287.8l-13.4,33.4l-41.3,0.9l13.3-33.4L578.9,287.8 M578.9,247.8
				c-0.2,0-0.3,0-0.5,0c0,0,0,0,0,0c0,0,0,0,0,0c-0.2,0-0.3,0-0.5,0l-41.2,0.9c-16,0.4-30.3,10.3-36.3,25.2l-13.3,33.4
				c-5,12.5-3.4,26.6,4.3,37.6c7.5,10.8,19.8,17.2,32.9,17.2c0.3,0,0.6,0,0.9,0l41.3-0.9c16-0.4,30.3-10.3,36.3-25.2l13-32.5
				c2.1-4.8,3.2-10.2,3.2-15.8c0-21.9-17.7-39.8-39.6-40C579.2,247.8,579,247.8,578.9,247.8L578.9,247.8z M578.9,327.8L578.9,327.8
				L578.9,327.8L578.9,327.8z"/>
		</g>
		<g>
			<path class="st19" d="M685.2,499.3c-6.5,0-12.7-3.2-16.4-8.6c-3.8-5.5-4.6-12.6-2.1-18.8l18.6-46.6c3-7.4,10.1-12.4,18.1-12.6
				l72.7-1.6c0.1,0,0.3,0,0.4,0c6.5,0,12.7,3.2,16.4,8.6c3.8,5.5,4.6,12.6,2.1,18.8l-18.6,46.6c-3,7.4-10.1,12.4-18.1,12.6
				l-72.7,1.6C685.5,499.3,685.3,499.3,685.2,499.3z"/>
			<path class="st19" d="M776.5,431.1L776.5,431.1 M776.5,431.1l-18.6,46.6l-72.7,1.6l18.6-46.6L776.5,431.1 M776.5,391.1
				c-0.2,0-0.3,0-0.5,0c0,0,0,0,0,0c0,0,0,0,0,0c-0.2,0-0.3,0-0.5,0l-72.6,1.6c-16,0.4-30.3,10.3-36.3,25.2L648,464.5
				c-5,12.5-3.4,26.6,4.3,37.6c7.5,10.8,19.8,17.2,32.9,17.2c0.3,0,0.6,0,0.9,0l72.7-1.6c16-0.4,30.3-10.3,36.3-25.2l18.2-45.7
				c2.1-4.8,3.2-10.2,3.2-15.8c0-21.9-17.7-39.8-39.6-40C776.8,391.1,776.7,391.1,776.5,391.1L776.5,391.1z M776.5,471.1
				L776.5,471.1L776.5,471.1L776.5,471.1z"/>
		</g>
		<g>
			<path class="st19" d="M780.9,559.3c-6.5,0-12.7-3.2-16.4-8.6c-3.8-5.5-4.6-12.6-2.1-18.8l24-60.2c3-7.4,10.1-12.4,18.1-12.6
				l94.7-2.1c0.1,0,0.3,0,0.4,0c6.5,0,12.7,3.2,16.4,8.6c3.8,5.5,4.6,12.6,2.1,18.8l-24,60.2c-3,7.4-10.1,12.4-18.1,12.6l-94.7,2.1
				C781.2,559.3,781.1,559.3,780.9,559.3z"/>
			<path class="st19" d="M899.7,477L899.7,477 M899.7,477l-24,60.2l-94.7,2.1l24-60.2L899.7,477 M899.7,437c-0.2,0-0.3,0-0.5,0
				c0,0,0,0,0,0c0,0,0,0,0,0c-0.2,0-0.3,0-0.5,0l-94.6,2.1c-16,0.4-30.3,10.3-36.3,25.2l-24,60.2c-5,12.5-3.4,26.6,4.3,37.6
				c7.5,10.8,19.8,17.2,32.9,17.2c0.3,0,0.6,0,0.9,0l94.7-2.1c16-0.4,30.3-10.3,36.3-25.2l23.7-59.3c2.1-4.8,3.2-10.2,3.2-15.8
				c0-21.9-17.7-39.8-39.6-40C900,437,899.8,437,899.7,437L899.7,437z M899.7,517L899.7,517L899.7,517L899.7,517z"/>
		</g>
		<g>
			<path class="st19" d="M940.7,497.9c-6.5,0-12.7-3.2-16.4-8.6c-3.8-5.5-4.6-12.6-2.1-18.8l29.6-74.2c3-7.4,10.1-12.4,18.1-12.6
				l105.3-2.3c0.1,0,0.3,0,0.4,0c6.5,0,12.7,3.2,16.4,8.6c3.8,5.5,4.6,12.6,2.1,18.8l-29.6,74.2c-3,7.4-10.1,12.4-18.1,12.6
				l-105.3,2.3C941,497.9,940.8,497.9,940.7,497.9z"/>
			<path class="st19" d="M1075.6,401.3L1075.6,401.3 M1075.6,401.3l-29.6,74.2l-105.3,2.3l29.6-74.2L1075.6,401.3 M1075.6,361.3
				L1075.6,361.3c-0.4,0-0.7,0-1,0l-105.1,2.3c-16,0.4-30.3,10.3-36.3,25.2L903.5,463c-5,12.5-3.4,26.6,4.3,37.6
				c7.5,10.8,19.8,17.2,32.9,17.2c0.3,0,0.6,0,0.9,0l105.3-2.3c16-0.4,30.3-10.3,36.3-25.2l29.3-73.3c2.1-4.8,3.2-10.2,3.2-15.8
				C1115.6,379.2,1097.7,361.3,1075.6,361.3L1075.6,361.3z M1075.6,441.3L1075.6,441.3L1075.6,441.3L1075.6,441.3z"/>
		</g>
		<g>
			<path class="st19" d="M653.6,303.2c-6.5,0-12.7-3.2-16.4-8.6c-3.8-5.5-4.6-12.6-2.1-18.8l15.5-38.8c3-7.4,10.1-12.4,18.1-12.6
				l55.2-1.2c0.1,0,0.3,0,0.4,0c6.5,0,12.7,3.2,16.4,8.6c3.8,5.5,4.6,12.6,2.1,18.8l-15.5,38.8c-3,7.4-10.1,12.4-18.1,12.6
				l-55.2,1.2C653.9,303.2,653.8,303.2,653.6,303.2z"/>
			<path class="st19" d="M724.3,243.1L724.3,243.1 M724.3,243.1L708.8,282l-55.2,1.2l15.5-38.8L724.3,243.1 M724.3,203.1
				c-0.2,0-0.3,0-0.5,0c0,0,0,0,0,0c0,0,0,0,0,0c-0.2,0-0.3,0-0.5,0l-55,1.2c-16,0.4-30.3,10.3-36.3,25.2l-15.5,38.8
				c-5,12.5-3.4,26.6,4.3,37.6c7.5,10.8,19.8,17.2,32.9,17.2c0.3,0,0.6,0,0.9,0l55.2-1.2c16-0.4,30.3-10.3,36.3-25.2l15.1-37.9
				c2.1-4.8,3.2-10.2,3.2-15.8c0-21.9-17.7-39.8-39.6-40C724.6,203.1,724.4,203.1,724.3,203.1L724.3,203.1z M724.3,283.1
				L724.3,283.1L724.3,283.1L724.3,283.1z"/>
		</g>
		<g>
			<path class="st19" d="M571.4,224c-6.5,0-12.7-3.2-16.4-8.6c-3.8-5.5-4.6-12.6-2.1-18.8l13.3-33.4c3-7.4,10.1-12.4,18.1-12.6
				l41.3-0.9c0.1,0,0.3,0,0.4,0c6.5,0,12.7,3.2,16.4,8.6c3.8,5.5,4.6,12.6,2.1,18.8l-13.4,33.4c-3,7.4-10.1,12.4-18.1,12.6
				l-41.3,0.9C571.7,224,571.6,224,571.4,224z"/>
			<path class="st19" d="M626.1,169.6L626.1,169.6 M626.1,169.6L612.8,203l-41.3,0.9l13.3-33.4L626.1,169.6 M626.1,129.6
				c-0.1,0-0.3,0-0.4,0c-0.2,0-0.4,0-0.6,0l-41.2,0.9c-16,0.4-30.3,10.3-36.3,25.2l-13.3,33.4c-5,12.5-3.4,26.6,4.3,37.6
				c7.5,10.8,19.8,17.2,32.9,17.2c0.3,0,0.6,0,0.9,0l41.3-0.9c16-0.4,30.3-10.3,36.3-25.2l13-32.5c2.1-4.8,3.2-10.2,3.2-15.8
				c0-21.9-17.7-39.8-39.6-40C626.4,129.6,626.3,129.6,626.1,129.6L626.1,129.6z M626.1,209.6L626.1,209.6L626.1,209.6L626.1,209.6z
				"/>
		</g>
		<g>
			<path class="st19" d="M732.4,381.1c-6.5,0-12.7-3.2-16.4-8.6c-3.8-5.5-4.6-12.6-2.1-18.8l18.6-46.6c3-7.4,10.1-12.4,18.1-12.6
				l72.7-1.6c0.1,0,0.3,0,0.4,0c6.5,0,12.7,3.2,16.4,8.6c3.8,5.5,4.6,12.6,2.1,18.8l-18.6,46.6c-3,7.4-10.1,12.4-18.1,12.6
				l-72.7,1.6C732.7,381.1,732.5,381.1,732.4,381.1z"/>
			<path class="st19" d="M823.7,312.9L823.7,312.9 M823.7,312.9l-18.6,46.6l-72.7,1.6l18.6-46.6L823.7,312.9 M823.7,272.9
				c-0.2,0-0.3,0-0.5,0c0,0,0,0,0,0c0,0,0,0,0,0c-0.2,0-0.3,0-0.5,0l-72.6,1.6c-16,0.4-30.3,10.3-36.3,25.2l-18.6,46.6
				c-5,12.5-3.4,26.6,4.3,37.6c7.5,10.8,19.8,17.2,32.9,17.2c0.3,0,0.6,0,0.9,0l72.7-1.6c16-0.4,30.3-10.3,36.3-25.2l18.2-45.7
				c2.1-4.8,3.2-10.2,3.2-15.8c0-21.9-17.7-39.8-39.6-40C824,272.9,823.9,272.9,823.7,272.9L823.7,272.9z M823.7,352.9L823.7,352.9
				L823.7,352.9L823.7,352.9z"/>
		</g>
		<g>
			<path class="st19" d="M828.1,441.1c-6.5,0-12.7-3.2-16.4-8.6c-3.8-5.5-4.6-12.6-2.1-18.8l24-60.2c3-7.4,10.1-12.4,18.1-12.6
				l94.7-2.1c0.1,0,0.3,0,0.4,0c6.5,0,12.7,3.2,16.4,8.6c3.8,5.5,4.6,12.6,2.1,18.8l-24,60.2c-3,7.4-10.1,12.4-18.1,12.6l-94.7,2.1
				C828.4,441.1,828.3,441.1,828.1,441.1z"/>
			<path class="st19" d="M946.9,358.8L946.9,358.8 M946.9,358.8l-24,60.2l-94.7,2.1l24-60.2L946.9,358.8 M946.9,318.8
				c-0.2,0-0.3,0-0.5,0c0,0,0,0,0,0c0,0,0,0,0,0c-0.2,0-0.3,0-0.5,0l-94.6,2.1c-16,0.4-30.3,10.3-36.3,25.2l-24,60.2
				c-5,12.5-3.4,26.6,4.3,37.6c7.5,10.8,19.8,17.2,32.9,17.2c0.3,0,0.6,0,0.9,0l94.7-2.1c16-0.4,30.3-10.3,36.3-25.2l23.7-59.3
				c2.1-4.8,3.2-10.2,3.2-15.8c0-21.9-17.7-39.8-39.6-40C947.2,318.8,947.1,318.8,946.9,318.8L946.9,318.8z M946.9,398.8
				L946.9,398.8L946.9,398.8L946.9,398.8z"/>
		</g>
		<g>
			<path class="st19" d="M978.1,375.7c-6.5,0-12.7-3.2-16.4-8.6c-3.8-5.5-4.6-12.6-2.1-18.8l35.2-88.2c3-7.4,10.1-12.4,18.1-12.6
				l124.5-2.7c0.1,0,0.3,0,0.4,0c6.5,0,12.7,3.2,16.4,8.6c3.8,5.5,4.6,12.6,2.1,18.8l-35.2,88.2c-3,7.4-10.1,12.4-18.1,12.6
				l-124.5,2.7C978.3,375.7,978.2,375.7,978.1,375.7z"/>
			<path class="st19" d="M1137.7,264.8L1137.7,264.8 M1137.7,264.8l-35.2,88.2l-124.5,2.7l35.2-88.2L1137.7,264.8 M1137.7,224.8
				L1137.7,224.8c-0.4,0-0.7,0-1,0l-124.3,2.7c-16,0.4-30.3,10.3-36.3,25.2l-35.2,88.2c-5,12.5-3.4,26.6,4.3,37.6
				c7.5,10.8,19.8,17.2,32.9,17.2c0.3,0,0.6,0,0.9,0l124.5-2.7c16-0.4,30.3-10.3,36.3-25.2l34.8-87.2c2.1-4.8,3.2-10.2,3.2-15.8
				C1177.7,242.7,1159.8,224.8,1137.7,224.8L1137.7,224.8z M1137.7,304.8L1137.7,304.8L1137.7,304.8L1137.7,304.8z"/>
		</g>
		<g>
			<path class="st19" d="M697.3,174.5c-6.5,0-12.7-3.2-16.4-8.6c-3.8-5.5-4.6-12.6-2.1-18.8l17.2-43.1c3-7.4,10.1-12.4,18.1-12.6
				l68.8-1.5c0.1,0,0.3,0,0.4,0c6.5,0,12.7,3.2,16.4,8.6c3.8,5.5,4.6,12.6,2.1,18.8l-17.2,43.1c-3,7.4-10.1,12.4-18.1,12.6
				l-68.8,1.5C697.6,174.5,697.5,174.5,697.3,174.5z"/>
			<path class="st19" d="M783.4,109.8L783.4,109.8 M783.4,109.8l-17.2,43.1l-68.8,1.5l17.2-43.1L783.4,109.8 M783.4,69.8
				c-0.2,0-0.3,0-0.5,0c0,0,0,0,0,0c0,0,0,0,0,0c-0.2,0-0.3,0-0.5,0l-68.7,1.5c-16,0.4-30.3,10.3-36.3,25.2l-17.2,43.1
				c-5,12.5-3.4,26.6,4.3,37.6c7.5,10.8,19.8,17.2,32.9,17.2c0.3,0,0.6,0,0.9,0l68.8-1.5c16-0.4,30.3-10.3,36.3-25.2l16.9-42.2
				c2.1-4.8,3.2-10.2,3.2-15.8c0-21.9-17.7-39.8-39.6-40C783.7,69.8,783.5,69.8,783.4,69.8L783.4,69.8z M783.4,149.8L783.4,149.8
				L783.4,149.8L783.4,149.8z"/>
		</g>
		<g>
			<path class="st19" d="M616.3,98.5c-6.5,0-12.7-3.2-16.4-8.6c-3.8-5.5-4.6-12.6-2.1-18.8l14.9-37.4c3-7.4,10.1-12.4,18.1-12.6
				l52.2-1.1c0.1,0,0.3,0,0.4,0c6.5,0,12.7,3.2,16.4,8.6c3.8,5.5,4.6,12.6,2.1,18.8L687,84.8c-3,7.4-10.1,12.4-18.1,12.6l-52.2,1.1
				C616.6,98.5,616.4,98.5,616.3,98.5z"/>
			<path class="st19" d="M683.4,40L683.4,40 M683.4,40l-14.9,37.4l-52.2,1.1l14.9-37.4L683.4,40 M683.4,0c-0.2,0-0.3,0-0.5,0
				c0,0,0,0,0,0c0,0,0,0,0,0c-0.2,0-0.3,0-0.5,0l-52,1.1c-16,0.4-30.3,10.3-36.3,25.2l-14.9,37.4c-5,12.5-3.4,26.6,4.3,37.6
				c7.5,10.8,19.8,17.2,32.9,17.2c0.3,0,0.6,0,0.9,0l52.2-1.1c16-0.4,30.3-10.3,36.3-25.2l14.6-36.5c2.1-4.8,3.2-10.2,3.2-15.8
				c0-21.9-17.7-39.8-39.6-40C683.7,0,683.5,0,683.4,0L683.4,0z M683.4,80L683.4,80L683.4,80L683.4,80z"/>
		</g>
		<g>
			<path class="st19" d="M772.3,254.5c-6.5,0-12.7-3.2-16.4-8.6c-3.8-5.5-4.6-12.6-2.1-18.8l21-52.6c3-7.4,10.1-12.4,18.1-12.6
				l89.4-2c0.1,0,0.3,0,0.4,0c6.5,0,12.7,3.2,16.4,8.6c3.8,5.5,4.6,12.6,2.1,18.8l-21,52.6c-3,7.4-10.1,12.4-18.1,12.6l-89.4,2
				C772.6,254.5,772.4,254.5,772.3,254.5z"/>
			<path class="st19" d="M882.7,179.9L882.7,179.9 M882.7,179.9l-21,52.6l-89.4,2l21-52.6L882.7,179.9 M882.7,139.9
				c-0.2,0-0.3,0-0.5,0c0,0,0,0,0,0c0,0,0,0,0,0c-0.2,0-0.3,0-0.5,0l-89.3,2c-16,0.4-30.3,10.3-36.3,25.2l-21,52.6
				c-5,12.5-3.4,26.6,4.3,37.6c7.5,10.8,19.8,17.2,32.9,17.2c0.3,0,0.6,0,0.9,0l89.4-2c16-0.4,30.3-10.3,36.3-25.2l20.6-51.7
				c2.1-4.8,3.2-10.2,3.2-15.8c0-21.9-17.7-39.8-39.6-40C883,140,882.9,139.9,882.7,139.9L882.7,139.9z M882.7,219.9L882.7,219.9
				L882.7,219.9L882.7,219.9z"/>
		</g>
		<g>
			<path class="st19" d="M869.3,311.7c-6.5,0-12.7-3.2-16.4-8.6c-3.8-5.5-4.6-12.6-2.1-18.8l26.7-66.7c3-7.4,10.1-12.4,18.1-12.6
				l110.1-2.4c0.1,0,0.3,0,0.4,0c6.5,0,12.7,3.2,16.4,8.6c3.8,5.5,4.6,12.6,2.1,18.8L998,296.7c-3,7.4-10.1,12.4-18.1,12.6
				l-110.1,2.4C869.6,311.7,869.4,311.7,869.3,311.7z"/>
			<path class="st19" d="M1006,222.5L1006,222.5 M1006,222.5l-26.7,66.7l-110.1,2.4l26.7-66.7L1006,222.5 M1006,182.5L1006,182.5
				c-0.4,0-0.7,0-1,0L895.1,185c-16,0.4-30.3,10.3-36.3,25.2l-26.7,66.7c-5,12.5-3.4,26.6,4.3,37.6c7.5,10.8,19.8,17.2,32.9,17.2
				c0.3,0,0.6,0,0.9,0l110.1-2.4c16-0.4,30.3-10.3,36.3-25.2l26.3-65.8c2.1-4.8,3.2-10.2,3.2-15.8
				C1046,200.4,1028.1,182.5,1006,182.5L1006,182.5z M1006,262.5L1006,262.5L1006,262.5L1006,262.5z"/>
		</g>
		<g>
			<path class="st19" d="M913.2,894.3c-6.6,0-12.7-3.2-16.5-8.6c-3.8-5.5-4.6-12.6-2.1-18.8l41.6-104.3c3-7.5,10.2-12.4,18.2-12.6
				l133.8-2.5c0.1,0,0.3,0,0.4,0c6.6,0,12.7,3.2,16.5,8.6c3.8,5.5,4.6,12.6,2.1,18.8l-41.6,104.3c-3,7.5-10.2,12.4-18.2,12.6
				l-133.8,2.5C913.5,894.3,913.4,894.3,913.2,894.3z"/>
			<path class="st19" d="M1088.7,767.5L1088.7,767.5 M1088.7,767.5L1047,871.8l-133.8,2.5l41.6-104.3L1088.7,767.5 M1088.7,727.5
				c-0.1,0-0.3,0-0.4,0c0,0,0,0,0,0s0,0,0,0c-0.1,0-0.3,0-0.4,0l-133.7,2.5c-16.1,0.3-30.4,10.2-36.4,25.2l-41.6,104.3
				c-5,12.4-3.4,26.6,4.2,37.6c7.5,10.8,19.8,17.3,32.9,17.3c0.3,0,0.5,0,0.8,0l133.8-2.5c16.1-0.3,30.4-10.2,36.4-25.2l41.3-103.3
				c2.1-4.8,3.2-10.2,3.2-15.8c0-22-17.7-39.8-39.6-40C1088.9,727.5,1088.8,727.5,1088.7,727.5L1088.7,727.5z M1088.7,807.5
				L1088.7,807.5L1088.7,807.5L1088.7,807.5z"/>
		</g>
		<g>
			<path class="st19" d="M865.5,1013.8c-6.6,0-12.7-3.2-16.5-8.6c-3.8-5.5-4.6-12.6-2.1-18.8l41.6-104.3c3-7.5,10.2-12.4,18.2-12.6
				l133.8-2.5c0.1,0,0.3,0,0.4,0c6.6,0,12.7,3.2,16.5,8.6c3.8,5.5,4.6,12.6,2.1,18.8l-41.6,104.3c-3,7.5-10.2,12.4-18.2,12.6
				l-133.8,2.5C865.7,1013.8,865.6,1013.8,865.5,1013.8z"/>
			<path class="st19" d="M1040.9,887L1040.9,887 M1040.9,887l-41.6,104.3l-133.8,2.5l41.6-104.3L1040.9,887 M1041,847
				c-0.1,0-0.3,0-0.4,0c0,0,0,0,0,0s0,0,0,0c-0.1,0-0.3,0-0.4,0l-133.7,2.5c-16.1,0.3-30.4,10.2-36.4,25.2L828.3,979
				c-5,12.4-3.4,26.6,4.2,37.6c7.5,10.8,19.8,17.3,32.9,17.3c0.3,0,0.5,0,0.8,0l133.8-2.5c16.1-0.3,30.4-10.2,36.4-25.2l41.3-103.3
				c2.1-4.8,3.2-10.2,3.2-15.8c0-22-17.7-39.8-39.6-40C1041.2,847,1041.1,847,1041,847L1041,847z M1040.9,927L1040.9,927L1040.9,927
				L1040.9,927z"/>
		</g>
		<g>
			<path class="st19" d="M809.9,1152.9c-6.3,0-12.3-3-16.1-8.1c-4.1-5.6-5.1-12.9-2.5-19.3l49.5-123.8c3-7.5,10.2-12.4,18.2-12.6
				l133.8-2.5c0.1,0,0.3,0,0.4,0c6.6,0,12.7,3.2,16.5,8.6c3.8,5.5,4.6,12.6,2.1,18.8l-48.1,120.5c-3,7.6-10.4,12.6-18.6,12.6
				c-42.2,0-87.1,2-133.5,5.8C811,1152.9,810.5,1152.9,809.9,1152.9z"/>
			<path class="st19" d="M993.2,1006.5L993.2,1006.5 M993.2,1006.5L945.1,1127c-45.3,0-90.7,2.2-135.2,5.9l49.5-123.8L993.2,1006.5
				 M993.2,966.5L993.2,966.5c-0.3,0-0.6,0-0.9,0l-133.7,2.5c-16.1,0.3-30.4,10.2-36.4,25.2l-49.5,123.8c-5.1,12.9-3.3,27.5,5,38.6
				c7.6,10.2,19.5,16.2,32.2,16.2c1.1,0,2.2,0,3.3-0.1c45.8-3.8,90.2-5.7,131.9-5.8c16.4,0,31.1-10,37.1-25.2l47.8-119.6
				c2.1-4.8,3.2-10.2,3.2-15.8C1033.2,984.4,1015.3,966.5,993.2,966.5L993.2,966.5z M993.2,1046.5L993.2,1046.5L993.2,1046.5
				L993.2,1046.5z"/>
		</g>
		<g>
			<path class="st19" d="M961,774.8c-6.6,0-12.7-3.2-16.5-8.6c-3.8-5.5-4.6-12.6-2.1-18.8L984,643.2c3-7.5,10.2-12.4,18.2-12.6
				L1136,628c0.1,0,0.3,0,0.4,0c6.6,0,12.7,3.2,16.5,8.6c3.8,5.5,4.6,12.6,2.1,18.8l-41.6,104.3c-3,7.5-10.2,12.4-18.2,12.6
				l-133.8,2.5C961.2,774.8,961.1,774.8,961,774.8z"/>
			<path class="st19" d="M1136.4,648L1136.4,648 M1136.4,648l-41.6,104.3L961,754.8l41.6-104.3L1136.4,648 M1136.4,608
				c-0.1,0-0.3,0-0.4,0c0,0,0,0,0,0c0,0,0,0,0,0c-0.1,0-0.3,0-0.4,0l-133.7,2.5c-16.1,0.3-30.4,10.2-36.4,25.2L923.8,740
				c-5,12.4-3.4,26.6,4.2,37.6c7.5,10.8,19.8,17.3,32.9,17.3c0.3,0,0.5,0,0.8,0l133.8-2.5c16.1-0.3,30.4-10.2,36.4-25.2l41.3-103.3
				c2.1-4.8,3.2-10.2,3.2-15.8c0-22-17.7-39.8-39.6-40C1136.7,608,1136.5,608,1136.4,608L1136.4,608z M1136.4,688L1136.4,688
				L1136.4,688L1136.4,688z"/>
		</g>
		<g>
			<path class="st19" d="M1008.7,655.3c-6.6,0-12.7-3.2-16.5-8.6c-3.8-5.5-4.6-12.6-2.1-18.8l41.6-104.3c3-7.5,10.2-12.4,18.2-12.6
				l133.8-2.5c0.1,0,0.3,0,0.4,0c6.6,0,12.7,3.2,16.5,8.6c3.8,5.5,4.6,12.6,2.1,18.8l-41.6,104.3c-3,7.5-10.2,12.4-18.2,12.6
				l-133.8,2.5C1008.9,655.3,1008.8,655.3,1008.7,655.3z"/>
			<path class="st19" d="M1184.2,528.6L1184.2,528.6 M1184.2,528.6l-41.6,104.3l-133.8,2.5l41.6-104.3L1184.2,528.6 M1184.2,488.6
				c-0.1,0-0.3,0-0.4,0c0,0,0,0,0,0s0,0,0,0c-0.1,0-0.3,0-0.4,0l-133.7,2.5c-16.1,0.3-30.4,10.2-36.4,25.2l-41.6,104.3
				c-5,12.4-3.4,26.6,4.2,37.6c7.5,10.8,19.8,17.3,32.9,17.3c0.3,0,0.5,0,0.8,0l133.8-2.5c16.1-0.3,30.4-10.2,36.4-25.2l41.3-103.3
				c2.1-4.8,3.2-10.2,3.2-15.8c0-22-17.7-39.8-39.6-40C1184.4,488.6,1184.3,488.6,1184.2,488.6L1184.2,488.6z M1184.2,568.6
				L1184.2,568.6L1184.2,568.6L1184.2,568.6z"/>
		</g>
		<g>
			<path class="st19" d="M1056.4,535.9c-6.6,0-12.7-3.2-16.5-8.6c-3.8-5.5-4.6-12.6-2.1-18.8l41.6-104.3c3-7.5,10.2-12.4,18.2-12.6
				l133.8-2.5c0.1,0,0.3,0,0.4,0c6.6,0,12.7,3.2,16.5,8.6c3.8,5.5,4.6,12.6,2.1,18.8l-41.6,104.3c-3,7.5-10.2,12.4-18.2,12.6
				l-133.8,2.5C1056.7,535.9,1056.6,535.9,1056.4,535.9z"/>
			<path class="st19" d="M1231.9,409.1L1231.9,409.1 M1231.9,409.1l-41.6,104.3l-133.8,2.5l41.6-104.3L1231.9,409.1 M1231.9,369.1
				c-0.1,0-0.3,0-0.4,0c0,0,0,0,0,0c0,0,0,0,0,0c-0.1,0-0.3,0-0.4,0l-133.7,2.5c-16.1,0.3-30.4,10.2-36.4,25.2L1019.3,501
				c-5,12.4-3.4,26.6,4.2,37.6c7.5,10.8,19.8,17.3,32.9,17.3c0.3,0,0.5,0,0.8,0l133.8-2.5c16.1-0.3,30.4-10.2,36.4-25.2l41.3-103.3
				c2.1-4.8,3.2-10.2,3.2-15.8c0-22-17.7-39.8-39.6-40C1232.1,369.1,1232,369.1,1231.9,369.1L1231.9,369.1z M1231.9,449.1
				L1231.9,449.1L1231.9,449.1L1231.9,449.1z"/>
		</g>
		<g>
			<path class="st19" d="M1104.2,416.4c-6.6,0-12.7-3.2-16.5-8.6c-3.8-5.5-4.6-12.6-2.1-18.8l47.5-118.9c2.8-7,9.4-11.9,16.9-12.5
				c47.4-3.9,93.5-5.9,136.8-6c0,0,0,0,0,0c6.6,0,12.8,3.3,16.6,8.8c3.7,5.5,4.5,12.5,2,18.6l-48.9,122.3
				c-3,7.5-10.2,12.4-18.2,12.6l-133.8,2.5C1104.4,416.4,1104.3,416.4,1104.2,416.4z"/>
			<path class="st19" d="M1286.8,271.5L1286.8,271.5 M1286.8,271.5L1238,393.8l-133.8,2.5l47.5-118.9
				C1196.1,273.7,1241.6,271.6,1286.8,271.5 M1286.8,231.5C1286.8,231.5,1286.8,231.5,1286.8,231.5c-43.9,0-90.5,2.1-138.5,6
				c-15.1,1.3-28.2,10.9-33.8,25L1067,381.5c-5,12.4-3.4,26.6,4.2,37.6c7.5,10.8,19.8,17.3,32.9,17.3c0.3,0,0.5,0,0.8,0l133.8-2.5
				c16.1-0.3,30.4-10.2,36.4-25.2l48.5-121.4c2.1-4.8,3.2-10.2,3.2-15.8c0-22.1-17.8-39.9-39.9-40
				C1286.9,231.5,1286.9,231.5,1286.8,231.5C1286.9,231.5,1286.9,231.5,1286.8,231.5C1286.9,231.5,1286.9,231.5,1286.8,231.5
				L1286.8,231.5z M1286.8,311.5L1286.8,311.5L1286.8,311.5L1286.8,311.5z"/>
		</g>
		<g>
			<path class="st19" d="M1539,1393.1c-5.9,0-11.6-2.6-15.4-7.3c-66.2-80.2-159.2-144.6-276.5-191.5c-75.5-30.2-172.1-46.1-287-47.2
				c-6.6-0.1-12.7-3.4-16.4-8.9c-3.7-5.5-4.4-12.4-2-18.5l184.8-462.6l108.2-271.2c0.3-0.6,0.5-1.3,0.9-1.9l47.9-119.9
				c3-7.6,10.4-12.6,18.6-12.6c0.1,0,0.1,0,0.2,0c119.9,1.2,221.3,18.1,301.4,50.1c67,26.8,127.5,59.7,179.6,97.8
				c43.3,31.6,81.3,67.1,112.9,105.4c4.7,5.6,5.9,13.4,3.1,20.1l-341.7,855.5c-2.6,6.6-8.5,11.3-15.5,12.3
				C1541.1,1393,1540.1,1393.1,1539,1393.1z"/>
			<path class="st19" d="M1302.1,271.6c105,1.1,208.3,14.4,294.2,48.7c142.1,56.8,230.3,131.7,284.5,197.3L1539,1373.1
				c-54.1-65.6-142.3-140.5-284.5-197.3c-85.9-34.3-189.2-47.6-294.2-48.7l48-120.1c0,0,0,0,0,0l108.8-272.4l28-70.1l108.2-271.2
				c0,0,0.1,0,0.1,0L1302.1,271.6 M1302.1,231.6c-16.3,0-31.1,10-37.1,25.2l-47.6,119.1c-0.4,0.9-0.8,1.7-1.2,2.6L1108,649.7
				l-28,70.1L971.2,992.2l-48,120.1c-4.9,12.3-3.4,26.1,3.9,37.1c7.3,11,19.6,17.6,32.8,17.7c112.5,1.2,206.6,16.6,279.8,45.8
				c62.4,24.9,118.4,55.4,166.5,90.5c39.2,28.7,73.5,60.7,102,95.1c7.7,9.3,19,14.5,30.9,14.5c2,0,4.1-0.2,6.2-0.5
				c14-2.2,25.7-11.6,31-24.7l341.7-855.5c5.4-13.6,3-29-6.3-40.3c-32.7-39.6-71.9-76.2-116.5-108.8
				c-53.5-39.1-115.4-72.8-184-100.2c-82.4-32.9-186.2-50.3-308.6-51.5C1302.4,231.6,1302.2,231.6,1302.1,231.6L1302.1,231.6z"/>
		</g>
	</g>
	<g>
		<g>
			<polygon points="684.2,1091.3 719.4,1003.2 719.4,1003.2 843.9,1000.4 808.7,1088.6 			"/>
			<polygon points="420.7,846.9 403.5,890.1 472.3,888.5 489.5,845.4 			"/>
			<polygon points="374.6,813 389.5,775.6 337.4,776.8 322.4,814.1 			"/>
			<polygon points="499.4,917.5 478.4,970.1 567.8,968.1 588.8,915.6 			"/>
			<polygon points="575.4,1027.3 602.1,960.6 712.2,958.1 685.5,1024.9 			"/>
		</g>
		<g>
			<polygon points="831.1,723.7 955.5,720.9 990.8,632.8 866.3,635.5 			"/>
			<polygon points="619.2,520.9 636.4,477.7 567.6,479.2 550.4,522.4 			"/>
			<polygon points="469.3,446.5 484.3,409.1 536.4,407.9 521.5,445.3 			"/>
			<polygon points="714.7,600.5 735.7,547.9 646.3,549.8 625.3,602.4 			"/>
			<polygon points="749,592.9 722.3,659.6 832.4,657.2 859.1,590.5 			"/>
		</g>
		<g>
			<g>
				<polygon points="928.6,769.3 823.4,771.6 793.8,845.6 899.4,842.3 				"/>
			</g>
			<polygon points="506.6,651.1 522.1,612.3 577.3,611.1 561.8,649.9 			"/>
			<polygon points="437.8,538.5 424.5,571.9 465.8,571 479.1,537.6 			"/>
			<polygon points="585.4,729 604,682.5 676.8,680.8 658.2,727.4 			"/>
			<polygon points="799.9,726.7 775.9,786.9 681.2,789 705.2,728.8 			"/>
		</g>
		<g>
			<polygon points="746.6,963.8 776.2,889.5 881.5,887.2 851.8,961.4 			"/>
			<polygon points="530.2,729 514.7,767.8 459.5,769.1 475,730.2 			"/>
			<polygon points="418.7,688.9 432,655.5 390.7,656.4 377.3,689.8 			"/>
			<polygon points="538.3,847 556.9,800.4 629.6,798.8 611,845.4 			"/>
			<polygon points="752.8,844.7 728.8,904.9 634,907 658.1,846.8 			"/>
		</g>
		<g>
			<polygon points="1028.4,519.5 998.7,593.8 893.5,596.1 923.1,521.9 			"/>
			<polygon points="606.4,401.3 621.9,362.6 677.1,361.3 661.6,400.2 			"/>
			<polygon points="524.2,322.2 537.6,288.7 578.9,287.8 565.5,321.2 			"/>
			<polygon points="685.2,479.3 703.8,432.7 776.5,431.1 757.9,477.7 			"/>
			<polygon points="899.7,477 875.6,537.2 780.9,539.3 805,479.1 			"/>
		</g>
		<g>
			<polygon points="970.3,403.7 940.7,477.9 1045.9,475.6 1075.6,401.3 			"/>
			<polygon points="653.6,283.2 669.1,244.4 724.3,243.1 708.8,282 			"/>
			<polygon points="571.4,204 584.8,170.5 626.1,169.6 612.8,203 			"/>
			<polygon points="732.4,361.1 751,314.5 823.7,312.9 805.1,359.5 			"/>
			<polygon points="946.9,358.8 922.9,419 828.1,421.1 852.2,360.9 			"/>
		</g>
		<g>
			<g>
				<polygon points="1137.7,264.8 1102.5,353 978.1,355.7 1013.3,267.6 				"/>
				<polygon points="766.1,152.9 783.4,109.8 714.6,111.3 697.4,154.5 				"/>
				<polygon points="631.2,41.1 616.3,78.5 668.5,77.4 683.4,40 				"/>
				<polygon points="772.3,234.5 793.3,181.9 882.7,179.9 861.7,232.5 				"/>
				<polygon points="895.9,225 869.3,291.7 979.4,289.3 1006,222.5 				"/>
			</g>
		</g>
		<g>
			<polygon points="1088.7,767.5 954.9,770.1 913.2,874.3 1047,871.8 			"/>
			<polygon points="999.3,991.3 1040.9,887 907.1,889.6 865.5,993.8 			"/>
			<path d="M859.4,1009.1l-49.5,123.8c44.4-3.7,89.9-5.9,135.2-5.9l48.1-120.5L859.4,1009.1z"/>
			<polygon points="961,754.8 1002.6,650.6 1136.4,648 1094.8,752.3 			"/>
			<polygon points="1142.5,632.8 1008.7,635.3 1050.3,531.1 1184.2,528.6 			"/>
			<polygon points="1190.2,513.3 1056.4,515.9 1098.1,411.6 1231.9,409.1 			"/>
			<path d="M1238,393.8l48.9-122.3c-45.3,0-90.7,2.2-135.2,5.9l-47.5,118.9L1238,393.8z"/>
			<path d="M1596.3,320.3c-85.9-34.3-189.2-47.6-294.2-48.7l-341.7,855.5c105,1.1,208.3,14.4,294.2,48.7
				c142.1,56.8,230.3,131.7,284.5,197.3l341.7-855.5C1826.6,452,1738.4,377,1596.3,320.3z"/>
		</g>
		<g>
			<g>
				<path class="st19" d="M1630.8,816.2c-50-44.6-112.9-82.2-187.8-112.1c-0.2-0.1-0.4-0.1-0.5-0.2l108.3-271.2
					c0.2,0.1,0.4,0.1,0.5,0.2c74.9,29.9,137.8,67.5,187.8,112.1L1630.8,816.2z"/>
			</g>
			<g>
				<path class="st19" d="M1253.4,393.3l-108.2,271.2c86.2-2.1,162.1,3.9,225,17.7l1.3-3.4l107-267.8
					C1415.6,397.2,1339.6,391.2,1253.4,393.3z"/>
			</g>
			<g>
				<path class="st19" d="M1414.4,774.1c0.2,0.1,0.4,0.1,0.5,0.2c74.9,29.9,137.8,67.5,187.8,112.1l-111.6,279.3
					c-56.5-39.9-120.5-74.2-191.6-102.6c-0.2-0.1-0.4-0.1-0.5-0.2L1414.4,774.1z"/>
			</g>
			<g>
				<path class="st19" d="M1117.1,734.6L1008.3,1007c81.2,3.6,154.4,14.3,219.3,32.1l4.6-11.5l109.9-275.2
					C1279.3,738.5,1203.4,732.5,1117.1,734.6z"/>
			</g>
		</g>
	</g>
	<path class="st19" d="M2135.4,1648.2c-51.5-54.1-61-94.2-61-141.7c0-109,36.7-136,52.2-136c21.5,0,43.2,17.3,58.9,54.1
		c15.7,36.8,27,98.4,30.1,152.1h8.3v-231.3h-8.3c-4,24.5-10,36.8-17.9,36.8c-4.5,0-9.7-2.7-15.7-8c-23.4-19.9-32.8-29.8-56.6-29.8
		c-60.7,0-91.5,109-91.5,199.3c0,118.7,31.2,165.3,89.5,219.1c64.4,59.5,68.8,123.5,68.8,179.3c0,32.5-17,123.6-58,123.6
		c-59.8,0-90.4-143.1-90.4-208.1h-8.3v235.7h8.3c4.3-24.5,10.5-36.8,18.6-36.8c9.1,0,29.4,35,75.9,35c56.3,0,99.5-107.5,99.5-191.4
		C2237.8,1728.1,2187.7,1703.2,2135.4,1648.2z"/>
	<g>
		<path class="st19" d="M23.6,1760.5c2.7-1.9,4.1-4.3,4.1-7s-1.4-5.1-4.1-7c-2.7-1.9-6-2.9-9.8-2.9s-7.1,1-9.8,2.9
			c-2.7,1.9-4,4.2-4,7c0,2.8,1.3,5.1,4,7.1c2.7,1.9,5.9,2.9,9.8,2.9S20.9,1762.5,23.6,1760.5z"/>
		<path class="st19" d="M184.4,1676.8c-8.9-7-21.5-11.7-38-14.1l-1.9,2.8c11,3.4,18.6,6.9,22.8,10.4c6.1,5.1,9.1,10.8,9.1,17.1
			c0,8.9-5.7,16-17.1,21.2c-11.4,5.2-24.6,7.8-39.5,7.8c-14.6,0-26.4-2.6-35.3-7.9c-6.7-4-10.1-9.2-10.1-15.7c0-4,1.4-7.2,4.1-9.5
			c2.8-2.3,6.9-3.6,12.3-3.9c5.4-0.4,9-1.1,10.9-2.2c3.5-1.9,5.2-4.8,5.2-8.7c0-2.9-1.1-5.1-3.2-6.7c-2.1-1.6-4.9-2.4-8.4-2.4
			c-7,0-13.8,2.8-20.3,8.5c-6.5,5.7-9.8,12.9-9.8,21.6c0,11.7,6.1,21.7,18.4,30.1c12.3,8.3,28.2,12.5,47.9,12.5
			c20.3,0,36.4-3.8,48.3-11.3c11.9-7.5,17.9-16.4,17.9-26.5C197.7,1691.6,193.3,1683.9,184.4,1676.8z"/>
		<path class="st19" d="M88.4,1614.5c3.1-2.8,4.7-5.4,4.7-7.6c0-2.3-1.2-4.4-3.7-6c-2.5-1.7-5.5-2.5-9-2.5c-4,0-7.5,1.2-10.6,3.5
			c-3,2.3-4.6,5.3-4.6,8.9c0,7.9,9.4,15.5,28.1,23H65.3v4.1l15.3,27l4.9-1c-1.4-2.5-2-4.8-2-6.8c0-1.7,0.6-3.1,1.9-4.2
			c1.3-1.1,3.3-1.9,6.1-2.3c2.8-0.4,11.4-0.6,26-0.6h48.4c7.3,0,11.7,0.2,13.2,0.5c3.2,0.7,5.5,1.8,7,3.4c2,2.2,3,5.6,3,10.1h4.9
			V1618H189c0,4-0.8,7.1-2.5,9.3s-3.7,3.6-6.1,4.5c-3.5,1.2-8.8,1.9-15.7,1.9h-59.9c-8.5-3.1-14.7-6.1-18.4-9.1
			c-1.8-1.4-2.7-2.6-2.7-3.8C83.7,1619.4,85.3,1617.3,88.4,1614.5z"/>
		<path class="st19" d="M163.1,1526.2c-11.5-3.8-22.8-5.7-34-5.7c-15.9,0-30,3.5-42.3,10.4c-14.4,8.2-21.5,19-21.5,32.5
			c0,7.4,2.7,14.4,8.1,21c5.4,6.6,13.8,12,25.1,16c11.3,4.1,22.7,6.1,34.2,6.1c15.7,0,29.9-3.3,42.5-10c15-7.9,22.5-18.6,22.5-32.1
			c0-8.2-2.9-15.7-8.7-22.5C183.2,1535.3,174.6,1530,163.1,1526.2z M168.3,1580.7c-13.2,5.2-28.9,7.7-47,7.7
			c-11.3,0-20.5-1.1-27.7-3.2c-7.2-2.1-12.2-5-15.1-8.4c-2.9-3.5-4.3-6.9-4.3-10.4c0-7.1,4.4-13,13.1-17.6
			c12.7-6.8,30.2-10.2,52.4-10.2c17.7,0,30.2,2,37.5,6.1c7.3,4.1,10.9,9.3,10.9,15.6C188.1,1568.7,181.5,1575.5,168.3,1580.7z"/>
		<path class="st19" d="M187.3,1465.8c-7-6.1-16.1-9.2-27.5-9.2c-14.7,0-26.6,6.6-35.6,19.8l-9.7,14.2c-4.2,6.2-8.1,10.3-11.9,12.3
			c-3.6,2.1-8,3.1-13.1,3.1c-4.1,0-7.8-1.4-11.2-4.2c-3.4-2.8-5-6.5-5-11c0-6,2.4-10.9,7.2-14.8c4.8-3.9,13.9-7,27.3-9.5v-3.2H65.3
			v3.2c2.2,0.8,3.6,1.5,4.2,2c0.6,0.6,1,1.4,1,2.4c0,1.1-0.7,3.3-2,6.6c-2.1,5-3.1,9.3-3.1,12.8c0,8,3.5,14.5,10.4,19.5
			c6.9,5,15.5,7.6,25.8,7.6c7.9,0,14.5-1.5,19.6-4.4c5.3-2.9,11.2-9.1,17.7-18.5c6.5-9.4,12-15.7,16.2-18.9
			c4.3-3.2,9.5-4.7,15.8-4.7c5.2,0,9.6,1.4,13.3,4.2c3.7,2.8,5.5,6.5,5.5,11c0,6.4-3.2,12.1-9.7,17.2c-6.5,5.1-16,8.6-28.8,10.4v3.2
			h44.6v-3.2c-2.4-0.8-3.5-2-3.5-3.5c0-1.4,0.5-3.1,1.4-5.3c2.7-7,4.1-13.3,4.1-18.7C197.7,1478.8,194.3,1472,187.3,1465.8z"/>
		<path class="st19" d="M163.1,1372.3c-11.5-3.8-22.8-5.7-34-5.7c-15.9,0-30,3.5-42.3,10.4c-14.4,8.2-21.5,19-21.5,32.5
			c0,7.4,2.7,14.4,8.1,21c5.4,6.6,13.8,12,25.1,16c11.3,4.1,22.7,6.1,34.2,6.1c15.7,0,29.9-3.3,42.5-10c15-7.9,22.5-18.6,22.5-32.1
			c0-8.2-2.9-15.7-8.7-22.5C183.2,1381.4,174.6,1376.1,163.1,1372.3z M168.3,1426.8c-13.2,5.2-28.9,7.7-47,7.7
			c-11.3,0-20.5-1.1-27.7-3.2c-7.2-2.1-12.2-5-15.1-8.4c-2.9-3.5-4.3-6.9-4.3-10.4c0-7.1,4.4-13,13.1-17.6
			c12.7-6.8,30.2-10.2,52.4-10.2c17.7,0,30.2,2,37.5,6.1c7.3,4.1,10.9,9.3,10.9,15.6C188.1,1414.8,181.5,1421.6,168.3,1426.8z"/>
		<path class="st19" d="M29.2,1352c8.6,2.9,19.2,4.3,31.6,4.3H69v17.3h9.8v-17.3h82.1c8.9,0,14.9,0.4,18,1.2
			c3.1,0.8,5.5,2.3,7.4,4.4c1.8,2.1,2.7,4.5,2.7,7.1v4h4.9v-53.3H189v8.1c0,4-2,7.2-6,9.6c-3.1,1.8-10.5,2.7-22.1,2.7H78.8v-23h-0.3
			v-4.6h84c9,0,15.7-0.7,20-2c4.3-1.4,7.6-3.5,10-6.3c2.3-2.9,3.5-5.8,3.5-8.8c0-4.4-2.2-8.7-6.8-12.9c-4.5-4.2-11.2-7.4-20.1-9.6
			v3.8c3.6,1.1,6.4,2.7,8.3,4.7c1.9,2,2.8,4.1,2.8,6.2c0,2.6-1.4,4.7-4.2,6.4c-2.8,1.7-8.3,2.5-16.4,2.5h-81v-20.9H69v20.9H30
			c-2.1-1.3-4.3-1.9-6.7-1.9c-5.1,0-9.7,1.9-13.8,5.7c-6.2,5.7-9.3,12-9.3,18.8c0,7.3,2.7,14,8,19.8
			C13.6,1344.8,20.5,1349.2,29.2,1352z M12.7,1320.1c1.7-2,5.1-4.2,10-6.6c5-2.4,8.2-4.4,9.7-6.1c1.5-1.7,2.3-3.2,2.3-4.7
			c0-0.4-0.1-0.8-0.2-1.1c5.7,1.8,9.9,3.2,12.4,4.3c6.5,2.9,12.2,6.3,17,10c1.9,1.5,3.6,3,5.1,4.5v20h-9c-19.5,0-31.5-0.5-36.2-1.4
			c-4.7-0.9-8.1-2.4-10.4-4.5c-2.2-2.1-3.3-4.6-3.3-7.6C10.1,1324.3,11,1322.1,12.7,1320.1z"/>
		<path class="st19" d="M193.3,1254.4c-3-2.1-6.5-3.2-10.7-3.2c-4.2,0-7.8,1-10.7,3.1c-3,2.1-4.4,4.6-4.4,7.7c0,3,1.5,5.5,4.4,7.6
			c2.9,2.1,6.5,3.2,10.8,3.2c4.2,0,7.8-1.1,10.7-3.2c3-2.1,4.4-4.7,4.4-7.6C197.7,1259.1,196.3,1256.5,193.3,1254.4z"/>
		<g>
			<path class="st19" d="M1531.6,1349.8c-43.6,0.9-81,28.3-112.4,102c-30.9,72.6-50.6,164.2-51.8,267c1.2,102.9,21,194.5,51.8,267
				c31.4,73.8,68.8,101.1,112.4,102c43.6-0.9,81-28.3,112.4-102c30.9-72.6,50.6-164.2,51.8-267c-1.2-102.9-21-194.5-51.8-267
				C1612.7,1378.1,1575.2,1350.7,1531.6,1349.8z M1539.7,2070c-5.1,2.1-11,2.1-16.1,0c-41.1-17-88.5-129.5-89-351.1
				c0.6-221.6,48-334.2,89-351.1c5.1-2.1,11-2.1,16.1,0c41.1,17,88.5,129.5,89,351.1C1628.1,1940.5,1580.7,2053,1539.7,2070z"/>
			<path class="st19" d="M2071.8,1353.2h-38.6h-14.4h-38.6l0,10.2c30.9,0,36.5,44.6,30.6,82.6l0,0l-67.6,437.4l-59.6-461.5
				c0,0,0,0,0,0l-3.1-23.9c-1.6-18.9,1-34.6,23.6-34.6l0-10.2h-46.3h-6.7H1834h-4.9H1781l0,10.2c23.3,0,33.6,17.9,39,47.8
				l21.4,158.8l-48.5,313.5l-59.6-461.5c0,0,0,0,0,0l-3.1-23.9c-1.6-18.9,1-34.6,23.6-34.6l0-10.2h-45h-8h-17.1h-3.6h-49.4l0,10.2
				c23.3,0,33.6,17.9,39,47.8l91.3,677.8v0h16.6h0l71.4-461.6l62.2,461.6l0,0h0h16.6h0l101.2-654.2v0c6.5-42.1,19-71.5,42.7-71.5
				L2071.8,1353.2z"/>
			<path class="st19" d="M187.1,1740.6c-1.3,1.6-3.2,2.8-5.8,3.6c-2.6,0.8-7.8,1.2-15.6,1.2H65.3v4.3l15.3,26.9l4.9-1.4
				c-1.4-2.6-2-4.8-2-6.6c0-1.7,0.6-3,1.7-4c1.1-1,3.2-1.7,6.1-2.1c4-0.6,12.8-0.9,26.3-0.9h48.1c7.7,0,13,0.4,15.7,1.3
				s4.7,2.1,5.9,3.6c1,1.2,1.5,3.3,1.7,6.4h-0.1v4.6c0,5.2-1.9,9-5.7,11.4c-2.8,1.8-9.9,2.7-21.3,2.7H41c-10.4,0-17-0.7-19.9-2.1
				c-4.7-2.3-7.1-6.3-7.1-12v-4.6H9v37.4l144.7,47.2L9,1905.4v37.4h5c0-5.4,0.9-9.3,2.7-11.7c1.8-2.4,4-4.1,6.6-5
				c3.6-1.3,9.5-1.9,17.7-1.9h120.8c10.4,0,17,0.7,19.9,2.1c4.7,2.3,7.1,6.3,7.1,11.9v4.7h5v-46h-5v4.7c0,5.2-1.9,9-5.7,11.4
				c-2.8,1.8-9.9,2.6-21.3,2.6H38.3l155.6-51.1v-3.2l-155.6-51h123.6c10.4,0,17,0.7,19.9,2.1c4.7,2.3,7.1,6.2,7.1,11.9v4.7h5v-53.8
				v-2.4v-41H189C189,1736.1,188.4,1739,187.1,1740.6z"/>
			<path class="st19" d="M1199.1,1353.2h-70.6h-12.4h-36.9h-30h-18.7h-4.4h-48.6v10.2c36.2,0,41.3,58.5,41.3,58.5v458.9
				l-182.1-527.7H810h-15.6h-0.3H791h-29.6h-20.2h-8.8h-24H695h-24h-28.9l4.4-28.3v0c7.6-49.2,22.2-83.5,49.9-83.5l0-12h-45.1h-16.8
				h-45.1l0,12c36.1,0,42.7,52.2,35.8,96.5l0,0l-79,511l-69.6-539.1c0,0,0,0,0,0l-3.6-27.9c-1.9-22,1.1-40.4,27.6-40.4v-12h-54.1
				h-7.8h-19.9h-5.8h-56.2v12c27.2,0,39.2,20.9,45.6,55.9l25,185.5l-56.6,366.2L301,1309.7c0,0,0,0,0,0l-3.6-27.9
				c-1.9-22,1.1-40.4,27.6-40.4l0-12h-52.6h-9.4h-19.9h-4.2h-57.7l0,12c27.2,0,39.2,20.9,45.6,55.9l106.7,791.8v0h19.4h0l83.4-539.2
				l72.6,539.2v0h0h19.4h0L642,1354.3v9.1c25.5,0,28.7,27.8,29.1,47.1v608.2c-0.3,19.3-3.6,47.1-29.1,47.1v10.2H671h61.3h17.4h48.6
				h4.4h48.6v-10.2c-36.2,0-41.3-58.5-41.3-58.5v-528.1l208.8,605.2v0h19v-59.4v0V1936v0v-514c0,0,3.6-41.2,26.2-54.5
				c21.7,13.2,22.4,54.5,22.4,54.5v585.5c0,0-1.1,58.5-37.3,58.5v10.2h48.3h31.1h70.6c166,0,168.2-361.5,168.2-361.5
				S1365.2,1353.2,1199.1,1353.2z M791,2007.4c0,0-4.6,52.1-35.5,58c-20.2-4-22.9-28.8-23.2-46.6v-608.2c0.3-16.5,2.7-39,19.1-45.4
				c28.5,9.9,39.6,58.9,39.6,59v0l0,0V2007.4z M1177.2,2055.4c0,0-28-1.2-28-10V1384c0-8.8,28-10,28-10c130.3,0,129,336.3,129,336.3
				v8.9C1306.2,1719.1,1307.5,2055.4,1177.2,2055.4z"/>
			<path class="st19" d="M362.9,2148c-1.7-1.9-3.7-2.8-6.1-2.8c-2.4,0-4.7,0.7-7,2s-4.9,3.7-7.8,7.1l2.8-9.2l-13.3,2
				c0.1-0.8,0.1-1.7,0.1-2.5c0-3.3-0.8-6.4-2.4-9.5c-1.6-3-3.7-5.4-6.5-6.9c-2.8-1.6-6-2.3-9.5-2.3c-4.3,0-8.4,0.9-12.2,2.7
				c-3.8,1.8-7.4,4.3-10.8,7.6c-3.4,3.3-6.3,7.4-8.7,12.4c-2.4,4.9-3.7,9.9-3.7,15c0,2.8,0.7,5.8,2,8.8c1.3,3,3.4,5.5,6.2,7.3
				c2.8,1.9,6.3,2.8,10.5,2.8c5.8,0,11.4-1.7,16.9-5c5.4-3.4,9.8-8.2,13.2-14.6c2.6-4.9,4.2-9.6,4.8-14.2c1.3-0.2,2.3-0.3,3-0.3
				c0.9,0,1.5,0.2,1.9,0.6c0.4,0.4,0.6,1,0.6,1.7c0,0.5-0.3,1.9-0.9,4.1l-10.1,35c-1,3.4-1.9,5.4-2.7,6.2c-0.9,0.7-2.5,1.2-5,1.3
				l-0.4,1.5h18.8l0.4-1.5c-2.1,0-3.4-0.1-4.1-0.3c-0.7-0.2-1.2-0.5-1.5-1c-0.3-0.4-0.5-0.9-0.5-1.5c0-0.6,0.3-1.9,0.9-4l2.9-10.3
				c1.3,0.7,2.4,1.3,3.5,1.6c1,0.3,2.2,0.4,3.5,0.4c6.3,0,11.9-3,16.7-9.1c4.8-6.1,7.1-12,7.1-17.9
				C365.4,2152.3,364.6,2149.9,362.9,2148z M320.3,2158.1c-2.2,5.7-4.8,10.3-8,14c-2.5,2.9-5,5-7.3,6.2c-2.3,1.2-4.7,1.8-7.1,1.8
				c-4,0-7-1.5-8.9-4.4c-1.9-2.9-2.9-6.3-2.9-10c0-5.3,1.2-10.9,3.7-16.9c2-4.8,4.2-8.8,6.7-11.8c2.5-3,5-5.2,7.6-6.5
				c2.5-1.3,5.1-2,7.8-2c3.9,0,6.8,1.4,8.8,4.2c1.9,2.8,2.9,6,2.9,9.6C323.5,2147.2,322.5,2152.5,320.3,2158.1z M357.3,2163.3
				c-0.9,2.7-1.8,5-2.9,7c-1.1,2-2.3,3.7-3.7,5.3c-1.4,1.5-2.8,2.7-4.2,3.4c-1.4,0.8-2.8,1.2-4.2,1.2c-2.8,0-5-1-6.7-3l3.5-11.9
				c1.3-4.4,3.4-8.3,6.2-11.6c2.8-3.3,5.7-5,8.5-5c1.3,0,2.4,0.6,3.4,1.7c1,1.1,1.5,2.8,1.5,4.9
				C358.6,2157.9,358.1,2160.6,357.3,2163.3z"/>
			<path class="st19" d="M384.7,2163.7c4.5-1.6,7.9-3.8,10.2-6.4c1.8-2,2.6-4.1,2.6-6.4c0-1.6-0.7-2.9-2-4.1
				c-1.4-1.1-3.4-1.7-6.3-1.7c-3.9,0-7.7,1.2-11.4,3.5c-3.7,2.3-6.8,5.5-9.2,9.7c-2.4,4.2-3.7,8.2-3.7,12.2c0,3,1,5.7,3,8.1
				c2,2.4,4.9,3.7,8.8,3.7c5.7,0,11.7-3.1,18.1-9.4l-0.8-1.2c-3.5,2.7-6.1,4.4-7.9,5.2c-1.8,0.8-3.6,1.2-5.5,1.2
				c-2.4,0-4.4-0.8-6.1-2.5c-1.7-1.7-2.5-3.7-2.5-6.1c0-0.9,0.1-2,0.3-3.3C377.6,2165.7,381.7,2164.8,384.7,2163.7z M379.2,2151.5
				c3-2.9,5.9-4.3,8.6-4.3c1.3,0,2.3,0.3,3,1c0.7,0.7,1.1,1.6,1.1,2.7c0,1.8-0.8,3.8-2.5,5.8c-1.6,2-4.1,3.8-7.4,5.3
				c-2.5,1.1-5.7,1.9-9.6,2.3C373.9,2158.7,376.1,2154.4,379.2,2151.5z"/>
			<path class="st19" d="M425.2,2153.3c0.9-1.6,1.4-3.3,1.4-5c0-1-0.3-1.7-0.8-2.3c-0.5-0.5-1.2-0.8-2.1-0.8c-1.4,0-3.1,0.9-5.3,2.7
				c-3.8,3.2-8,8.7-12.7,16.7l5.8-19.4l-13.8,2.2l0.3,1.5c1.5-0.2,2.5-0.4,3.1-0.4c0.9,0,1.6,0.2,2.1,0.6c0.4,0.3,0.6,0.7,0.6,1.2
				c0,1.2-0.4,3.3-1.3,6.2l-7.4,24.8h6.1l1.3-5c0.2-0.6,0.8-2.4,1.9-5.5c0.8-2.2,1.8-4.2,2.9-6c2.6-4.2,5-7.5,7.2-10.1
				c1.4-1.7,2.5-2.7,3.2-3.1c0.4-0.2,0.8-0.3,1.3-0.3c0.3,0,0.5,0.1,0.8,0.3c0.2,0.2,0.3,0.5,0.4,1c0.1,0.8,0.4,1.4,0.8,1.8
				c0.4,0.4,1,0.6,1.6,0.6C423.7,2155.1,424.6,2154.5,425.2,2153.3z"/>
			<path class="st19" d="M450.7,2172.3l7.8-27.1l-6.4,1l-1.4,4.6c-0.6-2-1.4-3.4-2.5-4.2c-1.1-0.9-2.4-1.3-4.1-1.3
				c-2.7,0-5.6,1.1-8.7,3.4c-3.9,2.8-7.1,6.6-9.7,11.3c-2.5,4.7-3.8,9.2-3.8,13.4c0,2.8,0.7,5,2.1,6.6c1.4,1.6,3.1,2.4,5,2.4
				c2,0,4.1-0.7,6.2-2c2.9-1.8,6.1-5,9.6-9.5l-0.8,3c-0.6,2.1-0.9,3.8-0.9,5.2c0,1.1,0.3,1.9,0.9,2.5c0.6,0.6,1.4,0.9,2.6,0.9
				c1.7,0,3.4-0.7,5.4-2.2c1.9-1.5,3.8-3.6,5.7-6.3l-1.4-1c-1.7,2.4-3.1,4-4.2,4.8c-0.6,0.4-1,0.6-1.4,0.6c-0.3,0-0.6-0.1-0.8-0.4
				c-0.3-0.3-0.4-0.7-0.4-1.1c0-0.2,0-0.5,0.1-0.9L450.7,2172.3z M442.3,2171.2c-3.4,4.3-6.6,6.4-9.5,6.4c-1.2,0-2.2-0.5-3.1-1.6
				c-0.9-1.1-1.4-2.5-1.4-4.3c0-3.6,1.1-7.6,3.2-12.1c2.1-4.4,4.5-7.8,7.2-10.1c1.9-1.6,3.7-2.4,5.4-2.4c1.5,0,2.7,0.5,3.6,1.5
				c0.9,1,1.3,2.6,1.3,4.9C449.1,2159.7,446.9,2165.5,442.3,2171.2z"/>
			<path class="st19" d="M494.3,2136.2c0.8-0.8,1.2-1.7,1.2-2.8c0-1.1-0.4-2.1-1.2-2.8c-0.8-0.8-1.7-1.2-2.8-1.2
				c-1.1,0-2.1,0.4-2.8,1.2c-0.8,0.8-1.2,1.7-1.2,2.8c0,1.1,0.4,2,1.2,2.8c0.8,0.8,1.7,1.2,2.8,1.2S493.5,2136.9,494.3,2136.2z"/>
			<path class="st19" d="M492,2145.2l-12.2,2l0.3-1h-6.3l3.1-10.9h-1.8c-2.4,3.9-4.6,6.7-6.5,8.2c-1.9,1.6-4.4,2.8-7.3,3.6l-0.4,1.6
				h6l-6.7,23.1c-0.9,3-1.3,5.2-1.3,6.6c0,1.1,0.4,2.1,1.1,2.8c0.7,0.7,1.7,1.1,2.9,1.1c1.5,0,3-0.5,4.5-1.5c2.2-1.5,4.5-4,6.9-7.5
				l-1.3-1c-2.2,2.7-3.6,4.4-4.3,4.9c-1.1,0.9-2,1.4-2.6,1.4c-0.3,0-0.5-0.1-0.8-0.4c-0.2-0.2-0.3-0.6-0.3-1c0-0.7,0.4-2.4,1.1-4.9
				l6.9-23.6h5v0.3c1.8-0.3,3-0.4,3.6-0.4c0.7,0,1.3,0.2,1.7,0.6c0.4,0.4,0.6,0.9,0.6,1.4c0,0.7-0.4,2.6-1.3,5.5l-5.2,17.9
				c-0.7,2.3-1,3.9-1,4.9c0,1,0.3,1.8,1,2.5c0.7,0.7,1.6,1,2.7,1c1.7,0,3.4-0.7,5.2-2.1c2.4-1.9,4.6-4.2,6.4-7l-1.4-0.9
				c-1.5,2.2-3.1,3.9-4.6,5.1c-0.6,0.4-1,0.6-1.4,0.6c-0.3,0-0.6-0.1-0.9-0.4c-0.3-0.3-0.4-0.6-0.4-1c0-0.4,0.3-1.5,0.8-3.4
				L492,2145.2z"/>
			<path class="st19" d="M527,2172.4c-1.7,2.3-3.2,4-4.6,5.1c-0.5,0.3-0.8,0.5-1.2,0.5c-0.2,0-0.5-0.1-0.7-0.4
				c-0.2-0.3-0.3-0.6-0.3-0.9c0-0.4,0.3-1.6,0.8-3.6l4.9-16.8c0.8-2.7,1.2-4.8,1.2-6.4c0-1.4-0.4-2.6-1.3-3.4
				c-0.9-0.9-2-1.3-3.3-1.3c-2.4,0-5,1.2-7.6,3.5c-2.6,2.3-6.5,7.2-11.4,14.7l5.3-18.2l-13.8,2.5l0.2,1.4l1.5-0.2
				c0.8-0.1,1.4-0.2,1.7-0.2c0.7,0,1.3,0.2,1.7,0.7c0.5,0.4,0.7,1,0.7,1.5c0,0.6-0.4,2.4-1.3,5.4l-7.3,25h6l2-6.6
				c0.8-2.7,1.9-5.2,3.1-7.4c2.4-4.3,4.6-7.8,6.7-10.6c2.1-2.8,4.2-4.7,6.2-5.9c1-0.6,1.9-1,2.7-1c0.5,0,0.9,0.2,1.3,0.5
				c0.3,0.3,0.5,0.8,0.5,1.3c0,1.1-0.3,2.7-0.9,4.7l-4.6,16.1c-0.9,3.1-1.4,5.3-1.4,6.6c0,1,0.3,1.8,0.9,2.4
				c0.6,0.6,1.4,0.9,2.4,0.9c1.2,0,2.6-0.5,4.2-1.6c2.2-1.5,4.6-4,7-7.6L527,2172.4z"/>
			<path class="st19" d="M554.5,2145.8c-1.3-0.4-2.9-0.6-4.9-0.6c-5.5,0-9.9,1.5-13.2,4.5c-3.3,3-5,6.4-5,10.1
				c0,2.3,0.9,4.4,2.6,6.3c1.7,1.9,4,3.1,7,3.7c-3.5,1.4-5.8,2.8-6.8,4c-1.1,1.2-1.6,2.3-1.6,3.4c0,1.1,0.6,2.2,1.8,3.2
				c-3.4,1.9-5.4,3.1-6.1,3.6c-1.1,0.8-2.1,1.8-2.9,3.1c-0.8,1.2-1.1,2.4-1.1,3.6c0,1.4,0.6,2.8,1.8,4.1c1.2,1.3,3.1,2.4,5.8,3.2
				c2.7,0.8,5.7,1.2,9,1.2c3.8,0,7.2-0.5,10.3-1.5c3.1-1,5.5-2.4,7.1-4.3c1.6-1.8,2.4-3.8,2.4-6c0-1.8-0.7-3.5-2-4.9
				c-1.4-1.4-4.2-2.6-8.5-3.6l-7.7-1.8c-1.9-0.5-3.2-0.9-3.6-1.3c-0.5-0.4-0.7-0.9-0.7-1.5c0-0.5,0.3-0.9,0.8-1.3
				c1.4-1.2,3.5-2.2,6.4-3c5.2-0.3,9.4-1.8,12.4-4.6c3-2.7,4.5-5.9,4.5-9.4c0-1.3-0.3-2.6-0.8-4h6.7l1.2-4.2h-10.8
				C557,2146.8,555.8,2146.2,554.5,2145.8z M548.4,2184.3c2.9,0.6,4.8,1.3,5.8,2.3c1,0.9,1.5,1.9,1.5,3c0,2.1-1.4,3.7-4.1,5
				c-2.7,1.3-6,1.9-9.8,1.9c-4.4,0-7.8-0.8-10.1-2.5c-1.6-1.1-2.4-2.6-2.4-4.4c0-1.5,0.6-3,1.7-4.6c1.1-1.5,2.7-2.8,4.9-3.8
				C542.7,2183,546.8,2184,548.4,2184.3z M554.3,2158.5c-0.5,2.1-1.3,3.8-2.2,5.2c-0.9,1.4-2,2.4-3.3,3.2c-1.3,0.8-2.7,1.2-4.1,1.2
				c-1.8,0-3.3-0.7-4.6-2c-1.3-1.3-1.9-3-1.9-5c0-3.3,1-6.4,2.9-9.4c2-3,4.4-4.5,7.4-4.5c1.9,0,3.5,0.6,4.7,1.8
				c1.2,1.2,1.8,2.9,1.8,5C555.1,2154.9,554.9,2156.4,554.3,2158.5z"/>
			<path class="st19" d="M611.8,2174.5c1.5-2.6,2.2-5.2,2.2-8c0-2.4-0.6-4.7-1.8-6.8c-1.2-2.1-3.7-5.1-7.7-8.9
				c-4-3.8-6.5-6.6-7.6-8.3c-1.1-1.7-1.7-3.5-1.7-5.3c0-2.1,0.9-4,2.6-5.6c1.7-1.6,4-2.4,6.7-2.4c3.5,0,6.3,1,8.4,3.1
				c2.1,2.1,3.2,4.7,3.2,7.9c0,1-0.1,2.3-0.2,3.9h1.4l4.2-18H620c-0.7,1.3-1.4,2.2-2,2.6c-0.6,0.4-1.2,0.6-2,0.6
				c-0.5,0-0.9,0-1.2-0.1c-0.2-0.1-1-0.4-2.6-1c-2.2-0.9-3.7-1.4-4.5-1.6c-1.3-0.3-2.7-0.4-4.2-0.4c-4.4,0-8,1.3-10.9,4
				c-2.8,2.7-4.2,5.9-4.2,9.7c0,2.4,0.6,4.6,1.8,6.8c0.7,1.3,2.4,3.3,5.1,6c5.4,5.6,8.8,9.5,10,11.7c0.8,1.5,1.2,3.1,1.2,5
				c0,2.8-0.9,5.3-2.7,7.4c-1.8,2.1-4.5,3.2-7.9,3.2c-3.8,0-6.8-1.1-9.1-3.4c-2.3-2.3-3.5-5.3-3.5-8.9c0-1.3,0.1-2.9,0.3-4.8h-1.4
				l-4.5,20.1h1.5c0.9-2.1,2.1-3.2,3.7-3.2c0.7,0,1.6,0.2,2.6,0.6c3,1.1,5.2,1.9,6.6,2.2c1.4,0.3,2.9,0.4,4.5,0.4
				c3.2,0,6.2-0.7,8.9-2.1C608.3,2179.1,610.4,2177.1,611.8,2174.5z"/>
			<path class="st19" d="M648.8,2150.7c0-1.7-0.4-3-1.2-4c-0.8-1-1.8-1.5-3-1.5c-1,0-1.8,0.3-2.4,1c-0.6,0.7-1,1.5-1,2.6
				c0,0.9,0.3,1.7,0.8,2.3c0.5,0.7,1.2,1.1,2,1.4c0.8,0.3,1.3,0.5,1.5,0.7c0.2,0.2,0.3,0.4,0.3,0.7c0,0.5-0.1,0.9-0.2,1.3
				c-0.3,0.9-1.1,2.3-2.4,4.5c-2.2,3.5-4,6.2-5.4,8.3c-3,4.2-5.4,7.2-6.9,9.1l-1.8-19.6c-0.3-3.9-0.7-6.6-1-7.9
				c-0.3-1.3-1-2.8-1.9-4.3l-11.7,2.9l0.4,1.5c1.4-0.2,2.4-0.2,3-0.2c1.8,0,3,0.5,3.8,1.4c0.7,0.9,1.3,3.4,1.7,7.6l2.2,25.3
				c-1.2,1.7-3.1,3.8-5.7,6.4c-1.9,2-3.6,3.4-5.1,4.3c-0.4,0.3-0.7,0.4-0.8,0.4c-0.2,0-0.3-0.1-0.5-0.2c-0.2-0.2-0.4-0.6-0.7-1.3
				c-0.3-0.6-0.5-1-0.7-1.1c-0.3-0.2-0.8-0.4-1.3-0.4c-1,0-2,0.4-2.8,1.3c-0.9,0.9-1.3,1.8-1.3,2.8c0,0.8,0.3,1.6,0.9,2.2
				c0.6,0.6,1.4,0.9,2.2,0.9c1.4,0,3-0.6,5-1.8c1.9-1.2,4.9-4.1,8.9-8.6c5.8-6.6,10.8-12.7,14.9-18.3c4.1-5.6,6.9-9.7,8.3-12.4
				C648,2155.2,648.8,2152.8,648.8,2150.7z"/>
			<path class="st19" d="M669.2,2147.1c-0.5,0-1.4-0.3-2.7-0.8c-1.4-0.5-2.2-0.8-2.6-0.9c-0.7-0.1-1.5-0.2-2.3-0.2
				c-3,0-5.4,0.9-7.2,2.7s-2.8,4-2.8,6.5c0,1.4,0.3,2.8,1,4.2c0.7,1.4,2.2,3.5,4.6,6.3c2.4,2.8,3.9,5,4.7,6.6c0.4,0.9,0.6,1.9,0.6,3
				c0,1.7-0.6,3-1.8,4.2c-1.2,1.1-2.8,1.7-4.8,1.7c-2.6,0-4.7-0.8-6.2-2.5c-1.5-1.7-2.4-4.5-2.5-8.6h-1.5l-2.4,12.9h1.5
				c0.6-1.2,1.5-1.8,2.7-1.8c0.5,0,1.2,0.2,2,0.5c2.5,0.9,4.7,1.4,6.6,1.4c3.5,0,6.4-1.1,8.7-3.2c2.3-2.1,3.5-4.6,3.5-7.4
				c0-1.7-0.5-3.5-1.5-5.4c-1-1.9-3.2-4.8-6.7-8.5c-1.3-1.4-2.2-2.6-2.5-3.4c-0.4-0.8-0.6-1.6-0.6-2.5c0-1.3,0.5-2.4,1.5-3.3
				c1-0.9,2.3-1.4,3.9-1.4c2.1,0,3.8,0.8,5.2,2.4c1.4,1.6,2.1,4.2,2.3,7.8h1.5l2.4-12.3h-1.5
				C671.3,2146.5,670.4,2147.1,669.2,2147.1z"/>
			<path class="st19" d="M683.8,2177.2c-1.1,0.9-2,1.4-2.6,1.4c-0.3,0-0.5-0.1-0.8-0.4c-0.2-0.2-0.3-0.6-0.3-1
				c0-0.7,0.4-2.4,1.1-4.9l6.9-23.6h6.2l0.7-2.5h-6.3l3.1-10.9H690c-2.4,3.9-4.6,6.7-6.5,8.2c-1.9,1.6-4.4,2.8-7.3,3.6l-0.4,1.6h6
				l-6.7,23.1c-0.9,3-1.3,5.2-1.3,6.6c0,1.1,0.4,2.1,1.1,2.8c0.7,0.7,1.7,1.1,2.9,1.1c1.5,0,3-0.5,4.5-1.5c2.2-1.5,4.5-4,6.9-7.5
				l-1.3-1C685.8,2175,684.4,2176.6,683.8,2177.2z"/>
			<path class="st19" d="M711.7,2177c-1.8,0.8-3.6,1.2-5.5,1.2c-2.4,0-4.4-0.8-6.1-2.5c-1.7-1.7-2.5-3.7-2.5-6.1
				c0-0.9,0.1-2,0.3-3.3c5.4-0.6,9.6-1.5,12.6-2.6c4.5-1.6,7.9-3.8,10.2-6.4c1.8-2,2.6-4.1,2.6-6.4c0-1.6-0.7-2.9-2-4.1
				c-1.4-1.1-3.4-1.7-6.3-1.7c-3.9,0-7.7,1.2-11.4,3.5c-3.7,2.3-6.8,5.5-9.2,9.7c-2.5,4.2-3.7,8.2-3.7,12.2c0,3,1,5.7,3,8.1
				c2,2.4,4.9,3.7,8.8,3.7c5.7,0,11.7-3.1,18.1-9.4l-0.8-1.2C716.1,2174.5,713.4,2176.2,711.7,2177z M704.8,2151.5
				c3-2.9,5.9-4.3,8.6-4.3c1.3,0,2.3,0.3,3,1c0.7,0.7,1.1,1.6,1.1,2.7c0,1.8-0.8,3.8-2.5,5.8c-1.6,2-4.1,3.8-7.4,5.3
				c-2.5,1.1-5.7,1.9-9.6,2.3C699.5,2158.7,701.8,2154.4,704.8,2151.5z"/>
			<path class="st19" d="M769,2176.9c-0.7,0.5-1.1,0.8-1.4,0.8s-0.5-0.1-0.6-0.3c-0.2-0.3-0.4-0.6-0.4-1c0-0.4,0.5-2.2,1.4-5.6
				l4.4-15.5c0.5-1.7,0.7-3.4,0.7-4.9c0-1.8-0.4-3.1-1.2-3.9c-0.8-0.8-1.8-1.3-3-1.3c-2.1,0-4.2,0.9-6.4,2.7c-3.9,3.3-8,9-12.3,17.1
				l2.8-10.1c0.6-2.1,0.9-3.8,0.9-5.1c0-1.3-0.4-2.4-1.3-3.3c-0.9-0.9-2-1.3-3.3-1.3c-1.5,0-3,0.4-4.4,1.3c-2.4,1.5-4.9,3.9-7.4,7.2
				c-1.6,2.1-3.6,5.3-5.9,9.5l5.2-18l-13.8,2.5l0.4,1.5c1.6-0.3,2.5-0.5,2.9-0.5c0.8,0,1.5,0.2,2,0.7c0.5,0.5,0.8,1,0.8,1.6
				c0,0.2-0.1,0.6-0.3,1.1l-1,3.4l-7.4,25.9h5.9c2.5-7.9,4.1-12.6,4.8-14.1c1.4-3.1,3.3-6.4,5.9-9.8c2.5-3.4,4.6-5.6,6.2-6.7
				c1-0.6,1.9-1,2.8-1c0.4,0,0.8,0.2,1.1,0.5c0.3,0.3,0.4,0.9,0.4,1.6c0,0.9-0.4,2.6-1.1,5.2l-6.8,24.2h6c1.8-6.3,3.8-11.4,5.9-15.5
				c3.2-6.1,6.6-10.8,10.3-14.2c1.3-1.1,2.4-1.7,3.6-1.7c0.4,0,0.8,0.2,1.1,0.6c0.3,0.4,0.4,0.9,0.4,1.6c0,0.5,0,1-0.1,1.5
				c-0.1,0.3-0.5,2-1.3,4.9l-3.6,12.8c-1.1,3.9-1.6,6.4-1.6,7.7c0,0.9,0.3,1.7,0.9,2.4c0.6,0.6,1.4,1,2.3,1c1,0,2.1-0.3,3.3-1
				c1.2-0.7,2.6-1.9,4.3-3.8c1.7-1.9,2.9-3.3,3.5-4.4l-1.3-0.8C772,2174.2,770.6,2175.7,769,2176.9z"/>
			<path class="st19" d="M890.5,2132.6c1.5-1.4,2.9-2.5,4.4-3.2c0.8-0.4,1.8-0.7,3.1-0.8l0.4-1.5h-16.3l-0.5,1.5
				c1.7,0.1,2.8,0.4,3.4,1c0.6,0.5,0.9,1.2,0.9,1.9c0,0.6-0.2,1.3-0.6,2.2c-0.6,1.2-2,3.4-4.3,6.5l-21.1,28.8l3.2-32.3
				c0.3-2.7,0.6-4.4,0.8-5c0.5-1.1,1.2-1.9,2.1-2.3c0.9-0.5,2.5-0.7,4.8-0.7l0.4-1.5h-21.4l-0.4,1.5h1.4c1.9,0,3.3,0.4,4.2,1.2
				c0.9,0.8,1.3,1.8,1.3,3c0,0.8-0.1,2.3-0.3,4.6l-4.5,45.1h1.4l30.5-41.5C886.7,2136.8,889,2134,890.5,2132.6z"/>
			<path class="st19" d="M897.2,2163.7c4.5-1.6,7.9-3.8,10.2-6.4c1.8-2,2.6-4.1,2.6-6.4c0-1.6-0.7-2.9-2-4.1
				c-1.4-1.1-3.4-1.7-6.3-1.7c-3.9,0-7.7,1.2-11.4,3.5c-3.7,2.3-6.8,5.5-9.2,9.7c-2.5,4.2-3.7,8.2-3.7,12.2c0,3,1,5.7,3,8.1
				c2,2.4,4.9,3.7,8.8,3.7c5.7,0,11.7-3.1,18.1-9.4l-0.8-1.2c-3.5,2.7-6.1,4.4-7.9,5.2c-1.8,0.8-3.6,1.2-5.5,1.2
				c-2.4,0-4.4-0.8-6.1-2.5c-1.7-1.7-2.5-3.7-2.5-6.1c0-0.9,0.1-2,0.3-3.3C890,2165.7,894.2,2164.8,897.2,2163.7z M891.6,2151.5
				c3-2.9,5.9-4.3,8.6-4.3c1.3,0,2.3,0.3,3,1c0.7,0.7,1.1,1.6,1.1,2.7c0,1.8-0.8,3.8-2.5,5.8c-1.6,2-4.1,3.8-7.4,5.3
				c-2.5,1.1-5.7,1.9-9.6,2.3C886.3,2158.7,888.6,2154.4,891.6,2151.5z"/>
			<path class="st19" d="M932.5,2152.6c0.1,0.8,0.4,1.4,0.8,1.8s1,0.6,1.6,0.6c1.2,0,2.1-0.6,2.8-1.8c0.9-1.6,1.4-3.3,1.4-5
				c0-1-0.3-1.7-0.8-2.3c-0.5-0.5-1.2-0.8-2.1-0.8c-1.4,0-3.1,0.9-5.3,2.7c-3.8,3.2-8,8.7-12.7,16.7l5.8-19.4l-13.8,2.2l0.3,1.5
				c1.5-0.2,2.5-0.4,3.1-0.4c0.9,0,1.6,0.2,2.1,0.6c0.4,0.3,0.6,0.7,0.6,1.2c0,1.2-0.4,3.3-1.3,6.2l-7.4,24.8h6.1l1.3-5
				c0.2-0.6,0.8-2.4,1.9-5.5c0.8-2.2,1.8-4.2,2.9-6c2.6-4.2,5-7.5,7.2-10.1c1.4-1.7,2.5-2.7,3.2-3.1c0.4-0.2,0.8-0.3,1.3-0.3
				c0.3,0,0.5,0.1,0.8,0.3C932.4,2151.8,932.5,2152.1,932.5,2152.6z"/>
			<path class="st19" d="M957.8,2147.1c-0.5,0-1.4-0.3-2.7-0.8c-1.4-0.5-2.2-0.8-2.6-0.9c-0.7-0.1-1.5-0.2-2.3-0.2
				c-3,0-5.4,0.9-7.2,2.7c-1.9,1.8-2.8,4-2.8,6.5c0,1.4,0.3,2.8,1,4.2c0.7,1.4,2.2,3.5,4.6,6.3c2.4,2.8,3.9,5,4.7,6.6
				c0.4,0.9,0.6,1.9,0.6,3c0,1.7-0.6,3-1.8,4.2c-1.2,1.1-2.8,1.7-4.8,1.7c-2.6,0-4.7-0.8-6.2-2.5c-1.5-1.7-2.4-4.5-2.5-8.6h-1.5
				l-2.4,12.9h1.5c0.6-1.2,1.5-1.8,2.7-1.8c0.5,0,1.2,0.2,2,0.5c2.5,0.9,4.7,1.4,6.6,1.4c3.5,0,6.4-1.1,8.7-3.2
				c2.3-2.1,3.5-4.6,3.5-7.4c0-1.7-0.5-3.5-1.5-5.4c-1-1.9-3.2-4.8-6.7-8.5c-1.3-1.4-2.2-2.6-2.5-3.4c-0.4-0.8-0.6-1.6-0.6-2.5
				c0-1.3,0.5-2.4,1.5-3.3c1-0.9,2.3-1.4,3.9-1.4c2,0,3.8,0.8,5.2,2.4c1.4,1.6,2.1,4.2,2.3,7.8h1.5l2.4-12.3h-1.5
				C959.9,2146.5,959,2147.1,957.8,2147.1z"/>
			<path class="st19" d="M980.2,2136.2c0.8-0.8,1.2-1.7,1.2-2.8c0-1.1-0.4-2.1-1.2-2.8c-0.8-0.8-1.7-1.2-2.8-1.2
				c-1.1,0-2.1,0.4-2.8,1.2c-0.8,0.8-1.2,1.7-1.2,2.8c0,1.1,0.4,2,1.2,2.8c0.8,0.8,1.7,1.2,2.8,1.2S979.5,2136.9,980.2,2136.2z"/>
			<path class="st19" d="M977.9,2145.2l-13.8,2.2v1.6c1.8-0.3,3-0.4,3.6-0.4c0.7,0,1.3,0.2,1.7,0.6c0.4,0.4,0.6,0.9,0.6,1.4
				c0,0.7-0.4,2.6-1.3,5.5l-5.2,17.9c-0.7,2.3-1,3.9-1,4.9c0,1,0.3,1.8,1,2.5c0.7,0.7,1.6,1,2.7,1c1.7,0,3.4-0.7,5.2-2.1
				c2.4-1.9,4.6-4.2,6.4-7l-1.4-0.9c-1.5,2.2-3.1,3.9-4.6,5.1c-0.6,0.4-1,0.6-1.4,0.6c-0.3,0-0.6-0.1-0.9-0.4
				c-0.3-0.3-0.4-0.6-0.4-1c0-0.4,0.3-1.5,0.8-3.4L977.9,2145.2z"/>
			<path class="st19" d="M1011,2148.7c-2.3-2.3-5.2-3.5-8.7-3.5s-7.2,1.1-10.9,3.4c-3.8,2.3-6.8,5.4-9,9.3
				c-2.2,3.9-3.4,7.9-3.4,11.8c0,3.7,1.2,6.7,3.5,9c2.3,2.3,5.3,3.5,8.9,3.5c3.6,0,7.2-1.1,11-3.4c3.8-2.3,6.7-5.4,8.8-9.3
				c2.1-3.9,3.2-7.9,3.2-11.9C1014.4,2154,1013.3,2151,1011,2148.7z M1002.9,2171.9c-3.3,5.6-6.8,8.4-10.6,8.4
				c-1.9,0-3.6-0.7-4.8-2.1c-1.3-1.4-1.9-3.3-1.9-5.9c0-5.5,1.6-11.1,4.9-16.7c3.3-5.6,6.9-8.4,10.8-8.4c1.9,0,3.5,0.7,4.7,2
				c1.2,1.3,1.8,3.2,1.8,5.7C1007.8,2160.7,1006.2,2166.4,1002.9,2171.9z"/>
			<path class="st19" d="M1044,2177.5c-0.5,0.3-0.8,0.5-1.2,0.5c-0.2,0-0.5-0.1-0.7-0.4c-0.2-0.3-0.3-0.6-0.3-0.9
				c0-0.4,0.3-1.6,0.8-3.6l4.9-16.8c0.8-2.7,1.2-4.8,1.2-6.4c0-1.4-0.4-2.6-1.3-3.4c-0.9-0.9-2-1.3-3.3-1.3c-2.4,0-5,1.2-7.6,3.5
				c-2.6,2.3-6.5,7.2-11.4,14.7l5.3-18.2l-13.8,2.5l0.2,1.4l1.5-0.2c0.8-0.1,1.4-0.2,1.7-0.2c0.7,0,1.3,0.2,1.7,0.7
				c0.5,0.4,0.7,1,0.7,1.5c0,0.6-0.4,2.4-1.3,5.4l-7.3,25h6l2-6.6c0.8-2.7,1.9-5.2,3.1-7.4c2.4-4.3,4.6-7.8,6.7-10.6
				c2.1-2.8,4.2-4.7,6.1-5.9c1-0.6,1.9-1,2.7-1c0.5,0,0.9,0.2,1.3,0.5c0.3,0.3,0.5,0.8,0.5,1.3c0,1.1-0.3,2.7-0.9,4.7l-4.6,16.1
				c-0.9,3.1-1.4,5.3-1.4,6.6c0,1,0.3,1.8,0.9,2.4s1.4,0.9,2.4,0.9c1.2,0,2.6-0.5,4.2-1.6c2.2-1.5,4.6-4,7-7.6l-1.2-0.8
				C1046.9,2174.7,1045.4,2176.4,1044,2177.5z"/>
			<path class="st19" d="M1089.7,2126.1c-2.6,0-5,0.8-7.1,2.4c-2.2,1.6-3.9,3.9-5.3,7l1.5,0.4c2.3-3.7,5-5.6,7.9-5.6
				c1.9,0,3.5,0.7,4.8,2.1c1.3,1.4,2,3.1,2,5.2c0,2.8-1.1,5.2-3.4,7.2c-3.2,2.8-8,4.8-14.4,5.8v1.2c2.7,0.2,5.2,0.9,7.4,2.1
				c2.3,1.2,3.9,2.9,5,4.9c1.1,2,1.6,4.3,1.6,6.8c0,3.1-0.8,6.1-2.3,8.9c-1.6,2.8-3.5,4.2-5.9,4.2c-1,0-1.9-0.2-2.9-0.5
				c-0.9-0.3-2.2-0.9-3.9-1.9c-1.7-0.9-2.7-1.5-3.1-1.6c-0.7-0.2-1.4-0.3-2.1-0.3c-1,0-1.8,0.3-2.5,1c-0.7,0.7-1,1.5-1,2.4
				c0,1.1,0.6,2,1.7,2.8c1.7,1.2,4.3,1.8,7.6,1.8c3.7,0,7.2-0.9,10.5-2.7s6-4.4,7.9-7.7c1.9-3.3,2.9-6.7,2.9-10c0-3-0.7-5.6-2.1-7.7
				c-1.4-2.1-3.5-3.8-6.3-4.9c4.4-1.8,7.6-3.8,9.4-6.1c1.8-2.3,2.7-4.6,2.7-7.1c0-2.9-1-5.3-2.9-7.1
				C1095.4,2127,1092.9,2126.1,1089.7,2126.1z"/>
			<path class="st19" d="M1105.6,2174.2c-1.1,0-2.1,0.4-2.9,1.2c-0.8,0.8-1.2,1.7-1.2,2.9s0.4,2.1,1.2,2.9c0.8,0.8,1.7,1.2,2.9,1.2
				c1.1,0,2.1-0.4,2.9-1.2c0.8-0.8,1.2-1.7,1.2-2.9s-0.4-2.1-1.2-2.9C1107.7,2174.6,1106.8,2174.2,1105.6,2174.2z"/>
			<path class="st19" d="M1148.2,2126.1h-1.9l-13.5,3.8l0.5,1.4c1.5-0.3,2.5-0.5,3.2-0.5c0.9,0,1.6,0.3,2.1,0.8
				c0.5,0.5,0.8,1.3,0.8,2.2c0,0.5,0,1-0.1,1.6c-0.1,0.3-0.4,1.4-0.9,3.4l-9.3,32.1c-0.9,3.2-1.8,5.4-2.7,6.6
				c-0.6,0.8-1.4,1.4-2.5,1.9c-0.7,0.3-2.1,0.5-4.3,0.5l-0.6,1.5h20.6l0.4-1.5c-2.5-0.2-4.1-0.5-4.8-1.1c-0.7-0.5-1-1.3-1-2.3
				c0-1.2,0.4-3.1,1.1-5.7L1148.2,2126.1z"/>
		</g>
	</g>
</g>
</svg>
