<?xml version="1.0" encoding="UTF-8" standalone="no"?>
<!-- Created with Inkscape (http://www.inkscape.org/) -->

<svg
   xmlns:dc="http://purl.org/dc/elements/1.1/"
   xmlns:cc="http://creativecommons.org/ns#"
   xmlns:rdf="http://www.w3.org/1999/02/22-rdf-syntax-ns#"
   xmlns:svg="http://www.w3.org/2000/svg"
   xmlns="http://www.w3.org/2000/svg"
   xmlns:sodipodi="http://sodipodi.sourceforge.net/DTD/sodipodi-0.dtd"
   xmlns:inkscape="http://www.inkscape.org/namespaces/inkscape"
   width="71.59285mm"
   height="80.087967mm"
   viewBox="0 0 71.59285 80.087967"
   version="1.1"
   id="svg8"
   inkscape:version="0.92.2 (5c3e80d, 2017-08-06)"
   sodipodi:docname="Toaplan logo.svg">
  <defs
     id="defs2" />
  <sodipodi:namedview
     id="base"
     pagecolor="#ffffff"
     bordercolor="#666666"
     borderopacity="1.0"
     inkscape:pageopacity="0.0"
     inkscape:pageshadow="2"
     inkscape:zoom="0.35"
     inkscape:cx="8.330688"
     inkscape:cy="153.9935"
     inkscape:document-units="mm"
     inkscape:current-layer="layer1"
     showgrid="true"
     showguides="true"
     fit-margin-top="0"
     fit-margin-left="0"
     fit-margin-right="0"
     fit-margin-bottom="0"
     inkscape:window-width="1366"
     inkscape:window-height="705"
     inkscape:window-x="-8"
     inkscape:window-y="-8"
     inkscape:window-maximized="1" />
  <metadata
     id="metadata5">
    <rdf:RDF>
      <cc:Work
         rdf:about="">
        <dc:format>image/svg+xml</dc:format>
        <dc:type
           rdf:resource="http://purl.org/dc/dcmitype/StillImage" />
        <dc:title></dc:title>
      </cc:Work>
    </rdf:RDF>
  </metadata>
  <g
     inkscape:label="Layer 1"
     inkscape:groupmode="layer"
     id="layer1"
     transform="translate(149.76688,-34.332196)">
    <g
       id="g5191">
      <path
         inkscape:connector-curvature="0"
         id="rect4907"
         d="m -113.0729,34.332196 v 16.48995 h 16.489427 v -16.48995 z m 3.26905,3.254065 h 9.946675 v 10.005074 h -9.946675 z"
         style="opacity:1;fill:#000000;fill-opacity:1;fill-rule:nonzero;stroke:none;stroke-width:3.42000008;stroke-linecap:round;stroke-linejoin:miter;stroke-miterlimit:4;stroke-dasharray:none;stroke-opacity:1;paint-order:stroke fill markers" />
      <path
         sodipodi:nodetypes="ccssccccccc"
         inkscape:connector-curvature="0"
         id="path4565-0-7-8-1"
         d="m -94.995972,50.822008 h 16.679695 v -1.616156 c 0,-8.196192 -6.755515,-14.873656 -15.045115,-14.873656 h -1.63458 v 1.614227 z m 3.26915,-3.230382 V 37.586552 c 5.15095,0.734369 9.2047,4.911918 9.946675,10.005074 z"
         style="color:#000000;font-style:normal;font-variant:normal;font-weight:normal;font-stretch:normal;font-size:medium;line-height:normal;font-family:sans-serif;font-variant-ligatures:normal;font-variant-position:normal;font-variant-caps:normal;font-variant-numeric:normal;font-variant-alternates:normal;font-feature-settings:normal;text-indent:0;text-align:start;text-decoration:none;text-decoration-line:none;text-decoration-style:solid;text-decoration-color:#000000;letter-spacing:normal;word-spacing:normal;text-transform:none;writing-mode:lr-tb;direction:ltr;text-orientation:mixed;dominant-baseline:auto;baseline-shift:baseline;text-anchor:start;white-space:normal;shape-padding:0;clip-rule:nonzero;display:inline;overflow:visible;visibility:visible;opacity:1;isolation:auto;mix-blend-mode:normal;color-interpolation:sRGB;color-interpolation-filters:linearRGB;solid-color:#000000;solid-opacity:1;vector-effect:none;fill:#000000;fill-opacity:1;fill-rule:nonzero;stroke:none;stroke-width:3.24996567;stroke-linecap:round;stroke-linejoin:miter;stroke-miterlimit:4;stroke-dasharray:none;stroke-dashoffset:0;stroke-opacity:1;paint-order:stroke fill markers;color-rendering:auto;image-rendering:auto;shape-rendering:auto;text-rendering:auto;enable-background:accumulate" />
      <path
         inkscape:connector-curvature="0"
         id="rect4907-3"
         d="m -113.0729,68.899321 v -16.48995 h 16.489428 v 16.48995 z m 3.26905,-3.254065 h 9.946678 V 55.640182 h -9.946678 z"
         style="opacity:1;fill:#000000;fill-opacity:1;fill-rule:nonzero;stroke:none;stroke-width:3.42000008;stroke-linecap:round;stroke-linejoin:miter;stroke-miterlimit:4;stroke-dasharray:none;stroke-opacity:1;paint-order:stroke fill markers" />
      <path
         sodipodi:nodetypes="ccssccccccc"
         inkscape:connector-curvature="0"
         id="path4565-0-7-8-1-5"
         d="m -94.995972,52.409509 h 16.679695 v 1.616156 c 0,8.196192 -6.755515,14.873656 -15.045115,14.873656 h -1.63458 v -1.614227 z m 3.26915,3.230382 v 10.005074 c 5.15095,-0.734369 9.2047,-4.911918 9.94667,-10.005074 z"
         style="color:#000000;font-style:normal;font-variant:normal;font-weight:normal;font-stretch:normal;font-size:medium;line-height:normal;font-family:sans-serif;font-variant-ligatures:normal;font-variant-position:normal;font-variant-caps:normal;font-variant-numeric:normal;font-variant-alternates:normal;font-feature-settings:normal;text-indent:0;text-align:start;text-decoration:none;text-decoration-line:none;text-decoration-style:solid;text-decoration-color:#000000;letter-spacing:normal;word-spacing:normal;text-transform:none;writing-mode:lr-tb;direction:ltr;text-orientation:mixed;dominant-baseline:auto;baseline-shift:baseline;text-anchor:start;white-space:normal;shape-padding:0;clip-rule:nonzero;display:inline;overflow:visible;visibility:visible;opacity:1;isolation:auto;mix-blend-mode:normal;color-interpolation:sRGB;color-interpolation-filters:linearRGB;solid-color:#000000;solid-opacity:1;vector-effect:none;fill:#000000;fill-opacity:1;fill-rule:nonzero;stroke:none;stroke-width:3.24996567;stroke-linecap:round;stroke-linejoin:miter;stroke-miterlimit:4;stroke-dasharray:none;stroke-dashoffset:0;stroke-opacity:1;paint-order:stroke fill markers;color-rendering:auto;image-rendering:auto;shape-rendering:auto;text-rendering:auto;enable-background:accumulate" />
      <path
         inkscape:connector-curvature="0"
         id="rect4907-0"
         d="m -131.14984,34.332196 v 16.48995 h 16.48943 v -16.48995 z m 3.26905,3.254065 h 9.94668 v 10.005074 h -9.94668 z"
         style="opacity:1;fill:#000000;fill-opacity:1;fill-rule:nonzero;stroke:none;stroke-width:3.42000008;stroke-linecap:round;stroke-linejoin:miter;stroke-miterlimit:4;stroke-dasharray:none;stroke-opacity:1;paint-order:stroke fill markers" />
      <path
         inkscape:connector-curvature="0"
         id="rect4907-3-9"
         d="m -131.14984,68.899321 v -16.48995 h 16.48943 v 16.48995 z m 3.26905,-3.254066 h 9.94668 V 55.640182 h -9.94668 z"
         style="opacity:1;fill:#000000;fill-opacity:1;fill-rule:nonzero;stroke:none;stroke-width:3.42000008;stroke-linecap:round;stroke-linejoin:miter;stroke-miterlimit:4;stroke-dasharray:none;stroke-opacity:1;paint-order:stroke fill markers" />
      <path
         sodipodi:nodetypes="ccssccccccc"
         inkscape:connector-curvature="0"
         id="path4565-0-7-8-1-2"
         d="m -132.73735,50.822008 h -16.6797 v -1.616156 c 0,-8.196192 6.75552,-14.873656 15.04512,-14.873656 h 1.63458 v 1.614227 z m -3.26915,-3.230382 V 37.586552 c -5.15095,0.734369 -9.2047,4.911918 -9.94668,10.005074 z"
         style="color:#000000;font-style:normal;font-variant:normal;font-weight:normal;font-stretch:normal;font-size:medium;line-height:normal;font-family:sans-serif;font-variant-ligatures:normal;font-variant-position:normal;font-variant-caps:normal;font-variant-numeric:normal;font-variant-alternates:normal;font-feature-settings:normal;text-indent:0;text-align:start;text-decoration:none;text-decoration-line:none;text-decoration-style:solid;text-decoration-color:#000000;letter-spacing:normal;word-spacing:normal;text-transform:none;writing-mode:lr-tb;direction:ltr;text-orientation:mixed;dominant-baseline:auto;baseline-shift:baseline;text-anchor:start;white-space:normal;shape-padding:0;clip-rule:nonzero;display:inline;overflow:visible;visibility:visible;opacity:1;isolation:auto;mix-blend-mode:normal;color-interpolation:sRGB;color-interpolation-filters:linearRGB;solid-color:#000000;solid-opacity:1;vector-effect:none;fill:#000000;fill-opacity:1;fill-rule:nonzero;stroke:none;stroke-width:3.24996567;stroke-linecap:round;stroke-linejoin:miter;stroke-miterlimit:4;stroke-dasharray:none;stroke-dashoffset:0;stroke-opacity:1;paint-order:stroke fill markers;color-rendering:auto;image-rendering:auto;shape-rendering:auto;text-rendering:auto;enable-background:accumulate" />
      <path
         inkscape:connector-curvature="0"
         id="rect4907-3-9-6"
         d="m -149.22678,68.899459 v -16.48995 h 16.48943 v 16.48995 z m 3.26905,-3.254066 h 9.94668 V 55.64032 h -9.94668 z"
         style="opacity:1;fill:#000000;fill-opacity:1;fill-rule:nonzero;stroke:none;stroke-width:3.42000008;stroke-linecap:round;stroke-linejoin:miter;stroke-miterlimit:4;stroke-dasharray:none;stroke-opacity:1;paint-order:stroke fill markers" />
      <path
         inkscape:connector-curvature="0"
         id="rect4907-3-9-5"
         d="m -131.14984,86.976772 v -16.48995 h 16.48943 v 16.48995 z m 3.26905,-3.254066 h 9.94668 V 73.717633 h -9.94668 z"
         style="opacity:1;fill:#000000;fill-opacity:1;fill-rule:nonzero;stroke:none;stroke-width:3.42000008;stroke-linecap:round;stroke-linejoin:miter;stroke-miterlimit:4;stroke-dasharray:none;stroke-opacity:1;paint-order:stroke fill markers" />
      <path
         inkscape:connector-curvature="0"
         id="rect4907-3-9-6-7"
         d="M -149.22678,86.97691 V 70.48696 h 16.48943 v 16.48995 z m 3.26905,-3.254066 h 9.94668 V 73.717771 h -9.94668 z"
         style="opacity:1;fill:#000000;fill-opacity:1;fill-rule:nonzero;stroke:none;stroke-width:3.42000008;stroke-linecap:round;stroke-linejoin:miter;stroke-miterlimit:4;stroke-dasharray:none;stroke-opacity:1;paint-order:stroke fill markers" />
      <path
         inkscape:connector-curvature="0"
         id="rect4907-5"
         d="M -113.0729,105.05423 V 88.564273 h 16.489428 v 16.489957 z m 3.26905,-3.25406 h 9.946678 V 91.795084 h -9.946678 z"
         style="opacity:1;fill:#000000;fill-opacity:1;fill-rule:nonzero;stroke:none;stroke-width:3.42000008;stroke-linecap:round;stroke-linejoin:miter;stroke-miterlimit:4;stroke-dasharray:none;stroke-opacity:1;paint-order:stroke fill markers" />
      <path
         sodipodi:nodetypes="ccssccccccc"
         inkscape:connector-curvature="0"
         id="path4565-0-7-8-1-0"
         d="m -94.995969,88.564411 h 16.679693 v 1.616156 c 0,8.196192 -6.755514,14.873663 -15.045113,14.873663 h -1.63458 V 103.44 Z m 3.269149,3.230382 v 10.005087 c 5.150951,-0.73438 9.204701,-4.911931 9.946674,-10.005087 z"
         style="color:#000000;font-style:normal;font-variant:normal;font-weight:normal;font-stretch:normal;font-size:medium;line-height:normal;font-family:sans-serif;font-variant-ligatures:normal;font-variant-position:normal;font-variant-caps:normal;font-variant-numeric:normal;font-variant-alternates:normal;font-feature-settings:normal;text-indent:0;text-align:start;text-decoration:none;text-decoration-line:none;text-decoration-style:solid;text-decoration-color:#000000;letter-spacing:normal;word-spacing:normal;text-transform:none;writing-mode:lr-tb;direction:ltr;text-orientation:mixed;dominant-baseline:auto;baseline-shift:baseline;text-anchor:start;white-space:normal;shape-padding:0;clip-rule:nonzero;display:inline;overflow:visible;visibility:visible;opacity:1;isolation:auto;mix-blend-mode:normal;color-interpolation:sRGB;color-interpolation-filters:linearRGB;solid-color:#000000;solid-opacity:1;vector-effect:none;fill:#000000;fill-opacity:1;fill-rule:nonzero;stroke:none;stroke-width:3.24996567;stroke-linecap:round;stroke-linejoin:miter;stroke-miterlimit:4;stroke-dasharray:none;stroke-dashoffset:0;stroke-opacity:1;paint-order:stroke fill markers;color-rendering:auto;image-rendering:auto;shape-rendering:auto;text-rendering:auto;enable-background:accumulate" />
      <path
         inkscape:connector-curvature="0"
         id="rect4907-0-1"
         d="M -131.14984,105.05423 V 88.564273 h 16.48943 v 16.489957 z m 3.26905,-3.25406 h 9.94668 V 91.795084 h -9.94668 z"
         style="opacity:1;fill:#000000;fill-opacity:1;fill-rule:nonzero;stroke:none;stroke-width:3.42000008;stroke-linecap:round;stroke-linejoin:miter;stroke-miterlimit:4;stroke-dasharray:none;stroke-opacity:1;paint-order:stroke fill markers" />
      <path
         sodipodi:nodetypes="ccssccccccc"
         inkscape:connector-curvature="0"
         id="path4565-0-7-8-1-2-2"
         d="m -132.73735,88.564411 h -16.6797 v 1.616156 c 0,8.196192 6.75552,14.873663 15.04512,14.873663 h 1.63458 V 103.44 Z m -3.26915,3.230382 v 10.005087 c -5.15095,-0.73438 -9.2047,-4.911931 -9.94668,-10.005087 z"
         style="color:#000000;font-style:normal;font-variant:normal;font-weight:normal;font-stretch:normal;font-size:medium;line-height:normal;font-family:sans-serif;font-variant-ligatures:normal;font-variant-position:normal;font-variant-caps:normal;font-variant-numeric:normal;font-variant-alternates:normal;font-feature-settings:normal;text-indent:0;text-align:start;text-decoration:none;text-decoration-line:none;text-decoration-style:solid;text-decoration-color:#000000;letter-spacing:normal;word-spacing:normal;text-transform:none;writing-mode:lr-tb;direction:ltr;text-orientation:mixed;dominant-baseline:auto;baseline-shift:baseline;text-anchor:start;white-space:normal;shape-padding:0;clip-rule:nonzero;display:inline;overflow:visible;visibility:visible;opacity:1;isolation:auto;mix-blend-mode:normal;color-interpolation:sRGB;color-interpolation-filters:linearRGB;solid-color:#000000;solid-opacity:1;vector-effect:none;fill:#000000;fill-opacity:1;fill-rule:nonzero;stroke:none;stroke-width:3.24996567;stroke-linecap:round;stroke-linejoin:miter;stroke-miterlimit:4;stroke-dasharray:none;stroke-dashoffset:0;stroke-opacity:1;paint-order:stroke fill markers;color-rendering:auto;image-rendering:auto;shape-rendering:auto;text-rendering:auto;enable-background:accumulate" />
      <g
         transform="matrix(0.99258896,0,0,0.99258896,-47.767621,37.849684)"
         style="fill:#000000;stroke:#000000"
         id="g5159">
        <path
           inkscape:connector-curvature="0"
           id="path5097"
           style="font-style:normal;font-variant:normal;font-weight:normal;font-stretch:normal;font-size:medium;line-height:1.25;font-family:Eurostile;-inkscape-font-specification:Eurostile;letter-spacing:0px;word-spacing:0px;fill:#000000;fill-opacity:1;stroke:#000000;stroke-width:0.36000001;stroke-miterlimit:4;stroke-dasharray:none;stroke-opacity:1"
           d="m -99.622602,71.742171 v 4.335975 h -1.173328 v -4.335975 h -1.78489 V 70.85431 h 4.80654 v 0.887861 z" />
        <path
           inkscape:connector-curvature="0"
           id="path5099"
           style="font-style:normal;font-variant:normal;font-weight:normal;font-stretch:normal;font-size:medium;line-height:1.25;font-family:Eurostile;-inkscape-font-specification:Eurostile;letter-spacing:0px;word-spacing:0px;fill:#000000;fill-opacity:1;stroke:#000000;stroke-width:0.36000001;stroke-miterlimit:4;stroke-dasharray:none;stroke-opacity:1"
           d="m -94.607667,70.808386 q 1.685236,0 2.169968,0.474546 0.484731,0.470719 0.484731,2.112497 0,1.794856 -0.489262,2.261748 -0.484732,0.466893 -2.355705,0.466893 -1.685237,0 -2.179028,-0.459238 -0.493793,-0.463066 -0.493793,-2.03213 0,-1.867569 0.484732,-2.345942 0.484732,-0.478374 2.378357,-0.478374 z m -0.09061,0.849591 q -1.182383,0 -1.381713,0.256408 -0.199329,0.256408 -0.199329,1.775722 0,1.125134 0.231041,1.354753 0.23557,0.229619 1.377182,0.229619 1.091779,0 1.309229,-0.256408 0.217449,-0.260235 0.217449,-1.569064 0,-1.312657 -0.208389,-1.54993 -0.20386,-0.2411 -1.34547,-0.2411 z" />
        <path
           inkscape:connector-curvature="0"
           id="path5101"
           style="font-style:normal;font-variant:normal;font-weight:normal;font-stretch:normal;font-size:medium;line-height:1.25;font-family:Eurostile;-inkscape-font-specification:Eurostile;letter-spacing:0px;word-spacing:0px;fill:#000000;fill-opacity:1;stroke:#000000;stroke-width:0.36000001;stroke-miterlimit:4;stroke-dasharray:none;stroke-opacity:1"
           d="m -87.418234,75.075476 h -2.66829 l -0.385068,1.00267 h -1.241276 l 2.056713,-5.223836 h 1.762249 l 2.088424,5.223836 h -1.218625 z m -0.271813,-0.730955 -1.069128,-2.720987 -1.051007,2.720987 z" />
        <path
           inkscape:connector-curvature="0"
           id="path5103"
           style="font-style:normal;font-variant:normal;font-weight:normal;font-stretch:normal;font-size:medium;line-height:1.25;font-family:Eurostile;-inkscape-font-specification:Eurostile;letter-spacing:0px;word-spacing:0px;fill:#000000;fill-opacity:1;stroke:#000000;stroke-width:0.36000001;stroke-miterlimit:4;stroke-dasharray:none;stroke-opacity:1"
           d="M -85.270917,76.078146 V 70.85431 h 2.491611 0.308054 q 1.254867,0 1.689766,0.371217 0.43943,0.367391 0.43943,1.42364 0,1.048593 -0.416779,1.393022 -0.416778,0.344429 -1.685235,0.344429 l -0.271813,0.0039 h -1.381712 v 1.6877 z m 1.173322,-2.521983 h 1.33641 q 0.797316,0 1.010235,-0.15308 0.21745,-0.156907 0.21745,-0.734781 0,-0.662069 -0.181208,-0.818975 -0.176678,-0.160734 -0.928692,-0.160734 h -1.454195 z" />
        <path
           inkscape:connector-curvature="0"
           id="path5105"
           style="font-style:normal;font-variant:normal;font-weight:normal;font-stretch:normal;font-size:medium;line-height:1.25;font-family:Eurostile;-inkscape-font-specification:Eurostile;letter-spacing:0px;word-spacing:0px;fill:#000000;fill-opacity:1;stroke:#000000;stroke-width:0.36000001;stroke-miterlimit:4;stroke-dasharray:none;stroke-opacity:1"
           d="m -78.425779,70.85431 v 4.335975 h 2.89933 v 0.887861 h -4.072653 V 70.85431 Z" />
        <path
           inkscape:connector-curvature="0"
           id="path5107"
           style="font-style:normal;font-variant:normal;font-weight:normal;font-stretch:normal;font-size:medium;line-height:1.25;font-family:Eurostile;-inkscape-font-specification:Eurostile;letter-spacing:0px;word-spacing:0px;fill:#000000;fill-opacity:1;stroke:#000000;stroke-width:0.36000001;stroke-miterlimit:4;stroke-dasharray:none;stroke-opacity:1"
           d="m -70.537284,75.075476 h -2.668289 l -0.385067,1.00267 h -1.241277 l 2.056713,-5.223836 h 1.762249 l 2.088424,5.223836 h -1.218625 z m -0.271812,-0.730955 -1.069128,-2.720987 -1.051007,2.720987 z" />
        <path
           inkscape:connector-curvature="0"
           id="path5109"
           style="font-style:normal;font-variant:normal;font-weight:normal;font-stretch:normal;font-size:medium;line-height:1.25;font-family:Eurostile;-inkscape-font-specification:Eurostile;letter-spacing:0px;word-spacing:0px;fill:#000000;fill-opacity:1;stroke:#000000;stroke-width:0.36000001;stroke-miterlimit:4;stroke-dasharray:none;stroke-opacity:1"
           d="m -62.357267,70.85431 v 5.223836 h -1.988759 l -1.76678,-2.866412 q -0.131375,-0.214312 -0.412249,-0.75009 l -0.199328,-0.375044 -0.194799,-0.375045 h -0.0453 l 0.01813,0.344429 0.01359,0.340602 0.009,0.685029 v 2.996531 h -1.173323 V 70.85431 h 1.98876 l 1.608222,2.648275 q 0.21292,0.352082 0.493792,0.853418 l 0.23557,0.424795 0.235571,0.428623 h 0.04077 l -0.01359,-0.336776 -0.01359,-0.336775 -0.009,-0.673549 V 70.85431 Z" />
        <path
           inkscape:connector-curvature="0"
           id="path5111"
           style="font-style:normal;font-variant:normal;font-weight:normal;font-stretch:normal;font-size:medium;line-height:1.25;font-family:Eurostile;-inkscape-font-specification:Eurostile;letter-spacing:0px;word-spacing:0px;fill:#000000;fill-opacity:1;stroke:#000000;stroke-width:0.36000001;stroke-miterlimit:4;stroke-dasharray:none;stroke-opacity:1"
           d="m -55.12706,74.214404 h 1.177852 v 0.179869 q 0,1.090691 -0.471141,1.412157 -0.471141,0.31764 -2.083894,0.31764 -1.830201,0 -2.25151,-0.505162 -0.42131,-0.505163 -0.42131,-2.701853 0,-1.293521 0.570806,-1.699181 0.570806,-0.409488 2.387417,-0.409488 1.322819,0 1.766779,0.336775 0.44396,0.332948 0.44396,1.327964 l 0.0046,0.118636 h -1.177853 v -0.133944 q 0,-0.512816 -0.23104,-0.654415 -0.226511,-0.145425 -1.041947,-0.145425 -1.091779,0 -1.313759,0.225792 -0.21745,0.225792 -0.21745,1.339445 0,1.500179 0.194799,1.775722 0.199329,0.275543 1.277517,0.275543 0.874329,0 1.132551,-0.153079 0.262752,-0.15308 0.262752,-0.67355 z" />
        <path
           inkscape:connector-curvature="0"
           id="path5113"
           style="font-style:normal;font-variant:normal;font-weight:normal;font-stretch:normal;font-size:medium;line-height:1.25;font-family:Eurostile;-inkscape-font-specification:Eurostile;letter-spacing:0px;word-spacing:0px;fill:#000000;fill-opacity:1;stroke:#000000;stroke-width:0.36000001;stroke-miterlimit:4;stroke-dasharray:none;stroke-opacity:1"
           d="m -51.330751,72.377451 q 1.254867,0 1.644465,0.340601 0.389596,0.336775 0.389596,1.427466 0,1.216982 -0.380536,1.595854 -0.380537,0.378871 -1.603692,0.378871 -1.32735,0 -1.721478,-0.352083 -0.389598,-0.352082 -0.389598,-1.549929 0,-1.151923 0.385068,-1.496351 0.385067,-0.344429 1.676175,-0.344429 z m -0.009,0.692684 q -0.647819,0 -0.824498,0.199003 -0.176678,0.195177 -0.176678,0.918477 0,0.826629 0.167618,1.033286 0.167618,0.206658 0.838087,0.206658 0.647819,0 0.815437,-0.218138 0.172148,-0.218138 0.172148,-1.048595 0,-0.700339 -0.176678,-0.895514 -0.176678,-0.195177 -0.815436,-0.195177 z" />
        <path
           inkscape:connector-curvature="0"
           id="path5115"
           style="font-style:normal;font-variant:normal;font-weight:normal;font-stretch:normal;font-size:medium;line-height:1.25;font-family:Eurostile;-inkscape-font-specification:Eurostile;letter-spacing:0px;word-spacing:0px;fill:#000000;fill-opacity:1;stroke:#000000;stroke-width:0.36000001;stroke-miterlimit:4;stroke-dasharray:none;stroke-opacity:1"
           d="m -47.439307,75.136708 v 0.941438 h -1.037416 v -0.941438 z" />
        <path
           inkscape:connector-curvature="0"
           id="path5117"
           style="font-style:normal;font-variant:normal;font-weight:normal;font-stretch:normal;font-size:medium;line-height:1.25;font-family:Eurostile;-inkscape-font-specification:Eurostile;letter-spacing:0px;word-spacing:0px;fill:#000000;fill-opacity:1;stroke:#000000;stroke-width:0.36000001;stroke-miterlimit:4;stroke-dasharray:none;stroke-opacity:1"
           d="m -45.427896,75.136708 v 0.910823 q 0,0.914649 -0.933222,0.914649 -0.04983,0 -0.190268,-0.0076 v -0.409487 q 0.498322,0 0.498322,-0.352083 l -0.0046,-0.114809 h -0.407717 v -0.941439 z" />
        <path
           inkscape:connector-curvature="0"
           id="path5119"
           style="font-style:normal;font-variant:normal;font-weight:normal;font-stretch:normal;font-size:medium;line-height:1.25;font-family:Eurostile;-inkscape-font-specification:Eurostile;letter-spacing:0px;word-spacing:0px;fill:#000000;fill-opacity:1;stroke:#000000;stroke-width:0.36000001;stroke-miterlimit:4;stroke-dasharray:none;stroke-opacity:1"
           d="m -43.167324,70.85431 v 4.335975 h 2.89933 v 0.887861 h -4.072653 V 70.85431 Z" />
        <path
           inkscape:connector-curvature="0"
           id="path5123"
           style="font-style:normal;font-variant:normal;font-weight:normal;font-stretch:normal;font-size:medium;line-height:1.25;font-family:Eurostile;-inkscape-font-specification:Eurostile;letter-spacing:0px;word-spacing:0px;fill:#000000;fill-opacity:1;stroke:#000000;stroke-width:0.36000001;stroke-miterlimit:4;stroke-dasharray:none;stroke-opacity:1"
           d="m -32.824845,70.85431 v 5.223836 h -1.010235 l 0.03624,-0.589356 -0.01813,-0.0039 c -0.202349,0.426071 -0.643289,0.639106 -1.32282,0.639106 -0.685571,0 -1.140101,-0.131393 -1.363591,-0.39418 -0.22047,-0.265337 -0.330705,-1.169887 -0.330705,-1.978657 0,-0.653138 0.119295,-1.105998 0.357886,-1.35858 0.238591,-0.255132 0.66292,-0.382698 1.272987,-0.382698 0.706712,0 1.147652,0.188798 1.32282,0.566394 l 0.01813,-0.0039 v -1.718212 z m -2.034061,1.848329 c -0.386577,0 -0.637249,0.07016 -0.752014,0.210484 -0.114765,0.137772 -0.172147,0.436277 -0.172147,0.895515 0,0.530676 0.05738,1.240049 0.172147,1.393128 0.114765,0.15308 0.371477,0.22962 0.770135,0.22962 0.416779,0 0.682551,-0.07526 0.797316,-0.225793 0.117785,-0.150528 0.176678,-0.865004 0.176678,-1.408436 0,-0.449033 -0.06493,-0.743711 -0.194798,-0.884034 -0.126846,-0.140322 -0.392618,-0.210484 -0.797317,-0.210484 z"
           sodipodi:nodetypes="cccccscscsccccscssscscs" />
        <path
           inkscape:connector-curvature="0"
           id="path5125"
           style="font-style:normal;font-variant:normal;font-weight:normal;font-stretch:normal;font-size:medium;line-height:1.25;font-family:Eurostile;-inkscape-font-specification:Eurostile;letter-spacing:0px;word-spacing:0px;fill:#000000;fill-opacity:1;stroke:#000000;stroke-width:0.36000001;stroke-miterlimit:4;stroke-dasharray:none;stroke-opacity:1"
           d="m -30.813431,75.136708 v 0.941438 h -1.037417 v -0.941438 z" />
        <path
           style="fill:#000000;stroke:#000000;stroke-width:0.26458332px;stroke-linecap:butt;stroke-linejoin:miter;stroke-opacity:1"
           d="M -39.606591,75.114136 V 73.08544 h -0.561745 v -0.665895 l 0.561746,2e-6 v -0.818975 h 1.037417 v 0.818975 h 0.729619 v 0.665896 h -0.729614 v 2.06497 h 1.052116 v 0.955912 h -1.225729 c -0.525266,0 -0.86381,-0.437565 -0.86381,-0.992189 z"
           id="path5128"
           inkscape:connector-curvature="0"
           sodipodi:nodetypes="cccccccccccccccc" />
      </g>
    </g>
  </g>
</svg>
