<?xml version="1.0" encoding="utf-8"?>
<!-- Generator: Adobe Illustrator 19.2.1, SVG Export Plug-In . SVG Version: 6.00 Build 0)  -->
<svg version="1.1" id="Logo_x5F_4c_x5F_neg" xmlns="http://www.w3.org/2000/svg" xmlns:xlink="http://www.w3.org/1999/xlink"
	 x="0px" y="0px" viewBox="0 0 500 262" style="enable-background:new 0 0 500 262;" xml:space="preserve">
<style type="text/css">
	.st0{fill:#F7A600;}
	.st1{fill:#9C9C9C;}
	.st2{fill:#FFFFFF;}
	.st3{fill:none;}
</style>
<g>
	<g>
		<g>
			<g>
				<path class="st0" d="M130.9,193.3c-7.1,0-18.7,0-18.7,0v18.3h5.8v-12.2c0-0.8,0.6-1.4,1.4-1.4h10c0.8,0,1.4,0.6,1.4,1.4v12.2
					h5.8v-12.2C136.6,199.3,137.5,193.3,130.9,193.3z"/>
				<path class="st0" d="M292.4,193.3c-6.8,0-18.7,0-18.7,0v18.3h5.9v-12.2c0-0.8,0.6-1.4,1.3-1.4H291c0.8,0,1.4,0.6,1.4,1.4v12.2
					h5.8v-12.2C298.2,199.3,299,193.3,292.4,193.3z"/>
				<path class="st0" d="M380.3,193.3c-6.8,0-18.7,0-18.7,0v18.3h5.8v-12.2c0-0.8,0.6-1.4,1.4-1.4h10.1c0.8,0,1.4,0.6,1.4,1.4v12.2
					h5.8v-12.2C386.2,199.3,387,193.3,380.3,193.3z"/>
				<path class="st0" d="M139.2,197.9h6.4c0.6,0,1.4,0.6,1.4,1.4v12.2h6.2v-12.2c0-0.8,0.6-1.4,1.4-1.4h6.4v-4.6h-21.8V197.9z"/>
				<path class="st0" d="M388.7,193.3v4.6h6.4c0.8,0,1.4,0.6,1.4,1.4v12.2h6.5v-12.2c0-0.8,0.5-1.4,1.3-1.4h6.4v-4.6H388.7z"/>
				<path class="st0" d="M212.9,197.9h6.4c0.8,0,1.4,0.6,1.4,1.4v12.2h6.4v-12.2c0-0.8,0.6-1.4,1.4-1.4h6.4v-4.6h-22.2v4.6H212.9z"
					/>
				<rect x="263.7" y="193.3" class="st0" width="6.2" height="18.3"/>
				<path class="st0" d="M253.6,193.3h-10.2c-6.6,0-6.1,6.1-6.1,6.1v0.8v11.5h5.9v-4.6h10.4v4.6h5.9v-11.5v-0.8
					C259.7,199.3,260.4,193.3,253.6,193.3z M253.7,202.3h-10.4v-2.2v-1c0-0.5,0.8-1.2,1.2-1.2h7.9c0.9,0,1.4,0.6,1.4,1.2v1
					L253.7,202.3L253.7,202.3z"/>
				<path class="st0" d="M204.4,193.3h-16.5v6.7v11.6h6.1v-3.5c0-0.8,0.5-1.2,1.3-1.2h8.1c0.4,0,1.2,0.6,1.2,1.2v3.5h5.8v-2.8
					c0,0,0.5-2.6-2.2-4.4c1.8-1.3,2.4-3.2,2.6-4.4c0.1-0.5,0.1-0.9,0.1-0.9S210.9,193.3,204.4,193.3z M204.6,200.9
					c0,0.9-0.4,1.4-1.2,1.4h-8.5c-0.4,0-0.9-0.5-0.9-1.4V200v-0.9c0-0.8,0.5-1.4,1.3-1.4h8.1c0.8,0,1.2,0.4,1.2,1.4v0.9L204.6,200.9
					L204.6,200.9z"/>
				<path class="st0" d="M87.9,205.5c0,0-0.6,6.1,6.1,6.1h14.4V207H95c-0.9,0-1.7-0.8-1.7-1.5c0-0.9,0.6-1.4,1.7-1.4h12.6v-3.2H94.7
					c-0.8,0-1.4-0.6-1.4-1.4c0-0.8,0.6-1.4,1.4-1.4h13.7v-4.6H87.9V205.5z"/>
				<path class="st0" d="M163.9,205.5c0,0-0.9,6.1,5.8,6.1h14.4V207h-13.4c-0.9,0-1.7-0.8-1.7-1.5c0-0.9,0.8-1.4,1.7-1.4h12.6v-3.2
					h-12.6c-0.9,0-1.7-0.6-1.7-1.4c0-0.8,0.8-1.4,1.7-1.4h13.4v-4.6h-20.2V205.5z"/>
				<path class="st0" d="M337.5,205.5c0,0-0.6,6.1,5.9,6.1H358V207h-13.5c-0.8,0-1.5-0.8-1.5-1.5c0-0.9,0.5-1.4,1.4-1.4H357v-3.2
					h-12.6c-0.9,0-1.4-0.6-1.4-1.4c0-0.8,0.5-1.4,1.4-1.4H358v-4.6h-20.5V205.5z"/>
				<path class="st0" d="M328,193.3c-6.8,0-25.9,0-25.9,0v18.3h5.4v-12.2c0-0.8,0.6-1.4,1.4-1.4h4.4c0.8,0,1.4,0.6,1.4,1.4v12.2h6.1
					v-12.2c0-0.8,0.5-1.4,1.4-1.4h4.6c0.5,0,1.2,0.6,1.2,1.4l0.3,12.2h5.8v-12.2C334,199.4,334.8,193.3,328,193.3z"/>
			</g>
			<g>
				<g>
					<path class="st0" d="M245.6,223.4h6.6c0.5,0,1.2,0.6,1.2,1.4V237h6.4l0.3-12.2c0-0.8,0.4-1.4,1.2-1.4h6.4v-4.6h-22L245.6,223.4
						L245.6,223.4z"/>
					<path class="st0" d="M320,218.8c-6.8,0-25.9,0-25.9,0v18.3h5.4v-12.2c0-0.8,0.6-1.4,1.4-1.4h4.4c0.8,0,1.4,0.6,1.4,1.4v12.2h6
						v-12.2c0-0.8,0.5-1.4,1.4-1.4h4.6c0.5,0,1.2,0.6,1.2,1.4l0.3,12.2h5.8v-12.2C326.2,224.8,326.8,218.8,320,218.8z"/>
					<path class="st0" d="M219.1,218.8h-5.5v6.8c0,0.8-0.8,1.4-1.4,1.4H204c-0.8,0-1.4-0.6-1.4-1.4v-6.8h-5.8v6.7
						c0,0-0.6,6.2,6.1,6.2h1.9v5.4h6.4v-5.4h2.2c6.7,0,5.8-6.1,5.8-6.1v-6.8H219.1z"/>
					<path class="st0" d="M270,231c0,0-0.9,6.1,5.8,6.1h14.4v-4.6h-13.4c-0.9,0-1.7-0.6-1.7-1.5s0.8-1.3,1.7-1.3h12.6v-3.2h-12.6
						c-0.9,0-1.7-0.8-1.7-1.6s0.8-1.4,1.7-1.4h13.4v-4.6H270V231z"/>
					<path class="st0" d="M237.6,226.3h-8.6c-1,0-1.7-0.4-1.7-1.3c0-0.8,0.6-1.5,1.4-1.5h14.7v-4.6h-16.1c-3,0-5.5,2.5-5.5,5.3
						c0,4,2.6,5.5,6.1,5.5h8.6c0.9,0,1.8,0.4,1.8,1.3c0,0.8-0.6,1.5-1.4,1.5h-15.1v4.6h16.5c2.7,0,5.5-2.2,5.5-5.3
						C243.8,228.1,240.8,226.3,237.6,226.3z"/>
					<path class="st0" d="M188.4,226.3h-8.4c-1,0-1.8-0.4-1.8-1.3c0-0.8,0.8-1.5,1.5-1.5h14.7v-4.6h-16.1c-3.2,0-5.8,2.5-5.8,5.3
						c0,4,2.8,5.5,6.3,5.5h8.4c1,0,1.8,0.4,1.8,1.3c0,0.8-0.8,1.5-1.5,1.5h-14.9v4.6h16.5c3,0,5.7-2.2,5.7-5.3
						C194.8,228.1,191.9,226.3,188.4,226.3z"/>
				</g>
			</g>
			<g>
				<path class="st0" d="M333.5,218.8v0.8h-2.1v5.6h-0.9v-5.6h-2.1v-0.8H333.5z"/>
				<path class="st0" d="M334.2,218.8h1.2l1.8,5.4l1.8-5.4h1.2v6.4h-0.8v-3.8c0-0.1,0-0.3,0-0.6s0-0.6,0-1l-1.8,5.4h-0.9l-1.8-5.4
					v0.2c0,0.2,0,0.4,0,0.7s0,0.6,0,0.7v3.8h-0.8L334.2,218.8L334.2,218.8z"/>
			</g>
		</g>
		<g>
			<g>
				<g>
					<path class="st1" d="M362.2,173.1H136.1c-28.6,0-50.1-20.5-50.1-47.7c0-27.3,21.5-47.9,50-47.9h226.3
						c28.6,0,50.1,20.6,50.1,47.9C412.5,152.6,390.8,173.1,362.2,173.1z"/>
				</g>
			</g>
			<g>
				<path class="st2" d="M152.9,132.3l-15.3-24.8h-11.1V143h11v-24.8l15.4,24.8h11v-35.5h-11V132.3z M239.9,119.4v-3.5h-5.8v-4.8
					h-10.7v4.8h-5.8v3.5h5.8V143h10.7v-23.6H239.9z M170,143h10.7v-23.6H170C170,119.4,170,143,170,143z M170,114.7h10.7v-7.3H170
					C170,107.4,170,114.7,170,114.7z M357,117.8c-8.6,0-15.6,5.9-15.6,13.3c0,7.3,7,13.3,15.6,13.3c8.6,0,15.6-5.9,15.6-13.3
					S365.8,117.8,357,117.8z M361.3,136c0,3.8-2.2,5.3-4.4,5.3c-2.1,0-4.4-1.6-4.4-5.3c0-1.4,0-5.1,0-5.1s0-3.5,0-4.9
					c0-3.7,2.2-5.3,4.4-5.3c2.1,0,4.4,1.5,4.4,5.3c0,1.4,0,4.1,0,5C361.3,131.1,361.3,134.6,361.3,136z M327.5,120.6
					c-1.7-1-3.5-1.9-6-2.1c-7.7-0.7-13.6,6.1-13.6,12.4c0,8.2,6.3,11.3,7.3,11.7c3.6,1.7,8.2,1.7,12.3-0.9c0,0.2,0,1.4,0,1.4H338
					v-35.5h-10.5C327.5,107.5,327.5,115.1,327.5,120.6z M327.5,131.1c0,0,0,2.7,0,4.2c0,3.6-2.5,4.6-4.2,4.6s-4.2-1-4.2-4.6
					c0-1.3,0-4.2,0-4.2s0-3,0-4.2c0-3.7,2.5-4.6,4.2-4.6s4.2,0.9,4.2,4.6C327.5,128.1,327.5,131.1,327.5,131.1z M205.7,118.3
					c-3.5,0.1-6.5,1.6-8.5,3.6c0-0.6,0-2.5,0-2.5h-10.6V143h10.6c0,0,0-14.5,0-15.5c0-2.1,2.2-4.3,5.1-4.3c2.9,0,4.9,2.3,4.9,4.3
					c0,1.5,0,15.5,0,15.5h10.6c0,0,0-11.2,0-12.8C217.8,120.8,209.7,118.2,205.7,118.3z M292.5,118.3c-3.5,0.1-6.5,1.6-8.5,3.6
					c0-0.6,0-2.5,0-2.5h-10.6V143H284c0,0,0-14.5,0-15.5c0-2.1,2.2-4.3,5.1-4.3c2.9,0,4.9,2.3,4.9,4.3c0,1.5,0,15.5,0,15.5h10.6
					c0,0,0-11.2,0-12.8C304.5,120.8,296.4,118.2,292.5,118.3z M270,131.3c0-7.3-7.1-13.4-15.8-13.4c-8.7,0-15.7,5.9-15.7,13.3
					c0,7.3,7,13.3,15.7,13.3c7.2,0,13.3-4.1,15.2-9.7h-10.6c0,0,0,0.1,0,1.4c0,4.3-2.8,5.3-4.4,5.3c-1.6,0-4.5-1-4.5-5.3
					c0-1.3,0-4.9,0-4.9H270z M250.7,123c0.8-1.5,2.4-2.1,3.8-2.2c1.4,0,2.9,0.7,3.8,2.2c0.7,1.2,0.7,2.6,0.7,4.6h-8.9
					C249.9,125.5,249.9,124.2,250.7,123z M377,111.9c0-1.2-0.9-1.7-2.6-1.7H372v6.1h1.5v-2.5h0.7l1.2,2.5h1.6l-1.3-2.7
					C376.5,113.3,377,112.7,377,111.9z M374.2,112.8h-0.7V111h0.6c0.9,0,1.3,0.3,1.3,0.9C375.5,112.6,375,112.8,374.2,112.8z
					 M374.2,107.8c-3,0-5.5,2.4-5.5,5.5c0,3,2.5,5.5,5.5,5.5s5.5-2.5,5.5-5.5C379.7,110.2,377.2,107.8,374.2,107.8z M374.2,117.7
					c-2.4,0-4.4-2-4.4-4.4s2-4.4,4.4-4.4c2.4,0,4.4,2,4.4,4.4S376.7,117.7,374.2,117.7z M362.3,87.6H136.1
					c-23.9-0.1-40,17.2-40,37.8s16,37.6,40.1,37.6h226.1c24,0,40.1-17,40.1-37.6C402.3,104.7,386.2,87.5,362.3,87.6z M362.2,153.8
					h-226c-19.1,0.1-30.7-12.7-30.7-28.5s11.7-28.4,30.7-28.5h226c19,0,30.7,12.7,30.7,28.5S381.2,153.8,362.2,153.8z M362.3,87.6
					H136.1c-23.9-0.1-40,17.2-40,37.8s16,37.6,40.1,37.6h226.1c24,0,40.1-17,40.1-37.6C402.3,104.7,386.2,87.5,362.3,87.6z
					 M362.2,153.8h-226c-19.1,0.1-30.7-12.7-30.7-28.5s11.7-28.4,30.7-28.5h226c19,0,30.7,12.7,30.7,28.5S381.2,153.8,362.2,153.8z
					 M362.3,87.6H136.1c-23.9-0.1-40,17.2-40,37.8s16,37.6,40.1,37.6h226.1c24,0,40.1-17,40.1-37.6
					C402.3,104.7,386.2,87.5,362.3,87.6z M362.2,153.8h-226c-19.1,0.1-30.7-12.7-30.7-28.5s11.7-28.4,30.7-28.5h226
					c19,0,30.7,12.7,30.7,28.5S381.2,153.8,362.2,153.8z"/>
			</g>
		</g>
		<g>
			<path class="st2" d="M84.5,24.8h6.9l4.7,11h0.2c0-1.7-0.1-3.4,0.2-5.1l0.9-6h6.9l-3.2,19.9h-6.9l-4.7-10.4h-0.2
				c0,1.4,0,2.7-0.2,4l-1,6.5h-6.9L84.5,24.8z"/>
			<path class="st2" d="M106.2,24.8h7.2l-3.2,19.9h-7.2L106.2,24.8z"/>
			<path class="st2" d="M115.4,24.8h6.9l4.7,11h0.2c0-1.7-0.1-3.4,0.2-5.1l0.9-6h6.9L132,44.6h-6.9l-4.7-10.4h-0.2
				c0,1.4,0,2.7-0.2,4l-1,6.5h-6.9L115.4,24.8z"/>
			<path class="st2" d="M135.8,24.8h15.2l-1,6.5l-4-0.2l-2.2,13.6h-7.2l2.2-13.6l-4,0.2L135.8,24.8z"/>
			<path class="st2" d="M151.5,24.8h13.4l-0.9,5.4h-6.1l-0.3,1.9h5.6l-0.8,5.2h-5.6l-0.3,2h6.3l-0.9,5.4h-13.6L151.5,24.8z"/>
			<path class="st2" d="M166.6,24.8h6.9l4.7,11h0.2c0-1.7-0.1-3.4,0.2-5.1l0.9-6h6.9l-3.2,19.9h-6.9l-4.7-10.4h-0.2
				c0,1.4,0,2.7-0.2,4l-1,6.5h-6.9L166.6,24.8z"/>
			<path class="st2" d="M188.4,24.8h7.4c6.7,0,11.3,2.9,10.2,10.2c-0.9,5.9-5.7,9.7-11.5,9.7h-9.2L188.4,24.8z M193.4,38.7h0.5
				c2.4,0,4.4-1.1,4.8-3.7c0.4-2.8-1-4-3.6-4h-0.5L193.4,38.7z"/>
			<path class="st2" d="M228.6,34.8c-1,6.4-6.6,10.2-12.6,10.2c-6.1,0-10.4-3.8-9.4-10.2c1-6.3,6.6-10.3,12.6-10.3
				C225.2,24.5,229.6,28.5,228.6,34.8z M213.8,34.9c-0.4,2.3,0.9,3.8,3.1,3.8c2.2,0,4-1.6,4.3-3.8c0.3-2.1-0.8-3.9-3.1-3.9
				C215.9,31,214.2,32.8,213.8,34.9z"/>
			<path class="st2" d="M251.9,32.8c-1-1.1-2.3-2-3.9-2c-2.2,0-4.2,1.7-4.5,3.9s1.3,3.9,3.4,3.9c1.7,0,3.1-0.7,4.4-1.8l-1.4,7.4
				c-1.3,0.6-4,0.8-5.3,0.8c-5.7,0-9.4-4.4-8.5-10.1c0.9-5.8,6.2-10.4,12.1-10.4c1.6,0,3.3,0.3,4.7,0.8L251.9,32.8z"/>
			<path class="st2" d="M254.4,24.8h7.2l-2.1,13.5h6.1l-1,6.4h-13.3L254.4,24.8z"/>
			<path class="st2" d="M271,44.7h-7.6l10.1-19.9h8l3.9,19.9h-7.7l-0.3-2.5h-5.5L271,44.7z M276.9,37.5l-0.3-3.5
				c-0.1-0.8-0.1-1.7-0.1-2.6h-0.3l-2.3,6.1H276.9z"/>
			<path class="st2" d="M287.9,37.5l0.3,0.3c1.1,1,2.6,1.8,4.2,1.8c0.7,0,1.9-0.3,2-1.2s-0.8-1-1.4-1.1l-1.4-0.3
				c-2.7-0.5-4.9-2.2-4.4-5.3c0.7-4.7,5.5-7.4,9.8-7.4c2.3,0,4.3,0.6,6,1.7l-2.8,5.1c-1.1-0.8-2.4-1.5-4-1.5c-0.6,0-1.6,0.2-1.7,1.1
				c-0.1,0.7,0.8,0.8,1.3,1l1.6,0.4c2.9,0.7,4.9,2.3,4.4,5.7c-0.8,4.7-5.5,7.1-9.8,7.1c-2.5,0-5.3-0.7-7.4-1.8L287.9,37.5z"/>
			<path class="st2" d="M304,37.5l0.3,0.3c1.1,1,2.6,1.8,4.2,1.8c0.7,0,1.9-0.3,2-1.2c0.1-0.9-0.8-1-1.4-1.1l-1.4-0.3
				c-2.7-0.5-4.9-2.2-4.4-5.3c0.8-4.7,5.5-7.4,9.8-7.4c2.3,0,4.3,0.6,6,1.7l-2.8,5.1c-1.1-0.8-2.4-1.5-4-1.5c-0.6,0-1.6,0.2-1.7,1.1
				c-0.1,0.7,0.8,0.8,1.3,1l1.6,0.4c3,0.7,4.9,2.3,4.4,5.7c-0.8,4.7-5.5,7.1-9.8,7.1c-2.5,0-5.3-0.7-7.4-1.8L304,37.5z"/>
			<path class="st2" d="M321,24.8h7.2L325,44.7h-7.2L321,24.8z"/>
			<path class="st2" d="M343.8,32.8c-1-1.1-2.3-2-3.9-2c-2.2,0-4.2,1.7-4.5,3.9s1.3,3.9,3.4,3.9c1.7,0,3.1-0.7,4.4-1.8l-1.4,7.4
				c-1.2,0.6-4,0.8-5.3,0.8c-5.7,0-9.4-4.4-8.5-10.1c0.9-5.8,6.2-10.4,12.1-10.4c1.6,0,3.3,0.3,4.7,0.8L343.8,32.8z"/>
			<path class="st2" d="M355.7,24.8h7.4l1.1,10.4h0.2c0.3-0.9,0.5-1.8,0.9-2.6l3.5-7.8h7.4l0.1,19.9h-7l0.8-10.9H370
				c-0.2,0.7-0.5,1.3-0.8,2l-4.3,8.9h-4.2l-1.3-8.4c-0.1-0.8-0.1-1.6-0.1-2.5H359c-0.2,0.8-0.4,1.6-0.6,2.4l-2.2,8.5h-7L355.7,24.8z
				"/>
			<path class="st2" d="M380.5,24.8h7.2l-3.2,19.9h-7.2L380.5,24.8z"/>
			<path class="st2" d="M389.7,24.8h6.9l4.7,11h0.2c0-1.7-0.1-3.4,0.2-5.1l0.9-6h6.9l-3.2,19.9h-6.9l-4.7-10.4h-0.2
				c0,1.4,0,2.7-0.2,4l-1,6.5h-6.9L389.7,24.8z"/>
			<path class="st2" d="M411.5,24.8h7.2l-3.2,19.9h-7.2L411.5,24.8z"/>
		</g>
	</g>
	<rect x="50.1" class="st3" width="399.9" height="262"/>
</g>
</svg>
