<?xml version="1.0" encoding="utf-8"?>
<!-- Generator: Adobe Illustrator 26.3.1, SVG Export Plug-In . SVG Version: 6.00 Build 0)  -->
<svg version="1.1" id="Layer_1" xmlns="http://www.w3.org/2000/svg" xmlns:xlink="http://www.w3.org/1999/xlink" x="0px" y="0px"
	 viewBox="0 0 3839 793.2" style="enable-background:new 0 0 3839 793.2;" xml:space="preserve">
<style type="text/css">
	.st0{display:none;}
	.st1{display:inline;}
	.st2{fill:#FFFFFF;}
	.st3{clip-path:url(#SVGID_00000036242949919209583590000016320683185271609740_);}
	.st4{clip-path:url(#SVGID_00000060714384426939838340000012620223807931962511_);}
	.st5{clip-path:url(#SVGID_00000141442996494860878520000004425855482322912900_);}
	.st6{clip-path:url(#SVGID_00000057144056104460305950000015316249339425305251_);}
	.st7{clip-path:url(#SVGID_00000172404253188520274480000003626767424100039071_);}
	.st8{clip-path:url(#SVGID_00000133530683023843222540000017563585400873873850_);}
	.st9{clip-path:url(#SVGID_00000072274428101367265320000010960646804208701847_);}
	.st10{clip-path:url(#SVGID_00000147903910211132020120000006177353453257808515_);}
</style>
<g>
	<g>
		<path class="st2" d="M835.6,143.4h105.1l187,523h-98.2l-44.2-135.2H790.5l-44.2,135.2h-97.8L835.6,143.4z M814.1,459h147.5
			l-72.5-222.5H887L814.1,459z"/>
		<path class="st2" d="M1170.3,282.2h90.3v66.3h1.8c22.1-46,64.1-74.3,119.2-74.3c97.5,0,159.1,76.2,159.1,200v0.4
			c0,123.2-61.6,199.3-158,199.3c-54.7,0-98.6-27.5-120.3-72.5h-1.8v191.7h-90.3V282.2z M1448.6,474.7v-0.4
			c0-76.9-36.3-124-93.9-124c-55.8,0-95,48.5-95,124v0.4c0,75.1,39.2,123.2,95,123.2C1412.4,597.8,1448.6,550.3,1448.6,474.7z"/>
		<path class="st2" d="M1595,282.2h90.3v66.3h1.8c22.1-46,64.1-74.3,119.2-74.3c97.5,0,159.1,76.2,159.1,200v0.4
			c0,123.2-61.6,199.3-158,199.3c-54.7,0-98.6-27.5-120.3-72.5h-1.8v191.7H1595V282.2z M1873.4,474.7v-0.4c0-76.9-36.3-124-93.9-124
			c-55.8,0-95,48.5-95,124v0.4c0,75.1,39.2,123.2,95,123.2C1837.1,597.8,1873.4,550.3,1873.4,474.7z"/>
		<path class="st2" d="M2022.2,143.4h90.3v523h-90.3L2022.2,143.4L2022.2,143.4z"/>
		<path class="st2" d="M2169.6,475.4V475c0-121.1,70.7-200.8,180.5-200.8c109.8,0,178,77.2,178,193.2v29h-268.9
			c1.5,67.4,38.4,107.3,97.1,107.3c44.9,0,74.3-24,83-49.6l0.7-2.6h84.4l-1.1,4c-11.9,59.1-68.5,118.5-168.9,118.5
			C2239.2,674,2169.6,597.4,2169.6,475.4z M2260.2,436.2h180.2c-6.6-60.8-41.4-91.4-89.2-91.4
			C2303.4,344.9,2267.5,377.1,2260.2,436.2z"/>
		<path class="st2" d="M2724.7,177.8c0-27.5,22.1-49.6,50.4-49.6c28.3,0,50,22.1,50,49.6c0,26.8-21.8,49.3-50,49.3
			C2746.9,227.1,2724.7,204.6,2724.7,177.8z M2729.8,282.2h90.3v384.2h-90.3V282.2z"/>
		<path class="st2" d="M2884.1,405.1v-0.7c0-166,96-270,248.3-270c152.6,0,247.9,104,247.9,270v0.7c0,166.3-95,270.3-247.9,270.3
			C2979.5,675.4,2884.1,571.4,2884.1,405.1z M3285.3,405.1v-0.7c0-116-59.5-188.8-152.9-188.8c-93.2,0-152.9,72.5-152.9,188.8v0.7
			c0,116.3,59.5,189.2,152.9,189.2C3226.9,594.3,3285.3,520.3,3285.3,405.1z"/>
		<path class="st2" d="M3429.5,525l-0.4-5.5h89.5l0.7,4.4c6.9,44.9,52.9,72.9,118.5,72.9c65.9,0,107.3-29.3,107.3-74.3v-0.4
			c0-39.2-27.1-60.2-94.6-74.3l-56.2-11.6c-102.9-21.4-153.7-69.2-153.7-147.1v-0.4c0.4-92.1,81.2-154.4,193.9-154.4
			c114.1,0,188.8,60.2,194.3,149.7l0.4,6.2h-89.5l-0.7-4.4c-6.2-45.6-46.4-72.9-105.1-72.9c-61.2,0.4-99.3,29-99.3,70.7v0.4
			c0,37,28.6,58.8,91.7,71.8l56.6,11.6c108.8,22.5,156.2,66.7,156.2,148.2v0.4c0,97.5-76.9,159.5-204.4,159.5
			C3514.7,675.4,3435.6,618.8,3429.5,525z"/>
	</g>
	<path class="st2" d="M367.9,106.9C392.7,77.1,404.9,38.7,402.2,0c-38,3.7-73.1,22-97.8,51.1c-24.9,28.1-37.5,65.1-35.1,102.6
		C307.6,154.4,344.2,137.1,367.9,106.9 M399.9,160.8c-54.6-3.2-100.6,31.1-126.8,31.1s-65.9-29.4-108.8-28.7
		c-57.2,1.6-109.2,33.5-136.4,83.7c-58.5,101.4-15.6,252.3,41.4,334.9c27.6,39.2,60.8,86,104.9,84.4c44-1.6,57.7-27.2,108-27.2
		s65.1,27.2,108.8,26.3S465,626,492.3,583.4c19.7-29.1,35-60.8,45.6-94.4c-53.6-23.7-88.2-76.7-88.5-135.2
		c0.7-51.7,27.5-99.5,71.4-127C492.9,187.2,448.3,162.8,399.9,160.8"/>
</g>
</svg>
