<?xml version="1.0" encoding="utf-8"?>
<!-- Generator: Adobe Illustrator 25.0.0, SVG Export Plug-In . SVG Version: 6.00 Build 0)  -->
<svg version="1.1" id="Layer_1" xmlns="http://www.w3.org/2000/svg" xmlns:xlink="http://www.w3.org/1999/xlink" x="0px" y="0px"
	 viewBox="0 0 3840 283.4" style="enable-background:new 0 0 3840 283.4;" xml:space="preserve">
<style type="text/css">
	.st0{fill:#FFFFFF;}
</style>
<g>
	<g>
		<rect id="rect5539_2_" x="1314.3" y="0" class="st0" width="161.3" height="199.8"/>
		<rect id="rect5541_2_" x="1313.6" y="222.7" class="st0" width="408.3" height="60.7"/>
		<path id="path5543_2_" class="st0" d="M1675.9,0h226.3l144.5,108.9l-111,71.3L1675.9,0z"/>
		<path id="path5547_2_" class="st0" d="M2466.4,0l441,283.4h91.2V0h-80.7v197.7L2620.3,0H2466.4z"/>
		<path id="path5549_6_" class="st0" d="M2464.4,30.3l174.9,112.3v140.7h-175.6L2464.4,30.3z"/>
		<path id="path5549_5_" class="st0" d="M2265.4,0l-312.3,200.6v82.7H2116v-89.9L2395.2,0L2265.4,0L2265.4,0z"/>
		<path id="path5549_4_" class="st0" d="M2471.8,3.5l174.9,112.3"/>
		<g>
			<path id="path5551-7_4_" class="st0" d="M3571.6,283.4l-340.8-148.9l75.9-27.8l125.5,54.8l58.4-21.4l327.9,143.3h-244.6
				L3571.6,283.4L3571.6,283.4z"/>
			<path id="path5553-8_4_" class="st0" d="M3421.6,241.2L3320.3,197l-237.5,86.4h223.4L3421.6,241.2z"/>
		</g>
		<g>
			<path id="path5551-7_3_" class="st0" d="M3351.3,0l340.8,148.9l-75.9,27.8l-125.5-54.8l-58.4,21.4L3104.4,0h244.6H3351.3z"/>
			<path id="path5553-8_3_" class="st0" d="M3501.3,42.2l101.2,44.2L3840,0h-223.4L3501.3,42.2z"/>
		</g>
	</g>
	<g>
		<g>
			<path class="st0" d="M125.8,0.6c7.1,0,14.3,0,21.4,0c0,16.8,0,33.6,0,50.4c0.1,14-0.3,28-0.9,42c-1,20.2-2.2,40.5-5.6,60.5
				c-2.3,13.8-7.1,27.1-13,39.7c-9.7,20.3-24.8,37.6-41.9,52c-15.2,13.4-33.5,23.2-52.6,29.8c-10.8,3.7-22,6.6-33.3,8.2
				c0-14.1,0-28.2,0-42.3c13.7-2.1,26.8-6.9,39-13.3c14.5-7.6,27.5-17.9,38.5-30.1c11.3-12.5,20.3-27,27.2-42.4
				c8.1-17.7,12.4-36.8,15.3-56c3.7-24.3,5.2-49,5.8-73.6C125.8,17.3,125.8,9,125.8,0.6z"/>
			<path class="st0" d="M155.9,0.7c13.1-0.1,26.3,0,39.5,0c0,94.2,0,188.4,0,282.7c-13.1,0-26.2-0.1-39.4,0c-0.2-30,0-60.1-0.1-90.1
				C155.9,129,155.9,64.8,155.9,0.7z"/>
			<path class="st0" d="M204.1,0.6c7.1,0,14.2,0,21.3,0c-0.2,28.7,0.8,57.5,4.2,86.1c2.8,22.2,6.8,44.5,15.6,65.2
				c8.4,20,20.4,38.6,36.2,53.5c15,14.3,33.2,25.3,53,31.7c5.5,1.8,11.2,3.1,16.9,4c0,14.1,0,28.2,0,42.2
				c-11.3-1.5-22.3-4.4-33.1-8.1c-12.8-4.5-25.2-10.2-36.6-17.6c-8.3-5.3-15.9-11.7-23.1-18.4c-12-11-22.7-23.6-30.7-37.8
				c-6.3-11.1-10.9-23-14.5-35.2c-3.3-12.2-4.7-24.9-6-37.5c-2.5-27.2-3.4-54.5-3.2-81.8C204.1,31.5,204.1,16.1,204.1,0.6z"/>
		</g>
		<path class="st0" d="M480.8,12.3c11-14.1,33.7-16.5,47.2-4.7c5.5,4.7,9.4,11.1,11.4,18c25,85.9,50.1,171.8,75,257.7
			c-14.7,0-29.5,0-44.2,0c-7-23.7-13.7-47.4-20.6-71.1c-28.5-0.1-57,0-85.5,0c-7,23.7-13.9,47.4-20.7,71.2c-14.7,0-29.3,0-44,0
			c23.7-82,47.5-163.9,71.3-245.9C473.6,28.9,474.7,19.3,480.8,12.3 M506.9,65c-10.5,35.6-20.7,71.3-31.1,106.9
			c20.7,0.1,41.4,0,62.1,0C527.5,136.2,517.2,100.6,506.9,65z"/>
		<path class="st0" d="M791.3,14.2C799,3,813.8-2.4,826.9,1.1c12,2.8,21.1,13.1,24.3,24.7c25,85.9,50,171.7,74.9,257.6
			c-14.8,0.1-29.5,0-44.3,0.1c-6.9-23.7-13.7-47.4-20.6-71.2c-28.5,0-56.9-0.1-85.3,0c-6.8,23.7-13.8,47.4-20.6,71.1
			c-14.7,0-29.3,0-43.9,0c23.7-82.4,47.7-164.8,71.6-247.1C785.5,28.8,786.5,20.6,791.3,14.2 M787.7,171.9c20.6,0,41.2,0,61.9,0
			c-10.3-35.7-20.7-71.4-30.9-107.1C808.4,100.5,798,136.2,787.7,171.9z"/>
		<path class="st0" d="M581.4,0.6c53.3,0,106.6,0,159.9,0c0,14.4,0,28.8,0,43.1c-19.6,0-39.2,0-58.9,0c0,79.9,0,159.7,0,239.6
			c-14,0-28.1,0-42.2,0c0-79.9,0-159.7,0-239.6c-19.6,0-39.2,0-58.9,0C581.4,29.4,581.4,15,581.4,0.6z"/>
		<path class="st0" d="M973,2.4c4-1.4,8.4-1.9,12.7-1.8c16.8,0.1,33.6,0,50.4,0c28.3,0.5,55.3,18.1,67.6,43.6
			c8.5,16.5,9.4,35.8,7.2,53.9c-1.5,19-9.4,38-24.1,50.6c-7.7,6.9-17.3,11-25.6,17.2c-4.5,3.4-4.8,10.2-2.4,15
			c22.3,34.4,45.5,68.4,68.3,102.5c-16.7,0-33.3,0-50,0c-21.8-32.8-43.4-65.7-65.1-98.5c-6.4-9.3-8.1-21.7-4.3-32.4
			c3-8.2,10.1-14.1,18.1-17.2c15.2-5.8,30.2-14.9,38.6-29.2c6.4-10.8,6.1-24.1,3.2-35.8c-3.4-15.3-18.3-27.3-34-26.8
			c-10.9,0.1-21.8,0-32.7,0c-4.9-0.1-9.6,4.2-9.5,9.2c0,76.9,0,153.8,0,230.7c-14.2,0-28.3,0-42.5,0c0-82.8,0-165.6,0-248.4
			C948.9,20.4,959.2,6.8,973,2.4z"/>
		<path class="st0" d="M1149.4,0.6c14.9,0,29.8,0,44.7,0c0,94.2,0,188.5,0,282.7c-14.9,0-29.8,0-44.7,0
			C1149.4,189.1,1149.4,94.9,1149.4,0.6z"/>
	</g>
</g>
</svg>
