<?xml version="1.0" encoding="utf-8"?>
<!-- Generator: Adobe Illustrator 27.2.0, SVG Export Plug-In . SVG Version: 6.00 Build 0)  -->
<svg version="1.1" id="Layer_1" xmlns="http://www.w3.org/2000/svg" xmlns:xlink="http://www.w3.org/1999/xlink" x="0px" y="0px"
	 viewBox="0 0 3840 545.48" style="enable-background:new 0 0 3840 545.48;" xml:space="preserve">
<style type="text/css">
	.st0{fill:#FFFFFF;}
	.st1{fill:#D5A53C;}
	.st2{fill:#EA3323;}
	.st3{fill-rule:evenodd;clip-rule:evenodd;fill:#48A2C9;}
	.st4{fill:none;stroke:#FFE000;stroke-width:4.6219;stroke-miterlimit:10;}
	.st5{fill-rule:evenodd;clip-rule:evenodd;fill:#FFFFFF;}
	.st6{fill:none;stroke:#FFFFFF;stroke-width:4.6219;stroke-miterlimit:10;}
	.st7{fill-rule:evenodd;clip-rule:evenodd;}
	.st8{fill:none;stroke:#000000;stroke-width:4.6219;stroke-miterlimit:10;}
	.st9{font-family:'HelveticaNeueLTStd-Md';}
	.st10{font-size:46.0412px;}
</style>
<g>
	<g>
		<rect x="3024.53" y="104.99" class="st0" width="85.17" height="335.5"/>
		<rect x="2530.85" y="104.99" class="st0" width="85.17" height="335.5"/>
		<polygon class="st0" points="2314.29,347.91 2218.91,104.99 2126.67,104.99 2266,440.49 2277.94,440.49 2350.64,440.49 
			2362.58,440.49 2501.91,104.99 2409.67,104.99 		"/>
		<rect x="1077.78" y="104.99" class="st0" width="85.17" height="335.5"/>
		<path class="st0" d="M3729.27,104.99h-200.68v14.78v55.8v264.93h85.17V175.56h92.21c26.98,0,48.85,21.87,48.85,48.85v216.08H3840
			V215.71C3840,154.56,3790.43,104.99,3729.27,104.99z"/>
		<path class="st0" d="M1711.25,104.99h-89.74h-42.59h-42.59v335.5h85.17v-273.3h41.16c16.89,0,30.58,13.69,30.58,30.58v42.19h85.17
			v-49.4C1778.43,150.43,1757.11,104.99,1711.25,104.99z"/>
		<path class="st0" d="M921.1,104.99h-87.03H748.9H636.32h-85.17v70.58v264.93h85.17V175.56H748.9v264.93h85.17V175.56h63.73
			c26.98,0,48.85,21.87,48.85,48.85v216.08h85.17V215.71C1031.83,154.56,982.26,104.99,921.1,104.99z"/>
		<path class="st0" d="M2900.42,241.64H2797.3v0h-16.24v0c-53.99,0-53.99-74.45,0-74.45h186.77v-62.2h-223.85
			c-30.28,0-90.69,25.08-90.69,99.43c0,74.35,60.41,99.43,90.69,99.43h103.12v0h16.24v0c53.99,0,53.99,74.45,0,74.45h-186.77v62.2
			h223.85c30.28,0,90.69-25.08,90.69-99.43C2991.11,266.72,2930.7,241.64,2900.42,241.64z"/>
		<path class="st0" d="M3321.79,97.6c-141.69,0-180.38,106.94-180.38,175.14s38.69,175.14,180.38,175.14
			c141.69,0,180.38-106.94,180.38-175.14S3463.48,97.6,3321.79,97.6z M3412.74,272.52c0.37,76.58-40.26,108.42-90.56,108.66
			c-50.3,0.24-91.24-31.2-91.61-107.78l0.26-0.88c0-76.58,40.78-108.22,91.09-108.22c50.3,0,91.09,31.64,91.09,108.22H3412.74z"/>
		<path class="st0" d="M1965.44,97.6c-141.69,0-180.38,106.94-180.38,175.14s38.69,175.14,180.38,175.14
			c141.69,0,180.38-106.94,180.38-175.14S2107.13,97.6,1965.44,97.6z M2056.39,272.52c0.37,76.58-40.26,108.42-90.56,108.66
			c-50.3,0.24-91.24-31.2-91.61-107.78l0.26-0.88c0-76.58,40.78-108.22,91.09-108.22c50.31,0,91.09,31.64,91.09,108.22H2056.39z"/>
		<path class="st0" d="M1196.36,272.74c0,105.55,64.57,167.75,139.18,167.75h158.98v-66.21h-112.39c0,0-0.01,0-0.01,0
			c-82.31,0-99.36-70.28-99.36-99.36c0-54.87,44.48-99.36,99.36-99.36h112.4v-70.58h-130.4
			C1248.48,104.99,1196.36,180.09,1196.36,272.74z"/>
	</g>
	<g>
		<g>
			<g>
				<path class="st0" d="M341.14,19.41c20.06,0,36.33,16.26,36.33,36.33v434c0,20.06-16.26,36.33-36.33,36.33H55.74
					c-20.06,0-36.33-16.26-36.33-36.33v-434c0-20.06,16.26-36.33,36.33-36.33H341.14 M341.14,0H55.74C25,0,0,25,0,55.74v434
					c0,30.74,25,55.74,55.74,55.74h285.4c30.73,0,55.74-25,55.74-55.74v-434C396.87,25,371.87,0,341.14,0L341.14,0z"/>
			</g>
			<path class="st0" d="M181.38,158.87c0.04-0.14,0-4.82,0-4.82l-0.74,4.82l-27.13,100.46h-25.46l-27.06-100.46
				c-0.29-0.39-0.86-4.92-0.86-4.92v4.92l-0.1,100.46H62.96V49.96h45.79l30.95,113.81l0.58,3.36l0.58-3.36l30.17-113.81h47.83
				v209.37h-37.46L181.38,158.87"/>
			<path class="st5" d="M263.32,84.85c2.22-0.29,10.67-0.16,10.67-0.16c7.89-0.1,24.36,7.44,24.08,23.01
				c-0.35,21.3-16.66,25.7-24.06,25.82c0,0-8.51,0.15-10.69,0.15L263.32,84.85 M263.58,170.82c3.44-0.08,11.16,0.08,11.16,0.08
				c14.52,0.12,29.6,9.33,29.31,25.87c-0.33,19.87-15.9,27.41-28.59,27.45c0,0-8.57,0.19-11.9,0.06L263.58,170.82z M226.22,49.96
				L276.41,50c36.2,0.04,60.61,26.84,59.29,56.27c-0.88,19.89-8.98,34.48-19.11,42.86c20.66,13.16,29.29,39.01,25.02,61.06
				c-7.08,36.44-37.17,49.2-64.49,49.2h-50.77L226.22,49.96z"/>
			<text transform="matrix(1 0 0 1 112.6513 459.6173)" class="st0 st9 st10">MILTON</text>
			<text transform="matrix(1 0 0 1 87.7674 502.4923)" class="st0 st9 st10">BRADLEY</text>
			<polyline class="st6" points="18.15,375.02 82.11,375.02 96.86,343.8 113.02,402.95 134.23,333.73 148.69,389.82 161.96,352.27 
				170.31,375.02 203.77,375.02 219.06,342.52 230.69,401.05 258,331.59 274.65,398.06 299.92,344.66 311.88,375.02 378.72,375.02 
							"/>
		</g>
		<g>
			<path class="st0" d="M80.03,310.02H62.11c-1.41-0.36-2.22-1.27-2.44-2.72l4.5-1.63h14.67L80.03,310.02z M59.78,306.22l1.41-14.12
				l1.2-1.09l2.93,3.26l-1.04,10.32L59.78,306.22z M67.11,276.35l-1.03,10.32l-3.58,3.26l-0.98-1.09l1.41-14.12L67.11,276.35z
				 M81.88,275.26H67.28l-4.18-1.63c0.5-1.45,1.5-2.35,2.98-2.72h17.87L81.88,275.26z M80.03,288.29l1.96,2.17l-2.39,2.17H65.48
				l-1.96-2.17l2.39-2.17H80.03z"/>
			<path class="st0" d="M89.8,294.27l-1.14,11.41l-2.06,4.35c-1.41-0.36-2.22-1.27-2.44-2.72l1.52-15.21l1.2-1.09L89.8,294.27z
				 M86.97,289.92l-0.98-1.09l1.52-15.21c0.51-1.45,1.51-2.35,2.99-2.72l1.2,4.34l-1.14,11.41L86.97,289.92z M89.74,305.67h13.03
				l4.18,1.63c-0.51,1.45-1.5,2.35-2.98,2.72H87.68L89.74,305.67z"/>
			<path class="st0" d="M131.31,310.02h-17.92c-1.41-0.36-2.22-1.27-2.44-2.72l4.5-1.63h14.67L131.31,310.02z M111.06,306.22
				l1.41-14.12l1.2-1.09l2.93,3.26l-1.04,10.32L111.06,306.22z M118.38,276.35l-1.03,10.32l-3.58,3.26l-0.98-1.09l1.41-14.12
				L118.38,276.35z M133.16,275.26h-14.61l-4.18-1.63c0.5-1.45,1.5-2.35,2.98-2.72h17.87L133.16,275.26z M131.31,288.29l1.96,2.17
				l-2.39,2.17h-14.12l-1.96-2.17l2.39-2.17H131.31z"/>
			<path class="st0" d="M155.79,310.02h-17.92c-1.41-0.36-2.22-1.27-2.44-2.72l4.5-1.63h14.67L155.79,310.02z M135.54,306.22
				l1.41-14.12l1.2-1.09l2.93,3.26l-1.04,10.32L135.54,306.22z M142.86,276.35l-1.03,10.32l-3.58,3.26l-0.98-1.09l1.41-14.12
				L142.86,276.35z M157.64,275.26h-14.61l-4.18-1.63c0.5-1.45,1.5-2.35,2.98-2.72h17.87L157.64,275.26z"/>
			<path class="st0" d="M167.39,275.26l-4.19-1.63c0.51-1.45,1.51-2.35,2.99-2.72h17.32c1.41,0.36,2.23,1.27,2.45,2.72l-4.51,1.63
				H167.39z M172.82,291.01l1.95,2.17l-1.41,14.12c-0.5,1.45-1.5,2.35-2.98,2.72l-1.2-4.35l1.25-12.49L172.82,291.01z
				 M170.97,287.75l1.14-11.41h4.34l-1.14,11.41l-2.39,2.17L170.97,287.75z"/>
			<path class="st0" d="M192.3,294.27l-1.14,11.41l-2.06,4.35c-1.41-0.36-2.22-1.27-2.44-2.72l1.52-15.21l1.2-1.09L192.3,294.27z"/>
			<polygon class="st0" points="194.08,276.35 193.06,286.67 189.48,289.92 188.49,288.84 189.9,274.72 			"/>
			<path class="st0" d="M207.23,275.26h-12.98l-4.18-1.63c0.5-1.45,1.5-2.35,2.98-2.72h16.24L207.23,275.26z"/>
			<polygon class="st0" points="207.01,288.29 208.97,290.47 206.58,292.64 192.46,292.64 190.5,290.47 192.9,288.29 			"/>
			<path class="st0" d="M193.44,293.73h3.25l12.71,14.12c-0.87,1.45-2.39,2.17-4.56,2.17l-11.73-13.04L193.44,293.73z"/>
			<path class="st0" d="M207.18,286.67l1.13-11.41l2.06-4.34c1.42,0.36,2.23,1.27,2.45,2.72l-1.52,15.21l-1.2,1.09L207.18,286.67z"
				/>
			<polygon class="st0" points="219.76,294.27 218.62,305.67 216.83,307.3 214.38,304.59 215.63,292.1 216.83,291.01 			"/>
			<polygon class="st0" points="233.61,307.85 231.22,310.02 219.27,310.02 217.31,307.85 219.71,305.67 231.65,305.67 			"/>
			<polygon class="st0" points="237.47,291.01 238.44,292.1 237.19,304.59 234.2,307.3 232.74,305.67 233.88,294.27 			"/>
			<g>
				<polygon class="st0" points="216.94,289.92 215.95,288.84 217.2,276.35 220.19,273.63 221.66,275.26 220.52,286.67 				"/>
				<polygon class="st0" points="234.7,275.26 222.74,275.26 220.79,273.09 223.18,270.91 235.12,270.91 237.08,273.09 				"/>
				<polygon class="st0" points="234.64,286.67 235.78,275.26 237.57,273.63 240.02,276.35 238.77,288.84 237.57,289.92 				"/>
			</g>
			<path class="st0" d="M248.08,294.27l-1.14,11.41l-2.06,4.35c-1.41-0.36-2.22-1.27-2.44-2.72l1.52-15.21l1.2-1.09L248.08,294.27z"
				/>
			<path class="st0" d="M265.78,291.01l0.97,1.09l-1.52,15.21c-0.51,1.45-1.5,2.35-2.98,2.72l-1.2-4.35l1.14-11.41L265.78,291.01z"
				/>
			<path class="st0" d="M275.7,290.47l0.97,1.09l-1.52,15.21c-0.51,1.45-1.5,2.35-2.98,2.72l-1.2-4.35l1.14-11.41L275.7,290.47z
				 M272.82,286.67l1.13-11.41l2.06-4.34c1.41,0.36,2.23,1.27,2.45,2.72l-1.52,15.21l-1.2,1.09L272.82,286.67z"/>
			<path class="st0" d="M301.11,310.02h-17.92c-1.41-0.36-2.22-1.27-2.44-2.72l4.5-1.63h14.67L301.11,310.02z M280.86,306.22
				l1.41-14.12l1.2-1.09l2.93,3.26l-1.04,10.32L280.86,306.22z M288.18,276.35l-1.03,10.32l-3.58,3.26l-0.98-1.09l1.41-14.12
				L288.18,276.35z M302.96,275.26h-14.61l-4.18-1.63c0.5-1.45,1.5-2.35,2.98-2.72h17.87L302.96,275.26z"/>
			<path class="st0" d="M323.87,310.02h-16.29c-1.41-0.36-2.22-1.27-2.44-2.72l4.5-1.63h13.03L323.87,310.02z"/>
			<polygon class="st0" points="312.57,276.35 311.54,286.67 307.96,289.92 306.98,288.84 308.39,274.72 			"/>
			<path class="st0" d="M312.74,275.26l-4.18-1.63c0.5-1.45,1.5-2.35,2.98-2.72h17.32c1.42,0.36,2.23,1.27,2.45,2.72l-4.51,1.63
				H312.74z"/>
			<g>
				<polygon class="st0" points="325.5,288.29 327.45,290.47 325.07,292.64 310.94,292.64 308.99,290.47 311.38,288.29 				"/>
				<path class="st0" d="M328.49,291.01l0.97,1.09l-1.52,15.21c-0.51,1.45-1.5,2.35-2.98,2.72l-1.2-4.35l1.14-11.41L328.49,291.01z"
					/>
			</g>
			<g>
				<polygon class="st0" points="245.34,289.92 244.35,288.84 245.6,276.35 248.59,273.63 250.06,275.26 248.92,286.67 				"/>
				<polygon class="st0" points="263.1,275.26 251.14,275.26 249.19,273.09 251.58,270.91 263.52,270.91 265.48,273.09 				"/>
				<polygon class="st0" points="263.04,286.67 264.18,275.26 265.97,273.63 268.42,276.35 267.17,288.84 265.97,289.92 				"/>
			</g>
		</g>
	</g>
</g>
</svg>
