<?xml version="1.0" encoding="utf-8"?>
<!-- Generator: Adobe Illustrator 26.3.1, SVG Export Plug-In . SVG Version: 6.00 Build 0)  -->
<svg version="1.1" id="Layer_1" xmlns="http://www.w3.org/2000/svg" xmlns:xlink="http://www.w3.org/1999/xlink" x="0px" y="0px"
	 viewBox="0 0 3839 514.7" style="enable-background:new 0 0 3839 514.7;" xml:space="preserve">
<style type="text/css">
	.st0{display:none;}
	.st1{display:inline;}
	.st2{fill:#17B3E8;}
	.st3{fill:#A19FA3;}
	.st4{fill:#A1A0A4;}
	.st5{fill:#FFFFFF;}
	.st6{fill:#ED0972;}
</style>
<g>
	<path class="st5" d="M1856.5,318h-158.6c-23,0-41.6,18.8-41.6,41.7v113.3c0,22.6,18.6,41.6,41.6,41.6h158.6
		c22.9,0,41.5-19,41.5-41.6V359.8C1898,336.8,1879.4,318,1856.5,318 M1863.2,472.7c0,4.5-3.8,8-8.2,8h-155.8c-4.5,0-8.2-3.5-8.2-8
		V359.9c0-4.5,3.7-8.1,8.2-8.1h155.8c4.4,0,8.2,3.7,8.2,8.1"/>
	<path class="st5" d="M0.1,97.7h31l147.2,143.2V97.7h36c-0.1,2.1-0.1,194.4,0,196.8h-28.5L36.4,148.7v145.8H0.1
		C0,292,0,99.8,0.1,97.7"/>
	<polyline class="st5" points="401.2,148.7 401.2,294.4 364.7,294.4 364.7,97.7 395.8,97.7 543.2,240.9 543.2,97.7 579.3,97.7 
		579.3,294.4 550.8,294.4 	"/>
	<polyline class="st5" points="1157.7,148.7 1157.7,294.4 1121.4,294.4 1121.4,97.7 1152.4,97.7 1299.9,240.9 1299.9,97.7 
		1336,97.7 1336,294.4 1307.5,294.4 	"/>
	<polyline class="st5" points="300.9,97.7 307.7,97.7 307.7,294.4 271.2,294.4 271.2,97.7 	"/>
	<polyline class="st5" points="827.2,97.7 834,97.7 834,131.4 746.1,131.4 746.1,294.4 708.3,294.4 708.3,131.4 620.5,131.4 
		620.5,97.7 	"/>
	<polyline class="st5" points="1060.4,97.7 1067.3,97.7 1067.3,131.4 911.2,131.4 911.3,175.7 1032,175.7 1032,209.5 911.3,209.5 
		911.2,260.5 1067.3,260.5 1067.3,294.4 875.2,294.4 875.2,97.7 	"/>
	<path class="st5" d="M1598.1,126.5c-14.2-18.8-35.3-28.8-60.7-28.8h-146v196.8h146c25.4,0,46.5-10,60.7-28.7
		c13.4-17.5,20.4-41.7,20.4-69.8S1611.5,143.9,1598.1,126.5 M1538.4,260.5h-112V131.4h112c34.9,0,47.4,34.9,47.4,64.5
		S1573.3,260.5,1538.4,260.5"/>
	<path class="st5" d="M1856.5,97.7h-158.6c-23,0-41.6,18.8-41.6,41.7v113.3c0,23,18.6,41.8,41.6,41.8h158.6
		c22.9,0,41.5-18.8,41.5-41.8V139.4C1898,116.5,1879.4,97.7,1856.5,97.7 M1863.2,252.4c0,4.5-3.8,8.1-8.2,8.1h-155.8
		c-4.5,0-8.2-3.7-8.2-8.1V139.7c0-4.5,3.7-8.3,8.2-8.3h155.8c4.4,0,8.2,3.8,8.2,8.3"/>
	<path class="st5" d="M2518.1,431.6c37.7,15,117.5,26.9,179.7,26.9c68.1,0,96.2-23.3,96.2-52.6c0-26.3-26.2-41.8-101.4-69.3
		c-100.5-37.1-174.3-66.5-174.3-132.4c0-68.4,88.7-108.8,224.1-108.8c72.6,0,97.5,4.8,143.7,13.2l0.2,64.9
		c-45.2-8.6-85.3-23.4-147.8-23.4c-66.9,0-95.4,21.2-95.4,43.2c0,31.7,43.9,46.8,120.8,74.2c107,38.4,166.9,68,166.9,132.6
		c-0.2,66.6-74.8,114.6-243.1,114.6c-69.1,0-116.8-4.6-169.8-13.1"/>
	<path class="st5" d="M2374.7,484.5c-39.7,17.8-114.6,29.2-180.4,29.2h-250.8V96.4h250.8c65.7,0,140.7,11.6,180.4,29.5
		c96.5,43.7,128,113.3,128,179.3C2502.8,371.2,2471.5,440.9,2374.7,484.5 M2159.4,153h-80.3v303.2h80.3
		c123.2,0,200.9-52.6,200.9-151C2360.3,206.7,2282.6,153,2159.4,153"/>
	<path class="st5" d="M3169.2,42.6c14.4,0,26,10.8,26,24.5s-11.5,24.5-26,24.5c-14.1,0-25.5-11-25.5-24.5S3155.1,42.6,3169.2,42.6
		 M3191,248.4h-43.3V116.3h43.3V248.4z M3169.4,289.5c80,0,144.9-64.9,144.9-144.9c0-79.8-64.9-144.7-144.9-144.7
		c-80,0-144.7,64.9-144.7,144.7C3024.6,224.7,3089.4,289.5,3169.4,289.5"/>
	<polyline class="st5" points="3443.9,514.7 3389.9,514.7 3576,228.8 3629.9,228.8 	"/>
	<polyline class="st5" points="3580.3,514.7 3633.6,514.7 3447.5,228.8 3394.2,228.8 	"/>
	<path class="st5" d="M3662.7,228.8v212.5c0,0-0.3,73.3,73.3,73.3h103v-43.5h-99.6c0,0-30.1-1-30.1-33.8V228.8"/>
	<polyline class="st5" points="2951.6,509.1 2943.5,509.1 2943.5,477.2 2931.8,477.2 2931.8,470.4 2963.3,470.4 2963.3,477.2 
		2951.6,477.2 	"/>
	<polyline class="st5" points="3008.6,509.1 3001.1,509.1 3001.1,476.6 3001,476.6 2993.7,509.1 2985.8,509.1 2978.8,476.6 
		2978.6,476.6 2978.6,509.1 2971.1,509.1 2971.1,470.4 2982.8,470.4 2989.8,500.8 2990,500.8 2996.9,470.4 3008.6,470.4 	"/>
</g>
</svg>
