<?xml version="1.0" encoding="utf-8"?>
<!-- Generator: Adobe Illustrator 25.4.1, SVG Export Plug-In . SVG Version: 6.00 Build 0)  -->
<svg version="1.1" id="Layer_1" xmlns="http://www.w3.org/2000/svg" xmlns:xlink="http://www.w3.org/1999/xlink" x="0px" y="0px"
	 viewBox="0 0 3839 343.2" style="enable-background:new 0 0 3839 343.2;" xml:space="preserve">
<style type="text/css">
	.st0{fill:#232F95;}
	.st1{fill:#FFFFFF;}
	.st2{fill:url(#SVGID_1_);}
	.st3{fill:url(#SVGID_00000067234742204300468920000013543599832757095865_);}
	.st4{fill:url(#SVGID_00000156559022826943311730000015214010823226727040_);}
	.st5{fill:url(#SVGID_00000136394531772933947450000016780730880182905255_);}
	.st6{fill:url(#SVGID_00000049187676992044140030000017228053317146626705_);}
	.st7{fill:url(#SVGID_00000137850053645085741770000016057732538523872901_);}
	.st8{fill:url(#SVGID_00000057837833905423146260000002104585416356906890_);}
	.st9{fill:url(#SVGID_00000107553785004955977630000005738912510899330691_);}
	.st10{fill:url(#SVGID_00000150097290387959725040000017921972983050939021_);}
	.st11{fill:url(#SVGID_00000103241686356651936000000009685992080116106646_);}
	.st12{fill:url(#SVGID_00000056426011745912895950000016037232772469042361_);}
	.st13{fill:url(#SVGID_00000102510859923304439770000011002579779633965955_);}
	.st14{fill:url(#SVGID_00000053522171435093033240000008234846641492316063_);}
	.st15{fill:url(#SVGID_00000054250814314145350230000013858373209034608049_);}
	.st16{fill:url(#SVGID_00000131354878004215518080000002226258236307397790_);}
	.st17{fill:url(#SVGID_00000039849403078954404820000016561472751329705608_);}
	.st18{fill:url(#SVGID_00000173839740827209370830000006466957079676099726_);}
	.st19{fill:url(#SVGID_00000022520476315461670910000012548980104970259127_);}
	.st20{fill:url(#SVGID_00000011029763675051530310000002996873592556391595_);}
	.st21{fill:url(#SVGID_00000109023305102819378130000004385519016604527031_);}
	.st22{fill:url(#SVGID_00000128444065280737537310000011055358176522615991_);}
	.st23{fill:url(#SVGID_00000014629353262825063230000010403693879921001401_);}
	.st24{fill:url(#SVGID_00000117635012282432435190000002292740303485298354_);}
	.st25{fill:url(#SVGID_00000015314695554290016850000004904294282143914647_);}
	.st26{fill:url(#SVGID_00000000184862847881446480000016247180259044441786_);}
	.st27{fill:url(#SVGID_00000164514970860468755810000008646480117475694015_);}
	.st28{fill:url(#SVGID_00000096777491533978084290000011771419597694145167_);}
	.st29{fill:url(#SVGID_00000087384489658371091430000005848642596721893271_);}
	.st30{fill:url(#SVGID_00000059303356545807993580000013968521765096718224_);}
	.st31{fill:url(#SVGID_00000147905104270924415870000017406670165891611286_);}
	.st32{fill:url(#SVGID_00000151537257501160635020000010852375333154063273_);}
	.st33{fill:url(#SVGID_00000089567052575132196300000007752004207718733959_);}
	.st34{fill:url(#SVGID_00000017498970465729175600000009623498551006604422_);}
	.st35{fill:url(#SVGID_00000003071430190425335810000012052306720588852133_);}
	.st36{fill:url(#SVGID_00000098200927719779905950000015091304137008436368_);}
	.st37{fill:url(#SVGID_00000075132186216919480510000002898157022507076510_);}
	.st38{fill:url(#SVGID_00000034086383524390295880000012134519126226465442_);}
	.st39{fill:url(#SVGID_00000073706418217164083240000005796641924753818249_);}
	.st40{fill:url(#SVGID_00000007391847333685585950000014005277055903254714_);}
	.st41{fill:url(#SVGID_00000167375607878464898160000017599237403284659358_);}
	.st42{fill:url(#SVGID_00000095300068139371391680000012224142749469382804_);}
	.st43{fill:url(#SVGID_00000134251200114587598190000006025103854907834785_);}
	.st44{fill:url(#SVGID_00000111889928265937773620000010131103520132520867_);}
	.st45{fill:url(#SVGID_00000095325945894988039080000005857308421822434993_);}
	.st46{fill:url(#SVGID_00000107572786792702097540000018133039811331920792_);}
	.st47{fill:url(#SVGID_00000138575154191284767640000007425457836511509133_);}
	.st48{fill:url(#SVGID_00000074405003555378527240000011211447235721112730_);}
	.st49{fill:url(#SVGID_00000135683999082790503550000009935639434665162403_);}
	.st50{fill:url(#SVGID_00000030452232383279169110000016930860466549717406_);}
	.st51{fill:url(#SVGID_00000083771690216831364220000009890617117382184340_);}
	.st52{fill:url(#SVGID_00000162342710869605066760000013755169848492619148_);}
	.st53{fill:url(#SVGID_00000018959607977791335770000012564643030147357332_);}
	.st54{fill:url(#SVGID_00000010296857124618497050000010280256004639918988_);}
	.st55{fill:url(#SVGID_00000168083612751865608220000015184206729897100174_);}
	.st56{fill:url(#SVGID_00000083796120214658939800000004433251344429170816_);}
	.st57{fill:url(#SVGID_00000051371069400305549640000008666161741591290542_);}
	.st58{fill:url(#SVGID_00000002364719934282564090000004642482103860634546_);}
	.st59{fill:url(#SVGID_00000097492352956151254940000000483693834360890029_);}
	.st60{fill:url(#SVGID_00000109020598507953959910000005766691937646107045_);}
	.st61{fill:url(#SVGID_00000014603265278888570290000000748819798522247350_);}
	.st62{fill:url(#SVGID_00000061455158837372330250000000228685916021219502_);}
	.st63{fill:url(#SVGID_00000183243677587166928510000001316078511344832408_);}
	.st64{fill:url(#SVGID_00000044177751315636480310000005900489931124639894_);}
	.st65{fill:url(#SVGID_00000128469129256545345740000007298236887230348469_);}
	.st66{fill:url(#SVGID_00000147902893096769559820000014060360083393080750_);}
	.st67{fill:url(#SVGID_00000114059907571989361210000017215375843029933738_);}
	.st68{fill:url(#SVGID_00000069355899351487954950000015959701032154645152_);}
	.st69{fill:url(#SVGID_00000039851063971215370980000012980246268827144845_);}
	.st70{fill:url(#SVGID_00000036241273994973699570000018286203806312751529_);}
	.st71{fill:url(#SVGID_00000129199633418195390680000012218361490104161205_);}
	.st72{fill:url(#SVGID_00000125566518152247173640000006690220701558469021_);}
	.st73{fill:url(#SVGID_00000042713895673567315890000010046668185994665114_);}
	.st74{fill:url(#SVGID_00000011737468168558618510000017675779100872546720_);}
	.st75{fill:url(#SVGID_00000145755057256860468410000002782543052413115804_);}
	.st76{fill:url(#SVGID_00000158009309712101535640000002742655278997339525_);}
	.st77{fill:url(#SVGID_00000075876697663468303200000012644389651184855691_);}
	.st78{fill:url(#SVGID_00000005234624495824117370000004733933152499312008_);}
	.st79{fill:url(#SVGID_00000151544879326299307390000017526364435276419005_);}
	.st80{fill:url(#SVGID_00000150066589682045224750000000022432754882975888_);}
	.st81{fill:url(#SVGID_00000068646856849452011830000001502625283267129004_);}
	.st82{fill:url(#SVGID_00000009550030122233182470000011306755904087155604_);}
	.st83{fill:url(#SVGID_00000125593565789162916320000017344885723691995065_);}
	.st84{fill:url(#SVGID_00000160892206188444330570000001727611127215005116_);}
	.st85{fill:url(#SVGID_00000025437338973924341680000013296032631824762557_);}
	.st86{fill:url(#SVGID_00000163772305015465243940000010954136993662058684_);}
	.st87{fill:url(#SVGID_00000109715676303187605360000006201174530496651953_);}
	.st88{fill:url(#SVGID_00000081617400813032207740000014289024352769059713_);}
	.st89{fill:url(#SVGID_00000035514053821257725030000011620464993540691097_);}
	.st90{fill:url(#SVGID_00000049926280943182369640000014205039782885479319_);}
	.st91{fill:url(#SVGID_00000102533860379106952910000008757669563842566043_);}
	.st92{fill:url(#SVGID_00000003817204812589906180000016029213589399038851_);}
	.st93{fill:url(#SVGID_00000072989672890427980700000007177838732689860258_);}
	.st94{fill:url(#SVGID_00000031172804719088267070000004471516410906379659_);}
	.st95{fill:url(#SVGID_00000069386126861483527280000003462196132524933038_);}
	.st96{fill:url(#SVGID_00000076564748338303180390000011152963625190229923_);}
	.st97{fill:url(#SVGID_00000054235754207945727930000013527557958416383673_);}
	.st98{fill:url(#SVGID_00000140701260974719298820000008859745787721162915_);}
	.st99{fill:url(#SVGID_00000036250031573581080730000007712507628000067982_);}
	.st100{fill:url(#SVGID_00000119834736749610503050000013663763370820989330_);}
	.st101{fill:url(#SVGID_00000066482579649383307110000005814197186350112928_);}
	.st102{fill:#502F8E;}
	.st103{fill:url(#SVGID_00000120560864612343078360000011956929726265760165_);}
	.st104{fill:url(#SVGID_00000069355705960966606510000014809969655322548864_);}
	.st105{fill:url(#SVGID_00000088842003904771331980000005380418728022095786_);}
	.st106{fill:url(#SVGID_00000109741694163288600890000002107986265481767864_);}
	.st107{fill:url(#SVGID_00000008870367688749692690000010469738081897076361_);}
	.st108{fill:url(#SVGID_00000036966646535608660710000011933558435053982348_);}
	.st109{fill:url(#SVGID_00000031887597720643505970000008454555454246969509_);}
	.st110{fill:url(#SVGID_00000005241931906357136120000009748257091849804943_);}
	.st111{fill:url(#SVGID_00000128449206211609307570000004258648358021624252_);}
	.st112{fill:url(#SVGID_00000160154975618553295710000014101272074467330200_);}
	.st113{fill:url(#SVGID_00000183241811915385990890000003314372364572314282_);}
	.st114{fill:url(#SVGID_00000182518053212439112390000004158614584417616266_);}
	.st115{fill:url(#SVGID_00000150064849662941324190000004530717568648480420_);}
	.st116{fill:url(#SVGID_00000064341570590137790520000008442179720624684448_);}
	.st117{fill:url(#SVGID_00000149348470869672220930000006045543202679238802_);}
	.st118{fill:url(#SVGID_00000011007624956656083560000002061384921541319080_);}
	.st119{fill:url(#SVGID_00000173848880761678623610000010131862165086330301_);}
	.st120{fill:url(#SVGID_00000169559696972257999810000003138450124289891719_);}
	.st121{fill:url(#SVGID_00000163034133502627502560000006615091661873256593_);}
	.st122{fill:url(#SVGID_00000013888703361497679120000005355616317220151733_);}
	.st123{fill:url(#SVGID_00000062907010057859624570000004623887388642571178_);}
	.st124{fill:url(#SVGID_00000130636120515434409610000001823202742642433214_);}
	.st125{fill:url(#SVGID_00000183235758859278099750000000067757852094936986_);}
	.st126{fill:url(#SVGID_00000138546681535861567180000013002418674353823106_);}
	.st127{fill:url(#SVGID_00000072970655511936637060000006239248317800502455_);}
	.st128{fill:url(#SVGID_00000150821134854796220470000016042595793042887348_);}
	.st129{fill:url(#SVGID_00000163061842223084206360000017631977987653246858_);}
	.st130{fill:url(#SVGID_00000111874779217705850350000007089270349161432455_);}
	.st131{fill:url(#SVGID_00000093171626182465387190000009940929951954159771_);}
	.st132{fill:url(#SVGID_00000127023071130188586910000010242121699319450020_);}
	.st133{fill:url(#SVGID_00000049934496261542174910000013558277166162619564_);}
	.st134{fill:url(#SVGID_00000167376593304860037770000016645418498735336864_);}
	.st135{fill:url(#SVGID_00000027602335421657796720000014169512398148936882_);}
	.st136{fill:url(#SVGID_00000095337845332317693080000008035978493549590662_);}
	.st137{fill:url(#SVGID_00000147179764717927853760000015132655833525199495_);}
	.st138{fill:url(#SVGID_00000171696122270818672440000007581060575097122732_);}
	.st139{fill:url(#SVGID_00000020397715949538141460000015646210099104922282_);}
	.st140{fill:url(#SVGID_00000169556205517810668730000008264898432530501273_);}
	.st141{fill:url(#SVGID_00000124880194275123643150000009234531868405062828_);}
	.st142{fill:url(#SVGID_00000062875602462176401160000003299352556789793161_);}
	.st143{fill:url(#SVGID_00000081638536286333932170000002048315762792333745_);}
	.st144{fill:url(#SVGID_00000062886279594670550880000007065573856758450610_);}
	.st145{fill:url(#SVGID_00000015356222840646211070000017550953998945844414_);}
	.st146{fill:url(#SVGID_00000143596590914558218920000008951258675944503712_);}
	.st147{fill:url(#SVGID_00000113338129120638346900000016227158810664949903_);}
	.st148{fill:url(#SVGID_00000028317342435972985900000012918705762946504865_);}
	.st149{fill:url(#SVGID_00000036953348436521729890000000302363559835183504_);}
	.st150{fill:url(#SVGID_00000079486670366623483180000004854871589794096059_);}
	.st151{fill:url(#SVGID_00000065043679946319654870000003309315988929659070_);}
	.st152{fill:url(#SVGID_00000003802712184788359010000014874040875975698049_);}
	.st153{fill:url(#SVGID_00000010300078709955818300000006900715013342595491_);}
	.st154{fill:url(#SVGID_00000086686271635367791900000016611039357925484943_);}
	.st155{fill:url(#SVGID_00000028316674145345734290000015435434018398201767_);}
	.st156{fill:url(#SVGID_00000127727105335987031290000002022182424651594410_);}
	.st157{fill:url(#SVGID_00000155118597585036131050000003475514925109104822_);}
	.st158{fill:url(#SVGID_00000031198527693826087280000004350010883842181514_);}
	.st159{fill:url(#SVGID_00000112621469136771662870000014704320644872958602_);}
	.st160{fill:url(#SVGID_00000062887524960730433150000009902337451361458086_);}
	.st161{fill:url(#SVGID_00000046318989181444368350000010083590333188260787_);}
	.st162{fill:url(#SVGID_00000137110794700489042150000001551440735822435737_);}
	.st163{fill:url(#SVGID_00000019646687271079647060000010943265732295075256_);}
	.st164{fill:url(#SVGID_00000078043396302625187480000018151142672928004254_);}
	.st165{fill:url(#SVGID_00000174567852123182655250000013596256582315581887_);}
	.st166{fill:url(#SVGID_00000148634112456120848690000017805253807279458976_);}
	.st167{fill:url(#SVGID_00000156572029763985391600000008074533981110367151_);}
	.st168{fill:url(#SVGID_00000168110096999796198220000007008092546713041559_);}
	.st169{fill:url(#SVGID_00000083803349306849887030000014197205005527925905_);}
	.st170{fill:url(#SVGID_00000075860690030989799440000010752021124692137636_);}
</style>
<g>
	<g>
		<path class="st1" d="M2794,58.1h-70.5l-1.9,3.5l-80.8,146.7l-85.7-146.8l-1.9-3.4h-75.8l6.2,10.2l14.6,24
			c-23.4-22.2-59.2-34.3-105.7-34.3H2240v190.7L2127.1,61.5l-2-3.3h-58.3l-2,3.3L1936.5,278l-6,10.2h50.5v0.1h112.2v-50.8h-66
			l66.1-119.2l93.3,166.5l1.9,3.4h75.2l-0.1-0.2h115.5c99.6,0,150.2-38.9,150.2-115.7c0-13.3-1.7-25.6-5-36.8l90.4,149.2l2,3.2h44
			l1.9-3.4l125.5-216.4L2794,58.1 M2367.9,234.3h-61.3V110.2h86.4c46.7,0,68.5,18.9,68.5,59.5C2461.5,218,2437.9,234.3,2367.9,234.3
			z"/>
		<polyline class="st1" points="3234,58.1 3227.2,58.1 3227.2,194.8 3054.4,59.5 3052.6,58.1 3007.2,58.1 3007.2,249 2894.2,61.4 
			2892.2,58.2 2833.9,58.2 2831.9,61.5 2703.5,277.8 2697.5,288 2766,288 2766.1,287.8 2860.4,287.8 2860.4,237 2794.3,237 
			2860.3,118.1 2953.6,284.6 2955.6,288 3030.8,288 3030.7,287.9 3068.7,287.9 3068.7,149.3 3240.9,286.4 3242.8,287.9 3288,287.9 
			3288,58.1 3234,58.1 		"/>
		<path class="st1" d="M3505.9,58.1h-134.8c-47.3,0-63.2,14.6-63.2,58V230c0,43.2,15.9,57.9,63.2,57.9h134.8
			c47.3,0,63.3-14.6,63.3-57.9v-32.3l-6.7,0l-53-0.1h-6.8v35.4h-128.4V111.6h128.4v31.9l6.8,0l53,0.2l6.8,0v-27.7
			C3569.2,72.2,3553.8,58.1,3505.9,58.1"/>
		<polyline class="st1" points="3832.2,234.3 3657.3,234.3 3657.3,194 3761.7,194 3761.7,143.3 3657.3,143.3 3657.3,110.1 
			3836.4,110.1 3836.4,58.1 3590.8,58.1 3590.8,287.9 3839,287.9 3839,234.3 3832.2,234.3 		"/>
	</g>
	<g>
		<path class="st1" d="M765.8,9l-76.4,179.7L656.5,9h-66.6l-86.1,265.1L459.6,9h-83.1L250.6,294.7l18.8-119.4h-125l-9.6,61.5H187
			l-6,32.9c-30,11.9-80.9,7.5-102.6-31.5c-13.7-24.7-26.5-79.7,31.4-130.3c47.2-41.2,128.8-48.7,176-26.9c0,0,6-34.5,10.5-66.6
			c-90.6-31.5-161-5.2-208.1,24C24,78-6.9,138.6,1.3,220.9c9.5,95.6,133.3,155.8,238.1,95.1c1-0.6,1.7-1,2.4-1.4l-9.9,22.4h70.4
			l44.2-98.1h77.9l17.2,98.1h114.6l58.4-183.4L652,337h44.9l87.6-202.9l8.9,202.9h67.4L846.7,9H765.8 M373.4,175.3l28.5-63.6
			l12.3,63.6H373.4z"/>
		<polyline class="st1" points="866.1,337 1054.1,337 1065.3,266.6 947.7,266.6 957.1,208.2 1059.3,208.2 1070.6,137.8 967.2,137.8 
			976.2,79.4 1093.8,79.4 1105,9 918.5,9 866.1,337 		"/>
		<polyline class="st1" points="1784.1,116.1 1742.2,9 1665.1,9 1744.4,182 1720,337 1787.4,337 1808.1,200 1929.4,9 1850.8,9 
			1784.1,116.1 		"/>
		<path class="st1" d="M1600.4,11.9c-74.7-17.2-152.2,42.3-173.1,132.9c-21,90.6,22.6,178.1,97.3,195.4
			c74.7,17.3,152.2-42.2,173.1-132.9C1718.6,116.6,1675,29.1,1600.4,11.9 M1626.7,204.7c-18.2,54.6-61.8,85.9-97.5,69.9
			c-35.6-16-49.8-73.1-31.6-127.6c18.2-54.6,61.8-85.8,97.4-69.9C1630.8,92.9,1644.9,150.1,1626.7,204.7z"/>
		<path class="st1" d="M1333.1,10.9c-36.4-0.6-126.3,0-126.3,0h0.7l-52,325.4c0,0,107.8,0,151.6,0c62.4,0,153.7-92,70.6-167.1
			C1463.2,80.7,1378.5,11.7,1333.1,10.9 M1293.7,273.2c-37.2,0-59.4,0-59.4,0l10.4-65.4c0,0,14.1,0,56.5,0
			C1354.7,207.8,1353.2,273.2,1293.7,273.2z M1301.9,140.9c-37.2,0-46.8,0-46.8,0l10.4-60.9c0,0,1.5,0,43.8,0
			C1356.9,80,1347.3,140.9,1301.9,140.9z"/>
	</g>
	<path class="st1" d="M1837.1,333.9c-15.3,0-27.2-11.8-27.2-27.2c0-15.1,11.8-27,27.2-27c15.5,0,27.1,11.9,27.1,27
		C1864.2,322,1852.6,333.9,1837.1,333.9 M1837.1,339.1c17.9,0,32.4-14.4,32.4-32.5c0-17.9-14.5-32.2-32.4-32.2
		c-18,0-32.5,14.3-32.5,32.2C1804.6,324.7,1819.1,339.1,1837.1,339.1z M1841.5,308.4c6.3-0.2,11.5-2.7,11.5-10.2
		c0.1-3-1.5-6.3-4.2-7.8c-2.7-1.9-5.8-1.9-8.8-1.9h-15.9v36.4h5.1v-16.4h7.1l10.3,16.4h5.8L1841.5,308.4z M1829.2,304.6v-12.3h9.8
		c4.5,0,8.8,0.6,8.8,5.8c0,7.2-7.4,6.5-12.4,6.5H1829.2z"/>
</g>
</svg>
