<?xml version="1.0" encoding="utf-8"?>
<!-- Generator: Adobe Illustrator 25.0.0, SVG Export Plug-In . SVG Version: 6.00 Build 0)  -->
<svg version="1.1" id="Layer_1" xmlns="http://www.w3.org/2000/svg" xmlns:xlink="http://www.w3.org/1999/xlink" x="0px" y="0px"
	 viewBox="0 0 3840 427" style="enable-background:new 0 0 3840 427;" xml:space="preserve">
<style type="text/css">
	.st0{fill-rule:evenodd;clip-rule:evenodd;}
	.st1{fill-rule:evenodd;clip-rule:evenodd;fill:#E40603;}
	.st2{fill-rule:evenodd;clip-rule:evenodd;fill:#FFFFFF;}
</style>
<g>
	<g>
		<path class="st2" d="M814.4,159.2c-42.7,0-77.6,24.7-77.6,55.7c0,31.1,34.9,56.8,77.6,56.8c43,0,77.6-25.7,77.6-56.8
			C892,183.8,857.5,159.2,814.4,159.2z"/>
		<path class="st2" d="M967.6,86.5v254c0,47.8,38.7,86.5,86.5,86.5h546.3c47.8,0,86.5-38.7,86.5-86.5V176.7h-446.5v73.6h323.9v88.3
			h-474.1V88.3h1117v88.3h-370.1v73.6h370.1V427h122.6V86.5c0-47.8-38.7-86.5-86.5-86.5H1054.1C1006.4,0,967.6,38.7,967.6,86.5z"/>
		<g>
			<path class="st2" d="M2413.2,86.5v254c0,47.8,38.7,86.5,86.5,86.5H3046c47.8,0,86.5-38.7,86.5-86.5v-1.8l-1.8-162H2686v73.6
				h322.1v88.3h-472.3V88.3H3840V0H2499.7C2452,0,2413.2,38.7,2413.2,86.5z"/>
			<polygon class="st2" points="3317.2,250.3 3710.2,250.3 3710.2,176.7 3194.6,176.7 3196.6,427 3840,427 3840,338.6 3317.2,338.6 
							"/>
		</g>
		<path class="st2" d="M530,0.1v276.4l-353-233.4C152.6,23.2,117.2,0,74.8,0C4.4,0,0,45,0,69.4V427h122.6V150.3L476,383.8
			c24.3,20,59.3,43.2,101.7,43.2c70.4,0,74.8-45,74.8-69.4V0.1H530z"/>
	</g>
</g>
</svg>
