<?xml version="1.0" encoding="utf-8"?>
<!-- Generator: Adobe Illustrator 25.4.1, SVG Export Plug-In . SVG Version: 6.00 Build 0)  -->
<svg version="1.1" id="Layer_1" xmlns="http://www.w3.org/2000/svg" xmlns:xlink="http://www.w3.org/1999/xlink" x="0px" y="0px"
	 viewBox="0 0 3839 1138.8" style="enable-background:new 0 0 3839 1138.8;" xml:space="preserve">
<style type="text/css">
	.st0{fill:#FFFFFF;}
	.st1{fill:#912620;}
	.st2{fill:#008471;}
	.st3{fill:#005090;}
	.st4{fill:#B22D2A;}
	.st5{fill:#B32D2A;}
	.st6{fill:#B42D2A;}
	.st7{fill:#B52D2A;}
	.st8{fill:#B62D2A;}
	.st9{fill:#B72D29;}
	.st10{fill:#B82D29;}
	.st11{fill:#B92D29;}
	.st12{fill:#BA2D29;}
	.st13{fill:#BB2D29;}
	.st14{fill:#BC2D29;}
	.st15{fill:#BD2D29;}
	.st16{fill:#BE2D29;}
	.st17{fill:#BF2D29;}
	.st18{fill:#C02D29;}
	.st19{fill:#C12D28;}
	.st20{fill:#C22D28;}
	.st21{fill:#C32D28;}
	.st22{fill:#C42D28;}
	.st23{fill:#C52D28;}
	.st24{fill:#C62D28;}
	.st25{fill:#C72D28;}
	.st26{fill:#C82D28;}
	.st27{fill:#C92D28;}
	.st28{fill:#CA2D28;}
	.st29{fill:#CA2E27;}
	.st30{fill:#CB2E27;}
	.st31{fill:#CC2E27;}
	.st32{fill:#CD2E27;}
	.st33{fill:#CE2E27;}
	.st34{fill:#CF2E27;}
	.st35{fill:#D02E27;}
	.st36{fill:#D12E27;}
	.st37{fill:#D22E27;}
	.st38{fill:#D32E27;}
	.st39{fill:#D42E26;}
	.st40{fill:#D52E26;}
	.st41{fill:#D62E26;}
	.st42{fill:#D72E26;}
	.st43{fill:#D82E26;}
	.st44{fill:#D92E26;}
	.st45{fill:#DA2E26;}
	.st46{fill:#DB2E26;}
	.st47{fill:#DC2E26;}
	.st48{fill:#DD2E26;}
	.st49{fill:#DE2E25;}
	.st50{fill:#DF2E25;}
	.st51{fill:#E02E25;}
	.st52{fill:#E12E25;}
	.st53{fill:#E22E25;}
	.st54{fill:#009588;}
	.st55{fill:#009587;}
	.st56{fill:#019486;}
	.st57{fill:#019485;}
	.st58{fill:#019384;}
	.st59{fill:#029383;}
	.st60{fill:#029382;}
	.st61{fill:#029281;}
	.st62{fill:#039280;}
	.st63{fill:#03917F;}
	.st64{fill:#03917E;}
	.st65{fill:#03917D;}
	.st66{fill:#04907C;}
	.st67{fill:#04907B;}
	.st68{fill:#048F7A;}
	.st69{fill:#058F79;}
	.st70{fill:#058F78;}
	.st71{fill:#058E77;}
	.st72{fill:#068E76;}
	.st73{fill:#068D75;}
	.st74{fill:#068D74;}
	.st75{fill:#078D73;}
	.st76{fill:#078C72;}
	.st77{fill:#078C71;}
	.st78{fill:#088B70;}
	.st79{fill:#088B6F;}
	.st80{fill:#088B6E;}
	.st81{fill:#088A6D;}
	.st82{fill:#098A6C;}
	.st83{fill:#09896B;}
	.st84{fill:#09896A;}
	.st85{fill:#0A8969;}
	.st86{fill:#0A8868;}
	.st87{fill:#0A8867;}
	.st88{fill:#0B8766;}
	.st89{fill:#0B8765;}
	.st90{fill:#0B8764;}
	.st91{fill:#0C8663;}
	.st92{fill:#0C8662;}
	.st93{fill:#0C8561;}
	.st94{fill:#0D8560;}
	.st95{fill:#0D845F;}
	.st96{fill:#0D845E;}
	.st97{fill:#0E835D;}
	.st98{fill:#0E835C;}
	.st99{fill:#0E835B;}
	.st100{fill:#0F825A;}
	.st101{fill:#0F8259;}
	.st102{fill:#0F8158;}
	.st103{fill:#108157;}
	.st104{fill:#108156;}
	.st105{fill:#108055;}
	.st106{fill:#118054;}
	.st107{fill:#117F53;}
	.st108{fill:#117F52;}
	.st109{fill:#117F51;}
	.st110{fill:#127E50;}
	.st111{fill:#127E4F;}
	.st112{fill:#127D4E;}
	.st113{fill:#137D4D;}
	.st114{fill:#137D4C;}
	.st115{fill:#137C4B;}
	.st116{fill:#147C4A;}
	.st117{fill:#147B49;}
	.st118{fill:#147B48;}
	.st119{fill:#157B47;}
	.st120{fill:#157A46;}
	.st121{fill:#157A45;}
	.st122{fill:#167944;}
	.st123{fill:#167943;}
	.st124{fill:#167942;}
	.st125{fill:#167841;}
	.st126{fill:#177840;}
	.st127{fill:#17773F;}
	.st128{fill:#17773E;}
	.st129{fill:#18773D;}
	.st130{fill:#18763C;}
	.st131{fill:#18763B;}
	.st132{fill:#19753A;}
	.st133{fill:#197539;}
	.st134{fill:#005EAA;}
	.st135{fill:#005EAB;}
	.st136{fill:#015FAC;}
	.st137{fill:#015FAD;}
	.st138{fill:#0160AE;}
	.st139{fill:#0260AF;}
	.st140{fill:#0261B0;}
	.st141{fill:#0261B1;}
	.st142{fill:#0362B2;}
	.st143{fill:#0362B3;}
	.st144{fill:#0362B4;}
	.st145{fill:#0463B5;}
	.st146{fill:#0463B6;}
	.st147{fill:#0464B7;}
	.st148{fill:#0564B8;}
	.st149{fill:#0565B9;}
	.st150{fill:#0565BA;}
	.st151{fill:#0666BB;}
	.st152{fill:#0666BC;}
	.st153{fill:#0666BD;}
	.st154{fill:#0767BE;}
	.st155{fill:#0767BF;}
	.st156{fill:#0768BF;}
	.st157{fill:#0768C0;}
	.st158{fill:#0869C1;}
	.st159{fill:#0869C2;}
	.st160{fill:#0869C3;}
	.st161{fill:#096AC4;}
	.st162{fill:#096AC5;}
	.st163{fill:#096BC6;}
	.st164{fill:#0A6BC7;}
	.st165{fill:#0A6CC8;}
	.st166{fill:#0A6CC9;}
	.st167{fill:#0B6DCA;}
	.st168{fill:#0B6DCB;}
	.st169{fill:#0B6DCC;}
	.st170{fill:#0C6ECD;}
	.st171{fill:#0C6ECE;}
	.st172{fill:#0C6FCF;}
	.st173{fill:#0D6FD0;}
	.st174{fill:#0D70D1;}
	.st175{fill:#0D70D2;}
	.st176{fill:#0E71D3;}
	.st177{fill:#0E71D4;}
	.st178{fill:#0058B7;}
	.st179{fill:#0058B6;}
	.st180{fill:#0057B5;}
	.st181{fill:#0057B4;}
	.st182{fill:#0057B3;}
	.st183{fill:#0057B2;}
	.st184{fill:#0056B1;}
	.st185{fill:#0056B0;}
	.st186{fill:#0056AF;}
	.st187{fill:#0056AE;}
	.st188{fill:#0055AD;}
	.st189{fill:#0055AC;}
	.st190{fill:#0055AB;}
	.st191{fill:#0055AA;}
	.st192{fill:#0054A9;}
	.st193{fill:#0054A8;}
	.st194{fill:#0054A7;}
	.st195{fill:#0054A6;}
	.st196{fill:#0053A5;}
	.st197{fill:#0053A4;}
	.st198{fill:#0053A3;}
	.st199{fill:#0053A2;}
	.st200{fill:#0052A1;}
	.st201{fill:#0052A0;}
	.st202{fill:#00529F;}
	.st203{fill:#00529E;}
	.st204{fill:#00519D;}
	.st205{fill:#00519C;}
	.st206{fill:#00519B;}
	.st207{fill:#00519A;}
	.st208{fill:#005099;}
	.st209{fill:#005098;}
	.st210{fill:#005097;}
	.st211{fill:#005096;}
	.st212{fill:#004F95;}
	.st213{fill:#004F94;}
	.st214{fill:#004F93;}
	.st215{fill:#004F92;}
	.st216{fill:#004E91;}
	.st217{fill:#004E90;}
	.st218{fill:#004E8F;}
	.st219{fill:#004E8E;}
	.st220{fill:#004D8D;}
	.st221{fill:#004D8C;}
	.st222{fill:#004D8B;}
	.st223{fill:#004D8A;}
	.st224{fill:#004C89;}
	.st225{fill:#004C88;}
	.st226{fill:#008472;}
	.st227{fill:#008572;}
	.st228{fill:#008671;}
	.st229{fill:#008771;}
	.st230{fill:#008871;}
	.st231{fill:#008970;}
	.st232{fill:#008A70;}
	.st233{fill:#008B6F;}
	.st234{fill:#008C6F;}
	.st235{fill:#008D6F;}
	.st236{fill:#008E6E;}
	.st237{fill:#008F6E;}
	.st238{fill:#00906D;}
	.st239{fill:#00916D;}
	.st240{fill:#00926D;}
	.st241{fill:#00936C;}
	.st242{fill:#00946C;}
	.st243{fill:#00956B;}
	.st244{fill:#00966B;}
	.st245{fill:#00976B;}
	.st246{fill:#00986A;}
	.st247{fill:#00996A;}
	.st248{fill:#D60700;}
	.st249{fill:#034693;}
	.st250{fill:url(#SVGID_1_);}
	.st251{fill:url(#SVGID_00000094607846961365704130000000847249822566969481_);}
	.st252{fill:url(#SVGID_00000050659140647135008940000010452085581222042265_);}
	.st253{fill:url(#SVGID_00000169535591328486973340000012313827453982029960_);}
	.st254{fill:url(#SVGID_00000025430359990864674710000005013037924969849761_);}
	.st255{fill:url(#SVGID_00000127754658953559272720000009014055369000678311_);}
	.st256{fill:url(#SVGID_00000050638138656937985390000016688879190603096198_);}
	.st257{fill:url(#SVGID_00000155843125450285507990000006366951194128348814_);}
	.st258{fill:url(#SVGID_00000014625296463880036440000012901435804119062916_);}
	.st259{fill:url(#SVGID_00000147198924546422265660000013700179282032622735_);}
	.st260{fill:url(#SVGID_00000161633154612400982890000012961330559690235321_);}
	.st261{fill:url(#SVGID_00000050623452166385885750000006017529006791746209_);}
	.st262{fill:url(#SVGID_00000090255365568161172920000016367078401807400891_);}
	.st263{fill:url(#SVGID_00000103228894650949784260000014596953267032574876_);}
	.st264{fill:url(#SVGID_00000127759034439082085550000000584404783401472191_);}
	.st265{fill:url(#SVGID_00000101804988974725624520000006487129270363642040_);}
	.st266{fill:url(#SVGID_00000053504082247728411180000001871821391642423970_);}
	.st267{fill:url(#SVGID_00000062158129592802988440000006393526563622402970_);}
	.st268{fill:url(#SVGID_00000052823873605171962020000000961903722670840250_);}
	.st269{fill:url(#SVGID_00000088833181417562013430000008973087206873453962_);}
	.st270{fill:url(#SVGID_00000112626199020203059460000015860271573862096293_);}
	.st271{fill:url(#SVGID_00000104701940132282185280000000557830299599611818_);}
	.st272{fill:url(#SVGID_00000154400024825816619440000013459351517584166073_);}
	.st273{fill:url(#SVGID_00000053531355308261581060000010717447900219259787_);}
	.st274{fill:url(#SVGID_00000000936645956805161700000004467895951808084909_);}
	.st275{fill:url(#SVGID_00000036971898883019475340000004572087393871858102_);}
	.st276{fill:url(#SVGID_00000072280053244306727110000010060896551259253140_);}
	.st277{fill:url(#SVGID_00000062169127971090464940000013564935074365683632_);}
	.st278{fill:url(#SVGID_00000054246683695214484050000005253566169365364646_);}
	.st279{fill:url(#SVGID_00000093152695922218345870000014004532029859230906_);}
	.st280{fill:url(#SVGID_00000167390346694944955950000005961502106579719584_);}
	.st281{fill:url(#SVGID_00000159439166033980508600000011548744205065149329_);}
	.st282{fill:url(#SVGID_00000135653173327448213990000003871815010742165384_);}
	.st283{fill:url(#SVGID_00000018196380023940134530000017445678813558426556_);}
	.st284{fill:url(#SVGID_00000043431820933707405740000000499149840802017193_);}
	.st285{fill:url(#SVGID_00000072278430582309926030000014303653802556183446_);}
	.st286{fill:url(#SVGID_00000106864565339423640800000000843226483609340054_);}
	.st287{fill:url(#SVGID_00000084515306346984078630000011416981340224457091_);}
	.st288{fill:url(#SVGID_00000091003464036604315550000002321531199281946538_);}
	.st289{fill:url(#SVGID_00000070825647282858829410000004615253336062282412_);}
	.st290{fill:url(#SVGID_00000132773685563972007330000011760884111881889947_);}
	.st291{fill:url(#SVGID_00000021813585303307192260000016563368405731872186_);}
	.st292{fill:url(#SVGID_00000174566690234485789700000002205468017334805432_);}
	.st293{fill:url(#SVGID_00000144307815115994044780000005000539385554013856_);}
	.st294{fill:url(#SVGID_00000038385102562070934150000011923790972310921917_);}
	.st295{fill:url(#SVGID_00000026881339387044885020000003227757830668619404_);}
	.st296{fill:url(#SVGID_00000088840762274622270480000011211290891827518121_);}
	.st297{fill:url(#SVGID_00000014617610634899001170000015530233484818206399_);}
	.st298{fill:url(#SVGID_00000158720623848268065600000002554601909522363794_);}
	.st299{fill:url(#SVGID_00000082368523461469049660000015812584255141184167_);}
	.st300{fill:url(#SVGID_00000010272295973809781550000012655137157645588914_);}
	.st301{fill:url(#SVGID_00000054969489337230348120000006142603916442310559_);}
	.st302{fill:url(#SVGID_00000075159961982340078010000000297381639091935142_);}
	.st303{fill:url(#SVGID_00000082353752704051976900000008832222844964786570_);}
	.st304{fill:url(#SVGID_00000078746040102020758160000016722686898109855627_);}
	.st305{fill:url(#SVGID_00000134951832149491191640000007702931221000443318_);}
	.st306{fill:url(#SVGID_00000115489610268819752760000005701232377119743673_);}
	.st307{fill:url(#SVGID_00000101103420184756544700000012773660877877787564_);}
	.st308{fill:url(#SVGID_00000052782972960641113020000001420314189408594083_);}
	.st309{fill:url(#SVGID_00000027590590903590520350000017579954961217574016_);}
	.st310{fill:url(#SVGID_00000032616632494446395220000001967876983115258301_);}
	.st311{fill:url(#SVGID_00000140717417945254842680000013832714721208358295_);}
	.st312{fill:url(#SVGID_00000150066403119709962990000007605356343228546723_);}
	.st313{fill:url(#SVGID_00000097469528048336858560000016464989672107435423_);}
	.st314{fill:url(#SVGID_00000046312505170315615240000000724212926115665303_);}
	.st315{fill:url(#SVGID_00000115480780953529235230000011995720912568091041_);}
	.st316{fill:url(#SVGID_00000061431167447622878600000011111177208733475712_);}
	.st317{fill:url(#SVGID_00000100372334213803473260000016039744116639152291_);}
	.st318{fill:url(#SVGID_00000134944210228823552610000014719523416354230917_);}
	.st319{fill:url(#SVGID_00000028286944447310971160000015902105849566043287_);}
	.st320{fill:url(#SVGID_00000013173420159682944300000007008417735149503142_);}
	.st321{fill:url(#SVGID_00000036236993523164523660000017207051173363265170_);}
	.st322{fill:url(#SVGID_00000092415660383665630340000016848263613319400617_);}
	.st323{fill:url(#SVGID_00000101804835766375629710000013111200554586725565_);}
	.st324{fill:url(#SVGID_00000131332465835789814440000017233091344581391493_);}
	.st325{fill:url(#SVGID_00000183930086784671012250000016232409716963659663_);}
	.st326{fill:url(#SVGID_00000121259935411581689240000007578679920349091254_);}
	.st327{fill:url(#SVGID_00000051376297647053772710000012380709539976948876_);}
	.st328{fill:url(#SVGID_00000077293769729690068230000007818528777687120294_);}
	.st329{fill:url(#SVGID_00000048495536797640837440000012401493374415407274_);}
	.st330{fill:url(#SVGID_00000118380571843658304020000007062637668067536529_);}
	.st331{fill:url(#SVGID_00000024680774436687028850000001819305488920440219_);}
	.st332{fill:url(#SVGID_00000080208504828947571620000007775008322330422661_);}
	.st333{fill:url(#SVGID_00000086688341356528659750000005667461000385331084_);}
	.st334{fill:url(#SVGID_00000159461753586494450550000007998774291146838442_);}
	.st335{fill:url(#SVGID_00000063626877456672556980000003244501553326624684_);}
	.st336{fill:url(#SVGID_00000138548132347703152120000002314473573081477038_);}
	.st337{fill:url(#SVGID_00000155856387002214681910000016662652684069298084_);}
	.st338{fill:url(#SVGID_00000044895624767144015110000012304211668570014627_);}
	.st339{fill:url(#SVGID_00000074432002855791651480000015919539250184362939_);}
	.st340{fill:url(#SVGID_00000128483485776916315840000009153872989870255500_);}
	.st341{fill:url(#SVGID_00000100355921298386337300000010439231864180786340_);}
	.st342{fill:url(#SVGID_00000169524060808243370330000017913182615334152592_);}
	.st343{fill:url(#SVGID_00000130622763913410557730000002445251769480148360_);}
	.st344{fill:url(#SVGID_00000144339222991647476810000015343702290920043690_);}
	.st345{fill:url(#SVGID_00000062874610586973844800000016638682891765403566_);}
	.st346{fill:#034693;stroke:#FFFFFF;stroke-width:25.205;stroke-miterlimit:10;}
	.st347{fill:url(#SVGID_00000155828991945384753380000016076584092855252668_);}
	.st348{fill:url(#SVGID_00000069357453448059224550000012414477428482622125_);}
	.st349{fill:url(#SVGID_00000044868233315589836420000015813544064605200279_);}
	.st350{fill:url(#SVGID_00000178188111423731905370000005751117507421432706_);}
	.st351{fill:url(#SVGID_00000051354180307627533080000004415115112201196187_);}
	.st352{fill:url(#SVGID_00000061448531610873014890000006975905747367072649_);}
	.st353{fill:url(#SVGID_00000001659041878736090440000013227111337198232243_);}
	.st354{fill:url(#SVGID_00000137101232899879292790000009496139667096453299_);}
</style>
<g>
	<g>
		<g>
			<g>
				<g>
					<g>
						<path class="st0" d="M1391.2,302.5h-190.1v59.3h190.1c36.5,0,66.9-30.4,66.9-66.9s-30.4-66.9-66.9-66.9h-48.7
							c-44.1,0-80.6-36.5-80.6-80.6s36.5-80.6,80.6-80.6h188.6V7.6H1341c-77.6,0-139.9,62.4-139.9,139.9s62.4,139.9,139.9,139.9
							h48.7c4.6,0,7.6,3,7.6,7.6C1397.2,299.5,1394.2,302.5,1391.2,302.5z"/>
						<path class="st0" d="M1341,141.4h190.1V80.6H1341c-36.5,0-66.9,30.4-66.9,66.9s30.4,66.9,66.9,66.9h48.7
							c44.1,0,80.6,36.5,80.6,80.6s-36.5,80.6-80.6,80.6h-188.6V435h190.1c77.6,0,139.9-62.4,139.9-139.9s-62.4-139.9-139.9-139.9
							h-48.7c-4.6,0-7.6-3-7.6-7.6C1334.9,144.5,1337.9,141.4,1341,141.4z"/>
					</g>
					<g>
						<path class="st0" d="M2023.7,80.6c-25.9,0-45.6,19.8-45.6,45.6v190.1c0,25.9,19.8,45.6,45.6,45.6h123.1V228h-94.3v59.3h35V301
							h-35c-7.6,0-13.7-6.1-13.7-13.7V153.6c0-7.6,6.1-13.7,13.7-13.7h168.8V80.6H2023.7z"/>
						<path class="st0" d="M2397.7,361.9h138.4l-94.3-279.7c-3-7.6-9.1-13.7-18.2-13.7c-7.6,0-15.2,6.1-18.2,12.2l-121.7,354.3h70
							l42.6-126.2v53.2H2397.7z M2422.1,234.1l19.8,60.8h-41.1L2422.1,234.1z"/>
						<path class="st0" d="M2514.9,70c-12.2-39.5-48.7-70-92.8-70c-44.1,0-80.6,28.9-91.2,68.4l-111,325.4V155.1h-167.3v59.3H2162
							v161.2h-136.9c-33.5,0-59.3-27.4-59.3-59.3V126.2c0-33.5,27.4-59.3,59.3-59.3h196.2V7.6h-197.7
							c-65.4,0-118.6,53.2-118.6,118.6v190.1c0,65.4,53.2,118.6,118.6,118.6h244.9l123.2-357.3c4.6-13.7,16.7-22.8,31.9-22.8
							c15.2,0,27.4,9.1,31.9,22.8l100.4,298h-158.2V435h240.2l0,0L2514.9,70z"/>
					</g>
					<g>
						<path class="st0" d="M1678.6,375.5c-33.5,0-59.3-27.4-59.3-59.3V126.1c0-33.5,27.4-59.3,59.3-59.3h203.8V7.6h-203.8
							c-65.4,0-118.6,53.2-118.6,118.6v190.1c0,65.4,53.2,118.6,118.6,118.6h203.8v-59.3L1678.6,375.5L1678.6,375.5z"/>
						<path class="st0" d="M1692.3,288.9h147.5v-59.3H1633v88.2c0,25.9,19.8,45.6,45.6,45.6h203.8v-59.3H1706
							C1698.4,302.5,1692.3,296.5,1692.3,288.9z"/>
						<path class="st0" d="M1839.7,155.1h-147.5c0-7.6,6.1-13.7,13.7-13.7h174.9V80.6h-202.3c-25.9,0-45.6,19.8-45.6,45.6v88.2
							h206.8V155.1z"/>
					</g>
				</g>
			</g>
		</g>
	</g>
	<g>
		<path class="st0" d="M1889.8,576.6H1655c-32.1,0-59.3,23.4-64,55l-63.3,421.3c-5.8,39,24.5,74.2,64,74.2h37.2h178.3l16.6-111.1
			h-178l15.8-105.2H1811l16.3-111.1H1678l16.9-112.2h178.5L1889.8,576.6z"/>
		<path class="st0" d="M2976.3,576.6h-234.8c-32.1,0-59.3,23.4-64,55l-63.3,421.3c-5.8,39,24.5,74.2,64,74.2h37.2h178.3l16.6-111.1
			h-178l15.8-105.2h149.6l16.3-111.1h-149.3l16.9-112.2h178.5L2976.3,576.6z"/>
		<path class="st0" d="M774.3,574.7c-31.1,0-62.2,16.4-77,51.8l-207.2,500.7h120.2l42.8-103.5h126.9l9.3,103.5h111.5l-42.3-475.9
			C854.1,602,814.3,574.7,774.3,574.7z M699.2,912.6l58.5-141.1l12.6,141.1H699.2z"/>
		<path class="st0" d="M1357.3,620.1l-129.8,272.2L1183.7,641c-7.5-43-42-64.4-76.6-64.4c-35.2,0-70.3,22.1-77,66.2l-72.8,484.4
			h112.2l39.9-264.9l38.3,219.2c5.3,30,30.3,46.4,55.6,46.4c19.9,0,39.9-10.1,50.3-31.9l102-214.2l-36.9,245.4h112.4l69.6-463.2
			c8-53.1-34.1-87.3-76.4-87.3C1398.1,576.6,1371.7,589.9,1357.3,620.1z"/>
		<path class="st0" d="M507.9,689.1c0,0-74.2-142.2-213.8-142.2C121,546.9,6.5,720.5,0.4,849.7c-10.5,221.6,164.3,289.1,240.5,289.1
			c153.1,0,237.3-139.9,270-249.2c10.4-34.5-15.6-69.2-51.7-69.2H413H285.7l-46,111.1h129.5c-28.5,51-79.4,88.6-139.2,88.6
			c-30.3,0-121.4-27.5-115.1-161.5c4.2-89.9,75.3-200.1,179.2-200.1c69,0,114.8,82.2,114.8,82.2L507.9,689.1z"/>
		<path class="st0" d="M2566.5,689.1c0,0-74.2-142.2-213.8-142.2c-173.2,0-287.6,173.6-293.7,302.8
			c-10.5,221.6,164.3,289.1,240.5,289.1c153.1,0,237.3-139.9,270-249.2c10.4-34.5-15.6-69.2-51.7-69.2h-46.3h-127.3l-46,111.1h129.5
			c-28.5,51-79.4,88.6-139.2,88.6c-30.3,0-121.4-27.5-115.1-161.5c4.2-89.9,75.3-200.1,179.2-200.1c69,0,114.8,82.2,114.8,82.2
			L2566.5,689.1z"/>
		<path class="st0" d="M3790.5,972.5c0,0,0,0-1.5-6.8l-0.1-0.3c-1-4.7-2.7-12.6-5.6-25.8c-7.1-33-31.9-40.4-31.9-40.4
			c91.9-51.4,87.5-146.6,87.5-153c0-94.1-87.9-169.6-160.7-169.6h-40.6h-57.5c-31.8,0-58.7,22.9-63.8,54.3l-80.2,496.2h112.5
			l31.8-196.4h50.4c21.1,0,39.4,14.8,43.8,35.4l34.8,161.1h114.4L3790.5,972.5L3790.5,972.5z M3647.4,819.7h-49.1l21.1-132.1h46.3
			c22,0,43.7,22,48.5,48.2C3721.6,774.9,3691.5,819.7,3647.4,819.7z"/>
		<path class="st0" d="M3245.2,574.7c-31,0-62.2,16.4-77,51.8L2961,1127.2h120.2l42.8-103.5H3251l9.3,103.5h111.5l-42.3-475.9
			C3325,602,3285.2,574.7,3245.2,574.7z M3170.3,912.6l58.5-141.1l12.6,141.1H3170.3z"/>
	</g>
</g>
</svg>
