<?xml version="1.0" encoding="utf-8"?>
<!-- Generator: Adobe Illustrator 26.0.3, SVG Export Plug-In . SVG Version: 6.00 Build 0)  -->
<svg version="1.1" id="Layer_1" xmlns="http://www.w3.org/2000/svg" xmlns:xlink="http://www.w3.org/1999/xlink" x="0px" y="0px"
	 viewBox="0 0 3839 496.3" style="enable-background:new 0 0 3839 496.3;" xml:space="preserve">
<style type="text/css">
	.st0{fill:url(#SVGID_1_);}
	.st1{fill:url(#SVGID_00000029753169342910711530000005276331891977030273_);}
	.st2{fill:url(#SVGID_00000027585738481711454240000017358111976529067174_);}
	.st3{fill:url(#SVGID_00000052817263753404254100000013977491267307561612_);}
	.st4{fill:url(#SVGID_00000183241740311282532790000013388347355305310602_);}
	.st5{fill:url(#SVGID_00000071535681820641311280000010664479860671015343_);}
	.st6{fill:url(#SVGID_00000068654712545873798420000009254360704596724404_);}
	.st7{fill:url(#SVGID_00000016788396158759981990000013720329302879673730_);}
	.st8{fill:url(#SVGID_00000005249311027315124400000013276955997762127292_);}
	.st9{fill:url(#SVGID_00000077294812069203030750000017948307790458221465_);}
	.st10{fill:url(#SVGID_00000154417747918320930530000009106374902912851347_);}
	.st11{fill:url(#SVGID_00000026861132118609222830000012189876596440956037_);}
	.st12{fill:url(#SVGID_00000004530041934249292660000017003323199535589539_);}
	.st13{fill:url(#SVGID_00000001652991362800148950000001164229612605229962_);}
	.st14{fill:url(#SVGID_00000127037480819979386000000005934727707198560143_);}
	.st15{fill:url(#SVGID_00000134972022459613452170000010884964313367540922_);}
	.st16{fill:url(#SVGID_00000046315618666132145640000015856576326736227236_);}
	.st17{fill:url(#SVGID_00000110453944797568845890000011740013316763350676_);}
	.st18{fill:url(#SVGID_00000147205043067047881370000017818461308189264274_);}
	.st19{fill:url(#SVGID_00000093857500166257807670000016327097839611766463_);}
	.st20{fill:url(#SVGID_00000083784242827702997620000014154790443935355300_);}
	.st21{fill:url(#SVGID_00000029031621255034271730000001467301920350481049_);}
	.st22{fill:url(#SVGID_00000083767707118463441230000010246730361991907255_);}
	.st23{fill:url(#SVGID_00000126294374590982356800000010981960744441224109_);}
	.st24{fill:url(#SVGID_00000087384533792793383320000016966748873859701904_);}
	.st25{fill:url(#SVGID_00000007422471953745212890000004436231670742637478_);}
	.st26{fill:url(#SVGID_00000070799670067712205130000008413072054207488441_);}
	.st27{fill:url(#SVGID_00000140728830501596588590000014661351433208405939_);}
	.st28{fill:url(#SVGID_00000026881409051480070070000017995026833364575375_);}
	.st29{fill:url(#SVGID_00000023273751640128182320000006698625351520648064_);}
	.st30{fill:url(#SVGID_00000139282326748676480230000016914863856510174107_);}
	.st31{fill:url(#SVGID_00000153705439766342253790000000257001595873248402_);}
	.st32{fill:url(#SVGID_00000076576084724995409140000001195273678682324669_);}
	.st33{fill:url(#SVGID_00000155842514141036884130000010570562576400668039_);}
	.st34{fill:url(#SVGID_00000026861714295035263770000010494300696745956272_);}
	.st35{fill:url(#SVGID_00000078754148933146474450000017383342670231743153_);}
	.st36{fill:url(#SVGID_00000083811710605109191840000011128085256826692244_);}
	.st37{fill:url(#SVGID_00000114053341985327279600000000663764606910123195_);}
	.st38{fill:url(#SVGID_00000124870703381577207520000015103870253237730723_);}
	.st39{fill:url(#SVGID_00000105427200339792486290000002886830777804472231_);}
	.st40{fill:url(#SVGID_00000098904612633236385250000013234486927157690500_);}
	.st41{fill:url(#SVGID_00000022549329081677328130000006054354943533694361_);}
	.st42{fill:url(#SVGID_00000057851397445481362100000000346579094734631326_);}
	.st43{fill:url(#SVGID_00000029022575205504814260000004176231843374329023_);}
	.st44{fill:url(#SVGID_00000021081001110304951760000005587902696709569978_);}
	.st45{fill:url(#SVGID_00000056385423265409329340000014263978082420449983_);}
	.st46{fill:url(#SVGID_00000155856035171305415160000016880473685626253247_);}
	.st47{fill:url(#SVGID_00000036972456065462487120000006197618710981232020_);}
	.st48{fill:url(#SVGID_00000121983233927155393730000010374589444921900956_);}
	.st49{fill:url(#SVGID_00000131330224882449978150000017952635018584684443_);}
	.st50{fill:#FFFFFF;}
	.st51{fill:url(#SVGID_00000025410016289801341020000016194859365249890730_);}
	.st52{fill:url(#SVGID_00000115507962364685616320000002693645303802579329_);}
	.st53{fill:url(#SVGID_00000025405326986196297540000003231641818683942315_);}
	.st54{fill:url(#SVGID_00000070110133523041087720000002248284873856108189_);}
	.st55{fill:url(#SVGID_00000061457661710057561480000001461130883810399886_);}
	.st56{fill:url(#SVGID_00000148643404271367343970000017864338147050533518_);}
	.st57{fill:url(#SVGID_00000093139515936838354890000005374069653552926863_);}
	.st58{fill:url(#SVGID_00000167379515985222068650000004339342916022701495_);}
	.st59{fill:url(#SVGID_00000084522500922448873240000012188589097973581733_);}
	.st60{fill:url(#SVGID_00000088129764204350927550000006482441306185007263_);}
	.st61{fill:url(#SVGID_00000053534915958813727700000011510537580143158158_);}
	.st62{fill:url(#SVGID_00000066505288009319064460000003928658610940999813_);}
	.st63{fill:url(#SVGID_00000012441348736699625910000016207272893422366883_);}
	.st64{fill:url(#SVGID_00000019663889140006205850000005302696862217786276_);}
	.st65{fill:url(#SVGID_00000135663239223763170410000018264746303956420537_);}
	.st66{fill:url(#SVGID_00000041295453570027491700000004713362690268858553_);}
	.st67{fill:url(#SVGID_00000137092851514625642220000007778885095449701562_);}
	.st68{fill:url(#SVGID_00000172404710117597620350000005306436404703658884_);}
	.st69{fill:url(#SVGID_00000183251295199240917910000008618853650432489089_);}
	.st70{fill:url(#SVGID_00000066508345975397232340000018256363739966081183_);}
	.st71{fill:url(#SVGID_00000163030666746209808380000017033859688611761038_);}
	.st72{fill:url(#SVGID_00000067197640849367767130000006863579896553999746_);}
	.st73{fill:url(#SVGID_00000092437212529125065150000010419444488515488947_);}
	.st74{fill:url(#SVGID_00000176020626145101982730000009452494928977541040_);}
	.st75{fill:url(#SVGID_00000107559517608921700050000005544683970744217989_);}
	.st76{fill:url(#SVGID_00000016781546513640895080000015262299867704000446_);}
	.st77{fill:url(#SVGID_00000128473560906610672570000004782884847897521558_);}
	.st78{fill:url(#SVGID_00000153695499635348306970000012760828858505065370_);}
	.st79{fill:url(#SVGID_00000047783180933802539360000006106995021270828981_);}
	.st80{fill:url(#SVGID_00000177485614249846884530000010322502147464218515_);}
	.st81{fill:url(#SVGID_00000014616339548079908260000010665094058580733108_);}
	.st82{fill:url(#SVGID_00000082370492428371001540000005950283073376624049_);}
	.st83{fill:url(#SVGID_00000044873841385049344870000008437633046535550352_);}
	.st84{fill:url(#SVGID_00000114031452160881047190000000454909103872930723_);}
	.st85{fill:url(#SVGID_00000139992143666501259250000014847563880951632788_);}
	.st86{fill:url(#SVGID_00000155848150213770387740000009244482902693867949_);}
	.st87{fill:url(#SVGID_00000165919725702934913540000013543522215074479533_);}
	.st88{fill:url(#SVGID_00000031906275666154369040000000629455974639977116_);}
	.st89{fill:url(#SVGID_00000147187298999562824210000012464778162548927373_);}
	.st90{fill:url(#SVGID_00000170998500149534294850000010417076132959001515_);}
	.st91{fill:url(#SVGID_00000106828503527719373240000008666450125048820916_);}
	.st92{fill:url(#SVGID_00000000210282758239636650000003596037933903810191_);}
	.st93{fill:url(#SVGID_00000055703880464843595170000015370896065890517914_);}
	.st94{fill:url(#SVGID_00000112608597306187821400000008220667542226096559_);}
	.st95{fill:url(#SVGID_00000027591052824913835770000010719781817388905612_);}
	.st96{fill:url(#SVGID_00000115511749491330237450000008762577420399020929_);}
	.st97{fill:url(#SVGID_00000106111297176335262820000015179584260342533019_);}
	.st98{fill:url(#SVGID_00000042008953326153186680000012407532870692900739_);}
	.st99{fill:url(#SVGID_00000012465836053772726370000008218879602019534498_);}
	.st100{fill:url(#SVGID_00000008827742756312197270000009389454646503944636_);}
</style>
<g>
	<g>
		<path class="st50" d="M2767.9,95c-157.2,0-229.8,101.7-229.8,196.8v62.7V479h81.5V354.5v-62.7c0-68.8,36.9-131.9,148.3-131.9
			c111.5,0,148.3,63.1,148.3,131.9v62.7V479h81.5V354.5v-62.7C2997.6,196.7,2925,95,2767.9,95z"/>
		<path class="st50" d="M1995.9,95c-90.1,0-152.3,33.4-189.1,79.9c-36.8-46.4-99-79.9-189.1-79.9c-157.2,0-229.8,101.7-229.8,196.8
			v62.7V479h81.5V354.5v-62.7c0-68.8,36.9-131.9,148.3-131.9S1766,223,1766,291.8v62.7V479h81.5V354.5v-62.7
			c0-68.8,36.9-131.9,148.3-131.9s148.3,63.1,148.3,131.9v62.7V479h81.5V354.5v-62.7C2225.7,196.7,2153,95,1995.9,95z"/>
		<g>
			<g>
				<path class="st50" d="M2339.8,479h81.5V228.5h-81.5V479z M2339.8,95v64.9h81.5V95H2339.8z"/>
			</g>
		</g>
		<g>
			<g>
				<path class="st50" d="M3112.2,479h81.5V228.5h-81.5V479z M3112.2,95v64.9h81.5V95H3112.2z"/>
			</g>
		</g>
		<path class="st50" d="M3760.2,0c-157.2,0-229.8,101.7-229.8,196.8v86.2c0,68.8-36.9,131.9-148.3,131.9h-78.8v64.9h78.8
			c157.2,0,229.8-101.7,229.8-196.8v-86.2c0-68.8,36.9-131.9,148.3-131.9h78.8V0H3760.2z"/>
	</g>
	<g>
		<g>
			<path class="st50" d="M215.4,478v-64.4H239c16.7,0,21,8.3,21,18c0,14.4-12.8,18-24.7,18h-13.8V478H215.4 M235.5,444.4
				c11.3,0,18.4-2.3,18.4-13.3c0-8-5.2-12.4-16.7-12.4h-15.7v25.6L235.5,444.4L235.5,444.4z"/>
			<rect x="268.1" y="413.6" class="st50" width="5.4" height="64.4"/>
			<path class="st50" d="M308,451c2-0.2,5.3-0.7,7.1-1.5c1.8-0.8,1.9-3.2,1.9-4.8c0-5.5-3.2-9.4-11.5-9.4c-7.4,0-12.5,2.4-13.5,10.5
				h-5.4c0.8-10.9,8.9-15.3,19-15.3c9.4,0,16.8,3.7,16.8,14.4v25.2c0,4.2,1.1,5.2,5.6,3.6v4.2c-0.8,0.3-2.7,0.9-4.2,0.9
				c-0.9,0-1.6-0.1-2.4-0.3c-3.6-0.5-4.2-3.6-4.3-6.9c-4.5,5-10.6,7.7-17.3,7.7c-8.1,0-15.5-4.4-15.5-13.3c0-7.8,5.3-12.5,16.2-13.9
				L308,451 M317.1,453.7c-4.6,1.9-9.2,2.2-13.9,2.6c-8.1,0.6-13.1,3.6-13.1,9.8c0,5.7,4.9,8.3,10,8.3c8.5,0,16.9-4.1,16.9-13.5
				L317.1,453.7L317.1,453.7z"/>
			<path class="st50" d="M335.6,490.6c1.4,0.3,3,0.5,4.5,0.5c6.1,0,7-8.8,9-12.8l-18-46.7h6l14.9,39.8l14.9-39.8h5.8l-17.3,45.7
				c-4.4,11.6-7.3,18.9-14.6,18.9c-1.9,0-3.7-0.3-5.1-0.6V490.6"/>
			<path class="st50" d="M385.4,458.8c1,11.5,8.7,15.7,18.5,15.7c11.5,0,16.3-6.2,16.3-13.3c0-20-39.3-6.7-39.3-32.1
				c0-9,7.4-17.3,21.8-17.3c14.5,0,21.7,8.8,21.7,19.2h-5.8c0-9.8-7.6-14-15.8-14c-12.3,0-16.8,7.6-15.7,14.2
				c2.8,16.7,39.3,4.7,39.3,29.6c0,11.8-8.7,18.8-23.5,18.8c-13.4,0-23.3-7-23.3-20.9L385.4,458.8"/>
			<path class="st50" d="M454.3,478.2c-1.2,0.3-3.6,1.1-6.2,1.1c-5.3,0-8.2-2.3-8.2-9.2v-33.9h-6.5v-4.5h6.5v-12.9h5.3v12.9h8.7v4.5
				h-8.7v31.8c0,4.5,0.2,6.5,4.7,6.5c1.4,0,3-0.3,4.4-0.6V478.2"/>
			<path class="st50" d="M485.6,451c2-0.2,5.3-0.7,7.1-1.5c1.8-0.8,2-3.2,2-4.8c0-5.5-3.2-9.4-11.5-9.4c-7.4,0-12.5,2.4-13.5,10.5
				h-5.4c0.8-10.9,9-15.3,19-15.3c9.4,0,16.8,3.7,16.8,14.4v25.2c0,4.2,1.1,5.2,5.6,3.6v4.2c-0.8,0.3-2.7,0.9-4.2,0.9
				c-0.9,0-1.6-0.1-2.4-0.3c-3.6-0.5-4.2-3.6-4.3-6.9c-4.5,5-10.6,7.7-17.3,7.7c-8.1,0-15.5-4.4-15.5-13.3c0-7.8,5.3-12.5,16.2-13.9
				L485.6,451 M494.6,453.7c-4.6,1.9-9.2,2.2-13.9,2.6c-8.1,0.6-13,3.6-13,9.8c0,5.7,4.9,8.3,10,8.3c8.5,0,16.9-4.1,16.9-13.5V453.7
				z"/>
			<path class="st50" d="M531.6,478.2c-1.3,0.3-3.6,1.1-6.2,1.1c-5.3,0-8.2-2.3-8.2-9.2v-33.9h-6.5v-4.5h6.5v-12.9h5.4v12.9h8.7v4.5
				h-8.7v31.8c0,4.5,0.2,6.5,4.6,6.5c1.4,0,3-0.3,4.4-0.6L531.6,478.2"/>
			<path class="st50" d="M542.1,413.6h5.9v8h-5.9V413.6z M542.3,431.7h5.3V478h-5.3V431.7z"/>
			<path class="st50" d="M557.9,454.9c0-13.5,7.2-24.4,21.5-24.4c14.5,0,21.5,10.8,21.5,24.4c0,14.7-8.5,24.4-21.5,24.4
				C567.6,479.1,557.9,471,557.9,454.9 M579.4,435.3c-11.3,0-15.7,9.6-15.7,19.6c0,11.5,5.4,19.6,15.7,19.6
				c11.3,0,15.7-9.7,15.7-19.6C595,444,590.7,435.3,579.4,435.3z"/>
			<path class="st50" d="M613.8,478h-5.3v-46.3h5.3v6.4c4.3-4.5,8.5-7.7,15-7.7c5.7,0,10.8,1.8,14.1,6.6c2.2,3.3,2.4,6.8,2.4,10.7
				V478h-5.4v-30.2c0-8.3-3.4-12.5-12-12.5c-6.6,0-11.2,4.3-12.9,9c-1.1,3-1.2,5.6-1.2,8.8L613.8,478"/>
			<path class="st50" d="M687.8,478v-64.4h23.5c16.7,0,21,8.3,21,18c0,14.4-12.8,18-24.7,18h-13.8V478H687.8 M707.8,444.4
				c11.3,0,18.4-2.3,18.4-13.3c0-8-5.2-12.4-16.7-12.4h-15.7v25.6L707.8,444.4L707.8,444.4z"/>
			<path class="st50" d="M734.8,454.9c0-13.5,7.2-24.4,21.5-24.4c14.5,0,21.5,10.8,21.5,24.4c0,14.7-8.5,24.4-21.5,24.4
				C744.5,479.1,734.8,471,734.8,454.9 M756.2,435.3c-11.3,0-15.7,9.6-15.7,19.6c0,11.5,5.4,19.6,15.7,19.6
				c11.3,0,15.7-9.7,15.7-19.6C771.9,444,767.6,435.3,756.2,435.3z"/>
			<path class="st50" d="M791,478h-5.3v-46.3h5.3v8.7h0.2c3-7.4,7.3-9.9,15.1-9.9v5.8c-12.1-0.3-15.3,8.7-15.3,19.1V478"/>
			<path class="st50" d="M836.3,478.2c-1.3,0.3-3.6,1.1-6.2,1.1c-5.3,0-8.2-2.3-8.2-9.2v-33.9h-6.5v-4.5h6.5v-12.9h5.4v12.9h8.7v4.5
				h-8.7v31.8c0,4.5,0.2,6.5,4.6,6.5c1.4,0,3-0.3,4.4-0.6L836.3,478.2"/>
			<path class="st50" d="M865.7,451c2-0.2,5.3-0.7,7.1-1.5c1.8-0.8,2-3.2,2-4.8c0-5.5-3.2-9.4-11.5-9.4c-7.4,0-12.5,2.4-13.5,10.5
				h-5.4c0.8-10.9,8.9-15.3,19-15.3c9.4,0,16.8,3.7,16.8,14.4v25.2c0,4.2,1.1,5.2,5.6,3.6v4.2c-0.8,0.3-2.7,0.9-4.2,0.9
				c-0.9,0-1.6-0.1-2.4-0.3c-3.6-0.5-4.2-3.6-4.3-6.9c-4.5,5-10.6,7.7-17.3,7.7c-8.1,0-15.5-4.4-15.5-13.3c0-7.8,5.3-12.5,16.2-13.9
				L865.7,451 M874.8,453.7c-4.6,1.9-9.2,2.2-13.9,2.6c-8.1,0.6-13,3.6-13,9.8c0,5.7,4.9,8.3,10,8.3c8.5,0,16.9-4.1,16.9-13.5V453.7
				z"/>
			<path class="st50" d="M901.5,478h-5.3v-64.4h5.3v25.5c3.4-5.7,10-8.7,16.6-8.7c14.1,0,20.6,11.5,20.6,24.5
				c0,13.7-6,24.3-20.9,24.3c-5.9,0-13-3.3-16.1-9.4h-0.2L901.5,478 M917.2,474.4c9,0,15.7-6.5,15.8-18.2c0.4-11.6-4.7-21-15.8-21
				c-9.7,0-15.6,9-15.6,19.4C901.5,465.9,907,474.4,917.2,474.4z"/>
			<rect x="950.5" y="413.6" class="st50" width="5.3" height="64.4"/>
			<path class="st50" d="M972.4,456.1c-0.1,10,5.3,18.3,15.6,18.3c6.9,0,12.4-3.8,14-10.6h6c-2.7,8.8-8.2,15.5-20,15.5
				c-14.9,0-21.3-10.6-21.3-24.2c0-13.5,8.1-24.6,21.3-24.6c12.7,0,20.5,9,20.4,25.7L972.4,456.1 M1002.7,451.7
				c0-9.1-5-16.4-14.7-16.4c-9.5,0-14.5,7.6-15.6,16.4H1002.7z"/>
			<polyline class="st50" points="861.2,208.5 861.2,306.9 846,306.9 846,193.4 1213.7,193.4 1213.7,110.1 846,110.1 846,95 
				1228.9,95 1228.9,208.5 861.2,208.5 			"/>
			<path class="st50" d="M655.6,464.9c0-2.9,1.1-5.6,3.2-7.7c2-2,4.8-3.2,7.7-3.2c2.9,0,5.6,1.1,7.7,3.2c2,2,3.2,4.8,3.2,7.7
				c0,6-4.9,10.9-10.9,10.9c-2.9,0-5.6-1.1-7.7-3.2C656.7,470.6,655.6,467.8,655.6,464.9 M666.4,478c3.5,0,6.7-1.3,9.2-3.8
				c2.5-2.5,3.8-5.8,3.8-9.2s-1.4-6.7-3.8-9.2c-2.5-2.5-5.8-3.8-9.2-3.8c-7.2,0-13,5.9-13,13c0,3.5,1.3,6.8,3.8,9.2
				C659.6,476.6,662.9,478,666.4,478"/>
			<path class="st50" d="M670,461.6c0,0.8-0.2,1.4-0.6,1.7c-0.5,0.3-1.1,0.4-1.9,0.4h-4.1v-4.1h4.3c0.5,0,1,0.1,1.4,0.3
				C669.7,460.2,670,460.8,670,461.6 M672.8,471c-0.2-0.1-0.3-0.3-0.4-0.6c0-0.3-0.1-0.6-0.1-1.1l0-1.8c0-0.9-0.2-1.6-0.5-1.9
				c-0.2-0.3-0.5-0.5-0.9-0.7c0.4-0.3,0.9-0.6,1.1-1.1c0.3-0.5,0.5-1.3,0.5-2.2c0-1.7-0.7-2.9-2.1-3.5c-0.7-0.3-1.7-0.5-2.8-0.5
				h-6.8V472h2.5V466h4c0.7,0,1.3,0.1,1.6,0.2c0.5,0.2,0.8,0.7,0.8,1.5l0.1,2.3c0,0.5,0.1,0.9,0.1,1.1c0,0.2,0.1,0.4,0.2,0.5
				l0.1,0.2h2.8v-0.9L672.8,471"/>
			<polyline class="st50" points="0,95 382.9,95 382.9,208.5 15.2,208.5 15.2,306.9 0,306.9 0,193.4 367.8,193.4 367.8,110.1 
				0,110.1 0,95 			"/>
			<polyline class="st50" points="578.2,95 578.2,291.8 382.9,291.8 382.9,306.9 594.1,306.9 594.1,110.1 789.5,110.1 789.5,95 
				578.2,95 			"/>
		</g>
	</g>
</g>
</svg>
