<?xml version="1.0" encoding="utf-8"?>
<!-- Generator: Adobe Illustrator 27.0.0, SVG Export Plug-In . SVG Version: 6.00 Build 0)  -->
<svg version="1.1" id="Layer_1" xmlns="http://www.w3.org/2000/svg" xmlns:xlink="http://www.w3.org/1999/xlink" x="0px" y="0px"
	 viewBox="0 0 3839 486.18" style="enable-background:new 0 0 3839 486.18;" xml:space="preserve">
<style type="text/css">
	.st0{fill:#FFFFFF;}
	.st1{fill:#120F26;}
	.st2{fill:#E22B17;}
	.st3{fill:#FFDA40;}
</style>
<g>
	<g>
		<path class="st0" d="M3704.02,359.47c-2.43,1.64-5.08,2.93-7.88,3.8c-2.81,0.87-5.78,1.36-9.06,1.36h-227.9
			c-8.39,0-15.19,6.8-15.19,15.19v91.17c0,8.39,6.8,15.2,15.19,15.2h227.9c20.81,0,40.95-4.26,59.15-11.97
			c27.35-11.58,50.42-30.76,66.79-54.98c8.19-12.11,14.69-25.5,19.14-39.82c4.46-14.32,6.84-29.57,6.84-45.16
			c0.01-20.81-4.25-40.95-11.96-59.16c-11.58-27.33-30.76-50.41-54.97-66.8c-12.11-8.18-25.51-14.68-39.83-19.14
			c-14.32-4.46-29.55-6.84-45.16-6.84h-121.55c-4.36-0.01-8.2-0.83-11.81-2.36c-5.37-2.26-10.14-6.19-13.42-11.08
			c-1.64-2.43-2.93-5.08-3.8-7.88c-0.87-2.81-1.36-5.77-1.36-9.06c0.01-4.37,0.85-8.2,2.37-11.81c2.26-5.37,6.19-10.13,11.07-13.42
			c2.44-1.65,5.08-2.93,7.88-3.81c2.81-0.86,5.79-1.35,9.06-1.35h227.89c8.39,0,15.19-6.8,15.19-15.19V15.2
			c0-8.39-6.8-15.2-15.19-15.2h-227.89c-20.81,0-40.94,4.25-59.16,11.97c-27.34,11.58-50.41,30.76-66.79,54.98
			c-8.18,12.11-14.69,25.5-19.14,39.83c-4.46,14.31-6.84,29.55-6.84,45.15c-0.01,20.81,4.25,40.96,11.96,59.16
			c11.58,27.34,30.76,50.42,54.98,66.79c12.11,8.2,25.51,14.69,39.83,19.14c14.32,4.46,29.55,6.84,45.15,6.84h121.55
			c4.36,0.01,8.2,0.85,11.81,2.37c5.37,2.26,10.13,6.19,13.42,11.07c1.65,2.44,2.92,5.09,3.8,7.88c0.87,2.82,1.36,5.79,1.36,9.07
			c-0.01,4.36-0.85,8.21-2.36,11.81C3712.83,351.43,3708.9,356.19,3704.02,359.47z"/>
		<path class="st0" d="M2881.08,379.82c0-8.39-6.8-15.19-15.19-15.19H2638V15.2c0-8.39-6.8-15.2-15.19-15.2h-91.17
			c-8.39,0-15.19,6.8-15.19,15.2v455.78c0,8.39,6.8,15.2,15.19,15.2h334.25c8.39,0,15.19-6.8,15.19-15.2V379.82z"/>
		<path class="st0" d="M1331.69,0.25c-8.39,0-15.19,6.8-15.19,15.2v257.54l-205.22-260.8c-5.92-7.52-15.01-11.94-24.58-11.94h-58.86
			c-8.39,0-15.19,6.8-15.19,15.2v455.29c0,8.39,6.8,15.2,15.19,15.2h91.16c8.39,0,15.19-6.8,15.19-15.2V213.69L1339,473.98
			c5.92,7.53,15.02,11.95,24.59,11.95h59.27c8.39,0,15.19-6.8,15.19-15.2V15.45c0-8.39-6.8-15.2-15.19-15.2H1331.69z"/>
		<path class="st0" d="M2353.39,25.98c-12.11-8.18-25.5-14.69-39.83-19.14C2299.25,2.38,2284.01,0,2268.41,0h-121.54
			c-20.81,0-40.94,4.25-59.16,11.97c-27.34,11.58-50.42,30.76-66.79,54.98c-8.18,12.11-14.69,25.5-19.14,39.83
			c-4.46,14.31-6.84,29.55-6.84,45.15v182.32c-0.01,20.8,4.25,40.94,11.96,59.15c11.58,27.34,30.77,50.41,54.98,66.79
			c12.11,8.19,25.51,14.7,39.83,19.15c14.32,4.46,29.55,6.84,45.16,6.84h121.54c20.81,0,40.94-4.26,59.15-11.97
			c27.34-11.58,50.42-30.76,66.79-54.98c8.19-12.11,14.69-25.5,19.14-39.82c4.46-14.32,6.84-29.57,6.84-45.16V151.93
			c0.01-20.8-4.25-40.94-11.96-59.15C2396.79,65.43,2377.61,42.36,2353.39,25.98z M2298.79,334.25c-0.01,4.36-0.85,8.21-2.36,11.81
			c-2.26,5.38-6.19,10.13-11.08,13.42c-2.43,1.64-5.08,2.93-7.89,3.8c-2.81,0.87-5.78,1.36-9.05,1.36h-121.54
			c-4.36-0.01-8.21-0.85-11.81-2.37c-5.37-2.26-10.14-6.19-13.42-11.07c-1.65-2.44-2.93-5.09-3.8-7.88
			c-0.87-2.82-1.35-5.79-1.36-9.06V151.93c0.01-4.37,0.85-8.2,2.37-11.81c2.26-5.37,6.19-10.13,11.07-13.42
			c2.44-1.65,5.08-2.93,7.89-3.81c2.81-0.86,5.78-1.35,9.06-1.35h121.54c4.36,0.01,8.21,0.85,11.81,2.36
			c5.37,2.26,10.14,6.2,13.43,11.08c1.64,2.43,2.92,5.09,3.8,7.88c0.87,2.82,1.35,5.78,1.35,9.06V334.25z"/>
		<path class="st0" d="M1794.21,359.47c-2.43,1.64-5.08,2.93-7.88,3.8c-2.81,0.87-5.78,1.36-9.06,1.36h-227.9
			c-8.39,0-15.19,6.8-15.19,15.19v91.17c0,8.39,6.8,15.2,15.19,15.2h227.9c20.81,0,40.95-4.26,59.15-11.97
			c27.35-11.58,50.42-30.76,66.79-54.98c8.19-12.11,14.69-25.5,19.14-39.82c4.46-14.32,6.84-29.57,6.84-45.16
			c0.01-20.81-4.25-40.95-11.96-59.16c-11.58-27.33-30.76-50.41-54.97-66.8c-12.11-8.18-25.51-14.68-39.83-19.14
			c-14.32-4.46-29.55-6.84-45.16-6.84h-121.55c-4.36-0.01-8.2-0.83-11.81-2.36c-5.37-2.26-10.14-6.19-13.42-11.08
			c-1.64-2.43-2.93-5.08-3.8-7.88c-0.87-2.81-1.36-5.77-1.36-9.06c0.01-4.37,0.85-8.2,2.37-11.81c2.26-5.37,6.19-10.13,11.07-13.42
			c2.44-1.65,5.08-2.93,7.88-3.81c2.81-0.86,5.79-1.35,9.06-1.35h227.89c8.39,0,15.19-6.8,15.19-15.19V15.2
			c0-8.39-6.8-15.2-15.19-15.2h-227.89c-20.81,0-40.94,4.25-59.16,11.97c-27.34,11.58-50.41,30.76-66.79,54.98
			c-8.18,12.11-14.69,25.5-19.14,39.83c-4.46,14.31-6.84,29.55-6.84,45.15c-0.01,20.81,4.25,40.96,11.96,59.16
			c11.58,27.34,30.76,50.42,54.98,66.79c12.11,8.2,25.51,14.69,39.83,19.14c14.32,4.46,29.55,6.84,45.15,6.84h121.55
			c4.36,0.01,8.2,0.85,11.81,2.37c5.37,2.26,10.13,6.19,13.42,11.07c1.65,2.44,2.92,5.09,3.8,7.88c0.87,2.82,1.36,5.79,1.36,9.07
			c-0.01,4.36-0.85,8.21-2.36,11.81C1803.02,351.43,1799.09,356.19,1794.21,359.47z"/>
		<path class="st0" d="M2952.85,15.2c0-8.39,6.8-15.2,15.19-15.2h364.63c8.39,0,15.19,6.8,15.19,15.2v91.16
			c0,8.39-6.8,15.19-15.19,15.19h-364.63c-8.39,0-15.19-6.79-15.19-15.19V15.2z M3092.96,362.28c-5.37-2.27-10.13-6.21-13.42-11.08
			c-1.64-2.43-2.92-5.1-3.79-7.89c-0.87-2.82-1.36-5.77-1.36-9.06v-30.38h197.51c8.39,0,15.19-6.8,15.19-15.2v-91.16
			c0-8.39-6.8-15.19-15.19-15.19h-303.86c-8.26,0-15.19,6.46-15.19,14.72c-0.01,35.68-0.01,124.76,0,137.2
			c-0.01,20.81,4.25,40.95,11.96,59.15c11.58,27.35,30.76,50.42,54.97,66.8c12.12,8.19,25.51,14.69,39.84,19.14
			c14.31,4.46,29.55,6.84,45.15,6.84h227.89c8.39,0,15.19-6.8,15.19-15.2v-91.16c0-8.39-6.8-15.19-15.19-15.19h-227.89
			C3100.41,364.63,3096.57,363.78,3092.96,362.28z"/>
		<path class="st0" d="M92.77,11.98C65.43,23.55,42.35,42.72,25.98,66.95C17.8,79.06,11.3,92.46,6.84,106.78
			C2.38,121.1,0,136.34,0,151.93v182.31c-0.01,20.81,4.25,40.95,11.96,59.15c11.58,27.35,30.77,50.42,54.98,66.8
			c12.11,8.19,25.51,14.69,39.83,19.14c14.31,4.46,29.55,6.84,45.16,6.84h227.89c8.39,0,15.19-6.8,15.19-15.2v-91.16
			c0-8.39-6.8-15.19-15.19-15.19H151.93c-4.37-0.01-8.21-0.85-11.81-2.36c-5.38-2.27-10.14-6.21-13.42-11.08
			c-1.65-2.43-2.92-5.1-3.8-7.89c-0.87-2.82-1.35-5.77-1.36-9.06V151.93c0.01-4.36,0.85-8.21,2.37-11.81
			c2.26-5.38,6.19-10.14,11.08-13.43c2.43-1.63,5.08-2.92,7.88-3.8c2.81-0.86,5.78-1.36,9.06-1.36h227.89
			c8.39,0,15.19-6.79,15.19-15.19V15.2c0-8.39-6.8-15.2-15.19-15.2H151.93C131.12-0.01,110.98,4.26,92.77,11.98z"/>
		<path class="st0" d="M849.58,25.98c-12.11-8.18-25.5-14.69-39.83-19.14C795.44,2.38,780.2,0,764.6,0H643.06
			c-20.81,0-40.94,4.25-59.16,11.97c-27.34,11.58-50.42,30.76-66.79,54.98c-8.18,12.11-14.69,25.5-19.14,39.83
			c-4.46,14.31-6.84,29.55-6.84,45.15v182.32c-0.01,20.8,4.25,40.94,11.96,59.15c11.58,27.34,30.77,50.41,54.98,66.79
			c12.11,8.19,25.51,14.7,39.83,19.15c14.32,4.46,29.55,6.84,45.16,6.84H764.6c20.81,0,40.94-4.26,59.15-11.97
			c27.34-11.58,50.42-30.76,66.79-54.98c8.19-12.11,14.69-25.5,19.14-39.82c4.46-14.32,6.84-29.57,6.84-45.16V151.93
			c0.01-20.8-4.25-40.94-11.96-59.15C892.98,65.43,873.8,42.36,849.58,25.98z M794.98,334.25c-0.01,4.36-0.85,8.21-2.36,11.81
			c-2.26,5.38-6.19,10.13-11.08,13.42c-2.43,1.64-5.08,2.93-7.89,3.8c-2.81,0.87-5.78,1.36-9.05,1.36H643.06
			c-4.36-0.01-8.21-0.85-11.81-2.37c-5.37-2.26-10.14-6.19-13.42-11.07c-1.65-2.44-2.93-5.09-3.8-7.88
			c-0.87-2.82-1.35-5.79-1.36-9.06V151.93c0.01-4.37,0.85-8.2,2.37-11.81c2.26-5.37,6.19-10.13,11.07-13.42
			c2.44-1.65,5.08-2.93,7.89-3.81c2.81-0.86,5.78-1.35,9.06-1.35H764.6c4.36,0.01,8.21,0.85,11.81,2.36
			c5.37,2.26,10.14,6.2,13.43,11.08c1.64,2.43,2.92,5.09,3.8,7.88c0.87,2.82,1.35,5.78,1.35,9.06V334.25z"/>
	</g>
</g>
</svg>
