<?xml version="1.0" encoding="utf-8"?>
<!-- Generator: Adobe Illustrator 27.0.0, SVG Export Plug-In . SVG Version: 6.00 Build 0)  -->
<svg version="1.1" id="Layer_1" xmlns="http://www.w3.org/2000/svg" xmlns:xlink="http://www.w3.org/1999/xlink" x="0px" y="0px"
	 viewBox="0 0 3839 485.11" style="enable-background:new 0 0 3839 485.11;" xml:space="preserve">
<style type="text/css">
	.st0{fill:#FFFFFF;}
	.st1{fill:#120F26;}
	.st2{fill:#E22B17;}
	.st3{fill:#FFDA40;}
</style>
<g>
	<g>
		<path class="st0" d="M1907.65,333.52c0-4.35,0.85-8.19,2.36-11.79c2.25-5.37,6.18-10.11,11.05-13.39
			c2.43-1.64,5.08-2.93,7.87-3.79c2.81-0.86,5.77-1.36,9.04-1.36h79.28l63.03,167.73c3.2,8.51,11.39,14.19,20.49,14.19H2200
			c7.33,0,12.4-7.33,9.82-14.19l-71.4-190.05c18.52-11.35,34.36-26.53,46.49-44.47c8.17-12.09,14.65-25.46,19.1-39.76
			c4.45-14.27,6.82-29.47,6.82-45.05c0.01-20.76-4.24-40.85-11.94-59.02c-11.56-27.28-30.7-50.3-54.86-66.65
			c-12.08-8.16-25.45-14.65-39.74-19.1C2090.02,2.38,2074.81,0,2059.24,0h-257.71c-8.37,0-15.16,6.79-15.16,15.16v90.97
			c0,8.37,6.79,15.15,15.16,15.15h257.71c4.36,0,8.19,0.85,11.78,2.36c5.37,2.25,10.11,6.19,13.39,11.05
			c1.64,2.43,2.92,5.08,3.79,7.87c0.87,2.81,1.35,5.77,1.35,9.04c-0.01,4.36-0.85,8.2-2.36,11.79c-2.25,5.37-6.17,10.12-11.05,13.39
			c-2.43,1.65-5.07,2.92-7.87,3.79c-2.81,0.87-5.77,1.35-9.04,1.35h-121.27c-20.76-0.01-40.86,4.24-59.03,11.95
			c-27.28,11.55-50.31,30.69-66.64,54.86c-8.16,12.09-14.66,25.45-19.1,39.74c-4.45,14.28-6.83,29.5-6.82,45.06v136.43
			c0,8.38,6.79,15.16,15.16,15.16h90.97c8.37,0,15.16-6.79,15.16-15.16V333.52z"/>
		<path class="st0" d="M1624.13,25.92c-12.08-8.16-25.45-14.65-39.74-19.1C1570.1,2.38,1554.9,0,1539.33,0h-121.28
			c-20.77,0-40.85,4.24-59.03,11.95c-27.28,11.55-50.31,30.69-66.64,54.86c-8.16,12.08-14.65,25.45-19.1,39.74
			c-4.45,14.28-6.83,29.48-6.82,45.05v181.92c-0.01,20.76,4.24,40.85,11.94,59.02c11.56,27.28,30.7,50.3,54.86,66.64
			c12.09,8.17,25.46,14.66,39.74,19.11c14.29,4.45,29.49,6.83,45.06,6.83h121.28c20.76,0,40.85-4.26,59.02-11.95
			c27.28-11.55,50.31-30.69,66.64-54.86c8.17-12.08,14.65-25.45,19.1-39.73c4.45-14.29,6.82-29.51,6.82-45.06V151.6
			c0.01-20.76-4.24-40.85-11.94-59.02C1667.43,65.29,1648.29,42.27,1624.13,25.92z M1569.65,333.52c-0.01,4.35-0.85,8.19-2.36,11.78
			c-2.26,5.37-6.18,10.11-11.05,13.39c-2.43,1.64-5.07,2.93-7.87,3.79c-2.81,0.87-5.77,1.36-9.03,1.36h-121.28
			c-4.35-0.01-8.19-0.85-11.78-2.37c-5.36-2.25-10.11-6.18-13.39-11.04c-1.65-2.44-2.93-5.08-3.79-7.87
			c-0.87-2.81-1.35-5.78-1.35-9.04V151.6c0.01-4.36,0.85-8.18,2.36-11.78c2.26-5.36,6.18-10.11,11.05-13.39
			c2.43-1.65,5.07-2.93,7.87-3.8c2.8-0.86,5.77-1.35,9.04-1.35h121.28c4.35,0.01,8.19,0.85,11.78,2.36
			c5.36,2.25,10.11,6.19,13.4,11.05c1.64,2.43,2.91,5.08,3.79,7.87c0.87,2.81,1.34,5.77,1.35,9.04V333.52z"/>
		<path class="st0" d="M2740.64,181.91c8.37,0,15.16,6.79,15.16,15.16v272.88c0,8.38-6.79,15.16-15.16,15.16h-90.96
			c-8.38,0-15.16-6.79-15.16-15.16V197.07c0-8.38,6.78-15.16,15.16-15.16H2740.64z M2907.39,15.16c0-8.38-6.79-15.16-15.16-15.16
			h-394.15c-8.37,0-15.16,6.79-15.16,15.16v90.97c0,8.37,6.79,15.15,15.16,15.15h394.15c8.38,0,15.16-6.79,15.16-15.15V15.16z"/>
		<path class="st0" d="M3704.32,358.68c-2.43,1.64-5.07,2.93-7.87,3.79c-2.81,0.87-5.77,1.36-9.04,1.36h-227.4
			c-8.37,0-15.16,6.79-15.16,15.15v90.97c0,8.38,6.79,15.16,15.16,15.16h227.4c20.76,0,40.86-4.26,59.02-11.95
			c27.29-11.55,50.31-30.69,66.64-54.86c8.17-12.08,14.66-25.45,19.1-39.73c4.45-14.29,6.82-29.51,6.82-45.06
			c0.01-20.77-4.24-40.86-11.94-59.03c-11.56-27.27-30.69-50.3-54.85-66.65c-12.09-8.16-25.45-14.64-39.74-19.1
			c-14.29-4.45-29.49-6.83-45.06-6.83h-121.28c-4.35-0.01-8.18-0.83-11.78-2.36c-5.36-2.25-10.12-6.18-13.39-11.05
			c-1.64-2.43-2.92-5.06-3.79-7.87c-0.87-2.8-1.35-5.76-1.36-9.04c0.01-4.36,0.85-8.18,2.37-11.78c2.25-5.36,6.18-10.11,11.05-13.39
			c2.43-1.65,5.07-2.93,7.87-3.8c2.81-0.86,5.78-1.35,9.04-1.35h227.39c8.38,0,15.16-6.79,15.16-15.15V15.16
			c0-8.38-6.78-15.16-15.16-15.16h-227.39c-20.76,0-40.85,4.24-59.03,11.95c-27.28,11.55-50.3,30.69-66.64,54.86
			c-8.16,12.08-14.65,25.45-19.1,39.74c-4.45,14.28-6.83,29.48-6.82,45.05c-0.01,20.77,4.24,40.87,11.94,59.03
			c11.56,27.28,30.69,50.31,54.86,66.64c12.09,8.18,25.46,14.65,39.74,19.1c14.29,4.45,29.49,6.83,45.05,6.83h121.28
			c4.35,0.01,8.18,0.85,11.78,2.37c5.35,2.25,10.11,6.18,13.39,11.04c1.65,2.44,2.92,5.08,3.79,7.87c0.87,2.81,1.35,5.78,1.35,9.05
			c-0.01,4.35-0.85,8.19-2.36,11.78C3713.11,350.66,3709.19,355.4,3704.32,358.68z"/>
		<path class="st0" d="M1053.42,484.86c9,0,16.99-5.87,19.68-14.47l142.4-455.68c2.25-7.18-3.11-14.47-10.64-14.47h-96.75
			c-8.92,0-16.77,6.02-19.09,14.63l-83.97,312.17L921.07,14.88c-2.31-8.61-10.17-14.63-19.09-14.63h-96.75
			c-7.52,0-12.88,7.29-10.64,14.47l142.4,455.68c2.68,8.59,10.68,14.47,19.68,14.47H1053.42z"/>
		<path class="st0" d="M0,15.17C0,6.79,6.78,0.01,15.16,0.01h363.83c8.37,0,15.16,6.79,15.16,15.16v90.96
			c0,8.38-6.79,15.15-15.16,15.15H15.16C6.78,121.28,0,114.5,0,106.12V15.17z M92.57,193.86c-27.28,11.54-50.31,30.69-66.64,54.85
			c-8.16,12.09-14.65,25.46-19.1,39.75C2.38,302.74,0,317.94,0,333.51v136.43c0,8.38,6.78,15.16,15.16,15.16h90.97
			c8.37,0,15.16-6.79,15.16-15.16V333.51c0.01-4.35,0.85-8.19,2.35-11.78c2.26-5.37,6.19-10.12,11.06-13.4
			c2.43-1.64,5.07-2.91,7.87-3.79c2.81-0.86,5.77-1.34,9.04-1.35h166.76c8.37,0,15.16-6.79,15.16-15.16v-90.96
			c0-8.38-6.79-15.15-15.16-15.15H151.6C130.83,181.92,110.74,186.16,92.57,193.86z"/>
		<path class="st0" d="M2429.89,106.12c0,8.38-6.79,15.15-15.16,15.15h-90.96c-8.38,0-15.16-6.78-15.16-15.15V15.17
			c0-8.38,6.78-15.16,15.16-15.16h90.96c8.37,0,15.16,6.79,15.16,15.16V106.12z M2429.89,197.08c0-8.38-6.79-15.15-15.16-15.15
			h-90.96c-8.38,0-15.16,6.78-15.16,15.15v272.87c0,8.38,6.78,15.16,15.16,15.16h90.96c8.37,0,15.16-6.79,15.16-15.16V197.08z"/>
		<path class="st0" d="M657.72,14.72c-2.68-8.59-10.68-14.47-19.68-14.47H541.3c-9,0-16.99,5.87-19.68,14.47L379.23,470.4
			c-2.25,7.18,3.11,14.47,10.64,14.47h96.75c8.92,0,16.77-6.02,19.1-14.64l83.97-312.15l83.97,312.15
			c2.32,8.62,10.17,14.64,19.1,14.64h96.75c7.52,0,12.88-7.29,10.64-14.47L657.72,14.72z"/>
		<path class="st0" d="M2955.12,15.17c0-8.38,6.78-15.16,15.16-15.16h363.83c8.37,0,15.16,6.79,15.16,15.16v90.96
			c0,8.38-6.79,15.15-15.16,15.15h-363.83c-8.38,0-15.16-6.78-15.16-15.15V15.17z M3094.93,361.48c-5.36-2.26-10.11-6.2-13.39-11.05
			c-1.64-2.43-2.92-5.09-3.78-7.88c-0.87-2.81-1.35-5.76-1.35-9.04V303.2h197.07c8.37,0,15.16-6.79,15.16-15.16v-90.96
			c0-8.38-6.79-15.15-15.16-15.15h-303.19c-8.24,0-15.16,6.44-15.16,14.69c-0.01,35.6-0.01,124.49,0,136.9
			c-0.01,20.77,4.24,40.86,11.94,59.02c11.56,27.29,30.69,50.31,54.85,66.65c12.09,8.17,25.45,14.65,39.75,19.1
			c14.28,4.45,29.48,6.83,45.05,6.83h227.39c8.37,0,15.16-6.79,15.16-15.16v-90.96c0-8.37-6.79-15.15-15.16-15.15h-227.39
			C3102.36,363.83,3098.53,362.99,3094.93,361.48z"/>
	</g>
</g>
</svg>
