<?xml version="1.0" encoding="utf-8"?>
<!-- Generator: Adobe Illustrator 27.0.0, SVG Export Plug-In . SVG Version: 6.00 Build 0)  -->
<svg version="1.1" id="Layer_1" xmlns="http://www.w3.org/2000/svg" xmlns:xlink="http://www.w3.org/1999/xlink" x="0px" y="0px"
	 viewBox="0 0 3860.55 1426.4" style="enable-background:new 0 0 3860.55 1426.4;" xml:space="preserve">
<style type="text/css">
	.st0{fill:#FFFFFF;}
	.st1{fill:url(#SVGID_1_);}
	.st2{fill:url(#SVGID_00000066485747734898118130000016483395844701600159_);}
	.st3{fill:url(#SVGID_00000005236107532303482140000011465161017767580566_);}
	.st4{fill:url(#SVGID_00000150820869183222922250000002870620180321250469_);}
	.st5{fill:url(#SVGID_00000087377913768593928520000002865206879917921187_);}
	.st6{fill:url(#SVGID_00000091732205059408672190000008416746023406313111_);}
	.st7{fill:url(#SVGID_00000074420637739122705590000018436175602458837642_);}
	.st8{fill:url(#SVGID_00000039096351533118052710000013882939190908862098_);}
	.st9{fill:url(#SVGID_00000071557903219763603050000017018394995474964400_);}
	.st10{fill:url(#SVGID_00000183207481374615816590000011757653710402816652_);}
	.st11{fill:url(#SVGID_00000064353842940229032280000016364395032959967632_);}
	.st12{fill:url(#SVGID_00000150808475822483121940000001609650916407025597_);}
	.st13{fill:url(#SVGID_00000183240834429889077140000017169478094933425807_);}
	.st14{fill:url(#SVGID_00000106136387834036756450000017538651518541199024_);}
	.st15{fill:url(#SVGID_00000154404804215400536670000008483597060771517837_);}
	.st16{fill:url(#SVGID_00000165937950339765796140000014981898811146881942_);}
	.st17{fill:url(#SVGID_00000029019484094163835110000004020448375198611862_);}
	.st18{fill:url(#SVGID_00000043453074788577003330000012569113622708026517_);}
	.st19{fill:url(#SVGID_00000080898938800247984600000014846379755580553879_);}
	.st20{fill:url(#SVGID_00000170980973053673352960000008612897198301539976_);}
	.st21{fill:url(#SVGID_00000133512751454365501950000013512767286465021582_);}
	.st22{fill:url(#SVGID_00000147942471158120624830000005288677395968443028_);}
	.st23{fill:url(#SVGID_00000057832941422562956800000001096470290114076842_);}
	.st24{fill:url(#SVGID_00000080193718292694825040000012878863970444390845_);}
	.st25{fill:url(#SVGID_00000168075673121821810390000006140836728111075713_);}
	.st26{fill:url(#SVGID_00000048469832507246926380000002825075122982580630_);}
	.st27{fill:url(#SVGID_00000019651056109214424700000013788120827401685159_);}
	.st28{fill:url(#SVGID_00000104670092553634228350000013339788626157288611_);}
	.st29{fill:url(#SVGID_00000116201579088053207730000012707525219398669452_);}
	.st30{fill:url(#SVGID_00000129182498230274463470000007190196305912724919_);}
	.st31{fill:url(#SVGID_00000011750051305460467290000017004655220022035362_);}
	.st32{fill:url(#SVGID_00000162321405675993868710000012696273913618388401_);}
	.st33{fill:url(#SVGID_00000005266047004751230710000005190804939592213660_);}
	.st34{fill:url(#SVGID_00000083063336790696661010000014564225126351054467_);}
	.st35{fill:url(#SVGID_00000073002847783842888040000007160377799165062550_);}
	.st36{fill:url(#SVGID_00000026154749997027628620000006370037519755672477_);}
	.st37{fill:url(#SVGID_00000078045224377448653940000013826758501205367937_);}
	.st38{fill:url(#SVGID_00000103233704230436040460000014182879233316488614_);}
	.st39{fill:url(#SVGID_00000053508997367892887750000002041374414503333040_);}
	.st40{fill:url(#SVGID_00000172427692677756773220000015721751896001369255_);}
	.st41{fill:url(#SVGID_00000161614520760323141620000000657634008638921896_);}
	.st42{fill:url(#SVGID_00000015342703870342307200000014284354425795544766_);}
	.st43{fill:url(#SVGID_00000054246892582572976420000014114595034516169883_);}
	.st44{fill:url(#SVGID_00000026131935520485142010000003987776301269726594_);}
	.st45{fill:url(#SVGID_00000065785530050810773660000003132990535943820952_);}
	.st46{fill:url(#SVGID_00000155128712010602355540000011530808862060198554_);}
	.st47{fill:url(#SVGID_00000137124884094288131160000000890447697022429074_);}
	.st48{fill:url(#SVGID_00000130614630134361036160000013791974366971236763_);}
	.st49{fill:url(#SVGID_00000109007422641984266810000007743293748127571080_);}
	.st50{fill:url(#SVGID_00000062173645483326533120000003416885019615463575_);}
	.st51{fill:url(#SVGID_00000112598722536046776000000015568180873140220351_);}
	.st52{fill:url(#SVGID_00000034070866818028461390000006342454873206343566_);}
	.st53{fill:url(#SVGID_00000051343327928854409380000011179176927993917315_);}
	.st54{fill:url(#SVGID_00000099643214325121679990000007456118990911618489_);}
	.st55{fill:url(#SVGID_00000127754239137930624040000013055810953310257321_);}
	.st56{fill:url(#SVGID_00000048471710212112684830000013361372347170392220_);}
	.st57{fill:url(#SVGID_00000012436972233078553500000007963470478826856859_);}
	.st58{fill:url(#SVGID_00000126306551025945821490000001187229771766763190_);}
	.st59{fill:url(#SVGID_00000181809528805092708790000008978992998821589426_);}
	.st60{fill:url(#SVGID_00000002381489493177345260000012420988241845766045_);}
	.st61{fill:url(#SVGID_00000033352986855508077660000007278225699368348078_);}
	.st62{fill:url(#SVGID_00000047047832628209572090000003625521798960737683_);}
	.st63{fill:url(#SVGID_00000027562533833437397270000006714095695746280862_);}
	.st64{fill:url(#SVGID_00000170991852521667897380000005303544371473348002_);}
	.st65{fill:url(#SVGID_00000134251733101815229080000009202163449455567758_);}
	.st66{fill:url(#SVGID_00000179609187872790445180000004763463734882104253_);}
	.st67{fill:url(#SVGID_00000124145287975366624580000005167824334753302422_);}
	.st68{fill:url(#SVGID_00000158016103406308474700000012140437246238986412_);}
	.st69{fill:url(#SVGID_00000103241163434254274940000013888583639087865272_);}
	.st70{fill:url(#SVGID_00000048464295299920208080000015572048326423000763_);}
	.st71{fill:url(#SVGID_00000080891762638077367420000007530537434283974582_);}
	.st72{fill:url(#SVGID_00000006687295307720821960000011307419062012981183_);}
	.st73{fill:url(#SVGID_00000096741507242497215730000011035135300608241318_);}
	.st74{fill:url(#SVGID_00000132771600555953303540000001442360352570883238_);}
	.st75{fill:url(#SVGID_00000138570666906912204560000011589087487798265260_);}
	.st76{fill:url(#SVGID_00000029045946778258280740000017402175610392239489_);}
	.st77{fill:url(#SVGID_00000083087681146983614220000003983969542912080550_);}
	.st78{fill:url(#SVGID_00000158744348153076330500000004823713167551273406_);}
	.st79{fill:url(#SVGID_00000036213845943045581930000006647127143590737583_);}
	.st80{fill:url(#SVGID_00000077303162480626275220000014446242086528843164_);}
	.st81{fill:url(#SVGID_00000088849570675900947080000016773907992204017061_);}
	.st82{fill:url(#SVGID_00000037677160989091491670000012154892610280383156_);}
	.st83{fill:url(#SVGID_00000018226885970222148870000004845588048835249049_);}
	.st84{fill:url(#SVGID_00000115473819149258810580000014570463753879650462_);}
	.st85{fill:url(#SVGID_00000031891785645479568770000001279113034095062682_);}
	.st86{fill:url(#SVGID_00000163035121771051800690000002250588081058265505_);}
	.st87{fill:url(#SVGID_00000152950361952064579690000008971451547926269107_);}
	.st88{fill:url(#SVGID_00000083787423747377624290000014628463212438864319_);}
	.st89{fill:url(#SVGID_00000167365601731365873170000016375944231904193170_);}
	.st90{fill:url(#SVGID_00000083061647366447702940000004358572585954698166_);}
	.st91{fill:url(#SVGID_00000058551282952138380020000017875539914367652993_);}
	.st92{fill:url(#SVGID_00000141448073253137451440000011723782818271913354_);}
	.st93{fill:url(#SVGID_00000129165389779465813040000011649289256204524720_);}
	.st94{fill:url(#SVGID_00000125577395550130628260000005402503188420349579_);}
	.st95{fill:url(#SVGID_00000130631354339213856110000001223112295970186905_);}
	.st96{fill:url(#SVGID_00000112609693242411305300000000973991091331346074_);}
	.st97{fill:url(#SVGID_00000088827644696076034730000016645486591288839355_);}
	.st98{fill:url(#SVGID_00000037669577959172741540000007197878756439836321_);}
	.st99{fill:url(#SVGID_00000033355153318890078590000002994772967996275132_);}
	.st100{fill:url(#SVGID_00000057111515360869439480000008739816289672949679_);}
	.st101{fill:url(#SVGID_00000145019425311371982990000018175570887475420836_);}
	.st102{fill:url(#SVGID_00000080897434970736085470000013835904691588637580_);}
	.st103{fill:url(#SVGID_00000016764209033475964130000008033169404843741360_);}
	.st104{fill:url(#SVGID_00000016039598641435599380000008593700250846661811_);}
	.st105{fill:url(#SVGID_00000091710358607979882640000005041973990632378259_);}
	.st106{fill:url(#SVGID_00000031921516279890638480000001038549982240079513_);}
	.st107{fill:url(#SVGID_00000053521125745542039510000011541811207683643050_);}
	.st108{fill:url(#SVGID_00000129203373380765194060000018079309328909228204_);}
	.st109{fill:url(#SVGID_00000052807610336337094600000000419184650872975550_);}
	.st110{fill:url(#SVGID_00000095327316695684736100000004711565449811463072_);}
	.st111{fill:url(#SVGID_00000021112447774010181750000007694734143810627208_);}
	.st112{fill:url(#SVGID_00000096743499781421166120000006054776621437563520_);}
	.st113{fill:url(#SVGID_00000010301776772450320470000010042779746774573470_);}
	.st114{fill:url(#SVGID_00000090287377418633554610000010952185983564050352_);}
	.st115{fill:url(#SVGID_00000055679928689297080690000007954464330034205589_);}
	.st116{fill:url(#SVGID_00000145044070448605613900000004241733675151512724_);}
	.st117{fill:url(#SVGID_00000150795966571052875820000009023072686747107991_);}
	.st118{fill:url(#SVGID_00000069387598681116366250000004365238571440125882_);}
	.st119{fill:url(#SVGID_00000038381158667274569770000000930030147483753102_);}
	.st120{fill:url(#SVGID_00000127032010038509757590000009827390739072502937_);}
	.st121{fill:url(#SVGID_00000130626509230086611390000000763649648695336082_);}
	.st122{fill:url(#SVGID_00000094576202516920335720000007576120261627032250_);}
	.st123{fill:url(#SVGID_00000088134886827191809500000003327420498976926865_);}
	.st124{fill:url(#SVGID_00000086678732363609026460000000877651855637372290_);}
	.st125{fill:url(#SVGID_00000165194520174736055420000001908992281941015460_);}
	.st126{fill:url(#SVGID_00000119106354052207181100000003797305724172387235_);}
	.st127{fill:url(#SVGID_00000067198136819593430500000000005558276212988590_);}
	.st128{fill:url(#SVGID_00000156582480738418869260000012450829656612568478_);}
	.st129{fill:url(#SVGID_00000042000416739304406660000003929955452877742728_);}
	.st130{fill:url(#SVGID_00000157287617332335928210000013378802824324147898_);}
	.st131{fill:url(#SVGID_00000162353914375915298650000007210229807841341629_);}
	.st132{fill:url(#SVGID_00000012431776780500563110000007634251764690741941_);}
	.st133{fill:url(#SVGID_00000103955223747970767040000004805252663832385423_);}
	.st134{fill:url(#SVGID_00000015332294006200741500000016454935098235580307_);}
	.st135{fill:url(#SVGID_00000154427245491266207190000005493445954427597470_);}
	.st136{fill:url(#SVGID_00000094590032837941776690000006824011269603179154_);}
	.st137{fill:url(#SVGID_00000089572329035429831070000011945021574049869709_);}
	.st138{fill:url(#SVGID_00000087384988860085989390000005075042513761992085_);}
	.st139{fill:url(#SVGID_00000114786612416742688590000002800922706096726204_);}
	.st140{fill:url(#SVGID_00000075136596945552203610000015938233313301433484_);}
	.st141{fill:url(#SVGID_00000110431905430384915130000014092157735950234301_);}
	.st142{fill:url(#SVGID_00000074412292242941578580000013214575930162261915_);}
	.st143{fill:url(#SVGID_00000164512887541222603240000012444731546121527212_);}
	.st144{fill:url(#SVGID_00000044858786431735763530000014222475157361422772_);}
	.st145{fill:url(#SVGID_00000107554263338153170810000002212842268339985577_);}
	.st146{fill:url(#SVGID_00000042018087773044809970000004507428777631442360_);}
	.st147{fill:url(#SVGID_00000118372719579394957880000017645391544358737828_);}
	.st148{fill:url(#SVGID_00000115512245912824383050000014305630963092566159_);}
	.st149{fill:url(#SVGID_00000047753867346703590770000017322334992821579925_);}
	.st150{fill:url(#SVGID_00000152237544049209850120000004590286678495492012_);}
	.st151{fill:url(#SVGID_00000055681067424011742160000000705082265173604224_);}
	.st152{fill:url(#SVGID_00000005986109234559506390000008144448372392601523_);}
	.st153{fill:url(#SVGID_00000097478835666458664300000008396530809291189658_);}
	.st154{fill:url(#SVGID_00000032612165727506915580000012152466592996524976_);}
	.st155{fill:url(#SVGID_00000129177778155992093670000002241417990192823188_);}
	.st156{fill:url(#SVGID_00000000932205322328823000000018244763309146246293_);}
	.st157{fill:url(#SVGID_00000034047657744642542310000012054523797745405607_);}
	.st158{fill:url(#SVGID_00000171708802131728653370000003511222024140288949_);}
	.st159{fill:url(#SVGID_00000127041579346314864900000002622579921745644421_);}
	.st160{fill:url(#SVGID_00000027585755513068047190000003974160023998669461_);}
	.st161{fill:url(#SVGID_00000177448254021038127760000017264937152013568409_);}
	.st162{fill:url(#SVGID_00000014611707314156082110000004223450555423702947_);}
	.st163{fill:url(#SVGID_00000014611273374961339480000015486857404189624221_);}
	.st164{fill:url(#SVGID_00000139268368783616135720000000098105544634229409_);}
	.st165{fill:url(#SVGID_00000129889116559607882820000003053264127334851241_);}
	.st166{fill:url(#SVGID_00000061449785630090921930000015714954649581895319_);}
	.st167{fill:url(#SVGID_00000017490705864449964990000000776900129989454269_);}
	.st168{fill:url(#SVGID_00000007412583519442878680000001391690768323033502_);}
	.st169{fill:url(#SVGID_00000028284930231824512010000018027929336830687617_);}
	.st170{fill:url(#SVGID_00000149375182667279719980000007279829370031661456_);}
	.st171{fill:url(#SVGID_00000007420787576140334500000001125178687973843121_);}
	.st172{fill:url(#SVGID_00000047022120040278271000000012875507175685851572_);}
	.st173{fill:url(#SVGID_00000043436844513131607230000009462808269453775499_);}
	.st174{fill:url(#SVGID_00000152951165777411757740000009593032478314984322_);}
	.st175{fill:url(#SVGID_00000117678508096355459820000015477714451969512321_);}
	.st176{fill:url(#SVGID_00000013171449969778238900000007713557741383677569_);}
	.st177{fill:url(#SVGID_00000023239387449531782920000017262769103074967712_);}
	.st178{fill:url(#SVGID_00000152958213764847062410000016606898949414479240_);}
	.st179{fill:url(#SVGID_00000110437241629024251150000008854576577208700561_);}
	.st180{fill:url(#SVGID_00000026133227068176434930000000693254572735530642_);}
	.st181{fill:url(#SVGID_00000155855564320055653460000011791498548423721634_);}
	.st182{fill:url(#SVGID_00000116235510211919668020000016793640497036063144_);}
	.st183{fill:url(#SVGID_00000180363080530615954620000008480723050825254827_);}
	.st184{fill:url(#SVGID_00000109724884391628161380000003880606627469009056_);}
	.st185{fill:url(#SVGID_00000063621836807862539980000007402613633775529400_);}
	.st186{fill:url(#SVGID_00000090267758649052369550000014890215932714821017_);}
	.st187{fill:url(#SVGID_00000098201063151126220490000012169784677783217329_);}
	.st188{fill:url(#SVGID_00000016782040769866795050000011290595645235926459_);}
	.st189{fill:url(#SVGID_00000128484119147272885660000006006111128307683498_);}
	.st190{fill:url(#SVGID_00000003785648481109789520000011150005758543440773_);}
	.st191{fill:url(#SVGID_00000101074046820531745510000011855318822013707401_);}
	.st192{fill:url(#SVGID_00000100350309995184043900000006388639853595114385_);}
	.st193{fill:url(#SVGID_00000051347012885216313270000001279519299871715987_);}
	.st194{fill:url(#SVGID_00000159451508409037681500000003176165921192978837_);}
	.st195{fill:url(#SVGID_00000099633387523306050650000012544016638305418153_);}
	.st196{fill:url(#SVGID_00000099647075916740719000000004189487341833269688_);}
	.st197{fill:url(#SVGID_00000080184706995526991910000003831940752912011454_);}
	.st198{fill:url(#SVGID_00000088115746559828190930000014062994176672060068_);}
	.st199{fill:url(#SVGID_00000165227010882011118550000016036559828485722020_);}
	.st200{fill:url(#SVGID_00000173865538439128148790000015224128042272902300_);}
	.st201{fill:url(#SVGID_00000135690022460609689480000014192740202339263658_);}
	.st202{fill:url(#SVGID_00000174569797709686137750000000024942949816107440_);}
	.st203{fill:url(#SVGID_00000115490123878621205720000009839223470389543575_);}
	.st204{fill:url(#SVGID_00000108269854663638203300000000675965892718140308_);}
	.st205{fill:url(#SVGID_00000138568355293379851730000003813480656837776296_);}
	.st206{fill:url(#SVGID_00000163035843860668754410000017746778690393335721_);}
	.st207{fill:url(#SVGID_00000072273689697236402990000001705239095464022972_);}
	.st208{fill:url(#SVGID_00000023964459808982798630000017236675868846048693_);}
	.st209{fill:url(#SVGID_00000035502939464631494410000005529843007328773264_);}
	.st210{fill:url(#SVGID_00000067946105405900662630000010994750843082509484_);}
	.st211{fill:url(#SVGID_00000125572965515725721950000015693798421306657693_);}
	.st212{fill:url(#SVGID_00000065788190565848286440000016443956849560321160_);}
	.st213{fill:url(#SVGID_00000178890236467847741750000013866351414224673685_);}
	.st214{fill:url(#SVGID_00000008832643252472759680000002170681773651758989_);}
	.st215{fill:url(#SVGID_00000101783521043588052570000006835032550194056098_);}
	.st216{fill:url(#SVGID_00000178908225092360347290000010612637573197841834_);}
	.st217{fill:url(#SVGID_00000175291302411859490360000001052968705007710880_);}
	.st218{fill:url(#SVGID_00000083792433129256653050000008161448126371772042_);}
	.st219{fill:url(#SVGID_00000010272154984638108560000015980260064675902381_);}
	.st220{fill:url(#SVGID_00000166644931415826579420000006852142712976231050_);}
	.st221{fill:url(#SVGID_00000032607392985895213240000002514686561320604323_);}
	.st222{fill:url(#SVGID_00000055692531706861880660000018219382484802331326_);}
	.st223{fill:url(#SVGID_00000051353458122816282310000016947166016709902473_);}
	.st224{fill:url(#SVGID_00000097496396364713282140000012761234555987370170_);}
	.st225{fill:url(#SVGID_00000123420931022110817150000010476621248273428643_);}
	.st226{fill:url(#SVGID_00000098185340843664925830000014233831796900799163_);}
	.st227{fill:url(#SVGID_00000121254569208644412190000005964016221333779336_);}
	.st228{fill:url(#SVGID_00000150820672624570331100000017236952120619285151_);}
	.st229{fill:url(#SVGID_00000127765622363258536600000006905077917990411651_);}
	.st230{fill:url(#SVGID_00000133494982959487865660000017269846507087723150_);}
	.st231{fill:url(#SVGID_00000163034554494102825590000002233456604057843337_);}
	.st232{fill:url(#SVGID_00000093867502471959435150000008690038741321143694_);}
	.st233{fill:url(#SVGID_00000047059712572618808610000004652687606561892277_);}
	.st234{fill:url(#SVGID_00000174570191735488435100000004519543349618377362_);}
	.st235{fill:url(#SVGID_00000098202417550837992020000006894003789254376109_);}
	.st236{fill:url(#SVGID_00000109734677931300064630000010264193635733957287_);}
	.st237{fill:url(#SVGID_00000023239412629627353110000014318827661715158919_);}
	.st238{fill:url(#SVGID_00000008868401340142224960000006448845281524546445_);}
	.st239{fill:url(#SVGID_00000114780602817702298870000015843553688436213418_);}
	.st240{fill:url(#SVGID_00000086670014722536789640000009512022261463161773_);}
	.st241{fill:url(#SVGID_00000088102725588387164370000011566067678367337089_);}
	.st242{fill:url(#SVGID_00000108291969025243358660000002521731058407774342_);}
	.st243{fill:url(#SVGID_00000168078500212704890110000013144527241625526184_);}
	.st244{fill:url(#SVGID_00000183929389242137952180000000429124662449191335_);}
	.st245{fill:url(#SVGID_00000001646457143512306900000013479610192839333780_);}
	.st246{fill:url(#SVGID_00000180352674754974815090000008048886581395390648_);}
	.st247{fill:url(#SVGID_00000072246067453649994270000003251543537368284604_);}
	.st248{fill:url(#SVGID_00000049209807285972754210000015002615586960759460_);}
	.st249{fill:url(#SVGID_00000003824536181413320550000003089642213027899308_);}
	.st250{fill:url(#SVGID_00000176740554604365561070000016607203474866085020_);}
	.st251{fill:url(#SVGID_00000116921315007871606070000012227568598695727794_);}
	.st252{fill:url(#SVGID_00000153677131506372986750000016776315030965205133_);}
	.st253{fill:url(#SVGID_00000079449638870684934880000003129106451633437105_);}
	.st254{fill:url(#SVGID_00000152242804305361541120000015468934289946067876_);}
	.st255{fill:url(#SVGID_00000150070537028252105440000006911141953489107866_);}
	.st256{fill:url(#SVGID_00000124869206270585972630000014740540316462095749_);}
	.st257{fill:url(#SVGID_00000013167076723416554800000005790926309416935065_);}
	.st258{fill:url(#SVGID_00000141427240405613643920000016014383751737967771_);}
	.st259{fill:url(#SVGID_00000003793541405297928920000017343690387971347330_);}
	.st260{fill:url(#SVGID_00000065775875718612559670000007008977183283957903_);}
	.st261{fill:url(#SVGID_00000051376485448797986840000016259750600666897567_);}
	.st262{fill:url(#SVGID_00000179614685366521296240000013426099589461748633_);}
	.st263{fill:url(#SVGID_00000183247654926514654510000007548597463457891769_);}
	.st264{fill:url(#SVGID_00000042736340640902414090000000188515546367205295_);}
	.st265{fill:url(#SVGID_00000063633791771492056870000014848004915161077393_);}
	.st266{fill:url(#SVGID_00000177457056855805398620000007064747260826511790_);}
	.st267{fill:url(#SVGID_00000091698611879763290390000013256758729873927044_);}
	.st268{fill:url(#SVGID_00000029041700706334488980000017641789769321001661_);}
	.st269{fill:url(#SVGID_00000106110019449110271240000008458828158757236868_);}
	.st270{fill:url(#SVGID_00000153700629737267777660000014952319327576999843_);}
	.st271{fill:url(#SVGID_00000125595956730347914730000014231593060553146274_);}
	.st272{fill:url(#SVGID_00000052071274567366727140000005036158682746380478_);}
	.st273{fill:url(#SVGID_00000136391240196168674840000008820623791899571886_);}
	.st274{fill:url(#SVGID_00000176759739457200459850000017480104188802384803_);}
	.st275{fill:url(#SVGID_00000183240708016394580990000010767406042115631494_);}
	.st276{fill:url(#SVGID_00000099641082947339047790000009695347105175978666_);}
	.st277{fill:url(#SVGID_00000162338871808297659380000001205346881904375192_);}
	.st278{fill:url(#SVGID_00000107587887485133888640000006584926268826850492_);}
	.st279{fill:url(#SVGID_00000141435505389474364290000001663741551227288250_);}
	.st280{fill:url(#SVGID_00000173872719355784280300000008340662421567698360_);}
	.st281{fill:url(#SVGID_00000106133671867208963680000008577104018953940400_);}
	.st282{fill:url(#SVGID_00000003067091185249898600000015218266612040138403_);}
	.st283{fill:url(#SVGID_00000125562161798090191860000013285949008780562307_);}
	.st284{fill:url(#SVGID_00000110468899822478929040000001583289671300827790_);}
	.st285{fill:url(#SVGID_00000117659925679142054400000010360700474344171690_);}
	.st286{fill:url(#SVGID_00000001631313399096432090000003615507706605878452_);}
	.st287{fill:url(#SVGID_00000121998564710232467290000014229669884944346244_);}
	.st288{fill:url(#SVGID_00000153671861611742297570000012026802685936190129_);}
	.st289{fill:url(#SVGID_00000158725266939023790090000017955658415038374538_);}
	.st290{fill:url(#SVGID_00000110440132710748949100000005354464568607585157_);}
	.st291{fill:url(#SVGID_00000095314859229713935250000018110835377992360576_);}
	.st292{fill:url(#SVGID_00000065043549437161230650000001137540901950864557_);}
	.st293{fill:url(#SVGID_00000173879528739996998180000013574774672999937202_);}
	.st294{fill:url(#SVGID_00000046338668735143750870000012793581783810292099_);}
	.st295{fill:url(#SVGID_00000114753865402243943960000017338197298893008299_);}
	.st296{fill:url(#SVGID_00000106108966183377479510000018132406224610895799_);}
	.st297{fill:url(#SVGID_00000151540326141841097750000017649394283438124948_);}
	.st298{fill:url(#SVGID_00000013878038697767634180000010008740174078517422_);}
	.st299{fill:url(#SVGID_00000093141669794159510690000011975888591700227475_);}
	.st300{fill:url(#SVGID_00000121998330417362588290000017694733082665021865_);}
	.st301{fill:url(#SVGID_00000161610928120348628570000000699218427198295728_);}
	.st302{fill:url(#SVGID_00000145050003241757294920000011452357625420300217_);}
	.st303{fill:url(#SVGID_00000010304809167991017130000005508372876700986025_);}
	.st304{fill:url(#SVGID_00000142176993153245738870000005484067950194121405_);}
	.st305{fill:url(#SVGID_00000026881704204439085410000012209126475101137084_);}
	.st306{fill:url(#SVGID_00000105422431596402290050000007890838677666470028_);}
	.st307{fill:url(#SVGID_00000134933129656943907940000003935973795309717143_);}
	.st308{fill:url(#SVGID_00000124840026597268371620000003773194705041703846_);}
	.st309{fill:url(#SVGID_00000109730536437752611560000014274350911458181053_);}
	.st310{fill:url(#SVGID_00000129188269341743022030000004728834952330492830_);}
	.st311{fill:url(#SVGID_00000085932578505523463110000016493827206770438040_);}
	.st312{fill:url(#SVGID_00000027597887609690312090000017017631965294451343_);}
	.st313{fill:url(#SVGID_00000120553068283370768350000006361506012212629684_);}
	.st314{fill:url(#SVGID_00000180364019069021960190000001765266945890257565_);}
	.st315{fill:url(#SVGID_00000054246764234796344340000002890800372645619386_);}
	.st316{fill:url(#SVGID_00000018933269952406987560000009728408798816133032_);}
	.st317{fill:url(#SVGID_00000106122222222745968460000000227312236871062713_);}
	.st318{fill:url(#SVGID_00000131326157004674884910000006861106862815979173_);}
	.st319{fill:url(#SVGID_00000049213998712452265220000015770871280733859977_);}
	.st320{fill:url(#SVGID_00000043419975396848638370000015987296406154008757_);}
</style>
<g>
	<g>
		<g>
			<linearGradient id="SVGID_1_" gradientUnits="userSpaceOnUse" x1="10.7769" y1="713.2023" x2="3849.7769" y2="713.2023">
				<stop  offset="0" style="stop-color:#3636FF"/>
				<stop  offset="1" style="stop-color:#00FFFF"/>
			</linearGradient>
			<path class="st1" d="M517.75,236.1c-112.66,0-186.06,49.5-233.86,109.25V261.7H10.78v1153.93h273.12v-464.3
				c85.35,88.76,187.77,99,237.27,99c76.82,0,175.82-22.19,261.17-105.84c73.4-71.69,122.9-174.11,122.9-302.14
				c0-131.43-52.92-232.15-116.08-295.3C727.71,285.6,635.53,236.1,517.75,236.1z M572.37,766.97
				c-30.73,32.44-73.4,51.21-121.2,51.21c-46.09,0-90.47-18.77-122.9-51.21c-29.02-29.02-52.92-76.81-52.92-121.19
				c0-42.68,18.78-92.18,52.92-126.32c32.43-32.43,76.82-51.21,122.9-51.21c47.8,0,90.47,18.78,121.2,51.21
				c34.14,34.14,52.92,83.64,52.92,126.32C625.29,691.87,601.39,737.95,572.37,766.97z M1782.63,362.42
				c-63.16-59.75-172.41-126.32-341.4-126.32c-165.58,0-276.53,64.86-339.69,126.32c-56.33,54.62-117.78,143.38-117.78,279.94
				c0,102.42,34.14,199.72,117.78,281.66c105.83,104.12,228.74,126.31,339.69,126.31c122.9,0,240.68-27.31,341.4-126.31
				c83.64-81.94,117.78-179.23,117.78-281.66C1900.42,505.8,1838.96,417.04,1782.63,362.42z M1564.14,763.56
				c-32.43,32.43-76.82,51.21-121.2,51.21c-46.09,0-90.47-18.78-122.9-51.21c-30.73-30.72-52.92-75.1-52.92-121.2
				c0-44.38,18.78-92.18,52.92-124.61c30.73-29.02,78.52-49.5,122.9-49.5c42.67,0,90.47,20.48,121.2,49.5
				c34.14,34.14,52.92,83.64,52.92,124.61C1617.06,686.74,1598.28,731.13,1564.14,763.56z M2390.32,280.48
				c-40.97,20.48-80.23,54.62-107.54,105.83V261.7h-273.12v763.02h273.12V698.69c0-40.97,3.42-121.19,61.45-174.11
				c39.26-35.85,88.76-40.97,124.61-40.97c66.57,0,104.13,20.48,117.78,27.31V253.17c-35.85-1.71-47.8-3.42-54.62-3.42
				C2480.79,249.76,2431.29,258.29,2390.32,280.48z M3021.91,10.78h-273.12V261.7h-87.06v223.62h87.06v539.4h273.12v-539.4h155.34
				V261.7h-155.34V10.78z M3791.74,613.34c-22.19-22.19-76.82-49.5-112.66-59.74l-49.5-13.66c-42.67-11.95-64.87-11.95-90.47-22.19
				c-17.07-6.82-32.43-18.77-32.43-42.67c0-17.07,8.53-29.02,23.9-37.56c17.07-10.24,35.85-15.36,63.16-15.36
				c49.5,0,105.83,20.49,143.39,37.56l92.18-174.11c-44.38-18.77-131.44-49.5-244.1-49.5s-215.08,32.43-273.12,92.18
				c-42.68,44.38-71.69,112.66-71.69,186.06c0,58.04,20.48,100.71,49.5,131.44c40.97,44.38,95.59,58.04,133.15,66.57l71.69,17.08
				c27.31,6.82,54.62,11.95,71.7,27.31c11.95,10.24,13.66,22.19,13.66,34.14c0,13.66-1.71,23.9-13.66,35.85
				c-17.07,15.36-49.5,20.48-69.99,20.48c-29.02,0-71.69-6.82-105.83-18.77c-37.55-11.95-76.81-32.43-109.25-56.33l-97.3,189.48
				c131.44,80.23,238.98,88.76,307.26,88.76c63.16,0,192.89-6.82,281.65-95.59c37.55-35.85,76.81-97.3,76.81-189.48
				C3849.78,708.93,3829.29,649.19,3791.74,613.34z"/>
		</g>
	</g>
	<g>
		<g>
			
				<linearGradient id="SVGID_00000049188889765390975410000003932697506736820102_" gradientUnits="userSpaceOnUse" x1="458.0074" y1="1415.6276" x2="458.0074" y2="236.099">
				<stop  offset="0" style="stop-color:#3636FF"/>
				<stop  offset="0.4427" style="stop-color:#1E8FFF"/>
				<stop  offset="0.5122" style="stop-color:#FFFFFF"/>
				<stop  offset="0.5889" style="stop-color:#16ACFF"/>
				<stop  offset="1" style="stop-color:#00FFFF"/>
			</linearGradient>
			<path style="fill:url(#SVGID_00000049188889765390975410000003932697506736820102_);" d="M517.75,257.65
				c52.28,0,102.12,10.29,148.13,30.6c40.38,17.82,76.73,42.73,108.04,74.05c31.9,31.89,58.57,71.75,77.14,115.27
				c21.65,50.73,32.62,106.18,32.62,164.8c0,58.51-10.83,113.61-32.2,163.74c-19.73,46.29-48.06,87.66-84.23,123
				c-84.06,82.38-180.22,99.68-246.08,99.68c-34.1,0-67.27-5.11-98.59-15.18c-46.97-15.11-88.4-41.08-123.14-77.21l-37.09-38.57
				v53.51v442.75H32.33V283.25h230.01v62.09v61.45l38.38-47.98c24.51-30.63,53.33-54.64,85.67-71.34
				C424.68,267.68,468.88,257.65,517.75,257.65 M451.18,839.73c52.75,0,101.27-20.5,136.64-57.73
				c28.57-28.67,59.02-79.44,59.02-136.23c0-50.69-22.61-104.82-59.03-141.36c-35.38-37.23-83.9-57.72-136.64-57.72
				c-25.72,0-50.92,5.08-74.89,15.11c-23.78,9.95-45.06,24.22-63.25,42.41c-36.53,36.54-59.23,90.78-59.23,141.56
				c0,24.05,6.05,50.08,17.51,75.28c10.6,23.31,25.02,44.46,41.72,61.15c18.19,18.2,39.47,32.47,63.25,42.41
				C400.25,834.65,425.45,839.73,451.18,839.73 M517.75,236.1c-112.66,0-186.06,49.5-233.86,109.25V261.7H10.78v1153.93h273.12
				v-464.3c85.35,88.76,187.77,99,237.27,99c76.82,0,175.82-22.19,261.17-105.84c73.4-71.69,122.9-174.11,122.9-302.14
				c0-131.43-52.92-232.15-116.08-295.3C727.71,285.6,635.53,236.1,517.75,236.1L517.75,236.1z M451.18,818.18
				c-46.09,0-90.47-18.77-122.9-51.21c-29.02-29.02-52.92-76.81-52.92-121.19c0-42.68,18.78-92.18,52.92-126.32
				c32.43-32.43,76.82-51.21,122.9-51.21c47.8,0,90.47,18.78,121.2,51.21c34.14,34.14,52.92,83.64,52.92,126.32
				c0,46.09-23.9,92.18-52.92,121.19C541.65,799.41,498.97,818.18,451.18,818.18L451.18,818.18z"/>
		</g>
		<g>
			
				<linearGradient id="SVGID_00000066486554692069668380000005596457994889132983_" gradientUnits="userSpaceOnUse" x1="1442.0907" y1="1050.3307" x2="1442.0907" y2="236.099">
				<stop  offset="0" style="stop-color:#3636FF"/>
				<stop  offset="0.4427" style="stop-color:#1E8FFF"/>
				<stop  offset="0.5122" style="stop-color:#FFFFFF"/>
				<stop  offset="0.5889" style="stop-color:#16ACFF"/>
				<stop  offset="1" style="stop-color:#00FFFF"/>
			</linearGradient>
			<path style="fill:url(#SVGID_00000066486554692069668380000005596457994889132983_);" d="M1441.24,257.65
				c164.62,0,268.4,65.41,326.49,120.33c73.75,71.56,111.14,160.51,111.14,264.38c0,50.23-8.74,97.49-25.98,140.49
				c-18.47,46.08-47.18,88.4-85.36,125.79c-45.3,44.53-95.71,75.68-154.11,95.21c-50.11,16.77-106.44,24.92-172.18,24.92
				c-62.77,0-116.8-7.55-165.18-23.08c-28.69-9.21-56.08-21.51-81.38-36.55c-27.69-16.46-53.94-36.81-78.05-60.53
				c-38.15-37.37-66.86-79.68-85.33-125.77c-17.24-43-25.98-90.26-25.98-140.49c0-103.92,37.42-192.9,111.26-264.49
				c34.4-33.47,77.56-61.76,124.82-81.81C1301.47,270.57,1368.7,257.65,1441.24,257.65 M1442.94,836.32
				c50.06,0,99.7-20.89,136.24-57.32c37.77-35.98,59.43-85.77,59.43-136.64c0-23.53-5.28-48.8-15.28-73.07
				c-10.45-25.39-25.65-48.48-43.95-66.78l-0.22-0.22l-0.23-0.21c-35.63-33.65-89.01-55.38-136-55.38
				c-24.2,0-50.05,5.35-74.75,15.48c-23.93,9.81-45.7,23.61-62.95,39.91l-0.02,0.02l-0.02,0.02
				c-18.62,17.69-33.94,40.22-44.32,65.18c-10.02,24.08-15.31,50.04-15.31,75.06c0,25.28,5.67,50.6,16.86,75.27
				c10.21,22.52,24.87,43.67,42.37,61.17c18.19,18.19,39.48,32.46,63.25,42.41C1392.02,831.24,1417.22,836.32,1442.94,836.32
				 M1441.24,236.1c-165.58,0-276.53,64.86-339.69,126.32c-56.33,54.62-117.78,143.38-117.78,279.94
				c0,102.42,34.14,199.72,117.78,281.66c105.83,104.12,228.74,126.31,339.69,126.31c122.9,0,240.68-27.31,341.4-126.31
				c83.64-81.94,117.78-179.23,117.78-281.66c0-136.56-61.45-225.32-117.78-279.94C1719.48,302.67,1610.23,236.1,1441.24,236.1
				L1441.24,236.1z M1442.94,814.77c-46.09,0-90.47-18.78-122.9-51.21c-30.73-30.72-52.92-75.1-52.92-121.2
				c0-44.38,18.78-92.18,52.92-124.61c30.73-29.02,78.52-49.5,122.9-49.5c42.67,0,90.47,20.48,121.2,49.5
				c34.14,34.14,52.92,83.64,52.92,124.61c0,44.38-18.78,88.77-52.92,121.2C1531.71,795.99,1487.33,814.77,1442.94,814.77
				L1442.94,814.77z"/>
		</g>
		<g>
			
				<linearGradient id="SVGID_00000183242956062385727620000005535412311758482582_" gradientUnits="userSpaceOnUse" x1="2298.1409" y1="1024.725" x2="2298.1409" y2="249.755">
				<stop  offset="0" style="stop-color:#3636FF"/>
				<stop  offset="0.4427" style="stop-color:#1E8FFF"/>
				<stop  offset="0.5122" style="stop-color:#FFFFFF"/>
				<stop  offset="0.5889" style="stop-color:#16ACFF"/>
				<stop  offset="1" style="stop-color:#00FFFF"/>
			</linearGradient>
			<path style="fill:url(#SVGID_00000183242956062385727620000005535412311758482582_);" d="M2532,271.31
				c1.95,0,5.58,0.28,10.59,0.68c5.41,0.42,12.55,0.99,22.48,1.6v204.28c-21.9-7.9-53.83-15.8-96.23-15.8
				c-25.05,0-46.82,2.54-66.54,7.76c-28.09,7.43-52.52,20.5-72.59,38.84c-28.36,25.86-48.16,60.22-58.85,102.13
				c-8.54,33.47-9.63,64.56-9.63,87.9v304.48h-230.01V283.25h230.01v103.06v86.21l40.57-76.07c22.66-42.48,56.6-75.92,98.16-96.7
				l0.32-0.16l0.31-0.17C2435.03,280.77,2479.25,271.31,2532,271.31 M2532,249.76c-51.21,0-100.71,8.53-141.68,30.73
				c-40.97,20.48-80.23,54.62-107.54,105.83V261.7h-273.12v763.02h273.12V698.69c0-40.97,3.42-121.19,61.45-174.11
				c39.26-35.85,88.76-40.97,124.61-40.97c66.57,0,104.13,20.48,117.78,27.31V253.17C2550.77,251.46,2538.83,249.76,2532,249.76
				L2532,249.76z"/>
		</g>
		<g>
			
				<linearGradient id="SVGID_00000069385290256092049550000001269947750446588804_" gradientUnits="userSpaceOnUse" x1="2919.4861" y1="1024.725" x2="2919.4861" y2="10.777">
				<stop  offset="0" style="stop-color:#3636FF"/>
				<stop  offset="0.4427" style="stop-color:#1E8FFF"/>
				<stop  offset="0.5122" style="stop-color:#FFFFFF"/>
				<stop  offset="0.5889" style="stop-color:#16ACFF"/>
				<stop  offset="1" style="stop-color:#00FFFF"/>
			</linearGradient>
			<path style="fill:url(#SVGID_00000069385290256092049550000001269947750446588804_);" d="M3000.35,32.33V261.7v21.55h21.55
				h133.78v180.51h-133.78h-21.55v21.55v517.85h-230.01V485.32v-21.55h-21.55h-65.5V283.25h65.5h21.55V261.7V32.33H3000.35
				 M3021.91,10.78h-273.12V261.7h-87.06v223.62h87.06v539.4h273.12v-539.4h155.34V261.7h-155.34V10.78L3021.91,10.78z"/>
		</g>
		<g>
			
				<linearGradient id="SVGID_00000021113749435968735710000009840646119428413844_" gradientUnits="userSpaceOnUse" x1="3516.9155" y1="1050.3307" x2="3516.9155" y2="236.099">
				<stop  offset="0" style="stop-color:#3636FF"/>
				<stop  offset="0.4427" style="stop-color:#1E8FFF"/>
				<stop  offset="0.5122" style="stop-color:#FFFFFF"/>
				<stop  offset="0.5889" style="stop-color:#16ACFF"/>
				<stop  offset="1" style="stop-color:#00FFFF"/>
			</linearGradient>
			<path style="fill:url(#SVGID_00000021113749435968735710000009840646119428413844_);" d="M3585.19,257.65
				c72.43,0,145.87,13.46,213.83,39.06l-71.63,135.31c-14.58-6.01-32.37-12.63-51.47-18.18c-30.21-8.78-57.87-13.23-82.19-13.23
				c-29.96,0-52.78,5.63-73.95,18.26c-28.64,16.06-34.66,39.42-34.66,56.22c0,20.21,7.98,47.49,45.98,62.68
				c15.88,6.35,30.16,9.15,46.7,12.38c12.86,2.52,27.45,5.37,45.96,10.56l0.04,0.01l0.04,0.01l49.4,13.63
				c35.31,10.11,85.47,36.45,103.26,54.24l0.18,0.18l0.18,0.17c15.65,14.94,28.71,35.75,37.77,60.19
				c8.89,23.97,13.59,50.3,13.59,76.14c0,38.84-7.51,74.78-22.33,106.81c-11.78,25.47-27.87,48.04-47.81,67.07l-0.18,0.17
				l-0.18,0.18c-35.74,35.74-82.98,61.11-140.39,75.41c-37.49,9.33-78.71,13.87-126.02,13.87c-28.55,0-72.57-1.42-125.02-13.73
				c-51.52-12.08-103.17-32.82-153.78-61.71l76.82-149.59c29.88,19.26,62.68,34.98,94.44,45.12c34.12,11.9,79.34,19.88,112.66,19.88
				c9.27,0,56.89-1.25,84.4-26.01l0.42-0.38l0.4-0.4c18.42-18.43,19.97-36.03,19.97-51.09c0-15.01-2.39-34.28-20.99-50.33
				c-19.09-17.06-45.58-23.49-71.19-29.7c-3.12-0.76-6.35-1.54-9.5-2.33l-0.12-0.03l-0.12-0.03l-71.69-17.08l-0.11-0.03l-0.11-0.03
				c-40.74-9.25-87.12-22.29-122.08-60.17l-0.08-0.09l-0.08-0.09c-28.94-30.65-43.62-69.89-43.62-116.64
				c0-64.36,24.53-128.31,65.63-171.08c25.71-26.45,62.84-48.24,107.37-63.02C3479.47,265.46,3531.43,257.65,3585.19,257.65
				 M3585.19,236.1c-112.66,0-215.08,32.43-273.12,92.18c-42.68,44.38-71.69,112.66-71.69,186.06c0,58.04,20.48,100.71,49.5,131.44
				c40.97,44.38,95.59,58.04,133.15,66.57l71.69,17.08c27.31,6.82,54.62,11.95,71.7,27.31c11.95,10.24,13.66,22.19,13.66,34.14
				c0,13.66-1.71,23.9-13.66,35.85c-17.07,15.36-49.5,20.48-69.99,20.48c-29.02,0-71.69-6.82-105.83-18.77
				c-37.55-11.95-76.81-32.43-109.25-56.33l-97.3,189.48c131.44,80.23,238.98,88.76,307.26,88.76c63.16,0,192.89-6.82,281.65-95.59
				c37.55-35.85,76.81-97.3,76.81-189.48c0-56.33-20.48-116.07-58.04-151.92c-22.19-22.19-76.82-49.5-112.66-59.74l-49.5-13.66
				c-42.67-11.95-64.87-11.95-90.47-22.19c-17.07-6.82-32.43-18.77-32.43-42.67c0-17.07,8.53-29.02,23.9-37.56
				c17.07-10.24,35.85-15.36,63.16-15.36c49.5,0,105.83,20.49,143.39,37.56l92.18-174.11
				C3784.91,266.83,3697.86,236.1,3585.19,236.1L3585.19,236.1z"/>
		</g>
	</g>
</g>
</svg>
