<?xml version="1.0" encoding="utf-8"?>
<!-- Generator: Adobe Illustrator 25.0.0, SVG Export Plug-In . SVG Version: 6.00 Build 0)  -->
<svg version="1.1" id="Layer_1" xmlns="http://www.w3.org/2000/svg" xmlns:xlink="http://www.w3.org/1999/xlink" x="0px" y="0px"
	 viewBox="0 0 3840 573.3" style="enable-background:new 0 0 3840 573.3;" xml:space="preserve">
<style type="text/css">
	.st0{fill:#FFC20B;}
	.st1{fill:#353535;}
	.st2{fill:#FFFFFF;}
	.st3{fill:#9F3A35;}
</style>
<g>
	<g>
		<path class="st0" d="M2619.8,295.9V17.2h-129.2L2270.2,268c-26,29.6-32.1,70.3-15.8,106.3c16.3,35.9,50.8,58.2,90.3,58.2h138.6
			v129.4h136.5V432.5h54.8V295.9H2619.8z M2639.6,397.5h-54.8v129.4h-66.7V397.5h-173.5c-55.2,0-84.6-65-48.2-106.5l209.9-238.9
			h11.8h36.7h30v278.7h54.8V397.5z"/>
		<path class="st0" d="M2365.9,330.9h152.3V139.7l-157.6,179.4C2356.5,323.7,2359.8,330.9,2365.9,330.9z M2483.2,232.4v63.6h-55.9
			L2483.2,232.4z"/>
	</g>
	<g>
		<path class="st1" d="M798.6,40.8c21.1-27,64.9-31.7,90.8-9c10.6,8.9,18,21.3,21.8,34.5c48,165.2,96.2,330.3,144.2,495.5
			c-28.3,0-56.7-0.1-85,0c-13.4-45.5-26.4-91.2-39.6-136.7c-54.8-0.1-109.5,0-164.3-0.1c-13.4,45.6-26.7,91.2-39.8,136.8
			c-28.2-0.1-56.4,0-84.5-0.1c45.6-157.6,91.3-315.1,137.1-472.7C784.7,72.7,786.7,54.3,798.6,40.8 M848.6,142
			c-20.1,68.4-39.8,137-59.7,205.5c39.8,0.2,79.6,0.1,119.4,0.1C888.4,279,868.5,210.5,848.6,142z"/>
		<path class="st1" d="M1395.4,44.4c14.8-21.4,43.3-31.8,68.4-25.2c23,5.3,40.6,25.1,46.7,47.4c48,165.1,96.1,330,144,495.1
			c-28.4,0.2-56.7,0-85.1,0.1c-13.2-45.6-26.2-91.2-39.5-136.8c-54.7,0-109.4-0.1-164.1,0c-13.1,45.6-26.6,91.1-39.6,136.7
			c-28.2,0-56.3,0-84.4,0c45.6-158.4,91.7-316.7,137.6-475.1C1384.3,72.5,1386.1,56.7,1395.4,44.4 M1388.5,347.5
			c39.7,0.1,79.3,0,118.9,0c-19.7-68.7-39.8-137.2-59.4-205.9C1428.2,210.3,1408.2,278.9,1388.5,347.5z"/>
		<path class="st1" d="M992,18.3c102.5,0,205,0,307.4,0c0,27.7,0,55.3,0,82.9c-37.8,0-75.5,0-113.2,0c0,153.5,0,307,0,460.5
			c-27,0-54.1,0-81.1,0c0-153.5,0-307,0-460.5c-37.7-0.1-75.5,0-113.2,0C992,73.6,991.9,46,992,18.3z"/>
		<path class="st1" d="M1744.6,21.7c7.8-2.7,16.1-3.6,24.3-3.4c32.3,0.1,64.6,0,96.9,0c54.4,1,106.4,34.8,129.9,83.7
			c16.3,31.8,18,68.8,13.9,103.7c-2.8,36.5-18.2,73.1-46.2,97.3c-14.8,13.2-33.3,21.2-49.2,33c-8.7,6.6-9.2,19.5-4.6,28.8
			c42.9,66.2,87.5,131.4,131.3,197c-32,0.1-64-0.1-96.1,0.1c-41.9-63-83.4-126.3-125.2-189.3c-12.3-18-15.6-41.7-8.3-62.2
			c5.7-15.7,19.5-27.2,34.8-33.1c29.2-11.1,58-28.6,74.1-56.2c12.3-20.7,11.7-46.2,6.1-68.9c-6.5-29.4-35.1-52.6-65.4-51.5
			c-21,0.1-41.9-0.1-62.8,0.1c-9.5-0.2-18.4,8-18.3,17.6c-0.1,147.8,0,295.7,0,443.5c-27.2-0.1-54.4,0-81.7,0
			c-0.1-159.2,0.1-318.3-0.1-477.5C1698.4,56.4,1718.2,30.2,1744.6,21.7z"/>
		<path class="st1" d="M2083.7,18.3c28.6,0,57.3,0,85.9,0c0,181.2,0.1,362.3-0.1,543.5c-28.6-0.1-57.3,0-85.9,0
			C2083.7,380.6,2083.7,199.5,2083.7,18.3z"/>
	</g>
	<g>
		<path class="st1" d="M483.4,17.8H60.1C27,17.8,0,44.8,0,77.9v423.3c0,33.1,27,60.1,60.1,60.1h423.2c33.1,0,60.1-27.1,60.1-60.1
			V77.9C543.5,44.9,516.4,17.8,483.4,17.8z"/>
		<g>
			<path class="st2" d="M209.4,120.6c8.9,0,17.9,0,26.8,0c0,21,0,42.1,0,63.1c0.1,17.6-0.4,35.1-1.1,52.6c-1.2,25.3-2.8,50.7-7,75.7
				c-2.9,17.3-8.8,33.9-16.3,49.7c-12.1,25.5-31.1,47-52.4,65.1c-19.1,16.8-41.9,29-65.8,37.3c-13.6,4.7-27.5,8.3-41.7,10.3
				c0-17.6,0-35.3,0-52.9c17.1-2.6,33.5-8.6,48.8-16.7c18.1-9.6,34.4-22.5,48.2-37.7c14.2-15.7,25.5-33.8,34.1-53.1
				c10.1-22.2,15.5-46.1,19.2-70.1c4.6-30.5,6.5-61.3,7.2-92.1C209.5,141.5,209.4,131,209.4,120.6z"/>
			<path class="st2" d="M247,120.6c16.5-0.1,32.9,0,49.4,0c0,118,0,235.9,0,353.9c-16.4,0-32.9-0.1-49.3,0.1
				c-0.2-37.6,0-75.2-0.1-112.8C247,281.3,247.1,201,247,120.6z"/>
			<path class="st2" d="M307.4,120.6c8.9,0,17.8,0,26.7,0c-0.3,36,0.9,72,5.2,107.7c3.5,27.8,8.5,55.7,19.5,81.6
				c10.5,25,25.6,48.3,45.3,67c18.8,17.9,41.6,31.7,66.3,39.6c6.9,2.2,14,3.9,21.1,5c0,17.6,0,35.3,0,52.9
				c-14.1-1.9-27.9-5.5-41.4-10.1c-16-5.6-31.5-12.8-45.8-22.1c-10.4-6.7-19.8-14.7-28.9-23c-15-13.8-28.4-29.5-38.4-47.3
				c-7.9-13.8-13.6-28.8-18.1-44c-4.1-15.3-5.9-31.2-7.5-46.9c-3.1-34-4.3-68.2-4-102.4C307.4,159.2,307.4,139.9,307.4,120.6z"/>
		</g>
	</g>
	<g>
		<path class="st0" d="M2969.7,0c-158.1,0-286.7,128.6-286.7,286.7c0,158.1,128.6,286.7,286.7,286.7
			c158.1,0,286.7-128.6,286.7-286.7C3256.4,128.6,3127.8,0,2969.7,0z M2969.7,538.4c-138.8,0-251.7-112.9-251.7-251.7
			c0-138.8,112.9-251.7,251.7-251.7c138.8,0,251.7,112.9,251.7,251.7C3221.5,425.5,3108.5,538.4,2969.7,538.4z"/>
		<path class="st0" d="M2969.7,101.6c-102,0-185.1,83-185.1,185.1c0,102,83,185.1,185.1,185.1c102,0,185.1-83,185.1-185.1
			C3154.8,184.6,3071.8,101.6,2969.7,101.6z M2969.7,436.8c-82.8,0-150.1-67.4-150.1-150.1c0-82.8,67.4-150.1,150.1-150.1
			c82.8,0,150.1,67.4,150.1,150.1C3119.9,369.5,3052.5,436.8,2969.7,436.8z"/>
	</g>
	<g>
		<path class="st0" d="M3553.3,0c-158.1,0-286.7,128.6-286.7,286.7c0,158.1,128.6,286.7,286.7,286.7
			c158.1,0,286.7-128.6,286.7-286.7C3840,128.6,3711.4,0,3553.3,0z M3553.3,538.4c-138.8,0-251.7-112.9-251.7-251.7
			c0-138.8,112.9-251.7,251.7-251.7c138.8,0,251.7,112.9,251.7,251.7C3805.1,425.5,3692.1,538.4,3553.3,538.4z"/>
		<path class="st0" d="M3553.3,101.6c-102,0-185.1,83-185.1,185.1c0,102,83,185.1,185.1,185.1c102,0,185.1-83,185.1-185.1
			C3738.4,184.6,3655.4,101.6,3553.3,101.6z M3553.3,436.8c-82.8,0-150.1-67.4-150.1-150.1c0-82.8,67.4-150.1,150.1-150.1
			c82.8,0,150.1,67.4,150.1,150.1C3703.5,369.5,3636.1,436.8,3553.3,436.8z"/>
	</g>
</g>
</svg>
