<?xml version="1.0" encoding="utf-8"?>
<!-- Generator: Adobe Illustrator 25.4.1, SVG Export Plug-In . SVG Version: 6.00 Build 0)  -->
<svg version="1.1" id="Layer_1" xmlns="http://www.w3.org/2000/svg" xmlns:xlink="http://www.w3.org/1999/xlink" x="0px" y="0px"
	 viewBox="0 0 3839 1059.8" style="enable-background:new 0 0 3839 1059.8;" xml:space="preserve">
<style type="text/css">
	.st0{fill:#FFFFFF;}
</style>
<g>
	<g>
		<g>
			<circle cx="36.9" cy="36.9" r="36.9"/>
			<circle cx="36.9" cy="146.5" r="36.9"/>
			<circle cx="36.9" cy="256" r="36.9"/>
			<circle cx="36.9" cy="365.6" r="36.9"/>
			<circle cx="36.9" cy="475.1" r="36.9"/>
		</g>
		<g>
			<circle cx="86.4" cy="91.7" r="36.9"/>
			<circle cx="86.4" cy="310.8" r="36.9"/>
			<circle cx="86.4" cy="420.3" r="36.9"/>
			<circle cx="86.4" cy="529.9" r="36.9"/>
			<circle cx="86.4" cy="968.1" r="36.9"/>
		</g>
		<g>
			<circle cx="136" cy="36.9" r="36.9"/>
			<circle cx="136" cy="365.6" r="36.9"/>
			<circle cx="136" cy="475.1" r="36.9"/>
			<circle cx="136" cy="584.7" r="36.9"/>
		</g>
		<g>
			<circle cx="185.5" cy="201.2" r="36.9"/>
			<circle cx="185.5" cy="420.3" r="36.9"/>
			<circle cx="185.5" cy="529.9" r="36.9"/>
			<circle cx="185.5" cy="639.4" r="36.9"/>
			<circle cx="185.5" cy="968.1" r="36.9"/>
		</g>
		<g>
			<circle cx="235" cy="36.9" r="36.9"/>
			<circle cx="235" cy="146.5" r="36.9"/>
			<circle cx="235" cy="256" r="36.9"/>
			<circle cx="235" cy="475.1" r="36.9"/>
			<circle cx="235" cy="584.7" r="36.9"/>
			<circle cx="235" cy="694.2" r="36.9"/>
		</g>
		<g>
			<circle cx="284.5" cy="201.2" r="36.9"/>
			<circle cx="284.5" cy="420.3" r="36.9"/>
			<circle cx="284.5" cy="529.9" r="36.9"/>
			<circle cx="284.5" cy="639.4" r="36.9"/>
			<circle cx="284.5" cy="749" r="36.9"/>
			<circle cx="284.5" cy="968.1" r="36.9"/>
		</g>
		<g>
			<circle cx="334.1" cy="36.9" r="36.9"/>
			<circle cx="334.1" cy="475.1" r="36.9"/>
			<circle cx="334.1" cy="584.7" r="36.9"/>
			<circle cx="334.1" cy="694.2" r="36.9"/>
			<circle cx="334.1" cy="803.8" r="36.9"/>
			<g>
				<circle cx="334.1" cy="913.3" r="36.9"/>
			</g>
		</g>
		<g>
			<circle cx="383.6" cy="91.7" r="36.9"/>
			<circle cx="383.6" cy="310.8" r="36.9"/>
			<circle cx="383.6" cy="420.3" r="36.9"/>
			<circle cx="383.6" cy="529.9" r="36.9"/>
			<circle cx="383.6" cy="639.4" r="36.9"/>
			<circle cx="383.6" cy="749" r="36.9"/>
			<circle cx="383.6" cy="858.5" r="36.9"/>
			<circle cx="383.6" cy="968.1" r="36.9"/>
		</g>
		<g>
			<circle cx="433.1" cy="36.9" r="36.9"/>
			<circle cx="433.1" cy="146.5" r="36.9"/>
			<circle cx="433.1" cy="365.6" r="36.9"/>
			<circle cx="433.1" cy="475.1" r="36.9"/>
			<circle cx="433.1" cy="584.7" r="36.9"/>
			<circle cx="433.1" cy="694.2" r="36.9"/>
			<circle cx="433.1" cy="803.8" r="36.9"/>
		</g>
		<g>
			<circle cx="482.6" cy="91.7" r="36.9"/>
			<circle cx="482.6" cy="310.8" r="36.9"/>
			<circle cx="482.6" cy="420.3" r="36.9"/>
			<circle cx="482.6" cy="529.9" r="36.9"/>
			<circle cx="482.6" cy="639.4" r="36.9"/>
			<circle cx="482.6" cy="749" r="36.9"/>
			<circle cx="482.6" cy="968.1" r="36.9"/>
		</g>
		<g>
			<circle cx="532.1" cy="36.9" r="36.9"/>
			<circle cx="532.1" cy="694.2" r="36.9"/>
			<circle cx="532.1" cy="803.8" r="36.9"/>
			<g>
				<circle cx="532.1" cy="913.3" r="36.9"/>
			</g>
		</g>
		<g>
			<circle cx="581.7" cy="201.2" r="36.9"/>
			<circle cx="581.7" cy="420.3" r="36.9"/>
			<circle cx="581.7" cy="749" r="36.9"/>
			<circle cx="581.7" cy="858.5" r="36.9"/>
			<circle cx="581.7" cy="968.1" r="36.9"/>
		</g>
		<g>
			<circle cx="631.2" cy="36.9" r="36.9"/>
			<circle cx="631.2" cy="146.5" r="36.9"/>
			<circle cx="631.2" cy="256" r="36.9"/>
			<circle cx="631.2" cy="803.8" r="36.9"/>
		</g>
		<g>
			<circle cx="680.7" cy="201.2" r="36.9"/>
			<circle cx="680.7" cy="420.3" r="36.9"/>
			<circle cx="680.7" cy="858.5" r="36.9"/>
		</g>
		<g>
			<circle cx="730.2" cy="36.9" r="36.9"/>
			<circle cx="730.2" cy="365.6" r="36.9"/>
			<g>
				<circle cx="730.2" cy="913.3" r="36.9"/>
			</g>
		</g>
		<g>
			<circle cx="779.7" cy="91.7" r="36.9"/>
			<circle cx="779.7" cy="310.8" r="36.9"/>
			<circle cx="779.7" cy="968.1" r="36.9"/>
		</g>
		<g>
			<circle cx="829.3" cy="36.9" r="36.9"/>
			<circle cx="829.3" cy="146.5" r="36.9"/>
			<circle cx="829.3" cy="256" r="36.9"/>
			<circle cx="829.3" cy="365.6" r="36.9"/>
			<circle cx="829.3" cy="475.1" r="36.9"/>
			<circle cx="829.3" cy="584.7" r="36.9"/>
			<circle cx="829.3" cy="694.2" r="36.9"/>
			<circle cx="829.3" cy="803.8" r="36.9"/>
			<g>
				<circle cx="829.3" cy="913.3" r="36.9"/>
				<circle cx="829.3" cy="1022.9" r="36.9"/>
			</g>
		</g>
	</g>
	<g>
		<g>
			<path d="M1444.7,238.6c21.3,10.5,37.8,23.7,49.4,39.6c11.7,15.9,19.3,32.8,23,50.7s5.6,34.3,5.6,49c0,18.1-2.7,35-8.1,50.3
				c-5.4,15.3-13.2,29-23.4,40.9c-10.3,12-22.4,21.7-36.7,29.4c-14.2,7.7-29.8,12.7-46.8,14.9c41.4,2.9,73.5,17.9,96.3,45.1
				c22.7,27.3,34.1,63.1,34.1,107.4c0,18.7-3.3,38.1-9.8,58c-6.6,19.9-17.2,38-32,54.1c-14.7,16.1-33.8,29.4-57.1,39.6
				c-23.3,10.3-52,15.3-86.1,15.3h-300v-56.3h86.1V279h-85.2v-56.3h306.7C1395.5,222.9,1423.5,228,1444.7,238.6z M1382.9,482.3
				c16.4-7.1,29.5-16.2,39.2-27.3s16.3-23.4,20-37.1c3.7-13.6,5.6-27,5.6-40c0-12.5-1.4-24.7-4.3-36.7c-2.8-12-8.4-22.4-16.6-31.5
				c-8.3-9.1-19.4-16.4-33.7-22.1c-14.2-5.7-32.7-8.5-55.4-8.5h-124.4V493h107.4C1345.8,492.9,1366.5,489.3,1382.9,482.3z
				 M1394.9,763.5c17.6-8.9,31.4-19.3,41.3-31.5c10-12.3,16.6-24.6,20-37.1c3.4-12.5,5.1-22.7,5.1-30.7c0-16.4-1.9-31.8-5.6-46
				c-3.7-14.1-9.8-26.4-18.3-36.7c-8.5-10.2-19.7-18.3-33.7-24.3s-31.1-9-51.5-9h-138.9v228.3h112.5
				C1354.2,776.7,1377.2,772.3,1394.9,763.5z"/>
			<path d="M2013,238.6c21.3,10.5,37.8,23.7,49.4,39.6c11.7,15.9,19.3,32.8,23,50.7s5.6,34.3,5.6,49c0,18.1-2.7,35-8.1,50.3
				c-5.4,15.3-13.2,29-23.4,40.9c-10.3,12-22.4,21.7-36.7,29.4c-14.2,7.7-29.8,12.7-46.9,14.9c41.4,2.9,73.5,17.9,96.3,45.1
				c22.7,27.3,34.1,63.1,34.1,107.4c0,18.7-3.3,38.1-9.8,58c-6.6,19.9-17.2,38-32,54.1c-14.7,16.1-33.8,29.4-57.1,39.6
				c-23.3,10.3-52,15.3-86.1,15.3h-300v-56.3h86.1V279h-85.2v-56.3h306.7C1963.8,222.9,1991.7,228,2013,238.6z M1951.3,482.3
				c16.4-7.1,29.5-16.2,39.2-27.3s16.3-23.4,20-37.1c3.7-13.6,5.6-27,5.6-40c0-12.5-1.4-24.7-4.3-36.7c-2.8-12-8.4-22.4-16.6-31.5
				c-8.3-9.1-19.4-16.4-33.7-22.1c-14.2-5.7-32.7-8.5-55.4-8.5h-124.3V493h107.4C1914.1,492.9,1934.8,489.3,1951.3,482.3z
				 M1963.2,763.5c17.6-8.9,31.4-19.3,41.3-31.5c10-12.3,16.6-24.6,20-37.1c3.4-12.5,5.1-22.7,5.1-30.7c0-16.4-1.8-31.8-5.6-46
				c-3.7-14.1-9.8-26.4-18.3-36.7c-8.5-10.2-19.7-18.3-33.7-24.3c-13.9-6-31.1-9-51.6-9h-138.8v228.3h112.5
				C1922.6,776.7,1945.6,772.3,1963.2,763.5z"/>
			<path d="M2727.5,222.9v216.5h-66.4c-2.9-49.4-17.9-89.5-45.1-120.1c-27.3-30.7-66.7-46-118.5-46c-65.4,0-114.9,21.6-148.7,64.8
				c-33.8,43.1-50.7,104.2-50.7,183.2c0,84.1,16.4,148.5,49.4,193.4c33,44.9,81.2,67.3,144.8,67.3c48.3,0,86.2-14,113.8-42.1
				c27.5-28.1,42.7-65.5,45.6-112.1h78.4c-1.7,34.7-8.5,65.4-20.4,92.1c-12,26.7-28.3,49.3-49,67.7c-20.7,18.4-45.4,32.4-74.1,41.7
				c-28.7,9.4-60.4,14-95,14c-51.7,0-95.1-9.1-130.4-27.3c-35.3-18.2-63.7-42.1-85.2-72c-21.6-29.8-37.1-63.5-46.4-100.9
				c-9.4-37.5-14-75.8-14-115.1c0-41.4,5.4-81.2,16.2-119.3c10.8-38.1,27.3-71.5,49.4-100.5c22.1-29,50.4-52,84.8-69
				c34.4-17,75.4-25.6,123.1-25.6c44.3,0,81.5,8.5,111.6,25.6c30.1,17,52,41.1,65.7,72.4v-88.7L2727.5,222.9L2727.5,222.9z"/>
		</g>
		<g>
			<g>
				<path d="M2958.1,407.5l57.7-184.9h76.1v19.9h-30.8v176.4h30.8v19.9h-84v-19.9h27.8V242.5h-2.1l-64.4,196.4h-23.5l-64.4-196.4
					h-2.1v176.4h28.1v19.9h-82.2v-19.9h31.1V242.5h-31.1v-19.9h77L2958.1,407.5z"/>
				<path d="M3195.1,242.5h-30.5v176.4h30.5v19.9h-87v-19.9h30.2V242.5h-30.2v-19.9h87V242.5z"/>
				<path d="M3401.1,222.6v76.7h-23.5c-1-17.5-6.4-31.7-16-42.6c-9.7-10.9-23.7-16.2-41.9-16.2c-23.1,0-40.7,7.7-52.7,22.9
					c-12,15.2-17.9,37-17.9,65c0,29.8,5.9,52.7,17.5,68.5c11.7,15.9,28.8,23.9,51.3,23.9c17.1,0,30.6-5,40.3-14.9
					c9.8-10,15.1-23.2,16.1-39.7h27.8c-0.6,12.3-3,23.1-7.3,32.6c-4.2,9.5-10.1,17.4-17.3,24c-7.4,6.6-16.1,11.5-26.3,14.7
					s-21.4,5-33.7,5c-18.3,0-33.8-3.2-46.2-9.7c-12.5-6.5-22.5-14.9-30.2-25.5s-13.2-22.5-16.4-35.8c-3.3-13.2-5-26.9-5-40.7
					c0-14.7,1.9-28.8,5.8-42.2c3.8-13.5,9.7-25.4,17.5-35.7c7.9-10.3,17.8-18.4,30.1-24.4c12.2-6.1,26.7-9.1,43.6-9.1
					c15.7,0,28.9,3.1,39.5,9.1c10.7,6.1,18.4,14.5,23.2,25.7v-31.4L3401.1,222.6L3401.1,222.6z"/>
				<path d="M3548.9,223.9c7.4,0.9,13.7,3,19.1,6.2c7.3,4.3,13.1,10.6,17.6,18.9c4.5,8.4,6.8,18,6.8,28.9c0,16.9-4,30.4-12,40.3
					c-8,10-19.1,15.5-33.7,16.7c8.5,1.6,14.6,3.9,18.4,7c3.8,3,6.7,6.6,8.5,10.6c1.8,3.8,3.3,7.9,4.5,12.3c1.2,4.4,2.5,9.1,3.9,14.3
					c1.4,5.2,3.1,11.2,5,17.6c1.9,6.6,4,13.9,6.2,22.2h23.2v19.9H3572c-0.8-2.6-1.8-5.9-2.9-9.9c-1.1-3.9-2.3-8.2-3.5-12.7
					c-1.2-4.5-2.5-9.2-3.8-13.8c-1.3-4.7-2.7-9.3-4.1-13.7c-0.8-2.4-1.6-5.3-2.4-8.6c-0.8-3.3-1.8-6.8-3-10.4
					c-1.2-3.6-2.7-7.2-4.5-10.6c-1.8-3.4-4.1-6.4-7-8.8c-2.8-2.2-6.2-3.9-10.2-5c-3.9-1.1-9.4-1.7-16.4-1.7h-31.1v75h29.3v19.9
					h-86.4v-19.9h30.8V242.5h-30.8v-19.9h103.3C3535.2,222.6,3541.5,223.1,3548.9,223.9z M3549,317.4c4.2-2.4,7.5-5.5,9.7-9.1
					s3.9-7.2,5-10.8c1.1-3.5,1.8-6.8,2-9.7c0.2-2.9,0.3-5,0.3-6.2c0-5.5-1-11.4-3-17.8c-2-6.5-5.4-11.4-10-14.7
					c-2.8-2.2-6.5-3.9-11.1-5c-4.5-1.1-9.4-1.7-14.6-1.7h-43.8v81h36.6C3532.5,323.5,3542.1,321.5,3549,317.4z"/>
				<path d="M3834,371.2c-3.2,10.9-7.5,20.8-12.7,29.9c-7.9,13.8-18.9,24.2-33.4,31.1c-14.3,6.9-30.2,10.3-47.2,10.3
					c-15.5,0-29.6-2.6-42.1-7.7c-12.6-5.2-23.3-12.5-32.3-21.9c-9-9.5-15.8-20.9-20.7-34.3c-4.9-13.3-7.3-28.3-7.3-44.8
					c0-19.3,2.6-36.2,7.7-50.6c5.2-14.3,12.3-26.3,21.3-35.8c9.1-9.5,19.8-16.5,32.2-21.1c12.4-4.6,25.8-7,40.3-7
					c20.1,0,36.9,4.1,50.3,12.1c13.3,8.1,24.3,18.6,32.8,31.7c5.7,8.9,9.8,19.2,12.3,31.1c2.5,11.9,3.8,24.8,3.8,38.7
					C3838.9,347.6,3837.3,360.3,3834,371.2z M3769.5,416.5c8.7-4.2,16-10.4,22-18.2s10.8-17.5,14-28.8c3.3-11.3,5-24,5-38.4
					c0-14.1-1.6-26.8-4.9-38.3c-3.2-11.4-7.9-21.1-13.8-29.2c-6.1-8.1-13.5-14.2-22.5-18.4c-9-4.3-19.1-6.4-30.7-6.4
					c-12.1,0-22.6,2.4-31.6,7.1s-16.4,11.4-22.3,19.8c-6,8.5-10.3,18.3-13.1,29.7c-2.8,11.4-4.2,23.7-4.2,37
					c0,17.1,1.9,30.9,5.6,41.3c3.7,10.5,8.7,19.2,14.9,26.3c7.1,8.1,15.2,13.8,24.5,17.3s18.6,5.3,28.1,5.3
					C3751.1,422.9,3760.8,420.7,3769.5,416.5z"/>
			</g>
			<g>
				<path d="M2932,486.2v45.1h-13.8c-0.6-10.3-3.7-18.6-9.5-25.1c-5.7-6.4-13.9-9.6-24.7-9.6c-13.6,0-24,4.5-31,13.5
					c-7.1,9-10.6,21.7-10.6,38.3c0,17.5,3.5,31,10.3,40.3c6.9,9.4,16.9,14,30.2,14c10.1,0,18-2.9,23.7-8.8
					c5.8-5.9,8.9-13.6,9.5-23.4h16.3c-0.4,7.2-1.8,13.6-4.3,19.2c-2.5,5.6-5.9,10.3-10.3,14.1c-4.3,3.9-9.5,6.8-15.4,8.7
					c-6,2-12.6,2.9-19.8,2.9c-10.8,0-19.8-1.9-27.2-5.7c-7.4-3.8-13.2-8.8-17.7-15c-4.5-6.2-7.8-13.2-9.7-21c-2-7.9-2.9-15.8-2.9-24
					c0-8.7,1.1-16.9,3.4-24.9c2.3-8,5.7-14.9,10.3-21c4.6-6.1,10.6-10.9,17.7-14.3c7.2-3.6,15.7-5.4,25.7-5.4c9.3,0,17,1.8,23.3,5.4
					c6.3,3.6,10.9,8.6,13.6,15.1v-18.5L2932,486.2L2932,486.2z"/>
				<path d="M3068.3,573.6c-1.9,6.4-4.4,12.3-7.5,17.6c-4.6,8.2-11.2,14.2-19.6,18.3c-8.5,4-17.7,6.1-27.8,6.1
					c-9.2,0-17.4-1.5-24.8-4.5s-13.7-7.4-19-12.9c-5.3-5.6-9.4-12.3-12.2-20.1c-2.9-7.9-4.3-16.6-4.3-26.4c0-11.4,1.5-21.3,4.5-29.8
					s7.2-15.5,12.6-21c5.4-5.6,11.7-9.8,18.9-12.5c7.3-2.7,15.2-4.1,23.7-4.1c11.9,0,21.7,2.4,29.6,7.1c7.9,4.8,14.3,11,19.3,18.6
					c3.3,5.2,5.7,11.4,7.2,18.3c1.5,7,2.2,14.5,2.2,22.7C3071.2,559.8,3070.2,567.2,3068.3,573.6z M3030.3,600.3
					c5.1-2.5,9.5-6.1,13-10.8c3.6-4.7,6.3-10.4,8.3-16.9c2-6.7,2.9-14.1,2.9-22.6c0-8.3-1-15.8-2.9-22.5c-1.9-6.7-4.6-12.5-8.2-17.1
					c-3.6-4.8-8-8.4-13.2-10.9c-5.3-2.5-11.3-3.8-18-3.8c-7.1,0-13.3,1.4-18.6,4.2c-5.3,2.8-9.7,6.7-13.2,11.7s-6.1,10.8-7.8,17.5
					c-1.7,6.8-2.5,13.9-2.5,21.8c0,10.1,1.1,18.2,3.3,24.3c2.2,6.2,5.1,11.4,8.8,15.4c4.2,4.8,9,8.2,14.4,10.3
					c5.5,2.1,11,3.1,16.5,3.1C3019.5,604.1,3025.2,602.8,3030.3,600.3z"/>
				<path d="M3164.9,595l34-108.8h44.8V498h-18.1v103.8h18.1v11.8h-49.4v-11.8h16.3V497.9h-1.2l-37.9,115.6h-13.8l-37.9-115.6h-1.2
					v103.8h16.5v11.8h-48.3v-11.8h18.3V497.9h-18.3v-11.8h45.3L3164.9,595z"/>
				<path d="M3332.8,489.7c4.8,2.4,8.6,5.4,11.3,9.2c2.7,3.8,4.6,7.9,5.6,12.4c1,4.5,1.5,8.9,1.5,13.2c0,7-1.2,12.8-3.5,17.4
					c-2.3,4.7-5.5,8.8-9.6,12.5c-2.5,2.2-5.7,4-9.6,5.2c-3.9,1.2-8.1,1.8-12.6,1.8h-28.5v40.5h21.3v11.8h-54.9v-11.8h18.1V497.9
					h-18.1v-11.8h59.9C3321.8,486.2,3328,487.3,3332.8,489.7z M3322.6,547.4c3.1-1.4,5.7-3.2,7.6-5.5c1.9-2.3,3.3-5,4.1-8.1
					s1.2-6.4,1.2-9.8c0-3-0.3-6-0.9-9.1c-0.6-3.1-1.9-5.9-3.8-8.5c-2-2.6-4.7-4.6-8.3-6.3c-3.6-1.6-8.3-2.4-14-2.4h-20.6v51.5h23.3
					C3315.6,549.5,3319.4,548.8,3322.6,547.4z"/>
				<path d="M3410.4,497.9h-19V567c0,5,0.5,9.7,1.6,13.9c1.1,4.3,2.8,8.1,5.3,11.4c2.4,3.3,5.6,5.8,9.6,7.7
					c3.9,1.8,8.7,2.8,14.2,2.8c4.2,0,8.3-0.8,12.5-2.5c4.2-1.7,7.5-3.9,10-6.6c1.8-2,3.2-4.1,4.4-6.2c1.1-2.1,2.1-4.5,2.8-7.1
					c0.7-2.6,1.2-5.5,1.5-8.8c0.3-3.2,0.4-6.9,0.4-11V498h-18.6v-11.8h48.2V498h-15.8v70.2c0,4.9-0.4,9.2-1.2,12.9
					c-0.8,3.8-2,7.1-3.5,10.2c-1.5,3-3.3,5.8-5.4,8.2s-4.4,4.8-6.9,7c-1.9,1.7-4.1,3.1-6.7,4.2c-2.6,1.1-5.2,2.1-7.9,2.8
					c-2.7,0.7-5.3,1.2-7.9,1.6c-2.6,0.4-4.9,0.5-6.8,0.5c-4.2,0-8.4-0.5-12.8-1.5c-4.4-1-8.4-2.7-12-4.9c-3.9-2.4-7.2-4.9-9.8-7.7
					c-2.6-2.7-4.7-5.8-6.3-9.2c-1.6-3.4-2.8-7.2-3.5-11.5c-0.7-4.3-1.1-9.2-1.1-14.5V498h-15.6v-11.8h50.3L3410.4,497.9
					L3410.4,497.9z"/>
				<path d="M3595.8,526.9h-14.2v-27.2h-29.5v102h19.7v11.8H3517v-11.8h19.5v-102h-29.7v27.2h-14.2v-40.7h103.2V526.9z"/>
				<path d="M3711.3,524.2h-13.8v-26.3h-54.2v45h26.3v-19.4h12.8v50.1h-12.8v-19h-26.3v47.1h54.2v-27.9h13.8v39.6h-101.7v-11.8h18.1
					V497.9h-18.1v-11.8h101.7V524.2z"/>
				<path d="M3799,487.1c4.3,0.5,8.1,1.8,11.3,3.6c4.3,2.5,7.8,6.2,10.4,11.2c2.7,4.9,4,10.6,4,17c0,10-2.4,17.8-7,23.7
					c-4.7,5.9-11.3,9.2-19.8,9.9c5,0.9,8.6,2.3,10.9,4.1c2.3,1.8,3.9,3.9,5,6.2s2,4.7,2.7,7.2c0.7,2.6,1.5,5.4,2.3,8.5
					c0.8,3.1,1.8,6.6,2.9,10.4c1.1,3.9,2.3,8.2,3.7,13.1h13.6v11.8h-26.1c-0.5-1.6-1-3.5-1.7-5.8c-0.7-2.3-1.3-4.8-2-7.5
					c-0.7-2.7-1.5-5.4-2.2-8.2c-0.8-2.8-1.6-5.5-2.4-8.1c-0.5-1.4-1-3.1-1.4-5.1c-0.5-2-1.1-4-1.8-6.1s-1.6-4.2-2.7-6.3
					c-1.1-2-2.4-3.7-4.1-5.2c-1.7-1.3-3.7-2.3-6-2.9c-2.3-0.7-5.6-1-9.7-1h-18.3v44.2h17.2v11.8h-50.8v-11.8h18.1V497.9h-18.1v-11.8
					h60.8C3790.9,486.2,3794.7,486.5,3799,487.1z M3799.1,542c2.5-1.4,4.4-3.2,5.7-5.4c1.3-2.1,2.3-4.3,2.9-6.3c0.7-2.1,1-4,1.2-5.7
					c0.2-1.7,0.2-2.9,0.2-3.7c0-3.2-0.6-6.7-1.8-10.5c-1.2-3.8-3.1-6.7-5.9-8.7c-1.7-1.3-3.8-2.3-6.5-2.9c-2.7-0.7-5.6-1-8.7-1
					h-25.8v47.6h21.5C3789.4,545.5,3795.1,544.4,3799.1,542z"/>
			</g>
			<g>
				<path d="M2940.1,660.8v59.6h-19.6c-0.3-15.9-3.7-27.6-10-34.9c-6.3-7.3-16-11-29.3-11c-9.7,0-17.5,2.8-23.5,8.6
					c-6.1,5.7-9.1,13-9.1,21.8c0,12.6,7,21.5,20.9,26.8c6.6,2.6,13.2,5.1,20,7.7c6.7,2.6,14.6,5.6,23.8,9.2c3.9,1.5,7.7,3.5,11.4,6
					c3.7,2.5,6.9,5.6,9.9,9.3c2.9,3.8,5.2,8.1,7,13.1c1.8,4.9,2.7,10.7,2.7,17c0,9-1.6,16.7-4.7,23.3c-3.1,6.6-7.3,12-12.4,16.3
					c-5.1,4.4-11,7.6-17.4,9.7c-6.6,2.1-13.2,3.2-20,3.2c-11.6,0-21.1-2.3-28.8-6.9c-7.7-4.6-13-11.1-16-19.3v23.2h-19.3v-61.9h19.3
					c0,0.5,0,1.2,0.1,2c0.1,0.8,0.1,1.5,0.1,2c1.4,13.7,5.4,24.4,12.2,32c6.7,7.6,17,11.4,31,11.4c10.2,0,18.2-3,24.1-9.1
					c5.9-6,8.8-13.8,8.8-23.6c0-4.9-0.7-9-2-12.3c-1.3-3.3-3.4-6.1-6.1-8.7c-2.7-2.6-7.2-5.2-13.3-7.9c-6.2-2.7-14.3-6-24.3-9.7
					c-9.9-3.7-18.1-7.2-24.7-10.5c-6.6-3.3-11.7-6.8-15-10.7c-6.8-7.3-10.2-17-10.2-29.1c0-9,1.3-16.2,3.8-21.6
					c2.6-5.5,6.3-10.4,11.3-14.8c4.9-4.4,10.4-7.7,16.4-10c6-2.2,13.6-3.3,22.8-3.3c8.4,0,16.1,1.5,23.4,4.4
					c7.3,2.9,13.1,8.2,17.5,15.8v-17.3L2940.1,660.8L2940.1,660.8z"/>
				<path d="M3022.9,677.5h-25.2l43.3,71.3l43-71.3h-23.9v-16.8h62.2v16.8h-14.2l-57.3,91v57.8h28.3v16.8h-78.7v-16.7h28.3v-57.8
					l-56.3-91h-14v-16.8h64.8v16.7H3022.9z"/>
				<path d="M3251.5,660.8v59.6h-19.6c-0.3-15.9-3.7-27.6-10-34.9c-6.3-7.3-16-11-29.3-11c-9.7,0-17.5,2.8-23.5,8.6
					c-6.1,5.7-9.1,13-9.1,21.8c0,12.6,7,21.5,20.9,26.8c6.6,2.6,13.2,5.1,20,7.7c6.7,2.6,14.6,5.6,23.8,9.2c3.9,1.5,7.7,3.5,11.4,6
					c3.7,2.5,6.9,5.6,9.9,9.3c2.9,3.8,5.2,8.1,7,13.1c1.8,4.9,2.7,10.7,2.7,17c0,9-1.6,16.7-4.7,23.3c-3.1,6.6-7.3,12-12.4,16.3
					c-5.1,4.4-11,7.6-17.4,9.7c-6.6,2.1-13.2,3.2-20,3.2c-11.6,0-21.1-2.3-28.8-6.9c-7.7-4.6-13-11.1-16-19.3v23.2h-19.3v-61.9h19.3
					c0,0.5,0,1.2,0.1,2c0.1,0.8,0.1,1.5,0.1,2c1.4,13.7,5.4,24.4,12.2,32c6.7,7.6,17,11.4,31,11.4c10.2,0,18.2-3,24.1-9.1
					c5.9-6,8.8-13.8,8.8-23.6c0-4.9-0.7-9-2-12.3c-1.4-3.2-3.4-6.1-6.1-8.7c-2.7-2.6-7.2-5.2-13.3-7.9c-6.2-2.7-14.3-6-24.3-9.7
					c-9.9-3.7-18.1-7.2-24.7-10.5c-6.6-3.3-11.7-6.8-15-10.7c-6.8-7.3-10.2-17-10.2-29.1c0-9,1.3-16.2,3.8-21.6
					c2.6-5.5,6.3-10.4,11.3-14.8c4.9-4.4,10.4-7.7,16.4-10c6-2.2,13.6-3.3,22.8-3.3c8.4,0,16.1,1.5,23.4,4.4
					c7.3,2.9,13.2,8.2,17.5,15.8v-17.3L3251.5,660.8L3251.5,660.8z"/>
				<path d="M3424,719.1h-20.4v-39h-42.3v146.2h28.3v16.8H3311v-16.8h28V680.1h-42.5v39H3276v-58.4h147.7v58.4H3424z"/>
				<path d="M3589.5,715.3h-19.8v-37.7H3492v64.5h37.7v-27.8h18.3v71.8h-18.3v-27.3H3492v67.5h77.7v-40h19.8v56.8h-145.7v-16.7h26
					V677.5h-26v-16.8h145.7V715.3z"/>
				<path d="M3726,816.7l48.6-155.9h64.2v16.8h-26v148.7h26v16.8H3768v-16.8h23.4V677.5h-1.8l-54.3,165.6h-19.8l-54.3-165.6h-1.8
					v148.8h23.7v16.8h-69.3v-16.8h26.2V677.5h-26.2v-16.8h65L3726,816.7z"/>
			</g>
		</g>
	</g>
</g>
</svg>
