<?xml version="1.0" encoding="utf-8"?>
<!-- Generator: Adobe Illustrator 25.2.3, SVG Export Plug-In . SVG Version: 6.00 Build 0)  -->
<svg version="1.1" id="Layer_1" xmlns="http://www.w3.org/2000/svg" xmlns:xlink="http://www.w3.org/1999/xlink" x="0px" y="0px"
	 viewBox="0 0 3839.01 489.89" style="enable-background:new 0 0 3839.01 489.89;" xml:space="preserve">
<style type="text/css">
	.st0{fill:#FF681D;}
	.st1{fill:#FF0000;}
	.st2{fill:url(#SVGID_1_);}
	.st3{fill:url(#SVGID_2_);}
	.st4{fill:#00CFFF;}
	.st5{fill:#004CC6;}
	.st6{fill:url(#SVGID_3_);}
	.st7{fill:url(#SVGID_4_);}
	.st8{fill:#D8D8D8;}
	.st9{fill:url(#SVGID_5_);}
	.st10{fill:url(#SVGID_6_);}
	.st11{fill:url(#SVGID_7_);}
	.st12{fill:#FFFFFF;}
	.st13{fill:url(#SVGID_8_);}
	.st14{fill:url(#SVGID_9_);}
	.st15{fill:url(#SVGID_10_);}
	.st16{fill:url(#SVGID_11_);}
	.st17{fill:url(#SVGID_12_);}
	.st18{fill:url(#SVGID_13_);}
	.st19{fill:url(#SVGID_14_);}
	.st20{fill:#666666;}
	.st21{fill:#999999;}
</style>
<g>
	<g>
		<path class="st4" d="M2277.6,8.52h-13.8h-155.89l-56.18,122.74h59.93c12.76,0,23.1,10.34,23.1,23.1v335.52h378.65
			c54.41,0,98.51-44.11,98.51-98.51V107.03c0-54.41-44.11-98.51-98.51-98.51L2277.6,8.52L2277.6,8.52z M2459.77,367.15H2263.8
			V131.27h13.8h182.17c12.76,0,23.1,10.34,23.1,23.1v189.68C2482.87,356.8,2472.53,367.15,2459.77,367.15z"/>
		<path class="st4" d="M2974.67,8.52h-164.4h-97.77l-56.18,122.74h48.12c16.44,0,27.61,16.71,21.33,31.9L2590.6,489.88h139.65
			l31.66-76.53h240.61l31.66,76.53h139.65L2974.67,8.52z M2812.7,290.62l64.69-156.37c1.78-4.29,7.85-4.29,9.63,0l59.55,143.88
			c2.46,5.95-1.91,12.5-8.35,12.5L2812.7,290.62L2812.7,290.62z"/>
		<path class="st4" d="M1929.12,8.52h-164.4h-97.77l-56.18,122.74h48.12c16.44,0,27.61,16.71,21.33,31.9l-135.17,326.72h139.65
			l31.66-76.53h240.61l31.66,76.53h139.65L1929.12,8.52z M1767.14,290.62l64.69-156.37c1.78-4.29,7.85-4.29,9.63,0l59.55,143.88
			c2.46,5.95-1.91,12.5-8.35,12.5L1767.14,290.62L1767.14,290.62z"/>
		<path class="st4" d="M3590.46,7.72l-87.84,277.62v0.8L3414.78,8.52h-268.51l-56.18,122.74h65.73c12.76,0,23.1,10.34,23.1,23.1
			v335.52h129.05V137.05c0-6.77,9.53-8.24,11.57-1.79l112.21,354.62l141.76-0.8l112.21-354.62c2.04-6.46,11.57-4.98,11.57,1.79
			v352.83h129.05V7.71L3590.46,7.72L3590.46,7.72z"/>
	</g>
	<g>
		<path class="st5" d="M2290.27,0.81h-13.8h-155.89l-56.18,122.74h59.93c12.76,0,23.1,10.34,23.1,23.1v335.52h378.65
			c54.41,0,98.51-44.11,98.51-98.51V99.32c0-54.41-44.11-98.51-98.51-98.51L2290.27,0.81L2290.27,0.81z M2472.44,359.43h-195.97
			V123.55h13.8h182.17c12.76,0,23.1,10.34,23.1,23.1v189.68C2495.54,349.09,2485.2,359.43,2472.44,359.43z"/>
		<path class="st5" d="M2987.34,0.81h-164.4h-97.77l-56.18,122.74h48.12c16.44,0,27.61,16.71,21.33,31.9l-135.17,326.72h139.65
			l31.66-76.53h240.61l31.66,76.53h139.65L2987.34,0.81z M2825.37,282.91l64.69-156.37c1.78-4.29,7.85-4.29,9.63,0l59.55,143.88
			c2.46,5.95-1.91,12.5-8.35,12.5L2825.37,282.91L2825.37,282.91z"/>
		<path class="st5" d="M1941.79,0.81h-164.4h-97.77l-56.18,122.74h48.12c16.44,0,27.61,16.71,21.33,31.9l-135.17,326.72h139.65
			l31.66-76.53h240.61l31.66,76.53h139.65L1941.79,0.81z M1779.81,282.91l64.69-156.37c1.78-4.29,7.85-4.29,9.63,0l59.55,143.88
			c2.46,5.95-1.91,12.5-8.35,12.5L1779.81,282.91L1779.81,282.91z"/>
		<path class="st5" d="M3603.13,0.01l-87.84,277.62v0.8L3427.45,0.81h-268.51l-56.18,122.74h65.73c12.76,0,23.1,10.34,23.1,23.1
			v335.52h129.05V129.34c0-6.77,9.53-8.24,11.57-1.79l112.21,354.62l141.76-0.8l112.21-354.62c2.04-6.46,11.57-4.98,11.57,1.79
			v352.83h129.05V0L3603.13,0.01L3603.13,0.01z"/>
	</g>
	<g>
		<path class="st8" d="M425.58,489.34c-16.34,0-29.64-13.3-29.64-29.64V230.68c0-5.34,4.33-9.67,9.67-9.67h106.4
			c5.34,0,9.67,4.33,9.67,9.67v248.98c0,5.34-4.33,9.67-9.67,9.67h-86.43V489.34z"/>
		<path class="st8" d="M756.08,489.34c-16.34,0-29.64-13.3-29.64-29.64V230.68c0-5.34,4.33-9.67,9.67-9.67h106.08
			c5.34,0,9.67,4.33,9.67,9.67v248.98c0,5.34-4.33,9.67-9.67,9.67h-86.11V489.34z"/>
		<path class="st8" d="M479.44,489.34c-5.34,0-9.67-4.33-9.67-9.67V382.4c0-5.34,4.33-9.67,9.67-9.67h6.12
			c-10.18-15.13-15.8-33.07-15.8-51.52v-7.88c0-50.9,41.38-92.28,92.28-92.28h200.04c5.34,0,9.67,4.33,9.67,9.67v97.27
			c0,5.23-4.13,9.44-9.28,9.67c10.18,15.13,15.79,33.07,15.79,51.52v7.88c0,50.9-41.38,92.28-92.28,92.28H479.44z"/>
		<path class="st8" d="M325.82,270.19c-50.47,0-91.5-41.03-91.5-91.5V92.3c0-50.47,41.03-91.5,91.5-91.5l152.65,0.16
			c50.39,0.04,91.38,41.11,91.38,91.5v86.23c0,50.47-41.03,91.5-91.5,91.5H325.82z M444.42,152.76v-35.37h-84.67v35.37H444.42
			L444.42,152.76z"/>
		<path class="st8" d="M1253.62,270.7c-50.47,0-91.5-41.03-91.5-91.5V92.77c0-50.47,41.03-91.5,91.5-91.5l152.65,0.16
			c50.39,0.08,91.38,41.11,91.38,91.5v86.23c0,50.47-41.03,91.5-91.5,91.5h-152.53V270.7z M1372.22,153.23v-35.37h-84.67v35.37
			H1372.22z"/>
		<path class="st8" d="M891.53,489.89c-50.47,0-91.5-41.03-91.5-91.5V312c0-50.47,41.03-91.5,91.5-91.5l152.65,0.16
			c50.39,0.04,91.38,41.11,91.38,91.5v86.23c0,50.47-41.03,91.5-91.5,91.5H891.53z M1010.13,372.42v-35.37h-84.67v35.37H1010.13z"/>
		<path class="st8" d="M91.5,270.7C41.03,270.7,0,229.63,0,179.2V92.77c0-50.43,41.03-91.5,91.5-91.5l168.95,0.08
			c16.34,0,29.6,13.3,29.6,29.64v77.18c0,5.34-4.33,9.67-9.67,9.67H125.43v35.37h154.95c5.34,0,9.67,4.33,9.67,9.67l19.03,98.13
			c0,5.34-4.33,9.67-9.67,9.67H91.5V270.7z"/>
		<path class="st8" d="M1019.34,270.7c-50.47,0-91.5-41.03-91.5-91.5V92.77c0-50.47,41.03-91.5,91.5-91.5l168.95,0.08
			c16.34,0,29.6,13.3,29.6,29.64v77.18c0,5.34-4.33,9.67-9.67,9.67h-154.95v35.37h154.95c5.34,0,9.67,4.33,9.67,9.67v98.13
			c0,5.34-4.33,9.67-9.67,9.67h-188.88V270.7z"/>
		<path class="st8" d="M605.53,270.31c-50.47,0-91.5-41.03-91.5-91.5V11.18c0-5.34,4.33-9.67,9.67-9.67h86.15
			c16.34,0,29.64,13.3,29.64,29.64v121.72h100.35c5.34,0,9.67,4.33,9.67,9.67v98.13c0,5.34-4.33,9.67-9.67,9.67H605.52v-0.03H605.53
			z"/>
		<path class="st8" d="M785.14,270.7c-50.47,0-91.5-41.03-91.5-91.5V10.91c0-2.57,1.01-5.03,2.85-6.83
			c1.79-1.79,4.29-2.85,6.83-2.85L954.1,1.39c16.34,0,29.6,13.3,29.6,29.64v77.18c0,5.34-4.33,9.67-9.67,9.67h-4.45v35.37h4.45
			c5.34,0,9.67,4.33,9.67,9.67v98.13c0,5.34-4.33,9.67-9.67,9.67H785.15L785.14,270.7L785.14,270.7z"/>
		<path class="st8" d="M1323.04,488.64c-16.15-0.19-29.29-13.46-29.29-29.64V337.04h-84.67v142.63c0,5.34-4.33,9.67-9.67,9.67
			h-86.15c-16.34,0-29.64-13.3-29.64-29.64V230.18c0-5.34,4.33-9.67,9.67-9.67h104.06c0.23,0,0.47,0,0.66,0.04l129.76,0.12
			c50.39,0.04,91.38,41.11,91.38,91.5v167.82c0,2.57-1.05,5.07-2.89,6.86c-1.79,1.79-4.25,2.81-6.79,2.81
			C1409.47,489.62,1323.04,488.64,1323.04,488.64z"/>
		<path class="st8" d="M213.02,489.34c-3.47,0-6.63-1.83-8.38-4.84L60.88,235.52c-1.72-3-1.72-6.67,0-9.67s4.91-4.84,8.39-4.84
			h122.5c3.47,0,6.63,1.83,8.39,4.84l62.17,107.68l62.17-107.68c1.72-3,4.91-4.84,8.39-4.84h122.5c3.47,0,6.63,1.83,8.39,4.84
			c1.72,3,1.72,6.67,0,9.67L320.02,484.5c-1.72,3-4.92,4.84-8.39,4.84H213.02z"/>
	</g>
	<g>
		<g>
			<path d="M405.61,459.74V230.68h106.4v248.98h-86.47C414.54,479.67,405.61,470.74,405.61,459.74z"/>
			<path d="M736.15,459.74V230.68h106.08v248.98h-86.15C745.08,479.67,736.15,470.74,736.15,459.74z"/>
			<path d="M479.44,479.67V382.4h27.18c-16.69-15.13-27.18-36.97-27.18-61.19v-7.88c0-45.55,37.05-82.6,82.6-82.6h200.04V328h-20.67
				c16.69,15.13,27.18,36.97,27.18,61.19v7.88c0,45.55-37.05,82.6-82.61,82.6H479.44z"/>
			<path d="M325.82,260.52c-45.12,0-81.82-36.7-81.82-81.82V92.31c0-45.12,36.7-81.82,81.82-81.82l152.65,0.16
				c45.09,0.04,81.75,36.74,81.75,81.83v86.23c0,45.12-36.7,81.82-81.83,81.82H325.82V260.52z"/>
			<path d="M1253.62,261.03c-45.12,0-81.83-36.7-81.83-81.83V92.77c0-45.12,36.7-81.83,81.83-81.83l152.65,0.16
				c45.09,0.04,81.75,36.74,81.75,81.82v86.23c0,45.12-36.7,81.83-81.83,81.83h-152.57V261.03z"/>
			<path d="M891.53,480.22c-45.12,0-81.83-36.7-81.83-81.82v-86.39c0-45.12,36.7-81.82,81.83-81.82l152.65,0.16
				c45.08,0.04,81.75,36.74,81.75,81.83v86.23c0,45.12-36.7,81.83-81.83,81.83L891.53,480.22L891.53,480.22z"/>
			<path d="M91.5,261.03c-45.2,0-81.83-36.62-81.83-81.83V92.77c0-45.09,36.7-81.83,81.83-81.83l168.95,0.08
				c11,0,19.93,8.93,19.93,19.97l53.28,230.03H91.5V261.03z"/>
			<path d="M1019.34,261.03c-45.2,0-81.83-36.62-81.83-81.83V92.77c0-45.12,36.7-81.83,81.83-81.83l168.95,0.08
				c11,0,19.93,8.93,19.93,19.97v131.9v98.13h-188.88V261.03z"/>
			<path d="M605.53,260.64c-45.2,0-81.82-36.62-81.82-81.82V11.19h86.15c11.04,0,19.97,8.93,19.97,19.97v131.36h110.02v98.13H605.53
				V260.64z"/>
			<path d="M785.14,261.03c-45.2,0-81.82-36.62-81.82-81.83V10.91l250.78,0.16c11,0,19.93,8.93,19.93,19.97v77.18h-14.12v54.72
				h14.12v98.13H785.15L785.14,261.03L785.14,261.03z"/>
			<path d="M1303.43,459V327.37h-104.02v152.3h-86.15c-11.04,0-19.97-8.93-19.97-19.97V230.18h104.06v0.04l130.42,0.12
				c45.16,0.04,81.75,36.66,81.75,81.83v167.82l-86.39-0.98C1312.2,478.85,1303.43,469.96,1303.43,459z"/>
			<polygon points="213.02,479.67 69.26,230.69 191.77,230.69 262.32,352.88 332.88,230.69 455.38,230.69 311.62,479.67 			"/>
		</g>
		<rect x="532.06" y="224.33" width="17.9" height="17.9"/>
	</g>
	<g>
		<g>
			
				<linearGradient id="SVGID_1_" gradientUnits="userSpaceOnUse" x1="33.1494" y1="16796.623" x2="1464.5088" y2="16796.623" gradientTransform="matrix(1 0 0 1 0 -16551.2773)">
				<stop  offset="0" style="stop-color:#D81526"/>
				<stop  offset="0.25" style="stop-color:#DE551E"/>
				<stop  offset="0.5" style="stop-color:#EEB824"/>
				<stop  offset="0.75" style="stop-color:#75B230"/>
				<stop  offset="1" style="stop-color:#49A070"/>
			</linearGradient>
			<path class="st2" d="M325.82,237.04h152.54c32.21,0,58.35-26.13,58.35-58.35V92.46c0-32.22-26.09-58.31-58.27-58.35l-152.57-0.16
				c-32.25-0.04-58.42,26.09-58.42,58.35v86.39C267.47,210.91,293.6,237.04,325.82,237.04z M326.6,106.86
				c0-12.48,10.14-22.62,22.62-22.62h105.69c12.48,0,22.62,10.14,22.62,22.62v56.4c0,12.48-10.14,22.62-22.62,22.62H349.22
				c-12.48,0-22.62-10.14-22.62-22.62V106.86z M1406.23,34.59l-152.53-0.16c-32.25-0.04-58.42,26.09-58.42,58.35v86.39
				c0,32.22,26.13,58.35,58.35,58.35h152.53c32.21,0,58.35-26.13,58.35-58.35V92.94C1464.5,60.76,1438.41,34.63,1406.23,34.59z
				 M1405.37,163.76c0,12.48-10.14,22.62-22.62,22.62h-105.69c-12.48,0-22.62-10.14-22.62-22.62v-56.44
				c0-12.48,10.14-22.62,22.62-22.62h105.69c12.48,0,22.62,10.14,22.62,22.62V163.76z M256.9,186.38H114.94
				c-12.48,0-22.62-10.14-22.62-22.62v-56.44c0-12.48,10.14-22.62,22.62-22.62H256.9V34.51L91.53,34.43
				c-32.21,0-58.38,26.13-58.38,58.35v86.39c0,32.25,26.13,58.39,58.35,58.39h165.41L256.9,186.38L256.9,186.38z M1019.34,237.55
				h165.4v-51.17h-141.96c-12.48,0-22.62-10.14-22.62-22.62v-56.44c0-12.48,10.14-22.62,22.62-22.62h141.96V34.51l-165.37-0.08
				c-32.25-0.04-58.42,26.09-58.42,58.35v86.39C960.99,211.42,987.12,237.55,1019.34,237.55z M605.53,237.16h110.8v-51.17h-87.36
				c-12.48,0-22.62-10.14-22.62-22.62V34.67h-59.17v144.15C547.19,211.03,573.28,237.16,605.53,237.16z M785.14,237.55h165.41
				v-51.17H801.06c-8.35,0-15.13-6.79-15.13-15.13l0,0c0-8.35,6.79-15.13,15.13-15.13h135.37v-40.29H801.48
				c-8.58,0-15.56-6.98-15.56-15.56s6.98-15.56,15.56-15.56h149.06V34.52l-223.75-0.16v144.81
				C726.79,211.42,752.88,237.55,785.14,237.55z M429.09,456.19h59.44V254.16h-59.44V456.19z M759.63,456.19h59.13V254.16h-59.13
				V456.19L759.63,456.19z M685.99,330.02H574.84c-7.06,0-12.75-5.73-12.75-12.75l0,0c0-7.06,5.73-12.75,12.75-12.75h163.77v-50.31
				H562.09c-32.64,0-59.13,26.48-59.13,59.13v7.88c0,32.64,26.48,59.13,59.13,59.13h111.15c7.06,0,12.75,5.73,12.75,12.75
				s-5.73,12.75-12.75,12.75H502.96v50.31h183.03c32.64,0,59.13-26.48,59.13-59.13v-7.88C745.12,356.5,718.64,330.02,685.99,330.02z
				 M1044.14,253.81l-152.54-0.16c-32.25-0.04-58.42,26.09-58.42,58.35v86.39c0,32.22,26.13,58.35,58.35,58.35h152.53
				c32.21,0,58.35-26.13,58.35-58.35v-86.23C1102.41,279.94,1076.32,253.81,1044.14,253.81z M1043.29,382.95
				c0,12.48-10.14,22.62-22.62,22.62H914.98c-12.48,0-22.62-10.14-22.62-22.62v-56.4c0-12.48,10.14-22.62,22.62-22.62h105.69
				c12.48,0,22.62,10.14,22.62,22.62V382.95z M1327.76,253.81l-152.54-0.16c-0.43,0-0.9,0.04-1.33,0.08v-0.08h-57.1v202.57h59.13
				V326.54c0-12.48,10.14-22.62,22.62-22.62h105.69c12.48,0,22.62,10.14,22.62,22.62v129.02l59.13,0.66V312.15
				C1386.03,279.94,1359.94,253.81,1327.76,253.81z M262.32,399.83l-84.13-145.67H109.9l116.65,202.03h71.49l116.65-202.03H346.4
				L262.32,399.83z"/>
		</g>
	</g>
</g>
</svg>
