<?xml version="1.0" encoding="utf-8"?>
<!-- Generator: Adobe Illustrator 25.0.0, SVG Export Plug-In . SVG Version: 6.00 Build 0)  -->
<svg version="1.1" id="Layer_1" xmlns="http://www.w3.org/2000/svg" xmlns:xlink="http://www.w3.org/1999/xlink" x="0px" y="0px"
	 viewBox="0 0 3840 1614.4" style="enable-background:new 0 0 3840 1614.4;" xml:space="preserve">
<style type="text/css">
	.st0{fill:#FFFFFF;}
</style>
<g>
	<g>
		<g>
			<path id="path4595_11_" d="M3384.2,158.1h-71.3v204.6h74.4V255.8c0-27.9,17.1-41.9,48.1-41.9c31,0,38.8,9.3,40.3,35.6h69.8
				c0-69.7-9.3-96.1-83.7-96.1c-45,0-60.5,9.3-77.5,43.4L3384.2,158.1L3384.2,158.1z M3726.8,322.4c-71.3,0-82.1-6.2-82.1-41.9H3840
				c-3.1-99.2-3.1-122.4-134.9-122.4c-111.6,0-136.5,20.1-136.5,108.5c0,82.2,32.6,102.3,122.5,103.9c100.8,0,148.8-4.7,148.8-71.3
				h-72.9C3764,314.7,3757.8,322.4,3726.8,322.4z M3643.1,237.2c3.1-21.7,9.3-29.5,58.9-29.5c54.3,0,62,3.1,65.1,29.5H3643.1z
				 M871.3,244.9h74.4c-6.2-69.8-26.4-86.8-130.2-86.8c-117.8,0-144.2,18.6-144.2,105.4c0,86.8,24.8,107,134.9,107
				c116.3,0,139.5-15.5,139.5-88.4h-74.4c0,20.2-7.7,29.5-65.1,29.5c-49.6,0-60.5-12.4-60.5-52.7c0-38.8,10.8-38.8,69.8-38.8
				C858.9,220.1,866.6,224.8,871.3,244.9z M2599.8,257.3c0-83.7-24.8-100.7-144.2-100.7c-128.7,0-144.1,21.7-144.1,108.5
				c0,86.8,21.7,105.4,144.1,105.4C2585.8,370.5,2599.8,348.8,2599.8,257.3z M2387.4,262c0-41.9,9.3-46.5,63.6-46.5
				c60.5,0,71.3,1.5,71.3,46.5c0,41.9-7.8,49.6-65.1,49.6C2395.1,311.6,2387.4,305.4,2387.4,262L2387.4,262z M3267.9,257.3
				c0-83.7-23.3-100.7-142.6-100.7c-127.1,0-142.6,20.1-142.6,107c0,88.4,21.7,107,142.6,107
				C3255.5,370.5,3267.9,348.8,3267.9,257.3z M3057.1,262c0-41.9,9.3-46.5,63.5-46.5c60.5,0,71.3,1.5,71.3,46.5
				c0,41.9-7.7,49.6-65.1,49.6C3064.9,311.6,3057.1,305.4,3057.1,262z M1275.9,257.3c0-83.7-23.3-100.7-142.6-100.7
				c-128.7,0-144.2,20.1-144.2,107c0,88.4,21.7,107,144.2,107C1263.5,370.5,1275.9,348.8,1275.9,257.3z M1066.6,262
				c0-41.9,9.3-46.5,62-46.5c60.5,0,71.3,1.5,71.3,46.5c0,41.9-7.8,49.6-65.1,49.6C1074.3,311.6,1066.6,305.4,1066.6,262z
				 M2858.7,71.3v119.4c-17-23.3-32.5-35.6-94.5-35.6c-99.2,0-117.8,26.4-117.8,107c0,82.2,26.4,105.4,122.5,105.4
				c60.5,0,79.1-15.5,93-41.8v37.2h74.4V71.3L2858.7,71.3L2858.7,71.3z M2804.4,213.9c41.8,0,55.8,6.2,55.8,38.7
				c0,49.6-3.1,54.3-62,54.3c-58.9,0-74.4-1.6-74.4-43.4C2723.8,215.5,2742.4,213.9,2804.4,213.9z M1393.7,158.1h-69.7v204.6h74.4
				V257.3c0-31,15.5-41.8,57.4-41.8c38.8,0,49.6,13.9,49.6,52.7v94.5h76V254.2c0-29.5,23.2-38.7,58.9-38.7
				c34.1,0,49.6,9.3,49.6,38.7v108.5h74.4V241.8c0-60.4-37.2-88.4-105.4-88.4c-58.9,0-80.6,21.7-88.4,45c-15.5-26.4-37.2-45-96.1-45
				c-55.8,0-71.3,18.6-80.6,52.7L1393.7,158.1L1393.7,158.1z M1894.4,158.1h-69.8v204.6h74.4V257.3c0-31,18.6-41.8,55.8-41.8
				c38.8,0,49.6,12.4,49.6,52.7v94.5h76V254.2c0-29.5,21.7-38.7,57.4-38.7c34.1,0,51.1,10.8,51.1,38.7v108.5h74.4V241.8
				c0-60.4-37.2-88.4-105.4-88.4c-58.9,0-79.1,20.1-88.4,45c-15.5-26.4-37.2-45-96.1-45c-54.2,0-68.2,18.6-79,52.7L1894.4,158.1
				L1894.4,158.1z"/>
			<g>
				<path d="M334.6,388.9c-20.4,11.4-43.8,18-68.8,18c-77.7,0-141-63.2-141-141s63.2-141,141-141c25,0,48.4,6.5,68.8,18V9
					c-21.9-5.9-45-9-68.8-9C119,0,0,119,0,265.9s119,265.9,265.9,265.9c23.8,0,46.8-3.2,68.8-9V388.9z"/>
				<g>
					<g>
						<rect x="334.6" y="149.8" width="111.5" height="106.4"/>
						<polygon points="566.4,149.8 460,256.2 411,256.2 411,149.8 						"/>
					</g>
					<g>
						<rect x="334.6" y="275.6" width="111.5" height="106.4"/>
						<polygon points="566.4,381.9 460,275.6 411,275.6 411,381.9 						"/>
					</g>
				</g>
			</g>
		</g>
	</g>
	<g>
		<path d="M1152.5,1285.8c-97.2,89.5-320.9,77.1-444.3,77.1h-395v251.5H0V585.3h705.1c57.1,0,112.6,0,169.7,1.5
			c100.3,1.5,214.5,12.3,290,86.4c71,69.4,71,222.2,71,313.2C1235.8,1083.7,1229.6,1214.8,1152.5,1285.8z M780.7,844.5
			c-24.7,0-50.9-1.5-75.6-1.5H313.2v262.3h465.9c120.3,0,141.9-21.6,141.9-140.4C921.1,852.2,880.9,846.1,780.7,844.5z"/>
		<path d="M1322.2,1614.4V585.3h1138.6v242.2h-830v149.7h788.4v225.2h-788.4v165.1h836.2v246.8H1322.2z"/>
		<path d="M3381.8,847.6v766.8h-328.6V847.6h-458.2V585.3H3840v262.3H3381.8z"/>
	</g>
</g>
</svg>
