<?xml version="1.0" encoding="utf-8"?>
<!-- Generator: Adobe Illustrator 25.4.1, SVG Export Plug-In . SVG Version: 6.00 Build 0)  -->
<svg version="1.1" id="Layer_1" xmlns="http://www.w3.org/2000/svg" xmlns:xlink="http://www.w3.org/1999/xlink" x="0px" y="0px"
	 viewBox="0 0 3839 808" style="enable-background:new 0 0 3839 808;" xml:space="preserve">
<style type="text/css">
	.st0{fill-rule:evenodd;clip-rule:evenodd;fill:#002684;}
	.st1{fill-rule:evenodd;clip-rule:evenodd;fill:#12506F;}
	.st2{fill-rule:evenodd;clip-rule:evenodd;fill:#247A5B;}
	.st3{fill-rule:evenodd;clip-rule:evenodd;fill:#36A346;}
	.st4{fill-rule:evenodd;clip-rule:evenodd;fill:#48CD31;}
	.st5{fill-rule:evenodd;clip-rule:evenodd;fill:#6AD534;}
	.st6{fill-rule:evenodd;clip-rule:evenodd;fill:#8CDD37;}
	.st7{fill-rule:evenodd;clip-rule:evenodd;fill:#AFE63A;}
	.st8{fill-rule:evenodd;clip-rule:evenodd;fill:#D1EE3D;}
	.st9{fill-rule:evenodd;clip-rule:evenodd;fill:#F3F640;}
	.st10{fill-rule:evenodd;clip-rule:evenodd;fill:#F6D730;}
	.st11{fill-rule:evenodd;clip-rule:evenodd;fill:#F9B721;}
	.st12{fill-rule:evenodd;clip-rule:evenodd;fill:#FB9811;}
	.st13{fill-rule:evenodd;clip-rule:evenodd;fill:#FE7801;}
	.st14{fill-rule:evenodd;clip-rule:evenodd;fill:#FE5C13;}
	.st15{fill-rule:evenodd;clip-rule:evenodd;fill:#FE4125;}
	.st16{fill-rule:evenodd;clip-rule:evenodd;fill:#FE2537;}
	.st17{fill-rule:evenodd;clip-rule:evenodd;fill:#14A4FE;}
	.st18{fill-rule:evenodd;clip-rule:evenodd;fill:#21AECB;}
	.st19{fill-rule:evenodd;clip-rule:evenodd;fill:#2EB998;}
	.st20{fill-rule:evenodd;clip-rule:evenodd;fill:#3BC364;}
	.st21{fill-rule:evenodd;clip-rule:evenodd;fill:#24795B;}
	.st22{fill-rule:evenodd;clip-rule:evenodd;fill:#48CC31;}
	.st23{fill-rule:evenodd;clip-rule:evenodd;fill:#6AD434;}
	.st24{fill-rule:evenodd;clip-rule:evenodd;fill:#8BDC37;}
	.st25{fill-rule:evenodd;clip-rule:evenodd;fill:#AEE53A;}
	.st26{fill-rule:evenodd;clip-rule:evenodd;fill:#D0ED3D;}
	.st27{fill-rule:evenodd;clip-rule:evenodd;fill:#F2F540;}
	.st28{fill-rule:evenodd;clip-rule:evenodd;fill:#F5D630;}
	.st29{fill-rule:evenodd;clip-rule:evenodd;fill:#F8B621;}
	.st30{fill-rule:evenodd;clip-rule:evenodd;fill:#FA9711;}
	.st31{fill-rule:evenodd;clip-rule:evenodd;fill:#FD7801;}
	.st32{fill-rule:evenodd;clip-rule:evenodd;fill:#F9500E;}
	.st33{fill-rule:evenodd;clip-rule:evenodd;fill:#F6281C;}
	.st34{fill-rule:evenodd;clip-rule:evenodd;fill:#F20029;}
	.st35{fill:#002684;}
	.st36{fill:#F20029;}
	.st37{fill:#FFFFFF;}
	.st38{fill-rule:evenodd;clip-rule:evenodd;fill:#14A3FD;}
	.st39{fill-rule:evenodd;clip-rule:evenodd;fill:#3E3632;}
	.st40{fill:#282422;}
	.st41{fill:url(#SVGID_1_);}
	.st42{fill:url(#SVGID_00000052785592615810096210000002723271964244906371_);}
	.st43{fill:url(#SVGID_00000059310150181339717850000004277439616946202002_);}
	.st44{fill:url(#SVGID_00000155861026522379487150000003336741051155576247_);}
	.st45{fill:url(#SVGID_00000065795563229130680810000017166743609271025337_);}
	.st46{fill:url(#SVGID_00000065044537986269051560000007774542576118891166_);}
	.st47{fill:url(#SVGID_00000171682028769344969750000010175175612851009410_);}
	.st48{fill:url(#SVGID_00000057136199227123684590000004303342938376435389_);}
	.st49{fill:url(#SVGID_00000105427751064930032050000014710701162805257882_);}
	.st50{fill:url(#SVGID_00000082341502196236618090000017515300264817773974_);}
	.st51{fill:url(#SVGID_00000103964471663139709120000018060272777697303434_);}
	.st52{fill:url(#SVGID_00000164489095282989277000000012365518846736011687_);}
	.st53{fill:url(#SVGID_00000065757204231422962500000008288034741491512197_);}
	.st54{fill:url(#SVGID_00000088120498797404304470000013257872074484301467_);}
	.st55{fill:url(#SVGID_00000118360807058999732470000010898339826194928798_);}
	.st56{fill:url(#SVGID_00000034050214464116555600000003863922535619109823_);}
	.st57{fill:url(#SVGID_00000048493800284047988530000002347995863107931270_);}
	.st58{fill:url(#SVGID_00000041996988272761579710000005537263837310147456_);}
	.st59{fill:url(#SVGID_00000183251149438388669250000011449704889978081947_);}
	.st60{fill:url(#SVGID_00000003818660949418404490000012682689510762624680_);}
	.st61{fill:url(#SVGID_00000183226481043528294830000004576465119186378132_);}
	.st62{fill:url(#SVGID_00000063620602897306641940000006842328050491781764_);}
	.st63{fill:url(#SVGID_00000101089177627794145530000010194658711729328547_);}
	.st64{fill:url(#SVGID_00000128479931752107419100000008015497402933796252_);}
	.st65{fill:url(#SVGID_00000121959275739179628500000014376432884779694487_);}
	.st66{fill:url(#SVGID_00000158711355182589222490000006183227050041095593_);}
	.st67{fill:url(#SVGID_00000036251927143232421330000015499091070115278252_);}
	.st68{fill:url(#SVGID_00000036229545775617889160000009169805738422611861_);}
	.st69{fill:url(#SVGID_00000111902826369281672190000013543620600493040006_);}
	.st70{fill-rule:evenodd;clip-rule:evenodd;fill:#FFFFFF;}
	.st71{fill:url(#SVGID_00000006672342775926917140000005970949943794277037_);}
	.st72{fill:url(#SVGID_00000145043701167812316290000012162237055527950725_);}
	.st73{fill:url(#SVGID_00000078739835495749026060000006129104003359540666_);}
	.st74{fill:url(#SVGID_00000130606094547567828720000017751749159574876826_);}
	.st75{fill:url(#SVGID_00000005227924400453832590000017942874322923312524_);}
	.st76{fill:url(#SVGID_00000088822042948348804430000000614357448389189040_);}
	.st77{fill:url(#SVGID_00000038388955563774264320000010942448804826580108_);}
	.st78{fill:url(#SVGID_00000177474822242406628810000010933326084360330388_);}
	.st79{fill:url(#SVGID_00000073711467398766588790000005230748788372660401_);}
	.st80{fill:url(#SVGID_00000160875736225016254460000011330365334083163823_);}
	.st81{fill:url(#SVGID_00000033358219381369563400000000835745561023538364_);}
	.st82{fill:url(#SVGID_00000106870312937694323360000007616057468690224780_);}
	.st83{fill:url(#SVGID_00000086667755068176250720000010144937910121317042_);}
	.st84{fill:url(#SVGID_00000012470717822975354670000015417324503623870132_);}
	.st85{fill:url(#SVGID_00000037677953251218962940000000107955878735136136_);}
	.st86{fill:url(#SVGID_00000076605931964338546340000009735303783646539157_);}
	.st87{fill:url(#SVGID_00000071521590312417368800000013909780628363003022_);}
	.st88{fill:url(#SVGID_00000052068087224130877950000009787281213841714314_);}
	.st89{fill:url(#SVGID_00000108282175658201067460000010170809675589070495_);}
	.st90{fill:url(#SVGID_00000043422302811505744360000013374647365120636050_);}
	.st91{fill:url(#SVGID_00000072984925351677250080000004521033747163751576_);}
	.st92{fill:url(#SVGID_00000070804307066943210230000006471444714589781940_);}
	.st93{fill:url(#SVGID_00000103244854039943282210000007455406838700406184_);}
	.st94{fill:url(#SVGID_00000113313022732046441180000004186437746684866182_);}
	.st95{fill:url(#SVGID_00000121983402517171367310000016070600239881598597_);}
	.st96{fill:url(#SVGID_00000072990972456260704920000007093016735688183968_);}
	.st97{fill:url(#SVGID_00000051354362946409895680000013435858787645580179_);}
	.st98{fill:url(#SVGID_00000058572181574803312400000012857363575457219464_);}
	.st99{fill:url(#SVGID_00000104683843822349722310000014257869892016258464_);}
	.st100{fill:#0F2166;}
	.st101{fill:#FD2537;}
</style>
<g>
	<g>
		<g>
			<g>
				<polygon id="polygon7_00000118390846025058304560000000607147245241075345_" class="st34" points="864.9,368.8 864.9,368.8 
					2606.2,368.8 2606.2,414 864.9,414 				"/>
				<polygon class="st31" points="864.9,467.3 864.9,467.3 2606.2,467.3 2606.2,512.6 864.9,512.6 				"/>
				<polygon class="st27" points="864.9,565.9 864.9,565.9 2606.2,565.9 2606.2,611 864.9,611 				"/>
				<polygon class="st22" points="864.9,664.3 864.9,664.3 2606.2,664.3 2606.2,709.5 864.9,709.5 				"/>
				<polygon id="polygon15_00000115480439769520662050000014077718970225993125_" class="st38" points="864.9,762.8 864.9,762.8 
					2606.2,762.8 2606.2,808 864.9,808 				"/>
			</g>
		</g>
		<g>
			<path class="st35" d="M1055.7,157.4c-3.3-29.8-36.3-29-59.5-29c-12.6,0-39.2,0.4-49.3,9c-9.8,8.2-9.8,29.4-9.8,40.8
				c0,11,0.4,25.7,9,33.9c10.2,9.8,38.3,10.6,51.4,10.6c9,0,17.5,0,26.5-1.2c17.9-2.4,28.6-7.7,31.4-26.9h73.4
				c-0.8,21.6-2,42.4-17.9,58.7c-16.7,17.5-42.4,21.2-65.7,22.4c-17.5,0.8-34.7,1.2-52.2,1.2c-31.4,0-76.3,0.8-103.2-17.9
				c-26.1-18.4-24.9-56.7-24.9-84.8c0-27.7-0.4-60.8,22.8-80.3c25.3-21.2,77.9-19.6,108.9-19.6c31,0,84.8-1.2,110.5,19.6
				c6.9,5.7,11.4,11.4,15.1,20c6.1,14.3,6.5,28.1,6.9,43.6h-73.4V157.4z"/>
			<path class="st35" d="M1434.1,209.5c-1.6,18.8-6.5,35.5-21.2,48.1c-24.9,21.6-83.6,19.2-114.2,19.2c-31.8,0-88.1,2.9-114.2-19.2
				c-7.3-6.1-11.8-12.6-15.5-21.2c-8.2-20-6.9-45.3-6.9-66.5c0-10.6,0-21.6,1.2-32.2c1.6-18.4,8.6-34.7,23.7-46.1
				c24.5-18.8,82.8-17.5,111.7-17.5c29.4,0,86.9-1.2,111.8,17.5c6.9,5.3,11.4,10.6,15.5,18.4c10.6,18.8,9.4,42.8,9.4,63.6
				C1435.3,185.6,1434.9,197.7,1434.1,209.5z M1354.2,139.1c-10.6-10.2-41.6-10.6-55.1-10.6c-13.1,0-26.5,0.4-39.2,2.9
				c-25.3,4.9-25.7,24.5-25.7,46.5c0,10.6-0.4,24.9,7.3,33c11,11.8,42.8,11.8,57.5,11.8c13.9,0,28.5,0,42-3.7
				c22.4-6.1,22-26.5,22-46.5C1363.1,161.5,1362.7,147.2,1354.2,139.1z"/>
			<path class="st35" d="M1823.5,271.9v-90.1c0-41.6-4.5-53.4-48.9-53.4c-49.8,0-53.4,19.6-53.4,64v79.5h-72.2v-90.1v-13.5
				c0-35.1-15.1-40-47.7-40c-51.4,0-54.7,18.4-54.7,64v79.6h-72.2V79.1h68.1v29h3.3c13.5-29.8,49.3-33.9,78.3-33.9
				c36.7,0,68.9,6.1,87.7,40.4c14.7-35.9,48.9-40.4,83.6-40.4c28.1,0,59.5,3.3,79.9,24.9c6.9,7.3,12.2,15.1,15.1,24.9
				c5.7,18.8,5.3,38.7,5.3,57.9v90.1H1823.5z"/>
			<path class="st35" d="M2286.3,271.9v-90.1c0-41.6-4.5-53.4-48.9-53.4c-49.8,0-53.4,19.6-53.4,64v79.5h-72.2v-90.1v-13.5
				c0-35.1-15.1-40-47.7-40c-51.4,0-54.7,18.4-54.7,64v79.6h-72.2V79.1h68.1v29h3.3c13.5-29.8,49.4-33.9,78.3-33.9
				c36.7,0,68.9,6.1,87.7,40.4c14.7-35.9,48.9-40.4,83.6-40.4c28.1,0,59.5,3.3,79.9,24.9c6.9,7.3,12.2,15.1,15.1,24.9
				c5.7,18.8,5.3,38.7,5.3,57.9v90.1H2286.3z"/>
			<path class="st35" d="M2668,209.5c-1.6,18.8-6.5,35.5-21.2,48.1c-24.9,21.6-83.6,19.2-114.2,19.2c-31.8,0-88.1,2.9-114.2-19.2
				c-7.3-6.1-11.8-12.6-15.5-21.2c-8.2-20-6.9-45.3-6.9-66.5c0-10.6,0-21.6,1.2-32.2c1.6-18.4,8.6-34.7,23.7-46.1
				c24.5-18.8,82.8-17.5,111.8-17.5c29.4,0,86.9-1.2,111.8,17.5c6.9,5.3,11.4,10.6,15.5,18.4c10.6,18.8,9.4,42.8,9.4,63.6
				C2669.2,185.6,2668.8,197.7,2668,209.5z M2588,139.1c-10.6-10.2-41.6-10.6-55.1-10.6c-13.1,0-26.5,0.4-39.2,2.9
				c-25.3,4.9-25.7,24.5-25.7,46.5c0,10.6-0.4,24.9,7.3,33c11,11.8,42.8,11.8,57.5,11.8c13.9,0,28.5,0,42-3.7
				c22.4-6.1,22-26.5,22-46.5C2597,161.5,2596.6,147.2,2588,139.1z"/>
			<path class="st35" d="M2907.7,271.9v-25.3h-3.7c-4.9,8.2-8.6,13.5-16.7,18.4c-17.9,11-48.1,11.8-68.5,11.8
				c-29.8,0-70.2,0.4-93.8-20.4c-21.2-18.8-20.8-55.9-20.8-82c0-30.2,0.8-66.9,28.6-85.6c24.5-16.3,58.7-14.7,86.9-14.7
				c21.2,0,44.5-0.4,63.2,10.6c9.4,5.3,12.6,10.6,17.9,20h2.9V0h72.2v271.9H2907.7z M2900.3,146.4c-8.6-19.6-39.6-17.9-57.1-17.9
				c-17.9,0-54.2-2-63.2,18.4c-3.3,8.2-3.7,18.8-3.7,27.3c0,11.4-0.4,29,8.2,37.9c9.8,10.6,41.2,10.6,54.2,10.6
				c14.7,0,32.6-0.8,46.5-5.3c19.6-6.1,19.2-24.9,19.2-42.4C2904.4,166,2904,155,2900.3,146.4z"/>
			<path class="st35" d="M3286.9,209.5c-1.6,18.8-6.5,35.5-21.2,48.1c-24.9,21.6-83.6,19.2-114.2,19.2c-31.8,0-88.1,2.9-114.2-19.2
				c-7.3-6.1-11.8-12.6-15.5-21.2c-8.2-20-6.9-45.3-6.9-66.5c0-10.6,0-21.6,1.2-32.2c1.6-18.4,8.6-34.7,23.7-46.1
				c24.5-18.8,82.8-17.5,111.7-17.5c29.4,0,86.9-1.2,111.8,17.5c6.9,5.3,11.4,10.6,15.5,18.4c10.6,18.8,9.4,42.8,9.4,63.6
				C3288.1,185.6,3287.7,197.7,3286.9,209.5z M3207,139.1c-10.6-10.2-41.6-10.6-55.1-10.6c-13.1,0-26.5,0.4-39.2,2.9
				c-25.3,4.9-25.7,24.5-25.7,46.5c0,10.6-0.4,24.9,7.3,33c11,11.8,42.8,11.8,57.5,11.8c13.9,0,28.5,0,42-3.7
				c22.4-6.1,22-26.5,22-46.5C3216,161.5,3215.6,147.2,3207,139.1z"/>
			<path class="st35" d="M3550.8,164.8h-67.7c0-28.6-9.4-36.3-37.9-36.3c-44.5,0-45.7,28.1-45.7,63.6v79.9h-72.2V79.1h68.1v29h3.3
				c16.7-29.8,43.6-33.9,75-33.9c22.4,0,49.3,2.9,64.4,21.6c13.5,16.7,13.1,40.8,13.1,61.2C3551.2,159.5,3550.8,162.3,3550.8,164.8z
				"/>
			<path class="st35" d="M3838.6,191.3h-188.4c0,11-0.4,23.7,9,31.4c9.8,7.8,37.1,8.2,48.9,8.2s44.9,0.4,52.6-8.2
				c3.3-3.3,4.1-7.7,4.9-12.2h71.8c-1.6,18.4-5.3,32.6-19.2,45.3c-24.9,22.4-84.4,21.2-115.8,21.2c-28.6,0-76.3,0.4-99.9-17.9
				c-7.3-5.7-12.2-12.2-16.3-20.4c-9-18.8-8.2-42-8.2-62c0-12.2,0-24.5,1.2-36.3c2-19.6,8.6-37.1,24.9-48.9
				c25.3-18.4,75.9-17.1,105.6-17.1c27.3,0,57.1-0.8,83.6,6.9c42.8,12.6,45.7,51.8,45.7,90.5C3839,178.2,3839,184.8,3838.6,191.3z
				 M3766.4,147.2c0-7.3-0.4-13.1-5.7-18.8c-8.6-9.4-37.9-9.4-49.8-9.4c-11,0-22,0-32.6,1.6c-20.4,2.9-27.7,10.6-28.1,31h116.2
				L3766.4,147.2L3766.4,147.2z"/>
		</g>
		<g>
			<path class="st35" d="M3126.1,494.2c0-6.4-0.6-15.4-6.4-19.9c-5.8-4.5-14.8-5.1-21.2-5.8c-33.4-3.2-68.2-3.2-102.2-3.2
				c-31.5,0-65.6,0-96.5,5.8c-7.1,1.3-13.5,3.2-19.3,7.7c-14.8,11.6-13.5,43.7-13.5,60.4v16.7v7.1c7.7-7.7,15.4-14.1,25.1-19.3
				c36-20.6,108-18.6,148.5-18.6c43.7,0,97.1,0.6,138.9,14.1c15.4,5.1,28.3,12.2,39.9,23.8c25.7,25.1,26.4,73.3,26.4,106.7
				c0,61.1-10.3,115.8-78.5,129.3c-26.4,5.1-53.4,7.1-79.7,7.7c-38.6,0.6-76.5,1.3-115.1,1.3c-54,0-155,3.2-196-34.1
				c-29.6-26.4-31.5-77.8-32.8-114.5c-0.6-28.3-1.3-57.2-1.3-85.5c0-51.4-5.8-135,36.7-171.7c40.5-35.4,178.8-33.4,229.5-33.4
				c28.3,0,56.6,0,84.9,1.3c39.2,1.3,105.5,3.2,135,33.4c20.6,21.2,19.9,63,19.9,90.7H3126.1z M3088.8,625.3
				c-34.7-5.1-72-3.9-107.4-3.9c-25.7,0-52.1-1.3-77.8,2.6c-25.1,3.9-34.7,19.3-34.7,43.7c0,10.9,2.6,25.1,10.3,33.4
				c12.9,13.5,85.5,10.3,102.2,10.3c22.5,0,44.4-0.6,66.9-1.3c16.1-0.6,48.9,1.3,61.7-10.9c7.7-7.7,9-21.9,9-32.2
				C3119,643.3,3113.9,629.2,3088.8,625.3z"/>
			<path class="st35" d="M3756,723.1v79.7H3632v-79.7h-342v-164L3544.6,374H3756v252.6h83v96.5H3756z M3632,473.7h-26.4
				l-199.3,136.3v16.7h225.6L3632,473.7L3632,473.7z"/>
		</g>
		<g>
			<path class="st35" d="M172.4,441.1c0-107.3,87.3-194.5,194.5-194.5c34.4,0,66.8,9,94.9,24.8V86.7c-30.3-8.1-62.1-12.5-94.9-12.5
				C164.3,74.2,0,238.4,0,441.1S164.3,808,366.9,808c32.8,0,64.6-4.4,94.9-12.5V610.8c-28.1,15.8-60.5,24.8-94.9,24.8
				C259.6,635.6,172.4,548.4,172.4,441.1z"/>
			<polygon class="st35" points="461.8,427.8 634.7,427.8 781.5,281 461.8,281 			"/>
			<polygon class="st36" points="461.8,454.5 461.8,601.2 781.5,601.2 634.7,454.5 			"/>
		</g>
	</g>
</g>
</svg>
