<?xml version="1.0" encoding="utf-8"?>
<!-- Generator: Adobe Illustrator 25.4.1, SVG Export Plug-In . SVG Version: 6.00 Build 0)  -->
<svg version="1.1" id="Layer_1" xmlns="http://www.w3.org/2000/svg" xmlns:xlink="http://www.w3.org/1999/xlink" x="0px" y="0px"
	 viewBox="0 0 3839 381.1" style="enable-background:new 0 0 3839 381.1;" xml:space="preserve">
<style type="text/css">
	.st0{fill-rule:evenodd;clip-rule:evenodd;fill:#3E3632;}
	.st1{fill:#282422;}
	.st2{fill:#C5C5C5;}
	.st3{fill:#020202;stroke:#000000;stroke-width:4.7827;stroke-linecap:round;stroke-linejoin:round;stroke-miterlimit:10;}
	.st4{clip-path:url(#SVGID_00000137103719363984698210000006545749578687859856_);}
	.st5{fill:#002684;stroke:#231F20;stroke-width:0.7971;stroke-linecap:round;stroke-linejoin:round;stroke-miterlimit:10;}
	.st6{fill:#00771F;}
	.st7{fill:#89BC27;}
	.st8{fill:#FCEC01;}
	.st9{fill:#F17100;}
	.st10{fill:#E50069;}
	.st11{clip-path:url(#SVGID_00000106112608944542392920000006099167702770326671_);}
	.st12{stroke:#000000;stroke-width:4.7827;stroke-linecap:round;stroke-linejoin:round;stroke-miterlimit:10;}
	.st13{fill:#FFFFFF;stroke:#000000;stroke-width:4.7827;stroke-linecap:round;stroke-linejoin:round;stroke-miterlimit:10;}
	.st14{fill:#020202;}
	.st15{fill:none;stroke:#000000;stroke-width:4.7827;stroke-linecap:round;stroke-linejoin:round;stroke-miterlimit:10;}
	.st16{fill:#F20029;stroke:#000000;stroke-width:4.7827;stroke-linecap:round;stroke-linejoin:round;stroke-miterlimit:10;}
	.st17{fill:#002684;stroke:#000000;stroke-width:4.7827;stroke-linecap:round;stroke-linejoin:round;stroke-miterlimit:10;}
	.st18{fill:url(#SVGID_00000112590983443782475760000016134018288197708729_);}
	.st19{fill:#FFFFFF;}
	.st20{fill:url(#SVGID_00000165947595586676141070000010642818596808957335_);}
	.st21{fill:url(#SVGID_00000048465866591068326340000008714883580580557463_);}
	.st22{fill:url(#SVGID_00000034070386899506547340000000646707981557717660_);}
	.st23{clip-path:url(#SVGID_00000170986288436920256160000002497511099367088529_);}
	.st24{clip-path:url(#SVGID_00000155132373835757178760000000370671778366030758_);}
	.st25{clip-path:url(#SVGID_00000117640820089492218070000017559404796327898296_);}
	.st26{fill:#002684;}
	.st27{clip-path:url(#SVGID_00000015345706631079934130000012324681590505322430_);}
	.st28{clip-path:url(#SVGID_00000150102744117544247700000007726068996317300628_);}
	.st29{fill:#020202;stroke:#000000;stroke-width:4.928;stroke-linecap:round;stroke-linejoin:round;stroke-miterlimit:10;}
	.st30{fill:#FFFFFF;stroke:#000000;stroke-width:4.928;stroke-linecap:round;stroke-linejoin:round;stroke-miterlimit:10;}
	.st31{fill:#F20029;stroke:#000000;stroke-width:4.928;stroke-linecap:round;stroke-linejoin:round;stroke-miterlimit:10;}
	.st32{fill:#002684;stroke:#000000;stroke-width:4.928;stroke-linecap:round;stroke-linejoin:round;stroke-miterlimit:10;}
	.st33{fill:none;stroke:#000000;stroke-width:4.928;stroke-linecap:round;stroke-linejoin:round;stroke-miterlimit:10;}
	.st34{clip-path:url(#SVGID_00000058578490802853562850000017050716465960454311_);}
	.st35{clip-path:url(#SVGID_00000086692513086956504030000009636012809522773145_);}
	.st36{clip-path:url(#SVGID_00000169519099095435884060000007219052947850398127_);}
	.st37{fill:url(#SVGID_00000114054944300743409970000017683855994889923519_);}
	.st38{fill:url(#SVGID_00000138561586888597496370000006002944067468035467_);}
	.st39{fill:url(#SVGID_00000083793084582191075900000017989905992013614244_);}
	.st40{fill:url(#SVGID_00000029736271930239449430000004904098118447387554_);}
	.st41{clip-path:url(#SVGID_00000116225461015785878270000003982893834713545633_);}
	.st42{fill:#231F20;}
	.st43{clip-path:url(#SVGID_00000004521765425888575550000013753503363574388114_);}
	.st44{clip-path:url(#SVGID_00000046341370030257095050000011863854513580528827_);}
	.st45{fill:#F20029;}
	.st46{clip-path:url(#SVGID_00000142139594420358664660000013713694766104529040_);}
	.st47{clip-path:url(#SVGID_00000090985220662921923560000003230250097367373482_);}
	.st48{clip-path:url(#SVGID_00000031898201421271892910000006059825098277206409_);}
	.st49{clip-path:url(#SVGID_00000181072110739299783710000012461017332127462276_);}
	.st50{clip-path:url(#SVGID_00000079473695294474732260000000405334367469295502_);}
	.st51{clip-path:url(#SVGID_00000042731488515342545510000006958353221019526053_);}
	.st52{fill-rule:evenodd;clip-rule:evenodd;fill:#F20029;}
	.st53{fill-rule:evenodd;clip-rule:evenodd;fill:#FD7801;}
	.st54{fill-rule:evenodd;clip-rule:evenodd;fill:#F2F540;}
	.st55{fill-rule:evenodd;clip-rule:evenodd;fill:#48CC31;}
	.st56{fill-rule:evenodd;clip-rule:evenodd;fill:#14A3FD;}
	.st57{fill:url(#SVGID_00000121958056047600489860000017823932836134684318_);}
	.st58{fill:url(#SVGID_00000164478941174627339060000006074063943623706811_);}
	.st59{fill:url(#SVGID_00000097460257311603645660000003027847948692444070_);}
	.st60{fill:url(#SVGID_00000033339105054404276030000009742065173619707542_);}
	.st61{fill:url(#SVGID_00000068644461811575097170000011426458412778769580_);}
	.st62{fill:url(#SVGID_00000125589731922361621030000003626694134917920443_);}
	.st63{fill:url(#SVGID_00000061444992154676173840000004095779797554169227_);}
	.st64{fill:url(#SVGID_00000124879413155488990370000012990010568171113893_);}
	.st65{fill:url(#SVGID_00000031180983202454158550000002333621615098055304_);}
	.st66{fill:url(#SVGID_00000024721687628154288560000016870010144824432796_);}
	.st67{fill:url(#SVGID_00000113311670591814033130000000139148396491697818_);}
	.st68{fill:url(#SVGID_00000072968606671901964420000017349480247384683420_);}
	.st69{fill:url(#SVGID_00000036973433165708150270000017740858867505511350_);}
	.st70{fill:url(#SVGID_00000110469414342820511910000016035179461073722763_);}
	.st71{fill:url(#SVGID_00000034076940953196706970000009924925629974685865_);}
	.st72{fill:url(#SVGID_00000139988374655147704170000001383205842613050544_);}
	.st73{fill:url(#SVGID_00000023269433418689118700000014899985960045323966_);}
	.st74{fill-rule:evenodd;clip-rule:evenodd;fill:#0F2166;}
	.st75{fill-rule:evenodd;clip-rule:evenodd;fill:#1D4C59;}
	.st76{fill-rule:evenodd;clip-rule:evenodd;fill:#2C774C;}
	.st77{fill-rule:evenodd;clip-rule:evenodd;fill:#3AA23E;}
	.st78{fill-rule:evenodd;clip-rule:evenodd;fill:#48CD31;}
	.st79{fill-rule:evenodd;clip-rule:evenodd;fill:#6AD534;}
	.st80{fill-rule:evenodd;clip-rule:evenodd;fill:#8CDD37;}
	.st81{fill-rule:evenodd;clip-rule:evenodd;fill:#AFE63A;}
	.st82{fill-rule:evenodd;clip-rule:evenodd;fill:#D1EE3D;}
	.st83{fill-rule:evenodd;clip-rule:evenodd;fill:#F3F640;}
	.st84{fill-rule:evenodd;clip-rule:evenodd;fill:#F6D730;}
	.st85{fill-rule:evenodd;clip-rule:evenodd;fill:#F9B721;}
	.st86{fill-rule:evenodd;clip-rule:evenodd;fill:#FB9811;}
	.st87{fill-rule:evenodd;clip-rule:evenodd;fill:#FE7801;}
	.st88{fill-rule:evenodd;clip-rule:evenodd;fill:#FE5C13;}
	.st89{fill-rule:evenodd;clip-rule:evenodd;fill:#FE4125;}
	.st90{fill-rule:evenodd;clip-rule:evenodd;fill:#FE2537;}
	.st91{fill-rule:evenodd;clip-rule:evenodd;fill:#14A4FE;}
	.st92{fill-rule:evenodd;clip-rule:evenodd;fill:#21AECB;}
	.st93{fill-rule:evenodd;clip-rule:evenodd;fill:#2EB998;}
	.st94{fill-rule:evenodd;clip-rule:evenodd;fill:#3BC364;}
	.st95{fill-rule:evenodd;clip-rule:evenodd;fill:#C5C5C5;}
	.st96{fill:#020202;stroke:#000000;stroke-width:4.7334;stroke-linecap:round;stroke-linejoin:round;stroke-miterlimit:10;}
	.st97{clip-path:url(#SVGID_00000058578881372278219010000001556846934327385763_);}
	.st98{fill:#002684;stroke:#231F20;stroke-width:0.7889;stroke-linecap:round;stroke-linejoin:round;stroke-miterlimit:10;}
	.st99{clip-path:url(#SVGID_00000060725057787600078080000018355322010199754137_);}
	.st100{stroke:#000000;stroke-width:4.7334;stroke-linecap:round;stroke-linejoin:round;stroke-miterlimit:10;}
	.st101{fill:#FFFFFF;stroke:#000000;stroke-width:4.7334;stroke-linecap:round;stroke-linejoin:round;stroke-miterlimit:10;}
	.st102{fill:none;stroke:#000000;stroke-width:4.7334;stroke-linecap:round;stroke-linejoin:round;stroke-miterlimit:10;}
	.st103{fill:#F20029;stroke:#000000;stroke-width:4.7334;stroke-linecap:round;stroke-linejoin:round;stroke-miterlimit:10;}
	.st104{fill:#002684;stroke:#000000;stroke-width:4.7334;stroke-linecap:round;stroke-linejoin:round;stroke-miterlimit:10;}
	.st105{fill:url(#SVGID_00000174589645330877534910000004175543620134256276_);}
	.st106{fill:url(#SVGID_00000047753556435201117710000016473238654627030196_);}
	.st107{fill:url(#SVGID_00000075842686464916715930000002451571859427307665_);}
	.st108{fill:url(#SVGID_00000034791238472257448550000006573124496592191655_);}
	.st109{clip-path:url(#SVGID_00000126293195548208612120000008573484315572852902_);}
	.st110{clip-path:url(#SVGID_00000072998355888177238840000013058772994725053353_);}
	.st111{clip-path:url(#SVGID_00000152975014156133792710000014612702228429205925_);}
	.st112{clip-path:url(#SVGID_00000033343597179112783000000016009701069743488921_);}
	.st113{clip-path:url(#SVGID_00000074432348487189916000000012462524900200516229_);}
	.st114{fill:#020202;stroke:#000000;stroke-width:4.8772;stroke-linecap:round;stroke-linejoin:round;stroke-miterlimit:10;}
	.st115{fill:#FFFFFF;stroke:#000000;stroke-width:4.8772;stroke-linecap:round;stroke-linejoin:round;stroke-miterlimit:10;}
	.st116{fill:#F20029;stroke:#000000;stroke-width:4.8772;stroke-linecap:round;stroke-linejoin:round;stroke-miterlimit:10;}
	.st117{fill:#002684;stroke:#000000;stroke-width:4.8772;stroke-linecap:round;stroke-linejoin:round;stroke-miterlimit:10;}
	.st118{fill:none;stroke:#000000;stroke-width:4.8772;stroke-linecap:round;stroke-linejoin:round;stroke-miterlimit:10;}
	.st119{fill:url(#SVGID_00000017474043690940467810000012842812188295019689_);}
	.st120{fill:url(#SVGID_00000165218594074342979510000017728212952633527946_);}
	.st121{fill:url(#SVGID_00000074413282285282877170000003399885009350735005_);}
	.st122{fill:url(#SVGID_00000095314430911564890330000005739168405097005448_);}
	.st123{clip-path:url(#SVGID_00000087393624627674152810000002837495448284141982_);}
	.st124{clip-path:url(#SVGID_00000117666731811801247260000016646538945791917972_);}
	.st125{clip-path:url(#SVGID_00000021113025548307362440000006121686369265869236_);}
	.st126{fill-rule:evenodd;clip-rule:evenodd;fill:#FFFFFF;}
	.st127{fill:url(#SVGID_00000147217512316331409230000000014722673589742216_);}
	.st128{fill:url(#SVGID_00000067234645739212213940000007720801933557193378_);}
	.st129{fill:url(#SVGID_00000067211241267367342260000006393794707735404979_);}
	.st130{fill:url(#SVGID_00000173881328457120722770000006132083619400702604_);}
	.st131{fill:url(#SVGID_00000094599972649520094830000005744568782763231658_);}
	.st132{fill:url(#SVGID_00000006695633737033536100000013676520234504869022_);}
	.st133{fill:url(#SVGID_00000168104367002124669710000008583840317495046282_);}
	.st134{fill:url(#SVGID_00000072995048105885424570000015895381479035730623_);}
	.st135{fill:url(#SVGID_00000000935803320762211950000009541655271140617376_);}
	.st136{fill:url(#SVGID_00000103973360732983867930000005830569728910453892_);}
	.st137{fill:url(#SVGID_00000139285957003896330860000009695650283552923053_);}
	.st138{fill:url(#SVGID_00000124874893089718874500000013451269222533462707_);}
	.st139{fill:url(#SVGID_00000097482396290469680790000003811913459473640576_);}
	.st140{fill:url(#SVGID_00000119081012390742049970000006378822112129547393_);}
	.st141{fill:url(#SVGID_00000081631682738702133140000004239419448762822068_);}
	.st142{fill:url(#SVGID_00000058551706173405367410000010875372838098618036_);}
	.st143{fill:url(#SVGID_00000106106254367897524430000001893271907925072789_);}
	.st144{fill-rule:evenodd;clip-rule:evenodd;fill:#002684;}
	.st145{fill-rule:evenodd;clip-rule:evenodd;fill:#12506F;}
	.st146{fill-rule:evenodd;clip-rule:evenodd;fill:#24795B;}
	.st147{fill-rule:evenodd;clip-rule:evenodd;fill:#36A346;}
	.st148{fill-rule:evenodd;clip-rule:evenodd;fill:#6AD434;}
	.st149{fill-rule:evenodd;clip-rule:evenodd;fill:#8BDC37;}
	.st150{fill-rule:evenodd;clip-rule:evenodd;fill:#AEE53A;}
	.st151{fill-rule:evenodd;clip-rule:evenodd;fill:#D0ED3D;}
	.st152{fill-rule:evenodd;clip-rule:evenodd;fill:#F5D630;}
	.st153{fill-rule:evenodd;clip-rule:evenodd;fill:#F8B621;}
	.st154{fill-rule:evenodd;clip-rule:evenodd;fill:#FA9711;}
	.st155{fill-rule:evenodd;clip-rule:evenodd;fill:#F9500E;}
	.st156{fill-rule:evenodd;clip-rule:evenodd;fill:#F6281C;}
	.st157{clip-path:url(#SVGID_00000138537302486247355750000016685012726686359683_);}
	.st158{clip-path:url(#SVGID_00000042714582747071828640000009626179146254994351_);}
	.st159{clip-path:url(#SVGID_00000151543649128021836720000007003622050427682466_);}
	.st160{clip-path:url(#SVGID_00000155849801298570317130000002381218900739225782_);}
	.st161{clip-path:url(#SVGID_00000021084708573321832770000016941750653682878637_);}
	.st162{clip-path:url(#SVGID_00000062161797085597977430000010463545647326149556_);}
	.st163{clip-path:url(#SVGID_00000109713353838949734910000008381005239285523595_);}
	.st164{clip-path:url(#SVGID_00000063615094914508317800000012091735643608599686_);}
	.st165{clip-path:url(#SVGID_00000099623539583478184120000010583718414173073051_);}
	.st166{clip-path:url(#SVGID_00000042698035653193716230000002481382145489918634_);}
	.st167{clip-path:url(#SVGID_00000129206739057600488970000004983533181381689241_);}
	.st168{clip-path:url(#SVGID_00000128445419165156863330000012196740676530584233_);}
	.st169{clip-path:url(#SVGID_00000009563827874267246870000008038943135199366839_);}
	.st170{clip-path:url(#SVGID_00000090272375264208119650000003602342393983369872_);}
	.st171{clip-path:url(#SVGID_00000022519405878957696630000001610493515829278139_);}
	.st172{clip-path:url(#SVGID_00000039852918696890061790000004998957603134624693_);}
	.st173{clip-path:url(#SVGID_00000036954376582857250830000015464308572423544476_);}
	.st174{clip-path:url(#SVGID_00000016773355765372580580000018090538301228311182_);}
	.st175{clip-path:url(#SVGID_00000176023773176647029080000013236610105585729957_);}
	.st176{clip-path:url(#SVGID_00000084500684357219614680000012929389981380586672_);}
	.st177{clip-path:url(#SVGID_00000005262478676295202740000003178607250598184607_);}
	.st178{clip-path:url(#SVGID_00000010274113400512758410000006323241679749452988_);}
	.st179{clip-path:url(#SVGID_00000137102078320784627320000000166980696429300101_);}
	.st180{clip-path:url(#SVGID_00000020398055562970653020000013877208914694410892_);}
	.st181{clip-path:url(#SVGID_00000135679507082896680890000012750016985272963739_);}
	.st182{clip-path:url(#SVGID_00000056388183668196457920000010153597678702306195_);}
	.st183{clip-path:url(#SVGID_00000102515557483586420480000002273400738583659191_);}
</style>
<g>
	<g>
		<path id="path4583_00000136369856309672732540000006408786469499711619_" class="st0" d="M190.6,0h3457.9
			C3753.2,0,3839,85.8,3839,190.6l0,0c0,104.8-85.8,190.6-190.6,190.6H190.6C85.8,381.1,0,295.4,0,190.6l0,0C0,85.8,85.8,0,190.6,0z
			"/>
		<g>
			<path id="path4595_00000104680806302655274280000013989587477550109594_" class="st1" d="M1855.2,148.7h-33.8v96.9h35.2v-50.6
				c0-13.2,8.1-19.8,22.8-19.8c14.7,0,18.4,4.4,19.1,16.9h33c0-33-4.4-45.5-39.6-45.5c-21.3,0-28.6,4.4-36.7,20.6V148.7
				L1855.2,148.7z M2017.4,226.4c-33.8,0-38.9-2.9-38.9-19.8h92.5c-1.5-47-1.5-58-63.9-58c-52.9,0-64.6,9.5-64.6,51.4
				c0,38.9,15.4,48.5,58,49.2c47.7,0,70.5-2.2,70.5-33.8h-34.5C2035.1,222.7,2032.1,226.4,2017.4,226.4z M1977.8,186.1
				c1.5-10.3,4.4-14,27.9-14c25.7,0,29.4,1.5,30.8,14H1977.8z M665.4,189.8h35.2c-2.9-33-12.5-41.1-61.7-41.1
				c-55.8,0-68.3,8.8-68.3,49.9s11.7,50.7,63.9,50.7c55.1,0,66.1-7.3,66.1-41.9h-35.2c0,9.5-3.7,14-30.8,14
				c-23.5,0-28.6-5.9-28.6-25c0-18.4,5.1-18.4,33-18.4C659.5,178.1,663.2,180.3,665.4,189.8z M1483.8,195.6
				c0-39.6-11.7-47.7-68.3-47.7c-60.9,0-68.3,10.3-68.3,51.4s10.3,49.9,68.3,49.9C1477.2,249.2,1483.8,238.9,1483.8,195.6z
				 M1383.2,197.8c0-19.8,4.4-22,30.1-22c28.6,0,33.8,0.7,33.8,22c0,19.8-3.7,23.5-30.8,23.5
				C1386.9,221.3,1383.2,218.3,1383.2,197.8L1383.2,197.8z M1800.1,195.6c0-39.6-11-47.7-67.5-47.7c-60.2,0-67.5,9.5-67.5,50.7
				c0,41.8,10.3,50.7,67.5,50.7C1794.2,249.2,1800.1,238.9,1800.1,195.6z M1700.4,197.8c0-19.8,4.4-22,30.1-22
				c28.6,0,33.8,0.7,33.8,22c0,19.8-3.7,23.5-30.8,23.5C1704.1,221.3,1700.4,218.3,1700.4,197.8z M857,195.6
				c0-39.6-11-47.7-67.5-47.7c-60.9,0-68.3,9.5-68.3,50.7c0,41.8,10.3,50.7,68.3,50.7C851.1,249.2,857,238.9,857,195.6z
				 M757.9,197.8c0-19.8,4.4-22,29.4-22c28.6,0,33.8,0.7,33.8,22c0,19.8-3.7,23.5-30.8,23.5C761.5,221.3,757.9,218.3,757.9,197.8z
				 M1606.4,107.6v56.5c-8.1-11-15.4-16.9-44.8-16.9c-47,0-55.8,12.5-55.8,50.7c0,38.9,12.5,49.9,58,49.9c28.6,0,37.4-7.3,44.1-19.8
				v17.6h35.2v-138L1606.4,107.6L1606.4,107.6z M1580.7,175.1c19.8,0,26.4,2.9,26.4,18.3c0,23.5-1.5,25.7-29.4,25.7
				c-27.9,0-35.2-0.8-35.2-20.6C1542.5,175.9,1551.3,175.1,1580.7,175.1z M912.8,148.7h-33v96.9H915v-49.9
				c0-14.7,7.3-19.8,27.2-19.8c18.4,0,23.5,6.6,23.5,25v44.8h36v-51.4c0-13.9,11-18.3,27.9-18.3c16.2,0,23.5,4.4,23.5,18.3v51.4
				h35.2v-57.3c0-28.6-17.6-41.8-49.9-41.8c-27.9,0-38.2,10.3-41.9,21.3c-7.3-12.5-17.6-21.3-45.5-21.3c-26.4,0-33.8,8.8-38.2,25
				L912.8,148.7L912.8,148.7z M1149.8,148.7h-33v96.9h35.2v-49.9c0-14.7,8.8-19.8,26.4-19.8c18.4,0,23.5,5.9,23.5,25v44.8h36v-51.4
				c0-13.9,10.3-18.3,27.2-18.3c16.1,0,24.2,5.1,24.2,18.3v51.4h35.2v-57.3c0-28.6-17.6-41.8-49.9-41.8c-27.9,0-37.5,9.5-41.8,21.3
				c-7.3-12.5-17.6-21.3-45.5-21.3c-25.7,0-32.3,8.8-37.4,25L1149.8,148.7L1149.8,148.7z"/>
			<g>
				<path class="st1" d="M411.3,257.9c-9.6,5.4-20.7,8.5-32.6,8.5c-36.8,0-66.8-29.9-66.8-66.8s29.9-66.8,66.8-66.8
					c11.8,0,22.9,3.1,32.6,8.5V78.1c-10.4-2.8-21.3-4.3-32.6-4.3c-69.5,0-125.9,56.4-125.9,125.9s56.4,125.9,125.9,125.9
					c11.3,0,22.2-1.5,32.6-4.3V257.9z"/>
				<g>
					<polygon class="st1" points="464.2,195 470.7,195 521.1,144.8 464.2,144.8 447.5,144.8 411.3,144.8 411.3,195 447.5,195 					
						"/>
					<polygon class="st1" points="464.2,204.2 447.5,204.2 411.3,204.2 411.3,254.6 447.5,254.6 464.2,254.6 521.1,254.6 
						470.7,204.2 					"/>
				</g>
			</g>
		</g>
		<path class="st2" d="M3648.4,0H2276.8v381.1h1371.6c104.8,0,190.6-85.8,190.6-190.6S3753.2,0,3648.4,0z"/>
		<g>
			<polygon class="st3" points="2552.8,38.9 2522.9,38.9 2502.5,59.4 2525.4,59.4 2562.4,59.4 2590.1,291.4 2601.5,195.6 
				2582.8,38.9 			"/>
			<g>
				<g>
					<defs>
						<polygon id="SVGID_1_" points="2617.8,59.4 2590.1,291.4 2562.4,59.4 2502.5,59.4 2537.2,350.1 2583.1,350.1 2597.1,350.1 
							2642.9,350.1 2677.7,59.4 						"/>
					</defs>
					<clipPath id="SVGID_00000130604467678322158720000001822768663596825475_">
						<use xlink:href="#SVGID_1_"  style="overflow:visible;"/>
					</clipPath>
					<g style="clip-path:url(#SVGID_00000130604467678322158720000001822768663596825475_);">
						<polygon class="st5" points="2657.6,49.1 2326.5,373.3 2206.6,373.3 2460.9,49.1 						"/>
						<polygon class="st6" points="3126.5,49.1 2795.5,373.3 3077.8,373.3 						"/>
						<polygon class="st7" points="3009.3,49.1 2678.2,373.3 2795.5,373.3 3126.5,49.1 						"/>
						<polygon class="st8" points="2561,373.3 2892,49.1 3009.3,49.1 2678.2,373.3 						"/>
						<polygon class="st9" points="2443.8,373.3 2774.8,49.1 2892,49.1 2561,373.3 						"/>
						<polygon class="st10" points="2326.5,373.3 2657.6,49.1 2774.8,49.1 2443.8,373.3 						"/>
					</g>
				</g>
			</g>
			<polygon class="st3" points="2668.1,38.9 2638.2,38.9 2617.8,59.4 2635.8,59.4 2677.7,59.4 2645.4,329.7 2645.4,329.7 
				2642.9,350.1 2663.4,329.7 2665.3,313.8 2665.3,313.8 2698.1,38.9 			"/>
			<g>
				<g>
					<defs>
						<path id="SVGID_00000066515489934775611790000007369788394946245782_" d="M2916.6,265c-11.2,6.3-24.2,9.9-37.9,9.9
							c-42.9,0-77.8-34.9-77.8-77.8s34.9-77.8,77.8-77.8c13.8,0,26.7,3.6,37.9,9.9V55.5c-12.1-3.2-24.8-5-37.9-5
							c-81,0-146.7,65.7-146.7,146.7s65.7,146.7,146.7,146.7c13.1,0,25.8-1.7,37.9-5V265z"/>
					</defs>
					<clipPath id="SVGID_00000127029007256211226170000002755255850635991956_">
						<use xlink:href="#SVGID_00000066515489934775611790000007369788394946245782_"  style="overflow:visible;"/>
					</clipPath>
					<g style="clip-path:url(#SVGID_00000127029007256211226170000002755255850635991956_);">
						<polygon class="st5" points="2657.6,49.1 2326.5,373.3 2206.6,373.3 2460.9,49.1 						"/>
						<polygon class="st6" points="3126.5,49.1 2795.5,373.3 3077.8,373.3 						"/>
						<polygon class="st7" points="3009.3,49.1 2678.2,373.3 2795.5,373.3 3126.5,49.1 						"/>
						<polygon class="st8" points="2561,373.3 2892,49.1 3009.3,49.1 2678.2,373.3 						"/>
						<polygon class="st9" points="2443.8,373.3 2774.8,49.1 2892,49.1 2561,373.3 						"/>
						<polygon class="st10" points="2326.5,373.3 2657.6,49.1 2774.8,49.1 2443.8,373.3 						"/>
					</g>
				</g>
			</g>
			<polygon class="st12" points="2562.4,59.4 2582.8,38.9 2522.9,38.9 2502.5,59.4 			"/>
			<polygon class="st12" points="2638.2,38.9 2698.1,38.9 2677.7,59.4 2617.8,59.4 			"/>
			<g>
				<path class="st3" d="M3222.8,38.9H3163c-11.8,0-22.6,4.6-30.7,12l0,0l-0.3,0.3c-0.7,0.6-1.4,1.3-2,2l-18.3,18.3l0,0
					c1-0.9,2.1-1.8,3.2-2.7l0,0c1.1-0.8,2.2-1.6,3.4-2.4c0.1,0,0.1-0.1,0.2-0.1c1.1-0.7,2.2-1.4,3.4-2c0.1-0.1,0.3-0.1,0.4-0.2
					c1.1-0.5,2.2-1.1,3.3-1.5c0.3-0.1,0.6-0.2,0.9-0.3c1-0.4,2-0.8,3.1-1.1c0.5-0.1,1-0.2,1.5-0.4c0.9-0.2,1.8-0.5,2.7-0.7
					c0.8-0.2,1.6-0.2,2.3-0.4c0.7-0.1,1.3-0.2,2-0.3c1.5-0.1,3-0.2,4.5-0.2h59.8l0,0c1.4,0,2.8,0.1,4.2,0.2c0.4,0,0.8,0.1,1.2,0.1
					c1,0.1,2,0.3,3,0.5c0.4,0.1,0.8,0.1,1.2,0.2c2.7,0.6,5.2,1.4,7.7,2.4c0.4,0.1,0.7,0.3,1.1,0.5c0.9,0.4,1.8,0.8,2.7,1.3
					c0.3,0.2,0.7,0.4,1,0.5c1.2,0.6,2.3,1.3,3.4,2.1c1.2,0.8,2.4,1.7,3.5,2.6c1.2,1,2.3,2,3.4,3.2c0.4,0.4,0.7,0.8,1,1.1
					c0.7,0.8,1.4,1.5,2.1,2.4c0.4,0.5,0.7,1,1.1,1.5c0.6,0.8,1.1,1.5,1.6,2.3c0.3,0.5,0.7,1.1,1,1.6c0.5,0.8,0.9,1.6,1.3,2.4
					c0.3,0.6,0.6,1.2,0.9,1.8c0.4,0.8,0.7,1.7,1.1,2.6c0.2,0.6,0.5,1.2,0.7,1.8c0.3,0.9,0.6,1.9,0.8,2.8c0.2,0.6,0.3,1.2,0.5,1.8
					c0.2,1,0.4,2.1,0.5,3.2c0.1,0.5,0.2,1.1,0.2,1.6c0.2,1.6,0.3,3.3,0.3,4.9l0,0v78.7l0,0v7.1c0,9.9-3.3,19.4-9,27.1l0,0l14.9-14.2
					l0,0c9.1-8.5,14.5-20.5,14.5-33.3V84.4C3268.2,59.3,3247.9,38.9,3222.8,38.9z"/>
				<path class="st13" d="M3294.6,104.9v199.7c0,25.1,20.4,45.5,45.5,45.5h59.8c25.1,0,45.5-20.4,45.5-45.5V104.9
					c0-25.1-20.4-45.5-45.5-45.5h-59.8C3314.9,59.4,3294.6,79.7,3294.6,104.9z M3354,292.3V117.2c0-5.9,4.8-10.7,10.7-10.7h10.5
					c5.9,0,10.7,4.8,10.7,10.7v175.2c0,5.9-4.8,10.7-10.7,10.7h-10.5C3358.8,303,3354,298.2,3354,292.3z"/>
				<g>
					<g>
						<path class="st14" d="M3430.4,338.3L3430.4,338.3l0.8-0.7C3430.9,337.9,3430.6,338.1,3430.4,338.3z"/>
						<path class="st3" d="M3465.8,84.4c0-25.1-20.4-45.5-45.5-45.5h-59.8c-12,0-22.8,4.7-31,12.2h-0.2l-22.2,22.4h0.1
							c8.3-8.7,19.9-14.1,32.9-14.1h9.6h50.3c6.3,0,12.3,1.3,17.7,3.6c6.7,2.8,12.5,7.2,17.1,12.7c0.3,0.4,0.6,0.8,0.9,1.2
							c2,2.6,3.7,5.3,5.2,8.3c2.9,6,4.6,12.7,4.6,19.8v189.2l0,0v10.6c0,12.1-4.8,23.1-12.5,31.3l19.5-19.5c0.3-0.3,0.6-0.6,0.8-0.8
							l0.2-0.2l0,0c7.7-8.1,12.4-19.1,12.4-31.1v-200H3465.8z"/>
					</g>
					<path class="st14" d="M3364.7,106.5c-5.9,0-10.7,4.8-10.7,10.7v175.2c0,5.9,4.8,10.7,10.7,10.7h10.5c5.9,0,10.7-4.8,10.7-10.7
						v-9.7h-0.8c-5.9,0-10.7-4.8-10.7-10.7V106.5H3364.7z"/>
				</g>
				<path class="st3" d="M3167.2,106.5c-5.9,0-10.7,4.8-10.7,10.7v8.8l0,0v35l20.4-20.4v-17.1v-17L3167.2,106.5z"/>
				<path class="st3" d="M3176.9,282.6v-25.8l-14.9,8.3c-3.4,1.9-5.5,5.5-5.5,9.4V303h91.4v8.5v38.6l20.4-20.4v-18.1v-28.9
					L3176.9,282.6L3176.9,282.6z"/>
				<path class="st14" d="M3109.2,73.9l-0.7,0.7l0,0C3108.8,74.4,3109,74.2,3109.2,73.9z"/>
				<path class="st12" d="M3420.3,38.9h-59.8c-12,0-22.8,4.7-31,12.2h-0.2l-22.2,22.4h0.1c8.3-8.7,19.9-14.1,32.9-14.1h9.6h50.3
					c6.3,0,12.3,1.3,17.7,3.6c5,2.1,9.4,5.1,13.3,8.7l20.4-20.4C3443.2,43.6,3432.3,38.9,3420.3,38.9z"/>
				<polygon class="st12" points="3156.5,303 3176.9,282.6 3268.2,282.6 3247.9,303 				"/>
				<path class="st12" d="M3238,76.6l20.4-20.4c-8.3-10.5-21.2-17.3-35.6-17.3H3163c-11.8,0-22.6,4.6-30.7,12l0,0l-0.3,0.3
					c-0.7,0.6-1.4,1.3-2,2l-18.3,18.3c8.1-7.5,19-12.2,30.9-12.2h59.8c9.4,0,18.2,2.9,25.4,7.8c1.2,0.8,2.4,1.7,3.5,2.6
					C3233.8,71.8,3236,74.1,3238,76.6z"/>
				<path class="st13" d="M3097,104.9V161h59.4v-43.8c0-5.9,4.8-10.7,10.7-10.7h10.5c5.9,0,10.7,4.8,10.7,10.7v70.4
					c0,3.9-2.1,7.5-5.5,9.4l-62.6,34.9c-14.4,8-23.3,23.2-23.3,39.7v50.4v28.2h59.4l0,0h91.4V303h-91.4v-28.5c0-3.9,2.1-7.5,5.5-9.4
					l62.6-34.9c14.4-8,23.3-23.2,23.3-39.7v-85.7c0-25.1-20.4-45.5-45.5-45.5h-59.8C3117.4,59.4,3097,79.7,3097,104.9z"/>
				<path class="st3" d="M3148.2,216.2l34.7-19.4c0.4-0.2,0.8-0.5,1.2-0.8c2.7-2,4.3-5.2,4.3-8.6v-2.7l-47.6,26.6
					c-3.1,1.8-6,3.9-8.6,6.2l0,0l-0.3,0.3c-0.7,0.7-1.5,1.4-2.2,2.2l-18.1,18.1l0,0c2.6-2.4,5.5-4.6,8.7-6.4L3148.2,216.2
					L3148.2,216.2z"/>
			</g>
			<g>
				<path class="st14" d="M2870.6,338.3L2870.6,338.3l0.8-0.7C2871.1,337.9,2870.8,338.1,2870.6,338.3z"/>
			</g>
			<path class="st15" d="M2916.6,265c-11.2,6.3-24.2,9.9-37.9,9.9c-42.9,0-77.8-34.9-77.8-77.8s34.9-77.8,77.8-77.8
				c13.8,0,26.7,3.6,37.9,9.9V55.5c-12.1-3.2-24.8-5-37.9-5c-81,0-146.7,65.7-146.7,146.7s65.7,146.7,146.7,146.7
				c13.1,0,25.8-1.7,37.9-5V265z"/>
			<g>
				<path class="st3" d="M2820.6,177.7c0-16.5,5.2-31.7,13.9-44.3c-20.2,14.1-33.4,37.4-33.4,63.8c0,42.9,34.9,77.8,77.8,77.8
					c13.8,0,26.7-3.6,37.9-9.9v35.3v38.6l19.5-19.5v-20.3v-53.5c-11.2,6.3-24.2,9.9-37.9,9.9
					C2855.5,255.3,2820.6,220.5,2820.6,177.7z"/>
				<path class="st3" d="M2898.2,31c-45.5,0-86.1,20.7-113,53.2c25.4-21,58-33.7,93.5-33.7c13.1,0,25.8,1.7,37.9,5v25.4v48.4
					l19.5-19.5V82.2V36C2924.1,32.8,2911.3,31,2898.2,31z"/>
			</g>
			<path class="st12" d="M2916.6,55.5l19.6-19.5c-12.1-3.2-24.8-5-37.9-5c-45.5,0-86.1,20.7-113,53.2c25.4-21,58-33.7,93.5-33.7
				C2891.8,50.5,2904.5,52.3,2916.6,55.5z"/>
			<path class="st3" d="M2916.6,265l19.5-19.5c-11.2,6.3-24.2,9.9-37.9,9.9c-42.9,0-77.8-34.9-77.8-77.8c0-16.5,5.2-31.7,13.9-44.3
				c-20.2,14.1-33.4,37.4-33.4,63.8c0,42.9,34.9,77.8,77.8,77.8C2892.5,274.9,2905.4,271.3,2916.6,265L2916.6,265z"/>
			<polygon class="st16" points="2978.2,202.5 2958.7,202.5 2916.6,202.5 2916.6,261.1 2958.7,261.1 2978.2,261.1 3044.4,261.1 
				2985.8,202.5 			"/>
			<polygon class="st3" points="2997.7,183 2978.3,183 2936.2,183 2916.6,202.5 2936.2,202.5 2943.8,202.5 2958.7,202.5 
				2978.2,202.5 2985.8,202.5 3024.9,241.6 3044.4,261.1 3064,241.6 3005.3,183 			"/>
			<polygon class="st12" points="2985.8,202.5 3005.3,183 2936.2,183 2916.6,202.5 			"/>
			<polygon class="st12" points="2958.7,133.2 2978.2,133.2 3044.4,133.2 3064,113.7 2997.7,113.7 2978.3,113.7 2936.2,113.7 
				2916.6,133.2 2936.2,133.2 			"/>
			<polygon class="st17" points="2978.2,191.9 2985.8,191.9 3044.4,133.2 2978.2,133.2 2958.7,133.2 2916.6,133.2 2916.6,191.9 
				2958.7,191.9 			"/>
			<polygon class="st15" points="2617.8,59.4 2590.1,291.4 2562.4,59.4 2502.5,59.4 2537.2,350.1 2583.1,350.1 2597.1,350.1 
				2642.9,350.1 2677.7,59.4 			"/>
		</g>
		<g id="path4595_00000127039355923430888350000001052593215250626453_">
			
				<linearGradient id="SVGID_00000041288742255200862810000011299069911590162571_" gradientUnits="userSpaceOnUse" x1="-203.1941" y1="10829.9619" x2="-203.1941" y2="10965.4268" gradientTransform="matrix(1 0 0 -1 1524 11063.7012)">
				<stop  offset="0" style="stop-color:#B4BFC9"/>
				<stop  offset="1" style="stop-color:#F5F6FF"/>
			</linearGradient>
			<path style="fill:url(#SVGID_00000041288742255200862810000011299069911590162571_);" d="M2000.6,233.7
				c-43.1-0.8-54.9-10.7-54.9-46.1c0-40.2,10.4-48.3,61.5-48.3c31.1,0,45.4,2.8,52.4,10.3c7,7.4,7.6,20.3,8.3,41.5h-92.4v3.1
				c0,20.2,8.4,22.9,42,22.9c13.3,0,19.1-2.8,21.5-11h28.9C2066.5,231.2,2047.6,233.7,2000.6,233.7z M2005.7,156.7
				c-23,0-29.1,3.3-31,16.6l-0.5,3.5h65.8l-0.4-3.5C2037.7,157.5,2030,156.7,2005.7,156.7z M1732.6,233.7c-29.9,0-44.9-2.5-53.4-9
				c-8.1-6.2-11.1-16.6-11.1-38.6c0-39.2,5.6-47.6,64.5-47.6c29.7,0,44.6,2.4,53.2,8.4c8.2,5.8,11.3,15.6,11.3,36.2
				c0,21.5-1.5,33.7-9.6,40.7C1779.4,230.9,1764,233.7,1732.6,233.7C1732.7,233.7,1732.6,233.7,1732.6,233.7z M1730.4,160.4
				c-26.5,0-33.2,3-33.2,25.1c0,24,7.3,26.6,36.1,26.6c28.2,0,33.9-4.5,33.9-26.6C1767.2,161.4,1759.6,160.4,1730.4,160.4z
				 M1415.5,233.7c-30.3,0-45.4-2.5-54-8.9c-8.1-6.1-11.1-16.3-11.1-37.9c0-39.1,6-48.3,65.2-48.3c29.8,0,44.9,2.4,53.6,8.4
				c8.4,5.8,11.6,16,11.6,36.2c0,20.9-1.6,33.6-9.9,40.7C1462.5,230.9,1447,233.7,1415.5,233.7L1415.5,233.7z M1413.3,160.4
				c-26.5,0-33.2,3-33.2,25.1c0,24,7.3,26.6,36.1,26.6c28.2,0,33.9-4.5,33.9-26.6C1450.2,161.4,1442.5,160.4,1413.3,160.4z
				 M789.5,233.7c-30.3,0-45.5-2.5-54-9c-8.1-6.2-11.2-16.6-11.2-38.6c0-39.2,5.6-47.6,65.2-47.6c29.7,0,44.6,2.4,53.2,8.4
				c8.2,5.8,11.3,15.6,11.3,36.2c0,21.5-1.5,33.7-9.6,40.7C836.2,230.9,820.9,233.7,789.5,233.7L789.5,233.7z M787.2,160.4
				c-25.9,0-32.5,3-32.5,25.1c0,22.6,5.3,26.6,35.4,26.6c28.2,0,33.9-4.5,33.9-26.6C824.1,161.4,816.5,160.4,787.2,160.4z
				 M634.5,233.7c-27,0-41.3-2.7-49.6-9.2c-8.1-6.4-11.2-17.2-11.2-38.3c0-38.9,11-46.8,65.2-46.8c46.8,0,55.3,7.1,58.2,34.9h-29.5
				c-3.2-10.1-10.2-11.7-28.8-11.7c-27.8,0-36.1,0-36.1,21.5s7.4,28.1,31.7,28.1c23.8,0,32.5-3.3,33.8-14h29.2
				C697,226.4,688.2,233.7,634.5,233.7z M1563.8,232.2c-43.6,0-54.9-9.6-54.9-46.8c0-36.3,7.3-47.6,52.7-47.6
				c29.4,0,35.2,5.9,42.3,15.6l5.6,7.6V98.3h30.5V230h-29.1v-27l-5.8,11C1598.8,226.1,1590.6,232.2,1563.8,232.2z M1580.7,159.6
				c-27.5,0-41.3,0-41.3,26.6c0,23.7,12,23.7,38.3,23.7c29.1,0,32.5-3,32.5-28.8C1610.2,162.8,1600.7,159.6,1580.7,159.6z
				 M1824.5,230v-90.7h27.6v28.4l5.9-11.7c7.7-15.3,14-18.8,33.9-18.8c16.6,0,25.7,2.7,30.6,9.1c4.6,6.1,5.8,16.1,6,30.2h-27.1
				c-1.4-12.5-7.3-16.9-21.9-16.9c-16.7,0-25.9,8.1-25.9,22.9V230H1824.5z M1292.4,230v-48.3c0-21.4-20.6-21.4-27.3-21.4
				c-13,0-30.3,2.2-30.3,21.4V230H1205v-41.7c0-21-6.7-28-26.6-28c-13.7,0-29.5,2.6-29.5,22.9V230h-29v-90.7h26.9V179l6-19
				c5-15.8,11.2-22.8,34.5-22.8c26,0,35.7,7.6,42.9,19.8l3.3,5.6l2.3-6.1c3.6-9.5,11-19.3,38.9-19.3c31.5,0,46.8,12.7,46.8,38.8
				v54.2L1292.4,230L1292.4,230z M1056,230v-48.3c0-18.9-13.4-21.4-26.6-21.4c-7.7,0-31,0-31,21.4V230h-29.7v-41.7
				c0-20.7-7-28-26.6-28c-18.2,0-30.3,3.9-30.3,22.9V230h-29v-90.7h26.8v42.8l6.1-22.3c4.1-15,10.7-22.7,35.2-22.7
				c26,0,35.7,7.6,42.9,19.8l3.4,5.9l2.2-6.5c4.3-12.9,17-19.2,38.9-19.2c31.5,0,46.8,12.7,46.8,38.8v54.2L1056,230L1056,230z"/>
			<path class="st19" d="M1636.9,101.4v125.6H1614v-11.4v-24.9l-1.1,2.1c0.3-3.4,0.4-7.2,0.4-11.6c0-5-0.7-9.1-2.1-12.3l1.3,1.8
				v-18.9v-50.4L1636.9,101.4 M1274.6,140.3c14.8,0,26,3,33.2,8.8c7.1,5.8,10.6,14.6,10.6,26.9v51h-22.9v-45.2
				c0-16.3-10.2-24.5-30.4-24.5c-10.3,0-17.7,1.5-23.1,4.8c-8.5,5.1-10.2,13.5-10.2,19.7v45.2h-23.6v-38.6c0-22.7-8-31.1-29.7-31.1
				c-4.8,0-15.5,0-23.3,5.5l0.6-1.9c4.5-14,9-20.7,31.5-20.7c27.2,0,34.8,9,40.2,18.2l6.6,11.2l4.5-12.2
				C1241.8,149,1248.6,140.3,1274.6,140.3 M1038.2,140.3c14.8,0,26,3,33.2,8.8c7.1,5.8,10.6,14.6,10.6,26.9v51h-22.9v-45.2
				c0-9-2.7-15.3-8.2-19.4c-4.8-3.6-11.5-5.2-21.5-5.2c-16.4,0-26.9,4.3-31.5,12.9l4.3-12.8c1.7-5,4.7-8.7,9.2-11.4
				C1017.6,142.2,1026.6,140.3,1038.2,140.3 M951,140.3c27.2,0,34.8,9,40.2,18.2l6.9,11.7c-1.7,3.3-2.6,7.1-2.6,11.6v45.2h-23.6
				v-38.6c0-22.4-8.3-31.1-29.7-31.1c-8.7,0-17.5,0.9-23.9,5l0.4-1.6c2.2-7.9,4.6-12.3,8.5-15.2C932.1,141.9,939.6,140.3,951,140.3
				 M1891.9,140.3c19.6,0,25.3,4.2,28.1,7.9c3.8,5,5,13.4,5.3,25.2H1904c-2.3-12-9.6-16.9-24.6-16.9c-9.5,0-17,2.5-21.9,7.3l3.2-6.4
				c3.7-7.5,6.9-11.4,10.9-13.7C1875.9,141.3,1881.9,140.3,1891.9,140.3 M1561.6,141c27.9,0,33.1,5.2,39.8,14.3l4.9,6.7
				c-6-4.9-15.3-5.5-25.6-5.5c-27.7,0-44.4,0-44.4,29.7c0,26.8,15.6,26.8,41.4,26.8c11.8,0,20.5-0.3,26.4-3.6l-1.7,3.3
				c-5,9.4-10.9,16.5-38.6,16.5c-22,0-34.9-2.7-42-8.9c-6.9-5.9-9.8-16.4-9.8-34.9c0-19.2,2.4-29.4,8.4-35.2
				C1527,143.9,1539.7,141,1561.6,141 M1732.6,141.8c28.6,0,43.5,2.3,51.4,7.8c7.3,5.2,10,14.3,10,33.7c0,20.5-1.3,32.1-8.5,38.4
				c-7.4,6.4-22.6,9-52.8,9h-0.1c-28.8,0-43.7-2.4-51.5-8.4c-7.2-5.5-9.9-15.3-9.9-36.1c0-21.5,2.2-30.6,8.9-35.9
				C1687.8,144.2,1703,141.8,1732.6,141.8 M1733.3,215.1c14.1,0,23.4-0.9,29.4-5.6c7-5.5,7.6-14.5,7.6-24c0-9.6-0.7-19.4-9.2-24.3
				c-6.3-3.7-15.3-3.9-30.7-3.9c-14.6,0-22.5,0.7-28.2,4.7c-7.4,5.2-8,14.5-8,23.5C1694.2,211.2,1703,215.1,1733.3,215.1
				 M1415.5,141.8c28.8,0,43.8,2.3,51.8,7.9c7.4,5.2,10.3,14.6,10.3,33.6c0,20-1.4,32-8.8,38.3c-7.5,6.4-23,9.1-53.2,9.1h-0.1
				c-29.2,0-44.3-2.4-52.2-8.3c-7.2-5.4-9.9-15-9.9-35.4c0-21.7,2.3-30.8,9-36.3C1370.2,144.3,1385.5,141.8,1415.5,141.8
				 M1416.2,215.1c27.8,0,37-4.3,37-29.7c0-9.6-0.7-19.4-9.2-24.3c-6.3-3.7-15.3-3.9-30.7-3.9c-14.6,0-22.5,0.7-28.2,4.7
				c-7.4,5.2-8.1,14.5-8.1,23.5C1377,211.2,1385.9,215.1,1416.2,215.1 M789.5,141.8c28.6,0,43.5,2.3,51.4,7.8
				c7.3,5.2,10,14.3,10,33.7c0,20.5-1.3,32.1-8.5,38.4c-7.4,6.4-22.7,9-52.8,9h-0.1c-29.2,0-44.3-2.4-52.2-8.4
				c-7.2-5.5-9.9-15.3-9.9-36.1c0-21.5,2.3-30.6,9-35.9C744,144.2,759.3,141.8,789.5,141.8 M790.2,215.1c27.8,0,37-4.3,37-29.7
				c0-9.6-0.7-19.4-9.2-24.3c-6.3-3.7-15.3-3.9-30.7-3.9c-25.3,0-35.6,2.6-35.6,28.2C751.7,211.2,760.3,215.1,790.2,215.1
				 M1143.7,142.5V159v39.9l2.2-6.9v35H1123v-84.5H1143.7 M906.6,142.5V159v46.2l2.2-8.1v29.9h-22.9v-84.5H906.6 M2007.2,142.5
				c29.8,0,43.9,2.6,50.2,9.3c5.8,6.2,6.7,17.7,7.3,36.3h-86.2h-6.2v6.2c0,8.6,1.2,17.1,10.1,21.7c6.9,3.6,17.6,4.3,34.9,4.3
				c13.5,0,20.5-3.1,23.7-11h23.3c-1.3,10.1-6.2,14.1-13,16.8c-11.1,4.3-29.6,4.6-50.9,4.6c-21.5-0.4-33.8-3-41.2-8.9
				c-7.4-5.9-10.7-16.4-10.7-34.1c0-20.5,2.8-30.7,10.2-36.5C1966.6,145,1980.6,142.5,2007.2,142.5 M1970.7,179.9h7.1h58.7h7
				l-0.8-6.9c-2.2-18.6-12.9-19.4-37-19.4c-22.1,0-31.7,2.7-34,19.3L1970.7,179.9 M1849,142.5v12.2v26.2l1.9-3.8
				c-0.3,1.7-0.4,3.5-0.4,5.4v44.5h-22.9v-84.5H1849 M638.9,142.5c24.4,0,37.4,2,44.7,7.1c5.5,3.8,8.4,9.9,10.1,21.7h-23.8
				c-4.4-10.5-13.8-11.7-30.9-11.7c-27.7,0-39.2,0-39.2,24.5c0,23.3,8.8,31.2,34.8,31.2c21.2,0,33.4-2.3,36.3-14h23.4
				c-0.6,12.3-3.4,18.6-9.4,22.5c-7.8,5-22.4,7-50.4,7c-26.2,0-40-2.5-47.6-8.6c-7.1-5.7-10.1-16.1-10.1-35.9
				c0-19.9,3-29.8,10.7-35.4C595.7,144.9,610.6,142.5,638.9,142.5 M1643.1,95.2h-36.7l0,0v56.5c-8.1-11-15.4-16.9-44.8-16.9
				c-47,0-55.8,12.5-55.8,50.7c0,38.9,12.5,49.9,58,49.9c28.6,0,37.4-7.3,44.1-19.8v17.6h35.2L1643.1,95.2L1643.1,95.2z
				 M1577.8,206.7c-27.9,0-35.2-0.8-35.2-20.6c0-22.8,8.8-23.5,38.2-23.5c19.8,0,26.4,2.9,26.4,18.3
				C1607.1,204.5,1605.7,206.7,1577.8,206.7L1577.8,206.7z M1274.6,134.1c-27.9,0-37.5,9.5-41.8,21.3c-7.3-12.5-17.6-21.3-45.5-21.3
				c-25.7,0-32.3,8.8-37.4,25v-22.7l0,0h-33v96.9h35.2v-49.9c0-14.7,8.8-19.8,26.4-19.8c18.4,0,23.5,5.9,23.5,25v44.8h36V182
				c0-13.9,10.3-18.3,27.2-18.3c16.1,0,24.2,5.1,24.2,18.3v51.4h35.2v-57.3C1324.6,147.3,1307,134.1,1274.6,134.1L1274.6,134.1z
				 M1038.2,134.1c-27.9,0-38.2,10.3-41.9,21.3c-7.3-12.5-17.6-21.3-45.5-21.3c-26.4,0-33.8,8.8-38.2,25v-22.7h-33v96.9h35.2v-49.9
				c0-14.7,7.3-19.8,27.2-19.8c18.4,0,23.5,6.6,23.5,25v44.8h36V182c0-13.9,11-18.3,27.9-18.3c16.2,0,23.5,4.4,23.5,18.3v51.4h35.2
				v-57.3C1088.2,147.3,1070.5,134.1,1038.2,134.1L1038.2,134.1z M1891.9,134.1c-21.3,0-28.6,4.4-36.7,20.6v-18.3l0,0h-33.8v96.9
				h35.2v-50.6c0-13.2,8.1-19.8,22.8-19.8c14.7,0,18.4,4.4,19.1,16.9h33C1931.6,146.6,1927.2,134.1,1891.9,134.1L1891.9,134.1z
				 M1732.6,135.6c-60.2,0-67.5,9.5-67.5,50.7c0,41.8,10.3,50.7,67.5,50.7h0.1c61.6,0,67.4-10.3,67.4-53.6
				C1800.1,143.6,1789.1,135.6,1732.6,135.6L1732.6,135.6z M1733.3,208.9c-29.4,0-33-2.9-33-23.5c0-19.8,4.4-22,30.1-22
				c28.6,0,33.8,0.7,33.8,22C1764.1,205.2,1760.5,208.9,1733.3,208.9L1733.3,208.9z M1415.5,135.6c-60.9,0-68.3,10.3-68.3,51.4
				s10.3,49.9,68.3,49.9h0.1c61.6,0,68.2-10.3,68.2-53.6C1483.8,143.6,1472.1,135.6,1415.5,135.6L1415.5,135.6z M1416.2,208.9
				c-29.4,0-33-2.9-33-23.5l0,0c0-19.8,4.4-22,30.1-22c28.6,0,33.8,0.7,33.8,22C1447.1,205.2,1443.4,208.9,1416.2,208.9
				L1416.2,208.9z M789.5,135.6c-60.9,0-68.3,9.5-68.3,50.7c0,41.8,10.3,50.7,68.3,50.7h0.1c61.6,0,67.5-10.3,67.5-53.6
				C857,143.6,846,135.6,789.5,135.6L789.5,135.6z M790.2,208.9c-28.6,0-32.3-2.9-32.3-23.5c0-19.8,4.4-22,29.4-22
				c28.6,0,33.8,0.7,33.8,22C821,205.2,817.3,208.9,790.2,208.9L790.2,208.9z M912.8,136.3L912.8,136.3L912.8,136.3L912.8,136.3z
				 M2007.2,136.3c-52.9,0-64.6,9.5-64.6,51.4c0,38.9,15.4,48.5,58,49.2c47.7,0,70.5-2.2,70.5-33.8h-34.6c-1.5,7.3-4.4,11-19.1,11
				c-33.8,0-38.9-2.9-38.9-19.8h92.5C2069.6,147.3,2069.6,136.3,2007.2,136.3L2007.2,136.3z M1977.8,173.7c1.5-10.3,4.4-14,27.9-14
				c25.7,0,29.4,1.5,30.8,14H1977.8L1977.8,173.7z M638.9,136.3c-55.8,0-68.3,8.8-68.3,49.9s11.7,50.7,63.9,50.7
				c55.1,0,66.1-7.3,66.1-41.9h-35.2c0,9.5-3.7,14-30.8,14c-23.5,0-28.6-5.9-28.6-25c0-18.4,5.1-18.4,33-18.4
				c20.5,0,24.2,2.2,26.4,11.7h35.2C697.7,144.4,688.1,136.3,638.9,136.3L638.9,136.3z"/>
		</g>
		<g>
			<g>
				
					<linearGradient id="SVGID_00000140701828314837813520000005467207453857633666_" gradientUnits="userSpaceOnUse" x1="-1191.8365" y1="10753.582" x2="-1191.8365" y2="10999.1182" gradientTransform="matrix(1 0 0 -1 1524 11063.7012)">
					<stop  offset="0" style="stop-color:#B4BFC9"/>
					<stop  offset="1" style="stop-color:#F5F6FF"/>
				</linearGradient>
				<path style="fill:url(#SVGID_00000140701828314837813520000005467207453857633666_);" d="M378.8,310.1
					C311.1,310.1,256,255,256,187.4S311.1,64.6,378.8,64.6c9.9,0,19.8,1.2,29.5,3.6V124c-9.2-4.3-19.3-6.5-29.5-6.5
					c-38.5,0-69.9,31.3-69.9,69.9s31.3,69.9,69.9,69.9c10.2,0,20.3-2.2,29.5-6.5v55.9C398.6,308.9,388.7,310.1,378.8,310.1z"/>
				<path class="st19" d="M378.8,67.6c8.9,0,17.7,1,26.4,2.9v48.8c-8.4-3.3-17.3-5-26.4-5c-40.2,0-73,32.7-73,73s32.7,73,73,73
					c9,0,18-1.7,26.4-5V304c-8.7,1.9-17.5,2.9-26.4,2.9c-32,0-62.1-12.5-84.7-35.1S259,219.1,259,187.2s12.5-62.1,35.1-84.7
					C316.7,80.1,346.8,67.6,378.8,67.6 M378.8,61.4c-69.5,0-125.9,56.4-125.9,125.9s56.4,125.9,125.9,125.9
					c11.3,0,22.2-1.5,32.6-4.3v-63.4c-9.6,5.4-20.7,8.5-32.6,8.5c-36.8,0-66.8-29.9-66.8-66.8c0-36.8,29.9-66.8,66.8-66.8
					c11.8,0,22.9,3.1,32.6,8.5V65.7C400.9,62.9,390,61.4,378.8,61.4L378.8,61.4z"/>
			</g>
			<g>
				<g>
					
						<linearGradient id="SVGID_00000036942158267899464450000012229007117513793449_" gradientUnits="userSpaceOnUse" x1="-1060.0209" y1="10884.0479" x2="-1060.0209" y2="10928.2363" gradientTransform="matrix(1 0 0 -1 1524 11063.7012)">
						<stop  offset="0" style="stop-color:#B4BFC9"/>
						<stop  offset="1" style="stop-color:#F5F6FF"/>
					</linearGradient>
					<polygon style="fill:url(#SVGID_00000036942158267899464450000012229007117513793449_);" points="414.4,179.7 414.4,135.5 
						513.6,135.5 469.4,179.7 					"/>
					<path class="st19" d="M506.1,138.6l-38,38h-4h-16.7h-30v-38h30h16.7H506.1 M521.1,132.4h-56.9h-16.7h-36.2v50.4h36.2h16.7h6.5
						L521.1,132.4L521.1,132.4z"/>
				</g>
				<g>
					
						<linearGradient id="SVGID_00000148633329896457317130000008449957193850461837_" gradientUnits="userSpaceOnUse" x1="-1060.0209" y1="10824.5635" x2="-1060.0209" y2="10868.752" gradientTransform="matrix(1 0 0 -1 1524 11063.7012)">
						<stop  offset="0" style="stop-color:#B4BFC9"/>
						<stop  offset="1" style="stop-color:#F5F6FF"/>
					</linearGradient>
					<polygon style="fill:url(#SVGID_00000148633329896457317130000008449957193850461837_);" points="414.4,239.1 414.4,194.9 
						469.4,194.9 513.6,239.1 					"/>
					<path class="st19" d="M468.1,198l38,38h-42h-16.7h-30v-38h30h16.7H468.1 M470.7,191.9h-6.5h-16.7h-36.2v50.4h36.2h16.7h56.9
						L470.7,191.9L470.7,191.9z"/>
				</g>
			</g>
		</g>
	</g>
</g>
</svg>
