<?xml version="1.0" encoding="utf-8"?>
<!-- Generator: Adobe Illustrator 25.4.1, SVG Export Plug-In . SVG Version: 6.00 Build 0)  -->
<svg version="1.1" id="Layer_1" xmlns="http://www.w3.org/2000/svg" xmlns:xlink="http://www.w3.org/1999/xlink" x="0px" y="0px"
	 viewBox="0 0 3839 383.5" style="enable-background:new 0 0 3839 383.5;" xml:space="preserve">
<style type="text/css">
	.st0{fill-rule:evenodd;clip-rule:evenodd;fill:#002684;}
	.st1{fill-rule:evenodd;clip-rule:evenodd;fill:#12506F;}
	.st2{fill-rule:evenodd;clip-rule:evenodd;fill:#247A5B;}
	.st3{fill-rule:evenodd;clip-rule:evenodd;fill:#36A346;}
	.st4{fill-rule:evenodd;clip-rule:evenodd;fill:#48CD31;}
	.st5{fill-rule:evenodd;clip-rule:evenodd;fill:#6AD534;}
	.st6{fill-rule:evenodd;clip-rule:evenodd;fill:#8CDD37;}
	.st7{fill-rule:evenodd;clip-rule:evenodd;fill:#AFE63A;}
	.st8{fill-rule:evenodd;clip-rule:evenodd;fill:#D1EE3D;}
	.st9{fill-rule:evenodd;clip-rule:evenodd;fill:#F3F640;}
	.st10{fill-rule:evenodd;clip-rule:evenodd;fill:#F6D730;}
	.st11{fill-rule:evenodd;clip-rule:evenodd;fill:#F9B721;}
	.st12{fill-rule:evenodd;clip-rule:evenodd;fill:#FB9811;}
	.st13{fill-rule:evenodd;clip-rule:evenodd;fill:#FE7801;}
	.st14{fill-rule:evenodd;clip-rule:evenodd;fill:#FE5C13;}
	.st15{fill-rule:evenodd;clip-rule:evenodd;fill:#FE4125;}
	.st16{fill-rule:evenodd;clip-rule:evenodd;fill:#FE2537;}
	.st17{fill-rule:evenodd;clip-rule:evenodd;fill:#14A4FE;}
	.st18{fill-rule:evenodd;clip-rule:evenodd;fill:#21AECB;}
	.st19{fill-rule:evenodd;clip-rule:evenodd;fill:#2EB998;}
	.st20{fill-rule:evenodd;clip-rule:evenodd;fill:#3BC364;}
	.st21{fill-rule:evenodd;clip-rule:evenodd;fill:#24795B;}
	.st22{fill-rule:evenodd;clip-rule:evenodd;fill:#48CC31;}
	.st23{fill-rule:evenodd;clip-rule:evenodd;fill:#6AD434;}
	.st24{fill-rule:evenodd;clip-rule:evenodd;fill:#8BDC37;}
	.st25{fill-rule:evenodd;clip-rule:evenodd;fill:#AEE53A;}
	.st26{fill-rule:evenodd;clip-rule:evenodd;fill:#D0ED3D;}
	.st27{fill-rule:evenodd;clip-rule:evenodd;fill:#F2F540;}
	.st28{fill-rule:evenodd;clip-rule:evenodd;fill:#F5D630;}
	.st29{fill-rule:evenodd;clip-rule:evenodd;fill:#F8B621;}
	.st30{fill-rule:evenodd;clip-rule:evenodd;fill:#FA9711;}
	.st31{fill-rule:evenodd;clip-rule:evenodd;fill:#FD7801;}
	.st32{fill-rule:evenodd;clip-rule:evenodd;fill:#F9500E;}
	.st33{fill-rule:evenodd;clip-rule:evenodd;fill:#F6281C;}
	.st34{fill-rule:evenodd;clip-rule:evenodd;fill:#F20029;}
	.st35{fill:#002684;}
	.st36{fill:#F20029;}
	.st37{fill:#FFFFFF;}
	.st38{fill-rule:evenodd;clip-rule:evenodd;fill:#14A3FD;}
	.st39{fill-rule:evenodd;clip-rule:evenodd;fill:#3E3632;}
	.st40{fill:#282422;}
	.st41{fill:url(#SVGID_1_);}
	.st42{fill:url(#SVGID_00000181046151383570067460000000294772370223865533_);}
	.st43{fill:url(#SVGID_00000090257185461541661930000002531334694149582753_);}
	.st44{fill:url(#SVGID_00000138557408404788649140000010507871772509071502_);}
	.st45{fill:url(#SVGID_00000006677309031614552040000009734908211782691505_);}
	.st46{fill:url(#SVGID_00000119092855508346375520000010715546433031344269_);}
	.st47{fill:url(#SVGID_00000112620972155751229590000017147901743680986791_);}
	.st48{fill:url(#SVGID_00000069378504887869945380000004290423147811225770_);}
	.st49{fill:url(#SVGID_00000009567789285636497290000002401442772095686278_);}
	.st50{fill:url(#SVGID_00000136408787255542223960000001883821825305869959_);}
	.st51{fill:url(#SVGID_00000050636177808668514410000007906613583105039759_);}
	.st52{fill:url(#SVGID_00000160911886831152826220000012327077098316255381_);}
	.st53{fill:url(#SVGID_00000179616847128116252960000016998207587280401572_);}
	.st54{fill:url(#SVGID_00000124149130554122076560000017895371281112138906_);}
	.st55{fill:url(#SVGID_00000092432800900476078680000015168911933157078936_);}
	.st56{fill:url(#SVGID_00000061462674445249506980000006847082881819447471_);}
	.st57{fill:url(#SVGID_00000056426157518507606320000001482115923274984846_);}
	.st58{fill:url(#SVGID_00000170978031229855895570000003339089247107479685_);}
	.st59{fill:url(#SVGID_00000147192989265030381510000010440237256868955033_);}
	.st60{fill:url(#SVGID_00000012464343813194106150000005955044998336470412_);}
	.st61{fill:url(#SVGID_00000121964028021246636150000010406889973615081626_);}
	.st62{fill:url(#SVGID_00000164496415941617677720000015455809302934269849_);}
	.st63{fill:url(#SVGID_00000078729467306068564450000015056793260343739293_);}
	.st64{fill:url(#SVGID_00000047046177651772190950000005426542601724599485_);}
	.st65{fill:url(#SVGID_00000049915732862507551820000004322870690973898629_);}
	.st66{fill:url(#SVGID_00000179626395789586519900000003589999081134306229_);}
	.st67{fill:url(#SVGID_00000083072144040339432500000011649934454071535276_);}
	.st68{fill:url(#SVGID_00000038415312952508894420000017103574059899170734_);}
	.st69{fill:url(#SVGID_00000153696502949114962070000004636147518955706535_);}
	.st70{fill-rule:evenodd;clip-rule:evenodd;fill:#FFFFFF;}
	.st71{fill:url(#SVGID_00000106129185827819903060000009646036880877619365_);}
	.st72{fill:url(#SVGID_00000170258023913727442520000017019729163244542889_);}
	.st73{fill:url(#SVGID_00000103267222053209330520000015457517713942980994_);}
	.st74{fill:url(#SVGID_00000131355178585851322020000013360223209900746882_);}
	.st75{fill:url(#SVGID_00000031905060425953729150000012179799660019896478_);}
	.st76{fill:url(#SVGID_00000101809607736894972840000016898848857999744394_);}
	.st77{fill:url(#SVGID_00000063598781888835000780000005532437558766463669_);}
	.st78{fill:url(#SVGID_00000049910079829834316140000010215833812932959887_);}
	.st79{fill:url(#SVGID_00000049186182595044875000000015888072957255100851_);}
	.st80{fill:url(#SVGID_00000033340832617498326310000016995255294085783735_);}
	.st81{fill:url(#SVGID_00000173149143044055865210000016655573220634393489_);}
	.st82{fill:url(#SVGID_00000173155343751905844170000018366617784827114384_);}
	.st83{fill:url(#SVGID_00000154383682932674896550000014520384737293495998_);}
	.st84{fill:url(#SVGID_00000176007290965390382920000007652662694358021816_);}
	.st85{fill:url(#SVGID_00000061440103296667086110000007432856366302983840_);}
	.st86{fill:url(#SVGID_00000023248424159914467410000010439810963924535170_);}
	.st87{fill:url(#SVGID_00000142135872626470825600000006944205714580978104_);}
	.st88{fill:url(#SVGID_00000132790123285240630360000016017686017940237961_);}
	.st89{fill:url(#SVGID_00000127029067777420629290000012123278013142527666_);}
	.st90{fill:url(#SVGID_00000042008756264305839070000001942137732529002388_);}
	.st91{fill:url(#SVGID_00000149367197042711259380000000731101160096961449_);}
	.st92{fill:url(#SVGID_00000100372082360864252150000010145760669646198443_);}
	.st93{fill:url(#SVGID_00000079448290466017801300000000580426367749418416_);}
	.st94{fill:url(#SVGID_00000056399935527512884580000015670979693829221042_);}
	.st95{fill:url(#SVGID_00000002374572674865333210000014550939264907440014_);}
	.st96{fill:url(#SVGID_00000048497784620354485530000014858252617941688737_);}
	.st97{fill:url(#SVGID_00000124871273866489318980000010806020154644511628_);}
	.st98{fill:url(#SVGID_00000041987799122456600730000005869577904598022785_);}
	.st99{fill:url(#SVGID_00000000932976345783551360000012775697191361216948_);}
	.st100{fill:#0F2166;}
	.st101{fill:#FD2537;}
</style>
<g>
	<g>
		<path class="st39" d="M3647.2,0H324.8H191.8C86.3,0,0,86.3,0,191.8s86.3,191.8,191.8,191.8h3455.5c105.5,0,191.8-86.3,191.8-191.8
			S3752.7,0,3647.2,0z"/>
		<g>
			<polygon id="polygon7_00000001656786455258842800000011693801996860144811_" class="st34" points="2114,55.5 2114,55.5 
				3132,55.5 3132,83.5 2114,83.5 			"/>
			<polygon class="st31" points="2114,116.6 2114,116.6 3132,116.6 3132,144.7 2114,144.7 			"/>
			<polygon class="st27" points="2114,177.8 2114,177.8 3132,177.8 3132,205.7 2114,205.7 			"/>
			<polygon class="st22" points="2114,238.8 2114,238.8 3132,238.8 3132,266.9 2114,266.9 			"/>
			<polygon id="polygon15_00000025427389810582415990000006569259060333928854_" class="st38" points="2114,300 2114,300 3132,300 
				3132,328 2114,328 			"/>
		</g>
		<g>
			<path class="st37" d="M505.9,182.6c-1.8-16.4-20-15.9-32.8-15.9c-7,0-21.6,0.2-27.2,4.9c-5.4,4.5-5.4,16.2-5.4,22.5
				c0,6.1,0.2,14.1,4.9,18.6c5.6,5.4,21.1,5.8,28.3,5.8c4.9,0,9.7,0,14.6-0.7c9.9-1.3,15.7-4.3,17.3-14.8H546
				c-0.4,11.9-1.1,23.4-9.9,32.3c-9.2,9.7-23.4,11.7-36.2,12.4c-9.7,0.4-19.1,0.7-28.7,0.7c-17.3,0-42,0.4-56.8-9.9
				c-14.4-10.1-13.7-31.2-13.7-46.7c0-15.3-0.2-33.5,12.6-44.2c13.9-11.7,42.9-10.8,60-10.8s46.7-0.7,60.9,10.8
				c3.8,3.1,6.3,6.3,8.3,11c3.4,7.9,3.6,15.5,3.8,24L505.9,182.6L505.9,182.6z"/>
			<path class="st37" d="M714.2,211.3c-0.9,10.3-3.6,19.5-11.7,26.5c-13.7,11.9-46,10.6-62.9,10.6c-17.5,0-48.5,1.6-62.9-10.6
				c-4-3.4-6.5-7-8.5-11.7c-4.5-11-3.8-24.9-3.8-36.6c0-5.8,0-11.9,0.7-17.7c0.9-10.1,4.7-19.1,13-25.4c13.5-10.3,45.6-9.7,61.5-9.7
				c16.2,0,47.8-0.7,61.5,9.7c3.8,2.9,6.3,5.8,8.5,10.1c5.8,10.3,5.2,23.6,5.2,35C714.9,198,714.7,204.8,714.2,211.3z M670.2,172.5
				c-5.8-5.6-22.9-5.8-30.3-5.8c-7.2,0-14.6,0.2-21.6,1.6c-13.9,2.7-14.1,13.5-14.1,25.6c0,5.8-0.2,13.7,4,18.2
				c6.1,6.5,23.6,6.5,31.7,6.5c7.6,0,15.7,0,23.1-2c12.4-3.4,12.1-14.6,12.1-25.6C675.1,184.9,674.9,177,670.2,172.5z"/>
			<path class="st37" d="M928.7,245.6V196c0-22.9-2.5-29.4-26.9-29.4c-27.4,0-29.4,10.8-29.4,35.3v43.8h-39.7v-49.6v-7.4
				c0-19.3-8.3-22-26.3-22c-28.3,0-30.1,10.1-30.1,35.3v43.8h-39.7V139.5h37.5v15.9h1.8c7.4-16.4,27.2-18.6,43.1-18.6
				c20.2,0,38,3.4,48.3,22.2c8.1-19.8,26.9-22.2,46-22.2c15.5,0,32.8,1.8,44,13.7c3.8,4,6.7,8.3,8.3,13.7
				c3.1,10.3,2.9,21.3,2.9,31.9v49.6L928.7,245.6L928.7,245.6z"/>
			<path class="st37" d="M1183.5,245.6V196c0-22.9-2.5-29.4-26.9-29.4c-27.4,0-29.4,10.8-29.4,35.3v43.8h-39.7v-49.6v-7.4
				c0-19.3-8.3-22-26.3-22c-28.3,0-30.1,10.1-30.1,35.3v43.8h-39.7V139.5h37.5v15.9h1.8c7.4-16.4,27.2-18.6,43.1-18.6
				c20.2,0,38,3.4,48.3,22.2c8.1-19.8,26.9-22.2,46-22.2c15.5,0,32.8,1.8,44,13.7c3.8,4,6.7,8.3,8.3,13.7
				c3.1,10.3,2.9,21.3,2.9,31.9v49.6L1183.5,245.6L1183.5,245.6z"/>
			<path class="st37" d="M1393.6,211.3c-0.9,10.3-3.6,19.5-11.7,26.5c-13.7,11.9-46,10.6-62.9,10.6c-17.5,0-48.5,1.6-62.9-10.6
				c-4-3.4-6.5-7-8.5-11.7c-4.5-11-3.8-24.9-3.8-36.6c0-5.8,0-11.9,0.7-17.7c0.9-10.1,4.7-19.1,13-25.4c13.5-10.3,45.6-9.7,61.5-9.7
				c16.2,0,47.8-0.7,61.5,9.7c3.8,2.9,6.3,5.8,8.5,10.1c5.8,10.3,5.2,23.6,5.2,35C1394.3,198,1394.1,204.8,1393.6,211.3z
				 M1349.6,172.5c-5.8-5.6-22.9-5.8-30.3-5.8c-7.2,0-14.6,0.2-21.6,1.6c-13.9,2.7-14.1,13.5-14.1,25.6c0,5.8-0.2,13.7,4,18.2
				c6.1,6.5,23.6,6.5,31.7,6.5c7.6,0,15.7,0,23.1-2c12.4-3.4,12.1-14.6,12.1-25.6C1354.6,184.9,1354.3,177,1349.6,172.5z"/>
			<path class="st37" d="M1525.7,245.6v-13.9h-2c-2.7,4.5-4.7,7.4-9.2,10.1c-9.9,6.1-26.5,6.5-37.7,6.5c-16.4,0-38.6,0.2-51.6-11.2
				c-11.7-10.3-11.5-30.8-11.5-45.1c0-16.6,0.4-36.8,15.7-47.2c13.5-9,32.3-8.1,47.8-8.1c11.7,0,24.5-0.2,34.8,5.8
				c5.2,2.9,7,5.8,9.9,11h1.6V95.9h39.7v149.8L1525.7,245.6L1525.7,245.6z M1521.7,176.6c-4.7-10.8-21.8-9.9-31.4-9.9
				c-9.9,0-29.9-1.1-34.8,10.1c-1.8,4.5-2,10.3-2,15c0,6.3-0.2,15.9,4.5,20.9c5.4,5.8,22.7,5.8,29.9,5.8c8.1,0,18-0.4,25.6-2.9
				c10.8-3.4,10.6-13.7,10.6-23.4C1523.9,187.3,1523.7,181.3,1521.7,176.6z"/>
			<path class="st37" d="M1734.5,211.3c-0.9,10.3-3.6,19.5-11.7,26.5c-13.7,11.9-46,10.6-62.9,10.6c-17.5,0-48.5,1.6-62.9-10.6
				c-4-3.4-6.5-7-8.5-11.7c-4.5-11-3.8-24.9-3.8-36.6c0-5.8,0-11.9,0.7-17.7c0.9-10.1,4.7-19.1,13-25.4c13.5-10.3,45.6-9.7,61.5-9.7
				c16.2,0,47.8-0.7,61.5,9.7c3.8,2.9,6.3,5.8,8.5,10.1c5.8,10.3,5.2,23.6,5.2,35C1735.2,198,1734.9,204.8,1734.5,211.3z
				 M1690.6,172.5c-5.8-5.6-22.9-5.8-30.3-5.8c-7.2,0-14.6,0.2-21.6,1.6c-13.9,2.7-14.1,13.5-14.1,25.6c0,5.8-0.2,13.7,4,18.2
				c6.1,6.5,23.6,6.5,31.7,6.5c7.6,0,15.7,0,23.1-2c12.4-3.4,12.1-14.6,12.1-25.6C1695.5,184.9,1695.3,177,1690.6,172.5z"/>
			<path class="st37" d="M1879.8,186.7h-37.3c0-15.7-5.2-20-20.9-20c-24.5,0-25.2,15.5-25.2,35v44h-39.7V139.5h37.5v15.9h1.8
				c9.2-16.4,24-18.6,41.3-18.6c12.4,0,27.2,1.6,35.5,11.9c7.4,9.2,7.2,22.5,7.2,33.7C1880,183.8,1879.8,185.3,1879.8,186.7z"/>
			<path class="st37" d="M2038.4,201.2h-103.7c0,6.1-0.2,13,4.9,17.3c5.4,4.3,20.4,4.5,26.9,4.5s24.7,0.2,29-4.5
				c1.8-1.8,2.2-4.3,2.7-6.7h39.5c-0.9,10.1-2.9,18-10.6,24.9c-13.7,12.4-46.5,11.7-63.8,11.7c-15.7,0-42,0.2-55-9.9
				c-4-3.1-6.7-6.7-9-11.2c-4.9-10.3-4.5-23.1-4.5-34.1c0-6.7,0-13.5,0.7-20c1.1-10.8,4.7-20.4,13.7-26.9
				c13.9-10.1,41.8-9.4,58.2-9.4c15,0,31.4-0.4,46,3.8c23.6,7,25.2,28.5,25.2,49.9C2038.6,194,2038.6,197.6,2038.4,201.2z
				 M1998.6,177c0-4-0.2-7.2-3.1-10.3c-4.7-5.2-20.9-5.2-27.4-5.2c-6.1,0-12.1,0-18,0.9c-11.2,1.6-15.3,5.8-15.5,17.1h64V177z"/>
		</g>
		<g>
			<path class="st37" d="M3381.8,148.6c0-2.9-0.3-7-2.9-9.1c-2.6-2-6.7-2.3-9.6-2.6c-15.2-1.5-31-1.5-46.4-1.5
				c-14.3,0-29.8,0-43.8,2.6c-3.2,0.6-6.1,1.5-8.8,3.5c-6.7,5.3-6.1,19.9-6.1,27.4v7.6v3.2c3.5-3.5,7-6.4,11.4-8.8
				c16.4-9.3,49.1-8.5,67.4-8.5c19.9,0,44.1,0.3,63.1,6.4c7,2.3,12.8,5.5,18.1,10.8c11.7,11.4,12,33.3,12,48.5
				c0,27.7-4.7,52.6-35.6,58.7c-12,2.3-24.2,3.2-36.2,3.5c-17.5,0.3-34.7,0.6-52.3,0.6c-24.5,0-70.4,1.5-89.1-15.5
				c-13.4-12-14.3-35.3-14.9-52c-0.3-12.8-0.6-26-0.6-38.8c0-23.4-2.6-61.3,16.6-78c18.4-16.1,81.2-15.2,104.2-15.2
				c12.8,0,25.7,0,38.5,0.6c17.8,0.6,47.9,1.5,61.3,15.2c9.3,9.6,9.1,28.6,9.1,41.2h-55.4V148.6z M3364.9,208.1
				c-15.8-2.3-32.7-1.8-48.8-1.8c-11.7,0-23.7-0.6-35.3,1.2c-11.4,1.8-15.8,8.8-15.8,19.9c0,5,1.2,11.4,4.7,15.2
				c5.8,6.1,38.8,4.7,46.4,4.7c10.2,0,20.1-0.3,30.4-0.6c7.3-0.3,22.2,0.6,28-5c3.5-3.5,4.1-9.9,4.1-14.6
				C3378.6,216.3,3376.3,209.8,3364.9,208.1z"/>
			<path class="st37" d="M3667.9,252.5v36.2h-56.4v-36.2h-155.3v-74.5L3571.9,94h96.1v114.8h37.7v43.8H3667.9z M3611.6,139.3h-12
				l-90.5,61.9v7.6h102.5V139.3z"/>
		</g>
		<g>
			<path class="st37" d="M129.3,191.8c0-34.4,28-62.5,62.5-62.5c11.1,0,21.4,2.9,30.5,8V78c-9.7-2.6-19.9-4-30.5-4
				C126.7,74,74,126.7,74,191.8s52.7,117.8,117.8,117.8c10.5,0,20.7-1.4,30.5-4v-59.3c-9,5.1-19.4,8-30.5,8
				C157.3,254.2,129.3,226.1,129.3,191.8z"/>
			<polygon class="st37" points="222.2,187.5 277.7,187.5 324.8,140.4 222.2,140.4 			"/>
			<polygon class="st37" points="222.2,196 222.2,243.1 324.8,243.1 277.7,196 			"/>
		</g>
	</g>
</g>
</svg>
