<?xml version="1.0" encoding="utf-8"?>
<!-- Generator: Adobe Illustrator 25.0.0, SVG Export Plug-In . SVG Version: 6.00 Build 0)  -->
<svg version="1.1" id="Layer_1" xmlns="http://www.w3.org/2000/svg" xmlns:xlink="http://www.w3.org/1999/xlink" x="0px" y="0px"
	 viewBox="0 0 3840 1587.8" style="enable-background:new 0 0 3840 1587.8;" xml:space="preserve">
<style type="text/css">
	.st0{fill:#FFFFFF;}
</style>
<g>
	<g>
		<path d="M1039.7,652.4C952,733.1,750.2,722,638.8,722H282.5v226.9H0V20.5h636c51.5,0,101.6,0,153.1,1.4
			c90.5,1.4,193.5,11.1,261.7,77.9c64,62.6,64,200.4,64,282.5C1114.8,470,1109.3,588.3,1039.7,652.4z M704.2,254.3
			c-22.3,0-45.9-1.4-68.2-1.4H282.5v236.6h420.3c108.6,0,128-19.5,128-126.7C830.9,261.3,794.7,255.7,704.2,254.3z"/>
		<path d="M1192.7,948.8V20.5h1027.1V239h-748.8v135h711.2v203.2h-711.2v148.9h754.3v222.7H1192.7z"/>
		<path d="M3050.7,257.1v691.7h-296.4V257.1h-413.4V20.5h1123.2v236.6H3050.7z"/>
	</g>
	<g>
		<path d="M75.6,1582.2c0-12.1-0.9-24.6-0.9-36.6c0-25-0.5-50.1,3.7-74.7c8.3-51.5,52.9-58,97.4-61.7l116.8-9.3
			c14.8-1.4,31.1-1.4,45.4-6.5c13.4-4.6,13.4-12.5,13.4-25.5c0-8.8,0-18.5-7.9-24.1c-11.6-8.8-61.7-6.5-75.1-6.5
			c-28.3,0-58.9-1.4-87.2,3.2c-21.3,3.2-19,18.5-19,37.1v10.2H70.9v-12.5c0-25.5,0.5-60.7,19.5-80.7c21.3-22.3,68.6-23.2,96.9-24.6
			c19.9-0.9,39.9-0.9,59.8-0.9h8.8l76.5,0.5c29.7,0,67.7,0.5,90,23.2c17.2,17.6,17.2,52.9,17.2,75.6c0,23.2-0.5,47.8-13.4,68.2
			c-17.2,27.4-65.8,31.1-94.6,32.9c-22.3,1.4-44,2.8-66.3,4.2c-17.6,0.9-35.2,2.3-52.9,3.7c-7.9,0.5-27.8,1.9-35.2,4.6
			c-14.8,5.6-14.8,15.8-14.8,29.2h282.4v70.9H75.6z"/>
		<path d="M780.4,1580.3c-37.1,6-87.2,5.6-124.7,5.6c-23.2,0-45.9-0.5-69.1-0.9c-51-0.9-110.4-2.8-121.5-64.4
			c-5.1-28.7-3.7-63.5-3.7-92.7c0-18.5,0-36.6,0.5-55.2c0.5-26,2.3-55.6,21.3-75.6c12.5-13,30.1-19.5,47.8-22.3
			c37.1-6,86.7-5.6,124.7-5.6c22.7,0,45.9,0.9,68.6,1.4c79.3,1.9,125.2,10.2,125.2,102v110.4C849.4,1534.4,836.5,1571,780.4,1580.3z
			 M735.4,1355.4c-10.7-4.6-26.4-5.1-38-5.1c-18.5,0-37.1-0.5-56.1-0.5s-39.9-0.5-58.4,3.7c-5.6,1.4-11.1,3.2-15.3,7.9
			c-12.5,13-11.6,49.6-11.6,66.3c0,15.3-0.9,51.5,9.7,64c4.6,5.6,10.2,7.9,17.2,9.7c19.9,4.6,52.9,4.6,73.7,4.2l40.8-0.9
			c11.6-0.5,27.4-0.5,38-5.6c23.2-10.2,19.9-51,19.9-71.4C755.3,1407.3,758.6,1366.1,735.4,1355.4z"/>
		<path d="M1189.8,1580.3c-37.1,6-87.2,5.6-124.7,5.6c-23.2,0-45.9-0.5-69.1-0.9c-51-0.9-110.4-2.8-121.5-64.4
			c-5.1-28.7-3.7-63.5-3.7-92.7c0-18.5,0-36.6,0.5-55.2c0.5-26,2.3-55.6,21.3-75.6c12.5-13,30.1-19.5,47.8-22.3
			c37.1-6,86.7-5.6,124.7-5.6c22.7,0,45.9,0.9,68.6,1.4c79.3,1.9,125.2,10.2,125.2,102v110.4
			C1258.9,1534.4,1245.9,1571,1189.8,1580.3z M1144.8,1355.4c-10.7-4.6-26.4-5.1-38-5.1c-18.5,0-37.1-0.5-56.1-0.5
			c-19,0-39.9-0.5-58.4,3.7c-5.6,1.4-11.1,3.2-15.3,7.9c-12.5,13-11.6,49.6-11.6,66.3c0,15.3-0.9,51.5,9.7,64
			c4.6,5.6,10.2,7.9,17.2,9.7c19.9,4.6,52.9,4.6,73.7,4.2l40.8-0.9c11.6-0.5,27.4-0.5,38-5.6c23.2-10.2,19.9-51,19.9-71.4
			C1164.7,1407.3,1168,1366.1,1144.8,1355.4z"/>
		<path d="M1431.8,1582.2v-228.6h-24.1l-91.3,77l-51.9-60.7l112.7-96.9h149.3v309.3H1431.8z"/>
		<path d="M2016.5,1562.2c-22.3,24.1-70.9,23.2-101.1,23.6c-24.1,0.9-48.2,0.9-72.3,0.9c-40.3,0-89,1.4-128.4-7.4
			c-14.8-3.2-27.8-9.3-38.5-19.9c-15.8-15.3-17.6-35.2-17.6-56.1c0-7.9,0.5-15.8,0.9-23.6h90.9c0,7,0,13.4,2.3,19.9
			c1.4,4.2,3.2,7,7,9.7c8.8,7,35.2,6,45.4,6c13.4,0,26.4,0.5,39.9,0.5c16.7,0,32.9-0.5,49.6-0.5c11.6,0,40.8,1.4,48.7-9.7
			c3.2-5.1,3.2-12.1,3.2-17.6c0-23.6-18.5-22.7-37.6-23.2c-49.6-1.4-99.2-4.2-148.8-6c-26.9-0.9-61.2-1.9-80.7-23.6
			c-16.2-18.1-17.6-44-17.6-67.2c0-55.2,14.4-90,73.7-96c39.9-4.2,81.1-3.7,121.5-3.7c38.9,0,80.2-0.9,118.2,8.3
			c42.2,10.7,51,38.5,51,78.8v14.8h-91.3v-4.6c0-8.8-0.9-15.3-8.8-20.4c-8.8-6-29.7-5.6-39.9-5.6H1806c-9.7,0-37.1-0.5-45.4,5.6
			c-6,4.2-7.4,11.6-7.4,18.5c0,5.6,1.4,13,6,16.7c3.2,2.8,7.9,3.7,12.1,4.2c10.7,1.9,21.8,1.9,32.5,2.3c20.9,0.9,41.7,1.9,62.6,2.3
			c35.7,0.9,86.7,0.5,121.5,9.7c11.1,3.2,20.9,7.9,29.7,15.8c19,16.7,19.9,48.7,19.9,71.9C2037.4,1512.6,2035,1542.3,2016.5,1562.2z
			"/>
		<path d="M2360.1,1490.3h-214.2c0,12.5-0.5,26.9,10.2,35.7c11.1,8.8,42.2,9.3,55.6,9.3c13.4,0,51,0.5,59.8-9.3
			c3.7-3.7,4.6-8.8,5.6-13.9h81.6c-1.9,20.9-6,37.1-21.8,51.5c-28.3,25.5-96,24.1-131.7,24.1c-32.5,0-86.7,0.5-113.6-20.4
			c-8.3-6.5-13.9-13.9-18.5-23.2c-10.2-21.3-9.3-47.8-9.3-70.5c0-13.9,0-27.8,1.4-41.3c2.3-22.3,9.7-42.2,28.3-55.6
			c28.8-20.9,86.2-19.5,120.1-19.5c31.1,0,64.9-0.9,95.1,7.9c48.7,14.4,51.9,58.9,51.9,102.9
			C2360.6,1475.5,2360.6,1482.9,2360.1,1490.3z M2278,1440.3c0-8.3-0.5-14.8-6.5-21.3c-9.7-10.7-43.1-10.7-56.6-10.7
			c-12.5,0-25,0-37.1,1.9c-23.2,3.2-31.5,12.1-32,35.2H2278V1440.3z"/>
		<path d="M2642,1460.2h-77c0-32.5-10.7-41.3-43.1-41.3c-50.5,0-51.9,32-51.9,72.3v90.9h-82.1v-219.3h77.4v32.9h3.7
			c19-33.8,49.6-38.5,85.3-38.5c25.5,0,56.1,3.2,73.3,24.6c15.3,19,14.8,46.4,14.8,69.5C2642.5,1454.2,2642,1457.4,2642,1460.2z"/>
		<path d="M2653.1,1334.6v-61.7h82.1v61.7H2653.1z M2653.1,1582.2v-219.3h82.1v219.3H2653.1z"/>
		<path d="M3060.7,1490.3h-214.2c0,12.5-0.5,26.9,10.2,35.7c11.1,8.8,42.2,9.3,55.6,9.3c13.4,0,51,0.5,59.8-9.3
			c3.7-3.7,4.6-8.8,5.6-13.9h81.6c-1.9,20.9-6,37.1-21.8,51.5c-28.3,25.5-96,24.1-131.7,24.1c-32.5,0-86.7,0.5-113.6-20.4
			c-8.3-6.5-13.9-13.9-18.5-23.2c-10.2-21.3-9.3-47.8-9.3-70.5c0-13.9,0-27.8,1.4-41.3c2.3-22.3,9.7-42.2,28.3-55.6
			c28.8-20.9,86.2-19.5,120.1-19.5c31.1,0,64.9-0.9,95.1,7.9c48.7,14.4,51.9,58.9,51.9,102.9
			C3061.2,1475.5,3061.2,1482.9,3060.7,1490.3z M2978.6,1440.3c0-8.3-0.5-14.8-6.5-21.3c-9.7-10.7-43.1-10.7-56.6-10.7
			c-12.5,0-25,0-37.1,1.9c-23.2,3.2-31.5,12.1-32,35.2h132.1V1440.3z"/>
		<path d="M3368.6,1563.6c-25.5,25.5-105.7,24.1-138.6,24.1c-35.7,0-98.8,2.8-127.5-22.7c-15.8-13.9-19-32.5-19.5-52.9h83.5
			c1.9,19.9,22.3,22.3,38,23.6c10.2,0.9,20.4,0.9,30.6,0.9c14.4,0,53.3,0.9,64.4-9.3c3.2-2.8,4.6-7,4.6-11.1
			c0-18.1-25.5-17.2-38-17.2c-15.3,0-30.6-0.5-45.9-0.5c-15.8,0-31.5,0-47.3,0c-49.1,0-88.1-11.6-88.1-68.2
			c0-34.8,13.9-58,48.7-66.3c32-7.4,70-7,102.5-7c34.3,0,94.1-2.3,121,19.9c14.4,12.1,16.2,30.1,17.6,47.8h-83.5
			c-0.9-4.6-1.9-7.9-6-10.7c-8.8-6-41.7-6-51.9-6c-13.4,0-49.6-0.5-61.2,7.4c-3.2,2.8-5.1,6-5.1,10.2c0,12.1,9.7,13.9,19.5,14.8
			c20.9,1.9,45,1.4,65.8,1.4l45.9,0.5c51.5,0.5,87.6,10.2,87.6,68.6C3385.7,1529.8,3382.5,1549.7,3368.6,1563.6z"/>
	</g>
	<g>
		<path d="M3548.5,0h113.9v21.3h-44.7v119.4H3593V21.3h-44.5V0z"/>
		<path d="M3694,0h34.7l38.8,110.1h0.4L3805.7,0h34.3v140.6h-23.4V32.1h-0.4l-39,108.5h-20.3l-39-108.5h-0.4v108.5H3694V0z"/>
	</g>
</g>
</svg>
