<?xml version="1.0" encoding="utf-8"?>
<!-- Generator: Adobe Illustrator 25.0.0, SVG Export Plug-In . SVG Version: 6.00 Build 0)  -->
<svg version="1.1" id="Layer_1" xmlns="http://www.w3.org/2000/svg" xmlns:xlink="http://www.w3.org/1999/xlink" x="0px" y="0px"
	 viewBox="0 0 3840 2306.9" style="enable-background:new 0 0 3840 2306.9;" xml:space="preserve">
<style type="text/css">
	.st0{fill:#FFFFFF;}
</style>
<g>
	<g>
		<path d="M0,405.4h753.7c397.3,0,536.6,282.3,536.6,485.2c0,344-237.6,505-573.4,505H450.6v429.5H0V405.4z M450.6,1057.6h174.1
			c116.7,0,239.6-8,239.6-151.1c0-129.2-102.4-137.2-213-137.2H450.6V1057.6z"/>
		<path d="M1318.9,405.4h1210.4v363.9h-759.8v177h690.2v338h-690.2v177h782.3v363.9H1318.9V405.4z"/>
		<path d="M2979.8,769.2h-409.6V405.4H3840v363.9h-409.6v1055.8h-450.6V769.2z"/>
	</g>
	<g>
		<path d="M89.2,55H0V0h243.9v55h-89.2v242.7H89.2V55z"/>
		<path d="M253.1,0h59.2v112.2h1.3c15-24.2,40.9-35.9,63-35.9c63,0,78.8,35.4,78.8,88.8v132.6h-59.2V176c0-35.4-10.4-53-37.9-53
			c-32.1,0-45.9,17.9-45.9,61.7v113h-59.2V0z"/>
		<path d="M530.4,204.3c1.7,37.5,20,54.6,53,54.6c23.8,0,42.9-14.6,46.7-27.9h52.1c-16.7,50.9-52.1,72.5-100.9,72.5
			c-68,0-110.1-46.7-110.1-113.4c0-64.6,44.6-113.8,110.1-113.8c73.4,0,108.8,61.7,104.7,128H530.4z M626.7,166.8
			c-5.4-30-18.3-45.9-47.1-45.9c-37.5,0-48.4,29.2-49.2,45.9H626.7z"/>
	</g>
	<g>
		<path d="M0,1933.3h134.3c74.2,0,103,47.1,103,95.5c0,48.4-28.8,95.5-103,95.5H65.5V2231H0V1933.3z M65.5,2073.4h50.9
			c30.4,0,57.5-6.7,57.5-44.6c0-37.9-27.1-44.6-57.5-44.6H65.5V2073.4z"/>
		<path d="M295.6,2137.6c1.7,37.5,20,54.6,53,54.6c23.8,0,42.9-14.6,46.7-27.9h52.1c-16.7,50.9-52.1,72.5-100.9,72.5
			c-68,0-110.1-46.7-110.1-113.4c0-64.6,44.6-113.8,110.1-113.8c73.4,0,108.8,61.7,104.7,128H295.6z M391.9,2100.1
			c-5.4-30-18.3-45.9-47.1-45.9c-37.5,0-48.4,29.2-49.2,45.9H391.9z"/>
		<path d="M461.2,2015.4h56.3v40h0.8c10.8-27.1,40-45.9,68.8-45.9c4.2,0,9.2,0.8,12.9,2.1v55c-5.4-1.3-14.2-2.1-21.3-2.1
			c-43.4,0-58.4,31.3-58.4,69.2v97.1h-59.2V2015.4z"/>
		<path d="M644.2,2161c0.4,25.9,22.1,36.3,45.4,36.3c17.1,0,38.8-6.7,38.8-27.5c0-17.9-24.6-24.2-67.1-33.4
			c-34.2-7.5-68.4-19.6-68.4-57.5c0-55,47.5-69.2,93.8-69.2c47.1,0,90.5,15.8,95.1,68.8h-56.3c-1.7-22.9-19.2-29.2-40.4-29.2
			c-13.3,0-32.9,2.5-32.9,20c0,21.3,33.4,24.2,67.1,32.1c34.6,7.9,68.4,20.4,68.4,60.5c0,56.7-49.2,75.1-98.4,75.1
			c-50,0-98.8-18.8-101.3-75.9H644.2z"/>
		<path d="M901.9,2009.6c68,0,111.7,45,111.7,113.8c0,68.4-43.8,113.4-111.7,113.4c-67.5,0-111.3-45-111.3-113.4
			C790.6,2054.6,834.4,2009.6,901.9,2009.6z M901.9,2192.2c40.4,0,52.5-34.6,52.5-68.8c0-34.6-12.1-69.2-52.5-69.2
			c-40,0-52.1,34.6-52.1,69.2C849.8,2157.6,861.9,2192.2,901.9,2192.2z"/>
		<path d="M1027,2015.4h56.3v30h1.3c15-24.2,40.9-35.9,65.9-35.9c63,0,78.8,35.4,78.8,88.8V2231H1170v-121.7c0-35.4-10.4-53-37.9-53
			c-32.1,0-45.9,17.9-45.9,61.7v113H1027V2015.4z"/>
		<path d="M1246.7,2081.7c3.3-55.5,53-72.1,101.3-72.1c42.9,0,94.6,9.6,94.6,61.3v112.2c0,19.6,2.1,39.2,7.5,47.9h-60
			c-2.1-6.7-3.8-13.8-4.2-20.8c-18.8,19.6-46.3,26.7-72.6,26.7c-40.9,0-73.4-20.4-73.4-64.6c0-48.8,36.7-60.5,73.4-65.5
			c36.3-5.4,70-4.2,70-28.4c0-25.4-17.5-29.2-38.4-29.2c-22.5,0-37.1,9.2-39.2,32.5H1246.7z M1383.5,2125.5
			c-10,8.8-30.9,9.2-49.2,12.5c-18.3,3.8-35,10-35,31.7c0,22.1,17.1,27.5,36.3,27.5c46.3,0,47.9-36.7,47.9-49.6V2125.5z"/>
		<path d="M1465.2,1933.3h59.2V2231h-59.2V1933.3z"/>
		<path d="M1841.7,2033.4c-4.2-29.6-32.5-52.1-65-52.1c-58.8,0-80.9,50-80.9,102.2c0,49.6,22.1,99.7,80.9,99.7
			c40,0,62.5-27.5,67.5-66.7h63.4c-6.7,74.2-58,121.7-130.9,121.7c-92.1,0-146.3-68.8-146.3-154.7c0-88.4,54.2-157.2,146.3-157.2
			c65.5,0,120.5,38.4,128.4,107.2H1841.7z"/>
		<path d="M2025.6,2009.6c68,0,111.7,45,111.7,113.8c0,68.4-43.8,113.4-111.7,113.4c-67.5,0-111.3-45-111.3-113.4
			C1914.3,2054.6,1958.1,2009.6,2025.6,2009.6z M2025.6,2192.2c40.4,0,52.5-34.6,52.5-68.8c0-34.6-12.1-69.2-52.5-69.2
			c-40,0-52.1,34.6-52.1,69.2C1973.5,2157.6,1985.6,2192.2,2025.6,2192.2z"/>
		<path d="M2152.4,2015.4h55.9v29.2h0.8c15.4-22.1,37.9-35,65.9-35c27.1,0,51.3,10,63,35.9c12.5-18.8,35-35.9,65-35.9
			c45.9,0,78.8,21.3,78.8,77.1V2231h-59.2v-122.2c0-28.8-2.5-52.5-36.3-52.5c-33.4,0-39.6,27.5-39.6,54.6V2231h-59.2v-120.9
			c0-25,1.7-53.8-35.9-53.8c-11.7,0-40,7.5-40,49.6V2231h-59.2V2015.4z"/>
		<path d="M2503.5,2015.4h56.3v27.5h0.8c14.2-22.9,37.5-33.4,64.2-33.4c67.5,0,98,54.6,98,115.9c0,57.5-31.7,111.3-94.6,111.3
			c-25.9,0-50.4-11.3-64.6-32.5h-0.8v102.6h-59.2V2015.4z M2663.6,2123.8c0-34.2-13.8-69.6-51.7-69.6c-38.8,0-51.3,34.6-51.3,69.6
			s13.3,68.4,51.7,68.4C2651.1,2192.2,2663.6,2158.9,2663.6,2123.8z"/>
		<path d="M2935.5,2231h-56.3v-30h-1.3c-15,24.2-40.9,35.9-65.9,35.9c-63,0-78.8-35.4-78.8-88.8v-132.6h59.2v121.7
			c0,35.4,10.4,53,37.9,53c32.1,0,45.9-17.9,45.9-61.7v-113h59.2V2231z"/>
		<path d="M3030.5,2015.4h43.4v39.6h-43.4v106.7c0,20,5,25,25,25c6.3,0,12.1-0.4,18.3-1.7v46.3c-10,1.7-22.9,2.1-34.6,2.1
			c-36.3,0-68-8.3-68-51.3v-127.2h-35.9v-39.6h35.9v-64.6h59.2V2015.4z"/>
		<path d="M3126,2137.6c1.7,37.5,20,54.6,53,54.6c23.8,0,42.9-14.6,46.7-27.9h52.1c-16.7,50.9-52.1,72.5-100.9,72.5
			c-68,0-110.1-46.7-110.1-113.4c0-64.6,44.6-113.8,110.1-113.8c73.4,0,108.8,61.7,104.7,128H3126z M3222.3,2100.1
			c-5.4-30-18.3-45.9-47.1-45.9c-37.5,0-48.4,29.2-49.2,45.9H3222.3z"/>
		<path d="M3291.6,2015.4h56.3v40h0.8c10.8-27.1,40-45.9,68.8-45.9c4.2,0,9.2,0.8,12.9,2.1v55c-5.4-1.3-14.2-2.1-21.3-2.1
			c-43.4,0-58.4,31.3-58.4,69.2v97.1h-59.2V2015.4z"/>
	</g>
	<g>
		<path d="M3607.4,807.1h100.3v18.7h-39.4V931h-21.7V825.8h-39.2V807.1z"/>
		<path d="M3711.4,807.1h30.6l34.2,97h0.3l33.3-97h30.2V931h-20.7v-95.6h-0.3l-34.4,95.6h-17.9l-34.4-95.6h-0.3V931h-20.7V807.1z"/>
	</g>
</g>
</svg>
