<?xml version="1.0" encoding="utf-8"?>
<!-- Generator: Adobe Illustrator 25.4.1, SVG Export Plug-In . SVG Version: 6.00 Build 0)  -->
<svg version="1.1" id="Layer_1" xmlns="http://www.w3.org/2000/svg" xmlns:xlink="http://www.w3.org/1999/xlink" x="0px" y="0px"
	 viewBox="0 0 3838.8 1400.5" style="enable-background:new 0 0 3838.8 1400.5;" xml:space="preserve">
<style type="text/css">
	.st0{fill-rule:evenodd;clip-rule:evenodd;fill:#3E3632;}
	.st1{fill:#282422;}
	.st2{fill:#C5C5C5;}
	.st3{fill:#020202;stroke:#000000;stroke-width:4.7827;stroke-linecap:round;stroke-linejoin:round;stroke-miterlimit:10;}
	.st4{clip-path:url(#SVGID_00000100372301850731243990000003096097265235910060_);}
	.st5{fill:#002684;stroke:#231F20;stroke-width:0.7971;stroke-linecap:round;stroke-linejoin:round;stroke-miterlimit:10;}
	.st6{fill:#00771F;}
	.st7{fill:#89BC27;}
	.st8{fill:#FCEC01;}
	.st9{fill:#F17100;}
	.st10{fill:#E50069;}
	.st11{clip-path:url(#SVGID_00000000923911237505405680000006148806723834585263_);}
	.st12{stroke:#000000;stroke-width:4.7827;stroke-linecap:round;stroke-linejoin:round;stroke-miterlimit:10;}
	.st13{fill:#FFFFFF;stroke:#000000;stroke-width:4.7827;stroke-linecap:round;stroke-linejoin:round;stroke-miterlimit:10;}
	.st14{fill:#020202;}
	.st15{fill:none;stroke:#000000;stroke-width:4.7827;stroke-linecap:round;stroke-linejoin:round;stroke-miterlimit:10;}
	.st16{fill:#F20029;stroke:#000000;stroke-width:4.7827;stroke-linecap:round;stroke-linejoin:round;stroke-miterlimit:10;}
	.st17{fill:#002684;stroke:#000000;stroke-width:4.7827;stroke-linecap:round;stroke-linejoin:round;stroke-miterlimit:10;}
	.st18{fill:url(#SVGID_00000061432906055417655790000004727769262351877010_);}
	.st19{fill:#FFFFFF;}
	.st20{fill:url(#SVGID_00000124862323536758227010000007737666143622092473_);}
	.st21{fill:url(#SVGID_00000025445215498458973210000008283692882422326951_);}
	.st22{fill:url(#SVGID_00000137820932522271669580000011908126688619900345_);}
	.st23{clip-path:url(#SVGID_00000144329461886252443310000011822095587240446896_);}
	.st24{clip-path:url(#SVGID_00000026859950502320359900000003900913718413646520_);}
	.st25{clip-path:url(#SVGID_00000117665634651510977070000014894137318089954724_);}
	.st26{fill:#002684;}
	.st27{clip-path:url(#SVGID_00000154414145858000137750000000255878798845960352_);}
	.st28{clip-path:url(#SVGID_00000104679785847152503630000011569841595420758685_);}
	.st29{fill:#020202;stroke:#000000;stroke-width:4.928;stroke-linecap:round;stroke-linejoin:round;stroke-miterlimit:10;}
	.st30{fill:#FFFFFF;stroke:#000000;stroke-width:4.928;stroke-linecap:round;stroke-linejoin:round;stroke-miterlimit:10;}
	.st31{fill:#F20029;stroke:#000000;stroke-width:4.928;stroke-linecap:round;stroke-linejoin:round;stroke-miterlimit:10;}
	.st32{fill:#002684;stroke:#000000;stroke-width:4.928;stroke-linecap:round;stroke-linejoin:round;stroke-miterlimit:10;}
	.st33{fill:none;stroke:#000000;stroke-width:4.928;stroke-linecap:round;stroke-linejoin:round;stroke-miterlimit:10;}
	.st34{clip-path:url(#SVGID_00000032606508682822271260000017333380617075727254_);}
	.st35{clip-path:url(#SVGID_00000080178571622841451980000008674075043780457866_);}
	.st36{clip-path:url(#SVGID_00000173127728174453468570000005571582101956255115_);}
	.st37{fill:url(#SVGID_00000029042052672119005310000015884967469858783664_);}
	.st38{fill:url(#SVGID_00000165204119415522607110000013691890150848494476_);}
	.st39{fill:url(#SVGID_00000176002202183642109800000006054680450684022431_);}
	.st40{fill:url(#SVGID_00000137843598074703393330000018403418583543165339_);}
	.st41{clip-path:url(#SVGID_00000110468976424772343640000002501772617514356885_);}
	.st42{fill:#231F20;}
	.st43{clip-path:url(#SVGID_00000090999779450988861710000006806385088104184219_);}
	.st44{clip-path:url(#SVGID_00000125572562808672127350000001058145845329353662_);}
	.st45{fill:#F20029;}
	.st46{clip-path:url(#SVGID_00000124872076193912006220000007774382620192147131_);}
	.st47{clip-path:url(#SVGID_00000043440519999951917280000001754734482424981160_);}
	.st48{clip-path:url(#SVGID_00000115516871872406999630000006331848760979528624_);}
	.st49{clip-path:url(#SVGID_00000152251490300074451570000007917624382080211114_);}
	.st50{clip-path:url(#SVGID_00000133522004726448379620000012541577214108989592_);}
	.st51{clip-path:url(#SVGID_00000063613807971596839010000017327273168509720984_);}
	.st52{fill-rule:evenodd;clip-rule:evenodd;fill:#F20029;}
	.st53{fill-rule:evenodd;clip-rule:evenodd;fill:#FD7801;}
	.st54{fill-rule:evenodd;clip-rule:evenodd;fill:#F2F540;}
	.st55{fill-rule:evenodd;clip-rule:evenodd;fill:#48CC31;}
	.st56{fill-rule:evenodd;clip-rule:evenodd;fill:#14A3FD;}
	.st57{fill:url(#SVGID_00000146468326171294697020000013077185976395835325_);}
	.st58{fill:url(#SVGID_00000077290152977933960850000003281405312101452712_);}
	.st59{fill:url(#SVGID_00000053512139319643263650000002842364383651069312_);}
	.st60{fill:url(#SVGID_00000023979618767158834890000011628952214822601856_);}
	.st61{fill:url(#SVGID_00000098904957697156615090000006803809180317764751_);}
	.st62{fill:url(#SVGID_00000069385324654881825840000014827890565990765450_);}
	.st63{fill:url(#SVGID_00000049184762838915043160000006792586662020998837_);}
	.st64{fill:url(#SVGID_00000103252785159144291950000000486154510023324809_);}
	.st65{fill:url(#SVGID_00000045595543390653125290000001912025877088912575_);}
	.st66{fill:url(#SVGID_00000138553315462387960720000001380544810649260978_);}
	.st67{fill:url(#SVGID_00000098220808477817154610000000870842050513232020_);}
	.st68{fill:url(#SVGID_00000086677365821268068900000008007146327943149235_);}
	.st69{fill:url(#SVGID_00000021837163712090238540000003605044252684693143_);}
	.st70{fill:url(#SVGID_00000029035164358923129720000002057864647921772220_);}
	.st71{fill:url(#SVGID_00000085949864570138281700000003850046016885004723_);}
	.st72{fill:url(#SVGID_00000165943476064238738720000009096852862625707451_);}
	.st73{fill:url(#SVGID_00000121265647677283459070000010776795794909568690_);}
	.st74{fill-rule:evenodd;clip-rule:evenodd;fill:#0F2166;}
	.st75{fill-rule:evenodd;clip-rule:evenodd;fill:#1D4C59;}
	.st76{fill-rule:evenodd;clip-rule:evenodd;fill:#2C774C;}
	.st77{fill-rule:evenodd;clip-rule:evenodd;fill:#3AA23E;}
	.st78{fill-rule:evenodd;clip-rule:evenodd;fill:#48CD31;}
	.st79{fill-rule:evenodd;clip-rule:evenodd;fill:#6AD534;}
	.st80{fill-rule:evenodd;clip-rule:evenodd;fill:#8CDD37;}
	.st81{fill-rule:evenodd;clip-rule:evenodd;fill:#AFE63A;}
	.st82{fill-rule:evenodd;clip-rule:evenodd;fill:#D1EE3D;}
	.st83{fill-rule:evenodd;clip-rule:evenodd;fill:#F3F640;}
	.st84{fill-rule:evenodd;clip-rule:evenodd;fill:#F6D730;}
	.st85{fill-rule:evenodd;clip-rule:evenodd;fill:#F9B721;}
	.st86{fill-rule:evenodd;clip-rule:evenodd;fill:#FB9811;}
	.st87{fill-rule:evenodd;clip-rule:evenodd;fill:#FE7801;}
	.st88{fill-rule:evenodd;clip-rule:evenodd;fill:#FE5C13;}
	.st89{fill-rule:evenodd;clip-rule:evenodd;fill:#FE4125;}
	.st90{fill-rule:evenodd;clip-rule:evenodd;fill:#FE2537;}
	.st91{fill-rule:evenodd;clip-rule:evenodd;fill:#14A4FE;}
	.st92{fill-rule:evenodd;clip-rule:evenodd;fill:#21AECB;}
	.st93{fill-rule:evenodd;clip-rule:evenodd;fill:#2EB998;}
	.st94{fill-rule:evenodd;clip-rule:evenodd;fill:#3BC364;}
	.st95{fill-rule:evenodd;clip-rule:evenodd;fill:#C5C5C5;}
	.st96{fill:#020202;stroke:#000000;stroke-width:4.7334;stroke-linecap:round;stroke-linejoin:round;stroke-miterlimit:10;}
	.st97{clip-path:url(#SVGID_00000117667448769793176630000008290779195276181889_);}
	.st98{fill:#002684;stroke:#231F20;stroke-width:0.7889;stroke-linecap:round;stroke-linejoin:round;stroke-miterlimit:10;}
	.st99{clip-path:url(#SVGID_00000140726686369377111990000017302869407721424303_);}
	.st100{stroke:#000000;stroke-width:4.7334;stroke-linecap:round;stroke-linejoin:round;stroke-miterlimit:10;}
	.st101{fill:#FFFFFF;stroke:#000000;stroke-width:4.7334;stroke-linecap:round;stroke-linejoin:round;stroke-miterlimit:10;}
	.st102{fill:none;stroke:#000000;stroke-width:4.7334;stroke-linecap:round;stroke-linejoin:round;stroke-miterlimit:10;}
	.st103{fill:#F20029;stroke:#000000;stroke-width:4.7334;stroke-linecap:round;stroke-linejoin:round;stroke-miterlimit:10;}
	.st104{fill:#002684;stroke:#000000;stroke-width:4.7334;stroke-linecap:round;stroke-linejoin:round;stroke-miterlimit:10;}
	.st105{fill:url(#SVGID_00000014610151803211329170000009699448205701172919_);}
	.st106{fill:url(#SVGID_00000118381672193900347410000010351644198724672387_);}
	.st107{fill:url(#SVGID_00000010288049457594468780000013194279618496565684_);}
	.st108{fill:url(#SVGID_00000094600385225942794740000011512308968787262351_);}
	.st109{clip-path:url(#SVGID_00000174603019828030574350000016217626059029494155_);}
	.st110{clip-path:url(#SVGID_00000021808712581653914770000010998548164203518605_);}
	.st111{clip-path:url(#SVGID_00000090265119806546351420000012065862614033256860_);}
	.st112{clip-path:url(#SVGID_00000076578145089115841500000015559477725254306178_);}
	.st113{clip-path:url(#SVGID_00000178907632911987977840000011243404985802030748_);}
	.st114{fill:#020202;stroke:#000000;stroke-width:4.8772;stroke-linecap:round;stroke-linejoin:round;stroke-miterlimit:10;}
	.st115{fill:#FFFFFF;stroke:#000000;stroke-width:4.8772;stroke-linecap:round;stroke-linejoin:round;stroke-miterlimit:10;}
	.st116{fill:#F20029;stroke:#000000;stroke-width:4.8772;stroke-linecap:round;stroke-linejoin:round;stroke-miterlimit:10;}
	.st117{fill:#002684;stroke:#000000;stroke-width:4.8772;stroke-linecap:round;stroke-linejoin:round;stroke-miterlimit:10;}
	.st118{fill:none;stroke:#000000;stroke-width:4.8772;stroke-linecap:round;stroke-linejoin:round;stroke-miterlimit:10;}
	.st119{fill:url(#SVGID_00000137116711315781351530000005672740199765795001_);}
	.st120{fill:url(#SVGID_00000163067120824548651870000013172690273286308751_);}
	.st121{fill:url(#SVGID_00000030473160327059697340000015020446402106250130_);}
	.st122{fill:url(#SVGID_00000084527642927735565110000003659636885981506201_);}
	.st123{clip-path:url(#SVGID_00000117676841328515314290000017712560968103476926_);}
	.st124{clip-path:url(#SVGID_00000010309779845842461820000018430787462855912342_);}
	.st125{clip-path:url(#SVGID_00000065053181877893085490000015355883988036302766_);}
	.st126{fill-rule:evenodd;clip-rule:evenodd;fill:#FFFFFF;}
	.st127{fill:url(#SVGID_00000068652962903141720500000000670589347695170229_);}
	.st128{fill:url(#SVGID_00000078041047878240376780000017592804301197442196_);}
	.st129{fill:url(#SVGID_00000067219650774947636120000011859037188168277158_);}
	.st130{fill:url(#SVGID_00000073682516793868352910000003258852789565177217_);}
	.st131{fill:url(#SVGID_00000039852122514314030860000018423104197000973449_);}
	.st132{fill:url(#SVGID_00000006700533528367961900000016942171511481865868_);}
	.st133{fill:url(#SVGID_00000111907954707316701500000008282991677401521800_);}
	.st134{fill:url(#SVGID_00000041263784519715102810000004348222127544504497_);}
	.st135{fill:url(#SVGID_00000134964512061133361030000008969191309642169266_);}
	.st136{fill:url(#SVGID_00000139286457578318784200000001851950069175597727_);}
	.st137{fill:url(#SVGID_00000183225528270727008660000001897007979740553380_);}
	.st138{fill:url(#SVGID_00000128484425899293584270000017959447824733080505_);}
	.st139{fill:url(#SVGID_00000034798775235047552430000013802213311754790047_);}
	.st140{fill:url(#SVGID_00000148630552764713537590000005732406886728401059_);}
	.st141{fill:url(#SVGID_00000163074013342858265870000005060449300160360627_);}
	.st142{fill:url(#SVGID_00000034791680694583257250000003798765309797502606_);}
	.st143{fill:url(#SVGID_00000023965943850455311290000012321107633353153410_);}
	.st144{fill-rule:evenodd;clip-rule:evenodd;fill:#002684;}
	.st145{fill-rule:evenodd;clip-rule:evenodd;fill:#12506F;}
	.st146{fill-rule:evenodd;clip-rule:evenodd;fill:#24795B;}
	.st147{fill-rule:evenodd;clip-rule:evenodd;fill:#36A346;}
	.st148{fill-rule:evenodd;clip-rule:evenodd;fill:#6AD434;}
	.st149{fill-rule:evenodd;clip-rule:evenodd;fill:#8BDC37;}
	.st150{fill-rule:evenodd;clip-rule:evenodd;fill:#AEE53A;}
	.st151{fill-rule:evenodd;clip-rule:evenodd;fill:#D0ED3D;}
	.st152{fill-rule:evenodd;clip-rule:evenodd;fill:#F5D630;}
	.st153{fill-rule:evenodd;clip-rule:evenodd;fill:#F8B621;}
	.st154{fill-rule:evenodd;clip-rule:evenodd;fill:#FA9711;}
	.st155{fill-rule:evenodd;clip-rule:evenodd;fill:#F9500E;}
	.st156{fill-rule:evenodd;clip-rule:evenodd;fill:#F6281C;}
	.st157{clip-path:url(#SVGID_00000026877546164213773270000002663494343726741888_);}
	.st158{clip-path:url(#SVGID_00000103228462800206378790000005564427973765444284_);}
	.st159{clip-path:url(#SVGID_00000164481628960114788190000017356297519961611432_);}
	.st160{clip-path:url(#SVGID_00000139273952883417569570000002350715180830675077_);}
	.st161{clip-path:url(#SVGID_00000054238228817793487480000016606863208838081961_);}
	.st162{clip-path:url(#SVGID_00000121246199948947362240000015945557696436546962_);}
	.st163{clip-path:url(#SVGID_00000101815897449169162930000001127811448634256265_);}
	.st164{clip-path:url(#SVGID_00000145755151837985474890000017553072593086567095_);}
	.st165{clip-path:url(#SVGID_00000050625800988479536770000015391345430171092878_);}
	.st166{clip-path:url(#SVGID_00000023243823621961875290000012710400220795976118_);}
	.st167{clip-path:url(#SVGID_00000087409785466976161750000005393732596961095603_);}
	.st168{clip-path:url(#SVGID_00000118368823502297307720000006961963308650336444_);}
	.st169{clip-path:url(#SVGID_00000103241339788152312420000006938240753918853050_);}
	.st170{clip-path:url(#SVGID_00000116944041011997622900000015109708135098725028_);}
	.st171{clip-path:url(#SVGID_00000180330074618026246560000010035117227398588087_);}
	.st172{clip-path:url(#SVGID_00000155116875106579736320000008138067495359849662_);}
	.st173{clip-path:url(#SVGID_00000030459315510669143770000012207145590408094655_);}
	.st174{clip-path:url(#SVGID_00000157293377745573854800000003321932865151824001_);}
	.st175{clip-path:url(#SVGID_00000162339022120420424200000013858191455184130955_);}
	.st176{clip-path:url(#SVGID_00000054248766446243556580000011248183300763501184_);}
	.st177{clip-path:url(#SVGID_00000006674431753790288130000007587822948370603191_);}
	.st178{clip-path:url(#SVGID_00000078043417243498932780000014197548921464205478_);}
	.st179{clip-path:url(#SVGID_00000052089989850605744070000006282076400925910198_);}
	.st180{clip-path:url(#SVGID_00000147926745258203403350000008487844456863591837_);}
	.st181{clip-path:url(#SVGID_00000054944348848013072460000016210925322489320376_);}
	.st182{clip-path:url(#SVGID_00000000194516142754303890000008449457395483872386_);}
	.st183{clip-path:url(#SVGID_00000146494381529199440990000011106138044712495491_);}
</style>
<g>
	<g>
		<g>
			<g>
				<g>
					<polygon class="st14" points="930.5,242 864.9,242 789.4,317.5 864.9,317.5 1009,317.5 1009,1200.6 1009,1391.6 1084.5,1316.1 
						1084.5,1190 1084.5,242 					"/>
					<path d="M1009,1400.5c-1.1,0-2.3-0.2-3.4-0.7c-3.3-1.4-5.5-4.6-5.5-8.2V326.3H789.4c-3.6,0-6.8-2.2-8.2-5.5
						c-1.4-3.3-0.6-7.1,1.9-9.6l75.5-75.5c1.7-1.7,3.9-2.6,6.2-2.6h219.5c4.9,0,8.8,4,8.8,8.8v1074.2c0,2.3-0.9,4.6-2.6,6.2
						l-75.5,75.5C1013.6,1399.6,1011.3,1400.5,1009,1400.5z M810.7,308.7h198.2c4.9,0,8.8,4,8.8,8.8v1052.9l57.8-57.8V250.9H868.6
						L810.7,308.7z"/>
				</g>
				<g>
					<polygon class="st14" points="194.4,242 84.3,242 8.7,317.5 93.3,317.5 229.8,317.5 332.2,1174.8 374.5,821 305.3,242 					"/>
					<path d="M332.2,1183.7c-4.5,0-8.2-3.3-8.8-7.8L222,326.3H8.7c-3.6,0-6.8-2.2-8.2-5.5c-1.4-3.3-0.6-7.1,1.9-9.6l75.5-75.5
						c1.7-1.7,3.9-2.6,6.2-2.6h221.1c4.5,0,8.2,3.3,8.8,7.8l69.2,579c0.1,0.7,0.1,1.4,0,2.1l-42.3,353.8
						C340.5,1180.3,336.7,1183.7,332.2,1183.7z M30.1,308.7h199.7c4.5,0,8.2,3.3,8.8,7.8l93.6,783.9L365.6,821l-68.1-570.2H87.9
						L30.1,308.7z"/>
				</g>
				<g>
					<polygon class="st14" points="620.3,242 510,242 434.6,317.5 501,317.5 655.7,317.5 536.4,1316.1 536.4,1316.1 527.4,1391.6 
						602.9,1316.1 609.9,1257.7 609.9,1257.7 731.2,242 					"/>
					<path d="M527.4,1400.5c-1.3,0-2.6-0.3-3.9-0.9c-3.4-1.6-5.4-5.3-4.9-9L645.7,326.3H434.6c-3.6,0-6.8-2.2-8.2-5.5
						c-1.4-3.3-0.6-7.1,1.9-9.6l75.5-75.5c1.7-1.7,3.9-2.6,6.2-2.6h221.1c2.5,0,4.9,1.1,6.6,3c1.7,1.9,2.5,4.4,2.2,6.9L611.7,1317.2
						c-0.2,2-1.1,3.8-2.5,5.2l-75.5,75.5C531.9,1399.6,529.7,1400.5,527.4,1400.5z M455.9,308.7h199.7c2.5,0,4.9,1.1,6.6,3
						c1.7,1.9,2.5,4.4,2.2,6.9L539.2,1367.3l55.3-55.3L721.3,250.8H513.7L455.9,308.7z"/>
				</g>
			</g>
			<g>
				<polygon class="st19" points="229.8,317.5 305.3,242 84.3,242 8.7,317.5 				"/>
				<path d="M229.8,326.3H8.7c-3.6,0-6.8-2.2-8.2-5.5c-1.4-3.3-0.6-7.1,1.9-9.6l75.5-75.5c1.7-1.7,3.9-2.6,6.2-2.6h221.1
					c3.6,0,6.8,2.2,8.2,5.5c1.4,3.3,0.6,7.1-1.9,9.6L236,323.7C234.4,325.3,232.1,326.3,229.8,326.3z M30.1,308.7h196.1l57.8-57.8
					H87.9L30.1,308.7z"/>
			</g>
			<g>
				<polygon class="st19" points="510,242 731.2,242 655.7,317.5 434.6,317.5 				"/>
				<path d="M655.7,326.3H434.6c-3.6,0-6.8-2.2-8.2-5.5c-1.4-3.3-0.6-7.1,1.9-9.6l75.5-75.5c1.7-1.7,3.9-2.6,6.2-2.6h221.1
					c3.6,0,6.8,2.2,8.2,5.5s0.6,7.1-1.9,9.6l-75.5,75.5C660.3,325.3,658,326.3,655.7,326.3z M455.9,308.7H652l57.8-57.8H513.7
					L455.9,308.7z"/>
			</g>
			<g>
				<polygon class="st19" points="864.9,242 789.4,317.5 1009,317.5 1084.5,242 				"/>
				<path d="M789.4,326.3c-3.6,0-6.8-2.2-8.2-5.5c-1.4-3.3-0.6-7.1,1.9-9.6l75.5-75.5c1.7-1.7,3.9-2.6,6.2-2.6h219.5
					c3.6,0,6.8,2.2,8.2,5.5c1.4,3.3,0.6,7.1-1.9,9.6l-75.5,75.5c-1.7,1.7-3.9,2.6-6.2,2.6H789.4z M868.6,250.8l-57.8,57.8h194.5
					l57.8-57.8H868.6z"/>
			</g>
			<g>
				<g>
					<path class="st14" d="M2932,242h-220.9c-43.8,0-83.5,16.8-113.3,44.2h-0.1l-1.2,1.2c-2.6,2.4-5,4.9-7.4,7.4l-67.7,67.7l0,0
						c3.7-3.5,7.6-6.8,11.7-9.9l0,0c4-3.1,8.1-6,12.4-8.7c0.2-0.1,0.4-0.2,0.6-0.4c4.1-2.6,8.3-5,12.6-7.3c0.5-0.3,1.1-0.5,1.7-0.8
						c4-2,8.1-3.9,12.3-5.6c1.1-0.4,2.2-0.8,3.3-1.2c3.8-1.4,7.5-2.8,11.4-4c1.8-0.5,3.6-0.9,5.4-1.4c3.3-0.9,6.6-1.8,10-2.5
						c2.8-0.6,5.7-0.9,8.6-1.3c2.5-0.4,4.9-0.8,7.5-1.1c5.5-0.5,11.1-0.8,16.7-0.8h220.9l0,0c5.2,0,10.4,0.3,15.5,0.8
						c1.5,0.1,3,0.3,4.5,0.5c3.8,0.4,7.5,1,11.2,1.7c1.5,0.3,2.9,0.5,4.3,0.8c9.8,2.1,19.3,5.1,28.4,8.8c1.3,0.5,2.6,1.1,3.9,1.7
						c3.3,1.5,6.6,3.1,9.9,4.8c1.3,0.7,2.5,1.3,3.8,2c4.3,2.4,8.5,4.9,12.5,7.6c4.5,3,8.8,6.3,12.9,9.7c4.4,3.7,8.6,7.6,12.7,11.6
						c1.3,1.3,2.5,2.8,3.8,4.2c2.6,2.8,5.2,5.7,7.6,8.7c1.4,1.7,2.7,3.6,4,5.4c2.1,2.8,4.2,5.7,6.1,8.7c1.3,2,2.5,4,3.7,6.1
						c1.7,3,3.4,6,5,9c1.1,2.2,2.1,4.3,3.1,6.5c1.4,3.1,2.7,6.3,4,9.6c0.9,2.3,1.7,4.5,2.5,6.8c1.1,3.4,2.1,6.9,3,10.4
						c0.6,2.2,1.2,4.5,1.7,6.8c0.8,3.9,1.5,7.8,2,11.8c0.3,2,0.7,3.9,0.9,6c0.6,6,1,12,1,18.2v0.1v290.5l0,0v26.1
						c0,36.7-12,71.6-33.2,100.1l0,0l55.1-52.6v-0.1c33.7-31.4,53.6-75.7,53.6-122.9V410C3100,317.3,3024.9,242,2932,242z"/>
					<path d="M2991.5,911.1c-0.1,0-0.3,0-0.4,0c-2.4-0.1-4.7-1.2-6.3-3c-2.7-3.1-3-7.8-0.5-11.1c20.6-27.7,31.4-60.5,31.4-94.9
						V485.5c0-5.6-0.3-11.3-1-17.4c-0.1-1.1-0.3-2.1-0.5-3.2l-0.4-2.5c-0.5-3.8-1.1-7.5-1.9-11.2c-0.3-1.5-0.7-2.9-1.1-4.4l-0.5-2
						c-0.9-3.3-1.8-6.6-2.8-9.8c-0.7-2.2-1.5-4.2-2.3-6.3c-1.2-3.2-2.5-6.2-3.8-9.2c-0.9-2.1-1.9-4.1-3-6.2
						c-1.5-2.9-3.1-5.8-4.7-8.6c-1.3-2.2-2.3-4-3.5-5.7c-1.8-2.8-3.8-5.5-5.8-8.2l-1.2-1.6c-0.9-1.2-1.7-2.3-2.6-3.5
						c-2.3-2.8-4.7-5.5-7.2-8.2l-1.6-1.7c-0.7-0.8-1.3-1.5-2-2.2c-4.1-4.1-8-7.7-12-11c-3.9-3.2-8-6.3-12.3-9.2
						c-3.8-2.6-7.8-4.9-11.8-7.2l-2.6-1.4c-4-2.1-7.1-3.6-10.3-5l-3.7-1.6c-8.7-3.6-17.7-6.4-26.9-8.4l-3.1-0.6
						c-4.5-0.8-8-1.4-11.6-1.8l-4.2-0.5c-4.9-0.5-9.7-0.7-14.7-0.7h-220.9c-5.2,0-10.5,0.3-15.8,0.8c-1.5,0.1-2.9,0.4-4.4,0.6
						l-5.1,0.8c-1.9,0.3-3.9,0.5-5.8,0.9c-2.7,0.5-5.3,1.2-8,1.9l-3.8,1c-1,0.2-1.9,0.5-2.9,0.7c-3.7,1.1-7.3,2.4-10.9,3.8l-3.1,1.1
						c-4,1.6-7.8,3.4-11.7,5.3c-0.1,0-1,0.5-1.1,0.5c-4.6,2.3-8.6,4.7-12.4,7.1c-4.6,2.9-8.5,5.7-12.3,8.6l-0.1,0.1
						c-3.8,3-7.5,6.1-11.1,9.4c-0.6,0.6-1.3,1.1-2.1,1.4c-3.9,2-8.6,0.8-11.1-2.7c-2.5-3.5-2.1-8.3,0.9-11.4l67.7-67.7
						c2.3-2.5,5-5.1,7.6-7.6l1-1c0.4-0.4,0.8-0.7,1.2-1c32.6-29.5,74.6-45.8,118.5-45.8h220.9c97.6,0,176.9,79.4,176.9,176.9v316.5
						c0,48.5-20.3,95.3-55.6,128.7c-0.2,0.3-0.5,0.6-0.7,0.8l-55.1,52.6C2996,910.2,2993.8,911.1,2991.5,911.1z M2635.6,308.7h220.9
						c5.5,0,10.9,0.3,16.3,0.8l4.7,0.5c4,0.5,7.9,1.1,11.8,1.8l4.6,0.9c10.2,2.2,20.3,5.3,29.9,9.3l4.1,1.8c3.6,1.6,7,3.2,10.4,5
						c1.9,1,3,1.5,4,2.1c4.5,2.5,8.9,5.1,13.1,8c4.7,3.2,9.3,6.6,13.6,10.2c4.5,3.7,8.8,7.7,13.3,12.3c0.9,0.9,1.8,1.9,2.7,2.9
						l1.3,1.5c2.8,3,5.5,6,8,9.2c1.1,1.4,2.1,2.7,3.1,4.1l1.1,1.5c2.2,3,4.4,6,6.4,9.1c1.3,1.9,2.5,4,3.7,6c2.1,3.5,3.8,6.6,5.5,9.9
						c1.2,2.3,2.3,4.5,3.3,6.9c1.5,3.3,2.9,6.7,4.2,10.1c0.9,2.4,1.8,4.8,2.6,7.2c1.2,3.6,2.2,7.2,3.2,10.9l0.5,1.9
						c0.5,1.7,0.9,3.5,1.3,5.2c0.9,4.1,1.5,8.2,2.1,12.4l0.3,2.1c0.2,1.4,0.5,2.8,0.6,4.2c0.7,6.7,1.1,13,1.1,19.1v316.7
						c0,19.5-3.2,38.6-9.3,56.8l15.6-14.9c0.3-0.3,0.5-0.6,0.9-0.9c32.3-30.1,50.8-72.5,50.8-116.5V410
						c0-87.8-71.5-159.3-159.3-159.3h-220.9c-39.8,0-77.9,14.9-107.4,41.9c-0.2,0.2-0.4,0.4-0.7,0.6l-0.3,0.3
						c-2.6,2.4-5,4.8-7.2,7.2l-17.5,17.5c2.3-0.8,4.6-1.6,6.9-2.3c1.2-0.4,2.5-0.7,3.8-1l3.4-0.9c3-0.8,6-1.6,9-2.2
						c2.3-0.5,4.5-0.8,6.8-1.1l4.7-0.7c1.8-0.3,3.6-0.6,5.4-0.8C2623.9,309,2629.8,308.7,2635.6,308.7z M3046.4,849.7h0.1H3046.4z"
						/>
				</g>
				<g>
					<path class="st19" d="M3197.4,485.6v738c0,92.9,75.3,168,168,168h220.9c92.9,0,168-75.3,168-168v-738c0-92.9-75.3-168-168-168
						h-220.9C3272.7,317.5,3197.4,392.7,3197.4,485.6z M3416.9,1178.1v-647c0-21.9,17.8-39.7,39.7-39.7h38.6
						c21.9,0,39.7,17.8,39.7,39.7v647c0,21.9-17.8,39.7-39.7,39.7h-38.6C3434.7,1217.8,3416.9,1200,3416.9,1178.1z"/>
					<path d="M3586.4,1400.5h-220.9c-97.6,0-176.9-79.4-176.9-176.9v-738c0-97.6,79.4-176.9,176.9-176.9h220.9
						c97.6,0,176.9,79.4,176.9,176.9v738C3763.3,1321.1,3683.9,1400.5,3586.4,1400.5z M3365.4,326.3c-87.8,0-159.3,71.5-159.3,159.3
						v738c0,87.8,71.5,159.3,159.3,159.3h220.9c87.8,0,159.3-71.5,159.3-159.3v-738c0-87.8-71.5-159.3-159.3-159.3H3365.4
						L3365.4,326.3z M3495.2,1226.6h-38.6c-26.8,0-48.5-21.8-48.5-48.5v-647c0-26.8,21.8-48.5,48.5-48.5h38.6
						c26.8,0,48.5,21.8,48.5,48.5v647C3543.8,1204.8,3522,1226.6,3495.2,1226.6z M3456.6,500.2c-17,0-30.9,13.8-30.9,30.9v647
						c0,17,13.8,30.9,30.9,30.9h38.6c17,0,30.9-13.8,30.9-30.9v-647c0-17-13.8-30.9-30.9-30.9L3456.6,500.2L3456.6,500.2z"/>
				</g>
				<g>
					<g>
						<g>
							<path class="st14" d="M3698.9,1348.1l0.1,0.2l2.8-2.8C3700.9,1346.4,3699.9,1347.2,3698.9,1348.1z"/>
						</g>
						<g>
							<path class="st14" d="M3830,410c0-92.9-75.3-168-168-168h-220.9c-44.3,0-84.4,17.2-114.4,45.2l-0.6,0.1l-82.4,82.3l0.3,0.1
								c30.6-32.1,73.7-52.1,121.5-52.1h35.3h185.6c23.2,0,45.3,4.7,65.4,13.2c24.7,10.4,46.3,26.7,63.3,46.9
								c1.2,1.4,2.3,2.9,3.4,4.4c7.4,9.4,13.8,19.7,19.1,30.6c10.7,22.1,16.9,46.8,16.9,73.1v698.9l0,0v39.1
								c0,44.8-17.6,85.4-46.2,115.5l72.1-72.2c1-1,2.1-2.1,3.1-3.1l0.7-0.7v-0.1c28.3-30,45.8-70.5,45.8-115L3830,410L3830,410z"/>
							<path d="M3708.3,1347.8c-2.2,0-4.4-0.8-6.2-2.5c-3.5-3.4-3.6-8.9-0.3-12.4c28.2-29.8,43.8-68.6,43.8-109.4v-738
								c0-24-5.4-47.3-16-69.2c-5-10.4-11.1-20.2-18.1-29l-1.1-1.4c-0.7-0.9-1.4-1.8-2.1-2.7c-16.2-19.3-37-34.7-60-44.4
								c-19.6-8.3-40.5-12.5-62-12.5h-220.9c-43.8,0-84.7,17.5-115.1,49.4c-2.1,2.2-5.2,3.2-8.1,2.6c-3.2-0.6-5.9-3-6.9-6.1
								c-0.9-3.1-0.2-6.5,2.1-8.8l82.4-82.3c0.7-0.7,1.4-1.2,2.3-1.6c32.7-29.8,74.8-46.2,118.9-46.2h220.9
								c97.6,0,176.9,79.4,176.9,176.9v738c0,44.8-16.9,87.6-47.6,120.4c-0.2,0.3-0.5,0.6-0.8,0.9l-76,76
								C3712.8,1347,3710.5,1347.8,3708.3,1347.8z M3365.4,308.7h220.9c23.9,0,47.1,4.7,68.9,13.9c25.6,10.8,48.6,27.9,66.6,49.3
								c0.9,1.1,1.7,2.2,2.6,3.3l1,1.3c7.7,9.8,14.5,20.7,20.1,32.2c11.8,24.4,17.8,50.2,17.8,76.9v738c0,19.9-3.3,39.3-9.7,57.7
								l23.6-23.5l0,0c0.2-0.2,0.4-0.5,0.6-0.7c28-29.6,43.4-68.3,43.4-109V410c0-87.8-71.5-159.3-159.3-159.3H3441
								c-40.3,0-78.8,15.2-108.4,42.8c-0.5,0.5-1.2,0.9-1.8,1.3l-23.5,23.5C3325.8,312,3345.4,308.7,3365.4,308.7z"/>
						</g>
					</g>
					<g>
						<path class="st14" d="M3456.6,491.4c-21.9,0-39.7,17.8-39.7,39.7v647c0,21.9,17.8,39.7,39.7,39.7h38.6
							c21.9,0,39.7-17.8,39.7-39.7v-35.8h-2.8c-21.9,0-39.7-17.8-39.7-39.7V491.4H3456.6z"/>
					</g>
				</g>
				<g>
					<path class="st14" d="M2726.7,491.4c-21.9,0-39.7,17.8-39.7,39.7v32.6l0,0v129.2l75.5-75.5v-63v-63L2726.7,491.4L2726.7,491.4z
						"/>
					<path d="M2687.1,701.6c-1.1,0-2.3-0.2-3.4-0.7c-3.3-1.4-5.5-4.6-5.5-8.2V531.1c0-26.8,21.8-48.5,48.5-48.5h35.8
						c4.9,0,8.8,4,8.8,8.8v126c0,2.3-0.9,4.6-2.6,6.2l-75.5,75.5C2691.6,700.7,2689.4,701.6,2687.1,701.6z M2726.7,500.2
						c-17,0-30.9,13.8-30.9,30.9v140.5l57.8-57.8V500.2H2726.7z"/>
				</g>
				<g>
					<path class="st14" d="M2762.5,1142.3V1047l-55.2,30.8c-12.6,7-20.3,20.3-20.3,34.7v105.3h337.5v31.4v142.5l75.5-75.5v-67
						v-106.9H2762.5z"/>
					<path d="M3024.6,1400.5c-1.1,0-2.3-0.2-3.4-0.7c-3.3-1.4-5.5-4.6-5.5-8.2v-165H2687c-4.9,0-8.8-4-8.8-8.8v-105.3
						c0-17.6,9.5-33.8,24.9-42.4l55.2-30.8c2.7-1.5,6.1-1.5,8.8,0.1s4.4,4.5,4.4,7.6v86.4h328.6c4.9,0,8.8,4,8.8,8.8v173.9
						c0,2.3-0.9,4.6-2.6,6.2l-75.5,75.5C3029.2,1399.6,3026.9,1400.5,3024.6,1400.5z M2695.9,1208.9h328.7c4.9,0,8.8,4,8.8,8.8
						v152.6l57.8-57.8V1151h-328.7c-4.9,0-8.8-4-8.8-8.8V1062l-42,23.5c-9.8,5.4-15.8,15.8-15.8,26.9V1208.9z"/>
				</g>
				<g>
					<path class="st14" d="M2512.5,371.3l-2.6,2.6l0.1,0.1C2510.9,373,2511.7,372.2,2512.5,371.3z"/>
				</g>
				<g>
					<path class="st19" d="M3661.9,242h-221c-44.3,0-84.4,17.2-114.4,45.2l-0.6,0.1l-82.4,82.3l0.3,0.1
						c30.6-32.1,73.7-52.1,121.5-52.1h35.3h185.6c23.2,0,45.3,4.7,65.4,13.2c18.3,7.7,34.9,18.7,49.2,32l75.5-75.5
						C3746.4,259.3,3706.1,242,3661.9,242z"/>
					<path d="M3244,378.4c-0.6,0-1.2-0.1-1.7-0.2c-3.2-0.6-5.9-3-6.9-6.1c-0.9-3.1-0.2-6.5,2.1-8.8l82.4-82.3
						c0.7-0.7,1.4-1.2,2.3-1.6c32.7-29.8,74.8-46.2,118.9-46.2H3662c44.8,0,87.6,16.9,120.6,47.7c1.8,1.6,2.8,3.9,2.8,6.3
						c0,2.4-0.9,4.7-2.6,6.4l-75.5,75.5c-3.4,3.4-8.8,3.4-12.3,0.2c-13.8-12.9-29.5-23.1-46.6-30.4c-19.6-8.3-40.5-12.5-62-12.5
						h-220.9c-43.8,0-84.7,17.5-115.1,49.4C3248.7,377.4,3246.4,378.4,3244,378.4z M3365.4,308.7h220.9c23.9,0,47.1,4.7,68.9,13.9
						c16.4,6.9,31.7,16.4,45.4,28l62.9-62.9c-28.6-23.9-64.4-36.9-101.7-36.9h-220.9c-40.3,0-78.8,15.2-108.4,42.8
						c-0.5,0.5-1.2,0.9-1.8,1.3l-23.5,23.5C3325.8,312,3345.4,308.7,3365.4,308.7z"/>
				</g>
				<g>
					<polygon class="st19" points="2687.1,1217.8 2762.5,1142.3 3100,1142.3 3024.6,1217.8 					"/>
					<path d="M3024.6,1226.6h-337.5c-3.6,0-6.8-2.2-8.2-5.5s-0.6-7.1,1.9-9.6l75.5-75.5c1.7-1.7,3.9-2.6,6.2-2.6h337.6
						c3.6,0,6.8,2.2,8.2,5.5s0.6,7.1-1.9,9.6l-75.5,75.5C3029.2,1225.7,3027,1226.6,3024.6,1226.6z M2708.3,1208.9h312.6l57.8-57.8
						h-312.6L2708.3,1208.9z"/>
				</g>
				<g>
					<path class="st19" d="M2988.2,381.1l75.5-75.5c-30.8-38.8-78.3-63.7-131.6-63.7h-220.9c-43.8,0-83.5,16.8-113.3,44.2h-0.1
						l-1.2,1.2c-2.6,2.4-5,4.9-7.4,7.4l-67.7,67.7c30-27.9,70.1-45,114.3-45h220.9c34.8,0,67.2,10.6,94,28.7c4.5,3,8.8,6.3,12.9,9.7
						C2972.6,363.3,2980.9,371.8,2988.2,381.1z"/>
					<path d="M2988.2,389.9c-0.2,0-0.3,0-0.5,0c-2.5-0.1-4.8-1.4-6.4-3.3c-7-8.9-14.9-16.9-23.5-24c-3.9-3.2-8-6.3-12.3-9.2
						c-26.3-17.8-57.1-27.2-89.1-27.2h-220.9c-40.2,0-78.6,15.2-108.3,42.7c-3.5,3.3-9,3.1-12.4-0.3c-3.3-3.5-3.3-9,0.1-12.4
						l67.7-67.7c2.3-2.5,5-5.1,7.6-7.6l1-1c0.4-0.4,0.8-0.7,1.2-1c32.6-29.5,74.6-45.8,118.5-45.8h220.9
						c54.2,0,104.7,24.5,138.6,67.1c2.8,3.5,2.5,8.6-0.7,11.7l-75.5,75.5C2992.8,389,2990.5,389.9,2988.2,389.9z M2635.6,308.7
						h220.9c35.5,0,69.7,10.5,98.9,30.2c4.7,3.2,9.3,6.6,13.6,10.2c7,5.8,13.6,12.2,19.7,19.1l62.9-62.9
						c-30.3-34.7-73.5-54.4-119.7-54.4h-221c-39.8,0-77.9,14.9-107.4,41.9c-0.2,0.2-0.4,0.4-0.7,0.6l-0.3,0.3
						c-2.6,2.4-5,4.8-7.2,7.2l-17.4,17.4C2596.4,312,2615.8,308.7,2635.6,308.7z"/>
				</g>
				<g>
					<path class="st19" d="M2467.5,485.5v207.2H2687V531.1c0-21.9,17.8-39.7,39.7-39.7h38.6c21.9,0,39.7,17.8,39.7,39.7v260
						c0,14.4-7.8,27.6-20.3,34.7l-231,129.1c-53.2,29.7-86.2,85.9-86.2,146.8v185.9v104.3H2687l0,0h337.5V1218H2687v-105.3
						c0-14.4,7.8-27.6,20.3-34.7l231-129.1c53.2-29.7,86.2-85.9,86.2-146.8V485.5c0-92.9-75.3-168-168-168h-220.9
						C2542.8,317.5,2467.5,392.7,2467.5,485.5z"/>
					<path d="M3024.6,1400.5h-557c-4.9,0-8.8-4-8.8-8.8v-290.2c0-64.1,34.8-123.3,90.7-154.5l231-129.1c9.8-5.4,15.8-15.8,15.8-26.9
						V531c0-17-13.8-30.9-30.9-30.9h-38.6c-17,0-30.9,13.8-30.9,30.9v161.8c0,4.9-4,8.8-8.8,8.8h-219.5c-4.9,0-8.8-4-8.8-8.8V485.5
						c0-97.6,79.4-176.9,176.9-176.9h220.9c97.6,0,176.9,79.4,176.9,176.9v316.6c0,64.1-34.8,123.3-90.7,154.5l-231,129.1
						c-9.8,5.4-15.8,15.8-15.8,26.9v96.4h328.7c4.9,0,8.8,4,8.8,8.8v173.9C3033.4,1396.5,3029.5,1400.5,3024.6,1400.5z
						 M2476.3,1382.8h539.4v-156.3H2687c-4.9,0-8.8-4-8.8-8.8v-105.3c0-17.6,9.5-33.8,24.9-42.4l231-129.1
						c50.3-28.1,81.6-81.4,81.6-139.1V485.5c0-87.8-71.5-159.3-159.3-159.3h-220.9c-87.8,0-159.3,71.5-159.3,159.3v198.4H2678V531
						c0-26.8,21.8-48.5,48.5-48.5h38.6c26.8,0,48.5,21.8,48.5,48.5v260c0,17.6-9.5,33.8-24.9,42.4l-231,129.1
						c-50.3,28.1-81.6,81.4-81.6,139.1v281.3L2476.3,1382.8L2476.3,1382.8z"/>
				</g>
				<g>
					<path class="st14" d="M2656.7,897.2l128.1-71.5c1.6-0.9,3.1-1.8,4.5-2.9c9.9-7.4,15.9-19.2,15.9-31.7v-10l-175.9,98.3
						c-11.6,6.5-22.2,14.3-31.8,23l0,0l-1.3,1.3c-2.7,2.6-5.4,5.2-8,8l-66.8,66.7h0.1c9.7-9,20.4-16.9,32.2-23.5L2656.7,897.2
						L2656.7,897.2z"/>
					<path d="M2521.4,987c-0.7,0-1.4-0.1-2-0.2c-3.1-0.7-5.6-3.1-6.5-6.2s-0.1-6.4,2.2-8.7l66.8-66.7c2.5-2.7,5.3-5.4,8.2-8.2
						l1.1-1.1c0.2-0.2,0.5-0.4,0.7-0.6c10.1-9.2,21.2-17.3,33-23.8l175.9-98.3c2.7-1.5,6.1-1.5,8.8,0.1s4.4,4.5,4.4,7.6v10
						c0,15.2-7.3,29.7-19.4,38.8c-1.7,1.3-3.5,2.5-5.5,3.6L2558,962.4c-10.8,6-21.1,13.5-30.5,22.3
						C2525.8,986.2,2523.6,987,2521.4,987z M2603.2,908.9l-0.9,0.9c-2.8,2.6-5.3,5.1-7.7,7.7l-9.6,9.6l195.4-109.2
						c1.2-0.7,2.4-1.4,3.5-2.3c6.3-4.7,10.5-11.7,11.9-19.4l-162.3,90.7c-10.8,6-20.9,13.3-30.1,21.8
						C2603.3,908.8,2603.2,908.9,2603.2,908.9z M2656.7,897.2L2656.7,897.2L2656.7,897.2z"/>
				</g>
			</g>
			<g>
				<g>
					<path class="st14" d="M1668.2,1348.1l0.1,0.2l2.8-2.8C1670.2,1346.4,1669.2,1347.2,1668.2,1348.1z"/>
				</g>
			</g>
			<g>
				<g>
					<g>
						<g>
							<defs>
								<rect id="SVGID_00000116205808016485545970000016604887408095413169_" x="789.4" y="317.5" width="219.5" height="1074.2"/>
							</defs>
							<clipPath id="SVGID_00000052825788239004345270000005843270864866502559_">
								<use xlink:href="#SVGID_00000116205808016485545970000016604887408095413169_"  style="overflow:visible;"/>
							</clipPath>
							<g style="clip-path:url(#SVGID_00000052825788239004345270000005843270864866502559_);">
								<g>
									<polygon class="st26" points="-521.1,1477.4 702,279.8 -199.5,279.8 									"/>
									<path class="st42" d="M-521.1,1478.9c-0.3,0-0.5-0.1-0.7-0.2c-0.6-0.3-0.9-1-0.7-1.7l321.6-1197.6c0.2-0.6,0.8-1.1,1.4-1.1
										h901.4c0.6,0,1.1,0.4,1.4,0.9c0.2,0.6,0.1,1.2-0.3,1.6L-520,1478.4C-520.3,1478.7-520.7,1478.9-521.1,1478.9z
										 M-198.3,281.2l-319.9,1191.3L698.5,281.2H-198.3z"/>
								</g>
								<g>
									<polygon class="st9" points="1199.8,279.8 -23.2,1477.4 474.7,1477.4 1697.9,279.8 									"/>
								</g>
								<g>
									<polygon class="st10" points="702,279.8 -521.1,1477.4 -23.2,1477.4 1199.8,279.8 									"/>
								</g>
								<g>
									<polygon class="st8" points="1697.9,279.8 474.7,1477.4 972.6,1477.4 2195.7,279.8 									"/>
								</g>
								<g>
									<polygon class="st6" points="2693.6,279.8 1470.4,1477.4 1854.3,1477.4 2792.2,279.8 									"/>
								</g>
								<g>
									<polygon class="st7" points="2195.7,279.8 972.6,1477.4 1470.4,1477.4 2693.6,279.8 									"/>
								</g>
							</g>
						</g>
					</g>
				</g>
			</g>
			<g>
				<path d="M1009,1400.5H789.4c-4.9,0-8.8-4-8.8-8.8V317.5c0-4.9,4-8.8,8.8-8.8h219.5c4.9,0,8.8,4,8.8,8.8v1074.2
					C1017.8,1396.5,1013.9,1400.5,1009,1400.5z M798.2,1382.8H1000V326.3H798.2V1382.8z"/>
			</g>
			<g>
				<g>
					<g>
						<g>
							<defs>
								<polygon id="SVGID_00000049903994762596577770000004159069722271377594_" points="434.6,317.5 332.2,1174.8 229.8,317.5 
									8.7,317.5 136.9,1391.6 306.3,1391.6 358.1,1391.6 527.4,1391.6 655.7,317.5 								"/>
							</defs>
							<clipPath id="SVGID_00000113341915396100042780000008692570564984916865_">
								<use xlink:href="#SVGID_00000049903994762596577770000004159069722271377594_"  style="overflow:visible;"/>
							</clipPath>
							<g style="clip-path:url(#SVGID_00000113341915396100042780000008692570564984916865_);">
								<g>
									<polygon class="st26" points="-521.1,1477.4 702,279.8 -199.5,279.8 									"/>
								</g>
								<g>
									<polygon class="st9" points="1199.8,279.8 -23.2,1477.4 474.7,1477.4 1697.9,279.8 									"/>
								</g>
								<g>
									<polygon class="st10" points="702,279.8 -521.1,1477.4 -23.2,1477.4 1199.8,279.8 									"/>
								</g>
								<g>
									<polygon class="st8" points="1697.9,279.8 474.7,1477.4 972.6,1477.4 2195.7,279.8 									"/>
								</g>
								<g>
									<polygon class="st6" points="2693.6,279.8 1470.4,1477.4 1854.3,1477.4 2792.2,279.8 									"/>
								</g>
								<g>
									<polygon class="st7" points="2195.7,279.8 972.6,1477.4 1470.4,1477.4 2693.6,279.8 									"/>
								</g>
							</g>
						</g>
					</g>
				</g>
			</g>
			<g>
				<path d="M527.4,1400.5H136.9c-4.5,0-8.2-3.3-8.8-7.8L0,318.6c-0.3-2.5,0.5-5,2.2-6.9c1.7-1.9,4.1-3,6.6-3h221
					c4.5,0,8.2,3.3,8.8,7.8l93.6,783.9l93.6-783.9c0.5-4.4,4.3-7.8,8.8-7.8h221.1c2.5,0,4.9,1.1,6.6,3c1.7,1.9,2.5,4.4,2.2,6.9
					L536.2,1392.7C535.6,1397.1,531.9,1400.5,527.4,1400.5z M144.8,1382.8h374.7L645.7,326.3H442.4l-101.5,849.5
					c-0.5,4.4-4.3,7.8-8.8,7.8c-4.5,0-8.2-3.3-8.8-7.8L222,326.3H18.7L144.8,1382.8z"/>
			</g>
			<g>
				<g>
					<g>
						<g>
							<defs>
								<path id="SVGID_00000171718516291508391830000000339074344593648023_" d="M1838.7,1077.1c-41.5,23.3-89.2,36.6-140.1,36.6
									c-158.4,0-287.2-128.9-287.2-287.2s128.9-287.2,287.2-287.2c50.9,0,98.6,13.3,140.1,36.6V303.3
									c-44.7-11.9-91.6-18.4-140.1-18.4c-299.1,0-541.6,242.5-541.6,541.6s242.5,541.6,541.6,541.6c48.5,0,95.4-6.5,140.1-18.4
									L1838.7,1077.1L1838.7,1077.1z"/>
							</defs>
							<clipPath id="SVGID_00000071537779872613855650000004248082884155253681_">
								<use xlink:href="#SVGID_00000171718516291508391830000000339074344593648023_"  style="overflow:visible;"/>
							</clipPath>
							<g style="clip-path:url(#SVGID_00000071537779872613855650000004248082884155253681_);">
								<g>
									<polygon class="st26" points="-521.1,1477.4 702,279.8 -199.5,279.8 									"/>
									<path class="st42" d="M-521.1,1478.9c-0.3,0-0.5-0.1-0.7-0.2c-0.6-0.3-0.9-1-0.7-1.7l321.6-1197.6c0.2-0.6,0.8-1.1,1.4-1.1
										h901.4c0.6,0,1.1,0.4,1.4,0.9c0.2,0.6,0.1,1.2-0.3,1.6L-520,1478.4C-520.3,1478.7-520.7,1478.9-521.1,1478.9z
										 M-198.3,281.2l-319.9,1191.3L698.5,281.2H-198.3z"/>
								</g>
								<g>
									<polygon class="st9" points="1199.8,279.8 -23.2,1477.4 474.7,1477.4 1697.9,279.8 									"/>
								</g>
								<g>
									<polygon class="st10" points="702,279.8 -521.1,1477.4 -23.2,1477.4 1199.8,279.8 									"/>
								</g>
								<g>
									<polygon class="st8" points="1697.9,279.8 474.7,1477.4 972.6,1477.4 2195.7,279.8 									"/>
								</g>
								<g>
									<polygon class="st6" points="2693.6,279.8 1470.4,1477.4 2195.7,1477.4 2792.2,279.8 									"/>
								</g>
								<g>
									<polygon class="st7" points="2195.7,279.8 972.6,1477.4 1470.4,1477.4 2693.6,279.8 									"/>
								</g>
							</g>
						</g>
					</g>
				</g>
			</g>
			<g>
				<path d="M1698.7,1377c-303.5,0-550.5-246.9-550.5-550.5S1395,276,1698.7,276c48,0,95.9,6.3,142.4,18.7c3.9,1,6.6,4.5,6.6,8.5
					v272.7c0,3.1-1.7,6-4.4,7.6c-2.7,1.6-6.1,1.6-8.8,0.1c-41.4-23.2-88.3-35.5-135.8-35.5c-153.5,0-278.3,124.9-278.3,278.3
					s124.9,278.3,278.3,278.3c47.5,0,94.4-12.3,135.8-35.5c2.7-1.5,6.1-1.5,8.8,0.1c2.7,1.6,4.4,4.5,4.4,7.6v272.7
					c0,4-2.7,7.5-6.6,8.5C1794.5,1370.7,1746.6,1377,1698.7,1377z M1698.7,293.8c-293.8,0-532.8,239-532.8,532.8
					s239,532.8,532.8,532.8c44.2,0,88.4-5.5,131.3-16.4v-251.2c-40.7,20.2-85.7,30.8-131.3,30.8c-163.2,0-296-132.8-296-296
					s132.8-296,296-296c45.5,0,90.6,10.6,131.3,30.8V310.2C1787,299.3,1742.8,293.8,1698.7,293.8z"/>
			</g>
			<g>
				<g>
					<path class="st14" d="M1483.5,754.4c0-60.8,19-117.2,51.4-163.6c-74.6,51.9-123.5,138.3-123.5,235.7
						c0,158.4,128.9,287.2,287.2,287.2c50.9,0,98.6-13.3,140.1-36.6v130.3v142.5l72.1-72.1v-75.1V1005
						c-41.5,23.3-89.3,36.6-140.1,36.6C1612.3,1041.6,1483.5,912.8,1483.5,754.4z"/>
					<path d="M1838.7,1358.6c-1.1,0-2.3-0.2-3.4-0.7c-3.3-1.4-5.5-4.6-5.5-8.2v-258c-40.7,20.2-85.8,30.8-131.3,30.8
						c-163.2,0-296-132.8-296-296c0-96.7,47.6-187.5,127.3-243c3.5-2.4,8.3-2,11.3,1s3.4,7.8,1,11.3
						c-32.6,46.8-49.8,101.7-49.8,158.7c0,153.5,124.9,278.3,278.3,278.3c47.5,0,94.4-12.3,135.8-35.5c2.7-1.5,6.1-1.5,8.8,0.1
						c2.7,1.6,4.4,4.5,4.4,7.6v272.7c0,2.3-0.9,4.6-2.6,6.2l-72.1,72.1C1843.3,1357.7,1841,1358.6,1838.7,1358.6z M1838.7,1068.3
						c1.5,0,3.1,0.4,4.5,1.2c2.7,1.6,4.4,4.5,4.4,7.6v251.4l54.5-54.5v-254.4c-40.7,20.2-85.7,30.8-131.3,30.8
						c-163.2,0-296-132.8-296-296c0-43.7,9.5-86.2,27.8-125.2c-52.2,51.9-82.3,122.8-82.3,197.2c0,153.5,124.9,278.3,278.3,278.3
						c47.5,0,94.4-12.3,135.8-35.5C1835.7,1068.6,1837.2,1068.3,1838.7,1068.3z"/>
				</g>
				<g>
					<path class="st14" d="M1770.7,212.8c-167.9,0-318,76.5-417.4,196.4c93.8-77.7,214-124.3,345.3-124.3
						c48.5,0,95.4,6.5,140.1,18.4v93.9V576l72.1-72.1V401.8V231.2C1866.1,219.3,1819.2,212.8,1770.7,212.8z"/>
					<path d="M1838.7,584.9c-1.1,0-2.3-0.2-3.4-0.7c-3.3-1.4-5.5-4.6-5.5-8.2V310.1c-42.9-10.9-87-16.4-131.3-16.4
						c-123.8,0-244.4,43.4-339.6,122.3c-3.5,2.9-8.7,2.7-11.9-0.6c-3.2-3.2-3.5-8.4-0.6-11.9c105.1-126.9,259.6-199.6,424.2-199.6
						c48,0,95.9,6.3,142.4,18.7c3.9,1,6.6,4.5,6.6,8.5v272.7c0,2.3-0.9,4.6-2.6,6.2l-72.1,72C1843.3,584,1841,584.9,1838.7,584.9z
						 M1698.7,276.1c48,0,95.9,6.3,142.4,18.7c3.9,1,6.6,4.5,6.6,8.5v251.4l54.5-54.5V238c-42.9-10.9-87-16.4-131.3-16.4
						c-128,0-249.8,45.5-345.5,127.2C1507.9,301.5,1602.3,276.1,1698.7,276.1z"/>
				</g>
			</g>
			<g>
				<path class="st19" d="M1838.7,303.3l72.1-72.1c-44.7-11.9-91.6-18.4-140.1-18.4c-167.9,0-318,76.5-417.4,196.4
					c93.8-77.7,214-124.3,345.3-124.3C1747.1,284.9,1794,291.4,1838.7,303.3z"/>
				<path d="M1353.4,418c-2.3,0-4.5-0.9-6.3-2.6c-3.2-3.2-3.5-8.4-0.6-11.9c105.1-126.9,259.6-199.6,424.2-199.6
					c48,0,95.9,6.3,142.4,18.7c3.1,0.8,5.4,3.2,6.3,6.2c0.8,3.1-0.1,6.3-2.3,8.5l-72.1,72.1c-2.2,2.2-5.5,3.1-8.5,2.3
					c-45-12-91.3-18.1-137.8-18.1c-123.8,0-244.4,43.4-339.6,122.3C1357.3,417.3,1355.3,418,1353.4,418z M1770.7,221.6
					c-128,0-249.8,45.5-345.5,127.2c82.8-47.3,177.1-72.7,273.3-72.7c46.3,0,92.5,5.9,137.4,17.4l57.5-57.5
					C1853.3,226.5,1812.1,221.6,1770.7,221.6z"/>
			</g>
			<g>
				<path class="st14" d="M1838.7,1077.1l72.1-72.1c-41.5,23.3-89.3,36.6-140.1,36.6c-158.4,0-287.2-128.9-287.2-287.2
					c0-60.8,19-117.2,51.4-163.6c-74.6,51.9-123.5,138.3-123.5,235.7c0,158.4,128.9,287.2,287.2,287.2
					C1749.5,1113.7,1797.2,1100.4,1838.7,1077.1L1838.7,1077.1z"/>
				<path d="M1698.7,1122.6c-163.2,0-296-132.8-296-296c0-96.7,47.6-187.5,127.3-243c3.5-2.4,8.3-2,11.3,1s3.4,7.8,1,11.3
					c-32.6,46.8-49.8,101.7-49.8,158.7c0,153.5,124.9,278.3,278.3,278.3c47.5,0,94.4-12.3,135.8-35.5c3.8-2.2,8.7-1.2,11.4,2.4
					c2.7,3.5,2.3,8.5-0.8,11.6l-72.1,72.1c-0.6,0.6-1.2,1.1-1.9,1.5C1799,1109.5,1749.1,1122.6,1698.7,1122.6z M1502.5,629.3
					c-52.2,51.9-82.3,122.8-82.3,197.2c0,153.5,124.9,278.3,278.3,278.3c47.1,0,93.6-12.1,134.7-34.9l36.8-36.8
					c-31.8,11.4-65.5,17.3-99.4,17.3c-163.2,0-296-132.8-296-296C1474.6,710.7,1484.2,668.2,1502.5,629.3z M1838.7,1077.1
					L1838.7,1077.1L1838.7,1077.1z"/>
			</g>
			<g>
				<polygon class="st45" points="2065.9,846.3 1994.3,846.3 1838.7,846.3 1838.7,1062.9 1994.3,1062.9 2065.9,1062.9 
					2310.8,1062.9 2094,846.3 				"/>
				<path d="M2310.8,1071.8h-472.1c-4.9,0-8.8-4-8.8-8.8V846.4c0-4.9,4-8.8,8.8-8.8H2094c2.3,0,4.6,0.9,6.2,2.6l216.6,216.6
					c2.5,2.5,3.3,6.3,1.9,9.6C2317.6,1069.6,2314.3,1071.8,2310.8,1071.8z M1847.5,1054.1h441.9l-198.9-199h-242.8v199H1847.5z"/>
			</g>
			<g>
				<polygon class="st14" points="2138.1,774.2 2066.3,774.2 1910.8,774.2 1838.7,846.3 1910.8,846.3 1939.2,846.3 1994.3,846.3 
					2065.9,846.3 2094,846.3 2238.6,990.8 2310.8,1062.9 2382.8,990.8 2166.2,774.2 				"/>
				<path d="M2310.8,1071.8c-2.3,0-4.6-0.9-6.2-2.6l-214.1-214.1h-251.7c-3.6,0-6.8-2.2-8.2-5.5c-1.4-3.3-0.6-7.1,1.9-9.6l72.1-72.1
					c1.7-1.7,3.9-2.6,6.2-2.6h255.3c2.3,0,4.6,0.9,6.2,2.6l216.6,216.6c3.4,3.4,3.4,9,0,12.5l-72.1,72.1
					C2315.4,1070.8,2313.1,1071.8,2310.8,1071.8z M1860,837.5h234c2.3,0,4.6,0.9,6.2,2.6l210.4,210.4l59.6-59.6l-207.8-207.8h-248
					L1860,837.5z"/>
			</g>
			<g>
				<polygon class="st19" points="2094,846.3 2166.2,774.2 1910.8,774.2 1838.7,846.3 				"/>
				<path d="M2094,855.1h-255.3c-3.6,0-6.8-2.2-8.2-5.5c-1.4-3.3-0.6-7.1,1.9-9.6l72.1-72.1c1.7-1.7,3.9-2.6,6.2-2.6H2166
					c3.6,0,6.8,2.2,8.2,5.5s0.6,7.1-1.9,9.6l-72.1,72.1C2098.6,854.2,2096.4,855.1,2094,855.1z M1860,837.5h230.3l54.5-54.5h-230.3
					L1860,837.5z"/>
			</g>
			<g>
				<polygon class="st19" points="1994.3,590.2 2065.9,590.2 2310.8,590.2 2382.8,518.1 2138.1,518.1 2066.3,518.1 1910.8,518.1 
					1838.7,590.2 1910.8,590.2 				"/>
				<path d="M2310.8,599h-472.1c-3.6,0-6.8-2.2-8.2-5.5c-1.4-3.3-0.6-7.1,1.9-9.6l72.1-72.1c1.7-1.7,3.9-2.6,6.2-2.6h472.1
					c3.6,0,6.8,2.2,8.2,5.5c1.4,3.3,0.6,7.1-1.9,9.6l-72.1,72.1C2315.4,598.1,2313.1,599,2310.8,599z M1860,581.4h447.1l54.5-54.5
					h-447.1L1860,581.4z"/>
			</g>
			<g>
				<polygon class="st26" points="2065.9,806.8 2094,806.8 2310.8,590.2 2065.9,590.2 1994.3,590.2 1838.7,590.2 1838.7,806.8 
					1994.3,806.8 				"/>
				<path d="M2094,815.7h-255.3c-4.9,0-8.8-4-8.8-8.8V590.2c0-4.9,4-8.8,8.8-8.8h472.1c3.6,0,6.8,2.2,8.2,5.5s0.6,7.1-1.9,9.6
					l-216.7,216.6C2098.6,814.7,2096.4,815.7,2094,815.7z M1847.5,798h242.8l199-198.9h-441.9L1847.5,798L1847.5,798z"/>
			</g>
		</g>
		<g>
			<path d="M123.1,101.6C121,82.4,99.7,82.9,84.6,82.9c-8.1,0-25.3,0.3-31.9,5.8c-6.3,5.3-6.3,18.9-6.3,26.3
				c0,7.1,0.3,16.6,5.8,21.8c6.6,6.3,24.8,6.9,33.1,6.9c5.8,0,11.3,0,17.1-0.8c11.6-1.6,18.4-5,20.3-17.4h47.5
				c-0.5,14-1.3,27.4-11.6,37.9c-10.8,11.3-27.4,13.7-42.4,14.5c-11.3,0.5-22.3,0.8-33.7,0.8c-20.3,0-49.2,0.5-66.6-11.6
				c-16.9-11.8-16-36.6-16-54.7c0-17.9-0.3-39.2,14.7-51.8C31,46.9,64.9,48,84.9,48s54.7-0.8,71.3,12.6c4.4,3.7,7.4,7.4,9.8,12.9
				c3.9,9.2,4.2,18.2,4.4,28.2L123.1,101.6L123.1,101.6z"/>
			<path d="M367.3,135.3c-1,12.1-4.2,22.9-13.7,31.1c-16,14-54,12.4-73.7,12.4c-20.6,0-56.9,1.8-73.7-12.4c-4.7-3.9-7.6-8.1-10-13.7
				c-5.3-12.9-4.4-29.2-4.4-42.9c0-6.9,0-14,0.8-20.8c1-11.8,5.5-22.3,15.2-29.7C223.6,47.2,261.2,48,279.9,48
				c18.9,0,56.1-0.8,72.1,11.3c4.4,3.4,7.4,6.9,10,11.8c6.8,12.1,6.1,27.7,6.1,41C368.1,119.7,367.8,127.6,367.3,135.3z M315.8,89.8
				c-6.9-6.6-26.8-6.9-35.5-6.9c-8.4,0-17.1,0.3-25.3,1.8c-16.3,3.2-16.6,15.8-16.6,30c0,6.9-0.3,16,4.7,21.3
				c7.1,7.6,27.7,7.6,37.1,7.6c8.9,0,18.4,0,27.1-2.4c14.5-3.9,14.2-17.1,14.2-30C321.5,104.2,321.3,95,315.8,89.8z"/>
			<path d="M618.7,175.6v-58.2c0-26.8-2.9-34.5-31.6-34.5c-32.1,0-34.5,12.6-34.5,41.3v51.3H506v-58.2v-8.7
				c0-22.6-9.8-25.8-30.8-25.8c-33.1,0-35.3,11.8-35.3,41.3v51.3h-46.6V51h43.9v18.7h2.1c8.7-19.2,31.9-21.8,50.5-21.8
				c23.7,0,44.5,3.9,56.6,26c9.5-23.2,31.6-26,54-26c18.2,0,38.5,2.1,51.6,16c4.4,4.7,7.9,9.8,9.8,16c3.7,12.1,3.4,25,3.4,37.4v58.1
				L618.7,175.6L618.7,175.6z"/>
			<path d="M917.4,175.6v-58.2c0-26.8-2.9-34.5-31.6-34.5c-32.1,0-34.5,12.6-34.5,41.3v51.3h-46.6v-58.2v-8.7
				c0-22.6-9.8-25.8-30.8-25.8c-33.1,0-35.3,11.8-35.3,41.3v51.3H692V51h43.9v18.7h2.1c8.7-19.2,31.9-21.8,50.5-21.8
				c23.7,0,44.5,3.9,56.6,26c9.6-23.2,31.7-26,54-26c18.2,0,38.5,2.1,51.6,16c4.5,4.7,7.9,9.8,9.8,16c3.7,12.1,3.4,25,3.4,37.4v58.1
				L917.4,175.6L917.4,175.6z"/>
			<path d="M1163.7,135.3c-1,12.1-4.2,22.9-13.7,31.1c-16,14-54,12.4-73.7,12.4c-20.6,0-56.9,1.8-73.7-12.4
				c-4.7-3.9-7.6-8.1-10-13.7c-5.3-12.9-4.5-29.2-4.5-42.9c0-6.9,0-14,0.8-20.8c1-11.8,5.5-22.3,15.2-29.7
				c15.8-12.1,53.4-11.3,72.1-11.3c18.9,0,56.1-0.8,72.1,11.3c4.4,3.4,7.4,6.9,10,11.8c6.8,12.1,6.1,27.7,6.1,41
				C1164.5,119.7,1164.2,127.6,1163.7,135.3z M1112.1,89.8c-6.9-6.6-26.8-6.9-35.5-6.9c-8.4,0-17.1,0.3-25.3,1.8
				c-16.3,3.2-16.6,15.8-16.6,30c0,6.9-0.3,16,4.7,21.3c7.1,7.6,27.7,7.6,37.1,7.6c8.9,0,18.4,0,27.1-2.4
				c14.5-3.9,14.2-17.1,14.2-30C1117.9,104.2,1117.6,95,1112.1,89.8z"/>
			<path d="M1318.5,175.6v-16.3h-2.4c-3.2,5.3-5.5,8.7-10.8,11.8c-11.6,7.1-31.1,7.6-44.2,7.6c-19.2,0-45.3,0.3-60.6-13.2
				c-13.7-12.1-13.4-36.1-13.4-52.9c0-19.5,0.5-43.2,18.4-55.3c15.8-10.5,37.9-9.5,56.1-9.5c13.7,0,28.7-0.3,40.8,6.9
				c6.1,3.4,8.1,6.9,11.6,12.9h1.8V0h46.6v175.6H1318.5z M1313.7,94.5c-5.5-12.6-25.5-11.6-36.8-11.6c-11.6,0-35-1.3-40.8,11.8
				c-2.1,5.3-2.4,12.1-2.4,17.6c0,7.4-0.3,18.7,5.3,24.5c6.3,6.9,26.6,6.9,35,6.9c9.5,0,21.1-0.5,30-3.4c12.6-3.9,12.4-16,12.4-27.4
				C1316.3,107.1,1316,100,1313.7,94.5z"/>
			<path d="M1563.2,135.3c-1,12.1-4.2,22.9-13.7,31.1c-16,14-54,12.4-73.7,12.4c-20.6,0-56.9,1.8-73.7-12.4
				c-4.7-3.9-7.6-8.1-10-13.7c-5.3-12.9-4.4-29.2-4.4-42.9c0-6.9,0-14,0.8-20.8c1-11.8,5.5-22.3,15.2-29.7
				c15.8-12.1,53.4-11.3,72.1-11.3c18.9,0,56.1-0.8,72.1,11.3c4.4,3.4,7.4,6.9,10,11.8c6.8,12.1,6.1,27.7,6.1,41
				C1564,119.7,1563.7,127.6,1563.2,135.3z M1511.6,89.8c-6.9-6.6-26.8-6.9-35.5-6.9c-8.4,0-17.1,0.3-25.3,1.8
				c-16.3,3.2-16.6,15.8-16.6,30c0,6.9-0.3,16,4.7,21.3c7.1,7.6,27.7,7.6,37.1,7.6c8.9,0,18.4,0,27.1-2.4
				c14.5-3.9,14.2-17.1,14.2-30C1517.4,104.2,1517.1,95,1511.6,89.8z"/>
			<path d="M1733.5,106.3h-43.7c0-18.4-6.1-23.4-24.5-23.4c-28.7,0-29.5,18.2-29.5,41v51.6h-46.6V51h43.9v18.7h2.1
				c10.8-19.2,28.2-21.8,48.4-21.8c14.5,0,31.9,1.8,41.6,14c8.7,10.8,8.4,26.3,8.4,39.5C1733.8,102.9,1733.5,104.7,1733.5,106.3z"/>
			<path d="M1919.3,123.4h-121.6c0,7.1-0.3,15.2,5.8,20.3c6.3,5,24,5.3,31.6,5.3c7.6,0,28.9,0.3,33.9-5.3c2.1-2.1,2.7-5,3.2-7.9
				h46.3c-1,11.8-3.4,21.1-12.4,29.2c-16,14.5-54.5,13.7-74.8,13.7c-18.4,0-49.2,0.3-64.5-11.6c-4.7-3.7-7.9-7.9-10.5-13.2
				c-5.8-12.1-5.3-27.1-5.3-40c0-7.9,0-15.8,0.8-23.4c1.3-12.6,5.5-24,16-31.6c16.3-11.8,49-11,68.2-11c17.6,0,36.8-0.5,54,4.4
				c27.7,8.1,29.5,33.4,29.5,58.4C1919.6,115,1919.6,119.2,1919.3,123.4z M1872.8,95c0-4.7-0.3-8.4-3.7-12.1
				c-5.5-6.1-24.5-6.1-32.1-6.1c-7.1,0-14.2,0-21.1,1c-13.2,1.8-17.9,6.9-18.2,20h75L1872.8,95L1872.8,95z"/>
		</g>
	</g>
</g>
</svg>
