<?xml version="1.0" encoding="utf-8"?>
<!-- Generator: Adobe Illustrator 25.4.1, SVG Export Plug-In . SVG Version: 6.00 Build 0)  -->
<svg version="1.1" id="Layer_1" xmlns="http://www.w3.org/2000/svg" xmlns:xlink="http://www.w3.org/1999/xlink" x="0px" y="0px"
	 viewBox="0 0 3839 381.2" style="enable-background:new 0 0 3839 381.2;" xml:space="preserve">
<style type="text/css">
	.st0{fill-rule:evenodd;clip-rule:evenodd;fill:#3E3632;}
	.st1{fill:#282422;}
	.st2{fill:#C5C5C5;}
	.st3{fill:#020202;stroke:#000000;stroke-width:4.7827;stroke-linecap:round;stroke-linejoin:round;stroke-miterlimit:10;}
	.st4{clip-path:url(#SVGID_00000013165732932554217330000010644272101562427070_);}
	.st5{fill:#002684;stroke:#231F20;stroke-width:0.7971;stroke-linecap:round;stroke-linejoin:round;stroke-miterlimit:10;}
	.st6{fill:#00771F;}
	.st7{fill:#89BC27;}
	.st8{fill:#FCEC01;}
	.st9{fill:#F17100;}
	.st10{fill:#E50069;}
	.st11{clip-path:url(#SVGID_00000044864994985078803030000014776528977465654719_);}
	.st12{stroke:#000000;stroke-width:4.7827;stroke-linecap:round;stroke-linejoin:round;stroke-miterlimit:10;}
	.st13{fill:#FFFFFF;stroke:#000000;stroke-width:4.7827;stroke-linecap:round;stroke-linejoin:round;stroke-miterlimit:10;}
	.st14{fill:#020202;}
	.st15{fill:none;stroke:#000000;stroke-width:4.7827;stroke-linecap:round;stroke-linejoin:round;stroke-miterlimit:10;}
	.st16{fill:#F20029;stroke:#000000;stroke-width:4.7827;stroke-linecap:round;stroke-linejoin:round;stroke-miterlimit:10;}
	.st17{fill:#002684;stroke:#000000;stroke-width:4.7827;stroke-linecap:round;stroke-linejoin:round;stroke-miterlimit:10;}
	.st18{fill:url(#SVGID_00000065063584368016584810000004557874976857344943_);}
	.st19{fill:#FFFFFF;}
	.st20{fill:url(#SVGID_00000117652276728698073930000011074898487667122052_);}
	.st21{fill:url(#SVGID_00000018228626553481175520000009412163673966184874_);}
	.st22{fill:url(#SVGID_00000173147604141474651570000006908424879053541795_);}
	.st23{clip-path:url(#SVGID_00000131332878724854674290000007514811987949351352_);}
	.st24{clip-path:url(#SVGID_00000106139203992977890670000004769858521302737070_);}
	.st25{clip-path:url(#SVGID_00000106840355980673167920000014266352146875241141_);}
	.st26{fill:#002684;}
	.st27{clip-path:url(#SVGID_00000083802456884373308720000000481302433484749752_);}
	.st28{clip-path:url(#SVGID_00000058549146414426486670000005538473693371676607_);}
	.st29{fill:#020202;stroke:#000000;stroke-width:4.928;stroke-linecap:round;stroke-linejoin:round;stroke-miterlimit:10;}
	.st30{fill:#FFFFFF;stroke:#000000;stroke-width:4.928;stroke-linecap:round;stroke-linejoin:round;stroke-miterlimit:10;}
	.st31{fill:#F20029;stroke:#000000;stroke-width:4.928;stroke-linecap:round;stroke-linejoin:round;stroke-miterlimit:10;}
	.st32{fill:#002684;stroke:#000000;stroke-width:4.928;stroke-linecap:round;stroke-linejoin:round;stroke-miterlimit:10;}
	.st33{fill:none;stroke:#000000;stroke-width:4.928;stroke-linecap:round;stroke-linejoin:round;stroke-miterlimit:10;}
	.st34{clip-path:url(#SVGID_00000159461382077554320180000003944798655509811383_);}
	.st35{clip-path:url(#SVGID_00000058559799419599311770000005456252058321360058_);}
	.st36{clip-path:url(#SVGID_00000033338431797643202410000012262481905271410601_);}
	.st37{fill:url(#SVGID_00000053502843681351349390000018261782737868894610_);}
	.st38{fill:url(#SVGID_00000172417421531091972830000011001732572341079954_);}
	.st39{fill:url(#SVGID_00000128476609107867062800000006961534863830033558_);}
	.st40{fill:url(#SVGID_00000074432379307546200380000000335576375335428286_);}
	.st41{clip-path:url(#SVGID_00000164501918576770609500000015334975675313438379_);}
	.st42{fill:#231F20;}
	.st43{clip-path:url(#SVGID_00000158028200520345582530000015761796501669041305_);}
	.st44{clip-path:url(#SVGID_00000121251952412473395770000011866283853471372703_);}
	.st45{fill:#F20029;}
	.st46{clip-path:url(#SVGID_00000127749324371319334610000001443440558019569558_);}
	.st47{clip-path:url(#SVGID_00000013889469565615307620000014150325930777353653_);}
	.st48{clip-path:url(#SVGID_00000028317948783382920900000008586746810167753139_);}
	.st49{clip-path:url(#SVGID_00000078027619147844597530000002324758623676053159_);}
	.st50{clip-path:url(#SVGID_00000077292635999327715240000010899489913449635726_);}
	.st51{clip-path:url(#SVGID_00000085932164550250941440000012191556694820967324_);}
	.st52{fill-rule:evenodd;clip-rule:evenodd;fill:#F20029;}
	.st53{fill-rule:evenodd;clip-rule:evenodd;fill:#FD7801;}
	.st54{fill-rule:evenodd;clip-rule:evenodd;fill:#F2F540;}
	.st55{fill-rule:evenodd;clip-rule:evenodd;fill:#48CC31;}
	.st56{fill-rule:evenodd;clip-rule:evenodd;fill:#14A3FD;}
	.st57{fill:url(#SVGID_00000070837278179888094730000013411996357964990860_);}
	.st58{fill:url(#SVGID_00000162353341891310118410000017507390928185479846_);}
	.st59{fill:url(#SVGID_00000054975998691777326960000004798839824926517156_);}
	.st60{fill:url(#SVGID_00000173136322715240451290000015005621259217339318_);}
	.st61{fill:url(#SVGID_00000056412250224294238290000009220745405858866359_);}
	.st62{fill:url(#SVGID_00000033369293126925087600000003649762141136698755_);}
	.st63{fill:url(#SVGID_00000029022387066188651470000004011940106041701523_);}
	.st64{fill:url(#SVGID_00000126308383993145893770000010355775996924401285_);}
	.st65{fill:url(#SVGID_00000075842231930105137510000011241096410121086103_);}
	.st66{fill:url(#SVGID_00000121251279284627435120000003967461780831277709_);}
	.st67{fill:url(#SVGID_00000155838031189028881160000014104118967466860943_);}
	.st68{fill:url(#SVGID_00000101103627412416042180000000743508692320013988_);}
	.st69{fill:url(#SVGID_00000065757143980757461380000002073934213955044268_);}
	.st70{fill:url(#SVGID_00000109735251971191423110000006321899849526815909_);}
	.st71{fill:url(#SVGID_00000153678316192269847720000001900788572122335664_);}
	.st72{fill:url(#SVGID_00000031209192787337454690000001531007149944226215_);}
	.st73{fill:url(#SVGID_00000072282504070477358720000013785235887398567818_);}
	.st74{fill-rule:evenodd;clip-rule:evenodd;fill:#0F2166;}
	.st75{fill-rule:evenodd;clip-rule:evenodd;fill:#1D4C59;}
	.st76{fill-rule:evenodd;clip-rule:evenodd;fill:#2C774C;}
	.st77{fill-rule:evenodd;clip-rule:evenodd;fill:#3AA23E;}
	.st78{fill-rule:evenodd;clip-rule:evenodd;fill:#48CD31;}
	.st79{fill-rule:evenodd;clip-rule:evenodd;fill:#6AD534;}
	.st80{fill-rule:evenodd;clip-rule:evenodd;fill:#8CDD37;}
	.st81{fill-rule:evenodd;clip-rule:evenodd;fill:#AFE63A;}
	.st82{fill-rule:evenodd;clip-rule:evenodd;fill:#D1EE3D;}
	.st83{fill-rule:evenodd;clip-rule:evenodd;fill:#F3F640;}
	.st84{fill-rule:evenodd;clip-rule:evenodd;fill:#F6D730;}
	.st85{fill-rule:evenodd;clip-rule:evenodd;fill:#F9B721;}
	.st86{fill-rule:evenodd;clip-rule:evenodd;fill:#FB9811;}
	.st87{fill-rule:evenodd;clip-rule:evenodd;fill:#FE7801;}
	.st88{fill-rule:evenodd;clip-rule:evenodd;fill:#FE5C13;}
	.st89{fill-rule:evenodd;clip-rule:evenodd;fill:#FE4125;}
	.st90{fill-rule:evenodd;clip-rule:evenodd;fill:#FE2537;}
	.st91{fill-rule:evenodd;clip-rule:evenodd;fill:#14A4FE;}
	.st92{fill-rule:evenodd;clip-rule:evenodd;fill:#21AECB;}
	.st93{fill-rule:evenodd;clip-rule:evenodd;fill:#2EB998;}
	.st94{fill-rule:evenodd;clip-rule:evenodd;fill:#3BC364;}
	.st95{fill-rule:evenodd;clip-rule:evenodd;fill:#C5C5C5;}
	.st96{fill:#020202;stroke:#000000;stroke-width:4.7334;stroke-linecap:round;stroke-linejoin:round;stroke-miterlimit:10;}
	.st97{clip-path:url(#SVGID_00000133500900015409892570000013576388092966254471_);}
	.st98{fill:#002684;stroke:#231F20;stroke-width:0.7889;stroke-linecap:round;stroke-linejoin:round;stroke-miterlimit:10;}
	.st99{clip-path:url(#SVGID_00000094612156634476272660000016539422562802292382_);}
	.st100{stroke:#000000;stroke-width:4.7334;stroke-linecap:round;stroke-linejoin:round;stroke-miterlimit:10;}
	.st101{fill:#FFFFFF;stroke:#000000;stroke-width:4.7334;stroke-linecap:round;stroke-linejoin:round;stroke-miterlimit:10;}
	.st102{fill:none;stroke:#000000;stroke-width:4.7334;stroke-linecap:round;stroke-linejoin:round;stroke-miterlimit:10;}
	.st103{fill:#F20029;stroke:#000000;stroke-width:4.7334;stroke-linecap:round;stroke-linejoin:round;stroke-miterlimit:10;}
	.st104{fill:#002684;stroke:#000000;stroke-width:4.7334;stroke-linecap:round;stroke-linejoin:round;stroke-miterlimit:10;}
	.st105{fill:url(#SVGID_00000176764265759167143540000002555825504659681181_);}
	.st106{fill:url(#SVGID_00000181802528233593944850000011879897468557400736_);}
	.st107{fill:url(#SVGID_00000043434151178997678360000000745626533648712594_);}
	.st108{fill:url(#SVGID_00000016042891722876871170000002370212885666774664_);}
	.st109{clip-path:url(#SVGID_00000160895594666805570780000007369673407226292375_);}
	.st110{clip-path:url(#SVGID_00000150098826490073236390000003169715389854774204_);}
	.st111{clip-path:url(#SVGID_00000083059434018416161830000005271926903491512221_);}
	.st112{clip-path:url(#SVGID_00000029010567359514992860000008221307697413034654_);}
	.st113{clip-path:url(#SVGID_00000142865155136657960180000010984369610311671458_);}
	.st114{fill:#020202;stroke:#000000;stroke-width:4.8772;stroke-linecap:round;stroke-linejoin:round;stroke-miterlimit:10;}
	.st115{fill:#FFFFFF;stroke:#000000;stroke-width:4.8772;stroke-linecap:round;stroke-linejoin:round;stroke-miterlimit:10;}
	.st116{fill:#F20029;stroke:#000000;stroke-width:4.8772;stroke-linecap:round;stroke-linejoin:round;stroke-miterlimit:10;}
	.st117{fill:#002684;stroke:#000000;stroke-width:4.8772;stroke-linecap:round;stroke-linejoin:round;stroke-miterlimit:10;}
	.st118{fill:none;stroke:#000000;stroke-width:4.8772;stroke-linecap:round;stroke-linejoin:round;stroke-miterlimit:10;}
	.st119{fill:url(#SVGID_00000175312701219852967310000016879071548982241422_);}
	.st120{fill:url(#SVGID_00000057120980269929122730000001906967493331083922_);}
	.st121{fill:url(#SVGID_00000180332219217444241620000013021551438265390489_);}
	.st122{fill:url(#SVGID_00000168079493134987681980000003699611806418789300_);}
	.st123{clip-path:url(#SVGID_00000163779528573250417870000009471690803963444919_);}
	.st124{clip-path:url(#SVGID_00000143619732968275009640000014498519473900022703_);}
	.st125{clip-path:url(#SVGID_00000009572717752886290710000006099059966555001019_);}
	.st126{fill-rule:evenodd;clip-rule:evenodd;fill:#FFFFFF;}
	.st127{fill:url(#SVGID_00000038405731597442309500000002372490596089271703_);}
	.st128{fill:url(#SVGID_00000052095864055793907190000007204883475422759338_);}
	.st129{fill:url(#SVGID_00000033352947373333385480000017663536614814314921_);}
	.st130{fill:url(#SVGID_00000072983332863594479310000017387198887131403702_);}
	.st131{fill:url(#SVGID_00000049193861436903115440000011887620276664256138_);}
	.st132{fill:url(#SVGID_00000088092244611113328400000006905478557978011807_);}
	.st133{fill:url(#SVGID_00000133519348839478645840000011115064798431493277_);}
	.st134{fill:url(#SVGID_00000051376502618894396280000012934132882046626442_);}
	.st135{fill:url(#SVGID_00000095299353874730037970000007364538731339646617_);}
	.st136{fill:url(#SVGID_00000155128241677408828090000017961229786024198830_);}
	.st137{fill:url(#SVGID_00000109026748808355829190000007577956719096849027_);}
	.st138{fill:url(#SVGID_00000126305254002268400890000006018794863811981744_);}
	.st139{fill:url(#SVGID_00000030471157717352410660000012339876221035558061_);}
	.st140{fill:url(#SVGID_00000031894836969044623510000004841621929084394390_);}
	.st141{fill:url(#SVGID_00000117659655397347165890000009694552213921090453_);}
	.st142{fill:url(#SVGID_00000147916964847476672820000001561149600909884083_);}
	.st143{fill:url(#SVGID_00000016068865762770107030000009878922938750492040_);}
	.st144{fill-rule:evenodd;clip-rule:evenodd;fill:#002684;}
	.st145{fill-rule:evenodd;clip-rule:evenodd;fill:#12506F;}
	.st146{fill-rule:evenodd;clip-rule:evenodd;fill:#24795B;}
	.st147{fill-rule:evenodd;clip-rule:evenodd;fill:#36A346;}
	.st148{fill-rule:evenodd;clip-rule:evenodd;fill:#6AD434;}
	.st149{fill-rule:evenodd;clip-rule:evenodd;fill:#8BDC37;}
	.st150{fill-rule:evenodd;clip-rule:evenodd;fill:#AEE53A;}
	.st151{fill-rule:evenodd;clip-rule:evenodd;fill:#D0ED3D;}
	.st152{fill-rule:evenodd;clip-rule:evenodd;fill:#F5D630;}
	.st153{fill-rule:evenodd;clip-rule:evenodd;fill:#F8B621;}
	.st154{fill-rule:evenodd;clip-rule:evenodd;fill:#FA9711;}
	.st155{fill-rule:evenodd;clip-rule:evenodd;fill:#F9500E;}
	.st156{fill-rule:evenodd;clip-rule:evenodd;fill:#F6281C;}
	.st157{clip-path:url(#SVGID_00000084517651627764328340000002655215298201209488_);}
	.st158{clip-path:url(#SVGID_00000008144807256165530360000015673764952926811010_);}
	.st159{clip-path:url(#SVGID_00000130616564745770023230000014619505256131977661_);}
	.st160{clip-path:url(#SVGID_00000150076591666639921350000000395281762785012922_);}
	.st161{clip-path:url(#SVGID_00000165913768530760977410000011727952013627842713_);}
	.st162{clip-path:url(#SVGID_00000095304637218465516320000010025295913636414873_);}
	.st163{clip-path:url(#SVGID_00000016764581418126169900000002730119468704190358_);}
	.st164{clip-path:url(#SVGID_00000112609777116543800820000006543295092699870368_);}
	.st165{clip-path:url(#SVGID_00000072267532418461059690000002157954930788602299_);}
	.st166{clip-path:url(#SVGID_00000069378393006681701570000004094095608636079745_);}
	.st167{clip-path:url(#SVGID_00000183963086797745387730000001324943029660044948_);}
	.st168{clip-path:url(#SVGID_00000163053745988557259750000018011566133881856421_);}
	.st169{clip-path:url(#SVGID_00000019647155316446303970000007336190988286570173_);}
	.st170{clip-path:url(#SVGID_00000063602754941015248020000004327158993918899647_);}
	.st171{clip-path:url(#SVGID_00000041978758912993736680000007197257126748782266_);}
	.st172{clip-path:url(#SVGID_00000138546392881967106860000014132249340807259008_);}
	.st173{clip-path:url(#SVGID_00000078745621601245225460000001446122450254072217_);}
	.st174{clip-path:url(#SVGID_00000137091456457017998070000017908615754379322012_);}
	.st175{clip-path:url(#SVGID_00000032619108231153603470000004478074736238766751_);}
	.st176{clip-path:url(#SVGID_00000140001965842473224280000013183663205974634911_);}
	.st177{clip-path:url(#SVGID_00000036222106787756357650000017525871108025189775_);}
	.st178{clip-path:url(#SVGID_00000048468402762105120650000003066152864172149428_);}
	.st179{clip-path:url(#SVGID_00000106847522820756397240000005547099395355438252_);}
	.st180{clip-path:url(#SVGID_00000181778576856024360480000014297618754931433877_);}
	.st181{clip-path:url(#SVGID_00000132045942632379538430000011556766824926367152_);}
	.st182{clip-path:url(#SVGID_00000078041728488755742300000000233109881832174984_);}
	.st183{clip-path:url(#SVGID_00000028302286981504578010000016558549145700654746_);}
</style>
<g>
	<g>
		<path id="path4583_00000077286106732066415350000015146143336237678265_" class="st0" d="M190.6,0h3457.9
			C3753.2,0,3839,85.8,3839,190.6l0,0c0,104.8-85.8,190.6-190.6,190.6H190.6C85.8,381.1,0,295.4,0,190.6l0,0C0,85.8,85.8,0,190.6,0z
			"/>
		<g>
			<path id="path4595_00000047045381464084906340000004924509935199457697_" class="st1" d="M1855.2,148.7h-33.8v96.9h35.2v-50.6
				c0-13.2,8.1-19.8,22.8-19.8c14.7,0,18.4,4.4,19.1,16.9h33c0-33-4.4-45.5-39.6-45.5c-21.3,0-28.6,4.4-36.7,20.6V148.7
				L1855.2,148.7z M2017.4,226.4c-33.8,0-38.9-2.9-38.9-19.8h92.5c-1.5-47-1.5-58-63.9-58c-52.9,0-64.6,9.5-64.6,51.4
				c0,38.9,15.4,48.5,58,49.2c47.7,0,70.5-2.2,70.5-33.8h-34.5C2035.1,222.7,2032.1,226.4,2017.4,226.4z M1977.8,186.1
				c1.5-10.3,4.4-14,27.9-14c25.7,0,29.4,1.5,30.8,14H1977.8z M665.4,189.8h35.2c-2.9-33-12.5-41.1-61.7-41.1
				c-55.8,0-68.3,8.8-68.3,49.9s11.7,50.7,63.9,50.7c55.1,0,66.1-7.3,66.1-41.9h-35.2c0,9.5-3.7,14-30.8,14
				c-23.5,0-28.6-5.9-28.6-25c0-18.4,5.1-18.4,33-18.4C659.5,178.1,663.2,180.3,665.4,189.8z M1483.8,195.6
				c0-39.6-11.7-47.7-68.3-47.7c-60.9,0-68.3,10.3-68.3,51.4s10.3,49.9,68.3,49.9C1477.2,249.2,1483.8,238.9,1483.8,195.6z
				 M1383.2,197.8c0-19.8,4.4-22,30.1-22c28.6,0,33.8,0.7,33.8,22c0,19.8-3.7,23.5-30.8,23.5
				C1386.9,221.3,1383.2,218.3,1383.2,197.8L1383.2,197.8z M1800.1,195.6c0-39.6-11-47.7-67.5-47.7c-60.2,0-67.5,9.5-67.5,50.7
				c0,41.8,10.3,50.7,67.5,50.7C1794.2,249.2,1800.1,238.9,1800.1,195.6z M1700.4,197.8c0-19.8,4.4-22,30.1-22
				c28.6,0,33.8,0.7,33.8,22c0,19.8-3.7,23.5-30.8,23.5C1704.1,221.3,1700.4,218.3,1700.4,197.8z M857,195.6
				c0-39.6-11-47.7-67.5-47.7c-60.9,0-68.3,9.5-68.3,50.7c0,41.8,10.3,50.7,68.3,50.7C851.1,249.2,857,238.9,857,195.6z
				 M757.9,197.8c0-19.8,4.4-22,29.4-22c28.6,0,33.8,0.7,33.8,22c0,19.8-3.7,23.5-30.8,23.5C761.5,221.3,757.9,218.3,757.9,197.8z
				 M1606.4,107.6v56.5c-8.1-11-15.4-16.9-44.8-16.9c-47,0-55.8,12.5-55.8,50.7c0,38.9,12.5,49.9,58,49.9c28.6,0,37.4-7.3,44.1-19.8
				v17.6h35.2v-138L1606.4,107.6L1606.4,107.6z M1580.7,175.1c19.8,0,26.4,2.9,26.4,18.3c0,23.5-1.5,25.7-29.4,25.7
				c-27.9,0-35.2-0.8-35.2-20.6C1542.5,175.9,1551.3,175.1,1580.7,175.1z M912.8,148.7h-33v96.9H915v-49.9
				c0-14.7,7.3-19.8,27.2-19.8c18.4,0,23.5,6.6,23.5,25v44.8h36v-51.4c0-13.9,11-18.3,27.9-18.3c16.2,0,23.5,4.4,23.5,18.3v51.4
				h35.2v-57.3c0-28.6-17.6-41.8-49.9-41.8c-27.9,0-38.2,10.3-41.9,21.3c-7.3-12.5-17.6-21.3-45.5-21.3c-26.4,0-33.8,8.8-38.2,25
				L912.8,148.7L912.8,148.7z M1149.8,148.7h-33v96.9h35.2v-49.9c0-14.7,8.8-19.8,26.4-19.8c18.4,0,23.5,5.9,23.5,25v44.8h36v-51.4
				c0-13.9,10.3-18.3,27.2-18.3c16.1,0,24.2,5.1,24.2,18.3v51.4h35.2v-57.3c0-28.6-17.6-41.8-49.9-41.8c-27.9,0-37.5,9.5-41.8,21.3
				c-7.3-12.5-17.6-21.3-45.5-21.3c-25.7,0-32.3,8.8-37.4,25L1149.8,148.7L1149.8,148.7z"/>
			<g>
				<path class="st1" d="M411.3,257.9c-9.6,5.4-20.7,8.5-32.6,8.5c-36.8,0-66.8-29.9-66.8-66.8s29.9-66.8,66.8-66.8
					c11.8,0,22.9,3.1,32.6,8.5V78.1c-10.4-2.8-21.3-4.3-32.6-4.3c-69.5,0-125.9,56.4-125.9,125.9s56.4,125.9,125.9,125.9
					c11.3,0,22.2-1.5,32.6-4.3V257.9z"/>
				<g>
					<polygon class="st1" points="464.2,195 470.7,195 521.1,144.8 464.2,144.8 447.5,144.8 411.3,144.8 411.3,195 447.5,195 					
						"/>
					<polygon class="st1" points="464.2,204.2 447.5,204.2 411.3,204.2 411.3,254.6 447.5,254.6 464.2,254.6 521.1,254.6 
						470.7,204.2 					"/>
				</g>
			</g>
		</g>
		<path class="st2" d="M3648.4,0H2276.8v381.1h1371.6c104.8,0,190.6-85.8,190.6-190.6S3753.2,0,3648.4,0z"/>
		<g>
			<g>
				<defs>
					<path id="SVGID_00000163756765783926221730000005081408267072139199_" d="M2988.4,267.2c-11.6,6.5-24.9,10.2-39.1,10.2
						c-44.2,0-80.1-35.9-80.1-80.1s35.9-80.1,80.1-80.1c14.2,0,27.5,3.7,39.1,10.2V51.4c-12.5-3.3-25.6-5.1-39.1-5.1
						c-83.5,0-151.1,67.7-151.1,151.1s67.7,151.1,151.1,151.1c13.5,0,26.6-1.8,39.1-5.1V267.2z"/>
				</defs>
				<clipPath id="SVGID_00000044883773669802836200000002770911227472553894_">
					<use xlink:href="#SVGID_00000163756765783926221730000005081408267072139199_"  style="overflow:visible;"/>
				</clipPath>
				<g style="clip-path:url(#SVGID_00000044883773669802836200000002770911227472553894_);">
					<g>
						<polygon class="st9" points="2808.9,47.2 2467.8,381.2 2598.8,381.2 2958.6,28.9 						"/>
						<polygon class="st8" points="2958.6,28.9 2598.8,381.2 2730,381.2 3071.1,47.2 						"/>
						<polygon class="st6" points="3202.2,47.2 2861.1,381.2 3045.8,381.2 3246.1,73.1 						"/>
						<polygon class="st10" points="2677.7,47.2 2336.6,381.2 2467.8,381.2 2808.9,47.2 						"/>
						<polygon class="st7" points="3071.1,47.2 2730,381.2 2861.1,381.2 3202.2,47.2 						"/>
					</g>
					<polygon class="st26" points="2677.7,47.2 2336.6,381.2 2184.9,381.2 2454,21.1 					"/>
				</g>
			</g>
		</g>
		<g>
			<g>
				<defs>
					<rect id="SVGID_00000023268091413045628000000011325467886020107152_" x="2695.8" y="55.4" width="61.2" height="299.6"/>
				</defs>
				<clipPath id="SVGID_00000181808176580668557420000013940334483989117857_">
					<use xlink:href="#SVGID_00000023268091413045628000000011325467886020107152_"  style="overflow:visible;"/>
				</clipPath>
				<g style="clip-path:url(#SVGID_00000181808176580668557420000013940334483989117857_);">
					<g>
						<polygon class="st9" points="2808.9,47.2 2467.8,381.2 2598.8,381.2 2958.6,28.9 						"/>
						<polygon class="st8" points="2958.6,28.9 2598.8,381.2 2730,381.2 3071.1,47.2 						"/>
						<polygon class="st6" points="3202.2,47.2 2861.1,381.2 3045.8,381.2 3246.1,73.1 						"/>
						<polygon class="st10" points="2677.7,47.2 2336.6,381.2 2467.8,381.2 2808.9,47.2 						"/>
						<polygon class="st7" points="3071.1,47.2 2730,381.2 2861.1,381.2 3202.2,47.2 						"/>
					</g>
					<polygon class="st26" points="2677.7,47.2 2336.6,381.2 2184.9,381.2 2454,21.1 					"/>
				</g>
			</g>
		</g>
		<g>
			<g>
				<defs>
					<polygon id="SVGID_00000021078311961526512580000015052665777338278572_" points="2596.8,55.4 2568.2,294.5 2539.7,55.4 
						2478.1,55.4 2513.8,355 2561,355 2575.4,355 2622.7,355 2658.5,55.4 					"/>
				</defs>
				<clipPath id="SVGID_00000060011375953266267280000014292808214103951014_">
					<use xlink:href="#SVGID_00000021078311961526512580000015052665777338278572_"  style="overflow:visible;"/>
				</clipPath>
				<g style="clip-path:url(#SVGID_00000060011375953266267280000014292808214103951014_);">
					<g>
						<polygon class="st9" points="2808.9,47.2 2467.8,381.2 2598.8,381.2 2958.6,28.9 						"/>
						<polygon class="st8" points="2958.6,28.9 2598.8,381.2 2730,381.2 3071.1,47.2 						"/>
						<polygon class="st6" points="3202.2,47.2 2861.1,381.2 3045.8,381.2 3246.1,73.1 						"/>
						<polygon class="st10" points="2677.7,47.2 2336.6,381.2 2467.8,381.2 2808.9,47.2 						"/>
						<polygon class="st7" points="3071.1,47.2 2730,381.2 2861.1,381.2 3202.2,47.2 						"/>
					</g>
					<polygon class="st26" points="2677.7,47.2 2336.6,381.2 2184.9,381.2 2454,21.1 					"/>
				</g>
			</g>
		</g>
		<g>
			<polygon class="st29" points="2735.1,34.3 2716.8,34.3 2695.8,55.4 2716.8,55.4 2757,55.4 2757,301.6 2757,355 2778.1,333.9 
				2778.1,298.7 2778.1,34.3 			"/>
			<polygon class="st29" points="2529.8,34.3 2499,34.3 2478.1,55.4 2501.5,55.4 2539.7,55.4 2568.2,294.5 2580,195.8 2560.7,34.3 
							"/>
			<polygon class="st29" points="2648.6,34.3 2617.8,34.3 2596.8,55.4 2615.3,55.4 2658.5,55.4 2625.2,333.9 2625.2,333.9 
				2622.7,355 2643.7,333.9 2645.7,317.6 2645.7,317.6 2679.5,34.3 			"/>
		</g>
		<polygon class="st30" points="2539.7,55.4 2560.7,34.3 2499,34.3 2478.1,55.4 		"/>
		<polygon class="st30" points="2617.8,34.3 2679.5,34.3 2658.5,55.4 2596.8,55.4 		"/>
		<polygon class="st30" points="2716.8,34.3 2695.8,55.4 2757,55.4 2778.1,34.3 		"/>
		<g>
			<path class="st29" d="M3293.3,34.3h-61.6c-12.2,0-23.3,4.7-31.6,12.3l0,0l-0.3,0.3c-0.7,0.7-1.4,1.4-2.1,2.1l-18.9,18.9l0,0
				c1-1,2.1-1.9,3.3-2.8l0,0c1.1-0.9,2.3-1.7,3.5-2.4c0.1,0,0.1-0.1,0.2-0.1c1.1-0.7,2.3-1.4,3.5-2c0.2-0.1,0.3-0.1,0.5-0.2
				c1.1-0.6,2.3-1.1,3.4-1.6c0.3-0.1,0.6-0.2,0.9-0.3c1.1-0.4,2.1-0.8,3.2-1.1c0.5-0.1,1-0.3,1.5-0.4c0.9-0.2,1.8-0.5,2.8-0.7
				c0.8-0.2,1.6-0.3,2.4-0.4c0.7-0.1,1.4-0.2,2.1-0.3c1.5-0.2,3.1-0.2,4.7-0.2h61.6l0,0c1.5,0,2.9,0.1,4.3,0.2
				c0.4,0,0.8,0.1,1.3,0.1c1,0.1,2.1,0.3,3.1,0.5c0.4,0.1,0.8,0.1,1.2,0.2c2.7,0.6,5.4,1.4,7.9,2.5c0.4,0.2,0.7,0.3,1.1,0.5
				c0.9,0.4,1.9,0.9,2.8,1.3c0.4,0.2,0.7,0.4,1.1,0.6c1.2,0.7,2.4,1.4,3.5,2.1c1.2,0.8,2.5,1.7,3.6,2.7c1.2,1,2.4,2.1,3.5,3.2
				c0.4,0.4,0.7,0.8,1.1,1.2c0.7,0.8,1.5,1.6,2.1,2.4c0.4,0.5,0.7,1,1.1,1.5c0.6,0.8,1.2,1.6,1.7,2.4c0.4,0.6,0.7,1.1,1,1.7
				c0.5,0.8,1,1.7,1.4,2.5c0.3,0.6,0.6,1.2,0.9,1.8c0.4,0.9,0.8,1.8,1.1,2.7c0.2,0.6,0.5,1.3,0.7,1.9c0.3,0.9,0.6,1.9,0.8,2.9
				c0.2,0.6,0.3,1.2,0.5,1.9c0.2,1.1,0.4,2.2,0.6,3.3c0.1,0.6,0.2,1.1,0.3,1.7c0.2,1.7,0.3,3.4,0.3,5.1l0,0v81l0,0v7.3
				c0,10.2-3.4,20-9.3,27.9l0,0l15.4-14.7l0,0c9.4-8.8,14.9-21.1,14.9-34.3V81.2C3340.2,55.3,3319.2,34.3,3293.3,34.3z"/>
			<path class="st30" d="M3367.3,102.3v205.8c0,25.9,21,46.9,46.9,46.9h61.6c25.9,0,46.9-21,46.9-46.9V102.3
				c0-25.9-21-46.9-46.9-46.9h-61.6C3388.3,55.4,3367.3,76.4,3367.3,102.3z M3428.6,295.4V115c0-6.1,5-11.1,11.1-11.1h10.8
				c6.1,0,11.1,5,11.1,11.1v180.5c0,6.1-5,11.1-11.1,11.1h-10.8C3433.5,306.4,3428.6,301.5,3428.6,295.4z"/>
			<g>
				<g>
					<path class="st14" d="M3507.3,342.8L3507.3,342.8l0.8-0.7C3507.8,342.3,3507.5,342.6,3507.3,342.8z"/>
					<path class="st29" d="M3543.8,81.2c0-25.9-21-46.9-46.9-46.9h-61.6c-12.3,0-23.5,4.8-31.9,12.6h-0.2l-23,23h0.1
						c8.5-8.9,20.6-14.5,33.9-14.5h9.8h51.8c6.5,0,12.6,1.3,18.3,3.7c6.9,2.9,12.9,7.4,17.7,13.1c0.3,0.4,0.6,0.8,1,1.2
						c2.1,2.6,3.8,5.5,5.3,8.5c3,6.2,4.7,13.1,4.7,20.4v194.9l0,0v10.9c0,12.5-4.9,23.8-12.9,32.2l20.1-20.1
						c0.3-0.3,0.6-0.6,0.9-0.9l0.2-0.2l0,0c7.9-8.4,12.8-19.6,12.8-32.1V81.2H3543.8z"/>
				</g>
				<path class="st14" d="M3439.7,103.9c-6.1,0-11.1,5-11.1,11.1v180.5c0,6.1,5,11.1,11.1,11.1h10.8c6.1,0,11.1-5,11.1-11.1v-10
					h-0.8c-6.1,0-11.1-5-11.1-11.1V103.9H3439.7z"/>
			</g>
			<path class="st29" d="M3236.1,103.9c-6.1,0-11.1,5-11.1,11.1v9.1l0,0v36l21.1-21.1v-17.6v-17.6L3236.1,103.9L3236.1,103.9z"/>
			<path class="st29" d="M3246.1,285.4v-26.6l-15.4,8.6c-3.5,2-5.7,5.7-5.7,9.7v29.4h94.2v8.8v39.8l21.1-21.1v-18.7v-29.8
				L3246.1,285.4L3246.1,285.4z"/>
			<path class="st14" d="M3176.4,70.4l-0.7,0.7l0,0C3175.9,70.9,3176.1,70.6,3176.4,70.4z"/>
			<path class="st30" d="M3496.9,34.3h-61.6c-12.3,0-23.5,4.8-31.9,12.6h-0.2l-23,23h0.1c8.5-8.9,20.6-14.5,33.9-14.5h9.8h51.8
				c6.5,0,12.6,1.3,18.3,3.7c5.1,2.2,9.7,5.2,13.7,8.9l21-21C3520.5,39.1,3509.3,34.3,3496.9,34.3z"/>
			<polygon class="st30" points="3225.1,306.4 3246.1,285.4 3340.2,285.4 3319.1,306.4 			"/>
			<path class="st30" d="M3309,73.1l21-21c-8.6-10.8-21.8-17.8-36.7-17.8h-61.6c-12.2,0-23.3,4.7-31.6,12.3l0,0l-0.3,0.3
				c-0.7,0.7-1.4,1.4-2.1,2.1l-18.9,18.9c8.4-7.8,19.5-12.6,31.9-12.6h61.6c9.7,0,18.7,3,26.2,8c1.2,0.8,2.5,1.7,3.6,2.7
				C3304.6,68.2,3306.9,70.6,3309,73.1z"/>
			<path class="st30" d="M3163.8,102.3v57.8h61.2V115c0-6.1,5-11.1,11.1-11.1h10.8c6.1,0,11.1,5,11.1,11.1v72.5c0,4-2.2,7.7-5.7,9.7
				l-64.5,36c-14.8,8.3-24,23.9-24,40.9v51.9V355h61.2l0,0h94.2v-48.5H3225v-29.4c0-4,2.2-7.7,5.7-9.7l64.5-36
				c14.8-8.3,24-23.9,24-40.9v-88.3c0-25.9-21-46.9-46.9-46.9h-61.6C3184.8,55.4,3163.8,76.4,3163.8,102.3z"/>
			<path class="st29" d="M3216.6,217l35.7-19.9c0.4-0.2,0.9-0.5,1.2-0.8c2.8-2.1,4.4-5.3,4.4-8.9v-2.8l-49.1,27.4
				c-3.2,1.8-6.2,4-8.9,6.4l0,0l-0.3,0.3c-0.8,0.7-1.5,1.5-2.2,2.2l-18.6,18.6l0,0c2.7-2.5,5.7-4.7,9-6.6L3216.6,217L3216.6,217z"/>
		</g>
		<g>
			<path class="st14" d="M2940.8,342.8L2940.8,342.8l0.8-0.7C2941.4,342.3,2941.1,342.6,2940.8,342.8z"/>
		</g>
		<g>
			<path class="st29" d="M2889.3,177.3c0-17,5.3-32.7,14.3-45.7c-20.8,14.5-34.5,38.6-34.5,65.8c0,44.2,35.9,80.1,80.1,80.1
				c14.2,0,27.5-3.7,39.1-10.2v36.3v39.8l20.1-20.1v-20.9v-55.2c-11.6,6.5-24.9,10.2-39.1,10.2
				C2925.3,257.3,2889.3,221.4,2889.3,177.3z"/>
			<path class="st29" d="M2969.4,26.2c-46.9,0-88.7,21.3-116.4,54.8c26.2-21.7,59.7-34.7,96.3-34.7c13.5,0,26.6,1.8,39.1,5.1v26.2
				v49.9l20.1-20.1V78.9V31.3C2996,28,2983,26.2,2969.4,26.2z"/>
		</g>
		<path class="st30" d="M2988.4,51.4l20.1-20.1c-12.5-3.3-25.6-5.1-39.1-5.1c-46.9,0-88.7,21.3-116.4,54.8
			c26.2-21.7,59.7-34.7,96.3-34.7C2962.8,46.3,2975.9,48.1,2988.4,51.4z"/>
		<path class="st29" d="M2988.4,267.2l20.1-20.1c-11.6,6.5-24.9,10.2-39.1,10.2c-44.2,0-80.1-35.9-80.1-80.1
			c0-17,5.3-32.7,14.3-45.7c-20.8,14.5-34.5,38.6-34.5,65.8c0,44.2,35.9,80.1,80.1,80.1C2963.5,277.4,2976.8,273.7,2988.4,267.2
			L2988.4,267.2z"/>
		<polygon class="st31" points="3051.8,202.8 3031.8,202.8 2988.4,202.8 2988.4,263.3 3031.8,263.3 3051.8,263.3 3120.1,263.3 
			3059.6,202.8 		"/>
		<polygon class="st29" points="3071.9,182.8 3051.9,182.8 3008.5,182.8 2988.4,202.8 3008.5,202.8 3016.4,202.8 3031.8,202.8 
			3051.8,202.8 3059.6,202.8 3100,243.1 3120.1,263.3 3140.2,243.1 3079.8,182.8 		"/>
		<polygon class="st30" points="3059.6,202.8 3079.8,182.8 3008.5,182.8 2988.4,202.8 		"/>
		<polygon class="st30" points="3031.8,131.5 3051.8,131.5 3120.1,131.5 3140.2,111.3 3071.9,111.3 3051.9,111.3 3008.5,111.3 
			2988.4,131.5 3008.5,131.5 		"/>
		<polygon class="st32" points="3051.8,191.9 3059.6,191.9 3120.1,131.5 3051.8,131.5 3031.8,131.5 2988.4,131.5 2988.4,191.9 
			3031.8,191.9 		"/>
		<polygon class="st33" points="2596.8,55.4 2568.2,294.5 2539.7,55.4 2478.1,55.4 2513.8,355 2561,355 2575.4,355 2622.7,355 
			2658.5,55.4 		"/>
		<path class="st33" d="M2988.4,267.2c-11.6,6.5-24.9,10.2-39.1,10.2c-44.2,0-80.1-35.9-80.1-80.1s35.9-80.1,80.1-80.1
			c14.2,0,27.5,3.7,39.1,10.2V51.4c-12.5-3.3-25.6-5.1-39.1-5.1c-83.5,0-151.1,67.7-151.1,151.1s67.7,151.1,151.1,151.1
			c13.5,0,26.6-1.8,39.1-5.1V267.2z"/>
		<rect x="2695.8" y="55.4" class="st33" width="61.2" height="299.6"/>
		<g>
			<g id="path4595_00000148645393436605420310000014295793809026790272_">
				
					<linearGradient id="SVGID_00000178907062262025395850000008145284437742594485_" gradientUnits="userSpaceOnUse" x1="-203.1941" y1="4366.2344" x2="-203.1941" y2="4501.6992" gradientTransform="matrix(1 0 0 -1 1524 4599.9736)">
					<stop  offset="0" style="stop-color:#B4BFC9"/>
					<stop  offset="1" style="stop-color:#F5F6FF"/>
				</linearGradient>
				<path style="fill:url(#SVGID_00000178907062262025395850000008145284437742594485_);" d="M2000.6,233.7
					c-43.1-0.8-54.9-10.7-54.9-46.1c0-40.2,10.4-48.3,61.5-48.3c31.1,0,45.4,2.8,52.4,10.3c7,7.4,7.6,20.3,8.3,41.5h-92.4v3.1
					c0,20.2,8.4,22.9,42,22.9c13.3,0,19.1-2.8,21.5-11h28.9C2066.5,231.2,2047.6,233.7,2000.6,233.7z M2005.7,156.7
					c-23,0-29.1,3.3-31,16.6l-0.5,3.5h65.8l-0.4-3.5C2037.7,157.5,2030,156.7,2005.7,156.7z M1732.6,233.7c-29.9,0-44.9-2.5-53.4-9
					c-8.1-6.2-11.1-16.6-11.1-38.6c0-39.2,5.6-47.6,64.5-47.6c29.7,0,44.6,2.4,53.2,8.4c8.2,5.8,11.3,15.6,11.3,36.2
					c0,21.5-1.5,33.7-9.6,40.7C1779.4,230.9,1764,233.7,1732.6,233.7L1732.6,233.7z M1730.4,160.4c-26.5,0-33.2,3-33.2,25.1
					c0,24,7.3,26.6,36.1,26.6c28.2,0,33.9-4.5,33.9-26.6C1767.2,161.4,1759.6,160.4,1730.4,160.4z M1415.5,233.7
					c-30.3,0-45.4-2.5-54-8.9c-8.1-6.1-11.1-16.3-11.1-37.9c0-39.1,6-48.3,65.2-48.3c29.8,0,44.9,2.4,53.6,8.4
					c8.4,5.8,11.6,16,11.6,36.2c0,20.9-1.6,33.6-9.9,40.7C1462.5,230.9,1447,233.7,1415.5,233.7L1415.5,233.7z M1413.3,160.4
					c-26.5,0-33.2,3-33.2,25.1c0,24,7.3,26.6,36.1,26.6c28.2,0,33.9-4.5,33.9-26.6C1450.2,161.4,1442.5,160.4,1413.3,160.4z
					 M789.5,233.7c-30.3,0-45.5-2.5-54-9c-8.1-6.2-11.2-16.6-11.2-38.6c0-39.2,5.6-47.6,65.2-47.6c29.7,0,44.6,2.4,53.2,8.4
					c8.2,5.8,11.3,15.6,11.3,36.2c0,21.5-1.5,33.7-9.6,40.7C836.2,230.9,820.9,233.7,789.5,233.7L789.5,233.7z M787.2,160.4
					c-25.9,0-32.5,3-32.5,25.1c0,22.6,5.3,26.6,35.4,26.6c28.2,0,33.9-4.5,33.9-26.6C824.1,161.4,816.5,160.4,787.2,160.4z
					 M634.5,233.7c-27,0-41.3-2.7-49.6-9.2c-8.1-6.4-11.2-17.2-11.2-38.3c0-38.9,11-46.8,65.2-46.8c46.8,0,55.3,7.1,58.2,34.9h-29.5
					c-3.2-10.1-10.2-11.7-28.8-11.7c-27.8,0-36.1,0-36.1,21.5s7.4,28.1,31.7,28.1c23.8,0,32.5-3.3,33.8-14h29.2
					C697,226.4,688.2,233.7,634.5,233.7z M1563.8,232.2c-43.6,0-54.9-9.6-54.9-46.8c0-36.3,7.3-47.6,52.7-47.6
					c29.4,0,35.2,5.9,42.3,15.6l5.6,7.6V98.3h30.5V230h-29.1v-27l-5.8,11C1598.8,226.1,1590.6,232.2,1563.8,232.2z M1580.7,159.6
					c-27.5,0-41.3,0-41.3,26.6c0,23.7,12,23.7,38.3,23.7c29.1,0,32.5-3,32.5-28.8C1610.2,162.8,1600.7,159.6,1580.7,159.6z
					 M1824.5,230v-90.7h27.6v28.4l5.9-11.7c7.7-15.3,14-18.8,33.9-18.8c16.6,0,25.7,2.7,30.6,9.1c4.6,6.1,5.8,16.1,6,30.2h-27.1
					c-1.4-12.5-7.3-16.9-21.9-16.9c-16.7,0-25.9,8.1-25.9,22.9V230H1824.5z M1292.4,230v-48.3c0-21.4-20.6-21.4-27.3-21.4
					c-13,0-30.3,2.2-30.3,21.4V230H1205v-41.7c0-21-6.7-28-26.6-28c-13.7,0-29.5,2.6-29.5,22.9V230h-29v-90.7h26.9V179l6-19
					c5-15.8,11.2-22.8,34.5-22.8c26,0,35.7,7.6,42.9,19.8l3.3,5.6l2.3-6.1c3.6-9.5,11-19.3,38.9-19.3c31.5,0,46.8,12.7,46.8,38.8
					v54.2L1292.4,230L1292.4,230z M1056,230v-48.3c0-18.9-13.4-21.4-26.6-21.4c-7.7,0-31,0-31,21.4V230h-29.7v-41.7
					c0-20.7-7-28-26.6-28c-18.2,0-30.3,3.9-30.3,22.9V230h-29v-90.7h26.8v42.7l6.1-22.3c4.1-15,10.7-22.7,35.2-22.7
					c26,0,35.7,7.6,42.9,19.8l3.4,5.9l2.2-6.5c4.3-12.9,17-19.2,38.9-19.2c31.5,0,46.8,12.7,46.8,38.8V230H1056z"/>
				<path class="st19" d="M1636.9,101.4v125.6H1614v-11.4v-24.9l-1.1,2.1c0.3-3.4,0.4-7.2,0.4-11.6c0-5.1-0.7-9.1-2.1-12.3l1.3,1.8
					v-18.9v-50.4L1636.9,101.4 M1274.6,140.3c14.8,0,26,3,33.2,8.8c7.1,5.8,10.6,14.6,10.6,26.9v51h-22.9v-45.2
					c0-16.3-10.2-24.5-30.4-24.5c-10.3,0-17.7,1.5-23.1,4.8c-8.5,5.1-10.2,13.5-10.2,19.7v45.2h-23.6v-38.6c0-22.7-8-31.1-29.7-31.1
					c-4.8,0-15.5,0-23.3,5.5l0.6-1.9c4.5-14,9-20.7,31.5-20.7c27.2,0,34.8,9,40.2,18.2l6.6,11.2l4.5-12.2
					C1241.8,149,1248.6,140.3,1274.6,140.3 M1038.2,140.3c14.8,0,26,3,33.2,8.8c7.1,5.8,10.6,14.6,10.6,26.9v51h-22.9v-45.2
					c0-9-2.7-15.3-8.2-19.4c-4.8-3.6-11.5-5.2-21.5-5.2c-16.4,0-26.9,4.3-31.5,12.9l4.3-12.8c1.7-5,4.7-8.7,9.2-11.4
					C1017.6,142.2,1026.6,140.3,1038.2,140.3 M951,140.3c27.2,0,34.8,9,40.2,18.2l6.9,11.7c-1.7,3.3-2.6,7.1-2.6,11.6v45.2h-23.6
					v-38.6c0-22.4-8.3-31.1-29.7-31.1c-8.7,0-17.5,0.9-23.9,5l0.4-1.6c2.2-7.9,4.6-12.3,8.5-15.2C932.1,141.9,939.6,140.3,951,140.3
					 M1891.9,140.3c19.6,0,25.3,4.2,28.1,7.9c3.8,5,5,13.4,5.3,25.2H1904c-2.3-12-9.6-16.9-24.6-16.9c-9.5,0-17,2.5-21.9,7.3
					l3.2-6.4c3.7-7.5,6.9-11.4,10.9-13.7C1875.9,141.3,1881.9,140.3,1891.9,140.3 M1561.6,141c27.9,0,33.1,5.2,39.8,14.3l4.9,6.7
					c-6-4.9-15.3-5.5-25.6-5.5c-27.7,0-44.4,0-44.4,29.7c0,26.8,15.6,26.8,41.4,26.8c11.8,0,20.5-0.3,26.4-3.6l-1.7,3.3
					c-5,9.4-10.9,16.5-38.6,16.5c-22,0-34.9-2.7-42-8.9c-6.9-5.9-9.8-16.4-9.8-34.9c0-19.2,2.4-29.4,8.4-35.2
					C1527,143.9,1539.7,141,1561.6,141 M1732.6,141.8c28.6,0,43.5,2.3,51.4,7.8c7.3,5.2,10,14.3,10,33.7c0,20.5-1.3,32.1-8.5,38.4
					c-7.4,6.4-22.6,9-52.7,9h-0.1c-28.8,0-43.7-2.4-51.5-8.4c-7.2-5.5-9.9-15.3-9.9-36.1c0-21.5,2.2-30.6,8.9-35.9
					C1687.8,144.2,1703,141.8,1732.6,141.8 M1733.3,215.1c14.1,0,23.4-0.9,29.4-5.6c7-5.5,7.6-14.5,7.6-24c0-9.6-0.7-19.4-9.2-24.3
					c-6.3-3.7-15.3-3.9-30.7-3.9c-14.6,0-22.5,0.7-28.2,4.7c-7.4,5.2-8,14.5-8,23.5C1694.2,211.2,1703,215.1,1733.3,215.1
					 M1415.5,141.8c28.8,0,43.8,2.3,51.8,7.9c7.4,5.2,10.3,14.6,10.3,33.6c0,20-1.4,32-8.8,38.3c-7.5,6.4-23,9.1-53.2,9.1h-0.1
					c-29.2,0-44.3-2.4-52.2-8.3c-7.2-5.4-9.9-15-9.9-35.4c0-21.7,2.3-30.8,9-36.3C1370.2,144.3,1385.5,141.8,1415.5,141.8
					 M1416.2,215.1c27.8,0,37-4.3,37-29.7c0-9.6-0.7-19.4-9.2-24.3c-6.3-3.7-15.3-3.9-30.7-3.9c-14.6,0-22.5,0.7-28.2,4.7
					c-7.4,5.2-8.1,14.5-8.1,23.5C1377,211.2,1385.9,215.1,1416.2,215.1 M789.5,141.8c28.6,0,43.5,2.3,51.4,7.8
					c7.3,5.2,10,14.3,10,33.7c0,20.5-1.3,32.1-8.5,38.4c-7.4,6.4-22.7,9-52.8,9h-0.1c-29.2,0-44.3-2.4-52.2-8.4
					c-7.2-5.5-9.9-15.3-9.9-36.1c0-21.5,2.3-30.6,9-35.9C744,144.2,759.3,141.8,789.5,141.8 M790.2,215.1c27.8,0,37-4.3,37-29.7
					c0-9.6-0.7-19.4-9.2-24.3c-6.3-3.7-15.3-3.9-30.7-3.9c-25.3,0-35.6,2.6-35.6,28.2C751.7,211.2,760.3,215.1,790.2,215.1
					 M1143.7,142.5V159v39.9l2.2-6.9v35H1123v-84.5H1143.7 M906.6,142.5V159v46.2l2.2-8.1v29.9h-22.9v-84.5H906.6 M2007.2,142.5
					c29.8,0,43.9,2.6,50.2,9.3c5.8,6.2,6.7,17.7,7.3,36.3h-86.2h-6.2v6.2c0,8.6,1.2,17.1,10.1,21.7c6.9,3.6,17.6,4.3,34.9,4.3
					c13.5,0,20.5-3.1,23.7-11h23.3c-1.3,10.1-6.2,14.1-13,16.8c-11.1,4.3-29.6,4.6-50.9,4.6c-21.5-0.4-33.8-3-41.2-8.9
					c-7.4-5.9-10.7-16.4-10.7-34.1c0-20.5,2.8-30.7,10.2-36.5C1966.6,145,1980.6,142.5,2007.2,142.5 M1970.7,179.9h7.1h58.7h7
					l-0.8-6.9c-2.2-18.6-12.9-19.4-37-19.4c-22.1,0-31.7,2.7-34,19.3L1970.7,179.9 M1849,142.5v12.2v26.2l1.9-3.8
					c-0.3,1.7-0.4,3.5-0.4,5.4v44.5h-22.9v-84.5H1849 M638.9,142.5c24.4,0,37.4,2,44.7,7.1c5.5,3.8,8.4,9.9,10.1,21.7h-23.8
					c-4.4-10.5-13.8-11.7-30.9-11.7c-27.7,0-39.2,0-39.2,24.5c0,23.3,8.8,31.2,34.8,31.2c21.2,0,33.4-2.3,36.3-14h23.4
					c-0.6,12.3-3.4,18.6-9.4,22.5c-7.8,5-22.4,7-50.4,7c-26.2,0-40-2.5-47.6-8.6c-7.1-5.7-10.1-16.1-10.1-35.9
					c0-19.9,3-29.8,10.7-35.4C595.7,144.9,610.6,142.5,638.9,142.5 M1643.1,95.2h-36.7l0,0v56.5c-8.1-11-15.4-16.9-44.8-16.9
					c-47,0-55.8,12.5-55.8,50.7c0,38.9,12.5,49.9,58,49.9c28.6,0,37.4-7.3,44.1-19.8v17.6h35.2L1643.1,95.2L1643.1,95.2z
					 M1577.8,206.7c-27.9,0-35.2-0.8-35.2-20.6c0-22.8,8.8-23.5,38.2-23.5c19.8,0,26.4,2.9,26.4,18.3
					C1607.1,204.5,1605.7,206.7,1577.8,206.7L1577.8,206.7z M1274.6,134.1c-27.9,0-37.5,9.5-41.8,21.3
					c-7.3-12.5-17.6-21.3-45.5-21.3c-25.7,0-32.3,8.8-37.4,25v-22.7l0,0h-33v96.9h35.2v-49.9c0-14.7,8.8-19.8,26.4-19.8
					c18.4,0,23.5,5.9,23.5,25v44.8h36V182c0-13.9,10.3-18.3,27.2-18.3c16.1,0,24.2,5.1,24.2,18.3v51.4h35.2v-57.3
					C1324.6,147.3,1307,134.1,1274.6,134.1L1274.6,134.1z M1038.2,134.1c-27.9,0-38.2,10.3-41.9,21.3c-7.3-12.5-17.6-21.3-45.5-21.3
					c-26.4,0-33.8,8.8-38.2,25v-22.7h-33v96.9h35.2v-49.9c0-14.7,7.3-19.8,27.2-19.8c18.4,0,23.5,6.6,23.5,25v44.8h36V182
					c0-13.9,11-18.3,27.9-18.3c16.2,0,23.5,4.4,23.5,18.3v51.4h35.2v-57.3C1088.2,147.3,1070.5,134.1,1038.2,134.1L1038.2,134.1z
					 M1891.9,134.1c-21.3,0-28.6,4.4-36.7,20.6v-18.3l0,0h-33.8v96.9h35.2v-50.6c0-13.2,8.1-19.8,22.8-19.8
					c14.7,0,18.4,4.4,19.1,16.9h33C1931.6,146.6,1927.2,134.1,1891.9,134.1L1891.9,134.1z M1732.6,135.6c-60.2,0-67.6,9.5-67.6,50.7
					c0,41.8,10.3,50.7,67.6,50.7h0.1c61.6,0,67.4-10.3,67.4-53.6C1800.1,143.6,1789.1,135.6,1732.6,135.6L1732.6,135.6z
					 M1733.3,208.9c-29.4,0-33-2.9-33-23.5c0-19.8,4.4-22,30.1-22c28.6,0,33.8,0.7,33.8,22C1764.1,205.2,1760.5,208.9,1733.3,208.9
					L1733.3,208.9z M1415.5,135.6c-60.9,0-68.3,10.3-68.3,51.4s10.3,49.9,68.3,49.9h0.1c61.6,0,68.2-10.3,68.2-53.6
					C1483.8,143.6,1472.1,135.6,1415.5,135.6L1415.5,135.6z M1416.2,208.9c-29.4,0-33-2.9-33-23.5l0,0c0-19.8,4.4-22,30.1-22
					c28.6,0,33.8,0.7,33.8,22C1447.1,205.2,1443.4,208.9,1416.2,208.9L1416.2,208.9z M789.5,135.6c-60.9,0-68.3,9.5-68.3,50.7
					c0,41.8,10.3,50.7,68.3,50.7h0.1c61.6,0,67.5-10.3,67.5-53.6C857,143.6,846,135.6,789.5,135.6L789.5,135.6z M790.2,208.9
					c-28.6,0-32.3-2.9-32.3-23.5c0-19.8,4.4-22,29.4-22c28.6,0,33.8,0.7,33.8,22C821,205.2,817.3,208.9,790.2,208.9L790.2,208.9z
					 M912.8,136.3L912.8,136.3L912.8,136.3L912.8,136.3z M2007.2,136.3c-52.9,0-64.6,9.5-64.6,51.4c0,38.9,15.4,48.5,58,49.2
					c47.7,0,70.5-2.2,70.5-33.8h-34.6c-1.5,7.3-4.4,11-19.1,11c-33.8,0-38.9-2.9-38.9-19.8h92.5
					C2069.6,147.3,2069.6,136.3,2007.2,136.3L2007.2,136.3z M1977.8,173.7c1.5-10.3,4.4-14,27.9-14c25.7,0,29.4,1.5,30.8,14H1977.8
					L1977.8,173.7z M638.9,136.3c-55.8,0-68.3,8.8-68.3,49.9s11.7,50.7,63.9,50.7c55.1,0,66.1-7.3,66.1-41.9h-35.2
					c0,9.5-3.7,14-30.8,14c-23.5,0-28.6-5.9-28.6-25c0-18.4,5.1-18.4,33-18.4c20.5,0,24.2,2.2,26.4,11.7h35.2
					C697.7,144.4,688.1,136.3,638.9,136.3L638.9,136.3z"/>
			</g>
			<g>
				<g>
					
						<linearGradient id="SVGID_00000083048765706982248710000017333980243293884549_" gradientUnits="userSpaceOnUse" x1="-1191.8365" y1="4289.8545" x2="-1191.8365" y2="4535.3906" gradientTransform="matrix(1 0 0 -1 1524 4599.9736)">
						<stop  offset="0" style="stop-color:#B4BFC9"/>
						<stop  offset="1" style="stop-color:#F5F6FF"/>
					</linearGradient>
					<path style="fill:url(#SVGID_00000083048765706982248710000017333980243293884549_);" d="M378.8,310.1
						C311.1,310.1,256,255,256,187.4S311.1,64.6,378.8,64.6c9.9,0,19.8,1.2,29.5,3.6V124c-9.2-4.3-19.3-6.5-29.5-6.5
						c-38.5,0-69.9,31.3-69.9,69.9c0,38.5,31.3,69.9,69.9,69.9c10.2,0,20.3-2.3,29.5-6.5v55.9C398.6,308.9,388.7,310.1,378.8,310.1z
						"/>
					<path class="st19" d="M378.8,67.6c8.9,0,17.7,1,26.4,2.9v48.8c-8.4-3.3-17.3-5-26.4-5c-40.2,0-73,32.7-73,73s32.7,73,73,73
						c9,0,18-1.7,26.4-5V304c-8.7,1.9-17.5,2.9-26.4,2.9c-32,0-62.1-12.5-84.7-35.1S259,219.1,259,187.2s12.5-62.1,35.1-84.7
						C316.7,80.1,346.8,67.6,378.8,67.6 M378.8,61.4c-69.5,0-125.9,56.4-125.9,125.9s56.4,125.9,125.9,125.9
						c11.3,0,22.2-1.5,32.6-4.3v-63.4c-9.6,5.4-20.7,8.5-32.6,8.5c-36.8,0-66.8-29.9-66.8-66.8s29.9-66.8,66.8-66.8
						c11.8,0,22.9,3.1,32.6,8.5V65.7C400.9,62.9,390,61.4,378.8,61.4L378.8,61.4z"/>
				</g>
				<g>
					<g>
						
							<linearGradient id="SVGID_00000074402156579911431940000012421433308219350662_" gradientUnits="userSpaceOnUse" x1="-1060.0209" y1="4420.3203" x2="-1060.0209" y2="4464.5088" gradientTransform="matrix(1 0 0 -1 1524 4599.9736)">
							<stop  offset="0" style="stop-color:#B4BFC9"/>
							<stop  offset="1" style="stop-color:#F5F6FF"/>
						</linearGradient>
						<polygon style="fill:url(#SVGID_00000074402156579911431940000012421433308219350662_);" points="414.4,179.7 414.4,135.5 
							513.6,135.5 469.4,179.7 						"/>
						<path class="st19" d="M506.1,138.6l-38,38h-4h-16.7h-30v-38h30h16.7H506.1 M521.1,132.4h-56.9h-16.7h-36.2v50.4h36.2h16.7h6.5
							L521.1,132.4L521.1,132.4z"/>
					</g>
					<g>
						
							<linearGradient id="SVGID_00000021120141304399770680000006502924501598691724_" gradientUnits="userSpaceOnUse" x1="-1060.0209" y1="4360.8359" x2="-1060.0209" y2="4405.0244" gradientTransform="matrix(1 0 0 -1 1524 4599.9736)">
							<stop  offset="0" style="stop-color:#B4BFC9"/>
							<stop  offset="1" style="stop-color:#F5F6FF"/>
						</linearGradient>
						<polygon style="fill:url(#SVGID_00000021120141304399770680000006502924501598691724_);" points="414.4,239.1 414.4,194.9 
							469.4,194.9 513.6,239.1 						"/>
						<path class="st19" d="M468.1,198l38,38h-42h-16.7h-30v-38h30h16.7H468.1 M470.7,191.9h-6.5h-16.7h-36.2v50.4h36.2h16.7h56.9
							L470.7,191.9L470.7,191.9z"/>
					</g>
				</g>
			</g>
		</g>
	</g>
</g>
</svg>
