<?xml version="1.0" encoding="utf-8"?>
<!-- Generator: Adobe Illustrator 25.0.0, SVG Export Plug-In . SVG Version: 6.00 Build 0)  -->
<svg version="1.1" id="Layer_1" xmlns="http://www.w3.org/2000/svg" xmlns:xlink="http://www.w3.org/1999/xlink" x="0px" y="0px"
	 viewBox="0 0 3840 535.6" style="enable-background:new 0 0 3840 535.6;" xml:space="preserve">
<style type="text/css">
	.st0{fill:#EC2224;}
	.st1{fill:#FFFFFF;}
	.st2{fill:url(#SVGID_1_);}
	.st3{fill:url(#SVGID_2_);}
	.st4{fill:url(#SVGID_3_);}
	.st5{fill:url(#SVGID_4_);}
	.st6{fill:url(#SVGID_5_);}
	.st7{fill:url(#SVGID_6_);}
	.st8{fill:url(#SVGID_7_);}
	.st9{fill:url(#SVGID_8_);}
	.st10{fill:url(#SVGID_9_);}
	.st11{fill:url(#SVGID_10_);}
	.st12{fill:url(#SVGID_11_);}
	.st13{fill:url(#SVGID_12_);}
	.st14{fill:url(#SVGID_13_);}
	.st15{fill:url(#SVGID_14_);}
	.st16{fill:url(#SVGID_15_);}
	.st17{fill:url(#SVGID_16_);}
	.st18{fill:url(#SVGID_17_);}
	.st19{fill:url(#SVGID_18_);}
	.st20{fill:url(#SVGID_19_);}
	.st21{fill:url(#SVGID_20_);}
	.st22{fill:url(#SVGID_21_);}
	.st23{fill:url(#SVGID_22_);}
	.st24{fill:url(#SVGID_23_);}
	.st25{fill:url(#SVGID_24_);}
	.st26{fill:url(#SVGID_25_);}
	.st27{fill:url(#SVGID_26_);}
	.st28{fill:url(#SVGID_27_);}
	.st29{fill:url(#SVGID_28_);}
	.st30{fill:url(#SVGID_29_);}
	.st31{fill:url(#SVGID_30_);}
	.st32{fill:url(#SVGID_31_);}
	.st33{fill:url(#SVGID_32_);}
	.st34{fill:url(#SVGID_33_);}
	.st35{fill:url(#SVGID_34_);}
	.st36{fill:url(#SVGID_35_);}
	.st37{fill:url(#SVGID_36_);}
	.st38{fill:url(#SVGID_37_);}
	.st39{fill:url(#SVGID_38_);}
</style>
<g>
	<path d="M3757.8,535.6H82.2C36.8,535.6,0,498.8,0,453.4V82.2C0,36.8,36.8,0,82.2,0h3675.5c45.4,0,82.2,36.8,82.2,82.2v371.1
		C3840,498.8,3803.2,535.6,3757.8,535.6z"/>
	<g>
		<polygon class="st0" points="575.3,428.2 536.8,494.8 516.1,494.8 554.6,428.2 		"/>
		<path class="st0" d="M654.1,291.7l89.6-155.2c9.3-16,26.4-25.9,44.9-25.9H979l10.3-17.9H858.7l-69.7,0c-25.1,0-48.5,13.5-61,35.2
			l-33.8,58.6l-1,1.8l-59.7,103.4H654.1z"/>
		<g>
			<path class="st0" d="M1019.2,40.8l-160.4,0l0,0H789c-43.7,0-84.1,23.3-105.9,61.1l-33.8,58.6l-1,1.8l-74.7,129.3H620l97.9-169.6
				c14.6-25.3,41.9-41,71.1-41h207L1019.2,40.8z"/>
			<path class="st0" d="M760.2,211.5h160.5l51.6-89.3H788.6c-14.4,0-27.6,7.7-34.8,20.1l-86.3,149.4h46.4L760.2,211.5z"/>
			<polygon class="st0" points="635.1,428.2 596.6,494.8 550.2,494.8 588.7,428.2 			"/>
			<polygon class="st0" points="494.8,428.2 456.3,494.8 502.7,494.8 541.2,428.2 			"/>
		</g>
		<path class="st0" d="M298.4,211.5h109.7l-14.9,25.8c-47.1,81.5,11.8,183.4,105.9,183.4h0l460.4,0l-42.8,74.1h46.4l31.2-54
			c7.2-12.4,7.2-27.8,0-40.2c-7.2-12.4-20.5-20.1-34.8-20.1H499.1c-29.7,0-56.2-15.3-71.1-41c-14.8-25.7-14.8-56.4,0-82.1l14.9-25.8
			c7.2-12.4,7.2-27.8,0-40.2c-7.2-12.4-20.5-20.1-34.8-20.1H275.2L298.4,211.5z"/>
		<path class="st0" d="M251.5,130.1h155.3c29.7,0,56.2,15.3,71.1,41c14.8,25.7,14.8,56.4,0,82.1L463,279.1
			c-7.2,12.4-7.2,27.8,0,40.2c7.2,12.4,20.5,20.1,34.8,20.1l460.4,0c29.7,0,56.2,15.3,71.1,41c13.1,22.7,14.6,49.2,4.6,72.8
			l-24,41.6h47.2l7.1-12.2c47.1-81.5-11.8-183.4-105.9-183.4l-248.7,0H569.3l-71.5,0l14.9-25.8c47.1-81.5-11.8-183.4-105.9-183.4
			h-1.2L379,116.6l-26.6-26.6H228.3L251.5,130.1z"/>
		<g>
			<polygon class="st0" points="359.8,82.4 379,63.3 398.1,82.4 418.4,82.4 379,43 339.6,82.4 			"/>
		</g>
		<path class="st0" d="M241.6,171.3L180.3,149l35.5-22.4l8.7,15.1h182.3c25.5,0,48.3,13.2,61,35.2c12.7,22.1,12.7,48.4,0,70.5
			l-14.9,25.8c-9.3,16-9.3,35.8,0,51.8c9.3,16,26.4,25.9,44.9,25.9l460.4,0c25.5,0,48.3,13.2,61,35.2c12.7,22.1,12.7,48.4,0,70.5
			l-22,38.1h-20.7l27.8-48.2c9.3-16,9.3-35.8,0-51.8c-9.3-16-26.4-25.9-44.9-25.9H639.4H499.1c-25.5,0-48.3-13.2-61-35.2
			c-12.7-22.1-12.7-48.4,0-70.5l14.9-25.8c9.3-16,9.3-35.8,0-51.8c-9.3-16-26.4-25.9-44.9-25.9H235L241.6,171.3z"/>
	</g>
	<g>
		<g>
			<g>
				<path class="st1" d="M3007.3,416.2v-24.1c0-17.9,13-25.7,29.1-25.7c16,0,29.1,7.7,29.1,25.7v24.1H3007.3z M3057.2,406.1v-10
					c0-16-9.1-19.4-20.8-19.4c-11.7,0-20.8,3.4-20.8,19.4v10H3057.2z"/>
				<path class="st1" d="M3056.1,323.4c2.3,0,3.2-0.5,3.2-2.2c0-0.6,0-1.3-0.2-2.3h6.4c0.5,1.4,1.1,4.3,1.1,5.9
					c0,3.7-1.3,6.4-5.1,7.2c3.6,3.7,5.1,9.6,5.1,14.6c0,7.6-4.1,14.4-12.3,14.4c-10.5,0-12.2-8.4-13.1-16.2
					c-1.2-6.7-0.5-12.6-5.9-12.6c-4.8,0-5.7,5-5.7,8.7c0,5.2,2.1,8.9,6.7,9.3v9.3c-10.8-0.7-14-9.9-14-19.1
					c0-8.2,3.3-16.9,12.2-16.9H3056.1z M3044.4,332.7c1.9,2.9,1.8,7.3,2.5,11.4c0.7,4,2.1,7.6,7,7.6c4.1,0,5.4-5.3,5.4-8.6
					c0-4.1-2.1-10.4-8-10.4H3044.4z"/>
				<path class="st1" d="M3023.4,317.6v-7h-12.6v-9.3h12.6v-8.4h6.9v8.4h22.5c3.8,0,5.8-0.3,5.8-4.5c0-1.3,0-2.6-0.3-3.9h7.2
					c0.2,2,0.5,4,0.5,6c0,9.7-3.7,11.5-10.8,11.7h-24.9v7H3023.4z"/>
				<path class="st1" d="M3056.1,251c2.3,0,3.2-0.5,3.2-2.2c0-0.6,0-1.3-0.2-2.3h6.4c0.5,1.4,1.1,4.3,1.1,5.9c0,3.7-1.3,6.4-5.1,7.2
					c3.6,3.7,5.1,9.6,5.1,14.6c0,7.6-4.1,14.4-12.3,14.4c-10.5,0-12.2-8.4-13.1-16.2c-1.2-6.7-0.5-12.6-5.9-12.6
					c-4.8,0-5.7,5-5.7,8.7c0,5.2,2.1,8.9,6.7,9.3v9.3c-10.8-0.7-14-9.9-14-19.1c0-8.2,3.3-16.9,12.2-16.9H3056.1z M3044.4,260.3
					c1.9,2.9,1.8,7.3,2.5,11.4c0.7,4,2.1,7.6,7,7.6c4.1,0,5.4-5.3,5.4-8.6c0-4.1-2.1-10.4-8-10.4H3044.4z"/>
				<path class="st1" d="M3007.3,230.2V220h49.4v-29.6h8.8v39.8H3007.3z"/>
				<path class="st1" d="M3023.4,190.4v-7h-12.6v-9.3h12.6v-8.4h6.9v8.4h22.5c3.8,0,5.8-0.3,5.8-4.5c0-1.3,0-2.6-0.3-3.9h7.2
					c0.2,2,0.5,4,0.5,6c0,9.7-3.7,11.5-10.8,11.7h-24.9v7H3023.4z"/>
				<path class="st1" d="M3065.5,119.4v8.8h-5.7v0.2c4.8,2.4,6.8,7.7,6.8,13c0,13.3-9.9,19.7-22.5,19.7c-15.2,0-21.9-9-21.9-18.2
					c0-5.3,2-11.2,6.6-14v-0.2h-21.5v-9.3H3065.5z M3059.3,140.2c0-8.3-7.6-11.8-14.9-11.8c-9.3,0-14.8,4.5-14.8,11.6
					c0,8.7,7.7,11.8,15.3,11.8C3052.2,151.8,3059.3,148.2,3059.3,140.2z"/>
			</g>
			<path class="st1" d="M3054.5,112.5v-11.3h11v11.3H3054.5z"/>
		</g>
		<g>
			<g>
				<linearGradient id="SVGID_1_" gradientUnits="userSpaceOnUse" x1="1144.1106" y1="267.8094" x2="2954.335" y2="267.8094">
					<stop  offset="0.1596" style="stop-color:#EA2427"/>
					<stop  offset="0.5303" style="stop-color:#FFCC05"/>
					<stop  offset="0.7318" style="stop-color:#6DBD46"/>
					<stop  offset="1" style="stop-color:#46A2DA"/>
				</linearGradient>
				<path class="st2" d="M1294.2,119.4h-150.1v296.9h132.2c103.5,0,151.8-57.8,151.8-148.8C1428.1,192.6,1393.2,119.4,1294.2,119.4z
					 M1271.3,340.2h-35.8V195.5h29.1c66.1,0,71.9,52,71.9,70.7C1336.6,294,1328.3,340.2,1271.3,340.2z M1682.1,278.6
					c30.4-11.2,44.5-43.7,44.5-74.4c0-56.1-44.9-84.8-96.9-84.8h-174.2v296.9h91.5V312.7h48.6c36.2,0,38.7,29.5,41.2,57.8
					c1.2,15.4,2.9,30.8,7.5,45.7h91.5c-8.3-13.7-8.7-49.1-10-63.6C1722.4,315.6,1707.1,288.2,1682.1,278.6z M1594.8,249.1H1547v-59
					h42.8c34.9,0,45.3,10.8,45.3,29.5C1635.1,246.2,1611.8,249.1,1594.8,249.1z M1858.8,119.4l-109.4,296.9h91.9l13.3-42.4h94.4
					l12.5,42.4h94.8l-108.1-296.9H1858.8z M1874.6,310.2l28.7-91.5h0.8l26.6,91.5H1874.6z M2213,316.5h40.3
					c-4.6,22-26.2,32.8-47.4,32.8c-55.7,0-66.9-48.6-66.9-76.5c0-20.4-2.1-86.5,60.7-86.5c21.6,0,39.9,15.4,43.2,37h87.7
					c-13.3-69.8-61.1-111-136.8-111c-66.9,0-146.4,45.3-146.4,158.4c0,84.4,54,152.6,141.8,152.6c32.4,0,64-11.2,84.4-37.4l2.9,30.4
					h57.8V252.8H2213V316.5z M2509.5,112.3c-90.2,0-150.5,64.9-150.5,155.5c0,90.6,60.3,155.5,150.5,155.5
					c90.2,0,150.5-64.9,150.5-155.5C2660,177.2,2599.7,112.3,2509.5,112.3z M2509.5,349.3c-23.3,0-59-15.4-59-81.5
					c0-66.1,35.8-81.5,59-81.5c23.3,0,59,15.4,59,81.5C2568.5,333.9,2532.8,349.3,2509.5,349.3z M2867.9,119.4v158.8h-0.8
					l-86.5-158.8H2687v296.9h86.5V254.1h0.8l91.1,162.2h89V119.4H2867.9z"/>
			</g>
		</g>
		<g>
			<path class="st1" d="M3128.1,223.3c0.4-34.1,14.1-59,36.2-75.7c22-16.2,52-24.1,84.4-24.1c84,0,111.8,49.9,111.8,74.4
				c0,60.7-38.3,60.7-38.3,62v0.8c0,3.3,47.4,3.3,47.4,67.8c0,35.3-26.6,91.1-121.4,91.1c-130.1,0-130.6-91.5-128.5-113.1h79
				c-0.4,15.4,3.3,27,11.2,34.5c7.9,9.6,20,12.9,34.5,12.9c23.7,0,38.7-8.7,38.7-32.4c0-25.4-19.5-29.9-38.7-29.9
				c-12.1,0-17.9,1.2-24.1,2.1V237c6.2,0.4,12.9,1.7,24.1,1.7c17.5,0,39.5-3.7,39.5-26.2c0-18.3-20.8-25.4-37.8-25.4
				c-22.4,0-40.7,12.1-39.9,36.2H3128.1z"/>
			<path class="st1" d="M3391.7,248.7c-4.6-79.4,44.9-125.2,122.7-125.2c70.3,0,118.1,29.5,118.1,91.1c0,74-72.4,97.3-126.8,130.6
				v0.4h131v70.7h-250.7c-1.7-27.9,6.7-52,20.8-71.5c24.1-33.7,65.7-55.7,102.7-78.2c15-9.2,39.1-20.8,39.1-42
				c0-26.2-15.4-35.3-34.9-35.3c-33.3,0-44.5,24.1-43.7,59.5H3391.7z"/>
		</g>
	</g>
</g>
</svg>
