<?xml version="1.0" encoding="utf-8"?>
<!-- Generator: Adobe Illustrator 25.4.1, SVG Export Plug-In . SVG Version: 6.00 Build 0)  -->
<svg version="1.1" id="Layer_1" xmlns="http://www.w3.org/2000/svg" xmlns:xlink="http://www.w3.org/1999/xlink" x="0px" y="0px"
	 viewBox="0 0 3839 843.9" style="enable-background:new 0 0 3839 843.9;" xml:space="preserve">
<style type="text/css">
	.st0{fill:#004B89;}
	.st1{fill:#79AA00;}
	.st2{fill:#FFCE00;}
	.st3{fill:#E85E00;}
	.st4{fill:#EA1100;}
	.st5{fill:#FFFFFF;}
</style>
<g>
	<g>
		<path class="st0" d="M1370.2,729.1h19.6v44.6h51v-44.6h19.6v112.1h-19.6v-50.6h-51v50.6h-19.6V729.1z"/>
		<path class="st0" d="M1582.7,785.2c0,32-20.1,58.7-53.7,58.7c-33.6,0-53.7-26.7-53.7-58.7c0-32,20.1-58.7,53.7-58.7
			C1562.6,726.4,1582.7,753.1,1582.7,785.2z M1494.9,785.2c0,21.5,10,42.7,34.1,42.7c24,0,34.1-21.2,34.1-42.7s-10-42.7-34.1-42.7
			C1505,742.5,1494.9,763.7,1494.9,785.2z"/>
		<path class="st0" d="M1597.6,729.1h27.6l30.9,87.8h0.3l30.1-87.8h27.3v112.1h-18.7v-86.5h-0.3l-31.1,86.5h-16.2l-31.1-86.5h-0.3
			v86.5h-18.7V729.1z"/>
		<path class="st0" d="M1734.7,729.1h80.7v17h-61.1v29.4h56.5v16h-56.5v32.8h62.2v17h-81.8V729.1z"/>
		<path class="st0" d="M1953,764.8c-3.3-12.9-11.6-22.3-28-22.3c-24,0-34.1,21.2-34.1,42.7s10,42.7,34.1,42.7
			c17.4,0,27-13,28.6-29.4h19.2c-1.6,26.9-20.6,45.4-47.7,45.4c-33.6,0-53.7-26.7-53.7-58.7c0-32,20.1-58.7,53.7-58.7
			c25.3,0.2,45.2,14.1,47.6,38.3H1953z"/>
		<path class="st0" d="M2088.9,785.2c0,32-20.1,58.7-53.7,58.7c-33.6,0-53.7-26.7-53.7-58.7c0-32,20.1-58.7,53.7-58.7
			C2068.8,726.4,2088.9,753.1,2088.9,785.2z M2001.1,785.2c0,21.5,10,42.7,34.1,42.7c24,0,34.1-21.2,34.1-42.7s-10-42.7-34.1-42.7
			C2011.2,742.5,2001.1,763.7,2001.1,785.2z"/>
		<path class="st0" d="M2103.8,729.1h27.6l30.9,87.8h0.3l30.1-87.8h27.3v112.1h-18.7v-86.5h-0.3l-31.1,86.5h-16.2l-31.1-86.5h-0.3
			v86.5h-18.7V729.1z"/>
		<path class="st0" d="M2240.9,729.1h49.5c32,0,38.2,20.7,38.2,34.7c0,13.8-6.1,34.5-38.2,34.4h-29.8v43h-19.6V729.1z M2260.6,782.2
			h28.7c8.8,0,19.6-4.4,19.6-18.5c0-14.8-9-18.5-19.3-18.5h-29.1V782.2z"/>
		<path class="st0" d="M2339.5,729.1h19.6v65.3c0,15.1,0.9,32.5,26.4,32.5c25.4,0,26.4-17.4,26.4-32.5v-65.3h19.6v71.8
			c0,28.7-18.4,43-46,43c-27.6,0-46-14.3-46-43V729.1z"/>
		<path class="st0" d="M2440.6,729.1h90.8v17h-35.6v95.2h-19.6v-95.2h-35.5V729.1z"/>
		<path class="st0" d="M2541,729.1h80.7v17h-61.1v29.4h56.5v16h-56.5v32.8h62.2v17H2541V729.1z"/>
		<path class="st0" d="M2637.1,729.1h53.5c24.5,0,37.1,11.3,37.1,30.3c0,21.5-14.9,27-18.5,28.3v0.3c6.8,0.9,16.6,6,16.6,23.7
			c0,13,1.9,25,6.1,29.5h-21c-3-4.9-3-11-3-16.5c0-20.6-4.2-29.7-22.3-29.7h-28.9v46.2h-19.6V729.1z M2656.7,780.1h32.2
			c12.4,0,19.2-6.1,19.2-17.9c0-14.3-9.3-17.1-19.5-17.1h-31.9V780.1z"/>
		<path class="st0" d="M2804.2,803.9c0,17.3,12.7,24,28.4,24c17.3,0,23.7-8.5,23.7-17c0-8.6-4.7-12.1-9.3-13.8
			c-7.9-3-18.1-5-33.4-9.3c-19.2-5.2-24.8-16.8-24.8-28.4c0-22.5,20.7-33,41-33c23.4,0,43,12.4,43,35.8h-19.6
			c-0.9-14.4-10.7-19.8-24.2-19.8c-9.1,0-20.6,3.3-20.6,14.6c0,7.9,5.3,12.2,13.3,14.4c1.7,0.5,26.5,6.9,32.3,8.6
			c14.8,4.4,21.8,17,21.8,28.6c0,25.1-22.3,35.2-44.6,35.2c-25.6,0-46.3-12.2-46.8-40H2804.2z"/>
		<path class="st0" d="M2915.2,797.3l-42.1-68.1h22.8l29.7,50.2l29.2-50.2h22l-41.9,68.1v44h-19.6V797.3z"/>
		<path class="st0" d="M2993.5,803.9c0,17.3,12.7,24,28.4,24c17.3,0,23.7-8.5,23.7-17c0-8.6-4.7-12.1-9.3-13.8
			c-7.9-3-18.1-5-33.4-9.3c-19.2-5.2-24.8-16.8-24.8-28.4c0-22.5,20.7-33,41-33c23.4,0,43,12.4,43,35.8h-19.6
			c-0.9-14.4-10.7-19.8-24.2-19.8c-9.1,0-20.6,3.3-20.6,14.6c0,7.9,5.3,12.2,13.3,14.4c1.7,0.5,26.5,6.9,32.3,8.6
			c14.8,4.4,21.8,17,21.8,28.6c0,25.1-22.3,35.2-44.6,35.2c-25.6,0-46.3-12.2-46.8-40H2993.5z"/>
		<path class="st0" d="M3068.5,729.1h90.8v17h-35.6v95.2H3104v-95.2h-35.5V729.1z"/>
		<path class="st0" d="M3168.9,729.1h80.7v17h-61.1v29.4h56.5v16h-56.5v32.8h62.2v17h-81.8V729.1z"/>
		<path class="st0" d="M3264.9,729.1h27.6l30.9,87.8h0.3l30.1-87.8h27.3v112.1h-18.7v-86.5h-0.3l-31.1,86.5H3315l-31.1-86.5h-0.3
			v86.5h-18.7V729.1z"/>
	</g>
	<g>
		<g>
			<polygon class="st1" points="821.3,125.8 1080.4,519.8 1157.9,396.6 961.9,86.3 			"/>
			<polygon class="st2" points="696.2,172.8 990.5,620.3 1080.4,519.8 821.3,125.8 			"/>
			<polygon class="st3" points="882.2,690.7 587.9,243.2 696.2,172.8 990.5,620.3 			"/>
		</g>
		<polygon class="st4" points="730.5,712.8 519.6,359.4 587.9,243.2 882.2,690.7 		"/>
		<g>
			<g>
				<g>
					<path class="st0" d="M2531.5,96.4l-283.8-0.1l-44.2,342.9L2075.2,96.3h-173.1l-191.3,361.9l46.6-361.9h-153.1l-54.5,423.3
						h-143.7c-31.2,0-55.3-27.4-51.3-58.4l47-364.9h-153.1l-25.3,196.2C1179.2,124.2,1025.9,0,843.6,0
						C700.6,0,575.4,76.5,506.7,190.8l-35.3-94.4H298.3L0,660.6h153.6L234.3,508h232.9l5.3,13.8c53.4,153.7,199.3,264,371.2,264
						c85.1,0,163.9-27.2,228.2-73.2l84.5,128.6h177.9l-157.6-239.9c10.3-16.5,19.5-33.8,27.3-51.9c19,63.6,77.9,111.1,149.2,111.1
						h331.6h72.7l80.7-152.6H2071l57.1,152.6H2328l36.5-283.5l164.6,283.5H2694l-102.3-176.1C2793.5,429.2,2773.4,96.4,2531.5,96.4z
						 M303.5,377.1L370.7,250l47.5,127.1H303.5z M843.6,650.6C701.3,650.6,586,535.2,586,392.9c0-142.3,115.4-257.6,257.6-257.6
						c142.3,0,257.6,115.4,257.6,257.6C1101.3,535.2,985.9,650.6,843.6,650.6z M1907.3,377.1l67.2-127.1l47.5,127.1H1907.3z
						 M2495,377.1l-130.5,0.1l18-139.8l124.7,0.1C2600.4,237.4,2588.2,377.1,2495,377.1z"/>
				</g>
				<g>
					<polygon class="st0" points="2766.7,96.3 2694,660.6 2847.1,660.6 2919.8,96.3 					"/>
				</g>
				<g>
					<path class="st0" d="M3300.9,96.3l-54.5,423.3h-143.7c-31.2,0-55.3-27.4-51.3-58.4l47-364.9h-153.1l-50.1,388.7
						c-12,93.1,60.5,175.6,154.4,175.6h331.6l72.7-564.3H3300.9z"/>
				</g>
				<g>
					<path class="st0" d="M3694.5,299.8c0,0-84.7-24.1-71.2-72.2c13.6-48.1,133.6-38.7,167.7,26.9l19.5-151.4
						c0,0-54.3-43.3-146.7-43.3c-92.4,0-202.8,77.8-202.8,187s68.4,154.6,110.7,175.1c37.5,18.2,128,52.8,101,110.7
						c-36.7,78.7-188.7,25.6-237.6-122.2l-27.4,212.7c0,0,65.8,102.2,205.6,102.2c93.3,0,214.4-57.2,225.2-211.5
						C3843.1,448.4,3817.7,344.2,3694.5,299.8z"/>
				</g>
			</g>
		</g>
	</g>
</g>
</svg>
