<?xml version="1.0" encoding="utf-8"?>
<!-- Generator: Adobe Illustrator 26.3.1, SVG Export Plug-In . SVG Version: 6.00 Build 0)  -->
<svg version="1.1" id="Layer_1" xmlns="http://www.w3.org/2000/svg" xmlns:xlink="http://www.w3.org/1999/xlink" x="0px" y="0px"
	 viewBox="0 0 3839 1602" style="enable-background:new 0 0 3839 1602;" xml:space="preserve">
<style type="text/css">
	.st0{display:none;}
	.st1{display:inline;}
	.st2{fill:#FFFFFF;}
	.st3{fill:#C30207;}
</style>
<g>
	<g>
		<rect x="1197.4" y="1039.4" width="280.4" height="158.4"/>
		<path d="M1830.8,1602c169.6,0,307.1-137.5,307.1-307.1c0-166.7-132.8-302.3-298.5-306.9l148.5-332.6H1780l-231.2,517.9
			c-16.1,37.3-25.1,78.4-25.1,121.6C1523.8,1464.6,1661.3,1602,1830.8,1602z M1830.8,1177.8c64.7,0,117.2,52.5,117.2,117.2
			s-52.5,117.2-117.2,117.2c-64.7,0-117.2-52.5-117.2-117.2S1766.1,1177.8,1830.8,1177.8z"/>
		<path d="M3216.2,655.5c-206.8,0-333.3,147-333.3,463.1c0,316.1,126.4,463.1,333.3,463.1c206.8,0,333.3-147,333.3-463.1
			S3423.1,655.5,3216.2,655.5z M3350.3,1119.1L3350.3,1119.1c-0.2,198.8-43.3,287.4-134.1,287.4c-90.7,0-133.9-88.6-134-287.5l0,0
			c0-0.2,0-0.3,0-0.5s0-0.3,0-0.5l0,0c0.2-198.8,43.3-287.5,134-287.5c90.7,0,133.9,88.6,134,287.5l0,0c0,0.2,0,0.3,0,0.5
			S3350.3,1119,3350.3,1119.1z"/>
		<path d="M2510.4,655.5c-206.8,0-333.3,147-333.3,463.1c0,316.1,126.4,463.1,333.3,463.1c206.8,0,333.3-147,333.3-463.1
			S2717.3,655.5,2510.4,655.5z M2644.5,1119.1L2644.5,1119.1c-0.2,198.8-43.3,287.4-134.1,287.4c-90.7,0-133.9-88.6-134-287.5l0,0
			c0-0.2,0-0.3,0-0.5s0-0.3,0-0.5l0,0c0.2-198.8,43.3-287.5,134-287.5c90.7,0,133.9,88.6,134,287.5l0,0c0,0.2,0,0.3,0,0.5
			S2644.5,1119,2644.5,1119.1z"/>
		<path d="M1201.9,1378.1c-21,4.8-39.2,11.8-104.5,11.8c-100.5,0-244.4-90.2-244.4-271.3s143.9-271.3,244.4-271.3
			c65.3,0,83.6,7.1,104.5,11.8v-215c-26.9-4.6-61-7.9-111.5-7.9c-223.8,0-465.5,184.4-465.5,482.3s241.6,482.3,465.5,482.3
			c50.5,0,84.6-3.4,111.5-7.9V1378.1z"/>
		<rect x="3634" y="655.5" width="205" height="926.2"/>
		<path d="M314.2,655.5H205v0H0v926.2h205v-730h93c55.4,0,100.3,44.9,100.3,100.3c0,55.4-44.9,100.3-100.3,100.3h-40.7v194.2h56.9
			c163.2,0,303.9-132.3,303.9-295.6S477.5,655.5,314.2,655.5z"/>
	</g>
	<g>
		<polygon class="st3" points="1681.3,114.2 1767.4,65.4 1662.2,3.6 1607.7,263.6 1378.1,7.3 1270.8,128.5 1303.7,131.6 1327,157.6 
			1257.7,487.1 1384.7,422.9 1325.1,368.3 1361.3,195.9 1606.7,469.9 		"/>
		<path class="st3" d="M2149.7,18.1h-314.5h-3h-58.5c-3.3,0-4.1,4.6-1,5.7c29.8,10.6,52.7,26.7,49.7,40.9l-28.5,135.9
			c-3.5,16.7-31.8,23.8-57.8,26.9c-4.2,0.5-4.3,6.5-0.1,7.2c33.4,5.3,45.5,12.3,47.2,16.6l-31.3,149.4c-5,23.8-39.3,29.6-69.1,40.3
			c-3.1,1.1-2.3,5.7,1,5.7h58.5h35.1h106.3h143.5h64.7h1.4l28.8-136.9c0.9-4.6-5.2-7-7.6-3.1c-23.7,38-76.8,112.3-129.9,112.3h-95
			l37.2-177.4h24h0.2c37.2,0,63.2,57.3,71.8,79.4c0.9,2.4,4.5,2.1,5-0.4l37.8-180.4c0.6-2.8-2.9-4.4-4.7-2.2
			c-17.3,22.3-63.4,75.9-105.8,75.9h-22.6l35.3-168h99.3c51.4,0,68.3,55,74.8,122.9c0.5,5.6,8.4,6,9.6,0.6l31.7-151.2L2149.7,18.1z"
			/>
		<path class="st3" d="M2474.1,446.5l89.9-173.6c2.7-4.9-1.5-6.8-5.8-3.2c-170.9,141.6-285.3,13-268.5-71
			c18.5-91.9,91.1-137.5,158.2-152.6l70.2,90.3l63.1-30.8L2533.1,0.4c-150.9-7.2-343.2,87.6-352.4,261
			C2176.2,347.8,2259.8,521,2474.1,446.5z"/>
	</g>
</g>
</svg>
