<?xml version="1.0" encoding="utf-8"?>
<!-- Generator: Adobe Illustrator 26.3.1, SVG Export Plug-In . SVG Version: 6.00 Build 0)  -->
<svg version="1.1" id="Layer_1" xmlns="http://www.w3.org/2000/svg" xmlns:xlink="http://www.w3.org/1999/xlink" x="0px" y="0px"
	 viewBox="0 0 3839 1056" style="enable-background:new 0 0 3839 1056;" xml:space="preserve">
<style type="text/css">
	.st0{fill:#D02026;}
	.st1{fill:#FFFFFF;}
</style>
<g>
	<g>
		<g>
			<g>
				<path d="M2066.2,1055.5h-199V594.7h-111.9V449.5h310.9V1055.5z M1910.8,1011.9h111.7V493.2H1799V551h111.9V1011.9z"/>
			</g>
			<g>
				<g>
					<path d="M2657.1,1055.5h-521.9v-264c0-61.3,49.9-111.3,111.3-111.3h193.3c11.7,0,21.3-9.6,21.3-21.3V449.5h84.8
						c29.7,0,57.7,11.6,78.7,32.6c21,21,32.6,49,32.6,78.7v153.9c0,61.3-49.9,111.3-111.3,111.3h-190.3c-11.7,0-21.3,9.6-21.3,21.3
						v63.1h322.9V1055.5z M2178.9,1011.9h434.6V954h-322.9V847.2c0-35.8,29.1-65,65-65h190.3c37.3,0,67.6-30.3,67.6-67.6V560.8
						c0-18.1-7-35-19.8-47.8c-12.8-12.8-29.7-19.8-47.8-19.8h-41.1v165.8c0,35.8-29.1,65-65,65h-193.3c-37.3,0-67.6,30.3-67.6,67.6
						V1011.9z"/>
				</g>
				<g>
					<path d="M2408.8,594.7h-273.6V449.5h273.5L2408.8,594.7z M2178.9,551h186.2l0-57.9h-186.2V551z"/>
				</g>
			</g>
			<g>
				<path d="M3136.8,1055.5h-299.4c-61.3,0-111.3-49.9-111.3-111.3V560.8c0-61.4,49.9-111.3,111.3-111.3h87.7V889
					c0,11.7,9.6,21.3,21.3,21.3h81.3c11.7,0,21.3-9.6,21.3-21.3V616c0-11.7-9.6-21.3-21.3-21.3h-50.3V449.5h159.3
					c61.3,0,111.3,49.9,111.3,111.3v383.5C3248.1,1005.6,3198.2,1055.5,3136.8,1055.5z M2837.4,493.2c-37.3,0-67.6,30.3-67.6,67.6
					v383.5c0,37.3,30.3,67.6,67.6,67.6h299.4c37.3,0,67.6-30.3,67.6-67.6V560.8c0-37.3-30.3-67.6-67.6-67.6h-115.7V551h6.6
					c35.8,0,65,29.1,65,65V889c0,35.8-29.1,65-65,65h-81.3c-35.8,0-65-29.1-65-65V493.2H2837.4z"/>
			</g>
			<g>
				<path d="M3727.7,1055.5h-299.4c-61.3,0-111.3-49.9-111.3-111.3V560.8c0-61.4,49.9-111.3,111.3-111.3h87.7V889
					c0,11.7,9.6,21.3,21.3,21.3h81.3c11.7,0,21.3-9.6,21.3-21.3V616c0-11.7-9.6-21.3-21.3-21.3h-50.3V449.5h159.3
					c61.3,0,111.3,49.9,111.3,111.3v383.5C3839,1005.6,3789.1,1055.5,3727.7,1055.5z M3428.4,493.2c-37.3,0-67.6,30.3-67.6,67.6
					v383.5c0,37.3,30.3,67.6,67.6,67.6h299.4c37.3,0,67.6-30.3,67.6-67.6V560.8c0-37.3-30.3-67.6-67.6-67.6h-115.7V551h6.6
					c35.8,0,65,29.1,65,65V889c0,35.8-29.1,65-65,65h-81.3c-35.8,0-65-29.1-65-65V493.2H3428.4z"/>
			</g>
		</g>
		<g>
			<path d="M694.6,450.2l-158.6,0l0,124.8c0,0,34.2,0,34.2,0c17,0,30.8,13.8,30.8,30.8V1056h196.1l0-503.3
				C797.1,496.1,751.2,450.2,694.6,450.2z"/>
			<path d="M394.1,450.2l-141,0l0,124.8c0,0,16.7,0,16.7,0c17,0,30.8,13.8,30.8,30.8V1056h196.1l0-503.3
				C496.6,496.1,450.7,450.2,394.1,450.2z"/>
			<rect y="450.2" width="196.1" height="605.8"/>
			<rect x="1450.9" y="681.3" width="252.1" height="145.2"/>
			<g>
				<polygon points="1088.3,575 887.5,575 887.5,450.2 1180.1,450.2 				"/>
				<path d="M1241.4,450.2l-352.6,479c-38.7,52.5-1.2,126.7,64.1,126.7h89.5l359.2-490.1c35.2-48,0.9-115.6-58.6-115.6H1241.4z"/>
				<g>
					<polygon points="1195.6,931.2 1375.2,931.2 1375.2,1056 1103.7,1056 					"/>
				</g>
			</g>
		</g>
	</g>
	<g>
		<g>
			
				<g id="g9277_00000023269793082449974400000012503735234156309903_" transform="matrix(0,1.5459704,1.5459704,0,415.67057,649.33146)">
				<path id="path9279_00000032646665248199095720000008059316075733696900_" class="st0" d="M-340.9,747.4V621.9h-73v-64.8H-223
					v64.8h-76.7v125.5h76.7v64.8h-190.9v-64.8H-340.9"/>
			</g>
			
				<g id="g9281_00000131333698076040258680000006467534096923248006_" transform="matrix(0,1.5459704,1.5459704,0,451.89266,657.95179)">
				<path id="path9283_00000134959934312090749870000003725114187629191851_" class="st0" d="M-305.3,897.1l-74.1,45.2l74.1,43.8
					V897.1 M-419.5,917.1l190.9-116.3v49.6l-39.1,23.8v134.1l39.1,23.1v79.2l-190.9-116.3V917.1"/>
			</g>
			
				<g id="g9285_00000171691273974735738830000017981654543887348914_" transform="matrix(0,1.5459704,1.5459704,0,550.35088,651.36905)">
				<path id="path9287_00000066482290778890581480000002631342205498485391_" class="st0" d="M-332.5,1304.1
					c-20.2,15.4-49.9,13.4-66.9-16.3c-15.9-27.6-21.7-80.4-21.7-113.4c0-52.7,3.6-86.7,8.5-115.6h188.2v64.8H-384
					c-4.6,23.4-4.7,47.1-4.3,55.9c1.1,25.7,5.1,40.2,13.4,51.8c8.5,12,27.4,15.2,40.5-0.3c9.8-11.6,17.4-35.2,9.4-88l12.2-7.4
					l88.5,99.7v88.3L-301,1235C-303.8,1256.3-312.3,1288.6-332.5,1304.1"/>
			</g>
			
				<g id="g9289_00000083767223369306831680000001512309191618867627_" transform="matrix(0,1.5459704,1.5459704,0,346.11736,647.86124)">
				<path id="path9291_00000043444310421199934640000016510104156117881484_" class="st0" d="M-347,459.9
					c-7.3-37.4-11.8-69.3-23.9-69.3c-13.5,0-16.9,25.7-13,62.2c3.6,34.5,12.7,67,25.6,97.3l-37.8,23c-9.3-24.5-21.3-75-22.6-120.9
					c-1.5-50.3,3.1-135.1,53.9-138.8c46.5-3.3,57.6,62.9,67.7,106.4c9.9,42.4,13.4,82.1,28.1,82.1c10.3,0,18.4-14,15.6-51.1
					c-3.3-44.6-15.5-82.5-34.3-120.4l41.3-25.1c16.4,42,29.6,97,30.4,146.6c1,59-8.5,125.5-59,127
					C-317.3,580.4-332.1,536.7-347,459.9"/>
			</g>
			
				<g id="g9293_00000112634593378693997020000009305695788480252833_" transform="matrix(0,1.5459704,1.5459704,0,594.18532,651.0413)">
				<path id="path9295_00000162340448220957108700000003265444972993993367_" class="st0" d="M-333.8,1485.3
					c9.2-11.2,12.4-27.6,12.4-53.4c-0.1-19.1-3.6-38.8-7.2-54.8h-55c-4.6,23.3-4.7,47.5-4.3,56.3c1.1,25.9,5.5,41,13.4,52.2
					C-366.5,1497.2-346.8,1501.1-333.8,1485.3 M-399.1,1541.9c-15.6-26.4-21.7-75.8-21.7-113.8c0-52.8,3.6-87.1,8.5-116h188.2v64.8
					h-69c3.3,20.1,5.3,45.2,5.1,66.9c-0.5,53.1-12.9,92.5-32.5,110.4C-348.2,1579.9-381.7,1571.3-399.1,1541.9"/>
			</g>
		</g>
	</g>
</g>
</svg>
