<?xml version="1.0" encoding="utf-8"?>
<!-- Generator: Adobe Illustrator 26.3.1, SVG Export Plug-In . SVG Version: 6.00 Build 0)  -->
<svg version="1.1" id="Layer_1" xmlns="http://www.w3.org/2000/svg" xmlns:xlink="http://www.w3.org/1999/xlink" x="0px" y="0px"
	 viewBox="0 0 2233.9 2159" style="enable-background:new 0 0 2233.9 2159;" xml:space="preserve">
<style type="text/css">
	.st0{fill:#DD1000;}
	.st1{fill:#FFFFFF;}
</style>
<g>
	<g>
		<g>
			<path class="st0" d="M383.6,143.6H245.6h-25.5h-86.9c-12.1,0-42.8,0-42.8,0c-0.3,0-17.5,0-17.8,0c-37.9-0.3-37.9-59.5,0-59.8
				c0.3,0,17.5,0,17.8,0h377.2V0H91.3C40.9,0,0,40.9,0,91.3v44.8c0,50.4,40.9,91.3,91.3,91.3h113.4h25.5h111.6c12.1,0,42.8,0,42.8,0
				c0.3,0,17.5,0,17.8,0c37.9,0.3,37.9,59.5,0,59.8c-0.3,0-17.5,0-17.8,0H7.4v83.8h376.2c50.4,0,91.3-40.9,91.3-91.3V235
				C475,184.5,434.1,143.6,383.6,143.6z"/>
			<path class="st0" d="M934.8,0H820h-62H643.2c-50.5,0-91.3,40.9-91.3,91.3v22.4v0v143.6v0v22.4c0,50.4,40.9,91.3,91.3,91.3H758h62
				h114.9c50.5,0,91.3-40.9,91.3-91.3v-22.4v0V113.7v0V91.3C1026.2,40.9,985.3,0,934.8,0z M982,257.4c0,14.9-9.5,29.8-28.4,29.9
				c-0.3,0-17.5,0-17.8,0H820h-62H642.1c-0.2,0-17.5,0-17.8,0c-18.9-0.2-28.4-15-28.4-29.9V113.7c0-14.9,9.5-29.8,28.4-29.9
				c0.3,0,17.5,0,17.8,0H758h62h115.9c0.2,0,17.5,0,17.8,0c18.9,0.2,28.4,15,28.4,29.9V257.4z"/>
			<path class="st0" d="M1996.5,0h-309.9c-15.4,0-27.9,12.5-27.9,27.9v315.3c0,15.4,12.5,27.9,27.9,27.9h309.9
				c91,0,164.8-73.8,164.8-164.8v-41.6C2161.2,73.8,2087.5,0,1996.5,0z M2114.1,198.3c-1.8,47.5-41.8,89-89.3,89h-306.3
				c-8.7,0-15.8-7.1-15.8-15.8V99.6c0-8.7,7.1-15.8,15.8-15.8h305.9c50.8,0,91.5,38.2,89.6,89L2114.1,198.3z"/>
		</g>
		<path class="st0" d="M1290.8,227.4c0.3,0,17.5,0,17.8,0c0,0,30.7,0,42.8,0h142.4c50.5,0,91.3-40.9,91.3-91.3V91.3
			c0-50.4-40.9-91.3-91.3-91.3H1379h-56.9h-119.9c-50.5,0-91.3,40.9-91.3,91.3v22.4v0v257.4h44.1V113.7c0-14.9,9.5-29.8,28.4-29.9
			c0.3,0,17.5,0,17.8,0h142.2h35.7h115.9c0.2,0,17.5,0,17.8,0c37.9,0.3,37.9,59.5,0,59.8c-0.3,0-17.5,0-17.8,0c0,0-6.2,0-14,0
			h-171.2c-50.5,0-91.3,40.9-91.3,91.3v44.8c0,50.4,40.9,91.3,91.3,91.3h268.1v-83.8h-269.1c-0.2,0-17.5,0-17.8,0
			C1253,287,1253,227.7,1290.8,227.4z"/>
	</g>
	<g>
		<path d="M1134.8,880c0-164-133-297-297-297c-120.3,0-223.7,71.7-270.4,174.5C520.7,654.6,417.3,583,297,583
			c-101,0-190,50.5-243.7,127.5V609.6H0V880v536.3h53.3h0V880c0-134.6,109.1-243.7,243.7-243.7c134.6,0,243.7,109.1,243.7,243.7v0
			v536.3h53.3h0V880c0-134.6,109.1-243.7,243.7-243.7c134.6,0,243.7,109.1,243.7,243.7v536.3h53.3V880z"/>
		<path d="M1634.4,879.2l57-242.9h469.9V583h-457.3h-21.1h-33.6l-76.2,324.7l0,0l-5.4,22.9h5.4h20c324.5,0,587.6,263.1,587.6,587.6
			v0c0,324.5-263.1,587.6-587.6,587.6h-20v53.3h20c354,0,640.9-287,640.9-640.9v0C2233.9,1178.1,1969,900.7,1634.4,879.2z"/>
		<path d="M1278.4,1135c-14.4,0-26.1,11.7-26.1,26.1c0,14.4,11.7,26.1,26.1,26.1c14.4,0,26.1-11.7,26.1-26.1
			C1304.5,1146.7,1292.8,1135,1278.4,1135z"/>
		<path d="M1343.6,1135c-14.4,0-26.1,11.7-26.1,26.1c0,14.4,11.7,26.1,26.1,26.1c14.4,0,26.1-11.7,26.1-26.1
			C1369.7,1146.7,1358,1135,1343.6,1135z"/>
		<path d="M1408.8,1135c-14.4,0-26.1,11.7-26.1,26.1c0,14.4,11.7,26.1,26.1,26.1c14.4,0,26.1-11.7,26.1-26.1
			C1434.9,1146.7,1423.2,1135,1408.8,1135z"/>
		<path d="M1474,1135c-14.4,0-26.1,11.7-26.1,26.1c0,14.4,11.7,26.1,26.1,26.1s26.1-11.7,26.1-26.1
			C1500.1,1146.7,1488.4,1135,1474,1135z"/>
		<path d="M1278.4,1200.2c-14.4,0-26.1,11.7-26.1,26.1c0,14.4,11.7,26.1,26.1,26.1c14.4,0,26.1-11.7,26.1-26.1
			C1304.5,1211.9,1292.8,1200.2,1278.4,1200.2z"/>
		<path d="M1343.6,1200.2c-14.4,0-26.1,11.7-26.1,26.1c0,14.4,11.7,26.1,26.1,26.1c14.4,0,26.1-11.7,26.1-26.1
			C1369.7,1211.9,1358,1200.2,1343.6,1200.2z"/>
		<path d="M1408.8,1200.2c-14.4,0-26.1,11.7-26.1,26.1c0,14.4,11.7,26.1,26.1,26.1c14.4,0,26.1-11.7,26.1-26.1
			C1434.9,1211.9,1423.2,1200.2,1408.8,1200.2z"/>
		<path d="M1474,1200.2c-14.4,0-26.1,11.7-26.1,26.1c0,14.4,11.7,26.1,26.1,26.1s26.1-11.7,26.1-26.1
			C1500.1,1211.9,1488.4,1200.2,1474,1200.2z"/>
		<path d="M1278.4,1265.4c-14.4,0-26.1,11.7-26.1,26.1c0,14.4,11.7,26.1,26.1,26.1c14.4,0,26.1-11.7,26.1-26.1
			C1304.5,1277.1,1292.8,1265.4,1278.4,1265.4z"/>
		<ellipse cx="1343.6" cy="1291.5" rx="26.1" ry="26.1"/>
		<path d="M1408.8,1265.4c-14.4,0-26.1,11.7-26.1,26.1c0,14.4,11.7,26.1,26.1,26.1c14.4,0,26.1-11.7,26.1-26.1
			C1434.9,1277.1,1423.2,1265.4,1408.8,1265.4z"/>
		<ellipse cx="1474" cy="1291.5" rx="26.1" ry="26.1"/>
		<path d="M1278.4,1330.6c-14.4,0-26.1,11.7-26.1,26.1s11.7,26.1,26.1,26.1c14.4,0,26.1-11.7,26.1-26.1S1292.8,1330.6,1278.4,1330.6
			z"/>
		<ellipse cx="1343.6" cy="1356.7" rx="26.1" ry="26.1"/>
		<path d="M1408.8,1330.6c-14.4,0-26.1,11.7-26.1,26.1s11.7,26.1,26.1,26.1c14.4,0,26.1-11.7,26.1-26.1S1423.2,1330.6,1408.8,1330.6
			z"/>
		<ellipse cx="1474" cy="1356.7" rx="26.1" ry="26.1"/>
	</g>
</g>
</svg>
