<?xml version="1.0" encoding="utf-8"?>
<!-- Generator: Adobe Illustrator 26.3.1, SVG Export Plug-In . SVG Version: 6.00 Build 0)  -->
<svg version="1.1" id="Layer_1" xmlns="http://www.w3.org/2000/svg" xmlns:xlink="http://www.w3.org/1999/xlink" x="0px" y="0px"
	 viewBox="0 0 2395.2 2159" style="enable-background:new 0 0 2395.2 2159;" xml:space="preserve">
<style type="text/css">
	.st0{fill:#DD1000;}
	.st1{fill:#FFFFFF;}
</style>
<g>
	<g>
		<path d="M1216.7,787.6c0-175.9-142.6-318.5-318.5-318.5c-129,0-239.8,76.8-289.9,187.1C558.3,546,447.5,469.1,318.5,469.1
			c-108.3,0-203.7,54.1-261.3,136.7V497.7H0v289.9v575h57.2h0v-575c0-144.3,117-261.3,261.3-261.3c144.3,0,261.3,117,261.3,261.3v0
			v575H637h0v-575c0-144.3,117-261.3,261.3-261.3c144.3,0,261.3,117,261.3,261.3v575h57.2V787.6z"/>
		<path d="M1752.4,786.8l61.1-260.5h503.8v-57.2h-490.4h-22.7h-36.1l-81.7,348.1l0,0l-5.7,24.5h5.7h21.5c347.9,0,630,282.1,630,630
			v0c0,348-282.1,630-630,630h-21.5v57.2h21.5c379.5,0,687.2-307.7,687.2-687.2v0C2395.2,1107.2,2111.2,809.8,1752.4,786.8z"/>
		<path d="M1370.7,1061c-15.5,0-28,12.5-28,28c0,15.5,12.5,28,28,28c15.5,0,28-12.5,28-28C1398.7,1073.6,1386.2,1061,1370.7,1061z"
			/>
		<path d="M1440.6,1061c-15.5,0-28,12.5-28,28c0,15.5,12.5,28,28,28c15.5,0,28-12.5,28-28C1468.6,1073.6,1456.1,1061,1440.6,1061z"
			/>
		<path d="M1510.5,1061c-15.5,0-28,12.5-28,28c0,15.5,12.5,28,28,28c15.5,0,28-12.5,28-28C1538.5,1073.6,1526,1061,1510.5,1061z"/>
		<path d="M1580.4,1061c-15.5,0-28,12.5-28,28c0,15.5,12.5,28,28,28c15.5,0,28-12.5,28-28C1608.4,1073.6,1595.9,1061,1580.4,1061z"
			/>
		<path d="M1370.7,1130.9c-15.5,0-28,12.5-28,28c0,15.5,12.5,28,28,28c15.5,0,28-12.5,28-28
			C1398.7,1143.5,1386.2,1130.9,1370.7,1130.9z"/>
		<path d="M1440.6,1130.9c-15.5,0-28,12.5-28,28c0,15.5,12.5,28,28,28c15.5,0,28-12.5,28-28
			C1468.6,1143.5,1456.1,1130.9,1440.6,1130.9z"/>
		<path d="M1510.5,1130.9c-15.5,0-28,12.5-28,28c0,15.5,12.5,28,28,28c15.5,0,28-12.5,28-28
			C1538.5,1143.5,1526,1130.9,1510.5,1130.9z"/>
		<path d="M1580.4,1130.9c-15.5,0-28,12.5-28,28c0,15.5,12.5,28,28,28c15.5,0,28-12.5,28-28
			C1608.4,1143.5,1595.9,1130.9,1580.4,1130.9z"/>
		<path d="M1370.7,1200.9c-15.5,0-28,12.5-28,28c0,15.5,12.5,28,28,28c15.5,0,28-12.5,28-28
			C1398.7,1213.4,1386.2,1200.9,1370.7,1200.9z"/>
		<ellipse cx="1440.6" cy="1228.9" rx="28" ry="28"/>
		<path d="M1510.5,1200.9c-15.5,0-28,12.5-28,28c0,15.5,12.5,28,28,28c15.5,0,28-12.5,28-28
			C1538.5,1213.4,1526,1200.9,1510.5,1200.9z"/>
		<ellipse cx="1580.4" cy="1228.9" rx="28" ry="28"/>
		<path d="M1370.7,1270.8c-15.5,0-28,12.5-28,28c0,15.5,12.5,28,28,28c15.5,0,28-12.5,28-28
			C1398.7,1283.3,1386.2,1270.8,1370.7,1270.8z"/>
		<ellipse cx="1440.6" cy="1298.8" rx="28" ry="28"/>
		<path d="M1510.5,1270.8c-15.5,0-28,12.5-28,28c0,15.5,12.5,28,28,28c15.5,0,28-12.5,28-28
			C1538.5,1283.3,1526,1270.8,1510.5,1270.8z"/>
		<ellipse cx="1580.4" cy="1298.8" rx="28" ry="28"/>
	</g>
	<g>
		<g>
			<rect x="0" y="0.2" class="st0" width="509.8" height="310.6"/>
			<path class="st1" d="M99.1,179h224.7v45.3H57.9v46.9h352.9c22.8,0,41.2-18.4,41.2-41.2v-56.8c0-22.8-18.4-41.2-41.2-41.2H186
				V86.8H452V39.8H99.1c-22.8,0-41.2,18.4-41.2,41.2v56.8C57.9,160.6,76.3,179,99.1,179z"/>
		</g>
		<g>
			<rect x="1807.5" class="st0" width="509.8" height="310.6"/>
			<path class="st1" d="M1859.3,39.6V271h365c22.8,0,41.2-18.4,41.2-41.2V80.8c0-22.8-18.4-41.2-41.2-41.2H1859.3z M2108.3,224.1
				h-120.8V86.5h120.8c16,0,29,13,29,29v79.5C2137.3,211.1,2124.3,224.1,2108.3,224.1z"/>
		</g>
		<g>
			<rect x="602.5" class="st0" width="509.8" height="310.6"/>
			<path class="st1" d="M654.3,80.8v149.1c0,22.8,18.4,41.2,41.2,41.2h323.8c22.8,0,41.2-18.4,41.2-41.2V80.8
				c0-22.8-18.4-41.2-41.2-41.2H695.5C672.8,39.6,654.3,58,654.3,80.8z M909.7,224.1H805.1c-12.5,0-22.7-10.1-22.7-22.7v-92.3
				c0-12.5,10.1-22.7,22.7-22.7h104.6c12.5,0,22.7,10.1,22.7,22.7v92.3C932.4,214,922.2,224.1,909.7,224.1z"/>
		</g>
		<g>
			<rect x="1205" class="st0" width="509.8" height="310.6"/>
			<path class="st1" d="M1672,271l-14.8-23.1l-44.3-69.1c22.8,0,41.2-18.4,41.2-41.2V80.8c0-22.8-18.4-41.2-41.2-41.2h-365V271H1376
				v-92.3h100.4l42.6,92.3H1672z M1376,131.9V86.5h127.2c12.5,0,22.7,10.1,22.7,22.7s-10.1,22.7-22.7,22.7H1376z"/>
		</g>
	</g>
</g>
</svg>
