<?xml version="1.0" encoding="utf-8"?>
<!-- Generator: Adobe Illustrator 26.3.1, SVG Export Plug-In . SVG Version: 6.00 Build 0)  -->
<svg version="1.1" id="Layer_1" xmlns="http://www.w3.org/2000/svg" xmlns:xlink="http://www.w3.org/1999/xlink" x="0px" y="0px"
	 viewBox="0 0 3839 1313.5" style="enable-background:new 0 0 3839 1313.5;" xml:space="preserve">
<style type="text/css">
	.st0{fill:#DD1000;}
	.st1{fill:#FFFFFF;}
	.st2{font-family:'HelveticaNeueLTStd-Roman';}
	.st3{font-size:131.4064px;}
	.st4{letter-spacing:-1;}
</style>
<g>
	<g>
		<g>
			<path class="st0" d="M385.5,606.8H246.8h-25.7h-87.3c-12.2,0-43,0-43,0c-0.3,0-17.6,0-17.9,0c-38-0.3-38-59.8,0-60.1
				c0.3,0,17.6,0,17.9,0h379v-84.2h-378C41.1,462.5,0,503.6,0,554.2v45C0,649.9,41.1,691,91.8,691h113.9h25.7h112.2
				c12.2,0,43,0,43,0c0.3,0,17.6,0,17.9,0c38,0.3,38,59.8,0,60.1c-0.3,0-17.6,0-17.9,0H7.5v84.2h378c50.7,0,91.8-41.1,91.8-91.8v-45
				C477.2,647.9,436.2,606.8,385.5,606.8z"/>
			<path class="st0" d="M939.3,462.5H823.9h-62.3H646.2c-50.7,0-91.8,41.1-91.8,91.8v22.5v0v144.3v0v22.5
				c0,50.7,41.1,91.8,91.8,91.8h115.4h62.3h115.4c50.7,0,91.8-41.1,91.8-91.8v-22.5v0V576.7v0v-22.5
				C1031.1,503.6,990,462.5,939.3,462.5z M986.8,721.1c0,15-9.5,29.9-28.5,30.1c-0.3,0-17.6,0-17.9,0H823.9h-62.3H645.2
				c-0.2,0-17.6,0-17.9,0c-19-0.2-28.5-15.1-28.5-30.1V576.7c0-15,9.5-29.9,28.5-30.1c0.3,0,17.6,0,17.9,0h116.4h62.3h116.4
				c0.2,0,17.6,0,17.9,0c19,0.2,28.5,15.1,28.5,30.1V721.1z"/>
			<path class="st0" d="M2006.1,462.5h-311.4c-15.5,0-28,12.5-28,28v316.8c0,15.5,12.5,28,28,28h311.4
				c91.4,0,165.5-74.1,165.5-165.5V628C2171.6,536.6,2097.5,462.5,2006.1,462.5z M2124.3,661.7c-1.8,47.7-42,89.5-89.7,89.5h-307.8
				c-8.8,0-15.9-7.1-15.9-15.9V562.5c0-8.8,7.1-15.9,15.9-15.9h307.4c51.1,0,91.9,38.4,90,89.5L2124.3,661.7z"/>
		</g>
		<path class="st0" d="M1297,691c0.3,0,17.6,0,17.9,0c0,0,30.9,0,43,0H1501c50.7,0,91.8-41.1,91.8-91.8v-45
			c0-50.7-41.1-91.8-91.8-91.8h-115.4h-57.2H1208c-50.7,0-91.8,41.1-91.8,91.8v22.5v0v258.6h44.3V576.7c0-15,9.5-29.9,28.5-30.1
			c0.3,0,17.6,0,17.9,0h142.8h35.9h116.4c0.2,0,17.6,0,17.9,0c38,0.3,38,59.8,0,60.1c-0.3,0-17.6,0-17.9,0c0,0-6.2,0-14.1,0h-172
			c-50.7,0-91.8,41.1-91.8,91.8v45c0,50.7,41.1,91.8,91.8,91.8h269.4v-84.2h-270.4c-0.2,0-17.6,0-17.9,0
			C1259,750.8,1259,691.3,1297,691z"/>
	</g>
	<g>
		<text transform="matrix(1 0 0 1 2407.4136 1009.1238)" class="st2 st3 st4">Creative Computer</text>
		<g>
			<g>
				<polygon class="st0" points="2827.4,718 2654.3,287.3 2509.2,835.4 2585.4,835.4 2668.7,520.7 2827.4,915.5 2986.1,520.8 
					3069.4,835.4 3145.6,835.4 3000.5,287.3 				"/>
				<polygon class="st0" points="2827.4,672.4 3003.8,233.4 3163.2,835.4 3239.4,835.4 3018.2,0 2827.4,474.8 2636.6,0 
					2415.4,835.4 2491.6,835.4 2651,233.4 				"/>
			</g>
			<g>
				<path class="st0" d="M3182.8,1126.4C3182.8,1126.4,3182.8,1126.4,3182.8,1126.4l10.4-8.9L3182.8,1126.4z"/>
				<path class="st0" d="M3428.8,1222.9c168.9,0,306.4-137.4,306.4-306.4s-137.4-306.4-306.4-306.4c-47.5,0-93,10.6-135.3,31.4
					l-18.3,9l107-317.6h414.3l42.5-73.7h-509.7l-169.1,501.7l8.7,41.3l48.2,17.3c36.8-80.1,117.7-135.8,211.6-135.8h0
					c128.3,0,232.7,104.4,232.7,232.7c0,128.3-104.4,232.7-232.7,232.7c-68.2,0-132.7-29.8-177-81.7l-58.6,50l2.5-2.2
					C3254.1,1183.7,3339,1222.9,3428.8,1222.9z"/>
				<path class="st0" d="M3428.8,519.5c-4.6,0-9.2,0.1-13.8,0.2l32.4-96.1h296.9l42.5-73.7h-392.3l-90.4,268.1
					c39.4-16.5,81.3-24.9,124.7-24.9c178.3,0,323.3,145.1,323.3,323.4s-145,323.4-323.3,323.4c-94.8,0-184.4-41.4-246-113.5
					l-56,47.8c75.6,88.5,185.7,139.3,302,139.3c218.9,0,397-178.1,397-397S3647.7,519.5,3428.8,519.5z"/>
			</g>
		</g>
	</g>
</g>
</svg>
