<?xml version="1.0" encoding="utf-8"?>
<!-- Generator: Adobe Illustrator 26.3.1, SVG Export Plug-In . SVG Version: 6.00 Build 0)  -->
<svg version="1.1" xmlns="http://www.w3.org/2000/svg" xmlns:xlink="http://www.w3.org/1999/xlink" x="0px" y="0px"
	 viewBox="0 0 3839 521.8" style="enable-background:new 0 0 3839 521.8;" xml:space="preserve">
<style type="text/css">
	.st0{display:none;}
	.st1{display:inline;fill:#9F00A8;}
	.st2{display:inline;}
	.st3{fill:#FFFFFF;}
	.st4{fill:#2C376B;}
	.st5{fill:#5FA5F0;}
	.st6{fill:#1B1C2B;}
	.st7{display:inline;fill:#FFFFFF;}
	.st8{display:inline;fill:#2C376B;}
	.st9{display:inline;opacity:0.39;}
	.st10{fill:#606060;stroke:#FFFFFF;stroke-width:0.9229;stroke-miterlimit:10;}
	.st11{fill:#2C376B;stroke:#5364A5;stroke-miterlimit:10;}
	.st12{fill:#474747;}
	.st13{fill:#BFBFBF;}
</style>
<g id="tic80">
	<g class="st0">
	</g>
	<g>
		<g>
			<g>
				<rect x="37.3" class="st4" width="37.3" height="37.3"/>
				<rect x="74.5" class="st4" width="37.3" height="37.3"/>
				<rect x="111.8" class="st4" width="37.3" height="37.3"/>
				<rect x="149.1" class="st4" width="37.3" height="37.3"/>
				<rect x="186.4" class="st4" width="37.3" height="37.3"/>
				<rect x="223.6" class="st4" width="37.3" height="37.3"/>
				<rect x="260.9" class="st4" width="37.3" height="37.3"/>
				<rect x="298.2" class="st4" width="37.3" height="37.3"/>
				<rect x="335.4" class="st4" width="37.3" height="37.3"/>
				<rect x="372.7" class="st4" width="37.3" height="37.3"/>
			</g>
			<g>
				<rect x="0" y="37.3" class="st5" width="37.3" height="37.3"/>
				<rect x="37.3" y="37.3" class="st5" width="37.3" height="37.3"/>
				<rect x="74.5" y="37.3" class="st5" width="37.3" height="37.3"/>
				<rect x="111.8" y="37.3" class="st5" width="37.3" height="37.3"/>
				<rect x="149.1" y="37.3" class="st5" width="37.3" height="37.3"/>
				<rect x="186.4" y="37.3" class="st5" width="37.3" height="37.3"/>
				<rect x="223.6" y="37.3" class="st5" width="37.3" height="37.3"/>
				<rect x="260.9" y="37.3" class="st5" width="37.3" height="37.3"/>
				<rect x="298.2" y="37.3" class="st5" width="37.3" height="37.3"/>
				<rect x="335.4" y="37.3" class="st5" width="37.3" height="37.3"/>
				<rect x="372.7" y="37.3" class="st5" width="37.3" height="37.3"/>
				<rect x="410" y="37.3" class="st6" width="37.3" height="37.3"/>
			</g>
			<g>
				<rect x="0" y="74.5" class="st5" width="37.3" height="37.3"/>
				<rect x="37.3" y="74.5" class="st4" width="37.3" height="37.3"/>
				<rect x="74.5" y="74.5" class="st4" width="37.3" height="37.3"/>
				<rect x="111.8" y="74.5" class="st4" width="37.3" height="37.3"/>
				<rect x="149.1" y="74.5" class="st4" width="37.3" height="37.3"/>
				<rect x="186.4" y="74.5" class="st4" width="37.3" height="37.3"/>
				<rect x="223.6" y="74.5" class="st4" width="37.3" height="37.3"/>
				<rect x="260.9" y="74.5" class="st4" width="37.3" height="37.3"/>
				<rect x="298.2" y="74.5" class="st4" width="37.3" height="37.3"/>
				<rect x="335.4" y="74.5" class="st4" width="37.3" height="37.3"/>
				<rect x="372.7" y="74.5" class="st5" width="37.3" height="37.3"/>
				<rect x="410" y="74.5" class="st6" width="37.3" height="37.3"/>
			</g>
			<g>
				<rect x="0" y="111.8" class="st5" width="37.3" height="37.3"/>
				<rect x="37.3" y="111.8" class="st3" width="37.3" height="37.3"/>
				<rect x="74.5" y="111.8" class="st3" width="37.3" height="37.3"/>
				<rect x="111.8" y="111.8" class="st3" width="37.3" height="37.3"/>
				<rect x="149.1" y="111.8" class="st3" width="37.3" height="37.3"/>
				<rect x="186.4" y="111.8" class="st3" width="37.3" height="37.3"/>
				<rect x="223.6" y="111.8" class="st3" width="37.3" height="37.3"/>
				<rect x="260.9" y="111.8" class="st3" width="37.3" height="37.3"/>
				<rect x="298.2" y="111.8" class="st3" width="37.3" height="37.3"/>
				<rect x="335.4" y="111.8" class="st3" width="37.3" height="37.3"/>
				<rect x="372.7" y="111.8" class="st5" width="37.3" height="37.3"/>
				<rect x="410" y="111.8" class="st6" width="37.3" height="37.3"/>
			</g>
			<g>
				<rect x="0" y="149.1" class="st5" width="37.3" height="37.3"/>
				<rect x="37.3" y="149.1" class="st3" width="37.3" height="37.3"/>
				<rect x="74.5" y="149.1" class="st3" width="37.3" height="37.3"/>
				<rect x="111.8" y="149.1" class="st6" width="37.3" height="37.3"/>
				<rect x="149.1" y="149.1" class="st3" width="37.3" height="37.3"/>
				<rect x="186.4" y="149.1" class="st3" width="37.3" height="37.3"/>
				<rect x="223.6" y="149.1" class="st3" width="37.3" height="37.3"/>
				<rect x="260.9" y="149.1" class="st6" width="37.3" height="37.3"/>
				<rect x="298.2" y="149.1" class="st3" width="37.3" height="37.3"/>
				<rect x="335.4" y="149.1" class="st3" width="37.3" height="37.3"/>
				<rect x="372.7" y="149.1" class="st5" width="37.3" height="37.3"/>
				<rect x="410" y="149.1" class="st6" width="37.3" height="37.3"/>
				<rect x="484.5" y="149.1" class="st6" width="37.3" height="37.3"/>
			</g>
			<g>
				<rect x="0" y="186.4" class="st5" width="37.3" height="37.3"/>
				<rect x="37.3" y="186.4" class="st3" width="37.3" height="37.3"/>
				<rect x="74.5" y="186.4" class="st3" width="37.3" height="37.3"/>
				<rect x="111.8" y="186.4" class="st6" width="37.3" height="37.3"/>
				<rect x="149.1" y="186.4" class="st3" width="37.3" height="37.3"/>
				<rect x="186.4" y="186.4" class="st3" width="37.3" height="37.3"/>
				<rect x="223.6" y="186.4" class="st3" width="37.3" height="37.3"/>
				<rect x="260.9" y="186.4" class="st6" width="37.3" height="37.3"/>
				<rect x="298.2" y="186.4" class="st3" width="37.3" height="37.3"/>
				<rect x="335.4" y="186.4" class="st3" width="37.3" height="37.3"/>
				<rect x="372.7" y="186.4" class="st5" width="37.3" height="37.3"/>
				<rect x="410" y="186.4" class="st6" width="37.3" height="37.3"/>
				<rect x="484.5" y="186.4" class="st6" width="37.3" height="37.3"/>
			</g>
			<g>
				<rect x="0" y="223.6" class="st5" width="37.3" height="37.3"/>
				<rect x="37.3" y="223.6" class="st3" width="37.3" height="37.3"/>
				<rect x="74.5" y="223.6" class="st3" width="37.3" height="37.3"/>
				<rect x="111.8" y="223.6" class="st6" width="37.3" height="37.3"/>
				<rect x="149.1" y="223.6" class="st3" width="37.3" height="37.3"/>
				<rect x="186.4" y="223.6" class="st3" width="37.3" height="37.3"/>
				<rect x="223.6" y="223.6" class="st3" width="37.3" height="37.3"/>
				<rect x="260.9" y="223.6" class="st6" width="37.3" height="37.3"/>
				<rect x="298.2" y="223.6" class="st3" width="37.3" height="37.3"/>
				<rect x="335.4" y="223.6" class="st3" width="37.3" height="37.3"/>
				<rect x="372.7" y="223.6" class="st5" width="37.3" height="37.3"/>
				<rect x="410" y="223.6" class="st6" width="37.3" height="37.3"/>
				<rect x="484.5" y="223.6" class="st6" width="37.3" height="37.3"/>
			</g>
			<g>
				<rect x="0" y="260.9" class="st5" width="37.3" height="37.3"/>
				<rect x="37.3" y="260.9" class="st3" width="37.3" height="37.3"/>
				<rect x="74.5" y="260.9" class="st3" width="37.3" height="37.3"/>
				<rect x="111.8" y="260.9" class="st3" width="37.3" height="37.3"/>
				<rect x="149.1" y="260.9" class="st3" width="37.3" height="37.3"/>
				<rect x="186.4" y="260.9" class="st3" width="37.3" height="37.3"/>
				<rect x="223.6" y="260.9" class="st3" width="37.3" height="37.3"/>
				<rect x="260.9" y="260.9" class="st3" width="37.3" height="37.3"/>
				<rect x="298.2" y="260.9" class="st3" width="37.3" height="37.3"/>
				<rect x="335.4" y="260.9" class="st3" width="37.3" height="37.3"/>
				<rect x="372.7" y="260.9" class="st5" width="37.3" height="37.3"/>
				<rect x="410" y="260.9" class="st6" width="37.3" height="37.3"/>
				<rect x="447.3" y="260.9" class="st6" width="37.3" height="37.3"/>
			</g>
			<g>
				<rect x="0" y="298.2" class="st5" width="37.3" height="37.3"/>
				<rect x="37.3" y="298.2" class="st5" width="37.3" height="37.3"/>
				<rect x="74.5" y="298.2" class="st5" width="37.3" height="37.3"/>
				<rect x="111.8" y="298.2" class="st5" width="37.3" height="37.3"/>
				<rect x="149.1" y="298.2" class="st5" width="37.3" height="37.3"/>
				<rect x="186.4" y="298.2" class="st5" width="37.3" height="37.3"/>
				<rect x="223.6" y="298.2" class="st5" width="37.3" height="37.3"/>
				<rect x="260.9" y="298.2" class="st5" width="37.3" height="37.3"/>
				<rect x="298.2" y="298.2" class="st5" width="37.3" height="37.3"/>
				<rect x="335.4" y="298.2" class="st5" width="37.3" height="37.3"/>
				<rect x="372.7" y="298.2" class="st5" width="37.3" height="37.3"/>
				<rect x="410" y="298.2" class="st6" width="37.3" height="37.3"/>
			</g>
			<g>
				<rect x="0" y="335.4" class="st5" width="37.3" height="37.3"/>
				<rect x="37.3" y="335.4" class="st5" width="37.3" height="37.3"/>
				<rect x="74.5" y="335.4" class="st5" width="37.3" height="37.3"/>
				<rect x="111.8" y="335.4" class="st3" width="37.3" height="37.3"/>
				<rect x="149.1" y="335.4" class="st5" width="37.3" height="37.3"/>
				<rect x="186.4" y="335.4" class="st5" width="37.3" height="37.3"/>
				<rect x="223.6" y="335.4" class="st5" width="37.3" height="37.3"/>
				<rect x="260.9" y="335.4" class="st3" width="37.3" height="37.3"/>
				<rect x="298.2" y="335.4" class="st5" width="37.3" height="37.3"/>
				<rect x="335.4" y="335.4" class="st5" width="37.3" height="37.3"/>
				<rect x="372.7" y="335.4" class="st5" width="37.3" height="37.3"/>
				<rect x="410" y="335.4" class="st6" width="37.3" height="37.3"/>
			</g>
			<g>
				<rect x="0" y="372.7" class="st5" width="37.3" height="37.3"/>
				<rect x="37.3" y="372.7" class="st5" width="37.3" height="37.3"/>
				<rect x="74.5" y="372.7" class="st5" width="37.3" height="37.3"/>
				<rect x="111.8" y="372.7" class="st5" width="37.3" height="37.3"/>
				<rect x="149.1" y="372.7" class="st3" width="37.3" height="37.3"/>
				<rect x="186.4" y="372.7" class="st3" width="37.3" height="37.3"/>
				<rect x="223.6" y="372.7" class="st3" width="37.3" height="37.3"/>
				<rect x="260.9" y="372.7" class="st5" width="37.3" height="37.3"/>
				<rect x="298.2" y="372.7" class="st5" width="37.3" height="37.3"/>
				<rect x="335.4" y="372.7" class="st5" width="37.3" height="37.3"/>
				<rect x="372.7" y="372.7" class="st5" width="37.3" height="37.3"/>
				<rect x="410" y="372.7" class="st6" width="37.3" height="37.3"/>
			</g>
			<g>
				<rect x="0" y="410" class="st5" width="37.3" height="37.3"/>
				<rect x="37.3" y="410" class="st5" width="37.3" height="37.3"/>
				<rect x="74.5" y="410" class="st5" width="37.3" height="37.3"/>
				<rect x="111.8" y="410" class="st5" width="37.3" height="37.3"/>
				<rect x="149.1" y="410" class="st5" width="37.3" height="37.3"/>
				<rect x="186.4" y="410" class="st5" width="37.3" height="37.3"/>
				<rect x="223.6" y="410" class="st5" width="37.3" height="37.3"/>
				<rect x="260.9" y="410" class="st5" width="37.3" height="37.3"/>
				<rect x="298.2" y="410" class="st5" width="37.3" height="37.3"/>
				<rect x="335.4" y="410" class="st5" width="37.3" height="37.3"/>
				<rect x="372.7" y="410" class="st5" width="37.3" height="37.3"/>
				<rect x="410" y="410" class="st6" width="37.3" height="37.3"/>
			</g>
			<g>
				<rect x="0" y="447.3" class="st4" width="37.3" height="37.3"/>
				<rect x="37.3" y="447.3" class="st4" width="37.3" height="37.3"/>
				<rect x="74.5" y="447.3" class="st4" width="37.3" height="37.3"/>
				<rect x="111.8" y="447.3" class="st4" width="37.3" height="37.3"/>
				<rect x="149.1" y="447.3" class="st4" width="37.3" height="37.3"/>
				<rect x="186.4" y="447.3" class="st4" width="37.3" height="37.3"/>
				<rect x="223.6" y="447.3" class="st4" width="37.3" height="37.3"/>
				<rect x="260.9" y="447.3" class="st4" width="37.3" height="37.3"/>
				<rect x="298.2" y="447.3" class="st4" width="37.3" height="37.3"/>
				<rect x="335.4" y="447.3" class="st4" width="37.3" height="37.3"/>
				<rect x="372.7" y="447.3" class="st4" width="37.3" height="37.3"/>
			</g>
			<g>
				<rect x="37.3" y="484.5" class="st6" width="37.3" height="37.3"/>
				<rect x="74.5" y="484.5" class="st6" width="37.3" height="37.3"/>
				<rect x="111.8" y="484.5" class="st6" width="37.3" height="37.3"/>
				<rect x="260.9" y="484.5" class="st6" width="37.3" height="37.3"/>
				<rect x="298.2" y="484.5" class="st6" width="37.3" height="37.3"/>
				<rect x="335.4" y="484.5" class="st6" width="37.3" height="37.3"/>
			</g>
		</g>
		<g>
			<g>
				<rect x="857.3" y="149.1" width="37.3" height="37.3"/>
				<rect x="820" y="149.1" width="37.3" height="37.3"/>
				<rect x="745.4" y="149.1" width="37.3" height="37.3"/>
				<rect x="708.2" y="149.1" width="37.3" height="37.3"/>
				<rect x="670.9" y="149.1" width="37.3" height="37.3"/>
				<rect x="894.5" y="149.1" width="37.3" height="37.3"/>
				<rect x="1006.3" y="149.1" width="37.3" height="37.3"/>
				<rect x="1043.6" y="149.1" width="37.3" height="37.3"/>
				<rect x="1304.5" y="149.1" width="37.3" height="37.3"/>
				<rect x="1341.8" y="149.1" width="37.3" height="37.3"/>
				<rect x="1490.9" y="149.1" width="37.3" height="37.3"/>
				<rect x="1528.1" y="149.1" width="37.3" height="37.3"/>
				<rect x="1789" y="149.1" width="37.3" height="37.3"/>
				<rect x="1900.9" y="149.1" width="37.3" height="37.3"/>
				<rect x="3429" y="149.1" width="37.3" height="37.3"/>
			</g>
			<g>
				<rect x="857.3" y="186.4" width="37.3" height="37.3"/>
				<rect x="708.2" y="186.4" width="37.3" height="37.3"/>
				<rect x="969.1" y="186.4" width="37.3" height="37.3"/>
				<rect x="1267.2" y="186.4" width="37.3" height="37.3"/>
				<rect x="1379.1" y="186.4" width="37.3" height="37.3"/>
				<rect x="1453.6" y="186.4" width="37.3" height="37.3"/>
				<rect x="1565.4" y="186.4" width="37.3" height="37.3"/>
				<rect x="1789" y="186.4" width="37.3" height="37.3"/>
				<rect x="1826.3" y="186.4" width="37.3" height="37.3"/>
				<rect x="1975.4" y="186.4" width="37.3" height="37.3"/>
				<rect x="2012.7" y="186.4" width="37.3" height="37.3"/>
				<rect x="2050" y="186.4" width="37.3" height="37.3"/>
				<rect x="2161.8" y="186.4" width="37.3" height="37.3"/>
				<rect x="2273.6" y="186.4" width="37.3" height="37.3"/>
				<rect x="2534.5" y="186.4" width="37.3" height="37.3"/>
				<rect x="2571.8" y="186.4" width="37.3" height="37.3"/>
				<rect x="2683.6" y="186.4" width="37.3" height="37.3"/>
				<rect x="2720.8" y="186.4" width="37.3" height="37.3"/>
				<rect x="2832.7" y="186.4" width="37.3" height="37.3"/>
				<rect x="2869.9" y="186.4" width="37.3" height="37.3"/>
				<rect x="2907.2" y="186.4" width="37.3" height="37.3"/>
				<rect x="2944.5" y="186.4" width="37.3" height="37.3"/>
				<rect x="3056.3" y="186.4" width="37.3" height="37.3"/>
				<rect x="3093.6" y="186.4" width="37.3" height="37.3"/>
				<rect x="3130.8" y="186.4" width="37.3" height="37.3"/>
				<rect x="3242.7" y="186.4" width="37.3" height="37.3"/>
				<rect x="3354.5" y="186.4" width="37.3" height="37.3"/>
				<rect x="3429" y="186.4" width="37.3" height="37.3"/>
				<rect x="3466.3" y="186.4" width="37.3" height="37.3"/>
				<rect x="3578.1" y="186.4" width="37.3" height="37.3"/>
				<rect x="3615.4" y="186.4" width="37.3" height="37.3"/>
				<rect x="3727.2" y="186.4" width="37.3" height="37.3"/>
				<rect x="3801.7" y="186.4" width="37.3" height="37.3"/>
			</g>
			<g>
				<rect x="857.3" y="223.6" width="37.3" height="37.3"/>
				<rect x="708.2" y="223.6" width="37.3" height="37.3"/>
				<rect x="969.1" y="223.6" width="37.3" height="37.3"/>
				<rect x="1118.2" y="223.6" width="37.3" height="37.3"/>
				<rect x="1155.4" y="223.6" width="37.3" height="37.3"/>
				<rect x="1192.7" y="223.6" width="37.3" height="37.3"/>
				<rect x="1304.5" y="223.6" width="37.3" height="37.3"/>
				<rect x="1341.8" y="223.6" width="37.3" height="37.3"/>
				<rect x="1453.6" y="223.6" width="37.3" height="37.3"/>
				<rect x="1565.4" y="223.6" width="37.3" height="37.3"/>
				<rect x="1789" y="223.6" width="37.3" height="37.3"/>
				<rect x="1900.9" y="223.6" width="37.3" height="37.3"/>
				<rect x="1975.4" y="223.6" width="37.3" height="37.3"/>
				<rect x="2087.2" y="223.6" width="37.3" height="37.3"/>
				<rect x="2161.8" y="223.6" width="37.3" height="37.3"/>
				<rect x="2273.6" y="223.6" width="37.3" height="37.3"/>
				<rect x="2497.2" y="223.6" width="37.3" height="37.3"/>
				<rect x="2646.3" y="223.6" width="37.3" height="37.3"/>
				<rect x="2758.1" y="223.6" width="37.3" height="37.3"/>
				<rect x="2832.7" y="223.6" width="37.3" height="37.3"/>
				<rect x="2907.2" y="223.6" width="37.3" height="37.3"/>
				<rect x="2981.7" y="223.6" width="37.3" height="37.3"/>
				<rect x="3056.3" y="223.6" width="37.3" height="37.3"/>
				<rect x="3168.1" y="223.6" width="37.3" height="37.3"/>
				<rect x="3242.7" y="223.6" width="37.3" height="37.3"/>
				<rect x="3354.5" y="223.6" width="37.3" height="37.3"/>
				<rect x="3429" y="223.6" width="37.3" height="37.3"/>
				<rect x="3540.8" y="223.6" width="37.3" height="37.3"/>
				<rect x="3615.4" y="223.6" width="37.3" height="37.3"/>
				<rect x="3652.6" y="223.6" width="37.3" height="37.3"/>
				<rect x="3727.2" y="223.6" width="37.3" height="37.3"/>
				<rect x="3764.5" y="223.6" width="37.3" height="37.3"/>
			</g>
			<g>
				<rect x="857.3" y="260.9" width="37.3" height="37.3"/>
				<rect x="708.2" y="260.9" width="37.3" height="37.3"/>
				<rect x="969.1" y="260.9" width="37.3" height="37.3"/>
				<rect x="1267.2" y="260.9" width="37.3" height="37.3"/>
				<rect x="1379.1" y="260.9" width="37.3" height="37.3"/>
				<rect x="1453.6" y="260.9" width="37.3" height="37.3"/>
				<rect x="1565.4" y="260.9" width="37.3" height="37.3"/>
				<rect x="1789" y="260.9" width="37.3" height="37.3"/>
				<rect x="1900.9" y="260.9" width="37.3" height="37.3"/>
				<rect x="1975.4" y="260.9" width="37.3" height="37.3"/>
				<rect x="2087.2" y="260.9" width="37.3" height="37.3"/>
				<rect x="2161.8" y="260.9" width="37.3" height="37.3"/>
				<rect x="2273.6" y="260.9" width="37.3" height="37.3"/>
				<rect x="2497.2" y="260.9" width="37.3" height="37.3"/>
				<rect x="2646.3" y="260.9" width="37.3" height="37.3"/>
				<rect x="2758.1" y="260.9" width="37.3" height="37.3"/>
				<rect x="2832.7" y="260.9" width="37.3" height="37.3"/>
				<rect x="2907.2" y="260.9" width="37.3" height="37.3"/>
				<rect x="2981.7" y="260.9" width="37.3" height="37.3"/>
				<rect x="3056.3" y="260.9" width="37.3" height="37.3"/>
				<rect x="3168.1" y="260.9" width="37.3" height="37.3"/>
				<rect x="3242.7" y="260.9" width="37.3" height="37.3"/>
				<rect x="3354.5" y="260.9" width="37.3" height="37.3"/>
				<rect x="3429" y="260.9" width="37.3" height="37.3"/>
				<rect x="3540.8" y="260.9" width="37.3" height="37.3"/>
				<rect x="3578.1" y="260.9" width="37.3" height="37.3"/>
				<rect x="3727.2" y="260.9" width="37.3" height="37.3"/>
			</g>
			<g>
				<rect x="857.3" y="298.2" width="37.3" height="37.3"/>
				<rect x="820" y="298.2" width="37.3" height="37.3"/>
				<rect x="708.2" y="298.2" width="37.3" height="37.3"/>
				<rect x="894.5" y="298.2" width="37.3" height="37.3"/>
				<rect x="1006.3" y="298.2" width="37.3" height="37.3"/>
				<rect x="1043.6" y="298.2" width="37.3" height="37.3"/>
				<rect x="1304.5" y="298.2" width="37.3" height="37.3"/>
				<rect x="1341.8" y="298.2" width="37.3" height="37.3"/>
				<rect x="1490.9" y="298.2" width="37.3" height="37.3"/>
				<rect x="1528.1" y="298.2" width="37.3" height="37.3"/>
				<rect x="1826.3" y="298.2" width="37.3" height="37.3"/>
				<rect x="1900.9" y="298.2" width="37.3" height="37.3"/>
				<rect x="1975.4" y="298.2" width="37.3" height="37.3"/>
				<rect x="2087.2" y="298.2" width="37.3" height="37.3"/>
				<rect x="2199" y="298.2" width="37.3" height="37.3"/>
				<rect x="2236.3" y="298.2" width="37.3" height="37.3"/>
				<rect x="2273.6" y="298.2" width="37.3" height="37.3"/>
				<rect x="2534.5" y="298.2" width="37.3" height="37.3"/>
				<rect x="2571.8" y="298.2" width="37.3" height="37.3"/>
				<rect x="2683.6" y="298.2" width="37.3" height="37.3"/>
				<rect x="2720.8" y="298.2" width="37.3" height="37.3"/>
				<rect x="2832.7" y="298.2" width="37.3" height="37.3"/>
				<rect x="2907.2" y="298.2" width="37.3" height="37.3"/>
				<rect x="2981.7" y="298.2" width="37.3" height="37.3"/>
				<rect x="3056.3" y="298.2" width="37.3" height="37.3"/>
				<rect x="3093.6" y="298.2" width="37.3" height="37.3"/>
				<rect x="3130.8" y="298.2" width="37.3" height="37.3"/>
				<rect x="3279.9" y="298.2" width="37.3" height="37.3"/>
				<rect x="3317.2" y="298.2" width="37.3" height="37.3"/>
				<rect x="3354.5" y="298.2" width="37.3" height="37.3"/>
				<rect x="3466.3" y="298.2" width="37.3" height="37.3"/>
				<rect x="3578.1" y="298.2" width="37.3" height="37.3"/>
				<rect x="3615.4" y="298.2" width="37.3" height="37.3"/>
				<rect x="3727.2" y="298.2" width="37.3" height="37.3"/>
			</g>
			<g>
				<rect x="2273.6" y="335.4" width="37.3" height="37.3"/>
				<rect x="3056.3" y="335.4" width="37.3" height="37.3"/>
			</g>
			<g>
				<rect x="2199" y="372.7" width="37.3" height="37.3"/>
				<rect x="2236.3" y="372.7" width="37.3" height="37.3"/>
				<rect x="3056.3" y="372.7" width="37.3" height="37.3"/>
			</g>
		</g>
	</g>
</g>
<g id="Layer_2">
</g>
</svg>
