<?xml version="1.0" encoding="utf-8"?>
<!-- Generator: Adobe Illustrator 25.0.0, SVG Export Plug-In . SVG Version: 6.00 Build 0)  -->
<svg version="1.1" id="Layer_1" xmlns="http://www.w3.org/2000/svg" xmlns:xlink="http://www.w3.org/1999/xlink" x="0px" y="0px"
	 viewBox="0 0 3840 734.8" style="enable-background:new 0 0 3840 734.8;" xml:space="preserve">
<style type="text/css">
	.st0{fill:#0079D7;}
	.st1{fill:#FFFFFF;}
</style>
<g>
	<g>
		<path d="M1455.3,171.8l-115.1,407.4h-56l-83.8-297.8c-3.6-12.7-5.8-26.5-6.5-41.5h-1.1c-1.1,14-3.6,27.7-7.4,40.9L1101,579.2
			h-55.4L926.3,171.8h52.6l86.7,312.5c3.6,13.1,5.9,26.7,6.8,40.9h1.4c0.9-10.1,3.9-23.7,8.8-40.9l90.1-312.5h45.7l86.4,314.8
			c3,10.8,5.3,23.5,6.8,38.1h1.1c0.8-9.8,3.3-22.9,7.7-39.2l83.3-313.7H1455.3z"/>
		<path d="M1524.7,214.4c-8.3,0-15.4-2.8-21.3-8.5c-5.9-5.7-8.8-12.9-8.8-21.6c0-8.7,2.9-15.9,8.8-21.7s13-8.7,21.3-8.7
			c8.5,0,15.8,2.9,21.7,8.7c6,5.8,8.9,13,8.9,21.7c0,8.4-3,15.4-8.9,21.3C1540.5,211.4,1533.3,214.4,1524.7,214.4z M1547.5,579.2
			h-46.6v-291h46.6V579.2z"/>
		<path d="M1874.6,579.2H1828V413.3c0-61.8-22.5-92.6-67.6-92.6c-23.3,0-42.6,8.8-57.8,26.3c-15.2,17.5-22.9,39.6-22.9,66.3v165.9
			h-46.6v-291h46.6v48.3h1.1c22-36.8,53.8-55.1,95.5-55.1c31.8,0,56.2,10.3,73,30.8c16.9,20.6,25.3,50.2,25.3,89.1V579.2z"/>
		<path d="M2201.9,579.2h-46.6v-49.4h-1.1c-21.6,37.5-54.9,56.2-100,56.2c-36.6,0-65.8-13-87.7-39.1c-21.9-26-32.8-61.5-32.8-106.4
			c0-48.1,12.1-86.7,36.4-115.6c24.2-29,56.5-43.5,96.9-43.5c40,0,69.1,15.8,87.2,47.2h1.1V148.5h46.6V579.2z M2155.4,447.7v-42.9
			c0-23.5-7.8-43.3-23.3-59.6c-15.5-16.3-35.2-24.5-59.1-24.5c-28.4,0-50.8,10.5-67.1,31.3c-16.3,20.8-24.5,49.6-24.5,86.4
			c0,33.5,7.8,60,23.5,79.4c15.6,19.4,36.6,29.1,62.9,29.1c25.9,0,47-9.4,63.2-28.1C2147.3,500,2155.4,476.3,2155.4,447.7z"/>
		<path d="M2409.2,586c-43,0-77.3-13.6-103-40.8c-25.7-27.2-38.5-63.2-38.5-108.1c0-48.9,13.3-87,40.1-114.5
			c26.7-27.5,62.8-41.2,108.2-41.2c43.4,0,77.2,13.3,101.6,40.1c24.3,26.7,36.5,63.7,36.5,111.1c0,46.4-13.1,83.6-39.4,111.5
			C2488.5,572.1,2453.3,586,2409.2,586z M2412.6,320.6c-29.9,0-53.6,10.2-71,30.6c-17.4,20.3-26.1,48.5-26.1,84.2
			c0,34.5,8.8,61.7,26.4,81.6c17.6,19.9,41.2,29.8,70.8,29.8c30.1,0,53.3-9.7,69.5-29.3c16.2-19.5,24.3-47.3,24.3-83.2
			c0-36.4-8.1-64.4-24.3-84.1C2465.8,330.5,2442.7,320.6,2412.6,320.6z"/>
		<path d="M2986.3,288.3l-87.2,291h-48.3L2790.9,371c-2.3-8-3.8-17-4.6-27h-1.1c-0.6,6.8-2.6,15.6-6,26.4l-65.1,208.8h-46.6
			l-88.1-291h48.9l60.2,218.8c1.9,6.6,3.2,15.4,4,26.2h2.3c0.6-8.4,2.3-17.3,5.1-26.7l67.1-218.2h42.6l60.2,219.4
			c1.9,7,3.3,15.7,4.3,26.1h2.3c0.4-7.4,2-16.1,4.8-26.1l59.1-219.4H2986.3z"/>
		<path d="M3014,568.7v-50c25.4,18.7,53.3,28.1,83.8,28.1c40.9,0,61.4-13.6,61.4-40.9c0-7.8-1.8-14.4-5.3-19.8
			c-3.5-5.4-8.3-10.2-14.2-14.4c-6-4.1-13-7.9-21-11.2c-8.1-3.3-16.7-6.8-26-10.4c-12.9-5.1-24.2-10.3-34-15.5
			c-9.7-5.2-17.9-11.1-24.4-17.6c-6.5-6.5-11.5-14-14.8-22.3c-3.3-8.3-5-18.1-5-29.3c0-13.6,3.1-25.7,9.4-36.2
			c6.3-10.5,14.6-19.3,25-26.4c10.4-7.1,22.3-12.5,35.7-16c13.3-3.6,27.1-5.4,41.3-5.4c25.2,0,47.7,4.4,67.6,13.1v47.2
			c-21.4-14-46-21-73.9-21c-8.7,0-16.6,1-23.6,3c-7,2-13,4.8-18,8.4c-5,3.6-8.9,7.9-11.7,12.9c-2.7,5-4.1,10.6-4.1,16.6
			c0,7.6,1.4,13.9,4.1,19c2.8,5.1,6.8,9.7,12.1,13.6c5.3,4,11.7,7.6,19.3,10.8c7.6,3.2,16.2,6.7,25.9,10.5
			c12.9,4.9,24.4,10,34.7,15.2c10.2,5.2,18.9,11.1,26.1,17.6c7.2,6.5,12.7,14.1,16.6,22.6c3.9,8.5,5.8,18.7,5.8,30.4
			c0,14.4-3.2,26.9-9.5,37.5c-6.4,10.6-14.8,19.4-25.4,26.4c-10.6,7-22.8,12.2-36.7,15.6c-13.8,3.4-28.3,5.1-43.5,5.1
			C3061.9,586,3035.9,580.2,3014,568.7z"/>
		<path d="M3497.5,579.2h-46.6v-352c-3.6,3.6-8.9,7.7-15.8,12.3c-6.9,4.7-14.7,9.3-23.3,13.8c-8.6,4.5-17.7,8.8-27.3,12.8
			c-9.6,4-18.9,7.1-28,9.4v-47.2c10.2-2.8,21.1-6.7,32.5-11.5c11.5-4.9,22.7-10.2,33.8-16.2c11.1-6,21.5-12.2,31.4-18.8
			c9.8-6.5,18.4-12.9,25.6-19.2h17.6V579.2z"/>
		<path d="M3840,373.8c0,34.1-3.1,64.3-9.2,90.6c-6.2,26.3-15.1,48.5-26.7,66.7c-11.6,18.1-25.9,31.8-42.9,41.2
			c-17,9.3-36.2,14.1-57.8,14.1c-20.4,0-38.7-4.5-54.7-13.5c-16-9-29.5-22.1-40.5-39.3s-19.3-38.4-25-63.5
			c-5.7-25.1-8.5-53.8-8.5-86.2c0-35.6,3-67.1,9-94.3c6-27.3,14.7-50.1,26.3-68.6c11.5-18.5,25.9-32.4,43.1-41.8
			c17.1-9.3,36.8-14.1,58.9-14.1C3797.3,164.9,3840,234.6,3840,373.8z M3792.3,378.4c0-116-27.5-173.9-82.7-173.9
			c-58.2,0-87.2,59-87.2,177c0,110,28.5,165.1,85.5,165.1C3764.1,546.6,3792.3,490.5,3792.3,378.4z"/>
	</g>
	<g>
		<g>
			<polygon points="300.4,366.5 0,366.5 0,619.5 300.4,666.5 			"/>
			<polygon points="323.2,366.5 323.2,670 737.5,734.8 737.5,366.5 			"/>
		</g>
		<g>
			<polygon points="300.4,67.3 0,113.5 0,343.6 300.4,343.6 			"/>
			<polygon points="323.2,63.8 323.2,343.6 737.5,343.6 737.5,0 			"/>
		</g>
	</g>
</g>
</svg>
