<svg xmlns="http://www.w3.org/2000/svg" width="110" height="54.016" viewBox="0 0 110 54.016"><defs><style>.a{fill:#0f7a10;}.b{fill:#fff;}</style></defs><g transform="translate(-87.941 -88)"><rect class="a" width="110" height="54.016" transform="translate(87.941 88)"/><path class="b" d="M204.171,148.4l4.213-5.79a11.98,11.98,0,0,1-3.88-1.673,4.436,4.436,0,0,1-1.745-3.771,4.261,4.261,0,0,1,1.888-3.714,9.467,9.467,0,0,1,5.436-1.314h0c7.405,0,9.334,3.893,10.643,5.541l3.972-5.459a11.524,11.524,0,0,0-2.513-2.881q-4.148-3.428-12.217-3.428-7.1,0-11.1,3.114a10.053,10.053,0,0,0-4.005,8.37C194.863,142.949,197.965,146.455,204.171,148.4Zm20.418-.293q-2.784-2.479-8.625-3.883l-4.26,5.854a17.635,17.635,0,0,1,6.247,2.571,4.179,4.179,0,0,1,1.8,3.656,5.042,5.042,0,0,1-2.117,4.371,10.449,10.449,0,0,1-6.123,1.514h0c-6.158,0-9.061-2.041-12.026-7.354h0l-4.25,5.84a11.823,11.823,0,0,0,3.2,4.027q4.549,3.714,12.846,3.714,7.782,0,12.131-3.285a10.9,10.9,0,0,0,4.349-9.227A9.906,9.906,0,0,0,224.588,148.108Zm-36.614,19.4H186.2V126.826h1.771Zm-52.137-40.872a1.78,1.78,0,0,1,1.5.7,3.876,3.876,0,0,1-.07,4.037,2.136,2.136,0,0,1-1.725.746h-.01v-1.246h.009a1.19,1.19,0,0,0,1-.416,2,2,0,0,0,.3-1.2,1.677,1.677,0,0,0-.243-.981.81.81,0,0,0-.7-.337.67.67,0,0,0-.583.286,3.072,3.072,0,0,0-.359,1.052l-.111.553a3.124,3.124,0,0,1-.7,1.589,1.721,1.721,0,0,1-1.3.531,1.643,1.643,0,0,1-1.361-.649,2.864,2.864,0,0,1-.505-1.795,3.045,3.045,0,0,1,.556-1.975,2.025,2.025,0,0,1,1.559-.709h.01v1.227H133.1a1.092,1.092,0,0,0-.824.37,1.727,1.727,0,0,0-.266,1.068,1.52,1.52,0,0,0,.211.871.683.683,0,0,0,.593.3.712.712,0,0,0,.6-.277,2.643,2.643,0,0,0,.358-1l.111-.572a3.588,3.588,0,0,1,.69-1.669A1.62,1.62,0,0,1,135.838,126.633Zm-1.268,35.9a3.588,3.588,0,0,0-.69,1.669l-.111.572a2.643,2.643,0,0,1-.358,1,.712.712,0,0,1-.6.277.683.683,0,0,1-.593-.3,1.52,1.52,0,0,1-.211-.871,1.727,1.727,0,0,1,.266-1.068,1.091,1.091,0,0,1,.824-.37h.009V162.21h-.01a2.026,2.026,0,0,0-1.559.709,3.045,3.045,0,0,0-.556,1.975,2.864,2.864,0,0,0,.505,1.795,1.643,1.643,0,0,0,1.361.649,1.721,1.721,0,0,0,1.3-.531,3.124,3.124,0,0,0,.7-1.589l.111-.553a3.072,3.072,0,0,1,.359-1.052.67.67,0,0,1,.583-.286.81.81,0,0,1,.7.337,1.677,1.677,0,0,1,.243.981,2,2,0,0,1-.3,1.2,1.19,1.19,0,0,1-1,.416h-.009V167.5h.01a2.136,2.136,0,0,0,1.725-.746,3.876,3.876,0,0,0,.07-4.037,1.78,1.78,0,0,0-1.5-.7A1.62,1.62,0,0,0,134.57,162.532Zm3.153-16.046v1.305l0,0a1.612,1.612,0,0,1-.79.177l-.72.028a1.219,1.219,0,0,0-.829.269,1.089,1.089,0,0,0-.233.773v1.613h2.577v1.264h-6.6v-2.988a4.174,4.174,0,0,1,.021-.428c0,.043,0,.088,0,.136a2.57,2.57,0,0,1,.377-1.262l-.054.067a1.819,1.819,0,0,1,.157-.225,1.678,1.678,0,0,1,1.365-.612,1.535,1.535,0,0,1,1.57,1.077,1.257,1.257,0,0,1,.489-.693,1.794,1.794,0,0,1,.915-.237l.979-.055a1.427,1.427,0,0,0,.762-.2Zm-4.591,1.42a.879.879,0,0,0-.713.3,1.3,1.3,0,0,0-.247.847v1.6h1.976V149a1.168,1.168,0,0,0-.261-.81A.971.971,0,0,0,133.131,147.906Zm-2-4.067h6.6v-1.264h-6.6Zm1.137-9.187h-1.137v4.861h6.6v-4.861h-1.137v3.6H134.91v-3.255h-1.091v3.255h-1.555Zm0,19.971h-1.137v4.861h6.6v-4.861h-1.137v3.6H134.91v-3.255h-1.091v3.255h-1.555Zm8.323,12.88h8.754l6.65-9.139-4.377-6.016Zm38.354-40.678h-8.754l-5.441,7.477,4.377,6.015Zm-28.391,0H141.8L171.4,167.5h8.754Z" transform="translate(-36.506 -32.158)"/></g></svg>