<?xml version="1.0" encoding="UTF-8" standalone="no"?>
<!-- Created with Inkscape (http://www.inkscape.org/) -->
<svg
   xmlns:dc="http://purl.org/dc/elements/1.1/"
   xmlns:cc="http://creativecommons.org/ns#"
   xmlns:rdf="http://www.w3.org/1999/02/22-rdf-syntax-ns#"
   xmlns:svg="http://www.w3.org/2000/svg"
   xmlns="http://www.w3.org/2000/svg"
   xmlns:xlink="http://www.w3.org/1999/xlink"
   xmlns:sodipodi="http://sodipodi.sourceforge.net/DTD/sodipodi-0.dtd"
   xmlns:inkscape="http://www.inkscape.org/namespaces/inkscape"
   width="669.32703"
   height="362.91391"
   id="svg21087"
   sodipodi:version="0.32"
   inkscape:version="0.46"
   version="1.0"
   sodipodi:docname="am2 palmtree.svg"
   inkscape:output_extension="org.inkscape.output.svg.inkscape">
  <defs
     id="defs21089">
    <linearGradient
       id="linearGradient2846"
       spreadMethod="pad"
       gradientTransform="matrix(0,-132.58151,-252.05811,0,245.43253,464.16498)"
       gradientUnits="userSpaceOnUse"
       y2="0"
       x2="1"
       y1="0"
       x1="0">
      <stop
         id="stop2848"
         offset="0"
         style="stop-opacity:1;stop-color:#f7ed18" />
      <stop
         id="stop2850"
         offset="1"
         style="stop-opacity:1;stop-color:#ea194e" />
    </linearGradient>
    <linearGradient
       inkscape:collect="always"
       xlink:href="#linearGradient2846"
       id="linearGradient21085"
       gradientUnits="userSpaceOnUse"
       gradientTransform="matrix(0,-132.58151,-252.05811,0,245.43253,464.16498)"
       spreadMethod="pad"
       x1="0"
       y1="0"
       x2="1"
       y2="0" />
    <clipPath
       id="clipPath2830"
       clipPathUnits="userSpaceOnUse">
      <path
         id="path2832"
         d="M 240.17578,523.76563 C 234.8555,502.89261 228.5762,470.56454 228.2861,445.09769 C 228.07028,426.14359 227.1758,391.96481 228.377,373.96393 C 234.97659,372.86432 239.2764,368.9639 239.47659,364.76373 C 239.81931,357.5654 233.7764,356.06451 229.5762,354.41412 C 230.47659,334.16412 232.2764,319.16412 240.17578,302.16309 C 243.377,296.56354 243.4326,290.8848 236.97659,287.36331 C 228.17578,282.56354 227.7764,290.16309 216.17578,288.56354 C 212.8145,288.0986 204.1758,289.36334 198.1758,298.96292 C 190.209,311.71002 189.37599,331.76373 184.1758,353.76373 C 156.9727,353.76373 145.77541,340.96393 98.9751,345.7637 C 91.375,335.76373 86.2695,327.9834 73.375,309.7637 C 54.97458,283.76373 46.8555,271.17291 35.37399,264.56354 C 22.1738,256.96292 11.37399,258.56354 3.16409,259.51462 C -0.26462,259.91312 -4.62601,266.56354 -1.42578,270.96289 C 20.56641,301.20212 39.37399,321.7637 57.37451,345.7637 C 57.37451,345.7637 16.97412,340.16412 13.07419,353.86429 C 9.5303,366.31354 26.17429,368.16409 32.57419,375.7637 C 41.91022,386.85059 57.77441,380.16409 78.17477,380.56454 C 100.1748,407.76459 124.9751,435.76459 148.17529,461.36429 C 177.84419,494.10248 223.36229,549.19531 232.17578,548.56543 C 243.377,547.76563 242.7764,533.96484 240.17578,523.76563 z M 193.37601,464.16501 C 167.77539,436.16412 142.97559,407.36432 120.17529,378.16412 C 141.3755,378.96393 154.17529,374.16409 182.5757,375.36432 C 183.356,406.08502 186.9756,434.56454 193.37601,464.16501" />
    </clipPath>
    <linearGradient
       id="linearGradient2818"
       spreadMethod="pad"
       gradientTransform="matrix(0,-132.58191,-154.00117,0,398.97739,464.16498)"
       gradientUnits="userSpaceOnUse"
       y2="0"
       x2="1"
       y1="0"
       x1="0">
      <stop
         id="stop2820"
         offset="0"
         style="stop-opacity:1;stop-color:#f7ed18" />
      <stop
         id="stop2822"
         offset="1"
         style="stop-opacity:1;stop-color:#ea194e" />
    </linearGradient>
    <linearGradient
       inkscape:collect="always"
       xlink:href="#linearGradient2818"
       id="linearGradient21083"
       gradientUnits="userSpaceOnUse"
       gradientTransform="matrix(0,-132.58191,-154.00117,0,398.97739,464.16498)"
       spreadMethod="pad"
       x1="0"
       y1="0"
       x2="1"
       y2="0" />
    <clipPath
       id="clipPath2802"
       clipPathUnits="userSpaceOnUse">
      <path
         id="path2804"
         d="M 347.47751,446.36429 C 348.88379,443.55179 348.5166,440.05472 350.1777,437.06451 C 351.6777,434.36429 344.39261,415.80862 342.07709,407.06451 C 339.37701,396.86432 335.37701,382.56454 335.37701,382.56454 C 335.37701,382.56458 350.34769,402.49023 357.07709,410.96481 C 365.1777,421.16412 379.2402,435.36819 384.97751,434.36429 C 396.97751,432.26462 386.02728,406.63669 383.4473,394.63669 C 380.50781,387.13669 373.35159,370.1152 377.7402,369.60162 C 383.1777,368.9639 384.35349,377.28421 387.8652,374.13873 C 393.97751,368.66412 374.06741,353.1377 370.57709,355.4639 C 367.4277,357.56451 363.07709,352.16412 358.87701,357.86432 C 355.1748,362.88962 356.12701,369.91412 362.9277,385.91412 C 369.72751,401.91409 374.57709,417.36432 374.57709,417.36432 C 374.57709,417.36435 364.99121,407.08405 353.77728,390.96484 C 340.97751,372.56451 333.37701,361.76373 324.97659,359.76373 C 320.65631,358.73541 316.1777,365.76373 316.1777,365.76373 C 316.1777,365.76376 318.57709,382.56454 321.37701,393.76459 C 324.1777,404.96481 327.37701,416.96481 330.97751,426.56451 C 301.37701,394.16412 274.17676,350.56354 261.37701,330.56354 C 256.97656,329.36331 253.37698,328.56351 248.5762,328.16412 C 246.97659,343.36429 252.17578,337.76373 256.17581,344.9639 C 262.64258,356.60254 320.97659,433.56454 336.97751,446.36429 C 342.6084,450.86914 345.6777,449.96481 347.47751,446.36429" />
    </clipPath>
    <linearGradient
       id="linearGradient2790"
       spreadMethod="pad"
       gradientTransform="matrix(0,-132.58151,-184.9021,0,581.67979,464.16498)"
       gradientUnits="userSpaceOnUse"
       y2="0"
       x2="1"
       y1="0"
       x1="0">
      <stop
         id="stop2792"
         offset="0"
         style="stop-opacity:1;stop-color:#f7ed18" />
      <stop
         id="stop2794"
         offset="1"
         style="stop-opacity:1;stop-color:#ea194e" />
    </linearGradient>
    <linearGradient
       inkscape:collect="always"
       xlink:href="#linearGradient2790"
       id="linearGradient21081"
       gradientUnits="userSpaceOnUse"
       gradientTransform="matrix(0,-132.58151,-184.9021,0,581.67979,464.16498)"
       spreadMethod="pad"
       x1="0"
       y1="0"
       x2="1"
       y2="0" />
    <clipPath
       id="clipPath2774"
       clipPathUnits="userSpaceOnUse">
      <path
         id="path2776"
         d="M 476.17871,458.36429 C 478.87891,437.36429 470.47845,426.26462 457.27829,406.76462 C 450.08109,396.13089 431.17871,377.36432 431.17871,377.36432 C 431.17871,377.36435 470.4668,394.20212 500.17871,403.76462 C 526.2793,412.16412 562.5791,419.07129 566.78027,419.36429 C 579.67969,420.26462 578.47949,416.06451 567.97949,411.56451 C 561.61432,408.83594 518.17871,391.76462 486.37891,378.86432 C 451.36816,364.6611 415.57809,344.66412 408.97751,347.06354 C 403.79391,348.94821 399.07809,355.16412 398.77728,362.06451 C 402.67871,372.26373 416.77829,379.76462 441.67871,409.46481 C 458.36127,429.36331 459.34381,452.60059 438.0791,449.36429 C 424.27829,447.26462 415.87787,431.36429 411.37787,429.56451 C 406.2959,427.53131 401.13959,431.7002 401.77728,436.16412 C 402.37787,440.36429 411.37787,446.66412 414.67871,454.46481 C 417.74707,461.71783 428.47845,476.36429 450.0791,476.66504 C 465.97659,476.88571 474.793,469.14655 476.17871,458.36429" />
    </clipPath>
    <linearGradient
       id="linearGradient2688"
       spreadMethod="pad"
       gradientTransform="matrix(696.38026,0,0,-185.7968,-47.42628,416.55968)"
       gradientUnits="userSpaceOnUse"
       y2="0"
       x2="1"
       y1="0"
       x1="0">
      <stop
         id="stop2690"
         offset="0"
         style="stop-opacity:1;stop-color:#236ebc" />
      <stop
         id="stop2692"
         offset="1"
         style="stop-opacity:1;stop-color:#ffffff" />
    </linearGradient>
    <linearGradient
       inkscape:collect="always"
       xlink:href="#linearGradient2688"
       id="linearGradient21079"
       gradientUnits="userSpaceOnUse"
       gradientTransform="matrix(696.38026,0,0,-185.7968,-47.42628,416.55968)"
       spreadMethod="pad"
       x1="0"
       y1="0"
       x2="1"
       y2="0" />
    <clipPath
       id="clipPath2672"
       clipPathUnits="userSpaceOnUse">
      <path
         id="path2674"
         d="M 179.1758,383.06451 C 253.877,394.76462 288.0762,398.36432 428.47845,406.46481 C 568.78809,414.55963 630.98053,396.56451 639.98053,394.76462 C 648.98053,392.96481 652.58112,388.16412 645.65039,386.71683 C 620.78918,381.52341 496.87888,373.16412 396.97751,350.66412 C 360.45801,342.43851 260.17679,321.86331 192.6758,304.76373 C 114.59279,284.9834 27.07422,249.86232 13.57422,244.46191 C 0.07422,239.06252 -11.62601,232.76271 -15.7363,239.47562 C -24.9277,254.4863 -50.32669,284.06354 -47.4263,321.7637 C -46.93311,328.18259 -3.75342,339.6553 14.47409,345.26373 C 61.27438,359.66412 104.47508,371.36432 179.1758,383.06451" />
    </clipPath>
    <clipPath
       id="clipPath2650"
       clipPathUnits="userSpaceOnUse">
      <path
         id="path2652"
         d="M -53.8018,219.2251 L -53.8018,609.20563 L 656.7666,609.20563 L 656.7666,219.2251 L -53.8018,219.2251 z" />
    </clipPath>
    <inkscape:perspective
       sodipodi:type="inkscape:persp3d"
       inkscape:vp_x="0 : 526.18109 : 1"
       inkscape:vp_y="0 : 1000 : 0"
       inkscape:vp_z="744.09448 : 526.18109 : 1"
       inkscape:persp3d-origin="372.04724 : 350.78739 : 1"
       id="perspective21095" />
    <linearGradient
       inkscape:collect="always"
       xlink:href="#linearGradient2688"
       id="linearGradient21271"
       gradientUnits="userSpaceOnUse"
       gradientTransform="matrix(696.38026,0,0,-185.7968,-47.42628,416.55968)"
       spreadMethod="pad"
       x1="0"
       y1="0"
       x2="1"
       y2="0" />
    <linearGradient
       inkscape:collect="always"
       xlink:href="#linearGradient2790"
       id="linearGradient21273"
       gradientUnits="userSpaceOnUse"
       gradientTransform="matrix(0,-132.58151,-184.9021,0,581.67979,464.16498)"
       spreadMethod="pad"
       x1="0"
       y1="0"
       x2="1"
       y2="0" />
    <linearGradient
       inkscape:collect="always"
       xlink:href="#linearGradient2818"
       id="linearGradient21275"
       gradientUnits="userSpaceOnUse"
       gradientTransform="matrix(0,-132.58191,-154.00117,0,398.97739,464.16498)"
       spreadMethod="pad"
       x1="0"
       y1="0"
       x2="1"
       y2="0" />
    <linearGradient
       inkscape:collect="always"
       xlink:href="#linearGradient2846"
       id="linearGradient21277"
       gradientUnits="userSpaceOnUse"
       gradientTransform="matrix(0,-132.58151,-252.05811,0,245.43253,464.16498)"
       spreadMethod="pad"
       x1="0"
       y1="0"
       x2="1"
       y2="0" />
    <linearGradient
       inkscape:collect="always"
       xlink:href="#linearGradient2688"
       id="linearGradient21352"
       gradientUnits="userSpaceOnUse"
       gradientTransform="matrix(696.38026,0,0,-185.7968,-47.42628,416.55968)"
       spreadMethod="pad"
       x1="0"
       y1="0"
       x2="1"
       y2="0" />
    <linearGradient
       inkscape:collect="always"
       xlink:href="#linearGradient2790"
       id="linearGradient21354"
       gradientUnits="userSpaceOnUse"
       gradientTransform="matrix(0,-132.58151,-184.9021,0,581.67979,464.16498)"
       spreadMethod="pad"
       x1="0"
       y1="0"
       x2="1"
       y2="0" />
    <linearGradient
       inkscape:collect="always"
       xlink:href="#linearGradient2818"
       id="linearGradient21356"
       gradientUnits="userSpaceOnUse"
       gradientTransform="matrix(0,-132.58191,-154.00117,0,398.97739,464.16498)"
       spreadMethod="pad"
       x1="0"
       y1="0"
       x2="1"
       y2="0" />
    <linearGradient
       inkscape:collect="always"
       xlink:href="#linearGradient2846"
       id="linearGradient21358"
       gradientUnits="userSpaceOnUse"
       gradientTransform="matrix(0,-132.58151,-252.05811,0,245.43253,464.16498)"
       spreadMethod="pad"
       x1="0"
       y1="0"
       x2="1"
       y2="0" />
    <linearGradient
       inkscape:collect="always"
       xlink:href="#linearGradient2688"
       id="linearGradient21432"
       gradientUnits="userSpaceOnUse"
       gradientTransform="matrix(696.38026,0,0,-185.7968,-47.42628,416.55968)"
       spreadMethod="pad"
       x1="0"
       y1="0"
       x2="1"
       y2="0" />
    <linearGradient
       inkscape:collect="always"
       xlink:href="#linearGradient2790"
       id="linearGradient21434"
       gradientUnits="userSpaceOnUse"
       gradientTransform="matrix(0,-132.58151,-184.9021,0,581.67979,464.16498)"
       spreadMethod="pad"
       x1="0"
       y1="0"
       x2="1"
       y2="0" />
    <linearGradient
       inkscape:collect="always"
       xlink:href="#linearGradient2818"
       id="linearGradient21436"
       gradientUnits="userSpaceOnUse"
       gradientTransform="matrix(0,-132.58191,-154.00117,0,398.97739,464.16498)"
       spreadMethod="pad"
       x1="0"
       y1="0"
       x2="1"
       y2="0" />
    <linearGradient
       inkscape:collect="always"
       xlink:href="#linearGradient2846"
       id="linearGradient21438"
       gradientUnits="userSpaceOnUse"
       gradientTransform="matrix(0,-132.58151,-252.05811,0,245.43253,464.16498)"
       spreadMethod="pad"
       x1="0"
       y1="0"
       x2="1"
       y2="0" />
    <linearGradient
       inkscape:collect="always"
       xlink:href="#linearGradient2818"
       id="linearGradient21515"
       gradientUnits="userSpaceOnUse"
       gradientTransform="matrix(0,-132.58191,-154.00117,0,398.97739,464.16498)"
       spreadMethod="pad"
       x1="0"
       y1="0"
       x2="1"
       y2="0" />
    <linearGradient
       inkscape:collect="always"
       xlink:href="#linearGradient2846"
       id="linearGradient21530"
       gradientUnits="userSpaceOnUse"
       gradientTransform="matrix(0,-132.58151,-252.05811,0,245.43253,464.16498)"
       spreadMethod="pad"
       x1="0"
       y1="0"
       x2="1"
       y2="0" />
    <linearGradient
       inkscape:collect="always"
       xlink:href="#linearGradient2790"
       id="linearGradient21545"
       gradientUnits="userSpaceOnUse"
       gradientTransform="matrix(0,-132.58151,-184.9021,0,581.67979,464.16498)"
       spreadMethod="pad"
       x1="0"
       y1="0"
       x2="1"
       y2="0" />
    <linearGradient
       inkscape:collect="always"
       xlink:href="#linearGradient2790"
       id="linearGradient21560"
       gradientUnits="userSpaceOnUse"
       gradientTransform="matrix(0,-132.58151,-184.9021,0,581.67979,464.16498)"
       spreadMethod="pad"
       x1="0"
       y1="0"
       x2="1"
       y2="0" />
    <linearGradient
       inkscape:collect="always"
       xlink:href="#linearGradient2790"
       id="linearGradient21566"
       gradientUnits="userSpaceOnUse"
       gradientTransform="matrix(0,-132.58151,-184.9021,0,581.67979,464.16498)"
       spreadMethod="pad"
       x1="0"
       y1="0"
       x2="1"
       y2="0" />
    <linearGradient
       inkscape:collect="always"
       xlink:href="#linearGradient2790"
       id="linearGradient21571"
       gradientUnits="userSpaceOnUse"
       gradientTransform="matrix(0,-132.58151,-184.9021,0,581.67979,464.16498)"
       spreadMethod="pad"
       x1="0"
       y1="0"
       x2="1"
       y2="0" />
    <linearGradient
       inkscape:collect="always"
       xlink:href="#linearGradient2790"
       id="linearGradient21575"
       gradientUnits="userSpaceOnUse"
       gradientTransform="matrix(0,-132.58151,-184.9021,0,581.67979,464.16498)"
       spreadMethod="pad"
       x1="0"
       y1="0"
       x2="1"
       y2="0" />
    <linearGradient
       inkscape:collect="always"
       xlink:href="#linearGradient2790"
       id="linearGradient21578"
       gradientUnits="userSpaceOnUse"
       gradientTransform="matrix(0,-132.58151,-184.9021,0,581.67979,464.16498)"
       spreadMethod="pad"
       x1="0"
       y1="0"
       x2="1"
       y2="0" />
    <linearGradient
       inkscape:collect="always"
       xlink:href="#linearGradient2818"
       id="linearGradient21580"
       gradientUnits="userSpaceOnUse"
       gradientTransform="matrix(0,-132.58191,-154.00117,0,398.97739,464.16498)"
       spreadMethod="pad"
       x1="0"
       y1="0"
       x2="1"
       y2="0" />
    <linearGradient
       inkscape:collect="always"
       xlink:href="#linearGradient2818"
       id="linearGradient21586"
       gradientUnits="userSpaceOnUse"
       gradientTransform="matrix(0,-132.58191,-154.00117,0,398.97739,464.16498)"
       spreadMethod="pad"
       x1="0"
       y1="0"
       x2="1"
       y2="0" />
    <linearGradient
       inkscape:collect="always"
       xlink:href="#linearGradient2818"
       id="linearGradient21591"
       gradientUnits="userSpaceOnUse"
       gradientTransform="matrix(0,-132.58191,-154.00117,0,398.97739,464.16498)"
       spreadMethod="pad"
       x1="0"
       y1="0"
       x2="1"
       y2="0" />
    <linearGradient
       inkscape:collect="always"
       xlink:href="#linearGradient2818"
       id="linearGradient21595"
       gradientUnits="userSpaceOnUse"
       gradientTransform="matrix(0,-132.58191,-154.00117,0,398.97739,464.16498)"
       spreadMethod="pad"
       x1="0"
       y1="0"
       x2="1"
       y2="0" />
    <linearGradient
       inkscape:collect="always"
       xlink:href="#linearGradient2818"
       id="linearGradient21598"
       gradientUnits="userSpaceOnUse"
       gradientTransform="matrix(0,-132.58191,-154.00117,0,398.97739,464.16498)"
       spreadMethod="pad"
       x1="0"
       y1="0"
       x2="1"
       y2="0" />
    <linearGradient
       inkscape:collect="always"
       xlink:href="#linearGradient2846"
       id="linearGradient21600"
       gradientUnits="userSpaceOnUse"
       gradientTransform="matrix(0,-132.58151,-252.05811,0,245.43253,464.16498)"
       spreadMethod="pad"
       x1="0"
       y1="0"
       x2="1"
       y2="0" />
    <linearGradient
       inkscape:collect="always"
       xlink:href="#linearGradient2846"
       id="linearGradient21606"
       gradientUnits="userSpaceOnUse"
       gradientTransform="matrix(0,-132.58151,-252.05811,0,245.43253,464.16498)"
       spreadMethod="pad"
       x1="0"
       y1="0"
       x2="1"
       y2="0" />
    <linearGradient
       inkscape:collect="always"
       xlink:href="#linearGradient2846"
       id="linearGradient21611"
       gradientUnits="userSpaceOnUse"
       gradientTransform="matrix(0,-132.58151,-252.05811,0,245.43253,464.16498)"
       spreadMethod="pad"
       x1="0"
       y1="0"
       x2="1"
       y2="0" />
    <linearGradient
       inkscape:collect="always"
       xlink:href="#linearGradient2846"
       id="linearGradient21615"
       gradientUnits="userSpaceOnUse"
       gradientTransform="matrix(0,-132.58151,-252.05811,0,245.43253,464.16498)"
       spreadMethod="pad"
       x1="0"
       y1="0"
       x2="1"
       y2="0" />
    <linearGradient
       inkscape:collect="always"
       xlink:href="#linearGradient2846"
       id="linearGradient21618"
       gradientUnits="userSpaceOnUse"
       gradientTransform="matrix(0,-132.58151,-252.05811,0,245.43253,464.16498)"
       spreadMethod="pad"
       x1="0"
       y1="0"
       x2="1"
       y2="0" />
    <linearGradient
       inkscape:collect="always"
       xlink:href="#linearGradient2688"
       id="linearGradient21624"
       gradientUnits="userSpaceOnUse"
       gradientTransform="matrix(696.38026,0,0,-185.7968,-47.42628,416.55968)"
       spreadMethod="pad"
       x1="0"
       y1="0"
       x2="1"
       y2="0" />
    <linearGradient
       inkscape:collect="always"
       xlink:href="#linearGradient2688"
       id="linearGradient21639"
       gradientUnits="userSpaceOnUse"
       gradientTransform="matrix(696.38026,0,0,-185.7968,-47.42628,416.55968)"
       spreadMethod="pad"
       x1="0"
       y1="0"
       x2="1"
       y2="0" />
    <linearGradient
       inkscape:collect="always"
       xlink:href="#linearGradient2688"
       id="linearGradient21645"
       gradientUnits="userSpaceOnUse"
       gradientTransform="matrix(696.38026,0,0,-185.7968,-47.42628,416.55968)"
       spreadMethod="pad"
       x1="0"
       y1="0"
       x2="1"
       y2="0" />
    <linearGradient
       inkscape:collect="always"
       xlink:href="#linearGradient2688"
       id="linearGradient21650"
       gradientUnits="userSpaceOnUse"
       gradientTransform="matrix(696.38026,0,0,-185.7968,-47.42628,416.55968)"
       spreadMethod="pad"
       x1="0"
       y1="0"
       x2="1"
       y2="0" />
    <linearGradient
       inkscape:collect="always"
       xlink:href="#linearGradient2688"
       id="linearGradient21654"
       gradientUnits="userSpaceOnUse"
       gradientTransform="matrix(696.38026,0,0,-185.7968,-47.42628,416.55968)"
       spreadMethod="pad"
       x1="0"
       y1="0"
       x2="1"
       y2="0" />
    <linearGradient
       inkscape:collect="always"
       xlink:href="#linearGradient2688"
       id="linearGradient21657"
       gradientUnits="userSpaceOnUse"
       gradientTransform="matrix(696.38026,0,0,-185.7968,-47.42628,416.55968)"
       spreadMethod="pad"
       x1="0"
       y1="0"
       x2="1"
       y2="0" />
  </defs>
  <sodipodi:namedview
     id="base"
     pagecolor="#ffffff"
     bordercolor="#666666"
     borderopacity="1.0"
     gridtolerance="10000"
     guidetolerance="10"
     objecttolerance="10"
     inkscape:pageopacity="0.0"
     inkscape:pageshadow="2"
     inkscape:zoom="1.4989781"
     inkscape:cx="334.66351"
     inkscape:cy="181.45695"
     inkscape:document-units="px"
     inkscape:current-layer="svg21087"
     showgrid="false"
     inkscape:window-width="1280"
     inkscape:window-height="751"
     inkscape:window-x="-8"
     inkscape:window-y="-8" />
  <metadata
     id="metadata21092">
    <rdf:RDF>
      <cc:Work
         rdf:about="">
        <dc:format>image/svg+xml</dc:format>
        <dc:type
           rdf:resource="http://purl.org/dc/dcmitype/StillImage" />
      </cc:Work>
    </rdf:RDF>
  </metadata>
  <path
     d="M 385.26367,0.62105337 C 366.00585,2.9058764 362.61779,13.818862 361.99283,21.713934 C 352.42747,16.349404 342.19169,15.836585 331.4733,20.250638 C 323.67151,23.462989 318.88611,30.388166 318.8017,38.265957 C 306.73282,47.286924 299.76187,56.982674 294.39496,72.257036 C 292.618,77.314587 291.76259,82.667979 291.76259,88.005212 C 291.76259,100.36718 296.35196,112.64279 304.70956,120.95549 L 309.42595,125.64637 L 314.36719,106.25371 L 313.66762,104.95142 C 312.82105,103.37502 312.19323,101.99212 311.70367,100.75699 C 311.70654,100.75928 315.38857,103.59198 315.38857,103.59198 L 324.71328,85.764075 L 324.15046,84.196069 C 323.72993,83.024038 323.44944,81.967455 323.22279,80.968412 C 323.73743,81.336472 327.25765,83.850208 327.25765,83.850208 L 329.51773,81.895655 C 330.29943,81.21958 331.07601,80.627137 331.84046,80.093571 C 329.13252,85.958331 326.54733,93.968727 326.54733,103.25458 C 326.54733,104.36118 326.58445,105.48595 326.66185,106.62683 C 327.89275,124.7316 338.58334,136.2131 348.50712,138.19782 L 352.89566,139.07544 L 353.478,121.88125 L 352.47012,120.74677 C 351.5512,119.71383 350.87705,118.48902 350.3671,117.24235 C 351.79417,118.03096 353.67274,119.06897 353.67274,119.06897 L 355.35104,107.218 L 354.14471,105.89669 C 353.29817,104.96893 352.65459,103.51366 352.17521,101.90445 C 352.17616,101.90494 355.42986,103.81409 355.42986,103.81409 L 363.91126,90.186996 L 363.60524,88.702023 C 363.43092,87.855923 363.35677,87.058504 363.2548,86.245314 C 363.25573,86.246187 365.15746,88.093761 365.15746,88.093761 L 367.50433,87.05143 C 367.74349,86.944917 368.08845,86.810868 368.36474,86.694622 C 368.11723,87.324618 367.82515,87.942156 367.63594,88.585654 C 367.15937,90.202815 366.9257,91.875958 366.9257,93.552367 C 366.9257,96.825048 367.8186,100.10986 369.55256,103.01718 C 372.28139,107.59075 376.76185,110.74098 382.17042,111.88797 C 391.07735,113.77723 398.16335,109.58709 401.61084,100.39114 C 402.13191,99.002636 402.47122,97.511168 402.70029,95.97384 C 416.96671,116.24232 433.94625,145.71123 438.59546,166.6306 C 441.66923,180.46453 442.56676,201.64074 442.56676,221.66527 C 442.56676,243.80955 441.47076,264.49621 441.00164,272.33592 C 390.44504,274.37127 344.76291,284.08869 305.24133,301.34551 L 288.57239,308.62425 L 553.14433,308.62425 L 544.56839,301.84616 C 529.58509,290.00533 504.6128,275.63133 481.93905,272.55481 C 480.72811,256.93083 474.76598,188.32279 461.04384,152.30156 C 457.00576,141.70276 451.73165,129.58797 443.93359,116.84874 C 443.94658,116.83013 448.41214,110.69093 448.41214,110.69093 C 453.18645,104.12569 454.87309,97.02484 454.87309,89.167064 C 454.87309,82.714751 453.72697,75.732661 452.22861,68.136802 C 453.79839,69.167948 455.34132,70.213345 456.49949,71.070174 L 459.40444,73.217188 C 459.40444,73.217188 462.08791,69.94312 462.17878,69.832315 C 462.18437,69.965832 462.21495,70.098428 462.21495,70.231955 C 462.21495,70.715853 462.18064,71.194832 462.10367,71.658041 L 461.83382,73.278905 L 476.45079,92.443857 L 478.57695,85.275372 C 480.1208,80.068999 480.8895,75.09148 480.8895,70.411257 C 480.8895,62.480256 478.68356,55.402201 474.31259,49.509622 C 466.92895,39.558991 457.41928,34.679878 447.30589,29.784538 C 443.56545,17.323352 432.82067,10.205077 417.80592,10.362189 C 416.98157,8.353392 415.68065,6.5099866 413.86333,5.0254788 C 408.32951,0.50752292 398.70755,-0.97431686 385.26367,0.62105337 z M 420.17124,78.963736 C 420.17124,78.963669 420.91491,78.056432 421.20983,77.697592 C 421.21628,77.882979 421.24779,78.066516 421.24779,78.251153 C 421.24779,78.943331 421.19956,79.626707 421.0883,80.276642 L 420.76289,82.161189 L 428.42558,90.189284 C 428.42558,90.189284 432.32451,87.197177 432.96062,86.708931 C 432.74649,87.872093 432.44691,89.004768 431.9741,89.952406 L 430.85299,92.192603 L 438.14758,100.81219 C 438.14758,100.81219 438.95341,100.07964 439.74435,99.360574 C 439.66825,100.171 439.60059,100.95866 439.55605,101.66939 L 439.51343,102.35508 C 439.51343,102.35508 443.89094,116.73929 443.91507,116.81808 C 436.4424,104.61661 426.6054,91.845735 413.24388,79.251175 C 414.22394,79.513063 415.1067,79.789839 415.80496,80.073575 L 418.39659,81.126046 L 420.17124,78.963736 z"
     style="fill:#231f20;fill-opacity:1;fill-rule:nonzero;stroke:none"
     id="path2656" />
  <path
     d="M 390.6731,74.666916 C 403.8334,88.225835 435.46506,135.04382 442.30253,165.80679 C 449.86695,199.85017 444.58071,275.94846 444.58071,275.94846 L 461.98139,281.28543 L 478.38316,275.94846 C 478.38316,275.94846 472.68622,193.53212 457.49439,153.65356 C 449.78535,133.42029 436.22542,103.14054 402.44617,74.666916 C 392.93326,64.886947 391.43905,69.139705 390.6731,74.666916 z"
     style="fill:#a28f48;fill-opacity:1;fill-rule:nonzero;stroke:none"
     id="path2658"
     sodipodi:nodetypes="cccccccc" />
  <path
     d="M 414.95649,14.267705 C 425.21172,13.507316 440.40358,16.166627 444.20153,32.498093 C 455.21519,37.814855 464.23168,42.297119 471.26199,51.77254 C 479.99652,63.546637 476.86434,77.693414 474.93575,84.195138 L 465.84965,72.282074 C 466.70364,67.154517 463.94152,61.69199 463.94152,61.69199 C 463.94152,61.69199 460.43741,66.014883 458.75728,68.015856 C 454.8258,65.109839 446.87841,60.203893 446.76436,60.317946 C 451.03706,81.112193 454.45577,95.923831 445.34012,108.45725 L 443.34659,101.90638 C 443.63125,97.34891 444.77083,89.657599 444.77083,89.657599 L 438.5046,95.354536 L 435.37048,91.651128 C 437.93431,86.524416 436.98483,78.832934 436.98483,78.832934 L 428.81866,85.100182 L 424.83059,80.922058 C 425.78011,75.415256 423.31178,69.148008 423.31178,69.148008 L 417.2347,76.554777 C 411.1585,74.085544 401.85276,73.516277 390.07967,75.794435 C 383.88206,76.994162 371.08902,81.302281 365.96227,83.580439 L 359.31584,77.124157 C 359.31584,77.124157 358.55644,83.011115 359.88525,89.467492 L 354.16048,98.665643 L 347.26644,94.620049 C 347.26644,94.620049 347.35265,104.08997 351.33985,108.45725 L 350.68516,113.07865 L 345.0735,109.97704 C 345.0735,109.97704 345.0735,118.14223 349.63084,123.26987 L 349.25163,134.47364 C 340.70622,132.76479 331.52665,122.18585 330.45108,106.36903 C 329.12139,86.80913 340.89546,72.186565 340.89546,72.186565 C 340.89546,72.186565 334.05979,72.945966 327.0332,79.023136 L 319.0572,73.326199 C 319.0572,73.326199 317.91758,78.073589 320.57599,85.479418 L 314.11965,97.823626 L 306.71384,92.125844 C 306.71384,92.125844 304.81486,96.494085 310.32169,106.74841 L 307.38788,118.26274 C 296.67736,107.60973 292.38978,89.420198 297.9783,73.516277 C 302.91588,59.463035 309.37217,49.588904 322.66506,40.094066 C 321.90567,32.498093 326.46298,26.420981 332.91935,23.7626 C 347.26737,17.85425 357.98627,22.623023 365.58219,28.700192 C 365.96227,21.863621 363.30389,7.0509678 385.71141,4.3926441 C 409.99398,1.511722 414.57632,9.709415 414.95649,14.267705 z"
     style="fill:#16a252;fill-opacity:1;fill-rule:nonzero;stroke:none"
     id="path2660" />
  <path
     d="M 542.21315,304.82633 L 306.76111,304.82633 C 351.1506,285.44333 398.62508,277.46818 444.58071,275.94846 L 478.38316,275.94846 C 500.03226,277.84741 525.8576,291.90063 542.21315,304.82633 z"
     style="fill:#bfb07b;fill-opacity:1;fill-rule:nonzero;stroke:none"
     id="path2662" />
  <path
     d="M 392.0732,75.699923 C 396.63057,77.693414 401.47355,89.942208 398.05481,99.057915 C 396.04276,104.42467 391.77006,110.04189 382.9585,108.17264 C 373.55819,106.17909 369.06767,97.175543 371.27913,89.657599 C 374.1276,79.972625 384.97437,72.59362 392.0732,75.699923 z"
     style="fill:#eb1758;fill-opacity:1;fill-rule:nonzero;stroke:none"
     id="path2664" />
  <path
     d="M 455.66119,185.27781 C 320.07476,193.10043 287.7514,196.70179 218.58183,207.53518 C 150.66372,218.17333 109.61729,228.79577 61.670445,243.549 L 51.529242,246.57181 C 10.771142,258.56746 0.70229039,263.00892 0.22658666,269.201 C -2.1952952,300.68246 15.364203,326.55702 25.855872,342.01592 C 27.830449,344.92554 29.535637,347.43837 30.863878,349.60718 C 35.904794,357.84011 46.63338,353.36062 57.992512,348.61782 L 63.343151,346.41566 L 63.709844,346.26917 C 92.570527,334.72221 166.83334,306.05674 232.92064,289.31553 C 279.28564,277.5693 341.10035,264.28016 386.23539,254.5766 C 402.86817,251.00116 417.23288,247.91256 426.8047,245.75677 C 491.4748,231.19169 566.18776,222.9523 615.62698,217.50012 C 638.61223,214.96512 655.22013,213.13288 662.85951,211.53707 C 668.71494,210.31497 669.33347,206.80266 669.32698,205.34963 C 669.30936,201.26429 664.86698,197.93879 657.44341,196.45425 L 654.58758,195.8084 C 592.05491,181.22669 511.89526,182.03338 455.66119,185.27781 z"
     style="fill:#231f20;fill-opacity:1;fill-rule:nonzero;stroke:none"
     id="path2666" />
  <g
     clip-path="url(#clipPath2672)"
     id="g2670"
     transform="matrix(0.9494895,0,0,-0.9494895,49.044219,575.00338)">
    <path
       id="path2694"
       style="fill:url(#linearGradient21657);stroke:none"
       d="M -50.32669,232.76271 L -50.32669,414.55963 L 652.58112,414.55963 L 652.58112,232.76271 L -50.32669,232.76271 z" />
  </g>
  <path
     style="fill:#231f20;fill-opacity:1;fill-rule:nonzero;stroke:none"
     d="M 629.03125 160.59375 L 629.03125 162.28125 L 635.03125 162.28125 L 635.03125 174.78125 L 637.40625 174.78125 L 637.40625 162.28125 L 643.40625 162.28125 L 643.40625 160.59375 L 629.03125 160.59375 z M 645.5625 160.59375 L 645.5625 174.78125 L 647.875 174.78125 L 647.875 166.40625 C 647.875 165.99169 647.84376 164.17826 647.84375 162.875 L 647.875 162.875 L 652.875 174.78125 L 655.25 174.78125 L 660.21875 162.875 L 660.28125 162.875 C 660.28125 164.19819 660.21874 165.99169 660.21875 166.40625 L 660.21875 174.78125 L 662.53125 174.78125 L 662.53125 160.59375 L 659.125 160.59375 L 654.09375 172.59375 L 654.0625 172.59375 L 649 160.59375 L 645.5625 160.59375 z "
     id="path2696" />
  <path
     d="M 644.1702,343.51336 L 633.48845,343.51336 L 633.48845,355.30963 L 647.01867,355.30963 L 647.01867,343.51336 L 644.1702,343.51336 z"
     style="fill:#231f20;fill-opacity:1;fill-rule:nonzero;stroke:none"
     id="path2700" />
  <path
     d="M 617.36932,319.61661 L 600.81537,319.61661 L 597.96691,319.61661 L 597.96691,355.30963 L 617.05592,355.30963 C 630.64549,355.30963 635.46711,345.31313 635.46711,336.75288 C 635.46711,328.46896 630.71317,319.61661 617.36932,319.61661 z M 616.11569,344.43228 C 616.11569,344.43226 613.57507,344.43228 611.34043,344.43228 C 611.34043,340.97463 611.34043,333.9517 611.34043,330.49404 C 613.5389,330.49404 616.01185,330.49404 616.01185,330.49404 C 619.05133,330.49404 621.78018,331.00776 621.78018,337.21285 C 621.78018,340.50633 620.79725,344.43228 616.11569,344.43228 z"
     style="fill:#231f20;fill-opacity:1;fill-rule:nonzero;stroke:none"
     id="path2702" />
  <path
     d="M 596.16807,319.61661 L 562.82189,319.61661 L 562.82189,330.61919 C 562.82189,330.61919 570.96111,330.61919 574.15358,330.61919 C 574.15358,335.07732 574.15358,355.30963 574.15358,355.30963 L 587.6838,355.30963 C 587.6838,355.30961 587.6838,335.07732 587.6838,330.61919 C 590.87727,330.61919 599.01654,330.61919 599.01654,330.61919 L 599.01654,319.61661 L 596.16807,319.61661 z"
     style="fill:#231f20;fill-opacity:1;fill-rule:nonzero;stroke:none"
     id="path2704" />
  <path
     d="M 549.52619,319.61661 L 538.84363,319.61661 L 538.84363,355.30963 L 571.01773,355.30963 L 571.01773,344.18189 C 571.01773,344.18188 556.46384,344.18189 552.37466,344.18189 C 552.37466,339.72937 552.37466,319.61661 552.37466,319.61661 L 549.52619,319.61661 z"
     style="fill:#231f20;fill-opacity:1;fill-rule:nonzero;stroke:none"
     id="path2706" />
  <path
     d="M 534.38177,343.51336 L 523.70001,343.51336 L 523.70001,362.9139 L 527.12696,362.27878 C 533.83099,361.01682 537.23024,357.43306 537.23024,351.62581 L 537.23024,343.51336 L 534.38177,343.51336 z"
     style="fill:#231f20;fill-opacity:1;fill-rule:nonzero;stroke:none"
     id="path2708" />
  <path
     d="M 519.86398,343.51336 L 509.18222,343.51336 L 509.18222,355.30963 L 522.71245,355.30963 L 522.71245,343.51336 L 519.86398,343.51336 z"
     style="fill:#231f20;fill-opacity:1;fill-rule:nonzero;stroke:none"
     id="path2710" />
  <path
     d="M 492.76088,326.80271 C 482.56128,326.80271 475.70803,332.64807 475.70803,341.34824 C 475.70803,350.0485 482.56128,355.8948 492.76088,355.8948 C 502.96047,355.8948 509.81373,350.0485 509.81373,341.34824 C 509.81373,332.64807 502.96047,326.80271 492.76088,326.80271 z M 492.76088,345.26773 C 490.45857,345.26773 488.92496,344.60101 488.92496,341.34824 C 488.92496,338.09559 490.45857,337.42884 492.76088,337.42884 C 495.0632,337.42884 496.59682,338.09559 496.59682,341.34824 C 496.59682,344.60101 495.0632,345.26773 492.76088,345.26773 z"
     style="fill:#231f20;fill-opacity:1;fill-rule:nonzero;stroke:none"
     id="path2712" />
  <path
     d="M 438.5268,337.5049 C 438.5268,348.80326 446.36846,356.1034 458.50415,356.1034 C 468.59343,356.1034 475.54207,351.2725 477.56716,342.84948 L 478.4119,339.33523 L 464.75276,339.33523 L 464.20479,341.47815 C 463.61136,343.79896 461.74582,344.97567 458.66083,344.97567 C 453.33197,344.97567 452.21378,340.95885 452.21378,337.58835 C 452.21378,330.94289 456.25282,329.95065 458.66083,329.95065 C 463.13386,329.95065 463.74022,331.68835 464.27526,333.2211 L 464.94104,335.13118 L 477.92693,335.13118 L 477.63302,332.01561 C 477.03496,325.66131 470.82613,318.82296 458.60887,318.82296 C 446.40929,318.82296 438.5268,326.15641 438.5268,337.5049 z"
     style="fill:#231f20;fill-opacity:1;fill-rule:nonzero;stroke:none"
     id="path2714" />
  <path
     d="M 398.62879,333.28508 L 398.62879,336.13355 L 411.36067,336.13355 L 411.42743,333.35266 C 411.48126,331.1079 411.58228,330.57749 413.90691,330.57749 C 415.58141,330.57749 416.17583,331.31653 416.17583,331.94884 C 416.17583,333.45559 414.72196,334.45334 408.50206,338.06778 L 408.24521,338.21702 C 399.57182,343.26488 398.57313,347.55705 398.21994,352.24706 L 397.98903,355.30963 L 429.23595,355.30963 L 429.23595,344.43228 C 429.23595,344.43226 422.96781,344.43228 419.75119,344.43228 C 419.82728,344.38964 420.00158,344.29222 420.00158,344.29222 C 422.96131,342.67886 429.18399,339.28699 429.18399,332.15756 C 429.18399,324.85648 422.91872,319.95048 413.59351,319.95048 C 406.35916,319.95048 398.62879,323.45357 398.62879,333.28508 z"
     style="fill:#231f20;fill-opacity:1;fill-rule:nonzero;stroke:none"
     id="path2716" />
  <path
     d="M 396.15128,319.61661 L 382.66463,319.61661 C 382.66463,319.61661 379.98859,329.08282 378.0618,335.89799 C 376.10443,329.07998 373.38764,319.61661 373.38764,319.61661 L 356.95702,319.61661 L 356.95702,355.30963 L 369.96425,355.30963 C 369.96425,355.30961 369.96425,349.43562 369.96425,348.26642 C 370.39173,349.83251 371.88641,355.30963 371.88641,355.30963 C 371.88641,355.30961 375.88926,355.30963 377.7085,355.30963 C 377.7836,355.57112 378.0525,356.5077 378.0525,356.5077 C 378.0525,356.50768 378.32699,355.57112 378.40398,355.30963 C 380.04234,355.30963 383.90055,355.30963 383.90055,355.30963 C 383.90052,355.30961 385.48064,349.64792 385.99237,347.81578 C 385.99237,349.21866 385.99237,355.30963 385.99237,355.30963 L 398.99975,355.30963 L 398.99975,319.61661 L 396.15128,319.61661 z"
     style="fill:#231f20;fill-opacity:1;fill-rule:nonzero;stroke:none"
     id="path2718" />
  <path
     d="M 288.71103,319.61661 L 286.85338,319.61661 L 275.96992,319.61661 L 260.06179,355.30963 L 274.59013,355.30963 C 274.59013,355.30961 276.4423,350.92384 277.20123,349.12684 C 279.5587,349.12684 284.78138,349.12684 287.20192,349.12684 C 287.90578,350.93865 289.60393,355.30963 289.60393,355.30963 L 304.43279,355.30963 L 288.71103,319.61661 z M 281.62746,338.24947 C 281.88753,337.60783 281.9237,337.51791 282.21483,336.79923 C 282.49578,337.51697 282.5324,337.61058 282.78278,338.24947 C 282.21434,338.24947 282.19723,338.24947 281.62746,338.24947 z"
     style="fill:#231f20;fill-opacity:1;fill-rule:nonzero;stroke:none"
     id="path2720" />
  <path
     d="M 317.08863,335.19984 L 299.67053,335.19984 L 299.67053,346.32755 L 319.9371,346.32755 L 319.9371,335.19984 L 317.08863,335.19984 z"
     style="fill:#231f20;fill-opacity:1;fill-rule:nonzero;stroke:none"
     id="path2722" />
  <path
     d="M 227.41607,324.5774 C 224.06921,327.91354 222.22588,332.51912 222.22588,337.5466 C 222.22588,348.47226 230.48388,356.1034 242.30797,356.1034 L 242.30797,356.1034 C 246.8431,356.1034 249.91642,355.00922 252.13993,353.71107 C 252.27853,354.3759 252.47282,355.30963 252.47282,355.30963 L 262.85966,355.30963 C 262.85966,355.30961 262.85966,335.43806 262.85966,334.62955 C 262.87265,334.62955 263.00533,334.62955 263.00533,334.62955 L 262.68866,331.49456 C 262.07206,325.39149 255.77467,318.82296 243.40444,318.82296 C 236.74738,318.80073 231.21546,320.79055 227.41607,324.5774 z M 235.91287,337.63005 C 235.91287,330.73046 240.86843,329.70036 243.82211,329.70036 C 247.44955,329.70036 249.07259,331.84593 249.2419,332.26789 L 249.17276,331.78108 C 249.17274,331.78108 249.30625,332.72033 249.40918,333.44449 C 247.19309,333.44449 241.49615,333.44449 241.49615,333.44449 L 241.49615,344.19671 C 241.49615,344.19669 246.08133,344.19671 247.61268,344.19671 C 246.2714,344.9506 244.81242,345.10082 243.97888,345.10082 C 236.74918,345.10082 235.91287,340.83741 235.91287,337.63005 z"
     style="fill:#231f20;fill-opacity:1;fill-rule:nonzero;stroke:none"
     id="path2724" />
  <path
     d="M 219.48735,319.61661 L 189.06563,319.61661 L 189.06563,355.30963 L 223.22359,355.30963 L 223.22359,344.30705 C 223.22358,344.30703 206.6817,344.30705 202.43919,344.30705 C 202.43919,343.34463 202.43919,343.19623 202.43919,342.23384 C 206.49863,342.23384 220.71685,342.23384 220.71685,342.23384 L 220.71685,331.23123 C 220.71685,331.2312 206.49863,331.23123 202.43919,331.23123 C 202.43919,330.92796 202.43919,330.92245 202.43919,330.61919 C 206.62151,330.61919 222.33581,330.61919 222.33581,330.61919 L 222.33581,319.61661 L 219.48735,319.61661 z"
     style="fill:#231f20;fill-opacity:1;fill-rule:nonzero;stroke:none"
     id="path2726" />
  <path
     d="M 152.87613,330.90388 C 152.87613,336.12327 155.66798,338.81511 159.18175,340.38023 C 157.17665,340.38023 152.30168,340.38023 152.30168,340.38023 L 152.30168,343.2287 C 152.30168,346.24875 153.66334,356.1034 171.18247,356.1034 C 179.31388,356.1034 188.80974,352.7857 188.80974,343.43731 C 188.80974,338.27637 185.66503,335.64675 182.38625,334.21224 C 183.41179,334.21224 187.6488,334.21224 187.6488,334.21224 L 187.60806,331.32392 C 187.54264,326.68032 183.78922,318.82296 170.13793,318.82296 C 153.70824,318.82296 152.87613,328.88619 152.87613,330.90388 z M 165.51703,343.13974 C 165.51703,343.13972 165.50091,342.62511 165.48788,342.20971 C 166.03775,342.3172 166.58151,342.42108 167.10449,342.51849 C 167.10772,342.51935 171.12921,343.27133 171.12921,343.27133 C 172.30913,343.49484 174.55809,343.93712 175.42831,344.39146 C 175.04024,344.65389 173.83021,345.22595 170.60813,345.22595 C 169.0972,345.22595 165.57601,345.02296 165.51703,343.13974 z M 169.5636,329.70036 C 174.09778,329.70036 174.31937,331.12092 174.42554,331.80332 C 174.42554,331.80332 174.4659,332.0611 174.47882,332.14359 C 171.77637,331.61324 167.55426,330.78334 167.55426,330.78334 C 167.24313,330.72495 166.49351,330.58025 166.04885,330.39947 C 166.50318,330.09907 167.69566,329.70036 169.5636,329.70036 z M 166.48145,336.37833 L 166.48145,336.37833 L 166.48145,336.37833 z"
     style="fill:#231f20;fill-opacity:1;fill-rule:nonzero;stroke:none"
     id="path2728" />
  <path
     d="M 343.80412,319.61661 L 341.94597,319.61661 L 331.06302,319.61661 L 315.15488,355.30963 L 329.6833,355.30963 C 329.6833,355.30961 331.5354,350.92384 332.2944,349.12684 C 334.65189,349.12684 339.87409,349.12684 342.29461,349.12684 C 342.99838,350.93865 344.6971,355.30963 344.6971,355.30963 L 359.52538,355.30963 L 343.80412,319.61661 z M 336.72006,338.24947 C 336.98013,337.60783 337.01631,337.51791 337.30744,336.79829 C 337.58886,337.51697 337.62552,337.61058 337.8759,338.24947 C 337.30704,338.24947 337.29035,338.24947 336.72006,338.24947 z"
     style="fill:#231f20;fill-opacity:1;fill-rule:nonzero;stroke:none"
     id="path2730" />
  <path
     d="M 162.67,343.2287 C 162.72242,344.89962 163.76695,348.07442 170.60813,348.07442 C 174.31559,348.07442 178.44142,347.36421 178.44142,344.1893 C 178.44142,341.84996 175.62114,341.22309 171.65266,340.47109 L 167.63118,339.71911 C 161.57353,338.59159 155.72459,337.5049 155.72459,330.90388 C 155.72459,327.56212 157.97032,321.67143 170.13793,321.67143 C 181.62685,321.67143 184.70814,327.68727 184.75998,331.36381 L 177.2401,331.36381 C 177.03149,330.02671 176.40466,326.85189 169.5636,326.85189 C 166.58664,326.85189 163.03584,327.72903 163.03584,330.4449 C 163.03584,332.78432 165.43776,333.28508 167.0048,333.57799 L 176.14363,335.37406 C 181.2611,336.37738 185.96127,338.04831 185.96127,343.43731 C 185.96127,352.46116 174.47234,353.25493 171.18247,353.25493 C 157.50022,353.25493 155.15015,346.9469 155.15015,343.2287 L 162.67,343.2287 z"
     style="fill:#d92461;fill-opacity:1;fill-rule:nonzero;stroke:none"
     id="path2732" />
  <path
     d="M 219.48735,327.77072 L 199.59073,327.77072 L 199.59073,334.0797 L 217.86838,334.0797 L 217.86838,339.38537 L 199.59073,339.38537 L 199.59073,347.15551 L 220.37512,347.15551 L 220.37512,352.46116 L 191.91409,352.46116 L 191.91409,322.46508 L 219.48735,322.46508 L 219.48735,327.77072 z"
     style="fill:#d92461;fill-opacity:1;fill-rule:nonzero;stroke:none"
     id="path2734" />
  <path
     d="M 244.34462,336.29296 L 260.0112,336.29296 L 260.0112,352.46116 L 254.78898,352.46116 L 254.00549,348.70127 C 252.02123,350.53901 249.14911,353.25493 242.30797,353.25493 C 233.27348,353.25493 225.07435,348.07442 225.07435,337.5466 C 225.07435,329.35821 230.76663,321.62972 243.40444,321.67143 C 254.89334,321.67143 259.43686,327.64558 259.85452,331.78108 L 252.02123,331.78108 C 252.02123,330.6118 249.35771,326.85189 243.82211,326.85189 C 238.23465,326.85189 233.0644,329.94324 233.0644,337.63005 C 233.0644,345.81844 238.65232,347.94929 243.97888,347.94929 C 245.7021,347.94929 251.44679,347.40589 253.06576,341.34824 L 244.34462,341.34824 L 244.34462,336.29296 z"
     style="fill:#d92461;fill-opacity:1;fill-rule:nonzero;stroke:none"
     id="path2736" />
  <path
     d="M 282.20549,329.23303 L 282.30986,329.23303 L 286.9576,341.09794 L 277.40108,341.09794 L 282.20549,329.23303 z M 275.31202,346.27838 L 289.15104,346.27838 L 291.55305,352.46116 L 300.06551,352.46116 L 286.85338,322.46508 L 277.81877,322.46508 L 264.44986,352.46116 L 272.70093,352.46116 L 275.31202,346.27838 z"
     style="fill:#d92461;fill-opacity:1;fill-rule:nonzero;stroke:none"
     id="path2738" />
  <path
     d="M 317.08863,343.47908 L 302.519,343.47908 L 302.519,338.04831 L 317.08863,338.04831 L 317.08863,343.47908 z"
     style="fill:#d92461;fill-opacity:1;fill-rule:nonzero;stroke:none"
     id="path2740" />
  <path
     d="M 337.29773,329.23303 L 337.40341,329.23303 L 342.0508,341.09794 L 332.4937,341.09794 L 337.29773,329.23303 z M 330.40512,346.27838 L 344.24363,346.27838 L 346.64612,352.46116 L 355.15812,352.46116 L 341.94597,322.46508 L 332.91196,322.46508 L 319.54305,352.46116 L 327.79403,352.46116 L 330.40512,346.27838 z"
     style="fill:#d92461;fill-opacity:1;fill-rule:nonzero;stroke:none"
     id="path2742" />
  <path
     d="M 396.15128,352.46116 L 388.84084,352.46116 L 388.84084,327.39519 L 388.73615,327.39519 L 381.73832,352.46116 L 374.06168,352.46116 L 367.22053,327.39519 L 367.11579,327.39519 L 367.11579,352.46116 L 359.80549,352.46116 L 359.80549,322.46508 L 371.24198,322.46508 L 378.03123,346.11145 L 378.13509,346.11145 L 384.8195,322.46508 L 396.15128,322.46508 L 396.15128,352.46116 z"
     style="fill:#d92461;fill-opacity:1;fill-rule:nonzero;stroke:none"
     id="path2744" />
  <path
     d="M 401.47726,333.28508 C 401.47726,323.63534 410.30362,322.79894 413.59351,322.79894 C 420.69521,322.79894 426.33552,326.14162 426.33552,332.15756 C 426.33552,337.25452 422.21031,339.84435 418.60708,341.80817 C 413.6982,344.56483 411.13903,345.9019 410.30362,347.28075 L 426.38748,347.28075 L 426.38748,352.46116 L 401.06004,352.46116 C 401.32154,348.99334 401.63495,345.35946 409.67686,340.67971 C 416.36125,336.79458 419.0243,335.29069 419.0243,331.94884 C 419.0243,329.98502 417.4582,327.72903 413.90691,327.72903 C 408.78848,327.72903 408.63184,331.11341 408.57992,333.28508 L 401.47726,333.28508 z"
     style="fill:#d92461;fill-opacity:1;fill-rule:nonzero;stroke:none"
     id="path2746" />
  <path
     d="M 466.96422,332.28271 C 466.33744,330.48666 465.13664,327.10218 458.66083,327.10218 C 454.90091,327.10218 449.36531,329.1078 449.36531,337.58835 C 449.36531,342.97748 452.02837,347.82414 458.66083,347.82414 C 462.99568,347.82414 466.02403,345.86022 466.96422,342.1837 L 474.7975,342.1837 C 473.23056,348.70127 467.9045,353.25493 458.50415,353.25493 C 448.52987,353.25493 441.37526,347.86582 441.37526,337.5049 C 441.37526,327.01873 448.94799,321.67143 458.60887,321.67143 C 469.83679,321.67143 474.38028,327.85417 474.7975,332.28271 L 466.96422,332.28271 z"
     style="fill:#d92461;fill-opacity:1;fill-rule:nonzero;stroke:none"
     id="path2748" />
  <path
     d="M 499.44529,341.34824 C 499.44529,344.1893 498.4012,348.1162 492.76088,348.1162 C 487.12137,348.1162 486.07649,344.1893 486.07649,341.34824 C 486.07649,338.50729 487.12137,334.58037 492.76088,334.58037 C 498.4012,334.58037 499.44529,338.50729 499.44529,341.34824 z M 506.96526,341.34824 C 506.96526,333.32678 500.22877,329.65118 492.76088,329.65118 C 485.29295,329.65118 478.5565,333.32678 478.5565,341.34824 C 478.5565,349.36981 485.29295,353.04633 492.76088,353.04633 C 500.22877,353.04633 506.96526,349.36981 506.96526,341.34824 z"
     style="fill:#d92461;fill-opacity:1;fill-rule:nonzero;stroke:none"
     id="path2750" />
  <path
     d="M 519.86398,352.46116 L 512.03069,352.46116 L 512.03069,346.36183 L 519.86398,346.36183 L 519.86398,352.46116 z"
     style="fill:#d92461;fill-opacity:1;fill-rule:nonzero;stroke:none"
     id="path2752" />
  <path
     d="M 534.38177,351.62581 C 534.38177,356.76453 531.03897,358.64405 526.60032,359.4794 L 526.54848,359.4794 L 526.54848,357.26519 C 528.5327,356.72276 530.67376,355.97076 530.93524,352.46116 L 526.54848,352.46116 L 526.54848,346.36183 L 534.38177,346.36183 L 534.38177,351.62581 z"
     style="fill:#d92461;fill-opacity:1;fill-rule:nonzero;stroke:none"
     id="path2754" />
  <path
     d="M 549.52619,347.03036 L 568.16926,347.03036 L 568.16926,352.46116 L 541.6921,352.46116 L 541.6921,322.46508 L 549.52619,322.46508 L 549.52619,347.03036 z"
     style="fill:#d92461;fill-opacity:1;fill-rule:nonzero;stroke:none"
     id="path2756" />
  <path
     d="M 584.83533,352.46116 L 577.00204,352.46116 L 577.00204,327.77072 L 565.67036,327.77072 L 565.67036,322.46508 L 596.16807,322.46508 L 596.16807,327.77072 L 584.83533,327.77072 L 584.83533,352.46116 z"
     style="fill:#d92461;fill-opacity:1;fill-rule:nonzero;stroke:none"
     id="path2758" />
  <path
     d="M 608.49196,327.64558 L 616.01185,327.64558 C 619.35355,327.64558 624.62865,328.35583 624.62865,337.21285 C 624.62865,342.14202 622.48766,347.28075 616.11569,347.28075 L 608.49196,347.28075 L 608.49196,327.64558 z M 600.81537,352.46116 L 617.05592,352.46116 C 629.43266,352.46116 632.61864,343.18702 632.61864,336.75288 C 632.61864,331.07174 630.00743,322.46508 617.36932,322.46508 L 600.81537,322.46508 L 600.81537,352.46116 z"
     style="fill:#d92461;fill-opacity:1;fill-rule:nonzero;stroke:none"
     id="path2760" />
  <path
     d="M 644.1702,352.46116 L 636.33692,352.46116 L 636.33692,346.36183 L 644.1702,346.36183 L 644.1702,352.46116 z"
     style="fill:#d92461;fill-opacity:1;fill-rule:nonzero;stroke:none"
     id="path2762" />
  <path
     d="M 280.77851,286.35486 C 274.13447,272.04385 272.18535,259.15718 271.25998,241.23736 C 275.17986,239.64446 280.5212,236.68194 280.5212,229.23994 C 280.5212,228.98857 280.51523,228.73177 280.50268,228.47029 C 280.25004,223.16835 276.07001,218.71387 269.80699,216.70551 C 269.50477,210.62659 269.38788,203.09647 269.38788,195.06107 C 269.38788,184.63388 269.56362,173.52139 269.71108,164.22066 L 269.8821,152.43422 C 270.14499,129.32887 275.82104,99.196882 281.04514,78.701791 L 281.04467,78.702189 C 282.54723,72.809667 284.34973,61.929419 279.54115,55.263585 C 277.30558,52.164765 273.93137,50.370097 269.78334,50.073847 C 262.53285,49.55552 248.82041,63.755677 208.50699,109.62693 C 200.7113,118.49829 193.34717,126.87679 186.71004,134.20097 C 169.37112,153.33306 143.8782,181.80763 121.32223,209.58808 C 116.3694,209.57602 111.72353,209.15509 107.21943,208.73971 C 95.480627,207.65659 84.392308,206.63298 76.850199,215.59005 C 75.232545,217.51041 72.274695,219.18685 69.414196,220.8076 C 63.096445,224.38673 54.444906,229.28817 57.53124,240.13126 C 60.876643,251.88395 81.54288,252.50983 94.570133,251.68736 C 89.026168,258.81129 83.374256,265.74516 77.477907,272.97662 C 67.052037,285.76415 56.270603,298.98752 44.388568,315.32539 C 43.161837,317.01209 42.541517,318.98794 42.541517,321.06866 C 42.541517,322.62459 42.888299,324.23894 43.588338,325.83558 C 45.240289,329.60488 48.376149,332.28082 51.576992,332.65261 C 51.578293,332.65261 52.404083,332.74909 52.404083,332.74909 C 60.422797,333.69022 71.404972,334.97822 84.66859,327.34147 C 95.270229,321.23846 102.57494,310.87002 117.12793,290.21396 L 122.04553,283.24491 L 132.5186,268.32662 C 137.44454,261.27122 140.8716,256.3671 144.91387,250.97525 C 171.25064,253.39806 185.83936,249.96079 198.72099,246.90188 C 206.11523,245.14567 212.62483,243.60465 220.62684,243.26436 C 221.82862,248.75078 222.83185,254.12414 223.75219,259.31388 C 226.14253,272.79584 228.20699,284.44009 233.74775,293.3054 C 240.42568,303.98903 250.47785,305.6655 254.85992,305.05999 C 258.88282,304.50452 260.91708,305.36222 263.07112,306.27003 C 266.07672,307.53759 269.81771,309.1148 276.00563,305.73963 C 280.41459,303.33441 282.10077,300.14466 282.73923,297.89246 C 283.72393,294.41439 283.03867,290.43099 280.77851,286.35486 z M 218.45859,214.63963 C 206.16803,214.93455 197.17893,214.02209 188.47495,213.13195 C 182.8796,212.55894 177.4659,212.03126 171.5803,211.85323 C 187.85284,191.33402 205.68728,170.28904 225.76378,147.96028 C 221.57453,170.49816 219.21563,192.09951 218.45859,214.63963 z"
     style="fill:#231f20;fill-opacity:1;fill-rule:nonzero;stroke:none"
     id="path2764" />
  <path
     d="M 366.45,147.99734 C 350.76302,160.54606 294.8758,234.38703 288.71153,245.48049 C 287.89874,246.94366 287.16491,247.39151 286.05455,248.06924 C 281.78271,250.67665 279.93707,253.70219 281.00431,263.84247 L 281.42247,267.81476 L 285.4031,267.48376 C 290.26923,267.07849 293.943,266.26262 298.29309,265.07573 L 299.81237,264.6612 L 303.16569,259.41031 C 313.96564,242.47989 332.52571,213.41015 353.49101,187.6766 C 352.33197,191.91172 351.22667,196.14177 350.22714,200.13772 C 347.54833,210.85373 345.30442,226.47765 345.20984,227.13788 L 344.99657,228.63347 L 345.80886,229.90849 C 346.77962,231.43193 351.95644,238.95272 358.55187,237.38377 C 368.14313,235.09999 375.73166,224.19109 388.304,206.11738 C 389.84227,203.90691 391.3426,201.82715 392.79558,199.86045 C 391.8757,202.1896 390.90498,204.58008 389.88313,206.9853 C 386.05174,215.99806 383.69009,222.95505 383.69009,228.60841 C 383.69009,232.04289 384.56173,234.99622 386.50701,237.6369 C 390.5229,243.08726 395.47245,241.91247 397.85087,241.34771 C 398.2579,241.25133 398.83006,241.11871 399.09803,241.10112 C 405.35687,244.42343 416.4846,233.71191 419.15872,230.25892 C 425.24051,222.40987 421.37209,217.91278 420.04244,216.72127 C 418.3307,215.18852 416.64411,214.94657 415.52951,215.01333 C 413.72425,215.12093 412.41215,216.04257 411.36722,217.0421 C 412.69966,212.4708 415.14011,206.29541 416.17033,203.6983 L 417.04839,201.47659 L 417.11515,201.15861 C 417.60841,198.86413 418.4865,195.86678 419.41748,192.69291 C 421.54916,185.41736 423.87369,177.48622 423.87369,171.03271 C 423.87369,167.92645 423.33591,165.1623 421.97757,162.97866 C 420.49487,160.59334 418.17869,159.06485 415.28018,158.55716 C 405.61276,156.86594 388.26699,178.00272 384.88814,182.25728 C 382.83147,184.84761 379.95241,188.5792 376.99638,192.44627 C 377.1689,191.8139 377.79016,189.54489 377.79016,189.54489 C 378.47909,186.94168 379.67612,183.31257 380.94273,179.47056 C 384.33641,169.18053 385.81999,164.16001 385.81999,161.07547 C 385.81999,159.81314 385.57149,158.87477 385.1032,158.03284 C 384.59884,157.12412 384.38274,155.93402 384.13332,154.55614 C 383.84315,152.95623 383.51395,151.14348 382.62192,149.35945 C 380.91122,145.93705 378.50035,144.76786 376.77941,144.38947 C 373.70657,143.71447 370.32773,144.89478 366.45,147.99734 z M 402.34243,233.71849 C 402.58626,233.78525 402.8691,233.89829 403.16764,234.09675 C 402.89228,233.9131 402.61779,233.85294 402.34243,233.71849 z M 398.6381,240.89066 C 398.74841,240.96383 398.87547,240.98797 398.98948,241.05099 C 398.88752,241.02233 398.76417,240.97496 398.6381,240.89066 z M 382.62192,149.35945 L 382.62285,149.35945 L 382.62192,149.35945 L 382.62192,149.35945 z"
     style="fill:#231f20;fill-opacity:1;fill-rule:nonzero;stroke:none"
     id="path2766" />
  <path
     d="M 476.33301,118.33231 C 449.59804,118.705 440.02159,139.52991 439.01742,141.90311 C 437.65429,145.1234 434.83738,148.28481 432.35233,151.07397 C 429.44547,154.33642 426.93457,157.15382 426.48574,160.29249 C 426.0054,163.65601 427.47881,167.13731 430.33101,169.37899 C 433.43537,171.81896 437.48369,172.39758 441.16021,170.92695 C 443.45418,170.00942 445.43198,167.8049 448.16912,164.75391 C 452.43348,159.99994 458.27512,153.48889 465.60956,152.37297 C 470.48681,151.63074 473.68764,152.55004 475.12392,155.106 C 477.85741,159.96842 475.33811,171.60708 465.28502,183.59769 C 453.95229,197.1154 444.93034,205.8012 438.34233,212.14351 C 430.96895,219.24344 426.09818,223.93236 423.86534,229.76841 L 423.56315,230.55934 L 423.60018,231.40496 C 423.94427,239.29759 429.14604,246.82677 435.96858,249.3071 C 440.9877,251.13192 450.3547,247.14852 475.84534,235.30216 C 487.08436,230.07814 499.82366,224.15681 512.3904,219.05881 L 562.58087,198.96002 C 576.24548,193.52091 587.03851,189.225 589.94354,187.97978 C 594.86432,185.87075 601.26515,182.47892 600.03743,177.39903 C 598.71339,171.92463 590.44332,172.50183 586.91153,172.74854 C 582.56552,173.05172 547.78578,179.67641 522.70776,187.74658 C 506.92347,192.82693 488.17842,200.11167 474.72892,205.54435 C 479.21121,200.60131 483.77787,195.25163 486.60592,191.07304 C 486.60675,191.07304 488.388,188.44713 488.388,188.44713 C 498.55981,173.47036 505.73661,162.9032 505.73661,146.97324 C 505.73661,144.54243 505.56965,141.98613 505.22017,139.27068 L 505.22017,139.27068 C 503.53162,126.13175 492.46224,118.10884 476.33301,118.33231 z"
     style="fill:#231f20;fill-opacity:1;fill-rule:nonzero;stroke:none"
     id="path2768" />
  <g
     clip-path="url(#clipPath2774)"
     id="g2772"
     transform="matrix(0.9494895,0,0,-0.9494895,49.044219,575.00338)">
    <path
       id="path2796"
       style="fill:url(#linearGradient21578);stroke:none"
       d="M 398.77728,344.66412 L 398.77728,476.88571 L 579.67969,476.88571 L 579.67969,344.66412 L 398.77728,344.66412 z" />
  </g>
  <g
     clip-path="url(#clipPath2802)"
     id="g2800"
     transform="matrix(0.9494895,0,0,-0.9494895,49.044219,575.00338)">
    <path
       id="path2824"
       style="fill:url(#linearGradient21598);stroke:none"
       d="M 246.97659,328.16412 L 246.97659,450.86914 L 396.97751,450.86914 L 396.97751,328.16412 L 246.97659,328.16412 z" />
  </g>
  <g
     clip-path="url(#clipPath2830)"
     id="g2828"
     transform="matrix(0.9494895,0,0,-0.9494895,49.044219,575.00338)">
    <path
       id="path2852"
       style="fill:url(#linearGradient21618);stroke:none"
       d="M -4.62601,256.96292 L -4.62601,549.19531 L 243.4326,549.19531 L 243.4326,256.96292 L -4.62601,256.96292 z" />
  </g>
</svg>
