<?xml version="1.0" encoding="utf-8"?>
<!-- Generator: Adobe Illustrator 23.0.3, SVG Export Plug-In . SVG Version: 6.00 Build 0)  -->
<svg version="1.1" id="Layer_1" xmlns="http://www.w3.org/2000/svg" xmlns:xlink="http://www.w3.org/1999/xlink" x="0px" y="0px"
	 viewBox="0 0 496.6 101.3" style="enable-background:new 0 0 496.6 101.3;" xml:space="preserve">
<style type="text/css">
	.st0{fill:#FFB71B;}
</style>
<g>
	<path class="st0" d="M44.4,14.7c-11,0-15.4,5.7-18.5,9.7v-8.3H0v78h25.9v-22c2.3,2.8,7,8.7,17.7,8.7c15.7,0,27.3-13.6,27.3-33.8
		C70.9,30,61.6,14.7,44.4,14.7z M32.9,64.1c-3.4,0-5.3-1.5-6.9-2.6V34.3c2.4-1.5,4.3-2.5,7.1-2.5c7.9,0,10.8,7.6,10.8,16.1
		C43.8,60,37.8,64.1,32.9,64.1z"/>
	<rect x="75.6" class="st0" width="26.1" height="78.3"/>
	<path class="st0" d="M172.4,78.3V40.5c0-6.8-0.1-16.1-10.4-22.7c-2-1.4-7.8-5-20.2-5c-18.4,0-26.4,8.3-31.9,14.5l7.7,6.5
		c3.3-3.3,7.9-7.9,15.9-7.9c1.8,0,5.2,0.1,8.4,2.7c4.4,3.6,4.5,8.7,4.5,12.3c-3.4-1.1-8.3-2.7-15.1-2.7c-13.6,0-24.6,7.7-24.6,21.4
		c0,11.1,7.4,20.4,20.5,20.4c11.3,0,16-5.9,19.1-10.1v8.3H172.4z M138.3,65.1c-4.2,0-6.6-3.3-6.6-6.7c0-3.1,2-7.6,9-7.6
		c2.2,0,3.6,0.3,5.7,0.8v9.2C144.2,63.1,142.1,65.1,138.3,65.1z"/>
	<path class="st0" d="M219.2,16.2c-7.5,21.3-8.3,23.6-11.2,34.2c-2-10.4-6-22.9-9.5-34.2H171l23.6,56.8
		c-5.6,9.9-10.1,17.7-23.5,18.6v9.7c8,0.1,19,0.1,28.1-5.7c9.1-5.8,13.4-15.5,16.7-22.9l24.1-56.5H219.2z"/>
	<path class="st0" d="M281,22.1c-2.8-3.5-7.3-9-18.2-9c-17.7,0-26.9,16.1-26.9,34.1c0,17.7,9.2,32.6,26.4,32.6
		c11.6,0,16.2-6.5,18.7-10v8.2H307V0.6H281V22.1z M281,60c-2.3,1.2-4.2,2.4-7.4,2.4c-7.3,0-10.8-6.8-10.8-15.5
		c0-11,4.9-16.8,11-16.8c3.2,0,5.1,1.2,7.1,2.6V60z"/>
	<path class="st0" d="M367.6,17.7c-2-1.4-7.8-5-20.2-5c-18.4,0-26.4,8.3-31.9,14.5l7.7,6.5c3.3-3.3,7.9-7.9,15.9-7.9
		c1.8,0,5.2,0.1,8.4,2.7c4.4,3.6,4.5,8.7,4.5,12.3c-3.4-1.1-8.3-2.7-15.1-2.7c-13.6,0-24.6,7.7-24.6,21.4c0,11.1,7.4,20.4,20.5,20.4
		c11.3,0,16-5.9,19.1-10.1v8.3H378V40.3C378,33.5,377.9,24.2,367.6,17.7z M352,60.6c-2.2,2.3-4.3,4.3-8,4.3c-4.2,0-6.6-3.3-6.6-6.7
		c0-3.1,2-7.6,9-7.6c2.2,0,3.6,0.3,5.7,0.8V60.6z"/>
	<path class="st0" d="M422.2,66.7c-7.3,0-7.3-6.8-7.3-9.5v-21h10.8V21.4H415V6.2H389v15.2h-6.9v14.8h6.9v22.2
		c0,5.3,0.3,11.3,5.2,16.2c4.3,4.2,10.5,5.9,16.4,5.9c9.4,0,14.8-3.6,18.6-6l-3.1-8.4C424.8,66.5,423.6,66.7,422.2,66.7z"/>
	<path class="st0" d="M470.7,66.1c-3.9,0-7.3-0.8-10.5-3.2c-4.5-3.2-5.3-7.1-5.9-10.8h42.3c0-8,0-24.7-15-34
		c-4.4-2.8-10.9-5.2-19.4-5.2c-20.4,0-33.9,14-33.9,33.6c0,19.4,13.3,33.3,35.2,33.3c19,0,27.5-11.8,30.6-16.1l-6.8-5.9
		C484.3,61,479.2,66.1,470.7,66.1z M462.7,26.9c8.3,0,8.7,8.6,9,12.5h-18.2C454,35,455.1,26.9,462.7,26.9z"/>
</g>
</svg>
