<?xml version="1.0" encoding="utf-8"?>
<svg version="1.1" xmlns="http://www.w3.org/2000/svg" xmlns:xlink="http://www.w3.org/1999/xlink" x="0px"
	 y="0px" viewBox="0 0 100 33.3" style="enable-background:new 0 0 100 33.3;" xml:space="preserve">
<style type="text/css">
	.st0{fill:#FFFFFF;}
	.st1{fill:#0082CA;}
</style>
<g>
	<path class="st0" d="M90.9,6.1c-1.1-3.5-4.4-6-8.2-6c-3.8,0-7.1,2.5-8.2,6l-2.9,8.6V0.6H56.4c-2.7,0-5.2,1.1-7.1,2.9V0.6H33.7
		c-2.9,0-5.5,1.2-7.4,3.2V0.6H11.5C5.2,0.6,0,5.8,0,12.1c0,3,1.2,5.8,3.1,7.8H0v13.4h14.8c4.2,0,7.8-2.2,9.9-5.6
		c1.7,3.3,5.1,5.6,9.1,5.6h15.7v-2.9c1.8,1.8,4.3,2.9,7.1,2.9H100L90.9,6.1z"/>
	<g>
		<g>
			<path class="st1" d="M14.8,22.3H2.3v3.9h12.5c2.4,0,4.4-2,4.4-4.4c0-2.4-2-4.4-4.4-4.4h-3.2c-2.9,0-5.3-2.4-5.3-5.3
				c0-2.9,2.4-5.3,5.3-5.3H24V2.9H11.5c-5.1,0-9.2,4.1-9.2,9.2c0,5.1,4.1,9.2,9.2,9.2h3.2c0.3,0,0.5,0.2,0.5,0.5
				C15.2,22.1,15,22.3,14.8,22.3z"/>
			<path class="st1" d="M11.5,11.7H24V7.7H11.5c-2.4,0-4.4,2-4.4,4.4c0,2.4,2,4.4,4.4,4.4h3.2c2.9,0,5.3,2.4,5.3,5.3
				s-2.4,5.3-5.3,5.3H2.3V31h12.5c5.1,0,9.2-4.1,9.2-9.2c0-5.1-4.1-9.2-9.2-9.2h-3.2c-0.3,0-0.5-0.2-0.5-0.5
				C11.1,11.9,11.3,11.7,11.5,11.7z"/>
		</g>
		<g>
			<path class="st1" d="M56.4,7.7c-1.7,0-3,1.3-3,3v12.5c0,1.7,1.3,3,3,3h8.1v-8.8h-6.2v3.9h2.3v0.9h-2.3c-0.5,0-0.9-0.4-0.9-0.9
				v-8.8c0-0.5,0.4-0.9,0.9-0.9h11.1V7.7H56.4z"/>
			<path class="st1" d="M81,26.2h9.1L83.9,7.8c-0.2-0.5-0.6-0.9-1.2-0.9c-0.5,0-1,0.4-1.2,0.8l-8,23.3h4.6l2.8-8.3V26.2z M82.6,17.8
				l1.3,4h-2.7L82.6,17.8z"/>
			<path class="st1" d="M88.7,7c-0.8-2.6-3.2-4.6-6.1-4.6c-2.9,0-5.3,1.9-6,4.5l-7.3,21.4V12.6H58.3v3.9h7.2v10.6h-9
				c-2.2,0-3.9-1.8-3.9-3.9V10.7c0-2.2,1.8-3.9,3.9-3.9h12.9V2.9H56.4c-4.3,0-7.8,3.5-7.8,7.8l0,12.5c0,4.3,3.5,7.8,7.8,7.8h16.1
				l8.1-23.5C80.9,6.6,81.7,6,82.7,6c1,0,1.8,0.6,2.1,1.5l6.6,19.6H81V31h15.8h0L88.7,7z"/>
		</g>
		<g>
			<path class="st1" d="M33.7,27.1c-2.2,0-3.9-1.8-3.9-3.9l0-12.5c0-2.2,1.8-3.9,3.9-3.9h13.4V2.9H33.7c-4.3,0-7.8,3.5-7.8,7.8
				l0,12.5c0,4.3,3.5,7.8,7.8,7.8h13.4v-3.9H33.7z"/>
			<path class="st1" d="M34.6,21.4l9.7,0v-3.9H30.7v5.8c0,1.7,1.3,3,3,3h13.4v-3.9H35.5C35,22.3,34.6,21.9,34.6,21.4z"/>
			<path class="st1" d="M44.3,12.6l-9.7,0c0-0.5,0.4-0.9,0.9-0.9h11.5V7.7H33.7c-1.7,0-3,1.3-3,3v5.8h13.6V12.6z"/>
		</g>
	</g>
	<g>
		<path class="st0" d="M94.5,6.1c0.8,0,1.6-0.3,2.2-0.9c0.6-0.6,0.9-1.4,0.9-2.2c0-0.8-0.3-1.6-0.9-2.2C96.1,0.3,95.3,0,94.5,0
			c-1.7,0-3.1,1.4-3.1,3.1c0,0.8,0.3,1.6,0.9,2.2C92.9,5.8,93.7,6.1,94.5,6.1z M91.8,3.1c0-0.7,0.3-1.4,0.8-1.9
			c0.5-0.5,1.2-0.8,1.9-0.8c0.7,0,1.4,0.3,1.9,0.8c0.5,0.5,0.8,1.2,0.8,1.9c0,1.5-1.2,2.6-2.6,2.6c-0.7,0-1.4-0.3-1.9-0.8
			C92.1,4.4,91.8,3.8,91.8,3.1z"/>
		<path class="st0" d="M93.7,3.3v1.4h-0.4V1.4h1.3c0.5,0,0.8,0,1,0.2c0.3,0.2,0.4,0.5,0.4,0.8c0,0.8-0.6,0.9-0.8,0.9l1,1.5h-0.5
			l-0.9-1.4H93.7z M93.7,3h0.9c0.1,0,0.3,0,0.4,0c0.3-0.1,0.4-0.3,0.4-0.6c0-0.1,0-0.3-0.2-0.5c-0.2-0.2-0.4-0.1-0.7-0.1h-0.9V3z"/>
	</g>
</g>
</svg>
