<?xml version="1.0" encoding="utf-8"?>
<!-- Generator: Adobe Illustrator 25.0.0, SVG Export Plug-In . SVG Version: 6.00 Build 0)  -->
<svg version="1.1" id="Layer_1" xmlns="http://www.w3.org/2000/svg" xmlns:xlink="http://www.w3.org/1999/xlink" x="0px" y="0px"
	 viewBox="0 0 3839 553.9" style="enable-background:new 0 0 3839 553.9;" xml:space="preserve">
<style type="text/css">
	.st0{fill:#FFFFFF;}
	.st1{fill:#3DDC84;}
	.st2{fill:#A6F34E;}
	.st3{fill:none;stroke:#FFFFFF;stroke-width:32.5695;stroke-linecap:round;}
	.st4{fill:none;stroke:#FFFFFF;stroke-width:65.1391;stroke-linecap:round;}
	.st5{fill:#A4C639;}
	.st6{fill:none;stroke:#FFFFFF;stroke-width:13.0278;stroke-linecap:round;}
	.st7{fill:none;stroke:#A4C639;stroke-width:6.5139;stroke-linecap:round;}
	.st8{fill:none;stroke:#A4C639;stroke-width:39.0835;stroke-linecap:round;}
	.st9{fill:none;stroke:#FFFFFF;stroke-width:15;stroke-linecap:square;}
	.st10{fill:#A4C639;stroke:#FFFFFF;stroke-width:14.4;}
	.st11{fill:#A4C639;stroke:#FFFFFF;stroke-width:7.2;}
	.st12{fill:#FFFFFF;stroke:#FFFFFF;stroke-width:7.2;}
	.st13{fill:#0268AA;}
</style>
<g>
	<g>
		<rect x="449.4" y="130.6" class="st2" width="109.2" height="403.5"/>
		
			<rect x="351.8" y="-76.2" transform="matrix(-1.836970e-16 1 -1 -1.836970e-16 482.4018 -334.5826)" class="st2" width="113.3" height="300.1"/>
		<path class="st2" d="M258.4,420.8c0,37.8,0,75.5,0,113.3c-344.6,0-344.6-516.8,0-516.8c0,37.8,0,75.5,0,113.3
			C64.9,130.6,64.9,420.8,258.4,420.8z"/>
		<path class="st2" d="M1556.5,130.6c0-37.8,0-75.5,0-113.3c344.6,0,344.6,516.8,0,516.8c0-37.8,0-75.5,0-113.3
			C1750,420.8,1750,130.6,1556.5,130.6z"/>
		
			<rect x="1377.4" y="-48.6" transform="matrix(-1.836970e-16 1 -1 -1.836970e-16 1507.9758 -1360.1567)" class="st2" width="113.3" height="245"/>
		
			<rect x="1996" y="-69.8" transform="matrix(-1.836970e-16 1 -1 -1.836970e-16 2126.5156 -1978.6964)" class="st2" width="113.3" height="287.4"/>
		<path class="st2" d="M2196.3,130.6c0-37.8,0-75.5,0-113.3c251.7,0,251.7,377.5,0,377.5c0-37.8,0-75.5,0-113.3
			C2296.9,281.5,2296.9,130.6,2196.3,130.6z"/>
		
			<rect x="1377.4" y="355" transform="matrix(-1.836970e-16 1 -1 -1.836970e-16 1911.5146 -956.6179)" class="st2" width="113.3" height="245"/>
		
			<rect x="252.8" y="426.4" transform="matrix(-1.836970e-16 1 -1 -1.836970e-16 786.9361 167.9607)" class="st2" width="113.3" height="102.1"/>
		<rect x="662.2" y="267.4" class="st2" width="109.2" height="266.7"/>
		<path class="st2" d="M771.4,267.4c-36.4,0-72.8,0-109.2,0c0-356.6,534.9-356.6,534.9,0c-36.4,0-72.8,0-109.2,0
			C1087.9,56.4,771.4,56.4,771.4,267.4z"/>
		<rect x="1087.9" y="267.4" class="st2" width="109.2" height="266.7"/>
		
			<rect x="2000.2" y="190.2" transform="matrix(-1.836970e-16 1 -1 -1.836970e-16 2390.8386 -1718.6667)" class="st2" width="109.2" height="291.7"/>
		<path class="st2" d="M3580.6,130.6c0-37.8,0-75.5,0-113.3c344.6,0,344.6,516.8,0,516.8c0-37.8,0-75.5,0-113.3
			C3774.1,420.8,3774.1,130.6,3580.6,130.6z"/>
		
			<rect x="3401.4" y="-48.6" transform="matrix(-1.836970e-16 1 -1 -1.836970e-16 3532.0073 -3384.1882)" class="st2" width="113.3" height="245"/>
		
			<rect x="3401.4" y="355" transform="matrix(-1.836970e-16 1 -1 -1.836970e-16 3935.5461 -2980.6494)" class="st2" width="113.3" height="245"/>
		<path class="st2" d="M2577.3,286.4c-36.4,0-72.8,0-109.2,0c0-356.6,534.9-356.6,534.9,0c-36.4,0-72.8,0-109.2,0
			C2893.8,75.4,2577.3,75.4,2577.3,286.4z"/>
		<path class="st2" d="M2893.8,286.4c36.4,0,72.8,0,109.2,0c0,356.6-534.9,356.6-534.9,0c36.4,0,72.8,0,109.2,0
			C2577.3,497.4,2893.8,497.4,2893.8,286.4z"/>
		<rect x="3111.9" y="17.3" class="st2" width="109.2" height="516.8"/>
		<path class="st2" d="M2244.1,534.1h112.6c19.4-118.2-50.9-252.6-210.7-252.6c0,36.4,0,72.8,0,109.2
			C2233.4,390.7,2266.1,472.7,2244.1,534.1z"/>
	</g>
</g>
</svg>
