<?xml version="1.0" encoding="utf-8"?>
<!-- Generator: Adobe Illustrator 25.0.0, SVG Export Plug-In . SVG Version: 6.00 Build 0)  -->
<svg version="1.1" id="Layer_1" xmlns="http://www.w3.org/2000/svg" xmlns:xlink="http://www.w3.org/1999/xlink" x="0px" y="0px"
	 viewBox="0 0 3840 283.37" style="enable-background:new 0 0 3840 283.37;" xml:space="preserve">
<style type="text/css">
	.st0{fill:#FFCC00;}
	.st1{fill-rule:evenodd;clip-rule:evenodd;fill:#FFCC00;}
	.st2{fill-rule:evenodd;clip-rule:evenodd;fill:#FF0000;}
	.st3{fill:#FF0000;}
</style>
<g>
	<g>
		<rect id="rect5539_2_" x="1314.31" y="0.03" class="st0" width="161.34" height="199.82"/>
		<rect id="rect5541_2_" x="1313.6" y="222.69" class="st0" width="408.34" height="60.68"/>
		<path id="path5543_2_" class="st1" d="M1675.88,0.03h226.32l144.49,108.87l-111.01,71.32L1675.88,0.03z"/>
		<path id="path5547_2_" class="st1" d="M2466.36,0.03l441.01,283.35h91.24V0.03h-80.67v197.68L2620.32,0.03H2466.36z"/>
		<path id="path5549_6_" class="st1" d="M2464.36,30.34l174.85,112.34v140.69h-175.59L2464.36,30.34z"/>
		<path id="path5549_5_" class="st1" d="M2265.45,0.03l-312.26,200.63v82.72h162.8v-89.95l279.22-193.4H2265.45z"/>
		<path id="path5549_4_" class="st1" d="M2471.82,3.53l174.85,112.34"/>
		<g>
			<path id="path5551-7_4_" class="st1" d="M3571.57,283.37l-340.82-148.92l75.89-27.78l125.53,54.83l58.45-21.39l327.89,143.27
				h-244.57H3571.57z"/>
			<path id="path5553-8_4_" class="st2" d="M3421.55,241.19l-101.21-44.22l-237.47,86.41h223.43L3421.55,241.19z"/>
		</g>
		<g>
			<path id="path5551-7_3_" class="st2" d="M3351.3,0l340.82,148.92l-75.89,27.78l-125.53-54.83l-58.45,21.39L3104.36,0l244.57,0
				L3351.3,0z"/>
			<path id="path5553-8_3_" class="st1" d="M3501.31,42.19l101.21,44.22L3840,0l-223.43,0L3501.31,42.19z"/>
		</g>
	</g>
	<g>
		<g>
			<path class="st3" d="M125.79,0.64c7.14-0.02,14.29,0,21.43-0.02c0.03,16.8,0,33.6,0.01,50.39c0.07,14.02-0.32,28.04-0.9,42.05
				c-0.96,20.23-2.22,40.49-5.57,60.49c-2.3,13.79-7.07,27.08-12.98,39.7c-9.65,20.34-24.81,37.55-41.86,52.03
				c-15.25,13.42-33.45,23.19-52.59,29.8c-10.83,3.72-21.97,6.61-33.32,8.2c0.01-14.08,0.01-28.19,0-42.27
				c13.66-2.05,26.79-6.9,38.99-13.3c14.47-7.65,27.5-17.95,38.47-30.08c11.32-12.53,20.35-27.03,27.2-42.43
				c8.07-17.71,12.38-36.83,15.32-55.98c3.68-24.34,5.21-48.97,5.78-73.57C125.84,17.32,125.77,8.97,125.79,0.64z"/>
			<path class="st3" d="M155.85,0.67c13.15-0.09,26.3-0.01,39.46-0.04c0,94.21,0,188.43,0,282.66c-13.12,0.03-26.25-0.06-39.37,0.05
				c-0.17-30.04-0.02-60.09-0.07-90.13C155.85,129.02,155.89,64.85,155.85,0.67z"/>
			<path class="st3" d="M204.08,0.63c7.11,0,14.21-0.02,21.31,0c-0.23,28.73,0.75,57.51,4.17,86.05c2.8,22.17,6.75,44.5,15.58,65.15
				c8.37,19.98,20.44,38.56,36.16,53.53c15.01,14.32,33.21,25.32,52.98,31.66c5.51,1.76,11.16,3.15,16.89,3.98
				c-0.01,14.08-0.01,28.16,0,42.24c-11.27-1.53-22.31-4.43-33.07-8.09c-12.8-4.45-25.19-10.22-36.56-17.62
				c-8.3-5.34-15.85-11.73-23.11-18.4c-11.96-11.03-22.66-23.56-30.7-37.75c-6.29-11.05-10.87-22.99-14.47-35.17
				c-3.29-12.24-4.7-24.89-5.97-37.47c-2.47-27.19-3.39-54.51-3.22-81.81C204.08,31.52,204.08,16.07,204.08,0.63z"/>
		</g>
		<path class="st3" d="M480.84,12.31c10.99-14.06,33.75-16.47,47.24-4.67c5.52,4.65,9.38,11.05,11.36,17.96
			c24.97,85.93,50.06,171.81,74.99,257.74c-14.74,0.01-29.48-0.03-44.22,0.01c-6.95-23.69-13.74-47.42-20.6-71.13
			c-28.5-0.05-56.98-0.01-85.48-0.03c-6.98,23.7-13.87,47.43-20.72,71.17c-14.66-0.05-29.32-0.01-43.97-0.03
			c23.72-81.97,47.48-163.93,71.32-245.87C473.59,28.9,474.66,19.32,480.84,12.31 M506.86,64.97
			c-10.45,35.6-20.69,71.26-31.08,106.88c20.71,0.1,41.42,0.04,62.12,0.04C527.54,136.24,517.23,100.6,506.86,64.97z"/>
		<path class="st3" d="M791.3,14.16c7.68-11.14,22.53-16.55,35.6-13.11c11.97,2.76,21.12,13.07,24.28,24.68
			c24.95,85.86,49.99,171.69,74.93,257.56c-14.76,0.11-29.51,0-44.27,0.06c-6.86-23.71-13.65-47.45-20.57-71.16
			c-28.45,0.01-56.89-0.05-85.35,0.02c-6.8,23.73-13.82,47.4-20.61,71.13c-14.65,0.01-29.28-0.01-43.92,0.01
			c23.71-82.42,47.7-164.77,71.61-247.13C785.51,28.79,786.48,20.59,791.3,14.16 M787.71,171.88c20.63,0.03,41.24,0.02,61.87,0.02
			c-10.26-35.72-20.69-71.38-30.92-107.09C808.36,100.5,797.96,136.16,787.71,171.88z"/>
		<path class="st3" d="M581.44,0.62c53.32,0,106.63,0,159.93,0c0,14.39,0,28.75,0,43.13c-19.64,0.01-39.25-0.02-58.87,0.01
			c0,79.86,0.01,159.72-0.01,239.57c-14.05,0-28.12,0-42.18,0c0-79.86-0.01-159.71,0.01-239.57c-19.63-0.04-39.25,0-58.88-0.01
			C581.44,29.38,581.42,15.01,581.44,0.62z"/>
		<path class="st3" d="M972.98,2.38c4.05-1.4,8.38-1.88,12.66-1.78c16.81,0.06,33.62,0.01,50.43,0.02
			c28.31,0.52,55.33,18.09,67.58,43.57c8.48,16.55,9.36,35.79,7.22,53.94c-1.48,19-9.45,38-24.05,50.6
			c-7.71,6.87-17.32,11.04-25.58,17.16c-4.53,3.45-4.76,10.16-2.42,14.96c22.31,34.44,45.5,68.35,68.28,102.49
			c-16.66,0.03-33.32-0.04-49.98,0.03c-21.8-32.75-43.39-65.68-65.11-98.48c-6.39-9.34-8.12-21.7-4.3-32.35
			c2.98-8.18,10.13-14.15,18.08-17.24c15.18-5.8,30.16-14.89,38.57-29.23c6.4-10.77,6.06-24.06,3.19-35.84
			c-3.37-15.3-18.28-27.34-34.04-26.81c-10.9,0.07-21.78-0.05-32.66,0.05c-4.93-0.11-9.56,4.17-9.5,9.16
			c-0.05,76.91,0.02,153.83-0.03,230.73c-14.17-0.03-28.32,0-42.49-0.02c-0.03-82.79,0.03-165.6-0.03-248.39
			C948.9,20.44,959.22,6.78,972.98,2.38z"/>
		<path class="st3" d="M1149.36,0.62c14.9,0,29.8,0,44.71,0c-0.01,94.25,0.03,188.48-0.03,282.73c-14.89-0.04-29.78,0-44.68-0.01
			C1149.36,189.09,1149.36,94.86,1149.36,0.62z"/>
	</g>
</g>
</svg>
