<?xml version="1.0" encoding="utf-8"?>
<!-- Generator: Adobe Illustrator 27.0.1, SVG Export Plug-In . SVG Version: 6.00 Build 0)  -->
<svg version="1.1" id="Layer_1" xmlns="http://www.w3.org/2000/svg" xmlns:xlink="http://www.w3.org/1999/xlink" x="0px" y="0px"
	 viewBox="0 0 3839 509.1" style="enable-background:new 0 0 3839 509.1;" xml:space="preserve">
<style type="text/css">
	.st0{fill:#D5A53C;}
	.st1{fill:#EA3323;}
	.st2{fill-rule:evenodd;clip-rule:evenodd;fill:#48A2C9;}
	.st3{fill:#FFFFFF;}
	.st4{font-family:'HelveticaNeueLTStd-Md';}
	.st5{font-size:46.2631px;}
	.st6{fill:none;stroke:#FFE000;stroke-width:4.6442;stroke-miterlimit:10;}
</style>
<g>
	<g>
		<rect x="3019.6" y="85.99" class="st0" width="85.58" height="337.12"/>
		<rect x="2523.54" y="85.99" class="st0" width="85.58" height="337.12"/>
		<polygon class="st0" points="2305.94,330.08 2210.1,85.99 2117.41,85.99 2257.42,423.11 2269.41,423.11 2342.46,423.11 
			2354.46,423.11 2494.46,85.99 2401.78,85.99 		"/>
		<rect x="1063.47" y="85.99" class="st0" width="85.58" height="337.12"/>
		<path class="st0" d="M3727.74,85.99h-201.65v14.85v56.07v266.21h85.58V156.9h92.65c27.11,0,49.09,21.98,49.09,49.09v217.12H3839
			V197.25C3839,135.8,3789.19,85.99,3727.74,85.99z"/>
		<path class="st0" d="M1699.99,85.99h-90.17h-42.8h-42.8v337.12h85.58V148.49h41.36c16.97,0,30.73,13.76,30.73,30.73v42.39h85.58
			v-49.64C1767.5,131.65,1746.07,85.99,1699.99,85.99z"/>
		<path class="st0" d="M906.03,85.99h-87.45h-85.58H619.88H534.3v70.92v266.21h85.58V156.9h113.12v266.21h85.58V156.9h64.04
			c27.11,0,49.09,21.98,49.09,49.09v217.12h85.58V197.25C1017.3,135.8,967.49,85.99,906.03,85.99z"/>
		<path class="st0" d="M2894.89,223.3h-103.62l0,0h-16.32l0,0c-54.25,0-54.25-74.81,0-74.81h187.67v-62.5H2737.7
			c-30.43,0-91.13,25.2-91.13,99.91s60.7,99.91,91.13,99.91h103.62l0,0h16.32l0,0c54.25,0,54.25,74.81,0,74.81h-187.67v62.5h224.93
			c30.43,0,91.13-25.2,91.13-99.91S2925.32,223.3,2894.89,223.3z"/>
		<path class="st0" d="M3318.29,78.57c-142.37,0-181.25,107.46-181.25,175.98s38.88,175.98,181.25,175.98
			c142.37,0,181.25-107.46,181.25-175.98S3460.67,78.57,3318.29,78.57z M3409.68,254.33c0.37,76.95-40.45,108.94-91,109.18
			s-91.68-31.35-92.05-108.3l0.26-0.88c0-76.95,40.98-108.74,91.53-108.74c50.54,0,91.53,31.79,91.53,108.74H3409.68z"/>
		<path class="st0" d="M1955.41,78.57c-142.37,0-181.25,107.46-181.25,175.98s38.88,175.98,181.25,175.98
			s181.25-107.46,181.25-175.98S2097.78,78.57,1955.41,78.57z M2046.8,254.33c0.37,76.95-40.45,108.94-91,109.18
			c-50.54,0.24-91.68-31.35-92.05-108.3l0.26-0.88c0-76.95,40.98-108.74,91.53-108.74c50.55,0,91.53,31.79,91.53,108.74H2046.8z"/>
		<path class="st0" d="M1182.62,254.55c0,106.06,64.88,168.56,139.85,168.56h159.75v-66.53h-112.93h-0.01
			c-82.71,0-99.84-70.62-99.84-99.84c0-55.13,44.69-99.84,99.84-99.84h112.94V85.98h-131.03
			C1234.99,85.99,1182.62,161.45,1182.62,254.55z"/>
	</g>
	<g>
		<g>
			<path d="M359.79,36.51C359.79,16.34,343.44,0,323.28,0H36.51C16.34,0,0,16.35,0,36.51V472.6c0,20.17,16.35,36.51,36.51,36.51
				h286.78c20.17,0,36.51-16.35,36.51-36.51V36.51z"/>
			<path class="st1" d="M162.75,140.13c0.04-0.14,0-4.84,0-4.84l-0.74,4.84l-27.26,100.94h-25.58L81.97,140.13
				c-0.29-0.39-0.86-4.94-0.86-4.94v4.94l-0.1,100.94H43.76V30.7h46.01l31.1,114.36l0.58,3.38l0.58-3.38L152.35,30.7h48.06v210.38
				h-37.64L162.75,140.13"/>
			<path class="st2" d="M245.09,65.76c2.23-0.29,10.72-0.16,10.72-0.16c7.93-0.1,24.48,7.48,24.2,23.12
				c-0.35,21.4-16.74,25.82-24.18,25.94c0,0-8.55,0.15-10.74,0.15V65.76 M245.35,152.14c3.46-0.08,11.21,0.08,11.21,0.08
				c14.59,0.12,29.74,9.37,29.45,25.99c-0.33,19.97-15.98,27.54-28.73,27.58c0,0-8.61,0.19-11.96,0.06L245.35,152.14z M207.81,30.7
				l50.43,0.04c36.37,0.04,60.9,26.97,59.58,56.54c-0.88,19.99-9.02,34.65-19.2,43.07c20.76,13.22,29.43,39.2,25.14,61.35
				c-7.11,36.62-37.35,49.44-64.8,49.44h-51.01L207.81,30.7z"/>
			<text transform="matrix(1 0 0 1 93.691 442.3289)" class="st3 st4 st5">MILTON</text>
			<text transform="matrix(1 0 0 1 68.6871 485.4104)" class="st3 st4 st5">BRADLEY</text>
			<polyline class="st6" points="0,357.32 63,357.32 77.82,325.95 94.06,385.39 115.37,315.83 129.9,372.19 143.24,334.46 
				151.63,357.32 185.25,357.32 200.61,324.67 212.3,383.48 239.74,313.68 256.47,380.47 281.86,326.82 293.88,357.32 
				359.79,357.32 			"/>
		</g>
		<g>
			<path class="st3" d="M60.91,292.01H42.91c-1.42-0.36-2.23-1.28-2.45-2.73l4.52-1.64h14.74L60.91,292.01z M40.56,288.19L41.98,274
				l1.21-1.1l2.94,3.28l-1.05,10.37L40.56,288.19z M47.93,258.18l-1.03,10.37l-3.6,3.28l-0.98-1.1l1.42-14.19L47.93,258.18z
				 M62.77,257.08H48.1l-4.2-1.64c0.5-1.46,1.51-2.36,2.99-2.73h17.96L62.77,257.08z M60.91,270.18l1.97,2.18l-2.4,2.18H46.29
				l-1.97-2.18l2.4-2.18H60.91z"/>
			<path class="st3" d="M70.73,276.18l-1.15,11.46l-2.07,4.37c-1.42-0.36-2.23-1.28-2.45-2.73L66.59,274l1.21-1.1L70.73,276.18z
				 M67.89,271.81l-0.98-1.1l1.53-15.28c0.51-1.46,1.52-2.36,3-2.73l1.21,4.36l-1.15,11.46L67.89,271.81z M70.67,287.64h13.09
				l4.2,1.64c-0.51,1.46-1.51,2.36-2.99,2.73H68.6L70.67,287.64z"/>
			<path class="st3" d="M112.44,292.01H94.43c-1.42-0.36-2.23-1.28-2.45-2.73l4.52-1.64h14.74L112.44,292.01z M92.09,288.19
				L93.51,274l1.21-1.1l2.94,3.28l-1.05,10.37L92.09,288.19z M99.45,258.18l-1.03,10.37l-3.6,3.28l-0.98-1.1l1.42-14.19
				L99.45,258.18z M114.3,257.08H99.62l-4.2-1.64c0.5-1.46,1.51-2.36,2.99-2.73h17.96L114.3,257.08z M112.44,270.18l1.97,2.18
				l-2.4,2.18H97.82l-1.97-2.18l2.4-2.18H112.44z"/>
			<path class="st3" d="M137.04,292.01h-18.01c-1.42-0.36-2.23-1.28-2.45-2.73l4.52-1.64h14.74L137.04,292.01z M116.69,288.19
				l1.42-14.19l1.21-1.1l2.94,3.28l-1.05,10.37L116.69,288.19z M124.04,258.18l-1.03,10.37l-3.6,3.28l-0.98-1.1l1.42-14.19
				L124.04,258.18z M138.9,257.08h-14.68l-4.2-1.64c0.5-1.46,1.51-2.36,2.99-2.73h17.96L138.9,257.08z"/>
			<path class="st3" d="M148.69,257.08l-4.21-1.64c0.51-1.46,1.52-2.36,3-2.73h17.4c1.42,0.36,2.24,1.28,2.46,2.73l-4.53,1.64
				H148.69z M154.15,272.91l1.96,2.18l-1.42,14.19c-0.5,1.46-1.51,2.36-2.99,2.73l-1.21-4.37l1.26-12.55L154.15,272.91z
				 M152.29,269.63l1.15-11.46h4.36l-1.15,11.46l-2.4,2.18L152.29,269.63z"/>
			<path class="st3" d="M173.72,276.18l-1.15,11.46l-2.07,4.37c-1.42-0.36-2.23-1.28-2.45-2.73l1.53-15.28l1.21-1.1L173.72,276.18z"
				/>
			<polygon class="st3" points="175.51,258.18 174.49,268.55 170.89,271.81 169.89,270.73 171.31,256.54 			"/>
			<path class="st3" d="M188.73,257.08h-13.04l-4.2-1.64c0.5-1.46,1.51-2.36,2.99-2.73h16.32L188.73,257.08z"/>
			<polygon class="st3" points="188.5,270.18 190.47,272.37 188.07,274.55 173.88,274.55 171.91,272.37 174.33,270.18 			"/>
			<path class="st3" d="M174.87,275.64h3.27l12.77,14.19c-0.87,1.46-2.4,2.18-4.58,2.18l-11.79-13.1L174.87,275.64z"/>
			<path class="st3" d="M188.67,268.55l1.14-11.46l2.07-4.36c1.43,0.36,2.24,1.28,2.46,2.73l-1.53,15.28l-1.21,1.1L188.67,268.55z"
				/>
			<polygon class="st3" points="201.32,276.18 200.17,287.64 198.37,289.28 195.91,286.55 197.17,274 198.37,272.91 			"/>
			<polygon class="st3" points="215.23,289.83 212.83,292.01 200.82,292.01 198.85,289.83 201.27,287.64 213.26,287.64 			"/>
			<polygon class="st3" points="219.11,272.91 220.09,274 218.83,286.55 215.83,289.28 214.36,287.64 215.5,276.18 			"/>
			<g>
				<polygon class="st3" points="198.48,271.81 197.49,270.73 198.74,258.18 201.75,255.45 203.22,257.08 202.08,268.55 				"/>
				<polygon class="st3" points="216.33,257.08 204.31,257.08 202.35,254.9 204.75,252.71 216.75,252.71 218.72,254.9 				"/>
				<polygon class="st3" points="216.27,268.55 217.41,257.08 219.21,255.45 221.67,258.18 220.42,270.73 219.21,271.81 				"/>
			</g>
			<path class="st3" d="M229.77,276.18l-1.15,11.46l-2.07,4.37c-1.42-0.36-2.23-1.28-2.45-2.73l1.53-15.28l1.21-1.1L229.77,276.18z"
				/>
			<path class="st3" d="M247.56,272.91l0.97,1.1L247,289.29c-0.51,1.46-1.51,2.36-2.99,2.73l-1.21-4.37l1.15-11.46L247.56,272.91z"
				/>
			<path class="st3" d="M257.52,272.37l0.97,1.1l-1.53,15.28c-0.51,1.46-1.51,2.36-2.99,2.73l-1.21-4.37l1.15-11.46L257.52,272.37z
				 M254.63,268.55l1.14-11.46l2.07-4.36c1.42,0.36,2.24,1.28,2.46,2.73l-1.53,15.28l-1.21,1.1L254.63,268.55z"/>
			<path class="st3" d="M283.06,292.01h-18.01c-1.42-0.36-2.23-1.28-2.45-2.73l4.52-1.64h14.74L283.06,292.01z M262.71,288.19
				l1.42-14.19l1.21-1.1l2.94,3.28l-1.05,10.37L262.71,288.19z M270.07,258.18l-1.03,10.37l-3.6,3.28l-0.98-1.1l1.42-14.19
				L270.07,258.18z M284.92,257.08h-14.68l-4.2-1.64c0.5-1.46,1.51-2.36,2.99-2.73h17.96L284.92,257.08z"/>
			<path class="st3" d="M305.93,292.01h-16.37c-1.42-0.36-2.23-1.28-2.45-2.73l4.52-1.64h13.09L305.93,292.01z"/>
			<polygon class="st3" points="294.57,258.18 293.54,268.55 289.94,271.81 288.96,270.73 290.37,256.54 			"/>
			<path class="st3" d="M294.74,257.08l-4.2-1.64c0.5-1.46,1.51-2.36,2.99-2.73h17.4c1.43,0.36,2.24,1.28,2.46,2.73l-4.53,1.64
				H294.74z"/>
			<g>
				<polygon class="st3" points="307.56,270.18 309.52,272.37 307.13,274.55 292.93,274.55 290.98,272.37 293.38,270.18 				"/>
				<path class="st3" d="M310.57,272.91l0.97,1.1l-1.53,15.28c-0.51,1.46-1.51,2.36-2.99,2.73l-1.21-4.37l1.15-11.46L310.57,272.91z
					"/>
			</g>
			<g>
				<polygon class="st3" points="227.02,271.81 226.02,270.73 227.28,258.18 230.28,255.45 231.76,257.08 230.62,268.55 				"/>
				<polygon class="st3" points="244.86,257.08 232.85,257.08 230.89,254.9 233.29,252.71 245.29,252.71 247.26,254.9 				"/>
				<polygon class="st3" points="244.8,268.55 245.95,257.08 247.75,255.45 250.21,258.18 248.95,270.73 247.75,271.81 				"/>
			</g>
		</g>
	</g>
</g>
</svg>
