<?xml version="1.0" encoding="utf-8"?>
<!-- Generator: Adobe Illustrator 25.4.1, SVG Export Plug-In . SVG Version: 6.00 Build 0)  -->
<svg version="1.1" id="Layer_1" xmlns="http://www.w3.org/2000/svg" xmlns:xlink="http://www.w3.org/1999/xlink" x="0px" y="0px"
	 viewBox="0 0 3839 1125.9" style="enable-background:new 0 0 3839 1125.9;" xml:space="preserve">
<style type="text/css">
	.st0{fill:#FFFFFF;}
	.st1{fill:#33529C;}
	.st2{fill:url(#SVGID_1_);}
	.st3{fill:url(#SVGID_00000140717773767517902340000011632670258504235447_);}
	.st4{fill:#27569C;}
	.st5{fill:#00ADEB;}
	.st6{fill:url(#SVGID_00000152970031223145709210000007953272966393365377_);}
	.st7{fill:url(#SVGID_00000080197629210579421590000004623756420949172412_);}
	.st8{fill:url(#SVGID_00000147200726566773466180000001028549234218883767_);}
	.st9{fill:url(#SVGID_00000085966737075034740290000014530531249235435422_);}
	.st10{fill:url(#SVGID_00000088844065159247311120000011321128562396841880_);}
	.st11{fill:url(#SVGID_00000150801863374007907990000016869960213908641941_);}
	.st12{fill:url(#SVGID_00000054256881299867557210000016588925429647113657_);}
	.st13{fill:url(#SVGID_00000090264970946256615800000017115135985874350226_);}
	.st14{fill:url(#SVGID_00000048495353547186102620000015407442028375630761_);}
	.st15{fill:url(#SVGID_00000173127135968280861930000010232966855567041190_);}
	.st16{fill:url(#SVGID_00000082349847295702672000000012463271765100682881_);}
	.st17{fill:url(#SVGID_00000111152917562401337600000010455077191679192235_);}
	.st18{fill:url(#SVGID_00000039100323687900297550000004255566302651461765_);}
	.st19{fill:url(#SVGID_00000082359030730388499110000004518114352321148314_);}
	.st20{fill:url(#SVGID_00000009556326618152037560000013651919311110819207_);}
	.st21{fill:url(#SVGID_00000008849005241873583690000006670036752699461764_);}
	.st22{fill:url(#SVGID_00000120538512355856183980000001684333589988275607_);}
	.st23{fill:url(#SVGID_00000098905448121362016900000006104358100758835895_);}
	.st24{fill:url(#SVGID_00000131335952143869767080000001470208238918478493_);}
	.st25{fill:url(#SVGID_00000168823831749616204030000017806466441107320976_);}
	.st26{fill:url(#SVGID_00000009548359236857886270000003716845697659630512_);}
	.st27{fill:#E60012;}
	.st28{fill:url(#SVGID_00000061459079633850158770000011563668999708679314_);}
	.st29{fill:url(#SVGID_00000022523527168743710700000001703834534682114970_);}
	.st30{fill:url(#SVGID_00000026875554729172666960000018318830134326675847_);}
	.st31{fill:url(#SVGID_00000133512846499214041810000012534099116408510109_);}
	.st32{fill:url(#SVGID_00000156564671220578663810000012240481779012757688_);}
	.st33{fill:url(#SVGID_00000113334955341186475330000006831246226747187097_);}
	.st34{fill:url(#SVGID_00000060016550776895102830000014951764242356394142_);}
	.st35{fill:url(#SVGID_00000168078662372814644290000010850175994272189590_);}
	.st36{fill:url(#SVGID_00000152233592834802527060000012438854711983945370_);}
	.st37{fill:url(#SVGID_00000041287544481736846300000016817355408378137734_);}
	.st38{fill:url(#SVGID_00000046321664657417075330000002883755397954956202_);}
	.st39{fill:url(#SVGID_00000003074929657536373940000000332853586967722675_);}
	.st40{fill:url(#SVGID_00000060001472639305996370000004421612002555094407_);}
	.st41{fill:url(#SVGID_00000148626251000932741500000015499813807459495076_);}
	.st42{fill:url(#SVGID_00000027573247015488238030000001909282810768862883_);}
	.st43{fill:url(#SVGID_00000090982596446273641720000016011489832190342786_);}
	.st44{fill:url(#SVGID_00000090975400776989324950000016902859698772627612_);}
	.st45{fill:url(#SVGID_00000070105165677372170570000001532306603815091865_);}
	.st46{fill:url(#SVGID_00000146473128064083135920000005163270909682661791_);}
</style>
<g>
	<g>
		<path class="st1" d="M976.7,972.8C590.8,1192.8,155.3,1166.2,34,953.5c-121.4-213.1,92.8-564,478.5-784.4
			c386-220.2,796.9-226.1,918.8-13.2C1552.6,368.4,1362.6,752.4,976.7,972.8"/>
		<path class="st0" d="M911,881.6c-346.7,198.1-716.4,203.6-825.6,12.2C-24,702.5,168.9,387,515.5,188.8
			C862.1-9.1,1231.9-14.5,1341.3,177C1450.5,368.2,1257.9,683.7,911,881.6"/>
		<path class="st1" d="M985.1,413.3c-7.9-17.5-21.8-36.5-40.6-44.5c-42.9-19.1-106.7-2.2-175.3,37.9c-30.8,18.1-71.9,48.1-97.2,74.2
			c-29,0-54.7,0-77.6,0c134-128.5,303-186.1,368.9-150.5c13.4,7.2,20.9,17.1,24.3,31.5c1.7,5.9,2.2,12.5,2.2,19.3
			C989.8,390.8,987.9,401.7,985.1,413.3 M1271.1,315.7L1271.1,315.7c-4.7-46.8-27.5-87.6-64.9-114.8c-125.5-91.2-405.5-25-652,153.9
			c-54.7,39.7-102.4,82.1-143.6,126.1c-27.9,0-184.6,0-184.6,0L124.1,612.8c0,0,93.8,0,189.6,0c-24.3,46.5-37.5,91-37.5,131.4
			c0,54.9,23.2,102.1,65.6,132.8c80.6,58.8,225.4,54,397-13.4l74.7-29.3l-83.3-92.6h-41.8c-80.1,37.4-157.8,47-197.5,25.7
			c-15.2-8-23.4-19.7-25.7-37.7c-0.9-4.3-1.1-8.6-1.1-13.2c0-28.6,12-65.1,33.2-103.7c10.9,0,61.7,0,129.6,0
			c6.6,21.7,21.7,39.3,43.3,49c42.8,18.7,106.9,6.8,175.5-33.2c7.9-4.8,16.2-10,24.3-15.8c132.5,0,249.2,0,249.2,0s5-1.1,8.7-4.6
			c4.5-4.3,15.9-17,15.9-17c84-91.7,128-180.2,128-257.2C1271.8,328,1271.6,321.8,1271.1,315.7"/>
		<linearGradient id="SVGID_1_" gradientUnits="userSpaceOnUse" x1="184.9771" y1="513.0516" x2="1214.5355" y2="513.0516">
			<stop  offset="0" style="stop-color:#FFFFFF"/>
			<stop  offset="0.8351" style="stop-color:#00ADEB"/>
		</linearGradient>
		<path class="st2" d="M539.1,442.4c139.4-143.5,328.8-219.2,422.4-168.6c22.9,12.5,37.9,31.8,44.1,57.6
			c10.2,43.1-4.1,101.9-38.8,163.6H493.9C507.5,477.3,522.5,459.6,539.1,442.4 M1213.9,291c-3.2-36.1-20-66.3-48.4-87
			c-111-82.1-378.6-13.8-608.6,155.9c-59,43.5-109.4,89.2-150.2,135.1H225L185,547.7h179.3c-44.5,61.8-69.2,121.9-69.2,173.7
			c0,42.4,17.2,77.6,49.3,101.2c69.2,51.3,204.5,44.5,362-18.3l21.5-8.4l-39.1-44.5l-10,4.6c-91.9,43.2-173.8,52.3-224.2,25.2
			c-26.1-14.1-41.8-37.2-46.3-68.6c-6.4-46.1,11.2-104.6,48.3-165h625.8c0,0,5.9,0.2,10.4-4.9c4.6-4.8,4.6-4.8,4.6-4.8
			C1178.8,447.6,1220.3,360,1213.9,291"/>
		
			<linearGradient id="SVGID_00000183932539069894620340000014962710609140070563_" gradientUnits="userSpaceOnUse" x1="635.9361" y1="492.5689" x2="933.087" y2="492.5689">
			<stop  offset="0" style="stop-color:#FFFFFF"/>
			<stop  offset="1" style="stop-color:#00ADEB"/>
		</linearGradient>
		<path style="fill:url(#SVGID_00000183932539069894620340000014962710609140070563_);" d="M932.6,396.5
			c6.7,47.3-53.7,128.7-135.5,181.8c-81.5,53.1-153.4,57.9-160.5,10.5c-7.1-47.2,53.6-128.7,135.3-181.9
			C853.5,353.7,925.4,348.9,932.6,396.5"/>
		<path class="st0" d="M878.9,399.9c2.3,15.7-17.8,42.9-45,60.6c-27.1,17.8-51.3,19.3-53.6,3.6c-2.2-15.8,17.9-43.1,45.2-60.6
			C852.8,385.8,876.8,384.2,878.9,399.9"/>
		<path d="M1695.1,656h-108.7c-17.5,0-43.9,14.8-57.9,32.5l-84.7,108.3c-14.3,18-40,32.4-57.9,32.4h-65.1c-18,0-21.1-14.3-7.1-32.4
			L1433,645.1c13.6-17.4,39.6-32.4,57.6-32.4h238.1c18.1,0,25,10,15.4,22C1734.9,646.7,1713,656,1695.1,656"/>
		<path d="M2006.8,656h-86.5c-17.5,0-40.4,10-49.3,21.8c-9.3,12-2.5,21.4,15.4,21.4h86.7c18,0,39.8-9.5,49.1-21.4
			C2031.8,666,2024.7,656,2006.8,656 M1978.9,829.2h-324.4c-18.1,0-21.3-14.3-7-32.4l119.1-151.8c13.9-17.4,40.1-32.4,57.9-32.4
			h324.4c18,0,21.4,15,7.5,32.4l-51.3,65.2c-14.1,17.9-40.4,32.2-57.9,32.2h-194.8c-17.9,0-40.2,10-49.3,22
			c-9.7,11.4-2.5,21.5,15.5,21.5h194.7c17.9,0,24.3,10,15.4,22C2019.7,819.4,1996.8,829.2,1978.9,829.2"/>
		<path d="M2356.4,742.5h-86.3c-18,0-40.2,10-49.9,22c-9.1,11.4-2.5,21.5,15.6,21.5h86.7c17.8,0,40-10,49.5-21.5
			C2381.1,752.6,2374.3,742.5,2356.4,742.5 M2418.1,829.2h-324.4c-17.9,0-20.9-14.3-7-32.4l51.3-65.3c13.9-17.9,39.9-32.4,57.5-32.4
			h194.6c18,0,39.9-9.5,49.9-21.4c9.1-11.8,2.5-21.8-15.5-21.8h-194.7c-17.7,0-25.2-9.3-15.5-21.3c9.1-12,31.2-22,49.3-22h324.8
			c17.5,0,21.1,15,7.1,32.4l-119.4,151.8C2462.3,814.9,2436.2,829.2,2418.1,829.2"/>
		<path d="M2870.7,688.6c13.9-17.7,10.9-32.5-7-32.5h-86.5c-18.1,0-44,14.8-57.9,32.5l-51.2,65c-14.1,17.9-11,32.4,6.8,32.4h86.5
			c18.1,0,44-14.5,57.9-32.4L2870.7,688.6 M2857.3,829.2h-324.4c-18.1,0-20.9-14.3-6.9-32.4l119.4-151.8
			c13.6-17.4,39.7-32.4,57.5-32.4h194.7c18.1,0,44.2-14.3,58.4-32.4l16.7-21.4c13.9-18,40.2-32.9,58-32.9h64.7
			c17.9,0,21.1,14.9,7,32.9l-186.6,237.9C2901.6,814.9,2875.2,829.2,2857.3,829.2"/>
		<path d="M3324.3,656h-86.7c-17.3,0-39.9,10-49.3,21.8c-8.9,12-2.1,21.4,15.7,21.4h86.6c17.9,0,40-9.5,49-21.4
			C3349.6,666,3342.4,656,3324.3,656 M3296.5,829.2H2972c-17.8,0-20.9-14.3-7-32.4l119-151.8c13.9-17.4,39.9-32.4,57.9-32.4h324.8
			c17.9,0,21.1,15,7.2,32.4l-51.1,65.2c-13.9,17.9-40.6,32.2-57.9,32.2h-195c-18.1,0-40.2,10-49.3,22c-9.5,11.4-2.3,21.5,15.5,21.5
			h194.7c18,0,24.6,10,15.2,22C3337.2,819.4,3314.5,829.2,3296.5,829.2"/>
		<path d="M3785.5,656H3677c-17.5,0-44,14.8-57.9,32.5l-84.7,108.3c-14.3,18-40,32.4-57.9,32.4h-65.2c-18.1,0-20.9-14.3-7-32.4
			l119-151.8c13.9-17.4,40-32.4,57.9-32.4h238c18,0,25.2,10,15.5,22C3825.2,646.7,3803.6,656,3785.5,656"/>
	</g>
	<g>
		<path d="M2059,237.8l-81.5-131.9h-58.9l0,189.1h58.5V163.2L2059,295h58.4V105.9h-58.5L2059,237.8z M2522.8,169.6v-18.7H2492v-25.5
			h-56.9l0,25.5h-30.9v18.7h30.9V295h57l-0.1-125.5H2522.8z M2149.9,295h56.8V169.3l-56.8-0.1V295z M2149.7,144.5h57v-38.7h-57
			V144.5z M3146.2,160.7c-45.9,0-83.1,31.6-83.1,70.6c0,39,37.2,70.6,83.1,70.6c45.9,0,83.1-31.6,83.1-70.6
			C3229.3,192.3,3192.1,160.7,3146.2,160.7 M3169,257.8c0,20-11.8,28.3-23.2,28.3c-11.4,0-23.2-8.3-23.2-28.3v-27.1
			c0,0,0-18.6,0-26.2c0-19.9,11.9-28.2,23.2-28.2s23.2,8.3,23.2,28.2c0,7.6,0,21.7,0.1,26.7C3169.1,231.5,3169,250.2,3169,257.8
			 M2988.5,175.5c-9.1-5.1-18.7-10-32.2-11.2c-41-3.6-72.3,32.6-72.3,65.8c0,43.7,33.7,59.9,38.8,62.3c19.2,8.9,43.7,8.9,65.4-4.7
			c0,1.2,0,7.3,0,7.3h56.2V105.9h-56V175.5z M2988.9,231.5v22.3c0,19.4-13.4,24.5-22.3,24.5c-9,0-22.3-5.1-22.3-24.5v-22.4V209
			c0-19.5,13.3-24.4,22.3-24.4c8.8,0,22.2,4.9,22.2,24.4C2988.9,215.7,2988.9,231.5,2988.9,231.5 M2339.9,163.5
			c-18.8,0.5-34.5,8.6-45.3,18.9c-0.1-3.1,0-13.2,0-13.2l-56.5,0.1l0.1,125.7h56.4c0,0-0.1-77.2-0.1-82.6c0-10.9,11.6-23.1,27-23.1
			c15.5,0,26,12.2,26,23.1V295h56.6c0,0-0.1-59.5,0-68.4C2404.2,176.8,2361.1,162.9,2339.9,163.5 M2801.9,163.5
			c-18.8,0.5-34.5,8.6-45.4,18.9c-0.1-3.1,0-13.2,0-13.2l-56.4,0.1l-0.1,125.7h56.5c0,0-0.1-77.2-0.1-82.6c0-10.9,11.6-23.1,27-23.1
			c15.5,0,26,12.2,26,23.1V295h56.5c0,0-0.1-59.5,0-68.4C2866.2,176.8,2823.1,162.9,2801.9,163.5 M2682.9,232.7
			c0-39-37.6-71.3-83.9-71.3c-46.2,0-83.7,31.6-83.7,70.6c0,39,37.5,70.6,83.7,70.6c38.4,0,70.8-21.9,80.7-51.6l-56.7,0
			c0,0,0.1,0.6,0.1,7.6c0,23-15.1,28.1-23.5,28.1c-8.4,0-23.8-5.1-23.8-28.1c0-6.9,0.1-26,0.1-26S2682.9,232.7,2682.9,232.7
			 M2579.5,188.4c4.5-7.7,12.6-11.4,20-11.5c7.4,0.1,15.6,3.7,20,11.5c3.5,6.3,3.8,13.7,3.7,24.7h-47.4
			C2575.7,202.1,2575.9,194.7,2579.5,188.4 M3251.9,129.3c0-6.2-4.5-9.3-13.7-9.3h-12.7v32.2h7.8v-13.2h3.9l6.1,13.2h8.7l-7.2-14.4
			C3249.3,136.7,3251.9,133.5,3251.9,129.3 M3237.2,134.3h-3.9V125h3.4c4.7,0,7.1,1.4,7.1,4.8C3243.8,133,3241.7,134.3,3237.2,134.3
			 M3237.5,107.4c-16.1,0-29.2,13-29.2,29.1s13.1,29.1,29.2,29.1c16,0,29-13,29-29.1S3253.5,107.4,3237.5,107.4 M3237.5,160
			c-13,0-23.6-10.5-23.6-23.5s10.5-23.5,23.6-23.5c13,0,23.5,10.6,23.5,23.5S3250.4,160,3237.5,160 M3174,0H1969.8
			c-127.4-0.3-213,91.3-213,201.1c0,109.9,85.4,200.4,213.3,200.5h1203.7c127.9-0.1,213.2-90.6,213.2-200.5
			C3387,91.3,3301.4-0.3,3174,0 M3173.4,352.3h-1203c-101.6,0.4-163.3-67.8-163.3-151.5c0-83.7,62.1-151.3,163.3-151.5h1203
			c101.2,0.2,163.3,67.8,163.3,151.5C3336.7,284.5,3275,352.7,3173.4,352.3"/>
	</g>
</g>
</svg>
