<?xml version="1.0" encoding="utf-8"?>
<!-- Generator: Adobe Illustrator 25.4.1, SVG Export Plug-In . SVG Version: 6.00 Build 0)  -->
<svg version="1.1" id="Layer_1" xmlns="http://www.w3.org/2000/svg" xmlns:xlink="http://www.w3.org/1999/xlink" x="0px" y="0px"
	 viewBox="0 0 3839 1125.9" style="enable-background:new 0 0 3839 1125.9;" xml:space="preserve">
<style type="text/css">
	.st0{fill:#FFFFFF;}
	.st1{fill:#33529C;}
	.st2{fill:url(#SVGID_1_);}
	.st3{fill:url(#SVGID_00000050647586479549809930000009886899309355449519_);}
	.st4{fill:#27569C;}
	.st5{fill:#00ADEB;}
	.st6{fill:url(#SVGID_00000176754395126743516250000009340313414380767385_);}
	.st7{fill:url(#SVGID_00000031915225638265897920000011541299073880447136_);}
	.st8{fill:url(#SVGID_00000042706926749393027370000011247658277166452891_);}
	.st9{fill:url(#SVGID_00000172441302074004561060000009824551263076823466_);}
	.st10{fill:url(#SVGID_00000101081737253902853880000009032402371663924639_);}
	.st11{font-family:'HelveticaNeueLTStd-Md';}
	.st12{font-size:94.002px;}
	.st13{fill:url(#SVGID_00000014636472840935273820000004588073626905485215_);}
	.st14{fill:url(#SVGID_00000003088280507085156640000011054236263317134736_);}
	.st15{fill:url(#SVGID_00000102526013541192090980000014007500976295839128_);}
	.st16{fill:url(#SVGID_00000051364956949184154920000017152925411267364022_);}
	.st17{fill:url(#SVGID_00000016761190205987687550000002641043307214710183_);}
	.st18{fill:url(#SVGID_00000091007934000243083760000008320404018242344839_);}
	.st19{fill:url(#SVGID_00000040553680694829677050000017441505097649215626_);}
	.st20{fill:url(#SVGID_00000044880968084037720270000006862932605519687613_);}
	.st21{fill:url(#SVGID_00000079481053135546123120000003533612961983448736_);}
	.st22{fill:url(#SVGID_00000049924820730012047790000017897586055123730106_);}
	.st23{fill:url(#SVGID_00000048495708335918544090000004759754768664423067_);}
	.st24{fill:url(#SVGID_00000109747490185583552470000004751410126032735123_);}
	.st25{fill:url(#SVGID_00000072964449991921416260000013743654755206003584_);}
	.st26{fill:url(#SVGID_00000101063078544979445830000008817288769778495119_);}
	.st27{fill:url(#SVGID_00000123432008039675106120000011623098252904723334_);}
	.st28{fill:url(#SVGID_00000148648040344915344170000000592955062166096543_);}
	.st29{fill:#E60012;}
	.st30{fill:url(#SVGID_00000006686958547151888600000006494063086055825593_);}
	.st31{fill:url(#SVGID_00000103238687649132886760000011306234260774119092_);}
	.st32{fill:url(#SVGID_00000096052988156909573200000000529509451920545153_);}
	.st33{fill:url(#SVGID_00000089576049109812270990000002050520960090920346_);}
	.st34{fill:url(#SVGID_00000114034103367505168110000016386871773870423983_);}
	.st35{fill:url(#SVGID_00000100353430191293957700000008793669447035386287_);}
	.st36{fill:url(#SVGID_00000064336456005066061980000017708215331166748326_);}
	.st37{fill:url(#SVGID_00000134956723638569420280000016110226688979127986_);}
	.st38{fill:url(#SVGID_00000090978193619414703640000014188159959138880444_);}
	.st39{fill:url(#SVGID_00000095322588032599568890000010561959303665555594_);}
	.st40{fill:url(#SVGID_00000089567961337529318950000014261359383312915854_);}
	.st41{fill:url(#SVGID_00000025415301231605888710000017599527853598348706_);}
	.st42{fill:url(#SVGID_00000062169513222493641350000010613205527220793764_);}
	.st43{fill:url(#SVGID_00000158725207977963155390000009593380775831722904_);}
	.st44{fill:url(#SVGID_00000164499431913527216860000015748494789094922382_);}
	.st45{fill:url(#SVGID_00000085224845143251734610000010607272050891006871_);}
	.st46{fill:url(#SVGID_00000072984419483444080900000006076389059506168199_);}
	.st47{fill:url(#SVGID_00000118394959884051169460000002838297853638058663_);}
	.st48{fill:url(#SVGID_00000024696567821342723380000014860303815098664334_);}
</style>
<g>
	<path class="st1" d="M976.7,972.8C590.8,1192.8,155.3,1166.2,34,953.5c-121.4-213.1,92.8-564,478.5-784.4
		c386-220.2,796.9-226.1,918.8-13.2C1552.6,368.4,1362.6,752.4,976.7,972.8"/>
	<path class="st0" d="M911,881.6c-346.7,198.1-716.4,203.6-825.6,12.2C-24,702.5,168.9,387,515.5,188.8
		C862.1-9.1,1231.9-14.5,1341.3,177C1450.5,368.2,1257.9,683.7,911,881.6"/>
	<path class="st1" d="M985.1,413.3c-7.9-17.5-21.8-36.5-40.6-44.5c-42.9-19.1-106.7-2.2-175.3,37.9c-30.8,18.1-71.9,48.1-97.2,74.2
		c-29,0-54.7,0-77.6,0c134-128.5,303-186.1,368.9-150.5c13.4,7.2,20.9,17.1,24.3,31.5c1.7,5.9,2.2,12.5,2.2,19.3
		C989.8,390.8,987.9,401.7,985.1,413.3 M1271.1,315.7L1271.1,315.7c-4.7-46.8-27.5-87.6-64.9-114.8c-125.5-91.2-405.5-25-652,153.9
		c-54.7,39.7-102.4,82.1-143.6,126.1c-27.9,0-184.6,0-184.6,0L124.1,612.8c0,0,93.8,0,189.6,0c-24.3,46.5-37.5,91-37.5,131.4
		c0,54.9,23.2,102.1,65.6,132.8c80.6,58.8,225.4,54,397-13.4l74.7-29.3l-83.3-92.6h-41.8c-80.1,37.4-157.8,47-197.5,25.7
		c-15.2-8-23.4-19.7-25.7-37.7c-0.9-4.3-1.1-8.6-1.1-13.2c0-28.6,12-65.1,33.2-103.7c10.9,0,61.7,0,129.6,0
		c6.6,21.7,21.7,39.3,43.3,49c42.8,18.7,106.9,6.8,175.5-33.2c7.9-4.8,16.2-10,24.3-15.8c132.5,0,249.2,0,249.2,0s5-1.1,8.7-4.6
		c4.5-4.3,15.9-17,15.9-17c84-91.7,128-180.2,128-257.2C1271.8,328,1271.6,321.8,1271.1,315.7"/>
	<linearGradient id="SVGID_1_" gradientUnits="userSpaceOnUse" x1="184.9771" y1="513.0516" x2="1214.5355" y2="513.0516">
		<stop  offset="0" style="stop-color:#FFFFFF"/>
		<stop  offset="0.8351" style="stop-color:#00ADEB"/>
	</linearGradient>
	<path class="st2" d="M539.1,442.4c139.4-143.5,328.8-219.2,422.4-168.6c22.9,12.5,37.9,31.8,44.1,57.6
		c10.2,43.1-4.1,101.9-38.8,163.6H493.9C507.5,477.3,522.5,459.6,539.1,442.4 M1213.9,291c-3.2-36.1-20-66.3-48.4-87
		c-111-82.1-378.6-13.8-608.6,155.9c-59,43.5-109.4,89.2-150.2,135.1H225L185,547.7h179.3c-44.5,61.8-69.2,121.9-69.2,173.7
		c0,42.4,17.2,77.6,49.3,101.2c69.2,51.3,204.5,44.5,362-18.3l21.5-8.4l-39.1-44.5l-10,4.6c-91.9,43.2-173.8,52.3-224.2,25.2
		c-26.1-14.1-41.8-37.2-46.3-68.6c-6.4-46.1,11.2-104.6,48.3-165h625.8c0,0,5.9,0.2,10.4-4.9c4.6-4.8,4.6-4.8,4.6-4.8
		C1178.8,447.6,1220.3,360,1213.9,291"/>
	
		<linearGradient id="SVGID_00000133520695684288235770000014989723060099643062_" gradientUnits="userSpaceOnUse" x1="635.9361" y1="492.5689" x2="933.087" y2="492.5689">
		<stop  offset="0" style="stop-color:#FFFFFF"/>
		<stop  offset="1" style="stop-color:#00ADEB"/>
	</linearGradient>
	<path style="fill:url(#SVGID_00000133520695684288235770000014989723060099643062_);" d="M932.6,396.5
		c6.7,47.3-53.7,128.7-135.5,181.8c-81.5,53.1-153.4,57.9-160.5,10.5c-7.1-47.2,53.6-128.7,135.3-181.9
		C853.5,353.7,925.4,348.9,932.6,396.5"/>
	<path class="st0" d="M878.9,399.9c2.3,15.7-17.8,42.9-45,60.6c-27.1,17.8-51.3,19.3-53.6,3.6c-2.2-15.8,17.9-43.1,45.2-60.6
		C852.8,385.8,876.8,384.2,878.9,399.9"/>
	<path d="M1695.1,656h-108.7c-17.5,0-43.9,14.8-57.9,32.5l-84.7,108.3c-14.3,18-40,32.4-57.9,32.4h-65.1c-18,0-21.1-14.3-7.1-32.4
		L1433,645.1c13.6-17.4,39.6-32.4,57.6-32.4h238.1c18.1,0,25,10,15.4,22C1734.9,646.7,1713,656,1695.1,656"/>
	<path d="M2006.8,656h-86.5c-17.5,0-40.4,10-49.3,21.8c-9.3,12-2.5,21.4,15.4,21.4h86.7c18,0,39.8-9.5,49.1-21.4
		C2031.8,666,2024.7,656,2006.8,656 M1978.9,829.2h-324.4c-18.1,0-21.3-14.3-7-32.4l119.1-151.8c13.9-17.4,40.1-32.4,57.9-32.4
		h324.4c18,0,21.4,15,7.5,32.4l-51.3,65.2c-14.1,17.9-40.4,32.2-57.9,32.2h-194.8c-17.9,0-40.2,10-49.3,22
		c-9.7,11.4-2.5,21.5,15.5,21.5h194.7c17.9,0,24.3,10,15.4,22C2019.7,819.4,1996.8,829.2,1978.9,829.2"/>
	<path d="M2356.4,742.5h-86.3c-18,0-40.2,10-49.9,22c-9.1,11.4-2.5,21.5,15.6,21.5h86.7c17.8,0,40-10,49.5-21.5
		C2381.1,752.6,2374.3,742.5,2356.4,742.5 M2418.1,829.2h-324.4c-17.9,0-20.9-14.3-7-32.4l51.3-65.3c13.9-17.9,39.9-32.4,57.5-32.4
		h194.6c18,0,39.9-9.5,49.9-21.4c9.1-11.8,2.5-21.8-15.5-21.8h-194.7c-17.7,0-25.2-9.3-15.5-21.3c9.1-12,31.2-22,49.3-22h324.8
		c17.5,0,21.1,15,7.1,32.4l-119.4,151.8C2462.3,814.9,2436.2,829.2,2418.1,829.2"/>
	<path d="M2870.7,688.6c13.9-17.7,10.9-32.5-7-32.5h-86.5c-18.1,0-44,14.8-57.9,32.5l-51.2,65c-14.1,17.9-11,32.4,6.8,32.4h86.5
		c18.1,0,44-14.5,57.9-32.4L2870.7,688.6 M2857.3,829.2h-324.4c-18.1,0-20.9-14.3-6.9-32.4l119.4-151.8
		c13.6-17.4,39.7-32.4,57.5-32.4h194.7c18.1,0,44.2-14.3,58.4-32.4l16.7-21.4c13.9-18,40.2-32.9,58-32.9h64.7
		c17.9,0,21.1,14.9,7,32.9l-186.6,237.9C2901.6,814.9,2875.2,829.2,2857.3,829.2"/>
	<path d="M3324.3,656h-86.7c-17.3,0-39.9,10-49.3,21.8c-8.9,12-2.1,21.4,15.7,21.4h86.6c17.9,0,40-9.5,49-21.4
		C3349.6,666,3342.4,656,3324.3,656 M3296.5,829.2H2972c-17.8,0-20.9-14.3-7-32.4l119-151.8c13.9-17.4,39.9-32.4,57.9-32.4h324.8
		c17.9,0,21.1,15,7.2,32.4l-51.1,65.2c-13.9,17.9-40.6,32.2-57.9,32.2h-195c-18.1,0-40.2,10-49.3,22c-9.5,11.4-2.3,21.5,15.5,21.5
		h194.7c18,0,24.6,10,15.2,22C3337.2,819.4,3314.5,829.2,3296.5,829.2"/>
	<path d="M3785.5,656H3677c-17.5,0-44,14.8-57.9,32.5l-84.7,108.3c-14.3,18-40,32.4-57.9,32.4h-65.2c-18.1,0-20.9-14.3-7-32.4
		l119-151.8c13.9-17.4,40-32.4,57.9-32.4h238c18,0,25.2,10,15.5,22C3825.2,646.7,3803.6,656,3785.5,656"/>
	<text transform="matrix(1 0 0 1 1012.7487 1103.2363)" class="st4 st11 st12">TM</text>
</g>
</svg>
