<?xml version="1.0" encoding="utf-8"?>
<!-- Generator: Adobe Illustrator 25.4.1, SVG Export Plug-In . SVG Version: 6.00 Build 0)  -->
<svg version="1.1" id="Layer_1" xmlns="http://www.w3.org/2000/svg" xmlns:xlink="http://www.w3.org/1999/xlink" x="0px" y="0px"
	 viewBox="0 0 3839 1125.9" style="enable-background:new 0 0 3839 1125.9;" xml:space="preserve">
<style type="text/css">
	.st0{fill:#FFFFFF;}
	.st1{fill:#33529C;}
	.st2{fill:url(#SVGID_1_);}
	.st3{fill:url(#SVGID_00000039814784965079924940000004503209613199460484_);}
	.st4{fill:#27569C;}
	.st5{fill:#00ADEB;}
	.st6{fill:url(#SVGID_00000071533776275759078900000008504150409567433379_);}
	.st7{fill:url(#SVGID_00000016073623276394492150000005848543929262797965_);}
	.st8{fill:url(#SVGID_00000054258444242248870650000002348551588421651347_);}
	.st9{fill:url(#SVGID_00000109028961811859076210000003523500763446557343_);}
	.st10{fill:url(#SVGID_00000165222603959291267780000017620594506567840133_);}
	.st11{fill:url(#SVGID_00000080904180554890865520000004779153100099861632_);}
	.st12{fill:url(#SVGID_00000090291272428254148720000006371949871545107869_);}
	.st13{fill:url(#SVGID_00000067938155267827168310000001536545355724214945_);}
	.st14{fill:url(#SVGID_00000057147899950328090360000005046874779581019054_);}
	.st15{fill:url(#SVGID_00000021799507080842631480000011469261005616347297_);}
	.st16{fill:url(#SVGID_00000004503961687862149120000015330618165547144358_);}
	.st17{fill:url(#SVGID_00000138531536059345212830000004917659999478232238_);}
	.st18{fill:url(#SVGID_00000146468619621348183840000010252405208631147912_);}
	.st19{fill:url(#SVGID_00000101084998329233512860000005595928125846834857_);}
	.st20{fill:url(#SVGID_00000168830758057302241430000009273740149199709331_);}
	.st21{fill:url(#SVGID_00000034063649467311955680000016308766608773826965_);}
	.st22{fill:url(#SVGID_00000096050747107323198250000010112267311841726399_);}
	.st23{fill:url(#SVGID_00000057115957579414488560000013800306133892793243_);}
	.st24{fill:url(#SVGID_00000049922173189496562880000003425234258538422685_);}
	.st25{fill:url(#SVGID_00000173119233315149634540000004407574032387943562_);}
	.st26{fill:url(#SVGID_00000142864491229946338930000009606598739337174194_);}
	.st27{fill:#E60012;}
	.st28{fill:url(#SVGID_00000127740593940235203110000002928236965725711011_);}
	.st29{fill:url(#SVGID_00000135675355565138468740000013416192460495119538_);}
	.st30{fill:url(#SVGID_00000145046855310983344830000010071172027925815739_);}
	.st31{fill:url(#SVGID_00000052080491024423633270000013485668880572143510_);}
	.st32{fill:url(#SVGID_00000089538927219829638400000010882365416445452185_);}
	.st33{fill:url(#SVGID_00000090283343416527777260000008526414642369178029_);}
	.st34{fill:url(#SVGID_00000151534856223887169880000012053864416198996874_);}
	.st35{fill:url(#SVGID_00000095335862366364520870000013036046879515522998_);}
	.st36{fill:url(#SVGID_00000005249678484827573220000003506701139649905286_);}
	.st37{fill:url(#SVGID_00000043429811424520949490000000672966813413545659_);}
	.st38{fill:url(#SVGID_00000065763411078945565180000009370950533197433237_);}
	.st39{fill:url(#SVGID_00000015325579135035300930000006725887660811986316_);}
	.st40{fill:url(#SVGID_00000132774905528105418790000003597509730901541290_);}
	.st41{fill:url(#SVGID_00000137821921257643233010000016901299234768284323_);}
	.st42{fill:url(#SVGID_00000160890269121708484680000017750835084999345540_);}
	.st43{fill:url(#SVGID_00000183953472746299002970000005673562563231697055_);}
	.st44{fill:url(#SVGID_00000084493263775596633490000003709194328683103619_);}
	.st45{fill:url(#SVGID_00000054949161234244593370000017427334699305562803_);}
	.st46{fill:url(#SVGID_00000181775065580537371730000000355326701955386263_);}
</style>
<g>
	<path class="st1" d="M976.7,972.8C590.8,1192.8,155.3,1166.2,34,953.5c-121.4-213.1,92.8-564,478.5-784.4
		c386-220.2,796.9-226.1,918.8-13.2C1552.6,368.4,1362.6,752.4,976.7,972.8"/>
	<path class="st0" d="M911,881.6c-346.7,198.1-716.4,203.6-825.6,12.2C-24,702.5,168.9,387,515.5,188.8
		C862.1-9.1,1231.9-14.5,1341.3,177C1450.5,368.2,1257.9,683.7,911,881.6"/>
	<path class="st1" d="M985.1,413.3c-7.9-17.5-21.8-36.5-40.6-44.5c-42.9-19.1-106.7-2.2-175.3,37.9c-30.8,18.1-71.9,48.1-97.2,74.2
		c-29,0-54.7,0-77.6,0c134-128.5,303-186.1,368.9-150.5c13.4,7.2,20.9,17.1,24.3,31.5c1.7,5.9,2.2,12.5,2.2,19.3
		C989.8,390.8,987.9,401.7,985.1,413.3 M1271.1,315.7L1271.1,315.7c-4.7-46.8-27.5-87.6-64.9-114.8c-125.5-91.2-405.5-25-652,153.9
		c-54.7,39.7-102.4,82.1-143.6,126.1c-27.9,0-184.6,0-184.6,0L124.1,612.8c0,0,93.8,0,189.6,0c-24.3,46.5-37.5,91-37.5,131.4
		c0,54.9,23.2,102.1,65.6,132.8c80.6,58.8,225.4,54,397-13.4l74.7-29.3l-83.3-92.6h-41.8c-80.1,37.4-157.8,47-197.5,25.7
		c-15.2-8-23.4-19.7-25.7-37.7c-0.9-4.3-1.1-8.6-1.1-13.2c0-28.6,12-65.1,33.2-103.7c10.9,0,61.7,0,129.6,0
		c6.6,21.7,21.7,39.3,43.3,49c42.8,18.7,106.9,6.8,175.5-33.2c7.9-4.8,16.2-10,24.3-15.8c132.5,0,249.2,0,249.2,0s5-1.1,8.7-4.6
		c4.5-4.3,15.9-17,15.9-17c84-91.7,128-180.2,128-257.2C1271.8,328,1271.6,321.8,1271.1,315.7"/>
	<path class="st5" d="M539.1,442.4c139.4-143.5,328.8-219.2,422.4-168.6c22.9,12.5,37.9,31.8,44.1,57.6
		c10.2,43.1-4.1,101.9-38.8,163.6H493.9C507.5,477.3,522.5,459.6,539.1,442.4 M1213.9,291c-3.2-36.1-20-66.3-48.4-87
		c-111-82.1-378.6-13.8-608.6,155.9c-59,43.5-109.4,89.2-150.2,135.1H225L185,547.7h179.3c-44.5,61.8-69.2,121.9-69.2,173.7
		c0,42.4,17.2,77.6,49.3,101.2c69.2,51.3,204.5,44.5,362-18.3l21.5-8.4l-39.1-44.5l-10,4.6c-91.9,43.2-173.8,52.3-224.2,25.2
		c-26.1-14.1-41.8-37.2-46.3-68.6c-6.4-46.1,11.2-104.6,48.3-165h625.8c0,0,5.9,0.2,10.4-4.9c4.6-4.8,4.6-4.8,4.6-4.8
		C1178.8,447.6,1220.3,360,1213.9,291"/>
	<linearGradient id="SVGID_1_" gradientUnits="userSpaceOnUse" x1="635.9361" y1="492.5689" x2="933.087" y2="492.5689">
		<stop  offset="0" style="stop-color:#FFFFFF"/>
		<stop  offset="1" style="stop-color:#00ADEB"/>
	</linearGradient>
	<path class="st2" d="M932.6,396.5c6.7,47.3-53.7,128.7-135.5,181.8c-81.5,53.1-153.4,57.9-160.5,10.5
		c-7.1-47.2,53.6-128.7,135.3-181.9C853.5,353.7,925.4,348.9,932.6,396.5"/>
	<path class="st0" d="M878.9,399.9c2.3,15.7-17.8,42.9-45,60.6c-27.1,17.8-51.3,19.3-53.6,3.6c-2.2-15.8,17.9-43.1,45.2-60.6
		C852.8,385.8,876.8,384.2,878.9,399.9"/>
	<path class="st4" d="M1695.1,656h-108.7c-17.5,0-43.9,14.8-57.9,32.5l-84.7,108.3c-14.3,18-40,32.4-57.9,32.4h-65.1
		c-18,0-21.1-14.3-7.1-32.4L1433,645.1c13.6-17.4,39.6-32.4,57.6-32.4h238.1c18.1,0,25,10,15.4,22C1734.9,646.7,1713,656,1695.1,656
		"/>
	<path class="st4" d="M2006.8,656h-86.5c-17.5,0-40.4,10-49.3,21.8c-9.3,12-2.5,21.4,15.4,21.4h86.7c18,0,39.8-9.5,49.1-21.4
		C2031.8,666,2024.7,656,2006.8,656 M1978.9,829.2h-324.4c-18.1,0-21.3-14.3-7-32.4l119.1-151.8c13.9-17.4,40.1-32.4,57.9-32.4
		h324.4c18,0,21.4,15,7.5,32.4l-51.3,65.2c-14.1,17.9-40.4,32.2-57.9,32.2h-194.8c-17.9,0-40.2,10-49.3,22
		c-9.7,11.4-2.5,21.5,15.5,21.5h194.7c17.9,0,24.3,10,15.4,22C2019.7,819.4,1996.8,829.2,1978.9,829.2"/>
	<path class="st4" d="M2356.4,742.5h-86.3c-18,0-40.2,10-49.9,22c-9.1,11.4-2.5,21.5,15.6,21.5h86.7c17.8,0,40-10,49.5-21.5
		C2381.1,752.6,2374.3,742.5,2356.4,742.5 M2418.1,829.2h-324.4c-17.9,0-20.9-14.3-7-32.4l51.3-65.3c13.9-17.9,39.9-32.4,57.5-32.4
		h194.6c18,0,39.9-9.5,49.9-21.4c9.1-11.8,2.5-21.8-15.5-21.8h-194.7c-17.7,0-25.2-9.3-15.5-21.3c9.1-12,31.2-22,49.3-22h324.8
		c17.5,0,21.1,15,7.1,32.4l-119.4,151.8C2462.3,814.9,2436.2,829.2,2418.1,829.2"/>
	<path class="st4" d="M2870.7,688.6c13.9-17.7,10.9-32.5-7-32.5h-86.5c-18.1,0-44,14.8-57.9,32.5l-51.2,65
		c-14.1,17.9-11,32.4,6.8,32.4h86.5c18.1,0,44-14.5,57.9-32.4L2870.7,688.6 M2857.3,829.2h-324.4c-18.1,0-20.9-14.3-6.9-32.4
		l119.4-151.8c13.6-17.4,39.7-32.4,57.5-32.4h194.7c18.1,0,44.2-14.3,58.4-32.4l16.7-21.4c13.9-18,40.2-32.9,58-32.9h64.7
		c17.9,0,21.1,14.9,7,32.9l-186.6,237.9C2901.6,814.9,2875.2,829.2,2857.3,829.2"/>
	<path class="st4" d="M3324.3,656h-86.7c-17.3,0-39.9,10-49.3,21.8c-8.9,12-2.1,21.4,15.7,21.4h86.6c17.9,0,40-9.5,49-21.4
		C3349.6,666,3342.4,656,3324.3,656 M3296.5,829.2H2972c-17.8,0-20.9-14.3-7-32.4l119-151.8c13.9-17.4,39.9-32.4,57.9-32.4h324.8
		c17.9,0,21.1,15,7.2,32.4l-51.1,65.2c-13.9,17.9-40.6,32.2-57.9,32.2h-195c-18.1,0-40.2,10-49.3,22c-9.5,11.4-2.3,21.5,15.5,21.5
		h194.7c18,0,24.6,10,15.2,22C3337.2,819.4,3314.5,829.2,3296.5,829.2"/>
	<path class="st4" d="M3785.5,656H3677c-17.5,0-44,14.8-57.9,32.5l-84.7,108.3c-14.3,18-40,32.4-57.9,32.4h-65.2
		c-18.1,0-20.9-14.3-7-32.4l119-151.8c13.9-17.4,40-32.4,57.9-32.4h238c18,0,25.2,10,15.5,22C3825.2,646.7,3803.6,656,3785.5,656"/>
</g>
</svg>
