<?xml version="1.0" encoding="utf-8"?>
<!-- Generator: Adobe Illustrator 25.0.0, SVG Export Plug-In . SVG Version: 6.00 Build 0)  -->
<svg version="1.1" id="Layer_1" xmlns="http://www.w3.org/2000/svg" xmlns:xlink="http://www.w3.org/1999/xlink" x="0px" y="0px"
	 viewBox="0 0 3840 457.4" style="enable-background:new 0 0 3840 457.4;" xml:space="preserve">
<style type="text/css">
	.st0{fill:#30308F;}
	.st1{fill:#00968C;}
	.st2{fill:#DFB10A;}
	.st3{fill:#4F549D;}
	.st4{fill:#BD0547;}
	.st5{fill:#7AAC3B;}
	.st6{fill:#C6C6C6;}
	.st7{fill:#FFFFFF;}
	.st8{fill:#383C70;}
	.st9{fill:#696FD0;}
	.st10{fill:#B28D08;}
	.st11{fill:#FFCA0B;}
	.st12{fill:#5A7F2B;}
	.st13{fill:#9EDF4D;}
	.st14{fill:none;stroke:#231F20;stroke-width:1.6419;stroke-miterlimit:10;}
	.st15{fill:#006962;}
	.st16{fill:#00C9BC;}
	.st17{fill:#900436;}
	.st18{fill:#F0065A;}
	.st19{fill:none;stroke:#231F20;stroke-width:1.6588;stroke-miterlimit:10;}
</style>
<g>
	<g>
		<path id="path4493_13_" class="st0" d="M2172.4,360.8H2156V351h43.4v9.8h-16.6v54.5h-10.5V360.8z"/>
		<path id="path4497_13_" class="st0" d="M2254.6,389.1c-0.3-8.3-0.8-18.3-0.7-27h-0.3c-1.9,7.8-4.2,16.5-6.8,24.6l-8.5,27.9h-8
			l-7.7-27.5c-2.2-8.2-4.3-17-5.8-25h-0.2c-0.3,8.4-0.6,18.6-1,27.4l-1.3,25.9h-9.8l3.9-64.4h13.8l7.5,25.9c2,7.6,3.8,15.2,5.3,22.4
			h0.3c1.5-7,3.5-14.9,5.7-22.5l7.9-25.8h13.7l3.3,64.4h-10.2L2254.6,389.1z"/>
	</g>
	<g>
		<path class="st1" d="M3827.6,374.8c-2.6-3.7-5.6-6.9-9-9.8c-15.8-13.6-76.1-65-121.3-102c35.2-19.2,52.2-32.5,52.2-32.5
			s49-32.5,59.4-82.2c8-47.7-1-72.6-69.9-106.4c-54.7-26.8-168.8-50.8-229.5,34c-14,19.6-14.1,49.8-8.2,65.2
			c13.7,36,25.4,64.5,23,202.4c-0.3,16.7-11.9,23.9-13.2,40.3c-1.5,17.8,4.9,64.7,54.7,66.7c42.9,1.8,50.4-35.1,50.4-50.4
			c0-25.2,0-70.7,0-70.7s116.2,97.5,136.2,114.6c10.8,9.2,24.8,14.4,38.9,13.2c10.7-1,23.1-5.4,35.2-17.3
			C3851.1,415.6,3836.3,387.3,3827.6,374.8z M3615.9,191.1l0.2-79.9h60.4c27.8,0,42.9,32.9,24.4,53.6
			C3688.2,179.3,3663.1,191.1,3615.9,191.1z"/>
		<path class="st0" d="M484.8,226.1l-14.4-74.5l-33.3,74.5H484.8 M1007.6,415.4h-78.9l-10.5-237.5L815.7,415.4h-52.6l-43.8-214.7
			l-68.4,214.7H516.8l-20.2-114.8h-91.1l-51.7,114.8h-82.4L440.6,31.5h97.3l51.7,310.2L690.4,31.5h78l38.6,210.3l89.4-210.3H991
			L1007.6,415.4"/>
		<polyline class="st0" points="1233.7,415.4 1246.9,333 1109.3,333 1120.2,264.7 1239.9,264.7 1253,182.3 1132.1,182.3 
			1142.6,113.9 1280.2,113.9 1293.3,31.5 1075.1,31.5 1013.8,415.4 1233.7,415.4 		"/>
		<polyline class="st0" points="2258.2,31.5 2166.2,31.5 2088.2,156.8 2039.1,31.5 1948.9,31.5 2041.7,234 2013.1,415.4 2092,415.4 
			2116.2,255 2258.2,31.5 		"/>
		<path class="st0" d="M1789.9,342.3c41.7,18.7,92.8-18,114.1-81.8c21.3-63.8,4.7-130.8-37-149.4c-41.7-18.7-92.8,18-114.1,81.8
			C1731.6,256.7,1748.2,323.6,1789.9,342.3 M1670.5,190.4C1695,84.3,1785.7,14.7,1873.1,34.9c87.4,20.2,138.4,122.6,113.9,228.7
			c-24.5,106.1-115.2,175.8-202.6,155.6C1697,398.9,1646,296.6,1670.5,190.4"/>
		<path class="st0" d="M103.2,65.7C28,112.2-8.1,183.2,1.5,279.5c11.2,111.8,156,182.3,278.7,111.3c10.7-6.2,6.5-5.2,10.5-8.8
			l24.5-156H168.9l-11.2,71.8h61.2l-7,38.6c-35.1,14-94.7,8.8-120.1-36.8c-16.1-28.8-31-93.3,36.8-152.5
			c55.2-48.2,150.7-56.9,205.9-31.5c0,0,7-40.3,12.3-78C240.8,0.9,158.4,31.5,103.2,65.7"/>
		<path class="st0" d="M1413.4,33.7l-60.9,380.9c0,0,126.1,0,177.4,0c73.1,0,179.9-107.7,82.6-195.7c100-103.5,0.9-184.4-52.2-185.2
			c-42.6-0.7-147.9,0-147.9,0H1413.4 M1456.9,264.2c0,0,16.5,0,66.1,0c62.6,0,60.9,76.5-8.7,76.5c-43.5,0-69.6,0-69.6,0
			L1456.9,264.2 M1481.2,114.6c0,0,1.7,0,51.3,0c55.7,0,44.4,71.3-8.7,71.3c-43.5,0-54.8,0-54.8,0L1481.2,114.6"/>
		<path class="st2" d="M3359.2,87.5c-112.2-0.6-202.6,63.6-202.1,182.9c0.4,100.4,55.8,174,162.2,170.8
			c79.4-2.4,207.4-72,207.4-182.2C3526.8,166.5,3466.9,88.1,3359.2,87.5z M3432.8,258.9c-4.7,44.2-49.6,80-100.4,80
			c-50.8,0-88.1-35.7-83.4-79.9c4.7-44.2,49.6-80,100.4-80C3400.1,179,3437.4,214.8,3432.8,258.9z"/>
		<path class="st3" d="M2803.3,76.6c-100.2-3.3-197.5,85-209.1,185.4c-13.4,116.6,61.8,177.7,163,179.7
			C2872,444,2952,370.4,2961,269.8C2970,170.2,2903.5,79.9,2803.3,76.6z M2767.5,348.9c-45.1,0-75.2-40-67.4-89.3
			s50.7-89.3,95.7-89.3c45.1,0,65.6,44.2,64.4,94.2C2858.7,333.7,2812.6,348.9,2767.5,348.9z"/>
		<path class="st4" d="M2518.9,96.7c7.5-1.8,14.8,2.7,17.3,9.9c11,32.3,55.2,48.8,84.5,21.4c10.6-9.9,13.9-22.8,16.5-50.1
			c6.8-70.6-124.7-105.1-194.5-52.7c-48.2,36.2-146.9,142.3-144.5,268.4c-1,34.7,9.2,59.9,9.2,59.9s18,62.3,80.4,86.8
			c38,15.7,95.2,12.9,95.2,12.9s107.6,0,107.8,0c42.5,0,80.9-104.5-27.1-95.5c-45.4,3.8-178.1,38.2-175.5-76.6
			C2390.4,189,2478.6,106.4,2518.9,96.7z"/>
		<path class="st5" d="M3047.7,335.7l-4.8-186.1c-0.2-9-0.9-17.9-2.1-26.8c-3.2-24-10.7-69.8-23.7-87.7
			c-21.7-29.9-67.1-31.3-81.7-2.3c-9.9,19.7-8.6,53.3,7,93.1c7.9,20.2,12,41.7,13.1,63.4c0,0,8.7,140.2,11.7,186.9
			c1.3,20.4-6.5,67.3,20.2,77.1c40.8,14.9,107.6-41.5,188.2-43.8c46.5-1.4,75.1-129.4-70.1-94.7
			C3073.2,322.4,3047.7,335.7,3047.7,335.7z"/>
	</g>
</g>
</svg>
