<?xml version="1.0" encoding="utf-8"?>
<!-- Generator: Adobe Illustrator 25.4.1, SVG Export Plug-In . SVG Version: 6.00 Build 0)  -->
<svg version="1.1" id="Layer_1" xmlns="http://www.w3.org/2000/svg" xmlns:xlink="http://www.w3.org/1999/xlink" x="0px" y="0px"
	 viewBox="0 0 3839 1414.3" style="enable-background:new 0 0 3839 1414.3;" xml:space="preserve">
<style type="text/css">
	.st0{fill:#232F95;}
	.st1{fill:#FFFFFF;}
	.st2{fill:url(#SVGID_1_);}
	.st3{fill:url(#SVGID_00000149365462829712605670000011224552855625610389_);}
	.st4{fill:url(#SVGID_00000034768039248948010830000007920315719004098958_);}
	.st5{fill:url(#SVGID_00000038391363443636348370000000645503879620193198_);}
	.st6{fill:url(#SVGID_00000029047733662145968020000004246037669539735984_);}
	.st7{fill:url(#SVGID_00000008837599618080476350000006670721540189288875_);}
	.st8{fill:url(#SVGID_00000036963070221689532170000002210070092735008442_);}
	.st9{fill:url(#SVGID_00000120527308770283038990000002923631114798605467_);}
	.st10{fill:url(#SVGID_00000111149752449942744770000010579193363750704278_);}
	.st11{fill:url(#SVGID_00000004540709764001616620000002272782795773527943_);}
	.st12{fill:url(#SVGID_00000163072701396251770480000006140049736343785611_);}
	.st13{fill:url(#SVGID_00000018200188541628981520000012317052241860106141_);}
	.st14{fill:url(#SVGID_00000152965307221560888890000006478769595231960731_);}
	.st15{fill:url(#SVGID_00000031930086858279419300000007731592616569158321_);}
	.st16{fill:url(#SVGID_00000082335210588894173750000011012616005924922243_);}
	.st17{fill:url(#SVGID_00000183971165399439884910000006362684614304883073_);}
	.st18{fill:url(#SVGID_00000181078869083293188470000000359479639211147937_);}
	.st19{fill:url(#SVGID_00000103225121711592089040000007323476681991370627_);}
	.st20{fill:url(#SVGID_00000160167569712793618290000003438735394018747025_);}
	.st21{fill:url(#SVGID_00000051350397020560290530000006849147206407360190_);}
	.st22{fill:url(#SVGID_00000147922748474542148500000003010607592551696819_);}
	.st23{fill:url(#SVGID_00000083089226030802175700000007771137954123689404_);}
	.st24{fill:url(#SVGID_00000077289282194675865770000003288715404482468016_);}
	.st25{fill:url(#SVGID_00000088844864728239529990000006618705772279678596_);}
	.st26{fill:url(#SVGID_00000148632644598729331930000018262139796601912761_);}
	.st27{fill:url(#SVGID_00000124857150717083143610000002537911588464926127_);}
	.st28{fill:url(#SVGID_00000137101664986689468920000015491590790812630937_);}
	.st29{fill:url(#SVGID_00000054984042880851850480000006396251480651568543_);}
	.st30{fill:url(#SVGID_00000111185686375306626490000011280420325578191237_);}
	.st31{fill:url(#SVGID_00000110457460928422241960000000662458651224503429_);}
	.st32{fill:url(#SVGID_00000140699473102479289380000012535272623321979047_);}
	.st33{fill:url(#SVGID_00000127017572137594128980000011717249941836544651_);}
	.st34{fill:url(#SVGID_00000063604089349463034420000005201096042814676415_);}
	.st35{fill:url(#SVGID_00000110451097074682854670000013556828167059899816_);}
	.st36{fill:url(#SVGID_00000171704546946837039690000006825571504628020147_);}
	.st37{fill:url(#SVGID_00000132088757470452790140000016836405823749177497_);}
	.st38{fill:url(#SVGID_00000129168422097314440120000005071640695667290278_);}
	.st39{fill:url(#SVGID_00000075861837308737297140000010725892456475848585_);}
	.st40{fill:url(#SVGID_00000108992793516050624580000017938009983126641047_);}
	.st41{fill:url(#SVGID_00000125576736935698984710000004020002656914525828_);}
	.st42{fill:url(#SVGID_00000145752754967756871460000011750581207129911710_);}
	.st43{fill:url(#SVGID_00000116956931583893426440000009110881525873360043_);}
	.st44{fill:url(#SVGID_00000110450518973273246190000011447932428214147488_);}
	.st45{fill:url(#SVGID_00000172428643655203277650000015189297433081943721_);}
	.st46{fill:url(#SVGID_00000170244166326654825420000018247427784774613650_);}
	.st47{fill:url(#SVGID_00000089559949923653102950000017825116565465922702_);}
	.st48{fill:url(#SVGID_00000104686226572923529580000012660662708222227855_);}
	.st49{fill:url(#SVGID_00000058552561132025227030000007131074818045550769_);}
	.st50{fill:url(#SVGID_00000067941832786124098280000004328026856410356633_);}
	.st51{fill:url(#SVGID_00000052094946580732132420000003549927876378137753_);}
	.st52{fill:url(#SVGID_00000119799140276263430590000010374462285488531867_);}
	.st53{fill:url(#SVGID_00000020359314994775427720000012705802228441773452_);}
	.st54{fill:url(#SVGID_00000037694123800174643070000014870433368855953311_);}
	.st55{fill:url(#SVGID_00000088853073011040560270000001017491130381539969_);}
	.st56{fill:url(#SVGID_00000136370696971537716670000007450335942783329683_);}
	.st57{fill:url(#SVGID_00000085246712676384369570000007054100034569746309_);}
	.st58{fill:url(#SVGID_00000072966833057113237170000012541998676708322699_);}
	.st59{fill:url(#SVGID_00000129183911131263896960000016624019995030307770_);}
	.st60{fill:url(#SVGID_00000058551742611815777090000008901870374699257780_);}
	.st61{fill:url(#SVGID_00000054246861053215754090000014765948834202925477_);}
	.st62{fill:url(#SVGID_00000085964693238797522750000002508101272489964433_);}
	.st63{fill:url(#SVGID_00000167396339771582611220000001965163207196863908_);}
	.st64{fill:url(#SVGID_00000065796523702891218570000014162875888007024016_);}
	.st65{fill:url(#SVGID_00000065068542794310786570000011953197055062725804_);}
	.st66{fill:url(#SVGID_00000179631122542489873730000008840036551459719056_);}
	.st67{fill:url(#SVGID_00000100376818038666213610000001209260339938574514_);}
	.st68{fill:url(#SVGID_00000138533392947587449970000002188930966330508195_);}
	.st69{fill:url(#SVGID_00000057863377386453918680000011844343231615900544_);}
	.st70{fill:url(#SVGID_00000080185494243298379050000000985710625016045713_);}
	.st71{fill:url(#SVGID_00000090283686436313457350000000174955878057941419_);}
	.st72{fill:url(#SVGID_00000115473155449514480300000001487474504233488023_);}
	.st73{fill:url(#SVGID_00000034086708999627637960000014081864798230196125_);}
	.st74{fill:url(#SVGID_00000034064445892237117740000010701655607920295831_);}
	.st75{fill:url(#SVGID_00000046297877612114047440000007477989301461320839_);}
	.st76{fill:url(#SVGID_00000031890603439109974460000000588666285169655211_);}
	.st77{fill:url(#SVGID_00000044872023030891234250000017334430816144961699_);}
	.st78{fill:url(#SVGID_00000093144995749649115760000002995536729811254178_);}
	.st79{fill:url(#SVGID_00000127748413495840527190000000593103447626875787_);}
	.st80{fill:url(#SVGID_00000040550858381657929970000003536796580914656428_);}
	.st81{fill:url(#SVGID_00000066508160102941968450000005500851191368179866_);}
	.st82{fill:url(#SVGID_00000029761079139493017520000017931534494289786554_);}
	.st83{fill:url(#SVGID_00000000198190988095220950000003290862767930309516_);}
	.st84{fill:url(#SVGID_00000137114559742703300860000017436515970604099220_);}
	.st85{fill:url(#SVGID_00000065032798492534366510000015742219956836862856_);}
	.st86{fill:url(#SVGID_00000036969194126810877430000003734231141444893111_);}
	.st87{fill:url(#SVGID_00000155831791257331901510000014806428847566622594_);}
	.st88{fill:url(#SVGID_00000074420337185793776230000008453618100544385701_);}
	.st89{fill:url(#SVGID_00000024711295567173562130000001142330331321302182_);}
	.st90{fill:url(#SVGID_00000021120140329837386300000000828031345728205747_);}
	.st91{fill:url(#SVGID_00000129200045041438024790000004687949444602097538_);}
	.st92{fill:url(#SVGID_00000018929413768410091080000002004631220556299942_);}
	.st93{fill:url(#SVGID_00000068673161190817410140000011890792085656430750_);}
	.st94{fill:url(#SVGID_00000150821391534437675520000017144147732986026130_);}
	.st95{fill:url(#SVGID_00000058563806421707638990000000266140692123647660_);}
	.st96{fill:url(#SVGID_00000145020256605966169740000012554092291527565234_);}
	.st97{fill:url(#SVGID_00000096773434892360543210000006625745221701399685_);}
	.st98{fill:url(#SVGID_00000158750935558654264690000012617742216375112101_);}
	.st99{fill:url(#SVGID_00000084496428131359751350000018191283238943019441_);}
	.st100{fill:url(#SVGID_00000078765000516719807580000002405646690822768031_);}
	.st101{fill:url(#SVGID_00000119080747865557548940000017937765002890391192_);}
	.st102{fill:#502F8E;}
	.st103{fill:url(#SVGID_00000022541197668223816640000006097592401229315001_);}
	.st104{fill:url(#SVGID_00000167383726699791514740000006242047173321863048_);}
	.st105{fill:url(#SVGID_00000157992953340539696930000006412137260061835415_);}
	.st106{fill:url(#SVGID_00000106835130728227222970000014954394314266150835_);}
	.st107{fill:url(#SVGID_00000052093216281268133640000007691012094933974408_);}
	.st108{fill:url(#SVGID_00000125560671268680726080000012558197722262329480_);}
	.st109{fill:url(#SVGID_00000129911987572166709110000017473274987430382772_);}
	.st110{fill:url(#SVGID_00000121257681681870540520000000373150340504794303_);}
	.st111{fill:url(#SVGID_00000160180024693959438600000014478600268532536491_);}
	.st112{fill:url(#SVGID_00000044888669926997194300000012447352696411106955_);}
	.st113{fill:url(#SVGID_00000180363670117152447560000018141295124678221707_);}
	.st114{fill:url(#SVGID_00000147210383322483338840000017721477940992281761_);}
	.st115{fill:url(#SVGID_00000137096864904946518380000009688885563076767679_);}
	.st116{fill:url(#SVGID_00000182506570913211410980000014097898004120927664_);}
	.st117{fill:url(#SVGID_00000121966414227893977430000014709955281951106703_);}
	.st118{fill:url(#SVGID_00000078042710220793186240000018258979996779993481_);}
	.st119{fill:url(#SVGID_00000134939152193182950050000011476603708202277508_);}
	.st120{fill:url(#SVGID_00000057844213571467839580000006684038182088143244_);}
	.st121{fill:url(#SVGID_00000060732919987303692440000004021779563661678740_);}
	.st122{fill:url(#SVGID_00000109015083410801404640000013649133757583380153_);}
	.st123{fill:url(#SVGID_00000170990647653522719310000008825889196460130443_);}
	.st124{fill:url(#SVGID_00000004538265287858327540000002572490029218211505_);}
	.st125{fill:url(#SVGID_00000113354815945348689960000002414498213772772741_);}
	.st126{fill:url(#SVGID_00000173841901265748305860000007614482243146797460_);}
	.st127{fill:url(#SVGID_00000022558065107559837000000017580627482904165047_);}
	.st128{fill:url(#SVGID_00000103972532159628182740000001306933650876990352_);}
	.st129{fill:url(#SVGID_00000174603079163582165290000016578359477812462745_);}
	.st130{fill:url(#SVGID_00000093858865898087548230000002061754165237887624_);}
	.st131{fill:url(#SVGID_00000129892928109970554880000009132275243575798156_);}
	.st132{fill:url(#SVGID_00000042729003514289343410000009364248560092096415_);}
	.st133{fill:url(#SVGID_00000113338738152209250350000007641546563855719829_);}
	.st134{fill:url(#SVGID_00000016035853924139011330000017478197682533714863_);}
	.st135{fill:url(#SVGID_00000091702549358905399180000002142003299262052272_);}
	.st136{fill:url(#SVGID_00000114785986059178130930000006394980077718610572_);}
	.st137{fill:url(#SVGID_00000047031923020106025580000011472473489112535958_);}
	.st138{fill:url(#SVGID_00000024719737895254008810000014653089458278119814_);}
	.st139{fill:url(#SVGID_00000166633731660299583460000005481012564487596437_);}
	.st140{fill:url(#SVGID_00000017486304921314984120000007607976627616072107_);}
	.st141{fill:url(#SVGID_00000154415238715452040170000006979592570820844458_);}
	.st142{fill:url(#SVGID_00000099663230734146836000000011313350128237370250_);}
	.st143{fill:url(#SVGID_00000060023703361619364250000009441037260701393797_);}
	.st144{fill:url(#SVGID_00000111176685476630774920000014136523566205033870_);}
	.st145{fill:url(#SVGID_00000006699091816763377160000005339631824138284167_);}
	.st146{fill:url(#SVGID_00000165231896432895673900000017935761356115091330_);}
	.st147{fill:url(#SVGID_00000131352042351851085310000013776604147089260166_);}
	.st148{fill:url(#SVGID_00000062160614864750801100000011314858096376192135_);}
	.st149{fill:url(#SVGID_00000049221845976279933630000017443792173986083235_);}
	.st150{fill:url(#SVGID_00000020385122514661038530000004238879377649214848_);}
	.st151{fill:url(#SVGID_00000143577316868387489090000002729522453817579651_);}
	.st152{fill:url(#SVGID_00000165196590931677553050000003185652764846287287_);}
	.st153{fill:url(#SVGID_00000166668314351383552570000014986413808090778004_);}
	.st154{fill:url(#SVGID_00000163062021130490573550000014979631048683062972_);}
	.st155{fill:url(#SVGID_00000155144491037073501300000005877841071045917883_);}
	.st156{fill:url(#SVGID_00000181777904981294219590000006681902019828126626_);}
	.st157{fill:url(#SVGID_00000128475563138227526430000016667565276283660680_);}
	.st158{fill:url(#SVGID_00000025422328253158523940000007156764451075617425_);}
	.st159{fill:url(#SVGID_00000082334948747232986480000017628296246150354081_);}
	.st160{fill:url(#SVGID_00000175310965902171026470000015430519184261528467_);}
	.st161{fill:url(#SVGID_00000034801347305813351760000007407799018243963028_);}
	.st162{fill:url(#SVGID_00000170981216304750394550000000643004731293065607_);}
	.st163{fill:url(#SVGID_00000139265362770874942940000009299716801339207298_);}
	.st164{fill:url(#SVGID_00000075147457355813917650000017742678230929863086_);}
	.st165{fill:url(#SVGID_00000047040591199724142180000007233771851431956895_);}
	.st166{fill:url(#SVGID_00000176729600371312018650000000066153557405514922_);}
	.st167{fill:url(#SVGID_00000100376874172792032770000006575543882232029881_);}
	.st168{fill:url(#SVGID_00000010299736000451977940000005630128531734814618_);}
	.st169{fill:url(#SVGID_00000042712255217078467030000017419065208663004819_);}
	.st170{fill:url(#SVGID_00000044178805195007051370000009145982216610511262_);}
</style>
<g>
	<linearGradient id="SVGID_1_" gradientUnits="userSpaceOnUse" x1="1919.5001" y1="-9.094947e-13" x2="1919.5001" y2="1414.345">
		<stop  offset="0" style="stop-color:#502F8E"/>
		<stop  offset="1" style="stop-color:#513775"/>
	</linearGradient>
	<path class="st2" d="M3529.5,503.5L3839,16.6h-832.7c-61.3,0.3-122.8,17.9-178.4,52.6c-22.2,13.9-42.9,30.2-62.2,48.4
		C2713.1,55,2657.6,16.6,2567.9,16.6H1156.6l-45.4,139.7L1088,16.6H780l-11.2,25.5L739,31.8C577.7-24.1,421.2-6.2,273.8,85
		c-153.3,94.9-224.6,243.4-206,429.4c11.2,111.8,82,211.4,189.5,266.3c31.3,16.1,64.2,27.5,98,34.5L0,1414.1h991.1
		c157.5,0,253.6-47.4,307.2-107.6l66.6,107.9h978v-136.8l175.9,136.8h1207V787.5h-239.3L3529.5,503.5z"/>
	<g>
		<g>
			<path class="st1" d="M1614,891.7l-3.5,6.3L1465,1162.3l-154.4-264.6l-3.5-6h-136.5l11.2,18.4l26.3,43.3
				c-42.1-40-106.6-61.7-190.5-61.7H742.9v343.7L539.5,897.9l-3.5-5.9h-105l-3.5,6l-231.4,389.9l-10.9,18.3h91v0.1h202.2v-91.6h-119
				L478.4,1000l168.2,300l3.5,6.2h135.5l-0.2-0.4h208.2c179.5,0,270.6-70.1,270.6-208.4c0-24-3.1-46.2-9.1-66.3L1418,1300l3.5,5.8
				h79.3l3.5-6.1l226.1-389.9l10.6-18.2H1614z M973.2,1209.3H862.7V985.6h155.7c84.2,0,123.5,34.1,123.5,107.1
				C1141.9,1179.8,1099.4,1209.3,973.2,1209.3z"/>
			<polyline class="st1" points="2533.8,891.7 2521.7,891.7 2521.7,1138 2210.3,894.2 2207,891.7 2125.3,891.7 2125.3,1235.6 
				1921.6,897.7 1918,891.8 1813,891.8 1809.5,897.8 1578.1,1287.7 1567.2,1306 1690.6,1306 1690.9,1305.6 1860.7,1305.6 
				1860.7,1214 1741.6,1214 1860.6,999.8 2028.7,1299.8 2032.2,1306 2167.8,1306 2167.7,1305.8 2236.2,1305.8 2236.2,1056.1 
				2546.4,1303.2 2549.7,1305.8 2631.2,1305.8 2631.2,891.7 2533.8,891.7 			"/>
			<path class="st1" d="M3023.8,891.8H2781c-85.2,0-113.9,26.4-113.9,104.5v205.2c0,77.9,28.7,104.3,113.9,104.3h242.8
				c85.3,0,114.1-26.4,114.1-104.3v-58.2l-12.1-0.1l-95.6-0.2h-12.2v63.8h-231.4V988.1h231.4v57.5l12.2,0.1l95.5,0.3l12.2,0v-49.9
				C3138,917.2,3110.2,891.8,3023.8,891.8"/>
			<polyline class="st1" points="3611.9,1209.3 3296.7,1209.3 3296.7,1136.7 3484.8,1136.7 3484.8,1045.3 3296.7,1045.3 
				3296.7,985.5 3619.5,985.5 3619.5,891.8 3176.9,891.8 3176.9,1305.8 3624.1,1305.8 3624.1,1209.3 3611.9,1209.3 			"/>
			
				<linearGradient id="SVGID_00000064326666280113245630000016209407969663688837_" gradientUnits="userSpaceOnUse" x1="651.3596" y1="853.0422" x2="651.3596" y2="1698.381">
				<stop  offset="0" style="stop-color:#4B2C79"/>
				<stop  offset="1" style="stop-color:#2A1164"/>
			</linearGradient>
			<path style="fill:url(#SVGID_00000064326666280113245630000016209407969663688837_);" d="M1276.1,1286.6
				c-39.6,44.5-121.3,97.6-284.9,97.6l-709.1,0.2l-229.6,0L0,1414.1l283.7,0.2l707.4-0.2c157.5,0,253.6-47.4,307.2-107.6l4.3-49.8
				L1276.1,1286.6z"/>
			
				<linearGradient id="SVGID_00000149351115405286540920000001043276815934536863_" gradientUnits="userSpaceOnUse" x1="1298.3694" y1="1335.5127" x2="1381.6403" y2="1335.5127">
				<stop  offset="0" style="stop-color:#4D288B"/>
				<stop  offset="1" style="stop-color:#56328B"/>
			</linearGradient>
			<polygon style="fill:url(#SVGID_00000149351115405286540920000001043276815934536863_);" points="1302.7,1256.7 1298.4,1306.5 
				1365,1414.3 1381.6,1384.5 			"/>
			
				<linearGradient id="SVGID_00000103229885599888335090000016007982050674070924_" gradientUnits="userSpaceOnUse" x1="1365.6991" y1="1399.4114" x2="2343.6965" y2="1399.4114">
				<stop  offset="0" style="stop-color:#4B2C79"/>
				<stop  offset="1" style="stop-color:#2A1164"/>
			</linearGradient>
			<polygon style="fill:url(#SVGID_00000103229885599888335090000016007982050674070924_);" points="2313.8,1384.5 1382.4,1384.5 
				1365.7,1414.3 2343.7,1414.3 			"/>
			
				<linearGradient id="SVGID_00000168091699347357478770000008950817411612956581_" gradientUnits="userSpaceOnUse" x1="2328.0466" y1="1414.3446" x2="2328.0466" y2="1216.4879">
				<stop  offset="0" style="stop-color:#4B2C79"/>
				<stop  offset="1" style="stop-color:#2A1164"/>
			</linearGradient>
			<polygon style="fill:url(#SVGID_00000168091699347357478770000008950817411612956581_);" points="2313.1,1216.5 2313.1,1384.5 
				2343,1414.3 2343,1277.5 			"/>
			
				<linearGradient id="SVGID_00000030472092219412836060000001083501208212443542_" gradientUnits="userSpaceOnUse" x1="2313.1138" y1="1315.4163" x2="2529.1609" y2="1315.4163">
				<stop  offset="0" style="stop-color:#4B2C79"/>
				<stop  offset="1" style="stop-color:#2A1164"/>
			</linearGradient>
			<polygon style="fill:url(#SVGID_00000030472092219412836060000001083501208212443542_);" points="2313.1,1216.5 2343,1277.5 
				2518.9,1414.3 2529.2,1384.5 			"/>
			
				<linearGradient id="SVGID_00000036219827311307491690000015399482124263161259_" gradientUnits="userSpaceOnUse" x1="2518.9172" y1="1399.4114" x2="3725.9316" y2="1399.4114">
				<stop  offset="0" style="stop-color:#4B2C79"/>
				<stop  offset="1" style="stop-color:#2A1164"/>
			</linearGradient>
			<polygon style="fill:url(#SVGID_00000036219827311307491690000015399482124263161259_);" points="3696.1,1384.5 2529.2,1384.5 
				2518.9,1414.3 3725.9,1414.3 			"/>
			
				<linearGradient id="SVGID_00000104704268348043974610000001062171766527244711_" gradientUnits="userSpaceOnUse" x1="3696.0657" y1="1100.9143" x2="3725.9316" y2="1100.9143">
				<stop  offset="0" style="stop-color:#2F176A"/>
				<stop  offset="1" style="stop-color:#512D99"/>
			</linearGradient>
			<polygon style="fill:url(#SVGID_00000104704268348043974610000001062171766527244711_);" points="3696.1,817.4 3696.1,1384.5 
				3725.9,1414.3 3725.9,787.5 			"/>
			
				<linearGradient id="SVGID_00000060712802328803058930000005689555403444274824_" gradientUnits="userSpaceOnUse" x1="2370.6284" y1="802.4175" x2="3725.9316" y2="802.4175">
				<stop  offset="0" style="stop-color:#C8A2E5"/>
				<stop  offset="1" style="stop-color:#A887D8"/>
			</linearGradient>
			<path style="fill:url(#SVGID_00000060712802328803058930000005689555403444274824_);" d="M3486.6,787.5c0,0-34.7,29.8-34.7,29.9
				h244.1l29.9-29.9H3486.6z"/>
		</g>
		
			<linearGradient id="SVGID_00000150813091679249896850000009139467204894047410_" gradientUnits="userSpaceOnUse" x1="1.586002e-04" y1="1103.1334" x2="403.905" y2="1103.1334">
			<stop  offset="0" style="stop-color:#2B0A67"/>
			<stop  offset="1" style="stop-color:#B28ED8"/>
		</linearGradient>
		<polygon style="fill:url(#SVGID_00000150813091679249896850000009139467204894047410_);" points="355.3,815.2 0,1414.1 
			52.4,1384.4 403.9,792.2 		"/>
	</g>
	<path class="st1" d="M1549,119.5l-137.6,323.8L1352,119.5h-120.1l-155.2,477.7l-79.6-477.7H847.4L620.7,634.1L654.5,419H429.2
		l-17.2,110.7h94.1L495.3,589c-54,21.5-145.7,13.4-184.9-56.7c-24.8-44.4-47.8-143.7,56.6-234.8c85-74.2,232.1-87.7,317.1-48.6
		c0,0,10.8-62.1,18.9-120.1c-163.2-56.7-290.1-9.5-375,43.2c-115.7,71.6-171.4,180.8-156.5,329.1c17.2,172.2,240.1,280.7,429,171.4
		c1.7-1,3-1.8,4.3-2.5L587,710.4h126.8l79.6-176.7h140.3l31,176.7h206.4l105.2-330.6l67.5,330.6h81l157.9-365.6l16.1,365.6h121.4
		l-25.6-590.9H1549 M842,419l51.3-114.6L915.5,419H842z"/>
	<polyline class="st1" points="1729.8,710.4 2068.4,710.4 2088.7,583.6 1876.8,583.6 1893.6,478.4 2077.9,478.4 2098.2,351.6 
		1911.9,351.6 1928.1,246.3 2139.9,246.3 2160.2,119.5 1824.2,119.5 1729.8,710.4 	"/>
	<polygon class="st1" points="3504,119.5 3383.9,312.4 3308.4,119.5 3169.4,119.5 3312.4,431.1 3268.4,710.4 3389.8,710.4 
		3427.1,463.5 3645.7,119.5 	"/>
	<path class="st1" d="M3052.8,124.6c-134.6-31.1-274.2,76.1-311.9,239.6c-37.8,163.3,40.8,320.9,175.4,352
		c134.6,31.1,274.2-76.1,311.9-239.5C3265.9,313.3,3187.4,155.7,3052.8,124.6 M3100.3,471.9c-32.8,98.3-111.4,154.7-175.7,126
		c-64.2-28.8-89.7-131.7-56.9-230c32.7-98.3,111.3-154.7,175.6-125.9C3107.6,270.7,3133.1,373.7,3100.3,471.9z"/>
	<path class="st1" d="M2571.3,122.8c-65.6-1.1-227.6,0-227.6,0h1.3l-93.7,586.4c0,0,194.2,0,273.1,0c112.5,0,277-165.8,127.2-301.1
		C2805.6,248.7,2653,124.2,2571.3,122.8 M2500.3,595.5c-67,0-107.1,0-107.1,0l18.8-117.9c0,0,25.4,0,101.7,0
		C2610.1,477.6,2607.4,595.5,2500.3,595.5z M2515,357.1c-67,0-84.4,0-84.4,0l18.8-109.8c0,0,2.7,0,79,0
		C2614.1,247.3,2596.7,357.1,2515,357.1z"/>
	
		<linearGradient id="SVGID_00000006676078303775014360000006311471186926238628_" gradientUnits="userSpaceOnUse" x1="3490.7043" y1="3720.2935" x2="3490.7043" y2="-2990.3328">
		<stop  offset="0" style="stop-color:#2F176A"/>
		<stop  offset="1" style="stop-color:#512D99"/>
	</linearGradient>
	<polygon style="fill:url(#SVGID_00000006676078303775014360000006311471186926238628_);" points="3500.9,492.8 3451.9,817.4 
		3486.6,787.5 3529.5,503.5 	"/>
	
		<linearGradient id="SVGID_00000139275156782836656560000001790772747066093189_" gradientUnits="userSpaceOnUse" x1="424.9282" y1="5.550476e-05" x2="424.9282" y2="815.2416">
		<stop  offset="0" style="stop-color:#B28ED8"/>
		<stop  offset="1" style="stop-color:#2B0A67"/>
	</linearGradient>
	<path style="fill:url(#SVGID_00000139275156782836656560000001790772747066093189_);" d="M768.7,42.2L739,31.8
		C577.7-24.1,421.2-6.2,273.8,85c-153.3,94.9-224.6,243.4-206,429.4c11.2,111.8,82,211.4,189.5,266.3c31.3,16.1,64.2,27.5,98,34.5
		l48.6-23c-46.9-4-91.5-16.8-133-38c-98.4-50.3-163.2-141-173.4-242.7c-8.7-87.1,3.3-165.5,35.7-233
		c32.3-67.3,84.9-123.9,156.3-168.1C375.9,57,466.1,29.9,557.7,29.9c56.1,0,113.8,10.2,171.5,30.2l55.7,19.4L768.7,42.2z"/>
	
		<linearGradient id="SVGID_00000077310404452383258460000016279322370465378961_" gradientUnits="userSpaceOnUse" x1="3500.8828" y1="260.0904" x2="3838.2717" y2="260.0904">
		<stop  offset="0" style="stop-color:#4B2C79"/>
		<stop  offset="1" style="stop-color:#2A1164"/>
	</linearGradient>
	<polygon style="fill:url(#SVGID_00000077310404452383258460000016279322370465378961_);" points="3839,16.6 3784.6,46.5 
		3500.9,492.8 3529.5,503.5 	"/>
	
		<linearGradient id="SVGID_00000062149694750340772020000009463728474625730990_" gradientUnits="userSpaceOnUse" x1="1140.0813" y1="16.6483" x2="1140.0813" y2="281.2579">
		<stop  offset="0" style="stop-color:#AB98DB"/>
		<stop  offset="1" style="stop-color:#6D42B1"/>
	</linearGradient>
	<polygon style="fill:url(#SVGID_00000062149694750340772020000009463728474625730990_);" points="1156.6,16.6 1111.2,156.3 
		1101.8,281.8 1178.3,46.5 	"/>
	
		<linearGradient id="SVGID_00000039100162670792305370000012415328011084009880_" gradientUnits="userSpaceOnUse" x1="1086.9354" y1="16.6483" x2="1086.9354" y2="281.2579">
		<stop  offset="1.491781e-07" style="stop-color:#7C53B3"/>
		<stop  offset="1" style="stop-color:#683EB7"/>
	</linearGradient>
	<polygon style="fill:url(#SVGID_00000039100162670792305370000012415328011084009880_);" points="1088,16.6 1062.7,46.5 
		1101.8,281.8 1111.2,156.3 	"/>
	
		<linearGradient id="SVGID_00000107579677895943537130000016547110367593288372_" gradientUnits="userSpaceOnUse" x1="779.9644" y1="31.5818" x2="1087.2916" y2="31.5818">
		<stop  offset="0" style="stop-color:#B8A0E1"/>
		<stop  offset="1" style="stop-color:#A880CA"/>
	</linearGradient>
	<polygon style="fill:url(#SVGID_00000107579677895943537130000016547110367593288372_);" points="780,16.6 799.4,46.5 1062.7,46.5 
		1088,16.6 	"/>
	
		<linearGradient id="SVGID_00000123416693655774721870000005918618852503425680_" gradientUnits="userSpaceOnUse" x1="784.0779" y1="16.6483" x2="784.0779" y2="79.3257">
		<stop  offset="7.458905e-08" style="stop-color:#7C51BC"/>
		<stop  offset="1" style="stop-color:#A896D0"/>
	</linearGradient>
	<polygon style="fill:url(#SVGID_00000123416693655774721870000005918618852503425680_);" points="780,16.6 768.7,42.2 784.9,79.5 
		799.4,46.5 	"/>
	
		<linearGradient id="SVGID_00000065756945680970283990000016065824412671134856_" gradientUnits="userSpaceOnUse" x1="1961.1859" y1="16.6483" x2="1961.1859" y2="161.2309">
		<stop  offset="0" style="stop-color:#AB98DB"/>
		<stop  offset="1" style="stop-color:#6D42B1"/>
	</linearGradient>
	<path style="fill:url(#SVGID_00000065756945680970283990000016065824412671134856_);" d="M2765.7,117.7
		C2713.1,55,2657.6,16.6,2567.9,16.6H1156.6l21.7,29.9h1389.6c82.2,0,129.4,36.2,175,90.4l20.4,24.3
		C2763.3,161.2,2765.7,117.7,2765.7,117.7z"/>
	
		<linearGradient id="SVGID_00000008871056277059147610000017844087165719238839_" gradientUnits="userSpaceOnUse" x1="3301.1323" y1="16.6479" x2="3301.1323" y2="161.2314">
		<stop  offset="0" style="stop-color:#8A7CC3"/>
		<stop  offset="1" style="stop-color:#A386D0"/>
	</linearGradient>
	<path style="fill:url(#SVGID_00000008871056277059147610000017844087165719238839_);" d="M3839,16.6h-832.7
		c-61.3,0.3-122.8,17.9-178.4,52.6c-22.2,13.9-42.9,30.2-62.2,48.4l-2.5,43.5l23-21.8c18.2-17.3,37.6-32.3,57.5-44.8
		c50-31.2,106.2-47.9,162.6-48.1h778.2L3839,16.6z"/>
</g>
</svg>
