<?xml version="1.0" encoding="utf-8"?>
<!-- Generator: Adobe Illustrator 26.0.3, SVG Export Plug-In . SVG Version: 6.00 Build 0)  -->
<svg version="1.1" id="Layer_1" xmlns="http://www.w3.org/2000/svg" xmlns:xlink="http://www.w3.org/1999/xlink" x="0px" y="0px"
	 viewBox="0 0 3839 1096.8" style="enable-background:new 0 0 3839 1096.8;" xml:space="preserve">
<style type="text/css">
	.st0{fill:#D60700;}
	.st1{fill:#FFFFFF;}
	.st2{clip-path:url(#SVGID_00000036232601396389565400000009017560515721403062_);}
	.st3{fill:#034693;}
	.st4{fill:none;stroke:#FFFFFF;stroke-width:7.5011;stroke-miterlimit:10;}
	
		.st5{clip-path:url(#SVGID_00000139993115774300787180000002331259294564136841_);fill:none;stroke:#FFFFFF;stroke-width:7.5011;stroke-miterlimit:10;}
	.st6{enable-background:new    ;}
	.st7{fill:#00916D;}
	.st8{clip-path:url(#SVGID_00000156564099851027515500000009145390446923556006_);}
	.st9{clip-path:url(#SVGID_00000154408780888254133380000015860889467588792461_);}
	.st10{clip-path:url(#SVGID_00000172411571298724449930000012191690615248275132_);}
	.st11{clip-path:url(#SVGID_00000120541280005351595770000018228210993315300516_);}
	.st12{clip-path:url(#SVGID_00000098189637567387840800000009934461044467145372_);}
	.st13{clip-path:url(#SVGID_00000085950883000982496090000003215870194867683235_);}
	
		.st14{clip-path:url(#SVGID_00000151509392861613145270000003543575858924663697_);fill:none;stroke:#FFFFFF;stroke-width:7.5011;stroke-miterlimit:10;}
	.st15{clip-path:url(#SVGID_00000111171409587810424060000015795975593410221966_);}
	
		.st16{clip-path:url(#SVGID_00000001644108325087281260000005485325422986872213_);fill:none;stroke:#FFFFFF;stroke-width:7.5011;stroke-miterlimit:10;}
	
		.st17{clip-path:url(#SVGID_00000135678552572063816020000003562475104588939412_);fill:none;stroke:#FFFFFF;stroke-width:7.5011;stroke-miterlimit:10;}
	
		.st18{clip-path:url(#SVGID_00000097459441261389232310000015774457921288365458_);fill:none;stroke:#FFFFFF;stroke-width:7.5011;stroke-miterlimit:10;}
	
		.st19{clip-path:url(#SVGID_00000178898605590769402700000010528155584970305194_);fill:none;stroke:#FFFFFF;stroke-width:7.5011;stroke-miterlimit:10;}
	.st20{clip-path:url(#SVGID_00000069366218048813139390000002961049911700582019_);}
	.st21{fill:none;stroke:#FFFFFF;stroke-width:7.7707;stroke-miterlimit:10;}
	
		.st22{clip-path:url(#SVGID_00000150078296253290144600000015345649770638391737_);fill:none;stroke:#FFFFFF;stroke-width:7.7707;stroke-miterlimit:10;}
	.st23{clip-path:url(#SVGID_00000129912744376728114040000017926986888409742013_);}
	.st24{clip-path:url(#SVGID_00000146473158714368093870000013611890140632894388_);}
	.st25{clip-path:url(#SVGID_00000116918248902187626030000015213312983467701177_);}
	.st26{clip-path:url(#SVGID_00000171698288172710781600000004671963193194210196_);}
	.st27{clip-path:url(#SVGID_00000029743304727101269500000002085900253511041188_);}
	.st28{clip-path:url(#SVGID_00000097492210330284873400000004178982172472449666_);}
	
		.st29{clip-path:url(#SVGID_00000111189374628674590210000003961897289839540662_);fill:none;stroke:#FFFFFF;stroke-width:7.7707;stroke-miterlimit:10;}
	.st30{clip-path:url(#SVGID_00000114780112722702835490000012807580487639864462_);}
	
		.st31{clip-path:url(#SVGID_00000078732565555077903800000014075139726685377426_);fill:none;stroke:#FFFFFF;stroke-width:7.7707;stroke-miterlimit:10;}
	
		.st32{clip-path:url(#SVGID_00000035493770042928504880000013722760817300456635_);fill:none;stroke:#FFFFFF;stroke-width:7.7707;stroke-miterlimit:10;}
	
		.st33{clip-path:url(#SVGID_00000067228932191913895250000004408585851141866942_);fill:none;stroke:#FFFFFF;stroke-width:7.7707;stroke-miterlimit:10;}
	
		.st34{clip-path:url(#SVGID_00000109733518318888935590000000837565937908575907_);fill:none;stroke:#FFFFFF;stroke-width:7.7707;stroke-miterlimit:10;}
	
		.st35{clip-path:url(#SVGID_00000065760768268346002620000006518229931250760110_);fill:none;stroke:#FFFFFF;stroke-width:7.7707;stroke-miterlimit:10;}
	
		.st36{clip-path:url(#SVGID_00000133522824666191967640000011872855280132340392_);fill:none;stroke:#FFFFFF;stroke-width:7.7707;stroke-miterlimit:10;}
	
		.st37{clip-path:url(#SVGID_00000064317552213564228720000015653458184083210175_);fill:none;stroke:#FFFFFF;stroke-width:7.5011;stroke-miterlimit:10;}
	
		.st38{clip-path:url(#SVGID_00000150823052225642722850000001711120882972721043_);fill:none;stroke:#FFFFFF;stroke-width:7.5011;stroke-miterlimit:10;}
</style>
<g>
	<g>
		<rect y="810.3" class="st0" width="3835.4" height="169.5"/>
		<g>
			<g>
				<path class="st1" d="M106.9,945.9c-4.2,2.5-6.6,3-11.5,3c-28,0-31.7-30.5-31.7-52s2.7-55.6,31.4-55.6c4.9,0,7.5,0.8,11.8,3.1
					v12.7c-2.8-1.6-5.8-2.7-9.1-2.7c-19,0-19.2,28.3-19.2,41.6c0,13.7,1.1,39,19.9,39c3.1,0,5.5-0.6,8.3-2V945.9z"/>
				<path class="st1" d="M203,921.7c-2.5,15.4-8,27.2-25.4,27.2c-9,0-16.6-3.8-21-11.8c-6-10.8-6.4-32-6.4-44.5
					c0-12.3,0.3-27.3,5.7-38.5c4.4-9.1,11.5-12.7,21.5-12.7c8.8,0,16,3.5,20.6,11.2c6.4,11.2,6.8,31.6,6.8,44.5
					C204.6,905.3,204.3,913.5,203,921.7z M187.6,864c-1.3-5.7-4.1-9.9-10.4-9.9c-3.8,0-6.1,1.4-8.2,4.4c-4.2,6-4.2,23.1-4.2,30.5
					c0,11-0.3,22.3,1.4,33.1c1.1,6.4,3.3,13.7,11.2,13.7c5,0,8-3,9.7-7.5c2.8-8,2.7-26.1,2.7-35.2
					C189.8,883.5,189.8,873.4,187.6,864z"/>
				<path class="st1" d="M253,947.4V842.7h14.1v92.8h23.1v11.9H253z"/>
				<path class="st1" d="M381,921.7c-2.5,15.4-8,27.2-25.4,27.2c-9,0-16.6-3.8-21-11.8c-6-10.8-6.4-32-6.4-44.5
					c0-12.3,0.3-27.3,5.7-38.5c4.4-9.1,11.5-12.7,21.5-12.7c8.8,0,16,3.5,20.6,11.2c6.4,11.2,6.8,31.6,6.8,44.5
					C382.6,905.3,382.2,913.5,381,921.7z M365.6,864c-1.3-5.7-4.1-9.9-10.4-9.9c-3.8,0-6.1,1.4-8.2,4.4c-4.2,6-4.2,23.1-4.2,30.5
					c0,11-0.3,22.3,1.4,33.1c1.1,6.4,3.3,13.7,11.2,13.7c5,0,8-3,9.7-7.5c2.8-8,2.7-26.1,2.7-35.2
					C367.8,883.5,367.8,873.4,365.6,864z"/>
				<path class="st1" d="M464.2,947.4l-19.2-48.9v48.9h-14.1V842.7h18.7c5.7,0,10.5,0.3,15.2,3.9c7.1,5.3,9,15.1,9,23.4
					c0,10.2-2.8,23.7-15.1,26.5l20,50.9H464.2z M445.1,889.1c3.6,0,7.4-0.2,10.2-2.5c3.9-3.3,4.9-9.3,4.9-14.1
					c0-4.2-0.6-10.1-2.8-13.8c-2.4-3.9-5.8-4.4-9.9-4.4h-2.4V889.1z"/>
			</g>
			<g>
				<path class="st1" d="M598.6,842.7c5.8,0,10.2,0.2,15.4,3.3c8.6,5.2,10.4,16.7,10.4,25.9c0,8.6-1.9,18.7-9.1,24.3
					c-6,4.6-13.8,4.7-21,4.7v46.5h-14.1V842.7H598.6z M595.5,888.8c11.5,0,14.1-6.3,14.1-16.7c0-9.4-2.5-17.6-13.5-17.6h-1.9v34.2
					H595.5z"/>
				<path class="st1" d="M720.5,921.7c-2.5,15.4-8,27.2-25.4,27.2c-9,0-16.7-3.8-21.1-11.8c-6-10.8-6.4-32-6.4-44.5
					c0-12.3,0.3-27.3,5.7-38.5c4.4-9.1,11.5-12.7,21.5-12.7c8.8,0,16,3.5,20.6,11.2c6.4,11.2,6.8,31.6,6.8,44.5
					C722.1,905.3,721.8,913.5,720.5,921.7z M705.1,864c-1.3-5.7-4.1-9.9-10.4-9.9c-3.8,0-6.1,1.4-8.2,4.4c-4.2,6-4.2,23.1-4.2,30.5
					c0,11-0.3,22.3,1.4,33.1c1.1,6.4,3.3,13.7,11.2,13.7c5,0,8-3,9.7-7.5c2.8-8,2.7-26.1,2.7-35.2
					C707.3,883.5,707.3,873.4,705.1,864z"/>
				<path class="st1" d="M803.8,947.4l-19.2-48.9v48.9h-14.1V842.7h18.7c5.7,0,10.5,0.3,15.2,3.9c7.1,5.3,9,15.1,9,23.4
					c0,10.2-2.8,23.7-15.1,26.5l20,50.9H803.8z M784.6,889.1c3.6,0,7.4-0.2,10.2-2.5c3.9-3.3,4.9-9.3,4.9-14.1
					c0-4.2-0.6-10.1-2.8-13.8c-2.4-3.9-5.8-4.4-9.9-4.4h-2.4V889.1z"/>
				<path class="st1" d="M885,855.1v92.4h-13.8v-92.4h-16v-12.4H901v12.4H885z"/>
				<path class="st1" d="M974.3,947.4l-3.9-20.4h-20.7l-3.9,20.4H932l22.8-104.8h11.2l22.3,104.8H974.3z M968.3,916.2
					c-3.1-17.6-6.3-35.3-8.2-53.1c-1.7,17.9-5.2,35.5-8.5,53.1H968.3z"/>
				<path class="st1" d="M1050,842.7c17.6,0,22.5,12.4,22.5,28c0,5.8-0.6,12.1-3.9,17.1c-2.4,3.6-5.2,5-9.3,6.4
					c3.3,1.3,6.8,2.8,9.3,5.5c4.6,4.9,5.5,12.6,5.5,19c0,17-6,28.7-24.7,28.7h-18.5V842.7H1050z M1045.1,888.8
					c12.1,0,13.7-8,13.7-18.2c0-8.2-2.5-16.5-12.3-16.5h-2.4v34.7H1045.1z M1044.2,935.3c3,0,6.1,0,8.8-1.3
					c5.8-2.7,6.4-10.4,6.4-15.9c0-11.5-2.4-18.2-15.2-18.2V935.3z"/>
				<path class="st1" d="M1122.4,947.4V842.7h14.1v92.8h23.1v11.9H1122.4z"/>
				<path class="st1" d="M1202.8,947.4V842.7h37.5v11.9H1217v33.3h20.7v11.9H1217v35.7h23.4v11.9H1202.8z"/>
			</g>
			<g>
				<path class="st1" d="M2794.5,896.4c0,11.5,0.2,24.3-3,35.5c-3.1,11.2-10.5,17-22.1,17c-17.9,0-23.6-12.6-26.1-28.1
					c-1.3-8.3-1.6-16.8-1.6-25.1c0-12.1,0.3-25.4,3.8-37.1c3.5-11.3,11.3-17.1,23.2-17.1c14.9,0,21.2,7.9,25.1,21.4l-13.2,5.5
					c-1.4-7.1-3.3-14.5-12.1-14.5c-4.4,0-6.4,1.7-8.5,5.5c-3.5,6.4-3.8,27.8-3.8,35.8c0,9.6,0.2,19.3,1.9,28.7
					c1.3,6.4,3.3,11.8,10.8,11.8c11.8,0,12.1-15.2,12.1-23.7v-7.7h-12.3v-11.9h25.6V896.4z"/>
				<path class="st1" d="M2886.4,947.4l-3.9-20.4h-20.7l-3.9,20.4h-13.7l22.8-104.8h11.2l22.3,104.8H2886.4z M2880.5,916.2
					c-3.1-17.6-6.3-35.3-8.2-53.1c-1.7,17.9-5.2,35.5-8.5,53.1H2880.5z"/>
				<path class="st1" d="M3006.1,947.4c-0.9-14.5-2-29.1-2.7-43.5c-0.2-4.7-0.5-9.3-0.6-14c-0.2-4.9,0.3-9.7-0.5-14.6
					c-3.8,24.2-8.8,48.1-13.4,72.1h-9.4c-5-23.9-10.8-47.8-13.8-72.1l-4.1,72.1h-13.2l8.6-104.8h12.1l9.1,42.7
					c0.5,2.5,1.3,5,1.7,7.5c1.6,8.5,2.8,17,3.9,25.4c0.3-5,1.6-9.9,2.4-14.8c0.6-3.8,1.1-7.7,1.7-11.5c0.5-2.5,1.1-4.9,1.6-7.4
					l8.2-42.1h12.3l9.7,104.8H3006.1z"/>
				<path class="st1" d="M3074.8,947.4V842.7h37.5v11.9h-23.4v33.3h20.7v11.9h-20.7v35.7h23.4v11.9H3074.8z"/>
			</g>
			<g>
				<path class="st1" d="M3271.3,858.7c-3.5-2.7-7.1-4.7-11.5-4.7c-8,0-12.7,6.4-12.7,14c0,19.3,29.2,24.2,29.2,53.1
					c0,14.6-8.6,27.8-24.3,27.8c-5.8,0-10.7-1.4-15.4-5v-14c4.2,3.1,8.3,5.5,13.7,5.5c8.3,0,12.4-6.6,12.4-14.3
					c0-21.7-29.4-25-29.4-52.9c0-14.9,7.7-26.7,23.7-26.7c5.8,0,9.3,0.8,14.5,3.5L3271.3,858.7z"/>
				<path class="st1" d="M3356.2,902.3v45.1h-14.1v-45.1l-21.8-59.7h14.9l8.5,28.1c2,6.8,3.6,11.9,5.2,20.4
					c0.8-4.7,2.8-15.4,4.1-20.7l6.9-27.8h14.6L3356.2,902.3z"/>
				<path class="st1" d="M3460.6,858.7c-3.5-2.7-7.1-4.7-11.5-4.7c-8,0-12.7,6.4-12.7,14c0,19.3,29.2,24.2,29.2,53.1
					c0,14.6-8.6,27.8-24.3,27.8c-5.8,0-10.7-1.4-15.4-5v-14c4.2,3.1,8.3,5.5,13.7,5.5c8.3,0,12.4-6.6,12.4-14.3
					c0-21.7-29.4-25-29.4-52.9c0-14.9,7.7-26.7,23.7-26.7c5.8,0,9.3,0.8,14.5,3.5L3460.6,858.7z"/>
				<path class="st1" d="M3541,855.1v92.4h-13.8v-92.4h-16v-12.4h45.9v12.4H3541z"/>
				<path class="st1" d="M3608.2,947.4V842.7h37.5v11.9h-23.4v33.3h20.7v11.9h-20.7v35.7h23.4v11.9H3608.2z"/>
				<path class="st1" d="M3756.2,947.4c-0.9-14.5-2-29.1-2.7-43.5c-0.2-4.7-0.5-9.3-0.6-14c-0.2-4.9,0.3-9.7-0.5-14.6
					c-3.8,24.2-8.8,48.1-13.4,72.1h-9.4c-5-23.9-10.8-47.8-13.8-72.1l-4.1,72.1h-13.2l8.6-104.8h12.1l9.1,42.7
					c0.5,2.5,1.3,5,1.7,7.5c1.6,8.5,2.8,17,3.9,25.4c0.3-5,1.6-9.9,2.4-14.8c0.6-3.8,1.1-7.7,1.7-11.5c0.5-2.5,1.1-4.9,1.6-7.4
					l8.2-42.1h12.3l9.7,104.8H3756.2z"/>
			</g>
		</g>
		<g>
			<g>
				<g>
					<g>
						<path d="M0,213.4C0,72.5,90.3,4.8,214,4.8c112.9,0,214,41.5,214,176.9v80.4h-158v-72.2c0-36.1-15.3-56.9-52.4-56.9
							c-44.2,0-51.5,43.3-51.5,65.9v356.6c0,19,0,65.9,47.8,65.9c37,0,53.3-17.2,53.3-54.2v-93h-58.7V340.7h219.4v397.2H282.6v-58.7
							h-1.8c-29.8,48.8-69.5,70.4-128.2,70.4C33.4,749.6,0,650.3,0,541.1V213.4z"/>
						<path d="M544.4,16.6h220.3l135.4,721.3H725.9l-15.3-128.2H594l-17.2,128.2H410.8L544.4,16.6z M611.2,481.5h83.1l-38.8-353
							h-1.8L611.2,481.5z"/>
						<path d="M887.5,16.6h261.8l46.9,357.5h1.8L1245,16.6h261.8v721.3h-160.7V177.3h-1.8l-93,560.6H1143l-93-560.6h-1.8v560.6
							H887.5V16.6z"/>
						<path d="M1542.9,16.6h369.2v139H1709v143.5h177.9v139H1709v160.7h211.3v139h-377.4V16.6z"/>
					</g>
					<g>
						<path d="M2092.1,208.5C2092.1,67.7,2182.4,0,2306,0c112.9,0,214,41.5,214,176.9v80.4h-158v-72.2c0-36.1-15.3-56.9-52.4-56.9
							c-44.2,0-51.5,43.3-51.5,65.9v356.6c0,19,0,65.9,47.8,65.9c37,0,53.3-17.2,53.3-54.2v-93h-58.7V335.8H2520v397.2h-145.4v-58.7
							h-1.8c-29.8,48.8-69.5,70.4-128.2,70.4c-119.2,0-152.6-99.3-152.6-208.5V208.5z"/>
						<path d="M2555.2,11.7h369.2v139h-203.1v143.5h177.9v139h-177.9V594h211.3v139h-377.4V11.7z"/>
						<path d="M3063.1,11.7h220.3l135.4,721.3h-174.2l-15.3-128.2h-116.5l-17.2,128.2h-166.1L3063.1,11.7z M3129.9,476.7h83.1
							l-38.8-353h-1.8L3129.9,476.7z"/>
					</g>
				</g>
				<path d="M3835.4,633.1c-0.1-12.5,0-24.9,0-36.3v-33.6v-93.7c0-60.5-37.9-102.9-96.6-114.7V353c88.5-27.1,100.2-82.2,100.2-167
					c0-130-62.3-174.2-210.4-174.2h-219.4v721.3h166.1V421.6h30.7c46.9,0,63.2,18.1,63.2,59.6v115.6c0,47.8,0,108.6,0,136.3h166.1
					V633.1z M3616,298.8h-40.6V134.5h32.5c65,0,65,28.9,65,79.4C3672.9,260.9,3672.9,298.8,3616,298.8z"/>
			</g>
		</g>
		<g>
			<g id="g10_00000055687178557107377520000003045173297249063049_" transform="matrix(1.3333333,0,0,-1.3333333,0,132)">
				<g id="g12_00000030471834360218889550000005722407041955339408_" transform="scale(0.1)">
					<path id="path16_00000095332156837153613380000013871577083523644834_" class="st3" d="M16845.7-7195.9
						c0,0,841.1,2499.2,849.4,2525.1c23.1,71.7,154.9,444,600.7,444c445.9,0,596-444,596-444l822-2525.1h-1581.2v697l-248-697
						H16845.7z M18398.6-6222.7l-92.1,256.5l-104.1-256.5H18398.6z"/>
					<path id="path24_00000019674860376749023880000007823717773744715650_" class="st3" d="M16934.8-4254.5c0,0-868.3,6.4-1285.9,0
						c-558-8.5-860.2-363.4-864.9-821.2c-4.7-457.9-3.4-1143.6-2.2-1291.6c4.4-528.3,394.6-835.1,887.7-828.6h1265.2V-4254.5"/>
					<path id="path26_00000157999725764619224320000001569763583142613437_" class="st21" d="M16933-4723.4c0,0-837.3-0.1-1303.7,0
						c-266.5,0.1-380.5-188.4-383.2-392.2c-1.3-95.8,0-1122,0-1258.2s121.1-344.9,342.8-344.9c213.3,0,748.5,0,863.3,0
						c14.1,0,21.9,6.4,21.9,18.3c0,131.3,0,926.9,0,936.3c0,13.9-8,28.1-29.2,28.1c-16.4,0-414.8,0-414.8,0h-259.6"/>
					<path id="path28_00000140717220038085001060000015708263966745991867_" class="st3" d="M14616.5-6282.5v-913.4h-1208.9
						c-815.4,0-894.3,624.3-894.3,837.1c0,32.4,0,1151.6,0,1151.6c0,827.8,473.5,952.7,1061.4,952.7c75.1,0,1045.1,0,1045.1,0
						v-942.2l-679.6-1.3h-187.3h-31.7h-198.3c-17.5,0-31.7-17.8-31.7-35.1c0-17.2,14.2-27.1,31.7-27.1h198.3h31.7h187.3h457v-958.8
						h-458.9h-50h-31.7h-326.1c-17.5,0-31.7-14-31.7-31.2c0-17.2,14.2-31.2,31.7-31.2h326.1h31.7h50h434.9L14616.5-6282.5"/>
					<path id="path30_00000144335712957868114820000007732245667007292823_" class="st21" d="M16934.8-5231.8c0,0-1086.2,0-1109.5,0
						s-54.8-4.5-54.9-57.1c0-95.1,0-872.3,0-900.9c0-28.6,11-46,47.2-46c51.3,0,183,0,183,0"/>
					<path id="path32_00000152980367828001426340000007723299343580449192_" class="st21" d="M14616.5-6722.3c0,0-980.3,0-1219.9,0
						c-239.6,0-396.8,146.8-396.8,374.7c0,138.4,0,1104.8,0,1215.1c0,278.2,156.5,404.8,366.5,404.8c199.6,0,1253.4,0,1253.4,0"/>
					<path id="path34_00000158728647960774005370000003404699330329949856_" class="st21" d="M14396.9-5730.2h-1401.4"/>
					<path id="path36_00000000218999159082590500000001446207488830763910_" class="st3" d="M12296.1-4268.8c0,0-800.2,0-1212,0
						c-683.9,0-997.8-439.5-990.8-980.6c5.8-444,315.6-889.9,818-919.8c0,0,368.4-13.9,420-13.9c51.6,0,74.1-1.3,71.2-38.9
						c-2.4-30.4-40.3-26.6-76.3-26.6h-1206.6v-426.7l-0.1-527.9c0,0,1160.3-2.9,1339.8,7.3c374.8,21.4,896.2,347.9,896,933.8
						c-0.2,585.9-441.9,962.8-832.9,993.7c0,0-433.8,5.9-458.8,5.9c-25,0-37.3,15.1-34.2,36.7c3.1,21.6,6.3,24.7,34.4,24.7
						c28.2,0,1227.3,0,1227.3,0L12296.1-4268.8"/>
					<path id="path38_00000076572177570545926060000003569844189797629105_" class="st21" d="M12293.6-4734l-1236.7,0.6
						c0,0-495.9,23.2-495.9-491.2c0-255.6,139.6-392,301-453c131.5-49.7,198.6-43.8,561.1-43.8c245.5,0,470.5-196.4,470.5-524.2
						c0-527.9-654.7-481.1-786.6-481.1c-88.7,0-987.3,0-987.3,0"/>
					<g>
						<defs>
							<rect id="SVGID_00000173146027230599179120000007307885601241084318_" x="18011.1" y="-6031.2" width="281" height="358.4"/>
						</defs>
						<clipPath id="SVGID_00000147203952878796237230000007715964903753173386_">
							<use xlink:href="#SVGID_00000173146027230599179120000007307885601241084318_"  style="overflow:visible;"/>
						</clipPath>
						
							<path id="path22_00000050661456463084555990000010139002122761363896_" style="clip-path:url(#SVGID_00000147203952878796237230000007715964903753173386_);fill:none;stroke:#FFFFFF;stroke-width:7.7707;stroke-miterlimit:10;" d="
							M17344.3-7226.6c0,0,789.1,2371.7,824.2,2490c35.1,118.4,197.3,175.4,254.3,17.5s648.8-1985.9,648.8-1985.9h-938.9"/>
					</g>
				</g>
			</g>
		</g>
	</g>
</g>
</svg>
