<?xml version="1.0" encoding="utf-8"?>
<!-- Generator: Adobe Illustrator 25.4.1, SVG Export Plug-In . SVG Version: 6.00 Build 0)  -->
<svg version="1.1" id="Layer_1" xmlns="http://www.w3.org/2000/svg" xmlns:xlink="http://www.w3.org/1999/xlink" x="0px" y="0px"
	 viewBox="0 0 2256.9 2159" style="enable-background:new 0 0 2256.9 2159;" xml:space="preserve">
<style type="text/css">
	.st0{fill:#FFFFFF;}
	.st1{fill:#912620;}
	.st2{fill:#008471;}
	.st3{fill:#005090;}
	.st4{fill:#B22D2A;}
	.st5{fill:#B32D2A;}
	.st6{fill:#B42D2A;}
	.st7{fill:#B52D2A;}
	.st8{fill:#B62D2A;}
	.st9{fill:#B72D29;}
	.st10{fill:#B82D29;}
	.st11{fill:#B92D29;}
	.st12{fill:#BA2D29;}
	.st13{fill:#BB2D29;}
	.st14{fill:#BC2D29;}
	.st15{fill:#BD2D29;}
	.st16{fill:#BE2D29;}
	.st17{fill:#BF2D29;}
	.st18{fill:#C02D29;}
	.st19{fill:#C12D28;}
	.st20{fill:#C22D28;}
	.st21{fill:#C32D28;}
	.st22{fill:#C42D28;}
	.st23{fill:#C52D28;}
	.st24{fill:#C62D28;}
	.st25{fill:#C72D28;}
	.st26{fill:#C82D28;}
	.st27{fill:#C92D28;}
	.st28{fill:#CA2D28;}
	.st29{fill:#CA2E27;}
	.st30{fill:#CB2E27;}
	.st31{fill:#CC2E27;}
	.st32{fill:#CD2E27;}
	.st33{fill:#CE2E27;}
	.st34{fill:#CF2E27;}
	.st35{fill:#D02E27;}
	.st36{fill:#D12E27;}
	.st37{fill:#D22E27;}
	.st38{fill:#D32E27;}
	.st39{fill:#D42E26;}
	.st40{fill:#D52E26;}
	.st41{fill:#D62E26;}
	.st42{fill:#D72E26;}
	.st43{fill:#D82E26;}
	.st44{fill:#D92E26;}
	.st45{fill:#DA2E26;}
	.st46{fill:#DB2E26;}
	.st47{fill:#DC2E26;}
	.st48{fill:#DD2E26;}
	.st49{fill:#DE2E25;}
	.st50{fill:#DF2E25;}
	.st51{fill:#E02E25;}
	.st52{fill:#E12E25;}
	.st53{fill:#E22E25;}
	.st54{fill:#009588;}
	.st55{fill:#009587;}
	.st56{fill:#019486;}
	.st57{fill:#019485;}
	.st58{fill:#019384;}
	.st59{fill:#029383;}
	.st60{fill:#029382;}
	.st61{fill:#029281;}
	.st62{fill:#039280;}
	.st63{fill:#03917F;}
	.st64{fill:#03917E;}
	.st65{fill:#03917D;}
	.st66{fill:#04907C;}
	.st67{fill:#04907B;}
	.st68{fill:#048F7A;}
	.st69{fill:#058F79;}
	.st70{fill:#058F78;}
	.st71{fill:#058E77;}
	.st72{fill:#068E76;}
	.st73{fill:#068D75;}
	.st74{fill:#068D74;}
	.st75{fill:#078D73;}
	.st76{fill:#078C72;}
	.st77{fill:#078C71;}
	.st78{fill:#088B70;}
	.st79{fill:#088B6F;}
	.st80{fill:#088B6E;}
	.st81{fill:#088A6D;}
	.st82{fill:#098A6C;}
	.st83{fill:#09896B;}
	.st84{fill:#09896A;}
	.st85{fill:#0A8969;}
	.st86{fill:#0A8868;}
	.st87{fill:#0A8867;}
	.st88{fill:#0B8766;}
	.st89{fill:#0B8765;}
	.st90{fill:#0B8764;}
	.st91{fill:#0C8663;}
	.st92{fill:#0C8662;}
	.st93{fill:#0C8561;}
	.st94{fill:#0D8560;}
	.st95{fill:#0D845F;}
	.st96{fill:#0D845E;}
	.st97{fill:#0E835D;}
	.st98{fill:#0E835C;}
	.st99{fill:#0E835B;}
	.st100{fill:#0F825A;}
	.st101{fill:#0F8259;}
	.st102{fill:#0F8158;}
	.st103{fill:#108157;}
	.st104{fill:#108156;}
	.st105{fill:#108055;}
	.st106{fill:#118054;}
	.st107{fill:#117F53;}
	.st108{fill:#117F52;}
	.st109{fill:#117F51;}
	.st110{fill:#127E50;}
	.st111{fill:#127E4F;}
	.st112{fill:#127D4E;}
	.st113{fill:#137D4D;}
	.st114{fill:#137D4C;}
	.st115{fill:#137C4B;}
	.st116{fill:#147C4A;}
	.st117{fill:#147B49;}
	.st118{fill:#147B48;}
	.st119{fill:#157B47;}
	.st120{fill:#157A46;}
	.st121{fill:#157A45;}
	.st122{fill:#167944;}
	.st123{fill:#167943;}
	.st124{fill:#167942;}
	.st125{fill:#167841;}
	.st126{fill:#177840;}
	.st127{fill:#17773F;}
	.st128{fill:#17773E;}
	.st129{fill:#18773D;}
	.st130{fill:#18763C;}
	.st131{fill:#18763B;}
	.st132{fill:#19753A;}
	.st133{fill:#197539;}
	.st134{fill:#005EAA;}
	.st135{fill:#005EAB;}
	.st136{fill:#015FAC;}
	.st137{fill:#015FAD;}
	.st138{fill:#0160AE;}
	.st139{fill:#0260AF;}
	.st140{fill:#0261B0;}
	.st141{fill:#0261B1;}
	.st142{fill:#0362B2;}
	.st143{fill:#0362B3;}
	.st144{fill:#0362B4;}
	.st145{fill:#0463B5;}
	.st146{fill:#0463B6;}
	.st147{fill:#0464B7;}
	.st148{fill:#0564B8;}
	.st149{fill:#0565B9;}
	.st150{fill:#0565BA;}
	.st151{fill:#0666BB;}
	.st152{fill:#0666BC;}
	.st153{fill:#0666BD;}
	.st154{fill:#0767BE;}
	.st155{fill:#0767BF;}
	.st156{fill:#0768BF;}
	.st157{fill:#0768C0;}
	.st158{fill:#0869C1;}
	.st159{fill:#0869C2;}
	.st160{fill:#0869C3;}
	.st161{fill:#096AC4;}
	.st162{fill:#096AC5;}
	.st163{fill:#096BC6;}
	.st164{fill:#0A6BC7;}
	.st165{fill:#0A6CC8;}
	.st166{fill:#0A6CC9;}
	.st167{fill:#0B6DCA;}
	.st168{fill:#0B6DCB;}
	.st169{fill:#0B6DCC;}
	.st170{fill:#0C6ECD;}
	.st171{fill:#0C6ECE;}
	.st172{fill:#0C6FCF;}
	.st173{fill:#0D6FD0;}
	.st174{fill:#0D70D1;}
	.st175{fill:#0D70D2;}
	.st176{fill:#0E71D3;}
	.st177{fill:#0E71D4;}
	.st178{fill:#0058B7;}
	.st179{fill:#0058B6;}
	.st180{fill:#0057B5;}
	.st181{fill:#0057B4;}
	.st182{fill:#0057B3;}
	.st183{fill:#0057B2;}
	.st184{fill:#0056B1;}
	.st185{fill:#0056B0;}
	.st186{fill:#0056AF;}
	.st187{fill:#0056AE;}
	.st188{fill:#0055AD;}
	.st189{fill:#0055AC;}
	.st190{fill:#0055AB;}
	.st191{fill:#0055AA;}
	.st192{fill:#0054A9;}
	.st193{fill:#0054A8;}
	.st194{fill:#0054A7;}
	.st195{fill:#0054A6;}
	.st196{fill:#0053A5;}
	.st197{fill:#0053A4;}
	.st198{fill:#0053A3;}
	.st199{fill:#0053A2;}
	.st200{fill:#0052A1;}
	.st201{fill:#0052A0;}
	.st202{fill:#00529F;}
	.st203{fill:#00529E;}
	.st204{fill:#00519D;}
	.st205{fill:#00519C;}
	.st206{fill:#00519B;}
	.st207{fill:#00519A;}
	.st208{fill:#005099;}
	.st209{fill:#005098;}
	.st210{fill:#005097;}
	.st211{fill:#005096;}
	.st212{fill:#004F95;}
	.st213{fill:#004F94;}
	.st214{fill:#004F93;}
	.st215{fill:#004F92;}
	.st216{fill:#004E91;}
	.st217{fill:#004E90;}
	.st218{fill:#004E8F;}
	.st219{fill:#004E8E;}
	.st220{fill:#004D8D;}
	.st221{fill:#004D8C;}
	.st222{fill:#004D8B;}
	.st223{fill:#004D8A;}
	.st224{fill:#004C89;}
	.st225{fill:#004C88;}
	.st226{fill:#008472;}
	.st227{fill:#008572;}
	.st228{fill:#008671;}
	.st229{fill:#008771;}
	.st230{fill:#008871;}
	.st231{fill:#008970;}
	.st232{fill:#008A70;}
	.st233{fill:#008B6F;}
	.st234{fill:#008C6F;}
	.st235{fill:#008D6F;}
	.st236{fill:#008E6E;}
	.st237{fill:#008F6E;}
	.st238{fill:#00906D;}
	.st239{fill:#00916D;}
	.st240{fill:#00926D;}
	.st241{fill:#00936C;}
	.st242{fill:#00946C;}
	.st243{fill:#00956B;}
	.st244{fill:#00966B;}
	.st245{fill:#00976B;}
	.st246{fill:#00986A;}
	.st247{fill:#00996A;}
	.st248{fill:#D60700;}
	.st249{fill:#034693;}
	.st250{fill:url(#SVGID_1_);}
	.st251{fill:url(#SVGID_00000104688122906535158600000009347557665618068376_);}
	.st252{fill:url(#SVGID_00000044163517626659038510000005085231340129423796_);}
	.st253{fill:url(#SVGID_00000052792900795028252730000000845454476306370226_);}
	.st254{fill:url(#SVGID_00000178180235717704818610000000463817343606483617_);}
	.st255{fill:url(#SVGID_00000138574265555953557420000015475078575976078515_);}
	.st256{fill:url(#SVGID_00000169545907971973873110000003527816202603681723_);}
	.st257{fill:url(#SVGID_00000083811878050834030650000010545854075977906575_);}
	.st258{fill:url(#SVGID_00000177486414208488007480000009810851349485121933_);}
	.st259{fill:url(#SVGID_00000027567660400239361020000014877881829332742036_);}
	.st260{fill:url(#SVGID_00000014633458300061292120000005199745853566085037_);}
	.st261{fill:url(#SVGID_00000133488550883575498160000016897127684125249674_);}
	.st262{fill:url(#SVGID_00000004528281774159862790000017535483767459991207_);}
	.st263{fill:url(#SVGID_00000147203282835156311790000002777592445019484570_);}
	.st264{fill:url(#SVGID_00000153694074725324440940000000285091558543926671_);}
	.st265{fill:url(#SVGID_00000037664832156761094030000002131537708283338115_);}
	.st266{fill:url(#SVGID_00000107559431602537759380000012247761550919777670_);}
	.st267{fill:url(#SVGID_00000005968247719668919800000014361093264791095455_);}
	.st268{fill:url(#SVGID_00000106108957514726517610000018007788596326534285_);}
	.st269{fill:url(#SVGID_00000103954301788351070910000014737469458042420915_);}
	.st270{fill:url(#SVGID_00000102519005817348117410000006762061959459496098_);}
	.st271{fill:url(#SVGID_00000005955168584502124490000007216614980447892609_);}
	.st272{fill:url(#SVGID_00000182523162442865395720000000804743510941090212_);}
	.st273{fill:url(#SVGID_00000069360263394409780540000013616150138841640097_);}
	.st274{fill:url(#SVGID_00000126315928678696561030000009806398031382836643_);}
	.st275{fill:url(#SVGID_00000078741917949971196150000009290343354879573892_);}
	.st276{fill:url(#SVGID_00000115483707291289988770000005452002714491720346_);}
	.st277{fill:url(#SVGID_00000128454357479548493110000005529132452520198579_);}
	.st278{fill:url(#SVGID_00000116207209561065365710000010258309678139980470_);}
	.st279{fill:url(#SVGID_00000034800020412387450590000005131269534380938374_);}
	.st280{fill:url(#SVGID_00000005248272018979326140000013564138352041823896_);}
	.st281{fill:url(#SVGID_00000160176245564728816900000002710842797501973149_);}
	.st282{fill:url(#SVGID_00000111179541608820203120000003917329044681254832_);}
	.st283{fill:url(#SVGID_00000095316245294187074830000010243449688737938829_);}
	.st284{fill:url(#SVGID_00000012463983539417484060000008739849607275871647_);}
	.st285{fill:url(#SVGID_00000085233188079411223930000013264550988208114622_);}
	.st286{fill:url(#SVGID_00000147941155205089595330000009525112369211146681_);}
	.st287{fill:url(#SVGID_00000173141418761189369520000008749124701402276224_);}
	.st288{fill:url(#SVGID_00000077319361624601469520000016869146415030648476_);}
	.st289{fill:url(#SVGID_00000103226345466524374530000010714160654447014050_);}
	.st290{fill:url(#SVGID_00000051346935637100518970000014484557843879757997_);}
	.st291{fill:url(#SVGID_00000010998216231131979170000015611714540096030099_);}
	.st292{fill:url(#SVGID_00000053531929712017076130000014765568133113794435_);}
	.st293{fill:url(#SVGID_00000107574012016124726410000009980287605762735756_);}
	.st294{fill:url(#SVGID_00000160875640373404526070000011815554318023370124_);}
	.st295{fill:url(#SVGID_00000180328005562403141520000016466071430841650325_);}
	.st296{fill:url(#SVGID_00000152240848466510427670000017589972138054777477_);}
	.st297{fill:url(#SVGID_00000154414446676496410340000006851700530309913759_);}
	.st298{fill:url(#SVGID_00000134963280397253458470000014803955537436604083_);}
	.st299{fill:url(#SVGID_00000013887597685425539900000009727409761480069520_);}
	.st300{fill:url(#SVGID_00000098944006615316404830000006070099875305186462_);}
	.st301{fill:url(#SVGID_00000181780712826055202440000012271739911860105627_);}
	.st302{fill:url(#SVGID_00000003790887162089858990000002070252159860284035_);}
	.st303{fill:url(#SVGID_00000092438533643416499730000011481361784898023098_);}
	.st304{fill:url(#SVGID_00000092451045316408812100000018041478986343134856_);}
	.st305{fill:url(#SVGID_00000040544667026753437390000002958695475550128796_);}
	.st306{fill:url(#SVGID_00000154402438969411946320000007723151798200230317_);}
	.st307{fill:url(#SVGID_00000065794441922040382660000003206532862546525087_);}
	.st308{fill:url(#SVGID_00000006678129908107571140000014288121647300904092_);}
	.st309{fill:url(#SVGID_00000116954021511476017570000002440851929303803802_);}
	.st310{fill:url(#SVGID_00000000923531538413486970000014753374314910433711_);}
	.st311{fill:url(#SVGID_00000165916075165757358860000000954005076993298571_);}
	.st312{fill:url(#SVGID_00000082336286415572019500000012416770650471327918_);}
	.st313{fill:url(#SVGID_00000005949607187842093950000014120041076120140727_);}
	.st314{fill:url(#SVGID_00000134248466938571267140000002295460961433155736_);}
	.st315{fill:url(#SVGID_00000019662764798504059750000014091895460268038074_);}
	.st316{fill:url(#SVGID_00000051369688690595967500000010628168237398222243_);}
	.st317{fill:url(#SVGID_00000033336017895951726200000009791831701339244427_);}
	.st318{fill:url(#SVGID_00000159446949021016055100000012602041479182281135_);}
	.st319{fill:url(#SVGID_00000063633198354986641010000002224596089063531172_);}
	.st320{fill:url(#SVGID_00000183928312002839901500000011259708344876437893_);}
	.st321{fill:url(#SVGID_00000057845746345295321320000016168319976489301920_);}
	.st322{fill:url(#SVGID_00000152254309509652646790000007518682200846333074_);}
	.st323{fill:url(#SVGID_00000024723909081151856350000018005648154737097143_);}
	.st324{fill:url(#SVGID_00000157990066897325482730000008159529441067545767_);}
	.st325{fill:url(#SVGID_00000173122870418846712280000011474767061859150762_);}
	.st326{fill:url(#SVGID_00000036212126411180929520000013038326971998543493_);}
	.st327{fill:url(#SVGID_00000085958316989416485870000014367845881299117474_);}
	.st328{fill:url(#SVGID_00000096751838629853617750000014940598739046102456_);}
	.st329{fill:url(#SVGID_00000029732994832730493310000009721063417534479520_);}
	.st330{fill:url(#SVGID_00000147920115841935971770000002694927981122085550_);}
	.st331{fill:url(#SVGID_00000091705344782705915410000006904044023265159343_);}
	.st332{fill:url(#SVGID_00000081608255471381829590000013242603280245988019_);}
	.st333{fill:url(#SVGID_00000022522660401696081500000012760307722568820658_);}
	.st334{fill:url(#SVGID_00000115504622936059915870000016462508895186180484_);}
	.st335{fill:url(#SVGID_00000007428737411218500420000008823583416263085196_);}
	.st336{fill:url(#SVGID_00000032639496667293596960000006795433613913975228_);}
	.st337{fill:url(#SVGID_00000071545231469435429470000005724278300464751528_);}
	.st338{fill:url(#SVGID_00000051343210358216920160000012154609676589977021_);}
	.st339{fill:url(#SVGID_00000020399426156548936220000013806345343426050990_);}
	.st340{fill:url(#SVGID_00000036955428535899723520000006249195989917585309_);}
	.st341{fill:url(#SVGID_00000046318285705091616870000014144521688544279721_);}
	.st342{fill:url(#SVGID_00000096737498433343898590000017534684289454655674_);}
	.st343{fill:url(#SVGID_00000127722258039522889700000018283025907311416466_);}
	.st344{fill:url(#SVGID_00000029008587691595906340000012380147284105162399_);}
	.st345{fill:url(#SVGID_00000155147782641236077660000004999637426821264802_);}
	.st346{fill:#034693;stroke:#FFFFFF;stroke-width:25.205;stroke-miterlimit:10;}
	.st347{fill:url(#SVGID_00000065779976487489512220000007685021054663164090_);}
	.st348{fill:url(#SVGID_00000004524106548779093210000003441975410724716730_);}
	.st349{fill:url(#SVGID_00000040552375959038238820000011860165363229628047_);}
	.st350{fill:url(#SVGID_00000183960557358608485120000000926844459821941648_);}
	.st351{fill:url(#SVGID_00000168801038555005193250000005571286203640438417_);}
	.st352{fill:url(#SVGID_00000083080734443325436490000014094595555595963282_);}
	.st353{fill:url(#SVGID_00000029044273009244011990000001495791283389668747_);}
	.st354{fill:url(#SVGID_00000165955462270306778850000010459600905403368383_);}
</style>
<g>
	<g>
		<g>
			<g>
				<path class="st239" d="M1528.6,18.6C1512.3,6,1491.9,0,1468.3,0c-99.7,0-255,107.5-385.1,275.6
					c-160.7,207.9-222,429.8-136.7,495.7c16.3,12.6,36.7,18.6,60.2,18.6c99.7,0,255-107.5,385.1-275.6
					C1552.5,306.4,1613.8,84.4,1528.6,18.6z"/>
			</g>
		</g>
		<g>
			<g>
				<g>
					<path class="st248" d="M701.9,514.3C862.7,306.4,923.9,84.5,838.7,18.6C822.4,6,802,0,778.4,0c-99.7,0-255,107.5-385.1,275.6
						C232.6,483.5,171.4,705.5,256.6,771.3c16.3,12.6,36.7,18.6,60.2,18.6C416.5,789.9,571.9,682.4,701.9,514.3z"/>
				</g>
			</g>
			<g>
				<g>
					<path class="st249" d="M2081.7,514.3c160.7-207.9,221.9-429.8,136.7-495.7c-16.3-12.6-36.7-18.6-60.2-18.6
						c-99.7,0-255,107.5-385.1,275.6c-160.7,207.9-221.9,429.8-136.7,495.7c16.3,12.6,36.7,18.6,60.2,18.6
						C1796.3,789.9,1951.7,682.5,2081.7,514.3z"/>
				</g>
			</g>
		</g>
	</g>
	<g>
		<path class="st0" d="M1794,982.1L1794,982.1 M1794,982.1l-4.4,29.6l-15.1,102l-3.3,22h-22.3H1607l-7.8,51.6h107.3h29.9l-4.3,29.6
			l-15,102.2l-3.2,22.1h-22.3h-115.3l-6.8,45.1h133.8h29.9l-4.4,29.6l-15.3,102.2l-3.3,22H1688h-164h-34.2
			c-24.8,0-48.4-10.8-64.6-29.6c-16.2-18.8-23.5-43.7-19.8-68.3l58.2-387.5c3-20.2,13.2-38.7,28.7-52c15.5-13.3,35.3-20.6,55.7-20.6
			h216H1794 M1489.8,1514.4h34.2h164l15.3-102.2h-163.8l14.5-96.8h137.6l15-102.2h-137.3l15.5-103.2h164.1l15.1-102h-216
			c-29.5,0-54.5,21.5-58.9,50.6l-58.2,387.5C1425.6,1481.9,1453.5,1514.4,1489.8,1514.4 M1794,1007.9L1794,1007.9L1794,1007.9
			L1794,1007.9z M1489.8,1488.5c-9.9,0-19-4.2-25.5-11.7c-6.4-7.4-9.3-17.3-7.8-27l58.2-387.5c2.5-16.6,16.5-28.6,33.3-28.6h186.1
			l-7.5,50.3h-141.9c-12.8,0-23.6,9.3-25.5,22l-15.5,103.2c-1.1,7.4,1.1,15,6,20.7c4.9,5.7,12,9,19.6,9h107.4l-7.4,50.6H1554
			c-12.8,0-23.6,9.3-25.5,22l-14.5,96.8c-1.1,7.4,1.1,15,6,20.7c4.9,5.7,12,9,19.6,9h133.8l-7.6,50.6H1524H1489.8L1489.8,1488.5z"/>
		<path class="st0" d="M738,980.4c24.9,0,49,8.6,67.6,24.3c20.5,17.1,33.1,41.9,35.6,69.7l38.9,437.8l0.2,2.2l0.6-3.7l67-445.5
			c3.8-25.6,16-47,35.1-62.1c17-13.4,38.8-20.8,61.2-20.8c22.1,0,43.5,7.2,60.3,20.2c18.9,14.6,31.2,35.5,35.5,60.4l26.4,151.5
			l84.5-177.3c16.3-34.3,48.1-54.8,85-54.8c28.6,0,56.6,12.7,74.9,33.9c17.8,20.7,25.2,47.7,20.9,76l-64.1,426.1l-3.3,22h-22.2
			h-103.3h-30l4.5-29.6l8.1-54.1l-19.2,40.2c-6.7,14.1-17,25.6-29.9,33.3c-11.8,7.1-25.5,10.8-39.7,10.8c-17.6,0-34.7-5.9-48.3-16.5
			c-15-11.7-24.8-28.2-28.2-47.6l-7.9-45.3l-13.1,86.8l-3.3,22h-22.2H906.4h-23.8h-6.2h-22H751.8h-23.6l-2.1-23.5l-6.4-71.7h-75.8
			l-32.8,79.3l-6.6,15.9h-17.3H476.6H438l14.8-35.7L643.3,1044l0,0l0,0c8.5-20.2,22.2-36.8,39.8-47.9
			C699.3,985.8,718.3,980.4,738,980.4 M476.6,1514.4h110.6l39.4-95.2h116.7l8.5,95.2h102.6l-38.9-437.8
			c-4.1-45.3-40.7-70.4-77.5-70.4c-28.6,0-57.2,15.1-70.8,47.7L476.6,1514.4 M1154.9,1298.4l-40.3-231.2
			c-6.9-39.5-38.6-59.2-70.4-59.2c-32.4,0-64.7,20.3-70.8,60.9l-67,445.5h103.2l36.7-243.7l35.2,201.6c4.8,27.6,27.8,42.7,51.1,42.7
			c18.3,0,36.7-9.3,46.3-29.4l93.8-197l-33.9,225.8h103.3l64.1-426.1c7.4-48.8-31.4-80.3-70.3-80.3c-24.2,0-48.4,12.2-61.6,40
			L1154.9,1298.4 M691,1063.7c12-28.7,36.8-31.8,47-31.8c22.9,0,48.9,14.7,51.8,46.9l36.4,409.7h-50.8l-6.4-71.7
			c-1.2-13.3-12.3-23.5-25.7-23.5H626.6c-10.4,0-19.9,6.3-23.8,15.9l-32.8,79.3h-54.7L691,1063.7L691,1063.7z M1154.9,1324.2
			c9.8,0,19-5.6,23.3-14.7l119.4-250.4c10.5-22,28.5-25.3,38.4-25.3c13.8,0,27.2,6,35.8,16c8,9.3,11.1,21,9,34.7l-60.8,404.1h-51.1
			l29.5-196.1c1.9-12.6-5.7-24.8-18-28.5c-2.5-0.8-5-1.1-7.5-1.1c-9.7,0-18.9,5.5-23.3,14.7l-93.8,197c-6.1,12.7-17,14.6-23,14.6
			c-10.1,0-22.9-5.6-25.7-21.4l-35.2-201.6c-2.2-12.4-12.9-21.4-25.4-21.4c-0.1,0-0.2,0-0.3,0c-12.7,0.1-23.3,9.4-25.2,22
			l-33.4,221.7h-51l62.5-415.9c4.3-28.7,27.1-38.9,45.3-38.9c18.6,0,40.1,9.9,45,37.8l40.3,231.2c1.9,11.1,10.8,19.6,21.9,21.1
			C1152.6,1324.1,1153.7,1324.2,1154.9,1324.2L1154.9,1324.2z"/>
		<path class="st0" d="M296.3,954.8c33.3,0,65.8,7.8,96.5,23.2c24.1,12.1,47,28.8,68.1,49.7c35.6,35.1,54.2,70.3,54.9,71.8
			l11.9,22.9l-22.9,11.9l-91,47.5l-22.3,11.8l-12.2-22.1c-0.5-0.8-10-17.3-25.8-33.2c-13.2-13.3-33.9-29.2-57.3-29.2
			c-35.6,0-70,18.3-96.7,51.4c-24.8,30.7-40.6,71.1-42.4,108c-2,42.4,7.4,74.8,27.9,96.3c19.7,20.7,44.3,25.2,52.1,25.2
			c27.3,0,53.5-10.7,75.1-29.9h-66.1h-38.6l14.8-35.7l42.3-102.2l6.6-15.9h17.2h117.1h42.6c24.1,0,46.2,11.1,60.6,30.4
			c14.3,19.3,18.6,43.5,11.7,66.5c-10.9,36.3-36.8,105.7-88.3,162.3c-23.9,26.2-50.6,46.7-79.4,61c-32.6,16.2-68.1,24.3-105.4,24.3
			c-25.4,0-55.2-6.5-84-18.2c-34.8-14.2-66.4-35.6-91.5-61.9c-23.9-25-42.1-54.6-54.2-87.8c-13.6-37.3-19.4-79.4-17.2-125.1
			c3.2-67.5,34.4-142,83.6-199.4c26.9-31.4,57.8-56.3,91.8-74C213.7,964.8,254.3,954.8,296.3,954.8 M247.4,1525
			c140.8,0,218.3-128.6,248.4-229.2c9.5-31.8-14.4-63.7-47.5-63.7h-42.6H288.6l-42.3,102.2h119.1c-26.2,46.9-73,81.5-128.1,81.5
			c-27.8,0-111.7-25.3-105.9-148.5c3.9-82.7,69.3-184,164.9-184c63.4,0,105.6,75.6,105.6,75.6l91-47.5c0,0-68.3-130.8-196.6-130.8
			c-159.3,0-264.5,159.6-270.1,278.5C16.6,1462.9,177.4,1525,247.4,1525 M247.4,1499.2c-37.1,0-96.2-20-138.1-64.1
			c-41.4-43.4-60.7-102.2-57.3-174.8c5-106,100.4-253.9,244.3-253.9c45.8,0,88.6,19.2,127.3,56.9c13.9,13.6,24.8,27.3,32.6,38.2
			l-45.7,23.9c-5.1-6.8-11.5-14.5-19.1-22.3c-29.1-29.8-62-45.6-95.1-45.6c-51.5,0-100.2,25.1-136.9,70.6
			c-15.6,19.4-28.8,42.3-38.1,66.3c-9.2,23.7-14.6,48.5-15.7,71.7c-1.4,29.8,1.9,56.8,9.9,80.2c7.1,21,18,39.2,32.3,54.1
			c29,30.4,66.3,41.2,89.5,41.2c31.2,0,62.1-9.5,89.1-27.5c24.9-16.5,46.1-39.8,61.5-67.3c4.5-8,4.4-17.8-0.3-25.6
			c-4.6-7.9-13.1-12.7-22.3-12.7h-80.5l20.9-50.6h99.8h42.6c7.6,0,14.6,3.5,19.1,9.6c4.5,6,5.8,13.6,3.7,20.8
			C456.2,1337.9,396.3,1499.2,247.4,1499.2L247.4,1499.2z"/>
		<g>
			<linearGradient id="SVGID_1_" gradientUnits="userSpaceOnUse" x1="1597.1725" y1="1007.9434" x2="1597.1725" y2="1514.3563">
				<stop  offset="0.2309" style="stop-color:#FF2727"/>
				<stop  offset="0.8932" style="stop-color:#FFC600"/>
			</linearGradient>
			<path class="st250" d="M1764,1007.9h-216c-29.5,0-54.5,21.5-58.9,50.6l-58.2,387.5c-5.3,35.9,22.5,68.3,58.9,68.3h34.2h164
				l15.3-102.2h-163.8l14.5-96.8h137.6l15-102.2h-137.3l15.5-103.2h164.1L1764,1007.9z"/>
		</g>
		<g>
			
				<linearGradient id="SVGID_00000152949752946671138280000008784905219012384943_" gradientUnits="userSpaceOnUse" x1="665.519" y1="1006.1639" x2="665.519" y2="1514.3563">
				<stop  offset="0.2309" style="stop-color:#FF2727"/>
				<stop  offset="0.8932" style="stop-color:#FFC600"/>
			</linearGradient>
			<path style="fill:url(#SVGID_00000152949752946671138280000008784905219012384943_);" d="M738,1006.2
				c-28.6,0-57.2,15.1-70.8,47.7l-190.5,460.5h110.6l39.4-95.2h116.7l8.5,95.2h102.6l-38.9-437.8
				C811.4,1031.3,774.8,1006.2,738,1006.2z M669,1317l53.8-129.8l11.6,129.8H669z"/>
		</g>
		<g>
			
				<linearGradient id="SVGID_00000023254133606430429680000015300394588909140402_" gradientUnits="userSpaceOnUse" x1="1156.75" y1="1007.9434" x2="1156.75" y2="1514.9919">
				<stop  offset="0.2309" style="stop-color:#FF2727"/>
				<stop  offset="0.8932" style="stop-color:#FFC600"/>
			</linearGradient>
			<path style="fill:url(#SVGID_00000023254133606430429680000015300394588909140402_);" d="M1274.3,1048l-119.4,250.4l-40.3-231.2
				c-6.9-39.5-38.6-59.2-70.4-59.2c-32.4,0-64.7,20.3-70.8,60.9l-67,445.5h103.2l36.7-243.7l35.2,201.6
				c4.8,27.6,27.8,42.7,51.1,42.7c18.3,0,36.7-9.3,46.3-29.4l93.8-197l-33.9,225.8h103.3l64.1-426.1c7.4-48.8-31.4-80.3-70.3-80.3
				C1311.8,1007.9,1287.5,1020.1,1274.3,1048z"/>
		</g>
		<g>
			
				<linearGradient id="SVGID_00000055703194169681389960000001405676681464715195_" gradientUnits="userSpaceOnUse" x1="261.8456" y1="980.6147" x2="261.8456" y2="1525.0338">
				<stop  offset="0.2309" style="stop-color:#FF2727"/>
				<stop  offset="0.8932" style="stop-color:#FFC600"/>
			</linearGradient>
			<path style="fill:url(#SVGID_00000055703194169681389960000001405676681464715195_);" d="M493,1111.4c0,0-68.3-130.8-196.6-130.8
				c-159.3,0-264.5,159.6-270.1,278.5C16.6,1462.9,177.4,1525,247.4,1525c140.8,0,218.3-128.6,248.4-229.2
				c9.5-31.8-14.4-63.7-47.5-63.7h-42.6H288.6l-42.3,102.2h119.1c-26.2,46.9-73,81.5-128.1,81.5c-27.8,0-111.7-25.3-105.9-148.5
				c3.9-82.7,69.3-184,164.9-184c63.4,0,105.6,75.6,105.6,75.6L493,1111.4z"/>
		</g>
		<path d="M1548.1,982.1c-20.4,0-40.2,7.3-55.7,20.6c-15.5,13.3-25.7,31.8-28.7,52l-58.2,387.5c-3.7,24.6,3.6,49.5,19.8,68.3
			c16.2,18.8,39.8,29.6,64.6,29.6h34.2h164h22.2l3.3-22l15.3-102.2l4.4-29.6h-29.9h-133.8l6.8-45.1h115.3h22.3l3.2-22.1l15-102.2
			l4.3-29.6h-29.9h-107.3l7.8-51.6h141.9h22.3l3.3-22l15.1-102l4.4-29.6H1764H1548.1z M1748.9,1109.9h-164.1l-15.5,103.2h137.3
			l-15,102.2H1554l-14.5,96.8h163.8l-15.3,102.2h-164h-34.2c-36.4,0-64.2-32.4-58.9-68.3l58.2-387.5c4.3-29.1,29.4-50.6,58.9-50.6
			h216L1748.9,1109.9z"/>
		<g>
			<polygon points="669,1317 734.3,1317 722.7,1187.2 			"/>
		</g>
		<path d="M1410.8,1016.1c-18.3-21.3-46.3-33.9-74.9-33.9c-36.9,0-68.7,20.5-85,54.8l-84.5,177.3l-26.4-151.5
			c-4.3-24.9-16.6-45.8-35.5-60.4c-16.8-13-38.3-20.2-60.3-20.2c-22.5,0-44.2,7.4-61.2,20.8c-19.1,15.1-31.2,36.5-35.1,62.1
			l-67,445.5l-0.6,3.7l-0.2-2.2l-38.9-437.8c-2.5-27.8-15.1-52.5-35.6-69.7c-18.7-15.6-42.7-24.3-67.6-24.3
			c-19.7,0-38.6,5.4-54.8,15.6c-17.6,11.1-31.3,27.7-39.8,47.9l0,0l0,0l-190.5,460.5l-14.8,35.7h38.6h110.6h17.3l6.6-15.9l32.8-79.3
			h75.8l6.4,71.7l2.1,23.5h23.6h102.6h22h6.2h23.8h103.2h22.2l3.3-22l13.1-86.8l7.9,45.3c3.4,19.4,13.1,35.9,28.2,47.6
			c13.6,10.6,30.8,16.5,48.3,16.5c14.1,0,27.8-3.7,39.7-10.8c12.9-7.7,23.2-19.2,29.9-33.3l19.2-40.2l-8.1,54.1l-4.5,29.6h30h103.3
			h22.2l3.3-22l64.1-426.1C1436,1063.7,1428.6,1036.7,1410.8,1016.1z M751.8,1514.4l-8.5-95.2H626.6l-39.4,95.2H476.6l190.5-460.5
			c13.6-32.5,42.2-47.7,70.8-47.7c36.9,0,73.5,25.2,77.5,70.4l38.9,437.8H751.8z M1406.2,1088.3l-64.1,426.1h-103.3l33.9-225.8
			l-93.8,197c-9.5,20.1-28,29.4-46.3,29.4c-23.3,0-46.3-15.1-51.1-42.7l-35.2-201.6l-36.7,243.7H906.4l67-445.5
			c6.1-40.5,38.4-60.9,70.8-60.9c31.8,0,63.6,19.7,70.4,59.2l40.3,231.2l119.4-250.4c13.2-27.8,37.5-40,61.6-40
			C1374.8,1007.9,1413.6,1039.5,1406.2,1088.3z"/>
		<path d="M432.2,1465.5c51.5-56.5,77.4-125.9,88.3-162.3c6.9-23,2.6-47.2-11.7-66.5c-14.4-19.3-36.5-30.4-60.6-30.4h-42.6H288.6
			h-17.2l-6.6,15.9l-42.3,102.2l-14.8,35.7h38.6h66.1c-21.5,19.2-47.7,29.9-75.1,29.9c-7.8,0-32.4-4.5-52.1-25.2
			c-20.5-21.5-29.9-53.9-27.9-96.3c1.7-36.9,17.6-77.3,42.4-108c26.7-33.1,61.1-51.4,96.7-51.4c23.4,0,44.1,15.9,57.3,29.2
			c15.8,15.9,25.3,32.3,25.8,33.2l12.2,22.1l22.3-11.8l91-47.5l22.9-11.9l-11.9-22.9c-0.8-1.5-19.3-36.7-54.9-71.8
			c-21.2-20.9-44.1-37.6-68.1-49.7c-30.7-15.4-63.1-23.2-96.5-23.2c-42.1,0-82.6,10-120.5,29.7c-34,17.7-64.8,42.6-91.8,74
			c-49.2,57.4-80.4,131.9-83.6,199.4c-2.2,45.7,3.6,87.8,17.2,125.1c12.1,33.2,30.3,62.7,54.2,87.8c25.1,26.3,56.7,47.7,91.5,61.9
			c28.8,11.7,58.6,18.2,84,18.2c37.3,0,72.8-8.2,105.4-24.3C381.6,1512.2,408.3,1491.7,432.2,1465.5z M247.4,1525
			c-70,0-230.8-62.1-221.2-265.9c5.6-118.9,110.8-278.5,270.1-278.5c128.4,0,196.6,130.8,196.6,130.8l-91,47.5
			c0,0-42.2-75.6-105.6-75.6c-95.6,0-161,101.3-164.9,184c-5.8,123.3,78,148.5,105.9,148.5c55,0,101.9-34.6,128.1-81.5H246.3
			l42.3-102.2h117.1h42.6c33.2,0,57.1,31.9,47.5,63.7C465.6,1396.4,388.2,1525,247.4,1525z"/>
	</g>
	<g>
		<path class="st0" d="M1401.9,1590.3l-4.4,29.6l-15.1,102l-3.3,22h-22.3H1215l-7.8,51.6h107.3h29.9l-4.3,29.6l-15,102.2l-3.2,22.1
			h-22.3h-115.3l-6.8,45.1h133.8h29.9l-4.4,29.6l-15.3,102.2l-3.3,22H1296h-164h-34.2c-24.8,0-48.4-10.8-64.6-29.6
			c-16.2-18.8-23.5-43.7-19.8-68.3l58.2-387.5c3-20.2,13.2-38.7,28.7-52c15.5-13.3,35.3-20.6,55.7-20.6h216H1401.9 M1372,1616.1
			h-216c-29.5,0-54.5,21.5-58.9,50.6l-58.2,387.5c-5.3,35.9,22.5,68.3,58.9,68.3h34.2h164l15.3-102.2h-163.8l14.5-96.8h137.6
			l15-102.2h-137.3l15.5-103.2h164.1L1372,1616.1 M1341.2,1994.5L1341.2,1994.5 M1401.9,1616.1L1401.9,1616.1L1401.9,1616.1
			L1401.9,1616.1z M1097.8,2096.7c-9.9,0-19-4.2-25.5-11.7c-6.4-7.4-9.3-17.3-7.8-27l58.2-387.5c2.5-16.6,16.5-28.6,33.3-28.6h186.1
			l-7.5,50.3h-141.9c-12.8,0-23.6,9.3-25.5,22l-15.5,103.2c-1.1,7.4,1.1,15,6,20.7c4.9,5.7,12,9,19.6,9h107.4l-7.4,50.6H1162
			c-12.8,0-23.6,9.3-25.5,22l-14.5,96.8c-1.1,7.4,1.1,15,6,20.7c4.9,5.7,12,9,19.6,9h133.8l-7.6,50.6H1132H1097.8L1097.8,2096.7z"/>
		<g>
			
				<linearGradient id="SVGID_00000139253312322765353590000012924502344689462927_" gradientUnits="userSpaceOnUse" x1="1205.1565" y1="1616.1003" x2="1205.1565" y2="2122.5132">
				<stop  offset="0.2309" style="stop-color:#FF2727"/>
				<stop  offset="0.8932" style="stop-color:#FFC600"/>
			</linearGradient>
			<path style="fill:url(#SVGID_00000139253312322765353590000012924502344689462927_);" d="M1372,1616.1h-216
				c-29.5,0-54.5,21.5-58.9,50.6l-58.2,387.5c-5.3,35.9,22.5,68.3,58.9,68.3h34.2h164l15.3-102.2h-163.8l14.5-96.8h137.6l15-102.2
				h-137.3l15.5-103.2h164.1L1372,1616.1z"/>
		</g>
		<g>
			
				<linearGradient id="SVGID_00000079485571607230476900000006571388095896058253_" gradientUnits="userSpaceOnUse" x1="763.996" y1="1588.7714" x2="763.996" y2="2133.1904">
				<stop  offset="0.2309" style="stop-color:#FF2727"/>
				<stop  offset="0.8932" style="stop-color:#FFC600"/>
			</linearGradient>
			<path style="fill:url(#SVGID_00000079485571607230476900000006571388095896058253_);" d="M995.1,1719.6
				c0,0-68.3-130.8-196.6-130.8c-159.3,0-264.5,159.6-270.1,278.5c-9.6,203.8,151.1,265.9,221.2,265.9
				c140.8,0,218.3-128.6,248.4-229.2c9.5-31.8-14.4-63.7-47.5-63.7h-42.6H790.7l-42.3,102.2h119.1c-26.2,46.9-73,81.5-128.1,81.5
				c-27.8,0-111.7-25.3-105.9-148.5c3.9-82.7,69.3-184,164.9-184c63.4,0,105.6,75.6,105.6,75.6L995.1,1719.6z"/>
		</g>
		<g>
			
				<linearGradient id="SVGID_00000108296091149800719280000012740950648078022538_" gradientUnits="userSpaceOnUse" x1="1980.2866" y1="1616.1001" x2="1980.2866" y2="2122.6406">
				<stop  offset="0.2309" style="stop-color:#FF2727"/>
				<stop  offset="0.8932" style="stop-color:#FFC600"/>
			</linearGradient>
			<path style="fill:url(#SVGID_00000108296091149800719280000012740950648078022538_);" d="M2121,1980.2c0,0,0,0-1.4-6.3l-0.1-0.3
				c-0.9-4.4-2.5-11.6-5.1-23.8c-6.5-30.3-29.4-37.1-29.4-37.1c84.5-47.3,80.5-134.9,80.5-140.7c0-86.6-80.8-156-147.8-156h-37.4
				h-52.9c-29.2,0-54,21.1-58.7,50l-73.7,456.5h103.5l29.2-180.6h46.4c19.4,0,36.2,13.6,40.3,32.5l32,148.2h105.2L2121,1980.2
				L2121,1980.2z M1989.4,1839.7h-45.1l19.4-121.5h42.6c20.2,0,40.2,20.2,44.6,44.4C2057.6,1798.5,2029.9,1839.7,1989.4,1839.7z"/>
		</g>
		<path d="M1401.9,1590.3H1372h-216c-20.4,0-40.2,7.3-55.7,20.6c-15.5,13.3-25.7,31.8-28.7,52l-58.2,387.5
			c-3.7,24.6,3.6,49.5,19.8,68.3c16.2,18.8,39.8,29.6,64.6,29.6h34.2h164h22.2l3.3-22l15.3-102.2l4.4-29.6h-29.9h-133.8l6.8-45.1
			h115.3h22.3l3.2-22.1l15-102.2l4.3-29.6h-29.9h-107.3l7.8-51.6h141.9h22.3l3.3-22l15.1-102L1401.9,1590.3z M1356.9,1718.1h-164.1
			l-15.5,103.2h137.3l-15,102.2H1162l-14.5,96.8h163.8l-15.3,102.2h-164h-34.2c-36.4,0-64.2-32.4-58.9-68.3l58.2-387.5
			c4.3-29.1,29.4-50.6,58.9-50.6h216L1356.9,1718.1z"/>
		<g>
			<polygon points="1550.4,1925.1 1615.8,1925.1 1604.2,1795.3 			"/>
		</g>
		<path d="M1319.4,2148.3h38.6h110.6h17.3l6.6-15.9l32.8-79.3h75.8l6.4,71.7l2.1,23.5h23.6h102.6h28.2l-2.5-28.1l-38.9-437.8
			c-2.5-27.8-15.1-52.5-35.6-69.7c-18.7-15.6-42.7-24.3-67.6-24.3c-42,0-78.2,24.3-94.6,63.5l0,0l0,0l-190.5,460.5L1319.4,2148.3z
			 M1548.5,1662c13.6-32.5,42.3-47.7,70.8-47.7c36.9,0,73.5,25.2,77.5,70.4l38.9,437.8h-102.6l-8.5-95.2H1508l-39.4,95.2H1358
			L1548.5,1662z"/>
		<path d="M934.3,2073.7c51.5-56.5,77.4-125.9,88.3-162.3c6.9-23,2.6-47.2-11.7-66.5c-14.4-19.3-36.5-30.4-60.6-30.4h-42.6H790.7
			h-17.2l-6.6,15.9l-42.3,102.2l-14.8,35.7h38.6h66.1c-21.5,19.2-47.7,29.9-75.1,29.9c-7.8,0-32.4-4.5-52.1-25.2
			c-20.5-21.5-29.9-53.9-27.9-96.3c1.7-36.9,17.6-77.3,42.4-108c26.7-33.1,61.1-51.4,96.7-51.4c23.4,0,44.1,15.9,57.3,29.2
			c15.8,15.9,25.3,32.4,25.8,33.2l12.2,22.1l22.3-11.8l91-47.5l22.9-11.9l-11.9-22.9c-0.8-1.5-19.3-36.7-54.9-71.8
			c-21.2-20.9-44.1-37.6-68.1-49.7c-30.7-15.4-63.1-23.2-96.5-23.2c-42.1,0-82.6,10-120.5,29.7c-34,17.7-64.8,42.6-91.8,74
			c-49.2,57.4-80.4,131.9-83.6,199.4c-2.2,45.7,3.6,87.8,17.2,125.1c12.1,33.2,30.3,62.7,54.2,87.8c25.1,26.3,56.7,47.7,91.5,61.9
			c28.8,11.7,58.6,18.2,84,18.2c37.3,0,72.8-8.2,105.4-24.3C883.8,2120.4,910.5,2099.9,934.3,2073.7z M749.5,2133.2
			c-70,0-230.8-62.1-221.2-265.9c5.6-118.9,110.8-278.5,270.1-278.5c128.4,0,196.6,130.8,196.6,130.8l-91,47.5
			c0,0-42.2-75.6-105.6-75.6c-95.6,0-161,101.3-164.9,184c-5.8,123.3,78,148.5,105.9,148.5c55,0,101.9-34.6,128.1-81.5H748.4
			l42.3-102.2h117.1h42.6c33.2,0,57.1,31.9,47.5,63.7C967.8,2004.6,890.4,2133.2,749.5,2133.2z"/>
		<path d="M1989.2,1979.8l32,148.2l4.4,20.4h20.8h105.2h32l-6.7-31.2l-30.7-142.4l0,0l-1.3-6.2l-0.1-0.3l-2.9-13.6l-2.2-10.1
			c-2.4-11-6.6-20.9-12.4-29.5c24.3-20.4,42.5-46.5,53.2-76.8c7.5-21.1,11.3-43.9,10.9-65.7l0-0.5c0-24.5-5.4-48.6-16.1-71.7
			c-9.7-21-23.3-40.2-40.4-57.1c-16.2-16-35.2-29.2-55-38.4c-20.6-9.5-42.1-14.6-62.2-14.6h-37.4h-52.9c-20.3,0-39.9,7.2-55.3,20.3
			c-15.4,13.1-25.7,31.3-28.9,51.3l-73.7,456.5l-4.8,29.9h30.3h103.5h22l3.5-21.7l25.7-158.9h24.4
			C1981.3,1967.7,1987.7,1972.8,1989.2,1979.8z M1927.7,1941.9l-29.2,180.6H1795l73.7-456.5c4.7-28.9,29.5-50,58.7-50h52.9h37.4
			c67,0,147.8,69.4,147.8,156c0,5.8,4.1,93.4-80.5,140.7c0,0,22.8,6.8,29.4,37.1c2.6,12.1,4.2,19.4,5.1,23.8l0.1,0.3
			c1.4,6.3,1.4,6.3,1.4,6.3l30.7,142.4h-105.2l-32-148.2c-4.1-18.9-20.8-32.5-40.3-32.5H1927.7z"/>
		<g>
			<path d="M2006.3,1718.2h-42.6l-19.4,121.5h45.1c40.5,0,68.3-41.2,61.5-77.2C2046.4,1738.4,2026.5,1718.2,2006.3,1718.2z
				 M2016,1800.6c-4.1,4.9-13,13.2-26.6,13.2h-14.9l11.2-69.9h20.6c6,0,16.8,9.8,19.2,23.2l0,0l0,0
				C2027.6,1778.3,2023.9,1791.1,2016,1800.6z"/>
		</g>
		<g>
			
				<linearGradient id="SVGID_00000101805766646920398330000001195676202876874141_" gradientUnits="userSpaceOnUse" x1="1546.8837" y1="1614.3208" x2="1546.8837" y2="2122.5132">
				<stop  offset="0.2309" style="stop-color:#FF2727"/>
				<stop  offset="0.8932" style="stop-color:#FFC600"/>
			</linearGradient>
			<path style="fill:url(#SVGID_00000101805766646920398330000001195676202876874141_);" d="M1619.3,1614.3
				c-28.5,0-57.2,15.1-70.8,47.7L1358,2122.5h110.6l39.4-95.2h116.7l8.5,95.2h102.6l-38.9-437.8
				C1692.8,1639.5,1656.2,1614.3,1619.3,1614.3z M1550.4,1925.1l53.8-129.8l11.6,129.8H1550.4z"/>
		</g>
	</g>
</g>
</svg>
