<?xml version="1.0" encoding="utf-8"?>
<!-- Generator: Adobe Illustrator 25.0.0, SVG Export Plug-In . SVG Version: 6.00 Build 0)  -->
<svg version="1.1" id="Layer_1" xmlns="http://www.w3.org/2000/svg" xmlns:xlink="http://www.w3.org/1999/xlink" x="0px" y="0px"
	 viewBox="0 0 3840 854.9" style="enable-background:new 0 0 3840 854.9;" xml:space="preserve">
<style type="text/css">
	.st0{fill:#11A73B;}
	.st1{fill:#00A0E9;}
	.st2{fill:#E60019;}
	.st3{fill:#FFFFFF;}
</style>
<g>
	<polygon points="486.3,806.3 344,806.3 344,696.2 477,696.2 477,695.9 477,660 477,660 344,660 344,558.8 486.3,558.8 486.3,522.6 
		486.3,522.6 344,522.6 307.7,522.6 307.7,558.8 307.7,660 307.7,696.2 307.7,806.3 307.7,842.6 308.4,842.6 344,842.6 486.3,842.6 
			"/>
	<polygon points="1433.8,806.3 1291.4,806.3 1291.4,696.2 1424.4,696.2 1424.4,695.9 1424.4,660 1424.4,660 1291.4,660 
		1291.4,558.8 1433.8,558.8 1433.8,522.6 1433.8,522.6 1291.4,522.6 1255.2,522.6 1255.2,558.8 1255.2,660 1255.2,696.2 
		1255.2,806.3 1255.2,842.6 1255.9,842.6 1291.4,842.6 1433.8,842.6 	"/>
	<polyline points="42.5,522.6 0,522.6 0,842.6 36.3,842.6 36.3,577.1 221,842.6 256.4,842.6 256.4,522.6 220.1,522.6 220.1,777.8 
		42.5,522.6 	"/>
	<path d="M677.6,513.5c-93.4,0-169.1,75.7-169.1,169.1s75.7,169.1,169.1,169.1S846.7,776,846.7,682.6S771,513.5,677.6,513.5z
		 M677.6,816.1c-73.7,0-133.5-59.8-133.5-133.5s59.8-133.5,133.5-133.5c73.7,0,133.5,59.8,133.5,133.5S751.3,816.1,677.6,816.1z"/>
	<path d="M1626.5,513.5c-93.4,0-169.1,75.7-169.1,169.1s75.7,169.1,169.1,169.1c93.4,0,169.1-75.7,169.1-169.1
		S1719.9,513.5,1626.5,513.5z M1626.5,816.1c-73.7,0-133.5-59.8-133.5-133.5s59.8-133.5,133.5-133.5c73.7,0,133.5,59.8,133.5,133.5
		S1700.2,816.1,1626.5,816.1z"/>
	<path d="M1180.4,688.5H994.9v36.3h178.8c-17.7,53-67.6,91.3-126.6,91.3c-73.7,0-133.5-59.8-133.5-133.5s59.8-133.5,133.5-133.5
		c45.9,0,86.3,23.1,110.3,58.4h41.2c-27.7-55.7-85.1-94-151.5-94c-93.4,0-169.1,75.7-169.1,169.1s75.7,169.1,169.1,169.1
		c91.4,0,165.8-72.5,169-163.2H1180.4z"/>
	<polygon points="3508.7,806.3 3366.4,806.3 3366.4,696.2 3499.4,696.2 3499.4,695.9 3499.4,660 3499.4,660 3366.4,660 
		3366.4,558.8 3508.7,558.8 3508.7,522.6 3508.7,522.6 3366.4,522.6 3330.1,522.6 3330.1,558.8 3330.1,660 3330.1,696.2 
		3330.1,806.3 3330.1,842.6 3330.8,842.6 3366.4,842.6 3508.7,842.6 	"/>
	<polygon points="3840,522.6 3727.6,522.6 3691.3,522.6 3578.9,522.6 3578.9,558.8 3691.3,558.8 3691.3,842.6 3727.6,842.6 
		3727.6,558.8 3840,558.8 	"/>
	<polygon points="3208.6,842.6 3259.9,842.6 3099.9,682.6 3259.9,522.6 3208.6,522.6 3031.3,699.9 3031.3,522.6 2995,522.6 
		2995,842.6 3031.3,842.6 3031.3,751.2 3074.2,708.2 	"/>
	<path d="M2364.3,513.5c-93.4,0-169.1,75.7-169.1,169.1s75.7,169.1,169.1,169.1s169.1-75.7,169.1-169.1S2457.7,513.5,2364.3,513.5z
		 M2364.3,816.1c-73.7,0-133.5-59.8-133.5-133.5s59.8-133.5,133.5-133.5c73.7,0,133.5,59.8,133.5,133.5S2438,816.1,2364.3,816.1z"/>
	<path d="M2883.8,756.7c-23.9,35.8-64.7,59.4-111.1,59.4c-73.7,0-133.5-59.8-133.5-133.5s59.8-133.5,133.5-133.5
		c46.3,0,87.1,23.6,111.1,59.4h41c-27.5-56.3-85.2-95.1-152.1-95.1c-93.4,0-169.1,75.7-169.1,169.1s75.7,169.1,169.1,169.1
		c66.8,0,124.6-38.8,152.1-95.1H2883.8z"/>
	<polygon class="st0" points="2188.7,224.4 2149.7,200 2228.8,46.7 2291.9,86.2 	"/>
	<polygon class="st1" points="2249.7,293.3 2221.9,256.5 2350.5,141.6 2395.4,201 	"/>
	<polygon class="st2" points="2103.4,180.8 2058.4,170.9 2081.5,0 2154.2,16 	"/>
	<path class="st2" d="M1938,271.7L1805,338.3l-50.6,25.3l-10,5l243.3,486.2l60.6-30.3l-213-425.6l133.1-66.6
		c57-28.6,126.5-5.3,155.1,51.8c28.6,57,5.4,126.4-51.6,155c0,0-9.5,4.3-14.3,6l-78.2-67.4l15.1-47.8l84.7-0.9l-0.7-67.7l-133.8,1.5
		l-43.4,137.2l3,2.6l147,127c14-7,57.4-32.9,57.4-32.9c85.9-47.3,119.8-154.4,75.5-242.8C2138.9,263.1,2028.7,226.4,1938,271.7z"/>
</g>
</svg>
