<?xml version="1.0" encoding="utf-8"?>
<!-- Generator: Adobe Illustrator 26.0.3, SVG Export Plug-In . SVG Version: 6.00 Build 0)  -->
<svg version="1.1" id="Layer_1" xmlns="http://www.w3.org/2000/svg" xmlns:xlink="http://www.w3.org/1999/xlink" x="0px" y="0px"
	 viewBox="0 0 3839 1234.5" style="enable-background:new 0 0 3839 1234.5;" xml:space="preserve">
<style type="text/css">
	.st0{fill:#FFFFFF;}
</style>
<g>
	<g>
		<g>
			<g>
				<path d="M2081.5,1179.8c10.8,0,21.2-4.2,28.9-11.9c7.8-8.1,12.2-18.3,12.2-28.4c0-11-4.4-21.3-12.2-29.3
					c-7.8-7.8-18.1-12-28.9-12c-22.1,0-40.7,18.6-40.7,41.3c0,10.1,4.4,20.3,12.1,28.4C2060.9,1175.5,2071.2,1179.8,2081.5,1179.8
					 M2047.7,1139.4c0-9.1,3.8-17.8,10.4-24.5c6.5-6.4,15-9.8,23.4-9.8c9,0,17.7,3.5,24,9.8c6.6,6.7,10.2,15.4,10.2,24.5
					c0,17.8-15.5,33.4-34.2,33.4c-8.5,0-16.9-3.5-23.4-10C2051.6,1156.2,2047.7,1148,2047.7,1139.4"/>
				<path d="M2101.6,1157.6c-0.3-0.4-1-0.9-1.4-1.8c0-1-0.2-2-0.2-3.5l-0.3-5.6c0-2.7-0.7-4.4-1.6-5.7c-0.8-1-1.8-1.4-2.9-2.1
					c1.6-1,2.7-2,3.5-3.5c1.2-1.8,1.8-4.2,1.8-7c0-5.3-2.5-9.4-6.7-11.2c-2.4-1.1-5.3-1.7-8.7-1.7h-20.6v45.3h8v-18h11.6
					c2.3,0,4.3,0.2,5.1,0.6c1.6,0.7,2.3,2,2.5,4.4l0.4,7.1c0.1,1.7,0.1,2.8,0.5,3.6c0,0.6,0.2,1.2,0.5,1.6l0.2,0.6h9v-2.9
					L2101.6,1157.6 M2092.6,1129c0,2.3-0.8,4.2-2.1,5.3c-1.4,0.8-3.5,1.5-6.1,1.5h-11.8v-13.1h12.8c1.7,0,3.3,0.4,4.4,1
					C2091.6,1124.5,2092.6,1126.2,2092.6,1129"/>
				<path d="M664.8,989h84.5c54.3,0,64.9,34.9,64.9,59c0,23.9-10.6,58.8-64.9,58.5h-51v73.3h-33.5V989z M698.3,1079.5h49
					c14.8,0,33-7.4,33-31.7c0-25.4-15-31.8-32.5-31.8h-49.5V1079.5z"/>
				<g>
					<rect x="833.8" y="989" width="30.7" height="190.8"/>
				</g>
				<path d="M1014.2,1148.8c0,7.4,1.4,10.4,7.2,10.4c1.7,0,4,0,7-0.5v21.3c-4.2,1.6-13.8,3.4-18.9,3.4c-12.5,0-21.5-4.2-24-16.9
					c-12.2,12-31.1,16.9-47.6,16.9c-25.1,0-47.1-13.4-47.1-39.9c0-34.9,27.3-40.5,53.2-43.7c21.4-3.9,41-1.3,41-19.3
					c0-15.6-16.4-18.5-28.2-18.5c-17.3,0-29.5,7.1-30.7,21.5h-30.5c2.1-35.2,32.6-45.8,63-45.8c26.7,0,55.6,11.1,55.6,40.6V1148.8z
					 M983.2,1110.7c-9.5,6-23.8,5.8-37,8.2c-13.4,2.1-25.2,6.9-25.2,23.3c0,13.2,17.4,17.1,28.3,17.1c12.9,0,33.8-7.1,33.8-25.8
					V1110.7z"/>
				<path d="M1026.7,1041.4h33.3l36.1,103.5h0.5l35.1-103.5h31.5l-53.6,146c-9.9,24.8-16.7,47.1-48.5,47.1c-7.4,0-14.3-0.7-21.5-1.7
					v-25.1c4.9,0.7,9.7,1.7,14.6,1.7c14.4,0,18-7.4,21.7-19.4l3.4-10.9L1026.7,1041.4z"/>
				<path d="M1203.6,1116.3c0,29.3,21.5,40.4,48.2,40.4c29.4,0,39.7-13.8,39.7-28.3c0-15-7.3-20.9-15.4-23.9
					c-13.4-5.1-30.4-8.6-56.3-16c-33.1-8.5-42.8-28-42.8-47.9c0-38.1,35.9-56.1,69.8-56.1c39.8,0,72.9,21.2,72.9,60.9h-33.1
					c-1.6-25-18.2-33.4-41-33.4c-15.9,0-34.7,4.9-34.7,24.3c0,13.8,9.2,21.2,22.1,25c3.1,0.7,45.3,12,55,14.8
					c24.9,6.8,37.1,28.4,37.1,48.4c0,42.6-37.7,59.9-75.5,59.9c-43.4,0-79-21.3-79.9-68.1H1203.6z"/>
				<path d="M1336.2,1041.4h22.3v-41h31v41h27.9v23.1h-27.9v73.7c0,11.9,0.9,18.5,14.8,18.5c4.3,0,8.8,0,13.1-0.9v23.7
					c-6.9,0.5-13.4,1.6-20.3,1.6c-31.9,0-37.9-12.3-38.6-35.1v-81.4h-22.3V1041.4z"/>
				<path d="M1556.7,1148.8c0,7.4,1.7,10.4,7.4,10.4c1.8,0,4.3,0,7.6-0.5v21.3c-4.8,1.6-14.5,3.4-19.3,3.4c-12,0-20.9-4.2-23.3-16.9
					c-12.2,12-32,16.9-47.6,16.9c-25.2,0-47.9-13.4-47.9-39.9c0-34.9,27.9-40.5,53.4-43.7c21.5-3.9,41.4-1.3,41.4-19.3
					c0-15.6-16.5-18.5-28.9-18.5c-16.5,0-28.8,7.1-30,21.5h-30.9c2.2-35.2,32.5-45.8,62.8-45.8c27.4,0,55.2,11.1,55.2,40.6V1148.8z
					 M1526.6,1110.7c-9.4,6-24.3,5.8-37.9,8.2c-12.4,2.1-24.3,6.9-24.3,23.3c0,13.2,17.8,17.1,27.5,17.1c13.8,0,34.8-7.1,34.8-25.8
					V1110.7z"/>
				<path d="M1574.7,1041.4h23.3v-41h30.2v41h27.7v23.1h-27.7v73.7c0,11.9,1.1,18.5,14.5,18.5c4.8,0,8.9,0,13.2-0.9v23.7
					c-6.7,0.5-13.2,1.6-20.1,1.6c-31.2,0-37.2-12.3-37.8-35.1v-81.4h-23.3V1041.4z"/>
				<path d="M1682.2,989h30.3v28.6h-30.3V989z M1682.2,1041.4h30.3v138.4h-30.3V1041.4z"/>
				<path d="M1735.7,1110.7c0-42,24.9-73,69.8-73c43.9,0,69.8,31,69.8,73c0,42-25.9,72.7-69.8,72.7
					C1760.6,1183.4,1735.7,1152.7,1735.7,1110.7 M1844.4,1110.7c0-24.3-12-48.7-38.8-48.7c-27.7,0-39.9,24.4-39.9,48.7
					c0,24,12.2,48.5,39.9,48.5C1832.3,1159.2,1844.4,1134.7,1844.4,1110.7"/>
				<path d="M1897.6,1041.4h28.9v20.6l0.5,0.7c9.2-15.5,24.3-25,42.9-25c30.2,0,48.7,16.4,48.7,46.8v95.2h-30.2v-87.2
					c-0.5-21-9-30.5-27.4-30.5c-19.6,0-33,16.3-33,36.1v81.6h-30.3V1041.4z"/>
				<path d="M2145.7,989h84.4c54.5,0,65.1,34.9,65.1,59c0,23.9-10.6,58.8-65.1,58.5h-50.6v73.3h-33.8V989z M2179.6,1079.5h48.7
					c15.2,0,33.9-7.4,33.9-31.7c0-25.4-15.3-31.8-33.3-31.8h-49.2V1079.5z"/>
				<path d="M2303.2,1110.7c0-42,25.7-73,69.9-73c44.1,0,69.7,31,69.7,73c0,42-25.7,72.7-69.7,72.7
					C2328.9,1183.4,2303.2,1152.7,2303.2,1110.7 M2411.9,1110.7c0-24.3-11.2-48.7-38.7-48.7c-27.6,0-39.2,24.4-39.2,48.7
					c0,24,11.6,48.5,39.2,48.5C2400.6,1159.2,2411.9,1134.7,2411.9,1110.7"/>
				<path d="M2466,1041.4h28v27.3h0.6c3.5-14.8,22.1-31,40.7-31c6.4,0,8.3,0.5,11.1,0.9v29.8c-4.5-0.5-8.8-1.4-12.5-1.4
					c-21.1,0-37.9,16.2-37.9,47v65.7h-30V1041.4z"/>
				<path d="M2561.9,1041.4h22.7v-41h30v41h27.9v23.1h-27.9v73.7c0,11.9,1.2,18.5,15,18.5c4.5,0,8.7,0,12.9-0.9v23.7
					c-6.9,0.5-13.4,1.6-20.1,1.6c-31.2,0-37.3-12.3-37.8-35.1v-81.4h-22.7V1041.4z"/>
				<path d="M2780.9,1148.8c0,7.4,1.6,10.4,7.3,10.4c1.9,0,4.4,0,7.6-0.5v21.3c-4.7,1.6-14.3,3.4-19.5,3.4
					c-12.5,0-21.4-4.2-23.7-16.9c-12.4,12-31.2,16.9-47.8,16.9c-25.2,0-46.9-13.4-46.9-39.9c0-34.9,26.8-40.5,52.8-43.7
					c22.1-3.9,41.2-1.3,41.2-19.3c0-15.6-16.3-18.5-28.1-18.5c-17.4,0-29.6,7.1-30.8,21.5h-30.2c2.3-35.2,32-45.8,62.8-45.8
					c26.6,0,55.3,11.1,55.3,40.6V1148.8z M2749.9,1110.7c-9.4,6-23.5,5.8-36.7,8.2c-13.5,2.1-25.4,6.9-25.4,23.3
					c0,13.2,17.5,17.1,28.3,17.1c13.5,0,33.9-7.1,33.9-25.8V1110.7z"/>
				<path d="M2813.2,989h30.9v70.6h0.5c8.5-13.5,25.4-21.9,41.1-21.9c43.7,0,64.6,33.5,64.6,73.7c0,37-18.6,72-59.6,72
					c-18.7,0-38.3-4.4-47.5-22.7h-0.7v19h-29.3V989z M2881.7,1062c-25.3,0-38.5,19.4-38.5,49c0,27.9,14.1,48.2,38.5,48.2
					c28,0,38.5-24.2,38.5-48.2C2920.1,1085.3,2907.1,1062,2881.7,1062"/>
				<g>
					<rect x="2973.5" y="989" width="30.2" height="190.8"/>
				</g>
				<path d="M3057.6,1118.6c0,22,11.4,40.6,37,40.6c17.7,0,28.4-7.8,33.6-22.4h28.9c-6.9,29.6-32.2,46.6-62.4,46.6
					c-43.2,0-67.7-30.5-67.7-72.4c0-39.1,25.9-73.3,66.6-73.3c43.4,0,70.6,39.8,65.3,80.9H3057.6z M3128.6,1098.5
					c-1.1-19-14-36.5-35-36.5c-21.1,0-35.2,16.3-36,36.5H3128.6z"/>
				<polygon points="1126.1,294.6 0,294.6 0,656.6 66.8,656.6 66.8,361.1 1192.8,361.1 1192.8,0 0,0 0,66.9 1126.1,66.9 				"/>
				<polygon points="3772.4,294.6 2646.1,294.6 2646.1,656.6 2712.9,656.6 2712.9,361.1 3839,361.1 3839,0 2646.1,0 2646.1,66.9 
					3772.4,66.9 				"/>
				<polygon points="1192.8,656.6 1869.3,656.6 1869.3,66.9 2475.9,66.9 2475.9,0 1800.1,0 1800.1,590.1 1192.8,590.1 				"/>
			</g>
		</g>
	</g>
</g>
</svg>
