<?xml version="1.0" encoding="utf-8"?>
<!-- Generator: Adobe Illustrator 25.4.1, SVG Export Plug-In . SVG Version: 6.00 Build 0)  -->
<svg version="1.1"
	 id="svg2" xmlns:cc="http://creativecommons.org/ns#" xmlns:dc="http://purl.org/dc/elements/1.1/" xmlns:rdf="http://www.w3.org/1999/02/22-rdf-syntax-ns#" xmlns:svg="http://www.w3.org/2000/svg"
	 xmlns="http://www.w3.org/2000/svg" xmlns:xlink="http://www.w3.org/1999/xlink" x="0px" y="0px" viewBox="0 0 3839 1816.1"
	 style="enable-background:new 0 0 3839 1816.1;" xml:space="preserve">
<style type="text/css">
	.st0{fill:#5977CF;}
	.st1{fill:#FFFFFF;}
</style>
<g>
	<path id="path1506_00000065052380208752997680000016742959884517138828_" d="M2839.9,413.1h64.9v-58.6h-64.9V413.1z"/>
	<g>
		<path id="path1502_00000020384284358907076370000006061241396595588523_" d="M1266.5,732.7L1109,619.9L1260,519.2l-36-54
			l-135.8,90.5l-5.6,5l0.8-7v-199h-64.9v426.1h64.9v-93.3l-1-8.1l6.1,5.7l140.2,100.5L1266.5,732.7"/>
		<path id="path1504_00000131352958252050121430000014387745807276326322_" d="M2839.8,780.5h64.9v-307h-64.9V780.5z"/>
		<path id="path1508_00000118377295034376995420000010356112207447205550_" d="M179,309.5c-98.4,0-178.3,80.9-178.8,179.2L0,787.5
			h64.9V626.3c31,25.7,70.7,41.2,114.1,41.2c98.7,0,179-80.3,179-179S277.7,309.5,179,309.5L179,309.5z M179,602.5
			c-62.9,0-114.1-51.2-114.1-114.1c0-62.9,51.2-114.1,114.1-114.1c62.9,0,114.1,51.2,114.1,114.1C293.1,551.3,241.9,602.5,179,602.5
			"/>
		<path id="path1510_00000042711391338838225320000017771838649777559215_" d="M515.1,786.3c87.9,0,159.4-71.5,159.4-159.4
			c0-87.9-71.5-159.4-159.4-159.4s-159.4,71.5-159.4,159.4C355.7,714.8,427.2,786.3,515.1,786.3z M420.6,626.8
			c0-52.1,42.4-94.5,94.5-94.5s94.5,42.4,94.5,94.5c0,52.1-42.4,94.5-94.5,94.5S420.6,679,420.6,626.8"/>
		<path id="path1512_00000008866317876515400180000009762350393945974168_" d="M993.2,540.3c-29.5-45.8-79.6-73.1-134-73.1
			c-87.9,0-159.4,71.5-159.4,159.4c0,87.9,71.5,159.4,159.4,159.4c58.2,0,111.7-31.7,139.8-82.6L942,672.1
			c-16.7,30.3-48.4,49-82.9,49c-52.1,0-94.5-42.4-94.5-94.5c0-52.1,42.4-94.5,94.5-94.5c32.3,0,62,16.2,79.5,43.4L993.2,540.3"/>
		<path id="path1514_00000140692842259302884580000016475220343712276877_" d="M1576.1,659.9c3.3-13.9,3.3-32.3,3.3-32.3
			c0-87.9-71.5-159.4-159.4-159.4c-87.9,0-159.4,71.5-159.4,159.4c0,87.9,71.5,159.4,159.4,159.4c57.7,0,111.1-31.4,139.3-81.8
			l-56.7-31.6c-16.7,29.9-48.4,48.5-82.6,48.5c-38.5,0-71.6-23.2-86.3-56.3c-0.8-1.9-2.9-4.8-3.6-6.8l7.1,1h209.8l29.1-0.2V659.9z
			 M1333.5,589.7c14.6-33.3,47.8-56.6,86.5-56.6c38.5,0,71.6,23.2,86.3,56.3c0.8,1.9,2.9,4.7,3.6,6.6l-7.2-0.9h-166.7l-5.8,0.9
			C1330.9,594.2,1332.7,591.4,1333.5,589.7"/>
		<path id="path1516_00000031898357682865285700000009580866005156371622_" d="M1672,621.5v-83h94.5v-64.9H1672v-69.7h-64.9v217.6
			c0,87.9,71.5,159.4,159.4,159.4V716C1714.4,716,1672,673.6,1672,621.5"/>
		<path id="path1518_00000036951410681540060920000009220545967682458754_" d="M2057.6,411.7c-3.4-51.1-59.1-96-119.2-96
			c-37.2,0-70.5,12.9-93.8,36.3c-22.8,23-34.8,54.4-34.6,90.9c0.4,64,53.6,111.5,126.4,112.9c63.9,1.3,94.9,27.2,94.9,79.2
			c0,60.4-47.1,87.4-93.8,87.4c-47.7,0-88-35.6-93.8-82.9l-64.4,7.9c9.8,79.7,77.8,139.9,158.2,139.9c91.9,0,158.7-64,158.7-152.2
			c0-88.3-59.2-142.1-158.5-144.1c-31.1-0.6-62.7-15.9-62.9-48.4c-0.1-19.1,5.2-34.1,15.7-44.8c11-11,27.9-17.1,47.7-17.1
			c28.2,0,53.5,21.7,54.4,35.4L2057.6,411.7"/>
		<path id="path1520_00000072997600128343909520000009340238845733656986_" d="M2189.3,621.5v-82.7h93.9l0-64.9h-94v-64.7h-64.9
			v212.3c0,87.9,71.5,159.4,159.4,159.4v-64.9C2231.7,716.1,2189.3,673.7,2189.3,621.5"/>
		<path id="path1522_00000002353861552736612300000005358916969094157240_" d="M2546.9,474v19.2l0.7,7.9c-1.5-1.1-3.7-4.3-5.3-5.4
			c-25.7-17.7-56.8-28.1-90.2-28.1c-87.9,0-159.4,71.5-159.4,159.4c0,87.9,71.5,159.4,159.4,159.4c33.4,0,64.5-10.4,90.2-28
			c1.6-1.1,4.1-4,5.7-5.1l-1,7.6v19.9h64.9V474L2546.9,474L2546.9,474z M2452.1,721.5c-52.1,0-94.5-42.4-94.5-94.5
			c0-52.1,42.4-94.5,94.5-94.5c52.1,0,94.5,42.4,94.5,94.5C2546.6,679.1,2504.2,721.5,2452.1,721.5"/>
		<path id="path1524_00000155869366283072083380000014331416289232545676_" d="M2711.2,621.4v-82.9h94.2v-64.9h-94.2v-65.1h-64.9
			v212.9c0,87.9,71.5,159.4,159.4,159.4v-64.9C2753.6,715.9,2711.2,673.5,2711.2,621.4"/>
		<path id="path1526_00000148652521886905114280000003232006588550834054_" d="M3093.4,786.6c87.9,0,159.4-71.5,159.4-159.4
			c0-87.9-71.5-159.4-159.4-159.4c-87.9,0-159.4,71.5-159.4,159.4S3005.5,786.6,3093.4,786.6z M2998.9,627.2
			c0-52.1,42.4-94.5,94.5-94.5c52.1,0,94.5,42.4,94.5,94.5c0,52.1-42.4,94.5-94.5,94.5C3041.3,721.7,2998.9,679.3,2998.9,627.2"/>
		<path id="path1528_00000061443328382908408350000004632014787296570276_" d="M3345.2,780.8V627c0-52.1,42.4-94.5,94.5-94.5
			c52.1,0,94.5,42.4,94.5,94.5v154.2h64.9V627c0-87.9-71.5-159.4-159.4-159.4c-87.9,0-159.4,71.5-159.4,159.4v153.8H3345.2"/>
	</g>
	<path id="path1530_00000110442495162135294000000014202029347986786190_" d="M3679.6,688.5h-34.4v-11.9h82.1v11.9h-34.2v92.7h-13.5
		V688.5"/>
	<path id="path1532_00000109722025278170880900000002871065498620023943_" d="M3782.9,781.2l-28.6-85v85h-13.8V676.5h19.1l30.1,89
		l30.1-89h19.1v104.6h-13.8v-85l-28.6,85H3782.9"/>
	<path id="path5354_00000085222383533350336530000013844953756295497900_" class="st0" d="M257.3,986.2
		c0,248.4,198.6,456.5,483.8,600.8s663.9,229.5,1055.6,229.1c391.6-0.5,767.3-86,1049.1-230.3c281.9-144.3,476.5-352.2,476.5-599.6
		h-98c0,195.2-159,377.1-423.2,512.3s-627.1,219.1-1004.4,219.6c-377.2,0.4-743.7-83.2-1011.5-218.6s-429.9-317.9-429.9-513.2H257.3
		L257.3,986.2z"/>
	<g>
		<path d="M2311.9,7.9v26h9.7c8.2,0,10.8,1.2,10.8,4.2c0,1.8-1.1,3.9-3.3,7l-38.6,41.2c-4.9,5.6-10.2,5-14.5,0.6l-36.4-39.6
			c-1.9-2.4-4.8-4.8-4.8-7.9c0-3.6,4.1-5.4,13.8-5.4h9.5v-26h-133.5v26c33.1,0,31.4,3,43.3,16.9l71.9,79.5v40.2
			c0,10.3-5.2,13.9-20.1,13.9h-23.1v25.1h147.6v-25.1h-23c-14.9,0-20.1-3.6-20.1-13.9v-40.2l61-65.9c22.3-28.1,25.3-30.5,41.3-30.5
			h13.9v-26H2311.9z"/>
		<path d="M1238.2,54.4c0-16,29.6-26.9,64.7-26.9c27.2,0,59.6,11.4,74.5,25.2c8.3,7.6,17.4,13.3,20,27.8h29.7V7.9H1395
			c0.1,16.7-6.3,16.1-13.2,11.7c-24.7-13.9-50.3-18-81.1-18c-72.9,0-119,26-119,67.4c0,39.9,36.4,51.1,86.5,58.7l44.3,7.3
			c52.2,8.2,68.4,11.8,68.4,26.9c0,15.1-16.4,25.5-64,26c-31.6,0.3-66.1-9.4-80.6-22.7c-8.3-7.6-17.4-11.5-24-30.5h-29.9v75h33
			c1.4-10.5,4.6-19,12.1-14.6c23.9,12.7,64.3,21,91.1,21c77.2,0,120.3-24.5,120.3-68.3C1439,63.5,1238.2,98.9,1238.2,54.4z"/>
		<path d="M1984.2,34.5h18.5c15.7,0,21.2,3.6,21.2,14.2l-0.6,80.7l-128-120h-105.6v25.1h20.2c15.7,0,21.2,3.6,21.2,14.2v123.4
			c0,10.3-5.5,14.2-21.2,14.2h-20.2v24.8h122.1v-24.8h-20.5c-15.7,0-21.2-3.9-21.2-14.2V69.6l149,141.2l46,0.4V48.7
			c0-10.6,5.5-14.2,21.2-14.2h15.3V9.4h-117.6V34.5z"/>
		<path d="M1629.4,0C1535.7,0,1477,41.4,1477,108c0,65.3,57.9,106.4,149.5,106.4c97.4,0,154-40.5,154-109.8
			C1780.6,42.3,1719.4,0,1629.4,0z M1627.3,188.1c-51.9,0-81.7-29.9-81.7-81.6c0-50.5,31.1-80.4,84.3-80.4c51,0,80.8,30.5,80.8,82.6
			C1710.7,159.4,1680.4,188.1,1627.3,188.1z"/>
	</g>
</g>
</svg>
