<?xml version="1.0" encoding="utf-8"?>
<!-- Generator: Adobe Illustrator 26.0.3, SVG Export Plug-In . SVG Version: 6.00 Build 0)  -->
<svg version="1.1" id="Layer_1" xmlns="http://www.w3.org/2000/svg" xmlns:xlink="http://www.w3.org/1999/xlink" x="0px" y="0px"
	 viewBox="0 0 3839 1253.6" style="enable-background:new 0 0 3839 1253.6;" xml:space="preserve">
<style type="text/css">
	.st0{fill:#FFFFFF;}
</style>
<g>
	<path d="M673,1196.6V995.4h73.5c52.2,0,65.6,26,65.6,56.2c0,45-40,56.2-77.1,56.2h-43v88.8H673 M735.7,1091.5
		c35.5,0,57.6-7.3,57.6-41.4c0-25.1-16.2-38.6-52-38.6H692v80H735.7z"/>
	<rect x="837.6" y="995.4" width="16.8" height="201.1"/>
	<path d="M962.3,1112.2c6.1-0.6,16.5-2.2,22.1-4.8c5.5-2.5,6.1-10.1,6.1-15.1c0-17.1-10-29.4-36-29.4c-23.2,0-39.1,7.6-42.2,32.7
		h-17c2.5-34.1,27.9-47.8,59.5-47.8c29.3,0,52.5,11.5,52.5,45v78.8c0,13.1,3.3,16.2,17.6,11.2v13.1c-2.5,0.9-8.4,2.8-13.1,2.8
		c-2.8,0-5.1-0.3-7.5-0.8c-11.2-1.7-13.2-11.4-13.4-21.6c-14,15.7-33,24-54,24c-25.4,0-48.3-13.7-48.3-41.6
		c0-24.3,16.8-39.1,50.6-43.6L962.3,1112.2 M990.4,1120.6c-14.2,5.9-28.7,7-43.3,8.1c-25.5,1.9-40.8,11.2-40.8,30.7
		c0,17.6,15.4,26,31.3,26c26.5,0,52.8-12.9,52.8-42.2V1120.6z"/>
	<path d="M1048.6,1236c4.5,0.9,9.2,1.7,14,1.7c19,0,21.8-27.3,28.2-39.9l-56.2-145.9h18.7l46.4,124.3l46.4-124.3h18.2l-54,142.8
		c-13.7,36.4-22.6,59-45.8,59c-5.9,0-11.5-0.9-15.9-2V1236"/>
	<path d="M1203.9,1136.5c3.1,36,27.2,49.1,57.9,49.1c36,0,51.1-19.5,51.1-41.6c0-62.3-122.6-21-122.6-100.1
		c0-27.9,23.2-53.9,68.2-53.9c45.2,0,67.9,27.4,67.6,60.1h-18.2c0-30.7-23.8-43.9-49.4-43.9c-38.6,0-52.6,23.8-49.2,44.5
		c8.7,52,122.7,14.5,122.7,92.5c0,36.9-27.2,58.7-73.5,58.7c-41.9,0-72.9-21.8-72.9-65.4H1203.9"/>
	<path d="M1419.3,1197.1c-3.9,0.8-11.1,3.3-19.2,3.3c-16.5,0-25.7-7.2-25.7-28.7v-105.9H1354v-13.9h20.4v-40.3h16.7v40.3h27.2v13.9
		h-27.2v99.3c0,14.2,0.6,20.4,14.6,20.4c4.5,0,9.2-0.8,13.7-1.9V1197.1"/>
	<path d="M1516.9,1112.2c6.1-0.6,16.5-2.2,22.1-4.8c5.5-2.5,6.2-10.1,6.2-15.1c0-17.1-10.1-29.4-36-29.4c-23.2,0-39.1,7.6-42.2,32.7
		h-17.1c2.6-34.1,28-47.8,59.5-47.8c29.3,0,52.5,11.5,52.5,45v78.8c0,13.1,3.4,16.2,17.6,11.2v13.1c-2.5,0.9-8.4,2.8-13.1,2.8
		c-2.8,0-5-0.2-7.6-0.8c-11.2-1.6-13.1-11.4-13.4-21.5c-14,15.6-33,24-53.9,24c-25.5,0-48.4-13.7-48.4-41.6
		c0-24.3,16.8-39.1,50.6-43.6L1516.9,1112.2 M1545.1,1120.6c-14.3,5.9-28.8,7-43.3,8.1c-25.5,2-40.8,11.2-40.8,30.7
		c0,17.6,15.3,26,31.3,26c26.5,0,52.8-12.9,52.8-42.2V1120.6z"/>
	<path d="M1660.8,1197.1c-3.9,0.8-11.2,3.3-19.3,3.3c-16.5,0-25.7-7.2-25.7-28.7v-105.9h-20.4v-13.9h20.4v-40.3h16.8v40.3h27.1v13.9
		h-27.1v99.3c0,14.2,0.5,20.4,14.5,20.4c4.5,0,9.2-0.8,13.7-1.9V1197.1"/>
	<path d="M1693.5,995.4h18.4v24.9h-18.4V995.4z M1694.3,1051.8h16.8v144.7h-16.8V1051.8z"/>
	<path d="M1742.9,1124.2c0-42.2,22.3-76.3,67-76.3c45.3,0,67.1,33.8,67.1,76.3c0,45.9-26.6,76.3-67.1,76.3
		C1773.1,1199.9,1742.9,1174.8,1742.9,1124.2 M1810,1063c-35.2,0-49.2,29.9-49.2,61.2c0,36.1,17,61.2,49.2,61.2
		c35.2,0,49.2-30.2,49.2-61.2C1858.8,1090.1,1845.5,1063,1810,1063z"/>
	<path d="M1917.5,1196.6h-16.7v-144.7h16.7v20.1c13.4-14.2,26.6-24,46.7-24c17.6,0,33.8,5.6,44.1,20.7c7,10.3,7.3,21.3,7.3,33.3
		v94.7h-16.8v-94.5c0-26-10.6-39.1-37.4-39.1c-20.7,0-34.9,13.4-40.2,28.2c-3.4,9.2-3.7,17.3-3.7,27.4V1196.6"/>
	<path d="M2148.5,1196.6V995.4h73.4c52.3,0,65.7,26,65.7,56.2c0,45-39.9,56.2-77.1,56.2h-43v88.8H2148.5 M2211.1,1091.5
		c35.5,0,57.6-7.3,57.6-41.4c0-25.1-16.2-38.6-52-38.6h-49.2v80H2211.1z"/>
	<path d="M2295.5,1124.2c0-42.2,22.3-76.3,67.1-76.3c45.3,0,67,33.8,67,76.3c0,45.9-26.6,76.3-67,76.3
		C2325.7,1199.9,2295.5,1174.8,2295.5,1124.2 M2362.5,1063c-35.2,0-49.2,29.9-49.2,61.2c0,36.1,17,61.2,49.2,61.2
		c35.2,0,49.2-30.2,49.2-61.2C2411.4,1090.1,2398,1063,2362.5,1063z"/>
	<path d="M2471,1196.6h-16.8v-144.7h16.8v27.1h0.5c9.2-23.2,22.9-31,47.2-31v18.2c-37.7-0.8-47.8,27.1-47.8,59.6V1196.6"/>
	<path d="M2612.6,1197.1c-3.9,0.8-11.2,3.3-19.2,3.3c-16.5,0-25.7-7.2-25.7-28.7v-105.9h-20.4v-13.9h20.4v-40.3h16.8v40.3h27.1v13.9
		h-27.1v99.3c0,14.2,0.5,20.4,14.5,20.4c4.4,0,9.2-0.8,13.6-1.9V1197.1"/>
	<path d="M2704.5,1112.2c6.1-0.6,16.5-2.2,22.1-4.8c5.6-2.5,6.2-10.1,6.2-15.1c0-17.1-10.1-29.4-36-29.4c-23.2,0-39.1,7.6-42.2,32.7
		h-17c2.5-34.1,27.9-47.8,59.5-47.8c29.3,0,52.6,11.5,52.6,45v78.8c0,13.1,3.4,16.2,17.6,11.2v13.1c-2.5,0.9-8.4,2.8-13.1,2.8
		c-2.8,0-5.1-0.2-7.6-0.8c-11.2-1.6-13.1-11.4-13.4-21.5c-14,15.6-33,24-53.9,24c-25.4,0-48.3-13.7-48.3-41.6
		c0-24.3,16.7-39.1,50.5-43.6L2704.5,1112.2 M2732.7,1120.6c-14.3,5.9-28.8,7-43.3,8.1c-25.4,2-40.8,11.2-40.8,30.7
		c0,17.6,15.3,26,31.3,26c26.6,0,52.8-12.9,52.8-42.2V1120.6z"/>
	<path d="M2816.3,1196.6h-16.8V995.4h16.8v79.6c10.6-17.6,31.3-27.1,51.7-27.1c44.1,0,64.5,36.1,64.5,76.6c0,42.8-18.7,76-65.4,76
		c-18.5,0-40.5-10.3-50.3-29.3h-0.6V1196.6 M2865.2,1185.4c28.2,0,49.2-20.4,49.5-56.7c1.4-36.3-14.8-65.7-49.5-65.7
		c-30.5,0-48.9,28-48.9,60.6C2816.3,1158.6,2833.6,1185.4,2865.2,1185.4z"/>
	<rect x="2969.4" y="995.4" width="16.7" height="201.1"/>
	<path d="M3037.9,1128.1c-0.3,31.3,16.5,57.3,48.6,57.3c21.8,0,38.8-12,43.9-33.2h18.7c-8.4,27.3-25.7,48.3-62.6,48.3
		c-46.4,0-66.5-33-66.5-75.7c0-42.2,25.2-76.9,66.5-76.9c39.7,0,64,28.2,63.7,80.2H3037.9 M3132.3,1114.2
		c0-28.3-15.7-51.2-45.8-51.2c-29.6,0-45.3,23.8-48.6,51.2H3132.3z"/>
	<polyline points="2690.3,354.7 2690.3,662.1 2643,662.1 2643,307.4 3791.7,307.4 3791.7,47.4 2643,47.4 2643,0.1 3839,0.1 
		3839,354.7 2690.3,354.7 	"/>
	<path d="M2047.9,1155.6c0-9,3.5-17.5,10-23.9c6.4-6.4,14.9-10,24-10c9,0,17.6,3.5,24,10c6.3,6.4,10,14.9,10,23.9
		c0,18.7-15.2,34-34,34c-9.1,0-17.5-3.5-24-9.9C2051.5,1173.2,2047.9,1164.8,2047.9,1155.6 M2081.9,1196.4
		c10.9,0,21.1-4.2,28.8-11.9c7.6-7.7,11.9-18,11.9-28.9c0-10.8-4.3-21.1-11.9-28.8c-7.7-7.7-17.9-12-28.8-12
		c-22.4,0-40.8,18.4-40.8,40.8c0,10.9,4.1,21.2,12,28.9C2060.8,1192.2,2071,1196.4,2081.9,1196.4"/>
	<path d="M2093,1145.4c0,2.5-0.7,4.2-2,5.2c-1.5,0.9-3.5,1.3-6,1.3h-12.6v-12.7h13.5c1.7,0,3.2,0.3,4.3,0.8
		C2092,1140.9,2093,1142.7,2093,1145.4 M2101.9,1174.6c-0.5-0.3-1-0.9-1.3-2c-0.1-0.8-0.4-1.9-0.4-3.4l-0.1-5.8
		c0-2.9-0.7-4.9-1.6-6.1c-0.7-0.9-1.7-1.5-2.8-2.2c1.4-0.9,2.7-2,3.5-3.4c1.1-1.7,1.7-4.1,1.7-6.9c0-5.4-2.3-9.2-6.6-11.1
		c-2.3-1.1-5.2-1.6-8.6-1.6h-21.2v45.4h7.9v-18.6h12.4c2.3,0,4,0.3,5,0.7c1.6,0.8,2.4,2.3,2.5,4.8l0.3,7.3c0.1,1.7,0.2,2.9,0.4,3.5
		c0.1,0.7,0.2,1.3,0.5,1.7l0.3,0.6h8.8v-2.6L2101.9,1174.6"/>
	<polyline points="0,0 1196.2,0 1196.2,354.7 47.3,354.7 47.3,662.1 0,662.1 0,307.4 1148.9,307.4 1148.9,47.3 0,47.3 0,0 	"/>
	<polyline points="1806.4,0 1806.4,614.8 1196.2,614.8 1196.2,662.1 1856.1,662.1 1856.1,47.3 2466.3,47.3 2466.3,0 1806.4,0 	"/>
</g>
</svg>
