<?xml version="1.0" encoding="utf-8"?>
<!-- Generator: Adobe Illustrator 26.0.3, SVG Export Plug-In . SVG Version: 6.00 Build 0)  -->
<svg version="1.1" id="Layer_1" xmlns="http://www.w3.org/2000/svg" xmlns:xlink="http://www.w3.org/1999/xlink" x="0px" y="0px"
	 viewBox="0 0 3839 496.3" style="enable-background:new 0 0 3839 496.3;" xml:space="preserve">
<style type="text/css">
	.st0{fill:url(#SVGID_1_);}
	.st1{fill:url(#SVGID_00000121250206147014282560000013419179408306266039_);}
	.st2{fill:url(#SVGID_00000168813739156804617460000006280868031935486128_);}
	.st3{fill:url(#SVGID_00000136412603362506357530000010662498670775133583_);}
	.st4{fill:url(#SVGID_00000087385051621154181400000006001276769047568558_);}
	.st5{fill:url(#SVGID_00000132079326037453518530000016723961649417524385_);}
	.st6{fill:url(#SVGID_00000126301664156059108660000002867707930035577474_);}
	.st7{fill:url(#SVGID_00000164511150326188930410000017913334937146314150_);}
	.st8{fill:url(#SVGID_00000000220595299865659090000013496223749051393155_);}
	.st9{fill:url(#SVGID_00000031887049069202347430000018375660581941837196_);}
	.st10{fill:url(#SVGID_00000077314197203167900500000015039874885440813970_);}
	.st11{fill:url(#SVGID_00000117635500095475391100000015939535018181320106_);}
	.st12{fill:url(#SVGID_00000081626978632937901080000000253531821924783287_);}
	.st13{fill:url(#SVGID_00000040562474217053671940000000352845730051937967_);}
	.st14{fill:url(#SVGID_00000100367890490197106680000016683522841649469615_);}
	.st15{fill:url(#SVGID_00000124128045255524950260000014044238087077591973_);}
	.st16{fill:url(#SVGID_00000078748063522856516910000011334590930483305095_);}
	.st17{fill:url(#SVGID_00000075863590672871459150000006767413153834422956_);}
	.st18{fill:url(#SVGID_00000148655695604136135850000003073482932830442147_);}
	.st19{fill:url(#SVGID_00000034788173967605402090000007115512320703768453_);}
	.st20{fill:url(#SVGID_00000143587506122256153180000016584597902309036693_);}
	.st21{fill:url(#SVGID_00000088850610006556734010000016681790546020971655_);}
	.st22{fill:url(#SVGID_00000119087224140751046160000001360845041743243170_);}
	.st23{fill:url(#SVGID_00000088811528175197741220000014207215439813017743_);}
	.st24{fill:url(#SVGID_00000047777093574587111100000014132240661131969687_);}
	.st25{fill:url(#SVGID_00000061452552865078320640000017490403776682796222_);}
	.st26{fill:url(#SVGID_00000178162624955861274460000012585061078312527549_);}
	.st27{fill:url(#SVGID_00000116197199935537235240000000000893018124687529_);}
	.st28{fill:url(#SVGID_00000030487896384424415490000004494089770267377049_);}
	.st29{fill:url(#SVGID_00000043432948075376795540000005570163725048767125_);}
	.st30{fill:url(#SVGID_00000076595335064671997930000014595228933130038658_);}
	.st31{fill:url(#SVGID_00000161610795090945733420000010878022294098107582_);}
	.st32{fill:url(#SVGID_00000180358989070941479720000012727323342070539152_);}
	.st33{fill:url(#SVGID_00000101068298455351437390000008436120817469416383_);}
	.st34{fill:url(#SVGID_00000018205585255525427160000008858343081532486794_);}
	.st35{fill:url(#SVGID_00000154396204825045296440000015422161166838027143_);}
	.st36{fill:url(#SVGID_00000044141436773266045520000003509798045927768249_);}
	.st37{fill:url(#SVGID_00000107552948836015187890000006088004139733204137_);}
	.st38{fill:url(#SVGID_00000089551167475030570970000005643918218776036790_);}
	.st39{fill:url(#SVGID_00000181084400622112347040000000265949293466221708_);}
	.st40{fill:url(#SVGID_00000084499867708574915030000013359625875002012340_);}
	.st41{fill:url(#SVGID_00000168833708017808096940000014056730828320509313_);}
	.st42{fill:url(#SVGID_00000003827890154022924060000016273543520969674127_);}
	.st43{fill:url(#SVGID_00000040564419077692746130000015833768026393846449_);}
	.st44{fill:url(#SVGID_00000041994928646646151990000007952059732592804765_);}
	.st45{fill:url(#SVGID_00000151514019330790818270000009215269417403937671_);}
	.st46{fill:url(#SVGID_00000015345160074506546840000005617534781706338471_);}
	.st47{fill:url(#SVGID_00000143599730900405038960000018021922969024163989_);}
	.st48{fill:url(#SVGID_00000124144921711667050160000015769654488156374719_);}
	.st49{fill:url(#SVGID_00000094607241434959918260000015417877859709968552_);}
	.st50{fill:#FFFFFF;}
	.st51{fill:url(#SVGID_00000029033122042102380990000000978290086141029782_);}
	.st52{fill:url(#SVGID_00000102502637598131207680000018116036026435811716_);}
	.st53{fill:url(#SVGID_00000057125641673695454660000005637359669142178455_);}
	.st54{fill:url(#SVGID_00000086680900083804006920000005946642434380720786_);}
	.st55{fill:url(#SVGID_00000093886506749333307070000018196177135838511018_);}
	.st56{fill:url(#SVGID_00000150102902350925792170000008268648669862656400_);}
	.st57{fill:url(#SVGID_00000173130818825898776240000008078596112887145405_);}
	.st58{fill:url(#SVGID_00000150782900387003715020000002704863850425778336_);}
	.st59{fill:url(#SVGID_00000050649528876263410000000017028555685675791520_);}
	.st60{fill:url(#SVGID_00000009588464283315911460000001374025009620995981_);}
	.st61{fill:url(#SVGID_00000036249521237095189570000006883860959290315406_);}
	.st62{fill:url(#SVGID_00000060733306361900199070000006925862781487293840_);}
	.st63{fill:url(#SVGID_00000092426608692186681570000009563200781812325001_);}
	.st64{fill:url(#SVGID_00000068666155636852247160000015878440279628214964_);}
	.st65{fill:url(#SVGID_00000070088274014635052420000008561008182372959923_);}
	.st66{fill:url(#SVGID_00000080913128223888750190000013514552929732878769_);}
	.st67{fill:url(#SVGID_00000083799616615734501180000007968697067978713744_);}
	.st68{fill:url(#SVGID_00000055679488923893877570000004940415861622368958_);}
	.st69{fill:url(#SVGID_00000016043278994365503100000002942597401274303401_);}
	.st70{fill:url(#SVGID_00000029032239416682744790000001069690084687238845_);}
	.st71{fill:url(#SVGID_00000068637654341444491710000012993408511563146663_);}
	.st72{fill:url(#SVGID_00000093890956648400261170000012317250791649391285_);}
	.st73{fill:url(#SVGID_00000077324735963927659990000008235062105176891289_);}
	.st74{fill:url(#SVGID_00000068665102303643888640000000996386031244606353_);}
	.st75{fill:url(#SVGID_00000118393106534682959530000016480161958496711310_);}
	.st76{fill:url(#SVGID_00000015318375443570719330000002932631606906806705_);}
	.st77{fill:url(#SVGID_00000106862244311746634210000009980398304034495631_);}
	.st78{fill:url(#SVGID_00000057142234833411605340000012196411363032584108_);}
	.st79{fill:url(#SVGID_00000172427890558596260110000003272939133655258028_);}
	.st80{fill:url(#SVGID_00000000209752237775693110000002989787428046112679_);}
	.st81{fill:url(#SVGID_00000096047878505850032800000001809164314061345173_);}
	.st82{fill:url(#SVGID_00000165947318231107220340000015798237474812125870_);}
	.st83{fill:url(#SVGID_00000183248886038133381620000015028894379946010752_);}
	.st84{fill:url(#SVGID_00000031208822968923798670000000341571963330012589_);}
	.st85{fill:url(#SVGID_00000099647570440516482460000014592721784893285285_);}
	.st86{fill:url(#SVGID_00000076566925093199821410000018262148193010255016_);}
	.st87{fill:url(#SVGID_00000044179794333253201520000012489025521811509436_);}
	.st88{fill:url(#SVGID_00000147219065657434989730000010103604940701617560_);}
	.st89{fill:url(#SVGID_00000168798956102857839270000007856107513337755282_);}
	.st90{fill:url(#SVGID_00000018924035973345226860000012303878463251548065_);}
	.st91{fill:url(#SVGID_00000040561243769435239550000016912462779949229990_);}
	.st92{fill:url(#SVGID_00000034077166136532330370000000170176856107123117_);}
	.st93{fill:url(#SVGID_00000047760559474992693940000003028979396182471324_);}
	.st94{fill:url(#SVGID_00000154395807894926880150000017112587808571630768_);}
	.st95{fill:url(#SVGID_00000181078932649950911560000012973466425298471075_);}
	.st96{fill:url(#SVGID_00000062892558629301223570000009347033702578907284_);}
	.st97{fill:url(#SVGID_00000060725485795031889990000003584074632147775401_);}
	.st98{fill:url(#SVGID_00000124850589502330637520000003402688317411801490_);}
	.st99{fill:url(#SVGID_00000127735513008205546570000013753960901042456510_);}
	.st100{fill:url(#SVGID_00000138574673775496936140000001891958364055675522_);}
</style>
<g>
	<g>
		
			<linearGradient id="SVGID_1_" gradientUnits="userSpaceOnUse" x1="1244.3799" y1="15329.2266" x2="1244.3799" y2="15713.2568" gradientTransform="matrix(1 0 0 -1 1523.5 15808.249)">
			<stop  offset="0" style="stop-color:#48407D"/>
			<stop  offset="1" style="stop-color:#6A93C9"/>
		</linearGradient>
		<path class="st0" d="M2767.9,95c-157.2,0-229.8,101.7-229.8,196.8v62.7V479h81.5V354.5v-62.7c0-68.8,36.9-131.9,148.3-131.9
			c111.5,0,148.3,63.1,148.3,131.9v62.7V479h81.5V354.5v-62.7C2997.6,196.7,2925,95,2767.9,95z"/>
		
			<linearGradient id="SVGID_00000119095613809977088690000017383981415851303092_" gradientUnits="userSpaceOnUse" x1="283.2878" y1="15329.2266" x2="283.2878" y2="15713.2568" gradientTransform="matrix(1 0 0 -1 1523.5 15808.249)">
			<stop  offset="0" style="stop-color:#48407D"/>
			<stop  offset="1" style="stop-color:#6A93C9"/>
		</linearGradient>
		<path style="fill:url(#SVGID_00000119095613809977088690000017383981415851303092_);" d="M1995.9,95
			c-90.1,0-152.3,33.4-189.1,79.9c-36.8-46.4-99-79.9-189.1-79.9c-157.2,0-229.8,101.7-229.8,196.8v62.7V479h81.5V354.5v-62.7
			c0-68.8,36.9-131.9,148.3-131.9S1766,223,1766,291.8v62.7V479h81.5V354.5v-62.7c0-68.8,36.9-131.9,148.3-131.9
			s148.3,63.1,148.3,131.9v62.7V479h81.5V354.5v-62.7C2225.7,196.7,2153,95,1995.9,95z"/>
		<g>
			<g>
				
					<linearGradient id="SVGID_00000101063139031381897090000006646687177626970550_" gradientUnits="userSpaceOnUse" x1="856.9968" y1="15329.2266" x2="856.9968" y2="15713.2568" gradientTransform="matrix(1 0 0 -1 1523.5 15808.249)">
					<stop  offset="0" style="stop-color:#48407D"/>
					<stop  offset="1" style="stop-color:#6A93C9"/>
				</linearGradient>
				<path style="fill:url(#SVGID_00000101063139031381897090000006646687177626970550_);" d="M2339.8,479h81.5V228.5h-81.5V479z
					 M2339.8,95v64.9h81.5V95H2339.8z"/>
			</g>
		</g>
		<g>
			<g>
				
					<linearGradient id="SVGID_00000018938326330989552740000015620633808082282909_" gradientUnits="userSpaceOnUse" x1="1629.4265" y1="15329.2266" x2="1629.4265" y2="15713.2568" gradientTransform="matrix(1 0 0 -1 1523.5 15808.249)">
					<stop  offset="0" style="stop-color:#48407D"/>
					<stop  offset="1" style="stop-color:#6A93C9"/>
				</linearGradient>
				<path style="fill:url(#SVGID_00000018938326330989552740000015620633808082282909_);" d="M3112.2,479h81.5V228.5h-81.5V479z
					 M3112.2,95v64.9h81.5V95H3112.2z"/>
			</g>
		</g>
		
			<linearGradient id="SVGID_00000021842175589171909530000005963117057542949043_" gradientUnits="userSpaceOnUse" x1="2047.5929" y1="15328.5156" x2="2047.5929" y2="15808.249" gradientTransform="matrix(1 0 0 -1 1523.5 15808.249)">
			<stop  offset="0" style="stop-color:#48407D"/>
			<stop  offset="1" style="stop-color:#6A93C9"/>
		</linearGradient>
		<path style="fill:url(#SVGID_00000021842175589171909530000005963117057542949043_);" d="M3760.2,0
			c-157.2,0-229.8,101.7-229.8,196.8v86.2c0,68.8-36.9,131.9-148.3,131.9h-78.8v64.9h78.8c157.2,0,229.8-101.7,229.8-196.8v-86.2
			c0-68.8,36.9-131.9,148.3-131.9h78.8V0H3760.2z"/>
	</g>
	<g>
		<g>
			<path d="M215.4,478v-64.4H239c16.7,0,21,8.3,21,18c0,14.4-12.8,18-24.7,18h-13.8V478H215.4 M235.5,444.4
				c11.3,0,18.4-2.3,18.4-13.3c0-8-5.2-12.4-16.7-12.4h-15.7v25.6L235.5,444.4L235.5,444.4z"/>
			<rect x="268.1" y="413.6" width="5.4" height="64.4"/>
			<path d="M308,451c2-0.2,5.3-0.7,7.1-1.5c1.8-0.8,1.9-3.2,1.9-4.8c0-5.5-3.2-9.4-11.5-9.4c-7.4,0-12.5,2.4-13.5,10.5h-5.4
				c0.8-10.9,8.9-15.3,19-15.3c9.4,0,16.8,3.7,16.8,14.4v25.2c0,4.2,1.1,5.2,5.6,3.6v4.2c-0.8,0.3-2.7,0.9-4.2,0.9
				c-0.9,0-1.6-0.1-2.4-0.3c-3.6-0.5-4.2-3.6-4.3-6.9c-4.5,5-10.6,7.7-17.3,7.7c-8.1,0-15.5-4.4-15.5-13.3c0-7.8,5.3-12.5,16.2-13.9
				L308,451 M317.1,453.7c-4.6,1.9-9.2,2.2-13.9,2.6c-8.1,0.6-13.1,3.6-13.1,9.8c0,5.7,4.9,8.3,10,8.3c8.5,0,16.9-4.1,16.9-13.5
				L317.1,453.7L317.1,453.7z"/>
			<path d="M335.6,490.6c1.4,0.3,3,0.5,4.5,0.5c6.1,0,7-8.8,9-12.8l-18-46.7h6l14.9,39.8l14.9-39.8h5.8l-17.3,45.7
				c-4.4,11.6-7.3,18.9-14.6,18.9c-1.9,0-3.7-0.3-5.1-0.6V490.6"/>
			<path d="M385.4,458.8c1,11.5,8.7,15.7,18.5,15.7c11.5,0,16.3-6.2,16.3-13.3c0-20-39.3-6.7-39.3-32.1c0-9,7.4-17.3,21.8-17.3
				c14.5,0,21.7,8.8,21.7,19.2h-5.8c0-9.8-7.6-14-15.8-14c-12.3,0-16.8,7.6-15.7,14.2c2.8,16.7,39.3,4.7,39.3,29.6
				c0,11.8-8.7,18.8-23.5,18.8c-13.4,0-23.3-7-23.3-20.9L385.4,458.8"/>
			<path d="M454.3,478.2c-1.2,0.3-3.6,1.1-6.2,1.1c-5.3,0-8.2-2.3-8.2-9.2v-33.9h-6.5v-4.5h6.5v-12.9h5.3v12.9h8.7v4.5h-8.7v31.8
				c0,4.5,0.2,6.5,4.7,6.5c1.4,0,3-0.3,4.4-0.6V478.2"/>
			<path d="M485.6,451c2-0.2,5.3-0.7,7.1-1.5c1.8-0.8,2-3.2,2-4.8c0-5.5-3.2-9.4-11.5-9.4c-7.4,0-12.5,2.4-13.5,10.5h-5.4
				c0.8-10.9,9-15.3,19-15.3c9.4,0,16.8,3.7,16.8,14.4v25.2c0,4.2,1.1,5.2,5.6,3.6v4.2c-0.8,0.3-2.7,0.9-4.2,0.9
				c-0.9,0-1.6-0.1-2.4-0.3c-3.6-0.5-4.2-3.6-4.3-6.9c-4.5,5-10.6,7.7-17.3,7.7c-8.1,0-15.5-4.4-15.5-13.3c0-7.8,5.3-12.5,16.2-13.9
				L485.6,451 M494.6,453.7c-4.6,1.9-9.2,2.2-13.9,2.6c-8.1,0.6-13,3.6-13,9.8c0,5.7,4.9,8.3,10,8.3c8.5,0,16.9-4.1,16.9-13.5V453.7
				z"/>
			<path d="M531.6,478.2c-1.3,0.3-3.6,1.1-6.2,1.1c-5.3,0-8.2-2.3-8.2-9.2v-33.9h-6.5v-4.5h6.5v-12.9h5.4v12.9h8.7v4.5h-8.7v31.8
				c0,4.5,0.2,6.5,4.6,6.5c1.4,0,3-0.3,4.4-0.6L531.6,478.2"/>
			<path d="M542.1,413.6h5.9v8h-5.9V413.6z M542.3,431.7h5.3V478h-5.3V431.7z"/>
			<path d="M557.9,454.9c0-13.5,7.2-24.4,21.5-24.4c14.5,0,21.5,10.8,21.5,24.4c0,14.7-8.5,24.4-21.5,24.4
				C567.6,479.1,557.9,471,557.9,454.9 M579.4,435.3c-11.3,0-15.7,9.6-15.7,19.6c0,11.5,5.4,19.6,15.7,19.6
				c11.3,0,15.7-9.7,15.7-19.6C595,444,590.7,435.3,579.4,435.3z"/>
			<path d="M613.8,478h-5.3v-46.3h5.3v6.4c4.3-4.5,8.5-7.7,15-7.7c5.7,0,10.8,1.8,14.1,6.6c2.2,3.3,2.4,6.8,2.4,10.7V478h-5.4v-30.2
				c0-8.3-3.4-12.5-12-12.5c-6.6,0-11.2,4.3-12.9,9c-1.1,3-1.2,5.6-1.2,8.8L613.8,478"/>
			<path d="M687.8,478v-64.4h23.5c16.7,0,21,8.3,21,18c0,14.4-12.8,18-24.7,18h-13.8V478H687.8 M707.8,444.4
				c11.3,0,18.4-2.3,18.4-13.3c0-8-5.2-12.4-16.7-12.4h-15.7v25.6L707.8,444.4L707.8,444.4z"/>
			<path d="M734.8,454.9c0-13.5,7.2-24.4,21.5-24.4c14.5,0,21.5,10.8,21.5,24.4c0,14.7-8.5,24.4-21.5,24.4
				C744.5,479.1,734.8,471,734.8,454.9 M756.2,435.3c-11.3,0-15.7,9.6-15.7,19.6c0,11.5,5.4,19.6,15.7,19.6
				c11.3,0,15.7-9.7,15.7-19.6C771.9,444,767.6,435.3,756.2,435.3z"/>
			<path d="M791,478h-5.3v-46.3h5.3v8.7h0.2c3-7.4,7.3-9.9,15.1-9.9v5.8c-12.1-0.3-15.3,8.7-15.3,19.1V478"/>
			<path d="M836.3,478.2c-1.3,0.3-3.6,1.1-6.2,1.1c-5.3,0-8.2-2.3-8.2-9.2v-33.9h-6.5v-4.5h6.5v-12.9h5.4v12.9h8.7v4.5h-8.7v31.8
				c0,4.5,0.2,6.5,4.6,6.5c1.4,0,3-0.3,4.4-0.6L836.3,478.2"/>
			<path d="M865.7,451c2-0.2,5.3-0.7,7.1-1.5c1.8-0.8,2-3.2,2-4.8c0-5.5-3.2-9.4-11.5-9.4c-7.4,0-12.5,2.4-13.5,10.5h-5.4
				c0.8-10.9,8.9-15.3,19-15.3c9.4,0,16.8,3.7,16.8,14.4v25.2c0,4.2,1.1,5.2,5.6,3.6v4.2c-0.8,0.3-2.7,0.9-4.2,0.9
				c-0.9,0-1.6-0.1-2.4-0.3c-3.6-0.5-4.2-3.6-4.3-6.9c-4.5,5-10.6,7.7-17.3,7.7c-8.1,0-15.5-4.4-15.5-13.3c0-7.8,5.3-12.5,16.2-13.9
				L865.7,451 M874.8,453.7c-4.6,1.9-9.2,2.2-13.9,2.6c-8.1,0.6-13,3.6-13,9.8c0,5.7,4.9,8.3,10,8.3c8.5,0,16.9-4.1,16.9-13.5V453.7
				z"/>
			<path d="M901.5,478h-5.3v-64.4h5.3v25.5c3.4-5.7,10-8.7,16.6-8.7c14.1,0,20.6,11.5,20.6,24.5c0,13.7-6,24.3-20.9,24.3
				c-5.9,0-13-3.3-16.1-9.4h-0.2L901.5,478 M917.2,474.4c9,0,15.7-6.5,15.8-18.2c0.4-11.6-4.7-21-15.8-21c-9.7,0-15.6,9-15.6,19.4
				C901.5,465.9,907,474.4,917.2,474.4z"/>
			<rect x="950.5" y="413.6" width="5.3" height="64.4"/>
			<path d="M972.4,456.1c-0.1,10,5.3,18.3,15.6,18.3c6.9,0,12.4-3.8,14-10.6h6c-2.7,8.8-8.2,15.5-20,15.5
				c-14.9,0-21.3-10.6-21.3-24.2c0-13.5,8.1-24.6,21.3-24.6c12.7,0,20.5,9,20.4,25.7L972.4,456.1 M1002.7,451.7
				c0-9.1-5-16.4-14.7-16.4c-9.5,0-14.5,7.6-15.6,16.4H1002.7z"/>
			<polyline points="861.2,208.5 861.2,306.9 846,306.9 846,193.4 1213.7,193.4 1213.7,110.1 846,110.1 846,95 1228.9,95 
				1228.9,208.5 861.2,208.5 			"/>
			<path d="M655.6,464.9c0-2.9,1.1-5.6,3.2-7.7c2-2,4.8-3.2,7.7-3.2c2.9,0,5.6,1.1,7.7,3.2c2,2,3.2,4.8,3.2,7.7
				c0,6-4.9,10.9-10.9,10.9c-2.9,0-5.6-1.1-7.7-3.2C656.7,470.6,655.6,467.8,655.6,464.9 M666.4,478c3.5,0,6.7-1.3,9.2-3.8
				c2.5-2.5,3.8-5.8,3.8-9.2s-1.4-6.7-3.8-9.2c-2.5-2.5-5.8-3.8-9.2-3.8c-7.2,0-13,5.9-13,13c0,3.5,1.3,6.8,3.8,9.2
				C659.6,476.6,662.9,478,666.4,478"/>
			<path d="M670,461.6c0,0.8-0.2,1.4-0.6,1.7c-0.5,0.3-1.1,0.4-1.9,0.4h-4.1v-4.1h4.3c0.5,0,1,0.1,1.4,0.3
				C669.7,460.2,670,460.8,670,461.6 M672.8,471c-0.2-0.1-0.3-0.3-0.4-0.6c0-0.3-0.1-0.6-0.1-1.1l0-1.8c0-0.9-0.2-1.6-0.5-1.9
				c-0.2-0.3-0.5-0.5-0.9-0.7c0.4-0.3,0.9-0.6,1.1-1.1c0.3-0.5,0.5-1.3,0.5-2.2c0-1.7-0.7-2.9-2.1-3.5c-0.7-0.3-1.7-0.5-2.8-0.5
				h-6.8V472h2.5V466h4c0.7,0,1.3,0.1,1.6,0.2c0.5,0.2,0.8,0.7,0.8,1.5l0.1,2.3c0,0.5,0.1,0.9,0.1,1.1c0,0.2,0.1,0.4,0.2,0.5
				l0.1,0.2h2.8v-0.9L672.8,471"/>
			<polyline points="0,95 382.9,95 382.9,208.5 15.2,208.5 15.2,306.9 0,306.9 0,193.4 367.8,193.4 367.8,110.1 0,110.1 0,95 			"/>
			<polyline points="578.2,95 578.2,291.8 382.9,291.8 382.9,306.9 594.1,306.9 594.1,110.1 789.5,110.1 789.5,95 578.2,95 			"/>
		</g>
	</g>
</g>
</svg>
