<?xml version="1.0" encoding="utf-8"?>
<!-- Generator: Adobe Illustrator 26.0.3, SVG Export Plug-In . SVG Version: 6.00 Build 0)  -->
<svg version="1.1" id="Layer_1" xmlns="http://www.w3.org/2000/svg" xmlns:xlink="http://www.w3.org/1999/xlink" x="0px" y="0px"
	 viewBox="0 0 3839 1178.6" style="enable-background:new 0 0 3839 1178.6;" xml:space="preserve">
<style type="text/css">
	.st0{fill:#FFFFFF;}
</style>
<g>
	<g>
		<g>
			<g>
				<path d="M1987.3,1126.4c10.3,0,20.2-4,27.6-11.4c7.5-7.7,11.6-17.5,11.6-27.1c0-10.5-4.2-20.4-11.6-27.9
					c-7.4-7.4-17.3-11.5-27.6-11.5c-21.1,0-38.8,17.8-38.8,39.4c0,9.7,4.2,19.4,11.5,27.1
					C1967.6,1122.3,1977.4,1126.4,1987.3,1126.4 M1955.1,1087.9c0-8.7,3.7-17,9.9-23.4c6.2-6.1,14.3-9.4,22.4-9.4
					c8.6,0,16.9,3.3,22.9,9.4c6.3,6.4,9.7,14.7,9.7,23.4c0,17-14.8,31.9-32.7,31.9c-8.1,0-16.2-3.4-22.4-9.5
					C1958.7,1103.9,1955.1,1096.1,1955.1,1087.9"/>
				<path d="M2006.5,1105.2c-0.3-0.4-1-0.9-1.3-1.7c0-0.9-0.2-1.9-0.2-3.4l-0.3-5.3c0-2.5-0.6-4.2-1.5-5.4c-0.7-0.9-1.7-1.4-2.7-2
					c1.5-0.9,2.6-2,3.4-3.3c1.1-1.7,1.7-4,1.7-6.7c0-5.1-2.4-8.9-6.4-10.7c-2.3-1-5.1-1.7-8.3-1.7h-19.7v43.2h7.6V1091h11.1
					c2.2,0,4.1,0.2,4.9,0.6c1.5,0.6,2.2,1.9,2.4,4.2l0.4,6.8c0.1,1.6,0.1,2.7,0.4,3.5c0,0.6,0.2,1.1,0.5,1.6l0.2,0.6h8.6v-2.8
					L2006.5,1105.2 M1997.9,1077.9c0,2.2-0.8,4-2,5c-1.3,0.7-3.3,1.4-5.9,1.4h-11.3v-12.5h12.2c1.6,0,3.2,0.4,4.2,0.9
					C1996.9,1073.6,1997.9,1075.2,1997.9,1077.9"/>
				<path d="M634.7,944.3h80.7c51.9,0,62,33.3,62,56.3c0,22.8-10.1,56.1-62,55.8h-48.7v70h-32V944.3z M666.7,1030.6h46.8
					c14.2,0,31.5-7.1,31.5-30.3c0-24.2-14.3-30.3-31-30.3h-47.3V1030.6z"/>
				<g>
					<rect x="796" y="944.3" width="29.3" height="182.1"/>
				</g>
				<path d="M968.3,1096.8c0,7.1,1.4,10,6.9,10c1.7,0,3.8,0,6.7-0.5v20.4c-4,1.5-13.1,3.2-18,3.2c-12,0-20.5-4-22.9-16.2
					c-11.6,11.4-29.7,16.2-45.4,16.2c-24,0-45-12.8-45-38.1c0-33.3,26.1-38.7,50.8-41.7c20.4-3.7,39.1-1.2,39.1-18.4
					c0-14.9-15.7-17.7-26.9-17.7c-16.5,0-28.2,6.8-29.3,20.5h-29.2c2-33.6,31.1-43.7,60.1-43.7c25.5,0,53,10.6,53,38.7V1096.8z
					 M938.7,1060.4c-9.1,5.8-22.7,5.5-35.3,7.8c-12.8,2-24,6.6-24,22.2c0,12.6,16.6,16.3,27,16.3c12.3,0,32.3-6.8,32.3-24.6V1060.4z
					"/>
				<path d="M980.2,994.3h31.7l34.4,98.8h0.5l33.5-98.8h30.1l-51.2,139.4c-9.4,23.7-16,45-46.3,45c-7.1,0-13.6-0.6-20.5-1.7v-24
					c4.7,0.6,9.2,1.7,13.9,1.7c13.7,0,17.2-7.1,20.7-18.5l3.3-10.4L980.2,994.3z"/>
				<path d="M1149.1,1065.8c0,28,20.5,38.6,46,38.6c28.1,0,37.9-13.1,37.9-27c0-14.4-6.9-19.9-14.7-22.8c-12.8-4.9-29-8.2-53.7-15.3
					c-31.6-8.1-40.8-26.8-40.8-45.8c0-36.4,34.3-53.5,66.7-53.5c38,0,69.6,20.2,69.6,58.1h-31.6c-1.5-23.9-17.4-31.9-39.1-31.9
					c-15.2,0-33.1,4.7-33.1,23.2c0,13.2,8.7,20.2,21.1,23.9c3,0.7,43.2,11.5,52.5,14.1c23.7,6.5,35.4,27.1,35.4,46.2
					c0,40.7-36,57.2-72.1,57.2c-41.4,0-75.5-20.4-76.3-65H1149.1z"/>
				<path d="M1275.7,994.3h21.3v-39.2h29.6v39.2h26.7v22.1h-26.7v70.4c0,11.4,0.9,17.7,14.2,17.7c4.1,0,8.4,0,12.5-0.9v22.6
					c-6.6,0.5-12.8,1.5-19.4,1.5c-30.5,0-36.2-11.8-36.9-33.5v-77.7h-21.3V994.3z"/>
				<path d="M1486.3,1096.8c0,7.1,1.6,10,7.1,10c1.7,0,4.1,0,7.3-0.5v20.4c-4.5,1.5-13.8,3.2-18.4,3.2c-11.4,0-20-4-22.2-16.2
					c-11.6,11.4-30.6,16.2-45.5,16.2c-24,0-45.7-12.8-45.7-38.1c0-33.3,26.6-38.7,51-41.7c20.6-3.7,39.5-1.2,39.5-18.4
					c0-14.9-15.8-17.7-27.6-17.7c-15.7,0-27.5,6.8-28.7,20.5h-29.5c2.1-33.6,31-43.7,59.9-43.7c26.1,0,52.7,10.6,52.7,38.7V1096.8z
					 M1457.5,1060.4c-8.9,5.8-23.2,5.5-36.2,7.8c-11.8,2-23.2,6.6-23.2,22.2c0,12.6,16.9,16.3,26.2,16.3c13.1,0,33.2-6.8,33.2-24.6
					V1060.4z"/>
				<path d="M1503.4,994.3h22.2v-39.2h28.8v39.2h26.5v22.1h-26.5v70.4c0,11.4,1,17.7,13.9,17.7c4.6,0,8.5,0,12.6-0.9v22.6
					c-6.4,0.5-12.6,1.5-19.2,1.5c-29.8,0-35.6-11.8-36.1-33.5v-77.7h-22.2V994.3z"/>
				<path d="M1606.1,944.3h28.9v27.3h-28.9V944.3z M1606.1,994.3h28.9v132.1h-28.9V994.3z"/>
				<path d="M1657.2,1060.4c0-40.1,23.8-69.7,66.7-69.7c41.9,0,66.7,29.6,66.7,69.7c0,40.1-24.7,69.4-66.7,69.4
					C1681,1129.8,1657.2,1100.6,1657.2,1060.4 M1760.9,1060.4c0-23.2-11.5-46.5-37-46.5c-26.5,0-38.1,23.3-38.1,46.5
					c0,22.9,11.6,46.3,38.1,46.3C1749.4,1106.8,1760.9,1083.4,1760.9,1060.4"/>
				<path d="M1811.8,994.3h27.6v19.7l0.5,0.6c8.8-14.8,23.2-23.9,40.9-23.9c28.8,0,46.5,15.7,46.5,44.7v90.9h-28.8v-83.3
					c-0.5-20.1-8.6-29.2-26.2-29.2c-18.8,0-31.5,15.5-31.5,34.5v77.9h-28.9V994.3z"/>
				<path d="M2048.6,944.3h80.6c52,0,62.1,33.3,62.1,56.3c0,22.8-10.1,56.1-62.1,55.8H2081v70h-32.3V944.3z M2081,1030.6h46.5
					c14.5,0,32.3-7.1,32.3-30.3c0-24.2-14.6-30.3-31.8-30.3h-47V1030.6z"/>
				<path d="M2199,1060.4c0-40.1,24.6-69.7,66.8-69.7c42.1,0,66.6,29.6,66.6,69.7c0,40.1-24.5,69.4-66.6,69.4
					C2223.5,1129.8,2199,1100.6,2199,1060.4 M2302.7,1060.4c0-23.2-10.7-46.5-37-46.5c-26.4,0-37.5,23.3-37.5,46.5
					c0,22.9,11.1,46.3,37.5,46.3C2292,1106.8,2302.7,1083.4,2302.7,1060.4"/>
				<path d="M2354.4,994.3h26.8v26.1h0.5c3.4-14.2,21.1-29.6,38.9-29.6c6.1,0,7.9,0.5,10.6,0.9v28.4c-4.3-0.5-8.4-1.3-12-1.3
					c-20.2,0-36.2,15.4-36.2,44.9v62.8h-28.7V994.3z"/>
				<path d="M2446,994.3h21.7v-39.2h28.7v39.2h26.6v22.1h-26.6v70.4c0,11.4,1.2,17.7,14.3,17.7c4.3,0,8.3,0,12.3-0.9v22.6
					c-6.6,0.5-12.8,1.5-19.2,1.5c-29.8,0-35.6-11.8-36.1-33.5v-77.7H2446V994.3z"/>
				<path d="M2655.1,1096.8c0,7.1,1.5,10,6.9,10c1.9,0,4.2,0,7.2-0.5v20.4c-4.5,1.5-13.6,3.2-18.6,3.2c-12,0-20.4-4-22.6-16.2
					c-11.8,11.4-29.8,16.2-45.6,16.2c-24,0-44.7-12.8-44.7-38.1c0-33.3,25.5-38.7,50.4-41.7c21.1-3.7,39.4-1.2,39.4-18.4
					c0-14.9-15.5-17.7-26.8-17.7c-16.6,0-28.3,6.8-29.4,20.5h-28.8c2.2-33.6,30.5-43.7,59.9-43.7c25.4,0,52.8,10.6,52.8,38.7V1096.8
					z M2625.5,1060.4c-8.9,5.8-22.4,5.5-35.1,7.8c-12.9,2-24.3,6.6-24.3,22.2c0,12.6,16.7,16.3,27,16.3c12.9,0,32.3-6.8,32.3-24.6
					V1060.4z"/>
				<path d="M2685.9,944.3h29.5v67.4h0.5c8.1-12.9,24.2-20.9,39.2-20.9c41.8,0,61.7,32,61.7,70.3c0,35.3-17.7,68.8-56.9,68.8
					c-17.9,0-36.6-4.2-45.3-21.6h-0.6v18.2h-28V944.3z M2751.2,1014c-24.1,0-36.7,18.5-36.7,46.8c0,26.6,13.5,46.1,36.7,46.1
					c26.8,0,36.7-23.1,36.7-46.1C2788,1036.2,2775.5,1014,2751.2,1014"/>
				<g>
					<rect x="2838.9" y="944.3" width="28.8" height="182.1"/>
				</g>
				<path d="M2919.2,1068c0,21,10.8,38.8,35.4,38.8c16.9,0,27.1-7.4,32-21.4h27.6c-6.6,28.3-30.7,44.4-59.6,44.4
					c-41.2,0-64.6-29.1-64.6-69.1c0-37.4,24.7-70,63.6-70c41.4,0,67.4,38,62.4,77.3H2919.2z M2987,1048.8
					c-1.1-18.2-13.3-34.9-33.4-34.9c-20.2,0-33.6,15.5-34.3,34.9H2987z"/>
				<path d="M3800.1,632.8c10.2,0,19.9-3.8,27.4-11.2c7.5-7.7,11.5-17.5,11.5-27.9c0-9.6-4.1-19.7-11.5-27.1
					c-7.4-7.5-17.2-11.6-27.4-11.6c-21.4,0-39.2,17.8-39.2,38.8c0,10.4,4.1,20.2,11.6,27.9C3780,629.1,3789.7,632.8,3800.1,632.8
					 M3767.5,593.7c0-8.1,3.7-16.2,9.9-22.5c6.1-6,14.1-9.5,22.7-9.5c8.3,0,16.5,3.5,22.7,9.5c6.1,6.4,9.6,14.4,9.6,22.5
					c0,17.9-14.7,32.7-32.4,32.7c-8.6,0-16.6-3.4-22.7-9.4C3771.2,610.6,3767.5,602.3,3767.5,593.7"/>
				<path d="M3819,612.1c-0.6-0.4-1-0.9-1.2-2c0-0.8-0.4-1.8-0.5-3.5l-0.1-5.4c0-2.9-0.6-4.8-1.4-5.9c-0.8-0.8-1.8-1.4-2.8-2
					c1.5-0.2,2.5-1.2,3.4-2.5c1-1.7,1.7-4.1,1.7-6.6c0-5.3-2.2-9.1-6.4-10.9c-2.2-1.1-4.9-1.4-8.1-1.4h-19.8v42.8h7.4v-17.9h11.5
					c2.2,0,3.7,0.3,4.8,0.7c1.4,0.8,2.3,2.3,2.3,4.7l0.4,7c0,1.7,0.2,2.9,0.4,3.5c0.3,0.8,0.3,1.3,0.5,1.4l0.3,0.6h8.6v-2.4
					L3819,612.1 M3810.4,584.5c0,2.4-0.7,4.2-2,5.2c-1.2,0.6-3,1.3-5.6,1.3h-11.8v-12.4h12.6c1.7,0,3,0.3,4,0.7
					C3809.6,580.3,3810.4,582,3810.4,584.5"/>
				<polygon points="1075.1,281.2 0,281.2 0,626.9 63.8,626.9 63.8,344.7 1138.8,344.7 1138.8,0 0,0 0,63.9 1075.1,63.9 				"/>
				<polygon points="3601.6,281.2 2526.3,281.2 2526.3,626.9 2590.1,626.9 2590.1,344.7 3665.3,344.7 3665.3,0 2526.3,0 
					2526.3,63.9 3601.6,63.9 				"/>
				<polygon points="1138.8,626.9 1784.7,626.9 1784.7,63.9 2363.8,63.9 2363.8,0 1718.6,0 1718.6,563.4 1138.8,563.4 				"/>
			</g>
		</g>
	</g>
</g>
</svg>
