<?xml version="1.0" encoding="utf-8"?>
<!-- Generator: Adobe Illustrator 26.0.3, SVG Export Plug-In . SVG Version: 6.00 Build 0)  -->
<svg version="1.1" id="Layer_1" xmlns="http://www.w3.org/2000/svg" xmlns:xlink="http://www.w3.org/1999/xlink" x="0px" y="0px"
	 viewBox="0 0 3839 493.8" style="enable-background:new 0 0 3839 493.8;" xml:space="preserve">
<style type="text/css">
	.st0{fill:url(#SVGID_1_);}
	.st1{fill:url(#SVGID_00000090256898622314626420000006266232830643911856_);}
	.st2{fill:url(#SVGID_00000101073700299405526200000009705729324359129739_);}
	.st3{fill:url(#SVGID_00000119819677975428922690000005109151137848016288_);}
	.st4{fill:url(#SVGID_00000118395811283436988390000016327259292757026454_);}
	.st5{fill:url(#SVGID_00000097488336576878105230000000994559269208103585_);}
	.st6{fill:url(#SVGID_00000027582711091641980180000006183140997513307792_);}
	.st7{fill:url(#SVGID_00000021825322549999073590000011880343770204120760_);}
	.st8{fill:url(#SVGID_00000044170665935677743480000017550480541344417173_);}
	.st9{fill:url(#SVGID_00000092419804958440661050000004519482585798728105_);}
	.st10{fill:url(#SVGID_00000003088090470360014040000002059711663199382913_);}
	.st11{fill:url(#SVGID_00000091719699490864566500000017632986351502988721_);}
	.st12{fill:url(#SVGID_00000068672545182938098410000010323745170900954259_);}
	.st13{fill:url(#SVGID_00000021083699587928013960000015277444071661473211_);}
	.st14{fill:url(#SVGID_00000137104557522360001810000002435597114605515392_);}
	.st15{fill:url(#SVGID_00000067954605986439316180000004397200010726623422_);}
	.st16{fill:url(#SVGID_00000101811175056908411610000001191368707751457713_);}
	.st17{fill:url(#SVGID_00000150065188837287159230000011120308388078293429_);}
	.st18{fill:url(#SVGID_00000178912093727387751320000009674109094162998177_);}
	.st19{fill:url(#SVGID_00000088124657046111196110000005501073348917690240_);}
	.st20{fill:url(#SVGID_00000146482860530440123050000001937674402773878708_);}
	.st21{fill:url(#SVGID_00000090974920070399734780000011796114207697708210_);}
	.st22{fill:url(#SVGID_00000060750351305212588790000016672878681788502927_);}
	.st23{fill:url(#SVGID_00000146480787957982050440000006420457665355877021_);}
	.st24{fill:url(#SVGID_00000034779489821520216320000005643357370968766623_);}
	.st25{fill:url(#SVGID_00000120523657664880919980000001478637457820015010_);}
	.st26{fill:url(#SVGID_00000080201153272866817160000003703241715835834790_);}
	.st27{fill:url(#SVGID_00000157274502953789544120000009781176374362847679_);}
	.st28{fill:url(#SVGID_00000097482394797590668170000003728508296255700609_);}
	.st29{fill:url(#SVGID_00000074430026191707761840000001854326808895373741_);}
	.st30{fill:url(#SVGID_00000097486652701649012630000010486499007001833388_);}
	.st31{fill:url(#SVGID_00000148651642120932553710000016299847668680798617_);}
	.st32{fill:url(#SVGID_00000023999453948135369680000003450571726043914116_);}
	.st33{fill:url(#SVGID_00000034782598072119458870000003064379687266037675_);}
	.st34{fill:url(#SVGID_00000155852687024777678680000001295357919358005382_);}
	.st35{fill:url(#SVGID_00000027563684726424190270000010153837608196216510_);}
	.st36{fill:url(#SVGID_00000128469948831051894570000015064148998674833794_);}
	.st37{fill:url(#SVGID_00000028294484669085248770000000566249101098488500_);}
	.st38{fill:url(#SVGID_00000104680008410064238510000014874335146803492244_);}
	.st39{fill:url(#SVGID_00000103265802925302178160000016247678331421214885_);}
	.st40{fill:url(#SVGID_00000036951996092111527650000017288826451850627739_);}
	.st41{fill:url(#SVGID_00000061429698830992964230000005817995825180613785_);}
	.st42{fill:url(#SVGID_00000012474633425572569590000007963220581611103402_);}
	.st43{fill:url(#SVGID_00000093876806882219358620000002729298098675491995_);}
	.st44{fill:url(#SVGID_00000085209981567285812750000015422724824717747879_);}
	.st45{fill:url(#SVGID_00000145024318862481238000000010833914464535979194_);}
	.st46{fill:url(#SVGID_00000003100831366957904670000016855103711540740260_);}
	.st47{fill:url(#SVGID_00000011020662126696220560000001187710169743282083_);}
	.st48{fill:url(#SVGID_00000132792393455985557010000010120199951235487410_);}
	.st49{fill:url(#SVGID_00000074406340713572038520000008621712317734533055_);}
	.st50{fill:#FFFFFF;}
	.st51{fill:url(#SVGID_00000011737041127559083070000014272369156081903551_);}
	.st52{fill:url(#SVGID_00000175282421276713758740000012189543154565619350_);}
	.st53{fill:url(#SVGID_00000000217940159046654770000012547694020900135857_);}
	.st54{fill:url(#SVGID_00000131338104243707798040000008212193863078429883_);}
	.st55{fill:url(#SVGID_00000147926778240586793660000000008416002452970130_);}
	.st56{fill:url(#SVGID_00000054979857698198053490000010437376927343659692_);}
	.st57{fill:url(#SVGID_00000082360888116056951930000007107161217400232844_);}
	.st58{fill:url(#SVGID_00000133514295125006031470000011628448921633608323_);}
	.st59{fill:url(#SVGID_00000111875787805761161010000013389013152938354620_);}
	.st60{fill:url(#SVGID_00000171687472116057698510000003779100757631511189_);}
	.st61{fill:url(#SVGID_00000039850930931079542270000013928769861864818066_);}
	.st62{fill:url(#SVGID_00000106854257469437848010000017538894163729228951_);}
	.st63{fill:url(#SVGID_00000059990724749089009640000005694647366213535128_);}
	.st64{fill:url(#SVGID_00000052803013703111179460000009048763759548566187_);}
	.st65{fill:url(#SVGID_00000147214733264079904550000005057420238379271062_);}
	.st66{fill:url(#SVGID_00000114059670223380672910000003073097840867076483_);}
	.st67{fill:url(#SVGID_00000003077147857489405260000004746357143440637590_);}
	.st68{fill:url(#SVGID_00000106860134456594650040000009393101021161948580_);}
	.st69{fill:url(#SVGID_00000044860232700532678280000002380768622335470478_);}
	.st70{fill:url(#SVGID_00000149358003953900282400000016100223935065551278_);}
	.st71{fill:url(#SVGID_00000102540865328695275580000018407716222947099574_);}
	.st72{fill:url(#SVGID_00000036244891869027338880000003543303577241468596_);}
	.st73{fill:url(#SVGID_00000065793257776826114910000004652613397408618153_);}
	.st74{fill:url(#SVGID_00000132799349189907847360000001553112053967497377_);}
	.st75{fill:url(#SVGID_00000174579718007229764870000018423584144553865917_);}
	.st76{fill:url(#SVGID_00000170250107469099647090000015118680283907219613_);}
	.st77{fill:url(#SVGID_00000012450023547969063930000009936805377629063585_);}
	.st78{fill:url(#SVGID_00000036967446744671869350000015582128685782438577_);}
	.st79{fill:url(#SVGID_00000078032397748947523540000001772292686350391957_);}
	.st80{fill:url(#SVGID_00000014600237851730088810000010575824939973075332_);}
	.st81{fill:url(#SVGID_00000041268078606251147550000012512637475274755517_);}
	.st82{fill:url(#SVGID_00000016758469601038869720000015154220368853844415_);}
	.st83{fill:url(#SVGID_00000071544058424728540560000011671059717076451219_);}
	.st84{fill:url(#SVGID_00000175316714523800362710000000632264924301760942_);}
	.st85{fill:url(#SVGID_00000090982422756460935620000015701584638202837415_);}
	.st86{fill:url(#SVGID_00000083800009147447879420000017069547048205012625_);}
	.st87{fill:url(#SVGID_00000052811114413530011150000013395105387540585382_);}
	.st88{fill:url(#SVGID_00000154390028774705134720000004278933323738854290_);}
	.st89{fill:url(#SVGID_00000095327681271330863060000003205820776153274534_);}
	.st90{fill:url(#SVGID_00000077282554865916620410000003546812106223278521_);}
	.st91{fill:url(#SVGID_00000041263719144537633450000014693033290157111469_);}
	.st92{fill:url(#SVGID_00000047777469562356695710000002318409620432641972_);}
	.st93{fill:url(#SVGID_00000109000848813762470400000013694226447849987483_);}
	.st94{fill:url(#SVGID_00000024696660187943384890000011723372895163746982_);}
	.st95{fill:url(#SVGID_00000150068089637858814510000011982279825640800954_);}
	.st96{fill:url(#SVGID_00000113342409215696871740000002299871895552028046_);}
	.st97{fill:url(#SVGID_00000030480322680706518780000016867172616384743579_);}
	.st98{fill:url(#SVGID_00000139981224935450441490000017216286282841481099_);}
	.st99{fill:url(#SVGID_00000063612405992175370300000008917950780728626323_);}
	.st100{fill:url(#SVGID_00000078022088077022349270000009964141301985200528_);}
</style>
<g>
	<g>
		
			<linearGradient id="SVGID_1_" gradientUnits="userSpaceOnUse" x1="1249.5261" y1="10975.1748" x2="1249.5261" y2="11357.3604" gradientTransform="matrix(1 0 0 -1 1523.5 11451.8955)">
			<stop  offset="0" style="stop-color:#48407D"/>
			<stop  offset="1" style="stop-color:#6A93C9"/>
		</linearGradient>
		<path class="st0" d="M2773,94.5c-156.4,0-228.7,101.2-228.7,195.8v62.4v124h81.1v-124v-62.4c0-68.4,36.7-131.2,147.6-131.2
			s147.6,62.8,147.6,131.2v62.4v124h81.1v-124v-62.4C3001.6,195.7,2929.4,94.5,2773,94.5z"/>
		
			<linearGradient id="SVGID_00000079455142800902376300000018073949087251355039_" gradientUnits="userSpaceOnUse" x1="293.0515" y1="10975.1748" x2="293.0515" y2="11357.3604" gradientTransform="matrix(1 0 0 -1 1523.5 11451.8955)">
			<stop  offset="0" style="stop-color:#48407D"/>
			<stop  offset="1" style="stop-color:#6A93C9"/>
		</linearGradient>
		<path style="fill:url(#SVGID_00000079455142800902376300000018073949087251355039_);" d="M2004.7,94.5
			c-89.7,0-151.6,33.3-188.2,79.5c-36.6-46.2-98.5-79.5-188.2-79.5c-156.4,0-228.7,101.2-228.7,195.8v62.4v124h81.1v-124v-62.4
			c0-68.4,36.7-131.2,147.6-131.2c110.9,0,147.6,62.8,147.6,131.2v62.4v124h81.1v-124v-62.4c0-68.4,36.7-131.2,147.6-131.2
			c110.9,0,147.6,62.8,147.6,131.2v62.4v124h81.1v-124v-62.4C2233.4,195.7,2161.1,94.5,2004.7,94.5z"/>
		<g>
			<g>
				
					<linearGradient id="SVGID_00000070834167886412931460000009693751636177951380_" gradientUnits="userSpaceOnUse" x1="864.0042" y1="10975.1748" x2="864.0042" y2="11357.3604" gradientTransform="matrix(1 0 0 -1 1523.5 11451.8955)">
					<stop  offset="0" style="stop-color:#48407D"/>
					<stop  offset="1" style="stop-color:#6A93C9"/>
				</linearGradient>
				<path style="fill:url(#SVGID_00000070834167886412931460000009693751636177951380_);" d="M2347,476.7h81.1V227.4H2347V476.7z
					 M2347,94.5v64.6h81.1V94.5H2347z"/>
			</g>
		</g>
		<g>
			<g>
				
					<linearGradient id="SVGID_00000067924007184296877900000015025128749144728739_" gradientUnits="userSpaceOnUse" x1="1632.7228" y1="10975.1748" x2="1632.7228" y2="11357.3604" gradientTransform="matrix(1 0 0 -1 1523.5 11451.8955)">
					<stop  offset="0" style="stop-color:#48407D"/>
					<stop  offset="1" style="stop-color:#6A93C9"/>
				</linearGradient>
				<path style="fill:url(#SVGID_00000067924007184296877900000015025128749144728739_);" d="M3115.7,476.7h81.1V227.4h-81.1V476.7z
					 M3115.7,94.5v64.6h81.1V94.5H3115.7z"/>
			</g>
		</g>
		
			<linearGradient id="SVGID_00000145048584908224855670000005285858603474924939_" gradientUnits="userSpaceOnUse" x1="2048.8801" y1="10974.4668" x2="2048.8801" y2="11451.8955" gradientTransform="matrix(1 0 0 -1 1523.5 11451.8955)">
			<stop  offset="0" style="stop-color:#48407D"/>
			<stop  offset="1" style="stop-color:#6A93C9"/>
		</linearGradient>
		<path style="fill:url(#SVGID_00000145048584908224855670000005285858603474924939_);" d="M3760.5,0
			c-156.4,0-228.7,101.2-228.7,195.8v85.7c0,68.4-36.7,131.2-147.6,131.2h-78.5v64.6h78.5c156.4,0,228.7-101.2,228.7-195.8v-85.7
			c0-68.4,36.7-131.2,147.6-131.2h78.5V0H3760.5z"/>
	</g>
	<g>
		<g>
			<g>
				<g>
					<g>
						<path d="M673.1,476.1c3.5,0,6.8-1.4,9.3-3.9c2.5-2.6,3.9-5.9,3.9-9.2c0-3.6-1.4-6.9-3.9-9.4c-2.5-2.5-5.9-3.9-9.3-3.9
							c-7.1,0-13.1,6-13.1,13.3c0,3.3,1.4,6.6,3.9,9.2C666.4,474.7,669.7,476.1,673.1,476.1 M662.2,463c0-2.9,1.3-5.8,3.4-7.9
							c2.1-2.1,4.8-3.2,7.6-3.2c2.9,0,5.7,1.1,7.8,3.2c2.1,2.2,3.3,5,3.3,7.9c0,5.8-5,10.8-11.1,10.8c-2.7,0-5.5-1.2-7.6-3.2
							C663.4,468.5,662.2,465.8,662.2,463"/>
						<path d="M679.6,468.9c-0.1-0.1-0.3-0.3-0.4-0.6c0-0.3-0.1-0.6-0.1-1.2l-0.1-1.8c0-0.8-0.2-1.4-0.5-1.8
							c-0.2-0.3-0.6-0.5-0.9-0.7c0.5-0.3,0.9-0.7,1.2-1.1c0.4-0.6,0.6-1.4,0.6-2.3c0-1.7-0.8-3-2.2-3.6c-0.8-0.3-1.7-0.6-2.8-0.6
							h-6.7v14.6h2.6v-5.8h3.8c0.7,0,1.4,0.1,1.7,0.2c0.5,0.2,0.7,0.6,0.8,1.4l0.1,2.3c0,0.5,0,0.9,0.1,1.2c0,0.2,0.1,0.4,0.2,0.5
							l0.1,0.2h2.9V469L679.6,468.9 M676.7,459.7c0,0.7-0.3,1.4-0.7,1.7c-0.4,0.2-1.1,0.5-2,0.5h-3.8v-4.2h4.1
							c0.5,0,1.1,0.1,1.4,0.3C676.4,458.2,676.7,458.7,676.7,459.7"/>
						<path d="M215,414.4h27.3c17.6,0,21,11.3,21,19.1c0,7.7-3.4,19-21,18.9h-16.5v23.7H215V414.4z M225.8,443.6h15.9
							c4.8,0,10.7-2.4,10.7-10.3c0-8.2-4.8-10.3-10.5-10.3h-16V443.6z"/>
						<g>
							<rect x="269.6" y="414.4" width="9.9" height="61.7"/>
						</g>
						<path d="M328,466.1c0,2.4,0.5,3.4,2.3,3.4c0.6,0,1.3,0,2.3-0.2v6.9c-1.4,0.5-4.4,1.1-6.1,1.1c-4.1,0-6.9-1.4-7.8-5.5
							c-3.9,3.9-10.1,5.5-15.4,5.5c-8.1,0-15.2-4.3-15.2-12.9c0-11.3,8.8-13.1,17.2-14.1c6.9-1.3,13.2-0.4,13.2-6.2c0-5-5.3-6-9.1-6
							c-5.6,0-9.6,2.3-9.9,6.9h-9.9c0.7-11.4,10.5-14.8,20.4-14.8c8.6,0,18,3.6,18,13.1L328,466.1L328,466.1z M317.9,453.7
							c-3.1,2-7.7,1.9-12,2.6c-4.3,0.7-8.1,2.2-8.1,7.5c0,4.3,5.6,5.5,9.1,5.5c4.2,0,10.9-2.3,10.9-8.3V453.7z"/>
						<path d="M332,431.3h10.7l11.7,33.5h0.2l11.3-33.5h10.2l-17.3,47.2c-3.2,8-5.4,15.2-15.7,15.2c-2.4,0-4.6-0.2-6.9-0.6v-8.1
							c1.6,0.2,3.1,0.6,4.7,0.6c4.6,0,5.8-2.4,7-6.3l1.1-3.5L332,431.3z"/>
						<path d="M389.2,455.6c0,9.5,6.9,13.1,15.6,13.1c9.5,0,12.8-4.4,12.8-9.1c0-4.9-2.3-6.7-5-7.7c-4.3-1.7-9.8-2.8-18.2-5.2
							c-10.7-2.7-13.8-9.1-13.8-15.5c0-12.3,11.6-18.1,22.6-18.1c12.9,0,23.6,6.8,23.6,19.7h-10.7c-0.5-8.1-5.9-10.8-13.2-10.8
							c-5.1,0-11.2,1.6-11.2,7.9c0,4.5,2.9,6.8,7.1,8.1c1,0.2,14.6,3.9,17.8,4.8c8,2.2,12,9.2,12,15.6c0,13.8-12.2,19.4-24.4,19.4
							c-14,0-25.6-6.9-25.8-22L389.2,455.6L389.2,455.6z"/>
						<path d="M432.1,431.3h7.2v-13.3h10v13.3h9v7.5h-9v23.8c0,3.9,0.3,6,4.8,6c1.4,0,2.8,0,4.2-0.3v7.7c-2.2,0.2-4.3,0.5-6.6,0.5
							c-10.3,0-12.3-4-12.5-11.3v-26.3h-7.2L432.1,431.3L432.1,431.3z"/>
						<path d="M503.4,466.1c0,2.4,0.5,3.4,2.4,3.4c0.6,0,1.4,0,2.5-0.2v6.9c-1.5,0.5-4.7,1.1-6.2,1.1c-3.9,0-6.8-1.4-7.5-5.5
							c-3.9,3.9-10.4,5.5-15.4,5.5c-8.1,0-15.5-4.3-15.5-12.9c0-11.3,9-13.1,17.3-14.1c7-1.3,13.4-0.4,13.4-6.2c0-5-5.4-6-9.3-6
							c-5.3,0-9.3,2.3-9.7,6.9h-10c0.7-11.4,10.5-14.8,20.3-14.8c8.8,0,17.8,3.6,17.8,13.1L503.4,466.1L503.4,466.1z M493.7,453.7
							c-3,2-7.9,1.9-12.3,2.6c-4,0.7-7.9,2.2-7.9,7.5c0,4.3,5.7,5.5,8.9,5.5c4.4,0,11.2-2.3,11.2-8.3V453.7z"/>
						<path d="M509.2,431.3h7.5v-13.3h9.8v13.3h9v7.5h-9v23.8c0,3.9,0.3,6,4.7,6c1.6,0,2.9,0,4.3-0.3v7.7c-2.2,0.2-4.3,0.5-6.5,0.5
							c-10.1,0-12.1-4-12.2-11.3v-26.3h-7.5L509.2,431.3L509.2,431.3z"/>
						<path d="M544,414.4h9.8v9.2H544V414.4z M544,431.3h9.8v44.7H544V431.3z"/>
						<path d="M561.3,453.7c0-13.6,8.1-23.6,22.6-23.6c14.2,0,22.6,10,22.6,23.6c0,13.6-8.4,23.5-22.6,23.5
							C569.4,477.2,561.3,467.3,561.3,453.7 M596.4,453.7c0-7.9-3.9-15.7-12.5-15.7c-9,0-12.9,7.9-12.9,15.7
							c0,7.8,3.9,15.7,12.9,15.7C592.5,469.4,596.4,461.5,596.4,453.7"/>
						<path d="M613.7,431.3h9.3v6.7l0.2,0.2c3-5,7.9-8.1,13.9-8.1c9.8,0,15.7,5.3,15.7,15.1V476H643v-28.2c-0.2-6.8-2.9-9.9-8.9-9.9
							c-6.4,0-10.7,5.2-10.7,11.7V476h-9.8L613.7,431.3L613.7,431.3z"/>
						<path d="M693.9,414.4h27.3c17.6,0,21,11.3,21,19.1c0,7.7-3.4,19-21,18.9h-16.3v23.7h-10.9L693.9,414.4L693.9,414.4z
							 M704.8,443.6h15.7c4.9,0,10.9-2.4,10.9-10.3c0-8.2-4.9-10.3-10.8-10.3h-15.9V443.6z"/>
						<path d="M744.8,453.7c0-13.6,8.3-23.6,22.6-23.6c14.3,0,22.6,10,22.6,23.6c0,13.6-8.3,23.5-22.6,23.5
							C753.1,477.2,744.8,467.3,744.8,453.7 M779.9,453.7c0-7.9-3.6-15.7-12.5-15.7c-8.9,0-12.7,7.9-12.7,15.7
							c0,7.8,3.8,15.7,12.7,15.7C776.3,469.4,779.9,461.5,779.9,453.7"/>
						<path d="M797.4,431.3h9.1v8.8h0.2c1.2-4.8,7.1-10,13.2-10c2.1,0,2.7,0.2,3.6,0.3v9.6c-1.5-0.2-2.8-0.4-4.1-0.4
							c-6.8,0-12.3,5.2-12.3,15.2v21.3h-9.7L797.4,431.3L797.4,431.3z"/>
						<path d="M828.5,431.3h7.3v-13.3h9.7v13.3h9v7.5h-9v23.8c0,3.9,0.4,6,4.8,6c1.5,0,2.8,0,4.2-0.3v7.7c-2.2,0.2-4.3,0.5-6.5,0.5
							c-10.1,0-12.1-4-12.2-11.3v-26.3h-7.3V431.3z"/>
						<path d="M899.3,466.1c0,2.4,0.5,3.4,2.3,3.4c0.6,0,1.4,0,2.4-0.2v6.9c-1.5,0.5-4.6,1.1-6.3,1.1c-4.1,0-6.9-1.4-7.7-5.5
							c-4,3.9-10.1,5.5-15.4,5.5c-8.1,0-15.1-4.3-15.1-12.9c0-11.3,8.6-13.1,17.1-14.1c7.1-1.3,13.3-0.4,13.3-6.2c0-5-5.2-6-9.1-6
							c-5.6,0-9.6,2.3-10,6.9h-9.8c0.7-11.4,10.3-14.8,20.3-14.8c8.6,0,17.9,3.6,17.9,13.1L899.3,466.1L899.3,466.1z M889.3,453.7
							c-3,2-7.6,1.9-11.9,2.6c-4.4,0.7-8.2,2.2-8.2,7.5c0,4.3,5.7,5.5,9.1,5.5c4.4,0,10.9-2.3,10.9-8.3L889.3,453.7L889.3,453.7z"/>
						<path d="M909.7,414.4h10v22.8h0.2c2.7-4.4,8.2-7.1,13.3-7.1c14.2,0,20.9,10.8,20.9,23.8c0,12-6,23.3-19.3,23.3
							c-6.1,0-12.4-1.4-15.3-7.3h-0.2v6.2h-9.5L909.7,414.4L909.7,414.4z M931.8,438c-8.2,0-12.4,6.3-12.4,15.9
							c0,9,4.6,15.6,12.4,15.6c9.1,0,12.4-7.8,12.4-15.6C944.3,445.5,940.1,438,931.8,438"/>
						<g>
							<rect x="961.5" y="414.4" width="9.8" height="61.7"/>
						</g>
						<path d="M988.7,456.3c0,7.1,3.7,13.1,12,13.1c5.7,0,9.2-2.5,10.8-7.2h9.3c-2.2,9.6-10.4,15-20.2,15c-14,0-21.9-9.9-21.9-23.4
							c0-12.7,8.4-23.7,21.5-23.7c14,0,22.8,12.9,21.1,26.2L988.7,456.3L988.7,456.3z M1011.7,449.8c-0.4-6.2-4.5-11.8-11.3-11.8
							c-6.8,0-11.4,5.2-11.6,11.8H1011.7z"/>
						<polygon points="364.1,189.8 0,189.8 0,306.9 21.6,306.9 21.6,211.3 385.7,211.3 385.7,94.6 0,94.6 0,116.2 364.1,116.2 
													"/>
						<polygon points="1219.9,189.8 855.7,189.8 855.7,306.9 877.3,306.9 877.3,211.3 1241.4,211.3 1241.4,94.6 855.7,94.6 
							855.7,116.2 1219.9,116.2 						"/>
						<polygon points="385.7,306.9 604.5,306.9 604.5,116.2 800.6,116.2 800.6,94.6 582.1,94.6 582.1,285.4 385.7,285.4 						"/>
					</g>
				</g>
			</g>
		</g>
	</g>
</g>
</svg>
