<svg id="Layer_1" data-name="Layer 1" xmlns="http://www.w3.org/2000/svg" viewBox="0 0 493.89 38.28"><defs><style>.cls-1{fill:#1414a0;}.cls-2{fill:#002b5f;}.cls-3{fill:#eb6e00;}</style></defs><title>logo-nec-oabw_test</title><path class="cls-1" d="M313.86,366.9h11.55c2.65,0,5.76,2.47,7.16,3.83l20.26,22.48V366.9h6.89v35.89H347.66a9.06,9.06,0,0,1-6.7-2.93l-20.24-22.52v25.45h-6.86Z" transform="translate(-313.86 -365.73)"/><path class="cls-1" d="M457.42,403a113.66,113.66,0,0,1-24.95.54,36.86,36.86,0,0,1-14.08-3.74c-5.55-2.87-7.32-9.33-7.24-15.19.06-5.41,1.66-11.17,6.49-14.32,3.16-2.07,6.54-2.76,10.13-3.41,9.8-1.73,19.6-1.34,29.16-.29v5.12c-11.27-2.19-23.17-1.64-27.22,3.53a13.91,13.91,0,0,0-2.88,9.13c0,4.87,1.66,12.24,11.55,13.67,6.44.95,12.82.23,19-.9Z" transform="translate(-313.86 -365.73)"/><path class="cls-1" d="M386.84,397.45c1,0,16.51.08,21.85,0v5.36c-10.75.42-21.06.6-31.92.15-9.19-.38-10.78-5-11-9.46V366.9h42.36V372H380.76v9.14h25v5h-25c0,2.7.09,5.76.12,6.32.15,3.47,1.76,4.76,6,5" transform="translate(-313.86 -365.73)"/><path class="cls-2" d="M505.12,389.48a13.4,13.4,0,0,1-.45-4.6,13.19,13.19,0,0,1,.45-4.58,5.7,5.7,0,0,1,5.87-4c2.9,0,5.06,1.37,5.92,4a13.54,13.54,0,0,1,.44,4.58,13.75,13.75,0,0,1-.44,4.6c-.86,2.64-3,4-5.92,4A5.71,5.71,0,0,1,505.12,389.48Zm9-.77a13.1,13.1,0,0,0,.3-3.83,13,13,0,0,0-.3-3.82,3,3,0,0,0-3.13-2.19,3,3,0,0,0-3.07,2.19,13,13,0,0,0-.3,3.82,13.1,13.1,0,0,0,.3,3.83,3,3,0,0,0,3.07,2.2A3,3,0,0,0,514.12,388.71Z" transform="translate(-313.86 -365.73)"/><path class="cls-2" d="M520.25,393.23A.23.23,0,0,1,520,393V381.66a.24.24,0,0,1,.26-.27h2.24a.25.25,0,0,1,.25.27v1h0a3.38,3.38,0,0,1,3.06-1.52,3.63,3.63,0,0,1,2.49,1,.24.24,0,0,1,0,.36l-1.3,1.63a.22.22,0,0,1-.34,0,3.25,3.25,0,0,0-1.74-.57c-1.54,0-2.23,1.1-2.23,3V393a.24.24,0,0,1-.25.24Z" transform="translate(-313.86 -365.73)"/><path class="cls-2" d="M529,390.24a9.21,9.21,0,0,1-.38-2.93,9,9,0,0,1,.38-2.91,4.76,4.76,0,0,1,4.88-3.27A5.15,5.15,0,0,1,538,383a.22.22,0,0,1,0,.33l-1.53,1.36a.24.24,0,0,1-.36-.05,2.67,2.67,0,0,0-2.18-1,2.18,2.18,0,0,0-2.21,1.54,9.8,9.8,0,0,0,0,4.4,2.17,2.17,0,0,0,2.21,1.52,2.71,2.71,0,0,0,2.18-1c.09-.13.22-.13.36,0l1.53,1.37c.12.09.11.2,0,.33a5.22,5.22,0,0,1-4.1,1.82A4.79,4.79,0,0,1,529,390.24Z" transform="translate(-313.86 -365.73)"/><path class="cls-2" d="M547.82,393.23a.25.25,0,0,1-.26-.24v-6.83c0-1.52-.76-2.58-2.22-2.58s-2.25,1.06-2.25,2.58V393a.24.24,0,0,1-.25.24h-2.26a.22.22,0,0,1-.24-.24v-16.2a.22.22,0,0,1,.24-.24h2.26a.24.24,0,0,1,.25.24v5.73h0a3.65,3.65,0,0,1,3.12-1.39c2.53,0,4.11,1.86,4.11,4.39V393a.25.25,0,0,1-.27.24Z" transform="translate(-313.86 -365.73)"/><path class="cls-2" d="M553,390.21a8.81,8.81,0,0,1-.42-2.9,9.51,9.51,0,0,1,.39-2.91,5.22,5.22,0,0,1,9.68,0A10.23,10.23,0,0,1,563,388a.23.23,0,0,1-.26.24h-7.29c-.11,0-.15.05-.15.16a2.33,2.33,0,0,0,.18.9,2.56,2.56,0,0,0,2.64,1.79,3.6,3.6,0,0,0,2.78-1.12.24.24,0,0,1,.36-.06l1.46,1.28a.23.23,0,0,1,0,.34,6.23,6.23,0,0,1-4.87,2A4.76,4.76,0,0,1,553,390.21Zm7.12-5.23a2.28,2.28,0,0,0-2.3-1.53,2.31,2.31,0,0,0-2.32,1.53,2.79,2.79,0,0,0-.15,1c0,.1,0,.14.15.14h4.62c.1,0,.15,0,.15-.14A3,3,0,0,0,560.07,385Z" transform="translate(-313.86 -365.73)"/><path class="cls-2" d="M564.61,391.62a.25.25,0,0,1,0-.34l1.42-1.47a.25.25,0,0,1,.34,0,5.38,5.38,0,0,0,3.46,1.35c1.44,0,2.18-.59,2.18-1.39s-.43-1.15-2-1.3l-1.29-.12c-2.39-.26-3.63-1.47-3.63-3.49,0-2.28,1.66-3.73,4.6-3.73a7.17,7.17,0,0,1,4.43,1.45.22.22,0,0,1,0,.34L573,384.37a.22.22,0,0,1-.34,0,5.76,5.76,0,0,0-3.1-1c-1.16,0-1.79.51-1.79,1.23s.43,1.1,2,1.25L571,386c2.46.23,3.63,1.52,3.63,3.46,0,2.35-1.72,4-4.95,4A7.28,7.28,0,0,1,564.61,391.62Z" transform="translate(-313.86 -365.73)"/><path class="cls-2" d="M580.38,393.38c-2.36,0-3.28-1.16-3.28-3.46v-6.24c0-.1-.05-.15-.14-.15h-.79a.23.23,0,0,1-.24-.24v-1.63a.25.25,0,0,1,.24-.27H577c.09,0,.14,0,.14-.15V378a.23.23,0,0,1,.25-.25h2.25a.23.23,0,0,1,.25.25v3.22c0,.11,0,.15.15.15h1.59c.14,0,.22.11.22.27v1.63a.21.21,0,0,1-.22.24H580a.13.13,0,0,0-.15.15v6.13c0,.84.34,1.1,1.11,1.1h.63a.22.22,0,0,1,.22.25v2c0,.15-.08.25-.22.25Z" transform="translate(-313.86 -365.73)"/><path class="cls-2" d="M584.54,393.23a.23.23,0,0,1-.24-.24V381.66a.25.25,0,0,1,.24-.27h2.27a.24.24,0,0,1,.23.27v1h0a3.41,3.41,0,0,1,3.06-1.52,3.63,3.63,0,0,1,2.49,1,.25.25,0,0,1,0,.36l-1.29,1.63a.24.24,0,0,1-.35,0,3.31,3.31,0,0,0-1.75-.57c-1.53,0-2.24,1.1-2.24,3V393a.22.22,0,0,1-.23.24Z" transform="translate(-313.86 -365.73)"/><path class="cls-2" d="M600.56,393.23a.23.23,0,0,1-.25-.24v-.87h0A3.91,3.91,0,0,1,597,393.5c-2.15,0-4-1.13-4-3.61s1.82-3.76,4.73-3.76h2.41c.1,0,.14,0,.14-.14v-.56c0-1.35-.63-2-2.63-2a4.2,4.2,0,0,0-2.7.82.21.21,0,0,1-.33,0l-.92-1.62a.24.24,0,0,1,.07-.32,6.91,6.91,0,0,1,4.19-1.15c3.6,0,4.93,1.22,4.93,4.12V393a.23.23,0,0,1-.25.24Zm-.3-4v-.9c0-.11,0-.16-.14-.16h-2c-1.78,0-2.55.49-2.55,1.6s.71,1.48,2,1.48C599.34,391.27,600.26,390.6,600.26,389.25Z" transform="translate(-313.86 -365.73)"/><path class="cls-2" d="M609.3,393.38c-2.37,0-3.29-1.16-3.29-3.46v-6.24c0-.1,0-.15-.14-.15h-.78a.25.25,0,0,1-.26-.24v-1.63a.27.27,0,0,1,.26-.27h.78c.09,0,.14,0,.14-.15V378a.23.23,0,0,1,.24-.25h2.26a.24.24,0,0,1,.26.25v3.22c0,.11,0,.15.14.15h1.58a.24.24,0,0,1,.23.27v1.63a.22.22,0,0,1-.23.24h-1.58c-.11,0-.14.05-.14.15v6.13c0,.84.34,1.1,1.09,1.1h.63a.23.23,0,0,1,.23.25v2a.23.23,0,0,1-.23.25Z" transform="translate(-313.86 -365.73)"/><path class="cls-2" d="M613.46,379.17a.24.24,0,0,1-.25-.26v-2.12a.23.23,0,0,1,.25-.24h2.25a.23.23,0,0,1,.25.24v2.12a.24.24,0,0,1-.25.26Zm0,14.06a.23.23,0,0,1-.25-.24V381.66a.25.25,0,0,1,.25-.27h2.25a.24.24,0,0,1,.25.27V393a.23.23,0,0,1-.25.24Z" transform="translate(-313.86 -365.73)"/><path class="cls-2" d="M626.52,393.23a.23.23,0,0,1-.25-.24v-6.83c0-1.52-.76-2.58-2.23-2.58a2.29,2.29,0,0,0-2.27,2.58V393a.22.22,0,0,1-.23.24h-2.26A.25.25,0,0,1,619,393V381.66a.26.26,0,0,1,.25-.27h2.26a.24.24,0,0,1,.23.27v.86h0a3.64,3.64,0,0,1,3.12-1.39c2.51,0,4.09,1.86,4.09,4.39V393a.23.23,0,0,1-.24.24Z" transform="translate(-313.86 -365.73)"/><path class="cls-2" d="M631.62,396.15a.22.22,0,0,1,0-.34l1.43-1.46a.25.25,0,0,1,.38,0,3.6,3.6,0,0,0,2.57,1.11c1.82,0,2.65-1,2.65-2.82v-1.11h0a3.39,3.39,0,0,1-3.07,1.38,3.93,3.93,0,0,1-4-2.88,11.73,11.73,0,0,1,0-6,3.91,3.91,0,0,1,4-2.9,3.35,3.35,0,0,1,3.07,1.4h0v-.87a.24.24,0,0,1,.24-.27h2.26a.24.24,0,0,1,.25.27v10.82c0,3.39-1.9,5.43-5.54,5.43A5.88,5.88,0,0,1,631.62,396.15Zm6.8-7.19a5.67,5.67,0,0,0,.27-1.94,5.86,5.86,0,0,0-.27-1.94,2,2,0,0,0-2.13-1.5,2,2,0,0,0-2.07,1.5,5.6,5.6,0,0,0-.28,1.94,5.41,5.41,0,0,0,.28,1.94,2,2,0,0,0,2.07,1.52A2,2,0,0,0,638.42,389Z" transform="translate(-313.86 -365.73)"/><path class="cls-3" d="M654.4,381.15a5.85,5.85,0,0,0-3.84,1.16.49.49,0,0,0-.13.69l.43.62a.53.53,0,0,0,.75.05,4,4,0,0,1,2.71-.79c2.32,0,2.71.75,2.71,2.34v1h-2.78c-3.84,0-4.64,2-4.64,3.62,0,2.25,1.54,3.61,4.14,3.61a4.74,4.74,0,0,0,3.32-1.12v.36a.5.5,0,0,0,.51.52h.78a.5.5,0,0,0,.51-.52v-7.54C658.87,382.28,657.61,381.15,654.4,381.15Zm2.63,6.72v1.61c0,1.36-1.19,2.26-3,2.26-1.16,0-2.56-.34-2.56-1.91,0-1,.34-2,3-2Z" transform="translate(-313.86 -365.73)"/><path class="cls-3" d="M673.12,381.15a4.15,4.15,0,0,0-3.26,1.25v-5.35a.49.49,0,0,0-.51-.5h-.83a.49.49,0,0,0-.51.5v15.66a.5.5,0,0,0,.51.52h.83a.5.5,0,0,0,.51-.52v-.5a4.09,4.09,0,0,0,3.26,1.26,4,4,0,0,0,4.16-2.9,10.32,10.32,0,0,0,.43-3.25,10.48,10.48,0,0,0-.43-3.28A4,4,0,0,0,673.12,381.15Zm-.28,1.79a2.53,2.53,0,0,1,2.68,1.79,8.55,8.55,0,0,1,.3,2.59,8.45,8.45,0,0,1-.3,2.57,2.54,2.54,0,0,1-2.68,1.79,2.57,2.57,0,0,1-2.69-1.79,8.2,8.2,0,0,1-.29-2.57,8,8,0,0,1,.3-2.59A2.55,2.55,0,0,1,672.84,382.94Z" transform="translate(-313.86 -365.73)"/><path class="cls-3" d="M687.61,382a3.89,3.89,0,0,0-2.48-.84,3.51,3.51,0,0,0-2.83,1.21v-.45a.51.51,0,0,0-.53-.52H681a.51.51,0,0,0-.53.52v10.8a.51.51,0,0,0,.53.52h.81a.51.51,0,0,0,.53-.52v-6.24c0-1.32.33-3.53,2.51-3.53a3.07,3.07,0,0,1,1.71.53.76.76,0,0,0,.32.08.55.55,0,0,0,.4-.21l.47-.65a.46.46,0,0,0,.12-.39A.5.5,0,0,0,687.61,382Z" transform="translate(-313.86 -365.73)"/><path class="cls-3" d="M691.08,376.55H690a.49.49,0,0,0-.51.5v1.33a.5.5,0,0,0,.51.51h1.08a.5.5,0,0,0,.51-.51v-1.33A.49.49,0,0,0,691.08,376.55Z" transform="translate(-313.86 -365.73)"/><path class="cls-3" d="M690.94,381.39h-.81a.52.52,0,0,0-.53.52v10.8a.52.52,0,0,0,.53.52h.81a.5.5,0,0,0,.52-.52v-10.8A.5.5,0,0,0,690.94,381.39Z" transform="translate(-313.86 -365.73)"/><path class="cls-3" d="M703.27,381.39h-.82a.5.5,0,0,0-.51.52v.46a4,4,0,0,0-3.15-1.22,4.06,4.06,0,0,0-4.11,2.92,12.68,12.68,0,0,0,0,6.32,4,4,0,0,0,4.11,2.89,3.94,3.94,0,0,0,3.15-1.22v.73c0,2.16-1,3.16-3,3.16a3.35,3.35,0,0,1-2.63-1.12.51.51,0,0,0-.74-.07l-.59.51a.5.5,0,0,0-.12.7,4.58,4.58,0,0,0,3.84,1.74c3.16,0,5.09-1.76,5.09-5V381.91A.5.5,0,0,0,703.27,381.39ZM699,391.51a2.47,2.47,0,0,1-2.56-1.8,7.39,7.39,0,0,1-.32-2.48,7.83,7.83,0,0,1,.32-2.52,2.77,2.77,0,0,1,5.18,0,11.26,11.26,0,0,1,0,5A2.52,2.52,0,0,1,699,391.51Z" transform="translate(-313.86 -365.73)"/><path class="cls-3" d="M712.42,381.15a4.14,4.14,0,0,0-3.15,1.25v-5.35a.49.49,0,0,0-.52-.5h-.84a.5.5,0,0,0-.52.5v15.66a.51.51,0,0,0,.52.52h.84a.51.51,0,0,0,.52-.52V385.8a2.69,2.69,0,0,1,2.84-2.86c1.85,0,2.75,1,2.75,3.1v6.67a.51.51,0,0,0,.52.52h.82a.5.5,0,0,0,.52-.52v-7C716.72,382.83,715.15,381.15,712.42,381.15Z" transform="translate(-313.86 -365.73)"/><path class="cls-3" d="M724.29,381.39h-2v-3.11a.5.5,0,0,0-.51-.51h-.83a.51.51,0,0,0-.52.51v3.11h-1.08a.51.51,0,0,0-.52.52v.66a.5.5,0,0,0,.52.5h1.08V390c0,2.36,1,3.32,3.28,3.32h.61a.51.51,0,0,0,.54-.5V392a.52.52,0,0,0-.54-.52h-.45c-1.18,0-1.58-.23-1.58-1.61v-6.83h2a.51.51,0,0,0,.54-.5v-.66A.52.52,0,0,0,724.29,381.39Z" transform="translate(-313.86 -365.73)"/><path class="cls-3" d="M731.66,381.15a4.51,4.51,0,0,0-4.55,3.12,10.08,10.08,0,0,0-.36,3,9.84,9.84,0,0,0,.36,3,4.53,4.53,0,0,0,4.69,3.18,5.45,5.45,0,0,0,4.41-2,.47.47,0,0,0-.05-.7l-.57-.51a.51.51,0,0,0-.73.08,3.63,3.63,0,0,1-3,1.34,2.9,2.9,0,0,1-3-2,5.75,5.75,0,0,1-.23-1.8H736a.5.5,0,0,0,.55-.5,9.24,9.24,0,0,0-.34-3.1A4.52,4.52,0,0,0,731.66,381.15Zm0,1.73a2.73,2.73,0,0,1,2.82,1.94,5.22,5.22,0,0,1,.2,1.42h-6a5.61,5.61,0,0,1,.21-1.42A2.72,2.72,0,0,1,731.66,382.88Z" transform="translate(-313.86 -365.73)"/><path class="cls-3" d="M746.55,382a3.88,3.88,0,0,0-2.47-.84,3.56,3.56,0,0,0-2.85,1.21v-.45a.51.51,0,0,0-.52-.52h-.83a.5.5,0,0,0-.5.52v10.8a.5.5,0,0,0,.5.52h.83a.51.51,0,0,0,.52-.52v-6.24c0-1.32.33-3.53,2.51-3.53a3,3,0,0,1,1.72.53.71.71,0,0,0,.31.08.53.53,0,0,0,.41-.21l.48-.65a.44.44,0,0,0,.1-.39A.42.42,0,0,0,746.55,382Z" transform="translate(-313.86 -365.73)"/><path class="cls-3" d="M769,381.39h-.89a.6.6,0,0,0-.57.42L765,390.06l-2.78-8.25a.58.58,0,0,0-.55-.42h-.72a.58.58,0,0,0-.55.42l-2.72,8.25-2.72-8.27a.57.57,0,0,0-.57-.4h-.86a.39.39,0,0,0-.38.18.37.37,0,0,0-.05.41l3.58,10.81a.56.56,0,0,0,.55.44h.74a.55.55,0,0,0,.55-.43l2.8-8.27,2.72,8.26a.6.6,0,0,0,.58.44h.73a.54.54,0,0,0,.55-.43l3.6-10.81a.44.44,0,0,0,0-.42A.41.41,0,0,0,769,381.39Z" transform="translate(-313.86 -365.73)"/><path class="cls-3" d="M775.88,381.15a4.52,4.52,0,0,0-4.56,3.12,11.71,11.71,0,0,0,0,6.07,4.91,4.91,0,0,0,9.15,0,11.68,11.68,0,0,0,0-6.06A4.52,4.52,0,0,0,775.88,381.15Zm0,10.53a2.76,2.76,0,0,1-2.78-1.91,7.81,7.81,0,0,1-.31-2.47,7.72,7.72,0,0,1,.31-2.45,3,3,0,0,1,5.59,0,7.52,7.52,0,0,1,.29,2.45,7.62,7.62,0,0,1-.29,2.47A2.75,2.75,0,0,1,775.88,391.68Z" transform="translate(-313.86 -365.73)"/><path class="cls-3" d="M790.78,382a3.94,3.94,0,0,0-2.49-.84,3.55,3.55,0,0,0-2.83,1.21v-.45a.5.5,0,0,0-.52-.52h-.82a.52.52,0,0,0-.52.52v10.8a.52.52,0,0,0,.52.52h.82a.5.5,0,0,0,.52-.52v-6.24c0-1.32.33-3.53,2.52-3.53a3.07,3.07,0,0,1,1.71.53.75.75,0,0,0,.3.08.53.53,0,0,0,.41-.21l.47-.65a.49.49,0,0,0,.12-.39A.42.42,0,0,0,790.78,382Z" transform="translate(-313.86 -365.73)"/><path class="cls-3" d="M796,391.51h-.42c-.66,0-.95-.16-.95-1.18V377.05a.51.51,0,0,0-.53-.5h-.82a.49.49,0,0,0-.51.5v13.33c0,2,.8,2.91,2.66,2.91H796a.51.51,0,0,0,.52-.5V392A.52.52,0,0,0,796,391.51Z" transform="translate(-313.86 -365.73)"/><path class="cls-3" d="M807.24,376.55h-.82a.49.49,0,0,0-.52.5v5.35a4.14,4.14,0,0,0-3.25-1.25,4,4,0,0,0-4.18,2.89,9.6,9.6,0,0,0-.42,3.28,9.45,9.45,0,0,0,.42,3.25,4,4,0,0,0,4.18,2.9,4.08,4.08,0,0,0,3.25-1.26v.5a.5.5,0,0,0,.52.52h.82a.49.49,0,0,0,.51-.52V377.05A.48.48,0,0,0,807.24,376.55Zm-4.33,15.13a2.56,2.56,0,0,1-2.67-1.79,8.34,8.34,0,0,1-.32-2.57,8.44,8.44,0,0,1,.32-2.59,2.89,2.89,0,0,1,5.35,0,7.64,7.64,0,0,1,.31,2.59,7.54,7.54,0,0,1-.31,2.57A2.54,2.54,0,0,1,802.91,391.68Z" transform="translate(-313.86 -365.73)"/><path class="cls-3" d="M501.46,395.66a1.26,1.26,0,0,0,.66-1.65l-11.65-25.07h0v0a.55.55,0,0,0-.7-.26.56.56,0,0,0-.28.69h0v0L499.8,395a1.24,1.24,0,0,0,1.64.65Z" transform="translate(-313.86 -365.73)"/></svg>