<?xml version="1.0" encoding="UTF-8" standalone="no"?>
<!DOCTYPE svg PUBLIC "-//W3C//DTD SVG 1.1//EN" "http://www.w3.org/Graphics/SVG/1.1/DTD/svg11.dtd">
<svg width="42px" height="38px" version="1.1" xmlns="http://www.w3.org/2000/svg" xmlns:xlink="http://www.w3.org/1999/xlink" xml:space="preserve" style="fill-rule:evenodd;clip-rule:evenodd;stroke-linejoin:round;stroke-miterlimit:1.41421;">
    <path d="M37.106,0.184l0,5.132l4.765,0l0,16.853l-4.765,0l0,5.499l-5.04,0l0,5.131l-5.132,0l0,5.041l-11.447,0l0,-5.041l-4.948,0l0,-5.34l-5.404,0.033l-0.003,-0.003l0,-5.045l-5.132,0l0,-17.22l5.031,0l-0.091,-5.215l0.009,-0.009l11.355,0l0,5.407l4.132,0l0,-5.223l16.67,0Zm-31.057,6.031l-0.009,0.009l-5.04,0l0,15.22l5.132,0l0,5.042l5.404,-0.033l0.003,0.003l0,5.343l4.948,0l0,5.041l9.447,0l0,-5.041l5.132,0l0,-5.131l5.04,0l0,-5.499l4.765,0l0,-14.853l-4.765,0l0,-5.132l-14.67,0l0,5.223l-6.132,0l0,-5.407l-9.346,0l0.091,5.215Z" style="fill:#f4f4f4;fill-rule:nonzero;"/>
</svg>
