<?xml version="1.0" encoding="utf-8"?>
<!-- Generator: Adobe Illustrator 25.1.0, SVG Export Plug-In . SVG Version: 6.00 Build 0)  -->
<svg version="1.1" id="Layer_1" xmlns="http://www.w3.org/2000/svg" xmlns:xlink="http://www.w3.org/1999/xlink" x="0px" y="0px"
	 viewBox="0 0 3840 1171.2" style="enable-background:new 0 0 3840 1171.2;" xml:space="preserve">
<style type="text/css">
	.st0{fill:#FFFFFF;}
	.st1{fill:url(#SVGID_1_);}
	.st2{fill:#888888;}
	.st3{fill:#FF0000;}
	.st4{fill:#0000A0;}
	.st5{fill:url(#SVGID_2_);}
	.st6{opacity:0.5;fill:#FFFFFF;}
	.st7{opacity:0.7;fill:#FFFFFF;}
	.st8{opacity:0.5;}
	.st9{opacity:0.7;}
	.st10{fill:url(#SVGID_3_);}
</style>
<rect class="st0" width="3840" height="1171.2"/>
<g>
	<path d="M1533.5,565v1.9c85.5,1.6,148.7,18.6,189.4,51c40.8,32.4,61.2,71.6,61.2,117.6c0,51.3-23.2,93.7-69.6,127
		c-46.3,33.4-108.1,50.1-185.1,50.1c-66.6,0-117.9-13.3-154.3-39.9c-36.4-26.6-54.6-56.8-54.6-90.8c0-22.6,8.2-40.9,24.5-54.7
		c16.3-13.8,35.9-20.7,58.7-20.7c21.4,0,39.8,6.1,55,18.1c15.3,12.2,22.9,28.2,22.9,47.9c0,26.5-17.7,48.6-53.2,66.5
		c-6.9,3.5-10.5,7.5-10.5,11.8c0,8.2,9.9,15.3,29.9,21.5c19.9,6.2,40.2,9.2,61.1,9.2c68.3,0,102.5-50.2,102.5-150.7
		c0-99.5-41.1-149.2-123.1-149.2l-68.1,2.8c-13.7,0-20.7-5-20.7-15.2c0-11.6,7.2-17.5,21.7-17.5l49.6,1.9
		c50.6,0,84.5-11.2,101.8-33.8c17.3-22.5,25.8-54.5,25.8-96.1c0-42.8-6.5-74.3-19.5-94.4c-13-20.2-35.4-30.2-67-30.2
		c-17.2,0-33.4,2.9-48.5,8.7c-15.1,5.8-22.8,11.5-22.8,17.1c0,5.2,5,10.7,14.9,16.4c26,16.6,39.2,34.6,39.2,54
		c0,19.1-7.2,34.2-21.9,45.5c-14.6,11.2-31,16.9-49.3,16.9c-21.1,0-39.9-6.5-56.4-19.3c-16.5-12.9-24.9-28.8-24.9-48.1
		c0-32.6,18.4-60.9,55.2-84.6c36.8-23.9,83.9-35.8,141.6-35.8c63.7,0,117.5,13.5,161.2,40.5c43.9,27,65.8,61.4,65.8,103.7
		C1765.9,497.4,1688.4,547.7,1533.5,565z"/>
	<path d="M2305.6,298.2V870h56c85.6,0,137.3-22.5,155.1-67.3c17.8-44.9,26.7-121.7,26.7-230.4c0-85-5.5-146.2-16.4-183.3
		c-10.8-37.2-27.4-61.6-49.6-73.3c-22.2-11.6-50.4-17.5-84.5-17.5L2305.6,298.2L2305.6,298.2L2305.6,298.2z M2132.6,870V298.2h-89.7
		v-31h359.4c103.9,0,186.3,29.4,246.9,88.4c60.6,58.9,90.9,133.3,90.9,223.1c0,46.5-9.2,90.4-27.7,131.3
		c-18.5,41-46.9,78.3-85.3,111.8c-38.4,33.5-77.8,55.1-118.2,64.8c-40.4,9.6-89.9,14.5-148.8,14.5h-317.1v-31L2132.6,870L2132.6,870
		z"/>
	<path d="M3432.2,584.4c0-97-2-161-6-191.8c-4.1-31-14.4-55.8-31.1-74.7c-16.7-18.9-44.2-28.3-82.6-28.3c-32.3,0-58.1,7.7-77.3,22.9
		c-19.2,15.3-31.1,39.8-35.9,73.5c-4.7,33.7-7.1,99.6-7.1,197.5c0,97,2,161.2,6.1,192.5c4,31.3,14.7,56.3,32.2,74.9
		c17.4,18.6,44.7,27.8,82.1,27.8c30.9,0,56.2-7.4,75.7-22.4c19.5-15,31.7-39.3,36.6-73C3429.9,749.6,3432.2,683.2,3432.2,584.4z
		 M2995.6,581.7c0-94.8,31.2-172.4,93.9-232.7c62.5-60.2,137.6-90.4,225.1-90.4c81.3,0,154,28.3,218.1,85
		C3597,400.3,3629,481,3629,585.5c0,98-30.2,176.5-90.9,235.6c-60.7,59-134.8,88.6-222.3,88.6c-94.6,0-171.7-31.5-231-94.1
		C3025.4,753,2995.6,675,2995.6,581.7z"/>
</g>
<g>
	<rect x="61.8" y="61.8" width="1047.7" height="1047.7"/>
	<g>
		<path class="st0" d="M460.1,790.3c0-69.5,56.2-125.8,125.5-125.8c69.3,0,125.5,56.3,125.5,125.8c0,69.5-56.2,125.8-125.5,125.8
			C516.3,916.1,460.1,859.8,460.1,790.3z"/>
		<g>
			<path class="st0" d="M438,1034.5c0-14.3,66.1-25.9,147.6-25.9s147.6,11.6,147.6,25.9c0,14.3-66.1,25.9-147.6,25.9
				S438,1048.8,438,1034.5z"/>
			<polygon class="st0" points="585.6,139.7 732.6,287.1 585.6,434.4 438.6,287.1 			"/>
			<path class="st0" d="M722.3,543.1c0-35.4-0.7-70-10.8-82.6c-11.7-14.7-67.9-19.3-125.2-19.3h-1.4c-57.4,0-113.5,4.5-125.2,19.3
				c-10,12.6-10.8,47.2-10.8,82.6v9.7c0,35.4,0.7,70,10.8,82.6c11.7,14.7,67.9,19.3,125.2,19.3h1.4c57.4,0,113.5-4.5,125.2-19.3
				c10-12.6,10.8-47.2,10.8-82.6V543.1z"/>
		</g>
	</g>
</g>
</svg>
