<?xml version="1.0" encoding="utf-8"?>
<!-- Generator: Adobe Illustrator 25.4.1, SVG Export Plug-In . SVG Version: 6.00 Build 0)  -->
<svg version="1.1" id="Layer_1" xmlns="http://www.w3.org/2000/svg" xmlns:xlink="http://www.w3.org/1999/xlink" x="0px" y="0px"
	 viewBox="0 0 3839 2068.7" style="enable-background:new 0 0 3839 2068.7;" xml:space="preserve">
<style type="text/css">
	.st0{fill:#FFFFFF;}
	.st1{fill-rule:evenodd;clip-rule:evenodd;fill:#FFFFFF;}
	.st2{fill:url(#SVGID_1_);}
	.st3{fill:url(#SVGID_00000000909992286409344430000016056062933287305891_);}
	.st4{fill:url(#SVGID_00000003790432686126109730000017746205556076682654_);}
	.st5{fill:url(#SVGID_00000122685962739099587510000002095930679691306121_);}
	.st6{fill:url(#SVGID_00000098198934262363251720000018254151663200931754_);}
	.st7{fill:url(#SVGID_00000104687751413458009860000012640894005942820257_);}
	.st8{fill:url(#SVGID_00000175295910494754103210000012138941909126208684_);}
	.st9{fill:url(#SVGID_00000172408996989307732610000017420569685710026175_);}
	.st10{fill:url(#SVGID_00000176021664446995133440000013497299772671401626_);}
	.st11{fill:#010101;}
	.st12{fill:url(#SVGID_00000007403078965394859420000011037576249350205339_);}
	.st13{fill-rule:evenodd;clip-rule:evenodd;}
	.st14{fill:none;stroke:#000000;stroke-width:11.9998;stroke-linecap:round;stroke-linejoin:round;stroke-miterlimit:10;}
	.st15{stroke:#000000;stroke-width:11.9998;stroke-linecap:round;stroke-linejoin:round;stroke-miterlimit:10;}
	.st16{fill:#FFFFFF;stroke:#000000;stroke-width:11.9998;stroke-linecap:round;stroke-linejoin:round;stroke-miterlimit:10;}
	.st17{fill:url(#SVGID_00000136411556414733163790000006902982429272134536_);}
</style>
<g>
	<g>
		<path class="st0" d="M1499.3,671.2c20.1,5.2,17.8,37.2,42.4,26.8c6.7-1.5,14.9,6.7,8.9,14.9c-3.7,2.2-8.2,4.5-12.7,6.7
			c3.7,7.4,11.9,17.1,3.7,25.3c-22.3,11.9-48.3,12.7-72.9,19.3c-88.5,33.5-184.4,101.2-221.6,194.8
			c-18.6,62.5-21.6,142.8,16.4,197.8c31.2,32,67.7,66.2,112.3,73.6c39.4,8.9,73.6-5.9,101.9-30.5c0-8.9-17.8-13.4-7.4-21.6
			c-20.8-25.3,2.2-52.8-3.7-80.3c7.4-29,10.4-52.8,21.6-80.3c-16.4-1.5-32,9.7-49.8,10.4c7.4-3.7,0-13.4-5.2-6.7
			c-33.5,15.6-69.2,25.3-100.4,46.1c-4.5-0.7-12.7-4.4-6.7-10.4c32.8-9.6,20.1-53.5,57.3-55.8c5.2-22.3,32-25.3,51.3-29.7
			c-5.2-22.3,20.1-8.2,29-14.9c26-13.4,55.8-20.1,78.1-44.6c10.4-5.2,20.1-3,23.1,8.9c0.8,4.4-0.8,8.9,3.7,11.2
			c11.9-1.5,20.8-20.1,32-11.2c-0.8,115.3-68.4,217.9-40.9,336.1c-1.5,11.1,2.2,24.5,3.7,37.2c-2.3,3.7-6,3.7-8.9,5.2
			c-3.7-3,0-8.9-3.7-12.7c-25.3,13.4-12.7-26.8-33.5-23.1c-10.4-10.4-15.6-26-32.7-24.5c-20.8,22.3-35,55-67.7,60.2
			c-43.9,11.9-95.2,4.5-135.4-19.3c-58.8-23.1-100.4-77.3-125-132.4c-25.3-101.9-20.1-221.6,37.2-307.1c10.4-34.2,43.9-54.3,58.7-87
			c29.7-16.4,42.4-56.5,73.6-73.6c5.2,0.8,12.7,0,12.7-6.7c37.9-21.6,80.3-31.2,124.9-37.9C1472.6,659.3,1510.5,639.9,1499.3,671.2"
			/>
		<path class="st0" d="M2380.6,778.3c-38.7,48.3-81.1,95.2-104.9,150.2h5.2c6.7-10.4,32-3.7,35.7-23.1c18.6-5.9,35-28.3,57.3-14.1
			c-7.4-15.6,14.1-20.1,1.5-30.5c-1.5-8.2,0.8-20.1,10.4-23.1c-2.2-19.3,11.9-35.7,11.2-55.8c-0.8,3-5.9,9.6-11.2,8.9
			C2382.1,787.9,2379.9,784.2,2380.6,778.3 M1865.2,596.8c-11.9,19.3,26,29,5.2,47.6c11.9,8.2,24.5,3.7,32,20.1
			c-12.7,36.4-38.7,67.7-53.5,103.4c-24.5,16.4-13.4,47.6-28.3,67.7c-26,37.2-50.6,75.1-61,118.2c-49.1,64.7-72.9,140.5-94.5,217.2
			c-3.7,11.1-3,26.8,8.9,32.7c33.5,4.4,56.5-35,81.8-48.3c9.7-15.6,30.5-20.1,37.9-37.9c36.4-33.5,92.2-69.2,95.9-121.2
			c16.4-14.1,1.5-40.9,21.6-53.5c0-19.3,0-43.9,17.9-51.3c-4.5-14.1-8.2-29.7,3.7-41.6c-2.2-5.2,3.7-8.2,1.5-14.1
			c5.2,3,11.2-4.4,16.4-6.7c19.3-13.4-16.4-23.1,3.7-35.7c12.6-16.4,16.3-41.6,33.5-50.6c-5.9-10.4,11.9-15.6,11.2-26.8
			c14.9-20.8,22.3-46.9,44.6-64c8.9,8.2,26-1.5,32,14.1c14.9-7.4,27.5-8.2,42.4,0c5.2,8.9,13.4,18.6,8.9,29
			c-2.2,5.2-8.2,8.9-6.7,15.6c9.7,5.2,23.8,8.9,23.1,23.1v11.2c-75.1,133.9-133.1,274.4-182.2,419.5c-0.8,13.4-6.7,27.5-1.5,40.9
			c3.7,8.9,12.6,20.1,23,21.6c3,3,6.7,8.2,10.4,3.7c22.3-43.9,62.5-75.9,84-119.7c-14.9,2.2-32,9.7-48.4,14.1
			c-2.2-11.9,14.1-18.6,14.9-31.9c3-10.4-15.6-8.9-5.9-17.9c15.6-8.9,37.2-12.6,44.6-29c14.9-11.9,37.9-10.4,44.6-32
			c37.9-8.2,35-49.1,59.5-71.4c3.7-23.1,28.3-35.7,37.2-55.1c3,2.3,6.7,1.5,8.9-2.2c-6-27.5,42.4-26.8,37.2-58.8
			c21.6-6.7,18.6-29.7,35.7-40.9c12.7-17.1,25.3-35.7,44.7-48.4c-2.3-4.4,4.4-5.2,3.7-8.9c25.3-25.3,67.7-40.9,64.7-80.3
			c0.8-10.4,1.5-26.8,14.1-33.5c12.6,0,24.5,5.9,33.5,10.4c0.8,5.9-2.2,17.1,7.4,16.4c26,6.7,43.9,0,67.7,11.9c3.7,3,0,8.2,3.7,11.2
			c-50.6,208.2-39.4,449.2-71.4,665.6c4.5,30.5-7.4,63.2-3.7,90.7c-5.2,3.7-4.5,12.6-10.4,8.9c1.5-4.5-3-7.4-5.2-10.4
			c0-10.4,3-26.8-6-35.7c-1.5,3-5.2,3.7-8.9,3.7c-5.2-3.7-3-10.4-8.9-14.1c17.1-5.2,12.7-23.8,11.2-35.7
			c-11.2-0.8-8.9-13.4-14.1-20.1c3-4.5,17.8-3.7,11.9-15.6c-3.7-9.7-7.4,4.4-14.1,0c-3.7-8.2-8.2-17.1-5.2-25.3
			c-10.4-14.9,1.5-40.2-12.6-52.1c0-8.9,8.2-20.1,0-28.3c-8.9,4.5-4.5,20.8-10.4,25.3c-3-30.5-18.6-65.5,0-93
			c-3-14.9-16.4-31.2-8.9-49.8c-3-32.7,6.7-69.9,3.7-101.9c-17.9-3-32,13.4-50.6,14.1c-4.5,10.4-17.8,9.7-26.8,14.1
			c-26,5.9-37.9,35.7-65.4,37.9c-4.5,4.5-11.1,4.5-16.4,6.7c0-1.5,0.7-4.5-1.5-5.2c-6.7,8.9-26,1.5-20.1,17.9
			c-8.9,0-14.9,9.7-19.3,16.3c-35.7,67-69.1,134.6-110.8,199.3c-6.7,18.6-21.6,34.2-26.8,53.5c-3,3.7-9.7,1.5-10.4-1.5
			c-6.7-8.9-14.9,5.9-16.4,10.4c-17.1,34.2-35,71.4-62.5,98.2c-3,1.5-5.2-1.5-7.4-3c0.8-8.2,6-15.6,6-21.6
			c-13.4,11.2-21.6,24.6-30.5,37.2c-17.1,4.4-4.5-14.9-11.2-21.6c-16.4,16.4-21.6,48.4-49.8,48.4c-1.5-8.2,2.2-18.6,3.7-28.3
			c-6-5.9-12.7,7.4-17.9-2.2c3.7-14.9,21.6-27.5,25.3-44.6c15.6-5.9,11.2-29,26.8-37.2c-3-13.4,10.4-15.6,10.4-26.8
			c15.6-14.9,14.9-37.2,32-52.1c-36.5,5.2-93.7,43.1-119.7-6.7c5.2-10.4,0.8-23.1-8.9-29c5.2-31.2-1.5-53.5,11.2-81.8
			c-1.5-14.9,17.1-20.8,8.9-34.2c-37.9,41.6-80.3,84-123.5,122c-32,15.6-68.4,21.6-101.9,3c-12.6-7.4-11.9-20.8-20.8-29.8
			c-13.4-59.5-11.1-120.5,14.1-173.3c14.1-29.7,7.4-68.4,28.3-94.4c9.7-61,42.4-112.3,64.7-168.1c13.4-32,23.1-66.2,46.1-94.5
			c11.2-35,24.6-73.6,57.3-94.4c5.2-3,11.2-11.9,17.8-5.9c13.4,3.7,16.4-21.6,32-11.9C1860.8,590.1,1863.7,593.1,1865.2,596.8"/>
		<path class="st0" d="M1099.2,509.1c-3,5.9-11.1,5.9-16.4,10.4c-48.3,7.4-98.9,10.4-145.8,21.6c-7.4,19.3,13.4,18.6,24.5,17.8
			c3.7,5.2,10.4-1.5,11.2,0c0,22.3-35.7,13.4-29,39.4c-18.6,17.1-46.9,10.4-66.2,26.8c1.5,1.5,3,2.2,3.7,3.7
			c-32,12.7-65.4,28.3-99.7,32c5.2,12.6-14.1,23.1-20.1,30.5c-21.5-1.5-37.2,9.7-55,17.8C685,843,638.9,967.2,601,1094.3
			c-40.1,75.9-61.7,159.2-126.4,225.4c-66.2,87-160.6,188.2-281.9,151.7c-71.4-29.7-162.9-55.8-192.6-139.8
			c-0.8-7.4,5.9-10.4,11.9-11.9c5.2-2.2,3.7,3,5.9,5.2c8.9,5.2,19.3,8.9,20.8,21.6c45.4,26.8,84,69.2,142.8,62.4
			c110.8-11.9,181.5-125.7,234.3-211.2c72.1-145,110.8-304.9,146.5-465.6c-1.5-1.5-3-2.2-3.7-3.7c-92.2,8.2-181.5,28.2-272.9,30.5
			c-5.2-7.4-6.7-15.6-11.2-23.1c-9.7-3.7-23.1,8.2-26.8-3.7c5.2-1.5-0.8-3.7-1.5-5.2c11.2,0.8,19.3-7.4,24.6-16.4
			c3-11.2-10.4-12.7-15.6-19.3c-7.4-1.5-14.1-3-16.4-11.2c0-7.4,0-14.9,7.4-19.3c10.4-6.7,39.4,7.4,33.4-12.7
			c-6.7-0.7-23.8,3.7-24.5-10.4c0.8-11.2,2.2-21.6,15.6-20.1c95.2,8.2,177.7-19.3,271.4-24.5c134.6-18.6,262.5-57.3,394.9-75.1
			c44.6-7.4,89.2-14.1,133.9-21.6C1082.1,496.4,1097,494.9,1099.2,509.1"/>
		<path class="st0" d="M978,785.7c-1.5,3-5.2,5.2-5.2,8.9c-4.5,5.2-13.4,25.3-20.1,7.4c-37.2,59.5-68.4,121.2-99.7,183.7
			c-2.2,4.5-2.2,9.7,0,14.2c17.8,3.7,15.6-10.4,21.6-19.4c10.4-5.9,22.3-12.6,35.7-7.4c14.9-22.3,42.4-29,65.4-39.4
			C974.3,883.1,980.2,836.3,978,785.7 M1094,623.6c8.2,15.6-12.6,53.5,17.8,51.3c15.6,27.5,0.8,60.2,1.5,91.5
			c-16.4,169.6-20.1,351.8-17.8,522.8c-3.7,7.4,3,31.3-14.1,21.6c-8.2-8.2-8.9-24.6-19.3-26.8c-12.7,21.6-6,49.1-12.7,69.2
			c-14.1-5.2-14.9-19.3-16.4-32c14.1-23.8-22.3-35.7-12.6-62.5c-10.4,5.9,0,27.5-8.9,37.2c-10.4,3-11.9-10.4-17.9-17.9
			c1.5-16.3-17.8-34.2-3-46.1c10.4-26.8-17.8-43.1-7.4-67.7c-1.5-48.3-3.7-105.6-5.2-151.7l-3.7-3.7c-44.6,18.6-93,35-137.6,48.4
			c-9.7,4.4-17.8,14.9-30.5,14.1c-47.6,88.5-83.3,182.2-126.4,272.9c2.2,24.5-30.5,29.7-25.3,55.8c-5.9,11.2-8.9,25.3-17.8,33.4
			c-7.4-14.1,16.4-32.7,0-46.1c5.9-14.9,11.9-32,8.9-48.3c-22.3,31.2-35,68.4-51.3,103.4c-7.4,2.2-8.9-9.7-5.2-14.1
			c4.4-8.9,12.6-21.6,6.7-30.5H592c-14.1,20.9-17.1,50.6-40.9,62.5c5.9-19.4-3-28.3-1.5-46.1c0-21.6,20.8-29.7,19.3-48.3
			c8.2-4.5-2.2-17.9,11.2-17.9c-0.8-9.7,23.1-16.3,10.4-25.3c9.6-28.3,27.5-54.3,39.4-80.3c10.4-8.9,6.7-23.8,19.3-31.9
			c9.7-25.3,22.3-52.1,40.9-75.1c-8.2-13.4,15.6-14.1,7.4-28.3c3-8.2,10.4-14.9,12.7-23.1c-6.7-5.2-29.8,3.7-26.8-14.1
			c3.7-5.2-6-5.2-8.9-7.4C685,1052,702.9,1046,717,1046c3-8.2,13.4-5.9,20.1-8.9c7.4-18.6,30.5-34.2,23.1-56.5
			c11.9-8.2,23.1-20.1,23.1-32.7c0-29,34.2-52,37.9-78.1c16.4-11.9,19.3-34.2,29.8-48.3c14.9-3,0.7-17.1,16.4-17.8
			c17.8-32.7,21.6-72.9,53.5-98.2c11.9-17.1,18.6-35.7,23.1-55c8.2-4.4,12.6,0,21.6-2.2c6.7,6.7,0,25.3,16.4,21.6
			c5.2-11.2,0.7-37.2,23-37.2c17.9-0.8,38.7,9.7,49.8-7.4C1065,619.1,1082.9,613.2,1094,623.6"/>
		<path class="st0" d="M3062.6,610.9c38.7-0.7,72.9,31.9,107.1,53.6c40.9,34.9,61,78.8,58.8,131.6
			c-4.5,100.4-107.8,177.7-188.9,217.9c6.7,11.1,20.8,20.8,32,29c35.7,35,60.2,83.3,101.9,116c11.9,25.3,43.1,26.8,62.5,47.6
			c29,51.3,85.5,66.2,117.5,113c38.7,33.5,77.4,74.4,119.7,103.4c18.6,34.2,57.3,26.8,72.9,64c10.4,3.7,17.8,14.9,21.6,23.1
			c-23.8,21.5-40.9-23.1-62.5-32c-16.4-10.4-29-25.3-46.1-37.2c-78.1-61-145.8-123.5-226.8-177c-25.3-12.7-42.4-41.7-61-64
			c-44.6-12.6-58-61-94.4-85.5c-5.9-11.2-15.6-22.3-24.6-30.5c-0.7,12.7-14.9,8.2-20.1,1.5c-13.4-17.1-36.4-23.8-51.3-37.2
			c6-18.6-15.6-6.7-21.5-12.6c-8.9-11.1-20.1-23.8-32-30.5c-8.9,4.5,0,9.7,1.5,14.2c28.3,20.1,36.4,62.5,71.4,69.9
			c33.5,37.2,70.7,66.2,107.1,96.7c-3,3.7-11.2,2.2-16.4,5.2c70.7,34.2,124.9,107.8,193.4,148c26,24.5,52.8,47.6,74.4,71.4
			c1.5,2.2-3,3-1.5,5.2c91.5,61.7,164.4,160.6,262.5,212.7c3,7.4-5.2,8.2-8.9,5.2c-105.6-66.9-196.3-159.2-303.4-223.1
			c-89.3-66.2-148.7-161.4-248.4-210.5c-3-17.1-20.8-16.3-32-23.1c-11.2-16.4-35-30.5-35.7-52.1c-15.6-17.1-44.6-24.5-52.1-49.8
			c-14.1-7.4-26.8-21.6-44.6-16.4c-12.6-8.2-18.6-28.3-35.7-30.5c-3-6.7-12.7-6-11.9-14.1c15.6-2.2,10.4-22.3,26.8-24.6
			c13.4,7.4,28.3,6.7,42.4,1.5c11.9-23.1-21.6-29-30.5-46.1c-6.7-9.7,5.9-19.3,7.4-23.8c24.5-0.7,38.7,48.3,66.2,29
			c6.7,0,9.6,8.2,17.8,5.2c17.8-29.7,41.6-57.3,63.9-85.5c7.4-17.9,23.1-34.9,14.1-57.3c-32-40.9-89.2-48.4-140.5-39.4
			c-13.4,11.9-40.2,4.4-43.1,26.8c-2.3,19.3-14.9,33.5-23.1,49.8c-4.5-0.7-5.2-4.4-5.2-8.9c3.7-2.2-3-5.9-5.2-6.7
			c-23.1,28.3-26,68.4-41.6,101.9c-5.2,0-3-7.4-8.9-7.4c-40.2,121.2-63.2,248.4-90.8,374.8c-3,8.9-8.9,12.6-16.3,17.8
			c-11.2-8.2,8.9-28.3-10.4-34.2c-23.8,54.3-45.4,109.3-69.9,162.9c-7.4-11.2,0.8-21.6-6.7-32c-10.4-2.2-15.6,2.2-17.8,10.4
			c-10.4,23.1-7.4,55-26.8,71.4c0.8-5.2,6-20.8,0-28.3c-9.7,6.7-8.9,29.7-21.6,23.1c0-15.6-16.3-33.5,0-46.9
			c-21.5-29.8,14.1-66.2,25.3-98.2c6.7-5.2,20.8-8.9,8.9-19.3c7.4-8.2-4.5-32,11.9-30.5c9.6-6.7,0.7-11.2-5.2-14.1
			c12.7-27.5,17.8-58,30.5-85.5c12.6-4.5,22.3-14.9,23.1-29c-9.7-1.5-7.4-13.4-5.2-19.3c23.8-66.2,37.2-136.9,67.7-200.1
			c3.7-14.1,5.9-33.4,17.8-46.1c4.5-24.6,18.6-43.9,23.1-67.7c-31.2,5.9-61.7,46.9-98.1,26.8c0.7-37.2-47.6,5.9-46.1-30.5
			c-3-22.3-29.8-2.2-35.7-23.1c0-14.9,8.2-22.3,5.2-35.7c13.4,6.7,21.5-9.7,34.2-8.9c14.1-11.1,7.4-31.2,19.3-43.1
			c30.5-7.4,56.5-29.7,85.5-34.2c3.7-5.2,6.7-12.7,14.9-11.9c14.9,0.8,29.7-8.9,44.6-12.6c0,0.7,0.8,0.7,1.5,1.5
			c14.9-9.6,35.7-8.9,48.3-21.5c30.5-3,59.5-20.8,89.2-15.6c20.1-3.7,48.4,1.5,64-17.8c15.6-11.1,34.2,7.4,49.8-8.9
			C3018.7,613.2,3045.5,594.6,3062.6,610.9"/>
		<path class="st0" d="M2884.1,1062.4c8.2,5.2,16.4,11.9,26.8,12.6c33.5,51.3,92.2,85.5,125,139.1c16.4,14.9,45.4,19.3,49.8,44.6
			c33.5,27.5,75.1,55,94.5,93c23.1,11.9,43.9,26.8,68.4,33.5c67.7,53.5,119,110.8,181.5,169.5c40.2,46.1,94.4,56.5,137.6,93
			c29.7,28.3,69.2,56.5,91.5,89.3c-1.5,3-8.2,3-11.2,0c-93-80.3-194.8-142.1-287.1-224.6c-13.4,1.5-25.3-8.9-35.7-17.8
			c-61-31.2-99.7-110.1-168.1-127.2c-20.8-37.2-58.8-59.5-94.5-80.3c-28.3-11.1-31.2-47.6-58.8-55c-8.2-10.4-23.1-11.2-26.8-25.3
			c-26.8-29.8-53.5-63.2-87.8-81.8c-10.4-10.4-15.6-22.3-23.1-34.2c-11.9-2.2-32.7,6.7-40.9-10.4c-11.9,0-25.3,2.2-32-8.9
			c1.5-12.6,13.4-19.3,0-30.5c14.1-37.2,45.4,3,69.2,0C2872.2,1045.2,2879.6,1052.7,2884.1,1062.4"/>
		<path class="st0" d="M2912.4,1159c14.9,12.6,27.5,26.8,26.8,46.1c26,45.4,69.9,77.3,107.1,110.8c11.9,21.6,26,42.4,41.6,62.5
			c31.2-13.4,49.8,22.3,69.2,40.9c-3.7,23.1,26,27.5,39.4,40.9c11.2-4.5,17.9,6.7,19.3,16.3c25.3,10.4,36.4,43.1,64.7,46.1
			c11.2,22.3,43.1,12.7,44.6,39.4c23.8,18.6,50.6,32.7,72.9,49.8c-2.2,14.9,21.6,6.7,20.1,23.1c11.2,8.2,22.3,23.8,38.7,21.5
			c3,21.6,26.8,21.6,39.4,32c67.7,57.3,144.3,108.6,209,168.1c-9.7,0-17.9-6-26.8-8.9c-176.3-138.3-362.9-260.3-537-406.8
			c-9.7-5.2-10.4-16.3-14.9-25.3c-60.2-8.2-92.2-73.6-142.8-107.1c-18.6-50.6-88.5-61.7-94.4-117.5c-18.6-17.1-51.3-10.4-60.2-39.4
			c-5.2-2.2-5.2-9.7-7.4-14.1c-10.4-10.4-40.9-7.4-32-29c27.5-14.1,49.8,17.1,76.6,21.6C2878.9,1142.7,2897.5,1149.4,2912.4,1159"/>
		<path class="st0" d="M2686.3,1337.5c-3.7,30.5-17.1,58-34.2,83.3c-7.4-1.5-6.7-13.4-16.4-15.6c0.8-3.7,5.2-5.9,7.4-8.9
			c3.7,0,6.7-0.8,8.9-3.7c11.2-20.1-2.2-54.3,25.3-62.5C2680.3,1331.6,2683.3,1334.6,2686.3,1337.5"/>
		<path class="st0" d="M3599.5,1530.1c8.9,3.7,15.6,13.4,26.8,12.7c22.3,11.2,32.7,37.9,55.8,47.6c-14.9,17.9-30.5-12.7-48.3-14.1
			c-16.4-23.8-50.6-27.5-57.3-55C3585.4,1513,3594.3,1520.5,3599.5,1530.1"/>
		<path class="st0" d="M3733.4,1623.1c35,23.1,73.6,37.9,105.6,64c-43.1-5.2-80.3-36.4-119.7-57.3c-11.1-3-22.3-8.2-28.3-19.3
			c0.8-5.2-3-11.9,3.7-14.1C3710.4,1598.6,3719.3,1617.2,3733.4,1623.1"/>
		<path class="st0" d="M3742.3,1704.9c-4.5,7.4-12.6,1.5-17.8,0c-27.5-12.6-52.8-31.2-78.1-49.8c-5.2-5.2,0.8-11.9,6.7-8.9
			C3685.1,1661,3713.3,1687.1,3742.3,1704.9"/>
		<path class="st0" d="M3710.4,1771.1c-11.9,5.2-25.3-7.4-35.7-16.4c9.7-18.6,22.3,11.9,35.7,12.6V1771.1"/>
		<g>
			<g>
				<path class="st1" d="M338.4,1762.9c0,62.9-51,114-114,114c-62.9,0-114-51-114-114c0-62.9,51-114,114-114
					C287.3,1649,338.4,1700,338.4,1762.9"/>
				<path d="M203.9,1789.1c0-10.6,5.9-20.1,17.8-20.1c12.7,0,17.4,10.4,17.4,21.7c0,10.6-6.1,19.3-17.4,19.3
					C210,1810,203.9,1800.3,203.9,1789.1z M265.1,1698.6c-10.4-4.1-21.5-6.3-35.4-6.3c-45.1,0-60.2,34.6-60.2,76.4
					c0,34.2,13.5,64.7,52.4,64.7c30.1,0,51.2-20.9,51.2-46.1c0-24.4-15.8-43-40.8-43c-13.7,0-23.1,4.7-29.5,13.9h-0.4
					c0.2-24,7.6-40.1,31.9-40.1c13.3,0,22.9,3.3,28.7,7.2L265.1,1698.6z"/>
			</g>
			<g>
				<path class="st1" d="M677.7,1762.9c0,62.9-51,114-114,114c-62.9,0-114-51-114-114c0-62.9,51-114,114-114
					C626.6,1649,677.7,1700,677.7,1762.9"/>
				<path d="M563.7,1780.5h-37.5l37.1-57.7h0.4V1780.5z M561.3,1831.1h34v-26h19.3v-24.6h-19.3v-85.8h-40.3l-54.7,81.5v28.9h61
					V1831.1z"/>
			</g>
			<g>
				<path class="st1" d="M1017,1762.9c0,62.9-51,114-114,114c-62.9,0-114-51-114-114c0-62.9,51-114,114-114
					C965.9,1649,1017,1700,1017,1762.9"/>
				<rect x="876.5" y="1750" width="53" height="25.8"/>
			</g>
			<g>
				<path class="st1" d="M1356.3,1762.9c0,62.9-51,114-114,114c-62.9,0-114-51-114-114c0-62.9,51-114,114-114
					C1305.3,1649,1356.3,1700,1356.3,1762.9"/>
				<path d="M1223.4,1720.5h10.6c12.1,0,23.8,1.2,23.8,13.7c0,11.5-12.3,14.5-24.2,14.5h-10.2V1720.5z M1223.4,1773.3h11.1
					c12.5,0,26.8,1.4,26.8,16.2c0,13.9-13.9,15.8-27.2,15.8h-10.7V1773.3z M1187,1831.1h57.5c24.4,0,53.2-6.8,53.2-39.5
					c0-16.6-9.4-26.4-27.6-30.1v-0.4c15.2-5.1,24-14.7,24-31.9c0-23.5-19-34.6-44.4-34.6H1187V1831.1z"/>
			</g>
			<g>
				<path class="st1" d="M1695.6,1762.9c0,62.9-51,114-114,114c-62.9,0-114-51-114-114c0-62.9,51-114,114-114
					C1644.6,1649,1695.6,1700,1695.6,1762.9"/>
				<rect x="1563.4" y="1694.7" width="36.4" height="136.4"/>
			</g>
			<g>
				<path class="st1" d="M2034.9,1762.9c0,62.9-51,114-114,114c-62.9,0-114-51-114-114c0-62.9,51-114,114-114
					C1983.9,1649,2034.9,1700,2034.9,1762.9"/>
				<polygon points="1902.8,1831.1 1939.1,1831.1 1939.1,1721.7 1972.7,1721.7 1972.7,1694.7 1869.1,1694.7 1869.1,1721.7 
					1902.8,1721.7 				"/>
			</g>
		</g>
		<path class="st0" d="M2398.3,1543.1c15.8-3.3,59-13.8,64.4,1.6c5.3,15,42.5-7.7,45.9,24.1c2.4,22.5-10.8,17.1-12.3,40.2
			c-0.8,13.3-18.9,27.7-39.9,30.3c-66.6,5.5-186.1,53.6-186.1,165.9c0,0-7.4,125.3,123.1,125.3c0,0,81.4,13.1,146.5-76.8
			c3.6-5,14.2-9.3,19.9-7c3.5,1.4,6.3,4.5,6,10.9c-0.2,6.1-3.4,11.7-7.6,16.1c-3,3.3-5.9,8.5-2.8,14.8c5.5,11.1,4,26.6-9.3,41
			c0,0-61.6,61.8-151.6,61.8c-90.1,0-212.2-30.4-212.2-192.3S2303.8,1563.2,2398.3,1543.1z"/>
		<path class="st0" d="M2855.6,1608.1c-81,0-95.5,22.9-97.8,51.4c-3.9,48.2-24,110.2-39.9,150c-21.8,54.6-72.4,143-72.4,205.8
			c0,34.9-13.5,32.2-13.5,32.2c-7.9,0-12.1-7.8-14.4-15.8c-0.7-2.7-4.6-2.6-5.2,0.1c-3.5,15.9-11.1,36.9-27.1,36.9
			c-25.7,0-28.9-44.7-28.9-44.7c0-89.4,105.8-357.8,105.8-357.8s-80.9,40.9-96.3,41.3c-29.2,0.9-33.1-37.4-9.6-45.6
			c1.7-0.6,1.6-3.1-0.2-3.6c-11.2-3.1-28-10.1-28-24.9c0-34.3,56.4-63.5,163.5-88.2c0,0,4.3-71,26.9-71c15.7,0,42.1,13.7,56.8,22
			c6.5,3.7,10.6,10.6,10.6,18v5.2c0,0,84.4,0,112.5,0c51.7,0,151.2,26.2,151.2,141.6c0,158-215.2,283.3-376.3,353.8
			c-4.1,1.8-8.7-0.6-10.1-4.8c-2.3-6.8-3.1-16.2,8.4-18.4c3-0.6,4.8-3.8,4.1-6.7c-3.4-14.6-7.2-51.7,32.5-73.6
			c50.3-27.7,233.9-141.6,239.8-218.3C2953.8,1618.3,2903,1608.1,2855.6,1608.1z"/>
	</g>
	<g>
		<g>
			<path class="st0" d="M992.9,282.2c-153.5-0.8-215.9-126.8-228-148.8C745.1,97,744.5,38.8,727.2,0
				c234.3,50,445.3,23.5,483.7,143.7C1210.9,143.7,1151.6,283,992.9,282.2z"/>
			<path class="st11" d="M876.8,93.2c0,59,45.2,106.9,100.9,106.9c55.7,0,100.9-47.9,100.9-106.9c0-15.1-3-29.4-8.3-42.4
				c-49-10.2-107.6-16.1-171.7-23.8C885,45.2,876.8,68.1,876.8,93.2z"/>
			
				<radialGradient id="SVGID_1_" cx="-240.7224" cy="-104.3599" r="33.215" gradientTransform="matrix(0 -1.4256 -0.7 0 803.7764 -255.9755)" gradientUnits="userSpaceOnUse">
				<stop  offset="0.6133" style="stop-color:#FFFFFF"/>
				<stop  offset="1" style="stop-color:#FFFFFF;stop-opacity:0"/>
			</radialGradient>
			<ellipse class="st2" cx="876.8" cy="87.2" rx="33.2" ry="47.4"/>
			<path class="st0" d="M727.2,0c0,0,40.3,23.3,199.7,44.2c159.5,20.8,229.5,9.4,283.9,99.5C1172.5,23.5,961.5,50,727.2,0z"/>
		</g>
		<g>
			<path class="st0" d="M2533.3,282.2c153.5-0.8,215.9-126.8,228-148.8C2781.1,97,2781.7,38.8,2799,0
				c-234.3,50-445.3,23.5-483.7,143.7C2315.3,143.7,2374.6,283,2533.3,282.2z"/>
			<path class="st11" d="M2649.4,93.2c0,59-45.2,106.9-100.9,106.9c-55.7,0-100.9-47.9-100.9-106.9c0-15.1,3-29.4,8.3-42.4
				c49-10.2,107.6-16.1,171.7-23.8C2641.2,45.2,2649.4,68.1,2649.4,93.2z"/>
			<path class="st0" d="M2799,0c0,0-40.3,23.3-199.7,44.2c-159.5,20.8-229.5,9.4-283.9,99.5C2353.7,23.5,2564.7,50,2799,0z"/>
		</g>
		<g>
			<g>
				<ellipse class="st0" cx="876.8" cy="87.2" rx="33.2" ry="47.4"/>
			</g>
			<g>
				<ellipse class="st0" cx="2447.5" cy="108.8" rx="33.2" ry="47.4"/>
			</g>
		</g>
	</g>
</g>
</svg>
