<?xml version="1.0" encoding="utf-8"?>
<!-- Generator: Adobe Illustrator 26.0.3, SVG Export Plug-In . SVG Version: 6.00 Build 0)  -->
<svg version="1.1" id="Layer_1" xmlns="http://www.w3.org/2000/svg" xmlns:xlink="http://www.w3.org/1999/xlink" x="0px" y="0px"
	 viewBox="0 0 3839 821.9" style="enable-background:new 0 0 3839 821.9;" xml:space="preserve">
<style type="text/css">
	.st0{fill:none;stroke:#000000;stroke-width:6.9172;stroke-miterlimit:10;}
	.st1{fill:#FFFFFF;}
	.st2{fill:none;stroke:#000000;stroke-width:3.0594;stroke-miterlimit:10;}
	.st3{fill:none;stroke:#FFFFFF;stroke-width:6.9172;stroke-miterlimit:10;}
	.st4{fill:none;stroke:#FFFFFF;stroke-width:3.0594;stroke-miterlimit:10;}
</style>
<g>
	<g>
		<path class="st1" d="M387.8,389.9l66.1-35c118.8-68.3,123.3-179.6,79.6-218.4c-38.8-42.7-145.1-29.4-206.4-9.9
			C123.8,191.3-3.6,440,0.1,599.6c0.6,28.2,14,123.3,92.2,140.4c66.2,14.5,147.4-35.3,189.4-170.5
			c35.9-115.5,21.5-290.3,100.5-357.2c6.9-5.8,0.7-16.8-7.8-13.8C272.4,234,260.1,385.9,245.7,447.7
			c-28.2,122-48.2,318.8-154.7,248.6c-53.9-35.5-32-157,5.9-270.5C131.3,323.3,207.1,211.5,294,168.3
			c132.9-65.9,187.3-30.2,191.9,25.2c3.3,39.8,3.8,89.9-127.8,186c-20.5,15-18.1,46.5,4.6,57.9c21.2,10.7,42,23.6,48,35.4
			c15.7,30.5-10.3,105.4-49.6,125.7c-3.9,2-8.5-1.1-8.2-5.5c1-12.4-1.7-32.6-29.1-30c-22.8,2.1-35.7,28.2-29.9,45.5
			c7,20.9,35.6,31.2,53.3,30.9c66-1.1,138.1-95.5,123.7-155.3c-11.4-46.9-42.8-53.5-82.2-70.8C378.8,408.9,378.3,395,387.8,389.9z"
			/>
		<path class="st1" d="M1198.6,183.9c-7.7,31.8-29.2,111.5-60.1,156.9c-6.1,9.1-20.2,5.1-20.8-5.9c-0.5-8.1,0.1-18.3,2.7-30.3
			c0,0,15.2-76.8,21.6-108.1c6.5-32-37.4-27.3-47,6c-10.9,37.8-38.2,193.6-103.2,208.2c0,0-48.8,1.9-16-52.7
			c33.4-55.6,59.1-109.1,75.3-167.8C1082.6,76,1046,44,1036.7,43.4c0,0-61.7-26.5-128.1,213.6c0,0-16.9,82.2-4.6,130.8
			s-47.5,70.1-47.5,70.1c-38,12.3-68.6-17.8-44.6-64.5c13.4-26.1,42-65.9,86.7-205.8C955,11.5,896.1,0.5,896.1,0.5
			S829.5-18,766.8,170.9c-31.7,95.4-32.8,177.5-20.5,263c5.8,40.1-41.5,65.9-41.5,65.9c-15.2,14-39.2-0.7-33.7-20.5
			c14.3-51.5,30-101.9,7.1-105.3c-10.4-1.5-19.1,4.6-25.1,11c-5.4,5.9-9.3,13-11.6,20.7c-25.5,84.8-44.1,139.6-75.4,127.6
			c-40.2-15.4,25.2-189.8,66.7-192.1c15.8,3.8,15.5,12.1,35.1,10.4c12.2-1.1,22.4-10.7,22.7-23c0.4-13.5-10.4-24.6-23.9-24.6
			c-22.8,0-153.6,19.5-161.3,213.8c0,0-1.2,61.3,45.9,61.3c47.2,0,52-44.1,72.8-44.1c20.8,0,10.4,11.9,45.4,11.9
			c34.3,0,58.3-29.2,75.2-47.4c8.4-9.1,21.8-11.7,33-6.3c11,5.3,27,11.4,42.8,11.4c41.4,0,84.6-55.7,94-58.9
			c12.1-4.1,34.5,13.8,54.9,13.8c0,0,48.2-4.5,69.7-45.5c21.5-41,33.7,2.3,56.4,2.3c19.2,0,41.5-14.5,55.4-25.3
			c4.7-3.6,11.3,0.4,10.2,6.2l-27.5,145.2c-2,10.5-2.3,21.2-0.9,31.8l47.2-13c0,0,59.9-298.5,80.5-399.9
			C1268.8,119.7,1209.7,138.1,1198.6,183.9z M790,334.9c1-38.8,5-105.1,19.9-154.2c18.4-60.5,51.8-157.6,81.1-147.8
			s-23,155.9-23,155.9c-23.7,72.9-47.1,122.4-62,150.4C801.8,347.1,789.8,343.9,790,334.9z M949.7,314c3.3-33.5,8.8-76.5,17.8-109.5
			c13.9-50.9,36.2-131.5,60.7-123.3c24.5,8.2-19.2,130.1-19.2,130.1c-15.7,45.7-30,81.7-41,107.4C963.7,328.7,948.6,324.9,949.7,314
			z"/>
		<polygon class="st1" points="3683.1,419.1 3714.3,419.1 3714.3,398.2 3745.4,398.2 3745.4,377.3 3776.6,377.3 3776.6,377.3 
			3807.8,377.3 3823.4,377.3 3823.4,377.3 3839,377.3 3839,204.5 3714.2,204.5 3714.2,220.3 3683.1,220.3 3683.1,241.3 
			3683.1,241.4 3683.1,241.4 3651.9,241.4 3651.9,267.6 3620.7,267.6 3620.7,299 3589.5,299 3589.5,335.6 3558.3,335.6 
			3558.3,377.3 3527.1,377.3 3527.1,649 3558.3,649 3558.3,690.8 3589.5,690.8 3589.5,727.3 3620.7,727.3 3620.7,727.4 
			3620.7,758.8 3651.9,758.8 3651.9,785 3683.1,785 3683.1,785 3683.1,785 3683.1,806 3714.2,806 3714.2,821.8 3839,821.8 3839,649 
			3745.4,649 3745.4,628.1 3714.3,628.1 3714.3,607.2 3683.1,607.2 3683.1,607.2 3683.1,586.3 3839,586.3 3839,440 3683.1,440 
			3683.1,419.1 		"/>
	</g>
	<polygon class="st1" points="3347.9,79.8 3347.9,628.1 3316.7,628.1 3316.7,649 3238.7,649 3238.7,649 3238.7,628.1 3207.5,628.1 
		3207.5,586.3 3176.4,586.3 3176.4,440 3207.5,440 3207.5,398.2 3238.7,398.2 3238.7,377.3 3316.7,377.3 3316.7,204.5 3207.5,204.5 
		3207.5,220.3 3176.3,220.3 3176.3,241.3 3145.2,241.4 3145.2,267.6 3114,267.6 3114,299 3082.8,299 3082.8,335.6 3051.6,335.6 
		3051.6,377.3 3020.4,377.3 3020.4,649 3051.6,649 3051.6,690.8 3082.8,690.8 3082.8,727.3 3114,727.3 3114,758.8 3145.2,758.8 
		3145.2,785 3176.3,785 3176.3,806 3207.5,806 3207.5,821.8 3347.9,821.8 3347.9,806 3379.1,806 3379.1,785 3410.3,785 
		3410.3,758.8 3441.4,758.8 3441.4,727.4 3441.4,727.3 3472.5,727.3 3472.5,690.8 3503.7,690.8 3503.7,79.8 	"/>
	<path class="st1" d="M2965.8,335.6V299h-31.2v-31.4h-31.1v-26.2l-31.2-0.1v-21h-31.2v-15.8h-31.2h-15.6h-31.2h-31.2h-31.2v15.8
		h-31.2v21l-31.2,0.1v26.2h-31.1V299h-31.2v36.6h-31.2v41.8h-31.2v146.3v41.8v41.8V649h31.2v41.8h31.2v36.5h31.2v31.5h31.1V785h31.2
		v21h31.2v15.8h109.2V649h-78v-20.9h-31.2v-41.8h-31.2V440h31.2v-41.8h31.2v-20.9h78v20.9h31.2v423.6H2997V335.6H2965.8z"/>
	<polygon class="st1" points="2365.5,204.5 2365.5,220.3 2334.4,220.3 2334.4,241.3 2303.2,241.4 2303.2,267.6 2272,267.6 2272,299 
		2240.8,299 2240.8,335.6 2209.6,335.6 2209.6,377.3 2178.4,377.3 2178.4,649 2209.6,649 2209.6,690.8 2240.8,690.8 2240.8,690.8 
		2240.8,727.3 2272,727.4 2272,758.8 2303.2,758.8 2303.2,785 2334.4,785 2334.4,806 2365.5,806 2365.5,821.8 2490.3,821.8 
		2490.3,649 2396.7,649 2396.7,628.1 2365.6,628.1 2365.6,586.3 2334.4,586.3 2334.4,440 2365.6,440 2365.6,398.2 2396.7,398.2 
		2396.7,377.3 2490.3,377.3 2490.3,204.5 	"/>
	<path class="st1" d="M2066.2,549.4h42v-32.3h0.1h31.1v-40.9h15.6V335.6h-15.6V299h-31.2v-31.4h-31.1v-26.2l-31.2-0.1v-21h-31.2
		v-15.8h-109.2v15.8h-31.2v21.1h-31.2v26.2H1812V299h-31.1v36.6h-31.2v486.3h155.9V377.3h93.6v83.6h-31.2v20.9h-31.2v128.5l92,211.6
		h155.9L2066.2,549.4z"/>
	<path class="st1" d="M1695.1,335.6V299h-31.2v-31.4l-31.2-0.1v-26.2h-31.2v-21h-31.2v-15.8H1430v15.8h-31.2v21l-31.2,0.1v26.2
		h-31.2V299h-31.2v36.6H1274v41.8h-31.2V649h31.2v41.8h31.2l0,0v36.5h31.2v31.5h31.2V785h31.2v21h31.2v15.8h109.1V649h-77.9l0,0
		v-20.9H1430v-41.8h-31.2V440h31.2v-41.8h31.2v-20.9h77.9v20.9h31.2v423.5h156V335.6H1695.1z"/>
</g>
</svg>
