<?xml version="1.0" encoding="utf-8"?>
<!-- Generator: Adobe Illustrator 26.0.1, SVG Export Plug-In . SVG Version: 6.00 Build 0)  -->
<svg version="1.1" id="Layer_1" xmlns="http://www.w3.org/2000/svg" xmlns:xlink="http://www.w3.org/1999/xlink" x="0px" y="0px"
	 viewBox="0 0 3839 1016.6" style="enable-background:new 0 0 3839 1016.6;" xml:space="preserve">
<style type="text/css">
	.st0{fill:#FFFFFF;}
	.st1{fill:#C70A11;}
	.st2{fill:#2FBB37;}
	.st3{fill:#1E35A0;}
</style>
<g>
	<g>
		<g>
			<path class="st0" d="M654.6,263c37.8-32.4,64.7-63.8,64.7-124.8c0-60.5-31.4-115-155.6-115l0,0h-34.6l0,0h-64.8
				c-30.5,0-55.2,24.7-55.2,55.2v316h120V130h34.6l0,0c35.6,0,49.9,44.5,13.4,57.2c-37.8,13.1-47,77.6-23,116.5l56,90.7h125.5
				L654.6,263z"/>
		</g>
		<g>
			<rect x="1759.7" y="23.2" class="st0" width="120" height="371.2"/>
		</g>
		<g>
			<path class="st0" d="M2860.6,233.6c35.4-27.7,53.9-72.2,47.3-116.7c-0.7-3.3-1.3-5.9-1.8-7.7c-44-136.8-252.7-136.7-296.6,0.2
				c-4.4,13.8-7.2,29.1-7.9,45.9c0,0.6,0.5,1.2,1.1,1.2h118.8c-0.6-4-0.8-7.9-0.4-11.7c0.6-13.7,9-24,19.9-29.5
				c31.9-16.2,59.3,29.7,31.1,51.8l-158.7,124.3c-43.1,33.8-19.2,103,35.6,103h5.9c0.2,0,0.4-0.1,0.6-0.2l-0.1,0.2H2909V287.6
				h-117.3L2860.6,233.6z"/>
		</g>
		<g>
			<rect x="2335.4" y="172.5" class="st0" width="170.5" height="106.8"/>
		</g>
		<g>
			<path class="st0" d="M3662.9,3.1V110h41c8.4,0,15.1,6.8,15.1,15.1v269.3h120V67.7c0-35.6-28.9-64.5-64.5-64.5h-111.6V3.1z"/>
		</g>
		<g>
			<path class="st0" d="M1541.6,23.9l-19.1-0.7h-0.1l0,0h-8.8l0,0h-64.8c-30.5,0-55.2,24.7-55.2,55.2v260.9
				c0,30.5,24.7,55.1,55.2,55.1h92.9C1793.9,378,1793.9,40.2,1541.6,23.9z M1522.3,287.6L1522.3,287.6h-8.8V130h8.8
				C1640.3,130.1,1640.3,287.6,1522.3,287.6z"/>
		</g>
		<g>
			<path class="st0" d="M944.2,130h45.5V23.2h-45.5c-278,0-278,371.2,0,371.1v0.1h45.5V287.6h-45.5c0,0,0-0.1,0-0.1
				C826.2,287.5,826.2,130,944.2,130z"/>
		</g>
		<g>
			<path class="st0" d="M269.3,394.4h120l-110-321c-25.6-74.5-131-74.5-156.5,0l-110,321h119.9l12.3-50.3h112L269.3,394.4z
				 M165.8,258.8l27.9-114.1c1.4-8.1,13-8.1,14.4,0l27.9,114.1H165.8z"/>
		</g>
		<g>
			<path class="st0" d="M1259.9,394.4h120l-110-321c-25.6-74.5-131-74.5-156.5,0l-110,321h119.9l12.3-50.3h112L1259.9,394.4z
				 M1156.5,258.8l27.9-114.1c1.4-8.1,13-8.1,14.4,0l27.9,114.1H1156.5z"/>
		</g>
		<g>
			<path class="st0" d="M2155.3,394.4h120l-110-321c-25.6-74.5-131-74.5-156.5,0l-110,321h119.9l12.3-50.3h112L2155.3,394.4z
				 M2051.9,258.8l27.9-114.1c1.4-8.1,13-8.1,14.4,0l27.9,114.1H2051.9z"/>
		</g>
		<g>
			<path class="st0" d="M3111.1,0c-124.4,0-170.3,90.7-170.3,202.7s45.9,202.7,170.3,202.7c124.4,0,170.3-90.7,170.3-202.7
				S3235.5,0,3111.1,0z M3111.1,298.5c-27.8,0-50.4-23.2-50.4-95.8s22.5-95.8,50.4-95.8c27.8,0,50.4,23.2,50.4,95.8
				S3138.9,298.5,3111.1,298.5z"/>
		</g>
		<g>
			<path class="st0" d="M3479.3,0C3354.9,0,3309,90.7,3309,202.7s45.9,202.7,170.3,202.7c124.4,0,170.3-90.7,170.3-202.7
				S3603.7,0,3479.3,0z M3479.3,298.5c-27.8,0-50.4-23.2-50.4-95.8s22.5-95.8,50.4-95.8c27.8,0,50.4,23.2,50.4,95.8
				S3507.1,298.5,3479.3,298.5z"/>
		</g>
	</g>
	<g>
		<g>
			<g>
				<path class="st0" d="M2421.4,675.6l-5.9,16.6c19.8,1,59.1-3.9,57,19.4c-1,11.7-11.7,38.5-16,50.2l-62.8,172.7
					c-10.4,29.7-46.7,46.7-80.7,46.7l-5.8,16.6c1.1,0,271.7,0,271.8,0l32.3-89h-16.4c-31,54-25.1,67.6-82.4,67.6
					c-21.9,0-49.4-2.4-47-30.2c0.7-7.7,8.2-26.7,10.8-34.6l27.5-75.4h22.7c22.2,0,37.8,21.8,30.6,42.9l-5.3,15.5h13.6l37.7-110.6
					h-13.6l-0.7,2c-5.9,17.2-22,28.8-40.2,28.8h-37.1l32.7-90c10.8-29.2,10.7-27.7,40.4-27.7c68.3,0,80.6,17.1,71.1,43.5h16.5
					l23.4-64.9C2695.4,675.6,2421.4,675.6,2421.4,675.6z"/>
			</g>
			<g>
				<path class="st0" d="M2644.7,889.8c7.9-20.8,27.3-73.7,29-93.7c0.3-4.4-1.3-10.4-6.9-10.4c-10.8,0-26.8,28.6-31.8,37.3l-8.7-4.4
					c14.4-26,37.1-61.9,70-61.9c18.2,0,27.5,13,26,30.8c-0.9,9.5-2.9,19.1-5.9,27.3l0.8,0.9c15.7-26,44.2-59,77.1-59
					c18.6,0,30.6,10.8,29,30.3c-0.9,9.5-3.8,19.1-6.3,27.7l0.8,0.9c17.1-26.8,41.6-59,76.7-59c22.1,0,34,12.1,32.2,33.8
					c-1.2,14.3-9.2,35.1-14.7,49l-10.5,25.1c-3.8,9.1-17.7,38.2-18.4,46.8c-0.3,3.9,2.2,9.5,6.5,9.5c6,0,13.2-6.9,19.5-14.8
					c6.5-8.2,12.3-17.3,15.3-21.6l8.3,4.8c-4.5,7.7-9.8,16.2-16,24.3c-14.3,18.8-33.2,35.4-55.5,35.4c-18.2,0-30.1-12.5-28.5-30.8
					c1.1-12.1,10-36,15-48.1l10.9-26.1c4.5-10.8,17.9-40.8,18.8-50.7c0.5-5.7-2.9-10.8-8.6-10.8c-29.9,0-69.8,88.9-79.2,111.9
					l-19.8,49h-46.8l39.9-104c4.4-10.4,13.6-32.5,14.6-43c0.5-6.5-0.5-13.9-7.9-13.9c-32.9,0-65.8,82.3-76.1,107.1l-22.5,53.8h-47.2
					L2644.7,889.8z"/>
			</g>
			<g>
				<path class="st0" d="M3090.9,892.8c-22.6,29.4-52.7,56.4-89.9,56.4c-39.5,0-60.3-24.8-56.8-64.6
					c5.7-64.6,58.9-127.9,126.1-127.9c22.6,0,52.1,9.1,49.7,36.4c-4.3,49-82.4,65.4-120.9,75c-2.1,8.3-4,16.5-4.8,24.8
					c-1.5,16.9,6.2,32.5,24.9,32.5c24.3,0,45.8-23.4,61.6-40.8L3090.9,892.8z M3079.3,787.5c0.9-9.9-4-17.8-14.5-17.8
					c-31.2,0-52.6,60.6-60.7,84.5C3033.9,845.6,3076.4,821.7,3079.3,787.5z"/>
			</g>
			<g>
				<path class="st0" d="M3158.8,943.6h-48.5l21.6-54.2c9.5-23.9,24.5-67.6,26.7-92.4c0.4-4.8,0.1-10.8-5.6-10.8
					c-12.1,0-26.7,28.1-32,37.7l-9.2-4.4c14.5-26.4,38.1-62.8,71.4-62.8c17.8,0,25.2,14.3,23.8,30.3c-1.1,12.5,29.6-30.3,63.8-30.3
					c17.3,0,29.8,11.2,28.2,29c-1.4,15.6-13.1,25.6-28.2,25.6c-18.6,0-16.2-17.8-26.6-17.8c-23.4,0-57.6,84.1-65.9,103.6
					L3158.8,943.6z"/>
			</g>
			<g>
				<path class="st0" d="M3308.6,812.7c3.3-37.7,40.9-55.9,74.3-55.9c21.3,0,51.4,7.4,49,34.2c-0.9,10.4-9.4,18.2-19.8,18.2
					c-13,0-17.2-11.7-16.7-22.6c0.4-10.4-2.2-15.2-13.9-15.2c-13.9,0-24,7-25.2,20.4c-1.4,16,11,27.7,20.1,37.7
					c15.4,17.3,28.1,34.7,26,60.2c-3.3,37.3-43.3,59.3-76.8,59.3c-24.3,0-57.5-11.7-54.9-41.7c1-11.7,8.7-20.4,20.8-20.4
					c10.8,0,19.3,7.4,18.3,19.1l-1.1,7.4l-1,7c-0.9,9.5,8.7,13.9,16.6,13.9c14.7,0,27.2-12.5,28.4-26.8c1.3-14.7-6.2-23-14.4-33.4
					C3325.1,856.9,3306.5,836.5,3308.6,812.7z"/>
			</g>
			<g>
				<path class="st0" d="M3430.6,874.6c5.3-60.7,55.8-117.9,118.2-117.9c44.2,0,69.1,32.5,65.4,75c-5.1,58.6-57.5,117.5-118.2,117.5
					C3451.7,949.2,3426.8,918,3430.6,874.6z M3499.8,826.5c-9.7,21.7-21.7,54.6-23.8,78c-1.2,13.4,2.6,29.9,19.1,29.9
					c39.9,0,71.2-104.9,73.8-135.7c1.2-13.9-4.1-27.3-19.7-27.3C3523.7,771.5,3508,806.6,3499.8,826.5z"/>
			</g>
			<g>
				<path class="st0" d="M3648.6,874.6c7.3-19.5,22.9-58.1,24.5-77.6c0.4-4.8-1.2-11.7-7.2-11.7c-11.7,0-26.6,26.8-32.2,36.4
					l-8.4-3.5c14.2-27.7,36.6-61.5,70.5-61.5c19.1,0,26.7,11.2,25.1,29.9l-4.4,24.8l-2.1,8.2l0.8,0.9c17-30.8,46.3-63.7,83.6-63.7
					c22.1,0,34,12.1,32.2,33.8c-1.2,14.3-9.2,35.1-14.7,49l-10.5,25.1c-3.8,9.1-17.7,38.2-18.4,46.8c-0.3,3.9,2.2,9.5,6.5,9.5
					c12.1,0,28.9-28.1,34.8-36.4l8.3,4.8c-14.8,25.6-39.5,59.8-71.5,59.8c-18.2,0-30.1-12.5-28.6-30.8c1.1-12.1,10.1-36,15.1-48.1
					l10.9-26.1c4.5-10.8,17.9-40.8,18.8-50.7c0.5-5.7-2.9-10.8-8.6-10.8c-37.7,0.9-68.1,78.8-79.9,105.8l-23.9,55.1h-45.3
					L3648.6,874.6z"/>
			</g>
			<g>
				<ellipse class="st0" cx="2376.9" cy="734.7" rx="24.9" ry="23.8"/>
			</g>
			<path class="st0" d="M2415.5,692.2c-11.7,0-46.2,0.4-20.5,26.5c5.2,5.3-1.3,13-1.3,13l-18.8,3.1l-21.5,8.1
				c0,0-28.9-67.2,67.8-67.2"/>
		</g>
		<g>
			<g>
				<path class="st0" d="M2098.4,870.3c14.3,0,25.7-11.6,25.7-25.7c0-14.3-11.6-25.7-25.7-25.7c-14.3,0-25.7,11.6-25.7,25.7
					S2084.1,870.3,2098.4,870.3"/>
				<path class="st0" d="M2056.6,789.6l4.6-2.8c3.7-2.3,7.6-4.7,11.5-7.3c2,5.5,4,10.3,5.8,14.1c-20.4,8-34.9,27.8-34.9,51
					c0,19.8,10.6,37.2,26.4,46.8c-4.7,2.7-12.3,3.4-19.5,1.5c-23.7-6.3-30.8-29-30.8-47.4C2019.7,823.4,2037.4,801.6,2056.6,789.6
					 M2085.9,716.6c0.5,0,2.1,0,3.6,2.4c1.2,1.9,2.5,5.3,2.5,12c0,14.7-6,21.8-14.4,29.7c-2-7.6-3.4-13.2-3.4-21.4
					C2074.3,724.2,2081.7,716.6,2085.9,716.6 M2098.4,807c20.7,0,37.5,16.8,37.5,37.5s-16.8,37.5-37.5,37.5s-37.5-16.8-37.5-37.5
					S2077.5,807,2098.4,807 M2056.5,903.4c10,1.2,17.1,0.5,23-0.9c7.2,2.9,13.6,7.6,13.6,15c0,16.6-5.3,26.6-13.6,20.2
					c-8.3-6.5-32.6-7.1-32.6,10.7s27.8,26.1,43.8,6.5c16-19.5,17.1-43.3,10.7-55.7c0-0.1-0.1-0.1-0.1-0.2
					c28.8-1.6,51.7-25.4,51.7-54.6c0-30.2-24.5-54.7-54.7-54.7c-3.6,0-7.2,0.3-10.6,1.1c-2.1-4.4-4.7-10.4-7.1-17.3
					c11.5-9.5,20.8-22.4,20.8-42.4c0-7.2-1.3-13-4-17.1c-2.7-4.4-6.9-6.8-11.6-6.8c-10.4,0-21.2,12-21.2,32.2
					c0,10.7,2.1,21.3,4.8,30.8c-4.3,3.1-8.8,5.9-13.3,8.6l-4.7,2.8c-22.2,14-52.7,38-52.7,63.9
					C1998.9,878.6,2026.2,899.9,2056.5,903.4"/>
			</g>
			<g>
				<path class="st0" d="M1914.9,675.6v322.2h322V675.6H1914.9z M2076,985c-81.9,0-148.3-66.4-148.3-148.3s66.4-148.3,148.3-148.3
					c81.9,0,148.3,66.4,148.3,148.3C2224.2,918.6,2157.9,985,2076,985z"/>
			</g>
		</g>
	</g>
	<g>
		<g>
			<g>
				<polygon class="st0" points="172.3,513.8 0,1016.6 253.6,1016.6 425.9,513.8 				"/>
			</g>
			<g>
				<polygon class="st0" points="519,513.8 346.6,1016.6 600.1,1016.6 772.4,513.8 				"/>
			</g>
			<g>
				<polygon class="st0" points="865.6,513.8 693.3,1016.6 946.8,1016.6 1119.1,513.8 				"/>
			</g>
		</g>
	</g>
</g>
</svg>
