<?xml version="1.0" encoding="utf-8"?>
<!-- Generator: Adobe Illustrator 26.0.1, SVG Export Plug-In . SVG Version: 6.00 Build 0)  -->
<svg version="1.1" id="Layer_1" xmlns="http://www.w3.org/2000/svg" xmlns:xlink="http://www.w3.org/1999/xlink" x="0px" y="0px"
	 viewBox="0 0 3839 932.2" style="enable-background:new 0 0 3839 932.2;" xml:space="preserve">
<style type="text/css">
	.st0{fill:#FFFFFF;}
	.st1{fill:#C70A11;}
	.st2{fill:#2FBB37;}
	.st3{fill:#1E35A0;}
</style>
<g>
	<g>
		<g>
			<path class="st0" d="M600.2,241.2c34.7-29.7,59.3-58.5,59.3-114.4c0-55.5-28.8-105.5-142.7-105.5l0,0h-31.7l0,0h-59.4
				c-28,0-50.6,22.6-50.6,50.6v289.8h110V119.2h31.7l0,0c32.6,0,45.8,40.8,12.3,52.5c-34.7,12-43.1,71.2-21.1,106.8l51.4,83.2h115.1
				L600.2,241.2z"/>
		</g>
		<g>
			<rect x="1613.6" y="21.3" class="st0" width="110" height="340.4"/>
		</g>
		<g>
			<path class="st0" d="M2623,214.2c32.5-25.4,49.4-66.2,43.4-107c-0.6-3-1.2-5.4-1.7-7.1c-40.3-125.4-231.7-125.4-272,0.2
				c-4,12.7-6.6,26.7-7.2,42.1c0,0.6,0.5,1.1,1,1.1h108.9c-0.6-3.7-0.7-7.2-0.4-10.7c0.6-12.6,8.3-22,18.2-27.1
				c29.3-14.9,54.4,27.2,28.5,47.5l-145.5,114c-39.5,31-17.6,94.5,32.6,94.5h5.4c0.2,0,0.4-0.1,0.6-0.2l-0.1,0.2h232.5v-97.9h-107.6
				L2623,214.2z"/>
		</g>
		<g>
			<rect x="2141.4" y="158.2" class="st0" width="156.3" height="97.9"/>
		</g>
		<g>
			<path class="st0" d="M3358.7,2.8v98h37.6c7.7,0,13.8,6.2,13.8,13.8v246.9h110V62.1c0-32.6-26.5-59.1-59.1-59.1L3358.7,2.8
				L3358.7,2.8z"/>
		</g>
		<g>
			<path class="st0" d="M1413.6,21.9l-17.5-0.6h-0.1l0,0h-8.1l0,0h-59.4c-28,0-50.6,22.6-50.6,50.6v239.2c0,28,22.6,50.5,50.6,50.5
				h85.2C1645,346.6,1645,36.9,1413.6,21.9z M1395.9,263.7L1395.9,263.7h-8.1V119.2h8.1C1504.1,119.3,1504.1,263.7,1395.9,263.7z"/>
		</g>
		<g>
			<path class="st0" d="M865.8,119.2h41.7V21.3h-41.7c-254.9,0-254.9,340.4,0,340.3v0.1h41.7v-97.9h-41.7c0,0,0-0.1,0-0.1
				C757.6,263.6,757.6,119.2,865.8,119.2z"/>
		</g>
		<g>
			<path class="st0" d="M246.9,361.7h110L256.1,67.3C232.6-1,136-1,112.6,67.3L11.7,361.7h109.9l11.3-46.1h102.7L246.9,361.7z
				 M152.1,237.3l25.6-104.6c1.3-7.4,11.9-7.4,13.2,0l25.6,104.6H152.1z"/>
		</g>
		<g>
			<path class="st0" d="M1155.3,361.7h110L1164.4,67.3C1141-1,1044.3-1,1020.9,67.3L920.1,361.7H1030l11.3-46.1H1144L1155.3,361.7z
				 M1060.4,237.3l25.6-104.6c1.3-7.4,11.9-7.4,13.2,0l25.6,104.6H1060.4z"/>
		</g>
		<g>
			<path class="st0" d="M1976.4,361.7h110L1985.5,67.3C1962-1,1865.4-1,1842,67.3l-100.9,294.4h109.9l11.3-46.1h102.7L1976.4,361.7z
				 M1881.5,237.3l25.6-104.6c1.3-7.4,11.9-7.4,13.2,0l25.6,104.6H1881.5z"/>
		</g>
		<g>
			<path class="st0" d="M2852.7,0c-114.1,0-156.2,83.2-156.2,185.9s42.1,185.9,156.2,185.9c114.1,0,156.2-83.2,156.2-185.9
				S2966.8,0,2852.7,0z M2852.7,273.7c-25.5,0-46.2-21.3-46.2-87.8s20.6-87.8,46.2-87.8c25.5,0,46.2,21.3,46.2,87.8
				S2878.2,273.7,2852.7,273.7z"/>
		</g>
		<g>
			<path class="st0" d="M3190.4,0c-114.1,0-156.2,83.2-156.2,185.9s42.1,185.9,156.2,185.9s156.2-83.2,156.2-185.9
				S3304.4,0,3190.4,0z M3190.4,273.7c-25.5,0-46.2-21.3-46.2-87.8s20.6-87.8,46.2-87.8c25.5,0,46.2,21.3,46.2,87.8
				S3215.9,273.7,3190.4,273.7z"/>
		</g>
	</g>
	<g>
		<g>
			<g>
				<path class="st0" d="M2220.3,619.5l-5.4,15.2c18.2,0.9,54.2-3.6,52.3,17.8c-0.9,10.7-10.7,35.3-14.7,46l-57.6,158.4
					c-9.5,27.2-42.8,42.8-74,42.8l-5.3,15.2c1,0,249.1,0,249.2,0l29.6-81.6h-15c-28.4,49.5-23,62-75.6,62
					c-20.1,0-45.3-2.2-43.1-27.7c0.6-7.1,7.5-24.5,9.9-31.7l25.2-69.1h20.8c20.4,0,34.7,20,28.1,39.3l-4.9,14.2h12.5l34.6-101.4
					h-12.5l-0.6,1.8c-5.4,15.8-20.2,26.4-36.9,26.4h-34l30-82.5c9.9-26.8,9.8-25.4,37-25.4c62.6,0,73.9,15.7,65.2,39.8h15.1
					l21.5-59.5C2471.6,619.5,2220.3,619.5,2220.3,619.5z"/>
			</g>
			<g>
				<path class="st0" d="M2425.1,815.9c7.2-19.1,25-67.6,26.6-85.9c0.3-4-1.2-9.5-6.3-9.5c-9.9,0-24.6,26.2-29.2,34.2l-8-4
					c13.2-23.8,34-56.8,64.2-56.8c16.7,0,25.2,11.9,23.8,28.2c-0.8,8.7-2.7,17.5-5.4,25l0.7,0.8c14.4-23.8,40.5-54.1,70.7-54.1
					c17.1,0,28.1,9.9,26.6,27.8c-0.8,8.7-3.5,17.5-5.8,25.4l0.7,0.8c15.7-24.6,38.1-54.1,70.3-54.1c20.3,0,31.2,11.1,29.5,31
					c-1.1,13.1-8.4,32.2-13.5,44.9l-9.6,23c-3.5,8.3-16.2,35-16.9,42.9c-0.3,3.6,2,8.7,6,8.7c5.5,0,12.1-6.3,17.9-13.6
					c6-7.5,11.3-15.9,14-19.8l7.6,4.4c-4.1,7.1-9,14.9-14.7,22.3c-13.1,17.2-30.4,32.5-50.9,32.5c-16.7,0-27.6-11.5-26.1-28.2
					c1-11.1,9.2-33,13.8-44.1l10-23.9c4.1-9.9,16.4-37.4,17.2-46.5c0.5-5.2-2.7-9.9-7.9-9.9c-27.4,0-64,81.5-72.6,102.6l-18.2,44.9
					h-42.9l36.6-95.4c4-9.5,12.5-29.8,13.4-39.4c0.5-6-0.5-12.7-7.2-12.7c-30.2,0-60.3,75.5-69.8,98.2l-20.6,49.3h-43.3
					L2425.1,815.9z"/>
			</g>
			<g>
				<path class="st0" d="M2834.2,818.7c-20.7,27-48.3,51.7-82.4,51.7c-36.2,0-55.3-22.7-52.1-59.2c5.2-59.2,54-117.3,115.6-117.3
					c20.7,0,47.8,8.3,45.6,33.4c-3.9,44.9-75.6,60-110.9,68.8c-1.9,7.6-3.7,15.1-4.4,22.7c-1.4,15.5,5.7,29.8,22.8,29.8
					c22.3,0,42-21.5,56.5-37.4L2834.2,818.7z M2823.6,722.1c0.8-9.1-3.7-16.3-13.3-16.3c-28.6,0-48.2,55.6-55.7,77.5
					C2782,775.4,2820.9,753.5,2823.6,722.1z"/>
			</g>
			<g>
				<path class="st0" d="M2896.5,865.2H2852l19.8-49.7c8.7-21.9,22.5-62,24.5-84.7c0.4-4.4,0.1-9.9-5.1-9.9
					c-11.1,0-24.5,25.8-29.3,34.6l-8.4-4c13.3-24.2,34.9-57.6,65.5-57.6c16.3,0,23.1,13.1,21.8,27.8c-1,11.5,27.1-27.8,58.5-27.8
					c15.9,0,27.3,10.3,25.9,26.6c-1.3,14.3-12,23.5-25.9,23.5c-17.1,0-14.9-16.3-24.4-16.3c-21.5,0-52.8,77.1-60.4,95L2896.5,865.2z
					"/>
			</g>
			<g>
				<path class="st0" d="M3033.8,745.2c3-34.6,37.5-51.3,68.1-51.3c19.5,0,47.1,6.8,44.9,31.4c-0.8,9.5-8.6,16.7-18.2,16.7
					c-11.9,0-15.8-10.7-15.3-20.7c0.4-9.5-2-13.9-12.7-13.9c-12.7,0-22,6.4-23.1,18.7c-1.3,14.7,10.1,25.4,18.4,34.6
					c14.1,15.9,25.8,31.8,23.8,55.2c-3,34.2-39.7,54.4-70.4,54.4c-22.3,0-52.7-10.7-50.3-38.2c0.9-10.7,8-18.7,19.1-18.7
					c9.9,0,17.7,6.8,16.8,17.5l-1,6.8l-0.9,6.4c-0.8,8.7,8,12.7,15.2,12.7c13.5,0,24.9-11.5,26-24.6c1.2-13.5-5.7-21.1-13.2-30.6
					C3049,785.7,3031.9,767,3033.8,745.2z"/>
			</g>
			<g>
				<path class="st0" d="M3145.7,802c4.9-55.7,51.2-108.1,108.4-108.1c40.5,0,63.4,29.8,60,68.8c-4.7,53.7-52.7,107.7-108.4,107.7
					C3165.1,870.4,3142.2,841.8,3145.7,802z M3209.2,757.9c-8.9,19.9-19.9,50.1-21.8,71.5c-1.1,12.3,2.4,27.4,17.5,27.4
					c36.6,0,65.3-96.2,67.7-124.4c1.1-12.7-3.8-25-18.1-25C3231.1,707.4,3216.7,739.6,3209.2,757.9z"/>
			</g>
			<g>
				<path class="st0" d="M3345.6,802c6.7-17.9,21-53.3,22.5-71.2c0.4-4.4-1.1-10.7-6.6-10.7c-10.7,0-24.4,24.6-29.5,33.4l-7.7-3.2
					c13-25.4,33.6-56.4,64.6-56.4c17.5,0,24.5,10.3,23,27.4l-4,22.7l-1.9,7.5l0.7,0.8c15.6-28.2,42.5-58.4,76.7-58.4
					c20.3,0,31.2,11.1,29.5,31c-1.1,13.1-8.4,32.2-13.5,44.9l-9.6,23c-3.5,8.3-16.2,35-16.9,42.9c-0.3,3.6,2,8.7,6,8.7
					c11.1,0,26.5-25.8,31.9-33.4l7.6,4.4c-13.6,23.5-36.2,54.8-65.6,54.8c-16.7,0-27.6-11.5-26.2-28.2c1-11.1,9.3-33,13.8-44.1
					l10-23.9c4.1-9.9,16.4-37.4,17.2-46.5c0.5-5.2-2.7-9.9-7.9-9.9c-34.6,0.8-62.4,72.3-73.3,97l-21.9,50.5H3323L3345.6,802z"/>
			</g>
			<g>
				<ellipse class="st0" cx="2179.5" cy="673.7" rx="22.8" ry="21.8"/>
			</g>
			<path class="st0" d="M2214.9,634.7c-10.7,0-42.4,0.4-18.8,24.3c4.8,4.9-1.2,11.9-1.2,11.9l-17.2,2.8l-19.7,7.4
				c0,0-26.5-61.6,62.2-61.6"/>
		</g>
		<g>
			<g>
				<path class="st0" d="M1924.1,798c13.1,0,23.6-10.6,23.6-23.6c0-13.1-10.6-23.6-23.6-23.6s-23.6,10.6-23.6,23.6
					S1911,798,1924.1,798"/>
				<path class="st0" d="M1885.8,724l4.2-2.6c3.4-2.1,7-4.3,10.5-6.7c1.8,5,3.7,9.4,5.3,12.9c-18.7,7.3-32,25.5-32,46.8
					c0,18.2,9.7,34.1,24.2,42.9c-4.3,2.5-11.3,3.1-17.9,1.4c-21.7-5.8-28.2-26.6-28.2-43.5C1852,755,1868.2,735,1885.8,724
					 M1912.7,657.1c0.5,0,1.9,0,3.3,2.2c1.1,1.7,2.3,4.9,2.3,11c0,13.5-5.5,20-13.2,27.2c-1.8-7-3.1-12.1-3.1-19.6
					C1902,664.1,1908.8,657.1,1912.7,657.1 M1924.1,740c19,0,34.4,15.4,34.4,34.4s-15.4,34.4-34.4,34.4s-34.4-15.4-34.4-34.4
					S1905,740,1924.1,740 M1885.7,828.4c9.2,1.1,15.7,0.5,21.1-0.8c6.6,2.7,12.5,7,12.5,13.8c0,15.2-4.9,24.4-12.5,18.5
					c-7.6-6-29.9-6.5-29.9,9.8s25.5,23.9,40.2,6s15.7-39.7,9.8-51.1c0-0.1-0.1-0.1-0.1-0.2c26.4-1.5,47.4-23.3,47.4-50.1
					c0-27.7-22.5-50.2-50.2-50.2c-3.3,0-6.6,0.3-9.7,1c-1.9-4-4.3-9.5-6.5-15.9c10.5-8.7,19.1-20.5,19.1-38.9
					c0-6.6-1.2-11.9-3.7-15.7c-2.5-4-6.3-6.2-10.6-6.2c-9.5,0-19.4,11-19.4,29.5c0,9.8,1.9,19.5,4.4,28.2c-3.9,2.8-8.1,5.4-12.2,7.9
					l-4.3,2.6c-20.4,12.8-48.3,34.8-48.3,58.6C1832.9,805.6,1857.9,825.2,1885.7,828.4"/>
			</g>
			<g>
				<path class="st0" d="M1755.9,619.5v295.4h295.3V619.5H1755.9z M1903.6,903.2c-75.1,0-136-60.9-136-136s60.9-136,136-136
					s136,60.9,136,136C2039.5,842.3,1978.7,903.2,1903.6,903.2z"/>
			</g>
		</g>
	</g>
	<g>
		<g>
			<g>
				<polygon class="st0" points="158,471.1 0,932.2 232.5,932.2 390.5,471.1 				"/>
			</g>
			<g>
				<polygon class="st0" points="475.9,471.1 317.8,932.2 550.3,932.2 708.3,471.1 				"/>
			</g>
			<g>
				<polygon class="st0" points="793.7,471.1 635.7,932.2 868.2,932.2 1026.2,471.1 				"/>
			</g>
		</g>
	</g>
	<g>
		<g>
			<polygon class="st0" points="3609.6,244 3704.3,244 3704.3,261.7 3667.1,261.7 3667.1,361 3646.6,361 3646.6,261.7 3609.6,261.7 
							"/>
		</g>
		<g>
			<polygon class="st0" points="3717.6,244 3746.4,244 3778.7,335.6 3779,335.6 3810.5,244 3839,244 3839,361 3819.5,361 
				3819.5,270.7 3819.2,270.7 3786.8,361 3769.9,361 3737.5,270.7 3737.2,270.7 3737.2,361 3717.7,361 3717.7,244 			"/>
		</g>
	</g>
	<g>
		<g>
			<path class="st0" d="M1489.3,829h48.1c17.7,0,29.4,8,29.4,24.5c0,10-5.1,17.2-14.1,21.1v0.3c12.1,2.6,18.6,12.1,18.6,25.5
				c0,15.5-10.8,27.6-36.5,27.6h-45.5V829z M1506.6,870.4h28.3c8.3,0,14.6-4.9,14.6-13.7c0-10-5.1-13.6-14.6-13.6h-28.3V870.4z
				 M1506.6,913.8h30.6c10.5,0,16.6-5.7,16.6-15.7c0-9.7-6.1-15.2-16.6-15.2h-30.6V913.8z"/>
		</g>
		<g>
			<polygon class="st0" points="1600.2,889.1 1563,829 1583.1,829 1609.3,873.4 1635.1,829 1654.5,829 1617.5,889.2 1617.5,928 
				1600.2,928 			"/>
		</g>
	</g>
</g>
</svg>
