<?xml version="1.0" encoding="utf-8"?>
<!-- Generator: Adobe Illustrator 25.2.3, SVG Export Plug-In . SVG Version: 6.00 Build 0)  -->
<svg version="1.1" id="Layer_1" xmlns="http://www.w3.org/2000/svg" xmlns:xlink="http://www.w3.org/1999/xlink" x="0px" y="0px"
	 viewBox="0 0 3839 370.28" style="enable-background:new 0 0 3839 370.28;" xml:space="preserve">
<style type="text/css">
	.st0{fill:#15A754;}
	.st1{fill:#DDDDDD;}
	.st2{fill:#EE3327;}
	.st3{fill:#FDEB05;}
	.st4{fill:#7CC242;}
	.st5{fill:#A05DA5;}
	.st6{fill:#FCEA02;}
	.st7{fill:#9A509F;}
	.st8{fill:#FFFFFF;}
</style>
<g>
	<g>
		<path class="st8" d="M1575.1,358.78c-8,0-11.27-1.59-14.17-3.62l16.04-71.15c27.82-4.23,39.33-23.32,45.17-73.9
			c14.64-126.74,99.15-134.06,108.74-134.48c1.11-0.05,2.13-0.07,3.11-0.07c2.96,0,5.52,0.23,9.27,0.86c0,0-17,75.42-17,75.42
			c-27.52,3.8-33.71,27.4-44.94,95.75c-16.9,102.23-88.75,110.5-102.98,111.12C1577.19,358.75,1576.1,358.78,1575.1,358.78z"/>
		<path class="st8" d="M3027.46,358.78c-8,0-11.27-1.59-14.17-3.62l16.04-71.15c27.82-4.23,39.33-23.32,45.17-73.9
			c14.64-126.74,99.15-134.06,108.74-134.48c1.11-0.05,2.13-0.07,3.11-0.07c2.96,0,5.52,0.23,9.27,0.86c0,0-17,75.42-17,75.42
			c-27.52,3.8-33.71,27.4-44.94,95.75c-16.9,102.23-88.75,110.5-102.98,111.12C3029.55,358.75,3028.46,358.78,3027.46,358.78z"/>
		<path class="st8" d="M1458.02,358.78c-8,0-11.27-1.59-14.17-3.62l16.04-71.15c27.82-4.23,39.33-23.32,45.17-73.9
			c14.64-126.74,99.15-134.06,108.74-134.48c1.11-0.05,2.13-0.07,3.11-0.07c2.96,0,5.52,0.23,9.27,0.86c0,0-17,75.42-17,75.42
			c-27.52,3.8-33.71,27.4-44.94,95.75c-16.9,102.23-88.75,110.5-102.98,111.12C1460.11,358.75,1459.02,358.78,1458.02,358.78z"/>
		<rect x="2702.5" class="st8" width="72.69" height="358.78"/>
		<path class="st8" d="M3439.98,75.56c-80.07,0-147.27,58.18-154.27,138.25c-7,80.07,52.22,144.97,132.29,144.97
			c80.07,0,158.19-62.31,157.66-144.97C3575.13,133.43,3520.05,75.56,3439.98,75.56z M3491.04,266.48
			c-19.03,19.15-46.33,30.58-73.04,30.58c-21.11,0-39.97-7.9-53.11-22.24c-13.28-14.49-19.56-34.25-17.69-55.63
			c4.09-46.7,43.98-81.91,92.79-81.91c45.31,0,73.65,29.48,73.96,76.93C3514.09,238.21,3501.57,255.88,3491.04,266.48z"/>
		<path class="st8" d="M1418.73,358.19h-63.78l31.35-138.97c0.14-1.83,0.21-3.7,0.2-5.61c-0.31-47.45-28.65-76.93-73.96-76.93
			c-48.81,0-88.7,35.21-92.79,81.91c-1.87,21.38,4.41,41.14,17.69,55.63c13.14,14.34,32,22.24,53.11,22.24
			c18.69,0,37.67-5.6,53.91-15.52l-16.41,72.76l-0.4,0.07c0,0-24.59,4.4-37.1,4.4c-80.07,0-139.29-64.91-132.29-144.97
			c7-80.07,74.2-138.25,154.27-138.25s135.15,57.88,135.67,138.25c0.05,7.56-0.56,14.96-1.77,22.15L1418.73,358.19z"/>
		<path class="st8" d="M2122.89,144.8H2171l12.92-57.29h-48.1L2155.55,0h-66.9l-58.77,260.66c0,0-1.32,5.94-1.78,7.91
			c-10.69,45.62,1.2,90.21,60.47,90.21c0,0,7.19,0,8.48,0l32.21-57.29h-28.05c-11.86,0-10.97-11.99-8.13-24.45
			C2100.18,245.99,2122.89,144.8,2122.89,144.8z"/>
		<path class="st8" d="M2269.15,144.8h48.11l12.92-57.29h-48.1L2301.8,0h-66.9l-58.77,260.66c0,0-1.32,5.94-1.78,7.91
			c-10.69,45.62,1.2,90.21,60.47,90.21c0,0,7.19,0,8.48,0l32.21-57.29h-28.05c-11.86,0-10.97-11.99-8.13-24.45
			C2246.43,245.99,2269.15,144.8,2269.15,144.8z"/>
		<path class="st8" d="M1137.06,358.41c-47.47-4.52-89.8-24.77-117.7-56.68c-28.21-32.27-40.54-73.88-35.65-120.34
			c15.78-150.09,147-180.64,254.9-179.71l-13.84,61.76c-146.95,2.43-173.85,68.93-179.68,124.4
			c-7.61,72.4,48.27,107.22,105.71,109.67L1137.06,358.41z"/>
		<path class="st8" d="M2981.7,87.51l-61.17,271.27h66.94c11.71-51.92,41.17-182.7,61.12-271.27H2981.7z"/>
		<g>
			<path class="st8" d="M3298.78,57.29C3306.33,23.79,3311.69,0,3311.69,0h-66.87l-12.93,57.29H3298.78z"/>
			<path class="st8" d="M3225.08,87.51l-61.16,271.27h66.94c11.71-51.92,41.17-182.7,61.11-271.27H3225.08z"/>
		</g>
		<g>
			<path class="st8" d="M3633.88,87.51l-61.17,271.27h66.94c11.71-51.92,41.17-182.7,61.12-271.27H3633.88z"/>
		</g>
		<path class="st8" d="M3692.3,87.51l-12.93,57.29h75.33c9.23,0,16.07,8.56,14.04,17.56l-44.29,196.41h66.94
			c9.03-40.03,28.66-127.14,46.27-205.32c7.62-33.81-18.1-65.95-52.76-65.95H3692.3z"/>
		<g>
			<path class="st8" d="M3026.06,0h-24.63h-27.04c-21.35,0-41.2,10.95-52.6,29l-208.16,329.78h85.96l190.29-301.48h65.5
				C3062.94,23.79,3068.3,0,3068.3,0H3026.06z"/>
		</g>
		<path class="st8" d="M2406,282.43l199.77-97.79c-12.04-64.84-62.95-109.09-132.95-109.09c-80.07,0-147.27,58.18-154.27,138.25
			c-7.01,80.07,52.22,144.97,132.29,144.97c12.96,0,25.87-1.63,38.4-4.72c1.38-0.34,2.74-0.7,4.11-1.07l16.93-75.07
			c-17.36,12.17-38.58,19.14-59.44,19.14C2433.82,297.06,2418.27,291.93,2406,282.43z M2380.02,219.18
			c4.09-46.7,43.98-81.91,92.79-81.91c24.75,0,44.44,8.8,57.26,24.52l-149.91,73.38C2379.6,229.99,2379.55,224.64,2380.02,219.18z"
			/>
		<path class="st8" d="M1823.92,282.43l199.77-97.79c-12.04-64.84-62.95-109.09-132.95-109.09c-80.07,0-147.27,58.18-154.27,138.25
			c-7.01,80.07,52.22,144.97,132.29,144.97c12.96,0,25.87-1.63,38.4-4.72c1.37-0.34,2.74-0.7,4.11-1.07l16.93-75.07
			c-17.36,12.17-38.58,19.14-59.44,19.14C1851.75,297.06,1836.2,291.93,1823.92,282.43z M1797.95,219.18
			c4.09-46.7,43.98-81.91,92.79-81.91c24.75,0,44.44,8.8,57.26,24.52l-149.91,73.38C1797.52,229.99,1797.47,224.64,1797.95,219.18z"
			/>
	</g>
	<g>
		<g>
			<g>
				<path d="M340.21,317.38l0.7-3.09c-5.88,1.71-13.91,3.09-24.53,3.09h-24.6c-13.64,0-26.34-6.11-34.86-16.76
					c-8.52-10.65-11.68-24.39-8.68-37.69l23.79-105.52h48.98l-24.42,108.34c-0.43,1.9,0.02,3.86,1.24,5.39
					c1.22,1.52,3.03,2.4,4.98,2.4h34.55c7.51,0,13.9-5.11,15.55-12.44l23.37-103.68h48.98l-36.06,159.97H340.21z"/>
				<path d="M417.28,163.79l-19.64,87.11l-6.54,29h0l-7.01,31.1h-35.91l1.75-7.76c0,0-9.13,7.76-33.56,7.76h-24.6
					c-24.52,0-42.71-22.75-37.32-46.67l22.67-100.55h35.91l-22.67,100.56c-1.8,7.97,4.27,15.56,12.44,15.56h34.55
					c10.43,0,19.48-7.23,21.77-17.41l22.25-98.71H417.28 M433.23,151.03h-15.95h-35.91h-10.2l-2.24,9.95l-22.25,98.71
					c-0.99,4.39-4.83,7.46-9.33,7.46H302.8l22.67-100.56l3.51-15.56h-15.95h-35.91h-10.2l-2.24,9.95l-22.67,100.55
					c-3.43,15.2,0.19,30.9,9.92,43.07c9.73,12.17,24.25,19.15,39.84,19.15h24.6c6.12,0,11.47-0.44,16.12-1.14l-0.26,1.14h15.95
					h35.91h10.2l2.24-9.95l7.01-31.1l6.54-29l19.64-87.11L433.23,151.03L433.23,151.03z"/>
			</g>
			<g>
				<path d="M775.81,317.38l36.06-159.97h48.99l-0.7,3.09c5.87-1.71,13.91-3.09,24.52-3.09h32.46l-9.89,43.85h-43.54
					c-7.51,0-13.9,5.11-15.55,12.44l-23.38,103.68H775.81z"/>
				<path d="M909.17,163.79l-7.01,31.1h-38.45c-10.43,0-19.48,7.23-21.77,17.41l-3.21,14.23l-0.81,3.59l-15.39,68.24l-2.85,12.65h0
					h-35.91l26.18-116.12h0l7.01-31.1h0h0h35.91l-1.75,7.76c0,0,9.13-7.76,33.55-7.76H909.17 M925.12,151.03h-15.95h-24.49
					c-6.11,0-11.46,0.44-16.11,1.14l0.26-1.14h-15.95h-35.91h-10.2l-2.25,9.95l-7.01,31.1L771.34,308.2l-3.51,15.56h15.95h35.91
					h10.2l2.24-9.95l2.85-12.65l15.39-68.24l0.81-3.59l3.21-14.23c0.99-4.39,4.83-7.46,9.33-7.46h38.45h10.2l2.24-9.95l7.01-31.1
					L925.12,151.03L925.12,151.03z"/>
			</g>
			<g>
				<path d="M649.49,317.38c-13.64,0-26.34-6.11-34.86-16.76c-8.52-10.65-11.68-24.39-8.68-37.69l13.25-58.77
					c6.21-27.53,30.25-46.75,58.47-46.75h55.55c13.64,0,26.34,6.11,34.86,16.76c8.52,10.65,11.68,24.39,8.68,37.69l-1.61,7.12
					c-4.15,18.39-17.2,32.63-34.06,38.66h25.35l-2.93,12.99c-6.21,27.53-30.25,46.75-58.47,46.75H649.49z M654.34,265.74
					c-0.43,1.9,0.02,3.86,1.24,5.39c1.22,1.52,3.03,2.4,4.98,2.4h42.13c6.59,0,12.2-4.49,13.65-10.91l0.42-1.84h-61.28
					L654.34,265.74z M718.4,216.91c4.85,0,8.99-3.31,10.05-8.04c0.42-1.86-0.02-3.78-1.21-5.27c-1.19-1.49-2.96-2.34-4.87-2.34
					h-40.69c-7.5,0-13.89,5.11-15.55,12.42l-0.73,3.23H718.4z"/>
				<path d="M733.22,163.79c24.52,0,42.71,22.75,37.32,46.67l-1.61,7.12c-4.85,21.52-23.97,36.81-46.04,36.81h-72.52l-2.25,9.94
					c-1.81,7.98,4.26,15.57,12.44,15.57h42.13c9.52,0,17.77-6.6,19.87-15.89h35.91l-1.18,5.21c-5.51,24.43-27.21,41.78-52.25,41.78
					h-55.55c-24.52,0-42.71-22.75-37.32-46.67l13.25-58.77c5.51-24.43,27.21-41.78,52.25-41.78H733.22 M657.42,223.29h60.98
					c7.8,0,14.56-5.4,16.27-13.01c1.78-7.89-4.22-15.39-12.3-15.39h-40.69c-10.43,0-19.46,7.22-21.77,17.39L657.42,223.29
					 M733.22,151.03h-55.55c-31.22,0-57.82,21.27-64.69,51.73l-13.25,58.77c-3.43,15.2,0.19,30.9,9.92,43.08
					c9.73,12.17,24.25,19.15,39.84,19.15h55.55c31.22,0,57.82-21.27,64.69-51.73l1.18-5.21l3.51-15.56h-10.74
					c8.63-8,14.94-18.62,17.7-30.88l1.61-7.12c3.43-15.2-0.19-30.9-9.92-43.08C763.33,158.02,748.8,151.03,733.22,151.03
					L733.22,151.03z M674.8,210.54c1.75-1.81,4.19-2.9,6.87-2.9h40.51c-0.47,1.72-2,2.9-3.79,2.9H674.8L674.8,210.54z
					 M660.56,267.15h42.39c-0.09,0-0.18,0-0.27,0L660.56,267.15L660.56,267.15L660.56,267.15z"/>
			</g>
			<g>
				<path d="M408.5,333.05l39.6-175.64h48.98l-0.7,3.09c5.88-1.71,13.91-3.09,24.53-3.09h30.17c13.64,0,26.34,6.11,34.86,16.76
					c8.52,10.65,11.68,24.39,8.68,37.69l-11.53,51.16c-6.21,27.53-30.25,46.76-58.47,46.76h-35.19c-12.22,0-20.4-1.86-25.8-4.02
					l-6.17,27.3H408.5z M499.94,201.27c-7.51,0-13.9,5.11-15.55,12.43l-10.02,44.44c-0.43,1.9,0.02,3.86,1.24,5.39
					c1.22,1.52,3.03,2.4,4.98,2.4h40.12c7.51,0,13.9-5.11,15.55-12.43l10.02-44.44c0.43-1.9-0.02-3.86-1.24-5.38
					c-1.22-1.52-3.03-2.4-4.98-2.4H499.94z"/>
				<path d="M551.08,163.79c24.52,0,42.71,22.75,37.32,46.67l-11.53,51.16c-5.51,24.43-27.21,41.78-52.25,41.78h-35.19
					c-24.5,0-30.05-7.76-30.05-7.76l-2.43,10.75l-1.04,4.63h0v0h0l-3.54,15.67h-35.89l3.54-15.67h0v0l5.42-24.04l20.76-92.07h0
					l5.23-23.2l1.78-7.91h0h35.91l-1.75,7.76c0,0,9.13-7.76,33.56-7.76h9.1h6.53H551.08 M476.45,219.93L476.45,219.93l-8.3,36.8
					c-1.8,7.97,4.27,15.56,12.44,15.56h40.12c10.43,0,19.48-7.23,21.77-17.41l10.02-44.44c1.8-7.97-4.27-15.56-12.44-15.56h-6.86
					h-4.59h-28.67c-10.43,0-19.48,7.23-21.77,17.41L476.45,219.93 M551.08,151.03h-14.54h-6.53h-9.1c-6.12,0-11.47,0.44-16.12,1.14
					l0.26-1.14h-15.95H453.2H443l-2.24,9.95l-1.78,7.91l-5.23,23.2l-20.76,92.07l-5.42,24.04l-2.83,12.55l0,0l-0.7,3.11l-3.51,15.56
					h15.95h35.89h10.19l2.25-9.94l3.52-15.55c5.49,1.33,12.41,2.22,21.11,2.22h35.19c31.22,0,57.82-21.27,64.69-51.73l11.53-51.16
					c3.43-15.2-0.19-30.9-9.92-43.08C581.19,158.01,566.67,151.03,551.08,151.03L551.08,151.03z M480.59,259.54l8.3-36.8l0,0
					l1.72-7.64c0.99-4.39,4.83-7.46,9.33-7.46h28.67h4.59h6.86l-10.02,44.44c-0.99,4.39-4.83,7.46-9.33,7.46H480.59L480.59,259.54z"
					/>
			</g>
			<g>
				<g>
					<g>
						<path d="M68.44,317.38c-13.64,0-26.34-6.11-34.86-16.76c-8.52-10.65-11.68-24.39-8.68-37.69l1.2-5.29h48.98l-1.83,8.11
							c-0.43,1.9,0.03,3.86,1.24,5.38c1.22,1.52,3.03,2.39,4.98,2.39h82.21c7.51,0,13.9-5.11,15.55-12.43l3.81-16.89
							c0.67-2.95-0.04-6-1.93-8.36c-1.89-2.36-4.71-3.72-7.73-3.72H91.65c-14.61,0-28.23-6.54-37.35-17.96
							c-9.13-11.41-12.52-26.13-9.3-40.39l3.75-16.61c6.21-27.53,30.25-46.75,58.47-46.75h96.75c13.66,0,26.37,6.12,34.89,16.8
							c8.52,10.68,11.66,24.43,8.63,37.75l-1.13,4.96l-5.14,0.23h-43.48l1.82-8.11c0.43-1.9-0.02-3.86-1.24-5.39
							c-1.22-1.52-3.03-2.4-4.98-2.4h-82.2c-7.51,0-13.9,5.11-15.55,12.44l-2.14,9.49c-0.67,2.95,0.03,6,1.92,8.36
							c1.89,2.36,4.71,3.72,7.73,3.72h90.56c11.91,0,23,5.34,30.43,14.65c7.43,9.31,10.17,21.31,7.52,32.92l-7.96,34.92
							c-6.26,27.45-30.29,46.62-58.44,46.62H68.44z"/>
						<path d="M203.96,116.8c24.56,0,42.76,22.81,37.3,46.76l-0.05,0.23h-35.51l0.08-0.33c1.8-7.97-4.27-15.56-12.44-15.56h-82.21
							c-10.43,0-19.47,7.23-21.77,17.41l-2.14,9.49c-2.29,10.18,5.44,19.85,15.88,19.85h90.56c20.89,0,36.38,19.41,31.73,39.78
							l-7.96,34.92c-5.55,24.37-27.23,41.66-52.22,41.66H68.44c-24.52,0-42.72-22.75-37.32-46.67l0.07-0.32h35.91l-0.07,0.33
							c-1.8,7.97,4.27,15.56,12.44,15.56h82.21c10.43,0,19.47-7.23,21.77-17.41l3.81-16.89c2.29-10.18-5.44-19.85-15.88-19.85H91.65
							c-26.57,0-46.27-24.65-40.43-50.56l3.75-16.61c5.51-24.43,27.21-41.78,52.25-41.78H203.96 M203.96,104.04h-96.75
							c-31.22,0-57.82,21.27-64.69,51.72l-3.75,16.61c-3.64,16.15,0.2,32.84,10.54,45.77c10.34,12.93,25.77,20.35,42.33,20.35h79.73
							c1.47,0,2.36,0.83,2.75,1.32c0.39,0.49,1.01,1.54,0.69,2.97L171,259.69c-0.99,4.39-4.83,7.46-9.33,7.46H79.46l0.08-0.35
							l3.47-15.54H67.09H31.19H20.99l-2.24,9.94l-0.07,0.32c-3.43,15.21,0.19,30.91,9.92,43.08c9.73,12.17,24.25,19.15,39.84,19.15
							h96.77c31.15,0,57.74-21.21,64.66-51.58l7.96-34.92c3.08-13.51-0.11-27.48-8.76-38.31c-8.64-10.83-21.55-17.05-35.41-17.05
							h-90.56c-1.47,0-2.35-0.83-2.75-1.32s-1.01-1.54-0.69-2.97l2.14-9.49c0.99-4.39,4.83-7.46,9.33-7.46h82.21l-0.07,0.31
							l-3.54,15.58h15.97h35.51h10.16l2.27-9.9l0.05-0.23c3.47-15.23-0.12-30.96-9.86-43.16
							C234.1,111.04,219.57,104.04,203.96,104.04L203.96,104.04z"/>
					</g>
				</g>
			</g>
		</g>
		<g>
			<g>
				<path class="st8" d="M322.8,285.94l0.7-3.09c-5.88,1.71-13.92,3.09-24.53,3.09h-24.6c-13.64,0-26.34-6.11-34.86-16.76
					c-8.52-10.65-11.68-24.39-8.68-37.69l23.79-105.52h48.98l-24.43,108.34c-0.43,1.9,0.02,3.86,1.24,5.38
					c1.22,1.52,3.03,2.4,4.98,2.4h34.55c7.51,0,13.9-5.11,15.55-12.43l23.37-103.68h48.98l-36.06,159.97H322.8z"/>
				<path d="M399.87,132.35l-19.64,87.11l-6.54,29h0l-7.01,31.1h-35.91l1.75-7.76c0,0-9.13,7.76-33.56,7.76h-24.6
					c-24.52,0-42.71-22.75-37.32-46.67l22.67-100.55h35.91l-22.67,100.56c-1.8,7.97,4.27,15.56,12.44,15.56h34.55
					c10.43,0,19.48-7.23,21.77-17.41l22.25-98.71H399.87 M415.82,119.59h-15.95h-35.91h-10.2l-2.24,9.95l-22.25,98.71
					c-0.99,4.39-4.83,7.46-9.33,7.46h-34.55l22.67-100.56l3.51-15.56h-15.95h-35.91h-10.2l-2.24,9.95L224.6,230.09
					c-3.43,15.2,0.19,30.9,9.92,43.07c9.73,12.17,24.25,19.15,39.84,19.15h24.6c6.12,0,11.47-0.44,16.12-1.14l-0.26,1.14h15.95
					h35.91h10.2l2.24-9.95l7.01-31.1l6.54-29l19.64-87.11L415.82,119.59L415.82,119.59z"/>
			</g>
			<g>
				<path class="st8" d="M758.4,285.94l36.06-159.97h48.98l-0.7,3.09c5.88-1.71,13.91-3.09,24.53-3.09h32.46l-9.89,43.85H846.3
					c-7.51,0-13.9,5.11-15.55,12.43l-23.38,103.68H758.4z"/>
				<path d="M891.76,132.35l-7.01,31.1h-38.45c-10.43,0-19.47,7.23-21.77,17.41l-3.21,14.23l-0.81,3.59l-15.39,68.24l-2.85,12.65h0
					h-35.91l26.18-116.12h0l7.01-31.1h0h0h35.91l-1.75,7.76c0,0,9.13-7.76,33.55-7.76H891.76 M907.71,119.59h-15.95h-24.49
					c-6.12,0-11.46,0.44-16.11,1.14l0.26-1.14h-15.95h-35.91h-10.2l-2.25,9.95l-7.01,31.1l-26.18,116.12l-3.51,15.56h15.95h35.91
					h10.2l2.24-9.95l2.85-12.65l15.39-68.24l0.81-3.59l3.21-14.23c0.99-4.39,4.83-7.46,9.33-7.46h38.45h10.2l2.24-9.95l7.01-31.1
					L907.71,119.59L907.71,119.59z"/>
			</g>
			<g>
				<path class="st8" d="M632.08,285.94c-13.64,0-26.34-6.11-34.86-16.76c-8.52-10.65-11.68-24.39-8.68-37.69l13.25-58.77
					c6.21-27.53,30.25-46.75,58.47-46.75h55.56c13.64,0,26.34,6.11,34.86,16.76c8.52,10.65,11.68,24.39,8.68,37.69l-1.61,7.12
					c-4.15,18.39-17.2,32.64-34.07,38.66h25.35l-2.93,12.99c-6.21,27.53-30.25,46.75-58.47,46.75H632.08z M636.93,234.3
					c-0.43,1.9,0.02,3.86,1.24,5.39c1.22,1.52,3.03,2.4,4.98,2.4h42.13c6.59,0,12.2-4.49,13.65-10.91l0.42-1.84h-61.28L636.93,234.3
					z M700.99,185.48c4.85,0,8.99-3.31,10.05-8.04c0.42-1.86-0.02-3.78-1.21-5.27c-1.19-1.49-2.96-2.34-4.87-2.34h-40.69
					c-7.5,0-13.89,5.11-15.55,12.42l-0.73,3.23H700.99z"/>
				<path d="M715.81,132.35c24.52,0,42.71,22.75,37.32,46.67l-1.61,7.12c-4.85,21.52-23.97,36.81-46.04,36.81h-72.52l-2.25,9.94
					c-1.81,7.98,4.26,15.57,12.44,15.57h42.13c9.52,0,17.77-6.6,19.87-15.89h35.91l-1.18,5.21c-5.51,24.43-27.21,41.78-52.25,41.78
					h-55.55c-24.52,0-42.71-22.75-37.32-46.67l13.25-58.77c5.51-24.43,27.21-41.78,52.25-41.78H715.81 M640.01,191.85h60.98
					c7.8,0,14.56-5.4,16.27-13.01c1.78-7.89-4.22-15.39-12.3-15.39h-40.69c-10.43,0-19.46,7.22-21.77,17.39L640.01,191.85
					 M715.81,119.59h-55.55c-31.22,0-57.82,21.27-64.69,51.73l-13.25,58.77c-3.43,15.2,0.19,30.9,9.92,43.08
					c9.73,12.17,24.25,19.15,39.84,19.15h55.55c31.22,0,57.82-21.27,64.69-51.73l1.18-5.21l3.51-15.56h-10.74
					c8.63-8,14.94-18.62,17.7-30.88l1.61-7.12c3.43-15.2-0.19-30.9-9.92-43.08S731.39,119.59,715.81,119.59L715.81,119.59z
					 M657.39,179.1c1.75-1.81,4.19-2.9,6.87-2.9h40.51c-0.47,1.72-2,2.9-3.79,2.9H657.39L657.39,179.1z M643.15,235.71h42.4
					c-0.09,0-0.18,0-0.27,0L643.15,235.71L643.15,235.71L643.15,235.71z"/>
			</g>
			<g>
				<path class="st8" d="M391.09,301.61l39.6-175.64h48.98l-0.7,3.09c5.88-1.71,13.92-3.09,24.53-3.09h30.17
					c13.64,0,26.34,6.11,34.86,16.76c8.52,10.65,11.68,24.39,8.68,37.69l-11.53,51.16c-6.21,27.53-30.25,46.75-58.47,46.75h-35.19
					c-12.22,0-20.4-1.86-25.8-4.02l-6.17,27.3H391.09z M482.53,169.83c-7.51,0-13.9,5.11-15.55,12.44l-10.02,44.44
					c-0.43,1.9,0.02,3.86,1.24,5.38s3.03,2.4,4.98,2.4h40.12c7.51,0,13.9-5.11,15.55-12.44l10.02-44.44
					c0.43-1.9-0.02-3.86-1.24-5.39c-1.22-1.52-3.03-2.39-4.98-2.39H482.53z"/>
				<path d="M533.67,132.35c24.52,0,42.71,22.75,37.32,46.67l-11.53,51.16c-5.51,24.43-27.21,41.78-52.25,41.78h-35.19
					c-24.5,0-30.05-7.76-30.05-7.76l-2.43,10.75l-1.04,4.63h0v0h0l-3.54,15.67h-35.89l3.54-15.67h0v0l5.42-24.04l20.76-92.07h0
					l5.23-23.2l1.78-7.9h0h35.91l-1.75,7.76c0,0,9.13-7.76,33.56-7.76h9.1h6.53H533.67 M459.04,188.5L459.04,188.5l-8.3,36.8
					c-1.8,7.97,4.27,15.56,12.44,15.56h40.12c10.43,0,19.48-7.23,21.77-17.41l10.02-44.44c1.8-7.97-4.27-15.56-12.44-15.56h-6.86
					h-4.59h-28.67c-10.43,0-19.48,7.23-21.77,17.41L459.04,188.5 M533.67,119.59h-14.54h-6.53h-9.1c-6.12,0-11.47,0.44-16.12,1.14
					l0.26-1.14h-15.95h-35.91h-10.2l-2.24,9.95l-1.78,7.91l-5.23,23.2l-20.76,92.07l-5.42,24.04l-2.86,12.69l0,0l-0.67,2.98
					l-3.51,15.56h15.95h35.89h10.19l2.25-9.94l3.52-15.55c5.49,1.33,12.41,2.22,21.11,2.22h35.19c31.22,0,57.82-21.27,64.69-51.73
					l11.53-51.16c3.43-15.2-0.19-30.9-9.92-43.08S549.26,119.59,533.67,119.59L533.67,119.59z M471.48,191.3l1.72-7.63
					c0.99-4.39,4.83-7.46,9.33-7.46h28.67h4.59h6.86l-10.02,44.44c-0.99,4.39-4.83,7.46-9.33,7.46h-40.12L471.48,191.3L471.48,191.3
					L471.48,191.3z"/>
			</g>
			<g>
				<g>
					<g>
						<path class="st8" d="M51.03,285.94c-13.64,0-26.34-6.11-34.86-16.76c-8.52-10.65-11.68-24.39-8.68-37.69l1.19-5.29h48.98
							l-1.83,8.11c-0.43,1.9,0.02,3.86,1.24,5.38c1.22,1.52,3.03,2.4,4.98,2.4h82.21c7.51,0,13.9-5.11,15.55-12.43l3.81-16.89
							c0.67-2.95-0.03-6-1.92-8.36c-1.89-2.36-4.7-3.72-7.73-3.72H74.24c-14.61,0-28.23-6.54-37.35-17.96
							c-9.13-11.41-12.52-26.13-9.3-40.39l3.75-16.61c6.21-27.52,30.25-46.75,58.47-46.75h96.75c13.66,0,26.37,6.12,34.89,16.8
							c8.52,10.67,11.66,24.43,8.63,37.75l-1.13,4.96l-5.14,0.24h-43.48l1.82-8.11c0.43-1.9-0.02-3.86-1.24-5.39
							c-1.22-1.52-3.03-2.39-4.98-2.39H93.71c-7.51,0-13.9,5.11-15.55,12.43l-2.14,9.49c-0.67,2.95,0.04,6,1.93,8.36
							c1.89,2.36,4.71,3.72,7.73,3.72h90.56c11.91,0,23,5.34,30.43,14.65c7.43,9.31,10.17,21.31,7.52,32.92l-7.96,34.92
							c-6.26,27.45-30.29,46.62-58.44,46.62H51.03z"/>
						<path d="M186.55,85.36c24.56,0,42.76,22.81,37.3,46.76l-0.05,0.23h-35.51l0.07-0.33c1.8-7.97-4.27-15.56-12.44-15.56H93.71
							c-10.43,0-19.47,7.23-21.77,17.41l-2.14,9.49c-2.29,10.18,5.44,19.85,15.88,19.85h90.56c20.89,0,36.38,19.41,31.73,39.78
							l-7.96,34.92c-5.55,24.37-27.23,41.66-52.22,41.66H51.03c-24.52,0-42.72-22.75-37.32-46.67l0.07-0.32h35.91l-0.07,0.33
							c-1.8,7.97,4.27,15.56,12.44,15.56h82.21c10.43,0,19.47-7.23,21.77-17.41l3.81-16.89c2.29-10.18-5.44-19.85-15.88-19.85H74.24
							c-26.57,0-46.27-24.65-40.43-50.56l3.75-16.61c5.51-24.43,27.21-41.78,52.25-41.78H186.55 M186.55,72.6H89.8
							c-31.22,0-57.82,21.27-64.69,51.72l-3.75,16.61c-3.64,16.15,0.2,32.84,10.54,45.77c10.34,12.93,25.77,20.35,42.33,20.35h79.73
							c1.47,0,2.36,0.83,2.75,1.32s1.01,1.54,0.68,2.97l-3.81,16.89c-0.99,4.39-4.83,7.46-9.33,7.46H62.05l0.08-0.35l3.48-15.54
							H49.68H13.78H3.58l-2.24,9.95l-0.07,0.32c-3.43,15.2,0.19,30.91,9.92,43.08c9.73,12.17,24.25,19.15,39.84,19.15h96.77
							c31.15,0,57.74-21.21,64.66-51.58l7.96-34.92c3.08-13.51-0.11-27.48-8.76-38.31c-8.64-10.83-21.55-17.05-35.41-17.05H85.68
							c-1.47,0-2.35-0.83-2.75-1.32c-0.39-0.49-1.01-1.54-0.69-2.97l2.14-9.49c0.99-4.39,4.83-7.46,9.33-7.46h82.21l-0.08,0.34
							l-3.5,15.55h15.94h35.51h10.16l2.27-9.9l0.05-0.23c3.47-15.24-0.12-30.96-9.86-43.16C216.69,79.6,202.16,72.6,186.55,72.6
							L186.55,72.6z"/>
					</g>
				</g>
			</g>
		</g>
		<rect x="213.48" y="169.2" width="23.5" height="36.75"/>
		<rect x="56.75" y="203.66" width="23.5" height="36.75"/>
	</g>
</g>
</svg>
