<?xml version="1.0" encoding="utf-8"?>
<!-- Generator: Adobe Illustrator 25.2.3, SVG Export Plug-In . SVG Version: 6.00 Build 0)  -->
<svg version="1.1" id="Layer_1" xmlns="http://www.w3.org/2000/svg" xmlns:xlink="http://www.w3.org/1999/xlink" x="0px" y="0px"
	 viewBox="0 0 3839 1303.17" style="enable-background:new 0 0 3839 1303.17;" xml:space="preserve">
<style type="text/css">
	.st0{fill:#C1C1C1;}
	.st1{fill:#E60008;}
	.st2{clip-path:url(#SVGID_2_);}
	.st3{fill:url(#SVGID_3_);}
	.st4{fill:url(#SVGID_4_);}
	.st5{opacity:0.8;fill:url(#SVGID_5_);}
	.st6{fill:url(#SVGID_6_);}
	.st7{fill:#FFFFFF;}
	.st8{fill:#FFF200;}
	.st9{fill:#DE0204;}
	.st10{clip-path:url(#SVGID_8_);}
	.st11{fill:url(#SVGID_11_);}
	.st12{fill:url(#SVGID_12_);}
	.st13{opacity:0.8;fill:url(#SVGID_13_);}
	.st14{fill:url(#SVGID_14_);}
	.st15{clip-path:url(#SVGID_16_);}
	.st16{fill:url(#SVGID_19_);}
	.st17{fill:url(#SVGID_20_);}
	.st18{opacity:0.8;fill:url(#SVGID_21_);}
	.st19{fill:url(#SVGID_22_);}
</style>
<g>
	<g>
		<g>
			<polygon points="3176.14,1294.26 3348.14,661.74 3100.91,661.74 2928.91,1294.26 			"/>
			<path d="M1781.91,1147.34c-74.39,0-160.57-46.23-160.57-145.53c0-79.35,106.73-164.04,233.25-164.04
				c48.44,0,112.44,8.26,169.01,24.66c19.71-20.19,42.66-43.71,59.13-60.64c-93.76-72.15-235.27-116.38-370.49-116.38
				c-263.78,0-434.09,138.41-434.09,303.83c0,207,205.17,303.83,360.26,303.83c132.67,0,267.73-32.58,371.1-85.49l-17.34-110.11
				C1920.58,1127.07,1839.91,1147.34,1781.91,1147.34z"/>
			<path d="M2973.97,661.74h-247.22l-13.25,48.72c-76.32-22.09-158.12-34-232.96-34c-263.78,0-419.88,173.53-419.88,362.55
				c0,154.94,131.54,264.17,286.63,264.17c101.69,0,181.27-18.59,246.35-75.92c0.68-0.6,1.42-1.14,2.11-1.74
				c13.85,29.19,46.57,69.63,128.81,68.75c90.41-0.97,125.31-27.78,128.83-36.78l31.08-114.28h-41.42L2973.97,661.74z
				 M2670.23,864.96l-56.94,213.98c-11.3,41.57-110.85,81.24-193.74,54.9c-41.45-13.17-56.75-44.35-61.69-72.24
				c-4.46-25.18-0.18-51.1,10.64-74.27c7.21-15.45,18.97-40.61,37.41-80.02C2450.54,811.96,2686.02,806.89,2670.23,864.96z"/>
			<path d="M3283.88,866.25c0,0,109.23-45.71,192.9-45.71c0,0,139.75-11.3,130.15,130.92c-3.87,57.33-22.66,123.37-53.45,199.09
				l-66.82,143.7h227.18c204.05-362.26,105.67-492.41,69.72-541.11c-116.27-157.53-457.84-30.99-457.84-30.99"/>
			<path d="M1022.82,572.59c-364.09-96.21-670.31,260.26-980.18,721.68h516.44c100.71-187.47,281.07-495.02,432.13-471.01
				c72.86,11.58,87.92,220.37-13.76,471.01h158.73C1294.23,779,1186.84,615.93,1022.82,572.59z"/>
			<ellipse cx="842.84" cy="1145.03" rx="155.49" ry="33.01"/>
			<g>
				<path d="M1247.19,642.54c18.59,33.44,32.11,71.68,40.65,114.8c17.19-18.21,36.44-35.34,57.93-51.07
					c37.43-27.39,79.83-49.62,126.21-66.6c-46.24-50.91-112.96-82.87-187.15-82.87c-31.63,0-61.88,5.86-89.79,16.47
					C1215.25,593.41,1232.7,616.46,1247.19,642.54z"/>
			</g>
		</g>
		<path class="st7" d="M1998.23,547.54l44.17-8.15c68.15-12.67,170.41-51.36,173.4-94.17c0.24-3.52-0.28-5.34-0.55-5.64
			c-0.19-0.21-4.92-5-26.89-5c-4.28,0-8.19,0.16-11.42,0.3l-2.46,0.1c-8.13,0.3-16.12,0.46-23.73,0.46
			c-136.65,0-167.98-49.42-180.61-97.76l-0.57-2.2c-40.17-151.34,161.11-306.34,169.7-312.87L2169.01,0l64.83,158.36l-26.45,10.92
			c-1.63,0.68-164.69,70.81-140.76,149.82c1.7,5.62,2.55,7.15,2.82,7.55c8.77,6.65,70.93,9.12,104.34,10.44
			c89.29,3.54,139.44,43.79,137.59,110.45c-0.93,69.56-41.73,210.71-189.43,244.09l-18.68,4.22L1998.23,547.54z"/>
		<path d="M2172.66,365.77c-115.94-4.6-124.66-9.22-133.48-38.34c-32.25-106.43,157.27-184.67,157.27-184.67l-39.83-97.3
			c0,0-195.02,148.16-159.33,282.65c7.55,28.44,17.73,84.12,176.11,78.18c20.23-0.76,74.2-4.69,71.02,40.92
			c-5.94,85.14-196.81,120.39-196.81,120.39l68.02,96.04c164.67-37.21,167.08-216.9,167.08-216.9
			C2284.66,376.51,2207.33,367.14,2172.66,365.77z"/>
		<g>
			<polygon class="st7" points="2947.9,133.55 3204.95,17.58 3229.39,155.33 3067.3,193.35 3077.99,244.09 3201.19,201.65 
				3235.23,300.48 3099.68,347.18 3110.58,398.97 3313.41,289.73 3319.23,425.33 3032.8,536.97 			"/>
			<polygon points="3090.4,442.43 3066.38,328.3 3198.75,282.7 3183.4,238.13 3056.6,281.81 3033.45,171.82 3196.39,133.59 
				3183.14,58.9 2980.73,150.22 3047.14,465.73 3047.14,465.73 3052.02,488.91 3052.35,490.48 3052.35,490.48 3053.92,497.94 
				3289.68,406.05 3286.7,336.71 			"/>
		</g>
		<g>
			<path class="st7" d="M3543.6,558.15l11.22-31.21c4.74-13.48,14.22-54.71,0.91-82.27c-5.37-11.12-14.14-19.19-26.72-24.56
				c-5.05,0.3-10.14,0.45-15.19,0.45c-10.3,0-20.74-0.62-31.02-1.85c-33.1-3.95-64.2-13.88-91.07-28.81l-19.04,139.5l-94.18-9.95
				l18.02-406.51l124.26,16.35c20.83-5.98,43.21-9.06,66.32-9.06c10.29,0,20.75,0.63,31.09,1.86
				c107.96,12.88,187.85,89.9,178.09,171.67c-4.41,36.92-25.71,69.23-59.9,92.2c21.91,34.39,40.29,90.49,27.71,166.35l-4.87,29.36
				L3543.6,558.15z M3417.19,291.12c17.57,17.6,46.27,30.28,76.78,33.93c6.17,0.74,12.43,1.11,18.58,1.11
				c48.44,0,83.7-22.77,86.23-44.03c1.4-11.7-6.12-25.41-20.61-37.6c-17.87-15.03-43.81-25.52-71.16-28.78
				c-6.18-0.74-12.43-1.11-18.59-1.11c-24.04,0-47.38,5.84-64.01,16.01l-11.96,7.32l-5.81,42.58L3417.19,291.12z"/>
			<path d="M3514.78,150.58c-46.14-5.51-89.4,2.99-122.23,21.04l2.29-16.8l-71.05-9.35l-15.44,348.28l39.65,4.19l21.75-159.32
				c27.72,26.49,68.85,45.91,116.44,51.59c16.15,1.93,31.95,2.12,47.1,0.82c89.74,30.94,48.54,145.61,48.54,145.61l53.95,10.97
				c14.98-90.33-19.3-150.24-44.03-170.35c42-17.22,71.44-48.42,76.04-86.91C3675.67,224.19,3607.17,161.61,3514.78,150.58z
				 M3627.28,285.53c-5.38,45.07-67.98,76.22-136.72,68.02c-38.61-4.61-72.41-20.83-93.68-42.15l-25.93,18.4l19.81-145.09
				l18.68,21.47c25.69-15.72,62.36-23.53,100.97-18.92C3579.14,195.45,3632.66,240.46,3627.28,285.53z"/>
		</g>
		<g>
			<polygon class="st7" points="3133.49,1262.09 3305.49,629.57 3058.27,629.57 2886.27,1262.09 			"/>
			<path class="st7" d="M1739.27,1115.18c-74.39,0-160.57-46.23-160.57-145.53c0-79.35,106.73-164.04,233.25-164.04
				c48.44,0,112.44,8.26,169.01,24.66c19.71-20.19,42.66-43.71,59.13-60.64c-93.76-72.15-235.27-116.38-370.49-116.38
				c-263.78,0-434.09,138.41-434.09,303.83c0,207,205.17,303.83,360.26,303.83c132.67,0,267.73-32.58,371.1-85.49l-17.34-110.11
				C1877.93,1094.9,1797.27,1115.18,1739.27,1115.18z"/>
			<path class="st7" d="M2931.32,629.57H2684.1l-13.25,48.72c-76.32-22.09-158.12-34-232.96-34
				c-263.78,0-419.88,173.53-419.88,362.55c0,154.94,131.54,264.17,286.63,264.17c101.69,0,181.27-18.59,246.35-75.92
				c0.68-0.6,1.42-1.14,2.11-1.74c13.85,29.19,46.57,69.63,128.81,68.75c90.41-0.97,125.31-27.78,128.83-36.78l31.08-114.28h-41.42
				L2931.32,629.57z M2627.59,832.79l-56.94,213.98c-11.3,41.57-110.85,81.24-193.74,54.9c-41.45-13.17-56.75-44.35-61.69-72.24
				c-4.46-25.18-0.18-51.1,10.64-74.27c7.21-15.45,18.97-40.61,37.41-80.02C2407.89,779.79,2643.38,774.72,2627.59,832.79z"/>
			<path class="st7" d="M3241.24,834.08c0,0,109.23-45.71,192.9-45.71c0,0,139.75-11.3,130.15,130.92
				c-3.87,57.33-22.66,123.37-53.45,199.09l-66.82,143.7h227.18c204.05-362.26,105.67-492.41,69.72-541.11
				c-116.27-157.53-457.84-30.99-457.84-30.99"/>
			<path class="st7" d="M980.18,540.42C616.09,444.2,309.87,800.67,0,1262.09h516.44c100.71-187.47,281.07-495.02,432.13-471.01
				c72.86,11.58,87.92,220.37-13.76,471.01h158.73C1251.58,746.84,1144.2,583.76,980.18,540.42z"/>
			<ellipse class="st7" cx="800.19" cy="1112.86" rx="155.49" ry="33.01"/>
			<g>
				<path class="st7" d="M1204.55,610.37c18.59,33.44,32.11,71.68,40.65,114.8c17.19-18.21,36.44-35.34,57.93-51.07
					c37.43-27.39,79.83-49.62,126.21-66.6c-46.24-50.91-112.96-82.87-187.15-82.87c-31.63,0-61.88,5.86-89.79,16.47
					C1172.6,561.24,1190.06,584.29,1204.55,610.37z"/>
			</g>
		</g>
		<g>
			<path class="st7" d="M2483.86,591.48c-80.94-0.01-143.84-50.44-164.15-131.62l-62.88-251.33l101.41-25.37l62.88,251.33
				c11.81,47.21,48.68,52.3,63.99,52.3c23.3,0,46-10.52,59.21-27.46c12.13-15.53,15.56-35.64,9.93-58.15l-52.01-207.9l101.41-25.36
				l52.02,207.9c13.68,54.71,3.85,107.09-27.7,147.51c-33.32,42.68-87.19,68.17-144.08,68.17
				C2483.87,591.48,2483.87,591.48,2483.86,591.48z"/>
			<path d="M2627.81,382.77l-45.05-180.06l-45.73,11.44l45.05,180.06h0c31.49,125.87-157.32,173.11-188.81,47.24c0,0,0,0,0,0
				l-55.92-223.49l-45.73,11.44l55.92,223.49l0,0C2394.3,639.73,2674.56,569.61,2627.81,382.77
				C2627.81,382.77,2627.81,382.77,2627.81,382.77z"/>
		</g>
		<g>
			<path class="st7" d="M2631.72,553.06l13.08-402.79l130.59,15.35c19.99-6,41.3-9.09,63.22-9.09c9.05,0,18.25,0.54,27.33,1.61
				c104.89,12.33,181.98,92.51,171.86,178.74c-9.25,78.59-85.42,135.64-181.11,135.64c-0.01,0,0.01,0-0.01,0
				c-9.11,0-18.36-0.54-27.5-1.62c-29.38-3.45-57.28-12.32-81.87-25.77l-14.09,119.85L2631.72,553.06z M2768.11,340.33
				c16.51,18.18,43.57,31.06,72.37,34.45c5.2,0.61,10.48,0.92,15.67,0.92c43.89,0,82.24-22.48,85.49-50.11
				c1.61-13.68-5.67-29.06-19.96-42.21c-16.8-15.45-41.24-26.06-67.04-29.09c-5.2-0.61-10.47-0.92-15.67-0.92
				c-23.45,0-46.31,6.43-62.72,17.65l-9.22,6.3l-6.43,54.75L2768.11,340.33z"/>
			<path d="M2862.59,186.65c-43.66-5.13-84.78,4-116.48,22.83l2.13-18.15l-75.78-8.91l-11.22,345.22l46.81,5.5l16.45-139.95
				c26.46,25.67,64.34,44.08,108.01,49.22c89.32,10.5,168.46-38.24,176.77-108.87C3017.59,262.92,2951.91,197.15,2862.59,186.65z
				 M2970.15,328.94c-5.66,48.11-66.57,82.15-133.02,74.33c-37.33-4.39-69.89-21.22-90.27-43.65l-20.28,16.01l17.47-148.6
				l16.01,20.28c25.02-17.1,60.6-25.92,97.93-21.53C2924.44,233.6,2975.8,280.84,2970.15,328.94z"/>
		</g>
	</g>
</g>
</svg>
