<?xml version="1.0" encoding="utf-8"?>
<!-- Generator: Adobe Illustrator 26.0.1, SVG Export Plug-In . SVG Version: 6.00 Build 0)  -->
<svg version="1.1" id="Layer_1" xmlns="http://www.w3.org/2000/svg" xmlns:xlink="http://www.w3.org/1999/xlink" x="0px" y="0px"
	 viewBox="0 0 3839 1202.6" style="enable-background:new 0 0 3839 1202.6;" xml:space="preserve">
<style type="text/css">
	.st0{fill:#C5B9A4;}
	.st1{fill:#FF1E00;}
	.st2{fill:#EEE1D0;}
	.st3{fill:#FFFFFF;}
</style>
<g>
	<g>
		<g>
			<path class="st3" d="M39,381.6c-21.6,0-39,17.5-39,39v9v30.1v664.7v39.1c0,21.6,17.5,39,39,39h39.1h370.4h39.1
				c21.6,0,39-17.5,39-39v-21.4v-17.7V887.6V459.8v-30.1v-9c0-21.6-17.5-39-39-39L39,381.6L39,381.6z M409.5,887.6h-14
				c-21.6,0-39,17.5-39,39v158.7c0,21.6-17.5,39-39,39H117.2c-21.6,0-39-17.5-39-39V498.8c0-21.6,17.5-39,39-39h292.3
				c21.6,0,39,17.5,39,39v349.7C448.5,870.1,431.1,887.6,409.5,887.6z"/>
			<path class="st3" d="M1639.1,381.6L1639.1,381.6c-21.6,0-39.1,17.5-39.1,39.1v246.8c0,11.4-5,22.3-13.7,29.7l-104.9,89.5
				c-21.8,18.6-53.8,18.6-75.6,0l-104.9-89.5c-8.7-7.4-13.7-18.3-13.7-29.7V420.7c0-21.6-17.5-39.1-39.1-39.1l0,0
				c-21.6,0-39.1,17.5-39.1,39.1v282.8c0,11.4,5,22.3,13.7,29.7l108.4,92.5c17.4,14.8,27.4,36.5,27.4,59.3v278.5
				c0,21.6,17.5,39.1,39.1,39.1h92c21.6,0,39.1-17.5,39.1-39.1V885c0-22.8,10-44.5,27.4-59.3l108.4-92.5
				c8.7-7.4,13.7-18.3,13.7-29.7V420.7C1678.2,399.1,1660.7,381.6,1639.1,381.6z"/>
			<path class="st3" d="M3799.9,381.6L3799.9,381.6c-21.6,0-39.1,17.5-39.1,39.1v246.8c0,11.4-5,22.3-13.7,29.7l-104.9,89.5
				c-21.8,18.6-53.8,18.6-75.6,0l-104.9-89.5c-8.7-7.4-13.7-18.3-13.7-29.7V420.7c0-21.6-17.5-39.1-39.1-39.1l0,0
				c-21.6,0-39.1,17.5-39.1,39.1v282.8c0,11.4,5,22.3,13.7,29.7l108.4,92.5c17.4,14.8,27.4,36.5,27.4,59.3v278.5
				c0,21.6,17.5,39.1,39.1,39.1h92c21.6,0,39.1-17.5,39.1-39.1V885c0-22.8,10-44.5,27.4-59.3l108.4-92.5
				c8.7-7.4,13.7-18.3,13.7-29.7V420.7C3839,399.1,3821.5,381.6,3799.9,381.6z"/>
			<path class="st3" d="M2308.7,420.6v361.3c0,21.6,17.5,39,39,39h308c21.6,0,39,17.5,39,39v225.4c0,21.6-17.5,39-39,39H2518
				c-21.6,0-39-17.5-39-39v-104c0-21.6-17.5-39-39-39h-92.1c-21.6,0-39,17.5-39,39v182.2c0,21.6,17.5,39,39,39h386.2
				c21.6,0,39-17.5,39-39V781.8c0-21.6-17.5-39-39-39h-308c-21.6,0-39-17.5-39-39v-205c0-21.6,17.5-39,39-39h229.8
				c21.6,0,39,17.5,39,39v92.1c0,21.6,17.5,39.1,39.1,39.1l0,0c21.6,0,39.1-17.5,39.1-39.1V420.6c0-21.6-17.5-39-39-39h-386.2
				C2326.2,381.6,2308.7,399.1,2308.7,420.6z"/>
			<path class="st3" d="M1756.3,420.6v361.3c0,21.6,17.5,39,39,39h308c21.6,0,39,17.5,39,39v225.4c0,21.6-17.5,39-39,39h-137.8
				c-21.6,0-39-17.5-39-39v-104c0-21.6-17.5-39-39-39h-92.1c-21.6,0-39,17.5-39,39v182.2c0,21.6,17.5,39,39,39h386.2
				c21.6,0,39-17.5,39-39V781.8c0-21.6-17.5-39-39-39h-308c-21.6,0-39-17.5-39-39v-205c0-21.6,17.5-39,39-39h229.8
				c21.6,0,39,17.5,39,39v92.1c0,21.6,17.5,39.1,39.1,39.1l0,0c21.6,0,39.1-17.5,39.1-39.1V420.6c0-21.6-17.5-39-39-39h-386.2
				C1773.8,381.6,1756.3,399.1,1756.3,420.6z"/>
			<path class="st3" d="M3293,420.7L3293,420.7c0-21.6-17.5-39.1-39.1-39.1h-357.2c-21.6,0-39.1,17.5-39.1,39.1v742.8
				c0,21.6,17.5,39.1,39.1,39.1h357.2c21.6,0,39.1-17.5,39.1-39.1l0,0c0-21.6-17.5-39.1-39.1-39.1h-187c-21.6,0-39.1-17.5-39.1-39.1
				V860c0-21.6,17.5-39.1,39.1-39.1h187c21.6,0,39.1-17.5,39.1-39.1l0,0c0-21.6-17.5-39.1-39.1-39.1h-279.1
				c-21.6,0-39.1-17.5-39.1-39.1V498.8c0-21.6,17.5-39.1,39.1-39.1h279.1C3275.5,459.8,3293,442.3,3293,420.7z"/>
			<path class="st3" d="M645.7,381.6c-21.6,0-39,17.5-39,39v712.8v30.1c0,21.6,17.5,39,39,39H953c99.6,0,180.3-80.7,180.3-180.3
				V561.9c0-99.6-80.7-180.3-180.3-180.3L645.7,381.6L645.7,381.6z M957.6,1124.4H816c-21.6,0-39-17.5-39-39V498.8
				c0-21.6,17.5-39,39-39h141.6c53.9,0,97.6,43.7,97.6,97.6v469.4C1055.2,1080.7,1011.5,1124.4,957.6,1124.4z"/>
		</g>
		<g>
			<polygon class="st3" points="2995.8,69.3 2868.2,69.3 2830,103.8 2791.9,69.3 2664.3,69.3 2759.2,131.7 2666.9,192.4 
				2792.6,192.4 2830,158.5 2867.5,192.4 2993.2,192.4 2900.9,131.7 			"/>
			<path class="st3" d="M1382.8,78.3c-19.2-6.8-42.2-10.7-67.1-10.7c-66.5,0-87.3,28.3-87.3,63.2s20.8,63.2,87.3,63.2
				c24.8,0,47.9-4,67.1-10.7v9.1h70V69.3h-70V78.3z M1335.1,151.6c-26.3,0-34.6-9.3-34.6-20.8s8.3-20.8,34.6-20.8
				c26.3,0,47.7,9.3,47.7,20.8C1382.8,142.3,1361.5,151.6,1335.1,151.6z"/>
			<path class="st3" d="M2109.2,78.3c-19.2-6.8-42.2-10.7-67.1-10.7c-66.5,0-87.3,28.3-87.3,63.2s20.8,63.2,87.3,63.2
				c24.8,0,47.9-4,67.1-10.7v9.1h70V69.3h-70V78.3z M2061.6,151.6c-26.3,0-34.6-9.3-34.6-20.8s8.3-20.8,34.6-20.8
				c26.3,0,47.7,9.3,47.7,20.8C2109.2,142.3,2087.9,151.6,2061.6,151.6z"/>
			<path class="st3" d="M1627,78.3c-19.2-6.8-42.2-10.7-67.1-10.7c-66.5,0-87.3,28.3-87.3,63.2s20.8,63.2,87.3,63.2
				c24.8,0,47.9-4,67.1-10.7v5.1v3.9v2.6c0,7.2-5.8,13-13,13h-110v40.7h139.4c29.6,0,53.5-24,53.5-53.5v-2.8V168V69.3h-70L1627,78.3
				L1627,78.3z M1579.3,151.6c-26.3,0-34.6-9.3-34.6-20.8s8.3-20.8,34.6-20.8s47.7,9.3,47.7,20.8S1605.7,151.6,1579.3,151.6z"/>
			<path class="st3" d="M1869.5,67.6c-34.3,0-74,17.4-74,17.4V69.3h-70v123.1h70v-58.8c0-13.7,45.2-17.5,45.2-17.5
				s24.9-1.7,24.9,11.7v64.6h70v-69.7C1935.5,87.1,1903.8,67.6,1869.5,67.6z"/>
			<path class="st3" d="M2692.1,131.2c0-38.1-53.9-68.9-120.4-68.9s-120.4,30.9-120.4,68.9c0,38.1,53.9,68.9,120.4,68.9
				C2638.2,200.2,2692.1,169.3,2692.1,131.2z M2571.7,160.1c-21.5,0-38.9-12.9-38.9-28.8s17.4-28.8,38.9-28.8s38.9,12.9,38.9,28.8
				C2610.6,147.2,2593.2,160.1,2571.7,160.1z"/>
			<polygon class="st3" points="1131.3,0 1091.5,0 1026.2,113 961,0 921.2,0 898.6,0 843.2,0 843.2,192.4 921.2,192.4 921.2,87 
				982,192.4 1070.4,192.4 1131.3,87 1131.3,192.4 1209.3,192.4 1209.3,0 1153.9,0 			"/>
			<polygon class="st3" points="2374.4,69.3 2325.5,135.8 2276.6,69.3 2182.9,69.3 2282.6,192.4 2324.6,192.4 2326.5,192.4 
				2368.4,192.4 2468.1,69.3 			"/>
		</g>
	</g>
</g>
</svg>
