<?xml version="1.0" encoding="utf-8"?>
<!-- Generator: Adobe Illustrator 25.2.1, SVG Export Plug-In . SVG Version: 6.00 Build 0)  -->
<svg version="1.1" id="Layer_1" xmlns="http://www.w3.org/2000/svg" xmlns:xlink="http://www.w3.org/1999/xlink" x="0px" y="0px"
	 viewBox="0 0 3839.1 1254.4" style="enable-background:new 0 0 3839.1 1254.4;" xml:space="preserve">
<style type="text/css">
	.st0{fill:#FFFFFF;}
	.st1{clip-path:url(#SVGID_2_);}
	.st2{fill:#EC1E24;stroke:url(#SVGID_3_);stroke-width:3.6108;stroke-miterlimit:10;}
	.st3{fill:#EC1E24;stroke:url(#SVGID_4_);stroke-width:3.6108;stroke-miterlimit:10;}
	.st4{fill:#E4E4E4;}
	.st5{fill:#EC1E24;stroke:url(#SVGID_5_);stroke-width:3.6108;stroke-miterlimit:10;}
	.st6{fill:#EC1E24;}
	.st7{fill:#F06922;}
	.st8{clip-path:url(#SVGID_7_);}
	.st9{fill:#EC1E24;stroke:url(#SVGID_8_);stroke-width:3.6108;stroke-miterlimit:10;}
	.st10{fill:#EC1E24;stroke:url(#SVGID_9_);stroke-width:3.6108;stroke-miterlimit:10;}
	.st11{fill:#EC1E24;stroke:url(#SVGID_10_);stroke-width:3.6108;stroke-miterlimit:10;}
	.st12{clip-path:url(#SVGID_12_);}
	.st13{fill:url(#SVGID_13_);}
	.st14{fill:#EC1E24;stroke:url(#SVGID_14_);stroke-width:3.6109;stroke-miterlimit:10;}
	.st15{fill:#EC1E24;stroke:url(#SVGID_15_);stroke-width:3.6109;stroke-miterlimit:10;}
	.st16{fill:#EC1E24;stroke:url(#SVGID_16_);stroke-width:3.6109;stroke-miterlimit:10;}
	.st17{clip-path:url(#SVGID_18_);}
	.st18{fill:url(#SVGID_19_);}
	.st19{fill:#EC1E24;stroke:url(#SVGID_20_);stroke-width:3.6109;stroke-miterlimit:10;}
	.st20{fill:#EC1E24;stroke:url(#SVGID_21_);stroke-width:3.6109;stroke-miterlimit:10;}
	.st21{fill:#EC1E24;stroke:url(#SVGID_22_);stroke-width:3.6109;stroke-miterlimit:10;}
	.st22{clip-path:url(#SVGID_24_);}
	.st23{fill:#13E1DB;stroke:url(#SVGID_25_);stroke-width:3.6108;stroke-miterlimit:10;}
	.st24{fill:#13E1DB;stroke:url(#SVGID_26_);stroke-width:3.6108;stroke-miterlimit:10;}
	.st25{fill:#1B1B1B;}
	.st26{fill:#13E1DB;stroke:url(#SVGID_27_);stroke-width:3.6108;stroke-miterlimit:10;}
	.st27{fill:#13E1DB;}
	.st28{fill:#0F96DD;}
	.st29{clip-path:url(#SVGID_29_);}
	.st30{fill:#13E1DB;stroke:url(#SVGID_30_);stroke-width:3.6108;stroke-miterlimit:10;}
	.st31{fill:#13E1DB;stroke:url(#SVGID_31_);stroke-width:3.6108;stroke-miterlimit:10;}
	.st32{fill:#13E1DB;stroke:url(#SVGID_32_);stroke-width:3.6108;stroke-miterlimit:10;}
	.st33{clip-path:url(#SVGID_34_);}
	.st34{fill:url(#SVGID_35_);}
	.st35{fill:#13E1DB;stroke:url(#SVGID_36_);stroke-width:3.6109;stroke-miterlimit:10;}
	.st36{fill:#13E1DB;stroke:url(#SVGID_37_);stroke-width:3.6109;stroke-miterlimit:10;}
	.st37{fill:#13E1DB;stroke:url(#SVGID_38_);stroke-width:3.6109;stroke-miterlimit:10;}
	.st38{clip-path:url(#SVGID_40_);}
	.st39{fill:url(#SVGID_41_);}
	.st40{fill:#13E1DB;stroke:url(#SVGID_42_);stroke-width:3.6109;stroke-miterlimit:10;}
	.st41{fill:#13E1DB;stroke:url(#SVGID_43_);stroke-width:3.6109;stroke-miterlimit:10;}
	.st42{fill:#13E1DB;stroke:url(#SVGID_44_);stroke-width:3.6109;stroke-miterlimit:10;}
</style>
<g>
	<g>
		<defs>
			<rect id="SVGID_1_" x="0" y="-1591.6" width="3839" height="1121"/>
		</defs>
		<clipPath id="SVGID_2_">
			<use xlink:href="#SVGID_1_"  style="overflow:visible;"/>
		</clipPath>
		<g class="st1">
			<g>
			</g>
		</g>
	</g>
</g>
<g>
	<g>
		<polygon class="st0" points="1472.3,109.3 1429.7,3.2 1429.5,2.6 1397.4,2.6 1397.4,144 1419.9,144 1419.4,30.1 1464.1,144 
			1479.9,144 1524.6,30.1 1524.1,143.2 1524.1,144 1546.4,144 1546.4,2.6 1514.5,2.6 		"/>
		<path class="st0" d="M1736.4,91.8h60c-2.2,9-7.8,17.3-15.9,23.3c-8.6,6.7-19.6,10.2-31.7,10.2c-32.7,0-50.3-27-50.3-52.3
			c0-33.5,25.9-51.6,50.3-51.6c10.7,0,20.4,3.1,28.9,9.3c4.8,3.5,9,7.8,12.6,13l0.3,0.4h26.9l-0.5-1.2
			C1806.5,17.6,1778.6,0,1749.1,0c-41.8,0-74.5,32-74.5,73c0,41.3,32.6,73.7,74.3,73.7c30,0,57.1-16.6,68.9-42.2
			c5.7-12.5,6.3-26.3,6.3-31.7v-0.9h-87.8V91.8z"/>
		<polygon class="st0" points="1926,106.9 1855.2,3 1854.9,2.6 1832.6,2.6 1832.6,144 1855.9,144 1855.5,39.6 1926.9,143.7 
			1927.2,144 1948.9,144 1948.9,2.6 1925.7,2.6 		"/>
		<polygon class="st0" points="2166,2.6 2126,113.4 2086.5,3.2 2086.2,2.6 2061.4,2.6 2114.3,144 2137.6,144 2190.9,2.6 		"/>
		<path class="st0" d="M2253.8,0c-42.1,0-73.9,31.9-73.9,74.1v0.2c0,40.6,32.4,72.4,73.7,72.4c41.7,0,74.3-32.2,74.3-73.3
			S2295.3,0,2253.8,0z M2303.9,73.5c0,32.4-25.3,51.8-49.7,51.8c-28.8,0-50.5-22.3-50.5-52v-0.2c0-29,22.1-51.8,50.3-51.8
			C2285.2,21.4,2303.9,47.9,2303.9,73.5z"/>
		<polygon class="st0" points="2393,70.7 2437.5,2.6 2410.3,2.6 2378.9,52.3 2347.3,2.6 2319.9,2.6 2365,70.3 2316.1,144 2343,144 
			2378.2,88 2414.3,144 2441.7,144 		"/>
		<path class="st0" d="M1629.3,2.6H1608L1549.9,144h26.1l12.8-33l3.7-10.9h51l3.7,10.9l13.2,33h26L1629.3,2.6z M1617.8,31.8
			l18.5,48.6h-36.8L1617.8,31.8z"/>
		<path class="st0" d="M2031.9,2.6h-21.4L1952.4,144h26.1l12.8-33l3.7-10.9h51l3.7,10.9l13.2,33h26L2031.9,2.6z M2020.3,31.8
			l18.5,48.6h-36.8L2020.3,31.8z"/>
	</g>
	<g>
		<defs>
			<rect id="SVGID_11_" x="0" y="56.6" width="3839" height="1121"/>
		</defs>
		<clipPath id="SVGID_3_">
			<use xlink:href="#SVGID_11_"  style="overflow:visible;"/>
		</clipPath>
		<g style="clip-path:url(#SVGID_3_);">
			<g>
				<g>
					<linearGradient id="SVGID_4_" gradientUnits="userSpaceOnUse" x1="1775.0551" y1="1665.2292" x2="1775.0551" y2="203.6604">
						<stop  offset="0.3103" style="stop-color:#FFFFFF;stop-opacity:0"/>
						<stop  offset="0.4646" style="stop-color:#FFFFFF;stop-opacity:0.8587"/>
						<stop  offset="0.49" style="stop-color:#FFFFFF"/>
					</linearGradient>
					<path style="fill:url(#SVGID_4_);" d="M360,203.7H29.7c-26,0-39.3,31-21.5,49.9l1289.6,1366h149.8L463.9,256.8
						C439.8,223.4,401.2,203.7,360,203.7z M525,611.4c-18.9,0-36.9-8.3-49.2-22.6l-149.3-174c-16.6-19.4-2.9-49.4,22.7-49.4H360
						c19.7,0,38.4,9,50.7,24.4l137.7,173C564,582.5,550.1,611.4,525,611.4z M841.7,203.7H485.4l111.8,161.8h229.5
						c10.8,0,20.8,5.9,26.1,15.3l104.1,186.2c11.1,19.9-3.3,44.5-26.1,44.5h-26.6L786.9,418.9H634.1l829.3,1200.6h128.7L935.3,262.4
						C917.9,226.5,881.6,203.7,841.7,203.7z M1841.4,418.9h-154.9c-15.2,0-27.9-11.3-29.7-26.4l-3.2-27.1h268.5l4.6-161.8l-364.4,0
						c-55.1,0-96.2,50.7-84.9,104.6l41.3,196.1c6.6,31.3,34.2,53.7,66.1,53.7h191.7l1.2,21.8c1,17.2-12.7,31.6-29.8,31.6h-206.7
						l212.3,1008.1h133.1L1918.3,498C1919.6,454.7,1884.8,418.9,1841.4,418.9z M2306.6,418.9H2182c-18.4,0-32.4-16.4-29.5-34.6
						l3-18.8h233l47-161.8h-357.7c-45.7,0-83.6,35.4-86.7,81l-14.3,212.7c-2.2,32.8,23.8,60.6,56.7,60.6h133l-5.4,29
						c-2.6,14.2-15,24.5-29.4,24.5h-162.6l-67.9,1008.1h123.1l330.1-1136.9C2363.7,450.7,2339.8,418.9,2306.6,418.9z M2613.4,611.4
						c-21.8,0-36.2-22.5-27.2-42.3l5.1-11.1h187.9l80.2-139.1h-158.1c-21.8,0-36.2-22.5-27.2-42.3l5.1-11.1h214.2l90.2-161.8
						l-484.6,0L2041,1619.5h126l581.3-1008.1H2613.4z M3346.2,203.7l-165.9,214.8c-5.7,7.3-14.4,11.6-23.7,11.6
						c-24.5,0-38.6-27.8-24.1-47.6l130.9-178.9h-223.3l-184.5,302.3c-16.9,27.7,3,63.3,35.5,63.3h49.4l-726,1050.3h60.4
						l868.5-1050.3h65.7c11.9,0,23.3-5.1,31.2-14.1l309.8-351.4H3346.2z M1389.1,558h40.2c4.7,0,9.2-0.7,13.4-1.9
						c0.8-0.3,1.7-0.5,2.5-0.8c1.6-0.6,3.2-1.3,4.8-2.1c3.1-1.5,6-3.4,8.6-5.6c13.2-10.8,20.2-28.5,15.9-46.8l-70.2-297.2l-178.5,0
						l57.3,176.1c1.4,4.2,1.8,8.5,1.3,12.5c-0.1,0.6-0.1,1.2-0.2,1.7c-2,11.4-10.6,21.1-22.2,24c-1.7,0.4-3.6,0.7-5.4,0.8
						c-0.6,0-1.3,0.1-1.9,0.1h-4.7c-0.8,0-1.6,0-2.3-0.1c-6.9-0.5-13.3-3.5-18.2-8.1c-0.5-0.5-1.1-1.1-1.6-1.6
						c-2.5-2.8-4.6-6.1-5.9-9.7l-36.2-97.9l-36.2-97.9l-188.6,0l138.1,301c6.1,13.2,15,24.5,25.9,33.2c0.8,0.7,1.7,1.3,2.5,2
						c15.5,11.5,34.6,18.1,54.7,18.1l35.3,0l18.9,47.7l50.9,128.7l350,885.1h63.6l-284.2-967.8L1389.1,558z"/>
				</g>
			</g>
			<path class="st0" d="M3769.6,109.8H3664l-46,52.2h151.6l0,0c23.1,0,23.1,34.6,0,34.6l0,0h-136.2l-46,52.2l-39.1,44.3l0,0
				l-54.9,62.2h219.2l54.9-62.2h-148.2l39.1-44.3h111.2C3862.3,248.9,3862.3,109.8,3769.6,109.8z"/>
			<g>
				<path class="st0" d="M1287.3,734.4L1217.5,558l-35.3,0c-35.7,0-68.2-20.8-83.1-53.3L961,203.7l188.6,0l72.4,195.7
					c4.3,11.7,15.5,19.5,28,19.5h4.7c20.3,0,34.7-19.8,28.4-39.2l-57.3-176.1l178.5,0l70.2,297.2c6.9,29.2-15.2,57.2-45.2,57.2
					l-40.2,0l51.8,176.4"/>
			</g>
			<path class="st0" d="M3180.2,418.5c-5.7,7.3-14.4,11.6-23.7,11.6c-24.5,0-38.6-27.8-24.1-47.6l130.9-178.9h-223.3l-184.5,302.3
				c-16.9,27.7,3,63.3,35.5,63.3h49.4l-114.2,165.2h180.5l136.6-165.2h65.7c11.9,0,23.3-5.1,31.2-14.1l309.8-351.4h-203.9
				L3180.2,418.5z"/>
			<path class="st0" d="M2327.3,734.4h350.2l70.9-123h-134.9c-21.8,0-36.2-22.5-27.2-42.3l5.1-11.1h187.9l80.2-139.1h-158.1
				c-21.8,0-36.2-22.5-27.2-42.3l5.1-11.1h214.2l90.2-161.8l-484.6,0L2327.3,734.4z"/>
			<path class="st0" d="M1991.1,284.7l-14.3,212.7c-2.2,32.8,23.8,60.6,56.7,60.6h133l-5.4,29c-2.6,14.2-15,24.5-29.4,24.5h-162.6
				l-8.3,123h289.2c18.5,0,34.8-12.2,39.9-30l64.4-221.8c9.3-31.9-14.7-63.7-47.8-63.7H2182c-18.4,0-32.4-16.4-29.5-34.6l3-18.8h233
				l47-161.8h-357.7C2032,203.7,1994.2,239.1,1991.1,284.7z"/>
			<path class="st0" d="M1477.4,308.2l41.3,196.1c6.6,31.3,34.2,53.7,66.1,53.7h191.7l1.2,21.8c1,17.2-12.7,31.6-29.8,31.6h-206.7
				l25.9,123h304.1c22.5,0,40.9-17.9,41.6-40.4l5.5-196c1.2-43.3-33.6-79.1-76.9-79.1h-154.9c-15.2,0-27.9-11.3-29.7-26.4l-3.2-27.1
				h268.5l4.6-161.8l-364.4,0C1507.2,203.7,1466.1,254.3,1477.4,308.2z"/>
			<path class="st0" d="M935.3,262.4c-17.4-35.9-53.7-58.7-93.6-58.7H485.4l111.8,161.8h229.5c10.8,0,20.8,5.9,26.1,15.3
				l104.1,186.2c11.1,19.9-3.3,44.5-26.1,44.5h-26.6L786.9,418.9H634.1L852,734.4h245.4c30.7,0,50.8-32.1,37.4-59.7L935.3,262.4z"/>
			<path class="st0" d="M463.8,256.8c-24.1-33.3-62.7-53.1-103.8-53.1H29.6c-26,0-39.3,31-21.5,49.9l423.2,448.3
				c19.6,20.8,46.9,32.5,75.4,32.5h98.9c84.6,0,133.7-95.9,84.1-164.5L463.8,256.8z M525,611.4c-18.9,0-36.9-8.3-49.2-22.6
				l-149.3-174c-16.6-19.4-2.9-49.4,22.7-49.4H360c19.7,0,38.4,9,50.7,24.4l137.7,173C564,582.5,550.1,611.4,525,611.4z"/>
		</g>
	</g>
</g>
</svg>
