<?xml version="1.0" encoding="utf-8"?>
<!-- Generator: Adobe Illustrator 25.4.1, SVG Export Plug-In . SVG Version: 6.00 Build 0)  -->
<svg version="1.1" id="Layer_1" xmlns="http://www.w3.org/2000/svg" xmlns:xlink="http://www.w3.org/1999/xlink" x="0px" y="0px"
	 viewBox="0 0 3839 779.8" style="enable-background:new 0 0 3839 779.8;" xml:space="preserve">
<style type="text/css">
	.st0{fill:#FFFFFF;}
	.st1{fill:#666666;}
	.st2{fill:#91C93D;}
	.st3{fill:#999999;}
	.st4{clip-path:url(#SVGID_00000011003897256055976820000008463984809428688545_);}
	.st5{clip-path:url(#SVGID_00000053505841247460991800000004000055469948780177_);}
	.st6{clip-path:url(#SVGID_00000159440010869595480740000003038797547723871120_);}
	.st7{clip-path:url(#SVGID_00000127726987858454487890000016965778506035396501_);}
	.st8{fill:url(#SVGID_00000145054467903166903080000005205088405411437195_);}
	.st9{fill:url(#SVGID_00000050632622455029441070000003962469251791225010_);}
	.st10{fill:url(#SVGID_00000042729952189960375740000014212102334206848942_);}
	.st11{fill:url(#SVGID_00000089566020647710283940000007727802922361385650_);}
	.st12{opacity:0.8;fill:url(#SVGID_00000063607043525760097760000002520673327962168752_);}
	.st13{opacity:0.55;fill:url(#SVGID_00000008119681165986054730000018139868850262363056_);}
	.st14{fill:url(#SVGID_00000064350702404121645370000013817449049087736712_);}
	.st15{fill:url(#SVGID_00000081635380219659581770000010849221546570358701_);}
	.st16{clip-path:url(#SVGID_00000060726522760271201890000004658390421978340284_);}
	.st17{fill:url(#SVGID_00000121981893830913715540000005054590958240214938_);}
	.st18{fill:url(#SVGID_00000130627782673503110780000014053079587016938905_);}
	.st19{fill:url(#SVGID_00000054245824836095999760000002722106652357138587_);}
	.st20{opacity:0.8;fill:url(#SVGID_00000048487465695582560200000000474191453632864656_);}
	.st21{opacity:0.55;fill:url(#SVGID_00000173865897892780066040000016260143778515657600_);}
	.st22{fill:url(#SVGID_00000111899977850964347270000008290861673878828989_);}
	.st23{fill:url(#SVGID_00000016037947204348989110000004147656766861964215_);}
	.st24{clip-path:url(#SVGID_00000112621968076946702470000009745361283907963290_);}
	.st25{fill:#BFBDBE;}
	.st26{fill:url(#SVGID_00000168827345228297329280000010225242716211067284_);}
	.st27{fill:url(#SVGID_00000094586700803483120630000018046284043161428885_);}
	.st28{opacity:0.8;fill:url(#SVGID_00000139295493802655320430000008470427466084087979_);}
	.st29{opacity:0.55;fill:url(#SVGID_00000073695387494037899840000017131589871538438272_);}
	.st30{fill:url(#SVGID_00000140721297036030431370000005523175962860205461_);}
	.st31{fill:url(#SVGID_00000078738760071530899690000009785535924331836604_);}
	.st32{clip-path:url(#SVGID_00000075165041691500224000000017372935064703951489_);}
	.st33{clip-path:url(#SVGID_00000127031069556127281690000016096747047249928328_);}
	.st34{fill:url(#SVGID_00000120553977173077172340000004245241466281596068_);}
	.st35{fill:url(#SVGID_00000164488684395884398110000013862983515500360122_);}
	.st36{fill:url(#SVGID_00000128448022791106394790000007355552091703098303_);}
	.st37{opacity:0.8;fill:url(#SVGID_00000013151256361551190510000018086781690712340866_);}
	.st38{opacity:0.55;fill:url(#SVGID_00000113328950648721703800000002489429154095689894_);}
	.st39{fill:url(#SVGID_00000026856752396970013570000008353869629024938679_);}
	.st40{fill:url(#SVGID_00000059309263307435001770000014755784438694181556_);}
	.st41{clip-path:url(#SVGID_00000010305141608897261770000017769315422732640908_);}
	.st42{clip-path:url(#SVGID_00000091702075458931633980000015527518595144327839_);}
	.st43{opacity:0.5;fill:url(#SVGID_00000121978392769702690720000014313173666460262582_);}
	.st44{opacity:0.5;fill:url(#SVGID_00000010990250753423652690000012874478826021083308_);}
	.st45{opacity:0.5;fill:url(#SVGID_00000110434705227024116570000014564102972617244841_);}
	.st46{clip-path:url(#SVGID_00000172424409583657447800000015628427619920737971_);}
	.st47{opacity:0.5;fill:url(#SVGID_00000006688523671297211720000016937103666270068096_);}
	.st48{clip-path:url(#SVGID_00000088124815320304968300000018438409447336797067_);}
	.st49{clip-path:url(#SVGID_00000106854391174777803660000003380004948905185183_);}
	.st50{clip-path:url(#SVGID_00000150091905694904093530000010223507699164749722_);}
	.st51{clip-path:url(#SVGID_00000023255957556488464650000001374175641880637364_);}
	.st52{fill:url(#SVGID_00000121248086753278100250000004575209834138060939_);}
	.st53{fill:url(#SVGID_00000035528839149401052500000013425412466039833770_);}
	.st54{fill:url(#SVGID_00000086674622030658231510000018118647075962773656_);}
	.st55{fill:url(#SVGID_00000100343564973129034930000002629092030482728889_);}
	.st56{opacity:0.8;fill:url(#SVGID_00000163755888944015220070000013588114218472424880_);}
	.st57{opacity:0.55;fill:url(#SVGID_00000072975837802656655940000001043973004909857429_);}
	.st58{fill:url(#SVGID_00000158022552554185624720000001442752151982964610_);}
	.st59{fill:url(#SVGID_00000123434814799395784660000018317903837678501283_);}
	.st60{clip-path:url(#SVGID_00000130641912208877506930000008050958960609992333_);}
	.st61{fill:url(#SVGID_00000048499472963442877330000015923740599050522022_);}
	.st62{fill:url(#SVGID_00000161589301537341718830000004563325554695587498_);}
	.st63{fill:url(#SVGID_00000092450896127566722030000015688428729073435297_);}
	.st64{opacity:0.8;fill:url(#SVGID_00000134967332313195402770000003122717406158471601_);}
	.st65{opacity:0.55;fill:url(#SVGID_00000175295087838173471700000014302504456049670072_);}
	.st66{fill:url(#SVGID_00000175297525402785604050000010673984230393117104_);}
	.st67{fill:url(#SVGID_00000176010974354996932630000014113584234161695166_);}
	.st68{clip-path:url(#SVGID_00000174576110081921384730000001517854609783434147_);}
	.st69{fill:url(#SVGID_00000052794238194187520000000010204512193997293719_);}
	.st70{fill:url(#SVGID_00000082338517415162804600000007922999721992415676_);}
	.st71{opacity:0.8;fill:url(#SVGID_00000135690702346613673200000017690236121407973005_);}
	.st72{opacity:0.55;fill:url(#SVGID_00000041987845804147652220000012324153416737431170_);}
	.st73{fill:url(#SVGID_00000002359529763288485750000007597660426974923446_);}
	.st74{fill:url(#SVGID_00000014604068388549628280000006536846065659557527_);}
	.st75{clip-path:url(#SVGID_00000021101930997483676080000016405881467218096063_);}
	.st76{clip-path:url(#SVGID_00000121241481918139398090000003612821731467873152_);}
	.st77{clip-path:url(#SVGID_00000165912796915866486690000006738520880904368522_);}
	.st78{clip-path:url(#SVGID_00000114774089045576628260000011653586204611814334_);}
	.st79{clip-path:url(#SVGID_00000008111087221524631340000012476273184565220010_);}
	.st80{fill:url(#SVGID_00000163792020289087678110000009524080095976666255_);}
	.st81{fill:url(#SVGID_00000031888827157503629780000017354391962343447171_);}
	.st82{fill:url(#SVGID_00000160167812689511354310000002813168798247751323_);}
	.st83{fill:url(#SVGID_00000041982432519639790110000015530015227809346691_);}
	.st84{opacity:0.8;fill:url(#SVGID_00000176738230662484527410000013989316093705390727_);}
	.st85{opacity:0.55;fill:url(#SVGID_00000021104805436992212360000014939597054636507054_);}
	.st86{fill:url(#SVGID_00000149371237605886646760000008165085696880060544_);}
	.st87{fill:url(#SVGID_00000142896230350530455470000004277139776462155934_);}
	.st88{clip-path:url(#SVGID_00000042699035906909010920000009004394266382021030_);}
	.st89{fill:url(#SVGID_00000158027798361297671140000000300875972156752318_);}
	.st90{fill:url(#SVGID_00000111165830938828206090000015172232826513599361_);}
	.st91{fill:url(#SVGID_00000018941247835407058630000007494211570372936864_);}
	.st92{opacity:0.8;fill:url(#SVGID_00000025409229331400837410000005446131527043290279_);}
	.st93{opacity:0.55;fill:url(#SVGID_00000124845979532741307810000015687684410246188162_);}
	.st94{fill:url(#SVGID_00000033342218444751226490000002736483119953474480_);}
	.st95{fill:url(#SVGID_00000098207074263462067510000003211098406675711156_);}
	.st96{clip-path:url(#SVGID_00000088094900670213954810000016028097598034292627_);}
	.st97{fill:url(#SVGID_00000083784450668927446630000009257287199247046587_);}
	.st98{fill:url(#SVGID_00000009570702009001511260000004299062942028552891_);}
	.st99{opacity:0.8;fill:url(#SVGID_00000099642685799213550350000010603472881932738180_);}
	.st100{opacity:0.55;fill:url(#SVGID_00000093169425871444268630000012574966306379360687_);}
	.st101{fill:url(#SVGID_00000108295733293631533690000017722047877614440634_);}
	.st102{fill:url(#SVGID_00000153705177699958182270000012140257819843141308_);}
	.st103{clip-path:url(#SVGID_00000163786327022087771890000002800330284734558601_);}
	.st104{clip-path:url(#SVGID_00000134955942528442008720000013763691537230431887_);}
	.st105{fill:url(#SVGID_00000022529653592994395820000012410606794802229942_);}
	.st106{fill:url(#SVGID_00000173871728906647575880000015028414562405001908_);}
	.st107{fill:url(#SVGID_00000049196719717546045730000001548257418538475652_);}
	.st108{opacity:0.8;fill:url(#SVGID_00000134959102563352733500000002049381719958691718_);}
	.st109{opacity:0.55;fill:url(#SVGID_00000163044586378118220040000013099379319334110396_);}
	.st110{fill:url(#SVGID_00000042718061728550533230000012019646415532659134_);}
	.st111{fill:url(#SVGID_00000026137099755866822140000017445697896132101276_);}
	.st112{clip-path:url(#SVGID_00000070812859128893988550000009932230669284646838_);}
	.st113{clip-path:url(#SVGID_00000067957871384143265530000014756177516017739934_);}
	.st114{opacity:0.5;fill:url(#SVGID_00000041294974217411114220000008820188785364381875_);}
	.st115{opacity:0.5;fill:url(#SVGID_00000096059491778102028280000007409880726514725294_);}
	.st116{opacity:0.5;fill:url(#SVGID_00000158023569711377347430000006218383664043748533_);}
	.st117{clip-path:url(#SVGID_00000109011185829547457800000016953434640232106661_);}
	.st118{opacity:0.5;fill:url(#SVGID_00000053506829460825068160000015997194386195713687_);}
	.st119{clip-path:url(#SVGID_00000183248943840886823630000010184495221651753910_);}
	.st120{clip-path:url(#SVGID_00000161630536185147055630000001931948141055253403_);}
	.st121{clip-path:url(#SVGID_00000155832556785385424560000009359034841339596959_);}
	.st122{clip-path:url(#SVGID_00000038395105435485768910000000319535392986902684_);}
	.st123{fill:url(#SVGID_00000071561135288623433900000014005805879834999976_);}
	.st124{fill:url(#SVGID_00000080893736946232389000000008114420872478134935_);}
	.st125{fill:url(#SVGID_00000041981497865155002340000012155984412871959181_);}
	.st126{fill:url(#SVGID_00000023254659918886609480000008506980929984703422_);}
	.st127{opacity:0.8;fill:url(#SVGID_00000098178666105350434840000008209625340524025786_);}
	.st128{opacity:0.55;fill:url(#SVGID_00000069370898711494561100000011514565849414974382_);}
	.st129{fill:url(#SVGID_00000088110749019168318010000011533474865522295969_);}
	.st130{fill:url(#SVGID_00000057118501006541077890000008099285843218388372_);}
	.st131{clip-path:url(#SVGID_00000135652313359637201030000013342757449007244715_);}
	.st132{fill:url(#SVGID_00000079458131968910765890000006449500434111336340_);}
	.st133{fill:url(#SVGID_00000027582589438301124930000016832211033779438208_);}
	.st134{fill:url(#SVGID_00000174569038312027687020000011718608862183827619_);}
	.st135{opacity:0.8;fill:url(#SVGID_00000015340367917763479130000015125526933110297262_);}
	.st136{opacity:0.55;fill:url(#SVGID_00000124137841992233438330000008687129586026658702_);}
	.st137{fill:url(#SVGID_00000108267644492191152800000007814043277164090003_);}
	.st138{fill:url(#SVGID_00000139985716028293901310000011556729509957978812_);}
	.st139{clip-path:url(#SVGID_00000022540763012285699820000015797204248136563358_);}
	.st140{fill:url(#SVGID_00000013888219119424594320000005083434011914993577_);}
	.st141{fill:url(#SVGID_00000183943329992822737790000011664830241151025838_);}
	.st142{opacity:0.8;fill:url(#SVGID_00000169545501682418094510000006205915107123209905_);}
	.st143{opacity:0.55;fill:url(#SVGID_00000074417133879794318480000000702336231434111898_);}
	.st144{fill:url(#SVGID_00000178186342260496842880000018305871082281799341_);}
	.st145{fill:url(#SVGID_00000101065787786201228210000000676584167824075705_);}
	.st146{clip-path:url(#SVGID_00000121280234908995584400000014421029750909228941_);}
	.st147{clip-path:url(#SVGID_00000038410016662117617780000015693255316585879692_);}
	.st148{fill:url(#SVGID_00000093157158159295789320000005000707706450518676_);}
	.st149{fill:url(#SVGID_00000098200089742859558900000003729604970161367175_);}
	.st150{fill:url(#SVGID_00000030445133927089271450000004963542325404125094_);}
	.st151{opacity:0.8;fill:url(#SVGID_00000137093489340989604260000007153466173738387893_);}
	.st152{opacity:0.55;fill:url(#SVGID_00000060721586212298676280000002557024471272358047_);}
	.st153{fill:url(#SVGID_00000107549443588959245690000004192480113130394545_);}
	.st154{fill:url(#SVGID_00000018928622028775793230000006513871208953448870_);}
	.st155{clip-path:url(#SVGID_00000078028707629002137750000013941869977855314823_);}
	.st156{clip-path:url(#SVGID_00000105422138651021193480000012462735388926199487_);}
	.st157{opacity:0.5;fill:url(#SVGID_00000057857404907943510430000010876135525109924284_);}
	.st158{opacity:0.5;fill:url(#SVGID_00000012464742357810781780000016307503516685620661_);}
	.st159{opacity:0.5;fill:url(#SVGID_00000046314243056670774810000008467914428673449646_);}
	.st160{clip-path:url(#SVGID_00000098926719258475565060000000814182181351917242_);}
	.st161{opacity:0.5;fill:url(#SVGID_00000031886458482105975260000018249384026909505449_);}
	.st162{clip-path:url(#SVGID_00000176007571211888114820000015035883349822896513_);}
	.st163{fill:url(#SVGID_00000020398301532104303270000012534429881239242629_);}
	.st164{fill:url(#SVGID_00000075846114989643921660000004282877886970500238_);}
	.st165{fill:url(#SVGID_00000116917323358422806720000001145249182559007367_);}
	.st166{opacity:0.8;fill:url(#SVGID_00000172440847691623724320000014133537971982584967_);}
	.st167{opacity:0.55;fill:url(#SVGID_00000168110083042877396990000017529643264642608770_);}
	.st168{fill:url(#SVGID_00000016774146080305561250000001425645789940161920_);}
	.st169{fill:url(#SVGID_00000049943391753082022610000014520334887437343913_);}
	.st170{clip-path:url(#SVGID_00000043423629142571996990000012447714856646714514_);}
	.st171{clip-path:url(#SVGID_00000083782300362109343100000003038020328470042303_);}
	.st172{opacity:0.5;fill:url(#SVGID_00000087375437551998570760000010868159884130438812_);}
	.st173{opacity:0.5;fill:url(#SVGID_00000068676340076303138250000008817537995327966858_);}
	.st174{opacity:0.5;fill:url(#SVGID_00000035523878749727112600000016230109392731370407_);}
	.st175{clip-path:url(#SVGID_00000085965183582599294290000006562639159183814542_);}
	.st176{opacity:0.5;fill:url(#SVGID_00000001665327632239882680000007268903694329672875_);}
	.st177{fill:#9DA0A3;}
	.st178{fill:#107C10;}
	.st179{opacity:0.49;}
	.st180{clip-path:url(#SVGID_00000075121473328648711620000014141038623458427313_);}
	.st181{clip-path:url(#SVGID_00000108989869850618566420000004731130509901070260_);}
	.st182{fill:url(#SVGID_00000049901854676105952970000003730154715075597486_);}
	.st183{opacity:0.15;fill:#FFFFFF;}
	.st184{opacity:7.000000e-02;fill:#FFFFFF;}
	.st185{clip-path:url(#SVGID_00000031899577717328860270000009316428425121105053_);}
	.st186{fill:url(#SVGID_00000060752955073381368220000005588787845127005353_);}
	.st187{clip-path:url(#SVGID_00000142888768997848552810000000253383126951096977_);}
	.st188{fill:url(#SVGID_00000067225501975752131230000001605513180367881647_);}
	.st189{opacity:7.000000e-02;fill:url(#SVGID_00000056416858306793074200000009790618883730423968_);}
	.st190{clip-path:url(#SVGID_00000004505469474280623060000013389909443401100198_);}
	.st191{fill:url(#SVGID_00000123418477834835312940000006456210357388204961_);}
	.st192{fill:url(#SVGID_00000033332931406354568450000000514094713009146521_);}
	.st193{fill:url(#SVGID_00000181070985330884428500000007702953763435516851_);}
	.st194{fill:url(#SVGID_00000173118863171115108390000004067093158220249019_);}
	.st195{fill:url(#SVGID_00000032638827840665308670000009904461287717534596_);}
	.st196{fill:url(#SVGID_00000177471045324918621050000013326793027996193705_);}
	.st197{fill:url(#SVGID_00000092416825952887358240000017830395391145906062_);}
	.st198{fill:url(#SVGID_00000122690225482171288320000007563914249382389153_);}
	.st199{clip-path:url(#SVGID_00000165935173234666449000000004862175032903002289_);}
	.st200{clip-path:url(#SVGID_00000152963322025781856680000007114260571387902370_);}
	.st201{fill:url(#SVGID_00000002385338250036752080000011937454038820411279_);}
	.st202{clip-path:url(#SVGID_00000130624074453530000400000011251019617555142544_);}
	.st203{fill:url(#SVGID_00000088812334478481071810000016496487494388097449_);}
	.st204{clip-path:url(#SVGID_00000101105245822483962270000005794998686738051251_);}
	.st205{fill:url(#SVGID_00000033344120044009211200000008382015331779503022_);}
	.st206{opacity:7.000000e-02;fill:url(#SVGID_00000067231580835486993310000018427755020293940869_);}
	.st207{clip-path:url(#SVGID_00000090289753715330999070000006686693344633455768_);}
	.st208{fill:url(#SVGID_00000160166169599543886830000006803691331598462907_);}
	.st209{fill:url(#SVGID_00000017498978593815207100000011623288307838728611_);}
	.st210{fill:url(#SVGID_00000060731118860201767230000005551964631956571536_);}
	.st211{fill:url(#SVGID_00000052782201196929992330000010073806709877449607_);}
	.st212{fill:url(#SVGID_00000117655738944100193700000008525294121054701482_);}
	.st213{fill:url(#SVGID_00000181076641779218074290000006128259506634511495_);}
	.st214{fill:url(#SVGID_00000008137350038967758770000009208842034937658254_);}
	.st215{fill:url(#SVGID_00000129907721820227893350000006504526955786311328_);}
	.st216{clip-path:url(#SVGID_00000054267789203869323800000012698780122489566115_);}
	.st217{clip-path:url(#SVGID_00000021078652925019265770000013869248081490957998_);}
	.st218{fill:url(#SVGID_00000052797438446730706190000008316323683260873384_);}
	.st219{clip-path:url(#SVGID_00000085249179086306340310000006402424777917491859_);}
	.st220{fill:url(#SVGID_00000095326972602255568710000004933922155041804975_);}
	.st221{clip-path:url(#SVGID_00000054224253281609282500000012248739274865862035_);}
	.st222{fill:url(#SVGID_00000137090856440764968630000000761475349525448098_);}
	.st223{opacity:7.000000e-02;fill:url(#SVGID_00000126294952285495881020000003952725577913559697_);}
	.st224{clip-path:url(#SVGID_00000017489046971923234900000012365235670724594056_);}
	.st225{fill:url(#SVGID_00000137109412412518324810000017387692474817023923_);}
	.st226{fill:url(#SVGID_00000031930106946194523290000011911170554615109256_);}
	.st227{fill:url(#SVGID_00000005235179156875795370000000608056763786587818_);}
	.st228{fill:url(#SVGID_00000173121520615004097650000002067590325070665643_);}
	.st229{fill:url(#SVGID_00000027598618947825776180000015099941916010178192_);}
	.st230{fill:url(#SVGID_00000146480082581721139330000016107669389872361893_);}
	.st231{fill:url(#SVGID_00000022536985992450339940000006529853547977213856_);}
	.st232{fill:url(#SVGID_00000101796022097506297400000003655153743002254486_);}
	.st233{clip-path:url(#SVGID_00000121237257444526805590000017344359222328905896_);}
	.st234{clip-path:url(#SVGID_00000087383038197751058780000014904886018459260316_);}
	.st235{fill:url(#SVGID_00000055704112168031896050000016786591487077672606_);}
	.st236{clip-path:url(#SVGID_00000174569752249453007790000005663948828401434507_);}
	.st237{fill:url(#SVGID_00000093872982953116756380000013364998970051121297_);}
	.st238{clip-path:url(#SVGID_00000175286518071271407650000008328053102413184156_);}
	.st239{fill:url(#SVGID_00000171697457224809143800000012585244931437865399_);}
	.st240{opacity:7.000000e-02;fill:url(#SVGID_00000094595501186159969590000011527279965781433529_);}
	.st241{clip-path:url(#SVGID_00000178893409625540106630000002970555867029366145_);}
	.st242{fill:url(#SVGID_00000062887914981807619750000015465253554759857076_);}
	.st243{fill:url(#SVGID_00000048496640345681823270000017198614452312064904_);}
	.st244{fill:url(#SVGID_00000007396628979660304130000012693292982927612038_);}
	.st245{fill:url(#SVGID_00000158029565549652730560000005896326747107918525_);}
	.st246{fill:url(#SVGID_00000027574959397547298970000013421705571306776965_);}
	.st247{fill:url(#SVGID_00000002378392547558809000000004712242307518177934_);}
	.st248{fill:url(#SVGID_00000120560476734007538490000005793879587684180627_);}
	.st249{fill:url(#SVGID_00000009564805848177300080000013152612417662102155_);}
</style>
<g>
	<g>
		<g>
			<path class="st0" d="M3590.5,151.3c-111,0-174.7,89.4-174.7,245.2c0,155.7,63.7,245.1,174.7,245.1c63.3,0,110.3-27.6,140.2-81.8
				c28.4-51.7,34.4-117.4,34.4-163.3C3765.1,322.8,3748,151.3,3590.5,151.3 M3590.5,599.7c-31.7,0-58-10.4-78.2-30.5
				c-44.5-44.7-51.3-127.4-51.3-172.7c0-61.1,12.7-203.2,129.5-203.2s129.3,142.1,129.3,203.2
				C3719.8,457.6,3707.3,599.7,3590.5,599.7 M3215.3,313.2c-50.7,0-97,24.7-125.5,65.5c6-88.8,34.5-185.4,130.9-185.4
				c53.8,0,94.7,35.1,103.8,89.6l1.4,8.6h44.8l-1.2-11.4c-8.9-79.4-65.9-128.8-148.8-128.8c-146.7,0-177.4,145.5-177.4,267.4
				c0,145.8,59.5,222.8,172,222.8c92.4,0,162.3-70,162.3-162.8C3377.6,382.8,3309.3,313.2,3215.3,313.2 M3215.3,599.7
				c-66.3,0-118.3-53.2-118.3-120.9c0-70.5,51-123.6,118.3-123.6c30.2,0,58.9,11.8,80.2,33.3c23.4,23.2,36.6,56.2,36.6,90.3
				C3332.2,546.5,3280.9,599.7,3215.3,599.7 M3008.1,497c0,87.3-65,143.7-165.5,143.7c-54.5,0-98.8-16.2-128.1-47
				c-28-29.3-41.6-71.4-39.4-121.6l0.4-9.6h45.3l-0.3,10.5c-1.6,37.8,8.8,69.6,29.9,91.6c21.5,22.2,53.5,34.2,92.2,34.2
				c59.8,0,120.1-35.1,120.1-101.9c0-27.7-8.4-49.6-25.4-65.4c-20.4-19.1-53.3-27.8-94.9-28.3h-31.6c-0.2-11-0.2-32.9,0-44.2
				c11.5-0.1,23.4-0.2,31.4-0.2c22.1,0,65.1-5.6,88.4-27.9c14.3-13.7,21.8-32.6,21.8-55.8c0-54.3-55.3-82.7-109.8-82.7
				c-54,0-94.7,35.2-103.9,89.7l-1.4,8.5h-45l1.3-11.3c8.9-79.4,66.1-128.9,149-128.9c50.7,0,95.4,15.7,122.7,43
				c21.3,21.4,32.3,48.9,32.3,81.7c0,46.5-25.1,86-64.7,104.2C2979.4,398,3008.1,441.8,3008.1,497"/>
			<path class="st0" d="M2503,629.9l-149.3-202.8l-149.3,202.8h-61.4l179.5-245l-163.9-222.6h61.5l133.6,181.5l133.6-181.5h61.4
				l-163.9,222.5l179.6,245H2503z M1339.1,629.9l-179.6-245l163.9-222.5h-61.4L1128.3,344L994.8,162.4h-61.3l163.9,222.5l-179.7,245
				h61.5l149.2-202.7l149.3,202.7H1339.1z M1721.2,493.3c0,84.3-63.8,136.6-166.8,136.6l-189.8-0.1V410.8h-97.2
				c7.1-10.6,25.7-36.3,33.9-46.9h63.3V162.4h189.8c141,0,152,97.3,152,127.2c0,40.4-22.2,75.2-56.2,93.6
				c10.3,4.7,20.9,11.1,30.7,19.5C1707.3,425.3,1721.2,456.6,1721.2,493.3 M1417.1,363.9h137.3c63.2,0,99.5-29.3,99.5-78.5
				c0-65-62.2-74.4-99.5-74.4h-137.3V363.9z M1668.8,492.4c0-67.1-62.2-81.5-114.4-81.5h-137.3v170.2h137.3
				C1597.2,581.1,1668.8,569.5,1668.8,492.4 M2190.9,395.9c0,144-91.5,244.4-222.7,244.4c-131.3,0-223.1-100.4-223.1-244.4
				c0-143.8,91.8-244.3,223.1-244.3C2099.4,151.6,2190.9,252,2190.9,395.9 M2137.8,395.9c0-114.8-69.8-194.9-169.6-194.9
				c-100.1,0-170.2,80.1-170.2,194.9s70.1,194.9,170.2,194.9C2068,590.8,2137.8,510.6,2137.8,395.9"/>
		</g>
	</g>
	<g>
		<path d="M485.3,220.1c-1.4-1.5-2.6-2.8-3.6-3.9c0,0,0,0,0,0c-0.9-1-1.7-1.8-2.2-2.3c0,0-0.1-0.1-0.1-0.1c-0.2-0.2-0.4-0.4-0.5-0.5
			c0,0,0,0-0.1-0.1c-0.1-0.1-0.2-0.2-0.2-0.2l0,0l0,0c0,0,87.3-101.7,153.6-118.4c-47.7-103.1-242.4,44.7-242.4,44.7v157.9
			c34,26.1,66,52.7,95.6,79.3h120.3C557.5,300.8,503.8,240.2,485.3,220.1C485.3,220.1,485.3,220.1,485.3,220.1z"/>
		<path d="M389.9,139.3c0,0-194.7-147.9-242.4-44.7C213.8,111.3,301.1,213,301.1,213h0h0c0,0-0.1,0.1-0.2,0.2c0,0,0,0-0.1,0.1
			c-0.1,0.1-0.3,0.3-0.5,0.5c0,0-0.1,0.1-0.1,0.1c-0.5,0.5-1.2,1.3-2.2,2.3c0,0,0,0,0,0c-1,1-2.2,2.3-3.6,3.9c0,0,0,0,0,0
			C276,240.2,222.3,300.8,174,376.5h120.3c29.5-26.6,61.6-53.2,95.6-79.3V139.3z"/>
		<path class="st0" d="M389.9,297.2c-162.4,124.7-280.5,261-292.3,350.7c71.4,80.9,175.9,131.9,292.3,131.9s220.8-51,292.3-131.9
			C670.4,558.2,552.2,421.9,389.9,297.2z"/>
		<path class="st0" d="M389.9,0c-81.1,0-156.4,24.8-218.8,67.2c69-41.6,218.8,72.1,218.8,72.1S539.7,25.6,608.7,67.2
			C546.3,24.8,471,0,389.9,0z"/>
		<path class="st0" d="M0,389.9C0,483.3,32.9,569,87.6,636.1C67.7,455.5,301.1,213,301.1,213S204.8,100.7,137.6,92.7l0,0
			C53.4,164.2,0,270.8,0,389.9z"/>
		<path class="st0" d="M692.1,636.2c54.8-67.1,87.6-152.9,87.6-246.3c0-119.1-53.4-225.7-137.6-297.2l0,0
			C575,100.7,478.7,213,478.7,213S712.1,455.6,692.1,636.2z"/>
		<path d="M99.5,636.9c0.2-0.8,0.4-1.7,0.6-2.5c0.5-2,1-4,1.5-6c0.4-1.3,0.7-2.6,1.1-3.9c0.6-2,1.3-4.1,2-6.1
			c0.3-0.8,0.4-1.5,0.7-2.2c0.3-0.8,0.7-1.8,1-2.9c0.4-1.2,0.9-2.4,1.4-3.7c1.2-3.2,2.4-6,2.4-6c0,0,0,0,0,0
			C142.5,526.7,229,428.7,343.7,334l0,0l-42.6-121c0,0-233.3,242.6-213.4,423.1C90.5,639.5,98.6,641.2,99.5,636.9z"/>
		<path d="M478.7,213l-42.6,121l0,0l0,0c131.1,108.2,225.2,220.7,243.7,301c0.2,0.6,0.4,1.2,0.5,1.9c0.9,4.4,9,2.7,11.9-0.7
			C712.1,455.6,478.7,213,478.7,213z"/>
	</g>
	<g>
		<path class="st0" d="M3797.4,559.7c-22.9,0-41.5,18.6-41.5,41.5s18.6,41.5,41.5,41.5c22.9,0,41.5-18.6,41.5-41.5
			S3820.4,559.7,3797.4,559.7z M3797.4,633c-17.5,0-31.8-14.2-31.8-31.8c0-17.5,14.2-31.8,31.8-31.8c17.5,0,31.8,14.2,31.8,31.8
			C3829.2,618.8,3815,633,3797.4,633z"/>
		<g>
			<polygon class="st0" points="3817.7,625.3 3817.7,625.3 3817.7,625.3 			"/>
		</g>
		<path class="st0" d="M3804.4,603.8c6.7-0.5,11.9-3.7,11.9-12.1c0-9.8-6.4-13.3-17.8-13.3h-17.2v45.2h9v-19.3h5.7l11,19.3h9.4
			L3804.4,603.8z M3790.4,597.3v-11.8h7.6c4.1,0,9.2,0.7,9.2,5.6c0,5.6-3.7,6.2-8.8,6.2H3790.4z"/>
	</g>
	<g>
		<path class="st0" d="M707,0c-22.9,0-41.5,18.6-41.5,41.5S684.1,83,707,83s41.5-18.6,41.5-41.5S729.9,0,707,0z M707,73.3
			c-17.5,0-31.8-14.2-31.8-31.8S689.5,9.7,707,9.7c17.5,0,31.8,14.2,31.8,31.8S724.6,73.3,707,73.3z"/>
		<g>
			<polygon class="st0" points="727.3,63.6 727.3,63.6 727.2,63.6 			"/>
		</g>
		<path class="st0" d="M713.9,44.1c6.7-0.5,11.9-3.7,11.9-12.1c0-9.8-6.4-13.3-17.8-13.3h-17.2V64h9V44.7h5.7l11,19.3h9.4
			L713.9,44.1z M699.9,37.6V25.7h7.6c4.1,0,9.2,0.7,9.2,5.6c0,5.6-3.7,6.2-8.8,6.2H699.9z"/>
	</g>
</g>
</svg>
