<?xml version="1.0" encoding="utf-8"?>
<!-- Generator: Adobe Illustrator 25.2.3, SVG Export Plug-In . SVG Version: 6.00 Build 0)  -->
<svg version="1.1" id="Layer_1" xmlns="http://www.w3.org/2000/svg" xmlns:xlink="http://www.w3.org/1999/xlink" x="0px" y="0px"
	 viewBox="0 0 3000.5 2159" style="enable-background:new 0 0 3000.5 2159;" xml:space="preserve">
<style type="text/css">
	.st0{fill:#107C10;}
	.st1{fill:#FFFFFF;}
	.st2{fill:#666666;}
	.st3{fill:#999999;}
</style>
<g>
	<polygon class="st1" points="990.6,1617.7 896.7,1617.7 735.3,1395.1 574,1617.7 480,1617.7 688.3,1329.7 496.3,1064.2 
		590.3,1064.2 735.3,1264.4 880.3,1064.2 974.3,1064.2 782.3,1329.7 	"/>
	<path class="st1" d="M1456.4,1378.7c-14.3-22.5-38.8-38.8-69.4-51.1c47-26.6,71.5-67.4,71.5-120.5c0-42.9-14.3-77.6-44.9-104.2
		c-30.6-24.5-73.5-38.8-128.7-38.8h-249.2v234.9h-71.5l-51.1,71.5h122.6v247.2H1295c59.2,0,104.2-14.3,136.9-42.9
		c30.6-26.6,47-65.4,47-114.4C1478.8,1429.8,1470.7,1403.2,1456.4,1378.7z M1119.3,1139.8h159.3c30.6,0,55.1,6.1,71.5,20.4
		c16.3,14.3,24.5,32.7,24.5,57.2c0,28.6-8.2,49-24.5,63.3c-16.3,12.3-38.8,20.4-71.5,20.4h-159.3V1139.8z M1366.5,1521.7
		c-18.4,14.3-42.9,22.5-77.6,22.5h-169.5v-173.6h169.5c34.7,0,61.3,8.2,77.6,22.5c18.4,14.3,26.6,36.8,26.6,65.4
		C1393,1487,1384.9,1507.4,1366.5,1521.7z"/>
	<path class="st1" d="M2028.3,1223.5c-12.3-34.7-30.6-65.4-55.1-91.9c-24.5-26.6-53.1-47-85.8-59.2c-32.7-14.3-69.4-20.4-110.3-20.4
		c-40.9,0-77.6,8.2-110.3,20.4s-61.3,32.7-85.8,59.2c-24.5,26.6-42.9,57.2-55.1,91.9c-12.3,34.7-18.4,73.5-18.4,116.4
		c0,42.9,6.1,81.7,18.4,116.4c12.3,34.7,30.6,65.4,55.1,91.9c24.5,26.6,53.1,47,85.8,59.2c32.7,14.3,69.4,20.4,110.3,20.4
		c40.9,0,77.6-8.2,110.3-20.4c32.7-12.3,61.3-32.7,85.8-59.2s42.9-57.2,55.1-91.9c12.3-34.7,18.4-73.5,18.4-116.4
		C2046.7,1299.1,2040.5,1258.2,2028.3,1223.5z M1911.8,1495.2c-32.7,36.8-77.6,57.2-132.8,57.2c-55.1,0-100.1-18.4-132.8-57.2
		c-34.7-38.8-51.1-89.9-51.1-155.2c0-63.3,16.3-116.4,51.1-155.2c32.7-38.8,77.6-57.2,132.8-57.2c55.1,0,100.1,18.4,132.8,57.2
		c32.7,36.8,49,89.9,49,155.2C1960.9,1405.3,1944.5,1458.4,1911.8,1495.2z"/>
	<polygon class="st1" points="2314.2,1329.7 2506.2,1064.2 2412.3,1064.2 2267.3,1264.4 2122.2,1064.2 2028.3,1064.2 2220.3,1329.7 
		2009.9,1617.7 2103.9,1617.7 2265.2,1395.1 2426.6,1617.7 2520.5,1617.7 	"/>
	<path class="st1" d="M618.9,1760.7h-67.4l-153.2,390.1h61.3l36.8-102.1H670l36.8,102.1H768L618.9,1760.7z M518.8,1997.6l67.4-179.7
		l67.4,179.7H518.8z"/>
	<path class="st1" d="M367.7,1944.5v71.5v134.8l0,0h-55.1v-51.1c-14.3,20.4-32.7,34.7-53.1,44.9c-20.4,10.2-44.9,14.3-73.5,14.3
		s-53.1-4.1-75.6-14.3c-22.5-10.2-42.9-24.5-59.2-42.9c-16.3-18.4-30.6-40.9-38.8-65.4C4.1,2011.9,0,1983.3,0,1954.7
		c0-30.6,4.1-59.2,12.3-83.7c8.2-24.5,22.5-47,38.8-65.4c18.4-16.3,36.8-30.6,61.3-38.8c22.5-10.2,49-14.3,77.6-14.3
		c47,0,87.8,12.3,118.5,36.8c30.6,24.5,49,59.2,55.1,100.1l0,0h-61.3l0,0c-6.1-26.6-18.4-47-38.8-61.3s-44.9-22.5-73.5-22.5
		c-38.8,0-69.4,14.3-91.9,40.9s-34.7,63.3-34.7,110.3s12.3,83.7,34.7,110.3c22.5,26.6,55.1,40.9,94,40.9c32.7,0,63.3-10.2,85.8-30.6
		s34.7-47,36.8-79.7H200.2v-51.1h167.5V1944.5z"/>
	<polygon class="st1" points="1323.6,1813.8 1323.6,1926.1 1517.6,1926.1 1517.6,1975.2 1323.6,1975.2 1323.6,2095.7 1542.1,2095.7 
		1542.1,2148.8 1264.4,2148.8 1264.4,1760.7 1544.2,1760.7 1544.2,1813.8 	"/>
	<path class="st1" d="M1205.1,1760.7v390.1h-57.2v-310.5c-8.2,22.5-16.3,49-28.6,79.7l-87.8,228.8h-49l0,0L892.6,1920
		c-10.2-28.6-20.4-55.1-28.6-79.7v308.4h-57.2v-388.1h81.7l79.7,208.3c16.3,42.9,28.6,77.6,38.8,108.3
		c12.3-34.7,24.5-73.5,40.9-114.4l77.6-202.2L1205.1,1760.7z"/>
	<path class="st1" d="M1956.8,1793.4c-22.5-22.5-57.2-32.7-98-32.7h-165.4v390.1h59.2v-143h106.2c42.9,0,75.6-10.2,98-32.7
		c22.5-22.5,34.7-53.1,34.7-89.9C1993.6,1846.5,1981.3,1815.8,1956.8,1793.4z M1913.9,1938.4c-12.3,12.3-30.6,18.4-55.1,18.4h-106.2
		v-143h106.2c24.5,0,42.9,6.1,55.1,18.4c12.3,12.3,18.4,30.6,18.4,53.1C1932.3,1907.8,1926.1,1926.1,1913.9,1938.4z"/>
	<path class="st1" d="M2653.3,2042.6c0,36.8-14.3,65.4-40.9,85.8s-65.4,30.6-112.3,30.6c-51.1,0-91.9-12.3-120.5-34.7
		c-28.6-22.5-42.9-57.2-42.9-102.1l0,0h59.2l0,0c0,28.6,10.2,51.1,26.6,65.4c18.4,14.3,42.9,22.5,77.6,22.5
		c28.6,0,51.1-6.1,65.4-16.3c14.3-10.2,22.5-26.6,22.5-47c0-16.3-6.1-30.6-18.4-38.8c-12.3-10.2-36.8-18.4-69.4-24.5l-32.7-6.1
		c-40.9-8.2-71.5-20.4-91.9-38.8s-30.6-42.9-30.6-75.6c0-32.7,12.3-57.2,36.8-77.6c24.5-18.4,59.2-28.6,100.1-28.6
		c51.1,0,89.9,10.2,116.4,32.7c26.6,22.5,38.8,53.1,40.9,89.9l0,0h-55.1l0,0c-2-24.5-10.2-42.9-24.5-55.1
		c-14.3-12.3-38.8-18.4-71.5-18.4c-24.5,0-44.9,4.1-59.2,14.3c-12.3,10.2-20.4,22.5-20.4,40.9s6.1,30.6,18.4,40.9
		s34.7,18.4,67.4,24.5l34.7,6.1c44.9,10.2,77.6,22.5,96,40.9C2643.1,1987.4,2653.3,2011.9,2653.3,2042.6z"/>
	<path class="st1" d="M3000.5,2042.6c0,36.8-14.3,65.4-40.9,85.8c-26.6,20.4-65.4,30.6-112.3,30.6c-51.1,0-91.9-12.3-120.5-34.7
		c-28.6-22.5-42.9-57.2-42.9-102.1l0,0h59.2l0,0c0,28.6,10.2,51.1,26.6,65.4c18.4,14.3,42.9,22.5,77.6,22.5
		c28.6,0,51.1-6.1,65.4-16.3c14.3-10.2,22.5-26.6,22.5-47c0-16.3-6.1-30.6-18.4-38.8c-12.3-10.2-36.8-18.4-69.4-24.5l-32.7-6.1
		c-40.9-8.2-71.5-20.4-91.9-38.8s-30.6-42.9-30.6-75.6c0-32.7,12.3-57.2,36.8-77.6c24.5-18.4,59.2-28.6,100.1-28.6
		c51.1,0,89.9,10.2,116.4,32.7s38.8,53.1,40.9,89.9l0,0h-55.1l0,0c-2-24.5-10.2-42.9-24.5-55.1c-14.3-12.3-38.8-18.4-71.5-18.4
		c-24.5,0-44.9,4.1-59.2,14.3c-12.3,10.2-20.4,22.5-20.4,40.9s6.1,30.6,18.4,40.9s34.7,18.4,67.4,24.5l34.7,6.1
		c44.9,10.2,77.6,22.5,96,40.9C2990.3,1987.4,3000.5,2011.9,3000.5,2042.6z"/>
	<path class="st1" d="M2171.3,1760.7h-67.4l-153.2,390.1h61.3l36.8-102.1h173.6l36.8,102.1h61.3L2171.3,1760.7z M2069.1,1997.6
		l67.4-179.7l67.4,179.7H2069.1z"/>
	<g>
		<g>
			<circle cx="1498.2" cy="460.6" r="460.6"/>
			<circle class="st3" cx="1209.9" cy="129.4" r="0"/>
			<path class="st1" d="M1500.3,369.7c0,0-2-1.6-2-1.6l0,0v0c0,0-2,1.6-2,1.6c-138.9,106.2-373.8,363.6-302.3,437.1
				c81.7,71.5,185.9,114.4,302.3,114.4c0.7,0,1.4,0,2,0c0,0,0,0,0,0c0,0,0,0,0,0c0.7,0,1.4,0,2,0c116.4,0,220.6-42.9,302.3-114.4
				C1874.1,733.3,1639.2,475.9,1500.3,369.7z"/>
			<path class="st1" d="M1037.6,460.6c0,105.3,35.3,202.3,94.7,279.9c1.1,0,2-0.8,2.1-1.9l0-0.1c0.1-0.8,0-1.5-0.2-2.2
				c-3-9.9-4.3-21-4-33.2c2.6-122,158-347.8,241.3-447.8l1.9-2.3l-1.9-1.8c-109.3-107.7-161.7-121.8-183-120.9
				c-6.6,0.3-11.6,0.2-13.9,2.5C1090.1,216.3,1037.6,332.3,1037.6,460.6z"/>
			<path class="st1" d="M1958.8,460.6c0,105.3-35.3,202.3-94.7,279.9c-1.1,0-2-0.8-2.1-1.9l0-0.1c-0.1-0.8,0-1.5,0.2-2.2
				c3-9.9,4.3-21,4-33.2c-2.6-122-158-347.8-241.3-447.8l-1.9-2.3l1.9-1.8c109.3-107.7,161.7-121.8,183-120.9
				c6.6,0.3,11.6,0.2,13.9,2.5C1906.4,216.3,1958.8,332.3,1958.8,460.6z"/>
			<path class="st1" d="M1737.7,67c-69.8-42.5-151.7-67-239.4-67c-87.7,0-169.7,24.5-239.4,67c-1.3,0.9-6.1,4.5-1.1,3.5l5.7-1.1
				c19.3-3.9,40.7-3.5,62.4-0.4c78.5,13.7,161,59.5,170.4,65.8c0,0,1.4,0.9,2,1.3c0.6-0.4,2-1.3,2-1.3c9.4-6.3,91.9-52.1,170.4-65.8
				c21.8-3.1,43.1-3.5,62.4,0.4l5.7,1.1C1743.7,71.5,1738.9,68,1737.7,67z"/>
		</g>
	</g>
</g>
</svg>
