<?xml version="1.0" encoding="utf-8"?>
<!-- Generator: Adobe Illustrator 25.4.1, SVG Export Plug-In . SVG Version: 6.00 Build 0)  -->
<svg version="1.1" id="Layer_1" xmlns="http://www.w3.org/2000/svg" xmlns:xlink="http://www.w3.org/1999/xlink" x="0px" y="0px"
	 viewBox="0 0 3839 790.7" style="enable-background:new 0 0 3839 790.7;" xml:space="preserve">
<style type="text/css">
	.st0{fill:#FFFFFF;}
	.st1{fill:#666666;}
	.st2{fill:#91C93D;}
	.st3{fill:#999999;}
	.st4{clip-path:url(#SVGID_00000054254604915102526900000014050862281376454529_);}
	.st5{clip-path:url(#SVGID_00000135683508643096157360000008502457254741043385_);}
	.st6{clip-path:url(#SVGID_00000030468927734825702250000012383843671244312232_);}
	.st7{clip-path:url(#SVGID_00000025440740458901577320000006527015338750838149_);}
	.st8{fill:url(#SVGID_00000012450052461471970640000000983312296451168640_);}
	.st9{fill:url(#SVGID_00000137849506783797326180000008040895035306562745_);}
	.st10{fill:url(#SVGID_00000047742416664932273940000003167325817092353202_);}
	.st11{fill:url(#SVGID_00000173867148833963855030000002657405631122929845_);}
	.st12{opacity:0.8;fill:url(#SVGID_00000089561111575683199860000015352827598601757334_);}
	.st13{opacity:0.55;fill:url(#SVGID_00000092419838088063091000000010232174699159481227_);}
	.st14{fill:url(#SVGID_00000054251606207899619720000011243200498757181862_);}
	.st15{fill:url(#SVGID_00000121978302061016881430000008075934817391910074_);}
	.st16{clip-path:url(#SVGID_00000104671094463078086440000009035816671220336516_);}
	.st17{fill:url(#SVGID_00000030475045713727673800000013246547421915004861_);}
	.st18{fill:url(#SVGID_00000036253973632562039910000006508397074935340185_);}
	.st19{fill:url(#SVGID_00000039123151686812067330000017113612268642573487_);}
	.st20{opacity:0.8;fill:url(#SVGID_00000132047339636125168660000004255177267699041414_);}
	.st21{opacity:0.55;fill:url(#SVGID_00000094617475583255455220000010638597909411778748_);}
	.st22{fill:url(#SVGID_00000087391810887301187800000018155241088313526969_);}
	.st23{fill:url(#SVGID_00000003068237121801854350000008123739812682297772_);}
	.st24{clip-path:url(#SVGID_00000009577210457217257060000003968050394002592393_);}
	.st25{fill:#BFBDBE;}
	.st26{fill:url(#SVGID_00000025441753106873555610000010889475404553633187_);}
	.st27{fill:url(#SVGID_00000113344917103663350420000012331925568637628561_);}
	.st28{opacity:0.8;fill:url(#SVGID_00000086682407810062025070000007109447126089793197_);}
	.st29{opacity:0.55;fill:url(#SVGID_00000158743131435412069620000015698617992084085905_);}
	.st30{fill:url(#SVGID_00000147916940497565725380000007871279958980443582_);}
	.st31{fill:url(#SVGID_00000098934032240159190930000000092213583318703765_);}
	.st32{clip-path:url(#SVGID_00000181797753035143981110000018342353162081353401_);}
	.st33{clip-path:url(#SVGID_00000132087519277551078640000011596120472411558019_);}
	.st34{fill:url(#SVGID_00000153670793104585811700000007061412819870115261_);}
	.st35{fill:url(#SVGID_00000049935791013037452570000010970111475834421688_);}
	.st36{fill:url(#SVGID_00000145760522307625867460000008463369818571541379_);}
	.st37{opacity:0.8;fill:url(#SVGID_00000017507646219345490890000011908993863835308419_);}
	.st38{opacity:0.55;fill:url(#SVGID_00000141443605211360250860000003881476989863107494_);}
	.st39{fill:url(#SVGID_00000078040242567942701170000015412236779583139515_);}
	.st40{fill:url(#SVGID_00000074403589585032275560000005272559336000694703_);}
	.st41{clip-path:url(#SVGID_00000055673623221887439480000014270567057083282048_);}
	.st42{clip-path:url(#SVGID_00000055698970865492281270000008466448172940470172_);}
	.st43{opacity:0.5;fill:url(#SVGID_00000103222717464533820370000008942326640882169484_);}
	.st44{opacity:0.5;fill:url(#SVGID_00000050664294609735538600000009531942451318381954_);}
	.st45{opacity:0.5;fill:url(#SVGID_00000020399112304921781520000013649695619431249305_);}
	.st46{clip-path:url(#SVGID_00000039126662941704539230000004111372003877845692_);}
	.st47{opacity:0.5;fill:url(#SVGID_00000073708373321488171670000000958664887197762213_);}
	.st48{clip-path:url(#SVGID_00000092436027336384131450000013129925466005265851_);}
	.st49{clip-path:url(#SVGID_00000018936067249682669670000011902608120388773272_);}
	.st50{clip-path:url(#SVGID_00000028319539810587152520000004832625064100183960_);}
	.st51{clip-path:url(#SVGID_00000114060413635171200570000002975568054276769953_);}
	.st52{fill:url(#SVGID_00000088844764614892487150000006177324645655863184_);}
	.st53{fill:url(#SVGID_00000099656477283528857410000009957615680497487278_);}
	.st54{fill:url(#SVGID_00000065761217026489168630000018197009617275340716_);}
	.st55{fill:url(#SVGID_00000033357009969077989980000009774079453726252442_);}
	.st56{opacity:0.8;fill:url(#SVGID_00000078759471906884567940000003310238995232001957_);}
	.st57{opacity:0.55;fill:url(#SVGID_00000147181428542645367600000012371846327623415442_);}
	.st58{fill:url(#SVGID_00000089540020173453077320000012075421057911959198_);}
	.st59{fill:url(#SVGID_00000080165991243315114850000011708506706895951270_);}
	.st60{clip-path:url(#SVGID_00000011013176162244950580000010550196244844858782_);}
	.st61{fill:url(#SVGID_00000133506119626273460290000003580097435202677692_);}
	.st62{fill:url(#SVGID_00000026845952527914005670000006720936225988739519_);}
	.st63{fill:url(#SVGID_00000062168872209880692850000002168480205442703035_);}
	.st64{opacity:0.8;fill:url(#SVGID_00000064332982049964312890000008388669287754785689_);}
	.st65{opacity:0.55;fill:url(#SVGID_00000092440509615511209180000006102495786186468252_);}
	.st66{fill:url(#SVGID_00000017512897250510081980000007268630255700020391_);}
	.st67{fill:url(#SVGID_00000166648652954442680030000002265479778569868422_);}
	.st68{clip-path:url(#SVGID_00000035529571121752896480000003012528103353699714_);}
	.st69{fill:url(#SVGID_00000060738286703752481500000008628167562017870479_);}
	.st70{fill:url(#SVGID_00000016043655991348643720000002777705136799938491_);}
	.st71{opacity:0.8;fill:url(#SVGID_00000176741851573807511040000006805335355699065497_);}
	.st72{opacity:0.55;fill:url(#SVGID_00000086683390147776849730000008574874868819953593_);}
	.st73{fill:url(#SVGID_00000098917061379719190560000015542793119325684105_);}
	.st74{fill:url(#SVGID_00000124881845551853058270000005833170143860322736_);}
	.st75{clip-path:url(#SVGID_00000080198117671911443580000001566188565540955812_);}
	.st76{clip-path:url(#SVGID_00000122688845771844463720000006016001944302277001_);}
	.st77{clip-path:url(#SVGID_00000134941171664651854200000000913254019014502305_);}
	.st78{clip-path:url(#SVGID_00000160878753566999034730000013534718228912204176_);}
	.st79{clip-path:url(#SVGID_00000008860298811802620420000014362471130704542360_);}
	.st80{fill:url(#SVGID_00000000221178143958424920000002279577704819013304_);}
	.st81{fill:url(#SVGID_00000180361267945490875720000017636023878778388133_);}
	.st82{fill:url(#SVGID_00000157288798642720926350000005364739312851756218_);}
	.st83{fill:url(#SVGID_00000013159585084373658220000015949245308678150051_);}
	.st84{opacity:0.8;fill:url(#SVGID_00000155861143729010195560000015863680696978678959_);}
	.st85{opacity:0.55;fill:url(#SVGID_00000018941198240345283280000011939578726705272712_);}
	.st86{fill:url(#SVGID_00000000910652086288674570000017124065348281091750_);}
	.st87{fill:url(#SVGID_00000150807407963657014950000005382885924385831079_);}
	.st88{clip-path:url(#SVGID_00000095299525597489067140000007562840088573133199_);}
	.st89{fill:url(#SVGID_00000066484005838987999120000007888446172428068783_);}
	.st90{fill:url(#SVGID_00000076562532346512734630000007147106164476093109_);}
	.st91{fill:url(#SVGID_00000008112505405639877500000011401351298108710017_);}
	.st92{opacity:0.8;fill:url(#SVGID_00000139253861740084491760000000942591064775739813_);}
	.st93{opacity:0.55;fill:url(#SVGID_00000061472872526723805250000014733783352822046874_);}
	.st94{fill:url(#SVGID_00000169527476011643199780000018115984236057330836_);}
	.st95{fill:url(#SVGID_00000022523905828957215680000010820616205489102976_);}
	.st96{clip-path:url(#SVGID_00000173124695890137299850000004867007549965252272_);}
	.st97{fill:url(#SVGID_00000029004141832443675550000010122239624733690046_);}
	.st98{fill:url(#SVGID_00000001642927274219134830000005872252450715939492_);}
	.st99{opacity:0.8;fill:url(#SVGID_00000106867118354623035940000008764795419710342530_);}
	.st100{opacity:0.55;fill:url(#SVGID_00000144303339920316030730000013290927114412745873_);}
	.st101{fill:url(#SVGID_00000021089474672859527660000012657595708140403612_);}
	.st102{fill:url(#SVGID_00000120551054933855583770000004328091174068731027_);}
	.st103{clip-path:url(#SVGID_00000018946841464061591280000007255769915186192284_);}
	.st104{clip-path:url(#SVGID_00000089566007326042847500000015218352080587412375_);}
	.st105{fill:url(#SVGID_00000128457302515120709720000005378270560306549383_);}
	.st106{fill:url(#SVGID_00000117662520858486256190000015447517771292423067_);}
	.st107{fill:url(#SVGID_00000050633027466618879610000011240542796560597398_);}
	.st108{opacity:0.8;fill:url(#SVGID_00000024716149008699288350000014490071305694988194_);}
	.st109{opacity:0.55;fill:url(#SVGID_00000042698013703909634820000006944523717278409135_);}
	.st110{fill:url(#SVGID_00000169560345805079820600000005978719642425926819_);}
	.st111{fill:url(#SVGID_00000003090695243195087310000016885534586983775403_);}
	.st112{clip-path:url(#SVGID_00000183218648630435813640000011654217576926419876_);}
	.st113{clip-path:url(#SVGID_00000067937844904593282530000002618052003667423648_);}
	.st114{opacity:0.5;fill:url(#SVGID_00000053538659206480758830000008345708236639159468_);}
	.st115{opacity:0.5;fill:url(#SVGID_00000035523266569039150700000004654656715408889491_);}
	.st116{opacity:0.5;fill:url(#SVGID_00000117677848994653331510000013538754895802799762_);}
	.st117{clip-path:url(#SVGID_00000036236428337324697580000009692059935584426676_);}
	.st118{opacity:0.5;fill:url(#SVGID_00000014597737246867268910000015229623966270280895_);}
	.st119{clip-path:url(#SVGID_00000062192670224380165430000013799835098834142892_);}
	.st120{clip-path:url(#SVGID_00000080190804101892520250000011280440870547992214_);}
	.st121{clip-path:url(#SVGID_00000084519454505003111010000005447714820767338133_);}
	.st122{clip-path:url(#SVGID_00000056386028051390838430000010481072581671355543_);}
	.st123{fill:url(#SVGID_00000164473548684138817210000017084130834855360150_);}
	.st124{fill:url(#SVGID_00000006698639060529991380000004934107371461436326_);}
	.st125{fill:url(#SVGID_00000111872360369713173580000000977585064870254212_);}
	.st126{fill:url(#SVGID_00000010990170940816607640000015804669906291211932_);}
	.st127{opacity:0.8;fill:url(#SVGID_00000044873497632374630160000007587736964319548312_);}
	.st128{opacity:0.55;fill:url(#SVGID_00000081645356734190310720000007667046827905835429_);}
	.st129{fill:url(#SVGID_00000027590235964486245830000012544776751382720182_);}
	.st130{fill:url(#SVGID_00000063625039386592237940000004283102088956291203_);}
	.st131{clip-path:url(#SVGID_00000158008657233916726180000003365722249549402764_);}
	.st132{fill:url(#SVGID_00000135670707233889293780000009449257225452242569_);}
	.st133{fill:url(#SVGID_00000084497907790891090040000016008336622810885549_);}
	.st134{fill:url(#SVGID_00000181806501080944664730000010723753753369382039_);}
	.st135{opacity:0.8;fill:url(#SVGID_00000054960005204027086370000003640029192384624304_);}
	.st136{opacity:0.55;fill:url(#SVGID_00000137110498989193713390000006870184463819321009_);}
	.st137{fill:url(#SVGID_00000124878004048811821110000013719912050588049562_);}
	.st138{fill:url(#SVGID_00000003814404985694294010000016783839358261700017_);}
	.st139{clip-path:url(#SVGID_00000084528196577050342360000005137527905256954500_);}
	.st140{fill:url(#SVGID_00000059303281159988964780000017795089948425328036_);}
	.st141{fill:url(#SVGID_00000039846704046531514250000006390878023801847193_);}
	.st142{opacity:0.8;fill:url(#SVGID_00000178907824975664394860000018042305090304792719_);}
	.st143{opacity:0.55;fill:url(#SVGID_00000029029823707169967880000000946804127053268642_);}
	.st144{fill:url(#SVGID_00000060015920642503289870000010708131699870950796_);}
	.st145{fill:url(#SVGID_00000047056806600889231480000015132944946689551039_);}
	.st146{clip-path:url(#SVGID_00000123403691557038746010000012104977149709128103_);}
	.st147{clip-path:url(#SVGID_00000146460522403623719630000007432766434729323942_);}
	.st148{fill:url(#SVGID_00000027604817646873753530000010086248003254919863_);}
	.st149{fill:url(#SVGID_00000095318968733439156670000018423060514642048429_);}
	.st150{fill:url(#SVGID_00000023978989313511370320000001751949655301936015_);}
	.st151{opacity:0.8;fill:url(#SVGID_00000178187478405883088770000010749228782049700744_);}
	.st152{opacity:0.55;fill:url(#SVGID_00000061452292444569631410000014664042612527557020_);}
	.st153{fill:url(#SVGID_00000167395946729772513690000017411541626394073786_);}
	.st154{fill:url(#SVGID_00000009565482868544378460000005115390106513640086_);}
	.st155{clip-path:url(#SVGID_00000098922361860669046180000012944564056597320120_);}
	.st156{clip-path:url(#SVGID_00000004516492747853419970000005406477253114726565_);}
	.st157{opacity:0.5;fill:url(#SVGID_00000018238719106075593640000003143045889690115208_);}
	.st158{opacity:0.5;fill:url(#SVGID_00000109031013247042070960000003833410093806551963_);}
	.st159{opacity:0.5;fill:url(#SVGID_00000041272140493966622150000005812519670470832774_);}
	.st160{clip-path:url(#SVGID_00000087375949926527644840000018215023764146710170_);}
	.st161{opacity:0.5;fill:url(#SVGID_00000139976409541792087600000003265890464016104065_);}
	.st162{clip-path:url(#SVGID_00000132050635862798685650000013412188212471645326_);}
	.st163{fill:url(#SVGID_00000138566401225046970070000010130531217708438671_);}
	.st164{fill:url(#SVGID_00000039816320644400572850000012175838422372438701_);}
	.st165{fill:url(#SVGID_00000065049622863214864520000004416873434934250171_);}
	.st166{opacity:0.8;fill:url(#SVGID_00000116194828970687091900000017745382602444382087_);}
	.st167{opacity:0.55;fill:url(#SVGID_00000096743733553207748300000007137996698012198018_);}
	.st168{fill:url(#SVGID_00000142893221111650690240000006256107556233926573_);}
	.st169{fill:url(#SVGID_00000117645639325797706800000004227285733945149626_);}
	.st170{clip-path:url(#SVGID_00000178923967229614605740000009291206458727452347_);}
	.st171{clip-path:url(#SVGID_00000172411056248129020480000002401795481653104301_);}
	.st172{opacity:0.5;fill:url(#SVGID_00000073710337016279588990000007951534611742294407_);}
	.st173{opacity:0.5;fill:url(#SVGID_00000163034100085367922830000012046250311778664617_);}
	.st174{opacity:0.5;fill:url(#SVGID_00000170956715205153211220000007920073574857702789_);}
	.st175{clip-path:url(#SVGID_00000173130475984378887900000011279132607850802063_);}
	.st176{opacity:0.5;fill:url(#SVGID_00000073694606753260848130000007025194537011146638_);}
	.st177{fill:#9DA0A3;}
	.st178{fill:#107C10;}
	.st179{opacity:0.49;}
	.st180{clip-path:url(#SVGID_00000089547594051384907590000004551889959980068031_);}
	.st181{clip-path:url(#SVGID_00000040561667106597093310000007068022051693701054_);}
	.st182{fill:url(#SVGID_00000111187637887189178070000014333007442271422097_);}
	.st183{opacity:0.15;fill:#FFFFFF;}
	.st184{opacity:7.000000e-02;fill:#FFFFFF;}
	.st185{clip-path:url(#SVGID_00000036244092777962625020000006277796824968336571_);}
	.st186{fill:url(#SVGID_00000013179889070204628250000017609261147250257290_);}
	.st187{clip-path:url(#SVGID_00000158012713834044980770000001124442171725270708_);}
	.st188{fill:url(#SVGID_00000113336447529719712900000005508109545754538685_);}
	.st189{opacity:7.000000e-02;fill:url(#SVGID_00000152968519815684548730000006800185162892339853_);}
	.st190{clip-path:url(#SVGID_00000093170023708864552240000006450267480263617715_);}
	.st191{fill:url(#SVGID_00000048497363220840932690000005567002036888219043_);}
	.st192{fill:url(#SVGID_00000069376354745012290960000001640280953101829791_);}
	.st193{fill:url(#SVGID_00000145050431548144867530000013377917411911357867_);}
	.st194{fill:url(#SVGID_00000183935032004588716270000004819911407766743741_);}
	.st195{fill:url(#SVGID_00000018204741474333070820000008548335609404165505_);}
	.st196{fill:url(#SVGID_00000080165360542683367330000015028076315155041719_);}
	.st197{fill:url(#SVGID_00000110461203962342047080000000703090916587398824_);}
	.st198{fill:url(#SVGID_00000152944003454353763450000000561431832729606832_);}
	.st199{clip-path:url(#SVGID_00000139280117294098602830000015327517990952187799_);}
	.st200{clip-path:url(#SVGID_00000152956426803827616340000015827588934170360456_);}
	.st201{fill:url(#SVGID_00000163761971706002136630000006257072728306265253_);}
	.st202{clip-path:url(#SVGID_00000182517342049552779600000007108262111676144003_);}
	.st203{fill:url(#SVGID_00000077302387578316435950000014071951206627569288_);}
	.st204{clip-path:url(#SVGID_00000165915877448661869410000007626121900986790045_);}
	.st205{fill:url(#SVGID_00000039101418092484490420000013967833402402580646_);}
	.st206{opacity:7.000000e-02;fill:url(#SVGID_00000179645323787900649270000008681889966500081593_);}
	.st207{clip-path:url(#SVGID_00000039115117785151748620000017757504564011384196_);}
	.st208{fill:url(#SVGID_00000071545292792684567030000007559574575973789853_);}
	.st209{fill:url(#SVGID_00000116216692741687113310000000375792535387588762_);}
	.st210{fill:url(#SVGID_00000041974135950424229680000003964709954820225183_);}
	.st211{fill:url(#SVGID_00000070838545195830980240000017594516939971098787_);}
	.st212{fill:url(#SVGID_00000049217792000544792940000014690996592273551757_);}
	.st213{fill:url(#SVGID_00000122705798156905102420000016614084402028548746_);}
	.st214{fill:url(#SVGID_00000170269428429774722830000006566513308394779524_);}
	.st215{fill:url(#SVGID_00000044872105609420914160000011337056192571233420_);}
	.st216{clip-path:url(#SVGID_00000047782155884215038610000005721220441330909371_);}
	.st217{clip-path:url(#SVGID_00000156577374774097515000000004528799551022752159_);}
	.st218{fill:url(#SVGID_00000137817319733151940760000000798466322247245991_);}
	.st219{clip-path:url(#SVGID_00000031170069707366690050000009176155327499817361_);}
	.st220{fill:url(#SVGID_00000006702186168027829960000005183336401260597388_);}
	.st221{clip-path:url(#SVGID_00000142152447641646230970000009988344386461158549_);}
	.st222{fill:url(#SVGID_00000041995828957524478660000003608442102906226841_);}
	.st223{opacity:7.000000e-02;fill:url(#SVGID_00000151507679050867177360000011794345114963603599_);}
	.st224{clip-path:url(#SVGID_00000009575962609904056870000001198382312934278309_);}
	.st225{fill:url(#SVGID_00000140692536722078151620000007717043049475958152_);}
	.st226{fill:url(#SVGID_00000099659420210526324350000008570777031114354608_);}
	.st227{fill:url(#SVGID_00000118369420793083704360000007303477219628733884_);}
	.st228{fill:url(#SVGID_00000179621851269487195360000016566007382730351274_);}
	.st229{fill:url(#SVGID_00000067229353546749966050000015302717722444745657_);}
	.st230{fill:url(#SVGID_00000147213155205231921300000011768392799704003986_);}
	.st231{fill:url(#SVGID_00000129173615812841556820000006832692268287396527_);}
	.st232{fill:url(#SVGID_00000173130451412463385140000014205723138238836870_);}
	.st233{clip-path:url(#SVGID_00000143598228004647228130000000441272141346113958_);}
	.st234{clip-path:url(#SVGID_00000000219716286972396390000010623713475601475461_);}
	.st235{fill:url(#SVGID_00000133501281541370843550000008821051418270369176_);}
	.st236{clip-path:url(#SVGID_00000160889174709998048000000015004094326042774405_);}
	.st237{fill:url(#SVGID_00000075869017966789826200000001062745851313420930_);}
	.st238{clip-path:url(#SVGID_00000076586506358652856410000017870448866627592883_);}
	.st239{fill:url(#SVGID_00000008110088964624054170000018148790665836890810_);}
	.st240{opacity:7.000000e-02;fill:url(#SVGID_00000039833013285634503630000007951566458314052269_);}
	.st241{clip-path:url(#SVGID_00000015336923268136089980000005729497526810168963_);}
	.st242{fill:url(#SVGID_00000018235060308768104290000010997992383576634546_);}
	.st243{fill:url(#SVGID_00000183934743702913013200000000912904491632434096_);}
	.st244{fill:url(#SVGID_00000068645994079285398420000007491495485497794208_);}
	.st245{fill:url(#SVGID_00000141448051659559521100000016964609264945421218_);}
	.st246{fill:url(#SVGID_00000123417973638199702070000006110486724917269149_);}
	.st247{fill:url(#SVGID_00000024681433378594587010000006612202244262863755_);}
	.st248{fill:url(#SVGID_00000083074118508624725020000010752079865156720039_);}
	.st249{fill:url(#SVGID_00000028324271475570179210000001393841852206177448_);}
</style>
<g>
	<g>
		<g>
			<circle cx="395.3" cy="395.4" r="395.3"/>
			<circle class="st3" cx="147.9" cy="111.1" r="0"/>
		</g>
	</g>
	<path class="st0" d="M2551.7,640l-152.3-206.8L2247.2,640h-62.7l183.2-249.8l-167.2-227.1h62.7l136.3,185.1l136.2-185.1h62.7
		l-167.2,227L2614.3,640 M1364.6,640l-183.2-249.9l167.2-227h-62.6l-136.3,185.3l-136.2-185.3h-62.6l167.2,227L934.8,640h62.7
		l152.2-206.8L1301.9,640H1364.6z M1754.4,500.7c0,86-65.1,139.3-170.1,139.3l-193.6,0V416.6h-99.1c7.2-10.7,26.2-36.9,34.5-47.8
		h64.6V163.1h193.6c143.8,0,155,99.2,155,129.8c0,41.2-22.6,76.7-57.3,95.4c10.6,4.8,21.3,11.4,31.3,19.9
		C1740.2,431.3,1754.4,463.2,1754.4,500.7 M1444.2,368.8h140c64.5,0,101.5-29.9,101.5-80c0-66.3-63.5-75.9-101.5-75.9h-140V368.8z
		 M1701,499.7c0-68.4-63.4-83.1-116.7-83.1h-140v173.6h140C1627.9,590.3,1701,578.4,1701,499.7 M2233.4,401.3
		c0,146.8-93.4,249.2-227.1,249.2c-134,0-227.6-102.4-227.6-249.2c0-146.7,93.6-249.1,227.6-249.1
		C2140.1,152.2,2233.4,254.6,2233.4,401.3 M2179.3,401.3c0-117.1-71.2-198.7-173-198.7c-102,0-173.6,81.7-173.6,198.7
		c0,117,71.5,198.8,173.6,198.8C2108.1,600.1,2179.3,518.4,2179.3,401.3"/>
	<path class="st0" d="M3660.9,151.9c-113.3,0-178.2,91.1-178.2,250.1c0,158.8,65,249.9,178.2,249.9c64.5,0,112.5-28.1,143-83.4
		c28.9-52.7,35.1-119.7,35.1-166.5C3839,326.8,3821.6,151.9,3660.9,151.9 M3660.9,609.2c-32.3,0-59.1-10.5-79.8-31
		c-45.4-45.6-52.3-129.9-52.3-176.1c0-62.4,12.9-207.3,132.1-207.3c119.1,0,131.9,144.9,131.9,207.3
		C3792.8,464.3,3780,609.2,3660.9,609.2 M3278.2,317.1c-51.7,0-98.9,25.2-128,66.8c6.1-90.5,35.2-189.1,133.5-189.1
		c54.9,0,96.5,35.9,105.9,91.4l1.4,8.7h45.7l-1.2-11.6c-9-81-67.2-131.3-151.7-131.3c-149.6,0-180.9,148.4-180.9,272.8
		c0,148.7,60.6,227.2,175.4,227.2c94.3,0,165.6-71.4,165.6-166C3443.8,388,3374.1,317.1,3278.2,317.1 M3278.2,609.2
		c-67.6,0-120.6-54.2-120.6-123.2c0-71.9,52-126,120.6-126c30.9,0,60.1,12,81.8,33.9c23.9,23.7,37.4,57.3,37.4,92.1
		C3397.4,555,3345.1,609.2,3278.2,609.2 M3066.9,504.5c0,89.1-66.3,146.6-168.8,146.6c-55.6,0-100.8-16.5-130.7-47.9
		c-28.5-29.9-42.5-72.8-40.2-124l0.4-9.8h46.2l-0.3,10.7c-1.6,38.6,8.9,71,30.5,93.4c21.9,22.7,54.6,34.9,94.1,34.9
		c61,0,122.5-35.8,122.5-103.9c0-28.2-8.6-50.6-25.9-66.7c-20.8-19.5-54.4-28.4-96.8-28.8h-32.2c-0.2-11.2-0.2-33.5,0-45.1
		c11.7-0.1,23.9-0.2,32-0.2c22.5,0,66.4-5.7,90.1-28.5c14.6-14,22.2-33.2,22.2-56.9c0-55.4-56.4-84.4-111.9-84.4
		c-55.1,0-96.6,35.9-106,91.5l-1.4,8.6h-45.9l1.3-11.5c9.1-81.1,67.4-131.5,152-131.5c51.6,0,97.3,16,125.1,43.8
		c21.8,21.9,32.9,49.9,32.9,83.4c0,47.4-25.7,87.6-66,106.2C3037.7,403.5,3066.9,448.2,3066.9,504.5"/>
	<g>
		<path class="st0" d="M118,113.7c-0.3,0.2-0.4,0.4-0.4,0.3v0C45,185.7,0,285.3,0,395.4c0,90.1,30.1,173.1,80.8,239.5
			c0.5,0.6,1.4,1,2.1,0.6c0.7-0.4,0.7-1.3,0.4-2.1C53.3,540.3,201.6,311,281.2,216.2c0.3-0.3,0.5-0.7,0.5-1.1c0-0.5-0.3-1-0.7-1.3
			c-134-133.3-163.9-99.3-163.5-99.8"/>
		<path class="st0" d="M672.7,113.7c0.3,0.2,0.4,0.4,0.4,0.3v0c72.6,71.7,117.6,171.2,117.6,281.3c0,90.1-30.1,173.1-80.9,239.5
			c-0.5,0.6-1.4,1-2.1,0.6c-0.7-0.4-0.7-1.3-0.4-2.1C737.4,540.3,589,311,509.5,216.2c-0.3-0.3-0.6-0.7-0.6-1.1c0-0.5,0.3-1,0.7-1.3
			c134-133.3,163.9-99.3,163.5-99.8"/>
		<path class="st0" d="M395.4,0C468,0,536,19.6,594.5,53.7c0.7,0.4,1,1.2,0.6,2c-0.3,0.7-1.1,0.8-1.9,0.7
			c-69.1-15.5-185.9,57.2-197,63.8c-0.2,0.1-0.5,0.3-0.8,0.3c-0.3,0-0.6-0.2-0.8-0.3c-11-6.7-127.8-79.4-196.9-63.8
			c-0.8,0.2-1.6,0-1.9-0.7c-0.4-0.7,0-1.6,0.6-2C254.8,19.6,322.8,0,395.4,0"/>
		<path class="st0" d="M395.4,311.3c0.4,0,1,0.4,1.3,0.6c118.2,89.9,320.7,318.1,258.9,381l0.1-0.1c0,0,0,0.1-0.1,0.1
			c-69.6,60.9-160.6,97.8-260.2,97.8c-99.7,0-190.7-36.9-260.2-97.8c0,0,0,0-0.1-0.1l0.1,0.1c-61.8-62.8,140.7-291,259-381
			C394.4,311.7,394.9,311.3,395.4,311.3"/>
	</g>
</g>
</svg>
