<?xml version="1.0" encoding="utf-8"?>
<!-- Generator: Adobe Illustrator 25.2.3, SVG Export Plug-In . SVG Version: 6.00 Build 0)  -->
<svg version="1.1" id="Layer_1" xmlns="http://www.w3.org/2000/svg" xmlns:xlink="http://www.w3.org/1999/xlink" x="0px" y="0px"
	 viewBox="0 0 3839 1959.6" style="enable-background:new 0 0 3839 1959.6;" xml:space="preserve">
<style type="text/css">
	.st0{fill:#FF002B;}
	.st1{fill:#FFFFFF;}
	.st2{fill:#C8C6B9;}
	.st3{fill:#F7F4E6;}
</style>
<g>
	<path class="st1" d="M3839,1022.7c-1.6-118.7-85.3-233.5-242.2-331.9c-146.2-91.7-356.6-170.1-608.4-226.7
		c-50.2-11.3-102.4-21.7-155.7-31.3l4.8-3.9l0,0l111.3-89.9c14.4-11.7,0.5-34.4-16.5-26.7l-113,51L2710,412.8l-34.9-4.8
		c-218.9-30.4-451.5-45.8-691.2-45.8l-10,0l8.3-53.8c0.3-1.8,1.7-3.3,3.5-3.7l109.3-21.7l-11.7,75.8l295.4-58.8l14.3-93.1
		c14.3-92.9-46.3-181.9-137.9-202.5c-24.4-5.5-49.4-5.7-74.4-0.8L1972.5,45c-117.6,23.4-214,104.9-258.6,212.7
		c-19.2-58.4-67.7-105.3-131.1-119.6c-24.4-5.5-49.4-5.8-74.4-0.8l-451.8,89.9L1022.2,451l-25.5,5.2
		C702.3,516.5,454.8,602.9,281,706C95.4,816-1.7,943.3,0,1074.1c2.1,154.9,139.5,298,397.3,413.7l20.9,9.4L373.8,1786
		c-4.4,28.9,12.7,57.6,40.9,65.2c8.5,2.3,17.2,2.6,25.8,0.8l1085.8-216c-7.2,8-12.1,18.1-13.8,29.1l-35,227.4
		c-4.4,28.9,12.7,57.6,40.9,65.2c8.5,2.3,17.2,2.6,25.8,0.8l191.5-38.1c121.3-24.1,226.1-93.1,296.9-188.6l38.9-1.5
		c264.6-10.4,516.6-39.1,749.1-85.3c300.2-59.7,552.9-146.3,730.9-250.3C3741.4,1283.7,3840.7,1155.1,3839,1022.7z"/>
	<g>
		<polygon points="2851,380.9 2290.5,633.9 2111.7,471.1 2176.6,704.1 1698.3,1090.6 2258.8,837.6 2437.7,1000.4 2372.7,767.4 		"/>
		<g>
			<polygon points="2851,380.9 2290.5,633.9 2111.7,471.1 2176.6,704.1 1698.3,1090.6 2258.8,837.6 2437.7,1000.4 2372.7,767.4 			
				"/>
		</g>
		<g>
			<path d="M2296.2,605.9l5-2.3c2.3-9.4,4.3-18.9,5.8-28.6l9.2-59.9l-98.2,19.5L2296.2,605.9z"/>
			<path d="M1840.5,886.4l97.7-19.4L2149,696.5l-39.1-140.4l-28.5,5.7l-8.1,52.6c-2.1,13.9-12.7,25-26.5,27.7L1922.1,667
				c-12.3,2.4-23.3-8.1-21.4-20.4l52.7-342.6c2.1-13.9,12.7-25,26.5-27.7l124.6-24.8c12.3-2.4,23.3,8.1,21.4,20.4l-7.7,50.3
				l234.9-46.7l11.2-73c15.9-103.2-75.6-190.8-178-170.4l-208.2,41.4c-134.3,26.7-237.6,134.6-258.4,270L1662.4,716
				C1646.5,819.1,1738,906.7,1840.5,886.4z"/>
		</g>
		<path d="M204.1,1298.5C113.5,1226.1,67,1150.3,66,1073.2c-2.9-216.5,361.1-430.7,930.5-549.6l6-39
			C419.2,604.1,25.7,825.5,29,1073.7c2,147.2,143.2,281.3,380.2,387.7l5.8-37.9C330.6,1384.9,260,1343.1,204.1,1298.5z"/>
		<path d="M1983.9,391.1l-5.7,37.1c218.6-0.3,430.8,12.5,629.2,37.2l63.7-28.8C2459.3,407.2,2227.4,391.1,1983.9,391.1z"/>
		<path d="M2795.3,455.8l-38.3,31c175.6,28.4,338.1,66.8,481.4,114.4c170.3,56.6,303.7,122.9,396.5,197.1
			c90.6,72.4,137.1,148.2,138.1,225.3c3,220.9-375.9,439.4-965.3,556.7c-220.7,43.9-465.6,72.2-716.5,83.2
			c-6.4,13-13.3,25.6-20.8,37.9c267.8-10.5,519.9-40.1,744.5-84.8c595.2-118.4,998.4-342.2,995.1-593.5
			C3806.6,771.3,3395.7,558,2795.3,455.8z"/>
		<g>
			<path d="M3198.2,852l-193,38.4c-11.4,2.3-20.2,11.5-22,23l-6,39.1l231.8-46.1c11.4-2.3,20.2-11.5,22-23l0,0
				C3234,864.4,3217.1,848.2,3198.2,852z"/>
			<path d="M1723,1160.4l-29.6,192.6c-2.3,15.2,11.1,28.1,26.2,25.1l219.9-43.7l36.8-239.2l-235.7,46.9
				C1731.4,1143.9,1724.4,1151.2,1723,1160.4z M1802.1,1218.5l69.2-13.8l-8.6,56.1l-69.2,13.8L1802.1,1218.5z"/>
			<path d="M3399.2,718.2c-34.7-52.3-96.6-76.9-156-65.1l-242.8,48.3c-64.1,12.8-119.3,49.9-155.7,101.2c-1.2-1.2-2.4-2.5-3.6-3.7
				c-35.7-34.1-85.8-48.7-134.2-39.1l-294.4,58.6l23.4,84.1l288-57.3c43.8-8.7,83,28.8,76.2,73l-54.9,357l-97.3,19.4l48.1-312.3
				c2.3-15.2-11.1-28.1-26.2-25.1l-219.9,43.8l-52.9,343.6l-97.3,19.4l61.5-399.8l-108-98.4l-290,130.9l29.1-5.8l97.3-19.4l0,0
				l-81,526.5c-23.8,154.8-141.9,278.2-295.5,308.7l-108.3,21.6l16.1-104.4l75.9-15.1c114.6-22.8,202.8-114.9,220.5-230.4l6.1-39.6
				l-258,51.3c-43.8,8.7-83-28.8-76.2-73l37.5-243.6c6.7-43.3,30.2-81,63.8-106.2l0.1-0.2l172.3-139.3l-123.2,24.5
				c-64.1,12.8-119.3,49.9-155.7,101.2c-1.2-1.2-2.4-2.5-3.6-3.7c-35.7-34.1-85.8-48.7-134.2-39.1l-261,51.9l7.3-47.3l30.1-195.9
				l184-36.6c134.3-26.7,237.6-134.6,258.4-270l27.2-176.7c15.9-103.2-75.6-190.8-178-170.4l-431.9,85.9l-80.5,523l-438,87.1
				c-11.4,2.3-20.2,11.4-21.9,22.9l-139.6,907.6c-2.9,19,13.9,35.1,32.7,31.3l588-117l0,0l190-37.8l52.9-343.6l69.2-13.8
				l-52.9,343.6l279-55.5l7.2-47c33.2,22.3,74.2,30.8,114,22.9l110.7-22c-27.6,35.4-67.5,60.9-113.3,70l-116.7,23.2
				c-11.4,2.3-20.2,11.4-21.9,22.9l-35.3,229.3c-2.9,19,13.9,35.1,32.7,31.3l191.5-38.1c189.5-37.7,335.1-189.9,364.5-380.8
				l2.8-18.4l188.1-37.4l0,0l188.1-37.4l52.9-343.6l69.2-13.8l-52.9,343.6l279-55.5l7.2-47c33.2,22.3,74.2,30.8,114,22.9l396.1-78.8
				c11.4-2.3,20.2-11.4,21.9-22.9l41.3-268.3l-11,2.2c10.3-21.6,17.6-44.9,21.3-69.3l9.2-60C3427.9,789.4,3420.4,750.2,3399.2,718.2
				z M1284.8,414.5l147.6-29.4c12.3-2.4,23.3,8.1,21.4,20.4l-22.6,146.7c-2.1,13.9-12.7,25-26.5,27.7l-149.9,29.8L1284.8,414.5z
				 M946.3,1633.1l-42.2,8.4l-49.6,9.9l-277,55.1l-76.4,15.2L621.5,939l32.2-6.4l238-47.3l107.8-21.4l-16.1,104.4l-31.1,6.2
				L702.7,1024l-35.4,230.4l116.9-23.3l20.9-4.2l76.4-15.2l-16.1,104.4l-41,8.2l-56.4,11.2l-116.9,23.3L614.4,1598l256.1-51
				l14.2-2.8l78-15.5L946.3,1633.1z M719.3,1488.4l8.6-56.1l214.2-42.6l44.2-287.4l-214.2,42.6l7.3-47.3l178-35.4l80.8-16.1
				l-11.5,74.9l-48.6,315.9L719.3,1488.4z M1484.3,1526.1l-97.3,19.4l48.1-312.3c2.3-15.2-11.1-28.1-26.2-25.1l-219.9,43.7
				l-52.9,343.6l-97.3,19.4l68.9-447.9l355.3-70.7c43.8-8.7,83,28.8,76.2,73L1484.3,1526.1z M2208.8,1381.9l-97.3,19.4l68.9-447.9
				l97.3-19.4L2208.8,1381.9z M3336.5,811.4l-9.7,62.8c-10.5,68.1-62.4,122.3-130,135.8l-235.7,46.9l-7,45.3
				c-2.3,15.2,11.1,28.1,26.2,25.1l219.9-43.7l43.5-8.7l53.8-10.7l-16.1,104.4l-18.4,3.7l-337,67.1c-43.8,8.7-83-28.8-76.2-73
				l37.5-243.7c10.5-68.1,62.4-122.3,130-135.8l242.8-48.3C3304.1,729.7,3343.3,767.2,3336.5,811.4z"/>
		</g>
	</g>
</g>
</svg>
