<?xml version="1.0" encoding="utf-8"?>
<!-- Generator: Adobe Illustrator 25.1.0, SVG Export Plug-In . SVG Version: 6.00 Build 0)  -->
<svg version="1.1" id="Layer_1" xmlns="http://www.w3.org/2000/svg" xmlns:xlink="http://www.w3.org/1999/xlink" x="0px" y="0px"
	 viewBox="0 0 3830.3 1005.2" style="enable-background:new 0 0 3830.3 1005.2;" xml:space="preserve">
<style type="text/css">
	.st0{fill:#444444;}
	.st1{fill:none;stroke:#BCBCBC;stroke-width:40.0516;stroke-linecap:round;stroke-miterlimit:10;}
	.st2{fill:#BCBCBC;}
	.st3{fill:#FFDD34;}
	.st4{fill:#7B46CE;}
	.st5{fill:none;stroke:#7B46CE;stroke-width:40.0516;stroke-linecap:round;stroke-miterlimit:10;}
	.st6{fill:#FF3ABD;}
	.st7{fill:none;stroke:#BCBCBC;stroke-width:40.1142;stroke-linecap:round;stroke-miterlimit:10;}
	.st8{fill:none;stroke:#7B46CE;stroke-width:40.1142;stroke-linecap:round;stroke-miterlimit:10;}
	.st9{fill:#E0E0E0;}
	.st10{fill:#FFFFFF;}
	.st11{fill:none;stroke:#FFFFFF;stroke-width:6.2774;stroke-miterlimit:10;}
	.st12{fill:none;stroke:#FFFFFF;stroke-width:6.0077;stroke-miterlimit:10;}
	.st13{fill:none;stroke:#000000;stroke-width:6.2774;stroke-miterlimit:10;}
	.st14{fill:none;stroke:#000000;stroke-width:6.0077;stroke-miterlimit:10;}
	.st15{fill:none;stroke:#000000;stroke-width:6.2907;stroke-miterlimit:10;}
	.st16{fill:none;stroke:#000000;stroke-width:37.9754;stroke-linecap:round;stroke-miterlimit:10;}
	.st17{clip-path:url(#SVGID_2_);}
	.st18{fill:#FFFFFF;stroke:#000000;stroke-width:6.6268;stroke-miterlimit:10;}
	.st19{clip-path:url(#SVGID_4_);}
	.st20{fill:none;stroke:#000000;stroke-width:40.693;stroke-linecap:round;stroke-miterlimit:10;}
	.st21{clip-path:url(#SVGID_6_);}
	.st22{clip-path:url(#SVGID_8_);}
</style>
<g>
	<path class="st10" d="M1123.3,34.5L1123.3,34.5l-174.1,0v0H880v936.1h95.3V711.9h148.1c0,0,0,0,0,0
		C1574.9,711.9,1574.9,34.5,1123.3,34.5z M1123.3,616.6L1123.3,616.6l-148.1,0V129.8h148.1c0,0,0,0,0,0
		C1447.9,129.8,1447.9,616.6,1123.3,616.6z"/>
	<path class="st10" d="M1987.7,882.1c-217.3,0-393.4-176.1-393.4-393.4c0-217.3,176.1-393.4,393.4-393.4c147.3,0,275.6,81,343,200.8
		H2437C2362.2,122,2189.3,0,1987.7,0C1717.8,0,1499,218.8,1499,488.7c0,269.9,218.8,488.7,488.7,488.7
		c201.5,0,374.5-122,449.3-296.2h-106.2C2263.3,801.1,2135,882.1,1987.7,882.1z"/>
	<rect x="2376.3" y="397.3" class="st10" width="133.7" height="182.8"/>
	<polygon class="st10" points="3053,551.9 3053,368.1 2776.5,368.1 2776.5,201.8 3053,201.8 3053,18 2776.5,18 2633.5,18 2592.7,18 
		2592.7,954.6 2776.5,954.6 2776.5,551.9 	"/>
	<polygon class="st10" points="3540.6,452.9 3791.7,18 3579.4,18 3434.5,269 3289.5,18 3077.3,18 3328.3,452.9 3038.7,954.6 
		3250.9,954.6 3434.5,636.7 3618,954.6 3830.3,954.6 	"/>
	<g>
		<path class="st20" d="M437.5,113c134.6,16.6,275.6,93.7,275.6,193.1c0,146-192.3,249.6-342.3,249.6
			c-139.9,0-253.3-56.7-253.3-125.1S231,306.7,370.9,306.7c96.9,0,231.6,54.3,246.3,123.6c17.5,82.4-43.7,130.5-43.7,130.5
			s-89.8,78-198.7,78s-187.4-37.1-187.4-88.3s79.2-92.8,188.1-92.8c67.4,0,150.7,31.4,175.4,83.1c24.7,51.5-33.4,158.6-176.6,158.6
			c-77.9,0-141-30.1-141-67.2c0-37.1,63.1-64.8,141-64.8c44.9,0,111.8,23.5,128.6,58.7c12.9,27-0.9,86.3-79,111.6"/>
		<circle cx="371" cy="104.8" r="31.1"/>
		<polygon points="0,356.5 0,783.1 378.8,561 378.8,134.4 		"/>
		<polygon points="378.8,804.5 378.8,1005.2 757.5,783.1 757.5,582.4 		"/>
		<polygon points="378.8,804.5 378.8,1005.2 0,783.1 0,582.4 		"/>
		<polygon class="st10" points="33,321.8 33,748.4 411.8,526.2 411.8,99.6 		"/>
		<circle class="st10" cx="415.4" cy="65.6" r="31.1"/>
		<g>
			<path class="st10" d="M468.2,718.8c-8.6,0-16.6-5.5-19.4-14.1c-3.5-10.7,2.4-22.2,13.1-25.6c3-1,6.4-2.2,10-3.6
				c-16.9,3.3-34.7,5-53.3,5c-40.6,0-79.2-7.7-108.5-21.7c-46-21.9-52.9-50.7-52.9-65.9c0-2.8,0.2-6,0.9-9.6
				c-30.3-19-46.8-44.1-46.8-72.1c0-6.9,1-13.7,3-20.3c-47-26.7-72.7-61.7-72.7-99.6c0-41.3,30.4-78.8,85.6-105.8
				c50.6-24.7,117.3-38.3,188-38.3c51.2,0,112,14.1,162.6,37.7c58.7,27.4,95.5,63.6,103.6,102c0.1,0.5,0.2,1,0.3,1.5
				c36.1-36.8,55.4-78.6,55.4-121.5c0-19.5-6.8-39-20.4-57.9c-13.4-18.7-32.8-36.4-57.7-52.6c-48.7-31.6-114.2-54.3-179.7-62.4
				c-11.2-1.4-19.1-11.5-17.7-22.7c1.4-11.2,11.5-19.1,22.7-17.7c71.4,8.8,143.2,33.9,196.9,68.6c29.2,19,52.4,40.2,68.7,63.1
				c18.5,25.9,27.9,53.4,27.9,81.6c0,64.2-33.2,125.2-94.3,174.8c-2.8,19.5-9.4,38.3-19.7,55.8c-13.9,23.6-29.7,37.1-33,39.7
				c-1.3,1.1-5.2,4.4-11.5,9.1c-2.8,15.4-9.2,31.3-18.8,46.6c-8.5,13.4-19.1,25.8-31.6,36.7c-1.3,5-2.9,9.9-5,14.8
				c-14.4,33.4-46.1,59.4-89.4,73.4C472.4,718.4,470.3,718.8,468.2,718.8z M301.9,603.3c12.8,17.4,55.6,36.5,116.7,36.5
				c35.9,0,67.8-7.2,94.8-21.3c6.2-3.3,12.2-6.9,17.7-10.8c0-4.2-0.7-7.8-1.6-10.5c-32.1,12.9-69.9,22.7-110.4,22.7
				C375,619.9,335.1,614.2,301.9,603.3z M323.1,567.1c27.4,7.8,60.5,12,96.1,12c26.3,0,51.6-5,74.5-12.5c-2.6-1.3-5.3-2.5-8.1-3.7
				c-21.7-9.1-46.7-14.6-66.9-14.6c-35.2,0-67.6,5.9-91.3,16.6C325.8,565.8,324.4,566.5,323.1,567.1z M252.2,508.7
				c-0.1,0.8-0.1,1.6-0.1,2.5c0,16,13.5,28.6,26.7,37c7.7-7,17.9-13.9,31.7-20.2c1-0.5,2.1-0.9,3.2-1.4
				C291.9,522.1,271.2,516.1,252.2,508.7z M503.6,526.5c13.3,5.7,25.7,12.8,36.3,21.1c16-8.1,29.7-16.4,40.4-23.5
				c-0.3-5.1-1.5-9.7-3.4-13.8c-0.9-1.8-1.9-3.7-3-5.5C551,513.9,527.3,521.2,503.6,526.5z M276.4,474.3
				c40.2,14.1,88.3,21.7,138.8,21.7c41,0,84.7-8,126.5-22.6c-7.9-5.2-16.7-10-26.4-14.3c-29.3-13-64.1-20.4-95.5-20.4
				c-49,0-93.6,8.9-125.7,25C287.5,467.1,281.6,470.6,276.4,474.3z M611.2,488c0.8,1.5,1.6,3.1,2.4,4.7c0.5,1,1,2.1,1.4,3.2
				c3.7-4.2,8-9.6,12.1-16.3C621.9,482.5,616.6,485.3,611.2,488z M415.3,287.8c-64.6,0-125,12.1-170.2,34.2
				c-39.9,19.5-62.8,44.7-62.8,69.3c0,22.6,19.2,45.8,53.1,64.8c10.3-10.7,23.9-20.4,40.4-28.7c37.7-18.9,88.8-29.3,144-29.3
				c55.8,0,123.8,19.9,165.3,57.5c16.2-7.8,31.7-16.5,46.4-26.2c4.5-2.9,8.8-5.9,13-9c0-8.2-0.9-16.6-2.7-25.1
				c-5.4-25.2-34.9-52-81.1-73.6C515.2,300.5,460.8,287.8,415.3,287.8z"/>
		</g>
		<polygon class="st10" points="411.8,769.8 411.8,970.5 790.6,748.4 790.6,547.6 		"/>
		<polygon class="st10" points="411.8,769.8 411.8,970.5 33,748.4 33,547.6 		"/>
		<g>
			<defs>
				<polygon id="SVGID_7_" points="81.2,720.1 411.8,526.2 411.8,207.1 81.2,207.1 				"/>
			</defs>
			<clipPath id="SVGID_2_">
				<use xlink:href="#SVGID_7_"  style="overflow:visible;"/>
			</clipPath>
			<g class="st17">
				<g>
					<path class="st10" d="M468.2,722.3c-10.4,0-19.5-6.7-22.7-16.6c-2-6.1-1.4-12.5,1.5-18.2c1-1.9,2.2-3.7,3.6-5.2
						c-10.4,1.1-21.1,1.7-32,1.7c-41.2,0-80.2-7.8-110-22c-47.8-22.8-54.9-53.1-54.9-69.1c0-2.6,0.2-5.2,0.6-7.8
						c-30.4-19.6-46.4-45.1-46.4-73.9c0-6.3,0.8-12.5,2.3-18.6c-46.5-27.1-72.1-63-72.1-101.3c0-42.7,31.1-81.4,87.6-109
						c51-24.9,118.4-38.7,189.6-38.7c51.7,0,113.1,14.2,164.1,38.1c57.2,26.7,94,61.9,104.4,99.5c32.7-35.2,49.9-74.6,49.9-114.3
						c0-18.8-6.6-37.5-19.7-55.8c-13.1-18.4-32.2-35.7-56.8-51.7C608.9,128.1,544,105.5,479,97.5c-6.3-0.8-12-4-15.9-9
						c-3.9-5-5.7-11.3-4.9-17.6c1.5-12,11.7-21,23.7-21c1,0,2,0.1,3,0.2c71.9,8.9,144.2,34.1,198.3,69.2c29.6,19.2,53,40.7,69.7,64
						c19,26.6,28.6,54.7,28.6,83.6c0,32.5-8.3,64.3-24.7,94.6c-16.1,29.7-39.6,57.3-69.9,82.1c-3,19.5-9.7,38.3-20,55.8
						c-14.2,24.1-30.5,38-33.8,40.6c-1.4,1.2-4.9,4.1-10.5,8.4c-3.1,15.7-9.5,31.4-19,46.5c-8.4,13.4-19,25.7-31.5,36.7
						c-1.3,4.8-2.9,9.6-4.9,14.2c-14.8,34.3-47.3,61.1-91.6,75.4C473.2,721.9,470.7,722.3,468.2,722.3z M315.2,610.9
						c19.3,13.7,56.5,25.3,103.4,25.3c35.4,0,66.7-7,93.2-20.9c5.5-2.9,10.8-6.1,15.8-9.5c-0.1-1.5-0.2-2.8-0.4-3.9
						c-36.7,14.3-73,21.5-108,21.5C380.7,623.4,345.8,619.2,315.2,610.9z M333.7,566.3c25.2,6.1,54.5,9.3,85.5,9.3
						c20.7,0,42.4-3.2,64.5-9.5c-21.1-8.8-45.4-14-65-14C386.3,552,356.4,557.1,333.7,566.3z M255.8,513.9
						c1.4,12.7,12.5,23,22.7,29.9c6.8-5.8,14.9-11.2,24.2-15.9C286.2,524,270.5,519.4,255.8,513.9z M514.4,527.6
						c9.6,4.8,18.3,10.1,25.9,15.8c12.4-6.3,24.5-13.4,36.2-21.1c-0.4-3.9-1.4-7.4-2.9-10.5c-0.4-0.9-0.8-1.7-1.3-2.6
						C553.4,516.6,534,522.8,514.4,527.6z M284.4,473.3c38.7,12.6,83.7,19.2,130.9,19.2c37.8,0,78.5-6.9,118.2-20
						c-6.1-3.6-12.7-7-19.6-10.1c-28.9-12.8-63.2-20.1-94-20.1c-48.4,0-92.5,8.7-124.1,24.6C291.7,469,287.9,471.1,284.4,473.3z
						 M415.3,291.4c-64.1,0-124,12-168.6,33.8c-38.6,18.9-60.8,43-60.8,66.1c0,20.5,17.8,42.4,48.9,60.4
						c10.4-10.3,23.7-19.5,39.4-27.4c38.1-19.2,89.8-29.7,145.6-29.7c28.6,0,60.3,5.3,89.1,14.8c30.5,10.1,57,24.6,76.8,42
						c15.4-7.5,30.1-15.9,43.8-24.9c3.9-2.6,7.7-5.2,11.4-7.8c-0.1-7.4-1-15-2.6-22.6c-5.1-24.1-34-50-79.1-71.1
						C514.1,303.9,460.3,291.4,415.3,291.4z"/>
					<path d="M481.9,53.4c0.8,0,1.7,0.1,2.5,0.2c71.4,8.8,143.2,33.9,196.9,68.6c29.2,19,52.4,40.2,68.7,63.1
						c18.5,25.9,27.9,53.4,27.9,81.6c0,64.2-33.2,125.2-94.3,174.8c-2.8,19.5-9.4,38.3-19.7,55.8c-13.9,23.6-29.7,37.1-33,39.7
						c-1.3,1.1-5.2,4.4-11.5,9.1c-2.8,15.4-9.2,31.3-18.8,46.6c-8.5,13.4-19.1,25.8-31.6,36.7c-1.3,5-2.9,9.9-5,14.8
						c-14.4,33.4-46.1,59.4-89.4,73.4c-2.1,0.7-4.2,1-6.3,1c-8.6,0-16.6-5.5-19.4-14.1c-3.5-10.7,2.4-22.2,13.1-25.6
						c3-1,6.4-2.2,10-3.6c-16.9,3.3-34.7,5-53.3,5c-40.6,0-79.2-7.7-108.5-21.7c-46-21.9-52.9-50.7-52.9-65.9c0-2.8,0.2-6,0.9-9.6
						c-30.3-19-46.8-44.1-46.8-72.1c0-6.9,1-13.7,3-20.3c-47-26.7-72.7-61.7-72.7-99.6c0-41.3,30.4-78.8,85.6-105.8
						c50.6-24.7,117.3-38.3,188-38.3c51.2,0,112,14.1,162.6,37.7c58.7,27.4,95.5,63.6,103.6,102c0.1,0.5,0.2,1,0.3,1.5
						c36.1-36.8,55.4-78.6,55.4-121.5c0-19.5-6.8-39-20.4-57.9c-13.4-18.7-32.8-36.4-57.7-52.6c-48.7-31.6-114.2-54.3-179.7-62.4
						c-11.2-1.4-19.1-11.5-17.7-22.7C463,61,471.7,53.4,481.9,53.4 M235.4,456.1c10.3-10.7,23.9-20.4,40.4-28.7
						c37.7-18.9,88.8-29.3,144-29.3c55.8,0,123.8,19.9,165.3,57.5c16.2-7.8,31.7-16.5,46.4-26.2c4.5-2.9,8.8-5.9,13-9
						c0-8.2-0.9-16.6-2.7-25.1c-5.4-25.2-34.9-52-81.1-73.6c-45.5-21.2-99.8-33.9-145.4-33.9c-64.6,0-125,12.1-170.2,34.2
						c-39.9,19.5-62.8,44.7-62.8,69.3C182.3,413.8,201.5,437.1,235.4,456.1 M415.3,496.1c41,0,84.7-8,126.5-22.6
						c-7.9-5.2-16.7-10-26.4-14.3c-29.3-13-64.1-20.4-95.5-20.4c-49,0-93.6,8.9-125.7,25c-6.6,3.3-12.5,6.9-17.6,10.6
						C316.7,488.5,364.7,496.1,415.3,496.1 M627.1,479.6c-5.2,2.9-10.5,5.7-15.9,8.4c0.8,1.5,1.6,3.1,2.4,4.7c0.5,1,1,2.1,1.4,3.2
						C618.7,491.7,623,486.2,627.1,479.6 M539.9,547.6c16-8.1,29.7-16.4,40.4-23.5c-0.3-5.1-1.5-9.7-3.4-13.8
						c-0.9-1.8-1.9-3.7-3-5.5c-22.9,9.1-46.5,16.4-70.3,21.7C516.9,532.3,529.4,539.3,539.9,547.6 M278.8,548.2
						c7.7-7,17.9-13.9,31.7-20.2c1-0.5,2.1-0.9,3.2-1.4c-21.8-4.5-42.5-10.5-61.5-17.9c-0.1,0.8-0.1,1.6-0.1,2.5
						C252.1,527.2,265.5,539.8,278.8,548.2 M419.1,579.2c26.3,0,51.6-5,74.5-12.5c-2.6-1.3-5.3-2.5-8.1-3.7
						c-21.7-9.1-46.7-14.6-66.9-14.6c-35.2,0-67.6,5.9-91.3,16.6c-1.5,0.7-2.9,1.3-4.2,2C350.5,575,383.5,579.2,419.1,579.2
						 M419.1,619.9c-44.1,0-84-5.7-117.2-16.6c12.8,17.4,55.6,36.5,116.7,36.5c35.9,0,67.8-7.2,94.8-21.3
						c6.2-3.3,12.2-6.9,17.7-10.8c0-4.2-0.7-7.8-1.6-10.5C497.4,610,459.6,619.9,419.1,619.9 M481.9,46.3L481.9,46.3
						c-13.8,0-25.5,10.4-27.2,24.1c-0.9,7.3,1.1,14.5,5.6,20.2c4.5,5.8,11,9.5,18.3,10.4c64.5,8,128.9,30.3,176.7,61.3
						c24.2,15.7,43,32.7,55.8,50.7c12.6,17.7,19,35.8,19,53.8c0,37.1-15.4,74-44.8,107.3c-12.7-36.3-49.3-70-104.4-95.7
						c-51.5-24-113.4-38.4-165.6-38.4c-71.7,0-139.6,13.9-191.1,39c-57.8,28.2-89.6,68.1-89.6,112.2c0,20.4,6.8,40,20.1,58.3
						c12.1,16.6,29.4,31.7,51.5,44.8c-1.2,5.5-1.8,11.2-1.8,16.8c0,15.3,4.4,29.9,13.2,43.3c7.8,12,18.9,22.8,33,32.3
						c-0.2,2-0.3,4.1-0.3,6.1c0,8.2,1.8,20.7,10.3,34.2c9.5,15.1,25.2,27.9,46.7,38.1c30.2,14.4,69.9,22.4,111.5,22.4
						c8.4,0,16.7-0.3,24.9-1c-3.1,6.4-3.6,13.6-1.4,20.3c3.7,11.4,14.2,19,26.1,19c2.9,0,5.7-0.4,8.4-1.3
						c45.3-14.6,78.6-42.1,93.8-77.4c1.9-4.5,3.5-9,4.8-13.7c12.4-11,22.9-23.4,31.3-36.8c9.5-15.1,16-30.7,19.2-46.4
						c5-3.8,8.2-6.6,9.6-7.7c3.4-2.8,20.1-17,34.6-41.6c10.3-17.5,17.1-36.2,20.2-55.7c30.2-24.9,53.6-52.5,69.7-82.3
						c16.7-30.8,25.1-63.2,25.1-96.3c0-29.7-9.8-58.5-29.3-85.7c-16.9-23.6-40.6-45.4-70.6-64.9c-54.5-35.4-127.4-60.8-199.8-69.7
						C484.1,46.4,483,46.3,481.9,46.3L481.9,46.3z M234.3,447.2c-28.6-17.1-44.8-37.3-44.8-56c0-10.4,4.9-21.1,14.6-31.7
						c10.1-11.2,25.4-22,44.2-31.1c44.2-21.6,103.5-33.5,167-33.5c44.6,0,97.8,12.4,142.4,33.2c22,10.3,40.7,22.1,54.1,34.2
						c12.8,11.6,20.7,23.5,23.1,34.4c1.4,6.7,2.3,13.5,2.5,20c-3.2,2.2-6.4,4.5-9.7,6.7c-12.9,8.5-26.8,16.5-41.3,23.6
						c-19.9-17-46.2-31.2-76.2-41.1c-29.2-9.7-61.2-15-90.2-15c-56.3,0-108.6,10.7-147.2,30.1C257.5,428.6,244.7,437.4,234.3,447.2
						L234.3,447.2z M293.1,472.3c1.4-0.7,2.7-1.5,4.2-2.2c31.1-15.6,74.6-24.2,122.6-24.2c30.4,0,64.1,7.2,92.6,19.8
						c4.2,1.9,8.3,3.9,12.2,5.9C487.7,483,450.2,489,415.3,489C371.5,489,329.7,483.2,293.1,472.3L293.1,472.3z M524.2,528.8
						c15.7-4.2,31.2-9.3,46.4-15.1c0.9,2.1,1.6,4.3,2.1,6.9c-10.4,6.8-21.1,13.1-32,18.7C535.6,535.6,530.1,532.1,524.2,528.8
						L524.2,528.8z M278.3,539.3c-7.1-5.1-14.3-11.9-17.5-19.8c10.3,3.6,21,6.8,32.1,9.7C287.6,532.3,282.7,535.7,278.3,539.3
						L278.3,539.3z M346.5,565.5c20.5-6.4,45.5-9.9,72.1-9.9c16.1,0,35.4,3.6,53.4,9.9c-18.1,4.4-35.8,6.6-52.9,6.6
						C393.3,572.1,368.6,569.8,346.5,565.5L346.5,565.5z M419.1,627c30.3,0,61.5-5.4,93.1-15.9c-0.7,0.4-1.4,0.7-2.1,1.1
						c-26,13.6-56.8,20.5-91.5,20.5c-34.4,0-59.3-6.2-74.1-11.3c-0.6-0.2-1.2-0.4-1.9-0.7C366.2,624.8,391.8,627,419.1,627
						L419.1,627z"/>
				</g>
			</g>
		</g>
	</g>
	<g>
		<polygon points="415.3,977.5 408.2,977.5 408.2,767.7 411.8,769.8 415.3,767.7 		"/>
	</g>
	<g>
		<path d="M239.8,660.7l-211.4-124l0.3-3.2c-2.2-1.2-4.5-2.4-6.8-3.6l-1.1,10.5l211.3,123.9L239.8,660.7z"/>
	</g>
</g>
</svg>
