<?xml version="1.0" encoding="utf-8"?>
<!-- Generator: Adobe Illustrator 26.0.2, SVG Export Plug-In . SVG Version: 6.00 Build 0)  -->
<svg version="1.1" id="Layer_1" xmlns="http://www.w3.org/2000/svg" xmlns:xlink="http://www.w3.org/1999/xlink" x="0px" y="0px"
	 viewBox="0 0 3839 2420.7" style="enable-background:new 0 0 3839 2420.7;" xml:space="preserve">
<style type="text/css">
	.st0{display:none;}
	.st1{display:inline;fill:#FFFFFF;}
	.st2{display:inline;}
	.st3{fill:#2920E2;}
	.st4{fill:#FFFFFF;}
</style>
<g>
	<g>
		<g>
			<g>
				<path class="st4" d="M1443.7,2048.6C1443.7,2048.6,1444,2048.8,1443.7,2048.6c18.7-12.1,31.2-33.5,31.2-57.8
					c0-37.7-29.7-68.3-66.7-68.3h-14.8h-180.2v76.2v131.9h69.4v-40.6c0-7.2,5.8-12.9,12.9-12.9h94.6c7.2,0,12.9,5.8,12.9,12.9v1.2
					v39.2h66.3v-39.2C1469.1,2081.2,1464.8,2062.6,1443.7,2048.6z M1295.8,2025c-7.2,0-12.9-5.8-12.9-12.9v-26.5
					c0-7.2,5.8-12.9,12.9-12.9h94.6c7.2,0,12.9,5.8,12.9,12.9v26.5c0,7.2-5.8,12.9-12.9,12.9H1295.8z"/>
				<path class="st4" d="M1967.2,1922.5h-15.8h-36.9h-25.1h-36.9h-15.8c-34.1,0-61.8,27.6-61.8,61.8v16.6v129.7h68.1v-51.3h117.8
					v51.3h68.1V2001v-16.6C2029,1950.2,2001.4,1922.5,1967.2,1922.5z M1843.3,2024.9v-33c0-9.5,7.7-17.1,17.1-17.1h29.2h25.1h29.2
					c9.5,0,17.1,7.7,17.1,17.1v33H1843.3z"/>
				<rect x="2075.4" y="1922.5" class="st4" width="70.5" height="208.1"/>
				<path class="st4" d="M2410.6,1922.5h-221.4v208.1h67.2v-139.5c0-8.4,6.9-15.3,15.3-15.3h115.1c8.4,0,15.3,6.9,15.3,15.3v42.5v97
					h66v-97V2017v-25.2v-12C2467.9,1948.2,2442.2,1922.5,2410.6,1922.5z"/>
				<path class="st4" d="M2815,1922.5h-302.9v208.1h61.4v-130.2v-9.9c0-8.1,6.6-14.7,14.7-14.7h52.5c8.1,0,14.7,6.6,14.7,14.7v25.3
					l0,0v114.7h69.4v-130.2v-9.9c0-8.1,6.6-14.7,14.7-14.7h52.5c8.1,0,14.7,6.6,14.7,14.7v9.9v130.2h3.3h66v-147.1
					C2876,1949.8,2848.7,1922.5,2815,1922.5z"/>
				<path class="st4" d="M3410.2,1922.5h-221.4v208.1h67.2v-139.5c0-8.4,6.9-15.3,15.3-15.3h115.1c8.4,0,15.3,6.9,15.3,15.3v42.5v97
					h66v-97V2017v-25.2v-12C3467.5,1948.2,3441.8,1922.5,3410.2,1922.5z"/>
				<path class="st4" d="M574,1922.5H352.5v208.1h67.2v-139.5c0-8.4,6.9-15.3,15.3-15.3h115.1c8.4,0,15.3,6.9,15.3,15.3v42.5v97h66
					v-97V2017v-25.2v-12C631.3,1948.2,605.7,1922.5,574,1922.5z"/>
				<path class="st4" d="M309.1,1975.4v-52.9H137.3l0,0H76v147c0,33.9,27.4,61.2,61.2,61.2h171.9v-52.9H153.8
					c-9.1,0-16.5-7.4-16.5-16.5l0,0c0-9.1,7.4-16.5,16.5-16.5H300v-36.7H153.8c-9.1,0-16.5-7.4-16.5-16.5l0,0
					c0-9.1,7.4-16.5,16.5-16.5L309.1,1975.4z"/>
				<path class="st4" d="M1173.2,1975.4v-52.9h-171.8l0,0h-61.3v147c0,33.9,27.4,61.2,61.2,61.2h171.9v-52.9h-155.3
					c-9.1,0-16.5-7.4-16.5-16.5l0,0c0-9.1,7.4-16.5,16.5-16.5h146.3v-36.7h-146.3c-9.1,0-16.5-7.4-16.5-16.5l0,0
					c0-9.1,7.4-16.5,16.5-16.5L1173.2,1975.4z"/>
				<path class="st4" d="M3147.7,1975.4v-52.9h-171.8l0,0h-61.3v147c0,33.9,27.4,61.2,61.2,61.2h171.9v-52.9h-155.3
					c-9.1,0-16.5-7.4-16.5-16.5l0,0c0-9.1,7.4-16.5,16.5-16.5h146.3v-36.7h-146.3c-9.1,0-16.5-7.4-16.5-16.5l0,0
					c0-9.1,7.4-16.5,16.5-16.5L3147.7,1975.4L3147.7,1975.4z"/>
				<path class="st4" d="M3748.2,1922.5h-250.3v52.3h73.7c8,0,14.5,6.5,14.5,14.5v141.3h73.9v-141.3c0-8,6.5-14.5,14.5-14.5h73.7
					V1922.5z"/>
				<path class="st4" d="M1747,1922.5h-250.3v52.3h73.7c8,0,14.5,6.5,14.5,14.5v141.3h73.9v-141.3c0-8,6.5-14.5,14.5-14.5h73.7
					L1747,1922.5L1747,1922.5z"/>
				<path class="st4" d="M908.7,1922.5H658.5v52.3h73.7c8,0,14.5,6.5,14.5,14.5v141.3h73.9v-141.3c0-8,6.5-14.5,14.5-14.5h73.7
					L908.7,1922.5L908.7,1922.5z"/>
			</g>
			<g>
				<path class="st4" d="M1778.6,2297.1h-97.8c-11.4,0-19.3-4.6-19.3-14.9c0-9.2,6.9-17.1,16-17.1h167.2v-52.6h-183.1
					c-34.1,0-62.6,28.6-62.6,60.5c0,45.7,29.6,62.9,69.4,62.9h97.8c10.2,0,20.5,4.6,20.5,14.9c0,9.2-6.9,17.1-16,17.1h-171.8v52.6
					h187.6c30.7,0,62.6-25.2,62.6-60.6C1849.1,2317.7,1814.9,2297.1,1778.6,2297.1z"/>
				<path class="st4" d="M1219.1,2297.2h-95.6c-11.4,0-20.5-4.6-20.5-14.9c0-9.1,9.1-17.1,17-17.1h167.2v-52.6h-183.1
					c-36.3,0-66,28.6-66,60.6c0,45.6,31.9,62.8,71.6,62.8h95.6c11.4,0,20.5,4.6,20.5,14.9c0,9.1-9.1,17.1-17,17.1h-169.5v52.6h187.6
					c34.1,0,64.8-25.2,64.8-60.6C1291.9,2317.8,1258.9,2297.2,1219.1,2297.2z"/>
				<path class="st4" d="M2724,2212.6h-302.9v208.1h61.4v-130.2v-9.9c0-8.1,6.6-14.7,14.7-14.7h52.5c8.1,0,14.7,6.6,14.7,14.7v25.3
					l0,0v114.7h69.4v-130.2v-9.9c0-8.1,6.6-14.7,14.7-14.7h52.5c8.1,0,14.7,6.6,14.7,14.7v9.9v130.2h3.3h66v-147.1
					C2785.1,2239.8,2757.7,2212.6,2724,2212.6z"/>
				<path class="st4" d="M1568.2,2212.6h-62.6h-0.4v77.7c0,8.7-7.1,15.7-15.7,15.7h-93.5c-8.7,0-15.7-7.1-15.7-15.7v-77.7h-1.4
					h-64.5v76.2v10.9c0,32.9,26.7,59.6,59.6,59.6h31.4v61.4h72.8v-61.4h31.9c32.9,0,59.6-26.7,59.6-59.6v-87.1H1568.2L1568.2,2212.6
					z"/>
				<path class="st4" d="M2379.9,2265.4v-52.9h-171.8l0,0h-61.3v147c0,33.9,27.4,61.2,61.2,61.2h171.9v-52.9h-155.3
					c-9.1,0-16.5-7.4-16.5-16.5l0,0c0-9.1,7.4-16.5,16.5-16.5h146.3v-36.7h-146.3c-9.1,0-16.5-7.4-16.5-16.5l0,0
					c0-9.1,7.4-16.5,16.5-16.5L2379.9,2265.4L2379.9,2265.4z"/>
				<path class="st4" d="M2120.4,2212.5H1870v52.3h73.7c8,0,14.5,6.5,14.5,14.5v141.3h73.9v-141.3c0-8,6.5-14.5,14.5-14.5h73.7
					V2212.5z"/>
			</g>
		</g>
		<g>
			<g>
				<g>
					<path class="st4" d="M3196.5,1692.8H624.5c-325.3,0-569.9-233.2-569.9-542.6c0-310.6,244.6-544.9,568.8-544.9h2574.2
						c325.3,0,569.8,234.3,569.8,544.9C3768.6,1459.6,3521.7,1692.8,3196.5,1692.8z"/>
				</g>
			</g>
			<g>
				<path d="M815.6,1228.6L641.6,946.5H515.3v403.8h125.1v-282l175.1,282.1h125.1V946.5H815.6V1228.6z M1805.2,1081.9v-39.8h-66
					v-54.6h-121.8v54.6h-66v39.8h66v268.5h121.7v-268.5H1805.2z M1010.1,1350.4h121.7v-268.5h-121.7V1350.4z M1010.1,1028.4h121.7
					v-83.1h-121.7V1028.4z M3137.3,1063.7c-97.8,0-177.5,67.1-177.5,151.3c0,83.1,79.6,151.3,177.5,151.3s177.5-67.1,177.5-151.3
					C3314.7,1130.8,3237.4,1063.7,3137.3,1063.7z M3186.2,1270.8c0,43.2-25,60.3-50.1,60.3c-23.9,0-50.1-18.2-50.1-60.3
					c0-16,0-58,0-58s0-39.8,0-55.7c0-42.1,25-60.3,50.1-60.3c23.9,0,50.1,17,50.1,60.3c0,16,0,46.6,0,56.9
					C3186.2,1215,3186.2,1254.8,3186.2,1270.8z M2801.7,1095.5c-19.3-11.4-39.8-21.6-68.3-23.9c-87.6-7.9-154.7,69.3-154.7,141
					c0,93.2,71.7,128.5,83.1,133.1c40.9,19.3,93.2,19.3,139.9-10.3c0,2.3,0,16,0,16h119.4V947.7h-119.4
					C2801.7,946.5,2801.7,1033,2801.7,1095.5z M2801.7,1215c0,0,0,30.8,0,47.8c0,40.9-28.4,52.3-47.8,52.3
					c-19.3,0-47.8-11.4-47.8-52.3c0-14.8,0-47.8,0-47.8s0-34.1,0-47.8c0-42.1,28.4-52.3,47.8-52.3c19.3,0,47.8,10.3,47.8,52.3
					C2801.7,1180.8,2801.7,1215,2801.7,1215z M1416.2,1069.4c-39.8,1.2-74,18.2-96.7,40.9c0-6.9,0-28.4,0-28.4h-120.6v268.5h120.6
					c0,0,0-164.9,0-176.3c0-23.9,25-48.9,58-48.9s55.7,26.2,55.7,48.9c0,17,0,176.3,0,176.3h120.6c0,0,0-127.4,0-145.6
					C1553.9,1097.9,1461.7,1068.3,1416.2,1069.4z M2403.6,1069.4c-39.8,1.2-74,18.2-96.7,40.9c0-6.9,0-28.4,0-28.4h-120.6v268.5
					h120.6c0,0,0-164.9,0-176.3c0-23.9,25-48.9,58-48.9s55.7,26.2,55.7,48.9c0,17,0,176.3,0,176.3h120.6c0,0,0-127.4,0-145.6
					C2540.1,1097.9,2447.9,1068.3,2403.6,1069.4z M2147.6,1217.3c0-83.1-80.8-152.4-179.7-152.4c-98.9,0-178.6,67.1-178.6,151.3
					c0,83.1,79.6,151.3,178.6,151.3c81.9,0,151.3-46.6,172.9-110.4h-120.6c0,0,0,1.2,0,16c0,48.9-31.8,60.3-50.1,60.3
					s-51.2-11.4-51.2-60.3c0-14.8,0-55.7,0-55.7L2147.6,1217.3L2147.6,1217.3z M1928.1,1122.9c9.1-17,27.3-23.9,43.2-25
					c16,0,33,7.9,43.2,25c7.9,13.6,7.9,29.6,7.9,52.3h-101.3C1919,1151.3,1919,1136.5,1928.1,1122.9z M3364.8,996.6
					c0-13.6-10.3-19.3-29.6-19.3h-27.3v69.3h17v-28.4h7.9l13.6,28.4h18.2l-14.8-30.8C3359.1,1012.6,3364.8,1005.7,3364.8,996.6z
					 M3332.9,1006.9h-7.9v-20.5h6.9c10.3,0,14.8,3.4,14.8,10.3C3347.7,1004.5,3342,1006.9,3332.9,1006.9z M3332.9,950
					c-34.1,0-62.6,27.3-62.6,62.6c0,34.1,28.4,62.6,62.6,62.6c34.1,0,62.6-28.4,62.6-62.6C3395.5,977.3,3367.1,950,3332.9,950z
					 M3332.9,1062.6c-27.3,0-50.1-22.7-50.1-50.1c0-27.4,22.7-50.1,50.1-50.1c27.4,0,50.1,22.7,50.1,50.1
					C3383,1039.8,3361.4,1062.6,3332.9,1062.6z M3197.5,720.2h-2573c-271.9-1.2-455,195.7-455,430s182,427.7,456.1,427.7h2571.9
					c273,0,456.1-193.3,456.1-427.7C3652.6,914.7,3469.4,719,3197.5,720.2z M3196.5,1473.2H625.6
					c-217.2,1.2-349.1-144.5-349.1-324.2s133.1-323,349.1-324.2h2570.8c216.2,0,349.2,144.5,349.2,324.2
					S3412.5,1473.2,3196.5,1473.2z M3197.5,720.2h-2573c-271.9-1.2-455,195.7-455,430s182,427.7,456.1,427.7h2571.9
					c273,0,456.1-193.3,456.1-427.7C3652.6,914.7,3469.4,719,3197.5,720.2z M3196.5,1473.2H625.6
					c-217.2,1.2-349.1-144.5-349.1-324.2s133.1-323,349.1-324.2h2570.8c216.2,0,349.2,144.5,349.2,324.2
					S3412.5,1473.2,3196.5,1473.2z M3197.5,720.2h-2573c-271.9-1.2-455,195.7-455,430s182,427.7,456.1,427.7h2571.9
					c273,0,456.1-193.3,456.1-427.7C3652.6,914.7,3469.4,719,3197.5,720.2z M3196.5,1473.2H625.6
					c-217.2,1.2-349.1-144.5-349.1-324.2s133.1-323,349.1-324.2h2570.8c216.2,0,349.2,144.5,349.2,324.2
					S3412.5,1473.2,3196.5,1473.2z"/>
			</g>
		</g>
	</g>
	<g>
		<path class="st4" d="M37.6,5.8H116L169.5,131h2.2c0-19.3-1.1-38.7,2.2-58l10.2-68.3h78.5l-36.3,226.4h-78.5L94.4,112.7h-2.2
			c0,15.9,0,30.7-2.2,45.5l-11.4,74H0L37.6,5.8z"/>
		<path class="st4" d="M284.3,5.8h81.8l-36.3,226.4H248L284.3,5.8z"/>
		<path class="st4" d="M389,5.8h78.5L521,131h2.2c0-19.3-1.1-38.7,2.2-58l10.2-68.3h78.5l-36.3,226.4h-78.5l-53.5-118.3h-2.2
			c0,15.9,0,30.7-2.2,45.5L430,232.2h-78.5L389,5.8z"/>
		<path class="st4" d="M621.1,5.8H794l-11.4,73.9l-45.5-2.2l-25,154.7h-81.8l25-154.7l-45.5,2.2L621.1,5.8z"/>
		<path class="st4" d="M799.6,5.8h152.5l-10.2,61.4h-69.4l-3.4,21.6h63.7l-9.1,59.2h-63.8l-3.4,22.8h71.6L918,232.3H763.3L799.6,5.8
			z"/>
		<path class="st4" d="M971.4,5.8h78.5l53.5,125.1h2.2c0-19.3-1.1-38.7,2.2-58L1118,4.7h78.5l-36.2,226.4h-78.5l-53.5-118.3h-2.2
			c0,15.9,0,30.7-2.2,45.5l-11.4,73.9h-78.5L971.4,5.8z"/>
		<path class="st4" d="M1219.4,5.8h84.2c76.2,0,128.5,33,116,116c-10.2,67.2-64.8,110.3-130.8,110.3h-104.6L1219.4,5.8z
			 M1276.2,163.9h5.7c27.2,0,50-12.6,54.6-42c4.6-31.8-11.3-45.5-40.9-45.5h-5.7L1276.2,163.9z"/>
		<path class="st4" d="M1676.7,119.5c-11.3,72.8-75.1,116-143.3,116c-69.4,0-118.3-43.3-107-116c11.3-71.6,75-117.2,143.3-117.2
			C1638,2.4,1688,47.9,1676.7,119.5z M1508.3,120.6c-4.6,26.1,10.2,43.3,35.3,43.3c25,0,45.5-18.2,48.9-43.3
			c3.4-23.9-9.1-44.4-35.3-44.4C1532.2,76.4,1512.9,96.8,1508.3,120.6z"/>
		<path class="st4" d="M1941.8,96.8c-11.3-12.6-26.1-22.8-44.4-22.8c-25,0-47.8,19.3-51.2,44.4c-3.4,25,14.8,44.4,38.7,44.4
			c19.3,0,35.3-8,50-20.5l-15.9,84.2c-14.8,6.8-45.5,9.1-60.3,9.1c-64.8,0-107-50-96.6-114.9c10.3-65.9,70.6-118.3,137.7-118.3
			c18.2,0,37.6,3.4,53.5,9.1L1941.8,96.8z"/>
		<path class="st4" d="M1970.1,5.8h81.8l-23.8,153.5h69.4l-11.3,72.8H1935L1970.1,5.8z"/>
		<path class="st4" d="M2158.9,232.2h-86.4L2187.4,5.8h91l44.4,226.4h-87.6l-3.4-28.5h-62.6L2158.9,232.2z M2226.1,150.2l-3.4-39.8
			c-1.1-9.1-1.1-19.3-1.1-29.6h-3.4l-26.1,69.4H2226.1z"/>
		<path class="st4" d="M2351.2,150.2l3.4,3.4c12.6,11.3,29.6,20.5,47.8,20.5c8,0,21.6-3.4,22.8-13.7c1.1-10.2-9.1-11.3-15.9-12.6
			l-15.9-3.4c-30.7-5.7-55.7-25-50-60.3c8-53.5,62.6-84.2,111.4-84.2c26.1,0,48.9,6.8,68.3,19.3l-31.8,58.2
			c-12.6-9.1-27.2-17-45.5-17c-6.8,0-18.2,2.2-19.3,12.6c-1.1,8,9.1,9.1,14.8,11.3l18.2,4.6c33,8,55.7,26.1,50,64.8
			c-9.1,53.5-62.6,80.7-111.4,80.7c-28.5,0-60.3-8-84.2-20.5L2351.2,150.2z"/>
		<path class="st4" d="M2534.4,150.2l3.4,3.4c12.6,11.3,29.6,20.5,47.8,20.5c8,0,21.6-3.4,22.8-13.7c1.1-10.2-9.1-11.3-15.9-12.6
			l-15.9-3.4c-30.7-5.7-55.7-25-50-60.3C2535.5,30.7,2589,0,2637.9,0c26.1,0,48.9,6.8,68.3,19.3l-32,58.2c-12.6-9.1-27.2-17-45.5-17
			c-6.8,0-18.2,2.2-19.3,12.6c-1.1,8,9.1,9.1,14.8,11.3l18.2,4.6c34.1,8,55.7,26.1,50,64.8c-9.1,53.5-62.6,80.7-111.4,80.7
			c-28.5,0-60.3-8-84.2-20.5L2534.4,150.2z"/>
		<path class="st4" d="M2727.7,5.8h81.8l-36.3,226.4h-81.8L2727.7,5.8z"/>
		<path class="st4" d="M2987.1,96.8C2975.8,84.2,2961,74,2942.7,74c-25,0-47.8,19.3-51.2,44.4c-3.4,25,14.8,44.4,38.7,44.4
			c19.3,0,35.3-8,50-20.5l-15.9,84.2c-13.7,6.8-45.5,9.1-60.3,9.1c-64.8,0-107-50-96.6-114.9C2817.6,54.7,2877.9,2.4,2945,2.4
			c18.2,0,37.6,3.4,53.5,9.1L2987.1,96.8z"/>
		<path class="st4" d="M3122.5,5.8h84.2l12.6,118.3h2.2c3.4-10.2,5.7-20.5,10.2-29.6l39.8-88.7h84.2l1.1,226.4h-79.6l9.1-124h-1.1
			c-2.2,8-5.7,14.8-9.1,22.8l-48.9,101.2h-47.8l-14.8-95.5c-1.1-9.1-1.1-18.2-1.1-28.5h-3.4c-2.2,9.1-4.6,18.2-6.8,27.2l-25,96.6
			h-79.6L3122.5,5.8z"/>
		<path class="st4" d="M3404.5,5.8h81.8l-36.3,226.4h-81.8L3404.5,5.8z"/>
		<path class="st4" d="M3509.2,5.8h78.5l53.5,125.1h2.2c0-19.3-1.1-38.7,2.2-58l10.2-68.3h78.5l-36.2,226.4h-78.5l-53.5-118.3h-2.2
			c0,15.9,0,30.7-2.2,45.5l-11.3,73.9h-78.5L3509.2,5.8z"/>
		<path class="st4" d="M3757.2,5.8h81.8l-36.3,226.4h-81.8L3757.2,5.8z"/>
	</g>
</g>
</svg>
