<?xml version="1.0" encoding="utf-8"?>
<!-- Generator: Adobe Illustrator 26.0.3, SVG Export Plug-In . SVG Version: 6.00 Build 0)  -->
<svg version="1.1" id="Layer_1" xmlns="http://www.w3.org/2000/svg" xmlns:xlink="http://www.w3.org/1999/xlink" x="0px" y="0px"
	 viewBox="0 0 3839 531.7" style="enable-background:new 0 0 3839 531.7;" xml:space="preserve">
<style type="text/css">
	.st0{fill:#FFFFFF;}
</style>
<g>
	<g>
		<path class="st0" d="M3807.1,483.3c18.6-5.9,31.9-23.4,31.9-43.6c0-20.2-13.3-37.8-31.9-43.6l-45.7-15.4h75v-80.8
			c0-14.4-5.8-27.6-15.4-37.8h15.4v-82.9c0-15.4-6.4-29.2-17-39.3h17V61.1c0-33.5-27.7-61.1-61.1-61.1c-16,0-30.8,6.4-41.5,16.5V0
			h-71.2v78.7c0,22.3,11.7,41.5,29.8,52.6c-17.5,9-29.8,27.1-29.8,48.4v83.5h15.4c-9.6,9.6-15.4,22.9-15.4,37.8v230.8L3807.1,483.3z
			"/>
		<g>
			<g>
				<path d="M3721,78.7V12.2h-20.7v66.5c0,12.8,10.6,23.4,23.4,23.4s23.4-10.6,23.4-23.4v-17c0-15.4,12.8-28.2,28.2-28.2
					c15.4,0,28.2,12.8,28.2,28.2v65.9h20.7V61.1c0-27.1-21.8-48.9-48.9-48.9c-27.1,0-48.9,21.8-48.9,48.9v17c0,1.6-1.1,2.7-2.7,2.7
					S3721,79.7,3721,78.7z"/>
				<path d="M3777.3,61.1v66.5h21.3V61.1c0-12.8-10.6-23.4-23.4-23.4s-23.4,10.6-23.4,23.4v17c0,15.4-12.8,28.2-28.2,28.2
					s-28.2-12.8-28.2-28.2V12.2h-20.7v66.5c0,27.1,21.8,48.9,48.9,48.9s48.9-21.8,48.9-48.9v-17c0-1.6,1.1-2.7,2.7-2.7
					C3776.3,59,3777.3,60.1,3777.3,61.1z"/>
			</g>
			<g>
				<path d="M3798.6,299.9c0-9-6.9-16-16-16h-66.5c-9,0-16,6.9-16,16v43.1h46.8v-33h-20.7v12.2h-4.8V310c0-2.7,2.1-4.8,4.8-4.8h46.8
					c2.7,0,4.8,2.1,4.8,4.8v59h20.7V299.9z"/>
				<path d="M3700.2,430.7V479l97.8-33c2.7-1.1,4.8-3.2,4.8-6.4c0-2.7-2.1-5.3-4.3-6.4l-123.9-42.5v24.5l44.1,14.9h-18.6V430.7
					L3700.2,430.7z M3744.9,439.2l-21.3,6.9v-14.4L3744.9,439.2z"/>
				<path d="M3802.3,471.6c13.8-4.3,24.5-17,24.5-32.4s-10.1-28.2-23.9-31.9l-113.8-38.8h83.5V310h-20.7v38.3h-56.4v-47.9
					c0-11.7,9.6-20.7,20.7-20.7h66.5c11.7,0,20.7,9.6,20.7,20.7V369h20.7v-69.1c0-22.9-18.6-41.5-41.5-41.5h-66.5
					c-22.9,0-41.5,18.6-41.5,41.5v85.6l125,43.1c4.8,1.6,8,5.8,8,11.2c0,5.3-3.2,9.6-8,11.2L3695.5,486v-55.3h-20.7v84l0,0
					L3802.3,471.6z"/>
			</g>
			<g>
				<path d="M3695.4,179.2c0-11.7,9.6-20.7,20.7-20.7h66.5c11.7,0,20.7,9.6,20.7,20.7v71.2h20.7v-71.2c0-22.9-18.6-41.5-41.5-41.5
					h-66.5c-22.9,0-41.5,18.6-41.5,41.5v71.2h20.7L3695.4,179.2L3695.4,179.2z"/>
				<path d="M3725.8,184v51.6h20.7v-72.3h-30.8c-9,0-16,6.9-16,16v71.2h20.7v-61.7C3721,186.1,3723.1,184,3725.8,184z"/>
				<path d="M3772.5,235.5V184c2.7,0,4.8,2.1,4.8,4.8v61.1h21.3v-70.7c0-9-6.9-16-16-16h-30.8v72.3
					C3751.8,235.5,3772.5,235.5,3772.5,235.5z"/>
			</g>
		</g>
	</g>
	<g>
		<path d="M425.3,216l-10-4.3c0.6-2,1.2-4.3,1.2-6.7c0-6.2-58.7-39.8-160.3-39.8c-97.2,0-139,23.1-139,52.8
			c0,78.7,367.4-36.4,367.4,137.2c0,63.3-79.8,112.3-239.5,112.3c-152.2,0-195.8-37.4-210.2-37.4c-3.8,0-5.6,2.4-8.7,3.8l-8.1-1.5
			L69.9,351l10,3.8c0,2-1.2,3.8-1.2,7.7c0,28.4,80.4,48.4,160.3,48.4c113.5,0,152.2-24.9,152.2-51.3c0-94-362.4,22.6-362.4-136.8
			c-0.1-80.5,110.2-114.1,231.2-114.1c108.5,0,184.7,36.4,192.1,36.4c8.1,0,9.4-2,11.2-3.3l10,2.4L425.3,216z"/>
		<path d="M502.7,456c13.7,0,16.3-3.8,16.3-14.4v-307c0-10.5-2.4-14.4-16.3-14.4v-6.7h404.8c14.9,0,21.3-3.8,21.3-10.5h8.7v79.7
			h-8.7c0-8.7-6.2-12.5-21.3-12.5H607.5v85.4h195.8c14.9,0,21.3-3.8,21.3-12.5h8.7v80.7h-8.7c0-3.8-1.2-6.7-5-8.7
			c-3.2-2-8.7-2.9-16.3-2.9H607.5v94h305.7c14.9,0,21.3-3.8,21.3-11.5h8.7v78.7h-8.7c0-6.7-6.2-10.5-21.3-10.5H502.7V456z"/>
		<path d="M1466.3,278.5v6.7c-6.2,1-11.9,4.8-11.9,15.4v94.5c0,7.7,3.2,10.5,11.2,12v6.7c-39.4,17.2-135.3,53.8-243.2,53.8
			C1079,467.6,953,412.8,953,288.2s147.1-179.5,276.9-179.5c51.1,0,99.8,9.2,135.3,17.7c33,11,57.4,19.7,61.7,19.7
			c5.6,0,11.2-2.4,13.7-5.3l8.7,2.9l-60.5,78.7l-8.7-4.3c0.6-2,1.2-4.8,1.2-8.2c0-14.9-67.3-44.6-150.3-44.6
			c-104.7,0-189.6,39.8-189.6,120.9c0,84.9,84.8,124.8,180.9,124.8c78.6,0,124.8-20.7,143.5-31.2V340h-107.3
			c-12.5,0-19.9,4.8-19.9,11.5h-8.7V267h8.7c0,6.7,7.5,11.5,19.9,11.5H1466.3L1466.3,278.5z"/>
		<path d="M1467.6,462.7V456c11.2-0.5,14.9-2.9,23.7-18.2l170.2-294.5c3.2-4.8,6.8-10,6.8-14.4c0-5.3-5-7.7-13.1-8.7v-6.7h136v6.7
			c-9.4,1-13.1,3.8-13.1,7.2c0,3.8,2.4,7.7,5.6,12.5l180.9,298c8.7,14.9,11.2,18.2,24.3,18.2v6.7h-124.2V456
			c8.1,0,11.2-2.4,11.2-4.8c0-5.3-5.6-12-47.4-80.5h-213.9c-36.2,62.3-45.6,72-45.6,78.2c0,4.3,3.8,6.7,9.4,7.2v6.7h-111.1V462.7z
			 M1792.5,315.9l-74.8-125.8l-73.6,125.8H1792.5z"/>
		<path d="M2319,239.6h8.7c2.4,8.2,12.5,12,47.4,12c85.4,0,108.5-21.6,108.5-42.2c0-22.1-29.9-44.1-95.5-44.1
			c-84.2,0-142.3,35.4-142.3,51.3c0,3.3,1.2,6.2,2.4,8.7l-7.5,4.8l-66-66.7l8.7-3.8c2.4,1.5,5.6,2.9,9.4,2.9
			c18.1,0,56.1-53.8,200.8-53.8c101.7,0,178.4,42.2,178.4,97.4c0,32.6-23.1,58.1-62.9,67.2v1c52.4,14.4,88.6,41.8,88.6,87.3
			c0,61.8-78.6,106.1-199.6,106.1c-162.8,0-198.4-43.1-219.5-43.1c-5,0-8.7,2-12.5,4.3l-10-2.9l49.9-82.5l9.4,4.3
			c0,1.5-0.6,3.3-0.6,5.7c0,18.7,69.2,57.6,172.8,57.6c78.6,0,121.6-21.1,121.6-51.3c0-26.4-32.4-55.1-122.8-55.1
			c-46.8,0-56.7,5.3-58.7,13.9h-8.7v-78.8H2319z"/>
		<path d="M2613.9,179.6l8.7-5.3c1.2,1.5,3.8,2.4,7.5,2.4c17.5,0,64.3-68.1,197.1-68.1c77.4,0,174,34.1,174,100.7
			c0,127.6-238.2,114.1-301.9,194.8H3000c13.7,0,18.7-3.8,18.7-11.5h8.7v80.5h-8.7c0-6.7-5-10.5-18.7-10.5h-400.4
			c0-175.1,313.1-167.4,313.1-249.9c0-31.2-46.8-47.5-89.2-47.5c-71.7-0.1-132.8,46-132.8,67.1c0,4.3,2.4,7.2,5,9.7l-8.1,5.7
			L2613.9,179.6z"/>
		<path d="M3050.6,462.7V456c15.6-1,19.9-8.2,31.8-20.2l155.9-154l-147.1-150.6c-3.8-3.8-9.4-11-24.9-11v-6.8h147.1v6.7
			c-8.1,0-13.1,2-13.1,6.7c0,2,3.2,5.7,9.4,12l84.8,87.3l88.6-87.8c5-5.3,8.7-9.2,8.7-12c0-3.8-5-6.2-10.6-6.2v-6.7h138.5v6.7
			c-20.5,0.5-28.7,8.7-40.6,20.2l-136,134.8l157.2,160.7c12.5,13,16.9,19.7,33.7,20.2v6.7H3388V456c9.4,0,11.9-1.5,11.9-6.2
			c0-4.3-10.6-13.9-22.5-25.9l-91.1-92.6L3176,440.6c-3.2,3.3-5.6,4.8-5.6,9.2c0,3.8,5,6.2,13.1,6.2v6.7H3050.6z"/>
	</g>
	<g>
		<path class="st0" d="M407.2,198l-10-4.3c0.6-2,1.2-4.3,1.2-6.7c0-6.2-58.7-39.8-160.3-39.8c-97.2,0-139,23.1-139,52.8
			c0,78.7,367.4-36.4,367.4,137.2c0,63.3-79.8,112.3-239.5,112.3c-152.2,0-195.8-37.4-210.2-37.4c-3.8,0-5.6,2.4-8.7,3.8L0,414.4
			l51.8-81.5l10,3.8c0,2-1.2,3.8-1.2,7.7c0,28.4,80.4,48.4,160.3,48.4c113.5,0,152.2-24.9,152.2-51.3c0-94-362.4,22.6-362.4-136.8
			C10.6,124.2,121,90.5,242,90.5c108.5,0,184.7,36.4,192.1,36.4c8.1,0,9.4-2,11.2-3.3l10,2.4L407.2,198z"/>
		<path class="st0" d="M484.6,437.9c13.7,0,16.3-3.8,16.3-14.4v-307c0-10.5-2.4-14.4-16.3-14.4v-6.7h404.8
			c14.9,0,21.3-3.8,21.3-10.5h8.7v79.7h-8.7c0-8.7-6.2-12.5-21.3-12.5H589.4v85.4h195.8c14.9,0,21.3-3.8,21.3-12.5h8.7v80.7h-8.7
			c0-3.8-1.2-6.7-5-8.7c-3.2-2-8.7-2.9-16.3-2.9H589.4v94h305.7c14.9,0,21.3-3.8,21.3-11.5h8.7v78.7h-8.7c0-6.7-6.2-10.5-21.3-10.5
			H484.6V437.9z"/>
		<path class="st0" d="M1448.3,260.4v6.7c-6.2,1-11.9,4.8-11.9,15.4V377c0,7.7,3.2,10.5,11.2,12v6.7
			c-39.4,17.2-135.3,53.8-243.2,53.8c-143.5,0-269.5-54.8-269.5-179.4s147.1-179.5,276.9-179.5c51.1,0,99.9,9.2,135.3,17.7
			c33,11,57.4,19.7,61.7,19.7c5.6,0,11.2-2.4,13.7-5.3l8.7,2.9l-60.5,78.7l-8.7-4.3c0.6-2,1.2-4.8,1.2-8.2
			c0-14.9-67.3-44.6-150.3-44.6c-104.7,0-189.6,39.8-189.6,120.9c0,84.9,84.8,124.8,180.9,124.8c78.6,0,124.8-20.7,143.5-31.2v-39.8
			h-107.3c-12.5,0-19.9,4.8-19.9,11.5h-8.7v-84.5h8.7c0,6.7,7.5,11.5,19.9,11.5H1448.3L1448.3,260.4z"/>
		<path class="st0" d="M1449.5,444.6v-6.7c11.2-0.5,14.9-2.9,23.7-18.2l170.2-294.5c3.2-4.8,6.8-10,6.8-14.4c0-5.3-5-7.7-13.1-8.7
			v-6.7h136v6.7c-9.4,1-13.1,3.8-13.1,7.2c0,3.8,2.4,7.7,5.6,12.5l180.9,298c8.7,14.9,11.2,18.2,24.3,18.2v6.7h-124.2v-6.7
			c8.1,0,11.2-2.4,11.2-4.8c0-5.3-5.6-12-47.4-80.5h-213.9c-36.2,62.3-45.6,72-45.6,78.2c0,4.3,3.8,6.7,9.4,7.2v6.7h-111.1V444.6z
			 M1774.4,297.8l-74.8-125.8l-73.6,125.8H1774.4z"/>
		<path class="st0" d="M2301,221.6h8.7c2.4,8.2,12.5,12,47.4,12c85.4,0,108.5-21.6,108.5-42.2c0-22.1-29.9-44.1-95.5-44.1
			c-84.2,0-142.3,35.4-142.3,51.3c0,3.3,1.2,6.2,2.4,8.7l-7.5,4.8l-66-66.7l8.7-3.8c2.4,1.5,5.6,2.9,9.4,2.9
			c18.1,0,56.1-53.8,200.8-53.8c101.7,0,178.4,42.2,178.4,97.4c0,32.6-23.1,58.1-62.9,67.2v1c52.4,14.4,88.6,41.8,88.6,87.3
			c0,61.8-78.6,106.1-199.6,106.1c-162.8,0-198.4-43.1-219.5-43.1c-5,0-8.7,2-12.5,4.3l-10-2.9l49.9-82.5l9.4,4.3
			c0,1.5-0.6,3.3-0.6,5.7c0,18.7,69.2,57.6,172.8,57.6c78.6,0,121.6-21.1,121.6-51.3c0-26.4-32.4-55.1-122.8-55.1
			c-46.8,0-56.7,5.3-58.7,13.9h-8.7v-78.8H2301z"/>
		<path class="st0" d="M2595.9,161.6l8.7-5.3c1.2,1.5,3.8,2.4,7.5,2.4c17.5,0,64.3-68.1,197.1-68.1c77.4,0,174,34.1,174,100.7
			c0,127.6-238.2,114.1-301.9,194.8h300.7c13.7,0,18.7-3.8,18.7-11.5h8.7v80.5h-8.7c0-6.7-5-10.5-18.7-10.5h-400.4
			c0-175.1,313.1-167.4,313.1-249.9c0-31.2-46.8-47.5-89.2-47.5c-71.7-0.1-132.8,46-132.8,67.1c0,4.3,2.4,7.2,5,9.7l-8.1,5.7
			L2595.9,161.6z"/>
		<path class="st0" d="M3032.5,444.6v-6.7c15.6-1,19.9-8.2,31.8-20.2l155.9-154l-147.1-150.6c-3.8-3.8-9.4-11-24.9-11v-6.8h147.1
			v6.7c-8.1,0-13.1,2-13.1,6.7c0,2,3.2,5.7,9.4,12l84.8,87.3l88.6-87.8c5-5.3,8.7-9.2,8.7-12c0-3.8-5-6.2-10.6-6.2v-6.7h138.5v6.7
			c-20.5,0.5-28.7,8.7-40.6,20.2L3325,257l157.2,160.7c12.5,13,16.9,19.7,33.7,20.2v6.7H3370v-6.7c9.4,0,11.9-1.5,11.9-6.2
			c0-4.3-10.6-13.9-22.5-25.9l-91.1-92.6l-110.4,109.4c-3.2,3.3-5.6,4.8-5.6,9.2c0,3.8,5,6.2,13.1,6.2v6.7H3032.5z"/>
	</g>
</g>
</svg>
