<?xml version="1.0" encoding="utf-8"?>
<!-- Generator: Adobe Illustrator 26.0.3, SVG Export Plug-In . SVG Version: 6.00 Build 0)  -->
<svg version="1.1" id="Layer_1" xmlns="http://www.w3.org/2000/svg" xmlns:xlink="http://www.w3.org/1999/xlink" x="0px" y="0px"
	 viewBox="0 0 3839 475.1" style="enable-background:new 0 0 3839 475.1;" xml:space="preserve">
<style type="text/css">
	.st0{fill:#FFFFFF;}
	.st1{clip-path:url(#SVGID_00000090288803241134804010000014749374472746703755_);}
	.st2{clip-path:url(#SVGID_00000042730538821232463780000015828878657982411408_);}
	.st3{fill:none;}
	.st4{clip-path:url(#SVGID_00000104679624390806880490000011326700680215266708_);}
	.st5{clip-path:url(#SVGID_00000139983126602866370730000000274172640434125496_);}
	.st6{clip-path:url(#SVGID_00000114031621865513933410000014056368661432588697_);}
	.st7{clip-path:url(#SVGID_00000173842636238441755930000008541449195418947722_);}
	.st8{clip-path:url(#SVGID_00000044872260444833482930000005226860358484366509_);fill:#FFFFFF;}
	.st9{clip-path:url(#SVGID_00000173159474153363839480000009635086057125082813_);}
	.st10{clip-path:url(#SVGID_00000176028125368536512740000014405708467950075031_);}
	.st11{clip-path:url(#SVGID_00000096772899122533111490000017396308335372056755_);}
	.st12{clip-path:url(#SVGID_00000014593657187677319640000008605631114146435253_);fill:#FFFFFF;}
	.st13{clip-path:url(#SVGID_00000155856177043109777530000006339286028587530630_);fill:#FFFFFF;}
	.st14{clip-path:url(#SVGID_00000067944345582013492910000015493707382628055456_);}
	.st15{clip-path:url(#SVGID_00000079448126394148161160000012472858296375547310_);}
	.st16{display:none;}
	.st17{display:inline;}
	.st18{clip-path:url(#SVGID_00000145776445530493606850000004192024052171524483_);fill:#FFFFFF;}
	.st19{clip-path:url(#SVGID_00000077316715799692142520000006874186671448124845_);}
	.st20{clip-path:url(#SVGID_00000034809548330192522250000015897012730921498246_);}
	.st21{clip-path:url(#SVGID_00000089573922767395255030000005800509440811598228_);}
	.st22{clip-path:url(#SVGID_00000025444018976476694750000000325552134801330847_);}
	.st23{clip-path:url(#SVGID_00000137826110051158234850000010673470938932094091_);}
	.st24{clip-path:url(#SVGID_00000109006792938922209310000012060000018580995469_);}
	.st25{clip-path:url(#SVGID_00000144339441314185011420000013069734491639879871_);fill:#FFFFFF;}
	.st26{clip-path:url(#SVGID_00000100372953303306193340000009928480683609367171_);}
	.st27{clip-path:url(#SVGID_00000159466366932142622210000013161979170333434498_);}
	.st28{clip-path:url(#SVGID_00000127740086921176350810000000985205684049892752_);}
</style>
<g>
	<g>
		<g>
			<g>
				<defs>
					<circle id="SVGID_00000127026289565982019850000005364352978926819487_" cx="380.2" cy="237.6" r="237.6"/>
				</defs>
				<clipPath id="SVGID_00000150820265061396769290000005966050882369408650_">
					<use xlink:href="#SVGID_00000127026289565982019850000005364352978926819487_"  style="overflow:visible;"/>
				</clipPath>
				<g style="clip-path:url(#SVGID_00000150820265061396769290000005966050882369408650_);">
					<polygon class="st0" points="320.1,474.6 128.4,281.2 164.1,355.6 281.8,470 					"/>
				</g>
			</g>
		</g>
		<g>
			<g>
				<defs>
					<path id="SVGID_00000116948191691183556870000016426785880775297673_" d="M265.2,327.8c31.9-7.2,63.8-14.2,95.5-22.4
						c31.9-8.4,63.1-18.5,94.1-29.9c30.8-11.3,61.4-23.3,91.8-35.5c14.4-5.8,29-11.1,43.6-16.1c8.9-3.1,17.8-6.3,26.5-9.9
						c-3.6-36.8-15.7-71-34.1-101c-27.3,9.8-55.6,16.6-83.4,24.7c-31,9.1-61.9,18.4-92.7,28.6c-30.8,10.2-61.3,20.7-92.1,30.4
						c-31.1,9.7-62.4,18.9-93.4,29.1c-25.9,8.5-51.6,18.3-78,25c1.9,35.3,11.6,68.6,27.2,98.1C202.4,344.3,233.5,334.9,265.2,327.8z
						"/>
				</defs>
				<clipPath id="SVGID_00000001644350140067927200000011561912657665558948_">
					<use xlink:href="#SVGID_00000116948191691183556870000016426785880775297673_"  style="overflow:visible;"/>
				</clipPath>
				<path style="clip-path:url(#SVGID_00000001644350140067927200000011561912657665558948_);fill:#FFFFFF;" d="M124.5,451.7
					c-11.5,0-22.7-0.3-33.6-0.8c-16.5-0.8-29.6-14.5-29-31.1c0.6-16.7,14.8-29.7,31.5-28.8c93.7,4.8,220.6-13.8,339.5-49.4
					c116.2-35,207.8-80.7,245.2-122.4c4.4-4.9,10.8-12.9,13.6-21c1.9-5.5-1.5-11.5-7.3-12.5c-12.5-2.1-40.4-2.3-100.5,12.1
					c-63.8,15.3-143.2,41.7-219.9,67.3c-79.5,26.5-154.6,51.5-214.7,65.4C88.8,344.3,24.6,352.4,5.8,306.9
					c-7.5-17.9-11.5-46.2,11.5-79.3c49.5-71.2,201.3-125.1,287.2-150.8c129-38.9,266.5-61.8,350.3-58.6
					c16.6,0.6,29.5,14.5,28.8,31.1C683,66,669.1,78.9,652.5,78.2c-77.7-3-207.6,18.9-331,55.9C191.8,173,94,221.9,66.3,261.6
					c-1.4,2.1-2.6,4-3.5,5.8c-2.6,4.9-0.5,13,8.2,13.8c13.1,1.2,38.1-1.9,83.5-14.2c54.6-14.5,120.3-35.9,190.1-59.2
					c199.2-66.4,324.2-104.2,379.3-70.9c15.4,9.3,25.1,23.6,27.9,41.3c4.4,26.9-5.5,54.1-29.5,80.7
					c-45,50.3-144.4,101.3-272.6,139.8C336.8,432.9,220.4,451.7,124.5,451.7z"/>
			</g>
		</g>
		<g>
			<g>
				<path class="st0" d="M560.8,83.1c34.9-4.1,66.3-5.8,92-4.9c16.6,0.6,30.5-12.2,31.1-28.8c0.6-16.6-12.2-30.5-28.8-31.1
					c-41.4-1.5-96.3,3.2-156.5,13.3C522,45,543.1,62.5,560.8,83.1z"/>
			</g>
			<g>
				<path class="st0" d="M71.1,281.2c-8.8-0.8-10.8-8.9-8.2-13.8c0.9-1.8,2.1-3.7,3.5-5.8c12.7-18.3,40.2-38.5,78.8-58.7
					c4.1-28.1,13.1-54.4,26-78.4C107.4,152,45.6,187,17.3,227.7C-5.6,260.7-1.6,289,5.8,306.9c18.8,45.4,83,37.3,143.4,23.4
					c3.6-0.9,7.3-1.7,11.1-2.6c-7.5-18.3-12.9-37.8-15.6-58C105.6,279.8,83.3,282.4,71.1,281.2z"/>
			</g>
			<g>
				<path class="st0" d="M752,178.2c-2.8-17.8-12.5-32-27.9-41.3c-26.8-16.2-70-15.6-130.1-3.1c8.8,18,15.3,37.3,19.3,57.4
					c40.3-7.9,61-7.3,71.2-5.7c5.8,1,9.3,6.9,7.3,12.5c-2.8,8.1-9.3,16.1-13.6,21c-13.8,15.4-35,31.4-62,47.1
					c-3.3,28.4-11.8,55.2-24.3,79.7c58.9-27.4,104.2-57.3,130.8-86.9C746.5,232.3,756.4,205.1,752,178.2z"/>
			</g>
			<g>
				<path class="st0" d="M196.3,388.1c-36.9,3.3-71.8,4.4-103,2.7c-16.7-0.9-30.9,12.1-31.5,28.8c-0.6,16.6,12.5,30.4,29,31.1
					c10.9,0.5,22.1,0.8,33.6,0.8c41.3,0,86.5-3.5,133.6-10.2C234.5,427.4,213.7,409.2,196.3,388.1z"/>
			</g>
			<g>
				<path class="st3" d="M498.5,31.5C463.6,11.5,423.2,0,380.2,0c-90.3,0-168.8,50.4-209,124.6c47.7-20.5,96.6-36.7,133.5-47.7
					C369.8,57.3,437,41.7,498.5,31.5z"/>
			</g>
			<g>
				<path class="st3" d="M145.1,203.1c-1.7,11.3-2.4,22.9-2.4,34.6c0,10.9,0.8,21.6,2.2,32c3.2-0.8,6.6-1.7,9.9-2.6
					c54.6-14.5,120.3-35.9,190.1-59.2c102.6-34.2,185.4-60.9,249.2-74.1c-8.9-18.4-20.2-35.4-33.3-50.7
					c-70.9,8.2-156.4,26.3-239.1,51C251.4,155.2,190.5,179.1,145.1,203.1z"/>
			</g>
			<g>
				<path class="st3" d="M258.1,441.4c35.6,21.5,77.5,33.7,122.1,33.7c92.3,0,172.2-52.6,211.6-129.3
					c-41.2,19.2-89.1,37.1-141.8,52.9C385.6,418.1,320.1,432.7,258.1,441.4z"/>
			</g>
			<g>
				<path class="st3" d="M616.1,266.1c1.2-9.4,1.7-18.9,1.7-28.6c0-15.8-1.5-31.3-4.5-46.3c-8.8,1.7-18.5,3.9-29.3,6.4
					C520.1,213,440.7,239.4,364,265c-74.8,25-145.6,48.5-203.7,62.8c9,22,21.2,42.3,36,60.4c74.3-6.7,157.3-22.9,236.7-46.7
					C506.3,319.4,569.8,293,616.1,266.1z"/>
			</g>
		</g>
		<g>
			<g>
				<defs>
					<circle id="SVGID_00000071517772776938632310000017487385853729780406_" cx="380.2" cy="237.6" r="237.6"/>
				</defs>
				<clipPath id="SVGID_00000027600947757592142000000001460140752701970583_">
					<use xlink:href="#SVGID_00000071517772776938632310000017487385853729780406_"  style="overflow:visible;"/>
				</clipPath>
				<g style="clip-path:url(#SVGID_00000027600947757592142000000001460140752701970583_);">
					<g>
						<path class="st0" d="M406.1-95.2c0,0,130.1,156,160.9,185.7c29.6,28.7,213.6,185.1,213.6,185.1l-5.4,24.8L374.9-88.5"/>
						<path class="st0" d="M381-75.9c0,0,131.7,155.8,162.4,185.6c29.6,28.7,211.8,185.7,211.8,185.7l-6.4,24.2l-398-388.1"/>
						<path class="st0" d="M355.9-56.6c0,0,133.3,155.7,164.1,185.6c29.6,28.7,210,186.2,210,186.2l-7.3,23.6L326.4-48.6"/>
						<path class="st0" d="M330.8-37.2c0,0,134.9,155.7,165.6,185.4C526,177,704.6,335,704.6,335l-8.4,22.9L302.1-28.8"/>
						<path class="st0" d="M305.7-17.9c0,0,136.4,155.6,167.2,185.3c29.6,28.7,206.6,187.4,206.6,187.4l-9.4,22.4L277.8-8.9"/>
						<path class="st0" d="M280.6,1.4c0,0,138,155.5,168.7,185.2c29.6,28.7,204.8,187.9,204.8,187.9l-10.4,21.7L253.4,11.1"/>
						<path class="st0" d="M255.4,20.7c0,0,139.5,155.3,170.3,185.1c29.6,28.7,202.9,188.4,202.9,188.4l-11.3,21.1L229.1,30.9"/>
						<path class="st0" d="M230.3,40.2c0,0,141,155.2,171.9,184.9c29.6,28.7,201.1,189.1,201.1,189.1L591,434.6L204.8,50.8"/>
						<path class="st0" d="M205.2,59.5c0,0,142.7,155.1,173.5,184.8C408.3,273,578,433.8,578,433.8l-13.4,19.8l-384.1-383"/>
						<path class="st0" d="M180.1,78.8c0,0,144.3,154.9,175,184.7c29.6,28.7,197.5,190.1,197.5,190.1l-14.3,19.2L156.2,90.3"/>
						<path class="st0" d="M155,98.1c0,0,145.8,154.9,176.6,184.7c29.6,28.7,195.7,190.7,195.7,190.7L512,492L131.8,110.4"/>
						<path class="st0" d="M129.9,117.5c0,0,147.4,154.8,178.1,184.5C337.6,330.7,502,493.3,502,493.3l-16.3,18L107.4,130.4"/>
						<path class="st0" d="M104.8,136.8c0,0,148.9,154.7,179.7,184.4c29.6,28.7,192.1,191.9,192.1,191.9l-17.4,17.4L83.1,150.2"/>
						<path class="st0" d="M79.7,156.1c0,0,150.6,154.6,181.3,184.3c29.6,28.7,190.3,192.4,190.3,192.4l-18.3,16.7L58.7,170.1"/>
						<path class="st0" d="M54.6,175.4c0,0,152.1,154.4,182.9,184.2C267.1,388.3,426,552.5,426,552.5l-19.3,16.1L34.4,190"/>
					</g>
				</g>
			</g>
			<g>
				<defs>
					<circle id="SVGID_00000005982865404356749440000009962860988056558255_" cx="380.2" cy="237.6" r="237.6"/>
				</defs>
				<clipPath id="SVGID_00000085237003188126297170000011228989193750720906_">
					<use xlink:href="#SVGID_00000005982865404356749440000009962860988056558255_"  style="overflow:visible;"/>
				</clipPath>
				<g style="clip-path:url(#SVGID_00000085237003188126297170000011228989193750720906_);">
					
						<rect x="207.8" y="363.5" transform="matrix(0.7482 -0.6634 0.6634 0.7482 -213.0435 245.6063)" class="st0" width="18.7" height="79.9"/>
				</g>
			</g>
			<g>
				<defs>
					<circle id="SVGID_00000178883765755013006150000015372286763842180276_" cx="380.2" cy="237.6" r="237.6"/>
				</defs>
				<clipPath id="SVGID_00000111173260055166012400000014892836500658947201_">
					<use xlink:href="#SVGID_00000178883765755013006150000015372286763842180276_"  style="overflow:visible;"/>
				</clipPath>
				<g style="clip-path:url(#SVGID_00000111173260055166012400000014892836500658947201_);">
					
						<rect x="548.7" y="44.7" transform="matrix(0.7071 -0.7071 0.7071 0.7071 112.1904 415.1617)" class="st0" width="17" height="55"/>
				</g>
			</g>
		</g>
	</g>
	<g>
		<g>
			<path class="st0" d="M2911.1,90.2h-191.9c-15.9,0-28.9,12.9-28.9,28.9c0,15.9,12.9,28.9,28.9,28.9h67.1v207
				c0,15.9,12.9,28.9,28.9,28.9s28.9-12.9,28.9-28.9V148h67.1c15.9,0,28.9-12.9,28.9-28.9C2940,103.2,2927.1,90.2,2911.1,90.2z"/>
			<path class="st0" d="M2659.9,134.2c-14.9-30.5-43.9-57-75.6-57c-31.7,0-60.7,26.5-75.6,57c-26,53-50.6,121.7-75.2,210.1
				c-4.3,15.6,4.8,31.7,20.3,36c2.6,0.7,5.3,1.1,7.9,1.1c12.8,0,24.6-8.5,28.2-21.4c5.4-19.5,10.9-37.9,16.3-55.4h156.3
				c5.4,17.5,10.8,35.9,16.3,55.4c4.3,15.6,20.5,24.7,36,20.3c15.6-4.3,24.7-20.5,20.3-36C2710.4,255.9,2685.8,187.2,2659.9,134.2z
				 M2525.3,246.9c11.9-33.2,23.8-62.1,36-86.9c5.2-10.6,13.6-24.2,23-24.2c9.5,0,17.9,13.6,23.1,24.2c12.2,24.9,24.1,53.7,36,86.9
				L2525.3,246.9L2525.3,246.9z"/>
			<path class="st0" d="M1936.3,134.2c-14.9-30.5-43.9-57-75.6-57c-31.7,0-60.7,26.5-75.6,57c-26,53-50.6,121.7-75.2,210.1
				c-4.3,15.6,4.8,31.7,20.3,36c2.6,0.7,5.3,1.1,7.9,1.1c12.8,0,24.6-8.5,28.2-21.4c5.4-19.5,10.9-37.9,16.3-55.4h156.2
				c5.4,17.5,10.8,35.9,16.3,55.4c4.3,15.6,20.5,24.7,36,20.3c15.6-4.3,24.7-20.5,20.3-36C1986.8,255.9,1962.2,187.2,1936.3,134.2z
				 M1801.6,246.8c11.9-33.2,23.8-62.1,36-86.9c5.2-10.6,13.6-24.2,23-24.2c9.5,0,17.9,13.6,23.1,24.2c12.2,24.9,24.1,53.7,36,86.9
				L1801.6,246.8L1801.6,246.8z"/>
			<path class="st0" d="M1702.3,243.9c0-0.8,0-1.6-0.1-2.3c0-0.2,0-0.4-0.1-0.6c-0.1-0.8-0.2-1.5-0.3-2.3c0-0.2-0.1-0.4-0.1-0.6
				c-0.2-0.7-0.3-1.5-0.6-2.2c-0.1-0.2-0.1-0.4-0.2-0.6c-0.2-0.7-0.5-1.4-0.8-2.1c-0.1-0.2-0.2-0.4-0.2-0.6c-0.3-0.7-0.6-1.3-0.9-2
				c-0.1-0.2-0.2-0.4-0.3-0.6c-0.4-0.6-0.7-1.2-1.1-1.8c-0.1-0.2-0.2-0.4-0.4-0.5c-0.4-0.6-0.8-1.1-1.3-1.7
				c-0.1-0.2-0.3-0.3-0.4-0.5c-0.5-0.5-0.9-1.1-1.4-1.6c-0.2-0.2-0.3-0.3-0.5-0.5c-0.5-0.5-1-1-1.5-1.4c-0.2-0.1-0.4-0.3-0.5-0.4
				c-0.5-0.4-1.1-0.8-1.7-1.2c-0.2-0.1-0.4-0.3-0.6-0.4c-0.6-0.4-1.1-0.7-1.7-1.1c-0.2-0.1-0.5-0.2-0.7-0.4
				c-0.6-0.3-1.2-0.6-1.8-0.9c-0.3-0.1-0.6-0.2-0.8-0.3c-0.6-0.2-1.2-0.5-1.8-0.6c-0.3-0.1-0.6-0.2-1-0.3c-0.6-0.2-1.2-0.3-1.7-0.4
				c-0.4-0.1-0.7-0.1-1.1-0.2c-0.6-0.1-1.1-0.2-1.7-0.3c-0.4,0-0.8-0.1-1.2-0.1s-0.7-0.1-1.1-0.1c-0.2,0-0.4,0-0.6,0
				c-0.1,0-0.3,0-0.4,0h-109.2c-15.9,0-28.9,12.9-28.9,28.9c0,15.9,12.9,28.9,28.9,28.9h76.4c-13.2,53.6-55.9,62.5-85.6,62.5
				c-58.9,0-100.1-44.6-100.1-108.4c0-46.6,47.7-89,100.1-89c32.1,0,55.9,7.3,82.1,25.1c13.2,9,31.1,5.5,40.1-7.6
				c9-13.2,5.5-31.1-7.6-40.1c-35.7-24.3-71-35.1-114.5-35.1c-40.9,0-80,15.4-110.3,43.5c-30.2,27.9-47.5,65.6-47.5,103.2
				c0,48.4,16.1,90.3,46.6,121c28.9,29.1,68.4,45.1,111.2,45.1c40.2,0,75.5-11.6,102.2-33.5c22.2-18.2,42.8-52.8,45-114.6
				c0-0.3,0-0.5,0-0.8c0-0.1,0-0.2,0-0.2C1702.3,244.2,1702.3,244.1,1702.3,243.9z"/>
			<path class="st0" d="M1368.9,326.1h-135.5v-65.2h94.8c15.9,0,28.9-12.9,28.9-28.9c0-15.9-12.9-28.9-28.9-28.9h-94.8v-55.3h135.5
				c15.9,0,28.9-12.9,28.9-28.9c0-15.9-12.9-28.9-28.9-28.9h-164.4c-15.9,0-28.9,12.9-28.9,28.9v235.9c0,15.9,12.9,28.9,28.9,28.9
				h164.4c15.9,0,28.9-12.9,28.9-28.9C1397.7,339,1384.8,326.1,1368.9,326.1z"/>
			<path class="st0" d="M2430.2,288.1c-3.8-46.9-41.7-82.6-87.2-82.6c-1,0-1.9,0-2.9,0h-26.3c-0.2,0-0.4,0-0.5,0h-63.9h-1.2
				c-16,0.6-29.5-12.2-30.9-29.3c-0.9-13.3,5.6-26.6,14-28.5l1.6-0.4c37.6-10.7,117.8-7.9,145.9,2.3c15,5.4,31.5-2.4,36.9-17.4
				s-2.4-31.5-17.4-36.9c-41.4-14.9-133.8-16.7-180.6-3.6c-36.1,8.6-61.1,46.6-58,88.8v0.3c3.8,46.9,41.7,82.6,87.2,82.6
				c1,0,1.9,0,2.9,0h26.3c0.2,0,0.4,0,0.5,0h63.9h1.2c16-0.6,29.5,12.2,30.9,29.3c0.9,13.3-5.6,26.6-14,28.5l-1.6,0.4
				c-37.6,10.7-117.8,7.9-145.9-2.3c-15-5.4-31.5,2.4-36.9,17.4c-5.4,15,2.4,31.5,17.4,36.9c22.7,8.2,60.8,12.4,98.3,12.4
				c30.8,0,61.2-2.9,82.3-8.8c36.1-8.6,61.1-46.6,58-88.8V288.1z"/>
			<path class="st0" d="M1150.8,288.1c-3.8-46.9-41.7-82.6-87.2-82.6c-1,0-1.9,0-2.9,0h-26.3c-0.2,0-0.4,0-0.5,0H970h-1.2
				c-16,0.6-29.5-12.2-30.9-29.3c-0.9-13.3,5.6-26.6,14-28.5l1.6-0.4c37.6-10.7,117.8-7.9,145.9,2.3c15,5.4,31.5-2.4,36.9-17.4
				c5.4-15-2.4-31.5-17.4-36.9c-41.4-14.9-133.8-16.7-180.6-3.6c-36.1,8.6-61.1,46.6-58,88.8v0.3c3.8,46.9,41.7,82.6,87.2,82.6
				c1,0,1.9,0,2.9,0h26.3c0.2,0,0.4,0,0.5,0h63.9h1.2c16-0.6,29.5,12.2,30.9,29.3c0.9,13.3-5.6,26.6-14,28.5l-1.6,0.4
				c-37.6,10.7-117.8,7.9-145.9-2.3c-15-5.4-31.5,2.4-36.9,17.4c-5.4,15,2.4,31.5,17.4,36.9c22.7,8.2,60.8,12.4,98.3,12.4
				c30.8,0,61.2-2.9,82.3-8.8c36.1-8.6,61.1-46.6,58-88.8L1150.8,288.1z"/>
			<path class="st0" d="M3209.9,77.8c-15.7,0-28.4,12.7-28.4,28.4v175.4c0,27.1-38.6,50.9-82.7,50.9c-44,0-82.7-23.8-82.7-50.9
				V106.2c0-15.7-12.7-28.4-28.4-28.4s-28.4,12.7-28.4,28.4v175.4c0,30.1,16.2,59,44.4,79.1c25.7,18.4,59.5,28.5,95,28.5
				c35.5,0,69.2-10.1,95-28.5c28.2-20.1,44.4-49,44.4-79.1V106.2C3238.3,90.5,3225.6,77.8,3209.9,77.8z"/>
			<path class="st0" d="M3467.6,271.3c-1.9-1.8-0.8-5.1,1.9-5.3c52.7-3.3,68.4-42.8,71.1-76.4c0-0.1,0-0.2,0-0.3
				c1.7-23.8-7.6-49.1-24.8-67.6c-13.4-14.4-37.9-31.5-78.9-31.5c-30.4,0-64.6,0.5-93.7,1.4c-47.8,1.5-51.2,2.7-55.7,4.4
				c-11.4,4.1-19,14.9-19,27v230.4c0,16.4,13.7,29.6,30.2,28.8c15.5-0.7,27.5-14.1,27.5-29.6V150c25.3-1,67.2-2.1,110.7-2.1
				c16.2,0,28.5,4.4,36.6,13.1c8.2,8.8,9.8,19.2,9.5,24.1c-0.7,8.9-3.1,35.2-50.3,35.2H3408c-12.7,0-24.5,7.2-29.6,18.8
				c-5.4,12.3-2.5,26.5,7.3,35.6l108.6,101.8c5.6,5.2,12.7,7.8,19.7,7.8c7.7,0,15.4-3.1,21.1-9.1c10.9-11.6,10.3-29.9-1.3-40.8
				L3467.6,271.3z"/>
			<path class="st0" d="M3810.6,90.7c-15.7,0-28.4,12.7-28.4,28.4v161.7l-162.5-180.7c-7.9-8.8-20.3-11.8-31.3-7.5
				c-11,4.2-18.2,14.8-18.2,26.5V355c0,15.7,12.7,28.4,28.4,28.4s28.4-12.7,28.4-28.4V193.3L3789.5,374c5.5,6.1,13.2,9.4,21.1,9.4
				c3.4,0,6.9-0.6,10.2-1.9c11-4.2,18.2-14.8,18.2-26.5V119.1C3839,103.4,3826.3,90.7,3810.6,90.7z"/>
		</g>
	</g>
</g>
</svg>
