<?xml version="1.0" encoding="utf-8"?>
<!-- Generator: Adobe Illustrator 26.0.1, SVG Export Plug-In . SVG Version: 6.00 Build 0)  -->
<svg version="1.1" id="Layer_1" xmlns="http://www.w3.org/2000/svg" xmlns:xlink="http://www.w3.org/1999/xlink" x="0px" y="0px"
	 viewBox="0 0 3839 357.9" style="enable-background:new 0 0 3839 357.9;" xml:space="preserve">
<style type="text/css">
	.st0{fill:#0898FF;}
	.st1{fill:#F72326;}
	.st2{fill:#FFFFFF;}
</style>
<g>
	<g>
		<g>
			<g>
				<path class="st2" d="M966,13.6h-58.8c3.4-4.4,6.5-9,9.5-13.6h-25.3c-16.5,21.2-39.9,40.2-68.5,53.2l16,16.6
					c20.1-10.3,37.7-23.3,52.2-37.9h57.6c-9.5,13.1-21.5,25.3-35.9,35.8l-28.1-22.3l-11.4,14.4l23.4,18.5
					c-20.3,11.8-44,20.5-70.4,24.5l14.5,20.1c70.2-14.6,121.6-60.5,141.1-109.3c0,0-9.5,0-15.8,0L966,13.6L966,13.6z"/>
			</g>
			<g>
				<polygon class="st2" points="290.9,26.5 258,3.2 235,23.7 267.8,47 				"/>
			</g>
			<g>
				<path class="st2" d="M211.2,90.5v18.3c68.2-2.4,123.1-35.3,151.2-79.8l-15.5-10.9C322.4,57.5,272.8,88.3,211.2,90.5z"/>
			</g>
			<g>
				<path class="st2" d="M495.6,41.1l-6.9-16.9c-23.6,9.7-50.1,14.3-77.6,12.4L420.8,0h-19.2l-24.5,91.3
					c-2.4,8.9,4.3,17.5,13.5,17.5h94l4.9-18.3h-93.1l9.6-35.8C437.8,57.4,468.4,52.4,495.6,41.1z"/>
			</g>
			<g>
				<path class="st2" d="M528.9,10c-2.6-6.5-12.4-8.8-21.9-5c-9.4,3.8-14.8,12.2-12.2,18.8c2.6,6.5,12.4,8.8,21.9,5
					C526,24.9,531.6,16.5,528.9,10z M514.2,22.9c-2.2,0.9-4.6,1.4-6.7,1.4c-3.3,0-6-1.2-6.7-2.9c-0.7-1.7,0.5-3.7,1-4.5
					c1.6-2.4,4.4-4.6,7.7-5.9c2.2-0.9,4.6-1.4,6.7-1.4c3.3,0,6,1.1,6.7,2.9C524.1,15.1,520.6,20.2,514.2,22.9z"/>
			</g>
			<g>
				<polygon class="st2" points="180.3,13.7 87.4,13.7 82.5,31.9 175.5,31.9 161.5,84 66.5,84 61.6,102.3 156.6,102.3 154.4,110.2 
					173.6,110.2 199.4,13.7 186.4,13.7 				"/>
			</g>
			<g>
				<polygon class="st2" points="669.8,64.5 811.1,64.5 816.1,46.2 674.8,46.2 				"/>
			</g>
			<g>
				<path class="st2" d="M1171.8,92.1l23.8-88.3h-19.2L1145.7,118l0,0c58.5-3.9,107.3-30.1,137.9-64.4l-15.1-13.8
					C1245.9,64.2,1212.2,84,1171.8,92.1z"/>
			</g>
			<g>
				<path class="st2" d="M987.6,59.3h65.6c-13.9,24.5-38.8,40.6-63.4,40.8l12.8,17.6c30.4-5.2,58.2-27.6,71.8-58.5h49.9l4.9-18.2
					H992.5L987.6,59.3z"/>
			</g>
			<g>
				<polygon class="st2" points="1122.1,8 1020.8,8 1016,26.3 1117.2,26.3 				"/>
			</g>
			<g>
				<polygon class="st2" points="1583.2,8 1565.6,8 1560.9,25.4 1578.5,25.4 				"/>
			</g>
			<g>
				<polygon class="st2" points="1590,8 1585.4,25.4 1603.1,25.4 1607.8,8 				"/>
			</g>
			<g>
				
					<rect x="1435.3" y="7.5" transform="matrix(0.9665 -0.2566 0.2566 0.9665 44.1964 371.2147)" class="st2" width="18.5" height="17.4"/>
			</g>
			<g>
				<path class="st2" d="M1428.9,11.5l-17.9,4.7l3.1,11.7c-21.9,7.7-51.4,14.3-76.3,14.4L1347,8h-19.3l-22.4,83.3
					c-2.4,8.9,4.3,17.5,13.5,17.5h93.2l5.5-18.3h-92.8l8-29.7c32,0.9,72.2-9,98.2-19.6l-4.5-11l6.9-1.8L1428.9,11.5z"/>
			</g>
			<g>
				<polygon class="st2" points="1610.8,51.3 1605.8,69.7 1746.8,69.7 1751.7,51.3 				"/>
			</g>
			<g>
				<path class="st2" d="M1866.3,123.1l27-11c-4.3-22.4-12-43.7-22.9-63.6l-26.6,10.9c5.6,10,10.3,20.3,14.1,31.1h-66
					c23.2-22.7,44-50.2,60.7-82.5h-22.9c-18.1,33.1-41,60.8-66.2,82.5h-9.5l-5,18.3h1.1l0,0h21.1l0,0h92.1
					C1864.5,113.6,1865.5,118.3,1866.3,123.1z"/>
			</g>
			<g>
				<polygon class="st2" points="637.3,22.7 629.6,22.7 618.2,22.7 561.3,22.7 556.4,41 613.2,41 603.3,78.1 529.4,78.1 524.4,96.6 
					598.3,96.6 617.5,96.6 640.1,96.6 645.1,78.1 622.4,78.1 				"/>
			</g>
			<g>
				<path class="st2" d="M1542.2,31.7h-29.8c6.7-7.7,13.1-15.6,18.9-23.9h-23.1c-16.4,20.9-36.8,39.8-58.9,54.9l10.8,14.9
					c12.1-8.3,23.6-17.5,34.2-27.7h42.3c-13.5,32.7-46.2,54-76.5,49.4l13.9,19.2c36.3-2.9,70.1-30.4,82.8-68.7h34.5l4.9-18.2v-0.1
					H1561L1542.2,31.7L1542.2,31.7z"/>
			</g>
		</g>
		<g>
			<g>
				<path class="st2" d="M1099.5,235.6l-9.6,35.7h82.4l-13.6,50.8H898.1l36.8-137.5h323.2l9.6-35.7h-359
					c-14.7,0-29.9,11.9-33.8,26.7l-2.4,9.1l-39.3,146.6c-3.9,14.7,4.7,26.7,19.5,26.7h359l32.8-122.3H1099.5z"/>
			</g>
			<g>
				<path class="st2" d="M509.1,271.3h257.7l9.6-35.7H518.7l13.6-50.8h323.2L865,149H506.1c-14.7,0-29.9,11.9-33.8,26.7l-41.7,155.5
					c-3.9,14.7,4.7,26.7,19.5,26.7h359l9.6-35.7H495.5L509.1,271.3z"/>
			</g>
			<g>
				<path class="st2" d="M391.8,235.6H95.3l13.6-50.8h323.2l9.6-35.7H82.8c-14.7,0-29.9,11.9-33.8,26.7l-18.5,69
					c-3.9,14.7,4.7,26.7,19.5,26.7h296.5l-13.7,50.8H9.6L0,357.9h359c14.7,0,29.9-11.9,33.8-26.7l18.4-69.1
					C415.3,247.5,406.5,235.6,391.8,235.6z"/>
			</g>
			<g>
				<polygon class="st2" points="1409,148.9 1227.6,357.9 1298.1,357.9 1440,194.4 1499.5,278.4 1396.5,278.4 1366.2,314.1 
					1525,314.1 1556,357.9 1634.5,357.9 1486.2,148.9 				"/>
			</g>
			<g>
				<polygon class="st2" points="2340.9,148.9 2159.5,357.9 2229.8,357.9 2371.8,194.4 2431.4,278.4 2328.4,278.4 2298,314.1 
					2456.8,314.1 2487.9,357.9 2566.3,357.9 2418.1,148.9 				"/>
			</g>
			<g>
				<polygon class="st2" points="3038.4,148.9 2982.4,357.9 3044.9,357.9 3100.9,148.9 				"/>
			</g>
			<g>
				<path class="st2" d="M2986.5,241.9l17.8-66.3c3.9-14.7-4.7-26.7-19.5-26.7h-359l-56.1,209h62.5l46.4-173.3h260.7l-12.9,48.1
					h-223.6l158.8,125h98.5L2842,268.5h110.6C2967.5,268.6,2982.6,256.6,2986.5,241.9z"/>
			</g>
			<g>
				<polygon class="st2" points="3412.2,148.9 3310.7,148.9 3075.3,258.4 3246.2,357.9 3347.7,357.9 3176.7,258.4 				"/>
			</g>
			<g>
				<path class="st2" d="M3801.7,49h-70.4h-39.6h-70.4h-39.6h-70.4h-37.3l-2.8,10.4h23c7.9,0,12.4,6.8,10.2,15.3l-69,257.4
					c-2.3,8.5-10.5,15.3-18.3,15.3h-23l-2.8,10.4h37.3h70.4h39.6h70.4h39.6h70.4h37.3l2.8-10.4h-23c-7.9,0-12.4-6.8-10.2-15.3
					l69-257.4c2.3-8.5,10.5-15.3,18.3-15.3h23L3839,49H3801.7z M3614.4,74.8l-69,257.4c-2.3,8.5-10.5,15.3-18.3,15.3h-11
					c-7.9,0-12.4-6.8-10.2-15.3l69-257.4c2.3-8.5,10.5-15.3,18.3-15.3h11C3612.1,59.5,3616.6,66.3,3614.4,74.8z M3724.4,74.7
					l-69,257.4c-2.2,8.6-10.5,15.4-18.3,15.4h-11c-7.9,0-12.4-6.8-10.2-15.3l69-257.5c2.3-8.5,10.5-15.3,18.3-15.3h11
					C3722.1,59.4,3726.6,66.2,3724.4,74.7z"/>
			</g>
			<g>
				<polygon class="st2" points="2139.9,148.9 1955.5,302.8 1853.4,148.9 1791,148.9 1734.9,357.9 1797.4,357.9 1830.3,235.1 
					1911.9,357.9 1974.8,357.9 2115.5,240.7 2084,357.9 2146.5,357.9 2202.5,148.9 				"/>
			</g>
		</g>
	</g>
</g>
</svg>
