<?xml version="1.0" encoding="utf-8"?>
<!-- Generator: Adobe Illustrator 26.0.3, SVG Export Plug-In . SVG Version: 6.00 Build 0)  -->
<svg version="1.1" id="Layer_1" xmlns="http://www.w3.org/2000/svg" xmlns:xlink="http://www.w3.org/1999/xlink" x="0px" y="0px"
	 viewBox="0 0 2237 2159" style="enable-background:new 0 0 2237 2159;" xml:space="preserve">
<style type="text/css">
	.st0{fill:#FFFFFF;}
	.st1{clip-path:url(#SVGID_00000170959417767832470060000016099856715594481336_);}
	.st2{clip-path:url(#SVGID_00000044143001041488015350000013168672813362580918_);}
	.st3{fill:none;}
	.st4{clip-path:url(#SVGID_00000021797678448362454620000001786823057763997080_);}
	.st5{clip-path:url(#SVGID_00000076586609905112347900000015831106789506182804_);}
	.st6{clip-path:url(#SVGID_00000146472544507600237710000007697907881153123470_);}
	.st7{clip-path:url(#SVGID_00000039850087168429522900000012370837430770874500_);}
	.st8{clip-path:url(#SVGID_00000132786690804455431950000004712855458469932170_);fill:#FFFFFF;}
	.st9{clip-path:url(#SVGID_00000085226662021449983590000006546399625550270377_);}
	.st10{clip-path:url(#SVGID_00000038392715495868392500000014599108439162541729_);}
	.st11{clip-path:url(#SVGID_00000141457858955498659650000001494835307488181423_);}
	.st12{clip-path:url(#SVGID_00000179627271081885736670000010959063132263453849_);fill:#FFFFFF;}
	.st13{clip-path:url(#SVGID_00000096053742543901022370000007554935595153232304_);fill:#FFFFFF;}
	.st14{clip-path:url(#SVGID_00000153686950578383721840000001013944337842488992_);}
	.st15{clip-path:url(#SVGID_00000089549021406545948020000008376157978174845618_);}
	.st16{display:none;}
	.st17{display:inline;}
	.st18{clip-path:url(#SVGID_00000155143774083797770160000004802627751425130137_);fill:#FFFFFF;}
	.st19{clip-path:url(#SVGID_00000023997954453612146240000010514830789418444680_);}
	.st20{clip-path:url(#SVGID_00000098203396163975937430000014203893599441441411_);}
	.st21{clip-path:url(#SVGID_00000013178191579307376920000007014961324982807690_);}
	.st22{clip-path:url(#SVGID_00000124128713576878906510000012297051240778640536_);}
	.st23{clip-path:url(#SVGID_00000039827558576929795590000014693949220313433764_);}
	.st24{clip-path:url(#SVGID_00000006666973008309689730000010114363840991517601_);}
	.st25{clip-path:url(#SVGID_00000085235282459167876880000012329063916038789560_);fill:#FFFFFF;}
	.st26{clip-path:url(#SVGID_00000111898762808197550950000014484334842477318846_);}
	.st27{clip-path:url(#SVGID_00000121242359243387369290000005543421298837500336_);}
	.st28{clip-path:url(#SVGID_00000012437400682218647810000015907057672560817305_);}
</style>
<g>
	<g>
		<g>
			<g>
				<defs>
					<circle id="SVGID_00000067236051808771059600000001494180488319344531_" cx="1152.7" cy="581.3" r="581.3"/>
				</defs>
				<clipPath id="SVGID_00000132058645837727750430000000909425761730269840_">
					<use xlink:href="#SVGID_00000067236051808771059600000001494180488319344531_"  style="overflow:visible;"/>
				</clipPath>
				<g style="clip-path:url(#SVGID_00000132058645837727750430000000909425761730269840_);">
					<polygon class="st0" points="1005.7,1161.3 536.5,688 624,870.1 911.8,1150 					"/>
				</g>
			</g>
		</g>
		<g>
			<g>
				<defs>
					<path id="SVGID_00000028309175587441749620000016293272199366225075_" d="M871.2,802c78.1-17.6,156.2-34.6,233.7-54.8
						c78.1-20.5,154.3-45.3,230.2-73.1c75.3-27.7,150.2-57,224.5-86.9c35.3-14.2,70.9-27.1,106.7-39.4c21.7-7.6,43.5-15.4,64.9-24.2
						c-8.8-90.1-38.4-173.8-83.4-247.2c-66.8,23.9-136,40.6-204.1,60.5c-75.9,22.4-151.5,45-226.7,69.9
						c-75.3,24.9-149.9,50.7-225.5,74.3c-76.2,23.6-152.7,46.3-228.6,71.2C699.6,573.1,636.6,597,572,613.4
						c4.7,86.3,28.3,167.8,66.4,240C717.5,842.3,793.7,819.4,871.2,802z"/>
				</defs>
				<clipPath id="SVGID_00000065755200121072893890000006564880867845351578_">
					<use xlink:href="#SVGID_00000028309175587441749620000016293272199366225075_"  style="overflow:visible;"/>
				</clipPath>
				<path style="clip-path:url(#SVGID_00000065755200121072893890000006564880867845351578_);fill:#FFFFFF;" d="M527,1105.3
					c-28,0-55.4-0.6-82.2-1.9c-40.3-1.9-72.4-35.6-70.9-76.2c1.6-40.9,36.2-72.7,77.1-70.5c229.2,11.7,539.7-33.7,830.7-120.9
					c284.4-85.7,508.6-197.4,599.9-299.5c10.7-12,26.5-31.5,33.4-51.3c4.7-13.5-3.8-28-17.9-30.5c-30.5-5-98.9-5.7-245.9,29.6
					C1495,521.5,1300.7,586,1113,648.7c-194.6,64.9-378.2,126-525.2,160c-148,33.7-305.1,53.5-351.1-57.6c-18.3-43.8-28-113,28-194
					C385.9,382.9,757.2,251,967.6,188c315.5-95.1,652.1-151.2,857.1-143.3c40.6,1.6,72.1,35.6,70.5,76.2
					c-1.6,40.6-35.6,72.1-76.2,70.5c-190.2-7.2-507.9,46.3-809.9,136.7c-317.4,95.1-556.7,214.8-624.4,312.1
					c-3.5,5-6.3,9.8-8.5,14.2c-6.3,12-1.3,31.8,20.2,33.7c32.1,2.8,93.2-4.7,204.4-34.6c133.5-35.6,294.4-87.9,465.1-144.9
					c487.5-162.5,793.2-255.1,928-173.5c37.8,22.7,61.4,57.6,68.3,101.1c10.7,65.8-13.5,132.3-72.1,197.4
					c-110.2,123.1-353.3,247.8-666.9,342C1046.6,1059.3,761.6,1105.3,527,1105.3z"/>
			</g>
		</g>
		<g>
			<g>
				<path class="st0" d="M1594.5,203.4c85.3-10.1,162.2-14.2,225.2-12c40.6,1.6,74.6-29.9,76.2-70.5s-29.9-74.6-70.5-76.2
					c-101.4-3.8-235.5,7.9-382.9,32.4C1499.7,110.2,1551.4,153,1594.5,203.4z"/>
			</g>
			<g>
				<path class="st0" d="M396.3,688c-21.4-1.9-26.5-21.7-20.2-33.7c2.2-4.4,5-9.1,8.5-14.2c31.2-44.7,98.2-94.2,192.7-143.6
					c10.1-68.6,32.1-133.2,63.6-191.8c-155.9,67.1-307,152.7-376.3,252.2c-56.1,80.9-46.3,150.2-28,194
					c46,111.2,203.1,91.3,350.8,57.3c8.8-2.2,17.9-4.1,27.1-6.3c-18.3-44.7-31.5-92.6-38.1-142C480.7,684.6,426.2,690.9,396.3,688z"
					/>
			</g>
			<g>
				<path class="st0" d="M2062.4,436.1c-6.9-43.5-30.5-78.4-68.3-101.1c-65.5-39.7-171.3-38.1-318.4-7.6
					c21.4,44.1,37.5,91.3,47.2,140.4c98.6-19.2,149.3-17.9,174.1-13.9c14.2,2.5,22.7,17,17.9,30.5c-6.9,19.8-22.7,39.4-33.4,51.3
					c-33.7,37.8-85.7,76.8-151.8,115.3c-8.2,69.6-29,135.1-59.5,194.9c144.2-67.1,255.1-140.1,319.9-212.6
					C2048.9,568.4,2073.2,501.9,2062.4,436.1z"/>
			</g>
			<g>
				<path class="st0" d="M702.7,949.7c-90.4,8.2-175.7,10.7-251.9,6.6c-40.9-2.2-75.6,29.6-77.1,70.5c-1.6,40.6,30.5,74.3,70.9,76.2
					c26.8,1.3,54.2,1.9,82.2,1.9c101.1,0,211.6-8.5,326.9-24.9C796.2,1045.8,745.2,1001.4,702.7,949.7z"/>
			</g>
			<g>
				<path class="st3" d="M1442.1,77.1C1356.8,28,1257.9,0,1152.7,0C931.7,0,739.6,123.4,641.3,304.8
					c116.8-50.1,236.5-89.7,326.5-116.8C1127.2,140.1,1291.6,102,1442.1,77.1z"/>
			</g>
			<g>
				<path class="st3" d="M577.4,496.9c-4.1,27.7-6,56.1-6,84.7c0,26.8,1.9,52.9,5.4,78.4c7.9-1.9,16.1-4.1,24.2-6.3
					c133.5-35.6,294.4-87.9,465.1-144.9c251-83.8,453.8-148.9,609.6-181.4c-21.7-45-49.4-86.6-81.6-124.1
					c-173.5,20.2-382.6,64.2-585.1,124.7C837.5,379.8,688.6,438.3,577.4,496.9z"/>
			</g>
			<g>
				<path class="st3" d="M853.9,1080.1c87.2,52.6,189.6,82.5,298.8,82.5c225.8,0,421.3-128.8,517.7-316.5
					c-100.8,46.9-217.9,90.7-347,129.4C1165.9,1023.1,1005.7,1058.7,853.9,1080.1z"/>
			</g>
			<g>
				<path class="st3" d="M1729.9,651.2c2.8-23,4.1-46.3,4.1-69.9c0-38.7-3.8-76.5-11-113.4c-21.4,4.1-45.3,9.4-71.8,15.7
					c-156.2,37.5-350.5,102-538.2,164.7c-183,61.1-356.1,118.7-498.5,153.7c22,53.8,52,103.6,88.2,147.7
					c181.7-16.4,384.8-56.1,579.1-114.3C1461.3,781.6,1616.6,717,1729.9,651.2z"/>
			</g>
		</g>
		<g>
			<g>
				<defs>
					<circle id="SVGID_00000012450898372406976190000000240673910739214230_" cx="1152.7" cy="581.3" r="581.3"/>
				</defs>
				<clipPath id="SVGID_00000100351478619102819570000015800791298682605975_">
					<use xlink:href="#SVGID_00000012450898372406976190000000240673910739214230_"  style="overflow:visible;"/>
				</clipPath>
				<g style="clip-path:url(#SVGID_00000100351478619102819570000015800791298682605975_);">
					<g>
						<path class="st0" d="M1216-233c0,0,318.4,381.7,393.6,454.4c72.4,70.2,522.7,452.8,522.7,452.8l-13.2,60.8l-979.3-951.6"/>
						<path class="st0" d="M1154.6-185.8c0,0,322.1,381.3,397.4,454.1c72.4,70.2,518.3,454.4,518.3,454.4l-15.7,59.2l-974-949.7"/>
						<path class="st0" d="M1093.2-138.6c0,0,326.2,381,401.5,454.1c72.4,70.2,513.9,455.7,513.9,455.7l-17.9,57.6L1021.1-119"/>
						<path class="st0" d="M1031.8-91c0,0,330,381,405.3,453.8c72.4,70.2,509.5,456.9,509.5,456.9l-20.5,56.1L961.6-70.5"/>
						<path class="st0" d="M970.4-43.8c0,0,333.8,380.7,409,453.5c72.4,70.2,505.4,458.5,505.4,458.5l-23,54.8L902.1-21.7"/>
						<path class="st0" d="M909,3.5c0,0,337.6,380.4,412.8,453.1c72.4,70.2,501,459.7,501,459.7l-25.5,53.2L842.5,27.1"/>
						<path class="st0" d="M847.3,50.7c0,0,341.3,380.1,416.6,452.8c72.4,70.2,496.6,461,496.6,461l-27.7,51.6L783,75.6"/>
						<path class="st0" d="M785.9,98.2c0,0,345.1,379.8,420.7,452.5c72.4,70.2,492.2,462.6,492.2,462.6l-30.2,50.1l-945-939"/>
						<path class="st0" d="M724.5,145.5c0,0,349.2,379.4,424.5,452.2c72.4,70.2,487.8,463.8,487.8,463.8L1604,1110L664,172.9"/>
						<path class="st0" d="M663,192.7c0,0,353,379.1,428.3,451.9c72.4,70.2,483.4,465.1,483.4,465.1l-35,46.9L604.5,221.1"/>
						<path class="st0" d="M601.6,240c0,0,356.8,379.1,432,451.9c72.4,70.2,479,466.7,479,466.7l-37.5,45.3L545,270.2"/>
						<path class="st0" d="M540.2,287.5c0,0,360.6,378.8,435.8,451.6c72.4,70.2,474.5,467.9,474.5,467.9l-40,44.1L485.1,319"/>
						<path class="st0" d="M478.8,334.7c0,0,364.3,378.5,439.6,451.2c72.4,70.2,470.1,469.5,470.1,469.5l-42.5,42.5L425.6,367.5"/>
						<path class="st0" d="M417.4,382c0,0,368.4,378.2,443.7,450.9c72.4,70.2,465.7,470.8,465.7,470.8l-44.7,40.9l-916-928.3"/>
						<path class="st0" d="M356,429.2c0,0,372.2,377.9,447.5,450.6c72.4,70.2,461.3,472,461.3,472l-47.2,39.4l-911-926.4"/>
					</g>
				</g>
			</g>
			<g>
				<defs>
					<circle id="SVGID_00000173870166190805156930000010415426855603292801_" cx="1152.7" cy="581.3" r="581.3"/>
				</defs>
				<clipPath id="SVGID_00000105401701179386587090000004288126670780260485_">
					<use xlink:href="#SVGID_00000173870166190805156930000010415426855603292801_"  style="overflow:visible;"/>
				</clipPath>
				<g style="clip-path:url(#SVGID_00000105401701179386587090000004288126670780260485_);">
					
						<rect x="730.7" y="889.5" transform="matrix(0.7482 -0.6634 0.6634 0.7482 -465.3017 748.5051)" class="st0" width="45.7" height="195.5"/>
				</g>
			</g>
			<g>
				<defs>
					<circle id="SVGID_00000000915050376196888680000008092218645029768634_" cx="1152.7" cy="581.3" r="581.3"/>
				</defs>
				<clipPath id="SVGID_00000075862460760043492980000002201302118841642904_">
					<use xlink:href="#SVGID_00000000915050376196888680000008092218645029768634_"  style="overflow:visible;"/>
				</clipPath>
				<g style="clip-path:url(#SVGID_00000075862460760043492980000002201302118841642904_);">
					
						<rect x="1565.1" y="109.3" transform="matrix(0.7071 -0.7071 0.7071 0.7071 339.6509 1173.0983)" class="st0" width="41.6" height="134.5"/>
				</g>
			</g>
		</g>
	</g>
	<g>
		<path class="st0" d="M1001.2,1760.7H745.6c-21.2,0-38.4,17.2-38.4,38.4s17.2,38.4,38.4,38.4h89.3v275.7
			c0,21.2,17.2,38.4,38.4,38.4s38.4-17.2,38.4-38.4v-275.7h89.3c21.2,0,38.4-17.2,38.4-38.4
			C1039.6,1777.9,1022.4,1760.7,1001.2,1760.7z"/>
		<path class="st0" d="M666.5,1819.3c-19.9-40.6-58.5-75.9-100.7-75.9c-42.2,0-80.8,35.3-100.7,75.9
			c-34.6,70.6-67.3,162.1-100.1,279.8c-5.8,20.7,6.3,42.2,27.1,48c3.5,1,7,1.4,10.5,1.4c17,0,32.7-11.3,37.5-28.5
			c7.2-26,14.5-50.5,21.7-73.8H670c7.2,23.3,14.4,47.9,21.7,73.8c5.8,20.7,27.3,32.8,48,27.1c20.7-5.8,32.8-27.3,27.1-48
			C733.9,1981.3,701.1,1889.8,666.5,1819.3z M487.2,1969.3c15.8-44.2,31.7-82.6,47.9-115.8c6.9-14.1,18.1-32.2,30.7-32.2
			s23.8,18.1,30.7,32.2c16.2,33.1,32.1,71.5,47.9,115.8H487.2z"/>
		<path class="st0" d="M360.7,2024.2c-5-62.5-55.6-109.9-116.2-109.9c-1.3,0-2.5,0-3.8,0.1h-35.1c-0.2,0-0.5,0-0.7,0l-85.1-0.1h-1.6
			c-21.3,0.8-39.3-16.3-41.2-39c-1.2-17.7,7.5-35.4,18.6-37.9l2.2-0.6c50-14.3,156.9-10.5,194.3,3c20,7.2,42-3.2,49.2-23.1
			c7.2-20-3.2-42-23.1-49.2c-55.1-19.8-178.2-22.3-240.5-4.9c-48.1,11.5-81.3,62.1-77.3,118.2v0.3c5,62.5,55.6,109.9,116.2,109.9
			c1.3,0,2.5,0,3.8-0.1h35.1c0.2,0,0.5,0,0.7,0l85.1,0.1h1.6c21.3-0.9,39.2,16.3,41.2,39c1.2,17.7-7.5,35.4-18.6,37.9l-2.2,0.6
			c-50,14.3-156.9,10.5-194.3-3c-20-7.2-42,3.2-49.2,23.1c-7.2,20,3.2,42,23.1,49.2c30.3,10.9,81,16.5,130.9,16.5
			c41,0,81.5-3.8,109.6-11.7c48.1-11.5,81.3-62.1,77.3-118.2L360.7,2024.2L360.7,2024.2z"/>
		<path class="st0" d="M1399.1,1744.1c-20.9,0-37.8,16.9-37.8,37.8v233.6c0,36.1-51.4,67.8-110.1,67.8
			c-58.6,0-110.1-31.7-110.1-67.8V1782c0-20.9-16.9-37.8-37.8-37.8c-20.9,0-37.8,16.9-37.8,37.8v233.6c0,40.1,21.5,78.6,59.1,105.4
			c34.3,24.5,79.2,38,126.5,38s92.2-13.5,126.5-38c37.6-26.8,59.1-65.2,59.1-105.4V1782C1436.9,1761.1,1419.9,1744.1,1399.1,1744.1z
			"/>
		<path class="st0" d="M1742.2,2001.8c-2.6-2.4-1-6.8,2.5-7c70.2-4.4,91.1-57.1,94.7-101.7c0-0.1,0-0.2,0-0.3
			c2.3-31.7-10.1-65.4-33.1-90.1c-17.8-19.1-50.5-42-105-42c-40.5,0-86,0.7-124.7,1.9c-63.7,2-68.2,3.6-74.1,5.8
			c-15.2,5.5-25.4,19.8-25.4,36v306.8c0,21.8,18.2,39.4,40.3,38.4c20.7-1,36.6-18.8,36.6-39.5v-269.8c33.6-1.4,89.5-2.7,147.4-2.7
			c21.6,0,38,5.9,48.8,17.5c10.9,11.7,13.1,25.6,12.6,32.1c-0.9,11.8-4.1,46.8-66.9,46.8h-33c-16.9,0-32.7,9.6-39.4,25
			c-7.2,16.4-3.3,35.2,9.7,47.4l144.6,135.6c7.4,7,16.9,10.4,26.3,10.4c10.2,0,20.5-4.1,28-12.1c14.5-15.5,13.7-39.8-1.8-54.3
			L1742.2,2001.8z"/>
		<path class="st0" d="M2199.1,1761.3c-20.9,0-37.9,16.9-37.9,37.9v215.4l-216.4-240.7c-10.5-11.7-27.1-15.6-41.7-10
			c-14.6,5.6-24.3,19.7-24.3,35.3v314.1c0,20.9,16.9,37.9,37.9,37.9c20.9,0,37.9-16.9,37.9-37.9v-215.4l216.4,240.7
			c7.3,8.1,17.6,12.5,28.2,12.5c4.5,0,9.1-0.8,13.5-2.5c14.6-5.6,24.3-19.7,24.3-35.3v-314.1
			C2236.9,1778.2,2220,1761.3,2199.1,1761.3z"/>
	</g>
	<g>
		<path class="st0" d="M1783.8,1350.4c-19.9-40.6-58.5-75.9-100.7-75.9c-42.2,0-80.8,35.3-100.7,75.9
			c-34.6,70.6-67.3,162.1-100.1,279.8c-5.8,20.7,6.3,42.2,27.1,48c3.5,1,7,1.4,10.5,1.4c17,0,32.7-11.3,37.5-28.5
			c7.2-26,14.5-50.5,21.7-73.8h208.2c7.2,23.3,14.4,47.9,21.7,73.8c5.8,20.7,27.3,32.8,48,27.1c20.7-5.8,32.8-27.3,27.1-48
			C1851.3,1512.5,1818.5,1420.9,1783.8,1350.4z M1604.5,1500.4c15.8-44.2,31.7-82.6,47.9-115.8c6.9-14.1,18.1-32.2,30.7-32.2
			c12.6,0,23.8,18.1,30.7,32.2c16.2,33.1,32.1,71.5,47.9,115.8H1604.5z"/>
		<path class="st0" d="M1472.2,1496.5c0-1-0.1-2.1-0.2-3.1c0-0.3-0.1-0.5-0.1-0.8c-0.1-1-0.3-2-0.5-3c0-0.3-0.1-0.5-0.2-0.7
			c-0.2-1-0.5-2-0.8-2.9c-0.1-0.3-0.2-0.5-0.2-0.7c-0.3-0.9-0.6-1.9-1-2.8c-0.1-0.3-0.2-0.5-0.3-0.8c-0.4-0.9-0.8-1.8-1.3-2.6
			c-0.1-0.3-0.3-0.5-0.4-0.7c-0.5-0.8-1-1.6-1.5-2.4c-0.2-0.2-0.3-0.5-0.5-0.7c-0.5-0.8-1.1-1.5-1.7-2.3c-0.2-0.2-0.4-0.4-0.6-0.7
			c-0.6-0.7-1.2-1.4-1.9-2.1c-0.2-0.2-0.4-0.4-0.6-0.6c-0.7-0.6-1.3-1.3-2.1-1.9c-0.2-0.2-0.5-0.4-0.7-0.6c-0.7-0.6-1.4-1.1-2.2-1.6
			c-0.3-0.2-0.5-0.4-0.8-0.5c-0.8-0.5-1.5-1-2.3-1.4c-0.3-0.2-0.6-0.3-0.9-0.5c-0.8-0.4-1.6-0.8-2.4-1.1c-0.4-0.2-0.7-0.3-1.1-0.5
			c-0.8-0.3-1.6-0.6-2.4-0.9c-0.4-0.1-0.9-0.3-1.3-0.4c-0.8-0.2-1.5-0.4-2.3-0.6c-0.5-0.1-1-0.2-1.5-0.3c-0.8-0.1-1.5-0.3-2.3-0.4
			c-0.5-0.1-1.1-0.1-1.6-0.1c-0.5,0-1-0.1-1.5-0.1c-0.3,0-0.5,0-0.8,0c-0.2,0-0.4,0-0.6,0h-145.4c-21.2,0-38.4,17.2-38.4,38.4
			c0,21.2,17.2,38.4,38.4,38.4H1390c-17.6,71.4-74.4,83.3-114,83.3c-78.5,0-133.3-59.4-133.3-144.4c0-62,63.5-118.5,133.3-118.5
			c42.7,0,74.4,9.7,109.3,33.4c17.6,11.9,41.4,7.4,53.4-10.2c11.9-17.5,7.4-41.4-10.2-53.4c-47.5-32.3-94.6-46.7-152.5-46.7
			c-54.4,0-106.6,20.6-146.9,57.9c-40.2,37.2-63.2,87.3-63.2,137.5c0,64.5,21.5,120.2,62.1,161.1c38.5,38.8,91.1,60.1,148,60.1
			c53.5,0,100.5-15.4,136.1-44.6c29.5-24.2,57-70.3,59.9-152.5c0-0.4,0-0.7,0-1.1c0-0.1,0-0.2,0-0.3
			C1472.3,1496.9,1472.2,1496.7,1472.2,1496.5z"/>
		<path class="st0" d="M1028.3,1606H847.7v-86.8H974c21.2,0,38.4-17.2,38.4-38.4c0-21.2-17.2-38.4-38.4-38.4H847.7v-73.6h180.5
			c21.2,0,38.4-17.2,38.4-38.4c0-21.2-17.2-38.4-38.4-38.4H809.3c-21.2,0-38.4,17.2-38.4,38.4v314.1c0,21.2,17.2,38.4,38.4,38.4
			h218.9c21.2,0,38.4-17.2,38.4-38.4C1066.7,1623.2,1049.5,1606,1028.3,1606z"/>
		<path class="st0" d="M737.8,1555.3c-5-62.5-55.6-109.9-116.2-109.9c-1.3,0-2.5,0-3.8,0.1h-35.1c-0.2,0-0.5,0-0.7,0l-85.1-0.1h-1.6
			c-21.3,0.8-39.3-16.3-41.2-39c-1.2-17.7,7.5-35.4,18.6-37.9l2.2-0.6c50-14.3,156.9-10.5,194.3,3c20,7.2,42-3.2,49.2-23.1
			c7.2-20-3.2-42-23.1-49.2c-55.1-19.8-178.2-22.3-240.5-4.9c-48.1,11.5-81.3,62.1-77.3,118.2v0.3c5,62.5,55.6,109.9,116.2,109.9
			c1.3,0,2.5,0,3.8-0.1h35.1c0.2,0,0.5,0,0.7,0l85.1,0.1h1.6c21.3-0.9,39.2,16.3,41.2,39c1.2,17.7-7.5,35.4-18.6,37.9l-2.2,0.6
			c-50,14.3-156.9,10.5-194.3-3c-20-7.2-42,3.2-49.2,23.1c-7.2,20,3.2,42,23.1,49.2c30.3,10.9,81,16.5,130.9,16.5
			c41,0,81.5-3.8,109.6-11.7c48.1-11.5,81.3-62.1,77.3-118.2V1555.3z"/>
	</g>
</g>
</svg>
