<?xml version="1.0" encoding="utf-8"?>
<!-- Generator: Adobe Illustrator 26.5.0, SVG Export Plug-In . SVG Version: 6.00 Build 0)  -->
<svg version="1.1" id="Layer_1" xmlns="http://www.w3.org/2000/svg" xmlns:xlink="http://www.w3.org/1999/xlink" x="0px" y="0px"
	 viewBox="0 0 3839 937.16" style="enable-background:new 0 0 3839 937.16;" xml:space="preserve">
<style type="text/css">
	.st0{fill:#FFFFFF;}
	.st1{fill:#FFFFFF;stroke:#000000;stroke-width:6.18;stroke-linecap:round;stroke-linejoin:round;stroke-miterlimit:10;}
	.st2{fill:none;stroke:#000000;stroke-width:6.18;stroke-linecap:round;stroke-linejoin:round;stroke-miterlimit:10;}
	.st3{stroke:#FFFFFF;stroke-width:6.18;stroke-linecap:round;stroke-linejoin:round;stroke-miterlimit:10;}
	.st4{fill:none;stroke:#FFFFFF;stroke-width:6.18;stroke-linecap:round;stroke-linejoin:round;stroke-miterlimit:10;}
</style>
<g>
	<g>
		<g>
			<g>
				<path d="M667.53,923.54v-217.3l-141.15,217.3H276.93l179.88-276.92h-2.41L274.52,923.54H25.08l282.31-434.61
					c10.38-15.99,27.97-25.53,47.03-25.53h255.43v9.82c9.46-6.21,20.76-9.82,32.9-9.82h241.88v460.15H667.53z"/>
				<path d="M871,477.01v432.92H681.14V660.28L518.98,909.93H302.01l179.88-276.92h-34.88L267.13,909.93H50.16L318.8,496.35
					c7.83-12.06,21.23-19.33,35.61-19.33h241.81v46.51c0-25.69,20.82-46.51,46.51-46.51h38.4h24.01H871 M898.24,449.78H871H705.15
					h-24.01h-38.4c-6.58,0-13.03,0.85-19.28,2.55v-2.55h-27.23H354.42c-11.58,0-23.08,2.92-33.25,8.44
					c-10.18,5.52-18.89,13.58-25.2,23.29L27.32,895.1L0,937.16h50.16h216.97h14.78h20.1h216.97h14.78l8.05-12.4L653.91,752.2v157.73
					v27.23h27.23H871h27.23v-27.23V477.01V449.78L898.24,449.78z"/>
			</g>
			<g>
				<path d="M1417.44,923.54V631.71l92.74-142.78c10.38-15.99,27.97-25.53,47.03-25.53l382.03,0v149.47h23.49v310.67H1417.44z
					 M1634.53,759.18l91.44-140.78h-50.45l-41,63.11V759.18z"/>
				<path d="M1925.62,477.01v127.77h-257.49l-47.22,72.7v0.49v95.34c0,0.37,0.3,0.66,0.66,0.66h137.68v-19.72h-105.29l82.99-127.77
					h212.16v283.44h-518.07V783.99V645.93v-10.18l90.55-139.4c7.83-12.06,21.23-19.33,35.61-19.33h24.35v0H1925.62 M1952.86,449.78
					h-27.23h-344.07l-24.35,0c-11.58,0-23.08,2.92-33.25,8.44c-10.18,5.52-18.89,13.58-25.2,23.29l-90.55,139.4l-4.39,6.77v8.07
					v10.18v138.06v125.94v27.23h27.23h518.07h27.23v-27.23V626.49v-27.23h-23.49V477.01V449.78L1952.86,449.78z M1682.92,632.01
					h17.98l-52.75,81.21v-27.67L1682.92,632.01L1682.92,632.01z"/>
			</g>
			<g>
				<rect x="2473.27" y="605.79" width="199.78" height="162.07"/>
				<path d="M2659.43,619.41v134.84h-172.54V619.41H2659.43 M2686.67,592.18h-27.23h-172.54h-27.23v27.23v134.84v27.23h27.23h172.54
					h27.23v-27.23V619.41V592.18L2686.67,592.18z"/>
			</g>
			<g>
				<path d="M2841.7,923.54c-19.06,0-36.65-9.54-47.03-25.53l-114.1-175.66c-12.05-18.56-12.05-42.54,0-61.1l111.93-172.33
					c10.38-15.99,27.97-25.53,47.03-25.53l394.19,0v155h-250.68l-46.9,72.2c-0.03,0.04-0.09,0.14-0.17,0.33
					c-0.07,0.16-0.12,0.32-0.15,0.49l-0.01,0.08l-0.01,0.13c0,0.02-0.01,0.2-0.01,0.2s0.01,0.15,0.01,0.15l0.01,0.06
					c0,0.02,0.01,0.08,0.03,0.18l0.01,0.07l0.03,0.14l0.05,0.14l0.08,0.19l0.11,0.22c0.02,0.03,0.03,0.05,0.03,0.05l15.2,23.4l0,0
					l28.54,43.93h253.83v163.19H2841.7z"/>
				<path d="M3220.12,477.01v127.77h-244.45l-50.92,78.4c-0.49,0.76-0.9,1.55-1.25,2.36c-0.51,1.19-0.87,2.43-1.08,3.69
					c0,0.02-0.01,0.03-0.01,0.05c-0.04,0.27-0.08,0.55-0.11,0.82c-0.01,0.07-0.02,0.14-0.02,0.21c-0.02,0.25-0.04,0.51-0.05,0.76
					c0,0.09-0.01,0.18-0.01,0.27c-0.01,0.24-0.01,0.49-0.01,0.73c0,0.1,0.01,0.2,0.01,0.3c0.01,0.24,0.02,0.48,0.04,0.72
					c0.01,0.08,0.02,0.17,0.03,0.25c0.04,0.42,0.1,0.84,0.17,1.26c0.03,0.15,0.05,0.31,0.08,0.46c0.03,0.17,0.08,0.33,0.12,0.5
					c0.04,0.18,0.09,0.36,0.14,0.54c0.04,0.16,0.09,0.31,0.14,0.47c0.06,0.19,0.12,0.38,0.19,0.56c0.05,0.15,0.11,0.29,0.16,0.44
					c0.08,0.2,0.16,0.39,0.24,0.59c0.06,0.13,0.11,0.26,0.18,0.4c0.1,0.22,0.21,0.43,0.32,0.64c0.06,0.11,0.11,0.22,0.17,0.32
					c0.18,0.32,0.36,0.63,0.56,0.94l0.23,0.35l0.72,1.11l7.44,11.45l0,0l39.38,60.62h247.61v135.96h-159.3h-160.81h-58.3
					c-14.38,0-27.78-7.28-35.61-19.33l-8.04-12.38l-106.06-163.28c-9.14-14.07-9.14-32.2,0-46.26l111.94-172.33
					c7.83-12.06,21.23-19.33,35.61-19.33h93.72v0H3220.12 M2728.07,689.14c0.07-0.7,0.17-1.39,0.3-2.08
					C2728.24,687.75,2728.14,688.44,2728.07,689.14 M3247.35,449.78h-27.23h-286.86l-93.72,0c-11.58,0-23.08,2.92-33.25,8.44
					s-18.89,13.58-25.2,23.29l-111.94,172.33c-14.98,23.06-14.98,52.87,0,75.93l106.06,163.28l8.04,12.38
					c6.31,9.71,15.02,17.76,25.2,23.29c10.18,5.52,21.67,8.44,33.25,8.44h58.3h160.81h159.3h27.23v-27.23V773.97v-27.23h-27.23
					h-232.82l-19.31-29.73l0,0l-12.01-18.5l-4.36-6.71l38.84-59.79h229.67h27.23v-27.23V477.01V449.78L3247.35,449.78z"/>
			</g>
			<g>
				<path d="M2328.59,923.54l-48.26-74.3h-107.22v74.3h-217.09V463.4h292.68c0.57,0,1.15,0.01,1.72,0.03c0.16,0,0.32,0.01,0.48,0.02
					l0.07,0c0.38,0.02,0.76,0.03,1.14,0.05c0.18,0.01,0.37,0.03,0.57,0.04l0.11,0.01c0.37,0.03,0.69,0.05,1.02,0.08
					c0.19,0.02,0.4,0.04,0.6,0.06l0.12,0.01c0.33,0.03,0.65,0.07,0.97,0.11c0.21,0.03,0.44,0.06,0.67,0.09l0.07,0.01
					c0.31,0.04,0.61,0.08,0.92,0.13c0.27,0.04,0.52,0.08,0.78,0.13c0.28,0.05,0.58,0.1,0.87,0.15c0.27,0.05,0.54,0.1,0.8,0.15
					c0.28,0.06,0.56,0.11,0.83,0.17c0.28,0.06,0.55,0.12,0.82,0.18c0.27,0.06,0.54,0.13,0.81,0.19l0.05,0.01
					c0.26,0.06,0.53,0.13,0.79,0.2c0.21,0.05,0.43,0.11,0.64,0.17l0.2,0.06c0.26,0.07,0.52,0.14,0.77,0.22
					c0.17,0.05,0.36,0.11,0.55,0.17l0.25,0.08c0.26,0.08,0.53,0.16,0.79,0.25c0.16,0.05,0.3,0.1,0.45,0.15l0.07,0.02
					c1.76,0.59,3.5,1.28,5.19,2.04c0.13,0.06,0.24,0.11,0.35,0.16c0.35,0.16,0.73,0.34,1.1,0.53l0.36,0.17
					c0.35,0.17,0.72,0.36,1.08,0.55l0.33,0.17c0.39,0.21,0.75,0.41,1.11,0.61l0.33,0.19c0.36,0.2,0.73,0.42,1.09,0.64l0.28,0.17
					c0.38,0.23,0.75,0.46,1.12,0.7l0.23,0.15c0.38,0.25,0.76,0.5,1.14,0.76l0.13,0.09c0.43,0.29,0.83,0.58,1.23,0.87
					c4.33,3.15,8.19,6.9,11.46,11.16c0.93,1.21,1.8,2.43,2.58,3.64l282.3,434.61H2328.59z M2175.05,687.17l-1.94-2.99v2.99H2175.05z
					"/>
				<path d="M2248.7,477.01c0.43,0,0.87,0.01,1.3,0.02c0.14,0,0.27,0.01,0.41,0.02c0.29,0.01,0.58,0.02,0.88,0.04
					c0.17,0.01,0.34,0.02,0.51,0.04c0.26,0.02,0.52,0.04,0.77,0.06c0.18,0.02,0.37,0.04,0.55,0.06c0.24,0.03,0.48,0.05,0.72,0.08
					c0.19,0.02,0.38,0.05,0.57,0.07c0.23,0.03,0.46,0.06,0.69,0.1c0.2,0.03,0.39,0.06,0.59,0.09c0.22,0.04,0.44,0.08,0.66,0.12
					c0.2,0.04,0.4,0.07,0.6,0.11c0.21,0.04,0.42,0.09,0.64,0.13c0.21,0.04,0.41,0.09,0.62,0.14c0.2,0.05,0.41,0.1,0.61,0.15
					c0.21,0.05,0.42,0.1,0.63,0.16c0.19,0.05,0.38,0.1,0.57,0.16c0.22,0.06,0.44,0.12,0.66,0.18c0.17,0.05,0.34,0.1,0.51,0.16
					c0.23,0.07,0.47,0.14,0.7,0.22c0.13,0.04,0.26,0.09,0.39,0.13c1.35,0.45,2.67,0.98,3.96,1.56c0.07,0.03,0.14,0.06,0.21,0.1
					c0.29,0.13,0.57,0.27,0.86,0.41c0.09,0.04,0.17,0.08,0.26,0.13c0.28,0.14,0.56,0.28,0.83,0.43c0.09,0.05,0.18,0.09,0.26,0.14
					c0.28,0.15,0.55,0.3,0.83,0.45c0.08,0.05,0.16,0.09,0.25,0.14c0.28,0.16,0.55,0.32,0.83,0.48c0.07,0.04,0.15,0.09,0.22,0.13
					c0.28,0.17,0.56,0.35,0.84,0.52c0.06,0.04,0.12,0.08,0.18,0.11c0.29,0.19,0.58,0.38,0.86,0.57c0.04,0.03,0.07,0.05,0.11,0.08
					c0.31,0.21,0.61,0.42,0.91,0.64c0,0,0,0,0,0c3.25,2.37,6.18,5.2,8.68,8.45c0,0,0,0,0,0c0.68,0.89,1.34,1.81,1.96,2.76
					l268.64,413.58h-216.97l-48.26-74.3h-128.23v74.3h-189.86V477.01h85.15h104.71H2248.7 M2159.49,700.79h40.64l-40.64-62.56
					V700.79 M2248.7,449.78h-89.2h-104.71h-85.15h-27.23v27.23v432.92v27.23h27.23h189.86h27.23v-27.23v-47.07h86.21l40.21,61.9
					l8.05,12.4h14.78h216.97h50.16l-27.32-42.06l-268.64-413.58c-0.98-1.5-2.05-3.02-3.2-4.52c-4.07-5.29-8.86-9.96-14.26-13.88
					c-0.47-0.34-0.95-0.68-1.46-1.04c-0.08-0.05-0.15-0.11-0.23-0.16c-0.44-0.3-0.91-0.61-1.41-0.94c-0.11-0.07-0.2-0.13-0.29-0.18
					c-0.44-0.28-0.9-0.57-1.37-0.86c-0.12-0.08-0.25-0.15-0.37-0.22c-0.46-0.27-0.92-0.54-1.36-0.8c-0.12-0.07-0.25-0.14-0.37-0.21
					l-0.04-0.02c-0.46-0.26-0.9-0.5-1.33-0.73l-0.02-0.01l-0.02-0.01c-0.12-0.06-0.24-0.12-0.36-0.19l-0.02-0.01l-0.01,0l-0.03-0.01
					c-0.5-0.26-0.93-0.48-1.36-0.69c-0.16-0.08-0.3-0.15-0.44-0.21c-0.4-0.19-0.87-0.42-1.41-0.67c-0.14-0.06-0.28-0.13-0.42-0.19
					c-2.07-0.94-4.22-1.78-6.38-2.51l-0.01,0c-0.21-0.07-0.43-0.15-0.64-0.22c-0.35-0.11-0.69-0.22-1.03-0.33l-0.11-0.03l-0.1-0.03
					c-0.25-0.08-0.5-0.15-0.76-0.23c-0.31-0.09-0.65-0.19-0.98-0.28l-0.09-0.02l-0.02-0.01l-0.02-0.01l-0.09-0.02
					c-0.26-0.07-0.53-0.14-0.79-0.21v0c-0.34-0.09-0.68-0.17-1.02-0.26l-0.04-0.01c-0.31-0.08-0.64-0.16-0.97-0.23l-0.02,0l-0.02,0
					c-0.33-0.08-0.66-0.15-0.99-0.22c-0.35-0.08-0.7-0.15-1.04-0.22c-0.33-0.07-0.66-0.13-0.99-0.19l-0.02,0l-0.02,0
					c-0.35-0.06-0.71-0.13-1.06-0.18l0,0c-0.32-0.05-0.64-0.11-0.96-0.15c-0.39-0.06-0.76-0.11-1.14-0.16l-0.09-0.01
					c-0.28-0.04-0.55-0.07-0.83-0.11l0,0c-0.4-0.05-0.8-0.09-1.21-0.14l-0.08-0.01c-0.27-0.03-0.55-0.06-0.82-0.08
					c-0.41-0.04-0.81-0.07-1.22-0.1l-0.04,0l-0.06,0c-0.27-0.02-0.53-0.04-0.8-0.06c-0.44-0.03-0.91-0.05-1.37-0.07l0,0
					c-0.24-0.01-0.48-0.02-0.72-0.03C2250.1,449.79,2249.39,449.78,2248.7,449.78L2248.7,449.78z"/>
			</g>
			<g>
				<path d="M889.11,923.54V613.23l80.75-124.31c10.39-15.99,27.97-25.53,47.03-25.53h399.15v149.47h19.04l-95.8,147.49h76.76
					v163.19H889.11z"/>
				<path d="M1402.43,477.01v127.77h0h-72.99h0h-182.55h-9.2l-2.64,4.06l-11.46,17.64H1410l-82.99,127.77h-227.5v19.72h302.92
					v135.96h-46.75H902.73V617.27l78.56-120.92c7.83-12.06,21.23-19.33,35.61-19.33h43.49h32.2H1402.43 M1429.66,449.78h-27.23
					h-309.84h-32.2h-43.49c-11.58,0-23.08,2.92-33.25,8.44c-10.18,5.52-18.89,13.57-25.19,23.28l-78.56,120.92l-4.4,6.77v8.07
					v292.66v27.23h27.23h452.95h46.75h27.23v-27.23V773.97v-27.23h-27.23h-38.07l68.48-105.42l27.32-42.06h-30.5l0-122.24V449.78
					L1429.66,449.78z"/>
			</g>
			<g>
				<path d="M3234.17,923.54V463.4l424.84,0c19.06,0,36.65,9.54,47.03,25.53l110.31,169.82c12.05,18.56,12.05,42.54,0,61.1
					l-115.73,178.17c-10.38,15.99-27.97,25.53-47.03,25.53H3234.17z M3541.14,760.36c0,0,45.38-69.86,45.39-69.88l0.12-0.24
					l0.07-0.16l0.05-0.15c0-0.02,0.04-0.15,0.04-0.15c0.01-0.02,0.02-0.13,0.02-0.13c0-0.01,0.01-0.06,0.01-0.11
					c0,0,0.01-0.12,0.01-0.15c0.01-0.34-0.03-0.83-0.35-1.32l-45.27-69.69h-95.86v141.96H3541.14z"/>
				<path d="M3247.79,477.01l411.22,0c14.38,0,27.78,7.28,35.61,19.33l110.31,169.82c9.14,14.07,9.14,32.2,0,46.26L3689.2,890.6
					c-7.83,12.06-21.23,19.33-35.61,19.33h-64.47h-128.9h-28.45h-15.19h-168.79V477.01 M3431.76,773.97h116.76l41.32-63.62
					l8.07-12.43c0.2-0.31,0.39-0.64,0.57-0.96c0.08-0.14,0.15-0.29,0.22-0.43c0.09-0.18,0.19-0.36,0.28-0.55
					c0.09-0.19,0.17-0.39,0.25-0.58c0.06-0.14,0.12-0.27,0.17-0.41c0.09-0.23,0.17-0.47,0.25-0.7c0.03-0.1,0.07-0.2,0.1-0.3
					c0.08-0.26,0.16-0.53,0.22-0.8c0.02-0.07,0.04-0.14,0.05-0.21c0.07-0.29,0.13-0.59,0.18-0.88c0.01-0.04,0.02-0.08,0.02-0.12
					c0.05-0.32,0.1-0.63,0.13-0.95c0-0.02,0-0.04,0.01-0.06c0.04-0.33,0.06-0.67,0.08-1.01c0.14-3.23-0.7-6.48-2.53-9.3
					l-49.29-75.89h-116.87V773.97 M3247.79,449.78h-27.23v27.23v432.92v27.23h27.23h168.79h15.19h28.45h128.9h64.47
					c11.58,0,23.08-2.92,33.25-8.44c10.18-5.52,18.89-13.58,25.2-23.29l115.73-178.17c14.98-23.06,14.98-52.87,0-75.93
					l-110.31-169.82c-6.31-9.71-15.02-17.76-25.2-23.29c-10.18-5.52-21.67-8.44-33.25-8.44L3247.79,449.78L3247.79,449.78z
					 M3459,632.01h74.85l37.21,57.28l-4.04,6.23l-33.27,51.22H3459V632.01L3459,632.01z"/>
			</g>
		</g>
		<g>
			<g>
				<rect x="1573.48" y="552.86" width="228.82" height="228.82"/>
			</g>
			<g>
				<rect x="1288.02" y="635.3" width="228.82" height="228.82"/>
			</g>
			<path d="M550.48,454.99c-1.64,7.25-2.4,14.62-2.75,22.02h48.49v46.51c0-25.69,20.82-46.51,46.51-46.51h47.05
				c-0.08-0.55-0.16-1.1-0.25-1.65c-1.11-7.01-2.46-14-3.66-21c-0.26-1.53-0.53-3.05-0.8-4.58h-42.33c-6.58,0-46.51,0-46.51,0
				h-44.55C551.3,451.52,550.88,453.26,550.48,454.99z"/>
		</g>
		<g>
			<line class="st1" x1="1431.05" y1="909.93" x2="1949.12" y2="909.93"/>
			<line class="st1" x1="1910.54" y1="871.35" x2="1469.63" y2="871.35"/>
			<line class="st1" x1="1910.54" y1="665.06" x2="1910.54" y2="871.35"/>
			<g>
				<path class="st1" d="M719.72,871.35V592.6l-7.83-0.02c-13.96-0.03-27.49,4.83-38.24,13.73l-0.27,0.22
					c-4.83,4-8.96,8.64-12.32,13.82C633,663.57,498.04,871.35,498.04,871.35H373.07l179.88-276.92H426.06L246.19,871.35H121.22
					l223.41-343.94c4.79-7.37,12.99-11.79,21.78-11.74l205.49,1.21v58.15c0,0.01,0.02,0.02,0.02,0.01
					c0.61-2.58,14.79-59.45,70.82-59.45h189.69v355.76H719.72z"/>
				<path class="st1" d="M1757.9,665.06l-32.88,50.61h72.81v96.87h-180.69c-19.22,0-34.81-15.58-34.81-34.81V666.05l57.23-88.1
					c4.76-7.32,12.9-11.74,21.63-11.74h225.85v-50.61H1569.1c-8.73,0-16.87,4.42-21.63,11.74l-77.84,119.84v224.18h440.91V665.06
					H1757.9z"/>
				<rect x="2525.47" y="657.99" class="st1" width="95.39" height="57.69"/>
				<path class="st1" d="M2831.97,859.61l-99.87-153.76c-5.55-8.54-5.55-19.55,0-28.1l97.71-150.42
					c4.76-7.32,12.9-11.74,21.63-11.74h330.11v50.61h-212.82c-8.73,0-16.87,4.42-21.63,11.74l-64.83,99.81
					c-5.55,8.54-5.55,19.55,0,28.1l61.68,94.95c4.76,7.32,12.9,11.74,21.63,11.74h215.97v58.8H2853.6
					C2844.86,871.35,2836.72,866.93,2831.97,859.61z"/>
				<path class="st1" d="M941.31,871.35V628.7l65.85-101.37c4.76-7.32,12.9-11.74,21.63-11.74h335.07v50.61h-233.1
					c-8.73,0-16.87,4.42-21.63,11.74l-56.59,87.12h286.4l-32.88,50.61h-245.14v96.87h302.92v58.8H941.31z"/>
				<path class="st1" d="M3286.36,871.35V515.59h360.76c8.73,0,16.87,4.42,21.63,11.74l96.08,147.92c5.55,8.54,5.55,19.55,0,28.1
					l-101.5,156.26c-4.76,7.32-12.9,11.74-21.63,11.74H3286.36z M3393.19,812.55h162.28c8.73,0,16.87-4.42,21.63-11.74l63.31-97.46
					c5.55-8.54,5.55-19.55,0-28.1l-63.2-97.3c-4.76-7.32-12.9-11.74-21.63-11.74h-162.39V812.55z"/>
				<path class="st1" d="M2236.81,515.59h-228.6v355.76h112.71V749.6l30.83,47.46h156.92l48.26,74.3h124.97l-223.46-344.02
					C2253.68,520.01,2245.54,515.59,2236.81,515.59z M2120.92,739.36V599.86c0-27.09,35.27-37.54,50.03-14.82l100.24,154.33H2120.92
					z"/>
			</g>
			<path class="st1" d="M571.9,575.14c1.47-14.05,24.33-51.61,24.33-51.61c0-25.69,20.82-46.51,46.51-46.51h38.4h24.01H871
				l-38.58,38.58H642.74C585.42,515.59,571.9,575.14,571.9,575.14z"/>
			<polygon class="st1" points="832.43,515.59 832.43,871.35 871,909.93 871,477.01 			"/>
			<path class="st1" d="M1887.05,566.2h-225.85c-8.73,0-16.87,4.42-21.63,11.74l-57.23,88.1l38.58,11.43l47.22-72.7h257.49
				L1887.05,566.2z"/>
			<path class="st1" d="M1581.56,477.01L1581.56,477.01l-24.35,0c-14.38,0-27.78,7.28-35.61,19.33l-90.55,139.4l38.58,11.43
				l77.84-119.84c4.76-7.32,12.9-11.74,21.63-11.74h317.95l38.58-38.58H1581.56z"/>
			<polygon class="st1" points="1431.05,635.74 1431.05,645.93 1431.05,783.99 1431.05,909.93 1469.63,871.35 1469.63,647.17 			"/>
			<polygon class="st1" points="1736.95,626.49 1757.9,665.06 1910.54,665.06 1949.12,626.49 			"/>
			<polygon class="st1" points="1910.54,871.35 1469.63,871.35 1431.05,909.93 1949.12,909.93 			"/>
			<polygon class="st1" points="1725.02,715.68 1653.96,754.25 1759.26,754.25 1797.83,715.68 			"/>
			<path class="st1" d="M1759.26,773.97h-138.34v-96.49l-38.58-11.43v111.69c0,19.22,15.58,34.81,34.81,34.81h180.69L1759.26,773.97
				z"/>
			<polygon class="st1" points="1759.26,754.25 1759.26,773.97 1797.83,812.55 1797.83,715.68 			"/>
			<polygon class="st1" points="1736.95,626.49 1653.96,754.25 1725.02,715.68 1757.9,665.06 			"/>
			<polygon class="st1" points="1910.54,665.06 1910.54,871.35 1949.12,909.93 1949.12,626.49 			"/>
			<polygon class="st1" points="1887.05,515.59 1887.05,566.2 1925.62,604.78 1925.62,477.01 			"/>
			<polygon class="st1" points="2486.89,619.41 2486.89,754.25 2525.47,715.68 2525.47,657.99 			"/>
			<polygon class="st1" points="2486.89,619.41 2525.47,657.99 2620.86,657.99 2659.43,619.41 			"/>
			<polygon class="st1" points="2620.86,715.68 2525.47,715.68 2486.89,754.25 2659.43,754.25 			"/>
			<polygon class="st1" points="2620.86,657.99 2620.86,715.68 2659.43,754.25 2659.43,619.41 			"/>
			<path class="st1" d="M2853.6,871.35c-8.73,0-16.87-4.42-21.63-11.74l-99.87-153.76c-5.55-8.54-5.55-19.55,0-28.1l97.71-150.42
				c4.76-7.32,12.9-11.74,21.63-11.74h330.11l38.58-38.58h-286.86v0h-93.72c-14.38,0-27.78,7.28-35.61,19.33l-111.94,172.33
				c-9.14,14.07-9.14,32.2,0,46.26l106.06,163.28l8.04,12.38c7.83,12.06,21.23,19.33,35.61,19.33h58.3h160.81h159.3l-38.58-38.58
				H2853.6z"/>
			<polygon class="st1" points="3181.54,812.55 3181.54,871.35 3220.12,909.93 3220.12,773.97 			"/>
			<polygon class="st1" points="3181.54,812.55 3181.54,871.35 3220.12,909.93 3220.12,773.97 			"/>
			<path class="st1" d="M2924.74,683.18l50.92-78.4h244.45l-38.58-38.58h-212.82c-8.73,0-16.87,4.42-21.63,11.74l-64.83,99.81
				c-5.55,8.54-5.55,19.55,0,28.1l61.68,94.95c4.76,7.32,12.9,11.74,21.63,11.74h215.97l38.58-38.58h-247.61l-47.77-73.54
				C2921.33,695.19,2921.33,688.42,2924.74,683.18z"/>
			<polygon class="st1" points="3181.54,515.59 3181.54,566.2 3220.12,604.78 3220.12,477.01 			"/>
			<polygon class="st1" points="1363.85,515.59 1363.85,566.2 1402.43,604.78 1402.43,477.01 			"/>
			<polygon class="st1" points="1338.94,665.06 1306.07,715.68 1327.01,754.25 1410,626.49 			"/>
			<polygon class="st1" points="1099.51,773.97 1060.93,812.55 1363.85,812.55 1402.43,773.97 			"/>
			<polygon class="st1" points="902.73,617.27 902.73,909.93 941.31,871.35 941.31,628.7 			"/>
			<path class="st1" d="M1092.59,477.01h-32.2h-43.5c-14.38,0-27.78,7.27-35.61,19.33l-78.56,120.92l38.58,11.43l65.85-101.37
				c4.76-7.32,12.9-11.74,21.63-11.74h335.07l38.58-38.58H1092.59z"/>
			<polyline class="st1" points="1355.68,909.93 1402.43,909.93 1363.85,871.35 941.31,871.35 902.73,909.93 1355.68,909.93 			"/>
			<path class="st1" d="M2284.31,496.35c-7.83-12.06-21.23-19.33-35.61-19.33h-89.2h-104.71h-85.15l38.58,38.58h228.6
				c8.73,0,16.87,4.42,21.63,11.74l223.46,344.02l71.06,38.58L2284.31,496.35z"/>
			<polygon class="st1" points="1363.85,812.55 1363.85,871.35 1402.43,909.93 1402.43,773.97 			"/>
			<polygon class="st1" points="1060.93,715.68 1060.93,812.55 1099.51,773.97 1099.51,754.25 			"/>
			<polygon class="st1" points="1306.07,715.68 1060.93,715.68 1099.51,754.25 1327.01,754.25 			"/>
			<polygon class="st1" points="1123.6,626.49 1052.54,665.06 1338.94,665.06 1410,626.49 			"/>
			<path class="st1" d="M1363.85,566.2h-233.1c-8.73,0-16.87,4.42-21.63,11.74l-56.59,87.12l71.06-38.58l14.1-21.71h264.73
				L1363.85,566.2z"/>
			<polyline class="st1" points="1109.13,577.95 1052.54,665.06 1123.6,626.49 1137.7,604.78 			"/>
			<polygon class="st1" points="2481.89,871.35 2356.93,871.35 2335.98,909.93 2552.95,909.93 			"/>
			<polygon class="st1" points="1969.63,477.01 1969.63,909.93 2008.21,871.35 2008.21,515.59 			"/>
			<polygon class="st1" points="2120.92,871.35 2008.21,871.35 1969.63,909.93 2159.49,909.93 			"/>
			<polygon class="st1" points="2120.92,749.6 2120.92,871.35 2159.49,909.93 2159.49,835.63 			"/>
			<polygon class="st1" points="2151.74,797.05 2159.49,835.63 2287.72,835.63 2308.66,797.05 			"/>
			<polygon class="st1" points="2308.66,797.05 2287.72,835.63 2335.98,909.93 2356.93,871.35 			"/>
			<polygon class="st1" points="2200.13,700.79 2159.49,700.79 2120.92,739.36 2271.19,739.36 			"/>
			<path class="st1" d="M2170.95,585.04c-14.76-22.72-50.03-12.27-50.03,14.82v139.51l38.58-38.58v-62.56l40.64,62.56l71.06,38.58
				L2170.95,585.04z"/>
			<polygon class="st1" points="3247.79,477.01 3247.79,909.93 3286.36,871.35 3286.36,515.59 			"/>
			<path class="st1" d="M3804.93,666.16l-110.31-169.82c-7.83-12.06-21.23-19.33-35.61-19.33l-411.22,0l38.58,38.58h360.76
				c8.73,0,16.87,4.42,21.63,11.74l96.08,147.92c5.55,8.54,5.55,19.55,0,28.1l-101.5,156.26c-4.76,7.32-12.9,11.74-21.63,11.74
				h-355.33l-38.58,38.58h168.79h15.19h28.45h128.9h64.47c14.38,0,27.78-7.28,35.61-19.33l115.73-178.17
				C3814.07,698.36,3814.07,680.23,3804.93,666.16z"/>
			<polygon class="st1" points="3393.19,566.2 3393.19,812.55 3431.76,773.97 3431.76,604.78 			"/>
			<polygon class="st1" points="2159.49,835.63 2120.92,749.6 2151.74,797.05 			"/>
			<path class="st1" d="M571.9,516.89v58.25c1.47-14.05,24.33-51.61,24.33-51.61v-46.51L571.9,516.89z"/>
			<polygon class="st1" points="426.06,594.43 246.19,871.35 267.13,909.93 447.01,633.01 			"/>
			<polygon class="st1" points="426.06,594.43 447.01,633.01 481.89,633.01 552.95,594.43 			"/>
			<path class="st1" d="M711.89,592.58c-13.96-0.03-27.49,4.83-38.24,13.73l-0.27,0.22c-4.83,4-8.96,8.64-12.32,13.82
				C633,663.57,498.04,871.35,498.04,871.35l20.94,38.58l162.16-249.65l38.58-67.68L711.89,592.58z"/>
			<polygon class="st1" points="832.43,871.35 719.72,871.35 681.14,909.93 871,909.93 			"/>
			<polygon class="st1" points="681.14,660.28 681.14,909.93 719.72,871.35 719.72,592.6 			"/>
			<polygon class="st1" points="498.04,871.35 373.07,871.35 302.01,909.93 518.98,909.93 			"/>
			<polygon class="st1" points="481.89,633.01 302.01,909.93 373.07,871.35 552.95,594.43 			"/>
			<polygon class="st1" points="246.19,871.35 121.22,871.35 50.16,909.93 267.13,909.93 			"/>
			<path class="st1" d="M354.42,477.01c-14.38,0-27.78,7.28-35.61,19.33L50.16,909.93l71.06-38.58l223.41-343.94
				c4.79-7.37,12.99-11.79,21.78-11.74l205.49,1.21l24.33-39.87H354.42z"/>
			<path class="st1" d="M3644.54,688.06c0,0,0-0.01,0-0.01c-0.02-0.42-0.05-0.84-0.09-1.27c0-0.02,0-0.05-0.01-0.07
				c-0.04-0.42-0.1-0.84-0.16-1.25c0-0.03-0.01-0.06-0.01-0.1c-0.13-0.84-0.3-1.67-0.51-2.49c-0.01-0.02-0.01-0.04-0.01-0.06l0,0
				c-0.45-1.75-1.09-3.46-1.92-5.1c-0.42-0.84-0.89-1.66-1.41-2.46l-63.2-97.3c-4.76-7.32-12.9-11.74-21.63-11.74v0h-162.39
				l38.58,38.58h116.87l49.29,75.89c1.83,2.82,2.67,6.08,2.53,9.3c-0.01,0.34-0.04,0.67-0.08,1.01c0,0.02,0,0.04-0.01,0.06
				c-0.03,0.32-0.08,0.64-0.13,0.96c-0.01,0.04-0.01,0.08-0.02,0.12c-0.05,0.3-0.11,0.59-0.18,0.88c-0.02,0.07-0.03,0.14-0.05,0.2
				c-0.07,0.27-0.14,0.53-0.22,0.8c-0.03,0.1-0.07,0.2-0.1,0.3c-0.08,0.24-0.16,0.47-0.25,0.7c-0.05,0.14-0.11,0.27-0.17,0.4
				c-0.08,0.2-0.16,0.39-0.25,0.59c-0.09,0.18-0.18,0.37-0.27,0.55c-0.07,0.14-0.14,0.29-0.22,0.43c-0.18,0.32-0.37,0.64-0.57,0.95
				c0,0,0,0.01-0.01,0.01l-5.47,8.42l-2.6,4.01l-41.32,63.62h-116.76l-38.58,38.58h162.28c4.78,0,9.38-1.33,13.35-3.73
				c0,0,0,0,0.01,0c0.46-0.28,0.92-0.58,1.36-0.89c0.01,0,0.01-0.01,0.02-0.01c0.44-0.31,0.87-0.63,1.29-0.96
				c0.01-0.01,0.02-0.02,0.03-0.03c0.42-0.33,0.82-0.67,1.21-1.03c0.02-0.01,0.03-0.03,0.05-0.04c0.39-0.35,0.77-0.72,1.14-1.1
				c0.02-0.02,0.03-0.03,0.05-0.05c0.37-0.38,0.72-0.77,1.07-1.18c0.02-0.02,0.03-0.04,0.05-0.05c0.35-0.41,0.68-0.83,1.01-1.26
				c0.01-0.01,0.02-0.03,0.03-0.04c0.33-0.44,0.65-0.9,0.96-1.37l50.34-77.5l12.96-19.96c0.22-0.35,0.44-0.7,0.64-1.05
				c0.04-0.08,0.09-0.15,0.13-0.23c0.2-0.35,0.39-0.69,0.57-1.05c0.03-0.06,0.06-0.11,0.08-0.17c0.16-0.33,0.32-0.65,0.47-0.98
				c0.03-0.06,0.05-0.12,0.08-0.18c0.16-0.36,0.31-0.73,0.45-1.09c0.03-0.07,0.06-0.15,0.08-0.22c0.29-0.76,0.53-1.53,0.74-2.3
				c0.02-0.07,0.04-0.14,0.06-0.21c0.1-0.39,0.2-0.78,0.28-1.17c0.01-0.04,0.01-0.08,0.02-0.11c0.08-0.38,0.15-0.76,0.21-1.14
				c0.01-0.05,0.02-0.09,0.02-0.14c0.06-0.4,0.12-0.8,0.16-1.2c0.01-0.05,0.01-0.11,0.02-0.16c0.08-0.82,0.13-1.65,0.13-2.47
				c0-0.05,0-0.1,0-0.15C3644.56,688.9,3644.56,688.48,3644.54,688.06z"/>
		</g>
	</g>
	<g>
		<g>
			<path class="st0" d="M2447.43,75.6C2433.51,31.52,2391.99,0,2344.07,0s-89.44,31.44-103.37,75.6l-36.56,108.32V6.24h-191.53
				c-34,0-65.52,13.92-89.44,36.56V6.24h-196.48c-36.56,0-69.28,15.12-93.29,40.24V6.24h-186.4c-79.36,0-144.88,65.52-144.88,144.88
				c0,37.84,15.12,73.04,39.13,98.24h-39.13v168.8h186.4c52.88,0,98.24-27.76,124.72-70.56c21.44,41.52,64.24,70.56,114.64,70.56
				h197.76V381.6c22.64,22.64,54.16,36.56,89.44,36.56h546.65L2447.43,75.6z"/>
			<g>
				<g>
					<path d="M1488.94,279.6h-157.53v49.21h157.53c30.24,0,55.44-25.2,55.44-55.44c0-30.24-25.2-55.44-55.44-55.44h-40.32
						c-36.56,0-66.8-30.24-66.8-66.8s30.24-66.8,66.8-66.8h156.25V35.28h-157.53c-64.24,0-115.92,51.6-115.92,115.92
						s51.6,115.84,115.84,115.84h40.24c3.84,0,6.24,2.56,6.24,6.24C1493.89,277.04,1491.33,279.6,1488.94,279.6z"/>
					<path d="M1447.25,146.17h157.53V95.68h-157.53c-30.24,0-55.44,25.2-55.44,55.44s25.2,55.44,55.44,55.44h40.24
						c36.56,0,66.8,30.24,66.8,66.8s-30.24,66.8-66.8,66.8h-156.08v49.21h157.53c64.24,0,115.92-51.6,115.92-115.92
						s-51.6-115.92-115.92-115.92h-40.32c-3.84,0-6.24-2.56-6.24-6.24C1442.3,148.73,1444.86,146.17,1447.25,146.17z"/>
				</g>
				<g>
					<path d="M2012.86,95.68c-21.44,0-37.84,16.4-37.84,37.84v157.53c0,21.44,16.4,37.84,37.84,37.84h102.09V217.93h-78.08v49.21
						h28.96v11.36h-28.96c-6.24,0-11.36-5.13-11.36-11.36V156.25c0-6.24,5.13-11.36,11.36-11.36h139.76V95.68H2012.86z"/>
					<path d="M2322.71,328.81h114.64l-78.08-231.85c-2.56-6.24-7.52-11.36-15.12-11.36c-6.24,0-12.64,5.13-15.12,10.08
						l-100.8,293.44h58.01l35.28-104.56v44.08h1.28L2322.71,328.81L2322.71,328.81z M2342.87,222.97l16.4,50.49h-34L2342.87,222.97z
						"/>
					<path d="M2419.67,86.88c-10.08-32.72-40.24-58.01-76.8-58.01c-36.56,0-66.8,23.92-75.6,56.72l-92.01,269.61V157.53h-138.65
						v49.21h90.72v133.52h-113.36c-27.76,0-49.21-22.64-49.21-49.21V133.52c0-27.76,22.64-49.21,49.21-49.21h162.48V35.28h-163.76
						c-54.16,0-98.24,44.08-98.24,98.24v157.53c0,54.16,44.08,98.24,98.24,98.24h202.89l102.09-295.92
						c3.84-11.36,13.92-18.88,26.48-18.88s22.64,7.52,26.48,18.88l83.21,246.97h-130.96v49.21h199.05l0,0L2419.67,86.88z"/>
				</g>
				<g>
					<path d="M1726.85,340.09c-27.76,0-49.21-22.64-49.21-49.21V133.52c0-27.76,22.64-49.21,49.21-49.21h168.8V35.28h-168.8
						c-54.16,0-98.24,44.08-98.24,98.24v157.53c0,54.16,44.08,98.24,98.24,98.24h168.8v-49.04L1726.85,340.09L1726.85,340.09z"/>
					<path d="M1738.22,268.33h122.16v-49.21h-171.37v73.04c0,21.44,16.4,37.84,37.84,37.84h168.8V280.8h-146.17
						C1743.26,279.6,1738.22,274.48,1738.22,268.33z"/>
					<path d="M1860.38,157.53h-122.16c0-6.24,5.13-11.36,11.36-11.36h144.88V95.68h-167.52c-21.44,0-37.84,16.4-37.84,37.84v73.13
						h171.37C1860.38,206.65,1860.38,157.53,1860.38,157.53z"/>
				</g>
			</g>
		</g>
	</g>
</g>
</svg>
