<?xml version="1.0" encoding="utf-8"?>
<!-- Generator: Adobe Illustrator 26.5.0, SVG Export Plug-In . SVG Version: 6.00 Build 0)  -->
<svg version="1.1" id="Layer_1" xmlns="http://www.w3.org/2000/svg" xmlns:xlink="http://www.w3.org/1999/xlink" x="0px" y="0px"
	 viewBox="0 0 3839 928.63" style="enable-background:new 0 0 3839 928.63;" xml:space="preserve">
<style type="text/css">
	.st0{fill:#FFFFFF;}
	.st1{fill:#FFFFFF;stroke:#000000;stroke-width:6.18;stroke-linecap:round;stroke-linejoin:round;stroke-miterlimit:10;}
	.st2{fill:none;stroke:#000000;stroke-width:6.18;stroke-linecap:round;stroke-linejoin:round;stroke-miterlimit:10;}
	.st3{stroke:#FFFFFF;stroke-width:6.18;stroke-linecap:round;stroke-linejoin:round;stroke-miterlimit:10;}
	.st4{fill:none;stroke:#FFFFFF;stroke-width:6.18;stroke-linecap:round;stroke-linejoin:round;stroke-miterlimit:10;}
</style>
<g>
	<g>
		<g>
			<path class="st0" d="M2445.8,76.86C2431.65,32.05,2389.44,0,2340.72,0c-48.72,0-90.93,31.96-105.08,76.86l-37.17,110.12V6.34
				h-194.71c-34.56,0-66.61,14.16-90.93,37.17V6.34h-199.75c-37.17,0-70.43,15.37-94.84,40.9V6.34h-189.5
				c-80.68,0-147.29,66.61-147.29,147.29c0,38.47,15.37,74.25,39.78,99.87h-39.78v171.61h189.5c53.76,0,99.87-28.22,126.79-71.73
				c21.8,42.21,65.31,71.73,116.55,71.73h201.05v-37.17c23.01,23.01,55.06,37.17,90.93,37.17H2562L2445.8,76.86z"/>
			<g>
				<g>
					<path d="M1471.39,284.25h-160.14v50.02h160.14c30.74,0,56.36-25.62,56.36-56.36s-25.62-56.36-56.36-56.36h-40.99
						c-37.17,0-67.91-30.74-67.91-67.91s30.74-67.91,67.91-67.91h158.84V35.87H1429.1c-65.31,0-117.85,52.45-117.85,117.85
						s52.45,117.76,117.76,117.76h40.9c3.91,0,6.34,2.61,6.34,6.34C1476.43,281.64,1473.82,284.25,1471.39,284.25z"/>
					<path d="M1429.01,148.59h160.14V97.27h-160.14c-30.74,0-56.36,25.62-56.36,56.36s25.62,56.36,56.36,56.36h40.9
						c37.17,0,67.91,30.74,67.91,67.91s-30.74,67.91-67.91,67.91h-158.67v50.02h160.14c65.31,0,117.85-52.45,117.85-117.85
						s-52.45-117.85-117.85-117.85h-40.99c-3.91,0-6.34-2.61-6.34-6.34C1423.97,151.2,1426.58,148.59,1429.01,148.59z"/>
				</g>
				<g>
					<path d="M2004.02,97.27c-21.8,0-38.47,16.67-38.47,38.47v160.14c0,21.8,16.67,38.47,38.47,38.47h103.78V221.54h-79.38v50.02
						h29.44v11.55h-29.44c-6.34,0-11.55-5.21-11.55-11.55V158.84c0-6.34,5.21-11.55,11.55-11.55h142.08V97.27H2004.02z"/>
					<path d="M2319.01,334.27h116.55l-79.38-235.7c-2.61-6.34-7.64-11.55-15.37-11.55c-6.34,0-12.85,5.21-15.37,10.25
						l-102.48,298.32h58.97l35.87-106.3v44.81h1.3L2319.01,334.27L2319.01,334.27z M2339.5,226.67l16.67,51.33h-34.56L2339.5,226.67
						z"/>
					<path d="M2417.58,88.32c-10.25-33.26-40.9-58.97-78.07-58.97s-67.91,24.32-76.86,57.67l-93.53,274.09V160.14h-140.95v50.02
						h92.23v135.74h-115.24c-28.22,0-50.02-23.01-50.02-50.02V135.74c0-28.22,23.01-50.02,50.02-50.02h165.18V35.87h-166.48
						c-55.06,0-99.87,44.81-99.87,99.87v160.14c0,55.06,44.81,99.87,99.87,99.87h206.26l103.78-300.83
						c3.91-11.55,14.16-19.19,26.92-19.19s23.01,7.64,26.92,19.19l84.59,251.07h-133.13v50.02h202.35l0,0L2417.58,88.32z"/>
				</g>
				<g>
					<path d="M1713.26,345.73c-28.22,0-50.02-23.01-50.02-50.02V135.74c0-28.22,23.01-50.02,50.02-50.02h171.61V35.87h-171.61
						c-55.06,0-99.87,44.81-99.87,99.87v160.14c0,55.06,44.81,99.87,99.87,99.87h171.61v-49.85L1713.26,345.73L1713.26,345.73z"/>
					<path d="M1724.81,272.78H1849v-50.02h-174.21v74.25c0,21.8,16.67,38.47,38.47,38.47h171.61v-50.02h-148.59
						C1729.93,284.25,1724.81,279.04,1724.81,272.78z"/>
					<path d="M1849,160.14h-124.19c0-6.34,5.21-11.55,11.55-11.55h147.29V97.27h-170.3c-21.8,0-38.47,16.67-38.47,38.47v74.34
						h174.21C1849,210.08,1849,160.14,1849,160.14z"/>
				</g>
			</g>
		</g>
	</g>
	<g>
		<g>
			<path class="st0" d="M1938,928.63h-527.87c-1.71,0-3.09-1.38-3.09-3.09s1.38-3.09,3.09-3.09H1938c1.71,0,3.09,1.38,3.09,3.09
				S1939.7,928.63,1938,928.63z"/>
		</g>
		<g>
			<path class="st0" d="M1898.69,889.32h-449.26c-1.71,0-3.09-1.38-3.09-3.09s1.38-3.09,3.09-3.09h449.26
				c1.71,0,3.09,1.38,3.09,3.09S1900.39,889.32,1898.69,889.32z"/>
		</g>
		<g>
			<path class="st0" d="M1898.69,889.32c-1.71,0-3.09-1.38-3.09-3.09V676.04c0-1.71,1.38-3.09,3.09-3.09c1.71,0,3.09,1.38,3.09,3.09
				v210.19C1901.78,887.94,1900.39,889.32,1898.69,889.32z"/>
		</g>
		<g>
			<g>
				<path d="M685.32,886.23V602.21l-7.98-0.02c-14.22-0.03-28.01,4.92-38.96,13.99l-0.28,0.23c-4.92,4.07-9.13,8.8-12.56,14.08
					c-28.59,44.03-166.11,255.74-166.11,255.74H332.12L515.4,604.07H386.11L202.83,886.23H75.5l227.63-350.45
					c4.88-7.51,13.24-12.02,22.19-11.96l209.38,1.24v59.25c0,0.01,0.02,0.02,0.02,0.01c0.63-2.63,15.07-60.58,72.16-60.58h193.28
					v362.49H685.32z"/>
				<path class="st0" d="M800.17,889.32H685.32c-1.71,0-3.09-1.38-3.09-3.09V605.29l-4.89-0.01c-13.46-0.05-26.61,4.68-36.98,13.28
					l-0.28,0.23c-4.66,3.86-8.67,8.36-11.93,13.39c-28.59,44.03-166.11,255.74-166.11,255.74c-0.57,0.88-1.55,1.41-2.59,1.41H332.12
					c-1.13,0-2.18-0.62-2.72-1.62c-0.54-1-0.49-2.21,0.12-3.16l180.18-277.39H387.79L205.42,887.92c-0.57,0.88-1.55,1.41-2.59,1.41
					H75.5c-1.13,0-2.18-0.62-2.72-1.62c-0.54-1-0.49-2.21,0.12-3.16L300.54,534.1c5.44-8.38,14.64-13.37,24.63-13.37
					c0.06,0,0.12,0,0.18,0l209.38,1.24c1.7,0.01,3.07,1.39,3.07,3.09v42.05c8.82-18.68,28.74-46.46,69.09-46.46h193.28
					c1.71,0,3.09,1.38,3.09,3.09v362.49C803.26,887.94,801.87,889.32,800.17,889.32z M688.41,883.14h108.66V526.83H606.89
					c-54.67,0-68.59,55.83-69.16,58.21c-0.36,1.53-1.82,2.55-3.38,2.36c-1.55-0.18-2.74-1.52-2.74-3.08v-56.18l-206.31-1.22
					c-0.05,0-0.09,0-0.14,0c-7.88,0-15.14,3.94-19.44,10.56L81.19,883.14h119.96l182.37-280.76c0.57-0.88,1.55-1.41,2.59-1.41H515.4
					c1.13,0,2.18,0.62,2.72,1.62c0.54,1,0.49,2.21-0.12,3.16L337.81,883.14h119.96c11.97-18.42,137.97-212.41,165.19-254.33
					c3.6-5.55,8.04-10.52,13.18-14.78l0.28-0.23c11.44-9.48,25.93-14.7,40.79-14.7c0.05,0,0.1,0,0.15,0l7.98,0.02
					c1.7,0,3.08,1.39,3.08,3.09V883.14z"/>
			</g>
			<g>
				<path d="M1743.16,676.04l-33.5,51.57h74.19v98.71h-184.11c-19.59,0-35.47-15.88-35.47-35.47V677.04l58.31-89.77
					c4.85-7.46,13.14-11.96,22.04-11.96h230.13v-51.57h-323.96c-8.9,0-17.19,4.5-22.04,11.96l-79.32,122.11v228.42h449.26V676.04
					H1743.16z"/>
				<path class="st0" d="M1898.69,889.32h-449.26c-1.71,0-3.09-1.38-3.09-3.09V657.81c0-0.6,0.17-1.18,0.5-1.68l79.32-122.11
					c5.44-8.37,14.65-13.37,24.63-13.37h323.96c1.71,0,3.09,1.38,3.09,3.09v51.57c0,1.71-1.38,3.09-3.09,3.09h-230.13
					c-7.88,0-15.15,3.95-19.45,10.56l-57.81,89v112.89c0,17.85,14.52,32.38,32.38,32.38h181.02V730.7h-71.1
					c-1.13,0-2.18-0.62-2.72-1.62c-0.54-1-0.49-2.21,0.12-3.16l33.5-51.57c0.57-0.88,1.55-1.41,2.59-1.41h155.53
					c1.71,0,3.09,1.38,3.09,3.09v210.19C1901.78,887.94,1900.39,889.32,1898.69,889.32z M1452.52,883.14h443.08V679.13h-150.76
					l-29.48,45.39h68.5c1.71,0,3.09,1.38,3.09,3.09v98.71c0,1.71-1.38,3.09-3.09,3.09h-184.11c-21.26,0-38.56-17.3-38.56-38.56
					V677.04c0-0.6,0.17-1.18,0.5-1.68l58.31-89.77c5.44-8.37,14.65-13.37,24.63-13.37h227.04v-45.39h-320.87
					c-7.88,0-15.15,3.95-19.45,10.56l-78.82,121.34V883.14z"/>
			</g>
			<g>
				<rect x="2525.25" y="668.83" width="97.2" height="58.78"/>
				<path class="st0" d="M2622.45,730.7h-97.2c-1.71,0-3.09-1.38-3.09-3.09v-58.78c0-1.71,1.38-3.09,3.09-3.09h97.2
					c1.71,0,3.09,1.38,3.09,3.09v58.78C2625.54,729.32,2624.16,730.7,2622.45,730.7z M2528.34,724.52h91.02v-52.6h-91.02V724.52z"/>
			</g>
			<g>
				<path d="M2837.56,874.27L2735.79,717.6c-5.65-8.71-5.65-19.92,0-28.63l99.56-153.27c4.85-7.46,13.14-11.96,22.04-11.96h336.36
					v51.57H2976.9c-8.9,0-17.19,4.5-22.04,11.96l-66.06,101.7c-5.65,8.71-5.65,19.92,0,28.63l62.85,96.75
					c4.85,7.46,13.14,11.96,22.04,11.96h220.06v59.92h-334.15C2850.7,886.23,2842.4,881.73,2837.56,874.27z"/>
				<path class="st0" d="M3193.75,889.32h-334.15c-9.98,0-19.19-5-24.63-13.37L2733.2,719.29c-6.31-9.72-6.31-22.28,0-32
					l99.56-153.27c5.44-8.37,14.65-13.37,24.63-13.37h336.36c1.71,0,3.09,1.38,3.09,3.09v51.57c0,1.71-1.38,3.09-3.09,3.09H2976.9
					c-7.88,0-15.15,3.95-19.45,10.56l-66.06,101.7c-4.98,7.67-4.98,17.59,0,25.26l62.85,96.75c4.29,6.61,11.56,10.56,19.45,10.56
					h220.06c1.71,0,3.09,1.38,3.09,3.09v59.92C3196.84,887.94,3195.45,889.32,3193.75,889.32z M2840.15,872.59
					c4.29,6.61,11.56,10.56,19.45,10.56h331.06v-53.74h-216.97c-9.98,0-19.19-5-24.63-13.37l-62.84-96.75
					c-6.31-9.72-6.31-22.28,0-32l66.06-101.7c5.44-8.37,14.65-13.37,24.63-13.37h213.76v-45.39h-333.27
					c-7.88,0-15.15,3.95-19.45,10.56l-99.56,153.27c-4.98,7.67-4.98,17.59,0,25.26L2840.15,872.59z"/>
			</g>
			<g>
				<path d="M911.11,886.23V638.99l67.1-103.28c4.85-7.46,13.14-11.96,22.04-11.96h341.41v51.57h-237.51
					c-8.9,0-17.19,4.5-22.04,11.96l-57.66,88.77h291.82l-33.5,51.57h-249.78v98.71h308.66v59.92H911.11z"/>
				<path class="st0" d="M1341.65,889.32H911.1c-1.71,0-3.09-1.38-3.09-3.09V638.99c0-0.6,0.17-1.18,0.5-1.68l67.1-103.28
					c5.44-8.37,14.65-13.37,24.63-13.37h341.41c1.71,0,3.09,1.38,3.09,3.09v51.57c0,1.71-1.38,3.09-3.09,3.09h-237.51
					c-7.88,0-15.15,3.95-19.45,10.56l-54.56,83.99h286.13c1.13,0,2.18,0.62,2.72,1.62c0.54,1,0.49,2.21-0.12,3.16l-33.5,51.57
					c-0.57,0.88-1.55,1.41-2.59,1.41h-246.69v92.53h305.57c1.71,0,3.09,1.38,3.09,3.09v59.92
					C1344.74,887.94,1343.36,889.32,1341.65,889.32z M914.2,883.14h424.36v-53.74h-305.57c-1.71,0-3.09-1.38-3.09-3.09v-98.71
					c0-1.71,1.38-3.09,3.09-3.09h248.1l29.48-45.39h-286.13c-1.13,0-2.18-0.62-2.72-1.62c-0.54-1-0.49-2.21,0.12-3.16l57.66-88.77
					c5.44-8.37,14.65-13.37,24.63-13.37h234.42v-45.39h-338.32c-7.88,0-15.15,3.95-19.45,10.56L914.2,639.9V883.14z"/>
			</g>
			<g>
				<path d="M3300.55,886.23V523.74h367.58c8.9,0,17.19,4.5,22.04,11.96l97.9,150.72c5.65,8.71,5.65,19.92,0,28.63l-103.42,159.22
					c-4.85,7.46-13.14,11.96-22.04,11.96H3300.55z M3409.4,826.32h165.35c8.9,0,17.19-4.5,22.04-11.96l64.51-99.31
					c5.65-8.71,5.65-19.92,0-28.63l-64.4-99.14c-4.85-7.46-13.14-11.96-22.04-11.96H3409.4V826.32z"/>
				<path class="st0" d="M3662.61,889.32h-362.06c-1.71,0-3.09-1.38-3.09-3.09V523.74c0-1.71,1.38-3.09,3.09-3.09h367.58
					c9.98,0,19.19,5,24.63,13.37l97.9,150.71c6.31,9.72,6.31,22.28,0,32l-103.42,159.22C3681.8,884.33,3672.6,889.32,3662.61,889.32
					z M3303.64,883.14h358.97c7.88,0,15.15-3.95,19.45-10.56l103.42-159.22c4.98-7.67,4.98-17.59,0-25.26l-97.9-150.71
					c-4.29-6.61-11.56-10.56-19.45-10.56h-364.5V883.14z M3574.75,829.41H3409.4c-1.71,0-3.09-1.38-3.09-3.09V575.31
					c0-1.71,1.38-3.09,3.09-3.09h165.46c9.98,0,19.19,5,24.63,13.37l64.4,99.14c6.31,9.72,6.31,22.28,0,32l-64.51,99.31
					C3593.95,824.41,3584.74,829.41,3574.75,829.41z M3412.49,823.23h162.26c7.88,0,15.15-3.95,19.45-10.56l64.51-99.31
					c4.98-7.67,4.98-17.59,0-25.26l-64.4-99.14c-4.29-6.61-11.56-10.56-19.45-10.56h-162.37V823.23z"/>
			</g>
			<g>
				<path d="M2231.13,523.74H1998.2v362.49h114.84V762.17l31.41,48.35h159.89l49.18,75.71h127.33L2253.17,535.7
					C2248.32,528.24,2240.03,523.74,2231.13,523.74z M2113.05,751.75V609.6c0-27.6,35.94-38.25,50.98-15.1l102.14,157.25H2113.05z"
					/>
				<path class="st0" d="M2480.86,889.32h-127.33c-1.05,0-2.02-0.53-2.59-1.41l-48.26-74.3h-158.21c-1.05,0-2.02-0.53-2.59-1.41
					l-25.73-39.61v113.63c0,1.71-1.38,3.09-3.09,3.09h-114.84c-1.71,0-3.09-1.38-3.09-3.09V523.74c0-1.71,1.38-3.09,3.09-3.09
					h232.92c9.98,0,19.19,5,24.63,13.37l227.69,350.53c0.62,0.95,0.66,2.16,0.12,3.16C2483.03,888.7,2481.99,889.32,2480.86,889.32z
					 M2355.2,883.14h119.96l-224.59-345.76c-4.29-6.61-11.56-10.56-19.45-10.56H2001.3v356.32h108.66V762.17
					c0-1.37,0.9-2.57,2.21-2.96c1.31-0.39,2.72,0.13,3.47,1.28l30.5,46.95h158.21c1.05,0,2.02,0.53,2.59,1.41L2355.2,883.14z
					 M2266.17,754.84h-153.12c-1.71,0-3.09-1.38-3.09-3.09V609.6c0-13.98,8.66-25.58,22.06-29.55c13.4-3.97,26.98,1.04,34.6,12.76
					l102.14,157.25c0.62,0.95,0.67,2.16,0.12,3.16C2268.34,754.22,2267.3,754.84,2266.17,754.84z M2116.14,748.66h144.34
					l-99.04-152.48c-6.09-9.37-16.94-13.38-27.66-10.2c-10.71,3.17-17.64,12.45-17.64,23.62V748.66z"/>
			</g>
		</g>
		<g>
			<path d="M534.71,584.41c1.5-14.31,24.79-52.59,24.79-52.59c0-26.17,21.22-47.39,47.39-47.39h39.13h24.47h168.99l-39.31,39.31
				H606.89C548.48,523.74,534.71,584.41,534.71,584.41z"/>
			<path class="st0" d="M534.71,587.5c-0.17,0-0.34-0.01-0.51-0.04c-1.61-0.27-2.74-1.74-2.57-3.37
				c1.45-13.88,21.43-47.57,24.78-53.14c0.47-27.43,22.93-49.61,50.48-49.61h232.58c1.25,0,2.38,0.75,2.85,1.91
				c0.48,1.15,0.21,2.48-0.67,3.37l-39.31,39.31c-0.58,0.58-1.37,0.9-2.19,0.9H606.89c-23.09,0-41.72,9.71-55.35,28.86
				c-10.32,14.5-13.78,29.26-13.82,29.4C537.39,586.52,536.13,587.5,534.71,587.5z M606.89,487.52c-24.43,0-44.3,19.87-44.3,44.3
				c0,0.57-0.16,1.12-0.45,1.61c-0.72,1.19-1.58,2.62-2.53,4.24c10.93-9.37,26.29-17.02,47.28-17.02h192l33.13-33.13H606.89z"/>
		</g>
		<g>
			<polygon points="800.17,523.74 800.17,886.23 839.47,925.54 839.47,484.43 			"/>
			<path class="st0" d="M839.47,928.63c-0.8,0-1.59-0.31-2.19-0.9l-39.31-39.31c-0.58-0.58-0.91-1.37-0.91-2.19V523.74
				c0-0.82,0.33-1.61,0.91-2.19l39.31-39.31c0.88-0.88,2.21-1.15,3.37-0.67c1.15,0.48,1.91,1.61,1.91,2.86v441.11
				c0,1.25-0.75,2.38-1.91,2.86C840.27,928.55,839.87,928.63,839.47,928.63z M803.26,884.95l33.13,33.13V491.89l-33.13,33.13V884.95
				z"/>
		</g>
		<g>
			<path d="M1874.75,575.31h-230.13c-8.9,0-17.19,4.5-22.04,11.96l-58.31,89.77l39.31,11.65l48.11-74.07h262.36L1874.75,575.31z"/>
			<path class="st0" d="M1603.58,691.78c-0.29,0-0.59-0.04-0.88-0.13l-39.31-11.65c-0.93-0.28-1.68-0.98-2.02-1.89
				c-0.34-0.91-0.22-1.94,0.31-2.75l58.31-89.77c5.44-8.37,14.65-13.37,24.63-13.37h230.13c0.82,0,1.61,0.33,2.19,0.9l39.31,39.31
				c0.88,0.88,1.15,2.21,0.67,3.37c-0.48,1.15-1.6,1.91-2.85,1.91h-260.69l-47.2,72.67
				C1605.59,691.27,1604.61,691.78,1603.58,691.78z M1569.12,675.26l33.13,9.81l46.86-72.14c0.57-0.88,1.55-1.41,2.59-1.41h254.9
				l-33.13-33.13h-228.85c-7.88,0-15.15,3.95-19.45,10.56L1569.12,675.26z"/>
		</g>
		<g>
			<path d="M1563.48,484.43L1563.48,484.43l-24.81,0c-14.65,0-28.31,7.41-36.29,19.7l-92.26,142.04l39.31,11.65l79.32-122.11
				c4.85-7.46,13.14-11.96,22.04-11.96h323.96l39.31-39.31H1563.48z"/>
			<path class="st0" d="M1449.43,660.9c-0.29,0-0.59-0.04-0.88-0.13l-39.31-11.65c-0.93-0.28-1.68-0.98-2.02-1.89
				c-0.34-0.91-0.22-1.94,0.31-2.75l92.26-142.04c8.58-13.22,23.12-21.11,38.88-21.11h375.39c1.25,0,2.38,0.75,2.85,1.91
				c0.48,1.15,0.21,2.48-0.67,3.37l-39.31,39.31c-0.58,0.58-1.37,0.9-2.19,0.9h-323.96c-7.88,0-15.15,3.95-19.45,10.56
				l-79.32,122.11C1451.44,660.39,1450.46,660.9,1449.43,660.9z M1414.97,644.38l33.13,9.81l78.06-120.17
				c5.44-8.37,14.65-13.37,24.63-13.37h322.68l33.13-33.13h-367.93c-13.66,0-26.25,6.84-33.69,18.29L1414.97,644.38z"/>
		</g>
		<g>
			<polygon points="1410.12,646.17 1410.12,656.54 1410.12,797.22 1410.12,925.54 1449.43,886.23 1449.43,657.81 			"/>
			<path class="st0" d="M1410.12,928.63c-0.4,0-0.8-0.08-1.18-0.24c-1.15-0.48-1.91-1.61-1.91-2.86V646.17
				c0-0.98,0.46-1.89,1.24-2.48c0.78-0.58,1.79-0.76,2.73-0.49l39.31,11.65c1.31,0.39,2.21,1.59,2.21,2.96v228.42
				c0,0.82-0.33,1.61-0.91,2.19l-39.31,39.31C1411.72,928.32,1410.93,928.63,1410.12,928.63z M1413.21,650.3v267.78l33.13-33.13
				V660.12L1413.21,650.3z"/>
		</g>
		<g>
			<polygon points="1721.82,636.73 1743.16,676.04 1898.69,676.04 1938,636.73 			"/>
			<path class="st0" d="M1898.69,679.13h-155.53c-1.13,0-2.18-0.62-2.72-1.62l-21.34-39.31c-0.52-0.96-0.5-2.12,0.06-3.05
				c0.56-0.94,1.57-1.51,2.66-1.51H1938c1.25,0,2.38,0.75,2.85,1.91c0.48,1.15,0.21,2.48-0.67,3.37l-39.31,39.31
				C1900.29,678.81,1899.51,679.13,1898.69,679.13z M1744.99,672.95h152.41l33.13-33.13h-203.53L1744.99,672.95z"/>
		</g>
		<g>
			<polygon points="1898.69,886.23 1449.43,886.23 1410.12,925.54 1938,925.54 			"/>
			<path class="st0" d="M1938,928.63h-527.87c-1.25,0-2.38-0.75-2.85-1.91s-0.21-2.48,0.67-3.37l39.31-39.31
				c0.58-0.58,1.37-0.9,2.18-0.9h449.26c0.82,0,1.61,0.33,2.19,0.9l39.31,39.31c0.88,0.88,1.15,2.21,0.67,3.37
				S1939.25,928.63,1938,928.63z M1417.58,922.45h512.95l-33.13-33.13h-446.7L1417.58,922.45z"/>
		</g>
		<g>
			<polygon points="1709.66,727.61 1637.25,766.92 1744.54,766.92 1783.85,727.61 			"/>
			<path class="st0" d="M1744.54,770.01h-107.29c-1.41,0-2.65-0.96-2.99-2.33c-0.35-1.37,0.28-2.8,1.52-3.48l72.4-39.31
				c0.45-0.25,0.96-0.37,1.47-0.37h74.19c1.25,0,2.38,0.75,2.85,1.91c0.48,1.15,0.21,2.48-0.67,3.37l-39.31,39.31
				C1746.14,769.68,1745.36,770.01,1744.54,770.01z M1649.42,763.83h93.84l33.13-33.13h-65.94L1649.42,763.83z"/>
		</g>
		<g>
			<path d="M1744.54,787.01h-140.96v-98.32l-39.31-11.65v113.81c0,19.59,15.88,35.47,35.47,35.47h184.11L1744.54,787.01z"/>
			<path class="st0" d="M1783.85,829.41h-184.11c-21.26,0-38.56-17.3-38.56-38.56V677.04c0-0.98,0.46-1.89,1.24-2.48
				c0.78-0.58,1.79-0.76,2.73-0.49l39.31,11.65c1.31,0.39,2.21,1.59,2.21,2.96v95.23h137.87c0.82,0,1.61,0.33,2.19,0.9l39.31,39.31
				c0.88,0.88,1.15,2.21,0.67,3.37C1786.22,828.66,1785.1,829.41,1783.85,829.41z M1567.36,681.18v109.67
				c0,17.85,14.52,32.38,32.38,32.38h176.65l-33.13-33.13h-139.68c-1.71,0-3.09-1.38-3.09-3.09V691L1567.36,681.18z"/>
		</g>
		<g>
			<polygon points="1744.54,766.92 1744.54,787.01 1783.85,826.32 1783.85,727.61 			"/>
			<path class="st0" d="M1783.85,829.41c-0.8,0-1.59-0.31-2.19-0.91l-39.31-39.31c-0.58-0.58-0.91-1.37-0.91-2.19v-20.09
				c0-0.82,0.33-1.61,0.91-2.19l39.31-39.31c0.88-0.88,2.21-1.15,3.37-0.67c1.15,0.48,1.91,1.61,1.91,2.86v98.71
				c0,1.25-0.75,2.38-1.91,2.86C1784.65,829.33,1784.25,829.41,1783.85,829.41z M1747.63,785.73l33.13,33.13v-83.79l-33.13,33.13
				V785.73z"/>
		</g>
		<g>
			<polygon points="1721.82,636.73 1637.25,766.92 1709.66,727.61 1743.16,676.04 			"/>
			<path class="st0" d="M1637.25,770.01c-0.84,0-1.67-0.34-2.27-0.99c-0.96-1.04-1.09-2.59-0.32-3.78l84.56-130.19
				c0.59-0.91,1.62-1.46,2.71-1.4c1.09,0.04,2.07,0.66,2.59,1.61l21.34,39.31c0.54,1,0.49,2.21-0.12,3.16l-33.5,51.57
				c-0.28,0.43-0.66,0.79-1.12,1.03l-72.4,39.31C1638.26,769.89,1637.76,770.01,1637.25,770.01z M1721.58,642.77l-75.11,115.63
				l61.02-33.13l32.07-49.37L1721.58,642.77z"/>
		</g>
		<g>
			<polygon points="1898.69,676.04 1898.69,886.23 1938,925.54 1938,636.73 			"/>
			<path class="st0" d="M1938,928.63c-0.8,0-1.59-0.31-2.19-0.91l-39.31-39.31c-0.58-0.58-0.91-1.37-0.91-2.19V676.04
				c0-0.82,0.33-1.61,0.91-2.19l39.31-39.31c0.88-0.88,2.21-1.15,3.37-0.67c1.15,0.48,1.91,1.61,1.91,2.86v288.81
				c0,1.25-0.75,2.38-1.91,2.86C1938.8,928.55,1938.39,928.63,1938,928.63z M1901.78,884.95l33.13,33.13V644.19l-33.13,33.13V884.95
				z"/>
		</g>
		<g>
			<polygon points="1874.75,523.74 1874.75,575.31 1914.06,614.62 1914.06,484.43 			"/>
			<path class="st0" d="M1914.06,617.71c-0.8,0-1.59-0.31-2.19-0.9l-39.31-39.31c-0.58-0.58-0.91-1.37-0.91-2.19v-51.57
				c0-0.82,0.33-1.61,0.91-2.19l39.31-39.31c0.88-0.88,2.21-1.15,3.37-0.67c1.15,0.48,1.91,1.61,1.91,2.86v130.19
				c0,1.25-0.75,2.38-1.91,2.86C1914.86,617.63,1914.46,617.71,1914.06,617.71z M1877.84,574.03l33.13,33.13V491.89l-33.13,33.13
				V574.03z"/>
		</g>
		<g>
			<polygon points="2485.95,629.52 2485.95,766.92 2525.25,727.61 2525.25,668.83 			"/>
			<path class="st0" d="M2485.95,770.01c-0.4,0-0.8-0.08-1.18-0.24c-1.15-0.48-1.91-1.61-1.91-2.86v-137.4
				c0-1.25,0.75-2.38,1.91-2.86c1.16-0.48,2.48-0.21,3.37,0.67l39.31,39.31c0.58,0.58,0.91,1.37,0.91,2.19v58.78
				c0,0.82-0.33,1.61-0.91,2.19l-39.31,39.31C2487.54,769.7,2486.75,770.01,2485.95,770.01z M2489.04,636.98v122.48l33.13-33.13
				v-56.22L2489.04,636.98z"/>
		</g>
		<g>
			<polygon points="2485.95,629.52 2525.25,668.83 2622.45,668.83 2661.76,629.52 			"/>
			<path class="st0" d="M2622.45,671.92h-97.2c-0.82,0-1.61-0.33-2.19-0.9l-39.31-39.31c-0.88-0.88-1.15-2.21-0.67-3.37
				c0.48-1.15,1.6-1.91,2.85-1.91h175.81c1.25,0,2.38,0.75,2.85,1.91c0.48,1.15,0.21,2.48-0.67,3.37l-39.31,39.31
				C2624.06,671.6,2623.27,671.92,2622.45,671.92z M2526.53,665.74h94.64l33.13-33.13h-160.89L2526.53,665.74z"/>
		</g>
		<g>
			<polygon points="2622.45,727.61 2525.25,727.61 2485.95,766.92 2661.76,766.92 			"/>
			<path class="st0" d="M2661.76,770.01h-175.81c-1.25,0-2.38-0.75-2.85-1.91c-0.48-1.15-0.21-2.48,0.67-3.37l39.31-39.31
				c0.58-0.58,1.37-0.9,2.19-0.9h97.2c0.82,0,1.61,0.33,2.19,0.9l39.31,39.31c0.88,0.88,1.15,2.21,0.67,3.37
				C2664.13,769.26,2663.01,770.01,2661.76,770.01z M2493.41,763.83h160.89l-33.13-33.13h-94.64L2493.41,763.83z"/>
		</g>
		<g>
			<polygon points="2622.45,668.83 2622.45,727.61 2661.76,766.92 2661.76,629.52 			"/>
			<path class="st0" d="M2661.76,770.01c-0.8,0-1.59-0.31-2.19-0.91l-39.31-39.31c-0.58-0.58-0.91-1.37-0.91-2.19v-58.78
				c0-0.82,0.33-1.61,0.91-2.19l39.31-39.31c0.88-0.88,2.21-1.15,3.37-0.67c1.16,0.48,1.91,1.61,1.91,2.86v137.4
				c0,1.25-0.75,2.38-1.91,2.86C2662.56,769.93,2662.16,770.01,2661.76,770.01z M2625.54,726.33l33.13,33.13V636.98l-33.13,33.13
				V726.33z"/>
		</g>
		<g>
			<path d="M2859.59,886.23c-8.9,0-17.19-4.5-22.04-11.96L2735.79,717.6c-5.65-8.71-5.65-19.92,0-28.63l99.56-153.27
				c4.85-7.46,13.14-11.96,22.04-11.96h336.36l39.31-39.31h-292.29v0h-95.49c-14.65,0-28.31,7.41-36.29,19.7l-114.05,175.59
				c-9.31,14.33-9.31,32.81,0,47.14L2803,893.23l8.19,12.61c7.98,12.29,21.64,19.7,36.29,19.7h59.41h163.86h162.31l-39.31-39.31
				H2859.59z"/>
			<path class="st0" d="M3233.05,928.63h-385.58c-15.76,0-30.29-7.89-38.88-21.11l-116.26-178.98c-9.96-15.34-9.96-35.17,0-50.51
				l114.05-175.59c8.58-13.22,23.12-21.11,38.88-21.11h387.78c1.25,0,2.38,0.75,2.86,1.91c0.48,1.15,0.21,2.48-0.67,3.37
				l-39.31,39.31c-0.58,0.58-1.37,0.9-2.19,0.9h-336.36c-7.88,0-15.15,3.95-19.45,10.56l-99.56,153.27
				c-4.98,7.67-4.98,17.59,0,25.26l101.76,156.67c4.29,6.61,11.56,10.56,19.45,10.56h334.15c0.82,0,1.61,0.33,2.19,0.9l39.31,39.31
				c0.88,0.88,1.15,2.21,0.67,3.37C3235.43,927.88,3234.3,928.63,3233.05,928.63z M2845.27,487.52c-13.66,0-26.25,6.84-33.69,18.29
				L2697.52,681.4c-8.64,13.3-8.64,30.48,0,43.77l116.26,178.98c7.44,11.45,20.04,18.29,33.69,18.29h378.12l-33.13-33.13h-332.87
				c-9.98,0-19.19-5-24.63-13.37L2733.2,719.29c-6.31-9.72-6.31-22.28,0-32l99.56-153.27c5.44-8.37,14.65-13.37,24.63-13.37h335.08
				l33.13-33.13H2845.27z"/>
		</g>
		<g>
			<polygon points="3193.75,826.32 3193.75,886.23 3233.05,925.54 3233.05,787.01 			"/>
			<path class="st0" d="M3233.05,928.63c-0.8,0-1.59-0.31-2.19-0.9l-39.31-39.31c-0.58-0.58-0.91-1.37-0.91-2.19v-59.92
				c0-0.82,0.33-1.61,0.91-2.19l39.31-39.31c0.88-0.88,2.21-1.15,3.37-0.67c1.15,0.48,1.91,1.61,1.91,2.86v138.53
				c0,1.25-0.75,2.38-1.91,2.86C3233.85,928.55,3233.45,928.63,3233.05,928.63z M3196.84,884.95l33.13,33.13V794.47l-33.13,33.13
				V884.95z"/>
		</g>
		<g>
			<polygon points="3193.75,826.32 3193.75,886.23 3233.05,925.54 3233.05,787.01 			"/>
			<path class="st0" d="M3233.05,928.63c-0.8,0-1.59-0.31-2.19-0.9l-39.31-39.31c-0.58-0.58-0.91-1.37-0.91-2.19v-59.92
				c0-0.82,0.33-1.61,0.91-2.19l39.31-39.31c0.88-0.88,2.21-1.15,3.37-0.67c1.15,0.48,1.91,1.61,1.91,2.86v138.53
				c0,1.25-0.75,2.38-1.91,2.86C3233.85,928.55,3233.45,928.63,3233.05,928.63z M3196.84,884.95l33.13,33.13V794.47l-33.13,33.13
				V884.95z"/>
		</g>
		<g>
			<path d="M2932.09,694.5l51.89-79.88h249.08l-39.31-39.31H2976.9c-8.9,0-17.19,4.5-22.04,11.96l-66.06,101.7
				c-5.65,8.71-5.65,19.92,0,28.63l62.85,96.75c4.85,7.46,13.14,11.96,22.04,11.96h220.06l39.31-39.31h-252.29l-48.67-74.93
				C2928.61,706.73,2928.61,699.84,2932.09,694.5z"/>
			<path class="st0" d="M3193.75,829.41h-220.06c-9.98,0-19.19-5-24.63-13.37l-62.84-96.75c-6.31-9.72-6.31-22.28,0-32l66.06-101.7
				c5.44-8.37,14.65-13.37,24.63-13.37h216.85c0.82,0,1.61,0.33,2.19,0.9l39.31,39.31c0.88,0.88,1.15,2.21,0.67,3.37
				c-0.48,1.15-1.61,1.91-2.86,1.91h-247.4l-50.97,78.47l0,0c-2.81,4.32-2.81,9.9,0,14.22l47.76,73.52h250.62
				c1.25,0,2.38,0.75,2.86,1.91c0.48,1.15,0.21,2.48-0.67,3.37l-39.31,39.31C3195.35,829.08,3194.57,829.41,3193.75,829.41z
				 M2976.9,578.4c-7.88,0-15.15,3.95-19.45,10.56l-66.06,101.7c-4.98,7.67-4.98,17.59,0,25.26l62.85,96.75
				c4.29,6.61,11.56,10.56,19.45,10.56h218.78l33.13-33.13h-244.83c-1.05,0-2.02-0.53-2.59-1.41l-48.67-74.93
				c-4.13-6.36-4.13-14.59,0-20.95l51.89-79.88c0.57-0.88,1.54-1.41,2.59-1.41h241.62l-33.13-33.13H2976.9z M2932.09,694.5
				L2932.09,694.5L2932.09,694.5z"/>
		</g>
		<g>
			<polygon points="3193.75,523.74 3193.75,575.31 3233.05,614.62 3233.05,484.43 			"/>
			<path class="st0" d="M3233.05,617.71c-0.8,0-1.59-0.31-2.19-0.91l-39.31-39.31c-0.58-0.58-0.91-1.37-0.91-2.19v-51.57
				c0-0.82,0.33-1.61,0.91-2.19l39.31-39.31c0.88-0.88,2.21-1.15,3.37-0.67c1.15,0.48,1.91,1.61,1.91,2.86v130.19
				c0,1.25-0.75,2.38-1.91,2.86C3233.85,617.63,3233.45,617.71,3233.05,617.71z M3196.84,574.03l33.13,33.13V491.89l-33.13,33.13
				V574.03z"/>
		</g>
		<g>
			<polygon points="1341.65,523.74 1341.65,575.31 1380.96,614.62 1380.96,484.43 			"/>
			<path class="st0" d="M1380.96,617.71c-0.8,0-1.59-0.31-2.19-0.9l-39.31-39.31c-0.58-0.58-0.91-1.37-0.91-2.19v-51.57
				c0-0.82,0.33-1.61,0.91-2.19l39.31-39.31c0.88-0.88,2.21-1.15,3.37-0.67c1.15,0.48,1.91,1.61,1.91,2.86v130.19
				c0,1.25-0.75,2.38-1.91,2.86C1381.76,617.63,1381.36,617.71,1380.96,617.71z M1344.74,574.03l33.13,33.13V491.89l-33.13,33.13
				V574.03z"/>
		</g>
		<g>
			<polygon points="1316.27,676.04 1282.77,727.61 1304.11,766.92 1388.67,636.73 			"/>
			<path class="st0" d="M1304.11,770.01c-0.04,0-0.08,0-0.12,0c-1.09-0.04-2.07-0.66-2.59-1.61l-21.34-39.31
				c-0.54-1-0.49-2.21,0.12-3.16l33.5-51.57c0.28-0.43,0.66-0.79,1.12-1.03l72.4-39.31c1.24-0.67,2.78-0.42,3.74,0.62
				c0.96,1.04,1.09,2.59,0.32,3.78L1306.7,768.6C1306.13,769.48,1305.15,770.01,1304.11,770.01z M1286.36,727.75l17.98,33.13
				l75.1-115.63l-61.02,33.13L1286.36,727.75z"/>
		</g>
		<g>
			<polygon points="1072.3,787.01 1032.99,826.32 1341.65,826.32 1380.96,787.01 			"/>
			<path class="st0" d="M1341.65,829.41h-308.66c-1.25,0-2.38-0.75-2.85-1.91c-0.48-1.15-0.21-2.48,0.67-3.37l39.31-39.31
				c0.58-0.58,1.37-0.9,2.19-0.9h308.66c1.25,0,2.38,0.75,2.85,1.91c0.48,1.15,0.21,2.48-0.67,3.37l-39.31,39.31
				C1343.26,829.08,1342.47,829.41,1341.65,829.41z M1040.45,823.23h299.92l33.13-33.13h-299.92L1040.45,823.23z"/>
		</g>
		<g>
			<polygon points="871.8,627.34 871.8,925.54 911.11,886.23 911.11,638.99 			"/>
			<path class="st0" d="M871.8,928.63c-0.4,0-0.8-0.08-1.18-0.24c-1.15-0.48-1.91-1.61-1.91-2.86v-298.2c0-0.98,0.46-1.89,1.24-2.48
				c0.78-0.58,1.79-0.76,2.73-0.49l39.31,11.65c1.31,0.39,2.21,1.59,2.21,2.96v247.25c0,0.82-0.33,1.61-0.91,2.19l-39.31,39.31
				C873.39,928.32,872.6,928.63,871.8,928.63z M874.89,631.48v286.6l33.13-33.13V641.29L874.89,631.48z"/>
		</g>
		<g>
			<path d="M1065.25,484.43h-32.81h-44.32c-14.65,0-28.3,7.41-36.28,19.7L871.8,627.34l39.31,11.65l67.1-103.28
				c4.85-7.46,13.14-11.96,22.04-11.96h341.41l39.31-39.31H1065.25z"/>
			<path class="st0" d="M911.1,642.08c-0.29,0-0.59-0.04-0.88-0.13l-39.31-11.65c-0.93-0.28-1.68-0.98-2.02-1.89
				c-0.34-0.92-0.22-1.94,0.31-2.75l80.04-123.21c8.58-13.21,23.12-21.1,38.88-21.1h392.83c1.25,0,2.38,0.75,2.85,1.91
				c0.48,1.15,0.21,2.48-0.67,3.37l-39.31,39.31c-0.58,0.58-1.37,0.9-2.19,0.9h-341.41c-7.88,0-15.15,3.95-19.45,10.56l-67.1,103.28
				C913.12,641.56,912.13,642.08,911.1,642.08z M876.64,625.55l33.13,9.82l65.84-101.35c5.44-8.37,14.65-13.37,24.63-13.37h340.13
				l33.13-33.13H988.13c-13.66,0-26.25,6.84-33.69,18.29L876.64,625.55z"/>
		</g>
		<g>
			<polyline points="1333.32,925.54 1380.96,925.54 1341.65,886.23 911.11,886.23 871.8,925.54 1333.32,925.54 			"/>
			<path class="st0" d="M1380.96,928.63H871.8c-1.25,0-2.38-0.75-2.85-1.91s-0.21-2.48,0.67-3.37l39.31-39.31
				c0.58-0.58,1.37-0.9,2.19-0.9h430.54c0.82,0,1.61,0.33,2.19,0.9l39.31,39.31c0.88,0.88,1.15,2.21,0.67,3.37
				C1383.33,927.88,1382.21,928.63,1380.96,928.63z M879.26,922.45h494.24l-33.13-33.13H912.38L879.26,922.45z"/>
		</g>
		<g>
			<path d="M2279.53,504.13c-7.98-12.29-21.64-19.7-36.29-19.7h-90.89h-106.7h-86.76l39.31,39.31h232.92
				c8.9,0,17.19,4.5,22.04,11.96l227.69,350.53l72.4,39.31L2279.53,504.13z"/>
			<path class="st0" d="M2553.26,928.63c-0.5,0-1.01-0.12-1.47-0.37l-72.4-39.31c-0.45-0.25-0.84-0.6-1.12-1.03l-227.69-350.53
				c-4.29-6.61-11.56-10.56-19.45-10.56h-232.92c-0.82,0-1.61-0.33-2.19-0.9l-39.31-39.31c-0.88-0.88-1.15-2.21-0.67-3.37
				c0.48-1.15,1.61-1.91,2.85-1.91h284.35c15.76,0,30.29,7.89,38.88,21.11l273.73,421.41c0.77,1.19,0.64,2.74-0.32,3.78
				C2554.93,928.29,2554.1,928.63,2553.26,928.63z M2483.02,883.89l61.02,33.13l-267.1-411.21c-7.44-11.45-20.04-18.29-33.7-18.29
				h-276.89l33.13,33.13h231.64c9.98,0,19.19,5,24.63,13.37L2483.02,883.89z"/>
		</g>
		<g>
			<polygon points="1341.65,826.32 1341.65,886.23 1380.96,925.54 1380.96,787.01 			"/>
			<path class="st0" d="M1380.96,928.63c-0.8,0-1.59-0.31-2.19-0.9l-39.31-39.31c-0.58-0.58-0.91-1.37-0.91-2.19v-59.92
				c0-0.82,0.33-1.61,0.91-2.19l39.31-39.31c0.88-0.88,2.21-1.15,3.37-0.67c1.15,0.48,1.91,1.61,1.91,2.86v138.53
				c0,1.25-0.75,2.38-1.91,2.86C1381.76,928.55,1381.36,928.63,1380.96,928.63z M1344.74,884.95l33.13,33.13V794.47l-33.13,33.13
				V884.95z"/>
		</g>
		<g>
			<polygon points="1032.99,727.61 1032.99,826.32 1072.3,787.01 1072.3,766.92 			"/>
			<path class="st0" d="M1032.99,829.41c-0.4,0-0.8-0.08-1.18-0.24c-1.15-0.48-1.91-1.61-1.91-2.86v-98.71
				c0-1.25,0.75-2.38,1.91-2.86c1.15-0.48,2.48-0.21,3.37,0.67l39.31,39.31c0.58,0.58,0.91,1.37,0.91,2.19v20.09
				c0,0.82-0.33,1.61-0.91,2.19l-39.31,39.31C1034.59,829.09,1033.8,829.41,1032.99,829.41z M1036.08,735.07v83.79l33.13-33.13
				V768.2L1036.08,735.07z"/>
		</g>
		<g>
			<polygon points="1282.77,727.61 1032.99,727.61 1072.3,766.92 1304.11,766.92 			"/>
			<path class="st0" d="M1304.11,770.01H1072.3c-0.82,0-1.61-0.33-2.19-0.9l-39.31-39.31c-0.88-0.88-1.15-2.21-0.67-3.37
				c0.48-1.15,1.61-1.91,2.85-1.91h249.78c1.13,0,2.18,0.62,2.72,1.62l21.34,39.31c0.52,0.96,0.5,2.12-0.06,3.05
				C1306.21,769.44,1305.2,770.01,1304.11,770.01z M1073.58,763.83h225.33l-17.98-33.13h-240.48L1073.58,763.83z"/>
		</g>
		<g>
			<polygon points="1096.85,636.73 1024.44,676.04 1316.27,676.04 1388.67,636.73 			"/>
			<path class="st0" d="M1316.27,679.13h-291.82c-1.41,0-2.65-0.96-2.99-2.33c-0.35-1.37,0.28-2.8,1.52-3.48l72.4-39.31
				c0.45-0.25,0.96-0.37,1.47-0.37h291.82c1.41,0,2.65,0.96,2.99,2.33c0.35,1.37-0.28,2.8-1.52,3.48l-72.4,39.31
				C1317.29,679,1316.78,679.13,1316.27,679.13z M1036.61,672.95h278.87l61.02-33.13h-278.87L1036.61,672.95z"/>
		</g>
		<g>
			<path d="M1341.65,575.31h-237.51c-8.9,0-17.19,4.5-22.04,11.96l-57.66,88.77l72.4-39.31l14.37-22.12h269.74L1341.65,575.31z"/>
			<path class="st0" d="M1024.44,679.13c-0.84,0-1.67-0.34-2.27-0.99c-0.96-1.04-1.09-2.59-0.32-3.78l57.66-88.77
				c5.44-8.37,14.65-13.37,24.63-13.37h237.51c0.82,0,1.61,0.33,2.19,0.9l39.31,39.31c0.88,0.88,1.15,2.21,0.67,3.37
				c-0.48,1.15-1.6,1.91-2.85,1.91h-268.07l-13.45,20.71c-0.28,0.43-0.66,0.79-1.12,1.03l-72.4,39.31
				C1025.45,679.01,1024.95,679.13,1024.44,679.13z M1104.14,578.4c-7.88,0-15.15,3.95-19.45,10.56l-51.03,78.56l61.02-33.13
				l13.94-21.46c0.57-0.88,1.55-1.41,2.59-1.41h262.28l-33.13-33.13H1104.14z"/>
		</g>
		<g>
			<polyline points="1082.1,587.27 1024.44,676.04 1096.85,636.73 1111.21,614.62 			"/>
			<path class="st0" d="M1024.44,679.13c-0.84,0-1.67-0.34-2.27-0.99c-0.96-1.04-1.09-2.59-0.32-3.78l57.66-88.77
				c0.93-1.43,2.84-1.84,4.27-0.91c1.43,0.93,1.84,2.84,0.91,4.27l-51.03,78.56l61.02-33.13l13.94-21.46
				c0.93-1.43,2.84-1.84,4.27-0.91c1.43,0.93,1.84,2.84,0.91,4.27l-14.37,22.12c-0.28,0.43-0.66,0.79-1.12,1.03l-72.4,39.31
				C1025.45,679.01,1024.95,679.13,1024.44,679.13z"/>
		</g>
		<g>
			<polygon points="2480.86,886.23 2353.52,886.23 2332.18,925.54 2553.26,925.54 			"/>
			<path class="st0" d="M2553.26,928.63h-221.08c-1.09,0-2.1-0.57-2.66-1.51c-0.56-0.94-0.58-2.1-0.06-3.05l21.34-39.31
				c0.54-1,1.58-1.62,2.72-1.62h127.33c0.51,0,1.02,0.13,1.47,0.37l72.4,39.31c1.24,0.67,1.87,2.11,1.52,3.48
				S2554.67,928.63,2553.26,928.63z M2337.38,922.45h203.72l-61.02-33.13h-124.71L2337.38,922.45z"/>
		</g>
		<g>
			<polygon points="1958.9,484.43 1958.9,925.54 1998.2,886.23 1998.2,523.74 			"/>
			<path class="st0" d="M1958.9,928.63c-0.4,0-0.8-0.08-1.18-0.23c-1.15-0.48-1.91-1.61-1.91-2.86V484.43
				c0-1.25,0.75-2.38,1.91-2.86c1.15-0.48,2.48-0.21,3.37,0.67l39.31,39.31c0.58,0.58,0.91,1.37,0.91,2.19v362.49
				c0,0.82-0.33,1.61-0.91,2.19l-39.31,39.31C1960.49,928.32,1959.7,928.63,1958.9,928.63z M1961.99,491.89v426.19l33.13-33.13
				V525.02L1961.99,491.89z"/>
		</g>
		<g>
			<polygon points="2113.05,886.23 1998.2,886.23 1958.9,925.54 2152.35,925.54 			"/>
			<path class="st0" d="M2152.35,928.63H1958.9c-1.25,0-2.38-0.75-2.85-1.91c-0.48-1.15-0.21-2.48,0.67-3.37l39.31-39.31
				c0.58-0.58,1.37-0.9,2.19-0.9h114.84c0.82,0,1.61,0.33,2.19,0.9l39.31,39.31c0.88,0.88,1.15,2.21,0.67,3.37
				C2154.73,927.88,2153.6,928.63,2152.35,928.63z M1966.36,922.45h178.54l-33.13-33.13h-112.28L1966.36,922.45z"/>
		</g>
		<g>
			<polygon points="2113.05,762.17 2113.05,886.23 2152.35,925.54 2152.35,849.84 			"/>
			<path class="st0" d="M2152.35,928.63c-0.8,0-1.59-0.31-2.19-0.91l-39.31-39.31c-0.58-0.58-0.91-1.37-0.91-2.19V762.17
				c0-1.46,1.02-2.72,2.44-3.02c1.42-0.31,2.87,0.43,3.47,1.76l39.31,87.66c0.18,0.4,0.27,0.83,0.27,1.26v75.71
				c0,1.25-0.75,2.38-1.91,2.86C2153.15,928.55,2152.75,928.63,2152.35,928.63z M2116.14,884.95l33.13,33.13V850.5l-33.13-73.88
				V884.95z"/>
		</g>
		<g>
			<polygon points="2144.46,810.53 2152.35,849.84 2283.01,849.84 2304.35,810.53 			"/>
			<path class="st0" d="M2283.01,852.93h-130.65c-1.47,0-2.74-1.04-3.03-2.48l-7.9-39.31c-0.18-0.91,0.05-1.85,0.64-2.57
				c0.59-0.72,1.46-1.13,2.39-1.13h159.89c1.09,0,2.1,0.57,2.66,1.51c0.56,0.94,0.58,2.1,0.06,3.05l-21.34,39.31
				C2285.18,852.31,2284.14,852.93,2283.01,852.93z M2154.89,846.75h126.28l17.98-33.13h-150.93L2154.89,846.75z"/>
		</g>
		<g>
			<polygon points="2304.35,810.53 2283.01,849.84 2332.18,925.54 2353.52,886.23 			"/>
			<path class="st0" d="M2332.18,928.63c-1.04,0-2.02-0.53-2.59-1.41l-49.18-75.71c-0.62-0.95-0.66-2.16-0.12-3.16l21.34-39.31
				c0.52-0.96,1.51-1.57,2.59-1.61c1.1-0.05,2.12,0.49,2.71,1.4l49.18,75.71c0.62,0.95,0.66,2.16,0.12,3.16l-21.34,39.31
				c-0.52,0.96-1.51,1.57-2.59,1.61C2332.26,928.63,2332.22,928.63,2332.18,928.63z M2286.6,849.69l45.34,69.81l17.98-33.13
				l-45.34-69.81L2286.6,849.69z"/>
		</g>
		<g>
			<polygon points="2193.76,712.44 2152.35,712.44 2113.05,751.75 2266.17,751.75 			"/>
			<path class="st0" d="M2266.17,754.84h-153.12c-1.25,0-2.38-0.75-2.85-1.91c-0.48-1.15-0.21-2.48,0.67-3.37l39.31-39.31
				c0.58-0.58,1.37-0.9,2.19-0.9h41.41c0.51,0,1.02,0.13,1.47,0.37l72.4,39.31c1.24,0.67,1.87,2.11,1.52,3.48
				C2268.81,753.88,2267.58,754.84,2266.17,754.84z M2120.51,748.66H2254l-61.02-33.13h-39.34L2120.51,748.66z"/>
		</g>
		<g>
			<path d="M2164.02,594.5c-15.04-23.15-50.98-12.5-50.98,15.1v142.15l39.31-39.31v-63.75l41.41,63.75l72.41,39.31L2164.02,594.5z"
				/>
			<path class="st0" d="M2266.17,754.84c-0.5,0-1.01-0.12-1.47-0.37l-72.4-39.31c-0.45-0.25-0.84-0.6-1.12-1.03l-35.73-55v53.32
				c0,0.82-0.33,1.61-0.91,2.19l-39.31,39.31c-0.88,0.88-2.21,1.15-3.37,0.67s-1.91-1.61-1.91-2.86V609.6
				c0-13.98,8.66-25.58,22.06-29.55c13.4-3.97,26.98,1.04,34.6,12.76l102.14,157.25c0.77,1.19,0.64,2.74-0.32,3.78
				C2267.83,754.49,2267.01,754.84,2266.17,754.84z M2141.06,584.91c-2.4,0-4.84,0.35-7.28,1.07
				c-10.71,3.17-17.64,12.45-17.64,23.62v134.69l33.13-33.13v-62.47c0-1.37,0.9-2.57,2.21-2.96c1.31-0.39,2.72,0.13,3.47,1.28
				l40.98,63.09l61.02,33.13l-95.51-147.04l0,0C2156.73,588.94,2149.18,584.91,2141.06,584.91z"/>
		</g>
		<g>
			<polygon points="3261.25,484.43 3261.25,925.54 3300.55,886.23 3300.55,523.74 			"/>
			<path class="st0" d="M3261.25,928.63c-0.4,0-0.8-0.08-1.18-0.23c-1.15-0.48-1.91-1.61-1.91-2.86V484.43
				c0-1.25,0.75-2.38,1.91-2.86c1.15-0.48,2.48-0.21,3.37,0.67l39.31,39.31c0.58,0.58,0.9,1.37,0.9,2.19v362.49
				c0,0.82-0.33,1.61-0.9,2.19l-39.31,39.31C3262.84,928.32,3262.05,928.63,3261.25,928.63z M3264.34,491.89v426.19l33.13-33.13
				V525.02L3264.34,491.89z"/>
		</g>
		<g>
			<path d="M3828.94,677.16l-112.39-173.03c-7.98-12.29-21.64-19.7-36.29-19.7l-419.01,0l39.31,39.31h367.58
				c8.9,0,17.19,4.5,22.04,11.96l97.9,150.72c5.65,8.71,5.65,19.92,0,28.63l-103.42,159.22c-4.85,7.46-13.14,11.96-22.04,11.96
				h-362.06l-39.31,39.31h171.98h15.48h28.99h131.34h65.69c14.65,0,28.31-7.41,36.29-19.7l117.92-181.54
				C3838.25,709.97,3838.25,691.5,3828.94,677.16z"/>
			<path class="st0" d="M3674.73,928.63h-413.48c-1.25,0-2.38-0.75-2.86-1.91c-0.48-1.15-0.21-2.48,0.67-3.37l39.31-39.31
				c0.58-0.58,1.37-0.9,2.19-0.9h362.06c7.88,0,15.15-3.95,19.45-10.56l103.42-159.22c4.98-7.67,4.98-17.59,0-25.26l-97.9-150.72
				c-4.29-6.61-11.56-10.56-19.45-10.56h-367.58c-0.82,0-1.61-0.33-2.19-0.9l-39.31-39.31c-0.88-0.88-1.15-2.21-0.67-3.37
				c0.48-1.15,1.6-1.91,2.86-1.91h419.01c15.76,0,30.29,7.89,38.88,21.11l112.39,173.03c9.96,15.34,9.96,35.17,0,50.51
				l-117.92,181.54C3705.02,920.74,3690.49,928.63,3674.73,928.63z M3268.71,922.45h406.02c13.66,0,26.25-6.84,33.69-18.29
				l117.92-181.54c8.64-13.3,8.64-30.48,0-43.77l-112.39-173.03c-7.44-11.45-20.04-18.29-33.69-18.29h-411.55l33.13,33.13h366.31
				c9.98,0,19.19,5,24.63,13.37l97.9,150.72c6.31,9.72,6.31,22.28,0,32l-103.42,159.22c-5.44,8.37-14.65,13.37-24.63,13.37h-360.78
				L3268.71,922.45z"/>
		</g>
		<g>
			<polygon points="3409.4,575.31 3409.4,826.32 3448.71,787.01 3448.71,614.62 			"/>
			<path class="st0" d="M3409.4,829.41c-0.4,0-0.8-0.08-1.18-0.24c-1.15-0.48-1.91-1.61-1.91-2.86V575.31
				c0-1.25,0.75-2.38,1.91-2.86c1.15-0.48,2.48-0.21,3.37,0.67l39.31,39.31c0.58,0.58,0.91,1.37,0.91,2.19v172.39
				c0,0.82-0.33,1.61-0.91,2.19l-39.31,39.31C3410.99,829.09,3410.2,829.41,3409.4,829.41z M3412.49,582.77v236.09l33.13-33.13
				V615.9L3412.49,582.77z"/>
		</g>
		<g>
			<polygon points="2152.35,849.84 2113.05,762.17 2144.46,810.53 			"/>
			<path class="st0" d="M2152.35,852.93c-1.19,0-2.31-0.69-2.82-1.83l-39.31-87.66c-0.66-1.47-0.08-3.21,1.34-3.98
				c1.42-0.77,3.19-0.32,4.07,1.03l31.41,48.35c0.21,0.33,0.36,0.69,0.44,1.07l7.9,39.31c0.31,1.54-0.59,3.07-2.09,3.55
				C2152.98,852.88,2152.67,852.93,2152.35,852.93z M2132.2,797.33l11.7,26.08l-2.35-11.7L2132.2,797.33z"/>
		</g>
		<g>
			<path d="M534.71,525.06v59.35c1.5-14.31,24.79-52.59,24.79-52.59v-47.39L534.71,525.06z"/>
			<path class="st0" d="M534.71,587.5c-0.05,0-0.11,0-0.16,0c-1.64-0.09-2.93-1.44-2.93-3.09v-59.35c0-0.57,0.16-1.12,0.45-1.61
				l24.79-40.63c0.72-1.18,2.14-1.74,3.47-1.37c1.33,0.37,2.25,1.59,2.25,2.97v47.39c0,0.57-0.16,1.12-0.45,1.61
				c-6.38,10.48-23.19,40.13-24.36,51.3C537.61,586.31,536.28,587.5,534.71,587.5z M537.8,525.93v39.81
				c6.59-14.58,16.35-31.01,18.61-34.78v-35.53L537.8,525.93z"/>
		</g>
		<g>
			<polygon points="386.11,604.07 202.83,886.23 224.17,925.54 407.45,643.38 			"/>
			<path class="st0" d="M224.17,928.63c-0.04,0-0.08,0-0.12,0c-1.09-0.04-2.07-0.66-2.59-1.61l-21.34-39.31
				c-0.54-1-0.49-2.21,0.12-3.16l183.28-282.16c0.59-0.91,1.63-1.44,2.71-1.4c1.09,0.04,2.07,0.66,2.59,1.61l21.34,39.31
				c0.54,1,0.49,2.21-0.12,3.16L226.76,927.22C226.19,928.1,225.21,928.63,224.17,928.63z M206.42,886.38l17.98,33.13l179.45-276.27
				l-17.98-33.13L206.42,886.38z"/>
		</g>
		<g>
			<polygon points="386.11,604.07 407.45,643.38 442.99,643.38 515.4,604.07 			"/>
			<path class="st0" d="M442.99,646.47h-35.54c-1.13,0-2.18-0.62-2.72-1.62l-21.34-39.31c-0.52-0.96-0.5-2.12,0.06-3.05
				c0.56-0.94,1.57-1.51,2.66-1.51H515.4c1.41,0,2.65,0.96,3,2.33c0.35,1.37-0.28,2.8-1.52,3.48l-72.4,39.31
				C444.01,646.34,443.51,646.47,442.99,646.47z M409.29,640.29h32.92l61.02-33.13H391.3L409.29,640.29z"/>
		</g>
		<g>
			<path d="M677.35,602.19c-14.22-0.03-28.01,4.92-38.96,13.99l-0.28,0.23c-4.92,4.07-9.13,8.8-12.56,14.08
				c-28.59,44.03-166.11,255.74-166.11,255.74l21.34,39.31l165.23-254.37l39.31-68.96L677.35,602.19z"/>
			<path class="st0" d="M480.79,928.63c-0.04,0-0.08,0-0.12,0c-1.09-0.04-2.07-0.66-2.59-1.61l-21.34-39.31
				c-0.54-1-0.49-2.21,0.12-3.16c0,0,137.52-211.71,166.11-255.74c3.6-5.55,8.04-10.52,13.18-14.78l0.28-0.23
				c11.44-9.48,25.93-14.7,40.79-14.7c0.05,0,0.1,0,0.15,0l7.98,0.02c1.1,0,2.12,0.59,2.67,1.54c0.55,0.95,0.56,2.12,0.01,3.08
				L648.7,672.7c-0.03,0.05-0.06,0.1-0.09,0.15L483.38,927.22C482.81,928.1,481.83,928.63,480.79,928.63z M463.04,886.38
				l17.98,33.13l162.35-249.94l36.64-64.28l-2.67-0.01h0c-0.05,0-0.09,0-0.14,0c-13.42,0-26.5,4.71-36.84,13.28l-0.28,0.23
				c-4.66,3.86-8.67,8.36-11.93,13.39C600.99,674,475.53,867.15,463.04,886.38z"/>
		</g>
		<g>
			<polygon points="800.17,886.23 685.32,886.23 646.02,925.54 839.47,925.54 			"/>
			<path class="st0" d="M839.47,928.63H646.02c-1.25,0-2.38-0.75-2.85-1.91c-0.48-1.15-0.21-2.48,0.67-3.37l39.31-39.31
				c0.58-0.58,1.37-0.9,2.18-0.9h114.84c0.82,0,1.61,0.33,2.19,0.9l39.31,39.31c0.88,0.88,1.15,2.21,0.67,3.37
				C841.85,927.88,840.72,928.63,839.47,928.63z M653.48,922.45h178.54l-33.13-33.13H686.6L653.48,922.45z"/>
		</g>
		<g>
			<polygon points="646.02,671.17 646.02,925.54 685.32,886.23 685.32,602.21 			"/>
			<path class="st0" d="M646.02,928.63c-0.4,0-0.8-0.08-1.18-0.23c-1.15-0.48-1.91-1.61-1.91-2.86V671.17
				c0-0.54,0.14-1.06,0.41-1.53l39.31-68.96c0.69-1.22,2.12-1.82,3.48-1.46c1.36,0.36,2.3,1.59,2.3,2.99v284.03
				c0,0.82-0.33,1.61-0.91,2.19l-39.31,39.31C647.61,928.32,646.82,928.63,646.02,928.63z M649.11,671.99v246.09l33.13-33.13V613.87
				L649.11,671.99z"/>
		</g>
		<g>
			<polygon points="459.45,886.23 332.12,886.23 259.71,925.54 480.79,925.54 			"/>
			<path class="st0" d="M480.79,928.63H259.71c-1.41,0-2.65-0.96-3-2.33c-0.35-1.37,0.28-2.8,1.52-3.48l72.4-39.31
				c0.45-0.25,0.96-0.37,1.47-0.37h127.33c1.13,0,2.18,0.62,2.72,1.62l21.34,39.31c0.52,0.96,0.5,2.12-0.06,3.05
				C482.89,928.06,481.88,928.63,480.79,928.63z M271.88,922.45h203.72l-17.98-33.13H332.9L271.88,922.45z"/>
		</g>
		<g>
			<polygon points="442.99,643.38 259.71,925.54 332.12,886.23 515.4,604.07 			"/>
			<path class="st0" d="M259.71,928.63c-0.84,0-1.67-0.34-2.27-0.99c-0.96-1.04-1.09-2.59-0.32-3.78L440.4,641.69
				c0.28-0.43,0.66-0.79,1.12-1.03l72.4-39.31c1.24-0.67,2.78-0.42,3.74,0.62c0.96,1.04,1.09,2.59,0.32,3.78L334.71,887.92
				c-0.28,0.43-0.66,0.79-1.12,1.03l-72.4,39.31C260.72,928.51,260.21,928.63,259.71,928.63z M445.16,645.72l-176.23,271.3
				l61.02-33.13l176.23-271.3L445.16,645.72z"/>
		</g>
		<g>
			<polygon points="202.83,886.23 75.5,886.23 3.09,925.54 224.17,925.54 			"/>
			<path class="st0" d="M224.17,928.63H3.09c-1.41,0-2.65-0.96-3-2.33c-0.35-1.37,0.28-2.8,1.52-3.48l72.4-39.31
				c0.45-0.25,0.96-0.37,1.47-0.37h127.33c1.13,0,2.18,0.62,2.72,1.62l21.34,39.31c0.52,0.96,0.5,2.12-0.06,3.05
				C226.27,928.06,225.26,928.63,224.17,928.63z M15.26,922.45h203.72l-17.98-33.13H76.28L15.26,922.45z"/>
		</g>
		<g>
			<path d="M313.11,484.43c-14.65,0-28.31,7.41-36.29,19.7L3.09,925.54l72.4-39.31l227.63-350.45c4.88-7.51,13.24-12.02,22.19-11.96
				l209.38,1.24l24.79-40.63H313.11z"/>
			<path class="st0" d="M3.09,928.63c-0.84,0-1.67-0.34-2.27-0.99c-0.96-1.04-1.09-2.59-0.32-3.78l273.73-421.41
				c8.58-13.22,23.12-21.11,38.88-21.11H559.5c1.12,0,2.15,0.6,2.69,1.58c0.55,0.97,0.53,2.17-0.06,3.12l-24.79,40.63
				c-0.56,0.92-1.56,1.48-2.64,1.48c-0.01,0-0.01,0-0.02,0l-209.38-1.24c-0.05,0-0.09,0-0.14,0c-7.88,0-15.14,3.94-19.44,10.56
				L78.09,887.92c-0.28,0.43-0.66,0.79-1.12,1.03l-72.4,39.31C4.1,928.51,3.59,928.63,3.09,928.63z M313.11,487.52
				c-13.66,0-26.25,6.84-33.69,18.29L12.31,917.02l61.02-33.13L300.54,534.1c5.44-8.38,14.64-13.37,24.62-13.37
				c0.06,0,0.12,0,0.18,0l207.64,1.23l21.01-34.44H313.11z"/>
		</g>
		<g>
			<path d="M3665.51,699.47c0,0,0-0.01,0-0.01c-0.02-0.43-0.05-0.86-0.1-1.29c0-0.02,0-0.05-0.01-0.07
				c-0.04-0.43-0.1-0.85-0.16-1.28c0-0.03-0.01-0.07-0.02-0.1c-0.13-0.85-0.31-1.7-0.52-2.54c-0.01-0.02-0.01-0.04-0.01-0.06l0,0
				c-0.46-1.78-1.11-3.52-1.95-5.19c-0.43-0.86-0.91-1.69-1.44-2.51l-64.4-99.14c-4.85-7.46-13.14-11.96-22.04-11.96v0H3409.4
				l39.31,39.31h119.08l50.23,77.32c1.87,2.87,2.72,6.19,2.58,9.48c-0.01,0.34-0.04,0.69-0.08,1.03c0,0.02,0,0.04-0.01,0.06
				c-0.04,0.33-0.08,0.65-0.14,0.97c-0.01,0.04-0.01,0.08-0.02,0.12c-0.05,0.3-0.12,0.6-0.19,0.9c-0.02,0.07-0.04,0.14-0.05,0.21
				c-0.07,0.27-0.14,0.55-0.23,0.82c-0.03,0.1-0.07,0.2-0.1,0.3c-0.08,0.24-0.16,0.48-0.25,0.72c-0.05,0.14-0.11,0.27-0.17,0.41
				c-0.08,0.2-0.17,0.4-0.26,0.6c-0.09,0.19-0.18,0.37-0.28,0.56c-0.08,0.15-0.14,0.29-0.22,0.44c-0.18,0.33-0.37,0.65-0.58,0.97
				c0,0,0,0.01-0.01,0.01l-5.57,8.58l-2.65,4.09l-42.1,64.82h-118.97l-39.31,39.31h165.35c4.87,0,9.56-1.35,13.6-3.8c0,0,0,0,0.01,0
				c0.47-0.29,0.94-0.59,1.39-0.9c0.01,0,0.01-0.01,0.02-0.01c0.45-0.31,0.89-0.64,1.32-0.98c0.01-0.01,0.02-0.02,0.04-0.03
				c0.42-0.34,0.84-0.69,1.24-1.05c0.02-0.01,0.03-0.03,0.05-0.04c0.4-0.36,0.79-0.73,1.16-1.12c0.02-0.02,0.03-0.03,0.05-0.05
				c0.37-0.39,0.74-0.79,1.09-1.2c0.02-0.02,0.03-0.04,0.05-0.05c0.35-0.42,0.7-0.85,1.03-1.29c0.01-0.01,0.02-0.03,0.03-0.04
				c0.34-0.45,0.66-0.92,0.97-1.4l51.3-78.97l13.21-20.34c0.23-0.35,0.44-0.71,0.65-1.07c0.05-0.08,0.09-0.15,0.13-0.23
				c0.2-0.35,0.39-0.71,0.58-1.07c0.03-0.06,0.06-0.12,0.09-0.17c0.17-0.33,0.33-0.67,0.48-1c0.03-0.06,0.06-0.12,0.08-0.18
				c0.16-0.37,0.32-0.74,0.46-1.12c0.03-0.08,0.06-0.15,0.09-0.23c0.29-0.77,0.54-1.56,0.76-2.35c0.02-0.07,0.04-0.14,0.06-0.22
				c0.1-0.39,0.2-0.79,0.28-1.19c0.01-0.04,0.01-0.08,0.02-0.12c0.08-0.39,0.15-0.77,0.21-1.16c0.01-0.05,0.02-0.09,0.02-0.14
				c0.06-0.41,0.12-0.82,0.16-1.23c0.01-0.06,0.01-0.11,0.02-0.17c0.09-0.84,0.13-1.68,0.14-2.52c0-0.05,0-0.1,0-0.15
				C3665.54,700.32,3665.53,699.9,3665.51,699.47z"/>
			<path class="st0" d="M3574.75,829.41H3409.4c-1.25,0-2.38-0.75-2.86-1.91c-0.48-1.15-0.21-2.48,0.67-3.37l39.31-39.31
				c0.58-0.58,1.37-0.9,2.19-0.9H3566l49.39-76.04c0.02-0.03,0.04-0.06,0.05-0.08c0.15-0.23,0.3-0.49,0.45-0.75l0.24-0.46
				c0.06-0.11,0.12-0.23,0.17-0.34c0.06-0.13,0.12-0.26,0.17-0.4l0.18-0.42c0.07-0.19,0.14-0.38,0.2-0.57
				c0-0.01,0.04-0.11,0.04-0.12l0.04-0.12c0.07-0.22,0.13-0.44,0.18-0.66l3.05,0.55l-3.01-0.72c0.06-0.24,0.11-0.48,0.15-0.73
				l3.06,0.42l-3.05-0.52c0.04-0.26,0.08-0.52,0.11-0.79c0.03-0.32,0.06-0.6,0.07-0.88c0.12-2.74-0.6-5.39-2.08-7.67l-49.31-75.92
				h-117.4c-0.82,0-1.61-0.33-2.19-0.9l-39.31-39.31c-0.88-0.88-1.15-2.21-0.67-3.37c0.48-1.15,1.61-1.91,2.86-1.91h165.46
				c9.98,0,19.19,5,24.63,13.37l64.4,99.14c0.59,0.9,1.13,1.84,1.61,2.8c0.93,1.84,1.66,3.79,2.18,5.81
				c0.01,0.04,0.02,0.08,0.03,0.12c0.23,0.88,0.42,1.83,0.57,2.78c0,0,0.02,0.1,0.02,0.11c0.07,0.47,0.13,0.95,0.18,1.43
				c0,0.02,0.01,0.11,0.01,0.13c0.04,0.44,0.08,0.92,0.1,1.4c0,0.01,0,0.02,0,0.03c0.02,0.47,0.03,0.94,0.03,1.41
				c0,0.01,0,0.16,0,0.17c-0.01,0.93-0.06,1.88-0.15,2.81l-0.02,0.2c-0.05,0.44-0.11,0.9-0.18,1.36c0,0.01-0.02,0.09-0.02,0.11
				c-0.08,0.48-0.16,0.91-0.25,1.34c0,0-0.02,0.12-0.03,0.13c-0.1,0.45-0.2,0.89-0.32,1.33l-0.06,0.24
				c-0.24,0.89-0.53,1.77-0.85,2.63l-0.1,0.25c-0.16,0.42-0.33,0.83-0.51,1.25l-0.07,0.15c-0.19,0.42-0.37,0.8-0.56,1.17l-0.09,0.18
				c-0.21,0.42-0.43,0.81-0.65,1.2l-0.13,0.23c-0.25,0.43-0.5,0.83-0.75,1.23l-64.5,99.31c-0.35,0.53-0.71,1.05-1.09,1.56
				c-0.01,0.02-0.06,0.07-0.07,0.09c-0.33,0.45-0.72,0.93-1.11,1.39c-0.44,0.52-0.85,0.97-1.27,1.4c-0.48,0.49-0.91,0.91-1.36,1.31
				c-0.01,0.01-0.07,0.07-0.09,0.08c-0.41,0.37-0.88,0.77-1.35,1.14c-0.52,0.41-1.01,0.78-1.51,1.12c-0.52,0.36-1.02,0.69-1.54,1
				c-0.01,0.01-0.03,0.02-0.04,0.03C3585.37,827.94,3580.11,829.41,3574.75,829.41z M3416.86,823.23h157.89
				c4.22,0,8.35-1.15,11.97-3.33c0.01-0.01,0.03-0.02,0.04-0.02c0.42-0.25,0.82-0.52,1.23-0.79c0.41-0.29,0.8-0.58,1.18-0.88
				c0.4-0.32,0.77-0.63,1.12-0.95c0.39-0.36,0.73-0.69,1.07-1.03c0.38-0.39,0.7-0.74,1.01-1.1c0.35-0.42,0.66-0.79,0.95-1.18
				c0.33-0.44,0.61-0.85,0.89-1.27l64.51-99.31c0.2-0.31,0.39-0.62,0.58-0.94l0.13-0.22c0.17-0.3,0.34-0.61,0.5-0.93l0.08-0.16
				c0.14-0.29,0.28-0.58,0.42-0.88c0,0,0.07-0.16,0.07-0.16c0.14-0.32,0.28-0.65,0.4-0.98l0.07-0.19c0.26-0.69,0.48-1.38,0.67-2.08
				l0.05-0.19c0.09-0.35,0.18-0.7,0.25-1.05c0,0,0.02-0.1,0.02-0.1c0.07-0.34,0.13-0.68,0.19-1.02l3.07,0.36l-3.05-0.48
				c0.06-0.36,0.1-0.72,0.14-1.08l3.08,0.23l-3.07-0.39c0.08-0.73,0.12-1.48,0.12-2.21l3.09-0.13l-3.09,0
				c0-0.37-0.01-0.75-0.03-1.12c0-0.01,0-0.02,0-0.03c-0.02-0.38-0.05-0.75-0.08-1.12c-0.04-0.44-0.09-0.82-0.15-1.19
				c0,0-0.02-0.1-0.02-0.1c-0.11-0.74-0.27-1.49-0.46-2.22c-0.01-0.03-0.02-0.1-0.03-0.13c-0.4-1.52-0.98-3.06-1.7-4.51
				c-0.38-0.76-0.81-1.5-1.27-2.22l-64.4-99.15c-4.29-6.61-11.56-10.56-19.45-10.56h-158l33.13,33.13h117.8
				c1.05,0,2.02,0.53,2.59,1.41l50.23,77.32c2.18,3.36,3.25,7.27,3.08,11.29c-0.02,0.41-0.05,0.81-0.09,1.22
				c0,0.03-0.01,0.11-0.02,0.13c-0.03,0.32-0.09,0.71-0.15,1.09c0,0.01-0.02,0.09-0.02,0.1c-0.07,0.41-0.15,0.76-0.23,1.12
				l-0.05,0.2c-0.09,0.37-0.18,0.7-0.28,1.02l-0.1,0.29c-0.12,0.35-0.22,0.64-0.33,0.92c-0.05,0.12-0.1,0.25-0.15,0.38l-0.05,0.11
				c-0.12,0.29-0.21,0.51-0.31,0.72c-0.09,0.19-0.19,0.38-0.28,0.57l-0.11,0.22c-0.07,0.13-0.14,0.27-0.21,0.4
				c-0.21,0.37-0.43,0.74-0.66,1.1c-0.01,0.02-0.02,0.04-0.04,0.06l-50.33,77.49c-0.57,0.88-1.54,1.41-2.59,1.41h-117.69
				L3416.86,823.23z M3668.6,699.47h0.01H3668.6z"/>
		</g>
	</g>
</g>
</svg>
