<?xml version="1.0" encoding="utf-8"?>
<!-- Generator: Adobe Illustrator 25.1.0, SVG Export Plug-In . SVG Version: 6.00 Build 0)  -->
<svg version="1.1" id="Layer_1" xmlns="http://www.w3.org/2000/svg" xmlns:xlink="http://www.w3.org/1999/xlink" x="0px" y="0px"
	 viewBox="0 0 3846.2 812.8" style="enable-background:new 0 0 3846.2 812.8;" xml:space="preserve">
<style type="text/css">
	.st0{fill:#0C0002;}
	.st1{fill:#FFFFFF;}
	.st2{fill:#FFFFFF;stroke:#000000;stroke-width:6.1889;stroke-linecap:round;stroke-linejoin:round;stroke-miterlimit:10;}
	.st3{fill:#FFFFFF;stroke:#000000;stroke-width:6.1889;stroke-miterlimit:10;}
	.st4{fill:#F3FFFD;}
	.st5{stroke:#FFFFFF;stroke-width:6.1889;stroke-miterlimit:10;}
</style>
<g>
	<polygon points="243.5,778.7 34.1,663 34.1,440 243.5,324.2 1353.5,324.2 1531.2,34.1 2315,34.1 2492.7,324.2 3602.7,324.2 
		3812.1,440 3812.1,663 3602.7,778.7 	"/>
	<polygon class="st1" points="244.6,774.3 38.6,660.3 38.6,442.6 244.6,328.6 1356,328.6 1533.7,38.6 2312.5,38.6 2490.2,328.6 
		3601.6,328.6 3807.6,442.6 3807.6,660.3 3601.6,774.3 	"/>
	<polygon points="245.8,769.8 43,657.7 43,445.2 245.8,333.1 1358.5,333.1 1536.2,43 2310,43 2487.7,333.1 3600.4,333.1 
		3803.2,445.2 3803.2,657.7 3600.4,769.8 	"/>
	<g>
		<g>
			<g>
				<polygon class="st2" points="2870.2,381 2891.4,400.3 3008.9,400.3 3030.1,381 				"/>
				<polygon class="st2" points="3008.9,702.6 2891.4,702.6 2870.2,721.9 3030.1,721.9 				"/>
				<polygon class="st2" points="2870.2,381 2870.2,721.9 2891.4,702.6 2891.4,400.3 				"/>
				<polygon class="st2" points="3008.9,400.3 3008.9,702.6 3030.1,721.9 3030.1,381 				"/>
			</g>
			<rect x="2891.4" y="400.3" class="st2" width="117.4" height="302.4"/>
		</g>
		<g>
			<g>
				<polygon class="st2" points="1637.3,381 1637.3,478.7 1658.6,511.9 1658.6,400.3 				"/>
				<polygon class="st2" points="1637.3,381 1658.6,400.3 1776,400.3 1797.3,381 				"/>
				<polygon class="st2" points="1776,400.3 1776,702.6 1797.3,721.9 1797.3,381 				"/>
				<polygon class="st2" points="1776,702.6 1658.6,702.6 1637.3,721.9 1797.3,721.9 				"/>
				<polygon class="st2" points="1427,456.9 1427,702.6 1448.2,721.9 1448.2,490.1 				"/>
				<polygon class="st2" points="1427,702.6 1309.5,702.6 1288.3,721.9 1448.2,721.9 				"/>
				<polygon class="st2" points="1288.3,381 1288.3,721.9 1309.5,702.6 1309.5,400.3 				"/>
				<polygon class="st2" points="1427,456.9 1448.2,490.1 1637.3,587.3 1658.6,576.1 				"/>
				<polygon class="st2" points="1637.3,587.3 1637.3,721.9 1658.6,702.6 1658.6,576.1 				"/>
				<polygon class="st2" points="1637.3,478.7 1447.2,381 1441.6,400.3 1658.6,511.9 				"/>
				<polygon class="st2" points="1288.3,381 1309.5,400.3 1441.6,400.3 1447.2,381 				"/>
			</g>
			<polygon class="st2" points="1658.6,400.3 1658.6,511.9 1441.6,400.3 1309.5,400.3 1309.5,702.6 1427,702.6 1427,456.9 
				1658.6,576.1 1658.6,702.6 1776,702.6 1776,400.3 			"/>
		</g>
		<g>
			<polygon class="st2" points="3568.2,525.4 3219.1,525.4 3219.1,447.1 3477.1,447.1 3568.2,400.3 3219.1,400.3 3101.7,460.7 
				3101.7,572.3 3450.8,572.3 3450.8,655.8 3192.8,655.8 3101.7,702.6 3450.8,702.6 3568.2,642.2 			"/>
			<g>
				<path class="st2" d="M3599.4,406.4l29.6-15.2c5.4-2.8,3.2-10.2-3-10.2h-19.2"/>
				<path class="st2" d="M3070.1,696.7l-29.2,15c-5.4,2.8-3.2,10.2,3,10.2h29"/>
				<g>
					<polygon class="st2" points="3213.5,381 3080.4,449.4 3101.7,460.7 3219.1,400.3 					"/>
					<polygon class="st2" points="3240.4,506.1 3219.1,525.4 3568.2,525.4 3589.5,506.1 					"/>
					<polygon class="st2" points="3568.2,525.4 3568.2,642.2 3589.4,653.5 3589.5,506.1 					"/>
					<polygon class="st2" points="3568.2,642.2 3450.8,702.6 3456.4,721.9 3589.4,653.5 					"/>
					<polygon class="st2" points="3101.7,572.3 3080.4,591.6 3429.5,591.6 3450.8,572.3 					"/>
					<polygon class="st2" points="3080.4,449.4 3080.4,484.5 3080.4,494 3080.4,591.6 3101.7,572.3 3101.7,492.3 3101.7,485.4 
						3101.7,460.7 					"/>
					<polygon class="st2" points="3429.5,591.6 3429.5,636.5 3450.8,655.8 3450.8,572.3 					"/>
					<polygon class="st2" points="3429.5,636.5 3187.2,636.5 3192.8,655.8 3450.8,655.8 					"/>
					<polygon class="st2" points="3219.1,447.1 3219.1,525.4 3240.4,506.1 3240.4,466.4 					"/>
					<polygon class="st2" points="3477.1,447.1 3219.1,447.1 3240.4,466.4 3482.7,466.4 					"/>
					<path class="st2" d="M3213.5,381l5.6,19.3h349l58.3-13.9c3.4-0.8,2.8-5.4-0.8-5.4H3213.5z"/>
					<path class="st2" d="M3568.2,400.3l-91.1,46.9l5.6,19.3l146-75.1c3.1-1.6,1.2-5.8-2.2-5L3568.2,400.3z"/>
					<path class="st2" d="M3450.8,702.6h-348.7c-0.3,0-0.5,0-0.8,0.1l-57.9,13.8c-3.4,0.8-2.8,5.4,0.8,5.4h412.1L3450.8,702.6z"/>
					<path class="st2" d="M3187.2,636.5l-146,75.1c-3.1,1.6-1.2,5.8,2.2,5l57.9-13.8c0.2-0.1,0.5-0.1,0.7-0.3l90.8-46.7
						L3187.2,636.5z"/>
				</g>
			</g>
		</g>
		<g>
			<polygon class="st2" points="2798.6,525.4 2449.6,525.4 2449.6,447.1 2707.5,447.1 2798.6,400.3 2449.6,400.3 2332.2,460.7 
				2332.2,572.3 2681.2,572.3 2681.2,603.8 2681.2,655.8 2423.3,655.8 2332.2,702.6 2681.2,702.6 2798.6,642.2 			"/>
			<path class="st2" d="M2837.8,402.3l21.7-11.2c5.4-2.8,3.2-10.2-3-10.2h-13.6"/>
			<polygon class="st2" points="2444,381 2310.9,449.4 2332.2,460.7 2449.6,400.3 			"/>
			<polygon class="st2" points="2470.8,506.1 2449.6,525.4 2798.6,525.4 2819.9,506.1 			"/>
			<polygon class="st2" points="2798.6,525.4 2798.6,642.2 2819.9,653.5 2819.9,506.1 			"/>
			<polygon class="st2" points="2798.6,642.2 2681.2,702.6 2686.8,721.9 2819.9,653.5 			"/>
			<polygon class="st2" points="2332.2,572.3 2310.9,591.6 2659.9,591.6 2681.2,572.3 			"/>
			<polygon class="st2" points="2332.2,460.7 2310.9,449.4 2310.9,485.4 2310.9,591.6 2332.2,572.3 2332.2,481.7 			"/>
			<polygon class="st2" points="2659.9,591.6 2659.9,636.5 2681.2,655.8 2681.2,572.3 			"/>
			<polygon class="st2" points="2659.9,636.5 2417.7,636.5 2423.3,655.8 2681.2,655.8 			"/>
			<polygon class="st2" points="2449.6,447.1 2449.6,525.4 2470.8,506.1 2470.8,466.4 			"/>
			<polygon class="st2" points="2707.5,447.1 2449.6,447.1 2470.8,466.4 2713.1,466.4 			"/>
			<path class="st2" d="M2798.6,400.3l-91.1,46.9l5.6,19.3l146-75.1c3.1-1.6,1.2-5.8-2.2-5L2798.6,400.3z"/>
			<path class="st2" d="M2444,381l5.6,19.3h348.7c0.3,0,0.5,0,0.8-0.1l57.9-13.8c3.4-0.8,2.8-5.4-0.8-5.4H2444z"/>
			<path class="st2" d="M2311.7,691l-40.4,20.8c-5.4,2.8-3.2,10.2,3,10.2h44.1"/>
			<path class="st2" d="M2681.2,702.6h-349l-58.3,13.9c-3.4,0.8-2.8,5.4,0.8,5.4h412.1L2681.2,702.6z"/>
			<path class="st2" d="M2417.7,636.5l-146,75.1c-3.1,1.6-1.2,5.8,2.2,5l57.9-13.8c0.2-0.1,0.5-0.1,0.7-0.3l90.8-46.7L2417.7,636.5z
				"/>
		</g>
		<g>
			<polygon class="st2" points="2182.8,447.1 1980.8,447.1 2002.1,466.4 2188.4,466.4 			"/>
			<polygon class="st2" points="1980.8,572.3 1980.8,655.8 2002.1,636.5 2002.1,591.6 			"/>
			<polygon class="st2" points="2117.6,572.3 1980.8,572.3 2002.1,591.6 2123.2,591.6 			"/>
			<polygon class="st2" points="1980.8,447.1 1980.8,480.6 1980.8,486.9 1980.8,525.4 2002.1,506.1 2002.1,485.7 2002.1,480.6 
				2002.1,466.4 			"/>
			<polygon class="st2" points="2182.8,702.6 1863.4,702.6 1842.1,721.9 2188.4,721.9 			"/>
			<polygon class="st2" points="1842.1,449.4 1842.1,721.9 1863.4,702.6 1863.4,460.7 			"/>
			<polygon class="st2" points="1975.2,381 1842.1,449.4 1863.4,460.7 1980.8,400.3 			"/>
			<polygon class="st2" points="1980.8,572.3 2117.6,572.3 2208.7,525.4 1980.8,525.4 1980.8,447.1 2182.8,447.1 2274,400.3 
				1980.8,400.3 1863.4,460.7 1863.4,702.6 1963.7,702.6 1980.8,702.6 2182.8,702.6 2274,655.8 1980.8,655.8 			"/>
			<path class="st2" d="M2302.7,407.7l32.1-16.5c5.4-2.8,3.2-10.2-3-10.2h-26.2"/>
			<path class="st2" d="M1975.2,381l5.6,19.3H2274l58.3-13.9c3.4-0.8,2.8-5.4-0.8-5.4H1975.2z"/>
			<path class="st2" d="M2274,400.3l-91.1,46.9l5.6,19.3l146-75.1c3.1-1.6,1.2-5.8-2.2-5L2274,400.3z"/>
			<path class="st2" d="M2248.7,527l20.9-10.7c5.4-2.8,3.2-10.2-3-10.2h-34.1"/>
			<path class="st2" d="M2002.1,506.1l-21.3,19.3h227.9l58.3-13.9c3.4-0.8,2.8-5.4-0.8-5.4H2002.1z"/>
			<path class="st2" d="M2208.7,525.4l-91.1,46.9l5.6,19.3l146-75.1c3.1-1.6,1.2-5.8-2.2-5L2208.7,525.4z"/>
			<path class="st2" d="M2312.4,658.2l22.4-11.5c5.4-2.8,3.2-10.2-3-10.2h-8.9"/>
			<path class="st2" d="M2274,655.8l-91.1,46.9l5.6,19.3l146-75.1c3.1-1.6,1.2-5.8-2.2-5L2274,655.8z"/>
			<path class="st2" d="M2002.1,636.5l-21.3,19.3l292.8,0c0.3,0,0.5,0,0.8-0.1l57.9-13.8c3.4-0.8,2.8-5.4-0.8-5.4H2002.1z"/>
		</g>
		<g>
			<polygon class="st2" points="767.8,449.4 767.8,721.9 789.1,702.6 789.1,460.7 			"/>
			<polygon class="st2" points="906.5,572.3 906.5,655.8 927.8,636.5 927.8,591.6 			"/>
			<polygon class="st2" points="906.5,447.1 906.5,525.4 927.8,506.1 927.8,466.4 			"/>
			<polygon class="st2" points="1108.5,447.1 906.5,447.1 927.8,466.4 1114.1,466.4 			"/>
			<polygon class="st2" points="1043.3,572.3 906.5,572.3 927.8,591.6 1048.9,591.6 			"/>
			<polygon class="st2" points="1108.5,702.6 789.1,702.6 767.8,721.9 1114.1,721.9 			"/>
			<polygon class="st2" points="789.1,460.7 906.5,400.3 900.9,381 767.8,449.4 			"/>
			<polygon class="st2" points="906.5,572.3 1043.3,572.3 1134.4,525.4 906.5,525.4 906.5,447.1 1108.5,447.1 1199.7,400.3 
				906.5,400.3 789.1,460.7 789.1,702.6 889.4,702.6 906.5,702.6 1108.5,702.6 1199.7,655.8 906.5,655.8 			"/>
			<path class="st2" d="M1163.3,532.7l32-16.4c5.4-2.8,3.2-10.2-3-10.2h-36.4"/>
			<path class="st2" d="M927.8,506.1l-21.3,19.3h227.9l58.3-13.9c3.4-0.8,2.8-5.4-0.8-5.4H927.8z"/>
			<path class="st2" d="M1134.4,525.4l-91.1,46.9l5.6,19.3l146-75.1c3.1-1.6,1.2-5.8-2.2-5L1134.4,525.4z"/>
			<path class="st2" d="M1234,404.8l26.5-13.6c5.4-2.8,3.2-10.2-3-10.2h-20.3"/>
			<path class="st2" d="M900.9,381l5.6,19.3h293.2l58.3-13.9c3.4-0.8,2.8-5.4-0.8-5.4H900.9z"/>
			<path class="st2" d="M1257.9,386.3l-58.3,13.9l-30.3,15.6l0,0l-3.7,1.9l-11.1,5.7l0,0l-46.1,23.7l5.6,19.3l87-44.8l0,0l59-30.3
				C1263.2,389.8,1261.3,385.5,1257.9,386.3z"/>
			<path class="st2" d="M1241.9,656.2l18.6-9.6c5.4-2.8,3.2-10.2-3-10.2h-17.1"/>
			<path class="st2" d="M927.8,636.5l-21.3,19.3l293.2,0l58.3-13.9c3.4-0.8,2.8-5.4-0.8-5.4H927.8z"/>
			<path class="st2" d="M1199.7,655.8l-91.1,46.9l5.6,19.3l146-75.1c3.1-1.6,1.2-5.8-2.2-5L1199.7,655.8z"/>
		</g>
		<g>
			<polygon class="st2" points="214.1,449.4 214.1,721.9 235.4,702.6 235.4,460.7 			"/>
			<polygon class="st2" points="584.4,702.6 352.8,702.6 352.8,702.6 235.4,702.6 214.1,721.9 352.8,721.9 590,721.9 			"/>
			<polygon class="st2" points="701.9,642.2 584.4,702.6 590,721.9 723.1,653.5 			"/>
			<polygon class="st2" points="701.9,513.3 701.9,642.2 723.1,653.5 723.1,494 			"/>
			<polygon class="st2" points="549.4,494 555,513.3 701.9,513.3 723.1,494 			"/>
			<polygon class="st2" points="563.2,579.5 563.2,636.5 584.4,655.8 584.4,560.2 			"/>
			<polygon class="st2" points="563.2,636.5 374.1,636.5 352.8,655.8 584.4,655.8 			"/>
			<polygon class="st2" points="610.7,447.1 352.8,447.1 374.1,466.4 616.3,466.4 			"/>
			<polygon class="st2" points="352.8,447.1 352.8,533.4 352.8,655.8 374.1,636.5 374.1,466.4 			"/>
			<polygon class="st2" points="347.2,381 214.1,449.4 235.4,460.7 352.8,400.3 			"/>
			<polygon class="st2" points="555,513.3 463.9,560.2 584.4,560.2 584.4,655.8 352.8,655.8 352.8,447.1 610.7,447.1 701.9,400.3 
				352.8,400.3 235.4,460.7 235.4,702.6 352.8,702.6 352.8,702.6 584.4,702.6 701.9,642.2 701.9,513.3 			"/>
			<path class="st2" d="M736.7,404.5l26-13.4c5.4-2.8,3.2-10.2-3-10.2H744"/>
			<path class="st2" d="M347.2,381l5.6,19.3h349l58.3-13.9c3.4-0.8,2.8-5.4-0.8-5.4H347.2z"/>
			<path class="st2" d="M616.3,466.4l74-38l72.1-37.1c3.1-1.6,1.2-5.8-2.2-5l-58.3,13.9l-91.1,46.9L616.3,466.4z"/>
			<path class="st2" d="M430.6,555.2l-27.5,14.1c-5.4,2.8-3.2,10.2,3,10.2h23.8"/>
			<path class="st2" d="M549.4,494l-146,75.1c-3.1,1.6-1.2,5.8,2.2,5l58.3-13.9l91.1-46.9L549.4,494z"/>
			<path class="st2" d="M463.9,560.2l-58.3,13.9c-3.4,0.8-2.8,5.4,0.8,5.4h156.8l21.3-19.3H463.9z"/>
		</g>
	</g>
	<polygon class="st2" points="2332.4,3.1 2510.1,293.2 2492.7,324.2 2315,34.1 	"/>
	<polygon class="st2" points="3610.7,809.7 3843.1,681.2 3812.1,663 3602.7,778.7 	"/>
	<polygon class="st2" points="3.1,421.7 3.1,681.2 34.1,663 34.1,440 	"/>
	<polygon class="st2" points="1353.5,324.2 243.5,324.2 235.5,293.2 1336.1,293.2 	"/>
	<polygon class="st2" points="1336.1,293.2 1513.8,3.1 1531.2,34.1 1353.5,324.2 	"/>
	<polygon class="st2" points="243.5,324.2 34.1,440 3.1,421.7 235.5,293.2 	"/>
	<polygon class="st2" points="3.1,681.2 235.5,809.7 243.5,778.7 34.1,663 	"/>
	<polygon class="st2" points="235.5,809.7 3610.7,809.7 3602.7,778.7 243.5,778.7 	"/>
	<polygon class="st2" points="3843.1,681.2 3843.1,421.7 3812.1,440 3812.1,663 	"/>
	<polygon class="st2" points="3843.1,421.7 3610.7,293.2 3602.7,324.2 3812.1,440 	"/>
	<polygon class="st2" points="2510.1,293.2 3610.7,293.2 3602.7,324.2 2492.7,324.2 	"/>
	<polygon class="st2" points="1513.8,3.1 2332.4,3.1 2315,34.1 1531.2,34.1 	"/>
	<g>
		<g>
			<path class="st1" d="M1640.8,244.5H1534v33.3h106.8c20.5,0,37.6-17.1,37.6-37.6c0-20.5-17.1-37.6-37.6-37.6h-27.3
				c-24.8,0-45.3-20.5-45.3-45.3s20.5-45.3,45.3-45.3h106V78.7h-106.8c-43.6,0-78.6,35-78.6,78.6s35,78.6,78.6,78.6h27.3
				c2.6,0,4.3,1.7,4.3,4.3S1642.5,244.5,1640.8,244.5z"/>
			<path class="st1" d="M1612.6,153.9h106.8v-34.2h-106.8c-20.5,0-37.6,17.1-37.6,37.6s17.1,37.6,37.6,37.6h27.3
				c24.8,0,45.3,20.5,45.3,45.3s-20.5,45.3-45.3,45.3h-106v33.3h106.8c43.6,0,78.6-35,78.6-78.6s-35-78.6-78.6-78.6h-27.3
				c-2.6,0-4.3-1.7-4.3-4.3C1609.2,155.6,1610.9,153.9,1612.6,153.9z"/>
		</g>
		<g>
			<path class="st1" d="M1996.3,119.7c-14.5,0-25.6,11.1-25.6,25.6v106.8c0,14.5,11.1,25.6,25.6,25.6h69.2v-75.2h-53v33.3h19.7v7.7
				h-19.7c-4.3,0-7.7-3.4-7.7-7.7v-75.2c0-4.3,3.4-7.7,7.7-7.7h94.8v-33.3H1996.3z"/>
			<path class="st1" d="M2206.5,277.8h77.8l-53-157.2c-1.7-4.3-5.1-7.7-10.3-7.7c-4.3,0-8.5,3.4-10.3,6.8l-68.4,199.1h39.3
				l23.9-70.9v29.9H2206.5z M2220.2,206l11.1,34.2h-23.1L2220.2,206z"/>
			<path class="st1" d="M2272.3,113.7c-6.8-22.2-27.3-39.3-52.1-39.3s-45.3,16.2-51.3,38.5l-62.4,182.9V161.6h-94v33.3h61.5v90.6
				h-76.9c-18.8,0-33.3-15.4-33.3-33.3V145.4c0-18.8,15.4-33.3,33.3-33.3h110.2V78.7h-111.1c-36.7,0-66.7,29.9-66.7,66.7v106.8
				c0,36.7,29.9,66.7,66.7,66.7h137.6l69.2-200.8c2.6-7.7,9.4-12.8,17.9-12.8s15.4,5.1,17.9,12.8l56.4,167.5h-88.9v33.3h135l0,0
				L2272.3,113.7z"/>
		</g>
		<g>
			<path class="st1" d="M1802.3,285.5c-18.8,0-33.3-15.4-33.3-33.3V145.4c0-18.8,15.4-33.3,33.3-33.3h114.5V78.7h-114.5
				c-36.7,0-66.7,29.9-66.7,66.7v106.8c0,36.7,29.9,66.7,66.7,66.7h114.5v-33.3H1802.3z"/>
			<path class="st1" d="M1810,236.8h82.9v-33.3h-116.2V253c0,14.5,11.1,25.6,25.6,25.6h114.5v-33.3h-99.1
				C1813.4,244.5,1810,241.1,1810,236.8z"/>
			<path class="st1" d="M1892.9,161.6H1810c0-4.3,3.4-7.7,7.7-7.7h98.3v-34.2h-113.6c-14.5,0-25.6,11.1-25.6,25.6v49.6h116.2V161.6z
				"/>
		</g>
	</g>
</g>
</svg>
