<?xml version="1.0" encoding="utf-8"?>
<!-- Generator: Adobe Illustrator 26.0.3, SVG Export Plug-In . SVG Version: 6.00 Build 0)  -->
<svg version="1.1" id="Layer_1" xmlns="http://www.w3.org/2000/svg" xmlns:xlink="http://www.w3.org/1999/xlink" x="0px" y="0px"
	 viewBox="0 0 3839 771.3" style="enable-background:new 0 0 3839 771.3;" xml:space="preserve">
<style type="text/css">
	.st0{display:none;}
	.st1{display:inline;}
	.st2{fill:url(#SVGID_1_);}
	.st3{fill:url(#SVGID_00000018223150807609954240000010314425554269808558_);}
	.st4{clip-path:url(#SVGID_00000008124373194408725920000004722264992250623901_);}
	.st5{clip-path:url(#SVGID_00000137831987832471774660000011540653185157709486_);fill:none;}
	.st6{fill:none;}
	.st7{fill:url(#SVGID_00000152958758841076612510000011651616097346322846_);}
	.st8{clip-path:url(#SVGID_00000182514976920610484360000001672366610432790965_);}
	.st9{clip-path:url(#SVGID_00000053529542836329352010000017639342912382623631_);}
	.st10{clip-path:url(#SVGID_00000090265960083875330060000015283097707561985434_);}
	.st11{fill:url(#SVGID_00000146460061631153256270000009324965101565661086_);}
	.st12{fill:url(#SVGID_00000168801889581039489880000016599886770585463231_);}
	.st13{clip-path:url(#SVGID_00000016754169507825916300000002897817486707078332_);}
	.st14{clip-path:url(#SVGID_00000058553602110505929990000001327671402539255424_);fill:none;}
	.st15{fill:url(#SVGID_00000119840612544815727200000013181962474186806151_);}
	.st16{clip-path:url(#SVGID_00000145750791382908589650000013652343072178994089_);}
	.st17{clip-path:url(#SVGID_00000041279409347096985970000004438121459676630200_);}
	.st18{clip-path:url(#SVGID_00000070818580512201235610000009645992799715625148_);}
	.st19{fill:#FFFFFF;}
	.st20{fill:url(#SVGID_00000154383935016667395320000015208175947612201399_);}
	.st21{fill:url(#SVGID_00000179626133450084535540000002578228427911210650_);}
	.st22{clip-path:url(#SVGID_00000132781396021962474040000005875768578535481242_);fill:#FFFFFF;}
	.st23{clip-path:url(#SVGID_00000110439741234324215720000016813533207934276023_);fill:none;}
	.st24{fill:url(#SVGID_00000138573095191688337350000014105955878868415115_);}
	.st25{clip-path:url(#SVGID_00000075142058934186632970000011520850529648745090_);fill:#FFFFFF;}
	.st26{clip-path:url(#SVGID_00000113315401320700871140000012794672541087873698_);fill:#FFFFFF;}
	.st27{clip-path:url(#SVGID_00000170964884368214246140000014175413606693762471_);}
	.st28{clip-path:url(#SVGID_00000170964884368214246140000014175413606693762471_);fill:#FFFFFF;}
	.st29{fill:url(#SVGID_00000059991382597449827830000003521292392825592450_);}
	.st30{fill:url(#SVGID_00000055675397204133916860000009612746994339435655_);}
	.st31{clip-path:url(#SVGID_00000175290515896121543900000003766742676381939083_);fill:#FFFFFF;}
	.st32{clip-path:url(#SVGID_00000041255907020991363160000008681268460557041286_);fill:none;}
	.st33{fill:url(#SVGID_00000057829305221287183670000011030779299653263256_);}
	.st34{clip-path:url(#SVGID_00000087410472073545913650000010921185317885070516_);fill:#FFFFFF;}
	.st35{clip-path:url(#SVGID_00000052819342693381362340000007740056918547607704_);fill:#FFFFFF;}
	.st36{clip-path:url(#SVGID_00000054968851231845235000000004180769169207971998_);}
	.st37{clip-path:url(#SVGID_00000054968851231845235000000004180769169207971998_);fill:#FFFFFF;}
	.st38{clip-path:url(#SVGID_00000065066627315245429550000015100225403560372668_);}
	.st39{clip-path:url(#SVGID_00000168106377475100406510000003194236212951319726_);}
	.st40{clip-path:url(#SVGID_00000086676448473680140210000012361056619030172550_);}
	.st41{clip-path:url(#SVGID_00000003815959621797476180000007356600043312091839_);}
	.st42{clip-path:url(#SVGID_00000057136851003394916400000010914417675729468295_);}
	.st43{clip-path:url(#SVGID_00000032631455430170376030000007578733611633850520_);}
	.st44{clip-path:url(#SVGID_00000070830989193100035690000007703394637623539849_);fill:#FFFFFF;}
	.st45{clip-path:url(#SVGID_00000077297253329225258340000002349871817790442625_);fill:#FFFFFF;}
	.st46{clip-path:url(#SVGID_00000062186289389793879450000011646525886651624331_);}
	.st47{clip-path:url(#SVGID_00000062186289389793879450000011646525886651624331_);fill:#FFFFFF;}
	.st48{clip-path:url(#SVGID_00000183207573934294723450000011229214496388657822_);fill:#FFFFFF;}
	.st49{clip-path:url(#SVGID_00000054978659992214624160000001025468444367462292_);fill:#FFFFFF;}
	.st50{clip-path:url(#SVGID_00000118397025672075321620000010474870334986524088_);}
	.st51{clip-path:url(#SVGID_00000118397025672075321620000010474870334986524088_);fill:#FFFFFF;}
	.st52{fill:url(#SVGID_00000134248540129672504010000017416062380794168765_);}
	.st53{fill:url(#SVGID_00000176746868951104589160000000337101251396019602_);}
	.st54{clip-path:url(#SVGID_00000088101904280086116890000016364324611419923605_);}
	.st55{clip-path:url(#SVGID_00000099663512298636689000000000707706979008761736_);fill:none;}
	.st56{fill:url(#SVGID_00000092415688421401335190000007709814340952333456_);}
	.st57{fill:url(#SVGID_00000047743095149570922420000013087705240614799524_);}
	.st58{clip-path:url(#SVGID_00000020375753090677013250000006789637879812022680_);}
	.st59{clip-path:url(#SVGID_00000119109435855820842140000001891058036970934409_);fill:none;}
	.st60{fill:url(#SVGID_00000119819124390266562390000004925328928748600463_);}
	.st61{clip-path:url(#SVGID_00000083771238709365537750000006814179765872522669_);}
	.st62{clip-path:url(#SVGID_00000038406275430175356040000004214341217594386589_);}
	.st63{clip-path:url(#SVGID_00000119087983548205488610000003603677560549387400_);}
	.st64{fill:url(#SVGID_00000154405297635367603800000011427670001559623854_);}
	.st65{clip-path:url(#SVGID_00000103975118492665401170000011145784248047238574_);}
	.st66{clip-path:url(#SVGID_00000140719200975308017420000001929639929747390630_);}
	.st67{clip-path:url(#SVGID_00000023274476757860841370000003392156611881755273_);}
	.st68{clip-path:url(#SVGID_00000019659186396571484780000001095892004907579027_);}
	.st69{clip-path:url(#SVGID_00000047026496400563336870000008211554096752156291_);}
	.st70{clip-path:url(#SVGID_00000000913716424497776560000005563227507703488130_);}
	.st71{fill:url(#SVGID_00000138542801736906936990000017732758591501189547_);}
	.st72{clip-path:url(#SVGID_00000178190382133404313140000013400760971024889535_);}
	.st73{clip-path:url(#SVGID_00000136410032242219699360000009267672572421440388_);}
	.st74{clip-path:url(#SVGID_00000055676127149747144700000010149853898958419857_);}
	.st75{fill:url(#SVGID_00000129202811510797807940000006142696218016108213_);}
	.st76{fill:url(#SVGID_00000130636178926739390770000004632517930818703501_);}
	.st77{clip-path:url(#SVGID_00000103266094714104073380000002697644986173849734_);}
	.st78{clip-path:url(#SVGID_00000053515451199898249120000004548978724746184872_);fill:none;}
	.st79{clip-path:url(#SVGID_00000076601336083171023760000004145977160771036305_);}
	.st80{clip-path:url(#SVGID_00000043445913542517159900000006007556794081505174_);}
	.st81{clip-path:url(#SVGID_00000062178216664148022680000012310607796599621530_);}
	.st82{fill:url(#SVGID_00000047769173684535105550000009172410106107739524_);}
	.st83{clip-path:url(#SVGID_00000055677499782177197800000007829878877433518254_);}
	.st84{clip-path:url(#SVGID_00000017500753280570035810000006024257492442856608_);}
	.st85{clip-path:url(#SVGID_00000131336669820387451500000015176290030821386646_);}
	.st86{clip-path:url(#SVGID_00000085220736794718837350000013053385371096381104_);}
	.st87{clip-path:url(#SVGID_00000066503323469502783850000003687908898602976658_);}
	.st88{clip-path:url(#SVGID_00000160912207917439307980000003694899413550378117_);}
	.st89{clip-path:url(#SVGID_00000012448163592031840940000013876027683286407556_);}
	.st90{clip-path:url(#SVGID_00000042011385101732130490000014176973990734102698_);}
	.st91{clip-path:url(#SVGID_00000076599602385852305710000016300402638608435384_);}
	.st92{fill:url(#SVGID_00000013895235947991270920000001260256171154438808_);}
	.st93{clip-path:url(#SVGID_00000155148672845090667950000004355941561924150923_);}
	.st94{clip-path:url(#SVGID_00000017503031058963713980000016369285506184581261_);}
	.st95{clip-path:url(#SVGID_00000025415892272019392290000016801878425558788497_);}
	.st96{clip-path:url(#SVGID_00000076565593294249988670000014148176213500399282_);}
	.st97{clip-path:url(#SVGID_00000088815621245892865400000008255059989635797691_);fill:#FFFFFF;}
	.st98{clip-path:url(#SVGID_00000002358441696479923780000010604705029759268278_);}
	.st99{clip-path:url(#SVGID_00000124145321323714801800000014014702415422641854_);}
	.st100{clip-path:url(#SVGID_00000117638152378187505330000003321317063671547044_);fill:#FFFFFF;}
	.st101{clip-path:url(#SVGID_00000053507407410797725140000003811387154989974934_);}
	.st102{fill:url(#SVGID_00000115472514724961652190000015358270730195588784_);}
	.st103{fill:url(#SVGID_00000030448172113801860200000016274111858559792789_);}
	.st104{clip-path:url(#SVGID_00000098215330580781897150000008701977921531263381_);}
	.st105{clip-path:url(#SVGID_00000093149070484670739760000000617560041869240206_);fill:none;}
	.st106{clip-path:url(#SVGID_00000104701679125712978420000014714680527221531301_);}
	.st107{clip-path:url(#SVGID_00000065784290759245782040000003643491940859176615_);}
	.st108{clip-path:url(#SVGID_00000138540052224267214870000005883877414681860269_);}
	.st109{fill:url(#SVGID_00000148644124252028355340000002804398446134205603_);}
	.st110{fill:url(#SVGID_00000117666520067845548890000014312594181510796709_);}
	.st111{fill:url(#SVGID_00000000904357350769533450000001845754073899205029_);}
	.st112{clip-path:url(#SVGID_00000046303226657984434250000001650039371792169893_);}
	.st113{clip-path:url(#SVGID_00000116940299007616957430000004951905743066296213_);fill:none;}
	.st114{fill:url(#SVGID_00000053545558132163869650000005705947085016900271_);}
	.st115{fill:url(#SVGID_00000052794805259304382930000008084030934632504990_);}
	.st116{clip-path:url(#SVGID_00000075879483472475693980000012662210814311358881_);}
	.st117{clip-path:url(#SVGID_00000113339389850490516250000003008088575150924202_);fill:none;}
	.st118{clip-path:url(#SVGID_00000115481338165600495560000010008173305320156040_);}
	.st119{clip-path:url(#SVGID_00000119811204904774074450000004878993569281280146_);}
	.st120{clip-path:url(#SVGID_00000110454187366170567000000005849783641766190725_);}
	.st121{fill:url(#SVGID_00000078742621765272372020000015310309820869808815_);}
	.st122{fill:url(#SVGID_00000135655793179020800900000016779215087452507297_);}
	.st123{fill:url(#SVGID_00000111910679197170995730000006865706582283307138_);}
	.st124{clip-path:url(#SVGID_00000068652995939361473670000016291223234967508376_);}
	.st125{clip-path:url(#SVGID_00000155830723593234120580000002567983769595564423_);fill:none;}
	.st126{clip-path:url(#SVGID_00000005252413328801934850000000238120063498304949_);}
	.st127{clip-path:url(#SVGID_00000119828731025573792630000002531430221510497435_);}
	.st128{clip-path:url(#SVGID_00000066487594972250743220000010259527352045365939_);}
	.st129{fill:url(#SVGID_00000149344912674598999540000017110230814090241704_);}
	.st130{fill:url(#SVGID_00000105417523899101148110000001905445511017559442_);}
	.st131{fill:url(#SVGID_00000110466149945619505330000012217016332127436434_);}
	.st132{clip-path:url(#SVGID_00000093858971416522628870000016218754113516091578_);}
	.st133{clip-path:url(#SVGID_00000009562919050363823800000000986938780886512034_);fill:none;}
	.st134{clip-path:url(#SVGID_00000157996294109206788190000009513486035319209354_);}
	.st135{clip-path:url(#SVGID_00000103955740053258695360000011526752712932725905_);}
	.st136{clip-path:url(#SVGID_00000108275564360401617870000004735853805115829927_);}
	.st137{fill:url(#SVGID_00000155864611976001274430000001538630853630825094_);}
	.st138{fill:url(#SVGID_00000164483012432107392520000010739043137886975666_);}
	.st139{fill:url(#SVGID_00000115481287226250164540000015107014956379404434_);}
	.st140{clip-path:url(#SVGID_00000085932754094488259230000016083354712711593385_);}
	.st141{clip-path:url(#SVGID_00000153677433271522222380000012198621946040104111_);fill:none;}
	.st142{clip-path:url(#SVGID_00000165939423464726478340000013264046444709030017_);}
	.st143{clip-path:url(#SVGID_00000127029461257470056070000009481928220211470484_);}
	.st144{clip-path:url(#SVGID_00000070825729814955981370000015750504540444780164_);}
	.st145{fill:url(#SVGID_00000017503708184076388380000015389424449243720588_);}
	.st146{fill:url(#SVGID_00000160175746625372617490000001865821004604928910_);}
	.st147{fill:url(#SVGID_00000128462159101519866530000018112124707567318148_);}
	.st148{clip-path:url(#SVGID_00000010295566393608299480000000443115451403335302_);}
	.st149{clip-path:url(#SVGID_00000109029282703609097280000008310882643645812668_);fill:none;}
	.st150{clip-path:url(#SVGID_00000026126792728232643750000012559750280312653994_);}
	.st151{clip-path:url(#SVGID_00000078003302391351537820000013673108569281928352_);fill:#FFFFFF;}
	.st152{clip-path:url(#SVGID_00000033339914496290399940000005990226312545053315_);}
	.st153{fill:url(#SVGID_00000018208018036341223670000007135289238825247902_);}
	.st154{fill:url(#SVGID_00000070089151773950153880000001235809496369630382_);}
	.st155{fill:url(#SVGID_00000034800505495109649320000001274242853596252038_);}
	.st156{clip-path:url(#SVGID_00000047021404400919874020000010648935339686468022_);fill:#FFFFFF;}
	.st157{clip-path:url(#SVGID_00000132800927405801438350000013815524183622780808_);fill:none;}
	.st158{clip-path:url(#SVGID_00000143608270047805001350000006141812935476447670_);}
	.st159{clip-path:url(#SVGID_00000029019759374859430230000016208399505360330650_);fill:#FFFFFF;}
	.st160{clip-path:url(#SVGID_00000098925106366085647360000003472575924819496120_);}
	.st161{fill:url(#SVGID_00000077289296314207289760000009376673316343970184_);}
	.st162{fill:url(#SVGID_00000003105652283677013120000013530998340907716029_);}
	.st163{fill:url(#SVGID_00000144329136708223210040000005089116066158103742_);}
	.st164{clip-path:url(#SVGID_00000021095736507467861150000013418355361728692107_);fill:#FFFFFF;}
	.st165{clip-path:url(#SVGID_00000023270338369228967040000011592146691352192904_);fill:none;}
</style>
<g class="st0">
	<g class="st1">
		<g>
			<g>
				<g>
					<g>
						<path class="st19" d="M3763.7,325h-18.4v-11.3h50.2V325h-18.4v49.9h-13.5L3763.7,325L3763.7,325z"/>
						<path class="st19" d="M3802.6,313.7h19l14.3,42.1h0.2l13.6-42.1h19V375h-12.6v-43.4h-0.2l-15,43.4h-10.4l-15-43h-0.2v43h-12.7
							V313.7z"/>
					</g>
					<path class="st19" d="M2016.8-169.3c2.9-1.5,6.3-3.1,10.2-4.9c12.8-6,23,12,11.3,19.9c-4.1,2.8-7.8,5.3-10.8,7.4
						c-37.7,26.4-70.7,57.5-70.7,162.7c0,132.1,109.3,260.9,109.3,356.6c0,74.3-21,142.4-185.7,222.3c-5.4,2.6-11.9,0.6-14.9-4.6
						l0,0c-3.2-5.5-1.1-12.6,4.5-15.6c65.8-35.2,85.1-108.1,82.3-170.7c-5.8-130.2-111.3-242.2-109.3-349
						C1844.2-8.9,1869.5-95.1,2016.8-169.3z"/>
					<path class="st19" d="M1913.9,361.4c-9.3-3.5-28.3-13.5-40.2-39.9L1743.2,32.1c-5.5-12.3-22.8-12.8-29.1-0.9l-96.6,183.4
						c-5,9.5-14.9,15.5-25.6,15.5H1476h-3.9c-3.9,0-7.8,3.1-8.4,6.9c-0.8,5,2.8,9.2,7.6,9.6c32.2,2.9,51.5,24.4,51.2,59.1
						c-0.2,32-26.9,58.2-59,58.2h-8.4c-85.8,0-89.5-98.6-89.5-120.1c0-25.1,0-75.4,0-75.4c0-37,14.9-102,87.2-102
						c67.5,0,105.5,31.1,136.4,72.3c5.1,6.8,15.8,1.2,13.2-6.9l-27.1-84.9c-2.6-8.2-12.2-11.8-19.6-7.3
						c-19.9,12.2-31.6,10.2-31.6,10.2c-9.8,0.3-41-8.6-78.9-8.6c-60.5,0-109.3,24-142.8,56.3c-3.3,3.2-8.8,2.1-10.5-2.2l-20.1-48.9
						h-182.4v-0.1h-89.6c-5.7,0-11.3-0.2-17-0.5c-30.7-1.7-138.6-7.3-193.8-7.3c-69.2,0-123.4,21.7-128.9,72.7
						c-4.1,38.4,22.5,58.4,37.8,72.4c8.3,7.6,47.1,32.2,67.1,41.4c20.8,9.6,103.8,51.2,95.2,84.2c-8.6,32.7-36.6,40.7-69,40.7
						c-50.8,0-105.4-42.1-145.8-79.8c-7-6.6-17.9,1.6-13.5,10.2c16.7,32.7,38.1,72.4,52.1,93.4c4,5.9,11.2,8.8,18.2,7
						c15.1-3.8,34.6-5.8,46.5-5.2c15.3,0.7,47.2,4.9,61.2,4.9c116.4,0,152.9-30.6,156.7-83.7c5.2-73-81.9-121.6-135-142.9
						c-47.4-19.1-65.8-47.9-63.8-62.2c3.3-24.8,26.9-29,46.7-28.2c61.2,2.3,176.7,32.2,176.7,74.2c0,0,0,186.7,0,194.9
						c0,10.9-11.9,30.5-26.9,30.5H964c-2.7,0-5.4,1-7.4,2.9c-5.2,5.2-1.6,11.4,3.4,11.4h65l0,0h64.4h183.8c5.9,0,11.1-3.5,13.4-9
						l10-24.4c1.9-4.7,7.9-6.1,11.7-2.7c32.8,29.6,80.8,48.2,146.4,48.2c15.3,0,47-4.2,61.8-9.6c4.7-1.7,9.7-2.6,14.7-2.6h122.9
						h19.8c7.3,0,10.8-9.1,5.3-14c-2.4-2.1-4.6-4.1-6.1-5.5c-11.7-10.6-11.2-17.8-11.5-23.9c-0.3-6,1-12,3.8-17.4l87.1-165.4
						l74.4,165.1c2.5,5.5,3.7,11.6,3.2,17.6c-0.1,0.8-0.1,1.5-0.2,2c-1.4,7.8-8.4,23.5-21.5,23.5h-2.1c-3.2,0-6.4,1.1-8.8,3.2
						c-7.3,6.5-2.8,14.7,3.6,14.7h110.1c5.1,0,9.1-4.6,8.1-9.8C1918.8,364.7,1916.7,362.4,1913.9,361.4z M1274.5,131.5
						c-15,23.6-23.1,48.6-23.1,70.6c0,29.3,5.4,57.9,16.8,83.6c2.5,5.6,1.4,12.2-2.9,16.6c-21.1,21.4-67.2,51.2-133.1,51.2h-16.1
						c-14.7,0-26.6-11.9-26.6-26.6v-89.7v-4.8c0-5,7.5-11.2,15.9-9.5c12.9,2.5,35.6,10.6,53.7,21.1c12.7,7.4,24.2,15.1,37.4,26
						c5.8,4.8,14.6,0.6,14.6-6.9v-28.2v-55.7V151c0-7.5-8.8-11.7-14.6-6.9c-13.2,10.9-24.7,18.6-37.4,26
						c-18.1,10.4-41.5,21.4-54.3,24.4c-9.9,2.3-13.4-1.6-15.3-5.3v-5.4v-88c0-14,11.4-25.4,25.4-25.4h32.6
						c53.4,0,102.1,30.6,125.5,50.8C1275.9,123.7,1276.6,128.2,1274.5,131.5z"/>
					<path class="st19" d="M3760.6,50.2c-0.8-2.3-3.1-3.8-5.6-3.8h-25.6h-48.1h-25.6c-2.5,0-4.8,1.5-5.6,3.8
						c-1.1,3.2,0.7,6.4,3.6,7.4c9.2,3,31.3,12.7,31.3,35.9v139.1c0,5.3-6.2,8.2-10.3,4.8l-146.2-121.3
						c-45.6-37.9-110.2-63.1-152.9-76.9c-9.4-3-15.9,9.4-8,15.4c1.4,1.1,2.8,2.1,4.3,3.2c48.7,36.6,53.9,89.1,53.9,95.1v186.8v9
						c0,7-5.7,12.7-12.7,12.7c-16.3,0-52.8-26.5-71.4-46c-17.5-18.3-25.9-43.5-45.5-66.6c-15.6-18.3-28.9-25.1-28.9-25.1
						c98.3,0,101.2-79.7,101.2-88.6c0-13.3,0-89-123-89h-283.9h-48.3c-2.5,0-4.8,1.5-5.6,3.8c-1.1,3.2,0.7,6.5,3.6,7.4
						c9.2,3,31.3,12.7,31.3,35.9v175c0,60.5-42.3,80.7-76.2,80.7c-61.8,0-85.5-36.4-85.5-82.2v-26.5l0,0v-147
						c0-23.2,22.1-32.9,31.3-35.9c2.4-0.8,4-2.9,4-5.4v-0.1c0-3.1-2.5-5.7-5.7-5.7h-110.9h-17h-223.4h-113.8
						c-6.9,0-13.3,4-16.3,10.2l-18.3,37.9c-3.1,6.5,4.3,12.9,10.3,8.9c24.5-16.6,65.7-35.7,126-38c6.6-0.2,12.1,5.1,12.1,11.7v240
						c0,11.4-4.2,20.2-9.9,26.9c-4.4,5.2-11,8.2-17.9,8.2h-14.8c-4.8,0-9.6-1.3-13.7-4c-9.4-6.1-18.3-14.7-23.7-26.7L2248.7,31.8
						c-5.6-12.3-22.8-12.8-29.1-0.9l-135.8,257.7l-39.2,74.3l2.7,14.2h39.4h7h85.5l0,0c7.3,0,10.8-9.1,5.3-14c0,0-0.1,0-0.1-0.1
						c-2.4-2.1-4.5-4-6-5.4c-11.6-10.4-11.2-17.6-11.5-23.7c-0.3-6.1,1-12.2,3.8-17.6l87.2-165.4l74.4,165.1
						c2.5,5.5,3.7,11.6,3.2,17.6c-0.1,0.8-0.1,1.5-0.2,2c-1.4,7.8-8.4,23.5-21.5,23.5h-0.2c-2.6,0-5.2,0.8-7.3,2.4
						c-8.6,6.6-4,15.5,2.6,15.5h109.7h6.4h86.7h25.6h52.4c4.5,0,8.4-3.4,8.6-7.9c0.2-3.6-2-7-5.3-8.2c-11-4.2-35.3-16.7-35.3-44.1
						v-240c0-6.8,5.5-12,12.3-11.7c46.6,1.8,81.8,13.6,106.6,26.6c4,2.1,6.5,6.2,6.5,10.7V257h0.4c4,71,37.7,125.6,161.2,125.6
						c71.6,0,138.7-37.5,138.7-106.6c0-8.5,0-177.2,0-177.2c0-10.5,3.3-17.9,7.5-23c6.1-7.5,15.5-11.5,25.2-11.5h14.6
						c9.7,0,19.1,4,25.2,11.5c4.2,5.2,7.5,12.6,7.5,23v214.8c0,31.9-25.3,43.9-37.1,47.8c-2.8,0.9-5.1,3.2-5.7,6.2
						c-1,5.2,2.9,9.8,8,9.8h52.8h59.6h55.2c3.4,0,6.6-2,7.8-5.2c1.7-4.6-0.8-9.3-5-10.7c-11.6-3.8-37.4-15.8-37.4-47.9V110V85.8
						c0-18.2,15.6-24.8,26.3-24.8h30.7c28.6,0,57,24.1,57,64.3c0,59-38.4,73.3-54.1,73.3c-10.5,0-18.7,0.2-27.4-3c0,0-0.1,0-0.1-0.1
						c-5.5-2.6-11.4,2.5-9.6,8.3c0.1,0.3,0.1,0.5,0.2,0.5c9.2,31.2,25.8,78.9,48.4,109.3c35.1,47.3,101.7,85,213.4,85h48
						c3,0,5.8-1.8,6.7-4.6c1.3-3.9-0.9-7.8-4.5-8.9c-9.6-2.9-30-11.6-30-33.3v-157c0-5.3,6.2-8.2,10.3-4.8l232,192.6
						c6.7,5.5,16.7,0.8,16.7-7.9V93.5c0-23.2,22.1-32.9,31.3-35.9C3759.9,56.7,3761.7,53.5,3760.6,50.2z"/>
				</g>
			</g>
		</g>
		<g>
			<circle cx="322.2" cy="215.4" r="176.7"/>
			<g>
				<path class="st19" d="M223.1,366.6c-7.1-5.6-13.8-11.8-20.2-18.1c-3.2-3.1-6.3-6.3-9.5-9.4c-2.2-2.1-4.6-4-6.6-6.3
					c-30.4,3-59,3.9-84.5,2.6c-13-0.7-23.9,9.4-24.5,22.4c-0.5,12.8,9.7,23.5,22.5,24.2c8.5,0.4,17.2,0.6,26.1,0.6
					c33.1,0,69.4-2.9,107.1-8.4C230,371.7,226.5,369.2,223.1,366.6z"/>
				<path class="st19" d="M613.9,170.3c-2.3-13.8-9.7-24.8-21.7-32c-42.8-25.9-139.8,3.5-294.6,55.1c-54.1,18-105.3,34.6-147.6,45.9
					c-35.3,9.4-54.7,11.8-64.9,11c-6.8-0.6-8.4-6.8-6.4-10.7c0.7-1.4,1.6-2.9,2.7-4.5c11.1-16,36.7-33.9,72.8-51.5
					c0.8-4.7,1.7-9.3,2.7-13.9c1.2-5.4,2.7-10.6,4.2-16c0.8-2.6,1.6-5,2.5-7.5c0.9-2.3,1.9-4.6,3-6.8c2.6-5.4,5.5-10.6,8.2-16.1
					c-53.7,21.9-107.9,51-131.7,85.1c-17.9,25.6-14.7,47.6-8.9,61.5c14.7,35.3,64.6,29.1,111.4,18.3c46.6-10.8,105-30.2,166.6-50.7
					c59.6-19.9,121.2-40.4,170.8-52.2c46.7-11.2,68.4-11,78.1-9.3c4.5,0.8,7.2,5.4,5.7,9.7c-2.3,6.2-7.1,12.4-10.6,16.2
					c-11.9,13.3-30.8,27-55.2,40.6c-0.4,3.8-1,7.5-1.8,11.3c-1.1,5.3-2.5,10.5-4,15.6c-1.3,4.4-2.9,8.8-4,13.2
					c-1.2,4.7-2.4,9.4-3.9,14.1c-0.6,1.9-1.3,3.9-2.1,5.7c47.8-21.8,84.5-45.7,105.7-69.4C609.6,212.1,617.3,191.1,613.9,170.3z"/>
				<path class="st19" d="M413.3,62.1c5.3,3.3,10.5,6.7,15.5,10.3c1.2,0.8,2.3,1.6,3.4,2.5c1,0.9,2,1.7,3,2.6
					c1.9,1.8,3.7,3.7,5.4,5.5c3.6,3.8,6.9,7.8,10.6,11.5c1,1.1,2.1,2.1,3.2,3.1c31.5-4.1,59.7-6,82.3-5.1
					c12.8,0.5,23.7-9.5,24.2-22.4c0.5-12.8-9.5-23.7-22.4-24.2c-34.6-1.3-81,3.1-131.9,12C408.8,59.3,411.1,60.7,413.3,62.1z"/>
				<g>
					<path class="st19" d="M325.1,47.3c22.8,0,44.9,4.4,65.7,13.3c20.1,8.5,38.1,20.7,53.7,36.2s27.7,33.6,36.2,53.7
						c8.8,20.8,13.3,43,13.3,65.7s-4.4,44.9-13.3,65.7c-8.5,20.1-20.7,38.1-36.2,53.7c-15.5,15.5-33.6,27.7-53.7,36.2
						c-20.8,8.8-43,13.3-65.7,13.3c-22.8,0-44.9-4.4-65.7-13.3c-20.1-8.5-38.1-20.7-53.7-36.2C190.2,320,178,302,169.5,281.9
						c-8.8-20.8-13.3-43-13.3-65.7s4.4-44.9,13.3-65.7c8.5-20.1,20.7-38.1,36.2-53.7s33.6-27.7,53.7-36.2
						C280.2,51.8,302.3,47.3,325.1,47.3 M325.1,31.7c-101.9,0-184.4,82.6-184.4,184.4s82.6,184.4,184.4,184.4S509.6,318,509.6,216.2
						S427,31.7,325.1,31.7L325.1,31.7z"/>
				</g>
			</g>
		</g>
	</g>
</g>
<g>
	<g>
		<circle cx="292.5" cy="390.9" r="176.7"/>
		<g>
			<path class="st19" d="M193.5,542c-7.1-5.6-13.8-11.8-20.2-18.1c-3.2-3.1-6.3-6.3-9.5-9.4c-2.2-2.1-4.6-4-6.6-6.3
				c-30.4,3-59,3.9-84.5,2.6c-13-0.7-23.9,9.4-24.5,22.4c-0.5,12.8,9.7,23.5,22.5,24.2c8.5,0.4,17.2,0.6,26.1,0.6
				c33.1,0,69.4-2.9,107.1-8.4C200.3,547.1,196.8,544.7,193.5,542z"/>
			<path class="st19" d="M584.2,345.7c-2.3-13.8-9.7-24.8-21.7-32c-42.8-25.9-139.8,3.5-294.6,55.1c-54.1,18-105.3,34.6-147.6,45.9
				c-35.3,9.4-54.7,11.8-64.9,11c-6.8-0.6-8.4-6.8-6.4-10.7c0.7-1.4,1.6-2.9,2.7-4.5c11.1-16,36.7-33.9,72.8-51.5
				c0.8-4.7,1.7-9.3,2.7-13.9c1.2-5.4,2.7-10.6,4.2-16c0.8-2.6,1.6-5,2.5-7.5c0.9-2.3,1.9-4.6,3-6.8c2.6-5.4,5.5-10.6,8.2-16.1
				c-53.7,21.9-107.9,51-131.7,85.1c-17.9,25.6-14.7,47.6-8.9,61.5c14.7,35.3,64.6,29.1,111.4,18.3c46.6-10.8,105-30.2,166.6-50.7
				c59.6-19.9,121.2-40.4,170.8-52.2c46.7-11.2,68.4-11,78.1-9.3c4.5,0.8,7.2,5.4,5.7,9.7c-2.3,6.2-7.1,12.4-10.6,16.2
				c-11.9,13.3-30.8,27-55.2,40.6c-0.4,3.8-1,7.5-1.8,11.3c-1.1,5.3-2.5,10.5-4,15.6c-1.3,4.4-2.9,8.8-4,13.2
				c-1.2,4.7-2.4,9.4-3.9,14.1c-0.6,1.9-1.3,3.9-2.1,5.7c47.8-21.8,84.5-45.7,105.7-69.4C579.9,387.6,587.7,366.5,584.2,345.7z"/>
			<path class="st19" d="M383.7,237.6c5.3,3.3,10.5,6.7,15.5,10.3c1.2,0.8,2.3,1.6,3.4,2.5c1,0.9,2,1.7,3,2.6
				c1.9,1.8,3.7,3.7,5.4,5.5c3.6,3.8,6.9,7.8,10.6,11.5c1,1.1,2.1,2.1,3.2,3.1c31.5-4.1,59.7-6,82.3-5.1
				c12.8,0.5,23.7-9.5,24.2-22.4c0.5-12.8-9.5-23.7-22.4-24.2c-34.6-1.3-81,3.1-131.9,12C379.1,234.8,381.4,236.2,383.7,237.6z"/>
			<g>
				<path class="st19" d="M295.5,222.7c22.8,0,44.9,4.4,65.7,13.3c20.1,8.5,38.1,20.7,53.7,36.2c15.5,15.5,27.7,33.6,36.2,53.7
					c8.8,20.8,13.3,43,13.3,65.7s-4.4,44.9-13.3,65.7c-8.5,20.1-20.7,38.1-36.2,53.7c-15.5,15.5-33.6,27.7-53.7,36.2
					c-20.8,8.8-43,13.3-65.7,13.3c-22.8,0-44.9-4.4-65.7-13.3c-20.1-8.5-38.1-20.7-53.7-36.2s-27.7-33.6-36.2-53.7
					c-8.8-20.8-13.3-43-13.3-65.7s4.4-44.9,13.3-65.7c8.5-20.1,20.7-38.1,36.2-53.7s33.6-27.7,53.7-36.2
					C250.5,227.2,272.6,222.7,295.5,222.7 M295.5,207.2c-101.9,0-184.4,82.6-184.4,184.4S193.6,576,295.5,576
					s184.4-82.6,184.4-184.4S397.3,207.2,295.5,207.2L295.5,207.2z"/>
			</g>
		</g>
	</g>
	<g>
		<g>
			<g>
				<g>
					<path class="st19" d="M3734,500.4h-18.4v-11.3h50.2v11.3h-18.4v49.9h-13.5L3734,500.4L3734,500.4z"/>
					<path class="st19" d="M3772.9,489.1h19l14.3,42.1h0.2l13.6-42.1h19v61.3h-12.6V507h-0.2l-15,43.4h-10.4l-15-43h-0.2v43h-12.7
						V489.1z"/>
				</g>
				<path class="st19" d="M1987.2,6.1c2.9-1.5,6.3-3.1,10.2-4.9c12.8-6,23,12,11.3,19.9c-4.1,2.8-7.8,5.3-10.8,7.4
					c-37.7,26.4-70.7,57.5-70.7,162.7c0,132.1,109.3,260.9,109.3,356.6c0,74.3-21,142.4-185.7,222.3c-5.4,2.6-11.9,0.6-14.9-4.6l0,0
					c-3.2-5.5-1.1-12.6,4.5-15.6c65.8-35.2,85.1-108.1,82.3-170.7c-5.8-130.2-111.3-242.2-109.3-349
					C1814.6,166.5,1839.9,80.3,1987.2,6.1z"/>
				<path class="st19" d="M1884.3,536.8c-9.3-3.5-28.3-13.5-40.2-39.9l-130.5-289.4c-5.5-12.3-22.8-12.8-29.1-0.9L1587.9,390
					c-5,9.5-14.9,15.5-25.6,15.5h-115.9h-3.9c-3.9,0-7.8,3.1-8.4,6.9c-0.8,5,2.8,9.2,7.6,9.6c32.2,2.9,51.5,24.4,51.2,59.1
					c-0.2,32-26.9,58.2-59,58.2h-8.4c-85.8,0-89.5-98.6-89.5-120.1c0-25.1,0-75.4,0-75.4c0-37,14.9-102,87.2-102
					c67.5,0,105.5,31.1,136.4,72.3c5.1,6.8,15.8,1.2,13.2-6.9l-27.1-84.9c-2.6-8.2-12.2-11.8-19.6-7.3
					c-19.9,12.2-31.6,10.2-31.6,10.2c-9.8,0.3-41-8.6-78.9-8.6c-60.5,0-109.3,24-142.8,56.3c-3.3,3.2-8.8,2.1-10.5-2.2l-15-36.4
					c-3.1-7.5-7.1-12.5-15.3-12.5h-172.2v-0.1h-89.6c-5.7,0-11.3-0.2-17-0.5c-30.7-1.7-138.6-7.3-193.8-7.3
					c-69.2,0-123.4,21.7-128.9,72.7c-4.1,38.4,22.5,58.4,37.8,72.4c8.3,7.6,47.1,32.2,67.1,41.4c20.8,9.6,103.8,51.2,95.2,84.2
					c-8.6,32.7-36.6,40.7-69,40.7c-50.8,0-105.4-42.1-145.8-79.8c-7-6.6-17.9,1.6-13.5,10.2c16.7,32.7,38.1,72.4,52.1,93.4
					c4,5.9,11.2,8.8,18.2,7c15.1-3.8,34.6-5.8,46.5-5.2c15.3,0.7,47.2,4.9,61.2,4.9c116.4,0,152.9-30.6,156.7-83.7
					c5.2-73-81.9-121.6-135-142.9c-47.4-19.1-65.8-47.9-63.8-62.2c3.3-24.8,26.9-29,46.7-28.2c61.2,2.3,176.7,32.2,176.7,74.2
					c0,0,0,186.7,0,194.9c0,10.9-11.9,30.5-26.9,30.5h-0.3c-2.7,0-5.4,1-7.4,2.9c-5.2,5.2-1.6,11.4,3.4,11.4h65l0,0h64.4h183.8
					c5.9,0,11.1-3.5,13.4-9l10-24.4c1.9-4.7,7.9-6.1,11.7-2.7c32.8,29.6,80.8,48.2,146.4,48.2c15.3,0,47-4.2,61.8-9.6
					c4.7-1.7,9.7-2.6,14.7-2.6h122.9h19.8c7.3,0,10.8-9.1,5.3-14c-2.4-2.1-4.6-4.1-6.1-5.5c-11.7-10.6-11.2-17.8-11.5-23.9
					c-0.3-6,1-12,3.8-17.4l87.1-165.4l74.4,165.1c2.5,5.5,3.7,11.6,3.2,17.6c-0.1,0.8-0.1,1.5-0.2,2c-1.4,7.8-8.4,23.5-21.5,23.5
					h-2.1c-3.2,0-6.4,1.1-8.8,3.2c-7.3,6.5-2.8,14.7,3.6,14.7h110.1c5.1,0,9.1-4.6,8.1-9.8C1889.2,540.1,1887.1,537.8,1884.3,536.8z
					 M1244.9,306.9c-15,23.6-23.1,48.6-23.1,70.6c0,29.3,5.4,57.9,16.8,83.6c2.5,5.6,1.4,12.2-2.9,16.6
					c-21.1,21.4-67.2,51.2-133.1,51.2h-16.1c-14.7,0-26.6-11.9-26.6-26.6v-89.7v-4.8c0-5,7.5-11.2,15.9-9.5
					c12.9,2.5,35.6,10.6,53.7,21.1c12.7,7.4,24.2,15.1,37.4,26c5.8,4.8,14.6,0.6,14.6-6.9v-28.2v-55.7v-28.2
					c0-7.5-8.8-11.7-14.6-6.9c-13.2,10.9-24.7,18.6-37.4,26c-18.1,10.4-41.5,21.4-54.3,24.4c-9.9,2.3-13.4-1.6-15.3-5.3v-5.4v-88
					c0-14,11.4-25.4,25.4-25.4h32.6c53.4,0,102.1,30.6,125.5,50.8C1246.3,299.1,1247,303.6,1244.9,306.9z"/>
				<path class="st19" d="M3730.9,225.6c-0.8-2.3-3.1-3.8-5.6-3.8h-25.6h-48.1H3626c-2.5,0-4.8,1.5-5.6,3.8
					c-1.1,3.2,0.7,6.4,3.6,7.4c9.2,3,31.3,12.7,31.3,35.9V408c0,5.3-6.2,8.2-10.3,4.8l-146.2-121.3
					c-45.6-37.9-110.2-63.1-152.9-76.9c-9.4-3-15.9,9.4-8,15.4c1.4,1.1,2.8,2.1,4.3,3.2c48.7,36.6,53.9,89.1,53.9,95.1v186.8v9
					c0,7-5.7,12.7-12.7,12.7c-16.3,0-52.8-26.5-71.4-46c-17.5-18.3-25.9-43.5-45.5-66.6c-15.6-18.3-28.9-25.1-28.9-25.1
					c98.3,0,101.2-79.7,101.2-88.6c0-13.3,0-89-123-89h-283.9h-48.3c-2.5,0-4.8,1.5-5.6,3.8c-1.1,3.2,0.7,6.5,3.6,7.4
					c9.2,3,31.3,12.7,31.3,35.9v175c0,60.5-42.3,80.7-76.2,80.7c-61.8,0-85.5-36.4-85.5-82.2v-26.5l0,0v-147
					c0-23.2,22.1-32.9,31.3-35.9c2.4-0.8,4-2.9,4-5.4v-0.1c0-3.1-2.5-5.7-5.7-5.7h-110.9h-17h-223.4h-113.8c-6.9,0-13.3,4-16.3,10.2
					l-18.3,37.9c-3.1,6.5,4.3,12.9,10.3,8.9c24.5-16.6,65.7-35.7,126-38c6.6-0.2,12.1,5.1,12.1,11.7v240c0,11.4-4.2,20.2-9.9,26.9
					c-4.4,5.2-11,8.2-17.9,8.2h-14.8c-4.8,0-9.6-1.3-13.7-4c-9.4-6.1-18.3-14.7-23.7-26.7L2219,207.2c-5.6-12.3-22.8-12.8-29.1-0.9
					L2054.1,464l-39.2,74.3l2.7,14.2h39.4h7h85.5l0,0c7.3,0,10.8-9.1,5.3-14c0,0-0.1,0-0.1-0.1c-2.4-2.1-4.5-4-6-5.4
					c-11.6-10.4-11.2-17.6-11.5-23.7c-0.3-6.1,1-12.2,3.8-17.6l87.2-165.4l74.4,165.1c2.5,5.5,3.7,11.6,3.2,17.6
					c-0.1,0.8-0.1,1.5-0.2,2c-1.4,7.8-8.4,23.5-21.5,23.5h-0.2c-2.6,0-5.2,0.8-7.3,2.4c-8.6,6.6-4,15.5,2.6,15.5h109.7h6.4h86.7
					h25.6h52.4c4.5,0,8.4-3.4,8.6-7.9c0.2-3.6-2-7-5.3-8.2c-11-4.2-35.3-16.7-35.3-44.1v-240c0-6.8,5.5-12,12.3-11.7
					c46.6,1.8,81.8,13.6,106.6,26.6c4,2.1,6.5,6.2,6.5,10.7v154.6h0.4c4,71,37.7,125.6,161.2,125.6c71.6,0,138.7-37.5,138.7-106.6
					c0-8.5,0-177.2,0-177.2c0-10.5,3.3-17.9,7.5-23c6.1-7.5,15.5-11.5,25.2-11.5h14.6c9.7,0,19.1,4,25.2,11.5
					c4.2,5.2,7.5,12.6,7.5,23v214.5c0,31.9-25.3,43.9-37.1,47.8c-2.8,0.9-5.1,3.2-5.7,6.2c-1,5.2,2.9,9.8,8,9.8h52.8h59.6h55.2
					c3.4,0,6.6-2,7.8-5.2c1.7-4.6-0.8-9.3-5-10.7c-11.6-3.8-37.4-15.8-37.4-47.9V285.4v-24.2c0-18.2,15.6-24.8,26.3-24.8h30.7
					c28.6,0,57,24.1,57,64.3c0,59-38.4,73.3-54.1,73.3c-10.5,0-18.7,0.2-27.4-3c0,0-0.1,0-0.1-0.1c-5.5-2.6-11.4,2.5-9.6,8.3
					c0.1,0.3,0.1,0.5,0.2,0.5c9.2,31.2,25.8,78.9,48.4,109.3c35.1,47.3,101.7,85,213.4,85h48c3,0,5.8-1.8,6.7-4.6
					c1.3-3.9-0.9-7.8-4.5-8.9c-9.6-2.9-30-11.6-30-33.3v-157c0-5.3,6.2-8.2,10.3-4.8l232,192.6c6.7,5.5,16.7,0.8,16.7-7.9V268.9
					c0-23.2,22.1-32.9,31.3-35.9C3730.2,232.1,3732,228.9,3730.9,225.6z"/>
			</g>
		</g>
	</g>
</g>
</svg>
