<?xml version="1.0" encoding="utf-8"?>
<!-- Generator: Adobe Illustrator 25.2.1, SVG Export Plug-In . SVG Version: 6.00 Build 0)  -->
<svg version="1.1" id="Layer_1" xmlns="http://www.w3.org/2000/svg" xmlns:xlink="http://www.w3.org/1999/xlink" x="0px" y="0px"
	 viewBox="0 0 3839 411.1" style="enable-background:new 0 0 3839 411.1;" xml:space="preserve">
<style type="text/css">
	.st0{fill:#3852A0;}
	.st1{fill:#FFFFFF;}
	.st2{fill:#010101;}
</style>
<g>
	<g>
		<path d="M557.7,401.3c-144.7,0-281-19.5-383.6-55C68.2,309.7,9.9,259.7,9.9,205.6S68.2,101.4,174.1,64.9
			c102.6-35.4,238.8-55,383.6-55h2723.7c144.7,0,281,19.5,383.6,55c105.9,36.6,164.2,86.6,164.2,140.7
			c0,54.2-58.3,104.1-164.2,140.7c-102.6,35.4-238.8,55-383.6,55H557.7z"/>
		<path class="st1" d="M3281.3,19.8c297.1,0,537.9,83.2,537.9,185.8c0,102.6-240.8,185.8-537.9,185.8H557.7
			c-297.1,0-537.9-83.2-537.9-185.8C19.8,103,260.6,19.8,557.7,19.8H3281.3 M3281.3,0H557.7C411.8,0,274.5,19.7,170.9,55.5
			c-51.6,17.8-92.4,38.8-121.3,62.4C34,130.6,21.9,144.1,13.7,158C4.6,173.4,0,189.4,0,205.6c0,16.2,4.6,32.2,13.7,47.5
			c8.3,13.9,20.3,27.4,35.9,40.1c28.9,23.6,69.7,44.6,121.3,62.4c103.6,35.8,241,55.5,386.8,55.5h2723.7
			c145.8,0,283.2-19.7,386.8-55.5c51.6-17.8,92.4-38.8,121.3-62.4c15.5-12.7,27.6-26.2,35.9-40.1c9.1-15.3,13.7-31.3,13.7-47.5
			c0-16.2-4.6-32.2-13.7-47.5c-8.3-13.9-20.3-27.4-35.9-40.1c-28.9-23.6-69.7-44.6-121.3-62.4C3564.5,19.7,3427.2,0,3281.3,0
			L3281.3,0z"/>
	</g>
	<path class="st1" d="M3255.5,52.4h-2672c-251.3,0-454.9,68.6-454.9,153.1c0,84.6,203.7,153.1,454.9,153.1h2672
		c251.3,0,454.9-68.6,454.9-153.1C3710.5,121,3506.8,52.4,3255.5,52.4z"/>
	<g>
		<rect x="450.3" y="161.5" class="st2" width="93.8" height="155.6"/>
		<rect x="656.6" y="161.5" class="st2" width="93.8" height="155.6"/>
		<rect x="863" y="161.5" class="st2" width="93.8" height="155.6"/>
		<rect x="1823.7" y="161.5" class="st2" width="93.8" height="155.6"/>
		<path class="st2" d="M954.5,147.5H450.3V94l450.7,0C930.5,94,954.5,118,954.5,147.5L954.5,147.5z"/>
		<rect x="1008.9" y="94" class="st2" width="334.6" height="53.5"/>
		<path class="st2" d="M1102.8,249.7v-13.9h221.7v-53.5h-207.8c-7.7,0-13.9-6.2-13.9-13.9v-6.8h-93.8v20.7v53.5v16.1
			c0,36,29.2,65.3,65.2,65.3h269.3v-53.5h-226.8C1109,263.6,1102.8,257.4,1102.8,249.7z"/>
		<path class="st2" d="M2197.7,147.5h-373.9v0c0-29.6,24-53.5,53.5-53.5h266.9C2173.7,94,2197.7,118,2197.7,147.5L2197.7,147.5z"/>
		<polygon class="st2" points="2103.8,161.5 2103.8,209 1931.5,209 1931.5,272.3 2103.8,272.3 2103.8,317.1 2197.7,317.1 
			2197.7,161.5 		"/>
		<g>
			<ellipse class="st2" cx="239.2" cy="205.6" rx="59.9" ry="59.9"/>
			<ellipse class="st2" cx="3589.5" cy="205.6" rx="59.9" ry="59.9"/>
		</g>
		<path class="st2" d="M1760.2,147.5h-371.7v0c0-29.6,24-53.5,53.5-53.5h318.2V147.5z"/>
		<path class="st2" d="M1553.6,182.3v53.5H1671c7.7,0,13.9,6.2,13.9,13.9v0c0,7.7-6.2,13.9-13.9,13.9h-174.8
			c-7.7,0-13.9-6.2-13.9-13.9v-88.2h-93.8l0,90.4c0,36,29.2,65.3,65.2,65.3h28.6h229.1c37.2,0,67.4-30.2,67.4-67.4v0
			c0-37.2-30.2-67.4-67.4-67.4H1553.6z"/>
		<rect x="3015.9" y="161.5" class="st2" width="93.8" height="155.6"/>
		<path class="st2" d="M3312.3,161.5v88.2c0,7.7-6.2,13.9-13.9,13.9h-174.8v53.5h217.2c36,0,65.2-29.2,65.2-65.3v-90.4H3312.3z"/>
		<path class="st2" d="M3406.2,147.5h-390.3V94h336.8C3382.2,94,3406.2,118,3406.2,147.5L3406.2,147.5z"/>
		<path class="st2" d="M2939.2,147.5h-373.9v0c0-29.6,24-53.5,53.5-53.5h266.9C2915.2,94,2939.2,118,2939.2,147.5L2939.2,147.5z"/>
		<rect x="2292.2" y="150.1" class="st2" width="178.6" height="97.8"/>
		<path class="st2" d="M2856,263.6h-183c-7.7,0-13.9-6.2-13.9-13.9v-88.2h-93.8l0,90.4c0,36,29.2,65.3,65.2,65.3h255.2
			c29.6,0,53.5-24,53.5-53.5v0H2856z"/>
	</g>
</g>
</svg>
