<?xml version="1.0" encoding="utf-8"?>
<!-- Generator: Adobe Illustrator 25.4.1, SVG Export Plug-In . SVG Version: 6.00 Build 0)  -->
<svg version="1.1" id="Layer_1" xmlns="http://www.w3.org/2000/svg" xmlns:xlink="http://www.w3.org/1999/xlink" x="0px" y="0px"
	 viewBox="0 0 3839 928.5" style="enable-background:new 0 0 3839 928.5;" xml:space="preserve">
<style type="text/css">
	.st0{fill:#DA221F;}
	.st1{fill:#FFFFFF;}
	.st2{fill:#002F82;}
</style>
<g>
	<g>
		<g>
			<path class="st1" d="M2242.5,901.6v-17.1c39.7-2.4,50.8-20.7,81-51.3l397-392.2L2345.8,57.4c-9.6-9.8-23.8-28.1-63.5-28.1V12.3
				H2657v17.1c-20.6,0-33.4,4.9-33.4,17.1c0,4.9,7.9,14.7,23.8,30.6l216,222.3L3089,75.9c12.7-13.5,22.2-23.2,22.2-30.6
				c0-9.8-12.7-15.9-27-15.9V12.3h352.5v17.1c-52.4,1.2-73,22-103.2,51.3L2987.4,424l400.2,409.3c31.8,33,42.9,50.1,85.7,51.3v17.1
				h-371.6v-17.1c23.8,0,30.2-3.6,30.2-15.9c0-11-27-35.4-57.1-66l-231.9-235.8l-281.1,278.6c-7.9,8.6-14.3,12.2-14.3,23.2
				c0,9.8,12.7,15.9,33.3,15.9v17.1H2242.5z"/>
		</g>
		<g>
			<path class="st1" d="M414.5,333.5h22.2c6.3,20.7,31.8,30.6,120.7,30.6c217.6,0,276.4-54.9,276.4-107.5
				c0-56.2-76.3-112.4-243-112.4c-214.4,0-362.1,90.4-362.1,130.7c0,8.6,3.2,15.9,6.3,22l-19,12.2L47.6,139.2l22.2-9.8
				c6.3,3.6,14.3,7.3,23.8,7.3C139.7,136.8,236.6,0,605.1,0c258.9,0,454.2,107.5,454.2,248c0,83.1-58.8,147.8-160.4,171v2.4
				c133.4,36.6,225.6,106.2,225.6,222.3c0,157.7-200.1,270-508.2,270c-414.5,0-505-110-559.1-110c-12.7,0-22.2,4.9-31.8,11L0,807.5
				l127.1-210.2l23.8,11c0,3.6-1.6,8.6-1.6,14.7c0,47.7,176.3,146.6,440,146.6c200,0.1,309.6-53.6,309.6-130.6
				c0-67.2-82.6-140.4-312.9-140.4c-119.1,0-144.5,13.5-149.3,35.4h-22.2V333.5H414.5z"/>
		</g>
		<g>
			<path class="st1" d="M1174.2,180.8l22.2-13.5c3.2,3.6,9.6,6.1,19,6.1C1260,173.4,1379.1,0,1717.4,0
				c196.9,0,443.1,86.7,443.1,256.5c0,325-606.7,290.8-768.6,496h765.5c34.9,0,47.7-9.8,47.7-29.3h22.2v205.2H2205
				c0-17.1-12.7-26.9-47.7-26.9H1137.7c0-445.9,797.3-426.4,797.3-636.5c0-79.4-119.1-120.9-227.1-120.9
				c-182.6,0-338.2,117.3-338.2,171c0,11,6.3,18.3,12.7,24.4l-20.6,14.7L1174.2,180.8z"/>
		</g>
	</g>
	<g>
		<path class="st1" d="M3735.1,236.6v-53.2c-4.3,7.4-9.5,14.2-15.7,20.2c-18.4,18.2-42.7,28.2-68.6,28.2c0,0-0.4,0-0.4,0
			c-26-0.1-50.4-10.3-68.7-28.8c-18.2-18.5-28.2-42.8-28.2-68.6V12.3l103.8,0.4v53.5c17.2-30,49-48.7,84.3-48.7
			c9.2,0,18.6,1.3,27.7,3.9c41,11.4,69.6,49.3,69.6,92.1v123.2H3735.1z"/>
		<path class="st1" d="M3742.4,170v59.2h89.2V113.5c0-39.5-26.1-74.4-64.2-85c-48.1-13.5-92.9,12.4-109.2,52.7l0,0
			c-1.9,4.1-8.2,2.7-8.2-1.8l0,0V20.1l-89.1-0.4v114.8c0,23.8,9.3,46.3,26,63.4c16.9,17,39.4,26.5,63.6,26.6
			c24,0.1,46.7-9.2,63.7-26c8.8-8.7,15.5-18.9,20-30l0,0c0-0.1,0.1-0.2,0.1-0.3C3736.3,164.1,3742.4,165.4,3742.4,170z"/>
		<path class="st1" d="M3553.4,731.4h7l-7,6.9V618.9l244.8,85.1c24.3,8.4,40,30.5,40,56.2c0,25.8-15.7,47.9-40,56.3l-244.8,85.1
			V731.4z"/>
		<path class="st1" d="M3795.8,809.5c21.3-7.4,35-26.8,35-49.3c0-22.6-13.8-41.9-35-49.3l-235.1-81.7v45.9v2.6v45.9l43.1,15h-43.1
			v106.6v12.1v33.9L3795.8,809.5z"/>
		<path class="st1" d="M3553.5,642.8V536.5c0-53.7,43.7-97.3,97.3-97.3h90.8c53.7,0,97.3,43.7,97.3,97.3v106.3H3553.5z"/>
		<path class="st1" d="M3831.6,635.5v-99c0-49.6-40.4-90-90-90h-90.8c-49.6,0-90,40.4-90,90v99L3831.6,635.5L3831.6,635.5z"/>
		<path class="st1" d="M3735.1,447.2v-30.8h-77.7v30.8h-103.8V325.4c0-53.7,43.7-97.3,97.3-97.3h90.8c53.7,0,97.3,43.7,97.3,97.3
			v121.8H3735.1z"/>
		<path class="st1" d="M3831.6,439.8V325.4c0-49.6-40.4-90-90-90h-90.8c-49.6,0-90,40.4-90,90v114.5h45.7h43.4V409h92.5v30.8H3831.6
			z"/>
		<path d="M3793.8,434.4v-109c0-28.7-23.3-52-52-52h-90.8c-28.7,0-52,23.3-52,52v109h-32.7v-109c0-46.6,37.9-84.6,84.6-84.6h90.8
			c46.6,0,84.6,37.9,84.6,84.6v109H3793.8z"/>
		<path d="M3567.5,433.1V325.4c0-45.9,37.4-83.4,83.4-83.4h90.8c45.9,0,83.4,37.4,83.4,83.4v107.8H3795V325.4
			c0-29.4-23.9-53.2-53.2-53.2h-90.8c-29.4,0-53.2,23.9-53.2,53.2v107.8H3567.5z"/>
		<path d="M3612,434.5V325.3c0-10.4,4.1-20.1,11.5-27.4c7.3-7.3,17-11.3,27.5-11.3h38.7l-0.1,116.9h-32.5l0.1-84.4h-6.3
			c-1.8,0-3.3,0.6-4.5,1.8c-0.8,0.8-1.8,2.3-1.8,4.4v109.1H3612z"/>
		<path d="M3613.2,433.1V325.3c0-10,4-19.5,11.1-26.5c7.1-7.1,16.6-10.9,26.6-10.9h37.5l-0.1,114.5h-30.1l0.1-84.4h-7.6
			c-2.8,0-4.5,1.3-5.4,2.2c-0.9,0.9-2.2,2.6-2.2,5.3v107.9L3613.2,433.1L3613.2,433.1z"/>
		<path d="M3747.9,434.5V325.3c0-2.2-1.3-3.7-1.8-4.3c-0.6-0.5-2.1-1.8-4.4-1.8h-6.3l0.1,84.4h-32.5l-0.2-116.9h38.8
			c10.3,0,20,4,27.4,11.3c7.4,7.4,11.5,17.1,11.5,27.4v109.2H3747.9z"/>
		<path d="M3704,287.8h37.6c10,0,19.3,3.8,26.5,10.9c7.1,7.1,11.1,16.5,11.1,26.5v108h-30.1v-108c0-2.6-1.4-4.4-2.2-5.2
			c-0.9-0.8-2.6-2.2-5.3-2.2h-7.6l0.1,84.4h-30.1L3704,287.8z"/>
		<rect x="3566.3" y="744.1" width="32.5" height="107.8"/>
		<rect x="3567.5" y="745.3" width="30.1" height="105.4"/>
		<path d="M3566.3,630.1v-93.7c0-46.6,37.9-84.6,84.6-84.6h90.8c46.6,0,84.6,37.9,84.6,84.6V630h-32.5v-93.6c0-28.7-23.3-52-52-52
			h-90.8c-28.7,0-52,23.3-52,52v61.1h104l-0.1-54.2h32.5l0.1,86.8H3566.3z"/>
		<path d="M3567.5,628.8v-92.4c0-45.9,37.4-83.4,83.4-83.4h90.8c45.9,0,83.4,37.4,83.4,83.4v92.4H3795v-92.4
			c0-29.4-23.9-53.2-53.2-53.2h-90.8c-29.4,0-53.2,23.9-53.2,53.2v62.3h106.4l-0.1-54.2h30.1l0.1,84.3L3567.5,628.8L3567.5,628.8z"
			/>
		<path d="M3747.9,630.2v-93.7c0-2-4.3-6.1-6.2-6.1h-90.8c-1.8,0-3.3,0.6-4.5,1.8c-0.8,0.8-1.8,2.3-1.8,4.4v15.2h12.6v-8.4l32.5,0.1
			l-0.1,40.8H3612v-47.9c0-10.4,4.1-20.1,11.5-27.4c7.3-7.3,17-11.3,27.5-11.3h90.6c10.3,0,20,4,27.4,11.3
			c7.4,7.4,11.5,17.1,11.5,27.4v93.8H3747.9z"/>
		<path d="M3613.2,583v-46.6c0-10,4-19.5,11.1-26.5c7.1-7.1,16.6-10.9,26.6-10.9h90.6c10,0,19.3,3.8,26.5,10.9
			c7.1,7.1,11.1,16.5,11.1,26.5v92.5h-30.1v-92.5c0-2.6-4.8-7.4-7.5-7.4h-90.8c-2.8,0-4.5,1.3-5.4,2.2s-2.2,2.6-2.2,5.3v16.5h15
			v-8.4l30.1,0.1l-0.1,38.4L3613.2,583L3613.2,583z"/>
		<rect x="3612" y="744.1" width="32.5" height="53.5"/>
		<rect x="3613.2" y="745.3" width="30.1" height="51"/>
		<polygon points="3612,784.8 3682.6,760.3 3566.3,719.8 3566.3,685.4 3781.7,760.3 3612,819.2 		"/>
		<polygon points="3567.5,718.9 3686.4,760.3 3613.2,785.7 3613.2,817.5 3777.9,760.3 3567.5,687.1 		"/>
		<path d="M3566.3,849.4l217.1-75.5c8.9-3.1,9.6-11.1,9.6-13.5s-0.7-10.4-9.6-13.5l-217.1-75.5v-34.5l227.8,79.3
			c19.1,6.7,31.4,24,31.4,44.2c0,20.2-12.3,37.5-31.4,44.2l-227.8,79.1V849.4z"/>
		<path d="M3567.5,670.5l216.3,75.2c9.7,3.3,10.4,12.1,10.4,14.6c0,2.6-0.8,11.3-10.4,14.6l-216.3,75.2v31.9l226.2-78.6
			c18.6-6.5,30.6-23.4,30.6-43.1c0-19.7-12-36.6-30.6-43.1l-226.2-78.8V670.5z"/>
		<path d="M3793.7,223.8v-109c0-28.7-23.3-52-52-52h-0.2c-28.7,0-52,23.3-52,52v19.9c-0.1,21.3-17.5,38.6-38.8,38.6c0,0-0.2,0-0.2,0
			c-21.3-0.1-38.5-17.5-38.5-38.7l-0.1-109.2l32.5,0.1v109.1c0,3.4,2.8,6.2,6.2,6.2c3.5,0,6.3-2.8,6.3-6.2v-19.7
			c0-46.6,37.9-84.6,84.6-84.6c46.6,0,84.6,37.9,84.6,84.6v109H3793.7z"/>
		<path d="M3794.9,114.8v107.8h30.1V114.8c0-45.9-37.4-83.4-83.4-83.4c-45.9,0-83.4,37.4-83.4,83.4v19.7c0,4.1-3.4,7.5-7.6,7.5
			c-4.1,0-7.5-3.3-7.5-7.5V26.7l-30.1-0.1l0.1,107.8c0,0.1,0,0.1,0,0.2c0,20.6,16.7,37.4,37.3,37.5c20.7,0.1,37.6-16.7,37.7-37.3
			v-19.9l0,0c0-29.4,23.9-53.2,53.2-53.2C3771.1,61.5,3794.9,85.4,3794.9,114.8z"/>
		<path d="M3747.9,223.8v-109c0-3.3-2.8-6-6.3-6c-3.4,0-6.2,2.8-6.2,6.2v20.1c-0.1,22.5-9,43.7-25.1,59.6
			c-15.9,15.8-37,24.5-59.5,24.5l-0.4,0c-22.5-0.1-43.7-9-59.6-25.1c-15.8-16-24.5-37.1-24.5-59.5V25.2l32.5,0.1v109.3
			c0,13.8,5.3,26.8,15.1,36.6c9.8,9.9,22.8,15.3,36.8,15.4l0.4,0c13.7,0,26.7-5.3,36.5-15.1c9.9-9.8,15.3-22.8,15.4-36.7v-20
			c0-21.4,17.4-38.7,38.8-38.7c21.4,0,38.7,17.4,38.7,38.7v109H3747.9z"/>
		<path d="M3749.1,114.8v107.8h30.1V114.8c0-20.7-16.8-37.5-37.5-37.5c-20.7,0-37.6,16.8-37.6,37.5v20c-0.1,14.3-5.6,27.6-15.8,37.6
			c-10.1,10-23.5,15.5-37.7,15.4c-14.3-0.1-27.6-5.6-37.6-15.8c-10-10-15.4-23.4-15.4-37.4c0-0.1,0-0.2,0-0.3V26.6l-30.1-0.1v107.8
			c0,0.1,0,0.3,0,0.4c0,22.1,8.5,42.9,24.1,58.7c15.7,15.8,36.6,24.6,58.8,24.7c22.3,0.1,43.3-8.4,59.1-24.1
			c15.8-15.7,24.6-36.6,24.7-58.8V115c0-4.1,3.3-7.5,7.5-7.5C3745.7,107.5,3749.1,110.7,3749.1,114.8z"/>
	</g>
</g>
</svg>
