<?xml version="1.0" encoding="utf-8"?>
<!-- Generator: Adobe Illustrator 26.0.3, SVG Export Plug-In . SVG Version: 6.00 Build 0)  -->
<svg version="1.1" id="Layer_1" xmlns="http://www.w3.org/2000/svg" xmlns:xlink="http://www.w3.org/1999/xlink" x="0px" y="0px"
	 viewBox="0 0 3839 771.2" style="enable-background:new 0 0 3839 771.2;" xml:space="preserve">
<style type="text/css">
	.st0{display:none;}
	.st1{display:inline;}
	.st2{fill:url(#SVGID_1_);}
	.st3{fill:url(#SVGID_00000108269665963322194580000009626044449812404882_);}
	.st4{clip-path:url(#SVGID_00000031196054218656618590000007524022077862502064_);}
	.st5{clip-path:url(#SVGID_00000057143106801591304230000008425649985462654364_);fill:none;}
	.st6{fill:none;}
	.st7{fill:url(#SVGID_00000173138910516652820910000015904401267732939910_);}
	.st8{clip-path:url(#SVGID_00000040552433343090547730000018098774536222993812_);}
	.st9{clip-path:url(#SVGID_00000008108315171084523370000012310052237533575102_);}
	.st10{clip-path:url(#SVGID_00000020365322004123790130000015334466603344517804_);}
	.st11{fill:url(#SVGID_00000037693584524886827330000002840406821746058683_);}
	.st12{fill:url(#SVGID_00000135660452273771647390000013768811007261608323_);}
	.st13{clip-path:url(#SVGID_00000155828820244317264460000004902518944556877487_);}
	.st14{clip-path:url(#SVGID_00000153694943442644022330000003045563177503078025_);fill:none;}
	.st15{fill:url(#SVGID_00000065778970552657577660000002659482576421190827_);}
	.st16{clip-path:url(#SVGID_00000079463459162183652670000003585260932597585560_);}
	.st17{clip-path:url(#SVGID_00000034799118304100280220000001968350681944869292_);}
	.st18{clip-path:url(#SVGID_00000012465042315054065580000008960017272713114008_);}
	.st19{fill:#FFFFFF;}
	.st20{fill:url(#SVGID_00000035520125509090040670000018187357136974613654_);}
	.st21{fill:url(#SVGID_00000178903427222218271440000000618365484687098770_);}
	.st22{clip-path:url(#SVGID_00000022518205127732665580000009269047587446113428_);fill:#FFFFFF;}
	.st23{clip-path:url(#SVGID_00000127731552232037988220000009114357567191098287_);fill:none;}
	.st24{fill:url(#SVGID_00000077299359528495895070000004912103317889067693_);}
	.st25{clip-path:url(#SVGID_00000040563128545744668530000018279271232143874733_);fill:#FFFFFF;}
	.st26{clip-path:url(#SVGID_00000127021636165155414460000014664182958731734684_);fill:#FFFFFF;}
	.st27{clip-path:url(#SVGID_00000114038735145800900240000003675843306861169809_);}
	.st28{clip-path:url(#SVGID_00000114038735145800900240000003675843306861169809_);fill:#FFFFFF;}
	.st29{fill:url(#SVGID_00000163763403076850787540000004268850502611742645_);}
	.st30{fill:url(#SVGID_00000105395536973630455920000017540907071397652120_);}
	.st31{clip-path:url(#SVGID_00000024715503356272715310000017069877016546898869_);fill:#FFFFFF;}
	.st32{clip-path:url(#SVGID_00000018939334683086242970000008479097603455244674_);fill:none;}
	.st33{fill:url(#SVGID_00000067919256666682808630000013071934273142971035_);}
	.st34{clip-path:url(#SVGID_00000111902872094566630590000013845960758325912467_);fill:#FFFFFF;}
	.st35{clip-path:url(#SVGID_00000086660311813859056020000014474307973061966742_);fill:#FFFFFF;}
	.st36{clip-path:url(#SVGID_00000149348779966462208510000006611101583793494149_);}
	.st37{clip-path:url(#SVGID_00000149348779966462208510000006611101583793494149_);fill:#FFFFFF;}
	.st38{clip-path:url(#SVGID_00000010289850400970156120000014067585560309447602_);}
	.st39{clip-path:url(#SVGID_00000061436969920234788240000002896904161408151737_);}
	.st40{clip-path:url(#SVGID_00000073707277530859846150000014751045479519594939_);}
	.st41{clip-path:url(#SVGID_00000176000877522454131090000008575470086361852307_);}
	.st42{clip-path:url(#SVGID_00000047777936676745439850000002329950516589882298_);}
	.st43{clip-path:url(#SVGID_00000090278297694416739960000004997205565515624603_);}
	.st44{clip-path:url(#SVGID_00000084496975914267664020000004969595741012166032_);fill:#FFFFFF;}
	.st45{clip-path:url(#SVGID_00000106119850367086745400000006202933997597855892_);fill:#FFFFFF;}
	.st46{clip-path:url(#SVGID_00000111154087137539792770000014953074838476675210_);}
	.st47{clip-path:url(#SVGID_00000111154087137539792770000014953074838476675210_);fill:#FFFFFF;}
	.st48{clip-path:url(#SVGID_00000052085141113550326030000011300216745414063022_);fill:#FFFFFF;}
	.st49{clip-path:url(#SVGID_00000064318889859087381900000005781172511971631250_);fill:#FFFFFF;}
	.st50{clip-path:url(#SVGID_00000169519667342421462150000006926319703069019046_);}
	.st51{clip-path:url(#SVGID_00000169519667342421462150000006926319703069019046_);fill:#FFFFFF;}
	.st52{fill:url(#SVGID_00000146494875285631841210000002448254392211814788_);}
	.st53{fill:url(#SVGID_00000037678261235084276290000014091547652676708764_);}
	.st54{clip-path:url(#SVGID_00000103258284846172481310000008739590770016364673_);}
	.st55{clip-path:url(#SVGID_00000041988256835084340010000007772999687098006680_);fill:none;}
	.st56{fill:url(#SVGID_00000112605634496855724950000006119643476916308415_);}
	.st57{fill:url(#SVGID_00000131366392910199113700000002585430154623500971_);}
	.st58{clip-path:url(#SVGID_00000099657266263523586330000004866277948261461653_);}
	.st59{clip-path:url(#SVGID_00000136383993727264441590000015087452640318760356_);fill:none;}
	.st60{fill:url(#SVGID_00000180335840182604732510000013054776371031152527_);}
	.st61{clip-path:url(#SVGID_00000183956936180684362250000006237375170486408079_);}
	.st62{clip-path:url(#SVGID_00000040536129047020484660000005989734068945095582_);}
	.st63{clip-path:url(#SVGID_00000152981947300035265410000011875680633098256044_);}
	.st64{fill:url(#SVGID_00000088851551017230354760000011203836176673436555_);}
	.st65{clip-path:url(#SVGID_00000119099054277948028730000010300780575207681949_);}
	.st66{clip-path:url(#SVGID_00000007403468201989324430000002724489803372609193_);}
	.st67{clip-path:url(#SVGID_00000033327155729201274030000010759217921686056617_);}
	.st68{clip-path:url(#SVGID_00000170265025756910233230000006648604424486157184_);}
	.st69{clip-path:url(#SVGID_00000084525949466990449850000000395366977300569240_);}
	.st70{clip-path:url(#SVGID_00000045596127265757186800000013420790824249680029_);}
	.st71{fill:url(#SVGID_00000073687299927915351270000010067599923776675476_);}
	.st72{clip-path:url(#SVGID_00000003818661668455342470000004736318209853554060_);}
	.st73{clip-path:url(#SVGID_00000016048229294513780050000008634706694800882082_);}
	.st74{clip-path:url(#SVGID_00000083769623223733238710000009578700807140142503_);}
	.st75{fill:url(#SVGID_00000056390487136096768510000011931265097642226322_);}
	.st76{fill:url(#SVGID_00000060712486617657088060000008159315458434503863_);}
	.st77{clip-path:url(#SVGID_00000085968700488543103300000010973924241317001145_);}
	.st78{clip-path:url(#SVGID_00000158017050775795265670000015684422651796219319_);fill:none;}
	.st79{clip-path:url(#SVGID_00000018214468896539769360000013160033759010752674_);}
	.st80{clip-path:url(#SVGID_00000098899492166389424090000002739562920193912707_);}
	.st81{clip-path:url(#SVGID_00000142884851310746092620000002905942400502996919_);}
	.st82{fill:url(#SVGID_00000101805242549134841300000016466428760010152078_);}
	.st83{clip-path:url(#SVGID_00000017511614084488780290000013449493894689782462_);}
	.st84{clip-path:url(#SVGID_00000164486837888475120720000009562853674843252392_);}
	.st85{clip-path:url(#SVGID_00000036234879647829812080000002817721194803260330_);}
	.st86{clip-path:url(#SVGID_00000114040384295027930810000004482178126036506000_);}
	.st87{clip-path:url(#SVGID_00000037691619133557015890000005392289298422906532_);}
	.st88{clip-path:url(#SVGID_00000110445713183464049940000004899323485524471208_);}
	.st89{clip-path:url(#SVGID_00000157285183986568688740000010697189297672863879_);}
	.st90{clip-path:url(#SVGID_00000001660719024235874640000011794515399630245807_);}
	.st91{clip-path:url(#SVGID_00000069356911118143929110000014623892827973689228_);}
	.st92{fill:url(#SVGID_00000011717181635602223490000008042522594202062248_);}
	.st93{clip-path:url(#SVGID_00000170259257835522880570000014515735654536065708_);}
	.st94{clip-path:url(#SVGID_00000029027787978168664320000006481852548196242596_);}
	.st95{clip-path:url(#SVGID_00000010281028406581257170000018041144323502493060_);}
	.st96{clip-path:url(#SVGID_00000013174292958218342870000005047015324399064495_);}
	.st97{clip-path:url(#SVGID_00000075851023068321892020000007996376403870277513_);fill:#FFFFFF;}
	.st98{clip-path:url(#SVGID_00000150794855031595328340000007706517211405251740_);}
	.st99{clip-path:url(#SVGID_00000029731901502384473290000008263527657279132338_);}
	.st100{clip-path:url(#SVGID_00000138566591598980081810000005614558291081613493_);fill:#FFFFFF;}
	.st101{clip-path:url(#SVGID_00000083076892989966529580000014028058379890434488_);}
	.st102{fill:url(#SVGID_00000039125235403217488820000010043028575986778785_);}
	.st103{fill:url(#SVGID_00000126312379494125609590000009613857172625153174_);}
	.st104{clip-path:url(#SVGID_00000025406599758596956770000017227968278732161664_);}
	.st105{clip-path:url(#SVGID_00000114778815090938893600000017193300308462239915_);fill:none;}
	.st106{clip-path:url(#SVGID_00000165953648457971269080000006296618319334614974_);}
	.st107{clip-path:url(#SVGID_00000013159095453818464810000001765779627069195165_);}
	.st108{clip-path:url(#SVGID_00000073687288742619477620000007949973467225045423_);}
	.st109{fill:url(#SVGID_00000173144971945530531680000012698606281231597730_);}
	.st110{fill:url(#SVGID_00000049910820008130065790000016145347291694469771_);}
	.st111{fill:url(#SVGID_00000070799793028435869430000006774787540230399890_);}
	.st112{clip-path:url(#SVGID_00000003083860699110738040000006299323737631765134_);}
	.st113{clip-path:url(#SVGID_00000088095867427232141120000006053432860434995369_);fill:none;}
	.st114{fill:url(#SVGID_00000111155710561704812240000007497500850993851559_);}
	.st115{fill:url(#SVGID_00000142872379622996885250000007543610540433189284_);}
	.st116{clip-path:url(#SVGID_00000010998867462075897580000012545582137079175809_);}
	.st117{clip-path:url(#SVGID_00000096767765291702187420000005726335196863436989_);fill:none;}
	.st118{clip-path:url(#SVGID_00000048476839584418059050000002555032851822058654_);}
	.st119{clip-path:url(#SVGID_00000181780996186504303110000009332132374873871497_);}
	.st120{clip-path:url(#SVGID_00000026873075652053749920000013684785924761488794_);}
	.st121{fill:url(#SVGID_00000093871525306815017690000009641091432609105599_);}
	.st122{fill:url(#SVGID_00000145036724145116125240000007115324263626748306_);}
	.st123{fill:url(#SVGID_00000137826493925669910730000010217079637170274230_);}
	.st124{clip-path:url(#SVGID_00000156563189435515180010000010093975278243846820_);}
	.st125{clip-path:url(#SVGID_00000127012324231338089520000004555111362842048406_);fill:none;}
	.st126{clip-path:url(#SVGID_00000006697028815312874330000004709067997083395203_);}
	.st127{clip-path:url(#SVGID_00000140000679138481156400000011644493930266359975_);}
	.st128{clip-path:url(#SVGID_00000061455313864131240140000016162303989880970157_);}
	.st129{fill:url(#SVGID_00000150823289782543870220000003854445513099036297_);}
	.st130{fill:url(#SVGID_00000025444353517285880880000002381500086408111279_);}
	.st131{fill:url(#SVGID_00000071534307009543898570000014827060001538430396_);}
	.st132{clip-path:url(#SVGID_00000143618702699837782350000004172717101693839522_);}
	.st133{clip-path:url(#SVGID_00000126288261878359118450000003307489109322201494_);fill:none;}
	.st134{clip-path:url(#SVGID_00000138557995739950530220000011170672861238963391_);}
	.st135{clip-path:url(#SVGID_00000179618049395087588290000008943510193019807143_);}
	.st136{clip-path:url(#SVGID_00000052080778250906576210000004030572301457610153_);}
	.st137{fill:url(#SVGID_00000114043950207830528350000006844704813590270865_);}
	.st138{fill:url(#SVGID_00000107552075520254065160000005642890422677794713_);}
	.st139{fill:url(#SVGID_00000088845834953203476590000001412230194226793859_);}
	.st140{clip-path:url(#SVGID_00000121273101337826019360000010919403721941335713_);}
	.st141{clip-path:url(#SVGID_00000100342679458385985620000002857233902203074481_);fill:none;}
	.st142{clip-path:url(#SVGID_00000124152420177998965350000001552363720269440174_);}
	.st143{clip-path:url(#SVGID_00000024692519119036435570000007740167363643264651_);}
	.st144{clip-path:url(#SVGID_00000013889744527865263640000014325863082437919926_);}
	.st145{fill:url(#SVGID_00000063620992760785833970000008453557475710795138_);}
	.st146{fill:url(#SVGID_00000181781085248455734820000015281831274914405001_);}
	.st147{fill:url(#SVGID_00000141428779028627732680000004063095082298328728_);}
	.st148{clip-path:url(#SVGID_00000092439815793838893410000008137252655920114049_);}
	.st149{clip-path:url(#SVGID_00000177453062437882479620000008508976045315420577_);fill:none;}
	.st150{clip-path:url(#SVGID_00000116214568430584156720000014463859070597578665_);}
	.st151{clip-path:url(#SVGID_00000072278157363086105910000015975360320186268591_);fill:#FFFFFF;}
	.st152{clip-path:url(#SVGID_00000113341170457930473660000008388538064231464601_);}
	.st153{fill:url(#SVGID_00000091736878767464738580000011914850486461267641_);}
	.st154{fill:url(#SVGID_00000012456541459760160020000002863729140544500896_);}
	.st155{fill:url(#SVGID_00000116223808950614644570000000665111502930622643_);}
	.st156{clip-path:url(#SVGID_00000170256094667803290310000014831302345730205629_);fill:#FFFFFF;}
	.st157{clip-path:url(#SVGID_00000089565984290750847080000016285793551965069465_);fill:none;}
	.st158{clip-path:url(#SVGID_00000117646770910515342060000016514625815170066308_);}
	.st159{clip-path:url(#SVGID_00000150825348491111693310000005820750516508517533_);fill:#FFFFFF;}
	.st160{clip-path:url(#SVGID_00000112600276039668109370000008161977286658777735_);}
	.st161{fill:url(#SVGID_00000159457936846106261570000008632119046777525923_);}
	.st162{fill:url(#SVGID_00000165201854855508666550000000223228564840181386_);}
	.st163{fill:url(#SVGID_00000102505291461152133910000002145276406716476058_);}
	.st164{clip-path:url(#SVGID_00000150803679916388672610000015602346236109364386_);fill:#FFFFFF;}
	.st165{clip-path:url(#SVGID_00000021079576649219546110000006380166695274610065_);fill:none;}
</style>
<g class="st0">
	<g class="st1">
		<g>
			<g>
				<path class="st19" d="M3763.7,347.6h-18.4v-11.3h50.2v11.3h-18.4v49.9h-13.5L3763.7,347.6L3763.7,347.6z"/>
				<path class="st19" d="M3802.6,336.3h19l14.3,42.1h0.2l13.6-42.1h19v61.3h-12.6v-43.4h-0.2l-15,43.4h-10.4l-15-43h-0.2v43h-12.7
					V336.3z"/>
			</g>
			<path class="st19" d="M2016.9-146.7c2.9-1.5,6.3-3.1,10.2-4.9c12.8-6,23,12,11.3,19.9c-4.1,2.8-7.8,5.3-10.8,7.4
				c-37.7,26.4-70.7,57.5-70.7,162.7c0,132.1,109.3,260.9,109.3,356.6c0,74.3-21,142.4-185.7,222.3c-5.4,2.6-11.9,0.6-14.9-4.6l0,0
				c-3.2-5.5-1.1-12.6,4.5-15.6c65.8-35.2,85.1-108.1,82.3-170.7c-5.8-130.2-111.3-242.2-109.3-349
				C1844.3,13.7,1869.6-72.5,2016.9-146.7z"/>
			<path class="st19" d="M1914,384c-9.3-3.5-28.3-13.5-40.2-39.9L1743.3,54.7c-5.5-12.3-22.8-12.8-29.1-0.9l-96.6,183.4
				c-5,9.5-14.9,15.5-25.6,15.5h-115.9h-3.9c-3.9,0-7.8,3.1-8.4,6.9c-0.8,5,2.8,9.2,7.6,9.6c32.2,2.9,51.5,24.4,51.2,59.1
				c-0.2,32-26.9,58.2-59,58.2h-8.4c-85.8,0-89.5-98.6-89.5-120.1c0-25.1,0-75.4,0-75.4c0-37,14.9-102,87.2-102
				c67.5,0,105.5,31.1,136.4,72.3c5.1,6.8,15.8,1.2,13.2-6.9l-27.1-84.9c-2.6-8.2-12.2-11.8-19.6-7.3
				c-19.9,12.2-31.6,10.2-31.6,10.2c-9.8,0.3-41-8.6-78.9-8.6c-60.5,0-109.3,24-142.8,56.3c-3.3,3.2-8.8,2.1-10.5-2.2L1271.9,69
				h-182.4v-0.1h-89.6c-5.7,0-11.3-0.2-17-0.5c-30.7-1.7-138.6-7.3-193.8-7.3c-69.2,0-123.4,21.7-128.9,72.7
				c-4.1,38.4,22.5,58.4,37.8,72.4c8.3,7.6,47.1,32.2,67.1,41.4c20.8,9.6,103.8,51.2,95.2,84.2c-8.6,32.7-36.6,40.7-69,40.7
				c-50.8,0-105.4-42.1-145.8-79.8c-7-6.6-17.9,1.6-13.5,10.2c16.7,32.7,38.1,72.4,52.1,93.4c4,5.9,11.2,8.8,18.2,7
				c15.1-3.8,34.6-5.8,46.5-5.2c15.3,0.7,47.2,4.9,61.2,4.9c116.4,0,152.9-30.6,156.7-83.7c5.2-73-81.9-121.6-135-142.9
				c-47.4-19.1-65.8-47.9-63.8-62.2c3.3-24.8,26.9-29,46.7-28.2c61.2,2.3,176.7,32.2,176.7,74.2c0,0,0,186.7,0,194.9
				c0,10.9-11.9,30.5-26.9,30.5h-0.3c-2.7,0-5.4,1-7.4,2.9c-5.2,5.2-1.6,11.4,3.4,11.4h65l0,0h64.4h183.8c5.9,0,11.1-3.5,13.4-9
				l10-24.4c1.9-4.7,7.9-6.1,11.7-2.7c32.8,29.6,80.8,48.2,146.4,48.2c15.3,0,47-4.2,61.8-9.6c4.7-1.7,9.7-2.6,14.7-2.6h122.9h19.8
				c7.3,0,10.8-9.1,5.3-14c-2.4-2.1-4.6-4.1-6.1-5.5c-11.7-10.6-11.2-17.8-11.5-23.9c-0.3-6,1-12,3.8-17.4l87.1-165.4l74.4,165.1
				c2.5,5.5,3.7,11.6,3.2,17.6c-0.1,0.8-0.1,1.5-0.2,2c-1.4,7.8-8.4,23.5-21.5,23.5h-2.1c-3.2,0-6.4,1.1-8.8,3.2
				c-7.3,6.5-2.8,14.7,3.6,14.7h110.1c5.1,0,9.1-4.6,8.1-9.8C1918.9,387.3,1916.8,385,1914,384z M1274.6,154.1
				c-15,23.6-23.1,48.6-23.1,70.6c0,29.3,5.4,57.9,16.8,83.6c2.5,5.6,1.4,12.2-2.9,16.6c-21.1,21.4-67.2,51.2-133.1,51.2h-16.1
				c-14.7,0-26.6-11.9-26.6-26.6v-89.7V255c0-5,7.5-11.2,15.9-9.5c12.9,2.5,35.6,10.6,53.7,21.1c12.7,7.4,24.2,15.1,37.4,26
				c5.8,4.8,14.6,0.6,14.6-6.9v-28.2v-55.7v-28.2c0-7.5-8.8-11.7-14.6-6.9c-13.2,10.9-24.7,18.6-37.4,26
				c-18.1,10.4-41.5,21.4-54.3,24.4c-9.9,2.3-13.4-1.6-15.3-5.3v-5.4v-88c0-14,11.4-25.4,25.4-25.4h32.6
				c53.4,0,102.1,30.6,125.5,50.8C1276,146.3,1276.7,150.8,1274.6,154.1z"/>
			<path class="st19" d="M3760.6,72.8c-0.8-2.3-3.1-3.8-5.6-3.8h-25.6h-48.1h-25.6c-2.5,0-4.8,1.5-5.6,3.8c-1.1,3.2,0.7,6.4,3.6,7.4
				c9.2,3,31.3,12.7,31.3,35.9v139.1c0,5.3-6.2,8.2-10.3,4.8l-146.2-121.3c-45.6-37.9-110.2-63.1-152.9-76.9c-9.4-3-15.9,9.4-8,15.4
				c1.4,1.1,2.8,2.1,4.3,3.2c48.7,36.6,53.9,89.1,53.9,95.1v186.8v9c0,7-5.7,12.7-12.7,12.7c-16.3,0-52.8-26.5-71.4-46
				c-17.5-18.3-25.9-43.5-45.5-66.6c-15.6-18.3-28.9-25.1-28.9-25.1c98.3,0,101.2-79.7,101.2-88.6c0-13.3,0-89-123-89h-283.9h-48.3
				c-2.5,0-4.8,1.5-5.6,3.8c-1.1,3.2,0.7,6.5,3.6,7.4c9.2,3,31.3,12.7,31.3,35.9v175c0,60.5-42.3,80.7-76.2,80.7
				c-61.8,0-85.5-36.4-85.5-82.2v-26.5l0,0v-147c0-23.2,22.1-32.9,31.3-35.9c2.4-0.8,4-2.9,4-5.4v-0.1c0-3.1-2.5-5.7-5.7-5.7h-110.9
				h-17h-223.4h-113.8c-6.9,0-13.3,4-16.3,10.2l-18.3,37.9c-3.1,6.5,4.3,12.9,10.3,8.9c24.5-16.6,65.7-35.7,126-38
				c6.6-0.2,12.1,5.1,12.1,11.7v240c0,11.4-4.2,20.2-9.9,26.9c-4.4,5.2-11,8.2-17.9,8.2h-14.8c-4.8,0-9.6-1.3-13.7-4
				c-9.4-6.1-18.3-14.7-23.7-26.7L2248.7,54.4c-5.6-12.3-22.8-12.8-29.1-0.9l-135.8,257.7l-39.2,74.3l2.7,14.2h39.4h7h85.5l0,0
				c7.3,0,10.8-9.1,5.3-14c0,0-0.1,0-0.1-0.1c-2.4-2.1-4.5-4-6-5.4c-11.6-10.4-11.2-17.6-11.5-23.7c-0.3-6.1,1-12.2,3.8-17.6
				l87.2-165.4l74.4,165.1c2.5,5.5,3.7,11.6,3.2,17.6c-0.1,0.8-0.1,1.5-0.2,2c-1.4,7.8-8.4,23.5-21.5,23.5h-0.2
				c-2.6,0-5.2,0.8-7.3,2.4c-8.6,6.6-4,15.5,2.6,15.5h109.7h6.4h86.7h25.6h52.4c4.5,0,8.4-3.4,8.6-7.9c0.2-3.6-2-7-5.3-8.2
				c-11-4.2-35.3-16.7-35.3-44.1v-240c0-6.8,5.5-12,12.3-11.7c46.6,1.8,81.8,13.6,106.6,26.6c4,2.1,6.5,6.2,6.5,10.7v154.6h0.4
				c4,71,37.7,125.6,161.2,125.6c71.6,0,138.7-37.5,138.7-106.6c0-8.5,0-177.2,0-177.2c0-10.5,3.3-17.9,7.5-23
				c6.1-7.5,15.5-11.5,25.2-11.5h14.6c9.7,0,19.1,4,25.2,11.5c4.2,5.2,7.5,12.6,7.5,23v214.8c0,31.9-25.3,43.9-37.1,47.8
				c-2.8,0.9-5.1,3.2-5.7,6.2c-1,5.2,2.9,9.8,8,9.8h52.8h59.6h55.2c3.4,0,6.6-2,7.8-5.2c1.7-4.6-0.8-9.3-5-10.7
				c-11.6-3.8-37.4-15.8-37.4-47.9V132.6v-24.2c0-18.2,15.6-24.8,26.3-24.8h30.7c28.6,0,57,24.1,57,64.3c0,59-38.4,73.3-54.1,73.3
				c-10.5,0-18.7,0.2-27.4-3c0,0-0.1,0-0.1-0.1c-5.5-2.6-11.4,2.5-9.6,8.3c0.1,0.3,0.1,0.5,0.2,0.5c9.2,31.2,25.8,78.9,48.4,109.3
				c35.1,47.3,101.7,85,213.4,85h48c3,0,5.8-1.8,6.7-4.6c1.3-3.9-0.9-7.8-4.5-8.9c-9.6-2.9-30-11.6-30-33.3v-157
				c0-5.3,6.2-8.2,10.3-4.8l232,192.6c6.7,5.5,16.7,0.8,16.7-7.9V116.1c0-23.2,22.1-32.9,31.3-35.9
				C3759.9,79.3,3761.7,76.1,3760.6,72.8z"/>
		</g>
		<g>
			<g>
				<defs>
					<circle id="SVGID_00000148642731037987369530000003902468452550620813_" cx="325.1" cy="238.9" r="184.6"/>
				</defs>
				<clipPath id="SVGID_00000154413162665792989760000010734982243679493283_">
					<use xlink:href="#SVGID_00000148642731037987369530000003902468452550620813_"  style="overflow:visible;"/>
				</clipPath>
				<polygon style="clip-path:url(#SVGID_00000154413162665792989760000010734982243679493283_);fill:#FFFFFF;" points="278.4,423 
					129.3,272.8 157.1,330.5 248.6,419.4 				"/>
			</g>
			<g>
				<defs>
					<path id="SVGID_00000153694929490254482390000006780192416834850229_" d="M232.9,313.7c24.6-6,49.2-11.7,73.8-17.5
						c24.7-5.8,48.9-13.2,72.9-21.4c23.7-8.1,47.1-17.2,70.9-24.8c19.7-6.3,39.8-12.1,58.8-20.4c-1.6-32.7-11.7-63.1-28.2-89.1
						c-21.2,6.1-42.8,11.3-64.2,16.8c-24.5,6.4-48.9,13.2-73.3,20c-24.2,6.7-48.5,13.4-72.7,20.2c-24,6.8-47.9,13.8-71.4,22.1
						c-11.8,4.1-23.5,8-35.5,11.7c-5.8,1.8-11.7,3.6-17.4,5.7c-2.1,0.7-4.2,1.4-6.3,2.1c0,34,9.2,65.8,25.3,93.2
						C187.9,325.2,210.3,319.2,232.9,313.7z"/>
				</defs>
				<clipPath id="SVGID_00000116946119423465871080000012157225358264561285_">
					<use xlink:href="#SVGID_00000153694929490254482390000006780192416834850229_"  style="overflow:visible;"/>
				</clipPath>
				<path style="clip-path:url(#SVGID_00000116946119423465871080000012157225358264561285_);fill:#FFFFFF;" d="M126.3,405.2
					c-8.9,0-17.6-0.2-26.1-0.6c-12.8-0.6-23-11.3-22.5-24.2c0.5-13,11.5-23.1,24.5-22.4c72.8,3.7,171.4-10.7,263.8-38.4
					c90.3-27.2,161.5-62.7,190.5-95.1c3.4-3.8,8.4-10,10.6-16.3c1.5-4.3-1.2-8.9-5.7-9.7c-9.7-1.6-31.4-1.8-78.1,9.4
					c-49.6,11.9-111.3,32.4-170.9,52.3c-61.8,20.6-120.1,40-166.8,50.8c-46.9,10.8-96.8,17.1-111.4-18.2
					c-5.8-13.9-8.9-35.9,8.9-61.6c38.5-55.3,156.4-97.2,223.2-117.2c100.2-30.2,207.1-48,272.2-45.5c12.9,0.5,22.9,11.3,22.4,24.2
					c-0.5,12.9-11.3,22.9-24.2,22.4c-60.4-2.3-161.3,14.7-257.2,43.4c-100.8,30.2-176.8,68.2-198.3,99.1c-1.1,1.6-2,3.1-2.7,4.5
					c-2,3.8-0.4,10.1,6.4,10.7c10.2,0.9,29.6-1.5,64.9-11c42.4-11.3,93.5-27.9,147.7-46c154.8-51.6,251.9-81,294.7-55.1
					c12,7.2,19.5,18.3,21.7,32.1c3.4,20.9-4.3,42-22.9,62.7c-35,39.1-112.2,78.7-211.8,108.6C291.4,390.6,200.8,405.2,126.3,405.2z"
					/>
			</g>
			<g>
				<path class="st19" d="M465.3,118.8c27.1-3.2,51.5-4.5,71.5-3.8c12.9,0.5,23.7-9.5,24.2-22.4c0.5-12.9-9.5-23.7-22.4-24.2
					c-32.2-1.2-74.8,2.5-121.6,10.3C435.3,89.2,451.7,102.8,465.3,118.8z"/>
				<path class="st19" d="M84.9,272.8c-6.8-0.6-8.4-6.9-6.4-10.7c0.7-1.4,1.6-2.9,2.7-4.5c9.9-14.2,31.2-29.9,61.2-45.6
					c3.2-21.8,10.2-42.3,20.2-60.9c-49.5,21.3-97.5,48.5-119.5,80.1c-17.8,25.7-14.7,47.7-8.9,61.6c14.6,35.3,64.5,29,111.4,18.2
					c2.8-0.7,5.7-1.3,8.6-2c-5.8-14.2-10-29.4-12.1-45.1C111.7,271.6,94.4,273.6,84.9,272.8z"/>
				<path class="st19" d="M614,192.8c-2.2-13.8-9.7-24.9-21.7-32.1c-20.8-12.6-54.4-12.1-101.1-2.4c6.8,14,11.9,29,15,44.6
					c31.3-6.1,47.4-5.7,55.3-4.4c4.5,0.8,7.2,5.4,5.7,9.7c-2.2,6.3-7.2,12.5-10.6,16.3c-10.7,12-27.2,24.4-48.2,36.6
					c-2.6,22.1-9.2,42.9-18.9,61.9c45.8-21.3,81-44.5,101.6-67.5C609.7,234.8,617.4,213.7,614,192.8z"/>
				<path class="st19" d="M182.2,355.8c-28.7,2.6-55.8,3.4-80,2.1c-13-0.7-24,9.4-24.5,22.4c-0.5,12.9,9.7,23.6,22.5,24.2
					c8.5,0.4,17.2,0.6,26.1,0.6c32.1,0,67.2-2.7,103.8-7.9C211.9,386.3,195.7,372.2,182.2,355.8z"/>
				<path class="st6" d="M417,78.7c-27.1-15.6-58.5-24.5-91.9-24.5c-70.2,0-131.2,39.2-162.4,96.8c37.1-15.9,75.1-28.5,103.7-37.1
					C316.9,98.7,369.2,86.6,417,78.7z"/>
				<path class="st6" d="M142.4,212c-1.3,8.8-1.9,17.8-1.9,26.9c0,8.5,0.6,16.8,1.7,24.9c2.5-0.6,5.1-1.3,7.7-2
					c42.4-11.3,93.5-27.9,147.7-46c79.7-26.6,144.1-47.2,193.6-57.5c-6.9-14.3-15.7-27.5-25.9-39.4c-55.1,6.4-121.5,20.4-185.8,39.6
					C225,174.8,177.7,193.4,142.4,212z"/>
				<path class="st6" d="M230.2,397.3c27.7,16.7,60.2,26.2,94.9,26.2c71.7,0,133.8-40.9,164.4-100.5c-32,14.9-69.2,28.8-110.2,41.1
					C329.3,379.2,278.4,390.4,230.2,397.3z"/>
				<path class="st6" d="M508.4,261c0.9-7.3,1.3-14.7,1.3-22.2c0-12.3-1.2-24.3-3.5-36c-6.8,1.3-14.4,3-22.8,5
					c-49.6,11.9-111.3,32.4-170.9,52.3c-58.1,19.4-113.1,37.7-158.3,48.8c7,17.1,16.5,32.9,28,46.9c57.7-5.2,122.2-17.8,183.9-36.3
					C423,302.4,472.4,282,508.4,261z"/>
			</g>
			<g>
				<defs>
					<circle id="SVGID_00000104702151330394627680000010558174251772672944_" cx="325.1" cy="238.9" r="184.6"/>
				</defs>
				<clipPath id="SVGID_00000048467717580826720860000015681302726899949696_">
					<use xlink:href="#SVGID_00000104702151330394627680000010558174251772672944_"  style="overflow:visible;"/>
				</clipPath>
				<g style="clip-path:url(#SVGID_00000048467717580826720860000015681302726899949696_);">
					<g>
						<path class="st19" d="M345.2-19.8c0,0,101.1,121.2,125,144.3c23,22.3,166,143.8,166,143.8l-4.2,19.3l-311-302.2"/>
						<path class="st19" d="M325.7-4.8c0,0,102.3,121.1,126.2,144.2c23,22.3,164.6,144.3,164.6,144.3l-5,18.8L302.2,1"/>
						<path class="st19" d="M306.2,10.3c0,0,103.6,121,127.5,144.2c23,22.3,163.2,144.7,163.2,144.7l-5.7,18.3l-307.9-301"/>
						<path class="st19" d="M286.6,25.3c0,0,104.8,121,128.7,144.1c23,22.3,161.8,145.1,161.8,145.1l-6.5,17.8L264.4,31.9"/>
						<path class="st19" d="M267.1,40.3c0,0,106,120.9,129.9,144c23,22.3,160.5,145.6,160.5,145.6l-7.3,17.4L245.5,47.3"/>
						<path class="st19" d="M247.6,55.3c0,0,107.2,120.8,131.1,143.9c23,22.3,159.1,146,159.1,146l-8.1,16.9L226.5,62.8"/>
						<path class="st19" d="M228.1,70.4c0,0,108.4,120.7,132.3,143.8c23,22.3,157.7,146.4,157.7,146.4l-8.8,16.4L207.6,78.2"/>
						<path class="st19" d="M208.6,85.4c0,0,109.6,120.6,133.6,143.7c23,22.3,156.3,146.9,156.3,146.9l-9.6,15.9L188.7,93.7"/>
						<path class="st19" d="M189.1,100.4c0,0,110.9,120.5,134.8,143.6c23,22.3,154.9,147.3,154.9,147.3l-10.4,15.4L169.8,109.1"/>
						<path class="st19" d="M169.6,115.4c0,0,112.1,120.4,136,143.5c23,22.3,153.5,147.7,153.5,147.7l-11.1,14.9l-297-297.1"/>
						<path class="st19" d="M150.1,130.5c0,0,113.3,120.4,137.2,143.5c23,22.3,152.1,148.2,152.1,148.2l-11.9,14.4L132,140"/>
						<path class="st19" d="M130.6,145.5c0,0,114.5,120.3,138.4,143.4c23,22.3,150.7,148.6,150.7,148.6l-12.7,14L113.1,155.5"/>
						<path class="st19" d="M111.1,160.5c0,0,115.7,120.2,139.6,143.3c23,22.3,149.3,149.1,149.3,149.1l-13.5,13.5L94.2,170.9"/>
						<path class="st19" d="M91.6,175.5c0,0,117,120.1,140.9,143.2c23,22.3,147.9,149.5,147.9,149.5l-14.2,13L75.3,186.4"/>
						<path class="st19" d="M72.1,190.6c0,0,118.2,120,142.1,143.1c23,22.3,146.5,149.9,146.5,149.9l-15,12.5L56.4,201.9"/>
					</g>
				</g>
				
					<rect x="191.1" y="336.7" transform="matrix(0.7482 -0.6634 0.6634 0.7482 -194.0483 224.1718)" style="clip-path:url(#SVGID_00000048467717580826720860000015681302726899949696_);fill:#FFFFFF;" width="14.5" height="62.1"/>
				
					<rect x="456.1" y="89" transform="matrix(0.7071 -0.7071 0.7071 0.7071 57.5014 359.4782)" style="clip-path:url(#SVGID_00000048467717580826720860000015681302726899949696_);fill:#FFFFFF;" width="13.2" height="42.7"/>
			</g>
		</g>
	</g>
</g>
<g>
	<g>
		<g>
			<defs>
				<circle id="SVGID_00000177471211882820439690000005040472731132593835_" cx="295.4" cy="391.6" r="184.6"/>
			</defs>
			<clipPath id="SVGID_00000111876376537914245400000011009163785518282153_">
				<use xlink:href="#SVGID_00000177471211882820439690000005040472731132593835_"  style="overflow:visible;"/>
			</clipPath>
			<g style="clip-path:url(#SVGID_00000111876376537914245400000011009163785518282153_);">
				<polygon class="st19" points="248.7,575.8 99.7,425.5 127.5,483.3 218.9,572.2 				"/>
			</g>
		</g>
		<g>
			<defs>
				<path id="SVGID_00000067228683989240842650000005103151723871806366_" d="M206,461.7c24.8-5.6,49.6-11,74.2-17.4
					c24.8-6.5,49-14.4,73.1-23.2c23.9-8.8,47.7-18.1,71.3-27.6c11.2-4.5,22.5-8.6,33.9-12.5c6.9-2.4,13.8-4.9,20.6-7.7
					c-2.8-28.6-12.2-55.2-26.5-78.5c-21.2,7.6-43.2,12.9-64.8,19.2c-24.1,7.1-48.1,14.3-72,22.2c-23.9,7.9-47.6,16.1-71.6,23.6
					c-24.2,7.5-48.5,14.7-72.6,22.6c-20.1,6.6-40.1,14.2-60.6,19.4c1.5,27.4,9,53.3,21.1,76.2C157.2,474.5,181.4,467.2,206,461.7z"
					/>
			</defs>
			<clipPath id="SVGID_00000008142206462334857790000013273888643047349642_">
				<use xlink:href="#SVGID_00000067228683989240842650000005103151723871806366_"  style="overflow:visible;"/>
			</clipPath>
			<path style="clip-path:url(#SVGID_00000008142206462334857790000013273888643047349642_);fill:#FFFFFF;" d="M96.7,558
				c-8.9,0-17.6-0.2-26.1-0.6c-12.8-0.6-23-11.3-22.5-24.2c0.5-13,11.5-23.1,24.5-22.4c72.8,3.7,171.4-10.7,263.8-38.4
				c90.3-27.2,161.5-62.7,190.5-95.1c3.4-3.8,8.4-10,10.6-16.3c1.5-4.3-1.2-8.9-5.7-9.7c-9.7-1.6-31.4-1.8-78.1,9.4
				c-49.6,11.9-111.3,32.4-170.9,52.3c-61.8,20.6-120.1,40-166.8,50.8C69,474.5,19.1,480.8,4.5,445.5c-5.8-13.9-8.9-35.9,8.9-61.6
				c38.5-55.3,156.4-97.2,223.2-117.2c100.2-30.2,207.1-48,272.2-45.5c12.9,0.5,22.9,11.3,22.4,24.2c-0.5,12.9-11.3,22.9-24.2,22.4
				c-60.4-2.3-161.3,14.7-257.2,43.4c-100.8,30.2-176.8,68.2-198.3,99.1c-1.1,1.6-2,3.1-2.7,4.5c-2,3.8-0.4,10.1,6.4,10.7
				c10.2,0.9,29.6-1.5,64.9-11c42.4-11.3,93.5-27.9,147.7-46c154.8-51.6,251.9-81,294.7-55.1c12,7.2,19.5,18.3,21.7,32.1
				c3.4,20.9-4.3,42-22.9,62.7c-35,39.1-112.2,78.7-211.8,108.6C261.7,543.4,171.2,558,96.7,558z"/>
		</g>
		<g>
			<g>
				<path class="st19" d="M435.7,271.6c27.1-3.2,51.5-4.5,71.5-3.8c12.9,0.5,23.7-9.5,24.2-22.4c0.5-12.9-9.5-23.7-22.4-24.2
					c-32.2-1.2-74.8,2.5-121.6,10.3C405.6,242,422,255.6,435.7,271.6z"/>
			</g>
			<g>
				<path class="st19" d="M55.2,425.5c-6.8-0.6-8.4-6.9-6.4-10.7c0.7-1.4,1.6-2.9,2.7-4.5c9.9-14.2,31.2-29.9,61.2-45.6
					c3.2-21.8,10.2-42.3,20.2-60.9c-49.5,21.3-97.5,48.5-119.5,80.1c-17.8,25.7-14.7,47.7-8.9,61.6c14.6,35.3,64.5,29,111.4,18.2
					c2.8-0.7,5.7-1.3,8.6-2c-5.8-14.2-10-29.4-12.1-45.1C82,424.4,64.7,426.4,55.2,425.5z"/>
			</g>
			<g>
				<path class="st19" d="M584.3,345.5c-2.2-13.8-9.7-24.9-21.7-32.1c-20.8-12.6-54.4-12.1-101.1-2.4c6.8,14,11.9,29,15,44.6
					c31.3-6.1,47.4-5.7,55.3-4.4c4.5,0.8,7.2,5.4,5.7,9.7c-2.2,6.3-7.2,12.5-10.6,16.3c-10.7,12-27.2,24.4-48.2,36.6
					c-2.6,22.1-9.2,42.9-18.9,61.9c45.8-21.3,81-44.5,101.6-67.5C580,387.5,587.7,366.4,584.3,345.5z"/>
			</g>
			<g>
				<path class="st19" d="M152.5,508.6c-28.7,2.6-55.8,3.4-80,2.1c-13-0.7-24,9.4-24.5,22.4c-0.5,12.9,9.7,23.6,22.5,24.2
					c8.5,0.4,17.2,0.6,26.1,0.6c32.1,0,67.2-2.7,103.8-7.9C182.2,539.1,166,525,152.5,508.6z"/>
			</g>
			<g>
				<path class="st6" d="M387.3,231.5c-27.1-15.6-58.5-24.5-91.9-24.5c-70.2,0-131.2,39.2-162.4,96.8
					c37.1-15.9,75.1-28.5,103.7-37.1C287.3,251.5,339.5,239.4,387.3,231.5z"/>
			</g>
			<g>
				<path class="st6" d="M112.7,364.8c-1.3,8.8-1.9,17.8-1.9,26.9c0,8.5,0.6,16.8,1.7,24.9c2.5-0.6,5.1-1.3,7.7-2
					c42.4-11.3,93.5-27.9,147.7-46C347.6,342,412,321.3,461.5,311c-6.9-14.3-15.7-27.5-25.9-39.4c-55.1,6.4-121.5,20.4-185.8,39.6
					C195.3,327.6,148,346.2,112.7,364.8z"/>
			</g>
			<g>
				<path class="st6" d="M200.5,550c27.7,16.7,60.2,26.2,94.9,26.2c71.7,0,133.8-40.9,164.4-100.5c-32,14.9-69.2,28.8-110.2,41.1
					C299.6,531.9,248.7,543.2,200.5,550z"/>
			</g>
			<g>
				<path class="st6" d="M478.7,413.8c0.9-7.3,1.3-14.7,1.3-22.2c0-12.3-1.2-24.3-3.5-36c-6.8,1.3-14.4,3-22.8,5
					c-49.6,11.9-111.3,32.4-170.9,52.3c-58.1,19.4-113.1,37.7-158.3,48.8c7,17.1,16.5,32.9,28,46.9c57.7-5.2,122.2-17.8,183.9-36.3
					C393.4,455.2,442.7,434.7,478.7,413.8z"/>
			</g>
		</g>
		<g>
			<defs>
				<circle id="SVGID_00000044863120447939273000000005485658992418346937_" cx="295.4" cy="391.6" r="184.6"/>
			</defs>
			<clipPath id="SVGID_00000062160370222041433140000003153721424278162825_">
				<use xlink:href="#SVGID_00000044863120447939273000000005485658992418346937_"  style="overflow:visible;"/>
			</clipPath>
			<g style="clip-path:url(#SVGID_00000062160370222041433140000003153721424278162825_);">
				<g>
					<path class="st19" d="M315.5,133c0,0,101.1,121.2,125,144.3c23,22.3,166,143.8,166,143.8l-4.2,19.3l-311-302.2"/>
					<path class="st19" d="M296,148c0,0,102.3,121.1,126.2,144.2c23,22.3,164.6,144.3,164.6,144.3l-5,18.8L272.5,153.7"/>
					<path class="st19" d="M276.5,163c0,0,103.6,121,127.5,144.2c23,22.3,163.2,144.7,163.2,144.7l-5.7,18.3l-307.9-301"/>
					<path class="st19" d="M257,178.1c0,0,104.8,121,128.7,144.1c23,22.3,161.8,145.1,161.8,145.1l-6.5,17.8L234.7,184.6"/>
					<path class="st19" d="M237.5,193.1c0,0,106,120.9,129.9,144c23,22.3,160.5,145.6,160.5,145.6l-7.3,17.4L215.8,200.1"/>
					<path class="st19" d="M218,208.1c0,0,107.2,120.8,131.1,143.9c23,22.3,159.1,146,159.1,146l-8.1,16.9L196.9,215.6"/>
					<path class="st19" d="M198.4,223.1c0,0,108.4,120.7,132.3,143.8c23,22.3,157.7,146.4,157.7,146.4l-8.8,16.4L178,231"/>
					<path class="st19" d="M178.9,238.2c0,0,109.6,120.6,133.6,143.7c23,22.3,156.3,146.9,156.3,146.9l-9.6,15.9L159.1,246.5"/>
					<path class="st19" d="M159.4,253.2c0,0,110.9,120.5,134.8,143.6c23,22.3,154.9,147.3,154.9,147.3l-10.4,15.4L140.2,261.9"/>
					<path class="st19" d="M139.9,268.2c0,0,112.1,120.4,136,143.5c23,22.3,153.5,147.7,153.5,147.7l-11.1,14.9l-297-297.1"/>
					<path class="st19" d="M120.4,283.2c0,0,113.3,120.4,137.2,143.5c23,22.3,152.1,148.2,152.1,148.2l-11.9,14.4L102.4,292.8"/>
					<path class="st19" d="M100.9,298.3c0,0,114.5,120.3,138.4,143.4c23,22.3,150.7,148.6,150.7,148.6l-12.7,14L83.4,308.3"/>
					<path class="st19" d="M81.4,313.3c0,0,115.7,120.2,139.6,143.3c23,22.3,149.3,149.1,149.3,149.1l-13.5,13.5L64.5,323.7"/>
					<path class="st19" d="M61.9,328.3c0,0,117,120.1,140.9,143.2c23,22.3,147.9,149.5,147.9,149.5l-14.2,13L45.6,339.2"/>
					<path class="st19" d="M42.4,343.3c0,0,118.2,120,142.1,143.1c23,22.3,146.5,149.9,146.5,149.9l-15,12.5L26.7,354.6"/>
				</g>
			</g>
			<g style="clip-path:url(#SVGID_00000062160370222041433140000003153721424278162825_);">
				
					<rect x="161.4" y="489.5" transform="matrix(0.7482 -0.6634 0.6634 0.7482 -302.8736 242.9453)" class="st19" width="14.5" height="62.1"/>
			</g>
			<g style="clip-path:url(#SVGID_00000062160370222041433140000003153721424278162825_);">
				
					<rect x="426.4" y="241.7" transform="matrix(0.7071 -0.7071 0.7071 0.7071 -59.2168 383.2391)" class="st19" width="13.2" height="42.7"/>
			</g>
		</g>
	</g>
	<g>
		<g>
			<g>
				<g>
					<path class="st19" d="M3734,500.4h-18.4v-11.3h50.2v11.3h-18.4v49.9h-13.5L3734,500.4L3734,500.4z"/>
					<path class="st19" d="M3772.9,489.1h19l14.3,42.1h0.2l13.6-42.1h19v61.3h-12.6V507h-0.2l-15,43.4h-10.4l-15-43h-0.2v43h-12.7
						V489.1z"/>
				</g>
				<path class="st19" d="M1987.2,6.1c2.9-1.5,6.3-3.1,10.2-4.9c12.8-6,23,12,11.3,19.9c-4.1,2.8-7.8,5.3-10.8,7.4
					c-37.7,26.4-70.7,57.5-70.7,162.7c0,132.1,109.3,260.9,109.3,356.6c0,74.3-21,142.4-185.7,222.3c-5.4,2.6-11.9,0.6-14.9-4.6l0,0
					c-3.2-5.5-1.1-12.6,4.5-15.6c65.8-35.2,85.1-108.1,82.3-170.7c-5.8-130.2-111.3-242.2-109.3-349
					C1814.6,166.5,1839.9,80.3,1987.2,6.1z"/>
				<path class="st19" d="M1884.3,536.8c-9.3-3.5-28.3-13.5-40.2-39.9l-130.5-289.4c-5.5-12.3-22.8-12.8-29.1-0.9L1587.9,390
					c-5,9.5-14.9,15.5-25.6,15.5h-115.9h-3.9c-3.9,0-7.8,3.1-8.4,6.9c-0.8,5,2.8,9.2,7.6,9.6c32.2,2.9,51.5,24.4,51.2,59.1
					c-0.2,32-26.9,58.2-59,58.2h-8.4c-85.8,0-89.5-98.6-89.5-120.1c0-25.1,0-75.4,0-75.4c0-37,14.9-102,87.2-102
					c67.5,0,105.5,31.1,136.4,72.3c5.1,6.8,15.8,1.2,13.2-6.9l-27.1-84.9c-2.6-8.2-12.2-11.8-19.6-7.3
					c-19.9,12.2-31.6,10.2-31.6,10.2c-9.8,0.3-41-8.6-78.9-8.6c-60.5,0-109.3,24-142.8,56.3c-3.3,3.2-8.8,2.1-10.5-2.2l-15-36.4
					c-3.1-7.5-7.1-12.5-15.3-12.5h-172.2v-0.1h-89.6c-5.7,0-11.3-0.2-17-0.5c-30.7-1.7-138.6-7.3-193.8-7.3
					c-69.2,0-123.4,21.7-128.9,72.7C626.4,325,653,345,668.3,359c8.3,7.6,47.1,32.2,67.1,41.4c20.8,9.6,103.8,51.2,95.2,84.2
					c-8.6,32.7-36.6,40.7-69,40.7c-50.8,0-105.4-42.1-145.8-79.8c-7-6.6-17.9,1.6-13.5,10.2c16.7,32.7,38.1,72.4,52.1,93.4
					c4,5.9,11.2,8.8,18.2,7c15.1-3.8,34.6-5.8,46.5-5.2c15.3,0.7,47.2,4.9,61.2,4.9c116.4,0,152.9-30.6,156.7-83.7
					c5.2-73-81.9-121.6-135-142.9c-47.4-19.1-65.8-47.9-63.8-62.2c3.3-24.8,26.9-29,46.7-28.2c61.2,2.3,176.7,32.2,176.7,74.2
					c0,0,0,186.7,0,194.9c0,10.9-11.9,30.5-26.9,30.5h-0.3c-2.7,0-5.4,1-7.4,2.9c-5.2,5.2-1.6,11.4,3.4,11.4h65l0,0h64.4h183.8
					c5.9,0,11.1-3.5,13.4-9l10-24.4c1.9-4.7,7.9-6.1,11.7-2.7c32.8,29.6,80.8,48.2,146.4,48.2c15.3,0,47-4.2,61.8-9.6
					c4.7-1.7,9.7-2.6,14.7-2.6h122.9h19.8c7.3,0,10.8-9.1,5.3-14c-2.4-2.1-4.6-4.1-6.1-5.5c-11.7-10.6-11.2-17.8-11.5-23.9
					c-0.3-6,1-12,3.8-17.4l87.1-165.4l74.4,165.1c2.5,5.5,3.7,11.6,3.2,17.6c-0.1,0.8-0.1,1.5-0.2,2c-1.4,7.8-8.4,23.5-21.5,23.5
					h-2.1c-3.2,0-6.4,1.1-8.8,3.2c-7.3,6.5-2.8,14.7,3.6,14.7h110.1c5.1,0,9.1-4.6,8.1-9.8C1889.2,540.1,1887.1,537.8,1884.3,536.8z
					 M1244.9,306.9c-15,23.6-23.1,48.6-23.1,70.6c0,29.3,5.4,57.9,16.8,83.6c2.5,5.6,1.4,12.2-2.9,16.6
					c-21.1,21.4-67.2,51.2-133.1,51.2h-16.1c-14.7,0-26.6-11.9-26.6-26.6v-89.7v-4.8c0-5,7.5-11.2,15.9-9.5
					c12.9,2.5,35.6,10.6,53.7,21.1c12.7,7.4,24.2,15.1,37.4,26c5.8,4.8,14.6,0.6,14.6-6.9v-28.2v-55.7v-28.2
					c0-7.5-8.8-11.7-14.6-6.9c-13.2,10.9-24.7,18.6-37.4,26c-18.1,10.4-41.5,21.4-54.3,24.4c-9.9,2.3-13.4-1.6-15.3-5.3v-5.4v-88
					c0-14,11.4-25.4,25.4-25.4h32.6c53.4,0,102.1,30.6,125.5,50.8C1246.3,299.1,1247,303.6,1244.9,306.9z"/>
				<path class="st19" d="M3730.9,225.6c-0.8-2.3-3.1-3.8-5.6-3.8h-25.6h-48.1H3626c-2.5,0-4.8,1.5-5.6,3.8
					c-1.1,3.2,0.7,6.4,3.6,7.4c9.2,3,31.3,12.7,31.3,35.9V408c0,5.3-6.2,8.2-10.3,4.8l-146.2-121.3
					c-45.6-37.9-110.2-63.1-152.9-76.9c-9.4-3-15.9,9.4-8,15.4c1.4,1.1,2.8,2.1,4.3,3.2c48.7,36.6,53.9,89.1,53.9,95.1v186.8v9
					c0,7-5.7,12.7-12.7,12.7c-16.3,0-52.8-26.5-71.4-46c-17.5-18.3-25.9-43.5-45.5-66.6c-15.6-18.3-28.9-25.1-28.9-25.1
					c98.3,0,101.2-79.7,101.2-88.6c0-13.3,0-89-123-89h-283.9h-48.3c-2.5,0-4.8,1.5-5.6,3.8c-1.1,3.2,0.7,6.5,3.6,7.4
					c9.2,3,31.3,12.7,31.3,35.9v175c0,60.5-42.3,80.7-76.2,80.7c-61.8,0-85.5-36.4-85.5-82.2v-26.5l0,0v-147
					c0-23.2,22.1-32.9,31.3-35.9c2.4-0.8,4-2.9,4-5.4v-0.1c0-3.1-2.5-5.7-5.7-5.7h-110.9h-17h-223.4h-113.8c-6.9,0-13.3,4-16.3,10.2
					l-18.3,37.9c-3.1,6.5,4.3,12.9,10.3,8.9c24.5-16.6,65.7-35.7,126-38c6.6-0.2,12.1,5.1,12.1,11.7v240c0,11.4-4.2,20.2-9.9,26.9
					c-4.4,5.2-11,8.2-17.9,8.2h-14.8c-4.8,0-9.6-1.3-13.7-4c-9.4-6.1-18.3-14.7-23.7-26.7L2219,207.2c-5.6-12.3-22.8-12.8-29.1-0.9
					L2054.1,464l-39.2,74.3l2.7,14.2h39.4h7h85.5l0,0c7.3,0,10.8-9.1,5.3-14c0,0-0.1,0-0.1-0.1c-2.4-2.1-4.5-4-6-5.4
					c-11.6-10.4-11.2-17.6-11.5-23.7c-0.3-6.1,1-12.2,3.8-17.6l87.2-165.4l74.4,165.1c2.5,5.5,3.7,11.6,3.2,17.6
					c-0.1,0.8-0.1,1.5-0.2,2c-1.4,7.8-8.4,23.5-21.5,23.5h-0.2c-2.6,0-5.2,0.8-7.3,2.4c-8.6,6.6-4,15.5,2.6,15.5h109.7h6.4h86.7
					h25.6h52.4c4.5,0,8.4-3.4,8.6-7.9c0.2-3.6-2-7-5.3-8.2c-11-4.2-35.3-16.7-35.3-44.1v-240c0-6.8,5.5-12,12.3-11.7
					c46.6,1.8,81.8,13.6,106.6,26.6c4,2.1,6.5,6.2,6.5,10.7v154.6h0.4c4,71,37.7,125.6,161.2,125.6c71.6,0,138.7-37.5,138.7-106.6
					c0-8.5,0-177.2,0-177.2c0-10.5,3.3-17.9,7.5-23c6.1-7.5,15.5-11.5,25.2-11.5h14.6c9.7,0,19.1,4,25.2,11.5
					c4.2,5.2,7.5,12.6,7.5,23v214.5c0,31.9-25.3,43.9-37.1,47.8c-2.8,0.9-5.1,3.2-5.7,6.2c-1,5.2,2.9,9.8,8,9.8h52.8h59.6h55.2
					c3.4,0,6.6-2,7.8-5.2c1.7-4.6-0.8-9.3-5-10.7c-11.6-3.8-37.4-15.8-37.4-47.9V285.4v-24.2c0-18.2,15.6-24.8,26.3-24.8h30.7
					c28.6,0,57,24.1,57,64.3c0,59-38.4,73.3-54.1,73.3c-10.5,0-18.7,0.2-27.4-3c0,0-0.1,0-0.1-0.1c-5.5-2.6-11.4,2.5-9.6,8.3
					c0.1,0.3,0.1,0.5,0.2,0.5c9.2,31.2,25.8,78.9,48.4,109.3c35.1,47.3,101.7,85,213.4,85h48c3,0,5.8-1.8,6.7-4.6
					c1.3-3.9-0.9-7.8-4.5-8.9c-9.6-2.9-30-11.6-30-33.3v-157c0-5.3,6.2-8.2,10.3-4.8l232,192.6c6.7,5.5,16.7,0.8,16.7-7.9V268.9
					c0-23.2,22.1-32.9,31.3-35.9C3730.2,232.1,3732,228.9,3730.9,225.6z"/>
			</g>
		</g>
	</g>
</g>
</svg>
