<?xml version="1.0" encoding="utf-8"?>
<!-- Generator: Adobe Illustrator 25.1.0, SVG Export Plug-In . SVG Version: 6.00 Build 0)  -->
<svg version="1.1" id="Layer_1" xmlns="http://www.w3.org/2000/svg" xmlns:xlink="http://www.w3.org/1999/xlink" x="0px" y="0px"
	 viewBox="0 0 3840 506.2" style="enable-background:new 0 0 3840 506.2;" xml:space="preserve">
<style type="text/css">
	.st0{fill:#0C0002;}
	.st1{fill:#FFFFFF;}
	.st2{fill:#FFFFFF;stroke:#000000;stroke-width:6.1889;stroke-linecap:round;stroke-linejoin:round;stroke-miterlimit:10;}
	.st3{fill:#FFFFFF;stroke:#000000;stroke-width:6.1889;stroke-miterlimit:10;}
	.st4{fill:#F3FFFD;}
	.st5{stroke:#FFFFFF;stroke-width:6.1889;stroke-miterlimit:10;}
</style>
<g>
	<g>
		<path class="st1" d="M3442,238.3H398c-219.8,0-398,60-398,134c0,74,178.2,134,398,134H3442c219.8,0,398-60,398-134
			C3840,298.2,3661.8,238.3,3442,238.3z"/>
		<g>
			<rect x="283.2" y="333.7" width="82.1" height="136.1"/>
			<rect x="463.7" y="333.7" width="82.1" height="136.1"/>
			<rect x="644.2" y="333.7" width="82.1" height="136.1"/>
			<rect x="1484.8" y="333.7" width="82.1" height="136.1"/>
			<rect x="2775.9" y="333.7" width="82.1" height="136.1"/>
			<rect x="2394.3" y="333.7" width="82.1" height="136.1"/>
			<polygon points="2754.1,469.8 2646.5,469.8 2605.7,429.1 2655.3,371 			"/>
			<rect x="2001.9" y="333.7" width="82.1" height="136.1"/>
			<rect x="1729.9" y="333.7" width="82.1" height="136.1"/>
			<path d="M724.3,321.5H283.2v-46.8h394.3C703.3,274.6,724.3,295.6,724.3,321.5L724.3,321.5z"/>
			<rect x="772" y="274.6" width="292.7" height="46.8"/>
			<path d="M854,410.8v-12.2h194v-46.8H866.2c-6.7,0-12.2-5.4-12.2-12.2v-6H772v18.1v46.8v14.1c0,31.5,25.6,57.1,57.1,57.1h235.6
				V423H866.2C859.5,423,854,417.6,854,410.8z"/>
			<rect x="3282.9" y="274.6" width="292.7" height="46.8"/>
			<path d="M3365,410.8v-12.2h194v-46.8h-181.8c-6.7,0-12.2-5.4-12.2-12.2v-6h-82.1v18.1v46.8v14.1c0,31.5,25.6,57.1,57.1,57.1
				h235.6V423h-198.5C3370.4,423,3365,417.6,3365,410.8z"/>
			<path d="M1429.3,321.5H1104v0c0-25.9,21-46.8,46.8-46.8h278.4V321.5z"/>
			<path d="M1248.5,351.8v46.8h102.7c6.7,0,12.2,5.4,12.2,12.2v0c0,6.7-5.4,12.2-12.2,12.2h-153c-6.7,0-12.2-5.4-12.2-12.2v-77.1
				H1104l0,79c0,31.5,25.6,57.1,57.1,57.1h25h200.4c32.6,0,59-26.4,59-59v0c0-32.6-26.4-59-59-59H1248.5z"/>
			<path d="M2261.3,333.7v77.1c0,6.7-5.4,12.2-12.2,12.2h-152.9v46.8h190.1c31.5,0,57.1-25.6,57.1-57.1v-79H2261.3z"/>
			<path d="M1812,321.5h-327.2v0c0-25.9,21-46.8,46.8-46.8h233.5C1791,274.6,1812,295.6,1812,321.5L1812,321.5z"/>
			<path d="M2343.4,321.5h-341.5v-46.8h294.7C2322.4,274.6,2343.4,295.6,2343.4,321.5L2343.4,321.5z"/>
			<rect x="2775.9" y="274.6" width="82.1" height="46.8"/>
			<rect x="1579.2" y="375.3" width="209.2" height="55.3"/>
			<path d="M2394.3,321.5L2394.3,321.5l245.1,0v41.6c0,6.7-5.4,12.2-12.2,12.2h-138.6v55.3h170.8c37.5,0,68.2-30.7,68.2-68.2v-19.5
				c0-37.7-30.5-68.2-68.2-68.2h-218.3C2415.3,274.6,2394.3,295.6,2394.3,321.5z"/>
			<circle cx="98.5" cy="366.6" r="52.4"/>
			<circle cx="3735.9" cy="366.6" r="52.4"/>
			<g>
				<polygon points="3221.9,321.5 3252,274.6 3154.4,274.6 3124.2,321.5 				"/>
				<polygon points="3012.5,321.5 2982.4,274.6 2884.8,274.6 2914.9,321.5 				"/>
				<polygon points="3116.4,333.7 3068.4,408.3 3020.4,333.7 2922.8,333.7 3010.4,469.8 3126.4,469.8 3214,333.7 				"/>
			</g>
		</g>
	</g>
	<g>
		<g>
			<g>
				<path class="st1" d="M1738.8,103.7h-65.2v20.3h65.2c12.5,0,22.9-10.4,22.9-22.9s-10.4-22.9-22.9-22.9h-16.7
					c-15.1,0-27.6-12.5-27.6-27.6s12.5-27.6,27.6-27.6h64.6V2.6h-65.2c-26.6,0-48,21.4-48,48s21.4,48,48,48h16.7
					c1.6,0,2.6,1,2.6,2.6C1740.9,102.7,1739.9,103.7,1738.8,103.7z"/>
				<path class="st1" d="M1721.6,48.5h65.2V27.6h-65.2c-12.5,0-22.9,10.4-22.9,22.9s10.4,22.9,22.9,22.9h16.7
					c15.1,0,27.6,12.5,27.6,27.6s-12.5,27.6-27.6,27.6h-64.6v20.3h65.2c26.6,0,48-21.4,48-48s-21.4-48-48-48h-16.7
					c-1.6,0-2.6-1-2.6-2.6C1719.6,49.5,1720.6,48.5,1721.6,48.5z"/>
			</g>
			<g>
				<path class="st1" d="M1955.7,27.6c-8.9,0-15.6,6.8-15.6,15.6v65.2c0,8.9,6.8,15.6,15.6,15.6h42.2V78.2h-32.3v20.3h12v4.7h-12
					c-2.6,0-4.7-2.1-4.7-4.7V52.7c0-2.6,2.1-4.7,4.7-4.7h57.9V27.6H1955.7z"/>
				<path class="st1" d="M2084,124.1h47.4l-32.3-95.9c-1-2.6-3.1-4.7-6.3-4.7c-2.6,0-5.2,2.1-6.3,4.2l-41.7,121.5h24l14.6-43.3v18.2
					H2084z M2092.3,80.3l6.8,20.9H2085L2092.3,80.3z"/>
				<path class="st1" d="M2124.1,24c-4.2-13.6-16.7-24-31.8-24s-27.6,9.9-31.3,23.5L2023,135V53.2h-57.3v20.3h37.5v55.3h-46.9
					c-11.5,0-20.3-9.4-20.3-20.3V43.3c0-11.5,9.4-20.3,20.3-20.3h67.2V2.6h-67.8c-22.4,0-40.7,18.2-40.7,40.7v65.2
					c0,22.4,18.2,40.7,40.7,40.7h83.9l42.2-122.5c1.6-4.7,5.7-7.8,10.9-7.8s9.4,3.1,10.9,7.8l34.4,102.2H2084v20.3h82.4l0,0
					L2124.1,24z"/>
			</g>
			<g>
				<path class="st1" d="M1837.4,128.8c-11.5,0-20.3-9.4-20.3-20.3V43.3c0-11.5,9.4-20.3,20.3-20.3h69.9V2.6h-69.9
					c-22.4,0-40.7,18.2-40.7,40.7v65.2c0,22.4,18.2,40.7,40.7,40.7h69.9v-20.3H1837.4z"/>
				<path class="st1" d="M1842.1,99h50.6V78.7h-70.9V109c0,8.9,6.8,15.6,15.6,15.6h69.9v-20.3h-60.5
					C1844.1,103.7,1842.1,101.7,1842.1,99z"/>
				<path class="st1" d="M1892.6,53.2h-50.6c0-2.6,2.1-4.7,4.7-4.7h60V27.6h-69.3c-8.9,0-15.6,6.8-15.6,15.6v30.2h70.9L1892.6,53.2z
					"/>
			</g>
		</g>
	</g>
</g>
</svg>
