<?xml version="1.0" encoding="utf-8"?>
<!-- Generator: Adobe Illustrator 26.0.3, SVG Export Plug-In . SVG Version: 6.00 Build 0)  -->
<svg version="1.1" id="Layer_1" xmlns="http://www.w3.org/2000/svg" xmlns:xlink="http://www.w3.org/1999/xlink" x="0px" y="0px"
	 viewBox="0 0 3839 791.1" style="enable-background:new 0 0 3839 791.1;" xml:space="preserve">
<style type="text/css">
	.st0{fill:#FFFFFF;}
	.st1{fill-rule:evenodd;clip-rule:evenodd;fill:#FFFFFF;}
	.st2{fill-rule:evenodd;clip-rule:evenodd;}
	.st3{fill:#00AD9C;}
	.st4{fill:#FBB817;}
	.st5{fill:#0174BA;}
	.st6{fill:#EB2027;}
</style>
<g>
	<g>
		<path class="st0" d="M0,0v571.8h89.2v-517h82.7c0,0,60-0.1,80.6,26.9c17.3,22.8,20.7,64.1,20.7,92.1c0,30-2,76-12,93.1
			c-15.3,25.7-40.3,30.9-63.2,30.9h-54.4v50.7h78.4c0,0,70.8,3.1,101.3-27.9c37.2-38,46.7-89,46.7-157.2
			c0-62.1-22.5-124.5-68.5-145.8C263.4,0,194.8,0,194.8,0H0z"/>
		<rect x="440.1" class="st0" width="89.3" height="571.8"/>
		<polygon class="st0" points="1004.3,133.4 1167.6,561.5 1074,791.1 1148,791.1 1418,133.4 1335.2,133.4 1217.5,454 1108.2,133.4 
					"/>
		<path class="st0" d="M1485.1,568.4v-54c0,0,94.4,3.7,114,3.7c43.6,0,65.3-9.3,81.6-26.8c9.8-10.4,18.5-57.2,18.5-73.9
			c0-16.5-3.2-52.3-9.8-66.9c-6.5-14.5-21.6-27.9-44.5-29.8c-16.3-1.4-41.3-4.6-70.8-6c-41.3-1.9-68.4-23.4-81.5-38.9
			c-13-15.6-30.6-38.8-30.6-110c0-71.5,18.6-111.5,37-130.1c18.5-18.5,45.6-26.8,66.5-30.5c23.9-4,63.1-4.3,63.1-4.3l124.8,3.6v54
			c0,0-91-3.6-110.6-3.6c-43.6,0-56.7,9.3-73.1,26.9c-9.6,10.4-17.1,39.2-17.1,55.8c0,16.7,2,50.1,8.5,64.5
			c6.5,14.5,21.8,27.9,44.7,29.8c16.2,1.4,41.2,4.6,70.7,6.1c41.3,2,68.6,23.4,81.6,38.9c13.1,15.6,30.6,48.1,30.6,119.4
			c0,71.4-18.5,122.4-37,141.1c-18.5,18.6-45.6,26.9-66.4,30.4c-23.9,4.1-63.2,4.4-63.2,4.4L1485.1,568.4z"/>
		<path class="st0" d="M1972.2,54.8H1883v419.8c0,0,2.1,38.4,4.3,51.6c2.2,13.5,21.7,45.5,72.9,45.5l92.4-1.8v-54
			c0,0-25.1,1.9-40.2,1.9c-15.3,0-33.8-1-37-26.9c-3.2-25.8-3.2-56.7-3.2-56.7V187.1h100.6v-53.7h-100.6V54.8z"/>
		<rect x="2833.4" y="133.4" class="st0" width="89.3" height="438.3"/>
		<rect x="2833.4" class="st0" width="89.3" height="79.6"/>
		<path class="st0" d="M3204.8,129.6c60.6,0,107.7,13.7,133.1,34.2c25.5,20.4,56.9,63.7,56.9,188.9c0,125.1-31.4,168.4-56.9,188.8
			c-25.4,20.6-72.5,34.2-133.1,34.2c-60.9,0-107.8-13.6-133.4-34.2c-25.4-20.4-56.8-63.7-56.8-188.8c0-125.2,31.4-168.4,56.8-188.9
			C3097,143.3,3143.9,129.6,3204.8,129.6 M3143.3,213.8c-12.1,15-27.1,46.8-27.1,138.8c0,91.9,15,123.8,27.1,138.7
			c12.3,15.1,34.9,25.2,64.1,25.2c29.1,0,51.7-10,63.9-25.2c12.3-15,27.3-46.8,27.3-138.7c0-92-15-123.8-27.3-138.8
			c-12.3-15.1-34.8-25.1-63.9-25.1C3178.2,188.8,3155.6,198.7,3143.3,213.8"/>
		<path class="st0" d="M3579.6,195l87.5-3.7c22.8,0,49.7,6.2,62.8,22.8c12.3,15.5,19.9,34.1,19.9,64.1v293.2h89.2V270.9
			c0-56.9-17.3-89.9-43.5-110.6c-37.5-29.7-104.4-26.9-104.4-26.9l-200,3.6v434.3h88.5V195z"/>
		<path class="st0" d="M2655.6,54.8h-89.3v419.8c0,0,2.4,38.4,4.5,51.6c2.1,13.5,21.8,45.5,72.9,45.5l92.5-1.8v-54
			c0,0-24.9,1.9-40.3,1.9c-15.3,0-33.7-1-36.9-26.9c-3.4-25.8-3.4-56.7-3.4-56.7V187.1h100.7v-53.7h-100.7V54.8z"/>
		<path class="st0" d="M868.1,278.2c0-30-7.6-48.6-19.8-64.1c-13-16.5-40.1-22.8-62.9-22.8L667.7,195v-58l141.6-3.6
			c0,0,67.1-2.8,104.5,26.9c26.2,20.7,43.5,53.7,43.5,110.6v296.3l-171,3.7c0,0-77.6,0.3-116.5-15.5c-38.2-15.6-58.7-58-58.7-116.8
			c0-56.9,17.3-90,43.4-110.7c37.6-29.7,104.5-26.9,104.5-26.9h54.6v50.7h-30.4c-22.9,0-46.7,4.2-59.7,20.6
			c-12.2,15.6-18.8,29-18.8,58.9c0,39.3,7.7,56.9,26.1,70.4c16.4,11.8,45.8,14.5,78.4,14.5l58.9-3.7V278.2z"/>
		<path class="st0" d="M2373.2,278.2c0-30-7.7-48.6-20-64.1c-13.1-16.5-39.9-22.8-62.8-22.8l-117.7,3.7v-58l141.6-3.6
			c0,0,67-2.8,104.4,26.9c26.1,20.7,43.6,53.7,43.6,110.6v296.3l-170.9,3.7c0,0-77.6,0.3-116.5-15.5c-38.1-15.6-58.9-58-58.9-116.8
			c0-56.9,17.5-90,43.7-110.7c37.4-29.7,104.4-26.9,104.4-26.9h54.5v50.7H2288c-22.9,0-46.5,4.2-59.6,20.6
			c-12.2,15.6-18.7,29-18.7,58.9c0,39.3,7.6,56.9,26.1,70.4c16.3,11.8,45.8,14.5,78.4,14.5l59.1-3.7V278.2z"/>
	</g>
</g>
</svg>
