<?xml version="1.0" encoding="UTF-8" standalone="no"?>
<!DOCTYPE svg PUBLIC "-//W3C//DTD SVG 1.1//EN" "http://www.w3.org/Graphics/SVG/1.1/DTD/svg11.dtd">
<svg width="470px" height="140px" version="1.1" xmlns="http://www.w3.org/2000/svg" xmlns:xlink="http://www.w3.org/1999/xlink" xml:space="preserve" style="fill-rule:evenodd;clip-rule:evenodd;stroke-linejoin:round;stroke-miterlimit:1.41421;">
    <g id="Layer-2">
        <path d="M325.565,92.185c-0.924,0 -1.754,0.152 -2.492,0.456c-0.74,0.305 -1.43,0.692 -2.072,1.166c-0.645,0.472 -1.254,1.003 -1.834,1.598c-0.581,0.594 -1.144,1.165 -1.687,1.713c-0.039,0.061 -0.077,0.107 -0.108,0.136c-0.034,0.032 -0.063,0.039 -0.088,0.023c-0.026,-0.015 -0.016,-0.068 0.028,-0.159c0.032,-0.183 0.067,-0.349 0.109,-0.503c0.042,-0.153 0.089,-0.38 0.142,-0.685c0.146,-0.822 0.15,-1.477 0.011,-1.964c-0.139,-0.487 -0.366,-0.859 -0.684,-1.119c-0.317,-0.258 -0.698,-0.434 -1.145,-0.526c-0.446,-0.091 -0.907,-0.136 -1.381,-0.136c-0.897,0 -1.715,0.168 -2.459,0.502c-0.744,0.335 -1.457,0.769 -2.139,1.303c-0.681,0.532 -1.342,1.148 -1.983,1.848c-0.64,0.701 -1.29,1.416 -1.951,2.149c-0.072,0.09 -0.138,0.151 -0.199,0.181c-0.062,0.03 -0.051,-0.03 0.032,-0.181c0.187,-0.428 0.338,-0.808 0.453,-1.143c0.114,-0.336 0.254,-0.806 0.417,-1.416c0.239,-0.884 0.157,-1.599 -0.25,-2.147c-0.407,-0.548 -1.185,-0.897 -2.333,-1.051c-0.442,-0.029 -0.978,-0.007 -1.606,0.069c-0.629,0.076 -1.283,0.296 -1.963,0.662c-0.679,0.366 -1.345,0.89 -1.998,1.577c-0.65,0.684 -1.222,1.621 -1.712,2.808c-0.092,0.213 -0.124,0.389 -0.092,0.526c0.033,0.136 0.099,0.228 0.203,0.273c0.103,0.047 0.217,0.039 0.34,-0.023c0.123,-0.06 0.226,-0.182 0.316,-0.366c0.381,-0.73 0.738,-1.324 1.07,-1.78c0.332,-0.456 0.647,-0.822 0.948,-1.097c0.3,-0.274 0.574,-0.479 0.822,-0.616c0.248,-0.138 0.475,-0.235 0.681,-0.297c0.208,-0.061 0.43,-0.061 0.671,0c0.242,0.062 0.311,0.229 0.206,0.503l-7.439,17.676c-0.06,0.182 -0.032,0.304 0.084,0.364c0.113,0.063 0.242,0.092 0.381,0.092c1.375,-0.029 2.732,-0.029 4.07,0c0.111,0 0.248,-0.022 0.41,-0.068c0.161,-0.046 0.301,-0.16 0.418,-0.342l4.836,-11.009c0.231,-0.518 0.68,-1.202 1.348,-2.054c0.667,-0.852 1.41,-1.69 2.224,-2.513c0.817,-0.823 1.627,-1.531 2.432,-2.123c0.803,-0.594 1.443,-0.892 1.918,-0.892c0.141,0 0.327,0.008 0.563,0.023c0.233,0.017 0.326,0.176 0.271,0.48c-0.053,0.305 -0.151,0.655 -0.289,1.051c-0.141,0.395 -0.32,0.822 -0.54,1.278l-7.024,15.805c-0.049,0.121 -0.031,0.212 0.056,0.272c0.086,0.063 0.16,0.092 0.215,0.092c0.76,-0.029 1.492,-0.052 2.193,-0.068c0.702,-0.015 1.426,0.007 2.17,0.068c0.139,0 0.262,-0.022 0.367,-0.068c0.108,-0.046 0.2,-0.144 0.286,-0.296l5.259,-11.511c0.329,-0.762 0.84,-1.561 1.534,-2.398c0.693,-0.837 1.423,-1.606 2.19,-2.307c0.767,-0.7 1.518,-1.278 2.257,-1.734c0.737,-0.458 1.344,-0.687 1.82,-0.687c0.139,0 0.323,0.023 0.553,0.068c0.23,0.047 0.316,0.223 0.264,0.527c-0.108,0.609 -0.381,1.369 -0.821,2.284l-4.867,10.229c-0.176,0.366 -0.376,0.778 -0.596,1.234c-0.22,0.457 -0.367,0.899 -0.441,1.325c-0.188,1.066 -0.084,1.971 0.316,2.719c0.4,0.745 1.188,1.118 2.362,1.118c0.783,0 1.523,-0.153 2.219,-0.456c0.697,-0.304 1.341,-0.701 1.929,-1.189c0.59,-0.486 1.126,-1.027 1.608,-1.622c0.484,-0.592 0.898,-1.164 1.246,-1.713c0.049,-0.12 0.049,-0.242 0.002,-0.365c-0.049,-0.12 -0.123,-0.212 -0.225,-0.273c-0.101,-0.061 -0.207,-0.092 -0.318,-0.092c-0.112,0 -0.207,0.062 -0.285,0.183c-0.127,0.245 -0.329,0.557 -0.606,0.936c-0.277,0.381 -0.603,0.77 -0.98,1.165c-0.379,0.397 -0.758,0.731 -1.143,1.005c-0.383,0.274 -0.744,0.411 -1.08,0.411c-0.168,0 -0.299,-0.038 -0.399,-0.114c-0.098,-0.076 -0.119,-0.281 -0.06,-0.616c0.038,-0.214 0.168,-0.549 0.389,-1.006c0.22,-0.457 0.44,-0.913 0.66,-1.369l2.894,-5.709c0.265,-0.549 0.548,-1.119 0.848,-1.713c0.301,-0.595 0.578,-1.174 0.831,-1.736c0.251,-0.564 0.472,-1.089 0.655,-1.577c0.184,-0.485 0.305,-0.896 0.365,-1.233c0.21,-1.188 0.016,-2.123 -0.576,-2.809c-0.591,-0.685 -1.601,-1.027 -3.027,-1.027" style="fill:rgb(102,102,102);fill-rule:nonzero;"/>
        <path d="M344.153,94.605c-0.133,0.761 -0.416,1.605 -0.846,2.535c-0.428,0.93 -0.894,1.865 -1.396,2.808c-0.426,0.823 -0.942,1.493 -1.551,2.01c-0.607,0.519 -1.346,0.777 -2.213,0.777c-0.56,0 -1.041,-0.122 -1.445,-0.364c-0.129,-0.062 -0.183,-0.154 -0.161,-0.275c1.202,-2.861 2.331,-5.054 3.382,-6.576c1.052,-1.525 2.053,-2.285 3.003,-2.285c0.281,0 0.582,0.075 0.905,0.227c0.322,0.154 0.43,0.533 0.322,1.142m3.609,2.376c0.134,-0.761 0.092,-1.439 -0.125,-2.032c-0.216,-0.595 -0.54,-1.098 -0.971,-1.508c-0.431,-0.411 -0.943,-0.722 -1.534,-0.937c-0.59,-0.212 -1.194,-0.319 -1.811,-0.319c-1.309,-0.03 -2.705,0.357 -4.189,1.164c-1.485,0.808 -2.875,1.866 -4.168,3.174c-1.294,1.311 -2.416,2.757 -3.366,4.341c-0.951,1.583 -1.56,3.136 -1.83,4.658c-0.176,1.005 -0.198,1.964 -0.066,2.877c0.134,0.914 0.418,1.722 0.853,2.421c0.436,0.702 1.043,1.257 1.825,1.667c0.78,0.411 1.744,0.617 2.89,0.617c1.735,0 3.32,-0.428 4.756,-1.279c1.436,-0.852 2.679,-2.025 3.725,-3.518c0.122,-0.211 0.062,-0.393 -0.176,-0.548c-0.239,-0.151 -0.443,-0.136 -0.615,0.047c-0.771,1.187 -1.754,2.17 -2.953,2.946c-1.2,0.776 -2.43,1.165 -3.689,1.165c-0.727,0 -1.308,-0.236 -1.74,-0.708c-0.435,-0.473 -0.573,-1.149 -0.418,-2.034c0.161,-0.912 0.392,-1.833 0.696,-2.763c0.303,-0.927 0.672,-1.91 1.108,-2.946c-0.025,-0.029 -0.02,-0.06 0.015,-0.09c0.006,-0.031 0.063,-0.045 0.176,-0.045c0.347,0.09 0.766,0.182 1.252,0.274c0.486,0.091 0.84,0.15 1.058,0.182c0.823,0.091 1.733,0.007 2.729,-0.251c0.997,-0.26 1.943,-0.67 2.84,-1.234c0.896,-0.563 1.689,-1.294 2.38,-2.192c0.688,-0.898 1.139,-1.942 1.348,-3.129" style="fill:rgb(102,102,102);fill-rule:nonzero;"/>
        <path d="M363.756,98.945c1.062,0 1.935,-0.351 2.618,-1.051c0.682,-0.701 1.106,-1.508 1.267,-2.422c0.21,-1.186 0.03,-2.039 -0.535,-2.558c-0.566,-0.518 -1.326,-0.777 -2.275,-0.777c-1.232,0 -2.457,0.49 -3.678,1.462c-1.22,0.977 -2.382,2.21 -3.484,3.7c-0.045,-0.061 -0.031,-0.136 0.041,-0.228c0.072,-0.091 0.127,-0.167 0.166,-0.228c0.082,-0.153 0.174,-0.359 0.276,-0.617c0.101,-0.259 0.187,-0.509 0.258,-0.754c0.256,-0.974 0.187,-1.728 -0.21,-2.26c-0.394,-0.533 -1.238,-0.86 -2.533,-0.983c-0.412,-0.029 -0.913,-0.007 -1.5,0.07c-0.588,0.076 -1.191,0.29 -1.81,0.638c-0.623,0.352 -1.237,0.862 -1.844,1.531c-0.608,0.669 -1.156,1.598 -1.645,2.786c-0.095,0.213 -0.118,0.395 -0.076,0.548c0.043,0.153 0.124,0.25 0.24,0.297c0.12,0.045 0.248,0.031 0.387,-0.047c0.139,-0.074 0.252,-0.205 0.342,-0.387c0.351,-0.731 0.695,-1.325 1.027,-1.782c0.332,-0.456 0.648,-0.814 0.944,-1.074c0.297,-0.257 0.568,-0.448 0.814,-0.57c0.244,-0.12 0.457,-0.212 0.636,-0.273c0.206,-0.062 0.415,-0.062 0.629,0c0.213,0.061 0.251,0.32 0.115,0.776l-7.593,17.128c-0.226,0.487 -0.129,0.73 0.291,0.73c0.736,-0.06 1.456,-0.097 2.159,-0.114c0.702,-0.016 1.411,0.008 2.128,0.069c0.162,0.03 0.299,0.007 0.409,-0.069c0.111,-0.075 0.244,-0.234 0.4,-0.479l5.594,-12.926c0.136,-0.303 0.447,-0.754 0.929,-1.347c0.482,-0.594 1.022,-1.188 1.616,-1.782c0.591,-0.594 1.152,-1.111 1.678,-1.553c0.525,-0.441 0.9,-0.662 1.124,-0.662l0.082,0c0.084,0 0.125,0.016 0.119,0.046c-0.005,0.029 -0.066,0.099 -0.183,0.206c-0.117,0.107 -0.248,0.258 -0.395,0.456c-0.146,0.198 -0.293,0.428 -0.435,0.686c-0.145,0.258 -0.242,0.54 -0.297,0.844c-0.156,0.885 -0.029,1.598 0.377,2.147c0.408,0.549 1.015,0.823 1.827,0.823" style="fill:rgb(102,102,102);fill-rule:nonzero;"/>
        <path d="M380.86,93.737c-0.336,-0.395 -0.738,-0.729 -1.207,-0.996c-0.471,-0.269 -0.988,-0.467 -1.553,-0.594c-0.564,-0.128 -1.114,-0.192 -1.645,-0.192c-1.006,0 -2.003,0.183 -2.991,0.551c-0.987,0.365 -1.881,0.877 -2.682,1.532c-0.801,0.658 -1.492,1.442 -2.073,2.359c-0.581,0.914 -0.97,1.924 -1.163,3.021c-0.162,0.917 -0.124,1.695 0.113,2.335c0.236,0.641 0.587,1.191 1.053,1.648c0.462,0.458 0.97,0.869 1.523,1.235c0.549,0.369 1.065,0.734 1.547,1.1c0.48,0.365 0.855,0.771 1.128,1.213c0.271,0.441 0.35,0.983 0.237,1.625c-0.123,0.701 -0.35,1.267 -0.676,1.693c-0.326,0.429 -0.715,0.756 -1.159,0.985c-0.446,0.228 -0.929,0.389 -1.448,0.481c-0.52,0.091 -1.047,0.137 -1.576,0.137c-0.643,0 -1.221,-0.062 -1.731,-0.182c-0.51,-0.122 -0.896,-0.274 -1.156,-0.457c-0.262,-0.183 -0.365,-0.389 -0.311,-0.618c0.055,-0.228 0.309,-0.447 0.766,-0.661c0.52,-0.244 0.996,-0.647 1.43,-1.21c0.435,-0.564 0.586,-1.332 0.449,-2.308c-0.096,-0.73 -0.422,-1.294 -0.982,-1.688c-0.559,-0.397 -1.229,-0.443 -2.008,-0.14c-0.871,0.338 -1.537,0.901 -1.998,1.692c-0.461,0.792 -0.602,1.629 -0.421,2.511c0.114,0.611 0.345,1.166 0.69,1.668c0.345,0.502 0.772,0.937 1.281,1.301c0.508,0.366 1.082,0.647 1.717,0.846c0.637,0.197 1.305,0.297 2.004,0.297c0.949,0 1.947,-0.138 2.988,-0.413c1.041,-0.272 2.014,-0.684 2.924,-1.233c0.907,-0.547 1.694,-1.246 2.363,-2.1c0.667,-0.852 1.106,-1.873 1.315,-3.061c0.199,-1.126 0.176,-2.063 -0.07,-2.808c-0.246,-0.746 -0.613,-1.371 -1.098,-1.873c-0.484,-0.502 -1.029,-0.928 -1.641,-1.278c-0.609,-0.351 -1.169,-0.708 -1.677,-1.074c-0.508,-0.366 -0.91,-0.782 -1.205,-1.256c-0.293,-0.472 -0.376,-1.072 -0.247,-1.805c0.102,-0.577 0.327,-1.066 0.676,-1.461c0.35,-0.396 0.747,-0.709 1.193,-0.936c0.446,-0.229 0.908,-0.388 1.385,-0.48c0.478,-0.091 0.913,-0.137 1.305,-0.137c1.117,0 1.787,0.13 2.008,0.388c0.219,0.259 0.062,0.557 -0.473,0.892c-0.344,0.212 -0.71,0.577 -1.093,1.095c-0.387,0.518 -0.514,1.205 -0.385,2.056c0.117,0.76 0.439,1.318 0.965,1.667c0.525,0.35 1.148,0.388 1.868,0.113c0.868,-0.334 1.512,-0.89 1.929,-1.667c0.416,-0.776 0.56,-1.59 0.431,-2.443c-0.076,-0.517 -0.283,-0.974 -0.619,-1.37" style="fill:rgb(102,102,102);fill-rule:nonzero;"/>
        <path d="M397.407,95.102c-0.049,0.274 -0.178,0.722 -0.385,1.345c-0.209,0.622 -0.467,1.343 -0.779,2.163c-0.313,0.82 -0.656,1.702 -1.033,2.642c-0.375,0.944 -0.754,1.855 -1.131,2.736c-0.381,0.88 -0.739,1.692 -1.08,2.436c-0.342,0.746 -0.633,1.329 -0.877,1.755c-0.209,0.396 -0.451,0.813 -0.725,1.252c-0.273,0.442 -0.595,0.846 -0.967,1.209c-0.373,0.364 -0.787,0.659 -1.248,0.887c-0.461,0.23 -0.998,0.343 -1.613,0.343c-0.726,0 -1.292,-0.199 -1.698,-0.592c-0.407,-0.395 -0.528,-1.049 -0.368,-1.96c0.095,-0.546 0.334,-1.337 0.712,-2.369c0.376,-1.033 0.825,-2.148 1.344,-3.35c0.52,-1.199 1.08,-2.43 1.678,-3.689c0.602,-1.261 1.174,-2.409 1.72,-3.441c0.21,-0.395 0.448,-0.798 0.717,-1.208c0.266,-0.409 0.579,-0.79 0.934,-1.138c0.356,-0.35 0.754,-0.632 1.197,-0.843c0.444,-0.213 0.944,-0.32 1.504,-0.32c0.811,0 1.4,0.153 1.766,0.455c0.367,0.305 0.477,0.867 0.332,1.687m2.523,-0.634c-0.466,-0.762 -1.103,-1.362 -1.905,-1.804c-0.803,-0.442 -1.764,-0.663 -2.882,-0.663c-1.232,0 -2.537,0.305 -3.916,0.913c-1.381,0.611 -2.702,1.485 -3.966,2.626c-1.264,1.143 -2.373,2.512 -3.327,4.112c-0.953,1.598 -1.606,3.403 -1.961,5.412c-0.224,1.278 -0.228,2.407 -0.008,3.38c0.219,0.975 0.587,1.79 1.1,2.443c0.514,0.656 1.153,1.158 1.916,1.508c0.762,0.35 1.578,0.525 2.446,0.525c1.65,0 3.226,-0.381 4.733,-1.142c1.503,-0.76 2.852,-1.749 4.047,-2.969c1.192,-1.217 2.184,-2.565 2.977,-4.042c0.791,-1.476 1.314,-2.931 1.567,-4.361c0.203,-1.158 0.234,-2.247 0.093,-3.266c-0.143,-1.02 -0.447,-1.912 -0.914,-2.672" style="fill:rgb(102,102,102);fill-rule:nonzero;"/>
        <path d="M425.317,93.166c-0.565,-0.685 -1.504,-1.028 -2.818,-1.028c-1.594,0 -3.028,0.434 -4.3,1.302c-1.273,0.868 -2.624,2.352 -4.058,4.455c-0.004,0.029 -0.027,0.075 -0.064,0.135c-0.041,0.064 -0.076,0.108 -0.108,0.138c-0.035,0.029 -0.072,0.076 -0.109,0.137c-0.068,0.061 -0.055,-0.016 0.041,-0.229c0.092,-0.213 0.164,-0.381 0.213,-0.503c0.187,-0.427 0.314,-0.753 0.384,-0.981c0.067,-0.229 0.182,-0.647 0.346,-1.256c0.235,-0.852 0.175,-1.546 -0.177,-2.078c-0.356,-0.533 -1.147,-0.874 -2.379,-1.029c-0.442,-0.029 -0.978,-0.006 -1.607,0.07c-0.628,0.076 -1.274,0.296 -1.942,0.662c-0.666,0.365 -1.324,0.89 -1.976,1.576c-0.651,0.685 -1.223,1.621 -1.712,2.809c-0.091,0.213 -0.117,0.388 -0.072,0.525c0.047,0.137 0.127,0.229 0.246,0.274c0.117,0.046 0.244,0.039 0.381,-0.023c0.137,-0.06 0.248,-0.183 0.338,-0.366c0.352,-0.731 0.694,-1.324 1.027,-1.78c0.332,-0.456 0.647,-0.815 0.946,-1.075c0.296,-0.257 0.566,-0.449 0.812,-0.571c0.245,-0.12 0.471,-0.211 0.678,-0.274c0.267,-0.09 0.453,-0.105 0.554,-0.044c0.1,0.061 0.168,0.151 0.202,0.274c0.035,0.121 0.021,0.274 -0.037,0.456l-7.432,17.403c-0.096,0.212 -0.089,0.341 0.016,0.387c0.101,0.046 0.224,0.069 0.365,0.069c1.386,-0.092 2.757,-0.092 4.111,0c0.139,0 0.301,-0.045 0.485,-0.136c0.185,-0.092 0.32,-0.229 0.408,-0.412l5.035,-11.418c0.269,-0.58 0.721,-1.28 1.355,-2.102c0.635,-0.821 1.331,-1.598 2.088,-2.329c0.759,-0.731 1.52,-1.354 2.283,-1.874c0.76,-0.518 1.395,-0.776 1.899,-0.776c0.139,0 0.328,0.039 0.566,0.114c0.239,0.076 0.33,0.268 0.278,0.571c-0.037,0.213 -0.116,0.45 -0.231,0.709c-0.115,0.258 -0.279,0.587 -0.488,0.982l-5.198,10.686c-0.176,0.366 -0.376,0.786 -0.599,1.257c-0.225,0.474 -0.371,0.923 -0.447,1.349c-0.188,1.066 -0.082,1.97 0.317,2.716c0.401,0.748 1.188,1.12 2.362,1.12c0.784,0 1.525,-0.161 2.223,-0.48c0.7,-0.319 1.339,-0.723 1.914,-1.211c0.574,-0.486 1.098,-1.027 1.566,-1.621c0.467,-0.594 0.876,-1.165 1.224,-1.713c0.186,-0.426 0.134,-0.677 -0.161,-0.754c-0.295,-0.075 -0.521,0.024 -0.682,0.297c-0.099,0.245 -0.287,0.558 -0.562,0.937c-0.277,0.381 -0.597,0.762 -0.957,1.141c-0.361,0.382 -0.734,0.709 -1.117,0.983c-0.385,0.274 -0.731,0.411 -1.039,0.411c-0.166,0 -0.299,-0.038 -0.399,-0.113c-0.097,-0.076 -0.117,-0.282 -0.057,-0.619c0.037,-0.211 0.157,-0.539 0.361,-0.981c0.202,-0.441 0.416,-0.891 0.636,-1.347l2.902,-5.756c0.266,-0.547 0.547,-1.118 0.848,-1.712c0.298,-0.593 0.578,-1.172 0.83,-1.736c0.253,-0.563 0.47,-1.089 0.656,-1.575c0.184,-0.487 0.305,-0.897 0.363,-1.233c0.21,-1.189 0.033,-2.125 -0.531,-2.81" style="fill:rgb(102,102,102);fill-rule:nonzero;"/>
        <path d="M291.063,110.563c-0.406,0.648 -0.813,1.27 -2.147,3.02c-1.332,1.751 -4.582,2.731 -8.094,2.731l-2.488,0c-1.375,0 -1.957,-0.579 -1.375,-1.98c0.229,-0.558 2.611,-6.242 5.183,-12.375l2.858,0c1.959,0 2.584,1.833 2.5,3.625c-0.084,1.791 0.75,1.916 1.166,1.125c0.418,-0.792 3.168,-8.125 3.625,-9.292c0.459,-1.166 0.043,-1.375 -0.375,-1.417c-0.416,-0.041 -0.666,0.25 -1.957,2c-1.293,1.75 -2.418,2 -3.75,2l-3.248,0c2.753,-6.569 5.486,-13.088 5.835,-13.935c0.031,-0.07 0.082,-0.12 0.12,-0.169c0.038,-0.049 0.129,-0.073 0.281,-0.073l5.342,0c0.678,0 1.322,0.088 1.927,0.266c0.602,0.175 1.101,0.499 1.493,0.965c0.39,0.468 0.704,1.088 0.798,1.883c0.341,2.855 1.409,2.397 1.89,0.605c0.387,-1.441 1.016,-2.868 1.632,-4.347c0.055,-0.16 0.038,-0.307 -0.058,-0.434c-0.094,-0.13 -0.171,-0.194 -0.231,-0.194l-15.781,0l-5.774,0l-5.685,0c-9.334,0 -9.666,4.521 -9.666,6.183c0,1.188 0.916,2.584 2.541,2.584c2.084,-0.001 2.875,-1.209 2.875,-2.251c0,-1.624 -1.584,-1.749 -1.584,-2.916c0,-1.166 2.5,-2.251 6.293,-2.251c3.791,0.001 3.875,1.626 3.207,3.418c-0.036,0.095 -0.043,0.184 -0.068,0.278c-3.202,7.731 -9.021,21.785 -9.682,23.346c-0.909,2.152 -2.291,3.245 -3.883,3.386c-0.803,0.072 -0.956,0.123 -1.834,0.166c-2.324,0.114 -2.449,2.06 -1.533,2.06l15.334,0c4.171,0 8.456,-0.032 12.856,0c0.207,0 0.334,-0.04 0.377,-0.121c0.043,-0.079 0.101,-0.152 0.171,-0.217c0.714,-1.706 1.993,-4.668 2.68,-6.399c0.822,-2.081 -1.459,-1.771 -1.772,-1.271" style="fill:rgb(102,102,102);fill-rule:nonzero;"/>
        <path d="M237.603,107.188c1.502,-0.001 2.719,-1.218 2.719,-2.719c0,-1.503 -1.217,-2.719 -2.719,-2.719c-1.502,0 -2.715,1.216 -2.715,2.718c0,1.502 1.213,2.719 2.715,2.719" style="fill:rgb(102,102,102);fill-rule:nonzero;"/>
        <path d="M233.203,98.674l0.483,-0.298c0.392,-0.24 0.803,-0.492 1.209,-0.769c0.21,0.579 0.427,1.081 0.614,1.482c-2.15,0.841 -3.68,2.933 -3.68,5.38c0,2.091 1.121,3.922 2.788,4.935c-0.492,0.284 -1.304,0.358 -2.054,0.159c-2.492,-0.662 -3.25,-3.063 -3.25,-5c0,-2.322 1.865,-4.623 3.89,-5.889m3.093,-7.697c0.053,0 0.215,0 0.376,0.254c0.121,0.191 0.266,0.566 0.266,1.269c0,1.553 -0.629,2.303 -1.516,3.129c-0.212,-0.81 -0.359,-1.389 -0.359,-2.254c0,-1.597 0.79,-2.398 1.233,-2.398m1.307,9.533c2.186,0 3.958,1.771 3.958,3.959c0,2.185 -1.772,3.958 -3.958,3.958c-2.187,0 -3.954,-1.773 -3.954,-3.958c0,-2.188 1.767,-3.959 3.954,-3.959m-4.415,10.178c1.062,0.125 1.812,0.062 2.432,-0.093c0.755,0.308 1.443,0.803 1.443,1.593c0,1.75 -0.563,2.812 -1.438,2.125c-0.875,-0.688 -3.437,-0.75 -3.437,1.125c0,1.875 2.937,2.75 4.625,0.687c1.687,-2.062 1.812,-4.562 1.125,-5.875c-0.004,-0.008 -0.009,-0.012 -0.014,-0.019c3.036,-0.168 5.457,-2.685 5.457,-5.762c0,-3.187 -2.593,-5.779 -5.778,-5.779c-0.384,0 -0.758,0.039 -1.121,0.111c-0.217,-0.457 -0.493,-1.09 -0.744,-1.825c1.212,-1.006 2.2,-2.358 2.2,-4.476c0,-0.757 -0.142,-1.364 -0.421,-1.805c-0.293,-0.463 -0.728,-0.718 -1.221,-0.718c-1.097,0 -2.233,1.27 -2.233,3.398c0,1.124 0.218,2.245 0.508,3.24c-0.451,0.323 -0.931,0.617 -1.408,0.909l-0.49,0.302c-2.349,1.468 -5.561,4.009 -5.561,6.737c0,3.5 2.883,5.749 6.076,6.125" style="fill:rgb(102,102,102);fill-rule:nonzero;"/>
        <path d="M235.531,87.703c8.836,0 16,6.954 16,15.531c0,8.577 -7.164,15.531 -16,15.531c-8.836,0 -16,-6.954 -16,-15.531c0,-8.577 7.164,-15.531 16,-15.531m-17.812,31.969l35.625,0l0,-32.875l-35.625,0l0,32.875Z" style="fill:rgb(102,102,102);fill-rule:nonzero;"/>
        <path d="M55.313,68.825l-26.251,0l-19,50.847l26.251,0l18.999,-50.847Z" style="fill:rgb(254,61,34);fill-rule:nonzero;"/>
        <path d="M92.813,68.825l-26.251,0l-18.999,50.847l26.249,0l19.001,-50.847Z" style="fill:rgb(154,228,86);fill-rule:nonzero;"/>
        <path d="M130.313,68.825l-26.251,0l-19,50.847l26.25,0l19,-50.847Z" style="fill:rgb(45,91,232);fill-rule:nonzero;"/>
        <path d="M27.302,43.188l3.136,-12.751l3.135,12.75l-6.271,0Zm9.761,14.188l14.75,0c0,0 -9.563,-26.313 -12,-32.875c-2.438,-6.563 -9.375,-6.5 -9.375,-6.5c0,0 -6.938,-0.063 -9.375,6.5c-2.438,6.562 -12,32.875 -12,32.875l14.75,0l1.491,-6.063l10.268,0l1.491,6.063Z" style="fill:rgb(102,102,102);fill-rule:nonzero;"/>
        <path d="M135.552,43.188l3.136,-12.751l3.135,12.75l-6.271,0Zm9.761,14.188l14.75,0c0,0 -9.563,-26.313 -12,-32.875c-2.438,-6.563 -9.375,-6.5 -9.375,-6.5c0,0 -6.938,-0.063 -9.375,6.5c-2.438,6.562 -12,32.875 -12,32.875l14.75,0l1.491,-6.063l10.268,0l1.491,6.063Z" style="fill:rgb(102,102,102);fill-rule:nonzero;"/>
        <path d="M233.114,43.188l3.136,-12.751l3.135,12.75l-6.271,0Zm9.761,14.188l14.75,0c0,0 -9.563,-26.313 -12,-32.875c-2.438,-6.563 -9.375,-6.5 -9.375,-6.5c0,0 -6.938,-0.063 -9.375,6.5c-2.438,6.562 -12,32.875 -12,32.875l14.75,0l1.491,-6.063l10.268,0l1.491,6.063Z" style="fill:rgb(102,102,102);fill-rule:nonzero;"/>
        <path d="M113.219,46.012c-6.334,0 -10.469,-3.617 -10.469,-8.45c0,-4.832 4.135,-8.349 10.469,-8.349c0.961,0 1.889,0.1 2.781,0.27l0,-11.439c-1.666,-0.352 -3.401,-0.544 -5.187,-0.544c-12.392,0 -22.438,8.968 -22.438,20.031c0,11.063 10.046,20.031 22.438,20.031c1.786,0 3.521,-0.192 5.187,-0.544l0,-11.276c-0.892,0.17 -1.82,0.27 -2.781,0.27" style="fill:rgb(102,102,102);fill-rule:nonzero;"/>
        <path d="M65.625,57.375l0,-26.25c0,-2.438 2,-3.112 3.5,-3.112c1.5,0 4.25,0.55 4.25,3.987c0,4.188 -6.188,3.375 -6.188,9.812c0,1.125 0.125,2.563 0.938,4.25c0.813,1.688 5.563,11.313 5.563,11.313l14.937,0c0,0 -8.75,-13.75 -9.187,-14.313c-0.438,-0.562 0.25,-1.687 1.437,-2.624c1.187,-0.938 6.437,-3.625 6.437,-9.938c0,-6.313 -5.187,-12.063 -12.312,-12.063l-16.5,0c-3.188,0 -5.813,2.813 -5.813,6.938l0,32l12.938,0Z" style="fill:rgb(102,102,102);fill-rule:nonzero;"/>
        <path d="M175.563,45.25c-1.251,0 -1.938,-0.375 -1.938,-1.25l0,-7.5l0,-7.5c0,-0.875 0.687,-1.25 1.937,-1.25c1.25,0 8.875,1.75 8.875,8.75c0,7 -7.625,8.75 -8.875,8.75m3.25,-26.812l-13,0c-2.5,0 -5.563,2.187 -5.563,7.187l0,24.687c0,1.875 1.813,7.063 9.251,7.063l8.5,0c6,0 19.624,-4.938 19.624,-20.75c0,-15 -13.499,-18.187 -18.812,-18.187" style="fill:rgb(102,102,102);fill-rule:nonzero;"/>
        <rect x="199.874" y="18.437" width="13.938" height="38.938" style="fill:rgb(102,102,102);fill-rule:nonzero;"/>
        <rect x="262.875" y="33.875" width="18.312" height="10.375" style="fill:rgb(102,102,102);fill-rule:nonzero;"/>
        <path d="M420.625,15.862l-13.188,0l0,11.013l3.438,0c1.312,0 2,1.437 2,2.562l0,27.938l13.937,0l0,-24.063l0,-2.875l0,-8.25c0,-2.625 -3.249,-6.325 -6.187,-6.325" style="fill:rgb(102,102,102);fill-rule:nonzero;"/>
        <path d="M387.688,46.938c-3.21,-0.001 -5.813,-4.562 -5.813,-10.189c0,-5.626 2.603,-10.187 5.813,-10.187c3.209,0 5.812,4.561 5.812,10.187c0,5.627 -2.603,10.188 -5.813,10.188m0.219,-30.75c-14.531,0 -18.969,9.22 -18.969,20.594c0,11.373 5,20.594 18.969,20.594c12.594,0 18.969,-9.221 18.969,-20.594c0,-11.374 -6.25,-20.594 -18.969,-20.594" style="fill:rgb(102,102,102);fill-rule:nonzero;"/>
        <path d="M347.375,46.938c-3.21,-0.001 -5.812,-4.562 -5.812,-10.189c0,-5.626 2.602,-10.187 5.812,-10.187c3.21,0 5.812,4.561 5.812,10.187c0,5.627 -2.602,10.188 -5.812,10.188m0.219,-30.75c-14.532,0 -18.969,9.22 -18.969,20.594c0,11.373 5,20.594 18.969,20.594c12.594,0 18.968,-9.221 18.968,-20.594c0,-11.374 -6.249,-20.594 -18.968,-20.594" style="fill:rgb(102,102,102);fill-rule:nonzero;"/>
        <path d="M291.063,32.75l14.188,0l0,-2.25c0,-0.813 1,-3.187 3.624,-3.187c2.625,0 3.063,2.124 3.063,3.312c0,1.188 -0.625,2 -1.875,3.062c-1.763,1.499 -15.609,11.223 -17.313,12.501c-3,2.25 -3.313,11.187 2.563,11.187l30.75,0l0,-11.375l-13.375,0c-1.375,0 -0.688,-0.812 0.312,-1.312c1,-0.5 13.5,-5.001 13.5,-14.376c0,-9.375 -7.688,-14.124 -16.438,-14.124c-9.625,0 -19,5.499 -19,16.562" style="fill:rgb(102,102,102);fill-rule:nonzero;"/>
    </g>
</svg>
