<?xml version="1.0" encoding="utf-8"?>
<!-- Generator: Adobe Illustrator 25.2.3, SVG Export Plug-In . SVG Version: 6.00 Build 0)  -->
<svg version="1.1" id="Layer_1" xmlns="http://www.w3.org/2000/svg" xmlns:xlink="http://www.w3.org/1999/xlink" x="0px" y="0px"
	 viewBox="0 0 3839 1689.46" style="enable-background:new 0 0 3839 1689.46;" xml:space="preserve">
<style type="text/css">
	.st0{opacity:0.61;}
	.st1{fill:#FFFFFF;}
	.st2{opacity:0.61;fill:#FFFFFF;}
</style>
<g>
	<rect x="1536.74" y="5.62" width="136.83" height="945.83"/>
	<rect y="260.44" width="136.83" height="691.01"/>
	<rect x="2558.64" y="527.1" width="136.83" height="424.35"/>
	<rect x="2847.23" y="527.1" width="136.83" height="424.35"/>
	<rect x="1354.23" y="736.79" width="136.83" height="214.66"/>
	<rect x="2769.73" y="997.52" width="136.83" height="424.35"/>
	<rect x="2524.29" y="997.52" width="136.83" height="424.35"/>
	<rect x="2954.4" y="997.52" width="136.83" height="424.35"/>
	<path d="M1894.31,136.99c0-73.82-59.84-133.66-133.66-133.66h-223.9v61.27h171.15c27.39,0,61.9,17.41,61.9,72.4"/>
	<path d="M1894.31,136.99c0,73.82-59.84,133.66-133.66,133.66h-223.9v-61.27h171.15c27.39,0,61.9-17.41,61.9-72.4"/>
	<rect x="2604.98" y="1144.33" width="258.16" height="61.27"/>
	<rect x="2437.92" y="527.1" width="378.25" height="61.27"/>
	<rect x="1921.34" y="21.3" width="136.83" height="424.35"/>
	<rect x="1921.34" y="3.32" width="290.39" height="61.27"/>
	<rect x="1921.34" y="189.19" width="273.01" height="61.27"/>
	<path d="M3425.52,997.52v224.65l-134.96-194.77c-43.72-63.09-142.69-32.16-142.69,44.6v349.87h61.27v-271.74l180.71,260.79
		c29.7,42.87,96.94,21.85,96.94-30.3v-383.1H3425.52z"/>
	<path d="M1996.9,527.11v224.65L1861.95,557c-43.72-63.1-142.7-32.16-142.7,44.61v349.84h61.27V679.72l180.7,260.79
		c29.7,42.87,96.94,21.85,96.94-30.3V527.11H1996.9z"/>
	<path d="M3777.73,527.11v224.65L3642.78,557c-43.72-63.1-142.7-32.16-142.7,44.61v349.84h61.27V679.72l180.7,260.79
		c29.7,42.87,96.94,21.85,96.94-30.3V527.11H3777.73z"/>
	<path d="M3839,1058.79v-61.27h-215.73c-45.79,0-82.9,37.12-82.9,82.9v258.54c0,45.79,37.12,82.9,82.9,82.9H3839v-61.27h-130.04
		c-17.54,0-31.76-14.22-31.76-31.76v-92.6h144.42v-61.27h-144.42v-84.42c0-17.54,14.22-31.76,31.76-31.76H3839z"/>
	<rect x="1144.19" y="309.25" width="258.16" height="61.27"/>
	<path d="M1503.43,446.32L1368.97,58.68c-27.42-79.05-139.59-77.96-165.48,1.6l-125.59,386.03h64.43l104.68-321.73l111.37,321.73
		H1503.43z"/>
	<g>
		<rect x="708.66" y="816.84" width="258.16" height="61.27"/>
		<path d="M1063.03,951.45L933.44,577.88c-27.42-79.05-139.59-77.96-165.48,1.6L646.96,951.45h64.43l100.09-307.67l106.73,307.67
			H1063.03z"/>
	</g>
	<g>
		<rect x="2145.97" y="816.84" width="258.16" height="61.27"/>
		<path d="M2500.34,951.45l-129.58-373.57c-27.42-79.05-139.59-77.96-165.48,1.6l-121.01,371.96h64.43l100.09-307.67l106.73,307.67
			H2500.34z"/>
	</g>
	<path d="M397.92,705.41l-50.24-128.86c-36.66-94.04-176.29-67.78-176.29,33.15v341.74h61.27V632.52l122.18,313.37
		c2.85,7.31,13.2,7.29,16.02-0.03l118.08-306.23v311.82h136.83V607.45c0-101.35-140.26-127.63-176.94-33.15L397.92,705.41z"/>
	<g>
		<rect x="1756.44" y="1287.26" width="258.16" height="61.27"/>
		<path d="M2110.81,1421.86l-129.58-373.57c-27.42-79.05-139.59-77.96-165.48,1.6l-121.01,371.96h64.43l100.09-307.67l106.73,307.67
			H2110.81z"/>
	</g>
	<path d="M1445.71,1175.83l-50.24-128.86c-36.67-94.04-176.29-67.78-176.29,33.15v341.74h61.27v-318.94l122.18,313.37
		c2.85,7.31,13.2,7.29,16.02-0.03l118.08-306.23v579.42h136.83v-611.6c0-101.35-140.26-127.63-176.94-33.15L1445.71,1175.83z"/>
	<path class="st0" d="M2241.82,1209.7L2241.82,1209.7c0,0.04,0,0.09,0,0.14s0,0.09,0,0.14l0,0.01"/>
	<path d="M3237.79,515.11c-122.98,0-222.68,97.68-222.68,218.17s99.7,218.17,222.68,218.17c122.98,0,222.68-97.68,222.68-218.17
		S3360.78,515.11,3237.79,515.11z M3237.79,902.27c-58.58,0-72.55-75.66-72.55-168.99s13.97-168.99,72.55-168.99
		c58.58,0,72.55,75.66,72.55,168.99S3296.37,902.27,3237.79,902.27z"/>
	<path d="M2432.44,1288.58c-21.85,54.62-63.35,79.37-90.22,79.37c-65.91,0-100.35-49.01-100.41-161.56
		c0.06-112.55,34.5-161.55,100.41-161.55c27.49,0,70.32,25.91,91.71,83.23l59.65-31.2c-38.2-64.21-108.26-107.26-188.4-107.26
		c-121.01,0-219.1,98.09-219.1,219.1c0,121.01,98.09,219.1,219.1,219.1c80.14,0,150.2-43.05,188.4-107.26L2432.44,1288.58z"/>
	<path d="M1380.7,818.17c-21.85,54.62-63.35,79.37-90.22,79.37c-65.91,0-100.35-49.01-100.41-161.56
		c0.06-112.55,34.5-161.55,100.41-161.55c27.49,0,70.32,25.91,91.71,83.23l59.65-31.2c-38.2-64.21-108.26-107.26-188.4-107.26
		c-121.01,0-219.1,98.09-219.1,219.1s98.09,219.1,219.1,219.1c80.14,0,150.2-43.05,188.4-107.26L1380.7,818.17z"/>
	<g>
		<path d="M2264.29,11.51h-24.37V3.32h58.48v8.19h-24.38v64.93h-9.73V11.51z"/>
		<path d="M2306.7,3.32h13.31l23.04,61.44l23.15-61.44h13.31v73.12h-9.22V15.61h-0.2l-22.84,60.83h-8.3l-22.84-60.83h-0.2v60.83
			h-9.22V3.32z"/>
	</g>
</g>
</svg>
