<?xml version="1.0" encoding="utf-8"?>
<!-- Generator: Adobe Illustrator 26.0.3, SVG Export Plug-In . SVG Version: 6.00 Build 0)  -->
<svg version="1.1" id="Layer_1" xmlns="http://www.w3.org/2000/svg" xmlns:xlink="http://www.w3.org/1999/xlink" x="0px" y="0px"
	 viewBox="0 0 3839 1021.9" style="enable-background:new 0 0 3839 1021.9;" xml:space="preserve">
<style type="text/css">
	.st0{fill:#FFFFFF;}
	.st1{clip-path:url(#SVGID_00000135685562801777869850000017535232595632399516_);fill:#FFFFFF;}
</style>
<g>
	<g>
		<rect x="1053.2" y="105.7" width="2785.8" height="916.2"/>
		<g>
			<g>
				<rect x="1756.8" y="505.2" class="st0" width="111.3" height="294"/>
				<circle class="st0" cx="1812.5" cy="377.5" r="66.6"/>
			</g>
			<g>
				
					<rect x="2987" y="328.4" transform="matrix(-1 -1.224647e-16 1.224647e-16 -1 6085.3564 950.7189)" class="st0" width="111.3" height="294"/>
				<circle class="st0" cx="3042.7" cy="750.1" r="66.6"/>
			</g>
			<path class="st0" d="M1498.6,328.8v-0.4h-111.3h-111.3v470.9h111.3V637.7h102.2l0,0c107.4,0,161.1-77.3,158.8-154.7
				C1650.5,408,1599.8,333.1,1498.6,328.8z M1471.2,546.5h-84V419.6h84l0,0c42.3,0,63.4,31.7,63.4,63.4S1513.5,546.5,1471.2,546.5z"
				/>
			<path class="st0" d="M2728.7,328.8v-0.4h-111.3h-111.3v470.9h111.3V637.7h102.2l0,0c107.4,0,161.1-77.3,158.8-154.7
				C2880.6,408,2829.9,333.1,2728.7,328.8z M2701.4,546.5h-84V419.6h84v0c42.3,0,63.4,31.7,63.4,63.4S2743.7,546.5,2701.4,546.5z"/>
			<polygon class="st0" points="3515.4,592.7 3347,328.4 3347,328.4 3255.3,328.4 3255.3,799.3 3356.2,799.3 3356.2,549.3 
				3515.4,799.3 3616.3,799.3 3616.3,328.4 3515.4,328.4 			"/>
			<path class="st0" d="M2136.5,637.7h102.2l0,0c107.4,0,161.1-77.3,158.8-154.7c2.2-75.1-48.5-149.9-149.7-154.3v-0.4h-111.3
				h-111.3v470.9h111.3V637.7z M2136.5,419.6h84l0,0c42.3,0,63.4,31.7,63.4,63.4s-21.1,63.4-63.4,63.4h-84V419.6z"/>
		</g>
	</g>
	<g>
		<g>
			<path d="M769.7,678.7c-44.3-46.6-66.8-100.3-66.8-159.7c0-59.6,21.5-112.8,63.9-157.8c13.1-13.9,27.1-25.6,42.1-35.4
				c-16.1-20.9-80.6-95.5-176.7-95.5c-91.6,0-115.3,54.8-178.7,54.8c-69.9,0-93.1-60.7-183.9-60.7c0,0-269.6,8-269.6,335.3
				c0,118,103.1,462.1,256.5,462.1c76.7,0,67.6-47.2,167.6-47.2c99.6,0,82.6,39.8,176.3,39.8c97,0,223.2-133.9,234.8-286.2
				C811.9,716.7,790,700.1,769.7,678.7z"/>
		</g>
		<g>
			<g>
				<g>
					<g>
						<defs>
							<path id="SVGID_00000069370484612213883760000015725364030454041230_" d="M769.7,678.7c-44.3-46.6-66.8-100.3-66.8-159.7
								c0-59.6,21.5-112.8,63.9-157.8c13.1-13.9,27.1-25.6,42.1-35.4c-16.1-20.9-80.6-95.5-176.7-95.5
								c-91.6,0-115.3,54.8-178.7,54.8c-69.9,0-93.1-60.7-183.9-60.7c0,0-269.6,8-269.6,335.3c0,118,103.1,462.1,256.5,462.1
								c76.7,0,67.6-47.2,167.6-47.2c99.6,0,82.6,39.8,176.3,39.8c97,0,223.2-133.9,234.8-286.2C811.9,716.7,790,700.1,769.7,678.7z
								"/>
						</defs>
						<use xlink:href="#SVGID_00000069370484612213883760000015725364030454041230_"  style="overflow:visible;"/>
						<clipPath id="SVGID_00000067220476530308894990000005362212756292427162_">
							<use xlink:href="#SVGID_00000069370484612213883760000015725364030454041230_"  style="overflow:visible;"/>
						</clipPath>
					</g>
				</g>
			</g>
		</g>
		<path d="M579.9,174.8c13.1-13,41-106.8,41-174.8l0,0c-61.7,14.4-119.4,48.2-152.7,94.4l0,0c-33.3,46.2-52.3,104.7-40.9,174.8l0,0
			C510.6,262,549.7,220.1,579.9,174.8L579.9,174.8z"/>
	</g>
</g>
</svg>
