<?xml version="1.0" encoding="utf-8"?>
<!-- Generator: Adobe Illustrator 26.0.3, SVG Export Plug-In . SVG Version: 6.00 Build 0)  -->
<svg version="1.1" id="Layer_1" xmlns="http://www.w3.org/2000/svg" xmlns:xlink="http://www.w3.org/1999/xlink" x="0px" y="0px"
	 viewBox="0 0 3839 1262.6" style="enable-background:new 0 0 3839 1262.6;" xml:space="preserve">
<style type="text/css">
	.st0{fill:#FFFFFF;}
	.st1{clip-path:url(#SVGID_00000181798290167549759320000001352715545503227819_);fill:#FFFFFF;}
</style>
<g>
	<rect width="3839" height="1262.6"/>
	<g>
		<g>
			<rect x="969.6" y="550.6" class="st0" width="153.4" height="405.2"/>
			<circle class="st0" cx="1046.3" cy="374.6" r="91.8"/>
		</g>
		<g>
			
				<rect x="2664.9" y="306.9" transform="matrix(-1 -1.224647e-16 1.224647e-16 -1 5483.2153 1018.8921)" class="st0" width="153.4" height="405.2"/>
			<circle class="st0" cx="2741.6" cy="888.1" r="91.8"/>
		</g>
		<path class="st0" d="M613.7,307.4v-0.6H460.3H306.9v648.9h153.4V733.2h140.8l0,0c148,0,222-106.6,218.8-213.2
			C823,416.6,753.2,313.4,613.7,307.4z M576,607.4H460.3V432.6H576l0,0c58.3,0,87.4,43.7,87.4,87.4S634.3,607.4,576,607.4z"/>
		<path class="st0" d="M2309,307.4v-0.6h-153.4h-153.4v648.9h153.4V733.2h140.8l0,0c148,0,222-106.6,218.8-213.2
			C2518.3,416.6,2448.4,313.4,2309,307.4z M2271.3,607.4h-115.7V432.6h115.7v0c58.3,0,87.4,43.7,87.4,87.4
			C2358.7,563.7,2329.5,607.4,2271.3,607.4z"/>
		<polygon class="st0" points="3393.1,671.2 3161,306.9 3161,306.9 3034.6,306.9 3034.6,955.8 3173.7,955.8 3173.7,611.4 
			3393.1,955.8 3532.1,955.8 3532.1,306.9 3393.1,306.9 		"/>
		<path class="st0" d="M1492.8,733.2h140.8l0,0c148,0,222-106.6,218.8-213.2c3-103.5-66.8-206.6-206.2-212.6v-0.6h-153.4h-153.4
			v648.9h153.4V733.2z M1492.8,432.6h115.7l0,0c58.3,0,87.4,43.7,87.4,87.4s-29.1,87.4-87.4,87.4h-115.7V432.6z"/>
	</g>
</g>
</svg>
