<?xml version="1.0" encoding="utf-8"?>
<!-- Generator: Adobe Illustrator 26.0.1, SVG Export Plug-In . SVG Version: 6.00 Build 0)  -->
<svg version="1.1" id="Layer_1" xmlns="http://www.w3.org/2000/svg" xmlns:xlink="http://www.w3.org/1999/xlink" x="0px" y="0px"
	 viewBox="0 0 3839 314.3" style="enable-background:new 0 0 3839 314.3;" xml:space="preserve">
<style type="text/css">
	.st0{fill:#FFFFFF;}
	.st1{fill:#C70A11;}
	.st2{fill:#2FBB37;}
	.st3{fill:#1E35A0;}
</style>
<g>
	<g>
		<g>
			<path d="M1100.7,203.9c29.3-25.1,50.2-49.5,50.2-96.8c0-46.9-24.3-89.2-120.6-89.2l0,0h-26.8l0,0h-50.2
				c-23.6,0-42.8,19.1-42.8,42.8v245h93v-205h26.8l0,0c27.6,0,38.7,34.5,10.4,44.3c-29.3,10.2-36.4,60.2-17.8,90.3l43.4,70.3h97.3
				L1100.7,203.9z"/>
		</g>
		<g>
			<rect x="1957.5" y="18" width="93" height="287.8"/>
		</g>
		<g>
			<path d="M2810.9,181.1c27.4-21.5,41.8-56,36.7-90.5c-0.5-2.6-1-4.6-1.4-6c-34.1-106.1-195.9-106-229.9,0.2
				c-3.4,10.7-5.6,22.6-6.1,35.6c0,0.5,0.4,0.9,0.9,0.9h92.1c-0.5-3.1-0.6-6.1-0.3-9.1c0.5-10.6,7-18.6,15.4-22.9
				c24.7-12.6,46,23,24.1,40.2l-123,96.4c-33.4,26.2-14.9,79.9,27.6,79.9h4.6c0.1,0,0.3-0.1,0.5-0.1l-0.1,0.1h196.6V223h-91
				L2810.9,181.1z"/>
		</g>
		<g>
			<rect x="2403.7" y="133.8" width="132.2" height="82.8"/>
		</g>
		<g>
			<path d="M3432.9,2.4v82.9h31.8c6.5,0,11.7,5.3,11.7,11.7v208.8h93V52.5c0-27.6-22.4-50-50-50L3432.9,2.4L3432.9,2.4z"/>
		</g>
		<g>
			<path d="M1788.3,18.5l-14.8-0.5h-0.1l0,0h-6.8l0,0h-50.2c-23.6,0-42.8,19.1-42.8,42.8v202.3c0,23.6,19.1,42.7,42.8,42.7h72
				C1984,293.1,1984,31.2,1788.3,18.5z M1773.4,223L1773.4,223h-6.8V100.8h6.8C1864.9,100.9,1864.9,223,1773.4,223z"/>
		</g>
		<g>
			<path d="M1325.2,100.8h35.3V18h-35.3c-215.5,0-215.5,287.8,0,287.7v0.1h35.3V223h-35.3c0,0,0-0.1,0-0.1
				C1233.7,222.9,1233.7,100.8,1325.2,100.8z"/>
		</g>
		<g>
			<path d="M802,305.8h93L809.7,56.9c-19.8-57.8-101.6-57.8-121.3,0l-85.3,248.9h93l9.5-39h86.8L802,305.8z M721.8,200.6l21.6-88.5
				c1.1-6.3,10.1-6.3,11.2,0l21.6,88.5H721.8z"/>
		</g>
		<g>
			<path d="M1570,305.8h93l-85.3-248.9c-19.8-57.8-101.6-57.8-121.3,0l-85.3,248.9h93l9.5-39h86.8L1570,305.8z M1489.8,200.6
				l21.6-88.5c1.1-6.3,10.1-6.3,11.2,0l21.6,88.5H1489.8z"/>
		</g>
		<g>
			<path d="M2264.1,305.8h93l-85.3-248.9c-19.8-57.8-101.6-57.8-121.3,0l-85.3,248.9h93l9.5-39h86.8L2264.1,305.8z M2184,200.6
				l21.6-88.5c1.1-6.3,10.1-6.3,11.2,0l21.6,88.5H2184z"/>
		</g>
		<g>
			<path d="M3005.1,0c-96.4,0-132,70.3-132,157.1s35.6,157.1,132,157.1c96.4,0,132-70.3,132-157.1S3101.5,0,3005.1,0z M3005.1,231.4
				c-21.6,0-39.1-18-39.1-74.3s17.4-74.3,39.1-74.3c21.6,0,39.1,18,39.1,74.3S3026.6,231.4,3005.1,231.4z"/>
		</g>
		<g>
			<path d="M3290.5,0c-96.4,0-132,70.3-132,157.1s35.6,157.1,132,157.1c96.4,0,132-70.3,132-157.1S3387,0,3290.5,0z M3290.5,231.4
				c-21.6,0-39.1-18-39.1-74.3s17.4-74.3,39.1-74.3c21.6,0,39.1,18,39.1,74.3S3312.1,231.4,3290.5,231.4z"/>
		</g>
	</g>
	<g>
		<polygon points="2848.4,223 2848.4,305.8 2651.9,305.8 2713.9,223 		"/>
	</g>
	<g>
		<rect x="1325.4" y="223" width="35.3" height="82.8"/>
	</g>
	<g>
		<rect x="1325.4" y="18" width="35.3" height="82.8"/>
	</g>
	<g>
		<g>
			<g>
				<polygon points="100,14.2 0,305.8 147,305.8 247,14.2 				"/>
			</g>
			<g>
				<polygon points="301,14.2 201,305.8 348.1,305.8 448.1,14.2 				"/>
			</g>
			<g>
				<polygon points="502.1,14.2 402.1,305.8 549.1,305.8 649.1,14.2 				"/>
			</g>
		</g>
	</g>
	<g>
		<g>
			<polygon points="3645.1,206.3 3725.2,206.3 3725.2,221.3 3693.8,221.3 3693.8,305.3 3676.5,305.3 3676.5,221.3 3645.2,221.3 
				3645.2,206.3 			"/>
		</g>
		<g>
			<polygon points="3736.3,206.3 3760.7,206.3 3788,283.7 3788.3,283.7 3814.9,206.3 3839,206.3 3839,305.2 3822.5,305.2 
				3822.5,228.9 3822.2,228.9 3794.8,305.2 3780.5,305.2 3753.1,228.9 3752.8,228.9 3752.8,305.2 3736.3,305.2 3736.3,206.3 			"/>
		</g>
	</g>
</g>
</svg>
