<?xml version="1.0" encoding="utf-8"?>
<!-- Generator: Adobe Illustrator 26.0.3, SVG Export Plug-In . SVG Version: 6.00 Build 0)  -->
<svg version="1.1" id="Layer_1" xmlns="http://www.w3.org/2000/svg" xmlns:xlink="http://www.w3.org/1999/xlink" x="0px" y="0px"
	 viewBox="0 0 3839 1008.4" style="enable-background:new 0 0 3839 1008.4;" xml:space="preserve">
<style type="text/css">
	.st0{fill:#FFFFFF;}
	.st1{font-family:'HelveticaNeueLTStd-MdIt';}
	.st2{font-size:140.7915px;}
</style>
<g>
	<g>
		<path d="M796.3,1008.3c-10.7,0-15.1-2.1-19-4.9l21.6-95.6c37.4-5.7,52.9-31.3,60.7-99.3c19.7-170.3,133.3-180.2,146.1-180.7
			c1.5-0.1,2.9-0.1,4.2-0.1c4,0,7.4,0.3,12.5,1.2l-22.8,101.4c-37,5.1-45.3,36.8-60.4,128.7c-22.7,137.4-119.3,148.5-138.4,149.3
			C799.1,1008.3,797.6,1008.3,796.3,1008.3z"/>
		<path d="M2748.3,1008.3c-10.8,0-15.1-2.1-19.1-4.9l21.6-95.6c37.4-5.7,52.9-31.3,60.7-99.3c19.7-170.3,133.3-180.2,146.1-180.7
			c1.5-0.1,2.9-0.1,4.2-0.1c4,0,7.4,0.3,12.5,1.2l-22.8,101.4c-37,5.1-45.3,36.8-60.4,128.7c-22.7,137.4-119.3,148.5-138.4,149.3
			C2751.1,1008.3,2749.6,1008.3,2748.3,1008.3z"/>
		<path d="M638.9,1008.3c-10.7,0-15.1-2.1-19-4.9l21.6-95.6c37.4-5.7,52.9-31.3,60.7-99.3c19.7-170.3,133.3-180.2,146.1-180.7
			c1.5-0.1,2.9-0.1,4.2-0.1c4,0,7.4,0.3,12.5,1.2l-22.8,101.4c-37,5.1-45.3,36.8-60.4,128.7c-22.7,137.4-119.3,148.5-138.4,149.3
			C641.7,1008.3,640.2,1008.3,638.9,1008.3z"/>
		<rect x="2311.5" y="526.1" width="97.7" height="482.2"/>
		<path d="M3302.7,627.7c-107.6,0-197.9,78.2-207.3,185.8c-9.4,107.6,70.2,194.8,177.8,194.8s212.6-83.7,211.9-194.8
			C3484.4,705.5,3410.3,627.7,3302.7,627.7z M3371.3,884.3c-25.6,25.7-62.3,41.1-98.2,41.1c-28.4,0-53.7-10.6-71.4-29.9
			c-17.9-19.5-26.3-46-23.8-74.8c5.5-62.8,59.1-110.1,124.7-110.1c60.9,0,99,39.6,99.4,103.4C3402.3,846.3,3385.5,870,3371.3,884.3z
			"/>
		<path d="M586.1,1007.5h-85.7l42.1-186.8c0.2-2.5,0.3-5,0.3-7.5c-0.4-63.8-38.5-103.4-99.4-103.4c-65.6,0-119.2,47.3-124.7,110.1
			c-2.5,28.7,5.9,55.3,23.8,74.8c17.7,19.3,43,29.9,71.4,29.9c25.1,0,50.6-7.5,72.4-20.8l-22,97.8l-0.5,0.1c0,0-33,5.9-49.9,5.9
			c-107.6,0-187.2-87.2-177.8-194.8c9.4-107.6,99.7-185.8,207.3-185.8S625,704.7,625.7,812.7c0.1,10.2-0.8,20.1-2.4,29.8
			L586.1,1007.5z"/>
		<path d="M1532.5,720.8h64.7l17.4-77h-64.6l26.5-117.6h-89.9l-79,350.3c0,0-1.8,8-2.4,10.6c-14.4,61.3,1.6,121.2,81.3,121.2
			c0,0,9.7,0,11.4,0l43.3-77h-37.7c-15.9,0-14.7-16.1-10.9-32.8C1502,856.7,1532.5,720.8,1532.5,720.8z"/>
		<path d="M1729.1,720.8h64.7l17.4-77h-64.6l26.5-117.6h-89.9l-79,350.3c0,0-1.8,8-2.4,10.6c-14.4,61.3,1.6,121.2,81.3,121.2
			c0,0,9.7,0,11.4,0l43.3-77h-37.7c-15.9,0-14.8-16.1-10.9-32.8C1698.5,856.7,1729.1,720.8,1729.1,720.8z"/>
		<path d="M207.5,1007.9c-63.8-6.1-120.7-33.3-158.2-76.2C11.4,888.3-5.2,832.4,1.4,769.9C22.6,568.2,199,527.1,344,528.4l-18.6,83
			c-197.5,3.3-233.7,92.6-241.5,167.2C73.7,875.9,148.8,922.7,226,926L207.5,1007.9z"/>
		<path d="M2686.8,643.8l-82.2,364.6h90c15.7-69.8,55.3-245.6,82.1-364.6H2686.8z"/>
		<g>
			<path d="M3112.9,603.1c10.1-45,17.4-77,17.4-77h-89.9l-17.4,77H3112.9z"/>
			<path d="M3013.9,643.8l-82.2,364.6h90c15.7-69.8,55.3-245.6,82.1-364.6H3013.9z"/>
		</g>
		<g>
			<path d="M3563.3,643.8l-82.2,364.6h90c15.7-69.8,55.3-245.6,82.1-364.6H3563.3z"/>
		</g>
		<path d="M3641.8,643.8l-17.4,77h101.2c12.4,0,21.6,11.5,18.9,23.6l-59.5,264h90c12.1-53.8,38.5-170.9,62.2-275.9
			c10.2-45.4-24.3-88.6-70.9-88.6L3641.8,643.8L3641.8,643.8z"/>
		<g>
			<path d="M2746.4,526.1h-33.1h-36.3c-28.7,0-55.4,14.7-70.7,39l-279.8,443.2H2442l255.8-405.2h88c10.1-45,17.4-77,17.4-77
				L2746.4,526.1L2746.4,526.1z"/>
		</g>
		<path d="M1913,905.7l268.5-131.4c-16.2-87.1-84.6-146.6-178.7-146.6c-107.6,0-197.9,78.2-207.3,185.8
			c-9.4,107.6,70.2,194.8,177.8,194.8c17.4,0,34.8-2.2,51.6-6.3c1.8-0.5,3.7-0.9,5.5-1.4l22.8-100.9c-23.3,16.4-51.8,25.7-79.9,25.7
			C1950.4,925.4,1929.5,918.5,1913,905.7z M1878.1,820.7c5.5-62.8,59.1-110.1,124.7-110.1c33.3,0,59.7,11.8,77,33l-201.5,98.6
			C1877.5,835.3,1877.5,828.1,1878.1,820.7z"/>
		<path d="M1130.7,905.7l268.5-131.4c-16.2-87.1-84.6-146.6-178.7-146.6c-107.6,0-197.9,78.2-207.3,185.8
			c-9.4,107.6,70.2,194.8,177.8,194.8c17.4,0,34.8-2.2,51.6-6.3c1.8-0.5,3.7-0.9,5.5-1.4l22.8-100.9c-23.3,16.4-51.8,25.7-79.9,25.7
			C1168.1,925.4,1147.2,918.5,1130.7,905.7z M1095.8,820.7c5.5-62.8,59.1-110.1,124.7-110.1c33.3,0,59.7,11.8,77,33L1096,842.2
			C1095.2,835.3,1095.1,828.1,1095.8,820.7z"/>
	</g>
	<g>
		<g>
			<text transform="matrix(1 0 0 1 107.7695 116.8572)" class="st1 st2">EPOCH TV GAME</text>
		</g>
		<g>
			<g>
				<g>
					<path d="M527.6,462.2l0.9-4.2c-7.9,2.3-18.7,4.2-33,4.2h-33.1c-18.3,0-35.4-8.2-46.8-22.5C404.2,425.3,400,406.9,404,389
						l32-141.8h65.8L469,392.8c-0.6,2.5,0,5.2,1.7,7.2s4.1,3.2,6.7,3.2h46.4c10.1,0,18.7-6.9,20.9-16.7l31.4-139.3h65.8l-48.5,215
						L527.6,462.2L527.6,462.2z"/>
					<path d="M631.2,255.7l-26.4,117.1l-8.8,39l-9.4,41.8h-48.3l2.3-10.4c0,0-12.3,10.4-45.1,10.4h-33.1c-33,0-57.4-30.6-50.2-62.7
						l30.5-135.1h48.3l-30.5,135.1c-2.4,10.7,5.7,20.9,16.7,20.9h46.4c14,0,26.2-9.7,29.3-23.4l29.9-132.7L631.2,255.7 M652.6,238.6
						h-21.4h-48.3h-13.7l-3,13.4l-29.9,132.7c-1.3,5.9-6.5,10-12.5,10h-46.4l30.5-135.1l4.7-20.9h-21.4h-48.3h-13.7l-3,13.4
						l-30.5,135.1c-4.6,20.4,0.2,41.5,13.3,57.9c13.1,16.4,32.6,25.7,53.5,25.7h33.1c8.2,0,15.4-0.6,21.7-1.5l-0.3,1.5h21.4h48.3
						h13.7l3-13.4l9.4-41.8l8.8-39l26.4-117.1L652.6,238.6L652.6,238.6z"/>
				</g>
				<g>
					<path d="M1113.1,462.2l48.5-215h65.8l-0.9,4.2c7.9-2.3,18.7-4.2,33-4.2h43.6l-13.3,58.9h-58.5c-10.1,0-18.7,6.9-20.9,16.7
						l-31.4,139.3L1113.1,462.2L1113.1,462.2z"/>
					<path d="M1292.3,255.7l-9.4,41.8h-51.7c-14,0-26.2,9.7-29.3,23.4l-4.3,19.1l-1.1,4.8l-20.7,91.7l-3.8,17h-48.3l35.2-156.1l0,0
						l9.4-41.8h0h48.3l-2.3,10.4c0,0,12.3-10.4,45.1-10.4L1292.3,255.7 M1313.8,238.6h-21.4h-32.9c-8.2,0-15.4,0.6-21.7,1.5l0.3-1.5
						h-21.4h-48.3h-13.7l-3,13.4l-9.4,41.8l-35.2,156.1l-4.7,20.9h21.4h48.3h13.7l3-13.4l3.8-17l20.7-91.7l1.1-4.8l4.3-19.1
						c1.3-5.9,6.5-10,12.5-10h51.7h13.7l3-13.4l9.4-41.8L1313.8,238.6L1313.8,238.6z"/>
				</g>
				<g>
					<path d="M943.3,462.2c-18.3,0-35.4-8.2-46.8-22.5c-11.5-14.3-15.7-32.8-11.7-50.7l17.8-79c8.3-37,40.7-62.8,78.6-62.8h74.7
						c18.3,0,35.4,8.2,46.8,22.5c11.4,14.3,15.7,32.8,11.7,50.7l-2.2,9.6c-5.6,24.7-23.1,43.9-45.8,52h34.1l-3.9,17.5
						c-8.3,37-40.7,62.8-78.6,62.8L943.3,462.2L943.3,462.2z M949.8,392.8c-0.6,2.5,0,5.2,1.7,7.2c1.6,2,4.1,3.2,6.7,3.2h56.6
						c8.8,0,16.4-6,18.3-14.7l0.6-2.5h-82.4L949.8,392.8z M1035.9,327.1c6.5,0,12.1-4.4,13.5-10.8c0.6-2.5,0-5.1-1.6-7.1
						s-4-3.1-6.6-3.1h-54.7c-10.1,0-18.7,6.9-20.9,16.7l-1,4.3L1035.9,327.1L1035.9,327.1z"/>
					<path d="M1055.8,255.7c33,0,57.4,30.6,50.2,62.7l-2.2,9.6c-6.5,28.9-32.2,49.5-61.9,49.5h-97.5l-3,13.4
						c-2.4,10.7,5.7,20.9,16.7,20.9h56.6c12.8,0,23.9-8.9,26.7-21.3h48.3l-1.6,7c-7.4,32.8-36.6,56.1-70.2,56.1h-74.7
						c-33,0-57.4-30.6-50.2-62.7l17.8-79c7.4-32.8,36.6-56.1,70.2-56.1L1055.8,255.7 M954,335.7h82c10.5,0,19.6-7.3,21.9-17.5
						c2.4-10.6-5.7-20.7-16.5-20.7h-54.7c-14,0-26.2,9.7-29.2,23.4L954,335.7 M1055.8,238.6h-74.7c-42,0-77.7,28.6-86.9,69.5
						l-17.8,79c-4.6,20.4,0.2,41.5,13.3,57.9c13.1,16.4,32.6,25.7,53.5,25.7h74.7c42,0,77.7-28.6,86.9-69.5l1.6-7l4.7-20.9h-14.4
						c11.6-10.8,20.1-25,23.8-41.5l2.2-9.6c4.6-20.4-0.2-41.5-13.3-57.9C1096.3,248,1076.8,238.6,1055.8,238.6L1055.8,238.6z
						 M977.3,318.6c2.3-2.4,5.6-3.9,9.2-3.9h54.4c-0.6,2.3-2.7,3.9-5.1,3.9H977.3L977.3,318.6z M958.2,394.7h57c-0.1,0-0.2,0-0.4,0
						L958.2,394.7L958.2,394.7L958.2,394.7z"/>
				</g>
				<g>
					<path d="M619.4,483.2l53.2-236.1h65.8l-0.9,4.2c7.9-2.3,18.7-4.2,33-4.2H811c18.3,0,35.4,8.2,46.8,22.5
						c11.5,14.3,15.7,32.8,11.7,50.7L854,389.1c-8.3,37-40.7,62.8-78.6,62.8h-47.3c-16.4,0-27.4-2.5-34.7-5.4l-8.3,36.7H619.4z
						 M742.3,306.1c-10.1,0-18.7,6.9-20.9,16.7l-13.5,59.7c-0.6,2.5,0,5.2,1.7,7.2c1.6,2,4.1,3.2,6.7,3.2h53.9
						c10.1,0,18.7-6.9,20.9-16.7l13.5-59.7c0.6-2.5,0-5.2-1.7-7.2c-1.6-2-4.1-3.2-6.7-3.2H742.3z"/>
					<path d="M811,255.7c33,0,57.4,30.6,50.2,62.7l-15.5,68.8c-7.4,32.8-36.6,56.1-70.2,56.1h-47.3c-32.9,0-40.4-10.4-40.4-10.4
						l-3.3,14.4l-1.4,6.2l0,0l0,0l-4.8,21.1h-48.2l4.8-21.1h0l7.3-32.3L670,297.5l7-31.2l2.4-10.6l0,0h48.3l-2.3,10.4
						c0,0,12.3-10.4,45.1-10.4h12.2h8.8L811,255.7 M716.3,401.6h53.9c14,0,26.2-9.7,29.3-23.4l13.5-59.7
						c2.4-10.7-5.7-20.9-16.7-20.9H787h-6.2h-38.5c-14,0-26.2,9.7-29.3,23.4l-2.3,10.3l-11.2,49.5
						C697.2,391.4,705.3,401.6,716.3,401.6 M811,238.6h-19.5h-8.8h-12.2c-8.2,0-15.4,0.6-21.7,1.5l0.3-1.5h-21.4h-48.3h-13.7
						l-3,13.4l-2.4,10.6l-7,31.2l-27.9,123.7l-7.3,32.3l-4.7,20.9l0,0.1l-4.7,20.9h21.4h48.2h13.7l3-13.4l4.7-20.9
						c7.4,1.8,16.7,3,28.4,3h47.3c42,0,77.7-28.6,86.9-69.5l15.5-68.8c4.6-20.4-0.2-41.5-13.3-57.9C851.5,248,832,238.6,811,238.6
						L811,238.6z M716.3,384.4C716.3,384.4,716.3,384.4,716.3,384.4l11.1-49.5l2.3-10.3c1.3-5.9,6.5-10,12.5-10h38.5h6.2h9.2
						l-13.5,59.7c-1.3,5.9-6.5,10-12.5,10L716.3,384.4L716.3,384.4z"/>
				</g>
				<g>
					<g>
						<g>
							<path d="M162.4,462.2c-18.3,0-35.4-8.2-46.8-22.5c-11.4-14.3-15.7-32.8-11.7-50.7l1.5-6.7l6.9-0.4h59l-2.4,10.4
								c-0.7,3-0.1,5.6,1.6,7.7s4.1,3.2,6.7,3.2h110.5c10.1,0,18.7-6.9,20.9-16.7l5.1-22.7c0.9-4,0-8.1-2.6-11.2
								c-2.5-3.2-6.3-5-10.4-5H193.6c-19.6,0-37.9-8.8-50.2-24.1c-12.3-15.3-16.8-35.1-12.5-54.3l5-22.3c8.3-37,40.7-62.8,78.6-62.8
								h130c18.3,0,35.4,8.2,46.9,22.6c11.5,14.3,15.7,32.8,11.6,50.7l-1.5,6.7l-6.9,0.3h-58.5l2.4-10.5c0.7-3,0.1-5.6-1.6-7.7
								c-1.6-2-4.1-3.2-6.7-3.2H219.7c-10.1,0-18.7,6.9-20.9,16.7l-2.9,12.7c-0.9,4,0.1,8.1,2.6,11.2c2.5,3.2,6.3,5,10.4,5h121.7
								c16,0,30.9,7.2,40.9,19.7c10,12.5,13.7,28.6,10.1,44.2l-10.7,46.9c-8.4,36.9-40.7,62.7-78.5,62.7L162.4,462.2L162.4,462.2z"
								/>
							<path d="M344.5,192.6c33,0,57.5,30.7,50.1,62.8l-0.1,0.3h-47.7l0.1-0.4c2.4-10.7-5.7-20.9-16.7-20.9H219.7
								c-14,0-26.2,9.7-29.3,23.4l-2.9,12.8c-3.1,13.7,7.3,26.7,21.3,26.7h121.7c28.1,0,48.9,26.1,42.6,53.5l-10.7,46.9
								c-7.5,32.8-36.6,56-70.2,56H162.4c-33,0-57.4-30.6-50.2-62.7l0.1-0.4h48.3l-0.1,0.4c-2.4,10.7,5.7,20.9,16.7,20.9h110.5
								c14,0,26.2-9.7,29.3-23.4l5.1-22.7c3.1-13.7-7.3-26.7-21.3-26.7H193.6c-35.7,0-62.2-33.1-54.3-68l5-22.3
								c7.4-32.8,36.6-56.1,70.2-56.1L344.5,192.6 M344.5,175.5h-130c-42,0-77.7,28.6-86.9,69.5l-5,22.3
								c-4.9,21.7,0.3,44.1,14.2,61.5c13.9,17.4,34.6,27.3,56.9,27.3h107.1c2,0,3.2,1.1,3.7,1.8c0.5,0.7,1.4,2.1,0.9,4l-5.1,22.7
								c-1.3,5.9-6.5,10-12.5,10H177.2l0.1-0.5l4.7-20.9h-21.4h-48.3H98.6l-3,13.4l-0.1,0.4c-4.6,20.4,0.2,41.5,13.3,57.9
								c13.1,16.4,32.6,25.7,53.5,25.7h130.1c41.9,0,77.6-28.5,86.9-69.3l10.7-46.9c4.1-18.2-0.1-36.9-11.8-51.5s-29-22.9-47.6-22.9
								H208.9c-2,0-3.2-1.1-3.7-1.8c-0.5-0.7-1.3-2.1-0.9-4l2.9-12.7c1.3-5.9,6.5-10,12.5-10h110.5l-0.1,0.5l-4.7,20.9h21.4h47.7
								h13.7l3-13.3l0.1-0.3c4.7-20.4-0.2-41.6-13.2-58C385,184.9,365.5,175.5,344.5,175.5L344.5,175.5z"/>
						</g>
					</g>
				</g>
			</g>
			<g>
				<g>
					<path class="st0" d="M504.2,419.9l0.9-4.2c-7.9,2.3-18.7,4.2-33,4.2h-33.1c-18.3,0-35.4-8.2-46.8-22.5
						c-11.4-14.3-15.7-32.8-11.7-50.7l32-141.8h65.8l-32.8,145.6c-0.6,2.5,0,5.2,1.7,7.2c1.6,2,4.1,3.2,6.7,3.2h46.4
						c10.1,0,18.7-6.9,20.9-16.7l31.4-139.3h65.8l-48.5,215L504.2,419.9L504.2,419.9z"/>
					<path d="M607.8,213.5l-26.4,117.1l-8.8,39l-9.4,41.8h-48.3l2.3-10.4c0,0-12.3,10.4-45.1,10.4h-33.1c-33,0-57.4-30.6-50.2-62.7
						l30.5-135.1h48.3l-30.5,135.1c-2.4,10.7,5.7,20.9,16.7,20.9h46.4c14,0,26.2-9.7,29.3-23.4l29.9-132.7L607.8,213.5 M629.2,196.3
						h-21.4h-48.3h-13.7l-3,13.4l-29.9,132.7c-1.3,5.9-6.5,10-12.5,10h-46.4l30.5-135.2l4.7-20.9h-21.4h-48.3h-13.7l-3,13.4
						l-30.5,135.1c-4.6,20.4,0.2,41.5,13.3,57.9c13.1,16.4,32.6,25.7,53.5,25.7h33.1c8.2,0,15.4-0.6,21.7-1.5l-0.3,1.5H515h48.3
						h13.7l3-13.4l9.4-41.8l8.8-39l26.4-117.1L629.2,196.3L629.2,196.3z"/>
				</g>
				<g>
					<path class="st0" d="M1089.7,419.9l48.5-215h65.8l-0.9,4.2c7.9-2.3,18.7-4.2,33-4.2h43.6l-13.3,58.9h-58.5
						c-10.1,0-18.7,6.9-20.9,16.7l-31.4,139.3L1089.7,419.9L1089.7,419.9z"/>
					<path d="M1268.9,213.5l-9.4,41.8h-51.7c-14,0-26.2,9.7-29.3,23.4l-4.3,19.1l-1.1,4.8l-20.7,91.7l-3.8,17h-48.3l35.2-156.1l0,0
						l9.4-41.8h0h48.3l-2.3,10.4c0,0,12.3-10.4,45.1-10.4L1268.9,213.5 M1290.4,196.4h-21.4H1236c-8.2,0-15.4,0.6-21.7,1.5l0.3-1.5
						h-21.4H1145h-13.7l-3,13.4l-9.4,41.8l-35.2,156.1l-4.7,20.9h21.4h48.3h13.7l3-13.4l3.8-17l20.7-91.7l1.1-4.8l4.3-19.1
						c1.3-5.9,6.5-10,12.5-10h51.7h13.7l3-13.4l9.4-41.8L1290.4,196.4L1290.4,196.4z"/>
				</g>
				<g>
					<path class="st0" d="M919.9,419.9c-18.3,0-35.4-8.2-46.8-22.5c-11.5-14.3-15.7-32.8-11.7-50.7l17.8-79
						c8.3-37,40.7-62.8,78.6-62.8h74.7c18.3,0,35.4,8.2,46.8,22.5c11.4,14.3,15.7,32.8,11.7,50.7l-2.2,9.6
						c-5.6,24.7-23.1,43.9-45.8,52h34.1l-3.9,17.5c-8.3,37-40.7,62.8-78.6,62.8L919.9,419.9L919.9,419.9z M926.4,350.5
						c-0.6,2.6,0,5.2,1.7,7.2c1.6,2,4.1,3.2,6.7,3.2h56.6c8.8,0,16.4-6,18.3-14.7l0.6-2.5h-82.4L926.4,350.5z M1012.5,284.9
						c6.5,0,12.1-4.4,13.5-10.8c0.6-2.5,0-5.1-1.6-7.1c-1.6-2-4-3.1-6.5-3.1h-54.7c-10.1,0-18.7,6.9-20.9,16.7l-1,4.3L1012.5,284.9
						L1012.5,284.9z"/>
					<path d="M1032.4,213.5c33,0,57.4,30.6,50.2,62.7l-2.2,9.6c-6.5,28.9-32.2,49.5-61.9,49.5h-97.5l-3,13.4
						c-2.4,10.7,5.7,20.9,16.7,20.9h56.6c12.8,0,23.9-8.9,26.7-21.3h48.3l-1.6,7c-7.4,32.8-36.6,56.1-70.2,56.1h-74.7
						c-33,0-57.4-30.6-50.2-62.7l17.8-79c7.4-32.8,36.6-56.1,70.2-56.1L1032.4,213.5 M930.6,293.5h82c10.5,0,19.6-7.3,21.9-17.5
						c2.4-10.6-5.7-20.7-16.5-20.7h-54.7c-14,0-26.2,9.7-29.2,23.4L930.6,293.5 M1032.4,196.4h-74.7c-42,0-77.7,28.6-86.9,69.5
						l-17.8,79c-4.6,20.4,0.2,41.5,13.3,57.9c13.1,16.4,32.6,25.7,53.5,25.7h74.7c42,0,77.7-28.6,86.9-69.5l1.6-7l4.7-20.9h-14.4
						c11.6-10.7,20.1-25,23.8-41.5l2.2-9.6c4.6-20.4-0.2-41.5-13.3-57.9C1072.9,205.7,1053.4,196.4,1032.4,196.4L1032.4,196.4z
						 M953.9,276.3c2.3-2.4,5.6-3.9,9.2-3.9h54.4c-0.6,2.3-2.7,3.9-5.1,3.9H953.9L953.9,276.3z M934.8,352.4h57c-0.1,0-0.2,0-0.4,0
						L934.8,352.4L934.8,352.4L934.8,352.4z"/>
				</g>
				<g>
					<path class="st0" d="M596,441l53.2-236.1H715l-0.9,4.2c7.9-2.3,18.7-4.2,33-4.2h40.5c18.3,0,35.4,8.2,46.8,22.5
						c11.5,14.3,15.7,32.8,11.7,50.7l-15.5,68.8c-8.3,37-40.7,62.8-78.6,62.8h-47.3c-16.4,0-27.4-2.5-34.7-5.4l-8.3,36.7H596z
						 M718.9,263.9c-10.1,0-18.7,6.9-20.9,16.7l-13.5,59.7c-0.6,2.5,0,5.2,1.7,7.2c1.6,2,4.1,3.2,6.7,3.2h53.9
						c10.1,0,18.7-6.9,20.9-16.7l13.5-59.7c0.6-2.5,0-5.2-1.7-7.2c-1.6-2-4.1-3.2-6.7-3.2H718.9z"/>
					<path d="M787.6,213.5c33,0,57.4,30.6,50.2,62.7L822.3,345c-7.4,32.8-36.6,56.1-70.2,56.1h-47.3c-32.9,0-40.4-10.4-40.4-10.4
						l-3.3,14.4l-1.4,6.2l0,0l0,0l0,0l-4.8,21.1h-48.2l4.8-21.1h0l0,0l7.3-32.3l27.9-123.7l7-31.2l2.4-10.6h48.3l-2.3,10.4
						c0,0,12.3-10.4,45.1-10.4h12.2h8.8L787.6,213.5 M692.9,359.3h53.9c14,0,26.2-9.7,29.3-23.4l13.5-59.7
						c2.4-10.7-5.7-20.9-16.7-20.9h-9.2h-6.2h-38.5c-14,0-26.2,9.7-29.3,23.4l-2.3,10.3l-11.2,49.5
						C673.8,349.1,681.9,359.3,692.9,359.3 M787.6,196.3h-19.5h-8.8h-12.2c-8.2,0-15.4,0.6-21.7,1.5l0.3-1.5h-21.4h-48.3h-13.7
						l-3,13.4l-2.4,10.6l-7,31.2L602,375.3l-7.3,32.3l-3.4,15.1l0,0l-1.3,6l-4.7,20.9h21.4H655h13.7l3-13.4l3-13.2h0l1.7-7.7
						c7.4,1.8,16.7,3,28.4,3h47.3c42,0,77.7-28.6,86.9-69.5l15.5-68.8c4.6-20.4-0.2-41.5-13.3-57.9
						C828.1,205.7,808.6,196.3,787.6,196.3L787.6,196.3z M692.9,342.2C692.9,342.2,692.9,342.2,692.9,342.2l11.1-49.5l2.3-10.3
						c1.3-5.9,6.5-10,12.5-10h38.5h6.2h9.2l-13.5,59.7c-1.3,5.9-6.5,10-12.5,10L692.9,342.2L692.9,342.2z"/>
				</g>
				<g>
					<g>
						<g>
							<path class="st0" d="M139,419.9c-18.3,0-35.4-8.2-46.8-22.5c-11.4-14.3-15.7-32.8-11.7-50.7l1.5-6.7l6.9-0.4h59l-2.4,10.4
								c-0.7,3-0.1,5.6,1.6,7.7c1.6,2,4.1,3.2,6.7,3.2h110.5c10.1,0,18.7-6.9,20.9-16.7l5.1-22.7c0.9-4,0-8.1-2.6-11.2
								s-6.3-5-10.4-5H170.2c-19.6,0-37.9-8.8-50.2-24.1s-16.8-35.1-12.5-54.3l5-22.3c8.3-37,40.7-62.8,78.6-62.8h130
								c18.3,0,35.4,8.2,46.9,22.6c11.4,14.3,15.7,32.8,11.6,50.7l-1.5,6.7l-6.9,0.3h-58.5l2.4-10.5c0.7-3,0.1-5.6-1.6-7.7
								c-1.6-2.1-4.1-3.2-6.7-3.2H196.3c-10.1,0-18.7,6.9-20.9,16.7l-2.9,12.7c-0.9,4,0.1,8.1,2.6,11.2c2.5,3.2,6.3,5,10.4,5h121.7
								c16,0,30.9,7.2,40.9,19.7c10,12.5,13.7,28.6,10.1,44.2l-10.7,46.9c-8.4,36.9-40.7,62.7-78.5,62.7L139,419.9L139,419.9z"/>
							<path d="M321.1,150.3c33,0,57.5,30.7,50.1,62.8l-0.1,0.3h-47.7l0.1-0.4c2.4-10.7-5.7-20.9-16.7-20.9H196.3
								c-14,0-26.2,9.7-29.3,23.4l-2.9,12.7c-3.1,13.7,7.3,26.7,21.3,26.7h121.7c28.1,0,48.9,26.1,42.6,53.5l-10.7,46.9
								c-7.5,32.8-36.6,56-70.2,56H139c-33,0-57.4-30.6-50.2-62.7l0.1-0.4h48.3l-0.1,0.4c-2.4,10.7,5.7,20.9,16.7,20.9h110.5
								c14,0,26.2-9.7,29.3-23.4l5.1-22.7c3.1-13.7-7.3-26.7-21.3-26.7H170.2c-35.7,0-62.2-33.1-54.3-68l5-22.3
								c7.4-32.8,36.6-56.1,70.2-56.1L321.1,150.3 M321.1,133.2h-130c-42,0-77.7,28.6-86.9,69.5l-5,22.3
								c-4.9,21.7,0.3,44.1,14.2,61.5c13.9,17.4,34.6,27.3,56.9,27.3h107.1c2,0,3.2,1.1,3.7,1.8c0.5,0.7,1.4,2.1,0.9,4l-5.1,22.7
								c-1.3,5.9-6.5,10-12.5,10H153.8l0.1-0.5l4.7-20.9h-21.4H88.9H75.2l-3,13.3l-0.1,0.4c-4.6,20.5,0.2,41.6,13.3,58
								s32.6,25.7,53.5,25.7H269c41.9,0,77.6-28.5,86.9-69.3l10.7-46.9c4.1-18.2-0.1-36.9-11.8-51.5s-29-22.9-47.6-22.9H185.5
								c-2,0-3.2-1.1-3.7-1.8c-0.5-0.7-1.4-2.1-0.9-4l2.9-12.8c1.3-5.9,6.5-10,12.5-10h110.5l-0.1,0.5l-4.7,20.9h21.4h47.7h13.7
								l3-13.3l0.1-0.3c4.7-20.4-0.2-41.6-13.2-58C361.6,142.6,342.1,133.2,321.1,133.2L321.1,133.2z"/>
						</g>
					</g>
				</g>
			</g>
			<rect x="357.3" y="263" width="31.6" height="49.4"/>
			<rect x="146.7" y="309.3" width="31.6" height="49.4"/>
		</g>
	</g>
</g>
</svg>
