<?xml version="1.0" encoding="utf-8"?>
<!-- Generator: Adobe Illustrator 26.0.1, SVG Export Plug-In . SVG Version: 6.00 Build 0)  -->
<svg version="1.1" id="Layer_1" xmlns="http://www.w3.org/2000/svg" xmlns:xlink="http://www.w3.org/1999/xlink" x="0px" y="0px"
	 viewBox="0 0 3839 1272.2" style="enable-background:new 0 0 3839 1272.2;" xml:space="preserve">
<style type="text/css">
	.st0{fill:#FFE000;}
	.st1{fill:#FFFFFF;}
	.st2{fill:#FF001F;}
</style>
<g>
	<g>
		<g>
			<g>
				<rect x="2345.7" y="176.3" width="50.4" height="160.2"/>
			</g>
			<g>
				<rect x="1448.8" y="176.3" width="50.4" height="159.9"/>
			</g>
			<g>
				<polygon points="928.8,176.3 928.8,221.8 928.8,256.5 928.8,294 928.8,336.4 979.1,336.4 979.1,294 1134.4,294 1134.4,256.5 
					979.1,256.5 979.1,221.8 1134.4,221.8 1134.4,176.3 979.1,176.3 				"/>
			</g>
			<g>
				<polygon points="2250.9,233.7 2128.9,233.7 2128.9,176.3 2078.6,176.3 2078.6,233.7 2078.6,279.3 2078.6,336.4 2128.9,336.4 
					2128.9,279.3 2250.9,279.3 2250.9,336.1 2301.3,336.1 2301.3,279.3 2301.3,233.7 2301.3,176.3 2250.9,176.3 				"/>
			</g>
			<g>
				<path d="M2843.8,176.3h-145.9h-32.2v159.9h32.2v0.4h145.9c30.1,0,54.5-21.4,54.5-71.7v-6.9v-3v-7
					C2898.2,197.7,2873.9,176.3,2843.8,176.3z M2852,256.1v0.4v7.4c0,17.8-10.7,27-23.8,27h-112.1v-69h112.1
					c13.2,0,23.8,9.1,23.8,27V256.1z"/>
			</g>
			<g>
				<polygon points="2490.9,176.3 2440.4,176.3 2440.4,290.5 2440.4,336.1 2440.4,336.4 2490.9,336.4 2490.9,336.1 2646.1,336.1 
					2646.1,290.5 2490.9,290.5 				"/>
			</g>
			<g>
				<path d="M1983.4,176.3h-115.6c-34.5,0-62.5,28-62.5,62.5v34.9c0,34.5,28,62.5,62.5,62.5h115.6c34.5,0,62.5-28,62.5-62.5v-1.9
					h-50.4v0.4c0,10.2-8.2,18.4-18.4,18.4h-102.9c-10.2,0-18.4-8.2-18.4-18.4v-31.8c0-10.2,8.2-18.4,18.4-18.4h102.9
					c10.2,0,18.4,8.2,18.4,18.4v0.4h50.4v-1.9C2045.9,204.2,2017.9,176.3,1983.4,176.3z"/>
			</g>
			<g>
				<path d="M1773.9,254.2v-29.5c0-26.8-21.7-48.5-48.5-48.5h-169.4h-12.5v159.9h50.4V294h84l40.2,42.1h62.7l-40.7-42.5
					C1759.2,290.6,1773.9,274.1,1773.9,254.2z M1710.3,256.5h-116.4v-34.7h116.4c9.6,0,17.4,7.8,17.4,17.4
					S1719.9,256.5,1710.3,256.5z"/>
			</g>
			<g>
				<path d="M1325.3,176.3h-40.4h-4.8h-50.4h-0.4l-92.9,160.2h60.8l22-42.4H1346l22,42.4h60.8l-93-160.2H1325.3z M1238.5,256.5
					l18-34.7h52.1l18,34.7H1238.5z"/>
			</g>
		</g>
		<g>
			<rect x="928.8" width="1969.5" height="134.4"/>
		</g>
		<g>
			<rect x="928.8" y="378.3" width="1969.5" height="134.4"/>
		</g>
	</g>
	<g>
		<g>
			<polygon points="2053.3,948.5 1854.5,677.3 1752.7,677.3 1752.7,1179.4 1880,1179.4 1880,927.5 2064.7,1179.4 2180.5,1179.4 
				2180.5,677.3 2053.3,677.3 			"/>
			<polygon points="1583.4,948.5 1384.5,677.3 1282.8,677.3 1282.8,1179.4 1410,1179.4 1410,927.5 1594.8,1179.4 1710.7,1179.4 
				1710.7,677.3 1583.4,677.3 			"/>
			<polygon points="2248.6,677.3 2222.6,677.3 2222.6,1179.4 2248.6,1179.4 2248.6,1179.4 2502.8,1179.4 2502.8,1052 2350,1052 
				2350,996 2502.8,996 2502.8,868.7 2350,868.7 2350,804.6 2502.8,804.6 2502.8,677.2 2248.6,677.2 			"/>
			<polygon points="2672.2,1052.1 2672.2,677.3 2544.8,677.3 2544.8,1179.4 2560.5,1179.4 2560.5,1179.5 2814.8,1179.5 
				2814.8,1052.1 			"/>
			<path d="M1113.4,677.3h-99.8l-202,425.8V677.3H684.3v183.4H541.7V677.3H414.3v502.1h127.4V987.9h142.7v191.5h91.1h36.2h106
				l87.1-183.5h108.8v183.5h127.3V677.3h-84.9H1113.4z M1065,868.7l48.4-102v102H1065z"/>
			<path d="M263.3,1060.8c-78.8,0-131.7-55.5-131.7-132.3c0-75.5,52.3-134.9,129.7-134.9c43.2,0,85.2,18.8,111,53.6l-0.1-151.6
				c-37.4-15.5-74.9-24.5-115.5-24.5c-68.4,0-137.4,29.7-185.2,78.7C25.2,797.6,0,861.5,0,928c0,72.3,24.5,135.5,78.3,184
				c50.3,45.8,114.8,71.6,182.6,71.6c39.3,0,69.6-9.7,111.6-22.6v-151.7C345.9,1040.8,304.6,1060.8,263.3,1060.8z"/>
		</g>
		<g>
			<g>
				<path class="st1" d="M3827,927.4c0-98.4-19.8-188.4-33.5-238.8c-7.6-27.9-29.1-49.9-57-57.6c-104.5-29-267.9-36.4-369.5-36.4
					l0,0c-101.6,0-265,7.4-369.5,36.4c-27.8,7.7-49.4,29.7-57,57.6C2926.8,739,2907,829,2907,927.4l0,0
					c0,98.4,19.8,188.4,33.5,238.8c7.6,27.9,29.1,49.9,57,57.6c104.5,29,267.9,36.4,369.5,36.4l0,0c101.6,0,265-7.4,369.5-36.4
					c27.8-7.7,49.4-29.7,57-57.6C3807.2,1115.7,3827,1025.7,3827,927.4L3827,927.4z"/>
				<path d="M3367,1272.2c-56.3,0-249.4-2.7-372.7-36.8c-31.7-8.8-56.7-34.1-65.4-66.1c-12.6-46.7-33.9-140.2-33.9-242
					c0-101.8,21.2-195.3,33.9-241.9c8.7-32,33.7-57.3,65.4-66c123.2-34.2,316.4-36.8,372.7-36.8s249.5,2.7,372.7,36.8
					c31.7,8.8,56.7,34.1,65.4,66c12.7,46.7,33.9,140.2,33.9,241.9c0,101.9-21.2,195.3-33.9,242c-8.7,32-33.7,57.3-65.4,66.1
					C3616.6,1269.5,3423.3,1272.2,3367,1272.2z M3367,606.5c-55.5,0-246,2.6-366.3,35.9c-23.5,6.5-42.1,25.4-48.6,49.2
					c-12.3,45.5-33.1,136.7-33.1,235.7s20.7,190.2,33.1,235.7c6.5,23.8,25.1,42.7,48.6,49.2c120.3,33.3,310.7,35.9,366.3,35.9
					c55.6,0,245.9-2.6,366.3-35.9c23.5-6.5,42.1-25.4,48.6-49.2c12.3-45.5,33.1-136.7,33.1-235.7s-20.7-190.2-33.1-235.7
					c-6.4-23.8-25.1-42.7-48.6-49.2C3613.1,609.1,3422.6,606.5,3367,606.5z"/>
			</g>
			<polygon points="3526.4,777.4 3526.4,649.7 3335.3,649.7 3207.7,649.7 3207.7,777.4 3207.7,1205 3335.3,1205 3335.3,995.2 
				3526.4,995.2 3526.4,867.6 3335.3,867.6 3335.3,777.4 			"/>
		</g>
	</g>
</g>
</svg>
