<?xml version="1.0" encoding="utf-8"?>
<!-- Generator: Adobe Illustrator 25.1.0, SVG Export Plug-In . SVG Version: 6.00 Build 0)  -->
<svg version="1.1" id="Layer_1" xmlns="http://www.w3.org/2000/svg" xmlns:xlink="http://www.w3.org/1999/xlink" x="0px" y="0px"
	 viewBox="0 0 3839.5 1262.1" style="enable-background:new 0 0 3839.5 1262.1;" xml:space="preserve">
<style type="text/css">
	.st0{fill:#444444;}
	.st1{fill:none;stroke:#BCBCBC;stroke-width:40.0516;stroke-linecap:round;stroke-miterlimit:10;}
	.st2{fill:#BCBCBC;}
	.st3{fill:#FFDD34;}
	.st4{fill:#7B46CE;}
	.st5{fill:none;stroke:#7B46CE;stroke-width:40.0516;stroke-linecap:round;stroke-miterlimit:10;}
	.st6{fill:#FF3ABD;}
	.st7{fill:none;stroke:#BCBCBC;stroke-width:40.1142;stroke-linecap:round;stroke-miterlimit:10;}
	.st8{fill:none;stroke:#7B46CE;stroke-width:40.1142;stroke-linecap:round;stroke-miterlimit:10;}
	.st9{fill:#E0E0E0;}
	.st10{fill:#FFFFFF;}
	.st11{fill:none;stroke:#FFFFFF;stroke-width:6.2774;stroke-miterlimit:10;}
	.st12{fill:none;stroke:#FFFFFF;stroke-width:6.0077;stroke-miterlimit:10;}
	.st13{fill:none;stroke:#000000;stroke-width:6.2774;stroke-miterlimit:10;}
	.st14{fill:none;stroke:#000000;stroke-width:6.0077;stroke-miterlimit:10;}
	.st15{fill:none;stroke:#000000;stroke-width:6.2907;stroke-miterlimit:10;}
	.st16{fill:none;stroke:#000000;stroke-width:37.9754;stroke-linecap:round;stroke-miterlimit:10;}
	.st17{clip-path:url(#SVGID_2_);}
	.st18{fill:#FFFFFF;stroke:#000000;stroke-width:6.6268;stroke-miterlimit:10;}
	.st19{clip-path:url(#SVGID_4_);}
	.st20{fill:none;stroke:#000000;stroke-width:40.693;stroke-linecap:round;stroke-miterlimit:10;}
	.st21{clip-path:url(#SVGID_6_);}
	.st22{clip-path:url(#SVGID_8_);}
</style>
<g>
	<path d="M132.1,1259.6v-125.4l-53,125.4H66.9l-52.8-125.4v125.4H0v-140.9h21.9l51.3,119.9l51.1-119.9h21.9v140.9H132.1z"/>
	<path d="M221.8,1262.1c-28.4,0-47.9-17.1-47.9-55.5v-87.9H188v87.9c0,28.8,11.8,42.5,33.9,42.5c21.7,0,33.8-13.7,33.8-42.5v-87.9
		h14.1v87.9C269.8,1245,250.4,1262.1,221.8,1262.1z"/>
	<path d="M297.6,1259.6v-140.9h14.1v128.1H370v12.8H297.6z"/>
	<path d="M409.1,1131.5v128.1H395v-128.1h-32.2v-12.8h78.5v12.8H409.1z"/>
	<path d="M455.9,1259.6v-140.9H470v140.9H455.9z"/>
	<path d="M629.9,1259.6v-125.4l-53,125.4h-12.2l-52.8-125.4v125.4h-14.1v-140.9h21.9l51.3,119.9l51.1-119.9H644v140.9H629.9z"/>
	<path d="M671.8,1259.6v-140.9h77v12.8h-62.9v50.5h60.8v12.8h-60.8v52.1h62.9v12.8H671.8z"/>
	<path d="M810.7,1259.6h-38v-140.9h33.2c25.5,0,40.4,3.1,53.8,11.1c21,12.4,32,33.3,32,59.8C891.7,1230.3,865.8,1259.6,810.7,1259.6
		z M851.9,1140.7c-10.7-6.5-24-9.1-45.4-9.1h-19.6v115.3h19.6c25,0,39.5-3.6,50.7-12.6c13-10.5,20.2-26.7,20.2-45.2
		C877.4,1168.1,868.1,1150.4,851.9,1140.7z"/>
	<path d="M913.4,1259.6v-140.9h14.1v140.9H913.4z"/>
	<path d="M1064.3,1259.6l-20.4-47.5h-65.6l-20.6,47.5h-14.9l60.4-140.9h15.8l60.6,140.9H1064.3z M1011.3,1134.8l-27.6,64.6h54.7
		L1011.3,1134.8z"/>
	<path d="M1146.7,1259.6v-140.9h77v12.8h-62.9v50.5h60.8v12.8h-60.8v52.1h62.9v12.8H1146.7z"/>
	<path d="M1345.7,1259.6l-83.9-123.9v123.9h-14.1v-140.9h19.1l78.9,116.9v-116.9h14.1v140.9H1345.7z"/>
	<path d="M1420.7,1131.5v128.1h-14.1v-128.1h-32.2v-12.8h78.5v12.8H1420.7z"/>
	<path d="M1467.6,1259.6v-140.9h77v12.8h-62.9v50.5h60.8v12.8h-60.8v52.1h62.9v12.8H1467.6z"/>
	<path d="M1622.5,1207l39.5,52.6h-17.5l-47.5-63.9c39.5,0,52.8-6.8,52.8-32.2c0-23.5-14.5-32-47.3-32h-19.8v128.1h-14.1v-140.9h34.9
		c44.2,0,60.6,16,60.6,45.4C1664.1,1189.1,1649.6,1204.2,1622.5,1207z"/>
	<path d="M1716.3,1131.5v128.1h-14.1v-128.1h-32.2v-12.8h78.5v12.8H1716.3z"/>
	<path d="M1862.6,1259.6l-20.4-47.5h-65.6l-20.6,47.5h-14.9l60.4-140.9h15.8l60.6,140.9H1862.6z M1809.6,1134.8l-27.7,64.6h54.7
		L1809.6,1134.8z"/>
	<path d="M1893.4,1259.6v-140.9h14.1v140.9H1893.4z"/>
	<path d="M2033.3,1259.6l-83.9-123.9v123.9h-14.1v-140.9h19.1l78.9,116.9v-116.9h14.1v140.9H2033.3z"/>
	<path d="M2207.3,1259.6v-125.4l-53,125.4h-12.2l-52.8-125.4v125.4h-14.1v-140.9h21.9l51.3,119.9l51.1-119.9h21.9v140.9H2207.3z"/>
	<path d="M2249.1,1259.6v-140.9h77v12.8h-62.9v50.5h60.8v12.8h-60.8v52.1h62.9v12.8H2249.1z"/>
	<path d="M2448.1,1259.6l-83.9-123.9v123.9h-14.1v-140.9h19.1l78.9,116.9v-116.9h14.1v140.9H2448.1z"/>
	<path d="M2523.1,1131.5v128.1H2509v-128.1h-32.2v-12.8h78.5v12.8H2523.1z"/>
	<path d="M2662.8,1202.6h-27.1v57h-14.1v-140.9h38.9c38.7,0,54.3,13.1,54.3,42.7C2714.8,1188.1,2701.1,1202.6,2662.8,1202.6z
		 M2655.7,1131.5h-20v58.3h26.1c28,0,38.7-8,38.7-28.4C2700.5,1132.9,2682.6,1131.5,2655.7,1131.5z"/>
	<path d="M2733.2,1259.6v-140.9h14.1v128.1h58.3v12.8H2733.2z"/>
	<path d="M2935.8,1259.6l-20.4-47.5h-65.6l-20.6,47.5h-14.9l60.4-140.9h15.8l60.6,140.9H2935.8z M2882.8,1134.8l-27.7,64.6h54.7
		L2882.8,1134.8z"/>
	<path d="M3001.1,1212.5v47.1H2987v-47.1l-48.8-93.8h15.6l40,78.9l41-78.9h15.4L3001.1,1212.5z"/>
	<path d="M3064,1259.6v-140.9h77v12.8h-62.9v50.5h60.8v12.8h-60.8v52.1h62.9v12.8H3064z"/>
	<path d="M3218.9,1207l39.5,52.6h-17.5l-47.5-63.9c39.5,0,52.8-6.8,52.8-32.2c0-23.5-14.5-32-47.3-32h-19.8v128.1H3165v-140.9h34.9
		c44.2,0,60.6,16,60.6,45.4C3260.5,1189.1,3246,1204.2,3218.9,1207z"/>
	<path d="M3372.3,1202.6h-27.1v57h-14.1v-140.9h38.9c38.7,0,54.3,13.1,54.3,42.7C3424.3,1188.1,3410.6,1202.6,3372.3,1202.6z
		 M3365.2,1131.5h-20v58.3h26.1c28,0,38.7-8,38.7-28.4C3410,1132.9,3392.1,1131.5,3365.2,1131.5z"/>
	<path d="M3510.6,1262.1c-42.1,0-74-31.3-74-72.4c0-42.1,31.1-73.4,73-73.4c29.2,0,54,14.9,64.8,39.1h-15.8
		c-12-18.9-28.6-26.1-48.4-26.1c-33.5,0-59.3,25.9-59.3,59.9c0,33,26.9,60,59.5,60c20.6,0,34.1-7.8,49-26.5h15.6
		C3561,1248.8,3539.2,1262.1,3510.6,1262.1z"/>
	<path d="M3662.2,1131.5v50.9h55.3v12.8h-55.3v64.4h-14.1v-140.9h71.5v12.8L3662.2,1131.5L3662.2,1131.5z"/>
	<path d="M3822.9,1259.6l-39.8-60.2l-40,60.2h-16.6l47.9-72.1l-45.2-68.8h16.6l37.4,56.4l37.2-56.4h16.4l-45.2,68.8l48,72.1H3822.9z
		"/>
	<path d="M3606.9,1201.9c-5.7,0-10.3-4.5-10.3-10.3c0-5.7,4.6-10.3,10.3-10.3c5.5,0,10.3,4.6,10.3,10.3
		C3617.2,1197.3,3612.5,1201.9,3606.9,1201.9z"/>
	<path d="M1126.5,34.5L1126.5,34.5l-174.1,0v0h-69.3v936.1h95.3V711.9h148.1c0,0,0,0,0,0C1578.1,711.9,1578.1,34.5,1126.5,34.5z
		 M1126.5,616.6L1126.5,616.6l-148.1,0V129.8h148.1c0,0,0,0,0,0C1451,129.8,1451,616.6,1126.5,616.6z"/>
	<path d="M1990.9,882.1c-217.3,0-393.4-176.1-393.4-393.4c0-217.3,176.1-393.4,393.4-393.4c147.3,0,275.6,81,343,200.8h106.2
		C2365.4,122,2192.4,0,1990.9,0c-269.9,0-488.7,218.8-488.7,488.7c0,269.9,218.8,488.7,488.7,488.7c201.5,0,374.5-122,449.3-296.2
		h-106.2C2266.5,801.1,2138.2,882.1,1990.9,882.1z"/>
	<rect x="2379.4" y="397.3" width="133.7" height="182.8"/>
	<polygon points="3056.1,551.9 3056.1,368.1 2779.6,368.1 2779.6,201.8 3056.1,201.8 3056.1,18 2779.6,18 2636.7,18 2595.8,18 
		2595.8,954.6 2779.6,954.6 2779.6,551.9 	"/>
	<polygon points="3543.7,452.9 3794.8,18 3582.5,18 3437.6,269 3292.7,18 3080.4,18 3331.5,452.9 3041.8,954.6 3254,954.6 
		3437.6,636.7 3621.2,954.6 3833.4,954.6 	"/>
	<g>
		<g>
			<path class="st10" d="M7,751.1V345l30.8-18.1v-14.4L334,138.8c-6.2-6.6-9.8-15.4-9.8-24.7c0-19.8,16.1-36,36-36
				c1.8,0,3.7,0.1,5.5,0.4c0-0.3,0-0.7,0-1c0-19.8,16.1-36,36-36c19.8,0,36,16.1,36,36c0,7.1-2.1,13.7-5.6,19.3
				c3.1,0.4,6.2,0.9,9.2,1.4c-2.8-4.9-4-10.5-3.3-16.2c1.6-13,12.7-22.8,25.8-22.8c1.1,0,2.1,0.1,3.2,0.2
				c67.7,8.4,135.7,32.1,186.7,65.1c28,18.2,50.2,38.6,66,60.6c18.2,25.4,27.4,52.4,27.4,80.2c0,30.9-7.9,61.2-23.5,90
				c-15,27.8-36.9,53.6-65.1,76.8c-2.9,18.2-9.3,35.7-18.9,52c-13.5,22.9-29.1,36.3-32.3,38.9c-1.2,1-4.2,3.6-8.8,7.1
				c-3.1,14.7-9.1,29.2-18,43.3c-7.9,12.5-17.7,24-29.2,34.3c-1.2,4.3-2.7,8.6-4.5,12.7c-4.8,11.2-11.6,21.6-20.2,31l232.3-136.2
				v203.5l-30.8,18.1v14.4L367.5,962.5L7,751.1z M389.7,721.5c-2.1-2.5-3.8-5.5-4.9-8.8c-2-6.2-1.6-12.8,1-18.7
				c-7.4,0.6-14.9,0.9-22.6,0.9c-6.7,0-13.4-0.2-20-0.7L389.7,721.5z M497.3,453.6c1.6,0.9,3.1,1.9,4.6,2.9c0.2-0.1,0.5-0.1,0.7-0.2
				C500.9,455.4,499.1,454.5,497.3,453.6z M405.8,380.8c27.1,0,57,5,84.3,14c28,9.3,52.4,22.5,71,38.3c1.6-0.8,3.2-1.6,4.8-2.4
				c-0.4-2.5-0.8-5-1.3-7.4c-4.5-21-31.3-44.9-71.8-63.8c-26.8-12.5-57.6-22-87.5-27v48.3C405.5,380.8,405.6,380.8,405.8,380.8z
				 M541,326.2c30.8,18.1,53.1,39.3,65.3,62c-0.1-0.5-0.2-1-0.3-1.5C601.8,366.8,577.7,344.5,541,326.2z M405.3,240
				c48,0.7,104.1,14,150.9,35.8c42.4,19.8,72.9,44.3,89.1,71.4c5.5-14.9,8.2-30.1,8.2-45.3c0-16.7-6-33.5-17.7-50
				c-12-16.7-29.5-32.6-52-47.3c-44.6-28.9-104.6-49.7-164.8-57.2c-5.2-0.6-9.9-2.8-13.8-6.1V240z M597.1,151.9c5.1,3,10.1,6,15,9.2
				c28,18.2,50.2,38.6,66,60.7c5.5,7.6,10.1,15.4,14,23.4c-2.8-10-7.8-19.9-14.8-29.8c-12-16.8-29.5-32.6-52-47.3
				C616.5,162.4,607,157,597.1,151.9z"/>
			<path d="M401.6,48.5c16,0,29,13,29,29s-13,29-29,29c-5.5,0-10.6-1.5-14.9-4.1c1.6,3.6,2.5,7.6,2.5,11.8c0,0.2,0,0.3,0,0.5
				l9.1-5.4V247c1.1,0,2.1,0,3.2,0c47.8,0,104.5,13.2,151.7,35.2c47.8,22.3,80.1,51,92.6,81.7c9.7-20,14.7-40.8,14.7-61.9
				c0-18.2-6.4-36.4-19-54c-12.5-17.5-30.6-34-53.9-49.1c-45.4-29.5-106.6-50.7-167.7-58.2c-10.4-1.3-17.8-10.8-16.5-21.2
				c1.2-9.6,9.4-16.7,18.8-16.7c0.8,0,1.6,0,2.4,0.1c66.7,8.2,133.6,31.6,183.7,64.1c27.3,17.7,48.9,37.5,64.1,58.8
				c16,22.5,24.7,46.1,25.9,70.4c2.4-10.2,3.6-20.5,3.6-30.9c0-18.2-6.4-36.4-19-54c-12.5-17.5-30.6-34-53.9-49.1
				c-45.4-29.4-106.6-50.7-167.7-58.2c-10.4-1.3-17.8-10.8-16.5-21.2c1.2-9.6,9.4-16.7,18.8-16.7c0.8,0,1.6,0,2.3,0.1
				c66.7,8.2,133.6,31.6,183.7,64.1c27.3,17.7,48.9,37.5,64.1,58.8c17.3,24.2,26.1,49.8,26.1,76.1c0,59.9-31,116.9-88,163.1
				c-2.6,18.2-8.8,35.7-18.4,52.1c-12.9,22-27.7,34.6-30.8,37c-1.2,1-4.9,4.1-10.7,8.5c-2.7,14.4-8.5,29.2-17.5,43.5
				c-7.9,12.5-17.9,24.1-29.5,34.2c-1.2,4.6-2.7,9.2-4.7,13.8c-9.6,22.2-27.4,41-51.5,54.6c-5,7.1-10.9,13.7-17.7,19.8l280.7-164.6
				v187.3l-30.8,18.1v14.4L367.5,954.4L14,747.1V559.8V349l30.8-18.1v-14.4l301.6-176.9c-9.1-4.9-15.3-14.5-15.3-25.5
				c0-16,13-29,29-29c5.5,0,10.6,1.5,14.9,4.1c-1.6-3.6-2.5-7.6-2.5-11.8C372.6,61.5,385.6,48.5,401.6,48.5 M608.4,413.5
				c2.1-1.5,4.2-2.9,6.3-4.4c0.2-0.2,0.4-0.5,0.6-0.7c0-7.6-0.9-15.3-2.5-23.2c-5-23.5-32.6-48.5-75.6-68.7
				c-42.4-19.8-93.2-31.6-135.7-31.6c-1.1,0-2.2,0-3.2,0v1.1c38,4.8,78.4,16.3,113.5,32.7C566.4,344.2,600.7,377.9,608.4,413.5
				 M398.3,387.9c2.5,0,5-0.1,7.5-0.1c52,0,115.5,18.6,154.2,53.7c4.5-2.2,9-4.4,13.4-6.8c-0.4-4.2-1.1-8.5-2-12.9
				c-5-23.5-32.6-48.5-75.6-68.7C465.5,339,431,329,398.3,324.4V387.9 M500.7,464.2c6.3-1.9,12.6-3.9,18.8-6
				c-7.3-4.8-15.6-9.3-24.7-13.3c-27.4-12.1-59.8-19.1-89.1-19.1c-2.5,0-5,0-7.5,0.1v1C434.1,431.9,471.5,444.5,500.7,464.2
				 M401.5,479.2c13.1,0,26.5-0.9,40-2.6c-13.8-5.1-28.5-9-43.3-11.4v14C399.4,479.2,400.4,479.2,401.5,479.2 M544.9,512.2
				c3.1-1.9,6.1-3.8,8.8-5.6c0.6-0.8,1.1-1.6,1.7-2.4c-0.1-0.7-0.2-1.5-0.3-2.2c-4,2.2-8.1,4.4-12.2,6.4
				C543.6,509.6,544.3,510.9,544.9,512.2 M455.6,550.6c6.5-1.6,12.9-3.4,19.2-5.4c-2.4-1.2-5-2.3-7.6-3.4c-1.8-0.8-3.7-1.5-5.5-2.2
				c-6.3,1.7-12.7,3.3-19.1,4.8C447,546.2,451.3,548.3,455.6,550.6 M363.7,593.4c1.8,0,3.6,0,5.4-0.1c-25.8-2.1-49.5-6.5-70.4-13.1
				l-1.5,0.9c2.3,2.7,5.4,5.5,9.2,8.1C324.2,591.9,343.5,593.4,363.7,593.4 M363.2,649.9c3.7,0,7.3-0.1,10.8-0.3
				c-26.4-2.8-50.8-9.1-70.6-18.6c-3.9-1.8-7.4-3.7-10.7-5.6c-13.6-2.4-26.5-5.6-38.4-9.6C266.3,632.1,306.2,649.9,363.2,649.9
				 M218.1,629c-0.2-0.4-0.4-0.8-0.6-1.2l-0.7,0.4L218.1,629 M398.3,734.7l25-14.7c-2.6,1-5.3,1.9-8,2.8c-1.9,0.6-3.9,0.9-5.8,0.9
				c0,0,0,0,0,0c-8,0-15.5-5.1-18.1-13.2c-3.2-10,2.2-20.7,12.2-23.9c2.8-0.9,5.9-2,9.3-3.4c-15.8,3.1-32.4,4.7-49.8,4.7
				c-18.4,0-36.3-1.7-53.1-4.9L398.3,734.7 M401.6,34.5c-21.5,0-39.4,15.9-42.5,36.6c-23.2,0.6-41.9,19.6-41.9,43
				c0,8.2,2.3,16,6.5,22.7L37.7,304.5l-6.9,4.1v8v6.3l-23.9,14L0,341v8v210.8v187.3v8l6.9,4.1l353.5,207.3l7.1,4.2l7.1-4.2
				L728,759.2l6.9-4.1v-8v-6.3l23.9-14l6.9-4.1v-8V527.4v-24.4l-21.1,12.4l-194.5,114c1-2,2-4.1,2.9-6.2c1.6-3.8,3-7.7,4.2-11.6
				c11.4-10.4,21.1-22,29-34.5c8.8-14,14.9-28.4,18.3-43c3.5-2.8,5.9-4.7,7-5.7c4.7-3.8,20.2-17.4,33.9-40.7
				c9.6-16.3,16-33.7,19.3-51.8c27.9-23.4,49.6-49.3,64.7-77.2c16.1-29.8,24.3-61.2,24.3-93.3c0-29.3-9.6-57.6-28.7-84.3
				c-16.3-22.8-39.1-43.8-67.9-62.5C605.6,85,536.4,60.9,467.8,52.4c-1.3-0.2-2.7-0.3-4.1-0.3c-8.6,0-16.5,3.3-22.4,8.8
				C434.8,45.4,419.5,34.5,401.6,34.5L401.6,34.5z M412.3,233.1v-79.9c1.9,0.6,3.9,1,5.9,1.3c59.1,7.3,118.1,27.8,161.8,56.1
				c21.8,14.1,38.6,29.4,50.1,45.4c10.9,15.2,16.4,30.7,16.4,45.9c0,9.8-1.2,19.6-3.6,29.4c-18.1-23.4-46.4-44.4-83.7-61.8
				C513.7,248.2,459.6,234.9,412.3,233.1L412.3,233.1z M412.3,373.9v-33c26.7,5.2,53.7,13.8,77.5,25c19.9,9.3,36.7,19.9,48.6,30.7
				c9,8.2,15.2,16.4,18,23.9c-17.9-13.2-39.7-24.2-64.2-32.3C466.5,379.6,438.3,374.6,412.3,373.9L412.3,373.9z M370,701.8
				c2.2-0.1,4.5-0.1,6.7-0.2c-0.1,1.3-0.2,2.7-0.1,4.1L370,701.8L370,701.8z"/>
		</g>
		<g>
			<path class="st16" d="M422.3,121.8c125.6,15.5,257.2,87.5,257.2,180.2c0,136.2-179.4,232.9-319.4,232.9
				c-130.5,0-236.4-53-236.4-116.8s105.8-115.5,236.4-115.5c90.5,0,216.1,50.7,229.9,115.3c16.4,76.9-40.8,121.8-40.8,121.8
				s-83.8,72.8-185.4,72.8S188.8,577.8,188.8,530c0-47.8,73.9-86.6,175.5-86.6c62.9,0,140.6,29.3,163.7,77.5
				c23,48-31.2,148-164.8,148c-72.7,0-131.6-28.1-131.6-62.7s58.9-60.4,131.6-60.4c41.9,0,104.3,21.9,120,54.8
				c12,25.2-0.8,80.6-73.7,104.1"/>
			<circle cx="360.2" cy="114.1" r="29"/>
			<polygon points="14,349 14,747.1 367.5,539.8 367.5,141.7 			"/>
			<polygon points="367.5,767.1 367.5,954.4 720.9,747.1 720.9,559.8 			"/>
			<polygon points="367.5,767.1 367.5,954.4 14,747.1 14,559.8 			"/>
			<polygon class="st10" points="44.8,316.6 44.8,714.7 398.3,507.4 398.3,109.3 			"/>
			<circle class="st10" cx="401.6" cy="77.5" r="29"/>
			<g>
				<path class="st10" d="M450.9,687.1c-8,0-15.5-5.1-18.1-13.2c-3.2-10,2.2-20.7,12.2-23.9c2.8-0.9,6-2,9.3-3.4
					c-15.8,3.1-32.4,4.7-49.8,4.7c-37.9,0-73.9-7.2-101.2-20.2c-43-20.5-49.4-47.3-49.4-61.5c0-2.6,0.2-5.6,0.8-8.9
					c-28.3-17.7-43.6-41.1-43.6-67.3c0-6.5,0.9-12.8,2.8-18.9c-43.9-24.9-67.8-57.5-67.8-93c0-38.5,28.4-73.6,79.9-98.8
					c47.2-23.1,109.5-35.8,175.5-35.8c47.8,0,104.5,13.2,151.7,35.2c54.8,25.6,89.1,59.4,96.7,95.2c0.1,0.5,0.2,0.9,0.3,1.4
					c33.7-34.4,51.7-73.4,51.7-113.4c0-18.2-6.4-36.4-19-54c-12.5-17.5-30.6-34-53.9-49.1c-45.4-29.4-106.6-50.7-167.7-58.2
					c-10.4-1.3-17.8-10.8-16.5-21.2c1.3-10.4,10.8-17.8,21.2-16.5c66.7,8.2,133.6,31.6,183.7,64.1c27.3,17.7,48.9,37.5,64.1,58.8
					c17.3,24.2,26.1,49.8,26.1,76.1c0,59.9-31,116.9-88,163.1c-2.6,18.2-8.8,35.7-18.4,52.1c-12.9,22-27.7,34.6-30.8,37
					c-1.2,1-4.9,4.1-10.7,8.5c-2.7,14.4-8.5,29.2-17.5,43.5c-7.9,12.5-17.9,24.1-29.5,34.2c-1.2,4.6-2.7,9.2-4.7,13.8
					c-13.4,31.1-43,55.5-83.5,68.5C454.9,686.8,452.9,687.1,450.9,687.1z M295.8,579.3c12,16.2,51.9,34.1,108.9,34.1
					c33.5,0,63.3-6.7,88.5-19.9c5.8-3.1,11.3-6.4,16.5-10.1c0-4-0.6-7.3-1.5-9.8c-30,12-65.2,21.2-103,21.2
					C364,594.8,326.7,589.4,295.8,579.3z M315.5,545.6c25.6,7.3,56.4,11.2,89.6,11.2c24.5,0,48.1-4.7,69.6-11.6
					c-2.4-1.2-5-2.3-7.6-3.4c-20.2-8.5-43.6-13.6-62.5-13.6c-32.8,0-63.1,5.5-85.2,15.5C318.1,544.3,316.8,544.9,315.5,545.6z
					 M249.3,491.1c-0.1,0.8-0.1,1.5-0.1,2.3c0,15,12.6,26.7,24.9,34.6c7.1-6.6,16.7-13,29.6-18.8c1-0.4,2-0.9,3-1.3
					C286.4,503.6,267.1,498,249.3,491.1z M484,507.7c12.4,5.4,24,11.9,33.9,19.7c15-7.5,27.8-15.3,37.7-22
					c-0.3-4.7-1.4-9.1-3.2-12.9c-0.8-1.7-1.7-3.4-2.8-5.1C528.2,495.9,506.1,502.7,484,507.7z M272,459
					c37.5,13.2,82.4,20.3,129.5,20.3c38.2,0,79.1-7.5,118-21.1c-7.3-4.8-15.6-9.3-24.7-13.3c-27.4-12.1-59.8-19.1-89.1-19.1
					c-45.7,0-87.4,8.3-117.3,23.3C282.3,452.2,276.8,455.5,272,459z M584.4,471.7c0.8,1.4,1.5,2.9,2.2,4.3c0.5,1,0.9,2,1.3,3
					c3.4-3.9,7.4-9,11.3-15.2C594.3,466.6,589.4,469.2,584.4,471.7z M401.5,284.9c-60.3,0-116.7,11.3-158.8,31.9
					c-37.2,18.2-58.6,41.8-58.6,64.6c0,21.1,17.9,42.8,49.5,60.5c9.7-10,22.3-19.1,37.7-26.8c35.1-17.7,82.9-27.4,134.4-27.4
					c52,0,115.5,18.6,154.2,53.7c15.1-7.2,29.6-15.4,43.3-24.4c4.2-2.7,8.2-5.5,12.1-8.4c0-7.7-0.8-15.5-2.5-23.4
					c-5-23.5-32.6-48.5-75.6-68.7C494.8,296.7,444,284.9,401.5,284.9z"/>
			</g>
			<polygon class="st10" points="398.3,734.7 398.3,922 751.8,714.7 751.8,527.4 			"/>
			<polygon class="st10" points="398.3,734.7 398.3,922 44.8,714.7 44.8,527.4 			"/>
			<g>
				<defs>
					<polygon id="SVGID_1_" points="89.8,688.3 398.3,507.4 398.3,209.6 89.8,209.6 					"/>
				</defs>
				<clipPath id="SVGID_2_">
					<use xlink:href="#SVGID_1_"  style="overflow:visible;"/>
				</clipPath>
				<g class="st17">
					<g>
						<path class="st10" d="M450.9,690.4c-9.7,0-18.2-6.2-21.2-15.4c-1.8-5.7-1.3-11.7,1.4-17c0.9-1.8,2.1-3.4,3.4-4.9
							c-9.7,1.1-19.7,1.6-29.8,1.6c-38.4,0-74.9-7.3-102.7-20.5c-44.6-21.3-51.3-49.5-51.3-64.5c0-2.4,0.2-4.9,0.5-7.3
							c-28.4-18.3-43.3-42.1-43.3-68.9c0-5.8,0.7-11.7,2.2-17.3c-43.4-25.3-67.3-58.8-67.3-94.6c0-39.8,29-76,81.7-101.7
							c47.6-23.3,110.5-36.1,176.9-36.1c48.3,0,105.5,13.3,153.1,35.5c53.4,24.9,87.8,57.8,97.4,92.9
							c30.5-32.8,46.5-69.6,46.5-106.7c0-17.5-6.2-35-18.4-52.1c-12.2-17.1-30.1-33.3-53-48.2c-45-29.2-105.6-50.2-166.3-57.7
							c-5.9-0.7-11.2-3.7-14.8-8.4s-5.3-10.5-4.5-16.5c1.4-11.2,10.9-19.6,22.1-19.6c0.9,0,1.8,0.1,2.8,0.2
							c67.1,8.3,134.6,31.8,185.1,64.6c27.6,17.9,49.5,38,65,59.7c17.7,24.8,26.7,51,26.7,78c0,30.3-7.7,60-23,88.3
							c-15,27.7-36.9,53.5-65.2,76.6c-2.8,18.2-9,35.7-18.6,52c-13.2,22.5-28.5,35.5-31.5,37.9c-1.3,1.1-4.6,3.9-9.8,7.8
							c-2.9,14.7-8.9,29.3-17.7,43.4c-7.9,12.5-17.8,24-29.4,34.3c-1.2,4.5-2.7,8.9-4.6,13.3c-13.8,32-44.1,57-85.5,70.4
							C455.6,690,453.3,690.4,450.9,690.4z M308.2,586.4c18,12.8,52.8,23.6,96.5,23.6c33,0,62.2-6.6,87-19.5
							c5.1-2.7,10.1-5.7,14.7-8.9c-0.1-1.4-0.2-2.6-0.4-3.7c-34.3,13.3-68.1,20.1-100.8,20.1C369.2,598.1,336.7,594.2,308.2,586.4z
							 M325.4,544.8c23.5,5.7,50.9,8.7,79.8,8.7c19.3,0,39.5-3,60.2-8.9c-19.7-8.2-42.3-13.1-60.6-13.1
							C374.5,531.5,346.6,536.2,325.4,544.8z M252.7,495.9c1.3,11.9,11.7,21.5,21.2,27.9c6.3-5.4,13.9-10.4,22.6-14.8
							C281.1,505.3,266.4,501,252.7,495.9z M494.1,508.7c9,4.5,17.1,9.4,24.2,14.7c11.5-5.9,22.9-12.5,33.8-19.7
							c-0.4-3.6-1.3-6.9-2.7-9.8c-0.4-0.8-0.8-1.6-1.2-2.4C530.4,498.4,512.3,504.2,494.1,508.7z M279.4,458
							c36.1,11.8,78.1,18,122.1,18c35.2,0,73.2-6.4,110.3-18.7c-5.7-3.4-11.8-6.5-18.3-9.4c-27-11.9-58.9-18.8-87.8-18.8
							c-45.2,0-86.4,8.2-115.9,23C286.2,453.9,282.7,455.9,279.4,458z M401.5,288.2c-59.8,0-115.7,11.2-157.3,31.6
							c-36,17.6-56.7,40.1-56.7,61.7c0,19.1,16.6,39.6,45.7,56.4c9.7-9.6,22.1-18.2,36.8-25.6c35.6-17.9,83.8-27.7,135.9-27.7
							c26.7,0,56.3,4.9,83.2,13.8c28.5,9.4,53.2,23,71.6,39.2c14.4-7,28.1-14.8,40.9-23.2c3.6-2.4,7.2-4.8,10.6-7.3
							c-0.1-6.9-0.9-14-2.4-21.1c-4.8-22.5-31.7-46.7-73.8-66.3C493.8,299.9,443.6,288.2,401.5,288.2z"/>
						<path d="M463.7,66.2c0.8,0,1.6,0,2.3,0.1c66.7,8.2,133.6,31.6,183.7,64.1c27.3,17.7,48.9,37.5,64.1,58.8
							c17.3,24.2,26.1,49.8,26.1,76.1c0,59.9-31,116.9-88,163.1c-2.6,18.2-8.8,35.7-18.4,52.1c-12.9,22-27.7,34.6-30.8,37
							c-1.2,1-4.9,4.1-10.7,8.5c-2.7,14.4-8.5,29.2-17.5,43.5c-7.9,12.5-17.9,24.1-29.5,34.2c-1.2,4.6-2.7,9.2-4.7,13.8
							c-13.4,31.1-43,55.5-83.5,68.5c-1.9,0.6-3.9,0.9-5.8,0.9c-8,0-15.5-5.1-18.1-13.2c-3.2-10,2.2-20.7,12.2-23.9
							c2.8-0.9,6-2,9.3-3.4c-15.8,3.1-32.4,4.7-49.8,4.7c-37.9,0-73.9-7.2-101.2-20.2c-43-20.5-49.4-47.3-49.4-61.5
							c0-2.6,0.2-5.6,0.8-8.9c-28.3-17.7-43.6-41.1-43.6-67.3c0-6.5,0.9-12.8,2.8-18.9c-43.9-24.9-67.8-57.5-67.8-93
							c0-38.5,28.4-73.6,79.9-98.8c47.2-23.1,109.5-35.8,175.5-35.8c47.8,0,104.5,13.2,151.7,35.2c54.8,25.6,89.1,59.4,96.7,95.2
							c0.1,0.5,0.2,0.9,0.3,1.4c33.7-34.4,51.7-73.4,51.7-113.4c0-18.2-6.4-36.4-19-54c-12.5-17.5-30.6-34-53.9-49.1
							c-45.4-29.5-106.6-50.7-167.7-58.2c-10.4-1.3-17.8-10.8-16.5-21.2C446,73.2,454.2,66.2,463.7,66.2 M233.7,441.9
							c9.7-10,22.3-19.1,37.7-26.8c35.1-17.7,82.9-27.4,134.4-27.4c52,0,115.5,18.6,154.2,53.7c15.1-7.2,29.6-15.4,43.3-24.4
							c4.2-2.7,8.2-5.5,12.1-8.4c0-7.7-0.8-15.5-2.5-23.4c-5-23.5-32.6-48.5-75.6-68.7c-42.4-19.8-93.2-31.6-135.7-31.6
							c-60.3,0-116.7,11.3-158.8,31.9c-37.2,18.2-58.6,41.8-58.6,64.6C184.2,402.5,202.1,424.2,233.7,441.9 M401.5,479.2
							c38.2,0,79.1-7.5,118-21.1c-7.3-4.8-15.6-9.3-24.7-13.3c-27.4-12.1-59.8-19.1-89.1-19.1c-45.7,0-87.4,8.3-117.3,23.3
							c-6.1,3.1-11.6,6.4-16.4,9.9C309.5,472.1,354.4,479.2,401.5,479.2 M599.2,463.9c-4.9,2.7-9.8,5.4-14.9,7.9
							c0.8,1.4,1.5,2.9,2.2,4.3c0.5,1,0.9,2,1.3,3C591.3,475.2,595.4,470.1,599.2,463.9 M517.8,527.3c15-7.5,27.8-15.3,37.7-22
							c-0.3-4.7-1.4-9.1-3.2-12.9c-0.8-1.7-1.7-3.4-2.8-5.1c-21.4,8.5-43.4,15.3-65.6,20.3C496.3,513,508,519.6,517.8,527.3
							 M274.2,527.9c7.1-6.6,16.7-13,29.6-18.8c1-0.4,2-0.9,3-1.3c-20.4-4.2-39.7-9.8-57.4-16.7c-0.1,0.8-0.1,1.5-0.1,2.3
							C249.2,508.3,261.8,520,274.2,527.9 M405.1,556.8c24.5,0,48.1-4.7,69.6-11.6c-2.4-1.2-5-2.3-7.6-3.4
							c-20.2-8.5-43.6-13.6-62.5-13.6c-32.8,0-63.1,5.5-85.2,15.5c-1.4,0.6-2.7,1.2-3.9,1.9C341.1,552.9,371.9,556.8,405.1,556.8
							 M405.1,594.8c-41.2,0-78.4-5.3-109.4-15.5c12,16.2,51.9,34.1,108.9,34.1c33.5,0,63.3-6.7,88.5-19.9
							c5.8-3.1,11.3-6.4,16.5-10.1c0-4-0.6-7.3-1.5-9.8C478.2,585.6,442.9,594.8,405.1,594.8 M463.7,59.5L463.7,59.5
							c-12.9,0-23.8,9.7-25.4,22.5c-0.8,6.8,1,13.5,5.2,18.9c4.2,5.4,10.3,8.8,17.1,9.7c60.2,7.4,120.3,28.3,164.9,57.2
							c22.6,14.6,40.1,30.6,52.1,47.3c11.8,16.5,17.8,33.4,17.8,50.2c0,34.7-14.4,69.1-41.8,100.2c-11.9-33.9-46-65.3-97.5-89.3
							c-48-22.4-105.8-35.8-154.5-35.8c-67,0-130.3,12.9-178.4,36.4c-53.9,26.4-83.6,63.5-83.6,104.7c0,19,6.3,37.3,18.7,54.4
							c11.3,15.5,27.5,29.6,48,41.8c-1.1,5.2-1.7,10.4-1.7,15.7c0,14.3,4.1,27.9,12.3,40.4c7.3,11.2,17.6,21.3,30.8,30.1
							c-0.2,1.9-0.3,3.8-0.3,5.7c0,7.6,1.7,19.4,9.6,31.9c8.9,14,23.5,26,43.5,35.5c28.2,13.5,65.2,20.9,104.1,20.9
							c7.9,0,15.6-0.3,23.2-0.9c-2.9,6-3.3,12.7-1.3,19c3.4,10.6,13.2,17.7,24.4,17.7c2.7,0,5.3-0.4,7.9-1.2
							c42.3-13.7,73.4-39.3,87.5-72.2c1.8-4.2,3.3-8.4,4.5-12.8c11.5-10.3,21.4-21.8,29.3-34.3c8.9-14.1,14.9-28.6,17.9-43.3
							c4.7-3.6,7.7-6.1,8.9-7.2c3.2-2.6,18.8-15.9,32.3-38.8c9.6-16.3,15.9-33.8,18.8-52c28.2-23.2,50-49,65.1-76.8
							c15.5-28.7,23.4-59,23.4-89.8c0-27.7-9.2-54.6-27.3-80c-15.7-22-37.9-42.4-65.9-60.6c-50.9-33-118.9-56.7-186.5-65.1
							C465.8,59.6,464.7,59.5,463.7,59.5L463.7,59.5z M232.6,433.7c-26.7-15.9-41.9-34.8-41.9-52.2c0-9.7,4.6-19.7,13.6-29.6
							c9.5-10.4,23.7-20.5,41.2-29.1c41.2-20.1,96.6-31.2,155.9-31.2c41.6,0,91.3,11.6,132.9,31c20.5,9.6,38,20.6,50.4,31.9
							c11.9,10.8,19.4,21.9,21.5,32.1c1.3,6.3,2.1,12.6,2.3,18.7c-3,2.1-6,4.2-9.1,6.2c-12.1,8-25,15.4-38.5,22.1
							c-18.6-15.9-43.1-29.1-71.1-38.4c-27.2-9-57.1-14-84.2-14c-52.5,0-101.3,10-137.4,28.1C254.3,416.3,242.3,424.5,232.6,433.7
							L232.6,433.7z M287.5,457c1.3-0.7,2.6-1.4,3.9-2c29-14.6,69.7-22.6,114.4-22.6c28.4,0,59.9,6.7,86.4,18.5
							c4,1.7,7.8,3.6,11.4,5.5c-34.4,10.6-69.5,16.2-102.1,16.2C360.7,472.6,321.6,467.3,287.5,457L287.5,457z M503.2,509.8
							c14.6-3.9,29.1-8.6,43.3-14.1c0.9,1.9,1.5,4.1,1.9,6.4c-9.7,6.3-19.7,12.2-29.9,17.5C513.8,516.1,508.7,512.8,503.2,509.8
							L503.2,509.8z M273.7,519.6c-6.7-4.8-13.4-11.1-16.3-18.5c9.6,3.4,19.6,6.4,30,9C282.4,513.1,277.8,516.2,273.7,519.6
							L273.7,519.6z M337.4,544c19.1-6,42.4-9.2,67.3-9.2c15,0,33,3.4,49.8,9.2c-16.9,4.1-33.4,6.2-49.3,6.2
							C381,550.2,358,548,337.4,544L337.4,544z M405.1,601.4c28.2,0,57.4-5,86.9-14.9c-0.6,0.4-1.3,0.7-1.9,1
							c-24.2,12.7-53,19.1-85.4,19.1c-32.1,0-55.3-5.7-69.1-10.6c-0.6-0.2-1.2-0.4-1.7-0.6C355.7,599.4,379.6,601.4,405.1,601.4
							L405.1,601.4z"/>
					</g>
				</g>
			</g>
		</g>
		<line class="st18" x1="398.3" y1="928.5" x2="398.3" y2="685.6"/>
		<path d="M226.9,622.6l-2.7,2.2l-185-108.5L38,496.8c-2.2-0.1-4.4,0-6.6,0l1.5,23.5l192,112.6l8-6.5
			C230.8,625.2,228.8,623.9,226.9,622.6z"/>
	</g>
</g>
</svg>
