<?xml version="1.0" encoding="utf-8"?>
<!-- Generator: Adobe Illustrator 25.2.1, SVG Export Plug-In . SVG Version: 6.00 Build 0)  -->
<svg version="1.1" id="Layer_1" xmlns="http://www.w3.org/2000/svg" xmlns:xlink="http://www.w3.org/1999/xlink" x="0px" y="0px"
	 viewBox="0 0 3839 490" style="enable-background:new 0 0 3839 490;" xml:space="preserve">
<style type="text/css">
	.st0{fill-rule:evenodd;clip-rule:evenodd;fill:#FDDB00;}
	.st1{fill-rule:evenodd;clip-rule:evenodd;fill:#73B744;}
	.st2{fill-rule:evenodd;clip-rule:evenodd;fill:#E11F26;}
	.st3{fill-rule:evenodd;clip-rule:evenodd;fill:#25A4DD;}
	.st4{fill:#FFFFFF;}
	.st5{fill-rule:evenodd;clip-rule:evenodd;}
	.st6{fill-rule:evenodd;clip-rule:evenodd;fill:#FFFFFF;}
</style>
<g id="data_17_">
	<path d="M1460.2,321.5v43.3h176.2v80.9h-176.2V489h176.2h33.7v-43.3v-80.9v-43.3h-33.7H1460.2z M1028.9,396.6h148.3
		c0,16.4-2.9,22.1-17.3,22.1h-34.7h-23.1v16.4c0,7.7-1.9,15.4-20.2,15.4h-42.4V489h46.2c22.1,0,38.5-15.4,38.5-35.6v-2.9h35.6
		c25,0,43.3-18.3,43.3-45.2v-9.6V361h-174.2V396.6z M1226.2,356.2l209.9,23.1v-37.5l-209.9-23.1V356.2z M1226.2,411.1l209.9,23.1
		v-36.6l-209.9-23.1V411.1z M1226.2,465.9l209.9,23.1v-37.5l-209.9-23.1V465.9z M182.7,381.2v-16.4l0,0v-43.3H8.4v43.3h142.5v16.4
		c0,39.5-35.6,62.6-95.3,65.5H1.7V490h58.7c37.5,0,67.4-15.4,87.6-35.6l24.1,35.6h51l-52.9-65.5
		C177.9,410.1,182.7,394.7,182.7,381.2z M1693.1,364.9h128v-43.3h-128V364.9z M1873.2,374.5c0,56.8-27.9,71.2-74.1,71.2h-105.9V489
		h118.4c63.5,0,90.5-41.4,90.5-90.5v-78h-28.9V374.5z M431.1,385.1c0,36.6-15.4,61.6-69.3,61.6V490c92.4,0,100.1-58.7,100.1-98.2
		v-70.3h-31.8L431.1,385.1L431.1,385.1z M521.5,385.1v-63.5h-32.7v70.3c0,38.5,10.6,98.2,103,98.2v-43.3
		C537,445.7,521.5,421.7,521.5,385.1z M807.5,364.9h169.4v27c0,44.3-28.9,53.9-90.5,53.9H820V489h92.4c45.2,0,95.3-36.6,95.3-92.4
		v-32.7l0,0v-43.3H806.5v44.3H807.5z M206.7,423.6h152.1V386H206.7V423.6z M598.6,423.6h153.1V386H598.6V423.6z M594.7,348.5
		c0,17.3-14.4,31.8-31.8,31.8c-17.3,0-31.8-14.4-31.8-31.8c0-17.3,14.4-31.8,31.8-31.8C581.2,316.7,594.7,331.2,594.7,348.5z
		 M577.4,348.5c0-7.7-6.7-14.4-14.4-14.4c-7.7,0-14.4,6.7-14.4,14.4s6.7,14.4,14.4,14.4C570.6,362,577.4,356.2,577.4,348.5z
		 M1932.9,327.3h9.6v27h6.7v-27h9.6v-5.8h-27v5.8H1932.9z M1982.9,347.5L1982.9,347.5l-5.8-26h-10.6v32.7h6.7v-27.9l0,0l5.8,27.9
		h6.7l5.8-27.9l0,0v27.9h6.7v-32.7h-9.6L1982.9,347.5z M69.1,141.5h107.8c39.5,0,40.4,58.7,0,58.7H15.2v43.3h208.9
		c83.8,0,84.7-140.6-3.9-140.6H111.4c-43.3,0-43.3-53.9,0-53.9h155V5.8H68.1C-24.3,5.8-21.4,141.5,69.1,141.5z M315.5,5.8V156
		c0,54.9,39.5,86.6,80.9,86.6h181V5.8H510v193.5h-78.9c-34.7,0-52-27-52-48.1V5.8H315.5z M795.9,155H689.1v86.6h-67.4V1h67.4h106.9
		C916.3,1,921.1,155,795.9,155z M773.8,44.3h-84.7v73.2h84.7C827.7,116.5,826.7,44.3,773.8,44.3z M1164.6,194.5h-130
		c-33.7,0-48.1-40.4-44.3-53.9h175.2V97.2H990.4c-3.9-14.4,9.6-53.9,43.3-53.9h130.9V0h-143.4c-137.7,0-136.7,241.6,0,241.6h143.4
		V194.5z M1784.6,44.3h116.5V1h-142.5c-57.8,0-104.9,37.5-104.9,97.2l0,0v145.4h67.4v-98.2h180V97.2H1722
		C1722,59.7,1743.2,44.3,1784.6,44.3z M2865.7,1c-141.5,0-158.8,241.6,16.4,241.6l0,0h120.3v-48.1h-121.3
		c-67.4,0-67.4-151.1,0-151.1h121.3V0L2865.7,1L2865.7,1z M2498.9,1h-185.8h-67.4v241.6h67.4V43.3h73.2v199.3h62.6V43.3h19.3
		c33.7,0,63.5,15.4,63.5,54.9v144.4h67.4v-156C2600,27.9,2564.4,1,2498.9,1z M2643.3,242.6h73.2V1h-73.2V242.6z M3331.7,122.3
		c0,66.4-39.5,126.1-155,126.1c-115.5,0-155-59.7-155-126.1c0-68.4,41.4-121.3,155-121.3C3290.3,1,3331.7,53.9,3331.7,122.3z
		 M3259.5,121.3c0-63.5-24.1-82.8-82.8-82.8s-82.8,18.3-82.8,82.8c0,60.6,23.1,82.8,82.8,82.8S3259.5,181.9,3259.5,121.3z
		 M2201.5,112.6v52v78h-188.7c-108.8,0-111.7-149.2-1-149.2h117.4c0-15.4-15.4-49.1-56.8-49.1h-128V1h151.1
		C2153.3,1.9,2201.5,32.7,2201.5,112.6z M2129.3,135.7H2032c-39.5,0-38.5,58.7,0,58.7h97.2v-29.8V135.7z M1276.3,242.6H1208V1h68.4
		l0,0h107.8c122.3,0,133.8,122.3,35.6,146.3l77,96.3h-79.9l-61.6-91.5h-78L1276.3,242.6L1276.3,242.6z M1276.3,106.9h98.2
		c43.3,0,44.3-63.5,0-63.5h-98.2V106.9z M3624.3,1h-185.8h-67.4v241.6h67.4V43.3h73.2v199.3h62.6V43.3h19.3
		c33.7,0,63.5,15.4,63.5,54.9v144.4h67.4v-156C3725.4,27.9,3690.7,1,3624.3,1z M3759.1,7.7h12.5v32.7h8.7V7.7h12.5V1h-33.7
		L3759.1,7.7L3759.1,7.7z M3826.5,0l-6.7,31.8l0,0L3812,0h-12.5v40.4h7.7V6.7l0,0l7.7,33.7h8.7l7.7-33.7l0,0v33.7h7.7V0H3826.5z"/>
</g>
</svg>
