<?xml version="1.0" encoding="utf-8"?>
<!-- Generator: Adobe Illustrator 25.0.0, SVG Export Plug-In . SVG Version: 6.00 Build 0)  -->
<svg version="1.1" id="Layer_1" xmlns="http://www.w3.org/2000/svg" xmlns:xlink="http://www.w3.org/1999/xlink" x="0px" y="0px"
	 viewBox="0 0 1839.1 2159" style="enable-background:new 0 0 1839.1 2159;" xml:space="preserve">
<style type="text/css">
	.st0{fill:#FFFFFF;}
	.st1{fill:#334FA2;}
	.st2{fill:#F01B25;}
	.st3{fill:#354EA2;}
	.st4{fill:#23B057;}
	.st5{fill:#FFA623;}
	.st6{fill:#FFFFFF;stroke:#231F20;stroke-width:11.9474;stroke-linecap:round;stroke-linejoin:round;stroke-miterlimit:10;}
	.st7{stroke:#DCE0DF;stroke-width:11.9474;stroke-linecap:round;stroke-linejoin:round;stroke-miterlimit:10;}
</style>
<g>
	<g>
		<rect x="4.5" y="4.5" class="st0" width="1830.2" height="2150.1"/>
		<path d="M1839.1,2159H0V0h1839.1V2159z M8.9,2150.1h1821.3V8.9H8.9V2150.1z"/>
	</g>
	<g>
		<polyline points="224.3,318.9 302.8,318.9 302.8,144.4 249.7,144.4 249.7,244.4 249.3,244.4 214.3,144.4 135.7,144.4 135.7,318.9 
			188.8,318.9 188.8,218.1 189.3,218.1 224.3,318.9 		"/>
		<polyline points="520.5,318.9 599.1,318.9 599.1,144.4 546,144.4 546,244.4 545.5,244.4 510.5,144.4 432,144.4 432,318.9 
			485,318.9 485,218.1 485.5,218.1 520.5,318.9 		"/>
		<polyline points="1030.7,318.9 1109.2,318.9 1109.2,144.4 1056.1,144.4 1056.1,244.4 1055.6,244.4 1020.6,144.4 942,144.4 
			942,318.9 995.2,318.9 995.2,218.1 995.6,218.1 1030.7,318.9 		"/>
		<rect x="334.9" y="144.4" width="65.4" height="174.5"/>
		<polyline points="659.7,191.8 618,191.8 618,144.4 766.9,144.4 766.9,191.8 725.2,191.8 725.2,318.9 659.7,318.9 659.7,191.8 		
			"/>
		<path d="M1201.5,279.2h6.4c10.5,0,17.5-3.3,21.7-10.2c4.4-7.2,4.9-20.4,4.9-37.4s-0.5-30.1-4.9-37.4c-4.1-7-11.2-10.3-21.7-10.3
			h-6.4V279.2 M1137.4,144.4h77.6c66.1,0,87.3,37.5,87.3,89.1c0,52.6-32.5,85.3-83.4,85.3h-81.5L1137.4,144.4L1137.4,144.4z"/>
		<path d="M1404.9,279.2c10.1,0,17.6-5,17.6-47.6c0-41.7-7-47.6-17.6-47.6c-10.5,0-17.6,5.8-17.6,47.6
			C1387.2,274.3,1394.8,279.2,1404.9,279.2 M1404.9,139.8c57,0,85.4,37.5,85.4,91.8c0,54.4-28.4,91.8-85.4,91.8
			c-57,0-85.5-37.5-85.5-91.8C1319.5,177.2,1347.9,139.8,1404.9,139.8z"/>
		<path d="M1570.5,207.3c9,0,14.4-9.1,14.4-20.8c-0.1-9.9-4.6-20.6-16.7-20.6c-7.3,0-13,4.6-15.2,10.2c-0.8,1.7-1.2,4.2-1.2,8.3
			c0.8,11.2,6.1,22.9,18.3,22.9H1570.5 M1607.4,121.2c-3.5-0.2-6.8-0.2-11.6,0.1c-27.7,1.3-38.8,13.1-42.5,26.4h0.7
			c6.8-6,15.4-8.8,26.8-8.8c21.9,0,41.9,15.9,41.9,45.8c0,28.6-22,50.9-51.5,50.9c-38.9,0-55.8-29.6-55.8-61.5
			c0-25.9,9.2-47.8,24.2-61.9c14.4-13.3,32.8-19.9,55.4-20.5c5.9-0.3,9.5,0,12.4,0.3V121.2z"/>
		<path d="M1691.1,173.1v-24c0-8.8,0.5-18,1-27.8h-0.8c-4.4,9.4-8.1,18.3-13,28.1l-11.5,23.3l-0.1,0.4H1691.1 M1691.1,233.1v-31.3
			h-58.2v-25l46.7-83.3h46.5v79.6h14.8v28.7h-14.8v31.3H1691.1z"/>
		<polyline points="786.3,144.4 915.9,144.4 915.9,190.5 850.7,190.5 850.7,208.7 910.6,208.7 910.6,253.4 850.7,253.4 850.7,273.1 
			917.8,273.1 917.8,318.9 786.3,318.9 786.3,144.4 		"/>
	</g>
	<g>
		<g id="layer3_11_">
			<polygon id="polygon3538_11_" points="698.4,609.9 769.1,753.5 805.9,739.5 928.2,521.1 780.2,463.5 			"/>
			<polygon id="polygon3540_11_" points="1045,737.3 1158.1,609.9 1308.3,667.9 1308.3,1069.4 1087.4,753.5 			"/>
			<polygon id="polygon3552_11_" points="548.1,667.9 397.9,609.9 397.9,1242.6 548.1,1305.6 548.1,969.5 769.1,1398.5 
				928.2,1465.8 928.2,814.5 769.1,753.5 769.1,1084.2 			"/>
		</g>
		<g id="layer4_11_">
			<polygon id="polygon3556_11_" points="1308.3,1305.6 1087.4,1017.3 1087.4,1174.8 1132.5,1238.1 			"/>
		</g>
		<g id="layer5_11_">
			<polygon id="polygon3544_11_" points="1087.4,753.5 928.2,814.5 769.1,753.5 928.2,692.6 			"/>
			<polygon id="polygon3546_11_" points="1158.1,609.9 1308.3,552.1 1458.6,609.9 1308.3,667.9 			"/>
			<polygon id="polygon3548_11_" points="397.9,609.9 548.1,552.1 698.4,609.9 548.1,667.9 			"/>
			<polygon id="polygon3550_11_" points="1076.3,463.7 928.2,406.5 780.2,463.5 928.2,521.1 			"/>
		</g>
	</g>
	<rect x="69.5" y="1616.3" width="1703" height="478"/>
	<path class="st0" d="M308.8,1958.9c22.9,0,36.7-21.5,36.7-49.2c-0.1-23.3-11.6-48.7-42.3-48.7c-18.5,0-33.2,10.9-38.7,24.2
		c-2.1,4.1-3,9.9-3,19.6c2,26.4,15.6,54,46.8,54L308.8,1958.9 M402.6,1755.6c-8.8-0.6-17.5-0.4-29.5,0.1
		c-70.4,3.1-98.8,30.8-108.4,62.3h1.7c17.5-14.2,39.1-20.7,68.2-20.7c55.7,0,106.8,37.4,106.8,108.1c0,67.5-56,120.1-131.1,120.1
		c-99.1,0-142.1-70.1-142.1-145.2c0-61.1,23.4-112.8,61.7-146.1c36.6-31.3,83.6-47.1,141.2-48.4c15.3-0.7,24.4,0,31.6,0.6
		L402.6,1755.6L402.6,1755.6z"/>
	<path class="st0" d="M698.5,1878.2v-56.6c0-20.8,1.3-42.6,2.5-65.5h-1.9c-11.1,22.3-20.7,43.4-33.1,66.3l-29.2,54.8l-0.4,1
		L698.5,1878.2 M698.5,2019.8v-74H550.3v-59l119-196.5h118.4v187.9h65.1v67.6h-65.1v73.9L698.5,2019.8L698.5,2019.8z"/>
	<path class="st0" d="M1521.1,1690.3h-42.3h-57.6h-29v329.5h29h57.6h42.3c107.8,0,163.8-68.7,163.8-155.8v-18
		C1685,1759,1628.8,1690.3,1521.1,1690.3z M1521.1,1951.7L1521.1,1951.7h-42.3v-193.2h42.3l0,0c33.3,0,62.1,31.4,62.1,96.6
		C1583.1,1920.1,1554.5,1951.7,1521.1,1951.7z"/>
	<path class="st0" d="M1114.3,1690.3h-42.3h-57.6h-29v329.5h29h57.6h42.3c107.8,0,163.8-68.7,163.8-155.8v-18
		C1278,1759,1222,1690.3,1114.3,1690.3z M1114.3,1951.7L1114.3,1951.7h-42.3v-193.2h42.3l0,0c33.3,0,62.1,31.4,62.1,96.6
		C1176.3,1920.1,1147.6,1951.7,1114.3,1951.7z"/>
</g>
</svg>
