<?xml version="1.0" encoding="utf-8"?>
<!-- Generator: Adobe Illustrator 25.1.0, SVG Export Plug-In . SVG Version: 6.00 Build 0)  -->
<svg version="1.1" id="Layer_1" xmlns="http://www.w3.org/2000/svg" xmlns:xlink="http://www.w3.org/1999/xlink" x="0px" y="0px"
	 viewBox="0 0 2466.1 2160" style="enable-background:new 0 0 2466.1 2160;" xml:space="preserve">
<style type="text/css">
	.st0{fill:#334FA2;}
	.st1{fill:#F01B25;}
	.st2{fill:#354EA2;}
	.st3{fill:#23B057;}
	.st4{fill:#FFA623;}
	.st5{fill:#FFFFFF;}
</style>
<g>
	<g>
		<rect x="4.8" y="4.8" width="2456.6" height="2150.5"/>
		<path class="st5" d="M2466.1,2160H0V0h2466.1V2160z M9.5,2150.5h2447.1V9.5H9.5V2150.5z"/>
	</g>
	<g>
		<g>
			<g>
				<polyline class="st5" points="295.2,422.8 401.1,422.8 401.1,187.5 329.5,187.5 329.5,322.4 328.9,322.4 281.7,187.5 
					175.7,187.5 175.7,422.8 247.4,422.8 247.4,286.9 248,286.9 295.2,422.8 				"/>
			</g>
			<g>
				<polyline class="st5" points="694.8,422.8 800.8,422.8 800.8,187.5 729.1,187.5 729.1,322.4 728.5,322.4 681.3,187.5 
					575.4,187.5 575.4,422.8 647,422.8 647,286.9 647.6,286.9 694.8,422.8 				"/>
			</g>
			<g>
				<polyline class="st5" points="1382.9,422.8 1488.8,422.8 1488.8,187.5 1417.2,187.5 1417.2,322.4 1416.5,322.4 1369.3,187.5 
					1263.4,187.5 1263.4,422.8 1335,422.8 1335,286.9 1335.6,286.9 1382.9,422.8 				"/>
			</g>
			<g>
				<rect x="444.4" y="187.5" class="st5" width="88.3" height="235.3"/>
			</g>
			<g>
				<polyline class="st5" points="882.5,251.4 826.3,251.4 826.3,187.5 1027.2,187.5 1027.2,251.4 970.8,251.4 970.8,422.8 
					882.5,422.8 882.5,251.4 				"/>
			</g>
			<g>
				<path class="st5" d="M1613.3,369.3h8.6c14.2,0,23.7-4.4,29.3-13.8c5.9-9.8,6.5-27.6,6.5-50.4c0-22.8-0.6-40.7-6.5-50.4
					c-5.5-9.4-15-13.9-29.3-13.9h-8.6V369.3 M1526.8,187.5h104.7c89.3,0,117.7,50.5,117.7,120.3c0,71.1-43.9,115.1-112.4,115.1
					h-109.9V187.5z"/>
			</g>
			<g>
				<path class="st5" d="M1887.6,369.4c13.6,0,23.8-6.7,23.8-64.2c0-56.3-9.5-64.2-23.8-64.2c-14.2,0-23.8,8-23.8,64.2
					C1863.8,362.7,1874.1,369.4,1887.6,369.4 M1887.6,181.2c76.9,0,115.2,50.5,115.2,123.9c0,73.4-38.3,123.9-115.2,123.9
					c-76.9,0-115.2-50.5-115.2-123.9C1772.4,231.8,1810.7,181.2,1887.6,181.2z"/>
			</g>
			<g>
				<path class="st5" d="M2111.1,272.4c12.1,0,19.4-12.3,19.4-28.1c-0.1-13.3-6.2-27.8-22.4-27.8c-9.8,0-17.6,6.2-20.5,13.8
					c-1.1,2.3-1.6,5.7-1.6,11.2c1,15,8.3,30.9,24.8,30.9H2111.1 M2160.8,156.1c-4.7-0.3-9.2-0.2-15.6,0.1
					c-37.3,1.8-52.3,17.6-57.4,35.6h0.9c9.3-8.1,20.7-11.8,36.1-11.8c29.5,0,56.5,21.4,56.5,61.8c0,38.6-29.6,68.6-69.4,68.6
					c-52.4,0-75.3-40-75.3-83c0-34.9,12.4-64.5,32.7-83.5c19.4-17.9,44.3-26.9,74.8-27.7c8.1-0.4,12.9,0,16.7,0.4V156.1z"/>
			</g>
			<g>
				<path class="st5" d="M2273.7,226.3v-32.4c0-11.9,0.7-24.4,1.3-37.5h-1c-5.9,12.7-11,24.8-17.6,37.9l-15.5,31.4l-0.2,0.6H2273.7
					 M2273.7,307.2v-42.2h-78.5v-33.7l63-112.3h62.7v107.4h20v38.7h-20v42.2H2273.7z"/>
			</g>
			<g>
				<polyline class="st5" points="1053.3,187.4 1228,187.4 1228,249.6 1140.2,249.6 1140.2,274.2 1221,274.2 1221,334.6 
					1140.2,334.6 1140.2,361 1230.8,361 1230.8,422.8 1053.3,422.8 1053.3,187.4 				"/>
			</g>
			<g>
				<path class="st5" d="M2063.7,422.9c-12.5,0-22.6-10.1-22.6-22.6c0-12.5,10.1-22.6,22.6-22.6c12.5,0,22.6,10.1,22.6,22.6
					C2086.3,412.7,2076.2,422.9,2063.7,422.9 M2063.7,372.9c-15.1,0-27.4,12.3-27.4,27.4c0,15.2,12.2,27.4,27.4,27.4
					c15.1,0,27.4-12.2,27.4-27.4C2091.1,385.2,2078.8,372.9,2063.7,372.9z"/>
			</g>
			<g>
				<path class="st5" d="M2059.2,398.2h5.4c2.9-0.1,4.5-1.5,4.5-4.1c0-2.6-1.6-3.8-4.5-3.8h-5.4V398.2 M2059.2,415.3h-6.5v-30.1
					h12.8c5.2,0.1,10.5,1.7,10.5,7.8c0,3.9-2.6,6.5-6.3,7.3v0.1c5,0.6,5,3.6,5.5,7.8c0.3,1.9,0.5,5.5,1.7,7.2h-7.1
					c-0.6-2.7-0.9-5.4-1.1-8.1c-0.2-1.7-0.6-4-2.7-4h-6.8V415.3z"/>
			</g>
		</g>
		<g>
			<g id="layer2_44_">
				<g id="polygon3542_44_">
					<polygon points="1244.7,695.7 1079.7,990.2 1244.7,926.9 1402.3,987.2 1444.4,939.9 1444.4,618.2 					"/>
					<path class="st5" d="M1079.7,999.7c-2.7,0-5.3-1.2-7.2-3.3c-2.6-3-3.1-7.4-1.1-10.9l165-294.5c1.1-1.9,2.8-3.4,4.9-4.2
						l199.7-77.4c2.9-1.1,6.2-0.8,8.8,1c2.6,1.8,4.1,4.7,4.1,7.8v321.7c0,2.3-0.9,4.6-2.4,6.3l-42.2,47.3c-2.6,2.9-6.8,4-10.5,2.6
						l-154.1-59L1083.1,999C1082,999.5,1080.9,999.7,1079.7,999.7z M1244.7,917.4c1.2,0,2.3,0.2,3.4,0.6l151.4,58l35.4-39.7V632.1
						l-183.6,71.2l-150.5,268.6l140.5-53.8C1242.4,917.6,1243.6,917.4,1244.7,917.4z"/>
				</g>
				<g id="polygon3558_44_">
					<polygon points="1757.4,1753.8 1459.3,1364.8 1459.3,1879.1 1244.7,1969.9 1244.7,1091.3 1459.3,1009.1 1757.4,1435.1 
						1757.4,893.5 1960.1,815.4 1960.1,1668.6 					"/>
					<path class="st5" d="M1244.7,1979.4c-1.8,0-3.7-0.5-5.2-1.6c-2.7-1.8-4.3-4.7-4.3-7.9v-878.5c0-3.9,2.4-7.5,6.1-8.9l214.6-82.2
						c4.1-1.6,8.7-0.1,11.2,3.4l280.8,401.3V893.5c0-3.9,2.4-7.5,6.1-8.9l202.7-78.2c2.9-1.1,6.2-0.7,8.8,1c2.6,1.8,4.1,4.7,4.1,7.8
						v853.3c0,3.8-2.3,7.3-5.8,8.8l-202.7,85.1c-4,1.7-8.6,0.4-11.2-3l-281-366.7v486.3c0,3.8-2.3,7.3-5.8,8.7l-214.6,90.8
						C1247.3,1979.1,1246,1979.4,1244.7,1979.4z M1254.2,1097.9v857.7l195.6-82.8v-508c0-4.1,2.6-7.7,6.4-9c3.9-1.3,8.1,0,10.6,3.2
						l293.6,383.2l190.1-79.8V829.2l-183.7,70.8v535.1c0,4.1-2.7,7.8-6.6,9.1c-4,1.2-8.3-0.2-10.6-3.6l-293.8-419.9L1254.2,1097.9z"
						/>
				</g>
				<g id="polygon3560_44_">
					<polygon points="732.1,1753.8 922.2,1669.6 732.1,1300.4 					"/>
					<path class="st5" d="M732.1,1763.3c-1.8,0-3.6-0.5-5.2-1.5c-2.7-1.8-4.3-4.7-4.3-8v-453.4c0-4.4,3-8.2,7.3-9.2
						c4.3-1,8.7,1,10.7,4.9l190.2,369.2c1.2,2.3,1.4,5,0.5,7.5c-0.9,2.5-2.7,4.5-5.1,5.5l-190.2,84.2
						C734.7,1763,733.4,1763.3,732.1,1763.3z M741.6,1339.6v399.6l167.6-74.2L741.6,1339.6z"/>
				</g>
			</g>
			<g id="layer3_44_">
				<g id="polygon3538_44_">
					<polygon points="934.7,815.4 1030.1,1009.1 1079.7,990.2 1244.7,695.7 1045,618 					"/>
					<path class="st5" d="M1030.1,1018.6c-3.5,0-6.9-2-8.5-5.3l-95.4-193.8c-1.4-2.8-1.3-6.1,0.2-8.8l110.3-197.4
						c2.3-4.1,7.3-5.9,11.7-4.2l199.7,77.7c2.6,1,4.6,3.1,5.5,5.6c0.9,2.6,0.7,5.5-0.7,7.9l-165,294.5c-1.1,1.9-2.8,3.4-4.9,4.2
						l-49.6,19C1032.4,1018.4,1031.3,1018.6,1030.1,1018.6z M945.5,815.6l89.4,181.5l38.3-14.6l158-282l-181.8-70.7L945.5,815.6z"/>
				</g>
				<g id="polygon3540_44_">
					<polygon points="1402.3,987.2 1554.8,815.4 1757.4,893.5 1757.4,1435.1 1459.3,1009.1 					"/>
					<path class="st5" d="M1757.4,1444.7c-3,0-6-1.5-7.8-4.1L1453.2,1017l-54.4-20.9c-2.9-1.1-5.1-3.6-5.8-6.6
						c-0.7-3,0.1-6.2,2.1-8.6l152.5-171.9c2.6-3,6.8-4,10.5-2.6l202.6,78.2c3.7,1.4,6.1,4.9,6.1,8.9v541.6c0,4.1-2.7,7.8-6.6,9.1
						C1759.3,1444.5,1758.3,1444.7,1757.4,1444.7z M1418.5,983.3l44.3,17c1.8,0.7,3.3,1.9,4.4,3.4l280.8,401.3V900l-190.4-73.5
						L1418.5,983.3z"/>
				</g>
				<g id="polygon3552_44_">
					<polygon points="732.1,893.5 529.4,815.4 529.4,1668.6 732.1,1753.8 732.1,1300.4 1030.1,1879.1 1244.7,1969.9 1244.7,1091.3 
						1030.1,1009.1 1030.1,1455.1 					"/>
					<path class="st5" d="M1244.7,1979.4c-1.3,0-2.5-0.2-3.7-0.8l-214.6-90.8c-2-0.9-3.7-2.4-4.7-4.4l-280.1-543.9v414.2
						c0,3.2-1.6,6.2-4.2,7.9c-2.6,1.8-6,2.1-8.9,0.8l-202.7-85.1c-3.5-1.5-5.8-4.9-5.8-8.8V815.4c0-3.1,1.5-6.1,4.1-7.8
						c2.6-1.8,5.9-2.2,8.8-1l202.7,78.2c2.1,0.8,3.9,2.4,5,4.4l280.2,527.9v-407.8c0-3.1,1.5-6.1,4.1-7.8c2.6-1.8,5.9-2.2,8.8-1
						l214.6,82.2c3.7,1.4,6.1,4.9,6.1,8.9v878.5c0,3.2-1.6,6.2-4.3,7.9C1248.4,1978.8,1246.6,1979.4,1244.7,1979.4z M1037,1871.7
						l198.2,83.9v-857.7l-195.6-74.9v432.2c0,4.4-3,8.2-7.2,9.2c-4.2,1.1-8.6-0.9-10.7-4.8L725.3,901.1l-186.5-71.9v833.1
						l183.7,77.1v-439.1c0-4.4,3-8.2,7.3-9.2c4.3-1,8.7,1,10.7,4.9L1037,1871.7z"/>
				</g>
			</g>
			<g id="layer4_44_">
				<g id="polygon3554_44_">
					<polygon points="1030.1,1009.1 1030.1,1455.1 732.1,893.5 934.7,815.4 					"/>
					<path class="st5" d="M1030.1,1464.6c-3.5,0-6.7-1.9-8.4-5L723.7,898c-1.3-2.4-1.5-5.2-0.5-7.8c1-2.5,2.9-4.6,5.5-5.5
						l202.7-78.2c4.6-1.8,9.8,0.3,11.9,4.7l95.4,193.8c0.6,1.3,1,2.7,1,4.2v446c0,4.4-3,8.2-7.2,9.2
						C1031.7,1464.5,1030.9,1464.6,1030.1,1464.6z M745.5,898.5l275.2,518.4v-405.6l-90.6-184L745.5,898.5z"/>
				</g>
				<g id="polygon3556_44_">
					<polygon points="1757.4,1753.8 1459.3,1364.8 1459.3,1577.3 1520.2,1662.7 					"/>
					<path class="st5" d="M1757.4,1763.3c-1.1,0-2.3-0.2-3.4-0.6l-237.2-91.1c-1.7-0.7-3.2-1.8-4.3-3.4l-60.9-85.4
						c-1.1-1.6-1.8-3.5-1.8-5.5v-212.5c0-4.1,2.6-7.7,6.4-9c3.9-1.3,8.1,0,10.6,3.2l298,389c2.6,3.4,2.6,8.1,0.1,11.5
						C1763.2,1761.9,1760.3,1763.3,1757.4,1763.3z M1526.3,1654.8l203.1,78l-260.5-340v181.4L1526.3,1654.8z"/>
				</g>
			</g>
			<g id="layer5_44_">
				<g id="polygon3544_44_">
					<polygon points="1459.3,1009.1 1244.7,1091.3 1030.1,1009.1 1244.7,926.9 					"/>
					<path class="st5" d="M1244.7,1100.8c-1.2,0-2.3-0.2-3.4-0.6l-214.6-82.2c-3.7-1.4-6.1-4.9-6.1-8.9s2.4-7.5,6.1-8.9l214.6-82.2
						c2.2-0.8,4.6-0.8,6.8,0l214.6,82.2c3.7,1.4,6.1,4.9,6.1,8.9s-2.4,7.5-6.1,8.9l-214.6,82.2
						C1247,1100.6,1245.9,1100.8,1244.7,1100.8z M1056.7,1009.1l188,72l188-72l-188-72L1056.7,1009.1z"/>
				</g>
				<g id="polygon3546_44_">
					<polygon points="1554.7,815.4 1757.4,737.4 1960.1,815.4 1757.4,893.5 					"/>
					<path class="st5" d="M1757.4,903c-1.2,0-2.3-0.2-3.4-0.6l-202.7-78.2c-3.7-1.4-6.1-4.9-6.1-8.9c0-3.9,2.4-7.5,6.1-8.9l202.7-78
						c2.2-0.8,4.6-0.8,6.8,0l202.7,78c3.7,1.4,6.1,4.9,6.1,8.9c0,3.9-2.4,7.5-6.1,8.9l-202.7,78.2
						C1759.7,902.8,1758.6,903,1757.4,903z M1581.1,815.4l176.3,68l176.3-68l-176.3-67.8L1581.1,815.4z"/>
				</g>
				<g id="polygon3548_44_">
					<polygon points="529.4,815.4 732.1,737.4 934.7,815.4 732.1,893.5 					"/>
					<path class="st5" d="M732.1,903c-1.2,0-2.3-0.2-3.4-0.6L526,824.2c-3.7-1.4-6.1-4.9-6.1-8.9c0-3.9,2.4-7.5,6.1-8.9l202.7-78
						c2.2-0.8,4.6-0.8,6.8,0l202.7,78c3.7,1.4,6.1,4.9,6.1,8.9c0,3.9-2.4,7.5-6.1,8.9l-202.7,78.2C734.4,902.8,733.2,903,732.1,903z
						 M555.8,815.4l176.3,68l176.3-68l-176.3-67.8L555.8,815.4z"/>
				</g>
				<g id="polygon3550_44_">
					<polygon points="1444.4,618.2 1244.7,541.1 1045,618 1244.7,695.7 					"/>
					<path class="st5" d="M1244.7,705.2c-1.2,0-2.3-0.2-3.4-0.6l-199.7-77.7c-3.7-1.4-6.1-4.9-6.1-8.9c0-3.9,2.4-7.4,6.1-8.8
						l199.7-76.9c2.2-0.8,4.6-0.8,6.8,0l199.7,77.1c3.7,1.4,6.1,4.9,6.1,8.9c0,3.9-2.4,7.4-6.1,8.9l-199.7,77.4
						C1247.1,705,1245.9,705.2,1244.7,705.2z M1071.4,618l173.4,67.5l173.4-67.2l-173.4-67L1071.4,618z"/>
				</g>
			</g>
		</g>
	</g>
</g>
</svg>
