<?xml version="1.0" encoding="utf-8"?>
<!-- Generator: Adobe Illustrator 25.2.1, SVG Export Plug-In . SVG Version: 6.00 Build 0)  -->
<svg version="1.1" id="Layer_1" xmlns="http://www.w3.org/2000/svg" xmlns:xlink="http://www.w3.org/1999/xlink" x="0px" y="0px"
	 viewBox="0 0 3839 623.3" style="enable-background:new 0 0 3839 623.3;" xml:space="preserve">
<style type="text/css">
	.st0{fill-rule:evenodd;clip-rule:evenodd;fill:#FDDB00;}
	.st1{fill-rule:evenodd;clip-rule:evenodd;fill:#73B744;}
	.st2{fill-rule:evenodd;clip-rule:evenodd;fill:#E11F26;}
	.st3{fill-rule:evenodd;clip-rule:evenodd;fill:#25A4DD;}
	.st4{fill:#FFFFFF;}
	.st5{fill-rule:evenodd;clip-rule:evenodd;}
	.st6{fill-rule:evenodd;clip-rule:evenodd;fill:#FFFFFF;}
</style>
<g>
	<g>
		<path id="yellow_11_" class="st5" d="M508.5,447.5c160.7,0,182.1,69.4,182.1,94.2c0,29.1-45.4,81.6-182.1,81.6
			c-141.4,0-175.8-59.2-175.8-81.6C332.7,518.1,344.7,447.5,508.5,447.5z"/>
		<path id="green_11_" class="st5" d="M169.5,284.3c160.7,0,175.8,76.8,175.8,94.2s-32.8,81.6-169.5,81.6
			C34.4,460.1,0,395.8,0,378.4S5.7,284.3,169.5,284.3z"/>
		<path id="red_11_" class="st5" d="M552.5,328.2c0,0,2.6-140.2,131.8-157s183.8,91.1,188.3,113c41.9,203.5-144.4,213.8-144.4,213.5
			C716.5,318.9,552.5,328.2,552.5,328.2z"/>
		<path id="blue_11_" class="st5" d="M226,158.7c0,0,2.6-140.2,131.8-157s183.8,91.1,188.3,113C588,318.3,401.8,328.6,401.8,328.2
			C390,149.4,226,158.7,226,158.7z"/>
	</g>
	<g id="data_20_">
		<path d="M2048.2,369.3v32.6h132.6v60.9h-132.6v32.6h132.6h25.4v-32.6v-60.9v-32.6h-25.4H2048.2z M1723.5,425.8h111.6
			c0,12.3-2.2,16.7-13,16.7h-26.1h-17.4v12.3c0,5.8-1.4,11.6-15.2,11.6h-31.9v29h34.8c16.7,0,29-11.6,29-26.8v-2.2h26.8
			c18.8,0,32.6-13.8,32.6-34.1v-7.2V399h-131.2V425.8z M1872,395.3l158,17.4v-28.3l-158-17.4L1872,395.3z M1872,436.7l158,17.4
			v-27.5l-158-17.4V436.7z M1872,478l158,17.4v-28.3l-158-17.4L1872,478z M1086.4,414.2v-12.3l0,0v-32.6H955.2v32.6h107.3v12.3
			c0,29.7-26.8,47.1-71.7,49.3h-40.6v32.6h44.2c28.3,0,50.7-11.6,66-26.8l18.1,26.8h38.4l-39.9-49.3
			C1082.8,435.9,1086.4,424.3,1086.4,414.2z M2223.5,401.9h96.4v-32.6h-96.4V401.9z M2359.1,409.1c0,42.8-21,53.6-55.8,53.6h-79.7
			v32.6h89.1c47.8,0,68.1-31.2,68.1-68.1v-58.7h-21.7V409.1z M1273.4,417.1c0,27.5-11.6,46.4-52.2,46.4v32.6
			c69.6,0,75.4-44.2,75.4-73.9v-52.9h-23.9L1273.4,417.1L1273.4,417.1z M1341.5,417.1v-47.8h-24.6v52.9c0,29,8,73.9,77.5,73.9v-32.6
			C1353.1,462.7,1341.5,444.6,1341.5,417.1z M1556.8,401.9h127.6v20.3c0,33.3-21.7,40.6-68.1,40.6h-50v32.6h69.6
			c34.1,0,71.7-27.5,71.7-69.6v-24.6l0,0v-32.6h-151.5v33.3H1556.8z M1104.5,446.1h114.5v-28.3h-114.5V446.1z M1399.5,446.1h115.2
			v-28.3h-115.2V446.1z M1396.6,389.5c0,13-10.9,23.9-23.9,23.9c-13,0-23.9-10.9-23.9-23.9c0-13,10.9-23.9,23.9-23.9
			C1386.5,365.6,1396.6,376.5,1396.6,389.5z M1383.6,389.5c0-5.8-5.1-10.9-10.9-10.9c-5.8,0-10.9,5.1-10.9,10.9
			c0,5.8,5.1,10.9,10.9,10.9C1378.5,399.7,1383.6,395.3,1383.6,389.5z M2404,373.6h7.2v20.3h5.1v-20.3h7.2v-4.3h-20.3v4.3H2404z
			 M2441.7,388.8L2441.7,388.8l-4.3-19.6h-8v24.6h5.1v-21l0,0l4.3,21h5.1l4.3-21l0,0v21h5.1v-24.6h-7.2L2441.7,388.8z M1000.9,233.7
			h81.2c29.7,0,30.4,44.2,0,44.2H960.3v32.6h157.3c63.1,0,63.8-105.8-2.9-105.8h-81.9c-32.6,0-32.6-40.6,0-40.6h116.7v-32.6h-149.3
			C930.6,131.5,932.8,233.7,1000.9,233.7z M1186.4,131.5v113.1c0,41.3,29.7,65.2,60.9,65.2h136.3V131.5h-50.7v145.7h-59.4
			c-26.1,0-39.1-20.3-39.1-36.2V131.5H1186.4z M1548.1,243.9h-80.4v65.2h-50.7V127.9h50.7h80.4
			C1638.7,127.9,1642.3,243.9,1548.1,243.9z M1531.4,160.5h-63.8v55.1h63.8C1572,214.9,1571.3,160.5,1531.4,160.5z M1825.7,273.6
			h-97.8c-25.4,0-36.2-30.4-33.3-40.6h131.9v-32.6h-131.9c-2.9-10.9,7.2-40.6,32.6-40.6h98.6v-32.6h-108
			c-103.6,0-102.9,181.9,0,181.9h108V273.6z M2292.4,160.5h87.7v-32.6h-107.3c-43.5,0-79,28.3-79,73.2l0,0v109.4h50.7v-73.9h135.5
			v-36.2h-134.8C2245.3,172.1,2261.2,160.5,2292.4,160.5z M3106.3,127.9c-106.5,0-119.6,181.9,12.3,181.9l0,0h90.6v-36.2h-91.3
			c-50.7,0-50.7-113.8,0-113.8h91.3v-32.6L3106.3,127.9L3106.3,127.9z M2830.2,127.9h-139.9h-50.7v181.9h50.7v-150h55.1v150h47.1
			v-150h14.5c25.4,0,47.8,11.6,47.8,41.3v108.7h50.7V192.4C2906.3,148.2,2879.4,127.9,2830.2,127.9z M2938.9,309.8h55.1V127.9h-55.1
			V309.8z M3457.1,219.2c0,50-29.7,94.9-116.7,94.9s-116.7-44.9-116.7-94.9c0-51.5,31.2-91.3,116.7-91.3
			C3425.9,127.9,3457.1,167.8,3457.1,219.2z M3402.7,218.5c0-47.8-18.1-62.3-62.3-62.3c-44.2,0-62.3,13.8-62.3,62.3
			c0,45.7,17.4,62.3,62.3,62.3C3385.3,280.8,3402.7,264.2,3402.7,218.5z M2606.2,212v39.1v58.7h-142c-81.9,0-84.1-112.3-0.7-112.3
			h88.4c0-11.6-11.6-37-42.8-37h-96.4v-32.6h113.8C2570,128.6,2606.2,151.8,2606.2,212z M2551.9,229.4h-73.2c-29.7,0-29,44.2,0,44.2
			h73.2v-22.5V229.4z M1909.7,309.8h-51.5V127.9h51.5l0,0h81.2c92,0,100.7,92,26.8,110.2l58,72.5h-60.2l-46.4-68.9h-58.7
			L1909.7,309.8L1909.7,309.8z M1909.7,207.6h73.9c32.6,0,33.3-47.8,0-47.8h-73.9V207.6z M3677.4,127.9h-139.9h-50.7v181.9h50.7
			v-150h55.1v150h47.1v-150h14.5c25.4,0,47.8,11.6,47.8,41.3v108.7h50.7V192.4C3753.5,148.2,3727.4,127.9,3677.4,127.9z M3778.8,133
			h9.4v24.6h6.5V133h9.4v-5.1h-25.4L3778.8,133L3778.8,133z M3829.6,127.2l-5.1,23.9l0,0l-5.8-23.9h-9.4v30.4h5.8v-25.4l0,0
			l5.8,25.4h6.5l5.8-25.4l0,0v25.4h5.8v-30.4H3829.6z"/>
	</g>
</g>
</svg>
