<?xml version="1.0" encoding="utf-8"?>
<!-- Generator: Adobe Illustrator 26.5.0, SVG Export Plug-In . SVG Version: 6.00 Build 0)  -->
<svg version="1.1" id="Layer_1" xmlns="http://www.w3.org/2000/svg" xmlns:xlink="http://www.w3.org/1999/xlink" x="0px" y="0px"
	 viewBox="0 0 3839 467.76" style="enable-background:new 0 0 3839 467.76;" xml:space="preserve">
<style type="text/css">
	.st0{fill:#F47B30;}
	.st1{fill-rule:evenodd;clip-rule:evenodd;fill:#E60012;}
	.st2{fill:#898A8D;}
	.st3{fill:#FFFFFF;}
	.st4{fill-rule:evenodd;clip-rule:evenodd;fill:#FFFFFF;}
	.st5{fill-rule:evenodd;clip-rule:evenodd;}
</style>
<g>
	<g>
		<g>
			<path d="M3782.34,139.67l18.88,292.66h-416.93l18.87-292.66h379.14 M3815.5,104.25h-445.54l-23.45,363.51H3839l-23.45-363.51
				H3815.5z M3695.75,207.05V71c-0.01-39.22-31.8-71-71.01-71h-63.95c-39.22-0.01-71.02,31.78-71.02,71v136.04
				c0,1.4,1.13,2.53,2.53,2.53l0,0h30.37c1.39-0.01,2.52-1.14,2.52-2.53V71c0-19.68,15.95-35.63,35.63-35.63h63.95
				c19.66,0.03,35.58,15.97,35.58,35.63v136.04c0,1.4,1.13,2.53,2.53,2.53h30.34C3694.61,209.58,3695.75,208.45,3695.75,207.05z"/>
		</g>
		<path d="M2455.51,214.51c-28.28-9.44-49.81-16.41-49.81-36.36c0-13.23,11.64-25.76,33.2-25.76c21.94,0,34.92,11.56,45.36,20.18
			l48.52-33.78c-20.61-25.45-55.76-46.83-92.98-46.83c-51.55,0-95.84,37.88-95.84,87.09c0,36.84,24.8,71.58,76.56,88.76
			c32.46,10.78,52.76,17.3,52.76,38.07c0,14.27-14.41,27.18-32.02,27.18c-21.75,0-39.5-14.58-53.13-26.66l-51.51,35.93
			c25.65,29.77,66.22,51.4,103.06,51.4c57.3,0,96.56-43.6,96.56-89.17C2536.25,269.25,2516.44,234.81,2455.51,214.51 M3137.53,338.9
			c-30.79,0-53.54-24.19-53.54-54.76c0-30.56,22.75-54.78,53.54-54.78c30.7,0,54.2,24.58,54.2,54.78S3168.23,338.9,3137.53,338.9
			 M3139.5,176.65c-27.8,0-49.52,14.24-54.17,21.16h-1.02v-14.95h-58.77v284.9h58.77v-97.29h1.02c4.65,6.9,26.37,21.11,54.17,21.11
			c57.98,0,106.81-48.37,106.81-107.45C3246.31,225.07,3197.48,176.65,3139.5,176.65 M2677.46,176.71c-22.01,0-41.7,8.96-53.71,23.5
			h-0.63v-99.75h-58.79v284.9h58.79v-98.52c0-39.33,21.39-56.28,45.65-56.28c16.84,0,42.48,10.66,42.48,50.47v104.25h58.82V276.73
			C2770.07,208.67,2723.05,176.71,2677.46,176.71 M2310.38,90.62c-0.37-0.41-1.04-0.38-1.38,0.08l-43.37,59.94
			c-0.18,0.24-0.17,0.57,0.03,0.8c0.2,0.23,0.53,0.28,0.81,0.14l64.13-36.9c0.47-0.29,0.58-0.93,0.21-1.35L2310.38,90.62z
			 M2196.53,203.09c16.31,0,29.22,6,41.12,17l-106.24,61.3C2123.7,240.79,2155.13,203.09,2196.53,203.09 M2198.42,339.22
			c-16.38,0-34.85-6.81-44.47-18.63l118.13-68.62c25.33-14.61,37.07-27.38,26.16-46.31c-16.98-26.77-59.69-55.04-105.87-55.04
			c-65.33,0-118.66,57.87-118.66,122c0,68.98,60.42,122.13,126.74,122.13c61.3,0,115.99-44.07,119-107.83h-60.81
			C2255.88,315.52,2231.94,339.22,2198.42,339.22 M2246.38,137.64l39.33-62.67c0.29-0.49,0.08-1.12-0.44-1.3l-28.68-10.45
			c-0.54-0.18-1.12,0.15-1.18,0.72l-10.17,73.27c-0.05,0.29,0.12,0.6,0.4,0.7C2245.92,138.01,2246.23,137.9,2246.38,137.64
			 M2897.8,338.59c-29.39,0-53.25-24.38-53.25-54.37c0-29.98,23.86-54.37,53.25-54.37c29.36,0,53.23,24.38,53.23,54.37
			C2951.04,314.21,2927.16,338.59,2897.8,338.59 M2897.8,176.64c-59.66,0-107.97,48.25-107.97,107.51
			c0,59.25,48.31,107.43,107.97,107.43c59.64,0,107.95-48.19,107.95-107.43C3005.76,224.89,2957.45,176.64,2897.8,176.64
			 M2221.6,135.36c0.29-0.05,0.52-0.27,0.55-0.58l5.28-73.81c0.05-0.57-0.44-1.01-1.01-0.93l-30.23,4.25
			c-0.55,0.06-0.89,0.64-0.69,1.15l25.41,69.51C2221.02,135.24,2221.29,135.41,2221.6,135.36"/>
	</g>
	<g>
		<g transform="translate(0 -.187)">
			<path class="st5" d="M66.88,167.15c0,22.31,18.07,40.43,40.43,40.43s40.43-18.07,40.43-40.43c0-22.31-18.07-40.38-40.38-40.38
				c0,0,0,0-0.05,0C85,126.72,66.93,144.79,66.88,167.15L66.88,167.15z M172.6,433.34h-62.38c-20.06,0.05-39.31-7.91-53.4-22.11
				c-14.24-14.14-22.21-33.39-22.16-53.4V148.42c0-20.17,7.86-39.16,22.11-53.4c14.14-14.24,33.39-22.21,53.45-22.16h62.44v360.47
				H172.6z M204.1,38.25h-93.93C49.32,38.25,0,87.57,0,148.42v209.36c0,60.85,49.32,110.17,110.22,110.17h93.93
				c1.74,0,3.17-1.38,3.17-3.11c0,0,0,0,0-0.05V41.36C207.27,39.68,205.89,38.25,204.1,38.25L204.1,38.25z M335.3,231.12
				c23.99,0.51,43.04,20.32,42.58,44.36c-0.46,23.33-19.25,42.12-42.58,42.58c-23.99-0.51-43.04-20.32-42.58-44.36
				C293.19,250.37,311.97,231.58,335.3,231.12z M253.42,467.95h66.16c60.85,0,110.22-49.32,110.22-110.17V148.42
				c0-60.85-49.37-110.17-110.22-110.17h-66.52c-1.53,0-2.76,1.23-2.81,2.71v0.05v423.78C250.3,466.57,251.68,467.95,253.42,467.95
				L253.42,467.95z"/>
		</g>
		<path class="st5" d="M1694.24,142h-26.14V72.52h26.14c19.2,0.05,34.71,15.57,34.71,34.77C1728.95,126.43,1713.43,142,1694.24,142z
			 M1693.01,47.35h-49.52v119.87h49.57c34,0,61.67-26.85,61.67-59.93C1754.68,74.2,1727.01,47.35,1693.01,47.35L1693.01,47.35z
			 M1601.22,271.36c25.53,0,49.37,13.63,62.08,35.12l36.81-31.96c-22.36-33.44-59.99-53.45-100.21-53.4
			c-66.57,0-120.74,54.11-120.74,120.69s54.17,120.69,120.74,120.69c40.48,0,77.65-19.91,100.21-53.4l-36.81-32.01
			c-12.71,21.49-36.55,35.12-62.08,35.12c-39.56,0-71.73-31.6-71.73-70.4C1529.5,302.96,1561.66,271.36,1601.22,271.36
			L1601.22,271.36z M1252.44,276.47h72.24v178.17h48.65V276.47h70.65v-47.99h-191.54V276.47L1252.44,276.47z M1904.16,317.66
			h-105.57v-89.19h-46.76v226.16h46.76v-90.21h105.57v90.21h46.81V228.48h-46.81V317.66z M1895.99,144.6
			c-20.57-0.05-37.22-16.74-37.22-37.32c0-20.52,16.74-37.32,37.22-37.32c20.57,0.05,37.22,16.74,37.27,37.32
			C1933.26,127.86,1916.57,144.55,1895.99,144.6z M1895.99,43.31c-35.17,0-63.81,28.69-63.81,63.97c0,35.33,28.64,64.02,63.81,64.02
			c35.23,0,63.87-28.69,63.87-64.02C1959.86,72.01,1931.22,43.31,1895.99,43.31L1895.99,43.31z M1335.25,145.01h-68.87v-28.08h63.66
			v-21.7h-63.66V69.35h68.87v-22l-93.17,0.05v119.82l93.17-0.05V145.01L1335.25,145.01z M1542.1,167.22V47.35h-24.35v78.72
			l-58.96-78.72h-24.2v119.87h24.3V87.07l59.53,80.15H1542.1L1542.1,167.22z M742.8,167.22h26.65V47.35H742.8V167.22L742.8,167.22z
			 M638.8,317.26c-32.62-5.36-53.71-11.44-53.71-26.65c0-17.61,23.48-24.35,54.98-24.35c29.3,0,58.76,11.18,69.23,15.52l16.08-39.11
			c-11.44-4.54-47.48-17.41-87.6-17.41c-48.86,0-100.83,23.84-100.83,68c0,35.79,25.22,54.11,90.11,65.24
			c45.69,7.91,70.86,12.2,70.14,31.86c-0.41,10.82-8.78,28.95-60.29,28.95c-41.5,0-70.65-15.01-80.81-21.14l-21.39,38.65
			c11.44,6.02,49.67,23.99,98.94,23.99c71.98,0,109.96-24.91,109.96-72.08C743.66,361.47,734.47,332.98,638.8,317.26L638.8,317.26z
			 M997.85,392.61l-47.89-164.13h-40.13L862.1,391.94l-43.44-163.47h-49.21l64.02,226.16h54.32l42.12-148.97l41.91,148.97h54.57
			l64.32-226.16h-49.16L997.85,392.61L997.85,392.61z M884.21,87.07l59.53,80.15h23.69V47.35h-24.35v78.72l-58.96-78.72h-24.2
			v119.87h24.3V87.07z M1146.87,454.63h50.34V228.48h-50.34V454.63z M1154.32,47.35h-101.54v25.42h38.29v94.44h25.83V72.77h37.42
			L1154.32,47.35L1154.32,47.35z M569.27,87.07l59.58,80.15h23.64V47.35h-24.3v78.72l-59.02-78.72h-24.2v119.87h24.25L569.27,87.07
			L569.27,87.07z"/>
	</g>
</g>
</svg>
