<?xml version="1.0" encoding="utf-8"?>
<!-- Generator: Adobe Illustrator 26.0.3, SVG Export Plug-In . SVG Version: 6.00 Build 0)  -->
<svg version="1.1" id="Layer_1" xmlns="http://www.w3.org/2000/svg" xmlns:xlink="http://www.w3.org/1999/xlink" x="0px" y="0px"
	 viewBox="0 0 3839 1343.3" style="enable-background:new 0 0 3839 1343.3;" xml:space="preserve">
<style type="text/css">
	.st0{fill:#FFFFFF;}
</style>
<g>
	<g>
		<rect x="21.1" y="738.7" class="st0" width="3796.9" height="583.5"/>
		<path d="M3796.9,759.8v541.4H42.1V759.8H3796.9 M3839,717.6H0v625.7h3839V717.6L3839,717.6z"/>
	</g>
	<rect width="3839" height="912"/>
	<g>
		<rect x="3514" y="376.4" class="st0" width="145.4" height="308.1"/>
		<rect x="3514" y="227.1" class="st0" width="145.4" height="104.2"/>
		<path class="st0" d="M1098.1,454.3c-25.9-25.5-98.6-42.7-180.8-42.7c-93,0-191.9,23.2-191.9,66.1c0,42.9,98.9,66.1,191.9,66.1
			s191.9-23.2,191.9-66C1109.2,469.5,1105.5,461.6,1098.1,454.3z M917.2,440.7c84.4,0,136.2,21.6,136.2,37c0,15.1-53.1,37-136.2,37
			c-83.2,0-136.2-21.9-136.2-37C781,462.2,832.8,440.7,917.2,440.7z"/>
		<path class="st0" d="M915.9,717.6c-198.5,0-385.2-24.6-525.9-69.3c-143.4-45.6-222.4-107.3-222.4-173.7s79-128.2,222.4-173.7
			c140.6-44.7,327.4-69.3,525.9-69.3c344.1,0,642.3,74.9,725.2,182.1l9.9,12.8h-185.8l-2.4-2.3C1386.2,350.5,1166.5,301,915.9,301
			c-310.6,0-573,79.6-573,173.8s262.4,173.8,573,173.8c250.5,0,470.3-49.5,546.9-123.3l2.4-2.3l185.8-0.4l-9.9,12.9
			C1558.4,642.8,1260.2,717.6,915.9,717.6z"/>
		<rect x="1699.7" y="239.6" class="st0" width="145.4" height="456.4"/>
		<polygon class="st0" points="3024.5,388.6 3024.5,530.9 3419.7,459.8 		"/>
		<path class="st0" d="M2926.6,467.7c0-144-354.6-228.1-756-228.1h-369.9v67.9h369.9c315.1,0,570.5,65.5,570.5,160.2v0.2
			c0,94.7-255.4,160.2-570.5,160.2h-369.9V696h369.9c401.3,0,756-84.2,756-228.1V467.7z"/>
	</g>
	<g>
		<path d="M327.6,1203c-15.8,8.2-35.5,12.3-59.1,12.3c-30.5,0-55-9.6-73.3-28.9c-18.4-19.3-27.6-44.5-27.6-75.8
			c0-33.6,10.3-60.8,31-81.6c20.7-20.7,46.8-31.1,78.4-31.1c20.3,0,37.2,2.9,50.6,8.7v34.6c-14.2-8.4-29.8-12.6-46.9-12.6
			c-22.8,0-41.2,7.3-55.4,21.9c-14.1,14.6-21.2,34-21.2,58.4c0,23.2,6.6,41.6,19.8,55.4c13.2,13.7,30.6,20.6,52.1,20.6
			c19.9,0,37.1-4.7,51.6-14.1V1203z"/>
		<path d="M457.7,1211.8v-210.3h60.7c77.5,0,116.3,34.2,116.3,102.5c0,32.5-10.8,58.5-32.3,78.3c-21.5,19.7-50.4,29.6-86.5,29.6
			H457.7z M492.4,1031.1v151.2h27.9c24.5,0,43.6-6.7,57.3-20.2s20.5-32.6,20.5-57.2c0-49.2-25.5-73.8-76.4-73.8H492.4z"/>
		<path d="M1049.4,1031.1h-78.6v63.2h72.5v29.5h-72.5v88h-34.9v-210.3h113.5V1031.1z"/>
		<path d="M1263.6,1215.3c-30.3,0-54.6-9.8-72.8-29.5c-18.2-19.7-27.4-45.2-27.4-76.7c0-33.8,9.3-60.8,27.9-81
			c18.6-20.1,43.8-30.2,75.7-30.2c29.5,0,53.3,9.8,71.4,29.3c18,19.6,27.1,45.1,27.1,76.7c0,34.3-9.2,61.5-27.7,81.4
			C1319.2,1205.3,1294.5,1215.3,1263.6,1215.3z M1265.3,1028.6c-19.3,0-34.9,7.2-47,21.6c-12.1,14.4-18.1,33.3-18.1,56.8
			c0,23.4,5.9,42.2,17.6,56.5c11.7,14.3,27.1,21.4,46.1,21.4c20.1,0,36-6.8,47.7-20.4c11.6-13.6,17.5-32.6,17.5-57.1
			c0-25.1-5.6-44.5-16.9-58.2C1300.7,1035.4,1285.1,1028.6,1265.3,1028.6z"/>
		<path d="M1656.6,1211.8h-40.8l-33.6-56.3c-3-5.2-6-9.6-8.9-13.3c-2.9-3.7-5.8-6.7-8.8-9c-3-2.3-6.2-4.1-9.8-5.1
			c-3.5-1.1-7.5-1.6-11.9-1.6h-14.1v85.4h-34.8v-210.3h69.2c9.9,0,19,1.2,27.3,3.5c8.3,2.3,15.5,5.9,21.7,10.6
			c6.2,4.7,11,10.7,14.4,17.7c3.5,7.1,5.2,15.4,5.2,24.9c0,7.4-1.1,14.3-3.3,20.5c-2.2,6.2-5.3,11.7-9.4,16.6
			c-4.1,4.8-8.9,9-14.7,12.4c-5.7,3.4-12.2,6.1-19.3,7.9v0.6c3.8,2.2,7.1,4.5,10,7.1c2.8,2.6,5.5,5.3,8.1,8c2.5,2.7,5.1,5.8,7.6,9.3
			c2.5,3.5,5.3,7.5,8.3,12.1L1656.6,1211.8z M1528.9,1029.7v68.3h29c5.4,0,10.3-0.8,14.9-2.5c4.5-1.7,8.5-4.1,11.8-7.2
			c3.3-3.1,5.9-6.9,7.8-11.4c1.9-4.5,2.8-9.5,2.8-15.1c0-10.1-3.2-17.9-9.5-23.6c-6.4-5.7-15.5-8.5-27.4-8.5H1528.9z"/>
		<path d="M2090.5,1001.4l-68.9,133.9v76.4h-34.9v-75.7l-67.2-134.6h39.7l41.4,90.2c0.5,1.1,2,5.1,4.4,12.2h0.4
			c0.9-3.1,2.5-7.2,4.8-12.2l43.3-90.2H2090.5z"/>
		<path d="M2287.1,1215.3c-30.3,0-54.6-9.8-72.8-29.5c-18.2-19.7-27.4-45.2-27.4-76.7c0-33.8,9.3-60.8,27.9-81
			c18.6-20.1,43.8-30.2,75.7-30.2c29.5,0,53.3,9.8,71.4,29.3c18,19.6,27.1,45.1,27.1,76.7c0,34.3-9.2,61.5-27.7,81.4
			C2342.6,1205.3,2318,1215.3,2287.1,1215.3z M2288.7,1028.6c-19.3,0-34.9,7.2-47,21.6c-12.1,14.4-18.1,33.3-18.1,56.8
			c0,23.4,5.9,42.2,17.6,56.5c11.7,14.3,27.1,21.4,46.1,21.4c20.1,0,36-6.8,47.7-20.4c11.6-13.6,17.5-32.6,17.5-57.1
			c0-25.1-5.6-44.5-16.9-58.2C2324.1,1035.4,2308.5,1028.6,2288.7,1028.6z"/>
		<path d="M2679.3,1126.7c0,59.1-28,88.6-83.9,88.6c-53.6,0-80.4-28.4-80.4-85.2v-128.6h34.9v121.4c0,41.3,16,61.9,48.1,61.9
			c30.9,0,46.3-19.9,46.3-59.7v-123.6h34.9V1126.7z"/>
		<path d="M2981.4,1211.8h-40.8l-33.6-56.3c-3-5.2-6-9.6-8.9-13.3c-2.9-3.7-5.8-6.7-8.8-9c-3-2.3-6.2-4.1-9.8-5.1
			c-3.5-1.1-7.5-1.6-11.9-1.6h-14.1v85.4h-34.8v-210.3h69.2c9.9,0,19,1.2,27.3,3.5c8.3,2.3,15.5,5.9,21.7,10.6
			c6.2,4.7,11,10.7,14.4,17.7c3.5,7.1,5.2,15.4,5.2,24.9c0,7.4-1.1,14.3-3.3,20.5c-2.2,6.2-5.3,11.7-9.4,16.6
			c-4.1,4.8-8.9,9-14.7,12.4c-5.7,3.4-12.2,6.1-19.3,7.9v0.6c3.8,2.2,7.1,4.5,10,7.1c2.8,2.6,5.5,5.3,8.1,8c2.5,2.7,5.1,5.8,7.6,9.3
			c2.5,3.5,5.3,7.5,8.3,12.1L2981.4,1211.8z M2853.6,1029.7v68.3h29c5.4,0,10.3-0.8,14.9-2.5c4.5-1.7,8.5-4.1,11.8-7.2
			c3.3-3.1,5.9-6.9,7.8-11.4c1.9-4.5,2.8-9.5,2.8-15.1c0-10.1-3.2-17.9-9.5-23.6c-6.4-5.7-15.5-8.5-27.4-8.5H2853.6z"/>
		<path d="M3403.6,1031.1h-60.4v180.7h-34.9v-180.7H3248v-29.6h155.6V1031.1z"/>
		<path d="M3696.7,1001.4l-75.5,210.3h-39l-74.2-210.3h38.1L3598,1161c1.7,5.1,2.9,11,3.8,17.7h0.6c0.7-5.6,2.1-11.6,4.3-18
			l53.1-159.3H3696.7z"/>
	</g>
</g>
</svg>
