<?xml version="1.0" encoding="utf-8"?>
<!-- Generator: Adobe Illustrator 26.0.2, SVG Export Plug-In . SVG Version: 6.00 Build 0)  -->
<svg version="1.1" xmlns="http://www.w3.org/2000/svg" xmlns:xlink="http://www.w3.org/1999/xlink" x="0px" y="0px"
	 viewBox="0 0 3839 807.7" style="enable-background:new 0 0 3839 807.7;" xml:space="preserve">
<style type="text/css">
	.st0{display:none;}
	.st1{display:inline;}
	.st2{fill:#FF1F1F;}
	.st3{fill:#FFFFFF;}
	.st4{fill:#FF1F1F;stroke:#FF1F1F;stroke-width:12.9372;stroke-miterlimit:10;}
	.st5{fill:none;stroke:#FF1F1F;stroke-width:12.9372;stroke-miterlimit:10;}
	.st6{fill:#FF1F1F;stroke:#000000;stroke-width:4.5925;stroke-miterlimit:10;}
	.st7{fill:#FF6A15;stroke:#000000;stroke-width:4.5925;stroke-miterlimit:10;}
	.st8{fill:#FFB40A;stroke:#000000;stroke-width:4.5925;stroke-miterlimit:10;}
	.st9{fill:#FFFF00;stroke:#000000;stroke-width:4.5925;stroke-miterlimit:10;}
	.st10{fill:#FFFFFF;stroke:#FFFFFF;stroke-width:12.9372;stroke-miterlimit:10;}
	.st11{fill:none;stroke:#FFFFFF;stroke-width:12.9372;stroke-miterlimit:10;}
	.st12{fill:#FF0074;stroke:#000000;stroke-width:4.5925;stroke-miterlimit:10;}
	.st13{fill:#FF803A;stroke:#000000;stroke-width:4.5925;stroke-miterlimit:10;}
	.st14{fill:#FFFFFF;stroke:#000000;stroke-width:4.5925;stroke-miterlimit:10;}
	.st15{fill:#FF0074;stroke:#000000;stroke-width:7.2529;stroke-miterlimit:10;}
	.st16{fill:#FF803A;stroke:#000000;stroke-width:7.2529;stroke-miterlimit:10;}
	.st17{fill:#FFFF00;stroke:#000000;stroke-width:7.2529;stroke-miterlimit:10;}
	.st18{fill:#FFFFFF;stroke:#000000;stroke-width:7.2529;stroke-miterlimit:10;}
	.st19{fill:#FF1F1F;stroke:#000000;stroke-width:6.6981;stroke-miterlimit:10;}
	.st20{fill:#FF6A15;stroke:#000000;stroke-width:6.6981;stroke-miterlimit:10;}
	.st21{fill:#FFB40A;stroke:#000000;stroke-width:6.6981;stroke-miterlimit:10;}
	.st22{fill:#FFFF00;stroke:#000000;stroke-width:6.6981;stroke-miterlimit:10;}
	.st23{fill:#FF1F1F;stroke:#FF1F1F;stroke-width:20.3455;stroke-miterlimit:10;}
	.st24{fill:none;stroke:#FF1F1F;stroke-width:20.3455;stroke-miterlimit:10;}
	.st25{fill:#FF1F1F;stroke:#000000;stroke-width:7.2224;stroke-miterlimit:10;}
	.st26{fill:#FF6A15;stroke:#000000;stroke-width:7.2224;stroke-miterlimit:10;}
	.st27{fill:#FFB40A;stroke:#000000;stroke-width:7.2224;stroke-miterlimit:10;}
	.st28{fill:#FFFF00;stroke:#000000;stroke-width:7.2224;stroke-miterlimit:10;}
	.st29{fill:#FFFFFF;stroke:#FFFFFF;stroke-width:20.3455;stroke-miterlimit:10;}
	.st30{fill:none;stroke:#FFFFFF;stroke-width:20.3455;stroke-miterlimit:10;}
	.st31{fill:#FF0074;stroke:#000000;stroke-width:7.2224;stroke-miterlimit:10;}
	.st32{fill:#FF803A;stroke:#000000;stroke-width:7.2224;stroke-miterlimit:10;}
	.st33{fill:#FFFFFF;stroke:#000000;stroke-width:7.2224;stroke-miterlimit:10;}
	.st34{stroke:#000000;stroke-width:12.9372;stroke-miterlimit:10;}
	.st35{fill:none;stroke:#000000;stroke-width:12.9372;stroke-miterlimit:10;}
	.st36{stroke:#000000;stroke-width:20.3455;stroke-miterlimit:10;}
	.st37{fill:none;stroke:#000000;stroke-width:20.3455;stroke-miterlimit:10;}
	.st38{fill:none;stroke:#000000;stroke-width:7.2529;stroke-miterlimit:10;}
	.st39{fill:none;stroke:#000000;stroke-width:4.5925;stroke-miterlimit:10;}
	.st40{fill:none;stroke:#000000;stroke-width:7.2224;stroke-miterlimit:10;}
	.st41{fill:none;stroke:#FFFFFF;stroke-width:7.2529;stroke-miterlimit:10;}
	.st42{fill:none;stroke:#FFFFFF;stroke-width:4.5925;stroke-miterlimit:10;}
	.st43{fill:none;stroke:#FFFFFF;stroke-width:7.2224;stroke-miterlimit:10;}
	.st44{fill:#FF1F1F;stroke:#000000;stroke-width:4.5799;stroke-miterlimit:10;}
	.st45{fill:#FF6A15;stroke:#000000;stroke-width:4.5799;stroke-miterlimit:10;}
	.st46{fill:#FFB40A;stroke:#000000;stroke-width:4.5799;stroke-miterlimit:10;}
	.st47{fill:#FFFF00;stroke:#000000;stroke-width:4.5799;stroke-miterlimit:10;}
	.st48{fill:#FF0074;stroke:#000000;stroke-width:4.5799;stroke-miterlimit:10;}
	.st49{fill:#FF803A;stroke:#000000;stroke-width:4.5799;stroke-miterlimit:10;}
	.st50{fill:#FFFFFF;stroke:#000000;stroke-width:4.5799;stroke-miterlimit:10;}
	.st51{fill:#FF0074;}
	.st52{fill:#FF803A;}
	.st53{fill:#FFFF00;}
	.st54{fill:#FF6A15;}
	.st55{fill:#FFB40A;}
	.st56{fill:none;stroke:#000000;stroke-width:4.5799;stroke-miterlimit:10;}
	.st57{fill:none;stroke:#FFFFFF;stroke-width:4.5799;stroke-miterlimit:10;}
</style>
<g id="copy_with_strokes" class="st0">
	<g class="st1">
		<g>
			
				<rect x="889.2" y="547.5" transform="matrix(-1.836970e-16 1 -1 -1.836970e-16 1508.4382 -366.393)" width="96.4" height="46.9"/>
			
				<rect x="1440.4" y="480.7" transform="matrix(-1.836970e-16 1 -1 -1.836970e-16 2059.6401 -917.595)" width="96.4" height="180.7"/>
			
				<rect x="2281.8" y="542.7" transform="matrix(-1.836970e-16 1 -1 -1.836970e-16 2900.9729 -1758.9321)" width="96.4" height="56.6"/>
			<rect x="595.7" y="522.8" width="96.4" height="470.4"/>
			<rect x="759.3" y="522.8" width="96.4" height="470.4"/>
			<path d="M960.9,993.2c0-32.1,0-64.3,0-96.4c185.1,0,185.1-277.6,0-277.6c0-32.1,0-64.3,0-96.4
				C1274.5,522.8,1274.5,993.2,960.9,993.2z"/>
			<rect x="1243.6" y="522.8" width="96.4" height="470.4"/>
			
				<rect x="1440.4" y="667.7" transform="matrix(-1.836970e-16 1 -1 -1.836970e-16 2246.6414 -730.5937)" width="96.4" height="180.7"/>
			
				<rect x="2281.8" y="729.7" transform="matrix(-1.836970e-16 1 -1 -1.836970e-16 3087.9741 -1571.9309)" width="96.4" height="56.6"/>
			<rect x="2147" y="522.8" width="96.4" height="470.4"/>
			<path d="M2358.3,806.2c0-32.2,0-64.2,0-96.4c59.8,0,59.8-90.6,0-90.6c0-32.2,0-64.2,0-96.4
				C2546.6,522.8,2546.6,806.2,2358.3,806.2z"/>
			<path d="M1710.7,727.7c13.5-68.1,73.6-119.4,145.6-119.4c72,0,132.1,51.3,145.6,119.4h97.5C2085,606.2,1981.6,512,1856.3,512
				s-228.7,94.2-243.1,215.8H1710.7z"/>
			<path d="M2001.9,786c-13.5,68.1-73.6,119.4-145.6,119.4c-72,0-132.1-51.3-145.6-119.4h-97.5c14.4,121.5,117.8,215.8,243.1,215.8
				c125.4,0,228.7-94.2,243.1-215.8H2001.9z"/>
			<polygon points="450.8,522.8 341.7,737.1 395.8,843.4 558.9,522.8 			"/>
			<polygon points="309.1,801.3 167.4,522.8 59.2,522.8 309.1,1013.8 363.1,907.6 309.1,801.3 			"/>
			<path d="M3090.6,902.4c-68.1-13.5-119.4-73.6-119.4-145.6c0-72,51.3-132.1,119.4-145.6v-97.5
				c-121.5,14.4-215.8,117.8-215.8,243.1s94.2,228.7,215.8,243.1V902.4z"/>
			<path d="M3239.8,669.5l68.7-68.7c-39.1-47.2-95.5-79.5-159.6-87.1v97.5C3186.1,618.6,3218.2,639.9,3239.8,669.5z"/>
			<polygon points="2517.6,993.2 2626.6,779 2572.5,672.7 2409.4,993.2 			"/>
			<polygon points="2659.3,714.7 2801,993.2 2909.1,993.2 2659.3,502.2 2605.2,608.5 2659.3,714.8 			"/>
			<path d="M951.1,209.8c-25.3,0-76.6,0.3-76.6,0v222.9h62.3l0.4-55.7h27.9c59.4,0,90.5-28.6,90.5-83.6
				C1055.6,233,1016.6,209.8,951.1,209.8z M951.1,335.1h-13.9v-83.6c3.7-0.2,10.7,0,13.9,0c31.5,0,42.8,16.1,42.8,43.1
				C994,322.6,984.3,335.1,951.1,335.1z"/>
			<polygon points="394,432.6 394,342.1 331.3,342.1 331.3,432.6 268.6,432.6 268.6,209.7 331.3,209.7 331.3,300.3 394,300.3 
				394,209.7 456.6,209.7 456.6,432.6 			"/>
			<polygon points="505.4,432.6 505.4,209.7 561.1,209.7 568.1,209.7 568.1,432.6 			"/>
			<polygon points="734.7,432.6 616.8,432.6 616.8,209.7 679.5,209.7 679.5,390.8 742.2,390.8 			"/>
			<rect x="763.1" y="209.7" width="62.7" height="222.9"/>
			<path d="M1139.2,265.5v7c0,34.2,104.5,18.5,104.5,90.5c0,54-37.3,69.7-90.5,69.7c-21,0-54.8-3.9-76.6-7v-48.8
				c19.2,9.9,55.6,13.9,76.6,13.9c23.6,0,27.9-7.4,27.9-20.9c0-38.4-104.5-21.9-104.5-97.5c0-43.9,42.9-62.7,94.5-62.7
				c36.5,0,42.2,3.4,58.8,7v41.8c-14.9-6.3-35.6-7-55.7-7C1155.7,251.5,1139.2,253.8,1139.2,265.5z"/>
			<path d="M136.3,209.8c-25.3,0-76.6,0.3-76.6,0v222.9H122l0.4-55.7h27.9c59.4,0,90.5-28.6,90.5-83.6
				C240.7,233,201.8,209.8,136.3,209.8z M136.3,335.1h-13.9v-83.6c3.7-0.2,10.7,0,13.9,0c31.4,0,42.8,16.1,42.8,43.1
				C179.1,322.6,169.4,335.1,136.3,335.1z"/>
		</g>
		<path d="M3687,522.8v187h187v96.4h-187v187h-96.4v-187h-187v-96.4h187v-187H3687 M3711.2,498.6H3687h-96.4h-24.2v24.2v162.8
			h-162.8h-24.2v24.2v96.4v24.2h24.2h162.8v162.8v24.2h24.2h96.4h24.2v-24.2V830.4H3874h24.2v-24.2v-96.4v-24.2H3874h-162.8V522.8
			V498.6L3711.2,498.6z"/>
	</g>
</g>
<g id="Layer_1">
	<g>
		<g>
			<rect x="830" y="337.8" transform="matrix(-1.836970e-16 1 -1 -1.836970e-16 1239.4817 -516.9365)" width="96.4" height="46.9"/>
			<rect x="830" y="711.8" transform="matrix(-1.836970e-16 1 -1 -1.836970e-16 1613.4843 -142.9339)" width="96.4" height="46.9"/>
			
				<rect x="1381.2" y="270.9" transform="matrix(-1.836970e-16 1 -1 -1.836970e-16 1790.6837 -1068.1384)" width="96.4" height="180.7"/>
			
				<rect x="2222.6" y="333" transform="matrix(-1.836970e-16 1 -1 -1.836970e-16 2632.0164 -1909.4756)" width="96.4" height="56.6"/>
			
				<rect x="1381.2" y="644.9" transform="matrix(-1.836970e-16 1 -1 -1.836970e-16 2164.6863 -694.1359)" width="96.4" height="180.7"/>
			<rect x="536.5" y="313.1" width="96.4" height="470.4"/>
			<rect x="700.1" y="313.1" width="96.4" height="470.4"/>
			<path d="M901.7,783.5c0-32.1,0-64.3,0-96.4c185.1,0,185.1-277.6,0-277.6c0-32.1,0-64.3,0-96.4
				C1215.3,313.1,1215.3,783.5,901.7,783.5z"/>
			<rect x="1184.4" y="313.1" width="96.4" height="470.4"/>
			
				<rect x="1381.2" y="457.9" transform="matrix(-1.836970e-16 1 -1 -1.836970e-16 1977.6849 -881.1372)" width="96.4" height="180.7"/>
			
				<rect x="2222.6" y="520" transform="matrix(-1.836970e-16 1 -1 -1.836970e-16 2819.0176 -1722.4744)" width="96.4" height="56.6"/>
			<rect x="2087.8" y="313.1" width="96.4" height="470.4"/>
			<path d="M2299.1,596.5c0-32.2,0-64.2,0-96.4c59.8,0,59.8-90.6,0-90.6c0-32.2,0-64.2,0-96.4
				C2487.4,313.1,2487.4,596.5,2299.1,596.5z"/>
			<path d="M1651.4,518c13.5-68.1,73.6-119.4,145.6-119.4c72,0,132.1,51.3,145.6,119.4h97.5c-14.4-121.5-117.8-215.8-243.1-215.8
				s-228.7,94.2-243.1,215.8H1651.4z"/>
			<path d="M1942.7,576.2c-13.5,68.1-73.6,119.4-145.6,119.4c-72,0-132.1-51.3-145.6-119.4h-97.5
				c14.4,121.5,117.8,215.8,243.1,215.8c125.4,0,228.7-94.2,243.1-215.8H1942.7z"/>
			<polygon points="391.6,313.1 282.5,527.3 336.6,633.6 499.7,313.1 			"/>
			<polygon points="249.9,591.6 108.2,313.1 0,313.1 249.9,804.1 303.9,697.8 249.9,591.5 			"/>
			<path d="M3031.4,692.7c-68.1-13.5-119.4-73.6-119.4-145.6c0-72,51.3-132.1,119.4-145.6v-97.5
				c-121.5,14.4-215.8,117.8-215.8,243.1s94.2,228.7,215.8,243.1V692.7z"/>
			<path d="M3180.6,459.7l68.7-68.7c-39.1-47.2-95.5-79.5-159.6-87.1v97.5C3126.9,408.9,3159,430.2,3180.6,459.7z"/>
			<path d="M3180.6,634.4c-21.5,29.5-53.7,50.9-90.9,58.3v97.5c64-7.6,120.5-39.9,159.6-87.1L3180.6,634.4z"/>
			<polygon points="2613.6,606.8 2564.6,703.1 2757.7,703.1 2757.7,606.8 			"/>
			<polygon points="2458.4,783.5 2567.4,569.2 2513.3,462.9 2350.2,783.5 			"/>
			<polygon points="2600.1,505 2741.8,783.5 2849.9,783.5 2600.1,292.5 2546,398.7 2600.1,505 			"/>
			<path d="M891.9,0c-25.3,0-76.6,0.3-76.6,0v222.9h62.3l0.4-55.7h27.9c59.4,0,90.5-28.6,90.5-83.6C996.4,23.2,957.4,0,891.9,0z
				 M891.9,125.4H878V41.8c3.7-0.2,10.7,0,13.9,0c31.5,0,42.8,16.1,42.8,43.1C934.8,112.8,925.1,125.4,891.9,125.4z"/>
			<polygon points="334.8,222.9 334.8,132.3 272.1,132.3 272.1,222.9 209.4,222.9 209.4,0 272.1,0 272.1,90.5 334.8,90.5 334.8,0 
				397.4,0 397.4,222.9 			"/>
			<polygon points="446.2,222.9 446.2,0 501.9,0 508.9,0 508.9,222.9 			"/>
			<polygon points="675.5,222.9 557.6,222.9 557.6,0 620.3,0 620.3,181.1 683,181.1 			"/>
			<rect x="703.9" width="62.7" height="222.9"/>
			<path d="M1080,55.7v7c0,34.2,104.5,18.5,104.5,90.5c0,54-37.3,69.7-90.5,69.7c-21,0-54.8-3.9-76.6-7v-48.8
				c19.2,9.9,55.6,13.9,76.6,13.9c23.6,0,27.9-7.4,27.9-20.9c0-38.4-104.5-21.9-104.5-97.5c0-43.9,42.9-62.7,94.5-62.7
				c36.5,0,42.2,3.4,58.8,7v41.8c-14.9-6.3-35.6-7-55.7-7C1096.5,41.8,1080,44,1080,55.7z"/>
			<path d="M77.1,0C51.7,0,0.5,0.3,0.4,0v222.9h62.3l0.4-55.7H91c59.4,0,90.5-28.6,90.5-83.6C181.5,23.2,142.6,0,77.1,0z
				 M77.1,125.4H63.1V41.8c3.7-0.2,10.7,0,13.9,0c31.4,0,42.8,16.1,42.8,43.1C119.9,112.8,110.2,125.4,77.1,125.4z"/>
		</g>
		<path d="M3627.8,313.1v187h187v96.4h-187v187h-96.4v-187h-187v-96.4h187v-187H3627.8 M3652,288.9h-24.2h-96.4h-24.2v24.2v162.8
			h-162.8h-24.2v24.2v96.4v24.2h24.2h162.8v162.8v24.2h24.2h96.4h24.2v-24.2V620.6h162.8h24.2v-24.2v-96.4v-24.2h-24.2H3652V313.1
			V288.9L3652,288.9z"/>
	</g>
</g>
</svg>
