<?xml version="1.0" encoding="utf-8"?>
<!-- Generator: Adobe Illustrator 26.0.2, SVG Export Plug-In . SVG Version: 6.00 Build 0)  -->
<svg version="1.1" xmlns="http://www.w3.org/2000/svg" xmlns:xlink="http://www.w3.org/1999/xlink" x="0px" y="0px"
	 viewBox="0 0 3839 551.8" style="enable-background:new 0 0 3839 551.8;" xml:space="preserve">
<style type="text/css">
	.st0{display:none;}
	.st1{display:inline;}
	.st2{fill:#FF1F1F;}
	.st3{fill:#FFFFFF;}
	.st4{fill:#FF1F1F;stroke:#FF1F1F;stroke-width:12.9372;stroke-miterlimit:10;}
	.st5{fill:none;stroke:#FF1F1F;stroke-width:12.9372;stroke-miterlimit:10;}
	.st6{fill:#FF1F1F;stroke:#000000;stroke-width:4.5925;stroke-miterlimit:10;}
	.st7{fill:#FF6A15;stroke:#000000;stroke-width:4.5925;stroke-miterlimit:10;}
	.st8{fill:#FFB40A;stroke:#000000;stroke-width:4.5925;stroke-miterlimit:10;}
	.st9{fill:#FFFF00;stroke:#000000;stroke-width:4.5925;stroke-miterlimit:10;}
	.st10{fill:#FFFFFF;stroke:#FFFFFF;stroke-width:12.9372;stroke-miterlimit:10;}
	.st11{fill:none;stroke:#FFFFFF;stroke-width:12.9372;stroke-miterlimit:10;}
	.st12{fill:#FF0074;stroke:#000000;stroke-width:4.5925;stroke-miterlimit:10;}
	.st13{fill:#FF803A;stroke:#000000;stroke-width:4.5925;stroke-miterlimit:10;}
	.st14{fill:#FFFFFF;stroke:#000000;stroke-width:4.5925;stroke-miterlimit:10;}
	.st15{fill:#FF0074;stroke:#000000;stroke-width:7.2529;stroke-miterlimit:10;}
	.st16{fill:#FF803A;stroke:#000000;stroke-width:7.2529;stroke-miterlimit:10;}
	.st17{fill:#FFFF00;stroke:#000000;stroke-width:7.2529;stroke-miterlimit:10;}
	.st18{fill:#FFFFFF;stroke:#000000;stroke-width:7.2529;stroke-miterlimit:10;}
	.st19{fill:#FF1F1F;stroke:#000000;stroke-width:6.6981;stroke-miterlimit:10;}
	.st20{fill:#FF6A15;stroke:#000000;stroke-width:6.6981;stroke-miterlimit:10;}
	.st21{fill:#FFB40A;stroke:#000000;stroke-width:6.6981;stroke-miterlimit:10;}
	.st22{fill:#FFFF00;stroke:#000000;stroke-width:6.6981;stroke-miterlimit:10;}
	.st23{fill:#FF1F1F;stroke:#FF1F1F;stroke-width:20.3455;stroke-miterlimit:10;}
	.st24{fill:none;stroke:#FF1F1F;stroke-width:20.3455;stroke-miterlimit:10;}
	.st25{fill:#FF1F1F;stroke:#000000;stroke-width:7.2224;stroke-miterlimit:10;}
	.st26{fill:#FF6A15;stroke:#000000;stroke-width:7.2224;stroke-miterlimit:10;}
	.st27{fill:#FFB40A;stroke:#000000;stroke-width:7.2224;stroke-miterlimit:10;}
	.st28{fill:#FFFF00;stroke:#000000;stroke-width:7.2224;stroke-miterlimit:10;}
	.st29{fill:#FFFFFF;stroke:#FFFFFF;stroke-width:20.3455;stroke-miterlimit:10;}
	.st30{fill:none;stroke:#FFFFFF;stroke-width:20.3455;stroke-miterlimit:10;}
	.st31{fill:#FF0074;stroke:#000000;stroke-width:7.2224;stroke-miterlimit:10;}
	.st32{fill:#FF803A;stroke:#000000;stroke-width:7.2224;stroke-miterlimit:10;}
	.st33{fill:#FFFFFF;stroke:#000000;stroke-width:7.2224;stroke-miterlimit:10;}
	.st34{stroke:#000000;stroke-width:12.9372;stroke-miterlimit:10;}
	.st35{fill:none;stroke:#000000;stroke-width:12.9372;stroke-miterlimit:10;}
	.st36{stroke:#000000;stroke-width:20.3455;stroke-miterlimit:10;}
	.st37{fill:none;stroke:#000000;stroke-width:20.3455;stroke-miterlimit:10;}
	.st38{fill:none;stroke:#000000;stroke-width:7.2529;stroke-miterlimit:10;}
	.st39{fill:none;stroke:#000000;stroke-width:4.5925;stroke-miterlimit:10;}
	.st40{fill:none;stroke:#000000;stroke-width:7.2224;stroke-miterlimit:10;}
	.st41{fill:none;stroke:#FFFFFF;stroke-width:7.2529;stroke-miterlimit:10;}
	.st42{fill:none;stroke:#FFFFFF;stroke-width:4.5925;stroke-miterlimit:10;}
	.st43{fill:none;stroke:#FFFFFF;stroke-width:7.2224;stroke-miterlimit:10;}
	.st44{fill:#FF1F1F;stroke:#000000;stroke-width:4.5799;stroke-miterlimit:10;}
	.st45{fill:#FF6A15;stroke:#000000;stroke-width:4.5799;stroke-miterlimit:10;}
	.st46{fill:#FFB40A;stroke:#000000;stroke-width:4.5799;stroke-miterlimit:10;}
	.st47{fill:#FFFF00;stroke:#000000;stroke-width:4.5799;stroke-miterlimit:10;}
	.st48{fill:#FF0074;stroke:#000000;stroke-width:4.5799;stroke-miterlimit:10;}
	.st49{fill:#FF803A;stroke:#000000;stroke-width:4.5799;stroke-miterlimit:10;}
	.st50{fill:#FFFFFF;stroke:#000000;stroke-width:4.5799;stroke-miterlimit:10;}
	.st51{fill:#FF0074;}
	.st52{fill:#FF803A;}
	.st53{fill:#FFFF00;}
	.st54{fill:#FF6A15;}
	.st55{fill:#FFB40A;}
	.st56{fill:none;stroke:#000000;stroke-width:4.5799;stroke-miterlimit:10;}
	.st57{fill:none;stroke:#FFFFFF;stroke-width:4.5799;stroke-miterlimit:10;}
</style>
<g id="copy_with_strokes" class="st0">
	<g class="st1">
		<g>
			<rect x="616.7" y="374" transform="matrix(-1.836970e-16 1 -1 -1.836970e-16 1039.8274 -259.6717)" width="66.2" height="32.2"/>
			<rect x="995" y="328.1" transform="matrix(-1.836970e-16 1 -1 -1.836970e-16 1418.114 -637.9584)" width="66.2" height="124"/>
			
				<rect x="1572.4" y="370.6" transform="matrix(-1.836970e-16 1 -1 -1.836970e-16 1995.5156 -1215.363)" width="66.2" height="38.9"/>
			<rect x="415.2" y="357" width="66.2" height="322.8"/>
			<rect x="527.5" y="357" width="66.2" height="322.8"/>
			<path d="M665.9,679.8c0-22.1,0-44.1,0-66.2c127,0,127-190.5,0-190.5c0-22.1,0-44.1,0-66.2C881.1,357,881.1,679.8,665.9,679.8z"/>
			<rect x="859.9" y="357" width="66.2" height="322.8"/>
			<rect x="995" y="456.4" transform="matrix(-1.836970e-16 1 -1 -1.836970e-16 1546.4519 -509.6205)" width="66.2" height="124"/>
			
				<rect x="1572.4" y="499" transform="matrix(-1.836970e-16 1 -1 -1.836970e-16 2123.8535 -1087.0253)" width="66.2" height="38.9"/>
			<rect x="1479.9" y="357" width="66.2" height="322.8"/>
			<path d="M1624.9,551.5c0-22.1,0-44,0-66.2c41,0,41-62.2,0-62.2c0-22.1,0-44,0-66.2C1754.1,357,1754.1,551.5,1624.9,551.5z"/>
			<path d="M1180.4,497.6c9.3-46.7,50.5-81.9,99.9-81.9c49.4,0,90.6,35.2,99.9,81.9h66.9c-9.9-83.4-80.8-148.1-166.9-148.1
				s-157,64.7-166.9,148.1H1180.4z"/>
			<path d="M1380.3,537.6c-9.3,46.7-50.5,81.9-99.9,81.9c-49.4,0-90.6-35.2-99.9-81.9h-66.9c9.9,83.4,80.8,148.1,166.9,148.1
				c86.1,0,157-64.7,166.9-148.1H1380.3z"/>
			<polygon points="315.8,357 240.9,504 278.1,577 390,357 			"/>
			<polygon points="218.5,548.1 121.3,357 47,357 218.5,694 255.6,621 218.5,548.1 			"/>
			<path d="M2127.5,617.5c-46.7-9.3-81.9-50.5-81.9-99.9c0-49.4,35.2-90.6,81.9-99.9v-66.9c-83.4,9.9-148.1,80.8-148.1,166.9
				s64.7,157,148.1,166.9V617.5z"/>
			<path d="M2229.8,457.6l47.1-47.1c-26.8-32.4-65.6-54.6-109.5-59.8v66.9C2193,422.7,2215.1,437.4,2229.8,457.6z"/>
			<polygon points="1734.2,679.8 1809,532.8 1771.9,459.9 1660,679.8 			"/>
			<polygon points="1831.4,488.7 1928.7,679.8 2002.9,679.8 1831.4,342.9 1794.3,415.8 1831.4,488.7 			"/>
			<path d="M659.2,142.1c-17.4,0-52.6,0.2-52.6,0v153h42.8l0.3-38.2h19.1c40.8,0,62.1-19.7,62.1-57.4
				C730.9,158.1,704.1,142.1,659.2,142.1z M659.2,228.2h-9.6v-57.4c2.6-0.2,7.3,0,9.6,0c21.6,0,29.4,11,29.4,29.6
				C688.6,219.6,681.9,228.2,659.2,228.2z"/>
			<polygon points="276.8,295.1 276.8,233 233.8,233 233.8,295.1 190.7,295.1 190.7,142.1 233.8,142.1 233.8,204.3 276.8,204.3 
				276.8,142.1 319.8,142.1 319.8,295.1 			"/>
			<polygon points="353.3,295.1 353.3,142.1 391.5,142.1 396.3,142.1 396.3,295.1 			"/>
			<polygon points="510.6,295.1 429.7,295.1 429.7,142.1 472.8,142.1 472.8,266.4 515.8,266.4 			"/>
			<rect x="530.1" y="142.1" width="43" height="153"/>
			<path d="M788.2,180.4v4.8c0,23.5,71.7,12.7,71.7,62.1c0,37.1-25.6,47.8-62.1,47.8c-14.4,0-37.6-2.7-52.6-4.8v-33.5
				c13.2,6.8,38.2,9.6,52.6,9.6c16.2,0,19.1-5.1,19.1-14.3c0-26.3-71.7-15-71.7-66.9c0-30.1,29.5-43,64.8-43
				c25.1,0,28.9,2.3,40.3,4.8v28.7c-10.2-4.3-24.4-4.8-38.2-4.8C799.5,170.8,788.2,172.3,788.2,180.4z"/>
			<path d="M99.9,142.1c-17.4,0-52.6,0.2-52.6,0v153h42.8l0.2-38.2h19.1c40.8,0,62.1-19.7,62.1-57.4
				C171.6,158.1,144.9,142.1,99.9,142.1z M99.9,228.2h-9.6v-57.4c2.6-0.2,7.3,0,9.6,0c21.6,0,29.4,11,29.4,29.6
				C129.3,219.6,122.7,228.2,99.9,228.2z"/>
		</g>
		<g>
			<g>
				<g>
					<path d="M3171.6,438.8c-17.5-124.7-213.7-118.6-213.7,18.3h67.6c0-49.9,70.2-53,79-9.4c0.9,4.5,0.9,9.2,0.4,13.7l-0.1,1.2
						c-1.1,9.1-4.7,17.7-10.6,24.8l-71,86.3h87.5l35-42.6c15.5-18.8,24.8-41.9,26.6-66.2l0,0C3173,456.3,3172.9,447.5,3171.6,438.8z
						"/>
				</g>
			</g>
			<g>
				<path d="M3267.7,497.6c9.3-46.7,50.5-81.9,99.9-81.9c49.4,0,90.6,35.2,99.9,81.9h66.9c-9.9-83.4-80.8-148.1-166.9-148.1
					c-86.1,0-157,64.7-166.9,148.1H3267.7z"/>
				<path d="M3467.5,537.6c-9.3,46.7-50.5,81.9-99.9,81.9c-49.4,0-90.6-35.2-99.9-81.9h-66.9c9.9,83.4,80.8,148.1,166.9,148.1
					c86.1,0,157-64.7,166.9-148.1H3467.5z"/>
			</g>
			<g>
				<path d="M3619.2,497.6c9.3-46.7,50.5-81.9,99.9-81.9c49.4,0,90.6,35.2,99.9,81.9h66.9c-9.9-83.4-80.8-148.1-166.9-148.1
					s-157,64.7-166.9,148.1H3619.2z"/>
				<path d="M3819.1,537.6c-9.3,46.7-50.5,81.9-99.9,81.9c-49.4,0-90.6-35.2-99.9-81.9h-66.9c9.9,83.4,80.8,148.1,166.9,148.1
					c86.1,0,157-64.7,166.9-148.1H3819.1z"/>
			</g>
			<g>
				
					<rect x="2588.4" y="448.7" transform="matrix(-1.836970e-16 1 -1 -1.836970e-16 3139.2026 -2103.8481)" width="66.2" height="137.9"/>
				<path d="M2654.5,517.6c0,11.6-1.9,22.8-5.5,33.2h68.4c2.1-10.7,3.3-21.8,3.3-33.2c0-11.3-1.1-22.3-3.2-33H2649
					C2652.6,495,2654.5,506.1,2654.5,517.6z"/>
				<path d="M2552.6,619.6c-56.3,0-101.9-45.6-101.9-101.9c0-56.3,45.6-101.9,101.9-101.9c27.4,0,52.2,10.8,70.5,28.4l46.8-46.8
					c-30.3-29.5-71.7-47.8-117.3-47.8c-92.8,0-168.1,75.2-168.1,168.1s75.2,168.1,168.1,168.1c66.6,0,124.2-38.8,151.4-95h-80.4
					C2605.3,608.6,2580.2,619.6,2552.6,619.6z"/>
			</g>
			<g>
				<polygon points="2767.1,679.8 2837.3,679.8 2914,463.1 2843.8,463.1 				"/>
				<polygon points="2728,423.2 2728,357 2951.5,357 2928.3,423.2 				"/>
			</g>
		</g>
	</g>
</g>
<g id="Layer_1">
	<g>
		<g>
			
				<rect x="569.6" y="231.8" transform="matrix(-1.836970e-16 1 -1 -1.836970e-16 850.6489 -354.7704)" width="66.2" height="32.2"/>
			
				<rect x="569.6" y="488.5" transform="matrix(-1.836970e-16 1 -1 -1.836970e-16 1107.3246 -98.0947)" width="66.2" height="32.2"/>
			
				<rect x="947.9" y="185.9" transform="matrix(-1.836970e-16 1 -1 -1.836970e-16 1228.9355 -733.0571)" width="66.2" height="124"/>
			
				<rect x="1525.3" y="228.5" transform="matrix(-1.836970e-16 1 -1 -1.836970e-16 1806.3372 -1310.4618)" width="66.2" height="38.9"/>
			
				<rect x="947.9" y="442.6" transform="matrix(-1.836970e-16 1 -1 -1.836970e-16 1485.6112 -476.3813)" width="66.2" height="124"/>
			<rect x="368.2" y="214.9" width="66.2" height="322.8"/>
			<rect x="480.5" y="214.9" width="66.2" height="322.8"/>
			<path d="M618.8,537.7c0-22.1,0-44.1,0-66.2c127,0,127-190.5,0-190.5c0-22.1,0-44.1,0-66.2C834,214.9,834,537.7,618.8,537.7z"/>
			<rect x="812.9" y="214.9" width="66.2" height="322.8"/>
			
				<rect x="947.9" y="314.3" transform="matrix(-1.836970e-16 1 -1 -1.836970e-16 1357.2734 -604.7192)" width="66.2" height="124"/>
			
				<rect x="1525.3" y="356.8" transform="matrix(-1.836970e-16 1 -1 -1.836970e-16 1934.675 -1182.1239)" width="66.2" height="38.9"/>
			<rect x="1432.8" y="214.9" width="66.2" height="322.8"/>
			<path d="M1577.8,409.4c0-22.1,0-44,0-66.2c41,0,41-62.2,0-62.2c0-22.1,0-44,0-66.2C1707.1,214.9,1707.1,409.4,1577.8,409.4z"/>
			<path d="M1133.4,355.5c9.3-46.7,50.5-81.9,99.9-81.9c49.4,0,90.6,35.2,99.9,81.9h66.9c-9.9-83.4-80.8-148.1-166.9-148.1
				c-86.1,0-157,64.7-166.9,148.1H1133.4z"/>
			<path d="M1333.2,395.5c-9.3,46.7-50.5,81.9-99.9,81.9c-49.4,0-90.6-35.2-99.9-81.9h-66.9c9.9,83.4,80.8,148.1,166.9,148.1
				c86.1,0,157-64.7,166.9-148.1H1333.2z"/>
			<polygon points="268.7,214.9 193.9,361.9 231,434.8 343,214.9 			"/>
			<polygon points="171.5,406 74.2,214.9 0,214.9 171.5,551.8 208.6,478.9 171.5,406 			"/>
			<path d="M2080.4,475.4c-46.7-9.3-81.9-50.5-81.9-99.9c0-49.4,35.2-90.6,81.9-99.9v-66.9c-83.4,9.9-148.1,80.8-148.1,166.9
				s64.7,157,148.1,166.9V475.4z"/>
			<path d="M2182.8,315.5l47.1-47.1c-26.8-32.4-65.6-54.6-109.5-59.8v66.9C2145.9,280.6,2168,295.2,2182.8,315.5z"/>
			<path d="M2182.8,435.4c-14.8,20.3-36.9,34.9-62.4,40v66.9c44-5.2,82.7-27.4,109.5-59.8L2182.8,435.4z"/>
			<polygon points="1793.7,416.4 1760.1,482.6 1892.6,482.6 1892.6,416.4 			"/>
			<polygon points="1687.2,537.7 1762,390.7 1724.9,317.7 1612.9,537.7 			"/>
			<polygon points="1784.4,346.6 1881.7,537.7 1955.9,537.7 1784.4,200.7 1747.3,273.6 1784.4,346.6 			"/>
			<path d="M612.1,0c-17.4,0-52.6,0.2-52.6,0v153h42.8l0.3-38.2h19.1c40.8,0,62.1-19.7,62.1-57.4C683.8,15.9,657.1,0,612.1,0z
				 M612.1,86h-9.6V28.7c2.6-0.2,7.3,0,9.6,0c21.6,0,29.4,11,29.4,29.6C641.5,77.4,634.9,86,612.1,86z"/>
			<polygon points="229.7,153 229.7,90.8 186.7,90.8 186.7,153 143.7,153 143.7,0 186.7,0 186.7,62.1 229.7,62.1 229.7,0 272.8,0 
				272.8,153 			"/>
			<polygon points="306.2,153 306.2,0 344.4,0 349.2,0 349.2,153 			"/>
			<polygon points="463.6,153 382.7,153 382.7,0 425.7,0 425.7,124.3 468.7,124.3 			"/>
			<rect x="483.1" width="43" height="153"/>
			<path d="M741.2,38.2V43c0,23.5,71.7,12.7,71.7,62.1c0,37.1-25.6,47.8-62.1,47.8c-14.4,0-37.6-2.7-52.6-4.8v-33.5
				c13.2,6.8,38.2,9.6,52.6,9.6c16.2,0,19.1-5.1,19.1-14.3c0-26.3-71.7-15-71.7-66.9c0-30.1,29.5-43,64.8-43
				c25.1,0,28.9,2.3,40.3,4.8v28.7c-10.2-4.3-24.4-4.8-38.2-4.8C752.5,28.7,741.2,30.2,741.2,38.2z"/>
			<path d="M52.9,0C35.5,0,0.3,0.2,0.3,0v153h42.8l0.2-38.2h19.1c40.8,0,62.1-19.7,62.1-57.4C124.6,15.9,97.8,0,52.9,0z M52.9,86
				h-9.6V28.7c2.6-0.2,7.3,0,9.6,0c21.6,0,29.4,11,29.4,29.6C82.3,77.4,75.7,86,52.9,86z"/>
		</g>
		<g>
			<g>
				<polygon points="2888.9,537.7 2943.3,471.5 3128.8,471.5 3128.8,537.7 				"/>
				<g>
					<path d="M3124.6,296.6c-17.5-124.7-213.7-118.6-213.7,18.3h67.6c0-49.9,70.2-53,79-9.4c0.9,4.5,0.9,9.2,0.4,13.7l-0.1,1.2
						c-1.1,9.1-4.7,17.7-10.6,24.8l-71,86.3h87.5l35-42.6c15.5-18.8,24.8-41.9,26.6-66.2l0,0
						C3125.9,314.2,3125.8,305.3,3124.6,296.6z"/>
				</g>
			</g>
			<g>
				<path d="M3220.6,355.5c9.3-46.7,50.5-81.9,99.9-81.9c49.4,0,90.6,35.2,99.9,81.9h66.9c-9.9-83.4-80.8-148.1-166.9-148.1
					s-157,64.7-166.9,148.1H3220.6z"/>
				<path d="M3420.5,395.5c-9.3,46.7-50.5,81.9-99.9,81.9c-49.4,0-90.6-35.2-99.9-81.9h-66.9c9.9,83.4,80.8,148.1,166.9,148.1
					c86.1,0,157-64.7,166.9-148.1H3420.5z"/>
			</g>
			<g>
				<path d="M3572.2,355.5c9.3-46.7,50.5-81.9,99.9-81.9c49.4,0,90.6,35.2,99.9,81.9h66.9c-9.9-83.4-80.8-148.1-166.9-148.1
					s-157,64.7-166.9,148.1H3572.2z"/>
				<path d="M3772.1,395.5c-9.3,46.7-50.5,81.9-99.9,81.9c-49.4,0-90.6-35.2-99.9-81.9h-66.9c9.9,83.4,80.8,148.1,166.9,148.1
					c86.1,0,157-64.7,166.9-148.1H3772.1z"/>
			</g>
			<g>
				
					<rect x="2541.4" y="306.6" transform="matrix(-1.836970e-16 1 -1 -1.836970e-16 2950.0242 -2198.9468)" width="66.2" height="137.9"/>
				<path d="M2607.5,375.5c0,11.6-1.9,22.8-5.5,33.2h68.4c2.1-10.7,3.3-21.8,3.3-33.2c0-11.3-1.1-22.3-3.2-33H2602
					C2605.5,352.8,2607.5,363.9,2607.5,375.5z"/>
				<path d="M2505.6,477.4c-56.3,0-101.9-45.6-101.9-101.9s45.6-101.9,101.9-101.9c27.4,0,52.2,10.8,70.5,28.4l46.8-46.8
					c-30.3-29.5-71.7-47.8-117.3-47.8c-92.8,0-168.1,75.2-168.1,168.1s75.2,168.1,168.1,168.1c66.6,0,124.2-38.8,151.4-95h-80.4
					C2558.2,466.4,2533.2,477.4,2505.6,477.4z"/>
			</g>
			<g>
				<polygon points="2720,537.7 2790.2,537.7 2866.9,321 2796.8,321 				"/>
				<polygon points="2680.9,281 2680.9,214.9 2904.5,214.9 2881.2,281 				"/>
			</g>
		</g>
	</g>
</g>
</svg>
