<?xml version="1.0" encoding="utf-8"?>
<!-- Generator: Adobe Illustrator 26.0.3, SVG Export Plug-In . SVG Version: 6.00 Build 0)  -->
<svg version="1.1" id="Layer_1" xmlns="http://www.w3.org/2000/svg" xmlns:xlink="http://www.w3.org/1999/xlink" x="0px" y="0px"
	 viewBox="0 0 3839 793.5" style="enable-background:new 0 0 3839 793.5;" xml:space="preserve">
<style type="text/css">
	.st0{display:none;}
	.st1{display:inline;}
	.st2{fill:url(#SVGID_1_);}
	.st3{fill:url(#SVGID_00000078024517919952239090000002909519746609937051_);}
	.st4{clip-path:url(#SVGID_00000165942367026710259320000017572183826482347178_);}
	.st5{clip-path:url(#SVGID_00000026875158488246736780000016915326096377377933_);fill:none;}
	.st6{fill:none;}
	.st7{fill:url(#SVGID_00000124146654766448334070000014395602240181236121_);}
	.st8{clip-path:url(#SVGID_00000059991663618023101290000009817272839031787699_);}
	.st9{clip-path:url(#SVGID_00000026149451288351879400000007696226713498974908_);}
	.st10{clip-path:url(#SVGID_00000122692394607741727530000016300217080758697875_);}
	.st11{fill:url(#SVGID_00000168115467875507411470000002201165755180034746_);}
	.st12{fill:url(#SVGID_00000181082830464269467450000002563492962411307454_);}
	.st13{clip-path:url(#SVGID_00000101077321504603642180000006715752123148477622_);}
	.st14{clip-path:url(#SVGID_00000023265676096603099570000007067667344722367670_);fill:none;}
	.st15{fill:url(#SVGID_00000040569342954281731700000017265207003327219365_);}
	.st16{clip-path:url(#SVGID_00000158010004626929503510000016312232232309844639_);}
	.st17{clip-path:url(#SVGID_00000023241155434326252080000011700940761898458799_);}
	.st18{clip-path:url(#SVGID_00000016076839544818343050000014521640558455082383_);}
	.st19{fill:#FFFFFF;}
	.st20{fill:url(#SVGID_00000064341406385788366780000012942200558349532078_);}
	.st21{fill:url(#SVGID_00000140016196223171221680000013496727092686070699_);}
	.st22{clip-path:url(#SVGID_00000097482903423506635120000002339597935597542591_);fill:#FFFFFF;}
	.st23{clip-path:url(#SVGID_00000122686715660959479320000007214354043657400736_);fill:none;}
	.st24{fill:url(#SVGID_00000051373546781382958200000013204292178935461033_);}
	.st25{clip-path:url(#SVGID_00000080188074847512445940000004539355515461869440_);fill:#FFFFFF;}
	.st26{clip-path:url(#SVGID_00000154403513085898856100000015757750265854093960_);fill:#FFFFFF;}
	.st27{clip-path:url(#SVGID_00000041256449111445223670000006558813147468277379_);}
	.st28{clip-path:url(#SVGID_00000041256449111445223670000006558813147468277379_);fill:#FFFFFF;}
	.st29{fill:url(#SVGID_00000124128246204735823120000003606743318069737374_);}
	.st30{fill:url(#SVGID_00000117656229612897921690000013295082858408991396_);}
	.st31{clip-path:url(#SVGID_00000137840834951600072400000018341891704518119556_);fill:#FFFFFF;}
	.st32{clip-path:url(#SVGID_00000158749785529613284110000001930799047445309365_);fill:none;}
	.st33{fill:url(#SVGID_00000067198525270478796400000010592945424059379622_);}
	.st34{clip-path:url(#SVGID_00000105393438051580098380000017742160765228902072_);fill:#FFFFFF;}
	.st35{clip-path:url(#SVGID_00000176001691212578402760000008896014977677094799_);fill:#FFFFFF;}
	.st36{clip-path:url(#SVGID_00000104696262113783813730000012403284041511773628_);}
	.st37{clip-path:url(#SVGID_00000104696262113783813730000012403284041511773628_);fill:#FFFFFF;}
	.st38{clip-path:url(#SVGID_00000022524859771929154200000013451779687765527690_);}
	.st39{clip-path:url(#SVGID_00000166658398113649941690000013216315149098487441_);}
	.st40{clip-path:url(#SVGID_00000127723272597375709900000017102299244765362584_);}
	.st41{clip-path:url(#SVGID_00000098941860565958000990000002910942809094992015_);}
	.st42{clip-path:url(#SVGID_00000025437047325823884440000010370117285908252290_);}
	.st43{clip-path:url(#SVGID_00000015319535547319458930000012024757615269384610_);}
	.st44{clip-path:url(#SVGID_00000170990529638746725240000010246899992290199471_);fill:#FFFFFF;}
	.st45{clip-path:url(#SVGID_00000070106136422172524310000007318831046670368397_);fill:#FFFFFF;}
	.st46{clip-path:url(#SVGID_00000072259812280719998330000012361281919173245095_);}
	.st47{clip-path:url(#SVGID_00000072259812280719998330000012361281919173245095_);fill:#FFFFFF;}
	.st48{clip-path:url(#SVGID_00000098201319776126447140000000907149169485995417_);fill:#FFFFFF;}
	.st49{clip-path:url(#SVGID_00000090293832677514373760000008906646857104155565_);fill:#FFFFFF;}
	.st50{clip-path:url(#SVGID_00000059300273773731222300000004635557493338169023_);}
	.st51{clip-path:url(#SVGID_00000059300273773731222300000004635557493338169023_);fill:#FFFFFF;}
	.st52{fill:url(#SVGID_00000082338799385984676230000010239478062707908019_);}
	.st53{fill:url(#SVGID_00000057150049337562957070000014738305867612045500_);}
	.st54{clip-path:url(#SVGID_00000060726755727881792420000007805207897150750892_);}
	.st55{clip-path:url(#SVGID_00000118360084494444104260000014419776776676052886_);fill:none;}
	.st56{fill:url(#SVGID_00000179629363527264016820000014090894047360176798_);}
	.st57{fill:url(#SVGID_00000050631262320246552330000000959641826703124408_);}
	.st58{clip-path:url(#SVGID_00000051353628049151388090000017429179558248578177_);}
	.st59{clip-path:url(#SVGID_00000116935002504789271400000012207438858939199650_);fill:none;}
	.st60{fill:url(#SVGID_00000168819217383590021670000017588971147845591965_);}
	.st61{clip-path:url(#SVGID_00000029746409696198876460000008059919375548414903_);}
	.st62{clip-path:url(#SVGID_00000108294328030446067280000018252123060681120665_);}
	.st63{clip-path:url(#SVGID_00000083777938695298607950000002370816379316066189_);}
	.st64{fill:url(#SVGID_00000005227309620275866760000001414740711268050841_);}
	.st65{clip-path:url(#SVGID_00000005978257943679134760000002742718987111748538_);}
	.st66{clip-path:url(#SVGID_00000124859484637442885220000013916926619012180360_);}
	.st67{clip-path:url(#SVGID_00000164492774501771563840000017320322873491323558_);}
	.st68{clip-path:url(#SVGID_00000121984438459927510110000006574611604762167428_);}
	.st69{clip-path:url(#SVGID_00000143575219654297267940000010488853595398558126_);}
	.st70{clip-path:url(#SVGID_00000018234225831820028940000000637855303888428710_);}
	.st71{fill:url(#SVGID_00000183928216975116695530000017745477178443553704_);}
	.st72{clip-path:url(#SVGID_00000017498683331976337320000009706822898555296441_);}
	.st73{clip-path:url(#SVGID_00000144296581383664125620000016742407515346619298_);}
	.st74{clip-path:url(#SVGID_00000131337402292871087260000003917645935815142284_);}
	.st75{fill:url(#SVGID_00000011718129283952734380000012347266395888898209_);}
	.st76{fill:url(#SVGID_00000106842380193973964900000018284237153516059793_);}
	.st77{clip-path:url(#SVGID_00000093162251702673821440000014714618383626782360_);}
	.st78{clip-path:url(#SVGID_00000164510942743584353300000012460057048880283050_);fill:none;}
	.st79{clip-path:url(#SVGID_00000003794885110410675490000002457396639881587383_);}
	.st80{clip-path:url(#SVGID_00000134220810161494824450000006626913015553175737_);}
	.st81{clip-path:url(#SVGID_00000039104905676659837570000008781672178007678081_);}
	.st82{fill:url(#SVGID_00000031172856906344014990000016137090978115208332_);}
	.st83{clip-path:url(#SVGID_00000026872309120656417700000011065792188515801728_);}
	.st84{clip-path:url(#SVGID_00000100376475332863666840000004378519554438693532_);}
	.st85{clip-path:url(#SVGID_00000116207619837190677730000005993749412854212776_);}
	.st86{clip-path:url(#SVGID_00000134963491841181678290000008949920824436989852_);}
	.st87{clip-path:url(#SVGID_00000023981519144821753830000004437447083429470607_);}
	.st88{clip-path:url(#SVGID_00000050643804132664064310000001597808598856139447_);}
	.st89{clip-path:url(#SVGID_00000003066917558953829500000002263890758586425509_);}
	.st90{clip-path:url(#SVGID_00000171721938938256910930000006970428094192695220_);}
	.st91{clip-path:url(#SVGID_00000068674147533367768320000006004077585241551286_);}
	.st92{fill:url(#SVGID_00000116936657658729994640000015721249589319095693_);}
	.st93{clip-path:url(#SVGID_00000162348287371548432720000001549332651464641673_);}
	.st94{clip-path:url(#SVGID_00000078016111429202057950000017243633357535503267_);}
	.st95{clip-path:url(#SVGID_00000125592192823381473240000006675524886541408948_);}
	.st96{clip-path:url(#SVGID_00000083792693404349005180000007309957147569241509_);}
	.st97{clip-path:url(#SVGID_00000078730452835173598660000015008828269140786589_);fill:#FFFFFF;}
	.st98{clip-path:url(#SVGID_00000088832143374852752730000012420053351379324083_);}
	.st99{clip-path:url(#SVGID_00000036948722620954198020000001711632023159221135_);}
	.st100{clip-path:url(#SVGID_00000103228832124981296490000007847945925021085621_);fill:#FFFFFF;}
	.st101{clip-path:url(#SVGID_00000159436307374527897550000011737677983715311270_);}
	.st102{fill:url(#SVGID_00000096749245877372594550000008559022110859895214_);}
	.st103{fill:url(#SVGID_00000116935256887527606470000003372567401468590510_);}
	.st104{clip-path:url(#SVGID_00000070805827010539625410000011851533812607491253_);}
	.st105{clip-path:url(#SVGID_00000103983255614950935920000001157737747528673937_);fill:none;}
	.st106{clip-path:url(#SVGID_00000173122253271136832500000007034588843787898510_);}
	.st107{clip-path:url(#SVGID_00000114751769281483355110000015153864087486113189_);}
	.st108{clip-path:url(#SVGID_00000012464948391947943210000008303724518248124858_);}
	.st109{fill:url(#SVGID_00000153705093024654412310000007277016191332255396_);}
	.st110{fill:url(#SVGID_00000174559795745908943170000001068930071715202974_);}
	.st111{fill:url(#SVGID_00000041260682211539652280000009073736567372359583_);}
	.st112{clip-path:url(#SVGID_00000145056380234609097160000005199440456406305441_);}
	.st113{clip-path:url(#SVGID_00000170241142733477347010000001553151333417981115_);fill:none;}
	.st114{fill:url(#SVGID_00000016035889907035401180000016886916354597631367_);}
	.st115{fill:url(#SVGID_00000047747795855722614130000017335944809563532714_);}
	.st116{clip-path:url(#SVGID_00000030486056354390079940000005582008953478586036_);}
	.st117{clip-path:url(#SVGID_00000091694414261032813370000007643371321272582302_);fill:none;}
	.st118{clip-path:url(#SVGID_00000031209383748987491650000010106060069021296536_);}
	.st119{clip-path:url(#SVGID_00000134211251575893646610000001797145160005397436_);}
	.st120{clip-path:url(#SVGID_00000087374447202592166070000017317262746475461785_);}
	.st121{fill:url(#SVGID_00000168079759466230456520000001104741228416092068_);}
	.st122{fill:url(#SVGID_00000003823330974581145810000006603832822037128325_);}
	.st123{fill:url(#SVGID_00000099639786467400703400000005496725201726369458_);}
	.st124{clip-path:url(#SVGID_00000031915590568279026930000015440157549981996450_);}
	.st125{clip-path:url(#SVGID_00000125566859873797464660000008719942650354670981_);fill:none;}
	.st126{clip-path:url(#SVGID_00000093170494956605195290000011440559372865121197_);}
	.st127{clip-path:url(#SVGID_00000121267002083480921480000011754371216449187770_);}
	.st128{clip-path:url(#SVGID_00000031175150362687156700000016505531558220822178_);}
	.st129{fill:url(#SVGID_00000128475303129277750510000003344391887151327881_);}
	.st130{fill:url(#SVGID_00000056424833620435909750000014848333229235942290_);}
	.st131{fill:url(#SVGID_00000157276881026994144320000015130768661918275482_);}
	.st132{clip-path:url(#SVGID_00000155844214336461025800000013421685600394431422_);}
	.st133{clip-path:url(#SVGID_00000117672940077549816280000007982388626859658409_);fill:none;}
	.st134{clip-path:url(#SVGID_00000075158720575668639450000002562535571536995223_);}
	.st135{clip-path:url(#SVGID_00000035529763716680223880000005300598811668078759_);}
	.st136{clip-path:url(#SVGID_00000061434173134113302390000000339611169571478446_);}
	.st137{fill:url(#SVGID_00000023259627211012687840000007575125492661484950_);}
	.st138{fill:url(#SVGID_00000096027259646597765270000011708159939684394633_);}
	.st139{fill:url(#SVGID_00000106105894105873056000000001752982675928200607_);}
	.st140{clip-path:url(#SVGID_00000010279314612195757620000004760982841194409141_);}
	.st141{clip-path:url(#SVGID_00000098933987610437584110000002620282148753402528_);fill:none;}
	.st142{clip-path:url(#SVGID_00000048497649249194265410000003895038412049156766_);}
	.st143{clip-path:url(#SVGID_00000093175923874535549530000007271308686912069293_);}
	.st144{clip-path:url(#SVGID_00000098199777831296075270000012660149279266253970_);}
	.st145{fill:url(#SVGID_00000108300434052841627120000004572864155754131105_);}
	.st146{fill:url(#SVGID_00000054971270160986382280000016173987208600178850_);}
	.st147{fill:url(#SVGID_00000173151175082857711420000009389314200847260304_);}
	.st148{clip-path:url(#SVGID_00000113339637810492834380000013919146383886438554_);}
	.st149{clip-path:url(#SVGID_00000036238965234195156930000007751130941705640362_);fill:none;}
	.st150{clip-path:url(#SVGID_00000038376801257589170550000001392099772418326927_);}
	.st151{clip-path:url(#SVGID_00000096767937951616512860000008575183059616340900_);fill:#FFFFFF;}
	.st152{clip-path:url(#SVGID_00000178199707443904658770000007579743611254436794_);}
	.st153{fill:url(#SVGID_00000109740439474631256720000003732253314587596718_);}
	.st154{fill:url(#SVGID_00000067930088093986237450000001144785280166184607_);}
	.st155{fill:url(#SVGID_00000017518020834264012650000016815612437879774125_);}
	.st156{clip-path:url(#SVGID_00000115492377173487934610000012449376459420929440_);fill:#FFFFFF;}
	.st157{clip-path:url(#SVGID_00000028292530786147579290000004716292231989392822_);fill:none;}
	.st158{clip-path:url(#SVGID_00000178206474534840220340000017451679813140946356_);}
	.st159{clip-path:url(#SVGID_00000124144938029474586070000005107902220123920311_);fill:#FFFFFF;}
	.st160{clip-path:url(#SVGID_00000034790621346100885440000000615889798342117765_);}
	.st161{fill:url(#SVGID_00000071538779231931148060000016099671136327316921_);}
	.st162{fill:url(#SVGID_00000091710157151419479620000018431007473014606247_);}
	.st163{fill:url(#SVGID_00000022549378724742796820000001672527115058620336_);}
	.st164{clip-path:url(#SVGID_00000006667517969336871570000013611791186441368723_);fill:#FFFFFF;}
	.st165{clip-path:url(#SVGID_00000056389146258556928900000018252576172334326199_);fill:none;}
</style>
<g class="st0">
	<g class="st1">
		<g>
			<g>
				<g>
					<path d="M2074.2-101.2c3-1.5,6.5-3.2,10.5-5c13.2-6.2,23.7,12.3,11.6,20.5c-4.2,2.9-8,5.5-11.1,7.6
						c-38.8,27.2-72.7,59.2-72.7,167.4c0,135.9,112.5,268.4,112.5,366.9c0,76.4-21.6,146.5-191.1,228.7c-5.6,2.7-12.2,0.6-15.3-4.7
						l0,0c-3.3-5.7-1.1-13,4.6-16.1c67.7-36.2,87.6-111.2,84.7-175.6c-6-134-114.5-249.2-112.5-359.1
						C1896.7,63.9,1922.7-24.8,2074.2-101.2z"/>
					<path d="M1968.4,444.9c-9.6-3.6-29.1-13.9-41.4-41.1l-134.3-297.8c-5.7-12.7-23.5-13.2-29.9-0.9l-99.4,188.7
						c-5.1,9.8-15.3,15.9-26.3,15.9h-119.2h-4c-4,0-8,3.2-8.6,7.1c-0.8,5.1,2.9,9.5,7.8,9.9c33.1,3,53,25.1,52.7,60.8
						c-0.2,32.9-27.7,59.9-60.7,59.9h-8.6c-88.3,0-92.1-101.4-92.1-123.6c0-25.8,0-77.6,0-77.6c0-38.1,15.3-104.9,89.7-104.9
						c69.5,0,108.5,32,140.3,74.4c5.2,7,16.3,1.2,13.6-7.1l-27.9-87.4c-2.7-8.4-12.6-12.1-20.2-7.5c-20.5,12.6-32.5,10.5-32.5,10.5
						c-10.1,0.3-42.2-8.8-81.2-8.8c-62.2,0-112.5,24.7-146.9,57.9c-3.4,3.3-9.1,2.2-10.8-2.3l-20.7-50.3H1120v-0.1h-92.2
						c-5.9,0-11.6-0.2-17.5-0.5c-31.6-1.7-142.6-7.5-199.4-7.5c-71.2,0-127,22.3-132.6,74.8c-4.2,39.5,23.2,60.1,38.9,74.5
						c8.5,7.8,48.5,33.1,69,42.6c21.4,9.9,106.8,52.7,98,86.6c-8.8,33.6-37.7,41.9-71,41.9c-52.3,0-108.4-43.3-150-82.1
						c-7.2-6.8-18.4,1.6-13.9,10.5c17.2,33.6,39.2,74.5,53.6,96.1c4.1,6.1,11.5,9.1,18.7,7.2c15.5-3.9,35.6-6,47.8-5.4
						c15.7,0.7,48.6,5,63,5c119.8,0,157.3-31.5,161.2-86.1c5.4-75.1-84.3-125.1-138.9-147c-48.8-19.7-67.7-49.3-65.6-64
						c3.4-25.5,27.7-29.8,48-29c63,2.4,181.8,33.1,181.8,76.3c0,0,0,192.1,0,200.5c0,11.2-12.2,31.4-27.7,31.4H991
						c-2.8,0-5.6,1-7.6,3c-5.4,5.4-1.6,11.7,3.5,11.7h66.9l0,0h66.3h189.1c6.1,0,11.4-3.6,13.8-9.3l10.3-25.1c2-4.8,8.1-6.3,12-2.8
						c33.7,30.5,83.1,49.6,150.6,49.6c15.7,0,48.4-4.3,63.6-9.9c4.8-1.7,10-2.7,15.1-2.7h126.5h20.4c7.5,0,11.1-9.4,5.5-14.4
						c-2.5-2.2-4.7-4.2-6.3-5.7c-12-10.9-11.5-18.3-11.8-24.6c-0.3-6.2,1-12.3,3.9-17.9l89.6-170.2l76.6,169.9
						c2.6,5.7,3.8,11.9,3.3,18.1c-0.1,0.8-0.1,1.5-0.2,2.1c-1.4,8-8.6,24.2-22.1,24.2h-2.2c-3.3,0-6.6,1.1-9.1,3.3
						c-7.5,6.7-2.9,15.1,3.7,15.1h113.3c5.2,0,9.4-4.7,8.3-10.1C1973.4,448.3,1971.3,445.9,1968.4,444.9z M1310.5,208.3
						c-15.4,24.3-23.8,50-23.8,72.6c0,30.1,5.6,59.6,17.3,86c2.6,5.8,1.4,12.6-3,17.1c-21.7,22-69.1,52.7-136.9,52.7h-16.6
						c-15.1,0-27.4-12.2-27.4-27.4v-92.3v-4.9c0-5.1,7.7-11.5,16.4-9.8c13.3,2.6,36.6,10.9,55.3,21.7c13.1,7.6,24.9,15.5,38.5,26.8
						c6,4.9,15,0.6,15-7.1v-29v-57.3v-29c0-7.7-9.1-12-15-7.1c-13.6,11.2-25.4,19.1-38.5,26.8c-18.6,10.7-42.7,22-55.9,25.1
						c-10.2,2.4-13.8-1.6-15.7-5.5v-5.6v-90.5c0-14.4,11.7-26.1,26.1-26.1h33.5c54.9,0,105.1,31.5,129.1,52.3
						C1311.9,200.3,1312.7,204.9,1310.5,208.3z"/>
					<path d="M3868.3,124.7c-0.8-2.4-3.2-3.9-5.8-3.9h-26.3h-49.5h-26.3c-2.6,0-4.9,1.5-5.8,3.9c-1.1,3.3,0.7,6.6,3.7,7.6
						c9.5,3.1,32.2,13.1,32.2,36.9v143.1c0,5.5-6.4,8.4-10.6,4.9l-150.4-124.8c-46.9-39-113.4-64.9-157.3-79.1
						c-9.7-3.1-16.4,9.7-8.2,15.8c1.4,1.1,2.9,2.2,4.4,3.3c50.1,37.7,55.5,91.7,55.5,97.8v192.2v9.3c0,7.2-5.9,13.1-13.1,13.1
						c-16.8,0-54.3-27.3-73.5-47.3c-18-18.8-26.6-44.8-46.8-68.5c-16.1-18.8-29.7-25.8-29.7-25.8c101.1,0,104.1-82,104.1-91.2
						c0-13.7,0-91.6-126.6-91.6h-292.1h-49.7c-2.6,0-4.9,1.5-5.8,3.9c-1.1,3.3,0.7,6.7,3.7,7.6c9.5,3.1,32.2,13.1,32.2,36.9V349
						c0,62.2-43.5,83-78.4,83c-63.6,0-88-37.5-88-84.6v-27.3l0,0V168.9c0-23.9,22.7-33.9,32.2-36.9c2.5-0.8,4.1-3,4.1-5.6v-0.1
						c0-3.2-2.6-5.9-5.9-5.9h-114.1h-17.5h-229.9h-117.1c-7.1,0-13.7,4.1-16.8,10.5l-18.8,39c-3.2,6.7,4.4,13.3,10.6,9.2
						c25.2-17.1,67.6-36.7,129.6-39.1c6.8-0.2,12.4,5.2,12.4,12V399c0,11.7-4.3,20.8-10.2,27.7c-4.5,5.4-11.3,8.4-18.4,8.4h-15.2
						c-4.9,0-9.9-1.3-14.1-4.1c-9.7-6.3-18.8-15.1-24.4-27.5l-134.3-297.8c-5.8-12.7-23.5-13.2-29.9-0.9L2143.1,370l-40.3,76.4
						l2.8,14.6h40.5h7.2h88l0,0c7.5,0,11.1-9.4,5.5-14.4c0,0-0.1,0-0.1-0.1c-2.5-2.2-4.6-4.1-6.2-5.6
						c-11.9-10.7-11.5-18.1-11.8-24.4c-0.3-6.3,1-12.6,3.9-18.1l89.7-170.2l76.6,169.9c2.6,5.7,3.8,11.9,3.3,18.1
						c-0.1,0.8-0.1,1.5-0.2,2.1c-1.4,8-8.6,24.2-22.1,24.2h-0.2c-2.7,0-5.4,0.8-7.5,2.5c-8.8,6.8-4.1,15.9,2.7,15.9h112.9h6.6h89.2
						h26.3h53.9c4.6,0,8.6-3.5,8.8-8.1c0.2-3.7-2.1-7.2-5.5-8.4c-11.3-4.3-36.3-17.2-36.3-45.4V152c0-7,5.7-12.3,12.7-12
						c47.9,1.9,84.2,14,109.7,27.4c4.1,2.2,6.7,6.4,6.7,11v159.1h0.4c4.1,73.1,38.8,129.2,165.9,129.2
						c73.7,0,142.7-38.6,142.7-109.7c0-8.7,0-182.3,0-182.3c0-10.8,3.4-18.4,7.7-23.7c6.3-7.7,15.9-11.8,25.9-11.8h15
						c10,0,19.7,4.1,25.9,11.8c4.3,5.4,7.7,13,7.7,23.7v221c0,32.8-26,45.2-38.2,49.2c-2.9,0.9-5.2,3.3-5.9,6.4
						c-1,5.4,3,10.1,8.2,10.1h54.3h61.3h56.8c3.5,0,6.8-2.1,8-5.4c1.7-4.7-0.8-9.6-5.1-11c-11.9-3.9-38.5-16.3-38.5-49.3V186.2
						v-24.9c0-18.7,16.1-25.5,27.1-25.5h31.6c29.4,0,58.6,24.8,58.6,66.2c0,60.7-39.5,75.4-55.7,75.4c-10.8,0-19.2,0.2-28.2-3.1
						c0,0-0.1,0-0.1-0.1c-5.7-2.7-11.7,2.6-9.9,8.5c0.1,0.3,0.1,0.5,0.2,0.5c9.5,32.1,26.5,81.2,49.8,112.5
						c36.1,48.7,104.6,87.5,219.6,87.5h49.4c3.1,0,6-1.9,6.9-4.7c1.3-4-0.9-8-4.6-9.2c-9.9-3-30.9-11.9-30.9-34.3V273.5
						c0-5.5,6.4-8.4,10.6-4.9l238.7,198.2c6.9,5.7,17.2,0.8,17.2-8.1V169.2c0-23.9,22.7-33.9,32.2-36.9
						C3867.6,131.4,3869.5,128.1,3868.3,124.7z"/>
				</g>
			</g>
		</g>
		<g>
			<circle class="st19" cx="330.6" cy="294.7" r="181.8"/>
			<g>
				<path d="M228.7,450.2c-7.3-5.8-14.1-12.1-20.8-18.6c-3.3-3.2-6.5-6.5-9.8-9.7c-2.2-2.2-4.7-4.2-6.8-6.5c-31.3,3-60.7,4-87,2.6
					c-13.3-0.7-24.6,9.7-25.2,23c-0.5,13.2,10,24.1,23.2,24.9c8.7,0.4,17.7,0.6,26.9,0.6c34.1,0,71.4-3,110.2-8.6
					C235.8,455.5,232.2,452.9,228.7,450.2z"/>
				<path d="M630.8,248.2c-2.3-14.1-10-25.5-22.3-32.9c-44-26.7-143.9,3.6-303.1,56.7c-55.7,18.5-108.3,35.7-151.9,47.2
					c-36.3,9.7-56.3,12.1-66.7,11.3c-7-0.6-8.6-7-6.6-11c0.7-1.4,1.7-3,2.8-4.6c11.4-16.5,37.8-34.9,74.9-53
					c0.8-4.8,1.8-9.6,2.8-14.3c1.3-5.5,2.8-11,4.3-16.5c0.8-2.6,1.6-5.2,2.6-7.8c1-2.4,2-4.7,3.1-7c2.6-5.6,5.7-11,8.4-16.5
					c-55.2,22.5-111,52.4-135.5,87.6c-18.4,26.4-15.1,49-9.2,63.3c15.1,36.4,66.4,29.9,114.6,18.8c48-11.1,108-31.1,171.5-52.2
					c61.3-20.5,124.7-41.6,175.8-53.7c48-11.5,70.4-11.3,80.3-9.6c4.6,0.8,7.4,5.6,5.8,10c-2.3,6.4-7.4,12.8-10.9,16.7
					c-12.2,13.7-31.7,27.8-56.8,41.7c-0.4,3.9-1,7.8-1.8,11.6c-1.1,5.4-2.6,10.8-4.2,16.1c-1.4,4.6-3,9-4.2,13.6
					c-1.3,4.8-2.5,9.7-4,14.5c-0.6,2-1.4,4-2.2,5.9c49.2-22.5,87-47,108.8-71.4C626.3,291.3,634.3,269.7,630.8,248.2z"/>
				<path d="M424.4,137c5.4,3.4,10.8,6.9,16,10.6c1.2,0.8,2.4,1.7,3.5,2.6c1,0.9,2.1,1.8,3,2.6c1.9,1.8,3.8,3.8,5.6,5.7
					c3.7,3.9,7.1,8,10.9,11.8c1,1.1,2.2,2.2,3.3,3.2c32.5-4.2,61.5-6.2,84.6-5.3c13.2,0.6,24.4-9.8,24.9-23
					c0.5-13.2-9.8-24.4-23-24.9c-35.6-1.4-83.3,3.2-135.7,12.4C419.8,134.1,422.1,135.5,424.4,137z"/>
				<g>
					<path d="M333.7,121.7c23.5,0,46.2,4.6,67.6,13.7c20.7,8.8,39.2,21.3,55.2,37.2s28.5,34.5,37.2,55.2c9,21.4,13.7,44.2,13.7,67.6
						c0,23.4-4.6,46.2-13.7,67.6c-8.8,20.7-21.3,39.2-37.2,55.2c-16,16-34.5,28.5-55.2,37.2c-21.4,9-44.2,13.7-67.6,13.7
						s-46.2-4.6-67.6-13.7c-20.7-8.8-39.2-21.3-55.2-37.2c-16-16-28.5-34.5-37.2-55.2c-9-21.4-13.7-44.2-13.7-67.6
						c0-23.4,4.6-46.2,13.7-67.6c8.8-20.7,21.3-39.2,37.2-55.2s34.5-28.5,55.2-37.2C287.4,126.3,310.2,121.7,333.7,121.7
						 M333.7,105.7c-104.8,0-189.8,85-189.8,189.8s85,189.8,189.8,189.8s189.8-85,189.8-189.8S438.5,105.7,333.7,105.7L333.7,105.7z
						"/>
				</g>
			</g>
		</g>
	</g>
</g>
<g>
	<g>
		<circle class="st19" cx="301" cy="402.2" r="181.8"/>
		<g>
			<path d="M199.1,557.7c-7.3-5.8-14.1-12.1-20.8-18.6c-3.3-3.2-6.5-6.5-9.8-9.7c-2.2-2.2-4.7-4.2-6.8-6.5c-31.3,3-60.7,4-87,2.6
				c-13.3-0.7-24.6,9.7-25.2,23c-0.5,13.2,10,24.1,23.2,24.9c8.7,0.4,17.7,0.6,26.9,0.6c34.1,0,71.4-3,110.2-8.6
				C206.1,562.9,202.5,560.4,199.1,557.7z"/>
			<path d="M601.1,355.7c-2.3-14.1-10-25.5-22.3-32.9c-44-26.7-143.9,3.6-303.1,56.7C220,398,167.4,415.1,123.8,426.7
				c-36.3,9.7-56.3,12.1-66.7,11.3c-7-0.6-8.6-7-6.6-11c0.7-1.4,1.7-3,2.8-4.6c11.4-16.5,37.8-34.9,74.9-53
				c0.8-4.8,1.8-9.6,2.8-14.3c1.3-5.5,2.8-11,4.3-16.5c0.8-2.6,1.6-5.2,2.6-7.8c1-2.4,2-4.7,3.1-7c2.6-5.6,5.7-11,8.4-16.5
				c-55.2,22.5-111,52.4-135.5,87.6c-18.4,26.4-15.1,49-9.2,63.3c15.1,36.4,66.4,29.9,114.6,18.8c48-11.1,108-31.1,171.5-52.2
				c61.3-20.5,124.7-41.6,175.8-53.7c48-11.5,70.4-11.3,80.3-9.6c4.6,0.8,7.4,5.6,5.8,10c-2.3,6.4-7.4,12.8-10.9,16.7
				c-12.2,13.7-31.7,27.8-56.8,41.7c-0.4,3.9-1,7.8-1.8,11.6c-1.1,5.4-2.6,10.8-4.2,16.1c-1.4,4.6-3,9-4.2,13.6
				c-1.3,4.8-2.5,9.7-4,14.5c-0.6,2-1.4,4-2.2,5.9c49.2-22.5,87-47,108.8-71.4C596.6,398.8,604.6,377.1,601.1,355.7z"/>
			<path d="M394.7,244.4c5.4,3.4,10.8,6.9,16,10.6c1.2,0.8,2.4,1.7,3.5,2.6c1,0.9,2.1,1.8,3,2.6c1.9,1.8,3.8,3.8,5.6,5.7
				c3.7,3.9,7.1,8,10.9,11.8c1,1.1,2.2,2.2,3.3,3.2c32.5-4.2,61.5-6.2,84.6-5.3c13.2,0.6,24.4-9.8,24.9-23
				c0.5-13.2-9.8-24.4-23-24.9c-35.6-1.4-83.3,3.2-135.7,12.4C390.1,241.5,392.4,243,394.7,244.4z"/>
			<g>
				<path d="M304,229.1c23.5,0,46.2,4.6,67.6,13.7c20.7,8.8,39.2,21.3,55.2,37.2c16,16,28.5,34.5,37.2,55.2
					c9,21.4,13.7,44.2,13.7,67.6c0,23.4-4.6,46.2-13.7,67.6c-8.8,20.7-21.3,39.2-37.2,55.2c-16,16-34.5,28.5-55.2,37.2
					c-21.4,9-44.2,13.7-67.6,13.7c-23.4,0-46.2-4.6-67.6-13.7c-20.7-8.8-39.2-21.3-55.2-37.2s-28.5-34.5-37.2-55.2
					c-9-21.4-13.7-44.2-13.7-67.6c0-23.4,4.6-46.2,13.7-67.6c8.8-20.7,21.3-39.2,37.2-55.2c16-16,34.5-28.5,55.2-37.2
					C257.7,233.8,280.5,229.1,304,229.1 M304,213.2c-104.8,0-189.8,85-189.8,189.8s85,189.8,189.8,189.8s189.8-85,189.8-189.8
					S408.8,213.2,304,213.2L304,213.2z"/>
			</g>
		</g>
	</g>
	<g>
		<g>
			<g>
				<path d="M2044.6,6.3c3-1.5,6.5-3.2,10.5-5c13.2-6.2,23.7,12.3,11.6,20.5c-4.2,2.9-8,5.5-11.1,7.6
					c-38.8,27.2-72.7,59.2-72.7,167.4c0,135.9,112.5,268.4,112.5,366.9c0,76.4-21.6,146.5-191.1,228.7c-5.6,2.7-12.2,0.6-15.3-4.7
					l0,0c-3.3-5.7-1.1-13,4.6-16.1c67.7-36.2,87.6-111.2,84.7-175.6c-6-134-114.5-249.2-112.5-359.1
					C1867,171.3,1893,82.6,2044.6,6.3z"/>
				<path d="M1938.7,552.3c-9.6-3.6-29.1-13.9-41.4-41.1l-134.3-297.8c-5.7-12.7-23.5-13.2-29.9-0.9l-99.4,188.7
					c-5.1,9.8-15.3,15.9-26.3,15.9h-119.2h-4c-4,0-8,3.2-8.6,7.1c-0.8,5.1,2.9,9.5,7.8,9.9c33.1,3,53,25.1,52.7,60.8
					c-0.2,32.9-27.7,59.9-60.7,59.9h-8.6c-88.3,0-92.1-101.4-92.1-123.6c0-25.8,0-77.6,0-77.6c0-38.1,15.3-104.9,89.7-104.9
					c69.5,0,108.5,32,140.3,74.4c5.2,7,16.3,1.2,13.6-7.1l-27.9-87.4c-2.7-8.4-12.6-12.1-20.2-7.5c-20.5,12.6-32.5,10.5-32.5,10.5
					c-10.1,0.3-42.2-8.8-81.2-8.8c-62.2,0-112.5,24.7-146.9,57.9c-3.4,3.3-9.1,2.2-10.8-2.3l-15.4-37.5c-3.2-7.8-7.3-12.8-15.7-12.8
					h-177.2v-0.1h-92.2c-5.9,0-11.6-0.2-17.5-0.5c-31.6-1.7-142.6-7.5-199.4-7.5c-71.2,0-127,22.3-132.6,74.8
					c-4.2,39.5,23.2,60.1,38.9,74.5c8.5,7.8,48.5,33.1,69,42.6c21.4,9.9,106.8,52.7,98,86.6c-8.8,33.6-37.7,41.9-71,41.9
					c-52.3,0-108.4-43.3-150-82.1c-7.2-6.8-18.4,1.6-13.9,10.5c17.2,33.6,39.2,74.5,53.6,96.1c4.1,6.1,11.5,9.1,18.7,7.2
					c15.5-3.9,35.6-6,47.8-5.4c15.7,0.7,48.6,5,63,5c119.8,0,157.3-31.5,161.2-86.1c5.4-75.1-84.3-125.1-138.9-147
					c-48.8-19.7-67.7-49.3-65.6-64c3.4-25.5,27.7-29.8,48-29c63,2.4,181.8,33.1,181.8,76.3c0,0,0,192.1,0,200.5
					c0,11.2-12.2,31.4-27.7,31.4h-0.3c-2.8,0-5.6,1-7.6,3c-5.4,5.4-1.6,11.7,3.5,11.7h66.9l0,0h66.3h189.1c6.1,0,11.4-3.6,13.8-9.3
					l10.3-25.1c2-4.8,8.1-6.3,12-2.8c33.7,30.5,83.1,49.6,150.6,49.6c15.7,0,48.4-4.3,63.6-9.9c4.8-1.7,10-2.7,15.1-2.7h126.5h20.4
					c7.5,0,11.1-9.4,5.5-14.4c-2.5-2.2-4.7-4.2-6.3-5.7c-12-10.9-11.5-18.3-11.8-24.6c-0.3-6.2,1-12.3,3.9-17.9l89.6-170.2
					l76.6,169.9c2.6,5.7,3.8,11.9,3.3,18.1c-0.1,0.8-0.1,1.5-0.2,2.1c-1.4,8-8.6,24.2-22.1,24.2h-2.2c-3.3,0-6.6,1.1-9.1,3.3
					c-7.5,6.7-2.9,15.1,3.7,15.1h113.3c5.2,0,9.4-4.7,8.3-10.1C1943.7,555.7,1941.6,553.3,1938.7,552.3z M1280.8,315.8
					c-15.4,24.3-23.8,50-23.8,72.6c0,30.1,5.6,59.6,17.3,86c2.6,5.8,1.4,12.6-3,17.1c-21.7,22-69.1,52.7-136.9,52.7h-16.6
					c-15.1,0-27.4-12.2-27.4-27.4v-92.3v-4.9c0-5.1,7.7-11.5,16.4-9.8c13.3,2.6,36.6,10.9,55.3,21.7c13.1,7.6,24.9,15.5,38.5,26.8
					c6,4.9,15,0.6,15-7.1v-29v-57.3v-29c0-7.7-9.1-12-15-7.1c-13.6,11.2-25.4,19.1-38.5,26.8c-18.6,10.7-42.7,22-55.9,25.1
					c-10.2,2.4-13.8-1.6-15.7-5.5v-5.6V279c0-14.4,11.7-26.1,26.1-26.1h33.5c54.9,0,105.1,31.5,129.1,52.3
					C1282.3,307.7,1283,312.4,1280.8,315.8z"/>
				<path d="M3838.7,232.1c-0.8-2.4-3.2-3.9-5.8-3.9h-26.3h-49.5h-26.3c-2.6,0-4.9,1.5-5.8,3.9c-1.1,3.3,0.7,6.6,3.7,7.6
					c9.5,3.1,32.2,13.1,32.2,36.9v143.1c0,5.5-6.4,8.4-10.6,4.9l-150.4-124.8c-46.9-39-113.4-64.9-157.3-79.1
					c-9.7-3.1-16.4,9.7-8.2,15.8c1.4,1.1,2.9,2.2,4.4,3.3c50.1,37.7,55.5,91.7,55.5,97.8V530v9.3c0,7.2-5.9,13.1-13.1,13.1
					c-16.8,0-54.3-27.3-73.5-47.3c-18-18.8-26.6-44.8-46.8-68.5c-16.1-18.8-29.7-25.8-29.7-25.8c101.1,0,104.1-82,104.1-91.2
					c0-13.7,0-91.6-126.6-91.6h-292.1h-49.7c-2.6,0-4.9,1.5-5.8,3.9c-1.1,3.3,0.7,6.7,3.7,7.6c9.5,3.1,32.2,13.1,32.2,36.9v180.1
					c0,62.2-43.5,83-78.4,83c-63.6,0-88-37.5-88-84.6v-27.3l0,0V276.4c0-23.9,22.7-33.9,32.2-36.9c2.5-0.8,4.1-3,4.1-5.6v-0.1
					c0-3.2-2.6-5.9-5.9-5.9H2747h-17.5h-229.9h-117.1c-7.1,0-13.7,4.1-16.8,10.5l-18.8,39c-3.2,6.7,4.4,13.3,10.6,9.2
					c25.2-17.1,67.6-36.7,129.6-39.1c6.8-0.2,12.4,5.2,12.4,12v246.9c0,11.7-4.3,20.8-10.2,27.7c-4.5,5.4-11.3,8.4-18.4,8.4h-15.2
					c-4.9,0-9.9-1.3-14.1-4.1c-9.7-6.3-18.8-15.1-24.4-27.5l-134.3-297.8c-5.8-12.7-23.5-13.2-29.9-0.9l-139.7,265.1l-40.3,76.4
					l2.8,14.6h40.5h7.2h88l0,0c7.5,0,11.1-9.4,5.5-14.4c0,0-0.1,0-0.1-0.1c-2.5-2.2-4.6-4.1-6.2-5.6c-11.9-10.7-11.5-18.1-11.8-24.4
					c-0.3-6.3,1-12.6,3.9-18.1l89.7-170.2l76.6,169.9c2.6,5.7,3.8,11.9,3.3,18.1c-0.1,0.8-0.1,1.5-0.2,2.1
					c-1.4,8-8.6,24.2-22.1,24.2h-0.2c-2.7,0-5.4,0.8-7.5,2.5c-8.8,6.8-4.1,15.9,2.7,15.9h112.9h6.6h89.2h26.3h53.9
					c4.6,0,8.6-3.5,8.8-8.1c0.2-3.7-2.1-7.2-5.5-8.4c-11.3-4.3-36.3-17.2-36.3-45.4V259.5c0-7,5.7-12.3,12.7-12
					c47.9,1.9,84.2,14,109.7,27.4c4.1,2.2,6.7,6.4,6.7,11v159.1h0.4c4.1,73.1,38.8,129.2,165.9,129.2c73.7,0,142.7-38.6,142.7-109.7
					c0-8.7,0-182.3,0-182.3c0-10.8,3.4-18.4,7.7-23.7c6.3-7.7,15.9-11.8,25.9-11.8h15c10,0,19.7,4.1,25.9,11.8
					c4.3,5.4,7.7,13,7.7,23.7v220.7c0,32.8-26,45.2-38.2,49.2c-2.9,0.9-5.2,3.3-5.9,6.4c-1,5.4,3,10.1,8.2,10.1h54.3h61.3h56.8
					c3.5,0,6.8-2.1,8-5.4c1.7-4.7-0.8-9.6-5.1-11c-11.9-3.9-38.5-16.3-38.5-49.3V293.7v-24.9c0-18.7,16.1-25.5,27.1-25.5h31.6
					c29.4,0,58.6,24.8,58.6,66.2c0,60.7-39.5,75.4-55.7,75.4c-10.8,0-19.2,0.2-28.2-3.1c0,0-0.1,0-0.1-0.1
					c-5.7-2.7-11.7,2.6-9.9,8.5c0.1,0.3,0.1,0.5,0.2,0.5c9.5,32.1,26.5,81.2,49.8,112.5c36.1,48.7,104.6,87.5,219.6,87.5h49.4
					c3.1,0,6-1.9,6.9-4.7c1.3-4-0.9-8-4.6-9.2c-9.9-3-30.9-11.9-30.9-34.3V380.9c0-5.5,6.4-8.4,10.6-4.9l238.7,198.2
					c6.9,5.7,17.2,0.8,17.2-8.1V276.7c0-23.9,22.7-33.9,32.2-36.9C3837.9,238.8,3839.8,235.5,3838.7,232.1z"/>
			</g>
		</g>
	</g>
</g>
</svg>
