<?xml version="1.0" encoding="utf-8"?>
<!-- Generator: Adobe Illustrator 26.0.3, SVG Export Plug-In . SVG Version: 6.00 Build 0)  -->
<svg version="1.1" id="Layer_1" xmlns="http://www.w3.org/2000/svg" xmlns:xlink="http://www.w3.org/1999/xlink" x="0px" y="0px"
	 viewBox="0 0 3839 448.5" style="enable-background:new 0 0 3839 448.5;" xml:space="preserve">
<style type="text/css">
	.st0{fill:#FFFFFF;}
</style>
<g>
	<g>
		<path d="M621.6,212.6v8.1c-7.6,1.2-14.4,5.8-14.4,18.6v114.5c0,9.3,3.8,12.8,13.6,14.5v8.1c-47.6,20.9-163.9,65.1-294.6,65.1
			C152.6,441.5,0,375.3,0,224.2C0,73.2,178.2,7,335.3,7c61.9,0,120.8,11,163.9,21.5c40,13.4,69.5,23.8,74.8,23.8
			c6.8,0,13.6-2.9,16.6-6.4l10.6,3.5l-73.3,95.3l-10.6-5.2c0.8-2.3,1.5-5.8,1.5-9.9c0-18-81.6-54-182-54
			c-126.9,0-229.6,48.2-229.6,146.4c0,102.8,102.7,151.1,219,151.1c95.2,0,151.1-25,173.7-37.8V287H370.1
			c-15.1,0-24.2,5.8-24.2,13.9h-10.6V198.7h10.6c0,8.1,9.1,13.9,24.2,13.9H621.6z"/>
		<path d="M677.5,427.6c16.6,0,19.6-4.6,19.6-17.4V38.3c0-12.8-3-17.4-19.6-17.4v-8.1h490.2c18.1,0,25.7-4.6,25.7-12.8h10.6v96.4
			h-10.6c0-10.5-7.6-15.1-25.7-15.1H804.3v103.4h237.2c18.1,0,25.7-4.6,25.7-15.1h10.6v97.6h-10.6c0-4.6-1.5-8.1-6-10.5
			c-3.8-2.3-10.6-3.5-19.6-3.5H804.3v113.9h370.1c18.1,0,25.7-4.6,25.7-13.9h10.6v95.3h-10.6c0-8.1-7.6-12.8-25.7-12.8h-497V427.6z"
			/>
		<path d="M1830,410.2c0,12.8,5.3,17.4,20.4,17.4v8.1h-139.7v-8.1c7.6,0,15.1-1.2,15.1-4.6c0-5.2-4.5-7.5-14.4-15.7l-339.9-280.6
			v283.5c0,12.8,3.8,17.4,20.4,17.4v8.1h-133.7v-8.1c16.6,0,18.1-4.6,18.1-17.4V38.3c0-12.8-1.5-17.4-18.1-17.4v-8.1h160.9v8.1
			c-14.4,0-20.4,2.3-20.4,7.5c0,1.7,3,4.6,8.3,8.7L1734.8,305V38.3c0-12.8-1.5-17.4-19.6-17.4v-8.1h135.2v8.1
			c-15.1,0-20.4,4.6-20.4,17.4V410.2z"/>
		<path d="M1916.9,427.6c16.6,0,19.6-4.6,19.6-17.4V38.3c0-12.8-3-17.4-19.6-17.4v-8.1H2407c18.1,0,25.7-4.6,25.7-12.8h10.6v96.4
			h-10.6c0-10.5-7.6-15.1-25.7-15.1h-363.3v103.4h237.2c18.1,0,25.7-4.6,25.7-15.1h10.6v97.6h-10.6c0-4.6-1.5-8.1-6-10.5
			c-3.8-2.3-10.6-3.5-19.6-3.5h-237.2v113.9h370.1c18.1,0,25.7-4.6,25.7-13.9h10.6v95.3h-10.6c0-8.1-7.6-12.8-25.7-12.8h-497V427.6z
			"/>
		<path d="M2977.2,137.1l-12.1-5.2c0.8-2.3,1.5-5.2,1.5-8.1c0-7.5-71-48.2-194.1-48.2c-117.8,0-168.4,27.9-168.4,63.9
			c0,95.3,444.8-44.1,444.8,166.2c0,76.7-96.7,135.9-290,135.9c-184.3,0-237.1-45.3-254.5-45.3c-4.5,0-6.8,2.9-10.6,4.7l-9.8-1.7
			l62.7-98.8l12.1,4.6c0,2.3-1.5,4.6-1.5,9.3c0,34.3,97.4,58.7,194.1,58.7c137.5,0,184.3-30.2,184.3-62.2
			c0-113.9-438.8,27.3-438.8-165.6C2496.9,47.6,2630.6,7,2777.1,7c131.4,0,223.6,44.2,232.6,44.2c9.8,0,11.3-2.3,13.6-4.1l12.1,2.9
			L2977.2,137.1z"/>
		<path d="M3215.2,410.2c0,12.8,3.8,17.4,27.9,17.4v8.1h-162.4v-8.1c24.2,0,27.2-4.6,27.2-17.4V38.3c0-12.8-3-17.4-27.2-17.4v-8.1
			h162.4v8.1c-24.2,0-27.9,4.6-27.9,17.4V410.2z"/>
		<path d="M3767.3,137.1l-12.1-5.2c0.8-2.3,1.5-5.2,1.5-8.1c0-7.5-71-48.2-194.1-48.2c-117.8,0-168.4,27.9-168.4,63.9
			c0,95.3,444.8-44.1,444.8,166.2c0,76.7-96.7,135.9-290,135.9c-184.3,0-237.2-45.3-254.5-45.3c-4.5,0-6.8,2.9-10.6,4.7l-9.8-1.7
			l62.7-98.8l12.1,4.6c0,2.3-1.5,4.6-1.5,9.3c0,34.3,97.4,58.7,194.1,58.7c137.5,0,184.3-30.2,184.3-62.2
			c0-113.9-438.8,27.3-438.8-165.6C3286.9,47.6,3420.6,7,3567.1,7c131.4,0,223.6,44.2,232.6,44.2c9.8,0,11.3-2.3,13.6-4.1l12.1,2.9
			L3767.3,137.1z"/>
	</g>
</g>
</svg>
