<?xml version="1.0" encoding="utf-8"?>
<!-- Generator: Adobe Illustrator 26.0.3, SVG Export Plug-In . SVG Version: 6.00 Build 0)  -->
<svg version="1.1" id="Layer_1" xmlns="http://www.w3.org/2000/svg" xmlns:xlink="http://www.w3.org/1999/xlink" x="0px" y="0px"
	 viewBox="0 0 3839 386.3" style="enable-background:new 0 0 3839 386.3;" xml:space="preserve">
<style type="text/css">
	.st0{fill:#FFFFFF;}
</style>
<g>
	<g>
		<g>
			<g>
				<path d="M3757.6,51.1V0h-15.9v51.1c0,9.8,8.2,18,18,18s18-8.2,18-18V38c0-11.9,9.8-21.7,21.7-21.7c11.9,0,21.7,9.8,21.7,21.7
					v50.7h16V37.6c0-20.9-16.8-37.6-37.6-37.6c-20.9,0-37.6,16.8-37.6,37.6v13.1c0,1.2-0.8,2-2,2S3757.6,51.9,3757.6,51.1z"/>
				<path d="M3801,37.6v51.1h16.4V37.6c0-9.8-8.2-18-18-18s-18,8.2-18,18v13.1c0,11.9-9.8,21.7-21.7,21.7s-21.7-9.8-21.7-21.7V0
					h-15.9v51.1c0,20.9,16.8,37.6,37.6,37.6c20.9,0,37.6-16.8,37.6-37.6V38c0-1.2,0.8-2,2-2C3800.2,36,3801,36.8,3801,37.6z"/>
			</g>
			<g>
				<path d="M3817.3,221.2c0-7-5.3-12.3-12.3-12.3H3754c-7,0-12.3,5.3-12.3,12.3v33.1h36v-25.3h-15.9v9.4h-3.7v-9.4
					c0-2,1.6-3.7,3.7-3.7h36c2,0,3.7,1.6,3.7,3.7v45.4h15.9V221.2z"/>
				<path d="M3741.7,321.7v37.2l75.2-25.3c2-0.8,3.7-2.4,3.7-4.9c0-2-1.6-4.1-3.3-4.9l-95.3-32.7v18.8l33.9,11.4h-14.3V321.7
					L3741.7,321.7z M3776,328.3l-16.4,5.3v-11L3776,328.3z"/>
				<path d="M3820.2,353.2c10.6-3.3,18.8-13.1,18.8-24.9s-7.8-21.7-18.4-24.5l-87.5-29.8h64.2v-45h-15.9v29.4H3738v-36.8
					c0-9,7.4-15.9,15.9-15.9h51.1c9,0,15.9,7.4,15.9,15.9v52.7h16v-53.1c0-17.6-14.3-31.9-31.9-31.9H3754
					c-17.6,0-31.9,14.3-31.9,31.9V287l96.1,33.1c3.7,1.2,6.1,4.5,6.1,8.6s-2.4,7.4-6.1,8.6l-80.1,27v-42.5h-15.9v64.6l0,0
					L3820.2,353.2z"/>
			</g>
			<g>
				<path d="M3738,128.4c0-9,7.4-15.9,15.9-15.9h51.1c9,0,15.9,7.4,15.9,15.9v54.8h16v-54.8c0-17.6-14.3-31.9-31.9-31.9H3754
					c-17.6,0-31.9,14.3-31.9,31.9v54.8h15.9L3738,128.4L3738,128.4z"/>
				<path d="M3761.3,132v39.7h15.9v-55.6h-23.7c-7,0-12.3,5.3-12.3,12.3v54.8h16v-47.4C3757.6,133.7,3759.3,132,3761.3,132z"/>
				<path d="M3797.3,171.7V132c2,0,3.7,1.6,3.7,3.7v47h16.3v-54.4c0-7-5.3-12.3-12.3-12.3h-23.7v55.6
					C3781.4,171.7,3797.3,171.7,3797.3,171.7z"/>
			</g>
		</g>
	</g>
	<g>
		<path d="M313.1,142.8l-7.7-3.3c0.5-1.5,0.9-3.3,0.9-5.2c0-4.8-45.1-30.6-123.3-30.6c-74.7,0-106.8,17.8-106.8,40.6
			c0,60.5,282.5-28,282.5,105.5c0,48.7-61.4,86.4-184.2,86.4c-117,0-150.5-28.8-161.6-28.8c-2.9,0-4.3,1.9-6.7,2.9L0,309.2
			l39.8-62.7l7.7,2.9c0,1.5-0.9,2.9-0.9,5.9c0,21.8,61.8,37.2,123.3,37.2c87.3,0,117-19.2,117-39.5c0-72.3-278.6,17.4-278.6-105.2
			C8.2,86.1,93,60.2,186.1,60.2c83.4,0,142,28,147.7,28c6.2,0,7.2-1.5,8.6-2.5l7.7,1.9L313.1,142.8z"/>
		<path d="M372.6,327.3c10.5,0,12.5-2.9,12.5-11.1V80.1c0-8.1-1.9-11.1-12.5-11.1v-5.2h311.2c11.5,0,16.4-2.9,16.4-8.1h6.7v61.3
			h-6.7c0-6.7-4.8-9.6-16.4-9.6H453.2v65.7h150.5c11.5,0,16.4-2.9,16.4-9.6h6.7v62h-6.7c0-2.9-0.9-5.2-3.9-6.7
			c-2.4-1.5-6.7-2.3-12.5-2.3H453.2v72.3h235c11.5,0,16.4-2.9,16.4-8.8h6.7v60.5h-6.7c0-5.2-4.8-8.1-16.4-8.1H372.6V327.3z"/>
		<path d="M1113.5,190.8v5.2c-4.8,0.8-9.1,3.7-9.1,11.8v72.6c0,5.9,2.4,8.1,8.6,9.2v5.2c-30.3,13.2-104,41.3-187,41.3
			c-110.3,0-207.2-42.1-207.2-137.9s113.1-138,212.9-138c39.3,0,76.8,7,104,13.6c25.4,8.5,44.2,15.1,47.5,15.1c4.3,0,8.6-1.9,10.5-4
			l6.7,2.3l-46.5,60.5l-6.7-3.3c0.5-1.5,0.9-3.7,0.9-6.3c0-11.5-51.8-34.3-115.6-34.3c-80.5,0-145.7,30.6-145.7,92.9
			c0,65.3,65.2,95.9,139.1,95.9c60.4,0,95.9-15.9,110.3-24v-30.6h-82.5c-9.6,0-15.3,3.7-15.3,8.8h-6.7V182h6.7
			c0,5.2,5.7,8.8,15.3,8.8L1113.5,190.8L1113.5,190.8z"/>
		<path d="M1114.5,332.4v-5.2c8.6-0.4,11.5-2.3,18.2-14l130.9-226.5c2.4-3.7,5.3-7.7,5.3-11.1c0-4-3.9-5.9-10.1-6.7v-5.2h104.6V69
			c-7.2,0.8-10.1,2.9-10.1,5.5c0,2.9,1.9,5.9,4.3,9.6l139.1,229.1c6.7,11.5,8.6,14,18.7,14v5.2H1420v-5.2c6.2,0,8.6-1.9,8.6-3.7
			c0-4-4.3-9.2-36.5-61.9h-164.4c-27.8,47.9-35.1,55.3-35.1,60.1c0,3.3,2.9,5.2,7.2,5.5v5.2L1114.5,332.4L1114.5,332.4z
			 M1364.3,219.6l-57.5-96.7l-56.6,96.7H1364.3z"/>
		<path d="M1947.5,145.1l-7.2-2.9c0.5-2.3,0.5-4,0.5-5.9c0-8.8-58-32.4-117.9-32.4c-76.2,0-144.8,26.6-144.8,94.4
			s68.6,94.4,150.5,94.4c66.6,0,123.8-28.8,123.8-45.4c0-1.9-0.9-5.2-1.9-6.7l4.8-2.5l49.4,54.2l-3.9,1.5c-1.4-0.8-4.3-1.1-5.7-1.1
			c-14.4,0-51.3,43.5-172.2,43.5c-106.9,0-212.9-41-212.9-137.9c0-86.4,98.8-137.9,216.3-137.9c84.4,0,141,28.8,151.1,28.8
			c4.8,0,7.7-0.4,11-4.4l6.7,1.9L1947.5,145.1z"/>
		<path d="M2040,80.1c0-8.1-1.9-11.1-13.4-11.1v-5.2h212c121.8,0,173.6,53.5,173.6,134.3c0,89.3-64.3,134.3-163,134.3h-222.5v-5.2
			c11.5,0,13.4-2.9,13.4-11.1V80.1z M2108.1,288.9h141c59.5,0,94.9-23.6,94.9-90.8c0-71.6-47.9-90.8-111.3-90.8H2108L2108.1,288.9
			L2108.1,288.9z"/>
		<path d="M2665.8,161h6.7c1.9,6.3,9.6,9.2,36.5,9.2c65.7,0,83.4-16.6,83.4-32.4c0-17-23-33.9-73.4-33.9
			c-64.7,0-109.4,27.3-109.4,39.5c0,2.5,0.9,4.8,1.9,6.7l-5.7,3.7l-50.7-51.3l6.7-2.9c1.9,1.1,4.3,2.3,7.2,2.3
			c13.9,0,43.1-41.3,154.4-41.3c78.2,0,137.2,32.4,137.2,74.9c0,25.1-17.8,44.6-48.4,51.7v0.8c40.3,11.1,68.1,32.1,68.1,67.1
			c0,47.5-60.4,81.6-153.5,81.6c-125.2,0-152.5-33.2-168.8-33.2c-3.9,0-6.7,1.5-9.6,3.3l-7.7-2.3l38.3-63.4l7.2,3.3
			c0,1.1-0.5,2.5-0.5,4.4c0,14.4,53.2,44.3,132.9,44.3c60.4,0,93.5-16.3,93.5-39.5c0-20.3-24.9-42.4-94.4-42.4
			c-36,0-43.6,4-45.1,10.7h-6.7V161H2665.8z"/>
		<path d="M2892.6,114.8l6.7-4c0.9,1.1,2.9,1.9,5.7,1.9c13.4,0,49.4-52.3,151.6-52.3c59.5,0,133.8,26.2,133.8,77.4
			c0,98.1-183.1,87.8-232.1,149.8h231.2c10.5,0,14.4-2.9,14.4-8.8h6.7v61.9h-6.7c0-5.2-3.9-8.1-14.4-8.1h-307.8
			c0-134.7,240.8-128.7,240.8-192.2c0-24-36-36.6-68.6-36.6c-55.2-0.1-102.1,35.3-102.1,51.6c0,3.3,1.9,5.5,3.9,7.4l-6.2,4.4
			L2892.6,114.8z"/>
		<path d="M3228.3,332.4v-5.2c12-0.8,15.3-6.3,24.4-15.5l119.9-118.4L3259.5,77.6c-2.9-2.9-7.2-8.5-19.2-8.5v-5.3h113.1V69
			c-6.2,0-10.1,1.5-10.1,5.2c0,1.5,2.4,4.4,7.2,9.2l65.2,67.1L3484,83c3.9-4,6.7-7,6.7-9.2c0-2.9-3.9-4.8-8.2-4.8v-5.2H3589V69
			c-15.8,0.4-22.1,6.7-31.2,15.5l-104.6,103.6L3574,311.8c9.6,10,13,15.1,25.9,15.5v5.2h-112.2v-5.2c7.2,0,9.1-1.1,9.1-4.8
			c0-3.3-8.2-10.7-17.3-19.9l-70-71.2l-84.9,84.1c-2.4,2.5-4.3,3.7-4.3,7c0,2.9,3.9,4.8,10.1,4.8v5.2H3228.3z"/>
	</g>
</g>
</svg>
