<?xml version="1.0" encoding="utf-8"?>
<!-- Generator: Adobe Illustrator 26.0.3, SVG Export Plug-In . SVG Version: 6.00 Build 0)  -->
<svg version="1.1" id="Layer_1" xmlns="http://www.w3.org/2000/svg" xmlns:xlink="http://www.w3.org/1999/xlink" x="0px" y="0px"
	 viewBox="0 0 2159 2159" style="enable-background:new 0 0 2159 2159;" xml:space="preserve">
<style type="text/css">
	.st0{display:none;fill:#00AD9C;}
	.st1{display:none;fill:#FFFFFF;stroke:#231F20;stroke-miterlimit:10;}
	.st2{fill:#FFFFFF;}
	.st3{fill-rule:evenodd;clip-rule:evenodd;fill:#FFFFFF;}
	.st4{fill-rule:evenodd;clip-rule:evenodd;}
	.st5{fill:#00AD9C;}
	.st6{fill:#FBB817;}
	.st7{fill:#0174BA;}
	.st8{fill:#EB2027;}
</style>
<g>
	<rect width="2159" height="2159"/>
	<g>
		<g>
			<path class="st3" d="M330.6,1347.3c-138.9-39.8-162.1-122.5-99-170.1c58.6-44.1,158.2-77.3,158.2-77.3l411.4-148.3v169.2
				L505,1228.4c-52.3,19-60.5,45.9-17.9,60.1c42.6,14,119.5,10.1,172-9l141.9-52.3v151.4c-9,1.7-18.9,3.4-28.4,4.9
				C631.2,1407.1,479.8,1397.2,330.6,1347.3L330.6,1347.3z"/>
			<path class="st3" d="M1198.7,1365.1l461.8-166.9c52.5-19,60.5-45.9,17.9-60.1c-42.6-14.2-119.5-10.1-172,9l-307.6,110v-175.2
				l17.9-6.2c0,0,88.9-31.9,213.8-45.9c124.9-14,278.1,1.9,398.1,48.2c135.4,43.5,150.7,107.6,116.3,151.6
				c-34.4,44.1-118.8,75.6-118.8,75.6l-627.6,228.6V1365.1z"/>
			<path class="st3" d="M1252.7,282.9c243.1,84.6,325.5,190.1,325.5,427.8c0,231.4-141,319.1-319.9,231.6V510.7
				c0-50.6-9-97.3-56-110.4c-35.9-11.8-58.1,22.2-58.1,72.6v1080.1l-287-92.4V172.9C979.3,195.9,1157.1,250.2,1252.7,282.9
				L1252.7,282.9z"/>
		</g>
	</g>
	<g>
		<g>
			<g>
				<path class="st2" d="M303.6,1662.8v231.1h36.1v-209h33.4c0,0,24.2,0,32.6,10.9c7,9.2,8.4,25.9,8.4,37.2
					c0,12.1-0.8,30.7-4.8,37.6c-6.2,10.4-16.3,12.5-25.5,12.5h-22v20.5h31.7c0,0,28.6,1.3,41-11.3c15-15.3,18.9-36,18.9-63.5
					c0-25.1-9.1-50.3-27.7-58.9c-15.4-7.1-43.1-7.1-43.1-7.1H303.6z"/>
				<rect x="481.5" y="1662.8" class="st2" width="36.1" height="231.1"/>
				<polygon class="st2" points="709.5,1716.7 775.5,1889.8 737.7,1982.6 767.6,1982.6 876.8,1716.7 843.3,1716.7 795.7,1846.3 
					751.5,1716.7 				"/>
				<path class="st2" d="M903.9,1892.6v-21.8c0,0,38.2,1.5,46.1,1.5c17.6,0,26.4-3.8,33-10.8c4-4.2,7.5-23.1,7.5-29.9
					c0-6.6-1.3-21.2-4-27c-2.6-5.8-8.7-11.3-18-12.1c-6.6-0.6-16.7-1.9-28.6-2.4c-16.7-0.8-27.7-9.5-33-15.7
					c-5.3-6.3-12.4-15.7-12.4-44.5c0-28.9,7.5-45.1,15-52.6c7.5-7.5,18.4-10.8,26.9-12.3c9.7-1.6,25.5-1.7,25.5-1.7l50.4,1.5v21.8
					c0,0-36.8-1.5-44.7-1.5c-17.6,0-22.9,3.8-29.5,10.9c-3.9,4.2-6.9,15.8-6.9,22.5c0,6.7,0.8,20.2,3.4,26.1
					c2.6,5.8,8.8,11.3,18.1,12.1c6.6,0.6,16.7,1.9,28.6,2.5c16.7,0.8,27.7,9.5,33,15.7c5.3,6.3,12.4,19.5,12.4,48.3
					c0,28.9-7.5,49.5-15,57c-7.5,7.5-18.4,10.9-26.8,12.3c-9.6,1.7-25.5,1.8-25.5,1.8L903.9,1892.6z"/>
				<path class="st2" d="M1100.8,1685h-36.1v169.7c0,0,0.8,15.5,1.7,20.9c0.9,5.4,8.8,18.4,29.5,18.4l37.4-0.7v-21.8
					c0,0-10.1,0.8-16.2,0.8c-6.2,0-13.7-0.4-15-10.9c-1.3-10.4-1.3-22.9-1.3-22.9v-99.9h40.7v-21.7h-40.7V1685z"/>
				<rect x="1448.9" y="1716.7" class="st2" width="36.1" height="177.2"/>
				<rect x="1448.9" y="1662.8" class="st2" width="36.1" height="32.2"/>
				<path class="st2" d="M1599,1715.2c24.5,0,43.5,5.5,53.8,13.8c10.3,8.3,23,25.7,23,76.3c0,50.6-12.7,68.1-23,76.3
					c-10.3,8.3-29.3,13.8-53.8,13.8c-24.6,0-43.6-5.5-53.9-13.8c-10.3-8.3-23-25.7-23-76.3c0-50.6,12.7-68.1,23-76.3
					C1555.4,1720.7,1574.4,1715.2,1599,1715.2 M1574.2,1749.2c-4.9,6-11,18.9-11,56.1c0,37.1,6.1,50,11,56.1
					c5,6.1,14.1,10.2,25.9,10.2c11.8,0,20.9-4,25.8-10.2c5-6,11-18.9,11-56.1c0-37.2-6-50.1-11-56.1c-5-6.1-14.1-10.1-25.8-10.1
					C1588.3,1739.1,1579.1,1743.1,1574.2,1749.2"/>
				<path class="st2" d="M1750.5,1741.6l35.4-1.5c9.2,0,20.1,2.5,25.4,9.2c5,6.3,8,13.8,8,25.9v118.5h36.1v-121.4
					c0-23-7-36.3-17.6-44.7c-15.2-12-42.2-10.9-42.2-10.9l-80.9,1.5v175.5h35.8V1741.6z"/>
				<path class="st2" d="M1377,1685h-36.1v169.7c0,0,1,15.5,1.8,20.9c0.9,5.4,8.8,18.4,29.5,18.4l37.4-0.7v-21.8
					c0,0-10.1,0.8-16.3,0.8c-6.2,0-13.6-0.4-14.9-10.9c-1.4-10.4-1.4-22.9-1.4-22.9v-99.9h40.7v-21.7H1377V1685z"/>
				<path class="st2" d="M654.5,1775.3c0-12.1-3.1-19.7-8-25.9c-5.3-6.7-16.2-9.2-25.4-9.2l-47.6,1.5v-23.4l57.3-1.5
					c0,0,27.1-1.1,42.3,10.9c10.6,8.4,17.6,21.7,17.6,44.7v119.7l-69.1,1.5c0,0-31.4,0.1-47.1-6.3c-15.4-6.3-23.7-23.4-23.7-47.2
					c0-23,7-36.4,17.5-44.7c15.2-12,42.2-10.9,42.2-10.9h22.1v20.5h-12.3c-9.3,0-18.9,1.7-24.1,8.3c-4.9,6.3-7.6,11.7-7.6,23.8
					c0,15.9,3.1,23,10.6,28.5c6.6,4.8,18.5,5.8,31.7,5.8l23.8-1.5V1775.3z"/>
				<path class="st2" d="M1262.9,1775.3c0-12.1-3.1-19.7-8.1-25.9c-5.3-6.7-16.1-9.2-25.4-9.2l-47.6,1.5v-23.4l57.3-1.5
					c0,0,27.1-1.1,42.2,10.9c10.6,8.4,17.6,21.7,17.6,44.7v119.7l-69.1,1.5c0,0-31.4,0.1-47.1-6.3c-15.4-6.3-23.8-23.4-23.8-47.2
					c0-23,7.1-36.4,17.6-44.7c15.1-12,42.2-10.9,42.2-10.9h22v20.5h-12.4c-9.2,0-18.8,1.7-24.1,8.3c-4.9,6.3-7.6,11.7-7.6,23.8
					c0,15.9,3.1,23,10.5,28.5c6.6,4.8,18.5,5.8,31.7,5.8l23.9-1.5V1775.3z"/>
			</g>
		</g>
	</g>
</g>
</svg>
