<?xml version="1.0" encoding="utf-8"?>
<!-- Generator: Adobe Illustrator 26.5.0, SVG Export Plug-In . SVG Version: 6.00 Build 0)  -->
<svg version="1.1" xmlns="http://www.w3.org/2000/svg" xmlns:xlink="http://www.w3.org/1999/xlink" x="0px" y="0px"
	 viewBox="0 0 3839 1257.6" style="enable-background:new 0 0 3839 1257.6;" xml:space="preserve">
<style type="text/css">
	.st0{fill:#FFFFFF;}
	.st1{fill-rule:evenodd;clip-rule:evenodd;}
	.st2{fill-rule:evenodd;clip-rule:evenodd;fill:#FFFFFF;}
</style>
<g id="Layer_1">
</g>
<g id="Layer_2">
	<g>
		<g>
			<g>
				<g>
					<path class="st1" d="M3096.6,539.5c-1.9,0-3.7-0.7-5.2-1.9c-2.2-1.9-3.1-4.7-2.6-7.5c43.9-218.7,91.4-431.4,140.3-505.3
						c0.1-0.1,0.2-0.3,0.3-0.4c3.4-4.5,7.4-8.2,11.8-10.9c0.1-0.1,0.2-0.1,0.3-0.2c0.5-0.4,1.1-0.6,1.5-0.8c0.2-0.1,0.4-0.2,0.7-0.3
						c0.2-0.1,0.5-0.2,0.7-0.3l0.7-0.3c0.3-0.1,0.6-0.3,0.9-0.4c0,0,0.7-0.3,0.7-0.3c0.3-0.1,0.5-0.2,0.8-0.3
						c0.4-0.2,0.9-0.3,1.3-0.5l0.4-0.1c0.4-0.1,0.8-0.3,1.2-0.4c0,0,0.1,0,0.1,0c3.5-1,7.1-1.5,11.1-1.5c0.4,0,0.8,0,1.1,0
						c0,0,0.7,0,0.8,0c0.1,0,0.2,0,0.2,0c0.7,0,1.5,0.1,2.3,0.1l0.6,0c0.8,0.1,1.7,0.1,2.6,0.2l0.4,0c0.8,0.1,1.6,0.1,2.4,0.2l0.5,0
						c0.9,0.1,1.9,0.2,2.9,0.3l0.6,0.1c0.9,0.1,1.8,0.2,2.8,0.3l0.4,0c1,0.1,2.1,0.2,3.2,0.4l0.8,0.1c1.1,0.1,2.2,0.3,3.4,0.4
						c0,0,0.1,0,0.1,0c1.1,0.1,2.3,0.3,3.4,0.5l0.8,0.1c1.2,0.2,2.4,0.3,3.6,0.5l0.7,0.1c1.1,0.2,2.1,0.3,3.2,0.5l1.2,0.2
						c1.2,0.2,2.4,0.4,3.7,0.6l0.9,0.1c1.1,0.2,2.2,0.4,3.4,0.6l1.4,0.3c1,0.2,2,0.4,3,0.5l2.2,0.4l1.4,0.3c1.1,0.2,2.2,0.4,3.3,0.6
						l2.2,0.4c1.1,0.2,2.2,0.4,3.3,0.7l2.3,0.5c1.2,0.2,2.3,0.5,3.5,0.7l2.2,0.5c1.3,0.3,2.6,0.6,3.9,0.9l2,0.4
						c1.9,0.4,3.9,0.9,5.9,1.4l0.3,0.1c1.9,0.5,3.9,1,5.9,1.5l2.1,0.5c1.4,0.4,2.8,0.7,4.2,1.1l2.5,0.7c1.3,0.3,2.6,0.7,3.9,1
						c0.9,0.2,1.7,0.5,2.6,0.7c1.3,0.4,2.6,0.7,3.9,1.1c0.9,0.3,1.8,0.5,2.7,0.8c1.3,0.4,2.7,0.8,4.1,1.2c0,0,2,0.6,2.6,0.8
						c1.5,0.4,3,0.9,4.6,1.4l2.2,0.7c2.2,0.7,4.5,1.4,6.8,2.1l1.1,0.3c1.9,0.6,3.9,1.3,5.8,1.9l2.5,0.8c1.5,0.5,3,1,4.5,1.5
						c0.7,0.2,2.8,1,2.8,1c1.4,0.5,2.8,1,4.2,1.5c1,0.4,2,0.7,3,1.1c1.4,0.5,2.8,1,4.2,1.6l0.3,0.1c0.9,0.3,1.8,0.7,2.6,1l1.4,0.5
						c1.5,0.6,3.1,1.2,4.6,1.8c0,0,0.6,0.2,0.6,0.2c2.3,0.9,4.5,1.8,6.8,2.7l2.1,0.9c1.7,0.7,3.4,1.4,5,2.1l2.3,1
						c1.9,0.8,3.8,1.6,5.6,2.4l1.5,0.6c2.3,1,4.7,2.1,7,3.1l1.9,0.9c1.7,0.8,3.5,1.6,5.3,2.4c0.8,0.4,1.6,0.7,2.4,1.1
						c1.7,0.8,3.5,1.7,5.2,2.5l2.6,1.3c1.8,0.9,3.6,1.8,5.4,2.7l0.6,0.3c1.2,0.6,2.3,1.2,3.5,1.8l2,1c0.9,0.4,1.7,0.9,2.6,1.3
						c1.2,0.6,2.4,1.3,3.5,1.9l2.1,1.1c0.8,0.4,1.6,0.9,2.4,1.3c1.2,0.7,2.4,1.3,3.6,2l2.1,1.2c0.8,0.4,1.5,0.9,2.3,1.3
						c1.2,0.7,2.4,1.4,3.6,2.1l2.1,1.2c0.8,0.4,1.5,0.9,2.3,1.3c1.2,0.7,2.3,1.4,3.5,2.1l2.2,1.4c0.7,0.4,1.5,0.9,2.2,1.3
						c1.2,0.8,2.5,1.5,3.7,2.3l2.2,1.4c0.7,0.4,1.3,0.8,2,1.3c1.5,1,3,2,4.6,3l1.7,1.1c0.5,0.3,1.1,0.7,1.6,1.1
						c2.5,1.7,5,3.4,7.5,5.1l1,0.7c1.4,1,2.9,2,4.3,3c0,0,4,2.8,5,3.6c0,0,4.1,2.9,5,3.5l4.9,3.5l4.8,3.5l4.7,3.5l4.7,3.5l4.6,3.5
						l4.6,3.5c0.6,0.5,4.5,3.5,4.5,3.5c0.8,0.6,4.4,3.5,4.4,3.5c0.9,0.7,3.3,2.7,3.3,2.7l1,0.8c0.7,0.6,2.6,2.1,2.6,2.1l1.7,1.4
						c0.9,0.7,4.2,3.5,4.2,3.5c0.8,0.7,1.6,1.3,2.4,2l1.8,1.5c0.6,0.5,3.2,2.7,3.2,2.7l0.9,0.7c0.7,0.6,4.1,3.5,4.1,3.5
						c0.8,0.7,4,3.5,4,3.5c0.9,0.8,4,3.5,4,3.5c0.9,0.8,1.7,1.5,2.6,2.3l1.3,1.2c0.9,0.8,1.7,1.6,2.6,2.4l1.3,1.1
						c0.9,0.8,1.7,1.6,2.6,2.4l1.2,1.1c0.9,0.8,1.7,1.6,2.6,2.4l1.2,1.1c0.9,0.8,1.7,1.6,2.6,2.5l1.1,1.1c0.9,0.8,1.7,1.7,2.6,2.5
						l1.1,1.1c0.9,0.8,1.7,1.7,2.6,2.5l1.1,1.1c0.9,0.8,1.7,1.7,2.6,2.5l1.1,1c0.8,0.8,1.7,1.7,2.5,2.6l1,1c0.9,0.9,1.7,1.7,2.5,2.6
						l1,1c0.8,0.9,1.7,1.8,2.5,2.6l0.9,1c0.8,0.9,1.7,1.8,2.5,2.7l0.9,1c0.8,0.9,1.7,1.8,2.5,2.7l0.9,1c0.8,0.9,1.7,1.8,2.5,2.8
						l0.9,1c0.8,0.9,1.7,1.9,2.5,2.8l0.8,0.9c0.8,1,1.7,1.9,2.5,2.9l0.8,0.9c0.8,1,1.7,1.9,2.5,2.9l0.8,0.9c0.8,1,1.7,2,2.5,2.9
						l0.7,0.9c0.8,1,1.7,2,2.5,3l0.7,0.9c0.8,1,1.7,2,2.5,3l0.7,0.8c0.8,1,1.7,2,2.5,3.1l0.7,0.8c0.8,1.1,1.7,2.1,2.5,3.1l0.6,0.8
						c0.8,1.1,1.7,2.1,2.5,3.2l0.6,0.8c0.8,1.1,1.7,2.2,2.5,3.2c0,0,0.6,0.8,0.6,0.8c0.8,1.1,1.7,2.2,2.5,3.3l0.6,0.7
						c0.8,1.1,1.7,2.2,2.5,3.4l0.5,0.7c0.8,1.1,1.7,2.3,2.5,3.4l0.5,0.7c0.8,1.1,1.7,2.3,2.5,3.5l0.5,0.7c0.8,1.2,1.7,2.4,2.5,3.6
						l0.5,0.7c0.8,1.2,1.7,2.4,2.5,3.6l0.4,0.6c0.8,1.2,1.7,2.5,2.5,3.7l0.4,0.6c0.9,1.3,1.7,2.5,2.6,3.8l0.4,0.5
						c0.9,1.3,1.7,2.6,2.6,3.9l0.4,0.5c0.8,1.3,1.7,2.6,2.6,3.9l0.3,0.5c0.9,1.3,1.8,2.7,2.6,4.1l0.3,0.4c0.9,1.4,1.8,2.8,2.7,4.2
						l0.2,0.4c0.9,1.4,1.8,2.8,2.7,4.2c0,0,0.2,0.3,0.2,0.3c0.9,1.5,1.8,2.9,2.7,4.4l0.2,0.3c0.9,1.5,1.8,3,2.7,4.5
						c0,0,0.1,0.1,0.1,0.1c1,1.6,1.9,3.1,2.8,4.7c0,0.1,0.1,0.1,0.1,0.2c0.9,1.5,1.9,3.1,2.8,4.7c0,0,0,0.1,0.1,0.1
						c4.5,7.6,9.1,15.6,13.6,23.6c1,1.8,1.8,3.7,2.2,5.7c0.6,2.4,0.8,4.8,0.6,7.3l-0.2,2.8c-0.4,4.3-2.4,8.3-5.6,11.1l-10.1,9
						c-0.2,0.2-0.4,0.4-0.6,0.5c-5.2,3.7-10.5,5.4-16.6,5.4c-3.5,0-6.9-0.6-10.1-1.2c-1-0.2-2.2-0.4-3.6-0.7
						c-7.8-1.6-20.9-4.2-38.1-4.2c-2.2,0-4.4,0-6.6,0.1c-80.5,3.6-167.1,16.8-264.7,40.2c-93.6,22.5-200.2,55.2-325.9,99.9
						C3098.4,539.3,3097.5,539.5,3096.6,539.5z M3326.6,201.5c0,0.1,0,0.3,0,0.4c-3.9,28.7-8.1,54.6-12.6,77.5
						c40.9-10.7,99.1-20.2,159.2-25.8c30.3-2.8,59.1-4.5,83.4-4.7c2.3,0,4.7,0,6.9,0c10.7,0,20.2,0.3,28.6,0.8
						c-0.5-0.5-1.1-1.1-1.6-1.6c-33-33.2-75.7-66-123.6-94.9c-43.1-26-88.3-47.2-128.4-60.4c-0.9,10-2.4,26.8-4.6,47.7
						c-0.5,4.2-0.9,8.5-1.5,12.9c-0.7,6.2-1.4,12.6-2.2,18.8c0,0,0,0,0,0c0,0.2,0,0.3-0.1,0.5c0,0.1,0,0.2,0,0.4
						c0,0.2,0,0.5-0.1,0.7c0,0.1,0,0.1,0,0.2c0,0.2,0,0.3-0.1,0.5c0,0.2,0,0.3-0.1,0.5c0,0.1,0,0.3-0.1,0.4c0,0.1,0,0.3,0,0.4
						c0,0.2,0,0.3-0.1,0.5c0,0.2,0,0.3-0.1,0.5c0,0.2,0,0.4-0.1,0.5c0,0.1-0.1,0.6-0.1,0.7c0,0.2,0,0.3-0.1,0.5
						c0,0.3-0.1,0.6-0.1,0.9c0,0.1,0,0.3-0.1,0.4c0,0.1-0.1,0.6-0.1,0.7c0,0.2,0,0.4-0.1,0.6c0,0.3-0.1,0.5-0.1,0.8l-0.3,2
						c0,0.2,0,0.4-0.1,0.6c0,0.1,0,0.2,0,0.3c0,0.1,0,0.3,0,0.4c0,0.2,0,0.4-0.1,0.6c0,0.1,0,0.2,0,0.3c0,0.1,0,0.3,0,0.4
						c0,0.2,0,0.3-0.1,0.5c0,0.1,0,0.3,0,0.4c0,0.3-0.1,0.6-0.1,0.8c0,0.1,0,0.3-0.1,0.4c0,0.2,0,0.3-0.1,0.5c0,0.1,0,0.1,0,0.2
						c0,0.2-0.1,0.5-0.1,0.8c0,0.2,0,0.4-0.1,0.5c0,0.1,0,0.2,0,0.3c0,0.2,0,0.4-0.1,0.6c0,0.1,0,0.2,0,0.3c0,0.2,0,0.4-0.1,0.6
						c0,0,0,0.1,0,0.1c0,0.3-0.1,0.6-0.1,0.9c0,0.2,0,0.4-0.1,0.6c0,0.2-0.1,0.5-0.1,0.7c0,0.2,0,0.3-0.1,0.5c0,0.2-0.1,0.5-0.1,0.8
						c0,0.1,0,0.2,0,0.2c0,0.3-0.1,0.6-0.1,0.9c0,0,0,0,0,0c0,0.2,0,0.4-0.1,0.6c0,0.1,0,0.2,0,0.3c0,0.3-0.1,0.7-0.2,1
						c0,0.2-0.1,0.5-0.1,0.7c0,0.1,0,0.2,0,0.3c0,0.1,0,0.3,0,0.4c0,0.2,0,0.4-0.1,0.5C3326.7,201.4,3326.7,201.5,3326.6,201.5z"/>
					<path d="M3261.7,15.8c0.6,0,1.2,0,1.6,0c0,0,0,0,0,0c0,0,0.1,0,0.1,0c0.7,0,1.4,0.1,2.2,0.1c0.2,0,0.4,0,0.6,0
						c0.8,0,1.6,0.1,2.4,0.2c0.1,0,0.3,0,0.4,0c0.8,0.1,1.6,0.1,2.4,0.2c0.2,0,0.4,0,0.5,0c0.9,0.1,1.8,0.2,2.8,0.3
						c0.2,0,0.4,0,0.6,0.1c0.9,0.1,1.8,0.2,2.7,0.3c0.1,0,0.2,0,0.4,0c1,0.1,2.1,0.2,3.1,0.4c0.2,0,0.5,0.1,0.7,0.1
						c1.1,0.1,2.2,0.3,3.3,0.4c0.1,0,0.1,0,0.2,0c1.1,0.1,2.2,0.3,3.3,0.4c0.3,0,0.5,0.1,0.8,0.1c1.2,0.2,2.3,0.3,3.5,0.5
						c0.2,0,0.5,0.1,0.7,0.1c1.1,0.2,2.1,0.3,3.2,0.5c0.3,0,0.5,0.1,0.8,0.1c0.1,0,0.2,0,0.4,0.1c1.2,0.2,2.4,0.4,3.6,0.6
						c0.3,0,0.6,0.1,0.8,0.1c1.1,0.2,2.2,0.4,3.3,0.6c0.5,0.1,0.9,0.2,1.4,0.2c1,0.2,2,0.4,3,0.5c0.5,0.1,0.9,0.2,1.4,0.3
						c0.3,0,0.5,0.1,0.8,0.1c0.5,0.1,0.9,0.2,1.4,0.3c1.1,0.2,2.2,0.4,3.3,0.6c0.7,0.1,1.4,0.3,2.2,0.4c1.1,0.2,2.2,0.4,3.3,0.7
						c0.7,0.2,1.5,0.3,2.2,0.5c1.1,0.2,2.3,0.5,3.4,0.7c0.7,0.2,1.5,0.3,2.2,0.5c1.3,0.3,2.5,0.6,3.8,0.9c0.6,0.1,1.3,0.3,1.9,0.4
						c1.9,0.4,3.8,0.9,5.8,1.4c0.1,0,0.2,0,0.2,0.1c1.9,0.5,3.9,1,5.9,1.4c0.7,0.2,1.3,0.3,2,0.5c1.4,0.3,2.7,0.7,4.1,1.1
						c0.8,0.2,1.6,0.4,2.4,0.6c1.3,0.3,2.6,0.7,3.8,1c0.9,0.2,1.7,0.5,2.6,0.7c1.3,0.4,2.6,0.7,3.9,1.1c0.9,0.2,1.7,0.5,2.6,0.7
						c1.3,0.4,2.7,0.8,4,1.2c0.8,0.2,1.7,0.5,2.5,0.7c1.5,0.4,3,0.9,4.5,1.4c0.7,0.2,1.4,0.4,2.1,0.7c2.2,0.7,4.4,1.4,6.7,2.1
						c0.3,0.1,0.7,0.2,1,0.3c1.9,0.6,3.8,1.2,5.7,1.9c0.8,0.3,1.6,0.6,2.5,0.8c1.5,0.5,3,1,4.4,1.5c0.9,0.3,1.8,0.6,2.8,1
						c1.4,0.5,2.8,1,4.2,1.5c1,0.4,1.9,0.7,2.9,1.1c1.4,0.5,2.8,1,4.2,1.5c1,0.4,2,0.7,2.9,1.1c0.5,0.2,0.9,0.3,1.4,0.5
						c1.5,0.6,3,1.2,4.6,1.8c0.2,0.1,0.3,0.1,0.5,0.2c0,0,0.1,0,0.1,0c2.2,0.9,4.5,1.8,6.7,2.7c0.7,0.3,1.4,0.6,2.1,0.8
						c1.7,0.7,3.3,1.4,5,2.1c0.8,0.3,1.5,0.6,2.3,0.9c1.9,0.8,3.7,1.6,5.6,2.4c0.5,0.2,1,0.4,1.4,0.6c2.3,1,4.6,2,6.9,3.1
						c0.6,0.3,1.2,0.6,1.9,0.9c1.7,0.8,3.5,1.6,5.2,2.4c0.8,0.4,1.6,0.7,2.3,1.1c1.7,0.8,3.4,1.6,5.2,2.5c0.7,0.3,1.3,0.6,2,1
						c0.2,0.1,0.4,0.2,0.6,0.3c1.8,0.9,3.5,1.8,5.3,2.6c0.2,0.1,0.4,0.2,0.6,0.3c1.4,0.7,2.9,1.5,4.3,2.2c1.2,0.6,2.4,1.2,3.6,1.9
						c1.5,0.8,2.9,1.6,4.4,2.3c1.2,0.6,2.3,1.3,3.5,1.9c1.5,0.8,2.9,1.6,4.4,2.5c1.2,0.6,2.3,1.3,3.5,1.9c1.5,0.8,3,1.7,4.4,2.6
						c1.1,0.7,2.3,1.3,3.4,2c1.5,0.9,3,1.8,4.5,2.7c1.1,0.7,2.2,1.3,3.3,2c1.6,1,3.1,2,4.7,2.9c1,0.7,2.1,1.3,3.1,2
						c1.7,1.1,3.4,2.2,5.1,3.4c0.9,0.6,1.7,1.1,2.6,1.7c2.5,1.7,5,3.3,7.4,5.1c0.1,0.1,0.2,0.1,0.3,0.2c0.3,0.2,0.5,0.4,0.8,0.5
						c1.4,1,2.9,2,4.3,3c0.6,0.4,1.2,0.8,1.8,1.3c1.1,0.8,2.1,1.5,3.2,2.3c0.7,0.5,1.3,1,2,1.4c1,0.7,1.9,1.4,2.9,2.1
						c0.8,0.5,1.5,1.1,2.2,1.6c0.9,0.6,1.7,1.3,2.6,1.9c0.8,0.6,1.5,1.1,2.3,1.7c0.8,0.6,1.7,1.2,2.5,1.8c0.8,0.6,1.6,1.2,2.4,1.8
						c0.8,0.6,1.5,1.1,2.3,1.7c0.9,0.6,1.7,1.3,2.6,1.9c0.7,0.5,1.4,1,2.1,1.5c0.8,0.6,1.7,1.3,2.5,1.9c0.7,0.5,1.4,1,2,1.5
						c0.8,0.6,1.7,1.3,2.5,1.9c0.7,0.5,1.3,1,2,1.5c0.8,0.7,1.7,1.3,2.5,2c0.6,0.5,1.3,1,1.9,1.5c0.9,0.7,1.7,1.3,2.6,2
						c0.6,0.5,1.2,0.9,1.8,1.4c0.9,0.7,1.7,1.4,2.6,2.1c0.6,0.5,1.1,0.9,1.7,1.4c0.9,0.7,1.7,1.4,2.6,2.1c0.6,0.5,1.1,0.9,1.7,1.4
						c0.9,0.7,1.7,1.4,2.6,2.1c0.5,0.4,1.1,0.9,1.6,1.3c0.9,0.7,1.7,1.4,2.6,2.1c0.5,0.4,1,0.9,1.5,1.3c0.9,0.7,1.7,1.5,2.6,2.2
						c0.5,0.4,1,0.8,1.5,1.2c0.9,0.7,1.7,1.5,2.6,2.2c0.5,0.4,1,0.8,1.5,1.2c0.9,0.7,1.7,1.5,2.6,2.2c0.5,0.4,0.9,0.8,1.4,1.2
						c0.9,0.8,1.7,1.5,2.6,2.3c0.5,0.4,0.9,0.8,1.4,1.2c0.9,0.8,1.7,1.5,2.6,2.3c0.4,0.4,0.9,0.8,1.3,1.1c0.9,0.8,1.7,1.6,2.6,2.3
						c0.4,0.4,0.8,0.8,1.2,1.1c0.9,0.8,1.7,1.6,2.6,2.3c0.4,0.4,0.8,0.7,1.2,1.1c0.9,0.8,1.7,1.6,2.5,2.4c0.4,0.4,0.8,0.7,1.2,1.1
						c0.9,0.8,1.7,1.6,2.6,2.4c0.4,0.4,0.7,0.7,1.1,1.1c0.9,0.8,1.7,1.6,2.6,2.5c0.4,0.4,0.7,0.7,1.1,1.1c0.8,0.8,1.7,1.6,2.5,2.5
						c0.4,0.4,0.7,0.7,1.1,1.1c0.8,0.8,1.7,1.7,2.5,2.5c0.3,0.3,0.7,0.7,1,1c0.8,0.8,1.7,1.7,2.5,2.5c0.3,0.3,0.7,0.7,1,1
						c0.8,0.9,1.7,1.7,2.5,2.6c0.3,0.3,0.6,0.7,1,1c0.8,0.9,1.7,1.7,2.5,2.6c0.3,0.3,0.6,0.7,0.9,1c0.8,0.9,1.7,1.8,2.5,2.7
						c0.3,0.3,0.6,0.6,0.9,0.9c0.8,0.9,1.7,1.8,2.5,2.7c0.3,0.3,0.6,0.6,0.9,0.9c0.8,0.9,1.6,1.8,2.5,2.7c0.3,0.3,0.6,0.6,0.9,0.9
						c0.8,0.9,1.6,1.8,2.5,2.8c0.3,0.3,0.5,0.6,0.8,0.9c0.8,0.9,1.6,1.9,2.5,2.8c0.3,0.3,0.5,0.6,0.8,0.9c0.8,0.9,1.6,1.9,2.5,2.8
						c0.3,0.3,0.5,0.6,0.8,0.9c0.8,1,1.6,1.9,2.5,2.9c0.2,0.3,0.5,0.6,0.7,0.9c0.8,1,1.6,2,2.5,2.9c0.2,0.3,0.5,0.6,0.7,0.8
						c0.8,1,1.6,2,2.5,3c0.2,0.3,0.5,0.6,0.7,0.8c0.8,1,1.6,2,2.5,3c0.2,0.3,0.4,0.5,0.7,0.8c0.8,1,1.6,2.1,2.5,3.1
						c0.2,0.3,0.4,0.5,0.6,0.8c0.8,1,1.6,2.1,2.5,3.1c0.2,0.3,0.4,0.5,0.6,0.8c0.8,1.1,1.6,2.1,2.5,3.2c0.2,0.3,0.4,0.5,0.6,0.8
						c0.8,1.1,1.7,2.2,2.5,3.3c0.2,0.2,0.4,0.5,0.5,0.7c0.8,1.1,1.7,2.2,2.5,3.3c0.2,0.2,0.4,0.5,0.5,0.7c0.8,1.1,1.7,2.2,2.5,3.4
						c0.2,0.2,0.3,0.5,0.5,0.7c0.8,1.1,1.7,2.3,2.5,3.5c0.2,0.2,0.3,0.4,0.5,0.7c0.8,1.2,1.7,2.3,2.5,3.5c0.1,0.2,0.3,0.4,0.4,0.6
						c0.8,1.2,1.7,2.4,2.5,3.6c0.1,0.2,0.3,0.4,0.4,0.6c0.8,1.2,1.7,2.4,2.5,3.7c0.1,0.2,0.3,0.4,0.4,0.6c0.9,1.2,1.7,2.5,2.5,3.8
						c0.1,0.2,0.2,0.4,0.4,0.5c0.9,1.3,1.7,2.6,2.6,3.8c0.1,0.2,0.2,0.3,0.3,0.5c0.9,1.3,1.7,2.6,2.6,3.9c0.1,0.2,0.2,0.3,0.3,0.5
						c0.9,1.3,1.7,2.7,2.6,4c0.1,0.1,0.2,0.3,0.3,0.4c0.9,1.4,1.8,2.7,2.6,4.1c0.1,0.1,0.1,0.2,0.2,0.4c0.9,1.4,1.8,2.8,2.7,4.2
						c0.1,0.1,0.1,0.2,0.2,0.3c0.9,1.4,1.8,2.9,2.7,4.4c0,0.1,0.1,0.2,0.1,0.2c0.9,1.5,1.8,3,2.7,4.5c0,0.1,0.1,0.1,0.1,0.2
						c0.9,1.5,1.8,3,2.8,4.6c0,0,0,0.1,0.1,0.1c0.9,1.6,1.9,3.1,2.8,4.7c0,0,0,0,0,0c4.5,7.6,9,15.4,13.5,23.5
						c0.6,1.2,1.1,2.4,1.5,3.7c0.4,1.5,0.5,3.1,0.4,4.7l-0.2,2.8c-0.2,2.3-1.3,4.4-3,5.9l-10.1,9c-4.2,3-7.9,4-12,4
						c-2.7,0-5.5-0.4-8.6-1c-7.1-1.3-22.2-5-43.2-5c-2.2,0-4.6,0-6.9,0.1c-163.7,7.4-348.6,53.6-592.9,140.6
						c43.3-215.4,91-429.7,139.1-502.5c3.3-4.4,6.8-7.3,10.3-9.3c0,0,0,0,0-0.1c0.1-0.1,0.3-0.1,0.4-0.2c0.3-0.2,0.6-0.3,0.9-0.5
						c0.2-0.1,0.4-0.2,0.6-0.3c0.2-0.1,0.3-0.2,0.5-0.2c0.2-0.1,0.5-0.2,0.7-0.3c0.1-0.1,0.3-0.1,0.4-0.2c0.2-0.1,0.5-0.2,0.7-0.3
						c0.3-0.1,0.7-0.2,1-0.4c0.1,0,0.2-0.1,0.3-0.1c0.3-0.1,0.7-0.2,1-0.3c0,0,0,0,0,0C3256.4,16,3259.6,15.8,3261.7,15.8
						 M3303.7,290.5L3303.7,290.5c43.4-12.9,109.1-23.3,170.3-29c29.7-2.8,58.3-4.4,82.8-4.7c2.3,0,4.6,0,6.8,0
						c20.2,0,37.1,1,49.1,3.2c-3.1-3.5-6.3-7-9.6-10.4c-2.2-2.4-4.5-4.7-6.9-7.1c-68.7-69.2-176.7-133.6-264.6-160.3v0c0,0,0,0,0,0
						c0,0,0,0.2,0,0.5c-0.3,3.7-2.1,25.9-5.4,56.8c-0.5,4.1-0.9,8.4-1.4,12.8c-0.7,6-1.4,12.3-2.2,18.8c0,0.1,0,0.2,0,0.3
						c0,0.1,0,0.3,0,0.4c0,0.1-0.1,0.3-0.1,0.4c0,0,0,0.1,0,0.1c0,0,0,0.1,0,0.1c0,0,0,0.1,0,0.1c0,0,0,0.1,0,0.1c0,0,0,0.1,0,0.1
						c0,0.1,0,0.1,0,0.2c0,0.1,0,0.1,0,0.1v0.1c0,0.1,0,0.3,0,0.4c-0.1,0.1-0.1,0.3-0.1,0.4c-0.1,0.2-0.1,0.3-0.1,0.4v0.1
						c0,0.1,0,0.3,0,0.4c-0.1,0.2-0.1,0.4-0.1,0.5c0,0.1,0,0.3,0,0.4c-0.1,0.2-0.1,0.3-0.1,0.4c0,0.1,0,0.3,0,0.4c0,0,0,0,0,0.1
						c-0.1,0.2-0.1,0.3-0.1,0.5c-0.1,0.1-0.1,0.3-0.1,0.4c0,0.1,0,0.1,0,0.1c-0.1,0.2-0.1,0.3-0.1,0.5c0,0.2,0,0.3-0.1,0.4
						c0,0.1,0,0.3-0.1,0.4c0,0.1,0,0.3,0,0.4c0,0.1,0,0.1,0,0.1c0,0.1,0,0.3-0.1,0.5c0,0.1,0,0.3-0.1,0.4c-0.1,0.8-0.2,1.5-0.3,2.3
						c0,0,0,0,0,0c0,0,0,0,0,0c0,0.1,0,0.2,0,0.3c0,0,0,0.1,0,0.1c0,0.2-0.1,0.3-0.1,0.4c0,0.2,0,0.3,0,0.4c0,0.2-0.1,0.3-0.1,0.6
						c0,0.1,0,0.3,0,0.4v0.1c-0.1,0.1-0.1,0.3-0.1,0.4c0,0.2,0,0.3,0,0.4c-0.1,0.2-0.1,0.3-0.1,0.4c-0.1,0.2-0.1,0.3-0.1,0.5
						c-0.1,0.2-0.1,0.3-0.1,0.5c0,0.2,0,0.3-0.1,0.4v0.1c0,0.2,0,0.3-0.1,0.4c0,0.1,0,0.2,0,0.4c0,0.2,0,0.3-0.1,0.5
						c0,0.1,0,0.3,0,0.4c0,0.2-0.1,0.3-0.1,0.4c0,0.2,0,0.3,0,0.5c0,0.1-0.1,0.3-0.1,0.4c0,0.2,0,0.3,0,0.5c0,0,0,0,0,0.1
						c-0.1,0.1-0.1,0.3-0.1,0.4c0,0.2,0,0.4,0,0.5c-0.1,0.2-0.1,0.3-0.1,0.4c0,0.1,0,0.2,0,0.4c0,0.1,0,0.3,0,0.4l-0.1,0.1
						c0,0.2,0,0.3,0,0.4c0,0.2,0,0.3-0.1,0.4c0,0.2,0,0.3,0,0.4c0,0.2-0.1,0.3-0.1,0.4c0,0.2,0,0.3,0,0.4v0.1c0,0.2-0.1,0.4-0.1,0.5
						c0,0.2,0,0.3,0,0.5c-0.1,0.1-0.1,0.3-0.1,0.4c0,0.1,0,0.1,0,0.1c-0.1,0.1-0.1,0.3-0.1,0.4c0,0,0,0-0.1,0c0,0,0,0,0,0.1
						c0,0.1,0,0.2,0,0.4c0,0.2,0,0.3-0.1,0.5c0,0.2,0,0.3,0,0.5c0,0.2-0.1,0.3-0.1,0.4c0,0.2,0,0.3,0,0.4c0,0.1-0.1,0.3-0.1,0.4
						c0,0.2,0,0.3,0,0.5c0,0,0,0,0,0.1C3314.7,230.7,3309.7,262.3,3303.7,290.5 M3261.7,0C3261.7,0,3261.7,0,3261.7,0
						C3261.7,0,3261.7,0,3261.7,0c-4.7,0-9.1,0.6-13.3,1.8c0,0,0,0,0,0c0,0,0,0-0.1,0c-0.5,0.1-1,0.3-1.5,0.5
						c-0.2,0.1-0.3,0.1-0.5,0.2c-0.5,0.2-1,0.4-1.6,0.6c-0.3,0.1-0.7,0.3-1.1,0.4l-0.1,0c-0.2,0.1-0.4,0.2-0.7,0.3
						c-0.4,0.2-0.7,0.3-1.1,0.5c-0.3,0.1-0.5,0.2-0.8,0.4l-0.1,0c-0.3,0.1-0.6,0.3-0.9,0.5c-0.2,0.1-0.3,0.2-0.5,0.3
						c-0.7,0.3-1.6,0.8-2.5,1.4c-0.1,0.1-0.2,0.1-0.3,0.2c-5.1,3.2-9.8,7.4-13.7,12.6c-0.2,0.3-0.4,0.6-0.6,0.8
						c-23,34.8-47.1,101-73.5,202.5c-25.3,97-49.6,214.2-67.9,305.6c-1.1,5.6,0.8,11.4,5.2,15.1c2.9,2.5,6.6,3.9,10.4,3.9
						c1.8,0,3.6-0.3,5.3-0.9c125.4-44.7,231.8-77.3,325.1-99.7c97.1-23.3,183.2-36.4,263.2-40c2.1-0.1,4.2-0.1,6.3-0.1c0,0,0,0,0,0
						c16.4,0,29,2.5,36.6,4c1.4,0.3,2.7,0.5,3.7,0.7c3.6,0.7,7.4,1.3,11.6,1.3c7.8,0,14.7-2.3,21.2-6.9c0.4-0.3,0.9-0.7,1.3-1
						l10.1-9c4.8-4.2,7.7-10,8.3-16.4l0.2-2.8c0.3-3.3,0-6.6-0.7-9.9c-0.7-2.7-1.7-5.3-3-7.7c-4.6-8.1-9.2-16.1-13.7-23.8
						c0,0,0,0,0-0.1c-0.9-1.6-1.9-3.2-2.8-4.8l0-0.1l0,0.1c0,0,0-0.1,0-0.1c-0.9-1.6-1.9-3.1-2.8-4.7l-0.1-0.2
						c-0.9-1.5-1.8-3-2.8-4.5c0,0,0,0,0-0.1l-0.1-0.1c0,0,0,0,0-0.1c-0.9-1.5-1.8-3-2.7-4.4l-0.2-0.3c-0.9-1.4-1.8-2.9-2.7-4.3
						l-0.2-0.2l-0.1-0.1c-0.9-1.4-1.8-2.8-2.7-4.2l-0.2-0.3l0,0c-0.9-1.4-1.8-2.8-2.7-4.1l-0.3-0.5c-0.9-1.3-1.7-2.7-2.6-4l-0.1-0.1
						l-0.3-0.5c-0.9-1.3-1.7-2.6-2.6-3.9l-0.1-0.1l-0.3-0.4c-0.9-1.3-1.7-2.6-2.6-3.9l-0.3-0.4l-0.1-0.2c-0.9-1.3-1.7-2.5-2.6-3.8
						l-0.2-0.3l-0.2-0.3c-0.9-1.2-1.7-2.5-2.6-3.7l-0.4-0.6l-0.1-0.1c-0.9-1.2-1.7-2.4-2.6-3.6l-0.1-0.1l-0.4-0.5
						c-0.8-1.2-1.7-2.4-2.5-3.5l-0.5-0.7c-0.8-1.1-1.7-2.3-2.5-3.5l-0.1-0.1l-0.5-0.6c-0.8-1.1-1.7-2.3-2.5-3.4l-0.4-0.5l-0.2-0.3
						c-0.9-1.1-1.7-2.3-2.5-3.4l-0.6-0.8c-0.8-1.1-1.7-2.2-2.5-3.3l-0.6-0.8c-0.8-1.1-1.7-2.1-2.5-3.2l-0.3-0.4l-0.3-0.4
						c-0.9-1.1-1.7-2.1-2.5-3.2l-0.7-0.9c-0.8-1-1.7-2.1-2.5-3.1l-0.5-0.7l-0.1-0.2c-0.8-1-1.7-2.1-2.5-3.1l-0.4-0.5l-0.3-0.3
						c-0.8-1-1.7-2-2.5-3l-0.8-0.9c-0.8-1-1.7-2-2.5-2.9l-0.5-0.6l-0.3-0.3c-0.8-1-1.7-2-2.5-2.9l-0.7-0.8l-0.2-0.2
						c-0.8-1-1.7-1.9-2.5-2.9l-0.5-0.6l-0.3-0.4c-0.8-0.9-1.7-1.9-2.5-2.8l-0.8-0.9l-0.1-0.1c-0.8-0.9-1.7-1.8-2.5-2.8l-0.7-0.8
						l-0.2-0.2c-0.9-0.9-1.7-1.8-2.6-2.8l-0.5-0.6l-0.4-0.4c-0.9-0.9-1.7-1.8-2.6-2.7l-0.6-0.6l-0.3-0.4c-0.9-0.9-1.7-1.8-2.6-2.7
						l-0.7-0.7l-0.3-0.3c-0.9-0.9-1.7-1.8-2.6-2.6l-0.7-0.7l-0.4-0.4c-0.9-0.9-1.7-1.7-2.6-2.6l-0.9-0.9l-0.2-0.2
						c-0.9-0.8-1.7-1.7-2.6-2.6l-0.8-0.7l-0.3-0.3c-0.9-0.8-1.7-1.7-2.6-2.5l-0.8-0.7l-0.4-0.4c-0.9-0.8-1.7-1.7-2.6-2.5l-0.8-0.8
						l-0.3-0.3c-0.9-0.8-1.7-1.7-2.6-2.5l-0.8-0.7l-0.4-0.4c-0.9-0.8-1.7-1.6-2.6-2.4l-0.8-0.7l-0.5-0.4c-0.9-0.8-1.8-1.6-2.6-2.4
						l-0.8-0.8l-0.4-0.4c-0.9-0.8-1.8-1.6-2.7-2.4c-0.3-0.3-0.7-0.6-1-0.9l-0.3-0.3l-0.2-0.1c-0.8-0.7-1.6-1.5-2.5-2.2l-0.9-0.8
						l-0.5-0.4l-0.2-0.2c-0.8-0.7-1.6-1.4-2.4-2.1l-0.9-0.8l-0.5-0.5l-0.3-0.2c-0.8-0.7-1.6-1.4-2.4-2l-1-0.9l-0.5-0.4l-0.4-0.3
						c-0.7-0.6-1.5-1.3-2.2-1.9c-0.3-0.3-0.7-0.6-1-0.8l-0.5-0.4l-0.4-0.3c-0.8-0.6-1.5-1.3-2.3-1.9c-0.3-0.3-0.6-0.5-1-0.8
						l-0.6-0.5l-0.5-0.4c-0.7-0.6-1.5-1.2-2.2-1.8c-0.4-0.3-0.7-0.6-1.1-0.9l-0.5-0.4l-0.3-0.2c-0.8-0.6-1.6-1.3-2.3-1.9
						c-0.4-0.3-0.8-0.6-1.1-0.9l-0.6-0.5l-0.5-0.4c-0.7-0.6-1.4-1.1-2.1-1.7l-1.1-0.8l-0.7-0.5l-0.6-0.5c-0.7-0.5-1.4-1.1-2.1-1.6
						l-1.1-0.9l-0.7-0.6l-0.6-0.5c-0.7-0.5-1.3-1.1-2-1.6c-0.4-0.3-0.9-0.7-1.3-1l-0.6-0.5l-0.8-0.6c-0.6-0.5-1.2-0.9-1.8-1.4
						c-0.5-0.3-0.9-0.7-1.4-1.1l-0.6-0.5l-0.7-0.5c-0.6-0.5-1.2-0.9-1.9-1.4c-0.5-0.4-1-0.7-1.5-1.1l-0.6-0.5l-0.7-0.5
						c-0.6-0.5-1.2-0.9-1.9-1.4l-1.4-1.1l-0.7-0.5l-0.8-0.6c-0.6-0.4-1.2-0.9-1.8-1.4c-0.5-0.4-1.1-0.8-1.6-1.2l-0.7-0.5l-0.8-0.6
						c-0.5-0.4-1.1-0.8-1.6-1.2c-0.5-0.4-1.1-0.8-1.6-1.2l-0.9-0.7l-0.7-0.5c-0.5-0.4-1-0.8-1.6-1.1c-0.6-0.5-1.3-0.9-1.9-1.4
						l-0.7-0.5l-0.8-0.6c-0.5-0.4-1-0.7-1.5-1.1c-0.8-0.6-1.6-1.2-2.5-1.8l-0.5-0.3l-0.7-0.5l-1.3-0.9c-1.1-0.7-2.1-1.5-3.2-2.2
						l-0.1-0.1l-0.6-0.4l-1.2-0.8c-1.4-1-2.9-2-4.4-3.1l-0.3-0.2l-0.5-0.4c-0.1-0.1-0.2-0.1-0.3-0.2c-2.6-1.8-5.1-3.5-7.6-5.2
						c-0.6-0.4-1.1-0.7-1.7-1.1c-0.3-0.2-0.7-0.4-1-0.6l-0.8-0.5c-1.5-1-3-2-4.5-3c-0.7-0.4-1.4-0.9-2.1-1.3
						c-0.4-0.2-0.7-0.5-1.1-0.7l-1.1-0.7c-1.2-0.8-2.5-1.6-3.8-2.4c-0.8-0.5-1.5-0.9-2.3-1.4l-1.1-0.7l-1.1-0.7
						c-1.2-0.7-2.4-1.4-3.6-2.2c-0.8-0.5-1.6-0.9-2.4-1.4l-1.1-0.7l-1-0.6c-1.2-0.7-2.4-1.4-3.6-2.1c-0.8-0.5-1.6-0.9-2.5-1.4
						l-1.1-0.6l-0.9-0.5c-1.2-0.7-2.4-1.4-3.6-2c-0.8-0.5-1.7-0.9-2.5-1.4l-1.1-0.6l-1-0.5c-1.2-0.6-2.3-1.3-3.5-1.9
						c-0.9-0.5-1.7-0.9-2.6-1.3l-1.1-0.6l-0.9-0.5c-1.2-0.6-2.4-1.2-3.5-1.8l-0.1-0.1c-0.2-0.1-0.4-0.2-0.5-0.3
						c-1.8-0.9-3.6-1.8-5.4-2.7l-0.5-0.2l-0.2-0.1c-0.4-0.2-0.9-0.4-1.3-0.6l-0.7-0.3c-1.8-0.9-3.5-1.7-5.3-2.6
						c-0.8-0.4-1.6-0.8-2.4-1.1c-1.8-0.8-3.6-1.7-5.3-2.5l-0.7-0.3c-0.4-0.2-0.8-0.4-1.2-0.5c-2.5-1.1-4.9-2.2-7.1-3.2
						c-0.3-0.1-0.6-0.3-0.9-0.4l-0.6-0.2c-1.9-0.8-3.8-1.6-5.7-2.5c-0.8-0.3-1.5-0.7-2.3-1c-1.7-0.7-3.4-1.4-5.1-2.1l-0.6-0.2
						c-0.5-0.2-1-0.4-1.5-0.6c-2.6-1-4.8-1.9-6.9-2.8l-0.1,0l-0.3-0.1l-0.1-0.1c-1.6-0.6-3.1-1.2-4.7-1.8c-0.3-0.1-0.6-0.2-0.9-0.3
						l-0.5-0.2c-1-0.4-2-0.8-3-1.1c-1.4-0.5-2.8-1.1-4.3-1.6c-1-0.4-2-0.7-3-1.1c-1.4-0.5-2.9-1-4.3-1.5l-0.5-0.2
						c-0.8-0.3-1.6-0.5-2.3-0.8c-1.5-0.5-3-1-4.5-1.6l-0.9-0.3c-0.6-0.2-1.1-0.4-1.7-0.6c-2-0.7-3.9-1.3-5.9-1.9l-0.4-0.1
						c-0.2-0.1-0.4-0.1-0.7-0.2c-2.2-0.7-4.4-1.4-6.8-2.2c-0.5-0.1-0.9-0.3-1.4-0.4l-0.8-0.2c-1.5-0.5-3.1-0.9-4.6-1.4
						c-0.6-0.2-1.2-0.4-1.9-0.5l-0.7-0.2c-1.4-0.4-2.8-0.8-4.1-1.2c-0.9-0.3-1.8-0.5-2.7-0.8c-1.3-0.4-2.6-0.7-3.9-1.1
						c-0.9-0.2-1.8-0.5-2.7-0.7c-1.3-0.4-2.6-0.7-3.9-1.1l-0.7-0.2c-0.6-0.2-1.2-0.3-1.8-0.5c-1.4-0.4-2.8-0.7-4.2-1.1l-0.7-0.2
						c-0.5-0.1-0.9-0.2-1.4-0.4c-2-0.5-4-1-6-1.5l-0.2,0l-0.1,0c-2-0.5-4-0.9-5.9-1.4c-0.4-0.1-0.9-0.2-1.3-0.3l-0.7-0.2
						c-1.3-0.3-2.6-0.6-3.9-0.9c-0.6-0.1-1.2-0.3-1.9-0.4l-0.4-0.1c-1.2-0.3-2.4-0.5-3.5-0.8c-0.8-0.2-1.5-0.3-2.3-0.5
						c-1.1-0.2-2.3-0.5-3.4-0.7c-0.8-0.1-1.5-0.3-2.2-0.4c-1.1-0.2-2.3-0.4-3.4-0.6l-0.5-0.1c-0.3-0.1-0.6-0.1-0.9-0.2l-0.5-0.1
						l-0.3-0.1l-1-0.2l-0.5-0.1c-1.1-0.2-2.1-0.4-3.1-0.6l-0.2,0l-1.2-0.2c-1.1-0.2-2.3-0.4-3.4-0.6l-0.3-0.1l-0.6-0.1
						c-1.3-0.2-2.5-0.4-3.7-0.6l-0.2,0l-0.1,0L3300,4l-0.3,0c-1.1-0.2-2.2-0.3-3.3-0.5l-0.2,0l-0.5-0.1c-1.3-0.2-2.5-0.4-3.7-0.5
						l-0.9-0.1c-1.1-0.2-2.3-0.3-3.4-0.5l-0.1,0l-0.1,0c-1.2-0.2-2.3-0.3-3.5-0.4l-0.3,0l-0.5-0.1c-1.1-0.1-2.2-0.3-3.2-0.4l-0.2,0
						l-0.1,0c-1-0.1-1.9-0.2-2.9-0.3l-0.2,0l-0.5,0c-1-0.1-1.9-0.2-2.9-0.3l-0.3,0l-0.3,0c-0.9-0.1-1.7-0.1-2.5-0.2l-0.1,0l-0.4,0
						c-0.9-0.1-1.7-0.1-2.6-0.2l-0.7,0c-0.8,0-1.6-0.1-2.3-0.1l-0.2,0c-0.2,0-0.5,0-0.7,0c0,0,0,0-0.1,0l-0.4,0
						C3262.5,0,3262.1,0,3261.7,0L3261.7,0L3261.7,0z M3338.2,173c0.8-6.2,1.5-12.5,2.2-18.8c0.5-4.4,1-8.7,1.4-12.9
						c0,0,0-0.1,0-0.1c1.6-15,2.9-27.9,3.8-37.7c37.1,13.1,78.1,32.8,117.3,56.5c41.2,24.9,78.6,52.6,109,81c-2.7,0-5.5-0.1-8.4-0.1
						c-2.3,0-4.6,0-7,0c-24.5,0.2-53.6,1.9-84.1,4.7c-54.8,5.1-108.1,13.4-148.4,23c3.6-19.9,7.1-41.9,10.3-65.7
						c0-0.2,0.1-0.4,0.1-0.7c0-0.2,0.1-0.4,0.1-0.6c0-0.1,0-0.1,0-0.2c0-0.2,0.1-0.4,0.1-0.6c0.1-0.5,0.2-1,0.2-1.5
						c0-0.1,0-0.2,0-0.4c0-0.2,0.1-0.5,0.1-0.7c0-0.3,0.1-0.6,0.1-0.9c0-0.3,0.1-0.6,0.1-0.8c0-0.1,0-0.3,0.1-0.4
						c0.1-0.3,0.1-0.7,0.1-1c0-0.1,0-0.2,0-0.3c0.1-0.4,0.1-0.8,0.1-1.1c0-0.3,0.1-0.6,0.1-0.9c0-0.2,0.1-0.5,0.1-0.7
						c0-0.1,0-0.2,0-0.2c0-0.1,0-0.3,0.1-0.4c0.1-0.3,0.1-0.7,0.1-1c0-0.2,0.1-0.4,0.1-0.6c0-0.1,0-0.2,0-0.2
						c0.1-0.4,0.1-0.8,0.2-1.2c0-0.1,0-0.2,0-0.2c0-0.2,0.1-0.4,0.1-0.6c0-0.1,0-0.2,0-0.2c0-0.2,0.1-0.4,0.1-0.6
						c0-0.2,0-0.4,0.1-0.6c0-0.1,0-0.2,0-0.4c0-0.1,0-0.1,0-0.2c0-0.2,0.1-0.4,0.1-0.7c0-0.1,0-0.1,0-0.2l0.2-1.4
						c0.1-0.3,0.1-0.6,0.2-1c0-0.3,0.1-0.6,0.1-1c0,0,0,0,0,0c0-0.2,0-0.3,0.1-0.5c0,0,0-0.1,0-0.1c0.1-0.4,0.1-0.9,0.2-1.3
						c0-0.2,0-0.3,0.1-0.5c0-0.1,0-0.3,0-0.4c0-0.1,0-0.2,0-0.3c0-0.2,0.1-0.4,0.1-0.6c0-0.2,0-0.4,0.1-0.6c0-0.1,0-0.3,0-0.4
						c0-0.2,0-0.3,0.1-0.5c0-0.1,0-0.2,0-0.3c0-0.2,0.1-0.4,0.1-0.6c0-0.2,0-0.4,0.1-0.6c0-0.3,0.1-0.6,0.1-0.9c0-0.1,0-0.2,0-0.3
						C3338.2,173.4,3338.2,173.2,3338.2,173L3338.2,173z"/>
				</g>
				<g>
					<path class="st1" d="M3448.4,1162.4c-0.6,0-1.2,0-1.8,0l-0.6,0c-0.8,0-1.6,0-2.4-0.1c-0.8,0-1.6-0.1-2.5-0.1
						c-1,0-1.9-0.1-2.9-0.1c-1.1-0.1-2.2-0.1-3.4-0.2c-0.9-0.1-1.7-0.1-2.6-0.2c-0.8-0.1-1.5-0.1-2.3-0.2c-0.9-0.1-1.9-0.2-2.8-0.3
						c-1-0.1-2-0.2-3-0.4c-1-0.1-2.1-0.3-3.1-0.4c-0.7-0.1-1.4-0.2-2.2-0.3c-0.9-0.2-1.9-0.3-2.8-0.5l-0.5-0.1
						c-0.5-0.1-0.9-0.2-1.4-0.3c-1.4-0.3-2.8-0.6-4.2-0.9c-0.5-0.1-1.1-0.2-1.6-0.4l-0.3-0.1c-1-0.2-2-0.5-2.9-0.7l-0.3-0.1
						c-0.5-0.1-1-0.3-1.5-0.4c-1.4-0.4-2.9-0.8-4.3-1.2c-0.4-0.1-0.8-0.2-1.2-0.4l-0.4-0.1c-1-0.3-2.1-0.6-3.1-1l-0.2-0.1
						c-0.5-0.2-1-0.3-1.5-0.5c-1.5-0.5-2.9-1-4.4-1.5c-0.3-0.1-0.5-0.2-0.8-0.3l-0.4-0.2c-1.2-0.4-2.3-0.9-3.5-1.4
						c-0.5-0.2-1.1-0.4-1.6-0.6c-1.3-0.6-2.6-1.1-4-1.7l-0.8-0.4c-1.3-0.6-2.7-1.2-4.2-2c-0.4-0.2-0.9-0.4-1.3-0.7
						c-1.3-0.6-2.5-1.3-3.7-1.9c0,0-0.7-0.4-0.9-0.5c-1.4-0.8-2.8-1.6-4.4-2.5l-1.2-0.7c-1.2-0.7-2.3-1.4-3.5-2.1l-1-0.7
						c-1.4-0.9-2.9-1.9-4.3-2.8l-1-0.7c-1.2-0.8-2.3-1.7-3.5-2.5c0,0-0.8-0.6-1.1-0.8c-1.5-1.1-2.9-2.2-4.2-3.3l-0.6-0.5
						c-1.2-1-2.4-2-3.7-3c-0.4-0.3-0.7-0.6-1.1-0.9c-1.6-1.4-2.9-2.5-4.1-3.7c-0.1-0.1-0.1-0.1-0.2-0.2
						c-33.7-33.5-56.7-75.9-68.2-126c-0.1-0.2-0.1-0.4-0.2-0.6c-2.8-12.2-4.9-25.1-6.4-38.4l-0.2-1.6c-0.1-1.2-0.2-2.3-0.3-3.5
						c-3.8-40-1.4-83.5,7.2-129.4c0.4-2.4,0.9-4.7,1.4-7.1c0,0,0-0.1,0-0.1c15.4-76.9,42-132,52.7-152.1l0.5-1
						c0.3-0.6,0.6-1.1,0.9-1.7c0.4-0.8,0.9-1.6,1.3-2.4l0.6-1l0.8-1.5c0.4-0.8,0.9-1.5,1.3-2.2c0.6-1.3,1.3-2.5,1.9-3.7l1.4-2.7
						c0.4-0.7,0.8-1.5,1.1-2.2c0.6-1.1,1.2-2.2,1.8-3.3l1.5-2.8c0.5-0.9,0.9-1.7,1.4-2.6c0.5-1,1.1-2,1.6-2.9l1.5-2.7
						c0.5-0.9,1-1.9,1.6-2.8c0.6-1,1.1-1.9,1.7-2.9l1.5-2.6c0.5-1,1.1-1.9,1.7-2.8c0.6-0.9,1.1-1.9,1.7-2.8l1.5-2.4
						c0.6-1,1.1-1.9,1.7-2.9c0.6-0.9,1.1-1.8,1.7-2.7l1.5-2.4c0.6-0.9,1.2-1.9,1.7-2.8c0.6-0.9,1.1-1.8,1.7-2.6l1.5-2.3
						c0.6-0.9,1.2-1.9,1.8-2.8c0.6-0.9,1.2-1.8,1.8-2.7l1.4-2.1c0.6-0.9,1.2-1.8,1.8-2.7c0.6-0.9,1.2-1.7,1.8-2.5l1.6-2.3
						c0.6-0.9,1.2-1.7,1.8-2.6c0.6-0.8,1.2-1.7,1.8-2.5l1.6-2.2c0.6-0.9,1.2-1.7,1.8-2.6c0.6-0.8,1.2-1.7,1.8-2.5l1.5-2
						c0.6-0.8,1.2-1.7,1.9-2.5c0.6-0.8,1.2-1.6,1.9-2.4l1.5-2c0.6-0.8,1.3-1.7,1.9-2.5c0.6-0.8,1.3-1.6,1.9-2.4l1.4-1.8
						c0.7-0.8,1.3-1.7,2-2.5c0.6-0.8,1.2-1.5,1.9-2.3l1.5-1.8c0.7-0.8,1.3-1.6,2-2.4c0.7-0.8,1.3-1.6,2-2.3l1.4-1.7
						c0.7-0.8,1.3-1.6,2-2.3c0.7-0.8,1.3-1.5,2-2.2l1.5-1.7c0.7-0.8,1.4-1.5,2-2.3c0.7-0.7,1.3-1.5,2-2.2l1.3-1.4
						c0.7-0.8,1.5-1.6,2.2-2.4c0.6-0.7,1.3-1.4,1.9-2.1l1.5-1.6c0.7-0.7,1.4-1.5,2.1-2.2c0.7-0.7,1.4-1.4,2-2.1l1.4-1.4
						c0.7-0.7,1.4-1.5,2.2-2.2c0.7-0.7,1.4-1.4,2.1-2l1.3-1.3c0.7-0.7,1.5-1.5,2.2-2.2c0.7-0.7,1.4-1.3,2.1-2l1.3-1.2
						c0.8-0.7,1.5-1.4,2.3-2.1c0.7-0.6,1.4-1.3,2.1-1.9l1.2-1.1c0.8-0.7,1.6-1.4,2.3-2.1c0.7-0.6,1.4-1.3,2.1-1.9l1.2-1
						c0.8-0.7,1.6-1.4,2.3-2c0.7-0.6,1.4-1.2,2.1-1.8l1.2-1c0.8-0.7,1.6-1.4,2.4-2c0.7-0.6,1.5-1.2,2.2-1.8l1.1-0.9
						c0.8-0.7,1.6-1.3,2.4-2c0.7-0.6,1.4-1.1,2.1-1.7l1.2-0.9c0.8-0.6,1.6-1.3,2.4-1.9c0.7-0.6,1.5-1.1,2.2-1.7l1.1-0.8
						c0.8-0.6,1.6-1.2,2.5-1.8c0.7-0.5,1.5-1.1,2.2-1.6l1.1-0.8c0.8-0.6,1.7-1.2,2.5-1.8c0.7-0.5,1.5-1,2.2-1.6l0.9-0.6
						c0.9-0.6,1.7-1.2,2.6-1.8c0.7-0.5,1.5-1,2.2-1.5l1-0.7c0.9-0.6,1.7-1.1,2.6-1.7c0.8-0.5,1.5-1,2.3-1.4l1-0.6
						c0.8-0.5,1.7-1.1,2.5-1.6c0.8-0.5,1.6-1,2.3-1.4l1-0.6c0.8-0.5,1.7-1,2.5-1.5c0.8-0.4,1.5-0.9,2.3-1.3l1.1-0.6
						c0.8-0.5,1.6-0.9,2.5-1.4c0.8-0.4,1.6-0.9,2.4-1.3l0.8-0.4c0.9-0.5,1.8-1,2.7-1.4c0.8-0.4,1.6-0.8,2.4-1.2l0.8-0.4
						c0.9-0.5,1.8-0.9,2.7-1.4c0.8-0.4,1.6-0.8,2.4-1.2l0.7-0.3c0.9-0.4,1.8-0.9,2.7-1.3c0.8-0.4,1.7-0.8,2.5-1.2l0.7-0.3
						c0.9-0.4,1.8-0.8,2.7-1.2c0.9-0.4,1.7-0.8,2.6-1.1l0.3-0.1c1-0.4,1.9-0.8,2.9-1.2c0.8-0.3,1.6-0.6,2.4-1l0.5-0.2
						c1-0.4,2-0.8,3-1.2c0.9-0.4,1.9-0.7,2.8-1.1c1-0.4,2-0.7,3-1.1c0.9-0.3,1.9-0.7,2.8-1c1-0.3,2-0.7,3-1c0.9-0.3,1.9-0.6,2.8-0.9
						c1-0.3,2-0.6,2.9-0.9c0.9-0.3,1.9-0.6,2.8-0.8c1-0.3,2-0.6,2.9-0.9c0.9-0.3,1.9-0.5,2.8-0.8c1-0.3,2-0.5,2.9-0.8
						c0.9-0.2,1.9-0.5,2.8-0.7c1-0.2,1.9-0.5,2.9-0.7c0.9-0.2,1.8-0.4,2.8-0.6c1-0.2,1.9-0.4,2.9-0.6c0.9-0.2,1.8-0.4,2.7-0.5
						c1-0.2,1.9-0.4,2.9-0.5c0.9-0.2,1.8-0.3,2.7-0.4c1-0.2,1.9-0.3,2.9-0.4c0.9-0.1,1.8-0.3,2.7-0.4c1-0.1,1.9-0.2,2.9-0.4
						c0.9-0.1,1.8-0.2,2.7-0.3c1-0.1,1.9-0.2,2.8-0.3c0.9-0.1,1.8-0.1,2.7-0.2c0.9-0.1,1.9-0.1,2.8-0.2c0.9-0.1,1.8-0.1,2.7-0.1
						c0.9,0,1.9-0.1,2.8-0.1c0.9,0,1.8,0,2.7-0.1c0.9,0,1.8,0,2.8,0h0.2c0.8,0,1.6,0,2.5,0c0.9,0,1.8,0,2.7,0.1
						c0.9,0,1.7,0.1,2.6,0.1c0.9,0,1.8,0.1,2.7,0.1c0.9,0.1,1.7,0.1,2.6,0.2c0.9,0.1,1.8,0.1,2.7,0.2c0.9,0.1,1.7,0.2,2.6,0.2
						c0.9,0.1,1.8,0.2,2.7,0.3c0.8,0.1,1.7,0.2,2.5,0.3c0.9,0.1,1.8,0.2,2.6,0.4c0.8,0.1,1.7,0.3,2.5,0.4c0.9,0.1,1.7,0.3,2.6,0.5
						c0.8,0.2,1.7,0.3,2.5,0.5c0.9,0.2,1.7,0.4,2.6,0.5c0.8,0.2,1.6,0.4,2.5,0.6c0.9,0.2,1.7,0.4,2.6,0.6c0.8,0.2,1.6,0.4,2.4,0.6
						c0.8,0.2,1.7,0.5,2.5,0.7c0.8,0.2,1.6,0.5,2.4,0.7c0.8,0.3,1.7,0.5,2.5,0.8c0.8,0.3,1.6,0.5,2.4,0.8l0.4,0.1
						c0.3,0.1,0.5,0.2,0.8,0.3c1.5,0.5,3,1,4.5,1.4c0,0,0.1,0,0.1,0c1.1,0.3,2.3,0.6,3.4,1l0.9,0.3c0.9,0.3,1.9,0.6,2.8,0.9l1,0.3
						c2.5,0.8,5,1.8,7.5,2.7l0.8,0.3c1.1,0.4,2.2,0.9,3.3,1.4l0.6,0.3c2.6,1.1,5.4,2.4,8.1,3.7l0.5,0.2c1.3,0.6,2.6,1.3,4,2
						c2.9,1.5,5.8,3.1,8.7,4.8c0,0,0.2,0.1,0.2,0.1c9.1,5.4,17.8,11.7,26.1,18.7c0.7,0.5,1.4,1.1,2,1.6l0.2,0.2
						c0.7,0.6,1.4,1.2,2,1.7c0,0,0.2,0.1,0.2,0.1c1.3,1.1,2.4,2.3,3.4,3.3c22.7,21.5,41,48.6,54.3,80.7
						c15.6,37.7,24.3,82.2,25.9,132.2c0,0.1,0,0.1,0,0.2c1.9,192.5-93.5,317-173.9,387.5c-11.2,10.3-23.6,20.2-36.9,29.4
						c-1.3,0.9-2.7,1.8-4,2.8l-1.6,1.1c-2.2,1.5-4.5,3-6.6,4.4c0,0,0,0,0,0c-0.8,0.5-1.5,1-2.2,1.4c0,0-0.1,0-0.1,0.1
						c-1,0.6-2,1.3-3,1.9c0,0-0.9,0.6-0.9,0.6c-1.4,0.9-2.8,1.7-4.2,2.6l-0.2,0.1c-4.2,2.5-8.5,5-12.7,7.3c0,0-0.1,0-0.1,0
						c-4.3,2.3-8.6,4.6-12.9,6.7l-0.3,0.1c-4.3,2.1-8.6,4.2-13,6.1l-0.4,0.2c-4.3,1.9-8.7,3.8-13.1,5.5l-0.7,0.3
						c-1.3,0.5-2.7,1-4.1,1.6l-0.3,0.1c-1.5,0.6-3,1.1-4.5,1.6c0,0-0.1,0-0.1,0c-1.4,0.5-2.8,1-4.1,1.4l-0.8,0.3
						c-1.3,0.4-2.5,0.9-3.8,1.3l-0.6,0.2c-1.5,0.5-3,0.9-4.5,1.4l-0.2,0.1c-1.4,0.4-2.8,0.8-4.1,1.2l-1,0.3c-1.2,0.3-2.4,0.7-3.6,1
						l-0.8,0.2c-1.5,0.4-2.9,0.8-4.4,1.1l-0.4,0.1c-1.3,0.3-2.6,0.6-3.9,0.9l-1.2,0.3c-1.1,0.3-2.3,0.5-3.4,0.8l-1,0.2
						c-1.5,0.3-2.9,0.6-4.4,0.9l-0.4,0.1c-1.3,0.3-2.6,0.5-3.9,0.7l-1.3,0.2c-1.1,0.2-2.2,0.4-3.3,0.5l-1.2,0.2
						c-1.4,0.2-2.9,0.4-4.3,0.6l-0.4,0.1c-1.3,0.2-2.6,0.3-3.9,0.5l-1.3,0.1c-1.1,0.1-2.1,0.2-3.2,0.3l-1.3,0.1
						c-1.4,0.1-2.9,0.2-4.3,0.3c0,0-0.3,0-0.3,0c-1.3,0.1-2.7,0.2-4,0.2l-1.3,0.1c-1,0-2.1,0.1-3.1,0.1l-1.3,0c-1.4,0-2.8,0-4.2,0
						c0,0-0.1,0-0.1,0C3449.6,1162.4,3448.4,1162.4,3448.4,1162.4z M3473,1048.6c0.3,0.2,0.6,0.4,0.8,0.6c6.1,5.1,15.7,8,27.6,8.1
						c0.4,0,0.8,0,1.2,0c1.1,0,2.2,0,3.3-0.1c0,0,0.1,0,0.1,0c0.6,0,1.1-0.1,1.6-0.1l0.1,0c0.6,0,1.3-0.1,2-0.1l0.4,0
						c28.1-2.5,62.4-17.4,94.1-41c38.6-28.7,73.1-69.5,99.7-118c25.1-45.5,40-95.7,43.3-145.2c2.8-43.1-3.4-84.3-17.5-115.9
						c-12.4-27.8-29.7-45.5-48.5-49.8c-2.1-0.4-4.5-0.7-7.1-0.7c-21.4,0-51.9,14.6-81.6,39c-25.4,20.9-62.1,58.7-93.2,120.3
						c-31.5,62.3-50.7,123.9-55.6,178.2C3439,978.3,3449,1021.4,3473,1048.6z"/>
					<path d="M3616,425.9c0.7,0,1.5,0,2.2,0c0.9,0,1.8,0,2.6,0.1c0.8,0,1.7,0.1,2.5,0.1c0.9,0,1.7,0.1,2.6,0.1
						c0.8,0,1.6,0.1,2.5,0.2c0.9,0.1,1.7,0.1,2.6,0.2c0.8,0.1,1.6,0.2,2.4,0.2c0.9,0.1,1.7,0.2,2.5,0.3c0.8,0.1,1.6,0.2,2.4,0.3
						c0.8,0.1,1.7,0.2,2.5,0.4c0.8,0.1,1.6,0.2,2.4,0.4c0.8,0.1,1.7,0.3,2.5,0.4c0.8,0.1,1.6,0.3,2.4,0.5c0.8,0.2,1.6,0.3,2.5,0.5
						c0.8,0.2,1.6,0.3,2.3,0.5c0.8,0.2,1.6,0.4,2.4,0.6c0.8,0.2,1.5,0.4,2.3,0.6c0.8,0.2,1.6,0.4,2.4,0.7c0.8,0.2,1.5,0.4,2.3,0.7
						c0.8,0.2,1.6,0.5,2.4,0.7c0.7,0.2,1.5,0.5,2.2,0.7c0.4,0.1,0.7,0.2,1.1,0.4c1.7,0.6,3.3,1.1,5,1.6c0,0,0.1,0,0.1,0
						c1.1,0.3,2.2,0.6,3.3,1c0.3,0.1,0.6,0.2,0.9,0.3c0.9,0.3,1.7,0.5,2.6,0.8c0.3,0.1,0.6,0.2,0.9,0.3c2.3,0.8,4.7,1.7,7.1,2.6
						c0.2,0.1,0.5,0.2,0.7,0.3c1.1,0.4,2.1,0.9,3.2,1.3c0.2,0.1,0.4,0.2,0.6,0.2c2.6,1.1,5.1,2.3,7.7,3.5c0.1,0.1,0.3,0.1,0.4,0.2
						c1.3,0.6,2.6,1.3,3.8,1.9c0,0,0,0,0.1,0c2.7,1.4,5.5,3,8.2,4.6c0,0,0.1,0.1,0.1,0.1c8.3,5,16.8,10.9,25.1,18c0,0,0,0,0,0
						c0,0,0,0,0,0c0.7,0.5,1.3,1,1.9,1.5c0.1,0.1,0.2,0.1,0.2,0.2c0.6,0.5,1.2,1,1.7,1.5c0,0,0.1,0.1,0.1,0.1c1.2,1.1,2.2,2.1,3.1,3
						c39.7,37.4,74.6,101.7,77.9,207.6c1.9,191.8-94.4,314.2-171.2,381.5c-10.8,9.9-23,19.7-36.1,28.8c-1.3,0.9-2.6,1.8-3.9,2.7
						c-0.5,0.4-1.1,0.7-1.6,1.1c-2.2,1.4-4.3,2.9-6.5,4.3c0,0,0,0,0,0c-0.7,0.5-1.5,0.9-2.2,1.4c0,0,0,0,0,0c-1,0.6-2,1.2-3,1.9
						c0,0,0,0-0.1,0c0,0,0,0,0,0c-0.2,0.1-0.5,0.3-0.7,0.4c0,0,0,0,0,0c0,0,0,0,0,0c-1.4,0.9-2.8,1.7-4.2,2.5c0,0,0,0,0,0
						c-0.1,0-0.1,0.1-0.2,0.1c-4.1,2.4-8.3,4.8-12.5,7.1c0,0-0.1,0-0.1,0c-4.1,2.3-8.3,4.4-12.6,6.5c-0.1,0-0.2,0.1-0.2,0.1
						c-4.2,2.1-8.4,4.1-12.7,6c-0.1,0.1-0.3,0.1-0.4,0.2c-4.2,1.9-8.5,3.7-12.8,5.3c-0.2,0.1-0.4,0.2-0.6,0.2c-1.3,0.5-2.7,1-4,1.5
						c-0.1,0-0.2,0.1-0.3,0.1c-1.5,0.5-2.9,1.1-4.4,1.6c0,0-0.1,0-0.1,0c-1.3,0.5-2.7,0.9-4,1.4c-0.3,0.1-0.6,0.2-0.8,0.3
						c-1.2,0.4-2.5,0.8-3.7,1.2c-0.2,0.1-0.4,0.1-0.5,0.2c-1.4,0.5-2.9,0.9-4.4,1.4c-0.1,0-0.2,0.1-0.3,0.1
						c-1.3,0.4-2.6,0.8-3.9,1.2c-0.3,0.1-0.7,0.2-1,0.3c-1.2,0.3-2.3,0.7-3.5,1c-0.3,0.1-0.5,0.1-0.8,0.2c-1.4,0.4-2.9,0.8-4.3,1.1
						c-0.1,0-0.2,0.1-0.4,0.1c-1.3,0.3-2.5,0.6-3.8,0.9c-0.4,0.1-0.8,0.2-1.1,0.3c-1.1,0.2-2.2,0.5-3.3,0.7c-0.3,0.1-0.7,0.1-1,0.2
						c-1.4,0.3-2.8,0.6-4.2,0.9c-0.1,0-0.3,0.1-0.4,0.1c-1.3,0.2-2.5,0.5-3.8,0.7c-0.4,0.1-0.8,0.1-1.2,0.2c-1,0.2-2.1,0.3-3.1,0.5
						c-0.4,0.1-0.8,0.1-1.2,0.2c-1.4,0.2-2.8,0.4-4.2,0.6c-0.1,0-0.3,0-0.4,0.1c-1.3,0.2-2.5,0.3-3.8,0.5c-0.4,0-0.9,0.1-1.3,0.1
						c-1,0.1-2,0.2-3.1,0.3c-0.4,0-0.8,0.1-1.3,0.1c-1.4,0.1-2.8,0.2-4.1,0.3c-0.1,0-0.2,0-0.3,0c-1.3,0.1-2.6,0.2-3.8,0.2
						c-0.4,0-0.9,0-1.3,0.1c-1,0-2,0.1-3,0.1c-0.4,0-0.9,0-1.3,0c-1.4,0-2.7,0-4,0c0,0-0.1,0-0.1,0c-0.4,0-0.8,0-1.1,0c0,0,0,0,0,0
						c0,0,0,0,0,0c0,0,0,0,0,0c-0.8,0-1.5,0-2.3,0c-0.8,0-1.5,0-2.3-0.1c-0.8,0-1.6,0-2.3-0.1c-0.9,0-1.8-0.1-2.8-0.1
						c-1.1-0.1-2.1-0.1-3.2-0.2c-0.8-0.1-1.7-0.1-2.5-0.2c-0.7-0.1-1.5-0.1-2.2-0.2c-0.9-0.1-1.8-0.2-2.7-0.3
						c-1-0.1-1.9-0.2-2.9-0.4c-1-0.1-2-0.3-3-0.4c-0.7-0.1-1.4-0.2-2.1-0.3c-0.9-0.1-1.8-0.3-2.7-0.5c-0.6-0.1-1.2-0.2-1.8-0.3
						c-1.4-0.3-2.7-0.5-4-0.8c-0.6-0.1-1.2-0.3-1.8-0.4c-0.9-0.2-1.9-0.4-2.8-0.7c-0.6-0.1-1.2-0.3-1.7-0.4
						c-1.4-0.4-2.7-0.7-4.1-1.1c-0.5-0.2-1-0.3-1.5-0.5c-1-0.3-2-0.6-3-0.9c-0.5-0.2-1.1-0.3-1.6-0.5c-1.4-0.5-2.8-0.9-4.2-1.5
						c-0.4-0.1-0.7-0.3-1.1-0.4c-1.1-0.4-2.2-0.9-3.3-1.3c-0.5-0.2-1-0.4-1.5-0.6c-1.3-0.5-2.5-1.1-3.8-1.6
						c-0.3-0.1-0.5-0.2-0.8-0.3c-1.3-0.6-2.7-1.3-4-1.9c-0.4-0.2-0.9-0.4-1.3-0.7c-1.2-0.6-2.3-1.2-3.4-1.8
						c-0.3-0.2-0.6-0.3-0.9-0.5c-1.4-0.8-2.8-1.5-4.1-2.3c-0.4-0.2-0.8-0.5-1.1-0.7c-1.1-0.7-2.2-1.3-3.3-2c-0.3-0.2-0.7-0.4-1-0.6
						c-1.4-0.9-2.7-1.8-4.1-2.7c-0.3-0.2-0.6-0.4-0.9-0.6c-1.1-0.8-2.2-1.6-3.3-2.4c-0.3-0.3-0.7-0.5-1-0.8c-1.4-1-2.7-2-4-3.1
						c-0.2-0.1-0.4-0.3-0.6-0.5c-1.2-0.9-2.3-1.9-3.5-2.9c-0.3-0.3-0.7-0.6-1-0.9c-1.3-1.1-2.6-2.3-3.9-3.5
						c-35.3-35.1-56-77.7-66.3-123c0,0.1,0,0.1,0,0.2c-2.8-12.3-4.8-24.8-6.2-37.4c0-0.4-0.1-0.9-0.1-1.3c-0.1-1.2-0.3-2.4-0.4-3.6
						c-4-42.6-0.5-86.3,7.1-127.2c0.4-2.4,0.9-4.7,1.4-7c0,0,0,0,0-0.1c12.2-60.7,33.3-114.9,51.9-149.9c0.2-0.3,0.4-0.7,0.5-1
						c0.3-0.6,0.6-1.1,0.9-1.6c0.4-0.8,0.9-1.6,1.3-2.4c0.2-0.3,0.4-0.7,0.6-1c0.3-0.5,0.5-1,0.8-1.4c0.5-0.8,0.9-1.6,1.4-2.4
						c0.9-1.7,1.8-3.5,2.7-5.2c0.6-1.2,1.2-2.3,1.8-3.5c0.8-1.5,1.6-3.1,2.5-4.6c0.7-1.3,1.4-2.6,2.1-3.9c0.8-1.4,1.6-2.9,2.4-4.3
						c0.8-1.4,1.5-2.7,2.3-4.1c0.8-1.4,1.6-2.7,2.4-4.1c0.8-1.4,1.6-2.7,2.4-4.1c0.8-1.4,1.6-2.7,2.4-4c0.8-1.3,1.6-2.7,2.4-4
						c0.8-1.3,1.6-2.6,2.4-3.9c0.8-1.3,1.6-2.6,2.4-3.9c0.8-1.3,1.6-2.5,2.4-3.8c0.8-1.3,1.6-2.6,2.5-3.8c0.8-1.3,1.6-2.5,2.5-3.7
						c0.8-1.3,1.7-2.5,2.5-3.8c0.8-1.2,1.7-2.4,2.5-3.6c0.8-1.2,1.7-2.5,2.5-3.7c0.8-1.2,1.7-2.4,2.5-3.5c0.9-1.2,1.7-2.4,2.6-3.6
						c0.8-1.2,1.7-2.3,2.5-3.5c0.9-1.2,1.7-2.3,2.6-3.5c0.9-1.1,1.7-2.2,2.6-3.4c0.9-1.1,1.7-2.3,2.6-3.4c0.9-1.1,1.7-2.2,2.6-3.3
						c0.9-1.1,1.8-2.2,2.6-3.3c0.9-1.1,1.7-2.1,2.6-3.2c0.9-1.1,1.8-2.2,2.7-3.2c0.9-1,1.7-2.1,2.6-3.1c0.9-1.1,1.8-2.1,2.7-3.2
						c0.9-1,1.8-2,2.6-3c0.9-1,1.8-2.1,2.7-3.1c0.9-1,1.8-1.9,2.7-2.9c0.9-1,1.8-2,2.7-3c0.9-1,1.8-1.9,2.7-2.8c0.9-1,1.8-2,2.8-2.9
						c0.9-0.9,1.8-1.8,2.7-2.7c0.9-0.9,1.8-1.9,2.8-2.8c0.9-0.9,1.8-1.8,2.7-2.7c0.9-0.9,1.9-1.8,2.8-2.7c0.9-0.9,1.8-1.7,2.7-2.6
						c0.9-0.9,1.9-1.8,2.8-2.7c0.9-0.8,1.8-1.7,2.7-2.5c0.9-0.9,1.9-1.7,2.8-2.6c0.9-0.8,1.8-1.6,2.7-2.4c0.9-0.8,1.9-1.7,2.8-2.5
						c0.9-0.8,1.8-1.5,2.7-2.3c1-0.8,1.9-1.6,2.9-2.4c0.9-0.8,1.8-1.5,2.7-2.2c1-0.8,1.9-1.6,2.9-2.3c0.9-0.7,1.8-1.4,2.7-2.2
						c1-0.7,1.9-1.5,2.9-2.2c0.9-0.7,1.8-1.4,2.7-2.1c1-0.7,1.9-1.4,2.9-2.2c0.9-0.7,1.8-1.3,2.8-2c1-0.7,1.9-1.4,2.9-2.1
						c0.9-0.6,1.8-1.3,2.8-1.9c1-0.7,1.9-1.3,2.9-2c0.9-0.6,1.8-1.2,2.8-1.8c1-0.6,1.9-1.3,2.9-1.9c0.9-0.6,1.8-1.2,2.8-1.7
						c1-0.6,1.9-1.2,2.9-1.8c0.9-0.6,1.8-1.1,2.8-1.7c1-0.6,1.9-1.2,2.9-1.7c0.9-0.5,1.8-1.1,2.8-1.6c1-0.6,1.9-1.1,2.9-1.6
						c0.9-0.5,1.8-1,2.8-1.5c1-0.5,1.9-1.1,2.9-1.6c0.9-0.5,1.8-1,2.8-1.4c1-0.5,1.9-1,2.9-1.5c0.9-0.5,1.8-0.9,2.8-1.4
						c1-0.5,1.9-0.9,2.9-1.4c0.9-0.4,1.8-0.9,2.7-1.3c1-0.4,1.9-0.9,2.9-1.3c0.9-0.4,1.8-0.8,2.7-1.2c1-0.4,1.9-0.8,2.9-1.2
						c0.9-0.4,1.8-0.7,2.7-1.1c1-0.4,1.9-0.8,2.9-1.2c0.9-0.4,1.8-0.7,2.7-1c1-0.4,1.9-0.7,2.9-1.1c0.9-0.3,1.8-0.6,2.7-1
						c1-0.3,1.9-0.7,2.9-1c0.9-0.3,1.8-0.6,2.7-0.9c1-0.3,1.9-0.6,2.9-0.9c0.9-0.3,1.8-0.5,2.7-0.8c0.9-0.3,1.9-0.6,2.8-0.8
						c0.9-0.3,1.8-0.5,2.7-0.7c0.9-0.3,1.9-0.5,2.8-0.7c0.9-0.2,1.8-0.4,2.7-0.7c0.9-0.2,1.9-0.5,2.8-0.7c0.9-0.2,1.8-0.4,2.7-0.6
						c0.9-0.2,1.9-0.4,2.8-0.6c0.9-0.2,1.8-0.3,2.7-0.5c0.9-0.2,1.9-0.3,2.8-0.5c0.9-0.2,1.8-0.3,2.6-0.4c0.9-0.1,1.8-0.3,2.8-0.4
						c0.9-0.1,1.7-0.2,2.6-0.4c0.9-0.1,1.8-0.2,2.7-0.3c0.9-0.1,1.7-0.2,2.6-0.3c0.9-0.1,1.8-0.2,2.7-0.3c0.9-0.1,1.7-0.1,2.6-0.2
						c0.9-0.1,1.8-0.1,2.7-0.2c0.9-0.1,1.7-0.1,2.6-0.1c0.9,0,1.8-0.1,2.7-0.1c0.8,0,1.7,0,2.5-0.1c0.9,0,1.8,0,2.7,0
						C3615.8,425.9,3615.9,425.9,3616,425.9 M3470.1,1056.6c-0.9-0.9-1.4-1.4-1.4-1.4c7.6,6.3,18.8,9.8,32.5,10c0.5,0,0.9,0,1.4,0
						c1.2,0,2.4,0,3.7-0.1c0.1,0,0.1,0,0.2,0c0.6,0,1.2-0.1,1.8-0.1c0.7,0,1.5-0.1,2.2-0.2c0.1,0,0.3,0,0.4,0
						c54.8-4.8,140.3-54.2,200.1-163c81.8-148.4,39.5-306.9-28-322.4c-2.7-0.6-5.6-0.8-8.8-0.8c-43.7,0-126.8,54.3-181.8,163.6
						c-63.4,125.5-78.9,253-24,313C3468.9,1055.7,3469.5,1056.2,3470.1,1056.6 M3616,410l-0.3,0c-0.9,0-1.9,0-2.9,0
						c-0.9,0-1.8,0-2.8,0.1c-1,0-1.9,0.1-2.9,0.1c-0.9,0-1.9,0.1-2.8,0.1c-1,0.1-2,0.1-2.9,0.2c-0.9,0.1-1.9,0.1-2.8,0.2
						c-1,0.1-2,0.2-3,0.3c-0.9,0.1-1.9,0.2-2.8,0.3c-1,0.1-2,0.2-3,0.4c-0.9,0.1-1.9,0.2-2.8,0.4c-1,0.1-2,0.3-3,0.5
						c-0.9,0.1-1.9,0.3-2.8,0.5c-1,0.2-2,0.4-3,0.5c-0.9,0.2-1.9,0.4-2.8,0.5c-1,0.2-2,0.4-3,0.6c-0.9,0.2-1.9,0.4-2.9,0.6
						c-1,0.2-2,0.5-3,0.7c-1,0.2-1.9,0.5-2.9,0.7c-1,0.3-2,0.5-3,0.8c-1,0.3-1.9,0.5-2.9,0.8c-1,0.3-2,0.6-3,0.9
						c-1,0.3-1.9,0.6-2.9,0.9c-1,0.3-2,0.6-3,1c-1,0.3-1.9,0.6-2.9,0.9c-1,0.3-2,0.7-3,1l-0.1,0c-0.9,0.3-1.9,0.7-2.8,1
						c-1,0.4-2,0.8-3.1,1.1l-0.2,0.1c-0.9,0.3-1.8,0.7-2.7,1c-1,0.4-2,0.8-2.9,1.2l-0.1,0l-0.1,0c-0.9,0.4-1.9,0.8-2.8,1.1
						c-1,0.4-2,0.9-3.1,1.3l-0.3,0.1c-0.9,0.4-1.7,0.7-2.6,1.1c-1,0.4-2,0.9-2.9,1.3l-0.1,0.1l-0.2,0.1c-0.9,0.4-1.8,0.8-2.7,1.3
						c-1,0.5-2,1-3.1,1.5l-0.3,0.1c-0.9,0.4-1.8,0.9-2.6,1.3c-0.9,0.5-1.9,0.9-2.8,1.4l-0.3,0.1l-0.4,0.2c-0.8,0.4-1.7,0.9-2.5,1.3
						c-0.9,0.5-1.9,1-2.8,1.5l-0.3,0.1l-0.3,0.1c-0.9,0.5-1.8,1-2.6,1.4c-0.9,0.5-1.8,1-2.8,1.6l-0.3,0.2l-0.4,0.2
						c-0.8,0.5-1.7,1-2.5,1.5c-0.9,0.5-1.8,1.1-2.8,1.6l-0.3,0.2l-0.4,0.2c-0.8,0.5-1.7,1-2.5,1.5c-0.9,0.5-1.8,1.1-2.6,1.6
						l-0.4,0.3l-0.5,0.3c-0.8,0.5-1.6,1-2.4,1.5c-0.9,0.6-1.8,1.2-2.7,1.7l-0.4,0.2l-0.5,0.3c-0.8,0.5-1.6,1-2.4,1.6
						c-0.9,0.6-1.7,1.2-2.6,1.8l-0.4,0.3l-0.5,0.3c-0.8,0.5-1.6,1.1-2.4,1.6c-0.9,0.6-1.7,1.2-2.5,1.8l-0.5,0.3l-0.6,0.4
						c-0.8,0.6-1.6,1.1-2.3,1.7c-0.8,0.6-1.7,1.2-2.5,1.9l-0.5,0.4l-0.6,0.5c-0.7,0.6-1.5,1.1-2.2,1.7c-0.8,0.6-1.7,1.3-2.5,2
						l-0.5,0.4l-0.6,0.5c-0.7,0.6-1.5,1.2-2.2,1.8c-0.8,0.6-1.6,1.3-2.4,1.9l-0.6,0.5l-0.6,0.5c-0.8,0.6-1.5,1.2-2.3,1.9
						c-0.8,0.7-1.6,1.4-2.5,2.1l-0.5,0.4l-0.6,0.5c-0.7,0.6-1.5,1.3-2.2,1.9c-0.8,0.7-1.6,1.4-2.4,2.1l-0.6,0.5l-0.7,0.6
						c-0.7,0.6-1.4,1.3-2.2,1.9c-0.8,0.7-1.5,1.4-2.3,2.1l-0.6,0.6l-0.7,0.6c-0.7,0.6-1.4,1.3-2.1,1.9c-0.8,0.7-1.5,1.4-2.3,2.1
						l-0.6,0.6l-0.6,0.6c-0.7,0.7-1.4,1.4-2.2,2.1c-0.7,0.7-1.5,1.5-2.2,2.2l-0.6,0.6l-0.7,0.7c-0.7,0.7-1.4,1.4-2.1,2.1
						c-0.7,0.7-1.5,1.5-2.2,2.2l-0.7,0.7l-0.7,0.7c-0.7,0.7-1.4,1.4-2.1,2.1c-0.7,0.8-1.5,1.5-2.2,2.3l-0.7,0.7l-0.6,0.7
						c-0.7,0.7-1.4,1.5-2.1,2.3c-0.7,0.8-1.4,1.6-2.1,2.3l-0.7,0.8l-0.8,0.8c-0.7,0.7-1.3,1.5-2,2.2c-0.7,0.8-1.4,1.6-2.1,2.3
						l-0.7,0.8l-0.7,0.8c-0.7,0.8-1.4,1.5-2,2.3c-0.7,0.8-1.4,1.6-2.1,2.4l-0.7,0.8l-0.7,0.8c-0.7,0.8-1.3,1.6-2,2.4
						c-0.7,0.8-1.4,1.7-2.1,2.5l-0.7,0.9l-0.8,0.9c-0.6,0.8-1.3,1.6-1.9,2.4c-0.7,0.8-1.4,1.7-2,2.6l-0.7,0.9l-0.7,0.9
						c-0.7,0.8-1.3,1.7-2,2.5c-0.6,0.8-1.3,1.7-1.9,2.5l-0.8,1l-0.8,1c-0.6,0.8-1.2,1.6-1.8,2.4c-0.6,0.8-1.3,1.7-1.9,2.6l-0.8,1
						l-0.8,1c-0.6,0.8-1.2,1.7-1.9,2.5c-0.6,0.9-1.3,1.8-1.9,2.6l-0.7,1l-0.8,1.1c-0.6,0.9-1.2,1.7-1.8,2.6
						c-0.6,0.9-1.2,1.8-1.8,2.7l-0.8,1.1l-0.8,1.1c-0.6,0.9-1.2,1.8-1.8,2.7c-0.6,0.9-1.2,1.8-1.8,2.8l-0.7,1.1l-0.7,1.1
						c-0.6,0.9-1.2,1.8-1.8,2.7c-0.6,0.9-1.2,1.9-1.8,2.8l-0.7,1.1l-0.8,1.2c-0.6,0.9-1.2,1.8-1.7,2.7c-0.6,0.9-1.2,1.9-1.7,2.8
						l-0.7,1.2l-0.8,1.2c-0.6,0.9-1.2,1.9-1.7,2.8c-0.6,0.9-1.1,1.9-1.7,2.9l-0.7,1.2l-0.7,1.2c-0.6,1-1.2,1.9-1.7,2.9
						c-0.6,0.9-1.1,1.9-1.7,2.9l-0.8,1.3l-0.8,1.3c-0.6,1-1.1,1.9-1.7,2.9c-0.5,0.9-1.1,1.9-1.6,2.9l-0.7,1.3l-0.8,1.3
						c-0.6,1-1.1,2-1.7,3c-0.5,0.9-1,1.8-1.4,2.7l-0.7,1.4l-0.8,1.4c-0.6,1.1-1.2,2.2-1.8,3.3c-0.4,0.8-0.8,1.5-1.2,2.3
						c-0.2,0.4-0.5,0.9-0.7,1.3l-0.7,1.4c-0.6,1.2-1.2,2.4-1.9,3.6c-0.4,0.7-0.8,1.4-1.2,2.1c-0.3,0.5-0.6,1-0.9,1.5l-0.5,0.9
						l-0.1,0.2c-0.5,0.8-0.9,1.7-1.4,2.5c-0.3,0.6-0.6,1.1-0.9,1.7l-0.5,0.9l0,0.1c-10.9,20.4-37.8,76.3-53.4,154.2
						c0,0.1,0,0.1,0,0.2c-0.5,2.3-0.9,4.6-1.4,7.2c-8.7,46.6-11.2,90.9-7.3,131.6c0.1,1.1,0.2,2.2,0.3,3.4l0,0.4l0.1,0.5
						c0,0.3,0.1,0.6,0.1,0.9c1.5,13.5,3.6,26.8,6.5,39.2c0.1,0.3,0.2,0.6,0.2,0.9c11.9,51.5,35.6,95.1,70.3,129.6
						c0.1,0.1,0.3,0.3,0.4,0.4c1.3,1.2,2.7,2.4,4.3,3.8c0.4,0.3,0.8,0.6,1.1,1c1.3,1.1,2.6,2.2,3.8,3.2l0.1,0.1
						c0.2,0.1,0.3,0.3,0.5,0.4c1.4,1.1,2.9,2.2,4.4,3.4c0.3,0.2,0.6,0.4,0.9,0.6l0.3,0.2c1.2,0.9,2.5,1.8,3.7,2.6l0.3,0.2
						c0.2,0.2,0.5,0.3,0.7,0.5c1.5,1,3,2,4.5,3c0.3,0.2,0.5,0.3,0.8,0.5l0.3,0.2c1.2,0.8,2.4,1.5,3.7,2.2l0.4,0.2
						c0.3,0.2,0.6,0.4,0.9,0.5c1.6,0.9,3.1,1.8,4.6,2.6c0.2,0.1,0.5,0.3,0.7,0.4l0.3,0.1c1.2,0.7,2.5,1.3,3.8,2
						c0.5,0.2,1,0.5,1.5,0.7c1.6,0.8,3.1,1.5,4.5,2.1c0.2,0.1,0.4,0.2,0.6,0.3l0.2,0.1c1.3,0.6,2.7,1.2,4.1,1.8
						c0.5,0.2,1.1,0.5,1.6,0.7c1.2,0.5,2.4,1,3.7,1.4l0.3,0.1c0.3,0.1,0.6,0.2,0.9,0.3c1.4,0.5,2.9,1,4.6,1.6
						c0.5,0.2,1.1,0.3,1.6,0.5l0.2,0.1c1.1,0.3,2.2,0.7,3.3,1l0.4,0.1c0.4,0.1,0.8,0.3,1.3,0.4c1.5,0.4,3,0.8,4.5,1.2
						c0.5,0.1,1,0.3,1.5,0.4l0.4,0.1c1,0.3,2.1,0.5,3.1,0.7l0.3,0.1c0.6,0.1,1.1,0.3,1.7,0.4c1.6,0.3,3,0.6,4.4,0.9
						c0.5,0.1,1,0.2,1.5,0.3l0.5,0.1c1,0.2,1.9,0.3,2.9,0.5c0.8,0.1,1.5,0.2,2.3,0.4c1.1,0.2,2.2,0.3,3.3,0.5
						c1.1,0.1,2.1,0.3,3.1,0.4c1,0.1,1.9,0.2,2.9,0.3c0.8,0.1,1.6,0.2,2.4,0.2c0.9,0.1,1.8,0.2,2.7,0.2c1.2,0.1,2.3,0.2,3.5,0.2
						c1,0.1,2,0.1,3,0.2c0.8,0,1.7,0.1,2.5,0.1c0.8,0,1.7,0,2.5,0.1l0.4,0c0.6,0,1.3,0,1.9,0l0.3,0c0.3,0,0.6,0,0.9,0
						c0.1,0,0.2,0,0.3,0c0.1,0,0.1,0,0.2,0c1.3,0,2.7,0,4.3,0c0.4,0,0.7,0,1.1,0l0.3,0c1.1,0,2.2-0.1,3.2-0.1l0.4,0c0.3,0,0.7,0,1,0
						c1.5-0.1,2.9-0.1,4.1-0.2l0.3,0c0,0,0.1,0,0.1,0c1.4-0.1,2.8-0.2,4.5-0.4c0.3,0,0.7-0.1,1-0.1l0.3,0c1.1-0.1,2.2-0.2,3.3-0.3
						l0.2,0c0.4,0,0.8-0.1,1.2-0.1c1.4-0.2,2.7-0.3,4-0.5l0.1,0l0.3,0c1.4-0.2,2.9-0.4,4.5-0.6c0.3,0,0.5-0.1,0.8-0.1l0.4-0.1
						c1.1-0.2,2.3-0.4,3.4-0.5c0.4-0.1,0.9-0.1,1.3-0.2c1.3-0.2,2.7-0.5,4-0.7l0.1,0l0.3-0.1c1.4-0.3,2.9-0.6,4.5-0.9l0.7-0.2
						l0.3-0.1c1.2-0.2,2.3-0.5,3.5-0.8c0.4-0.1,0.8-0.2,1.2-0.3c1.4-0.3,2.7-0.6,4-1l0.1,0l0.3-0.1c1.5-0.4,3-0.8,4.6-1.2l0.6-0.2
						l0.3-0.1c1.2-0.3,2.4-0.7,3.7-1c0.3-0.1,0.7-0.2,1.1-0.3c1.4-0.4,2.7-0.8,4.1-1.2l0.3-0.1c1.4-0.4,3-0.9,4.5-1.4l0.4-0.1
						l0.2-0.1c1.3-0.4,2.6-0.9,3.9-1.3l0.3-0.1l0.6-0.2c1.4-0.5,2.8-1,4.2-1.5c0.1,0,0.1,0,0.2-0.1c1.5-0.5,3-1.1,4.6-1.7l0.3-0.1
						l0,0c1.4-0.5,2.8-1.1,4.1-1.6l0.7-0.3c4.4-1.7,8.9-3.6,13.4-5.6l0.2-0.1l0.2-0.1c4.4-2,8.9-4.1,13.3-6.2l0.1-0.1l0.2-0.1
						c4.4-2.2,8.8-4.5,13.1-6.8c0,0,0.1,0,0.1,0c4.4-2.4,8.8-4.9,13-7.4l0.1,0l0.1-0.1c0,0,0,0,0,0l0,0c0,0,0,0,0,0c0,0,0,0,0,0
						c1.6-1,3-1.8,4.3-2.6c0,0,0.1,0,0.1-0.1l0.5-0.3l0.3-0.2c0,0,0.1,0,0.1-0.1c0,0,0,0,0,0c1-0.6,2-1.3,3-1.9c0,0,0,0,0.1,0
						c0.8-0.5,1.5-1,2.3-1.5c0,0,0.1,0,0.1-0.1c2.2-1.4,4.5-2.9,6.8-4.4c0.4-0.3,0.8-0.6,1.2-0.8l0.4-0.3c1.4-1,2.8-1.9,4.1-2.8
						c13.5-9.4,26.2-19.5,37.6-30c49.4-43.3,89.2-93.3,118.6-148.5c39.3-74.1,58.8-156.5,57.9-245c0-0.1,0-0.2,0-0.3
						c-1.6-51-10.5-96.5-26.5-135c-13.7-33-32.6-61-56-83.3c-1.1-1.2-2.4-2.4-3.7-3.6l-0.1-0.1c0,0-0.1-0.1-0.1-0.1
						c-0.7-0.6-1.4-1.2-2.1-1.8l-0.3-0.2l0,0c-0.7-0.6-1.4-1.1-2-1.6c-8.5-7.2-17.6-13.8-27-19.4l0,0c0,0-0.1-0.1-0.1-0.1
						c-3-1.8-5.9-3.4-8.9-5c-0.1,0-0.1-0.1-0.2-0.1c-1.3-0.7-2.7-1.4-4.2-2.1l0,0l-0.4-0.2c-2.8-1.4-5.7-2.7-8.5-3.9l-0.5-0.2
						l-0.2-0.1c-1.1-0.5-2.3-1-3.5-1.4l-0.2-0.1l-0.6-0.2c-2.6-1-5.3-2-7.9-2.9c-0.3-0.1-0.5-0.2-0.8-0.3l-0.3-0.1
						c-1-0.3-2-0.6-2.9-0.9l-0.3-0.1l-0.7-0.2c-1.3-0.4-2.5-0.7-3.6-1c-0.1,0-0.1,0-0.2-0.1c-1.3-0.4-2.7-0.8-4-1.2
						c-0.3-0.1-0.6-0.2-0.9-0.3l-0.2-0.1c-0.8-0.3-1.7-0.6-2.5-0.8c-0.9-0.3-1.7-0.6-2.6-0.8c-0.8-0.3-1.7-0.5-2.5-0.7
						c-0.9-0.3-1.8-0.5-2.6-0.7c-0.8-0.2-1.7-0.5-2.6-0.7c-0.9-0.2-1.8-0.4-2.7-0.7c-0.9-0.2-1.7-0.4-2.6-0.6
						c-0.9-0.2-1.8-0.4-2.7-0.6c-0.9-0.2-1.7-0.3-2.6-0.5c-0.9-0.2-1.8-0.3-2.7-0.5c-0.9-0.1-1.8-0.3-2.6-0.4
						c-0.9-0.1-1.8-0.3-2.8-0.4c-0.9-0.1-1.8-0.2-2.7-0.3c-0.9-0.1-1.9-0.2-2.8-0.3c-0.9-0.1-1.8-0.2-2.7-0.3
						c-0.9-0.1-1.9-0.2-2.8-0.2c-0.9-0.1-1.8-0.1-2.7-0.2c-1-0.1-1.9-0.1-2.9-0.1c-0.9,0-1.8-0.1-2.7-0.1c-0.9,0-1.9,0-2.8-0.1
						C3617.6,410,3616.8,410,3616,410L3616,410z M3478.3,1042.6c-22-25.6-31.2-66.3-26.6-117.9c2.4-26.3,8.2-54.7,17.5-84.4
						c9.3-29.9,21.8-60.5,37.2-91c30.4-60.4,66.3-97.3,91.1-117.7c27.9-23,57.3-37.2,76.6-37.2c2,0,3.8,0.2,5.4,0.5
						c16.1,3.8,31.8,20.3,43,45.3c13.6,30.4,19.6,70.3,16.9,112.1c-3.2,48.3-17.8,97.4-42.3,141.8c-26.1,47.5-59.8,87.4-97.5,115.5
						c-30.5,22.7-63.4,37.1-90.1,39.4l-0.1,0l-0.2,0c-0.6,0.1-1.3,0.1-1.9,0.1l-0.1,0c-0.5,0-0.9,0.1-1.4,0.1l-0.1,0
						c0,0-0.1,0-0.1,0c-1,0-2.1,0.1-3,0.1c-0.4,0-0.8,0-1.1,0c-9.9-0.2-17.9-2.4-22.6-6.3
						C3478.7,1042.9,3478.5,1042.8,3478.3,1042.6L3478.3,1042.6z"/>
				</g>
				<g>
					<path class="st1" d="M3231.3,1249.6c-0.9,0-1.7,0-2.6-0.1c-95.6-7.7-185.1-30.7-280.8-72.1c-3.5,10.9-6.5,22-8.2,28.4
						c-1,3.7-2.4,7.3-4.4,10.6c0,0-5.9,10.1-5.9,10.1c-0.1,0.2-0.2,0.4-0.4,0.6c-0.4,0.5-0.7,1-1.2,1.4c-0.2,0.2-0.5,0.5-0.8,0.7
						c0,0-0.1,0.1-0.1,0.1c-0.3,0.2-0.6,0.5-0.9,0.7c-1.8,1.3-3.8,2-6,2.2l-5.5,0.5c-0.2,0-0.3,0-0.5,0c-0.3,0-0.5,0-0.8,0
						c-1.1,0-2.8-0.1-5.3-0.9c-0.2,0-0.3-0.1-0.5-0.2l-0.2-0.1c-0.3-0.1-0.6-0.2-0.9-0.3c-18.1-6.9-57.5-28.9-62.8-32.2
						c-0.5-0.3-0.9-0.6-1.3-1l-5.9-5.6c-1.9-1.8-3.4-4.1-4.2-6.6c-5.8-17-8-41-6.8-73.5c-85.3-55-154.9-119.9-206.8-192.8
						c-4.3-5.9-6.1-8.6-7.3-16.6c-2.4-13.8-8.7-60-9.4-68.8c-0.1-0.5-0.1-1.1-0.2-1.6c0-0.2,0-0.3-0.1-0.5
						c-0.4-4.5-1.4-14.9,6.8-20.9c0.2-0.1,0.4-0.3,0.7-0.5l8.4-5.4c1.5-0.9,3-1.8,4.7-2.4c0.2-0.1,0.5-0.2,0.7-0.3l1.7-0.5
						c1.8-0.5,3.4-0.9,5-1c0.7-0.1,1.4-0.1,2-0.1c7.7,0,14.6,3.3,19.8,9.5c0,0,0.1,0.1,0.1,0.1c0.3,0.4,0.6,0.7,0.9,1.1
						c0.3,0.4,0.6,0.8,1,1.3c38.4,51.4,87.9,108.7,189,178.7c2.5-10.7,5-20.9,7.5-30.8c24.3-99,51.9-185.5,86.8-272.1l2-4.9
						c1.3-3.2,3.3-6.2,5.9-8.6l6.6-6.1c2.7-2.5,6.1-4,9.7-4.4l6.3-0.7c0.7-0.1,1.3-0.1,2-0.1c2.9,0,5.8,0.8,8.4,2.2l61,33.9
						c19.4,10.8,39.5,21.9,54.4,30.2c0,0,22.6,12.5,22.6,12.5l0.5,0.3c4.3,1.9,10.5,6.5,7.4,16.5c-0.1,0.2-0.1,0.4-0.2,0.6
						c-0.1,0.5-0.3,1-0.5,1.5l-5.5,12.9c-0.1,0.4-0.3,0.8-0.4,1.1c-0.6,1.3-1.3,2.7-2,4.2c0,0,0,0.1-0.1,0.1
						c-8.6,18.4-24,54.5-43.4,100.1c-7.9,18.6-16.9,39.6-26.1,61.3l-12.2,28.3l-7.5,17.4l-7.8,17.9l-7.8,17.9l-7.9,18l-5.6,12.6
						l-4.5,10.2c-1.6,3.5-3.1,7-4.7,10.5c108.1,50.6,197.2,76.2,305.6,87.9c0.1,0,0.2,0,0.2,0c3.5,0.5,6.9,1.7,9.7,3.4
						c0.2,0.1,0.3,0.2,0.5,0.3c0.8,0.5,1.6,1.1,2.4,1.8c0.2,0.2,0.4,0.4,0.6,0.5c4.2,3.9,6.2,9.3,5.9,15c0,0.2,0,0.4-0.1,0.6
						l-1.5,10.9c-0.5,3.3-1.2,5.9-2.3,8c-1.1,2.2-2.5,3.6-3.4,4.5c-0.4,0.4-0.8,0.8-1.3,1.2l-0.4,0.3c-0.3,0.2-0.5,0.5-0.8,0.7
						c-0.2,0.2-0.4,0.4-0.6,0.5c0,0-1.5,1.2-1.5,1.2l-0.7,0.6c-0.9,0.7-1.7,1.3-2.4,1.8c-11.8,8.5-36,23.8-45.8,30
						c-0.7,0.5-1.5,0.9-2.4,1.4c-2.1,1.1-4.4,2-6.9,2.7l-0.2,0.1c-0.4,0.1-0.7,0.2-1.1,0.3l-2.1,0.5
						C3236.5,1249.3,3233.9,1249.6,3231.3,1249.6z"/>
					<path d="M2969.4,672c1.6,0,3.1,0.4,4.5,1.2l0.1,0c0,0,0,0,0,0c6.2,3.5,22.6,12.6,42.1,23.4c0.2,0.1,0.4,0.2,0.5,0.3
						c5.2,2.9,10.5,5.8,16,8.9c0.8,0.4,1.6,0.9,2.3,1.3c19.4,10.8,39.5,21.9,54.4,30.2c0.1,0.1,0.2,0.1,0.3,0.2
						c1.4,0.8,2.8,1.6,4.2,2.3c0,0,0.1,0,0.1,0.1c3.2,1.8,6.1,3.4,8.6,4.8c0.8,0.5,1.6,0.9,2.4,1.3c0.3,0.2,0.6,0.3,0.9,0.5
						c0.2,0.1,0.4,0.2,0.6,0.3c0.3,0.1,0.5,0.3,0.8,0.4c0.2,0.1,0.4,0.2,0.6,0.3c0.2,0.1,0.4,0.2,0.5,0.3c0.3,0.2,0.6,0.3,0.9,0.5
						c0.1,0,0.2,0.1,0.3,0.1c0.3,0.1,0.5,0.3,0.7,0.4c0.1,0.1,0.2,0.1,0.4,0.2c0.2,0.1,0.4,0.2,0.5,0.3c0.1,0.1,0.2,0.1,0.3,0.2
						c0.2,0.1,0.5,0.2,0.6,0.4c0,0,0,0,0,0c0.4,0.2,0.7,0.4,0.9,0.5c5.9,2.5,3.4,5.9,2.9,8.4l-2.1,4.8l-3.7,8.8l0,0l0,0l0,0l0,0
						c-0.7,1.3-1.4,2.8-2.1,4.4c0,0,0,0,0,0.1c0,0,0,0,0,0c-12.3,26.3-38,87.8-69.7,161.6c0,0.1-0.1,0.2-0.1,0.3
						c-0.8,1.8-1.5,3.5-2.3,5.3c-0.2,0.4-0.3,0.7-0.5,1.1c-0.6,1.5-1.3,3-1.9,4.5c-0.2,0.5-0.5,1.1-0.7,1.6
						c-0.6,1.4-1.2,2.7-1.8,4.1c-0.3,0.7-0.6,1.4-0.9,2.1c-0.5,1.2-1,2.4-1.5,3.6c-0.4,0.8-0.7,1.7-1.1,2.5
						c-0.5,1.1-0.9,2.2-1.4,3.2c-0.4,0.9-0.8,1.9-1.2,2.8c-0.4,1-0.8,1.9-1.3,2.9c-0.4,1-0.9,2.1-1.3,3.1c-0.4,0.9-0.8,1.8-1.2,2.7
						c-0.5,1.1-0.9,2.2-1.4,3.3c-0.4,0.9-0.7,1.7-1.1,2.6c-0.5,1.1-0.9,2.2-1.4,3.3c-0.4,0.9-0.8,1.8-1.2,2.8
						c-0.5,1-0.9,2.1-1.4,3.1c-0.4,0.9-0.8,1.8-1.2,2.8c-0.5,1.1-1,2.2-1.5,3.4c-0.4,0.9-0.7,1.7-1.1,2.6c-0.5,1.1-1,2.3-1.5,3.4
						c-0.4,0.9-0.8,1.8-1.2,2.7c-0.5,1.1-1,2.2-1.5,3.3c-0.4,0.9-0.8,1.7-1.1,2.6c-0.5,1.2-1,2.4-1.6,3.6c-0.3,0.8-0.7,1.5-1,2.3
						c-0.6,1.3-1.1,2.5-1.7,3.8c-0.3,0.7-0.6,1.4-0.9,2.1c-0.6,1.3-1.1,2.6-1.7,3.9c-0.3,0.7-0.6,1.4-0.9,2c-0.6,1.3-1.2,2.7-1.8,4
						c-0.3,0.7-0.6,1.4-0.9,2c-0.6,1.3-1.2,2.7-1.8,4c-0.3,0.7-0.6,1.3-0.9,2c-0.6,1.4-1.2,2.8-1.8,4.2c-0.2,0.5-0.5,1-0.7,1.5
						c-0.7,1.5-1.4,3.1-2,4.6c-0.2,0.4-0.3,0.8-0.5,1.1c-0.7,1.7-1.5,3.3-2.2,5c-0.1,0.2-0.1,0.3-0.2,0.5
						c-2.6,5.9-5.2,11.7-7.9,17.6c126.4,60,219.8,81.6,315.2,92c2.5,0.3,4.8,1.1,6.8,2.4c0.1,0.1,0.2,0.1,0.2,0.1
						c0.5,0.3,1,0.7,1.5,1.1c0.1,0.1,0.3,0.2,0.4,0.3c2.3,2.1,3.6,5.1,3.4,8.7l-0.6,4.2l-0.9,6.6c-0.4,2.6-0.9,4.2-1.5,5.5
						c-0.5,1-1.2,1.8-1.9,2.5c-0.4,0.4-0.9,0.9-1.5,1.3c-0.3,0.3-0.7,0.6-1,0.9c0,0,0,0,0,0c-0.2,0.2-0.5,0.4-0.8,0.6
						c0,0-0.1,0.1-0.1,0.1c-0.1,0.1-0.2,0.1-0.3,0.2c-0.2,0.1-0.3,0.2-0.5,0.4c0,0-0.1,0.1-0.1,0.1c0,0,0,0,0,0c0,0-0.1,0-0.1,0.1
						c-0.1,0-0.1,0.1-0.2,0.1c-0.7,0.6-1.5,1.2-2.2,1.6c0,0,0,0,0,0c-11.7,8.4-36.1,23.9-45.5,29.8c-0.6,0.4-1.2,0.7-1.8,1
						c-1.7,0.9-3.5,1.6-5.3,2.1c-0.4,0.1-0.7,0.2-1.1,0.3l-2.1,0.5c-1.9,0.5-3.8,0.7-5.8,0.7c-0.7,0-1.3,0-2-0.1
						c-100.7-8.1-191.5-33.1-286.2-74.9c0,0,0,0,0,0h0c-4.9,13.6-9.2,29.6-11.1,37.1c-0.8,3-2,5.9-3.5,8.5l-5.6,9.6l-0.2,0.3
						c0,0,0,0,0,0l-0.1,0.1c0,0,0,0-0.1,0.1c-0.1,0.2-0.3,0.4-0.5,0.6c-0.1,0.1-0.2,0.2-0.3,0.3c-0.1,0.1-0.2,0.2-0.3,0.3
						c-0.6,0.4-1.3,0.7-2.1,0.8l-5.5,0.5c0,0,0,0,0.1,0c-0.1,0-0.2,0-0.3,0c-0.1,0-0.3,0-0.4,0c-0.6,0-1.5-0.1-3.1-0.6h0
						c-0.1,0-0.1,0-0.2-0.1c-0.2-0.1-0.5-0.2-0.7-0.3c-17.7-6.7-56.7-28.6-61.6-31.6l-5.9-5.6l0,0c-1-0.9-1.7-2.1-2.2-3.4
						c-4.6-13.4-8.1-34.9-6.2-75.2c-74.7-47.7-150-111.1-208.4-193.2c-3.9-5.4-5-6.9-5.9-13.2c-2.5-14.3-8.9-61-9.3-68.4
						c-0.1-0.7-0.2-1.4-0.2-2c0,0,0,0,0,0c-0.4-4.3-0.8-10.7,3.8-13.9c0.1,0,0.1-0.1,0.2-0.1l0.4-0.2c0,0,0,0,0,0v0l7.8-5l0,0
						c0,0,0,0,0,0l0.2-0.2c1.1-0.7,2.2-1.3,3.4-1.8c0,0,0,0,0,0l1.7-0.5c1.1-0.3,2.2-0.6,3.3-0.7c0.5,0,1-0.1,1.4-0.1
						c4.7,0,9.6,1.8,13.8,6.7c0,0,0.1,0.1,0.1,0.1c0.2,0.3,0.5,0.5,0.7,0.8c0.3,0.4,0.5,0.7,0.8,1.1c35.9,48.2,87,110.1,200.5,187.2
						c3.2-13.7,6.6-27.7,10.1-42c19.5-79.6,45.3-169.1,86.4-271c0.7-1.6,1.3-3.2,2-4.9c0.9-2.2,2.2-4.1,3.9-5.7l6.6-6.1
						c1.4-1.3,3.3-2.2,5.2-2.4l6.3-0.7C2968.6,672,2969,672,2969.4,672 M3107.9,776.8C3107.9,776.8,3107.9,776.8,3107.9,776.8
						C3107.9,776.8,3107.9,776.8,3107.9,776.8 M2969.4,656.2c-1,0-2,0.1-2.9,0.2l-6.3,0.7c-5.3,0.6-10.1,2.8-14.1,6.4
						c0,0-0.1,0-0.1,0.1l-6.6,6.1c-3.4,3.2-6.1,7.1-7.9,11.4c-0.6,1.5-1.2,3-1.8,4.5l-0.2,0.4c-35,86.9-62.7,173.7-87.1,273.1
						c-1.6,6.4-3.2,12.9-4.8,19.5c-93.7-66.4-140.8-121-177.6-170.2c-0.4-0.5-0.7-1-1.1-1.5c-0.4-0.5-0.7-0.9-1-1.3
						c-0.1-0.1-0.1-0.1-0.2-0.2c-6.7-7.9-15.9-12.3-25.9-12.3c-0.9,0-1.7,0-2.6,0.1c-2.2,0.2-4.4,0.6-6.7,1.3l-1.7,0.5
						c-0.2,0.1-0.4,0.1-0.6,0.2c-0.3,0.1-0.6,0.2-0.8,0.3c-2,0.8-4,1.9-5.9,3.1l-0.2,0.1c0,0-0.1,0-0.1,0l-7.7,5c0,0-0.1,0-0.1,0.1
						l-0.4,0.2c-0.4,0.3-0.8,0.5-1.2,0.8c-11.8,8.7-10.4,23.2-9.9,28c0,0.2,0.1,0.5,0.1,0.7c0.1,0.5,0.1,1,0.2,1.4
						c0.8,9.7,7.1,55.5,9.5,69.3c1.5,9.6,4,13.5,8.7,19.9c51.7,72.7,120.7,137.4,205.1,192.4c-0.9,31.5,1.4,54.5,7.4,71.9
						c1.3,3.7,3.4,7.1,6.3,9.8l5.9,5.6c0.8,0.8,1.7,1.5,2.7,2c3.2,1.9,44.1,25.2,64,32.7c0.3,0.1,0.7,0.3,1,0.4
						c0.1,0,0.2,0.1,0.3,0.1c0.3,0.1,0.5,0.2,0.8,0.3c2.6,0.8,5,1.2,7.6,1.2c0.5,0,0.9,0,1.2,0c0.2,0,0.5,0,0.7,0l5.5-0.5
						c3.5-0.3,6.9-1.6,9.8-3.6c0.5-0.4,1-0.8,1.5-1.2c0,0,0.1-0.1,0.1-0.1c0.4-0.3,0.8-0.7,1.4-1.3c0.7-0.7,1.3-1.4,1.8-2.2
						c0.3-0.4,0.5-0.7,0.7-1.1c0,0,0-0.1,0-0.1c0-0.1,0.1-0.1,0.1-0.2c0,0,0-0.1,0.1-0.1l0.2-0.3l5.5-9.5c2.3-3.9,4.1-8.1,5.2-12.6
						c1-3.8,3-11.3,5.5-19.6c93.5,39.6,181.4,61.7,275.2,69.3c1.1,0.1,2.2,0.1,3.2,0.1c3.2,0,6.3-0.4,9.4-1.1l2.1-0.5
						c0.7-0.2,1.2-0.3,1.5-0.4l0.1,0c3-0.8,5.8-2,8.4-3.3c1-0.5,2-1.1,2.9-1.7c9.9-6.2,34.1-21.6,46.2-30.3c0.8-0.5,1.7-1.2,2.7-2
						l0.1-0.1c0.1-0.1,0.1-0.1,0.2-0.2c0,0,0,0,0.1,0l-0.1,0.1c0.1-0.1,0.3-0.2,0.4-0.3l0.1-0.1l0.1-0.1l0.2-0.2l0.2-0.1
						c0.3-0.2,0.6-0.5,0.9-0.7c0,0,0,0,0,0c0.4-0.3,0.8-0.7,1.2-1.1c0.2-0.2,0.4-0.3,0.5-0.5l0.3-0.3c0.5-0.4,1-0.9,1.5-1.4
						c2.1-2,3.7-4.1,4.9-6.6c1.5-3,2.5-6.3,3.1-10.5c0,0,0,0,0-0.1l0.9-6.6l0.6-4.2c0.1-0.4,0.1-0.7,0.1-1.1
						c0.5-8.2-2.4-15.8-8.3-21.3c-0.4-0.4-0.8-0.7-1-0.9c-1.1-0.9-2.1-1.7-3.2-2.4c-0.3-0.2-0.5-0.3-0.7-0.5
						c-3.7-2.2-8.1-3.8-12.7-4.4c-0.2,0-0.3,0-0.5-0.1c-52.3-5.7-97.8-14.2-143.4-26.9c-48.7-13.5-98.8-32.3-152.7-57.1
						c0.5-1.1,1-2.3,1.5-3.4l0.2-0.3l0.1-0.1l1.7-3.9l0.5-1.1l0.3-0.6l0.2-0.5l1.8-4l0.3-0.6l0.3-0.8l0.3-0.8l1.9-4.2l0.5-1.1
						l0.4-0.8l1.8-4l0.4-0.9l0.5-1.2l1.1-2.5l0.7-1.5l0.5-1.1l0.4-0.9l1.1-2.6l0.6-1.4l0.9-2.1l1.7-3.8l0.6-1.4l0.4-1l0.7-1.7
						l0.8-1.9l1.1-2.6l0.4-0.9l1.1-2.4l0.8-1.7l0.4-1l0.6-1.4l0.9-2l0.2-0.5l0.9-2.1l1.5-3.4l1.2-2.8l0.2-0.4l1.2-2.7l1.2-2.8
						l1.4-3.3l0.7-1.7l0.4-0.8l1.4-3.3l1.2-2.7l0.6-1.3l0.8-1.8l0.4-1l0.8-1.9l1.2-2.7l0.1-0.2l0.5-1.2l0.9-2.1l0.8-1.8l0.3-0.7
						l0.4-1l1.1-2.6l0.9-2.1l1.8-4.1l0.7-1.6l1.9-4.5l0.5-1.1l2.3-5.3l0.1-0.2l0-0.1c9.3-21.7,18.3-42.8,26.2-61.3
						c19.4-45.5,34.7-81.5,43.3-99.8c0,0,0,0,0-0.1l0,0c0,0,0,0,0,0c0.7-1.6,1.4-2.9,2-4.1c0.3-0.6,0.6-1.2,0.8-1.8l3.3-7.8l2.1-4.8
						c0.4-0.9,0.7-1.8,0.9-2.7c0-0.1,0-0.1,0.1-0.2c4.2-13.3-3-22.1-11.4-25.9c-0.1,0-0.1-0.1-0.2-0.1c0,0-0.1,0-0.1-0.1l-0.6-0.3
						l-0.3-0.2l-0.4-0.2l-0.1-0.1l-0.2-0.1l-0.1-0.1l-0.4-0.2l-0.3-0.1l-0.1-0.1l-0.1-0.1l-0.8-0.5l-0.3-0.2l-0.2-0.1l-0.6-0.3
						l-0.1-0.1l-0.6-0.3l-0.3-0.2l-0.3-0.1l-0.9-0.5l-1.8-1l-0.6-0.3c-2.5-1.4-5.4-3-8.6-4.8c0,0,0,0-0.1,0c0,0,0,0-0.1,0l-3.5-1.9
						l-0.7-0.4l-0.1,0l-0.3-0.1l0,0c-15-8.3-35-19.5-54.4-30.2l-0.3-0.2l-2-1.1l-4.6-2.6l-11.3-6.3l-0.5-0.3l-38.2-21.2l-3.9-2.2
						c0,0-0.1,0-0.1,0C2977.8,657.3,2973.6,656.2,2969.4,656.2L2969.4,656.2z"/>
				</g>
				<g>
					<path class="st1" d="M2601.6,783.7c-1.9,0-3.4-0.3-4.4-0.5l-13.1-1.7c-7.9-0.6-13.4-4.9-16.4-12.8c-0.1-0.3-0.2-0.6-0.3-1
						l-2.4-9.8c-0.1-0.3-0.1-0.7-0.2-1c-0.9-4.4-1.8-9.1-2.6-13.7c-13.9-74.7-18.1-140.2-12.6-200.1c6.9-76.5,30.1-146.6,68.8-208.5
						c40.6-65,90.9-121.4,149.5-167.6c41.5-32.7,87.7-60.8,141.1-85.8c0.1-0.1,0.2-0.1,0.4-0.2l9.2-3.7l1-0.5
						c0.3-0.1,0.5-0.2,0.8-0.3c3.8-1.2,7-1.9,9.9-1.9c5.5,0,9,2.2,11.5,4.1c0.5,0.4,1,0.9,1.4,1.4l12.3,15.9c0.2,0.3,0.5,0.7,0.7,1
						c3.9,7.1,3,12.8,2.1,18.2c-0.5,2.8-1,5.9-1.1,10.1c-0.7,52,20.2,156.4,54.6,272.6l45,148.7c0.7,2.4,0.3,5-1.2,7
						c-0.9,1.2-2.1,2.1-3.5,2.7l-7.4,2.9c-134,53.5-336.6,134.4-422.4,214.8C2614,782,2606.4,783.7,2601.6,783.7
						C2601.6,783.7,2601.6,783.7,2601.6,783.7z M2814.8,217.3c-52,38.6-113.5,96.9-144.2,149.2c-16.3,27.4-29.2,63-37.4,102.9
						c-7.2,35-10.8,73.5-10.5,112.4c69.6-60.6,141.9-108.4,215.1-142.2C2819.5,359.9,2812,287,2814.8,217.3z"/>
					<path d="M2930.1,82.6c3.1,0,4.9,1.1,6.7,2.4l12.3,15.9c4.1,7.5,0.4,11.4,0,24.4c-0.7,51.9,19.7,156,54.9,275l45,148.7h0
						c-133.5,53.3-343.9,136.5-432.4,219.4c-6.4,6.2-11.9,7.3-15.1,7.3c-1.8,0-2.9-0.4-2.9-0.4l-13.9-1.8c-5.1-0.3-7.9-2.9-9.8-7.7
						l-2.4-9.8c0,0,0,0,0,0c-0.9-4.7-1.9-9.5-2.7-14.3c-23.2-124.3-28.6-269.2,55.1-403c90.4-144.9,207.7-213.1,287.3-250.4l9.3-3.8
						l1.1-0.5C2925.8,83.1,2928.2,82.6,2930.1,82.6 M2615.2,599c47.7-42.8,128-108,231.8-155c-14.6-61.6-29.7-147.4-23.4-242.8
						c-51.4,36-124,100.3-159.8,161.3C2629.7,419.9,2611.9,507,2615.2,599 M2930.1,66.8c-3.8,0-7.8,0.7-12.4,2.2
						c-0.5,0.2-1.1,0.4-1.6,0.6l-0.9,0.4l-9,3.7c-0.2,0.1-0.5,0.2-0.7,0.3c-54,25.3-100.7,53.7-142.7,86.8
						c-59.4,46.8-110.3,103.8-151.3,169.6c-20.7,33-37.1,68.5-48.8,105.5c-10.6,33.6-17.8,69.4-21.1,106.5
						c-5.5,60.6-1.3,126.8,12.7,202.3c0.9,4.6,1.7,9.2,2.6,13.6c0.1,0.5,0.2,1.1,0.3,1.6l2.4,9.8c0.2,0.7,0.4,1.3,0.6,1.9
						c5.5,14.1,16.5,17.3,23,17.8l12.5,1.6c1.5,0.3,3.4,0.6,5.8,0.6c6.3,0,16-2,26-11.7c19.5-18.3,46.9-37.9,81.4-58.5
						c30.3-18,67.1-37.3,109.3-57.3c78.2-37,161.9-70.5,229.1-97.3l7.4-2.9c2.7-1.1,5.1-2.9,6.9-5.3c3-4,3.9-9.2,2.4-14l-45-148.7
						c-34.2-115.4-55-218.8-54.3-270.1c0.1-3.6,0.6-6.4,1-9c1-6.2,2.3-13.8-3-23.3c-0.4-0.7-0.8-1.4-1.3-2l-12.3-15.9
						c-0.8-1.1-1.8-2-2.9-2.9C2943.2,70.1,2938.1,66.8,2930.1,66.8L2930.1,66.8z M2630.8,564.4c0.7-32.4,4.2-64.2,10.2-93.5
						c8-39.1,20.6-73.8,36.5-100.4c0,0,0-0.1,0-0.1c27.6-47,80.8-99.1,128.9-136.8c-1.1,63.5,6.2,129.8,22.3,201.4
						C2761.4,466.9,2695,510.3,2630.8,564.4L2630.8,564.4z"/>
				</g>
			</g>
			<g>
				<g>
					<g>
						<g>
							<circle cx="3191.4" cy="629.7" r="508.6"/>
						</g>
					</g>
				</g>
				<g>
					<path class="st2" d="M3739.7,395.9c7.9,1.5,13.8,2,20.6-2.9l10.1-9c1.7-1.5,2.8-3.6,3-5.9l0.2-2.8c0.1-1.6,0-3.2-0.4-4.7
						c-0.3-1.3-0.8-2.5-1.5-3.7c-4.5-8.1-9-15.9-13.5-23.5c0,0,0,0,0,0c-0.9-1.6-1.9-3.2-2.8-4.7c0,0,0-0.1-0.1-0.1
						c-0.9-1.5-1.8-3.1-2.8-4.6c0-0.1-0.1-0.1-0.1-0.2c-0.9-1.5-1.8-3-2.7-4.5c0-0.1-0.1-0.2-0.1-0.2c-0.9-1.5-1.8-2.9-2.7-4.4
						c-0.1-0.1-0.1-0.2-0.2-0.3c-0.9-1.4-1.8-2.8-2.7-4.2c-0.1-0.1-0.1-0.2-0.2-0.4c-0.9-1.4-1.8-2.8-2.6-4.1
						c-0.1-0.1-0.2-0.3-0.3-0.4c-0.9-1.4-1.7-2.7-2.6-4c-0.1-0.2-0.2-0.3-0.3-0.5c-0.9-1.3-1.7-2.6-2.6-3.9
						c-0.1-0.2-0.2-0.3-0.3-0.5c-0.9-1.3-1.7-2.6-2.6-3.8c-0.1-0.2-0.2-0.4-0.4-0.5c-0.8-1.3-1.7-2.5-2.5-3.8
						c-0.1-0.2-0.3-0.4-0.4-0.6c-0.8-1.2-1.7-2.5-2.5-3.7c-0.1-0.2-0.3-0.4-0.4-0.6c-0.8-1.2-1.7-2.4-2.5-3.6
						c-0.1-0.2-0.3-0.4-0.4-0.6c-0.8-1.2-1.7-2.4-2.5-3.5c-0.2-0.2-0.3-0.4-0.5-0.7c-0.8-1.2-1.7-2.3-2.5-3.5
						c-0.2-0.2-0.3-0.5-0.5-0.7c-0.8-1.1-1.6-2.3-2.5-3.4c-0.2-0.2-0.4-0.5-0.5-0.7c-0.8-1.1-1.6-2.2-2.5-3.3
						c-0.2-0.2-0.4-0.5-0.5-0.7c-0.8-1.1-1.6-2.2-2.5-3.3c-0.2-0.3-0.4-0.5-0.6-0.8c-0.8-1.1-1.6-2.1-2.5-3.2
						c-0.2-0.3-0.4-0.5-0.6-0.8c-0.8-1.1-1.6-2.1-2.5-3.1c-0.2-0.3-0.4-0.5-0.6-0.8c-0.8-1-1.6-2.1-2.5-3.1
						c-0.2-0.3-0.4-0.5-0.7-0.8c-0.8-1-1.6-2-2.5-3c-0.2-0.3-0.5-0.6-0.7-0.8c-0.8-1-1.6-2-2.5-3c-0.2-0.3-0.5-0.6-0.7-0.8
						c-0.8-1-1.6-2-2.5-2.9c-0.2-0.3-0.5-0.6-0.7-0.9c-0.8-1-1.6-1.9-2.5-2.9c-0.3-0.3-0.5-0.6-0.8-0.9c-0.8-0.9-1.6-1.9-2.5-2.8
						c-0.3-0.3-0.5-0.6-0.8-0.9c-0.8-0.9-1.6-1.9-2.5-2.8c-0.3-0.3-0.5-0.6-0.8-0.9c-0.8-0.9-1.6-1.8-2.5-2.8
						c-0.3-0.3-0.6-0.6-0.9-0.9c-0.8-0.9-1.6-1.8-2.5-2.7c-0.3-0.3-0.6-0.6-0.9-0.9c-0.8-0.9-1.7-1.8-2.5-2.7
						c-0.3-0.3-0.6-0.6-0.9-0.9c-0.8-0.9-1.7-1.8-2.5-2.7c-0.3-0.3-0.6-0.7-0.9-1c-0.8-0.9-1.7-1.7-2.5-2.6c-0.3-0.3-0.6-0.7-1-1
						c-0.8-0.9-1.7-1.7-2.5-2.6c-0.3-0.3-0.7-0.7-1-1c-0.8-0.8-1.7-1.7-2.5-2.5c-0.3-0.3-0.7-0.7-1-1c-0.8-0.8-1.7-1.7-2.5-2.5
						c-0.4-0.4-0.7-0.7-1.1-1.1c-0.8-0.8-1.7-1.6-2.5-2.5c-0.4-0.4-0.7-0.7-1.1-1.1c-0.8-0.8-1.7-1.6-2.6-2.5
						c-0.4-0.4-0.7-0.7-1.1-1.1c-0.8-0.8-1.7-1.6-2.6-2.4c-0.4-0.4-0.8-0.7-1.2-1.1c-0.8-0.8-1.7-1.6-2.5-2.4
						c-0.4-0.4-0.8-0.7-1.2-1.1c-0.9-0.8-1.7-1.6-2.6-2.3c-0.4-0.4-0.8-0.8-1.2-1.1c-0.9-0.8-1.7-1.6-2.6-2.3
						c-0.4-0.4-0.9-0.8-1.3-1.1c-0.9-0.8-1.7-1.5-2.6-2.3c-0.4-0.4-0.9-0.8-1.4-1.2c-0.9-0.8-1.7-1.5-2.6-2.3
						c-0.5-0.4-0.9-0.8-1.4-1.2c-0.9-0.7-1.7-1.5-2.6-2.2c-0.5-0.4-1-0.8-1.5-1.2c-0.9-0.7-1.7-1.5-2.6-2.2c-0.5-0.4-1-0.8-1.5-1.2
						c-0.9-0.7-1.7-1.5-2.6-2.2c-0.5-0.4-1-0.9-1.5-1.3c-0.9-0.7-1.7-1.4-2.6-2.1c-0.5-0.4-1.1-0.9-1.6-1.3
						c-0.9-0.7-1.7-1.4-2.6-2.1c-0.6-0.5-1.1-0.9-1.7-1.4c-0.9-0.7-1.7-1.4-2.6-2.1c-0.6-0.5-1.1-0.9-1.7-1.4
						c-0.9-0.7-1.7-1.4-2.6-2.1c-0.6-0.5-1.2-0.9-1.8-1.4c-0.9-0.7-1.7-1.3-2.6-2c-0.6-0.5-1.3-1-1.9-1.5c-0.8-0.7-1.7-1.3-2.5-2
						c-0.7-0.5-1.3-1-2-1.5c-0.8-0.6-1.7-1.3-2.5-1.9c-0.7-0.5-1.4-1-2-1.5c-0.8-0.6-1.7-1.3-2.5-1.9c-0.7-0.5-1.4-1-2.1-1.5
						c-0.9-0.6-1.7-1.3-2.6-1.9c-0.8-0.6-1.5-1.1-2.3-1.7c-0.8-0.6-1.6-1.2-2.4-1.8c-0.8-0.6-1.7-1.2-2.5-1.8
						c-0.8-0.6-1.5-1.1-2.3-1.7c-0.9-0.6-1.7-1.3-2.6-1.9c-0.7-0.5-1.5-1.1-2.2-1.6c-1-0.7-1.9-1.4-2.9-2.1c-0.7-0.5-1.3-1-2-1.4
						c-1.1-0.8-2.1-1.5-3.2-2.3c-0.6-0.4-1.2-0.8-1.8-1.3c-1.7-1.2-3.4-2.4-5.1-3.5c-80.9-56.3-171.1-82.9-229.8-93.9
						c-5-0.9-9.8-1.8-14.3-2.5c-14.7-2.3-26.7-3.5-35.2-3.9c0,0,0,0,0,0c-1.7,0-5.7-0.2-10.5,1.2c0,0,0,0,0,0
						c-0.3,0.1-0.7,0.2-1,0.3c-0.1,0-0.2,0.1-0.3,0.1c-0.3,0.1-0.7,0.2-1,0.4c-0.2,0.1-0.5,0.2-0.7,0.3c-0.1,0.1-0.3,0.1-0.4,0.2
						c-0.2,0.1-0.5,0.2-0.7,0.3c-0.2,0.1-0.3,0.2-0.5,0.2c-0.2,0.1-0.4,0.2-0.6,0.3c-0.3,0.2-0.6,0.3-0.9,0.5
						c-0.1,0-0.3,0.1-0.4,0.2c0,0,0,0.1,0,0.1c-3.4,2-6.9,4.9-10.3,9.3c-48.2,72.8-95.9,287.1-139.1,502.5
						c244.3-87,429.2-133.3,592.9-140.6C3714.1,390,3731.8,394.4,3739.7,395.9z M3556.7,256.8c-24.5,0.2-53.1,1.9-82.8,4.7
						c-61.2,5.7-126.9,16.1-170.2,29l-0.1,0.1c6-28.2,11-59.8,15.1-89.7c0-0.1,0-0.1,0-0.1c0-0.2,0-0.3,0-0.5c0-0.1,0.1-0.3,0.1-0.4
						c0-0.2,0-0.3,0-0.4c0-0.2,0.1-0.3,0.1-0.4c0-0.2,0-0.3,0-0.5c0.1-0.2,0.1-0.3,0.1-0.5c0-0.1,0-0.2,0-0.4c0,0,0,0,0-0.1
						c0.1,0,0.1,0,0.1,0c0-0.2,0-0.3,0.1-0.4c0,0,0,0,0-0.1c0-0.1,0-0.3,0.1-0.4c0-0.2,0-0.3,0-0.5c0-0.1,0.1-0.3,0.1-0.5v-0.1
						c0-0.1,0-0.3,0-0.4c0-0.2,0.1-0.3,0.1-0.4c0-0.1,0-0.3,0-0.4c0.1-0.1,0.1-0.3,0.1-0.4c0-0.2,0-0.3,0-0.4l0.1-0.1
						c0-0.2,0-0.3,0-0.4c0-0.2,0-0.3,0-0.4c0.1-0.2,0.1-0.3,0.1-0.4c0-0.2,0-0.3,0-0.5c0-0.1,0-0.3,0.1-0.4c0-0.1,0-0.1,0-0.1
						c0-0.2,0-0.3,0-0.5c0-0.1,0.1-0.3,0.1-0.4c0-0.2,0-0.3,0-0.5c0-0.2,0.1-0.3,0.1-0.4c0-0.2,0-0.3,0-0.4c0.1-0.2,0.1-0.4,0.1-0.5
						c0-0.2,0-0.3,0-0.4c0.1-0.2,0.1-0.3,0.1-0.4v-0.1c0.1-0.1,0.1-0.3,0.1-0.4c0.1-0.2,0.1-0.3,0.1-0.5c0-0.2,0-0.3,0.1-0.5
						c0-0.2,0-0.3,0.1-0.4c0-0.2,0-0.3,0-0.4c0-0.2,0-0.3,0.1-0.4v-0.1c0-0.1,0-0.3,0-0.4c0-0.3,0.1-0.4,0.1-0.6c0-0.2,0-0.3,0-0.4
						c0-0.1,0.1-0.3,0.1-0.4c0,0,0-0.1,0-0.1c0-0.1,0-0.2,0-0.3c0,0,0,0,0,0c0,0,0,0,0,0c0.1-0.8,0.2-1.5,0.3-2.3
						c0.1-0.1,0.1-0.3,0.1-0.4c0.1-0.2,0.1-0.4,0.1-0.5c0,0,0,0,0-0.1c0-0.1,0-0.3,0-0.4c0.1-0.2,0.1-0.3,0.1-0.4
						c0.1-0.2,0.1-0.3,0.1-0.4c0.1-0.2,0.1-0.3,0.1-0.5c0,0,0,0,0-0.1c0-0.1,0-0.3,0.1-0.4c0-0.2,0-0.3,0.1-0.5c0-0.1,0-0.1,0-0.1
						c0-0.1,0-0.3,0-0.4c0-0.2,0-0.3,0.1-0.4c0-0.2,0-0.3,0-0.4c0-0.2,0-0.4,0.1-0.5c0-0.2,0-0.3,0-0.4v-0.1c0-0.1,0-0.3,0.1-0.4
						c0-0.2,0-0.3,0.1-0.4c0-0.2,0-0.3,0-0.4v-0.1c0,0,0-0.1,0-0.1c0-0.1,0-0.1,0-0.2c0,0,0-0.1,0-0.1c0,0,0-0.1,0-0.1
						c0,0,0-0.1,0-0.1c0,0,0-0.1,0-0.1c0-0.1,0-0.1,0-0.1c0-0.2,0.1-0.3,0.1-0.4c0-0.2,0-0.3,0-0.4c0-0.1,0-0.2,0-0.3
						c0.8-6.5,1.5-12.7,2.2-18.8c0.5-4.4,1-8.7,1.4-12.8c3.3-30.9,5.1-53.1,5.4-56.8c0-0.3,0-0.5,0-0.5c0,0,0,0,0,0v0
						c87.9,26.7,195.9,91,264.6,160.3c2.3,2.3,4.6,4.7,6.9,7.1c3.3,3.5,6.5,6.9,9.6,10.4C3599.4,257.6,3579.9,256.6,3556.7,256.8z"
						/>
					<path class="st2" d="M3823.1,685.2c-3.3-105.9-38.2-170.2-77.9-207.6c-1.8-1.9-4.2-4.1-7.1-6.4c0,0,0,0,0,0
						c-8.3-7.1-16.8-13-25.1-18c0,0-0.1-0.1-0.1-0.1c-2.8-1.6-5.5-3.2-8.2-4.6c0,0,0,0-0.1,0c-1.3-0.7-2.6-1.3-3.8-1.9
						c-0.1-0.1-0.3-0.1-0.4-0.2c-2.6-1.3-5.2-2.5-7.7-3.5c-0.2-0.1-0.4-0.2-0.6-0.2c-1.1-0.4-2.1-0.9-3.2-1.3
						c-0.2-0.1-0.5-0.2-0.7-0.3c-2.4-0.9-4.8-1.8-7.1-2.6c-0.3-0.1-0.6-0.2-0.9-0.3c-0.9-0.3-1.8-0.6-2.6-0.8
						c-0.3-0.1-0.6-0.2-0.9-0.3c-1.1-0.3-2.2-0.7-3.3-1c0,0-0.1,0-0.1,0c-1.7-0.5-3.4-1-5-1.6c-0.4-0.1-0.7-0.2-1.1-0.4
						c-0.7-0.3-1.5-0.5-2.2-0.7c-0.8-0.3-1.6-0.5-2.4-0.7c-0.8-0.2-1.5-0.5-2.3-0.7c-0.8-0.2-1.6-0.5-2.4-0.7
						c-0.8-0.2-1.5-0.4-2.3-0.6c-0.8-0.2-1.6-0.4-2.4-0.6c-0.8-0.2-1.6-0.4-2.3-0.5c-0.8-0.2-1.6-0.4-2.5-0.5
						c-0.8-0.2-1.6-0.3-2.4-0.5c-0.8-0.2-1.7-0.3-2.5-0.4c-0.8-0.1-1.6-0.3-2.4-0.4c-0.8-0.1-1.7-0.2-2.5-0.4
						c-0.8-0.1-1.6-0.2-2.4-0.3c-0.8-0.1-1.7-0.2-2.5-0.3c-0.8-0.1-1.6-0.2-2.4-0.2c-0.9-0.1-1.7-0.1-2.6-0.2
						c-0.8-0.1-1.6-0.1-2.5-0.2c-0.9-0.1-1.7-0.1-2.6-0.1c-0.8,0-1.7-0.1-2.5-0.1c-0.9,0-1.8,0-2.6-0.1c-0.8,0-1.7,0-2.5,0
						c-0.9,0-1.8,0-2.7,0c-0.8,0-1.7,0-2.5,0.1c-0.9,0-1.8,0.1-2.7,0.1c-0.9,0-1.7,0.1-2.6,0.1c-0.9,0.1-1.8,0.1-2.7,0.2
						c-0.9,0.1-1.7,0.1-2.6,0.2c-0.9,0.1-1.8,0.2-2.7,0.3c-0.9,0.1-1.7,0.2-2.6,0.3c-0.9,0.1-1.8,0.2-2.7,0.3
						c-0.9,0.1-1.7,0.2-2.6,0.4c-0.9,0.1-1.8,0.3-2.8,0.4c-0.9,0.1-1.7,0.3-2.6,0.4c-0.9,0.2-1.9,0.3-2.8,0.5
						c-0.9,0.2-1.8,0.3-2.7,0.5c-0.9,0.2-1.9,0.4-2.8,0.6c-0.9,0.2-1.8,0.4-2.7,0.6c-0.9,0.2-1.9,0.4-2.8,0.7
						c-0.9,0.2-1.8,0.4-2.7,0.7c-0.9,0.2-1.9,0.5-2.8,0.7c-0.9,0.2-1.8,0.5-2.7,0.7c-0.9,0.3-1.9,0.5-2.8,0.8
						c-0.9,0.3-1.8,0.5-2.7,0.8c-0.9,0.3-1.9,0.6-2.9,0.9c-0.9,0.3-1.8,0.6-2.7,0.9c-1,0.3-1.9,0.7-2.9,1c-0.9,0.3-1.8,0.6-2.7,1
						c-1,0.3-1.9,0.7-2.9,1.1c-0.9,0.3-1.8,0.7-2.7,1c-1,0.4-1.9,0.8-2.9,1.2c-0.9,0.4-1.8,0.7-2.7,1.1c-1,0.4-1.9,0.8-2.9,1.2
						c-0.9,0.4-1.8,0.8-2.7,1.2c-1,0.4-1.9,0.9-2.9,1.3c-0.9,0.4-1.8,0.8-2.7,1.3c-1,0.5-1.9,0.9-2.9,1.4c-0.9,0.4-1.8,0.9-2.8,1.4
						c-1,0.5-1.9,1-2.9,1.5c-0.9,0.5-1.8,0.9-2.8,1.4c-1,0.5-1.9,1-2.9,1.6c-0.9,0.5-1.8,1-2.8,1.5c-1,0.5-1.9,1.1-2.9,1.6
						c-0.9,0.5-1.8,1.1-2.8,1.6c-1,0.6-1.9,1.1-2.9,1.7c-0.9,0.6-1.8,1.1-2.8,1.7c-1,0.6-1.9,1.2-2.9,1.8c-0.9,0.6-1.8,1.2-2.8,1.7
						c-1,0.6-1.9,1.3-2.9,1.9c-0.9,0.6-1.8,1.2-2.8,1.8c-1,0.7-1.9,1.3-2.9,2c-0.9,0.6-1.8,1.3-2.8,1.9c-1,0.7-1.9,1.4-2.9,2.1
						c-0.9,0.7-1.8,1.3-2.8,2c-1,0.7-1.9,1.4-2.9,2.2c-0.9,0.7-1.8,1.4-2.7,2.1c-1,0.7-1.9,1.5-2.9,2.2c-0.9,0.7-1.8,1.4-2.7,2.2
						c-1,0.8-1.9,1.5-2.9,2.3c-0.9,0.7-1.8,1.5-2.7,2.2c-1,0.8-1.9,1.6-2.9,2.4c-0.9,0.8-1.8,1.5-2.7,2.3c-1,0.8-1.9,1.7-2.8,2.5
						c-0.9,0.8-1.8,1.6-2.7,2.4c-0.9,0.8-1.9,1.7-2.8,2.6c-0.9,0.8-1.8,1.6-2.7,2.5c-0.9,0.9-1.9,1.8-2.8,2.7
						c-0.9,0.9-1.8,1.7-2.7,2.6c-0.9,0.9-1.9,1.8-2.8,2.7c-0.9,0.9-1.8,1.8-2.7,2.7c-0.9,0.9-1.8,1.9-2.8,2.8
						c-0.9,0.9-1.8,1.8-2.7,2.7c-0.9,1-1.8,1.9-2.8,2.9c-0.9,0.9-1.8,1.9-2.7,2.8c-0.9,1-1.8,2-2.7,3c-0.9,1-1.8,1.9-2.7,2.9
						c-0.9,1-1.8,2.1-2.7,3.1c-0.9,1-1.8,2-2.6,3c-0.9,1-1.8,2.1-2.7,3.2c-0.9,1-1.7,2-2.6,3.1c-0.9,1.1-1.8,2.2-2.7,3.2
						c-0.9,1.1-1.7,2.1-2.6,3.2c-0.9,1.1-1.8,2.2-2.6,3.3c-0.9,1.1-1.7,2.2-2.6,3.3c-0.9,1.1-1.7,2.3-2.6,3.4
						c-0.9,1.1-1.7,2.2-2.6,3.4c-0.9,1.2-1.7,2.3-2.6,3.5c-0.8,1.1-1.7,2.3-2.5,3.5c-0.9,1.2-1.7,2.4-2.6,3.6
						c-0.8,1.2-1.7,2.3-2.5,3.5c-0.8,1.2-1.7,2.4-2.5,3.7c-0.8,1.2-1.7,2.4-2.5,3.6c-0.8,1.2-1.7,2.5-2.5,3.8
						c-0.8,1.2-1.7,2.5-2.5,3.7c-0.8,1.3-1.7,2.6-2.5,3.8c-0.8,1.3-1.6,2.5-2.4,3.8c-0.8,1.3-1.6,2.6-2.4,3.9
						c-0.8,1.3-1.6,2.6-2.4,3.9c-0.8,1.3-1.6,2.7-2.4,4c-0.8,1.3-1.6,2.7-2.4,4c-0.8,1.3-1.6,2.7-2.4,4.1c-0.8,1.4-1.6,2.7-2.4,4.1
						c-0.8,1.3-1.5,2.7-2.3,4.1c-0.8,1.4-1.6,2.8-2.4,4.3c-0.7,1.3-1.4,2.6-2.1,3.9c-0.8,1.5-1.7,3-2.5,4.6
						c-0.6,1.2-1.2,2.3-1.8,3.5c-0.9,1.7-1.8,3.4-2.7,5.2c-0.4,0.8-0.9,1.6-1.4,2.4c-0.3,0.5-0.5,1-0.8,1.4c-0.2,0.3-0.4,0.7-0.6,1
						c-0.4,0.8-0.9,1.6-1.3,2.4c-0.3,0.5-0.6,1.1-0.9,1.6c-0.2,0.3-0.4,0.7-0.5,1c-18.6,35.1-39.7,89.2-51.9,149.9c0,0,0,0,0,0.1
						c-0.5,2.3-0.9,4.7-1.4,7c-7.7,40.9-11.2,84.6-7.1,127.2c0.1,1.2,0.2,2.4,0.4,3.6c0,0.4,0.1,0.9,0.1,1.3
						c1.4,12.6,3.4,25.2,6.2,37.4c0-0.1,0-0.1,0-0.2c10.3,45.3,30.9,87.9,66.3,123c1.3,1.2,2.6,2.4,3.9,3.5c0.3,0.3,0.7,0.6,1,0.9
						c1.2,1,2.3,2,3.5,2.9c0.2,0.1,0.4,0.3,0.6,0.5c1.3,1.1,2.7,2.1,4,3.1c0.3,0.3,0.7,0.5,1,0.8c1.1,0.8,2.2,1.6,3.3,2.4
						c0.3,0.2,0.6,0.4,0.9,0.6c1.4,0.9,2.7,1.8,4.1,2.7c0.3,0.2,0.7,0.4,1,0.6c1.1,0.7,2.2,1.4,3.3,2c0.4,0.2,0.8,0.5,1.1,0.7
						c1.4,0.8,2.8,1.6,4.1,2.3c0.3,0.2,0.6,0.3,0.9,0.5c1.1,0.6,2.3,1.2,3.4,1.8c0.4,0.2,0.9,0.4,1.3,0.7c1.3,0.7,2.7,1.3,4,1.9
						c0.2,0.1,0.5,0.2,0.8,0.3c1.2,0.6,2.5,1.1,3.8,1.6c0.5,0.2,1,0.4,1.5,0.6c1.1,0.4,2.2,0.9,3.3,1.3c0.4,0.1,0.7,0.3,1.1,0.4
						c1.4,0.5,2.8,1,4.2,1.5c0.5,0.2,1.1,0.4,1.6,0.5c1,0.3,2,0.6,3,0.9c0.5,0.2,1,0.3,1.5,0.5c1.4,0.4,2.7,0.8,4.1,1.1
						c0.6,0.2,1.2,0.3,1.7,0.4c0.9,0.2,1.9,0.5,2.8,0.7c0.6,0.1,1.2,0.3,1.8,0.4c1.3,0.3,2.7,0.6,4,0.8c0.6,0.1,1.2,0.2,1.8,0.3
						c0.9,0.2,1.8,0.3,2.7,0.5c0.7,0.1,1.4,0.2,2.1,0.3c1,0.2,2,0.3,3,0.4c1,0.1,1.9,0.2,2.9,0.4c0.9,0.1,1.8,0.2,2.7,0.3
						c0.7,0.1,1.5,0.1,2.2,0.2c0.8,0.1,1.7,0.1,2.5,0.2c1.1,0.1,2.1,0.2,3.2,0.2c0.9,0.1,1.8,0.1,2.8,0.1c0.8,0,1.6,0.1,2.3,0.1
						c0.8,0,1.5,0,2.3,0.1c0.8,0,1.5,0,2.3,0c0,0,0,0,0,0c0,0,0,0,0,0c0,0,0,0,0,0c0.4,0,0.8,0,1.1,0c49.1,0,100.1-18.4,143.4-44.2
						c0.1-0.1,0.2-0.1,0.4-0.2c1.4-0.8,2.8-1.7,4.2-2.6c0.3-0.2,0.5-0.3,0.8-0.5c1-0.6,2-1.3,3-1.9c0.7-0.5,1.5-0.9,2.2-1.4
						c0.2-0.1,0.4-0.3,0.7-0.4c17.6-11.3,33.7-23.8,47.6-36.5C3728.7,999.4,3825.1,877,3823.1,685.2z M3711,901.8
						c-59.8,108.8-145.3,158.2-200.1,163c-0.1,0-0.3,0-0.4,0c-0.7,0.1-1.5,0.1-2.2,0.2c-0.6,0-1.2,0.1-1.8,0.1c-0.1,0-0.1,0-0.2,0
						c-1.7,0.1-3.4,0.1-5,0.1c-13.7-0.2-24.9-3.6-32.5-10c0,0,0.5,0.5,1.4,1.4c-0.6-0.4-1.2-0.9-1.7-1.3c-54.9-60-39.4-187.5,24-313
						c59-117.2,150.3-171.2,190.6-162.8C3750.5,594.9,3792.8,753.5,3711,901.8z"/>
					<path class="st2" d="M3300.8,1173.9c-0.5-0.4-0.9-0.8-1.5-1.1c-0.1-0.1-0.2-0.1-0.2-0.1c-2-1.2-4.3-2-6.8-2.4
						c-95.4-10.3-188.8-32-315.2-92c2.6-5.9,5.2-11.7,7.9-17.6c0.1-0.2,0.1-0.3,0.2-0.5c0.7-1.7,1.5-3.3,2.2-5
						c0.2-0.4,0.3-0.8,0.5-1.1c0.7-1.5,1.4-3.1,2-4.6c0.2-0.5,0.5-1,0.7-1.5c0.6-1.4,1.2-2.8,1.8-4.2c0.3-0.7,0.6-1.3,0.9-2
						c0.6-1.3,1.2-2.7,1.8-4c0.3-0.7,0.6-1.4,0.9-2c0.6-1.3,1.2-2.7,1.8-4c0.3-0.7,0.6-1.4,0.9-2c0.6-1.3,1.1-2.6,1.7-3.9
						c0.3-0.7,0.6-1.4,0.9-2.1c0.6-1.3,1.1-2.5,1.7-3.8c0.3-0.8,0.7-1.5,1-2.3c0.5-1.2,1-2.4,1.6-3.6c0.4-0.9,0.8-1.7,1.1-2.6
						c0.5-1.1,1-2.2,1.5-3.3c0.4-0.9,0.8-1.8,1.2-2.7c0.5-1.1,1-2.3,1.5-3.4c0.4-0.9,0.7-1.7,1.1-2.6c0.5-1.1,1-2.2,1.5-3.4
						c0.4-0.9,0.8-1.8,1.2-2.8c0.5-1,0.9-2.1,1.4-3.1c0.4-0.9,0.8-1.8,1.2-2.8c0.5-1.1,0.9-2.2,1.4-3.3c0.4-0.9,0.7-1.7,1.1-2.6
						c0.5-1.1,0.9-2.2,1.4-3.3c0.4-0.9,0.8-1.8,1.2-2.7c0.4-1,0.9-2.1,1.3-3.1c0.4-1,0.8-1.9,1.3-2.9c0.4-0.9,0.8-1.9,1.2-2.8
						c0.5-1.1,0.9-2.2,1.4-3.2c0.4-0.8,0.7-1.7,1.1-2.5c0.5-1.2,1-2.4,1.5-3.6c0.3-0.7,0.6-1.4,0.9-2.1c0.6-1.4,1.2-2.7,1.8-4.1
						c0.2-0.5,0.5-1.1,0.7-1.6c0.6-1.5,1.3-3,1.9-4.5c0.2-0.4,0.3-0.8,0.5-1.1c0.8-1.8,1.5-3.5,2.3-5.3c0-0.1,0.1-0.2,0.1-0.3
						c31.6-73.9,57.4-135.4,69.7-161.7c0,0,0,0,0,0c0,0,0,0,0-0.1c0.8-1.6,1.5-3.1,2.1-4.4l0,0l0,0l0,0l0,0l3.7-8.8l2.1-4.8
						c0.5-2.5,2.9-5.9-2.9-8.4c-0.2-0.1-0.5-0.3-0.9-0.5c0,0,0,0,0,0c-0.2-0.1-0.4-0.2-0.6-0.4c-0.1-0.1-0.2-0.1-0.3-0.2
						c-0.2-0.1-0.3-0.2-0.5-0.3c-0.1-0.1-0.2-0.1-0.4-0.2c-0.2-0.1-0.5-0.3-0.7-0.4c-0.1,0-0.2-0.1-0.3-0.1
						c-0.3-0.1-0.6-0.3-0.9-0.5c-0.2-0.1-0.4-0.2-0.5-0.3c-0.2-0.1-0.4-0.2-0.6-0.3c-0.2-0.1-0.5-0.3-0.8-0.4
						c-0.2-0.1-0.4-0.2-0.6-0.3c-0.3-0.2-0.6-0.3-0.9-0.5c-0.7-0.4-1.6-0.9-2.4-1.3c-2.5-1.4-5.4-3-8.6-4.8c0,0-0.1,0-0.1-0.1
						c-1.3-0.7-2.7-1.5-4.2-2.3c-0.1-0.1-0.2-0.1-0.3-0.2c-15-8.3-35.1-19.5-54.4-30.2c-0.8-0.4-1.6-0.9-2.3-1.3
						c-5.4-3-10.8-6-16-8.9c-0.2-0.1-0.4-0.2-0.5-0.3c-19.5-10.8-35.9-19.9-42.1-23.4c0,0,0,0,0,0l-0.1,0c-1.7-1-3.7-1.3-5.6-1.1
						l-6.3,0.7c-1.9,0.2-3.8,1.1-5.2,2.4l-6.6,6.1c-1.7,1.6-3.1,3.5-3.9,5.7c-0.7,1.6-1.3,3.3-2,4.9
						c-41.1,101.9-66.9,191.4-86.4,271c-3.5,14.3-6.9,28.3-10.1,42c-113.4-77.1-164.6-139-200.5-187.2c-0.3-0.4-0.5-0.8-0.8-1.1
						c-0.2-0.3-0.4-0.6-0.7-0.8c0,0-0.1-0.1-0.1-0.1c-4.6-5.4-10.1-7-15.2-6.6c-1.1,0.1-2.2,0.3-3.3,0.7l-1.7,0.5c0,0,0,0,0,0
						c-1.2,0.5-2.3,1.1-3.4,1.8l-0.2,0.2c0,0,0,0,0,0l0,0l-7.8,5v0c0,0,0,0,0,0l-0.4,0.2c-0.1,0-0.1,0.1-0.2,0.1
						c-4.6,3.2-4.2,9.6-3.8,13.9c0,0,0,0,0,0c0.1,0.6,0.1,1.3,0.2,2c0.5,7.4,6.9,54.1,9.3,68.4c1,6.3,2,7.8,5.9,13.2
						c58.5,82.1,133.7,145.5,208.4,193.2c-1.9,40.2,1.6,61.8,6.2,75.2c0.4,1.3,1.2,2.4,2.2,3.4l5.9,5.6c4.9,2.9,43.9,24.8,61.6,31.6
						c0.3,0.1,0.5,0.2,0.7,0.3c0.1,0,0.1,0,0.2,0.1h0c1.5,0.5,2.4,0.6,3.1,0.6c0.2,0,0.5,0,0.7,0c0,0,0,0-0.1,0l5.5-0.5
						c0.7-0.1,1.5-0.4,2.1-0.8c0.1-0.1,0.2-0.2,0.3-0.3c0.1-0.1,0.2-0.2,0.3-0.3c0.2-0.2,0.3-0.4,0.5-0.6c0,0,0,0,0.1-0.1l0.1-0.1
						c0,0,0,0,0,0l0.2-0.3l5.6-9.6c1.6-2.7,2.8-5.5,3.5-8.5c2-7.5,6.3-23.4,11.1-37.1h0c0,0,0,0,0,0
						c94.6,41.8,185.5,66.8,286.2,74.9c2.6,0.2,5.2,0,7.7-0.6l2.1-0.5c2.9-0.7,5.7-1.9,8.2-3.5c9.4-5.9,33.8-21.4,45.5-29.8
						c0,0,0,0,0,0c0.7-0.5,1.5-1.1,2.2-1.6c0.1,0,0.1-0.1,0.2-0.1c0,0,0.1,0,0.1-0.1c0,0,0,0,0,0c0,0,0.1-0.1,0.1-0.1
						c0.2-0.1,0.3-0.2,0.5-0.4c0.1-0.1,0.2-0.1,0.3-0.2c0,0,0.1-0.1,0.1-0.1c0.3-0.2,0.5-0.4,0.8-0.6c0,0,0,0,0,0
						c0.4-0.3,0.7-0.7,1-0.9c0.5-0.5,1-0.9,1.5-1.3c0.7-0.7,1.4-1.4,1.9-2.5c0.6-1.2,1.1-2.9,1.5-5.5l0.9-6.6l0.6-4.2
						c0.2-3.7-1.1-6.6-3.4-8.7C3301.1,1174.1,3300.9,1174,3300.8,1173.9z"/>
					<path class="st2" d="M3004,400.4c-35.3-119-55.7-223.1-54.9-275c0.4-13,4.1-16.9,0-24.4l-12.3-15.9c-2.8-2.1-5.8-3.7-14.1-1
						l-1.1,0.5l-9.3,3.8c-79.6,37.3-196.9,105.5-287.3,250.4c-86.9,139-77.7,289.8-52.3,417.2c0,0,0,0,0,0l2.4,9.8
						c1.9,4.9,4.7,7.4,9.8,7.7l13.9,1.8c0,0,7.9,2.8,17.9-6.9c88.6-82.9,298.9-166,432.4-219.4h0L3004,400.4z M2823.6,201.2
						c-6.2,95.4,8.9,181.2,23.4,242.8c-103.9,46.9-184.1,112.1-231.8,155c-3.3-92,14.5-179.1,48.7-236.5l0,0
						C2699.6,301.5,2772.2,237.2,2823.6,201.2z"/>
				</g>
				<g>
					<path d="M3823.1,685.2c-3.5-105.2-37.9-169.5-77.1-206.8c-1.8-2.1-4.5-4.5-7.8-7.1c0,0,0,0,0,0c-0.8-0.6-1.6-1.2-2.4-1.8
						c-0.2-0.1-0.3-0.2-0.5-0.4c-0.3-0.2-0.7-0.5-1-0.7c-0.2-0.2-0.4-0.3-0.7-0.5c-0.3-0.2-0.7-0.5-1.1-0.7
						c-0.2-0.2-0.5-0.3-0.7-0.5c-0.4-0.2-0.7-0.5-1.1-0.7c-0.3-0.2-0.5-0.4-0.8-0.5c-0.6-0.4-1.3-0.8-2-1.2c-0.3-0.2-0.6-0.4-1-0.6
						c-0.4-0.2-0.7-0.4-1.1-0.6c-0.3-0.2-0.7-0.4-1-0.6c-0.4-0.2-0.7-0.4-1.1-0.6c-0.4-0.2-0.8-0.4-1.1-0.7
						c-0.4-0.2-0.7-0.4-1.1-0.6c-0.5-0.3-1-0.5-1.4-0.8c-0.4-0.2-0.8-0.4-1.2-0.6c-0.6-0.3-1.3-0.7-1.9-1c-0.3-0.2-0.7-0.3-1-0.5
						c-0.5-0.2-1-0.5-1.5-0.7c-0.4-0.2-0.7-0.4-1.1-0.5c-0.5-0.2-1-0.5-1.6-0.7c-0.4-0.2-0.7-0.3-1.1-0.5c-0.6-0.3-1.3-0.6-1.9-0.9
						c-0.3-0.1-0.5-0.2-0.8-0.4c-0.9-0.4-1.8-0.8-2.7-1.2c-0.3-0.1-0.6-0.2-0.9-0.4c-0.7-0.3-1.3-0.5-2-0.8
						c-0.4-0.1-0.7-0.3-1.1-0.4c-0.6-0.2-1.3-0.5-1.9-0.7c-0.4-0.1-0.7-0.3-1.1-0.4c-0.7-0.3-1.5-0.5-2.2-0.8
						c-0.3-0.1-0.6-0.2-0.8-0.3c-1-0.4-2-0.7-3.1-1.1c-0.2-0.1-0.5-0.2-0.7-0.2c-0.8-0.3-1.6-0.5-2.5-0.8c-0.4-0.1-0.7-0.2-1.1-0.3
						c-0.7-0.2-1.5-0.4-2.2-0.7c-0.4-0.1-0.8-0.2-1.1-0.3c-0.8-0.2-1.6-0.4-2.4-0.7c-0.3-0.1-0.6-0.2-1-0.3
						c-1.1-0.3-2.3-0.6-3.4-0.9c-0.1,0-0.3-0.1-0.4-0.1c-1-0.2-2-0.5-3-0.7c-0.4-0.1-0.8-0.2-1.1-0.2c-0.8-0.2-1.6-0.3-2.4-0.5
						c-0.4-0.1-0.8-0.2-1.2-0.2c-0.8-0.2-1.7-0.3-2.5-0.5c-0.4-0.1-0.7-0.1-1.1-0.2c-1.2-0.2-2.4-0.4-3.7-0.6
						c-8.4-1.3-17.3-2-26.5-2c0,0,0,0,0,0c-1.3,0-2.5,0-3.8,0c-0.3,0-0.6,0-0.9,0c-1.1,0-2.1,0.1-3.2,0.1c-0.2,0-0.4,0-0.5,0
						c-3.4,0.2-6.8,0.6-10.1,1.4c-27.2,6.6-118.6,37.7-210.7,171.4c-61,88.4-87.5,165-99.8,262.1c-16.4,129.1-2.5,178,35.9,231.8
						c-1.9-2.1-3.8-4.3-5.7-6.5c1.9,2.4,3.8,4.7,5.7,7c0.2,0.2,0.4,0.4,0.5,0.6c0.8,0.9,1.6,1.8,2.4,2.7c1,1.1,2,2.2,3,3.2
						c0,0,0.1,0.1,0.1,0.1c0.3,0.3,0.6,0.6,0.9,0.9c0.5,0.5,1.1,1.1,1.6,1.6c0.4,0.4,0.8,0.8,1.2,1.1c0.4,0.4,0.9,0.8,1.3,1.3
						c0.5,0.4,0.9,0.8,1.4,1.2c0.4,0.4,0.8,0.7,1.2,1.1c0.5,0.4,1,0.9,1.5,1.3c0.4,0.3,0.7,0.6,1.1,0.9c0.5,0.4,1.1,0.9,1.6,1.3
						c0.3,0.3,0.7,0.6,1,0.8c0.6,0.5,1.2,0.9,1.7,1.3c0.3,0.2,0.6,0.5,1,0.7c0.6,0.5,1.2,0.9,1.9,1.4c0.3,0.2,0.6,0.4,0.9,0.7
						c0.7,0.5,1.3,0.9,2,1.4c0.3,0.2,0.5,0.4,0.8,0.6c0.7,0.5,1.4,0.9,2.1,1.4c0.2,0.2,0.5,0.3,0.7,0.5c0.7,0.5,1.5,0.9,2.2,1.4
						c0.2,0.1,0.4,0.3,0.7,0.4c0.8,0.5,1.5,0.9,2.3,1.4c0.2,0.1,0.4,0.2,0.6,0.3c0.8,0.5,1.6,0.9,2.4,1.4c0.2,0.1,0.3,0.2,0.5,0.3
						c0.8,0.5,1.7,0.9,2.5,1.3c0.1,0.1,0.3,0.2,0.4,0.2c0.9,0.5,1.8,0.9,2.7,1.3c0.1,0.1,0.2,0.1,0.4,0.2c0.9,0.4,1.8,0.9,2.8,1.3
						c0.1,0,0.2,0.1,0.3,0.1c0.9,0.4,1.9,0.8,2.9,1.2c0.1,0,0.2,0.1,0.3,0.1c1,0.4,2,0.8,3,1.2c0.1,0,0.1,0.1,0.2,0.1
						c1,0.4,2,0.8,3,1.2c0,0,0.1,0,0.1,0.1c1,0.4,2.1,0.7,3.1,1.1c0,0,0.1,0,0.1,0c1.1,0.4,2.1,0.7,3.2,1c0,0,0,0,0.1,0
						c1.1,0.3,2.2,0.7,3.3,1c0,0,0,0,0,0c11.1,3.2,22.8,5.1,35.1,5.6c0,0,0,0,0,0c1.2,0.1,2.4,0.1,3.7,0.1c0.4,0,0.8,0,1.2,0
						c74.2,0,152.3-41.8,202.4-88.1C3728.8,999.2,3825,876.8,3823.1,685.2z M3797.4,746.7c0,0.1,0,0.3,0,0.4
						c-0.3,10.9-1.3,22.1-2.8,33.6c-0.4,3.1-0.9,6.2-1.4,9.3c-7.4,45.2-24.6,94-55.1,142.8c-15.3,24.4-30.8,45.4-46.4,63.3
						c-3.3,3.8-6.7,7.5-10,11.1c-1.3,1.4-2.6,2.8-3.9,4.1c-55.7,57.7-110.5,77.5-151.9,77.5c-17.2,0-32.1-3.4-43.7-9
						c-1.1-0.5-2.1-1-3.1-1.6c-4-2.2-7.6-4.6-10.7-7.3c-1.6-1.4-3.2-2.9-4.8-4.5c-0.8-0.8-1.6-1.7-2.4-2.5c-0.8-0.9-1.6-1.8-2.3-2.7
						c-3.5-4.4-6.8-9.3-10-14.7c0-0.1-0.1-0.2-0.2-0.3c-0.1-0.2-0.2-0.3-0.2-0.4c-0.1-0.2-0.2-0.3-0.3-0.5c-0.1-0.1-0.1-0.2-0.2-0.3
						c0,0-0.1-0.1-0.1-0.2c0-0.1-0.1-0.2-0.1-0.3c0,0,0-0.1,0-0.1c-0.1,0-0.1-0.1-0.1-0.2c0,0,0-0.1,0-0.1c0,0,0-0.1-0.1-0.1
						c0,0-0.1-0.1-0.1-0.1c-0.1-0.1-0.2-0.3-0.2-0.4c0,0,0-0.1-0.1-0.1c0-0.1-0.1-0.1-0.1-0.2c0,0,0,0,0-0.1
						c-0.1-0.1-0.1-0.2-0.2-0.3c0-0.1-0.1-0.2-0.2-0.3c0,0,0-0.1,0-0.1c0-0.1,0-0.1,0-0.1c0,0,0,0,0,0c-0.1-0.1-0.2-0.3-0.3-0.4
						c0-0.1,0-0.1-0.1-0.2c0-0.1-0.1-0.1-0.1-0.3c0,0-0.1-0.1-0.1-0.1c0-0.1-0.1-0.1-0.1-0.2c-0.1-0.2-0.1-0.3-0.2-0.4
						c0,0,0-0.1-0.1-0.1c-0.1-0.1-0.1-0.2-0.2-0.4c0,0,0,0,0-0.1c0,0,0-0.1-0.1-0.1c0-0.2-0.1-0.3-0.2-0.4c0,0,0-0.1,0-0.1
						c0-0.1-0.1-0.2-0.1-0.2c0-0.1-0.1-0.2-0.1-0.3c0-0.1-0.1-0.1-0.1-0.2c0-0.1-0.1-0.2-0.1-0.3c0,0,0-0.1-0.1-0.1
						c0-0.1-0.1-0.2-0.2-0.4c0,0,0-0.1-0.1-0.1c0-0.1-0.1-0.2-0.1-0.3c0,0,0,0-0.1,0c-0.1-0.1-0.1-0.1-0.2-0.2
						c-0.1-0.1-0.1-0.2-0.1-0.3c-0.1-0.1-0.1-0.2-0.1-0.3c0-0.1-0.1-0.2-0.1-0.3c0,0-0.1-0.1-0.1-0.1c-0.1-0.1-0.1-0.2-0.1-0.3
						c-0.1-0.1-0.1-0.2-0.1-0.2c0-0.1,0-0.1-0.1-0.2c-0.1-0.1-0.1-0.3-0.1-0.3c0,0,0-0.1,0-0.1c0-0.1,0-0.1-0.1-0.1
						c0-0.2-0.1-0.3-0.2-0.4c0,0,0-0.1,0-0.1c0-0.1-0.1-0.3-0.2-0.3c0-0.1-0.1-0.2-0.1-0.3c0,0,0,0,0-0.1c-0.1-0.1-0.1-0.3-0.2-0.4
						c0-0.1-0.1-0.2-0.1-0.3c0,0,0-0.1-0.1-0.1c0-0.1-0.1-0.1-0.1-0.2c0-0.1,0-0.2,0-0.2c-0.1,0-0.1-0.1-0.2-0.2
						c0-0.2-0.1-0.3-0.2-0.5c0,0,0,0,0-0.1c0,0,0-0.1,0-0.1c0-0.1,0-0.1-0.1-0.2c-0.1-0.1-0.1-0.2-0.2-0.3c0-0.1,0-0.1,0-0.2
						c0-0.1,0-0.2-0.1-0.3c0-0.1,0-0.1-0.1-0.1c-0.1-0.1-0.1-0.2-0.1-0.4c-0.1-0.1-0.1-0.1-0.1-0.2c-0.1-0.1-0.1-0.2-0.1-0.3
						c0-0.1-0.1-0.1-0.1-0.2c0-0.1,0-0.1-0.1-0.2c0,0,0-0.1-0.1-0.2c-0.1-0.1-0.1-0.2-0.1-0.4c0-0.1-0.1-0.2-0.1-0.2
						c0,0,0-0.1,0-0.1c0,0,0-0.1,0-0.1c0-0.1-0.1-0.2-0.1-0.3c0,0,0-0.1-0.1-0.1c0-0.1,0-0.1,0-0.2c0-0.1-0.1-0.2-0.2-0.3
						c0-0.1,0-0.1-0.1-0.2c0-0.1-0.1-0.2-0.1-0.3c0,0,0,0,0-0.1c0-0.1,0-0.2-0.1-0.3c-0.1-0.2-0.2-0.3-0.2-0.4c0-0.1,0-0.2-0.1-0.3
						c0,0,0-0.1,0-0.1c0-0.1,0-0.1-0.1-0.1c0-0.1-0.1-0.1-0.1-0.2c0,0,0,0,0,0c-0.1-0.1-0.1-0.3-0.1-0.4c-0.1-0.1-0.1-0.3-0.2-0.4
						c0-0.1-0.1-0.1-0.1-0.2c0-0.1-0.1-0.1-0.1-0.3c0-0.1-0.1-0.2-0.1-0.3c0-0.1-0.1-0.2-0.1-0.3s-0.1-0.2-0.1-0.3v-0.1
						c0-0.1-0.1-0.2-0.1-0.4c0,0,0-0.1,0-0.1c0,0,0-0.1-0.1-0.2c0-0.1,0-0.1-0.1-0.1c0,0,0-0.1,0-0.1c0-0.1-0.1-0.1-0.1-0.2
						c0-0.1,0-0.1,0-0.1c-0.1-0.2-0.1-0.3-0.2-0.5c0,0,0-0.1,0-0.1c0-0.1-0.1-0.3-0.1-0.5c0,0,0,0,0,0c-0.1,0-0.1-0.1-0.1-0.2
						c0,0,0,0,0,0c-0.1-0.1-0.1-0.2-0.1-0.3c0,0,0-0.1,0-0.1c0-0.1,0-0.1,0-0.1c-0.2-0.2-0.2-0.3-0.3-0.6c0-0.1,0-0.2,0-0.3
						c0-0.1,0-0.1-0.1-0.2c0,0,0-0.1,0-0.1c0,0,0-0.1-0.1-0.1c0,0,0,0,0,0c0-0.1-0.1-0.2-0.1-0.3c0-0.1-0.1-0.2-0.1-0.2
						c0-0.1-0.1-0.2-0.1-0.3c0-0.1,0-0.1-0.1-0.2c0,0,0,0,0-0.1c0-0.1-0.1-0.2-0.1-0.4c0-0.1,0-0.1,0-0.2c0,0,0-0.1-0.1-0.1
						c0-0.1-0.1-0.2-0.1-0.3c0-0.1,0-0.2,0-0.3c0,0,0,0,0,0c-0.1-0.1-0.1-0.3-0.2-0.5c0-0.1-0.1-0.3-0.2-0.4c0,0,0,0,0-0.1
						c0-0.2-0.1-0.3-0.1-0.5c0-0.1,0-0.1,0-0.2c-0.1-0.1-0.1-0.2-0.1-0.3c0,0,0-0.1,0-0.1c0-0.1,0-0.1-0.1-0.2c0,0,0-0.1,0-0.1
						c0-0.1-0.1-0.3-0.1-0.5c0,0,0-0.1-0.1-0.1c0-0.1-0.1-0.2-0.1-0.3c0,0,0-0.1,0-0.2c0,0,0,0,0-0.1c-0.1-0.2-0.1-0.3-0.1-0.4
						c0-0.1,0-0.1-0.1-0.2c0-0.1,0-0.2,0-0.3c-0.1-0.1-0.1-0.2-0.2-0.3c0-0.1-0.1-0.2-0.1-0.4c0-0.1,0-0.2-0.1-0.3c0,0,0-0.1,0-0.1
						c0-0.1-0.1-0.3-0.1-0.4c0-0.2-0.1-0.3-0.1-0.5c0,0,0,0,0-0.1c0,0,0,0,0,0c0-0.1,0-0.2,0-0.2c0-0.1,0-0.1-0.1-0.2
						c0-0.1-0.1-0.2-0.1-0.3c0-0.1-0.1-0.3-0.1-0.4c0-0.1,0-0.1,0-0.2c0-0.1,0-0.1,0-0.2c0,0,0-0.1,0-0.1c0-0.1,0-0.2-0.1-0.2
						c0-0.1-0.1-0.2-0.1-0.3c0-0.1,0-0.2,0-0.3c-0.1,0-0.1-0.1-0.1-0.1c0-0.1,0-0.1-0.1-0.2c0-0.1-0.1-0.2-0.1-0.3
						c0-0.2-0.1-0.3-0.1-0.5c0-0.1,0-0.2,0-0.2c0-0.1,0-0.1,0-0.2c0-0.1,0-0.2-0.1-0.3c-0.1-0.1-0.1-0.3-0.1-0.4c0,0,0-0.1-0.1-0.2
						c0-0.1,0-0.2-0.1-0.3c0,0,0-0.1,0-0.1c0-0.1-0.1-0.3-0.1-0.4c0-0.1,0-0.1,0-0.2c0-0.1,0-0.1-0.1-0.2c0-0.1,0-0.1,0-0.2
						c-0.1-0.2-0.1-0.3-0.1-0.5c-0.1-0.1-0.1-0.2-0.1-0.3c0,0,0,0,0,0c0-0.1-0.1-0.2-0.1-0.3c0,0,0-0.1,0-0.2c0-0.1,0-0.2-0.1-0.3
						c0-0.1-0.1-0.3-0.1-0.4c0-0.2-0.1-0.3-0.1-0.4c0,0,0-0.1,0-0.1c0-0.1,0-0.3-0.1-0.3c0-0.1-0.1-0.3-0.1-0.4
						c-0.1-0.1-0.1-0.2-0.1-0.3c0,0,0-0.1,0-0.1c0-0.1,0-0.2-0.1-0.3c0-0.1,0-0.2-0.1-0.3c0-0.1,0-0.2,0-0.3c0-0.1,0-0.1-0.1-0.2
						c0-0.1,0-0.2,0-0.3c0,0,0,0,0-0.1c0-0.2-0.1-0.3-0.1-0.5c0-0.1,0-0.2-0.1-0.3c0-0.1,0-0.1,0-0.2c0-0.1,0-0.1,0-0.2
						c-0.1-0.1-0.1-0.2-0.1-0.4c0,0,0-0.1,0-0.2c0-0.1,0-0.2-0.1-0.3c0,0,0-0.1-0.1-0.2c0-0.2-0.1-0.3-0.1-0.5c0-0.1,0-0.2,0-0.3
						c0-0.1,0-0.2,0-0.3c0,0,0-0.1,0-0.1c0-0.1,0-0.3-0.1-0.3c0-0.2,0-0.3,0-0.5c-0.1-0.1-0.1-0.2-0.1-0.3c0-0.2-0.1-0.4-0.1-0.5
						c0-0.1,0-0.2,0-0.3c0,0,0-0.1,0-0.1c0-0.1-0.1-0.3-0.1-0.4c0-0.1-0.1-0.2-0.1-0.3c0-0.1,0-0.3-0.2-0.4c0-0.2,0-0.3,0-0.5
						c0-0.1-0.1-0.2-0.1-0.3c0,0,0-0.1-0.1-0.2c0-0.1,0-0.3,0-0.4c0,0,0-0.1,0-0.1c0-0.1-0.1-0.2-0.1-0.3c0-0.1-0.1-0.2-0.1-0.3
						c-0.1-0.2-0.1-0.4-0.1-0.5c-0.7-4.7-1.3-9.6-1.8-14.7c-0.1-1.5-0.3-3-0.4-4.6c-0.3-3.9-0.5-7.8-0.6-11.9c0-1.4-0.1-2.8-0.1-4.2
						c0-1.4,0-2.8,0-4.2c-0.1-31.3,4.7-67.7,16.6-108.5c0.2-0.7,0.5-1.5,0.7-2.3c0.2-0.6,0.4-1.1,0.5-1.7c0.1-0.5,0.3-1,0.4-1.5
						c0.1-0.3,0.1-0.5,0.2-0.8c0.1-0.4,0.2-0.9,0.4-1.3c0.3-0.7,0.5-1.5,0.8-2.3c0.2-0.7,0.4-1.4,0.6-2.1c0.1-0.5,0.3-1,0.4-1.4
						c0.5-1.9,1.2-3.7,1.8-5.4c0.3-1.1,0.6-2.1,1-3.2c0.5-1.5,1.1-3,1.5-4.5c0.6-1.9,1.4-3.8,2-5.7c1-2.6,1.9-5.2,2.9-7.8
						c0.6-1.4,1.1-2.9,1.6-4.3c0.2-0.5,0.4-1.1,0.6-1.6c0.2-0.5,0.4-1,0.6-1.5c0.5-1.1,0.9-2.3,1.4-3.4c0.4-1.1,0.8-2.1,1.3-3.3
						c0.3-0.6,0.5-1.3,0.8-1.9c0.3-0.8,0.6-1.6,1-2.3c0.2-0.4,0.3-0.8,0.5-1.1c0.3-0.9,0.7-1.7,1.1-2.6c0.1-0.3,0.3-0.7,0.4-1
						c0.1-0.2,0.2-0.5,0.3-0.7c0.3-0.6,0.5-1.2,0.8-1.8c0.5-1.2,1-2.2,1.4-3.3c0.6-1.3,1.2-2.6,1.7-3.8c0.3-0.7,0.6-1.5,1-2.2
						c0.3-0.6,0.5-1.2,0.8-1.9c0.1-0.2,0.2-0.5,0.3-0.7c0.1-0.3,0.2-0.5,0.3-0.7c0.3-0.6,0.5-1.2,0.9-1.8c0.3-0.7,0.6-1.3,0.9-2
						c0.5-1,0.9-2,1.4-3c0.2-0.5,0.4-0.9,0.7-1.4c0.1-0.3,0.3-0.6,0.4-0.9c0.3-0.6,0.5-1.2,0.8-1.8c0.1-0.2,0.2-0.4,0.3-0.6
						c0-0.1,0.1-0.1,0.1-0.2c0.1-0.1,0.1-0.2,0.2-0.3c0.1-0.2,0.2-0.4,0.3-0.6c0.1-0.2,0.2-0.4,0.3-0.5c0.2-0.3,0.3-0.6,0.5-1
						c0.3-0.5,0.6-1.1,0.9-1.6c0.3-0.5,0.5-1,0.7-1.4c0.4-0.7,0.7-1.4,1.1-2.1c0.4-0.6,0.7-1.3,1.1-2c0.1-0.2,0.2-0.3,0.3-0.5
						c0.3-0.5,0.5-1,0.8-1.6c0.1-0.2,0.2-0.4,0.3-0.5c0.3-0.5,0.6-0.9,0.8-1.4c0.2-0.4,0.5-0.8,0.7-1.2c0.2-0.4,0.5-0.9,0.7-1.3
						c0.1-0.2,0.2-0.4,0.3-0.5c0.1-0.2,0.2-0.4,0.4-0.7c0.2-0.4,0.5-0.9,0.7-1.4c0.1-0.1,0.1-0.2,0.2-0.3c0.1-0.2,0.3-0.5,0.4-0.7
						c0-0.1,0.1-0.2,0.2-0.3c0.3-0.5,0.6-1,0.9-1.5c0.2-0.3,0.3-0.6,0.5-0.9c0.2-0.3,0.3-0.6,0.5-0.9c0.1-0.2,0.2-0.3,0.3-0.5
						c0.1-0.2,0.3-0.5,0.5-0.8c0.4-0.6,0.7-1.2,1.1-1.8c0.3-0.6,0.6-1.1,0.9-1.7c0.2-0.3,0.4-0.6,0.6-1c0-0.1,0.1-0.1,0.1-0.2
						c0,0,0.1-0.1,0.1-0.1c0.3-0.4,0.5-0.9,0.8-1.3c0.2-0.4,0.4-0.8,0.7-1.2c0-0.1,0.1-0.1,0.1-0.2c0-0.1,0.1-0.1,0.1-0.2
						c0.1-0.2,0.3-0.4,0.4-0.6c0.1-0.1,0.1-0.2,0.2-0.3c0.3-0.6,0.6-1.1,0.9-1.5c0.3-0.5,0.6-1,0.9-1.4c0.3-0.4,0.5-0.8,0.7-1.2
						c0.2-0.3,0.4-0.7,0.6-1c0.1-0.1,0.2-0.3,0.3-0.4c0.3-0.5,0.5-0.9,0.9-1.4c0.1-0.2,0.3-0.5,0.4-0.7c0,0,0,0,0,0
						c0.1-0.1,0.1-0.2,0.2-0.3c0.1-0.2,0.2-0.4,0.4-0.6c0.1-0.2,0.2-0.3,0.3-0.5c0.3-0.4,0.6-0.9,0.8-1.4c0.3-0.3,0.5-0.6,0.7-1
						c0.1-0.1,0.1-0.2,0.2-0.3c0.2-0.4,0.4-0.7,0.6-1.1c0.3-0.4,0.5-0.7,0.8-1.1c0-0.1,0.1-0.1,0.1-0.2c0-0.1,0.1-0.2,0.1-0.3
						c0.1-0.3,0.3-0.5,0.5-0.7c0-0.1,0.1-0.1,0.1-0.2c0-0.1,0.1-0.1,0.1-0.2c0.1-0.2,0.3-0.4,0.4-0.6c0.1-0.1,0.2-0.2,0.2-0.4
						c0.1-0.2,0.2-0.4,0.3-0.5c0-0.1,0.1-0.1,0.1-0.2c0.1-0.2,0.2-0.3,0.3-0.4c0.1-0.1,0.2-0.2,0.3-0.4c0.1-0.1,0.2-0.3,0.3-0.4
						c0.2-0.4,0.4-0.8,0.7-1.1c0,0,0-0.1,0.1-0.1c0,0,0-0.1,0.1-0.1c0.2-0.3,0.4-0.6,0.6-0.9c0.3-0.4,0.6-0.9,0.9-1.2
						c0.3-0.3,0.5-0.7,0.7-1c0.3-0.4,0.5-0.7,0.7-1.1c0.2-0.3,0.5-0.6,0.7-0.9c0.2-0.3,0.4-0.7,0.6-1c0,0,0-0.1,0.1-0.1
						c0-0.1,0.1-0.1,0.1-0.2c0.1-0.2,0.2-0.3,0.4-0.5c0.1-0.1,0.1-0.2,0.2-0.3c0.2-0.4,0.5-0.7,0.8-1.2c0.1-0.1,0.1-0.2,0.2-0.3
						c0.1-0.2,0.3-0.4,0.4-0.7c0.2-0.3,0.4-0.6,0.6-0.9c0,0,0,0,0-0.1c0.1-0.2,0.3-0.4,0.4-0.6s0.3-0.4,0.4-0.6
						c0.1-0.2,0.3-0.3,0.4-0.5c0.1-0.2,0.2-0.3,0.4-0.5c0.1-0.1,0.1-0.2,0.2-0.3c0.1-0.1,0.1-0.2,0.2-0.3c0.2-0.3,0.5-0.6,0.7-1
						c0,0,0-0.1,0.1-0.1c0,0,0.1-0.1,0.1-0.1c0.2-0.3,0.4-0.5,0.6-0.8c0-0.1,0.1-0.1,0.1-0.2c0,0,0,0,0-0.1c0.2-0.2,0.3-0.5,0.5-0.7
						c0.3-0.3,0.5-0.7,0.7-1c0.1-0.2,0.2-0.3,0.3-0.5c0-0.1,0.1-0.1,0.1-0.2c0.1-0.1,0.2-0.3,0.3-0.4c0.2-0.3,0.4-0.5,0.5-0.8
						c0.2-0.2,0.3-0.4,0.5-0.7c0,0,0.1-0.1,0.1-0.1c0,0,0.1-0.1,0.1-0.1c0.2-0.3,0.5-0.6,0.6-0.9c0.3-0.2,0.4-0.5,0.6-0.7
						c0.2-0.3,0.5-0.7,0.7-1c0.1-0.1,0.2-0.2,0.2-0.3c0.1-0.1,0.1-0.2,0.2-0.3c0.1-0.1,0.2-0.2,0.2-0.3c0.2-0.2,0.4-0.5,0.6-0.7
						c0,0,0,0,0-0.1c0,0,0,0,0-0.1c0.2-0.3,0.4-0.6,0.6-0.9c0.2-0.2,0.4-0.4,0.5-0.6c0.2-0.3,0.4-0.7,0.7-1c0.2-0.2,0.3-0.5,0.5-0.7
						c0,0,0.1-0.1,0.1-0.1c0,0,0,0,0.1-0.1c0.2-0.2,0.4-0.4,0.6-0.7c0,0,0.1-0.1,0.1-0.1c0.3-0.4,0.5-0.6,0.7-1
						c0.2-0.2,0.3-0.3,0.4-0.5c0.1-0.1,0.1-0.2,0.2-0.3c0.2-0.3,0.4-0.5,0.6-0.9c0.2-0.2,0.4-0.5,0.6-0.7c0.2-0.3,0.4-0.5,0.7-0.8
						c0.2-0.2,0.4-0.5,0.6-0.8c0,0,0,0,0-0.1c0,0,0-0.1,0.1-0.1c0.1-0.2,0.3-0.4,0.4-0.5c0.1-0.1,0.1-0.2,0.2-0.2
						c0-0.1,0.1-0.1,0.1-0.2c0.1-0.2,0.3-0.4,0.4-0.5c0.1-0.1,0.2-0.3,0.3-0.4c0-0.1,0.1-0.1,0.1-0.2c0.1-0.1,0.2-0.2,0.2-0.3
						c0.3-0.2,0.5-0.5,0.7-0.8c0,0,0,0,0-0.1c0.1-0.1,0.2-0.2,0.3-0.3c0.1-0.1,0.2-0.2,0.3-0.4c0.2-0.3,0.4-0.4,0.6-0.6
						c0.3-0.3,0.5-0.6,0.7-0.9c0.2-0.3,0.4-0.5,0.7-0.8c0,0,0,0,0-0.1c0.2-0.3,0.3-0.5,0.5-0.7c0.1-0.1,0.1-0.1,0.2-0.2
						c0.2-0.2,0.4-0.4,0.6-0.6c0.1-0.2,0.3-0.4,0.5-0.6c0,0,0,0,0-0.1c0,0,0-0.1,0.1-0.1c0.2-0.2,0.3-0.4,0.5-0.6
						c0.1-0.1,0.2-0.3,0.4-0.4c0,0,0,0,0,0c0.1-0.1,0.3-0.3,0.4-0.4c0.1-0.1,0.2-0.2,0.3-0.3c0.1-0.1,0.3-0.3,0.4-0.5
						c0-0.1,0.1-0.1,0.2-0.2c0.1-0.2,0.3-0.3,0.4-0.4c0.3-0.3,0.5-0.6,0.8-0.9c0.3-0.3,0.5-0.5,0.7-0.9c0.1-0.1,0.2-0.2,0.3-0.3
						c0.1-0.1,0.2-0.2,0.3-0.3c0,0,0,0,0,0c0.2-0.2,0.4-0.4,0.5-0.6c0.3-0.3,0.5-0.6,0.8-0.9c0.2-0.3,0.4-0.5,0.6-0.8
						c0.2-0.2,0.4-0.4,0.6-0.6c0,0,0,0,0,0c0,0,0,0,0-0.1c0.2-0.2,0.4-0.4,0.6-0.7c0.2-0.2,0.4-0.4,0.5-0.6c0.1-0.1,0.2-0.2,0.3-0.3
						c0.1-0.1,0.1-0.1,0.1-0.2c0.1-0.2,0.3-0.3,0.4-0.5c0.2-0.2,0.4-0.4,0.5-0.6c0.3-0.2,0.5-0.5,0.7-0.7c0.3-0.3,0.5-0.5,0.7-0.8
						c0.2-0.2,0.4-0.4,0.6-0.6c0,0,0,0,0-0.1c0.2-0.2,0.4-0.5,0.6-0.7c0,0,0,0,0-0.1c0.3-0.3,0.5-0.5,0.7-0.7
						c0.1-0.1,0.2-0.2,0.3-0.3c0.1-0.1,0.1-0.2,0.2-0.2c0.1-0.1,0.2-0.2,0.3-0.3c0.1-0.1,0.2-0.2,0.3-0.3c0.3-0.3,0.5-0.5,0.8-0.8
						c0.1-0.1,0.1-0.1,0.2-0.2c0.2-0.2,0.3-0.3,0.5-0.5c0.2-0.2,0.4-0.4,0.6-0.6c0.2-0.2,0.5-0.5,0.7-0.7c0,0,0,0,0,0
						c0.1-0.1,0.3-0.3,0.3-0.4c0.3-0.3,0.6-0.6,0.9-0.9c0,0,0,0,0,0c0.1-0.1,0.3-0.3,0.4-0.4c0.1-0.1,0.1-0.1,0.2-0.2
						c0,0,0.1-0.1,0.1-0.1c0.2-0.2,0.4-0.3,0.6-0.5c0.1-0.1,0.2-0.2,0.3-0.3c0,0,0,0,0,0c0.1-0.1,0.2-0.2,0.3-0.3
						c0.2-0.3,0.5-0.5,0.7-0.7c0,0,0,0,0,0c0.1-0.1,0.3-0.3,0.4-0.4c0.1-0.1,0.2-0.2,0.4-0.4c0,0,0.1-0.1,0.1-0.1
						c0.2-0.1,0.3-0.3,0.5-0.4c0.2-0.2,0.4-0.4,0.5-0.5c0,0,0,0,0,0v0c0.3-0.3,0.5-0.5,0.9-0.8c0.1-0.1,0.3-0.3,0.4-0.4
						c0.1-0.1,0.2-0.2,0.3-0.3c0,0,0.1-0.1,0.1-0.1c0.2-0.2,0.3-0.3,0.5-0.5c0.2-0.1,0.4-0.3,0.5-0.5c0,0,0.1-0.1,0.1-0.1
						c0.1-0.1,0.1-0.1,0.2-0.2c0.2-0.2,0.4-0.4,0.5-0.5c0.2-0.2,0.4-0.4,0.5-0.5c10.4-9.7,20.8-18.1,31.2-25.2
						c2.6-1.8,5.2-3.5,7.8-5.1c28.5-18,56.5-26.6,81.8-26.6c2.2,0,4.3,0.1,6.4,0.2c9.8,0.6,19.1,2.5,28,5.7c2.1,0.8,4.3,1.7,6.4,2.8
						c0.1,0.1,0.3,0.1,0.4,0.2c1.6,0.8,3.2,1.7,4.8,2.7c5.5,3.4,10.8,7.7,15.9,12.8c0,0,0,0,0.1,0.1c13.9,14.2,25.8,34.7,34.1,59.8
						c1.5,4.4,2.8,9,4.1,13.8c1.2,4.6,2.3,9.4,3.3,14.3C3796.2,702.2,3798,723.8,3797.4,746.7z"/>
					<path class="st1" d="M2922.7,223.8c-7.8-38-18.5-93-10.5-135.4c-79.6,37.3-196.9,105.5-287.3,250.4
						c-86.9,139-77.7,289.8-52.3,417.2c89.8-92.6,209.2-149.6,436.2-230.7C3008.9,525.4,2935,283.3,2922.7,223.8z M2852.7,447.4
						C2852.7,447.4,2852.7,447.4,2852.7,447.4c-134.4,61.7-219.5,135.7-276.2,193.8c-13.8-103.6-1.1-183.2,33.7-266.7
						c0,0.1,16.1-35.8,16.1-35.8c63.7-88.7,118.2-139.3,210.9-193.5c0,0,2.9-7.7,2.9-7.7c0,0,0,0,0,0c0,0,0,0,0,0
						c-18.7,52.7-18,117-10.1,181.1C2835.5,363,2844.4,407.3,2852.7,447.4C2852.7,447.4,2852.7,447.4,2852.7,447.4z"/>
					<path class="st1" d="M3542.5,116.1c-20.7-14.4-41.9-26.8-63.1-37.6c-1.8-0.9-3.5-1.8-5.3-2.6c-15.9-7.8-31.7-14.7-47.1-20.8
						c-1.7-0.7-3.4-1.3-5.1-2c-70-26.7-131.9-36-158.6-37.3c-3.3,0-10.5,0.5-16.7,3.7c0,0-0.1,0-0.1,0c-0.1,0-0.1,0.1-0.2,0.1
						l-6.4,11c-37.1,73-80.9,279.2-114.9,453.2c-0.2,1,0.8,1.8,1.7,1.4c57-22.6,207.8-68.8,320.7-98.1
						c110.5-28.9,227.7-37.8,321.7-24.1c0,0,0.6,0.1,0.7,0.1C3708.9,256.1,3650.1,191.1,3542.5,116.1z M3690.5,276c0,0-0.1,0-0.1,0
						c-0.1,0-0.2,0-0.2-0.1c-1.3-0.4-2.6-0.8-3.9-1.2c-0.2,0-0.3-0.1-0.5-0.1c-1.4-0.4-2.9-0.8-4.3-1.2
						c-101.2-27.2-306.9,3.3-386.8,24.8l0.1-0.1c8.2-54.1,15.4-105,20.9-147.8c7.2-55.3,11.5-97.1,11.5-115.1c0,0,0,0,0,0v0
						c0,0,0,0,0,0c1.3,0.3,2.6,0.6,4.1,0.9c0.3,0.1,0.6,0.2,1,0.2c0.9,0.2,1.8,0.4,2.8,0.7c1,0.2,2,0.5,2.9,0.7
						c1.1,0.3,2.2,0.6,3.3,0.8c0.8,0.2,1.6,0.4,2.5,0.6c0.9,0.2,1.8,0.5,2.7,0.7c-8.1-2-6.2,3.4,0.1,5.4
						c118.5,32.6,267.1,135.2,335,227.8L3690.5,276C3690.5,275.9,3690.5,275.9,3690.5,276C3690.5,276,3690.5,276,3690.5,276
						C3690.5,276,3690.5,276,3690.5,276z"/>
					<path class="st1" d="M3297.2,1204.1c-3.8,0.2-7.6,0.3-11.5,0.3c-25.6,0-53-3.1-81.8-8.4l0,0c-75-13.9-159.7-44-244.8-82.6
						c-3.2-1.5-1.4-3.2-0.4-5.2c2.5-4.9-0.3-7.2-0.2-7.8l-0.5,0.6l-11.9,14c0,0,71.8-177.7,139-335.4l0,0l-131.4-71.3
						c-50,110.7-83,204.4-111.9,345.6c-2.7-1.9-5.3-3.8-7.9-5.6c-3.4-2.4-6.7-4.8-10-7.2c-2-1.4-3.9-2.9-5.9-4.3
						c-100.2-73.5-158.7-132.8-208.3-205.3c0.1,0.6,0.1,1.3,0.2,2c0.5,7.4,6.9,54.1,9.3,68.4c1,6.3,2,7.8,5.9,13.2
						c58.5,82.1,133.7,145.5,208.4,193.2c-1.9,40.2,1.6,61.8,6.2,75.2c0.4,1.3,1.2,2.4,2.2,3.4l5.9,5.6c4.9,2.9,43.9,24.8,61.6,31.6
						c0.3,0.1,0.5,0.2,0.7,0.3c0.1,0,0.1,0,0.2,0.1h0c1.5,0.5,2.4,0.6,3.1,0.6c0.2,0,0.5,0,0.7,0c0.1,0,0.2,0,0.3-0.1
						c0.2,0,0.4-0.1,0.6-0.2c0.1,0,0.3-0.1,0.4-0.1c0.1,0,0.1-0.1,0.2-0.1c1.3-0.7,2.3-2.3,2.7-5.2c4.4-20.4,14.7-56.8,14.7-56.8
						l10.3,4.4c94.6,41.8,185.5,66.8,286.2,74.9c2.6,0.2,5.2,0,7.7-0.6l2.1-0.5c2.9-0.7,5.7-1.9,8.2-3.5
						c9.4-5.9,33.8-21.4,45.5-29.8c0,0,0,0,0,0c0.7-0.5,1.5-1.1,2.2-1.6c0.1,0,0.1-0.1,0.2-0.1c-0.5,0.4-1.1,0.8-1.7,1.3
						C3296.5,1207.5,3298.6,1205.3,3297.2,1204.1z M3160.9,1191.9c22.9,5.6,44.7,9.9,64.7,12.5
						C3205.6,1201.8,3183.8,1197.5,3160.9,1191.9z"/>
				</g>
			</g>
		</g>
		<g>
			<g>
				<path d="M1522.1,241.6h-311.9c-96.2,0-143.3,59.3-143.3,136.4v234.6c0,47.7-22.6,82.1-70.5,82.1H723.6c-1.9,0-3.5,1.6-3.5,3.5
					v47.1c0,1.9,1.6,3.5,3.6,3.5h308.8c96.2,0,143.3-59.2,143.3-136.3V378.1c0-47.8,22.7-82.2,70.4-82.2h275.9c2,0,3.5-1.6,3.5-3.5
					v-47.1C1525.6,243.3,1524,241.6,1522.1,241.6"/>
				<path d="M603.7,241.7H3.6c-1.9,0-3.5,1.6-3.5,3.5v47.1c0,1.9,1.6,3.5,3.5,3.5h564c47.7,0,70.5,34.4,70.5,82.2
					c0,47.7-22.7,82.1-70.5,82.1H121.5C52.2,460.3,0,518.6,0,595.7v149.9c0,1.9,1.6,3.5,3.5,3.5h101.8c1.9,0,3.5-1.6,3.5-3.5v-150
					c0-47.7,27.6-81.1,67.1-81.1h427.8c96.3,0,143.3-59.2,143.3-136.2C747.1,301,700,241.7,603.7,241.7"/>
				<path d="M2332.9,489.1c-1.5-1.5-1.6-4.1,0-5.7c29.8-24.7,44.6-62.1,44.6-105.2c0-77.2-47.1-136.4-143.3-136.4h-600.1
					c-1.9,0-3.5,1.6-3.5,3.5v47c0,2,1.6,3.5,3.5,3.5h564c47.8,0,70.5,34.4,70.5,82.2c0,47.7-22.7,82.1-70.5,82.1h-0.5h-0.2
					l-563.4,0.1c-1.9,0-3.5,1.6-3.5,3.5v47.1c0,1.9,1.6,3.5,3.5,3.5H2198c62.2,0.5,70.4,61,70.4,92l0.1,6.2
					c0,47.8-22.7,82.2-70.5,82.2H1634c-1.9,0-3.5,1.6-3.5,3.5v47c0,1.9,1.6,3.5,3.5,3.5h600.1c96.3,0,143.4-63.9,143.4-136.4v-6.1
					C2377.5,560.3,2362.6,516.1,2332.9,489.1"/>
			</g>
			<g>
				<path d="M594.5,895.1h21.8l53.9,86.9h0.3v-86.9h19.7v118h-21.8l-53.7-86.8h-0.5v86.8h-19.7V895.1z"/>
				<path d="M725,975.2c0,13.4,7.3,25.3,23,25.3c10.9,0,17.5-4.8,20.8-14.2h17.8c-4.1,18.7-20,29.1-38.7,29.1
					c-26.8,0-41.8-18.7-41.8-45c0-24.3,15.9-45.1,41.3-45.1c26.9,0,43.5,24.3,40.3,49.9H725z M769,962.9
					c-0.7-11.9-8.8-22.6-21.5-22.6c-13.1,0-22,9.9-22.5,22.6H769z"/>
				<path d="M792,927.7h14.2V902H825v25.6h17v14h-17v45.6c0,7.8,0.7,11.7,9.1,11.7c2.6,0,5.3,0,7.9-0.7v14.5c-4.1,0.3-8.1,1-12.2,1
					c-19.7,0-23.3-7.6-23.6-21.8v-50.4H792V927.7z"/>
				<path d="M846.2,927.7h20l16.7,63.8h0.3l16-63.8h19l15.4,63.8h0.3l17.4-63.8h19.2l-26.8,85.4h-19.3l-15.9-63.5h-0.3l-15.7,63.5
					h-19.8L846.2,927.7z"/>
				<path d="M976.9,970.3c0-26.1,15.7-45,43.1-45c27.4,0,43.1,18.8,43.1,45c0,26.3-15.7,45.1-43.1,45.1
					C992.6,1015.4,976.9,996.6,976.9,970.3z M1044.4,970.3c0-14.7-7.4-30.1-24.3-30.1c-16.9,0-24.3,15.4-24.3,30.1
					c0,14.9,7.4,30.2,24.3,30.2C1036.9,1000.5,1044.4,985.2,1044.4,970.3z"/>
				<path d="M1077.3,927.7h17.7v16.5h0.3c2.1-9.1,13.4-18.8,25-18.8c4.3,0,5.5,0.3,7.1,0.5V944c-2.6-0.3-5.5-0.8-8.1-0.8
					c-12.9,0-23.1,10.4-23.1,29.3v40.7h-18.8V927.7z"/>
				<path d="M1134.3,895.1h18.8v67.1l34-34.5h23.1l-32.7,31.4l35.9,54h-23l-26.1-41.5l-11.2,10.9v30.6h-18.8V895.1z"/>
				<path d="M1370.8,1013.1h-13.2l-3.1-13.9c-11.1,12.6-21.2,16.7-35.5,16.7c-35.4,0-56.5-28.1-56.5-61.8s21.2-61.8,56.5-61.8
					c25.8,0,47.4,13.7,50.6,40.3h-20.2c-2-15.5-15.5-23.5-30.4-23.5c-25.3,0-35.9,22.3-35.9,45c0,22.6,10.6,45,35.9,45
					c21.2,0.3,32.7-12.4,33.1-32.4h-31.4V951h50.2V1013.1z"/>
				<path d="M1460.5,994.1c0,4.6,1,6.4,4.5,6.4c1.2,0,2.6,0,4.6-0.3v13.1c-2.8,1-8.8,2.1-11.9,2.1c-7.6,0-13.1-2.6-14.5-10.4
					c-7.4,7.3-19.5,10.4-29.6,10.4c-15.4,0-29.3-8.3-29.3-25c0-21.3,17-24.8,32.9-26.6c13.6-2.5,25.6-1,25.6-12.1
					c0-9.8-10.1-11.6-17.7-11.6c-10.6,0-18,4.3-18.8,13.6h-18.8c1.3-22,20-28.4,38.8-28.4c16.7,0,34.2,6.8,34.2,24.8V994.1z
					 M1441.7,970.3c-5.8,3.8-14.9,3.6-23.1,5.1c-8.1,1.3-15.4,4.3-15.4,14.2c0,8.4,10.7,10.9,17.4,10.9c8.3,0,21.2-4.3,21.2-16.2
					V970.3z"/>
				<path d="M1479.2,927.7h17.8v11.9h0.5c5.6-8.4,12.7-14.2,26.3-14.2c10.4,0,20.2,4.5,24,14.2c6.3-8.8,14.4-14.2,26.8-14.2
					c18,0,28.6,7.9,28.6,28.8v59h-18.8v-49.9c0-13.6-0.8-23-15.5-23c-12.7,0-18.2,8.4-18.2,22.8v50.1h-18.8v-54.9
					c0-11.7-3.6-18-15-18c-9.8,0-18.7,7.9-18.7,22.1v50.7h-18.8V927.7z"/>
				<path d="M1636.1,975.2c0,13.4,7.3,25.3,23,25.3c10.9,0,17.5-4.8,20.8-14.2h17.8c-4.1,18.7-20,29.1-38.7,29.1
					c-26.8,0-41.8-18.7-41.8-45c0-24.3,15.9-45.1,41.3-45.1c26.9,0,43.5,24.3,40.3,49.9H1636.1z M1680,962.9
					c-0.7-11.9-8.8-22.6-21.5-22.6c-13.1,0-22,9.9-22.5,22.6H1680z"/>
				<path d="M1725.8,985.7c1,10.9,9.3,14.9,19.3,14.9c7.1,0,19.5-1.5,19-11.2c-0.5-9.9-14.2-11.1-27.9-14.2
					c-13.9-3-27.4-7.9-27.4-25.3c0-18.7,20.2-24.5,35.7-24.5c17.5,0,33.4,7.3,35.7,26.3h-19.7c-1.7-8.9-9.1-11.4-17.4-11.4
					c-5.5,0-15.5,1.3-15.5,8.8c0,9.3,13.9,10.6,27.8,13.7c13.7,3.1,27.6,8.1,27.6,25c0,20.3-20.5,27.8-38.2,27.8
					c-21.5,0-37.5-9.6-37.8-29.7H1725.8z"/>
			</g>
		</g>
	</g>
</g>
</svg>
