<?xml version="1.0" encoding="utf-8"?>
<!-- Generator: Adobe Illustrator 26.5.0, SVG Export Plug-In . SVG Version: 6.00 Build 0)  -->
<svg version="1.1" xmlns="http://www.w3.org/2000/svg" xmlns:xlink="http://www.w3.org/1999/xlink" x="0px" y="0px"
	 viewBox="0 0 3839 1126.3" style="enable-background:new 0 0 3839 1126.3;" xml:space="preserve">
<style type="text/css">
	.st0{fill:#FFFFFF;}
	.st1{fill-rule:evenodd;clip-rule:evenodd;}
	.st2{fill-rule:evenodd;clip-rule:evenodd;fill:#FFFFFF;}
</style>
<g id="Layer_1">
	<g>
		<g>
			<path class="st1" d="M860.6,384.8c-80.5,16.5-309.5,89.2-324.6,94.8c-10.7,3.8-33,11.7-51.8-5.7c-8.9-8.1-10.9-20.9-10.9-33.1
				c25.3-139,55.1-285.2,71.4-338.1c-57.4,4.5-111.4,18.8-161.1,42.4c1.1,10.9,2.1,21.7,4.4,34.1c23.2,132.6,73.4,271.6,73.4,271.6
				s5.2,15.8,5.2,18.9c0,19.5-13.6,36.3-34.1,43.2c-12.9,4.3-181.8,67-249.6,107.8c-18.8,11.4-36.2,25.9-54.1,39.1
				c10.8,51.1,31.1,98.1,57.4,141.6c19.8,19,39.8,36.2,57.4,50.1c28.9-108.2,71.2-222.3,79.9-244.9c4.9-13,15.2-22.6,28.6-26.6
				c12-3.7,25.5-2,36,4.3l41.8,23.8c91.9,52.3,92.7,53,96.2,55.5c11.2,8.7,17.7,21.4,17.7,34.8c0,7.2-1.7,14.2-5.2,20.8
				C518.3,758.6,459.5,899,432,965.2c80.1,34.6,147.4,50.1,192.8,57.7c19.8-1.8,39.7-3.4,58.7-7.6c-36.5-52.8-50.8-119.6-50.8-185.7
				C632.7,660.5,714.6,476.8,860.6,384.8 M218.9,277.5c-35.2,44.8-61.7,95.8-78.7,151.6c34.6-21.7,69.5-41.5,90.1-52.6
				C224.7,346.5,221.4,309.5,218.9,277.5 M1040.1,560.1c-9.7-6.9-23.8-3.4-23.8-3.4c-17.5,5.5-97.1,49.7-138.5,154.6
				c-24.1,61.5-31.4,112.8-31.4,149.2c0,32.7,4.6,57.4,28.4,60.1c102.8-84.4,169.7-210.3,171-353.4
				C1044.1,564.6,1042.3,561.8,1040.1,560.1 M738.7,127.9c-4.9,30.2-10.2,61.1-12.4,81.3c32.1-5.9,83.7-13.1,132.8-16.8
				C822.7,165.2,782.3,143.6,738.7,127.9 M50.3,746.1c0-8.2,12.1-12.2,17-14.6c6.8-3.6,9.4,0.3,10.7,2.1
				c69.2,107.2,189.9,183.8,189.9,183.8c25.1-116.8,80-265.4,92-296.7c1.5-3.9,6.7-3.9,8.1-2.8c1.6,1.2,131,74.4,134.3,77
				c3.3,2.4,2.5,4.9,1.7,6.4c-28,54-122.9,284-122.9,284c170.4,81.6,298.1,83.4,303.7,83.4c5.3,0-3.7,22.7-3.7,22.7l-53.5,34.6
				c-97.7,4.3-271.1-69.1-271.1-69.1l-13.5,39l-10.8,15.4l-69.1-34.3c-8.9-14.8-7.2-74.5-7.2-74.5
				C119.4,917.4,59.4,817.8,59.4,817.8L50.3,746.1 M1113.1,312.2c-43.2-68.5-117.9-168.5-253.3-246.5
				C778.4,18.8,655.1,0.5,655.1,0.5s-17.8-4.1-27.6,12.3c-4.8,7.9-22.5,35-38.7,86.8c-10.7,33.7-73.6,321.3-77.1,334.6
				c-3.7,13.4-2.4,13.4,10.9,8.6c13.2-5,279.6-89.7,346.6-99.2c67.4-9.6,105.6-20.2,237.8-15.1
				C1114.7,328.7,1122.9,327.6,1113.1,312.2 M684.9,253c5.3-39.9,8.9-93.4,26.2-190.4c165,54.2,257.7,161.3,257.7,161.3
				C858.9,213.9,684.9,253,684.9,253 M427.3,469.5c-26.2-68.9-58.8-174.8-77.9-283.7c-11.3-65.2-7-116.2-6.3-118.5
				c1.7-6.6-6.3-3.7-6.3-3.7C145.5,148.7,66.7,295.5,66.7,295.5c-103.3,174-58.3,345.3-48.5,388.7c1.7,8.2,7.4,6.9,12.9,2.2
				c9.3-8.1,58.3-54.5,131.6-99c73.5-44.4,249.3-108.6,257.6-111.4C428.4,473.3,427.3,469.5,427.3,469.5 M56.7,536.8
				c0.9-53.6,2.7-136.1,40-213.1c0,0,71.4-99.7,150.3-151.3c0,0,2.7,139.5,23.6,221.9C270.6,394.2,119.4,472.2,56.7,536.8
				 M1138.9,494.1c-47.1-118-166.7-130.5-251.9-79.8c-101.3,60.5-162.5,164.9-193.4,276c-27.6,99.6-40.3,241.1,37.4,324.1
				c56.1,59.6,221.2,40,330.1-106.9C1169.7,760.7,1186,611.9,1138.9,494.1 M999.4,896.6c-43.6,49-121.5,79.9-161.5,56.3
				c-39.9-23.7-43.6-136.1,3.6-255.7c27.8-70.4,86.8-154.2,163.3-177.7c0,0,94.2-30.8,94.2,114.2
				C1099,778.9,1042.8,847.6,999.4,896.6"/>
		</g>
		<g>
			<g>
				<path d="M1353.6,227.3h133c73.5,0,102,46.7,102,94.7c0,47.9-28.5,94.6-102,94.6h-68.1v105.8h-64.9L1353.6,227.3L1353.6,227.3z
					 M1418.5,366.1h50.5c30,0,57-6.6,57-44.1c0-37.6-26.9-44.3-57-44.3h-50.5V366.1z"/>
				<rect x="1621.5" y="227.3" width="58.7" height="295.1"/>
				<path d="M1723.4,374.4c3.2-54.9,52.4-71.6,100.2-71.6c42.7,0,94,9.5,94,60.9v111.1c0,19.5,2,38.8,7.3,47.6h-59.5
					c-2.1-6.6-3.7-13.7-4.2-20.6c-18.6,19.4-45.7,26.4-71.9,26.4c-40.4,0-72.7-20.2-72.7-64.1c0-48.3,36.4-59.9,72.7-64.9
					c36.1-5.4,69.5-4.1,69.5-28.1c0-25.2-17.4-28.9-38-28.9c-22.3,0-36.7,9.1-38.8,32.2L1723.4,374.4L1723.4,374.4z M1858.8,417.7
					c-9.9,8.8-30.7,9.1-48.7,12.4c-18.3,3.7-34.7,9.9-34.7,31.4c0,21.9,17,27.3,35.9,27.3c45.9,0,47.6-36.4,47.6-49.2V417.7z"/>
				<path d="M2065.6,549.2c-12.9,34.4-33,48.4-73.6,48.4c-12,0-23.9-1-35.9-2.2v-48.3c11.1,0.9,22.7,2.5,34.3,2.1
					c20.2-2.1,26.8-23.1,20.2-40.1l-75.1-200.4h62.8l48.3,146.3h0.7l46.8-146.3h60.7L2065.6,549.2z"/>
				<path d="M2227.9,424.4c0,39.3,30.5,54.6,65.2,54.6c22.8,0,57.5-6.6,57.5-36.7c0-31.9-44.2-37.2-87.5-48.8
					c-43.9-11.6-88-28.5-88-84c0-60.3,57-89.2,110.3-89.2c61.6,0,118.1,26.8,118.1,95.1h-62.7c-2.2-35.7-27.3-44.7-58.3-44.7
					c-20.6,0-44.7,8.7-44.7,33.5c0,22.7,14.1,25.6,88.1,44.6c21.5,5.3,87.6,19.1,87.6,85.9c0,54.2-42.7,94.6-122.8,94.6
					c-65.3,0-126.3-32.2-125.6-104.9L2227.9,424.4L2227.9,424.4z"/>
				<path d="M2526.4,308.7h43v39.2h-43v105.8c0,19.9,5,24.7,24.8,24.7c6.2,0,12-0.3,18.3-1.6v46c-10,1.6-22.8,1.9-34.4,1.9
					c-36,0-67.4-8.2-67.4-50.8v-126h-35.3v-39.2h35.3v-64.1h58.7L2526.4,308.7z"/>
				<path d="M2605.7,374.4c3.4-54.9,52.5-71.6,100.5-71.6c42.5,0,93.7,9.5,93.7,60.9v111.1c0,19.5,2.1,38.8,7.5,47.6h-59.5
					c-2.1-6.6-3.7-13.7-4.1-20.6c-18.5,19.4-45.8,26.4-71.9,26.4c-40.5,0-72.7-20.2-72.7-64.1c0-48.3,36.3-59.9,72.7-64.9
					c35.9-5.4,69.4-4.1,69.4-28.1c0-25.2-17.4-28.9-38-28.9c-22.3,0-36.6,9.1-38.7,32.2L2605.7,374.4L2605.7,374.4z M2741.2,417.7
					c-9.9,8.8-30.5,9.1-48.7,12.4c-18.1,3.7-34.7,9.9-34.7,31.4c0,21.9,17,27.3,36,27.3c45.8,0,47.5-36.4,47.5-49.2L2741.2,417.7
					L2741.2,417.7z"/>
				<path d="M2919.5,308.7h42.9V348h-42.9v105.7c0,19.9,5,24.7,24.8,24.7c6.3,0,12-0.3,18.2-1.6v46c-9.8,1.6-22.7,1.9-34.3,1.9
					c-36,0-67.3-8.2-67.3-50.8v-126h-35.4v-39.2h35.4v-64.1h58.7V308.7z"/>
				<path d="M3060,275.7h-58.7v-48.4h58.7V275.7z M3001.3,308.7h58.7v213.6h-58.7V308.7z"/>
				<path d="M3205.8,303c67.2,0,110.7,44.6,110.7,112.7c0,67.7-43.4,112.4-110.7,112.4c-67,0-110.4-44.7-110.4-112.4
					C3095.5,347.6,3138.8,303,3205.8,303 M3205.8,483.9c39.9,0,52-34.3,52-68.2c0-34.3-12.1-68.6-52-68.6
					c-39.8,0-51.8,34.4-51.8,68.6C3154.1,449.6,3166.1,483.9,3205.8,483.9"/>
				<path d="M3351.3,308.7h55.8v29.8h1.2c14.8-24.1,40.5-35.6,65.3-35.6c62.5,0,78,35.1,78,88v131.4h-58.7V401.6
					c0-35-10.3-52.4-37.6-52.4c-31.8,0-45.4,17.7-45.4,61.1v112.1h-58.6L3351.3,308.7L3351.3,308.7z"/>
				<polygon points="1353.6,625.9 1418,625.9 1541.2,823.8 1541.9,823.8 1541.9,625.9 1602.8,625.9 1602.8,920.9 1537.8,920.9 
					1415.2,723.4 1414.4,723.4 1414.4,920.9 1353.6,920.9 				"/>
				<path d="M1695.7,828.3c1.7,37.2,19.9,54.2,52.5,54.2c23.6,0,42.6-14.4,46.3-27.7h51.7c-16.6,50.4-51.7,72-100.1,72
					c-67.2,0-108.9-46.4-108.9-112.5c0-64.1,44.1-112.7,108.9-112.7c72.7,0,108,61,103.9,126.8H1695.7z M1791.2,791.2
					c-5.4-29.7-18.2-45.5-46.7-45.5c-37.2,0-47.8,28.9-48.8,45.5L1791.2,791.2L1791.2,791.2z"/>
				<path d="M1960.2,707.3h42.9v39.3h-42.9v105.7c0,19.9,5,24.7,24.7,24.7c6.3,0,12.1-0.3,18.3-1.6v45.9c-9.8,1.5-22.7,1.9-34.3,1.9
					c-36,0-67.3-8.3-67.3-50.8V746.6h-35.7v-39.3h35.7v-64.1h58.7L1960.2,707.3L1960.2,707.3z"/>
				<polygon points="2290.5,920.9 2230.2,920.9 2192,777.5 2191.3,777.5 2154.9,920.9 2094.2,920.9 2026.4,707.3 2088.4,707.3 
					2127.6,852.2 2128.5,852.2 2164.1,707.3 2221,707.3 2257.3,851.9 2258.2,851.9 2297.5,707.3 2357.8,707.3 				"/>
				<path d="M2476.1,701.6c67.4,0,110.7,44.5,110.7,112.7c0,67.7-43.2,112.4-110.7,112.4c-67,0-110.3-44.7-110.3-112.4
					C2365.7,746.1,2409.1,701.6,2476.1,701.6 M2476.1,882.5c40.1,0,52.1-34.3,52.1-68.2c0-34.3-12-68.6-52.1-68.6
					c-39.7,0-51.6,34.4-51.6,68.6C2424.5,848.2,2436.4,882.5,2476.1,882.5"/>
				<path d="M2619.3,707.3h55.8V747h0.8c10.8-26.8,39.8-45.5,68.2-45.5c4.2,0,9.2,0.9,12.9,2v54.6c-5.4-1.2-14-2-21.1-2
					c-42.9,0-57.8,31-57.8,68.6V921h-58.7L2619.3,707.3L2619.3,707.3z"/>
				<polygon points="2785.7,625.9 2844.3,625.9 2844.3,784.2 2918.2,707.4 2987.7,707.4 2907.2,785.9 2996.7,920.9 2925.8,920.9 
					2867.1,825.4 2844.3,847.4 2844.3,920.9 2785.7,920.9 				"/>
			</g>
			<g>
				<path d="M3711,350c25.2,2.1,61.5-2.9,61.5-35.9c0-24.4-19.4-38.4-40.9-38.4c-29.3,0-45,21.9-44.6,51.6h-55.7
					c2.1-59.1,40.5-99.9,99.9-99.9c46.3,0,97,28.5,97,80.1c0,27.3-13.6,51.6-40.5,59.1v0.8c31.8,7,51.2,33.4,51.2,65.7
					c0,60.7-50.8,95-107.4,95c-64.8,0-108.6-38.8-107.4-105.3h55.7c1.2,31.4,16.9,57,50.8,57c26.4,0,47.1-18.2,47.1-45.4
					c0-43.8-38.4-42.9-66.9-42.9V350z"/>
			</g>
		</g>
	</g>
</g>
<g id="Layer_2">
</g>
</svg>
