<?xml version="1.0" encoding="utf-8"?>
<!-- Generator: Adobe Illustrator 26.0.3, SVG Export Plug-In . SVG Version: 6.00 Build 0)  -->
<svg version="1.1" id="Layer_1" xmlns="http://www.w3.org/2000/svg" xmlns:xlink="http://www.w3.org/1999/xlink" x="0px" y="0px"
	 viewBox="0 0 3807.8 670.4" style="enable-background:new 0 0 3807.8 670.4;" xml:space="preserve">
<style type="text/css">
	.st0{fill:#FFFFFF;}
	.st1{fill:url(#SVGID_1_);}
	.st2{fill:url(#SVGID_00000129179540810756592490000013538024133957029305_);}
	.st3{fill:url(#SVGID_00000173139410607178274650000009824015488816394161_);}
	.st4{fill:url(#SVGID_00000061443067533381889300000011863685700405635510_);}
	.st5{fill:url(#SVGID_00000163770307591417251800000015472716885590443183_);}
	.st6{fill:url(#SVGID_00000002352070100253843070000000676705224424653184_);}
	.st7{fill:url(#SVGID_00000013173286767331913610000008579854740513954703_);}
	.st8{fill:url(#SVGID_00000174573116161513524250000001848987901679413134_);}
	.st9{fill:url(#SVGID_00000155121545585026119590000012670450154982045631_);}
	.st10{fill:url(#SVGID_00000176728819759371864660000007303948089564508086_);}
	.st11{fill:url(#SVGID_00000004547713524945482350000011217076347082238849_);}
	.st12{fill:url(#SVGID_00000134936294677615436040000015969166282321197490_);}
	.st13{fill:url(#SVGID_00000101823164656607687700000005623567053269075368_);}
	.st14{fill:url(#SVGID_00000155110245795357816150000011245452559313160120_);}
	.st15{fill:url(#SVGID_00000058579200281558622940000009758640404106675350_);}
	.st16{fill:url(#SVGID_00000131333025431605670930000011535045755323678107_);}
	.st17{fill:url(#SVGID_00000106106579488827358490000013250008702759558054_);}
	.st18{fill:url(#SVGID_00000140008816214591043350000011703769660628924050_);}
	.st19{fill:url(#SVGID_00000025434185845652396140000013938361595163047076_);}
	.st20{fill:url(#SVGID_00000129189160188772325720000002065310471664822452_);}
	.st21{fill:url(#SVGID_00000049941211760523716330000003823793036524418193_);}
	.st22{fill-rule:evenodd;clip-rule:evenodd;}
	.st23{fill:#00AD9C;}
	.st24{fill:#FBB817;}
	.st25{fill:#0174BA;}
	.st26{fill:#EB2027;}
	.st27{fill-rule:evenodd;clip-rule:evenodd;fill:#FFFFFF;}
</style>
<g>
	<g>
		<g>
			<path class="st22" d="M64.3,570.4c-67.5-19.3-78.7-59.5-48-82.6C44.7,466.4,93,450.3,93,450.3l199.8-72.1v82.2L149,512.6
				c-25.4,9.3-29.4,22.3-8.7,29.2s58,4.9,83.5-4.4l68.9-25.4v73.5c-4.4,0.8-9.2,1.6-13.8,2.3C210.2,599.4,136.7,594.6,64.3,570.4
				L64.3,570.4z"/>
			<path class="st22" d="M485.9,579l224.3-81.1c25.5-9.3,29.4-22.3,8.7-29.2s-58-4.9-83.5,4.4l-149.4,53.4v-85.1l8.7-3
				c0,0,43.1-15.5,103.8-22.3s135,0.9,193.4,23.4c65.8,21.1,73.2,52.2,56.5,73.6c-16.7,21.4-57.7,36.7-57.7,36.7l-304.6,111V579z"/>
			<path class="st22" d="M512.1,53.4c118.1,41.1,158.1,92.3,158.1,207.8c0,112.4-68.4,155-155.3,112.5V164.1
				c0-24.6-4.4-47.2-27.2-53.6c-17.4-5.7-28.3,10.8-28.3,35.3v524.6l-139.4-44.9V0C379.3,11.1,465.7,37.5,512.1,53.4L512.1,53.4z"/>
		</g>
	</g>
	<g>
		<g>
			<path d="M1099.6,199.1v337.6h52.7V231.5h48.8c0,0,35.4,0,47.6,15.8c10.3,13.5,12.2,37.9,12.2,54.4c0,17.6-1.1,44.9-7,54.9
				c-9,15.3-23.7,18.3-37.2,18.3h-32.2v30h46.3c0,0,41.8,1.7,59.7-16.5c22-22.4,27.6-52.5,27.6-92.8c0-36.6-13.3-73.6-40.4-86.1
				c-22.5-10.3-63-10.3-63-10.3H1099.6"/>
			<rect x="1359.5" y="199.1" width="52.7" height="337.6"/>
			<polyline points="1692.5,277.9 1788.9,530.5 1733.6,666.1 1777.3,666.1 1936.7,277.9 1887.9,277.9 1818.5,467.1 1753.9,277.9 
				1692.5,277.9 			"/>
			<path d="M1976.4,534.7v-31.9c0,0,55.7,2.2,67.3,2.2c25.7,0,38.6-5.5,48.2-15.8c5.7-6.2,10.9-33.8,10.9-43.6
				c0-9.8-1.9-30.9-5.7-39.6c-3.9-8.5-12.9-16.4-26.4-17.6c-9.6-0.8-24.4-2.8-41.8-3.6c-24.3-1.1-40.4-13.8-48.2-23
				c-7.7-9.1-18-22.9-18-65c0-42.2,10.9-65.8,21.8-76.7c10.9-11,26.9-15.8,39.2-18c14.1-2.4,37.2-2.6,37.2-2.6l73.8,2.2v31.9
				c0,0-53.8-2.2-65.4-2.2c-25.7,0-33.4,5.5-43.1,15.8c-5.7,6.2-10.1,23.2-10.1,32.9c0,9.8,1.1,29.6,5,38.2
				c3.8,8.5,12.8,16.4,26.3,17.6c9.6,0.7,24.4,2.7,41.8,3.5c24.4,1.1,40.5,13.8,48.2,23c7.7,9.2,18.1,28.5,18.1,70.5
				c0,42.2-11,72.3-21.9,83.2c-11,11-26.9,15.8-39.2,18c-14.2,2.4-37.3,2.6-37.3,2.6L1976.4,534.7"/>
			<path d="M2263.9,231.5h-52.7v247.8c0,0,1.3,22.6,2.6,30.6c1.3,8,12.9,26.8,43.1,26.8l54.6-1.1v-31.8c0,0-14.8,1.1-23.7,1.1
				c-9,0-20-0.6-21.9-15.9c-2-15.3-2-33.5-2-33.5V309.6h59.5v-31.8h-59.5V231.5"/>
			<rect x="2772.5" y="277.9" width="52.7" height="258.8"/>
			<rect x="2772.5" y="199.1" width="52.7" height="47"/>
			<path d="M2955.5,325.3c-7.2,8.9-16.1,27.7-16.1,82c0,54.3,8.8,73.1,16.1,82c7.2,8.8,20.5,14.8,37.8,14.8c17.3,0,30.5-6,37.8-14.8
				c7.2-8.9,16.1-27.7,16.1-82c0-54.3-8.8-73.1-16.1-82c-7.3-8.9-20.6-14.8-37.8-14.8C2976,310.5,2962.7,316.4,2955.5,325.3
				 M2991.6,275.7c35.8,0,63.7,8,78.6,20.1c15.1,12.1,33.6,37.6,33.6,111.6c0,73.9-18.5,99.4-33.6,111.6
				c-14.9,12.1-42.7,20.1-78.6,20.1c-35.9,0-63.6-8.1-78.7-20.1c-15.1-12.1-33.5-37.6-33.5-111.6c0-73.9,18.4-99.4,33.5-111.6
				C2928,283.7,2955.7,275.7,2991.6,275.7z"/>
			<path d="M3213,314.2l51.7-2.2c13.5,0,29.4,3.7,37.1,13.4c7.2,9.2,11.7,20.2,11.7,37.9v173h52.8V359c0-33.6-10.3-53.1-25.8-65.3
				c-22.1-17.5-61.7-15.8-61.7-15.8l-118,2.1v256.4h52.3V314.2"/>
			<path d="M2667.5,231.5h-52.7v247.8c0,0,1.2,22.6,2.5,30.6c1.3,8,12.8,26.8,43.1,26.8l54.6-1.1v-31.8c0,0-14.8,1.1-23.8,1.1
				s-19.9-0.6-21.9-15.9c-1.9-15.3-1.9-33.5-1.9-33.5V309.6h59.4v-31.8h-59.4V231.5"/>
			<path d="M1612.1,363.4c0-17.7-4.5-28.7-11.8-37.9c-7.7-9.8-23.6-13.4-37.1-13.4l-69.5,2.2V280l83.6-2.1c0,0,39.6-1.7,61.7,15.8
				c15.4,12.3,25.7,31.8,25.7,65.3v174.9l-101,2.2c0,0-45.7,0.2-68.8-9.2c-22.4-9.1-34.7-34.2-34.7-69c0-33.6,10.3-53.1,25.7-65.3
				c22.1-17.6,61.7-15.8,61.7-15.8h32.3v29.8h-18.1c-13.6,0-27.5,2.5-35.2,12.3c-7.2,9.1-11.1,17.1-11.1,34.8
				c0,23.2,4.5,33.6,15.4,41.5c9.7,7,27,8.6,46.2,8.6l34.8-2.1V363.4"/>
			<path d="M2500.6,363.4c0-17.7-4.4-28.7-11.7-37.9c-7.8-9.8-23.7-13.4-37.1-13.4l-69.5,2.2V280l83.6-2.1c0,0,39.6-1.7,61.7,15.8
				c15.4,12.3,25.7,31.8,25.7,65.3v174.9l-101,2.2c0,0-45.8,0.2-68.8-9.2c-22.5-9.1-34.8-34.2-34.8-69c0-33.6,10.4-53.1,25.7-65.3
				c22.1-17.6,61.7-15.8,61.7-15.8h32.2v29.8h-18.1c-13.5,0-27.5,2.5-35.1,12.3c-7.2,9.1-11.1,17.1-11.1,34.8
				c0,23.2,4.5,33.6,15.4,41.5c9.6,7,27,8.6,46.3,8.6l34.7-2.1V363.4"/>
		</g>
		<path d="M3807.7,242.7c0.7,38.9-1.2,59.4-14.3,78.9c-11.5,17.1-34.3,32.8-84.8,32.8l-62.6-1.9c-9.8,0.1-35.5,3.1-47.6,16.1
			c-10.4,11.1-11.1,19.5-12.3,49.3v87.3H3799v42.9h-232.5l-11.1-0.1c-15.8,0-31.4-10.7-31.4-32.2v-65.1
			c1.1-76.2,6.6-87.2,23.1-107.1c11.5-13.8,38.3-29.2,71-30.9c6.4-0.4,18.6-1.2,35.4-0.6c12.5,0.4,24.8,0.7,30.3,0.8
			c29,0.4,39.5-5,47.5-15.4c9-11.7,13.8-25.5,13.8-48.1c0-21.1-4.2-41.2-12.3-50.4c-9.8-10.7-19.1-17.8-46.4-17.9
			c-68.7-0.2-149,1.6-149,1.6v-40.4c0,0,78.5-3.4,158.5-4.6c49.9-0.8,77.2,12.4,91.2,30.6C3801.8,187.6,3807.1,205.5,3807.7,242.7"
			/>
	</g>
</g>
</svg>
