<?xml version="1.0" encoding="utf-8"?>
<!-- Generator: Adobe Illustrator 27.0.0, SVG Export Plug-In . SVG Version: 6.00 Build 0)  -->
<svg version="1.1" id="Layer_1" xmlns="http://www.w3.org/2000/svg" xmlns:xlink="http://www.w3.org/1999/xlink" x="0px" y="0px"
	 viewBox="0 0 3839 423.89" style="enable-background:new 0 0 3839 423.89;" xml:space="preserve">
<style type="text/css">
	.st0{fill:#FFFFFF;}
	.st1{fill:#120F26;}
	.st2{fill:#E22B17;}
	.st3{fill:#FFDA40;}
</style>
<g>
	<polygon points="2835.29,423.89 2856.73,321.45 2658.33,321.45 2725.5,0 2705.23,0 2610.11,0 2515,0 2589.86,96.89 2521.49,423.89 
			"/>
	<path d="M3802.26,261.4c5.93-27.08,1.48-49.94-13.34-68.59c-14.82-18.64-35.77-27.96-62.85-27.96h-167.2
		c-5.1,0-7.23-2.55-6.36-7.65l9.85-47.1c1.26-5.1,4.43-7.65,9.53-7.65h140.71c5.09,0,7.03,2.56,5.78,7.65l-4.8,24.14h115.39
		l7.76-37.68c5.53-27.08,0.99-49.94-13.63-68.59C3808.47,9.33,3787.62,0,3760.53,0h-195.8h-9.67h-184.26l78.17,101.18l-12.49,61.31
		c-5.92,27.08-1.48,49.95,13.34,68.58c14.82,18.65,35.77,27.97,62.85,27.97h167.2c5.09,0,7.03,2.56,5.78,7.65l-9.85,47.1
		c-0.86,5.1-3.85,7.65-8.94,7.65h-140.71c-5.1,0-7.23-2.55-6.36-7.65l5.38-24.14h-115.39l-7.76,37.68
		c-5.92,27.08-1.48,49.95,13.34,68.59c14.82,18.65,35.77,27.96,62.85,27.96h208.41c27.08,0,49.4-9.32,66.96-27.96
		c17.56-18.64,29.3-41.5,35.23-68.59L3802.26,261.4z"/>
	<path d="M1943.84,261.4c5.93-27.08,1.48-49.94-13.34-68.59c-14.82-18.64-35.77-27.96-62.85-27.96h-167.2
		c-5.1,0-7.23-2.55-6.36-7.65l9.85-47.1c1.26-5.1,4.43-7.65,9.53-7.65h140.71c5.09,0,7.03,2.56,5.78,7.65l-4.8,24.14h115.39
		l7.76-37.68c5.53-27.08,0.99-49.94-13.63-68.59C1950.05,9.33,1929.2,0,1902.11,0h-195.8h-9.67h-184.26l78.17,101.18l-12.49,61.31
		c-5.92,27.08-1.48,49.95,13.34,68.58c14.82,18.65,35.77,27.97,62.85,27.97h167.2c5.09,0,7.03,2.56,5.78,7.65l-9.85,47.1
		c-0.86,5.1-3.85,7.65-8.94,7.65h-140.71c-5.1,0-7.23-2.55-6.36-7.65l5.38-24.14h-115.39l-7.76,37.68
		c-5.92,27.08-1.48,49.95,13.34,68.59c14.82,18.65,35.77,27.96,62.85,27.96h208.41c27.08,0,49.4-9.32,66.96-27.96
		c17.55-18.64,29.3-41.5,35.23-68.59L1943.84,261.4z"/>
	<path d="M2483.29,96.55c5.53-27.08,0.99-49.94-13.63-68.59C2455.03,9.33,2434.18,0,2407.1,0h-212.36h-4.87H2004.5l79.03,102.28
		l-46.7,225.05c-5.93,27.08-1.49,49.95,13.34,68.59c14.82,18.65,35.77,27.96,62.85,27.96h217.24c27.08,0,49.89-9.32,68.44-27.96
		c18.54-18.64,30.77-41.5,36.7-68.59L2483.29,96.55z M2313.43,321.45h-152.48c-5.11,0-7.23-2.55-6.36-7.65l42.55-203.7
		c1.25-5.1,4.43-7.65,9.54-7.65h152.48c5.1,0,7.03,2.56,5.78,7.65l-42.56,203.7C2321.51,318.9,2318.53,321.45,2313.43,321.45z"/>
	<path d="M436.59,272.58H321.2l-9.31,44.16c-0.5,3.14-2.32,4.71-5.46,4.71H151.02c-5.1,0-7.23-2.55-6.36-7.65l42.56-203.7
		c1.26-5.1,4.43-7.65,9.53-7.65h155.42c3.14,0,4.26,1.57,3.38,4.71l-8.72,44.15h115.39l19.56-94.78
		c3.28-15.69,0.59-29.04-8.06-40.03C465.07,5.5,452.89,0,437.19,0H190.23h-16.2H0l74.74,96.74L26.89,327.33
		c-5.93,27.08-1.48,49.95,13.34,68.59c14.82,18.65,35.77,27.96,62.85,27.96h245.5c15.69,0,30.21-5.49,43.54-16.48
		c13.32-10.98,21.62-24.33,24.91-40.03L436.59,272.58z"/>
	<path d="M978.56,96.55c5.53-27.08,0.99-49.94-13.63-68.59C950.31,9.33,929.46,0,902.37,0H690.01h-4.87H499.78l79.03,102.28
		l-46.7,225.05c-5.93,27.08-1.49,49.95,13.34,68.59c14.82,18.65,35.77,27.96,62.85,27.96h217.24c27.08,0,49.89-9.32,68.44-27.96
		c18.54-18.64,30.77-41.5,36.7-68.59L978.56,96.55z M808.71,321.45H656.23c-5.11,0-7.23-2.55-6.36-7.65l42.55-203.7
		c1.25-5.1,4.43-7.65,9.54-7.65h152.48c5.1,0,7.03,2.56,5.78,7.65l-42.56,203.7C816.79,318.9,813.8,321.45,808.71,321.45z"/>
	<polygon points="1416.21,423.88 1504.82,0 1389.43,0 1336.7,251.98 1220.47,0 1200.2,0 1105.08,0 1009.97,0 1084.82,96.89 
		1016.46,423.88 1131.85,423.88 1184.59,171.91 1306.71,423.88 	"/>
	<g>
		<polygon points="3104.1,102.44 3178.45,102.44 3341.94,102.44 3363.39,0 3095.95,0 3010.15,0 2905.72,0 2984.86,102.44 
			2988.73,102.44 3074.37,102.44 		"/>
		<polygon points="3296.22,321.45 3058.37,321.45 3072.26,254.92 3283.62,254.92 3301.56,168.97 3164.44,168.97 3090.2,168.97 
			2974.83,168.97 2921.53,423.89 3274.77,423.89 		"/>
	</g>
</g>
</svg>
