<?xml version="1.0" encoding="utf-8"?>
<!-- Generator: Adobe Illustrator 27.0.0, SVG Export Plug-In . SVG Version: 6.00 Build 0)  -->
<svg version="1.1" id="Layer_1" xmlns="http://www.w3.org/2000/svg" xmlns:xlink="http://www.w3.org/1999/xlink" x="0px" y="0px"
	 viewBox="0 0 3839 437.58" style="enable-background:new 0 0 3839 437.58;" xml:space="preserve">
<style type="text/css">
	.st0{fill:#FFFFFF;}
	.st1{fill:#120F26;}
	.st2{fill:#E22B17;}
	.st3{fill:#FFDA40;}
</style>
<g>
	<polygon points="2868.67,0 2755.62,0 2600.82,149.7 2497.33,0 2495.99,0 2396.44,0 2299.61,0 2375.82,98.64 2304.96,437.58 
		2424.08,437.58 2463.35,248.27 2516.08,331.83 2609.67,331.83 2697.81,247.66 2658.06,437.58 2777.19,437.58 	"/>
	<path d="M1523.56,167.13l-18.65,88.13h89.95l-14.34,68.68c-0.9,5.27-4.37,7.9-10.45,7.9h-160.45c-3.25,0-4.61-1.61-4.09-4.86
		l44.49-213.32c1.3-5.26,4.57-7.9,9.84-7.9h285.08L1767.08,0h-313.93h-10.65h-185.73l77.15,99.86l-58.1,279.38
		c-3.4,16.21-0.62,29.99,8.32,41.33c8.93,11.35,21.5,17.02,37.71,17.02h277.74c50.24,0,82.37-33.22,96.38-99.67l35.45-170.78
		H1523.56z"/>
	<path d="M964.6,281.39H845.48l-9.61,45.58c-0.51,3.25-2.4,4.86-5.63,4.86H669.79c-5.27,0-7.46-2.63-6.57-7.9l43.93-210.28
		c1.3-5.26,4.57-7.9,9.84-7.9h160.45c3.24,0,4.4,1.62,3.48,4.86l-9,45.58h119.12l20.2-97.85c3.39-16.2,0.61-29.98-8.32-41.33
		C993.99,5.68,981.42,0,965.22,0H710.27h-16.72H513.9l77.16,99.87l-49.4,238.05c-6.12,27.96-1.53,51.57,13.77,70.8
		c15.29,19.25,36.93,28.87,64.88,28.87h253.43c16.2,0,31.19-5.67,44.95-17.02c13.75-11.34,22.32-25.12,25.72-41.33L964.6,281.39z"/>
	<path d="M2265.62,99.67c5.71-27.96,1.02-51.55-14.07-70.8C2236.46,9.63,2214.93,0,2186.97,0h-216.5h-23.57h-172.81l81.34,105.28
		l-69.29,332.3h119.12l36.6-174.43h170.78l-36.6,174.43h119.12L2265.62,99.67z M1960.39,174.43l10.81-53.48
		c2.27-10.12,8.47-15.19,18.6-15.19h140.39c10.12,0,14.06,5.07,11.79,15.19l-10.82,53.48H1960.39z"/>
	<g>
		<polygon points="3080.11,105.75 3156.86,105.75 3325.64,105.75 3347.78,0 3071.7,0 2983.13,0 2875.32,0 2957.02,105.75 
			2961.02,105.75 3049.42,105.75 		"/>
		<polygon points="3278.44,331.83 3032.91,331.83 3047.25,263.16 3265.43,263.16 3283.95,174.43 3142.4,174.43 3065.77,174.43 
			2946.66,174.43 2891.64,437.58 3256.3,437.58 		"/>
	</g>
	<path d="M3801.07,269.84c6.12-27.96,1.52-51.55-13.77-70.8c-15.3-19.24-36.93-28.87-64.88-28.87h-172.6c-5.27,0-7.46-2.63-6.57-7.9
		l10.16-48.62c1.3-5.26,4.57-7.9,9.84-7.9h145.26c5.26,0,7.25,2.64,5.96,7.9l-4.95,24.92h119.12l8.01-38.9
		c5.71-27.96,1.02-51.55-14.07-70.8C3807.48,9.63,3785.96,0,3758,0h-202.13h-9.98h-190.21l80.7,104.45l-12.89,63.29
		c-6.11,27.96-1.53,51.56,13.77,70.8c15.3,19.25,36.92,28.87,64.88,28.87h172.6c5.26,0,7.26,2.64,5.96,7.9l-10.17,48.62
		c-0.89,5.27-3.97,7.9-9.23,7.9h-145.26c-5.27,0-7.46-2.63-6.56-7.9l5.56-24.92h-119.12l-8.01,38.9
		c-6.11,27.96-1.53,51.57,13.77,70.8c15.29,19.25,36.93,28.87,64.88,28.87h215.15c27.96,0,51-9.62,69.13-28.87
		c18.12-19.24,30.25-42.85,36.37-70.8L3801.07,269.84z"/>
	<path d="M481.24,99.67c2.87-12.96,2.95-25.73,0.24-38.29c-3.94-18.23-12.9-33.02-26.9-44.37C440.58,5.68,423.25,0,402.59,0H162.4
		h-58.83H0l81.52,105.51l-0.05,0.24h0.24h58.43h60.43h95.5h57.05c3.24,0,5.22,1.62,5.91,4.86c0.26,1.22,0.27,2.23,0.05,3.04
		l-15.11,72.09c-1.29,5.27-4.37,7.9-9.23,7.9l-271.56-0.38L12.09,437.58h119.12l29.6-143.05h192.05c27.96,0,51.58-9.72,70.89-29.17
		c19.3-19.45,31.84-42.94,37.65-70.5L481.24,99.67z"/>
</g>
</svg>
