<?xml version="1.0" encoding="utf-8"?>
<!-- Generator: Adobe Illustrator 27.0.0, SVG Export Plug-In . SVG Version: 6.00 Build 0)  -->
<svg version="1.1" id="Layer_1" xmlns="http://www.w3.org/2000/svg" xmlns:xlink="http://www.w3.org/1999/xlink" x="0px" y="0px"
	 viewBox="0 0 3839 647.76" style="enable-background:new 0 0 3839 647.76;" xml:space="preserve">
<style type="text/css">
	.st0{fill:#FFFFFF;}
	.st1{fill:#120F26;}
	.st2{fill:#E22B17;}
	.st3{fill:#FFDA40;}
</style>
<g>
	<path d="M3096.07,34.62c-16.13-10.91-33.98-19.57-53.07-25.51c-19.07-5.93-39.37-9.1-60.16-9.1h-344.11
		c-11.18,0-20.24,9.06-20.24,20.25V141.7c0,11.18,9.06,20.23,20.24,20.23h344.11c5.82,0.01,10.94,1.15,15.74,3.16
		c7.16,3.01,13.5,8.25,17.88,14.74c2.2,3.27,3.9,6.78,5.06,10.52c1.16,3.76,1.79,7.7,1.8,12.07v242.9
		c-0.01,5.82-1.13,10.93-3.15,15.73c-3.01,7.18-8.25,13.51-14.76,17.89c-3.24,2.2-6.77,3.89-10.51,5.06
		c-3.75,1.15-7.7,1.8-12.07,1.82h-202.41V263.15c0-11.18-9.06-20.23-20.24-20.23h-121.46c-11.18,0-20.24,9.05-20.24,20.23V627.5
		c0,11.18,9.06,20.25,20.24,20.25h344.11c27.73,0.01,54.56-5.67,78.82-15.94c36.43-15.44,67.18-40.99,88.99-73.25
		c10.91-16.13,19.57-33.98,25.51-53.06c5.94-19.07,9.11-39.37,9.11-60.17v-242.9c0.01-27.72-5.66-54.56-15.94-78.81
		C3153.9,87.17,3128.33,56.44,3096.07,34.62z"/>
	<path d="M1461.16,15.96c-36.43,15.42-67.18,40.96-88.99,73.24c-10.91,16.14-19.57,33.99-25.51,53.08
		c-5.94,19.07-9.11,39.38-9.11,60.16v242.9c-0.01,27.73,5.66,54.56,15.94,78.81c15.43,36.45,40.99,67.18,73.25,88.99
		c16.13,10.91,33.99,19.57,53.07,25.5c19.07,5.95,39.37,9.12,60.16,9.12h303.63c11.18,0,20.24-9.06,20.24-20.25V506.05
		c0-11.18-9.06-20.23-20.24-20.23h-303.63c-5.82-0.01-10.94-1.14-15.74-3.15c-7.16-3.02-13.5-8.27-17.88-14.76
		c-2.2-3.24-3.89-6.79-5.06-10.52c-1.16-3.76-1.8-7.69-1.81-12.07v-242.9c0.01-5.81,1.13-10.93,3.15-15.73
		c3.01-7.16,8.25-13.51,14.76-17.89c3.24-2.18,6.77-3.89,10.5-5.06c3.75-1.15,7.7-1.82,12.07-1.82h303.63
		c11.18,0,20.24-9.05,20.24-20.23V20.25c0-11.18-9.06-20.25-20.24-20.25h-303.63C1512.25-0.01,1485.42,5.67,1461.16,15.96z"/>
	<g>
		<path d="M820.96,445.33c0.01-5.81,1.13-10.93,3.15-15.74c3.01-7.16,8.25-13.5,14.75-17.88c3.25-2.19,6.78-3.91,10.51-5.06
			c3.75-1.15,7.7-1.81,12.07-1.81H967.3l84.16,223.97c4.27,11.36,15.21,18.94,27.35,18.94h132.51c9.79,0,16.56-9.78,13.12-18.94
			l-95.34-253.76c24.73-15.16,45.88-35.42,62.08-59.38c10.91-16.14,19.57-33.99,25.51-53.09c5.94-19.05,9.11-39.36,9.11-60.16
			c0.01-27.72-5.66-54.54-15.94-78.81c-15.43-36.43-40.99-67.17-73.25-89c-16.13-10.89-33.99-19.57-53.07-25.5
			C1064.46,3.17,1044.16,0,1023.37,0H679.26c-11.18,0-20.24,9.06-20.24,20.25v121.46c0,11.17,9.06,20.23,20.24,20.23h344.11
			c5.82,0,10.94,1.14,15.74,3.15c7.16,3.01,13.5,8.26,17.88,14.76c2.2,3.24,3.89,6.78,5.06,10.5c1.16,3.76,1.8,7.7,1.81,12.07
			c-0.01,5.82-1.13,10.95-3.15,15.74c-3.01,7.16-8.25,13.51-14.76,17.88c-3.24,2.2-6.77,3.89-10.5,5.06
			c-3.75,1.16-7.7,1.8-12.07,1.8H861.44c-27.72-0.01-54.56,5.67-78.82,15.95c-36.43,15.42-67.18,40.98-88.99,73.25
			c-10.9,16.14-19.57,33.98-25.51,53.06c-5.94,19.07-9.12,39.38-9.11,60.17v182.17c0,11.18,9.06,20.25,20.24,20.25h121.46
			c11.18,0,20.24-9.06,20.24-20.25V445.33z"/>
		<path d="M372.56,19.65C368.98,8.18,358.3,0.33,346.28,0.33H217.1c-12.01,0-22.69,7.84-26.27,19.32L0.69,628.11
			c-3,9.59,4.16,19.32,14.2,19.32h129.18c11.91,0,22.39-8.04,25.5-19.55l112.12-416.8l112.12,416.8
			c3.1,11.52,13.58,19.55,25.5,19.55H548.5c10.05,0,17.2-9.73,14.2-19.32L372.56,19.65z"/>
	</g>
	<path d="M2332.03,19.65c-3.58-11.47-14.26-19.32-26.27-19.32h-129.18c-12.01,0-22.69,7.84-26.27,19.32l-190.14,608.46
		c-3,9.59,4.16,19.32,14.2,19.32h129.18c11.91,0,22.39-8.04,25.5-19.55l112.12-416.8l112.12,416.8c3.1,11.52,13.58,19.55,25.5,19.55
		h129.19c10.05,0,17.2-9.73,14.2-19.32L2332.03,19.65z"/>
	<path d="M3312.71,20.25c0-11.18,9.06-20.25,20.24-20.25h485.81c11.18,0,20.24,9.06,20.24,20.25V141.7
		c0,11.18-9.06,20.23-20.24,20.23h-485.81c-11.18,0-20.24-9.05-20.24-20.23V20.25z M3499.39,482.67
		c-7.15-3.02-13.5-8.27-17.88-14.76c-2.19-3.24-3.89-6.79-5.05-10.52c-1.16-3.76-1.81-7.69-1.81-12.07v-40.48h263.15
		c11.18,0,20.24-9.06,20.24-20.25V263.15c0-11.18-9.06-20.23-20.24-20.23h-404.84c-11,0-20.24,8.61-20.24,19.61
		c-0.01,47.53-0.01,166.22,0,182.8c-0.01,27.73,5.66,54.56,15.94,78.81c15.43,36.45,40.98,67.18,73.25,88.99
		c16.14,10.91,33.99,19.57,53.08,25.5c19.06,5.95,39.37,9.12,60.16,9.12h303.63c11.18,0,20.24-9.06,20.24-20.25V506.05
		c0-11.18-9.06-20.23-20.24-20.23h-303.63C3509.32,485.81,3504.2,484.68,3499.39,482.67z"/>
</g>
</svg>
