<?xml version="1.0" encoding="utf-8"?>
<!-- Generator: Adobe Illustrator 25.0.0, SVG Export Plug-In . SVG Version: 6.00 Build 0)  -->
<svg version="1.1" id="Layer_1" xmlns="http://www.w3.org/2000/svg" xmlns:xlink="http://www.w3.org/1999/xlink" x="0px" y="0px"
	 viewBox="0 0 3840 584.4" style="enable-background:new 0 0 3840 584.4;" xml:space="preserve">
<style type="text/css">
	.st0{fill:#F2B11C;}
	.st1{fill:none;stroke:#000000;stroke-width:20.2827;stroke-linecap:round;stroke-linejoin:round;stroke-miterlimit:10;}
	.st2{fill:none;stroke:#000000;stroke-width:12.3778;stroke-linecap:round;stroke-linejoin:round;stroke-miterlimit:10;}
	.st3{fill:#FFFFFF;}
	.st4{fill:none;stroke:#FFFFFF;stroke-width:20.2827;stroke-linecap:round;stroke-linejoin:round;stroke-miterlimit:10;}
	.st5{fill:none;stroke:#FFFFFF;stroke-width:12.3778;stroke-linecap:round;stroke-linejoin:round;stroke-miterlimit:10;}
</style>
<g>
	<path d="M3840,236.8V0h-563.9v584.4H3840V520h-348.9V388.9h122.5V368h-122.5V236.8H3840z M3327.1,51v194.3c0,3.5-2.8,6.3-6.3,6.3
		s-6.3-2.8-6.3-6.3V44.7c0-3.5,2.8-6.3,6.3-6.3h264.4c3.5,0,6.3,2.8,6.3,6.3s-2.8,6.3-6.3,6.3H3327.1z"/>
	<path d="M1843.4,140.7c-23-37.8-54.3-70.1-91.8-94.2C1704.6,16.1,1649.9,0,1593.5,0c-161.1,0-292.2,131.1-292.2,292.2
		s131.1,292.2,292.2,292.2c56.3,0,111-16.1,158.1-46.4c37.5-24.2,68.8-56.4,91.8-94.2l-319.5-151.5L1843.4,140.7z M1577,366.9
		c1.5-3.2,5.3-4.5,8.4-3l192,91.1c1.8,0.9,3.1,2.5,3.5,4.5c0.4,2-0.2,4-1.6,5.5c-14.5,15.6-30.8,29.3-48.6,40.7
		c-1.1,0.7-2.2,1-3.4,1c-2.1,0-4.1-1-5.3-2.9c-1.9-2.9-1-6.8,1.9-8.7c14.4-9.3,27.9-20.2,40.1-32.5L1580,375.3
		C1576.9,373.8,1575.5,370,1577,366.9z"/>
	<path d="M300.3,32.6L0,584.4h600.6L300.3,32.6z M300.3,409.1c-17.3,0-31.3-14-31.3-31.3c0-17.3,14-31.3,31.3-31.3
		c17.3,0,31.3,14,31.3,31.3C331.6,395.1,317.6,409.1,300.3,409.1z M525.4,546H393.2c-3.5,0-6.3-2.8-6.3-6.3c0-3.5,2.8-6.3,6.3-6.3
		h121.6l-64.9-119.2c-1.7-3.1-0.5-6.9,2.5-8.6c3.1-1.7,6.9-0.5,8.6,2.5l70,128.6c1.1,2,1,4.3-0.1,6.2
		C529.7,544.8,527.6,546,525.4,546z"/>
	<path d="M2165.7,32.6l-300.3,551.8H2466L2165.7,32.6z M2165.7,409.1c-17.3,0-31.3-14-31.3-31.3c0-17.3,14-31.3,31.3-31.3
		c17.3,0,31.3,14,31.3,31.3C2197,395.1,2183,409.1,2165.7,409.1z M2390.7,546h-132.2c-3.5,0-6.3-2.8-6.3-6.3c0-3.5,2.8-6.3,6.3-6.3
		h121.6l-64.9-119.2c-1.7-3.1-0.5-6.9,2.5-8.6c3.1-1.7,6.9-0.5,8.6,2.5l70,128.6c1.1,2,1,4.3-0.1,6.2
		C2395,544.8,2393,546,2390.7,546z"/>
	<path d="M2892.2,0h-330.4v584.4h330.4c161.1,0,292.2-131.1,292.2-292.2C3184.4,131.1,3053.3,0,2892.2,0z M2889.5,405.9
		c-17.3,0-31.3-14-31.3-31.3c0-17.3,14-31.3,31.3-31.3c17.3,0,31.3,14,31.3,31.3C2920.8,391.9,2906.8,405.9,2889.5,405.9z
		 M3075.9,467.1c-42.8,45-100.3,72.6-161.8,77.9c-0.2,0-0.4,0-0.5,0c-3.2,0-6-2.5-6.3-5.8c-0.3-3.5,2.3-6.5,5.8-6.8
		c121.4-10.4,216.1-110.2,220.2-232c0.1-3.4,2.9-6.1,6.3-6.1c0.1,0,0.1,0,0.2,0c3.5,0.1,6.2,3,6.1,6.5
		C3143.7,362.9,3118.9,422,3075.9,467.1z"/>
	<path d="M1022.7,367.6c4.8-10.8,15.5-17.7,27.3-17.7h7.7c96.5,0,174.9-78.5,174.9-174.9c0-96.5-78.5-174.9-174.9-174.9H696.4v584.4
		h498.8l-167.3-184.7C1020,391,1017.9,378.4,1022.7,367.6z M1057.7,298.8c61.4,0,114.2-45.8,122.7-106.6c0.5-3.5,3.7-5.9,7.1-5.4
		c3.5,0.5,5.9,3.7,5.4,7.1c-4.5,32.3-20.6,62-45.3,83.6c-24.9,21.8-56.8,33.9-89.9,33.9c-3.5,0-6.3-2.8-6.3-6.3
		S1054.2,298.8,1057.7,298.8z M945,178.3c0-17.3,14-31.3,31.3-31.3c17.3,0,31.3,14,31.3,31.3c0,17.3-14,31.3-31.3,31.3
		C959,209.6,945,195.6,945,178.3z M1100.1,542.2c-1,2.3-3.3,3.8-5.8,3.8H962.3c-3.5,0-6.3-2.8-6.3-6.3c0-3.5,2.8-6.3,6.3-6.3h117.8
		l-90-99.3c-5.5-6-10-12.9-13.4-20.3c-1.5-3.2-0.1-6.9,3.1-8.4c3.2-1.5,6.9-0.1,8.4,3.1c2.9,6.2,6.7,12,11.3,17.1l99.6,109.9
		C1100.7,537.3,1101.1,539.9,1100.1,542.2z"/>
</g>
</svg>
