<?xml version="1.0" encoding="utf-8"?>
<!-- Generator: Adobe Illustrator 26.0.3, SVG Export Plug-In . SVG Version: 6.00 Build 0)  -->
<svg version="1.1" id="Layer_1" xmlns="http://www.w3.org/2000/svg" xmlns:xlink="http://www.w3.org/1999/xlink" x="0px" y="0px"
	 viewBox="0 0 3839 1190.8" style="enable-background:new 0 0 3839 1190.8;" xml:space="preserve">
<style type="text/css">
	.st0{fill:#FFFFFF;}
	.st1{fill:#FF0000;}
	.st2{fill:url(#SVGID_1_);}
	.st3{fill:url(#SVGID_00000183945261858583938910000007437646860315081872_);}
	.st4{fill:url(#SVGID_00000013900937590208885570000014430198251784410496_);}
	.st5{fill:url(#SVGID_00000080886542006448967660000009304184128389725071_);}
	.st6{fill:url(#SVGID_00000179610367960928078210000016942555748377585844_);}
	.st7{fill:url(#SVGID_00000165940442909511285410000003996133376380746669_);}
	.st8{fill:#3636FF;}
	.st9{display:none;}
	.st10{display:inline;}
	.st11{font-family:'FuturaPT-Bold';}
	.st12{font-size:1260.3585px;}
	.st13{letter-spacing:-25;}
	.st14{enable-background:new    ;}
	.st15{fill:url(#SVGID_00000016786830416087403890000004419592629193166511_);}
	.st16{fill:url(#SVGID_00000008117541381538442210000008520551776225123473_);}
	.st17{fill:url(#SVGID_00000176761750751586343310000001501097127079391882_);}
	.st18{fill:url(#SVGID_00000110454398145317872290000001339882274244253364_);}
	.st19{fill:url(#SVGID_00000089572805959110525630000006769706867929392559_);}
	.st20{fill:url(#SVGID_00000072964209481997421760000012335810333662331834_);}
	.st21{fill:url(#SVGID_00000043449687260102572060000013231280815686624152_);}
	.st22{fill:url(#SVGID_00000011735220800420737010000015106157614833778054_);}
	.st23{fill:url(#SVGID_00000181046491433759481770000002946158738798383038_);}
	.st24{fill:url(#SVGID_00000023281895155756760120000005545032586678001081_);}
	.st25{fill:url(#SVGID_00000132770685648764746330000003385068200637167256_);}
	.st26{fill:url(#SVGID_00000036212031020031219980000017121574806439920319_);}
	.st27{fill:url(#SVGID_00000082337906717265720230000003729871201607646082_);}
	.st28{fill:url(#SVGID_00000077295361346536071200000016783768005551998385_);}
	.st29{fill:url(#SVGID_00000096036177699455487030000003488084228887038117_);}
	.st30{fill:url(#SVGID_00000103236581683419891760000007718379305621604743_);}
	.st31{fill:url(#SVGID_00000127749559443138190340000008335293163929291660_);}
	.st32{fill:url(#SVGID_00000131327933136225657380000005554082161336569481_);}
	.st33{fill:url(#SVGID_00000155107650550962368730000014902697361057309835_);}
	.st34{fill:url(#SVGID_00000145743160495763365220000016016831569517459884_);}
	.st35{fill:url(#SVGID_00000096764353333854151170000000873737360475916169_);}
	.st36{fill:url(#SVGID_00000096052381122908949450000014298134260013949334_);}
	.st37{fill:url(#SVGID_00000072999177893049387340000005790456753854952837_);}
	.st38{fill:url(#SVGID_00000028292499269612554620000016852363338510404498_);}
	.st39{fill:url(#SVGID_00000093870663715159858210000011554794275303504277_);}
	.st40{fill:url(#SVGID_00000093177752820786926980000006715873940569638582_);}
	.st41{fill:url(#SVGID_00000008857089614173355120000015120733275814003072_);}
	.st42{fill:url(#SVGID_00000119098911705426801400000006637591194598449827_);}
</style>
<g>
	<g>
		<path d="M0,849.4V539.6c0-28.4,24.5-54.2,63.3-54.2h358.9c2.6,0,3.9,0,6.5,0c15.5,0,19.4-1.3,19.4-19.4v-59.4
			c0-15.5-7.7-19.4-25.8-19.4H37.4C12.9,387.3,0,386,0,360.2v-42.6C0,290.4,5.2,284,37.4,284h462.1c37.4,0,55.5,19.4,55.5,56.8
			v433.7c0,20.7,9,31,27.1,31h21.9c16.8,0,27.1,9,27.1,29.7v42.6c0,20.7-12.9,33.6-32.3,33.6H56.8C23.2,911.4,0,886.8,0,849.4z
			 M422.1,800.3c23.2,0,25.8-3.9,25.8-25.8V620.9c0-24.5-2.6-31-25.8-31H207.8c-21.9,0-23.2,5.2-23.2,24.5c0,2.6,0,3.9,0,6.5v153.6
			c0,18.1,6.5,25.8,23.2,25.8H422.1z"/>
		<path d="M675.1,338.2c0-31,23.2-54.2,60.7-54.2h361.4c31,0,52.9,21.9,52.9,49.1v100.7c0,29.7-6.5,41.3-34.9,41.3h-52.9
			c-23.2,0-32.3-7.7-32.3-29.7v-40c0-19.4-1.3-23.2-20.7-23.2H815.8c-19.4,0-21.9,9-21.9,28.4v63.3c0,24.5,3.9,45.2,14.2,63.3
			l37.4,71c15.5,31,16.8,50.3,16.8,67.1c0,2.6,0,5.2,0,7.7V870c0,28.4-14.2,41.3-42.6,41.3H719c-24.5,0-43.9-19.4-43.9-46.5V338.2z"
			/>
		<path d="M1218.6,830V355c0-43.9,27.1-71,60.7-71h457c34.9,0,58.1,23.2,58.1,52.9v83.9c0,41.3-3.9,47.8-46.5,47.8h-109.7
			c-31,0-47.8-1.3-47.8-29.7v-27.1c0-23.2-7.7-24.5-25.8-24.5c-1.3,0-2.6,0-5.2,0h-188.5c-24.5,0-29.7,2.6-29.7,27.1v362.7
			c0,21.9,6.5,27.1,29.7,27.1h284c21.9,0,23.2,0,23.2-21.9v-36.1c0-23.2,5.2-28.4,29.7-28.4h51.6c24.5,0,34.9,7.7,34.9,31v105.9
			c0,40-15.5,56.8-55.5,56.8h-453.1C1254.7,911.4,1218.6,873.9,1218.6,830z"/>
		<path d="M1888.5,849.4V539.6c0-28.4,24.5-54.2,63.3-54.2h358.9c2.6,0,3.9,0,6.5,0c15.5,0,19.4-1.3,19.4-19.4v-59.4
			c0-15.5-7.7-19.4-25.8-19.4H1926c-24.5,0-37.4-1.3-37.4-27.1v-42.6c0-27.1,5.2-33.6,37.4-33.6h462.1c37.4,0,55.5,19.4,55.5,56.8
			v433.7c0,20.7,9,31,27.1,31h21.9c16.8,0,27.1,9,27.1,29.7v42.6c0,20.7-12.9,33.6-32.3,33.6h-542.2
			C1911.8,911.4,1888.5,886.8,1888.5,849.4z M2310.6,800.3c23.2,0,25.8-3.9,25.8-25.8V620.9c0-24.5-2.6-31-25.8-31h-214.3
			c-21.9,0-23.2,5.2-23.2,24.5c0,2.6,0,3.9,0,6.5v153.6c0,18.1,6.5,25.8,23.2,25.8H2310.6z"/>
		<path d="M2563.6,839.1V338.2c0-28.4,24.5-54.2,54.2-54.2h302.1c3.9,0,7.7,0,10.3,0c31,0,60.7,1.3,95.5,20.7v-275
			c0-23.2,11.6-29.7,38.7-29.7h38.7c28.4,0,42.6,10.3,42.6,29.7v810.7c0,41.3-31,71-69.7,71h-446.6
			C2589.5,911.4,2563.6,885.5,2563.6,839.1z M2987,806.8c37.4,0,38.7-6.5,38.7-38.7V426c0-34.9-2.6-37.4-24.5-37.4
			c-6.5,0-12.9,0-20.7,0H2796c-2.6,0-5.2,0-6.5,0c-33.6,0-33.6,1.3-33.6,37.4v342.1c0,36.1,1.3,38.7,37.4,38.7H2987z"/>
		<path d="M3254.2,859.7v-528c0-27.1,21.9-47.8,60.7-47.8h466c33.6,0,58.1,23.2,58.1,47.8v234.9c0,23.2-16.8,40-46.5,40h-330.5
			c-23.2,0-25.8,7.7-25.8,29.7v142c0,25.8,1.3,28.4,16.8,28.4c3.9,0,7.7,0,12.9,0h233.6c2.6,0,3.9,0,5.2,0
			c14.2,0,18.1-1.3,18.1-19.4v-52.9c0-15.5,6.5-16.8,21.9-16.8h69.7c19.4,0,24.5,5.2,24.5,27.1v114.9c0,38.7-11.6,51.6-50.3,51.6
			h-480.2C3281.3,911.4,3254.2,884.2,3254.2,859.7z M3436.2,400.2v90.4c0,15.5,2.6,20.7,18.1,20.7h246.6c16.8,0,21.9-5.2,21.9-19.4
			v-83.9c0-18.1-5.2-25.8-21.9-25.8h-242.7C3438.8,382.1,3436.2,387.3,3436.2,400.2z"/>
	</g>
	<path d="M3803.8,1190.8H35.2c-19.4,0-35.2-15.8-35.2-35.2v-37.2c0-19.4,15.8-35.2,35.2-35.2h3768.6c19.4,0,35.2,15.8,35.2,35.2
		v37.2C3839,1175,3823.2,1190.8,3803.8,1190.8z"/>
	<path d="M2882.2,107.6H35.2C15.8,107.6,0,91.8,0,72.4V35.2C0,15.8,15.8,0,35.2,0h2847c19.4,0,35.2,15.8,35.2,35.2v37.2
		C2917.4,91.8,2901.6,107.6,2882.2,107.6z"/>
	<path d="M3803.8,107.6h-514.4c-19.4,0-35.2-15.8-35.2-35.2V35.2c0-19.4,15.8-35.2,35.2-35.2h514.4c19.4,0,35.2,15.8,35.2,35.2v37.2
		C3839,91.8,3823.2,107.6,3803.8,107.6z"/>
</g>
<g class="st9">
	<g class="st10">
		<text transform="matrix(1 0 0 1 345.5779 493.554)" class="st11 st12 st13">arcade</text>
	</g>
	<g class="st10">
		<text transform="matrix(1 0 0 1 345.5779 2009.3923)" class="st0 st11 st12 st13">arcade</text>
	</g>
</g>
</svg>
