<?xml version="1.0" encoding="utf-8"?>
<!-- Generator: Adobe Illustrator 25.0.0, SVG Export Plug-In . SVG Version: 6.00 Build 0)  -->
<svg version="1.1" id="Layer_1" xmlns="http://www.w3.org/2000/svg" xmlns:xlink="http://www.w3.org/1999/xlink" x="0px" y="0px"
	 viewBox="0 0 1768.2 2160" style="enable-background:new 0 0 1768.2 2160;" xml:space="preserve">
<style type="text/css">
	.st0{fill:#E4202F;}
	.st1{fill:#FFFFFF;}
</style>
<g>
	<g>
		<path d="M656.8,0.2C692,0,727.3,0.2,762.5,0c0.1,82.9,0,165.7,0.1,248.4c0.3,69.1-1.6,138.3-4.5,207.3
			c-4.8,99.7-10.9,199.7-27.5,298.3c-11.3,67.9-34.9,133.5-64,195.8c-47.6,100.3-122.3,185.2-206.5,256.5
			c-75.1,66.1-164.9,114.4-259.4,146.9c-53.4,18.3-108.3,32.5-164.3,40.5c0.1-69.4,0.1-139,0-208.5c67.4-10.1,132.1-34,192.3-65.6
			c71.3-37.7,135.7-88.5,189.7-148.3c55.9-61.8,100.4-133.3,134.1-209.2c39.7-87.3,61-181.7,75.6-276.1
			c18.1-120,25.6-241.4,28.5-362.8C657,82.4,656.6,41.2,656.8,0.2z"/>
		<path d="M805,0.3c64.9-0.4,129.7,0,194.6-0.2c0,464.6,0,929.2,0,1393.9c-64.7,0.1-129.4-0.3-194.1,0.2
			c-0.8-148.2-0.1-296.3-0.3-444.4C805,633.2,805.2,316.7,805,0.3z"/>
		<path d="M1042.8,0c35.1,0,70.1-0.1,105,0c-1.2,141.6,3.7,283.6,20.6,424.3c13.8,109.3,33.3,219.4,76.8,321.3
			c41.2,98.6,100.8,190.1,178.3,263.9c74.1,70.6,163.8,124.9,261.3,156.1c27.2,8.7,55,15.5,83.3,19.6c0,69.4-0.1,138.8,0,208.3
			c-55.5-7.5-110-21.8-163-39.9c-63.2-21.9-124.2-50.3-180.3-86.9c-40.9-26.4-78.2-57.9-113.9-90.7
			c-58.9-54.4-111.7-116.2-151.4-186.1c-31.1-54.5-53.6-113.4-71.3-173.4c-16.2-60.3-23.2-122.7-29.5-184.7
			c-12.2-134.1-16.7-268.8-15.9-403.4C1042.8,152.4,1042.8,76.3,1042.8,0z"/>
		<path d="M656.8,0.2c-0.1,41.1,0.2,82.2-0.2,123.4c-2.8,121.4-10.4,242.7-28.5,362.8c-14.5,94.4-35.7,188.8-75.6,276.1
			c-33.8,76-78.3,147.4-134.1,209.2c-54.1,59.9-118.3,110.5-189.7,148.3c-60.1,31.7-124.9,55.5-192.3,65.6c0.1,69.4,0.1,139,0,208.5
			c56-7.8,110.9-22,164.3-40.5c94.4-32.6,184.1-80.8,259.4-147c84-71.3,158.9-156.2,206.5-256.5c29.1-62.2,52.7-127.8,64-195.8
			c16.5-98.6,22.8-198.5,27.5-298.3c2.9-69.1,4.8-138.2,4.5-207.3c-0.1-82.8,0.1-165.7-0.1-248.4C727.2,0.2,692,0,656.8,0.2"/>
		<path d="M805,0.3c0.2,316.5,0,633,0.1,949.5c0.2,148.2-0.5,296.3,0.3,444.4c64.7-0.6,129.4-0.1,194.1-0.2
			c0-464.6,0-929.2,0-1393.9C934.7,0.3,869.9-0.2,805,0.3"/>
		<path d="M1042.8,0c0,76.1,0,152.3,0,228.4c-0.8,134.6,3.7,269.3,15.9,403.4c6.3,62,13.2,124.4,29.5,184.7
			c17.7,60.1,40.3,118.9,71.3,173.4c39.6,70,92.4,131.7,151.4,186.1c35.7,32.9,73,64.3,113.9,90.7c56.1,36.5,117.1,65,180.3,86.9
			c53,18,107.5,32.3,163,39.9c-0.1-69.4,0-138.8,0-208.3c-28.3-4.1-56.1-10.9-83.3-19.6c-97.5-31.3-187.2-85.5-261.3-156.1
			c-77.5-73.8-137-165.3-178.3-263.9c-43.6-101.9-63.1-212-76.8-321.4c-16.9-140.6-21.6-282.6-20.6-424.2
			C1112.9,0,1077.8,0,1042.8,0"/>
	</g>
	<g>
		<path d="M181.1,1556.8c24.5-31.3,75.1-36.7,105.1-10.4c12.3,10.4,20.9,24.6,25.2,40c55.5,191.2,111.4,382.3,166.8,573.5
			c-32.8,0-65.6-0.1-98.4,0c-15.5-52.7-30.5-105.6-45.8-158.2c-63.4-0.1-126.8,0-190.3-0.1c-15.5,52.8-30.8,105.6-46.1,158.3
			c-32.6-0.1-65.2,0-97.8-0.1c52.8-182.4,105.7-364.8,158.7-547.1C165,1593.7,167.4,1572.4,181.1,1556.8 M239,1674
			c-23.2,79.2-46,158.6-69.1,237.8c46.1,0.2,92.1,0.1,138.2,0.1C285,1832.6,262.1,1753.3,239,1674z"/>
		<path d="M872,1560.9c17.1-24.8,50.1-36.8,79.2-29.1c26.6,6.1,47,29,54.1,54.9c55.5,191.1,111.2,382,166.7,573.1
			c-32.9,0.2-65.7,0-98.5,0.1c-15.3-52.8-30.4-105.6-45.8-158.3c-63.3,0-126.6-0.1-189.9,0c-15.2,52.8-30.7,105.5-45.9,158.2
			c-32.5,0-65.2,0-97.7,0c52.8-183.4,106.1-366.6,159.3-549.9C859,1593.5,861.2,1575.3,872,1560.9 M863.9,1911.9
			c45.9,0.1,91.8,0,137.7,0c-22.8-79.5-46-158.9-68.8-238.3C909.9,1753.1,886.7,1832.4,863.9,1911.9z"/>
		<path d="M405,1530.8c118.6,0,237.2,0,355.9,0c0,32,0,64,0,96c-43.7,0-87.3,0-131,0c0,177.6,0,355.4,0,533c-31.3,0-62.5,0-93.8,0
			c0-177.6,0-355.4,0-533c-43.7-0.1-87.3,0-131,0C405,1594.9,405,1562.9,405,1530.8z"/>
		<path d="M1276.2,1534.8c9-3.1,18.7-4.1,28.2-3.9c37.4,0.1,74.8,0,112.2,0c63,1.2,123.1,40.3,150.4,97
			c18.9,36.8,20.8,79.6,16.1,120c-3.3,42.3-21,84.6-53.5,112.6c-17.2,15.3-38.6,24.6-56.9,38.2c-10.1,7.6-10.6,22.6-5.4,33.3
			c49.6,76.6,101.2,152.1,151.9,228.1c-37.1,0.1-74.1-0.1-111.2,0.1c-48.5-72.9-96.6-146.2-144.9-219.1c-14.2-20.8-18.1-48.3-9.5-72
			c6.7-18.2,22.6-31.5,40.3-38.4c33.8-12.9,67.1-33.2,85.9-65.1c14.2-24,13.5-53.5,7.1-79.7c-7.5-34-40.7-60.8-75.8-59.7
			c-24.3,0.2-48.4-0.1-72.7,0.1c-10.9-0.2-21.3,9.3-21.1,20.3c-0.1,171.2,0,342.2-0.1,513.4c-31.5-0.1-63.1,0-94.5,0
			c-0.1-184.2,0.1-368.4-0.1-552.7C1222.6,1574.9,1245.6,1544.5,1276.2,1534.8z"/>
		<path d="M1668.7,1530.8c33.2,0,66.3,0,99.5,0c0,209.8,0.1,419.4-0.1,629c-33.2-0.1-66.2,0-99.4,0
			C1668.7,1950.1,1668.7,1740.5,1668.7,1530.8z"/>
	</g>
</g>
</svg>
