<?xml version="1.0" encoding="utf-8"?>
<!-- Generator: Adobe Illustrator 26.0.3, SVG Export Plug-In . SVG Version: 6.00 Build 0)  -->
<svg version="1.1" id="Layer_1" xmlns="http://www.w3.org/2000/svg" xmlns:xlink="http://www.w3.org/1999/xlink" x="0px" y="0px"
	 viewBox="0 0 3839 1227.5" style="enable-background:new 0 0 3839 1227.5;" xml:space="preserve">
<style type="text/css">
	.st0{fill:#231F20;}
	.st1{fill:#FFFFFF;}
	.st2{display:none;}
	.st3{display:inline;fill:#FF0642;}
	.st4{display:inline;fill:#FFFFFF;stroke:#000000;stroke-width:0.6411;stroke-miterlimit:10;}
	.st5{display:inline;fill:#FFCB04;}
</style>
<g>
	<g>
		<g>
			<path d="M913.2,1227.5c-90.9,0-157.9-71.5-157.9-162.4c0-90,66.6-163.3,159.3-163.3c57.1,0,91.3,20.2,122.8,49.9l-24.3,26.1
				c-26.5-25.2-56.2-43.2-99-43.2c-69.7,0-121.9,56.2-121.9,129.6s52.6,130.5,121.9,130.5c43.2,0,71.5-16.6,101.7-45.4l23.4,23
				C1006.2,1205.5,970.2,1227.5,913.2,1227.5z"/>
			<path d="M1114.7,907.2h35.5v282.1h177.3v32.8h-212.7V907.2z"/>
			<path d="M1700,1222.1h-38.2l-36.9-83.2h-171.4l-37.3,83.2h-36.6L1523.1,905h33.3L1700,1222.1z M1539.3,946.4l-72,160.6h143.5
				L1539.3,946.4z"/>
			<path d="M1882.1,1047.6c70.2,15.3,102.6,40.9,102.6,89.5c0,54.5-45,89.5-107.5,89.5c-49.9,0-90.9-16.7-128.7-50.4l22-26.1
				c32.8,29.7,64.3,44.5,108,44.5c42.3,0,70.2-22,70.2-54c0-29.7-15.8-46.3-81.9-60.3c-72.4-15.8-105.7-39.1-105.7-91.3
				c0-50.4,43.6-86.4,103.5-86.4c45.9,0,78.7,13,110.7,38.7l-20.7,27.4c-29.2-23.8-58.5-34.2-90.9-34.2c-40.9,0-67,22.5-67,51.3
				C1796.6,1016.1,1812.8,1032.8,1882.1,1047.6z"/>
			<path d="M2179.1,1047.6c70.2,15.3,102.6,40.9,102.6,89.5c0,54.5-45,89.5-107.5,89.5c-49.9,0-90.9-16.7-128.7-50.4l22-26.1
				c32.8,29.7,64.3,44.5,108,44.5c42.3,0,70.2-22,70.2-54c0-29.7-15.8-46.3-81.9-60.3c-72.4-15.8-105.7-39.1-105.7-91.3
				c0-50.4,43.6-86.4,103.5-86.4c45.9,0,78.7,13,110.7,38.7l-20.7,27.4c-29.2-23.8-58.5-34.2-90.9-34.2c-40.9,0-67,22.5-67,51.3
				C2093.7,1016.1,2109.9,1032.8,2179.1,1047.6z"/>
			<path d="M2406.3,907.2v314.9h-35.5V907.2L2406.3,907.2L2406.3,907.2z"/>
			<path d="M2655.9,1227.5c-90.9,0-157.9-71.5-157.9-162.4c0-90,66.6-163.3,159.3-163.3c57.1,0,91.3,20.2,122.8,49.9l-24.3,26.1
				c-26.5-25.2-56.2-43.2-99-43.2c-69.7,0-121.9,56.2-121.9,129.6s52.6,130.5,121.9,130.5c43.2,0,71.5-16.6,101.7-45.4l23.4,23
				C2749.1,1205.5,2713.1,1227.5,2655.9,1227.5z"/>
			<path d="M2970.4,1047.6c70.2,15.3,102.6,40.9,102.6,89.5c0,54.5-45,89.5-107.5,89.5c-49.9,0-90.9-16.7-128.7-50.4l22-26.1
				c32.8,29.7,64.3,44.5,108,44.5c42.3,0,70.2-22,70.2-54c0-29.7-15.8-46.3-81.9-60.3c-72.4-15.8-105.7-39.1-105.7-91.3
				c0-50.4,43.6-86.4,103.5-86.4c45.9,0,78.7,13,110.7,38.7l-20.7,27.4c-29.2-23.8-58.5-34.2-90.9-34.2c-40.9,0-67,22.5-67,51.3
				C2884.9,1016.1,2901.1,1032.8,2970.4,1047.6z"/>
		</g>
	</g>
	<g>
		<polygon points="887.6,363.5 1000.5,363.5 942.4,200.2 		"/>
		<path d="M2751.9,155.6c-70.2,0-164.4,41.3-164.4,206.3s83.9,206.3,164.4,206.3c80.4,0,166.1-51.6,166.1-206.3
			C2918,207.1,2822.2,155.6,2751.9,155.6z"/>
		<path d="M1507.3,167.6v238.9c0,0,160.9-67,160.9-161.6C1668.2,128,1507.3,167.6,1507.3,167.6z"/>
		<path d="M3816.7,533.7c-8.1-7.3-11.5-17.2-13.4-26.7l-45.7-292.2c-4.1-26.4,5.2-37.8,28.3-49l0-147.8h-327l-24.9,85.1L3400.7,18
			H3084v156.5C3023.2,68.4,2905.6,0,2764.8,0c-114.5,0-239.8,43.3-317.5,136.6C2391.5,51.8,2294,0.8,2156.1,0.8
			c-134,0-227.9,60.8-296.2,153C1810.5,64.5,1766.7,18,1596.3,18c-111.4,0-328.7,0-328.7,0v151.3c0,0,15.6,4.4,24.8,15
			c5.6,6.4,6.8,16.3,6.8,25.3c0,8.9-0.8,329.3-0.8,329.3c-13.7-6.9-27.4-32.7-27.4-32.7L1082.7,18H848.2L643.1,561.2V439.8H497.2
			c0,0-17.1,52.7-82.1,52.7c-70.2,0-133.6-58.4-137.6-161.5c-3.4-89.4,75.3-134.9,103.4-113.5c36,27.5-3.4,65.3-3.4,65.3l119.8,82.5
			l181.5-192.5c0,0-87.3-170.2-308.2-170.2C139.4,2.5,0,167.6,0,361.9s178.8,347.2,401.4,347.2c188.3,0,1201.8,0,1201.8,0V564.3
			c0,0-38.6-6.5-38.6-24.5c0-9.9,4.6-13.4,13.7-15.5c117.2-26.4,215-96.5,237.1-117.7c46.8,195.3,214.2,302.5,409.2,302.5
			c205.5,0,219.2,0,219.2,0V588.8c0,0,124.5,137.5,310.7,137.5c145.6,0,258.5-99.7,258.5-99.7v82.9h309V581.8h188.3v127.2H3839
			V540.6C3839,540.6,3826.2,542.2,3816.7,533.7z M570.8,642H392.8C180.5,642,62.4,475.3,62.4,355c0-184.5,159.8-286.9,304.7-286.9
			c140.4,0,225.1,107.7,225.1,107.7l-95.5,100.6c-5,5.3-13.3,5.8-18.9,1.2l-16.2-13.3c-0.7-0.6-1.1-1.6-1.1-2.9
			c0-3.4,9.4-12,9.4-28.3c0-16.4-3.4-84.2-107.8-84.2c-104.4,0-150.7,98-150.7,178.8c0,80.8,49.7,228.7,212.3,228.7
			c94.6,0,114.7-53.3,114.7-53.3h32.5V642z M1267.7,643.7h-214.9v-41.3c0,0,13.7,1.8,20.6-10.3c6.9-12,6.9-21.5,1.7-33.5
			c-5.1-12-41.1-107.5-41.1-107.5H858.5c0,0-36,96.3-39.4,104.9c-3.4,8.6-3.4,22.4,0,30.9c5.7,14.3,25.7,16.4,25.7,16.4v40.4h-172
			v-40.4c0,0,15.6-5.4,27.3-17.2c12.9-12.9,17.2-26.7,17.2-26.7L891.8,83.3h146.4l178.1,467.6c5.1,12.9,13.7,24.9,22.3,35.2
			c8.5,10.3,29.1,17.2,29.1,17.2V643.7z M1675.1,423.7c-73.1,33.8-169.5,60.2-169.5,60.2v89.3c0,0,0.8,6,9.4,16.4
			c8.5,10.3,18,12.9,18,12.9v41.3h-198.6v-40.4c0,0,12-2.6,20.6-11.2c8.6-8.6,10.3-18.9,10.3-18.9v-404c0,0,0.8-17.2-6-24.1
			c-6.9-6.9-23.1-16.3-23.1-16.3V83.3c0,0,172.9,0,273.9,0c101,0,202,36.1,202,153C1812,353.2,1738.5,394.5,1675.1,423.7z
			 M2175,149.7c-104.4,0-150.7,98-150.7,178.8c0,80.8,49.7,228.7,212.3,228.7c94.6,0,114.7-53.3,114.7-53.3h32.5V643h-178.1
			c-212.3,0-330.4-166.7-330.4-287.1c0-184.5,159.8-286.9,304.7-286.9c140.4,0,225.1,107.7,225.1,107.7l-95.5,100.6
			c-5,5.3-13.3,5.8-18.9,1.2l-16.2-13.3c-0.7-0.6-1.1-1.6-1.1-2.9c0-3.4,9.4-12,9.4-28.3C2282.8,217.6,2279.5,149.7,2175,149.7z
			 M2751.9,659.9c-184.9,0-317.8-135.6-317.8-300.6s136.3-293,317.8-293c181.5,0,317.8,127.9,317.8,293S2936.8,659.9,2751.9,659.9z
			 M3780,644h-204.6v-37.2c0,0,18-2.6,23.9-11.2c6-8.6,8.6-13.8,6.8-27.5c-1.7-13.8-50.5-326.6-50.5-326.6l-89,276.8h-107.8
			l-88.2-259.6l-44.5,306c0,0-1.7,18.3,5.1,28.3c9.4,13.8,26.5,13.8,26.5,13.8v36.9h-177.2v-39.5c0,0,14.1-2.2,24.4-14.2
			c10.3-12,12-27.5,12-27.5l64.6-403.5c0,0,3.9-15.1-0.4-21.9c-4.5-7.2-28.7-13.4-28.7-13.4v-40h203.7l73.6,228.3l78.7-228.7h213.1
			v33.5c0,0-14.2,6-20.6,13.8c-7.7,9.4-7.7,16.4-6,30.1c1.7,13.8,56.5,386.8,58.2,400.5c1.7,13.8,3.5,21.5,6.9,31
			c3.4,9.4,19.7,17.2,19.7,17.2V644z"/>
	</g>
</g>
</svg>
