<?xml version="1.0" encoding="utf-8"?>
<!-- Generator: Adobe Illustrator 25.0.0, SVG Export Plug-In . SVG Version: 6.00 Build 0)  -->
<svg version="1.1" id="Layer_1" xmlns="http://www.w3.org/2000/svg" xmlns:xlink="http://www.w3.org/1999/xlink" x="0px" y="0px"
	 viewBox="0 0 3839 803.1" style="enable-background:new 0 0 3839 803.1;" xml:space="preserve">
<style type="text/css">
	.st0{fill:#FFFFFF;}
</style>
<g>
	<g>
		<path d="M2473.9,122.4h-88.4l-20.6,56.6h80.4c20.4,0,38.8-12.9,45.8-32c2.1-5.7,1.3-11.8-2.2-16.7S2479.9,122.4,2473.9,122.4z"/>
		<polygon points="2248.8,601.3 2357.4,601.3 2406.6,466.2 2298,466.2 		"/>
		<path d="M1546.8,146.9c2.1-5.7,1.3-11.8-2.2-16.7c-3.5-5-8.9-7.8-15-7.8h-88.4l-20.6,56.6h80.4
			C1521.5,179,1539.8,166.1,1546.8,146.9z"/>
		<path d="M3772.5,73.4L3799.2,0l-487.9,0l-41.9,73.4h-3.6L3292.6,0h-392.2c-74.1,0-142.3,36.7-183.9,95.2c-1-0.8-2-1.6-3.1-2.4
			c-1.1-17.9-7-35.5-17.6-50.6C2677.2,15.8,2646.8,0,2614.5,0h-744.1c-44.1,0-85.2,19.3-113.6,51c-1.7-3-3.4-5.9-5.4-8.7
			C1732.9,15.8,1702.6,0,1670.3,0h-559.2L998.5,80.4L948.5,0H551.3l-26.7,73.4h-36.7L514.6,0H265.4L0,729.8h66.5l-26.7,73.4h213.9
			l14.9-40.8c19.2,25,49.3,40.8,83.1,40.8h75.8c37.3,0,71.4-20.1,90-51.4c1.3,2.1,2.4,4.2,3.8,6.3c19.8,28.2,52.2,45.1,86.7,45.1
			h270.5l19.4-53.3c1.6,2.8,3.2,5.6,5,8.2c19.8,28.3,52.2,45.1,86.7,45.1h195.7c53.9,0,103.5-26.9,133.6-69.8
			c3.1,8.6,7.3,17,12.7,24.7c19.8,28.2,52.2,45.1,86.7,45.1H1614c49.6,0,95.6-22.8,126-59.9c2.5,5.1,5.2,10.1,8.5,14.8
			c19.8,28.2,52.2,45.1,86.7,45.1h270.5l19.4-53.3c1.6,2.8,3.2,5.6,5,8.2c19.8,28.3,52.2,45.1,86.7,45.1h195.7
			c68.3,0,129.9-43.1,153.2-107.3l4.6-12.6c2.6,2.9,5.3,5.8,8.1,8.5c3.6,18.8,11.1,37,22.4,53.1c25.6,36.5,67.5,58.3,112.1,58.3
			h195.8c94.5,0,179.8-59.7,212.1-148.5l25.6-70.2c20.4,22.4,49.1,35.4,80.4,35.4l98,0l-39.8,110h66.4l-26.5,73.4h248.5L3839,73.4
			L3772.5,73.4z M1760.5,112.4c8.3-22.7,23.1-42,42.8-55.8c19.8-13.8,43-21.2,67.1-21.2h312.4h13.7l-4.7,12.8l-24.7,67.8l-2.3,6.3
			h-6.7h-227.5l-11,30.1h220.6h13.7l-4.7,12.8l-24.7,67.8l-2.3,6.3h-6.7H1888l-11,30.1h220.6h13.7l-4.7,12.8l-24.7,67.8l-2.3,6.3
			h-6.7h-289.6c-13.2,0-25.6-3.1-37-9.2c-10.7-5.7-20-14.1-27.1-24.1c-7-10-11.7-21.7-13.4-33.7c-1.9-12.8-0.5-25.6,4-37.9
			L1760.5,112.4z M178,343.7L287.9,41.7l2.3-6.3h6.7h153.4H464l-4.7,12.8l-38,104.3h112.1l40.3-110.8l2.3-6.3h6.7h153.4h12.2h1.4
			h15.7h157.9h5.3l2.8,4.5l56.7,91.3l131.6-94l2.5-1.8h3.1h166.1h7.5h6.7h15.6h348.9c10.7,0,20.8,2.5,30.1,7.5
			c8.7,4.7,16.3,11.5,22,19.6c5.7,8.2,9.5,17.6,10.9,27.4c1.5,10.4,0.4,20.8-3.2,30.9l-26.7,73.5c-7.7,21.1-21.5,39-39.8,51.9
			c-18.4,12.9-40,19.7-62.4,19.7H1389l-30.7,84.4l-2.3,6.3h-6.7h-153.4h-13.7l4.7-12.8L1291.2,57L1043.4,234l-42.3,116.3l-2.3,6.3
			h-6.7H838.6H825l4.7-12.8l40.8-112L757.5,50l-8.2-13.1l-4.1,11.4L635.3,350.3l-2.3,6.3h-6.7H472.9h-13.7l4.7-12.8l38-104.3H389.7
			l-40.3,110.8l-2.3,6.3h-6.7H187h-13.7L178,343.7z M1168.9,289.7l-17.5,48.1h-41.5l2.9-8L1168.9,289.7z M794.1,337.8h-50.1
			l53.5-147l31.6,50.8L794.1,337.8z M387.7,694.4h-75.8c-17.3,0-33.8-6.4-46.6-18c-12.8-11.6-20.8-27.4-22.4-44.6l-6.6-67.1
			l-44.9,123.4l-2.3,6.3h-6.7H64.2H50.6l4.7-12.8l95.6-262.7c9.9-27.3,36.1-45.6,65.2-45.6h69.4c17.3,0,33.8,6.4,46.6,18
			c12.8,11.6,20.8,27.4,22.4,44.6l7.9,80.9l49.9-137.2l2.3-6.3h6.7h118.2h13.7l-4.7,12.8l-95.6,262.7
			C442.9,676,416.7,694.4,387.7,694.4z M857.7,574l-2.3,6.3h-6.7h-201l-7.7,21.1h194.1h13.7l-4.7,12.8l-26.9,73.9l-2.3,6.3h-6.7
			h-239c-11.8,0-23-2.8-33.3-8.3c-9.6-5.2-18-12.7-24.4-21.7c-6.3-9-10.5-19.5-12.1-30.3c-1.7-11.5-0.5-23,3.6-34.1L554,457.2
			c9-24.7,25.2-45.8,46.7-60.9c21.6-15.1,46.9-23.1,73.2-23.1h243.2h13.7l-4.7,12.8l-26.9,73.9l-2.3,6.3h-6.7h-201l-7.7,21.1h194.1
			h13.7l-4.7,12.8L857.7,574z M1265.5,610.4c-9,24.7-25.2,45.8-46.7,60.9c-21.6,15.1-46.9,23.1-73.2,23.1H949.8
			c-11.8,0-23-2.8-33.3-8.3c-9.6-5.2-18-12.7-24.4-21.7c-6.3-9-10.5-19.5-12.1-30.3c-1.7-11.5-0.5-23,3.6-34.1l51.9-142.7
			c9-24.7,25.2-45.8,46.7-60.9c21.6-15.1,46.9-23.1,73.2-23.1h195.7c11.8,0,23,2.8,33.3,8.3c9.6,5.2,18,12.7,24.4,21.7
			c6.3,9,10.5,19.5,12.1,30.3c1.7,11.5,0.5,23-3.6,34.1L1265.5,610.4z M1694.1,610.4c-9,24.7-25.2,45.8-46.7,60.9
			s-46.9,23.1-73.2,23.1h-195.7c-11.8,0-23-2.8-33.3-8.3c-9.6-5.2-18-12.7-24.4-21.7c-6.3-9-10.5-19.5-12.1-30.3
			c-1.7-11.5-0.5-23,3.6-34.1l51.9-142.7c9-24.7,25.2-45.8,46.7-60.9c21.6-15.1,46.9-23.1,73.2-23.1h282.6h13.7l-4.7,12.8
			l-26.9,73.9l-2.3,6.3h-6.7h-240.4l-49.2,135.1h108.6l27-74.1l2.3-6.3h6.7H1713h13.7l-4.7,12.8L1694.1,610.4z M2084.9,574l-2.3,6.3
			h-6.7h-201l-7.7,21.1h194.1h13.7l-4.7,12.8l-26.9,73.9l-2.3,6.3h-6.7h-239c-11.8,0-23-2.8-33.3-8.3c-9.6-5.2-18-12.7-24.4-21.7
			c-6.3-9-10.5-19.5-12.1-30.3c-1.7-11.5-0.5-23,3.6-34.1l51.9-142.7c9-24.7,25.2-45.8,46.7-60.9c21.6-15.1,46.9-23.1,73.2-23.1
			h243.2h13.7l-4.7,12.8l-26.9,73.9l-2.3,6.3h-6.7h-201l-7.7,21.1h194.1h13.7l-4.7,12.8L2084.9,574z M2544.6,467.7l-51.9,142.7
			c-9,24.7-25.2,45.8-46.7,60.9c-21.6,15.1-46.9,23.1-73.2,23.1H2177c-11.8,0-23-2.8-33.3-8.3c-9.6-5.2-18-12.7-24.4-21.7
			c-6.3-9-10.5-19.5-12.1-30.3c-1.7-11.5-0.5-23,3.6-34.1l51.9-142.7c9-24.7,25.2-45.8,46.7-60.9c21.6-15.1,46.9-23.1,73.2-23.1
			h195.7c11.8,0,23,2.8,33.3,8.3c9.6,5.2,18,12.7,24.4,21.7c6.3,9,10.5,19.5,12.1,30.3C2549.9,445.1,2548.7,456.5,2544.6,467.7z
			 M2433.2,356.6h-4.9l-2.9-4l-62.5-86.7h-29.6l-30.7,84.4l-2.3,6.3h-6.7h-153.4h-13.7l4.7-12.8l109.9-302.1l2.3-6.3h6.7h364.5
			c10.7,0,20.8,2.5,30.1,7.5c8.7,4.7,16.3,11.5,22,19.6c5.7,8.2,9.5,17.6,10.9,27.4c1.5,10.4,0.4,20.8-3.2,30.9l-26.7,73.5
			c-7.7,21.1-21.5,39-39.8,51.9c-18.4,12.9-40,19.7-62.4,19.7h-5.4l54.5,75.5l10.9,15.2h-18.7H2433.2z M3105.3,411.1l-57.5,158.1
			c-13.4,36.9-37.5,68.3-69.7,90.8c-32.2,22.5-69.9,34.4-109.2,34.4h-195.8c-17.1,0-33.2-4-48-12c-13.9-7.4-26-18.2-35.1-31.2
			s-15.1-28.1-17.4-43.7c-2.4-16.6-0.7-33.1,5.1-49.2L2721.4,161c13.4-37,37.5-68.5,69.6-91c32.2-22.6,70-34.5,109.3-34.5h328h13.7
			l-4.7,12.8l-56.2,154.4l-2.3,6.3h-6.7l-269.2,0c-14.7,0-27.9,9.3-32.9,23l-15.7,43.2l155.4-0.3h0.2c17.1,0,33.2,4,48,12
			c13.9,7.5,26,18.3,35.1,31.3c9.1,13,15.1,28.1,17.4,43.7C3112.9,378.5,3111.1,395,3105.3,411.1z M3743.9,48.2l-232.9,639.8
			l-2.3,6.3h-6.7h-153h-13.6l4.6-12.8l61.7-170.6l-214.9,0c-26.5,0-50.3-13.7-63.6-36.6c-13.3-22.9-13.4-50.4-0.3-73.4l206-360.8
			l2.8-4.8h5.6h176.4h16.4l-8.1,14.3l-163.8,288.4l106.2-0.5l107-295.8l2.3-6.3h6.7H3735h13.7L3743.9,48.2z"/>
		<polygon points="1021.6,601.3 1130.3,601.3 1179.4,466.2 1070.8,466.2 		"/>
		<polygon points="2764.6,521.6 2891.6,521 2918.1,447.8 2791.5,447.8 		"/>
	</g>
</g>
</svg>
