<?xml version="1.0" encoding="utf-8"?>
<!-- Generator: Adobe Illustrator 25.0.0, SVG Export Plug-In . SVG Version: 6.00 Build 0)  -->
<svg version="1.1" id="Layer_1" xmlns="http://www.w3.org/2000/svg" xmlns:xlink="http://www.w3.org/1999/xlink" x="0px" y="0px"
	 viewBox="0 0 3839 669" style="enable-background:new 0 0 3839 669;" xml:space="preserve">
<style type="text/css">
	.st0{fill:#FFFFFF;}
</style>
<g>
	<polygon points="809.6,315.8 970.1,315.8 1015.4,191.3 1283.2,0 1109.6,0 963.3,104.5 898.4,0 733.4,0 853.9,194.2 	"/>
	<polygon points="333.3,193.4 471.8,193.4 427.2,315.8 587.7,315.8 702.6,0 542.2,0 497.6,122.4 359.1,122.4 403.7,0 243.3,0 
		128.3,315.8 288.8,315.8 	"/>
	<path d="M1343.5,315.8L1378,221h228.8c43.6,0,82.6-27.3,97.5-68.3l28-76.8C1745.7,39,1718.4,0,1679.1,0H1298l-114.9,315.8H1343.5z
		 M1432.7,70.9h99.4c20.2,0,34.3,20.1,27.4,39.1v0c-8.8,24.1-31.6,40.1-57.2,40.1h-98.4L1432.7,70.9z"/>
	<path d="M2594,221c43.6,0,82.6-27.3,97.5-68.3l28-76.8C2732.9,39,2705.6,0,2666.4,0h-381.1l-114.9,315.8h160.4l34.5-94.8h43.1
		l68.4,94.8h160.4l-68.4-94.8H2594z M2391.1,150.1l28.8-79.2h99.4c20.2,0,34.3,20.1,27.4,39.1v0c-8.8,24.1-31.6,40.1-57.2,40.1
		H2391.1z"/>
	<path d="M1797.3,315.8h302.8l25.8-70.9H1881l18.7-51.5h244.9l25.8-70.9h-244.9l18.7-51.5h244.9L2215,0h-326.7
		c-47.2,0-89.4,29.5-105.5,73.9l-53,145.6C1712.8,266.3,1747.5,315.8,1797.3,315.8z"/>
	<path d="M646.4,430.4h217.2l28.1-77.3H637.5c-51.9,0-98.3,32.5-116,81.2l-54.3,149.2c-15.1,41.5,15.6,85.4,59.8,85.4h249.9
		l28.1-77.3H587.7l15.3-42h217.2l28.1-77.3H631.2L646.4,430.4z"/>
	<path d="M1241.1,353.2h-204.6c-51.9,0-98.3,32.5-116,81.2l-54.3,149.2C851,625.1,881.7,669,925.9,669h204.6
		c51.9,0,98.3-32.5,116-81.2l54.3-149.2C1315.9,397,1285.2,353.2,1241.1,353.2z M1121.5,591.7H986.7l58.7-161.3h134.8L1121.5,591.7z
		"/>
	<path d="M1929.5,430.4h217.2l28.1-77.3h-254.3c-51.9,0-98.2,32.5-116,81.2l-54.3,149.2c-15.1,41.5,15.6,85.4,59.8,85.4h249.9
		l28.1-77.3h-217.2l15.3-42h217.2l28.1-77.3h-217.2L1929.5,430.4z"/>
	<path d="M2524.1,353.2h-204.6c-51.9,0-98.2,32.5-116,81.2l-54.3,149.2c-15.1,41.5,15.6,85.4,59.8,85.4h204.6
		c51.9,0,98.2-32.5,116-81.2l54.3-149.2C2598.9,397,2568.2,353.2,2524.1,353.2z M2404.6,591.7h-134.8l58.7-161.3h134.8L2404.6,591.7
		z"/>
	<path d="M1569.7,591.7h-134.8l58.7-161.3h258.4l28.1-77.3h-295.5c-51.9,0-98.2,32.5-116,81.2l-54.3,149.2
		c-15.1,41.5,15.6,85.4,59.8,85.4h204.6c51.9,0,98.3-32.5,116-81.2l29.1-80h-123.5L1569.7,591.7z"/>
	<path d="M373.3,353.2L306.1,538l-12.6-128.4c-3.1-32-30-56.4-62.2-56.4h-72.6c-26.3,0-49.8,16.4-58.7,41.1L0,669h123.5l62-170.4
		l11.1,114c3.1,32,30,56.4,62.2,56.4h79.2c26.3,0,49.8-16.4,58.7-41.1l100-274.7H373.3z"/>
	<path d="M3079.5,250.3l-176.7,0.4l21.3-58.6c6.7-18.4,24.2-30.7,43.8-30.7l281.5,0L3308.1,0h-342.9c-79.6,0-150.6,49.9-177.7,124.7
		l-150.3,415.4c-22.7,62.7,23.8,128.8,90.4,128.8h204.7c79.4,0,150.4-49.7,177.6-124.3l60.1-165.3
		C3192.9,316.6,3146.3,250.2,3079.5,250.3z M2963,507.7l-154.1,0.7l35.4-97.2l153.6,0L2963,507.7z"/>
	<polygon points="3687.8,600.9 3721.8,600.9 3721.8,669 3728.4,669 3728.4,600.7 3755.7,600.7 3755.7,593.9 3687.8,593.9 	"/>
	<polygon points="3804,658 3799.2,657.9 3770.9,593.9 3764.6,593.9 3764.6,669 3770.9,669 3770.9,607.7 3798.7,669 3804.6,669 
		3831.7,606.7 3831.7,669 3839,669 3839,593.9 3832.1,593.9 	"/>
	<path d="M3676.3,0l-114.2,315.8l-135.3,0.7L3606.5,0h-184.4l-215.4,377.2c-25.5,44.6,6.7,100,58.1,100l238.9,0L3434.3,669h159.9
		L3837.7,0H3676.3z"/>
</g>
</svg>
