<?xml version="1.0" encoding="utf-8"?>
<!-- Generator: Adobe Illustrator 26.0.3, SVG Export Plug-In . SVG Version: 6.00 Build 0)  -->
<svg version="1.1" id="Layer_1" xmlns="http://www.w3.org/2000/svg" xmlns:xlink="http://www.w3.org/1999/xlink" x="0px" y="0px"
	 viewBox="0 0 2084.2 2159" style="enable-background:new 0 0 2084.2 2159;" xml:space="preserve">
<style type="text/css">
	.st0{fill:#FFFFFF;}
	.st1{fill:#FF8C1A;}
	.st2{fill:#FF0000;}
	.st3{fill:none;stroke:#000000;stroke-width:5.3016;}
	.st4{fill:#797979;}
	.st5{fill:none;stroke:#000000;stroke-width:6.7225;}
	.st6{fill:none;stroke:#000000;stroke-width:6.7272;}
	.st7{fill:none;stroke:#000000;stroke-width:5.4239;}
</style>
<g>
	<path d="M596.9,1121c32.6-101,78-279.2,164-405.8c35.9-53,88.9-91.2,133.2-115.6c25.7-14.2,50.5-18.6,76.8-24.7
		c23.1-5.5,50.3-10.9,70.7-12.3c12.7-0.9,25.8-2.7,39.4-4.1c15-1.4,27.2-2.7,40.8-5.5c12.2-1.4,41.9-6.1,51.7-8.2
		c25.8-5.5,50.3-15,66.6-20.5c14.7-5,31.3-13.7,46.3-19.2c3-1.1,18.7-11.1,23.1-13.7c61.7-36.2,117-98.3,142.3-145.7
		c40.5-75.9,73.2-152.7,101.2-233.9c12.2-35.5,20.4-57.4,39.4-112H994c-32.7,105.1-59.8,184.3-100.7,290.8
		c-38.3,100-108.2,181-205.3,225.3c-108.4,49.5-225.2,41.5-337.2,79.2C131.8,669,62.5,917.5,0,1121H596.9"/>
	<path d="M996.3,1668.9c32.6-101.1,78-279.1,163.9-405.8c35.9-53,89-91.2,133.2-115.6c25.7-14.2,50.5-18.6,76.8-24.8
		c23.1-5.5,50.3-10.9,70.7-12.3c12.7-0.9,25.8-2.8,39.4-4.1c15-1.4,27.2-2.7,40.8-5.5c12.3-1.4,42-6.1,51.7-8.2
		c25.8-5.5,50.3-15,66.6-20.5c14.7-5,31.3-13.7,46.3-19.2c3-1.1,18.7-11.1,23.1-13.6c61.8-36.3,117-98.4,142.3-145.7
		c40.5-75.9,73.2-152.7,101.1-233.9c12.3-35.5,20.4-57.4,39.4-112h-598.2c-32.7,105.2-59.9,184.4-100.7,290.9
		c-38.3,100-108.2,180.9-205.3,225.3c-108.4,49.5-225.3,41.5-337.2,79.2c-219,73.7-288.3,322.2-350.8,525.7H996.3"/>
	<g>
		<polygon points="351.9,1830.4 246.2,1830.4 144.1,1971.7 143.2,1971.7 143.2,1830.4 54.1,1830.4 54.1,2152.3 143.2,2152.3 
			143.2,1981.1 144.1,1981.1 250.2,2152.3 360.8,2152.3 240.9,1972.2 		"/>
		<path d="M508,1823.7c-106.6,0-166.8,61.5-166.8,167.7c0,106.1,60.2,167.6,166.8,167.6c106.6,0,166.8-61.5,166.8-167.6
			C674.8,1885.2,614.6,1823.7,508,1823.7z M508,2096.6c-60.6,0-73.1-56.2-73.1-103.9c0-50.4,12.5-106.6,73.1-106.6
			c60.6,0,73.1,56.2,73.1,106.6C581.2,2040.4,568.7,2096.6,508,2096.6z"/>
		<polygon points="933.8,2069.4 932.9,2070.3 825,1830.4 700.2,1830.4 700.2,2152.3 780.4,2152.3 780.4,1905.7 781.3,1905.7 
			890.6,2152.3 1014.1,2152.3 1014.1,1830.4 933.8,1830.4 		"/>
		<path d="M1162.6,1830.4l-127.1,321.9h89.2l21-62.9h130.6l21.4,62.9h100.8l-127.1-321.9H1162.6z M1168.4,2027l43.7-133.8h1.4
			l41,133.8H1168.4z"/>
		<polygon points="1613.5,2048.4 1612.6,2048.4 1560,1830.4 1418.6,1830.4 1418.6,2152.3 1496.7,2152.3 1496.7,1880.8 
			1497.6,1879.9 1568.5,2152.3 1648.7,2152.3 1724.1,1882.1 1725,1883 1725,2152.3 1803,2152.3 1803,1830.4 1664.3,1830.4 		"/>
		<rect x="1848.6" y="1830.4" width="89.2" height="321.9"/>
	</g>
	<path d="M2022.3,2144.7c30.4,0,55.2-24.6,55.2-55.2c0-30.5-24.8-55.2-55.2-55.2c-30.4,0-55.2,24.6-55.2,55.2
		C1967.2,2120.1,1992,2144.7,2022.3,2144.7 M2022.3,2027.7c34.1,0,61.8,27.5,61.8,61.8s-27.7,61.8-61.8,61.8s-61.8-27.5-61.8-61.8
		S1988.2,2027.7,2022.3,2027.7z M2008,2087h15.8c12.4,0,17.4-4.3,17.4-12.4c0-6.1-3.8-10.4-15.3-10.4h-18V2087z M1994.7,2052.7h33.8
		c16.7,0,27.9,9,27.9,20.8c0,10.9-8.5,18.2-18.9,19.1v0.4c16,5.4,18.3,16.5,18.5,31.6h-15.1c-0.5-18.2-4.5-26.1-20.5-26.1H2008v26.1
		h-13.3V2052.7z"/>
</g>
</svg>
