<?xml version="1.0" encoding="utf-8"?>
<!-- Generator: Adobe Illustrator 25.0.0, SVG Export Plug-In . SVG Version: 6.00 Build 0)  -->
<svg version="1.1" id="Layer_1" xmlns="http://www.w3.org/2000/svg" xmlns:xlink="http://www.w3.org/1999/xlink" x="0px" y="0px"
	 viewBox="0 0 3839 524" style="enable-background:new 0 0 3839 524;" xml:space="preserve">
<style type="text/css">
	.st0{fill:#FFFFFF;}
	.st1{fill:url(#SVGID_1_);}
</style>
<g>
	<g>
		<path d="M482.5,100l-9.5,40c1.1,4.7,2.6,9.2,4.3,13.7c0.7,1.9,1.5,3.8,2.4,5.7l11.4-48.4h108.4l-61.8,261.4h-98.7
			c-0.7,0.4-1.5,0.8-2.3,1.2c-2.6,1.3-5.5,2.5-8.4,3c-2.4,0.4-4.9,0.1-6.7-1.7c-1-1-1.5-2.3-1.9-3.6c-0.3-1.2-0.5-2.3-0.7-3.5
			l-3.7,15.6h131l67-283.4H482.5z"/>
		<path d="M123.9,0L0,524h131l65-274.9c-0.7-1.4-1.3-2.8-2-4.3c-1.3-2.8-2.5-5.6-3.3-8.6c-0.6-2.1-1.1-4.1-1.5-6.2l-66.9,283H13.9
			L132.6,11h103.6c0.7-1,1.5-2,2.4-2.8c1.4-1.2,3.2-1.9,5.1-1.9c2.4-0.1,4.7,0.7,6.6,2.3c0.8,0.6,1.4,1.3,2.1,2L254.9,0H123.9z"/>
		<path d="M436.1,57.6c2.5-1.9,5.6-2.7,8.7-2.4c2.9,0.3,5.6,1.3,7.6,3.6c1.3,1.6,2.3,3.4,3.5,5.1l3.3-13.8h-131l-30.9,130.5
			c0.8,1.3,1.4,2.6,2,4c1.9,4.8,2.6,9.9,3.5,15c0.2,1,0.4,2,0.6,3L336.8,61h96C433.7,59.7,434.8,58.5,436.1,57.6z"/>
		<path d="M396.2,304.2c-1.4-6.1-2-12.3-2.8-18.4c-0.2-1.2-0.3-2.5-0.5-3.7l-32.1,135.6c0.4,0.9,0.7,1.7,1.1,2.6
			c1.7,4.3,3.2,8.7,4.6,13.1h2l29.3-123.7C397.1,307.8,396.6,306,396.2,304.2z"/>
		<path d="M360.5,419.3l-0.7,3h-90.6c-5.8,4.1-13,6.8-20,4.2c-2.9-1.1-4.9-3.3-6.6-5.8c-0.5-0.7-1-1.5-1.5-2.3l-3.5,14.8h127.9
			C363.9,428.6,362.3,423.9,360.5,419.3z"/>
		<path d="M246.4,11l107.8,411.3H246L138.2,11H246.4 M254.9,0h-131l113.6,433.3h131L254.9,0L254.9,0z"/>
		<path d="M450.6,61l81.6,311.3H424L342.4,61H450.6 M459.1,50h-131l87.4,333.3h131L459.1,50L459.1,50z"/>
	</g>
	<g>
		<g>
			<path d="M3751.6,332.2h-19.2v-6.4h46v6.4h-19.2v51.1h-7.7V332.2z"/>
			<path d="M3781.7,325.8h10.5l18.1,48.3l18.2-48.3h10.5v57.5h-7.2v-47.8h-0.2l-18,47.8h-6.5l-18-47.8h-0.2v47.8h-7.2V325.8z"/>
		</g>
		<g>
			<path d="M1256.5,136.3l9.7-36.3H962.6l3.4,36.3h97.6l-50.1,211.8c-4.2,17.9,9.3,35,27.7,35h58.7l58.4-246.8H1256.5z"/>
			<path d="M2741.5,100.2l-58.3,246.6h-45.4l58.3-246.7h-94.7l-58.3,246.7h-45.4L2556,100h-94.7l-58.7,248.1
				c-4.2,17.9,9.3,35,27.7,35l339,0.1l66.9-283.1H2741.5z"/>
			<path d="M3349,100.1l-58.3,246.7h-35L3233.1,100h-92.5l23.5,257.2c1.3,14.6,13.6,25.9,28.3,25.9l184.3,0.1l67-283.1H3349z"/>
			<path d="M3530.4,100l-41.4,0.2l-58.7,248.1c-4.2,17.9,9.3,35,27.7,35h58.7l158.3-0.2l8.6-36.3h-158.3l25.8-108.9h140.1l8.6-36.3
				h-140.1l15.4-65.3h158.3l8.5-36.1L3530.4,100z"/>
			<path d="M1300.7,100.3l-58.7,248c-4.2,17.9,9.3,35,27.7,35l218.6-0.3l58.6-248c4.2-17.9-9.3-35-27.7-35L1300.7,100.3z
				 M1337.1,346.8l49.8-210.6h65.2l-49.8,210.6H1337.1z"/>
			<path d="M1600.8,100l-67,283.1h94.7l58.4-246.8h45.4L1674,383.2h94.7l58.4-246.9h45.4l-58.4,247h94.7l58.7-248.1
				c4.2-17.9-9.3-35-27.7-35L1600.8,100z"/>
			<path d="M2021.1,100.2l-58.7,248.1c-4.2,17.9,9.3,35,27.7,35h58.7l67-283.1H2021.1z"/>
			<path d="M721.5,100l-67,283.1h94.7l17.4-73.6h91.8l6.7,73.6h92.5l-23.5-257.2c-1.3-14.6-13.6-25.9-28.3-25.9H721.5z M775.2,273.2
				l32.4-136.9h34.9l12.5,136.9H775.2z"/>
			<path d="M2881.9,100l-67,283.1h94.7l17.4-73.6h91.8l6.7,73.6h92.5l-23.5-257.2c-1.3-14.6-13.6-25.9-28.3-25.9H2881.9z
				 M2935.6,273.2l32.4-136.9h35l12.5,136.9H2935.6z"/>
			<path d="M2232,201.6l15.4-65.3h159.9l8.6-36.3l-254.7,0.3L2137,202.9c-4.2,17.9,9.3,35,27.7,35h123.9l-25.8,108.9h-159.9
				l-8.7,36.3h254.7l34.6-146.5c4.2-17.9-9.3-35-27.7-35H2232z"/>
		</g>
	</g>
</g>
</svg>
