<?xml version="1.0" encoding="utf-8"?>
<!-- Generator: Adobe Illustrator 26.0.3, SVG Export Plug-In . SVG Version: 6.00 Build 0)  -->
<svg version="1.1" id="Layer_1" xmlns="http://www.w3.org/2000/svg" xmlns:xlink="http://www.w3.org/1999/xlink" x="0px" y="0px"
	 viewBox="0 0 3839 2116.5" style="enable-background:new 0 0 3839 2116.5;" xml:space="preserve">
<style type="text/css">
	.st0{fill:none;}
</style>
<g>
	<g>
		<g>
			<g>
				<path d="M974.6,1888.5h50.4l83.6,223.6h-51l-16.9-49.8h-83.6l-17.5,49.8h-49.8L974.6,1888.5z M970,2025.7h57.9l-28.2-82.1h-0.6
					L970,2025.7z"/>
			</g>
			<g>
				<path d="M1128,1888.5h69.2l52.3,153.8h0.6l49.5-153.8h69.2v223.6h-46v-158.5h-0.6l-54.8,158.5h-37.9l-54.8-156.9h-0.6v156.9h-46
					L1128,1888.5L1128,1888.5z"/>
			</g>
			<g>
				<path d="M1499.1,1888.5h120.6c40.1,0,65.5,27.9,65.5,61.7c0,26.3-10.6,46-35.4,56.1v0.6c24.1,6.3,31,29.8,32.6,52.3
					c0.9,14.1,0.6,40.4,9.4,52.9h-49.2c-6-14.1-5.3-35.7-7.8-53.6c-3.4-23.5-12.5-33.8-37.3-33.8h-49.2v87.4h-49.2V1888.5z
					 M1548.3,1989.7h53.9c21.9,0,33.8-9.4,33.8-31.9c0-21.6-11.9-31-33.8-31h-53.9V1989.7z"/>
			</g>
			<g>
				<path d="M1848.9,2089.9c-17.9,17.5-37.6,26.6-63,26.6c-40.4,0-72.3-24.7-72.3-67c0-31.3,23.8-52.6,50.1-64.8
					c-11.9-14.7-21.3-28.2-21.3-47.6c0-31,28.5-51,58.3-51c33.8,0,61.4,18.2,61.4,53.6c0,26-17.2,43.8-39.8,55.7l28.8,35.4
					c4.4-8.1,6.9-17.5,8.1-26.6h38.5c-2.2,20-9.1,39.5-21.6,55.1l45.4,52.9H1867L1848.9,2089.9z M1787.2,2013.5
					c-15.7,6.9-31.3,18.8-31.3,37c0,16.3,15,29.4,31.9,29.4c16,0,27.2-8.1,37.6-19.7L1787.2,2013.5z M1802.9,1915.8
					c-10.6,0-20,8.1-20,19.7c0,14.1,9.1,23.2,17.5,33.5c12.5-8.1,22.9-15.7,22.9-31.9C1823.2,1925.5,1813.9,1915.8,1802.9,1915.8z"
					/>
			</g>
			<g>
				<path d="M1934.8,1885.8h96.5c57.9,0,101.5,36.3,101.5,110.6c0,64.8-33.2,113.1-101.5,113.1h-96.5L1934.8,1885.8L1934.8,1885.8z
					 M1984,2068.1h43.8c28.5,0,55.7-17.5,55.7-67c0-45.1-15.7-73.9-64.5-73.9h-35.1L1984,2068.1L1984,2068.1z"/>
			</g>
			<g>
				<path d="M2258.9,1888.5h96.5c57.9,0,101.5,36.3,101.5,110.6c0,64.8-33.2,113.1-101.5,113.1h-96.5V1888.5z M2308,2070.8h43.8
					c28.5,0,55.7-17.5,55.7-67c0-45.1-15.7-73.9-64.5-73.9h-35.1v140.9H2308z"/>
			</g>
			<g>
				<path d="M2490.9,1888.5h167.2v41.3H2540v47.9h108.4v38.2H2540v54.8h120.6v41.3h-169.7V1888.5z"/>
			</g>
			<g>
				<path d="M2693.9,1888.5h100.8c55.7,0,77.4,35.4,77.4,71.7s-21.6,71.7-77.4,71.7H2743v80.2h-49.1V1888.5z M2743,1993.8h38.2
					c22.9,0,43.2-5,43.2-33.5c0-28.5-20.4-33.5-43.2-33.5H2743V1993.8z"/>
			</g>
			<g>
				<path d="M2946.3,1929.9h-67v-41.3h183.2v41.3h-67v182.3h-49.2V1929.9z"/>
			</g>
			<g>
				<path d="M3050.6,2063.9h49.2v48.2h-49.2V2063.9z"/>
			</g>
			<g>
				<path d="M3242.2,2050.1h-26v-28.2h29.8l5.6-38.8h-26v-28.2h29.8l8.8-62h30.4l-8.8,62h30.4l8.5-62h30.4l-8.5,62h23.2v28.2h-27.2
					l-5.3,38.8h23.2v28.2h-27.2l-8.5,62h-30.4l8.5-62h-30.1l-8.8,62h-30.4L3242.2,2050.1z M3282,1983.1l-5.6,38.8h30.4l5.3-38.8
					H3282z"/>
			</g>
			<g>
				<path d="M3391.6,1977.2c-1.6-50.1,26.9-88.6,79.5-88.6c40.1,0,75.2,25.7,75.2,68.6c0,32.9-17.5,51-39.1,66.4
					c-21.6,15.3-47.3,27.9-63.3,50.4h103.7v38.2h-161c0.3-50.7,31.3-72.3,69.2-98c19.4-13.2,45.7-26.6,46-53.6
					c0-20.7-13.8-33.8-32.9-33.8c-26.3,0-34.8,27.2-34.8,50.4H3391.6z"/>
			</g>
			<g>
				<g>
					<path d="M3635.5,925.6h-23.6v-14.5h64.3v14.5h-23.5v64h-17.3v-64H3635.5z"/>
				</g>
				<g>
					<path d="M3685.3,911h24.3l18.4,54h0.2l17.4-54h24.3v78.5h-16.2v-55.6h-0.2l-19.2,55.6h-13.4l-19.2-55.1h-0.2v55.1h-16.2
						L3685.3,911L3685.3,911z"/>
				</g>
			</g>
		</g>
		<g>
			<path d="M1592.2,1351.5c-8.3,7.2-17.5,12.3-26.2,16.2c4.3,77.5,12.4,138.3,33.5,199.3c319.3-73.7,671.9-146.9,834.7-183.2
				c-7.6-12.9-12.7-27.4-14.7-42.8c-1.9-14.3-1.1-28.7,2.1-42.4c-13.1,23.6-35.5,43.7-48.9,54.4c-19.5,15.6-47.9,34.1-72.3,34.1
				c-6.3,0-12.3-1.2-17.8-3.5c-0.8,0.2-1.7,0.4-2.4,0.6c-6,1.4-14.1,3.4-23.5,3.4c-14.9,0-36.4-5.1-54.3-29.3
				c-26.4-35.8-22.9-78.8-1.5-139.2c-57.2,80.9-97.5,130-148.7,142.2c-4.2,1-8.6,1.5-13,1.5c-12.1,0-24.2-3.8-35.9-11.3
				c-29-18.6-44.2-53.4-38.6-88.7c4.8-30.6,14.5-88.4,25.4-131.6c1.4-5.7,2.9-11.6,4.4-17.5c-0.4,0-0.7,0.1-1.1,0.1
				c-106.4,136.7-199.1,282-255.4,370.3c-3.4,5.3-6.6,10.3-9.7,15.1c-8,12.5-20.2,21.4-34.5,25.1c-14.7,3.8-26.7,6.4-39,8.4
				c-3.1,0.5-6.3,0.8-9.5,0.8c-32.4,0-58.9-26.3-58.9-58.7c0-20.6,3.3-35.9,10.6-48.1c8-13.5,18.8-20.1,26-24.4
				c5.9-3.6,8.1-4.9,11.3-10.8c18.1-32.5,100.9-146.1,192-263.6c-98.4,9.1-184.7,18.7-271,29.8c0.3,18.6,0.8,36.1,1.5,52
				c12.4,4.8,23.4,11.3,32.8,19.2c18.1,15.4,28.7,35.6,29.7,56.9C1620.6,1312.3,1611.2,1335.1,1592.2,1351.5z"/>
			<path d="M1621.6,1474.5c0,13.2,10.9,23.6,23.7,23.6c1.3,0,2.5-0.1,3.8-0.3c12.1-2,23.5-4.5,35.8-7.7c5.7-1.5,10.5-5,13.7-10
				c54.2-84.9,150.1-237.1,261.8-381.5l0,0c0,0,0,0,0.1-0.1c4.6-6,9.3-11.9,14-17.9c0.1-0.1,0.1-0.1,0.2-0.2
				c4.7-5.9,9.4-11.9,14.1-17.8c0.1-0.1,0.1-0.1,0.2-0.2c4.7-5.9,9.5-11.8,14.3-17.7c0-0.1,0.1-0.1,0.1-0.2
				c4.8-5.9,9.6-11.7,14.4-17.5c0.1-0.1,0.1-0.1,0.2-0.2c4.8-5.8,9.6-11.5,14.5-17.2c0.1-0.1,0.1-0.2,0.2-0.2
				c4.9-5.7,9.7-11.4,14.6-17c0-0.1,0.1-0.1,0.1-0.2c4.9-5.6,9.8-11.2,14.8-16.8l0.1-0.1c5-5.6,9.9-11.1,14.9-16.6
				c-1.1,3-2.2,6-3.3,9.1c-0.3,0.9-0.7,1.8-1,2.8c-0.8,2.3-1.6,4.6-2.4,6.9c-0.3,0.9-0.7,1.9-1,2.8c-1.1,3.1-2.1,6.2-3.2,9.3
				c0,0.1-0.1,0.2-0.1,0.3c-1.1,3.2-2.1,6.4-3.2,9.7c-0.3,1-0.6,2-1,3c-0.8,2.4-1.5,4.8-2.3,7.2c-0.3,1-0.7,2.1-1,3.1
				c-1,3.2-2,6.4-2.9,9.6c-0.1,0.2-0.1,0.4-0.2,0.7c-1,3.3-2,6.6-3,9.9c-0.3,1.1-0.6,2.2-1,3.3c-0.7,2.4-1.4,4.9-2.1,7.3
				c-0.3,1.1-0.6,2.3-1,3.4c-0.9,3.2-1.8,6.4-2.7,9.7c-0.1,0.3-0.2,0.7-0.3,1c-0.9,3.3-1.8,6.7-2.8,10c-0.3,1.2-0.6,2.4-1,3.6
				c-0.7,2.4-1.3,4.9-2,7.3c-0.3,1.2-0.6,2.3-0.9,3.5c-0.9,3.2-1.7,6.4-2.6,9.6c-0.1,0.3-0.1,0.5-0.2,0.8l0,0
				c-4.1,15.7-8.1,31.4-12,46.8c-10.3,41.4-19.7,96.7-24.7,128.6c-3.3,20.8,5.1,42.2,22.8,53.6c5.3,3.4,11.1,5.7,16.9,5.7
				c1.6,0,3.2-0.2,4.9-0.6c46.3-11,88.1-70.5,158.6-171.9c22-31.6,42.8-59.1,60.5-81.4c0.1-0.2,0.2-0.3,0.4-0.5
				c31.9-40.2,53.7-63.6,53.7-63.6l0,0l0,0c0,0-0.2,0.7-0.7,2.1v0.1c-0.1,0.2-0.1,0.4-0.2,0.6c0,0.1-0.1,0.2-0.1,0.3
				c-0.1,0.2-0.1,0.4-0.2,0.6c0,0.1-0.1,0.2-0.1,0.3c-0.3,0.8-0.5,1.7-0.9,2.7c0,0.1-0.1,0.3-0.1,0.4c-0.1,0.2-0.2,0.5-0.2,0.8
				c-0.1,0.2-0.2,0.5-0.2,0.7c-0.1,0.2-0.1,0.4-0.2,0.6c-0.1,0.3-0.2,0.6-0.3,0.9c-0.1,0.2-0.2,0.5-0.2,0.7c-0.1,0.3-0.2,0.7-0.3,1
				c-0.1,0.2-0.1,0.4-0.2,0.6c-0.1,0.4-0.3,0.8-0.4,1.2c-0.1,0.2-0.1,0.4-0.2,0.5c-0.2,0.5-0.3,1-0.5,1.6c0,0.1-0.1,0.2-0.1,0.3
				c-0.7,2-1.4,4.2-2.2,6.5c0,0.1-0.1,0.3-0.1,0.4c-0.2,0.6-0.4,1.3-0.6,1.9c-0.1,0.2-0.1,0.4-0.2,0.5c-0.2,0.6-0.4,1.2-0.6,1.8
				c-0.1,0.3-0.2,0.5-0.3,0.8c-0.2,0.6-0.4,1.1-0.6,1.7c-0.1,0.3-0.2,0.6-0.3,0.9c-0.2,0.5-0.4,1.1-0.6,1.7c-0.1,0.3-0.2,0.7-0.4,1
				c-0.2,0.5-0.4,1.1-0.6,1.7c-0.1,0.4-0.2,0.7-0.4,1.1c-0.2,0.6-0.4,1.3-0.7,1.9c-0.1,0.3-0.2,0.6-0.3,0.9c-0.7,1.9-1.3,3.9-2,5.9
				c-0.1,0.4-0.3,0.7-0.4,1.1c-0.2,0.6-0.4,1.3-0.7,1.9c-0.2,0.5-0.3,0.9-0.5,1.4c-0.2,0.6-0.4,1.1-0.6,1.7
				c-0.2,0.6-0.4,1.1-0.6,1.7c-0.2,0.5-0.3,1-0.5,1.5c-0.2,0.6-0.4,1.2-0.6,1.8c-0.2,0.5-0.3,0.9-0.5,1.4c-0.2,0.7-0.5,1.3-0.7,2
				c-0.1,0.4-0.3,0.8-0.4,1.2c-0.2,0.7-0.5,1.4-0.8,2.1c-0.1,0.4-0.3,0.7-0.4,1.1c-0.2,0.6-0.4,1.2-0.7,1.8l0,0
				c-11,30.6-25.4,68.8-41.9,107.7c-37.5,88.1-42.7,126.8-22.3,154.5c8.6,11.7,17.4,14.9,25.9,14.9c10.1,0,19.9-4.5,28.6-4.5
				c3.5,0,6.9,0.7,10,2.8c1.3,0.9,3.1,1.3,5.2,1.3c28.5,0,121.4-76.1,90-104.2c-3.1-2.8-5.9-3.9-8.4-3.9c-13,0-21.4,29.1-44.1,29.1
				c-1.1,0-2.1-0.1-3.2-0.2c-15.9-1.9-4.3-42.9,10-82.5c13.6-37.5,26.2-75.4,37.4-113.7c0.7-2.3,1.3-4.5,2-6.8l0,0
				c2.2-7.7,4.4-15.5,6.6-23.3c0.2-0.8,0.4-1.6,0.6-2.4c0.3-1.2,0.6-2.4,1-3.6c0.3-1,0.5-1.9,0.8-2.9c0.3-1.1,0.6-2.2,0.9-3.4
				c0.3-1.1,0.5-2.1,0.8-3.2s0.5-2.2,0.8-3.2c0.3-1.1,0.5-2.2,0.8-3.3c0.3-1.1,0.5-2.1,0.7-3.2c0.3-1.1,0.5-2.2,0.7-3.3
				c0.2-1,0.5-2.1,0.7-3.1c0.2-1.1,0.5-2.2,0.7-3.3c0.2-1,0.4-2,0.6-3.1c0.2-1.1,0.4-2.2,0.6-3.3c0.2-1,0.4-2,0.6-3
				c0.2-1.1,0.4-2.2,0.6-3.2c0.2-1,0.3-2,0.5-3c0.2-1.1,0.3-2.1,0.5-3.2c0.1-1,0.3-1.9,0.4-2.9c0.1-1,0.3-2.1,0.4-3.1
				c0.1-1,0.2-1.9,0.3-2.8c0.1-1,0.2-2,0.3-3.1c0.1-0.9,0.2-1.9,0.3-2.8c0.1-1,0.2-2,0.2-3c0.1-0.9,0.1-1.8,0.2-2.7
				c0.1-1,0.1-1.9,0.1-2.9c0-0.9,0-1.7,0.1-2.6c0-0.9,0-1.9,0-2.8c0-0.8,0-1.7,0-2.5c0-0.9-0.1-1.8-0.1-2.7c0-0.8-0.1-1.6-0.1-2.4
				c-0.1-0.9-0.1-1.7-0.2-2.6c-0.1-0.8-0.2-1.5-0.3-2.3c-0.1-0.8-0.2-1.6-0.4-2.4c-0.1-0.7-0.2-1.5-0.4-2.2
				c-0.2-0.8-0.3-1.6-0.5-2.3s-0.3-1.4-0.5-2.1c-0.2-0.7-0.4-1.5-0.7-2.2c-0.2-0.7-0.4-1.3-0.6-1.9c-0.3-0.7-0.5-1.4-0.8-2
				c-0.3-0.6-0.5-1.2-0.8-1.8c-0.3-0.7-0.7-1.3-1-1.9c-0.3-0.6-0.6-1.1-0.9-1.6c-0.4-0.6-0.8-1.2-1.2-1.7c-0.3-0.5-0.7-1-1-1.5
				c-0.4-0.6-0.9-1.1-1.4-1.6c-0.4-0.4-0.8-0.9-1.2-1.3c-0.5-0.5-1-1-1.6-1.4c-0.4-0.4-0.9-0.8-1.3-1.1c-0.6-0.4-1.2-0.8-1.8-1.2
				c-0.5-0.3-0.9-0.7-1.4-0.9c-0.7-0.4-1.4-0.7-2.1-1.1c-0.5-0.2-1-0.5-1.5-0.7c-0.8-0.3-1.7-0.6-2.6-0.9c-0.5-0.2-0.9-0.4-1.4-0.5
				c-1.3-0.4-2.7-0.7-4.1-1c-0.1,0-0.2,0-0.3-0.1h-0.1c-0.5-0.1-0.9-0.1-1.4-0.2c-0.2,0-0.4,0-0.6,0c-0.4,0-0.7,0-1.1,0
				c-0.1,0-0.2,0-0.3,0c-1,0-2,0.1-3,0.2c-0.1,0-0.1,0-0.2,0c-1.1,0.1-2.2,0.3-3.3,0.6h-0.1c-1.1,0.3-2.3,0.6-3.5,1
				c-0.1,0-0.1,0-0.2,0.1c-1.2,0.4-2.4,0.8-3.6,1.3c-0.1,0-0.2,0.1-0.3,0.1c-1.2,0.5-2.4,1-3.7,1.6c-0.2,0.1-0.3,0.1-0.5,0.2
				c-1.2,0.6-2.5,1.2-3.7,1.9c-0.2,0.1-0.4,0.2-0.6,0.3c-1.2,0.7-2.5,1.4-3.8,2.1c-0.2,0.1-0.4,0.3-0.7,0.4
				c-1.3,0.8-2.5,1.5-3.8,2.4c-0.3,0.2-0.5,0.3-0.8,0.5c-1.3,0.8-2.6,1.7-3.9,2.6c-0.3,0.2-0.5,0.4-0.8,0.5c-1.3,0.9-2.7,1.8-4,2.8
				c-0.3,0.2-0.6,0.4-0.8,0.6c-1.3,1-2.7,2-4.1,3c-0.3,0.2-0.6,0.4-0.9,0.7c-1.4,1.1-2.8,2.1-4.2,3.2c-0.3,0.2-0.6,0.5-0.9,0.7
				c-1.4,1.1-2.8,2.3-4.2,3.4c-0.3,0.2-0.6,0.5-0.9,0.7c-1.4,1.2-2.9,2.4-4.3,3.6c-0.3,0.2-0.5,0.5-0.8,0.7c-1.5,1.3-3,2.6-4.4,3.9
				c-0.2,0.2-0.5,0.4-0.7,0.6c-1.5,1.3-3,2.7-4.6,4.1c-0.2,0.2-0.4,0.4-0.6,0.5c-1.5,1.4-3,2.8-4.6,4.2c-0.2,0.2-0.4,0.4-0.6,0.5
				c-1.5,1.4-3.1,2.9-4.6,4.3c-0.2,0.2-0.4,0.3-0.5,0.5c-1.6,1.5-3.1,3-4.7,4.5c-0.2,0.2-0.5,0.4-0.7,0.7c-1.5,1.5-3,3-4.6,4.5
				c-0.3,0.3-0.5,0.5-0.8,0.8c-1.5,1.5-3,3-4.4,4.5c-0.3,0.3-0.6,0.6-0.9,0.9c-1.5,1.5-2.9,3-4.3,4.5c-0.3,0.3-0.6,0.6-0.9,1
				c-1.4,1.5-2.8,3-4.3,4.5c-0.3,0.3-0.6,0.7-0.9,1c-1.4,1.5-2.8,3-4.2,4.5c-0.3,0.3-0.6,0.7-1,1c-1.4,1.5-2.7,3-4.1,4.5
				c-0.3,0.4-0.6,0.7-1,1.1c-1.4,1.5-2.7,3-4,4.5c-0.3,0.3-0.6,0.7-0.9,1c-1.3,1.5-2.7,3-4,4.5c-0.3,0.3-0.6,0.7-0.9,1
				c-1.3,1.5-2.6,3-3.9,4.5c-0.3,0.3-0.5,0.6-0.8,0.9c-1.3,1.5-2.6,3-3.8,4.5c-0.2,0.3-0.5,0.6-0.7,0.9c-1.3,1.5-2.5,3-3.8,4.5
				c-0.2,0.3-0.4,0.5-0.6,0.8c-1.2,1.5-2.5,3-3.7,4.5c-0.2,0.2-0.4,0.5-0.6,0.7c-1.2,1.4-2.3,2.9-3.5,4.3c-0.1,0.1-0.2,0.2-0.3,0.4
				c-7.9,10-18,22.9-28.9,37l0,0c-39.8,51.7-90.7,119.4-90.7,119.4s17.5-62.4,31.8-115.8c0.9-3.2,1.7-6.3,2.5-9.4
				c0-0.2,0.1-0.3,0.1-0.5c0.8-3,1.6-5.9,2.3-8.8c0-0.2,0.1-0.3,0.1-0.5c4.6-17.3,12.7-41.6,20.8-66.3v-0.1c1-2.9,1.9-5.9,2.9-8.8
				c0.2-0.6,0.4-1.1,0.5-1.7c0.9-2.7,1.7-5.3,2.6-7.9c12.2-37.6,22.3-72.3,17.7-80.5c-9.1-16.5-7.1-35.7-14.9-51.2
				c0-0.1-0.1-0.1-0.1-0.2c-0.3-0.6-0.6-1.1-0.9-1.7c-0.1-0.2-0.3-0.5-0.4-0.7c-0.2-0.4-0.4-0.7-0.6-1.1c-0.2-0.3-0.3-0.5-0.5-0.7
				c-0.2-0.3-0.4-0.6-0.6-0.9c-0.2-0.2-0.3-0.5-0.5-0.7c-0.2-0.3-0.4-0.6-0.6-0.9c-0.2-0.2-0.4-0.5-0.5-0.7
				c-0.2-0.3-0.4-0.5-0.6-0.8c-0.2-0.2-0.4-0.4-0.6-0.6c-0.2-0.2-0.4-0.5-0.7-0.7c-0.2-0.2-0.4-0.4-0.6-0.6
				c-0.2-0.2-0.5-0.5-0.7-0.7s-0.4-0.4-0.6-0.5c-0.2-0.2-0.5-0.4-0.7-0.6c-0.2-0.2-0.4-0.3-0.6-0.5c-0.2-0.2-0.5-0.4-0.8-0.5
				c-0.2-0.1-0.4-0.3-0.7-0.4c-0.3-0.2-0.5-0.3-0.8-0.5c-0.2-0.1-0.4-0.3-0.7-0.4c-0.3-0.1-0.5-0.3-0.8-0.4
				c-0.2-0.1-0.5-0.2-0.7-0.3c-0.3-0.1-0.6-0.2-0.9-0.3c-0.2-0.1-0.5-0.2-0.7-0.3c-0.3-0.1-0.6-0.2-0.9-0.3
				c-0.2-0.1-0.5-0.1-0.7-0.2c-0.3-0.1-0.6-0.1-0.9-0.2c-0.3-0.1-0.5-0.1-0.8-0.1s-0.6-0.1-1-0.1c-0.3,0-0.5-0.1-0.8-0.1s-0.7,0-1,0
				s-0.5,0-0.8,0c-0.2,0-0.4,0-0.6,0c-0.4,0-0.8,0-1.2,0.1c-0.2,0-0.5,0-0.7,0.1c-0.4,0-0.8,0.1-1.1,0.1s-0.5,0.1-0.8,0.1
				c-0.4,0.1-0.8,0.1-1.1,0.2c-0.3,0.1-0.5,0.1-0.8,0.2c-0.4,0.1-0.8,0.2-1.2,0.3c-0.3,0.1-0.6,0.2-0.9,0.2
				c-0.4,0.1-0.8,0.2-1.2,0.4c-0.3,0.1-0.6,0.2-0.9,0.3c-0.4,0.1-0.8,0.3-1.2,0.4c-0.3,0.1-0.6,0.2-0.9,0.4
				c-0.4,0.2-0.8,0.3-1.3,0.5c-0.3,0.1-0.6,0.3-0.9,0.4c-0.4,0.2-0.9,0.4-1.3,0.6c-0.3,0.2-0.6,0.3-1,0.5s-0.9,0.5-1.4,0.7
				c-0.3,0.2-0.7,0.3-1,0.5c-0.5,0.3-0.9,0.5-1.4,0.8c-0.3,0.2-0.7,0.4-1,0.6c-0.5,0.3-1,0.6-1.5,0.9c-0.3,0.2-0.7,0.4-1,0.6
				c-0.5,0.3-1,0.7-1.6,1c-0.3,0.2-0.7,0.4-1,0.7c-0.6,0.4-1.1,0.8-1.7,1.2c-0.3,0.2-0.6,0.4-1,0.7c-0.6,0.5-1.3,1-2,1.5
				c-0.2,0.2-0.5,0.4-0.7,0.6c-0.9,0.7-1.9,1.4-2.8,2.2c-1.2,1-2.5,2-3.8,3.1c-0.1,0.1-0.2,0.2-0.3,0.2c-1.2,1.1-2.5,2.2-3.9,3.4
				c-0.2,0.2-0.3,0.3-0.5,0.5c-1.3,1.2-2.6,2.4-4,3.7c-0.2,0.2-0.4,0.4-0.6,0.6c-1.4,1.3-2.8,2.6-4.2,4c-0.2,0.2-0.4,0.4-0.6,0.6
				c-1.5,1.4-3,2.9-4.5,4.4c-0.2,0.2-0.4,0.4-0.6,0.6c-1.6,1.6-3.2,3.2-4.9,4.9c-0.1,0.1-0.2,0.2-0.3,0.3
				c-3.5,3.5-7.1,7.3-10.9,11.3c-0.1,0.1-0.2,0.3-0.4,0.4c-1.8,1.9-3.6,3.9-5.5,5.8c-0.2,0.2-0.4,0.5-0.6,0.7c-1.8,2-3.7,4-5.6,6
				c-0.2,0.3-0.5,0.5-0.7,0.8c-1.9,2.1-3.8,4.2-5.8,6.3c-0.2,0.2-0.4,0.5-0.6,0.7c-2,2.2-4,4.4-6.1,6.7c-0.1,0.2-0.3,0.3-0.5,0.5
				c-2.1,2.4-4.3,4.8-6.5,7.3l0,0c-4.5,5.1-9.1,10.3-13.8,15.8c-0.1,0.1-0.2,0.3-0.3,0.4c-2.3,2.6-4.5,5.2-6.8,7.9
				c-0.2,0.2-0.3,0.4-0.5,0.6c-2.3,2.7-4.6,5.3-6.9,8.1c-0.2,0.2-0.4,0.4-0.5,0.6c-2.3,2.7-4.7,5.5-7.1,8.3
				c-0.1,0.2-0.3,0.3-0.4,0.5c-2.4,2.9-4.9,5.8-7.4,8.8l0,0c-10.2,12.2-20.8,24.9-31.5,38l-0.1,0.1c-2.7,3.3-5.4,6.5-8.1,9.9l0,0
				c-21.7,26.6-44.1,54.7-66.5,83l0,0c-103.5,131.4-204.9,269.5-224,303.9C1645.8,1443.1,1621.5,1423.8,1621.6,1474.5z"/>
			<path d="M2796.8,1088.1c-9.8,14.5-23.2,31.5-37.9,48.8c62.1-24.6,135.3-52.4,202.6-75.2c-47.4,0.3-96.9,1.3-148.8,2.9
				c-1.8,2.7-3.7,5.5-5.6,8.2C2803.8,1077.8,2800.3,1082.9,2796.8,1088.1z"/>
			<g>
				<path d="M1588,1632.1C1588,1632.1,1588,1632,1588,1632.1c-1.6-3.3-3-6.5-4.4-9.7c-0.3-0.7-0.6-1.5-0.9-2.2
					c-1.1-2.6-2.3-5.2-3.3-7.8c-0.3-0.6-0.5-1.2-0.8-1.8c-1.2-2.8-2.3-5.6-3.4-8.4c-0.1-0.3-0.3-0.7-0.4-1c-1.3-3.2-2.5-6.3-3.7-9.5
					l0,0c-29.3-78-37.2-152.1-41.4-247.4c23.1-9.1,56.4-17.4,54.5-57c-1.1-23.1-24.8-44.6-61.1-50.7c-6.1-90.7-2.4-256.1-0.9-363.6
					c0-1.1,0-2.2,0-3.3c0-1.1,0-2.3,0-3.4c0-1.7,0-3.5,0.1-5.2c0-0.9,0-1.7,0-2.6c0-1.8,0-3.5,0.1-5.3c0-0.7,0-1.3,0-2
					c0-2.2,0.1-4.3,0.1-6.4l0,0c1.3-114,24.4-252.9,48.7-362.7c0.9-4.2,1.9-8.4,2.8-12.5c1.9-8.3,3.8-16.3,5.6-24.2
					c2.8-11.8,5.6-23.1,8.4-33.9c9.4-36.9,14.1-82.3-1.3-110.4c-8-14.7-21.6-24.7-42.8-26.2c-0.5,0-1.1,0-1.7,0
					c-0.4,0-0.8,0-1.2,0.1c-0.4,0.1-0.9,0.2-1.4,0.3c-0.5,0.1-0.9,0.2-1.4,0.3c-0.5,0.1-1,0.3-1.5,0.5c-0.5,0.2-1,0.3-1.5,0.5
					c-0.5,0.2-1.1,0.4-1.6,0.7c-0.6,0.2-1.1,0.5-1.7,0.8c-0.6,0.3-1.1,0.6-1.7,0.9s-1.2,0.6-1.9,1c-0.6,0.3-1.2,0.7-1.8,1
					c-0.7,0.4-1.4,0.8-2.1,1.2c-0.6,0.4-1.2,0.8-1.8,1.2c-0.7,0.5-1.5,1-2.3,1.5c-0.6,0.4-1.3,0.8-1.9,1.3c-0.8,0.6-1.6,1.1-2.5,1.7
					c-0.6,0.4-1.3,0.9-1.9,1.4c-0.9,0.7-1.8,1.3-2.7,2c-0.6,0.5-1.2,1-1.9,1.4c-1,0.8-2,1.5-3,2.3c-0.6,0.5-1.2,1-1.8,1.5
					c-1.1,0.9-2.1,1.7-3.2,2.6c-0.6,0.5-1.2,1-1.8,1.5c-1.2,1-2.3,1.9-3.5,3c-0.6,0.5-1.1,1-1.7,1.5c-1.3,1.1-2.5,2.2-3.8,3.3
					c-0.5,0.5-1,0.9-1.6,1.4c-1.4,1.2-2.8,2.4-4.2,3.7c-0.5,0.4-1,0.9-1.4,1.3c-1.5,1.4-3,2.7-4.5,4.1c-0.4,0.4-0.8,0.8-1.3,1.2
					c-1.6,1.5-3.2,3-4.9,4.6c-0.3,0.3-0.7,0.7-1,1c-1.8,1.7-3.5,3.3-5.3,5c-0.3,0.2-0.5,0.5-0.8,0.7c-1.9,1.8-3.8,3.7-5.8,5.6
					c-0.2,0.2-0.3,0.3-0.5,0.5c-2,2-4.1,4-6.2,6.1c-0.1,0.1-0.2,0.2-0.2,0.2c-82.4,81.4-202.3,220.8-305.7,337.8
					c-0.4,0.5-0.8,1-1.3,1.4c-1.5,1.7-3,3.3-4.4,5c-1.4,1.6-2.8,3.1-4.2,4.7c-0.7,0.8-1.3,1.5-2,2.3c-2.1,2.4-4.2,4.8-6.3,7.1
					c-0.4,0.4-0.7,0.8-1.1,1.2c-16.2,18.2-31.8,35.7-46.7,52.2c-127.8,141-264.4,295.2-385.6,445.1c-3.2,0.1-6.4,0.1-9.6,0.1
					c-0.1,0-0.2,0-0.3,0h-0.1c-3.4,0-6.8,0-10.2-0.1c-0.1,0-0.2,0-0.2,0c-3.5-0.1-6.9-0.2-10.3-0.3l0,0c-3.4-0.1-6.8-0.3-10.2-0.4
					c-0.1,0-0.1,0-0.2,0c-3.3-0.2-6.6-0.4-9.8-0.6c-0.1,0-0.2,0-0.4,0c-3.2-0.2-6.3-0.4-9.5-0.7c-0.2,0-0.4,0-0.6,0
					c-3-0.2-6.1-0.5-9.1-0.7c-0.3,0-0.5,0-0.8-0.1c-2.9-0.2-5.8-0.5-8.7-0.8c-0.4,0-0.7-0.1-1.1-0.1c-2.8-0.2-5.6-0.5-8.3-0.8
					c-0.7-0.1-1.5-0.1-2.2-0.2c-1.5-0.1-3-0.3-4.5-0.4c-0.7-0.1-1.4-0.1-2.1-0.2c-0.3,0-0.6-0.1-0.9-0.1c-2.8-0.3-5.6-0.5-8.4-0.8
					c-0.3,0-0.6-0.1-0.8-0.1c-2.7-0.2-5.4-0.5-8-0.7c-0.3,0-0.6-0.1-0.9-0.1c-2.6-0.2-5.2-0.4-7.7-0.6c-0.3,0-0.7,0-1-0.1
					c-2.5-0.2-5-0.4-7.5-0.5c-0.3,0-0.6,0-1-0.1c-2.5-0.2-4.9-0.3-7.3-0.4c-0.3,0-0.7,0-1,0c-2.4-0.1-4.8-0.2-7.1-0.3
					c-0.3,0-0.7,0-1,0c-2.3-0.1-4.7-0.1-7-0.1c-0.5,0-1,0-1.5,0s-1,0-1.5,0c-0.7,0-1.5,0-2.2,0c-0.5,0-1,0-1.4,0
					c-0.8,0-1.5,0-2.3,0.1c-0.4,0-0.9,0-1.3,0c-0.8,0-1.6,0.1-2.4,0.1c-0.4,0-0.8,0-1.2,0.1c-0.8,0-1.7,0.1-2.5,0.2
					c-0.3,0-0.7,0-1,0.1c-1,0.1-1.9,0.1-2.9,0.2c-0.2,0-0.4,0-0.6,0c-2.4,0.2-4.7,0.5-7,0.8H510c-1.1,0.1-2.2,0.3-3.3,0.5
					c-0.2,0-0.5,0.1-0.7,0.1c-0.9,0.1-1.8,0.3-2.6,0.4c-0.3,0.1-0.6,0.1-0.9,0.2c-0.8,0.1-1.6,0.3-2.4,0.5c-0.3,0.1-0.7,0.1-1,0.2
					c-0.7,0.2-1.5,0.3-2.2,0.5c-0.4,0.1-0.7,0.2-1,0.3c-0.7,0.2-1.4,0.4-2.2,0.5c-0.4,0.1-0.7,0.2-1.1,0.3c-0.7,0.2-1.4,0.4-2.1,0.6
					c-0.3,0.1-0.7,0.2-1,0.3c-0.7,0.2-1.4,0.4-2.1,0.7c-0.3,0.1-0.6,0.2-1,0.3c-0.7,0.3-1.5,0.5-2.2,0.8c-0.3,0.1-0.6,0.2-0.8,0.3
					c-0.8,0.3-1.6,0.6-2.4,0.9c-0.2,0.1-0.4,0.2-0.6,0.2c-3,1.2-5.9,2.6-8.8,4.2c-0.2,0.1-0.4,0.2-0.6,0.3c-0.7,0.4-1.5,0.8-2.2,1.2
					c-0.3,0.2-0.6,0.3-0.8,0.5c-0.6,0.4-1.3,0.8-1.9,1.2c-0.3,0.2-0.6,0.4-1,0.6c-0.6,0.4-1.2,0.8-1.7,1.2c-0.3,0.2-0.7,0.5-1,0.7
					c-0.6,0.4-1.1,0.8-1.7,1.2c-0.3,0.3-0.7,0.5-1,0.8c-0.5,0.4-1.1,0.8-1.6,1.3c-0.3,0.3-0.7,0.5-1,0.8c-0.5,0.4-1,0.9-1.6,1.3
					c-0.3,0.3-0.7,0.6-1,0.9c-0.5,0.5-1,1-1.6,1.4c-0.3,0.3-0.6,0.6-0.9,0.9c-0.5,0.5-1.1,1-1.6,1.6c-0.3,0.3-0.6,0.6-0.9,0.9
					c-0.6,0.6-1.2,1.2-1.7,1.9c-0.2,0.2-0.4,0.5-0.6,0.7c-0.8,0.9-1.6,1.8-2.4,2.7c-35.3,41.9-126.9,52.1-107.4,120.6l0,0
					c0.3,1.2,0.7,2.3,1.2,3.4c0.1,0.4,0.3,0.7,0.4,1c0.3,0.8,0.7,1.5,1,2.3c0.2,0.4,0.4,0.7,0.5,1.1c0.4,0.8,0.9,1.6,1.3,2.4
					c0.2,0.3,0.3,0.5,0.5,0.8c0.6,1,1.3,1.9,2,2.8c0.3,0.4,0.6,0.7,0.8,1c0.5,0.6,0.9,1.2,1.4,1.7c0.4,0.4,0.7,0.8,1.1,1.2
					c0.5,0.5,1,1,1.5,1.5c0.4,0.4,0.8,0.8,1.2,1.1c0.7,0.7,1.5,1.3,2.3,2c0.6,0.5,1.2,1,1.9,1.5c0.4,0.3,0.9,0.7,1.4,1
					c0.6,0.4,1.2,0.9,1.9,1.3c0.4,0.3,0.8,0.5,1.2,0.8c0.7,0.4,1.4,0.9,2.1,1.3c0.2,0.1,0.5,0.3,0.7,0.4c1.7,1,3.4,1.9,5.2,2.9
					c0.2,0.1,0.3,0.2,0.5,0.2c0.9,0.5,1.8,0.9,2.8,1.3c0.3,0.1,0.6,0.3,0.9,0.4c1,0.4,1.9,0.9,2.9,1.3c29.7,12.5,72.2,16,111,16
					c51.5,0,96.5-6.2,96.5-6.2c-99.2,132.2-202.8,245.5-323.9,412c-17.6,24.2,6.4,60.9,25.3,63.1c17.3,2,36.8,4.5,58.3,4.5
					c34.5,0,74.3-6.5,119.1-32.4c63.2-36.4,108-105.8,209.3-249c71-100.4,99.2-143.2,141-198.3c40.7,4.2,76.5,5.9,108.6,5.9
					c170.9,0,234.6-50,360.8-50c28.6,121.2,33.2,231.6,77.1,301.9c0,0,0,0.1,0.1,0.1c1,1.5,1.9,3,2.9,4.5c0.3,0.5,0.7,1,1,1.5
					c0.7,1,1.3,1.9,2,2.9c0.4,0.6,0.8,1.1,1.2,1.7c0.6,0.8,1.3,1.7,1.9,2.5c0.4,0.6,0.9,1.1,1.3,1.6c0.6,0.8,1.2,1.5,1.9,2.3
					c0.5,0.5,0.9,1.1,1.4,1.6c0.6,0.7,1.3,1.4,1.9,2.1c0.5,0.5,0.9,1,1.4,1.5c0.7,0.7,1.3,1.4,2,2c0.4,0.4,0.9,0.9,1.3,1.3
					c0.7,0.7,1.4,1.4,2.2,2.1c0.4,0.4,0.8,0.7,1.2,1.1c1,1,2.1,1.9,3.1,2.8c0.1,0.1,0.2,0.2,0.3,0.3c1.1,0.9,2.1,1.8,3.2,2.7
					c0.4,0.3,0.8,0.6,1.2,0.9c0.7,0.6,1.5,1.1,2.2,1.7c0.5,0.3,0.9,0.7,1.4,1c0.7,0.5,1.3,1,2,1.4c0.5,0.3,1,0.6,1.4,1
					c0.6,0.4,1.3,0.9,1.9,1.3c0.5,0.3,1,0.6,1.4,0.9c0.6,0.4,1.3,0.8,1.9,1.2c0.5,0.3,1,0.6,1.4,0.8c0.7,0.4,1.3,0.7,2,1.1
					c0.5,0.2,0.9,0.5,1.4,0.7c0.7,0.4,1.4,0.7,2.1,1.1c0.4,0.2,0.8,0.4,1.2,0.6c1,0.5,2,0.9,3,1.4c0.1,0.1,0.3,0.1,0.4,0.2
					c1,0.5,2.1,0.9,3.1,1.3c0.4,0.2,0.8,0.3,1.1,0.4c0.7,0.3,1.4,0.5,2.1,0.8c0.4,0.2,0.8,0.3,1.3,0.4c0.6,0.2,1.3,0.4,1.9,0.6
					c0.4,0.1,0.9,0.3,1.3,0.4c0.6,0.2,1.2,0.4,1.8,0.5c0.4,0.1,0.9,0.2,1.3,0.4c0.6,0.2,1.2,0.3,1.8,0.5c0.4,0.1,0.8,0.2,1.2,0.3
					c0.6,0.1,1.2,0.3,1.8,0.4c0.4,0.1,0.8,0.2,1.1,0.3c0.6,0.1,1.3,0.3,1.9,0.4c0.3,0.1,0.6,0.1,0.9,0.2c0.9,0.2,1.8,0.3,2.7,0.4
					l0,0c0.9,0.1,1.8,0.2,2.7,0.3c0.3,0,0.5,0.1,0.8,0.1c0.6,0.1,1.2,0.1,1.8,0.2c0.3,0,0.6,0,0.9,0.1c0.5,0,1,0.1,1.5,0.1
					c0.3,0,0.6,0,0.9,0c0.5,0,0.9,0,1.4,0c0.3,0,0.6,0,0.9,0c0.5,0,0.9,0,1.3,0c0.3,0,0.5,0,0.8,0c0.4,0,0.9,0,1.3,0
					c0.2,0,0.5,0,0.7,0c0.5,0,0.9-0.1,1.3-0.1c0.2,0,0.4,0,0.6,0c0.6-0.1,1.2-0.1,1.7-0.2c1.8-0.3,3.6-0.5,5.3-0.6
					c0.5-0.1,1-0.1,1.6-0.1c1.2-0.1,2.4-0.2,3.5-0.3c0.5,0,1.1-0.1,1.6-0.1c1.2-0.1,2.3-0.1,3.5-0.1c0.4,0,0.8,0,1.2,0
					c0.1,0,0.3,0,0.4,0c1.3,0,2.6,0,3.8,0.1c0.3,0,0.6,0,0.9,0c1.2,0.1,2.4,0.1,3.6,0.2c0.2,0,0.4,0,0.6,0c1.3,0.1,2.6,0.3,3.8,0.4
					c0.3,0,0.5,0.1,0.8,0.1c1.1,0.2,2.2,0.3,3.3,0.5c0.1,0,0.3,0,0.4,0.1c1.2,0.2,2.3,0.5,3.4,0.7c0.2,0.1,0.5,0.1,0.7,0.2
					c1.1,0.2,2.1,0.5,3.1,0.8c0.1,0,0.1,0,0.2,0c1.1,0.3,2.1,0.6,3.1,0.9c0.2,0.1,0.4,0.1,0.6,0.2c2,0.6,4,1.3,5.8,2
					c0.2,0.1,0.4,0.1,0.5,0.2c1.9,0.7,3.8,1.5,5.5,2.2c0.1,0,0.2,0.1,0.3,0.1c1.1,0.5,2.3,1,3.4,1.4c0.4,0.2,0.9,0.4,1.3,0.6
					c0.3,0.1,0.7,0.3,1,0.4c0.8,0.3,1.5,0.6,2.3,0.9c0.2,0.1,0.3,0.1,0.5,0.2c0.7,0.3,1.3,0.5,1.9,0.7c0.2,0.1,0.4,0.2,0.6,0.2
					c0.8,0.3,1.5,0.6,2.3,0.8c0.2,0.1,0.3,0.1,0.5,0.2c0.7,0.2,1.3,0.4,2,0.6c0.2,0.1,0.4,0.1,0.6,0.2c0.8,0.2,1.6,0.4,2.4,0.6
					c0.2,0,0.4,0.1,0.5,0.1c0.7,0.1,1.4,0.3,2.1,0.4c0.2,0,0.3,0.1,0.5,0.1c0.8,0.1,1.6,0.2,2.5,0.3c0.2,0,0.4,0,0.6,0
					c0.7,0.1,1.5,0.1,2.2,0.1c0.2,0,0.3,0,0.5,0c0.5,0,1.1,0,1.6,0s1,0,1.5-0.1c0.5,0,1.1-0.1,1.6-0.2s1-0.1,1.6-0.2
					s1.1-0.2,1.7-0.3c0.5-0.1,1.1-0.2,1.6-0.3c0.6-0.1,1.2-0.3,1.8-0.5c0.6-0.1,1.1-0.3,1.7-0.4c0.6-0.2,1.3-0.4,1.9-0.6
					s1.2-0.4,1.8-0.6c0.7-0.2,1.4-0.5,2.1-0.8c0.6-0.2,1.2-0.5,1.9-0.7c0.7-0.3,1.5-0.7,2.2-1c0.6-0.3,1.3-0.6,1.9-0.9
					c1-0.5,2-1,3-1.5c0.5-0.3,0.9-0.5,1.4-0.7c21.1-11.5,29.6-27.2,29.3-44.5C1599.4,1657.2,1595.1,1644.6,1588,1632.1z
					 M1330.2,739.7c0,0.1-0.1,0.3-0.1,0.4c-2.1,9.5-4.1,19.1-6,28.6c-0.7,3.5-1.4,7.1-2.1,10.6c-1.2,6.1-2.5,12.1-3.6,18.2
					c-0.8,4.4-1.7,8.7-2.5,13.1c-1,5.2-2,10.4-2.9,15.5c-0.9,4.8-1.8,9.7-2.6,14.5c-0.8,4.6-1.6,9.2-2.4,13.8
					c-0.9,5.3-1.8,10.5-2.7,15.8c-0.7,4.1-1.4,8.2-2,12.3c-0.9,5.7-1.8,11.4-2.7,17c-0.6,3.5-1.1,7.1-1.6,10.6
					c-0.9,6.2-1.9,12.4-2.8,18.6c-0.4,2.8-0.8,5.5-1.2,8.3c-1,6.9-1.9,13.8-2.9,20.8c-0.2,1.4-0.4,2.9-0.6,4.3
					c-9.4,71.8-15.7,144.1-19,218.4l0,0c-0.7,16-1.3,32.1-1.7,48.3c-17.5,0.7-34,1.1-49.6,1.1c-71.6,0-124.3-6.9-176.3-11.9
					c-1.7-0.2-3.4-0.3-5.1-0.5c-0.3,0-0.5,0-0.8-0.1c-3.3-0.3-6.7-0.6-10-0.9c-1.2-0.1-2.4-0.2-3.7-0.3c-1.2-0.1-2.4-0.2-3.5-0.3
					c-1.3-0.1-2.6-0.2-3.9-0.3c-1.2-0.1-2.4-0.2-3.6-0.3c-1.3-0.1-2.6-0.2-3.9-0.3c-1.2-0.1-2.3-0.2-3.5-0.2c-1.3-0.1-2.7-0.2-4-0.3
					c-1.2-0.1-2.4-0.1-3.6-0.2c-1.3-0.1-2.7-0.2-4-0.2c-1.2-0.1-2.4-0.1-3.6-0.2c-1.4-0.1-2.7-0.1-4.1-0.2c-1.2-0.1-2.4-0.1-3.6-0.2
					c-1.4-0.1-2.7-0.1-4.1-0.2c-1.2,0-2.4-0.1-3.6-0.1c-1.4,0-2.8-0.1-4.2-0.1c-1.2,0-2.4-0.1-3.6-0.1c-1.4,0-2.9-0.1-4.3-0.1
					c-1.2,0-2.4,0-3.7,0c-1.5,0-2.9,0-4.4,0c-1.1,0-2.2,0-3.4,0c-3.7,0-7.4,0-11.2,0.1c-0.8,0-1.6,0-2.5,0
					c-3.9,0.1-7.8,0.2-11.8,0.3h-0.1l0,0l0,0C1052.6,1052.6,1189.2,893.9,1330.2,739.7L1330.2,739.7L1330.2,739.7z"/>
			</g>
			<path d="M421.1,1537c28.8-35.3,56.6-69.4,83.8-103.9c-6.6,0.2-13.4,0.3-20.3,0.3c-40.9,0-75.3-3.7-102.2-11.1
				c-13.2-3.6-24.8-8.2-34.9-13.7c-1.7,0.5-3.5,1.1-5.2,1.6c-100.4,30.9-338.3,94.1-341,129.4c-16,207.7,123.9,370.6,174.6,453.3
				c7,11.4,18,16,32,16c31.4,0,78-22.9,129.4-43.5c73.6-29.4,546.3-219.1,972.9-328.7c-21.3-47.8-31.5-105.2-42.9-169.7
				c-4.8-27-9.7-54.7-15.7-83.1c-41.2,2.7-76.1,11-115.5,20.3c-56.8,13.5-121.2,28.8-217.3,28.8c-29,0-59.9-1.4-92.3-4.2
				c-21.7,29.2-40.9,56.6-67.8,95.1c-16.9,24.3-36.1,51.8-60.8,86.6c-10,14.2-19.5,27.6-28.5,40.4
				c-85.4,121.2-128.3,182.1-192,218.7c-43.3,24.9-88,37.1-136.7,37.1c-21.6,0-40.7-2.2-57.6-4.2l-4.8-0.6
				c-22.6-2.6-44.4-20.8-55.6-46.4c-11-25.1-8.8-52.2,5.9-72.4C297.9,1688.2,360.5,1611.3,421.1,1537z"/>
			<path d="M2840.5,720.1c-0.6-0.5-1.1-1.1-1.7-1.6c-0.8-0.7-1.5-1.4-2.3-2.1c-0.6-0.5-1.2-1-1.8-1.5c-0.8-0.7-1.6-1.3-2.5-2
				c-0.6-0.5-1.2-1-1.9-1.5c-0.8-0.6-1.7-1.3-2.6-1.9c-0.7-0.5-1.3-0.9-2-1.4c-0.9-0.6-1.8-1.2-2.7-1.8c-0.7-0.4-1.4-0.9-2.1-1.3
				c-0.9-0.6-1.9-1.1-2.8-1.7c-0.7-0.4-1.5-0.8-2.2-1.3c-1-0.5-1.9-1-2.9-1.5c-0.8-0.4-1.5-0.8-2.3-1.2c-1-0.5-2-1-3-1.4
				c-0.8-0.4-1.6-0.7-2.4-1.1c-1-0.4-2.1-0.9-3.1-1.3c-0.9-0.3-1.7-0.7-2.6-1c-1.1-0.4-2.1-0.8-3.2-1.2c-0.9-0.3-1.8-0.6-2.7-0.9
				c-1.1-0.4-2.2-0.7-3.3-1.1c-1-0.3-1.9-0.6-2.9-0.9c-1.1-0.3-2.3-0.6-3.4-0.9c-1-0.3-2-0.5-3-0.8c-1.1-0.3-2.3-0.5-3.5-0.8
				c-1.1-0.2-2.1-0.5-3.2-0.7c-1.2-0.2-2.3-0.5-3.5-0.7c-1.1-0.2-2.2-0.4-3.3-0.6c-1.2-0.2-2.4-0.4-3.6-0.5
				c-1.2-0.2-2.3-0.3-3.5-0.5s-2.4-0.3-3.7-0.4c-1.2-0.1-2.4-0.3-3.7-0.4c-1.2-0.1-2.5-0.2-3.7-0.3c-1.3-0.1-2.6-0.2-3.9-0.3
				c-1.2-0.1-2.5-0.1-3.7-0.2c-1.3-0.1-2.7-0.1-4-0.1s-2.5,0-3.8-0.1c-2,0-3.9,0-6,0h-0.1c-3.4,0-6.8,0.2-10.1,0.4
				c-0.4,0-0.8,0-1.2,0.1c-3.2,0.2-6.3,0.4-9.3,0.7c-0.5,0.1-1.1,0.1-1.6,0.2c-3,0.3-5.9,0.7-8.8,1.1c-0.6,0.1-1.1,0.2-1.7,0.2
				c-2.9,0.4-5.7,0.9-8.5,1.4c-0.5,0.1-1,0.2-1.6,0.3c-2.8,0.5-5.6,1.1-8.3,1.7c-0.4,0.1-0.8,0.2-1.2,0.3c-2.6,0.6-5.1,1.3-7.7,2
				c-0.3,0.1-0.7,0.2-1,0.3c-2.6,0.7-5.1,1.5-7.5,2.3c-0.6,0.2-1.2,0.4-1.8,0.6c-2.3,0.8-4.6,1.6-6.8,2.4c-0.7,0.3-1.4,0.5-2.1,0.8
				c-2.1,0.8-4.2,1.6-6.3,2.5c-0.8,0.3-1.5,0.7-2.3,1c-2,0.8-3.9,1.7-5.8,2.6c-0.8,0.4-1.6,0.8-2.4,1.2c-1.5,0.7-3,1.5-4.5,2.2
				c-1.1,0.6-2.3,1.2-3.4,1.8c-1.2,0.7-2.4,1.3-3.6,2c-1.3,0.8-2.7,1.5-4,2.3c-1,0.6-2.1,1.2-3.1,1.9c-1.4,0.9-2.8,1.8-4.2,2.7
				c-0.9,0.6-1.8,1.2-2.7,1.8c-1.1,0.7-2.2,1.5-3.3,2.2c-0.3,0.2-0.5,0.4-0.8,0.6c-2.1,1.4-4.1,2.9-6,4.4c-0.2,0.2-0.4,0.3-0.7,0.5
				c-2,1.5-4,3.1-5.9,4.7c-0.1,0.1-0.3,0.2-0.4,0.3c-2,1.7-4,3.4-6,5.1l0,0c-26.5,23.6-42.8,50-50.4,68
				c-9.4,22.3-27.4,42.4-42.9,59.8l0,0c-0.8,0.9-1.5,1.7-2.3,2.6c-0.2,0.2-0.4,0.4-0.6,0.6c-0.6,0.7-1.2,1.4-1.8,2
				c-0.3,0.4-0.7,0.8-1,1.2c-0.5,0.6-1,1.2-1.5,1.7c-0.4,0.4-0.7,0.9-1.1,1.3c-0.5,0.5-0.9,1.1-1.4,1.6c-0.4,0.4-0.8,0.9-1.1,1.3
				c-0.4,0.5-0.9,1-1.3,1.5c-0.4,0.4-0.7,0.9-1.1,1.3c-0.4,0.5-0.8,1-1.2,1.5c-0.4,0.4-0.7,0.9-1,1.3c-0.4,0.5-0.8,0.9-1.1,1.4
				c-0.3,0.4-0.7,0.9-1,1.3c-0.4,0.5-0.7,0.9-1,1.4c-0.3,0.4-0.6,0.8-0.9,1.3c-0.3,0.4-0.7,0.9-1,1.3c-0.3,0.4-0.6,0.8-0.8,1.2
				c-0.3,0.4-0.6,0.9-0.9,1.3c-0.3,0.4-0.5,0.8-0.8,1.2s-0.5,0.8-0.8,1.3c-0.2,0.4-0.5,0.8-0.7,1.2s-0.4,0.8-0.7,1.2
				c-0.2,0.4-0.4,0.8-0.6,1.2c-0.2,0.4-0.4,0.7-0.5,1.1c-0.2,0.4-0.3,0.9-0.5,1.3c-0.1,0.3-0.3,0.7-0.4,1c-0.2,0.5-0.3,0.9-0.4,1.4
				c-0.1,0.3-0.2,0.6-0.2,0.8c-0.2,0.7-0.3,1.4-0.4,2.1v0.1c-0.1,0.7-0.2,1.4-0.2,2.1c0,0.2,0,0.5,0,0.7c0,0.5,0,1,0,1.4
				c0,0.3,0,0.5,0,0.8c0,0.4,0,0.9,0.1,1.3c0,0.3,0,0.5,0.1,0.8c0,0.5,0.1,1,0.2,1.4c0,0.2,0.1,0.4,0.1,0.6c0.1,0.7,0.2,1.3,0.4,2
				c0,0.1,0.1,0.3,0.1,0.4c0.1,0.5,0.3,1,0.4,1.5c0.1,0.2,0.2,0.5,0.2,0.7c0.1,0.4,0.3,0.8,0.4,1.2c0.1,0.3,0.2,0.5,0.3,0.7
				c0.2,0.4,0.3,0.8,0.5,1.2c0.1,0.2,0.2,0.5,0.3,0.7c0.2,0.5,0.5,0.9,0.7,1.4c0.1,0.2,0.2,0.3,0.2,0.5c0.3,0.6,0.7,1.2,1.1,1.8
				c0.1,0.1,0.2,0.3,0.3,0.4c0.3,0.4,0.6,0.9,0.9,1.3c0.1,0.2,0.3,0.4,0.4,0.6c0.3,0.4,0.6,0.8,0.9,1.1c0.2,0.2,0.3,0.4,0.5,0.5
				c0.3,0.4,0.7,0.8,1,1.2c0.1,0.1,0.3,0.3,0.4,0.4c1,1.1,2.1,2.1,3.2,3c0.1,0.1,0.2,0.1,0.3,0.2c0.5,0.4,1,0.8,1.5,1.1
				c0.1,0.1,0.3,0.2,0.4,0.3c0.5,0.3,1,0.7,1.5,1c0.1,0.1,0.3,0.2,0.4,0.3c0.6,0.4,1.2,0.7,1.8,1.1l0.1,0.1c1.4,0.8,2.8,1.5,4.2,2.1
				h0.1c0.7,0.3,1.4,0.5,2.1,0.8c0.1,0,0.2,0.1,0.2,0.1c0.7,0.2,1.4,0.5,2.1,0.7h0.1c3.1,0.9,6.3,1.4,9.6,1.5h0.1c0.6,0,1.2,0,1.8,0
				s1.3,0,1.9-0.1c0.4,0,0.9,0,1.3-0.1c1-0.1,1.9-0.2,2.9-0.4c0.5-0.1,0.9-0.2,1.4-0.3c0.6-0.1,1.3-0.3,1.9-0.5
				c0.5-0.1,0.9-0.2,1.4-0.4c1.1-0.3,2.2-0.7,3.3-1.1c22-8.8,60.9-78.6,122.4-102.4c0.6-0.2,1.2-0.4,1.7-0.7c1.4-0.5,2.7-1,4.1-1.5
				c1.2-0.4,2.4-0.8,3.6-1.1c0.7-0.2,1.5-0.4,2.2-0.6c1.8-0.5,3.6-0.9,5.4-1.4c0.5-0.1,0.9-0.2,1.4-0.3c2-0.4,4.1-0.8,6.2-1.1l0,0
				c0.2,0,0.4-0.1,0.7-0.1c1.6-0.2,3.2-0.5,4.7-0.6c0.6-0.1,1.2-0.1,1.8-0.2c1.1-0.1,2.3-0.2,3.4-0.3c0.7-0.1,1.3-0.1,2-0.1
				c1-0.1,2-0.1,3-0.2c0.7,0,1.4,0,2.1-0.1c0.9,0,1.8-0.1,2.7-0.1c0.1,0,0.3,0,0.4,0c0.7,0,1.4,0,2.1,0c0.6,0,1.3,0,1.9,0
				c0.9,0,1.7,0.1,2.6,0.1c0.6,0,1.2,0.1,1.8,0.1c0.9,0.1,1.8,0.2,2.6,0.3c0.5,0.1,1,0.1,1.5,0.2c1,0.1,2,0.3,3,0.4
				c0.3,0.1,0.7,0.1,1,0.1c1.3,0.2,2.6,0.5,3.9,0.8l0,0c1.3,0.3,2.5,0.6,3.7,0.9c0.3,0.1,0.6,0.2,0.9,0.3c0.9,0.3,1.8,0.5,2.6,0.8
				c0.4,0.1,0.7,0.3,1.1,0.4c0.8,0.3,1.5,0.5,2.3,0.8c0.4,0.2,0.8,0.3,1.2,0.5c0.7,0.3,1.4,0.6,2.1,0.9c0.4,0.2,0.8,0.4,1.1,0.6
				c0.7,0.3,1.3,0.7,1.9,1c0.4,0.2,0.7,0.4,1.1,0.6c0.6,0.4,1.2,0.7,1.8,1.1c0.4,0.2,0.7,0.5,1,0.7c0.6,0.4,1.2,0.8,1.7,1.2
				c0.3,0.2,0.7,0.5,1,0.7c0.6,0.4,1.1,0.8,1.6,1.3c0.3,0.3,0.6,0.5,0.9,0.8c0.5,0.5,1.1,0.9,1.6,1.4c0.3,0.3,0.6,0.5,0.8,0.8
				c0.5,0.5,1,1,1.5,1.5c0.3,0.3,0.5,0.6,0.8,0.8c0.5,0.5,0.9,1,1.4,1.6c0.2,0.3,0.5,0.6,0.7,0.9c0.4,0.6,0.9,1.1,1.3,1.7
				c0.2,0.3,0.4,0.6,0.6,0.9c0.4,0.6,0.8,1.2,1.2,1.8c0.2,0.3,0.4,0.6,0.6,0.9c0.4,0.6,0.8,1.3,1.2,1.9c0.2,0.3,0.3,0.6,0.5,0.9
				c0.4,0.7,0.7,1.4,1.1,2.1c0.1,0.3,0.3,0.6,0.4,0.9c0.4,0.7,0.7,1.5,1,2.2c0.1,0.3,0.2,0.5,0.4,0.8c0.3,0.8,0.6,1.6,0.9,2.4
				c0.1,0.3,0.2,0.5,0.3,0.8c0.3,0.8,0.6,1.7,0.9,2.6c0.1,0.2,0.1,0.5,0.2,0.7c0.3,0.9,0.5,1.9,0.8,2.8c0.1,0.2,0.1,0.4,0.2,0.6
				c0.3,1,0.5,2,0.7,3.1c0,0.1,0.1,0.3,0.1,0.4c0.2,1.1,0.4,2.3,0.6,3.4c0,0.1,0,0.1,0,0.2c2.7,17.2,0.7,37.6-5.8,59.7l0,0
				c-0.5,1.6-0.9,3.1-1.4,4.7v0.1c-0.5,1.5-1,3.1-1.5,4.6c0,0.1,0,0.1-0.1,0.2c-0.5,1.5-1.1,3.1-1.7,4.6c0,0.1,0,0.1-0.1,0.2
				c-0.6,1.6-1.2,3.1-1.8,4.7c0,0.1-0.1,0.1-0.1,0.2c-0.6,1.6-1.3,3.1-1.9,4.7c0,0.1-0.1,0.1-0.1,0.2c-0.7,1.6-1.3,3.2-2,4.8
				c0,0.1-0.1,0.1-0.1,0.2c-0.7,1.6-1.4,3.2-2.2,4.8c0,0,0,0.1-0.1,0.1c-0.8,1.6-1.6,3.3-2.4,4.9l0,0c-11.3,23.1-26.8,47-46.1,70
				c-100.1,119.5-168.6,173.7-206.6,216.2c-32.2,36-27.9,94,12.5,120.5c1.1,0.7,2.3,1.4,3.4,2.1c3.4,2,7,3.7,10.5,5
				c0.5,0.2,1,0.3,1.5,0.4c0.2,0,0.3,0.1,0.5,0.1c0.4,0.1,0.7,0.2,1.1,0.2c0.2,0,0.4,0.1,0.7,0.1c0.4,0,0.8,0.1,1.1,0.1
				c0.2,0,0.5,0,0.7,0.1c0.4,0,0.8,0,1.3,0c0.2,0,0.5,0,0.7,0c0.7,0,1.4,0,2.1-0.1c0.4,0,0.7,0,1.1-0.1c0.4,0,0.8-0.1,1.2-0.1
				s0.9-0.1,1.3-0.1c0.4,0,0.7-0.1,1.1-0.1c1.9-0.2,3.8-0.6,5.9-1c0.2,0,0.4-0.1,0.6-0.1c0.7-0.1,1.4-0.3,2.2-0.5
				c0.2,0,0.4-0.1,0.5-0.1c3.4-0.8,7-1.7,10.9-2.9c73-21.5,233.8-107.1,391.9-171.2c147.4-59.8,340.2-135.9,418.5-167.4
				c0.2-0.1,0.5-0.2,0.7-0.3c1.3-0.5,2.5-1,3.7-1.5c0.3-0.1,0.5-0.2,0.8-0.3c2.5-1,4.9-2,7.2-2.9c0.1,0,0.1,0,0.2-0.1
				c2.4-1,4.5-1.8,6.6-2.7l0,0c5.1-2.1,9.1-3.7,11.8-4.9c0.2-0.1,0.3-0.1,0.5-0.2c1.5-0.7,3.1-1.3,4.5-2c0.6-0.3,1.2-0.5,1.7-0.8
				c1-0.5,2.1-0.9,3-1.4c0.6-0.3,1.2-0.6,1.9-0.9c0.9-0.4,1.8-0.9,2.6-1.3c0.6-0.3,1.2-0.6,1.8-0.9c0.8-0.4,1.6-0.8,2.4-1.2
				c0.6-0.3,1.2-0.6,1.7-0.9c0.7-0.4,1.5-0.8,2.2-1.2c0.6-0.3,1.1-0.6,1.6-0.9c0.7-0.4,1.3-0.8,2-1.2c0.5-0.3,1-0.6,1.5-0.9
				c0.6-0.4,1.2-0.8,1.8-1.2c0.5-0.3,0.9-0.6,1.3-0.9c0.6-0.4,1.2-0.8,1.7-1.2c0.4-0.3,0.8-0.5,1.2-0.8c0.6-0.4,1.1-0.9,1.7-1.3
				c0.3-0.2,0.6-0.5,0.9-0.7c0.8-0.6,1.5-1.3,2.2-1.9c0.1-0.1,0.2-0.2,0.3-0.3c0.6-0.5,1.1-1,1.6-1.5c0.2-0.2,0.4-0.5,0.6-0.7
				c0.3-0.4,0.7-0.8,1-1.1c0.2-0.3,0.4-0.5,0.6-0.7c0.3-0.3,0.5-0.7,0.7-1s0.3-0.5,0.4-0.7c0.2-0.3,0.4-0.6,0.5-0.9
				c0.1-0.2,0.2-0.5,0.3-0.7c0.1-0.3,0.2-0.6,0.3-0.9c0.1-0.2,0.1-0.5,0.2-0.7c0.1-0.3,0.1-0.6,0.1-0.9c0-0.2,0-0.4,0-0.7
				s-0.1-0.6-0.1-0.8s-0.1-0.4-0.1-0.6c-0.1-0.3-0.2-0.5-0.3-0.8c-0.1-0.2-0.1-0.4-0.2-0.5c-0.2-0.3-0.4-0.6-0.6-0.9
				c-0.1-0.1-0.2-0.3-0.3-0.4c-0.4-0.4-0.8-0.8-1.3-1.2c-0.1-0.1-0.2-0.2-0.4-0.2c-0.4-0.3-0.8-0.6-1.3-0.8
				c-0.2-0.1-0.5-0.2-0.7-0.4c-0.4-0.2-0.8-0.4-1.3-0.6c-0.3-0.1-0.6-0.2-0.9-0.4c-0.5-0.2-0.9-0.3-1.5-0.5
				c-0.4-0.1-0.8-0.2-1.1-0.3c-0.5-0.1-1.1-0.3-1.7-0.4c-0.4-0.1-0.9-0.2-1.3-0.3c-0.6-0.1-1.2-0.2-1.9-0.4c-0.5-0.1-1-0.2-1.5-0.2
				c-0.7-0.1-1.4-0.2-2.1-0.3c-0.5-0.1-1-0.1-1.6-0.2c-0.8-0.1-1.6-0.1-2.4-0.2c-0.5,0-1.1-0.1-1.7-0.1c-0.9-0.1-1.9-0.1-2.9-0.1
				c-0.5,0-1.1-0.1-1.6-0.1c-1.2,0-2.5-0.1-3.8-0.1c-0.4,0-0.7,0-1.1,0c-1.6,0-3.3,0-5,0.1c-0.4,0-0.9,0-1.4,0
				c-1.4,0-2.7,0.1-4.2,0.2c-0.5,0-1,0-1.5,0.1c-1.9,0.1-3.8,0.2-5.8,0.3h-0.1c-0.3,0-0.6,0-0.9,0.1c-0.1,0-0.3,0-0.4,0
				c-0.3,0-0.6,0.1-0.9,0.1c-0.1,0-0.3,0-0.4,0c-0.4,0.1-0.9,0.1-1.4,0.2c-0.2,0-0.4,0.1-0.6,0.1c-0.4,0-0.7,0.1-1.1,0.1
				c-0.2,0-0.5,0.1-0.7,0.1c-0.6,0.1-1.1,0.2-1.7,0.2c-0.3,0-0.6,0.1-0.9,0.1c-0.4,0.1-0.8,0.1-1.2,0.2c-0.3,0-0.6,0.1-1,0.1
				c-0.5,0.1-1,0.2-1.6,0.2c-0.5,0.1-1,0.2-1.5,0.2c-0.5,0.1-0.9,0.1-1.4,0.2c-0.4,0.1-0.9,0.1-1.3,0.2c-0.4,0.1-0.9,0.1-1.3,0.2
				c-0.8,0.1-1.6,0.3-2.4,0.4c-0.5,0.1-0.9,0.2-1.4,0.2c-0.5,0.1-1.1,0.2-1.6,0.3c-0.4,0.1-0.9,0.1-1.3,0.2c-2,0.3-4.1,0.7-6.3,1.1
				c-0.4,0.1-0.8,0.1-1.2,0.2c-0.7,0.1-1.4,0.3-2.2,0.4c-0.2,0-0.3,0.1-0.5,0.1c-1.6,0.3-3.3,0.6-5,0.9c-0.2,0-0.4,0.1-0.6,0.1
				c-0.9,0.2-1.8,0.3-2.8,0.5c-0.1,0-0.2,0-0.3,0.1c-3,0.6-6.1,1.1-9.3,1.7c-0.1,0-0.2,0-0.3,0.1c-43.3,8.2-107,21.6-173.3,38l0,0
				c-47.4,11.7-96.2,25-139.8,39c-163.7,52.7-380.1,145.4-380.1,145.4s104.1-103.4,143.8-161.9c6.3-9.3,12.4-18.2,18.2-26.9
				c0.5-0.8,1.1-1.6,1.6-2.4c2-2.9,3.9-5.8,5.9-8.7c0.6-0.9,1.2-1.8,1.8-2.7c1.4-2,2.7-4,4-6c0.8-1.2,1.5-2.3,2.3-3.4
				c1.1-1.7,2.3-3.4,3.4-5.2c0.8-1.2,1.6-2.4,2.4-3.7c1-1.6,2.1-3.2,3.1-4.8c0.8-1.3,1.6-2.5,2.4-3.8c1-1.5,2-3,2.9-4.6
				c0.8-1.3,1.6-2.5,2.4-3.8c0.9-1.5,1.9-3,2.8-4.4c0.8-1.3,1.6-2.5,2.3-3.8c0.9-1.4,1.8-2.9,2.6-4.3c0.8-1.3,1.5-2.5,2.2-3.8
				c0.8-1.4,1.7-2.9,2.5-4.3c0.7-1.2,1.4-2.5,2.1-3.7c0.8-1.4,1.6-2.8,2.4-4.2c0.7-1.2,1.4-2.5,2.1-3.7c0.8-1.4,1.5-2.8,2.3-4.2
				c0.7-1.2,1.3-2.4,1.9-3.7c0.7-1.4,1.5-2.8,2.2-4.2c0.6-1.2,1.2-2.4,1.8-3.6c0.7-1.4,1.4-2.9,2.1-4.3c0.6-1.2,1.1-2.3,1.7-3.5
				c0.7-1.5,1.4-3,2.1-4.6c0.5-1.1,1-2.2,1.5-3.3c0.8-1.8,1.5-3.5,2.2-5.3c0.4-0.9,0.7-1.7,1.1-2.6c1-2.6,2-5.2,3-7.8
				c0.3-0.8,0.6-1.6,0.8-2.4c0.7-1.8,1.3-3.7,1.9-5.5c0.4-1.1,0.7-2.2,1-3.2c0.5-1.6,1-3.2,1.5-4.8c0.3-1.2,0.7-2.3,1-3.5
				c0.4-1.5,0.9-3.1,1.3-4.6c0.3-1.2,0.6-2.4,0.9-3.7c0.4-1.5,0.7-3,1.1-4.6c0.3-1.3,0.5-2.5,0.8-3.8c0.3-1.5,0.6-3,0.9-4.6
				c0.2-1.3,0.5-2.6,0.7-3.9c0.3-1.5,0.5-3.1,0.7-4.6c0.2-1.3,0.4-2.6,0.6-4c0.2-1.6,0.4-3.1,0.6-4.7c0.2-1.3,0.3-2.7,0.4-4
				c0.2-1.6,0.3-3.2,0.4-4.8c0.1-1.4,0.2-2.7,0.3-4.1c0.1-1.7,0.2-3.3,0.3-5c0.1-1.4,0.1-2.7,0.2-4.1c0-1.7,0.1-3.4,0.1-5.2
				c0-1.4,0-2.8,0-4.1c0-1.8-0.1-3.6-0.1-5.5c0-1.4-0.1-2.7-0.1-4.1c-0.1-1.9-0.2-3.9-0.3-5.9c-0.1-1.3-0.1-2.6-0.2-3.9
				c-0.2-2.2-0.4-4.4-0.6-6.7c-0.1-1.1-0.2-2.3-0.3-3.4c-0.3-3.4-0.7-6.8-1.2-10.3c0,0,0,0,0-0.1c-0.2-1.8-0.5-3.7-0.8-5.5
				c-0.1-0.6-0.2-1.2-0.4-1.8c-0.2-1.2-0.4-2.4-0.7-3.6c-0.2-0.8-0.4-1.5-0.6-2.2c-0.2-1-0.5-2-0.7-3c-0.2-0.8-0.5-1.6-0.7-2.4
				c-0.3-0.9-0.5-1.8-0.8-2.8c-0.3-0.8-0.6-1.7-0.9-2.5c-0.3-0.9-0.6-1.7-0.9-2.6c-0.3-0.8-0.7-1.7-1-2.5s-0.6-1.6-1-2.4
				c-0.4-0.8-0.8-1.7-1.2-2.5c-0.4-0.8-0.7-1.5-1.1-2.3c-0.4-0.8-0.9-1.7-1.3-2.5c-0.4-0.7-0.7-1.4-1.1-2.1c-0.5-0.8-1-1.7-1.5-2.5
				c-0.4-0.7-0.8-1.4-1.2-2c-0.5-0.8-1.1-1.6-1.6-2.4c-0.4-0.6-0.9-1.3-1.3-1.9c-0.6-0.8-1.2-1.6-1.8-2.4c-0.5-0.6-0.9-1.2-1.4-1.8
				c-0.6-0.8-1.3-1.6-1.9-2.3c-0.5-0.6-1-1.2-1.5-1.8c-0.7-0.8-1.4-1.5-2.1-2.2c-0.5-0.6-1-1.1-1.6-1.7
				C2842,721.5,2841.3,720.8,2840.5,720.1z"/>
			<path d="M1694.9,405.6c-15.8,44.9-18.6,93.9-8.2,141.8c10.1,46.2,32.4,88.5,63,118.9c0.4,0.4,0.7,0.3,1,0.3
				c0.3-0.1,0.6-0.4,0.7-0.7l17-66.8c0.1-0.2,0-0.5-0.1-0.7c-7.4-13.8-13.1-26.9-16.9-38.9l-16.9-53.5l54.4,41.8
				c0.2,0.2,0.4,0.2,0.6,0.2h0.2c0.3-0.1,0.5-0.2,0.7-0.5l37.5-71.6c0.1-0.2,0.1-0.5,0.1-0.8c-3.7-10.4-6.5-20.8-8.1-30.9l-7-41.9
				l51.1,36.5c0.1,0.1,0.8,0.3,1.2-0.1c8.3-7.2,17.3-13.6,26.6-19.2l51.8-30.8l-27.1,53.8c-17.5,34.7-37.5,89.7-33.1,154.1
				c6.4,94.5,60.1,154,109.9,163.9h0.2c0.1,0,0.4,0,0.6-0.2s0.4-0.4,0.4-0.7l2.2-65c0-0.3-0.1-0.5-0.2-0.7
				c-8.5-9.5-15.1-21.8-19.6-36.6l-12-39l36.6,17.9c0.3,0.1,0.6,0.1,0.9,0c0.3-0.1,0.5-0.4,0.5-0.7l3.8-26.8c0-0.3,0-0.6-0.2-0.8
				c-8.1-8.9-14.3-22.5-18.5-40.6l-9.1-39.8l42.7,25.1c0.2,0.1,0.3,0.1,0.5,0.1s0.6,0,0.9-0.5l33.2-53.4c0.1-0.2,0.2-0.5,0.1-0.7
				c-1.7-8.4-3-17.3-3.7-26.5l-3.8-46.7l41.1,39.9c0.5,0.5,0.8,0.3,1.1,0.2c2-0.9,4.2-1.8,6.5-2.8c25.1-48.9,75.1-84.2,123.7-84.2
				c12.5,0,24.4,2.4,35.4,7.2c11.5,5,22.3,14.4,31.6,27.1c7.6-0.5,15.1-0.8,22.3-0.8c30.1,0,56.8,4.4,77.2,12.7
				c0.1,0,0.2,0.1,0.4,0.1c0.1,0,0.5,0,0.8-0.4l38-46.3l4.7,41.3c1.2,10.8,1.1,20.7-0.4,29.6c-0.1,0.3,0,0.6,0.3,0.8l23.1,24.2
				c0.4,0.4,1.1,0.3,1.3,0.1l50.3-38.6l-4.6,41.1c-1.5,13.6-4.6,25.1-9.2,34.2c-0.2,0.4-0.1,0.8,0.1,1.1l18.2,21.5
				c0.2,0.2,0.4,0.3,0.7,0.3s0.5-0.1,0.7-0.2l32.8-25.8l-4.4,41.5c-0.9,8.4-1.5,15.6-1.9,21.5c0,0.1,0,0.2,0,0.3l11.6,38
				c0.1,0.4,0.4,0.6,0.8,0.7c0.3,0,0.7,0,1-0.4c47-64.7,36.1-142.9,17-238.4l-8.2-40.9l35,22.7c9.4,6.1,22.7,14.9,32.7,22.2
				c0.3,0.2,1,0.3,1.3-0.2c2.3-2.8,5.2-6.3,8.3-10l25.2-30.7l5.8,39.3c1.3,9.1,1.4,17.6,0.1,25.4c0,0.3,0,0.5,0.2,0.8l52.7,69.1
				c0.3,0.4,0.7,0.4,0.8,0.4c0.5-0.1,0.8-0.3,0.9-0.7c22.2-74.8,14.8-140.1-21.5-189c-38.6-52-88.4-78.8-149.6-108.4l-7.1-3.4
				l-2.2-7.6c-18.3-64-71.8-99.3-150.5-99.3c-1.1,0-2.2,0-3.2,0l-12.5,0.2l-4.3-11.7c-3.8-10.3-10.8-19.2-20.8-26.5
				C2332,7.4,2300.7,0,2259.1,0c-16.4,0-34.6,1.2-54,3.5c-50.6,6-85,23.7-102.3,52.7c-11.5,19.3-13.9,40.7-14.6,55.1l-1.5,29.2
				l-25.1-14.9c-28.6-17.1-57.6-25.4-88.6-25.4c-24,0-49,5.3-74.4,15.7c-37.4,15.4-60.7,48.6-60.6,86.5v8.9l-7.1,5.3
				C1763,267.1,1725,319.9,1694.9,405.6z"/>
			<path d="M1865.4,1742h1189.1c8.1,0,14.7-4.8,17.2-12.5s0-15.4-6.6-20.2c-52.3-37.8-132.3-89.4-216.3-120.2
				c-44.5-16.3-92.1-24.6-141.5-24.6h-151.8c-235.3,7.8-476.1,57.1-696.5,142.6c-8.4,3.3-12.9,11.4-11.3,20.2
				C1849.3,1736.1,1856.4,1742,1865.4,1742z"/>
			<path d="M2707.2,1529.3c10.8,0,21.6,0.4,32.2,1.1c-3.4-39.4-9-99.1-17.2-168.2c-11.8,2.1-23.5,4.2-35.2,6.3
				c-59.4,27.4-102.5,46.3-134.2,56.4c-1.4,41.7-3.1,77.7-4.5,104.7c2-0.1,3.9-0.2,5.9-0.2c0.4,0,0.8,0,1.2,0h151.8V1529.3z"/>
			<path d="M3386.5,1076.3c-22.1,9.2-81,32.7-154.1,61.8c-88.6,35.3-198.8,79.1-291.1,116.6c-44.1,17.9-88.5,37.5-131.3,57
				c454-73.8,901-107.2,1009-129.8c38.2-8,18.3-34.4-31.2-44.3C3759.2,1131.8,3634.1,1096.8,3386.5,1076.3z"/>
			<path d="M2572.9,936.6c-13.3,14.8-23.7,26.3-35.1,33.7c3.7,22,6.8,46.2,9.2,71.9c24-1.4,48.5-2.8,73.7-4.3
				c9.9-0.6,19.7-1.1,29.5-1.6c1.5-1.8,3-3.6,4.6-5.4c3.7-4.4,7.2-8.8,10.5-13.2c-11.2-48.1-23.7-93.3-37.7-132.5
				C2606.3,899.4,2587.8,920,2572.9,936.6z"/>
			<path d="M2416,1086.3c-10.9,37.3-23.3,75.1-38.1,115.8c-0.9,2.4-1.7,4.7-2.4,6.9c2.1-0.3,4.3-0.5,6.6-0.5l0,0
				c8,0,20,2.2,31.9,12.9c14.3,12.8,20.3,31.1,17.2,50.6c4.7-9.3,10.6-18,17.7-25.9c13.6-15.2,30.6-31.6,50.4-50.6
				c30.6-29.5,70.3-67.7,118.8-122.2c-72.1,4.2-139.2,8.1-201.7,11.9C2416.2,1085.6,2416.1,1085.9,2416,1086.3z"/>
			<path d="M2242.1,417.6c-6.5-2.8-13.6-4.3-21.3-4.3c-40.9,0-87,39.3-100.7,85.9c-6.5,22.1-3.2,46.5,9,67
				c12.8,21.4,33.9,36.2,59.5,41.7c6.7,1.4,13.2,2.2,19.4,2.2c40.1,0,59.8-30.3,69.3-55.6C2297.1,501.7,2269.4,429.6,2242.1,417.6z"
				/>
			<path d="M2553.1,717.6c-46.1-85.4-110.9-177.7-208.1-268.1c-10.6-1.6-22.3-2.5-34.9-2.5c-1.2,0-2.5,0.1-3.7,0.1
				c1.6,4.1,3.1,8.3,4.4,12.7c6.3,20.6,9,41.8,8.2,61.9c24.4,34.4,50.8,74.5,77.3,118.4c37.1,61.4,68,120.2,91.5,173.4
				c5.3-7.2,9.8-14.4,12.8-21.6C2506.1,778.8,2521.4,748,2553.1,717.6z"/>
		</g>
	</g>
</g>
</svg>
