<?xml version="1.0" encoding="utf-8"?>
<!-- Generator: Adobe Illustrator 26.0.3, SVG Export Plug-In . SVG Version: 6.00 Build 0)  -->
<svg version="1.1" id="Layer_1" xmlns="http://www.w3.org/2000/svg" xmlns:xlink="http://www.w3.org/1999/xlink" x="0px" y="0px"
	 viewBox="0 0 3839 2006.5" style="enable-background:new 0 0 3839 2006.5;" xml:space="preserve">
<style type="text/css">
	.st0{fill:none;}
</style>
<g>
	<g>
		<g>
			<path d="M3635.8,921.9h-29v-14.5h79.4v14.5h-29V986h-21.3L3635.8,921.9L3635.8,921.9z"/>
			<path d="M3697.3,907.4h30l22.7,54.1h0.3l21.4-54.1h30V986h-20v-55.7h-0.3l-23.8,55.7h-16.4l-23.8-55.2h-0.3V986h-20v-78.6H3697.3
				z"/>
		</g>
		<g>
			<g>
				<path d="M1270.7,1464.2c-5-28-10.1-56.7-16.3-86.2c-42.8,2.5-78.6,11-119,20.6c-56.6,13.5-120.8,28.7-216.5,28.7
					c-29.4,0-60.9-1.5-93.9-4.4c-22.2,29.8-41.6,57.5-69,96.8c-16.9,24.3-36.1,51.8-60.8,86.6c-10.1,14.2-19.6,27.7-28.6,40.5
					c-85.1,120.8-127.8,181.4-190.8,217.7c-42.8,24.6-86.9,36.6-135,36.6c-21.4,0-40.4-2.2-57.2-4.2l-4.8-0.6
					c-21.4-2.5-42.1-19.9-52.8-44.3s-8.7-49.5,5.5-69c69.1-95,131.7-171.7,192.2-246c30.4-37.3,59.7-73.3,88.5-109.8
					c-8.8,0.3-18.1,0.5-27.6,0.5c-40.6,0-74.7-3.7-101.3-11c-11.7-3.2-22-7.1-31.2-11.8c-0.5,0.2-1.1,0.3-1.6,0.5
					c-2.8,0.9-5.5,1.7-8.3,2.5c-88.7,27.3-284.8,79.8-331,116.1c-6.1,4.8-9.6,9.3-9.9,13.4c-7.6,99,20.2,187.8,56.9,262.6
					c40.3,82.1,91.2,147.4,117.7,190.6c0.6,1,1.3,2,2,2.9c0.1,0.2,0.3,0.4,0.4,0.6c0.7,0.9,1.4,1.7,2.2,2.5c0.1,0.1,0.3,0.3,0.4,0.4
					c0.7,0.7,1.4,1.4,2.2,2c0.1,0.1,0.2,0.2,0.4,0.3c0.8,0.7,1.7,1.2,2.6,1.8c0.2,0.1,0.4,0.3,0.6,0.4c0.9,0.5,1.8,1,2.8,1.5
					c0.1,0,0.2,0.1,0.3,0.1c0.9,0.4,1.8,0.8,2.8,1.1c0.2,0.1,0.4,0.1,0.6,0.2c1,0.3,2,0.6,3.1,0.9c0.2,0.1,0.4,0.1,0.7,0.1
					c1.1,0.2,2.1,0.4,3.2,0.6c0.1,0,0.1,0,0.2,0c1.2,0.2,2.4,0.3,3.6,0.4c0.2,0,0.5,0,0.7,0c1.2,0.1,2.4,0.1,3.7,0.1
					c0.2,0,0.4,0,0.6,0c1.1,0,2.3-0.1,3.4-0.1c0.3,0,0.6,0,0.9-0.1c1.4-0.1,2.7-0.2,4.1-0.4h0.1c1.4-0.2,2.8-0.4,4.2-0.6
					c0.3-0.1,0.6-0.1,0.9-0.2c2.9-0.5,6-1.1,9.1-1.9c0.3-0.1,0.6-0.1,0.9-0.2c1.5-0.4,3-0.7,4.5-1.2c0.1,0,0.2-0.1,0.3-0.1
					c1.7-0.5,3.3-0.9,5.1-1.5c0.2-0.1,0.4-0.1,0.7-0.2c1.6-0.5,3.1-1,4.7-1.5c0.2-0.1,0.4-0.1,0.5-0.2c1.8-0.6,3.6-1.2,5.4-1.8
					c0.1,0,0.1,0,0.2-0.1c1.8-0.6,3.5-1.2,5.3-1.9c0.2-0.1,0.4-0.1,0.5-0.2c3.8-1.4,7.6-2.8,11.6-4.4c0.1,0,0.2-0.1,0.4-0.1
					c14.6-5.7,30.1-12.3,46.3-19c1.2-0.5,2.3-1,3.5-1.4c1.2-0.5,2.4-1,3.6-1.5c1.3-0.5,2.7-1.1,4-1.6c0.7-0.3,1.5-0.6,2.2-0.9
					c1.8-0.7,3.7-1.5,5.5-2.2c0.2-0.1,0.3-0.1,0.5-0.2c24.2-9.7,91.5-36.7,186.2-72.4c0.1,0,0.2-0.1,0.3-0.1
					c2.2-0.8,4.4-1.6,6.6-2.5c0.1,0,0.1,0,0.2-0.1c2.1-0.8,4.2-1.6,6.4-2.4c0.3-0.1,0.5-0.2,0.8-0.3c2.1-0.8,4.1-1.5,6.2-2.3
					c0.3-0.1,0.5-0.2,0.8-0.3c2.2-0.8,4.4-1.6,6.6-2.5c0.1,0,0.3-0.1,0.4-0.1c2.1-0.8,4.2-1.6,6.4-2.4c0.4-0.1,0.7-0.3,1.1-0.4
					c2-0.8,4-1.5,6.1-2.3c0.4-0.1,0.8-0.3,1.2-0.4c2-0.7,4-1.5,6-2.2c0.5-0.2,1.1-0.4,1.6-0.6c1.9-0.7,3.9-1.4,5.8-2.2
					c0.6-0.2,1.1-0.4,1.7-0.6c1.9-0.7,3.8-1.4,5.7-2.1c0.7-0.2,1.3-0.5,2-0.7c1.9-0.7,3.8-1.4,5.7-2.1c0.6-0.2,1.2-0.4,1.8-0.6
					c1.9-0.7,3.8-1.4,5.7-2.1c0.7-0.3,1.4-0.5,2.2-0.8c1.8-0.7,3.6-1.3,5.3-2c0.9-0.3,1.7-0.6,2.6-1c1.7-0.6,3.4-1.3,5.2-1.9
					c0.9-0.3,1.8-0.7,2.7-1c1.8-0.6,3.5-1.3,5.3-1.9c0.9-0.3,1.8-0.6,2.7-1c1.7-0.6,3.4-1.2,5.1-1.9c1-0.4,2.1-0.8,3.2-1.2
					c1.6-0.6,3.3-1.2,4.9-1.8c1-0.4,2.1-0.8,3.1-1.1c1.6-0.6,3.3-1.2,4.9-1.8c1.1-0.4,2.2-0.8,3.3-1.2c1.6-0.6,3.2-1.2,4.8-1.7
					c1.2-0.5,2.5-0.9,3.7-1.4c1.4-0.5,2.9-1,4.3-1.6c1.3-0.5,2.7-1,4-1.5c1.5-0.5,3-1.1,4.5-1.6c1.3-0.5,2.5-0.9,3.8-1.4
					c1.5-0.5,3-1.1,4.6-1.6c1.3-0.5,2.6-1,4-1.4c1.5-0.5,3-1.1,4.5-1.6c1.4-0.5,2.8-1,4.2-1.5s2.8-1,4.1-1.5
					c1.5-0.5,3.1-1.1,4.6-1.6c1.3-0.5,2.7-1,4-1.4c1.5-0.5,3.1-1.1,4.6-1.6c1.3-0.5,2.7-1,4-1.4c1.6-0.6,3.2-1.1,4.7-1.7
					c1.3-0.5,2.7-0.9,4-1.4c1.6-0.6,3.3-1.2,4.9-1.7c1.3-0.5,2.6-0.9,3.9-1.4c1.6-0.6,3.3-1.2,4.9-1.7c1.3-0.5,2.6-0.9,3.9-1.4
					c1.8-0.6,3.5-1.2,5.3-1.9c1.1-0.4,2.3-0.8,3.4-1.2c1.8-0.6,3.7-1.3,5.5-1.9c1.2-0.4,2.4-0.8,3.6-1.2c1.8-0.6,3.6-1.3,5.4-1.9
					c1.2-0.4,2.4-0.8,3.6-1.3c1.9-0.6,3.7-1.3,5.6-1.9c1.2-0.4,2.3-0.8,3.5-1.2c1.8-0.6,3.7-1.3,5.5-1.9c1.2-0.4,2.5-0.9,3.7-1.3
					c1.8-0.6,3.6-1.3,5.5-1.9c1.2-0.4,2.4-0.8,3.7-1.3c1.9-0.7,3.8-1.3,5.7-2c1.1-0.4,2.3-0.8,3.4-1.2c2-0.7,4-1.4,6-2.1
					c1-0.4,2.1-0.7,3.1-1.1c2.1-0.7,4.1-1.4,6.2-2.1c1.1-0.4,2.1-0.7,3.2-1.1c2.1-0.7,4.2-1.4,6.3-2.2c1-0.3,2-0.7,2.9-1
					c2.2-0.7,4.3-1.5,6.5-2.2c1-0.3,2-0.7,3-1c2.1-0.7,4.2-1.4,6.4-2.2c1.1-0.4,2.1-0.7,3.2-1.1c2.1-0.7,4.2-1.4,6.3-2.1
					c1-0.3,2.1-0.7,3.1-1c2.2-0.8,4.5-1.5,6.7-2.3c0.9-0.3,1.8-0.6,2.7-0.9c2.3-0.8,4.5-1.5,6.8-2.3c0.9-0.3,1.9-0.6,2.8-0.9
					c2.2-0.7,4.4-1.5,6.6-2.2c1-0.3,2.1-0.7,3.1-1.1c2.2-0.7,4.4-1.5,6.6-2.2c1-0.3,2-0.7,3-1c2.3-0.8,4.5-1.5,6.8-2.3
					c1-0.3,2-0.6,2.9-1c2.3-0.8,4.5-1.5,6.8-2.3c1-0.3,1.9-0.6,2.9-1c2.3-0.8,4.6-1.5,7-2.3c0.9-0.3,1.9-0.6,2.8-0.9
					c2.3-0.8,4.7-1.5,7.1-2.3c0.9-0.3,1.8-0.6,2.8-0.9c2.3-0.8,4.7-1.5,7-2.3c0.9-0.3,1.9-0.6,2.8-0.9c2.3-0.8,4.7-1.5,7-2.3
					c1-0.3,1.9-0.6,2.9-0.9c2.4-0.8,4.8-1.5,7.1-2.3c0.9-0.3,1.8-0.6,2.7-0.9c2.4-0.8,4.8-1.5,7.2-2.3c0.9-0.3,1.8-0.6,2.8-0.9
					c2.3-0.7,4.7-1.5,7-2.2c1-0.3,2-0.6,3-1c2.3-0.7,4.6-1.5,6.9-2.2c1.1-0.3,2.1-0.7,3.2-1c2.4-0.8,4.8-1.5,7.2-2.3
					c0.9-0.3,1.8-0.6,2.7-0.9c2.5-0.8,5-1.6,7.4-2.3c0.9-0.3,1.7-0.5,2.6-0.8c2.5-0.8,4.9-1.5,7.4-2.3c0.9-0.3,1.8-0.6,2.7-0.8
					c2.4-0.8,4.8-1.5,7.2-2.3c0.9-0.3,1.9-0.6,2.8-0.9c2.5-0.8,4.9-1.5,7.4-2.3c0.9-0.3,1.7-0.5,2.6-0.8c2.4-0.8,4.9-1.5,7.3-2.3
					c0.9-0.3,1.9-0.6,2.8-0.9c2.5-0.8,4.9-1.5,7.4-2.3c0.9-0.3,1.8-0.5,2.7-0.8c2.4-0.7,4.8-1.5,7.2-2.2c1-0.3,2-0.6,3-0.9
					c2.3-0.7,4.7-1.4,7-2.1c1-0.3,2.1-0.6,3.1-1c2.4-0.7,4.8-1.4,7.1-2.2c1-0.3,2-0.6,3-0.9c2.4-0.7,4.8-1.5,7.3-2.2
					c1-0.3,1.9-0.6,2.9-0.9c2.4-0.7,4.8-1.4,7.2-2.1c1-0.3,2-0.6,3-0.9c2.4-0.7,4.9-1.5,7.3-2.2c0.9-0.3,1.9-0.6,2.8-0.8
					c2.5-0.7,4.9-1.4,7.4-2.2c0.9-0.3,1.9-0.6,2.8-0.8c2.4-0.7,4.7-1.4,7.1-2.1c1.1-0.3,2.1-0.6,3.2-0.9c2.2-0.6,4.4-1.3,6.6-1.9
					c1.2-0.4,2.4-0.7,3.6-1.1c2.3-0.7,4.5-1.3,6.8-2c1.1-0.3,2.2-0.6,3.4-1c2.2-0.6,4.4-1.3,6.6-1.9c1.2-0.3,2.4-0.7,3.6-1
					c2.2-0.6,4.4-1.2,6.5-1.9c1.2-0.3,2.4-0.7,3.6-1c2.2-0.6,4.4-1.2,6.6-1.9c1.2-0.3,2.4-0.7,3.6-1c2.2-0.6,4.5-1.3,6.7-1.9
					c1.2-0.3,2.3-0.6,3.5-1c2.1-0.6,4.1-1.2,6.2-1.7c1.3-0.4,2.7-0.8,4-1.1c1.9-0.5,3.9-1.1,5.8-1.6c1.5-0.4,2.9-0.8,4.4-1.2
					c1.7-0.5,3.5-0.9,5.2-1.4s3.4-0.9,5-1.4c1.4-0.4,2.8-0.7,4.1-1.1c2-0.5,4-1.1,6-1.6c1-0.3,2-0.5,3-0.8
					c19.2-5.2,38.4-10.2,57.4-15.1C1292.3,1586,1282.1,1528.7,1270.7,1464.2z"/>
				<path d="M1839.1,209.7c-77.1,55.1-114.6,112.4-143.2,193.9c-24.3,69.2-16.4,145.9,15.3,205.9c10.6,20,23.8,38.2,39.3,53.7
					l17-66.8c-31.9-59.5-20.9-84.8-20.9-84.8l0,0l0,0l18.2,14l24.8,19.1l37.5-71.6c-8.4-23.5-10.3-42.4-10.2-54.7c0-1,0-2,0-3v-0.1
					c0.3-8.3,1.4-12.8,1.4-12.8l0,0l0,0l46.3,33c6.7-5.8,13.4-10.8,20-15.1c32.8-21.5,60.5-24.6,60.5-24.6s-68.3,84.8-60.6,198.3
					c1,14.8,3.3,28.9,6.5,42c16.9,68.2,61,112.7,102.6,121l2.2-65c-26.4-29.7-26.4-77.1-26.4-77.1l0,0l0,0l32.6,18l3.8-26.8
					c-23.1-25.3-23.6-80.3-23.6-80.3l0,0l0,0l40,23.5l33.2-53.4c-7.7-37.5-3.3-71.6-3.3-71.6l0,0l0,0l38.6,37.5
					c0.9-0.4,1.8-0.8,2.8-1.2c5.3-2.3,11.8-4.9,19.1-7.6c15-5.7,33.3-12.1,51.5-18l0,0l0,0c-2.4,1.9-4.8,4-7.1,6.1
					c-0.9,0.9-1.9,1.8-2.8,2.7c-0.2,0.2-0.4,0.4-0.6,0.6c-7.8,7.8-14.8,16.7-20.6,26.3l0,0c-0.7,1.1-1.3,2.2-1.9,3.4
					c-0.2,0.3-0.3,0.5-0.5,0.8c-0.4,0.8-0.8,1.6-1.2,2.3c-0.3,0.6-0.7,1.3-1,1.9c-0.1,0.2-0.2,0.5-0.3,0.7
					c-2.7,5.5-4.9,11.3-6.7,17.2c-6,20.4-3.5,42.8,6.5,61.9c11.3,21.7,32.3,39.3,61.2,45.5c0.7,0.1,1.4,0.3,2,0.4
					c0.9,0.2,1.9,0.4,2.8,0.5c0.7,0.1,1.4,0.2,2.1,0.3c0.9,0.1,1.8,0.3,2.6,0.4c0.7,0.1,1.4,0.1,2.1,0.2c0.8,0.1,1.7,0.2,2.5,0.2
					c0.7,0,1.4,0.1,2,0.1c0.8,0,1.6,0.1,2.4,0.1c0.9,0,1.7,0,2.6,0c0.4,0,0.8,0,1.2,0c1.2,0,2.3-0.1,3.4-0.2c0.1,0,0.2,0,0.3,0
					c1.2-0.1,2.4-0.3,3.6-0.4c0.4-0.1,0.7-0.1,1.1-0.2c0.8-0.1,1.6-0.3,2.4-0.4c0.4-0.1,0.9-0.2,1.3-0.3c0.7-0.2,1.4-0.3,2.1-0.5
					c0.4-0.1,0.9-0.2,1.3-0.4c0.7-0.2,1.3-0.4,2-0.6c0.4-0.1,0.8-0.3,1.2-0.4c0.7-0.2,1.3-0.5,2-0.7c0.4-0.1,0.7-0.3,1.1-0.4
					c0.8-0.3,1.5-0.6,2.2-1c0.3-0.1,0.5-0.2,0.8-0.3c1-0.5,1.9-0.9,2.9-1.4c0.2-0.1,0.3-0.2,0.5-0.3c0.8-0.4,1.5-0.8,2.3-1.3
					c0.3-0.2,0.6-0.4,0.9-0.5c0.6-0.4,1.2-0.8,1.8-1.2c0.3-0.2,0.6-0.4,0.9-0.6c0.6-0.4,1.1-0.8,1.6-1.2c0.3-0.2,0.6-0.5,0.9-0.7
					c0.5-0.4,1.1-0.9,1.6-1.3c0.3-0.2,0.5-0.4,0.8-0.7c0.6-0.5,1.2-1,1.7-1.5c0.2-0.2,0.4-0.4,0.6-0.5c1.5-1.4,3-2.9,4.4-4.5
					c0.1-0.2,0.3-0.3,0.4-0.5c0.6-0.6,1.1-1.2,1.6-1.9c0.2-0.2,0.4-0.5,0.6-0.7c0.5-0.6,0.9-1.2,1.4-1.7c0.2-0.3,0.4-0.5,0.6-0.8
					c0.4-0.6,0.9-1.2,1.3-1.8c0.2-0.2,0.4-0.5,0.5-0.7c0.4-0.6,0.9-1.3,1.3-1.9c0.1-0.2,0.3-0.4,0.4-0.6c0.5-0.8,1.1-1.6,1.6-2.5
					l0.1-0.1c1.1-1.8,2.1-3.6,3.1-5.5c0.1-0.2,0.2-0.4,0.3-0.6c0.4-0.7,0.7-1.4,1.1-2.1c0.1-0.3,0.3-0.5,0.4-0.8
					c0.3-0.7,0.6-1.3,0.9-2c0.1-0.3,0.3-0.6,0.4-0.8c0.3-0.7,0.6-1.3,0.9-2c0.1-0.3,0.2-0.5,0.3-0.8c0.3-0.7,0.6-1.5,0.9-2.2
					c0.1-0.2,0.2-0.4,0.2-0.6c0.4-0.9,0.7-1.9,1.1-2.8c0.6-1.5,1-3,1.5-4.5c0.2-0.5,0.4-1,0.5-1.5c0.1-0.2,0.1-0.5,0.2-0.8
					c8.9-30.4,3.4-65.5-7.8-91.6c0,0.1,0.1,0.1,0.1,0.2v-0.1c65.4,81.9,161,227.7,219.1,360.4c5.6-7.6,10.5-15.3,13.7-22.9
					c5.4-12.7,20.1-42.3,50.4-71.8c-6.3-11.8-13.1-23.8-20.2-36c-0.1-0.2-0.2-0.4-0.4-0.6c-1.6-2.8-3.3-5.5-5-8.3
					c-0.3-0.4-0.5-0.9-0.8-1.3c-1.6-2.7-3.2-5.3-4.9-8c-0.3-0.6-0.7-1.1-1-1.7c-1.6-2.6-3.3-5.2-4.9-7.9c-0.4-0.6-0.7-1.2-1.1-1.7
					c-1.7-2.7-3.4-5.3-5.1-8c-0.3-0.5-0.6-1-1-1.5c-1.8-2.8-3.6-5.6-5.5-8.4c-0.1-0.1-0.2-0.3-0.3-0.5c-8-12-16.5-24.2-25.4-36.5
					c-0.5-0.6-0.9-1.3-1.4-1.9c-1.7-2.4-3.5-4.7-5.3-7.1c-0.8-1-1.5-2.1-2.3-3.1c-1.7-2.2-3.3-4.4-5-6.6c-0.9-1.2-1.9-2.4-2.8-3.7
					c-1.6-2.1-3.3-4.2-4.9-6.3c-1-1.3-2.1-2.6-3.1-3.9c-1.6-2.1-3.3-4.1-4.9-6.2c-1.1-1.4-2.2-2.8-3.3-4.1c-1.7-2-3.3-4.1-5-6.1
					c-1.2-1.4-2.4-2.8-3.5-4.2c-1.7-2-3.4-4-5.1-6c-1.2-1.4-2.5-2.9-3.7-4.3c-1.7-2-3.4-4-5.2-6c-1.2-1.4-2.5-2.8-3.7-4.2
					c-6.3-7.1-12.7-14.3-19.4-21.4c-1.6-1.7-3.1-3.3-4.7-5c-1.7-1.8-3.4-3.5-5-5.3c-1.6-1.7-3.3-3.4-4.9-5.2
					c-1.7-1.7-3.4-3.5-5.1-5.2c-1.7-1.7-3.4-3.5-5.1-5.2c-1.7-1.7-3.5-3.5-5.2-5.2c-1.8-1.8-3.6-3.5-5.3-5.3
					c-1.7-1.7-3.5-3.4-5.3-5.1c-1.8-1.8-3.7-3.6-5.6-5.3c-1.8-1.7-3.6-3.4-5.3-5.1c-1.9-1.8-3.9-3.6-5.8-5.4c-1.8-1.7-3.6-3.3-5.4-5
					c-2-1.9-4.1-3.7-6.2-5.6c-1.8-1.6-3.5-3.2-5.3-4.8c-2.2-2-4.5-4-6.8-6c-1.7-1.5-3.3-2.9-5-4.4c-3.1-2.7-6.2-5.4-9.4-8
					c-0.9-0.7-1.7-1.5-2.6-2.2c-0.6-0.6-1.1-1-1.6-1.6c0,0,0,0,0.1,0l0,0c3.2-0.1,6.3-0.1,9.5-0.1c0.1,0,0.3,0,0.4,0
					c0.2,0,0.5,0,0.7,0c1.5,0,3.1,0,4.6,0c0.5,0,1,0,1.5,0c1.5,0,2.9,0.1,4.4,0.1c0.5,0,1,0,1.5,0.1c1.4,0.1,2.9,0.1,4.3,0.2
					c0.4,0,0.9,0.1,1.3,0.1c1.5,0.1,2.9,0.2,4.4,0.3c0.2,0,0.3,0,0.5,0c4.5,0.4,8.9,0.8,13.2,1.4c0.7,0.1,1.5,0.2,2.2,0.3
					c0.9,0.1,1.8,0.3,2.7,0.4s1.7,0.3,2.5,0.4s1.6,0.3,2.4,0.4c0.9,0.2,1.8,0.3,2.7,0.5c0.8,0.1,1.5,0.3,2.2,0.5
					c0.9,0.2,1.8,0.4,2.7,0.6c0.7,0.2,1.4,0.3,2.1,0.5c0.9,0.2,1.8,0.4,2.7,0.7c0.6,0.2,1.3,0.3,1.9,0.5c0.9,0.2,1.8,0.5,2.7,0.8
					c0.6,0.2,1.2,0.3,1.8,0.5c0.9,0.3,1.9,0.6,2.8,0.9c0.5,0.2,1,0.3,1.6,0.5c1,0.3,2,0.7,3,1c0.4,0.1,0.8,0.3,1.2,0.4
					c1.4,0.5,2.7,1,4.1,1.6l19.8-24.1l15.5-18.9l0,0l0,0c0,0,7.8,19.9,9.7,43.2c0.6,8.2,0.6,16.8-0.9,25.1l12.8,13.5l10.3,10.8
					l47.4-36.4l0,0l0,0c0,0,5.5,44.6-9.4,74.4l2,2.3l16.2,19.2l22.5-20.4l13.9-12.6l0,0l0,0c0,0-2.1,14.4-4.3,31.7
					c-1.6,13.1-3.3,27.9-4,39.3l11.6,38c16.5-22.7,26-46.7,30.3-72.7c0.8-4.9,1.5-9.9,1.9-14.9c0-0.3,0.1-0.6,0.1-0.9
					c0.4-4.4,0.7-8.9,0.8-13.5c0.1-3.7,0.2-7.4,0.2-11.2c0-0.4,0-0.7,0-1.1c-0.4-47.5-12.1-101.4-25.1-165l0,0l0,0l0,0l0,0h0.1
					c0,0,0.1,0,0.2,0c0,0,0.1,0,0.1,0.1c0.1,0,0.2,0.1,0.4,0.2c0.1,0,0.1,0.1,0.2,0.1c0.2,0.1,0.4,0.2,0.6,0.3
					c0.1,0,0.1,0.1,0.2,0.1c0.2,0.1,0.5,0.3,0.7,0.4c0.1,0.1,0.2,0.1,0.3,0.2c0.3,0.1,0.5,0.3,0.8,0.5c0.1,0.1,0.3,0.2,0.4,0.3
					c0.3,0.2,0.6,0.3,0.9,0.5c0.2,0.1,0.4,0.2,0.6,0.4c0.3,0.2,0.6,0.3,0.9,0.5c0.3,0.2,0.6,0.3,0.9,0.5c0.3,0.2,0.5,0.3,0.8,0.5
					c0.4,0.2,0.8,0.5,1.2,0.7c0.2,0.1,0.4,0.3,0.6,0.4c0.5,0.3,1,0.6,1.4,0.9c0.2,0.1,0.4,0.2,0.6,0.3c0.5,0.3,1.1,0.7,1.6,1
					c0.2,0.1,0.3,0.2,0.5,0.3c0.6,0.4,1.2,0.7,1.8,1.1c0.2,0.1,0.3,0.2,0.5,0.3c0.7,0.4,1.4,0.9,2.1,1.3c0.1,0.1,0.2,0.1,0.3,0.2
					c0.7,0.5,1.5,0.9,2.3,1.4c0.1,0.1,0.2,0.1,0.2,0.2c0.7,0.5,1.5,0.9,2.2,1.4c0.1,0.1,0.3,0.2,0.4,0.3c0.7,0.4,1.4,0.9,2.2,1.4
					c0.2,0.1,0.3,0.2,0.5,0.3c0.6,0.4,1.3,0.8,2,1.2c0.3,0.2,0.6,0.4,0.9,0.6c0.6,0.4,1.1,0.7,1.7,1.1c0.4,0.2,0.7,0.5,1.1,0.7
					c0.5,0.3,1,0.6,1.5,0.9s1,0.6,1.5,0.9c0.4,0.2,0.7,0.5,1.1,0.7c0.6,0.4,1.2,0.8,1.8,1.2c0.3,0.2,0.6,0.4,0.9,0.6
					c0.7,0.4,1.4,0.9,2.1,1.3c0.2,0.1,0.3,0.2,0.5,0.3c0.8,0.5,1.6,1.1,2.4,1.6c0,0,0.1,0,0.1,0.1c9.4,6.2,18.7,12.5,25.7,17.7
					c1.8-2.2,4-4.8,6.3-7.6c6.7-8.1,14.7-18,19.5-23.9c2.6-3.2,4.2-5.2,4.2-5.2s0.8,1.5,1.9,4.2c3.7,8.6,11.2,29,10,49.9
					c-0.1,2.5-0.4,4.9-0.8,7.4l18.6,24.4l34.1,44.7c7.1-24.1,17.1-66.2,10.2-111.2c-3.9-25.6-13.2-52.1-31.5-76.9
					c-30.3-40.8-67-65.7-110-88.4c-14.9-7.9-30.5-15.5-46.9-23.4l0,0l0,0c0,0,0,0,0-0.1c-0.6-2.4-1.2-4.8-1.8-7.1
					c-0.1-0.3-0.2-0.6-0.2-0.9c-0.6-2.2-1.3-4.4-2-6.5c-0.1-0.4-0.2-0.7-0.4-1.1c-0.7-2.1-1.5-4.1-2.3-6.1c-0.1-0.4-0.3-0.7-0.4-1.1
					c-0.8-2-1.6-4-2.5-5.9c-0.1-0.3-0.2-0.5-0.4-0.8c-0.9-2-1.9-3.9-2.9-5.8c0-0.1-0.1-0.1-0.1-0.2c-1-1.9-2-3.7-3.1-5.5
					c-0.1-0.2-0.2-0.4-0.4-0.6c-1-1.7-2.1-3.4-3.2-5.1c-0.2-0.3-0.4-0.6-0.6-0.8c-1.1-1.6-2.2-3.2-3.3-4.7c-0.2-0.3-0.4-0.5-0.6-0.8
					c-1.2-1.5-2.3-3-3.6-4.4c-0.2-0.2-0.4-0.4-0.6-0.6c-1.3-1.5-2.6-2.9-3.9-4.3c-0.1-0.1-0.2-0.2-0.2-0.2c-1.3-1.4-2.6-2.7-4-4
					c-0.1-0.1-0.3-0.3-0.4-0.4c-1.3-1.3-2.7-2.5-4.1-3.7c-0.2-0.2-0.5-0.4-0.7-0.6c-1.4-1.2-2.7-2.3-4.1-3.4
					c-0.3-0.2-0.5-0.4-0.8-0.6c-1.4-1.1-2.8-2.1-4.3-3.1c-0.2-0.2-0.5-0.3-0.7-0.5c-1.5-1-3-2-4.5-3c-0.1-0.1-0.3-0.2-0.4-0.3
					c-1.5-0.9-3-1.8-4.6-2.7c-0.2-0.1-0.3-0.2-0.5-0.3c-1.5-0.9-3.1-1.7-4.7-2.5c-0.3-0.1-0.6-0.3-0.9-0.4c-1.5-0.8-3.1-1.5-4.6-2.2
					c-0.3-0.1-0.7-0.3-1-0.4c-1.5-0.7-3.1-1.4-4.7-2c-0.3-0.1-0.6-0.3-0.9-0.4c-1.6-0.6-3.2-1.3-4.8-1.9c-0.2-0.1-0.5-0.2-0.7-0.2
					c-1.6-0.6-3.2-1.1-4.7-1.6c-0.2-0.1-0.4-0.1-0.6-0.2c-1.6-0.5-3.3-1-4.9-1.5c-0.3-0.1-0.7-0.2-1-0.3c-1.6-0.4-3.2-0.9-4.8-1.3
					c-0.4-0.1-0.8-0.2-1.2-0.3c-1.6-0.4-3.2-0.8-4.7-1.1c-0.4-0.1-0.8-0.2-1.1-0.2c-1.6-0.3-3.2-0.7-4.8-1c-0.3-0.1-0.6-0.1-0.9-0.2
					c-1.5-0.3-3.1-0.5-4.6-0.8c-0.2,0-0.5-0.1-0.7-0.1c-1.6-0.2-3.2-0.5-4.8-0.7c-0.4,0-0.7-0.1-1.1-0.1c-1.6-0.2-3.1-0.4-4.7-0.5
					c-0.4,0-0.8-0.1-1.2-0.1c-1.5-0.1-3.1-0.3-4.6-0.4c-0.4,0-0.8-0.1-1.2-0.1c-1.5-0.1-3.1-0.2-4.6-0.3c-0.3,0-0.7,0-1,0
					c-1.5-0.1-2.9-0.1-4.3-0.2c-0.3,0-0.6,0-0.9,0c-1.5,0-2.9,0-4.4,0c-0.3,0-0.6,0-1,0c-2.9,0-5.9,0.1-8.7,0.2c-0.1,0-0.3,0-0.4,0
					c-2.9,0.1-5.8,0.3-8.6,0.5h-0.1v-0.1c0-0.6-0.1-1.2-0.2-1.8c0-0.1,0-0.3-0.1-0.4c-0.1-0.6-0.2-1.2-0.3-1.9
					c0-0.2-0.1-0.3-0.1-0.5c-0.1-0.6-0.2-1.3-0.4-1.9c0-0.1-0.1-0.3-0.1-0.4c-0.1-0.6-0.3-1.2-0.5-1.8c0-0.1-0.1-0.3-0.1-0.4
					c-0.2-0.7-0.4-1.3-0.6-2c-0.1-0.2-0.1-0.4-0.2-0.5c-0.2-0.7-0.5-1.4-0.7-2c-0.1-0.2-0.1-0.3-0.2-0.5c-0.3-0.7-0.6-1.3-0.9-2
					c0-0.1-0.1-0.2-0.1-0.3c-0.3-0.7-0.7-1.4-1-2.1c-0.1-0.2-0.2-0.3-0.3-0.5c-0.4-0.7-0.8-1.4-1.2-2.1c-0.1-0.2-0.2-0.4-0.3-0.5
					c-0.4-0.7-0.9-1.4-1.4-2.1c-0.1-0.1-0.2-0.2-0.3-0.4c-0.5-0.7-0.9-1.3-1.4-2c-0.1-0.1-0.2-0.3-0.3-0.4c-0.5-0.7-1.1-1.4-1.7-2.1
					c-0.2-0.2-0.3-0.4-0.5-0.5c-0.6-0.7-1.2-1.4-1.9-2.1c-0.1-0.2-0.3-0.3-0.4-0.5c-0.7-0.7-1.4-1.3-2.1-2c-0.1-0.1-0.2-0.1-0.2-0.2
					c-0.8-0.7-1.6-1.4-2.4-2.1c-0.2-0.2-0.4-0.3-0.5-0.5c-0.8-0.7-1.7-1.3-2.5-2c-0.2-0.2-0.4-0.3-0.6-0.5c-0.9-0.7-1.9-1.3-2.8-2
					c-0.1-0.1-0.3-0.2-0.4-0.3c-0.9-0.6-1.9-1.2-2.9-1.8c-0.2-0.1-0.4-0.2-0.6-0.3c-1.1-0.6-2.2-1.2-3.3-1.8
					c-0.3-0.1-0.5-0.3-0.8-0.4c-1.1-0.6-2.3-1.2-3.5-1.7c-0.2-0.1-0.5-0.2-0.7-0.3c-1.2-0.5-2.5-1.1-3.8-1.6c-0.1,0-0.2-0.1-0.3-0.1
					c-1.4-0.5-2.8-1.1-4.2-1.6c-0.3-0.1-0.6-0.2-0.9-0.3c-1.4-0.5-2.9-1-4.4-1.4c-0.3-0.1-0.7-0.2-1-0.3c-1.5-0.5-3.1-0.9-4.8-1.3
					c-0.2-0.1-0.4-0.1-0.6-0.1c-1.6-0.4-3.2-0.8-4.8-1.2c-0.3-0.1-0.6-0.1-0.9-0.2c-1.7-0.4-3.5-0.7-5.3-1.1
					c-0.4-0.1-0.8-0.1-1.2-0.2c-1.8-0.3-3.7-0.6-5.6-0.9c-0.3-0.1-0.7-0.1-1.1-0.1c-1.9-0.3-3.9-0.5-5.9-0.8c-0.2,0-0.3,0-0.5-0.1
					c-2.1-0.2-4.3-0.4-6.5-0.6c-0.4,0-0.9-0.1-1.3-0.1c-2.2-0.2-4.4-0.3-6.6-0.5c-0.5,0-0.9,0-1.4-0.1c-2.3-0.1-4.7-0.2-7.2-0.3
					c-0.2,0-0.5,0-0.7,0c-2.4-0.1-4.8-0.1-7.3-0.1c-0.4,0-0.9,0-1.3,0c-1.4,0-2.9,0-4.3,0c-0.4,0-0.9,0-1.3,0
					c-1.9,0-3.9,0.1-5.8,0.1c-0.5,0-1.1,0-1.6,0.1c-1.5,0.1-3,0.1-4.5,0.2c-0.7,0-1.4,0.1-2.1,0.1c-1.4,0.1-2.8,0.1-4.2,0.2
					c-0.8,0-1.5,0.1-2.3,0.1c-1.4,0.1-2.8,0.2-4.3,0.3c-0.8,0.1-1.5,0.1-2.3,0.2c-1.5,0.1-3.1,0.3-4.6,0.4c-0.7,0.1-1.4,0.1-2,0.2
					c-1.8,0.2-3.6,0.4-5.5,0.5c-0.5,0-0.9,0.1-1.4,0.1c-2.4,0.3-4.8,0.5-7.2,0.8c-130,15.4-114.6,101.4-116.8,141
					c-0.1-0.1-0.3-0.2-0.4-0.3c-1.1-0.8-2.1-1.7-3.2-2.5c-0.4-0.3-0.8-0.6-1.2-0.9c-1.1-0.8-2.2-1.6-3.3-2.5
					c-0.2-0.1-0.4-0.3-0.5-0.4c-1.2-0.9-2.5-1.8-3.8-2.7c-0.4-0.3-0.8-0.5-1.2-0.8c-1.1-0.8-2.2-1.5-3.3-2.3
					c-0.2-0.2-0.5-0.3-0.7-0.5c-1.3-0.9-2.6-1.7-4-2.6c-0.4-0.2-0.8-0.5-1.1-0.7c-1.1-0.7-2.3-1.4-3.4-2.1c-0.3-0.2-0.6-0.4-0.9-0.5
					c-1.4-0.8-2.8-1.6-4.2-2.4c-0.4-0.2-0.8-0.4-1.2-0.7c-1.2-0.6-2.3-1.3-3.5-1.9c-0.3-0.2-0.7-0.4-1-0.5c-1.4-0.8-2.9-1.5-4.3-2.2
					c-0.4-0.2-0.8-0.4-1.2-0.6c-1.2-0.6-2.4-1.1-3.6-1.7c-0.4-0.2-0.8-0.4-1.2-0.5c-1.5-0.7-3-1.3-4.5-2c-0.4-0.2-0.8-0.3-1.2-0.5
					c-1.2-0.5-2.5-1-3.8-1.5c-0.4-0.2-0.9-0.3-1.3-0.5c-1.6-0.6-3.1-1.1-4.7-1.7c-0.4-0.1-0.7-0.2-1.1-0.4c-1.3-0.4-2.6-0.9-4-1.3
					c-0.5-0.1-0.9-0.3-1.4-0.4c-1.6-0.5-3.3-1-4.9-1.4c-0.3-0.1-0.6-0.2-1-0.2c-1.4-0.4-2.9-0.7-4.3-1c-0.5-0.1-1-0.2-1.4-0.3
					c-1.7-0.4-3.4-0.7-5.2-1.1c-0.2,0-0.5-0.1-0.7-0.1c-1.6-0.3-3.1-0.5-4.7-0.8c-0.5-0.1-1-0.1-1.5-0.2c-1.8-0.3-3.6-0.5-5.5-0.7
					c-0.1,0-0.2,0-0.3,0c-1.7-0.2-3.5-0.3-5.3-0.5c-0.5,0-1-0.1-1.4-0.1c-1.9-0.1-3.8-0.2-5.7-0.3c0,0,0,0-0.1,0
					c-2-0.1-3.9-0.1-5.9,0c-0.4,0-0.8,0-1.3,0c-2,0-4,0.1-6,0.2h-0.1c-2,0.1-4,0.3-6,0.4c-0.4,0-0.8,0.1-1.2,0.1
					c-2,0.2-4.1,0.4-6.2,0.7c-0.2,0-0.4,0.1-0.7,0.1c-1.9,0.3-3.9,0.6-5.8,0.9c-0.4,0.1-0.8,0.1-1.2,0.2c-2.1,0.4-4.2,0.8-6.3,1.2
					c-0.3,0.1-0.7,0.2-1,0.2c-1.9,0.4-3.9,0.9-5.9,1.4c-0.3,0.1-0.6,0.2-1,0.2c-2.2,0.5-4.4,1.1-6.6,1.8c-0.4,0.1-0.9,0.3-1.3,0.4
					c-2.1,0.6-4.2,1.3-6.3,2c-0.2,0.1-0.4,0.1-0.6,0.2c-2.3,0.7-4.5,1.6-6.8,2.4c-0.5,0.2-0.9,0.4-1.4,0.5c-2.3,0.9-4.6,1.8-7,2.7
					c-15,6.2-28.3,15.6-38.5,27.4c-0.1,0.2-0.3,0.3-0.4,0.5c-0.1,0.1-0.1,0.1-0.1,0.2c-11,13-18.3,28.8-20.4,46.7
					c-0.3,2.3-0.4,4.6-0.5,6.9c0,0.3,0,0.6,0,0.9C1838.6,201.5,1838.7,205.6,1839.1,209.7L1839.1,209.7L1839.1,209.7z"/>
				<path d="M3839,1166.2c1-10.8-18.7-24.5-51.2-31c-3.6-0.7-8.7-1.9-15.3-3.4c-47-10.9-172.2-40.6-393.4-58.4
					c-25.8,10.6-81.1,32.6-148.5,59.4c-88.4,35.2-198.4,79-290.5,116.3c-48.1,19.5-96.7,41.1-142.9,62.3c17.7-2.9,35.4-5.7,53-8.5
					c0.3,0,0.6-0.1,0.9-0.1c3.2-0.5,6.4-1,9.6-1.5c0.4-0.1,0.9-0.1,1.3-0.2c3.2-0.5,6.3-1,9.5-1.5c0.5-0.1,0.9-0.1,1.4-0.2
					c3-0.5,6.1-0.9,9.1-1.4c0.6-0.1,1.3-0.2,1.9-0.3c3-0.5,5.9-0.9,8.9-1.4c0.6-0.1,1.3-0.2,1.9-0.3c3-0.5,5.9-0.9,8.9-1.4
					c0.6-0.1,1.2-0.2,1.8-0.3c3-0.5,6-0.9,9-1.4c0.6-0.1,1.1-0.2,1.7-0.3c3.1-0.5,6.1-0.9,9.2-1.4c0.5-0.1,1-0.1,1.4-0.2
					c3.2-0.5,6.3-0.9,9.5-1.4c0.2,0,0.5-0.1,0.7-0.1c3.4-0.5,6.8-1,10.1-1.5c0,0,0,0,0.1,0c53.1-7.8,105.7-15.1,157.1-21.9l0,0
					c172.6-22.8,332.6-40.3,459.4-54.3c0.1,0,0.1,0,0.2,0c2.2-0.2,4.3-0.5,6.4-0.7c1.1-0.1,2.1-0.2,3.1-0.3c1.5-0.2,3-0.3,4.5-0.5
					c1.3-0.1,2.6-0.3,3.9-0.4c1.1-0.1,2.1-0.2,3.2-0.3c1.5-0.2,3.1-0.3,4.6-0.5c0.9-0.1,1.8-0.2,2.8-0.3c1.7-0.2,3.4-0.4,5-0.6
					c0.5-0.1,1.1-0.1,1.6-0.2c4.4-0.5,8.8-1,13.1-1.5c0.4,0,0.7-0.1,1.1-0.1c97.7-10.9,170.4-19.5,206.1-27
					C3832.1,1176.8,3838.4,1171.9,3839,1166.2z"/>
				<path d="M2384.6,1066.2c3.6-12.5,7.2-25.4,10.4-38.2c0,0,0,0,0-0.1c0.5-2.1,1-4.2,1.5-6.3v-0.1c0.5-2.1,1-4.2,1.4-6.2l0,0
					c1.4-6.2,2.6-12.4,3.7-18.4c0-0.1,0-0.2,0.1-0.3c0.3-1.9,0.6-3.8,0.9-5.6c0-0.2,0.1-0.3,0.1-0.5c0.3-1.8,0.5-3.7,0.8-5.5
					c0-0.2,0-0.3,0.1-0.5c0.2-1.8,0.4-3.6,0.6-5.4c0-0.1,0-0.2,0-0.2c0.4-3.7,0.6-7.2,0.8-10.7c0-0.1,0-0.2,0-0.3
					c0.1-1.6,0.1-3.3,0.1-4.9c0-0.2,0-0.4,0-0.6c0-1.5,0-3.1-0.1-4.6c0-0.2,0-0.4,0-0.6c-0.1-1.5-0.2-3-0.3-4.4c0-0.2,0-0.4-0.1-0.5
					c-0.1-1.5-0.3-2.9-0.5-4.3c0-0.1,0-0.2,0-0.3c-0.2-1.4-0.5-2.8-0.7-4.2c0-0.1,0-0.1,0-0.2c-0.3-1.3-0.6-2.6-1-3.9
					c0-0.2-0.1-0.3-0.1-0.5c-0.4-1.2-0.7-2.3-1.2-3.5c-0.1-0.2-0.1-0.4-0.2-0.6c-0.4-1.1-0.9-2.2-1.4-3.2c-0.1-0.2-0.2-0.4-0.3-0.5
					c-0.5-1-1.1-2-1.7-3c-0.1-0.1-0.2-0.3-0.3-0.4c-0.6-1-1.3-1.9-2-2.8c-0.1-0.1-0.1-0.1-0.2-0.2c-0.7-0.9-1.4-1.7-2.2-2.4
					c-0.1-0.1-0.2-0.2-0.3-0.3c-0.8-0.8-1.6-1.5-2.5-2.1c-0.2-0.1-0.3-0.3-0.5-0.4c-0.9-0.6-1.8-1.2-2.7-1.8
					c-0.2-0.1-0.4-0.2-0.6-0.3c-1-0.5-2-1-3-1.5c-0.2-0.1-0.4-0.2-0.7-0.3c-1.1-0.4-2.2-0.8-3.4-1.2c-0.2-0.1-0.4-0.1-0.6-0.2
					c-1.2-0.3-2.4-0.6-3.7-0.9c-0.1,0-0.1,0-0.2,0c-0.4-0.1-0.8-0.1-1.3-0.2c-0.1,0-0.2,0-0.3,0c-0.3,0-0.7,0-1-0.1
					c-0.2,0-0.4,0-0.6,0c-0.1,0-0.3,0-0.4,0c-0.9,0-1.9,0.1-2.9,0.2c-0.1,0-0.2,0-0.3,0.1c-1,0.1-2,0.3-3.1,0.6
					c-0.1,0-0.2,0.1-0.3,0.1c-1.1,0.3-2.1,0.6-3.2,0.9c-0.1,0-0.2,0.1-0.3,0.1c-1.1,0.4-2.3,0.8-3.5,1.3c-0.2,0.1-0.3,0.1-0.5,0.2
					c-1.2,0.5-2.3,1-3.5,1.6c-0.2,0.1-0.4,0.2-0.6,0.3c-1.2,0.6-2.4,1.2-3.6,1.8c-0.2,0.1-0.5,0.2-0.7,0.4c-1.2,0.7-2.4,1.4-3.7,2.1
					c-0.3,0.1-0.5,0.3-0.8,0.4c-1.2,0.7-2.5,1.5-3.8,2.3c-0.3,0.2-0.5,0.3-0.8,0.5c-1.3,0.8-2.6,1.7-3.9,2.6
					c-0.3,0.2-0.6,0.4-0.9,0.6c-1.3,0.9-2.6,1.8-4,2.8c-0.3,0.2-0.6,0.4-0.9,0.6c-1.3,1-2.7,2-4.1,3c-0.3,0.2-0.6,0.4-0.9,0.7
					c-1.4,1.1-2.8,2.1-4.2,3.2c-0.3,0.2-0.6,0.4-0.8,0.7c-1.4,1.1-2.8,2.3-4.3,3.5c-0.3,0.2-0.5,0.4-0.8,0.7
					c-1.5,1.2-2.9,2.4-4.4,3.7c-0.2,0.2-0.5,0.4-0.7,0.6c-1.5,1.3-3,2.6-4.5,3.9c-0.2,0.2-0.4,0.4-0.6,0.6c-1.5,1.4-3.1,2.8-4.7,4.2
					c-0.2,0.2-0.3,0.3-0.5,0.5c-1.6,1.4-3.2,2.9-4.7,4.4c-0.1,0.1-0.3,0.2-0.4,0.4c-1.6,1.5-3.1,3-4.7,4.5c-0.2,0.2-0.3,0.3-0.5,0.5
					c-1.6,1.5-3.1,3-4.7,4.6c-0.2,0.2-0.4,0.4-0.7,0.6c-1.5,1.5-3,3-4.6,4.5c-0.3,0.3-0.5,0.5-0.8,0.8c-1.5,1.5-2.9,3-4.4,4.5
					c-0.3,0.3-0.6,0.6-0.9,0.9c-1.4,1.5-2.9,2.9-4.3,4.4c-0.3,0.3-0.7,0.7-1,1c-1.4,1.5-2.8,2.9-4.2,4.4c-0.4,0.4-0.7,0.8-1.1,1.1
					c-1.3,1.4-2.7,2.9-4,4.3c-0.4,0.4-0.8,0.9-1.2,1.3c-1.3,1.4-2.6,2.8-3.8,4.2c-0.4,0.5-0.8,0.9-1.2,1.4c-1.2,1.4-2.5,2.8-3.7,4.1
					c-0.4,0.5-0.9,1-1.3,1.5c-1.2,1.3-2.4,2.7-3.6,4c-0.5,0.5-0.9,1-1.4,1.6c-1.1,1.3-2.3,2.6-3.4,3.9c-0.5,0.6-0.9,1.1-1.4,1.7
					c-1.1,1.2-2.1,2.5-3.2,3.7c-0.5,0.6-1,1.2-1.5,1.8c-0.9,1.1-1.8,2.1-2.6,3.1c-0.6,0.8-1.3,1.5-1.9,2.3c-0.7,0.9-1.5,1.8-2.2,2.7
					c-0.7,0.9-1.5,1.8-2.2,2.7c-0.6,0.8-1.3,1.6-1.9,2.3c-0.4,0.5-0.8,1-1.1,1.4c-7,8.9-15.7,20-25.2,32.2c-0.3,0.4-0.6,0.8-0.9,1.2
					c-0.5,0.6-1,1.3-1.5,1.9c-0.6,0.8-1.2,1.6-1.8,2.4c-0.1,0.2-0.2,0.3-0.4,0.5c-39.7,51.5-89.8,118.3-89.8,118.3
					s14.2-50.8,27.5-99.9c0.4-1.4,0.7-2.8,1.1-4.2c0.6-2.2,1.2-4.4,1.8-6.6c0.3-1.1,0.6-2.1,0.8-3.1c1.4-5,2.7-10,4-14.8
					c0.3-1,0.5-2,0.8-2.9c0.3-1.1,0.6-2.3,0.9-3.4c9.1-34.2,32-95.8,41.5-133.9c3.9-15.5,5.5-27.1,3.1-31.4
					c-3.3-5.9-5.1-12.1-6.5-18.4c-0.4-2-0.8-4-1.2-6.1c-1.7-9.3-3.1-18.6-7.2-26.7c-0.6-1.2-1.3-2.4-1.9-3.5l0,0
					c-0.3-0.4-0.5-0.9-0.8-1.3c-0.1-0.1-0.2-0.3-0.3-0.4c-0.2-0.4-0.5-0.7-0.7-1c-0.1-0.2-0.3-0.4-0.4-0.5c-0.2-0.3-0.5-0.6-0.7-0.9
					c-0.2-0.2-0.3-0.4-0.5-0.6c-0.2-0.3-0.4-0.5-0.7-0.8c-0.2-0.2-0.4-0.4-0.6-0.6c-0.2-0.2-0.4-0.5-0.7-0.7
					c-0.2-0.2-0.4-0.4-0.6-0.6c-0.2-0.2-0.4-0.4-0.7-0.6c-0.2-0.2-0.4-0.4-0.7-0.6c-0.2-0.2-0.4-0.3-0.7-0.5
					c-0.2-0.2-0.5-0.3-0.7-0.5s-0.5-0.3-0.7-0.4c-0.3-0.2-0.5-0.3-0.8-0.5c-0.2-0.1-0.5-0.3-0.7-0.4c-0.3-0.1-0.5-0.3-0.8-0.4
					c-0.2-0.1-0.5-0.2-0.7-0.3c-0.3-0.1-0.6-0.2-0.8-0.3s-0.5-0.2-0.7-0.3c-0.3-0.1-0.6-0.2-0.9-0.3c-0.3-0.1-0.5-0.1-0.8-0.2
					c-0.3-0.1-0.6-0.1-0.9-0.2c-0.3,0-0.5-0.1-0.8-0.1s-0.6-0.1-1-0.1c-0.3,0-0.5-0.1-0.8-0.1s-0.7,0-1,0s-0.5,0-0.8,0
					c-0.2,0-0.4,0-0.6,0c-0.4,0-0.8,0-1.2,0.1c-0.2,0-0.5,0-0.7,0.1c-0.4,0-0.8,0.1-1.2,0.1c-0.2,0-0.5,0.1-0.7,0.1
					c-0.4,0.1-0.8,0.1-1.2,0.2c-0.2,0.1-0.5,0.1-0.7,0.2c-0.4,0.1-0.8,0.2-1.3,0.3c-0.3,0.1-0.5,0.1-0.8,0.2
					c-0.4,0.1-0.9,0.3-1.3,0.4c-0.3,0.1-0.5,0.2-0.8,0.3c-0.5,0.2-0.9,0.3-1.4,0.5c-0.3,0.1-0.5,0.2-0.8,0.3c-0.5,0.2-1,0.4-1.4,0.6
					c-0.3,0.1-0.5,0.2-0.8,0.3c-0.5,0.2-1,0.5-1.5,0.7c-0.2,0.1-0.5,0.2-0.7,0.4c-0.5,0.3-1.1,0.6-1.6,0.8c-0.2,0.1-0.5,0.3-0.7,0.4
					c-0.6,0.3-1.2,0.7-1.8,1c-0.2,0.1-0.4,0.2-0.7,0.4c-0.6,0.4-1.3,0.8-1.9,1.2c-0.2,0.1-0.4,0.2-0.5,0.3c-0.7,0.5-1.5,1-2.2,1.5
					c-0.1,0.1-0.2,0.2-0.3,0.2c-2.6,1.8-5.4,3.9-8.3,6.2c-43.1,34.5-141.9,153.4-235.9,273.5l0,0c-98.2,125.5-191,252.3-209.2,285
					c-19.3,34.8-43.7,15.3-43.5,66.5c0.1,13.2,11.1,23.1,23.9,23.1c1.3,0,2.6-0.1,4-0.3c12-2,23.3-4.5,35.4-7.6
					c5.7-1.5,10.6-5,13.8-10c57-89.2,160-252.7,279-403.4c0.2-0.2,0.3-0.4,0.5-0.6c5.2-6.6,10.4-13.1,15.7-19.6
					c0.1-0.2,0.3-0.4,0.4-0.6c10.8-13.3,21.6-26.5,32.6-39.5c0.1-0.1,0.1-0.1,0.2-0.2c5.4-6.4,10.7-12.7,16.1-18.9
					c0.3-0.3,0.5-0.6,0.8-0.9c5.3-6.2,10.7-12.3,16.1-18.3c0.2-0.2,0.3-0.4,0.5-0.6c5.5-6.2,11.1-12.4,16.7-18.5l0,0l0,0
					c-0.4,1.1-0.8,2.3-1.2,3.4c-0.7,1.9-1.4,3.8-2.1,5.7c-0.5,1.5-1.1,3.1-1.6,4.6c-0.6,1.6-1.2,3.3-1.7,4.9
					c-0.6,1.6-1.1,3.3-1.7,4.9c-0.5,1.6-1.1,3.2-1.6,4.8c-0.6,1.7-1.1,3.4-1.7,5.1c-0.5,1.6-1,3.2-1.6,4.8c-0.6,1.8-1.2,3.5-1.7,5.3
					c-0.5,1.5-1,3-1.4,4.5c-2.3,7.3-4.6,14.7-6.8,22.3c-0.3,1-0.6,2-0.9,3c-0.7,2.4-1.4,4.8-2.1,7.2c-0.3,1-0.6,2-0.9,3.1
					c-0.7,2.5-1.4,5-2.1,7.5c-0.2,0.9-0.5,1.7-0.7,2.6c-0.8,2.7-1.5,5.4-2.3,8.2c-0.1,0.3-0.2,0.6-0.3,1c-4.5,16.2-8.8,32.6-13,49
					l0,0c-2.5,9.7-4.9,19.3-7.3,28.8c-10.3,41.4-19.7,96.7-24.7,128.6c-3.3,20.8,5.1,42.2,22.8,53.6c5.3,3.4,11.1,5.7,16.9,5.7
					c1.6,0,3.2-0.2,4.9-0.6c46.3-11,88.1-70.5,158.6-171.9c16.4-23.6,32.2-44.9,46.5-63.5c0.2-0.3,0.5-0.6,0.7-0.9
					c1.1-1.5,2.3-2.9,3.4-4.3c0.2-0.2,0.3-0.4,0.5-0.6c3.5-4.5,6.8-8.8,10.1-12.9c0.2-0.3,0.4-0.5,0.6-0.8c1-1.3,2.1-2.6,3.1-3.8
					c0.2-0.2,0.4-0.5,0.6-0.7c3.1-3.9,6.1-7.5,8.9-11c0.3-0.3,0.5-0.7,0.8-1c0.8-1,1.7-2,2.5-3c0.3-0.4,0.7-0.8,1-1.2
					c2.4-2.9,4.8-5.8,7-8.4c0.5-0.6,1-1.2,1.5-1.7c0.5-0.6,1.1-1.3,1.6-1.9c0.6-0.7,1.2-1.4,1.8-2.1c0.4-0.5,0.8-0.9,1.2-1.4
					c1-1.1,1.9-2.2,2.8-3.3c0.2-0.2,0.3-0.4,0.5-0.6c0.8-1,1.6-1.9,2.4-2.8c0.2-0.2,0.3-0.4,0.5-0.5c10.5-12.2,16.7-18.8,16.7-18.8
					l0,0l0,0c0,0-7.2,23-19.4,57.5c-0.1,0.3-0.2,0.7-0.4,1c-0.3,0.8-0.6,1.7-0.9,2.6c-0.2,0.5-0.3,0.9-0.5,1.4
					c-0.3,0.9-0.6,1.7-0.9,2.6c-0.3,0.7-0.5,1.5-0.8,2.2c-0.3,0.8-0.6,1.6-0.9,2.4c-0.3,0.8-0.6,1.6-0.9,2.4
					c-0.2,0.4-0.3,0.8-0.5,1.3c-0.3,0.9-0.6,1.8-1,2.7c-0.1,0.3-0.2,0.5-0.3,0.8c-0.8,2.2-1.6,4.5-2.5,6.8l0,0
					c-9.9,27-21.9,58.1-35.3,89.6c-37.5,88.1-42.7,126.8-22.3,154.5c8.7,11.7,17.4,14.9,25.9,14.9c10.1,0,19.9-4.5,28.5-4.5
					c3.5,0,6.9,0.7,10,2.8c1.3,0.9,3.1,1.3,5.2,1.3c28.5,0,121.4-76.1,90.1-104.2c-3.1-2.8-5.9-3.9-8.4-3.9
					c-13,0-21.4,29.1-44.1,29.1c-1.1,0-2.1-0.1-3.2-0.2c-15.7-1.8-4.6-42.1,9.6-81.4C2359.1,1148.5,2372.6,1107.6,2384.6,1066.2z"/>
				<path d="M1628.7,1558c0.5-0.1,1.1-0.2,1.6-0.4c4.7-1.1,9.5-2.2,14.2-3.2c0.8-0.2,1.6-0.4,2.4-0.6c4.5-1,9-2.1,13.5-3.1
					c0.9-0.2,1.8-0.4,2.7-0.6c4.4-1,8.9-2,13.3-3c0.8-0.2,1.7-0.4,2.5-0.6c4.5-1,9-2,13.4-3c0.9-0.2,1.9-0.4,2.8-0.6
					c4.4-1,8.9-2,13.3-3c0.9-0.2,1.8-0.4,2.7-0.6c4.7-1.1,9.3-2.1,14-3.2c0.5-0.1,0.9-0.2,1.4-0.3c5-1.1,9.9-2.2,14.9-3.3
					c0.4-0.1,0.8-0.2,1.2-0.3c5.1-1.2,10.3-2.3,15.4-3.5c0.2,0,0.3-0.1,0.5-0.1c273.4-61.2,544.4-117.8,679.3-147.9
					c-7.7-12.8-12.9-27.2-14.9-42.5c-4.4-33.4,6-66.9,28.5-92c13.5-15.1,30.5-31.5,50.2-50.4c31.1-30,71.7-69,121.2-125
					c-0.1,0-0.2,0-0.3,0c-24.5,1.4-48.4,2.8-71.8,4.2l0,0c-48.4,2.8-94.4,5.6-138.2,8.2c-0.7,2.5-1.5,5-2.2,7.4
					c-5.4,18.3-33.7,101.4-40.3,120.8c3.6-1.1,7.6-1.8,11.9-1.8c7.4,0,18.5,2.1,29.6,12c16.7,15,21.4,37.9,12.4,61.3
					c-10.7,28-38.1,52.7-53.5,65c-15.6,12.5-45.5,33.3-70.2,33.3c-6.2,0-12.2-1.3-17.5-3.7c-1.2,0.3-2.5,0.6-3.6,0.8
					c-6.1,1.5-13.7,3.3-22.7,3.3c-14.1,0-34.5-4.8-51.5-27.9c-29.1-39.5-20.5-88.4,8.7-161.6c-65.4,93.7-107.9,150.2-162.5,163.2
					c-4,0.9-8.1,1.4-12.2,1.4c-11.5,0-22.9-3.6-34-10.7c-27.9-17.8-42.4-51.3-37.1-85.3c4.8-30.5,14.5-88.2,25.3-131.3
					c1.5-6.1,3.1-12.3,4.7-18.6c-0.3,0-0.7,0.1-1,0.1c-2.8,0.2-5.6,0.4-8.3,0.6c-105.7,136-197.6,280.2-253.6,367.9
					c-3.4,5.3-6.6,10.4-9.7,15.3c-7.5,11.8-19.1,20.2-32.6,23.7c-14.5,3.8-26.3,6.3-38.2,8.3c-3,0.5-6.1,0.7-9.1,0.7
					c-30.5,0-55.5-24.6-55.7-54.8c-0.1-20.1,3.1-34.9,10-46.7c7.6-12.8,18-19.2,24.9-23.4c6.1-3.7,8.9-5.4,12.6-12
					c18.1-32.6,101.9-147.4,193.7-265.7c-0.1,0-0.3,0-0.4,0c-101.5,9.3-190,19.2-278.7,30.6c0.3,19.3,0.8,37.5,1.6,53.9
					c12.8,4.7,24.3,11.3,33.9,19.5c17.4,14.8,27.5,34.1,28.5,54.4c1.2,25.7-7.7,47.5-25.9,63.1c-8.7,7.5-18.4,12.7-27.6,16.7
					c4.3,78.8,12.3,140.4,33.7,202.3c5.5-1.3,11.1-2.6,16.7-3.8c0.1,0,0.2,0,0.3-0.1C1618.4,1560.4,1623.5,1559.2,1628.7,1558z"/>
				<path d="M2840.5,717.7c-0.5-0.5-1-1-1.5-1.4c-0.8-0.8-1.7-1.5-2.5-2.2c-0.5-0.5-1-0.9-1.6-1.4c-0.9-0.7-1.8-1.4-2.6-2.1
					c-0.6-0.4-1.1-0.9-1.7-1.3c-0.9-0.7-1.8-1.3-2.8-2c-0.6-0.4-1.2-0.8-1.8-1.3c-0.9-0.6-1.9-1.3-2.9-1.9c-0.6-0.4-1.2-0.8-1.9-1.2
					c-1-0.6-2-1.2-3-1.8c-0.7-0.4-1.3-0.8-2-1.1c-1-0.6-2.1-1.1-3.1-1.6c-0.7-0.4-1.4-0.7-2.1-1.1c-1.1-0.5-2.1-1-3.2-1.5
					c-0.8-0.3-1.5-0.7-2.3-1c-1.1-0.5-2.2-0.9-3.3-1.4c-0.8-0.3-1.6-0.7-2.4-1c-1.1-0.4-2.2-0.8-3.4-1.2c-0.9-0.3-1.7-0.6-2.6-0.9
					c-1.1-0.4-2.3-0.7-3.4-1.1c-0.9-0.3-1.8-0.6-2.8-0.8c-1.1-0.3-2.3-0.6-3.5-0.9c-1-0.3-2-0.5-2.9-0.8c-1.2-0.3-2.3-0.5-3.5-0.8
					c-1-0.2-2.1-0.5-3.1-0.7c-1.2-0.2-2.4-0.5-3.5-0.7s-2.2-0.4-3.3-0.6c-1.2-0.2-2.4-0.4-3.6-0.5c-1.2-0.2-2.4-0.3-3.6-0.5
					c-1.2-0.1-2.4-0.3-3.6-0.4c-1.3-0.1-2.5-0.3-3.8-0.4c-1.2-0.1-2.4-0.2-3.6-0.3c-1.3-0.1-2.7-0.2-4-0.3c-1.2-0.1-2.4-0.1-3.6-0.2
					c-1.4-0.1-2.8-0.1-4.3-0.1c-1.2,0-2.4,0-3.5-0.1c-2,0-4,0-6.1,0c-2.2,0-4.4,0.1-6.5,0.2c-0.5,0-1,0-1.5,0.1
					c-1.7,0.1-3.3,0.2-5,0.3c-0.6,0-1.1,0.1-1.7,0.1c-1.7,0.1-3.4,0.3-5,0.4c-0.4,0-0.8,0.1-1.2,0.1c-2.1,0.2-4.2,0.4-6.2,0.7
					c-0.1,0-0.2,0-0.3,0c-1.9,0.2-3.8,0.5-5.7,0.8c-0.5,0.1-1,0.2-1.5,0.2c-1.5,0.2-3,0.5-4.4,0.7c-0.5,0.1-1.1,0.2-1.6,0.3
					c-1.6,0.3-3.3,0.6-4.9,0.9c-0.3,0.1-0.6,0.1-0.8,0.2c-1.9,0.4-3.8,0.8-5.7,1.3c-0.3,0.1-0.5,0.1-0.8,0.2
					c-1.6,0.4-3.1,0.8-4.6,1.2c-0.5,0.1-1,0.3-1.5,0.4c-1.4,0.4-2.7,0.7-4.1,1.1c-0.5,0.1-0.9,0.3-1.4,0.4c-1.7,0.5-3.3,1-5,1.5
					c-0.1,0-0.1,0-0.2,0.1c-1.8,0.6-3.5,1.2-5.2,1.8c-0.3,0.1-0.6,0.2-1,0.3c-1.4,0.5-2.7,1-4.1,1.5c-0.4,0.2-0.9,0.3-1.3,0.5
					c-1.3,0.5-2.6,1-3.9,1.5c-0.3,0.1-0.7,0.3-1,0.4c-3.2,1.4-6.4,2.8-9.5,4.2c-0.3,0.1-0.6,0.3-0.9,0.4c-1.2,0.6-2.5,1.2-3.7,1.8
					c-0.3,0.2-0.7,0.3-1,0.5c-1.3,0.7-2.6,1.3-3.8,2c-0.2,0.1-0.4,0.2-0.6,0.3c-3,1.6-5.9,3.3-8.7,5c-0.2,0.1-0.5,0.3-0.7,0.4
					c-1.2,0.7-2.3,1.5-3.5,2.2c-0.2,0.2-0.5,0.3-0.7,0.5c-4.1,2.7-8.1,5.4-11.8,8.3c-0.2,0.1-0.3,0.2-0.5,0.4
					c-1.1,0.9-2.3,1.7-3.4,2.6c-0.1,0.1-0.2,0.2-0.3,0.3c-3.7,2.9-7.3,5.9-10.7,9c-0.1,0.1-0.1,0.1-0.2,0.2
					c-4.5,4.1-8.8,8.3-12.7,12.5c-18.4,19.7-30.3,39.8-36.5,54.5c-6.7,15.8-17.7,30.5-29,44l0,0c0,0,0,0,0,0.1
					c-6.4,7.6-12.9,14.7-18.8,21.4c-0.6,0.7-1.3,1.4-1.9,2.1c-0.4,0.4-0.8,0.9-1.1,1.3c-0.7,0.8-1.3,1.5-2,2.3
					c-0.3,0.4-0.7,0.8-1,1.1c-0.8,0.9-1.6,1.8-2.3,2.8c-0.2,0.2-0.3,0.4-0.5,0.6c-0.9,1.1-1.8,2.2-2.6,3.3c-0.2,0.2-0.3,0.4-0.5,0.6
					c-0.7,0.9-1.3,1.7-1.9,2.5c-0.2,0.3-0.4,0.6-0.6,0.9c-0.6,0.8-1.1,1.5-1.6,2.3c-0.2,0.3-0.4,0.5-0.6,0.8c-0.6,1-1.2,1.9-1.8,2.8
					l-0.1,0.1c-0.6,1-1.1,1.9-1.6,2.9c-0.1,0.2-0.2,0.4-0.3,0.7c-0.4,0.7-0.7,1.4-1,2.1c-0.1,0.3-0.2,0.6-0.3,0.8
					c-0.3,0.7-0.5,1.3-0.7,1.9c-0.1,0.3-0.2,0.5-0.2,0.8c-0.2,0.9-0.4,1.7-0.6,2.6c-0.1,0.7-0.2,1.4-0.2,2.1c0,0.2,0,0.4,0,0.6
					c0,0.5,0,1,0,1.5c0,0.2,0,0.5,0,0.7c0,0.5,0,0.9,0.1,1.4c0,0.2,0,0.5,0.1,0.7c0.1,0.5,0.1,1,0.2,1.6c0,0.2,0,0.3,0.1,0.5
					c0.1,0.7,0.3,1.4,0.4,2c0,0.1,0.1,0.3,0.1,0.4c0.1,0.5,0.3,1.1,0.4,1.6c0.1,0.2,0.1,0.4,0.2,0.7c0.1,0.4,0.3,0.9,0.5,1.3
					c0.1,0.2,0.2,0.5,0.3,0.7c0.2,0.4,0.4,0.9,0.6,1.3c0.1,0.2,0.2,0.4,0.3,0.6c0.3,0.6,0.6,1.1,0.9,1.7c0,0.1,0.1,0.1,0.1,0.2
					c0.3,0.6,0.7,1.2,1.1,1.8c0.1,0.2,0.2,0.3,0.3,0.5c0.3,0.4,0.6,0.8,0.9,1.2c0.1,0.2,0.3,0.4,0.4,0.6c0.3,0.4,0.6,0.7,0.9,1.1
					c0.2,0.2,0.3,0.4,0.5,0.6c0.3,0.4,0.7,0.8,1,1.2c0.1,0.1,0.3,0.3,0.4,0.4c0.5,0.5,1,1,1.5,1.5c0.1,0.1,0.2,0.2,0.3,0.2
					c0.4,0.4,0.9,0.8,1.4,1.2c0.2,0.2,0.4,0.3,0.6,0.5c0.4,0.3,0.8,0.6,1.2,0.9c0.2,0.2,0.4,0.3,0.6,0.5c0.4,0.3,0.8,0.6,1.2,0.8
					c0.2,0.1,0.4,0.3,0.6,0.4c0.5,0.3,1,0.6,1.5,0.9c0.1,0.1,0.3,0.2,0.4,0.2c0.6,0.4,1.3,0.7,1.9,1c0.2,0.1,0.4,0.2,0.6,0.3
					c0.5,0.2,0.9,0.4,1.4,0.6c0.3,0.1,0.5,0.2,0.8,0.3c0.4,0.2,0.9,0.3,1.3,0.5c0.3,0.1,0.5,0.2,0.8,0.3c0.5,0.2,0.9,0.3,1.4,0.4
					c0.2,0.1,0.5,0.1,0.7,0.2c0.7,0.2,1.4,0.4,2.2,0.5c0.1,0,0.2,0,0.4,0.1c0.6,0.1,1.2,0.2,1.9,0.3c0.3,0,0.6,0.1,0.8,0.1
					c0.5,0.1,1,0.1,1.4,0.2c0.3,0,0.6,0.1,0.9,0.1c0.5,0,1,0.1,1.4,0.1c0.3,0,0.6,0,0.9,0c0.3,0,0.5,0,0.8,0c0.9,0,1.8-0.1,2.7-0.1
					c0.3,0,0.5,0,0.8-0.1c1.1-0.1,2.2-0.3,3.3-0.5c0.2,0,0.3-0.1,0.5-0.1c1-0.2,1.9-0.4,2.9-0.7c0.3-0.1,0.6-0.2,0.9-0.3
					c1.1-0.3,2.2-0.7,3.4-1.2c0.7-0.3,1.4-0.6,2.1-1c0.2-0.1,0.4-0.3,0.7-0.4c0.5-0.3,1.1-0.7,1.6-1c0.2-0.2,0.5-0.3,0.7-0.5
					c0.7-0.5,1.4-1.1,2.2-1.6c0.3-0.3,0.6-0.5,1-0.8c0.5-0.4,0.9-0.8,1.4-1.2c0.4-0.4,0.8-0.7,1.3-1.1c0.4-0.3,0.8-0.7,1.1-1.1
					c1.2-1.1,2.3-2.2,3.6-3.5l0,0c20.2-20.3,49.1-59.4,88.6-81.6c0.2-0.1,0.3-0.2,0.5-0.3c1.6-0.9,3.3-1.8,5-2.6
					c0.3-0.2,0.7-0.3,1-0.5c1.5-0.8,3.1-1.5,4.7-2.2c0.5-0.2,1-0.5,1.6-0.7c1.4-0.6,2.9-1.2,4.3-1.8c0.7-0.3,1.4-0.5,2.1-0.8
					c1.3-0.5,2.6-1,4-1.4c0.9-0.3,1.9-0.6,2.8-0.9c1.2-0.4,2.4-0.7,3.5-1.1c1.2-0.3,2.4-0.6,3.6-0.9c1-0.2,1.9-0.5,2.9-0.7
					c2-0.4,3.9-0.8,5.9-1.1c0.3,0,0.5-0.1,0.8-0.1c3.5-0.5,6.8-0.9,10.1-1.2c0.2,0,0.4,0,0.6-0.1c1.4-0.1,2.7-0.2,4-0.2
					c0.4,0,0.7-0.1,1.1-0.1c1.2-0.1,2.4-0.1,3.6-0.1c0.4,0,0.9,0,1.3,0c0.1,0,0.1,0,0.2,0c3.1,0,6,0.1,8.9,0.4
					c0.2,0,0.5,0.1,0.7,0.1c1.2,0.1,2.4,0.2,3.5,0.4c0.4,0,0.7,0.1,1.1,0.2c1,0.1,2,0.3,2.9,0.5c0.4,0.1,0.8,0.2,1.3,0.2
					c0.9,0.2,1.8,0.4,2.6,0.6c0.4,0.1,0.9,0.2,1.3,0.3c0.8,0.2,1.6,0.4,2.5,0.7c0.4,0.1,0.9,0.3,1.3,0.4c0.8,0.2,1.6,0.5,2.3,0.8
					c0.4,0.1,0.8,0.3,1.2,0.5c0.7,0.3,1.5,0.6,2.2,0.9c0.4,0.2,0.8,0.3,1.2,0.5c0.7,0.3,1.4,0.6,2.1,1c0.4,0.2,0.7,0.4,1.1,0.6
					c0.7,0.4,1.4,0.7,2,1.1c0.3,0.2,0.7,0.4,1,0.6c0.7,0.4,1.3,0.8,2,1.2c0.3,0.2,0.6,0.4,0.9,0.6c0.7,0.5,1.3,0.9,1.9,1.4
					c0.3,0.2,0.5,0.4,0.8,0.6c0.7,0.5,1.3,1.1,2,1.6c0.2,0.2,0.4,0.3,0.6,0.5c0.7,0.6,1.4,1.3,2.1,2c0.1,0.1,0.2,0.2,0.3,0.3
					c2.4,2.4,4.5,5,6.4,7.8l0,0c0.6,0.9,1.2,1.8,1.7,2.8c0.1,0.2,0.2,0.3,0.3,0.5c0.5,0.8,0.9,1.6,1.4,2.5c0.1,0.2,0.2,0.5,0.3,0.7
					c0.4,0.8,0.8,1.6,1.1,2.4c0.1,0.3,0.2,0.6,0.4,0.8c0.3,0.8,0.7,1.6,1,2.4c0.1,0.3,0.2,0.6,0.3,0.9c0.3,0.8,0.6,1.6,0.8,2.4
					c0.1,0.3,0.2,0.7,0.3,1c0.2,0.8,0.5,1.6,0.7,2.4c0.1,0.3,0.2,0.7,0.3,1c0.2,0.8,0.4,1.7,0.6,2.5c0.1,0.3,0.2,0.7,0.2,1
					c0.2,0.9,0.3,1.7,0.5,2.6c0.1,0.3,0.1,0.7,0.2,1c0.1,0.9,0.3,1.8,0.4,2.8c0,0.3,0.1,0.7,0.1,1c0.1,1,0.2,2,0.3,3
					c0,0.3,0.1,0.6,0.1,0.9c0.1,1.1,0.1,2.2,0.2,3.3c0,0.2,0,0.4,0,0.6c0.1,1.3,0.1,2.6,0.1,3.9v0.1c0,4.1-0.2,8.4-0.6,12.8
					c0,0.1,0,0.2,0,0.3c-0.1,1.3-0.3,2.6-0.5,4c0,0.3-0.1,0.6-0.1,0.9c-0.2,1.2-0.3,2.3-0.5,3.5c-0.1,0.4-0.1,0.8-0.2,1.2
					c-0.2,1.1-0.4,2.2-0.6,3.3c-0.1,0.5-0.2,0.9-0.3,1.4c-0.2,1-0.4,2.1-0.6,3.2c-0.1,0.5-0.2,1-0.3,1.5c-0.2,1-0.5,2.1-0.7,3.1
					c-0.1,0.5-0.3,1.1-0.4,1.6c-0.3,1-0.5,2.1-0.8,3.1c-0.1,0.5-0.3,1.1-0.4,1.6c-0.3,1-0.6,2.1-0.9,3.1c-0.2,0.6-0.3,1.1-0.5,1.7
					c-0.3,1-0.6,2.1-1,3.1c-0.2,0.6-0.4,1.1-0.5,1.7c-0.3,1.1-0.7,2.1-1.1,3.2c-0.2,0.6-0.4,1.1-0.6,1.7c-0.4,1.1-0.8,2.2-1.2,3.3
					c-0.2,0.5-0.4,1.1-0.6,1.6c-0.4,1.2-0.9,2.3-1.4,3.5c-0.2,0.5-0.4,0.9-0.5,1.4c-0.5,1.3-1.1,2.7-1.7,4c-0.1,0.3-0.2,0.6-0.4,0.9
					c-1.4,3.3-2.9,6.7-4.6,10.1c-0.1,0.2-0.2,0.5-0.3,0.7c-0.7,1.4-1.4,2.9-2.1,4.3c-0.2,0.5-0.5,1-0.8,1.5
					c-0.6,1.2-1.2,2.4-1.8,3.6c-0.3,0.6-0.6,1.2-0.9,1.8c-0.6,1.1-1.2,2.2-1.8,3.3c-0.4,0.7-0.7,1.3-1.1,2c-0.6,1-1.2,2.1-1.7,3.1
					c-0.4,0.7-0.8,1.4-1.2,2c-0.6,1-1.2,2-1.8,3c-0.4,0.7-0.8,1.4-1.3,2.1c-0.6,1-1.2,2-1.8,3c-0.4,0.7-0.9,1.4-1.3,2.1
					c-0.6,1-1.3,2-1.9,3c-0.5,0.7-0.9,1.4-1.4,2.1c-0.7,1-1.3,2-2,3c-0.5,0.7-0.9,1.4-1.4,2.1c-0.7,1-1.4,2-2.1,3
					c-0.5,0.7-1,1.4-1.4,2.1c-0.7,1-1.5,2-2.2,3.1c-0.5,0.7-1,1.3-1.4,2c-0.8,1.1-1.6,2.1-2.4,3.2c-0.5,0.6-0.9,1.2-1.4,1.9
					c-0.9,1.1-1.7,2.3-2.6,3.4c-0.4,0.5-0.8,1.1-1.2,1.6c-1,1.3-2.1,2.7-3.2,4c-0.3,0.3-0.5,0.7-0.8,1c-1.4,1.7-2.8,3.4-4.2,5.1
					c-100.2,119.5-168.6,173.7-206.6,216.2c-27.2,30.4-28.4,76.3-3.9,105.9c1.1,1.3,2.2,2.5,3.3,3.7c0.3,0.3,0.7,0.7,1,1
					c0.8,0.9,1.7,1.7,2.6,2.5c0.4,0.4,0.8,0.7,1.2,1.1c0.9,0.8,1.8,1.6,2.8,2.3c0.4,0.3,0.8,0.6,1.2,0.9c1.4,1,2.8,2,4.2,3
					c4.5,3,9.2,5.4,14,7.1c0.5,0.2,1.1,0.4,1.7,0.5c0.2,0,0.4,0.1,0.6,0.1c0.4,0.1,0.9,0.2,1.3,0.2c0.2,0,0.5,0.1,0.8,0.1
					c0.4,0,0.9,0.1,1.4,0.1c0.3,0,0.6,0,0.8,0c0.5,0,1,0,1.5,0c0.3,0,0.7,0,1,0c0.5,0,1.1,0,1.6-0.1c0.3,0,0.7-0.1,1-0.1
					c0.6-0.1,1.2-0.1,1.8-0.2c0.3,0,0.6-0.1,1-0.1c0.7-0.1,1.4-0.2,2.1-0.3c0.3,0,0.6-0.1,0.9-0.2c0.8-0.1,1.6-0.3,2.4-0.4
					c0.3-0.1,0.5-0.1,0.8-0.2c0.9-0.2,1.8-0.4,2.7-0.6c0.2-0.1,0.4-0.1,0.7-0.2c1-0.2,2-0.5,3.1-0.8c0.2,0,0.3-0.1,0.5-0.1
					c1.2-0.3,2.3-0.6,3.6-1c0.1,0,0.1,0,0.2-0.1c6.6-1.8,13.9-4.3,22-7.2l0,0c79.5-28.7,227.4-105.9,372.9-164.9
					c175.2-71.1,414.4-165.1,449.5-180.1c1.5-0.7,3-1.3,4.5-2c0.1-0.1,0.2-0.1,0.3-0.2c1-0.5,2-0.9,3-1.4c0.6-0.3,1.2-0.6,1.8-0.8
					c0.9-0.4,1.7-0.8,2.5-1.2c0.7-0.3,1.4-0.7,2-1c0.8-0.4,1.5-0.8,2.2-1.1c0.7-0.4,1.4-0.7,2-1.1c0.7-0.4,1.3-0.7,2-1.1
					s1.3-0.7,2-1.1c0.6-0.3,1.2-0.7,1.8-1c0.6-0.4,1.3-0.8,1.9-1.1c0.5-0.3,1.1-0.6,1.6-1c0.6-0.4,1.2-0.8,1.8-1.2
					c0.5-0.3,0.9-0.6,1.4-0.9c0.6-0.4,1.2-0.8,1.7-1.2c0.4-0.3,0.8-0.5,1.1-0.8c0.6-0.5,1.2-0.9,1.8-1.4c0.3-0.2,0.5-0.4,0.8-0.6
					c0.8-0.7,1.6-1.3,2.3-1.9c0.1-0.1,0.1-0.1,0.2-0.2c0.6-0.6,1.2-1.1,1.7-1.7c0.2-0.2,0.4-0.4,0.5-0.6c0.4-0.4,0.7-0.8,1.1-1.2
					c0.2-0.2,0.3-0.5,0.5-0.7c0.3-0.4,0.5-0.7,0.8-1.1c0.2-0.2,0.3-0.5,0.4-0.7c0.2-0.3,0.4-0.7,0.5-1c0.1-0.2,0.2-0.5,0.3-0.7
					c0.1-0.3,0.2-0.6,0.3-0.9c0.1-0.2,0.1-0.4,0.2-0.7c0.1-0.3,0.1-0.6,0.1-0.9c0-0.2,0-0.4,0-0.6c0-0.3-0.1-0.6-0.1-0.9
					c0-0.2-0.1-0.4-0.1-0.6c-0.1-0.3-0.2-0.6-0.3-0.8s-0.1-0.3-0.2-0.5c-0.2-0.3-0.4-0.6-0.6-0.9c-0.1-0.1-0.2-0.3-0.3-0.4
					c-0.4-0.4-0.8-0.8-1.3-1.2c-0.1-0.1-0.3-0.2-0.4-0.3c-0.4-0.3-0.8-0.6-1.3-0.8c-0.2-0.1-0.5-0.2-0.8-0.4
					c-0.4-0.2-0.8-0.4-1.3-0.6c-0.3-0.1-0.7-0.2-1-0.4c-0.5-0.2-0.9-0.3-1.4-0.5c-0.4-0.1-0.8-0.2-1.2-0.3c-0.5-0.1-1-0.3-1.6-0.4
					c-0.4-0.1-0.9-0.2-1.4-0.3c-0.6-0.1-1.2-0.2-1.8-0.3c-0.5-0.1-1-0.2-1.6-0.3s-1.3-0.2-2-0.3c-0.6-0.1-1.1-0.1-1.8-0.2
					c-0.7-0.1-1.4-0.1-2.2-0.2c-0.6-0.1-1.3-0.1-1.9-0.1c-0.8,0-1.6-0.1-2.5-0.1c-0.7,0-1.3-0.1-2-0.1c-0.9,0-1.9,0-2.8,0
					c-0.7,0-1.4,0-2.1,0c-1.5,0-3.1,0-4.7,0.1c-0.6,0-1.3,0-1.9,0.1c-1.1,0-2.3,0.1-3.5,0.1c-0.7,0-1.4,0.1-2.1,0.1
					c-1.5,0.1-3,0.2-4.5,0.3c-0.4,0-0.7,0-1.1,0.1c-11.2,0.8-63.7,10.1-131.3,24.7c-0.3,0.1-0.5,0.1-0.8,0.2
					c-1.8,0.4-3.6,0.8-5.5,1.2c-0.4,0.1-0.8,0.2-1.2,0.3c-1.8,0.4-3.6,0.8-5.3,1.2c-0.4,0.1-0.7,0.2-1.1,0.2
					c-2.1,0.5-4.2,0.9-6.3,1.4c-0.1,0-0.1,0-0.2,0c-2.1,0.5-4.3,1-6.4,1.4c-0.6,0.1-1.2,0.3-1.9,0.4c-1.5,0.3-3,0.7-4.5,1
					c-0.8,0.2-1.6,0.4-2.4,0.5c-1.3,0.3-2.7,0.6-4,0.9c-0.9,0.2-1.9,0.4-2.8,0.6c-1.2,0.3-2.4,0.6-3.7,0.8c-1,0.2-2,0.5-3,0.7
					c-1.1,0.3-2.3,0.5-3.4,0.8c-2.1,0.5-4.2,1-6.3,1.5c-0.9,0.2-1.9,0.4-2.8,0.7c-1.3,0.3-2.6,0.6-3.9,0.9c-0.9,0.2-1.7,0.4-2.6,0.6
					c-1.4,0.3-2.7,0.6-4.1,1c-0.8,0.2-1.6,0.4-2.4,0.6c-1.4,0.3-2.9,0.7-4.3,1c-0.6,0.2-1.3,0.3-1.9,0.5c-1.6,0.4-3.2,0.8-4.8,1.2
					c-0.1,0-0.2,0-0.2,0.1c-5.8,1.4-11.5,2.8-17.3,4.3c-0.3,0.1-0.6,0.2-1,0.2c-1.7,0.4-3.5,0.9-5.2,1.3c-0.4,0.1-0.8,0.2-1.2,0.3
					c-1.8,0.5-3.6,0.9-5.3,1.4c-0.2,0-0.4,0.1-0.6,0.1c-10,2.6-20.1,5.2-30.1,7.9c-0.1,0-0.1,0-0.2,0c-4,1.1-8.1,2.2-12.1,3.3l0,0
					c-26.5,7.2-52.5,14.8-76.9,22.7c-163.7,52.7-380.1,145.4-380.1,145.4s104.1-103.4,143.8-162c11.3-16.6,21.9-32.1,31.7-46.9
					c0.1-0.2,0.2-0.3,0.3-0.5c1.7-2.5,3.3-4.9,4.9-7.4c0.4-0.6,0.8-1.1,1.1-1.7c1.4-2.2,2.8-4.3,4.2-6.4c0.5-0.8,1-1.6,1.5-2.4
					c1.2-1.9,2.5-3.8,3.7-5.8c0.6-1,1.2-1.9,1.8-2.9c1.1-1.8,2.2-3.5,3.3-5.3c0.7-1.1,1.3-2.1,2-3.2c1-1.6,2-3.3,3-4.9
					c0.7-1.2,1.4-2.3,2.1-3.5c0.9-1.5,1.8-3,2.7-4.6c0.7-1.2,1.4-2.5,2.1-3.7c0.8-1.5,1.6-2.9,2.5-4.4c0.7-1.3,1.4-2.5,2.1-3.8
					c0.8-1.4,1.5-2.8,2.3-4.2c0.7-1.3,1.4-2.6,2.1-3.9c0.7-1.3,1.4-2.7,2.1-4c0.7-1.4,1.4-2.7,2.1-4.1c0.6-1.3,1.3-2.6,1.9-3.9
					c0.7-1.4,1.4-2.8,2-4.2c0.6-1.3,1.1-2.5,1.7-3.8c0.6-1.4,1.3-2.9,1.9-4.3c0.5-1.2,1-2.5,1.5-3.7c0.6-1.5,1.2-2.9,1.8-4.4
					c0.5-1.2,0.9-2.4,1.4-3.6c0.6-1.5,1.2-3,1.7-4.5c0.4-1.2,0.8-2.4,1.3-3.6c0.5-1.5,1.1-3.1,1.6-4.6c0.4-1.2,0.7-2.4,1.1-3.6
					c0.5-1.6,1-3.1,1.5-4.7c0.3-1.2,0.6-2.4,1-3.6c0.4-1.6,0.9-3.2,1.3-4.8c0.3-1.2,0.6-2.4,0.9-3.6c0.4-1.6,0.8-3.2,1.1-4.9
					c0.3-1.2,0.5-2.4,0.7-3.6c0.3-1.7,0.7-3.3,1-5c0.2-1.2,0.4-2.4,0.6-3.7c0.3-1.7,0.6-3.4,0.8-5.1c0.2-1.2,0.3-2.5,0.5-3.7
					c0.2-1.7,0.5-3.5,0.6-5.2c0.1-1.2,0.2-2.5,0.3-3.8c0.2-1.8,0.3-3.6,0.5-5.4c0.1-1.3,0.1-2.6,0.2-3.8c0.1-1.8,0.2-3.7,0.3-5.5
					c0-1.3,0-2.6,0.1-3.9c0-1.9,0.1-3.7,0.1-5.6c0-1.3-0.1-2.7-0.1-4.1c0-1.9,0-3.8-0.1-5.7c0-1.3-0.1-2.6-0.2-3.9
					c-0.1-2-0.2-4.1-0.3-6.1c-0.1-1-0.2-2.1-0.3-3.1c-0.4-5.8-1-11.7-1.8-17.8c-0.2-1.9-0.5-3.7-0.8-5.5c0-0.3-0.1-0.6-0.2-0.9
					c-0.3-1.5-0.6-3-0.9-4.5c-0.1-0.6-0.3-1.2-0.4-1.8c-0.3-1.2-0.5-2.3-0.9-3.4c-0.2-0.8-0.4-1.5-0.7-2.2c-0.3-1-0.6-2-0.9-2.9
					c-0.3-0.8-0.6-1.6-0.8-2.4c-0.3-0.9-0.6-1.8-0.9-2.6c-0.3-0.9-0.7-1.7-1-2.5s-0.6-1.6-1-2.4c-0.4-0.9-0.8-1.7-1.2-2.6
					c-0.3-0.7-0.7-1.5-1-2.2c-0.4-0.9-0.9-1.7-1.4-2.6c-0.4-0.7-0.7-1.4-1.1-2c-0.5-0.9-1-1.8-1.6-2.6c-0.4-0.6-0.7-1.3-1.1-1.9
					c-0.6-0.9-1.1-1.7-1.7-2.6c-0.4-0.6-0.8-1.2-1.2-1.8c-0.6-0.9-1.3-1.7-1.9-2.6c-0.4-0.6-0.8-1.1-1.3-1.7
					c-0.7-0.8-1.4-1.7-2.1-2.5c-0.4-0.5-0.9-1.1-1.3-1.6c-0.7-0.8-1.5-1.6-2.2-2.4c-0.5-0.5-0.9-1-1.4-1.5
					C2842.1,719.2,2841.3,718.4,2840.5,717.7z"/>
				<path d="M2651.9,1037.4c1.9-2.2,3.7-4.4,5.6-6.6c2.7-3.3,5.4-6.6,8-9.9c-0.4-1.6-0.7-3.2-1.1-4.8c-0.4-1.9-0.9-3.8-1.3-5.7
					c-0.5-2.1-1-4.2-1.5-6.2c-0.4-1.6-0.8-3.2-1.1-4.8c-0.5-2.2-1-4.3-1.6-6.5c-0.3-1.3-0.6-2.5-0.9-3.8c-1.1-4.3-2.1-8.6-3.2-12.8
					c-0.3-1.1-0.5-2.1-0.8-3.2c-0.6-2.4-1.2-4.7-1.9-7.1c-0.3-1-0.5-2.1-0.8-3.1c-2.2-8.2-4.4-16.3-6.7-24.2
					c-0.1-0.4-0.2-0.8-0.3-1.2c-0.8-2.6-1.5-5.2-2.3-7.8c-0.1-0.5-0.3-1-0.4-1.5c-2.5-8.2-5-16.3-7.5-24.1c0-0.1-0.1-0.2-0.1-0.3
					c-0.9-2.6-1.7-5.2-2.6-7.8c-0.1-0.2-0.1-0.4-0.2-0.5c-1.8-5.2-3.6-10.4-5.4-15.4c-21.6,14.5-40.1,35.2-55.2,52
					c-12.3,13.7-22,24.5-32.3,31.7c3.2,18.1,5.9,37.7,8.2,58.4c0,0,0,0,0,0.1c0.4,3.3,0.7,6.6,1,9.9c0,0.3,0.1,0.7,0.1,1
					c0.3,3.1,0.6,6.2,0.9,9.3c0,0.3,0,0.5,0.1,0.8c23.5-1.4,47.7-2.8,72.5-4.2C2631.3,1038.5,2641.6,1037.9,2651.9,1037.4z"/>
				<path d="M2794.1,1083.9c-11.8,17.4-28.6,38.2-46.8,59.1c67.7-26.9,150.8-58.7,225.4-83.6c-52,0.3-106.7,1.3-164.2,3.1
					c-1.4,2-2.8,4.1-4.2,6.2C2801,1073.6,2797.6,1078.7,2794.1,1083.9z"/>
				<path d="M3105.4,1738.7c-92.1-72.8-237.6-164.8-359.5-175.5h-4.5c-2.4-31.4-9-109.9-20.6-206.6c-11.6,2-23.1,4.1-34.7,6.2
					c-58.2,26.8-100.7,45.5-132,55.8c-0.9,27.9-2,53.4-3,75.5c0,0.4,0,0.9-0.1,1.3c-0.1,1.3-0.1,2.7-0.2,4c0,0.6-0.1,1.2-0.1,1.8
					c-0.1,1.1-0.1,2.1-0.2,3.2c0,0.7-0.1,1.5-0.1,2.2c0,0.8-0.1,1.6-0.1,2.4c0,0.9-0.1,1.9-0.1,2.8c0,0.1,0,0.1,0,0.2
					c-1.1,22.5-2.2,40.2-2.9,51.6l0,0l0,0c-231.1,8.6-468.8,56.3-694.6,144.7c-24.6,9.7-49.1,19.8-73.5,30.4H3105.4z"/>
			</g>
			<path d="M1599.7,1665.1c-0.3-6.9-2-14.1-4.9-21.4c-1.8-4.6-4.1-9.3-6.7-13.9c-0.1-0.3-0.2-0.5-0.3-0.8c-1.1-2.4-2.2-4.8-3.3-7.2
				c-0.5-1.1-1-2.3-1.5-3.4c-0.6-1.5-1.3-2.9-1.9-4.4c-0.6-1.4-1.2-2.8-1.8-4.2c-0.5-1.1-0.9-2.2-1.4-3.3c-0.7-1.6-1.3-3.3-2-4.9
				c-0.3-0.7-0.5-1.3-0.8-2c-32.6-81.8-41-158.2-45.4-257.7c23.1-9.1,56.4-17.4,54.5-57c-1.1-23.1-24.8-44.6-61.1-50.7
				c-1.4-21.3-2.3-46.7-2.8-74.5l0,0c0-0.2,0-0.3,0-0.5c-0.1-2.8-0.1-5.7-0.1-8.5c0-0.5,0-1,0-1.6c0-2.8-0.1-5.5-0.1-8.3
				c0-0.2,0-0.4,0-0.7c0-3-0.1-6-0.1-9.1c0-0.5,0-1,0-1.5c-0.1-6.2-0.1-12.4-0.1-18.7c0-0.5,0-1,0-1.4c0-3.2,0-6.4,0-9.6
				c0-0.2,0-0.3,0-0.5c0-3.2,0-6.3,0-9.5c0-0.3,0-0.6,0-0.9c0-3.3,0-6.6,0-9.9c0-0.3,0-0.6,0-0.9c0-6.7,0-13.4,0.1-20.1
				c0-0.4,0-0.7,0-1.1c0-6.7,0.1-13.5,0.1-20.3c0-0.3,0-0.6,0-0.9c0.6-71.1,2.1-142.3,2.6-193.5c0.6-54.9,6.3-115.5,14.7-175.9
				c11.2-80.1,27.2-159.7,42.7-224.8c2.7-11.3,5.4-22.2,8-32.6c0.8-3,1.5-6,2.2-9.1c12.3-55,12.2-123.4-46.2-127.5
				c-0.5,0-1.1,0-1.7,0c-0.4,0-0.8,0-1.2,0.1c-0.4,0.1-0.9,0.2-1.4,0.3c-0.4,0.1-0.9,0.2-1.4,0.3c-0.5,0.1-1,0.3-1.5,0.5
				s-1,0.3-1.5,0.5s-1.1,0.4-1.6,0.7c-0.6,0.2-1.1,0.5-1.7,0.7c-0.6,0.3-1.1,0.6-1.7,0.9s-1.2,0.6-1.9,1c-0.6,0.3-1.2,0.7-1.8,1
				c-0.7,0.4-1.3,0.8-2,1.2c-0.6,0.4-1.2,0.8-1.9,1.2c-0.7,0.5-1.5,0.9-2.3,1.5c-0.6,0.4-1.3,0.9-1.9,1.3c-0.8,0.6-1.6,1.1-2.5,1.7
				c-0.6,0.4-1.3,0.9-1.9,1.4c-0.9,0.7-1.8,1.3-2.7,2c-0.6,0.5-1.2,1-1.9,1.4c-1,0.8-2,1.5-3,2.3c-0.6,0.5-1.2,1-1.8,1.5
				c-1.1,0.9-2.2,1.7-3.3,2.6c-0.6,0.5-1.2,1-1.8,1.5c-1.2,1-2.4,2-3.6,3c-0.5,0.5-1.1,0.9-1.6,1.4c-1.3,1.1-2.6,2.2-3.9,3.4
				c-0.5,0.4-1,0.9-1.5,1.4c-1.4,1.2-2.8,2.5-4.2,3.7c-0.5,0.4-0.9,0.8-1.4,1.2c-1.5,1.4-3,2.8-4.6,4.2c-0.4,0.4-0.8,0.7-1.2,1.1
				c-1.6,1.5-3.3,3.1-5,4.7c-0.3,0.3-0.6,0.6-0.9,0.9c-1.8,1.7-3.6,3.4-5.4,5.2c-0.2,0.2-0.4,0.4-0.6,0.6c-1.9,1.9-3.9,3.8-5.9,5.7
				c-0.1,0.1-0.2,0.2-0.4,0.4c-100.3,97.7-261.5,289.3-378.2,418c-50.5,55.7-102.3,113.5-154.1,172.3
				c-79.2,90-158.2,182.2-231.5,272.9l0,0l0,0c-0.2,0-0.4,0-0.6,0c-2.8,0.1-5.6,0.1-8.4,0.1c-0.3,0-0.6,0-0.9,0c-0.1,0-0.3,0-0.4,0
				c-3.2,0-6.3,0-9.4-0.1c-0.4,0-0.8,0-1.2,0c-3.1-0.1-6.2-0.2-9.3-0.3c-0.4,0-0.9,0-1.3,0c-3-0.1-6-0.2-9-0.4c-0.5,0-1-0.1-1.5-0.1
				c-2.9-0.2-5.8-0.3-8.6-0.5c-0.6,0-1.1-0.1-1.7-0.1c-2.7-0.2-5.5-0.4-8.2-0.6c-0.7,0-1.3-0.1-2-0.2c-2.5-0.2-5.1-0.4-7.6-0.6
				c-0.9-0.1-1.7-0.1-2.6-0.2c-2.1-0.2-4.3-0.4-6.4-0.6c-1.4-0.1-2.8-0.2-4.2-0.4c-1-0.1-1.9-0.2-2.9-0.3
				c-13.7-1.2-26.8-2.5-39.4-3.5H570c-2.8-0.2-5.5-0.4-8.3-0.6c-0.1,0-0.2,0-0.4,0c-2.7-0.2-5.3-0.3-7.9-0.4c-0.2,0-0.3,0-0.5,0
				c-2.5-0.1-5.1-0.2-7.6-0.3c-0.2,0-0.4,0-0.6,0c-2.5-0.1-4.9-0.1-7.3-0.1c-0.3,0-0.7,0-1,0c-0.7,0-1.4,0-2,0s-1.1,0-1.7,0
				c-0.6,0-1.3,0-1.9,0c-0.6,0-1.2,0-1.7,0c-0.6,0-1.2,0-1.8,0.1c-0.6,0-1.2,0.1-1.8,0.1s-1.2,0.1-1.7,0.1c-0.6,0-1.3,0.1-1.9,0.1
				c-0.5,0-1.1,0.1-1.6,0.1c-0.7,0.1-1.4,0.1-2.1,0.2c-0.5,0-0.9,0.1-1.4,0.1c-1,0.1-2,0.2-2.9,0.3c-0.2,0-0.3,0-0.5,0.1
				c-1.1,0.1-2.3,0.3-3.4,0.4c-0.3,0-0.6,0.1-0.8,0.1c-0.8,0.1-1.7,0.2-2.5,0.4c-0.4,0.1-0.7,0.1-1.1,0.2c-0.7,0.1-1.5,0.2-2.2,0.4
				c-0.4,0.1-0.8,0.2-1.2,0.2c-0.7,0.1-1.4,0.3-2.1,0.4c-0.4,0.1-0.8,0.2-1.2,0.3c-0.7,0.1-1.3,0.3-2,0.4c-0.4,0.1-0.8,0.2-1.2,0.3
				c-0.7,0.2-1.3,0.3-2,0.5c-0.4,0.1-0.8,0.2-1.2,0.3c-0.7,0.2-1.3,0.4-2,0.6c-0.4,0.1-0.8,0.2-1.2,0.4c-0.7,0.2-1.3,0.4-2,0.6
				c-0.4,0.1-0.8,0.2-1.1,0.4c-0.7,0.2-1.3,0.5-2,0.7c-0.3,0.1-0.7,0.2-1,0.4c-0.7,0.3-1.4,0.6-2.2,0.8c-0.3,0.1-0.6,0.2-0.8,0.3
				c-0.9,0.4-1.7,0.7-2.6,1.1c-0.1,0.1-0.2,0.1-0.4,0.2c-1,0.4-2,0.9-3,1.4c-0.1,0-0.1,0.1-0.2,0.1c-0.9,0.4-1.8,0.9-2.7,1.4
				c-0.3,0.1-0.5,0.3-0.8,0.5c-0.7,0.4-1.3,0.7-2,1.1c-0.3,0.2-0.7,0.4-1,0.6c-0.6,0.4-1.2,0.7-1.8,1.1c-0.4,0.2-0.7,0.5-1.1,0.7
				c-0.5,0.4-1.1,0.7-1.6,1.1c-0.4,0.3-0.7,0.5-1.1,0.8c-0.5,0.4-1,0.7-1.5,1.1c-0.4,0.3-0.7,0.6-1.1,0.9c-0.5,0.4-1,0.8-1.5,1.2
				c-0.4,0.3-0.7,0.6-1.1,0.9c-0.5,0.4-1,0.8-1.4,1.2c-0.4,0.3-0.7,0.6-1.1,1c-0.5,0.4-0.9,0.9-1.4,1.3c-0.4,0.3-0.7,0.7-1.1,1
				c-0.5,0.5-0.9,0.9-1.4,1.4c-0.3,0.3-0.7,0.7-1,1c-0.5,0.5-1,1-1.5,1.6c-0.3,0.3-0.6,0.7-0.9,1c-0.6,0.7-1.3,1.4-1.9,2.2
				c-0.1,0.2-0.3,0.3-0.4,0.5c-8.8,10.5-21.2,19-34.5,26.9c-39.7,23.7-87.5,42.3-72.9,93.7c0,0,0,0,0,0.1c0.3,1.2,0.7,2.3,1.1,3.4
				c0.1,0.2,0.1,0.4,0.2,0.6c0.4,1.1,0.9,2.1,1.4,3.1c0.1,0.2,0.2,0.4,0.3,0.6c0.5,1,1.1,2,1.7,2.9c0.1,0.2,0.2,0.3,0.3,0.5
				c0.6,0.9,1.3,1.9,1.9,2.8c0.1,0.1,0.1,0.1,0.1,0.2c0.7,0.9,1.5,1.8,2.3,2.7c0.2,0.2,0.3,0.4,0.5,0.5c0.8,0.8,1.6,1.6,2.4,2.4
				c0.2,0.2,0.4,0.4,0.6,0.6c0.8,0.8,1.7,1.6,2.6,2.3c0.2,0.2,0.4,0.3,0.6,0.5c0.9,0.7,1.7,1.4,2.7,2c0.2,0.1,0.3,0.2,0.5,0.4
				c1,0.7,2,1.4,3,2c0.3,0.2,0.6,0.4,0.9,0.6c1,0.6,2,1.2,3.1,1.8c0.3,0.2,0.7,0.4,1.1,0.6c1.1,0.6,2.1,1.1,3.2,1.7
				c0.3,0.2,0.7,0.3,1.1,0.5c0.9,0.4,1.9,0.9,2.8,1.3c0.4,0.2,0.9,0.4,1.3,0.6c1,0.4,2.1,0.9,3.2,1.3c0.5,0.2,1,0.4,1.5,0.6
				c1.1,0.4,2.2,0.8,3.4,1.2c0.6,0.2,1.1,0.4,1.7,0.6c1,0.3,1.9,0.6,2.9,0.9c0.8,0.2,1.5,0.5,2.3,0.7s1.6,0.5,2.4,0.7
				c0.9,0.3,1.8,0.5,2.8,0.8c0.9,0.2,1.7,0.4,2.6,0.7c0.7,0.2,1.5,0.4,2.3,0.6c1.1,0.3,2.2,0.5,3.4,0.8c0.8,0.2,1.7,0.4,2.5,0.5
				c25,5.2,53.8,7,80.8,7c51.5,0,96.5-6.2,96.5-6.2c-99.1,132.2-202.8,245.5-323.9,412c-17.6,24.2,6.4,60.9,25.3,63.1
				c17.3,2,36.8,4.5,58.3,4.5c34.5,0,74.3-6.5,119.2-32.4c63.2-36.4,108-105.8,209.3-249c71-100.4,99.1-143.2,141-198.3
				c40.7,4.2,76.5,5.9,108.6,5.9c170.9,0,234.6-50,360.8-50c25.9,109.3,32.1,209.9,65.3,280.1l0,0c0.6,1.4,1.3,2.7,2,4
				c0.4,0.8,0.8,1.6,1.2,2.4c0.6,1.2,1.2,2.4,1.8,3.5c0.6,1,1.1,2.1,1.7,3.1c0.5,1,1.1,1.9,1.6,2.9c0.9,1.6,1.9,3.2,2.9,4.8
				c0.2,0.3,0.4,0.7,0.6,1c1,1.6,2,3.2,3.1,4.7c0.2,0.3,0.4,0.5,0.5,0.8c0.8,1.2,1.7,2.4,2.5,3.6c0.3,0.4,0.6,0.8,0.9,1.2
				c0.7,1,1.5,1.9,2.2,2.9c0.4,0.5,0.7,0.9,1.1,1.3c0.7,0.9,1.4,1.7,2.1,2.6c0.4,0.4,0.8,0.9,1.1,1.3c0.7,0.8,1.4,1.6,2.1,2.4
				c0.4,0.4,0.8,0.8,1.1,1.3c0.7,0.8,1.5,1.5,2.2,2.3c0.4,0.4,0.7,0.7,1.1,1.1c0.8,0.8,1.6,1.6,2.5,2.4c0.3,0.3,0.6,0.5,0.8,0.8
				c2.2,2.1,4.5,4,6.7,5.8c0.3,0.3,0.6,0.5,1,0.7c0.8,0.6,1.6,1.2,2.4,1.8c0.4,0.3,0.8,0.6,1.2,0.9c0.7,0.5,1.4,1,2.1,1.5
				c0.5,0.3,0.9,0.6,1.4,0.9c0.7,0.4,1.4,0.9,2,1.3c0.5,0.3,0.9,0.6,1.4,0.9c0.7,0.4,1.3,0.8,2,1.2c0.5,0.3,0.9,0.5,1.4,0.8
				c0.7,0.4,1.3,0.7,2,1.1c0.4,0.2,0.9,0.5,1.3,0.7c0.7,0.4,1.4,0.7,2.1,1.1c0.4,0.2,0.8,0.4,1.2,0.6c0.9,0.4,1.9,0.9,2.8,1.3
				c0.3,0.1,0.6,0.3,0.9,0.4c0.9,0.4,1.9,0.8,2.8,1.2c0.4,0.2,0.9,0.3,1.3,0.5c0.6,0.2,1.3,0.5,1.9,0.7c0.5,0.2,1,0.3,1.4,0.5
				c0.6,0.2,1.1,0.4,1.7,0.6c0.5,0.2,1,0.3,1.5,0.5s1.1,0.3,1.6,0.5c0.5,0.1,1,0.3,1.5,0.4s1,0.3,1.5,0.4s1,0.3,1.5,0.4
				s1,0.2,1.4,0.3c0.5,0.1,1,0.2,1.5,0.3c0.5,0.1,0.9,0.2,1.4,0.3c0.5,0.1,1,0.2,1.5,0.3c0.4,0.1,0.8,0.1,1.2,0.2c1,0.2,2,0.3,3,0.4
				c0.3,0,0.6,0.1,0.9,0.1c0.5,0.1,1,0.1,1.5,0.2c0.3,0,0.7,0.1,1,0.1c0.5,0,1,0.1,1.4,0.1c0.3,0,0.7,0,1,0.1c0.5,0,0.9,0,1.4,0.1
				c0.3,0,0.6,0,0.9,0c0.4,0,0.9,0,1.3,0c0.3,0,0.6,0,0.9,0c0.4,0,0.8,0,1.2,0c0.3,0,0.5,0,0.8,0c0.4,0,0.8,0,1.2-0.1
				c0.2,0,0.4,0,0.7-0.1c0.4,0,0.8-0.1,1.2-0.1c0.1,0,0.3,0,0.4,0c0.4,0,0.8-0.1,1.2-0.1c1.9-0.3,3.6-0.5,5.4-0.6
				c0.4,0,0.9-0.1,1.3-0.1c1.3-0.1,2.6-0.2,3.8-0.3c0.5,0,1-0.1,1.4-0.1c1.3-0.1,2.5-0.1,3.7-0.1c0.3,0,0.7,0,1,0c0.2,0,0.3,0,0.5,0
				c1.3,0,2.6,0,3.8,0.1c0.3,0,0.5,0,0.8,0c1.3,0.1,2.5,0.1,3.7,0.2c0.2,0,0.3,0,0.5,0c1.3,0.1,2.6,0.3,3.9,0.4
				c0.3,0,0.5,0.1,0.7,0.1c1.1,0.2,2.3,0.3,3.4,0.5c0.1,0,0.2,0,0.3,0.1c1.2,0.2,2.3,0.5,3.5,0.7c0.2,0.1,0.5,0.1,0.7,0.2
				c1.1,0.2,2.1,0.5,3.1,0.8h0.1c1.1,0.3,2.1,0.6,3.1,0.9c0.2,0.1,0.4,0.1,0.6,0.2c2,0.6,4,1.3,5.8,2c0.2,0.1,0.3,0.1,0.5,0.2
				c1.9,0.7,3.8,1.5,5.6,2.2c0.1,0,0.1,0.1,0.2,0.1c1.2,0.5,2.4,1,3.5,1.5c0.4,0.2,0.8,0.3,1.2,0.5c0.4,0.2,0.7,0.3,1.1,0.4
				c0.7,0.3,1.5,0.6,2.2,0.9c0.2,0.1,0.4,0.2,0.6,0.2c0.6,0.2,1.2,0.5,1.8,0.7c0.2,0.1,0.5,0.2,0.7,0.3c0.8,0.3,1.5,0.5,2.3,0.8
				c0.2,0.1,0.4,0.1,0.5,0.2c0.6,0.2,1.3,0.4,1.9,0.6c0.2,0.1,0.4,0.1,0.6,0.2c0.8,0.2,1.6,0.4,2.3,0.6c0.2,0,0.4,0.1,0.6,0.1
				c0.7,0.1,1.4,0.3,2,0.4c0.2,0,0.4,0.1,0.6,0.1c0.8,0.1,1.6,0.2,2.5,0.3c0.2,0,0.4,0,0.6,0c0.7,0.1,1.5,0.1,2.2,0.1
				c0.2,0,0.3,0,0.5,0c0.5,0,1.1,0,1.6,0s1,0,1.4-0.1c0.6,0,1.2-0.1,1.8-0.2c0.5-0.1,0.9-0.1,1.4-0.2c0.6-0.1,1.3-0.2,2-0.4
				c0.4-0.1,0.9-0.1,1.3-0.3c0.8-0.2,1.5-0.4,2.3-0.6c0.4-0.1,0.8-0.2,1.2-0.3c0.9-0.3,1.8-0.6,2.8-0.9c0.3-0.1,0.6-0.2,0.9-0.3
				c1.2-0.4,2.4-0.9,3.6-1.4c0.1,0,0.2-0.1,0.3-0.1c2.7-1.1,5.5-2.5,8.6-4.2c9.8-5.4,16.9-11.6,21.6-18.5
				C1597.8,1684.4,1600.1,1675,1599.7,1665.1z M1279,1076.1c-0.4,4.3-0.7,8.7-1,13.1c-0.4,5.6-0.9,11.2-1.3,16.8
				c-0.3,4.2-0.6,8.4-0.9,12.6c-0.4,5.8-0.8,11.6-1.1,17.4c-0.2,3.9-0.4,7.8-0.7,11.7c-0.3,6.1-0.7,12.3-1,18.4
				c-0.2,3.1-0.3,6.3-0.4,9.4c-0.3,6.9-0.6,13.8-0.9,20.7l0,0c-0.4,10.1-0.7,20.2-1,30.3c-17.5,0.7-34,1.1-49.6,1.1
				c-41.7,0-77-2.3-109.4-5.3l0,0h-0.1c-3.8-0.3-7.6-0.7-11.4-1.1c-0.3,0-0.7-0.1-1-0.1c-3.6-0.4-7.3-0.7-10.8-1.1c0,0,0,0-0.1,0
				c-8.2-0.8-16.3-1.7-24.4-2.5c-2.9-0.3-5.7-0.6-8.6-0.9c-0.9-0.1-1.8-0.2-2.6-0.3c-2.4-0.2-4.9-0.5-7.3-0.7
				c-1.1-0.1-2.2-0.2-3.2-0.3c-3.2-0.3-6.4-0.6-9.6-0.9c-0.2,0-0.5,0-0.7-0.1c-3.1-0.3-6.1-0.5-9.2-0.8c-0.9-0.1-1.8-0.2-2.8-0.2
				c-2.9-0.2-5.8-0.5-8.8-0.7c-0.4,0-0.9-0.1-1.3-0.1c-3.3-0.2-6.6-0.4-9.9-0.6c-0.8-0.1-1.7-0.1-2.5-0.1c-2.8-0.2-5.7-0.3-8.5-0.4
				c-0.6,0-1.3-0.1-1.9-0.1c-3.4-0.2-6.8-0.3-10.3-0.4c-0.8,0-1.5,0-2.3-0.1c-2.9-0.1-5.8-0.2-8.8-0.2c-0.8,0-1.6,0-2.4,0
				c-3.5,0-7-0.1-10.6-0.1c-2.6,0-5.3,0-7.9,0.1c-1.6,0-3.2,0-4.8,0.1c-3.9,0.1-7.9,0.2-11.9,0.3c-0.4,0-0.7,0-1.1,0l0,0l0,0
				c125.6-160.9,262.2-319.5,403.2-473.7c-2.1,9.9-4.2,19.8-6.3,29.7c-0.6,2.9-1.2,5.9-1.8,8.8c-1.4,6.9-2.8,13.8-4.1,20.6
				c-0.8,3.9-1.5,7.8-2.2,11.7c-1.1,5.9-2.2,11.8-3.3,17.6c-0.8,4.3-1.6,8.7-2.3,13c-1,5.4-1.9,10.8-2.9,16.2
				c-0.8,4.6-1.5,9.2-2.3,13.7c-0.9,5.2-1.7,10.3-2.6,15.5c-0.8,4.7-1.5,9.5-2.2,14.2c-0.8,5-1.5,10-2.3,14.9
				c-0.7,4.9-1.4,9.8-2.1,14.6s-1.4,9.7-2.1,14.5c-0.7,5-1.4,10-2,15c-0.6,4.7-1.2,9.5-1.8,14.2c-0.6,5.1-1.3,10.2-1.9,15.3
				c-0.6,4.6-1.1,9.3-1.6,13.9c-0.6,5.2-1.2,10.4-1.7,15.6c-0.5,4.6-1,9.1-1.4,13.7c-0.5,5.3-1.1,10.6-1.6,15.9
				c-0.4,4.5-0.8,8.9-1.2,13.4C1279.9,1065.2,1279.4,1070.6,1279,1076.1z"/>
		</g>
	</g>
</g>
</svg>
