<?xml version="1.0" encoding="utf-8"?>
<!-- Generator: Adobe Illustrator 25.0.0, SVG Export Plug-In . SVG Version: 6.00 Build 0)  -->
<svg version="1.1" id="Layer_1" xmlns="http://www.w3.org/2000/svg" xmlns:xlink="http://www.w3.org/1999/xlink" x="0px" y="0px"
	 viewBox="0 0 3868 1656.4" style="enable-background:new 0 0 3868 1656.4;" xml:space="preserve">
<style type="text/css">
	.st0{fill:#FFFFFF;}
	.st1{fill:#23A8E0;}
	.st2{fill:#EC1C27;}
	.st3{fill:#E59E24;}
	.st4{fill:#1C75BA;}
	.st5{fill:#A31E22;}
	.st6{stroke:#FFFFFF;stroke-width:7;stroke-miterlimit:10;}
	.st7{fill:#FFFFFF;stroke:#000000;stroke-width:5;stroke-miterlimit:10;}
	.st8{fill:#FFFFFF;stroke:#000000;stroke-width:7;stroke-miterlimit:10;}
	.st9{fill:#DC571F;}
	.st10{stroke:#FFFFFF;stroke-width:5;stroke-miterlimit:10;}
</style>
<g>
	<rect x="1732.8" y="1108" width="115.9" height="95"/>
	<polygon points="3188.4,352.2 3214.5,819.9 3432.7,844.9 3398.2,352.2 	"/>
	<rect x="2127.6" y="1109" width="115.9" height="95"/>
	<path d="M3750,266.6c-8.4-110.6-102.3-198.3-214-198.3l-3435.4-1L70.4,481.7l219.2-4.2l-43.8,692.1l155.5-33.4
		c63.7-13.6,138.8-26.1,224.4-37.6l8.4-1l59.5-8.4v502.1l2465.6,0V1228h66.8v-128.4l60.5,9.4c106.5,16.7,193.1,34.4,255.7,54.3
		c19.8,6.3,39.7,9.4,59.5,9.4c55.3,0,109.6-24,147.2-64.7c38.6-41.8,57.4-97.1,53.2-152.4L3750,266.6z M2343.9,240.5h92.9h197.3
		h63.7H2823l31.3,632.6v3.1c-63.7-7.3-130.5-13.6-201.5-18.8l-15.7-493.7h-197.3l15.7,480.2c-63.7-3.1-130.5-6.3-198.3-8.4
		l-7.2-409.5c16.9-14.2,38.2-29.5,67.9-46.6c0.8-0.4,1.4-1.3,1.4-2.3v0c0-1-0.6-1.8-1.4-2.2l0,0c-1.1-0.5-1.4-0.6-12.1,4
		c-5.7,2.5-14.8,6.7-26.1,12.5c-8.4,4.4-18.7,10-30,16.9l-1.7-95.7c19.2-14.5,39.3-29,60.6-42.7c1.2-0.8,1.5-2.3,0.8-3.5
		c-0.7-1.2-2.3-1.6-3.5-0.9c-7.3,4-30.4,16.8-58.2,32.6l-1-57.8H2343.9z M2210.7,455.8c-21.9,21.7-40.8,40.4-78.7,58
		c-43.8,20.1-55.2,30.8-67.2,42c-9.3,8.7-18.9,17.7-44.7,32.2c-39.6,22.4-86.3,64.4-120.3,95c-20.1,18.1-36,32.4-43.5,36.5
		c-23.9,12.5-106,67.4-132.9,89c-11.7,9-43,30.3-74.6,51.5c28-21.7,54.3-43.5,61.5-54.3c16.1-23.2,54.3-44.9,64.8-44.9
		c12.7,0,45.9-24,56.4-40.8c5.8-9.2,31.1-32.3,53.4-52.7c17.8-16.3,33.2-30.4,38.3-36.8c4.4-5.6,23-14.5,42.8-23.9
		c30.4-14.5,65-31,73.3-46.4c13-23.9,83-56.2,97.5-59.3c8.6-1.8,11.4-4.6,20.9-13.6c7.9-7.5,21.1-20.1,46.9-41.2
		c15.7-12.6,31.7-23.4,46.6-32.5c1.1-0.7,2.2-1.4,3.3-2c0.6-0.4,1.2-0.7,1.8-1.1c0.9-0.5,1.8-1,2.6-1.6c0.6-0.4,1.3-0.7,1.9-1.1
		c0.8-0.5,1.7-1,2.5-1.4c0.6-0.4,1.3-0.7,1.9-1.1c0.8-0.5,1.6-0.9,2.4-1.4c0.6-0.3,1.2-0.7,1.8-1c0.8-0.5,1.7-0.9,2.5-1.4
		c0.5-0.3,1.1-0.6,1.6-0.9c0.9-0.5,1.8-1,2.7-1.5c0.4-0.2,0.9-0.5,1.3-0.7c1.3-0.7,2.6-1.4,3.9-2c-1.3,0.9-2.7,1.8-4,2.7
		c-0.1,0.1-0.2,0.2-0.4,0.3c-0.2,0.1-0.4,0.3-0.6,0.4c-1.2,0.9-2.5,1.7-3.7,2.6c0,0,0,0-0.1,0c0,0,0,0-0.1,0
		c-1.3,0.9-2.6,1.9-3.9,2.8c-0.1,0-0.1,0.1-0.2,0.1c0,0-0.1,0-0.1,0.1c-1.3,0.9-2.5,1.9-3.8,2.8c0,0,0,0,0,0
		c-5.3,3.9-10.1,7.7-14.7,11.5v0C2234.1,432.6,2222,444.6,2210.7,455.8z M2221.8,835.5c-85.6-3.1-173.3-4.2-263.1-5.2l-106.8-93.2
		c8-4.9,14.6-8.8,19.2-11.2c15.6-8.6,64.6-58.1,114.4-97.3L2221.8,835.5z M1779.2,785.1v43.1c-20.8,0.3-41.5,0.7-62.1,1
		c9.6-6.1,17.1-11.1,21.4-14.6C1747.2,807.7,1762.2,796.9,1779.2,785.1z M1826.2,642.4c28.4-21.5,58.8-50.9,87.8-76.5l44.2,38.7
		c-19.4,9.3-34.3,16.7-39,22.6c-4.8,6.1-20.8,20.8-37.7,36.2c-22.8,20.9-46.4,42.4-53.5,52.7l-48.4-42.2
		C1797.9,662,1815.3,650.7,1826.2,642.4z M1757.2,670.7c-31.6,20.4-64.2,41.6-73.9,52.6c-11.6,13.9-140.6,93.6-202,131.2
		c52.9-42.7,160.2-129.3,174.2-140.2c11.6-9,23.9-13.2,33.7-16.6c6-2,11.1-3.8,15.1-6.2c6.8-4.1,13.5-13.3,19.5-21.5
		c3.5-4.8,6.8-9.3,9-11.1c1.5-1.2,5.3-1.4,9.3-1.7c9.8-0.6,23.1-1.3,30-15.9c5-10.6,24.2-28.5,41.2-44.2
		c14.4-13.5,28.1-26.2,33.9-34.8c5.8-9.1,29-22.4,55.9-37.7c29.3-16.7,62.4-35.7,84.6-55.7c22.9-20.7,54.5-37.1,79.8-50.2
		c22.5-11.7,40.2-20.9,45.9-29.6l0.1-0.1c6.1-10.3,81.5-54.8,141.8-89.1c0.2-0.1,0.4-0.2,0.7-0.4c2.3-1.3,4.7-2.7,7-4
		c-0.7,0.5-1.3,1-2,1.5c0,0,0,0,0,0c-4.3,3.1-8.5,6.3-12.7,9.5v0c-26.3,19.9-50.7,39.9-73.4,58.6c-46,37.9-82.3,67.7-110.1,75.5
		c-48.8,15-85.7,59.9-90.5,66c-29.8,9.8-65.3,42-102.8,76.1c-20.3,18.4-41.3,37.5-61.1,52.4C1798,644.3,1778.2,657.1,1757.2,670.7z
		 M1589.2,239.5h190v167L1901.3,276l33.4-35.5h231.7l-255.8,273.9c-3.4,2-6.8,3.9-10.2,5.8c-28.6,16.3-51.2,29.2-57.6,39.4
		c-5.4,8.1-18.8,20.6-33.1,33.9c-18.1,16.9-36.8,34.3-42.3,45.8c-5.6,11.9-16.8,12.5-25.8,13c-5.1,0.3-9.5,0.5-12.2,2.8
		c-2.7,2.2-6,6.8-9.8,12c-5.4,7.4-12.1,16.6-18,20.1c-3.6,2.1-8.5,3.8-14.2,5.8c-10.2,3.5-22.9,7.8-35.1,17.4
		c-6.8,5.3-35.7,28.5-69.7,55.9l1.1-88.3c0.4-0.4,0.9-0.7,1.2-1.1c14.6-14.6,209.8-144.1,232.8-174.3c23-30.3,63.7-49.1,65.8-49.1
		c2.1-1,29.2-33.4,53.2-40.7c15.5-5.9,75.4-56.8,115.4-93.8c17.7-14.4,31.6-26.6,36.8-33.1l8.8-10.9l-12,7.2
		c-5.8,3.5-142.5,85-159.3,104.9c-6.6,7.5-11.6,7.2-18,6.8c-8.2-0.4-18.5-1-33.2,16.1c-13.3,15-37.8,31-59.5,45.2
		c-19.1,12.5-37,24.3-45.9,34.1c-8.6,9.6-27.8,25.3-44.6,39.2c-31.1,25.5-39,32.7-38.4,36.9c-0.5,3.2-14.8,15.1-31.5,26.3
		c-4.7-0.5-23-0.4-41.1,26.3c-7.5,11.1-18.7,20.2-30.1,27.9L1589.2,239.5z M1544.2,679.4c4.3-5.5,13.7-11.2,24.7-17.9
		c16.6-10.1,37.3-22.7,49.5-40.7c14.8-21.8,29.2-24.2,34.7-24.2c1.4,0,2.2,0.1,2.4,0.2l1,0.2l0.9-0.6c0.1-0.1,8.8-5.9,17.2-12.4
		c15.3-11.8,17.5-16.2,17.3-19c1.6-3.9,21-19.8,36.6-32.7c17.8-14.7,36.3-29.8,45.2-39.7c8.4-9.4,26.2-21,44.9-33.3
		c23-15.1,46.8-30.6,60.5-46.1c13.1-15.3,21.2-14.8,29.1-14.4c6.8,0.4,13.8,0.7,22-8.6c12.7-15,100.8-69.3,139.7-92.8
		c-38.7,34.2-130.2,101.9-147.8,110.8c-19.7,6.1-40.9,28-50,37.3c-1.4,1.4-2.9,2.9-3.4,3.5c-7.8,2.4-45.4,21.9-66.6,49.8
		c-14.5,19.2-100.8,79.8-163.7,124.1c-35.5,24.9-63.5,44.6-68.8,50c-7.8,7.8-32.5,18.9-53,27.3
		C1527.8,693.4,1539,685.6,1544.2,679.4z M971.2,241.6h570l-59.5,124.2h-333l-5.2,112.7h333v122.1l-339.3,12.5l-4.2,112.7
		c120-8.4,257.8-14.6,394.6-18.8l-50.1,120l-5.2,11.5c-197.3,7.3-380,20.9-539.7,38.6L971.2,241.6z M648.7,348L609,978.5
		c-87.7,12.5-166,25.1-232.8,39.7L419,353.3l-218.2,5.2l11.5-170.2l669.1,1h0v153.4L648.7,348z M933.6,1273.9v197.3h-119v-452h97.1
		h21.9h115.9h47v0h16.7c30.3,0,55.3,25.1,55.3,55.3v144.1c0,30.3-25.1,55.3-55.3,55.3H933.6z M1320.9,1471.2v-89.8h110.6
		l-81.4-208.8l-115.9,298.5h-115.9l175.4-452h112.7l175.4,452H1320.9z M1582.3,802.9c56.1-32.2,110.3-64.5,117.6-72.8
		c10-11.3,46.4-34.6,79.3-55.9V755c-1.6,0.5-3,0.8-4.2,0.8c-11.9,0-51.3,21.8-68.9,47c-4,6-14.4,15.8-27.9,27.1
		c-32.3,0.6-64.4,1.4-96.3,2.4L1582.3,802.9z M1860.1,1471.2l-107.5-197.3h-19.8v197.3h-119v-452h97.1h21.9h115.9h47h15.7
		c30.3,0,55.3,25.1,55.3,55.3v144.1c0,30.3-25.1,55.3-55.3,55.3h-39.7l107.5,197.3H1860.1z M2256,1471.2l-107.5-197.3h-19.8v197.3
		h-119v-452h80.4h38.6h115.9h35.5h27.1c30.3,0,55.3,25.1,55.3,55.3v144.1c0,30.3-25.1,55.3-55.3,55.3h-39.7l107.5,197.3H2256z
		 M2759.3,1415.9c0,30.3-25.1,55.3-55.3,55.3h-243.2c-30.3,0-55.3-25.1-55.3-55.3v-341.3c0-31.3,25.1-55.3,55.3-55.3h243.2
		c30.3,0,55.3,25.1,55.3,55.3V1415.9z M3105.9,1108h-67.9v363.3h-119V1108h-116.9v-88.7h116.9h119h67.9V1108z M3578.8,1049.5
		c-107.5-33.4-273.5-62.6-481.2-85.6c-65.8-7.3-115.9-60.5-120-126.3l-31.3-548c-3.1-53.2,39.7-99.2,93.9-99.2H3536
		c49.1,0,89.8,37.6,93.9,86.6l52.2,689C3686.3,1022.4,3632,1065.2,3578.8,1049.5z"/>
	<path d="M3535,14c138.8,0,255.7,108.6,266.2,247.4l52.2,689c5.2,69.9-18.8,139.9-66.8,191c-48,52.2-115.9,81.4-185.8,81.4
		c-25.1,0-50.1-4.2-74.1-11.5c-45.9-13.6-123.2-32.4-248.4-52.2v120h-66.8v363.3h-2569v-494.8l-8.4,1
		c-84.6,11.5-157.6,24-220.3,37.6l-223.4,48l44.9-704.6L15,534.9L51.6,15L3535,14 M3535,0L3535,0L3535,0L51.6,1l-13,0l-0.9,13
		L1.1,533.9L0,549.3l15.4-0.4l205-4.9l-43.9,689.4l-1.2,18.5l18.1-3.9l223.4-48c60.7-13.1,131.9-25.4,211.7-36.4v478.8v14h14h2569
		h14v-14v-349.3h52.8h14v-14v-103.6c94.6,15.4,172.1,32,230.5,49.2c26.3,8,52.6,12.1,78.1,12.1c74.4,0,145.8-31.3,196.1-85.9
		c50.4-53.7,76.1-127.2,70.5-201.6l-52.2-689C3804.1,114.4,3681.1,0,3535,0L3535,0z"/>
	<rect x="933.6" y="1109" width="115.9" height="95"/>
	<rect x="2524.4" y="1108" width="115.9" height="273.5"/>
	<path d="M2250,419.6c5.7-4.6,11.8-9.4,18.6-14.3c0.1,0,0.1-0.1,0.2-0.1c0,0,0,0,0,0c1.3-0.9,2.6-1.9,3.9-2.8c0,0,0,0,0,0
		c0,0,0,0,0,0c1.4-1,2.8-2,4.3-3c0.1-0.1,0.2-0.2,0.4-0.2c0,0,0,0,0,0c1.3-0.9,2.6-1.8,4-2.7c-1.3,0.7-2.5,1.3-3.9,2
		c-0.4,0.2-0.9,0.5-1.3,0.7c-0.9,0.5-1.8,1-2.7,1.5c-0.5,0.3-1.1,0.6-1.6,0.9c-0.8,0.5-1.7,0.9-2.5,1.4c-0.6,0.3-1.2,0.7-1.8,1
		c-0.8,0.5-1.6,0.9-2.4,1.4c-0.6,0.4-1.2,0.7-1.9,1.1c-0.8,0.5-1.6,1-2.5,1.4c-0.6,0.4-1.3,0.7-1.9,1.1c-0.9,0.5-1.7,1-2.6,1.6
		c-0.6,0.4-1.2,0.7-1.8,1.1c-1.1,0.7-2.2,1.3-3.3,2c-0.4,0.3-0.8,0.5-1.2,0.8L2250,419.6z"/>
	<path d="M2248,306.5c4.8-3.7,9.7-7.3,14.7-10.9c-2.3,1.3-4.6,2.6-7,4c-0.2,0.1-0.4,0.2-0.7,0.4c-2.4,1.3-4.7,2.7-7.1,4.1
		L2248,306.5z"/>
</g>
</svg>
