<?xml version="1.0" encoding="utf-8"?>
<!-- Generator: Adobe Illustrator 25.4.1, SVG Export Plug-In . SVG Version: 6.00 Build 0)  -->
<svg version="1.1" id="Layer_1" xmlns="http://www.w3.org/2000/svg" xmlns:xlink="http://www.w3.org/1999/xlink" x="0px" y="0px"
	 viewBox="0 0 3839 343.2" style="enable-background:new 0 0 3839 343.2;" xml:space="preserve">
<style type="text/css">
	.st0{fill:#232F95;}
	.st1{fill:#FFFFFF;}
	.st2{fill:url(#SVGID_1_);}
	.st3{fill:url(#SVGID_00000165942984231804993280000004694067170897079439_);}
	.st4{fill:url(#SVGID_00000153675099634070418430000000026631953498961595_);}
	.st5{fill:url(#SVGID_00000089537177105929173210000015758255000871914378_);}
	.st6{fill:url(#SVGID_00000170244365315070454410000001965165160870890173_);}
	.st7{fill:url(#SVGID_00000070828753310641943390000010266247936699448760_);}
	.st8{fill:url(#SVGID_00000159438808534047246170000013323640269838323134_);}
	.st9{fill:url(#SVGID_00000139977668430315950650000007855634131061273246_);}
	.st10{fill:url(#SVGID_00000137832756106527724210000000559904339131397761_);}
	.st11{fill:url(#SVGID_00000113330032438827714220000003090114822049044659_);}
	.st12{fill:url(#SVGID_00000028300181017500515260000001549022347454198422_);}
	.st13{fill:url(#SVGID_00000179620805024658471460000015822726524002763407_);}
	.st14{fill:url(#SVGID_00000035510958144380299370000005709557107438320783_);}
	.st15{fill:url(#SVGID_00000078761147126122311130000002473118273059524776_);}
	.st16{fill:url(#SVGID_00000075846908173803874450000010093423815425470640_);}
	.st17{fill:url(#SVGID_00000111889582281969202880000015345922740826654598_);}
	.st18{fill:url(#SVGID_00000057144265164926376630000015457899340059070871_);}
	.st19{fill:url(#SVGID_00000099619822562171679630000013898989427335827377_);}
	.st20{fill:url(#SVGID_00000166656154536127764980000015082692074196467884_);}
	.st21{fill:url(#SVGID_00000047020797398564466070000006322421246528430985_);}
	.st22{fill:url(#SVGID_00000180335507420570443850000012809759564714818194_);}
	.st23{fill:url(#SVGID_00000035520441825175894070000007547462932339226808_);}
	.st24{fill:url(#SVGID_00000119811333187279651660000013683502018305632649_);}
	.st25{fill:url(#SVGID_00000116927087762776193110000006137478496682155921_);}
	.st26{fill:url(#SVGID_00000159429683374572057890000015259432789902288268_);}
	.st27{fill:url(#SVGID_00000044883053934989267570000017925853114553461647_);}
	.st28{fill:url(#SVGID_00000028295592258980548110000013996218036919429563_);}
	.st29{fill:url(#SVGID_00000019671030600081670040000010596798170691212172_);}
	.st30{fill:url(#SVGID_00000023278682942155452560000006463761404303226295_);}
	.st31{fill:url(#SVGID_00000155129592788605684970000017551657605202205582_);}
	.st32{fill:url(#SVGID_00000004531958516286443270000006501154024475475841_);}
	.st33{fill:url(#SVGID_00000088134044738004784910000003059780598563995818_);}
	.st34{fill:url(#SVGID_00000080915494999597876530000014892378684430950813_);}
	.st35{fill:url(#SVGID_00000147923554583203945660000001717204513244815240_);}
	.st36{fill:url(#SVGID_00000079456600616015386490000008323374468534243732_);}
	.st37{fill:url(#SVGID_00000139289300279026764880000002758125759154788524_);}
	.st38{fill:url(#SVGID_00000036250577044867144330000007189574468667505808_);}
	.st39{fill:url(#SVGID_00000083800355612118293040000006664362324911529648_);}
	.st40{fill:url(#SVGID_00000044860754405885816490000016559015916427497892_);}
	.st41{fill:url(#SVGID_00000106843912869713982630000009016971293555138964_);}
	.st42{fill:url(#SVGID_00000054232411944358995530000015899544443145702793_);}
	.st43{fill:url(#SVGID_00000147195647586728267130000004644415455429805487_);}
	.st44{fill:url(#SVGID_00000053517492364602931600000018319212729290970536_);}
	.st45{fill:url(#SVGID_00000167381086069465020900000003196712121839595711_);}
	.st46{fill:url(#SVGID_00000107560668025571048270000009563595323444093580_);}
	.st47{fill:url(#SVGID_00000092451745151747971730000007057498920507266442_);}
	.st48{fill:url(#SVGID_00000126310135830204717210000012008174949781339021_);}
	.st49{fill:url(#SVGID_00000118387401514260468500000005596692126707421325_);}
	.st50{fill:url(#SVGID_00000016036711123823908660000011795807865307174569_);}
	.st51{fill:url(#SVGID_00000142887147355596865960000013571983590357236117_);}
	.st52{fill:url(#SVGID_00000018945543189644647530000013255327910620372130_);}
	.st53{fill:url(#SVGID_00000005225885263625591460000015563275861348394165_);}
	.st54{fill:url(#SVGID_00000161594137551334092340000008085708160573241731_);}
	.st55{fill:url(#SVGID_00000121249888003302921680000001194846999019471015_);}
	.st56{fill:url(#SVGID_00000022552277292556814460000001195256004254143893_);}
	.st57{fill:url(#SVGID_00000106833773250778910730000015146106399536969369_);}
	.st58{fill:url(#SVGID_00000133521276100147571210000015883160302917220799_);}
	.st59{fill:url(#SVGID_00000100352037596463507720000001707585369213525915_);}
	.st60{fill:url(#SVGID_00000017506960316417506100000010155780621359993787_);}
	.st61{fill:url(#SVGID_00000047053625155929406990000008088132919618219648_);}
	.st62{fill:url(#SVGID_00000003819496343304536080000010023162726713292439_);}
	.st63{fill:url(#SVGID_00000078040624322976963750000014658022831585810593_);}
	.st64{fill:url(#SVGID_00000143599911959531475430000000569134708722918587_);}
	.st65{fill:url(#SVGID_00000139993885564746530290000016496714457126757002_);}
	.st66{fill:url(#SVGID_00000128476469697617047880000014852458281558899884_);}
	.st67{fill:url(#SVGID_00000108996051747617489300000011783154533143808183_);}
	.st68{fill:url(#SVGID_00000086662397734088153730000016363672176107537281_);}
	.st69{fill:url(#SVGID_00000113310806358990958900000008349603420600843174_);}
	.st70{fill:url(#SVGID_00000072272388186501002480000014892017768754206142_);}
	.st71{fill:url(#SVGID_00000072271413576562684680000007954394835542522542_);}
	.st72{fill:url(#SVGID_00000025414451927023842840000000370651360298372512_);}
	.st73{fill:url(#SVGID_00000036955115702159767110000005115960272349427119_);}
	.st74{fill:url(#SVGID_00000038388455122564231590000006612942726324970656_);}
	.st75{fill:url(#SVGID_00000144320976154437532920000015109607548768955560_);}
	.st76{fill:url(#SVGID_00000096756436000166334180000015959030847166715791_);}
	.st77{fill:url(#SVGID_00000087404866832239410410000007726256753411535287_);}
	.st78{fill:url(#SVGID_00000040534305990764784470000005908153651567824768_);}
	.st79{fill:url(#SVGID_00000073706384446113384980000017216587229345841540_);}
	.st80{fill:url(#SVGID_00000026143842811481535060000008785877205013988791_);}
	.st81{fill:url(#SVGID_00000172440397244544957420000013323576074813723834_);}
	.st82{fill:url(#SVGID_00000049204118069728539620000011141627248642510003_);}
	.st83{fill:url(#SVGID_00000134225720626899242310000012473591431395951035_);}
	.st84{fill:url(#SVGID_00000161625186238053381340000012996898883184446855_);}
	.st85{fill:url(#SVGID_00000047019174798389358430000008092156241707123075_);}
	.st86{fill:url(#SVGID_00000176766146956826139660000002037125428015188642_);}
	.st87{fill:url(#SVGID_00000136412370709217406830000007026731497391979907_);}
	.st88{fill:url(#SVGID_00000034047994767278436730000018141688620077809823_);}
	.st89{fill:url(#SVGID_00000134219253445033794520000001928318910539878820_);}
	.st90{fill:url(#SVGID_00000088102342460190024140000005120401398086211767_);}
	.st91{fill:url(#SVGID_00000016756027243205009820000006941963871656117150_);}
	.st92{fill:url(#SVGID_00000111905996813582703860000010895521725242361737_);}
	.st93{fill:url(#SVGID_00000017503396917488392050000008671339456786287804_);}
	.st94{fill:url(#SVGID_00000050663979000864066500000000203420545474337196_);}
	.st95{fill:url(#SVGID_00000101099609684724084840000013995352832085701045_);}
	.st96{fill:url(#SVGID_00000181070003036301965470000006147044196685274504_);}
	.st97{fill:url(#SVGID_00000140731576621503541770000018103260150607872666_);}
	.st98{fill:url(#SVGID_00000092437049123970870210000008105967630362089603_);}
	.st99{fill:url(#SVGID_00000172419372088713337960000014178342512052304291_);}
	.st100{fill:url(#SVGID_00000046328555245103846130000005766992279774516907_);}
	.st101{fill:url(#SVGID_00000174561126682396218740000004528616123498675622_);}
	.st102{fill:#502F8E;}
	.st103{fill:url(#SVGID_00000000913723192148718980000008356625142570201748_);}
	.st104{fill:url(#SVGID_00000086667643685169111150000012927414710867398847_);}
	.st105{fill:url(#SVGID_00000103228982958510742040000004506414522465072049_);}
	.st106{fill:url(#SVGID_00000178899823867759522780000013287547983935350405_);}
	.st107{fill:url(#SVGID_00000054978047681129131280000006607173738008051341_);}
	.st108{fill:url(#SVGID_00000087390105434921273940000004716766709482321565_);}
	.st109{fill:url(#SVGID_00000048465129159611354280000004561307412495430591_);}
	.st110{fill:url(#SVGID_00000146487290773546634470000016272667163140505480_);}
	.st111{fill:url(#SVGID_00000147901505295245156440000014829168418179603087_);}
	.st112{fill:url(#SVGID_00000025442671809637001190000012597677560158559930_);}
	.st113{fill:url(#SVGID_00000117652080785873920660000013225887439901062819_);}
	.st114{fill:url(#SVGID_00000127045014136266092120000005514306603106437821_);}
	.st115{fill:url(#SVGID_00000072248324105504614410000005208096439748188038_);}
	.st116{fill:url(#SVGID_00000026854349668242638330000006988786276122488723_);}
	.st117{fill:url(#SVGID_00000091723658018543649950000007070370317440377997_);}
	.st118{fill:url(#SVGID_00000021826270956756514460000005305165473716900271_);}
	.st119{fill:url(#SVGID_00000095301274133122767390000004088407928028710817_);}
	.st120{fill:url(#SVGID_00000122690117426741573950000005813350580178681999_);}
	.st121{fill:url(#SVGID_00000135681769432728659470000007275100558206397621_);}
	.st122{fill:url(#SVGID_00000024687668548805445640000015461354857625482686_);}
	.st123{fill:url(#SVGID_00000112600989216842606400000003168146975804249994_);}
	.st124{fill:url(#SVGID_00000173845795446810128840000003207226959235565496_);}
	.st125{fill:url(#SVGID_00000048469993130663600950000001860420839387306404_);}
	.st126{fill:url(#SVGID_00000129165226079008887730000017259764067548099229_);}
	.st127{fill:url(#SVGID_00000067228749531424451360000004327067317483764101_);}
	.st128{fill:url(#SVGID_00000051349836354144207440000011678742966580133537_);}
	.st129{fill:url(#SVGID_00000059279163815504243590000004841292193644084353_);}
	.st130{fill:url(#SVGID_00000031899214318844697060000013667265069045121430_);}
	.st131{fill:url(#SVGID_00000043436753081101561390000017116664665785596329_);}
	.st132{fill:url(#SVGID_00000086680000861129914860000016490522277508068276_);}
	.st133{fill:url(#SVGID_00000090279822019874797740000013991373154664672941_);}
	.st134{fill:url(#SVGID_00000083779183981684696050000014293007734746933381_);}
	.st135{fill:url(#SVGID_00000162315515346536512630000014043123539128745647_);}
	.st136{fill:url(#SVGID_00000130623052539971966960000000118479140829650612_);}
	.st137{fill:url(#SVGID_00000118362374407185255090000015203953717670817177_);}
	.st138{fill:url(#SVGID_00000109025746195935859050000000094281900861503155_);}
	.st139{fill:url(#SVGID_00000126298610811358451920000018167744853686443955_);}
	.st140{fill:url(#SVGID_00000133506052590093900450000011780780381240442039_);}
	.st141{fill:url(#SVGID_00000158022782729013295630000007112662488037955992_);}
	.st142{fill:url(#SVGID_00000057861497299084095760000008254377515541155469_);}
	.st143{fill:url(#SVGID_00000036973421782522314340000012117934049112005017_);}
	.st144{fill:url(#SVGID_00000053532292875008129810000016276416966514179477_);}
	.st145{fill:url(#SVGID_00000089544580928283338960000009273726241999224960_);}
	.st146{fill:url(#SVGID_00000141457382736373598480000007513655305135977392_);}
	.st147{fill:url(#SVGID_00000070085186766234734570000000903863868913666979_);}
	.st148{fill:url(#SVGID_00000175316870972201859450000007349189997104471693_);}
	.st149{fill:url(#SVGID_00000026845137888031583570000006821125999011997090_);}
	.st150{fill:url(#SVGID_00000132079368168584038720000009279042505002945166_);}
	.st151{fill:url(#SVGID_00000010287169284084533260000009282071041523410077_);}
	.st152{fill:url(#SVGID_00000076602246731735914470000005417301262277498031_);}
	.st153{fill:url(#SVGID_00000051378280006560848500000001898471825036658594_);}
	.st154{fill:url(#SVGID_00000129916717039607968280000000427262850607329720_);}
	.st155{fill:url(#SVGID_00000159448042641719189490000009171978182470453914_);}
	.st156{fill:url(#SVGID_00000073683782970141493260000009746452806179964591_);}
	.st157{fill:url(#SVGID_00000035527031713458808430000011908787548886278586_);}
	.st158{fill:url(#SVGID_00000179635549832888320300000000925760150795635847_);}
	.st159{fill:url(#SVGID_00000165919922583512453950000000204332602849866376_);}
	.st160{fill:url(#SVGID_00000062170689714408383150000007032416895289450157_);}
	.st161{fill:url(#SVGID_00000057141916402405605080000011252101760533835191_);}
	.st162{fill:url(#SVGID_00000121990831935979434590000006824613321221674405_);}
	.st163{fill:url(#SVGID_00000093873724888387520130000006734252635248752529_);}
	.st164{fill:url(#SVGID_00000020397107233848648000000007800420527639411110_);}
	.st165{fill:url(#SVGID_00000022536393342088995960000006645459196037174148_);}
	.st166{fill:url(#SVGID_00000065787242991549084970000015960315913932770488_);}
	.st167{fill:url(#SVGID_00000024686911199560684840000014708599912293386170_);}
	.st168{fill:url(#SVGID_00000150060089331355726730000008486653704091606921_);}
	.st169{fill:url(#SVGID_00000053508092819896386590000015227390925412455820_);}
	.st170{fill:url(#SVGID_00000167381001372425990730000001556437198227817863_);}
</style>
<g>
	<g>
		<path d="M2794,58.1h-70.5l-1.9,3.5l-80.8,146.7l-85.7-146.8l-1.9-3.4h-75.8l6.2,10.2l14.6,24c-23.4-22.2-59.2-34.3-105.7-34.3
			H2240v190.7L2127.1,61.5l-2-3.3h-58.3l-2,3.3L1936.5,278l-6,10.2h50.5v0.1h112.2v-50.8h-66l66.1-119.2l93.3,166.5l1.9,3.4h75.2
			l-0.1-0.2h115.5c99.6,0,150.2-38.9,150.2-115.7c0-13.3-1.7-25.6-5-36.8l90.4,149.2l2,3.2h44l1.9-3.4l125.5-216.4L2794,58.1
			 M2367.9,234.3h-61.3V110.2h86.4c46.7,0,68.5,18.9,68.5,59.5C2461.5,218,2437.9,234.3,2367.9,234.3z"/>
		<polyline points="3234,58.1 3227.2,58.1 3227.2,194.8 3054.4,59.5 3052.6,58.1 3007.2,58.1 3007.2,249 2894.2,61.4 2892.2,58.2 
			2833.9,58.2 2831.9,61.5 2703.5,277.8 2697.5,288 2766,288 2766.1,287.8 2860.4,287.8 2860.4,237 2794.3,237 2860.3,118.1 
			2953.6,284.6 2955.6,288 3030.8,288 3030.7,287.9 3068.7,287.9 3068.7,149.3 3240.9,286.4 3242.8,287.9 3288,287.9 3288,58.1 
			3234,58.1 		"/>
		<path d="M3505.9,58.1h-134.8c-47.3,0-63.2,14.6-63.2,58V230c0,43.2,15.9,57.9,63.2,57.9h134.8c47.3,0,63.3-14.6,63.3-57.9v-32.3
			l-6.7,0l-53-0.1h-6.8v35.4h-128.4V111.6h128.4v31.9l6.8,0l53,0.2l6.8,0v-27.7C3569.2,72.2,3553.8,58.1,3505.9,58.1"/>
		<polyline points="3832.2,234.3 3657.3,234.3 3657.3,194 3761.7,194 3761.7,143.3 3657.3,143.3 3657.3,110.1 3836.4,110.1 
			3836.4,58.1 3590.8,58.1 3590.8,287.9 3839,287.9 3839,234.3 3832.2,234.3 		"/>
	</g>
	<g>
		<path d="M765.8,9l-76.4,179.7L656.5,9h-66.6l-86.1,265.1L459.6,9h-83.1L250.6,294.7l18.8-119.4h-125l-9.6,61.5H187l-6,32.9
			c-30,11.9-80.9,7.5-102.6-31.5c-13.7-24.7-26.5-79.7,31.4-130.3c47.2-41.2,128.8-48.7,176-26.9c0,0,6-34.5,10.5-66.6
			c-90.6-31.5-161-5.2-208.1,24C24,78-6.9,138.6,1.3,220.9c9.5,95.6,133.3,155.8,238.1,95.1c1-0.6,1.7-1,2.4-1.4l-9.9,22.4h70.4
			l44.2-98.1h77.9l17.2,98.1h114.6l58.4-183.4L652,337h44.9l87.6-202.9l8.9,202.9h67.4L846.7,9H765.8 M373.4,175.3l28.5-63.6
			l12.3,63.6H373.4z"/>
		<polyline points="866.1,337 1054.1,337 1065.3,266.6 947.7,266.6 957.1,208.2 1059.3,208.2 1070.6,137.8 967.2,137.8 976.2,79.4 
			1093.8,79.4 1105,9 918.5,9 866.1,337 		"/>
		<polyline points="1784.1,116.1 1742.2,9 1665.1,9 1744.4,182 1720,337 1787.4,337 1808.1,200 1929.4,9 1850.8,9 1784.1,116.1 		
			"/>
		<path d="M1600.4,11.9c-74.7-17.2-152.2,42.3-173.1,132.9c-21,90.6,22.6,178.1,97.3,195.4c74.7,17.3,152.2-42.2,173.1-132.9
			C1718.6,116.6,1675,29.1,1600.4,11.9 M1626.7,204.7c-18.2,54.6-61.8,85.9-97.5,69.9c-35.6-16-49.8-73.1-31.6-127.6
			c18.2-54.6,61.8-85.8,97.4-69.9C1630.8,92.9,1644.9,150.1,1626.7,204.7z"/>
		<path d="M1333.1,10.9c-36.4-0.6-126.3,0-126.3,0h0.7l-52,325.4c0,0,107.8,0,151.6,0c62.4,0,153.7-92,70.6-167.1
			C1463.2,80.7,1378.5,11.7,1333.1,10.9 M1293.7,273.2c-37.2,0-59.4,0-59.4,0l10.4-65.4c0,0,14.1,0,56.5,0
			C1354.7,207.8,1353.2,273.2,1293.7,273.2z M1301.9,140.9c-37.2,0-46.8,0-46.8,0l10.4-60.9c0,0,1.5,0,43.8,0
			C1356.9,80,1347.3,140.9,1301.9,140.9z"/>
	</g>
	<path d="M1837.1,333.9c-15.3,0-27.2-11.8-27.2-27.2c0-15.1,11.8-27,27.2-27c15.5,0,27.1,11.9,27.1,27
		C1864.2,322,1852.6,333.9,1837.1,333.9 M1837.1,339.1c17.9,0,32.4-14.4,32.4-32.5c0-17.9-14.5-32.2-32.4-32.2
		c-18,0-32.5,14.3-32.5,32.2C1804.6,324.7,1819.1,339.1,1837.1,339.1z M1841.5,308.4c6.3-0.2,11.5-2.7,11.5-10.2
		c0.1-3-1.5-6.3-4.2-7.8c-2.7-1.9-5.8-1.9-8.8-1.9h-15.9v36.4h5.1v-16.4h7.1l10.3,16.4h5.8L1841.5,308.4z M1829.2,304.6v-12.3h9.8
		c4.5,0,8.8,0.6,8.8,5.8c0,7.2-7.4,6.5-12.4,6.5H1829.2z"/>
</g>
</svg>
