<?xml version="1.0" encoding="utf-8"?>
<!-- Generator: Adobe Illustrator 26.0.3, SVG Export Plug-In . SVG Version: 6.00 Build 0)  -->
<svg version="1.1" id="Layer_1" xmlns="http://www.w3.org/2000/svg" xmlns:xlink="http://www.w3.org/1999/xlink" x="0px" y="0px"
	 viewBox="0 0 3839 1054.6" style="enable-background:new 0 0 3839 1054.6;" xml:space="preserve">
<style type="text/css">
	.st0{fill:#D60700;}
	.st1{fill:#FFFFFF;}
	.st2{clip-path:url(#SVGID_00000137828165115895463370000005253967169147020986_);}
	.st3{fill:#034693;}
	.st4{fill:none;stroke:#FFFFFF;stroke-width:7.5011;stroke-miterlimit:10;}
	
		.st5{clip-path:url(#SVGID_00000121967001345779244860000014673823886608404904_);fill:none;stroke:#FFFFFF;stroke-width:7.5011;stroke-miterlimit:10;}
	.st6{enable-background:new    ;}
	.st7{fill:#00916D;}
	.st8{clip-path:url(#SVGID_00000044884531201285447630000005167598512711109823_);}
	.st9{clip-path:url(#SVGID_00000067921474348047813750000009356332524504683410_);}
	.st10{clip-path:url(#SVGID_00000150094155654572615930000000597649341964468635_);}
	.st11{clip-path:url(#SVGID_00000041253916370808006060000004089736684199898032_);}
	.st12{clip-path:url(#SVGID_00000146464795917883992990000008156529912629902464_);}
	.st13{clip-path:url(#SVGID_00000040573876355884893480000015717171994072444304_);}
	
		.st14{clip-path:url(#SVGID_00000003089556480686616270000013833352952264952972_);fill:none;stroke:#FFFFFF;stroke-width:7.5011;stroke-miterlimit:10;}
	.st15{clip-path:url(#SVGID_00000097499910522357086970000004406399004923507133_);}
	
		.st16{clip-path:url(#SVGID_00000075877298877746437790000015524487715055526797_);fill:none;stroke:#FFFFFF;stroke-width:7.5011;stroke-miterlimit:10;}
	
		.st17{clip-path:url(#SVGID_00000059270387501794626270000015852113581278107306_);fill:none;stroke:#FFFFFF;stroke-width:7.5011;stroke-miterlimit:10;}
	
		.st18{clip-path:url(#SVGID_00000155866657068494941760000013725046440469735324_);fill:none;stroke:#FFFFFF;stroke-width:7.5011;stroke-miterlimit:10;}
	
		.st19{clip-path:url(#SVGID_00000151508959092392205250000010521901588996604847_);fill:none;stroke:#FFFFFF;stroke-width:7.5011;stroke-miterlimit:10;}
	.st20{clip-path:url(#SVGID_00000086666590612536538170000007276903321041443767_);}
	.st21{fill:none;stroke:#FFFFFF;stroke-width:7.7707;stroke-miterlimit:10;}
	
		.st22{clip-path:url(#SVGID_00000039112858648907516020000001643866735701470605_);fill:none;stroke:#FFFFFF;stroke-width:7.7707;stroke-miterlimit:10;}
	.st23{clip-path:url(#SVGID_00000011030317657019958690000016121339403566457258_);}
	.st24{clip-path:url(#SVGID_00000106126573959092694880000010888860017639191686_);}
	.st25{clip-path:url(#SVGID_00000051367713206404331240000006821042813369844355_);}
	.st26{clip-path:url(#SVGID_00000008140681964223357410000011014091120215512992_);}
	.st27{clip-path:url(#SVGID_00000159438343220046134580000006307483816864910515_);}
	.st28{clip-path:url(#SVGID_00000007394938464404219330000010815046602145111991_);}
	
		.st29{clip-path:url(#SVGID_00000138559091917883172480000003952761886608043138_);fill:none;stroke:#FFFFFF;stroke-width:7.7707;stroke-miterlimit:10;}
	.st30{clip-path:url(#SVGID_00000150089230338224394380000006441539209920092343_);}
	
		.st31{clip-path:url(#SVGID_00000121981659052478303150000005102938953707294856_);fill:none;stroke:#FFFFFF;stroke-width:7.7707;stroke-miterlimit:10;}
	
		.st32{clip-path:url(#SVGID_00000172434386903130994930000006513296307416100487_);fill:none;stroke:#FFFFFF;stroke-width:7.7707;stroke-miterlimit:10;}
	
		.st33{clip-path:url(#SVGID_00000009576202678299221590000009646223685137553848_);fill:none;stroke:#FFFFFF;stroke-width:7.7707;stroke-miterlimit:10;}
	
		.st34{clip-path:url(#SVGID_00000155132514498468942140000007137385446199032748_);fill:none;stroke:#FFFFFF;stroke-width:7.7707;stroke-miterlimit:10;}
	
		.st35{clip-path:url(#SVGID_00000022539960138759784880000015222167686699146651_);fill:none;stroke:#FFFFFF;stroke-width:7.7707;stroke-miterlimit:10;}
	
		.st36{clip-path:url(#SVGID_00000083767056226698459500000009373729334613873050_);fill:none;stroke:#FFFFFF;stroke-width:7.7707;stroke-miterlimit:10;}
	
		.st37{clip-path:url(#SVGID_00000078016623569929481420000002216709368849997466_);fill:none;stroke:#FFFFFF;stroke-width:7.5011;stroke-miterlimit:10;}
	
		.st38{clip-path:url(#SVGID_00000147912713312886798270000005468713338080953487_);fill:none;stroke:#FFFFFF;stroke-width:7.5011;stroke-miterlimit:10;}
</style>
<g>
	<g>
		<g>
			<g>
				<g>
					<path d="M0,206C0,70,87.1,4.7,206.5,4.7c108.9,0,206.5,40.1,206.5,170.8V253H260.6v-69.7c0-34.9-14.8-54.9-50.5-54.9
						c-42.7,0-49.7,41.8-49.7,63.6v344.2c0,18.3,0,63.6,46.2,63.6c35.7,0,51.4-16.6,51.4-52.3v-89.8h-56.6v-129h211.8v383.5H272.8
						v-56.6H271c-28.8,47.1-67.1,68-123.8,68C32.2,723.6,0,627.8,0,522.3V206z"/>
					<path d="M525.5,16h212.6l130.7,696.3H700.7l-14.8-123.8H573.4l-16.6,123.8H396.5L525.5,16z M590,464.8h80.2L632.7,124H631
						L590,464.8z"/>
				</g>
				<g>
					<path d="M2466.5,11.3H2823v134.2h-196.1v138.6h171.7v134.2h-171.7v155.1h203.9v134.2h-364.3V11.3z"/>
					<path d="M2956.8,11.3h212.6l130.7,696.3H3132l-14.8-123.8h-112.4l-16.6,123.8h-160.4L2956.8,11.3z M3021.3,460.1h80.2
						L3064,119.4h-1.7L3021.3,460.1z"/>
				</g>
			</g>
			<path d="M3702.3,611.1c-0.1-12.1,0-24.1,0-35.1v-32.4v-90.4c0-58.4-36.6-99.3-93.2-110.7v-1.7c85.4-26.1,96.7-79.3,96.7-161.2
				c0-125.5-60.1-168.2-203.1-168.2H3291v696.3h160.4V407h29.6c45.3,0,61,17.4,61,57.5V576c0,46.2,0,104.8,0,131.6h160.4V611.1z
				 M3490.5,288.5h-39.2V129.9h31.4c62.7,0,62.7,27.9,62.7,76.7C3545.4,251.9,3545.4,288.5,3490.5,288.5z"/>
		</g>
	</g>
	<g>
		<g id="g10_00000167359816112328835760000011157405804417670062_" transform="matrix(1.3333333,0,0,-1.3333333,0,132)">
			<g id="g12_00000103239605334319085470000004966459667731092120_" transform="scale(0.1)">
				<g>
					<g>
						<path d="M16473.8-6103.5c179.1,532.2,318.6,947,412.9,1227.3h-483.2v-1227.3H16473.8z"/>
					</g>
					<g>
						<g>
							<g>
								<path d="M14214.7-4876.2h-46V-4982v-56.2l-56.2-0.1l-158.8-0.3v-4.7v-925.5v-4.4l155.8-0.7l56-0.3v-56v-73.4h47.1
									C14211.5-5941.5,14210.4-5309.7,14214.7-4876.2z"/>
							</g>
						</g>
					</g>
					<g>
						<path d="M11921.5-4876.2l-0.6-110.4l-0.3-56h-56h-525.8c134.9-49.9,263-135.5,368.5-249c85.1-91.5,152-197,198.9-313.6
							c50.8-126.4,76.6-262.8,76.7-405.3c0-31.4-1.5-62.4-4.5-93.1h44.3v1111.3c0,40,1.2,78.6,3.4,116H11921.5z"/>
					</g>
				</g>
			</g>
			<g id="g12_00000029036266397993840040000012444335766458482363_" transform="scale(0.1)">
				<g>
					<g>
						<g>
							<path d="M17660.9-4045.8c-237.7,0-382.9-109.6-469-219.5v-52.1h961.6C18069.4-4195,17914.9-4045.8,17660.9-4045.8z"/>
							<path d="M15606.9-4013.6c363.8,0,737-2.7,740.7-2.7l55.8-0.4v-55.8v-322.3c342.7,34.8,586.6,193.5,775.4,502.4h13.1v-287.2
								c98,102.1,246.8,190.1,469,190.1c193.1,0,363.3-81,492.1-234.4c26.9-32,49.3-63.9,67.6-93.5h23.5v2875.9h-1588.3v-967.3
								h424.8V-3082c0-268-117.6-392.2-385.6-392.2c-346.4,0-346.4,339.9-346.4,477.1v2581.8c0,163.4,52.3,477.1,372.6,477.1
								c268,0,379.1-150.3,379.1-411.8v-522.9h1143.8v581.7c0,980.4-732,1281.1-1549.1,1281.1c-895.4,0-1549.1-490.2-1549.1-1509.8
								v-2372.6c0-429.6,71.4-837.9,274.9-1121.4C15478.5-4013.6,15540.5-4013.6,15606.9-4013.6z"/>
							<path d="M15464.4-4070c171.4-205.6,424.1-332.3,786.3-332.3c33,0,65.1,1.1,96.5,3v326.7c0,0-372.5,2.7-740.3,2.7
								C15559-4069.8,15511.3-4069.9,15464.4-4070z"/>
						</g>
					</g>
					<path d="M12251.9-4352.2h1650.4v279.7c-280.6,0-748.3,0-798.7,0C12747.8-4072.5,12435.4-4120,12251.9-4352.2z"/>
					<g>
						<g>
							<path d="M9982.1-4352.2h926.6v265.9c-76,0-147.2,0-209.2,0C10376.9-4086.3,10139.6-4187.7,9982.1-4352.2z"/>
							<path d="M9745.3-293.3v-4058.9h161.2c13.9,16.5,28.5,32.6,43.7,47.9c86.6,87.8,192.6,155.6,315,201.7
								c127.8,48.1,273.9,72.5,434.3,72.5h209.2V870.1H9013.3l-339.9-2588.3h-13.1L8320.4,870.1H6425v-5222.3h1163.4v4058.9h13.1
								l673.2-4058.9H9059l673.2,4058.9H9745.3z"/>
						</g>
					</g>
				</g>
			</g>
			<g id="g12_00000013872677274455631700000006027324885276557979_" transform="scale(0.1)">
				<g>
					<g>
						<g>
							<path d="M11170.2-4352.2h697.8l1.4,265.9c0,0-349.5,0-699.2,0V-4352.2z"/>
							<path d="M12372.8-3345.7v1163.4h1287.6v1006.6h-1287.6v1039.2h1470.6V870.1h-2673.3v-4900.2h699.2h56.6l-0.3-56.6l-1.4-265.6
								h257.8c45,65.2,99.6,120.3,164.1,165.6c93.6,65.7,207.2,110.9,347.2,138c113.8,22.1,244.2,32.4,410.2,32.4h798.7v670.6
								H12372.8z"/>
						</g>
					</g>
				</g>
			</g>
			<g id="g12_00000003797859749811513010000002513514601465667205_" transform="scale(0.1)">
				<g>
					<path d="M13060.8-6029c-16.9,0-30.6,13.5-30.6,30.1c0,16.7,13.7,30.1,30.6,30.1h836.7v443.6h-1320.7V-6093
						c0-202.7,139.3-333.6,354.9-333.6h1177.5v396.5l-235,1.1H13060.8z"/>
					<path d="M12902.5-4557.5c-207,0-325.7-132.2-325.7-362.6v-548.8h1320.7v425.6h-843.9c-16.9,0-30.6,9.6-30.6,26.2
						c0,16.6,13.7,33.8,30.6,33.8h402.8l656,1.2v424.5H12902.5z"/>
					<path d="M13103.6-4072.5c-567.5,0-1024.6-120.5-1024.6-919.6c0,0,0-1080.4,0-1111.6c0-205.3,76.2-808,863.3-808h1167v429
						h-1177.5c-121,0-223.9,36.7-297.5,106c-74.4,70-113.7,168.2-113.7,283.9v1172.9c0,262.3,142.8,418.9,382,418.9h1209.9v428.7
						C14112.4-4072.5,13176.1-4072.5,13103.6-4072.5z"/>
				</g>
				<g>
					<g>
						<path d="M10532.7-5920.8c0,0,355.6-13.4,405.5-13.4c49.8,0,71.5-1.2,68.7-37.6c-2.3-29.4-38.9-25.7-73.6-25.7H9768.6v-411.9
							l0-21.5h953.1c8.1,0,18.2-0.2,30-0.4c117.5-2.1,429.7-7.6,593.8,153.5c71.2,70,107.4,165.2,107.4,283.1
							c0,313.8-214.3,477.9-426.1,477.9c-35.9,0-68.9-0.1-99.2-0.1c-269.6-0.5-333.7-0.6-452.4,44.2
							c-199.1,75.2-308.8,239.9-308.8,463.6c0,157.5,46.4,281.6,137.9,368.9c146,139.3,353.4,134,369.5,133.4l1193.3-0.6l2.2,420.9
							c0,0-772.5,0-1169.9,0c-660.2,0-963.2-424.3-956.4-946.6C9748.7-5461.5,10047.8-5892,10532.7-5920.8z"/>
					</g>
					<g>
						<path d="M11122.7-5051.3c0,0-418.8,5.6-442.9,5.6c-24.2,0-36,14.6-33,35.4c3,20.8,6,23.8,33.2,23.8c27.2,0,1184.7,0,1184.7,0
							l2.2,422.9l-1195,0.6c-1.9,0.1-198.1,7.2-329.1-118.2c-79.7-76.3-120.2-186.6-120.2-327.9c0-254.6,148.1-364,272.4-411
							c109.1-41.2,171.2-41.1,432.4-40.6c30.3,0.1,63.3,0.1,99.3,0.1c127.8,0,247.2-50.8,336.2-142.9
							c95.6-99,146.1-234.3,146.1-391.2c0-133.5-41.8-242.3-124.2-323.2c-157.4-154.7-427.3-170.3-576.4-170.3
							c-22.2,0-41.8,0.3-57.8,0.6c-11.4,0.2-21.2,0.4-29,0.4h-953.1l-0.1-431.8c0,0,1120-2.8,1293.3,7.1
							c361.8,20.6,865.1,335.8,864.9,901.4C11926.5-5444.9,11500.2-5081,11122.7-5051.3z"/>
					</g>
				</g>
				<g>
					<g>
						<path d="M17503.4-6409.7h867.7c-82.4,254.4-564.3,1741.3-614.1,1879.3c-17.8,49.3-48.6,75.8-86.8,74.7
							c-45.2-1.3-90.4-40-105.2-90c-31.6-106.6-679.8-2055.7-783-2366h482.1l239.4,672.8V-6409.7z M17671.3-5724.8l88.9-247.6
							h-189.4L17671.3-5724.8z"/>
					</g>
					<g>
						<path d="M16347.2-4553.3c0,0-809.9-0.1-1260.2,0h-0.2c-248.5,0-339.4-181.2-341.6-350.8c-1-71.3-0.4-683.8-0.1-1012.9
							c0.1-97.6,0.2-171.5,0.2-201.3c0-109.4,101.2-304.8,302.8-304.8h826.4v892.4h-623c0-144.7,0-285.2,0-358.4v-51.5
							c0-14.1,0-16.3,17.4-16.3h176.7v-56.3h-176.7c-47.5,0-73.7,25.8-73.7,72.6v51.5c0,175.8,0,739.4,0,818.2
							c0,31.1,10.6,83.2,81.1,83.2h1071L16347.2-4553.3z"/>
					</g>
					<g>
						<path d="M17503.4-6911.8h1526.3l-793.4,2437.5c0,0-145,428.6-575.3,428.6c-430.4,0-557.6-359.4-579.9-428.6
							c-6.4-20-524.8-1560.3-733.9-2181.8l0,1612.1h-1071c-17,0-24.8,0-24.8-27c0-41.7,0-219.4,0-403.5h622.9
							c32.6,0,56.3-23.2,56.3-55.3v-903.8c0-26.9-20.3-45.8-49.3-45.8h-833.4c-231.2,0-359,213.5-359,361
							c0,29.8-0.1,103.7-0.2,201.2c-0.3,329.2-0.8,942,0.2,1013.7c1.5,110.4,35.6,210.2,96.2,281c70.2,82,174.5,125.3,301.7,125.3
							h0.2c450.3-0.1,1260.2,0,1260.2,0v424.5c0,0-838.1,6.2-1241.3,0c-538.6-8.2-830.3-350.8-834.8-792.7
							c-4.5-442-3.3-1103.9-2.1-1246.7c4.2-509.9,380.9-806.1,856.9-799.8h1596.7c76.3,229.2,756.8,2275.3,788.4,2382
							c21.8,73.5,88,128.3,157.5,130.3c63.4,1.8,115-38.9,141.4-111.8c54.5-151,603.3-1845.8,626.6-1917.9l11.9-36.8h-945V-6911.8z"
							/>
					</g>
				</g>
			</g>
		</g>
		<g>
			<g>
				<g>
					<path d="M441.5,828.9c-2.3-3.8-5.6-4.2-9.6-4.2h-2.3v33.7c3.5,0,7.1-0.2,9.9-2.4c3.8-3.2,4.7-8.9,4.7-13.6
						C444.2,838.1,443.6,832.5,441.5,828.9z"/>
				</g>
				<g>
					<path d="M918.6,884.4h16.1c-3-17-6.1-34.1-7.9-51.3C925.1,850.4,921.8,867.4,918.6,884.4z"/>
				</g>
				<g>
					<path d="M352.9,834c-1.2-5.5-3.9-9.6-10-9.6c-3.6,0-5.9,1.4-7.9,4.2c-4.1,5.8-4.1,22.3-4.1,29.4c0,10.6-0.3,21.5,1.4,32
						c1.1,6.2,3.2,13.2,10.8,13.2c4.9,0,7.7-2.9,9.4-7.3c2.7-7.7,2.6-25.2,2.6-34C355,852.8,355,843.1,352.9,834z"/>
				</g>
				<g>
					<path d="M769.2,828.9c-2.3-3.8-5.6-4.2-9.6-4.2h-2.3v33.7c3.5,0,7.1-0.2,9.9-2.4c3.8-3.2,4.7-8.9,4.7-13.6
						C772,838.1,771.4,832.5,769.2,828.9z"/>
				</g>
				<g>
					<path d="M575.4,824.9h-1.8V858h1.2c11.1,0,13.6-6.1,13.6-16.1C588.5,832.8,586.1,824.9,575.4,824.9z"/>
				</g>
				<g>
					<path d="M1357.2,916c-13.4-7.1-25.2-16.8-35.3-29c-18.9-22.9-30-53.5-30.4-83.9c-0.1-7.2,0.2-14.2,1-21H0v163.6h1295v-14.1
						v-7.5h7.5h74.5C1370.2,922.1,1363.6,919.3,1357.2,916z M103.1,827.4c-2.7-1.5-5.6-2.6-8.8-2.6c-18.3,0-18.5,27.3-18.5,40.2
						c0,13.2,1.1,37.6,19.3,37.6c3,0,5.3-0.6,8-2V913c-4.1,2.4-6.4,2.9-11.1,2.9c-27,0-30.6-29.4-30.6-50.2
						C61.4,845,64,812,91.8,812c4.7,0,7.3,0.8,11.4,3V827.4z M196,889.7c-2.4,14.9-7.7,26.2-24.6,26.2c-8.6,0-16.1-3.6-20.3-11.4
						c-5.8-10.5-6.2-30.9-6.2-42.9c0-11.8,0.3-26.4,5.5-37.2c4.2-8.8,11.1-12.3,20.8-12.3c8.5,0,15.5,3.3,19.9,10.8
						c6.2,10.8,6.5,30.5,6.5,42.9C197.5,873.9,197.2,881.8,196,889.7z M280.1,914.6h-35.9V813.4h13.6V903h22.3V914.6z M367.8,889.7
						c-2.4,14.9-7.7,26.2-24.6,26.2c-8.6,0-16.1-3.6-20.3-11.4c-5.8-10.5-6.2-30.9-6.2-42.9c0-11.8,0.3-26.4,5.5-37.2
						c4.2-8.8,11.1-12.3,20.8-12.3c8.5,0,15.5,3.3,19.9,10.8c6.2,10.8,6.5,30.5,6.5,42.9C369.3,873.9,369,881.8,367.8,889.7z
						 M448.1,914.6l-18.5-47.2v47.2H416V813.4h18c5.5,0,10.2,0.3,14.7,3.8c6.8,5.2,8.6,14.6,8.6,22.6c0,9.9-2.7,22.9-14.6,25.6
						l19.3,49.1H448.1z M593.9,865.1c-5.8,4.4-13.3,4.5-20.3,4.5v44.9H560V813.4h17.9c5.6,0,9.9,0.2,14.9,3.2c8.3,5,10,16.1,10,25
						C602.7,850,600.9,859.7,593.9,865.1z M695.5,889.7c-2.4,14.9-7.7,26.2-24.6,26.2c-8.6,0-16.1-3.6-20.3-11.4
						c-5.8-10.5-6.2-30.9-6.2-42.9c0-11.8,0.3-26.4,5.5-37.2c4.2-8.8,11.1-12.3,20.8-12.3c8.5,0,15.5,3.3,19.9,10.8
						c6.2,10.8,6.5,30.5,6.5,42.9C697.1,873.9,696.8,881.8,695.5,889.7z M775.9,914.6l-18.5-47.2v47.2h-13.6V813.4h18
						c5.5,0,10.2,0.3,14.7,3.8c6.8,5.2,8.6,14.6,8.6,22.6c0,9.9-2.7,22.9-14.6,25.6l19.3,49.1H775.9z M869.8,825.4h-15.5v89.2H841
						v-89.2h-15.5v-12h44.3V825.4z M940.4,914.6l-3.8-19.7h-20l-3.8,19.7h-13.2l22-101.1h10.8l21.5,101.1H940.4z M1012.9,914.6H995
						V813.4h18.5c17,0,21.7,12,21.7,27c0,5.6-0.6,11.7-3.8,16.5c-2.3,3.5-5,4.9-8.9,6.2c3.2,1.2,6.5,2.7,8.9,5.3
						c4.4,4.7,5.3,12.1,5.3,18.3C1036.7,903.2,1031,914.6,1012.9,914.6z M1119.4,914.6h-35.9V813.4h13.6V903h22.3V914.6z
						 M1197.3,824.9h-22.6v32.1h20v11.5h-20V903h22.6v11.5h-36.2V813.4h36.2V824.9z"/>
				</g>
				<g>
					<path d="M181.1,834c-1.2-5.5-3.9-9.6-10-9.6c-3.6,0-5.9,1.4-7.9,4.2c-4.1,5.8-4.1,22.3-4.1,29.4c0,10.6-0.3,21.5,1.4,32
						c1.1,6.2,3.2,13.2,10.8,13.2c4.9,0,7.7-2.9,9.4-7.3c2.7-7.7,2.6-25.2,2.6-34C183.2,852.8,183.2,843.1,181.1,834z"/>
				</g>
				<g>
					<path d="M680.7,834c-1.2-5.5-3.9-9.6-10-9.6c-3.6,0-5.9,1.4-7.9,4.2c-4.1,5.8-4.1,22.3-4.1,29.4c0,10.6-0.3,21.5,1.4,32
						c1.1,6.2,3.2,13.2,10.8,13.2c4.9,0,7.7-2.9,9.4-7.3c2.7-7.7,2.6-25.2,2.6-34C682.8,852.8,682.8,843.1,680.7,834z"/>
				</g>
				<g>
					<path d="M1022,840.4c0-7.9-2.4-15.9-11.8-15.9h-2.3V858h0.9C1020.5,858,1022,850.3,1022,840.4z"/>
				</g>
				<g>
					<path d="M1007.9,868.8v34.1c2.9,0,5.9,0,8.5-1.2c5.6-2.6,6.2-10,6.2-15.3C1022.6,875.3,1020.4,868.8,1007.9,868.8z"/>
				</g>
			</g>
			<g>
				<g>
					<path d="M2764.4,884.4h16.1c-3-17-6.1-34.1-7.9-51.3C2770.9,850.4,2767.6,867.4,2764.4,884.4z"/>
				</g>
				<g>
					<path d="M2456.8,782.2l53.3,163.6h1192.2V782.2H2456.8z M2694.7,899.5c-3,10.8-10.2,16.4-21.4,16.4
						c-17.3,0-22.7-12.1-25.2-27.1c-1.2-8-1.5-16.2-1.5-24.3c0-11.7,0.3-24.6,3.6-35.8c3.3-10.9,10.9-16.5,22.4-16.5
						c14.4,0,20.5,7.6,24.3,20.6l-12.7,5.3c-1.4-6.8-3.2-14-11.7-14c-4.2,0-6.2,1.7-8.2,5.3c-3.3,6.2-3.6,26.8-3.6,34.6
						c0,9.2,0.2,18.7,1.8,27.7c1.2,6.2,3.2,11.4,10.5,11.4c11.4,0,11.7-14.7,11.7-22.9v-7.4h-11.8v-11.5h24.7v3.9
						C2697.6,876.3,2697.7,888.8,2694.7,899.5z M2786.3,914.6l-3.8-19.7h-20l-3.8,19.7h-13.2l22-101.1h10.8l21.5,101.1H2786.3z
						 M2901.8,914.6c-0.9-14-2-28.1-2.6-42c-0.2-4.6-0.5-8.9-0.6-13.5c-0.2-4.7,0.3-9.4-0.5-14.1c-3.6,23.4-8.5,46.4-12.9,69.6h-9.1
						c-4.9-23-10.5-46.1-13.3-69.6l-3.9,69.6h-12.7l8.3-101.1h11.7l8.8,41.2c0.5,2.4,1.2,4.9,1.7,7.3c1.5,8.2,2.7,16.4,3.8,24.6
						c0.3-4.9,1.5-9.6,2.3-14.3c0.6-3.6,1.1-7.4,1.7-11.1c0.5-2.4,1.1-4.7,1.5-7.1l7.9-40.6h11.8l9.4,101.1H2901.8z M3004.3,824.9
						h-22.6v32.1h20v11.5h-20V903h22.6v11.5h-36.2V813.4h36.2V824.9z M3139.1,915.9c-5.6,0-10.3-1.4-14.9-4.9v-13.5
						c4.1,3,8,5.3,13.2,5.3c8,0,12-6.4,12-13.8c0-20.9-28.4-24.1-28.4-51.1c0-14.4,7.4-25.8,22.9-25.8c5.6,0,8.9,0.8,13.9,3.3
						l-0.2,13.3c-3.3-2.6-6.8-4.6-11.1-4.6c-7.7,0-12.3,6.2-12.3,13.5c0,18.7,28.2,23.4,28.2,51.3
						C3162.6,903.2,3154.3,915.9,3139.1,915.9z M3239.8,871v43.5h-13.6V871l-21.1-57.6h14.4l8.2,27.1c2,6.5,3.5,11.5,5,19.7
						c0.8-4.5,2.7-14.9,3.9-20l6.7-26.8h14.1L3239.8,871z M3321.8,915.9c-5.6,0-10.3-1.4-14.9-4.9v-13.5c4.1,3,8,5.3,13.2,5.3
						c8,0,12-6.4,12-13.8c0-20.9-28.4-24.1-28.4-51.1c0-14.4,7.4-25.8,22.9-25.8c5.6,0,8.9,0.8,14,3.3l-0.2,13.3
						c-3.3-2.6-6.8-4.6-11.1-4.6c-7.7,0-12.3,6.2-12.3,13.5c0,18.7,28.2,23.4,28.2,51.3C3345.3,903.2,3337,915.9,3321.8,915.9z
						 M3433.6,825.4h-15.5v89.2h-13.3v-89.2h-15.5v-12h44.3V825.4z M3519.3,824.9h-22.6v32.1h20v11.5h-20V903h22.6v11.5H3483V813.4
						h36.2V824.9z M3625.9,914.6c-0.9-14-2-28.1-2.6-42c-0.2-4.6-0.5-8.9-0.6-13.5c-0.2-4.7,0.3-9.4-0.5-14.1
						c-3.6,23.4-8.5,46.4-12.9,69.6h-9.1c-4.9-23-10.5-46.1-13.3-69.6l-3.9,69.6h-12.7l8.3-101.1h11.7l8.8,41.2
						c0.5,2.4,1.2,4.9,1.7,7.3c1.5,8.2,2.7,16.4,3.8,24.6c0.3-4.9,1.5-9.6,2.3-14.3c0.6-3.6,1.1-7.4,1.7-11.1
						c0.5-2.4,1.1-4.7,1.5-7.1l7.9-40.6h11.8l9.4,101.1H3625.9z"/>
				</g>
			</g>
		</g>
	</g>
	<g>
		<path d="M3722.8,32.3h-20.3V19.7h55.6v12.5h-20.3v55.3h-14.9V32.3z"/>
		<path d="M3765.9,19.7h21l15.9,46.7h0.2l15-46.7h21v67.9h-14V39.5h-0.2l-16.6,48.1h-11.5L3780.1,40h-0.2v47.6h-14V19.7z"/>
	</g>
	<g class="st6">
		<g>
			<path d="M2558.4,1023.2h-11.2v-6.9h30.5v6.9h-11.2v30.4h-8.2V1023.2z"/>
		</g>
		<g>
			<path d="M2582,1016.3h11.5l8.7,25.6h0.1l8.2-25.6h11.5v37.3h-7.7v-26.4h-0.1l-9.1,26.4h-6.3l-9.1-26.2h-0.1v26.2h-7.7V1016.3z"/>
		</g>
	</g>
</g>
</svg>
