<?xml version="1.0" encoding="utf-8"?>
<!-- Generator: Adobe Illustrator 26.0.3, SVG Export Plug-In . SVG Version: 6.00 Build 0)  -->
<svg version="1.1" id="Layer_1" xmlns="http://www.w3.org/2000/svg" xmlns:xlink="http://www.w3.org/1999/xlink" x="0px" y="0px"
	 viewBox="0 0 3839 1695.3" style="enable-background:new 0 0 3839 1695.3;" xml:space="preserve">
<style type="text/css">
	.st0{fill:#FFFFFF;}
	.st1{fill:#FFA300;}
	.st2{fill:#D60700;}
	.st3{fill:#034693;}
	.st4{fill:none;stroke:#FFFFFF;stroke-width:11.9686;stroke-miterlimit:10;}
	
		.st5{clip-path:url(#SVGID_00000030450202474188845660000000208070634823950013_);fill:none;stroke:#FFFFFF;stroke-width:11.9686;stroke-miterlimit:10;}
	
		.st6{clip-path:url(#SVGID_00000147196604246689832150000018331725466118315678_);fill:none;stroke:#FFFFFF;stroke-width:11.9686;stroke-miterlimit:10;}
	
		.st7{clip-path:url(#SVGID_00000013886461781912249360000005551962422234611372_);fill:none;stroke:#FFFFFF;stroke-width:11.9686;stroke-miterlimit:10;}
	
		.st8{clip-path:url(#SVGID_00000093886480525113823390000000990317714858254979_);fill:none;stroke:#FFFFFF;stroke-width:11.9686;stroke-miterlimit:10;}
	
		.st9{clip-path:url(#SVGID_00000076574785335177001480000014461492136541555383_);fill:none;stroke:#FFFFFF;stroke-width:11.9686;stroke-miterlimit:10;}
	
		.st10{clip-path:url(#SVGID_00000182512460193242765610000018174044347484034233_);fill:none;stroke:#FFFFFF;stroke-width:11.9686;stroke-miterlimit:10;}
	.st11{fill:none;stroke:#000000;stroke-width:11.9686;stroke-miterlimit:10;}
	
		.st12{clip-path:url(#SVGID_00000108306431496840301300000003320511168950341255_);fill:none;stroke:#000000;stroke-width:11.9686;stroke-miterlimit:10;}
	
		.st13{clip-path:url(#SVGID_00000029761961681460639390000006403722240749627015_);fill:none;stroke:#000000;stroke-width:11.9686;stroke-miterlimit:10;}
	
		.st14{clip-path:url(#SVGID_00000015318963494305252850000017761141938613633416_);fill:none;stroke:#000000;stroke-width:11.9686;stroke-miterlimit:10;}
	
		.st15{clip-path:url(#SVGID_00000168109248199883410050000017805953698787454601_);fill:none;stroke:#000000;stroke-width:11.9686;stroke-miterlimit:10;}
	
		.st16{clip-path:url(#SVGID_00000014628435987449278980000011068882477690466951_);fill:none;stroke:#000000;stroke-width:11.9686;stroke-miterlimit:10;}
	
		.st17{clip-path:url(#SVGID_00000038388521472721843030000012265906526591501996_);fill:none;stroke:#000000;stroke-width:11.9686;stroke-miterlimit:10;}
	.st18{fill:none;}
</style>
<g>
	<g>
		<path d="M3773.5,429.5H2766.5L2623.6,42.8c-9.5-25.6-34.1-42.8-61.4-42.8H1276.8c-27.3,0-51.9,17.2-61.4,42.8l-142.9,386.7H65.5
			C29.4,429.5,0,458.8,0,494.9v904.7h3839V494.9C3839,458.8,3809.6,429.5,3773.5,429.5z M3804.5,1365.2H34.5V494.9
			c0-17.1,13.9-31,31-31H1075c13,0,24.6-8.1,29-20.2l143.8-389c4.5-12.2,16.1-20.2,29-20.2h1285.3c13,0,24.6,8.1,29,20.2l143.8,389
			c4.5,12.2,16.1,20.2,29,20.2h1009.5c17.1,0,31,13.9,31,31V1365.2z"/>
		<g>
			<path d="M3440.4,680.4h-29.5v149h36.8c51.6,0,51.6-34.4,51.6-76.9C3499.3,706.6,3499.3,680.4,3440.4,680.4z"/>
			<polygon points="762.1,674.9 723.6,995 798.9,995 763.7,674.9 			"/>
			<polygon points="3045.6,670.6 3007.1,990.6 3082.4,990.6 3047.2,670.6 			"/>
		</g>
		<g>
			<polygon points="2400.6,326.4 2386.4,361.4 2413.2,361.4 			"/>
		</g>
	</g>
	<g>
		<path d="M1334.7,1583.2h19.9c-3.8-17.5-7.5-35.1-9.8-52.7C1342.8,1548.2,1338.7,1565.7,1334.7,1583.2z"/>
		<path d="M3146.6,1531.4c-1.5-5.6-4.9-9.8-12.4-9.8c-4.5,0-7.3,1.4-9.8,4.4c-5.1,5.9-5.1,22.9-5.1,30.3c0,10.9-0.4,22.2,1.7,32.9
			c1.3,6.4,4,13.6,13.4,13.6c6,0,9.6-3,11.7-7.5c3.4-8,3.2-25.9,3.2-35C3149.2,1550.7,3149.2,1540.7,3146.6,1531.4z"/>
		<path d="M1164.1,1526.1c-2.8-3.9-7-4.4-11.9-4.4h-2.8v34.6c4.3,0,8.8-0.2,12.2-2.5c4.7-3.3,5.8-9.2,5.8-14
			C1167.5,1535.6,1166.7,1529.8,1164.1,1526.1z"/>
		<path d="M1753.9,1522h-2.1v80h0.8c16,0,21.4-6.1,23.9-18.6c1.1-6.4,1.3-13,1.3-19.4c0-6.7-0.2-13.6-1.1-20.3
			C1774.7,1531.8,1771,1522,1753.9,1522z"/>
		<path d="M2870.6,1531.4c-1.5-5.6-4.9-9.8-12.4-9.8c-4.5,0-7.3,1.4-9.8,4.4c-5.1,5.9-5.1,22.9-5.1,30.3c0,10.9-0.4,22.2,1.7,32.9
			c1.3,6.4,4,13.6,13.4,13.6c6,0,9.6-3,11.7-7.5c3.4-8,3.2-25.9,3.2-35C2873.2,1550.7,2873.2,1540.7,2870.6,1531.4z"/>
		<path d="M2641.6,1522h-2.1v80h0.8c16,0,21.4-6.1,23.9-18.6c1.1-6.4,1.3-13,1.3-19.4c0-6.7-0.2-13.6-1.1-20.3
			C2662.5,1531.8,2658.7,1522,2641.6,1522z"/>
		<path d="M0,1429.1l0,266.2h3839v-266.2H0z M2762.4,1476.3l12.8,6.6l-20.1,17.9l-8.8-4.4L2762.4,1476.3z M564.1,1476.3l12.8,6.6
			l-20.1,17.9l-8.8-4.4L564.1,1476.3z M181.9,1615.6c-7,0-12.8-1.4-18.4-5v-13.9c5.1,3.1,10,5.5,16.4,5.5c10,0,14.9-6.6,14.9-14.2
			c0-21.5-35.2-24.8-35.2-52.6c0-14.8,9.2-26.5,28.4-26.5c7,0,11.1,0.8,17.3,3.4l-0.2,13.7c-4.1-2.7-8.5-4.7-13.7-4.7
			c-9.6,0-15.2,6.4-15.2,13.9c0,19.2,35,24,35,52.7C211,1602.5,200.7,1615.6,181.9,1615.6z M288.5,1569.4v44.8h-16.9v-44.8
			l-26.2-59.3h17.9l10.2,27.9c2.4,6.7,4.3,11.9,6.2,20.3c0.9-4.7,3.4-15.3,4.9-20.6l8.3-27.6h17.5L288.5,1569.4z M372.1,1615.6
			c-7,0-12.8-1.4-18.4-5v-13.9c5.1,3.1,10,5.5,16.4,5.5c10,0,14.9-6.6,14.9-14.2c0-21.5-35.2-24.8-35.2-52.6
			c0-14.8,9.2-26.5,28.4-26.5c7,0,11.1,0.8,17.3,3.4l-0.2,13.7c-4.1-2.7-8.5-4.7-13.7-4.7c-9.6,0-15.2,6.4-15.2,13.9
			c0,19.2,35,24,35,52.7C401.2,1602.5,390.9,1615.6,372.1,1615.6z M492.5,1522.5h-19.2v91.8h-16.6v-91.8h-19.2v-12.3h54.9V1522.5z
			 M580.5,1522h-28v33.1h24.8v11.9h-24.8v35.4h28v11.9h-45v-104.1h45V1522z M694.5,1614.2c-1.1-14.4-2.4-28.9-3.2-43.2
			c-0.2-4.7-0.6-9.2-0.8-13.9c-0.2-4.8,0.4-9.7-0.6-14.5c-4.5,24-10.5,47.7-16,71.6h-11.3c-6-23.7-13-47.4-16.6-71.6l-4.9,71.6
			h-15.8l10.3-104.1h14.5l10.9,42.4c0.6,2.5,1.5,5,2.1,7.5c1.9,8.4,3.4,16.9,4.7,25.3c0.4-5,1.9-9.8,2.8-14.7
			c0.8-3.7,1.3-7.6,2.1-11.4c0.6-2.5,1.3-4.8,1.9-7.3l9.8-41.8h14.7l11.7,104.1H694.5z M803.4,1522h-28v33.1h24.8v11.9h-24.8v35.4
			h28v11.9h-45v-104.1h45V1522z M961.3,1563.3c-7.1,4.5-16.6,4.7-25.2,4.7v46.2h-16.9v-104.1h22.2c7,0,12.2,0.2,18.4,3.3
			c10.3,5.1,12.4,16.5,12.4,25.7C972.2,1547.7,969.9,1557.7,961.3,1563.3z M1080,1588.6c-3,15.3-9.6,27-30.5,27
			c-10.7,0-19.9-3.7-25.2-11.7c-7.1-10.8-7.7-31.8-7.7-44.2c0-12.2,0.4-27.2,6.8-38.2c5.3-9.1,13.7-12.6,25.8-12.6
			c10.5,0,19.2,3.4,24.6,11.1c7.7,11.1,8.1,31.4,8.1,44.2C1081.9,1572.4,1081.5,1580.5,1080,1588.6z M1172.4,1614.2l-23-48.5v48.5
			h-16.9v-104.1h22.4c6.8,0,12.6,0.3,18.2,3.9c8.5,5.3,10.7,15,10.7,23.3c0,10.1-3.4,23.6-18.1,26.4l23.9,50.6H1172.4z
			 M1281.5,1522.5h-19.2v91.8h-16.6v-91.8h-19.2v-12.3h54.9V1522.5z M1361.8,1614.2l-4.7-20.3h-24.8l-4.7,20.3h-16.4l27.3-104.1
			h13.4l26.7,104.1H1361.8z M1463.2,1522.5H1444v91.8h-16.6v-91.8h-19.2v-12.3h54.9V1522.5z M1523.2,1614.2h-16.9v-104.1h16.9
			V1614.2z M1621.6,1522h-28.2v32.9h25.6v11.9h-25.6v47.4h-16.9v-104.1h45.2V1522z M1783.4,1605.9c-8.8,7.8-22.8,8.3-34.8,8.3h-13.7
			v-104.1h20.9c12.2,0,20.5,1.4,28.4,9.5c10.9,11.1,11.3,30.3,11.3,44C1795.4,1576.8,1794.9,1595.8,1783.4,1605.9z M1891,1522h-28
			v33.1h24.8v11.9H1863v35.4h28v11.9h-45v-104.1h45V1522z M2036,1591c0,4.2-0.2,8.4-1.9,12.5c-3.6,8.4-12.6,12.2-23,12.2
			c-5.1,0-10-0.8-14.5-2.8v-14c3.6,1.7,7.1,3.6,11.3,3.6c11.5,0,11.1-9.2,11.1-16.2v-76h16.9V1591z M2134.2,1522h-28v33.1h24.8v11.9
			h-24.8v35.4h28v11.9h-45v-104.1h45V1522z M2241.3,1586.6c0,17.9-4.7,29-29.2,29c-23,0-28.6-11.9-28.6-28.6v-76.9h16.6v76.5
			c0,7.6,0.8,15.8,12.6,15.8c12.4,0,12-8,12-15.8v-76.5h16.6V1586.6z M2347.6,1614.2h-16.9c-5.3-12.8-11.7-25.4-14.7-38.9
			c-0.8,5.6-3,10.8-5.1,16.1c-2.8,7.6-5.6,15.1-8.7,22.8h-17.9l23.9-52.9l-22.4-51.2h16.4c4.5,10.3,13.2,27.3,14.9,37.6
			c3.4-12.8,8.8-25.1,13.5-37.6h16.9l-23.1,51.2L2347.6,1614.2z M2484.7,1614.2h-13.4l-24.3-104.1h16.7c4,20.1,7.9,40.3,11.5,60.5
			c1.1,5.9,2.3,11.9,3,17.8c0.4-5.6,1.7-11.2,2.8-16.9c1.5-7.6,2.6-15.4,4.3-23.1l8.1-38.4h15.8L2484.7,1614.2z M2569.4,1614.2
			h-16.9v-104.1h16.9V1614.2z M2671.2,1605.9c-8.8,7.8-22.8,8.3-34.8,8.3h-13.7v-104.1h20.9c12.2,0,20.5,1.4,28.4,9.5
			c10.9,11.1,11.3,30.3,11.3,44C2683.2,1576.8,2682.6,1595.8,2671.2,1605.9z M2778.8,1522h-28v33.1h24.8v11.9h-24.8v35.4h28v11.9
			h-45v-104.1h45V1522z M2889,1588.6c-3,15.3-9.6,27-30.5,27c-10.7,0-19.9-3.7-25.2-11.7c-7.1-10.8-7.7-31.8-7.7-44.2
			c0-12.2,0.4-27.2,6.8-38.2c5.3-9.1,13.7-12.6,25.8-12.6c10.5,0,19.2,3.4,24.6,11.1c7.7,11.1,8.1,31.4,8.1,44.2
			C2890.9,1572.4,2890.5,1580.5,2889,1588.6z M3057.2,1524.5c-3.4-1.6-7-2.7-10.9-2.7c-22.8,0-23,28.1-23,41.4
			c0,13.6,1.3,38.7,23.9,38.7c3.8,0,6.6-0.6,10-2v12.8c-5.1,2.5-7.9,3-13.7,3c-33.5,0-38-30.3-38-51.7c0-21.4,3.2-55.2,37.6-55.2
			c5.8,0,9,0.8,14.1,3.1V1524.5z M3165,1588.6c-3,15.3-9.6,27-30.5,27c-10.7,0-19.9-3.7-25.2-11.7c-7.1-10.8-7.7-31.8-7.7-44.2
			c0-12.2,0.4-27.2,6.8-38.2c5.3-9.1,13.7-12.6,25.8-12.6c10.5,0,19.2,3.4,24.6,11.1c7.7,11.1,8.1,31.4,8.1,44.2
			C3166.9,1572.4,3166.5,1580.5,3165,1588.6z M3275.2,1586.6c0,17.9-4.7,29-29.2,29c-23,0-28.6-11.9-28.6-28.6v-76.9h16.6v76.5
			c0,7.6,0.8,15.8,12.6,15.8c12.4,0,12-8,12-15.8v-76.5h16.6V1586.6z M3372.9,1614.2h-44.6v-104.1h16.9v92.2h27.7V1614.2z
			 M3462.2,1522h-28v33.1h24.8v11.9h-24.8v35.4h28v11.9h-45v-104.1h45V1522z M3569.3,1586.6c0,17.9-4.7,29-29.2,29
			c-23,0-28.6-11.9-28.6-28.6v-76.9h16.6v76.5c0,7.6,0.8,15.8,12.6,15.8c12.4,0,12-8,12-15.8v-76.5h16.6V1586.6z M3662.2,1614.2
			l-23-48.5v48.5h-16.9v-104.1h22.4c6.8,0,12.6,0.3,18.2,3.9c8.5,5.3,10.7,15,10.7,23.3c0,10.1-3.4,23.6-18.1,26.4l23.9,50.6H3662.2
			z"/>
		<path d="M3653.9,1526.1c-2.8-3.9-7-4.4-11.9-4.4h-2.8v34.6c4.3,0,8.8-0.2,12.2-2.5c4.7-3.3,5.8-9.2,5.8-14
			C3657.3,1535.6,3656.6,1529.8,3653.9,1526.1z"/>
		<path d="M1061.6,1531.4c-1.5-5.6-4.9-9.8-12.4-9.8c-4.5,0-7.3,1.4-9.8,4.4c-5.1,5.9-5.1,22.9-5.1,30.3c0,10.9-0.4,22.2,1.7,32.9
			c1.3,6.4,4,13.6,13.4,13.6c6,0,9.6-3,11.7-7.5c3.4-8,3.2-25.9,3.2-35C1064.2,1550.7,1064.2,1540.7,1061.6,1531.4z"/>
		<path d="M938.3,1522h-2.3v34h1.5c13.7,0,16.9-6.2,16.9-16.5C954.5,1530.1,951.5,1522,938.3,1522z"/>
	</g>
	<path d="M3773.5,475.9H2764c-17.9,0-34.1-11.3-40.3-28.1L2580,58.9c-2.7-7.4-9.9-12.4-17.8-12.4H1276.8c-7.9,0-15.1,5-17.8,12.4
		l-143.8,389c-6.2,16.8-22.4,28.1-40.3,28.1H65.5c-10.5,0-19,8.5-19,19v858.3h3746.1V494.9C3792.5,484.4,3784,475.9,3773.5,475.9z
		 M1609.8,222.8c0-113,64.6-130,144.9-130c10.2,0,142.7,0,142.7,0v58.6h-171.1c-16.4,0-30.3,5.2-40,15.2c-10.6,10.8-16,26.3-16,46.1
		v165.9c0,34.2,24.2,57.1,60.2,57.1h166.5v58.7h-165c-111.3,0-122.1-85.2-122.1-114.3C1609.8,375.6,1609.8,222.8,1609.8,222.8z
		 M1748.6,369.4h44.5h4.3h6.8h59.4l33.2,0.2v54.1h-166.5c-29.7,0-48.2-17.3-48.2-45.2v-78.3H1867v60.7h-62.6h-6.8h-4.3h-44.5
		c-2.4,0-4.3,1.9-4.3,4.3C1744.3,367.5,1746.3,369.4,1748.6,369.4z M1747.6,230h27.1h4.3h25.6h62.4v58.2h-184.8v-75.6
		c0-31.8,15.6-49.3,44.1-49.3h171.1v58l-92.8,0.2H1779h-4.3h-27.1c-2.4,0-4.3,2.4-4.3,4.8C1743.3,228.7,1745.2,230,1747.6,230z
		 M1414.7,94.7c56.2,0,165.4,0,165.4,0l-0.3,63.5l0-6l-168.7-0.1c-2.7-0.1-32.6-0.7-53.7,19.4c-13.4,12.7-20.1,30.8-20.1,53.6
		c0,32.5,16,56.5,45,67.4c17.1,6.5,27.2,6.5,64.7,6.4c4.3,0,8.9,0,14,0c28.9,0,58.2,22.5,58.2,65.6c0,16.1-4.9,29.1-14.6,38.6
		c-22.6,22.2-66.1,21.4-82.5,21.1c-1.7,0-3.1-0.1-4.3-0.1h-134.8l0-1v-58.3h164.7c4.9,0,10.1,0.5,10.4-3.6c0.4-5.1-2.7-5.3-9.7-5.3
		c-7,0-57.3-1.9-57.3-1.9c-68.6-4.1-110.9-65-111.7-125.6C1278.5,154.7,1321.4,94.7,1414.7,94.7z M1535.6,1227.4h-145.7V719.1h-1.6
		l-84.3,508.3h-98.2l-84.3-508.3h-1.6v508.3H985.5h-11.5H827.6l-13.9-116.2H708.1l-15.6,116.2h-135h-15.6H425.7v-53.2h-1.6
		c-27,44.2-63,63.8-116.2,63.8c-108,0-138.3-90-138.3-189.1V751.9c0-127.7,81.8-189.1,194-189.1c102.3,0,194,37.6,194,160.4v72.8
		H414.2v-65.5c0-32.7-13.9-51.6-47.5-51.6c-40.1,0-46.7,39.3-46.7,59.7v323.3c0,17.2,0,59.7,43.4,59.7c33.6,0,48.3-15.6,48.3-49.1
		v-84.3h-53.2V867.3h198.9v276.2l105.6-570h199.7l111.3,592.9V573.4h237.4l42.6,324.1h1.6l42.6-324.1h237.4V1227.4z M1466,494.2
		c-24.5,1.4-182.9,1-182.9,1l0-65.7v6.6h134.8c1.1,0,2.5,0,4.1,0.1c2.3,0,5.1,0.1,8.2,0.1c21.4,0,60.1-2.3,82.9-24.7
		c12.1-11.8,18.2-27.7,18.2-47.1c0-22.7-7.3-42.3-21.2-56.7c-13-13.4-30.4-20.8-49-20.8c-5.1,0-9.8,0-14,0
		c-36.7,0.1-45.4,0.1-60.4-5.6c-17-6.4-37.2-21.4-37.2-56.2c0-19.4,5.5-34.5,16.3-44.9c17.9-17.1,44.8-16.2,45.1-16.2l0.1,0
		l168.9,0.1l-0.3,57.8c0,0-163.7,0-167.5,0c-3.8,0-4.3,0.4-4.7,3.4c-0.4,2.9,1.3,5,4.7,5c3.4,0,62.6,0.8,62.6,0.8
		c53.4,4.2,113.7,55.7,113.7,135.6C1588.3,446.8,1517.1,491.3,1466,494.2z M1910.4,1227.4h-342.1v-654h334.8v126h-184.2v130.1h161.2
		v126h-161.2v145.7h191.5V1227.4z M1919.5,381.1c-0.2-20.2-0.3-113.8,0.3-176.3c0.6-62.5,41.9-110.9,118.1-112.1
		c57-0.9,175.5,0,175.5,0v63.6l0-5.6c0,0-114.5,0-178.2,0c0,0,0,0,0,0c-18.6,0-33.9,6.4-44.2,18.4c-9,10.5-13.9,24.7-14.1,41
		c-0.1,10.2-0.1,96.8,0,143.4c0,13.8,0,24.2,0,28.5c0,21.7,18.8,53.1,52.8,53.1h126.8V289h-96.1c0-25.9,0-50.4,0-55.1
		c0-0.9,0.1-1.5,0.2-1.7c0.2,0,0.6-0.1,1.3-0.1h151.5v226c29.6-87.9,102.9-305.7,103.8-308.5c3.2-9.8,21.1-60.6,82-60.6
		c60.9,0,81.4,60.6,81.4,60.6l112.2,344.7h-215.8v-95.1l-33.9,95.1H2277c15.3-45.8,106.1-319,110.5-334c1.9-6.3,7.5-11.1,13-11.3
		c0.1,0,0.2,0,0.3,0c5.5,0,8.5,5,10.1,9.2c6.9,19.1,72.2,220.6,86,263.1h-119.9v12h136.4l-2.5-7.8c-3.3-10.2-80.9-249.9-88.6-271.3
		c-4-11-12.2-17.4-21.9-17.1c-10.7,0.3-20.8,8.7-24.1,19.9c-4.5,15.2-102,308.4-111.7,337.4h-51h-12.2h-160.5
		C1973.4,495.1,1920.1,453.3,1919.5,381.1z M2091.8,369.2v-12l-31.4,0c0,0,0-27.3,0-56.2h84.1v122.2h-114.9
		c-27.2,0-40.8-26.3-40.8-41.1c0-4.2,0-14.7,0-28.5c0-46.5-0.1-133.1,0-143.2c0.1-11.2,3.9-47.6,46.3-47.6c0,0,0,0,0,0
		c63.7,0,178.2,0,178.2,0v57.4h-151.5c-12.2,0-13.5,9.6-13.5,13.8c0,10.6,0,135.2,0,135.2H2091.8z M2454.1,791.7h-143.2v-65.5
		c0-32.7-13.9-51.6-47.5-51.6c-40.1,0-46.7,39.3-46.7,59.7v323.3c0,17.2,0,59.7,43.4,59.7c33.6,0,48.3-15.6,48.3-49.1V984h-53.2
		V862.9h198.9V1223h-131.8v-53.2h-1.6c-27,44.2-63,63.8-116.2,63.8c-108,0-138.3-90-138.3-189.1V747.5c0-127.7,81.8-189.1,194-189.1
		c102.3,0,194,37.7,194,160.4V791.7z M3646.7,984v84.9v30.5c0,10.3-0.1,21.5,0,32.9v90.7h-150.6c0-25.1,0-80.2,0-123.6V994.7
		c0-37.7-14.7-54-57.3-54h-27.8V1223H3269v0h-158l-13.9-116.2h-105.6L2976,1223h-147.8h-2.8h-339.3v-654h334.8v126h-184.2v130.1
		h161.2v126h-161.2V1097h191.5v111l118.4-639h199.7l114.1,607.7V569.1h198.9c134.2,0,190.7,40.1,190.7,158
		c0,76.9-10.6,126.9-90.8,151.4v1.6C3612.3,890.7,3646.7,929.2,3646.7,984z"/>
</g>
</svg>
