<?xml version="1.0" encoding="utf-8"?>
<!-- Generator: Adobe Illustrator 25.4.1, SVG Export Plug-In . SVG Version: 6.00 Build 0)  -->
<svg version="1.1"
	 id="svg2" xmlns:cc="http://creativecommons.org/ns#" xmlns:dc="http://purl.org/dc/elements/1.1/" xmlns:rdf="http://www.w3.org/1999/02/22-rdf-syntax-ns#" xmlns:svg="http://www.w3.org/2000/svg"
	 xmlns="http://www.w3.org/2000/svg" xmlns:xlink="http://www.w3.org/1999/xlink" x="0px" y="0px" viewBox="0 0 3839 1937.1"
	 style="enable-background:new 0 0 3839 1937.1;" xml:space="preserve">
<style type="text/css">
	.st0{fill:#FFFFFF;}
</style>
<g>
	<path id="path1506_00000034062758238762709450000006045372939744122271_" d="M3029.2,440.6h69.2v-62.5h-69.2V440.6z"/>
	<g>
		<path id="path1502_00000024704329461431108040000011768009626227404437_" d="M1350.9,781.5l-168-120.4L1344,553.8l-38.4-57.6
			l-144.9,96.6l-6,5.4l0.8-7.5V378.3h-69.2v454.5h69.2v-99.5l-1.1-8.7l6.5,6.1l149.6,107.2L1350.9,781.5"/>
		<path id="path1504_00000099661811929392384250000008157693458376943246_" d="M3029.1,832.5h69.2V505.1h-69.2V832.5z"/>
		<path id="path1508_00000134930975453677849460000003869564603391541418_" d="M190.9,330.1C86,330.1,0.7,416.3,0.2,521.2L0,840
			h69.3V668c33.1,27.4,75.5,43.9,121.7,43.9c105.3,0,190.9-85.6,190.9-190.9S296.2,330.1,190.9,330.1L190.9,330.1z M190.9,642.7
			c-67.1,0-121.7-54.6-121.7-121.7c0-67.1,54.6-121.7,121.7-121.7c67.1,0,121.7,54.6,121.7,121.7C312.6,588.1,258,642.7,190.9,642.7
			"/>
		<path id="path1510_00000109018458944083324080000001200817927065694398_" d="M549.5,838.7c93.8,0,170.1-76.3,170.1-170.1
			c0-93.8-76.3-170.1-170.1-170.1s-170.1,76.3-170.1,170.1C379.4,762.4,455.7,838.7,549.5,838.7z M448.7,668.6
			c0-55.6,45.2-100.8,100.8-100.8c55.6,0,100.8,45.2,100.8,100.8c0,55.6-45.3,100.8-100.8,100.8
			C493.9,769.4,448.7,724.2,448.7,668.6"/>
		<path id="path1512_00000056411876474642573500000013541714012320848023_" d="M1059.4,576.3c-31.5-48.8-84.9-78-143-78
			c-93.8,0-170.1,76.3-170.1,170.1c0,93.8,76.3,170,170.1,170c62,0,119.2-33.8,149.1-88.2l-60.6-33.4
			c-17.8,32.3-51.6,52.3-88.4,52.3c-55.6,0-100.8-45.2-100.8-100.8c0-55.6,45.2-100.8,100.8-100.8c34.4,0,66.1,17.3,84.8,46.3
			L1059.4,576.3"/>
		<path id="path1514_00000075858680054650425660000001688276375264291217_" d="M1681.1,703.9c3.5-14.8,3.6-34.5,3.6-34.5
			c0-93.8-76.3-170.1-170.1-170.1c-93.8,0-170.1,76.3-170.1,170.1c0,93.8,76.3,170,170.1,170c61.6,0,118.5-33.4,148.6-87.3
			l-60.4-33.7c-17.8,31.9-51.6,51.8-88.1,51.8c-41.1,0-76.4-24.7-92.1-60.1c-0.9-2-3.1-5.2-3.9-7.2l7.6,1.1H1650l31-0.2V703.9z
			 M1422.3,629c15.6-35.5,51-60.4,92.2-60.4c41.1,0,76.4,24.7,92.1,60.1c0.9,2,3.1,5,3.9,7.1l-7.6-1h-177.8l-6.2,1
			C1419.6,633.8,1421.5,630.9,1422.3,629"/>
		<path id="path1516_00000158005411646737815330000010094765391944721581_" d="M1783.5,662.9v-88.6h100.8v-69.2h-100.8v-74.4h-69.2
			v232.1c0,93.8,76.3,170.1,170,170.1v-69.2C1828.7,763.8,1783.5,718.5,1783.5,662.9"/>
		<path id="path1518_00000101800685589898536300000002291373243808963202_" d="M2194.8,439.2c-3.6-54.6-63-102.4-127.1-102.4
			c-39.7,0-75.2,13.7-100,38.7c-24.4,24.5-37.1,58-36.9,96.9c0.4,68.2,57.1,118.9,134.9,120.4c68.1,1.4,101.2,29,101.2,84.5
			c0,64.4-50.3,93.2-100.1,93.2c-50.9,0-93.9-38-100.1-88.4l-68.7,8.4c10.4,85.1,83,149.2,168.8,149.2c98,0,169.3-68.3,169.3-162.4
			c0-94.1-63.1-151.6-169-153.7c-33.2-0.7-66.8-16.9-67-51.6c-0.1-20.4,5.5-36.4,16.8-47.7c11.7-11.7,29.8-18.2,50.9-18.2
			c30.1,0,57,23.2,58,37.8L2194.8,439.2"/>
		<path id="path1520_00000139985741572062530990000016427708247026445743_" d="M2335.2,662.9v-88.2h100.2l0-69.2h-100.3v-69H2266
			V663c0,93.8,76.3,170.1,170.1,170.1v-69.2C2380.4,763.8,2335.2,718.6,2335.2,662.9"/>
		<path id="path1522_00000034056789752504833090000017678557768884336290_" d="M2716.7,505.6V526l0.7,8.4c-1.6-1.2-4-4.6-5.7-5.7
			c-27.4-18.9-60.5-29.9-96.2-29.9c-93.8,0-170.1,76.3-170.1,170.1c0,93.8,76.3,170.1,170.1,170.1c35.7,0,68.8-11.1,96.2-29.9
			c1.7-1.2,4.4-4.2,6-5.4l-1,8.1v21.2h69.3V505.6L2716.7,505.6L2716.7,505.6z M2615.5,769.6c-55.6,0-100.8-45.2-100.8-100.8
			c0-55.6,45.2-100.8,100.8-100.8c55.6,0,100.8,45.2,100.8,100.8S2671.1,769.6,2615.5,769.6"/>
		<path id="path1524_00000029760060505261889260000006207150297179082150_" d="M2891.8,662.8v-88.4h100.5v-69.2h-100.5v-69.4h-69.2
			v227.1c0,93.8,76.3,170,170.1,170v-69.2C2937.1,763.6,2891.8,718.4,2891.8,662.8"/>
		<path id="path1526_00000036946719486484489910000009977809838055681457_" d="M3299.6,839.1c93.8,0,170.1-76.3,170.1-170.1
			c0-93.8-76.3-170-170.1-170c-93.8,0-170.1,76.3-170.1,170S3205.8,839.1,3299.6,839.1z M3198.8,669c0-55.6,45.2-100.8,100.8-100.8
			c55.6,0,100.8,45.2,100.8,100.8c0,55.6-45.2,100.8-100.8,100.8C3244,769.8,3198.8,724.6,3198.8,669"/>
		<path id="path1528_00000037672695442976634030000015933294978621459363_" d="M3568.1,832.8V668.8c0-55.6,45.2-100.8,100.8-100.8
			c55.6,0,100.8,45.2,100.8,100.8v164.5h69.2V668.8c0-93.8-76.3-170.1-170.1-170.1c-93.8,0-170,76.3-170,170.1v164.1H3568.1"/>
	</g>
	<path id="path5354_00000142871799120515342480000001580606300699348362_" d="M274.4,1051.9c0,265,211.8,487,516.1,640.9
		s708.2,244.8,1125.9,244.3c417.7-0.5,818.4-91.7,1119.1-245.6c300.6-153.9,508.2-375.6,508.2-639.6h-104.5
		c0,208.2-169.6,402.2-451.4,546.5s-668.9,233.7-1071.4,234.2c-402.4,0.5-793.3-88.8-1078.9-233.2
		c-285.6-144.5-458.6-339.1-458.6-547.4H274.4L274.4,1051.9z"/>
	<g>
		<path d="M2466,8.4v27.7h10.4c8.7,0,11.5,1.3,11.5,4.5c0,1.9-1.2,4.2-3.6,7.4L2443.2,92c-5.3,6-10.9,5.4-15.5,0.6l-38.8-42.3
			c-2-2.6-5.2-5.2-5.2-8.4c0-3.9,4.4-5.8,14.7-5.8h10.1V8.4h-142.4v27.7c35.3,0,33.5,3.2,46.2,18.1l76.7,84.8v42.9
			c0,11-5.6,14.8-21.4,14.8h-24.6v26.8h157.4v-26.8h-24.6c-15.9,0-21.4-3.9-21.4-14.8V139l65.1-70.3c23.8-30,27-32.6,44-32.6h14.8
			V8.4H2466z"/>
		<path d="M1320.8,58.1c0-17.1,31.6-28.7,69.1-28.7c29,0,63.5,12.2,79.5,26.8c8.8,8.1,18.5,14.1,21.3,29.6h31.7V8.4H1488
			c0.1,17.8-6.7,17.2-14,12.5c-26.3-14.9-53.7-19.2-86.5-19.2c-77.7,0-126.9,27.7-126.9,71.9c0,42.6,38.9,54.5,92.2,62.6l47.3,7.7
			c55.7,8.7,73,12.6,73,28.7c0,16.1-17.5,27.2-68.3,27.7c-33.7,0.3-70.5-10-85.9-24.2c-8.9-8.1-18.6-12.3-25.6-32.6h-31.8v80h35.2
			c1.5-11.2,4.9-20.2,12.9-15.6c25.5,13.5,68.6,22.4,97.2,22.4c82.4,0,128.3-26.1,128.3-72.9C1535,67.8,1320.8,105.5,1320.8,58.1z"
			/>
		<path d="M2116.5,36.8h19.7c16.8,0,22.6,3.9,22.6,15.2l-0.7,86L2021.7,10H1909v26.8h21.6c16.8,0,22.7,3.9,22.7,15.2v131.6
			c0,11-5.9,15.2-22.7,15.2H1909v26.5h130.3v-26.5h-21.8c-16.8,0-22.6-4.2-22.6-15.2V74.2l159,150.6l49.1,0.4V52
			c0-11.3,5.9-15.2,22.7-15.2h16.4V10h-125.4V36.8z"/>
		<path d="M1738,0c-100,0-162.5,44.2-162.5,115.1c0,69.7,61.7,113.5,159.5,113.5c103.9,0,164.3-43.2,164.3-117.1
			C1899.2,45.2,1834,0,1738,0z M1735.7,200.6c-55.3,0-87.1-31.9-87.1-87.1c0-53.9,33.2-85.8,89.9-85.8c54.4,0,86.2,32.6,86.2,88.1
			C1824.7,170,1792.4,200.6,1735.7,200.6z"/>
	</g>
</g>
</svg>
