<?xml version="1.0" encoding="utf-8"?>
<!-- Generator: Adobe Illustrator 26.0.3, SVG Export Plug-In . SVG Version: 6.00 Build 0)  -->
<svg version="1.1" id="Layer_1" xmlns="http://www.w3.org/2000/svg" xmlns:xlink="http://www.w3.org/1999/xlink" x="0px" y="0px"
	 viewBox="0 0 3839 942.9" style="enable-background:new 0 0 3839 942.9;" xml:space="preserve">
<style type="text/css">
	.st0{fill:#FFFFFF;}
	.st1{fill:#FF0000;}
	.st2{fill:url(#SVGID_1_);}
	.st3{fill:url(#SVGID_00000107569063443029869600000016780439677943176342_);}
	.st4{fill:url(#SVGID_00000140008456350718782400000012137376923780652174_);}
	.st5{fill:url(#SVGID_00000107577006427862546380000003431036837606420884_);}
	.st6{fill:url(#SVGID_00000093144424865572758270000006113854841059258784_);}
	.st7{fill:url(#SVGID_00000049919751292329315900000005944912483066237602_);}
	.st8{fill:#3636FF;}
	.st9{display:none;}
	.st10{display:inline;}
	.st11{enable-background:new    ;}
	.st12{fill:url(#SVGID_00000007405746913093333750000010619864096760460163_);}
	.st13{fill:url(#SVGID_00000142899081872386254870000002557699337351947655_);}
	.st14{fill:url(#SVGID_00000109028552967040200660000015695322895048347793_);}
	.st15{fill:url(#SVGID_00000137833114255231161110000015031494963202821760_);}
	.st16{fill:url(#SVGID_00000056402143754028639630000001561476232496443795_);}
	.st17{fill:url(#SVGID_00000041289884784945491230000014367733482358345873_);}
	.st18{fill:url(#SVGID_00000078752419433623659230000017363161621632246165_);}
	.st19{fill:url(#SVGID_00000176026345101056660460000006963297776620424335_);}
	.st20{fill:url(#SVGID_00000151543157430230028060000012647176068358875060_);}
	.st21{fill:url(#SVGID_00000083048720070952554340000013652988349001274034_);}
	.st22{fill:url(#SVGID_00000160182259917606854600000002928343245985879945_);}
	.st23{fill:url(#SVGID_00000110461727892934418510000012330802783400438153_);}
	.st24{fill:url(#SVGID_00000042003119802795563790000003558987660288800660_);}
	.st25{fill:url(#SVGID_00000037672739458653311910000005481873830263339957_);}
	.st26{fill:url(#SVGID_00000153668538328739935480000000212941065194586796_);}
	.st27{fill:url(#SVGID_00000103243453347435934910000011323655969332011155_);}
	.st28{fill:url(#SVGID_00000065047166294217190390000000817793003484023995_);}
	.st29{fill:url(#SVGID_00000096048060546158101420000004297355994234302130_);}
	.st30{fill:url(#SVGID_00000129194389865737867600000014217986953890028168_);}
	.st31{fill:url(#SVGID_00000005250752255043327550000003484097451597912986_);}
	.st32{fill:url(#SVGID_00000131353656307207748580000003749491871995928480_);}
	.st33{fill:url(#SVGID_00000050663147538322378250000011265415297632561547_);}
	.st34{fill:url(#SVGID_00000078758365538422791550000000603263998638642330_);}
	.st35{fill:url(#SVGID_00000174583072062909154340000014368933304251185815_);}
	.st36{fill:url(#SVGID_00000121978306219635934940000003462573726626719890_);}
	.st37{fill:url(#SVGID_00000183936872847730384670000011290541715514466954_);}
	.st38{fill:url(#SVGID_00000108301471907390221830000008272560292620972733_);}
	.st39{fill:url(#SVGID_00000039129419413298548590000015822310878416262827_);}
</style>
<g>
	<g>
		<path class="st8" d="M461.3,357.4h202.8v566.5H461.3v-62.1c-46.9,64.6-120.4,81.1-176.2,81.1c-60.8,0-135.6-17.7-204-90
			C26.6,794.6,0,730,0,645.1c0-106.5,41.8-181.2,87.4-226.9c48.2-48.2,122.9-79.8,204-79.8c91.2,0,145.7,46.9,169.8,73.5V357.4z
			 M248.4,547.5c-27.9,26.6-40.6,63.4-40.6,92.5c0,33,13.9,68.4,39.3,92.5c21.5,20.3,57,38,91.2,38c33,0,65.9-13.9,91.2-39.3
			c17.7-17.7,38-45.6,38-91.2c0-26.6-7.6-62.1-39.3-92.5c-19-17.7-48.2-36.8-91.2-36.8C311.8,510.7,277.5,519.6,248.4,547.5z"/>
		<path class="st8" d="M768.3,357.4H971v92.5c20.3-38,49.4-63.4,79.8-78.6c30.4-16.5,67.2-22.8,105.2-22.8c5.1,0,13.9,1.3,40.6,2.5
			v191.4c-10.1-5.1-38-20.3-87.4-20.3c-26.6,0-63.4,3.8-92.5,30.4c-43.1,39.3-45.6,98.9-45.6,129.3v242.1H768.3V357.4z"/>
		<path class="st8" d="M1675.7,911.2c-54.5,26.6-98.9,31.7-140.7,31.7c-110.3,0-182.5-46.9-223.1-86.2c-53.2-52-87.4-128-87.4-211.6
			c0-83.6,34.2-163.5,91.2-219.3c53.2-50.7,131.8-86.2,228.1-86.2c35.5,0,81.1,6.3,131.8,31.7v169.8c-26.6-19-62.1-36.8-105.2-36.8
			c-48.2,0-78.6,19-98.9,39.3c-27.9,27.9-39.3,64.6-39.3,97.6c0,31.7,11.4,68.4,35.5,95.1c19,20.3,52,43.1,103.9,43.1
			c29.1,0,67.2-6.3,103.9-38V911.2z"/>
		<path class="st8" d="M2191.5,357.4h202.8v566.5h-202.8v-62.1c-46.9,64.6-120.4,81.1-176.2,81.1c-60.8,0-135.6-17.7-204-90
			c-54.5-58.3-81.1-122.9-81.1-207.8c0-106.5,41.8-181.2,87.4-226.9c48.2-48.2,122.9-79.8,204-79.8c91.2,0,145.7,46.9,169.8,73.5
			V357.4z M1978.5,547.5c-27.9,26.6-40.6,63.4-40.6,92.5c0,33,13.9,68.4,39.3,92.5c21.5,20.3,57,38,91.2,38
			c33,0,65.9-13.9,91.2-39.3c17.7-17.7,38-45.6,38-91.2c0-26.6-7.6-62.1-39.3-92.5c-19-17.7-48.2-36.8-91.2-36.8
			C2041.9,510.7,2007.7,519.6,1978.5,547.5z"/>
		<path class="st8" d="M3136.5,923.9h-202.8v-62.1c-57,73.5-131.8,81.1-171.1,81.1c-81.1,0-145.7-26.6-199-78.6
			c-57-55.8-91.2-135.6-91.2-225.6c0-96.3,40.6-174.9,92.5-224.3c55.8-53.2,130.5-76,200.2-76c77.3,0,131.8,34.2,168.6,73.5V0h202.8
			V923.9z M2897,736.3c26.6-24.1,43.1-62.1,43.1-96.3c0-31.7-17.7-69.7-38-91.2c-22.8-24.1-54.5-38-92.5-38c-43.1,0-72.2,19-90,36.8
			c-22.8,22.8-39.3,58.3-39.3,96.3c0,29.1,12.7,62.1,39.3,88.7c27.9,27.9,60.8,38,90,38C2842.5,770.5,2875.4,755.3,2897,736.3z"/>
		<path class="st8" d="M3839,678h-422c0,30.4,11.4,71,35.5,95.1c12.7,12.7,38,27.9,83.6,27.9c5.1,0,40.6-1.3,65.9-15.2
			c12.7-7.6,26.6-20.3,35.5-38h193.9c-8.9,31.7-26.6,76-68.4,116.6c-41.8,40.6-107.7,78.6-230.7,78.6c-74.8,0-164.8-16.5-234.5-86.2
			c-36.8-36.8-83.6-106.5-83.6-214.2c0-95.1,35.5-171.1,84.9-219.3c46.9-45.6,120.4-82.4,231.9-82.4c65.9,0,150.8,13.9,218,77.3
			c79.8,76,90,174.9,90,238.3V678z M3652.7,561.4c-5.1-21.5-17.7-45.6-33-60.8c-26.6-26.6-63.4-30.4-83.6-30.4
			c-34.2,0-60.8,8.9-82.4,30.4c-13.9,15.2-26.6,35.5-30.4,60.8H3652.7z"/>
	</g>
</g>
</svg>
