<?xml version="1.0" encoding="utf-8"?>
<!-- Generator: Adobe Illustrator 25.4.1, SVG Export Plug-In . SVG Version: 6.00 Build 0)  -->
<svg version="1.1" id="Redraw" xmlns="http://www.w3.org/2000/svg" xmlns:xlink="http://www.w3.org/1999/xlink" x="0px" y="0px"
	 viewBox="0 0 3839 1220.5" style="enable-background:new 0 0 3839 1220.5;" xml:space="preserve">
<style type="text/css">
	.st0{fill:#D80500;}
	.st1{fill:#FF8B00;}
	.st2{fill:#FFF301;}
	.st3{fill:#37AE00;}
	.st4{fill:#019FF1;}
	.st5{fill:#0129F1;}
	.st6{clip-path:url(#SVGID_00000107573482504205900790000010053849049970096052_);}
	.st7{fill:none;stroke:#1E7E00;stroke-width:53.6145;stroke-linecap:round;stroke-linejoin:round;stroke-miterlimit:10;}
	.st8{fill:none;stroke:#1E7E00;stroke-width:44.6787;stroke-linecap:round;stroke-linejoin:round;stroke-miterlimit:10;}
	.st9{clip-path:url(#SVGID_00000068664199984975287720000016297815548957094326_);}
	.st10{clip-path:url(#SVGID_00000036236398579211357470000014509141779002265742_);}
	.st11{fill:none;stroke:#C26000;stroke-width:44.6787;stroke-linecap:round;stroke-linejoin:round;stroke-miterlimit:10;}
	.st12{clip-path:url(#SVGID_00000036209191963541029740000015574987325043827122_);}
	.st13{clip-path:url(#SVGID_00000178901148886291389830000005871433691979777929_);}
	.st14{fill:none;stroke:#D4AF00;stroke-width:44.6787;stroke-linecap:round;stroke-linejoin:round;stroke-miterlimit:10;}
	.st15{clip-path:url(#SVGID_00000052085526315747962100000015326515628123482515_);}
	.st16{clip-path:url(#SVGID_00000085935422985123103090000007996426273516634556_);}
	.st17{fill:none;stroke:#02679B;stroke-width:44.6787;stroke-linecap:round;stroke-linejoin:round;stroke-miterlimit:10;}
	.st18{clip-path:url(#SVGID_00000039091346897451508260000003048416215505565824_);}
	.st19{clip-path:url(#SVGID_00000147180570275648292150000016803879468801001872_);}
	.st20{fill:none;stroke:#001685;stroke-width:44.6787;stroke-linecap:round;stroke-linejoin:round;stroke-miterlimit:10;}
	.st21{clip-path:url(#SVGID_00000090273645688151498960000016273343622400066490_);}
	.st22{clip-path:url(#SVGID_00000121958488900321307000000006725476314570438062_);}
	.st23{fill:none;stroke:#890300;stroke-width:53.6145;stroke-linecap:round;stroke-linejoin:round;stroke-miterlimit:10;}
	.st24{fill:none;stroke:#890300;stroke-width:44.6787;stroke-linecap:round;stroke-linejoin:round;stroke-miterlimit:10;}
	.st25{clip-path:url(#SVGID_00000109708631122284647720000005056707293935430022_);}
	.st26{fill:#FFFFFF;}
	.st27{clip-path:url(#SVGID_00000003091618638634574010000004385870495428110749_);}
	.st28{fill:#737373;}
	.st29{clip-path:url(#SVGID_00000127759230714374922230000010878748657772931759_);fill:#BFBFBF;}
	.st30{fill:#890300;}
	.st31{clip-path:url(#SVGID_00000172425991829024053500000003216995639443844030_);}
	.st32{fill:#001685;}
	.st33{clip-path:url(#SVGID_00000003071872861572955340000003844525947338629525_);}
	.st34{clip-path:url(#SVGID_00000053509437690579351280000002387324590776329097_);}
	.st35{clip-path:url(#SVGID_00000115503028668997077420000012520772829145191303_);}
	.st36{clip-path:url(#SVGID_00000071544943511793257700000010172485352237032364_);}
	.st37{clip-path:url(#SVGID_00000178883671322617894140000007948836178137019565_);}
	.st38{clip-path:url(#SVGID_00000180347973837196162820000006884316042769994126_);}
	.st39{clip-path:url(#SVGID_00000098923663944931323850000003605451149772164029_);}
	.st40{clip-path:url(#SVGID_00000111903237125097283450000012339758770378075070_);}
	.st41{clip-path:url(#SVGID_00000021801719405175132490000005384527019187738789_);}
	.st42{clip-path:url(#SVGID_00000001627485089644841190000001959715458791883412_);}
	.st43{clip-path:url(#SVGID_00000067942321534400581840000009345028887304914878_);}
	.st44{clip-path:url(#SVGID_00000051364504615693834220000004792767267436927878_);}
	.st45{clip-path:url(#SVGID_00000149347384354187641790000005343390828307891076_);}
	.st46{clip-path:url(#SVGID_00000158019858785947151560000014046242290749637792_);}
	.st47{clip-path:url(#SVGID_00000031189217088298533920000013567123208209406863_);}
	.st48{clip-path:url(#SVGID_00000174600935266798412130000007281140267868735910_);}
	.st49{clip-path:url(#SVGID_00000105406045503291593370000004512287776662266026_);}
	.st50{fill:none;stroke:#1E7E00;stroke-width:53.0616;stroke-linecap:round;stroke-linejoin:round;stroke-miterlimit:10;}
	.st51{fill:none;stroke:#1E7E00;stroke-width:44.218;stroke-linecap:round;stroke-linejoin:round;stroke-miterlimit:10;}
	.st52{clip-path:url(#SVGID_00000062188852401392256390000013894326305839748742_);}
	.st53{clip-path:url(#SVGID_00000062890222267177451610000003412759112234938288_);}
	.st54{fill:none;stroke:#C26000;stroke-width:44.218;stroke-linecap:round;stroke-linejoin:round;stroke-miterlimit:10;}
	.st55{clip-path:url(#SVGID_00000152237418219559971400000000409971692186082955_);}
	.st56{clip-path:url(#SVGID_00000103966459872439404540000012953684087322673086_);}
	.st57{fill:none;stroke:#D4AF00;stroke-width:44.218;stroke-linecap:round;stroke-linejoin:round;stroke-miterlimit:10;}
	.st58{clip-path:url(#SVGID_00000109717195112953317080000003995017709071767718_);}
	.st59{clip-path:url(#SVGID_00000025422946083012359430000009531063740841253815_);}
	.st60{fill:none;stroke:#02679B;stroke-width:44.218;stroke-linecap:round;stroke-linejoin:round;stroke-miterlimit:10;}
	.st61{clip-path:url(#SVGID_00000127737513558963844990000010829244938354039430_);}
	.st62{clip-path:url(#SVGID_00000070113648865723949980000006406913655807131064_);}
	.st63{fill:none;stroke:#001685;stroke-width:44.218;stroke-linecap:round;stroke-linejoin:round;stroke-miterlimit:10;}
	.st64{clip-path:url(#SVGID_00000018945011239142725820000017372849714157879695_);}
	.st65{clip-path:url(#SVGID_00000102516180615429327810000010474702938332065674_);}
	.st66{fill:none;stroke:#890300;stroke-width:53.0616;stroke-linecap:round;stroke-linejoin:round;stroke-miterlimit:10;}
	.st67{fill:none;stroke:#890300;stroke-width:44.218;stroke-linecap:round;stroke-linejoin:round;stroke-miterlimit:10;}
	.st68{clip-path:url(#SVGID_00000067204282588035551280000012941240851082279084_);}
	.st69{clip-path:url(#SVGID_00000181065774892111534650000012696778830900060299_);}
	.st70{clip-path:url(#SVGID_00000078023217628656326820000002172737579560667825_);fill:#BFBFBF;}
	.st71{clip-path:url(#SVGID_00000031196383163091762050000007637006969585045896_);}
	.st72{clip-path:url(#SVGID_00000096054312452299378690000006279874743066050463_);}
	.st73{clip-path:url(#SVGID_00000052786699872871870450000013617337388570033304_);}
	.st74{clip-path:url(#SVGID_00000169525155005049034190000014590770773844706750_);}
	.st75{clip-path:url(#SVGID_00000074420728398342692040000003127779572380268168_);}
	.st76{clip-path:url(#SVGID_00000047769462340771529790000013140185826856755647_);}
	.st77{clip-path:url(#SVGID_00000127758337964622001470000016271827371834053823_);}
	.st78{clip-path:url(#SVGID_00000155145479718423465800000017633280005868222365_);}
	.st79{clip-path:url(#SVGID_00000079477640164600430190000010593198689401851545_);}
	.st80{clip-path:url(#SVGID_00000098904481990981342440000009393879179243387522_);}
	.st81{clip-path:url(#SVGID_00000039135937081591841030000017296417828839444375_);}
	.st82{clip-path:url(#SVGID_00000183229580299683080770000006459221945409783451_);}
	.st83{clip-path:url(#SVGID_00000031199040220194159210000016676270174822973087_);}
	.st84{clip-path:url(#SVGID_00000084504072360044634040000016073565558850280339_);}
	.st85{clip-path:url(#SVGID_00000156556145235889638460000015368169455418225057_);fill:#BFBFBF;}
	.st86{clip-path:url(#SVGID_00000128461236730325694290000008396342850273548966_);}
	.st87{fill:#0125EE;}
	.st88{clip-path:url(#SVGID_00000074424592107355978760000002778247338187921575_);}
	.st89{clip-path:url(#SVGID_00000102516124114005956400000010101084857950426000_);}
	.st90{clip-path:url(#SVGID_00000139972729283129123560000003862268186377016496_);}
	.st91{clip-path:url(#SVGID_00000098183931235898511380000018149689820962100373_);}
	.st92{clip-path:url(#SVGID_00000064320140484672471810000001396491552843235227_);}
	.st93{clip-path:url(#SVGID_00000023258773749499178820000017100302705409949084_);}
	.st94{clip-path:url(#SVGID_00000171688588262978156620000003338300791741427118_);}
	.st95{clip-path:url(#SVGID_00000160882060488337307910000017701860643592072876_);}
	.st96{clip-path:url(#SVGID_00000109015408905465612740000011309818517479586696_);}
	.st97{clip-path:url(#SVGID_00000129902279322667404280000018239624167104294284_);}
	.st98{clip-path:url(#SVGID_00000115505111076781935390000015163099303873768322_);}
	.st99{clip-path:url(#SVGID_00000067200826121918945660000001544019324590679995_);}
	.st100{clip-path:url(#SVGID_00000130624775946473038630000018347105071864565945_);}
	.st101{clip-path:url(#SVGID_00000174603841695068704720000017226382959383044503_);fill:#BFBFBF;}
	.st102{clip-path:url(#SVGID_00000124851328870791184840000001723549778881986181_);}
</style>
<g>
	<g>
		<path class="st26" d="M3464,1220.5c-16.6,0-33.5-1.3-50.2-3.8c-61.6-9.4-117.7-35.3-160.2-73.5c-2.3,0.9-4.8,1.5-7.5,1.5h-27.1
			v26.2c0,10.9-8.9,19.8-19.8,19.8h-325.4c-10.9,0-19.8-8.9-19.8-19.8v-25.3h-28c-10.9,0-19.8-8.9-19.8-19.8v-25.5h-22.6v25.8
			c0,10.9-8.9,19.8-19.8,19.8h-30.8v25c0,10.9-8.9,19.8-19.8,19.8h-244.6c-10.9,0-19.8-8.9-19.8-19.8v-25h-6.3v25
			c0,10.9-8.9,19.8-19.8,19.8h-187.5c-10.9,0-19.8-8.9-19.8-19.8v-25.3h-2.4v25.3c0,10.9-8.9,19.8-19.8,19.8h-325.4
			c-10.9,0-19.8-8.9-19.8-19.8v-25.9l-46.6,0v25.9c0,10.9-8.9,19.8-19.8,19.8h-325.4c-10.9,0-19.8-8.9-19.8-19.8v-25.3h-14.3v25.3
			c0,10.9-8.9,19.8-19.8,19.8l-766.8,0c-10.9,0-19.8-8.9-19.8-19.8v-25.3h-2.9v25.3c0,10.9-8.9,19.8-19.8,19.8H267.6
			c-10.9,0-19.8-8.9-19.8-19.8v-25.3h-28c-10.9,0-19.8-8.9-19.8-19.8v-26.2h-24.4c-10.9,0-19.8-8.9-19.8-19.8v-188
			c-35.4-6.2-65.8-23-90.5-50C50.1,825,39.2,806,32.9,785.2C8.2,754.9-2.9,717.9,0.7,677.9c1.3-19.3,7.2-39.6,17.4-60.4
			c0,0,231.2-491.4,231.2-491.4l0.1-0.3c17.3-35.6,42.3-64.7,74.3-86.6c30.4-20.8,64.6-31.4,101.7-31.4c0,0,0,0,0,0
			c5.6,0,11.4,0.3,17.1,0.7c43.5,3.7,80.5,19.2,109.9,45.9c21.8,19.8,38.9,45.6,50.9,76.8c13.6,18.7,24.4,40.8,32.2,65.7l4-45.9
			c3.9-46.4,21.9-83.7,53.3-110.8c27.8-24,62.1-36.2,101.9-36.2c5.6,0,11.3,0.2,17.1,0.7L976.1,19c87.8,8.1,158.2,35.2,209,80.6
			c0.1,0.1,0.3,0.2,0.3,0.3c19.2,17.2,35.3,36.9,48.1,58.7c11.4-13.7,23.7-26.6,36.8-38.8C1345,50.2,1435.4,15,1539.1,15
			c21.9,0,44.7,1.8,67.9,5.4c0,0,0.4,0.1,0.4,0.1c54,8.8,104.9,27.3,151,55.1c32.1,19.3,57.3,41.2,74.8,65
			c10.7,14.5,18.7,30,23.9,46.1c0.9,1.2,1.8,2.4,2.6,3.5c0.6,0.8,1.1,1.5,1.6,2.3c0,0,31.2-66.2,31.2-66.3l0.1-0.3
			c17.3-35.5,42.3-64.6,74.3-86.5c30.4-20.8,64.6-31.4,101.7-31.4c0,0,0,0,0,0c5.6,0,11.4,0.3,17.1,0.7
			c43.5,3.7,80.5,19.2,109.9,45.9c14.2,12.9,26.4,28.3,36.4,46.1c22.3-21,49.8-34.6,82.2-40.6c0,0,154.5-27.3,154.6-27.3l0.3,0
			c30.2-4.9,60.1-7.4,88.9-7.4c104.3,0,192.8,33.2,263.2,98.6c27.7,25.8,51.7,55.8,71.6,89.6l14.7-75.6c8.2-42,25.2-75.3,50.4-99
			C2985.4,13.1,3020.5,0,3062.2,0c10.9,0,22,0.9,32.9,2.7c0,0,0.9,0.2,1.1,0.2l228.9,44.3c39.4,8.1,70.6,26.5,92.7,54.6
			c10.7,13.6,18.8,28.5,24.2,44.4c27.3-8.7,55.7-13.1,84.8-13.1c74.1,0,143.8,28.9,196.2,81.3c7.7,7.7,15.1,16,21.8,24.5
			c29.2,26.6,52.2,58.2,68.5,94.1c17.1,37.6,25.8,77.8,25.8,119.5c0,77.2-30.1,149.8-84.7,204.4c-51.9,51.9-119.9,81.6-192.8,84.4
			l-5.5,25.7c26.4,14.3,49.7,32.1,69.3,52.9c18.9,20,33.7,42,43.9,65.5c15.4,19.3,27.2,40.1,35.1,62.1c10.9,30.3,14.1,61.4,9.4,92.3
			c-8.1,52.9-39.1,100.3-87.4,133.4C3581.6,1203.6,3524,1220.5,3464,1220.5z M896.1,964.4V848.1c-5.1,5.7-10.8,11-16.9,16
			c-11.3,9.1-23.5,16.5-36.4,22.1v78.2H896.1z M430.9,918.4v-1.1h-0.2v1.1H430.9z M3348.7,679c0.4,0.4,0.7,0.9,1,1.3
			c6.6,8.4,12.2,17.3,16.8,26.6l5.7-26.5c-14.6-11.4-28-24.1-40.1-38c-0.2,0.1-0.3,0.2-0.5,0.2C3339,654,3344.7,666.2,3348.7,679z
			 M1519.3,568c6.2,0.8,12.2,1.2,17.9,1.2c11.4,0,26.6-2.5,45.2-7.3c30.4-7.9,51.1-11.4,67.1-11.4c14.1,0,27.7,1.9,40.7,5.5
			l58.3-123.9c-1.4,0-2.7,0.1-4.1,0.1c-28.4,0-62.2-12-106.1-37.7c-16.7-9.6-33.8-15.6-52.5-18.2l-0.9-0.1
			c-4.9-0.7-10.1-1.1-15.5-1.1c-22.6,0-39.5,7.5-54.9,24.2c-18.6,20.2-30.8,49.2-36.3,86.1c0,0-0.1,0.8-0.1,1l-0.1,0.5
			c-1.9,10.7-2.8,21.2-2.8,31.2c0,11.4,1,22,2.9,31.5C1488.8,559.3,1502,565.3,1519.3,568z M2578.6,558.9
			c44.7-10.4,61.6-35,61.6-87.6c0-11.6-1.2-24-3.6-37c0,0-0.1-0.3-0.1-0.4c-1.5-8.4-3.3-16.4-5.2-23.8c-1.3-2.8-2.2-5.7-2.8-8.8
			c-0.1-0.4-0.2-0.9-0.3-1.3c-13.7-14.1-30.7-20.2-55.7-20.2c-7.4,0-15.8,0.8-25,2.4L2578.6,558.9z"/>
		<path class="st26" d="M3549.9,721.6c148.7,0,269.3-120.6,269.3-269.3c0-79.4-34.3-150.7-89-200c-6.5-8.4-13.6-16.4-21.3-24
			c-48.7-48.7-113.4-75.5-182.2-75.5c-32.4,0-63.9,5.9-93.2,17.3c-1.5-2.2-3.1-4.4-4.8-6.6c-1.1-1.4-2.2-2.7-3.3-4
			c-4.6-16.4-12.3-31.6-23.2-45.5c-19.1-24.3-46.4-40.3-81.1-47.4l-0.3-0.1l-0.3,0l-227.5-44l-0.6-0.1l-0.6-0.1
			c-9.9-1.6-19.9-2.5-29.7-2.5c-36.5,0-67,11.3-90.7,33.5c-22.1,20.8-37.1,50.5-44.5,88.3l-25.3,130.2c-1.7-2.9-3.5-5.7-5.2-8.6
			c-22.1-48.7-51.7-90.5-88.6-124.9c-66.6-61.9-150.6-93.3-249.7-93.3c-27.8,0-56.6,2.4-85.7,7.1l-0.3,0l-0.3,0.1l-153.5,27.2
			l-0.2,0l-0.2,0c-33.9,6.2-61.7,21.9-82.8,46.7c-2.8,3.3-5.4,6.7-7.9,10.2c-10.8-27.3-25.8-49.8-44.9-67.1
			c-26.1-23.8-59.2-37.5-98.3-40.8c-5.1-0.4-10.3-0.7-15.4-0.7v22.1l0-22.1c-33,0-63.5,9.4-90.6,27.9
			c-29.1,19.9-51.8,46.5-67.7,78.9l-0.1,0.3l-0.1,0.3l-47.6,101.1c-4.5-11.9-10.8-23.3-18.9-34.3c-1.4-1.9-2.9-3.9-4.5-5.8
			c-4.5-15.2-11.9-29.8-22.1-43.7c-15.9-21.7-39.2-41.8-69.1-59.7c-44-26.5-92.4-44.2-144-52.6l-0.1,0l-0.1,0
			c-22.2-3.5-44-5.2-64.9-5.2c-98.5,0-184.4,33.4-255.3,99.4c-20.2,18.8-38.1,39.2-53.8,61.2c-13.2-31-32.6-58.1-58-80.9l-0.1-0.1
			l-0.1-0.1c-47.6-42.5-114.1-67.9-197.6-75.6l-0.2,0l-0.2,0l-163.8-14c-5.2-0.4-10.4-0.7-15.4-0.7c-34.9,0-64.8,10.6-88.9,31.4
			c-27.4,23.6-43,56.5-46.5,97.6l-13.8,158l-25.8-97.3c-7.5-28.5-18.9-52.8-33.9-72.7c-10.9-29.3-26.5-53.4-46.6-71.7
			C513,45.5,480,31.7,440.9,28.4c-5.1-0.4-10.3-0.7-15.4-0.7v22.1l0-22.1c-33,0-63.5,9.4-90.6,27.9c-29.1,19.9-51.8,46.5-67.7,78.9
			l-0.1,0.3l-0.1,0.3L35.9,626.2c-9.2,18.6-14.4,36.5-15.5,53.3c-3.3,36.3,7.2,69.4,30.3,96.3c5.2,19.3,15,37.1,29.2,52.6
			c24.3,26.6,54.9,41.9,90.9,45.5l0.3,0l0.3,0c1.4,0.1,2.8,0.2,4.2,0.3V1032v47.8h44.2v46h47.8h0v45.1h325.4v-45.1h42.4h0v45.1
			h280.3v0h486.4v-48.6v-42.4h6.1v46h47.8h0v45.1h325.4v-45.7h38.5v0h47.8h0v45.7h325.4v-45.1h42h0v45.1h187.5V1126h44.2h1.8v44.8
			h47.8h149h47.8V1126h2.8h47.8v-45.6h4.7h47.8v-0.6h9.7v46h47.8v45.1h47.8h229.9h47.8v-46h46.9v-17.5c2.2,2.6,4.5,5.1,6.9,7.6
			c40.8,43.1,99,72.3,163.8,82.2c15.7,2.4,31.6,3.6,47.2,3.6c56,0,109.7-15.7,151.2-44.1c43.7-30,71.8-72.6,79-120
			c4.2-27.6,1.4-55.4-8.4-82.6c-7.5-20.7-18.7-40.3-33.6-58.5c-9.4-22.3-23.2-43.1-41.2-62.2c-21.5-22.7-47.9-41.6-77.5-55.8l12-56
			C3547,721.5,3548.4,721.6,3549.9,721.6z M3360.2,750.2c-3.7-21-12.4-40.4-26-57.7c-1.1-1.4-2.2-2.7-3.3-4
			c-4.6-16.4-12.3-31.6-23.2-45.5c-2.3-2.9-4.7-5.7-7.2-8.3c-0.1-0.3-0.2-0.6-0.3-0.9c0-0.1-0.1-0.3-0.1-0.4
			c13.1-3.5,25.4-9.1,36.7-16.5c16.3,21.1,35.7,39.7,57.4,55.2l-16.3,76.4C3372,748.8,3366,749.4,3360.2,750.2z M1181.4,628.1
			l-34.6-44.1c5.5-2.8,10.9-5.7,16.2-8.9C1167.9,593.3,1174.1,611,1181.4,628.1z M2646,390.1c0.3,1,0.6,1.9,1,2.9
			c0.3,1.4,0.6,2.9,0.9,4.3c0.4,2.1,1.1,4,2.1,5.8c2.3,8.3,4.3,17.4,6.1,27.2l0,0.1l0,0.1c2.6,14.2,3.9,27.8,3.9,40.6
			c0,65.8-26.3,98.4-87.8,109l-9.5,1.7l-38.1-216l17-2.9l0.3,0l0.3,0c11.1-2,21.4-3,30.5-3C2596.7,360,2623.8,364.7,2646,390.1z
			 M410.9,897.6h39.8v40.7h-39.8V897.6z M1649.6,570.3c-14.2,0-33.4,3.3-62.1,10.8c-20.3,5.3-37.2,7.9-50.2,7.9
			c-6.7,0-13.7-0.5-20.8-1.4c-23.7-3.8-41.9-12.8-56.4-28.1c-3.1-12.5-4.7-26.3-4.7-41.5c0-11.1,1-22.8,3.1-34.5l0.1-0.5l0.1-0.5
			c6.1-40.8,20-73.3,41.3-96.5c19.1-20.9,41.2-30.6,69.5-30.6c6.4,0,12.7,0.5,18.6,1.4l0.3,0l0.3,0c21.3,3,40.8,9.7,59.7,20.6
			c40.9,23.9,71.4,35,96.2,35c13.3,0,26-1.9,38-5.8l-81.9,174.1C1684.9,573.9,1667.8,570.3,1649.6,570.3z M823,872.5
			c15.8-5.1,30.4-13,43.8-23.8c29.2-23.6,45.7-58,47.7-99.4c0.5-5.5,0.9-10.9,1.3-16.2l29.3,42.5v28.6h-29.2V852v132.2h-7.1H823
			V872.5z M2781.8,894.9v34.8h-13.3h-4.7v-25.9v-27.1h4.7h13.3V894.9z"/>
	</g>
	<g id="Sub-Z_00000085247163686391616560000005606794073347684743_">
		<g id="Arcade_00000084508238580988755570000008818881423992108704_">
			<g>
				<g>
					<path d="M633.7,891.6c-3.2,0-6.5-0.1-9.8-0.4c-44.7-3.8-77.5-26-95.1-64.3c-3-6.5-8-21.8-22.2-83.2L313,726.8
						c-23.4,55.8-31.7,70.9-36.4,77.3c-21.4,31.5-52.9,48.2-91,48.2c-4,0-8.1-0.2-12.3-0.5l-0.3,0c-30.4-3-56.3-16-76.8-38.4
						c-21.1-23-30.3-50.8-27.3-82.6c0.9-14,5.4-29.3,13.4-45.4l231.3-491.6c14.1-29,34.4-52.6,60.3-70.3c23.3-16,49.6-24,78.1-24
						c4.5,0,9,0.2,13.6,0.6c67.7,5.8,113.6,47.1,132.8,119.4l138.6,523.4c5,19.3,7.1,35.6,6.3,49.9l0,0.5l-0.1,0.5
						c-3.1,31.2-16.7,56.2-40.4,74.3C682.3,883.6,659.1,891.6,633.7,891.6z M455,517.8l-19.7-85.5c-9.4,23.8-20.4,50.9-33.1,81.1
						L455,517.8z"/>
					<path d="M452,121.4c3.8,0,7.7,0.2,11.7,0.5c58.7,5,96.4,39.3,113.3,103l138.6,523.4c4.4,16.9,6.2,31.2,5.6,43.1
						c-2.5,25-13.1,44.6-31.8,59c-16.6,12.7-35.1,19-55.6,19c-2.7,0-5.4-0.1-8.1-0.3c-36.8-3.1-62.4-20.3-76.8-51.5
						c-3.7-8.1-11.9-39.6-24.3-94.6l-225.6-19.7c-21.2,51.2-34.6,80.5-40.3,88c-17.5,25.9-41.8,38.8-72.9,38.8
						c-3.4,0-6.9-0.2-10.4-0.5c-25-2.5-45.9-12.9-62.7-31.4c-16.9-18.4-24-40.4-21.5-66c0.6-11.2,4.4-23.7,11.2-37.5l231.3-491.6
						c12.5-25.6,30.1-46.2,52.9-61.8C406.1,128.2,427.9,121.5,452,121.4 M483.3,542.4l-43.1-187.3c-13.1,39.3-36.5,98.6-70.2,177.9
						L483.3,542.4 M452,77.2v44.2V77.2c-33,0-63.5,9.4-90.6,27.9c-29.1,19.9-51.8,46.5-67.7,78.9l-0.1,0.3l-0.1,0.3L62.4,675.7
						C53.2,694.3,48,712.2,46.9,729c-3.4,37.6,8,71.9,33,99.3c24.3,26.6,54.9,41.9,90.9,45.5l0.3,0l0.3,0c4.8,0.4,9.6,0.6,14.2,0.6
						c45.7,0,83.3-19.9,109.1-57.6c4.8-6.7,12.2-19.4,32.4-66.7l161.5,14.1c12.5,53.1,16.9,65.1,20.1,71.9
						c10.6,23,25.9,41.3,45.5,54.4c19,12.8,41.8,20.4,67.7,22.6l0.1,0l0.1,0c3.9,0.3,7.8,0.5,11.6,0.5c30.3,0,58.1-9.5,82.5-28.2
						c28.3-21.7,45.2-52.7,48.9-89.7l0.1-1.1l0.1-1.1c0.9-16.5-1.4-35-7-56.4l0-0.1l0-0.1L619.7,213.6c-10.6-40.1-28.8-72-54-94.9
						c-26.1-23.8-59.2-37.5-98.3-40.8C462.3,77.5,457.1,77.2,452,77.2L452,77.2z"/>
				</g>
				<g>
					<path d="M1111.3,886.1c-3.8,0-7.7-0.2-11.7-0.5c-36.7-3.1-65.5-19.5-85.6-48.9L897.7,668.1c-1,23.1-2.8,49.6-5.3,79.8
						c-1.6,35.6-14.9,63.7-39.5,83.6c-20.9,17-45.7,25.6-73.7,25.6c-4.2,0-8.6-0.2-12.9-0.6c-32.7-3.1-59.4-16.5-79.4-40
						c-20.2-23.7-28.6-53.3-24.8-88.1l45.9-524.1c3-35.1,16.1-62.9,38.9-82.7c20-17.3,45-26,74.5-26c4.4,0,8.9,0.2,13.5,0.6
						l163.9,14c78.9,7.3,141.1,30.9,185.1,70.1c47.8,43,72,102.7,72,177.5c0,10.2-0.3,21-1,32.2l0,0.3l0,0.3
						c-4.8,53.9-25.7,98.9-61.9,133.7c-24.8,24.2-55.1,42.3-90.6,54l98.2,125.3c18.5,23.9,26.6,48.9,24.3,74.5
						c-2.3,30.5-15.4,57-38.9,78.6C1164.7,876.2,1139.6,886.1,1111.3,886.1z M973.4,404.2c2.9,0.3,5.8,0.4,8.5,0.4
						c24.1,0,33.9-9.3,35.8-34.4l0-0.4c1.2-12.3-0.6-21.4-5.4-27.2c-7-8.4-21.6-11.3-32.6-12.3l-51-4.6l-6.5,73.9L973.4,404.2z"/>
					<path d="M821.2,117.7c3.8,0,7.6,0.2,11.6,0.5l163.9,14c74.3,6.9,131.7,28.4,172.3,64.6c43.1,38.7,64.6,92.4,64.6,161
						c0,10-0.3,20.3-0.9,30.9c-4.4,48.7-22.8,88.6-55.2,119.8c-29.3,28.7-67.1,47.8-113.3,57.1L1183,717.4c15,19.4,21.5,39,19.7,59
						c-1.9,25-12.5,46.3-31.8,64.1c-17,15.6-36.8,23.4-59.6,23.4c-3.2,0-6.4-0.2-9.7-0.5c-30-2.5-53.1-15.6-69.3-39.3L875.9,597.6
						c1.9,32.5,0,82.1-5.6,148.9c-1.3,29.3-11.7,52-31.4,67.9c-17,13.8-36.9,20.6-59.8,20.6c-3.6,0-7.2-0.2-10.9-0.5
						c-26.8-2.5-48.4-13.3-64.6-32.3c-16.2-19-22.8-42.9-19.7-71.6l45.9-524.3c2.5-29.3,12.9-52,31.4-67.9
						C777.1,124.6,797.1,117.7,821.2,117.7 M981.9,426.7c35.7,0,55-18.3,57.9-54.8c3.7-38.7-15.6-59.9-58-63.7l-73-6.6l-10.3,118
						l73,6.6C975,426.6,978.5,426.7,981.9,426.7 M821.2,73.5c-34.9,0-64.8,10.6-88.9,31.4c-27.4,23.6-43,56.5-46.5,97.6L640,726.3
						c-4.3,40.4,6.1,76.6,30,104.6c23.8,28,55.5,44,94.1,47.6l0.1,0l0.1,0c5,0.5,10,0.7,14.9,0.7c33.1,0,62.6-10.3,87.6-30.5
						c29.2-23.6,45.7-58,47.7-99.4c0.5-5.5,0.9-10.9,1.3-16.2l80.1,116.1c23.6,34.5,58.8,54.7,101.8,58.3c4.6,0.4,9.1,0.6,13.6,0.6
						c33.6,0,64.5-12.1,89.5-35.1c27.7-25.5,43.2-56.8,46-93c2.8-31.3-6.9-61.5-28.8-89.8l-0.1-0.1l-0.1-0.1l-79.9-101.9
						c26.6-12.2,50.1-28.2,70.3-47.9c40.1-38.6,63.2-88.3,68.5-147.6l0.1-0.7l0-0.7c0.7-11.6,1-22.8,1-33.5
						c0-81.4-26.7-146.7-79.3-193.9l-0.1-0.1l-0.1-0.1c-47.6-42.5-114.1-67.9-197.6-75.6l-0.2,0l-0.2,0l-163.9-14
						C831.4,73.7,826.2,73.5,821.2,73.5L821.2,73.5z M946.3,379.6l2.6-29.9l28.9,2.6c12.2,1.1,16.6,3.8,17.5,4.4
						c0.3,0.8,1.2,3.9,0.5,11l0,0.4l0,0.4c-0.7,8.7-2.6,11.9-2.9,12.4c-0.5,0.3-3.4,1.6-10.9,1.6c-2,0-4.3-0.1-6.6-0.3L946.3,379.6
						L946.3,379.6z"/>
				</g>
				<g>
					<path d="M1569.4,886.5c-22.9,0-44.5-1.7-64.4-5c-93.2-14.6-169-57.6-225.3-127.8c-54.8-68-82.6-149.8-82.6-243.2
						c0-23.5,2-47.4,5.9-70.9c15.1-97.5,56.3-178.2,122.4-239.7c66.7-62,147.5-93.5,240.2-93.5c19.7,0,40.4,1.7,61.5,4.9
						c48.9,7.9,94.7,24.7,136.3,49.7c56.8,34.1,85.6,74.8,85.6,121c0,28.7-10,54.1-29.8,75.4c-20.2,21.8-45.3,32.8-74.7,32.8
						c-20.7,0-47.8-10.2-85.1-32.1c-21.1-12.2-43.9-20.1-67.7-23.4l-0.3,0c-7-1.1-14.4-1.6-21.9-1.6c-34.4,0-62.5,12.4-85.8,37.8
						c-24.3,26.5-40.1,62.9-46.9,108.2l-0.1,0.5c-2.3,13-3.4,25.9-3.4,38.3c0,38,9.3,69.9,27.5,94.5c19.1,25.9,44.9,41.1,79,46.5
						c8.2,1.1,16.3,1.6,24,1.6c14.9,0,33.7-2.9,55.8-8.6c26.5-6.9,44.5-10.1,56.6-10.1c33,0,60.7,13.3,82.2,39.4
						c21.3,26,29.4,55.1,23.9,86.5c-6.9,43.4-35,75.8-83.4,96.3l-0.2,0.1C1663,879,1619.5,886.5,1569.4,886.5z"/>
					<path d="M1565.6,128.5c18.7,0,38.1,1.6,58,4.7c46.2,7.5,88.9,23.1,128.3,46.8c49.9,30,74.9,64,74.9,102.1
						c0,23.1-8,43.2-23.9,60.4c-15.9,17.2-35.4,25.7-58.5,25.7c-16.2,0-40.9-9.7-74-29c-23.7-13.7-49-22.5-75.8-26.2
						c-8.1-1.2-16.5-1.9-25.3-1.9c-40.6,0-74.6,15-102.1,44.9c-27.5,30-44.9,69.9-52.4,119.8c-2.5,14.4-3.7,28.4-3.7,42.1
						c0,43.1,10.6,79,31.8,107.7c22.5,30.6,53.7,49,93.6,55.2c9.4,1.3,18.4,1.9,27.1,1.9c16.9,0,37.3-3.1,61.3-9.4
						c24-6.2,41-9.4,51-9.4c26.2,0,47.9,10.5,65.1,31.4c17.2,20.9,23.6,43.9,19.2,68.8c-5.6,35.6-29,62.1-70.2,79.6
						c-33.1,13.7-73.4,20.6-120.8,20.6c-21.9,0-42.1-1.6-60.9-4.7c-88-13.7-158.6-53.7-211.6-119.8
						c-51.8-64.3-77.7-140.7-77.7-229.4c0-22.5,1.9-44.9,5.6-67.4c14.4-93,52.9-168.7,115.6-227
						C1403.2,157.7,1478.2,128.5,1565.6,128.5 M1565.6,84.3c-98.5,0-184.4,33.4-255.3,99.4c-69.8,65-113.3,149.9-129.2,252.4
						c-4.1,24.7-6.2,49.7-6.2,74.4c0,98.6,29.4,185.1,87.5,257.1c59.9,74.7,140.3,120.3,239,135.8c21,3.5,43.9,5.2,67.9,5.2
						c53,0,99.4-8.1,137.7-24l0.2-0.1l0.2-0.1c69.5-29.5,90.9-77.7,96.6-113c6.4-37.4-3.5-73.4-28.6-104.1
						c-25.6-31.1-59.9-47.5-99.3-47.5c-14.2,0-33.4,3.3-62.1,10.8c-20.3,5.3-37.2,7.9-50.2,7.9c-6.7,0-13.7-0.5-20.8-1.4
						c-28.3-4.5-48.8-16.5-64.3-37.7l0-0.1l0-0.1c-15.6-21.1-23.2-47.7-23.2-81.4c0-11.1,1-22.8,3.1-34.5l0.1-0.5l0.1-0.5
						c6.1-40.8,20-73.3,41.3-96.5c19.1-20.9,41.2-30.6,69.5-30.6c6.4,0,12.7,0.5,18.6,1.4l0.3,0l0.3,0c21.3,3,40.8,9.7,59.7,20.6
						c40.9,23.9,71.4,35,96.2,35c35.3,0,66.8-13.8,91-39.9c23.3-25.1,35.7-56.4,35.7-90.4c0-28.6-9.2-55.5-27.3-80.2
						c-15.9-21.7-39.2-41.8-69.1-59.7c-44-26.5-92.4-44.2-144-52.6l-0.1,0l-0.1,0C1608.3,86.1,1586.5,84.3,1565.6,84.3L1565.6,84.3z
						"/>
				</g>
				<g>
					<path d="M2277,891.6c-3.2,0-6.5-0.1-9.8-0.4c-44.7-3.8-77.5-26-95.1-64.3c-3-6.5-8-21.8-22.2-83.2l-193.5-16.9
						c-23.4,55.8-31.7,70.9-36.4,77.3c-21.4,31.5-52.9,48.2-91,48.2c-4,0-8.1-0.2-12.3-0.5l-0.3,0c-30.4-3-56.3-16-76.8-38.4
						c-21.1-23-30.3-50.8-27.3-82.6c0.9-14,5.4-29.3,13.4-45.4l231.3-491.6c14.1-29,34.4-52.6,60.3-70.3c23.3-16,49.6-24,78.1-24
						c4.4,0,9,0.2,13.6,0.6c67.7,5.8,113.6,47.1,132.8,119.4l138.6,523.4c5,19.4,7.1,35.6,6.3,49.9l0,0.5l-0.1,0.5
						c-3.1,31.2-16.7,56.2-40.4,74.3C2325.5,883.6,2302.3,891.6,2277,891.6z M2098.2,517.8l-19.7-85.5
						c-9.4,23.8-20.4,50.9-33.1,81.1L2098.2,517.8z"/>
					<path d="M2095.2,121.4c3.8,0,7.7,0.2,11.7,0.5c58.7,5,96.4,39.3,113.3,103l138.6,523.4c4.4,16.9,6.2,31.2,5.6,43.1
						c-2.5,25-13.1,44.6-31.8,59c-16.6,12.7-35.1,19-55.6,19c-2.7,0-5.4-0.1-8.1-0.3c-36.8-3.1-62.4-20.3-76.8-51.5
						c-3.7-8.1-11.9-39.6-24.3-94.6l-225.6-19.7c-21.2,51.2-34.6,80.5-40.3,88c-17.5,25.9-41.8,38.8-72.9,38.8
						c-3.4,0-6.9-0.2-10.4-0.5c-25-2.5-45.9-12.9-62.7-31.4c-16.9-18.4-24-40.4-21.5-66c0.6-11.2,4.4-23.7,11.2-37.5l231.3-491.5
						c12.5-25.6,30.1-46.2,52.9-61.8C2049.3,128.2,2071.1,121.5,2095.2,121.4 M2126.5,542.4l-43.1-187.3
						c-13.1,39.3-36.5,98.6-70.2,177.9L2126.5,542.4 M2095.2,77.2v44.2V77.2c-33,0-63.5,9.4-90.6,27.9
						c-29.1,19.9-51.8,46.5-67.7,78.9l-0.1,0.3l-0.1,0.3l-231.1,491.1c-9.2,18.6-14.4,36.5-15.5,53.3c-3.4,37.6,8,71.9,33,99.3
						c24.3,26.6,54.9,41.9,90.9,45.5l0.3,0l0.3,0c4.8,0.4,9.6,0.6,14.2,0.6c45.7,0,83.3-19.9,109.1-57.6
						c4.8-6.7,12.2-19.4,32.4-66.7l161.5,14.1c12.5,53.1,16.9,65.1,20.1,71.9c10.6,23,25.9,41.3,45.5,54.4
						c19,12.8,41.8,20.4,67.7,22.6l0.1,0l0.1,0c3.9,0.3,7.8,0.5,11.6,0.5c30.3,0,58.1-9.5,82.5-28.2c28.3-21.7,45.2-52.7,48.9-89.7
						l0.1-1.1l0.1-1.1c0.9-16.5-1.4-35-7-56.4l0-0.1l0-0.1l-138.6-523.4c-10.6-40.1-28.8-72-54-94.9c-26.1-23.8-59.2-37.5-98.3-40.8
						C2105.5,77.5,2100.3,77.2,2095.2,77.2L2095.2,77.2z"/>
				</g>
				<g>
					<path d="M2459.2,898.7c-31.7,0-57.6-8.2-77.1-24.3c-19.6-16.2-32.2-40.1-37.4-70.9L2252.8,286l-0.1-0.9c-0.7-7-1-14.1-1-20.9
						c0-28.4,9-53.4,26.8-74.3c17.7-20.7,41.2-33.9,69.9-39.2l154-27.2c27.9-4.5,55.6-6.8,82.2-6.8c93.4,0,172.3,29.4,234.6,87.4
						c61.7,57.4,101.9,137.2,119.5,237.1c4.6,26.9,6.9,53.7,6.9,79.7c0,89.4-27.5,166.4-81.7,228.9
						c-54,62.3-128.5,102.3-221.2,118.7l-160.6,28C2475.2,897.9,2467.4,898.7,2459.2,898.7z M2553.9,660.1l48.5-8.4
						c72.5-12.5,106.2-54.1,106.2-130.8c0-14.2-1.5-29.2-4.3-44.7c-22.3-123.9-85.9-138.3-131.8-138.3c-10.5,0-22,1.1-34.4,3.4
						l-39.2,6.6L2553.9,660.1z"/>
					<path d="M2584.7,138.8c88,0,161.2,27.2,219.6,81.5c58.4,54.3,96,129.2,112.8,224.7c4.4,25.6,6.6,50.9,6.6,75.8
						c0,84.3-25.4,155.7-76.3,214.4C2796.4,793.9,2727,831,2639,846.6l-161,28.1c-5.6,1.2-11.9,1.9-18.7,1.9
						c-53.1,0-84-25.6-92.7-76.8L2274.8,283c-0.6-6.2-0.9-12.5-0.9-18.7c0-23.1,7.2-43.1,21.5-59.9c14.3-16.9,33.4-27.5,57.1-31.8
						l153.5-27.2C2532.9,141,2559.1,138.8,2584.7,138.8 M2536,685.6l70.2-12.2c83-14.4,124.5-65.2,124.5-152.6
						c0-15.6-1.6-31.8-4.7-48.7c-18.7-104.2-69.9-156.4-153.5-156.4c-11.9,0-24.7,1.3-38.4,3.7l-60.9,10.3L2536,685.6 M2584.7,94.6
						c-27.8,0-56.6,2.4-85.7,7.1l-0.3,0l-0.3,0.1L2344.8,129l-0.2,0l-0.2,0c-33.9,6.2-61.7,21.9-82.8,46.7
						c-21.3,25-32.1,54.8-32.1,88.6c0,7.6,0.4,15.3,1.1,23.1l0.2,1.7l0.3,1.7l91.7,516.7c6.2,36.1,21.4,64.4,45.1,84
						c23.5,19.5,54.2,29.4,91.2,29.4c9.6,0,18.8-0.9,27.2-2.7l160.2-27.9l0.1,0l0.1,0c97.8-17.3,176.6-59.7,234-126
						c57.8-66.7,87.1-148.5,87.1-243.4c0-27.3-2.4-55.3-7.2-83.3l0-0.1l0-0.1c-18.5-104.7-61-188.6-126.2-249.4
						C2767.8,126,2683.8,94.6,2584.7,94.6L2584.7,94.6z M2524.5,366l17-2.9l0.3,0l0.3,0c11.1-2,21.4-3,30.5-3
						c41.2,0,90.9,13.6,110,120l0,0.1l0,0.1c2.6,14.2,3.9,27.8,3.9,40.6c0,65.8-26.3,98.4-87.8,109l-26.8,4.6L2524.5,366L2524.5,366
						z"/>
				</g>
				<g>
					<path d="M3231,885.6c-7.5,0-15.4-0.7-23.6-2.2l-237.1-45.9c-27.8-5.2-51.1-18.2-69-38.4c-18.3-20.6-27.6-45.6-27.6-74.1
						c0-7.9,1.1-16.2,3.4-24.6l98.2-504.8c16.8-86,71-104,113.5-104c8.6,0,17.4,0.7,26.1,2.2l0.6,0.1l227.8,44.1
						c29.5,6.1,52.4,19.3,68.2,39.4c15.6,19.9,23.4,42.9,23.4,68.4c0,30.2-10.6,56.4-31.5,78.1c-21.1,21.9-47.2,33-77.7,33
						c-8.4,0-16.4-0.8-24-2.3l-117.6-22.9l-8.6,44.7l105.8,21c29.5,6.1,52.6,19.2,68.9,39c16.4,19.9,24.7,43.1,24.7,68.8
						c0,30.9-10.8,57.5-32.2,78.8c-21.4,21.4-47.9,32.2-78.8,32.2c-7.6,0-15.6-0.8-23.7-2.2l-106.7-21l-9.5,50.2l125.3,24.7
						c29,5.4,51.7,18.3,67.5,38.5c15.6,19.8,23.4,42.9,23.4,68.4c0,30.1-10.4,56.3-30.9,77.9C3288.5,874.5,3262.2,885.6,3231,885.6z
						"/>
					<path d="M3088.7,113.5c7.5,0,15,0.6,22.5,1.9l227.5,44c24.3,5,42.7,15.4,55.2,31.4c12.5,15.9,18.7,34.2,18.7,54.8
						c0,24.3-8.4,45.3-25.3,62.7c-16.9,17.5-37.5,26.2-61.8,26.2c-6.9,0-13.4-0.6-19.7-1.9l-139.5-27.1l-16.9,88l127.3,25.3
						c24.3,5,43.1,15.4,56.2,31.4c13.1,15.9,19.7,34.2,19.7,54.8c0,25-8.6,46-25.7,63.2c-17.2,17.2-38.2,25.7-63.2,25.7
						c-6.2,0-12.8-0.6-19.7-1.9l-128.3-25.3l-17.8,93.6l147,29c23.7,4.4,41.8,14.5,54.3,30.4c12.5,15.9,18.7,34.2,18.7,54.8
						c0,24.3-8.3,45.3-24.8,62.7c-16.5,17.5-37.3,26.2-62.3,26.2c-6.2,0-12.8-0.6-19.7-1.9l-236.9-45.9c-23.1-4.4-42-14.8-56.6-31.4
						c-14.7-16.5-22-36.4-22-59.5c0-6.2,0.9-12.8,2.8-19.7l98.3-505.6C3008.2,142.3,3038.7,113.5,3088.7,113.5 M3088.7,69.3
						c-36.5,0-67,11.3-90.7,33.5c-22.1,20.8-37.1,50.5-44.5,88.3l-98,504.2c-2.6,10-3.9,20-3.9,29.5c0,34.1,11.1,64,33.1,88.8
						c21.2,24,48.6,39.3,81.4,45.5l236.8,45.9l0.3,0.1l0.3,0c9.5,1.7,18.7,2.6,27.5,2.6c36.9,0,69.6-13.8,94.4-40
						c24.2-25.5,36.9-57.7,36.9-93.1c0-30.6-9.5-58.2-28.1-82.1c-19.2-24.5-46.4-40.2-80.8-46.6l-103.7-20.5l1.3-6.8l84.6,16.7
						l0.3,0.1l0.3,0.1c9.4,1.7,18.7,2.6,27.6,2.6c36.5,0,69.1-13.4,94.5-38.7c25.3-25.3,38.7-58,38.7-94.5c0-31-10-58.9-29.7-82.9
						c-19.6-23.8-47-39.5-81.4-46.6l-0.1,0l-0.1,0l-84.3-16.7l0.3-1.3l95.8,18.7c9,1.8,18.5,2.7,28.2,2.7
						c36.2,0,68.6-13.7,93.6-39.7c24.6-25.5,37.7-57.8,37.7-93.4c0-30.6-9.5-58.2-28.1-82.1c-19.1-24.3-46.4-40.3-81.1-47.4
						l-0.3-0.1l-0.3,0l-227.5-44l-0.6-0.1l-0.6-0.1C3108.5,70.1,3098.5,69.3,3088.7,69.3L3088.7,69.3z"/>
				</g>
			</g>
			<path d="M3270.8,326.5c9,1.8,18.5,2.7,28.2,2.7c36.2,0,68.6-13.7,93.6-39.7c24.6-25.5,37.7-57.8,37.7-93.4
				c0-30.6-9.5-58.2-28.1-82.1c-19.1-24.3-46.4-40.3-81.1-47.4l-0.3-0.1l-0.3,0l-227.5-44l-0.6-0.1l-0.6-0.1
				c-9.9-1.6-19.9-2.5-29.7-2.5c-36.5,0-67,11.3-90.7,33.5c-22.1,20.8-37.1,50.5-44.5,88.3l-25.8,132.5
				c-22.6-53.4-53.8-98.9-93.4-135.8c-66.6-61.9-150.6-93.3-249.7-93.3c-27.8,0-56.6,2.4-85.7,7.1l-0.3,0l-0.3,0.1l-153.5,27.2
				l-0.2,0l-0.2,0c-33.9,6.2-61.7,21.9-82.8,46.7c-2.8,3.3-5.4,6.7-7.9,10.2c-10.8-27.3-25.8-49.8-44.9-67.1
				c-26.1-23.8-59.2-37.5-98.3-40.8c-5.1-0.4-10.3-0.7-15.4-0.7v22.1l0,0l0-22.1c-33,0-63.5,9.4-90.6,27.9
				c-29.1,19.9-51.8,46.5-67.7,78.9l-0.1,0.3l-0.1,0.3l-209.7,445.7c-15.7-6.8-32.8-10.4-51-10.4c-14.2,0-33.4,3.3-62.1,10.8
				c-20.3,5.3-37.2,7.9-50.2,7.9c-6.7,0-13.7-0.5-20.8-1.4c-28.3-4.5-48.8-16.5-64.3-37.7l0-0.1l0-0.1
				c-15.6-21.1-23.2-47.7-23.2-81.4c0-11.1,1-22.8,3.1-34.5l0.1-0.5l0.1-0.5c6.1-40.8,20-73.3,41.3-96.5
				c19.1-20.9,41.2-30.6,69.5-30.6c6.4,0,12.7,0.5,18.6,1.4l0.3,0l0.3,0c21.3,3,40.8,9.7,59.7,20.6c40.9,23.9,71.4,35,96.2,35
				c35.3,0,66.8-13.8,91-39.9c23.3-25.1,35.7-56.4,35.7-90.4c0-28.6-9.2-55.5-27.3-80.2c-15.9-21.7-39.2-41.8-69.1-59.7
				c-44-26.5-92.4-44.2-144-52.6l-0.1,0l-0.1,0c-22.2-3.5-44-5.2-64.9-5.2c-98.5,0-184.4,33.4-255.3,99.4
				c-20.2,18.8-38.1,39.2-53.8,61.2c-13.2-31-32.6-58.1-58-80.9l-0.1-0.1l-0.1-0.1c-47.6-42.5-114.1-67.9-197.6-75.6l-0.2,0l-0.2,0
				l-163.8-14c-5.2-0.4-10.4-0.7-15.4-0.7c-34.9,0-64.8,10.6-88.9,31.4c-27.4,23.6-43,56.5-46.5,97.6l-17.2,196l-49-184.9
				c-10.6-40.1-28.8-72-54-94.9C513,45.5,480,31.7,440.9,28.4c-5.1-0.4-10.3-0.7-15.4-0.7v22.1l0,0l0-22.1c-33,0-63.5,9.4-90.6,27.9
				c-29.1,19.9-51.8,46.5-67.7,78.9l-0.1,0.3l-0.1,0.3L35.9,626.2c-9.2,18.6-14.4,36.5-15.5,53.3c-3.4,37.6,8,71.9,33,99.3
				c24.3,26.6,54.9,41.9,90.9,45.5l0.3,0l0.3,0c4.8,0.4,9.6,0.6,14.2,0.6c45.7,0,83.3-19.9,109.1-57.6c4.8-6.7,12.2-19.4,32.4-66.7
				l161.5,14.1c12.5,53.1,16.9,65.1,20.1,71.9c10.6,23,25.9,41.3,45.5,54.4c19,12.8,41.8,20.4,67.7,22.6l0.1,0l0.1,0
				c3.9,0.3,7.8,0.5,11.6,0.5c30.3,0,58.1-9.5,82.5-28.2c5.5-4.2,10.5-8.7,15.1-13.6c10.3,3.3,21.3,5.5,32.8,6.6l0.1,0l0.1,0
				c5,0.5,10,0.7,14.9,0.7c33.1,0,62.6-10.3,87.6-30.5c29.2-23.6,45.7-58,47.7-99.4c0.5-5.5,0.9-10.9,1.3-16.2l80.1,116.1
				c23.6,34.5,58.8,54.7,101.8,58.3c4.6,0.4,9.1,0.6,13.6,0.6c33.6,0,64.5-12.1,89.5-35.1c27.7-25.5,43.2-56.8,46-93
				c1.1-12.6,0.2-25.1-2.7-37.3c5.8,8.4,11.9,16.7,18.4,24.8c59.9,74.7,140.3,120.3,239,135.8c21,3.5,43.9,5.2,67.9,5.2
				c53,0,99.4-8.1,137.7-24l0.2-0.1l0.2-0.1c20-8.5,36-18.5,48.8-29.3c17.3,10.2,36.7,16.4,57.9,18.6l0.3,0l0.3,0
				c4.8,0.4,9.6,0.6,14.2,0.6c45.7,0,83.3-19.9,109.1-57.6c4.8-6.7,12.2-19.4,32.4-66.7l161.5,14.1c12.5,53.1,16.9,65.1,20.1,71.9
				c10.6,23,25.9,41.3,45.5,54.4c19,12.8,41.8,20.4,67.7,22.6l0.1,0l0.1,0c3.9,0.3,7.8,0.5,11.6,0.5c30.3,0,58.1-9.5,82.5-28.2
				c0.4-0.3,0.7-0.6,1.1-0.9c2.4,2.4,4.9,4.7,7.5,6.9c23.5,19.5,54.2,29.4,91.2,29.4c9.6,0,18.7-0.9,27.2-2.7l160.2-27.9l0.1,0
				l0.1,0c88.6-15.7,161.6-52,217.2-107.9c5.3,11.2,12.2,21.7,20.8,31.5c21.2,24,48.6,39.3,81.4,45.5l236.8,45.9l0.3,0.1l0.3,0
				c9.5,1.7,18.7,2.6,27.5,2.6c36.9,0,69.6-13.8,94.4-40c24.2-25.5,36.9-57.7,36.9-93.1c0-30.6-9.5-58.2-28.1-82.1
				c-19.2-24.5-46.4-40.2-80.8-46.6l-103.7-20.5l1.3-6.8l84.6,16.7l0.3,0.1l0.3,0.1c9.4,1.7,18.7,2.6,27.6,2.6
				c36.5,0,69.1-13.4,94.5-38.7c25.3-25.3,38.7-58,38.7-94.5c0-31-10-58.9-29.7-82.9c-19.6-23.8-47-39.5-81.4-46.6l-0.1,0l-0.1,0
				l-84.3-16.7l0.3-1.3L3270.8,326.5z M2515.2,313.5l0.3,0c11.1-2,21.4-3,30.5-3c41.2,0,90.9,13.6,110,120l0,0.1l0,0.1
				c2.6,14.2,3.9,27.8,3.9,40.6c0,65.8-26.3,98.4-87.8,109l-26.8,4.6L2498,316.5l17-2.9L2515.2,313.5z M969.2,318.2l0,0.4l0,0.4
				c-0.7,8.7-2.6,11.9-2.9,12.4c-0.5,0.3-3.4,1.6-10.9,1.6c-2,0-4.3-0.1-6.6-0.3l-29-2.6l2.6-29.9l28.9,2.6
				c12.2,1.1,16.6,3.8,17.5,4.4C969,308,969.9,311.1,969.2,318.2z M1111.4,538.7c14.3-6.5,27.7-14.3,40.2-23
				c4.7,39.8,14.7,77.3,29.8,112.4L1111.4,538.7z"/>
			<g>
				<path class="st0" d="M599.1,819.6c-36.8-3.1-62.4-20.3-76.8-51.5c-3.7-8.1-11.9-39.6-24.3-94.6l-225.6-19.7
					c-21.2,51.2-34.6,80.5-40.3,88c-19.4,28.7-47.1,41.5-83.3,38.4c-25-2.5-45.9-12.9-62.7-31.4c-16.9-18.4-24-40.4-21.5-66
					c0.6-11.2,4.4-23.7,11.2-37.5L307,153.9c12.5-25.6,30.1-46.2,52.9-61.8c22.8-15.6,48.5-22.1,77.2-19.7
					c58.7,5,96.4,39.3,113.3,103L689,698.8c4.4,16.9,6.2,31.2,5.6,43.1c-2.5,25-13.1,44.6-31.8,59
					C644,815.2,622.8,821.5,599.1,819.6z M413.7,305.6c-13.1,39.3-36.5,98.6-70.2,177.9l113.3,9.4L413.7,305.6z"/>
				<path class="st1" d="M849.4,548.1c1.9,32.5,0,82.1-5.6,148.9c-1.3,29.3-11.7,52-31.4,67.9c-19.7,15.9-43.2,22.6-70.7,20.1
					c-26.8-2.5-48.4-13.3-64.6-32.3c-16.2-19-22.8-42.9-19.7-71.6l45.9-524.3c2.5-29.3,12.9-52,31.4-67.9
					c18.4-15.9,42.3-22.6,71.6-20.1l163.9,14c74.3,6.9,131.7,28.4,172.3,64.6c43.1,38.7,64.6,92.4,64.6,161c0,10-0.3,20.3-0.9,30.9
					c-4.4,48.7-22.8,88.6-55.2,119.8c-29.3,28.7-67.1,47.8-113.3,57.1l118.9,151.7c15,19.4,21.5,39,19.7,59
					c-1.9,25-12.5,46.3-31.8,64.1c-19.4,17.8-42.5,25.4-69.3,22.9c-30-2.5-53.1-15.6-69.3-39.3L849.4,548.1z M955.2,258.8l-73-6.6
					l-10.3,118l73,6.6c42.4,3.7,65.2-14.3,68.3-54.3C1017,283.7,997.6,262.5,955.2,258.8z"/>
				<path class="st2" d="M1482,810.2c-88-13.7-158.6-53.7-211.6-119.8c-51.8-64.3-77.7-140.7-77.7-229.4c0-22.5,1.9-44.9,5.6-67.4
					c14.4-93,52.9-168.7,115.6-227c62.7-58.4,137.8-87.5,225.2-87.5c18.7,0,38.1,1.6,58,4.7c46.2,7.5,88.9,23.1,128.3,46.8
					c49.9,30,74.9,64,74.9,102.1c0,23.1-8,43.2-23.9,60.4c-15.9,17.2-35.4,25.7-58.5,25.7c-16.2,0-40.9-9.7-74-29
					c-23.7-13.7-49-22.5-75.8-26.2c-8.1-1.2-16.5-1.9-25.3-1.9c-40.6,0-74.6,15-102.1,44.9c-27.5,30-44.9,69.9-52.4,119.8
					c-2.5,14.4-3.7,28.4-3.7,42.1c0,43.1,10.6,79,31.8,107.7c22.5,30.6,53.7,49,93.6,55.2c9.4,1.3,18.4,1.9,27.1,1.9
					c16.9,0,37.3-3.1,61.3-9.4c24-6.2,41-9.4,51-9.4c26.2,0,47.9,10.5,65.1,31.4c17.2,20.9,23.6,43.9,19.2,68.8
					c-5.6,35.6-29,62.1-70.2,79.6c-33.1,13.7-73.4,20.6-120.8,20.6C1521,814.9,1500.7,813.3,1482,810.2z"/>
				<path class="st3" d="M2242.3,819.6c-36.8-3.1-62.4-20.3-76.8-51.5c-3.7-8.1-11.9-39.6-24.3-94.6l-225.6-19.7
					c-21.2,51.2-34.6,80.5-40.3,88c-19.4,28.7-47.1,41.5-83.3,38.4c-25-2.5-45.9-12.9-62.7-31.4c-16.9-18.4-24-40.4-21.5-66
					c0.6-11.2,4.4-23.7,11.2-37.5l231.3-491.5c12.5-25.6,30.1-46.2,52.9-61.8c22.8-15.6,48.5-22.1,77.2-19.7
					c58.7,5,96.4,39.3,113.3,103l138.6,523.4c4.4,16.9,6.2,31.2,5.6,43.1c-2.5,25-13.1,44.6-31.8,59
					C2287.3,815.2,2266,821.5,2242.3,819.6z M2056.9,305.6c-13.1,39.3-36.5,98.6-70.2,177.9l113.3,9.4L2056.9,305.6z"/>
				<path class="st4" d="M2612.5,797.1l-161,28.1c-5.6,1.2-11.9,1.9-18.7,1.9c-53.1,0-84-25.6-92.7-76.8l-91.8-516.8
					c-0.6-6.2-0.9-12.5-0.9-18.7c0-23.1,7.2-43.1,21.5-59.9c14.3-16.9,33.4-27.5,57.1-31.8l153.5-27.2c26.8-4.4,53-6.6,78.6-6.6
					c88,0,161.2,27.2,219.6,81.5c58.4,54.3,96,129.2,112.8,224.7c4.4,25.6,6.6,50.9,6.6,75.8c0,84.3-25.4,155.7-76.3,214.4
					C2769.9,744.4,2700.5,781.5,2612.5,797.1z M2507.6,270l-60.9,10.3l62.7,355.8l70.2-12.2c83-14.4,124.5-65.2,124.5-152.6
					c0-15.6-1.6-31.8-4.7-48.7c-18.7-104.2-69.9-156.4-153.5-156.4C2534.1,266.3,2521.3,267.5,2507.6,270z"/>
				<path class="st5" d="M3184.8,812.1l-236.9-45.9c-23.1-4.4-42-14.8-56.6-31.4c-14.7-16.5-22-36.4-22-59.5
					c0-6.2,0.9-12.8,2.8-19.7l98.3-505.6c11.2-57.4,41.8-86.1,91.8-86.1c7.5,0,15,0.6,22.5,1.9l227.5,44c24.3,5,42.7,15.4,55.2,31.4
					c12.5,15.9,18.7,34.2,18.7,54.8c0,24.3-8.4,45.3-25.3,62.7c-16.9,17.5-37.5,26.2-61.8,26.2c-6.9,0-13.4-0.6-19.7-1.9L3139.9,256
					l-16.9,88l127.3,25.3c24.3,5,43.1,15.4,56.2,31.4c13.1,15.9,19.7,34.2,19.7,54.8c0,25-8.6,46-25.7,63.2
					c-17.2,17.2-38.2,25.7-63.2,25.7c-6.2,0-12.8-0.6-19.7-1.9l-128.3-25.3l-17.8,93.6l147,29c23.7,4.4,41.8,14.5,54.3,30.4
					c12.5,15.9,18.7,34.2,18.7,54.8c0,24.3-8.3,45.3-24.8,62.7c-16.5,17.5-37.3,26.2-62.3,26.2
					C3198.2,814,3191.7,813.3,3184.8,812.1z"/>
			</g>
			<g>
				<g>
					<defs>
						<path id="SVGID_00000109747434216009064140000001911972523246000063_" d="M2242.3,819.6c-36.8-3.1-62.4-20.3-76.8-51.5
							c-3.7-8.1-11.9-39.6-24.3-94.6l-225.6-19.7c-21.2,51.2-34.6,80.5-40.3,88c-19.4,28.7-47.1,41.5-83.3,38.4
							c-25-2.5-45.9-12.9-62.7-31.4c-16.9-18.4-24-40.4-21.5-66c0.6-11.2,4.4-23.7,11.2-37.5l231.3-491.5
							c12.5-25.6,30.1-46.2,52.9-61.8c22.8-15.6,48.5-22.1,77.2-19.7c58.7,5,96.4,39.3,113.3,103l138.6,523.4
							c4.4,16.9,6.2,31.2,5.6,43.1c-2.5,25-13.1,44.6-31.8,59C2287.3,815.2,2266,821.5,2242.3,819.6z M2056.9,305.6
							c-13.1,39.3-36.5,98.6-70.2,177.9l113.3,9.4L2056.9,305.6z"/>
					</defs>
					<clipPath id="SVGID_00000111159087253290699770000003845375469386884251_">
						<use xlink:href="#SVGID_00000109747434216009064140000001911972523246000063_"  style="overflow:visible;"/>
					</clipPath>
					<g style="clip-path:url(#SVGID_00000111159087253290699770000003845375469386884251_);">
						<path class="st50" d="M2137.7,654.7L1903,638.2c0,0-23.6,129.9-109.1,129.9c-89.6,0-139.7-94-139.7-94"/>
						<path class="st50" d="M2120,753.2c0,0,49.5,56,108.5,56c48.9,0,109.6-27.5,94.9-84.9c-13.8-54-120.9-482.7-142.1-569.5
							c-27.5-112.4-89-113.2-89-113.2"/>
						<line class="st51" x1="1959" y1="486.1" x2="2041.6" y2="284.5"/>
					</g>
				</g>
				<g>
					<defs>
						<path id="SVGID_00000124858072374729300810000016081507824993797287_" d="M2242.3,819.6c-36.8-3.1-62.4-20.3-76.8-51.5
							c-3.7-8.1-11.9-39.6-24.3-94.6l-225.6-19.7c-21.2,51.2-34.6,80.5-40.3,88c-19.4,28.7-47.1,41.5-83.3,38.4
							c-25-2.5-45.9-12.9-62.7-31.4c-16.9-18.4-24-40.4-21.5-66c0.6-11.2,4.4-23.7,11.2-37.5l231.3-491.5
							c12.5-25.6,30.1-46.2,52.9-61.8c22.8-15.6,48.5-22.1,77.2-19.7c58.7,5,96.4,39.3,113.3,103l138.6,523.4
							c4.4,16.9,6.2,31.2,5.6,43.1c-2.5,25-13.1,44.6-31.8,59C2287.3,815.2,2266,821.5,2242.3,819.6z M2056.9,305.6
							c-13.1,39.3-36.5,98.6-70.2,177.9l113.3,9.4L2056.9,305.6z"/>
					</defs>
					<clipPath id="SVGID_00000129179218203662839790000011029537830240780442_">
						<use xlink:href="#SVGID_00000124858072374729300810000016081507824993797287_"  style="overflow:visible;"/>
					</clipPath>
					<g style="clip-path:url(#SVGID_00000129179218203662839790000011029537830240780442_);">
						<path class="st3" d="M2068.7,75.5c3.7,0,7.5,0.2,11.4,0.5c28.4,2.4,52,12,70.2,28.6c18.3,16.6,31.7,40.8,39.9,71.8
							l138.6,523.4c4.2,16.4,6.1,30.5,5.5,41.9c-2.4,23.8-12.6,42.8-30.5,56.4c-15.9,12.2-33.8,18.3-53.4,18.3
							c-2.6,0-5.2-0.1-7.8-0.3c-35.8-3-60-19.2-73.9-49.5c-3.6-7.9-11.7-39.4-24.1-93.9c-0.3-1.5-1.6-2.6-3.1-2.7l-225.6-19.7
							c-0.1,0-0.2,0-0.3,0c-1.4,0-2.7,0.9-3.3,2.2c-21,50.7-34.4,80-39.8,87.2c0,0-0.1,0.1-0.1,0.1c-16.9,25.1-39.8,37.3-70,37.3
							c-3.3,0-6.7-0.2-10-0.4c-24-2.4-44.3-12.6-60.5-30.2c-16.1-17.5-23-38.8-20.6-63.3c0,0,0-0.1,0-0.1
							c0.6-10.7,4.3-22.8,10.9-36.1l231.2-491.5c12.2-24.9,29.6-45.2,51.7-60.4C2024,82,2045.4,75.5,2068.7,75.5L2068.7,75.5
							 M2100,496.4c1,0,2-0.4,2.7-1.2c0.7-0.9,1-2,0.8-3.1l-43.1-187.3c-0.4-1.5-1.7-2.7-3.3-2.7c-0.1,0-0.1,0-0.2,0
							c-1.5,0-2.9,1-3.4,2.4c-13,39.1-36.6,98.9-70.1,177.6c-0.4,1-0.4,2.2,0.2,3.2c0.6,1,1.6,1.6,2.7,1.7l113.3,9.4
							C2099.8,496.4,2099.9,496.4,2100,496.4 M2068.7,71.9c-24.1,0-45.9,6.7-65.6,20.2c-22.8,15.6-40.4,36.2-52.9,61.8l-231.3,491.5
							c-6.9,13.7-10.6,26.2-11.2,37.5c-2.5,25.6,4.7,47.6,21.5,66c16.9,18.4,37.8,28.9,62.7,31.4c3.5,0.3,7,0.5,10.4,0.5
							c31.2,0,55.5-12.9,72.9-38.8c5.6-7.5,19-36.8,40.3-88l225.6,19.7c12.5,54.9,20.6,86.5,24.3,94.6
							c14.4,31.2,39.9,48.4,76.8,51.5c2.7,0.2,5.4,0.3,8.1,0.3c20.5,0,39-6.4,55.6-19c18.7-14.4,29.3-34,31.8-59
							c0.6-11.9-1.3-26.2-5.6-43.1l-138.6-523.4c-16.9-63.7-54.6-98-113.3-103C2076.4,72.1,2072.5,71.9,2068.7,71.9L2068.7,71.9z
							 M2100,492.8l-113.3-9.4c33.7-79.3,57.1-138.6,70.2-177.9L2100,492.8L2100,492.8z"/>
					</g>
				</g>
			</g>
			<g>
				<g>
					<defs>
						<path id="SVGID_00000139990089588524952210000015983747119656875944_" d="M849.4,548.1c1.9,32.5,0,82.1-5.6,148.9
							c-1.3,29.3-11.7,52-31.4,67.9c-19.7,15.9-43.2,22.6-70.7,20.1c-26.8-2.5-48.4-13.3-64.6-32.3c-16.2-19-22.8-42.9-19.7-71.6
							l45.9-524.3c2.5-29.3,12.9-52,31.4-67.9c18.4-15.9,42.3-22.6,71.6-20.1l163.9,14c74.3,6.9,131.7,28.4,172.3,64.6
							c43.1,38.7,64.6,92.4,64.6,161c0,10-0.3,20.3-0.9,30.9c-4.4,48.7-22.8,88.6-55.2,119.8c-29.3,28.7-67.1,47.8-113.3,57.1
							l118.9,151.7c15,19.4,21.5,39,19.7,59c-1.9,25-12.5,46.3-31.8,64.1c-19.4,17.8-42.5,25.4-69.3,22.9
							c-30-2.5-53.1-15.6-69.3-39.3L849.4,548.1z M955.2,258.8l-73-6.6l-10.3,118l73,6.6c42.4,3.7,65.2-14.3,68.3-54.3
							C1017,283.7,997.6,262.5,955.2,258.8z"/>
					</defs>
					<clipPath id="SVGID_00000165917998212116323710000014998773023305300653_">
						<use xlink:href="#SVGID_00000139990089588524952210000015983747119656875944_"  style="overflow:visible;"/>
					</clipPath>
					<g style="clip-path:url(#SVGID_00000165917998212116323710000014998773023305300653_);">
						<path class="st54" d="M856.8,353.3l11.6-114.8c0,0,42,3.2,75,5c37.6,2.1,46.5,36.3,43.5,69.9"/>
						<path class="st54" d="M1126.6,74.6c0,0,69.6,54.2,69.6,242.9c0,158.6-169.2,188.7-169.2,188.7"/>
						<path class="st54" d="M837.1,539.2c0,0-5.9,109.6-7.7,146.8c-2.2,47.7-31.7,83.1-85.5,83.1c-83.1,0-120.3-134.4-120.3-134.4"
							/>
						<path class="st54" d="M926.2,736.1c0,0,115.6,99.6,188.7,56.6c77.4-45.6,59.5-168.6,59.5-168.6"/>
					</g>
				</g>
				<g>
					<defs>
						<path id="SVGID_00000119111608393472187420000001207774676849714571_" d="M849.4,548.1c1.9,32.5,0,82.1-5.6,148.9
							c-1.3,29.3-11.7,52-31.4,67.9c-19.7,15.9-43.2,22.6-70.7,20.1c-26.8-2.5-48.4-13.3-64.6-32.3c-16.2-19-22.8-42.9-19.7-71.6
							l45.9-524.3c2.5-29.3,12.9-52,31.4-67.9c18.4-15.9,42.3-22.6,71.6-20.1l163.9,14c74.3,6.9,131.7,28.4,172.3,64.6
							c43.1,38.7,64.6,92.4,64.6,161c0,10-0.3,20.3-0.9,30.9c-4.4,48.7-22.8,88.6-55.2,119.8c-29.3,28.7-67.1,47.8-113.3,57.1
							l118.9,151.7c15,19.4,21.5,39,19.7,59c-1.9,25-12.5,46.3-31.8,64.1c-19.4,17.8-42.5,25.4-69.3,22.9
							c-30-2.5-53.1-15.6-69.3-39.3L849.4,548.1z M955.2,258.8l-73-6.6l-10.3,118l73,6.6c42.4,3.7,65.2-14.3,68.3-54.3
							C1017,283.7,997.6,262.5,955.2,258.8z"/>
					</defs>
					<clipPath id="SVGID_00000129170150393787742550000006352894067953088930_">
						<use xlink:href="#SVGID_00000119111608393472187420000001207774676849714571_"  style="overflow:visible;"/>
					</clipPath>
					<g style="clip-path:url(#SVGID_00000129170150393787742550000006352894067953088930_);">
						<path class="st1" d="M794.7,71.7c3.7,0,7.5,0.2,11.3,0.5l163.8,14c73.2,6.8,130.4,28.2,170.2,63.7c21,18.9,37,41.8,47.5,68
							c10.5,26.3,15.9,56.7,15.9,90.4c0,9.7-0.3,20-0.9,30.6c-4.3,47.6-22.5,87.1-54.2,117.6c-28.7,28.1-66.2,47-111.5,56.2
							c-1.2,0.2-2.2,1.1-2.6,2.2c-0.4,1.2-0.2,2.4,0.5,3.4l118.9,151.7c14.3,18.5,20.7,37.5,18.9,56.6
							c-1.8,23.9-12.1,44.7-30.7,61.8c-16.2,14.9-35.5,22.5-57.2,22.5c-3.1,0-6.2-0.1-9.4-0.4c-28.7-2.4-51.1-15.1-66.7-37.8
							L852.3,546.1c-0.7-1-1.8-1.5-2.9-1.5c-0.4,0-0.8,0.1-1.1,0.2c-1.5,0.5-2.5,2-2.4,3.5c1.9,32.1,0,82-5.6,148.4c0,0,0,0.1,0,0.1
							c-1.2,28.2-11.3,50.1-30.1,65.3c-16.3,13.2-35.6,19.8-57.5,19.8c-3.5,0-7-0.2-10.6-0.5c-25.8-2.4-46.7-12.9-62.2-31.1
							c-15.5-18.2-21.8-41.4-18.8-69L706.8,157c2.4-28.2,12.5-50.3,30.2-65.5C752.2,78.4,771.6,71.7,794.7,71.7 M955.4,380.7
							c37.7,0,58.4-19.5,61.4-58c1.9-19.3-1.9-34.8-11.2-46.1c-10.1-12.2-27-19.4-50-21.5l-73-6.6c-0.1,0-0.2,0-0.3,0
							c-0.8,0-1.6,0.3-2.3,0.8c-0.7,0.6-1.2,1.5-1.3,2.4l-10.3,118c-0.2,1.9,1.3,3.7,3.2,3.8l73,6.6
							C948.3,380.6,951.9,380.7,955.4,380.7 M794.7,68.2c-24.1,0-44.1,6.9-60,20.6c-18.4,15.9-28.9,38.6-31.4,67.9L657.4,681
							c-3.1,28.7,3.4,52.6,19.7,71.6c16.2,19,37.8,29.8,64.6,32.3c3.7,0.3,7.4,0.5,10.9,0.5c22.8,0,42.8-6.9,59.8-20.6
							c19.7-15.9,30.1-38.5,31.4-67.9c5.6-66.8,7.5-116.4,5.6-148.9l156.4,226.6c16.2,23.7,39.3,36.8,69.3,39.3
							c3.3,0.3,6.5,0.5,9.7,0.5c22.7,0,42.6-7.8,59.6-23.4c19.3-17.8,30-39.2,31.8-64.1c1.9-20-4.7-39.6-19.7-59l-118.9-151.7
							c46.2-9.4,83.9-28.4,113.3-57.1c32.4-31.2,50.9-71.2,55.2-119.8c0.6-10.6,0.9-20.9,0.9-30.9c0-68.7-21.5-122.3-64.6-161
							c-40.6-36.2-98-57.7-172.3-64.6l-163.9-14C802.3,68.4,798.5,68.2,794.7,68.2L794.7,68.2z M955.4,377.2
							c-3.3,0-6.8-0.2-10.5-0.5l-73-6.6l10.3-118l73,6.6c42.4,3.7,61.8,25,58,63.7C1010.4,359,991.1,377.2,955.4,377.2L955.4,377.2z
							"/>
					</g>
				</g>
			</g>
			<g>
				<g>
					<defs>
						<path id="SVGID_00000178919034408410762800000014877629445632140986_" d="M1482,810.2c-88-13.7-158.6-53.7-211.6-119.8
							c-51.8-64.3-77.7-140.7-77.7-229.4c0-22.5,1.9-44.9,5.6-67.4c14.4-93,52.9-168.7,115.6-227c62.7-58.4,137.8-87.5,225.2-87.5
							c18.7,0,38.1,1.6,58,4.7c46.2,7.5,88.9,23.1,128.3,46.8c49.9,30,74.9,64,74.9,102.1c0,23.1-8,43.2-23.9,60.4
							c-15.9,17.2-35.4,25.7-58.5,25.7c-16.2,0-40.9-9.7-74-29c-23.7-13.7-49-22.5-75.8-26.2c-8.1-1.2-16.5-1.9-25.3-1.9
							c-40.6,0-74.6,15-102.1,44.9c-27.5,30-44.9,69.9-52.4,119.8c-2.5,14.4-3.7,28.4-3.7,42.1c0,43.1,10.6,79,31.8,107.7
							c22.5,30.6,53.7,49,93.6,55.2c9.4,1.3,18.4,1.9,27.1,1.9c16.9,0,37.3-3.1,61.3-9.4c24-6.2,41-9.4,51-9.4
							c26.2,0,47.9,10.5,65.1,31.4c17.2,20.9,23.6,43.9,19.2,68.8c-5.6,35.6-29,62.1-70.2,79.6c-33.1,13.7-73.4,20.6-120.8,20.6
							C1521,814.9,1500.7,813.3,1482,810.2z"/>
					</defs>
					<clipPath id="SVGID_00000004513554725424937970000007405801624917720717_">
						<use xlink:href="#SVGID_00000178919034408410762800000014877629445632140986_"  style="overflow:visible;"/>
					</clipPath>
					<g style="clip-path:url(#SVGID_00000004513554725424937970000007405801624917720717_);">
						<path class="st57" d="M1475.1,594c0,0-130.9-23.6-101.4-191.6c28.4-161.9,175.1-174.5,258.8-128.5
							c57.1,31.4,120.3,44.8,148-21.2c24.5-58.3-21.2-163.3-21.2-163.3"/>
						<path class="st57" d="M1656.1,560.4c0,0,61.9,25.9,61.9,122.6c0,75.5-75.5,118.5-191,118.5c-226.4,0-360.2-221.1-360.2-221.1"
							/>
					</g>
				</g>
				<g>
					<defs>
						<path id="SVGID_00000071527419429010111290000015884628018289797764_" d="M1482,810.2c-88-13.7-158.6-53.7-211.6-119.8
							c-51.8-64.3-77.7-140.7-77.7-229.4c0-22.5,1.9-44.9,5.6-67.4c14.4-93,52.9-168.7,115.6-227c62.7-58.4,137.8-87.5,225.2-87.5
							c18.7,0,38.1,1.6,58,4.7c46.2,7.5,88.9,23.1,128.3,46.8c49.9,30,74.9,64,74.9,102.1c0,23.1-8,43.2-23.9,60.4
							c-15.9,17.2-35.4,25.7-58.5,25.7c-16.2,0-40.9-9.7-74-29c-23.7-13.7-49-22.5-75.8-26.2c-8.1-1.2-16.5-1.9-25.3-1.9
							c-40.6,0-74.6,15-102.1,44.9c-27.5,30-44.9,69.9-52.4,119.8c-2.5,14.4-3.7,28.4-3.7,42.1c0,43.1,10.6,79,31.8,107.7
							c22.5,30.6,53.7,49,93.6,55.2c9.4,1.3,18.4,1.9,27.1,1.9c16.9,0,37.3-3.1,61.3-9.4c24-6.2,41-9.4,51-9.4
							c26.2,0,47.9,10.5,65.1,31.4c17.2,20.9,23.6,43.9,19.2,68.8c-5.6,35.6-29,62.1-70.2,79.6c-33.1,13.7-73.4,20.6-120.8,20.6
							C1521,814.9,1500.7,813.3,1482,810.2z"/>
					</defs>
					<clipPath id="SVGID_00000003827823577770280950000005499774990842386854_">
						<use xlink:href="#SVGID_00000071527419429010111290000015884628018289797764_"  style="overflow:visible;"/>
					</clipPath>
					<g style="clip-path:url(#SVGID_00000003827823577770280950000005499774990842386854_);">
						<path class="st2" d="M1539.1,82.5c18.4,0,37.8,1.6,57.5,4.6c45.5,7.4,88.3,23,127,46.4c48.6,29.1,73.2,62.5,73.2,99
							c0,22.1-7.7,41.6-22.9,58c-15.1,16.3-34,24.6-55.9,24.6c-15.5,0-39.8-9.6-72.2-28.5c-24-13.9-50-22.9-77.1-26.7
							c-8.3-1.3-17-1.9-25.8-1.9c-41.4,0-76.6,15.5-104.7,46.1c-27.8,30.3-45.8,71.3-53.3,121.6c-2.5,14.5-3.8,28.9-3.8,42.7
							c0,43.7,10.9,80.6,32.5,109.8c22.9,31.2,55.2,50.3,96,56.7c9.4,1.3,18.7,1.9,27.6,1.9c17.1,0,38-3.2,62.2-9.5
							c23.7-6.1,40.5-9.3,50.1-9.3c25.3,0,45.7,9.8,62.3,30.1c16.4,20,22.6,42.2,18.4,66c-2.7,17-9.7,32.1-20.9,44.8
							c-11.3,12.8-27.2,23.6-47.2,32.1c-32.5,13.5-72.7,20.3-119.4,20.3c-21.5,0-41.8-1.6-60.3-4.6c-43.4-6.8-83-20.2-117.7-39.8
							c-34.7-19.7-65.6-46.1-91.7-78.7c-25.5-31.7-44.9-66.8-57.7-104.5c-12.8-37.7-19.2-79-19.2-122.7c0-22.2,1.9-44.6,5.6-66.9
							c7.1-45.9,20.3-88.1,39.3-125.4c19-37.3,44.3-70.8,75.2-99.6c30.9-28.7,65.3-50.6,102.2-64.9
							C1455.5,89.8,1496,82.5,1539.1,82.5 M1539.1,79c-87.4,0-162.4,29.2-225.2,87.5c-62.7,58.4-101.3,134-115.6,227
							c-3.7,22.5-5.6,44.9-5.6,67.4c0,88.6,25.9,165.1,77.7,229.4c53,66.2,123.6,106.1,211.6,119.8c18.7,3.1,39,4.7,60.9,4.7
							c47.4,0,87.7-6.9,120.8-20.6c41.2-17.5,64.6-44,70.2-79.6c4.4-25-2-47.9-19.2-68.8c-17.2-20.9-38.9-31.4-65.1-31.4
							c-10,0-27,3.1-51,9.4c-24,6.2-44.5,9.4-61.3,9.4c-8.7,0-17.8-0.6-27.1-1.9c-40-6.2-71.2-24.6-93.6-55.2
							c-21.2-28.7-31.8-64.6-31.8-107.7c0-13.7,1.2-27.8,3.7-42.1c7.5-49.9,25-89.9,52.4-119.8c27.5-30,61.5-44.9,102.1-44.9
							c8.7,0,17.2,0.6,25.3,1.9c26.8,3.7,52.1,12.5,75.8,26.2c33.1,19.4,57.7,29,74,29c23.1,0,42.6-8.6,58.5-25.7
							c15.9-17.2,23.9-37.3,23.9-60.4c0-38.1-25-72.1-74.9-102.1c-39.3-23.7-82.1-39.3-128.3-46.8C1577.1,80.6,1557.8,79,1539.1,79
							L1539.1,79z"/>
					</g>
				</g>
			</g>
			<g>
				<g>
					<defs>
						<path id="SVGID_00000026141561282120403390000011561577853219493812_" d="M2612.5,797.1l-161,28.1c-5.6,1.2-11.9,1.9-18.7,1.9
							c-53.1,0-84-25.6-92.7-76.8l-91.8-516.8c-0.6-6.2-0.9-12.5-0.9-18.7c0-23.1,7.2-43.1,21.5-59.9c14.3-16.9,33.4-27.5,57.1-31.8
							l153.5-27.2c26.8-4.4,53-6.6,78.6-6.6c88,0,161.2,27.2,219.6,81.5c58.4,54.3,96,129.2,112.8,224.7c4.4,25.6,6.6,50.9,6.6,75.8
							c0,84.3-25.4,155.7-76.3,214.4C2769.9,744.4,2700.5,781.5,2612.5,797.1z M2507.6,270l-60.9,10.3l62.7,355.8l70.2-12.2
							c83-14.4,124.5-65.2,124.5-152.6c0-15.6-1.6-31.8-4.7-48.7c-18.7-104.2-69.9-156.4-153.5-156.4
							C2534.1,266.3,2521.3,267.5,2507.6,270z"/>
					</defs>
					<clipPath id="SVGID_00000092422221376984120090000006539051450606764928_">
						<use xlink:href="#SVGID_00000026141561282120403390000011561577853219493812_"  style="overflow:visible;"/>
					</clipPath>
					<g style="clip-path:url(#SVGID_00000092422221376984120090000006539051450606764928_);">
						<path class="st60" d="M2492.7,637.6L2431.9,265c0,0,0,0,81.4-12.4c73-11.1,137.9,50.1,156.2,140.3"/>
						<path class="st60" d="M2291.6,743.2c0,0,67.2,79.7,165.7,60.1c83.1-16.5,145-29.8,216.4-44.8
							c97.9-20.6,226.3-140.4,211.1-334.3c-15.3-195.7-146.2-365.5-146.2-365.5"/>
					</g>
				</g>
				<g>
					<defs>
						<path id="SVGID_00000147201675128817655080000014315411877978444733_" d="M2612.5,797.1l-161,28.1c-5.6,1.2-11.9,1.9-18.7,1.9
							c-53.1,0-84-25.6-92.7-76.8l-91.8-516.8c-0.6-6.2-0.9-12.5-0.9-18.7c0-23.1,7.2-43.1,21.5-59.9c14.3-16.9,33.4-27.5,57.1-31.8
							l153.5-27.2c26.8-4.4,53-6.6,78.6-6.6c88,0,161.2,27.2,219.6,81.5c58.4,54.3,96,129.2,112.8,224.7c4.4,25.6,6.6,50.9,6.6,75.8
							c0,84.3-25.4,155.7-76.3,214.4C2769.9,744.4,2700.5,781.5,2612.5,797.1z M2507.6,270l-60.9,10.3l62.7,355.8l70.2-12.2
							c83-14.4,124.5-65.2,124.5-152.6c0-15.6-1.6-31.8-4.7-48.7c-18.7-104.2-69.9-156.4-153.5-156.4
							C2534.1,266.3,2521.3,267.5,2507.6,270z"/>
					</defs>
					<clipPath id="SVGID_00000037659169458751572990000009481228768709694112_">
						<use xlink:href="#SVGID_00000147201675128817655080000014315411877978444733_"  style="overflow:visible;"/>
					</clipPath>
					<g style="clip-path:url(#SVGID_00000037659169458751572990000009481228768709694112_);">
						<path class="st4" d="M2558.1,92.8c43.4,0,83.6,6.8,119.7,20.1c36,13.3,68.8,33.7,97.5,60.4c28.7,26.7,52.7,59,71.2,95.9
							c18.6,37,32.2,79.6,40.5,126.8c4.3,25.3,6.5,50.7,6.5,75.2c0,41.5-6.3,80.4-18.9,115.6c-12.5,35.2-31.5,67.6-56.6,96.5
							c-25,28.9-55.1,52.8-89.2,71.1c-34.2,18.3-73.6,31.5-117,39.2l-161,28.1c-0.1,0-0.1,0-0.2,0c-5.4,1.2-11.4,1.8-18,1.8
							c-25.6,0-46-6.2-60.7-18.4c-14.7-12.2-24.3-30.8-28.5-55.5L2251.7,233c-0.6-6.2-0.9-12.3-0.9-18.2c0-22.1,7-41.5,20.7-57.6
							c13.7-16.1,32.3-26.4,55-30.6l153.5-27.1C2506.6,95,2532.9,92.8,2558.1,92.8 M2509.5,639.6c0.2,0,0.4,0,0.6-0.1l70.2-12.2
							c84.6-14.6,127.5-67.1,127.5-156.1c0-15.7-1.6-32.3-4.7-49.3c-19-105.7-71.8-159.3-157-159.3c-12,0-25.1,1.3-39,3.8
							l-60.9,10.3c-0.9,0.2-1.8,0.7-2.3,1.4c-0.5,0.8-0.8,1.7-0.6,2.7l62.7,355.8C2506.3,638.4,2507.8,639.6,2509.5,639.6
							 M2558.1,89.3c-25.6,0-51.8,2.2-78.6,6.6L2325.9,123c-23.7,4.4-42.8,15-57.1,31.8c-14.4,16.9-21.5,36.8-21.5,59.9
							c0,6.2,0.3,12.5,0.9,18.7l91.8,516.8c8.7,51.2,39.6,76.8,92.7,76.8c6.9,0,13.1-0.6,18.7-1.9l161-28.1
							c88-15.6,157.4-52.7,208.3-111.4c50.9-58.7,76.3-130.1,76.3-214.4c0-25-2.2-50.2-6.6-75.8c-16.9-95.5-54.5-170.4-112.8-224.7
							C2719.3,116.4,2646.2,89.3,2558.1,89.3L2558.1,89.3z M2509.5,636.1l-62.7-355.8l60.9-10.3c13.7-2.5,26.5-3.7,38.4-3.7
							c83.6,0,134.8,52.1,153.5,156.4c3.1,16.9,4.7,33.1,4.7,48.7c0,87.4-41.5,138.3-124.5,152.6L2509.5,636.1L2509.5,636.1z"/>
					</g>
				</g>
			</g>
			<g>
				<g>
					<defs>
						<path id="SVGID_00000085940570024541012530000017238438295121670566_" d="M3184.8,812.1l-236.9-45.9
							c-23.1-4.4-42-14.8-56.6-31.4c-14.7-16.5-22-36.4-22-59.5c0-6.2,0.9-12.8,2.8-19.7l98.3-505.6c11.2-57.4,41.8-86.1,91.8-86.1
							c7.5,0,15,0.6,22.5,1.9l227.5,44c24.3,5,42.7,15.4,55.2,31.4c12.5,15.9,18.7,34.2,18.7,54.8c0,24.3-8.4,45.3-25.3,62.7
							c-16.9,17.5-37.5,26.2-61.8,26.2c-6.9,0-13.4-0.6-19.7-1.9L3139.9,256l-16.9,88l127.3,25.3c24.3,5,43.1,15.4,56.2,31.4
							c13.1,15.9,19.7,34.2,19.7,54.8c0,25-8.6,46-25.7,63.2c-17.2,17.2-38.2,25.7-63.2,25.7c-6.2,0-12.8-0.6-19.7-1.9l-128.3-25.3
							l-17.8,93.6l147,29c23.7,4.4,41.8,14.5,54.3,30.4c12.5,15.9,18.7,34.2,18.7,54.8c0,24.3-8.3,45.3-24.8,62.7
							c-16.5,17.5-37.3,26.2-62.3,26.2C3198.2,814,3191.7,813.3,3184.8,812.1z"/>
					</defs>
					<clipPath id="SVGID_00000066494770336131236420000007466022257767025577_">
						<use xlink:href="#SVGID_00000085940570024541012530000017238438295121670566_"  style="overflow:visible;"/>
					</clipPath>
					<g style="clip-path:url(#SVGID_00000066494770336131236420000007466022257767025577_);">
						<path class="st63" d="M2837,655.3c0,0,25.7,78.1,108.9,94.6c224.1,44.6-5.4-1.1,223.6,44.5c102.2,20.3,138.5-65.4,109.7-153.9
							"/>
						<path class="st63" d="M3052.2,612.9l29.1-112.6c0,0,0,0,149.7,28.7c82.8,15.9,103.6-81.8,70-173.2"/>
						<path class="st63" d="M3106.8,339.7l23.8-102c0,0,0,0,140.9,23.4c83.2,13.8,128.4-78.2,94.7-169.6"/>
					</g>
				</g>
				<g>
					<defs>
						<path id="SVGID_00000182515022445670981350000008589469079231518357_" d="M3184.8,812.1l-236.9-45.9
							c-23.1-4.4-42-14.8-56.6-31.4c-14.7-16.5-22-36.4-22-59.5c0-6.2,0.9-12.8,2.8-19.7l98.3-505.6c11.2-57.4,41.8-86.1,91.8-86.1
							c7.5,0,15,0.6,22.5,1.9l227.5,44c24.3,5,42.7,15.4,55.2,31.4c12.5,15.9,18.7,34.2,18.7,54.8c0,24.3-8.4,45.3-25.3,62.7
							c-16.9,17.5-37.5,26.2-61.8,26.2c-6.9,0-13.4-0.6-19.7-1.9L3139.9,256l-16.9,88l127.3,25.3c24.3,5,43.1,15.4,56.2,31.4
							c13.1,15.9,19.7,34.2,19.7,54.8c0,25-8.6,46-25.7,63.2c-17.2,17.2-38.2,25.7-63.2,25.7c-6.2,0-12.8-0.6-19.7-1.9l-128.3-25.3
							l-17.8,93.6l147,29c23.7,4.4,41.8,14.5,54.3,30.4c12.5,15.9,18.7,34.2,18.7,54.8c0,24.3-8.3,45.3-24.8,62.7
							c-16.5,17.5-37.3,26.2-62.3,26.2C3198.2,814,3191.7,813.3,3184.8,812.1z"/>
					</defs>
					<clipPath id="SVGID_00000017499352714013574160000005402952051536144530_">
						<use xlink:href="#SVGID_00000182515022445670981350000008589469079231518357_"  style="overflow:visible;"/>
					</clipPath>
					<g style="clip-path:url(#SVGID_00000017499352714013574160000005402952051536144530_);">
						<path class="st5" d="M3062.2,67.5c7.2,0,14.6,0.6,21.8,1.8l227.4,44c23.4,4.8,41.3,14.9,53.2,30.1c11.9,15.2,18,32.9,18,52.6
							c0,23.3-8.2,43.6-24.3,60.3c-16.1,16.7-36,25.1-59.2,25.1c-6.7,0-13-0.6-19-1.8l-139.5-27.1c-0.2,0-0.5-0.1-0.7-0.1
							c-0.7,0-1.4,0.2-2,0.6c-0.8,0.5-1.3,1.3-1.5,2.3l-16.9,88c-0.4,1.9,0.9,3.8,2.8,4.1l127.3,25.3c23.4,4.8,41.6,15,54.2,30.2
							c12.5,15.2,18.9,32.9,18.9,52.5c0,23.9-8.3,44.3-24.7,60.7c-16.4,16.4-36.8,24.7-60.7,24.7c-6.1,0-12.5-0.6-19-1.8L3090,513.7
							c-0.2,0-0.5-0.1-0.7-0.1c-0.7,0-1.4,0.2-2,0.6c-0.8,0.5-1.3,1.3-1.5,2.3l-17.8,93.6c-0.4,1.9,0.9,3.8,2.8,4.1l147,29
							c22.7,4.2,40.3,14,52.2,29.1c11.9,15.2,18,32.9,18,52.6c0,23.3-8,43.6-23.8,60.3c-15.8,16.7-35.9,25.1-59.7,25.1
							c-6,0-12.4-0.6-19-1.8l-236.9-45.9c-22.2-4.2-40.6-14.4-54.7-30.2c-14-15.8-21.1-35-21.1-57.1c0-5.9,0.9-12.2,2.7-18.7
							c0-0.1,0-0.2,0.1-0.3l98.3-505.6c5.4-27.8,15.6-48.9,30.3-62.7C3018.7,74.5,3038.2,67.5,3062.2,67.5 M3062.2,64
							c-49.9,0-80.5,28.7-91.8,86.1l-98.3,505.6c-1.9,6.9-2.8,13.4-2.8,19.7c0,23.1,7.3,42.9,22,59.5c14.7,16.5,33.5,27,56.6,31.4
							l236.9,45.9c6.9,1.2,13.4,1.9,19.7,1.9c25,0,45.7-8.7,62.3-26.2c16.5-17.5,24.8-38.4,24.8-62.7c0-20.6-6.2-38.9-18.7-54.8
							c-12.5-15.9-30.6-26.1-54.3-30.4l-147-29l17.8-93.6l128.3,25.3c6.9,1.3,13.4,1.9,19.7,1.9c25,0,46-8.6,63.2-25.7
							c17.2-17.2,25.7-38.2,25.7-63.2c0-20.6-6.6-38.9-19.7-54.8c-13.1-15.9-31.8-26.4-56.2-31.4L3123,344l16.9-88l139.5,27.1
							c6.2,1.3,12.8,1.9,19.7,1.9c24.3,0,44.9-8.7,61.8-26.2c16.9-17.5,25.3-38.4,25.3-62.7c0-20.6-6.2-38.9-18.7-54.8
							c-12.5-15.9-30.9-26.4-55.2-31.4l-227.5-44C3077.1,64.6,3069.7,64,3062.2,64L3062.2,64z"/>
					</g>
				</g>
			</g>
			<g>
				<g>
					<defs>
						<path id="SVGID_00000082326129546005670570000010533306440336761502_" d="M599.1,819.6c-36.8-3.1-62.4-20.3-76.8-51.5
							c-3.7-8.1-11.9-39.6-24.3-94.6l-225.6-19.7c-21.2,51.2-34.6,80.5-40.3,88c-19.4,28.7-47.1,41.5-83.3,38.4
							c-25-2.5-45.9-12.9-62.7-31.4c-16.9-18.4-24-40.4-21.5-66c0.6-11.2,4.4-23.7,11.2-37.5L307,153.9
							c12.5-25.6,30.1-46.2,52.9-61.8c22.8-15.6,48.5-22.1,77.2-19.7c58.7,5,96.4,39.3,113.3,103L689,698.8
							c4.4,16.9,6.2,31.2,5.6,43.1c-2.5,25-13.1,44.6-31.8,59C644,815.2,622.8,821.5,599.1,819.6z M413.7,305.6
							c-13.1,39.3-36.5,98.6-70.2,177.9l113.3,9.4L413.7,305.6z"/>
					</defs>
					<clipPath id="SVGID_00000164480144901380796470000011497558803702914217_">
						<use xlink:href="#SVGID_00000082326129546005670570000010533306440336761502_"  style="overflow:visible;"/>
					</clipPath>
					<g style="clip-path:url(#SVGID_00000164480144901380796470000011497558803702914217_);">
						<path class="st66" d="M498.7,658.3l-234.7-16.5c0,0-23.6,129.9-109.1,129.9c-89.6,0-139.7-94-139.7-94"/>
						<path class="st66" d="M481,756.7c0,0,49.5,56,108.5,56c48.9,0,109.6-27.5,94.9-84.9c-13.8-54-120.9-482.7-142.1-569.5
							c-27.5-112.4-89-113.2-89-113.2"/>
						<line class="st67" x1="320.1" y1="489.7" x2="402.6" y2="288"/>
					</g>
				</g>
				<g>
					<defs>
						<path id="SVGID_00000142864076302063683740000018433314817209227667_" d="M599.1,819.6c-36.8-3.1-62.4-20.3-76.8-51.5
							c-3.7-8.1-11.9-39.6-24.3-94.6l-225.6-19.7c-21.2,51.2-34.6,80.5-40.3,88c-19.4,28.7-47.1,41.5-83.3,38.4
							c-25-2.5-45.9-12.9-62.7-31.4c-16.9-18.4-24-40.4-21.5-66c0.6-11.2,4.4-23.7,11.2-37.5L307,153.9
							c12.5-25.6,30.1-46.2,52.9-61.8c22.8-15.6,48.5-22.1,77.2-19.7c58.7,5,96.4,39.3,113.3,103L689,698.8
							c4.4,16.9,6.2,31.2,5.6,43.1c-2.5,25-13.1,44.6-31.8,59C644,815.2,622.8,821.5,599.1,819.6z M413.7,305.6
							c-13.1,39.3-36.5,98.6-70.2,177.9l113.3,9.4L413.7,305.6z"/>
					</defs>
					<clipPath id="SVGID_00000176762107588635046020000007412486310956967330_">
						<use xlink:href="#SVGID_00000142864076302063683740000018433314817209227667_"  style="overflow:visible;"/>
					</clipPath>
					<g style="clip-path:url(#SVGID_00000176762107588635046020000007412486310956967330_);">
						<path class="st0" d="M425.5,75.5c3.7,0,7.5,0.2,11.4,0.5c28.4,2.4,52,12,70.2,28.6c18.3,16.6,31.7,40.8,39.9,71.8l138.6,523.4
							c4.2,16.4,6.1,30.5,5.5,41.9c-2.4,23.8-12.6,42.8-30.5,56.4c-15.9,12.2-33.8,18.3-53.4,18.3c-2.6,0-5.2-0.1-7.8-0.3
							c-35.8-3-60-19.2-73.9-49.5c-3.6-7.9-11.7-39.4-24.1-93.9c-0.3-1.5-1.6-2.6-3.1-2.7l-225.6-19.7c-0.1,0-0.2,0-0.3,0
							c-1.4,0-2.7,0.9-3.3,2.2c-21,50.7-34.4,80-39.8,87.2c0,0-0.1,0.1-0.1,0.1c-16.9,25.1-39.8,37.3-70,37.3c-3.3,0-6.7-0.2-10-0.4
							c-24-2.4-44.3-12.6-60.5-30.2c-16.1-17.5-23-38.8-20.6-63.3c0,0,0-0.1,0-0.1c0.6-10.7,4.3-22.8,10.9-36.1l231.2-491.5
							c12.2-24.9,29.6-45.2,51.7-60.4C380.8,82,402.2,75.5,425.5,75.5L425.5,75.5 M456.8,496.4c1,0,2-0.4,2.7-1.2
							c0.7-0.9,1-2,0.8-3.1l-43.1-187.3c-0.4-1.5-1.7-2.7-3.3-2.7c-0.1,0-0.1,0-0.2,0c-1.5,0-2.9,1-3.4,2.4
							c-13,39.1-36.6,98.9-70.1,177.6c-0.4,1-0.4,2.2,0.2,3.2c0.6,1,1.6,1.6,2.7,1.7l113.3,9.4C456.6,496.4,456.7,496.4,456.8,496.4
							 M425.4,71.9c-24.1,0-45.9,6.7-65.6,20.2c-22.8,15.6-40.4,36.2-52.9,61.8L75.7,645.4c-6.9,13.7-10.6,26.2-11.2,37.5
							c-2.5,25.6,4.7,47.6,21.5,66c16.9,18.4,37.8,28.9,62.7,31.4c3.5,0.3,7,0.5,10.4,0.5c31.2,0,55.5-12.9,72.9-38.8
							c5.6-7.5,19-36.8,40.3-88L498,673.5c12.5,54.9,20.6,86.5,24.3,94.6c14.4,31.2,39.9,48.4,76.8,51.5c2.7,0.2,5.4,0.3,8.1,0.3
							c20.5,0,39-6.4,55.6-19c18.7-14.4,29.3-34,31.8-59c0.6-11.9-1.3-26.2-5.6-43.1L550.4,175.4c-16.9-63.7-54.6-98-113.3-103
							C433.2,72.1,429.3,71.9,425.4,71.9L425.4,71.9z M456.8,492.8l-113.3-9.4c33.7-79.3,57.1-138.6,70.2-177.9L456.8,492.8
							L456.8,492.8z"/>
					</g>
				</g>
			</g>
			<g>
				<g>
					<path class="st26" d="M3072.7,105.7c-0.3,0.6-0.7,1.2-0.9,1.8c-1.7,5.2-5.5,8.1-10.9,8.6c-4.2,0.4-8.5,0.7-12.6,1.6
						c-9.3,2-16.1,7.3-19.5,16.5c-1.5,4.1-4.4,6-8.5,6.6c-6.2,0.9-11.8-0.6-16.7-4.6c-6.1-5-7.2-11.6-5.3-18.8
						c2.7-10.1,8.5-18.4,16.4-25.1c8.3-7,17.9-11.1,28.6-12.8c1.2-0.2,2.4-0.6,3.7-0.9c2.3,0,4.5,0,6.8,0c0.1,0.1,0.2,0.2,0.4,0.2
						c9.9,1,15.8,6.6,18.3,16C3072.7,98.3,3072.7,102,3072.7,105.7z"/>
					<path class="st26" d="M338.2,135.4c0.5-0.8,1.3-1.6,1.5-2.4c1.4-4.7,3.9-8.8,7.2-12.3c3.9-4.2,7.9-8.5,12.2-12.4
						c11.1-9.8,24.4-13.2,38.9-12.7c4.4,0.2,8.6,1.6,12.1,4.4c4.1,3.3,6.2,7.7,5.4,13c-0.8,5.3-4.2,8.5-9.1,10.2
						c-2.4,0.8-4.9,1.2-7.4,1.5c-14.1,1.7-24.8,8.8-32.7,20.4c-1.2,1.8-2.2,3.6-3.3,5.4c-3.2,5.1-7.9,6.7-13.5,4.5
						c-4.5-1.7-7.4-5-9.4-9.3c-0.6-1.3-1.3-2.5-1.9-3.7C338.2,139.9,338.2,137.7,338.2,135.4z"/>
					<path class="st26" d="M1569.2,669.4c-1.5-0.3-3-0.6-4.5-0.9c-3.2-0.6-6.3-1.5-8.7-4c-2.7-2.7-3.7-6.4-2.5-9.3
						c1.5-3.3,4.3-4.2,7.6-4.4c1.1-0.1,2.3,0,3.4,0c16.9,1.4,32.9-1.5,48.2-8.9c2.9-1.4,5.8-2.1,9-1.5c4.9,0.9,7.1,4.8,5.4,9.5
						c-1.3,3.5-3.9,5.9-6.8,8c-5.3,3.9-11.3,6.4-17.7,8c-5.1,1.2-10.3,1.9-15.4,2.9c-1.2,0.2-2.5,0.5-3.7,0.8
						C1578.8,669.4,1574,669.4,1569.2,669.4z"/>
					<path class="st26" d="M1256.8,280.7c0-4.6,1.4-9,3.6-13c17.5-31.4,37.4-61,62.6-86.7c16.9-17.2,36.4-30.9,57.2-42.8
						c27.6-15.9,56.8-27.9,88.1-34.5c8.1-1.7,16.5-2.6,24.7-3.7c4.1-0.5,8.2-0.2,12.1,1.4c5.9,2.5,8.9,8.2,7.3,14.1
						c-1.3,4.5-4.4,7.3-8.9,8.2c-3.9,0.8-7.8,1.1-11.8,1.4c-20.8,1.9-41,6.5-60.4,14.2c-22.1,8.8-42.3,20.9-60.5,36.2
						c-22,18.5-42.2,38.9-60,61.6c-11.1,14.2-20.4,29.5-28.8,45.4c-1,1.9-2,3.7-3.3,5.4c-3.7,5.1-9.1,7.1-14,5.4
						C1259.8,291.8,1256.8,287,1256.8,280.7z"/>
					<path class="st26" d="M2286.7,200.2c-8.2,0.1-13.2-4.6-13.7-12.9c-0.3-5.8,1.2-11.2,3.8-16.3c6.9-13.4,17.9-22.2,31.9-26.9
						c7.3-2.4,15.1-3.8,22.7-5.1c29.9-4.9,59.7-9.6,89.6-14.2c2.6-0.4,5.4-0.2,7.9,0.4c4.6,1.1,7.4,4.8,7.7,9.5
						c0.5,7.2-4,13.6-11.1,14.9c-7.6,1.5-15.4,2.4-23,3.5c-18.6,2.7-37.2,5.1-55.5,10c-11,2.9-19.8,8.7-26.6,17.8
						c-1.3,1.7-2.7,3.3-4,5C2309.9,194.5,2301.9,199.6,2286.7,200.2z"/>
					<path class="st26" d="M2716.5,583.7c-0.3,6.9-2.7,13.2-5.9,19.3c-5.8,11.1-14.3,20-24.2,27.4c-15.7,11.8-33.4,19.4-52.3,24.5
						c-8.4,2.3-17.1,3.8-25.6,5.6c-3.7,0.7-7.4,0.3-10.8-1.2c-6.3-2.7-8.1-9-4.3-14.7c2.9-4.3,7.2-6.2,12-7.4
						c5.9-1.4,11.9-2.6,17.7-4.4c22.4-7,42.2-18.3,57.9-36c4-4.5,7.3-9.7,10.5-14.8c2.3-3.5,4.8-6.6,8.6-8.5
						C2707.1,569.7,2717,571.3,2716.5,583.7z"/>
					<path class="st26" d="M1980.6,143.8c0.3-4,1.3-7.7,3.1-11.1c6.2-11.6,14.1-21.9,24.9-29.6c10-7.1,21.1-10.8,33.4-10.3
						c8.3,0.4,14.7,5.6,16.6,13.3c1.9,7.6-2.1,14.4-9.5,16.5c-1,0.3-1.9,0.5-2.9,0.7c-13.6,2.6-24.2,9.8-32.3,20.9
						c-2,2.7-4,5.5-5.7,8.5c-2.8,4.8-6.9,7.6-12.5,7.3c-6.1-0.4-10.7-3.5-13.3-9.1C1981.5,148.5,1981.2,146.1,1980.6,143.8z"/>
					<path class="st26" d="M781.7,84.9c10.8-0.6,18.5,11,18.5,19.9c0,7.6-4,12.1-11.6,12.1c-12.5,0-22.3,5.1-29.8,15
						c-1.9,2.5-3.8,5-5.5,7.5c-1.7,2.6-4.1,3.6-7.2,3.7c-9.6,0.3-17.8-6-18.8-14.7c-0.4-3.6,0.5-7,1.9-10.3
						C738.8,96.8,755.5,86,781.7,84.9z"/>
					<path class="st26" d="M984.2,414.3c-2.1-0.3-5.2-0.5-7.9-1.4c-2.2-0.8-4.3-2.2-5.9-3.9c-4.6-5.1-2.6-12.8,3.9-15.3
						c1.2-0.5,2.4-0.7,3.7-0.9c12.2-1.5,22.6-6.9,31.5-15.2c2.8-2.6,5.1-6,7.2-9.3c3.2-5.2,6.3-7.4,10.6-6.7
						c4.9,0.8,8.9,5.1,9.7,10.5c0.5,3.7,0.3,7.5-1.5,10.7c-2.2,3.9-4.4,8-7.4,11.3C1016.6,406.7,1001.9,412.8,984.2,414.3z"/>
					<path class="st26" d="M482.6,509.5c0.1,3.7-1.3,6.9-3.8,9.6c-5.9,6.2-13.3,9.5-21.7,10.2c-6.8,0.5-12.3-7-10.4-13.6
						c0.6-2.2,2-3.2,4.1-3.7c3-0.8,6-1.6,8.9-2.7c4.7-1.9,8.7-4.8,11.1-9.4c1.8-3.4,4.9-3.8,7.9-0.8
						C481.1,501.6,482.6,505.5,482.6,509.5z"/>
				</g>
			</g>
		</g>
		<g id="Cassics_00000079444582337194741230000010204702947111368082_">
			<path d="M3246.1,801.2v47.8v46v47.8V986v91.1v47.8h-46.9v46h-47.8h-229.9h-47.8v-46h-44.2v-47.8v-46v-43.3V940v-91.1v-47.8h44.2
				v-46h47.8h229.9h47.8v46L3246.1,801.2L3246.1,801.2z M956.5,1029.3h47.8v47.8v46v47.8H635.5v-46h-42.4v46H267.6v-46h-44.2v-47.8
				V848.9v-47.8h44.2v-46h47.8h229.9h47.8v46h42.4v-46h47.8h92H823v47.8v226.4H956.5z M635.5,983.3v-40.7h-45.1h-92h-47.8v-46h-39.8
				v132.7h39.8v-46h47.8h92H635.5z M2283.1,755.2h-47.8v46h-42v-46h-47.8h-229.9h-47.8v46h-39.4h-4.9h-42v-46h-47.8h-229.9h-47.8v46
				H1412v47.8V940v47.8v43.3v46v47.8h44.2v46h325.4v-45.7h42h4.9h39.4v45.7h325.4v-46h42v46h187.5v-47.8V802.9v-47.8H2375H2283.1
				L2283.1,755.2z"/>
			<path d="M3151.5,756.1v-46h-47.8h-229.9h-47.8v46h-9.7v-30.1h-47.8h-4.7v-45.6h-47.8h-2.8v-44.8h-47.8h-149h-47.8v44.8h-1.8
				h-47.8v45.6h-29.5v47.5H2375v-15.6v-47.8h-47.8h-92h-47.8v46h-42v-46h-47.8h-229.9h-47.8v46h-39.4h-4.9h-42v-46h-47.8h-229.9
				h-47.8v46h-35.3v-35.4h-27.5v-29.9h-28.2v-26.7h-47.8h-8.6v-28.3h-47.8h-29.9h-48.6h-29.9h-47.8v28.3h-8.6h-47.8v26.7h-28.2v29.9
				H945v47.8v35.8h-29.2V852v132.2h-7.1H775.2V757.8v-47.8h-47.8h-92h-47.8v46h-42.4v-46h-47.8H267.6h-47.8v46h-44.2v47.8V1032v47.8
				h44.2v46h47.8h229.9h47.8v-46h42.4v46h47.8h92h181.3h7.1v45.1h486.4v-48.6v-42.4h6.1v46h47.8h229.9h47.8v-46h42h4.9h39.4v45.4
				h47.8l229.9,0.6h47.8v-46h42v46h47.8h92h47.8V1078v-45.1h14.7v47.5h29.5v45.6h47.8h1.8v44.8h47.8h149h47.8V1126h2.8h47.8v-45.6
				h4.7h47.8v-0.6h9.7v46h47.8h229.9h47.8v-46h46.9V1032v-91.1v-43.3v-47.8v-46v-47.8L3151.5,756.1L3151.5,756.1z M542.7,938.2h-92
				h-47.8v46h-39.8V851.6h39.8v46h47.8h92h45.1v40.7H542.7z M2768.6,929.7h-4.7v-25.9v-27.1h4.7h13.3v18.3v34.8H2768.6z"/>
		</g>
		<g id="Joystick_00000065049020639433561570000009120650659347451559_">
			<ellipse transform="matrix(0.7071 -0.7071 0.7071 0.7071 719.9386 2642.6367)" cx="3549.9" cy="452.3" rx="269.3" ry="269.3"/>
			<g>
				<path d="M3685.8,954c-9.3-25.6-24.3-49.6-44.7-71.1c-40.8-43.1-99-72.3-163.8-82.2c-15.7-2.4-31.6-3.6-47.2-3.6
					c-56,0-109.7,15.7-151.2,44.1c-43.7,30-71.8,72.6-79,120c-4.2,27.6-1.4,55.4,8.4,82.6c9.3,25.6,24.3,49.6,44.7,71.1
					c40.8,43.1,99,72.3,163.8,82.2c15.7,2.4,31.6,3.6,47.2,3.6c56,0,109.7-15.7,151.2-44.1c43.7-30,71.8-72.6,79-120
					C3698.4,1008.9,3695.6,981.1,3685.8,954z"/>
				<g>
					<path class="st26" d="M3433.9,1137.9c-15,0-30.2-1.2-45.2-3.5c-61.9-9.4-117.4-37.2-156.2-78.2
						c-39.7-41.9-57.3-92.5-49.6-142.6c13.5-88.6,104.8-152.9,217.1-152.9c15,0,30.2,1.2,45.2,3.5c61.9,9.4,117.4,37.2,156.2,78.2
						c39.7,41.9,57.3,92.5,49.6,142.6C3637.5,1073.6,3546.2,1137.9,3433.9,1137.9z"/>
					<path d="M3400,774.1c14.1,0,28.6,1.1,43.2,3.3c122,18.6,209.2,110.7,194.7,205.7c-12.8,83.6-100,141.6-204,141.6
						c-14.1,0-28.6-1.1-43.2-3.3c-122-18.6-209.2-110.7-194.7-205.7C3208.8,832.1,3296.1,774.1,3400,774.1 M3400,747.5
						c-56,0-109.7,15.7-151.2,44.1c-43.7,30-71.8,72.6-79,120c-4.2,27.6-1.4,55.4,8.4,82.6c9.3,25.6,24.3,49.6,44.7,71.1
						c40.8,43.1,99,72.3,163.8,82.2c15.7,2.4,31.6,3.6,47.2,3.6c56,0,109.7-15.7,151.2-44.1c43.7-30,71.8-72.6,79-120
						c4.2-27.6,1.4-55.4-8.4-82.6c-9.3-25.6-24.3-49.6-44.7-71.1c-40.8-43.1-99-72.3-163.8-82.2
						C3431.5,748.7,3415.6,747.5,3400,747.5L3400,747.5z"/>
				</g>
				<g>
					<g>
						<defs>
							
								<ellipse id="SVGID_00000176741533568436247890000005930723555361161856_" transform="matrix(0.1507 -0.9886 0.9886 0.1507 1963.5521 4184.0244)" cx="3416.9" cy="949.2" rx="174" ry="223.5"/>
						</defs>
						<clipPath id="SVGID_00000123412118687156056100000017819279090659470235_">
							<use xlink:href="#SVGID_00000176741533568436247890000005930723555361161856_"  style="overflow:visible;"/>
						</clipPath>
						<g style="clip-path:url(#SVGID_00000123412118687156056100000017819279090659470235_);">
							
								<ellipse transform="matrix(0.1717 -0.9851 0.9851 0.1717 1900.9275 4138.2324)" cx="3411.4" cy="938.7" rx="169.5" ry="226.1"/>
						</g>
					</g>
				</g>
			</g>
			<g>
				
					<ellipse transform="matrix(0.2575 -0.9663 0.9663 0.2575 1670.7457 3980.0259)" class="st26" cx="3425.1" cy="902.9" rx="56.4" ry="77.4"/>
				<g>
					<path class="st28" d="M3435.5,944.2c-6,0-12.1-0.6-18.1-1.9c-37.4-8-62.7-38.8-56.3-68.7l85.5-400.7l135.8,29l-85.5,400.7
						C3491.7,927,3466.4,944.2,3435.5,944.2C3435.5,944.2,3435.5,944.2,3435.5,944.2z"/>
					<path d="M3454.2,484.3l116.7,24.9l-83.5,391.2c-4.4,20.5-26.1,34-51.9,34c-5.2,0-10.6-0.6-16-1.7
						c-32.2-6.9-54.1-32.5-48.8-57.2L3454.2,484.3 M3439.2,461.3l-4.1,19l-83.5,391.2c-3.8,17.7,1.5,36.7,14.6,52
						c12,14,29.5,24.1,49.2,28.3c6.7,1.4,13.4,2.1,20.1,2.1c35.5,0,64.7-20.3,70.9-49.4l83.5-391.2l4.1-19l-19-4.1l-116.7-24.9
						L3439.2,461.3L3439.2,461.3z"/>
				</g>
				<g>
					<g>
						<defs>
							<path id="SVGID_00000021836605906139178400000006637183123369905329_" d="M3454.2,484.3l-83.5,391.2
								c-5.3,24.7,16.6,50.3,48.8,57.2c32.2,6.9,62.6-7.6,67.9-32.3l83.5-391.2L3454.2,484.3z"/>
						</defs>
						<clipPath id="SVGID_00000168806410303612853590000011611440915535341482_">
							<use xlink:href="#SVGID_00000021836605906139178400000006637183123369905329_"  style="overflow:visible;"/>
						</clipPath>
						<path style="clip-path:url(#SVGID_00000168806410303612853590000011611440915535341482_);fill:#BFBFBF;" d="M3505.3,856.9
							c1.6-49.9-40.1-111.6-108.1-152.5c-85.7-51.6-180.7-50.8-212.3,1.7c-31.6,52.5,12.2,136.8,97.9,188.4
							c23.5,14.2,47.8,24.4,71.2,30.6v49.5h212.2V856.9L3505.3,856.9L3505.3,856.9z"/>
					</g>
				</g>
			</g>
			<g>
				<ellipse transform="matrix(0.7071 -0.7071 0.7071 0.7071 742.8661 2613.9609)" cx="3526.8" cy="410.3" rx="252.3" ry="252.3"/>
				<path d="M3526.8,163.4c136.4,0,247,110.6,247,247s-110.6,247-247,247s-247-110.6-247-247C3279.7,274,3390.3,163.4,3526.8,163.4
					 M3526.8,152.8c-68.8,0-133.5,26.8-182.2,75.5s-75.5,113.4-75.5,182.2s26.8,133.5,75.5,182.2c48.7,48.7,113.4,75.5,182.2,75.5
					s133.5-26.8,182.2-75.5c48.7-48.7,75.5-113.4,75.5-182.2s-26.8-133.5-75.5-182.2S3595.6,152.8,3526.8,152.8L3526.8,152.8z"/>
			</g>
			<g>
				<g>
					
						<ellipse transform="matrix(0.7071 -0.7071 0.7071 0.7071 742.7582 2614.0146)" class="st30" cx="3526.8" cy="410.4" rx="247" ry="247"/>
				</g>
				<g>
					<g>
						<defs>
							
								<ellipse id="SVGID_00000086655342278338667640000007316640886023938484_" transform="matrix(0.7071 -0.7071 0.7071 0.7071 742.7582 2614.0146)" cx="3526.8" cy="410.4" rx="247" ry="247"/>
						</defs>
						<clipPath id="SVGID_00000057831525263718936930000016577024807283481239_">
							<use xlink:href="#SVGID_00000086655342278338667640000007316640886023938484_"  style="overflow:visible;"/>
						</clipPath>
						<g style="clip-path:url(#SVGID_00000057831525263718936930000016577024807283481239_);">
							
								<ellipse transform="matrix(0.7071 -0.7071 0.7071 0.7071 768.5142 2591.8555)" class="st0" cx="3512.9" cy="368.2" rx="229.1" ry="229.1"/>
						</g>
					</g>
				</g>
				<g>
					<path class="st0" d="M3526.8,174c63.2,0,122.5,24.6,167.2,69.2c44.7,44.7,69.2,104,69.2,167.2s-24.6,122.5-69.2,167.2
						c-44.7,44.7-104,69.2-167.2,69.2c-63.2,0-122.5-24.6-167.2-69.2c-44.7-44.7-69.2-104-69.2-167.2s24.6-122.5,69.2-167.2
						S3463.6,174,3526.8,174 M3526.8,163.4c-136.4,0-247,110.6-247,247s110.6,247,247,247c136.4,0,247-110.6,247-247
						S3663.2,163.4,3526.8,163.4L3526.8,163.4z"/>
				</g>
			</g>
			<g>
				<circle class="st26" cx="3402.5" cy="373.9" r="26.9"/>
				<circle class="st26" cx="3479.7" cy="320.4" r="53.4"/>
			</g>
		</g>
		<g id="Classics_00000049179880343158975490000013917514734920645514_">
			<g>
				<polygon class="st26" points="497.5,757.8 267.6,757.8 267.6,803.8 223.4,803.8 223.4,1032 267.6,1032 267.6,1078 497.5,1078 
					497.5,1032 542.7,1032 542.7,986 450.7,986 450.7,1032 315.4,1032 315.4,803.8 450.7,803.8 450.7,849.8 542.7,849.8 
					542.7,803.8 497.5,803.8 				"/>
				<polygon class="st26" points="1686.1,757.8 1456.2,757.8 1456.2,803.8 1412,803.8 1412,894.9 1456.2,894.9 1456.2,940.9 
					1641,940.9 1641,1032 1503.9,1032 1503.9,986 1412,986 1412,1032 1456.2,1032 1456.2,1078 1686.1,1078 1686.1,1032 1733,1032 
					1733,940.9 1686.1,940.9 1686.1,894.9 1503.9,894.9 1503.9,803.8 1641,803.8 1641,849.8 1733,849.8 1733,803.8 1686.1,803.8 
									"/>
				<polygon class="st26" points="2097.8,757.8 1867.9,757.8 1867.9,803.8 1823.6,803.8 1823.6,894.9 1867.9,894.9 1867.9,940.9 
					2052.7,940.9 2052.7,1032 1915.6,1032 1915.6,986 1823.6,986 1823.6,1032 1867.9,1032 1867.9,1078 2097.8,1078 2097.8,1032 
					2144.7,1032 2144.7,940.9 2097.8,940.9 2097.8,894.9 1915.6,894.9 1915.6,803.8 2052.7,803.8 2052.7,849.8 2144.7,849.8 
					2144.7,803.8 2097.8,803.8 				"/>
				<polygon class="st26" points="3103.8,757.8 2873.8,757.8 2873.8,803.8 2829.6,803.8 2829.6,894.9 2873.8,894.9 2873.8,940.9 
					3058.7,940.9 3058.7,1032 2921.6,1032 2921.6,986 2829.6,986 2829.6,1032 2873.8,1032 2873.8,1078 3103.8,1078 3103.8,1032 
					3150.6,1032 3150.6,940.9 3103.8,940.9 3103.8,894.9 2921.6,894.9 2921.6,803.8 3058.7,803.8 3058.7,849.8 3150.6,849.8 
					3150.6,803.8 3103.8,803.8 				"/>
				<polygon class="st26" points="727.5,757.8 635.5,757.8 635.5,1032 635.5,1078 727.5,1078 908.8,1078 908.8,1032 727.5,1032 				
					"/>
				<rect x="2235.3" y="757.8" class="st26" width="92" height="320.1"/>
			</g>
			<g>
				<polygon class="st2" points="2768.6,773.7 2716.1,773.7 2716.1,728 2665.5,728 2665.5,683.2 2516.5,683.2 2516.5,728 2467,728 
					2467,773.7 2437.5,773.7 2437.5,821.2 2414.5,821.2 2414.5,941.5 2518,941.5 2518,884.3 2619.4,884.3 2619.4,856 2716.1,856 
					2716.1,828.9 2768.6,828.9 				"/>
				<polygon class="st2" points="2768.6,1032.6 2716.1,1032.6 2716.1,1078.3 2665.5,1078.3 2665.5,1123.1 2516.5,1123.1 
					2516.5,1078.3 2467,1078.3 2467,1032.6 2437.5,1032.6 2437.5,985.1 2414.5,985.1 2414.5,864.8 2518,864.8 2518,922 2619.4,922 
					2619.4,950.3 2716.1,950.3 2716.1,977.4 2768.6,977.4 				"/>
			</g>
			<g>
				<g>
					<polygon class="st1" points="1183.4,856.4 1183.4,856.4 1183.4,768.4 1183.4,683.6 1104.8,683.6 1104.8,768.4 992.8,768.4 
						992.8,852 992.8,852 963.6,852 963.6,1122.2 988.8,1122.2 988.8,1088.6 1015.8,1088.6 1015.8,1052.8 1046.9,1052.8 
						1046.9,1088.6 1073.9,1088.6 1073.9,1122.2 1129.4,1122.2 1129.4,1052.8 1183.4,1052.8 					"/>
					<rect x="1020.3" y="738.5" class="st26" width="112.7" height="80.3"/>
					<rect x="1048.5" y="711.9" class="st32" width="56.3" height="56.3"/>
					<rect x="1048.5" y="796.3" class="st26" width="56.3" height="56.3"/>
				</g>
				<g>
					<polygon class="st1" points="1134.8,856.4 1134.8,856.4 1134.8,768.4 1134.8,683.6 1213.3,683.6 1213.3,768.4 1325.4,768.4 
						1325.4,852 1325.4,852 1354.5,852 1354.5,1122.2 1329.3,1122.2 1329.3,1088.6 1302.4,1088.6 1302.4,1052.8 1271.2,1052.8 
						1271.2,1088.6 1244.3,1088.6 1244.3,1122.2 1188.7,1122.2 1188.7,1052.8 1134.8,1052.8 					"/>
					<rect x="1185.1" y="738.5" class="st26" width="112.7" height="80.3"/>
					<rect x="1213.3" y="711.9" class="st32" width="56.3" height="56.3"/>
					<rect x="1213.3" y="796.3" class="st26" width="56.3" height="56.3"/>
				</g>
			</g>
		</g>
	</g>
</g>
</svg>
