<?xml version="1.0" encoding="utf-8"?>
<!-- Generator: Adobe Illustrator 26.0.3, SVG Export Plug-In . SVG Version: 6.00 Build 0)  -->
<svg version="1.1" id="Layer_1" xmlns="http://www.w3.org/2000/svg" xmlns:xlink="http://www.w3.org/1999/xlink" x="0px" y="0px"
	 viewBox="0 0 3839 1076.3" style="enable-background:new 0 0 3839 1076.3;" xml:space="preserve">
<style type="text/css">
	.st0{fill-rule:evenodd;clip-rule:evenodd;fill:#034EA2;}
	.st1{fill:#FFFFFF;}
	.st2{fill:#231F20;}
	.st3{fill:#034EA2;}
	.st4{fill:#FFCB04;}
	.st5{fill:url(#SVGID_1_);}
	.st6{fill-rule:evenodd;clip-rule:evenodd;fill:url(#rect4789_00000015312987853754821540000008397224406368405176_);}
	.st7{fill:url(#SVGID_00000101809064786152735750000001357351387528878769_);}
	.st8{fill:url(#SVGID_00000168117119633188553170000003911731252991710383_);}
	.st9{fill:url(#SVGID_00000039831920094864660260000003784842246054776466_);}
	.st10{fill:url(#SVGID_00000170984561997617188190000009451321287356974494_);}
	.st11{fill:url(#SVGID_00000150102809494890574220000009779015907217798557_);}
	.st12{fill:url(#SVGID_00000172438049147106072330000010211798660031129475_);}
	.st13{fill:url(#SVGID_00000070796798099245733040000000668786972296717993_);}
	.st14{fill:url(#SVGID_00000132776578535922473010000017201730659681907340_);}
	.st15{fill:url(#SVGID_00000008133590032363839980000002359920770566534333_);}
	.st16{fill:url(#SVGID_00000096024733233253842280000016478735770105307798_);}
	.st17{fill:url(#SVGID_00000156548233559378025860000001398601097880888505_);}
	.st18{fill:url(#SVGID_00000061463267992930654690000003409074755729171382_);}
	.st19{fill:url(#SVGID_00000102503637611446195930000010168879594381525122_);}
	.st20{display:none;}
	.st21{display:inline;fill:#FF0642;}
	.st22{display:inline;fill:#FFFFFF;stroke:#000000;stroke-width:0.5156;stroke-miterlimit:10;}
	.st23{display:inline;fill:#FFCB04;}
	.st24{fill-rule:evenodd;clip-rule:evenodd;fill:url(#rect4789_00000134239377943214309200000007757466597211418757_);}
	.st25{fill:url(#SVGID_00000167362416045605377760000010913493676376669838_);}
	.st26{fill:url(#SVGID_00000067228647383452575960000017611089571252410247_);}
	.st27{fill:url(#SVGID_00000135665323360124409660000018034216970716574593_);}
	.st28{fill:url(#SVGID_00000036971295696801157510000002164506359354491271_);}
	.st29{fill:url(#SVGID_00000042007180412420644300000016475715534838163900_);}
	.st30{fill:url(#SVGID_00000140008409278236489660000013739672967717852055_);}
	.st31{fill:url(#SVGID_00000072995202270965481880000017500074472409671069_);}
	.st32{fill:url(#SVGID_00000124128066041403213590000005474126637967683760_);}
	.st33{fill:url(#SVGID_00000087370428234941643660000006593863962407002542_);}
	.st34{fill:url(#SVGID_00000140716668447650007910000012708795570664142993_);}
	.st35{fill:url(#SVGID_00000078010195105414996900000017341175034913026973_);}
	.st36{fill:url(#SVGID_00000137829912176105167820000011637147174334852798_);}
	.st37{fill:url(#SVGID_00000023265642706670524920000005364024191046458039_);}
	.st38{fill:url(#SVGID_00000023261074733185570020000004566471922602417324_);}
	.st39{fill-rule:evenodd;clip-rule:evenodd;fill:url(#rect4789_00000163072211961873745750000016237320126408947878_);}
	.st40{fill:url(#SVGID_00000116234352169184863810000017217964066352028803_);}
	.st41{fill:url(#SVGID_00000003084059600560044660000009775136982695410577_);}
	.st42{fill:url(#SVGID_00000103958897059210504230000002505918265905263512_);}
	.st43{fill:url(#SVGID_00000144318250770721390490000001691803283334744474_);}
	.st44{fill:url(#SVGID_00000018959039499608613860000013479027396125264560_);}
	.st45{fill:url(#SVGID_00000003094169582468350690000013741463351823122591_);}
	.st46{fill:url(#SVGID_00000112628743734393087810000000181239388395745677_);}
	.st47{fill:url(#SVGID_00000000215986035450041730000016331461924676512184_);}
	.st48{fill:url(#SVGID_00000063592241137087872860000004170083042541250957_);}
	.st49{fill:url(#SVGID_00000165956853712849541350000005518937540515585706_);}
	.st50{fill:url(#SVGID_00000018206835076901612710000008100706318568557744_);}
	.st51{fill:url(#SVGID_00000119090824148288357050000016222838053440375952_);}
	.st52{fill:url(#SVGID_00000155110868730045088520000010383343720198903214_);}
	.st53{fill-rule:evenodd;clip-rule:evenodd;fill:url(#rect4789_00000175302424861982910700000016640619048506378423_);}
	.st54{fill:url(#SVGID_00000140714428056744685640000006086803385134409903_);}
	.st55{fill:url(#SVGID_00000148629430719053537290000015465765211597757112_);}
	.st56{fill:url(#SVGID_00000177466473800054955150000016799221293180262024_);}
	.st57{fill:url(#SVGID_00000005979150243854424730000014629143134474363031_);}
	.st58{fill:url(#SVGID_00000060005560821741588590000015423534389746913174_);}
	.st59{fill:url(#SVGID_00000113323942296861904370000012722949549984177055_);}
	.st60{fill:url(#SVGID_00000037689061906629694590000008237384987299708854_);}
	.st61{fill:url(#SVGID_00000124840807918091054100000012624584972269973898_);}
	.st62{fill:url(#SVGID_00000170988833882549741370000009210736104495577746_);}
	.st63{fill:url(#SVGID_00000129175832174555266200000009777406209977741960_);}
	.st64{fill:url(#SVGID_00000065796137354866596080000016617714067891157157_);}
	.st65{fill:url(#SVGID_00000141454991457142544360000010039117147381406130_);}
	.st66{fill:url(#SVGID_00000152984310071616494310000017416421922881527181_);}
	.st67{fill:url(#SVGID_00000060014864024215432100000014771192876564034984_);}
	.st68{fill-rule:evenodd;clip-rule:evenodd;fill:url(#rect4789_00000139274586120400700560000011180013433503734165_);}
	.st69{fill:url(#SVGID_00000031178231813990041690000004798118240750214807_);}
	.st70{fill:url(#SVGID_00000028284640688301038050000010114111606864365492_);}
	.st71{fill:url(#SVGID_00000054238177871233023520000015197559520214975876_);}
	.st72{fill:url(#SVGID_00000146480634161496033990000004669385222582852008_);}
	.st73{fill:url(#SVGID_00000113327274713182144740000007347226001358377101_);}
	.st74{fill:url(#SVGID_00000163795140352728407720000009353563381464496559_);}
	.st75{fill:url(#SVGID_00000064335834452749427040000014739808621320980101_);}
	.st76{fill:url(#SVGID_00000026161564471138608070000006856001433215326639_);}
	.st77{fill:url(#SVGID_00000165922817996403856110000016125764453041289899_);}
	.st78{fill:url(#SVGID_00000078728637336234606710000006959936461600075146_);}
	.st79{fill:url(#SVGID_00000002352097059255715780000018058311521649958572_);}
	.st80{fill:url(#SVGID_00000130621106484495185060000004786281918022190721_);}
	.st81{fill:url(#SVGID_00000082339316110396417200000005401897855895608244_);}
	.st82{fill:url(#SVGID_00000170280556337879639320000010085675433968766392_);}
	.st83{fill-rule:evenodd;clip-rule:evenodd;fill:url(#rect4789_00000028319096555722381450000012911544061478007228_);}
	.st84{fill:url(#SVGID_00000027583775366813891930000002703586161847331517_);}
	.st85{fill:url(#SVGID_00000052092011637741713430000018033271826127139460_);}
	.st86{fill:url(#SVGID_00000168824637382525409650000003014316632173581491_);}
	.st87{fill:url(#SVGID_00000098205297536787890120000018187448979600920995_);}
	.st88{fill:url(#SVGID_00000156552533335221087940000013061566708703899327_);}
	.st89{fill:url(#SVGID_00000126304146113397049040000006724472287564274864_);}
	.st90{fill:url(#SVGID_00000025427873303433094630000010285047549217735584_);}
	.st91{fill:url(#SVGID_00000134214014556439124680000015250763716331249834_);}
	.st92{fill:url(#SVGID_00000052798196351821447930000007803657235318196655_);}
	.st93{fill:url(#SVGID_00000180329924936643553910000015170655044840887477_);}
	.st94{fill:url(#SVGID_00000096060499568149505100000000419508877845663628_);}
	.st95{fill:url(#SVGID_00000135678463947838183370000017116456164462291115_);}
	.st96{fill:url(#SVGID_00000003103444714947315190000013688861887519782048_);}
	.st97{fill:url(#SVGID_00000162333971692235631780000018276975988005603459_);}
	.st98{fill:url(#SVGID_00000124142246926525005560000010734607184199019965_);}
	.st99{fill:url(#SVGID_00000143575125142025916980000016801559137766520509_);}
	.st100{fill:url(#SVGID_00000152957903737348483840000001377324199574389659_);}
	.st101{fill-rule:evenodd;clip-rule:evenodd;fill:url(#rect4789_00000045601892951189864290000006622263008851841213_);}
	.st102{fill:url(#SVGID_00000037687337182503925000000002242305756942742687_);}
	.st103{fill:url(#SVGID_00000179633282438654653350000007946636999415496632_);}
	.st104{fill:url(#SVGID_00000095315590062013511740000006152671256560511896_);}
	.st105{fill:url(#SVGID_00000062906181954874304290000003359690302711144349_);}
	.st106{fill:url(#SVGID_00000013882905897535665820000011987470177446603953_);}
	.st107{fill:url(#SVGID_00000039098474409007950000000010666190535525248651_);}
	.st108{fill:url(#SVGID_00000127755940286404027840000015648871801881076409_);}
	.st109{fill:url(#SVGID_00000144299985879298487880000000414724384081081262_);}
	.st110{fill:url(#SVGID_00000073697678525324190450000016455944418742632600_);}
	.st111{fill:url(#SVGID_00000162332196883112104240000008866737957057110187_);}
	.st112{fill:url(#SVGID_00000166650985500050685170000017974822905972338364_);}
	.st113{fill:url(#SVGID_00000119819171406418596690000005843634613450013332_);}
	.st114{fill:url(#SVGID_00000090281327811700695140000003386883801233325215_);}
	.st115{fill:url(#SVGID_00000018211864065411656800000014230094331934646410_);}
	.st116{fill-rule:evenodd;clip-rule:evenodd;fill:url(#rect4789_00000016765743668628446460000018293918691505204150_);}
	.st117{fill:url(#SVGID_00000145767463477852150100000007139479934921636542_);}
	.st118{fill:url(#SVGID_00000076561650988025957950000007432609251553546416_);}
	.st119{fill:url(#SVGID_00000135651580314004450020000008789393796113025948_);}
	.st120{fill:url(#SVGID_00000041254874890825293940000010880418121333331862_);}
	.st121{fill:url(#SVGID_00000009585252026531616530000000224549551412286107_);}
	.st122{fill:url(#SVGID_00000142175224814929664360000010143250444168179115_);}
	.st123{fill:url(#SVGID_00000020369236737670787530000016227200521335232955_);}
	.st124{fill:url(#SVGID_00000173862916661761658530000005650629665306019764_);}
	.st125{fill:url(#SVGID_00000171679106324672276540000007684132054830359997_);}
	.st126{fill:url(#SVGID_00000114782549924157041090000012291285036089328002_);}
	.st127{fill:url(#SVGID_00000150807393940647367900000016198065118212950459_);}
	.st128{fill:url(#SVGID_00000085967937075372674640000000656688190670895033_);}
	.st129{fill:url(#SVGID_00000133529945976571126630000001671938577773229454_);}
</style>
<g>
	<path id="rect4789_00000023279678385123697860000008904562164264106648_" class="st0" d="M450.1,764.6h2938.6
		c86.1,0,155.9,69.8,155.9,155.9l0,0c0,86.1-69.8,155.8-155.8,155.8H450.1c-86.1,0-155.8-69.8-155.8-155.8l0,0
		C294.4,834.4,364.1,764.6,450.1,764.6z"/>
	<g>
		<path class="st1" d="M907.1,849.5h60.8c35.9,0,59,18.4,59,49.9v0.4c0,33.5-25.7,51.1-61,51.1h-19.5v40.6h-39.3L907.1,849.5
			L907.1,849.5z M965.1,920.1c14,0,22.5-7.3,22.5-18.5v-0.4c0-12.2-8.5-18.7-22.7-18.7h-18.4V920L965.1,920.1L965.1,920.1z"/>
		<path class="st1" d="M1104.4,849.5h39.3V957h68.7v34.5h-108.1L1104.4,849.5L1104.4,849.5z"/>
		<path class="st1" d="M1339.1,848.5h37.9l60.4,142.9h-42.2l-10.3-25.3h-54.7l-10.1,25.3h-41.4L1339.1,848.5z M1373.6,935.5
			l-15.8-40.4l-16,40.4H1373.6z"/>
		<path class="st1" d="M1530.8,938.3l-53.9-88.8h44.8l29.2,51.7l29.4-51.7h44l-53.9,88.2v53.7h-39.5L1530.8,938.3L1530.8,938.3z"/>
		<path class="st1" d="M1803.4,970.4l21.9-26.2c14,11.2,29.6,17,46,17c10.5,0,16.2-3.6,16.2-9.7v-0.4c0-5.9-4.7-9.1-23.9-13.6
			c-30.2-6.9-53.5-15.4-53.5-44.6v-0.4c0-26.4,20.9-45.4,54.9-45.4c24.1,0,43,6.5,58.4,18.9l-19.7,27.8c-13-9.1-27.2-14-39.7-14
			c-9.5,0-14.2,4.1-14.2,9.1v0.4c0,6.5,4.9,9.3,24.5,13.8c32.6,7.1,52.9,17.6,52.9,44.2v0.4c0,29-22.9,46.2-57.4,46.2
			C1844.8,993.9,1820.8,986,1803.4,970.4z"/>
		<path class="st1" d="M2042,938.3l-53.9-88.8h44.8l29.2,51.7l29.4-51.7h44l-53.9,88.2v53.7h-39.5L2042,938.3L2042,938.3z"/>
		<path class="st1" d="M2190.6,970.4l21.9-26.2c14,11.2,29.6,17,46,17c10.5,0,16.2-3.6,16.2-9.7v-0.4c0-5.9-4.7-9.1-23.9-13.6
			c-30.2-6.9-53.5-15.4-53.5-44.6v-0.4c0-26.4,20.9-45.4,54.9-45.4c24.1,0,43,6.5,58.4,18.9l-19.7,27.8c-13-9.1-27.2-14-39.7-14
			c-9.5,0-14.2,4.1-14.2,9.1v0.4c0,6.5,4.9,9.3,24.5,13.8c32.6,7.1,52.9,17.6,52.9,44.2v0.4c0,29-22.9,46.2-57.4,46.2
			C2232,993.9,2208.1,986,2190.6,970.4z"/>
		<path class="st1" d="M2425,884h-42.6v-34.5h124.5V884h-42.6v107.5H2425V884z"/>
		<path class="st1" d="M2585,849.5h114.2V883H2624v21.5h68.1v31H2624V958h76.2v33.5H2585V849.5z"/>
		<path class="st1" d="M2781,849.5h41.6l33.9,54.9l33.9-54.9h41.6v141.9h-39.1v-81.5l-36.3,55.6h-0.8l-36.1-55.2v81.1h-38.5V849.5
			H2781z"/>
	</g>
	<g>
		<path class="st2" d="M1507.3,167.6v238.9c0,0,160.9-67,160.9-161.6C1668.2,128,1507.3,167.6,1507.3,167.6"/>
		<path class="st2" d="M2751.9,155.5c-70.2,0-164.4,41.3-164.4,206.3s83.9,206.3,164.4,206.3c80.4,0,166.1-51.6,166.1-206.3
			C2918,207.1,2822.1,155.5,2751.9,155.5"/>
		<polyline class="st2" points="887.6,363.5 1000.5,363.5 942.4,200.2 887.6,363.5 		"/>
		<path class="st2" d="M570.9,642.1H392.8C180.5,642.1,62.4,475.3,62.4,355c0-184.5,159.8-286.9,304.7-286.9
			c140.4,0,225.1,107.7,225.1,107.7l-96.7,101.9c0,0-5.1,2.6-9.4,2.6c-4.3,0-10.3-4.3-10.3-4.3l-12-10.3c0,0-3.4-0.8-3.4-4.3
			c0-3.4,9.4-12,9.4-28.3c0-16.3-3.4-84.2-107.8-84.2s-150.7,98-150.7,178.8c0,80.8,49.7,228.7,212.3,228.7
			c94.6,0,114.7-53.3,114.7-53.3h32.5V642.1z M1267.6,643.8h-214.9v-41.3c0,0,13.7,1.7,20.6-10.3c6.9-12,6.9-21.5,1.7-33.5
			c-5.1-12-41.1-107.5-41.1-107.5H858.5c0,0-36,96.2-39.4,104.9c-3.4,8.6-3.4,22.4,0,30.9c5.7,14.3,25.7,16.4,25.7,16.4v40.4h-172
			v-40.4c0,0,15.6-5.4,27.3-17.2c12.9-12.9,17.1-26.6,17.1-26.6L891.8,83.4h146.4l178,467.5c5.1,12.9,13.8,25,22.3,35.2
			c8.5,10.3,29.1,17.2,29.1,17.2V643.8z M1675,423.7c-73.1,33.8-169.4,60.2-169.4,60.2v89.4c0,0,0.8,6,9.4,16.4
			c8.6,10.3,18,12.9,18,12.9v41.3h-198.6v-40.4c0,0,12-2.6,20.6-11.2c8.6-8.6,10.3-18.9,10.3-18.9v-404c0,0,0.8-17.2-6-24.1
			c-6.9-6.9-23.1-16.3-23.1-16.3V83.4c0,0,172.9,0,273.9,0c101,0,202,36.1,202,153S1738.4,394.5,1675,423.7z M2175,149.7
			c-104.4,0-150.7,98-150.7,178.8c0,80.8,49.7,228.7,212.3,228.7c94.7,0,114.7-53.3,114.7-53.3h32.5V643h-178.1
			c-212.3,0-330.4-166.7-330.4-287.1c0-184.5,159.8-286.9,304.7-286.9c140.4,0,225.1,107.7,225.1,107.7l-96.7,101.9
			c0,0-5.1,2.5-9.4,2.5c-4.3,0-10.3-4.3-10.3-4.3l-12-10.3c0,0-3.4-0.9-3.4-4.3c0-3.4,9.4-12,9.4-28.3
			C2282.8,217.6,2279.4,149.7,2175,149.7z M2751.9,659.9c-184.9,0-317.8-135.6-317.8-300.6s136.3-292.9,317.8-292.9
			c181.4,0,317.8,127.9,317.8,292.9S2936.8,659.9,2751.9,659.9z M3779.9,644.1h-204.6v-37.2c0,0,18-2.6,24-11.2
			c6-8.6,8.6-13.8,6.9-27.5c-1.7-13.8-50.5-326.6-50.5-326.6l-89.1,276.7h-107.8l-88.2-259.5l-44.5,305.9c0,0-1.7,18.4,5.2,28.4
			c9.4,13.8,26.5,13.8,26.5,13.8v37h-177.2v-39.6c0,0,14.1-2.2,24.4-14.1c10.3-12,12-27.5,12-27.5l64.6-403.6c0,0,3.8-15-0.4-21.9
			c-4.5-7.2-28.7-13.3-28.7-13.3v-40h203.8l73.6,228.3l78.7-228.7h213.2v33.5c0,0-14.3,6-20.6,13.8c-7.7,9.4-7.7,16.3-6,30.1
			c1.7,13.8,56.5,386.8,58.2,400.5c1.7,13.8,3.4,21.5,6.8,31c3.4,9.4,19.7,17.1,19.7,17.1V644.1z"/>
		<path class="st1" d="M1507.3,167.6v238.9c0,0,160.9-67,160.9-161.6C1668.2,128,1507.3,167.6,1507.3,167.6"/>
		<path class="st1" d="M2751.9,155.5c-70.2,0-164.4,41.3-164.4,206.3s83.9,206.3,164.4,206.3c80.4,0,166.1-51.6,166.1-206.3
			C2918,207.1,2822.1,155.5,2751.9,155.5"/>
		<polyline class="st1" points="887.6,363.5 1000.5,363.5 942.4,200.2 887.6,363.5 		"/>
		<path class="st3" d="M678.7,172.8L497.2,365.3l-119.8-82.5c0,0,39.4-37.8,3.4-65.3c-28.1-21.4-106.7,24.1-103.4,113.5
			c4,103.1,67.5,161.5,137.6,161.5c65,0,82.1-52.7,82.1-52.7h145.9v121.5L848.2,18h234.5L1271,506.2c0,0,13.7,25.8,27.4,32.7
			c0,0,0.8-320.3,0.8-329.3c0-9-1.2-18.9-6.8-25.3c-9.2-10.7-24.8-15-24.8-15V18c0,0,217.3,0,328.7,0
			c170.4,0,214.2,46.5,263.6,135.8c68.3-92.3,162.2-153,296.2-153c137.9,0,235.4,51,291.1,135.8C2525,43.3,2650.2,0,2764.8,0
			c140.8,0,258.4,68.4,319.3,174.5V18h316.7l33.4,85.1L3459,18h327l0,147.8c-23.1,11.2-32.4,22.6-28.3,49l45.7,292.2
			c1.9,9.5,5.2,19.4,13.4,26.7c9.5,8.5,22.3,6.9,22.3,6.9v168.5h-328.7V581.8H3322v127.6h-309v-82.9c0,0-112.9,99.7-258.5,99.7
			c-186.2,0-310.7-137.5-310.7-137.5v120.3c0,0-13.7,0-219.2,0c-195,0-362.4-107.2-409.2-302.5c-22.2,21.2-119.9,91.3-237.1,117.7
			c-9.1,2-13.7,5.5-13.7,15.5c0,18.1,38.6,24.5,38.6,24.5v144.8c0,0-1013.5,0-1201.8,0C178.8,709.1,0,556.1,0,361.9
			S139.4,2.5,370.5,2.5C591.4,2.5,678.7,172.8,678.7,172.8"/>
		<path class="st4" d="M891.8,83.3h146.4l178.1,467.6c5.1,12.9,13.7,24.9,22.3,35.2c8.5,10.3,29.1,17.2,29.1,17.2v40.4h-214.9v-41.3
			c0,0,13.7,1.8,20.6-10.3c6.9-12,6.9-21.5,1.7-33.5c-5.1-12-41.1-107.5-41.1-107.5H858.5c0,0-36,96.3-39.4,104.9
			c-3.4,8.6-3.4,22.4,0,30.9c5.7,14.3,25.7,16.4,25.7,16.4v40.4h-172v-40.4c0,0,15.6-5.4,27.3-17.2c12.9-12.9,17.2-26.7,17.2-26.7
			L891.8,83.3 M887.6,363.5h113l-58.2-163.3L887.6,363.5z"/>
		<path class="st4" d="M1336.1,83.3c0,0,172.9,0,273.9,0c101,0,202,36.1,202,153s-73.6,158.1-137,187.3
			c-73.1,33.8-169.5,60.2-169.5,60.2v89.3c0,0,0.8,6,9.4,16.4c8.5,10.3,18,12.9,18,12.9v41.3h-198.6v-40.4c0,0,12-2.6,20.6-11.2
			c8.6-8.6,10.3-18.9,10.3-18.9v-404c0,0,0.8-17.2-6-24.1c-6.9-6.9-23.1-16.3-23.1-16.3V83.3 M1507.3,167.6v238.9
			c0,0,160.9-67,160.9-161.6C1668.2,128,1507.3,167.6,1507.3,167.6z"/>
		<path class="st4" d="M2751.9,659.9c-184.9,0-317.8-135.6-317.8-300.6s136.3-293,317.8-293c181.5,0,317.8,127.9,317.8,293
			S2936.8,659.9,2751.9,659.9 M2587.6,361.9c0,165,83.9,206.3,164.4,206.3c80.4,0,166.1-51.6,166.1-206.3
			c0-154.7-95.9-206.3-166.1-206.3C2681.7,155.6,2587.6,196.8,2587.6,361.9z"/>
		<path class="st4" d="M3152.5,83.7h203.7l73.6,228.3l78.7-228.7h213.1v33.5c0,0-14.2,6-20.6,13.8c-7.7,9.4-7.7,16.4-6,30.1
			c1.7,13.8,56.5,386.8,58.2,400.5c1.7,13.8,3.5,21.5,6.9,31c3.4,9.4,19.7,17.2,19.7,17.2V644h-204.6v-37.2c0,0,18-2.6,23.9-11.2
			c6-8.6,8.6-13.8,6.8-27.5c-1.7-13.8-50.5-326.6-50.5-326.6l-89,276.8h-107.8l-88.2-259.6l-44.5,306c0,0-1.7,18.3,5.1,28.3
			c9.4,13.8,26.5,13.8,26.5,13.8v36.9h-177.2v-39.5c0,0,14.1-2.2,24.4-14.2c10.3-12,12-27.5,12-27.5l64.6-403.5
			c0,0,3.9-15.1-0.4-21.9c-4.5-7.2-28.7-13.4-28.7-13.4V83.7"/>
		<path class="st4" d="M592.2,175.7l-95.5,100.6c-5,5.3-13.3,5.8-18.9,1.2l-16.2-13.3c-0.7-0.6-1.1-1.6-1.1-2.9
			c0-3.4,9.4-12,9.4-28.3c0-16.4-3.4-84.2-107.8-84.2c-104.4,0-150.7,98-150.7,178.8c0,80.8,49.7,228.7,212.3,228.7
			c94.6,0,114.7-53.3,114.7-53.3h32.5V642H392.8C180.5,642,62.4,475.3,62.4,355c0-184.5,159.8-286.9,304.7-286.9
			C507.5,68.1,592.2,175.7,592.2,175.7"/>
		<path class="st4" d="M2405.3,176.7l-95.5,100.6c-5,5.3-13.3,5.8-18.9,1.2l-16.2-13.3c-0.7-0.6-1.1-1.6-1.1-2.9
			c0-3.4,9.4-12,9.4-28.3c0-16.4-3.4-84.2-107.8-84.2c-104.4,0-150.7,98-150.7,178.8c0,80.8,49.7,228.7,212.3,228.7
			c94.6,0,114.7-53.3,114.7-53.3h32.5V643h-178.1c-212.3,0-330.4-166.7-330.4-287.1c0-184.5,159.8-286.9,304.7-286.9
			C2320.5,69.1,2405.3,176.7,2405.3,176.7"/>
	</g>
</g>
</svg>
