<?xml version="1.0" encoding="utf-8"?>
<!-- Generator: Adobe Illustrator 26.0.3, SVG Export Plug-In . SVG Version: 6.00 Build 0)  -->
<svg version="1.1" id="Layer_1" xmlns="http://www.w3.org/2000/svg" xmlns:xlink="http://www.w3.org/1999/xlink" x="0px" y="0px"
	 viewBox="0 0 3818.7 681.5" style="enable-background:new 0 0 3818.7 681.5;" xml:space="preserve">
<style type="text/css">
	.st0{fill:#231F20;}
	.st1{fill:#FFFFFF;}
	.st2{fill:url(#SVGID_1_);}
	.st3{fill:url(#SVGID_00000085932502049498851220000013338599289353260479_);}
	.st4{fill:url(#SVGID_00000183952593146653124520000003643470449359368069_);}
	.st5{fill:url(#SVGID_00000178910544231494145470000003422371786635474332_);}
	.st6{fill:url(#SVGID_00000032606252069954743750000003480665929312987323_);}
	.st7{fill:url(#SVGID_00000084511231637973532860000014832689042713414804_);}
	.st8{fill:url(#SVGID_00000177445631431741044870000015165390688091400103_);}
	.st9{fill:url(#SVGID_00000072969625692440306910000011614174723145198476_);}
	.st10{fill:url(#SVGID_00000108270124177068517870000002030075409774402191_);}
	.st11{fill:url(#SVGID_00000000224204634040231780000000581293737723653513_);}
	.st12{fill:url(#SVGID_00000054228543391450832600000004916592089132018608_);}
	.st13{fill:url(#SVGID_00000040567069997414864260000013614199178844070290_);}
	.st14{fill:url(#SVGID_00000037674332378878203950000009162469193931355312_);}
	.st15{display:none;}
	.st16{display:inline;fill:#FF0642;}
	.st17{display:inline;fill:#FFFFFF;stroke:#000000;stroke-width:0.4864;stroke-miterlimit:10;}
	.st18{display:inline;fill:#FFCB04;}
	.st19{fill:#034EA2;}
	.st20{fill:url(#SVGID_00000164514173705913308160000003065320075788097960_);}
	.st21{fill:url(#SVGID_00000081626595204118864550000018359648473658596774_);}
	.st22{fill:url(#SVGID_00000173863190393018716590000015057048120511558026_);}
	.st23{fill:url(#SVGID_00000091701913609934969720000011897382605046089362_);}
	.st24{fill:url(#SVGID_00000039134551269009047500000008922110288796333723_);}
	.st25{fill:url(#SVGID_00000034052784562965396610000010325154330088019106_);}
	.st26{fill:url(#SVGID_00000078726963860981666220000011631895872284663999_);}
	.st27{fill:url(#SVGID_00000102532739676185006270000016467790394860220321_);}
	.st28{fill:url(#SVGID_00000067945017082563561590000013168265336663210891_);}
	.st29{fill:url(#SVGID_00000126289787094429685560000000539487332281083269_);}
	.st30{fill:url(#SVGID_00000031178382835453020050000000419383370809629343_);}
	.st31{fill:url(#SVGID_00000088110646718945792740000003788455727976384158_);}
	.st32{fill:url(#SVGID_00000130609447291609471220000006554024197054473100_);}
	.st33{display:inline;fill:#FFFFFF;stroke:#000000;stroke-width:0.4884;stroke-miterlimit:10;}
	.st34{fill:url(#SVGID_00000059988203357277964600000003918451287835174584_);}
	.st35{fill:url(#SVGID_00000049206264887172293120000016462479244386490253_);}
	.st36{fill:url(#SVGID_00000074405097448355515810000006952199426142353563_);}
	.st37{fill:url(#SVGID_00000022537584280679879310000011406446618570942632_);}
	.st38{fill:url(#SVGID_00000109744697048879306140000006496151290796536229_);}
	.st39{fill:url(#SVGID_00000081620052073405277780000011296478862619685812_);}
	.st40{fill:url(#SVGID_00000042017086000542450240000011525404517243826072_);}
	.st41{fill:url(#SVGID_00000132782444366638818280000003228466677795947954_);}
	.st42{fill:url(#SVGID_00000111896117263851421560000011723809541541641114_);}
	.st43{fill:url(#SVGID_00000014622620539540221160000017487630378962646950_);}
	.st44{fill:url(#SVGID_00000180358213717186909200000008587494410714364049_);}
	.st45{fill:url(#SVGID_00000016041481994551136880000002239004181318761373_);}
	.st46{fill:url(#SVGID_00000129196668040914375610000014188909669593781683_);}
	.st47{display:inline;fill:#FFFFFF;stroke:#000000;stroke-width:0.5156;stroke-miterlimit:10;}
	.st48{fill:url(#SVGID_00000002371450511168264130000004270569868702213554_);}
	.st49{fill:url(#SVGID_00000149343164796238609750000014704536704422051749_);}
	.st50{fill:url(#SVGID_00000081648533796252948810000012638357161353906064_);}
	.st51{fill:url(#SVGID_00000140722544033777530750000017732637810179798708_);}
	.st52{fill:url(#SVGID_00000083784527860542485400000011153469844356454036_);}
	.st53{fill:url(#SVGID_00000043433113212724827770000013023337156299340477_);}
	.st54{fill:url(#SVGID_00000010995087075613939310000017872097735286248370_);}
	.st55{fill:url(#SVGID_00000049185483549276788580000009654115723850092191_);}
	.st56{fill:url(#SVGID_00000052079714174701807010000000507812201008003473_);}
	.st57{fill:url(#SVGID_00000178903952335051988820000011912037891685766292_);}
	.st58{fill:url(#SVGID_00000134959307955748461540000014293414469313364891_);}
	.st59{fill:url(#SVGID_00000182495706162827089310000009568424629890164615_);}
	.st60{fill:url(#SVGID_00000057841200868125739990000003540631622812104379_);}
	.st61{fill:#FFCB04;}
	.st62{fill:url(#SVGID_00000010303871665037532700000012481529228931923843_);}
	.st63{fill:url(#SVGID_00000020386324997155734500000007499520821795511435_);}
	.st64{fill:url(#SVGID_00000007401637416308050200000005172426736523498381_);}
	.st65{fill:url(#SVGID_00000110460768080533746390000004482731921609611397_);}
	.st66{fill:url(#SVGID_00000047775039193896751850000000324351265472953531_);}
	.st67{fill:url(#SVGID_00000144323733991629217730000018211805897716581256_);}
	.st68{fill:url(#SVGID_00000065769209328066512870000008037744141931470749_);}
	.st69{fill:url(#SVGID_00000094620479766525618960000001315001945786714245_);}
	.st70{fill:url(#SVGID_00000180331094769265758590000009396094808982890646_);}
	.st71{fill:url(#SVGID_00000097468388128194630990000014074565991779624852_);}
	.st72{fill:url(#SVGID_00000004528084073879107260000007074608640501344410_);}
	.st73{fill:url(#SVGID_00000059278514107703984050000012777415933442173088_);}
	.st74{fill:url(#SVGID_00000130620596352252199270000002149185440367605407_);}
	.st75{fill:url(#SVGID_00000144333089120400723350000015127115499581958805_);}
	.st76{fill:url(#SVGID_00000073714375310746873320000013037145084665746857_);}
	.st77{fill:url(#SVGID_00000023966901341644561030000004766225057596090536_);}
	.st78{fill:url(#SVGID_00000140696524160905664380000000008820036928849541_);}
	.st79{fill:url(#SVGID_00000011016315074965933170000008616771359493131931_);}
	.st80{fill:url(#SVGID_00000104682905186217226190000013454400881470465452_);}
	.st81{fill:url(#SVGID_00000027592055281889439120000017359929415299665318_);}
	.st82{fill:url(#SVGID_00000011718063741739846050000006101540045630080673_);}
	.st83{fill:url(#SVGID_00000067924636541255672700000012303402786127137676_);}
	.st84{fill:url(#SVGID_00000121281336710817521630000013286997354135141513_);}
	.st85{fill:url(#SVGID_00000125600169670772197000000010711923132295284616_);}
	.st86{fill:url(#SVGID_00000105417622721546614960000005737617842687576763_);}
	.st87{fill:url(#SVGID_00000024704454596144552740000010591518637225662374_);}
	.st88{fill:url(#SVGID_00000039134572067123570880000007471798894310303119_);}
	.st89{fill:url(#SVGID_00000131361711348016852560000016093133017176780223_);}
	.st90{fill:url(#SVGID_00000009561121687614320180000011365974088378843795_);}
	.st91{fill:url(#SVGID_00000053522552378980332780000016691334915392892061_);}
	.st92{fill:url(#SVGID_00000176033113813674234420000003807635625819396778_);}
	.st93{fill:url(#SVGID_00000018228064131189419730000013236711933505207424_);}
	.st94{fill:url(#SVGID_00000172436556973058983710000007133439443733607557_);}
	.st95{fill:url(#SVGID_00000051349757631937214260000006101710129305099962_);}
	.st96{fill:url(#SVGID_00000092415329087576766550000009302136875562781572_);}
	.st97{fill:url(#SVGID_00000060029470742104982360000011543937687152246943_);}
	.st98{fill:url(#SVGID_00000006710017899463587940000014605736221949447852_);}
	.st99{fill:url(#SVGID_00000144323704121364221870000016772923375397882545_);}
	.st100{fill:url(#SVGID_00000176758327709601568690000000385720356409280436_);}
	.st101{fill:url(#SVGID_00000021840682700568153280000003924922636087171262_);}
	.st102{fill:url(#SVGID_00000043433537967362626670000004968474500531041937_);}
	.st103{fill:url(#SVGID_00000083775859623963830070000004111993614202593463_);}
	.st104{fill:url(#SVGID_00000029750066736904241930000009948193188352476327_);}
	.st105{fill:url(#SVGID_00000057833152610604452240000011022117879990506666_);}
	.st106{fill:url(#SVGID_00000066507889945079012850000014485893563212838288_);}
	.st107{fill:url(#SVGID_00000047760682281887890090000002441053431948136072_);}
	.st108{fill:url(#SVGID_00000128469683737892181700000002731704158643538065_);}
	.st109{fill:url(#SVGID_00000018226618573290031690000006953367579915163569_);}
	.st110{fill:url(#SVGID_00000168104409350240906380000017934045730994919352_);}
	.st111{fill:url(#SVGID_00000016062771421826250640000008925566298418034081_);}
	.st112{fill:url(#SVGID_00000078040261729965020750000015772704992771714737_);}
	.st113{fill:url(#SVGID_00000013897915840558873050000002706912585693629326_);}
	.st114{fill:#007CFF;}
	.st115{fill:url(#SVGID_00000018224150521638853630000008683705048486601648_);}
	.st116{fill:url(#SVGID_00000170999836988760841040000000375922516816852139_);}
	.st117{fill:url(#SVGID_00000155859849108204669750000015137672762204182706_);}
	.st118{fill:url(#SVGID_00000028314347891114447300000000345584241894121352_);}
	.st119{fill:url(#SVGID_00000029031988712689772780000016925079083928882595_);}
	.st120{fill:url(#SVGID_00000176003308130800459480000013986758347056603803_);}
	.st121{fill:url(#SVGID_00000161628153016140592650000013449611223016327563_);}
	.st122{fill:url(#SVGID_00000035491620243096836950000007599003949222831780_);}
	.st123{fill:url(#SVGID_00000152959781693858977090000007787834301256147133_);}
	.st124{fill:url(#SVGID_00000018199475347024925110000012427289903121608587_);}
	.st125{fill:url(#SVGID_00000123429731224602138160000014267626100078669745_);}
	.st126{fill:url(#SVGID_00000111871338988669779390000010764860680275979146_);}
	.st127{fill:url(#SVGID_00000052808745632843282130000002089417233702579877_);}
	.st128{fill:url(#SVGID_00000169544346780637754780000006618348176021731742_);}
	.st129{fill:url(#SVGID_00000032644800776319188640000001022918258145739197_);}
	.st130{fill:url(#SVGID_00000007424795696972292210000002053655316048358791_);}
	.st131{fill:url(#SVGID_00000020389367091894839230000004976824602101757602_);}
	.st132{fill:url(#SVGID_00000022557391389785201010000016791188634538109344_);}
	.st133{fill:url(#SVGID_00000020395751275618278290000013918419643412053665_);}
	.st134{fill:url(#SVGID_00000151537213638461433030000016885856400871653019_);}
	.st135{fill:url(#SVGID_00000096759730376457349470000002450946830366032819_);}
	.st136{fill:url(#SVGID_00000170274622942619718510000015696407440931964601_);}
	.st137{fill:url(#SVGID_00000165214863621210642570000004035949082021809303_);}
	.st138{fill:url(#SVGID_00000093857002163235051830000013342667159872299680_);}
	.st139{fill:url(#SVGID_00000137843419239618516860000000554836782590735746_);}
	.st140{fill:url(#SVGID_00000181087364267004964240000018110129046166431403_);}
	.st141{display:inline;fill:#FFFFFF;stroke:#000000;stroke-width:0.6411;stroke-miterlimit:10;}
</style>
<g>
	<g>
		<g>
			<path class="st0" d="M1412,158.1v223.8c0,0,150.8-62.8,150.8-151.4C1562.8,121,1412,158.1,1412,158.1"/>
			<path class="st0" d="M2577.9,146.8c-65.8,0-154,38.7-154,193.2s78.6,193.2,154,193.2c75.4,0,155.6-48.3,155.6-193.2
				C2733.5,195.1,2643.6,146.8,2577.9,146.8"/>
			<polyline class="st0" points="831.4,341.7 937.3,341.7 882.8,188.7 831.4,341.7 			"/>
			<path class="st0" d="M534.8,602.6H368c-198.9,0-309.5-156.2-309.5-269c0-172.8,149.7-268.7,285.5-268.7
				c131.5,0,210.9,100.9,210.9,100.9l-90.6,95.4c0,0-4.8,2.4-8.8,2.4c-4,0-9.6-4-9.6-4l-11.2-9.7c0,0-3.2-0.8-3.2-4
				c0-3.2,8.8-11.2,8.8-26.5c0-15.3-3.2-78.9-101-78.9S198,232.2,198,307.9c0,75.7,46.5,214.2,198.9,214.2
				c88.7,0,107.4-49.9,107.4-49.9h30.5V602.6z M1187.4,604.2H986.2v-38.7c0,0,12.8,1.6,19.3-9.6c6.4-11.3,6.4-20.2,1.6-31.4
				c-4.8-11.3-38.5-100.7-38.5-100.7H804.2c0,0-33.7,90.2-36.9,98.2c-3.2,8-3.2,21,0,29c5.3,13.4,24.1,15.3,24.1,15.3v37.8H630.2
				v-37.8c0,0,14.6-5,25.6-16.1c12.1-12.1,16-24.9,16-24.9L835.4,79.2h137.1l166.7,438c4.8,12.1,12.9,23.4,20.9,33
				c8,9.7,27.2,16.1,27.2,16.1V604.2z M1569.1,398.1c-68.5,31.6-158.7,56.4-158.7,56.4v83.7c0,0,0.8,5.6,8.8,15.3
				c8,9.6,16.9,12.1,16.9,12.1v38.7h-186v-37.8c0,0,11.2-2.4,19.3-10.5c8-8.1,9.6-17.8,9.6-17.8V159.8c0,0,0.8-16.1-5.6-22.6
				c-6.4-6.5-21.6-15.3-21.6-15.3V79.2c0,0,161.9,0,256.6,0c94.6,0,189.3,33.8,189.3,143.3S1628.5,370.7,1569.1,398.1z
				 M2037.4,141.3c-97.8,0-141.1,91.8-141.1,167.5c0,75.7,46.5,214.2,198.9,214.2c88.7,0,107.4-49.9,107.4-49.9h30.5v130.4h-166.8
				c-198.9,0-309.5-156.2-309.5-268.9c0-172.9,149.7-268.7,285.5-268.7c131.5,0,210.9,100.9,210.9,100.9l-90.6,95.4
				c0,0-4.8,2.4-8.9,2.4c-4,0-9.6-4-9.6-4l-11.2-9.7c0,0-3.2-0.8-3.2-4c0-3.2,8.8-11.3,8.8-26.5
				C2138.5,204.9,2135.3,141.3,2037.4,141.3z M2577.9,619.3c-173.2,0-297.7-127-297.7-281.6s127.7-274.4,297.7-274.4
				c170,0,297.7,119.8,297.7,274.4S2751.1,619.3,2577.9,619.3z M3540.9,604.5h-191.6v-34.9c0,0,16.9-2.4,22.5-10.5
				c5.6-8.1,8-12.9,6.4-25.8c-1.6-12.9-47.3-306-47.3-306l-83.4,259.2h-101l-82.6-243.1l-41.7,286.6c0,0-1.6,17.2,4.9,26.6
				c8.8,12.9,24.8,12.9,24.8,12.9v34.6h-166v-37.1c0,0,13.2-2,22.9-13.2c9.6-11.3,11.2-25.8,11.2-25.8l60.5-378
				c0,0,3.6-14.1-0.4-20.5c-4.2-6.8-26.9-12.5-26.9-12.5V79.6H3144l68.9,213.8l73.7-214.2h199.7v31.4c0,0-13.4,5.6-19.3,12.9
				c-7.2,8.8-7.2,15.3-5.6,28.2c1.6,12.9,52.9,362.3,54.5,375.2c1.6,12.9,3.2,20.1,6.4,29c3.2,8.8,18.4,16,18.4,16V604.5z"/>
			<path class="st1" d="M1412,158.1v223.8c0,0,150.8-62.8,150.8-151.4C1562.8,121,1412,158.1,1412,158.1"/>
			<path class="st1" d="M2577.9,146.8c-65.8,0-154,38.7-154,193.2s78.6,193.2,154,193.2c75.4,0,155.6-48.3,155.6-193.2
				C2733.5,195.1,2643.6,146.8,2577.9,146.8"/>
			<polyline class="st1" points="831.4,341.7 937.3,341.7 882.8,188.7 831.4,341.7 			"/>
			<linearGradient id="SVGID_1_" gradientUnits="userSpaceOnUse" x1="1798.1213" y1="681.4699" x2="1798.1213" y2="1.1385">
				<stop  offset="0.1654" style="stop-color:#000055"/>
				<stop  offset="0.9017" style="stop-color:#007CFF"/>
			</linearGradient>
			<path class="st2" d="M635.8,163l-170,180.4L353.5,266c0,0,36.9-35.4,3.2-61.2c-26.3-20.1-100,22.6-96.8,106.3
				c3.7,96.6,63.2,151.3,128.9,151.3c60.9,0,77-49.4,77-49.4h136.7v113.8L794.5,18h219.7l176.4,457.3c0,0,12.8,24.2,25.7,30.6
				c0,0,0.7-300.1,0.7-308.4c0-8.4-1.1-17.7-6.4-23.7c-8.6-10-23.2-14.1-23.2-14.1V18c0,0,203.6,0,307.9,0
				c159.7,0,200.6,43.5,247,127.3c64-86.4,151.9-143.4,277.4-143.4c129.2,0,220.5,47.8,272.7,127.2c72.9-87.5,190.2-128,297.5-128
				c131.9,0,242.1,64.1,299.1,163.4V18h296.7l31.3,79.7l23.3-79.7h306.3l0,138.5c-21.7,10.5-30.4,21.1-26.5,45.9l42.8,273.7
				c1.8,8.9,4.9,18.2,12.5,25c8.9,8,20.9,6.4,20.9,6.4v157.8h-307.9V546.2h-176.4v119.5h-289.5v-77.6c0,0-105.8,93.4-242.1,93.4
				c-174.5,0-291.1-128.8-291.1-128.8v112.7c0,0-12.8,0-205.3,0c-182.6,0-339.5-100.4-383.3-283.4
				c-20.8,19.9-112.3,85.5-222.1,110.3c-8.5,1.9-12.8,5.2-12.8,14.5c0,16.9,36.1,23,36.1,23v135.6c0,0-949.4,0-1125.8,0
				C167.5,665.4,0,522.1,0,340.1S130.6,3.5,347.1,3.5C554,3.5,635.8,163,635.8,163"/>
			<g>
				
					<linearGradient id="SVGID_00000014627329653139236070000011930042682492825746_" gradientUnits="userSpaceOnUse" x1="3241.7664" y1="657.1692" x2="3134.2842" y2="47.6081">
					<stop  offset="0" style="stop-color:#FF9D01"/>
					<stop  offset="0.1496" style="stop-color:#FFA402"/>
					<stop  offset="0.3686" style="stop-color:#FFB805"/>
					<stop  offset="0.6289" style="stop-color:#FFD80A"/>
					<stop  offset="0.7832" style="stop-color:#FFEE0D"/>
					<stop  offset="1" style="stop-color:#FFD70B"/>
				</linearGradient>
				<path style="fill:url(#SVGID_00000014627329653139236070000011930042682492825746_);" d="M3522.5,555.9
					c-3.2-8.8-4.9-16.1-6.5-29c-1.6-12.8-52.9-362.3-54.5-375.1c-1.6-12.9-1.6-19.4,5.6-28.2c6-7.3,19.3-12.9,19.3-12.9V79.2h-199.7
					L3213,293.4l-69-213.8h-190.9V117c0,0,22.7,5.7,26.9,12.5c4,6.4,0.4,20.5,0.4,20.5l-60.5,378c0,0-1.6,14.5-11.2,25.8
					c-9.6,11.2-22.8,13.3-22.8,13.3v37h166v-34.6c0,0-16,0-24.8-12.9c-6.4-9.4-4.8-26.5-4.8-26.5l41.7-286.7l82.6,243.2h101
					l83.4-259.3c0,0,45.7,293.1,47.3,306c1.6,12.9-0.8,17.7-6.4,25.8c-5.6,8.1-22.4,10.5-22.4,10.5v34.8H3541V572
					C3541,572,3525.7,564.7,3522.5,555.9z"/>
				
					<linearGradient id="SVGID_00000129189032889179826570000005329131777811841193_" gradientUnits="userSpaceOnUse" x1="3213.4075" y1="604.4112" x2="3213.4075" y2="79.1805">
					<stop  offset="5.327789e-09" style="stop-color:#FFCF00"/>
					<stop  offset="1" style="stop-color:#FFFF36"/>
				</linearGradient>
				<path style="fill:url(#SVGID_00000129189032889179826570000005329131777811841193_);" d="M3474.1,91.5v11.4
					c-5.3,2.9-12,7.3-16.5,12.8c-10.4,12.8-10,23.6-8.3,37.5c0.8,6.6,13.8,95.6,27.6,189.7c12.9,88.1,26.2,179.2,26.9,185.4
					c1.7,13.6,3.5,21.9,7.1,31.7c2.2,6.1,7.2,12,15,17.3c0.9,0.6,1.9,1.2,2.7,1.8v12.9h-167v-12.8c6.9-2.2,15.4-6.2,20.2-13.2
					c7.4-10.5,10.5-18.4,8.5-34.3c-1.6-12.9-45.5-294.4-47.4-306.3l-8-51.3l-15.9,49.4l-80.6,250.7h-83.2l-79.8-234.8l-16.5-48.5
					l-7.4,50.7L3010,528.3l0,0.3l0,0.3c-0.3,3.6-1.6,22.2,6.9,34.6c6.1,9,14.9,13.9,22.7,16.3v12h-141.3v-15.7
					c6-2.5,13.5-6.9,19.9-14.3c11.2-13.1,13.7-29,14.1-32.1l60.4-377.2c1.3-5.1,4-19.8-2-29.5c-3.4-5.4-9.9-9.7-21.2-13.8
					c-1.3-0.5-2.6-0.9-3.8-1.3v-16h169.6l66.2,205.3l11.3,35.2l12-34.9l70.9-205.9H3474.1 M3486.4,79.2h-199.7L3213,293.4l-69-213.8
					h-190.9V117c0,0,22.7,5.7,26.9,12.5c4,6.4,0.4,20.5,0.4,20.5l-60.5,378c0,0-1.6,14.5-11.2,25.8c-9.6,11.2-22.8,13.3-22.8,13.3
					v37h166v-34.6c0,0-16,0-24.8-12.9c-6.4-9.4-4.8-26.5-4.8-26.5l41.7-286.7l82.6,243.2h101l83.4-259.3c0,0,45.7,293.1,47.3,306
					c1.6,12.9-0.8,17.7-6.4,25.8c-5.6,8.1-22.4,10.5-22.4,10.5v34.8H3541V572c0,0-15.3-7.2-18.4-16.1c-3.2-8.8-4.9-16.1-6.5-29
					c-1.6-12.8-52.9-362.3-54.5-375.1c-1.6-12.9-1.6-19.4,5.6-28.2c6-7.3,19.3-12.9,19.3-12.9V79.2L3486.4,79.2z"/>
			</g>
			<g>
				<g>
					
						<linearGradient id="SVGID_00000008121581198997238240000007578383761222372026_" gradientUnits="userSpaceOnUse" x1="920.4785" y1="651.2356" x2="820.0868" y2="81.8862">
						<stop  offset="0" style="stop-color:#FF9D01"/>
						<stop  offset="0.1496" style="stop-color:#FFA402"/>
						<stop  offset="0.3686" style="stop-color:#FFB805"/>
						<stop  offset="0.6289" style="stop-color:#FFD80A"/>
						<stop  offset="0.7832" style="stop-color:#FFEE0D"/>
						<stop  offset="1" style="stop-color:#FFD70B"/>
					</linearGradient>
					<path style="fill:url(#SVGID_00000008121581198997238240000007578383761222372026_);" d="M1160.2,550.2c-8-9.7-16-21-20.9-33
						l-166.8-438H835.4L671.9,525.2c0,0-4,12.9-16.1,25c-11,11.1-25.6,16.1-25.6,16.1v37.8h161.2v-37.8c0,0-18.7-1.9-24.1-15.3
						c-3.2-8-3.2-21,0-29c3.2-8,36.9-98.2,36.9-98.2h164.4c0,0,33.7,89.4,38.5,100.7c4.8,11.3,4.8,20.1-1.6,31.4
						c-6.4,11.3-19.3,9.6-19.3,9.6v38.7h201.3v-37.8C1187.5,566.3,1168.2,559.9,1160.2,550.2z M831.4,341.7l51.3-153l54.5,153H831.4
						z"/>
					
						<linearGradient id="SVGID_00000096055442366120601630000006223659995929227175_" gradientUnits="userSpaceOnUse" x1="908.8413" y1="604.1526" x2="908.8413" y2="79.1805">
						<stop  offset="5.327789e-09" style="stop-color:#FFCF00"/>
						<stop  offset="1" style="stop-color:#FFFF36"/>
					</linearGradient>
					<path style="fill:url(#SVGID_00000096055442366120601630000006223659995929227175_);" d="M964.1,91.5l163.8,430.1l0,0.1l0,0.1
						c4.6,11.4,12,23.3,22.8,36.3c6.3,7.6,16.9,13.3,24.4,16.6v17.1H998.5v-15.6c7.5-2.4,13.7-7.4,17.6-14.3
						c8.1-14.3,8.8-26.9,2.2-42.3c-3.7-8.7-26.7-69.3-38.3-100.2l-3-8h-8.5H804.2h-8.5l-3,8c-0.3,0.9-33.7,90.2-36.8,98
						c-4.3,10.9-4.3,27.3,0,38.1c4.7,11.8,15,17.6,23.2,20.5v15.8H642.5v-17.4c6.2-3.1,14.7-8.1,22-15.5
						c13.1-13.1,18.1-26.9,19-29.7L844,91.5H964.1 M814.3,354h17.1h105.8h17.5l-5.9-16.4l-54.5-153L882.4,151l-11.3,33.8l-51.3,153
						L814.3,354 M972.6,79.2H835.4L671.9,525.2c0,0-4,12.9-16.1,25c-11,11.1-25.6,16.1-25.6,16.1v37.8h161.2v-37.8
						c0,0-18.7-1.9-24.1-15.3c-3.2-8-3.2-21,0-29c3.2-8,36.9-98.2,36.9-98.2h164.4c0,0,33.7,89.4,38.5,100.7
						c4.8,11.3,4.8,20.1-1.6,31.4c-5,8.7-13.8,9.7-17.5,9.7c-1.1,0-1.8-0.1-1.8-0.1v38.7h201.3v-37.8c0,0-19.3-6.5-27.3-16.1
						c-8-9.7-16-21-20.9-33L972.6,79.2L972.6,79.2z M831.4,341.7l51.3-153l54.5,153H831.4L831.4,341.7z"/>
				</g>
				<g>
					
						<linearGradient id="SVGID_00000147932872956381227360000011388127233104789946_" gradientUnits="userSpaceOnUse" x1="1506.528" y1="591.728" x2="1411.1908" y2="51.0438">
						<stop  offset="0" style="stop-color:#FF9D01"/>
						<stop  offset="0.1496" style="stop-color:#FFA402"/>
						<stop  offset="0.3686" style="stop-color:#FFB805"/>
						<stop  offset="0.6289" style="stop-color:#FFD80A"/>
						<stop  offset="0.7832" style="stop-color:#FFEE0D"/>
						<stop  offset="1" style="stop-color:#FFD70B"/>
					</linearGradient>
					<path style="fill:url(#SVGID_00000147932872956381227360000011388127233104789946_);" d="M1508.2,79.2c-94.6,0-256.6,0-256.6,0
						v42.7c0,0,15.2,8.8,21.6,15.3c6.4,6.5,5.6,22.6,5.6,22.6v378.4c0,0-1.6,9.7-9.6,17.8c-8,8-19.3,10.5-19.3,10.5v37.8h186v-38.7
						c0,0-8.9-2.4-16.8-12.1c-8.1-9.7-8.8-15.3-8.8-15.3v-83.7c0,0,90.3-24.8,158.8-56.4c59.4-27.4,128.3-66,128.3-175.5
						S1602.9,79.2,1508.2,79.2z M1412,381.9V158.1c0,0,150.8-37.1,150.8,72.5C1562.8,319.2,1412,381.9,1412,381.9z"/>
					
						<linearGradient id="SVGID_00000173867061412409423290000013223371262371179451_" gradientUnits="userSpaceOnUse" x1="1473.7396" y1="604.1526" x2="1473.7396" y2="79.1805">
						<stop  offset="5.327789e-09" style="stop-color:#FFCF00"/>
						<stop  offset="1" style="stop-color:#FFFF36"/>
					</linearGradient>
					<path style="fill:url(#SVGID_00000173867061412409423290000013223371262371179451_);" d="M1508.2,91.5
						c50.7,0,93.5,9.9,123.6,28.7c16.8,10.5,29.8,23.8,38.6,39.7c9.8,17.5,14.7,38.6,14.7,62.6c0,100.1-59.8,136-121.1,164.3
						c-66.8,30.8-156,55.5-156.9,55.7l-9.1,2.5v9.4v83.7v0.8l0.1,0.8c0.3,2.1,2,10,11.6,21.5c4.7,5.8,9.8,9.6,14,12v18.5h-161.4
						v-16.8c4.8-2.1,10.6-5.5,15.7-10.5c10.5-10.6,12.8-23,13-24.4l0.2-1v-1V159.9c0-1.3,0.1-5.6-0.5-10.6
						c-1.2-9.2-4.1-16.2-8.7-20.9c-4.7-4.7-12.5-10-18-13.5V91.5H1508.2 M1399.7,400.4l17-7.1c1.6-0.7,39.4-16.5,77.8-43.8
						c22.9-16.2,41.2-33.2,54.4-50.4c17.3-22.5,26.1-45.6,26.1-68.5c0-17.5-3.6-32.9-10.6-45.7c-6.4-11.7-15.7-21.3-27.6-28.5
						c-18-11-41.9-16.6-71.1-16.6c-30.4,0-55.7,6.1-56.8,6.4l-9.4,2.3v9.7v223.8V400.4 M1508.2,79.2c-94.6,0-256.6,0-256.6,0v42.7
						c0,0,15.2,8.8,21.6,15.3c6.4,6.5,5.6,22.6,5.6,22.6v378.4c0,0-1.6,9.7-9.6,17.8c-8,8-19.3,10.5-19.3,10.5v37.8h186v-38.7
						c0,0-8.9-2.4-16.8-12.1c-8.1-9.7-8.8-15.3-8.8-15.3v-83.7c0,0,90.3-24.8,158.8-56.4c59.4-27.4,128.3-66,128.3-175.5
						S1602.9,79.2,1508.2,79.2L1508.2,79.2z M1412,381.9V158.1c0,0,24.6-6,53.8-6c43.3,0,96.9,13.2,96.9,78.5
						C1562.8,319.2,1412,381.9,1412,381.9L1412,381.9z"/>
				</g>
				<g>
					
						<linearGradient id="SVGID_00000093892861758218565160000013363498428883352475_" gradientUnits="userSpaceOnUse" x1="2626.9119" y1="615.9155" x2="2529.9958" y2="66.2775">
						<stop  offset="0" style="stop-color:#FF9D01"/>
						<stop  offset="0.1496" style="stop-color:#FFA402"/>
						<stop  offset="0.3686" style="stop-color:#FFB805"/>
						<stop  offset="0.6289" style="stop-color:#FFD80A"/>
						<stop  offset="0.7832" style="stop-color:#FFEE0D"/>
						<stop  offset="1" style="stop-color:#FFD70B"/>
					</linearGradient>
					<path style="fill:url(#SVGID_00000093892861758218565160000013363498428883352475_);" d="M2577.9,63.2
						c-170,0-297.7,119.9-297.7,274.4s124.5,281.6,297.7,281.6c173.2,0,297.7-127,297.7-281.6S2747.9,63.2,2577.9,63.2z
						 M2577.9,533.4c-75.4,0-154-38.7-154-193.2s88.2-193.2,154-193.2c65.8,0,155.6,48.3,155.6,193.2
						C2733.5,485,2653.3,533.4,2577.9,533.4z"/>
					
						<linearGradient id="SVGID_00000060012417596787907120000013612365540674255786_" gradientUnits="userSpaceOnUse" x1="2577.9202" y1="619.264" x2="2577.9202" y2="63.2411">
						<stop  offset="5.327789e-09" style="stop-color:#FFCF00"/>
						<stop  offset="1" style="stop-color:#FFFF36"/>
					</linearGradient>
					<path style="fill:url(#SVGID_00000060012417596787907120000013612365540674255786_);" d="M2577.9,75.6
						c78.8,0,151.4,27,204.2,76c52.3,48.5,81.2,114.6,81.2,186.2c0,72.4-28.5,139.9-80.2,189.9c-25.7,24.9-56.1,44.4-90.2,58
						c-35.7,14.2-74.4,21.4-115,21.4c-40.6,0-79.3-7.2-115-21.4c-34.1-13.6-64.5-33.1-90.2-58c-51.7-50-80.2-117.5-80.2-189.9
						c0-71.5,28.8-137.6,81.2-186.2C2426.5,102.5,2499.1,75.6,2577.9,75.6 M2577.9,545.7c21.3,0,41.7-3.6,60.4-10.6
						c20.8-7.8,39.1-19.7,54.4-35.4c16.8-17.2,29.8-38.8,38.6-64.2c9.6-27.4,14.4-59.5,14.4-95.4c0-35.8-5.3-68-15.9-95.7
						c-9.5-25.1-23.3-46.7-40.9-64c-29.6-29.1-70.1-45.8-111.1-45.8c-19.5,0-38.3,3.1-55.8,9.1c-20.7,7.1-39,18.2-54.3,32.9
						c-17.5,16.8-31.2,38.3-40.6,63.8c-10.3,28.2-15.6,61.7-15.6,99.6c0,73.7,17.6,128.7,52.3,163.3c15,15,33.2,26.1,54.2,33.2
						C2536.1,542.6,2556.2,545.7,2577.9,545.7 M2577.9,63.2c-170,0-297.7,119.9-297.7,274.4s124.5,281.6,297.7,281.6
						c173.2,0,297.7-127,297.7-281.6S2747.9,63.2,2577.9,63.2L2577.9,63.2z M2577.9,533.4c-75.4,0-154-38.7-154-193.2
						s88.2-193.2,154-193.2c65.8,0,155.6,48.3,155.6,193.2C2733.5,485,2653.3,533.4,2577.9,533.4L2577.9,533.4z"/>
				</g>
				<g>
					
						<linearGradient id="SVGID_00000111159873858090012460000009324080975222115500_" gradientUnits="userSpaceOnUse" x1="372.435" y1="631.169" x2="273.9527" y2="72.6482">
						<stop  offset="0" style="stop-color:#FF9D01"/>
						<stop  offset="0.1496" style="stop-color:#FFA402"/>
						<stop  offset="0.3686" style="stop-color:#FFB805"/>
						<stop  offset="0.6289" style="stop-color:#FFD80A"/>
						<stop  offset="0.7832" style="stop-color:#FFEE0D"/>
						<stop  offset="1" style="stop-color:#FFD70B"/>
					</linearGradient>
					<path style="fill:url(#SVGID_00000111159873858090012460000009324080975222115500_);" d="M432.4,248.6l15.2,12.5
						c5.3,4.3,13,3.9,17.7-1.1l89.5-94.2c0,0-79.4-100.9-210.9-100.9c-135.8,0-285.5,95.9-285.5,268.7
						c0,112.7,110.7,268.9,309.5,268.9h166.8V472.1h-30.5c0,0-18.8,49.9-107.4,49.9C244.5,522.1,198,383.6,198,307.9
						c0-75.7,43.3-167.5,141.1-167.5c97.9,0,101,63.6,101,78.9c0,15.3-8.8,23.3-8.8,26.5C431.3,247.1,431.7,248.1,432.4,248.6z"/>
					
						<linearGradient id="SVGID_00000023991228992615378780000004038952691903702688_" gradientUnits="userSpaceOnUse" x1="306.6045" y1="602.5482" x2="306.6045" y2="64.8971">
						<stop  offset="5.327789e-09" style="stop-color:#FFCF00"/>
						<stop  offset="1" style="stop-color:#FFFF36"/>
					</linearGradient>
					<path style="fill:url(#SVGID_00000023991228992615378780000004038952691903702688_);" d="M343.9,77.2c28.4,0,56.6,5,83.7,14.8
						c21.9,7.9,43.2,19,63.3,32.9c22.6,15.6,38.7,31.3,47.2,40.5l-81.7,86.1c-0.1,0.1-0.2,0.2-0.5,0.2c-0.2,0-0.4-0.1-0.4-0.2
						l-9.3-7.7c2.9-5.4,6.4-13.6,6.4-24.6c0-19.8-5.6-38-16.2-52.5c-8.6-11.8-20.4-21.1-35.1-27.5c-16.9-7.4-37.8-11.2-62-11.2
						c-48.6,0-89.1,20.9-117.3,60.5c-23,32.3-36.2,75.8-36.2,119.2c0,21.8,3.5,45.6,10.1,68.8c7.8,27.3,19.4,52.2,34.4,73.7
						c17.7,25.5,39.7,45.5,65.4,59.6c29.4,16.2,63.5,24.3,101.3,24.3c75.2,0,105-34,114.8-49.9h10.8v105.8H368
						c-45.5,0-88.4-8.5-127.4-25.2c-35.1-15-66.5-36.3-93.2-63.4c-24.1-24.4-43.9-53.3-57.3-83.5c-12.7-28.6-19.4-57.9-19.4-84.6
						c0-39.5,8.2-76.3,24.3-109.5c14.8-30.5,36.1-57.5,63.1-80.2C208.7,101.5,276.4,77.2,343.9,77.2 M343.9,64.9
						c-135.8,0-285.5,95.9-285.5,268.7c0,112.7,110.7,268.9,309.5,268.9h166.8V472.1h-30.5c0,0-18.8,49.9-107.4,49.9
						C244.5,522.1,198,383.6,198,307.9c0-75.7,43.3-167.5,141.1-167.5c97.9,0,101,63.6,101,78.9c0,15.3-8.8,23.3-8.8,26.5
						c0,1.2,0.4,2.2,1.1,2.7l15.2,12.5c2.4,2,5.3,3,8.3,3c3.5,0,6.9-1.4,9.5-4.1l89.5-94.2C554.8,165.8,475.4,64.9,343.9,64.9
						L343.9,64.9z"/>
				</g>
				<g>
					
						<linearGradient id="SVGID_00000151505062580361461300000015472455786064062851_" gradientUnits="userSpaceOnUse" x1="2070.8308" y1="632.1005" x2="1972.3485" y2="73.5794">
						<stop  offset="0" style="stop-color:#FF9D01"/>
						<stop  offset="0.1496" style="stop-color:#FFA402"/>
						<stop  offset="0.3686" style="stop-color:#FFB805"/>
						<stop  offset="0.6289" style="stop-color:#FFD80A"/>
						<stop  offset="0.7832" style="stop-color:#FFEE0D"/>
						<stop  offset="1" style="stop-color:#FFD70B"/>
					</linearGradient>
					<path style="fill:url(#SVGID_00000151505062580361461300000015472455786064062851_);" d="M2130.8,249.6L2146,262
						c5.3,4.3,13,3.8,17.7-1.1l89.5-94.2c0,0-79.4-100.9-210.9-100.9c-135.8,0-285.5,95.9-285.5,268.7
						c0,112.7,110.7,268.9,309.5,268.9h166.8V473.1h-30.5c0,0-18.8,49.9-107.4,49.9c-152.4,0-198.9-138.5-198.9-214.2
						c0-75.7,43.3-167.5,141.1-167.5c97.9,0,101,63.6,101,78.9c0,15.3-8.8,23.3-8.8,26.5C2129.7,248,2130.1,249,2130.8,249.6z"/>
					
						<linearGradient id="SVGID_00000021100138109412744340000014902338783560063887_" gradientUnits="userSpaceOnUse" x1="2005.0002" y1="603.4796" x2="2005.0002" y2="65.8283">
						<stop  offset="5.327789e-09" style="stop-color:#FFCF00"/>
						<stop  offset="1" style="stop-color:#FFFF36"/>
					</linearGradient>
					<path style="fill:url(#SVGID_00000021100138109412744340000014902338783560063887_);" d="M2042.3,78.1c28.4,0,56.6,5,83.7,14.8
						c21.9,7.9,43.2,19,63.3,32.9c22.6,15.6,38.7,31.3,47.2,40.5l-81.7,86.1c-0.1,0.1-0.2,0.2-0.5,0.2c-0.2,0-0.4-0.1-0.4-0.2
						l-9.3-7.7c2.9-5.4,6.4-13.6,6.4-24.6c0-19.8-5.6-38-16.2-52.5c-8.6-11.8-20.4-21.1-35.1-27.5c-16.9-7.4-37.8-11.2-62-11.2
						c-48.6,0-89.1,20.9-117.3,60.5c-23,32.3-36.2,75.8-36.2,119.2c0,21.8,3.5,45.6,10.1,68.8c7.8,27.3,19.4,52.2,34.4,73.7
						c17.7,25.5,39.7,45.5,65.4,59.6c29.4,16.2,63.5,24.3,101.3,24.3c75.2,0,105-34,114.8-49.9h10.8v105.8h-154.5
						c-45.5,0-88.4-8.5-127.4-25.2c-35.1-15-66.5-36.3-93.2-63.4c-24.1-24.4-43.9-53.3-57.3-83.5c-12.7-28.6-19.4-57.9-19.4-84.6
						c0-39.5,8.2-76.3,24.3-109.5c14.8-30.5,36.1-57.5,63.1-80.2C1907.1,102.4,1974.8,78.1,2042.3,78.1 M2042.3,65.8
						c-135.8,0-285.5,95.9-285.5,268.7c0,112.7,110.7,268.9,309.5,268.9h166.8V473.1h-30.5c0,0-18.8,49.9-107.4,49.9
						c-152.4,0-198.9-138.5-198.9-214.2c0-75.7,43.3-167.5,141.1-167.5c97.9,0,101,63.6,101,78.9c0,15.3-8.8,23.3-8.8,26.5
						c0,1.2,0.4,2.2,1.1,2.7L2146,262c2.4,2,5.3,3,8.3,3c3.5,0,6.9-1.4,9.5-4.1l89.5-94.2C2253.2,166.7,2173.8,65.8,2042.3,65.8
						L2042.3,65.8z"/>
				</g>
			</g>
			<g class="st15">
				<path class="st16" d="M554.7,165.8l-90.6,95.4c0,0-4.8,2.4-8.8,2.4c-4,0-9.6-4-9.6-4l-11.2-9.7c0,0-3.2-0.8-3.2-4
					c0-3.2,8.8-11.3,8.8-26.5c0-15.3-3.2-78.9-101-78.9c-97.8,0-141.1,91.8-141.1,167.4c0,75.7,46.5,214.1,198.8,214.1
					c88.6,0,107.4-49.9,107.4-49.9h30.5v130.4H367.9c-198.8,0-309.4-156.1-309.4-268.8C58.5,160.9,208.1,65,343.9,65
					C475.3,65,554.7,165.8,554.7,165.8"/>
				<line class="st33" x1="428.3" y1="245.3" x2="466.6" y2="276.7"/>
				<line class="st33" x1="545.1" y1="175.9" x2="443.2" y2="283.2"/>
				<path class="st18" d="M2580.3,701.8c-125.8,0-221.9-62.5-270.7-102.7v86.6h-225.6c-189.9,0-341.4-104.4-394.5-268.5
					c-39.6,28.8-110.8,70.1-190.6,91.1c2.2,0.6,4.4,1.1,6.4,1.5l16.9,2.9l0.1,173.1H376c-222.2,0-396.3-151.8-396.3-345.6
					c0-206.8,154.5-356.9,367.4-356.9c216.8,0,303.2,163.5,306.8,170.5l6.6,12.8L468.6,370L321.5,268.6l18-17.3
					c4.7-4.6,11.5-14.7,11.1-21.4c-0.1-1.2,0.9-6.4-5-10.9c-1.3-1-9.8,0-21.4,6c-21.4,11.1-45.7,40.1-44,85.4
					c3.5,90.5,58.7,131.8,108.6,131.8c44,0,56.4-31.9,57.7-35.5l4.8-13.6l14.5-0.2h157v22.7L780.5-2.3h247.7l168,435.5
					c0.2-89.4,0.5-229.9,0.5-235.6c0-8.1-1.4-10.4-1.5-10.5c-3.3-3.8-10.5-6.9-13.4-7.8l-14.6-4.3l-0.2-15.2V-2.3h328.3
					c145.8,0,201.3,34.7,249.5,111.7c72-84.8,164.3-127.8,274.9-127.8c120.2,0,214.5,39.7,274.4,115.3
					c71.5-73.1,180.1-116.1,295.7-116.1c112,0,212.1,44.1,278.7,120.4V-2.3h330.9l14.6,37.2L3225-2.3h341.9l0,171.6l-11.5,5.6
					c-16.3,7.9-17.3,11.2-15.3,24.5l42.8,273.7c1.2,6.2,3.1,10.4,6,13c1.3,1.2,4.1,1.4,5.2,1.3l21.8-1.5l0.7,21.7v178.2H3268V566.5
					h-135.7V686h-330.2v-57.3C2758.7,657.9,2677.3,701.8,2580.3,701.8z M2268.9,500.1l35.4,38.9c1.1,1.2,113.1,122.1,276,122.1
					c126.7,0,227.7-87.5,228.7-88.3l33.7-29.7l0,102.2h248.8V525.9h217V645h267.3V524.8c-4.7-1.8-9.6-4.4-14.1-8.5
					c-12.8-11.5-16.9-26.2-18.9-36.2L3500,205.5c-5.2-33.2,8.8-50.1,26.3-61.1l0-106.1h-270.8l-35.7,122.2l-47.9-122.2h-262.5v202.5
					l-38-66.2c-55-95.9-160.3-153.2-281.4-153.2c-113.5,0-218.9,45.1-281.9,120.7l-17.6,21.1l-15.1-22.9
					c-50.7-77.2-139.1-118-255.7-118c-108.4,0-193.8,44.2-261.1,135.1l-18.8,25.4l-15.3-27.7c-40-72.4-72.5-116.8-229.2-116.8
					h-287.6v107.9c6,3.2,12.8,7.9,18.3,14.3c7.6,8.7,11.3,20.8,11.3,37c0,8.4-0.7,308.5-0.7,308.5l-0.1,32.9l-29.4-14.8
					c-17.3-8.7-30.8-32.2-34.5-39.3l-1-2.2L1000.3,38.3H808.6L621.5,534.1l-39.3-7.2v-93.5H478.5c-10.8,18.7-36.6,49.4-89.7,49.4
					c-68.7,0-144.7-53.5-149.2-170.9c-2.4-64.3,34-106.5,65.9-123c23.8-12.4,47.6-12.4,63.6-0.2c17.2,13.2,21.5,28.5,22.1,39
					c0.7,12.8-3.6,24.4-8.7,33.5l80.5,55.5l147.6-156.5C587.4,124.5,508,23.8,347.1,23.8c-192.4,0-326.8,130.1-326.8,316.3
					C20.3,511.1,176.5,645,376,645h1105.5v-99.5c-19.5-6.6-36.1-19.2-36.1-38.8c0-12.7,5-29,28.7-34.3
					c102.5-23.1,191.6-85.1,212.5-105.1l25.6-24.5l8.2,34.4C1760,542.4,1899.3,645,2083.9,645h185V500.1z"/>
			</g>
		</g>
	</g>
	<g>
		<path class="st0" d="M3674.2,37.4h60.5c31.8,0,39.3,28.5,39.3,38.9c0,13.2-10.7,28.6-22.6,32.7l32.6,43.1h-26.9l-27-39.8h-31.5
			V152h-24.5V37.4 M3732.9,90.4c6.6,0,18.6-2.1,18.6-14c0-10.7-2.6-15.8-16.7-15.8h-36v29.8H3732.9z"/>
		<path class="st0" d="M3628.9,95.3c0,52.5,42.6,95.3,94.9,95.3s94.9-42.7,94.9-95.3S3776.1,0,3723.8,0S3628.9,42.7,3628.9,95.3
			 M3639.5,95.3c0-46.7,37.8-84.6,84.3-84.6c46.5,0,84.3,37.9,84.3,84.6s-37.8,84.6-84.3,84.6C3677.3,179.9,3639.5,142,3639.5,95.3z
			"/>
		<path class="st1" d="M3674.2,37.4h60.5c31.8,0,39.3,28.5,39.3,38.9c0,13.2-10.7,28.6-22.6,32.7l32.6,43.1h-26.9l-27-39.8h-31.5
			V152h-24.5V37.4 M3732.9,90.4c6.6,0,18.6-2.1,18.6-14c0-10.7-2.6-15.8-16.7-15.8h-36v29.8H3732.9z"/>
		<path class="st1" d="M3628.9,95.3c0,52.5,42.6,95.3,94.9,95.3s94.9-42.7,94.9-95.3S3776.1,0,3723.8,0S3628.9,42.7,3628.9,95.3
			 M3639.5,95.3c0-46.7,37.8-84.6,84.3-84.6c46.5,0,84.3,37.9,84.3,84.6s-37.8,84.6-84.3,84.6C3677.3,179.9,3639.5,142,3639.5,95.3z
			"/>
		<path class="st19" d="M3674.2,37.4h60.5c31.8,0,39.3,28.5,39.3,38.9c0,13.2-10.7,28.6-22.6,32.7l32.6,43.1h-26.9l-27-39.8h-31.5
			V152h-24.5V37.4 M3732.9,90.4c6.6,0,18.6-2.1,18.6-14c0-10.7-2.6-15.8-16.7-15.8h-36v29.8H3732.9z"/>
		<path class="st19" d="M3628.9,95.3c0,52.5,42.6,95.3,94.9,95.3s94.9-42.7,94.9-95.3S3776.1,0,3723.8,0S3628.9,42.7,3628.9,95.3
			 M3639.5,95.3c0-46.7,37.8-84.6,84.3-84.6c46.5,0,84.3,37.9,84.3,84.6s-37.8,84.6-84.3,84.6C3677.3,179.9,3639.5,142,3639.5,95.3z
			"/>
	</g>
</g>
</svg>
