<?xml version="1.0" encoding="utf-8"?>
<!-- Generator: Adobe Illustrator 26.0.3, SVG Export Plug-In . SVG Version: 6.00 Build 0)  -->
<svg version="1.1" id="Layer_1" xmlns="http://www.w3.org/2000/svg" xmlns:xlink="http://www.w3.org/1999/xlink" x="0px" y="0px"
	 viewBox="0 0 3839 1080.5" style="enable-background:new 0 0 3839 1080.5;" xml:space="preserve">
<style type="text/css">
	.st0{fill-rule:evenodd;clip-rule:evenodd;fill:#034EA2;}
	.st1{fill:#FFFFFF;}
	.st2{fill:#231F20;}
	.st3{fill:#034EA2;}
	.st4{fill:#FFCB04;}
	.st5{fill:url(#SVGID_1_);}
	.st6{fill-rule:evenodd;clip-rule:evenodd;fill:url(#rect4789_00000118366825204885067140000010349632377547785650_);}
	.st7{fill:url(#SVGID_00000146497436933365303850000012644386502828439473_);}
	.st8{fill:url(#SVGID_00000013892597770601299660000017901234922695623043_);}
	.st9{fill:url(#SVGID_00000000181685143370836650000005375184400034038170_);}
	.st10{fill:url(#SVGID_00000175300135891913089690000007817844207289457307_);}
	.st11{fill:url(#SVGID_00000035509173568538089460000018108474772866027684_);}
	.st12{fill:url(#SVGID_00000162347049456977299980000008355823393000085902_);}
	.st13{fill:url(#SVGID_00000183222459573253261170000017285892481629643675_);}
	.st14{fill:url(#SVGID_00000085943502403276826380000011803521490853856421_);}
	.st15{fill:url(#SVGID_00000021818024185101694950000010225826402906178197_);}
	.st16{fill:url(#SVGID_00000026848230159950441130000005129395163464285104_);}
	.st17{fill:url(#SVGID_00000022519580645349535600000014984366552645070505_);}
	.st18{fill:url(#SVGID_00000034056522048057231420000011555224070930571162_);}
	.st19{fill:url(#SVGID_00000054263705372102404410000014151095044954303411_);}
	.st20{display:none;}
	.st21{display:inline;fill:#FF0642;}
	.st22{display:inline;fill:#FFFFFF;stroke:#000000;stroke-width:0.5156;stroke-miterlimit:10;}
	.st23{display:inline;fill:#FFCB04;}
	.st24{fill-rule:evenodd;clip-rule:evenodd;fill:url(#rect4789_00000003084315377436682700000014428068531575204022_);}
	.st25{fill:url(#SVGID_00000182516816815956191890000012596141286094310822_);}
	.st26{fill:url(#SVGID_00000018206434727018165570000016962133994941650845_);}
	.st27{fill:url(#SVGID_00000109727454013474201000000006967262758266790304_);}
	.st28{fill:url(#SVGID_00000130623753794929074540000008242010388538301592_);}
	.st29{fill:url(#SVGID_00000126291374637995972160000003562787903555554965_);}
	.st30{fill:url(#SVGID_00000153678981250482665810000010350344277207560585_);}
	.st31{fill:url(#SVGID_00000112594517659568561630000014259401608555769749_);}
	.st32{fill:url(#SVGID_00000125581443535111274410000008492912282997291421_);}
	.st33{fill:url(#SVGID_00000088852242588940606160000004857659630084898728_);}
	.st34{fill:url(#SVGID_00000113349161548437314400000017312502172893938595_);}
	.st35{fill:url(#SVGID_00000103265688133423644460000011375004825909994390_);}
	.st36{fill:url(#SVGID_00000003076215274512904480000015926636955785331361_);}
	.st37{fill:url(#SVGID_00000013191262205844286890000001385568269652600975_);}
	.st38{fill:url(#SVGID_00000121994387333327452310000002029588089806899589_);}
	.st39{fill-rule:evenodd;clip-rule:evenodd;fill:url(#rect4789_00000116193012941141459560000003443576503298734231_);}
	.st40{fill:url(#SVGID_00000054986297109616306240000000631510318584988035_);}
	.st41{fill:url(#SVGID_00000015315683083838842830000003413966155674794410_);}
	.st42{fill:url(#SVGID_00000048468841061894744820000014805734992979760799_);}
	.st43{fill:url(#SVGID_00000127761722941784358030000003756321746301095820_);}
	.st44{fill:url(#SVGID_00000070815264628473491900000017606472692967209653_);}
	.st45{fill:url(#SVGID_00000074415268345597256230000010397627028501664143_);}
	.st46{fill:url(#SVGID_00000146484806353055713710000009085222726272061059_);}
	.st47{fill:url(#SVGID_00000156546177786291090530000014923263254533938065_);}
	.st48{fill:url(#SVGID_00000094590931161913870870000004711546906300602299_);}
	.st49{fill:url(#SVGID_00000010276058812125851680000007988943164372186810_);}
	.st50{fill:url(#SVGID_00000093866836039085291720000008614170676051514252_);}
	.st51{fill:url(#SVGID_00000023239427664438469530000005606934122103895225_);}
	.st52{fill:url(#SVGID_00000125561445144065515280000006014760962813300626_);}
	.st53{fill-rule:evenodd;clip-rule:evenodd;fill:url(#rect4789_00000042735690688122444970000004222313948517617550_);}
	.st54{fill:url(#SVGID_00000168799785592015687910000007673750991763783594_);}
	.st55{fill:url(#SVGID_00000048482426188562765420000000128470761889382582_);}
	.st56{fill:url(#SVGID_00000132766400974273638100000010490263910361735047_);}
	.st57{fill:url(#SVGID_00000149369763626261313060000005673064276575485887_);}
	.st58{fill:url(#SVGID_00000030451319125195703010000005670890537824093862_);}
	.st59{fill:url(#SVGID_00000023984681689884225430000013466973774301551017_);}
	.st60{fill:url(#SVGID_00000116921035567761206460000003291763660535146935_);}
	.st61{fill:url(#SVGID_00000160892402873884636350000012470392448330999440_);}
	.st62{fill:url(#SVGID_00000016060227595179300490000017992856549884317857_);}
	.st63{fill:url(#SVGID_00000006666821618100851320000007414867623573677751_);}
	.st64{fill:url(#SVGID_00000090253544554651861890000008776580476927022753_);}
	.st65{fill:url(#SVGID_00000123433788714974479230000017190127163609118129_);}
	.st66{fill:url(#SVGID_00000067237826087698240390000014720346453340811142_);}
	.st67{fill:url(#SVGID_00000015326614880185207850000010068416552824483976_);}
	.st68{fill-rule:evenodd;clip-rule:evenodd;fill:url(#rect4789_00000003082555486172215630000005609594318730037129_);}
	.st69{fill:url(#SVGID_00000017477997558405127880000009344073182886861199_);}
	.st70{fill:url(#SVGID_00000092427577374532462290000016480594937121476521_);}
	.st71{fill:url(#SVGID_00000064328192462825918520000011681197104445274766_);}
	.st72{fill:url(#SVGID_00000166647050449515530710000002405969800493249439_);}
	.st73{fill:url(#SVGID_00000140711561097689487570000010790213904921516973_);}
	.st74{fill:url(#SVGID_00000021105608165071064500000002387194535364087989_);}
	.st75{fill:url(#SVGID_00000146501082871057745990000007490073314953832868_);}
	.st76{fill:url(#SVGID_00000160158825455156959270000016158045219798538115_);}
	.st77{fill:url(#SVGID_00000078026309446402260340000000109702899980701597_);}
	.st78{fill:url(#SVGID_00000172411463774480263660000003495224076195810435_);}
	.st79{fill:url(#SVGID_00000028316573291026952020000007632656614010379425_);}
	.st80{fill:url(#SVGID_00000130625386887429211370000005450437219748585369_);}
	.st81{fill:url(#SVGID_00000152983377443280732180000006673797671206049934_);}
	.st82{fill:url(#SVGID_00000000930818559235813600000016462864728741204411_);}
	.st83{fill-rule:evenodd;clip-rule:evenodd;fill:url(#rect4789_00000052081436076097706420000000281826530747782293_);}
	.st84{fill:url(#SVGID_00000005229126212440307370000003444858153979191426_);}
	.st85{fill:url(#SVGID_00000155139544976317001720000011474052117979680391_);}
	.st86{fill:url(#SVGID_00000174564243580398996070000017404348999815105946_);}
	.st87{fill:url(#SVGID_00000056395766805920006330000005423600988284456863_);}
	.st88{fill:url(#SVGID_00000054236451616885968740000004550360458706091428_);}
	.st89{fill:url(#SVGID_00000041273687074040927550000014928497602842811282_);}
	.st90{fill:url(#SVGID_00000160168822903564171060000002566642813591377537_);}
	.st91{fill:url(#SVGID_00000140719005220562537720000011064531115291936432_);}
	.st92{fill:url(#SVGID_00000094609659181807389400000012056184888385313969_);}
	.st93{fill:url(#SVGID_00000087371572907213227930000006234783266219066815_);}
	.st94{fill:url(#SVGID_00000153679052955081990510000006052294654654980237_);}
	.st95{fill:url(#SVGID_00000168076817424908743600000001548353685846136200_);}
	.st96{fill:url(#SVGID_00000065770315068780417090000001614562072205833877_);}
	.st97{fill:url(#SVGID_00000131331675602635698050000010195264858350131378_);}
	.st98{fill:url(#SVGID_00000150815481046289262800000001550803386626753185_);}
	.st99{fill:url(#SVGID_00000112596452568309499670000003704235695131761580_);}
	.st100{fill:url(#SVGID_00000119825959899465625420000007187764729631574921_);}
	.st101{fill-rule:evenodd;clip-rule:evenodd;fill:url(#rect4789_00000126320552096113584270000000617304685036635271_);}
	.st102{fill:url(#SVGID_00000031920241634902270110000011986393775445255070_);}
	.st103{fill:url(#SVGID_00000075844788593363496810000013480080298834405520_);}
	.st104{fill:url(#SVGID_00000061430535400823530370000017768579056758588563_);}
	.st105{fill:url(#SVGID_00000044155406713908621560000003910836366587279787_);}
	.st106{fill:url(#SVGID_00000070101964772119275870000012785597493570478743_);}
	.st107{fill:url(#SVGID_00000110451867111710382340000013041453584532245900_);}
	.st108{fill:url(#SVGID_00000036949563104956201490000016368937958410564994_);}
	.st109{fill:url(#SVGID_00000180336560479280248520000009774809920750162329_);}
	.st110{fill:url(#SVGID_00000134963197888030133650000000378206731436210594_);}
	.st111{fill:url(#SVGID_00000121252978810502840100000012853848697453117613_);}
	.st112{fill:url(#SVGID_00000029763707135322474960000007787662568247107511_);}
	.st113{fill:url(#SVGID_00000148636486574985065520000006337859065527123864_);}
	.st114{fill:url(#SVGID_00000008843012888494666250000005089353918381321905_);}
	.st115{fill:url(#SVGID_00000182515050107280034800000008412139280573964681_);}
	.st116{fill-rule:evenodd;clip-rule:evenodd;fill:url(#rect4789_00000067207561022956979740000015993916345071614102_);}
	.st117{fill:url(#SVGID_00000158015496633904765880000006067970015744514188_);}
	.st118{fill:url(#SVGID_00000065753355871881473270000006003057384425917057_);}
	.st119{fill:url(#SVGID_00000103967677838792071420000014152426659962042553_);}
	.st120{fill:url(#SVGID_00000058551293898686403000000006247569734474665366_);}
	.st121{fill:url(#SVGID_00000014619047809187791240000009631613529335453579_);}
	.st122{fill:url(#SVGID_00000177469460862709455470000009681287780663629741_);}
	.st123{fill:url(#SVGID_00000023994730715984705660000010868337736988927122_);}
	.st124{fill:url(#SVGID_00000103974673338548417220000012084137627180890764_);}
	.st125{fill:url(#SVGID_00000115497004414493908510000002749925422201958016_);}
	.st126{fill:url(#SVGID_00000134248405530759683210000011179441373613845146_);}
	.st127{fill:url(#SVGID_00000098200687269833774770000006026711521555954846_);}
	.st128{fill:url(#SVGID_00000038391665609705323630000016715489645340039091_);}
	.st129{fill:url(#SVGID_00000039114853525018123430000009512907427586127746_);}
</style>
<g>
	<g>
		<path id="rect4789_00000148649137491664071840000007139144627687924352_" class="st0" d="M447.5,768.3h2943.8
			c86.2,0,156.1,69.9,156.1,156.1l0,0c0,86.2-69.9,156.1-156.1,156.1H447.5c-86.2,0-156.1-69.9-156.1-156.1l0,0
			C291.4,838.1,361.3,768.3,447.5,768.3z"/>
		<g>
			<g>
				<path class="st1" d="M697.3,853.3h61c35.9,0,59,18.5,59,49.9v0.4c0,33.5-25.8,51.2-61.2,51.2h-19.5v40.6h-39.4V853.3H697.3z
					 M755.3,924c14.1,0,22.5-7.3,22.5-18.5v-0.4c0-12.1-8.5-18.7-22.7-18.7h-18.5V924H755.3z"/>
				<path class="st1" d="M894.9,853.3h39.4v107.6h68.9v34.5H895V853.3H894.9z"/>
				<path class="st1" d="M1130,852.3h38l60.6,143.2h-42.3l-10.3-25.4h-54.8l-10.1,25.4h-41.5L1130,852.3z M1164.6,939.4l-15.9-40.4
					l-16.1,40.4H1164.6z"/>
				<path class="st1" d="M1322,942.3l-54-89h44.9l29.2,51.8l29.4-51.8h44.1l-54,88.4v53.8H1322V942.3z"/>
				<path class="st1" d="M1595.1,974.3l21.9-26.2c14.1,11.1,29.6,17.1,46.1,17.1c10.5,0,16.3-3.6,16.3-9.7v-0.4
					c0-5.9-4.7-9.1-24-13.6c-30.2-6.9-53.6-15.5-53.6-44.7v-0.4c0-26.4,20.9-45.5,55-45.5c24.2,0,43.1,6.5,58.4,18.9l-19.7,27.8
					c-13-9.1-27.2-14.1-39.8-14.1c-9.5,0-14.3,4-14.3,9.1v0.4c0,6.5,4.9,9.3,24.6,13.9c32.7,7.1,53,17.7,53,44.3v0.4
					c0,29-23,46.3-57.4,46.3C1636.6,997.9,1612.6,990,1595.1,974.3z"/>
				<path class="st1" d="M1834.2,942.3l-54-89h44.9l29.2,51.8l29.4-51.8h44.1l-54,88.4v53.8h-39.6V942.3z"/>
				<path class="st1" d="M1983.1,974.3l21.9-26.2c14.1,11.1,29.6,17.1,46.1,17.1c10.5,0,16.3-3.6,16.3-9.7v-0.4
					c0-5.9-4.7-9.1-24-13.6c-30.2-6.9-53.6-15.5-53.6-44.7v-0.4c0-26.4,20.9-45.5,55-45.5c24.2,0,43.1,6.5,58.4,18.9l-19.7,27.8
					c-13-9.1-27.2-14.1-39.8-14.1c-9.5,0-14.3,4-14.3,9.1v0.4c0,6.5,4.9,9.3,24.6,13.9c32.7,7.1,53,17.7,53,44.3v0.4
					c0,29-23,46.3-57.4,46.3C2024.6,997.9,2000.6,990,1983.1,974.3z"/>
				<path class="st1" d="M2217.9,887.8h-42.7v-34.5h124.7v34.5h-42.6v107.6h-39.4V887.8z"/>
				<path class="st1" d="M2378.1,853.3h114.4v33.5h-75.4v21.5h68.2v31h-68.2v22.5h76.3v33.5H2378V853.3H2378.1z"/>
				<path class="st1" d="M2574.5,853.3h41.7l33.9,55l33.9-55h41.7v142.2h-39.2v-81.7l-36.4,55.6h-0.8l-36.1-55.2v81.2h-38.6V853.3
					H2574.5z"/>
			</g>
			<path class="st1" d="M3121.3,868.8c0.9-1.7,2.5-3.1,5.2-4.2c1.6-0.7,3.9-1.3,7.1-2c3.1-0.7,5.9-1.2,8.1-1.4v-7.8h-39.4h-39.4
				h-39.4h-39.4h-39.4H2905v7.8c2.2,0.3,5,0.7,8.1,1.4c3.1,0.7,5.5,1.4,7.1,2c2.5,1.1,4.2,2.4,5.2,4.2c0.9,1.7,1.3,3.7,1.3,6v100.8
				c0,2.5-0.4,4.7-1.3,6.3c-0.9,1.6-2.6,2.9-5.1,3.9c-1.3,0.5-3.7,0.9-7.3,1.2s-6.2,0.5-8,0.6v7.8h39.4h39.4h39.4h39.4h39.4h39.4
				v-7.8c-1.8-0.1-4.4-0.3-8-0.6s-6-0.7-7.3-1.2c-2.4-1-4.1-2.3-5.1-3.9c-0.9-1.6-1.3-3.7-1.3-6.3V874.7
				C3120,872.5,3120.5,870.6,3121.3,868.8z M3005.6,975.7c0,2.5-0.4,4.7-1.3,6.3c-0.9,1.6-2.6,2.9-5.1,3.9c-1.3,0.5-3.7,0.9-7.3,1.2
				h-0.1c-5.3,0.4-10.5,0.4-15.7,0h-0.1c-3.5-0.3-6-0.7-7.3-1.2c-2.4-1-4.1-2.3-5.1-3.9c-0.9-1.6-1.3-3.7-1.3-6.3V874.8
				c0-2.2,0.4-4.2,1.3-6c0.9-1.7,2.5-3.1,5.2-4.2c1.6-0.7,3.9-1.3,7.1-2h0.1c5.3-1.2,10.7-1.2,16.1,0h0.1c3.1,0.7,5.5,1.4,7.1,2
				c2.5,1.1,4.2,2.4,5.2,4.2c0.9,1.7,1.3,3.7,1.3,6v100.8H3005.6z M3084.5,975.7c0,2.5-0.4,4.7-1.3,6.3c-0.9,1.6-2.6,2.9-5.1,3.9
				c-1.3,0.5-3.7,0.9-7.3,1.2h-0.1c-5.3,0.4-10.5,0.4-15.7,0h-0.1c-3.5-0.3-6-0.7-7.3-1.2c-2.4-1-4.1-2.3-5.1-3.9
				c-0.9-1.6-1.3-3.7-1.3-6.3V874.8c0-2.2,0.4-4.2,1.3-6c0.9-1.7,2.5-3.1,5.2-4.2c1.6-0.7,3.9-1.3,7.1-2h0.1
				c5.3-1.2,10.7-1.2,16.1,0h0.1c3.1,0.7,5.5,1.4,7.1,2c2.5,1.1,4.2,2.4,5.2,4.2c0.9,1.7,1.3,3.7,1.3,6v100.8H3084.5z"/>
		</g>
	</g>
	<g>
		<g>
			<path class="st2" d="M1507.3,167.6v238.9c0,0,160.9-67,160.9-161.6C1668.2,128,1507.3,167.6,1507.3,167.6"/>
			<path class="st2" d="M2751.9,155.5c-70.2,0-164.4,41.3-164.4,206.3s83.9,206.3,164.4,206.3c80.4,0,166.1-51.6,166.1-206.3
				C2918,207.1,2822.1,155.5,2751.9,155.5"/>
			<polyline class="st2" points="887.6,363.5 1000.5,363.5 942.4,200.2 887.6,363.5 			"/>
			<path class="st2" d="M570.9,642.1H392.8C180.5,642.1,62.4,475.3,62.4,355c0-184.5,159.8-286.9,304.7-286.9
				c140.4,0,225.1,107.7,225.1,107.7l-96.7,101.9c0,0-5.1,2.6-9.4,2.6c-4.3,0-10.3-4.3-10.3-4.3l-12-10.3c0,0-3.4-0.8-3.4-4.3
				c0-3.4,9.4-12,9.4-28.3c0-16.3-3.4-84.2-107.8-84.2s-150.7,98-150.7,178.8c0,80.8,49.7,228.7,212.3,228.7
				c94.6,0,114.7-53.3,114.7-53.3h32.5V642.1z M1267.6,643.8h-214.9v-41.3c0,0,13.7,1.7,20.6-10.3c6.9-12,6.9-21.5,1.7-33.5
				c-5.1-12-41.1-107.5-41.1-107.5H858.5c0,0-36,96.2-39.4,104.9c-3.4,8.6-3.4,22.4,0,30.9c5.7,14.3,25.7,16.4,25.7,16.4v40.4h-172
				v-40.4c0,0,15.6-5.4,27.3-17.2c12.9-12.9,17.1-26.6,17.1-26.6L891.8,83.4h146.4l178,467.5c5.1,12.9,13.8,25,22.3,35.2
				c8.5,10.3,29.1,17.2,29.1,17.2V643.8z M1675,423.7c-73.1,33.8-169.4,60.2-169.4,60.2v89.4c0,0,0.8,6,9.4,16.4
				c8.6,10.3,18,12.9,18,12.9v41.3h-198.6v-40.4c0,0,12-2.6,20.6-11.2c8.6-8.6,10.3-18.9,10.3-18.9v-404c0,0,0.8-17.2-6-24.1
				c-6.9-6.9-23.1-16.3-23.1-16.3V83.4c0,0,172.9,0,273.9,0c101,0,202,36.1,202,153S1738.4,394.5,1675,423.7z M2175,149.7
				c-104.4,0-150.7,98-150.7,178.8c0,80.8,49.7,228.7,212.3,228.7c94.7,0,114.7-53.3,114.7-53.3h32.5V643h-178.1
				c-212.3,0-330.4-166.7-330.4-287.1c0-184.5,159.8-286.9,304.7-286.9c140.4,0,225.1,107.7,225.1,107.7l-96.7,101.9
				c0,0-5.1,2.5-9.4,2.5c-4.3,0-10.3-4.3-10.3-4.3l-12-10.3c0,0-3.4-0.9-3.4-4.3c0-3.4,9.4-12,9.4-28.3
				C2282.8,217.6,2279.4,149.7,2175,149.7z M2751.9,659.9c-184.9,0-317.8-135.6-317.8-300.6s136.3-292.9,317.8-292.9
				c181.4,0,317.8,127.9,317.8,292.9S2936.8,659.9,2751.9,659.9z M3779.9,644.1h-204.6v-37.2c0,0,18-2.6,24-11.2
				c6-8.6,8.6-13.8,6.9-27.5c-1.7-13.8-50.5-326.6-50.5-326.6l-89.1,276.7h-107.8l-88.2-259.5l-44.5,305.9c0,0-1.7,18.4,5.2,28.4
				c9.4,13.8,26.5,13.8,26.5,13.8v37h-177.2v-39.6c0,0,14.1-2.2,24.4-14.1c10.3-12,12-27.5,12-27.5l64.6-403.6c0,0,3.8-15-0.4-21.9
				c-4.5-7.2-28.7-13.3-28.7-13.3v-40h203.8l73.6,228.3l78.7-228.7h213.2v33.5c0,0-14.3,6-20.6,13.8c-7.7,9.4-7.7,16.3-6,30.1
				c1.7,13.8,56.5,386.8,58.2,400.5c1.7,13.8,3.4,21.5,6.8,31c3.4,9.4,19.7,17.1,19.7,17.1V644.1z"/>
			<path class="st1" d="M1507.3,167.6v238.9c0,0,160.9-67,160.9-161.6C1668.2,128,1507.3,167.6,1507.3,167.6"/>
			<path class="st1" d="M2751.9,155.5c-70.2,0-164.4,41.3-164.4,206.3s83.9,206.3,164.4,206.3c80.4,0,166.1-51.6,166.1-206.3
				C2918,207.1,2822.1,155.5,2751.9,155.5"/>
			<polyline class="st1" points="887.6,363.5 1000.5,363.5 942.4,200.2 887.6,363.5 			"/>
			<path class="st1" d="M2422.1,532.7l37.8,41.5c1.2,1.3,120.7,130.4,294.6,130.4c135.3,0,243.1-93.4,244.2-94.3l36-31.7l0,109.1
				h265.6V560.1H3532v127.2h285.3V559c-5-1.9-10.2-4.7-15-9.1c-13.7-12.3-18.1-27.9-20.2-38.6l-45.8-293c-5.5-35.4,9.4-53.5,28-65.2
				l0-113.3h-289l-38.1,130.5l-51.2-130.5h-280.2v216.2l-40.5-70.6c-58.8-102.4-171.1-163.6-300.4-163.6
				c-121.2,0-233.7,48.2-300.9,128.8l-18.7,22.5l-16.1-24.5c-54.1-82.4-148.5-126-272.9-126c-115.7,0-206.9,47.2-278.7,144.2
				l-20.1,27.1l-16.3-29.5c-42.7-77.3-77.4-124.7-244.6-124.7h-307v115.2c6.4,3.4,13.6,8.4,19.6,15.3c8.1,9.3,12,22.2,12,39.5
				c0,8.9-0.8,329.3-0.8,329.3l-0.1,35.1l-31.4-15.8c-18.4-9.3-32.8-34.4-36.8-41.9l-1.1-2.4l-183-474.3H863.2L663.4,568.9l-42-7.7
				v-99.8H510.8c-11.5,20-39.1,52.7-95.8,52.7c-73.3,0-154.5-57.1-159.3-182.4c-2.6-68.7,36.3-113.6,70.4-131.3
				c25.4-13.2,50.8-13.3,67.9-0.2c18.4,14,23,30.4,23.6,41.7c0.8,13.6-3.8,26.1-9.3,35.8l85.9,59.2l157.5-167.1
				C627.1,131.7,542.3,24.2,370.5,24.2c-205.4,0-348.8,138.8-348.8,337.6c0,182.5,166.8,325.5,379.7,325.5h1180.1V581.2
				c-20.8-7.1-38.6-20.5-38.6-41.4c0-13.6,5.3-31,30.7-36.6c109.4-24.6,204.6-90.9,226.9-112.2l27.3-26.1l8.8,36.8
				c42.2,176.3,190.9,285.9,388.1,285.9h197.5V532.7z"/>
			<path class="st3" d="M678.7,172.8L497.2,365.3l-119.8-82.5c0,0,39.4-37.8,3.4-65.3c-28.1-21.4-106.7,24.1-103.4,113.5
				c4,103.1,67.5,161.5,137.6,161.5c65,0,82.1-52.7,82.1-52.7h145.9v121.5L848.2,18h234.5L1271,506.2c0,0,13.7,25.8,27.4,32.7
				c0,0,0.8-320.3,0.8-329.3c0-9-1.2-18.9-6.8-25.3c-9.2-10.7-24.8-15-24.8-15V18c0,0,217.3,0,328.7,0
				c170.4,0,214.2,46.5,263.6,135.8c68.3-92.3,162.2-153,296.2-153c137.9,0,235.4,51,291.1,135.8C2525,43.3,2650.2,0,2764.8,0
				c140.8,0,258.4,68.4,319.3,174.5V18h316.7l33.4,85.1L3459,18h327l0,147.8c-23.1,11.2-32.4,22.6-28.3,49l45.7,292.2
				c1.9,9.5,5.2,19.4,13.4,26.7c9.5,8.5,22.3,6.9,22.3,6.9v168.5h-328.7V581.8H3322v127.6h-309v-82.9c0,0-112.9,99.7-258.5,99.7
				c-186.2,0-310.7-137.5-310.7-137.5v120.3c0,0-13.7,0-219.2,0c-195,0-362.4-107.2-409.2-302.5c-22.2,21.2-119.9,91.3-237.1,117.7
				c-9.1,2-13.7,5.5-13.7,15.5c0,18.1,38.6,24.5,38.6,24.5v144.8c0,0-1013.5,0-1201.8,0C178.8,709.1,0,556.1,0,361.9
				S139.4,2.5,370.5,2.5C591.4,2.5,678.7,172.8,678.7,172.8"/>
			<path class="st4" d="M891.8,83.3h146.4l178.1,467.6c5.1,12.9,13.7,24.9,22.3,35.2c8.5,10.3,29.1,17.2,29.1,17.2v40.4h-214.9
				v-41.3c0,0,13.7,1.8,20.6-10.3c6.9-12,6.9-21.5,1.7-33.5c-5.1-12-41.1-107.5-41.1-107.5H858.5c0,0-36,96.3-39.4,104.9
				c-3.4,8.6-3.4,22.4,0,30.9c5.7,14.3,25.7,16.4,25.7,16.4v40.4h-172v-40.4c0,0,15.6-5.4,27.3-17.2c12.9-12.9,17.2-26.7,17.2-26.7
				L891.8,83.3 M887.6,363.5h113l-58.2-163.3L887.6,363.5z"/>
			<path class="st4" d="M1336.1,83.3c0,0,172.9,0,273.9,0c101,0,202,36.1,202,153s-73.6,158.1-137,187.3
				c-73.1,33.8-169.5,60.2-169.5,60.2v89.3c0,0,0.8,6,9.4,16.4c8.5,10.3,18,12.9,18,12.9v41.3h-198.6v-40.4c0,0,12-2.6,20.6-11.2
				c8.6-8.6,10.3-18.9,10.3-18.9v-404c0,0,0.8-17.2-6-24.1c-6.9-6.9-23.1-16.3-23.1-16.3V83.3 M1507.3,167.6v238.9
				c0,0,160.9-67,160.9-161.6C1668.2,128,1507.3,167.6,1507.3,167.6z"/>
			<path class="st4" d="M2751.9,659.9c-184.9,0-317.8-135.6-317.8-300.6s136.3-293,317.8-293c181.5,0,317.8,127.9,317.8,293
				S2936.8,659.9,2751.9,659.9 M2587.6,361.9c0,165,83.9,206.3,164.4,206.3c80.4,0,166.1-51.6,166.1-206.3
				c0-154.7-95.9-206.3-166.1-206.3C2681.7,155.6,2587.6,196.8,2587.6,361.9z"/>
			<path class="st4" d="M3152.5,83.7h203.7l73.6,228.3l78.7-228.7h213.1v33.5c0,0-14.2,6-20.6,13.8c-7.7,9.4-7.7,16.4-6,30.1
				c1.7,13.8,56.5,386.8,58.2,400.5c1.7,13.8,3.5,21.5,6.9,31c3.4,9.4,19.7,17.2,19.7,17.2V644h-204.6v-37.2c0,0,18-2.6,23.9-11.2
				c6-8.6,8.6-13.8,6.8-27.5c-1.7-13.8-50.5-326.6-50.5-326.6l-89,276.8h-107.8l-88.2-259.6l-44.5,306c0,0-1.7,18.3,5.1,28.3
				c9.4,13.8,26.5,13.8,26.5,13.8v36.9h-177.2v-39.5c0,0,14.1-2.2,24.4-14.2c10.3-12,12-27.5,12-27.5l64.6-403.5
				c0,0,3.9-15.1-0.4-21.9c-4.5-7.2-28.7-13.4-28.7-13.4V83.7"/>
			<path class="st4" d="M592.2,175.7l-95.5,100.6c-5,5.3-13.3,5.8-18.9,1.2l-16.2-13.3c-0.7-0.6-1.1-1.6-1.1-2.9
				c0-3.4,9.4-12,9.4-28.3c0-16.4-3.4-84.2-107.8-84.2c-104.4,0-150.7,98-150.7,178.8c0,80.8,49.7,228.7,212.3,228.7
				c94.6,0,114.7-53.3,114.7-53.3h32.5V642H392.8C180.5,642,62.4,475.3,62.4,355c0-184.5,159.8-286.9,304.7-286.9
				C507.5,68.1,592.2,175.7,592.2,175.7"/>
			<path class="st4" d="M2405.3,176.7l-95.5,100.6c-5,5.3-13.3,5.8-18.9,1.2l-16.2-13.3c-0.7-0.6-1.1-1.6-1.1-2.9
				c0-3.4,9.4-12,9.4-28.3c0-16.4-3.4-84.2-107.8-84.2c-104.4,0-150.7,98-150.7,178.8c0,80.8,49.7,228.7,212.3,228.7
				c94.6,0,114.7-53.3,114.7-53.3h32.5V643h-178.1c-212.3,0-330.4-166.7-330.4-287.1c0-184.5,159.8-286.9,304.7-286.9
				C2320.5,69.1,2405.3,176.7,2405.3,176.7"/>
		</g>
	</g>
</g>
</svg>
