<?xml version="1.0" encoding="utf-8"?>
<!-- Generator: Adobe Illustrator 26.0.3, SVG Export Plug-In . SVG Version: 6.00 Build 0)  -->
<svg version="1.1" id="Layer_1" xmlns="http://www.w3.org/2000/svg" xmlns:xlink="http://www.w3.org/1999/xlink" x="0px" y="0px"
	 viewBox="0 0 3839 718" style="enable-background:new 0 0 3839 718;" xml:space="preserve">
<style type="text/css">
	.st0{fill:#231F20;}
	.st1{fill:#FFFFFF;}
	.st2{fill:url(#SVGID_1_);}
	.st3{fill:url(#SVGID_00000091016773567675426090000014526310076870463647_);}
	.st4{fill:url(#SVGID_00000136383261139263764680000014681408504134071957_);}
	.st5{fill:url(#SVGID_00000106137395922666070660000004490746432405977229_);}
	.st6{fill:url(#SVGID_00000088828040835823285960000000421612209601862812_);}
	.st7{fill:url(#SVGID_00000126299982956587817320000007910862317117706397_);}
	.st8{fill:url(#SVGID_00000024694441415373051220000013225494594382728366_);}
	.st9{fill:url(#SVGID_00000017498954655742906960000008955270589546035592_);}
	.st10{fill:url(#SVGID_00000026145257365224501290000007477349443605340565_);}
	.st11{fill:url(#SVGID_00000137824182526391576250000012825758213148593573_);}
	.st12{fill:url(#SVGID_00000142169316080769320680000004026611991095855761_);}
	.st13{fill:url(#SVGID_00000088819473158617648270000003210758571548668551_);}
	.st14{fill:url(#SVGID_00000000927578642348001030000000777162272118199198_);}
	.st15{display:none;}
	.st16{display:inline;fill:#FF0642;}
	.st17{display:inline;fill:#FFFFFF;stroke:#000000;stroke-width:0.4864;stroke-miterlimit:10;}
	.st18{display:inline;fill:#FFCB04;}
	.st19{fill:#034EA2;}
	.st20{fill:url(#SVGID_00000042737742743039296370000014839116657948777090_);}
	.st21{fill:url(#SVGID_00000072242554191489457650000012017340662402862252_);}
	.st22{fill:url(#SVGID_00000165230587684870496130000007674310472397143464_);}
	.st23{fill:url(#SVGID_00000163752629321319853470000000976036471830845081_);}
	.st24{fill:url(#SVGID_00000004543586446632904960000004484289508828235402_);}
	.st25{fill:url(#SVGID_00000036934363647690727820000004384647789325796262_);}
	.st26{fill:url(#SVGID_00000181797664637153248920000010875854768028614319_);}
	.st27{fill:url(#SVGID_00000142147680236199368270000003863702378338365341_);}
	.st28{fill:url(#SVGID_00000023252122708884087280000011780030189273430177_);}
	.st29{fill:url(#SVGID_00000106136134737818774170000011191172342110207395_);}
	.st30{fill:url(#SVGID_00000035517007743873962940000016386234171143022759_);}
	.st31{fill:url(#SVGID_00000127008193329401974640000000650329983875939464_);}
	.st32{fill:url(#SVGID_00000081610485664826489540000006305023960695035542_);}
	.st33{display:inline;fill:#FFFFFF;stroke:#000000;stroke-width:0.4884;stroke-miterlimit:10;}
	.st34{fill:url(#SVGID_00000078045264871341632640000002484387456449116347_);}
	.st35{fill:url(#SVGID_00000089541074354696289480000016664198114905859482_);}
	.st36{fill:url(#SVGID_00000001624176531555248680000017239148767714891686_);}
	.st37{fill:url(#SVGID_00000150817687085331585290000014752152099490410899_);}
	.st38{fill:url(#SVGID_00000178885363481196653310000004520236535295543730_);}
	.st39{fill:url(#SVGID_00000064341263680997336940000007470738759071687585_);}
	.st40{fill:url(#SVGID_00000072967378897596077750000017731363147358546311_);}
	.st41{fill:url(#SVGID_00000173146974341848220340000006832358169796707203_);}
	.st42{fill:url(#SVGID_00000049904897188329322780000009459122722199556520_);}
	.st43{fill:url(#SVGID_00000083081306766422426430000009368514793089547936_);}
	.st44{fill:url(#SVGID_00000078753520442536564390000014534130381290441616_);}
	.st45{fill:url(#SVGID_00000035507581958684404080000011131145237477770146_);}
	.st46{fill:url(#SVGID_00000107571264884274602930000005794737404426134699_);}
	.st47{display:inline;fill:#FFFFFF;stroke:#000000;stroke-width:0.5156;stroke-miterlimit:10;}
	.st48{fill:url(#SVGID_00000166651324004457195970000012853111957143552640_);}
	.st49{fill:url(#SVGID_00000150103388184458329130000017063991308361675417_);}
	.st50{fill:url(#SVGID_00000065797396497011007980000012077088129250976955_);}
	.st51{fill:url(#SVGID_00000050648543478499516860000018429909540540376197_);}
	.st52{fill:url(#SVGID_00000012447169350589165900000013133237026073263518_);}
	.st53{fill:url(#SVGID_00000046297296276618533970000015885194052123724680_);}
	.st54{fill:url(#SVGID_00000086689764099389820060000014174101620923523766_);}
	.st55{fill:url(#SVGID_00000061458343543688221060000015830944649518007180_);}
	.st56{fill:url(#SVGID_00000101796589177706038630000014127805676648957616_);}
	.st57{fill:url(#SVGID_00000106108161891094003990000012067757659930976139_);}
	.st58{fill:url(#SVGID_00000040555006453182465410000008188270525483945094_);}
	.st59{fill:url(#SVGID_00000011745846215854231580000010456516109270027424_);}
	.st60{fill:url(#SVGID_00000149383151334826566900000003024209392883406488_);}
	.st61{fill:#FFCB04;}
	.st62{fill:url(#SVGID_00000096027274566729575380000015699858151485633153_);}
	.st63{fill:url(#SVGID_00000031888141465539298290000002183605746787384231_);}
	.st64{fill:url(#SVGID_00000028317857984909438250000017612822426789474204_);}
	.st65{fill:url(#SVGID_00000059296453418632428600000017980064060854182310_);}
	.st66{fill:url(#SVGID_00000118398293000152960980000005271555207591728044_);}
	.st67{fill:url(#SVGID_00000054983870126326748440000009778158969036304796_);}
	.st68{fill:url(#SVGID_00000106121844981492942380000001920861879890403211_);}
	.st69{fill:url(#SVGID_00000085967016209239441970000016528706032549726609_);}
	.st70{fill:url(#SVGID_00000120548669764196363160000010566448243098286522_);}
	.st71{fill:url(#SVGID_00000005238199832338095720000006439476342362483634_);}
	.st72{fill:url(#SVGID_00000107565925610805190620000007971387915013907879_);}
	.st73{fill:url(#SVGID_00000075132621412205845270000012870450743992355468_);}
	.st74{fill:url(#SVGID_00000072964414004813269530000016787278961672285831_);}
	.st75{fill:url(#SVGID_00000083085872657948604030000002448119258170669444_);}
	.st76{fill:url(#SVGID_00000155131294237911181710000005002835748873966990_);}
	.st77{fill:url(#SVGID_00000024718418789568507700000012554403755237320357_);}
	.st78{fill:url(#SVGID_00000144315110915342958230000010826940124474745005_);}
	.st79{fill:url(#SVGID_00000172427538946552875200000013272752419255174306_);}
	.st80{fill:url(#SVGID_00000053508124920234554340000009694266771823541137_);}
	.st81{fill:url(#SVGID_00000159443732170254930320000001825161752874099898_);}
	.st82{fill:url(#SVGID_00000074428913608875086510000009532119027077292980_);}
	.st83{fill:url(#SVGID_00000109009658173351984540000004445541132581696920_);}
	.st84{fill:url(#SVGID_00000080886064073712144460000001424691596274279045_);}
	.st85{fill:url(#SVGID_00000163767773986835753410000000810837812681792400_);}
	.st86{fill:url(#SVGID_00000071546115223582144080000015677522444311736450_);}
	.st87{fill:url(#SVGID_00000037678856674431640330000014097571743871638409_);}
	.st88{fill:url(#SVGID_00000093871764317822073270000011973855996334919069_);}
	.st89{fill:url(#SVGID_00000103249065459697200960000011622491700944471195_);}
	.st90{fill:url(#SVGID_00000073698047492930706770000004933531681203814298_);}
	.st91{fill:url(#SVGID_00000176761152811459565810000015029010293803361712_);}
	.st92{fill:url(#SVGID_00000060734112353200252430000000694070213854415782_);}
	.st93{fill:url(#SVGID_00000158724699060266120740000010653339095800292231_);}
	.st94{fill:url(#SVGID_00000116928043193678164520000015432437298440452761_);}
	.st95{fill:url(#SVGID_00000026842489435301411850000003706306224623575722_);}
	.st96{fill:url(#SVGID_00000119813667417641771590000003085460129124649388_);}
	.st97{fill:url(#SVGID_00000064342917706729979110000013005791164938467208_);}
	.st98{fill:url(#SVGID_00000036232132547259835980000001048307804959763360_);}
	.st99{fill:url(#SVGID_00000060742732270430801560000001396586586140501165_);}
	.st100{fill:url(#SVGID_00000178189279517604648310000009814114689680874686_);}
	.st101{fill:url(#SVGID_00000034796133471615559310000014896744179243291022_);}
	.st102{fill:url(#SVGID_00000173864404726559038590000008090862280734487228_);}
	.st103{fill:url(#SVGID_00000094608886194039516390000014262033725463262910_);}
	.st104{fill:url(#SVGID_00000048501012139793536550000007926524379359803781_);}
	.st105{fill:url(#SVGID_00000168797538800686473730000012135407641145263548_);}
	.st106{fill:url(#SVGID_00000070808269871905421150000013263658429641916042_);}
	.st107{fill:url(#SVGID_00000163056039142164332890000008455951079635125130_);}
	.st108{fill:url(#SVGID_00000037672923025224692430000007551488950979242924_);}
	.st109{fill:url(#SVGID_00000074410306413971483580000010298762869188665014_);}
	.st110{fill:url(#SVGID_00000173840845066714434080000015391597130944228242_);}
	.st111{fill:url(#SVGID_00000080890557413181584880000011519302479064803260_);}
	.st112{fill:url(#SVGID_00000150091719402704973680000001548307442542275717_);}
	.st113{fill:url(#SVGID_00000153676390918090590540000013276548831465568396_);}
	.st114{fill:#007CFF;}
	.st115{fill:url(#SVGID_00000042698703366830549750000014270296584349873314_);}
	.st116{fill:url(#SVGID_00000109725670099136372290000000089638632280557497_);}
	.st117{fill:url(#SVGID_00000163031176433294787170000013472288632215226510_);}
	.st118{fill:url(#SVGID_00000063597915864353091400000004533321797396221883_);}
	.st119{fill:url(#SVGID_00000131366889477126509010000004597904554661037706_);}
	.st120{fill:url(#SVGID_00000183212979268082456860000009123493076518263482_);}
	.st121{fill:url(#SVGID_00000158737035669067649120000016019513179073670530_);}
	.st122{fill:url(#SVGID_00000039826343014566247350000014336928050703024792_);}
	.st123{fill:url(#SVGID_00000098209451733796218900000011776368180284689039_);}
	.st124{fill:url(#SVGID_00000007430799539359910250000006820886983031982209_);}
	.st125{fill:url(#SVGID_00000016766310884604610060000014633383411846709918_);}
	.st126{fill:url(#SVGID_00000016049829985622061090000013014221877170645129_);}
	.st127{fill:url(#SVGID_00000026141025306130198170000000096851073333834687_);}
	.st128{fill:url(#SVGID_00000031898780524477352650000010166437535498259634_);}
	.st129{fill:url(#SVGID_00000098216722709137406150000015878402018904825749_);}
	.st130{fill:url(#SVGID_00000074439431929034565220000007186154586928719241_);}
	.st131{fill:url(#SVGID_00000031894228820876624520000008244578144049577608_);}
	.st132{fill:url(#SVGID_00000118373203680153629930000003640133250859123613_);}
	.st133{fill:url(#SVGID_00000127753520457247591120000017246786668395868582_);}
	.st134{fill:url(#SVGID_00000121981817862559231180000015161258723768745385_);}
	.st135{fill:url(#SVGID_00000109015757097032414240000001367559994007659181_);}
	.st136{fill:url(#SVGID_00000073693109659295265240000005085441138469096089_);}
	.st137{fill:url(#SVGID_00000074434061058238852530000015387673722753957047_);}
	.st138{fill:url(#SVGID_00000099648316198157854870000003011125751470772640_);}
	.st139{fill:url(#SVGID_00000134221056346000160740000003807087516426237585_);}
	.st140{fill:url(#SVGID_00000116224036392623667580000004854886131002710968_);}
	.st141{display:inline;fill:#FFFFFF;stroke:#000000;stroke-width:0.6411;stroke-miterlimit:10;}
</style>
<g>
	<path class="st0" d="M1426.4,176.6v222.9c0,0,150.1-62.5,150.1-150.8C1576.6,139.7,1426.4,176.6,1426.4,176.6"/>
	<path class="st0" d="M2587.6,165.3c-65.5,0-153.3,38.5-153.3,192.4s78.2,192.4,153.3,192.4c75,0,154.9-48.1,154.9-192.4
		C2742.5,213.4,2653,165.3,2587.6,165.3"/>
	<polyline class="st0" points="848.3,359.4 953.7,359.4 899.4,207 848.3,359.4 	"/>
	<path class="st0" d="M552.8,619.2H386.7c-198.1,0-308.3-155.5-308.3-267.9c0-172.1,149.1-267.6,284.3-267.6
		c131,0,210,100.5,210,100.5l-90.2,95c0,0-4.8,2.4-8.8,2.4c-4,0-9.6-4-9.6-4L453,268c0,0-3.2-0.8-3.2-4c0-3.2,8.8-11.2,8.8-26.4
		c0-15.2-3.2-78.6-100.6-78.6s-140.5,91.4-140.5,166.8c0,75.4,46.3,213.3,198.1,213.3c88.3,0,107-49.7,107-49.7h30.4V619.2z
		 M1202.8,620.8h-200.4v-38.5c0,0,12.8,1.6,19.2-9.6c6.4-11.2,6.4-20.1,1.6-31.3c-4.8-11.2-38.3-100.2-38.3-100.2H821.1
		c0,0-33.6,89.8-36.7,97.8c-3.2,8-3.2,20.9,0,28.9c5.3,13.3,24,15.3,24,15.3v37.7H647.8v-37.7c0,0,14.5-5,25.5-16.1
		c12-12,16-24.8,16-24.8L852.2,98h136.6l166.1,436.2c4.8,12.1,12.8,23.3,20.8,32.9c7.9,9.6,27.1,16.1,27.1,16.1V620.8z
		 M1582.9,415.6c-68.2,31.5-158.1,56.1-158.1,56.1v83.4c0,0,0.8,5.6,8.8,15.3c8,9.6,16.8,12,16.8,12v38.5h-185.3v-37.7
		c0,0,11.2-2.4,19.2-10.4c8-8,9.6-17.7,9.6-17.7V178.2c0,0,0.8-16-5.6-22.5c-6.4-6.4-21.5-15.2-21.5-15.2V98c0,0,161.3,0,255.5,0
		c94.2,0,188.5,33.7,188.5,142.7S1642,388.3,1582.9,415.6z M2049.3,159.9c-97.4,0-140.5,91.4-140.5,166.8
		c0,75.4,46.3,213.3,198.1,213.3c88.3,0,107-49.7,107-49.7h30.4v129.9h-166.1c-198.1,0-308.3-155.5-308.3-267.8
		c0-172.1,149.1-267.6,284.3-267.6c131,0,210,100.5,210,100.5l-90.2,95c0,0-4.8,2.4-8.8,2.4c-4,0-9.6-4-9.6-4l-11.2-9.6
		c0,0-3.2-0.8-3.2-4c0-3.2,8.8-11.2,8.8-26.4C2150,223.2,2146.8,159.9,2049.3,159.9z M2587.6,635.8
		c-172.5,0-296.5-126.5-296.5-280.4s127.2-273.3,296.5-273.3c169.3,0,296.5,119.3,296.5,273.3S2760,635.8,2587.6,635.8z
		 M3546.6,621.1h-190.8v-34.7c0,0,16.8-2.4,22.4-10.4c5.6-8,8-12.8,6.4-25.7c-1.6-12.8-47.1-304.7-47.1-304.7l-83.1,258.2h-100.6
		l-82.3-242.1L3029.9,547c0,0-1.6,17.2,4.8,26.5c8.8,12.8,24.7,12.8,24.7,12.8v34.5h-165.3v-36.9c0,0,13.2-2,22.8-13.2
		c9.6-11.2,11.2-25.7,11.2-25.7l60.3-376.5c0,0,3.6-14-0.4-20.5c-4.2-6.8-26.8-12.4-26.8-12.4V98.4h190.1l68.6,213L3293.5,98h198.9
		v31.3c0,0-13.3,5.6-19.2,12.8c-7.2,8.8-7.2,15.2-5.6,28c1.6,12.8,52.7,360.8,54.3,373.7c1.6,12.8,3.2,20,6.4,28.9
		c3.2,8.8,18.4,16,18.4,16V621.1z"/>
	<path class="st1" d="M1426.4,176.6v222.9c0,0,150.1-62.5,150.1-150.8C1576.6,139.7,1426.4,176.6,1426.4,176.6"/>
	<path class="st1" d="M2587.6,165.3c-65.5,0-153.3,38.5-153.3,192.4s78.2,192.4,153.3,192.4c75,0,154.9-48.1,154.9-192.4
		C2742.5,213.4,2653,165.3,2587.6,165.3"/>
	<polyline class="st1" points="848.3,359.4 953.7,359.4 899.4,207 848.3,359.4 	"/>
	<path class="st1" d="M2589.9,718c-125.3,0-221-62.3-269.6-102.3V702h-224.7c-189.1,0-340-103.9-392.9-267.4
		c-39.4,28.7-110.3,69.8-189.8,90.7c2.2,0.6,4.3,1.1,6.4,1.5l16.8,2.9l0.1,172.4H394.7C173.4,702,0,550.8,0,357.8
		C0,151.9,153.9,2.4,365.9,2.4c215.9,0,301.9,162.9,305.5,169.8l6.5,12.7l-191,202.7L340.4,286.6l17.9-17.2c5.4-6,8.4-11.1,9.9-15.3
		c3.3-9.4-5.7-18.5-15.2-15.2c-3,1-6.3,2.4-9.9,4.3c-21.3,11-45.5,39.9-43.8,85c3.5,90.2,58.5,131.2,108.2,131.2
		c43.8,0,56.2-31.8,57.5-35.4l4.8-13.5l14.4-0.2h156.4v22.6L797.5,16.8h246.7l167.3,433.7c0.2-89,0.5-229,0.5-234.7
		c0-2.2-0.1-4-0.3-5.4c-0.4-3.4-2.2-6.4-5.1-8.3c-3.4-2.2-7.5-3.9-9.5-4.5l-14.5-4.3l-0.2-15.2V16.8h326.9
		c145.2,0,200.4,34.6,248.5,111.2c71.7-84.5,163.7-127.3,273.8-127.3c119.7,0,213.6,39.6,273.3,114.8C2376.3,42.8,2484.3,0,2599.5,0
		c111.5,0,211.2,43.9,277.6,119.9V16.8h329.5l14.5,37l10.8-37h340.5l0,170.9l-11.4,5.5c-16.3,7.9-17.3,11.1-15.2,24.4l42.6,272.6
		c1.2,6.1,3.1,10.4,6,13c1.3,1.2,4.1,1.4,5.1,1.3l21.7-1.5l0.7,21.7V702h-347.1V583.3h-135.2v119h-328.8v-57.1
		C2767.6,674.3,2686.6,718,2589.9,718z M2279.8,517.2l35.2,38.7c1.1,1.2,112.6,121.6,274.9,121.6c126.2,0,226.8-87.1,227.8-88
		l33.6-29.5l0,101.8h247.8v-119h216.1v118.7h266.2V541.7c-4.7-1.8-9.5-4.4-14-8.5c-12.8-11.5-16.9-26.1-18.8-36.1l-42.8-273.4
		c-5.2-33,8.7-49.9,26.1-60.8l0-105.7h-269.6L3226.8,179L3179,57.3h-261.4V259l-37.8-65.9C2825,97.5,2720.2,40.5,2599.5,40.5
		c-113.1,0-218,44.9-280.7,120.2l-17.5,21l-15-22.8c-50.5-76.9-138.6-117.6-254.6-117.6c-108,0-193,44-260,134.6l-18.7,25.3
		l-15.2-27.6c-39.9-72.1-72.2-116.3-228.2-116.3h-286.4v107.5c6,3.2,12.7,7.8,18.2,14.2c7.5,8.7,11.2,20.7,11.2,36.8
		c0,8.3-0.7,307.2-0.7,307.2l-0.1,32.8l-29.3-14.8c-17.2-8.7-30.6-32.1-34.3-39.1l-1-2.2L1016.4,57.3H825.5L639.2,551l-39.2-7.1
		v-93.1H496.8c-10.8,18.6-36.5,49.2-89.4,49.2c-68.4,0-144.1-53.3-148.6-170.2c-2.4-64.1,33.8-106,65.6-122.5
		c23.7-12.3,47.4-12.4,63.3-0.2c17.1,13.1,21.4,28.4,22,38.9c0.7,12.7-3.6,24.3-8.7,33.4l80.2,55.2l146.9-155.9
		c-23-35.5-102.1-135.8-262.3-135.8c-191.6,0-325.4,129.5-325.4,315c0,170.3,155.6,303.7,354.2,303.7h1100.9v-99.1
		c-19.4-6.6-36-19.1-36-38.6c0-12.7,5-28.9,28.6-34.2c102.1-23,190.8-84.8,211.6-104.7l25.5-24.4l8.2,34.3
		c39.4,164.5,178.1,266.7,362.1,266.7h184.2V517.2z"/>
	<path class="st19" d="M653.4,181.4L484.1,361l-111.8-77c0,0,36.7-35.3,3.2-60.9c-26.2-20-99.6,22.5-96.4,105.9
		c3.7,96.2,62.9,150.7,128.4,150.7c60.7,0,76.6-49.2,76.6-49.2h136.1v113.3L811.5,37h218.8L1206,492.5c0,0,12.8,24.1,25.6,30.5
		c0,0,0.7-298.8,0.7-307.2c0-8.4-1.1-17.6-6.3-23.6c-8.6-9.9-23.1-14-23.1-14V37c0,0,202.8,0,306.7,0c159,0,199.8,43.3,245.9,126.7
		C1819.1,77.7,1906.7,21,2031.7,21c128.6,0,219.6,47.6,271.6,126.7c72.6-87.1,189.4-127.5,296.2-127.5
		c131.4,0,241.1,63.9,297.8,162.8V37h295.5l31.1,79.4l23.2-79.4h305.1l0,137.9c-21.6,10.4-30.2,21.1-26.4,45.7l42.6,272.6
		c1.8,8.9,4.9,18.1,12.5,24.9c8.9,7.9,20.8,6.4,20.8,6.4v157.2h-306.7V563.1h-175.6v119h-288.3v-77.3c0,0-105.3,93-241.2,93
		c-173.7,0-289.9-128.3-289.9-128.3v112.3c0,0-12.8,0-204.5,0c-181.9,0-338.1-100-381.8-282.2c-20.7,19.8-111.8,85.2-221.2,109.8
		c-8.5,1.9-12.8,5.2-12.8,14.4c0,16.9,36,22.9,36,22.9v135.1c0,0-945.5,0-1121.2,0C187,681.8,20.2,539,20.2,357.8
		S150.3,22.6,365.9,22.6C572,22.6,653.4,181.4,653.4,181.4"/>
	<path class="st61" d="M852.2,98h136.6l166.1,436.2c4.8,12,12.8,23.2,20.8,32.9c7.9,9.6,27.2,16,27.2,16v37.7h-200.5v-38.5
		c0,0,12.8,1.6,19.2-9.6c6.4-11.2,6.4-20,1.6-31.3c-4.8-11.2-38.3-100.2-38.3-100.2H821.1c0,0-33.6,89.8-36.7,97.8
		c-3.2,8-3.2,20.9,0,28.9c5.3,13.3,24,15.3,24,15.3v37.7H647.8v-37.7c0,0,14.6-5,25.5-16c12-12.1,16-24.9,16-24.9L852.2,98
		 M848.3,359.4h105.4L899.4,207L848.3,359.4z"/>
	<path class="st61" d="M1266.7,98c0,0,161.3,0,255.5,0c94.3,0,188.5,33.7,188.5,142.8s-68.7,147.5-127.8,174.8
		c-68.2,31.5-158.1,56.2-158.1,56.2V555c0,0,0.8,5.6,8.8,15.3c7.9,9.6,16.8,12,16.8,12v38.5h-185.3v-37.7c0,0,11.2-2.4,19.2-10.4
		c8-8,9.6-17.7,9.6-17.7V178.2c0,0,0.8-16-5.6-22.5c-6.4-6.4-21.5-15.2-21.5-15.2V98 M1426.4,176.6v222.9
		c0,0,150.1-62.5,150.1-150.8C1576.6,139.7,1426.4,176.6,1426.4,176.6z"/>
	<path class="st61" d="M2587.6,635.8c-172.5,0-296.5-126.5-296.5-280.4s127.2-273.3,296.5-273.3c169.3,0,296.5,119.4,296.5,273.3
		S2760.1,635.8,2587.6,635.8 M2434.2,357.8c0,153.9,78.2,192.4,153.3,192.4c75,0,154.9-48.1,154.9-192.4
		c0-144.4-89.4-192.4-154.9-192.4C2522.1,165.4,2434.2,203.9,2434.2,357.8z"/>
	<path class="st61" d="M2961.3,98.3h190.1l68.7,213L3293.5,98h198.8v31.3c0,0-13.2,5.6-19.2,12.8c-7.2,8.8-7.2,15.3-5.6,28.1
		c1.6,12.8,52.7,360.8,54.3,373.6c1.6,12.9,3.2,20.1,6.4,28.9c3.1,8.8,18.3,16,18.3,16V621h-190.8v-34.7c0,0,16.7-2.4,22.3-10.5
		c5.6-8,8-12.8,6.4-25.7c-1.6-12.8-47.1-304.7-47.1-304.7l-83,258.2h-100.6l-82.3-242.2L3030,547c0,0-1.6,17.1,4.8,26.4
		c8.8,12.9,24.7,12.9,24.7,12.9v34.4h-165.3v-36.9c0,0,13.1-2.1,22.7-13.2c9.6-11.2,11.2-25.7,11.2-25.7l60.3-376.4
		c0,0,3.6-14.1-0.4-20.5c-4.2-6.8-26.7-12.5-26.7-12.5V98.3"/>
	<g>
		<path class="st1" d="M3728.7,3.3c-60.8,0-110.2,49.7-110.2,110.7c0,61.1,49.4,110.8,110.2,110.8c60.8,0,110.3-49.7,110.3-110.8
			C3839,53,3789.5,3.3,3728.7,3.3"/>
		<path class="st0" d="M3679.4,56.4h60.3c31.7,0,39.2,28.3,39.2,38.7c0,13.2-10.7,28.5-22.5,32.5l32.4,42.9H3762l-26.9-39.6h-31.3
			v39.6h-24.4V56.4 M3737.8,109.1c6.6,0,18.5-2.1,18.5-13.9c0-10.6-2.6-15.7-16.6-15.7h-35.9v29.6H3737.8z"/>
		<path class="st0" d="M3634.2,114c0,52.3,42.4,94.9,94.5,94.9c52.1,0,94.5-42.6,94.5-94.9s-42.4-94.9-94.5-94.9
			C3676.7,19.1,3634.2,61.7,3634.2,114 M3644.8,114c0-46.5,37.7-84.3,84-84.3c46.3,0,83.9,37.8,83.9,84.3s-37.6,84.3-83.9,84.3
			C3682.5,198.3,3644.8,160.5,3644.8,114z"/>
		<path class="st1" d="M3679.4,56.4h60.3c31.7,0,39.2,28.3,39.2,38.7c0,13.2-10.7,28.5-22.5,32.5l32.4,42.9H3762l-26.9-39.6h-31.3
			v39.6h-24.4V56.4 M3737.8,109.1c6.6,0,18.5-2.1,18.5-13.9c0-10.6-2.6-15.7-16.6-15.7h-35.9v29.6H3737.8z"/>
		<path class="st1" d="M3634.2,114c0,52.3,42.4,94.9,94.5,94.9c52.1,0,94.5-42.6,94.5-94.9s-42.4-94.9-94.5-94.9
			C3676.7,19.1,3634.2,61.7,3634.2,114 M3644.8,114c0-46.5,37.7-84.3,84-84.3c46.3,0,83.9,37.8,83.9,84.3s-37.6,84.3-83.9,84.3
			C3682.5,198.3,3644.8,160.5,3644.8,114z"/>
		<path class="st19" d="M3679.4,56.4h60.3c31.7,0,39.2,28.3,39.2,38.7c0,13.2-10.7,28.5-22.5,32.5l32.4,42.9H3762l-26.9-39.6h-31.3
			v39.6h-24.4V56.4 M3737.8,109.1c6.6,0,18.5-2.1,18.5-13.9c0-10.6-2.6-15.7-16.6-15.7h-35.9v29.6H3737.8z"/>
		<path class="st19" d="M3634.2,114c0,52.3,42.4,94.9,94.5,94.9c52.1,0,94.5-42.6,94.5-94.9s-42.4-94.9-94.5-94.9
			C3676.7,19.1,3634.2,61.7,3634.2,114 M3644.8,114c0-46.5,37.7-84.3,84-84.3c46.3,0,83.9,37.8,83.9,84.3s-37.6,84.3-83.9,84.3
			C3682.5,198.3,3644.8,160.5,3644.8,114z"/>
	</g>
	<path class="st61" d="M572.7,184.2L483.6,278c-4.7,4.9-12.4,5.4-17.6,1.1l-15.2-12.4c-0.7-0.5-1.1-1.5-1.1-2.7
		c0-3.2,8.8-11.2,8.8-26.4c0-15.3-3.1-78.6-100.6-78.6c-97.4,0-140.5,91.4-140.5,166.8c0,75.4,46.3,213.3,198.1,213.3
		c88.3,0,107-49.7,107-49.7h30.4v129.9H386.7c-198,0-308.3-155.5-308.3-267.8c0-172.1,149.1-267.6,284.3-267.6
		C493.7,83.7,572.7,184.2,572.7,184.2"/>
	<path class="st61" d="M2264.2,185.1L2175,279c-4.7,4.9-12.4,5.4-17.6,1.1l-15.2-12.4c-0.7-0.5-1.1-1.5-1.1-2.7
		c0-3.2,8.8-11.2,8.8-26.4c0-15.3-3.1-78.6-100.6-78.6c-97.4,0-140.5,91.4-140.5,166.8c0,75.4,46.3,213.3,198.1,213.3
		c88.3,0,107-49.7,107-49.7h30.4v129.9h-166.1c-198,0-308.3-155.5-308.3-267.8c0-172.1,149.1-267.6,284.3-267.6
		C2185.1,84.7,2264.2,185.1,2264.2,185.1"/>
</g>
</svg>
