<?xml version="1.0" encoding="utf-8"?>
<!-- Generator: Adobe Illustrator 26.0.3, SVG Export Plug-In . SVG Version: 6.00 Build 0)  -->
<svg version="1.1" id="Layer_1" xmlns="http://www.w3.org/2000/svg" xmlns:xlink="http://www.w3.org/1999/xlink" x="0px" y="0px"
	 viewBox="0 0 3839 1576.5" style="enable-background:new 0 0 3839 1576.5;" xml:space="preserve">
<style type="text/css">
	.st0{fill-rule:evenodd;clip-rule:evenodd;fill:#034EA2;}
	.st1{fill:#FFFFFF;}
	.st2{fill:#231F20;}
	.st3{fill:#034EA2;}
	.st4{fill:#FFCB04;}
	.st5{fill:url(#SVGID_1_);}
	.st6{fill-rule:evenodd;clip-rule:evenodd;fill:url(#rect4789_00000059293490614468865320000003311511196484124043_);}
	.st7{fill:url(#SVGID_00000057136334439590272860000012632834712714835111_);}
	.st8{fill:url(#SVGID_00000046320551233300939010000004696897695799551921_);}
	.st9{fill:url(#SVGID_00000142141572130994930000000012751767957587694234_);}
	.st10{fill:url(#SVGID_00000044880672827803065290000006216363424340691379_);}
	.st11{fill:url(#SVGID_00000152976002426472461600000009701561054364115103_);}
	.st12{fill:url(#SVGID_00000173857780888029924680000008924628026029458091_);}
	.st13{fill:url(#SVGID_00000108994725219092352390000013092699236664055445_);}
	.st14{fill:url(#SVGID_00000111182818964145585910000004655197844983198365_);}
	.st15{fill:url(#SVGID_00000157300002080812319760000018325376276214146740_);}
	.st16{fill:url(#SVGID_00000162329158040048893940000001711525728546352801_);}
	.st17{fill:url(#SVGID_00000150793275466395665900000007441316174887333297_);}
	.st18{fill:url(#SVGID_00000166663134231701797040000014852624321672390077_);}
	.st19{fill:url(#SVGID_00000116927560059223425420000017629812895984957340_);}
	.st20{display:none;}
	.st21{display:inline;fill:#FF0642;}
	.st22{display:inline;fill:#FFFFFF;stroke:#000000;stroke-width:0.5156;stroke-miterlimit:10;}
	.st23{display:inline;fill:#FFCB04;}
	.st24{fill-rule:evenodd;clip-rule:evenodd;fill:url(#rect4789_00000128463667384301768550000016924019321446124675_);}
	.st25{fill:url(#SVGID_00000049179649426212207460000016048838298737307835_);}
	.st26{fill:url(#SVGID_00000070800994890107986630000001700276642965157791_);}
	.st27{fill:url(#SVGID_00000034772409171537521900000008577175452389201026_);}
	.st28{fill:url(#SVGID_00000107547892934820967400000002524034742617674401_);}
	.st29{fill:url(#SVGID_00000176723004654068655410000009501687560839123591_);}
	.st30{fill:url(#SVGID_00000167362155694136018970000011360713110710926250_);}
	.st31{fill:url(#SVGID_00000083073798143091537010000009886398360021645463_);}
	.st32{fill:url(#SVGID_00000056401474569288353340000001589048241986424717_);}
	.st33{fill:url(#SVGID_00000023988520899839210470000008703564122330249098_);}
	.st34{fill:url(#SVGID_00000119090151925261527960000001509081488455002760_);}
	.st35{fill:url(#SVGID_00000103980892315149734540000006204534912281811894_);}
	.st36{fill:url(#SVGID_00000001633576710051865060000016133366240054735291_);}
	.st37{fill:url(#SVGID_00000013909966904930020300000012384028470554564520_);}
	.st38{fill:url(#SVGID_00000045598265167331153800000015516508105630293136_);}
	.st39{fill-rule:evenodd;clip-rule:evenodd;fill:url(#rect4789_00000006673988435279961800000001709704490614323343_);}
	.st40{fill:url(#SVGID_00000109744345295294652650000005766221058688182963_);}
	.st41{fill:url(#SVGID_00000122717186426952750520000001824432273391160966_);}
	.st42{fill:url(#SVGID_00000041288557297786036620000012018767290977390993_);}
	.st43{fill:url(#SVGID_00000072271745850051510220000013130416589934726042_);}
	.st44{fill:url(#SVGID_00000106120153049241094330000017278232151887403182_);}
	.st45{fill:url(#SVGID_00000164474646909856642570000002451887682026082453_);}
	.st46{fill:url(#SVGID_00000090269382039157605400000001581800405846890674_);}
	.st47{fill:url(#SVGID_00000000211005198539961110000018397556335982517141_);}
	.st48{fill:url(#SVGID_00000155106976049013461530000006145170877309767858_);}
	.st49{fill:url(#SVGID_00000138548052857490237300000006659999595843356607_);}
	.st50{fill:url(#SVGID_00000036227061203116842860000000290959221406788028_);}
	.st51{fill:url(#SVGID_00000090981926896316954660000014731366902392505533_);}
	.st52{fill:url(#SVGID_00000151523569818494927760000011880197668200973452_);}
	.st53{fill-rule:evenodd;clip-rule:evenodd;fill:url(#rect4789_00000127753820537419592840000008370741149231187595_);}
	.st54{fill:url(#SVGID_00000137094614326933158360000005135946360784150692_);}
	.st55{fill:url(#SVGID_00000078733155170308487410000017120526427793648035_);}
	.st56{fill:url(#SVGID_00000142875922028966174880000012812554461054263949_);}
	.st57{fill:url(#SVGID_00000160157878590952136730000008259207093591970956_);}
	.st58{fill:url(#SVGID_00000091016562226493188480000015302287365504361122_);}
	.st59{fill:url(#SVGID_00000067196410854626576870000009450130561744848002_);}
	.st60{fill:url(#SVGID_00000145022196546530171020000000122979609898184578_);}
	.st61{fill:url(#SVGID_00000173151083440509598280000000898399537278030749_);}
	.st62{fill:url(#SVGID_00000026154539091648712540000015717897974539675576_);}
	.st63{fill:url(#SVGID_00000103257657071250615590000017371895032033384892_);}
	.st64{fill:url(#SVGID_00000010997757932066199880000000862978006801922709_);}
	.st65{fill:url(#SVGID_00000048503106797660886050000015840940211581788095_);}
	.st66{fill:url(#SVGID_00000101103369766183495170000002830454710595799987_);}
	.st67{fill:url(#SVGID_00000006688690185605525140000006619322968639610038_);}
	.st68{fill-rule:evenodd;clip-rule:evenodd;fill:url(#rect4789_00000091016006312511269290000002085076175695674535_);}
	.st69{fill:url(#SVGID_00000021818238511484119130000017944530761841502644_);}
	.st70{fill:url(#SVGID_00000076596164620734326640000010190897344236691599_);}
	.st71{fill:url(#SVGID_00000170246926138860353660000017604527972319772344_);}
	.st72{fill:url(#SVGID_00000168799904546411414440000011363363891104179374_);}
	.st73{fill:url(#SVGID_00000016798425372833707830000002776429310789220532_);}
	.st74{fill:url(#SVGID_00000044880198625048762970000017212857294319239829_);}
	.st75{fill:url(#SVGID_00000162333645364781369810000010255240992819478456_);}
	.st76{fill:url(#SVGID_00000137837546618421690880000015628490438537390995_);}
	.st77{fill:url(#SVGID_00000064327409188199595780000005924348703836083602_);}
	.st78{fill:url(#SVGID_00000085937846526171088250000014515188450156434849_);}
	.st79{fill:url(#SVGID_00000018951465830254988820000002432801483469171844_);}
	.st80{fill:url(#SVGID_00000139972002952341569710000018132561619593955719_);}
	.st81{fill:url(#SVGID_00000085935167934122872610000004060705035051844758_);}
	.st82{fill:url(#SVGID_00000001652525560933098170000002576992856261203620_);}
	.st83{fill-rule:evenodd;clip-rule:evenodd;fill:url(#rect4789_00000058589575713397295200000001017185209271388605_);}
	.st84{fill:url(#SVGID_00000093149898322621785210000005958986902474538398_);}
	.st85{fill:url(#SVGID_00000050660159630274434060000017254692211334904456_);}
	.st86{fill:url(#SVGID_00000178180189054405187810000005533586197132405660_);}
	.st87{fill:url(#SVGID_00000171701620972059713850000004840090710870648723_);}
	.st88{fill:url(#SVGID_00000132767413746915729280000006948260745081228699_);}
	.st89{fill:url(#SVGID_00000121262487444529586680000009334706743566860179_);}
	.st90{fill:url(#SVGID_00000111888606382831392380000010147366314566591155_);}
	.st91{fill:url(#SVGID_00000103265266173907124170000004213799773332723338_);}
	.st92{fill:url(#SVGID_00000064337750632323784380000001375172865659772846_);}
	.st93{fill:url(#SVGID_00000057122776609326234280000013667045092995319720_);}
	.st94{fill:url(#SVGID_00000120542777825076203530000003447658959591184057_);}
	.st95{fill:url(#SVGID_00000005247853738590261310000011889589961896320404_);}
	.st96{fill:url(#SVGID_00000129886841867695654290000007776301120193224586_);}
	.st97{fill:url(#SVGID_00000065762231569167851200000013791948096107165119_);}
	.st98{fill:url(#SVGID_00000016763850188262894580000011701429606136025768_);}
	.st99{fill:url(#SVGID_00000111179323660475474300000005328648198994453142_);}
	.st100{fill:url(#SVGID_00000071538641206439555440000001299687000100860570_);}
	.st101{fill-rule:evenodd;clip-rule:evenodd;fill:url(#rect4789_00000114056956565952983570000001731335667867102386_);}
	.st102{fill:url(#SVGID_00000008850329094930696650000004034558865845395881_);}
	.st103{fill:url(#SVGID_00000080909175875802286070000006532142288533723831_);}
	.st104{fill:url(#SVGID_00000021822020286810601950000017309262811909848245_);}
	.st105{fill:url(#SVGID_00000072274713030736362820000018362209647354657408_);}
	.st106{fill:url(#SVGID_00000075150919347741138690000000362078527786721200_);}
	.st107{fill:url(#SVGID_00000099661436250302012690000014744652989022874255_);}
	.st108{fill:url(#SVGID_00000076599579996509409880000017348100477393428873_);}
	.st109{fill:url(#SVGID_00000077322544084836400160000006833403166503874695_);}
	.st110{fill:url(#SVGID_00000114052357092144740690000000122441889729376411_);}
	.st111{fill:url(#SVGID_00000111149652864864452370000011453567461901055934_);}
	.st112{fill:url(#SVGID_00000096764188600969829870000015740677770875187633_);}
	.st113{fill:url(#SVGID_00000049923445895391279160000002092158129259898809_);}
	.st114{fill:url(#SVGID_00000074399924420805308350000015121940039504978871_);}
	.st115{fill:url(#SVGID_00000094620518266546556390000016041688639829951932_);}
	.st116{fill-rule:evenodd;clip-rule:evenodd;fill:url(#rect4789_00000116948667414396113800000011206603847916265094_);}
	.st117{fill:url(#SVGID_00000098938795021296744100000011348049849553530799_);}
	.st118{fill:url(#SVGID_00000064330803116851151840000005005403694590156965_);}
	.st119{fill:url(#SVGID_00000163780937067039505970000018354303062785434272_);}
	.st120{fill:url(#SVGID_00000134929744414524979500000011011434896341519272_);}
	.st121{fill:url(#SVGID_00000172415115475520872750000005441642954892283015_);}
	.st122{fill:url(#SVGID_00000093138250564779717970000010322188319169829278_);}
	.st123{fill:url(#SVGID_00000029016822262727158450000006255577008738207147_);}
	.st124{fill:url(#SVGID_00000177449404784121740470000017949466223657735326_);}
	.st125{fill:url(#SVGID_00000005963828599989498300000005773977252356471435_);}
	.st126{fill:url(#SVGID_00000057141605103512773100000015285312338252916360_);}
	.st127{fill:url(#SVGID_00000031893162461188693790000012678410152780388508_);}
	.st128{fill:url(#SVGID_00000167387838192796614330000009527713763972936890_);}
	.st129{fill:url(#SVGID_00000164501033116641533030000003519471938535640493_);}
</style>
<g>
	<linearGradient id="SVGID_1_" gradientUnits="userSpaceOnUse" x1="1919.5" y1="0" x2="1919.5" y2="1576.4971">
		<stop  offset="0" style="stop-color:#007CFF"/>
		<stop  offset="0.7926" style="stop-color:#034EA2"/>
		<stop  offset="1" style="stop-color:#034EA2"/>
	</linearGradient>
	<path class="st5" d="M2569.1,172.1c9.7-19.2,28.6-34.8,56.7-46.6c17.8-7.4,44.1-15,78.9-22.7c34.4-7.7,64.2-13,89.2-16V0h-874.4
		h-874.4v86.7c25,3,54.8,8.3,89.2,16c34.8,7.8,61.1,15.4,78.9,22.7c28.1,11.8,47,27.4,56.7,46.6c9.6,19.3,14.5,41.5,14.5,66.6
		l0.8,1117.7c0,28.2-5,51.3-15,69.5c-10,18.2-28.7,32.8-56.1,43.9c-14.9,6-41.7,10.4-80.6,13.3c-38.9,3-68.3,5.3-88.4,6.8v86.7
		h874.4h874.4v-86.7c-20-1.5-49.4-3.7-88.4-6.8c-38.9-2.9-65.7-7.4-80.6-13.3c-27.4-11.1-46.1-25.7-56.1-43.9
		c-10-18.2-15-41.3-15-69.5l0.8-1117.7C2554.7,213.5,2559.5,191.4,2569.1,172.1z M2144.6,1425.8c-10,18.2-28.7,32.8-56.1,43.9
		c-14.9,6-41.7,10.4-80.6,13.3c-0.4,0-0.8,0.1-1.2,0.1c-58.1,4.5-116.4,4.5-174.4,0c-0.4,0-0.8-0.1-1.2-0.1
		c-38.9-2.9-65.7-7.4-80.6-13.3c-27.4-11.1-46.1-25.7-56.1-43.9c-10-18.2-15-41.3-15-69.5l0.8-1117.7c0-25.2,4.9-47.3,14.5-66.6
		c9.7-19.2,28.6-34.8,56.7-46.6c17.8-7.4,44.1-15,78.9-22.7c0.3-0.1,0.7-0.2,1-0.2c58-12.9,118.2-12.9,176.3,0
		c0.3,0.1,0.7,0.2,1,0.2c34.8,7.8,61.1,15.4,78.9,22.7c28.1,11.8,47,27.4,56.7,46.6c9.6,19.3,14.5,41.5,14.5,66.6l0.8,1117.7
		C2159.5,1384.6,2154.6,1407.6,2144.6,1425.8z"/>
	<g>
		<g>
			<path id="rect4789_00000075873365042593260220000014034033956253335710_" class="st0" d="M447.6,1016.3h2943.8
				c86.2,0,156.1,69.9,156.1,156.1l0,0c0,86.2-69.9,156.1-156.1,156.1H447.6c-86.2,0-156.1-69.9-156.1-156.1l0,0
				C291.5,1086.2,361.4,1016.3,447.6,1016.3z"/>
			<g>
				<path class="st1" d="M905.3,1101.4h61c35.9,0,59,18.5,59,49.9v0.4c0,33.5-25.8,51.2-61.2,51.2h-19.5v40.6h-39.4v-142.2H905.3z
					 M963.5,1171.9c14.1,0,22.5-7.3,22.5-18.5v-0.4c0-12.1-8.5-18.7-22.7-18.7h-18.5v37.6L963.5,1171.9L963.5,1171.9z"/>
				<path class="st1" d="M1103,1101.4h39.4v107.6h68.9v34.5h-108.2v-142.1H1103z"/>
				<path class="st1" d="M1338.2,1100.3h38l60.6,143.2h-42.3l-10.3-25.4h-55l-10.1,25.4h-41.5L1338.2,1100.3z M1372.7,1187.4
					l-15.9-40.4l-16.1,40.4H1372.7z"/>
				<path class="st1" d="M1530.1,1190.2l-54-89h44.9l29.2,51.8l29.4-51.8h44.1l-54,88.4v53.8h-39.6V1190.2z"/>
				<path class="st1" d="M1803.3,1222.4l21.9-26.2c14.1,11.1,29.6,17.1,46.1,17.1c10.5,0,16.3-3.6,16.3-9.7v-0.4
					c0-5.9-4.7-9.1-24-13.6c-30.2-6.9-53.6-15.5-53.6-44.7v-0.4c0-26.4,20.9-45.5,55-45.5c24.2,0,43.1,6.5,58.4,18.9l-19.7,27.8
					c-13-9.1-27.2-14.1-39.8-14.1c-9.5,0-14.3,4-14.3,9.1v0.4c0,6.5,4.9,9.3,24.6,13.9c32.7,7.1,53,17.7,53,44.3v0.4
					c0,29-23,46.3-57.4,46.3C1844.7,1245.9,1820.8,1238,1803.3,1222.4z"/>
				<path class="st1" d="M2042.3,1190.2l-54-89h44.9l29.2,51.8l29.4-51.8h44.1l-54,88.4v53.8h-39.6L2042.3,1190.2L2042.3,1190.2z"/>
				<path class="st1" d="M2191.1,1222.4l21.9-26.2c14.1,11.1,29.6,17.1,46.1,17.1c10.5,0,16.3-3.6,16.3-9.7v-0.4
					c0-5.9-4.7-9.1-24-13.6c-30.2-6.9-53.6-15.5-53.6-44.7v-0.4c0-26.4,20.9-45.5,55-45.5c24.2,0,43.1,6.5,58.4,18.9l-19.7,27.8
					c-13-9.1-27.2-14.1-39.8-14.1c-9.5,0-14.3,4-14.3,9.1v0.4c0,6.5,4.9,9.3,24.6,13.9c32.7,7.1,53,17.7,53,44.3v0.4
					c0,29-23,46.3-57.4,46.3C2232.6,1245.9,2208.6,1238,2191.1,1222.4z"/>
				<path class="st1" d="M2425.9,1135.8h-42.7v-34.5h124.7v34.5h-42.7v107.6h-39.4v-107.6H2425.9z"/>
				<path class="st1" d="M2586.2,1101.4h114.4v33.5h-75.3v21.5h68.2v31h-68.2v22.5h76.3v33.5h-115.4V1101.4z"/>
				<path class="st1" d="M2782.6,1101.4h41.7l33.9,55l33.9-55h41.7v142.2h-39.2v-81.6l-36.4,55.6h-0.8l-36.1-55.2v81.2h-38.6v-142.2
					H2782.6z"/>
			</g>
		</g>
		<g>
			<path class="st2" d="M1507.3,415.5v238.9c0,0,160.9-67,160.9-161.6C1668.2,375.9,1507.3,415.5,1507.3,415.5"/>
			<path class="st2" d="M2751.9,403.5c-70.2,0-164.4,41.3-164.4,206.3S2671.4,816,2751.9,816c80.4,0,166.1-51.6,166.1-206.3
				C2918,455,2822.1,403.5,2751.9,403.5"/>
			<polyline class="st2" points="887.6,611.5 1000.5,611.5 942.4,448.2 887.6,611.5 			"/>
			<path class="st2" d="M570.9,890H392.8C180.5,890,62.4,723.3,62.4,602.9C62.4,418.4,222.1,316,367.1,316
				c140.4,0,225.1,107.7,225.1,107.7l-96.7,101.9c0,0-5.1,2.6-9.4,2.6c-4.3,0-10.3-4.3-10.3-4.3l-12-10.3c0,0-3.4-0.8-3.4-4.3
				c0-3.4,9.4-12,9.4-28.3c0-16.3-3.4-84.2-107.8-84.2s-150.7,98-150.7,178.8c0,80.8,49.7,228.7,212.3,228.7
				c94.6,0,114.7-53.3,114.7-53.3h32.5V890z M1267.6,891.7h-214.9v-41.3c0,0,13.7,1.7,20.6-10.3c6.9-12,6.9-21.5,1.7-33.5
				c-5.1-12-41.1-107.5-41.1-107.5H858.5c0,0-36,96.2-39.4,104.9c-3.4,8.6-3.4,22.4,0,30.9c5.7,14.3,25.7,16.4,25.7,16.4v40.4h-172
				v-40.4c0,0,15.6-5.4,27.3-17.2c12.9-12.9,17.1-26.6,17.1-26.6l174.6-476.2h146.4l178,467.5c5.1,12.9,13.8,25,22.3,35.2
				c8.5,10.3,29.1,17.2,29.1,17.2V891.7z M1675,671.7c-73.1,33.8-169.4,60.2-169.4,60.2v89.4c0,0,0.8,6,9.4,16.4
				c8.6,10.3,18,12.9,18,12.9v41.3h-198.6v-40.4c0,0,12-2.6,20.6-11.2c8.6-8.6,10.3-18.9,10.3-18.9v-404c0,0,0.8-17.2-6-24.1
				c-6.9-6.9-23.1-16.3-23.1-16.3v-45.6c0,0,172.9,0,273.9,0c101,0,202,36.1,202,153S1738.4,642.5,1675,671.7z M2175,397.6
				c-104.4,0-150.7,98-150.7,178.8c0,80.8,49.7,228.7,212.3,228.7c94.7,0,114.7-53.3,114.7-53.3h32.5v139.2h-178.1
				c-212.3,0-330.4-166.7-330.4-287.1c0-184.5,159.8-286.9,304.7-286.9c140.4,0,225.1,107.7,225.1,107.7l-96.7,101.9
				c0,0-5.1,2.5-9.4,2.5c-4.3,0-10.3-4.3-10.3-4.3l-12-10.3c0,0-3.4-0.9-3.4-4.3c0-3.4,9.4-12,9.4-28.3
				C2282.8,465.5,2279.4,397.6,2175,397.6z M2751.9,907.8c-184.9,0-317.8-135.6-317.8-300.6s136.3-292.9,317.8-292.9
				c181.4,0,317.8,127.9,317.8,292.9S2936.8,907.8,2751.9,907.8z M3779.9,892h-204.6v-37.2c0,0,18-2.6,24-11.2
				c6-8.6,8.6-13.8,6.9-27.5c-1.7-13.8-50.5-326.6-50.5-326.6l-89.1,276.7h-107.8l-88.2-259.5l-44.5,305.9c0,0-1.7,18.4,5.2,28.4
				c9.4,13.8,26.5,13.8,26.5,13.8v37h-177.2v-39.6c0,0,14.1-2.2,24.4-14.1c10.3-12,12-27.5,12-27.5l64.6-403.6c0,0,3.8-15-0.4-21.9
				c-4.5-7.2-28.7-13.3-28.7-13.3v-40h203.8l73.6,228.3l78.7-228.7h213.2v33.5c0,0-14.3,6-20.6,13.8c-7.7,9.4-7.7,16.3-6,30.1
				c1.7,13.8,56.5,386.8,58.2,400.5c1.7,13.8,3.4,21.5,6.8,31c3.4,9.4,19.7,17.1,19.7,17.1V892z"/>
			<path class="st1" d="M1507.3,415.5v238.9c0,0,160.9-67,160.9-161.6C1668.2,375.9,1507.3,415.5,1507.3,415.5"/>
			<path class="st1" d="M2751.9,403.5c-70.2,0-164.4,41.3-164.4,206.3S2671.4,816,2751.9,816c80.4,0,166.1-51.6,166.1-206.3
				C2918,455,2822.1,403.5,2751.9,403.5"/>
			<polyline class="st1" points="887.6,611.5 1000.5,611.5 942.4,448.2 887.6,611.5 			"/>
			<path class="st3" d="M678.7,420.7L497.2,613.2l-119.8-82.5c0,0,39.4-37.8,3.4-65.3c-28.1-21.4-106.7,24.1-103.4,113.5
				c4,103.1,67.5,161.5,137.6,161.5c65,0,82.1-52.7,82.1-52.7h145.9v121.5L848.2,266h234.5L1271,754.2c0,0,13.7,25.8,27.4,32.7
				c0,0,0.8-320.3,0.8-329.3c0-9-1.2-18.9-6.8-25.3c-9.2-10.7-24.8-15-24.8-15V266c0,0,217.3,0,328.7,0
				c170.4,0,214.2,46.5,263.6,135.8c68.3-92.3,162.2-153,296.2-153c137.9,0,235.4,51,291.1,135.8c77.8-93.4,203-136.6,317.5-136.6
				c140.8,0,258.4,68.4,319.3,174.5V266h316.7l33.4,85.1L3459,266h327l0,147.8c-23.1,11.2-32.4,22.6-28.3,49l45.7,292.2
				c1.9,9.5,5.2,19.4,13.4,26.7c9.5,8.5,22.3,6.9,22.3,6.9V957h-328.7V829.8H3322v127.6h-309v-82.9c0,0-112.9,99.7-258.5,99.7
				c-186.2,0-310.7-137.5-310.7-137.5V957c0,0-13.7,0-219.2,0c-195,0-362.4-107.2-409.2-302.5c-22.2,21.2-119.9,91.3-237.1,117.7
				c-9.1,2-13.7,5.5-13.7,15.5c0,18.1,38.6,24.5,38.6,24.5V957c0,0-1013.5,0-1201.8,0C178.8,957,0,804,0,609.8
				s139.4-359.3,370.5-359.3C591.4,250.5,678.7,420.7,678.7,420.7"/>
			<path class="st4" d="M891.8,331.3h146.4l178.1,467.6c5.1,12.9,13.7,24.9,22.3,35.2c8.5,10.3,29.1,17.2,29.1,17.2v40.4h-214.9
				v-41.3c0,0,13.7,1.8,20.6-10.3c6.9-12,6.9-21.5,1.7-33.5c-5.1-12-41.1-107.5-41.1-107.5H858.5c0,0-36,96.3-39.4,104.9
				c-3.4,8.6-3.4,22.4,0,30.9c5.7,14.3,25.7,16.4,25.7,16.4v40.4h-172v-40.4c0,0,15.6-5.4,27.3-17.2c12.9-12.9,17.2-26.7,17.2-26.7
				L891.8,331.3 M887.6,611.5h113l-58.2-163.3L887.6,611.5z"/>
			<path class="st4" d="M1336.1,331.3c0,0,172.9,0,273.9,0c101,0,202,36.1,202,153s-73.6,158.1-137,187.3
				c-73.1,33.8-169.5,60.2-169.5,60.2v89.3c0,0,0.8,6,9.4,16.4c8.5,10.3,18,12.9,18,12.9v41.3h-198.6v-40.4c0,0,12-2.6,20.6-11.2
				c8.6-8.6,10.3-18.9,10.3-18.9v-404c0,0,0.8-17.2-6-24.1c-6.9-6.9-23.1-16.3-23.1-16.3V331.3 M1507.3,415.5v238.9
				c0,0,160.9-67,160.9-161.6C1668.2,375.9,1507.3,415.5,1507.3,415.5z"/>
			<path class="st4" d="M2751.9,907.8c-184.9,0-317.8-135.6-317.8-300.6s136.3-293,317.8-293c181.5,0,317.8,127.9,317.8,293
				S2936.8,907.8,2751.9,907.8 M2587.6,609.8c0,165,83.9,206.3,164.4,206.3c80.4,0,166.1-51.6,166.1-206.3
				c0-154.7-95.9-206.3-166.1-206.3C2681.7,403.5,2587.6,444.8,2587.6,609.8z"/>
			<path class="st4" d="M3152.5,331.6h203.7l73.6,228.3l78.7-228.7h213.1v33.5c0,0-14.2,6-20.6,13.8c-7.7,9.4-7.7,16.4-6,30.1
				c1.7,13.8,56.5,386.8,58.2,400.5c1.7,13.8,3.5,21.5,6.9,31c3.4,9.4,19.7,17.2,19.7,17.2v34.6h-204.6v-37.2c0,0,18-2.6,23.9-11.2
				c6-8.6,8.6-13.8,6.8-27.5c-1.7-13.8-50.5-326.6-50.5-326.6l-89,276.8h-107.8l-88.2-259.6l-44.5,306c0,0-1.7,18.3,5.1,28.3
				c9.4,13.8,26.5,13.8,26.5,13.8v36.9h-177.2v-39.5c0,0,14.1-2.2,24.4-14.2c10.3-12,12-27.5,12-27.5l64.6-403.5
				c0,0,3.9-15.1-0.4-21.9c-4.5-7.2-28.7-13.4-28.7-13.4V331.6"/>
			<path class="st4" d="M592.2,423.7l-95.5,100.6c-5,5.3-13.3,5.8-18.9,1.2l-16.2-13.3c-0.7-0.6-1.1-1.6-1.1-2.9
				c0-3.4,9.4-12,9.4-28.3c0-16.4-3.4-84.2-107.8-84.2c-104.4,0-150.7,98-150.7,178.8c0,80.8,49.7,228.7,212.3,228.7
				c94.6,0,114.7-53.3,114.7-53.3h32.5V890H392.8C180.5,890,62.4,723.2,62.4,602.9C62.4,418.4,222.1,316,367.1,316
				C507.5,316,592.2,423.7,592.2,423.7"/>
			<path class="st4" d="M2405.3,424.7l-95.5,100.6c-5,5.3-13.3,5.8-18.9,1.2l-16.2-13.3c-0.7-0.6-1.1-1.6-1.1-2.9
				c0-3.4,9.4-12,9.4-28.3c0-16.4-3.4-84.2-107.8-84.2c-104.4,0-150.7,98-150.7,178.8c0,80.8,49.7,228.7,212.3,228.7
				c94.6,0,114.7-53.3,114.7-53.3h32.5v139.2h-178.1c-212.3,0-330.4-166.7-330.4-287.1c0-184.5,159.8-286.9,304.7-286.9
				C2320.5,317,2405.3,424.7,2405.3,424.7"/>
		</g>
	</g>
</g>
</svg>
