<?xml version="1.0" encoding="utf-8"?>
<!-- Generator: Adobe Illustrator 26.0.3, SVG Export Plug-In . SVG Version: 6.00 Build 0)  -->
<svg version="1.1" id="Layer_1" xmlns="http://www.w3.org/2000/svg" xmlns:xlink="http://www.w3.org/1999/xlink" x="0px" y="0px"
	 viewBox="0 0 3839 1227.5" style="enable-background:new 0 0 3839 1227.5;" xml:space="preserve">
<style type="text/css">
	.st0{fill:#231F20;}
	.st1{fill:#FFFFFF;}
	.st2{fill:url(#SVGID_1_);}
	.st3{fill:url(#SVGID_00000115479226142093289910000015537121957853138873_);}
	.st4{fill:url(#SVGID_00000005224628555704424190000004200800508289498784_);}
	.st5{fill:url(#SVGID_00000114062867717764742920000005481074944690387849_);}
	.st6{fill:url(#SVGID_00000076564948327992465580000014957405517120091056_);}
	.st7{fill:url(#SVGID_00000106864147047692796960000009059913222142152832_);}
	.st8{fill:url(#SVGID_00000116222629262504237500000001193038830891203980_);}
	.st9{fill:url(#SVGID_00000160164654217434684770000010037381821505426853_);}
	.st10{fill:url(#SVGID_00000114047282123549638390000010192859928687523463_);}
	.st11{fill:url(#SVGID_00000101065930603823914670000003096889020883450498_);}
	.st12{fill:url(#SVGID_00000174572400679228232090000008891513349334549143_);}
	.st13{fill:url(#SVGID_00000088104810760761762540000014839268448035796624_);}
	.st14{fill:url(#SVGID_00000099652612374205871040000010068061909670934418_);}
	.st15{display:none;}
	.st16{display:inline;fill:#FF0642;}
	.st17{display:inline;fill:#FFFFFF;stroke:#000000;stroke-width:0.4864;stroke-miterlimit:10;}
	.st18{display:inline;fill:#FFCB04;}
	.st19{fill:#034EA2;}
	.st20{fill:url(#SVGID_00000020367505073921302580000012046378281013089446_);}
	.st21{fill:url(#SVGID_00000116237327060707811630000002949777566952416144_);}
	.st22{fill:url(#SVGID_00000116949981860993912980000003706365489756916651_);}
	.st23{fill:url(#SVGID_00000013897201523203347960000015840548292395828670_);}
	.st24{fill:url(#SVGID_00000091726285789408151980000005693587869309981083_);}
	.st25{fill:url(#SVGID_00000026859307425089522530000005625008827523163795_);}
	.st26{fill:url(#SVGID_00000183250366874493156020000001026070330291882631_);}
	.st27{fill:url(#SVGID_00000176727192749826843640000000659399949350770850_);}
	.st28{fill:url(#SVGID_00000152954430705324988160000010526871555969863350_);}
	.st29{fill:url(#SVGID_00000008139927071130257030000010269501944401724558_);}
	.st30{fill:url(#SVGID_00000096022947334076670700000011629715407785572230_);}
	.st31{fill:url(#SVGID_00000161605764595513062590000013731069066529811630_);}
	.st32{fill:url(#SVGID_00000017516711846263510410000014957268113531408790_);}
	.st33{display:inline;fill:#FFFFFF;stroke:#000000;stroke-width:0.4884;stroke-miterlimit:10;}
	.st34{fill:url(#SVGID_00000079445486195253502320000016149750840579531914_);}
	.st35{fill:url(#SVGID_00000016038416459137795940000006279210715422551192_);}
	.st36{fill:url(#SVGID_00000105398816442722187990000013782362014803854211_);}
	.st37{fill:url(#SVGID_00000099623279798072952320000013437374611787560371_);}
	.st38{fill:url(#SVGID_00000139264611437712275940000004083200482536345783_);}
	.st39{fill:url(#SVGID_00000039838436802258857250000017045921674866319283_);}
	.st40{fill:url(#SVGID_00000043437343774700424970000003144947221428958624_);}
	.st41{fill:url(#SVGID_00000076579530935956322870000014017896364028330404_);}
	.st42{fill:url(#SVGID_00000070817601721359040040000009621714360481299637_);}
	.st43{fill:url(#SVGID_00000134928531662704687570000016909676933681548197_);}
	.st44{fill:url(#SVGID_00000167387266398336221670000013291460972411864449_);}
	.st45{fill:url(#SVGID_00000093140012622836394990000002620214785911229312_);}
	.st46{fill:url(#SVGID_00000083060893585221492070000018312208535855661956_);}
	.st47{display:inline;fill:#FFFFFF;stroke:#000000;stroke-width:0.5156;stroke-miterlimit:10;}
	.st48{fill:url(#SVGID_00000066473154925900479550000011608404978642354360_);}
	.st49{fill:url(#SVGID_00000140695545750832317830000008935591467174607025_);}
	.st50{fill:url(#SVGID_00000171692216549152660920000006969345054696900227_);}
	.st51{fill:url(#SVGID_00000065758994871682112330000007460324999813843585_);}
	.st52{fill:url(#SVGID_00000165915119973137393330000011823121671534450833_);}
	.st53{fill:url(#SVGID_00000091006006323705698710000004016904942054430620_);}
	.st54{fill:url(#SVGID_00000110468047659229192700000011682193201192172674_);}
	.st55{fill:url(#SVGID_00000054951135668693036630000001562988758857261708_);}
	.st56{fill:url(#SVGID_00000034064300011059259640000003317220799430852764_);}
	.st57{fill:url(#SVGID_00000090281221566774793110000011443851621791479450_);}
	.st58{fill:url(#SVGID_00000082328878715447363790000001319275563403217803_);}
	.st59{fill:url(#SVGID_00000070102001754926991050000003350402098980653725_);}
	.st60{fill:url(#SVGID_00000016070817013930446210000007663494882256904082_);}
	.st61{fill:#FFCB04;}
	.st62{fill:url(#SVGID_00000012446896583069829940000014661951316326805637_);}
	.st63{fill:url(#SVGID_00000140702436199613280110000015369808483933106837_);}
	.st64{fill:url(#SVGID_00000052089609346975971760000007688156874786395055_);}
	.st65{fill:url(#SVGID_00000059995505290441492050000000712228078488983728_);}
	.st66{fill:url(#SVGID_00000024723876639816940350000015151219959258937277_);}
	.st67{fill:url(#SVGID_00000036226954551644557660000010673956694411076767_);}
	.st68{fill:url(#SVGID_00000043447323833540107540000014869001840739798150_);}
	.st69{fill:url(#SVGID_00000075127270161283958920000009536312343538138806_);}
	.st70{fill:url(#SVGID_00000039834932748618004330000008023749267331442359_);}
	.st71{fill:url(#SVGID_00000118394529436754867190000011104023098221756321_);}
	.st72{fill:url(#SVGID_00000153679479693647291550000000922790329718752430_);}
	.st73{fill:url(#SVGID_00000127738316270416422020000013077109365565897357_);}
	.st74{fill:url(#SVGID_00000096055376808126232410000017459652293923603097_);}
	.st75{fill:url(#SVGID_00000033351070184312589090000009656385136595391421_);}
	.st76{fill:url(#SVGID_00000076574254367657676590000014934858875424734117_);}
	.st77{fill:url(#SVGID_00000078026809185352021100000009606710490276397978_);}
	.st78{fill:url(#SVGID_00000033368741943214358930000015615081180922471067_);}
	.st79{fill:url(#SVGID_00000052083821001582114340000009357123060235620238_);}
	.st80{fill:url(#SVGID_00000054966759523108502160000003359206987929843350_);}
	.st81{fill:url(#SVGID_00000016792594631908295130000010808946199383144359_);}
	.st82{fill:url(#SVGID_00000015319730581996903180000017279060118417748156_);}
	.st83{fill:url(#SVGID_00000049939765296281821770000007576051899340824482_);}
	.st84{fill:url(#SVGID_00000183220898154473153230000014836403276355790977_);}
	.st85{fill:url(#SVGID_00000113333380613838538140000010264205057791980934_);}
	.st86{fill:url(#SVGID_00000070118863674115514130000003166188533901953725_);}
	.st87{fill:url(#SVGID_00000094597495090541356090000018108807610537022359_);}
	.st88{fill:url(#SVGID_00000025428733509121850680000016645806788388415115_);}
	.st89{fill:url(#SVGID_00000183246005068612379010000015138782051124571580_);}
	.st90{fill:url(#SVGID_00000044875037442107559040000002472115103182046910_);}
	.st91{fill:url(#SVGID_00000036932079068119616070000014538255443074821559_);}
	.st92{fill:url(#SVGID_00000175306522804497786000000012050549766997476768_);}
	.st93{fill:url(#SVGID_00000127742366036167979310000004688499262356029831_);}
	.st94{fill:url(#SVGID_00000152230431857130658640000013097581254154167477_);}
	.st95{fill:url(#SVGID_00000108279422816652155520000008844575290798074794_);}
	.st96{fill:url(#SVGID_00000173845330039681258140000015922910121500765841_);}
	.st97{fill:url(#SVGID_00000160149823454906274530000008774295639508121768_);}
	.st98{fill:url(#SVGID_00000063601718989507559070000013884036137020679848_);}
	.st99{fill:url(#SVGID_00000152249443856363584370000017744538899842528919_);}
	.st100{fill:url(#SVGID_00000131340996923073488490000010009401130211022722_);}
	.st101{fill:url(#SVGID_00000061464119700111936660000007073497872623770509_);}
	.st102{fill:url(#SVGID_00000170976442310925479860000017862241046444887997_);}
	.st103{fill:url(#SVGID_00000151531804914679767370000015780111155606395582_);}
	.st104{fill:url(#SVGID_00000082368160612583775440000002914956901117490110_);}
	.st105{fill:url(#SVGID_00000083787735421564609730000000249174215979993533_);}
	.st106{fill:url(#SVGID_00000036971804737737100070000000528608364484994736_);}
	.st107{fill:url(#SVGID_00000044872855624709054100000002585864667123820730_);}
	.st108{fill:url(#SVGID_00000102521303602522952060000001987036475359609779_);}
	.st109{fill:url(#SVGID_00000028323602306056457680000001197780418176852367_);}
	.st110{fill:url(#SVGID_00000084500796483344777600000012116965406696072362_);}
	.st111{fill:url(#SVGID_00000096050173718238794850000016566675420375360700_);}
	.st112{fill:url(#SVGID_00000049209894615782920590000014194649864542412423_);}
	.st113{fill:url(#SVGID_00000122699749492493477350000016390494094796651419_);}
	.st114{fill:#007CFF;}
	.st115{fill:url(#SVGID_00000174566030354365662560000010280732091597964433_);}
	.st116{fill:url(#SVGID_00000140707862225487943080000001236135062716629437_);}
	.st117{fill:url(#SVGID_00000091696640669587108790000007033098183792614576_);}
	.st118{fill:url(#SVGID_00000180348506982449861660000009070469070481030588_);}
	.st119{fill:url(#SVGID_00000152227499357428255420000012505710753519257784_);}
	.st120{fill:url(#SVGID_00000069399988677332809220000005406902163060135345_);}
	.st121{fill:url(#SVGID_00000093879861080257043370000014588336376396365965_);}
	.st122{fill:url(#SVGID_00000168833854426704486800000010848614085091470246_);}
	.st123{fill:url(#SVGID_00000105418538718617168050000003712687341956699311_);}
	.st124{fill:url(#SVGID_00000021103907720296899320000002389505168692044716_);}
	.st125{fill:url(#SVGID_00000079476747333067485830000003667396936984693166_);}
	.st126{fill:url(#SVGID_00000158740186348348484710000011896652367738334086_);}
	.st127{fill:url(#SVGID_00000052796650169307747910000016072396380396231087_);}
	.st128{fill:url(#SVGID_00000108308353870872708890000013732286712919850137_);}
	.st129{fill:url(#SVGID_00000012451844655390301220000015007848309078210448_);}
	.st130{fill:url(#SVGID_00000039115709194501452400000005980698539825883812_);}
	.st131{fill:url(#SVGID_00000050633314333353485310000007537555867274265484_);}
	.st132{fill:url(#SVGID_00000135672002445965987320000000644849376605139114_);}
	.st133{fill:url(#SVGID_00000125571348415190267220000004224811163380417712_);}
	.st134{fill:url(#SVGID_00000165930788273910583910000000100466182730548155_);}
	.st135{fill:url(#SVGID_00000098934604343394464740000004627414838566806425_);}
	.st136{fill:url(#SVGID_00000004507960417408210090000014465590359175915935_);}
	.st137{fill:url(#SVGID_00000174585164263210273490000000161132365182955909_);}
	.st138{fill:url(#SVGID_00000172435195843603050220000007339978835987738558_);}
	.st139{fill:url(#SVGID_00000083060492083029952380000016143028014362056086_);}
	.st140{fill:url(#SVGID_00000093875342576210022090000005052416900521694344_);}
	.st141{display:inline;fill:#FFFFFF;stroke:#000000;stroke-width:0.6411;stroke-miterlimit:10;}
</style>
<g>
	<g>
		<g>
			<g>
				<path class="st0" d="M1507.3,167.6v238.9c0,0,160.9-67,160.9-161.6C1668.2,128,1507.3,167.6,1507.3,167.6"/>
				<path class="st0" d="M2751.9,155.5c-70.2,0-164.4,41.3-164.4,206.3s83.9,206.3,164.4,206.3c80.4,0,166.1-51.6,166.1-206.3
					C2918,207.1,2822.1,155.5,2751.9,155.5"/>
				<polyline class="st0" points="887.6,363.5 1000.5,363.5 942.4,200.2 887.6,363.5 				"/>
				<path class="st0" d="M570.9,642.1H392.8C180.5,642.1,62.4,475.3,62.4,355c0-184.5,159.8-286.9,304.7-286.9
					c140.4,0,225.1,107.7,225.1,107.7l-96.7,101.9c0,0-5.1,2.6-9.4,2.6c-4.3,0-10.3-4.3-10.3-4.3l-12-10.3c0,0-3.4-0.8-3.4-4.3
					c0-3.4,9.4-12,9.4-28.3c0-16.3-3.4-84.2-107.8-84.2s-150.7,98-150.7,178.8c0,80.8,49.7,228.7,212.3,228.7
					c94.6,0,114.7-53.3,114.7-53.3h32.5V642.1z M1267.6,643.8h-214.9v-41.3c0,0,13.7,1.7,20.6-10.3c6.9-12,6.9-21.5,1.7-33.5
					c-5.1-12-41.1-107.5-41.1-107.5H858.5c0,0-36,96.2-39.4,104.9c-3.4,8.6-3.4,22.4,0,30.9c5.7,14.3,25.7,16.4,25.7,16.4v40.4h-172
					v-40.4c0,0,15.6-5.4,27.3-17.2c12.9-12.9,17.1-26.6,17.1-26.6L891.8,83.4h146.4l178,467.5c5.1,12.9,13.8,25,22.3,35.2
					c8.5,10.3,29.1,17.2,29.1,17.2V643.8z M1675,423.7c-73.1,33.8-169.4,60.2-169.4,60.2v89.4c0,0,0.8,6,9.4,16.4
					c8.6,10.3,18,12.9,18,12.9v41.3h-198.6v-40.4c0,0,12-2.6,20.6-11.2c8.6-8.6,10.3-18.9,10.3-18.9v-404c0,0,0.8-17.2-6-24.1
					c-6.9-6.9-23.1-16.3-23.1-16.3V83.4c0,0,172.9,0,273.9,0c101,0,202,36.1,202,153S1738.4,394.5,1675,423.7z M2175,149.7
					c-104.4,0-150.7,98-150.7,178.8c0,80.8,49.7,228.7,212.3,228.7c94.7,0,114.7-53.3,114.7-53.3h32.5V643h-178.1
					c-212.3,0-330.4-166.7-330.4-287.1c0-184.5,159.8-286.9,304.7-286.9c140.4,0,225.1,107.7,225.1,107.7l-96.7,101.9
					c0,0-5.1,2.5-9.4,2.5c-4.3,0-10.3-4.3-10.3-4.3l-12-10.3c0,0-3.4-0.9-3.4-4.3c0-3.4,9.4-12,9.4-28.3
					C2282.8,217.6,2279.4,149.7,2175,149.7z M2751.9,659.9c-184.9,0-317.8-135.6-317.8-300.6s136.3-292.9,317.8-292.9
					c181.4,0,317.8,127.9,317.8,292.9S2936.8,659.9,2751.9,659.9z M3779.9,644.1h-204.6v-37.2c0,0,18-2.6,24-11.2
					c6-8.6,8.6-13.8,6.9-27.5c-1.7-13.8-50.5-326.6-50.5-326.6l-89.1,276.7h-107.8l-88.2-259.5l-44.5,305.9c0,0-1.7,18.4,5.2,28.4
					c9.4,13.8,26.5,13.8,26.5,13.8v37h-177.2v-39.6c0,0,14.1-2.2,24.4-14.1c10.3-12,12-27.5,12-27.5l64.6-403.6c0,0,3.8-15-0.4-21.9
					c-4.5-7.2-28.7-13.3-28.7-13.3v-40h203.8l73.6,228.3l78.7-228.7h213.2v33.5c0,0-14.3,6-20.6,13.8c-7.7,9.4-7.7,16.3-6,30.1
					c1.7,13.8,56.5,386.8,58.2,400.5c1.7,13.8,3.4,21.5,6.8,31c3.4,9.4,19.7,17.1,19.7,17.1V644.1z"/>
				<path class="st1" d="M1507.3,167.6v238.9c0,0,160.9-67,160.9-161.6C1668.2,128,1507.3,167.6,1507.3,167.6"/>
				<path class="st1" d="M2751.9,155.5c-70.2,0-164.4,41.3-164.4,206.3s83.9,206.3,164.4,206.3c80.4,0,166.1-51.6,166.1-206.3
					C2918,207.1,2822.1,155.5,2751.9,155.5"/>
				<polyline class="st1" points="887.6,363.5 1000.5,363.5 942.4,200.2 887.6,363.5 				"/>
				<path class="st1" d="M2422.1,532.7l37.8,41.5c1.2,1.3,120.7,130.4,294.6,130.4c135.3,0,243.1-93.4,244.2-94.3l36-31.7l0,109.1
					h265.6V560.1H3532v127.2h285.3V559c-5-1.9-10.2-4.7-15-9.1c-13.7-12.3-18.1-27.9-20.2-38.6l-45.8-293
					c-5.5-35.4,9.4-53.5,28-65.2l0-113.3h-289l-38.1,130.5l-51.2-130.5h-280.2v216.2l-40.5-70.6
					c-58.8-102.4-171.1-163.6-300.4-163.6c-121.2,0-233.7,48.2-300.9,128.8l-18.7,22.5l-16.1-24.5c-54.1-82.4-148.5-126-272.9-126
					c-115.7,0-206.9,47.2-278.7,144.2l-20.1,27.1l-16.3-29.5c-42.7-77.3-77.4-124.7-244.6-124.7h-307v115.2
					c6.4,3.4,13.6,8.4,19.6,15.3c8.1,9.3,12,22.2,12,39.5c0,8.9-0.8,329.3-0.8,329.3l-0.1,35.1l-31.4-15.8
					c-18.4-9.3-32.8-34.4-36.8-41.9l-1.1-2.4l-183-474.3H863.2L663.4,568.9l-42-7.7v-99.8H510.8c-11.5,20-39.1,52.7-95.8,52.7
					c-73.3,0-154.5-57.1-159.3-182.4c-2.6-68.7,36.3-113.6,70.4-131.3c25.4-13.2,50.8-13.3,67.9-0.2c18.4,14,23,30.4,23.6,41.7
					c0.8,13.6-3.8,26.1-9.3,35.8l85.9,59.2l157.5-167.1C627.1,131.7,542.3,24.2,370.5,24.2c-205.4,0-348.8,138.8-348.8,337.6
					c0,182.5,166.8,325.5,379.7,325.5h1180.1V581.2c-20.8-7.1-38.6-20.5-38.6-41.4c0-13.6,5.3-31,30.7-36.6
					c109.4-24.6,204.6-90.9,226.9-112.2l27.3-26.1l8.8,36.8c42.2,176.3,190.9,285.9,388.1,285.9h197.5V532.7z"/>
				<linearGradient id="SVGID_1_" gradientUnits="userSpaceOnUse" x1="1919.5" y1="726.2559" x2="1919.5" y2="0">
					<stop  offset="0.1654" style="stop-color:#000055"/>
					<stop  offset="0.9017" style="stop-color:#007CFF"/>
				</linearGradient>
				<path class="st2" d="M678.7,172.8L497.2,365.3l-119.8-82.5c0,0,39.4-37.8,3.4-65.3c-28.1-21.4-106.7,24.1-103.4,113.5
					c4,103.1,67.5,161.5,137.6,161.5c65,0,82.1-52.7,82.1-52.7h145.9v121.5L848.2,18h234.5L1271,506.2c0,0,13.7,25.8,27.4,32.7
					c0,0,0.8-320.3,0.8-329.3c0-9-1.2-18.9-6.8-25.3c-9.2-10.7-24.8-15-24.8-15V18c0,0,217.3,0,328.7,0
					c170.4,0,214.2,46.5,263.6,135.8c68.3-92.3,162.2-153,296.2-153c137.9,0,235.4,51,291.1,135.8C2525,43.3,2650.2,0,2764.8,0
					c140.8,0,258.4,68.4,319.3,174.5V18h316.7l33.4,85.1L3459,18h327l0,147.8c-23.1,11.2-32.4,22.6-28.3,49l45.7,292.2
					c1.9,9.5,5.2,19.4,13.4,26.7c9.5,8.5,22.3,6.9,22.3,6.9v168.5h-328.7V581.8H3322v127.6h-309v-82.9c0,0-112.9,99.7-258.5,99.7
					c-186.2,0-310.7-137.5-310.7-137.5v120.3c0,0-13.7,0-219.2,0c-195,0-362.4-107.2-409.2-302.5c-22.2,21.2-119.9,91.3-237.1,117.7
					c-9.1,2-13.7,5.5-13.7,15.5c0,18.1,38.6,24.5,38.6,24.5v144.8c0,0-1013.5,0-1201.8,0C178.8,709.1,0,556.1,0,361.9
					S139.4,2.5,370.5,2.5C591.4,2.5,678.7,172.8,678.7,172.8"/>
				<g>
					
						<linearGradient id="SVGID_00000141455097583045128130000012024548818692762296_" gradientUnits="userSpaceOnUse" x1="3460.5955" y1="700.3147" x2="3345.8582" y2="49.6064">
						<stop  offset="0" style="stop-color:#FF9D01"/>
						<stop  offset="0.1496" style="stop-color:#FFA402"/>
						<stop  offset="0.3686" style="stop-color:#FFB805"/>
						<stop  offset="0.6289" style="stop-color:#FFD80A"/>
						<stop  offset="0.7832" style="stop-color:#FFEE0D"/>
						<stop  offset="1" style="stop-color:#FFD70B"/>
					</linearGradient>
					<path style="fill:url(#SVGID_00000141455097583045128130000012024548818692762296_);" d="M3760.3,592.2
						c-3.4-9.4-5.2-17.2-6.9-31c-1.7-13.7-56.5-386.7-58.2-400.5c-1.7-13.8-1.7-20.7,6-30.1c6.4-7.8,20.6-13.8,20.6-13.8V83.3
						h-213.1L3429.9,312l-73.6-228.3h-203.7v40c0,0,24.2,6.1,28.7,13.4c4.3,6.9,0.4,21.9,0.4,21.9L3117,562.5c0,0-1.7,15.5-12,27.5
						c-10.3,12-24.4,14.2-24.4,14.2v39.5h177.2v-36.9c0,0-17.1,0-26.5-13.8c-6.9-10-5.1-28.3-5.1-28.3l44.5-306l88.2,259.6h107.8
						l89-276.8c0,0,48.8,312.9,50.5,326.6c1.7,13.8-0.8,18.9-6.8,27.5c-6,8.6-23.9,11.2-23.9,11.2V644H3780v-34.6
						C3780,609.4,3763.7,601.6,3760.3,592.2z"/>
					
						<linearGradient id="SVGID_00000141452648996491645270000001750670496093488817_" gradientUnits="userSpaceOnUse" x1="3430.3225" y1="643.9955" x2="3430.3225" y2="83.31">
						<stop  offset="5.327789e-09" style="stop-color:#FFCF00"/>
						<stop  offset="1" style="stop-color:#FFFF36"/>
					</linearGradient>
					<path style="fill:url(#SVGID_00000141452648996491645270000001750670496093488817_);" d="M3708.6,96.5v12.2
						c-5.6,3.1-12.8,7.8-17.6,13.7c-11.1,13.7-10.7,25.2-8.8,40c0.9,7.1,14.7,102,29.4,202.5c13.7,94,27.9,191.3,28.8,197.9
						c1.8,14.5,3.8,23.3,7.6,33.8c2.3,6.6,7.7,12.8,16,18.5c1,0.7,2,1.3,2.9,1.9v13.8h-178.3v-13.7c7.4-2.4,16.4-6.6,21.6-14.1
						c7.9-11.3,11.2-19.6,9.1-36.6c-1.7-13.8-48.6-314.2-50.5-327l-8.5-54.8l-17,52.8l-86.1,267.7h-88.8l-85.1-250.7l-17.6-51.8
						l-7.9,54.1l-44.5,306l0,0.3l0,0.3c-0.4,3.9-1.7,23.7,7.4,37c6.5,9.6,15.9,14.8,24.2,17.4v12.8h-150.9v-16.7
						c6.4-2.7,14.4-7.3,21.2-15.3c12-14,14.6-30.9,15-34.2l64.5-402.7c1.3-5.5,4.3-21.2-2.2-31.5c-3.6-5.8-10.6-10.3-22.6-14.8
						c-1.4-0.5-2.8-1-4.1-1.4V96.8h181l70.7,219.2l12.1,37.5l12.8-37.3L3518,96.5H3708.6 M3721.8,83.3h-213.1L3429.9,312
						l-73.6-228.3h-203.7v40c0,0,24.2,6.1,28.7,13.4c4.3,6.9,0.4,21.9,0.4,21.9L3117,562.5c0,0-1.7,15.5-12,27.5
						c-10.3,12-24.4,14.2-24.4,14.2v39.5h177.2v-36.9c0,0-17.1,0-26.5-13.8c-6.9-10-5.1-28.3-5.1-28.3l44.5-306l88.2,259.6h107.8
						l89-276.8c0,0,48.8,312.9,50.5,326.6c1.7,13.8-0.8,18.9-6.8,27.5c-6,8.6-23.9,11.2-23.9,11.2V644H3780v-34.6
						c0,0-16.3-7.7-19.7-17.2c-3.4-9.4-5.2-17.2-6.9-31c-1.7-13.7-56.5-386.7-58.2-400.5c-1.7-13.8-1.7-20.7,6-30.1
						c6.4-7.8,20.6-13.8,20.6-13.8V83.3L3721.8,83.3z"/>
				</g>
				<g>
					<g>
						
							<linearGradient id="SVGID_00000158741624329504375410000015543410156817155486_" gradientUnits="userSpaceOnUse" x1="982.6136" y1="693.9806" x2="875.4452" y2="86.1984">
							<stop  offset="0" style="stop-color:#FF9D01"/>
							<stop  offset="0.1496" style="stop-color:#FFA402"/>
							<stop  offset="0.3686" style="stop-color:#FFB805"/>
							<stop  offset="0.6289" style="stop-color:#FFD80A"/>
							<stop  offset="0.7832" style="stop-color:#FFEE0D"/>
							<stop  offset="1" style="stop-color:#FFD70B"/>
						</linearGradient>
						<path style="fill:url(#SVGID_00000158741624329504375410000015543410156817155486_);" d="M1238.5,586.2
							c-8.6-10.3-17.1-22.4-22.3-35.2L1038.2,83.3H891.8L717.3,559.5c0,0-4.3,13.8-17.2,26.7c-11.7,11.8-27.3,17.2-27.3,17.2v40.4
							h172v-40.4c0,0-20-2-25.7-16.4c-3.4-8.6-3.4-22.4,0-30.9c3.4-8.6,39.4-104.9,39.4-104.9h175.5c0,0,36,95.4,41.1,107.5
							c5.1,12,5.1,21.5-1.7,33.5c-6.9,12-20.6,10.3-20.6,10.3v41.3h214.9v-40.4C1267.7,603.3,1247.1,596.4,1238.5,586.2z
							 M887.6,363.5l54.8-163.3l58.2,163.3H887.6z"/>
						
							<linearGradient id="SVGID_00000142140343154252048190000009174008931166427799_" gradientUnits="userSpaceOnUse" x1="970.1908" y1="643.7194" x2="970.1908" y2="83.31">
							<stop  offset="5.327789e-09" style="stop-color:#FFCF00"/>
							<stop  offset="1" style="stop-color:#FFFF36"/>
						</linearGradient>
						<path style="fill:url(#SVGID_00000142140343154252048190000009174008931166427799_);" d="M1029.2,96.5L1204,555.6l0,0.1l0,0.1
							c4.9,12.2,12.8,24.9,24.3,38.8c6.7,8.1,18.1,14.2,26.1,17.7v18.3h-188.6v-16.6c8-2.6,14.6-7.9,18.8-15.3
							c8.7-15.3,9.4-28.8,2.4-45.2c-4-9.3-28.5-74-40.9-106.9l-3.2-8.5h-9.1H858.5h-9.1l-3.2,8.5c-0.4,1-36,96.2-39.3,104.6
							c-4.7,11.8-4.7,28.9,0,40.7c5,12.6,16.1,18.8,24.8,21.8v16.9H685.9v-18.6c6.6-3.3,15.7-8.7,23.5-16.5
							c14-14,19.3-28.7,20.3-31.7L901,96.5H1029.2 M869.3,376.7h18.3h113h18.6l-6.3-17.6l-58.2-163.3L942,160l-12.1,36l-54.8,163.3
							L869.3,376.7 M1038.2,83.3H891.8L717.3,559.5c0,0-4.3,13.8-17.2,26.7c-11.7,11.8-27.3,17.2-27.3,17.2v40.4h172v-40.4
							c0,0-20-2-25.7-16.4c-3.4-8.6-3.4-22.4,0-30.9c3.4-8.6,39.4-104.9,39.4-104.9h175.5c0,0,36,95.4,41.1,107.5
							c5.1,12,5.1,21.5-1.7,33.5c-5.3,9.3-14.7,10.4-18.7,10.4c-1.2,0-1.9-0.1-1.9-0.1v41.3h214.9v-40.4c0,0-20.6-6.9-29.1-17.2
							c-8.6-10.3-17.1-22.4-22.3-35.2L1038.2,83.3L1038.2,83.3z M887.6,363.5l54.8-163.3l58.2,163.3H887.6L887.6,363.5z"/>
					</g>
					<g>
						
							<linearGradient id="SVGID_00000113351284713947797900000014684274738135148205_" gradientUnits="userSpaceOnUse" x1="1608.2233" y1="630.4561" x2="1506.4504" y2="53.274">
							<stop  offset="0" style="stop-color:#FF9D01"/>
							<stop  offset="0.1496" style="stop-color:#FFA402"/>
							<stop  offset="0.3686" style="stop-color:#FFB805"/>
							<stop  offset="0.6289" style="stop-color:#FFD80A"/>
							<stop  offset="0.7832" style="stop-color:#FFEE0D"/>
							<stop  offset="1" style="stop-color:#FFD70B"/>
						</linearGradient>
						<path style="fill:url(#SVGID_00000113351284713947797900000014684274738135148205_);" d="M1610,83.3c-101,0-273.9,0-273.9,0
							v45.6c0,0,16.2,9.4,23.1,16.3c6.9,6.9,6,24.1,6,24.1v404c0,0-1.7,10.3-10.3,18.9c-8.6,8.6-20.6,11.2-20.6,11.2v40.4H1533
							v-41.3c0,0-9.4-2.5-18-12.9c-8.6-10.3-9.4-16.4-9.4-16.4v-89.3c0,0,96.3-26.5,169.5-60.2c63.4-29.2,137-70.4,137-187.3
							S1711.1,83.3,1610,83.3z M1507.3,406.5V167.6c0,0,160.9-39.6,160.9,77.3C1668.2,339.5,1507.3,406.5,1507.3,406.5z"/>
						
							<linearGradient id="SVGID_00000033337998886263189980000001473332468974514847_" gradientUnits="userSpaceOnUse" x1="1573.2216" y1="643.7194" x2="1573.2216" y2="83.31">
							<stop  offset="5.327789e-09" style="stop-color:#FFCF00"/>
							<stop  offset="1" style="stop-color:#FFFF36"/>
						</linearGradient>
						<path style="fill:url(#SVGID_00000033337998886263189980000001473332468974514847_);" d="M1610,96.5
							c54.2,0,99.8,10.6,131.9,30.7c17.9,11.2,31.8,25.5,41.2,42.4c10.4,18.7,15.7,41.2,15.7,66.8c0,106.8-63.9,145.2-129.3,175.4
							c-71.3,32.9-166.5,59.2-167.5,59.5l-9.7,2.7v10v89.3v0.9l0.1,0.9c0.3,2.3,2.1,10.7,12.4,23c5.1,6.1,10.5,10.2,14.9,12.8v19.8
							h-172.3v-17.9c5.1-2.3,11.3-5.8,16.7-11.2c11.2-11.3,13.7-24.6,13.9-26.1l0.2-1.1v-1.1V169.5c0-1.4,0.1-6-0.5-11.4
							c-1.2-9.8-4.4-17.3-9.3-22.3l0,0l0,0c-5-5-13.4-10.7-19.2-14.4V96.5H1610 M1494.2,426.2l18.2-7.6c1.7-0.7,42.1-17.7,83-46.7
							c24.4-17.3,44-35.5,58.1-53.8c18.5-24,27.9-48.6,27.9-73.2c0-18.7-3.8-35.1-11.3-48.8c-6.8-12.5-16.7-22.7-29.4-30.5
							c-19.2-11.7-44.8-17.7-75.9-17.7c-32.5,0-59.5,6.5-60.6,6.8l-10,2.5v10.3v238.9V426.2 M1610,83.3c-101,0-273.9,0-273.9,0v45.6
							c0,0,16.2,9.4,23.1,16.3c6.9,6.9,6,24.1,6,24.1v404c0,0-1.7,10.3-10.3,18.9c-8.6,8.6-20.6,11.2-20.6,11.2v40.4H1533v-41.3
							c0,0-9.4-2.5-18-12.9c-8.6-10.3-9.4-16.4-9.4-16.4v-89.3c0,0,96.3-26.5,169.5-60.2c63.4-29.2,137-70.4,137-187.3
							S1711.1,83.3,1610,83.3L1610,83.3z M1507.3,406.5V167.6c0,0,26.2-6.4,57.5-6.4c46.2,0,103.4,14.1,103.4,83.8
							C1668.2,339.5,1507.3,406.5,1507.3,406.5L1507.3,406.5z"/>
					</g>
					<g>
						
							<linearGradient id="SVGID_00000091701635149885739120000011125148022969335427_" gradientUnits="userSpaceOnUse" x1="2804.2366" y1="656.2762" x2="2700.7783" y2="69.536">
							<stop  offset="0" style="stop-color:#FF9D01"/>
							<stop  offset="0.1496" style="stop-color:#FFA402"/>
							<stop  offset="0.3686" style="stop-color:#FFB805"/>
							<stop  offset="0.6289" style="stop-color:#FFD80A"/>
							<stop  offset="0.7832" style="stop-color:#FFEE0D"/>
							<stop  offset="1" style="stop-color:#FFD70B"/>
						</linearGradient>
						<path style="fill:url(#SVGID_00000091701635149885739120000011125148022969335427_);" d="M2751.9,66.3
							c-181.5,0-317.8,127.9-317.8,293s132.9,300.6,317.8,300.6c184.9,0,317.8-135.6,317.8-300.6S2933.4,66.3,2751.9,66.3z
							 M2751.9,568.1c-80.5,0-164.4-41.3-164.4-206.3s94.1-206.3,164.4-206.3c70.2,0,166.1,51.5,166.1,206.3
							C2918,516.5,2832.4,568.1,2751.9,568.1z"/>
						
							<linearGradient id="SVGID_00000124124440768551710540000011552372146774872970_" gradientUnits="userSpaceOnUse" x1="2751.9377" y1="659.851" x2="2751.9377" y2="66.2947">
							<stop  offset="5.327789e-09" style="stop-color:#FFCF00"/>
							<stop  offset="1" style="stop-color:#FFFF36"/>
						</linearGradient>
						<path style="fill:url(#SVGID_00000124124440768551710540000011552372146774872970_);" d="M2751.9,79.4
							c84.2,0,161.6,28.8,218,81.1c55.9,51.8,86.6,122.4,86.6,198.7c0,77.3-30.4,149.3-85.6,202.7c-27.5,26.6-59.9,47.4-96.3,61.9
							c-38.1,15.2-79.4,22.8-122.8,22.8c-43.4,0-84.7-7.7-122.8-22.8c-36.4-14.5-68.8-35.3-96.3-61.9
							c-55.2-53.4-85.6-125.4-85.6-202.7c0-76.4,30.8-146.9,86.6-198.7C2590.3,108.2,2667.8,79.4,2751.9,79.4 M2751.9,581.3
							c22.8,0,44.5-3.8,64.5-11.3c22.2-8.3,41.8-21,58.1-37.8c17.9-18.3,31.8-41.4,41.2-68.5c10.2-29.2,15.4-63.5,15.4-101.8
							c0-38.2-5.7-72.6-16.9-102.2c-10.2-26.8-24.9-49.8-43.7-68.4c-31.6-31.1-74.8-48.9-118.6-48.9c-20.8,0-40.8,3.3-59.6,9.7
							c-22.1,7.6-41.6,19.4-58,35.2c-18.7,17.9-33.3,40.9-43.3,68.1c-11,30.1-16.6,65.9-16.6,106.4c0,78.7,18.8,137.4,55.9,174.3
							c16,16,35.5,27.9,57.8,35.4C2707.3,578,2728.8,581.3,2751.9,581.3 M2751.9,66.3c-181.5,0-317.8,127.9-317.8,293
							s132.9,300.6,317.8,300.6c184.9,0,317.8-135.6,317.8-300.6S2933.4,66.3,2751.9,66.3L2751.9,66.3z M2751.9,568.1
							c-80.5,0-164.4-41.3-164.4-206.3s94.1-206.3,164.4-206.3c70.2,0,166.1,51.5,166.1,206.3C2918,516.5,2832.4,568.1,2751.9,568.1
							L2751.9,568.1z"/>
					</g>
					<g>
						
							<linearGradient id="SVGID_00000000933784967331232210000015123699758537490350_" gradientUnits="userSpaceOnUse" x1="397.5755" y1="672.5595" x2="292.4453" y2="76.3368">
							<stop  offset="0" style="stop-color:#FF9D01"/>
							<stop  offset="0.1496" style="stop-color:#FFA402"/>
							<stop  offset="0.3686" style="stop-color:#FFB805"/>
							<stop  offset="0.6289" style="stop-color:#FFD80A"/>
							<stop  offset="0.7832" style="stop-color:#FFEE0D"/>
							<stop  offset="1" style="stop-color:#FFD70B"/>
						</linearGradient>
						<path style="fill:url(#SVGID_00000000933784967331232210000015123699758537490350_);" d="M461.6,264.2l16.2,13.3
							c5.6,4.6,13.9,4.1,18.9-1.2l95.5-100.6c0,0-84.7-107.7-225.1-107.7c-145,0-304.7,102.4-304.7,286.9
							C62.4,475.3,180.5,642,392.8,642h178.1V502.8h-32.5c0,0-20.1,53.3-114.7,53.3c-162.6,0-212.3-147.8-212.3-228.7
							c0-80.8,46.2-178.8,150.7-178.8c104.5,0,107.8,67.9,107.8,84.2c0,16.3-9.4,24.9-9.4,28.3C460.4,262.6,460.9,263.6,461.6,264.2
							z"/>
						
							<linearGradient id="SVGID_00000182494834386026787890000013433182600312396179_" gradientUnits="userSpaceOnUse" x1="327.3012" y1="642.0066" x2="327.3012" y2="68.0625">
							<stop  offset="5.327789e-09" style="stop-color:#FFCF00"/>
							<stop  offset="1" style="stop-color:#FFFF36"/>
						</linearGradient>
						<path style="fill:url(#SVGID_00000182494834386026787890000013433182600312396179_);" d="M367.1,81.2
							c30.3,0,60.4,5.3,89.4,15.8c23.3,8.5,46.1,20.3,67.6,35.1c24.1,16.6,41.3,33.4,50.4,43.2l-87.3,91.9c-0.1,0.1-0.2,0.2-0.6,0.2
							c-0.2,0-0.4-0.1-0.5-0.2l-10-8.2c3.1-5.8,6.8-14.5,6.8-26.2c0-21.2-6-40.6-17.3-56c-9.2-12.6-21.8-22.5-37.5-29.4
							c-18-8-40.3-12-66.2-12c-51.8,0-95.1,22.3-125.2,64.6c-24.5,34.5-38.6,80.9-38.6,127.3c0,23.3,3.7,48.7,10.8,73.4
							c8.3,29.2,20.7,55.7,36.7,78.7c18.9,27.2,42.4,48.6,69.8,63.7c31.4,17.2,67.8,26,108.1,26c80.2,0,112.1-36.3,122.6-53.3h11.5
							v112.9H392.8c-48.6,0-94.3-9-136-26.9c-37.5-16-70.9-38.8-99.5-67.6c-25.8-26.1-46.9-56.9-61.2-89.1
							c-13.5-30.6-20.7-61.8-20.7-90.3c0-42.1,8.7-81.5,25.9-116.9c15.8-32.6,38.5-61.4,67.4-85.6
							C222.8,107.2,295.1,81.2,367.1,81.2 M367.1,68.1c-145,0-304.7,102.4-304.7,286.9C62.4,475.3,180.5,642,392.8,642h178.1V502.8
							h-32.5c0,0-20.1,53.3-114.7,53.3c-162.6,0-212.3-147.8-212.3-228.7c0-80.8,46.2-178.8,150.7-178.8
							c104.5,0,107.8,67.9,107.8,84.2c0,16.3-9.4,24.9-9.4,28.3c0,1.3,0.4,2.4,1.1,2.9l16.2,13.3c2.6,2.1,5.7,3.2,8.8,3.2
							c3.7,0,7.4-1.5,10.1-4.3l95.5-100.6C592.2,175.7,507.5,68.1,367.1,68.1L367.1,68.1z"/>
					</g>
					<g>
						
							<linearGradient id="SVGID_00000074401191192699524730000007812625105380146086_" gradientUnits="userSpaceOnUse" x1="2210.6182" y1="673.5538" x2="2105.488" y2="77.3309">
							<stop  offset="0" style="stop-color:#FF9D01"/>
							<stop  offset="0.1496" style="stop-color:#FFA402"/>
							<stop  offset="0.3686" style="stop-color:#FFB805"/>
							<stop  offset="0.6289" style="stop-color:#FFD80A"/>
							<stop  offset="0.7832" style="stop-color:#FFEE0D"/>
							<stop  offset="1" style="stop-color:#FFD70B"/>
						</linearGradient>
						<path style="fill:url(#SVGID_00000074401191192699524730000007812625105380146086_);" d="M2274.6,265.2l16.2,13.3
							c5.6,4.6,13.9,4.1,18.9-1.2l95.5-100.6c0,0-84.7-107.7-225.1-107.7c-145,0-304.7,102.4-304.7,286.9
							c0,120.3,118.2,287.1,330.4,287.1h178.1V503.8h-32.5c0,0-20.1,53.3-114.7,53.3c-162.6,0-212.3-147.8-212.3-228.7
							c0-80.8,46.2-178.8,150.7-178.8c104.5,0,107.8,67.9,107.8,84.2c0,16.3-9.4,24.9-9.4,28.3
							C2273.5,263.6,2273.9,264.6,2274.6,265.2z"/>
						
							<linearGradient id="SVGID_00000153701696344167911010000017273580879780602773_" gradientUnits="userSpaceOnUse" x1="2140.3438" y1="643.001" x2="2140.3438" y2="69.0564">
							<stop  offset="5.327789e-09" style="stop-color:#FFCF00"/>
							<stop  offset="1" style="stop-color:#FFFF36"/>
						</linearGradient>
						<path style="fill:url(#SVGID_00000153701696344167911010000017273580879780602773_);" d="M2180.1,82.2
							c30.3,0,60.4,5.3,89.4,15.8c23.3,8.5,46.1,20.3,67.6,35.1c24.1,16.6,41.3,33.4,50.4,43.2l-87.3,91.9c-0.1,0.1-0.2,0.2-0.6,0.2
							c-0.2,0-0.4-0.1-0.5-0.2l-10-8.2c3.1-5.8,6.8-14.5,6.8-26.2c0-21.2-6-40.6-17.3-56c-9.2-12.6-21.8-22.5-37.5-29.4
							c-18-8-40.3-12-66.2-12c-51.8,0-95.1,22.3-125.2,64.6c-24.5,34.5-38.6,80.9-38.6,127.3c0,23.3,3.7,48.7,10.8,73.4
							c8.3,29.2,20.7,55.7,36.7,78.7c18.9,27.2,42.4,48.6,69.8,63.7c31.4,17.2,67.8,26,108.1,26c80.2,0,112.1-36.3,122.6-53.3h11.5
							v112.9h-164.9c-48.6,0-94.3-9-136-26.9c-37.5-16-70.9-38.8-99.5-67.6c-25.8-26.1-46.9-56.9-61.2-89.1
							c-13.5-30.6-20.7-61.8-20.7-90.3c0-42.1,8.7-81.5,25.9-116.9c15.8-32.6,38.5-61.4,67.4-85.6
							C2035.8,108.1,2108.1,82.2,2180.1,82.2 M2180.1,69.1c-145,0-304.7,102.4-304.7,286.9c0,120.3,118.2,287.1,330.4,287.1h178.1
							V503.8h-32.5c0,0-20.1,53.3-114.7,53.3c-162.6,0-212.3-147.8-212.3-228.7c0-80.8,46.2-178.8,150.7-178.8
							c104.5,0,107.8,67.9,107.8,84.2c0,16.3-9.4,24.9-9.4,28.3c0,1.3,0.4,2.4,1.1,2.9l16.2,13.3c2.6,2.1,5.7,3.2,8.8,3.2
							c3.7,0,7.4-1.5,10.1-4.3l95.5-100.6C2405.3,176.7,2320.5,69.1,2180.1,69.1L2180.1,69.1z"/>
					</g>
				</g>
			</g>
		</g>
	</g>
	<g>
		<g>
			<path class="st1" d="M913.2,1227.5c-90.9,0-157.9-71.5-157.9-162.4c0-90,66.6-163.3,159.3-163.3c57.1,0,91.3,20.2,122.8,49.9
				l-24.3,26.1c-26.5-25.2-56.2-43.2-99-43.2c-69.7,0-121.9,56.2-121.9,129.6c0,73.4,52.6,130.5,121.9,130.5
				c43.2,0,71.5-16.6,101.7-45.4l23.4,23C1006.2,1205.5,970.2,1227.5,913.2,1227.5z"/>
			<path class="st1" d="M1114.7,907.2h35.5v282.1h177.3v32.8h-212.7V907.2z"/>
			<path class="st1" d="M1700,1222.1h-38.2l-36.9-83.2h-171.4l-37.3,83.2h-36.6L1523.1,905h33.3L1700,1222.1z M1539.3,946.4
				l-72,160.6h143.5L1539.3,946.4z"/>
			<path class="st1" d="M1882.1,1047.6c70.2,15.3,102.6,40.9,102.6,89.5c0,54.5-45,89.5-107.5,89.5c-49.9,0-90.9-16.7-128.7-50.4
				l22-26.1c32.8,29.7,64.3,44.5,108,44.5c42.3,0,70.2-22,70.2-54c0-29.7-15.8-46.3-81.9-60.3c-72.4-15.8-105.7-39.1-105.7-91.3
				c0-50.4,43.6-86.4,103.5-86.4c45.9,0,78.7,13,110.7,38.7l-20.7,27.4c-29.2-23.8-58.5-34.2-90.9-34.2c-40.9,0-67,22.5-67,51.3
				C1796.6,1016.1,1812.8,1032.8,1882.1,1047.6z"/>
			<path class="st1" d="M2179.1,1047.6c70.2,15.3,102.6,40.9,102.6,89.5c0,54.5-45,89.5-107.5,89.5c-49.9,0-90.9-16.7-128.7-50.4
				l22-26.1c32.8,29.7,64.3,44.5,108,44.5c42.3,0,70.2-22,70.2-54c0-29.7-15.8-46.3-81.9-60.3c-72.4-15.8-105.7-39.1-105.7-91.3
				c0-50.4,43.6-86.4,103.5-86.4c45.9,0,78.7,13,110.7,38.7l-20.7,27.4c-29.2-23.8-58.5-34.2-90.9-34.2c-40.9,0-67,22.5-67,51.3
				C2093.7,1016.1,2109.9,1032.8,2179.1,1047.6z"/>
			<path class="st1" d="M2406.3,907.2v314.9h-35.5V907.2L2406.3,907.2L2406.3,907.2z"/>
			<path class="st1" d="M2655.9,1227.5c-90.9,0-157.9-71.5-157.9-162.4c0-90,66.6-163.3,159.3-163.3c57.1,0,91.3,20.2,122.8,49.9
				l-24.3,26.1c-26.5-25.2-56.2-43.2-99-43.2c-69.7,0-121.9,56.2-121.9,129.6c0,73.4,52.6,130.5,121.9,130.5
				c43.2,0,71.5-16.6,101.7-45.4l23.4,23C2749.1,1205.5,2713.1,1227.5,2655.9,1227.5z"/>
			<path class="st1" d="M2970.4,1047.6c70.2,15.3,102.6,40.9,102.6,89.5c0,54.5-45,89.5-107.5,89.5c-49.9,0-90.9-16.7-128.7-50.4
				l22-26.1c32.8,29.7,64.3,44.5,108,44.5c42.3,0,70.2-22,70.2-54c0-29.7-15.8-46.3-81.9-60.3c-72.4-15.8-105.7-39.1-105.7-91.3
				c0-50.4,43.6-86.4,103.5-86.4c45.9,0,78.7,13,110.7,38.7l-20.7,27.4c-29.2-23.8-58.5-34.2-90.9-34.2c-40.9,0-67,22.5-67,51.3
				C2884.9,1016.1,2901.1,1032.8,2970.4,1047.6z"/>
		</g>
	</g>
</g>
</svg>
