<?xml version="1.0" encoding="utf-8"?>
<!-- Generator: Adobe Illustrator 25.0.0, SVG Export Plug-In . SVG Version: 6.00 Build 0)  -->
<svg version="1.1" id="Layer_1" xmlns="http://www.w3.org/2000/svg" xmlns:xlink="http://www.w3.org/1999/xlink" x="0px" y="0px"
	 viewBox="0 0 1938.9 2159.5" style="enable-background:new 0 0 1938.9 2159.5;" xml:space="preserve">
<style type="text/css">
	.st0{fill:#098A44;}
	.st1{fill:#DA1F26;}
	.st2{fill:#FFFFFF;}
	.st3{fill:#7C0E16;}
	.st4{fill:#AA001D;}
</style>
<g>
	<g>
		<g id="グループ_1_7_" transform="translate(-96.55 -122.333)">
			<path id="パス_1_14_" class="st0" d="M97.6,2100.4c-2.4-29,9.7-55.6,31.4-72.6l41.1-33.9c19.4-16.9,46-24.2,70.1-21.8h87.1
				c19.4,0,38.7,4.8,38.7,26.6c0,21.8-21.8,26.6-38.7,26.6h-96.8c-12.1,0-21.8,4.8-31.4,14.5l-33.9,29c-9.7,7.3-14.5,12.1-14.5,24.2
				v67.7c0,9.7,7.3,19.4,14.5,24.2l33.9,26.6c9.7,7.3,19.4,12.1,31.4,14.5h96.8c16.9,0,38.7,2.4,38.7,26.6
				c0,24.2-19.4,26.6-38.7,26.6h-87.1c-26.6,2.4-50.8-4.8-70.1-21.8l-41.1-33.9c-24.2-16.9-36.3-43.5-31.4-72.6V2100.4z"/>
			<path id="パス_2_14_" class="st0" d="M741,2027.9c-16.9,0-36.3-2.4-36.3-26.6s19.4-26.6,36.3-26.6h75
				c26.6-2.4,50.8,4.8,70.1,24.2c16.9,16.9,26.6,41.1,24.2,65.3l4.8,183.8c0,16.9-7.3,31.4-24.2,31.4c-14.5,0-26.6-12.1-29-26.6
				l-36.3,19.4c-9.7,7.3-21.8,9.7-33.9,7.3h-53.2c-21.8,2.4-43.5-4.8-62.9-19.4c-19.4-16.9-31.4-41.1-29-67.7v-24.2
				c-2.4-24.2,7.3-46,26.6-60.5c16.9-14.5,41.1-21.8,62.9-19.4h116.1v-12.1c0-41.1-9.7-48.4-48.4-48.4H741z M738.6,2144
				c-14.5,0-36.3,4.8-36.3,24.2v36.3c0,19.4,21.8,21.8,36.3,21.8h60.5l60.5-31.4v-12.1c0-29-9.7-38.7-38.7-38.7L738.6,2144z"/>
			<path id="パス_3_14_" class="st0" d="M1425.6,2042.4v-26.6c0-19.4,2.4-41.1,26.6-41.1c19.4,0,26.6,14.5,26.6,33.9v38.7
				c0,7.3-2.4,14.5-7.3,21.8l-82.2,179c-4.8,12.1-14.5,33.9-29,33.9h-33.9c-14.5,0-24.2-21.8-29-33.9l-82.2-179
				c-4.8-7.3-7.3-14.5-7.3-21.8v-38.7c0-16.9,7.3-33.9,26.6-33.9c24.2,0,29,21.8,29,41.1v26.6l79.8,181.4L1425.6,2042.4z"/>
			<path id="パス_4_14_" class="st0" d="M1865.8,2279.4c-16.9,2.4-36.3-2.4-48.4-14.5l-24.2-19.4c-19.4-14.5-29-36.3-26.6-60.5
				v-104c-2.4-24.2,7.3-48.4,26.6-65.3l19.4-16.9c14.5-16.9,38.7-24.2,60.5-21.8h50.8c21.8-2.4,43.5,4.8,60.5,19.4l21.8,16.9
				c21.8,16.9,31.4,43.5,29,70.1v43.5c0,31.4-4.8,41.1-36.3,41.1h-174.2v19.4c0,4.8,2.4,12.1,7.3,16.9l14.5,14.5
				c9.7,7.3,24.2,12.1,36.3,9.7h116.1c19.4,0,36.3,4.8,36.3,26.6c0,24.2-21.8,26.6-36.3,26.6L1865.8,2279.4z M1819.8,2112.5h157.2
				v-33.9c0-9.7,0-19.4-7.3-24.2l-21.8-19.4c-7.3-4.8-16.9-7.3-26.6-7.3h-46c-9.7,0-19.4,0-26.6,7.3l-19.4,14.5
				c-7.3,4.8-12.1,14.5-12.1,24.2L1819.8,2112.5z"/>
			<path id="パス_5_14_" class="st1" d="M1640.8,1152.2c-24.2-60.5-75-106.4-137.9-123.4c2.4,0-89.5-31.4-133-46
				c-38.7-16.9-82.2-21.8-123.4-16.9c-67.7,9.7-125.8,50.8-157.2,111.3l-9.7-324.1l21.8-7.3c7.3,4.8,14.5,12.1,21.8,14.5
				c4.8,2.4,12.1,7.3,19.4,9.7l150,70.1c38.7,16.9,82.2,21.8,123.4,12.1c191.1-62.9,181.4-234.6,181.4-237s-12.1-145.1-14.5-220.1
				v-2.4c-7.3-38.7-31.4-75-62.9-99.2l-147.6-137.9c-2.4,0-2.4-2.4-4.8-2.4c-9.7-7.3-16.9-12.1-29-16.9
				c-33.9-16.9-75-19.4-111.3-2.4c0,0-512.8,278.2-558.8,302.4c-33.9,24.2-55.6,60.5-58.1,101.6c-9.7,65.3-14.5,79.8-38.7,99.2
				c-43.5,16.9-72.6,58.1-75,106.4l-26.6,541.8c0,33.9,14.5,101.6,82.2,113.7c9.7,0,16.9,4.8,21.8,12.1c9.7,19.4,12.1,41.1,4.8,62.9
				c0,2.4,0,2.4,0,4.8c0,9.7,0,82.2,36.3,113.7c7.3,12.1,58.1,113.7,133,120.9l60.5,4.8c79.8,7.3,215.3,21.8,268.5,26.6
				c16.9,2.4,33.9,0,48.4-4.8c26.6-2.4,108.8-12.1,162.1-19.4c135.5-21.8,166.9-171.7,174.2-225c46-9.7,87.1-36.3,118.5-75l2.4-2.4
				C1667.4,1299.8,1662.6,1207.9,1640.8,1152.2z M992.6,1328.8c-16.9,0-133,9.7-186.3,9.7c-7.3,0-14.5-2.4-19.4-7.3
				c-12.1-14.5-16.9-31.4-16.9-50.8l2.4-609.6c0-2.4-2.4-62.9,31.4-79.8c48.4-21.8,162.1-79.8,179-89.5c14.5-4.8,29-4.8,43.5,2.4
				c2.4,2.4,4.8,4.8,4.8,9.7l9.7,46c0,9.7,2.4,19.4,7.3,26.6c-4.8-2.4-9.7,0-14.5,0l-154.8,62.9l0,0c-2.4,0-2.4,2.4-4.8,2.4l0,0
				c-2.4,2.4-2.4,2.4-4.8,4.8l0,0c0,0-2.4,2.4-2.4,4.8v2.4c0,0,0,0,0,2.4s0,2.4,0,4.8l0,0l0,0l0,0l0,0l2.4,592.6
				c0,7.3,2.4,12.1,7.3,16.9s9.7,4.8,16.9,4.8l166.9-16.9C1053.1,1307,1002.3,1324,992.6,1328.8L992.6,1328.8z M1055.5,716.8
				l-111.3-43.5l82.2-33.9c9.7,26.6,21.8,53.2,38.7,75L1055.5,716.8z M912.8,1239.3l-2.4-537l123.4,50.8l14.5,471.7L912.8,1239.3z
				 M1536.8,402.4c4.8,75,14.5,217.7,14.5,217.7c0,4.8,4.8,140.3-152.4,193.5c-31.4,4.8-62.9,0-91.9-9.7c0,0-33.9-14.5-67.7-31.4
				c208-70.1,198.3-258.8,198.3-261.2c0-2.4-12.1-154.8-16.9-239.5l65.3,60.5C1512.6,346.7,1529.6,373.4,1536.8,402.4z
				 M1319.1,177.4c33.9,16.9,55.6,48.4,60.5,84.7c4.8,84.7,16.9,246.7,16.9,249.1c0,7.3,7.3,159.6-171.7,217.7
				c-21.8,7.3-43.5,9.7-65.3,2.4c-4.8-2.4-7.3-4.8-7.3-4.8s-2.4,0-2.4-2.4h-2.4c-43.5-24.2-65.3-79.8-75-108.8
				c26.6,24.2,62.9,31.4,96.8,19.4c84.7-21.8,108.8-104,108.8-145.1V487c0-2.4-14.5-195.9-16.9-254c0-2.4,0-2.4,0-4.8
				c-4.8-16.9-14.5-33.9-29-46l19.4-9.7C1270.7,165.3,1297.4,165.3,1319.1,177.4L1319.1,177.4z M562,1360.2
				c-48.4-7.3-46-65.3-46-67.7l26.6-544.2c0-31.4,19.4-58.1,48.4-67.7c2.4,0,4.8-2.4,7.3-2.4c41.1-31.4,48.4-62.9,58.1-130.6
				c2.4-26.6,14.5-53.2,36.3-70.1c154.8-84.7,454.7-249.1,466.8-254c12.1-7.3,26.6-9.7,41.1-4.8c7.3,4.8,14.5,12.1,14.5,21.8
				c2.4,60.5,14.5,232.2,16.9,251.6c0,9.7-7.3,84.7-77.4,101.6c-16.9,7.3-33.9,4.8-48.4-2.4c-12.1-9.7-19.4-21.8-19.4-36.3v-2.4
				l-12.1-48.4c-2.4-16.9-12.1-29-26.6-38.7c-24.2-12.1-53.2-14.5-79.8-4.8c-2.4,0-2.4,0-4.8,2.4c-2.4,0-128.2,65.3-179,89.5
				c-60.5,29-55.6,116.1-55.6,120.9c0-2.4-2.4,607.1-2.4,607.1c0,29,9.7,60.5,29,82.2c14.5,12.1,31.4,19.4,50.8,19.4
				c58.1-2.4,186.3-9.7,191.1-9.7c2.4,0,2.4,0,4.8,0c4.8-2.4,94.3-26.6,101.6-101.6c4.8-41.1,9.7-84.7,9.7-84.7
				c0-2.4,14.5-70.1,75-82.2c19.4-4.8,38.7-2.4,55.6,7.3c14.5,12.1,26.6,29,29,48.4c0,2.4,16.9,77.4-16.9,120.9
				c-24.2,24.2-55.6,38.7-89.5,43.5c-2.4,0-2.4,0-2.4,0c-2.4,0-75,14.5-89.5,125.8c-4.8,31.4-4.8,46-4.8,55.6
				c0,14.5-4.8,29-9.7,43.5c-7.3,24.2-46,41.1-79.8,41.1c-38.7,0-268.5-12.1-324.1-16.9c-21.8-2.4-29-53.2-29-79.8
				c7.3-31.4,2.4-65.3-12.1-94.3C603.1,1374.8,583.8,1362.7,562,1360.2z M1082.1,1703.7c-50.8-4.8-186.3-16.9-266.1-26.6l-60.5-4.8
				c-29-2.4-55.6-31.4-75-60.5c79.8,4.8,266.1,16.9,302.4,16.9c50.8-2.4,108.8-26.6,120.9-72.6c4.8-16.9,9.7-33.9,9.7-50.8
				c0-9.7,2.4-24.2,4.8-53.2c9.7-72.6,46-84.7,53.2-87.1c46-4.8,87.1-24.2,118.5-58.1c0,0,0-2.4,2.4-2.4
				c46-58.1,26.6-150,24.2-154.8c-4.8-31.4-21.8-58.1-48.4-75c-26.6-16.9-60.5-21.8-91.9-14.5c-12.1,2.4-24.2,7.3-33.9,12.1
				c26.6-33.9,65.3-55.6,106.4-60.5c26.6-2.4,50.8-2.4,77.4,4.8c2.4,0,2.4,2.4,4.8,2.4l21.8,7.3c31.4,14.5,58.1,38.7,77.4,67.7
				c29,43.5,60.5,140.3-43.5,292.7c-58.1,65.3-108.8,67.7-116.1,67.7h-2.4c-2.4,0-2.4,0-2.4,0l0,0c-9.7,2.4-14.5,7.3-16.9,16.9l0,0
				v2.4c0,0,0,0,0,2.4c-2.4,26.6-19.4,145.1-84.7,200.8c-12.1,12.1-29,21.8-46,24.2c-2.4,0-4.8,0-4.8,0c-2.4,0-4.8,0-7.3,2.4
				C1099,1703.7,1091.8,1703.7,1082.1,1703.7z M1282.8,1679.5c-21.8,2.4-46,7.3-72.6,9.7c43.5-55.6,70.1-123.4,77.4-193.5l128.2,2.4
				C1413.5,1548.9,1386.9,1665,1282.8,1679.5L1282.8,1679.5z M1548.9,1396.5c-53.2,60.5-101.6,60.5-104,60.5l0,0l0,0l-65.3-2.4
				c16.9-12.1,31.4-26.6,46-43.5c0,0,0-2.4,2.4-2.4c116.1-171.7,77.4-287.8,43.5-341.1c-2.4-2.4-2.4-4.8-4.8-7.3l24.2,7.3
				c50.8,12.1,91.9,48.4,108.8,96.8C1616.6,1212.7,1621.5,1290.1,1548.9,1396.5L1548.9,1396.5z"/>
		</g>
	</g>
	<g>
		<path class="st2" d="M963.8,1426.6c4.8-14.5,9.7-29,9.7-43.5c0-9.7,0-24.2,4.8-55.6c14.5-111.3,87.1-125.8,89.5-125.8
			c0,0,0,0,2.4,0c33.9-4.8,65.3-19.4,89.5-43.5c33.9-43.5,16.9-118.5,16.9-120.9c-2.4-19.4-14.5-36.3-29-48.4
			c-16.9-9.7-36.3-12.1-55.6-7.3c-60.5,12.1-75,79.8-75,82.2c0,0-4.8,43.5-9.7,84.7c-7.3,75-96.8,99.2-101.6,101.6
			c-2.4,0-2.4,0-4.8,0c-4.8,0-133,7.3-191.1,9.7c-19.4,0-36.3-7.3-50.8-19.4c-19.4-21.8-29-53.2-29-82.2c0,0,2.4-609.6,2.4-607.1
			c0-4.8-4.8-91.9,55.6-120.9c50.8-24.2,176.6-89.5,179-89.5c2.4-2.4,2.4-2.4,4.8-2.4c26.6-9.7,55.6-7.3,79.8,4.8
			c14.5,9.7,24.2,21.8,26.6,38.7l12.1,48.4v2.4c0,14.5,7.3,26.6,19.4,36.3c14.5,7.3,31.4,9.7,48.4,2.4
			c70.1-16.9,77.4-91.9,77.4-101.6c-2.4-19.4-14.5-191.1-16.9-251.6c0-9.7-7.3-16.9-14.5-21.8c-14.5-4.8-29-2.4-41.1,4.8
			c-12.1,4.8-312,169.3-466.8,254c-21.8,16.9-33.9,43.5-36.3,70.1c-9.7,67.7-16.9,99.2-58.1,130.6c-2.4,0-4.8,2.4-7.3,2.4
			c-29,9.7-48.4,36.3-48.4,67.7l-26.6,544.2c0,2.4-2.4,60.5,46,67.7c21.8,2.4,41.1,14.5,53.2,38.7c14.5,29,19.4,62.9,12.1,94.3
			c0,26.6,7.3,77.4,29,79.8c55.6,4.8,285.4,16.9,324.1,16.9C917.8,1467.7,956.5,1450.8,963.8,1426.6z"/>
		<path class="st2" d="M690.4,1208.9c4.8,4.8,12.1,7.3,19.4,7.3c53.2,0,169.3-9.7,186.3-9.7c9.7-4.8,60.5-21.8,67.7-60.5
			l-166.9,16.9c-7.3,0-12.1,0-16.9-4.8c-4.8-4.8-7.3-9.7-7.3-16.9l-2.4-592.6c0-2.4,0-2.4,0-4.8c0-2.4,0-2.4,0-2.4v-2.4
			c0-2.4,2.4-4.8,2.4-4.8c2.4-2.4,2.4-2.4,4.8-4.8c2.4,0,2.4-2.4,4.8-2.4l154.8-62.9c4.8,0,9.7-2.4,14.5,0
			c-4.8-7.3-7.3-16.9-7.3-26.6l-9.7-46c0-4.8-2.4-7.3-4.8-9.7c-14.5-7.3-29-7.3-43.5-2.4c-16.9,9.7-130.6,67.7-179,89.5
			c-33.9,16.9-31.4,77.4-31.4,79.8l-2.4,609.6C673.5,1177.4,678.3,1194.4,690.4,1208.9z"/>
		<path class="st2" d="M1164.5,105.9c0,2.4,0,2.4,0,4.8c2.4,58.1,16.9,251.6,16.9,254v2.4c0,41.1-24.2,123.4-108.8,145.1
			c-33.9,12.1-70.1,4.8-96.8-19.4c9.7,29,31.4,84.7,75,108.8h2.4c0,2.4,2.4,2.4,2.4,2.4s2.4,2.4,7.3,4.8c21.8,7.3,43.5,4.8,65.3-2.4
			c179-58.1,171.7-210.4,171.7-217.7c0-2.4-12.1-164.5-16.9-249.1c-4.8-36.3-26.6-67.7-60.5-84.7c-21.8-12.1-48.4-12.1-67.7-4.8
			l-19.4,9.7C1150,72,1159.7,89,1164.5,105.9z"/>
		<path class="st2" d="M1142.8,650.1c33.9,16.9,67.7,31.4,67.7,31.4c29,9.7,60.5,14.5,91.9,9.7c157.2-53.2,152.4-188.7,152.4-193.5
			c0,0-9.7-142.7-14.5-217.7c-7.3-29-24.2-55.6-50.8-70.1l-65.3-60.5c4.8,84.7,16.9,237,16.9,239.5
			C1341.1,391.3,1350.8,580,1142.8,650.1z"/>
		<polygon class="st2" points="937.1,630.8 813.8,580 816.2,1117 951.7,1102.5 		"/>
		<path class="st2" d="M1113.7,1566.9c26.6-2.4,50.8-7.3,72.6-9.7c104-14.5,130.6-130.6,133-181.4l-128.2-2.4
			C1183.9,1443.5,1157.3,1511.2,1113.7,1566.9z"/>
		<path class="st2" d="M929.9,517.1L847.7,551l111.3,43.5l9.7-2.4C951.7,570.3,939.6,543.7,929.9,517.1z"/>
		<path class="st2" d="M1394.3,945.2l-24.2-7.3c2.4,2.4,2.4,4.8,4.8,7.3c33.9,53.2,72.6,169.3-43.5,341.1c-2.4,0-2.4,2.4-2.4,2.4
			c-14.5,16.9-29,31.4-46,43.5l65.3,2.4c2.4,0,50.8,0,104-60.5c72.6-106.4,67.7-183.8,50.8-232.2
			C1486.2,993.6,1445.1,957.3,1394.3,945.2z"/>
		<path class="st2" d="M1152.4,1351.6v-2.4c2.4-9.7,7.3-14.5,16.9-16.9c0,0,0,0,2.4,0h2.4c7.3,0,58.1-2.4,116.1-67.7
			c104-152.4,72.6-249.1,43.5-292.7c-19.4-29-46-53.2-77.4-67.7l-21.8-7.3c-2.4,0-2.4-2.4-4.8-2.4c-26.6-7.3-50.8-7.3-77.4-4.8
			c-41.1,4.8-79.8,26.6-106.4,60.5c9.7-4.8,21.8-9.7,33.9-12.1c31.4-7.3,65.3-2.4,91.9,14.5c26.6,16.9,43.5,43.5,48.4,75
			c2.4,4.8,21.8,96.8-24.2,154.8c-2.4,0-2.4,2.4-2.4,2.4c-31.4,33.9-72.6,53.2-118.5,58.1c-7.3,2.4-43.5,14.5-53.2,87.1
			c-2.4,29-4.8,43.5-4.8,53.2c0,16.9-4.8,33.9-9.7,50.8c-12.1,46-70.1,70.1-120.9,72.6c-36.3,0-222.5-12.1-302.4-16.9
			c19.4,29,46,58.1,75,60.5l60.5,4.8c79.8,9.7,215.3,21.8,266.1,26.6c9.7,0,16.9,0,24.2,0c2.4-2.4,4.8-2.4,7.3-2.4c0,0,2.4,0,4.8,0
			c16.9-2.4,33.9-12.1,46-24.2c65.3-55.6,82.2-174.2,84.7-200.8C1152.4,1351.6,1152.4,1351.6,1152.4,1351.6z"/>
	</g>
</g>
</svg>
