<?xml version="1.0" encoding="utf-8"?>
<!-- Generator: Adobe Illustrator 26.0.3, SVG Export Plug-In . SVG Version: 6.00 Build 0)  -->
<svg version="1.1" id="Layer_1" xmlns="http://www.w3.org/2000/svg" xmlns:xlink="http://www.w3.org/1999/xlink" x="0px" y="0px"
	 viewBox="0 0 3839 1907.1" style="enable-background:new 0 0 3839 1907.1;" xml:space="preserve">
<style type="text/css">
	.st0{fill:#FF0C00;}
	.st1{fill:#FFFFFF;}
</style>
<g>
	<g>
		<g>
			<path class="st0" d="M1634.4,0h318.9c175.4,0,253.4,65.5,253.4,244.2v131.7c0,172.1-55.4,253.4-230.7,253.4h-341.5L1634.4,0
				L1634.4,0z M1802.2,483.4h146.9c62.1,0,84.8-41.1,84.8-107.4V244.2c0-81.4-26-98.2-84.8-98.2h-146.9V483.4z"/>
			<path class="st0" d="M2405.5,521.1l-31.1,108.3h-174.6L2388.7,0h255.1l191.4,629.3H2664l-32.7-108.3H2405.5z M2519.6,125.9h-1.7
				l-76.4,272.7h156.1L2519.6,125.9z"/>
			<path class="st0" d="M3099.6,629.3h-167.9V146h-161.2V0h498.6v146h-169.6V629.3z"/>
			<path class="st0" d="M3409.3,521.1l-31.1,108.3h-174.6L3392.6,0h255.1L3839,629.3h-171.2l-32.8-108.3H3409.3z M3523.5,125.9h-1.7
				l-76.4,272.7h156.1L3523.5,125.9z"/>
		</g>
		<path class="st0" d="M1802.3,1015.3h268.5V1132h-268.5v122.5h292v137.7h-459.9V762.8h454v137.7h-286.1V1015.3z"/>
		<path class="st0" d="M2337.1,1285l-31.1,108.3h-174.6l188.9-629.3h255.1l191.4,629.3h-171.2l-32.7-108.3H2337.1z M2451.3,889.8
			h-1.7l-76.4,272.7h156.1L2451.3,889.8z"/>
		<path class="st0" d="M3085.6,1010.6c186.3,13.4,232.4,36.9,232.4,181.3c0,104.1,4.2,206.4-272.7,206.4
			c-160.3,0-266.8-3.4-266.8-209.7h161.2c0,65.5,23.5,72.2,105.8,72.2c78.9,0,104.9-5,104.9-57.9c0-54.6-9.2-53.7-88.1-58.8
			l-36.9-2.5c-155.3-10.9-245.8-10.1-245.8-190.5s101.4-192.3,265.8-192.3c137.7,0,255.1,2.5,255.1,176.3v26h-161.2
			c0-64.6-26.9-64.6-94-64.6c-90.7,0-98.2,18.5-98.2,53.7c0,50.4,24.3,52,68.8,55.4L3085.6,1010.6z"/>
		<path class="st0" d="M3669.4,1393.2h-167.9V909.9h-161.2v-146H3839v146h-169.6V1393.2z"/>
		<path class="st0" d="M41.8,252.7c-14.1,0-28.1,0.7-41.8,2v888.8c13.8,1.3,27.7,2,41.8,2c246.1,0,446.4-200.2,446.4-446.4
			S288,252.7,41.8,252.7z"/>
		<path class="st0" d="M41.8,0C27.8,0,13.9,0.5,0,1.4v185.9c13.8-1.1,27.7-1.8,41.8-1.8c283.3,0,513.8,230.4,513.8,513.8
			S325.1,1213,41.8,1213c-14.1,0-28-0.7-41.8-1.8V1397c13.9,0.8,27.8,1.4,41.8,1.4c386.1,0,699.1-313,699.1-699.1S428,0,41.8,0z"/>
		<path class="st0" d="M1425,1398.2c14.1,0,28-0.5,41.8-1.4V1211c-13.8,1.1-27.7,1.8-41.8,1.8c-283.3,0-513.8-230.4-513.8-513.8
			s230.4-513.8,513.8-513.8c14.1,0,28,0.7,41.8,1.8V1.4C1452.9,0.6,1439,0,1425,0c-386.1,0-699.1,313-699.1,699.1
			S1038.9,1398.2,1425,1398.2z"/>
		<g>
			<path class="st0" d="M1466.8,665.6V254.7c-13.8-1.3-27.7-2-41.8-2c-234.8,0-427.8,182.4-445,412.9H1466.8z"/>
			<path class="st0" d="M980,732.6c17.2,230.5,210.1,412.9,445,412.9c14.1,0,28.1-0.7,41.8-2V732.6L980,732.6L980,732.6z"/>
		</g>
	</g>
	<g>
		<g>
			<path class="st1" d="M873.2,1907.1c-90.9,0-157.9-71.5-157.9-162.4c0-90,66.6-163.3,159.3-163.3c57.1,0,91.3,20.2,122.8,49.9
				l-24.3,26.1c-26.5-25.2-56.2-43.2-99-43.2c-69.7,0-121.9,56.2-121.9,129.6c0,73.4,52.6,130.5,121.9,130.5
				c43.2,0,71.5-16.6,101.7-45.4l23.4,23C966.2,1885.1,930.3,1907.1,873.2,1907.1z"/>
			<path class="st1" d="M1074.7,1586.8h35.5v282h177.3v32.8h-212.7V1586.8z"/>
			<path class="st1" d="M1660,1901.7h-38.2l-36.9-83.2h-171.4l-37.3,83.2h-36.6l143.5-317.1h33.3L1660,1901.7z M1499.4,1626
				l-72,160.6h143.5L1499.4,1626z"/>
			<path class="st1" d="M1842.2,1727.2c70.2,15.3,102.6,40.9,102.6,89.5c0,54.5-45,89.5-107.5,89.5c-49.9,0-90.9-16.7-128.7-50.4
				l22-26.1c32.8,29.7,64.3,44.5,108,44.5c42.3,0,70.2-22,70.2-54c0-29.7-15.8-46.3-81.9-60.3c-72.4-15.8-105.7-39.1-105.7-91.3
				c0-50.4,43.6-86.4,103.5-86.4c45.9,0,78.7,13,110.7,38.7l-20.7,27.4c-29.2-23.8-58.5-34.2-90.9-34.2c-40.9,0-67,22.5-67,51.3
				C1756.7,1695.7,1772.9,1712.4,1842.2,1727.2z"/>
			<path class="st1" d="M2139.1,1727.2c70.2,15.3,102.6,40.9,102.6,89.5c0,54.5-45,89.5-107.5,89.5c-49.9,0-90.9-16.7-128.7-50.4
				l22-26.1c32.8,29.7,64.3,44.5,108,44.5c42.3,0,70.2-22,70.2-54c0-29.7-15.8-46.3-81.9-60.3c-72.4-15.8-105.7-39.1-105.7-91.3
				c0-50.4,43.6-86.4,103.5-86.4c45.9,0,78.7,13,110.7,38.7l-20.7,27.4c-29.2-23.8-58.5-34.2-90.9-34.2c-40.9,0-67,22.5-67,51.3
				C2053.7,1695.7,2069.9,1712.4,2139.1,1727.2z"/>
			<path class="st1" d="M2366.3,1586.8v314.9h-35.5v-314.9H2366.3z"/>
			<path class="st1" d="M2616,1907.1c-90.9,0-157.9-71.5-157.9-162.4c0-90,66.6-163.3,159.3-163.3c57.1,0,91.3,20.2,122.8,49.9
				l-24.3,26.1c-26.5-25.2-56.2-43.2-99-43.2c-69.7,0-121.9,56.2-121.9,129.6c0,73.4,52.6,130.5,121.9,130.5
				c43.2,0,71.5-16.6,101.7-45.4l23.4,23C2709.1,1885.1,2673.1,1907.1,2616,1907.1z"/>
			<path class="st1" d="M2930.4,1727.2c70.2,15.3,102.6,40.9,102.6,89.5c0,54.5-45,89.5-107.5,89.5c-49.9,0-90.9-16.7-128.7-50.4
				l22-26.1c32.8,29.7,64.3,44.5,108,44.5c42.3,0,70.2-22,70.2-54c0-29.7-15.8-46.3-81.9-60.3c-72.4-15.8-105.7-39.1-105.7-91.3
				c0-50.4,43.6-86.4,103.5-86.4c45.9,0,78.7,13,110.7,38.7l-20.7,27.4c-29.2-23.8-58.5-34.2-90.9-34.2c-40.9,0-67,22.5-67,51.3
				C2845,1695.7,2861.2,1712.4,2930.4,1727.2z"/>
		</g>
	</g>
</g>
</svg>
