<?xml version="1.0" encoding="utf-8"?>
<!-- Generator: Adobe Illustrator 25.4.1, SVG Export Plug-In . SVG Version: 6.00 Build 0)  -->
<svg version="1.1" id="Layer_1" xmlns="http://www.w3.org/2000/svg" xmlns:xlink="http://www.w3.org/1999/xlink" x="0px" y="0px"
	 viewBox="0 0 3839 802" style="enable-background:new 0 0 3839 802;" xml:space="preserve">
<style type="text/css">
	.st0{fill:#FFFFFF;}
	.st1{fill:#7B9A99;}
	.st2{fill:url(#SVGID_1_);}
	.st3{clip-path:url(#SVGID_00000052787315902704661260000009573161950999057833_);}
	.st4{fill:#606161;}
	.st5{clip-path:url(#SVGID_00000079445217280953309150000012684946235350207921_);}
	.st6{clip-path:url(#SVGID_00000034084496616002671210000017986395695542706580_);}
	.st7{fill:url(#SVGID_00000045614216665307970300000003269550757246499767_);}
	.st8{fill:url(#SVGID_00000145771135630097523130000016516527333357043611_);}
	.st9{fill:url(#SVGID_00000109740898946154065900000000833703950658146720_);}
	.st10{fill:url(#SVGID_00000172438329989387791300000006697865444885918622_);}
	.st11{fill:#F58746;}
	.st12{fill:url(#SVGID_00000027601257413826698020000004406392376117139116_);}
	.st13{fill:url(#SVGID_00000106145514627422063680000003199400299684732594_);}
	.st14{fill:url(#SVGID_00000121994365965664153820000009726571363446624662_);}
	.st15{fill:url(#SVGID_00000059305651430576886550000010104086470182043808_);}
	.st16{fill:url(#SVGID_00000036233110457332215770000005297311137396338337_);}
	.st17{fill:url(#SVGID_00000004524977577965642370000010496204276914381238_);}
	.st18{fill:url(#SVGID_00000169528604380531695420000008198166039435654281_);}
	.st19{fill:url(#SVGID_00000054951770205609678130000018045559930590544552_);}
	.st20{fill:url(#SVGID_00000052069555459638502540000010158945242645885842_);}
	.st21{fill:url(#SVGID_00000095300610610791809520000004558102292837361284_);}
	.st22{fill:url(#SVGID_00000141430823063342256360000017439267782579941776_);}
	.st23{fill:url(#SVGID_00000105402249464469221440000005205462149963394217_);}
	.st24{opacity:0.25;fill:url(#SVGID_00000018233557524194787470000016428263519648388487_);}
	.st25{fill:url(#SVGID_00000083801514665410266420000004792580609862655159_);}
	.st26{fill:url(#SVGID_00000052072079721299671860000007808494624900425375_);}
	.st27{fill:url(#SVGID_00000042711499470229954430000001762361166922840762_);}
	.st28{fill:url(#SVGID_00000161610010306167223110000002156707910785269645_);}
	.st29{fill:url(#SVGID_00000157301246500741137720000017079650225041581709_);}
	.st30{fill:url(#SVGID_00000004503735036406338480000015149368658703147932_);}
	.st31{fill:url(#SVGID_00000111878848163551136850000007482012951241948854_);}
	.st32{fill:url(#SVGID_00000132078102917075623390000009366129142452825756_);}
	.st33{fill:url(#SVGID_00000011735833889648746850000013793744577503054735_);}
	.st34{fill:url(#SVGID_00000068657154146682137420000014289248283311830970_);}
	.st35{fill:url(#SVGID_00000043417522181259374400000006203126912219712191_);}
	.st36{fill:url(#SVGID_00000018952909532725471070000011966677088745137593_);}
	.st37{fill:url(#SVGID_00000153670728909761873460000006381954377552864131_);}
	.st38{fill:url(#SVGID_00000036964322960915824390000002469572121391028154_);}
	.st39{fill:url(#SVGID_00000001649760664275636880000008824027620369265831_);}
	.st40{opacity:0.25;fill:url(#SVGID_00000173159713584518449400000016537918189680836249_);}
	.st41{fill:url(#SVGID_00000182530244809220629360000008478867405728902561_);}
	.st42{fill:url(#SVGID_00000125581335655337169900000009552569890733365144_);}
	.st43{fill:url(#SVGID_00000179606894222955244460000002564409456686763197_);}
	.st44{fill:url(#SVGID_00000128454312905059133070000017542708554311319681_);}
	.st45{fill:url(#SVGID_00000116201111472429888590000014583969832240582832_);}
	.st46{fill:url(#SVGID_00000104704751277643094080000005937346341072926104_);}
	.st47{fill:url(#SVGID_00000034050339519098509050000012483809764782188956_);}
	.st48{fill:url(#SVGID_00000146479817284427188480000006780171912221311899_);}
	.st49{clip-path:url(#SVGID_00000034085666112081925910000003517366174172694700_);}
	.st50{clip-path:url(#SVGID_00000121977669578909076440000002654058069624232348_);}
	.st51{clip-path:url(#SVGID_00000037667057879052691090000007080515702348075688_);}
	.st52{fill:url(#SVGID_00000116920681302910127180000010090191647591264680_);}
	.st53{fill:url(#SVGID_00000116922556120762291730000009945198677038129798_);}
	.st54{fill:url(#SVGID_00000035531105982891080560000013825158442499429033_);}
	.st55{fill:url(#SVGID_00000044152615190665892230000002716291291241920953_);}
	.st56{fill:url(#SVGID_00000134233835192262561370000002382260964653777065_);}
	.st57{fill:url(#SVGID_00000042696165137691770530000016854717690556795795_);}
	.st58{fill:url(#SVGID_00000123403848400167935210000004274942712893575311_);}
	.st59{clip-path:url(#SVGID_00000090270260963440082310000009957485662603973760_);}
	.st60{clip-path:url(#SVGID_00000018918165457634875600000000195179783904488632_);}
	.st61{clip-path:url(#SVGID_00000159437450302496191080000016039842299364056709_);}
	.st62{fill:url(#SVGID_00000054944004634623760030000002289149431112816827_);}
	.st63{clip-path:url(#SVGID_00000159466431627104172020000003250535948469290403_);}
	.st64{clip-path:url(#SVGID_00000111169367365231314120000016579279157435646641_);}
	.st65{clip-path:url(#SVGID_00000172400729980449101650000015769808603277345714_);}
	.st66{fill:url(#SVGID_00000180355534333037921210000015652610860973736616_);}
	.st67{fill:url(#SVGID_00000155120381266772735970000009766720072209698972_);}
	.st68{fill:url(#SVGID_00000043433647777930272070000010631532479431604110_);}
	.st69{fill:url(#SVGID_00000170272529829811774790000012779967886560278928_);}
	.st70{fill:url(#SVGID_00000075131009392923279410000016270577299040202118_);}
	.st71{fill:url(#SVGID_00000049185315375536877080000008630237556347090851_);}
	.st72{fill:url(#SVGID_00000026148258550672976320000005244619732997985713_);}
	.st73{fill:url(#SVGID_00000170977662199428816120000008483728538813582006_);}
	.st74{fill:url(#SVGID_00000155869356961520553670000012380451046111487155_);}
	.st75{fill:url(#SVGID_00000166638453351375316680000007224198713952551606_);}
	.st76{fill:url(#SVGID_00000055686237860430092200000005241968968177351052_);}
	.st77{fill:url(#SVGID_00000054948045252564031160000002511255015067122106_);}
	.st78{opacity:0.25;fill:url(#SVGID_00000041293684437062524260000007764432270369066121_);}
	.st79{fill:url(#SVGID_00000121991241519534967100000017348680212554225576_);}
	.st80{fill:url(#SVGID_00000021835417794179078630000011718840856657066928_);}
	.st81{fill:url(#SVGID_00000176736285109679722810000014703802879543614619_);}
	.st82{fill:url(#SVGID_00000093143683432385107230000004141366174111962269_);}
	.st83{fill:url(#SVGID_00000083055081091289453680000008193626321107309982_);}
	.st84{fill:url(#SVGID_00000155106282740454723200000003365969957090274438_);}
	.st85{fill:url(#SVGID_00000141440752146759852080000011786864804107538315_);}
	.st86{fill:url(#SVGID_00000047020496277875587210000007964224646548374414_);}
	.st87{fill:url(#SVGID_00000116920283135421836850000014652545407331855750_);}
	.st88{fill:url(#SVGID_00000097475860235981073900000003716304651047967927_);}
	.st89{fill:url(#SVGID_00000147905516375295924720000008475867044884174215_);}
	.st90{fill:url(#SVGID_00000158000236066658612120000016797583573841998235_);}
	.st91{fill:url(#SVGID_00000039823250641490736320000017681622373262667145_);}
	.st92{fill:url(#SVGID_00000080890775417350324160000015245027790112033695_);}
	.st93{fill:url(#SVGID_00000011721321240664488580000017628786037328881582_);}
	.st94{opacity:0.25;fill:url(#SVGID_00000023260372231905742440000002845556152065634741_);}
	.st95{fill:url(#SVGID_00000140714782279560491130000013168172903025412270_);}
	.st96{fill:url(#SVGID_00000091695611698732917550000010288791193773043084_);}
	.st97{fill:url(#SVGID_00000158708182525539308350000009112337937232860576_);}
	.st98{fill:url(#SVGID_00000046333732054036652410000015279999949861433527_);}
	.st99{fill:url(#SVGID_00000103256149193512411300000002420530448418802103_);}
	.st100{fill:url(#SVGID_00000146476113413248943220000016782461335058960548_);}
	.st101{fill:url(#SVGID_00000163067504532786620940000010351343596787815098_);}
	.st102{fill:url(#SVGID_00000178163475615455192870000009255222490510799496_);}
	.st103{fill:url(#SVGID_00000111155982086844014630000015498434316331783565_);}
	.st104{fill:url(#SVGID_00000123411783540010591170000008879727670895019149_);}
	.st105{fill:url(#SVGID_00000011709906676813977230000010253207623874955148_);}
	.st106{fill:url(#SVGID_00000112594559614509792510000011936530562462241951_);}
	.st107{fill:url(#SVGID_00000152223783440410815710000011318835732230057348_);}
	.st108{fill:url(#SVGID_00000010276928978114953130000005866627290863413124_);}
	.st109{fill:url(#SVGID_00000074408405987476709890000000495107177248180894_);}
	.st110{fill:url(#SVGID_00000041979574749297326820000017134917627022362285_);}
	.st111{fill:url(#SVGID_00000106840987841619815430000008242295727190812309_);}
	.st112{opacity:0.25;fill:url(#SVGID_00000142863475449265575880000010800717276464660922_);}
	.st113{fill:url(#SVGID_00000175286636723660190790000009665357106840628872_);}
	.st114{fill:url(#SVGID_00000013172077975575525370000007652152565416848269_);}
	.st115{fill:url(#SVGID_00000130624957250353911850000006226184172474680969_);}
	.st116{fill:url(#SVGID_00000176017973943873155930000001446765889779156671_);}
	.st117{fill:url(#SVGID_00000111180342838127061730000001363979728173123461_);}
	.st118{fill:url(#SVGID_00000175305832486422873350000016605792382271390630_);}
	.st119{fill:url(#SVGID_00000043419586202617306070000011689425949363871893_);}
	.st120{fill:url(#SVGID_00000116224729855080209450000003809847008807166086_);}
	.st121{fill:url(#SVGID_00000073697863514755341630000013679261976283408290_);}
	.st122{fill:url(#SVGID_00000104676660615987005640000000551340797616303247_);}
	.st123{fill:url(#SVGID_00000177485178483638073970000010192450443873814459_);}
	.st124{fill:url(#SVGID_00000182493514781292768740000010406888691232524469_);}
	.st125{fill:url(#SVGID_00000075131424325685940990000005153948004224208768_);}
	.st126{fill:url(#SVGID_00000013887441086296240360000004797811647927658122_);}
	.st127{fill:url(#SVGID_00000090989044077144211120000006547481877284183734_);}
	.st128{opacity:0.25;fill:url(#SVGID_00000172398914623648690960000004858979041137280668_);}
	.st129{fill:url(#SVGID_00000026146888663439076160000001651407149751881364_);}
	.st130{fill:url(#SVGID_00000064337985105601205820000002735893430398514830_);}
	.st131{fill:url(#SVGID_00000056412625832257507920000010299352204415014550_);}
	.st132{fill:url(#SVGID_00000137094770905202174090000003319188672278407610_);}
	.st133{fill:url(#SVGID_00000183240703167725123450000012667884683457474735_);}
	.st134{fill:url(#SVGID_00000033367270034878036180000010314585045160934282_);}
	.st135{fill:url(#SVGID_00000134932026063245980550000010825268654241450647_);}
	.st136{fill:url(#SVGID_00000086667858140285804720000007058594660267451053_);}
	.st137{fill:url(#SVGID_00000049911531119401262100000003953015000777113019_);}
</style>
<g>
	<g>
		<g>
			<g>
				<linearGradient id="SVGID_1_" gradientUnits="userSpaceOnUse" x1="81.2005" y1="678.2454" x2="802.8893" y2="-43.4435">
					<stop  offset="0" style="stop-color:#F2703E"/>
					<stop  offset="1" style="stop-color:#F89D48"/>
				</linearGradient>
				<path class="st2" d="M759.2,0H0v102.3l617.6,217.2h352V210.4C969.6,94.2,875.4,0,759.2,0z M589.3,337.8l-266-93.6v381.9
					L205,668.6V802H675V577.5h-85.7V337.8z M617.6,549.3h352V347.8h-352V549.3z"/>
			</g>
		</g>
		<g>
			<g>
				
					<linearGradient id="SVGID_00000147188760131804315500000011387214532013365946_" gradientUnits="userSpaceOnUse" x1="0" y1="159.7488" x2="969.6021" y2="159.7488">
					<stop  offset="0" style="stop-color:#F6944A;stop-opacity:0"/>
					<stop  offset="1" style="stop-color:#FBC090"/>
				</linearGradient>
				<path style="fill:url(#SVGID_00000147188760131804315500000011387214532013365946_);" d="M759.2,12.3c26.8,0,52.7,5.2,77.1,15.6
					c23.6,10,44.8,24.3,63,42.5c18.2,18.2,32.5,39.4,42.5,63c10.3,24.4,15.6,50.4,15.6,77.1v96.8H619.7L12.3,93.6V12.3H759.2
					 M759.2,0H0v102.3l617.6,217.2h352V210.4C969.6,94.2,875.4,0,759.2,0L759.2,0z"/>
			</g>
			<g>
				
					<radialGradient id="SVGID_00000069365956897358788280000009944045176869727363_" cx="440.0173" cy="523.1469" r="257.8913" gradientUnits="userSpaceOnUse">
					<stop  offset="0" style="stop-color:#F48036"/>
					<stop  offset="1" style="stop-color:#FDD6AD;stop-opacity:0"/>
				</radialGradient>
				<path style="fill:url(#SVGID_00000069365956897358788280000009944045176869727363_);" d="M335.6,261.6l241.5,84.9v231.1v12.3
					h12.3h73.5v200H217.2V677.2l110.2-39.5l8.1-2.9v-8.6V261.6 M323.4,244.3v381.9L205,668.6V802H675V577.5h-85.7V337.8L323.4,244.3
					L323.4,244.3z"/>
			</g>
			<g>
				
					<radialGradient id="SVGID_00000027564879360481710820000012564806827902493577_" cx="793.5967" cy="448.521" r="143.4086" gradientUnits="userSpaceOnUse">
					<stop  offset="0" style="stop-color:#F48036"/>
					<stop  offset="1" style="stop-color:#FDD6AD;stop-opacity:0"/>
				</radialGradient>
				<path style="fill:url(#SVGID_00000027564879360481710820000012564806827902493577_);" d="M957.3,360v177H629.8V360H957.3
					 M969.6,347.8h-352v201.5h352V347.8L969.6,347.8z"/>
			</g>
		</g>
	</g>
	<g>
		<g>
			<path class="st0" d="M1089.9,347.8h153.4v40.3h-109.1V431h96.1v40.3h-96.1v78h-44.3V347.8z"/>
			<path class="st0" d="M1266.4,347.8h44.3v201.5h-44.3V347.8z"/>
			<path class="st0" d="M1346.7,347.8h40.9l94.4,124v-124h43.7v201.5H1488l-97.6-128.1v128.1h-43.7V347.8z"/>
			<path class="st0" d="M1628.8,346.4h40.9l86.3,202.9h-46.3l-18.4-45.2H1606l-18.4,45.2h-45.2L1628.8,346.4z M1675.4,464.9
				l-26.8-65.3l-26.8,65.3H1675.4z"/>
			<path class="st0" d="M1772.7,347.8h44.3V509h100.4v40.3h-144.8V347.8z"/>
			<path class="st0" d="M2008.4,347.8h93.5c23,0,41.2,6.3,52.7,17.8c9.2,9.2,13.8,20.4,13.8,34.3v0.6c0,22.7-12.1,35.4-26.5,43.5
				c23.3,8.9,37.7,22.4,37.7,49.5v0.6c0,36.8-29.9,55.3-75.4,55.3h-95.8V347.8z M2092.5,429.2c19.6,0,31.9-6.3,31.9-21.3v-0.6
				c0-13.2-10.4-20.7-29.1-20.7h-43.7v42.6H2092.5z M2104.3,510.4c19.6,0,31.4-6.9,31.4-21.9V488c0-13.5-10.1-21.9-32.8-21.9h-51.2
				v44.3H2104.3z"/>
			<path class="st0" d="M2198.7,462.9V347.8h44.3v114c0,32.8,16.4,49.8,43.5,49.8s43.5-16.4,43.5-48.4V347.8h44.3v113.7
				c0,61-34.2,90.9-88.4,90.9C2231.8,552.4,2198.7,522.2,2198.7,462.9z"/>
			<path class="st0" d="M2405,347.8h92.1c25.6,0,45.5,7.2,58.7,20.4c11.2,11.2,17.3,27.1,17.3,46v0.6c0,32.5-17.6,53-43.2,62.5
				l49.2,72h-51.8l-43.2-64.5h-34.8v64.5H2405V347.8z M2494.3,445.6c21.6,0,34-11.5,34-28.5v-0.6c0-19-13.2-28.8-34.8-28.8h-44v57.8
				H2494.3z"/>
			<path class="st0" d="M2598.8,347.8h40.9l94.4,124v-124h43.7v201.5h-37.7l-97.6-128.1v128.1h-43.7V347.8z"/>
			<path class="st0" d="M2952.8,346.4h40.9l86.3,202.9h-46.3l-18.4-45.2H2930l-18.4,45.2h-45.2L2952.8,346.4z M2999.4,464.9
				l-26.8-65.3l-26.8,65.3H2999.4z"/>
			<path class="st0" d="M3096.7,347.8h44.3V509h100.4v40.3h-144.8V347.8z"/>
			<path class="st0" d="M3260.5,347.8h82.3c48.1,0,77.1,28.5,77.1,69.6v0.6c0,46.6-36.3,70.8-81.4,70.8h-33.7v60.4h-44.3V347.8z
				 M3339.9,449.4c22.2,0,35.1-13.2,35.1-30.5v-0.6c0-19.9-13.8-30.5-36-30.5h-34.3v61.6H3339.9z"/>
			<path class="st0" d="M3438.4,347.8h44.3v79.7h81.7v-79.7h44.3v201.5h-44.3v-80.9h-81.7v80.9h-44.3V347.8z"/>
			<path class="st0" d="M3711.8,346.4h40.9l86.3,202.9h-46.3l-18.4-45.2H3689l-18.4,45.2h-45.2L3711.8,346.4z M3758.4,464.9
				l-26.8-65.3l-26.8,65.3H3758.4z"/>
		</g>
	</g>
</g>
</svg>
