<?xml version="1.0" encoding="utf-8"?>
<!-- Generator: Adobe Illustrator 25.4.1, SVG Export Plug-In . SVG Version: 6.00 Build 0)  -->
<svg version="1.1" id="Layer_1" xmlns="http://www.w3.org/2000/svg" xmlns:xlink="http://www.w3.org/1999/xlink" x="0px" y="0px"
	 viewBox="0 0 3839 458.2" style="enable-background:new 0 0 3839 458.2;" xml:space="preserve">
<style type="text/css">
	.st0{fill:#FFFFFF;}
	.st1{fill:#7B9A99;}
	.st2{fill:url(#SVGID_1_);}
	.st3{clip-path:url(#SVGID_00000062178052575737211380000005168802763405847966_);}
	.st4{fill:#606161;}
	.st5{clip-path:url(#SVGID_00000004542011339995136890000015122905758180939682_);}
	.st6{clip-path:url(#SVGID_00000057840050883206864780000005030204639721793453_);}
	.st7{fill:url(#SVGID_00000067204245989612271910000013590214115587184791_);}
	.st8{fill:url(#SVGID_00000181804282086228550080000001152500337239912074_);}
	.st9{fill:url(#SVGID_00000050647733346833321180000004799738363893302145_);}
	.st10{fill:url(#SVGID_00000115492611830287175180000013175863219219182745_);}
	.st11{fill:#F58746;}
	.st12{fill:url(#SVGID_00000102506810483147539180000008525520571692682423_);}
	.st13{fill:url(#SVGID_00000123434308566718160370000010367049448900389268_);}
	.st14{fill:url(#SVGID_00000079480383413932729800000002646568715278187441_);}
	.st15{fill:url(#SVGID_00000052083153698778312910000005308893566140430256_);}
	.st16{fill:url(#SVGID_00000154410889389980780570000000654989383213350320_);}
	.st17{fill:url(#SVGID_00000060734823394766841720000000120844338224325275_);}
	.st18{fill:url(#SVGID_00000049934828295952493640000017410106251280995746_);}
	.st19{fill:url(#SVGID_00000110451380979322259530000001737537505469906870_);}
	.st20{fill:url(#SVGID_00000010284157119048684750000016768926280357333140_);}
	.st21{fill:url(#SVGID_00000023973541166705748880000000705258732470199707_);}
	.st22{fill:url(#SVGID_00000129916537029023635150000003932172594531077038_);}
	.st23{fill:url(#SVGID_00000173859052655752355550000008851242645146196124_);}
	.st24{opacity:0.25;fill:url(#SVGID_00000131350212324397153740000016192654481760627363_);}
	.st25{fill:url(#SVGID_00000172417578888939761530000013102467411952317878_);}
	.st26{fill:url(#SVGID_00000098217473597362125590000016598002376319278479_);}
	.st27{fill:url(#SVGID_00000054249238158943913090000015836236048252542352_);}
	.st28{fill:url(#SVGID_00000130633177022212266140000013408572342772811966_);}
	.st29{fill:url(#SVGID_00000151518512186243170580000005970267524211236486_);}
	.st30{fill:url(#SVGID_00000024686625571255625920000014243662972119203977_);}
	.st31{fill:url(#SVGID_00000043453146076959946550000001948515106359633075_);}
	.st32{fill:url(#SVGID_00000014632466594242841350000005459824565985698976_);}
	.st33{fill:url(#SVGID_00000114778940474063690470000010507507475172691364_);}
	.st34{fill:url(#SVGID_00000077304900022340769660000014498338624259390882_);}
	.st35{fill:url(#SVGID_00000007409112648211327710000008298019947019266993_);}
	.st36{fill:url(#SVGID_00000018208047166887088780000004801625086344989577_);}
	.st37{fill:url(#SVGID_00000075881284235759135480000012926843865709685175_);}
	.st38{fill:url(#SVGID_00000016044743390585594080000013515518204736923807_);}
	.st39{fill:url(#SVGID_00000172419402774142053490000006516367316485716352_);}
	.st40{opacity:0.25;fill:url(#SVGID_00000002344362776144715290000016944297673806847124_);}
	.st41{fill:url(#SVGID_00000101813148253527846600000004487916615448444299_);}
	.st42{fill:url(#SVGID_00000157997295083375019660000010248184203328215184_);}
	.st43{fill:url(#SVGID_00000134960241406897855360000006637613384135302289_);}
	.st44{fill:url(#SVGID_00000126311406785636431610000000921063956592108961_);}
	.st45{fill:url(#SVGID_00000173139491624076830930000007832463255407783044_);}
	.st46{fill:url(#SVGID_00000044180311364563592330000016150948264464038296_);}
	.st47{fill:url(#SVGID_00000114784484178985037130000011214706066927028380_);}
	.st48{fill:url(#SVGID_00000102513276665414887900000003553289359956796841_);}
	.st49{clip-path:url(#SVGID_00000065046112793464492910000006151974033391503232_);}
	.st50{clip-path:url(#SVGID_00000090259077701843005860000000576426388057144996_);}
	.st51{clip-path:url(#SVGID_00000106133870324061518660000015980758160359562398_);}
	.st52{fill:url(#SVGID_00000120558959922294210470000017941901842180970939_);}
	.st53{fill:url(#SVGID_00000103969791162500969040000002976505113998203279_);}
	.st54{fill:url(#SVGID_00000091008088023807181130000008955143346169992859_);}
	.st55{fill:url(#SVGID_00000155860365726656732100000008657655486038004414_);}
	.st56{fill:url(#SVGID_00000140728530410854401110000000620950242583827633_);}
	.st57{fill:url(#SVGID_00000090278540956626053030000011462169318340748441_);}
	.st58{fill:url(#SVGID_00000008134680396817751650000014966670135010637208_);}
	.st59{clip-path:url(#SVGID_00000146494734678497713630000013004205392390190001_);}
	.st60{clip-path:url(#SVGID_00000008109813437986637080000012809512995380068027_);}
	.st61{clip-path:url(#SVGID_00000096060168525737591320000007794413385655355309_);}
	.st62{fill:url(#SVGID_00000057826512494114196160000011975230164843218849_);}
	.st63{clip-path:url(#SVGID_00000008107129859529989870000015328150023788300727_);}
	.st64{clip-path:url(#SVGID_00000041993497057475830880000005449746525684566463_);}
	.st65{clip-path:url(#SVGID_00000155850242405137819750000012252569661291210640_);}
	.st66{fill:url(#SVGID_00000006706859193403609220000018174318285575041201_);}
	.st67{fill:url(#SVGID_00000040561328527909165320000010634763879981990323_);}
	.st68{fill:url(#SVGID_00000013893713609459903170000004302282977177496506_);}
	.st69{fill:url(#SVGID_00000091713028116698720970000013112590862198324357_);}
	.st70{fill:url(#SVGID_00000166635541472761155110000011576986315116217533_);}
	.st71{fill:url(#SVGID_00000051376298671136135270000017355552148836985492_);}
	.st72{fill:url(#SVGID_00000083047562893498572860000012769287802337848464_);}
	.st73{fill:url(#SVGID_00000077307513964301786630000015581062017673438642_);}
	.st74{fill:url(#SVGID_00000128464103373178605930000004109187576506825362_);}
	.st75{fill:url(#SVGID_00000028293647706161017360000001399688464691439016_);}
	.st76{fill:url(#SVGID_00000035512622408704940530000004969241655529802138_);}
	.st77{fill:url(#SVGID_00000138549875659547251910000010215331466168105122_);}
	.st78{opacity:0.25;fill:url(#SVGID_00000004522461964113623670000004298205017361855398_);}
	.st79{fill:url(#SVGID_00000008842339335861113940000003920399546062605185_);}
	.st80{fill:url(#SVGID_00000179627984283837228320000015282010474102645668_);}
	.st81{fill:url(#SVGID_00000114070744419927552850000001141561752102518935_);}
	.st82{fill:url(#SVGID_00000145039995821848810590000004771173891096506497_);}
	.st83{fill:url(#SVGID_00000150800891295251023630000008674410847138687893_);}
	.st84{fill:url(#SVGID_00000127753000690876956510000007657900236054388653_);}
	.st85{fill:url(#SVGID_00000048475302468597501940000015095574130190871447_);}
	.st86{fill:url(#SVGID_00000013187467477204615050000003122475785985331600_);}
	.st87{fill:url(#SVGID_00000042716092178185569270000002097434544983612065_);}
	.st88{fill:url(#SVGID_00000090278124838412833520000012326724459331343494_);}
	.st89{fill:url(#SVGID_00000026868308250573325930000017423099465543449271_);}
	.st90{fill:url(#SVGID_00000065054713979352693430000014755122760297149600_);}
	.st91{fill:url(#SVGID_00000109749830180118495710000001136293349973950608_);}
	.st92{fill:url(#SVGID_00000023959559427071228140000007495502031047865765_);}
	.st93{fill:url(#SVGID_00000124159745231372110940000018180642094927715988_);}
	.st94{opacity:0.25;fill:url(#SVGID_00000165914312395789937520000013766584898413164213_);}
	.st95{fill:url(#SVGID_00000022530136504563733110000016333783396105489805_);}
	.st96{fill:url(#SVGID_00000098904897294249760500000014260919399746322861_);}
	.st97{fill:url(#SVGID_00000000919210880177762830000000695519896212752299_);}
	.st98{fill:url(#SVGID_00000097478840587301217760000001363292132145242805_);}
	.st99{fill:url(#SVGID_00000167394822669769876330000003688306109838956711_);}
	.st100{fill:url(#SVGID_00000038385267577503324450000007444610586242550714_);}
	.st101{fill:url(#SVGID_00000129909065142247624380000006434163394147213952_);}
	.st102{fill:url(#SVGID_00000004527674949282890290000016256117968756770233_);}
	.st103{fill:url(#SVGID_00000091719310187222872330000008076212173831132544_);}
	.st104{fill:url(#SVGID_00000018202261071089803690000003824086795498185407_);}
	.st105{fill:url(#SVGID_00000056422147824601513090000004002028571500051352_);}
	.st106{fill:url(#SVGID_00000026148583996992430410000016967221422776420750_);}
	.st107{fill:url(#SVGID_00000023981850607879297690000007040265229080644002_);}
	.st108{fill:url(#SVGID_00000098190214330317137660000013901527938067084686_);}
	.st109{fill:url(#SVGID_00000115497667918151426890000015217362853480078233_);}
	.st110{fill:url(#SVGID_00000129928624676558194080000005315154891496202632_);}
	.st111{fill:url(#SVGID_00000091725477903225422100000011726871652379633827_);}
	.st112{opacity:0.25;fill:url(#SVGID_00000129204755581521140360000015513022716037022355_);}
	.st113{fill:url(#SVGID_00000018949455578358410070000001341320778631763589_);}
	.st114{fill:url(#SVGID_00000006696469848464584180000006560688221787339697_);}
	.st115{fill:url(#SVGID_00000041275845040086978290000010918776168430899868_);}
	.st116{fill:url(#SVGID_00000080901818049263808560000002048196404225430195_);}
	.st117{fill:url(#SVGID_00000183250596721876498480000011796380186715216545_);}
	.st118{fill:url(#SVGID_00000132783145832551961720000012790889949243895485_);}
	.st119{fill:url(#SVGID_00000001651621698991188340000005252440220027262362_);}
	.st120{fill:url(#SVGID_00000067919053045465842750000008126670859647259524_);}
	.st121{fill:url(#SVGID_00000090976222615508602280000017230918361201299599_);}
	.st122{fill:url(#SVGID_00000068643640753714269670000010928463618453610673_);}
	.st123{fill:url(#SVGID_00000174572040328592788690000006862848262600243624_);}
	.st124{fill:url(#SVGID_00000085231447191238304220000000280235339002516876_);}
	.st125{fill:url(#SVGID_00000034770050352701117970000011652743967208272811_);}
	.st126{fill:url(#SVGID_00000007425090661422815620000000580678368257255585_);}
	.st127{fill:url(#SVGID_00000176765264760383914420000005579302391873212324_);}
	.st128{opacity:0.25;fill:url(#SVGID_00000132788643344783462420000007039576169229080462_);}
	.st129{fill:url(#SVGID_00000046341879706509548680000004265775042368476327_);}
	.st130{fill:url(#SVGID_00000004527379701339975110000015535586520395877290_);}
	.st131{fill:url(#SVGID_00000172429679252954115750000012826128472164117635_);}
	.st132{fill:url(#SVGID_00000141437151031753024430000016212543707483041707_);}
	.st133{fill:url(#SVGID_00000011733885680711542340000004612856860139323290_);}
	.st134{fill:url(#SVGID_00000111891397111912225880000008135131245975282341_);}
	.st135{fill:url(#SVGID_00000099654785896256887970000007666288470340699321_);}
	.st136{fill:url(#SVGID_00000026145323485280942340000008878622467868157072_);}
	.st137{fill:url(#SVGID_00000042713510916340507850000012618204326313711012_);}
</style>
<g>
	<g>
		<path class="st0" d="M686.9,117h169.3v44.5H735.8v47.3h106.1v44.5H735.8v86.1h-48.9V117z"/>
		<path class="st0" d="M889.5,117h48.9v222.3h-48.9V117z"/>
		<path class="st0" d="M986,117h45.1l104.2,136.9V117h48.3v222.3H1142L1034.3,198v141.3H986V117z"/>
		<path class="st0" d="M1305.2,115.4h45.1l95.3,223.9h-51.1l-20.3-49.9h-94l-20.3,49.9h-49.9L1305.2,115.4z M1356.6,246.3
			l-29.5-72.1l-29.5,72.1H1356.6z"/>
		<path class="st0" d="M1471.9,117h48.9v177.8h110.8v44.5h-159.7V117z"/>
		<path class="st0" d="M1747.9,117h103.2c25.4,0,45.4,7,58.1,19.7c10.2,10.2,15.2,22.5,15.2,37.8v0.6c0,25.1-13.3,39.1-29.2,48
			c25.7,9.8,41.6,24.8,41.6,54.6v0.6c0,40.6-33,61-83.2,61h-105.8V117z M1840.6,206.9c21.6,0,35.2-7,35.2-23.5v-0.6
			c0-14.6-11.4-22.9-32.1-22.9h-48.3v47H1840.6z M1853.6,296.4c21.6,0,34.6-7.6,34.6-24.1v-0.6c0-14.9-11.1-24.1-36.2-24.1h-56.5
			v48.9H1853.6z"/>
		<path class="st0" d="M1965.7,244V117h48.9v125.8c0,36.2,18.1,54.9,48,54.9c29.9,0,48-18.1,48-53.4V117h48.9v125.4
			c0,67.3-37.8,100.4-97.5,100.4C2002.2,342.8,1965.7,309.5,1965.7,244z"/>
		<path class="st0" d="M2201.3,117H2303c28.3,0,50.2,7.9,64.8,22.5c12.4,12.4,19.1,29.9,19.1,50.8v0.6c0,35.9-19.4,58.4-47.6,68.9
			l54.3,79.4h-57.2l-47.6-71.1h-38.4v71.1h-48.9V117z M2299.8,225c23.8,0,37.5-12.7,37.5-31.4v-0.6c0-21-14.6-31.8-38.4-31.8h-48.6
			V225H2299.8z"/>
		<path class="st0" d="M2423,117h45.1l104.2,136.9V117h48.3v222.3h-41.6L2471.3,198v141.3H2423V117z"/>
		<path class="st0" d="M2829.5,115.4h45.1l95.3,223.9h-51.1l-20.3-49.9h-94l-20.3,49.9h-49.9L2829.5,115.4z M2880.9,246.3
			l-29.5-72.1l-29.5,72.1H2880.9z"/>
		<path class="st0" d="M2996.2,117h48.9v177.8h110.8v44.5h-159.7V117z"/>
		<path class="st0" d="M3184.8,117h90.8c53,0,85.1,31.4,85.1,76.9v0.6c0,51.4-40,78.1-89.9,78.1h-37.2v66.7h-48.9V117z
			 M3272.5,229.1c24.5,0,38.7-14.6,38.7-33.7v-0.6c0-21.9-15.2-33.7-39.7-33.7h-37.8v68H3272.5z"/>
		<path class="st0" d="M3389,117h48.9v88h90.2v-88h48.9v222.3h-48.9v-89.2h-90.2v89.2H3389V117z"/>
		<path class="st0" d="M3698.6,115.4h45.1l95.3,223.9h-51.1l-20.3-49.9h-94l-20.3,49.9h-49.9L3698.6,115.4z M3750.1,246.3
			l-29.5-72.1l-29.5,72.1H3750.1z"/>
	</g>
	<g>
		<g>
			<g>
				<linearGradient id="SVGID_1_" gradientUnits="userSpaceOnUse" x1="46.3916" y1="387.4955" x2="458.7074" y2="-24.8203">
					<stop  offset="0" style="stop-color:#F2703E"/>
					<stop  offset="1" style="stop-color:#F89D48"/>
				</linearGradient>
				<path class="st2" d="M433.7,0H0v58.4l352.8,124.1H554v-62.3C554,53.8,500.1,0,433.7,0z M336.7,193l-152-53.4v218.2L117.1,382
					v76.2h268.6V330h-49V193z M352.8,313.8H554V198.7H352.8V313.8z"/>
			</g>
		</g>
	</g>
</g>
</svg>
