<?xml version="1.0" encoding="utf-8"?>
<!-- Generator: Adobe Illustrator 25.4.1, SVG Export Plug-In . SVG Version: 6.00 Build 0)  -->
<svg version="1.1" id="Layer_1" xmlns="http://www.w3.org/2000/svg" xmlns:xlink="http://www.w3.org/1999/xlink" x="0px" y="0px"
	 viewBox="0 0 3839 802" style="enable-background:new 0 0 3839 802;" xml:space="preserve">
<style type="text/css">
	.st0{fill:#FFFFFF;}
	.st1{fill:#7B9A99;}
	.st2{fill:url(#SVGID_1_);}
	.st3{clip-path:url(#SVGID_00000117660241615030631900000008970486413825566631_);}
	.st4{fill:#606161;}
	.st5{clip-path:url(#SVGID_00000063627370881331606590000016646049428043075986_);}
	.st6{clip-path:url(#SVGID_00000004548472048229488640000003512161714577528494_);}
	.st7{fill:url(#SVGID_00000001646355430536055070000006582543817372142234_);}
	.st8{fill:url(#SVGID_00000005988341707663342880000011470540882956192642_);}
	.st9{fill:url(#SVGID_00000102520826066583149120000014733720183473674632_);}
	.st10{fill:url(#SVGID_00000115496157693632539860000017522403270907109795_);}
	.st11{fill:#F58746;}
	.st12{fill:url(#SVGID_00000081624913767818890560000006226669867021629315_);}
	.st13{fill:url(#SVGID_00000069386656927832125320000001318331547727254170_);}
	.st14{fill:url(#SVGID_00000088819794423443717990000005501404486606958516_);}
	.st15{fill:url(#SVGID_00000058584062287738587430000014636050630424250252_);}
	.st16{fill:url(#SVGID_00000075853190677687140860000015820287293391170959_);}
	.st17{fill:url(#SVGID_00000081646997603239856920000018406049227569467043_);}
	.st18{fill:url(#SVGID_00000039120555824711186160000006450752426425439633_);}
	.st19{fill:url(#SVGID_00000143582322238157586990000000541449780756655776_);}
	.st20{fill:url(#SVGID_00000096777594128018923450000010163180175362581933_);}
	.st21{fill:url(#SVGID_00000153668441212169332150000013278205527294455939_);}
	.st22{fill:url(#SVGID_00000024680883039560113790000002116461913907032727_);}
	.st23{fill:url(#SVGID_00000070078576972170907390000008747505317604854400_);}
	.st24{opacity:0.25;fill:url(#SVGID_00000132796355250319436590000013655446518639150767_);}
	.st25{fill:url(#SVGID_00000106857095629439457410000011138062626727996816_);}
	.st26{fill:url(#SVGID_00000163757840746799727220000017155167728479165058_);}
	.st27{fill:url(#SVGID_00000093135348034421639680000011639922201558732473_);}
	.st28{fill:url(#SVGID_00000067939906004378388040000006743028633091911612_);}
	.st29{fill:url(#SVGID_00000011003966873259599580000007472174684325994174_);}
	.st30{fill:url(#SVGID_00000023971538753466165440000008901422006206304428_);}
	.st31{fill:url(#SVGID_00000027590450007908223740000001063150024421290648_);}
	.st32{fill:url(#SVGID_00000006688977114122036140000016517153680013610651_);}
	.st33{fill:url(#SVGID_00000001650629621641520270000012886070470404837248_);}
	.st34{fill:url(#SVGID_00000151507546985095016510000007592380585538466748_);}
	.st35{fill:url(#SVGID_00000083778953251908691780000008827933383844113800_);}
	.st36{fill:url(#SVGID_00000147179336897200342910000016993403185509826470_);}
	.st37{fill:url(#SVGID_00000119104234797780095000000006776929323744385677_);}
	.st38{fill:url(#SVGID_00000036211994501879406390000013330826482080342940_);}
	.st39{fill:url(#SVGID_00000054973015767036820200000014701936005445056953_);}
	.st40{opacity:0.25;fill:url(#SVGID_00000090985838331284924220000003707805815593923227_);}
	.st41{fill:url(#SVGID_00000080203643122681593070000011819795159593534092_);}
	.st42{fill:url(#SVGID_00000070808327794373326550000014939295734070287801_);}
	.st43{fill:url(#SVGID_00000068667826384907679580000010072618723984851085_);}
	.st44{fill:url(#SVGID_00000088117273477106134510000012464461334297285561_);}
	.st45{fill:url(#SVGID_00000169540298958739573700000004850833653232827029_);}
	.st46{fill:url(#SVGID_00000093891009136311678980000002913993925304519612_);}
	.st47{fill:url(#SVGID_00000050655451882100467910000017891847807935993769_);}
	.st48{fill:url(#SVGID_00000004505834710645065250000018337519761913302950_);}
	.st49{clip-path:url(#SVGID_00000067202089737704409180000009952244736052118200_);}
	.st50{clip-path:url(#SVGID_00000024001055312735457830000002298355996017609631_);}
	.st51{clip-path:url(#SVGID_00000163060192602580122830000012244072453707067279_);}
	.st52{fill:url(#SVGID_00000164495789962166233160000015572880370291759520_);}
	.st53{fill:url(#SVGID_00000001651410306548185690000004783100776707020692_);}
	.st54{fill:url(#SVGID_00000173140465509477870200000016249094056512810896_);}
	.st55{fill:url(#SVGID_00000064320891322354260370000002873708633276605608_);}
	.st56{fill:url(#SVGID_00000129923455858171455330000014047691030205184155_);}
	.st57{fill:url(#SVGID_00000136410157850890540100000010125278921459401643_);}
	.st58{fill:url(#SVGID_00000105396164739592876870000008032279448625969578_);}
	.st59{clip-path:url(#SVGID_00000137104760625530478310000015406883346318614930_);}
	.st60{clip-path:url(#SVGID_00000003808078851246049210000018422521140408779661_);}
	.st61{clip-path:url(#SVGID_00000003825394963415479370000012324555042775588249_);}
	.st62{fill:url(#SVGID_00000044886544571980193190000012338412572425637288_);}
	.st63{clip-path:url(#SVGID_00000140698470458483815860000014516854745262928037_);}
	.st64{clip-path:url(#SVGID_00000130620148665056736850000002028746872757675423_);}
	.st65{clip-path:url(#SVGID_00000104700347501527312030000000329524179386130564_);}
	.st66{fill:url(#SVGID_00000003806161094603120480000011586263080804647335_);}
	.st67{fill:url(#SVGID_00000112622260786454947560000011707371703525823894_);}
	.st68{fill:url(#SVGID_00000119075193883802100920000008115060654503855766_);}
	.st69{fill:url(#SVGID_00000133528520666299555980000018436226212549647488_);}
	.st70{fill:url(#SVGID_00000009562875830877984760000002823696078611870338_);}
	.st71{fill:url(#SVGID_00000182501262515634015600000009407796100523285136_);}
	.st72{fill:url(#SVGID_00000049211127548450148950000011762158362225245887_);}
	.st73{fill:url(#SVGID_00000082357116883162825720000011037553416577492651_);}
	.st74{fill:url(#SVGID_00000099644946850941224950000003875259802737062072_);}
	.st75{fill:url(#SVGID_00000183221532380774400160000016642520173191579295_);}
	.st76{fill:url(#SVGID_00000136411892814170708710000012878545013636449702_);}
	.st77{fill:url(#SVGID_00000126304008873682121170000005183540054788798395_);}
	.st78{opacity:0.25;fill:url(#SVGID_00000076576140623762043900000014324444132914676612_);}
	.st79{fill:url(#SVGID_00000010996388649463693770000009287623689565881500_);}
	.st80{fill:url(#SVGID_00000145024204662711535450000016993979952830292140_);}
	.st81{fill:url(#SVGID_00000125603481823623897770000013230059906088149147_);}
	.st82{fill:url(#SVGID_00000144316087309386832920000010887519479588889733_);}
	.st83{fill:url(#SVGID_00000132799238419506777320000003293033161791946649_);}
	.st84{fill:url(#SVGID_00000108300866855778653160000015712005484909378718_);}
	.st85{fill:url(#SVGID_00000035518999096548140630000009863051881237152178_);}
	.st86{fill:url(#SVGID_00000175283526079680617790000017918354895387134392_);}
	.st87{fill:url(#SVGID_00000072973227198633479740000004478017984569793160_);}
	.st88{fill:url(#SVGID_00000168083517378688874120000012064802551296111512_);}
	.st89{fill:url(#SVGID_00000014610762529157652920000014435905225725067191_);}
	.st90{fill:url(#SVGID_00000099627008537652634340000007222511770380979344_);}
	.st91{fill:url(#SVGID_00000139993946037864128780000003522786157270276998_);}
	.st92{fill:url(#SVGID_00000160149465705357748900000004451556474196142745_);}
	.st93{fill:url(#SVGID_00000049220135679235786260000010647491899142823580_);}
	.st94{opacity:0.25;fill:url(#SVGID_00000129892098413484215880000003714225087655550861_);}
	.st95{fill:url(#SVGID_00000174575662308226913610000005663519766090621852_);}
	.st96{fill:url(#SVGID_00000114793860058432395770000014090290368687185075_);}
	.st97{fill:url(#SVGID_00000161610118834043820730000006698207151659906489_);}
	.st98{fill:url(#SVGID_00000146470935518218077370000003131551435656222142_);}
	.st99{fill:url(#SVGID_00000043451671740730055720000005241789909528634015_);}
	.st100{fill:url(#SVGID_00000149353938391660795370000015116108528021656469_);}
	.st101{fill:url(#SVGID_00000071541801694888427170000006233963851258314939_);}
	.st102{fill:url(#SVGID_00000012465120873542072900000002404356473747883198_);}
	.st103{fill:url(#SVGID_00000081633392620540971730000014772096761464800149_);}
	.st104{fill:url(#SVGID_00000160160454255207774940000000625294991330149053_);}
	.st105{fill:url(#SVGID_00000064343558698775306080000016020381578133139843_);}
	.st106{fill:url(#SVGID_00000072968752618975533530000010914202417186675599_);}
	.st107{fill:url(#SVGID_00000127757018111567781030000015561934967919066022_);}
	.st108{fill:url(#SVGID_00000012454829518787152710000007546616611566643609_);}
	.st109{fill:url(#SVGID_00000123433398808852300290000009650583142128923787_);}
	.st110{fill:url(#SVGID_00000036239382769436543940000002086401151715219348_);}
	.st111{fill:url(#SVGID_00000088091099245241798710000011476549279280001707_);}
	.st112{opacity:0.25;fill:url(#SVGID_00000057146094675331982000000011585345916989379224_);}
	.st113{fill:url(#SVGID_00000083068068748121212920000011466623324105548715_);}
	.st114{fill:url(#SVGID_00000040542291827362530690000018140770854873227941_);}
	.st115{fill:url(#SVGID_00000000211002790757080390000002736283473245320877_);}
	.st116{fill:url(#SVGID_00000022521172926377170260000009161646341178088882_);}
	.st117{fill:url(#SVGID_00000174566586972927027080000001775420136090916535_);}
	.st118{fill:url(#SVGID_00000004522313396598624590000010056835185698591397_);}
	.st119{fill:url(#SVGID_00000013893445876977172540000013133258924263911324_);}
	.st120{fill:url(#SVGID_00000047060541126206618010000001106351752994970268_);}
	.st121{fill:url(#SVGID_00000172424352945651731250000003221016923959056270_);}
	.st122{fill:url(#SVGID_00000102519605794771781730000008660009460002058680_);}
	.st123{fill:url(#SVGID_00000012453221616931894910000014102383759589074613_);}
	.st124{fill:url(#SVGID_00000094604613187195140150000003958421599036404913_);}
	.st125{fill:url(#SVGID_00000110454708821002603490000000228229711944032958_);}
	.st126{fill:url(#SVGID_00000072249588971063817040000009387974004414026147_);}
	.st127{fill:url(#SVGID_00000181082908620422204360000001881542918309620375_);}
	.st128{opacity:0.25;fill:url(#SVGID_00000125582013851686213920000016676252070996169134_);}
	.st129{fill:url(#SVGID_00000138532870105676166210000018422396655714062726_);}
	.st130{fill:url(#SVGID_00000095323428977477736100000014883615383974477487_);}
	.st131{fill:url(#SVGID_00000074413071907926795200000011470764381994642337_);}
	.st132{fill:url(#SVGID_00000089563114995476864630000007504138947718732689_);}
	.st133{fill:url(#SVGID_00000026138501408713444240000003267379458263493014_);}
	.st134{fill:url(#SVGID_00000047746271323209225480000011897946981602359950_);}
	.st135{fill:url(#SVGID_00000143612717203213995790000011705557024600786598_);}
	.st136{fill:url(#SVGID_00000157265954924762951500000009590570366221921194_);}
	.st137{fill:url(#SVGID_00000132775726852928211640000000440914541037001887_);}
</style>
<g>
	<g>
		<g>
			<path class="st0" d="M1089.9,347.8h153.4v40.3h-109.1V431h96.1v40.3h-96.1v78h-44.3V347.8z"/>
			<path class="st0" d="M1266.4,347.8h44.3v201.5h-44.3V347.8z"/>
			<path class="st0" d="M1346.7,347.8h40.9l94.4,124v-124h43.7v201.5H1488l-97.6-128.1v128.1h-43.7V347.8z"/>
			<path class="st0" d="M1628.8,346.4h40.9l86.3,202.9h-46.3l-18.4-45.2H1606l-18.4,45.2h-45.2L1628.8,346.4z M1675.4,464.9
				l-26.8-65.3l-26.8,65.3H1675.4z"/>
			<path class="st0" d="M1772.7,347.8h44.3V509h100.4v40.3h-144.8V347.8z"/>
			<path class="st0" d="M2008.4,347.8h93.5c23,0,41.2,6.3,52.7,17.8c9.2,9.2,13.8,20.4,13.8,34.3v0.6c0,22.7-12.1,35.4-26.5,43.5
				c23.3,8.9,37.7,22.4,37.7,49.5v0.6c0,36.8-29.9,55.3-75.4,55.3h-95.8V347.8z M2092.5,429.2c19.6,0,31.9-6.3,31.9-21.3v-0.6
				c0-13.2-10.4-20.7-29.1-20.7h-43.7v42.6H2092.5z M2104.3,510.4c19.6,0,31.4-6.9,31.4-21.9V488c0-13.5-10.1-21.9-32.8-21.9h-51.2
				v44.3H2104.3z"/>
			<path class="st0" d="M2198.7,462.9V347.8h44.3v114c0,32.8,16.4,49.8,43.5,49.8s43.5-16.4,43.5-48.4V347.8h44.3v113.7
				c0,61-34.2,90.9-88.4,90.9C2231.8,552.4,2198.7,522.2,2198.7,462.9z"/>
			<path class="st0" d="M2405,347.8h92.1c25.6,0,45.5,7.2,58.7,20.4c11.2,11.2,17.3,27.1,17.3,46v0.6c0,32.5-17.6,53-43.2,62.5
				l49.2,72h-51.8l-43.2-64.5h-34.8v64.5H2405V347.8z M2494.3,445.6c21.6,0,34-11.5,34-28.5v-0.6c0-19-13.2-28.8-34.8-28.8h-44v57.8
				H2494.3z"/>
			<path class="st0" d="M2598.8,347.8h40.9l94.4,124v-124h43.7v201.5h-37.7l-97.6-128.1v128.1h-43.7V347.8z"/>
			<path class="st0" d="M2952.8,346.4h40.9l86.3,202.9h-46.3l-18.4-45.2H2930l-18.4,45.2h-45.2L2952.8,346.4z M2999.4,464.9
				l-26.8-65.3l-26.8,65.3H2999.4z"/>
			<path class="st0" d="M3096.7,347.8h44.3V509h100.4v40.3h-144.8V347.8z"/>
			<path class="st0" d="M3260.5,347.8h82.3c48.1,0,77.1,28.5,77.1,69.6v0.6c0,46.6-36.3,70.8-81.4,70.8h-33.7v60.4h-44.3V347.8z
				 M3339.9,449.4c22.2,0,35.1-13.2,35.1-30.5v-0.6c0-19.9-13.8-30.5-36-30.5h-34.3v61.6H3339.9z"/>
			<path class="st0" d="M3438.4,347.8h44.3v79.7h81.7v-79.7h44.3v201.5h-44.3v-80.9h-81.7v80.9h-44.3V347.8z"/>
			<path class="st0" d="M3711.8,346.4h40.9l86.3,202.9h-46.3l-18.4-45.2H3689l-18.4,45.2h-45.2L3711.8,346.4z M3758.4,464.9
				l-26.8-65.3l-26.8,65.3H3758.4z"/>
		</g>
	</g>
	<g>
		<g>
			<g>
				<path class="st11" d="M759.2,0H0v102.3l617.6,217.2h352V210.4C969.6,94.2,875.4,0,759.2,0z M589.3,337.8l-266-93.6v381.9
					L205,668.6V802H675V577.5h-85.7V337.8z M617.6,549.3h352V347.8h-352V549.3z"/>
			</g>
		</g>
	</g>
</g>
</svg>
