<?xml version="1.0" encoding="utf-8"?>
<!-- Generator: Adobe Illustrator 25.4.1, SVG Export Plug-In . SVG Version: 6.00 Build 0)  -->
<svg version="1.1" id="Layer_1" xmlns="http://www.w3.org/2000/svg" xmlns:xlink="http://www.w3.org/1999/xlink" x="0px" y="0px"
	 viewBox="0 0 3839 390.4" style="enable-background:new 0 0 3839 390.4;" xml:space="preserve">
<style type="text/css">
	.st0{fill:url(#SVGID_1_);}
	.st1{fill:url(#SVGID_00000181779104351815764980000013702585721933789319_);}
	.st2{fill:url(#SVGID_00000065076514664899569200000013841107324529055639_);}
	.st3{fill:url(#SVGID_00000035495830036528079220000003393727989707637127_);}
	.st4{fill:url(#SVGID_00000016786971528934013370000015599735888732675757_);}
	.st5{fill:url(#SVGID_00000160911842115270167960000008225451511577764499_);}
	.st6{fill:url(#SVGID_00000124150557009210133080000011146604851644425363_);}
	.st7{fill:url(#SVGID_00000023278653475026835160000016790469716625191593_);}
	.st8{fill:url(#SVGID_00000075848645772202559740000001108427569091574404_);}
	.st9{fill:url(#SVGID_00000103222923255306060960000008821202868940937367_);}
	.st10{opacity:0.25;fill:url(#SVGID_00000045603864723036604460000000286199900468745878_);}
	.st11{fill:url(#SVGID_00000023254991923267582470000004039596730443377536_);}
	.st12{fill:url(#SVGID_00000005245763703746040860000005403919225708294300_);}
	.st13{fill:url(#SVGID_00000142897596340049671380000003873793624064721845_);}
	.st14{fill:url(#SVGID_00000124136802260347864490000010339536652082764458_);}
	.st15{fill:url(#SVGID_00000077325016171324039470000007015921231967016631_);}
	.st16{fill:url(#SVGID_00000061454470233188528200000007252008457410384780_);}
	.st17{fill:url(#SVGID_00000064341351692692258070000017481102163175643053_);}
	.st18{fill:#7B9A99;}
	.st19{fill:url(#SVGID_00000058578348416783695540000015390868284294984104_);}
	.st20{clip-path:url(#SVGID_00000176023398595101683530000003313832180314095786_);}
	.st21{fill:#606161;}
	.st22{clip-path:url(#SVGID_00000121985147154788256950000013801787737127387025_);}
	.st23{clip-path:url(#SVGID_00000126319366488340419720000010355979007098685065_);}
	.st24{fill:#F58746;}
	.st25{fill:url(#SVGID_00000115477473110680481820000001851139122461538487_);}
	.st26{fill:url(#SVGID_00000068643573426787422470000014801744949394508714_);}
	.st27{fill:url(#SVGID_00000127746169931154246120000013539554718798889651_);}
	.st28{fill:url(#SVGID_00000042719217155650515080000010126661051690324867_);}
	.st29{fill:url(#SVGID_00000083767961104518398340000004038925635785449348_);}
	.st30{fill:url(#SVGID_00000054961175976034176620000012984885586881448369_);}
	.st31{fill:url(#SVGID_00000128460832046143493360000014081938340004908735_);}
	.st32{fill:url(#SVGID_00000085951300073845397120000001727235372211201934_);}
	.st33{fill:url(#SVGID_00000073723383732985093880000017915836995482843312_);}
	.st34{fill:url(#SVGID_00000079474899471073764650000003997191464838516098_);}
	.st35{fill:url(#SVGID_00000085963642308429155180000008105702586309355167_);}
	.st36{fill:url(#SVGID_00000171700409804425662090000010642868333585082532_);}
	.st37{fill:url(#SVGID_00000143593380254359657980000013634795628853126559_);}
	.st38{opacity:0.25;fill:url(#SVGID_00000064341987375467703570000014062754501646667409_);}
	.st39{fill:url(#SVGID_00000008121845453565612050000015631184985786128529_);}
	.st40{fill:url(#SVGID_00000020389167291110530100000005862420863660021428_);}
	.st41{fill:url(#SVGID_00000147200056302909453190000010245410508320628889_);}
	.st42{fill:url(#SVGID_00000032612451117165968500000010181220310720509600_);}
	.st43{fill:url(#SVGID_00000142882126039775291740000009212932174095289260_);}
	.st44{fill:url(#SVGID_00000010301881500799245290000015616222962156684207_);}
	.st45{fill:url(#SVGID_00000046335165298733871240000008061590737711246215_);}
	.st46{fill:url(#SVGID_00000034805514004553897770000008536426399189208750_);}
	.st47{fill:url(#SVGID_00000083082175202161045210000012512203307294643380_);}
	.st48{fill:url(#SVGID_00000143618585698809580260000010096642813878479533_);}
	.st49{fill:url(#SVGID_00000065048676333578801880000000012477045223929751_);}
	.st50{fill:url(#SVGID_00000132784206292864795300000001211101913443039112_);}
	.st51{fill:url(#SVGID_00000127728835566282012900000000115519852668097963_);}
	.st52{fill:url(#SVGID_00000034086990608633074540000010139809747222694543_);}
	.st53{fill:url(#SVGID_00000166672405419088929850000015106304389681094065_);}
	.st54{fill:url(#SVGID_00000088100275244176406660000009307835478317956743_);}
	.st55{fill:url(#SVGID_00000098912558878997271690000009496342113833036949_);}
	.st56{opacity:0.25;fill:url(#SVGID_00000007399889626665462150000009148036000931678113_);}
	.st57{fill:url(#SVGID_00000000926082515645934170000005002910909429567164_);}
	.st58{fill:url(#SVGID_00000106865236706940508060000008196966087291509637_);}
	.st59{fill:url(#SVGID_00000011746148923422040370000001079359370982726332_);}
	.st60{fill:url(#SVGID_00000025443395548499930930000003978934482108034966_);}
	.st61{fill:url(#SVGID_00000036234562664198256690000002642880627104805000_);}
	.st62{fill:url(#SVGID_00000089575028276568363380000009266097603144004247_);}
	.st63{fill:url(#SVGID_00000012452062202748534060000001007394665140038801_);}
	.st64{fill:url(#SVGID_00000052064587313737813580000015703113412631957179_);}
	.st65{fill:url(#SVGID_00000137813147542426733100000009627016077641562000_);}
	.st66{fill:url(#SVGID_00000169533090709865568690000014143393118503749293_);}
	.st67{fill:url(#SVGID_00000026144041733316386930000013688951764737041062_);}
	.st68{fill:url(#SVGID_00000040542417053290316330000003112763848692761242_);}
	.st69{fill:url(#SVGID_00000029726213524322035710000007175769898766260370_);}
	.st70{fill:url(#SVGID_00000125574701849432596640000011146677774006538414_);}
	.st71{fill:url(#SVGID_00000142873533949365400310000007861178343651904912_);}
	.st72{fill:url(#SVGID_00000009589242713538391230000014999036518996452795_);}
	.st73{fill:url(#SVGID_00000083805783014769154190000013070265837311660454_);}
	.st74{fill:url(#SVGID_00000109012466714192496630000003531684759535408816_);}
	.st75{fill:url(#SVGID_00000034090690152750346560000010155621416366482078_);}
	.st76{fill:url(#SVGID_00000130612488058247181920000018392192300000519852_);}
	.st77{opacity:0.25;fill:url(#SVGID_00000002344641610596346630000005569596207062293941_);}
	.st78{fill:url(#SVGID_00000029760134882191891800000001325768224492518535_);}
	.st79{fill:url(#SVGID_00000009551513478829620070000012095585462726102686_);}
	.st80{fill:url(#SVGID_00000079466780753411680330000005251456924144101264_);}
	.st81{fill:url(#SVGID_00000044872880451275047330000011821666845387690647_);}
	.st82{fill:url(#SVGID_00000071524083422201435760000008892314840766411193_);}
	.st83{fill:url(#SVGID_00000116216087684193750290000001156092302394054829_);}
	.st84{fill:url(#SVGID_00000035501836011820972840000017954294663757016714_);}
	.st85{fill:url(#SVGID_00000008828115446221117820000005490419195553677486_);}
	.st86{clip-path:url(#SVGID_00000091721526674532912810000014273281027548850841_);}
	.st87{clip-path:url(#SVGID_00000176723522822096117480000010117532020884111797_);}
	.st88{clip-path:url(#SVGID_00000039820954544900829600000011038161765998282141_);}
	.st89{fill:#FFFFFF;}
	.st90{fill:url(#SVGID_00000016077848405509019760000002463807444152199844_);}
	.st91{clip-path:url(#SVGID_00000158023226117677845980000003411732167783732655_);}
	.st92{clip-path:url(#SVGID_00000023238653915083671970000000666154969574313617_);}
	.st93{clip-path:url(#SVGID_00000116199856084292206370000008040728265647464372_);}
	.st94{fill:url(#SVGID_00000173859379292326142920000003513120024537536640_);}
	.st95{fill:url(#SVGID_00000154427043862961911670000008796780236201555343_);}
	.st96{fill:url(#SVGID_00000109724224145868377830000010220689701055091075_);}
	.st97{fill:url(#SVGID_00000064356164968873631370000001449286520469746571_);}
	.st98{fill:url(#SVGID_00000111184075363682426890000007881689121875386520_);}
	.st99{fill:url(#SVGID_00000069381769328508419600000016573301947900541620_);}
	.st100{fill:url(#SVGID_00000079474797306893012100000000348130699317564338_);}
	.st101{fill:url(#SVGID_00000158733167536171291070000010470975848912802223_);}
	.st102{fill:url(#SVGID_00000138569396572656642260000012224179063565865618_);}
	.st103{fill:url(#SVGID_00000029759756158024954230000012874445653919873449_);}
	.st104{fill:url(#SVGID_00000067951393275912160210000001404386962128763325_);}
	.st105{fill:url(#SVGID_00000129911396755717564330000015902005857209162923_);}
	.st106{fill:url(#SVGID_00000147187743392488381940000006875684008442044335_);}
	.st107{opacity:0.25;fill:url(#SVGID_00000049203997617645620860000003906177780985799053_);}
	.st108{fill:url(#SVGID_00000174574324627336247860000002640317902076927627_);}
	.st109{fill:url(#SVGID_00000056407211686766369090000012703566874049753264_);}
	.st110{fill:url(#SVGID_00000098205631268161684250000014239302847214608512_);}
	.st111{fill:url(#SVGID_00000122701211090487757190000009027766664473799557_);}
	.st112{fill:url(#SVGID_00000173153519309982978190000008719240471927489922_);}
	.st113{fill:url(#SVGID_00000023990633504097283720000002690896077445228172_);}
	.st114{fill:url(#SVGID_00000012440337972921805230000001230852276003417733_);}
	.st115{fill:url(#SVGID_00000150072455794358394100000000398165421965169804_);}
	.st116{fill:url(#SVGID_00000104685068336727632820000000384238016590178697_);}
	.st117{fill:url(#SVGID_00000026859226510591330100000008619304400795336625_);}
	.st118{fill:url(#SVGID_00000165203147524458828920000010711334471155600530_);}
	.st119{fill:url(#SVGID_00000119076650756930531270000009344557344075068581_);}
	.st120{fill:url(#SVGID_00000080915602953636704110000000753507725466509242_);}
	.st121{fill:url(#SVGID_00000016041322407573607970000009332259692165346737_);}
	.st122{fill:url(#SVGID_00000101099092220503886440000010572074194511883401_);}
	.st123{fill:url(#SVGID_00000098218235635991298170000003929057758126647733_);}
	.st124{fill:url(#SVGID_00000181071195999830109840000000882722176826940033_);}
	.st125{fill:url(#SVGID_00000166674326042815713400000001077722299970253701_);}
	.st126{fill:url(#SVGID_00000065778390460974386790000002256549989399301773_);}
	.st127{fill:url(#SVGID_00000169548641473510988460000001807310478405293184_);}
	.st128{opacity:0.25;fill:url(#SVGID_00000083784964042646753380000009436006741712242343_);}
	.st129{fill:url(#SVGID_00000020367728475873633800000015485521407658740108_);}
	.st130{fill:url(#SVGID_00000164496345304184359710000017403628458237967287_);}
	.st131{fill:url(#SVGID_00000064328610680946650290000008307052532245308559_);}
	.st132{fill:url(#SVGID_00000124149367783337040690000007307030758879302054_);}
	.st133{fill:url(#SVGID_00000144333155381626663510000013673402305688966568_);}
	.st134{fill:url(#SVGID_00000080179427610798885520000008155735660998556047_);}
	.st135{fill:url(#SVGID_00000116930105118253875320000000036861694105155758_);}
	.st136{fill:url(#SVGID_00000023276111618059788340000001791994729243420068_);}
	.st137{clip-path:url(#SVGID_00000173853129183193802680000014682032201686857145_);}
	.st138{clip-path:url(#SVGID_00000096032054559667594940000017537436155655051690_);}
	.st139{clip-path:url(#SVGID_00000040549175479127291930000013895567290432141213_);}
	.st140{fill:url(#SVGID_00000046318243923917397090000007485361350780410782_);}
	.st141{fill:url(#SVGID_00000039110096059647506440000014803361257209440937_);}
	.st142{fill:url(#SVGID_00000139280969149993464590000000525552887121663404_);}
	.st143{fill:url(#SVGID_00000054249329492608778000000000048771994618520218_);}
	.st144{fill:url(#SVGID_00000038392265170810645210000008168143512707370941_);}
	.st145{fill:url(#SVGID_00000096023061938147380000000014232833439806557102_);}
	.st146{fill:url(#SVGID_00000098915352147455203780000008824193547104571554_);}
	.st147{fill:url(#SVGID_00000180341413204112177500000004950892331571679367_);}
	.st148{fill:url(#SVGID_00000016036600640591184950000017534875443846425761_);}
	.st149{fill:url(#SVGID_00000066504060947199059120000007993042758470331547_);}
	.st150{opacity:0.25;fill:url(#SVGID_00000083066327632706197650000010210898285061861039_);}
	.st151{fill:url(#SVGID_00000139283402822094880600000004918957118653353119_);}
	.st152{fill:url(#SVGID_00000076573645647744976880000018378510027812062138_);}
	.st153{fill:url(#SVGID_00000019643736838753276880000006794583755149295543_);}
	.st154{fill:url(#SVGID_00000093161815201962303220000011032314712532943268_);}
	.st155{fill:url(#SVGID_00000183243850668278268400000014086670244751157693_);}
	.st156{fill:url(#SVGID_00000062191613006370557970000009464621509126125465_);}
	.st157{fill:url(#SVGID_00000089567272201546914890000002617279343667448510_);}
	.st158{fill:url(#SVGID_00000138554545054932817580000011285113430927892394_);}
	.st159{fill:url(#SVGID_00000131345501299458979030000004575139754933788051_);}
	.st160{fill:url(#SVGID_00000083052443689103618610000005225563271952067716_);}
	.st161{fill:url(#SVGID_00000075855119375688744650000010735579637959954843_);}
	.st162{fill:url(#SVGID_00000165933460711582228580000003920902440508565378_);}
	.st163{fill:url(#SVGID_00000062881199580507155770000010371944581942735010_);}
	.st164{fill:url(#SVGID_00000182506496249534214550000005228614285037495704_);}
	.st165{fill:url(#SVGID_00000136410293630529644820000017777666713601828790_);}
	.st166{opacity:0.25;fill:url(#SVGID_00000114783145512474505200000005660204216478540219_);}
	.st167{fill:url(#SVGID_00000157266100199787133900000007562327908408848313_);}
	.st168{fill:url(#SVGID_00000033366913980683049610000015232237946553244846_);}
	.st169{fill:url(#SVGID_00000150075342618088145310000018165905107384830369_);}
	.st170{fill:url(#SVGID_00000115504504246228840170000012660481218283091877_);}
	.st171{fill:url(#SVGID_00000033353836285197699910000011554451797612284035_);}
	.st172{fill:url(#SVGID_00000002373795927019874220000003823039407630658486_);}
	.st173{fill:url(#SVGID_00000183243844513682260420000004455470326556550555_);}
	.st174{fill:url(#SVGID_00000101816253763142433030000013575013825571822518_);}
	.st175{fill:url(#SVGID_00000150787757052201946310000006468861852293932954_);}
</style>
<g>
	<g>
		<g>
			<linearGradient id="SVGID_1_" gradientUnits="userSpaceOnUse" x1="2199.9312" y1="390.4147" x2="2199.9312" y2="0">
				<stop  offset="0" style="stop-color:#F2703E"/>
				<stop  offset="1" style="stop-color:#F89D48"/>
			</linearGradient>
			<path class="st0" d="M3782.2,56.8c-36.9-36.6-87.2-56.7-141.7-56.7c-0.2,0-0.5,0-0.7,0v0H829.3C828.1,0,826.9,0,825.7,0H622.9
				c-34.3,0-62.1,27.8-62.1,62.1v266.2c0,34.3,27.8,62.1,62.1,62.1h58.6c0.1,0,0.1,0,0.2,0h2958c0,0,0,0,0,0
				c54.5,0,104.9-20.3,142.1-57.1c36.9-36.5,57.2-85.5,57.2-138.1v-0.7C3839,142,3818.8,93.1,3782.2,56.8z"/>
			
				<linearGradient id="SVGID_00000023988923405871678080000011998811754689536903_" gradientUnits="userSpaceOnUse" x1="2199.9312" y1="390.4146" x2="2199.9312" y2="9.426355e-05">
				<stop  offset="0" style="stop-color:#F6944A;stop-opacity:0"/>
				<stop  offset="1" style="stop-color:#FBC090"/>
			</linearGradient>
			<path style="fill:url(#SVGID_00000023988923405871678080000011998811754689536903_);" d="M825.7,21.5c0.7,0,1.5,0,2.4,0.1l0.6,0
				h0.6h2789v0l21.6,0c0.2,0,0.4,0,0.7,0l0.1,0c48.7,0,93.7,17.9,126.5,50.5c32.5,32.2,50.4,75.7,50.4,122.4v0.7
				c0,46.7-18,90.3-50.8,122.8c-33.1,32.8-78.2,50.8-126.9,50.8h-2958c-0.2,0-0.3,0-0.5,0h-58.3c-22.4,0-40.6-18.2-40.6-40.6V62.1
				c0-22.4,18.2-40.6,40.6-40.6H825.7 M825.7,0H622.9c-34.3,0-62.1,27.8-62.1,62.1v266.2c0,34.3,27.8,62.1,62.1,62.1h58.6
				c0.1,0,0.1,0,0.2,0h2958c0,0,0,0,0,0c54.5,0,104.9-20.3,142.1-57.1c36.9-36.5,57.2-85.5,57.2-138.1v-0.7
				c0-52.5-20.2-101.4-56.8-137.7c-36.9-36.6-87.2-56.7-141.7-56.7c-0.2,0-0.5,0-0.7,0v0H829.3C828.1,0,826.9,0,825.7,0L825.7,0z"/>
		</g>
		<g>
			<polygon points="622.9,328.3 681.5,328.3 681.5,225.3 808.6,225.3 808.6,172 681.5,172 681.5,115.3 825.7,115.3 825.7,62.1 
				622.9,62.1 			"/>
			<rect x="856.1" y="62.1" width="58.6" height="266.2"/>
			<polygon points="1020,159.1 1149,328.3 1198.8,328.3 1198.8,62.1 1141,62.1 1141,226 1016.2,62.1 962.2,62.1 962.2,328.3 
				1020,328.3 			"/>
			<path d="M1280.5,328.3l24.3-59.7h112.6l24.3,59.7h61.2L1388.9,60.2h-54l-114.1,268.1H1280.5z M1361.2,130.5l35.4,86.3h-70.7
				L1361.2,130.5z"/>
			<polygon points="1716.4,275.1 1583.7,275.1 1583.7,62.1 1525.1,62.1 1525.1,328.3 1716.4,328.3 			"/>
			<path d="M2062.9,255.3v-0.8c0-35.8-19-53.6-49.8-65.4c19-10.6,35-27.4,35-57.4v-0.8c0-41.8-33.5-68.8-87.9-68.8h-123.6v266.2
				h126.7C2023.3,328.3,2062.9,304,2062.9,255.3z M1893.6,113.4h57.8c24.7,0,38.4,9.9,38.4,27.4v0.8c0,19.8-16.4,28.1-42.2,28.1h-54
				V113.4z M1893.6,218.4h67.7c30,0,43.4,11,43.4,28.9v0.8c0,19.8-15.6,28.9-41.5,28.9h-69.6V218.4z"/>
			<path d="M2320,62.1h-58.6v152.5c0,42.2-21.7,63.9-57.4,63.9c-35.8,0-57.4-22.4-57.4-65.8V62.1H2088v152.1
				c0,78.4,43.7,118.3,115.2,118.3c71.5,0,116.8-39.6,116.8-120.2V62.1z"/>
			<path d="M2419.3,243.1h46l57.1,85.2h68.5l-65-95.1c33.9-12.6,57.1-39.6,57.1-82.5v-0.8c0-54.8-37.7-87.9-100.4-87.9h-121.7v266.2
				h58.6V243.1z M2419.3,115h58.2c28.5,0,46,12.9,46,38v0.8c0,22.4-16.4,37.7-44.9,37.7h-59.3V115z"/>
			<polygon points="2674.5,159.1 2803.4,328.3 2853.2,328.3 2853.2,62.1 2795.4,62.1 2795.4,226 2670.7,62.1 2616.7,62.1 
				2616.7,328.3 2674.5,328.3 			"/>
			<polygon points="2993.2,62.1 2993.2,328.3 3051,328.3 3051,159.1 3179.9,328.3 3229.8,328.3 3229.8,62.1 3171.9,62.1 3171.9,226 
				3047.2,62.1 			"/>
			<polygon points="3475.5,114.2 3475.5,62.1 3274.6,62.1 3274.6,328.3 3477.4,328.3 3477.4,276.2 3332.8,276.2 3332.8,220.3 
				3458.3,220.3 3458.3,168.2 3332.8,168.2 3332.8,114.2 			"/>
			<path d="M3640.5,60.8c-80.3,0-138.6,60.6-138.6,134.5v0.7c0,73.9,57.6,133.8,137.8,133.8s138.6-60.6,138.6-134.5v-0.7
				C3778.4,120.6,3720.8,60.8,3640.5,60.8z M3718.5,196c0,44.6-32,81-78,81c-46.1,0-78.8-37.2-78.8-81.7v-0.7c0-44.6,32-81,78-81
				c46.1,0,78.8,37.2,78.8,81.7V196z"/>
		</g>
	</g>
	<g>
		<g>
			<g>
				<g>
					
						<linearGradient id="SVGID_00000143612061466953292650000010569650428441962626_" gradientUnits="userSpaceOnUse" x1="39.527" y1="330.158" x2="390.8323" y2="-21.1474">
						<stop  offset="0" style="stop-color:#F2703E"/>
						<stop  offset="1" style="stop-color:#F89D48"/>
					</linearGradient>
					<path style="fill:url(#SVGID_00000143612061466953292650000010569650428441962626_);" d="M369.5,0H0v49.8l300.6,105.7H472
						v-53.1C472,45.9,426.1,0,369.5,0z M286.9,164.4l-129.5-45.5v185.9l-57.6,20.6v65h228.8V281.1h-41.7V164.4z M300.6,267.4H472
						v-98.1H300.6V267.4z"/>
				</g>
			</g>
			<g>
				
					<linearGradient id="SVGID_00000167374954800011704730000012496907994636231591_" gradientUnits="userSpaceOnUse" x1="1.004115e-04" y1="77.7628" x2="471.9852" y2="77.7628">
					<stop  offset="0" style="stop-color:#F6944A;stop-opacity:0"/>
					<stop  offset="1" style="stop-color:#FBC090"/>
				</linearGradient>
				<path style="fill:url(#SVGID_00000167374954800011704730000012496907994636231591_);" d="M369.5,8c52.1,0,94.5,42.4,94.5,94.5
					v45.1H302L8,44.1V8H369.5 M369.5,0H0v49.8l300.6,105.7H472v-53.1C472,45.9,426.1,0,369.5,0L369.5,0z"/>
				<g>
					
						<linearGradient id="SVGID_00000127045844942814074450000014600014381346951586_" gradientUnits="userSpaceOnUse" x1="103.5149" y1="394.1455" x2="310.048" y2="187.6124">
						<stop  offset="0" style="stop-color:#F6944A;stop-opacity:0"/>
						<stop  offset="1" style="stop-color:#FBC090"/>
					</linearGradient>
					<path style="fill:url(#SVGID_00000127045844942814074450000014600014381346951586_);" d="M165.4,130.1l113.5,39.9v111.1v8h8
						h33.8v93.3H107.8v-51.4l52.3-18.8l5.3-1.9v-5.6V130.1 M157.4,118.9v185.9l-57.6,20.6v65h228.8V281.1h-41.7V164.4L157.4,118.9
						L157.4,118.9z"/>
				</g>
				<g>
					
						<linearGradient id="SVGID_00000023997415375742940430000017572251362452430753_" gradientUnits="userSpaceOnUse" x1="318.9446" y1="285.6962" x2="453.673" y2="150.9678">
						<stop  offset="0" style="stop-color:#F6944A;stop-opacity:0"/>
						<stop  offset="1" style="stop-color:#FBC090"/>
					</linearGradient>
					<path style="fill:url(#SVGID_00000023997415375742940430000017572251362452430753_);" d="M464,177.2v82.2H308.6v-82.2H464
						 M472,169.3H300.6v98.1H472V169.3L472,169.3z"/>
				</g>
			</g>
		</g>
		
			<linearGradient id="SVGID_00000086685531347811419720000017885510979572343204_" gradientUnits="userSpaceOnUse" x1="300.6324" y1="151.5425" x2="471.9852" y2="151.5425">
			<stop  offset="0" style="stop-color:#E65726"/>
			<stop  offset="1" style="stop-color:#F26F48"/>
		</linearGradient>
		<polygon style="fill:url(#SVGID_00000086685531347811419720000017885510979572343204_);" points="472,155.5 464,147.6 302,147.6 
			300.6,155.5 		"/>
		
			<linearGradient id="SVGID_00000089540127692173857760000005886409451924190867_" gradientUnits="userSpaceOnUse" x1="343.4706" y1="310.2224" x2="429.1471" y2="224.5458">
			<stop  offset="0" style="stop-color:#E65726"/>
			<stop  offset="1" style="stop-color:#F26F48"/>
		</linearGradient>
		<polygon style="fill:url(#SVGID_00000089540127692173857760000005886409451924190867_);" points="308.6,259.4 300.6,267.4 
			472,267.4 464,259.4 		"/>
		
			<linearGradient id="SVGID_00000145745926406318089250000010092215102851325610_" gradientUnits="userSpaceOnUse" x1="156.9881" y1="447.6191" x2="271.3972" y2="333.2101">
			<stop  offset="0" style="stop-color:#E65726"/>
			<stop  offset="1" style="stop-color:#F27247"/>
		</linearGradient>
		<polygon style="fill:url(#SVGID_00000145745926406318089250000010092215102851325610_);" points="99.8,390.4 107.8,382.4 
			320.6,382.4 328.6,390.4 		"/>
		
			<linearGradient id="SVGID_00000075155730907770575440000016471415924807474094_" gradientUnits="userSpaceOnUse" x1="83.5456" y1="374.1766" x2="117.2013" y2="340.5209">
			<stop  offset="0" style="stop-color:#E65726"/>
			<stop  offset="1" style="stop-color:#F26F48"/>
		</linearGradient>
		<polygon style="fill:url(#SVGID_00000075155730907770575440000016471415924807474094_);" points="99.8,325.5 107.8,331.1 
			107.8,382.4 99.8,390.4 		"/>
		
			<linearGradient id="SVGID_00000141448090861777463040000016536033145893748871_" gradientUnits="userSpaceOnUse" x1="112.4199" y1="338.0984" x2="152.7323" y2="297.786">
			<stop  offset="0" style="stop-color:#F2703E"/>
			<stop  offset="1" style="stop-color:#F89D48"/>
		</linearGradient>
		<polyline style="opacity:0.25;fill:url(#SVGID_00000141448090861777463040000016536033145893748871_);" points="157.4,304.8 
			165.4,310.4 107.8,331.1 99.8,325.5 		"/>
		
			<linearGradient id="SVGID_00000125566786346230627080000001501570862671129250_" gradientUnits="userSpaceOnUse" x1="114.3175" y1="261.7303" x2="207.2736" y2="168.7742">
			<stop  offset="0" style="stop-color:#E65726"/>
			<stop  offset="1" style="stop-color:#F26F48"/>
		</linearGradient>
		<polygon style="fill:url(#SVGID_00000125566786346230627080000001501570862671129250_);" points="157.4,118.9 157.4,304.8 
			165.4,310.4 165.4,130.1 		"/>
		
			<linearGradient id="SVGID_00000109749620654940454750000016438468195289775235_" gradientUnits="userSpaceOnUse" x1="101.5942" y1="151.3758" x2="203.7016" y2="49.2684">
			<stop  offset="0" style="stop-color:#E65726"/>
			<stop  offset="1" style="stop-color:#F27247"/>
		</linearGradient>
		<polygon style="fill:url(#SVGID_00000109749620654940454750000016438468195289775235_);" points="8,44.1 0,49.8 300.6,155.5 
			302,147.6 		"/>
		
			<linearGradient id="SVGID_00000047022733767599680200000009426294362117479095_" gradientUnits="userSpaceOnUse" x1="276.1064" y1="242.8581" x2="325.1584" y2="193.806">
			<stop  offset="0" style="stop-color:#E65726"/>
			<stop  offset="1" style="stop-color:#F26F48"/>
		</linearGradient>
		<polygon style="fill:url(#SVGID_00000047022733767599680200000009426294362117479095_);" points="300.6,169.3 300.6,267.4 
			308.6,259.4 308.6,177.2 		"/>
		
			<linearGradient id="SVGID_00000149359406203813520670000003806661372766899890_" gradientUnits="userSpaceOnUse" x1="-11.8644" y1="37.9173" x2="13.0265" y2="13.0264">
			<stop  offset="0" style="stop-color:#E65726"/>
			<stop  offset="1" style="stop-color:#F27247"/>
		</linearGradient>
		<polygon style="fill:url(#SVGID_00000149359406203813520670000003806661372766899890_);" points="0,0 0,49.8 8,44.1 8,8 		"/>
		
			<linearGradient id="SVGID_00000092453569215882909430000016711623103147529618_" gradientUnits="userSpaceOnUse" x1="278.9119" y1="285.1215" x2="328.6016" y2="285.1215">
			<stop  offset="0" style="stop-color:#FBC090;stop-opacity:0.5"/>
			<stop  offset="1" style="stop-color:#FBC090"/>
		</linearGradient>
		<polygon style="fill:url(#SVGID_00000092453569215882909430000016711623103147529618_);" points="286.9,281.1 278.9,289.1 
			320.6,289.1 328.6,281.1 		"/>
		
			<linearGradient id="SVGID_00000090282653136465693900000016834454188076463030_" gradientUnits="userSpaceOnUse" x1="343.4706" y1="212.1185" x2="429.1471" y2="126.442">
			<stop  offset="0" style="stop-color:#FBC090;stop-opacity:0"/>
			<stop  offset="1" style="stop-color:#FBC090"/>
		</linearGradient>
		<polygon style="fill:url(#SVGID_00000090282653136465693900000016834454188076463030_);" points="464,177.2 472,169.3 
			300.6,169.3 308.6,177.2 		"/>
		
			<linearGradient id="SVGID_00000023995534814209714900000008726831895020800165_" gradientUnits="userSpaceOnUse" x1="199.5157" y1="164.2969" x2="243.1241" y2="120.6886">
			<stop  offset="0" style="stop-color:#F2703E;stop-opacity:0.5"/>
			<stop  offset="1" style="stop-color:#F89D48;stop-opacity:0.2"/>
		</linearGradient>
		<polygon style="fill:url(#SVGID_00000023995534814209714900000008726831895020800165_);" points="278.9,170.1 286.9,164.4 
			157.4,118.9 165.4,130.1 		"/>
	</g>
</g>
</svg>
