<?xml version="1.0" encoding="utf-8"?>
<!-- Generator: Adobe Illustrator 25.4.1, SVG Export Plug-In . SVG Version: 6.00 Build 0)  -->
<svg version="1.1" id="Layer_1" xmlns="http://www.w3.org/2000/svg" xmlns:xlink="http://www.w3.org/1999/xlink" x="0px" y="0px"
	 viewBox="0 0 3839 458.2" style="enable-background:new 0 0 3839 458.2;" xml:space="preserve">
<style type="text/css">
	.st0{fill:#FFFFFF;}
	.st1{fill:#7B9A99;}
	.st2{fill:url(#SVGID_1_);}
	.st3{clip-path:url(#SVGID_00000081642131102143458490000012403067722259074999_);}
	.st4{fill:#606161;}
	.st5{clip-path:url(#SVGID_00000137131301136722411750000007013604702651899827_);}
	.st6{clip-path:url(#SVGID_00000010304540467776903900000001271248360016958880_);}
	.st7{fill:url(#SVGID_00000070801640658433444380000002147828492932900486_);}
	.st8{fill:url(#SVGID_00000142855307697428481900000005192503493103142546_);}
	.st9{fill:url(#SVGID_00000116235160363022853020000016991622751247173779_);}
	.st10{fill:url(#SVGID_00000133510068435934288030000011000740951390619554_);}
	.st11{fill:#F58746;}
	.st12{fill:url(#SVGID_00000161630017400119038720000006967281546864304797_);}
	.st13{fill:url(#SVGID_00000173851702213156855630000009564921810723232653_);}
	.st14{fill:url(#SVGID_00000039124835514453416700000015044995974927433143_);}
	.st15{fill:url(#SVGID_00000090994462975302972790000001599355110184156344_);}
	.st16{fill:url(#SVGID_00000132067155827068072300000018105118421980735128_);}
	.st17{fill:url(#SVGID_00000073682382871790092000000012627318214506821535_);}
	.st18{fill:url(#SVGID_00000173123914035840776490000015518707311853451177_);}
	.st19{fill:url(#SVGID_00000112617911538802718760000012364701528219237264_);}
	.st20{fill:url(#SVGID_00000097461755646166962770000005890722900821893795_);}
	.st21{fill:url(#SVGID_00000144324322509962032560000018317287381052013993_);}
	.st22{fill:url(#SVGID_00000028293254669714204510000000116009530296094642_);}
	.st23{fill:url(#SVGID_00000167374162152445345510000015343326267846142638_);}
	.st24{opacity:0.25;fill:url(#SVGID_00000082348307621916667200000013844315984736780430_);}
	.st25{fill:url(#SVGID_00000158723111351508545700000015099156948490243200_);}
	.st26{fill:url(#SVGID_00000134248466207959844090000001028673753709160068_);}
	.st27{fill:url(#SVGID_00000180368398747569077370000003428877025944678040_);}
	.st28{fill:url(#SVGID_00000121959385178097196000000002210652367500046001_);}
	.st29{fill:url(#SVGID_00000060020051439242556660000001984397450071963309_);}
	.st30{fill:url(#SVGID_00000000937939476486317900000013414110549274117544_);}
	.st31{fill:url(#SVGID_00000179645452626110807440000010953690943587938944_);}
	.st32{fill:url(#SVGID_00000089544860926303507560000012797607485884921018_);}
	.st33{fill:url(#SVGID_00000101821805494670740630000016518369518080859796_);}
	.st34{fill:url(#SVGID_00000000922571668698053800000014330309809539725243_);}
	.st35{fill:url(#SVGID_00000015339814377764380040000012285567768149713034_);}
	.st36{fill:url(#SVGID_00000054987409956479794830000017528766352370592167_);}
	.st37{fill:url(#SVGID_00000160871322884374296690000008519996176102710406_);}
	.st38{fill:url(#SVGID_00000089567788293751418500000008986658497350417826_);}
	.st39{fill:url(#SVGID_00000003803769865473321080000005058624734038493603_);}
	.st40{opacity:0.25;fill:url(#SVGID_00000151507127008209700260000014814992487936453261_);}
	.st41{fill:url(#SVGID_00000096762394694577863790000006477370900235727023_);}
	.st42{fill:url(#SVGID_00000163046813480970730520000006021779321536865427_);}
	.st43{fill:url(#SVGID_00000003784707841710576180000007947714984620720034_);}
	.st44{fill:url(#SVGID_00000005261156953211608170000006441370475301006521_);}
	.st45{fill:url(#SVGID_00000183964076201138587680000002706511700592941444_);}
	.st46{fill:url(#SVGID_00000011744262936033827330000004068463933854937230_);}
	.st47{fill:url(#SVGID_00000142175668901557481610000014911226888900427707_);}
	.st48{fill:url(#SVGID_00000059990067695374157970000012682253664861493669_);}
	.st49{clip-path:url(#SVGID_00000004505529512742839590000018217547123484809344_);}
	.st50{clip-path:url(#SVGID_00000036953071272709146400000011817515903619380369_);}
	.st51{clip-path:url(#SVGID_00000168079055227144215550000012553197797319762366_);}
	.st52{fill:url(#SVGID_00000145777436885524241210000009475683608418065341_);}
	.st53{fill:url(#SVGID_00000111897733313075125360000016483950277903235209_);}
	.st54{fill:url(#SVGID_00000147913291019418844810000002040227569769864626_);}
	.st55{fill:url(#SVGID_00000048497979515102054480000002436493962853539263_);}
	.st56{fill:url(#SVGID_00000106143389464781005590000008081038130621675701_);}
	.st57{fill:url(#SVGID_00000011005375620058805760000012347869518160910774_);}
	.st58{fill:url(#SVGID_00000153684751564307372860000007810027408286642335_);}
	.st59{clip-path:url(#SVGID_00000146490166441572842650000016091882133657421732_);}
	.st60{clip-path:url(#SVGID_00000022545090455261541770000011996901810640772001_);}
	.st61{clip-path:url(#SVGID_00000115480140523791806570000016479146790704255913_);}
	.st62{fill:url(#SVGID_00000018945040198581963080000001815011188646320526_);}
	.st63{clip-path:url(#SVGID_00000025428599286999855970000013057471757859477640_);}
	.st64{clip-path:url(#SVGID_00000078029066533819608720000000637116175867592611_);}
	.st65{clip-path:url(#SVGID_00000117654397004369534770000013406969515131088548_);}
	.st66{fill:url(#SVGID_00000098935211494301549100000005869033617103427490_);}
	.st67{fill:url(#SVGID_00000040575078797529606010000007145427636504923839_);}
	.st68{fill:url(#SVGID_00000013182171700415893750000000807693529028074153_);}
	.st69{fill:url(#SVGID_00000095308164317995781870000006848165492374711986_);}
	.st70{fill:url(#SVGID_00000103966143562501727090000001604613509257859717_);}
	.st71{fill:url(#SVGID_00000031199659740259591780000013301515126995748997_);}
	.st72{fill:url(#SVGID_00000023986872535468494360000000613562696942959010_);}
	.st73{fill:url(#SVGID_00000045616141939526318020000014675836100255754915_);}
	.st74{fill:url(#SVGID_00000085248841452685984050000016067307828188069034_);}
	.st75{fill:url(#SVGID_00000011714056776186213180000015941633123820866205_);}
	.st76{fill:url(#SVGID_00000051356854909789221830000011460842597257061532_);}
	.st77{fill:url(#SVGID_00000103979798325391890620000016346982069205075128_);}
	.st78{opacity:0.25;fill:url(#SVGID_00000068666511451643377390000003904060438314382250_);}
	.st79{fill:url(#SVGID_00000111183940009342851210000004254563599933557684_);}
	.st80{fill:url(#SVGID_00000086688033246744118690000009174104628931195284_);}
	.st81{fill:url(#SVGID_00000047778898017854251500000011846880131965316258_);}
	.st82{fill:url(#SVGID_00000002355015832557785930000010710691653318520709_);}
	.st83{fill:url(#SVGID_00000009570089604997936990000005250204672586291329_);}
	.st84{fill:url(#SVGID_00000169549017538434148210000015172008295988924324_);}
	.st85{fill:url(#SVGID_00000046323184064024871380000007887541678439717251_);}
	.st86{fill:url(#SVGID_00000182513098318657724630000007337935085621296046_);}
	.st87{fill:url(#SVGID_00000052816860790942491600000015711023538808317078_);}
	.st88{fill:url(#SVGID_00000005247266216822029280000017697722962526396094_);}
	.st89{fill:url(#SVGID_00000005948049378849325070000003993764636551082138_);}
	.st90{fill:url(#SVGID_00000124850407493820917360000002896854230345316019_);}
	.st91{fill:url(#SVGID_00000080896734733075544530000000955237412350146473_);}
	.st92{fill:url(#SVGID_00000154406739715715235270000015660734731432436640_);}
	.st93{fill:url(#SVGID_00000028320453821953342840000017361617943974166960_);}
	.st94{opacity:0.25;fill:url(#SVGID_00000065051562551802396640000015427892344756086940_);}
	.st95{fill:url(#SVGID_00000022524896753258029700000005433622027360329127_);}
	.st96{fill:url(#SVGID_00000020397014313193369860000011160530715721587886_);}
	.st97{fill:url(#SVGID_00000068636539821981626960000013249615952158361775_);}
	.st98{fill:url(#SVGID_00000145050868363831726970000013967818060147125948_);}
	.st99{fill:url(#SVGID_00000101806472257166243300000011158333042878718108_);}
	.st100{fill:url(#SVGID_00000003809758927213277920000007668404531315124375_);}
	.st101{fill:url(#SVGID_00000119835526805692262990000007464744396066215563_);}
	.st102{fill:url(#SVGID_00000123405408208534286900000002141930750246108553_);}
	.st103{fill:url(#SVGID_00000055692927101785151960000002165154295151181482_);}
	.st104{fill:url(#SVGID_00000137832846973092990360000014281250191477942685_);}
	.st105{fill:url(#SVGID_00000166647922937550497100000012743556704230244233_);}
	.st106{fill:url(#SVGID_00000047741422503017125960000009933955210355531904_);}
	.st107{fill:url(#SVGID_00000026882393326752590320000009764262410461192080_);}
	.st108{fill:url(#SVGID_00000091694590962867965660000012814898884083141308_);}
	.st109{fill:url(#SVGID_00000054980412962290058800000018080463462763704507_);}
	.st110{fill:url(#SVGID_00000093862795449730644370000010098063255177279104_);}
	.st111{fill:url(#SVGID_00000176756086670273285430000001543859974275874963_);}
	.st112{opacity:0.25;fill:url(#SVGID_00000055708913283134741680000013378795723272407720_);}
	.st113{fill:url(#SVGID_00000026159221998019598310000014464473903471252878_);}
	.st114{fill:url(#SVGID_00000052789878597678655400000006929519541389407676_);}
	.st115{fill:url(#SVGID_00000141417838277680129870000005737759275341662881_);}
	.st116{fill:url(#SVGID_00000173841120291568006040000012794841600493399204_);}
	.st117{fill:url(#SVGID_00000093139056156540514400000003855453134274961299_);}
	.st118{fill:url(#SVGID_00000166667914069887485650000015019317862386446464_);}
	.st119{fill:url(#SVGID_00000022524801258126460410000007703259949601520830_);}
	.st120{fill:url(#SVGID_00000115472933388776067960000008410905692541103502_);}
	.st121{fill:url(#SVGID_00000142862154090222907760000011100834703840584611_);}
	.st122{fill:url(#SVGID_00000003081708657969138230000004332600840082891689_);}
	.st123{fill:url(#SVGID_00000133491681938286592340000001884547511594749582_);}
	.st124{fill:url(#SVGID_00000022555697374279001550000015622725300760359296_);}
	.st125{fill:url(#SVGID_00000129177876616434041200000003295623897888068268_);}
	.st126{fill:url(#SVGID_00000029742056391371748140000003441662281141042826_);}
	.st127{fill:url(#SVGID_00000019659642839333464000000014784131967704686223_);}
	.st128{opacity:0.25;fill:url(#SVGID_00000057831326349463070260000006553971049144762534_);}
	.st129{fill:url(#SVGID_00000139294810271981052960000013733805578464624789_);}
	.st130{fill:url(#SVGID_00000024697981399332753380000006536513266301163925_);}
	.st131{fill:url(#SVGID_00000116927657049709762450000011311243258451163030_);}
	.st132{fill:url(#SVGID_00000018196188124270212780000017287754419579377838_);}
	.st133{fill:url(#SVGID_00000148660617915693589230000016434201386399406470_);}
	.st134{fill:url(#SVGID_00000159433698871824417700000002606192024763847559_);}
	.st135{fill:url(#SVGID_00000134216939679460225410000012960440594054241682_);}
	.st136{fill:url(#SVGID_00000182521089231843558390000004267434731465941142_);}
	.st137{fill:url(#SVGID_00000168116293907518293220000005129057085120349858_);}
</style>
<g>
	<g>
		<path class="st0" d="M686.9,117h169.3v44.5H735.8v47.3h106.1v44.5H735.8v86.1h-48.9V117z"/>
		<path class="st0" d="M889.5,117h48.9v222.3h-48.9V117z"/>
		<path class="st0" d="M986,117h45.1l104.2,136.9V117h48.3v222.3H1142L1034.3,198v141.3H986V117z"/>
		<path class="st0" d="M1305.2,115.4h45.1l95.3,223.9h-51.1l-20.3-49.9h-94l-20.3,49.9h-49.9L1305.2,115.4z M1356.6,246.3
			l-29.5-72.1l-29.5,72.1H1356.6z"/>
		<path class="st0" d="M1471.9,117h48.9v177.8h110.8v44.5h-159.7V117z"/>
		<path class="st0" d="M1747.9,117h103.2c25.4,0,45.4,7,58.1,19.7c10.2,10.2,15.2,22.5,15.2,37.8v0.6c0,25.1-13.3,39.1-29.2,48
			c25.7,9.8,41.6,24.8,41.6,54.6v0.6c0,40.6-33,61-83.2,61h-105.8V117z M1840.6,206.9c21.6,0,35.2-7,35.2-23.5v-0.6
			c0-14.6-11.4-22.9-32.1-22.9h-48.3v47H1840.6z M1853.6,296.4c21.6,0,34.6-7.6,34.6-24.1v-0.6c0-14.9-11.1-24.1-36.2-24.1h-56.5
			v48.9H1853.6z"/>
		<path class="st0" d="M1965.7,244V117h48.9v125.8c0,36.2,18.1,54.9,48,54.9s48-18.1,48-53.4V117h48.9v125.4
			c0,67.3-37.8,100.4-97.5,100.4C2002.2,342.8,1965.7,309.5,1965.7,244z"/>
		<path class="st0" d="M2201.3,117H2303c28.3,0,50.2,7.9,64.8,22.5c12.4,12.4,19.1,29.9,19.1,50.8v0.6c0,35.9-19.4,58.4-47.6,68.9
			l54.3,79.4h-57.2l-47.6-71.1h-38.4v71.1h-48.9V117z M2299.8,225c23.8,0,37.5-12.7,37.5-31.4v-0.6c0-21-14.6-31.8-38.4-31.8h-48.6
			V225H2299.8z"/>
		<path class="st0" d="M2423,117h45.1l104.2,136.9V117h48.3v222.3h-41.6L2471.3,198v141.3H2423V117z"/>
		<path class="st0" d="M2829.5,115.4h45.1l95.3,223.9h-51.1l-20.3-49.9h-94l-20.3,49.9h-49.9L2829.5,115.4z M2880.9,246.3
			l-29.5-72.1l-29.5,72.1H2880.9z"/>
		<path class="st0" d="M2996.2,117h48.9v177.8h110.8v44.5h-159.7V117z"/>
		<path class="st0" d="M3184.8,117h90.8c53,0,85.1,31.4,85.1,76.9v0.6c0,51.4-40,78.1-89.9,78.1h-37.2v66.7h-48.9V117z
			 M3272.5,229.1c24.5,0,38.7-14.6,38.7-33.7v-0.6c0-21.9-15.2-33.7-39.7-33.7h-37.8v68H3272.5z"/>
		<path class="st0" d="M3389,117h48.9v88h90.2v-88h48.9v222.3h-48.9v-89.2h-90.2v89.2H3389V117z"/>
		<path class="st0" d="M3698.6,115.4h45.1l95.3,223.9h-51.1l-20.3-49.9h-94l-20.3,49.9h-49.9L3698.6,115.4z M3750.1,246.3
			l-29.5-72.1l-29.5,72.1H3750.1z"/>
	</g>
	<g>
		<g>
			<g>
				<linearGradient id="SVGID_1_" gradientUnits="userSpaceOnUse" x1="46.3915" y1="387.496" x2="458.7075" y2="-24.82">
					<stop  offset="0" style="stop-color:#F2703E"/>
					<stop  offset="1" style="stop-color:#F89D48"/>
				</linearGradient>
				<path class="st2" d="M433.7,0H0v58.4l352.8,124.1H554v-62.3C554,53.8,500.1,0,433.7,0z M336.7,193l-152-53.4v218.2L117.1,382
					v76.2h268.6V330h-49V193z M352.8,313.8H554V198.7H352.8V313.8z"/>
			</g>
		</g>
		<g>
			<g>
				
					<linearGradient id="SVGID_00000072960316891082325820000017302430529431379095_" gradientUnits="userSpaceOnUse" x1="-6.499003e-05" y1="91.2679" x2="553.954" y2="91.2679">
					<stop  offset="0" style="stop-color:#F6944A;stop-opacity:0"/>
					<stop  offset="1" style="stop-color:#FBC090"/>
				</linearGradient>
				<path style="fill:url(#SVGID_00000072960316891082325820000017302430529431379095_);" d="M433.7,7c30.2,0,58.7,11.8,80.1,33.2
					C535.2,61.5,547,90,547,120.2v55.3H354L7,53.5V7H433.7 M433.7,0H0v58.4l352.8,124.1H554v-62.3C554,53.8,500.1,0,433.7,0L433.7,0
					z"/>
			</g>
			<g>
				
					<radialGradient id="SVGID_00000057858606385264594850000010879025867638456485_" cx="251.3913" cy="298.885" r="147.3387" gradientUnits="userSpaceOnUse">
					<stop  offset="0" style="stop-color:#F48036"/>
					<stop  offset="1" style="stop-color:#FDD6AD;stop-opacity:0"/>
				</radialGradient>
				<path style="fill:url(#SVGID_00000057858606385264594850000010879025867638456485_);" d="M191.7,149.4l138,48.5v132v7h7h42
					v114.3H124.1v-64.3l63-22.6l4.6-1.7v-4.9V149.4 M184.7,139.6v218.2L117.1,382v76.2h268.6V330h-49V193L184.7,139.6L184.7,139.6z"
					/>
			</g>
			<g>
				
					<radialGradient id="SVGID_00000047782638252034958890000010511238479866650253_" cx="453.3984" cy="256.2495" r="81.9324" gradientUnits="userSpaceOnUse">
					<stop  offset="0" style="stop-color:#F48036"/>
					<stop  offset="1" style="stop-color:#FDD6AD;stop-opacity:0"/>
				</radialGradient>
				<path style="fill:url(#SVGID_00000047782638252034958890000010511238479866650253_);" d="M547,205.7v101.1H359.8V205.7H547
					 M554,198.7H352.8v115.1H554V198.7L554,198.7z"/>
			</g>
		</g>
	</g>
</g>
</svg>
