<?xml version="1.0" encoding="utf-8"?>
<!-- Generator: Adobe Illustrator 25.4.1, SVG Export Plug-In . SVG Version: 6.00 Build 0)  -->
<svg version="1.1" id="Layer_1" xmlns="http://www.w3.org/2000/svg" xmlns:xlink="http://www.w3.org/1999/xlink" x="0px" y="0px"
	 viewBox="0 0 3848.6 346.6" style="enable-background:new 0 0 3848.6 346.6;" xml:space="preserve">
<style type="text/css">
	.st0{fill:#FFFFFF;}
	.st1{fill:#7B9A99;}
	.st2{fill:url(#SVGID_1_);}
	.st3{clip-path:url(#SVGID_00000028288482684237756800000008370514999039219638_);}
	.st4{fill:#606161;}
	.st5{clip-path:url(#SVGID_00000174588003920899220090000001192426931942565504_);}
	.st6{clip-path:url(#SVGID_00000119831699515725371970000004713104233429114007_);}
	.st7{fill:url(#SVGID_00000094620531870008246500000011243919629636342456_);}
	.st8{fill:url(#SVGID_00000173132948484727935010000007196777018485477790_);}
	.st9{fill:url(#SVGID_00000090995190877152071440000015613632612145373604_);}
	.st10{fill:url(#SVGID_00000072995443157527753140000001474890003896854664_);}
	.st11{fill:#F58746;}
	.st12{fill:url(#SVGID_00000132062717243276417920000007591034423905124254_);}
	.st13{fill:url(#SVGID_00000050657321991058954820000014750702402349773189_);}
	.st14{fill:url(#SVGID_00000086666233584726283500000004544329395030439316_);}
	.st15{fill:url(#SVGID_00000124845518140884921780000016297716304598552963_);}
	.st16{fill:url(#SVGID_00000166654803746034826590000012134174335056659840_);}
	.st17{fill:url(#SVGID_00000061469525364547299230000009700547929772619451_);}
	.st18{fill:url(#SVGID_00000174578719165149440990000011419345465238307201_);}
	.st19{fill:url(#SVGID_00000154397583801482969150000015386159619640639140_);}
	.st20{fill:url(#SVGID_00000081636921121878616100000001641409529797065148_);}
	.st21{fill:url(#SVGID_00000031166180184679747080000014189866381734345658_);}
	.st22{fill:url(#SVGID_00000015327800004180547700000001273060504926313887_);}
	.st23{fill:url(#SVGID_00000116928874024054021980000013785242914376522162_);}
	.st24{opacity:0.25;fill:url(#SVGID_00000010990161288629234080000012990415354321015980_);}
	.st25{fill:url(#SVGID_00000126284283812876181190000006036663009032913558_);}
	.st26{fill:url(#SVGID_00000088831790968023154280000014723163065247033002_);}
	.st27{fill:url(#SVGID_00000072959856358760309260000004557852601613491894_);}
	.st28{fill:url(#SVGID_00000178180886071618138810000011354423547860627869_);}
	.st29{fill:url(#SVGID_00000108308343538639931740000000437436166929717660_);}
	.st30{fill:url(#SVGID_00000086684783230994152760000004865979387566963129_);}
	.st31{fill:url(#SVGID_00000098185304952317565830000011418981521265955775_);}
	.st32{fill:url(#SVGID_00000125573621375773947700000012975103204890188174_);}
	.st33{fill:url(#SVGID_00000076577621707425337790000017969648195056549275_);}
	.st34{fill:url(#SVGID_00000126290940828310320260000014922360066294964655_);}
	.st35{fill:url(#SVGID_00000174603552393623882910000002647218112151268747_);}
	.st36{fill:url(#SVGID_00000076605610466910977820000010697869701334152343_);}
	.st37{fill:url(#SVGID_00000083791984298032684870000008474330226968551045_);}
	.st38{fill:url(#SVGID_00000102520788493108864950000009647980533409445793_);}
	.st39{fill:url(#SVGID_00000159445108335336651460000003903428469622049700_);}
	.st40{opacity:0.25;fill:url(#SVGID_00000151534550007569150760000007029595549470897037_);}
	.st41{fill:url(#SVGID_00000028297083660485303680000003148380001331059858_);}
	.st42{fill:url(#SVGID_00000162351059391273929960000013623631633518904464_);}
	.st43{fill:url(#SVGID_00000155834857910792245550000011987678531136792756_);}
	.st44{fill:url(#SVGID_00000004505974765757134030000005323268049939753900_);}
	.st45{fill:url(#SVGID_00000069356614785566814430000003706140090096064439_);}
	.st46{fill:url(#SVGID_00000162347204059644846970000004259234142982141626_);}
	.st47{fill:url(#SVGID_00000084490685657540815320000000320570778929836677_);}
	.st48{fill:url(#SVGID_00000174575022698877208690000002067567801151345283_);}
	.st49{clip-path:url(#SVGID_00000023283146420765122600000013332902323473977731_);}
	.st50{clip-path:url(#SVGID_00000118383395848305135690000005037871609338085538_);}
	.st51{clip-path:url(#SVGID_00000003787334756068663670000017877805933394628253_);}
	.st52{fill:url(#SVGID_00000152231977363135487170000014934000754536405166_);}
	.st53{fill:url(#SVGID_00000001634869275927477660000003392720745225837992_);}
	.st54{fill:url(#SVGID_00000010292935501213964950000006995826592046633345_);}
	.st55{fill:url(#SVGID_00000139980365403883304530000008189476949323528885_);}
	.st56{fill:url(#SVGID_00000134953625766089686250000001013827250118388655_);}
	.st57{fill:url(#SVGID_00000014627941621413209630000010710204401281019564_);}
	.st58{fill:url(#SVGID_00000080183196218216958510000002066980386448669593_);}
	.st59{clip-path:url(#SVGID_00000140706273993567864650000001258310229739376050_);}
	.st60{clip-path:url(#SVGID_00000178178426851303855980000008134726198340426936_);}
	.st61{clip-path:url(#SVGID_00000114034896019428810820000004566951741144944554_);}
	.st62{fill:url(#SVGID_00000152245870873799413870000012147718538791465358_);}
	.st63{clip-path:url(#SVGID_00000028296431249480955210000006181689230923822001_);}
	.st64{clip-path:url(#SVGID_00000069397573783172116990000008249397390585298048_);}
	.st65{clip-path:url(#SVGID_00000029756539920433361370000004894508151291323825_);}
	.st66{fill:url(#SVGID_00000161628801661118053190000018078656192357508241_);}
	.st67{fill:url(#SVGID_00000129909806953057580690000001696650307172187813_);}
	.st68{fill:url(#SVGID_00000044885894440505607560000016184417301649501116_);}
	.st69{fill:url(#SVGID_00000081613674003366904020000000613918277237053602_);}
	.st70{fill:url(#SVGID_00000052082147913570992790000012820719312043443900_);}
	.st71{fill:url(#SVGID_00000155842605964524878940000016056858323339907731_);}
	.st72{fill:url(#SVGID_00000028293899476338996780000003214486747021996679_);}
	.st73{fill:url(#SVGID_00000139983499512182533410000012495531462344336055_);}
	.st74{fill:url(#SVGID_00000173151716517029976740000004310343028090258600_);}
	.st75{fill:url(#SVGID_00000062913771585386024830000016203952579249948576_);}
	.st76{fill:url(#SVGID_00000023995921531948035270000012550944912299978163_);}
	.st77{fill:url(#SVGID_00000075153717314429414720000013277585451394361530_);}
	.st78{opacity:0.25;fill:url(#SVGID_00000045608894407847609100000011202954314208688515_);}
	.st79{fill:url(#SVGID_00000109028915664201154930000003420659965529292474_);}
	.st80{fill:url(#SVGID_00000152983709970939924730000010805021473321166722_);}
	.st81{fill:url(#SVGID_00000045594533432966411220000011360869755592184733_);}
	.st82{fill:url(#SVGID_00000123436488136832123540000008323999065785818018_);}
	.st83{fill:url(#SVGID_00000174588147523298232610000002077083750040412594_);}
	.st84{fill:url(#SVGID_00000047779356905947321250000010091820107839371691_);}
	.st85{fill:url(#SVGID_00000094583449894503260850000015255421131126129825_);}
	.st86{fill:url(#SVGID_00000078018651487490743990000006937804443016734351_);}
	.st87{fill:url(#SVGID_00000067195900869916673710000018330857060539203979_);}
	.st88{fill:url(#SVGID_00000097475865930152808000000008825619080025785486_);}
	.st89{fill:url(#SVGID_00000172436786464615744960000013219883508388643712_);}
	.st90{fill:url(#SVGID_00000142893888830870486510000009213269557475802527_);}
	.st91{fill:url(#SVGID_00000114763243212756176480000017773492238004600743_);}
	.st92{fill:url(#SVGID_00000075870019193009754590000011976434404968874169_);}
	.st93{fill:url(#SVGID_00000163782704920837295600000008971544383326119082_);}
	.st94{opacity:0.25;fill:url(#SVGID_00000085957167688287556830000017050762647653251003_);}
	.st95{fill:url(#SVGID_00000150817959978469415990000007688860656059303609_);}
	.st96{fill:url(#SVGID_00000078754707526679568920000005414862453784707984_);}
	.st97{fill:url(#SVGID_00000004526420621273818110000010116544013531395508_);}
	.st98{fill:url(#SVGID_00000150063112317497199700000001593691113280526744_);}
	.st99{fill:url(#SVGID_00000078725793602610522470000006266430754648643512_);}
	.st100{fill:url(#SVGID_00000075846966615873153600000015246604929920904104_);}
	.st101{fill:url(#SVGID_00000158026159320189848100000004780918821472448902_);}
	.st102{fill:url(#SVGID_00000180360232534560112310000012547797166062061202_);}
	.st103{fill:url(#SVGID_00000075842834822156580610000001955684169330243517_);}
	.st104{fill:url(#SVGID_00000146477955927231564620000005862341296669741203_);}
	.st105{fill:url(#SVGID_00000024703424299355066060000015688564377299396779_);}
	.st106{fill:url(#SVGID_00000180333052115676506360000004155561924228987531_);}
	.st107{fill:url(#SVGID_00000096019158441392247840000001505365520892078740_);}
	.st108{fill:url(#SVGID_00000103955650986686180310000014674875777246260143_);}
	.st109{fill:url(#SVGID_00000183226406172630222970000003394936463427774880_);}
	.st110{fill:url(#SVGID_00000099624275377318554070000006076514603633732525_);}
	.st111{fill:url(#SVGID_00000030462304012792272130000001341925423670540679_);}
	.st112{opacity:0.25;fill:url(#SVGID_00000053538917720779751040000004894469222028890773_);}
	.st113{fill:url(#SVGID_00000081635313822682667700000000644019769155335590_);}
	.st114{fill:url(#SVGID_00000001661344127410987610000005009238363794167170_);}
	.st115{fill:url(#SVGID_00000100349896953446089760000016221918186895824555_);}
	.st116{fill:url(#SVGID_00000006675185063897060090000005098455246160817548_);}
	.st117{fill:url(#SVGID_00000003797433155883843000000018002648518862112171_);}
	.st118{fill:url(#SVGID_00000171718428593043456380000013692882243864196263_);}
	.st119{fill:url(#SVGID_00000068676995187646277930000009052791042741730474_);}
	.st120{fill:url(#SVGID_00000084521595919297745480000012070845511670228136_);}
	.st121{fill:url(#SVGID_00000181776853068588845410000014241309834181828529_);}
	.st122{fill:url(#SVGID_00000023258028422336623020000006100145574915816836_);}
	.st123{fill:url(#SVGID_00000024709899965826076330000012168981022405153965_);}
	.st124{fill:url(#SVGID_00000116940623630087468020000005415928423052928944_);}
	.st125{fill:url(#SVGID_00000145026289642608475800000008916452142130000024_);}
	.st126{fill:url(#SVGID_00000098192644625869794750000013249087100231661458_);}
	.st127{fill:url(#SVGID_00000000923349721811373780000001785623866290961065_);}
	.st128{opacity:0.25;fill:url(#SVGID_00000147205096961133267380000001541358284886964906_);}
	.st129{fill:url(#SVGID_00000178895308181619353190000015311147399048093118_);}
	.st130{fill:url(#SVGID_00000142158200769704614310000000233351243782459053_);}
	.st131{fill:url(#SVGID_00000005264304383386889230000009556911776281732541_);}
	.st132{fill:url(#SVGID_00000042721764920858241010000009070624808979317181_);}
	.st133{fill:url(#SVGID_00000061458468521131248380000003460276481873986965_);}
	.st134{fill:url(#SVGID_00000042702476011831968370000015641974861569289626_);}
	.st135{fill:url(#SVGID_00000167375527060094777830000017118770873472301485_);}
	.st136{fill:url(#SVGID_00000124149835289822915430000005611833113558605733_);}
	.st137{fill:url(#SVGID_00000164511132856740337640000000123007124342769295_);}
</style>
<g>
	<g>
		<g>
			<g>
				<g>
					<g>
						<g>
							<linearGradient id="SVGID_1_" gradientUnits="userSpaceOnUse" x1="35.0895" y1="293.0935" x2="346.9563" y2="-18.7733">
								<stop  offset="0" style="stop-color:#F2703E"/>
								<stop  offset="1" style="stop-color:#F89D48"/>
							</linearGradient>
							<path class="st2" d="M328.1,0H0v44.2l266.9,93.9H419V90.9C419,40.7,378.3,0,328.1,0z M254.7,146l-114.9-40.4v165l-51.2,18.3
								v57.7h203.1v-97h-37V146z M266.9,237.4H419v-87.1H266.9V237.4z"/>
						</g>
					</g>
					<g>
						
							<linearGradient id="SVGID_00000144319956369870459810000003072003086395494591_" gradientUnits="userSpaceOnUse" x1="3.351961e-05" y1="69.033" x2="418.9987" y2="69.033">
							<stop  offset="0" style="stop-color:#F6944A;stop-opacity:0"/>
							<stop  offset="1" style="stop-color:#FBC090"/>
						</linearGradient>
						<path style="fill:url(#SVGID_00000144319956369870459810000003072003086395494591_);" d="M328.1,7.1
							c46.2,0,83.9,37.6,83.9,83.9V131H268.1L7.1,39.2V7.1H328.1 M328.1,0H0v44.2l266.9,93.9H419V90.9C419,40.7,378.3,0,328.1,0
							L328.1,0z"/>
						<g>
							
								<linearGradient id="SVGID_00000168085723569446924460000000536401362611346098_" gradientUnits="userSpaceOnUse" x1="91.894" y1="349.8976" x2="275.2411" y2="166.5505">
								<stop  offset="0" style="stop-color:#F6944A;stop-opacity:0"/>
								<stop  offset="1" style="stop-color:#FBC090"/>
							</linearGradient>
							<path style="fill:url(#SVGID_00000168085723569446924460000000536401362611346098_);" d="M146.8,115.5L247.6,151v98.6v7.1
								h7.1h30v82.9h-189v-45.6l46.5-16.7l4.7-1.7v-5V115.5 M139.7,105.6v165l-51.1,18.3v57.7h203.1v-97h-37V146L139.7,105.6
								L139.7,105.6z"/>
						</g>
						<g>
							
								<linearGradient id="SVGID_00000111892284487141769130000001003440799356663730_" gradientUnits="userSpaceOnUse" x1="283.1389" y1="253.6232" x2="402.7423" y2="134.0197">
								<stop  offset="0" style="stop-color:#F6944A;stop-opacity:0"/>
								<stop  offset="1" style="stop-color:#FBC090"/>
							</linearGradient>
							<path style="fill:url(#SVGID_00000111892284487141769130000001003440799356663730_);" d="M411.9,157.3v72.9H274v-72.9H411.9
								 M419,150.3H266.9v87.1H419V150.3L419,150.3z"/>
						</g>
					</g>
				</g>
				
					<linearGradient id="SVGID_00000128478323765040415100000012922084785875134865_" gradientUnits="userSpaceOnUse" x1="266.8825" y1="134.5299" x2="418.9987" y2="134.5299">
					<stop  offset="0" style="stop-color:#E65726"/>
					<stop  offset="1" style="stop-color:#F26F48"/>
				</linearGradient>
				<polygon style="fill:url(#SVGID_00000128478323765040415100000012922084785875134865_);" points="419,138.1 411.9,131 
					268.1,131 266.9,138.1 				"/>
				
					<linearGradient id="SVGID_00000002372197926378093170000006125569031593955515_" gradientUnits="userSpaceOnUse" x1="304.9115" y1="275.3959" x2="380.9698" y2="199.3377">
					<stop  offset="0" style="stop-color:#E65726"/>
					<stop  offset="1" style="stop-color:#F26F48"/>
				</linearGradient>
				<polygon style="fill:url(#SVGID_00000002372197926378093170000006125569031593955515_);" points="274,230.3 266.9,237.4 
					419,237.4 411.9,230.3 				"/>
				
					<linearGradient id="SVGID_00000057130011828335238420000001479374928208530058_" gradientUnits="userSpaceOnUse" x1="139.3642" y1="397.3681" x2="240.9293" y2="295.8029">
					<stop  offset="0" style="stop-color:#E65726"/>
					<stop  offset="1" style="stop-color:#F27247"/>
				</linearGradient>
				<polygon style="fill:url(#SVGID_00000057130011828335238420000001479374928208530058_);" points="88.6,346.6 95.7,339.5 
					284.6,339.5 291.7,346.6 				"/>
				
					<linearGradient id="SVGID_00000181074690639181623090000001999257948456697222_" gradientUnits="userSpaceOnUse" x1="74.1665" y1="332.1705" x2="104.0439" y2="302.2931">
					<stop  offset="0" style="stop-color:#E65726"/>
					<stop  offset="1" style="stop-color:#F26F48"/>
				</linearGradient>
				<polygon style="fill:url(#SVGID_00000181074690639181623090000001999257948456697222_);" points="88.6,288.9 95.7,293.9 
					95.7,339.5 88.6,346.6 				"/>
				
					<linearGradient id="SVGID_00000127733758916413954820000009323616728040280988_" gradientUnits="userSpaceOnUse" x1="99.7993" y1="300.1425" x2="135.586" y2="264.3557">
					<stop  offset="0" style="stop-color:#F2703E"/>
					<stop  offset="1" style="stop-color:#F89D48"/>
				</linearGradient>
				<polyline style="opacity:0.25;fill:url(#SVGID_00000127733758916413954820000009323616728040280988_);" points="139.7,270.6 
					146.8,275.6 95.7,293.9 88.6,288.9 				"/>
				
					<linearGradient id="SVGID_00000145016236957476121110000002393845140476639633_" gradientUnits="userSpaceOnUse" x1="101.4838" y1="232.3477" x2="184.0044" y2="149.8271">
					<stop  offset="0" style="stop-color:#E65726"/>
					<stop  offset="1" style="stop-color:#F26F48"/>
				</linearGradient>
				<polygon style="fill:url(#SVGID_00000145016236957476121110000002393845140476639633_);" points="139.7,105.6 139.7,270.6 
					146.8,275.6 146.8,115.5 				"/>
				
					<linearGradient id="SVGID_00000140714924981437445940000014787804536066594181_" gradientUnits="userSpaceOnUse" x1="90.1889" y1="134.382" x2="180.8335" y2="43.7374">
					<stop  offset="0" style="stop-color:#E65726"/>
					<stop  offset="1" style="stop-color:#F27247"/>
				</linearGradient>
				<polygon style="fill:url(#SVGID_00000140714924981437445940000014787804536066594181_);" points="7.1,39.2 0,44.2 266.9,138.1 
					268.1,131 				"/>
				
					<linearGradient id="SVGID_00000027567512500935377210000010151534149071108225_" gradientUnits="userSpaceOnUse" x1="245.1098" y1="215.5942" x2="288.6552" y2="172.0488">
					<stop  offset="0" style="stop-color:#E65726"/>
					<stop  offset="1" style="stop-color:#F26F48"/>
				</linearGradient>
				<polygon style="fill:url(#SVGID_00000027567512500935377210000010151534149071108225_);" points="266.9,150.3 266.9,237.4 
					274,230.3 274,157.3 				"/>
				
					<linearGradient id="SVGID_00000134960822755414731890000014594203577763999396_" gradientUnits="userSpaceOnUse" x1="-10.5325" y1="33.6606" x2="11.5641" y2="11.564">
					<stop  offset="0" style="stop-color:#E65726"/>
					<stop  offset="1" style="stop-color:#F27247"/>
				</linearGradient>
				<polygon style="fill:url(#SVGID_00000134960822755414731890000014594203577763999396_);" points="0,0 0,44.2 7.1,39.2 7.1,7.1 
									"/>
				
					<linearGradient id="SVGID_00000011031601537626751060000008832891086899924385_" gradientUnits="userSpaceOnUse" x1="247.6004" y1="253.113" x2="291.7118" y2="253.113">
					<stop  offset="0" style="stop-color:#FBC090;stop-opacity:0.5"/>
					<stop  offset="1" style="stop-color:#FBC090"/>
				</linearGradient>
				<polygon style="fill:url(#SVGID_00000011031601537626751060000008832891086899924385_);" points="254.7,249.6 247.6,256.6 
					284.6,256.6 291.7,249.6 				"/>
				
					<linearGradient id="SVGID_00000021839562647523266290000008348719580267994770_" gradientUnits="userSpaceOnUse" x1="304.9115" y1="188.3055" x2="380.9698" y2="112.2472">
					<stop  offset="0" style="stop-color:#FBC090;stop-opacity:0"/>
					<stop  offset="1" style="stop-color:#FBC090"/>
				</linearGradient>
				<polygon style="fill:url(#SVGID_00000021839562647523266290000008348719580267994770_);" points="411.9,157.3 419,150.3 
					266.9,150.3 274,157.3 				"/>
				
					<linearGradient id="SVGID_00000057109765039735589110000012071047686788500147_" gradientUnits="userSpaceOnUse" x1="177.1175" y1="145.8525" x2="215.8302" y2="107.1398">
					<stop  offset="0" style="stop-color:#F2703E;stop-opacity:0.5"/>
					<stop  offset="1" style="stop-color:#F89D48;stop-opacity:0.2"/>
				</linearGradient>
				<polygon style="fill:url(#SVGID_00000057109765039735589110000012071047686788500147_);" points="247.6,151 254.7,146 
					139.7,105.6 146.8,115.5 				"/>
			</g>
		</g>
		<g>
			<g>
				
					<linearGradient id="SVGID_00000168810605911854396090000017559906192201543830_" gradientUnits="userSpaceOnUse" x1="2171.9048" y1="346.5856" x2="2171.9048" y2="0">
					<stop  offset="0" style="stop-color:#F2703E"/>
					<stop  offset="1" style="stop-color:#F89D48"/>
				</linearGradient>
				<path style="fill:url(#SVGID_00000168810605911854396090000017559906192201543830_);" d="M3834.6,270.2L3733.8,33.4
					c-8.6-20.2-28.5-33.4-50.5-33.4H559.9c-30.4,0-55.1,24.7-55.1,55.1v236.3c0,30.4,24.7,55.1,55.1,55.1l3224.2,0
					c18.4,0,35.6-9.2,45.8-24.6S3841.8,287.2,3834.6,270.2z"/>
				
					<linearGradient id="SVGID_00000005977612211736679220000016233553569496650164_" gradientUnits="userSpaceOnUse" x1="2171.9048" y1="346.5854" x2="2171.9048" y2="-1.923537e-05">
					<stop  offset="0" style="stop-color:#F6944A;stop-opacity:0"/>
					<stop  offset="1" style="stop-color:#FBC090"/>
				</linearGradient>
				<path style="fill:url(#SVGID_00000005977612211736679220000016233553569496650164_);" d="M3683.3,19.1
					c14.4,0,27.3,8.5,32.9,21.7L3817,277.7c4.7,11.1,3.6,23.7-3.1,33.7c-6.6,10-17.8,16-29.8,16H559.9c-19.9,0-36-16.2-36-36V55.1
					c0-19.9,16.2-36,36-36H3683.3 M3683.3,0H559.9c-30.4,0-55.1,24.7-55.1,55.1v236.3c0,30.4,24.7,55.1,55.1,55.1h3224.2
					c18.4,0,35.6-9.2,45.8-24.6s11.9-34.8,4.7-51.7L3733.8,33.4C3725.2,13.1,3705.3,0,3683.3,0L3683.3,0z"/>
			</g>
			<g>
				<path d="M3635.4,53.4h47.9l101.3,238h-54.4l-21.6-53h-99.9l-21.6,53h-53L3635.4,53.4z M3690.1,192.5l-31.4-76.6l-31.4,76.6
					H3690.1z"/>
			</g>
			<path d="M559.9,55.1h179.9v47.3h-128v50.3h112.8V200H611.9v91.5h-52V55.1z"/>
			<path d="M766.9,55.1h52v236.3h-52V55.1z"/>
			<path d="M861.1,55.1h47.9l110.7,145.5V55.1h51.3v236.3h-44.2L912.4,141.2v150.2h-51.3V55.1z"/>
			<path d="M1192,53.4h47.9l101.3,238h-54.4l-21.6-53h-99.9l-21.6,53h-53L1192,53.4z M1246.7,192.5l-31.4-76.6l-31.4,76.6H1246.7z"
				/>
			<path d="M1360.8,55.1h52v189.1h117.8v47.3h-169.8V55.1z"/>
			<path d="M1637.3,55.1H1747c27,0,48.3,7.4,61.8,20.9c10.8,10.8,16.2,24,16.2,40.2v0.7c0,26.7-14.2,41.5-31.1,51
				c27.3,10.5,44.2,26.3,44.2,58.1v0.7c0,43.2-35.1,64.8-88.5,64.8h-112.4V55.1z M1735.9,150.7c23,0,37.5-7.4,37.5-25V125
				c0-15.5-12.2-24.3-34.1-24.3H1688v50H1735.9z M1749.7,245.9c23,0,36.8-8.1,36.8-25.7v-0.7c0-15.9-11.8-25.7-38.5-25.7H1688v52
				H1749.7z"/>
			<path d="M1860.5,190.2v-135h52v133.7c0,38.5,19.2,58.4,51,58.4c31.7,0,51-19.2,51-56.7V55.1h52v133.4
				c0,71.6-40.2,106.7-103.6,106.7C1899.3,295.2,1860.5,259.7,1860.5,190.2z"/>
			<path d="M2102.6,55.1h108c30,0,53.3,8.4,68.9,24c13.2,13.2,20.3,31.7,20.3,54v0.7c0,38.1-20.6,62.1-50.6,73.3l57.7,84.4h-60.8
				l-50.6-75.6h-40.8v75.6h-52V55.1z M2207.2,169.9c25.3,0,39.8-13.5,39.8-33.4v-0.7c0-22.3-15.5-33.8-40.8-33.8h-51.7v67.9H2207.2z
				"/>
			<path d="M2329.8,55.1h47.9l110.7,145.5V55.1h51.3v236.3h-44.2l-114.4-150.2v150.2h-51.3V55.1z"/>
			<path d="M2745.1,53.4h47.9l101.3,238h-54.4l-21.6-53h-99.9l-21.6,53h-53L2745.1,53.4z M2799.8,192.5l-31.4-76.6l-31.4,76.6
				H2799.8z"/>
			<path d="M2913.9,55.1h52v189.1h117.8v47.3h-169.8V55.1z"/>
			<path d="M3106,55.1h96.6c56.4,0,90.5,33.4,90.5,81.7v0.7c0,54.7-42.5,83.1-95.5,83.1H3158v70.9h-52V55.1z M3199.2,174.3
				c26,0,41.2-15.5,41.2-35.8v-0.7c0-23.3-16.2-35.8-42.2-35.8H3158v72.2H3199.2z"/>
			<path d="M3314.7,55.1h52v93.5h95.9V55.1h52v236.3h-52v-94.9h-95.9v94.9h-52V55.1z"/>
		</g>
	</g>
</g>
</svg>
