<?xml version="1.0" encoding="utf-8"?>
<!-- Generator: Adobe Illustrator 25.0.0, SVG Export Plug-In . SVG Version: 6.00 Build 0)  -->
<svg version="1.1" id="Layer_1" xmlns="http://www.w3.org/2000/svg" xmlns:xlink="http://www.w3.org/1999/xlink" x="0px" y="0px"
	 viewBox="0 0 3839 803.1" style="enable-background:new 0 0 3839 803.1;" xml:space="preserve">
<style type="text/css">
	.st0{fill:#FFFFFF;}
</style>
<g>
	<g>
		<path class="st0" d="M3351.1,73.4l-51.7,90.6l33-90.6h-392.2c-75.8,0-145.4,38.4-186.8,99.3c0-20.1-6-40.1-17.8-57
			c-18.5-26.5-48.9-42.2-81.2-42.2h-744.1c-44.1,0-85.2,19.3-113.6,51c-1.7-3-3.4-5.9-5.4-8.7c-18.5-26.5-48.9-42.2-81.2-42.2
			h-559.2l-112.6,80.4l-49.9-80.4H591.2l-42.6,117.1h-36.7l42.6-117.1H305.3L39.8,803.1h213.9l14.9-40.8
			c19.2,25,49.3,40.8,83.1,40.8h75.8c37.3,0,71.4-20.1,90-51.4c1.3,2.1,2.4,4.2,3.8,6.3c19.8,28.2,52.2,45.1,86.7,45.1h270.5
			l19.4-53.3c1.6,2.8,3.2,5.6,5,8.2c19.8,28.3,52.2,45.1,86.7,45.1h195.7c53.9,0,103.5-26.9,133.6-69.8c3.1,8.6,7.3,17,12.7,24.7
			c19.8,28.2,52.2,45.1,86.7,45.1H1614c49.6,0,95.6-22.8,126-59.9c2.5,5.1,5.2,10.1,8.5,14.8c19.8,28.2,52.2,45.1,86.7,45.1h270.5
			l19.4-53.3c1.6,2.8,3.2,5.6,5,8.2c19.8,28.3,52.2,45.1,86.7,45.1h195.7c68.3,0,129.9-43.1,153.2-107.3l10.3-28.3
			c0.3,27.3,8.7,54.3,24.8,77.3c25.6,36.5,67.5,58.3,112.1,58.3h195.8c94.5,0,179.8-59.7,212.1-148.5l25.6-70.2
			c20.4,22.4,49.1,35.4,80.4,35.4l164.4,0l-66.3,183.4h248.5L3839,73.4L3351.1,73.4z M797.6,190.8l73.5,118.4l-37.1,102H717.4
			L797.6,190.8z M1082.9,411.7l29.8-81.9l146-104.3l-67.6,185.7h-95.8C1091.2,411.1,1087,411.4,1082.9,411.7z M1524,411.1
			c-34.8,0-67.8,11.3-94.9,30.8l24.5-67.2h187.3c24.6,0,48.1-6.4,68.9-17.7c0.9,19,6.4,37.7,16.5,54.2H1524z M3171.7,387.6
			c-2.9-5.7-6.1-11.2-9.8-16.5c-18.5-26.4-45.4-45.1-75.9-53.5h125.7L3171.7,387.6z"/>
		<g>
			<polygon class="st0" points="878.4,420.4 1031.9,420.4 1075.2,301.3 1331.4,118.3 1165.3,118.3 1025.4,218.3 963.4,118.3 
				805.5,118.3 920.8,304 			"/>
			<polygon class="st0" points="422.9,303.3 555.3,303.3 512.7,420.4 666.1,420.4 776.1,118.3 622.6,118.3 580,235.4 447.6,235.4 
				490.2,118.3 336.7,118.3 226.8,420.4 380.2,420.4 			"/>
			<path class="st0" d="M1389.1,420.4l33-90.7h218.8c41.7,0,79-26.1,93.3-65.3l26.7-73.5c12.8-35.3-13.3-72.6-50.8-72.6h-364.5
				l-109.9,302.1H1389.1z M1474.4,186.2h95.1c19.3,0,32.8,19.2,26.2,37.4v0c-8.4,23-30.3,38.3-54.8,38.3h-94.1L1474.4,186.2z"/>
			<path class="st0" d="M2585.2,329.7c41.7,0,79-26.1,93.3-65.3l26.7-73.5c12.8-35.3-13.3-72.6-50.8-72.6h-364.5l-109.9,302.1h153.4
				l33-90.7h41.2l65.4,90.7h153.4l-65.4-90.7H2585.2z M2391.1,261.9l27.6-75.7h95.1c19.3,0,32.8,19.2,26.2,37.4v0
				c-8.4,23-30.3,38.3-54.8,38.3H2391.1z"/>
			<path class="st0" d="M1823.1,420.4h289.6l24.7-67.8h-234.2l17.9-49.3h234.2l24.7-67.8h-234.2l17.9-49.3H2198l24.7-67.8h-312.4
				c-45.2,0-85.5,28.2-100.9,70.7l-50.7,139.2C1742.3,373,1775.5,420.4,1823.1,420.4z"/>
			<path class="st0" d="M722.4,530h207.7l26.9-73.9H713.8c-49.6,0-94,31-111,77.7l-51.9,142.7c-14.4,39.7,14.9,81.6,57.2,81.6h239
				l26.9-73.9H666.2l14.6-40.2h207.7l26.9-73.9H707.7L722.4,530z"/>
			<path class="st0" d="M1291.1,456.1h-195.7c-49.6,0-94,31-111,77.7l-51.9,142.7c-14.4,39.7,14.9,81.6,57.2,81.6h195.7
				c49.6,0,94-31,111-77.7l51.9-142.7C1362.7,498.1,1333.3,456.1,1291.1,456.1z M1176.8,684.3h-129L1104,530h129L1176.8,684.3z"/>
			<path class="st0" d="M1949.5,530h207.7l26.9-73.9h-243.2c-49.6,0-94,31-111,77.7L1778,676.5c-14.4,39.7,14.9,81.6,57.2,81.6h239
				l26.9-73.9h-207.7l14.6-40.2h207.7l26.9-73.9h-207.7L1949.5,530z"/>
			<path class="st0" d="M2518.3,456.1h-195.7c-49.6,0-94,31-111,77.7l-51.9,142.7c-14.4,39.7,14.9,81.6,57.2,81.6h195.7
				c49.6,0,94-31,111-77.7l51.9-142.7C2589.9,498.1,2560.5,456.1,2518.3,456.1z M2404,684.3h-129l56.1-154.3h129L2404,684.3z"/>
			<path class="st0" d="M1605.4,684.3h-129l56.1-154.3h247.1l26.9-73.9H1524c-49.6,0-94,31-111,77.7l-51.9,142.7
				c-14.4,39.7,14.9,81.6,57.2,81.6H1614c49.6,0,94-31,111-77.7l27.9-76.6h-118.2L1605.4,684.3z"/>
			<path class="st0" d="M461.1,456.1l-64.3,176.8l-12-122.8c-3-30.6-28.7-54-59.5-54h-69.4c-25.1,0-47.6,15.7-56.2,39.3L104,758.2
				h118.2l59.3-163l10.7,109c3,30.6,28.7,54,59.5,54h75.8c25.1,0,47.6-15.7,56.2-39.3l95.6-262.7H461.1z"/>
			<path class="st0" d="M3049.5,357.8l-169,0.3l20.4-56c6.4-17.6,23.1-29.3,41.9-29.3l269.2,0l56.2-154.4h-328
				c-76.1,0-144.1,47.7-170,119.3l-143.7,397.3c-21.7,60,22.7,123.2,86.5,123.2h195.8c76,0,143.9-47.5,169.8-118.9l57.5-158.1
				C3158,421.1,3113.4,357.6,3049.5,357.8z M2938.1,603.9l-147.4,0.7l33.8-93l146.9,0L2938.1,603.9z"/>
			<path class="st0" d="M3620.4,118.3l-109.3,302.1l-129.4,0.6l171.9-302.7h-176.4l-206,360.8c-24.4,42.6,6.4,95.7,55.5,95.7
				l228.5,0l-66.3,183.4h153l232.9-639.8H3620.4z"/>
		</g>
	</g>
	<g>
		<polygon class="st0" points="3647,663.3 3680.2,663.3 3680.2,729.8 3686.6,729.8 3686.6,663.1 3713.3,663.1 3713.3,656.5 
			3647,656.5 		"/>
		<polygon class="st0" points="3760.5,719 3755.8,719 3728.2,656.5 3722.1,656.5 3722.1,729.8 3728.2,729.8 3728.2,670 
			3755.3,729.8 3761.1,729.8 3787.6,669 3787.6,729.8 3794.7,729.8 3794.7,656.5 3787.9,656.5 		"/>
	</g>
	<g>
		<path class="st0" d="M3311.3,0l-51.7,90.6l33-90.6h-392.2c-75.8,0-145.4,38.4-186.8,99.3c0-20.1-6-40.1-17.8-57
			C2677.2,15.8,2646.8,0,2614.5,0h-744.1c-44.1,0-85.2,19.3-113.6,51c-1.7-3-3.4-5.9-5.4-8.7C1732.9,15.8,1702.6,0,1670.3,0h-559.2
			L998.5,80.4L948.5,0H551.3l-42.6,117.1H472L514.6,0H265.4L0,729.8h213.9l14.9-40.8c19.2,25,49.3,40.8,83.1,40.8h75.8
			c37.3,0,71.4-20.1,90-51.4c1.3,2.1,2.4,4.2,3.8,6.3c19.8,28.2,52.2,45.1,86.7,45.1h270.5l19.4-53.3c1.6,2.8,3.2,5.6,5,8.2
			c19.8,28.3,52.2,45.1,86.7,45.1h195.7c53.9,0,103.5-26.9,133.6-69.8c3.1,8.6,7.3,17,12.7,24.7c19.8,28.2,52.2,45.1,86.7,45.1
			h195.7c49.6,0,95.6-22.8,126-59.9c2.5,5.1,5.2,10.1,8.5,14.8c19.8,28.2,52.2,45.1,86.7,45.1h270.5l19.4-53.3
			c1.6,2.8,3.2,5.6,5,8.2c19.8,28.3,52.2,45.1,86.7,45.1h195.7c68.3,0,129.9-43.1,153.2-107.3l10.3-28.3
			c0.3,27.3,8.7,54.3,24.8,77.3c25.6,36.5,67.5,58.3,112.1,58.3h195.8c94.5,0,179.8-59.7,212.1-148.5l25.6-70.2
			c20.4,22.4,49.1,35.4,80.4,35.4l164.4,0L3285,729.8h248.5L3799.2,0L3311.3,0z M757.7,117.4l73.5,118.4l-37.1,102H677.5
			L757.7,117.4z M1043.1,338.3l29.8-81.9l146-104.3l-67.6,185.7h-95.8C1051.4,337.8,1047.2,338,1043.1,338.3z M1484.2,337.8
			c-34.8,0-67.8,11.3-94.9,30.8l24.5-67.2h187.3c24.6,0,48.1-6.4,68.9-17.7c0.9,19,6.4,37.7,16.5,54.2H1484.2z M3131.9,314.3
			c-2.9-5.7-6.1-11.2-9.8-16.5c-18.5-26.4-45.4-45.1-75.9-53.5h125.7L3131.9,314.3z"/>
		<g>
			<g>
				<polygon points="831.8,351.8 875.7,231.2 757.1,40.2 926.2,40.2 987,138.1 1124,40.2 1306.5,40.2 1039.4,231 995.4,351.8 				
					"/>
				<path d="M1291.6,45l-256.2,183L992.1,347H838.6L881,230.7L765.7,45h157.9l62.1,99.9L1125.5,45H1291.6 M1321.4,35.4h-29.8h-166.1
					h-3.1l-2.5,1.8l-131.6,94l-56.7-91.3l-2.8-4.5h-5.3H765.7h-17.2l9.1,14.6l112.8,181.8l-40.8,112l-4.7,12.8h13.7h153.4h6.7
					l2.3-6.3l42.3-116.3l253.8-181.3L1321.4,35.4L1321.4,35.4z"/>
			</g>
			<g>
				<polygon points="466,351.8 508.7,234.7 386.4,234.7 343.8,351.8 180.1,351.8 293.6,40.2 457.2,40.2 414.6,157.3 536.8,157.3 
					579.5,40.2 743.1,40.2 629.7,351.8 				"/>
				<path d="M736.3,45L626.3,347H472.9l42.6-117.1H383L340.4,347H187L296.9,45h153.4l-42.6,117.1h132.4L582.8,45H736.3 M749.9,35.4
					h-13.7H582.8h-6.7l-2.3,6.3l-40.3,110.8H421.4l38-104.3l4.7-12.8h-13.7H296.9h-6.7l-2.3,6.3L178,343.7l-4.7,12.8H187h153.4h6.7
					l2.3-6.3l40.3-110.8h112.1l-38,104.3l-4.7,12.8h13.7h153.4h6.7l2.3-6.3L745.2,48.2L749.9,35.4L749.9,35.4z"/>
			</g>
			<g>
				<path d="M1189,351.8l113.4-311.6h367.9c19.5,0,37.1,9.2,48.2,25.1c11.2,16,13.8,35.6,7.1,53.9l-26.7,73.5
					c-14.9,40.9-54.2,68.5-97.8,68.5h-215.5l-33,90.7H1189z M1501.1,183.7c22.4,0,42.6-14.1,50.3-35.2c2.6-7.2,1.6-14.9-2.8-21.1
					c-4.4-6.3-11.3-9.8-18.9-9.8h-91.8l-24.1,66.2H1501.1z"/>
				<path d="M1670.3,45c37.6,0,63.7,37.3,50.8,72.6l-26.7,73.5c-14.3,39.2-51.5,65.3-93.3,65.3h-218.8l-33,90.7h-153.4L1305.8,45
					H1670.3 M1407,188.5h94.1c24.5,0,46.4-15.3,54.8-38.3v0c6.6-18.2-6.8-37.4-26.2-37.4h-95.1L1407,188.5 M1670.3,35.4h-364.5h-6.7
					l-2.3,6.3l-109.9,302.1l-4.7,12.8h13.7h153.4h6.7l2.3-6.3l30.7-84.4h212.1c22.4,0,44-6.8,62.4-19.7
					c18.4-12.9,32.2-30.8,39.8-51.9l26.7-73.5c3.7-10.1,4.7-20.4,3.2-30.9c-1.4-9.8-5.2-19.3-10.9-27.4c-5.7-8.2-13.3-14.9-22-19.6
					C1691.1,37.9,1681,35.4,1670.3,35.4L1670.3,35.4z M1441.2,122.4h88.4c6,0,11.5,2.8,15,7.8c3.5,5,4.3,11.1,2.2,16.7
					c-7,19.2-25.4,32-45.8,32h-80.4L1441.2,122.4L1441.2,122.4z"/>
			</g>
			<g>
				<path d="M2430.7,351.8l-65.4-90.7h-35.4l-33,90.7h-163.6l113.4-311.6h367.9c19.5,0,37.1,9.2,48.2,25.1
					c11.2,16,13.8,35.6,7.1,53.9l-26.7,73.5c-14.9,40.9-54.2,68.5-97.8,68.5h-14.8l65.4,90.7H2430.7z M2445.3,183.7
					c22.4,0,42.6-14.1,50.3-35.2c2.6-7.2,1.6-14.9-2.8-21.1c-4.4-6.3-11.3-9.8-18.9-9.8h-91.8l-24.1,66.2H2445.3z"/>
				<path d="M2614.5,45c37.6,0,63.7,37.3,50.8,72.6l-26.7,73.5c-14.3,39.2-51.5,65.3-93.3,65.3h-24.1l65.4,90.7h-153.4l-65.4-90.7
					h-41.2l-33,90.7h-153.4L2250,45H2614.5 M2351.2,188.5h94.1c24.5,0,46.4-15.3,54.8-38.3v0c6.6-18.2-6.8-37.4-26.2-37.4h-95.1
					L2351.2,188.5 M2614.5,35.4H2250h-6.7l-2.3,6.3l-109.9,302.1l-4.7,12.8h13.7h153.4h6.7l2.3-6.3l30.7-84.4h29.6l62.5,86.7l2.9,4
					h4.9h153.4h18.7l-10.9-15.2l-54.5-75.5h5.4c22.4,0,44-6.8,62.4-19.7c18.4-12.9,32.2-30.8,39.8-51.9l26.7-73.5
					c3.7-10.1,4.7-20.4,3.2-30.9c-1.4-9.8-5.2-19.3-10.9-27.4c-5.7-8.2-13.3-14.9-22-19.6C2635.4,37.9,2625.3,35.4,2614.5,35.4
					L2614.5,35.4z M2385.5,122.4h88.4c6,0,11.5,2.8,15,7.8s4.3,11.1,2.2,16.7c-7,19.2-25.4,32-45.8,32h-80.4L2385.5,122.4
					L2385.5,122.4z"/>
			</g>
			<g>
				<path d="M1783.3,351.8c-24.3,0-46.2-11.4-60.2-31.3c-13.9-19.9-17.2-44.4-8.9-67.2L1765,114c16.1-44.2,58.4-73.8,105.4-73.8
					h319.3l-28.2,77.4h-234.2l-14.5,39.7h234.2l-28.2,77.4h-234.2l-14.4,39.7h234.2l-28.2,77.4H1783.3z"/>
				<path d="M2182.9,45l-24.7,67.8H1924l-17.9,49.3h234.2l-24.7,67.8h-234.2l-17.9,49.3h234.2l-24.7,67.8h-289.6
					c-47.7,0-80.8-47.4-64.5-92.1l50.7-139.2c15.4-42.4,55.8-70.7,100.9-70.7H2182.9 M2196.5,35.4h-13.7h-312.4
					c-24.1,0-47.3,7.3-67.1,21.2c-19.8,13.8-34.6,33.1-42.8,55.8l-50.7,139.2c-4.5,12.4-5.8,25.1-4,37.9c1.7,12,6.4,23.7,13.4,33.7
					c7,10,16.4,18.4,27.1,24.1c11.4,6.1,23.9,9.2,37,9.2h289.6h6.7l2.3-6.3l24.7-67.8l4.7-12.8h-13.7h-220.6l11-30.1h227.5h6.7
					l2.3-6.3l24.7-67.8l4.7-12.8h-13.7h-220.6l11-30.1h227.5h6.7l2.3-6.3l24.7-67.8L2196.5,35.4L2196.5,35.4z"/>
			</g>
			<g>
				<path d="M568.2,689.6c-21.7,0-41.3-10.2-53.8-28c-12.5-17.8-15.3-39.7-7.9-60.1l51.9-142.7c17.6-48.4,64-80.8,115.4-80.8h250
					l-30.4,83.5H685.9l-11.1,30.6h207.7l-30.4,83.5H644.4l-11.1,30.6h207.7l-30.4,83.5H568.2z"/>
				<path d="M917.1,382.8l-26.9,73.9H682.5l-14.6,40.2h207.7l-26.9,73.9H641l-14.6,40.2h207.7l-26.9,73.9h-239
					c-42.2,0-71.6-42-57.2-81.6L563,460.4c17-46.6,61.3-77.7,111-77.7H917.1 M930.8,373.2h-13.7H673.9c-26.3,0-51.6,8-73.2,23.1
					c-21.6,15.1-37.7,36.2-46.7,60.9l-51.9,142.7c-4,11.1-5.3,22.6-3.6,34.1c1.6,10.8,5.7,21.3,12.1,30.3c6.3,9,14.7,16.5,24.4,21.7
					c10.3,5.5,21.5,8.3,33.3,8.3h239h6.7l2.3-6.3l26.9-73.9l4.7-12.8h-13.7H640l7.7-21.1h201h6.7l2.3-6.3l26.9-73.9l4.7-12.8h-13.7
					H681.6l7.7-21.1h201h6.7l2.3-6.3l26.9-73.9L930.8,373.2L930.8,373.2z"/>
			</g>
			<g>
				<path d="M949.8,689.6c-21.7,0-41.3-10.2-53.8-28c-12.5-17.8-15.3-39.7-7.9-60.1l51.9-142.7c17.6-48.4,64-80.8,115.4-80.8h195.7
					c21.7,0,41.3,10.2,53.8,28c12.5,17.8,15.3,39.7,7.9,60.1L1261,608.8c-17.6,48.4-64,80.8-115.4,80.8H949.8z M1133.6,606.1
					l52.7-144.7h-118.8l-52.7,144.7H1133.6z"/>
				<path d="M1251.3,382.8c42.2,0,71.6,42,57.2,81.6l-51.9,142.7c-17,46.6-61.3,77.7-111,77.7H949.8c-42.2,0-71.6-42-57.2-81.6
					l51.9-142.7c17-46.6,61.3-77.7,111-77.7H1251.3 M1008,610.9h129l56.1-154.3h-129L1008,610.9 M1251.3,373.2h-195.7
					c-26.3,0-51.6,8-73.2,23.1c-21.6,15.1-37.7,36.2-46.7,60.9l-51.9,142.7c-4,11.1-5.3,22.6-3.6,34.1c1.6,10.8,5.7,21.3,12.1,30.3
					c6.3,9,14.7,16.5,24.4,21.7c10.3,5.5,21.5,8.3,33.3,8.3h195.7c26.3,0,51.6-8,73.2-23.1c21.6-15.1,37.7-36.2,46.7-60.9
					l51.9-142.7c4-11.1,5.3-22.6,3.6-34.1c-1.6-10.8-5.7-21.3-12.1-30.3c-6.3-9-14.7-16.5-24.4-21.7
					C1274.3,376,1263.1,373.2,1251.3,373.2L1251.3,373.2z M1070.8,466.2h108.6l-49.2,135.1h-108.6L1070.8,466.2L1070.8,466.2z"/>
			</g>
			<g>
				<path d="M1795.4,689.6c-21.7,0-41.3-10.2-53.8-28c-12.5-17.8-15.3-39.7-7.9-60.1l51.9-142.7c17.6-48.4,64-80.8,115.4-80.8h250
					l-30.4,83.5h-207.7l-11.1,30.6h207.7l-30.4,83.5h-207.7l-11.1,30.6h207.7l-30.4,83.5H1795.4z"/>
				<path d="M2144.3,382.8l-26.9,73.9h-207.7l-14.6,40.2h207.7l-26.9,73.9h-207.7l-14.6,40.2h207.7l-26.9,73.9h-239
					c-42.2,0-71.6-42-57.2-81.6l51.9-142.7c17-46.6,61.3-77.7,111-77.7H2144.3 M2158,373.2h-13.7h-243.2c-26.3,0-51.6,8-73.2,23.1
					c-21.6,15.1-37.7,36.2-46.7,60.9l-51.9,142.7c-4,11.1-5.3,22.6-3.6,34.1c1.6,10.8,5.7,21.3,12.1,30.3c6.3,9,14.7,16.5,24.4,21.7
					c10.3,5.5,21.5,8.3,33.3,8.3h239h6.7l2.3-6.3l26.9-73.9l4.7-12.8h-13.7h-194.1l7.7-21.1h201h6.7l2.3-6.3l26.9-73.9l4.7-12.8
					h-13.7h-194.1l7.7-21.1h201h6.7l2.3-6.3l26.9-73.9L2158,373.2L2158,373.2z"/>
			</g>
			<g>
				<path d="M2177,689.6c-21.7,0-41.3-10.2-53.8-28c-12.5-17.8-15.3-39.7-7.9-60.1l51.9-142.7c17.6-48.4,64-80.8,115.4-80.8h195.7
					c21.7,0,41.3,10.2,53.8,28c12.5,17.8,15.3,39.7,7.9,60.1l-51.9,142.7c-17.6,48.4-64,80.8-115.4,80.8H2177z M2360.8,606.1
					l52.7-144.7h-118.8L2242,606.1H2360.8z"/>
				<path d="M2478.5,382.8c42.2,0,71.6,42,57.2,81.6l-51.9,142.7c-17,46.6-61.3,77.7-111,77.7H2177c-42.2,0-71.6-42-57.2-81.6
					l51.9-142.7c17-46.6,61.3-77.7,111-77.7H2478.5 M2235.2,610.9h129l56.1-154.3h-129L2235.2,610.9 M2478.5,373.2h-195.7
					c-26.3,0-51.6,8-73.2,23.1c-21.6,15.1-37.7,36.2-46.7,60.9l-51.9,142.7c-4,11.1-5.3,22.6-3.6,34.1c1.6,10.8,5.7,21.3,12.1,30.3
					c6.3,9,14.7,16.5,24.4,21.7c10.3,5.5,21.5,8.3,33.3,8.3h195.7c26.3,0,51.6-8,73.2-23.1c21.6-15.1,37.7-36.2,46.7-60.9
					l51.9-142.7c4-11.1,5.3-22.6,3.6-34.1c-1.6-10.8-5.7-21.3-12.1-30.3c-6.3-9-14.7-16.5-24.4-21.7
					C2501.5,376,2490.3,373.2,2478.5,373.2L2478.5,373.2z M2298,466.2h108.6l-49.2,135.1h-108.6L2298,466.2L2298,466.2z"/>
			</g>
			<g>
				<path d="M1378.5,689.6c-21.7,0-41.3-10.2-53.8-28c-12.5-17.8-15.3-39.7-7.9-60.1l51.9-142.7c17.6-48.4,64-80.8,115.4-80.8h289.5
					l-30.4,83.5h-247.1l-52.7,144.7h118.8l29.2-80.4h128.3l-30.2,83c-17.6,48.4-64,80.8-115.4,80.8H1378.5z"/>
				<path d="M1766.8,382.8l-26.9,73.9h-247.1l-56.1,154.3h129l29.2-80.4H1713l-27.9,76.6c-17,46.6-61.3,77.7-111,77.7h-195.7
					c-42.2,0-71.6-42-57.2-81.6l51.9-142.7c17-46.6,61.3-77.7,111-77.7H1766.8 M1780.5,373.2h-13.7h-282.6c-26.3,0-51.6,8-73.2,23.1
					c-21.6,15.1-37.7,36.2-46.7,60.9l-51.9,142.7c-4,11.1-5.3,22.6-3.6,34.1c1.6,10.8,5.7,21.3,12.1,30.3s14.7,16.5,24.4,21.7
					c10.3,5.5,21.5,8.3,33.3,8.3h195.7c26.3,0,51.6-8,73.2-23.1s37.7-36.2,46.7-60.9l27.9-76.6l4.7-12.8H1713h-118.2h-6.7l-2.3,6.3
					l-27,74.1h-108.6l49.2-135.1h240.4h6.7l2.3-6.3l26.9-73.9L1780.5,373.2L1780.5,373.2z"/>
			</g>
			<g>
				<path d="M311.9,689.6c-33.4,0-61-25.1-64.3-58.3l-8.6-88l-53.3,146.3H57.4l98-269.1C164.6,395,189,378,216,378h69.4
					c33.4,0,61,25.1,64.3,58.3l10,101.8L417.9,378h128.3l-98,269.1c-9.2,25.4-33.6,42.5-60.7,42.5H311.9z"/>
				<path d="M539.5,382.8l-95.6,262.7c-8.6,23.6-31,39.3-56.2,39.3h-75.8c-30.8,0-56.5-23.4-59.5-54l-10.7-109l-59.3,163H64.2
					l95.6-262.7c8.6-23.6,31-39.3,56.2-39.3h69.4c30.8,0,56.5,23.4,59.5,54l12,122.8l64.3-176.8H539.5 M553.1,373.2h-13.7H421.3
					h-6.7l-2.3,6.3l-49.9,137.2l-7.9-80.9c-1.7-17.2-9.6-33-22.4-44.6c-12.8-11.6-29.3-18-46.6-18H216c-29,0-55.2,18.3-65.2,45.6
					L55.2,681.5l-4.7,12.8h13.7h118.2h6.7l2.3-6.3l44.9-123.4l6.6,67.1c1.7,17.2,9.6,33,22.4,44.6c12.8,11.6,29.3,18,46.6,18h75.8
					c29,0,55.2-18.3,65.2-45.6L548.4,386L553.1,373.2L553.1,373.2z"/>
			</g>
			<g>
				<path d="M2673.1,689.6c-32,0-60.8-15-79.2-41.2s-22.7-58.4-11.8-88.5l143.7-397.3c13-36,36.5-66.7,67.9-88.8
					c31.4-22,68.2-33.7,106.6-33.7h334.8l-59.7,164l-272.6,0c-16.7,0-31.7,10.5-37.4,26.2l-18,49.6l162.4-0.3
					c32,0,60.9,15,79.2,41.3c18.4,26.2,22.6,58.5,11.7,88.6l-57.5,158.1c-13.1,36-36.6,66.6-67.9,88.5s-68.1,33.6-106.4,33.6H2673.1
					z M2757.8,526.4l137.2-0.7l29.9-82.7l-136.8,0L2757.8,526.4z"/>
				<path d="M3228.3,45l-56.2,154.4l-269.2,0c-18.7,0-35.5,11.7-41.9,29.3l-20.4,56l169-0.3c0.1,0,0.1,0,0.2,0
					c63.8,0,108.2,63.4,86.4,123.4l-57.5,158.1c-26,71.4-93.9,118.9-169.8,118.9h-195.8c-63.8,0-108.2-63.3-86.5-123.2l143.7-397.3
					c25.9-71.6,93.8-119.3,170-119.3H3228.3 M2750.9,531.2l147.4-0.7l33.4-92.3l-146.9,0L2750.9,531.2 M3242,35.4h-13.7h-328
					c-39.3,0-77.1,11.9-109.3,34.5c-32.2,22.6-56.3,54.1-69.6,91l-143.7,397.3c-5.8,16-7.5,32.6-5.1,49.2
					c2.3,15.6,8.3,30.7,17.4,43.7s21.3,23.8,35.1,31.2c14.8,7.9,30.9,12,48,12h195.8c39.3,0,77-11.9,109.2-34.4
					c32.2-22.5,56.2-53.9,69.7-90.8l57.5-158.1c5.8-16.1,7.6-32.6,5.2-49.2c-2.3-15.6-8.3-30.7-17.4-43.7
					c-9.1-13-21.3-23.8-35.1-31.3c-14.8-8-30.9-12-48-12h-0.2l-155.4,0.3L2870,232c5-13.8,18.2-23,32.9-23l269.2,0h6.7l2.3-6.3
					l56.2-154.4L3242,35.4L3242,35.4z M2791.5,447.8l126.6,0l-26.5,73.2l-127,0.6L2791.5,447.8L2791.5,447.8z"/>
			</g>
			<g>
				<path d="M3342.3,689.6l66.3-183.4l-221.7,0c-24.8,0-47-12.8-59.5-34.2c-12.4-21.4-12.5-47.1-0.2-68.6l207.4-363.2H3522
					l-171.9,302.7l117.8-0.6l109.3-302.1h164.6l-236.4,649.4H3342.3z"/>
				<path d="M3513.8,45l-171.9,302.7l129.4-0.6L3580.6,45H3735l-232.9,639.8h-153l66.3-183.4l-228.5,0c0,0,0,0,0,0
					c-49.1,0-79.9-53-55.5-95.7l206-360.8H3513.8 M3530.2,35.4h-16.4h-176.4h-5.6l-2.8,4.8l-206,360.8c-13.1,23-13,50.4,0.3,73.4
					c13.3,22.9,37.1,36.6,63.6,36.6l214.9,0l-61.7,170.6l-4.6,12.8h13.6h153h6.7l2.3-6.3l232.9-639.8l4.7-12.8H3735h-154.4h-6.7
					l-2.3,6.3l-107,295.8l-106.2,0.5l163.8-288.4L3530.2,35.4L3530.2,35.4z"/>
			</g>
		</g>
	</g>
</g>
</svg>
