<?xml version="1.0" encoding="utf-8"?>
<!-- Generator: Adobe Illustrator 25.0.0, SVG Export Plug-In . SVG Version: 6.00 Build 0)  -->
<svg version="1.1"
	 id="svg2" inkscape:export-filename="C:\Users\namco\OneDrive\Documents\Irem.png" xmlns:cc="http://creativecommons.org/ns#" xmlns:dc="http://purl.org/dc/elements/1.1/" xmlns:inkscape="http://www.inkscape.org/namespaces/inkscape" xmlns:rdf="http://www.w3.org/1999/02/22-rdf-syntax-ns#" xmlns:sodipodi="http://sodipodi.sourceforge.net/DTD/sodipodi-0.dtd" xmlns:svg="http://www.w3.org/2000/svg"
	 xmlns="http://www.w3.org/2000/svg" xmlns:xlink="http://www.w3.org/1999/xlink" x="0px" y="0px" viewBox="0 0 3839.5 1861.5"
	 style="enable-background:new 0 0 3839.5 1861.5;" xml:space="preserve">
<style type="text/css">
	.st0{fill:#FFFFFF;}
	.st1{fill:#5F9ED5;}
	.st2{fill:none;stroke:#000000;stroke-width:40.9338;stroke-miterlimit:16.6379;}
	.st3{fill:#6AB145;}
	.st4{fill:none;stroke:#FFFFFF;stroke-width:40.9338;stroke-miterlimit:16.6379;}
	.st5{fill:none;stroke:#FFFFFF;stroke-width:39.9961;stroke-miterlimit:16.6379;}
	.st6{fill:#008D00;}
	.st7{fill:#F65B41;}
	.st8{fill:#3A499E;}
</style>
<g>
	<rect x="173.6" y="829.5" class="st7" width="366.9" height="988.7"/>
	<path class="st8" d="M3839.5,1093.6c0-344.9-467.4-314.4-530.8-117.9h-15.5c-81-216.8-464.3-169.1-499.8,0H2778V829.5h-366.8v988.7
		H2778v-577.6c0-45.3,36.7-82,82-82h0c45.3,0,82,36.7,82,82v577.6h366.8v-577.6c0-45.3,36.7-82,82-82h0c45.3,0,82,36.7,82,82v577.6
		h366.9V1093.6L3839.5,1093.6z"/>
	
		<rect x="104.6" y="104.6" transform="matrix(0.7071 0.7071 -0.7071 0.7071 357.0172 -147.8814)" class="st8" width="504.9" height="504.9"/>
	<path class="st8" d="M1191.5,1333.5l13.7,29.3c-106.6-279.5,133-327.7,133-327.7l-60.7-340c0,0-197.5,23.5-222.9,269.5l-63.9-172.2
		L646.8,920l349.3,941.5l343.9-127.6L1191.5,1333.5z"/>
	<path class="st8" d="M2158.1,1421.4c-89,94.4-214,123.3-323.1,67.2l493.9-377.2c-186.5-357.6-669.6-409.1-886.1-71.8
		c0,0-250.6,416.9,152.6,683.6c294.5,194.7,595.2,64.4,735-38.4L2158.1,1421.4z M1987.9,1152.9l-280.2,214
		C1594.1,1170.4,1842.4,1000.2,1987.9,1152.9z"/>
</g>
</svg>
