<?xml version="1.0" encoding="utf-8"?>
<!-- Generator: Adobe Illustrator 25.4.1, SVG Export Plug-In . SVG Version: 6.00 Build 0)  -->
<svg version="1.1"
	 id="svg2" xmlns:cc="http://creativecommons.org/ns#" xmlns:dc="http://purl.org/dc/elements/1.1/" xmlns:inkscape="http://www.inkscape.org/namespaces/inkscape" xmlns:rdf="http://www.w3.org/1999/02/22-rdf-syntax-ns#" xmlns:sodipodi="http://sodipodi.sourceforge.net/DTD/sodipodi-0.dtd" xmlns:svg="http://www.w3.org/2000/svg"
	 xmlns="http://www.w3.org/2000/svg" xmlns:xlink="http://www.w3.org/1999/xlink" x="0px" y="0px" viewBox="0 0 3839 1997.8"
	 style="enable-background:new 0 0 3839 1997.8;" xml:space="preserve">
<style type="text/css">
	.st0{fill:#FFFFFF;}
	.st1{fill:#5F9ED5;}
	.st2{fill:#6AB145;}
</style>
<g>
	<g>
		<g>
			<path class="st0" d="M881.5,1997.8c-93.7,0-162.9-73.8-162.9-167.5c0-92.8,68.7-168.5,164.3-168.5c58.9,0,94.2,20.9,126.7,51.5
				l-25.1,26.9c-27.4-26-58-44.6-102.1-44.6c-71.9,0-125.8,58-125.8,133.7c0,75.6,54.3,134.6,125.8,134.6
				c44.6,0,73.8-17.2,104.9-46.9l24.1,23.7C977.6,1975.1,940.5,1997.8,881.5,1997.8z"/>
			<path class="st0" d="M1089.4,1667.5h36.7v291h182.8v33.9h-219.5V1667.5z"/>
			<path class="st0" d="M1693.1,1992.2h-39.4l-38.1-85.9h-176.8l-38.5,85.9h-37.6l148-327.2h34.3L1693.1,1992.2z M1527.4,1707.9
				l-74.3,165.7h148L1527.4,1707.9z"/>
			<path class="st0" d="M1881,1812.3c72.4,15.8,105.8,42.2,105.8,92.3c0,56.2-46.4,92.3-110.9,92.3c-51.5,0-93.7-17.2-132.7-52
				l22.7-26.9c33.9,30.6,66.4,45.9,111.4,45.9c43.6,0,72.4-22.7,72.4-55.7c0-30.6-16.2-47.8-84.5-62.2
				c-74.7-16.2-109.1-40.4-109.1-94.2c0-52,45-89.1,106.7-89.1c47.3,0,81.2,13.5,114.2,39.9l-21.3,28.3
				c-30.2-24.6-60.3-35.3-93.7-35.3c-42.2,0-69.1,23.2-69.1,52.9C1792.9,1779.8,1809.6,1797,1881,1812.3z"/>
			<path class="st0" d="M2187.3,1812.3c72.4,15.8,105.8,42.2,105.8,92.3c0,56.2-46.4,92.3-110.9,92.3c-51.5,0-93.7-17.2-132.7-52
				l22.7-26.9c33.9,30.6,66.4,45.9,111.4,45.9c43.6,0,72.4-22.7,72.4-55.7c0-30.6-16.2-47.8-84.5-62.2
				c-74.7-16.2-109.1-40.4-109.1-94.2c0-52,45-89.1,106.7-89.1c47.3,0,81.2,13.5,114.2,39.9l-21.3,28.3
				c-30.2-24.6-60.3-35.3-93.7-35.3c-42.2,0-69.1,23.2-69.1,52.9C2099.1,1779.8,2115.9,1797,2187.3,1812.3z"/>
			<path class="st0" d="M2421.6,1667.5v324.8H2385v-324.8H2421.6z"/>
			<path class="st0" d="M2679.1,1997.8c-93.7,0-162.9-73.8-162.9-167.5c0-92.8,68.7-168.5,164.3-168.5c58.9,0,94.2,20.9,126.7,51.5
				l-25.1,26.9c-27.4-26-58-44.6-102.1-44.6c-71.9,0-125.8,58-125.8,133.7c0,75.6,54.3,134.6,125.8,134.6
				c44.6,0,73.8-17.2,104.9-46.9l24.1,23.7C2775.2,1975.1,2738.1,1997.8,2679.1,1997.8z"/>
			<path class="st0" d="M3003.5,1812.3c72.4,15.8,105.8,42.2,105.8,92.3c0,56.2-46.4,92.3-110.9,92.3c-51.5,0-93.7-17.2-132.7-52
				l22.7-26.9c33.9,30.6,66.4,45.9,111.4,45.9c43.6,0,72.4-22.7,72.4-55.7c0-30.6-16.2-47.8-84.5-62.2
				c-74.7-16.2-109.1-40.4-109.1-94.2c0-52,45-89.1,106.7-89.1c47.3,0,81.2,13.5,114.2,39.9l-21.3,28.3
				c-30.2-24.6-60.3-35.3-93.7-35.3c-42.2,0-69.1,23.2-69.1,52.9C2915.3,1779.8,2932,1797,3003.5,1812.3z"/>
		</g>
	</g>
	<g>
		<rect x="1445.3" y="496.8" class="st0" width="948.5" height="948.5"/>
		<path d="M2416.3,1467.8h-993.5V474.2h993.5V1467.8z M1467.8,1422.7h903.4V519.3h-903.4L1467.8,1422.7L1467.8,1422.7z"/>
		<rect x="2393.8" y="496.8" class="st0" width="1422.7" height="948.5"/>
		<path d="M3839,1467.8H2371.2V474.2H3839V1467.8z M2416.3,1422.7H3794V519.3H2416.3V1422.7z"/>
		<rect x="22.6" y="22.6" class="st1" width="474.2" height="474.2"/>
		<path d="M519.3,519.3H0V0h519.3V519.3z M45.1,474.2h429.2V45.1H45.1V474.2z"/>
		<rect x="2845.5" y="971.1" width="45.1" height="474.2"/>
		<rect x="2845.5" y="971.1" width="45.1" height="474.2"/>
		<polygon class="st0" points="1445.3,971.1 971.1,971.1 971.1,1445.3 496.8,1445.3 496.8,496.8 1445.3,496.8 		"/>
		<path d="M993.5,1467.8H474.2V474.2h993.5v519.3H993.5V1467.8z M519.3,1422.7h429.2V948.5h474.2V519.3H519.3V1422.7z"/>
		<polyline class="st2" points="22.6,496.8 496.8,496.8 496.8,1445.3 22.6,1445.3 22.6,496.8 		"/>
		<path d="M519.3,1467.8H0V474.2h519.3V1467.8z M45.1,1422.7h429.2V519.3H45.1V1422.7z"/>
		<rect x="1761.4" y="790.4" width="316.1" height="45.1"/>
		<rect x="1761.4" y="1106.6" width="632.4" height="45.1"/>
		<rect x="3319.7" y="971.1" width="45.1" height="474.2"/>
		<rect x="3319.7" y="971.1" width="45.1" height="474.2"/>
	</g>
</g>
</svg>
