<?xml version="1.0" encoding="utf-8"?>
<!-- Generator: Adobe Illustrator 25.0.0, SVG Export Plug-In . SVG Version: 6.00 Build 0)  -->
<svg version="1.1" id="Layer_1" xmlns="http://www.w3.org/2000/svg" xmlns:xlink="http://www.w3.org/1999/xlink" x="0px" y="0px"
	 viewBox="0 0 3840 978.3" style="enable-background:new 0 0 3840 978.3;" xml:space="preserve">
<style type="text/css">
	.st0{fill:#D73648;}
	.st1{fill:#FFFFFF;}
	.st2{fill:#FFFFFF;stroke:#FFFFFF;stroke-width:24.8258;stroke-miterlimit:10;}
	.st3{fill:#FFFFFF;stroke:#000000;stroke-width:24.8258;stroke-miterlimit:10;}
	.st4{fill:#FFFFFF;stroke:#D73648;stroke-width:24.8258;stroke-miterlimit:10;}
	.st5{fill:#DF2227;}
	.st6{fill:#FFFFFF;stroke:#DF2227;stroke-width:24.8258;stroke-miterlimit:10;}
</style>
<g>
	<g>
		<path class="st1" d="M1449,289.9h185.8l-21.5,247.8h0.9l145.4-247.8h189.3l-142,460.3H1683l101.5-317.5h-0.9l-177.2,317.5h-98.9
			l18.9-317.5h-0.9l-94.6,317.5h-123L1449,289.9z"/>
		<path class="st1" d="M1995.3,289.9h133.4l-141.1,460.3h-133.4L1995.3,289.9z"/>
		<path class="st1" d="M2177.7,289.9h199.6c79.2,0,173.8,52.5,149.7,203.1c-24.1,153.1-125.6,257.3-276.2,257.3h-214.2L2177.7,289.9
			z M2207,632.4h64.5c86.9,0,117.9-96.4,122.2-138.5c7.7-68.8-24.1-86-68.8-86h-49L2207,632.4z"/>
		<path class="st1" d="M2905.6,750.3h-128.2l26.7-238.3h-0.9l-120.5,238.3h-128.2l18.9-460.3h130.8L2675,557.5h0.9l133.4-267.6
			h116.2l-29.3,267.6h0.9l131.6-267.6h135.9L2905.6,750.3z"/>
		<path class="st1" d="M3224.8,289.9h130.8l52.5,460.3h-130.8l-5.2-65.4H3131l-35.3,65.4h-135.9L3224.8,289.9z M3182.7,585.9h83.5
			l-10.3-137.7h-0.9L3182.7,585.9z"/>
		<path class="st1" d="M3471.8,581.6l-68.8-291.7h133.4l27.5,171.2l119.6-171.2H3840l-234.9,289.9l-46.5,170.4h-133.4L3471.8,581.6z
			"/>
		<path class="st1" d="M3595.7,720.1c0-13.8,11.2-24.1,24.1-24.1c12.9,0,24.1,10.3,24.1,24.1c0,13.8-11.2,24.1-24.1,24.1
			C3606.8,744.2,3595.7,733.9,3595.7,720.1z M3619.7,740.8c11.2,0,18.9-8.6,18.9-19.8s-8.6-19.8-18.9-19.8
			c-11.2,0-19.8,8.6-19.8,19.8C3600.8,732.2,3609.4,740.8,3619.7,740.8z M3615.4,733.9h-4.3v-27.5h10.3c6.9,0,9.5,2.6,9.5,7.7
			s-3.4,6.9-6.9,7.7l7.7,12h-4.3l-6.9-12h-5.2L3615.4,733.9L3615.4,733.9z M3619.7,719.3c3.4,0,6.9,0,6.9-4.3c0-3.4-3.4-4.3-6-4.3
			h-6v8.6H3619.7z"/>
	</g>
	<path class="st5" d="M224.7,778.6C73.3,726.2-31.7,627.2,8.7,506.8c57.6-172.9,397.5-307.2,759.7-298.6
		c50.8,0.9,84.3,3.4,130.8,9.5L1083.3,0l-71.4,237.5c215.1,52.5,350.2,167.8,305.4,298.6c-58.5,172.9-382,282.2-621.2,295.1
		l119.6-413L342.5,978.3l122.2-452.6L224.7,778.6z M1196.9,505c28.4-95.5-49-177.2-195.3-227.1L882.9,679.7
		C1026.6,653.9,1171.1,592.8,1196.9,505z M876.8,242.6c-41.3-6-77.4-8.6-123.9-10.3c-291.7-6.9-567,101.5-613.5,241.8
		C112,557.5,156.7,610.9,248.8,647l408.7-378.6l-82.6,330.4L876.8,242.6"/>
	<path class="st5" d="M877.7,844c0-13.8,11.2-24.1,24.1-24.1c12.9,0,24.1,10.3,24.1,24.1s-11.2,24.1-24.1,24.1
		C888.9,867.3,877.7,857.8,877.7,844z M901.8,863.8c11.2,0,18.9-8.6,18.9-19.8c0-11.2-8.6-19.8-18.9-19.8
		c-11.2,0-19.8,8.6-19.8,19.8C882.9,855.2,890.6,863.8,901.8,863.8z M896.6,857.8h-4.3v-27.5h10.3c6.9,0,9.5,2.6,9.5,7.7
		c0,5.2-3.4,6.9-6.9,7.7l7.7,12h-4.3l-6.9-12h-5.2C896.6,845.8,896.6,857.8,896.6,857.8z M901.8,842.3c3.4,0,6.9,0,6.9-4.3
		c0-3.4-3.4-4.3-6-4.3h-6v8.6H901.8z"/>
</g>
</svg>
