<?xml version="1.0" encoding="utf-8"?>
<!-- Generator: Adobe Illustrator 25.0.0, SVG Export Plug-In . SVG Version: 6.00 Build 0)  -->
<svg version="1.1" id="Layer_1" xmlns="http://www.w3.org/2000/svg" xmlns:xlink="http://www.w3.org/1999/xlink" x="0px" y="0px"
	 viewBox="0 0 3840 804" style="enable-background:new 0 0 3840 804;" xml:space="preserve">
<style type="text/css">
	.st0{fill:#D73648;}
	.st1{fill:#FFFFFF;}
	.st2{fill:#FFFFFF;stroke:#FFFFFF;stroke-width:24.8258;stroke-miterlimit:10;}
	.st3{fill:#FFFFFF;stroke:#000000;stroke-width:24.8258;stroke-miterlimit:10;}
	.st4{fill:#FFFFFF;stroke:#D73648;stroke-width:24.8258;stroke-miterlimit:10;}
	.st5{fill:#DF2227;}
	.st6{fill:#FFFFFF;stroke:#DF2227;stroke-width:24.8258;stroke-miterlimit:10;}
</style>
<g>
	<g>
		<path class="st0" d="M1058.1,342.8c-20.8,30.7-47.4,63-79.6,96.8c0,0,0,0,0,0c4.7-34.4,12.2-66.7,22.6-96.8
			c8.3-23.9,18-47.6,28.9-71.1c6.3-13.5,16.9-34.3,32-62.4c15.1-28.1,35.2-56.6,60.5-85.5c25.2-28.9,42.6-43.4,51.9-43.4
			c4.2,0,6.2,3.2,6.2,9.4c0,15.1-10.7,45.3-32,90.6c-18.7,39.6-38.8,77.6-60.1,114L1058.1,342.8z M1259.6,342.2
			c-10.9,18.2-23.7,35.4-38.3,51.5c-14.6,16.1-31.5,32-50.8,47.6c3.7-21.8,7.6-39.8,11.7-53.9c4.1-14,9.9-29.2,17.2-45.3l23.4-47.6
			c0,0,0,0,0,0c17.2-29.2,34.6-55.2,52.3-78.1c20.3-26,34.6-39,43-39c5.7,0,8.6,3.9,8.6,11.7c0,9.9-6.2,28.9-18.7,57
			c-9.9,21.9-20.8,44.2-32.8,67.2L1259.6,342.2z M1567,342.8l20.6-41.4c2.1-3.6,0-6.3-6.2-8.2c-6.2-1.8-14.6-2.8-25-2.8
			c-7.3,0-14.1,0.4-20.4,1.2c-6.2,0.8-10.4,2.7-12.5,5.9l-21.9,45.3c-9.4,18.2-19.2,36.6-29.6,55.1c-10.4,18.5-21.9,37.1-34.4,55.9
			c-17.7,26.5-32.3,44.5-43.7,53.9c-11.5,9.4-23.4,14-35.9,14c-8.3,0-12.5-4.9-12.5-14.8c0-11.9,5.5-29.7,16.4-53.1
			c6.8-15.1,16.4-34.2,28.9-57.1c10.4-19.3,20.6-37.2,30.5-53.9c7.8-13.5,14.6-25.5,20.3-35.9c3.1-5.7,4.9-9.4,5.5-10.9
			c2.1-4.7,0.2-8-5.5-9.8c-5.7-1.8-13.6-2.7-23.4-2.7c-6.3,0-12.9,0.8-19.9,2.4c-7,1.6-11.1,3.1-12.1,4.7l-32,52.3
			c-10.4,16.7-19.8,32.3-28.1,46.8c-10.4,18.2-20,36.5-28.9,54.7l-4.7,9.4c-14.1,27-27.9,46.6-41.4,58.5c-13.6,12-26.6,17.9-39,17.9
			c-14.1,0-23.9-3.4-29.3-10.1c-5.5-6.8-8.2-15.1-8.2-25c0-4.2,0.3-7.3,0.8-9.4c15.6-9.9,29.7-20.6,42.2-32c15.6-14.1,32-32,49.2-54
			c13.6-17.7,26.8-36.7,39.8-57c18.2-29.6,33.7-60.5,46.5-92.5c12.8-32,19.2-59.2,19.2-81.6c0-14.6-2.8-25.5-8.2-32.8
			c-5.5-7.2-14.7-10.9-27.7-10.9c-19.8,0-48.4,19.5-85.9,58.5c-37.5,39.1-68.5,81.5-92.9,127.3l-16.4,32
			c-17.7,37-29.4,73.9-35.1,110.9l-5.5,48.4c0,0,0,0,0,0c-8.8,9.4-19.8,18.2-32.8,26.6c-16.1,10.4-29.4,15.6-39.8,15.6
			c-15.6,0-27.6-5.3-35.9-16c-8.3-10.7-12.5-22.5-12.5-35.5c0,0,0,0,0,0l42.2-39c19.3-19.3,36-37.6,50.4-55.1
			c14.3-17.5,28.2-36.1,41.8-55.9c8.3-12.5,15.2-23,20.7-31.6c5.5-8.6,11.1-17.8,16.8-27.7c20.3-34.3,36.7-66.6,49.2-96.8
			c17.2-41.6,25.8-75.7,25.8-102.3c0-15.6-3.3-27.7-9.8-36.3c-6.5-8.6-17.3-12.9-32.4-12.9c-31.2,0-69.5,26.2-114.8,78.5
			c-41.2,47.6-76.5,102.8-106.2,165.6c-5.2,11.5-10,22.6-14.4,33.3c-4.5,10.7-8.7,21.3-12.9,31.8c-7.8,22-13.8,41.5-18,58.5
			c-4.2,17-6.2,34.7-6.2,53c-1.1,8.4-1.6,16.1-1.6,23.1v22.4c0,0,0,0,0,0c-4.2,5.4-14.6,13.9-31.2,25.5
			c-16.7,11.6-28.9,17.4-36.7,17.4c-7.3,0-13.1-1.2-17.6-3.5c-4.4-2.3-6.6-6.1-6.6-11.3c0-1.5,0.5-4.4,1.6-8.6
			c4.2-13.6,8.1-24.8,11.7-33.6c2.1-5.7,6.8-16.9,14.1-33.7l31.2-71.2c1.1-3.7-1.8-6.4-8.6-8.2c-6.8-1.8-15.3-2.7-25.7-2.7
			c-16.6,0-26.3,1.8-28.9,5.5c0,0,0,0,0,0c-4.7,8.8-11.2,20.7-19.5,35.6c-8.3,14.9-16.4,28.6-24.2,41.1
			c-16.1,26.1-31,46.7-44.5,61.9c-17.1,19.3-31.5,29-42.9,29c-9.4,0-15.2-3.1-17.5-9.4c-2.4-6.2-3.5-13.5-3.5-21.8
			c0-18.7,4.5-38.7,13.6-60.2c9.1-21.5,21-41.9,35.8-61.1c14.8-19.2,30.6-35.3,47.2-48.2c19.3-15,35.1-22.6,47.6-22.6
			c2.6,0,4.8,0.3,6.7,0.8c1.8,0.5,3.3,3.3,4.3,8.3c1.1,5.1,3.1,9,6.2,11.8c3.1,2.8,7.2,4.9,12.1,6.4c4.9,1.5,11.8,2.3,20.7,2.3
			c6.7-0.5,12.7-3.1,17.9-7.8c9.4-8.3,13.5-17.4,12.5-27.2c0-25.9-16.2-38.9-48.4-38.9c-26.5,0-52.1,6-76.9,18
			c-24.7,12-48.3,28.1-70.6,48.3c-18.2,16.7-34,34.3-47.2,52.7c-13.3,18.5-24.6,37.9-33.9,58.2c-10.4,24.9-15.6,46-15.6,63.2
			c0,18.8,3.1,34.9,9.3,48.4c8.8,21.3,25.4,32,49.7,32c14,0,26.7-2.5,38.1-7.4c11.4-4.9,23.3-13.1,35.8-24.5l14-14l7,13.3
			c7.3,12.5,16.1,22.4,26.6,29.7c10.4,7.3,22.7,10.9,36.8,10.9c30.2,0,60.7-13.5,91.4-40.6l14.9-13.3l7.8,13.3
			c7.8,12.5,16.9,22.3,27.3,29.3c10.4,7,22.7,10.6,36.8,10.6c14,0,29.8-3.8,47.2-11.3c17.5-7.5,33.5-16.8,48.1-27.7
			c4.1-2.6,8.3-6,12.5-10.3c4.2-4.3,7.8-8,10.9-11.1c4.7,8.8,9.4,16.1,14.1,21.8c14.6,18.2,32.6,27.3,53.9,27.3
			c10.9,0,22.3-2.5,34-7.4c11.7-4.9,23.3-11.6,34.8-19.9c14-10.9,25.3-21.7,33.6-32.2c0,0,0,0,0,0c4.1,13.8,9.4,24.2,15.6,31.3
			c8.3,9.7,19.8,14.5,34.4,14.5c14.1,0,30.5-4.8,49.2-14.6c13.6-7.1,25.3-15.6,35.1-25.3l-14.1,25.7l-97.9,183.2
			c-5.9,10.6-8.9,20-8.9,28.2c0,10.2,5.2,18.3,15.6,24.3c3.6,2.1,7.2,3.1,10.9,3.1c8.3,0,16.4-4.3,24.2-12.9
			C1347.8,784.5,1567,342.8,1567,342.8z"/>
		<path class="st0" d="M563.7,389.2c-15.2-16.4-35-31.9-59.6-46.4v-6.3c52.8-17.5,105.5-35.1,158.3-52.6
			c22.5-7.5,44.1-18.4,61.8-34.2c31.7-28.5,47.6-64.6,47.6-108.3c0-47.4-18-82.7-54-106.2C681.8,11.7,631.5,0,566.9,0
			C472.5,0,375.6,31.2,276,93.7C170.7,159.8,93.6,243.1,44.6,343.5c-8.9,17.7-16.6,35.9-23.1,54.6c-6.5,18.8-11.9,37.5-16,56.2
			L0,485.6c0,0,0,0,0,0v19.5c0,21.3,4.4,41.6,13.3,60.9c12,26.5,30.1,47.8,54.3,63.6c24.2,15.9,50.6,23.8,79.2,23.8
			c19.8,0,39.2-4.1,58.2-12.2c19-8.1,37.9-20.7,56.6-38c12-10.9,22.9-23.5,32.8-37.6c15.6-20.9,29.7-43.4,42.2-67.4
			c3.1-6.8,10.1-21.7,21.1-44.6l33.7-74.9l17.1-36c38.6-86.2,69.2-143.5,91.8-172.1c12.8-16.1,26.8-28.8,41.7-38.2
			c21.6-13,32.1-21.5,31.6-25.7c-0.5-5.2-5.5-7.8-14.8-7.8c-9.9,0-21.4,2.4-34.6,7c-13.2,4.7-26.3,10.7-39.3,17.9
			c-23.8,13.5-50.3,42.3-79.3,86.4c-11.9,18.2-31.4,52.4-58.3,102.8l-14,28.8l-48.6,111.6c-20.4,46.5-41.2,83.8-62.6,112.1
			c-13,16.7-26.5,29.4-40.3,38c-13.8,8.6-28.5,12.9-44.2,12.9c-32.8,0-54.5-16.9-64.9-50.7c-4.2-15-6.3-32.7-6.3-53
			c0-17.1,2.9-36.6,8.6-58.5c9.4-33.3,25.7-69.7,49.2-109.1c23.4-39.5,51.2-78,83.5-115.4c32.3-37.4,65.9-70.2,100.8-98.3
			c43.2-34.8,85.2-60.3,126.1-76.4c40.9-16.1,82.1-24.1,123.8-24.1c88,0,132,31,132,93.1c0,45.6-19.9,82.5-59.8,110.8
			c-13,9.4-50,27.5-111.1,54.2c-12.7,5.5-23.4,11.1-32,16.8c-20.4,13.4-24.6,41.7-9.9,61.2c8.5,11.3,17,22.4,25.5,33.6
			c12.9,17.3,19.3,33.8,19.3,49.4v4.8c0,26.7-11,50-33,69.7c-22,19.8-48.9,32.5-80.9,38.3c3.6-5.7,5.4-14.3,5.4-25.7
			c-1-9.9-4-18.1-9-24.6c-4.9-6.5-12.1-10.3-21.4-11.3c-10.9-1.6-20.4,1.9-28.5,10.4c-8.1,8.5-12.1,18.5-12.1,29.9
			c0,8.8,2.2,17.4,6.7,26c4.4,8.5,12.6,15.6,24.6,21.3c12,5.7,29.2,8.6,51.7,8.6c12.5,0,27.4-2.7,44.7-8.2
			c17.2-5.5,33.6-13.2,49.3-23c20.3-12.5,36-26.6,47-42.2c13-18.2,19.6-37.2,19.6-57v-12.5C586.5,427.3,578.9,405.6,563.7,389.2z"/>
	</g>
	<g>
		<g>
			<path class="st0" d="M1742.1,174.3h163.1l-18.9,217.4h0.8l127.6-217.4h166.1l-124.6,403.9h-108.7l89.1-278.6h-0.8l-155.5,278.6
				h-86.8l16.6-278.6h-0.8l-83,278.6h-108L1742.1,174.3z"/>
			<path class="st0" d="M2221.5,174.3h117l-123.8,403.9h-117L2221.5,174.3z"/>
			<path class="st0" d="M2381.5,174.3h175.1c69.5,0,152.5,46,131.4,178.2c-21.1,134.4-110.2,225.7-242.3,225.7h-188L2381.5,174.3z
				 M2407.2,474.8h56.6c76.2,0,103.4-84.6,107.2-121.5c6.8-60.4-21.1-75.5-60.4-75.5h-43L2407.2,474.8z"/>
			<path class="st0" d="M3020.2,578.2h-112.5l23.4-209.1h-0.8l-105.7,209.1h-112.5l16.6-403.9h114.7l-25.7,234.8h0.8l117-234.8
				h101.9l-25.7,234.8h0.8l115.5-234.8h119.3L3020.2,578.2z"/>
			<path class="st0" d="M3300.2,174.3H3415l46,403.9h-114.7l-4.5-57.4H3218l-31,57.4h-119.3L3300.2,174.3z M3263.2,434h73.2
				l-9.1-120.8h-0.8L3263.2,434z"/>
			<path class="st0" d="M3516.9,430.2l-60.4-255.9h117l24.2,150.2l104.9-150.2H3840l-206.1,254.4l-40.8,149.5h-117L3516.9,430.2z"/>
		</g>
	</g>
</g>
</svg>
