<?xml version="1.0" encoding="utf-8"?>
<!-- Generator: Adobe Illustrator 26.0.3, SVG Export Plug-In . SVG Version: 6.00 Build 0)  -->
<svg version="1.1" id="Layer_1" xmlns="http://www.w3.org/2000/svg" xmlns:xlink="http://www.w3.org/1999/xlink" x="0px" y="0px"
	 viewBox="0 0 3839 608.3" style="enable-background:new 0 0 3839 608.3;" xml:space="preserve">
<style type="text/css">
	.st0{fill:#A21F2C;}
	.st1{fill:#FFFFFF;}
</style>
<g>
	<path class="st1" d="M3534.9,608.3H304.1C136.2,608.3,0,472.1,0,304.1v0C0,136.2,136.2,0,304.1,0l3230.7,0
		c168,0,304.1,136.2,304.1,304.1v0C3839,472.1,3702.8,608.3,3534.9,608.3z"/>
	<g>
		<g>
			<path class="st0" d="M273.4,93.6v421.1h146.2V216H660v298.7h146.2V219.6c0-69.6-56.4-126.1-126.1-126.1L273.4,93.6L273.4,93.6z"
				/>
			<path class="st0" d="M873,93.6v104.8h415.7v44.6H999.1C929.5,242.9,873,299.4,873,369v19.6c0,69.6,56.4,126.1,126.1,126.1h435.8
				V219.6c0-69.6-56.4-126.1-126.1-126.1L873,93.6L873,93.6z M1019.2,409.9v-62.3h269.5v62.3H1019.2z"/>
			<g>
				<path class="st0" d="M1516.4,93.6v421.1h146.2V216h165.8v298.7h146.2V216h165.8v298.7h146.2V219.6
					c0-69.6-56.4-126.1-126.1-126.1L1516.4,93.6L1516.4,93.6z"/>
				<path class="st0" d="M2359.7,219.6v169c0,69.6,56.4,126.1,126.1,126.1h400.6V392.2H2506V216h380.4V93.6h-400.6
					C2416.2,93.6,2359.7,150,2359.7,219.6z"/>
				<path class="st0" d="M2959.8,219.6v169c0,69.6,56.4,126.1,126.1,126.1h353.6c69.6,0,126.1-56.4,126.1-126.1v-169
					c0-69.6-56.4-126.1-126.1-126.1h-353.6C3016.3,93.6,2959.8,150,2959.8,219.6z M3105.9,409.9V198.4h313.6V410L3105.9,409.9
					L3105.9,409.9z"/>
			</g>
		</g>
	</g>
</g>
</svg>
