<?xml version="1.0" encoding="utf-8"?>
<!-- Generator: Adobe Illustrator 26.3.1, SVG Export Plug-In . SVG Version: 6.00 Build 0)  -->
<svg version="1.1" id="Layer_1" xmlns="http://www.w3.org/2000/svg" xmlns:xlink="http://www.w3.org/1999/xlink" x="0px" y="0px"
	 viewBox="0 0 3839 1702.5" style="enable-background:new 0 0 3839 1702.5;" xml:space="preserve">
<style type="text/css">
	.st0{fill:#FFFFFF;}
	.st1{fill:#0037C1;}
	.st2{fill:#FFB41D;}
	.st3{fill:#FFFFFF;stroke:#FFFFFF;stroke-width:29.6132;stroke-linecap:round;stroke-linejoin:round;stroke-miterlimit:10;}
</style>
<g>
	<g>
		<g>
			<path class="st0" d="M1013.9,1390.9v-41.2h-61.7v-328.9H845.8v370H661v-41.2h-61.7V523.3c0-92.3,75.1-167.4,167.4-167.4h222
				c64.6,0,123.3,37.3,151.1,95.5c17.3,14,31.6,31.6,41.6,51.2c11.4,22.3,17.2,46.3,17.2,71.5v816.8H1013.9z M952.2,845.2v-230
				H845.8v169.7h103.7v60.3H952.2z"/>
			<path class="st0" d="M988.8,375.8c60.3,0,112.1,36.4,135,88.3c33.3,25.2,55,65,55,109.9v784.1v12.8H1166h-119.4h-12.8v-12.8
				v-28.4h-39.3h-22.3v-22.3V595.2H825.8v209.6h81.3h22.3v22.3v38h29.7H972v12.8v110.2v12.8h-12.8H825.8v357.3v12.8h-12.8H693.7
				h-12.8v-12.8v-28.4h-39.3h-22.3v-22.3V523.3c0-81.3,66.2-147.5,147.5-147.5H988.8 M988.8,335.9h-222
				c-103.3,0-187.4,84.1-187.4,187.4v784.1v22.3v39.9h39.9H641v1.3v39.9h39.9h12.8h119.4h12.8h39.9V1371v-12.8v-317.4h66.5v266.6
				v22.3v39.9h39.9h21.8v1.3v39.9h39.9h12.8H1166h12.8h39.9V1371v-12.8V574.1c0-27.9-6.7-55.8-19.4-80.5
				c-10.6-20.8-25.5-39.5-43.4-54.7C1124.1,376,1059.5,335.9,988.8,335.9L988.8,335.9z M865.7,635.1h66.5v129.8h-2.8h-22.3h-41.4
				V635.1L865.7,635.1z"/>
		</g>
		<g>
			<path class="st0" d="M3634.2,1390.9v-7.7c-10.7,5-22.5,7.7-34.7,7.7h-179.8c-46.5,0-90-20.2-120.2-55.7
				c-28.3-12.6-52.5-32.8-70.1-58.6c-19.1-27.9-29.2-60.5-29.2-94.3v-659c0-92.3,75.1-167.4,167.4-167.4l241.5,0
				c64.6,0,123.3,37.3,151.1,95.5c17.3,14,31.6,31.6,41.6,51.2c11.4,22.3,17.2,46.3,17.2,71.5v248.7h-42.5v34.4h42.5v533.8H3634.2z
				 M3572.6,1145.7V1042h-101.3v-41.2h-24.5v144.9H3572.6z M3634.2,796.8v-15.2h-61.7V615.2h-125.9v181.6H3634.2z"/>
			<path class="st0" d="M3367.6,375.8l241.5,0c60.3,0,112.1,36.4,135,88.3c33.3,25.2,55,65,55,109.9v216v12.8h-12.8h-119.4h-12.8
				v-12.8v-28.4h-39.3h-22.3v-22.3V595.2h-165.8v570.4h165.8V1022h-88.6h-12.8v-12.8v-28.4h-39.3h-22.3v-22.3V839.1v-22.3h22.3
				h282.4h22.3v22.3v38h29.7h12.8v12.8v468.3v12.8h-12.8h-119.4h-12.8v-12.8v-19.7c-10.6,19.3-31.1,32.5-54.7,32.5h-7.2h-172.6
				c-43.7,0-82.6-20.4-107.9-52.2c-53.7-22-91.7-74.9-91.7-136.5v-659C3220.1,442,3286.3,375.8,3367.6,375.8 M3367.6,335.9
				c-103.3,0-187.4,84.1-187.4,187.4v659c0,37.9,11.3,74.4,32.7,105.6c18.9,27.6,44.5,49.4,74.4,63.6c15.2,16.9,33.6,31,53.9,41
				c24.6,12.2,51,18.3,78.5,18.3h172.6h7.2c5,0,9.9-0.4,14.8-1.1v1.1h39.9h12.8h119.4h12.8h39.9V1371v-12.8V889.8v-12.8v-34.4v-39.9
				v-12.8v-216c0-27.9-6.7-55.8-19.4-80.5c-10.6-20.8-25.5-39.5-43.4-54.7c-31.8-62.8-96.3-102.9-167.1-102.9L3367.6,335.9
				L3367.6,335.9z M3466.6,635.1h86v104.2v22.3v15.2h-86V635.1L3466.6,635.1z M3466.6,1061.9h24.5h12.8h48.7v63.9h-86V1061.9
				L3466.6,1061.9z"/>
		</g>
		<g>
			<path class="st0" d="M437.1,1390.9l-17.7-41.2h-40.7l-112.2-261.2v302.3H81.6v-41.2H19.9V355.9h316.6
				c64.8,0,125.6,25.3,171.4,71.1c15.4,15.4,28.6,32.9,39.4,51.8c2,1.9,4,3.8,5.9,5.7c43.9,44,68,102.5,67.9,164.7l-0.4,158.6
				c-0.2,97.1-61,183.3-150.4,217l157.3,366.1H437.1z M333.1,780.4c14.6,0,26.5-11.9,26.5-26.5V615.2h-93.2v165.2H333.1z"/>
			<path class="st0" d="M336.5,375.8c59.4,0,115.3,23.2,157.2,65.2c15.1,15.1,27.6,32,37.6,50.2c2.6,2.4,5.2,4.8,7.7,7.3
				c40.2,40.3,62.2,93.7,62.1,150.6l-0.4,158.6c-0.2,96.5-65.5,180.2-157.4,204.8l146.4,340.6l7.7,17.8H578H458.6h-8.4l-3.3-7.7
				l-14.4-33.4h-26h-14.7l-5.8-13.5L246.5,991.6v366.6v12.8h-12.8H114.3h-12.8v-12.8v-28.4H62.2H39.9v-22.3V398.2v-22.3h22.3h59.7
				h59.7H336.5 M246.5,800.4H263h70.1c25.6,0,46.4-20.8,46.4-46.4V600.5c0-1.8-0.1-3.5-0.3-5.3H246.5V800.4 M336.5,335.9H181.6
				h-59.7H62.2H39.9H0v39.9v22.3v909.3v22.3v39.9h39.9h21.8v1.3v39.9h39.9h12.8h119.4h12.8h39.9V1371v-12.8v-172.7l63,146.5
				l5.8,13.5l10.4,24.1h26.3h14.4l4,9.3l3.3,7.7l10.4,24.1h26.3h8.4H578h19.4H658l-23.9-55.7l-7.7-17.8l-129.8-302.1
				c86.4-41.1,143.9-129.1,144.1-227.4l0.4-158.6c0.2-67.5-26-131.1-73.7-178.9c-1.4-1.4-2.8-2.8-4.2-4.1
				c-11.3-19.5-25.1-37.4-41.1-53.4C472.5,363.3,406.6,335.9,336.5,335.9L336.5,335.9z M286.4,635.1h53.3v118.8c0,3.5-3,6.5-6.5,6.5
				h-46.7V635.1L286.4,635.1z"/>
		</g>
		<g>
			<polygon class="st0" points="1407.9,1528.3 1346.2,1618.2 1346.2,1135.8 1263.3,1256.8 1263.3,1147 1201.6,1237 1201.6,362.1 
				1405.6,64.4 1405.6,208.1 1448.1,146.1 1448.1,485.4 1550.2,336.4 1550.2,480.1 1592.7,418.1 1592.7,1368.3 1407.9,1638.1 			"/>
			<path class="st0" d="M1385.7,128.8v72.1v71.6l19.2-28l23.3-34v41.2v298.1l18.4-26.8l26.3-38.4l16.6-24.3l40.8-59.5v72.1v71.5
				l2.6-3.7l16.6-24.3l23.3-34v41.2v834.5v4l-2.2,3.3l-119.4,174.2l-23.3,34v-41.2v-68.6l-20.9,30.5l-40.8,59.5v-72.1v-410.3
				l-59.7,87l-23.3,34v-41.2v-68.6l-20.9,30.5l-40.8,59.5v-72.1V375.2v-6.9l3.9-5.7l119.4-174.2L1385.7,128.8 M1425.6,0l-72.8,106.2
				l-40.8,59.5L1192.6,340l-3.9,5.7l-7,10.2v12.4v6.9v725.3v72.1v128.8l61.7-90v109.8l72.8-106.2l10.1-14.8v281.5v72.1v128.8
				l61.7-90v109.8l72.8-106.2l23.3-34l119.4-174.2l2.2-3.3l7-10.2v-12.4v-4V523.7v-41.2V353.6l-42.5,62v-14.9V272l-72.8,106.2
				l-29.3,42.7V251.7v-41.2V81.7l-42.5,62v-14.9V0L1425.6,0z"/>
		</g>
		<g>
			<polygon class="st0" points="2379.1,1528.3 2317.4,1618.2 2317.4,1135.8 2234.5,1256.8 2234.5,1147 2172.8,1237 2172.8,362.1 
				2376.8,64.4 2376.8,208.1 2419.3,146.1 2419.3,485.4 2521.4,336.4 2521.4,480.1 2563.9,418.1 2563.9,1368.3 2379.1,1638.1 			"/>
			<path class="st0" d="M2356.9,128.8v72.1v71.6l19.2-28l23.3-34v41.2v298.1l18.4-26.8l26.3-38.4l16.6-24.3l40.8-59.5v72.1v71.5
				l2.6-3.7l16.6-24.3l23.3-34v41.2v834.5v4l-2.2,3.3l-119.4,174.2l-23.3,34v-41.2v-68.6l-20.9,30.5l-40.8,59.5v-72.1v-410.3
				l-59.6,87l-23.3,34v-41.2v-68.6l-20.9,30.5l-40.8,59.5v-72.1V375.2v-6.9l3.9-5.7l119.4-174.2L2356.9,128.8 M2396.8,0L2324,106.2
				l-40.8,59.5L2163.8,340l-3.9,5.7l-7,10.2v12.4v6.9v725.3v72.1v128.8l61.7-90v109.8l72.8-106.2l10.1-14.8v281.5v72.1v128.8
				l61.7-90v109.8l72.8-106.2l23.3-34l119.4-174.2l2.2-3.3l7-10.2v-12.4v-4V523.7v-41.2V353.7l-42.5,62v-14.9V272l-72.8,106.2
				l-29.3,42.7V251.7v-41.2V81.7l-42.5,62v-14.9V0L2396.8,0z"/>
		</g>
		<g>
			<polygon class="st0" points="3042.4,1390.9 3021.2,1349.7 2984.5,1349.7 2832.4,1054.7 2832.4,1390.9 2647.5,1390.9 
				2647.5,1349.7 2585.9,1349.7 2585.9,355.9 2773.4,355.9 2804.5,416.2 2819.6,416.2 2968,704 2968,355.9 3172,355.9 3172,416.2 
				3214.5,416.2 3214.5,1390.9 			"/>
			<path class="st0" d="M3152,375.8v22.3v38h29.7h12.8v12.8v909.3v12.8h-12.8h-119.4h-7.8l-3.6-6.9l-17.7-34.3h-23.1h-13.6
				l-6.2-12.1l-178-345.2v385.7v12.8h-12.8h-119.4h-12.8v-12.8v-28.4h-39.3h-22.3v-22.3V398.2v-22.3h22.3l119.4,0h13.6l6.2,12.1
				l24.9,48.2h7.4h7.8l3.6,6.9L2988,786.2v-388v-22.3h22.3h119.4H3152 M3191.9,335.9H3152h-22.3h-119.4H2988h-39.9v39.9v22.3v223.6
				l-101.6-197l-3.6-6.9l-11.1-21.6h-15.1l-13.7-26.6l-6.2-12.1l-11.1-21.6h-24.3h-13.6l-119.4,0h-22.3h-39.9v39.9v22.3v909.3v22.3
				v39.9h39.9h21.8v1.3v39.9h39.9h12.8h119.4h12.8h39.9V1371v-12.8v-221.3L2955,1336l6.2,12.1l11.1,21.6h24.3h12.4l6.5,12.6l3.6,6.9
				l11.1,21.6h24.3h7.8h119.4h12.8h39.9V1371v-12.8V448.9v-12.8v-39.9h-39.9h-2.6v-20.4V335.9L3191.9,335.9z"/>
		</g>
		<g>
			<polygon class="st0" points="1649.9,1390.9 1649.9,1349.7 1588.3,1349.7 1588.3,1143.7 1864.8,615.2 1649.9,615.2 1649.9,574 
				1588.3,574 1588.3,355.9 2140.3,355.9 2140.3,416.2 2182.8,416.2 2182.8,607.6 1908.6,1131.6 2140.3,1131.6 2140.3,1191.9 
				2182.8,1191.9 2182.8,1390.9 			"/>
			<path class="st0" d="M2120.4,375.8v22.3v38h29.7h12.8v12.8v130.6v2.9v17.1v3.1l-1.5,2.8l-285.7,546.1H2098h22.3v22.3v38h29.7
				h12.8v12.8v133.6v12.8h-12.8h-467.5h-12.8v-12.8v-28.4h-39.3h-22.3v-22.3v-76.7v-56.8v-19.8v-5.5l2.5-4.9l287-548.5h-215.1h-12.8
				v-12.8v-28.4h-39.3h-22.3v-22.3V398.2v-22.3h22.3H2098H2120.4 M2160.2,335.9h-39.9H2098h-467.5h-22.3h-39.9v39.9v22.3v133.6v22.3
				V594h39.9h21.8v1.3v39.9h39.9h12.8h149.2l-256.4,490.1l-2.5,4.9l-4.5,8.7v9.8v5.5v19.8v56.8v76.7v22.3v39.9h39.9h21.8v1.3v39.9
				h39.9h12.8h467.5h12.8h39.9V1371v-12.8v-133.6v-12.8V1172h-39.9h-2.6v-20.4v-39.9h-39.9H2098h-156.4L2196.7,624l1.5-2.8l4.5-8.7
				v-9.8v-3.1v-17.1v-2.9V448.9v-12.8v-39.9h-39.9h-2.6v-20.4V335.9L2160.2,335.9z"/>
		</g>
	</g>
	<g>
		<g>
			<g>
				<path class="st1" d="M1040.2,1364.6V588.9H819.5v282.7h146.2v123H819.5v370H687.3V574.1c0-72.5,59-131.5,131.5-131.5h222
					c72.5,0,131.5,59,131.5,131.5v790.5H1040.2z"/>
				<path class="st1" d="M1040.8,448.9c69.1,0,125.1,56,125.1,125.1v784.1h-119.4V582.5H813.1v295.4h146.2v110.2H813.1v370H693.7
					V574.1c0-69.1,56-125.1,125.2-125.1H1040.8 M1040.8,436.2h-222c-36.8,0-71.5,14.3-97.5,40.4c-26,26-40.4,60.7-40.4,97.5v784.1
					v12.8h12.8h119.4h12.8v-12.8v-357.3h133.4H972v-12.8V877.9v-12.8h-12.8H825.8V595.2h208v762.9v12.8h12.8H1166h12.8v-12.8V574.1
					c0-36.8-14.3-71.5-40.4-97.5C1112.3,450.5,1077.7,436.2,1040.8,436.2L1040.8,436.2z"/>
			</g>
			<g>
				<path class="st1" d="M3660.5,1364.6V1315h-5.5c-3.2,27.8-26.9,49.5-55.6,49.5h-179.8c-72.5,0-131.5-59-131.5-131.5v-659
					c0-72.5,59-131.5,131.5-131.5l241.5,0c72.5,0,131.5,59,131.5,131.5v222.4h-132.2V588.9h-240.2v643.5h240.2v-216.8h-163V883.5
					h295.2v481.1H3660.5z"/>
				<path class="st1" d="M3419.7,448.9l241.5,0c69.1,0,125.1,56,125.1,125.1v216h-119.4V582.5h-253v656.3h253v-229.5h-163V889.8
					h282.4v468.3h-119.4v-49.5H3649c0,27.4-22.2,49.5-49.5,49.5h-7.2h-172.6c-69.1,0-125.1-56-125.1-125.1v-659
					C3294.6,505,3350.6,448.9,3419.7,448.9 M3419.7,436.2c-36.8,0-71.5,14.3-97.5,40.4c-26,26-40.4,60.7-40.4,97.5v659
					c0,36.8,14.3,71.5,40.4,97.5c26,26,60.7,40.4,97.5,40.4h172.6h7.2c23.5,0,44.1-13.1,54.7-32.5v19.7v12.8h12.8h119.4h12.8v-12.8
					V889.8v-12.8h-12.8h-282.4h-12.8v12.8v119.4v12.8h12.8h150.2v204h-227.4V595.2h227.4v194.8v12.8h12.8h119.4h12.8v-12.8v-216
					c0-36.8-14.3-71.5-40.4-97.5c-26-26-60.7-40.4-97.5-40.4L3419.7,436.2L3419.7,436.2z"/>
			</g>
			<g>
				<path class="st1" d="M454.4,1364.6l-145.7-339V867.1h76.5c34.4,0,62.4-28,62.4-62.4V651.3c0-34.4-28-62.4-62.4-62.4H240.1v775.7
					H107.9v-922h280.7c55.2,0,107,21.5,145.9,60.6c39,39,60.3,90.9,60.2,146.1l-0.4,158.6c-0.2,96.1-67,179.1-159.9,200.4
					l153.2,356.4H454.4z"/>
				<path class="st1" d="M388.6,448.9c110.5,0,200,89.7,199.8,200.2L588,807.8c-0.2,97.4-70.1,178.3-162.4,195.8L578,1358.2H458.6
					l-143.5-333.9V1007v-83.1v-50.4h70.1c38,0,68.8-30.8,68.8-68.8V651.3c0-38-30.8-68.8-68.8-68.8H233.7v775.7H114.3V448.9H174
					h59.7H388.6 M388.6,436.2H233.7H174h-59.7h-12.8v12.8v909.3v12.8h12.8h119.4h12.8v-12.8V595.2h138.7c30.9,0,56,25.1,56,56v153.4
					c0,30.9-25.1,56-56,56h-70.1h-12.8v12.8v50.4v83.1v17.2v2.6l1,2.4l143.5,333.9l3.3,7.7h8.4H578h19.4l-7.7-17.8l-146.4-340.6
					c41.8-11.2,79.6-35.3,107.7-68.7c15.7-18.7,27.9-39.7,36.4-62.4c8.8-23.5,13.2-48.3,13.3-73.6l0.4-158.6
					c0.1-28.7-5.5-56.6-16.6-82.9c-10.7-25.4-26-48.2-45.5-67.7c-19.5-19.6-42.3-34.9-67.6-45.7
					C445.2,441.8,417.3,436.2,388.6,436.2L388.6,436.2z"/>
			</g>
			<g>
				<polygon class="st1" points="1434.2,960.8 1289.6,1171.8 1289.6,423.9 1421.8,231.1 1421.8,714.1 1566.4,503.1 1566.4,1360.2 
					1434.2,1553 				"/>
				<path class="st1" d="M1415.4,251.7v483l25.2-36.8v0l76.4-111.5l26.3-38.4l16.6-24.3v834.5l-119.4,174.2V940.2l-25.2,36.8v0
					L1296,1151.2V425.9L1415.4,251.7 M1428.2,210.5l-23.3,34l-119.4,174.2l-2.2,3.3v4v725.3v41.2l23.3-34L1426,984.2l1.9-2.8v551
					v41.2l23.3-34l119.4-174.2l2.2-3.3v-4V523.7v-41.2l-23.3,34l-16.6,24.3l-26.3,38.4l-76.4,111.5l-1.9,2.8V251.7V210.5
					L1428.2,210.5z"/>
			</g>
			<g>
				<polygon class="st1" points="2405.4,960.8 2260.8,1171.8 2260.8,423.9 2393,231.1 2393,714.1 2537.6,503.1 2537.6,1360.2 
					2405.4,1553 				"/>
				<path class="st1" d="M2386.6,251.7v483l25.2-36.8v0l76.4-111.5l26.3-38.4l16.6-24.3v834.5l-119.4,174.2V940.2l-25.2,36.8v0
					l-119.4,174.2V425.9L2386.6,251.7 M2399.4,210.5l-23.3,34l-119.4,174.2l-2.2,3.3v4v725.3v41.2l23.3-34l119.4-174.2l1.9-2.8v551
					v41.2l23.3-34l119.4-174.2l2.2-3.3v-4V523.7v-41.2l-23.3,34l-16.6,24.3l-26.3,38.4l-76.4,111.5l-1.9,2.8V251.7V210.5
					L2399.4,210.5z"/>
			</g>
			<g>
				<polygon class="st1" points="3058.5,1364.6 2818.8,899.8 2806.1,899.8 2806.1,1364.6 2673.9,1364.6 2673.9,442.5 2803.6,442.5 
					3045.1,910.9 3056,910.9 3056,442.5 3188.2,442.5 3188.2,1364.6 				"/>
				<path class="st1" d="M3181.8,448.9v909.3h-119.4l-239.7-464.8h-23v464.8h-119.4V448.9h119.4v0l241.5,468.3h21.2V448.9H3181.8
					 M2667.5,436.2v12.8v909.3v12.8h12.8h119.4h12.8v-12.8v-452h2.5L3051,1364l3.6,6.9h7.8h119.4h12.8v-12.8V448.9v-12.8h-12.8
					h-119.4h-12.8v12.8v455.6h-0.7L2811,443.1l-3.6-6.9h-7.8l-119.4,0L2667.5,436.2L2667.5,436.2z"/>
			</g>
			<g>
				<polygon class="st1" points="1676.2,1364.6 1676.2,1203.2 1997.7,588.9 1676.2,588.9 1676.2,442.5 2156.5,442.5 2156.5,601.1 
					1833.5,1218.2 2156.5,1218.2 2156.5,1364.6 				"/>
				<path class="st1" d="M2150.1,448.9v130.6v2.9v17.1L1823,1224.6h327.1v133.6h-467.5v-76.7v-56.8v-19.8l325.7-622.3h-325.7V448.9
					H2150.1 M2162.9,436.2h-12.8h-467.5h-12.8v12.8v133.6v12.8h12.8h304.6l-315.9,603.6l-1.5,2.8v3.1v19.8v56.8v76.7v12.8h12.8
					h467.5h12.8v-12.8v-133.6v-12.8h-12.8h-306l317.3-606.4l1.5-2.8v-3.1v-17.1v-2.9V448.9V436.2L2162.9,436.2z"/>
			</g>
		</g>
		<g>
			<g>
				<path class="st0" d="M983.3,1318.6V542.9H772.2V816h146.2v132.6H772.2v370H630.4V523.3c0-75.2,61.2-136.3,136.3-136.3h222
					c75.2,0,136.3,61.2,136.3,136.3v795.3H983.3z"/>
				<path class="st1" d="M988.8,398.2c69.1,0,125.1,56,125.1,125.1v784.1H994.5V531.7H761v295.4h146.2v110.2H761v370H641.6V523.3
					c0-69.1,56-125.1,125.2-125.1H988.8 M988.8,375.8h-222c-39.4,0-76.4,15.3-104.3,43.2c-27.9,27.9-43.2,64.9-43.2,104.3v784.1
					v22.3h22.3H761h22.3v-22.3V959.8h123.8h22.3v-22.3V827.2v-22.3h-22.3H783.3V554.1h188.8v753.4v22.3h22.3h119.4h22.3v-22.3V523.3
					c0-39.4-15.3-76.4-43.2-104.3C1065.2,391.2,1028.2,375.8,988.8,375.8L988.8,375.8z"/>
			</g>
			<g>
				<path class="st0" d="M3603.7,1318.6v-37.9c-9,22.2-30.8,37.9-56.3,37.9h-179.8c-75.2,0-136.3-61.2-136.3-136.3v-659
					c0-75.2,61.2-136.3,136.3-136.3l241.5,0c75.2,0,136.3,61.2,136.3,136.3v227.2h-141.8V542.9h-230.6v634h230.6V969.7h-163V827.9
					h304.7v490.7H3603.7z"/>
				<path class="st1" d="M3367.6,398.2l241.5,0c69.1,0,125.1,56,125.1,125.1v216h-119.4V531.7h-253V1188h253V958.5h-163V839.1h282.4
					v468.3h-119.4v-49.5h-17.9c0,27.4-22.2,49.5-49.5,49.5h-7.2h-172.6c-69.1,0-125.1-56-125.1-125.1v-659
					C3242.5,454.2,3298.5,398.2,3367.6,398.2 M3367.6,375.8c-39.4,0-76.4,15.3-104.3,43.2c-27.9,27.9-43.2,64.9-43.2,104.3v659
					c0,39.4,15.3,76.4,43.2,104.3c27.9,27.9,64.9,43.2,104.3,43.2h172.6h7.2c17.1,0,32.8-6,45.1-15.9v15.9h22.3h119.4h22.3v-22.3
					V839.1v-22.3h-22.3h-282.4h-22.3v22.3v119.4v22.3h22.3h140.7v184.8h-208.3V554.1h208.3v185.2v22.3h22.3h119.4h22.3v-22.3v-216
					c0-39.4-15.3-76.4-43.2-104.3c-27.9-27.9-64.9-43.2-104.3-43.2L3367.6,375.8L3367.6,375.8z"/>
			</g>
			<g>
				<path class="st0" d="M399.2,1318.6L251.9,975.8V811.6h81.3c31.8,0,57.6-25.8,57.6-57.6V600.5c0-31.8-25.8-57.6-57.6-57.6H192.8
					v775.7H51.1V387h285.5c56.4,0,109.5,22,149.3,62c39.9,40,61.7,93,61.6,149.5L547.1,757c-0.2,96.4-65.9,179.9-158,203.7
					l153.8,357.9H399.2z"/>
				<path class="st1" d="M336.5,398.2c110.5,0,200,89.7,199.8,200.2L535.9,757c-0.2,97.4-70.1,178.3-162.4,195.8l152.4,354.7H406.5
					L263,973.5v-17.2v-83.1v-50.4h70.1c38,0,68.8-30.8,68.8-68.8V600.5c0-38-30.8-68.8-68.8-68.8H181.6v775.7H62.2V398.2h59.7h59.7
					H336.5 M336.5,375.8H181.6h-59.7H62.2H39.9v22.3v909.3v22.3h22.3h119.4H204v-22.3V554.1h129.1c25.6,0,46.4,20.8,46.4,46.4v153.4
					c0,25.6-20.8,46.4-46.4,46.4H263h-22.3v22.3v50.4v83.1v17.2v4.6l1.8,4.2L386,1316.3l5.8,13.5h14.7h119.4h33.9l-13.4-31.2
					L404.3,967.9c39.5-12.8,75-36.6,102-68.7c16.4-19.5,29.2-41.4,38-65.2c9.2-24.6,13.8-50.5,13.9-77l0.4-158.6
					c0.1-30-5.8-59.2-17.3-86.6c-11.2-26.5-27.2-50.3-47.6-70.8c-20.4-20.4-44.2-36.5-70.7-47.7
					C395.7,381.7,366.6,375.8,336.5,375.8L336.5,375.8z"/>
			</g>
			<g>
				<polygon class="st2" points="1377.4,925.5 1232.8,1136.5 1232.8,371.7 1374.5,164.9 1374.5,647.9 1519.1,436.9 1519.1,1310.9 
					1377.4,1517.8 				"/>
				<path class="st1" d="M1363.3,200.9v483l25.2-36.8v0l76.4-111.5l26.3-38.4l16.6-24.3v834.5l-119.4,174.2V889.5l-25.2,36.8v0
					l-119.4,174.2V375.2L1363.3,200.9 M1385.7,128.8l-40.8,59.5l-119.4,174.2l-3.9,5.7v6.9v725.3v72.1l40.8-59.5l103.8-151.5v520.1
					v72.1l40.8-59.5l119.4-174.2l3.9-5.7v-6.9V472.9v-72.1l-40.8,59.5l-16.6,24.3l-26.3,38.4l-60.9,88.8V200.9V128.8L1385.7,128.8z"
					/>
			</g>
			<g>
				<polygon class="st2" points="2348.6,925.5 2204,1136.5 2204,371.7 2345.7,164.9 2345.7,647.9 2490.3,436.9 2490.3,1310.9 
					2348.6,1517.8 				"/>
				<path class="st1" d="M2334.5,200.9v483l25.2-36.8v0l76.4-111.5l26.3-38.4l16.6-24.3v834.5l-119.4,174.2V889.5l-25.2,36.8v0
					l-119.4,174.2V375.2L2334.5,200.9 M2356.9,128.8l-40.8,59.5l-119.4,174.2l-3.9,5.7v6.9v725.3v72.1l40.8-59.5l103.8-151.5v520.1
					v72.1l40.8-59.5l119.4-174.2l3.9-5.7v-6.9V472.9v-72.1l-40.8,59.5l-16.6,24.3l-26.3,38.4l-60.9,88.8V200.9V128.8L2356.9,128.8z"
					/>
			</g>
			<g>
				<polygon class="st0" points="3003.5,1318.6 2763.8,853.8 2758.8,853.8 2758.8,1318.6 2617,1318.6 2617,387 2754.4,387 
					2995.9,855.3 2999.1,855.3 2999.1,387 3140.9,387 3140.9,1318.6 				"/>
				<path class="st1" d="M3129.7,398.2v909.3h-119.4l-239.7-464.8h-23v464.8h-119.4V398.2h119.4v0l241.5,468.3h21.2V398.2H3129.7
					 M3152,375.8h-22.3h-119.4H2988v22.3v417.4l-220.5-427.6l-6.2-12.1h-13.6l-119.4,0h-22.3v22.3v909.3v22.3h22.3h119.4h22.3v-22.3
					V890.1l220.5,427.6l6.2,12.1h13.6h119.4h22.3v-22.3V398.2V375.8L3152,375.8z"/>
			</g>
			<g>
				<polygon class="st0" points="1619.4,1318.6 1619.4,1151.3 1937.8,542.9 1619.4,542.9 1619.4,387 2109.2,387 2109.2,551.6 
					1789.4,1162.7 2109.2,1162.7 2109.2,1318.6 				"/>
				<path class="st1" d="M2098,398.2v130.6v2.9v17.1l-327.1,625.1H2098v133.6h-467.5v-76.7v-56.8v-19.8l325.7-622.3h-325.7V398.2
					H2098 M2120.4,375.8H2098h-467.5h-22.3v22.3v133.6v22.3h22.3h288.8l-308.5,589.6l-2.5,4.9v5.5v19.8v56.8v76.7v22.3h22.3H2098
					h22.3v-22.3v-133.6v-22.3H2098h-290.2l310-592.4l2.5-4.9v-5.5v-17.1v-2.9V398.2V375.8L2120.4,375.8z"/>
			</g>
		</g>
	</g>
</g>
</svg>
