<?xml version="1.0" encoding="utf-8"?>
<!-- Generator: Adobe Illustrator 25.4.1, SVG Export Plug-In . SVG Version: 6.00 Build 0)  -->
<svg version="1.1" id="Layer_1" xmlns="http://www.w3.org/2000/svg" xmlns:xlink="http://www.w3.org/1999/xlink" x="0px" y="0px"
	 viewBox="0 0 3839 1726.7" style="enable-background:new 0 0 3839 1726.7;" xml:space="preserve">
<style type="text/css">
	.st0{fill:#FFFFFF;}
	.st1{fill:#FFE850;}
	.st2{fill:#034693;}
</style>
<g>
	<g>
		<g>
			<path class="st0" d="M1169.4,1726.7v-113.1h-119.7c-56.4,53.6-152.7,113.1-302.3,113.1H0v-492.3h71.3c-0.4-0.8-0.9-1.5-1.3-2.3
				C1.7,1113.8,1.7,960.9,70,842.6c34.5-59.7,84.7-108.5,145.4-141.3c60.1-32.4,128-48.8,201.9-48.8l562.7,0h824.8
				c108.7,0,198.5,82.3,210.5,187.8h107.6l0-31.8c0-86.2,69.9-156,156-156l401.6,0l223,290.6l223-290.6H3839l-823.8,1073.6h-419.8
				v-46.7c0-36.4-29.5-65.8-65.8-65.8h-802.1c-36.4,0-65.8,29.5-65.8,65.8v47.3H1169.4z"/>
			<path d="M3167.7,735.7l-264,344.1l-264-344.1l-360.6,0c-40.2,0-72.8,32.6-72.8,72.8l0,115h-272.6v-59.1
				c0-71.1-57.6-128.7-128.7-128.7H980l-562.7,0c-120.4,0-220.8,54.1-275.3,148.5c-53.7,93-53.7,213.3,0,306.3
				c34.4,59.5,87,103.1,151.4,127.1H83.2v325.9h664.3c129.1,0,208.4-52.9,252.1-97.3c5.1-5.1,9.9-10.4,14.6-15.9h238.5v113.1h325.9
				v-47.3c0-36.4,29.5-65.8,65.8-65.8h968.5c36.4,0,65.8,29.5,65.8,65.8v46.7h295.5l696.1-907.2H3167.7z M2583.9,1283.5v-1.3
				l0.9,1.3H2583.9z"/>
			<rect x="1763.4" y="1141.6" class="st0" width="708" height="159.5"/>
			<path class="st0" d="M1804.9,818.9H980v45.5c0-25.1-20.4-45.5-45.5-45.5l-517.3,0c-310.1,0-310.1,437,0,437v0h330.2
				c96.6,0,96.6,145,0,145H166.4v159.5h581.1c342.9,0,342.9-463.9,0-463.9H417.3v0c-83,4.1-91.7-126.9,0-131c0,0,0,0,0,0H980h355.8
				v594.9h159.5V965.4h355.1v-101C1850.3,839.2,1830,818.9,1804.9,818.9z"/>
			<polygon class="st0" points="3250,818.9 2903.6,1270.3 2557.2,818.9 2305.7,818.9 2874.1,1559.7 2933.2,1559.7 3501.6,818.9 			
				"/>
		</g>
	</g>
	<g>
		<g>
			<g>
				<path class="st0" d="M2570.8,95.5C2553.3,39.8,2500.7,0,2440.2,0c-60.5,0-113.1,39.8-130.6,95.5l-46.2,136.9V8h-242
					c-43,0-82.8,17.5-113.1,46.2V8h-248.4c-46.2,0-87.6,19.1-117.8,51V8h-235.7c-100.3,0-183.1,82.8-183.1,183.1
					c0,47.8,19.1,92.4,49.4,124.2h-49.4v213.4H1359c66.9,0,124.2-35,157.6-89.2c27.1,52.5,81.2,89.2,144.9,89.2h250v-46.2
					c28.7,28.7,68.5,46.2,113.1,46.2h691.1L2570.8,95.5z"/>
				<g>
					<g>
						<path class="st2" d="M1359,353.5h-199.1v62.1H1359c38.2,0,70.1-31.8,70.1-70.1s-31.8-70.1-70.1-70.1h-51
							c-46.2,0-84.4-38.2-84.4-84.4s38.2-84.4,84.4-84.4h197.5V44.6h-199.1c-81.2,0-146.5,65.3-146.5,146.5s65.3,146.5,146.5,146.5
							h51c4.8,0,8,3.2,8,8C1365.3,350.3,1362.2,353.5,1359,353.5z"/>
						<path class="st2" d="M1306.4,184.7h199.1V121h-199.1c-38.2,0-70.1,31.8-70.1,70.1s31.8,70.1,70.1,70.1h51
							c46.2,0,84.4,38.2,84.4,84.4s-38.2,84.4-84.4,84.4h-197.5v62.1H1359c81.2,0,146.5-65.3,146.5-146.5s-65.3-146.5-146.5-146.5
							h-51c-4.8,0-8-3.2-8-8C1300.1,187.9,1303.2,184.7,1306.4,184.7z"/>
					</g>
					<g>
						<path class="st2" d="M2021.4,121c-27.1,0-47.8,20.7-47.8,47.8v199.1c0,27.1,20.7,47.8,47.8,47.8h129V275.5h-98.7v62.1h36.6
							v14.3h-36.6c-8,0-14.3-6.4-14.3-14.3V197.5c0-8,6.4-14.3,14.3-14.3h176.8V121H2021.4z"/>
						<path class="st2" d="M2413.1,415.6h144.9l-98.7-293c-3.2-8-9.6-14.3-19.1-14.3c-8,0-15.9,6.4-19.1,12.7l-127.4,371h73.3
							l44.6-132.2v55.7H2413.1z M2438.6,281.9l20.7,63.7h-43L2438.6,281.9z"/>
						<path class="st2" d="M2535.8,109.9c-12.7-41.4-51-73.3-97.1-73.3c-46.2,0-84.4,30.3-95.5,71.7l-116.2,340.8v-250h-175.2v62.1
							h114.7V430H2023c-35,0-62.1-28.7-62.1-62.1V168.8c0-35,28.7-62.1,62.1-62.1h205.4V44.6h-207c-68.5,0-124.2,55.7-124.2,124.2
							v199.1c0,68.5,55.7,124.2,124.2,124.2h256.4l129-374.2c4.8-14.3,17.5-23.9,33.4-23.9s28.7,9.6,33.4,23.9L2578.8,430h-165.6
							v62.1h251.6l0,0L2535.8,109.9z"/>
					</g>
					<g>
						<path class="st2" d="M1659.9,430c-35,0-62.1-28.7-62.1-62.1V168.8c0-35,28.7-62.1,62.1-62.1h213.4V44.6h-213.4
							c-68.5,0-124.2,55.7-124.2,124.2v199.1c0,68.5,55.7,124.2,124.2,124.2h213.4V430H1659.9z"/>
						<path class="st2" d="M1674.3,339.2h154.5v-62.1h-216.6v92.4c0,27.1,20.7,47.8,47.8,47.8h213.4v-62.1h-184.7
							C1680.6,353.5,1674.3,347.1,1674.3,339.2z"/>
						<path class="st2" d="M1828.7,199.1h-154.5c0-8,6.4-14.3,14.3-14.3h183.1V121h-211.8c-27.1,0-47.8,20.7-47.8,47.8v92.4h216.6
							C1828.7,261.2,1828.7,199.1,1828.7,199.1z"/>
					</g>
				</g>
			</g>
		</g>
	</g>
</g>
</svg>
