<?xml version="1.0" encoding="utf-8"?>
<!-- Generator: Adobe Illustrator 25.4.1, SVG Export Plug-In . SVG Version: 6.00 Build 0)  -->
<svg version="1.1" id="Layer_1" xmlns="http://www.w3.org/2000/svg" xmlns:xlink="http://www.w3.org/1999/xlink" x="0px" y="0px"
	 viewBox="0 0 3839 1440" style="enable-background:new 0 0 3839 1440;" xml:space="preserve">
<style type="text/css">
	.st0{fill:#FFFFFF;}
	.st1{fill:#034693;}
</style>
<g>
	<g>
		<g>
			<path class="st0" d="M2858.5,137.8C2833.2,57.4,2757.5,0,2670.2,0s-163,57.4-188.3,137.8l-66.6,197.4V11.5h-349
				c-62,0-119.4,25.3-163,66.6V11.5h-358.2c-66.6,0-126.3,27.6-169.9,73.5V11.5h-339.8c-144.6,0-264,119.4-264,264
				c0,68.9,27.6,133.2,71.2,179.1h-71.2v307.6h339.8c96.4,0,179.1-50.5,227.3-128.6c39,75.8,117.1,128.6,208.9,128.6H1908v-66.6
				c41.3,41.3,98.7,66.6,163,66.6h996.4L2858.5,137.8z"/>
			<g>
				<g>
					<g>
						<path class="st1" d="M1111.4,509.7h-287v89.5h287c55.1,0,101-45.9,101-101s-45.9-101-101-101h-73.5
							c-66.6,0-121.7-55.1-121.7-121.7s55.1-121.7,121.7-121.7h284.7V64.3h-287c-117.1,0-211.2,94.1-211.2,211.2
							s94.1,211.2,211.2,211.2h73.5c6.9,0,11.5,4.6,11.5,11.5C1120.5,505.1,1116,509.7,1111.4,509.7z"/>
						<path class="st1" d="M1035.6,266.3h287v-91.8h-287c-55.1,0-101,45.9-101,101s45.9,101,101,101h73.5
							c66.6,0,121.7,55.1,121.7,121.7s-55.1,121.7-121.7,121.7H824.4v89.5h287c117.1,0,211.2-94.1,211.2-211.2
							S1228.4,287,1111.4,287h-73.5c-6.9,0-11.5-4.6-11.5-11.5C1026.4,270.9,1031,266.3,1035.6,266.3z"/>
					</g>
					<g>
						<path class="st1" d="M2066.4,174.5c-39,0-68.9,29.8-68.9,68.9v287c0,39,29.8,68.9,68.9,68.9h186v-202h-142.3v89.5h52.8v20.7
							h-52.8c-11.5,0-20.7-9.2-20.7-20.7v-202c0-11.5,9.2-20.7,20.7-20.7h254.8v-89.5H2066.4z"/>
						<path class="st1" d="M2631.2,599.2h208.9l-142.3-422.4c-4.6-11.5-13.8-20.7-27.6-20.7c-11.5,0-23,9.2-27.6,18.4L2459,709.4
							h105.6l64.3-190.6v80.4H2631.2z M2667.9,406.4l29.8,91.8h-62L2667.9,406.4z"/>
						<path class="st1" d="M2808,158.4c-18.4-59.7-73.5-105.6-140-105.6s-121.7,43.6-137.8,103.3l-167.6,491.3V287h-252.5v89.5
							h165.3v243.4h-206.6c-50.5,0-89.5-41.3-89.5-89.5v-287c0-50.5,41.3-89.5,89.5-89.5h296.2V64.3h-298.5
							c-98.7,0-179.1,80.4-179.1,179.1v287c0,98.7,80.4,179.1,179.1,179.1h369.6l186-539.5c6.9-20.7,25.3-34.4,48.2-34.4
							s41.3,13.8,48.2,34.4l151.5,450h-238.8v89.5H2994l0,0L2808,158.4z"/>
					</g>
					<g>
						<path class="st1" d="M1545.3,619.9c-50.5,0-89.5-41.3-89.5-89.5v-287c0-50.5,41.3-89.5,89.5-89.5h307.6V64.3h-307.6
							c-98.7,0-179.1,80.4-179.1,179.1v287c0,98.7,80.4,179.1,179.1,179.1h307.6v-89.5H1545.3z"/>
						<path class="st1" d="M1565.9,489h222.7v-89.5h-312.2v133.2c0,39,29.8,68.9,68.9,68.9h307.6V512h-266.3
							C1575.1,509.7,1565.9,500.5,1565.9,489z"/>
						<path class="st1" d="M1788.6,287h-222.7c0-11.5,9.2-20.7,20.7-20.7h264v-91.8h-305.3c-39,0-68.9,29.8-68.9,68.9v133.2h312.2
							C1788.6,376.5,1788.6,287,1788.6,287z"/>
					</g>
				</g>
			</g>
		</g>
	</g>
	<g>
		<g>
			<g>
				<g>
					<rect x="26.5" y="878.2" class="st1" width="3786" height="535.3"/>
					<path class="st0" d="M3839,1440H0V851.8h3839V1440z M53,1387.1H3786V904.7H53V1387.1z"/>
				</g>
			</g>
		</g>
		<g>
			<path class="st0" d="M538.3,1083l-8.8-3.8c0.5-1.7,1.1-3.8,1.1-5.9c0-5.5-51.6-35.1-141.1-35.1c-85.7,0-122.4,20.3-122.4,46.5
				c0,69.3,323.4-32.1,323.4,120.8c0,55.8-70.3,98.8-210.8,98.8c-134,0-172.4-32.9-185-32.9c-3.3,0-4.9,2.1-7.7,3.4l-7.1-1.3
				l45.6-71.8l8.8,3.4c0,1.7-1.1,3.4-1.1,6.8c0,24.9,70.8,42.7,141.1,42.7c99.9,0,134-22,134-45.2c0-82.8-319,19.9-319-120.4
				c0-71,97.2-100.5,203.7-100.5c95.5,0,162.5,32.1,169.1,32.1c7.1,0,8.2-1.7,9.9-3l8.8,2.1L538.3,1083z"/>
			<path class="st0" d="M715.1,992.6v5.9c-3.8,0-7.1,1.7-7.1,3.8c0,3,3.3,5.5,7.7,10.1l97.7,103.5l101-105.6
				c2.2-2.5,4.4-5.1,4.4-6.3c0-2.5-3.8-5.1-7.7-5.5v-5.9h112.6v5.9c-11.5,0.4-20.9,7.2-28.6,15.6l-143.3,153.3v114
				c0,9.3,2.7,12.7,13.7,12.7v5.9H760.7v-5.9c11,0,13.2-3.4,13.2-12.7v-114l-151-153.3c-8.2-8.4-13.7-15.6-26.9-15.6v-5.9H715.1z"/>
			<path class="st0" d="M1365.2,1083l-8.8-3.8c0.5-1.7,1.1-3.8,1.1-5.9c0-5.5-51.6-35.1-141.1-35.1c-85.7,0-122.4,20.3-122.4,46.5
				c0,69.3,323.4-32.1,323.4,120.8c0,55.8-70.3,98.8-210.8,98.8c-134,0-172.4-32.9-185-32.9c-3.3,0-4.9,2.1-7.7,3.4l-7.1-1.3
				l45.6-71.8l8.8,3.4c0,1.7-1.1,3.4-1.1,6.8c0,24.9,70.8,42.7,141.1,42.7c99.9,0,134-22,134-45.2c0-82.8-319,19.9-319-120.4
				c0-71,97.2-100.5,203.7-100.5c95.5,0,162.5,32.1,169.1,32.1c7.1,0,8.2-1.7,9.9-3l8.8,2.1L1365.2,1083z"/>
			<path class="st0" d="M1682.6,1281.5c0,9.3,2.7,12.7,17,12.7v5.9h-111.5v-5.9c14.3,0,16.5-3.4,16.5-12.7v-239.1h-132.3
				c-13.2,0-18.7,3.4-18.7,10.6h-7.7v-70.5h7.7c0,6.8,5.5,10.1,18.7,10.1h342.6c13.2,0,18.7-3.4,18.7-10.1h7.7v70.5h-7.7
				c0-7.2-5.5-10.6-18.7-10.6h-132.3V1281.5z"/>
			<path class="st0" d="M1878,1294.1c12.1,0,14.3-3.4,14.3-12.7v-270.3c0-9.3-2.2-12.7-14.3-12.7v-5.9h356.3
				c13.2,0,18.7-3.4,18.7-9.3h7.7v70.1h-7.7c0-7.6-5.5-11-18.7-11h-264.1v75.2h172.4c13.2,0,18.7-3.4,18.7-11h7.7v71h-7.7
				c0-3.4-1.1-5.9-4.4-7.6c-2.7-1.7-7.7-2.5-14.3-2.5h-172.4v82.8h269c13.2,0,18.7-3.4,18.7-10.1h7.7v69.3h-7.7
				c0-5.9-5.5-9.3-18.7-9.3H1878V1294.1z"/>
			<path class="st0" d="M2768.1,992.6v5.9c-12.6,0-14.8,3.4-14.8,12.7v270.3c0,9.3,2.2,12.7,14.8,12.7v5.9h-106v-5.9
				c11,0,13.2-3.4,13.2-12.7v-189.6h-1.1l-141.7,208.2h-7.7l-140-210.3h-1.1v191.7c0,9.3,2.2,12.7,16.5,12.7v5.9h-97.7v-5.9
				c12.1,0,14.3-3.4,14.3-12.7v-270.3c0-9.3-2.2-12.7-14.3-12.7v-5.9h121.9v5.9c-7.1,0-14.3,3-14.3,8c0,3.8,3.8,7.6,12.1,19.9
				l110.9,163l121.9-174c2.7-3.4,6-8,6-11c0-3.8-4.9-5.5-14.3-5.9v-5.9H2768.1z"/>
			<path class="st0" d="M3136.3,1070.3c-41.7,0.8-48.3,6.8-50.5,16.9h-7.7v-67.6h7.7c0,6.8,6,9.3,13.7,9.3
				c11.5,0,37.9-8.9,37.9-19.9c0-6.3-6.6-10.6-14.3-10.6v-5.9h107.6v5.9c-12.1,0-16.5,5.1-16.5,15.2v265.2
				c0,10.1,4.4,15.2,16.5,15.2v5.9h-110.9v-5.9c12.1,0,16.5-5.1,16.5-15.2V1070.3z"/>
			<path class="st0" d="M3595.5,1080.4l-6.6-2.5c1.1-1.7,1.1-3,1.1-4.6c0-10.1-32.4-35.1-97.2-35.1c-78,0-129,31.7-134.5,92.9
				c41.2-27.5,88.9-36.3,135.1-36.3c84,0,165.8,33.8,165.8,101.8c0,78.1-93.3,107.7-181.7,107.7c-128.5,0-197.1-57.9-197.1-154.2
				c0-96.3,83.5-161.8,208.6-161.8c39.5,0,69.7,6.8,91.7,13.5c22,6.8,35.7,13.5,41.2,13.5c4.4,0,6-1.7,8.2-3.8l7.1,2.1
				L3595.5,1080.4z M3476.9,1144.6c-65.9,0-104.3,28.7-104.3,54.9c0,38,38.4,54.9,104.3,54.9c65.9,0,104.3-16.9,104.3-54.9
				C3581.2,1161.5,3542.8,1144.6,3476.9,1144.6z"/>
		</g>
	</g>
</g>
</svg>
