<?xml version="1.0" encoding="utf-8"?>
<!-- Generator: Adobe Illustrator 26.0.1, SVG Export Plug-In . SVG Version: 6.00 Build 0)  -->
<svg version="1.1" id="Layer_1" xmlns="http://www.w3.org/2000/svg" xmlns:xlink="http://www.w3.org/1999/xlink" x="0px" y="0px"
	 viewBox="0 0 3839 1208.9" style="enable-background:new 0 0 3839 1208.9;" xml:space="preserve">
<style type="text/css">
	.st0{fill:#F05100;}
	.st1{fill:#FFFFFF;}
	.st2{fill:#1281C4;}
	.st3{fill:#034693;}
	.st4{fill:#CF3312;}
</style>
<g>
	<g>
		<g>
			<polygon class="st1" points="3160.6,575.4 3160.6,588.2 3187,588.2 3187,676.3 3204.4,676.3 3204.4,588.4 3235.5,588.2 
				3235.5,575.4 			"/>
			<path class="st1" d="M3350.2,676.3h-16.2v-55.9l-37.2,47.1l-37.3-47.1c0,0-0.1,55.8,0.1,55.9c0.2,0.1-14.9,0-14.9,0l0-100.8
				l52.4,65.1l53-65.1V676.3z"/>
			<rect x="2994.5" y="575.4" class="st1" width="96.7" height="582"/>
			<polygon class="st1" points="2789.5,575.4 2446.5,972.6 2103.6,575.4 2103.6,1157.4 2200.3,1157.4 2200.3,835.4 2446.5,1120.6 
				2692.8,835.4 2692.8,1157.4 2789.5,1157.4 			"/>
			
				<rect x="475.8" y="575.4" transform="matrix(-1 -7.521326e-08 7.521326e-08 -1 1048.3292 1634.3623)" class="st1" width="96.7" height="483.5"/>
			
				<rect x="0" y="668.4" transform="matrix(-1 -7.607898e-08 7.607898e-08 -1 96.6832 1825.8348)" class="st1" width="96.7" height="489.1"/>
			
				<rect x="873.3" y="750.2" transform="matrix(7.656944e-08 -1 1 7.656944e-08 -74.6596 1917.9663)" class="st1" width="96.7" height="492.2"/>
			<polygon class="st1" points="572.5,1032.5 572.5,1157.4 0,688.4 0,563.4 			"/>
			<path class="st0" d="M1674.5,536.2c-185.7,0-336.3,150.6-336.3,336.3s150.6,336.3,336.3,336.3c185.7,0,336.3-150.6,336.3-336.3
				S1860.2,536.2,1674.5,536.2z M1674.5,632.9c-132.3,0-239.6,107.3-239.6,239.6c0,132.3,107.3,239.6,239.6,239.6
				c132.3,0,239.6-107.3,239.6-239.6C1914.1,740.2,1806.8,632.9,1674.5,632.9z M1674.5,1094.8c-122.6,0-222.3-99.7-222.3-222.3
				c0-122.6,99.7-222.3,222.3-222.3c122.6,0,222.3,99.7,222.3,222.3C1896.8,995.1,1797,1094.8,1674.5,1094.8z M1674.5,1112.2
				c-132.3,0-239.6-107.3-239.6-239.6c0-132.3,107.3-239.6,239.6-239.6s239.6,107.3,239.6,239.6
				C1914.1,1004.9,1806.8,1112.2,1674.5,1112.2z"/>
			<polygon class="st1" points="785.2,1157.4 1000.7,763.8 1216.1,1157.4 1326.3,1157.4 1000.7,562.4 675,1157.4 			"/>
		</g>
		<g>
			
				<rect x="3623.4" y="941.9" transform="matrix(5.203487e-08 -1 1 5.203487e-08 2562.6453 4780.854)" class="st0" width="96.7" height="334.5"/>
			<path class="st0" d="M3796,638.4c-42.2-47.9-96.4-73.2-156.7-73.2c-71.9,0-134.8,36.8-174.7,67.4l68.4,68.7
				c47.1-33.3,128-71.1,191.2,0.5c94.4,106.9-189.8,335.9-268.9,392.7v62.9h76.3c78.4-58.9,289-230,306.3-382.5
				C3843.6,723.2,3829.1,675.9,3796,638.4z"/>
		</g>
	</g>
	<g>
		<g>
			<path class="st1" d="M2491.6,83.9C2476.2,35,2430,0,2376.9,0s-99.3,35-114.7,83.9l-40.6,120.3V7H2009
				c-37.8,0-72.7,15.4-99.3,40.6V7h-218.2c-40.6,0-76.9,16.8-103.5,44.8V7h-207c-88.1,0-160.9,72.7-160.9,160.9
				c0,42,16.8,81.1,43.4,109.1h-43.4v187.4h207c58.7,0,109.1-30.8,138.5-78.3c23.8,46.2,71.3,78.3,127.3,78.3h219.6v-40.6
				c25.2,25.2,60.1,40.6,99.3,40.6h607.1L2491.6,83.9z"/>
			<g>
				<g>
					<path class="st2" d="M1427.1,310.5h-174.8v54.6h174.8c33.6,0,61.5-28,61.5-61.5s-28-61.5-61.5-61.5h-44.8
						c-40.6,0-74.1-33.6-74.1-74.1s33.6-74.1,74.1-74.1h173.4V39.2H1381c-71.3,0-128.7,57.3-128.7,128.7s57.3,128.7,128.7,128.7
						h44.8c4.2,0,7,2.8,7,7C1432.7,307.7,1429.9,310.5,1427.1,310.5z"/>
					<path class="st2" d="M1381,162.3h174.8v-55.9H1381c-33.6,0-61.5,28-61.5,61.5s28,61.5,61.5,61.5h44.8
						c40.6,0,74.1,33.6,74.1,74.1s-33.6,74.1-74.1,74.1h-173.4v54.6h174.8c71.3,0,128.7-57.3,128.7-128.7s-57.3-128.7-128.7-128.7
						h-44.8c-4.2,0-7-2.8-7-7C1375.4,165.1,1378.2,162.3,1381,162.3z"/>
				</g>
				<g>
					<path class="st2" d="M2009,106.3c-23.8,0-42,18.2-42,42v174.8c0,23.8,18.2,42,42,42h113.3V242h-86.7v54.6h32.2v12.6h-32.2
						c-7,0-12.6-5.6-12.6-12.6V173.4c0-7,5.6-12.6,12.6-12.6h155.3v-54.6H2009z"/>
					<path class="st2" d="M2353.1,365.1h127.3l-86.7-257.4c-2.8-7-8.4-12.6-16.8-12.6c-7,0-14,5.6-16.8,11.2l-111.9,325.9h64.3
						l39.2-116.1v49H2353.1z M2375.5,247.6l18.2,55.9h-37.8L2375.5,247.6z"/>
					<path class="st2" d="M2460.8,96.5c-11.2-36.4-44.8-64.3-85.3-64.3c-40.6,0-74.1,26.6-83.9,62.9l-102.1,299.3V174.8h-153.9v54.6
						h100.7v148.3h-125.9c-30.8,0-54.6-25.2-54.6-54.6V148.3c0-30.8,25.2-54.6,54.6-54.6h180.4V39.2H2009
						c-60.1,0-109.1,49-109.1,109.1v174.8c0,60.1,49,109.1,109.1,109.1h225.2l113.3-328.7c4.2-12.6,15.4-21,29.4-21
						c14,0,25.2,8.4,29.4,21l92.3,274.2h-145.5v54.6h221l0,0L2460.8,96.5z"/>
				</g>
				<g>
					<path class="st2" d="M1691.5,377.7c-30.8,0-54.6-25.2-54.6-54.6V148.3c0-30.8,25.2-54.6,54.6-54.6h187.4V39.2h-187.4
						c-60.1,0-109.1,49-109.1,109.1v174.8c0,60.1,49,109.1,109.1,109.1h187.4v-54.6H1691.5z"/>
					<path class="st2" d="M1704.1,297.9h135.7v-54.6h-190.2v81.1c0,23.8,18.2,42,42,42h187.4v-54.6h-162.3
						C1709.7,310.5,1704.1,304.9,1704.1,297.9z"/>
					<path class="st2" d="M1839.8,174.8h-135.7c0-7,5.6-12.6,12.6-12.6h160.9v-55.9h-186c-23.8,0-42,18.2-42,42v81.1h190.2V174.8z"
						/>
				</g>
			</g>
		</g>
		<g>
			<path class="st1" d="M2541.2,0c-23.5,0-42.6,19-42.6,42.6s19,42.6,42.6,42.6c23.5,0,42.6-19,42.6-42.6S2564.7,0,2541.2,0z
				 M2541.2,80.3c-20.9,0-37.7-16.8-37.7-37.7s16.8-37.7,37.7-37.7c20.9,0,37.7,16.8,37.7,37.7S2562,80.3,2541.2,80.3z"/>
			<g>
				<path class="st1" d="M2524,18.3h14.3c10.8,0,22.3,1.4,22.3,13.4c0,7.1-5.3,11.7-14,12.8l15.9,22.3h-8.1L2539.3,45h-8.6v21.8
					h-6.6L2524,18.3L2524,18.3z M2530.6,39.7h5.9c7.3,0,16.8,0,16.8-8c0-7-7-8-13.4-8h-9.3L2530.6,39.7L2530.6,39.7z"/>
			</g>
		</g>
	</g>
</g>
</svg>
