<?xml version="1.0" encoding="utf-8"?>
<!-- Generator: Adobe Illustrator 25.4.1, SVG Export Plug-In . SVG Version: 6.00 Build 0)  -->
<svg version="1.1" id="Layer_1" xmlns="http://www.w3.org/2000/svg" xmlns:xlink="http://www.w3.org/1999/xlink" x="0px" y="0px"
	 viewBox="0 0 3839 1726.7" style="enable-background:new 0 0 3839 1726.7;" xml:space="preserve">
<style type="text/css">
	.st0{fill:#FFFFFF;}
	.st1{fill:#034693;}
</style>
<g>
	<g>
		<g>
			<g>
				<path class="st0" d="M1161.1,1716.9v-111.4H1057c-55.3,51.5-151.8,111.4-301.5,111.4H9.8v-504.3h63.3
					C11.1,1095,13.4,947.1,80,831.8c34.8-60.3,85.7-109.7,147-142.8c60.6-32.7,129-49.3,203.4-49.3h554h812
					c53.9,0,105.7,19.9,145.9,56c37.7,33.9,62.3,79.3,70,128.9h87.4v-21.4c0-90.1,73.3-163.4,163.5-163.4h400.3l214.7,279.8
					l214.7-280H3819l-826.1,1076.6H2565v-55.8c0-30.3-24.7-55-55-55h-789.6c-30.3,0-55,24.7-55,55v56.4L1161.1,1716.9L1161.1,1716.9
					z"/>
				<g>
					<path d="M3088.1,629.8l-209.8,273.5l-209.9-273.5h-405.1c-23.4,0-46.1,4.6-67.5,13.6c-20.6,8.7-39.2,21.2-55.1,37.1
						c-15.9,15.9-28.4,34.4-37.1,55.1c-9,21.4-13.6,44.1-13.6,67.5v11.6h-69.3c-9.4-48.5-34.4-92.9-71.6-126.4
						c-42.1-37.7-96.2-58.5-152.6-58.5h-812h-554c-76,0-146,17-208.1,50.4c-63,34-115.2,84.7-150.9,146.6
						C6,940.4,1.2,1084.7,57.2,1202.7H19.7H0v19.7V1707v19.7h19.7h735.9c69.3,0,133.5-12.6,191-37.5c42.3-18.3,80.7-43.2,114.3-73.9
						h90.4v91.7v19.7h19.7h484.6h19.7V1707v-46.6c0-24.9,20.2-45.1,45.1-45.1H2510c24.9,0,45.1,20.2,45.1,45.1v46v19.7h19.7H2988
						h9.7l5.9-7.7L3839,629.8H3088.1z M2988.1,1706.4h-413.2v-46c0-35.8-29-64.8-64.8-64.8h-789.6c-35.8,0-64.8,29-64.8,64.8v46.6
						H1171v-111.4h-117.8c-55.5,52.8-150.4,111.4-297.6,111.4H19.7v-484.6h70.2c-0.4-0.7-0.9-1.5-1.3-2.3
						c-67.2-116.5-67.2-267,0-383.5c33.9-58.7,83.4-106.8,143.2-139c59.1-31.9,126-48.1,198.7-48.1h554h812
						c107,0,195.5,81,207.3,184.9h105.9v-31.3c0-84.8,68.8-153.6,153.6-153.6h395.4l219.5,286.1l219.5-286.1h701.4L2988.1,1706.4z"
						/>
				</g>
			</g>
			<path d="M3138.2,731.4l-259.9,338.8l-259.9-338.8h-355c-39.6,0-71.7,32.1-71.7,71.7v113.2h-268.4v-58.2
				c0-70-56.7-126.7-126.7-126.7h-812h-554c-118.6,0-217.3,53.3-271,146.2c-52.9,91.6-52.9,210,0,301.6
				c33.8,58.6,85.7,101.5,149.1,125.1h-207v320.8h654c127.1,0,205.2-52.1,248.2-95.8c5-5.1,9.8-10.3,14.3-15.6H1253v111.4h320.8
				v-46.6c0-35.8,29-64.8,64.8-64.8h953.5c35.8,0,64.8,29,64.8,64.8v46h290.9L3633,731.4H3138.2z M2563.4,1270.8v-1.3l0.9,1.3
				H2563.4z"/>
			<rect x="1755.7" y="1131" class="st0" width="697.1" height="157"/>
			<path class="st0" d="M1796.5,813.3h-812v44.8c0-24.7-20-44.8-44.8-44.8H430.5c-305.3,0-305.3,430.2,0,430.2l0,0h325
				c95.1,0,95.1,142.7,0,142.7h-572v157h572c337.6,0,337.6-456.7,0-456.7h-325l0,0c-81.7,4.1-90.2-124.9,0-129l0,0h554h350.3v585.7
				h157V957.5h349.6v-99.4C1841.3,833.4,1821.3,813.3,1796.5,813.3z"/>
			<polygon class="st0" points="3219.2,813.3 2878.2,1257.7 2537.2,813.3 2289.5,813.3 2849.1,1542.6 2907.3,1542.6 3466.9,813.3 
							"/>
		</g>
	</g>
	<g>
		<g>
			<g>
				<path class="st0" d="M2570.8,95.5C2553.3,39.8,2500.7,0,2440.2,0s-113.1,39.8-130.6,95.5l-46.2,136.9V8h-242
					c-43,0-82.8,17.5-113.1,46.2V8h-248.4c-46.2,0-87.6,19.1-117.8,51V8h-235.7c-100.3,0-183.1,82.8-183.1,183.1
					c0,47.8,19.1,92.4,49.4,124.2h-49.4v213.4H1359c66.9,0,124.2-35,157.6-89.2c27.1,52.5,81.2,89.2,144.9,89.2h250v-46.2
					c28.7,28.7,68.5,46.2,113.1,46.2h691.1L2570.8,95.5z"/>
				<g>
					<g>
						<path class="st1" d="M1359,353.5h-199.1v62.1H1359c38.2,0,70.1-31.8,70.1-70.1s-31.8-70.1-70.1-70.1h-51
							c-46.2,0-84.4-38.2-84.4-84.4s38.2-84.4,84.4-84.4h197.5v-62h-199.1c-81.2,0-146.5,65.3-146.5,146.5s65.3,146.5,146.5,146.5
							h51c4.8,0,8,3.2,8,8C1365.3,350.3,1362.2,353.5,1359,353.5z"/>
						<path class="st1" d="M1306.4,184.7h199.1V121h-199.1c-38.2,0-70.1,31.8-70.1,70.1s31.8,70.1,70.1,70.1h51
							c46.2,0,84.4,38.2,84.4,84.4s-38.2,84.4-84.4,84.4h-197.5v62.1H1359c81.2,0,146.5-65.3,146.5-146.5s-65.3-146.5-146.5-146.5
							h-51c-4.8,0-8-3.2-8-8C1300.1,187.9,1303.2,184.7,1306.4,184.7z"/>
					</g>
					<g>
						<path class="st1" d="M2021.4,121c-27.1,0-47.8,20.7-47.8,47.8v199.1c0,27.1,20.7,47.8,47.8,47.8h129V275.5h-98.7v62.1h36.6
							v14.3h-36.6c-8,0-14.3-6.4-14.3-14.3V197.5c0-8,6.4-14.3,14.3-14.3h176.8V121H2021.4z"/>
						<path class="st1" d="M2413.1,415.6H2558l-98.7-293c-3.2-8-9.6-14.3-19.1-14.3c-8,0-15.9,6.4-19.1,12.7l-127.4,371h73.3
							l44.6-132.2v55.7h1.5V415.6z M2438.6,281.9l20.7,63.7h-43L2438.6,281.9z"/>
						<path class="st1" d="M2535.8,109.9c-12.7-41.4-51-73.3-97.1-73.3c-46.2,0-84.4,30.3-95.5,71.7L2227,449.1v-250h-175.2v62.1
							h114.7V430H2023c-35,0-62.1-28.7-62.1-62.1V168.8c0-35,28.7-62.1,62.1-62.1h205.4V44.6h-207c-68.5,0-124.2,55.7-124.2,124.2
							v199.1c0,68.5,55.7,124.2,124.2,124.2h256.4l129-374.2c4.8-14.3,17.5-23.9,33.4-23.9s28.7,9.6,33.4,23.9L2578.8,430h-165.6
							v62.1h251.6l0,0L2535.8,109.9z"/>
					</g>
					<g>
						<path class="st1" d="M1659.9,430c-35,0-62.1-28.7-62.1-62.1V168.8c0-35,28.7-62.1,62.1-62.1h213.4V44.6h-213.4
							c-68.5,0-124.2,55.7-124.2,124.2v199.1c0,68.5,55.7,124.2,124.2,124.2h213.4V430H1659.9z"/>
						<path class="st1" d="M1674.3,339.2h154.5v-62.1h-216.6v92.4c0,27.1,20.7,47.8,47.8,47.8h213.4v-62.1h-184.7
							C1680.6,353.5,1674.3,347.1,1674.3,339.2z"/>
						<path class="st1" d="M1828.7,199.1h-154.5c0-8,6.4-14.3,14.3-14.3h183.1V121h-211.8c-27.1,0-47.8,20.7-47.8,47.8v92.4h216.6
							C1828.7,261.2,1828.7,199.1,1828.7,199.1z"/>
					</g>
				</g>
			</g>
		</g>
	</g>
</g>
</svg>
