<?xml version="1.0" encoding="utf-8"?>
<!-- Generator: Adobe Illustrator 25.4.1, SVG Export Plug-In . SVG Version: 6.00 Build 0)  -->
<svg version="1.1" id="Layer_1" xmlns="http://www.w3.org/2000/svg" xmlns:xlink="http://www.w3.org/1999/xlink" x="0px" y="0px"
	 viewBox="0 0 3839 834.6" style="enable-background:new 0 0 3839 834.6;" xml:space="preserve">
<style type="text/css">
	.st0{fill:#FFFFFF;}
	.st1{fill:#034693;}
	.st2{fill:url(#SVGID_00000022558356825652435630000009772214047453834409_);}
	.st3{fill:url(#SVGID_00000148625576047795872530000014563660615160027581_);}
	.st4{fill:url(#SVGID_00000014594784449817461010000014357039872891527082_);}
	.st5{fill:url(#SVGID_00000035506208780124053000000002398317368994876840_);}
	.st6{fill:url(#SVGID_00000007387397334880430030000012660789564764896930_);}
	.st7{fill:url(#SVGID_00000179620430132684940610000004947374094463129240_);}
	.st8{fill:url(#SVGID_00000107563214478512743670000009571449580522368909_);}
	.st9{fill:url(#SVGID_00000054965046203682769000000000735427122568628148_);}
	.st10{fill:url(#SVGID_00000181078454854960885180000016170363614250841251_);}
	.st11{fill:url(#SVGID_00000160870848269687453680000015926479399295751840_);}
	.st12{fill:url(#SVGID_00000117634152250667835020000002385837487173023913_);}
	.st13{clip-path:url(#SVGID_00000104683466809534705370000006589205984328503474_);}
	.st14{fill:url(#SVGID_00000007429736841873435480000003626312712240533413_);}
	.st15{fill:url(#SVGID_00000124881704586443048560000014048387872104444812_);}
	.st16{fill:url(#SVGID_00000141437154247413449360000003831743220039246724_);}
	.st17{fill:url(#SVGID_00000058556390848332142630000011985387773464124324_);}
	.st18{fill:url(#SVGID_00000163050418017903064080000004172484588474900113_);}
	.st19{fill:url(#SVGID_00000010285679288290392410000017065267157360349569_);}
	.st20{fill:url(#SVGID_00000121279912349035132340000011655706833638667932_);}
	.st21{fill:none;}
	.st22{clip-path:url(#SVGID_00000169556253044912757340000006979365125386480318_);}
	.st23{fill:url(#SVGID_00000146462761368471268990000017800607027910301852_);}
	.st24{fill:url(#SVGID_00000091016304046507724700000000119486829264491150_);}
	.st25{fill:url(#SVGID_00000121279137308546800690000012091056110586013359_);}
	.st26{fill:url(#SVGID_00000149384119118235259810000009658606941849478842_);}
	.st27{fill:url(#SVGID_00000150096682721177492250000000981404714897050545_);}
	.st28{fill:url(#SVGID_00000044138049782433358900000018334878203898380199_);}
	.st29{fill:url(#SVGID_00000035493867918574821170000003053984323842916251_);}
	.st30{fill:url(#SVGID_00000054960722794973094090000017433442835874758553_);}
	.st31{fill:url(#SVGID_00000067200612113888720010000007139989837476248222_);}
	.st32{fill:url(#SVGID_00000003816807228176220080000015450385286000817582_);}
	.st33{fill:url(#SVGID_00000114072484442802953620000005734037494580726934_);}
	.st34{fill:url(#SVGID_00000034091528634629204940000007192884197644006061_);}
	.st35{clip-path:url(#SVGID_00000124137593471942561220000014099601252258001581_);}
	.st36{fill:url(#SVGID_00000009558902766694115080000000890782739272729018_);}
	.st37{fill:url(#SVGID_00000085209680958055157730000016721972911419072929_);}
	.st38{fill:url(#SVGID_00000036249651370865320160000015435297593157922969_);}
	.st39{fill:url(#SVGID_00000118391116863085561930000002066111493996692114_);}
	.st40{fill:url(#SVGID_00000078037679836678630950000013077885421724483246_);}
	.st41{fill:url(#SVGID_00000016780621077705812140000001589246648759883918_);}
	.st42{fill:url(#SVGID_00000039846715837734509970000001602720814290005144_);}
	.st43{clip-path:url(#SVGID_00000080901829976429329020000005831311011122689933_);}
	.st44{fill:url(#SVGID_00000070833040416392103550000000984156397399081899_);}
	.st45{fill:url(#SVGID_00000047036042079125341280000005680235237261605543_);}
	.st46{fill:url(#SVGID_00000066477731573114607220000008322052327711590311_);}
	.st47{fill:url(#SVGID_00000001649080961194482110000010900646737036570778_);}
	.st48{fill:url(#SVGID_00000066494650314620918010000017687639077085324221_);}
	.st49{fill:url(#SVGID_00000049214258551497326430000007606819687755497910_);}
	.st50{fill:url(#SVGID_00000125580314714276517190000015538436974201670811_);}
	.st51{fill:url(#SVGID_00000067952386281265083470000001846170284041208227_);}
	.st52{fill:url(#SVGID_00000125577957563226777910000015701460576002437041_);}
	.st53{fill:url(#SVGID_00000096760527443185940260000017677770101939884957_);}
	.st54{fill:url(#SVGID_00000165198188552345678450000013461318800467785117_);}
	.st55{fill:url(#SVGID_00000042016756921593937670000015819700158225791635_);}
	.st56{clip-path:url(#SVGID_00000067931701362446635670000005446921841626129060_);}
	.st57{fill:url(#SVGID_00000057120465721999598410000018238547876013275568_);}
	.st58{fill:url(#SVGID_00000004534356719525660340000018126894977482769045_);}
	.st59{fill:url(#SVGID_00000007419786127909698680000000379963260518267296_);}
	.st60{fill:url(#SVGID_00000058566502224783216070000009594518958350712253_);}
	.st61{fill:url(#SVGID_00000178911483621473713630000000127184457624481687_);}
	.st62{fill:url(#SVGID_00000016765565214173658340000016950202193704671659_);}
	.st63{fill:url(#SVGID_00000048468624297175027280000016127570065443995567_);}
	.st64{clip-path:url(#SVGID_00000154421005029409599780000012000381886733886646_);}
	.st65{fill:url(#SVGID_00000141417943806309093200000017735207237743079309_);}
	.st66{fill:url(#SVGID_00000125586606499334042240000000627526053973453698_);}
	.st67{fill:url(#SVGID_00000060013081936924759870000008745968973858015910_);}
	.st68{fill:url(#SVGID_00000067934354547455893590000006584758310462470297_);}
	.st69{fill:url(#SVGID_00000001646671522197074490000018155202970199297671_);}
	.st70{fill:url(#SVGID_00000096777979625537075960000003593803533087113653_);}
	.st71{fill:url(#SVGID_00000001641581033513490610000008642281135183480212_);}
	.st72{fill:url(#SVGID_00000002369651844593387240000001024443125748282557_);}
	.st73{fill:url(#SVGID_00000042730647441837162460000005508353434824665734_);}
	.st74{fill:url(#SVGID_00000161602478424314253100000011071839728275906975_);}
	.st75{fill:url(#SVGID_00000176724594813216388900000007066786922664563340_);}
	.st76{fill:url(#SVGID_00000165937869486590381470000003839254721989998210_);}
	.st77{fill:url(#SVGID_00000106840645884724589060000008362729420065336732_);}
	.st78{fill:url(#SVGID_00000144340111655019658680000011087783705882023571_);}
	.st79{fill:url(#SVGID_00000073682444297235723840000002817298199457901726_);}
	.st80{fill:url(#SVGID_00000142172658352488279640000007532552022310541988_);}
	.st81{fill:url(#SVGID_00000050624954055073510800000015020331898388757913_);}
	.st82{fill:url(#SVGID_00000183941681751642222160000002558835012001027225_);}
	.st83{fill:url(#SVGID_00000072986368000578984970000013780836610322784387_);}
	.st84{fill:url(#SVGID_00000121982164376807137190000002473645853245237166_);}
	.st85{fill:url(#SVGID_00000064336810423325586270000013960042526156422560_);}
	.st86{fill:url(#SVGID_00000045607318217733204760000016782710193480809140_);}
	.st87{fill:url(#SVGID_00000172413462486030994520000016047582103869131437_);}
	.st88{fill:url(#SVGID_00000003812891762787070060000017484087942497845677_);}
	.st89{fill:url(#SVGID_00000063620772868612657720000000861830983272578181_);}
	.st90{fill:url(#SVGID_00000103981354984851138280000003861441274939278478_);}
	.st91{fill:url(#SVGID_00000166643775194838278340000001940231867802541502_);}
	.st92{clip-path:url(#SVGID_00000047758828767546945420000009384175213062638224_);}
	.st93{fill:url(#SVGID_00000124868322988783519110000005680605291708115586_);}
	.st94{fill:url(#SVGID_00000002366506785782329570000010633866149650912692_);}
	.st95{fill:url(#SVGID_00000141429265528735699980000000989482694234140819_);}
	.st96{fill:url(#SVGID_00000032609247726850251220000000341378082461266823_);}
	.st97{fill:url(#SVGID_00000111871983059268003040000011295986774776342164_);}
	.st98{fill:url(#SVGID_00000103239566931643866230000006000815210742797696_);}
	.st99{fill:url(#SVGID_00000127023712008878487420000008892803739639310727_);}
	.st100{clip-path:url(#SVGID_00000044146450670330510530000000897322667349172110_);}
	.st101{fill:url(#SVGID_00000162328474388900200390000014510257949167364225_);}
	.st102{fill:url(#SVGID_00000099621142497380675060000007208765904780619192_);}
	.st103{fill:url(#SVGID_00000064325982128663285020000002574163068241022382_);}
	.st104{fill:url(#SVGID_00000031200694804367932070000001827356364416702854_);}
	.st105{fill:url(#SVGID_00000081637922892083206290000005160851827355531172_);}
	.st106{fill:url(#SVGID_00000086652978126143742150000008768244771023541162_);}
	.st107{fill:url(#SVGID_00000101098562532285257940000001503139352969248152_);}
	.st108{fill:url(#SVGID_00000117641593346913892110000007708918032756289409_);}
	.st109{fill:url(#SVGID_00000175312202248210652850000015650094060127389590_);}
	.st110{fill:url(#SVGID_00000078731992118021815330000011166652068821483967_);}
	.st111{fill:url(#SVGID_00000088130504711876131620000009313993035202769801_);}
	.st112{fill:url(#SVGID_00000138546008283281160590000002624701433901564808_);}
	.st113{fill:url(#SVGID_00000049203211019406763770000018386323434944863676_);}
	.st114{fill:url(#SVGID_00000017494971654404496990000013206008780805107121_);}
	.st115{fill:url(#SVGID_00000133501535188628887720000009740845155132652938_);}
	.st116{clip-path:url(#SVGID_00000012445367718690380780000007453757080561266866_);}
	.st117{fill:url(#SVGID_00000176735396332027114660000016658419322037824397_);}
	.st118{fill:url(#SVGID_00000129913756691528721460000000629488167370229412_);}
	.st119{fill:url(#SVGID_00000057145071001716012380000008406400039687492789_);}
	.st120{fill:url(#SVGID_00000130620578879717488050000015253484155981210028_);}
	.st121{fill:url(#SVGID_00000127040229558606789050000010346071451189735585_);}
	.st122{fill:url(#SVGID_00000160900077040629359430000010638436698149515410_);}
	.st123{fill:url(#SVGID_00000172409809879615512650000017961345612588989102_);}
	.st124{clip-path:url(#SVGID_00000022525719410270648710000013833137475891962814_);}
	.st125{fill:url(#SVGID_00000117644251040347772260000012435704243723828649_);}
	.st126{fill:url(#SVGID_00000121260549788744546130000009715509979553850274_);}
	.st127{fill:url(#SVGID_00000076592160173780083720000013419078634267358102_);}
	.st128{fill:url(#SVGID_00000072279179557850266260000013609726509012223912_);}
	.st129{fill:url(#SVGID_00000135661080630985233020000009592700857399060107_);}
	.st130{fill:url(#SVGID_00000103264827346728662350000012990425628517891726_);}
	.st131{fill:url(#SVGID_00000049203678097254195090000004918154394914799505_);}
	.st132{clip-path:url(#SVGID_00000026860900505463677610000013552646036862722453_);}
	.st133{fill:url(#SVGID_00000145750634385916478820000011215365409712716965_);}
	.st134{fill:url(#SVGID_00000127044960238655207560000002618860437631330957_);}
	.st135{fill:url(#SVGID_00000151516274128936844730000009735565433588596865_);}
	.st136{fill:url(#SVGID_00000045590044254641549400000012133210214357203858_);}
	.st137{fill:url(#SVGID_00000020376997045247606190000011988027691940116137_);}
	.st138{fill:url(#SVGID_00000054252659259944670110000014355225210559313796_);}
	.st139{fill:url(#SVGID_00000151533130685616613090000011773902576712011398_);}
	.st140{clip-path:url(#SVGID_00000039833835624275229400000013411350637180265398_);}
	.st141{fill:url(#SVGID_00000056423855455296682740000010090214312498034615_);}
	.st142{fill:url(#SVGID_00000043442096005025333530000014054100715772251069_);}
	.st143{fill:url(#SVGID_00000060021014629645565950000000735209615581930412_);}
	.st144{fill:url(#SVGID_00000005988956701024575260000005086619093546227638_);}
	.st145{fill:url(#SVGID_00000009580677061467817620000005889896879272568452_);}
	.st146{fill:url(#SVGID_00000008108891077153302110000006670581724707510144_);}
	.st147{fill:url(#SVGID_00000160189735636182856400000012380055204146369675_);}
	.st148{clip-path:url(#SVGID_00000091705836540476077180000017412362524295362994_);}
	.st149{fill:url(#SVGID_00000152243727499447790660000004435694672136230043_);}
	.st150{fill:url(#SVGID_00000016066104534137988270000011697195401385185467_);}
	.st151{fill:url(#SVGID_00000069392455885322658590000004336851015762713782_);}
	.st152{fill:url(#SVGID_00000067229052638054201570000002447721350163843203_);}
	.st153{fill:url(#SVGID_00000181785353758268365410000004460134528361395128_);}
	.st154{fill:url(#SVGID_00000042697600877628609380000002530972567338298792_);}
	.st155{fill:url(#SVGID_00000163758295672157620950000006121444086493904529_);}
	.st156{clip-path:url(#SVGID_00000173155215236224204970000018018033299324379296_);}
	.st157{fill:url(#SVGID_00000135658380457148112120000008184441197895814077_);}
	.st158{fill:url(#SVGID_00000043459365327467085970000013044161120920007064_);}
	.st159{fill:url(#SVGID_00000169526669678197514090000008587034729711927446_);}
	.st160{fill:url(#SVGID_00000159457466734286880980000006548646348118428081_);}
	.st161{fill:url(#SVGID_00000158027455639601066240000015984087514698637186_);}
	.st162{fill:url(#SVGID_00000076592195869545400050000002106785578720185486_);}
	.st163{fill:url(#SVGID_00000119831339903032189830000002903667667870957462_);}
	.st164{fill:url(#SVGID_00000091728674155737216090000009412038167925559205_);}
	.st165{fill:url(#SVGID_00000054231775609475201400000018016327614085257862_);}
	.st166{fill:url(#SVGID_00000043453311770489028600000000730252833717072571_);}
	.st167{fill:url(#SVGID_00000176760683176911577190000001887821706512771246_);}
	.st168{fill:url(#SVGID_00000093159868820433015320000016289427706091503503_);}
	.st169{fill:url(#SVGID_00000068673080411317814500000007280926826301509788_);}
	.st170{fill:url(#SVGID_00000181070458178923045090000011202068761924099490_);}
	.st171{clip-path:url(#SVGID_00000151537629551224394770000008989943407128730555_);}
	.st172{fill:url(#SVGID_00000023273916319018818020000010252219045312902059_);}
	.st173{fill:url(#SVGID_00000039820438030427352690000004784643879837736346_);}
	.st174{fill:url(#SVGID_00000126287732659081822210000004693095995019828141_);}
	.st175{fill:url(#SVGID_00000174602201898515355790000013116142778523844285_);}
	.st176{fill:url(#SVGID_00000152944789373816627770000014035491635029053056_);}
	.st177{fill:url(#SVGID_00000176730163700687537820000014908261884147100349_);}
	.st178{fill:url(#SVGID_00000092414358009054670230000003354663552792708777_);}
	.st179{clip-path:url(#SVGID_00000109725180764008915440000011831837959069752964_);}
	.st180{fill:url(#SVGID_00000038404002592640101480000016975419991914714507_);}
	.st181{fill:url(#SVGID_00000181797626213935759600000012120114754201697705_);}
	.st182{fill:url(#SVGID_00000178914493805824326740000003949665664041282473_);}
	.st183{fill:url(#SVGID_00000146475550903757740580000005635684923518022845_);}
	.st184{fill:url(#SVGID_00000152978725704674875590000010345722819544317835_);}
	.st185{fill:url(#SVGID_00000084488724290176803990000004846634661661876897_);}
	.st186{fill:url(#SVGID_00000135665843467769168730000001656943498265764770_);}
	.st187{fill:url(#SVGID_00000134942271161229215040000006611766724941709500_);}
	.st188{fill:url(#SVGID_00000089573010222816035110000003961493634238797476_);}
	.st189{fill:url(#SVGID_00000071527411019780030570000016414349458407623865_);}
	.st190{fill:url(#SVGID_00000116948076229480157260000000137264108146672015_);}
	.st191{fill:url(#SVGID_00000108279937586835330190000011437424670222579854_);}
	.st192{clip-path:url(#SVGID_00000129167067026811773630000011494868473206493359_);}
	.st193{fill:url(#SVGID_00000041255709195431198560000010009380783014471309_);}
	.st194{fill:url(#SVGID_00000085970217516996483340000000198261677286582162_);}
	.st195{fill:url(#SVGID_00000004509261957019684190000014965745364549403274_);}
	.st196{fill:url(#SVGID_00000010272450396034006880000002152061960320706722_);}
	.st197{fill:url(#SVGID_00000094583838766672141840000016159136327970834314_);}
	.st198{fill:url(#SVGID_00000124852683824544917830000014553929420327426955_);}
	.st199{fill:url(#SVGID_00000062879406440410974200000003929107491666277295_);}
	.st200{clip-path:url(#SVGID_00000182525989012254903810000000674251911031915692_);}
	.st201{fill:url(#SVGID_00000145777408331059013220000016472781034131911332_);}
	.st202{fill:url(#SVGID_00000153678198221443718720000002366775043478316197_);}
	.st203{fill:url(#SVGID_00000093858110066375418110000001280435850546546614_);}
	.st204{fill:url(#SVGID_00000068671154878372263810000006302968037481414079_);}
	.st205{fill:url(#SVGID_00000049180735679095875060000011080190443926705853_);}
	.st206{fill:url(#SVGID_00000065787198931397316900000009889388464323995817_);}
	.st207{fill:url(#SVGID_00000142145803283471425080000000719705913472225722_);}
	.st208{fill:url(#SVGID_00000106867390176700169170000017926519391287255966_);}
	.st209{fill:url(#SVGID_00000011738618553537636900000004061303698890474674_);}
	.st210{fill:url(#SVGID_00000173142678798573759800000013210718454745410446_);}
</style>
<g>
	
		<linearGradient id="SVGID_00000150065104163708175070000016221679320409929864_" gradientUnits="userSpaceOnUse" x1="3411.5237" y1="38.3824" x2="3411.5237" y2="796.1833">
		<stop  offset="0" style="stop-color:#23BFD4"/>
		<stop  offset="0.7031" style="stop-color:#3F4DA0"/>
	</linearGradient>
	<path style="fill:url(#SVGID_00000150065104163708175070000016221679320409929864_);" d="M3800.6,562.9c0,32.4-5.9,63-17.8,91.5
		c-11.8,28.6-27.7,53.3-47.5,74.2c-19.8,20.9-42.7,37.3-68.7,49.4c-26,12.1-52.9,18.2-80.7,18.2H3206V693.4h367.5
		c19.6,0,37.1-3.9,52.5-11.6c15.5-7.7,28.5-17.8,39-30.1c10.6-12.4,18.7-26.4,24.3-42.1c5.7-15.7,8.5-31.3,8.5-46.7V271.7
		c0-15.4-2.8-31-8.5-46.7c-5.7-15.7-13.8-29.7-24.3-42.1c-10.6-12.4-23.6-22.4-39-30.1c-15.5-7.7-33-11.6-52.5-11.6h-551.1V38.4
		h563.5c27.8,0,54.7,6.1,80.7,18.2c26,12.1,48.9,28.6,68.7,49.4c19.8,20.9,35.7,45.6,47.5,74.2c11.9,28.6,17.8,59.1,17.8,91.5V562.9
		z M3351.8,404.5v-102h224v-10.8c0-6.2-1.7-11.1-5-14.7c-3.3-3.6-6.6-5.4-9.7-5.4h-538.7V168.9h541.1c18,0,33.7,3.6,47.1,10.8
		c13.4,7.2,24.5,16.5,33.2,27.8c8.8,11.3,15.3,24.1,19.7,38.2c4.4,14.2,6.6,27.9,6.6,41.3v117.4H3351.8z M3670.1,547.4
		c0,13.4-2.2,27.2-6.6,41.3c-4.4,14.2-10.9,26.9-19.7,38.2c-8.7,11.3-19.8,20.6-33.2,27.8c-13.4,7.2-29.1,10.8-47.1,10.8H3206V562.9
		h355.2c3.1,0,6.3-1.8,9.7-5.4c3.4-3.6,5-8.5,5-14.7v-10h-224V430h318.3V547.4z"/>
	<path class="st0" d="M3818.3,165.4c-13.6-32.8-32.2-61.7-55.1-85.9c-23-24.3-50.1-43.7-80.4-57.8c-31-14.4-63.6-21.7-96.9-21.7
		L2388.2,0c-33.3,0-65.9,7.3-96.9,21.7c-30.3,14.1-57.3,33.5-80.4,57.8c-23,24.2-41.6,53.1-55.1,85.9c-0.7,1.8-1.4,3.6-2.1,5.3
		c-1.3-6.2-2.7-12.2-4.3-17.9c-9.9-35.5-25.9-65.2-47.7-88.3c-22.1-23.4-50.2-40.4-83.5-50.5c-30.6-9.3-66.9-14-108.1-14h-297.4
		c-21.2,0-38.4,17.2-38.4,38.4v84.5c-9.5-22.5-21.9-42.1-37.2-58.4c-22.1-23.4-50.2-40.4-83.5-50.5c-30.6-9.3-66.9-14-108.1-14
		h-98.9c-40.7,0-76.7,4.7-107.1,14.1c-33,10.1-61,27.1-83.2,50.3c-22,23-38.4,52.7-48.6,88.2c-9.4,32.9-14.2,73-14.2,119.1V512
		L851,110.1c-4.7-14.1-11.7-27.8-20.6-40.6c-9.1-13.1-20.2-24.9-33.2-35.2C783.8,23.5,768,15,750.2,9c-17.6-6-37.2-9-58.3-9
		c-21.9,0-41.6,3.1-58.6,9.2C616.2,15.4,601,24,588.1,34.8C576,45,565.3,56.6,556.4,69.4c-3.6,5.1-7,10.4-10.3,15.7
		c-3.2-5.3-6.5-10.6-10.1-15.7c-8.9-12.9-19.8-24.7-32.4-34.9c-13.1-10.7-28.3-19.2-45.2-25.3c-17-6.1-36.7-9.2-58.6-9.2
		c-21.7,0-41.5,3-58.9,9.1c-17.4,6-33.1,14.5-46.5,25.2c-13.1,10.5-24.3,22.5-33.1,35.8c-8.3,12.4-15.1,25.5-20.2,38.9
		c-0.1,0.3-239,674.4-239,674.4c-4.2,11.7-2.4,24.8,4.8,35c7.2,10.2,18.9,16.2,31.3,16.2h233.3c16.6,0,31.3-10.6,36.4-26.4
		l94.1-285.8L510,809.6c5.6,15,19.9,24.9,35.9,24.9c16,0,30.3-9.9,35.9-24.9l108.3-288.7l97.6,287.6c5.3,15.6,19.9,26,36.3,26h229.4
		c12.5,0,24.1-6,31.3-16.2c4.4-6.2,6.7-13.5,7-20.9c14.3,9.1,30,16.5,47.1,22.1c30.5,10,66.7,15,107.7,15h98.9
		c41.5,0,78.1-5,108.8-15c33.2-10.7,61.2-28.1,83.1-51.7c15.2-16.4,27.6-36,37.1-58.5v86.8c0,21.2,17.2,38.4,38.4,38.4h297.4
		c41.5,0,78.1-5,108.8-15c33.2-10.7,61.2-28.1,83.1-51.7c21.7-23.3,37.6-53,47.5-88.5c1.5-5.3,2.8-10.8,4-16.4
		c0.8,2,1.5,4.1,2.4,6.1c13.6,32.8,32.2,61.7,55.1,85.9c23.1,24.3,50.1,43.7,80.4,57.8c31,14.4,63.6,21.7,96.9,21.7H2681
		c21.2,0,38.4-17.2,38.4-38.4v-83.7v-19.1v-16.3c13.2,29.5,30.5,55.7,51.6,77.9c23.1,24.3,50.1,43.7,80.4,57.8
		c31,14.4,63.6,21.7,96.9,21.7h257.5c0.1,0,0.2,0,0.2,0h379.9c33.3,0,65.9-7.3,96.9-21.7c30.3-14.1,57.3-33.5,80.4-57.8
		c23-24.2,41.6-53.1,55.1-85.9c13.7-33.1,20.7-68.8,20.7-106.2V271.7C3839,234.3,3832,198.5,3818.3,165.4z M2660.7,524.5
		c0-0.2,0-115.5,0-120V310h7.2h13.2h14.2v214.5H2660.7z M3313.5,404.5c0,4.5,0,120,0,120h-72.2c-0.1,0-0.2,0-0.2,0h-232.8V307.3
		c4.4,1.7,9.2,2.7,14.2,2.7h291V404.5z"/>
	
		<linearGradient id="SVGID_00000041996445479824569420000002811064675546325633_" gradientUnits="userSpaceOnUse" x1="545.8885" y1="38.3717" x2="545.8885" y2="796.1726">
		<stop  offset="0" style="stop-color:#23BFD4"/>
		<stop  offset="0.7031" style="stop-color:#3F4DA0"/>
	</linearGradient>
	<path style="fill:url(#SVGID_00000041996445479824569420000002811064675546325633_);" d="M545.9,457.1L435.4,161.2
		c-2.1-5.1-6.4-9.8-13.1-13.9c-6.7-4.1-14.2-6.2-22.4-6.2c-7.2,0-14.7,2.1-22.4,6.2c-7.7,4.1-12.4,8.8-13.9,13.9l-222.5,635H38.4
		l238.7-673.6c4.1-10.8,9.5-21.2,16.2-31.3c6.7-10,15.1-19,25.1-27c10-8,21.8-14.3,35.1-18.9c13.4-4.6,28.8-7,46.3-7
		c17.5,0,32.7,2.3,45.6,7c12.9,4.6,24.2,10.9,34,18.9c9.8,8,18.2,17,25.1,27c7,10,13,20.5,18.2,31.3l23.2,46.3l23.2-46.3
		c5.7-10.8,12-21.2,18.9-31.3c7-10,15.2-19,24.7-27c9.5-8,20.7-14.3,33.6-18.9c12.9-4.6,28.1-7,45.6-7c17,0,32.3,2.3,46,7
		c13.6,4.6,25.5,10.9,35.5,18.9c10,8,18.5,17,25.5,27c7,10,12.2,20.5,15.8,31.3l238.7,673.6H950.7l-222.5-635
		c-1.5-5.1-6.2-9.8-13.9-13.9c-7.7-4.1-15.2-6.2-22.4-6.2c-8.2,0-15.7,2.1-22.4,6.2c-6.7,4.1-11.1,8.8-13.1,13.9L545.9,457.1z
		 M545.9,796.2l-146-389.3L271.7,796.2H168.9l211.7-615.7c1-3.1,3.6-5.8,7.7-8.1c4.1-2.3,8-3.5,11.6-3.5c3.6,0,7.3,1.2,11.2,3.5
		c3.9,2.3,6.3,5,7.3,8.1L545.9,532l127.5-351.5c1-3.1,3.5-5.8,7.3-8.1c3.9-2.3,7.6-3.5,11.2-3.5c3.6,0,7.5,1.2,11.6,3.5
		c4.1,2.3,6.7,5,7.7,8.1l211.7,615.7H824L691.9,406.8L545.9,796.2z"/>
	
		<linearGradient id="SVGID_00000124883483633360213140000007928947791382770860_" gradientUnits="userSpaceOnUse" x1="1295.9564" y1="38.3717" x2="1295.9564" y2="796.1726">
		<stop  offset="0" style="stop-color:#23BFD4"/>
		<stop  offset="0.7031" style="stop-color:#3F4DA0"/>
	</linearGradient>
	<path style="fill:url(#SVGID_00000124883483633360213140000007928947791382770860_);" d="M1150.7,783
		c-26.8-8.8-49.1-22.5-66.8-41.3c-17.8-18.8-30.9-43-39.4-72.6c-8.5-29.6-12.7-65-12.7-106.2V271.7c0-42.7,4.2-78.9,12.7-108.5
		c8.5-29.6,21.6-53.7,39.4-72.2c17.8-18.5,40-31.9,66.8-40.2c26.8-8.2,58.7-12.4,95.8-12.4h98.9c37.6,0,69.9,4.1,96.9,12.4
		c27,8.2,49.3,21.6,66.8,40.2c17.5,18.5,30.4,42.6,38.6,72.2c8.2,29.6,12.4,65.8,12.4,108.5v291.2c0,41.2-4.1,76.6-12.4,106.2
		c-8.2,29.6-21.1,53.8-38.6,72.6c-17.5,18.8-39.8,32.6-66.8,41.3c-27,8.8-59.4,13.1-96.9,13.1h-98.9
		C1209.4,796.2,1177.5,791.8,1150.7,783z M1356.2,693.4c19.6,0,36-2.7,49.4-8.1c13.4-5.4,24.3-13,32.8-22.8
		c8.5-9.8,14.7-21.4,18.5-34.8c3.9-13.4,5.8-27.8,5.8-43.3V250c0-15.4-1.9-29.9-5.8-43.3c-3.9-13.4-10-25-18.5-34.8
		c-8.5-9.8-19.6-17.4-33.2-22.8c-13.7-5.4-30.3-8.1-49.8-8.1h-119c-19.6,0-36.2,2.7-49.8,8.1c-13.7,5.4-24.7,13-33.2,22.8
		c-8.5,9.8-14.7,21.4-18.5,34.8c-3.9,13.4-5.8,27.8-5.8,43.3v334.5c0,15.4,1.9,29.9,5.8,43.3c3.9,13.4,10,25,18.5,34.8
		c8.5,9.8,19.4,17.4,32.8,22.8c13.4,5.4,29.9,8.1,49.4,8.1h60.3H1356.2z M1245.7,665.6c-18,0-32.8-1.7-44.4-5
		c-11.6-3.3-20.6-8.9-27-16.6c-6.4-7.7-10.9-17.6-13.5-29.7c-2.6-12.1-3.9-27.2-3.9-45.2V265.5c0-13.4,1.3-26,3.9-37.9
		c2.6-11.8,7.2-22.1,13.9-30.9c6.7-8.8,15.8-15.6,27.4-20.5c11.6-4.9,26.4-7.3,44.4-7.3h49.4h49.4c18,0,32.8,2.5,44.4,7.3
		c11.6,4.9,20.7,11.7,27.4,20.5c6.7,8.8,11.3,19.1,13.9,30.9c2.6,11.9,3.9,24.5,3.9,37.9v303.6c0,18-1.3,33.1-3.9,45.2
		c-2.6,12.1-7.1,22-13.5,29.7c-6.4,7.7-15.4,13.3-27,16.6c-11.6,3.4-26.4,5-44.4,5H1245.7z M1320.7,562.9c6.2,0,10.2-1.8,12-5.4
		c1.8-3.6,2.7-8.5,2.7-14.7V291.7c0-6.2-0.9-11.1-2.7-14.7c-1.8-3.6-5.8-5.4-12-5.4h-49.4c-6.2,0-10.2,1.8-12,5.4
		c-1.8,3.6-2.7,8.5-2.7,14.7v251.1c0,6.2,0.9,11.1,2.7,14.7c1.8,3.6,5.8,5.4,12,5.4H1320.7z"/>
	
		<linearGradient id="SVGID_00000076577605130271948370000005743885434646835087_" gradientUnits="userSpaceOnUse" x1="1868.7395" y1="38.3717" x2="1868.7395" y2="796.1726">
		<stop  offset="0" style="stop-color:#23BFD4"/>
		<stop  offset="0.7031" style="stop-color:#3F4DA0"/>
	</linearGradient>
	<path style="fill:url(#SVGID_00000076577605130271948370000005743885434646835087_);" d="M1970.3,685.3c13.4-5.4,24.3-13,32.8-22.8
		c8.5-9.8,14.7-21.4,18.5-34.8c3.9-13.4,5.8-27.8,5.8-43.3V250c0-15.4-1.9-29.9-5.8-43.3c-3.9-13.4-10-25-18.5-34.8
		c-8.5-9.8-19.6-17.4-33.2-22.8c-13.7-5.4-30.3-8.1-49.8-8.1h-307.4V38.4h297.4c37.6,0,69.9,4.1,96.9,12.4
		c27,8.2,49.3,21.6,66.8,40.2c17.5,18.5,30.4,42.6,38.6,72.2c8.2,29.6,12.4,65.8,12.4,108.5v291.2c0,41.2-4.1,76.6-12.4,106.2
		c-8.2,29.6-21.1,53.8-38.6,72.6c-17.5,18.8-39.8,32.6-66.8,41.3c-27,8.8-59.4,13.1-96.9,13.1h-297.4V296.4h97.3v397.1h210.9
		C1940.4,693.4,1956.9,690.7,1970.3,685.3z M1612.7,271.7V168.9h297.4c18,0,32.8,2.5,44.4,7.3c11.6,4.9,20.7,11.7,27.4,20.5
		c6.7,8.8,11.3,19.1,13.9,30.9c2.6,11.9,3.9,24.5,3.9,37.9v303.6c0,18-1.3,33.1-3.9,45.2c-2.6,12.1-7.1,22-13.5,29.7
		c-6.4,7.7-15.5,13.3-27,16.6c-11.6,3.4-26.4,5-44.4,5h-173V296.4H1846v246.4c0,13.4,6.4,20.1,19.3,20.1h17c6.2,0,11.2-1.8,15.1-5.4
		c3.9-3.6,5.8-8.5,5.8-14.7V291.7c0-6.2-1.9-11.1-5.8-14.7c-3.9-3.6-8.9-5.4-15.1-5.4H1612.7z"/>
	
		<linearGradient id="SVGID_00000055688666476074395270000010341081996566810763_" gradientUnits="userSpaceOnUse" x1="2427.2327" y1="38.3717" x2="2427.2327" y2="796.1726">
		<stop  offset="0" style="stop-color:#23BFD4"/>
		<stop  offset="0.7031" style="stop-color:#3F4DA0"/>
	</linearGradient>
	<path style="fill:url(#SVGID_00000055688666476074395270000010341081996566810763_);" d="M2173.5,271.7c0-32.4,5.9-63,17.8-91.5
		c11.8-28.6,27.7-53.3,47.5-74.2c19.8-20.9,42.7-37.3,68.7-49.4c26-12.1,52.9-18.2,80.7-18.2H2681v102.7h-280.4
		c-19.6,0-37.1,3.9-52.5,11.6c-15.5,7.7-28.5,17.8-39,30.1c-10.6,12.4-18.7,26.4-24.3,42.1c-5.7,15.7-8.5,31.3-8.5,46.7v291.2
		c0,15.5,2.8,31,8.5,46.7c5.7,15.7,13.8,29.7,24.3,42.1c10.6,12.4,23.6,22.4,39,30.1c15.5,7.7,33,11.6,52.5,11.6H2681v102.7h-292.8
		c-27.8,0-54.7-6-80.7-18.2c-26-12.1-48.9-28.6-68.7-49.4c-19.8-20.9-35.7-45.6-47.5-74.2c-11.9-28.6-17.8-59.1-17.8-91.5V271.7z
		 M2304,404.5V287.1c0-13.4,2.2-27.2,6.6-41.3c4.4-14.2,10.9-26.9,19.7-38.2c8.7-11.3,19.8-20.6,33.2-27.8
		c13.4-7.2,29.1-10.8,47.1-10.8H2681v102.7h-268c-3.1,0-6.3,1.8-9.7,5.4c-3.4,3.6-5,8.5-5,14.7v10.8h224v102H2304z M2304,430h318.3
		v102.7h-224v10c0,6.2,1.7,11.1,5,14.7c3.3,3.6,6.6,5.4,9.7,5.4h268v102.7h-270.4c-18,0-33.7-3.6-47.1-10.8
		c-13.4-7.2-24.5-16.5-33.2-27.8c-8.8-11.3-15.3-24.1-19.7-38.2c-4.4-14.2-6.6-27.9-6.6-41.3V430z"/>
	
		<linearGradient id="SVGID_00000138542259007311194550000009475332715627414677_" gradientUnits="userSpaceOnUse" x1="2987.2761" y1="38.3717" x2="2987.2761" y2="796.1726">
		<stop  offset="0" style="stop-color:#23BFD4"/>
		<stop  offset="0.7031" style="stop-color:#3F4DA0"/>
	</linearGradient>
	<path style="fill:url(#SVGID_00000138542259007311194550000009475332715627414677_);" d="M3241,796.2h-292.8
		c-27.8,0-54.7-6-80.7-18.2c-26-12.1-48.9-28.6-68.7-49.4c-19.8-20.9-35.7-45.6-47.5-74.2c-11.9-28.6-17.8-59.1-17.8-91.5V38.4
		h102.7v524.5c0,15.5,2.8,31,8.5,46.7c5.7,15.7,13.8,29.7,24.3,42.1c10.6,12.4,23.6,22.4,39,30.1c15.5,7.7,33,11.6,52.5,11.6H3241
		V796.2z M2984.6,562.9H3241v102.7h-270.4c-18,0-33.7-3.6-47.1-10.8c-13.4-7.2-24.5-16.5-33.2-27.8c-8.8-11.3-15.3-24.1-19.7-38.2
		c-4.4-14.2-6.6-27.9-6.6-41.3V38.4h105.8v504.4c0,6.2,1.7,10.9,5,14.3c3.3,3.4,6.6,5,9.7,5V562.9z"/>
	<g>
		<defs>
			<path id="SVGID_14_" d="M108.2,533c196.5,26.7,842.6,93.8,1394.5-85.3C2272.6,197.8,2962.4,13,3815.1,299.1L3799,811.2
				L23.5,812.6C23.5,812.6,69.8,527.8,108.2,533z"/>
		</defs>
		<clipPath id="SVGID_00000114763589456133530680000011860596330017054121_">
			<use xlink:href="#SVGID_14_"  style="overflow:visible;"/>
		</clipPath>
		<g style="clip-path:url(#SVGID_00000114763589456133530680000011860596330017054121_);">
			
				<linearGradient id="SVGID_00000106113844014454811400000006763308389308343434_" gradientUnits="userSpaceOnUse" x1="3411.5237" y1="38.3824" x2="3411.5237" y2="796.1833">
				<stop  offset="0" style="stop-color:#0094BF"/>
				<stop  offset="2.865892e-02" style="stop-color:#0090BD;stop-opacity:0.5"/>
				<stop  offset="1" style="stop-color:#282A71"/>
			</linearGradient>
			<path style="fill:url(#SVGID_00000106113844014454811400000006763308389308343434_);" d="M3800.6,562.9c0,32.4-5.9,63-17.8,91.5
				c-11.8,28.6-27.7,53.3-47.5,74.2c-19.8,20.9-42.7,37.3-68.7,49.4c-26,12.1-52.9,18.2-80.7,18.2H3206V693.4h367.5
				c19.6,0,37.1-3.9,52.5-11.6c15.5-7.7,28.5-17.8,39-30.1c10.6-12.4,18.7-26.4,24.3-42.1c5.7-15.7,8.5-31.3,8.5-46.7V271.7
				c0-15.4-2.8-31-8.5-46.7c-5.7-15.7-13.8-29.7-24.3-42.1c-10.6-12.4-23.6-22.4-39-30.1c-15.5-7.7-33-11.6-52.5-11.6h-551.1V38.4
				h563.5c27.8,0,54.7,6.1,80.7,18.2c26,12.1,48.9,28.6,68.7,49.4c19.8,20.9,35.7,45.6,47.5,74.2c11.9,28.6,17.8,59.1,17.8,91.5
				V562.9z M3351.8,404.5v-102h224v-10.8c0-6.2-1.7-11.1-5-14.7c-3.3-3.6-6.6-5.4-9.7-5.4h-538.7V168.9h541.1
				c18,0,33.7,3.6,47.1,10.8c13.4,7.2,24.5,16.5,33.2,27.8c8.8,11.3,15.3,24.1,19.7,38.2c4.4,14.2,6.6,27.9,6.6,41.3v117.4H3351.8z
				 M3670.1,547.4c0,13.4-2.2,27.2-6.6,41.3c-4.4,14.2-10.9,26.9-19.7,38.2c-8.7,11.3-19.8,20.6-33.2,27.8
				c-13.4,7.2-29.1,10.8-47.1,10.8H3206V562.9h355.2c3.1,0,6.3-1.8,9.7-5.4c3.4-3.6,5-8.5,5-14.7v-10h-224V430h318.3V547.4z"/>
			<g>
				
					<linearGradient id="SVGID_00000152950367374790100570000012734823754740723869_" gradientUnits="userSpaceOnUse" x1="545.8885" y1="38.3717" x2="545.8885" y2="796.1726">
					<stop  offset="0" style="stop-color:#0094BF"/>
					<stop  offset="2.865892e-02" style="stop-color:#0090BD;stop-opacity:0.5"/>
					<stop  offset="1" style="stop-color:#282A71"/>
				</linearGradient>
				<path style="fill:url(#SVGID_00000152950367374790100570000012734823754740723869_);" d="M545.9,457.1L435.4,161.2
					c-2.1-5.1-6.4-9.8-13.1-13.9c-6.7-4.1-14.2-6.2-22.4-6.2c-7.2,0-14.7,2.1-22.4,6.2c-7.7,4.1-12.4,8.8-13.9,13.9l-222.5,635H38.4
					l238.7-673.6c4.1-10.8,9.5-21.2,16.2-31.3c6.7-10,15.1-19,25.1-27c10-8,21.8-14.3,35.1-18.9c13.4-4.6,28.8-7,46.3-7
					c17.5,0,32.7,2.3,45.6,7c12.9,4.6,24.2,10.9,34,18.9c9.8,8,18.2,17,25.1,27c7,10,13,20.5,18.2,31.3l23.2,46.3l23.2-46.3
					c5.7-10.8,12-21.2,18.9-31.3c7-10,15.2-19,24.7-27c9.5-8,20.7-14.3,33.6-18.9c12.9-4.6,28.1-7,45.6-7c17,0,32.3,2.3,46,7
					c13.6,4.6,25.5,10.9,35.5,18.9c10,8,18.5,17,25.5,27c7,10,12.2,20.5,15.8,31.3l238.7,673.6H950.7l-222.5-635
					c-1.5-5.1-6.2-9.8-13.9-13.9c-7.7-4.1-15.2-6.2-22.4-6.2c-8.2,0-15.7,2.1-22.4,6.2c-6.7,4.1-11.1,8.8-13.1,13.9L545.9,457.1z
					 M545.9,796.2l-146-389.3L271.7,796.2H168.9l211.7-615.7c1-3.1,3.6-5.8,7.7-8.1c4.1-2.3,8-3.5,11.6-3.5c3.6,0,7.3,1.2,11.2,3.5
					c3.9,2.3,6.3,5,7.3,8.1L545.9,532l127.5-351.5c1-3.1,3.5-5.8,7.3-8.1c3.9-2.3,7.6-3.5,11.2-3.5c3.6,0,7.5,1.2,11.6,3.5
					c4.1,2.3,6.7,5,7.7,8.1l211.7,615.7H824L691.9,406.8L545.9,796.2z"/>
				
					<linearGradient id="SVGID_00000106112047341842298670000010710575465007087804_" gradientUnits="userSpaceOnUse" x1="1295.9564" y1="38.3717" x2="1295.9564" y2="796.1726">
					<stop  offset="0" style="stop-color:#0094BF"/>
					<stop  offset="2.865892e-02" style="stop-color:#0090BD;stop-opacity:0.5"/>
					<stop  offset="1" style="stop-color:#282A71"/>
				</linearGradient>
				<path style="fill:url(#SVGID_00000106112047341842298670000010710575465007087804_);" d="M1150.7,783
					c-26.8-8.8-49.1-22.5-66.8-41.3c-17.8-18.8-30.9-43-39.4-72.6c-8.5-29.6-12.7-65-12.7-106.2V271.7c0-42.7,4.2-78.9,12.7-108.5
					c8.5-29.6,21.6-53.7,39.4-72.2c17.8-18.5,40-31.9,66.8-40.2c26.8-8.2,58.7-12.4,95.8-12.4h98.9c37.6,0,69.9,4.1,96.9,12.4
					c27,8.2,49.3,21.6,66.8,40.2c17.5,18.5,30.4,42.6,38.6,72.2c8.2,29.6,12.4,65.8,12.4,108.5v291.2c0,41.2-4.1,76.6-12.4,106.2
					c-8.2,29.6-21.1,53.8-38.6,72.6c-17.5,18.8-39.8,32.6-66.8,41.3c-27,8.8-59.4,13.1-96.9,13.1h-98.9
					C1209.4,796.2,1177.5,791.8,1150.7,783z M1356.2,693.4c19.6,0,36-2.7,49.4-8.1c13.4-5.4,24.3-13,32.8-22.8
					c8.5-9.8,14.7-21.4,18.5-34.8c3.9-13.4,5.8-27.8,5.8-43.3V250c0-15.4-1.9-29.9-5.8-43.3c-3.9-13.4-10-25-18.5-34.8
					c-8.5-9.8-19.6-17.4-33.2-22.8c-13.7-5.4-30.3-8.1-49.8-8.1h-119c-19.6,0-36.2,2.7-49.8,8.1c-13.7,5.4-24.7,13-33.2,22.8
					c-8.5,9.8-14.7,21.4-18.5,34.8c-3.9,13.4-5.8,27.8-5.8,43.3v334.5c0,15.4,1.9,29.9,5.8,43.3c3.9,13.4,10,25,18.5,34.8
					c8.5,9.8,19.4,17.4,32.8,22.8c13.4,5.4,29.9,8.1,49.4,8.1h60.3H1356.2z M1245.7,665.6c-18,0-32.8-1.7-44.4-5
					c-11.6-3.3-20.6-8.9-27-16.6c-6.4-7.7-10.9-17.6-13.5-29.7c-2.6-12.1-3.9-27.2-3.9-45.2V265.5c0-13.4,1.3-26,3.9-37.9
					c2.6-11.8,7.2-22.1,13.9-30.9c6.7-8.8,15.8-15.6,27.4-20.5c11.6-4.9,26.4-7.3,44.4-7.3h49.4h49.4c18,0,32.8,2.5,44.4,7.3
					c11.6,4.9,20.7,11.7,27.4,20.5c6.7,8.8,11.3,19.1,13.9,30.9c2.6,11.9,3.9,24.5,3.9,37.9v303.6c0,18-1.3,33.1-3.9,45.2
					c-2.6,12.1-7.1,22-13.5,29.7c-6.4,7.7-15.4,13.3-27,16.6c-11.6,3.4-26.4,5-44.4,5H1245.7z M1320.7,562.9c6.2,0,10.2-1.8,12-5.4
					c1.8-3.6,2.7-8.5,2.7-14.7V291.7c0-6.2-0.9-11.1-2.7-14.7c-1.8-3.6-5.8-5.4-12-5.4h-49.4c-6.2,0-10.2,1.8-12,5.4
					c-1.8,3.6-2.7,8.5-2.7,14.7v251.1c0,6.2,0.9,11.1,2.7,14.7c1.8,3.6,5.8,5.4,12,5.4H1320.7z"/>
				
					<linearGradient id="SVGID_00000150069335151206749420000017367612711842374294_" gradientUnits="userSpaceOnUse" x1="1868.7395" y1="38.3717" x2="1868.7395" y2="796.1726">
					<stop  offset="0" style="stop-color:#0094BF"/>
					<stop  offset="2.865892e-02" style="stop-color:#0090BD;stop-opacity:0.5"/>
					<stop  offset="1" style="stop-color:#282A71"/>
				</linearGradient>
				<path style="fill:url(#SVGID_00000150069335151206749420000017367612711842374294_);" d="M1970.3,685.3
					c13.4-5.4,24.3-13,32.8-22.8c8.5-9.8,14.7-21.4,18.5-34.8c3.9-13.4,5.8-27.8,5.8-43.3V250c0-15.4-1.9-29.9-5.8-43.3
					c-3.9-13.4-10-25-18.5-34.8c-8.5-9.8-19.6-17.4-33.2-22.8c-13.7-5.4-30.3-8.1-49.8-8.1h-307.4V38.4h297.4
					c37.6,0,69.9,4.1,96.9,12.4c27,8.2,49.3,21.6,66.8,40.2c17.5,18.5,30.4,42.6,38.6,72.2c8.2,29.6,12.4,65.8,12.4,108.5v291.2
					c0,41.2-4.1,76.6-12.4,106.2c-8.2,29.6-21.1,53.8-38.6,72.6c-17.5,18.8-39.8,32.6-66.8,41.3c-27,8.8-59.4,13.1-96.9,13.1h-297.4
					V296.4h97.3v397.1h210.9C1940.4,693.4,1956.9,690.7,1970.3,685.3z M1612.7,271.7V168.9h297.4c18,0,32.8,2.5,44.4,7.3
					c11.6,4.9,20.7,11.7,27.4,20.5c6.7,8.8,11.3,19.1,13.9,30.9c2.6,11.9,3.9,24.5,3.9,37.9v303.6c0,18-1.3,33.1-3.9,45.2
					c-2.6,12.1-7.1,22-13.5,29.7c-6.4,7.7-15.5,13.3-27,16.6c-11.6,3.4-26.4,5-44.4,5h-173V296.4H1846v246.4
					c0,13.4,6.4,20.1,19.3,20.1h17c6.2,0,11.2-1.8,15.1-5.4c3.9-3.6,5.8-8.5,5.8-14.7V291.7c0-6.2-1.9-11.1-5.8-14.7
					c-3.9-3.6-8.9-5.4-15.1-5.4H1612.7z"/>
				
					<linearGradient id="SVGID_00000132781852719674013020000015309662855935362959_" gradientUnits="userSpaceOnUse" x1="2427.2327" y1="38.3717" x2="2427.2327" y2="796.1726">
					<stop  offset="0" style="stop-color:#0094BF"/>
					<stop  offset="2.865892e-02" style="stop-color:#0090BD;stop-opacity:0.5"/>
					<stop  offset="1" style="stop-color:#282A71"/>
				</linearGradient>
				<path style="fill:url(#SVGID_00000132781852719674013020000015309662855935362959_);" d="M2173.5,271.7c0-32.4,5.9-63,17.8-91.5
					c11.8-28.6,27.7-53.3,47.5-74.2c19.8-20.9,42.7-37.3,68.7-49.4c26-12.1,52.9-18.2,80.7-18.2H2681v102.7h-280.4
					c-19.6,0-37.1,3.9-52.5,11.6c-15.5,7.7-28.5,17.8-39,30.1c-10.6,12.4-18.7,26.4-24.3,42.1c-5.7,15.7-8.5,31.3-8.5,46.7v291.2
					c0,15.5,2.8,31,8.5,46.7c5.7,15.7,13.8,29.7,24.3,42.1c10.6,12.4,23.6,22.4,39,30.1c15.5,7.7,33,11.6,52.5,11.6H2681v102.7
					h-292.8c-27.8,0-54.7-6-80.7-18.2c-26-12.1-48.9-28.6-68.7-49.4c-19.8-20.9-35.7-45.6-47.5-74.2c-11.9-28.6-17.8-59.1-17.8-91.5
					V271.7z M2304,404.5V287.1c0-13.4,2.2-27.2,6.6-41.3c4.4-14.2,10.9-26.9,19.7-38.2c8.7-11.3,19.8-20.6,33.2-27.8
					c13.4-7.2,29.1-10.8,47.1-10.8H2681v102.7h-268c-3.1,0-6.3,1.8-9.7,5.4c-3.4,3.6-5,8.5-5,14.7v10.8h224v102H2304z M2304,430
					h318.3v102.7h-224v10c0,6.2,1.7,11.1,5,14.7c3.3,3.6,6.6,5.4,9.7,5.4h268v102.7h-270.4c-18,0-33.7-3.6-47.1-10.8
					c-13.4-7.2-24.5-16.5-33.2-27.8c-8.8-11.3-15.3-24.1-19.7-38.2c-4.4-14.2-6.6-27.9-6.6-41.3V430z"/>
				
					<linearGradient id="SVGID_00000106843617234975894760000012482371592396174479_" gradientUnits="userSpaceOnUse" x1="2987.2761" y1="38.3717" x2="2987.2761" y2="796.1726">
					<stop  offset="0" style="stop-color:#0094BF"/>
					<stop  offset="2.865892e-02" style="stop-color:#0090BD;stop-opacity:0.5"/>
					<stop  offset="1" style="stop-color:#282A71"/>
				</linearGradient>
				<path style="fill:url(#SVGID_00000106843617234975894760000012482371592396174479_);" d="M3241,796.2h-292.8
					c-27.8,0-54.7-6-80.7-18.2c-26-12.1-48.9-28.6-68.7-49.4c-19.8-20.9-35.7-45.6-47.5-74.2c-11.9-28.6-17.8-59.1-17.8-91.5V38.4
					h102.7v524.5c0,15.5,2.8,31,8.5,46.7c5.7,15.7,13.8,29.7,24.3,42.1c10.6,12.4,23.6,22.4,39,30.1c15.5,7.7,33,11.6,52.5,11.6
					H3241V796.2z M2984.6,562.9H3241v102.7h-270.4c-18,0-33.7-3.6-47.1-10.8c-13.4-7.2-24.5-16.5-33.2-27.8
					c-8.8-11.3-15.3-24.1-19.7-38.2c-4.4-14.2-6.6-27.9-6.6-41.3V38.4h105.8v504.4c0,6.2,1.7,10.9,5,14.3c3.3,3.4,6.6,5,9.7,5V562.9
					z"/>
			</g>
		</g>
	</g>
	
		<linearGradient id="SVGID_00000015322325082895260130000000566131007809451427_" gradientUnits="userSpaceOnUse" x1="3411.5237" y1="796.1848" x2="3411.5237" y2="38.384">
		<stop  offset="0" style="stop-color:#131313"/>
		<stop  offset="1" style="stop-color:#F7F8F9"/>
	</linearGradient>
	<path style="fill:url(#SVGID_00000015322325082895260130000000566131007809451427_);" d="M3800.6,562.9c0,32.4-5.9,63-17.8,91.5
		c-11.8,28.6-27.7,53.3-47.5,74.2c-19.8,20.9-42.7,37.3-68.7,49.4c-26,12.1-52.9,18.2-80.7,18.2H3206V693.4h367.5
		c19.6,0,37.1-3.9,52.5-11.6c15.5-7.7,28.5-17.8,39-30.1c10.6-12.4,18.7-26.4,24.3-42.1c5.7-15.7,8.5-31.3,8.5-46.7V271.7
		c0-15.4-2.8-31-8.5-46.7c-5.7-15.7-13.8-29.7-24.3-42.1c-10.6-12.4-23.6-22.4-39-30.1c-15.5-7.7-33-11.6-52.5-11.6h-551.1V38.4
		h563.5c27.8,0,54.7,6.1,80.7,18.2c26,12.1,48.9,28.6,68.7,49.4c19.8,20.9,35.7,45.6,47.5,74.2c11.9,28.6,17.8,59.1,17.8,91.5V562.9
		z M3351.8,404.5v-102h224v-10.8c0-6.2-1.7-11.1-5-14.7c-3.3-3.6-6.6-5.4-9.7-5.4h-538.7V168.9h541.1c18,0,33.7,3.6,47.1,10.8
		c13.4,7.2,24.5,16.5,33.2,27.8c8.8,11.3,15.3,24.1,19.7,38.2c4.4,14.2,6.6,27.9,6.6,41.3v117.4H3351.8z M3670.1,547.4
		c0,13.4-2.2,27.2-6.6,41.3c-4.4,14.2-10.9,26.9-19.7,38.2c-8.7,11.3-19.8,20.6-33.2,27.8c-13.4,7.2-29.1,10.8-47.1,10.8H3206V562.9
		h355.2c3.1,0,6.3-1.8,9.7-5.4c3.4-3.6,5-8.5,5-14.7v-10h-224V430h318.3V547.4z"/>
	<path class="st21" d="M3762.9,749.1c-694.9-353.4-1337.1-256.5-2579.2,59.6c-66.3,16.9,2440.3,9.6,2440.3,9.6L3762.9,749.1z"/>
	<g>
		<defs>
			<path id="SVGID_13_" d="M3753.3,752.1c-693-352.4-1333.8-257-2569.5,57.1c-69.4,17.6,2440.1,9.1,2440.1,9.1L3753.3,752.1z"/>
		</defs>
		<clipPath id="SVGID_00000039851289050517810580000001647514497442826158_">
			<use xlink:href="#SVGID_13_"  style="overflow:visible;"/>
		</clipPath>
		<g style="clip-path:url(#SVGID_00000039851289050517810580000001647514497442826158_);">
			
				<linearGradient id="SVGID_00000183971376565941443070000016300020342320401056_" gradientUnits="userSpaceOnUse" x1="3800.6289" y1="417.2777" x2="1031.7698" y2="417.2777">
				<stop  offset="0" style="stop-color:#474748;stop-opacity:0.5"/>
				<stop  offset="0.2168" style="stop-color:#545554"/>
				<stop  offset="0.5053" style="stop-color:#2E3084"/>
				<stop  offset="0.6386" style="stop-color:#2E3286"/>
				<stop  offset="0.8566" style="stop-color:#282A71;stop-opacity:0.5"/>
				<stop  offset="1" style="stop-color:#282A71;stop-opacity:0"/>
			</linearGradient>
			<path style="fill:url(#SVGID_00000183971376565941443070000016300020342320401056_);" d="M3782.9,180.1
				c-11.8-28.6-27.7-53.3-47.5-74.2c-19.8-20.9-42.7-37.3-68.7-49.4c-26-12.1-52.9-18.2-80.7-18.2h-563.5v102.7h551.1
				c19.6,0,37.1,3.9,52.5,11.6c15.5,7.7,28.5,17.8,39,30.1c10.6,12.4,18.7,26.4,24.3,42.1c5.7,15.7,8.5,31.3,8.5,46.7v291.2
				c0,15.5-2.8,31-8.5,46.7c-5.7,15.7-13.8,29.7-24.3,42.1c-10.6,12.4-23.6,22.4-39,30.1c-15.5,7.7-33,11.6-52.5,11.6H3241v0h-280.4
				c-19.6,0-37.1-3.9-52.5-11.6c-15.5-7.7-28.5-17.8-39-30.1c-10.6-12.4-18.7-26.4-24.3-42.1c-5.7-15.7-8.5-31.3-8.5-46.7V38.4
				h-102.7v524.5c0,32.4,5.9,63,17.8,91.5c11.8,28.6,27.7,53.3,47.5,74.2c19.8,20.9,42.7,37.3,68.8,49.4
				c26,12.1,52.9,18.2,80.7,18.2H3206v0h379.9c27.8,0,54.7-6,80.7-18.2c26-12.1,48.9-28.6,68.7-49.4c19.8-20.9,35.7-45.6,47.5-74.2
				c11.9-28.6,17.8-59.1,17.8-91.5V271.7C3800.6,239.2,3794.7,208.7,3782.9,180.1z M3570.8,277.1c3.4,3.6,5,8.5,5,14.7v10.8h-224
				v102h318.3V287.1c0-13.4-2.2-27.2-6.6-41.3c-4.4-14.2-10.9-26.9-19.7-38.2c-8.7-11.3-19.8-20.6-33.2-27.8
				c-13.4-7.2-29.1-10.8-47.1-10.8h-541.1v102.7h538.7C3564.3,271.7,3567.5,273.5,3570.8,277.1z M1509.2,90.9
				c-17.5-18.5-39.8-31.9-66.8-40.2c-27-8.2-59.4-12.4-96.9-12.4h-98.9c-37.1,0-69,4.1-95.8,12.4c-26.8,8.2-49.1,21.6-66.8,40.2
				c-17.8,18.5-30.9,42.6-39.4,72.2c-8.5,29.6-12.7,65.8-12.7,108.5v291.2c0,41.2,4.2,76.6,12.7,106.2c8.5,29.6,21.6,53.8,39.4,72.6
				c17.8,18.8,40,32.6,66.8,41.3c26.8,8.8,58.7,13.1,95.8,13.1h98.9c37.6,0,69.9-4.4,96.9-13.1c27-8.7,49.3-22.5,66.8-41.3
				c17.5-18.8,30.4-43,38.6-72.6c8.2-29.6,12.4-65,12.4-106.2V271.7c0-42.7-4.1-78.9-12.4-108.5
				C1539.5,133.5,1526.7,109.4,1509.2,90.9z M1462.8,584.5c0,15.4-1.9,29.9-5.8,43.3c-3.9,13.4-10,25-18.5,34.8
				c-8.5,9.8-19.4,17.4-32.8,22.8c-13.4,5.4-29.9,8.1-49.4,8.1h-120.5c-19.6,0-36.1-2.7-49.4-8.1c-13.4-5.4-24.3-13-32.8-22.8
				c-8.5-9.8-14.7-21.4-18.5-34.8c-3.9-13.4-5.8-27.8-5.8-43.3V250c0-15.4,1.9-29.9,5.8-43.3c3.9-13.4,10-25,18.5-34.8
				c8.5-9.8,19.6-17.4,33.2-22.8c13.6-5.4,30.2-8.1,49.8-8.1h119c19.6,0,36.2,2.7,49.8,8.1c13.6,5.4,24.7,13,33.2,22.8
				c8.5,9.8,14.7,21.4,18.5,34.8c3.9,13.4,5.8,27.8,5.8,43.3V584.5z M1417.2,196.7c-6.7-8.8-15.8-15.6-27.4-20.5
				c-11.6-4.9-26.4-7.3-44.4-7.3h-98.9c-18,0-32.8,2.5-44.4,7.3c-11.6,4.9-20.7,11.7-27.4,20.5c-6.7,8.8-11.3,19.1-13.9,30.9
				c-2.6,11.9-3.9,24.5-3.9,37.9v303.6c0,18,1.3,33.1,3.9,45.2c2.6,12.1,7.1,22,13.5,29.7c6.4,7.7,15.4,13.3,27,16.6
				c11.6,3.4,26.4,5,44.4,5h100.4c18,0,32.8-1.7,44.4-5c11.6-3.3,20.6-8.9,27-16.6c6.4-7.7,10.9-17.6,13.5-29.7
				c2.6-12.1,3.9-27.2,3.9-45.2V265.5c0-13.4-1.3-26-3.9-37.9C1428.6,215.8,1423.9,205.5,1417.2,196.7z M1335.4,542.8
				c0,6.2-0.9,11.1-2.7,14.7c-1.8,3.6-5.8,5.4-12,5.4h-49.4c-6.2,0-10.2-1.8-12-5.4c-1.8-3.6-2.7-8.5-2.7-14.7V291.7
				c0-6.2,0.9-11.1,2.7-14.7c1.8-3.6,5.8-5.4,12-5.4h49.4c6.2,0,10.2,1.8,12,5.4c1.8,3.6,2.7,8.5,2.7,14.7V542.8z M2073.8,90.9
				c-17.5-18.5-39.8-31.9-66.8-40.2c-27-8.2-59.4-12.4-96.9-12.4h-297.4v102.7h307.4c19.6,0,36.2,2.7,49.8,8.1
				c13.6,5.4,24.7,13,33.2,22.8c8.5,9.8,14.7,21.4,18.5,34.8c3.9,13.4,5.8,27.8,5.8,43.3v334.5c0,15.4-1.9,29.9-5.8,43.3
				c-3.9,13.4-10,25-18.5,34.8c-8.5,9.8-19.4,17.4-32.8,22.8c-13.4,5.4-29.9,8.1-49.4,8.1H1710V296.4h-97.3v499.8h297.4
				c37.6,0,69.9-4.4,96.9-13.1c27-8.7,49.3-22.5,66.8-41.3c17.5-18.8,30.4-43,38.6-72.6c8.2-29.6,12.4-65,12.4-106.2V271.7
				c0-42.7-4.1-78.9-12.4-108.5C2104.2,133.5,2091.3,109.4,2073.8,90.9z M1897.3,277.1c3.9,3.6,5.8,8.5,5.8,14.7v251.1
				c0,6.2-1.9,11.1-5.8,14.7c-3.9,3.6-8.9,5.4-15.1,5.4h-17c-12.9,0-19.3-6.7-19.3-20.1V296.4h-108.1v369.2h173
				c18,0,32.8-1.7,44.4-5c11.6-3.3,20.6-8.9,27-16.6c6.4-7.7,10.9-17.6,13.5-29.7c2.6-12.1,3.9-27.2,3.9-45.2V265.5
				c0-13.4-1.3-26-3.9-37.9c-2.6-11.8-7.2-22.1-13.9-30.9c-6.7-8.7-15.8-15.6-27.4-20.5c-11.6-4.9-26.4-7.3-44.4-7.3h-297.4v102.7
				h269.6C1888.4,271.7,1893.5,273.5,1897.3,277.1z M2307.5,56.5c-26,12.1-48.9,28.6-68.8,49.4c-19.8,20.9-35.7,45.6-47.5,74.2
				c-11.9,28.6-17.8,59.1-17.8,91.5v291.2c0,32.4,5.9,63,17.8,91.5c11.8,28.6,27.7,53.3,47.5,74.2c19.8,20.9,42.7,37.3,68.8,49.4
				c26,12.1,52.9,18.2,80.7,18.2H2681V693.4h-280.4c-19.6,0-37.1-3.9-52.5-11.6c-15.5-7.7-28.5-17.8-39-30.1
				c-10.6-12.4-18.7-26.4-24.3-42.1c-5.7-15.7-8.5-31.3-8.5-46.7V271.7c0-15.4,2.8-31,8.5-46.7c5.7-15.7,13.8-29.7,24.3-42.1
				c10.6-12.4,23.6-22.4,39-30.1c15.5-7.7,33-11.6,52.5-11.6H2681V38.4h-292.8C2360.4,38.4,2333.5,44.4,2307.5,56.5z M2363.5,179.7
				c-13.4,7.2-24.5,16.5-33.2,27.8c-8.8,11.3-15.3,24.1-19.7,38.2c-4.4,14.2-6.6,27.9-6.6,41.3v117.4h318.3v-102h-224v-10.8
				c0-6.2,1.7-11.1,5-14.7c3.3-3.6,6.6-5.4,9.7-5.4h268V168.9h-270.4C2392.6,168.9,2376.9,172.5,2363.5,179.7z M2403.3,557.5
				c-3.4-3.6-5-8.5-5-14.7v-10h224V430H2304v117.4c0,13.4,2.2,27.2,6.6,41.3c4.4,14.2,10.9,26.9,19.7,38.2
				c8.7,11.3,19.8,20.6,33.2,27.8c13.4,7.2,29.1,10.8,47.1,10.8H2681V562.9h-268C2409.8,562.9,2406.6,561.1,2403.3,557.5z
				 M2890.3,627c8.7,11.3,19.8,20.6,33.2,27.8c13.4,7.2,29.1,10.8,47.1,10.8H3206v0h357.5c18,0,33.7-3.6,47.1-10.8
				c13.4-7.2,24.5-16.5,33.2-27.8c8.8-11.3,15.3-24.1,19.7-38.2c4.4-14.2,6.6-27.9,6.6-41.3V430h-318.3v102.7h224v10
				c0,6.2-1.7,11.1-5,14.7c-3.3,3.6-6.6,5.4-9.7,5.4H3241v0h-256.5v-0.8c-3.1,0-6.3-1.7-9.7-5c-3.4-3.3-5-8.1-5-14.3V38.4h-105.8
				v509.1c0,13.4,2.2,27.2,6.6,41.3C2875,602.9,2881.6,615.7,2890.3,627z"/>
		</g>
	</g>
</g>
</svg>
