<?xml version="1.0" encoding="utf-8"?>
<!-- Generator: Adobe Illustrator 25.4.1, SVG Export Plug-In . SVG Version: 6.00 Build 0)  -->
<svg version="1.1" id="Layer_1" xmlns="http://www.w3.org/2000/svg" xmlns:xlink="http://www.w3.org/1999/xlink" x="0px" y="0px"
	 viewBox="0 0 3839 1675.9" style="enable-background:new 0 0 3839 1675.9;" xml:space="preserve">
<style type="text/css">
	.st0{fill:#FFFFFF;}
	.st1{fill:#034693;}
	.st2{fill:#1281C4;}
</style>
<g>
	<g>
		<g>
			<g>
				<path class="st2" d="M507.8,808.4H0v158.4h507.8c97.5,0,178.7-81.2,178.7-178.7s-81.2-178.7-178.7-178.7h-130
					c-117.8,0-215.3-97.5-215.3-215.3S260,178.7,377.8,178.7h503.7V20.3H373.7C166.6,20.3,0,186.9,0,394.1s166.6,373.7,373.7,373.7
					h130c12.2,0,20.3,8.1,20.3,20.3C524.1,800.3,515.9,808.4,507.8,808.4z"/>
				<path class="st2" d="M373.7,377.8h507.8V215.3H373.7c-97.5,0-178.7,81.2-178.7,178.7s81.2,178.7,178.7,178.7h130
					c117.8,0,215.3,97.5,215.3,215.3s-97.5,215.3-215.3,215.3H0v158.4h507.8c207.2,0,373.7-166.6,373.7-373.7S715,414.4,507.8,414.4
					h-130c-12.2,0-20.3-8.1-20.3-20.3C357.5,385.9,365.6,377.8,373.7,377.8z"/>
			</g>
			<g>
				<path class="st2" d="M2197.8,215.3c-69.1,0-121.9,52.8-121.9,121.9V845c0,69.1,52.8,121.9,121.9,121.9h329.1V609.4H2275v158.4
					h93.4v36.6H2275c-20.3,0-36.6-16.2-36.6-36.6V410.3c0-20.3,16.2-36.6,36.6-36.6h450.9V215.3H2197.8z"/>
				<path class="st2" d="M3197.1,966.9h369.7l-251.9-747.5c-8.1-20.3-24.4-36.6-48.7-36.6c-20.3,0-40.6,16.2-48.7,32.5l-325,946.5
					h186.9l113.7-337.2v142.2H3197.1z M3262.1,625.6l52.8,162.5h-109.7L3262.1,625.6z"/>
				<path class="st2" d="M3509.9,186.9C3477.4,81.2,3379.9,0,3262.1,0c-117.8,0-215.3,77.2-243.7,182.8l-296.6,869.4V414.4H2275
					v158.4h292.5v430.6h-365.6c-89.4,0-158.4-73.1-158.4-158.4V337.2c0-89.4,73.1-158.4,158.4-158.4h524.1V20.3h-528.1
					c-174.7,0-316.9,142.2-316.9,316.9V845c0,174.7,142.2,316.9,316.9,316.9h654.1l329.1-954.7c12.2-36.6,44.7-60.9,85.3-60.9
					c40.6,0,73.1,24.4,85.3,60.9l268.1,796.2h-422.5v158.4H3839l0,0L3509.9,186.9z"/>
			</g>
			<g>
				<path class="st2" d="M1275.6,1003.4c-89.4,0-158.4-73.1-158.4-158.4V337.2c0-89.4,73.1-158.4,158.4-158.4H1820V20.3h-544.4
					c-174.7,0-316.9,142.2-316.9,316.9V845c0,174.7,142.2,316.9,316.9,316.9H1820v-158.4H1275.6z"/>
				<path class="st2" d="M1312.2,771.9h394.1V613.4h-552.5V849c0,69.1,52.8,121.9,121.9,121.9H1820V812.5h-471.2
					C1328.4,808.4,1312.2,792.2,1312.2,771.9z"/>
				<path class="st2" d="M1706.2,414.4h-394.1c0-20.3,16.2-36.6,36.6-36.6h467.2V215.3h-540.3c-69.1,0-121.9,52.8-121.9,121.9v235.6
					h552.5C1706.2,572.8,1706.2,414.4,1706.2,414.4z"/>
			</g>
		</g>
	</g>
	<g>
		<g>
			<path class="st0" d="M918.3,1675.9c-90.9,0-157.9-71.5-157.9-162.4c0-90,66.6-163.3,159.3-163.3c57.1,0,91.3,20.2,122.8,49.9
				l-24.3,26.1c-26.5-25.2-56.2-43.2-99-43.2c-69.7,0-121.9,56.2-121.9,129.6S849.9,1643,919.2,1643c43.2,0,71.5-16.6,101.7-45.4
				l23.4,23C1011.4,1653.8,975.4,1675.9,918.3,1675.9z"/>
			<path class="st0" d="M1119.9,1355.5h35.5v282.1h177.3v32.8h-212.8V1355.5z"/>
			<path class="st0" d="M1705.3,1670.5H1667l-36.9-83.2h-171.4l-37.3,83.2h-36.5l143.5-317.2h33.3L1705.3,1670.5z M1544.6,1394.6
				l-72,160.6h143.5L1544.6,1394.6z"/>
			<path class="st0" d="M1887.5,1495.9c70.2,15.3,102.6,40.9,102.6,89.5c0,54.5-45,89.5-107.5,89.5c-49.9,0-90.9-16.7-128.7-50.4
				l22-26.1c32.8,29.7,64.3,44.5,108,44.5c42.3,0,70.2-22,70.2-54c0-29.7-15.8-46.3-81.9-60.3c-72.4-15.8-105.7-39.1-105.7-91.3
				c0-50.4,43.6-86.4,103.5-86.4c45.9,0,78.7,13,110.7,38.7l-20.7,27.4c-29.2-23.8-58.5-34.2-90.9-34.2c-40.9,0-67,22.5-67,51.3
				C1802,1464.4,1818.2,1481,1887.5,1495.9z"/>
			<path class="st0" d="M2184.6,1495.9c70.2,15.3,102.6,40.9,102.6,89.5c0,54.5-45,89.5-107.5,89.5c-49.9,0-90.9-16.7-128.7-50.4
				l22-26.1c32.8,29.7,64.3,44.5,108,44.5c42.3,0,70.2-22,70.2-54c0-29.7-15.8-46.3-81.9-60.3c-72.4-15.8-105.7-39.1-105.7-91.3
				c0-50.4,43.6-86.4,103.5-86.4c45.9,0,78.7,13,110.7,38.7l-20.7,27.4c-29.2-23.8-58.5-34.2-90.9-34.2c-40.9,0-67,22.5-67,51.3
				C2099.1,1464.4,2115.3,1481,2184.6,1495.9z"/>
			<path class="st0" d="M2411.8,1355.5v315h-35.5v-315H2411.8z"/>
			<path class="st0" d="M2661.5,1675.9c-90.9,0-157.9-71.5-157.9-162.4c0-90,66.6-163.3,159.3-163.3c57.1,0,91.3,20.2,122.8,49.9
				l-24.3,26.1c-26.5-25.2-56.2-43.2-99-43.2c-69.7,0-121.9,56.2-121.9,129.6s52.6,130.5,121.9,130.5c43.2,0,71.5-16.6,101.7-45.4
				l23.4,23C2754.7,1653.8,2718.7,1675.9,2661.5,1675.9z"/>
			<path class="st0" d="M2976.1,1495.9c70.2,15.3,102.6,40.9,102.6,89.5c0,54.5-45,89.5-107.5,89.5c-49.9,0-90.9-16.7-128.7-50.4
				l22-26.1c32.8,29.7,64.3,44.5,108,44.5c42.3,0,70.2-22,70.2-54c0-29.7-15.8-46.3-81.9-60.3c-72.4-15.8-105.7-39.1-105.7-91.3
				c0-50.4,43.6-86.4,103.5-86.4c45.9,0,78.7,13,110.7,38.7l-20.7,27.4c-29.2-23.8-58.5-34.2-90.9-34.2c-40.9,0-67,22.5-67,51.3
				C2890.6,1464.4,2906.8,1481,2976.1,1495.9z"/>
		</g>
	</g>
</g>
</svg>
