<?xml version="1.0" encoding="utf-8"?>
<!-- Generator: Adobe Illustrator 26.3.1, SVG Export Plug-In . SVG Version: 6.00 Build 0)  -->
<svg version="1.1" id="Layer_1" xmlns="http://www.w3.org/2000/svg" xmlns:xlink="http://www.w3.org/1999/xlink" x="0px" y="0px"
	 viewBox="0 0 3839 1730.9" style="enable-background:new 0 0 3839 1730.9;" xml:space="preserve">
<style type="text/css">
	.st0{fill:#009A60;}
	.st1{fill:#D6B00A;}
	.st2{fill:#FFFFFF;}
	.st3{fill:#016CC6;}
	.st4{fill:#FF156A;}
	.st5{fill:#7201FF;}
	.st6{fill:#FE0000;}
	.st7{fill:#1A3591;}
	.st8{fill:#F03190;}
	.st9{fill:#00EDEA;}
	.st10{fill:#FFF800;}
	.st11{fill:#030508;}
	.st12{fill:#4ACF93;}
	.st13{fill:#F0E257;}
	.st14{clip-path:url(#SVGID_00000013174497685071671390000013068267159718078904_);}
	.st15{clip-path:url(#SVGID_00000092419810063298184390000014478804010502036663_);}
	.st16{clip-path:url(#SVGID_00000162342130406679684030000008052485128729587102_);}
	.st17{clip-path:url(#SVGID_00000049184700637145317510000003692474341206585022_);}
	.st18{fill:url(#SVGID_00000183232638223899490540000011181616835908885676_);}
	.st19{fill:url(#SVGID_00000005987985593572039690000003876380661084671117_);}
	.st20{fill:url(#SVGID_00000140707758969945546020000005729164903688520370_);}
	.st21{fill:url(#SVGID_00000093159165107410561100000010699862794956348587_);}
	.st22{fill:url(#SVGID_00000054957788428615661740000003922267821202582696_);}
	.st23{fill:url(#SVGID_00000109002299673908559360000005953729252276383166_);}
	.st24{fill:url(#SVGID_00000098214385144451782800000005411766733240444550_);}
	.st25{fill:url(#SVGID_00000020393685280803839160000000913787665149783996_);}
	.st26{fill:url(#SVGID_00000168117878984061272300000015350866669829397128_);}
	.st27{fill:url(#SVGID_00000085955241620079513300000009181424222036481444_);}
	.st28{fill:url(#SVGID_00000130642187963885408530000017438091719167925893_);}
	.st29{fill:url(#SVGID_00000117642629288997337850000001622950071041673139_);}
	.st30{fill:url(#SVGID_00000022556266205340551730000011218926857480932524_);}
	.st31{fill:url(#SVGID_00000125602206998197912470000014343624424665111990_);}
	.st32{fill:url(#SVGID_00000068638360679374215390000010699838397600528307_);}
	.st33{fill:url(#SVGID_00000013905348736550608870000004335839104954521782_);}
	.st34{fill:url(#SVGID_00000099656144935339476200000008527178466445836965_);}
	.st35{fill:url(#SVGID_00000174590120044961270670000017697260316066243754_);}
	.st36{fill:url(#SVGID_00000110450749037458745730000005185613431983047863_);}
	.st37{fill:url(#SVGID_00000162311061953452875320000010307217217320123321_);}
	.st38{fill:url(#SVGID_00000039828746382891092870000014494643056783966599_);}
	.st39{fill:url(#SVGID_00000180343515753515262290000001733074850277946796_);}
	.st40{fill:url(#SVGID_00000106111016107676897950000002219064389093873588_);}
	.st41{fill:url(#SVGID_00000057115118834548935400000016711617304700228504_);}
	.st42{fill:url(#SVGID_00000145028316515935915630000007663309338791988122_);}
	.st43{fill:url(#SVGID_00000134235402061316939040000009503241028606801085_);}
	.st44{fill:url(#SVGID_00000077321136880922933760000000606781680007267774_);}
	.st45{fill:url(#SVGID_00000075129274063244582220000010656342622996669366_);}
	.st46{fill:url(#SVGID_00000089542425806050723130000018405402726272868746_);}
	.st47{fill:url(#SVGID_00000170262940046313274980000000767790379586669758_);}
	.st48{clip-path:url(#SVGID_00000147912268460711831970000010400320022666033323_);}
	.st49{clip-path:url(#SVGID_00000160882315680421165640000015560525677674145975_);}
	.st50{clip-path:url(#SVGID_00000022519858105280071440000011948670701047027848_);}
	.st51{clip-path:url(#SVGID_00000064319227482421165580000006025576714334628006_);}
	.st52{clip-path:url(#SVGID_00000029010359430954197710000018361589306322787491_);}
	.st53{clip-path:url(#SVGID_00000013194358946836405460000004025474885947883402_);}
	.st54{clip-path:url(#SVGID_00000166670203325254037000000013596670942900542354_);}
	.st55{clip-path:url(#SVGID_00000034067843524782400500000005468406868461917081_);}
	.st56{clip-path:url(#SVGID_00000147940577043454002430000011035222578091010232_);}
	.st57{clip-path:url(#SVGID_00000090286341270701294110000003504833912171731112_);}
	.st58{clip-path:url(#SVGID_00000033337407830385501290000005031296452173623962_);}
	.st59{clip-path:url(#SVGID_00000080182853588157560150000009544617651057022654_);}
	.st60{clip-path:url(#SVGID_00000075877970184312371160000015721669258613659832_);}
	.st61{clip-path:url(#SVGID_00000068673974974602619910000001423989161268027810_);}
	.st62{clip-path:url(#SVGID_00000016756032011465953820000009304402065435872701_);}
	.st63{clip-path:url(#SVGID_00000059286920997582434740000015292836076238827699_);}
	.st64{clip-path:url(#SVGID_00000074403033859368296310000011745059461782352821_);}
	.st65{clip-path:url(#SVGID_00000155860598054808901640000011955737762970792347_);}
	.st66{clip-path:url(#SVGID_00000147901180414315781830000006813501456262869180_);}
</style>
<g>
	<g>
		<path class="st0" d="M3614.5,316.8v597.4h-382V316.8H3008v565.5c0,141.6,114.8,256.4,256.4,256.4h350.1h171h53.5V316.8H3614.5z"/>
		<path class="st0" d="M0,578.4C0,722.9,117.1,840,261.6,840h305.5c20.5,0,37.1,16.6,37.1,37.1c0,20.5-16.6,37.1-37.1,37.1H0v224.5
			h567.2c144.5,0,261.6-117.1,261.6-261.6c0-144.5-117.1-261.6-261.6-261.6H261.6c-20.5,0-37.1-16.6-37.1-37.1
			c0-20.5,16.6-37.1,37.1-37.1h567.2V316.8H261.6C117.1,316.8,0,434,0,578.4z"/>
		<g>
			<rect x="1785.9" y="316.8" class="st1" width="224.5" height="821.9"/>
		</g>
		<g>
			<rect x="1785.9" class="st1" width="224.5" height="224.5"/>
		</g>
		<path class="st0" d="M2525.8,291c-72.5,0-140.7,18.3-200.4,50.4V0h-224.5v1138.8h224.5v-50.3c59.7,32.1,127.9,50.3,200.4,50.3
			c234.1,0,423.9-189.8,423.9-423.8C2949.6,480.8,2759.9,291,2525.8,291z M2525.8,915.3c-110.7,0-200.4-89.7-200.4-200.4
			s89.7-200.4,200.4-200.4s200.4,89.7,200.4,200.4S2636.4,915.3,2525.8,915.3z"/>
		<path class="st0" d="M1294.8,291c-234.1,0-423.9,189.8-423.9,423.9c0,234.1,189.8,423.8,423.9,423.8
			c170.5,0,317.1-100.9,384.4-246h-293.9c-27.3,13.9-57.8,22.5-90.5,22.5c-63,0-118.6-29.7-155.3-75.2h310.6H1669h30.8
			c12.2-39.6,18.8-81.6,18.8-125.1C1718.6,480.8,1528.9,291,1294.8,291z M1121.8,615.5c34.6-60.1,98.7-101,173-101
			s138.4,40.9,173,101H1121.8z"/>
	</g>
	<g>
		<path class="st0" d="M107.9,1598.8c0.5,15.6,1.6,60.1,65.5,60.1c9.1,0,57.5,0,57.5-44c0-18.3-7.5-30.6-33.3-37.6l-95.1-24.7
			c-26.8-7-96.1-25.2-96.1-106.3c0-62.8,47.3-121.4,163.2-121.4c151.4,0,157.9,82.2,158.4,123.5h-109c0-11.8,0.5-53.7-51-53.7
			c-31.2,0-51,17.7-51,40.8c0,28.5,23.6,35.4,39.2,39.7l72.5,18.8c51.6,13.4,112.8,29.5,112.8,111.7c0,86.4-74.1,125.1-171.3,125.1
			c-40.3,0-105.2-6.5-140.7-46.2c-28.4-31.1-29-69.3-29.5-85.9H107.9z"/>
		<path class="st0" d="M449.5,1607.9c0,14.5,0,65.5,51.5,65.5c26.8,0,43.5-14,46.2-39.2h94c-7.5,67.7-70.9,94-140.7,94
			c-94,0-144.4-47.3-144.4-136.4c0-90.2,44-148.7,143.4-148.7c75.2,0,110.1,30.6,128.3,68.7c11.8,23.1,15,48.9,15,96.1H449.5z
			 M547.7,1553.1c-1.1-15.6-4.3-56.4-48.3-56.4s-47.8,43.5-48.9,56.4H547.7z"/>
		<path class="st0" d="M670.2,1335.7h103.1v72H670.2V1335.7z M671.3,1452.7h101v269.6h-101V1452.7z"/>
		<path class="st0" d="M914.9,1334.6v146.6c27.9-34.9,75.7-35.4,85.4-35.4c51.6,0,82.7,27.4,99.9,56.4
			c14.5,25.2,17.2,54.8,17.2,83.8c0,52.6-12.4,82.2-34.9,106.3c-30.1,32.8-64.4,36-84.8,36c-17.7,0-56.4-1.6-89.7-45.6l-3.2,39.7
			h-94.5c2.7-30.6,3.2-65.5,3.2-67.1v-320.6H914.9z M962.7,1667.5c50.5,0,50.5-64.4,50.5-82.2c0-27.4-3.2-81.1-48.3-81.1
			c-50,0-53.2,61.8-53.2,81.6C911.7,1603.6,914.9,1667.5,962.7,1667.5z"/>
		<path class="st0" d="M1243.6,1452.7v157.3c0,15,0,52.6,40.3,52.6c42.4,0,42.4-38.7,42.4-53.7v-156.3h101v222.8
			c1.1,23.1,1.1,25.8,1.6,46.7h-99.3l-2.1-41.9c-27.4,43.5-61.2,46.7-84.8,46.7c-93.4,0-99.3-70.9-99.3-122.4v-152H1243.6z"/>
		<path class="st0" d="M1627.6,1334.6h109v170.2l124-170.2h127.3l-133.7,170.8l144.4,216.9h-133.2l-128.9-206.2v206.2h-109V1334.6z"
			/>
		<path class="st0" d="M2175,1722.3c-2.1-9.7-3.2-21.5-3.2-38.7c-12.3,18.3-33.3,44-88.6,44c-66,0-95.1-36-95.1-83.8
			c0-73.6,68.2-100.4,184.2-95.6c0.5-29-3.2-55.8-33.8-55.8c-18.8,0-36.5,10.2-36,40.8h-96.7c0.5-12.3,0.5-35.4,20.9-56.4
			c20.9-21.5,62.8-33.8,111.7-33.8c24.2,0,75.7,3.2,104.2,31.1c17.2,16.6,23.6,41.9,23.6,70.9v125.6c0,19.3,0.5,24.7,5.4,51.5H2175z
			 M2087.4,1634.8c0,19.9,12.9,36.5,37.1,36.5c10.7,0,29.5-4.3,39.7-25.8c8-17.2,8-39.2,7.5-50.5
			C2128.8,1595.6,2087.4,1596.1,2087.4,1634.8z"/>
		<path class="st0" d="M2303.9,1335.7H2407v72h-103.1V1335.7z M2305,1452.7h101v269.6h-101V1452.7z"/>
		<path class="st0" d="M2447.9,1334.6h102v147.7c10.8-10.7,35.4-35.5,84.3-35.5c26.3,0,53.2,7,75.2,27.4
			c26.8,24.2,26.8,53.7,26.8,91.3v156.8h-100.4v-145c0-22.6,0-66.6-41.9-66.6c-32.2,0-39.7,26.8-42.4,37.6
			c-2.7,12.3-2.7,29.5-2.7,52.1v121.9h-101V1334.6z"/>
		<path class="st0" d="M2946.2,1722.3c-2.1-9.7-3.2-21.5-3.2-38.7c-12.3,18.3-33.3,44-88.6,44c-66,0-95-36-95-83.8
			c0-73.6,68.2-100.4,184.2-95.6c0.5-29-3.2-55.8-33.8-55.8c-18.8,0-36.5,10.2-36,40.8h-96.7c0.5-12.3,0.5-35.4,20.9-56.4
			c20.9-21.5,62.8-33.8,111.7-33.8c24.2,0,75.7,3.2,104.2,31.1c17.2,16.6,23.6,41.9,23.6,70.9v125.6c0,19.3,0.5,24.7,5.4,51.5
			H2946.2z M2858.7,1634.8c0,19.9,12.9,36.5,37.1,36.5c10.7,0,29.5-4.3,39.7-25.8c8-17.2,8-39.2,7.5-50.5
			C2900.1,1595.6,2858.7,1596.1,2858.7,1634.8z"/>
		<path class="st0" d="M3260.9,1453.8v64.4h-65v93.4c0.5,33.3,0.5,48.3,39.2,48.3c8,0,12.9,0,25.2-1.6v63.4
			c-13.4,2.2-31.1,4.8-65.5,4.8c-80.5,0-96.6-26.8-96.6-78.9v-129.4h-51v-64.4h52.6v-41.9l97.2-38.7v80.5H3260.9z"/>
		<path class="st0" d="M3366.7,1634.8c0,4.8,0,15,4.3,24.2c3.8,8.6,12.3,16.7,29.5,16.7c23.1,0,30.6-15.6,30.6-27.4
			c0-18.8-15.6-24.2-38.1-30.1l-54.8-15.6c-16.7-4.3-65.5-17.7-65.5-73c0-26.8,14.5-49.4,32.2-61.2c23.6-16.7,55.8-23.1,95.6-23.1
			c58,0,118.7,15.6,123,90.8h-95.6c0-8.1,0-18.3-3.8-26.3c-4.3-8.6-11.8-14.5-27.9-14.5c-15.6,0-30.1,7-30.1,23.6
			c0,15.6,11.3,21.5,27.4,25.8l71.9,19.9c25.8,7,63.4,21.5,63.4,74.1c0,91.3-105.8,91.3-129.4,91.3c-54.8,0-133.7-8.1-132.6-95
			H3366.7z"/>
		<path class="st0" d="M3653.7,1452.7v157.3c0,15,0,52.6,40.3,52.6c42.4,0,42.4-38.7,42.4-53.7v-156.3h101v222.8
			c1.1,23.1,1.1,25.8,1.6,46.7h-99.3l-2.1-41.9c-27.4,43.5-61.2,46.7-84.8,46.7c-93.4,0-99.3-70.9-99.3-122.4v-152H3653.7z"/>
	</g>
</g>
</svg>
