<?xml version="1.0" encoding="utf-8"?>
<!-- Generator: Adobe Illustrator 26.3.1, SVG Export Plug-In . SVG Version: 6.00 Build 0)  -->
<svg version="1.1" id="Layer_1" xmlns="http://www.w3.org/2000/svg" xmlns:xlink="http://www.w3.org/1999/xlink" x="0px" y="0px"
	 viewBox="0 0 3839 1570.4" style="enable-background:new 0 0 3839 1570.4;" xml:space="preserve">
<style type="text/css">
	.st0{fill:#009A60;}
	.st1{fill:#D6B00A;}
	.st2{fill:#FFFFFF;}
	.st3{fill:#016CC6;}
	.st4{fill:#FF156A;}
	.st5{fill:#7201FF;}
	.st6{fill:#FE0000;}
	.st7{fill:#1A3591;}
	.st8{fill:#F03190;}
	.st9{fill:#00EDEA;}
	.st10{fill:#FFF800;}
	.st11{fill:#030508;}
	.st12{fill:#4ACF93;}
	.st13{fill:#F0E257;}
	.st14{clip-path:url(#SVGID_00000145774355192119969420000011088895254233267357_);}
	.st15{clip-path:url(#SVGID_00000015337440359931967230000009687615365619962758_);}
	.st16{clip-path:url(#SVGID_00000178206277091878856160000008794295860222448265_);}
	.st17{clip-path:url(#SVGID_00000048461914366204061560000010408786942147741857_);}
	.st18{fill:url(#SVGID_00000011016813710898533860000013059403547070730174_);}
	.st19{fill:url(#SVGID_00000111175256751136036300000011637973874654470836_);}
	.st20{fill:url(#SVGID_00000167397098846087647880000004101638392004842915_);}
	.st21{fill:url(#SVGID_00000114070889047027241480000008966671995248485306_);}
	.st22{fill:url(#SVGID_00000003812758142160415300000012109706024369347511_);}
	.st23{fill:url(#SVGID_00000052092151232098341470000006767103718732236982_);}
	.st24{fill:url(#SVGID_00000031898449741799807410000003350928798288252077_);}
	.st25{fill:url(#SVGID_00000119798605991984509810000015900692680409734568_);}
	.st26{fill:url(#SVGID_00000050649267756795427000000006704871070025834638_);}
	.st27{fill:url(#SVGID_00000075151697886145332150000017423838467655117742_);}
	.st28{fill:url(#SVGID_00000147200420789242329350000006914069280912239789_);}
	.st29{fill:url(#SVGID_00000090975617994326782310000001307593132168684462_);}
	.st30{fill:url(#SVGID_00000179647254973050888570000007828878666455737730_);}
	.st31{fill:url(#SVGID_00000081629540448530607980000013181515052505477019_);}
	.st32{fill:url(#SVGID_00000127024824193019336950000001885385816072238744_);}
	.st33{fill:url(#SVGID_00000058555774420958681630000000148084357086046347_);}
	.st34{fill:url(#SVGID_00000178200021602187090790000012174831526434577082_);}
	.st35{fill:url(#SVGID_00000103237860763278634900000006008362160558786953_);}
	.st36{fill:url(#SVGID_00000077315387848673215950000001936079188097257119_);}
	.st37{fill:url(#SVGID_00000011010841548135353300000008071176909885245315_);}
	.st38{fill:url(#SVGID_00000138547505717940942800000006212758838137463681_);}
	.st39{fill:url(#SVGID_00000073679432978268697570000000833545950639468980_);}
	.st40{fill:url(#SVGID_00000181788499292447906350000000025250869875566249_);}
	.st41{fill:url(#SVGID_00000099659590431632702360000006217562578204721550_);}
	.st42{fill:url(#SVGID_00000058548804694106577210000006732018111335501237_);}
	.st43{fill:url(#SVGID_00000098928960389493412420000016602296442297360260_);}
	.st44{fill:url(#SVGID_00000040538655272207539670000018192788958377854140_);}
	.st45{fill:url(#SVGID_00000021826790317777330790000001280817647389598381_);}
	.st46{fill:url(#SVGID_00000042700949146714840050000004059241425744310956_);}
	.st47{fill:url(#SVGID_00000008837804429936519480000014490708501073632427_);}
	.st48{clip-path:url(#SVGID_00000037670174523800792310000012968935622746441125_);}
	.st49{clip-path:url(#SVGID_00000158746068542536559110000013705291746345701288_);}
	.st50{clip-path:url(#SVGID_00000008126094220870188330000016671863509100471965_);}
	.st51{clip-path:url(#SVGID_00000023998020974659466510000005029134246451342520_);}
	.st52{clip-path:url(#SVGID_00000013880774036300733640000012476717843742166408_);}
	.st53{clip-path:url(#SVGID_00000004514461102969349600000013427328239877466793_);}
	.st54{clip-path:url(#SVGID_00000142861020602993109470000004765861859973835906_);}
	.st55{clip-path:url(#SVGID_00000154426859291299682620000016758117406781643933_);}
	.st56{clip-path:url(#SVGID_00000139285553902929414730000006922591721579666344_);}
	.st57{clip-path:url(#SVGID_00000068677061549838811150000004225941232786718084_);}
	.st58{clip-path:url(#SVGID_00000173879073612546733050000001695931474107621782_);}
	.st59{clip-path:url(#SVGID_00000036969133621393872140000002646074633575314609_);}
	.st60{clip-path:url(#SVGID_00000018198909955512409550000005994019034858240681_);}
	.st61{clip-path:url(#SVGID_00000074424019800220107720000012029216504990699172_);}
	.st62{clip-path:url(#SVGID_00000032620745975188947950000000398648444271400341_);}
	.st63{clip-path:url(#SVGID_00000161619387234770492300000018264656750509509255_);}
	.st64{clip-path:url(#SVGID_00000050645593511337083490000010828239370413091248_);}
	.st65{clip-path:url(#SVGID_00000172398926798390938240000016105191695086087346_);}
	.st66{clip-path:url(#SVGID_00000034781806404790252730000003445295301675988157_);}
</style>
<g>
	<g>
		<g>
			<path class="st7" d="M3614.5,316.8v597.4h-382V316.8H3008v565.5c0,141.6,114.8,256.4,256.4,256.4h350.1h171h53.5V316.8H3614.5z"
				/>
			<path class="st7" d="M0,578.4C0,722.9,117.1,840,261.6,840h305.5c20.5,0,37.1,16.6,37.1,37.1c0,20.5-16.6,37.1-37.1,37.1H0v224.5
				h567.2c144.5,0,261.6-117.1,261.6-261.6c0-144.5-117.1-261.6-261.6-261.6H261.6c-20.5,0-37.1-16.6-37.1-37.1
				c0-20.5,16.6-37.1,37.1-37.1h567.2V316.8H261.6C117.1,316.8,0,434,0,578.4z"/>
			<rect x="1785.9" y="316.8" class="st8" width="224.5" height="821.9"/>
			<rect x="1785.9" class="st8" width="224.5" height="224.5"/>
			<path class="st7" d="M2525.8,291c-72.5,0-140.7,18.3-200.4,50.4V0h-224.5v1138.8h224.5v-50.3c59.7,32.1,127.9,50.3,200.4,50.3
				c234.1,0,423.9-189.8,423.9-423.8C2949.6,480.8,2759.9,291,2525.8,291z M2525.8,915.3c-110.7,0-200.4-89.7-200.4-200.4
				s89.7-200.4,200.4-200.4s200.4,89.7,200.4,200.4S2636.4,915.3,2525.8,915.3z"/>
			<path class="st7" d="M1294.8,291c-234.1,0-423.9,189.8-423.9,423.9c0,234.1,189.8,423.8,423.9,423.8
				c170.5,0,317.1-100.9,384.4-246h-293.9c-27.3,13.9-57.8,22.5-90.5,22.5c-63,0-118.6-29.7-155.3-75.2h310.6H1669h30.8
				c12.2-39.6,18.8-81.6,18.8-125.1C1718.6,480.8,1528.9,291,1294.8,291z M1121.8,615.5c34.6-60.1,98.7-101,173-101
				s138.4,40.9,173,101H1121.8z"/>
		</g>
	</g>
	<g>
		<path class="st7" d="M388.5,1280.2h50.2v143.7l135.9-143.7h61.6l-118.8,122.9L641.5,1566h-60.8l-97.6-128.6l-44.5,45.7v82.9h-50.2
			V1280.2z"/>
		<path class="st7" d="M936.2,1278.2h46.5l125.7,287.8h-53.1l-29-69H891.3l-29.4,69h-51.4L936.2,1278.2z M1008.1,1452.5l-49.4-114.3
			l-49,114.3H1008.1z"/>
		<path class="st7" d="M1292.5,1280.2h50.2V1566h-50.2V1280.2z"/>
		<path class="st7" d="M1555.6,1280.2h50.2V1399h136.3v-118.8h50.2V1566h-50.2v-120.4h-136.3V1566h-50.2V1280.2z"/>
		<path class="st7" d="M2100.5,1278.2h46.5l125.7,287.8h-53.1l-29-69h-135.1l-29.4,69h-51.4L2100.5,1278.2z M2172.4,1452.5
			l-49.4-114.3l-49,114.3H2172.4z"/>
		<path class="st7" d="M2486.9,1326.8h-90.6v-46.5h231.8v46.5h-90.6V1566h-50.6V1326.8z"/>
		<path class="st7" d="M2794.9,1524.3l30.2-35.9c27.3,23.7,54.7,37.1,90.2,37.1c31,0,50.6-14.3,50.6-35.9v-0.8
			c0-20.4-11.4-31.4-64.5-43.7c-60.8-14.7-95.1-32.7-95.1-85.3v-0.8c0-49,40.8-82.9,97.6-82.9c41.6,0,74.7,12.7,103.7,35.9l-26.9,38
			c-25.7-19.2-51.4-29.4-77.6-29.4c-29.4,0-46.5,15.1-46.5,33.9v0.8c0,22,13.1,31.8,67.8,44.9c60.4,14.7,91.8,36.3,91.8,83.7v0.8
			c0,53.5-42,85.3-102,85.3C2870.4,1570,2829.1,1554.9,2794.9,1524.3z"/>
		<path class="st7" d="M3206,1444.7v-164.5h50.2v162.5c0,53.1,27.3,81.6,72.2,81.6c44.5,0,71.8-26.9,71.8-79.6v-164.5h50.2v162
			c0,85.3-48.2,128.2-122.9,128.2C3253.4,1570.4,3206,1527.6,3206,1444.7z"/>
	</g>
</g>
</svg>
