<?xml version="1.0" encoding="utf-8"?>
<!-- Generator: Adobe Illustrator 26.0.2, SVG Export Plug-In . SVG Version: 6.00 Build 0)  -->
<svg version="1.1" id="Layer_1" xmlns="http://www.w3.org/2000/svg" xmlns:xlink="http://www.w3.org/1999/xlink" x="0px" y="0px"
	 viewBox="0 0 3839 1179.7" style="enable-background:new 0 0 3839 1179.7;" xml:space="preserve">
<style type="text/css">
	.st0{display:none;}
	.st1{display:inline;}
	.st2{fill:#C2AC6D;}
	.st3{fill:#FFFFFF;}
	.st4{fill:#F91716;}
	.st5{fill-rule:evenodd;clip-rule:evenodd;fill:#F91716;}
	.st6{fill-rule:evenodd;clip-rule:evenodd;}
	.st7{fill-rule:evenodd;clip-rule:evenodd;fill:#FFFFFF;}
</style>
<g>
	<g>
		<g>
			<g>
				<path class="st5" d="M3464.6,387.1h-647.8V203.9h407l40.2,69.7h277.6L3464,139.1c-49.7-86-141.5-139-240.8-139H2739
					c-68.8,0-177.9,55.8-177.9,124.5V475c0,68.7,120.6,116,208.1,116h678.1L3553,774.1h-736.2v-69.7h-255.7v120.9
					c0,84.3,51.1,152.6,201,152.6h927.1c115.1,0,187.1-124.6,129.5-224.3l-140.3-243.1C3634.3,434.1,3552.8,387.1,3464.6,387.1z"/>
				<g>
					<path class="st5" d="M1147.7,75.4l-245.3,425V150.8c0-83.2-67.5-150.7-150.7-150.7H651.6c-53.8,0-103.6,28.7-130.5,75.3
						L0,977.9h277.6L662,312.1v531.7c0,74.1,60,134.1,134.1,134.1h30.7c47.9,0,92.2-25.6,116.1-67.1l327.6-567.4v634.4h255.7V125
						c0-89.5-84.8-124.9-153.8-124.9h-94.3C1224.4,0.1,1174.6,28.8,1147.7,75.4z"/>
				</g>
				<g>
					<path class="st5" d="M2215,858L2535.7,0.1h-240.9L2042,676.2L1789.2,0h-240.9L1869,857.9c27,72.2,95.9,120,172.9,120l0,0
						C2119.1,977.9,2188,930.1,2215,858z"/>
				</g>
				<path class="st5" d="M475,1063.9c-2.5-9.2-7.5-17.6-14.3-24.4c-31.9-31.8-83.7-32.2-116.2-1.3c-32.4-30.9-84.3-30.5-116.2,1.3
					c-6.8,6.8-11.7,15.2-14.3,24.4c-0.5,1.8-0.7,3-0.7,3.4l0,0l0,0v112.4h33.1v-110.5l0,0c20.1-27.7,61.5-27.7,81.6,0v110.5h33.1
					v-110.5c20.1-27.7,61.5-27.7,81.6,0l0,0v110.5h33.1v-112.4C475.7,1066.9,475.5,1065.6,475,1063.9z"/>
				<path class="st5" d="M3618.6,1063.9c-2.5-9.2-7.5-17.6-14.3-24.4c-31.9-31.8-83.7-32.2-116.2-1.3
					c-32.4-30.9-84.3-30.5-116.2,1.3c-6.8,6.8-11.7,15.2-14.3,24.4c-0.5,1.8-0.7,3-0.7,3.4l0,0l0,0v112.4h33.1v-110.5l0,0
					c20.1-27.7,61.5-27.7,81.6,0v110.5h33.1v-110.5c20.1-27.7,61.5-27.7,81.6,0l0,0v110.5h33.1v-112.4
					C3619.3,1066.9,3619.1,1065.6,3618.6,1063.9z"/>
				<path class="st5" d="M767.2,1146.6L767.2,1146.6c-8.3,0-16.5-5.5-16.5-16.5l0,0v-114.7h-33.1v114.7c0,33.1,24.8,49.6,49.6,49.6
					H889v-33.1H767.2z"/>
				<rect x="1107.6" y="1015.3" class="st5" width="33.1" height="164.3"/>
				<rect x="1540.1" y="1015.3" class="st5" width="33.1" height="164.3"/>
				<polygon class="st5" points="1093,1015.3 1014.8,1015.3 981.8,1015.3 902.6,1015.3 902.6,1048.4 981.8,1048.4 981.8,1179.6 
					1014.8,1179.6 1014.8,1048.4 1093,1048.4 				"/>
				<polygon class="st5" points="3129.9,1015.3 3051.7,1015.3 3018.7,1015.3 2939.5,1015.3 2939.5,1048.4 3018.7,1048.4 
					3018.7,1179.6 3051.7,1179.6 3051.7,1048.4 3129.9,1048.4 				"/>
				<path class="st5" d="M669.4,1015.3V1130l0,0c0,11-8.3,16.5-16.5,16.5l0,0H550.3l0,0c-8.3,0-16.5-5.5-16.5-16.5l0,0v-114.7h-33.1
					V1130c0,33.1,24.8,49.6,49.6,49.6h102.6c24.8,0,49.6-16.5,49.6-49.6v-114.7H669.4z"/>
				<path class="st5" d="M1741.3,1015.3h-118.2h-27.9h-5.1v164.3h5.1h27.9h118.2c33.1,0,49.6-24.8,49.6-49.6v-65.1
					C1790.9,1040.1,1774.4,1015.3,1741.3,1015.3z M1741.3,1146.6h-118.2v-98.2h118.2l0,0c11,0,16.5,8.3,16.5,16.5l0,0v65.1l0,0
					C1757.9,1138.3,1752.4,1146.6,1741.3,1146.6z"/>
				<path class="st5" d="M2000.9,1048.4v-33.1h-146.1c-33.1,0-49.6,24.8-49.6,49.6v65.1c0,24.8,16.5,49.6,49.6,49.6h146.1v-33.1
					h-146.1c-11,0-16.5-8.3-16.5-16.5l0,0v-16H2000v-33.1h-161.7v-16l0,0c0-8.3,5.5-16.5,16.5-16.5l0,0H2000.9z"/>
				<path class="st5" d="M3339,1048.4v-33.1h-146.1c-33.1,0-49.6,24.8-49.6,49.6v65.1c0,24.8,16.5,49.6,49.6,49.6H3339v-33.1h-146.1
					c-11,0-16.5-8.3-16.5-16.5l0,0v-16h161.7v-33.1h-161.7v-16l0,0c0-8.3,5.5-16.5,16.5-16.5l0,0H3339z"/>
				<path class="st5" d="M2356.5,1048.4h145.3v-33.1h-145.3l0,0c-65.8,0-65.8,98.7,0,98.7l0,0h96l0,0c21.7,0,21.7,32.6,0,32.6l0,0
					h-145.3v33.1h145.3l0,0c65.8,0,65.8-98.7,0-98.7h-96C2334.8,1081,2334.8,1048.4,2356.5,1048.4z"/>
				<path class="st5" d="M2777.9,1048.4h145.3v-33.1h-145.3l0,0c-65.8,0-65.8,98.7,0,98.7l0,0h96l0,0c21.7,0,21.7,32.6,0,32.6l0,0
					h-145.3v33.1h145.3l0,0c65.8,0,65.8-98.7,0-98.7h-96C2756.2,1081,2756.2,1048.4,2777.9,1048.4z"/>
				<path class="st5" d="M2165.8,1015.3L2165.8,1015.3L2165.8,1015.3h-103.6l0,0l0,0c-33.1,0-49.6,24.8-49.6,49.6v65.1
					c0,24.8,16.5,49.6,49.6,49.6l0,0l0,0h103.6l0,0l0,0c33.1,0,49.6-24.8,49.6-49.6v-65.1
					C2215.3,1040.1,2198.8,1015.3,2165.8,1015.3z M2062.2,1146.6c-11,0-16.5-8.3-16.5-16.5l0,0V1065l0,0c0-8.3,5.5-16.5,16.5-16.5
					h103.6c11,0,16.5,8.3,16.5,16.5l0,0v65.1l0,0c0,8.3-5.5,16.5-16.5,16.5H2062.2z"/>
				<polygon class="st5" points="1487,1015.3 1412.3,1139.7 1337.6,1015.3 1299,1015.3 1397.7,1179.6 1426.9,1179.6 1525.6,1015.3 
									"/>
			</g>
		</g>
		<path class="st4" d="M2683.6,1015.8v51.2c0,8.3-5.5,16.5-16.5,16.5h-99.9c-11,0-16.5-8.3-16.5-16.5v-51.2h-33.1v51.2
			c0,24.8,16.5,49.6,49.6,49.6h33.4v62.6h33.1v-62.6h33.4c33.1,0,49.6-24.8,49.6-49.6v-51.2H2683.6z"/>
	</g>
</g>
</svg>
