<?xml version="1.0" encoding="utf-8"?>
<!-- Generator: Adobe Illustrator 26.3.1, SVG Export Plug-In . SVG Version: 6.00 Build 0)  -->
<svg version="1.1"
	 id="svg2" xmlns:rdf="http://www.w3.org/1999/02/22-rdf-syntax-ns#" xmlns:sodipodi="http://sodipodi.sourceforge.net/DTD/sodipodi-0.dtd" xmlns:svg="http://www.w3.org/2000/svg" xmlns:dc="http://purl.org/dc/elements/1.1/" xmlns:inkscape="http://www.inkscape.org/namespaces/inkscape" xmlns:cc="http://creativecommons.org/ns#"
	 xmlns="http://www.w3.org/2000/svg" xmlns:xlink="http://www.w3.org/1999/xlink" x="0px" y="0px" viewBox="0 0 3839 1343.3"
	 style="enable-background:new 0 0 3839 1343.3;" xml:space="preserve">
<style type="text/css">
	.st0{fill:#0A0B10;}
	.st1{opacity:0.84;}
	.st2{fill:#FF821E;}
	.st3{fill:#FFF200;}
	.st4{fill:#FFFFFF;}
</style>
<g>
	<g>
		<g>
			<path class="st4" d="M29.5,1328.5c-8.2,0-14.8-6.6-14.8-14.8V29.5c0-8.2,6.6-14.8,14.8-14.8h3779.9c8.2,0,14.8,6.6,14.8,14.8
				v1284.2c0,8.2-6.6,14.8-14.8,14.8H29.5z"/>
			<path class="st4" d="M3809.5,29.5v9.8v1264.6v9.8h-9.8H39.3h-9.8v-9.8V39.3v-9.8h9.8h3760.3H3809.5 M3809.5,0h-9.8H39.3h-9.8
				C13.2,0,0,13.2,0,29.5v9.8v1264.6v9.8c0,16.3,13.2,29.5,29.5,29.5h9.8h3760.3h9.8c16.3,0,29.5-13.2,29.5-29.5v-9.8V39.3v-9.8
				C3839,13.2,3825.8,0,3809.5,0L3809.5,0z"/>
		</g>
		<rect x="34.4" y="34.4" class="st0" width="3770.1" height="1274.4"/>
	</g>
	<g>
		<g class="st1">
			<g>
				<circle class="st2" cx="289.6" cy="1040.5" r="49.5"/>
				<circle class="st2" cx="289.6" cy="935.1" r="49.5"/>
				<circle class="st2" cx="394.9" cy="1040.5" r="49.5"/>
				<circle class="st2" cx="394.9" cy="935.1" r="49.5"/>
				<circle class="st2" cx="500.2" cy="1040.5" r="49.5"/>
				<circle class="st2" cx="500.2" cy="935.1" r="49.5"/>
				<circle class="st2" cx="605.5" cy="1040.5" r="49.5"/>
				<circle class="st2" cx="605.5" cy="935.1" r="49.5"/>
				<circle class="st2" cx="710.8" cy="935.1" r="49.5"/>
			</g>
			<g>
				<circle class="st2" cx="605.5" cy="829.7" r="49.5"/>
				<circle class="st2" cx="710.8" cy="829.7" r="49.5"/>
			</g>
			<g>
				<circle class="st2" cx="394.9" cy="724.3" r="49.5"/>
				<circle class="st2" cx="500.2" cy="724.3" r="49.5"/>
				<circle class="st2" cx="605.5" cy="724.3" r="49.5"/>
				<circle class="st2" cx="710.8" cy="724.3" r="49.5"/>
			</g>
			<g>
				<circle class="st2" cx="289.6" cy="618.9" r="49.5"/>
				<circle class="st2" cx="394.9" cy="618.9" r="49.5"/>
				<circle class="st2" cx="500.2" cy="618.9" r="49.5"/>
				<circle class="st2" cx="605.5" cy="618.9" r="49.5"/>
			</g>
			<g>
				<circle class="st2" cx="289.6" cy="513.6" r="49.5"/>
				<circle class="st2" cx="394.9" cy="513.6" r="49.5"/>
			</g>
			<g>
				<circle class="st2" cx="289.6" cy="408.2" r="49.5"/>
				<circle class="st2" cx="394.9" cy="408.2" r="49.5"/>
				<circle class="st2" cx="500.2" cy="408.2" r="49.5"/>
				<circle class="st2" cx="605.5" cy="408.2" r="49.5"/>
				<circle class="st2" cx="710.8" cy="408.2" r="49.5"/>
			</g>
			<g>
				<circle class="st2" cx="394.9" cy="302.8" r="49.5"/>
				<circle class="st2" cx="500.2" cy="302.8" r="49.5"/>
				<circle class="st2" cx="605.5" cy="302.8" r="49.5"/>
				<circle class="st2" cx="710.8" cy="302.8" r="49.5"/>
			</g>
		</g>
		<g class="st1">
			<g>
				<circle class="st2" cx="1567.6" cy="1040.5" r="49.5"/>
				<circle class="st2" cx="1567.6" cy="935.1" r="49.5"/>
				<circle class="st2" cx="1672.9" cy="1040.5" r="49.5"/>
				<circle class="st2" cx="1672.9" cy="935.1" r="49.5"/>
				<circle class="st2" cx="1778.2" cy="1040.5" r="49.5"/>
				<circle class="st2" cx="1778.2" cy="935.1" r="49.5"/>
				<circle class="st2" cx="1883.5" cy="1040.5" r="49.5"/>
				<circle class="st2" cx="1883.5" cy="935.1" r="49.5"/>
				<circle class="st2" cx="1988.8" cy="1040.5" r="49.5"/>
				<circle class="st2" cx="1988.8" cy="935.1" r="49.5"/>
			</g>
			<g>
				<circle class="st2" cx="1567.6" cy="829.7" r="49.5"/>
				<circle class="st2" cx="1672.9" cy="829.7" r="49.5"/>
			</g>
			<g>
				<circle class="st2" cx="1567.6" cy="724.3" r="49.5"/>
				<circle class="st2" cx="1672.9" cy="724.3" r="49.5"/>
				<circle class="st2" cx="1778.2" cy="724.3" r="49.5"/>
				<circle class="st2" cx="1883.5" cy="724.3" r="49.5"/>
				<circle class="st2" cx="1988.8" cy="724.3" r="49.5"/>
			</g>
			<g>
				<circle class="st2" cx="1567.6" cy="618.9" r="49.5"/>
				<circle class="st2" cx="1672.9" cy="618.9" r="49.5"/>
				<circle class="st2" cx="1778.2" cy="618.9" r="49.5"/>
				<circle class="st2" cx="1883.5" cy="618.9" r="49.5"/>
				<circle class="st2" cx="1988.8" cy="618.9" r="49.5"/>
			</g>
			<g>
				<circle class="st2" cx="1567.6" cy="513.6" r="49.5"/>
				<circle class="st2" cx="1672.9" cy="513.6" r="49.5"/>
			</g>
			<g>
				<circle class="st2" cx="1567.6" cy="408.2" r="49.5"/>
				<circle class="st2" cx="1672.9" cy="408.2" r="49.5"/>
				<circle class="st2" cx="1778.2" cy="408.2" r="49.5"/>
				<circle class="st2" cx="1883.5" cy="408.2" r="49.5"/>
				<circle class="st2" cx="1988.8" cy="408.2" r="49.5"/>
			</g>
			<g>
				<circle class="st2" cx="1567.6" cy="302.8" r="49.5"/>
				<circle class="st2" cx="1672.9" cy="302.8" r="49.5"/>
				<circle class="st2" cx="1778.2" cy="302.8" r="49.5"/>
				<circle class="st2" cx="1883.5" cy="302.8" r="49.5"/>
				<circle class="st2" cx="1988.8" cy="302.8" r="49.5"/>
			</g>
		</g>
		<g class="st1">
			<circle class="st2" cx="1088.7" cy="1040.5" r="49.5"/>
			<circle class="st2" cx="1088.7" cy="935.1" r="49.5"/>
			<circle class="st2" cx="1088.7" cy="829.7" r="49.5"/>
			<circle class="st2" cx="1088.7" cy="724.3" r="49.5"/>
			<circle class="st2" cx="1088.7" cy="618.9" r="49.5"/>
			<circle class="st2" cx="1088.7" cy="513.6" r="49.5"/>
			<circle class="st2" cx="878.1" cy="408.2" r="49.5"/>
			<circle class="st2" cx="983.4" cy="408.2" r="49.5"/>
			<circle class="st2" cx="1088.7" cy="408.2" r="49.5"/>
			<circle class="st2" cx="878.1" cy="302.8" r="49.5"/>
			<circle class="st2" cx="983.4" cy="302.8" r="49.5"/>
			<circle class="st2" cx="1088.7" cy="302.8" r="49.5"/>
			<g>
				<circle class="st2" cx="1194" cy="1040.5" r="49.5"/>
				<circle class="st2" cx="1194" cy="935.1" r="49.5"/>
				<circle class="st2" cx="1194" cy="829.7" r="49.5"/>
				<circle class="st2" cx="1194" cy="724.3" r="49.5"/>
				<circle class="st2" cx="1194" cy="618.9" r="49.5"/>
				<circle class="st2" cx="1194" cy="513.6" r="49.5"/>
				<circle class="st2" cx="1194" cy="408.2" r="49.5"/>
				<circle class="st2" cx="1299.3" cy="408.2" r="49.5"/>
				<circle class="st2" cx="1194" cy="302.8" r="49.5"/>
				<circle class="st2" cx="1299.3" cy="302.8" r="49.5"/>
			</g>
			<g>
				<circle class="st2" cx="1404.6" cy="408.2" r="49.5"/>
				<circle class="st2" cx="1404.6" cy="302.8" r="49.5"/>
			</g>
		</g>
		<g class="st1">
			<circle class="st2" cx="2189.9" cy="1040.5" r="49.5"/>
			<circle class="st2" cx="2189.9" cy="935.1" r="49.5"/>
			<circle class="st2" cx="2295.3" cy="1040.5" r="49.5"/>
			<circle class="st2" cx="2295.3" cy="935.1" r="49.5"/>
			<circle class="st2" cx="2189.9" cy="829.7" r="49.5"/>
			<circle class="st2" cx="2295.3" cy="829.7" r="49.5"/>
			<circle class="st2" cx="2189.9" cy="724.3" r="49.5"/>
			<circle class="st2" cx="2295.3" cy="724.3" r="49.5"/>
			<circle class="st2" cx="2400.6" cy="724.3" r="49.5"/>
			<circle class="st2" cx="2189.9" cy="618.9" r="49.5"/>
			<circle class="st2" cx="2295.3" cy="618.9" r="49.5"/>
			<circle class="st2" cx="2400.6" cy="618.9" r="49.5"/>
			<circle class="st2" cx="2189.9" cy="513.6" r="49.5"/>
			<circle class="st2" cx="2295.3" cy="513.6" r="49.5"/>
			<circle class="st2" cx="2189.9" cy="408.2" r="49.5"/>
			<circle class="st2" cx="2295.3" cy="408.2" r="49.5"/>
			<circle class="st2" cx="2400.6" cy="408.2" r="49.5"/>
			<circle class="st2" cx="2189.9" cy="302.8" r="49.5"/>
			<circle class="st2" cx="2295.3" cy="302.8" r="49.5"/>
			<circle class="st2" cx="2400.6" cy="302.8" r="49.5"/>
			<g>
				<circle class="st2" cx="2611.2" cy="1040.5" r="49.5"/>
				<circle class="st2" cx="2611.2" cy="935.1" r="49.5"/>
				<circle class="st2" cx="2611.2" cy="829.7" r="49.5"/>
				<circle class="st2" cx="2505.9" cy="724.3" r="49.5"/>
				<circle class="st2" cx="2611.2" cy="724.3" r="49.5"/>
				<circle class="st2" cx="2505.9" cy="618.9" r="49.5"/>
				<circle class="st2" cx="2611.2" cy="618.9" r="49.5"/>
				<circle class="st2" cx="2611.2" cy="513.6" r="49.5"/>
				<circle class="st2" cx="2505.9" cy="408.2" r="49.5"/>
				<circle class="st2" cx="2611.2" cy="408.2" r="49.5"/>
				<circle class="st2" cx="2505.9" cy="302.8" r="49.5"/>
				<circle class="st2" cx="2611.2" cy="302.8" r="49.5"/>
			</g>
			<g>
				<circle class="st2" cx="2716.5" cy="1040.5" r="49.5"/>
				<circle class="st2" cx="2716.5" cy="935.1" r="49.5"/>
				<circle class="st2" cx="2716.5" cy="829.7" r="49.5"/>
				<circle class="st2" cx="2716.5" cy="618.9" r="49.5"/>
				<circle class="st2" cx="2716.5" cy="513.6" r="49.5"/>
				<circle class="st2" cx="2716.5" cy="408.2" r="49.5"/>
			</g>
		</g>
		<g class="st1">
			<circle class="st2" cx="2917.6" cy="1040.5" r="49.5"/>
			<circle class="st2" cx="2917.6" cy="935.1" r="49.5"/>
			<circle class="st2" cx="3022.9" cy="1040.5" r="49.5"/>
			<circle class="st2" cx="3022.9" cy="935.1" r="49.5"/>
			<circle class="st2" cx="2917.6" cy="829.7" r="49.5"/>
			<circle class="st2" cx="3022.9" cy="829.7" r="49.5"/>
			<circle class="st2" cx="2917.6" cy="724.3" r="49.5"/>
			<circle class="st2" cx="3022.9" cy="724.3" r="49.5"/>
			<circle class="st2" cx="2917.6" cy="618.9" r="49.5"/>
			<circle class="st2" cx="3022.9" cy="618.9" r="49.5"/>
			<circle class="st2" cx="3128.2" cy="618.9" r="49.5"/>
			<circle class="st2" cx="2917.6" cy="513.6" r="49.5"/>
			<circle class="st2" cx="3022.9" cy="513.6" r="49.5"/>
			<circle class="st2" cx="3128.2" cy="513.6" r="49.5"/>
			<circle class="st2" cx="2917.6" cy="408.2" r="49.5"/>
			<circle class="st2" cx="3022.9" cy="408.2" r="49.5"/>
			<circle class="st2" cx="3128.2" cy="408.2" r="49.5"/>
			<circle class="st2" cx="2917.6" cy="302.8" r="49.5"/>
			<circle class="st2" cx="3022.9" cy="302.8" r="49.5"/>
			<g>
				<circle class="st2" cx="3338.8" cy="829.7" r="49.5"/>
				<circle class="st2" cx="3233.5" cy="724.3" r="49.5"/>
				<circle class="st2" cx="3338.8" cy="724.3" r="49.5"/>
				<circle class="st2" cx="3233.5" cy="618.9" r="49.5"/>
				<circle class="st2" cx="3338.8" cy="618.9" r="49.5"/>
				<circle class="st2" cx="3233.5" cy="513.6" r="49.5"/>
			</g>
			<g>
				<circle class="st2" cx="3444.1" cy="1040.5" r="49.5"/>
				<circle class="st2" cx="3444.1" cy="935.1" r="49.5"/>
				<circle class="st2" cx="3549.4" cy="1040.5" r="49.5"/>
				<circle class="st2" cx="3549.4" cy="935.1" r="49.5"/>
				<circle class="st2" cx="3444.1" cy="829.7" r="49.5"/>
				<circle class="st2" cx="3549.4" cy="829.7" r="49.5"/>
				<circle class="st2" cx="3444.1" cy="724.3" r="49.5"/>
				<circle class="st2" cx="3549.4" cy="724.3" r="49.5"/>
				<circle class="st2" cx="3444.1" cy="618.9" r="49.5"/>
				<circle class="st2" cx="3549.4" cy="618.9" r="49.5"/>
				<circle class="st2" cx="3444.1" cy="513.6" r="49.5"/>
				<circle class="st2" cx="3549.4" cy="513.6" r="49.5"/>
				<circle class="st2" cx="3444.1" cy="408.2" r="49.5"/>
				<circle class="st2" cx="3549.4" cy="408.2" r="49.5"/>
				<circle class="st2" cx="3444.1" cy="302.8" r="49.5"/>
				<circle class="st2" cx="3549.4" cy="302.8" r="49.5"/>
			</g>
		</g>
	</g>
</g>
</svg>
