<?xml version="1.0" encoding="utf-8"?>
<!-- Generator: Adobe Illustrator 27.0.1, SVG Export Plug-In . SVG Version: 6.00 Build 0)  -->
<svg version="1.1" id="Layer_1" xmlns="http://www.w3.org/2000/svg" xmlns:xlink="http://www.w3.org/1999/xlink" x="0px" y="0px"
	 viewBox="0 0 3839 872.9" style="enable-background:new 0 0 3839 872.9;" xml:space="preserve">
<style type="text/css">
	.st0{fill:#FCFCFC;}
	.st1{fill:#333333;}
	.st2{fill:#0B61A8;}
</style>
<g>
	<path class="st0" d="M1863.1,872.9c-25.4,0-51.1-2.3-74.2-6.7c-26.7-4.8-51.2-12.8-72.8-23.8l-105.5-49.8l14.6-25.8h-167.1
		l8.8-15.5c-4.2,1.7-8.4,3.4-12.6,5l-2.1,0.8c-38.8,13.7-79.3,20.6-120.3,20.6c-46.7,0-85.2-8.8-117.6-26.8l-0.5-0.3
		c-14-7.9-26.5-17.4-37.3-28.2l-25.1,44.3h-370v-0.1H370.2l-17,0.1H0l243.6-430H163L338.7,26.3h568.6l-0.1,0.1h212.5l17-0.1h420.2
		c29.8-7.9,60.7-11.9,91.9-11.9c46.5,0,86.3,9.1,118.2,27.1l0.5,0.3c5.2,3,10.2,6.2,15,9.6l14.2-25.1h531.7l-69.3,122.3h218.6
		c12.4-2.4,24.9-4,37-4.8c7.4-0.5,15.1-0.7,22.8-0.7c25.6,0,83.6,5,124.6,46.3c51.8-30.4,108.5-46.3,165.2-46.3
		c32.1,0,60.8,5.2,85.2,15.5c21.5,9.1,39.7,22,54.4,38.6c7.4,8.4,13.3,17,18,25.5L2977,0h354.3l1.1,30.5l36-30.5H3839l-492.6,417.2
		l12.6,349.1h-354.3l-2.1-57.9l-68.3,57.9h-300.6c-17.3,2.6-35.4,3.9-53.6,3.9c-45.6,0-84.2-10.9-114.8-32.5
		c-7.7-5.4-14.8-11.4-21.3-18c-1.2,0.8-2.4,1.5-3.7,2.2c-53.5,32.1-105.1,40.6-140.3,44l-58.5,103.3h-319.4
		C1902.9,871.7,1883.1,872.9,1863.1,872.9z"/>
	<path class="st1" d="M3759.9,29H3379l-73.5,62.2l-2.2-62.2H3007l11,305.7l-61,51.7c16.1-40.8,21.6-75.5,17.2-106.3
		c-3.6-25.9-24.8-108-146.9-108c-59.7,0-118.5,19.1-171.5,55.6c-31.9-49.9-92.3-55.6-118.3-55.6c-7,0-14.1,0.2-20.8,0.7
		c-12.1,0.8-24.4,2.5-36.8,5H2451l0.1-0.1h-241.7l69.3-122.3h-465.1l-23.8,42c-10-11.9-22.2-22.2-36.6-30.3l-0.4-0.2
		c-27.5-15.5-62.5-23.3-104-23.3c-30,0-59.5,4-88.1,11.9h-424.1v0.1h-98.9H982H851.6l0.1-0.1h-496l-143,252.3h80.6l-243.6,430h303.4
		v-0.1h242.4h155.2H831v0.1h303.4l38.8-68.5c11.5,23,30.2,42.3,54.6,56.1l0.4,0.2c28,15.6,61.9,23.1,103.6,23.1
		c37.7,0,74.9-6.4,110.7-19l1.5-0.6c35.4-13.4,67.7-31.5,95.9-53.7c2-1.5,3.9-3.1,5.9-4.7l-37.9,67H1675l-23.7,41.9l77.7,36.7
		c19.1,9.8,41,17,65.2,21.3c21.5,4.1,45.3,6.2,69,6.2c21.9,0,43.1-1.6,63.5-4.7l-0.5,0.9h298.4c0,0,40.9-72.1,57.9-102.2
		c4-0.1,7.9-0.4,11.7-0.7c32.4-2.9,81.2-10.3,131.2-40.3c8.4-5,16.5-10.4,24.3-16.1c8.4,12.8,19.2,23.9,32.2,33
		c25.6,18.1,58.7,27.2,98.2,27.2c17.7,0,34.9-1.3,51.5-3.9h292.1l105.8-89.6l3.2,89.6H3329l-12-333.1L3759.9,29z"/>
	<path class="st0" d="M2194.3,249.8l-162.2,285.9c-6.4,11.2-14.9,21-25.1,28.8l0,0c-4.2-12.9-9.8-30.3-12.7-35.5l159.4-279.3H2021
		L1860.3,534l39,112.1h75.5c-9.7,14.9-19.5,25.7-30.7,32.9c-12.5,8.1-28,12.2-47.5,12.2c-12.6,0-25.4-1.1-36.3-2.8
		c-12.6-1.8-26.6-4.9-39.2-8.9l-25.2-8.8l-43.5,76.9l8.6,4.1c12.7,6.7,28.1,11.8,46.1,15c18.3,3.5,37.8,5,56,5
		c53.1,0,100.7-11,141.1-33.1c43.4-22.8,76.7-56.6,102.1-99.8l220.8-389L2194.3,249.8"/>
	<path class="st0" d="M2597.8,271.6c-8.3-18.2-29.3-27.4-60.2-27.4c-5.4,0-10.8,0.2-16,0.5c-16.6,1.1-33.1,4.4-49.1,9.3l-21.4,6.6
		l6.1-10.7h-113.7L2050,768h132.4c0,0,59.9-105.7,60.4-106.6c12.6,4.8,31.2,5.2,44.9,4c33.3-3,67-10.2,100.6-30.3
		c33.4-20,61.6-46.9,83.8-80.2c12.7-18.5,23.8-36,33.6-52.1l32.1-54.8c11.2-19.5,21-38.7,30.8-57.1c9.8-19,16.6-33.8,21-45
		C2603.4,314.3,2604.8,289.4,2597.8,271.6z M2428.7,396.2l-28,52.8l-37.8,63.8l-25.3,41.2c-1.5,2.4-4.8,7.6-8.1,12.8
		c-5.9,9.2-16.1,14.8-27.1,14.8h-14.6l137.9-243.4h13.7c7.7,0,12.9,7.9,9.8,15C2443.2,366.8,2434.4,386.2,2428.7,396.2z"/>
	<path class="st0" d="M929.1,127.6L702.8,665.5H563.1l47.5-97h-50.4l-62.9,97H356.2l374.5-537.9L929.1,127.6 M660.8,473.2
		c28-60.9,62.9-136.4,107.7-226.2c-72.7,103.2-124.3,178.6-155.2,226.2H660.8z"/>
	<polygon class="st0" points="1162.6,127.6 857.9,665.5 719.5,665.5 1024.2,127.6 	"/>
	<polygon class="st0" points="713.3,127.5 638.1,235.5 554.7,235.5 311.1,665.6 173.7,665.6 417.3,235.5 336.6,235.5 397.7,127.5 	
		"/>
	<polygon class="st0" points="2154.8,127.5 2093.6,235.5 2012.7,235.5 1769.1,665.6 1631.7,665.6 1875.3,235.5 1794.7,235.5 
		1855.8,127.5 	"/>
	<path class="st0" d="M1746.8,171.9c-2.7-18.6-12.6-32.7-29.3-42.3c-16.8-9.5-40.5-14-68.5-14c-29.3,0-58.7,4.9-86.7,14.9
		c-27.8,10.1-54.5,24.3-78.2,43c-23.7,18.6-43.3,39.2-57.3,61.7c-15.4,22.5-39.2,60.8-69.9,114.7l-51.7,92.3
		c-30.7,55.3-51.6,94.1-61.4,116.2c-11.2,22.1-14.1,42.8-11.2,61.6c2.7,18.9,13.9,32.9,30.7,42.4c16.8,9.3,39.2,14,68.5,14
		s58.7-5,86.7-14.9c26.5-10,53.1-24.2,76.8-43c23.7-18.5,43.3-39.1,58.7-61.4c15.4-22.7,37.8-60.9,68.4-115l51.9-92.3
		c32.1-55.2,53-94,62.8-116.4C1746.8,211.4,1751.1,190.9,1746.8,171.9z M1609,224.5l-196.7,345.8c-7.8,13.6-24.9,18.3-38.3,10.4
		c-4.3-2.6-5.8-8.2-3.3-12.6l196.7-345.8c7.8-13.6,24.9-18.3,38.3-10.4C1610.1,214.4,1611.5,220,1609,224.5z"/>
	<polygon class="st0" points="1478,127.5 1416.8,235.5 1335.9,235.5 1092.3,665.6 954.9,665.6 1198.5,235.5 1117.8,235.5 
		1178.9,127.5 	"/>
	<polygon class="st2" points="3405.6,101.2 3084.8,372.8 2739.8,665.1 2897.1,665.1 3086.6,504.6 3237,377.3 3562.9,101.2 	"/>
	<polygon class="st2" points="3254,665.1 3233.7,101.2 3082,101.2 3102.3,665.1 	"/>
	<path class="st0" d="M2902.8,290.1c-4.1-30.3-29.2-45.9-75.4-45.9c-51.7,0-102.1,18.9-148.2,56c-46.1,35.5-88,88-127.2,156.1
		c-39,68.5-55.8,121.1-51.6,156.5c4.1,37.3,30.7,56,79.6,56c41.9,0,79.7-9.2,111.8-27.4c32.2-19,60.1-48.1,82.5-86.3
		c0,0,5.7-9.7,7.6-12.9c0.8-1.3,3.1-5.2,3.1-5.2h-102.6l-2.6,4.6l-10.7,18.5c-4.8,8.8-9.3,12.4-10.6,13.8c-1.7,1.9-3.9,3.2-6.3,3.9
		l-1.8,0.5c-5.4,1.5-11.1-0.5-14.4-5.1c-2.8-3.9-3.4-8.9-1.7-13.4c5-12.5,16.7-36.8,43.5-83.4h150.9l32.2-57.8
		C2893.1,362.4,2907,319.2,2902.8,290.1z M2783.5,349.3c-3.6,8.3-9.9,21.6-21.8,43h-36.3c13.9-22.9,21.4-34.5,26.1-41.1l0,0
		C2768.7,325.7,2790.4,332.1,2783.5,349.3z"/>
</g>
</svg>
