<?xml version="1.0" encoding="utf-8"?>
<!-- Generator: Adobe Illustrator 26.3.1, SVG Export Plug-In . SVG Version: 6.00 Build 0)  -->
<svg version="1.1" id="Layer_1" xmlns="http://www.w3.org/2000/svg" xmlns:xlink="http://www.w3.org/1999/xlink" x="0px" y="0px"
	 viewBox="0 0 3839 1394.2" style="enable-background:new 0 0 3839 1394.2;" xml:space="preserve">
<style type="text/css">
	.st0{fill:#FFFFFF;}
	.st1{fill:#E65D0D;}
	.st2{fill:#FF2400;}
	.st3{fill:#FFE600;}
	.st4{fill:#000206;}
	.st5{fill:#FFFDF9;}
	.st6{fill:#A1853E;}
	.st7{fill:#76CEFF;}
	.st8{fill:#0076CE;}
	.st9{font-family:'HelveticaNeueLTStd-Md';}
	.st10{font-size:104.2507px;}
</style>
<g>
	<polygon class="st0" points="3544.3,1002.1 1919.5,1394.2 294.7,1002.1 0,0 3839,0 	"/>
	<g>
		<polygon class="st8" points="999.2,920.3 839.8,884.4 839.8,491.9 999.2,491.9 		"/>
		<rect x="1839.8" y="565.6" class="st8" width="159.3" height="559.7"/>
		<path class="st8" d="M2942.8,354.8c-160.7,0-295.5,130.3-301.1,291c-5.6,160.7,120.1,291,280.8,291s295.5-130.3,301.1-291
			C3229.2,485.1,3103.5,354.8,2942.8,354.8z M2927.7,786.2c-77.5,0-138.2-62.8-135.5-140.4c2.7-77.5,67.7-140.4,145.3-140.4
			c77.5,0,138.2,62.8,135.5,140.4C3070.3,723.3,3005.3,786.2,2927.7,786.2z"/>
		<g>
			<polygon class="st8" points="2451.7,1007.9 2292.4,1043.8 2292.4,540.2 2451.7,540.2 			"/>
			<polygon class="st8" points="2588.4,607.7 2109.5,704.8 2109.5,558.6 2588.4,465.6 			"/>
		</g>
		<g>
			<polygon class="st8" points="676.4,491.2 1172.8,591.9 1172.8,450.5 676.4,354.2 			"/>
		</g>
		<polygon class="st8" points="1582.5,964.9 1308.1,904.5 1329.6,766.5 1578.3,819.1 		"/>
		<polygon class="st8" points="1369.5,488.7 1182.2,961.6 1328.5,994.6 1517.5,517.4 		"/>
		<polygon class="st8" points="1577.3,529.1 1409.4,496.5 1553.9,1045.5 1723.2,1083.7 		"/>
		<g>
			<path class="st8" d="M1919.5,432.8L127.2,102.1l247.9,825.3l1544.4,363.2l1544.4-363.2l247.9-825.3L1919.5,432.8z M3418.3,884.2
				l-1498.8,347.2L420.7,884.2L203.5,169.4l1716,322.6l1716-322.6h0L3418.3,884.2z"/>
			<path class="st8" d="M1919.5,344L0,0l294.7,1002.1l1624.8,392.1c0,0,1624.8-392.1,1624.8-392.1L3839,0L1919.5,344z M3486.8,948.9
				l-1567.3,371.3L352.2,948.9L89.4,68.8l1830.1,334.4L3749.6,68.8L3486.8,948.9z"/>
		</g>
		<polygon class="st8" points="3749.6,68.8 89.4,68.8 0,0 3839,0 		"/>
		<text transform="matrix(1 0 0 1 1551.2362 208.6015)" class="st8 st9 st10">MADE IN U.S.A.</text>
	</g>
</g>
</svg>
