<?xml version="1.0" encoding="utf-8"?>
<!-- Generator: Adobe Illustrator 26.4.1, SVG Export Plug-In . SVG Version: 6.00 Build 0)  -->
<svg version="1.1" id="Layer_1" xmlns="http://www.w3.org/2000/svg" xmlns:xlink="http://www.w3.org/1999/xlink" x="0px" y="0px"
	 viewBox="0 0 3839 845.4" style="enable-background:new 0 0 3839 845.4;" xml:space="preserve">
<style type="text/css">
	.st0{fill:#008EDD;}
	.st1{fill:#FFFFFF;}
</style>
<g>
	<g>
		<g>
			<path class="st0" d="M3411.3,3c25.6,0.5,52.4,2.3,79.2,6.5c38,6,74.5,16.5,109.7,32c29.3,12.9,56.7,29.1,82.1,48.7
				c45.2,34.8,80.8,77.7,107.2,128.1c15.8,30.1,27.5,61.8,35.6,94.8c11.6,47,15.7,94.8,13.2,143c-2.6,50.8-13.4,99.8-33.9,146.5
				c-17.4,39.6-41,75.3-70.7,106.9c-27.3,29.1-58.4,53.4-92.9,73.3c-35.5,20.5-73.3,35.5-112.9,45.9c-26.1,6.9-52.7,11.2-79.6,13.9
				c-31.1,3.1-62.2,3.5-93.3,1.3c-20.8-1.4-41.5-4.4-62-8.5c-28.5-5.8-56-14.5-82.6-26c-27.9-12.2-54-27.6-78-46.3
				c-50.1-39.1-86.4-88.6-111.2-146.7c-12.6-29.6-21.3-60.4-27.1-92.1c-6.9-37.7-9.8-75.8-8.6-114.1c0.7-22.1,2.8-44,6.3-65.8
				c6-37.1,16.3-73,31.6-107.3c24.9-56,60.9-103.8,108.6-142.4c35.9-29,75.9-50.7,119.4-65.8c22.9-8,46.4-13.9,70.2-18.2
				C3347.8,5.8,3382.4,3,3411.3,3z M3553.3,437.5c0.2,0,0.3,0,0.5,0c-0.5-45.9-0.9-91.8-1.6-137.7c-0.5-33.7-3.2-67.2-9.5-100.4
				c-4.2-22.2-10.5-43.6-21.1-63.6c-13.9-26.3-34.5-44.8-63.2-53.4c-22.7-6.8-45.7-7.7-69-3c-22.3,4.4-41.4,14.6-57.5,30.7
				c-16.8,16.8-27.6,37.2-36.1,59c-7.2,18.6-12.1,37.8-15.9,57.4c-4,20.9-7,42-8.5,63.2c-1.9,26.3-2.7,52.7-3.4,79.1
				c-0.7,27-0.7,53.9,0.5,80.9c1.5,34.4,1.7,68.9,2.9,103.4c0.5,14.3,1.7,28.7,3.4,42.9c2.8,22.3,6.7,44.4,13.2,65.9
				c6.2,20.7,14.3,40.5,27.1,58c15.4,21.1,35.6,35.4,61.1,41.8c21.6,5.3,43.3,5.8,65.1,1.8c22.5-4.1,42-14.1,58.1-30.6
				c13.4-13.8,22.9-30,29.9-47.7c12-30.4,17.1-62.1,18.9-94.5c1-18.5,1.4-37,2.5-55.5c1.2-21.4,2.9-42.8,2.5-64.3
				C3553.1,459.6,3553.3,448.6,3553.3,437.5z"/>
		</g>
	</g>
	<g>
		<path class="st0" d="M2044.9,17.1c-2,0.9-23.5,12.4-33.2,17.1c-25.8,12.4-53.3,18.7-81.8,19.7c-13.8,0.5-27.7,0.5-41.5-0.3
			c-10-0.6-20.2-1.7-29.8-4.4c-31.1-8.9-62-18.8-93-28.2c-21.7-6.6-43.2-13.9-65.9-16.9c-22.6-3-45.2-5-68-3.4
			c-14.2,1-28.4,2.3-42.5,4.1c-20.5,2.6-40.4,7.7-59.8,14.7c-24.7,8.9-47.6,21.2-68.7,36.8c-38,28.2-67.1,63.2-85,107.3
			c-11.3,27.7-16.2,56.4-14.9,86.3c1.5,34.3,12.9,65.3,31.8,93.6c18.2,27.3,41.4,49.8,68.6,68.1c12.3,8.2,25.5,15.1,38.1,22.9
			c10.5,6.5,21.6,11.7,33.1,15.8c56,19.9,112.2,39.4,168.2,59.3c25.3,9,51,16.8,75.6,27.8c22.6,10.1,44.6,21.3,64.8,35.6
			c14.1,10,25.6,22.3,32.4,38.5c8.7,20.6,9.2,41.9,4.7,63.4c-6.9,33.1-26.2,57.5-54.5,75c-24.8,15.3-52.1,22.4-81,24
			c-18.5,1-36.7-1.2-54.7-5.6c-16.1-4-31.1-10.4-45-19.3c-23.2-14.7-39.9-35.1-52.3-59.3c-12.6-24.7-12.7-49.7-1.6-74.9
			c7.9-17.9,20.2-32.5,34.7-45.3c10.9-9.5,22.6-17.9,35.1-25.2c1.9-1.1,3.6-2.6,6.2-4.5c-4.9-3.8-8.7-7.2-12.9-10
			c-17.4-11.5-35.9-20.8-55.1-28.6c-12.1-4.9-24.4-9.1-37-12.7c-15.4-4.4-31.4-6.2-47.4-6.8c-13.1-0.5-26.1,0.7-38.9,3.6
			c-18.1,4.1-34.9,11.2-50.5,21.3c-23.5,15.3-41.9,35.4-54.9,60.2c-15,28.7-20.2,59.3-16.3,91.3c2.1,18,7.6,35.1,16.2,51.1
			c11.4,21.2,27.3,38.7,46.2,53.5c31.7,24.9,67.9,40.9,106.1,52.8c23.8,7.4,48,13.2,72.5,17.6c27.7,5,55.5,8.8,83.5,10.4
			c64.6,3.6,128.9,0.7,192.7-10.8c29-5.2,57.5-12.6,85.2-22.8c24.8-9.1,48.3-20.7,70.2-35.4c30.8-20.8,56.1-46.7,74.4-79.3
			c13.3-23.7,21.8-49,26.5-75.7c2.9-16.4,4.1-32.9,4.5-49.5c0.6-27.7-3-54.8-10.9-81.3c-7.1-23.8-17.6-46.1-31.8-66.6
			c-15.8-22.9-35.1-42.4-58.8-56.9c-29.8-18.3-61.1-33.9-93.3-47.8c-22.7-9.8-46.4-16.8-69.9-24.5c-37.5-12.3-75.2-24.4-112.7-36.6
			c-28.4-9.2-56.7-18.4-85.1-27.8c-11.4-3.8-23.4-6.7-33.9-12.2c-31.4-16.6-50.9-42.7-57-77.9c-3.9-22.6,6.5-43,26.4-54.5
			c8.8-5.1,18.3-8.1,28.4-9.9c18.2-3.2,35.7-1.3,52.8,5.9c18.9,8,34,20.6,46.5,36.6c19.9,25.3,39.4,51,59.9,75.8
			c29.5,35.6,67.7,54.2,114.1,55.4c19.1,0.5,37.4-3.3,54.5-11.7c23.8-11.7,41.5-29.9,55.1-52.4c15.8-26.1,24-54.9,28.3-84.8
			C2048.6,63.7,2045.2,19.4,2044.9,17.1z"/>
	</g>
	<g>
		<path class="st0" d="M2964.8,26.4c-3.8,2.3-53,39.1-141.7,30.8c-10.4-1-20.8-1.9-31-4.1c-18.5-4.1-36.8-9.3-55.3-13.8
			c-33-8.1-66-16.1-99.1-23.8c-11.3-2.6-22.9-4.6-34.4-6.3c-19.2-2.8-38.6-3.1-58-2.6c-33.6,0.9-66.5,6.2-98.7,15.7
			c-39,11.5-75.1,29.2-108.1,52.8c-41.2,29.5-74.8,66.2-101.8,108.9c-19.3,30.5-34.4,63.1-45.8,97.3c-9.8,29.5-16.8,59.7-20.8,90.5
			c-4.6,36-5.7,72.1-2.6,108.3c2.5,28.5,8,56.3,16.8,83.5c12.5,39.1,31.2,75.1,55.8,107.9c32.4,43.2,70.8,80.2,116.5,109.4
			c22.7,14.5,46.8,26.4,72.2,35.4c20,7.1,40.3,12.6,61,17.1c23.4,5.1,47.1,8.7,70.9,10.4c35,2.5,69.9,1.5,104.8-3.3
			c26.3-3.6,52.2-8.9,77.7-16.1c29.9-8.5,58.8-19.8,86.2-34.6c31.2-16.8,59.5-37.6,82.5-64.8c32.7-38.6,48.4-83.3,47.3-133.7
			c-0.4-20.7-4.6-40.7-11.8-60.2c-9.6-26.1-24.1-49.3-43.2-69.5c-19.3-20.3-42-35.9-68.2-46c-12.6-4.9-25.6-8.4-39-9.9
			c-21.8-2.4-43.5-1.1-64.9,3.7c-33.3,7.5-61.9,23.4-85.4,48.2c-19.1,20.2-33.2,43.7-43.3,69.5c-4.4,11.4-8.6,28.3-9.7,47.1
			c6.1-1.3,32.9-10.2,64-3.1c17.9,4.9,32.6,14.2,42.8,29.7c17.2,26.2,18.3,54.3,7.5,82.8c-9.6,25.4-28.5,42.7-52.3,55
			c-14.4,7.4-29.6,11.9-45.7,13.9c-13.1,1.7-26.1,1.3-38.9-1.5c-17.3-3.9-32.3-12.5-45.6-24.3c-19.3-17.1-32.7-38.4-43.4-61.6
			c-17.3-37.1-25.9-76.6-31.8-116.7c-3.6-24.7-4.5-49.6-5-74.5c-1.3-61.9,0.7-123.7,10.3-185c4-25.8,8.6-51.4,15.5-76.6
			c5.3-19.3,12.7-37.8,22.5-55.3c8.2-14.6,18.1-27.8,31.7-37.9c15.9-11.7,33.4-15.8,52.7-11c19.3,4.8,34.9,15.7,47.3,31
			c18.9,23.3,37.3,47.1,55.9,70.7c19.5,24.7,43.7,42.6,73.9,52.2c22.3,7.1,45,8.5,68,3.9c27.1-5.4,50.4-18.2,70.5-37
			c25.8-24.2,43.1-53.8,55.3-86.6C2961.5,110.3,2964.8,72.7,2964.8,26.4z"/>
	</g>
	<g>
		<path class="st0" d="M536,642.8c-0.4,0.1-0.9,0.1-1.3,0.2c-0.6-1.1-1.4-2.2-1.8-3.4c-6.3-18.7-12.7-37.4-19-56.1
			c-10.2-30.5-20.4-61-30.7-91.5c-15.4-45.8-30.9-91.7-46.4-137.5c-13.7-40.6-27.2-81.3-41.1-121.8c-5.9-17.2-9.7-34.6-8.8-52.8
			c0.4-8.5,0.4-17,1.2-25.5c1.9-22.1,8.6-42.6,22.4-60.3c9.2-11.8,19.4-22.9,29-34.4c2-2.4,4.1-5.2,4.5-8.1
			c2.4-15.4-1.1-29.2-13.5-39.6c-8-6.7-17.3-9-27.7-5.5c-13.8,4.7-27.7,9.3-41.7,13.5c-19.3,5.8-38.9,10.3-58.8,13.9
			c-19.1,3.4-38.3,5.8-57.7,6.7c-19,0.9-37.9,0.4-56.9-1.1c-24.1-1.9-48-5.4-71.5-10.6c-23.1-5.1-45.9-11.7-68.8-17.8
			c-7.3-2-14.6-1.8-21.7,0.1c-7.7,2.1-13.8,7.1-17.8,14c-11.6,20.1-11.1,39,5.6,56.3c4,4.1,8.1,8.2,12.7,11.6
			c17.7,13.3,30.9,30.6,43.5,48.3c8.7,12.3,15.9,25.9,22.9,39.4c11.7,22.7,19.9,46.9,27.7,71.1c20,61.8,40,123.6,60,185.4
			c10.1,31.2,20.3,62.3,30.4,93.5c13.8,42.4,27.6,84.9,41.3,127.3c2.5,7.7,5,15.5,5.8,23.5c2,18.1,2.7,36.3-1.5,54.3
			c-3.7,15.5-8.4,30.4-19.9,42.3c-3.2,3.3-5.9,6.9-8.8,10.5c-3.9,4.8-7,10.1-8.3,16.2c-3.2,14.5,1.7,28.5,16.8,34.4
			c7.3,2.9,15.1,3.4,22.8,1.8c6.6-1.4,13.1-3.2,19.6-4.6c29.5-6.6,59.2-12.4,89.4-15.4c22.2-2.2,44.5-4.3,66.8-5.2
			c33.8-1.3,67.6-0.8,101.3,3.4c19.5,2.4,38.7,5.8,57.6,11.2c13.3,3.8,26.3,8.3,39.4,12.9c7.1,2.5,13.6,1.9,19.8-2.2
			c12.3-8.1,22.5-30.5,14.6-47.4c-1.5-3.2-3.1-6.5-5.1-9.3c-9-12.8-14.8-26.9-18.7-42c-6.9-26.5-8.9-53.3-5.5-80.5
			c0.7-5.9,1.8-11.7,2.1-17.6c1.4-24.9,5.5-49.4,12.2-73.5c6.4-22.8,12-45.8,17.9-68.8c5.9-23,11.6-45.9,17.5-68.9
			c6.7-26,13.5-52,20.2-78c4.3-16.6,8.2-33.4,13.1-49.8c3.8-12.9,8.7-25.4,13.4-38c11-29.7,23.7-58.6,39.1-86.2
			c10.8-19.4,23-37.8,36.5-55.4c14.9-19.5,31.5-37.5,49-54.7c2.2-2.1,3.9-5,4.9-7.9c4.3-12.8,2.9-25.3-3.5-37.2
			c-3.2-5.9-8-10.2-14.1-13.1c-5.6-2.7-10.8-0.7-16,0.9C797,23.6,762.9,30.2,727.8,30c-10.3,0-20.6-0.1-30.8-1.1
			c-11-1.1-21.9-3-32.8-5.1c-16.1-3.2-31.9-7.3-46.8-14.7c-5.8-2.9-12-5-18.3-6.7c-9.4-2.5-18.1-0.3-25.5,6.1
			c-14.4,12.3-16,34-3.3,48.3c11.5,13,23.3,25.7,31.8,41.1c8.5,15.3,15.7,30.9,19.5,48.1c6.1,28.1,5.8,56.5,4.4,85
			c-0.5,9.4-1.5,19-3.3,28.2c-3.3,16.9-7.4,33.6-11.2,50.3c-5.5,24.5-11.1,48.9-16.7,73.4c-4,17.5-7.9,35.1-11.9,52.6
			c-4.8,21-9.6,42-14.3,63c-4.7,20.8-9.4,41.6-14.1,62.4c-4.1,18.3-8.2,36.6-12.4,54.9C540.2,624.8,538.1,633.8,536,642.8z"/>
	</g>
	<g>
		<path class="st0" d="M1266.1,227.3c2.7-14.2,5.9-28.3,9.5-42.2c7.6-29.5,19.1-57.3,36.5-82.5c10.8-15.8,21.6-31.7,32.5-47.5
			c5.1-7.4,7-15.4,5.4-24.2c-4.2-22.7-30.1-35.5-50.4-29.4c-22.9,6.9-45.8,13.7-69.5,17.4c-16.8,2.7-33.6,5.1-50.5,6.9
			c-25.8,2.8-51.8,2-77.7,2.1c-7.1,0-14.3,0-21.3-0.9c-15.7-2.1-31.3-4.7-46.9-7.3C1003.1,14.5,972.6,9,942,3.7c-5-0.9-10-1.3-15-2
			c-2.8-0.4-5.7-0.5-8.6-0.3c-0.8,0-1.6,0.1-2.4,0.2c-10.3,1.4-19,5.9-22.1,16.2c-4.2,13.8-4.2,27,7.1,38.5
			c12.4,12.7,22.9,27.2,32.7,42.1c25.4,38.4,42.9,80,49.2,125.8c1.8,13.3,3.7,26.7,3.7,40.1c0.3,95.1,0.2,190.2,0.1,285.2
			c0,26.3-1.5,52.5-6.5,78.5c-4.9,25.4-12.5,49.8-23.4,73.1c-12.8,27.3-28.8,52.7-47,76.7c-5.1,6.8-10.2,13.6-15.1,20.6
			c-4.4,6.3-4.4,13-0.1,19.4c2.5,3.8,5.3,7.4,8.3,10.8c9.7,11.6,22.1,15.5,36.7,11.9c19.2-4.7,38.3-9.9,57.5-14.2
			c22-5,44.4-8.3,67-8.3c22.7-0.1,45.4,0.9,68.1,1.5c5,0.1,13.2,0.9,18.1,1.6c8.5,1.2,17,2.6,25.5,3.9c18.4,2.7,36.8,5.3,55.1,8.2
			c22.5,3.4,44.9,7.1,67.4,10.6c8.1,1.3,15.3-0.9,21.5-6.2c7.7-6.5,12.2-14.9,14.1-24.8c1.8-9.1,0.3-17.1-5.5-25.1
			c-17.2-23.5-31.8-48.5-43.8-75.1c-16.7-36.7-25.7-75-25.7-115.3c0-97.6,0-195.2,0-292.8C1259.1,278.7,1261.3,252.8,1266.1,227.3z"
			/>
	</g>
</g>
</svg>
