<?xml version="1.0" encoding="utf-8"?>
<!-- Generator: Adobe Illustrator 26.0.3, SVG Export Plug-In . SVG Version: 6.00 Build 0)  -->
<svg version="1.1" id="Layer_1" xmlns="http://www.w3.org/2000/svg" xmlns:xlink="http://www.w3.org/1999/xlink" x="0px" y="0px"
	 viewBox="0 0 3839 761.1" style="enable-background:new 0 0 3839 761.1;" xml:space="preserve">
<style type="text/css">
	.st0{fill:#231F20;}
	.st1{fill:#FFFFFF;}
	.st2{fill:url(#SVGID_1_);}
	.st3{fill:url(#SVGID_00000168813156632778982050000009789909067115083671_);}
	.st4{fill:url(#SVGID_00000183247670561786588890000004151777386360459948_);}
	.st5{fill:url(#SVGID_00000162326256579633195230000014566860097211614106_);}
	.st6{fill:url(#SVGID_00000173848788283153165860000000457575600116345247_);}
	.st7{fill:url(#SVGID_00000030445582009475471170000009502562869881708703_);}
	.st8{fill:url(#SVGID_00000145022571653987219120000001354601206597758382_);}
	.st9{fill:url(#SVGID_00000034069592217939188330000012915374411597380749_);}
	.st10{fill:url(#SVGID_00000132049485136945609820000000988928875512564914_);}
	.st11{fill:url(#SVGID_00000049194101357808578910000014862153144542459561_);}
	.st12{fill:url(#SVGID_00000138548769184500787600000004665423134385705909_);}
	.st13{fill:url(#SVGID_00000091722425494078472740000013182767747392990891_);}
	.st14{fill:url(#SVGID_00000100357343128047800360000012646015093982510226_);}
	.st15{display:none;}
	.st16{display:inline;fill:#FF0642;}
	.st17{display:inline;fill:#FFFFFF;stroke:#000000;stroke-width:0.4864;stroke-miterlimit:10;}
	.st18{display:inline;fill:#FFCB04;}
	.st19{fill:#034EA2;}
	.st20{fill:url(#SVGID_00000047745381914062119660000004891336191604671411_);}
	.st21{fill:url(#SVGID_00000085941176911484793110000013349467471140995206_);}
	.st22{fill:url(#SVGID_00000003795264826410135540000004771208621877303689_);}
	.st23{fill:url(#SVGID_00000035523348922055602660000002204308932641386382_);}
	.st24{fill:url(#SVGID_00000167381861356343165140000002139644123353585332_);}
	.st25{fill:url(#SVGID_00000091727721751928370960000004898836705081338796_);}
	.st26{fill:url(#SVGID_00000042694536280617343960000006314470138307140760_);}
	.st27{fill:url(#SVGID_00000148632474668566370670000012478817415473546385_);}
	.st28{fill:url(#SVGID_00000086662581838367495740000007530426152973653650_);}
	.st29{fill:url(#SVGID_00000132793086973158160610000008316489272502821545_);}
	.st30{fill:url(#SVGID_00000011014934698417679950000011317952413417159337_);}
	.st31{fill:url(#SVGID_00000057846677624900521490000001995493039445153453_);}
	.st32{fill:url(#SVGID_00000070823502154783243910000005321424549600446891_);}
	.st33{display:inline;fill:#FFFFFF;stroke:#000000;stroke-width:0.4884;stroke-miterlimit:10;}
	.st34{fill:url(#SVGID_00000106116911966444521110000010166988230424223405_);}
	.st35{fill:url(#SVGID_00000072997553893658468290000014553492627550631061_);}
	.st36{fill:url(#SVGID_00000054952184168219099440000003162588250094222727_);}
	.st37{fill:url(#SVGID_00000128453600626728547330000000153728090153325753_);}
	.st38{fill:url(#SVGID_00000183218092838589942190000015280781883493569959_);}
	.st39{fill:url(#SVGID_00000012467532647124452560000006856851219296737968_);}
	.st40{fill:url(#SVGID_00000167377293766882819580000017159409697043292562_);}
	.st41{fill:url(#SVGID_00000081622823785061203280000009117651066477761413_);}
	.st42{fill:url(#SVGID_00000022561163956938436440000017636942781436562856_);}
	.st43{fill:url(#SVGID_00000035520174480187578950000004285051366022032293_);}
	.st44{fill:url(#SVGID_00000125571918017923721150000015205995349346228651_);}
	.st45{fill:url(#SVGID_00000148645836143981170450000011069848467201659274_);}
	.st46{fill:url(#SVGID_00000164500318395742373890000004424415454424165524_);}
	.st47{display:inline;fill:#FFFFFF;stroke:#000000;stroke-width:0.5156;stroke-miterlimit:10;}
	.st48{fill:url(#SVGID_00000153669491221103181040000017684026434849365422_);}
	.st49{fill:url(#SVGID_00000041275297979121663970000009222897279978289797_);}
	.st50{fill:url(#SVGID_00000011008809120414914280000011468652492835122067_);}
	.st51{fill:url(#SVGID_00000011714041146982056460000001165206882118984119_);}
	.st52{fill:url(#SVGID_00000019646422409182132550000007210846120580778649_);}
	.st53{fill:url(#SVGID_00000112600970056999089070000011389730924782270857_);}
	.st54{fill:url(#SVGID_00000073681757627671545220000017757050189062438577_);}
	.st55{fill:url(#SVGID_00000005988636112892974800000010798762906414941873_);}
	.st56{fill:url(#SVGID_00000072967991718926650830000014995173756239110540_);}
	.st57{fill:url(#SVGID_00000042738260048753247120000000904855600301558692_);}
	.st58{fill:url(#SVGID_00000145760521751357244760000000590779414075178167_);}
	.st59{fill:url(#SVGID_00000129913216114122381410000003500096330528141468_);}
	.st60{fill:url(#SVGID_00000147179312435577606900000011737208533134431631_);}
	.st61{fill:#FFCB04;}
	.st62{fill:url(#SVGID_00000161599585054362794760000005685455833391701670_);}
	.st63{fill:url(#SVGID_00000110431876422051712810000004413899249858860207_);}
	.st64{fill:url(#SVGID_00000042728977263247266560000004555923627777339527_);}
	.st65{fill:url(#SVGID_00000140727869213460753660000006969486704267084457_);}
	.st66{fill:url(#SVGID_00000070797415983697685140000008094915409865806990_);}
	.st67{fill:url(#SVGID_00000172423628172296586850000010332632794933942957_);}
	.st68{fill:url(#SVGID_00000065766043408192891430000009613265799555206846_);}
	.st69{fill:url(#SVGID_00000060032436448397443010000000558053053460989595_);}
	.st70{fill:url(#SVGID_00000013159312890360033090000000202836105861685899_);}
	.st71{fill:url(#SVGID_00000173123100204808237750000000209522146171065475_);}
	.st72{fill:url(#SVGID_00000052822966776830037100000000722859737240545461_);}
	.st73{fill:url(#SVGID_00000084519539912256929840000013488400604602080176_);}
	.st74{fill:url(#SVGID_00000026136553957914313150000008011943573430226337_);}
	.st75{fill:url(#SVGID_00000074411930636200270470000018059513469436975241_);}
	.st76{fill:url(#SVGID_00000100374132602241662550000009577607124112931217_);}
	.st77{fill:url(#SVGID_00000167393948219796261530000018295374542201199805_);}
	.st78{fill:url(#SVGID_00000106114135270782521680000003090823166881647018_);}
	.st79{fill:url(#SVGID_00000052095518294386461300000010720053641400469133_);}
	.st80{fill:url(#SVGID_00000076603564949202803120000008089064939837774483_);}
	.st81{fill:url(#SVGID_00000071545645445402051280000002860637924525129092_);}
	.st82{fill:url(#SVGID_00000166646686139988714580000001079209044914504323_);}
	.st83{fill:url(#SVGID_00000098930086976808463000000009544025032343522215_);}
	.st84{fill:url(#SVGID_00000132780052385175170880000002550205480747010461_);}
	.st85{fill:url(#SVGID_00000128474715995495756300000016905771679745955753_);}
	.st86{fill:url(#SVGID_00000084524461309651696660000007502917898575671197_);}
	.st87{fill:url(#SVGID_00000057860110399413726570000013532993265401885882_);}
	.st88{fill:url(#SVGID_00000026133080011887175980000003367128519902400191_);}
	.st89{fill:url(#SVGID_00000160900996837374114750000009057500510366164621_);}
	.st90{fill:url(#SVGID_00000054966768891470113900000009876908134979093418_);}
	.st91{fill:url(#SVGID_00000155858362228307590740000017713701879708725123_);}
	.st92{fill:url(#SVGID_00000038406813728916739330000008385212407000492959_);}
	.st93{fill:url(#SVGID_00000129888797103767166990000011182537781966946176_);}
	.st94{fill:url(#SVGID_00000041267196213524049110000005574283700002321809_);}
	.st95{fill:url(#SVGID_00000029010417466679007670000006511634195942565763_);}
	.st96{fill:url(#SVGID_00000024707918132639262080000015152377369504106392_);}
	.st97{fill:url(#SVGID_00000088090816487669623020000014095816871504319640_);}
	.st98{fill:url(#SVGID_00000181766938100914628790000004051722335788033173_);}
	.st99{fill:url(#SVGID_00000014609756622687169960000005807356139712603546_);}
	.st100{fill:url(#SVGID_00000113348329754317849500000012720438902755118265_);}
	.st101{fill:url(#SVGID_00000134209719740184193420000010938754533639192454_);}
	.st102{fill:url(#SVGID_00000117678214296747753150000008542853122121322887_);}
	.st103{fill:url(#SVGID_00000075868675980811923100000016886806994671031428_);}
	.st104{fill:url(#SVGID_00000008868333535044198660000001320196273575047073_);}
	.st105{fill:url(#SVGID_00000152980835037897809390000013558190724401001091_);}
	.st106{fill:url(#SVGID_00000093141365577089130030000010977971095218593665_);}
	.st107{fill:url(#SVGID_00000155143769366780261390000005218559026900164749_);}
	.st108{fill:url(#SVGID_00000078765590826641007050000002549628577861737632_);}
	.st109{fill:url(#SVGID_00000101087059047224845600000000434760355063031940_);}
	.st110{fill:url(#SVGID_00000161612968780163587860000008425550757397056909_);}
	.st111{fill:url(#SVGID_00000114054568578606656010000005821646861002873487_);}
	.st112{fill:url(#SVGID_00000052805232843341146440000009812072517466101912_);}
	.st113{fill:url(#SVGID_00000147182141110124902360000005204860983761921946_);}
	.st114{fill:#007CFF;}
	.st115{fill:url(#SVGID_00000036940294618958776820000004013277404567595909_);}
	.st116{fill:url(#SVGID_00000041994349806192364920000001272484644309856652_);}
	.st117{fill:url(#SVGID_00000170251151142301862910000011917593579569721498_);}
	.st118{fill:url(#SVGID_00000143596073294389300890000000220808149142198673_);}
	.st119{fill:url(#SVGID_00000128474757433586164500000007757106607144440482_);}
	.st120{fill:url(#SVGID_00000148640879456105829910000015629734186470726308_);}
	.st121{fill:url(#SVGID_00000135669521575992496720000007476595694557318565_);}
	.st122{fill:url(#SVGID_00000178162975475923177930000008460489317733649587_);}
	.st123{fill:url(#SVGID_00000027583479713967174600000013448621594423317654_);}
	.st124{fill:url(#SVGID_00000150816881936059041140000009622117135913407371_);}
	.st125{fill:url(#SVGID_00000121242231790327208710000014128471303853157031_);}
	.st126{fill:url(#SVGID_00000053544098621619155390000017040357939414640520_);}
	.st127{fill:url(#SVGID_00000111902834721008084400000018099020683460268424_);}
	.st128{fill:url(#SVGID_00000098902577327411026150000014752386375839295908_);}
	.st129{fill:url(#SVGID_00000011015943478648433960000010985551968776078985_);}
	.st130{fill:url(#SVGID_00000045578282861020001420000001978919237284569752_);}
	.st131{fill:url(#SVGID_00000146497393374998071650000017783461173556268708_);}
	.st132{fill:url(#SVGID_00000131354214522934766540000003711693223091551132_);}
	.st133{fill:url(#SVGID_00000039119795800894127340000010860667941964598962_);}
	.st134{fill:url(#SVGID_00000021119640345871320200000008014458821219022493_);}
	.st135{fill:url(#SVGID_00000102530979224900846210000014636657830934738091_);}
	.st136{fill:url(#SVGID_00000155856316581926211000000014424734168333408150_);}
	.st137{fill:url(#SVGID_00000155136454444115676340000006419941424028625290_);}
	.st138{fill:url(#SVGID_00000019635743302143825920000008057557244794643338_);}
	.st139{fill:url(#SVGID_00000016068297430705860140000014670717331596489142_);}
	.st140{fill:url(#SVGID_00000082366020064162759890000011497510377091652782_);}
	.st141{display:inline;fill:#FFFFFF;stroke:#000000;stroke-width:0.6411;stroke-miterlimit:10;}
</style>
<g>
	<path class="st0" d="M1511.9,187.1v236.3c0,0,159.1-66.3,159.1-159.8C1671.1,148,1511.9,187.1,1511.9,187.1"/>
	<path class="st0" d="M2742.6,175.2c-69.4,0-162.5,40.8-162.5,204s82.9,204,162.5,204c79.5,0,164.2-51,164.2-204
		C2906.8,226.2,2812,175.2,2742.6,175.2"/>
	<polyline class="st0" points="899.1,380.9 1010.8,380.9 953.3,219.4 899.1,380.9 	"/>
	<path class="st0" d="M585.9,656.3H409.9c-209.9,0-326.7-164.9-326.7-283.9c0-182.4,158-283.7,301.3-283.7
		c138.8,0,222.6,106.5,222.6,106.5L511.4,296c0,0-5.1,2.6-9.3,2.6c-4.3,0-10.2-4.3-10.2-4.3l-11.9-10.2c0,0-3.4-0.8-3.4-4.3
		c0-3.4,9.3-11.9,9.3-28c0-16.1-3.4-83.3-106.6-83.3s-149,96.9-149,176.8c0,79.9,49.1,226.1,209.9,226.1
		c93.6,0,113.4-52.7,113.4-52.7h32.2V656.3z M1274.9,658h-212.4v-40.8c0,0,13.5,1.7,20.3-10.2c6.8-11.9,6.8-21.3,1.7-33.2
		c-5.1-11.9-40.6-106.3-40.6-106.3H870.3c0,0-35.6,95.2-38.9,103.7c-3.4,8.5-3.4,22.1,0,30.6c5.6,14.1,25.4,16.2,25.4,16.2V658
		H686.7v-39.9c0,0,15.4-5.3,27-17c12.7-12.7,16.9-26.3,16.9-26.3l172.7-470.8h144.8l176,462.3c5.1,12.8,13.6,24.7,22.1,34.9
		c8.4,10.2,28.7,17,28.7,17V658z M1677.8,440.5c-72.3,33.4-167.5,59.5-167.5,59.5v88.4c0,0,0.8,6,9.3,16.2
		c8.5,10.2,17.8,12.7,17.8,12.7V658h-196.4v-39.9c0,0,11.9-2.6,20.3-11c8.5-8.5,10.2-18.7,10.2-18.7V188.9c0,0,0.8-17-6-23.8
		c-6.8-6.8-22.8-16.1-22.8-16.1v-45.1c0,0,170.9,0,270.8,0c99.9,0,199.8,35.7,199.8,151.3S1740.4,411.6,1677.8,440.5z M2172.1,169.4
		c-103.2,0-149,96.9-149,176.8c0,79.9,49.1,226.1,209.9,226.1c93.6,0,113.4-52.7,113.4-52.7h32.2v137.7h-176.1
		c-209.9,0-326.7-164.9-326.7-283.8c0-182.5,158-283.7,301.3-283.7c138.8,0,222.6,106.5,222.6,106.5l-95.6,100.7
		c0,0-5.1,2.5-9.3,2.5c-4.2,0-10.2-4.2-10.2-4.2l-11.9-10.2c0,0-3.4-0.9-3.4-4.3c0-3.4,9.3-11.9,9.3-28
		C2278.8,236.6,2275.4,169.4,2172.1,169.4z M2742.6,673.9c-182.8,0-314.3-134.1-314.3-297.2s134.8-289.6,314.3-289.6
		c179.4,0,314.2,126.5,314.2,289.6S2925.4,673.9,2742.6,673.9z M3759.1,658.3h-202.3v-36.8c0,0,17.8-2.6,23.7-11
		c6-8.5,8.5-13.6,6.8-27.2c-1.7-13.6-49.9-323-49.9-323l-88.1,273.6h-106.6l-87.2-256.6l-44,302.5c0,0-1.7,18.2,5.1,28.1
		c9.3,13.6,26.2,13.6,26.2,13.6V658h-175.2v-39.1c0,0,14-2.1,24.1-14c10.2-11.9,11.9-27.2,11.9-27.2l63.9-399.1
		c0,0,3.8-14.9-0.4-21.7c-4.5-7.2-28.4-13.2-28.4-13.2v-39.6h201.5L3413,330l77.8-226.1h210.8v33.2c0,0-14.1,5.9-20.3,13.6
		c-7.6,9.3-7.6,16.1-6,29.7c1.7,13.6,55.9,382.4,57.6,396.1c1.7,13.6,3.4,21.3,6.8,30.6c3.4,9.3,19.5,16.9,19.5,16.9V658.3z"/>
	<path class="st1" d="M1511.9,187.1v236.3c0,0,159.1-66.3,159.1-159.8C1671.1,148,1511.9,187.1,1511.9,187.1"/>
	<path class="st1" d="M2742.6,175.2c-69.4,0-162.5,40.8-162.5,204s82.9,204,162.5,204c79.5,0,164.2-51,164.2-204
		C2906.8,226.2,2812,175.2,2742.6,175.2"/>
	<polyline class="st1" points="899.1,380.9 1010.8,380.9 953.3,219.4 899.1,380.9 	"/>
	<path class="st1" d="M2745.1,761.1c-132.8,0-234.3-66-285.8-108.4v91.4h-238.2c-200.4,0-360.4-110.2-416.5-283.5
		c-41.8,30.4-116.9,73.9-201.2,96.1c2.3,0.6,4.6,1.2,6.8,1.5l17.8,3.1l0.1,182.7H418.3C183.8,744.1,0,583.8,0,379.3
		C0,161,163.1,2.5,387.8,2.5c228.9,0,320,172.6,323.8,180l6.9,13.5L516.1,410.8l-155.3-107l19-18.2c5.7-6.3,9-11.7,10.5-16.3
		c3.5-10-6.1-19.6-16.1-16.1c-3.1,1.1-6.7,2.6-10.5,4.5c-22.5,11.7-48.2,42.3-46.4,90.1c3.7,95.6,62,139.1,114.6,139.1
		c46.4,0,59.6-33.7,60.9-37.5l5-14.4l15.3-0.2h165.7v24l166.5-441h261.5l177.3,459.7c0.2-94.3,0.6-242.7,0.6-248.7
		c0-2.3-0.1-4.2-0.3-5.7c-0.4-3.6-2.4-6.8-5.4-8.8c-3.6-2.4-7.9-4.1-10.1-4.8l-15.4-4.5l-0.2-16.1V17.8h346.5
		c153.9,0,212.4,36.6,263.3,117.9c76-89.5,173.5-134.9,290.2-134.9c126.9,0,226.4,42,289.7,121.7C2518.7,45.4,2633.2,0,2755.3,0
		c118.2,0,223.9,46.5,294.2,127.1V17.8h349.3l15.4,39.2l11.5-39.2h360.9l0,181.1l-12.1,5.9c-17.2,8.3-18.3,11.8-16.1,25.8
		l45.2,288.9c1.3,6.5,3.3,11,6.4,13.7c1.4,1.2,4.3,1.5,5.5,1.4l23-1.6l0.7,23v188.1h-367.9V618.3h-143.3v126.1h-348.5v-60.5
		C2933.4,714.8,2847.6,761.1,2745.1,761.1z M2416.5,548.2l37.3,41c1.2,1.3,119.3,128.9,291.3,128.9c133.7,0,240.4-92.3,241.4-93.2
		l35.6-31.3l0,107.9h262.7V575.3H3514v125.8h282.1v-127c-4.9-1.9-10.1-4.7-14.9-9c-13.5-12.1-17.9-27.6-20-38.2l-45.3-289.8
		c-5.5-35,9.2-52.9,27.7-64.5l0-112h-285.8l-37.7,129l-50.6-129h-277.1v213.8l-40.1-69.8c-58.1-101.3-169.2-161.7-297.1-161.7
		c-119.8,0-231.1,47.6-297.5,127.4l-18.5,22.2l-15.9-24.2c-53.5-81.5-146.9-124.6-269.9-124.6c-114.4,0-204.6,46.7-275.6,142.6
		l-19.9,26.8l-16.2-29.2c-42.3-76.4-76.6-123.3-241.9-123.3h-303.6v113.9c6.4,3.4,13.5,8.3,19.3,15.1c8,9.2,11.9,22,11.9,39
		c0,8.8-0.8,325.6-0.8,325.6l-0.1,34.7l-31-15.6c-18.2-9.2-32.5-34-36.4-41.4l-1.1-2.3l-180.9-469H875L677.5,584l-41.5-7.6v-98.7
		H526.6c-11.4,19.8-38.6,52.1-94.7,52.1c-72.5,0-152.7-56.4-157.5-180.4c-2.6-67.9,35.9-112.4,69.6-129.8
		c25.2-13,50.2-13.1,67.1-0.2c18.2,13.9,22.7,30.1,23.3,41.2c0.8,13.5-3.8,25.8-9.2,35.4l85,58.5l155.8-165.2
		c-24.4-37.6-108.2-143.9-278-143.9c-203.1,0-344.9,137.3-344.9,333.8c0,180.5,164.9,321.9,375.4,321.9h1166.9v-105
		c-20.6-7-38.1-20.3-38.1-40.9c0-13.4,5.3-30.6,30.3-36.2c108.2-24.4,202.3-89.9,224.3-111l27-25.9l8.7,36.4
		c41.8,174.4,188.8,282.7,383.8,282.7h195.3V548.2z"/>
	<path class="st19" d="M692.6,192.3L513.1,382.7L394.6,301c0,0,38.9-37.4,3.4-64.6c-27.8-21.2-105.5,23.8-102.2,112.2
		c3.9,101.9,66.7,159.7,136.1,159.7c64.3,0,81.2-52.1,81.2-52.1h144.3v120.1L860.2,39.3h231.9L1278.3,522c0,0,13.5,25.5,27.1,32.3
		c0,0,0.8-316.7,0.8-325.6c0-8.9-1.2-18.7-6.7-25c-9.1-10.5-24.5-14.9-24.5-14.9V39.3c0,0,214.9,0,325,0
		c168.5,0,211.8,45.9,260.7,134.3c67.5-91.2,160.4-151.3,292.9-151.3c136.4,0,232.8,50.4,287.8,134.3
		c76.9-92.3,200.8-135.1,314-135.1c139.2,0,255.6,67.7,315.7,172.5V39.3h313.2l33,84.1l24.6-84.1h323.3l0,146.2
		c-22.9,11.1-32.1,22.3-28,48.5l45.2,288.9c1.9,9.4,5.2,19.2,13.2,26.4c9.4,8.4,22,6.8,22,6.8v166.6h-325V596.8h-186.2v126.1h-305.6
		V641c0,0-111.7,98.6-255.6,98.6c-184.2,0-307.2-136-307.2-136v119c0,0-13.5,0-216.7,0c-192.8,0-358.4-106-404.6-299.1
		c-21.9,21-118.5,90.3-234.5,116.4c-9,2-13.5,5.5-13.5,15.3c0,17.9,38.1,24.3,38.1,24.3v143.2c0,0-1002.1,0-1188.4,0
		c-220.1,0-396.9-151.3-396.9-343.3S159.3,24,387.8,24C606.2,24,692.6,192.3,692.6,192.3"/>
	<path class="st61" d="M903.3,103.8h144.8l176.1,462.4c5.1,12.7,13.5,24.6,22,34.9c8.4,10.2,28.8,17,28.8,17V658h-212.5v-40.8
		c0,0,13.5,1.7,20.3-10.2c6.8-11.9,6.8-21.3,1.7-33.2c-5.1-11.9-40.6-106.3-40.6-106.3H870.3c0,0-35.6,95.2-39,103.7
		c-3.4,8.5-3.4,22.1,0,30.6C837,616,856.8,618,856.8,618V658H686.7V618c0,0,15.5-5.3,27-17c12.7-12.8,17-26.4,17-26.4L903.3,103.8
		 M899.1,380.9h111.7l-57.5-161.5L899.1,380.9z"/>
	<path class="st61" d="M1342.6,103.8c0,0,171,0,270.8,0c99.9,0,199.8,35.7,199.8,151.3s-72.8,156.3-135.4,185.2
		c-72.3,33.4-167.6,59.5-167.6,59.5v88.3c0,0,0.8,6,9.3,16.2c8.4,10.2,17.8,12.7,17.8,12.7V658h-196.4V618c0,0,11.9-2.6,20.3-11
		c8.5-8.5,10.2-18.7,10.2-18.7V188.8c0,0,0.8-17-6-23.8c-6.8-6.8-22.8-16.1-22.8-16.1V103.8 M1511.9,187.1v236.3
		c0,0,159.1-66.3,159.1-159.8C1671.1,148,1511.9,187.1,1511.9,187.1z"/>
	<path class="st61" d="M2742.6,673.9c-182.8,0-314.3-134.1-314.3-297.2S2563.2,87,2742.6,87c179.5,0,314.3,126.5,314.3,289.7
		S2925.5,673.9,2742.6,673.9 M2580.1,379.3c0,163.2,82.9,204,162.5,204c79.5,0,164.2-51,164.2-204c0-153-94.8-204-164.2-204
		C2673.2,175.3,2580.1,216.1,2580.1,379.3z"/>
	<path class="st61" d="M3138.7,104.2h201.5l72.8,225.7l77.8-226.1h210.8V137c0,0-14,5.9-20.3,13.6c-7.6,9.3-7.6,16.2-5.9,29.8
		c1.7,13.6,55.8,382.4,57.5,396c1.7,13.7,3.4,21.3,6.8,30.6c3.3,9.3,19.4,17,19.4,17v34.3h-202.3v-36.8c0,0,17.8-2.6,23.7-11.1
		c6-8.5,8.5-13.6,6.8-27.2c-1.7-13.6-49.9-323-49.9-323l-88,273.7h-106.6l-87.2-256.7l-44,302.6c0,0-1.7,18.1,5.1,28
		c9.3,13.7,26.2,13.7,26.2,13.7V658h-175.2v-39.1c0,0,13.9-2.2,24.1-14c10.2-11.9,11.9-27.2,11.9-27.2l63.9-399
		c0,0,3.8-14.9-0.4-21.7c-4.4-7.2-28.4-13.2-28.4-13.2V104.2"/>
	<path class="st61" d="M607.1,195.2l-94.5,99.5c-5,5.2-13.1,5.7-18.7,1.2l-16.1-13.2c-0.7-0.6-1.1-1.6-1.1-2.9
		c0-3.4,9.3-11.9,9.3-28c0-16.2-3.3-83.3-106.6-83.3c-103.2,0-149,96.9-149,176.8c0,79.9,49.1,226.1,209.9,226.1
		c93.6,0,113.4-52.7,113.4-52.7h32.2v137.7H409.9C200,656.3,83.1,491.4,83.1,372.4c0-182.5,158-283.7,301.3-283.7
		C523.3,88.8,607.1,195.2,607.1,195.2"/>
	<path class="st61" d="M2399.8,196.2l-94.5,99.5c-5,5.2-13.1,5.7-18.7,1.2l-16.1-13.2c-0.7-0.6-1.1-1.6-1.1-2.9
		c0-3.4,9.3-11.9,9.3-28c0-16.2-3.3-83.3-106.6-83.3c-103.2,0-149,96.9-149,176.8c0,79.9,49.1,226.1,209.9,226.1
		c93.6,0,113.4-52.7,113.4-52.7h32.2v137.7h-176.1c-209.9,0-326.7-164.9-326.7-283.8c0-182.5,158-283.7,301.3-283.7
		C2316,89.7,2399.8,196.2,2399.8,196.2"/>
</g>
</svg>
