<?xml version="1.0" encoding="utf-8"?>
<!-- Generator: Adobe Illustrator 25.4.1, SVG Export Plug-In . SVG Version: 6.00 Build 0)  -->
<svg version="1.1"
	 id="svg2" inkscape:export-filename="C:\Users\namco\OneDrive\Documents\Irem.png" xmlns:cc="http://creativecommons.org/ns#" xmlns:dc="http://purl.org/dc/elements/1.1/" xmlns:inkscape="http://www.inkscape.org/namespaces/inkscape" xmlns:rdf="http://www.w3.org/1999/02/22-rdf-syntax-ns#" xmlns:sodipodi="http://sodipodi.sourceforge.net/DTD/sodipodi-0.dtd" xmlns:svg="http://www.w3.org/2000/svg"
	 xmlns="http://www.w3.org/2000/svg" xmlns:xlink="http://www.w3.org/1999/xlink" x="0px" y="0px" viewBox="0 0 3839 2007.4"
	 style="enable-background:new 0 0 3839 2007.4;" xml:space="preserve">
<style type="text/css">
	.st0{fill:#FFFFFF;}
	.st1{fill:#5F9ED5;}
	.st2{fill:#6AB145;}
</style>
<g>
	<g>
		<g>
			<g>
				<path d="M886.9,2002.4c-46.2,0-88.6-17.7-119.6-49.9c-30.6-31.8-47.5-75-47.5-121.7c0-46.5,16.8-89.8,47.4-121.9
					c31.2-32.7,74.2-50.7,121-50.7c64.7,0,100.4,25.3,129.4,52.6l3.6,3.4l-31.8,34l-3.6-3.5c-31.8-30.1-61.1-43-98.1-43
					c-68.5,0-120.2,55-120.2,128c0,73.5,51.7,128.9,120.2,128.9c44.4,0,72.5-18.1,100.9-45.3l3.5-3.3l31,30.4l-3.5,3.5
					C991.3,1972.9,953.4,2002.4,886.9,2002.4z"/>
				<path class="st0" d="M888.3,1663.2c58.6,0,93.7,20.8,126,51.2l-25,26.8c-27.3-25.9-57.7-44.4-101.6-44.4
					c-71.5,0-125.1,57.7-125.1,133c0,75.2,54,133.9,125.1,133.9c44.4,0,73.4-17.1,104.3-46.7l24,23.6
					c-33.6,34.2-70.5,56.8-129.2,56.8c-93.2,0-162-73.4-162-166.6C724.8,1738.5,793.2,1663.2,888.3,1663.2 M888.3,1653.3
					c-48.2,0-92.4,18.6-124.6,52.3c-31.5,33-48.8,77.5-48.8,125.3c0,48,17.3,92.4,48.8,125.2c31.9,33.2,75.6,51.4,123.1,51.4
					c29.4,0,55-5.4,78.3-16.5c20-9.5,38.4-23.3,58-43.2l7-7.1l-7.1-7l-24-23.6l-6.9-6.8l-7,6.7c-27.6,26.3-54.7,43.9-97.5,43.9
					c-65.7,0-115.2-53.3-115.2-123.9c0-70.1,49.5-123,115.2-123c35.6,0,64,12.5,94.7,41.6l7.3,6.9l6.8-7.3l25-26.8l6.8-7.2l-7.2-6.8
					c-19.1-18-36.9-30.4-55.9-38.9C942.5,1658.2,917.4,1653.3,888.3,1653.3L888.3,1653.3z"/>
			</g>
			<g>
				<polygon points="1088.7,1996.9 1088.7,1663.8 1135.2,1663.8 1135.2,1953.3 1317,1953.3 1317,1996.9 				"/>
				<path class="st0" d="M1130.2,1668.8v289.5H1312v33.7h-218.3v-323.2H1130.2 M1140.1,1658.8h-9.9h-36.5h-9.9v9.9V1992v9.9h9.9
					H1312h9.9v-9.9v-33.7v-9.9h-9.9h-171.9v-279.5V1658.8L1140.1,1658.8z"/>
			</g>
			<g>
				<path d="M1651.9,1996.8l-37.9-85.4h-169.4l-38.3,85.4h-48.3l151.7-335.4h40.5l151.8,335.4H1651.9z M1595.1,1868.8l-65.7-147.7
					l-66.2,147.7H1595.1z"/>
				<path class="st0" d="M1547,1666.4l147.3,325.5h-39.2l-37.9-85.4h-175.9l-38.3,85.4h-37.4l147.2-325.5H1547 M1455.6,1873.8h147.2
					l-73.3-164.8L1455.6,1873.8 M1553.4,1656.4h-6.4h-34.1h-6.4l-2.6,5.8l-147.2,325.5l-6.4,14h15.4h37.4h6.4l2.6-5.9l35.7-79.6h163
					l35.3,79.5l2.6,5.9h6.5h39.2h15.4l-6.4-14.1L1556,1662.3L1553.4,1656.4L1553.4,1656.4z M1470.9,1863.8l58.5-130.5l58,130.5
					H1470.9L1470.9,1863.8z"/>
			</g>
			<g>
				<path d="M1876.1,2001.4c-51.8,0-94.8-16.8-135.3-53l-3.6-3.2l29-34.4l3.8,3.4c34.9,31.5,66.1,44.4,107.5,44.4
					c40.1,0,67-20.3,67-50.4c0-26.6-12.4-42.7-80.1-57c-67.5-14.6-112.5-37-112.5-98.6c0-54.2,46.7-93.6,111.1-93.6
					c46.1,0,81,12.2,116.7,40.8l3.8,3l-27.2,36.1l-4-3.3c-28.5-23.2-57.1-34-90.1-34c-37.5,0-63.8,19.6-63.8,47.6
					c0,27,12.9,43.4,83.7,58.6c76.5,16.7,109.2,45.6,109.2,96.7c0,28.7-11.4,53.1-32.9,70.7
					C1937.6,1992.4,1909.1,2001.4,1876.1,2001.4z"/>
				<path class="st0" d="M1863.1,1664c47.1,0,80.8,13.4,113.6,39.7l-21.2,28.2c-30-24.5-60-35.1-93.2-35.1
					c-42,0-68.7,23.1-68.7,52.6c0,31.1,16.6,48.2,87.6,63.5c72,15.7,105.2,42,105.2,91.8c0,55.9-46.2,91.8-110.3,91.8
					c-51.2,0-93.2-17.1-132-51.7l22.6-26.8c33.7,30.4,66,45.7,110.8,45.7c43.4,0,72-22.6,72-55.4c0-30.4-16.1-47.5-84.1-61.9
					c-74.3-16.1-108.5-40.2-108.5-93.7C1757,1700.9,1801.7,1664,1863.1,1664 M1863.1,1654.1c-67.3,0-116.1,41.5-116.1,98.6
					c0,29.5,9.8,51.9,30,68.6c18.1,14.9,45.6,26,86.3,34.9l0,0l0,0c31.9,6.7,52.1,14,63.4,23c9.1,7.1,12.8,15.6,12.8,29.2
					c0,13-5.5,24.1-15.9,32.1c-11.2,8.7-27.2,13.3-46.2,13.3c-40.1,0-70.2-12.5-104.1-43.1l-7.6-6.9l-6.6,7.9l-22.6,26.8l-6.2,7.4
					l7.2,6.4c20.6,18.4,41.7,31.7,64.3,40.7c23.1,9.1,47.4,13.6,74.3,13.6c34.2,0,63.7-9.4,85.5-27.2c11.1-9,19.7-19.9,25.6-32.4
					c6.1-12.8,9.2-27,9.2-42.2c0-27.9-9.5-49.6-29.1-66.3c-18.2-15.5-44.9-26.7-84-35.3c-33.6-7.2-54.7-14.8-66.5-23.9
					c-9.6-7.4-13.3-15.8-13.3-29.8c0-25.1,24.2-42.7,58.8-42.7c31.8,0,59.4,10.4,86.9,32.9l8,6.5l6.2-8.3l21.2-28.2l5.8-7.7l-7.5-6
					c-17.9-14.3-35.7-24.6-54.3-31.3C1908.8,1657.5,1887.4,1654.1,1863.1,1654.1L1863.1,1654.1z"/>
			</g>
			<g>
				<path d="M2180.8,2001.4c-51.8,0-94.8-16.8-135.3-53l-3.6-3.2l29-34.4l3.8,3.4c34.9,31.5,66.1,44.4,107.5,44.4
					c40.1,0,67-20.3,67-50.4c0-26.6-12.4-42.7-80.1-57c-67.5-14.6-112.5-37-112.5-98.6c0-54.2,46.7-93.6,111.1-93.6
					c46.1,0,81,12.2,116.7,40.8l3.8,3l-27.2,36.1l-4-3.3c-28.5-23.2-57.1-34-90.1-34c-37.5,0-63.8,19.6-63.8,47.6
					c-0.1,27,12.8,43.4,83.7,58.6c76.5,16.7,109.2,45.6,109.2,96.7c0,28.7-11.4,53.1-32.9,70.7
					C2242.3,1992.4,2213.8,2001.4,2180.8,2001.4z"/>
				<path class="st0" d="M2167.8,1664c47,0,80.8,13.4,113.6,39.7l-21.2,28.2c-30-24.5-60-35.1-93.2-35.1c-42,0-68.7,23.1-68.7,52.6
					c-0.1,31.1,16.6,48.2,87.6,63.5c72,15.7,105.2,42,105.2,91.8c0,55.9-46.2,91.8-110.3,91.8c-51.2,0-93.2-17.1-132-51.7l22.6-26.8
					c33.7,30.4,66,45.7,110.8,45.7c43.4,0,72-22.6,72-55.4c0-30.4-16.1-47.5-84.1-61.9c-74.3-16.1-108.5-40.2-108.5-93.7
					C2061.6,1700.9,2106.4,1664,2167.8,1664 M2167.8,1654.1c-67.3,0-116.1,41.5-116.1,98.6c0,29.5,9.8,51.9,30,68.6
					c18.1,14.9,45.6,26,86.3,34.9l0,0l0,0c31.9,6.7,52.1,14,63.4,23c9.1,7.1,12.8,15.6,12.8,29.2c0,13-5.5,24.1-15.9,32.1
					c-11.2,8.7-27.2,13.3-46.2,13.3c-40.1,0-70.2-12.5-104.1-43.1l-7.6-6.9l-6.6,7.9l-22.6,26.8l-6.2,7.4l7.2,6.4
					c20.6,18.4,41.7,31.7,64.3,40.7c23.1,9.1,47.4,13.6,74.3,13.6c34.2,0,63.7-9.4,85.5-27.2c11.1-9,19.7-19.9,25.6-32.4
					c6.1-12.8,9.2-27,9.2-42.2c0-27.9-9.5-49.6-29.1-66.3c-18.2-15.5-44.9-26.7-84-35.3c-33.6-7.2-54.7-14.8-66.5-23.9
					c-9.6-7.4-13.3-15.8-13.3-29.8c0-25.2,24.2-42.7,58.8-42.7c31.8,0,59.4,10.4,86.9,32.9l8,6.5l6.2-8.3l21.2-28.2l5.8-7.7l-7.5-6
					c-17.9-14.3-35.7-24.6-54.3-31.3C2213.5,1657.5,2192.1,1654.1,2167.8,1654.1L2167.8,1654.1z"/>
			</g>
			<g>
				<rect x="2377.6" y="1663.8" width="46.5" height="333"/>
				<path class="st0" d="M2419,1668.8v323.1h-36.5v-323.1H2419 M2429,1658.8h-9.9h-36.5h-9.9v9.9v323.1v9.9h9.9h36.5h9.9v-9.9
					v-323.1V1658.8L2429,1658.8z"/>
			</g>
			<g>
				<path d="M2675.2,2002.4c-46.2,0-88.6-17.7-119.6-49.9c-30.6-31.8-47.5-75-47.5-121.7c0-46.5,16.8-89.8,47.4-121.9
					c31.2-32.7,74.2-50.7,121-50.7c64.7,0,100.4,25.3,129.4,52.6l3.6,3.4l-31.8,34l-3.6-3.5c-31.8-30.1-61.1-43-98.1-43
					c-68.5,0-120.2,55-120.2,128c0,73.5,51.7,128.9,120.2,128.9c44.4,0,72.5-18.1,100.9-45.3l3.5-3.3l31,30.4l-3.5,3.5
					C2779.6,1972.9,2741.7,2002.4,2675.2,2002.4z"/>
				<path class="st0" d="M2676.6,1663.2c58.6,0,93.7,20.8,126,51.2l-25,26.8c-27.3-25.9-57.7-44.4-101.6-44.4
					c-71.5,0-125.1,57.7-125.1,133c0,75.2,54,133.9,125.1,133.9c44.4,0,73.4-17.1,104.3-46.7l24,23.6
					c-33.6,34.2-70.5,56.8-129.2,56.8c-93.2,0-162-73.4-162-166.6C2513.1,1738.5,2581.5,1663.2,2676.6,1663.2 M2676.6,1653.3
					c-48.2,0-92.4,18.6-124.6,52.3c-31.5,33-48.8,77.5-48.8,125.3c0,48,17.3,92.4,48.8,125.2c31.9,33.2,75.6,51.4,123.1,51.4
					c29.4,0,55-5.4,78.3-16.5c20-9.5,38.4-23.3,58-43.2l7-7.1l-7.1-7l-24-23.6l-6.9-6.8l-7,6.7c-27.6,26.3-54.7,43.9-97.5,43.9
					c-65.7,0-115.2-53.3-115.2-123.9c0-70.1,49.5-123,115.2-123c35.6,0,64,12.5,94.7,41.6l7.3,6.9l6.8-7.3l25-26.8l6.8-7.2l-7.2-6.8
					c-19.1-18-36.9-30.4-55.9-38.9C2730.8,1658.2,2705.7,1653.3,2676.6,1653.3L2676.6,1653.3z"/>
			</g>
			<g>
				<path d="M2992.8,2001.4c-51.8,0-94.8-16.8-135.3-53l-3.6-3.2l29-34.4l3.8,3.4c34.9,31.5,66.1,44.4,107.5,44.4
					c40.1,0,67-20.3,67-50.4c0-26.6-12.4-42.7-80.1-57c-67.5-14.6-112.5-37-112.5-98.6c0-54.2,46.7-93.6,111.1-93.6
					c46.1,0,81,12.2,116.7,40.8l3.8,3L3073,1739l-4-3.3c-28.5-23.2-57.1-34-90.1-34c-37.5,0-63.8,19.6-63.8,47.6
					c-0.1,27,12.8,43.4,83.7,58.6c76.5,16.7,109.2,45.6,109.2,96.7c0,28.7-11.4,53.1-32.9,70.7
					C3054.3,1992.4,3025.8,2001.4,2992.8,2001.4z"/>
				<path class="st0" d="M2979.8,1664c47.1,0,80.8,13.4,113.6,39.7l-21.2,28.2c-30-24.5-60-35.1-93.2-35.1
					c-42,0-68.7,23.1-68.7,52.6c-0.1,31.1,16.5,48.2,87.6,63.5c72,15.7,105.2,42,105.2,91.8c0,55.9-46.2,91.8-110.3,91.8
					c-51.2,0-93.2-17.1-132-51.7l22.6-26.8c33.7,30.4,66,45.7,110.8,45.7c43.4,0,72-22.6,72-55.4c0-30.4-16.1-47.5-84.1-61.9
					c-74.3-16.1-108.5-40.2-108.5-93.7C2873.6,1700.9,2918.4,1664,2979.8,1664 M2979.8,1654.1c-67.3,0-116.1,41.5-116.1,98.6
					c0,29.5,9.8,51.9,30,68.6c18.1,14.9,45.6,26,86.3,34.9l0,0l0,0c31.9,6.7,52.1,14,63.4,23c9.1,7.1,12.8,15.6,12.8,29.2
					c0,13-5.5,24.1-15.9,32.1c-11.2,8.7-27.2,13.3-46.2,13.3c-40.1,0-70.2-12.5-104.1-43.1l-7.6-6.9l-6.6,7.9l-22.6,26.8l-6.2,7.4
					l7.2,6.4c20.6,18.4,41.7,31.7,64.3,40.7c23.1,9.1,47.4,13.6,74.3,13.6c34.2,0,63.7-9.4,85.5-27.2c11.1-9,19.7-19.9,25.6-32.4
					c6.1-12.8,9.2-27,9.2-42.2c0-27.9-9.5-49.6-29.1-66.3c-18.2-15.5-44.9-26.7-84-35.3c-33.6-7.2-54.8-14.8-66.6-23.9
					c-9.6-7.4-13.3-15.8-13.2-29.8c0-25.2,24.2-42.7,58.8-42.7c31.8,0,59.4,10.4,86.9,32.9l8,6.5l6.2-8.3l21.2-28.2l5.8-7.7l-7.5-6
					c-17.9-14.3-35.7-24.6-54.3-31.3C3025.5,1657.5,3004.1,1654.1,2979.8,1654.1L2979.8,1654.1z"/>
			</g>
		</g>
	</g>
	<g>
		<g>
			<path d="M1420.3,1475.1v-471.8h-417v471.8H5V5h526.6v471.8H3834v998.3H1420.3z M3779.2,1420.3V531.5H2418.7v888.8H3779.2z
				 M2363.9,1420.3V531.5h-888.8v888.8H2363.9z M948.5,1420.3V948.5h471.8v-417H531.5v888.8H948.5z M476.8,1420.3V531.5h-417v888.8
				H476.8z M476.8,476.8v-417h-417v417H476.8z"/>
			<path class="st0" d="M526.6,9.9v471.8h898.7h44.8h898.7h44.8h1415.4v988.4H2413.7h-44.8h-943.6V998.3h-427v471.8H526.6h-44.8H9.9
				V526.6v-44.8V9.9H526.6 M54.8,481.7h427v-427h-427V481.7 M2413.7,1425.3h1370.5V526.6H2413.7V1425.3 M1470.1,1425.3h898.7V526.6
				h-898.7v471.8V1425.3 M526.6,1425.3h427V953.5h471.8v-427H526.6V1425.3 M54.8,1425.3h427V526.6h-427V1425.3 M536.5,0h-9.9H9.9H0
				v9.9v471.8v44.8v943.6v9.9h9.9h471.8h44.8h471.8h9.9v-9.9v-461.8h407.1v461.8v9.9h9.9h943.6h44.8h1415.4h9.9v-9.9V481.7v-9.9
				h-9.9H2413.7h-44.8h-898.7h-44.8H536.5V9.9V0L536.5,0z M64.7,64.7h407.1v407.1H64.7V64.7L64.7,64.7z M2423.6,536.5h1350.6v878.8
				H2423.6V536.5L2423.6,536.5z M1480.1,536.5h878.8v878.8h-878.8v-417V536.5L1480.1,536.5z M536.5,536.5h878.8v407.1H953.5h-9.9
				v9.9v461.8H536.5V536.5L536.5,536.5z M64.7,536.5h407.1v878.8H64.7V536.5L64.7,536.5z"/>
		</g>
		<rect x="1447.8" y="504.2" class="st0" width="943.6" height="943.6"/>
		<rect x="2391.3" y="504.2" class="st0" width="1415.4" height="943.6"/>
		<rect x="32.4" y="32.4" class="st1" width="471.8" height="471.8"/>
		<rect x="2840.7" y="976" width="44.8" height="471.8"/>
		<rect x="2840.7" y="976" width="44.8" height="471.8"/>
		<polygon class="st0" points="1447.8,976 976,976 976,1447.8 504.2,1447.8 504.2,504.2 1447.8,504.2 		"/>
		<polyline class="st2" points="32.4,504.2 504.2,504.2 504.2,1447.8 32.4,1447.8 32.4,504.2 		"/>
		<path d="M2413.7,481.7h-44.8h-898.7h-44.8H526.6V9.9H9.9v471.8v44.8v943.6h471.8h44.8h471.8V998.3h427v471.8h943.6h44.8h1415.4
			V481.7H2413.7z M54.8,54.8h427v427h-427V54.8z M54.8,1425.3V526.6h427v898.7H54.8z M953.5,953.5v471.8h-427V526.6h898.7v427H953.5
			z M2368.9,1425.3h-898.7v-427V526.6h898.7V1425.3z M3784.2,1425.3H2413.7V526.6h1370.5V1425.3z"/>
		<rect x="1762.3" y="796.2" width="314.5" height="44.8"/>
		<rect x="1762.3" y="1110.8" width="629.1" height="44.8"/>
		<rect x="3312.4" y="976" width="44.8" height="471.8"/>
		<rect x="3312.4" y="976" width="44.8" height="471.8"/>
	</g>
</g>
</svg>
