<?xml version="1.0" encoding="utf-8"?>
<!-- Generator: Adobe Illustrator 26.4.1, SVG Export Plug-In . SVG Version: 6.00 Build 0)  -->
<svg version="1.1" id="Layer_1" xmlns="http://www.w3.org/2000/svg" xmlns:xlink="http://www.w3.org/1999/xlink" x="0px" y="0px"
	 viewBox="0 0 3839 829.3" style="enable-background:new 0 0 3839 829.3;" xml:space="preserve">
<style type="text/css">
	.st0{fill:#FFFFFF;}
	.st1{fill:#FF0000;}
</style>
<g>
	<g>
		<path class="st0" d="M5,824.3v-337h5c43.8,0,79.5-35.7,79.5-79.5c0-43.8-35.7-79.5-79.5-79.5H5V5H3834v819.3H5z"/>
		<path class="st0" d="M3829.1,9.9v809.4H9.9V492.2c46.7,0,84.5-37.8,84.5-84.5s-37.8-84.5-84.5-84.5V9.9H3829.1 M3839,0h-9.9H9.9H0
			v9.9v313.4v9.9h9.9c41.1,0,74.5,33.4,74.5,74.5c0,41.1-33.4,74.5-74.5,74.5H0v9.9v327.1v9.9h9.9h3819.1h9.9v-9.9V9.9V0L3839,0z"/>
	</g>
	<g>
		<g>
			<path class="st1" d="M9.9,9.9v313.4c46.7,0,84.5,37.8,84.5,84.5s-37.8,84.5-84.5,84.5v327.1h3819.1V9.9H9.9z"/>
		</g>
		<g>
			<rect x="2122.9" y="388.5" class="st0" width="134.2" height="286.4"/>
			<path class="st0" d="M1506.8,144.3v554.5h134.2V258.4h181.6c36,0,65.3,29.2,65.3,65.3v375.1h134.2v-418
				c0-75.4-61.1-136.5-136.5-136.5L1506.8,144.3L1506.8,144.3z"/>
			<rect x="2122.9" y="338.3" class="st0" width="515.7" height="114.1"/>
			<rect x="2123" y="584.7" class="st0" width="515.7" height="114.1"/>
			<polygon class="st0" points="887.7,698.8 887.7,584.7 1359.2,584.7 1403.4,698.8 			"/>
			<rect x="2123" y="144.3" class="st0" width="515.7" height="98"/>
			<rect x="242.7" y="144.3" class="st0" width="134.2" height="554.5"/>
			<g>
				<polygon class="st0" points="979.7,356.5 820.2,698.8 968.4,698.8 1127.8,356.5 				"/>
			</g>
			<polygon class="st0" points="1194.2,144.3 1046.1,144.3 1304.5,698.8 1452.5,698.8 			"/>
			<g>
				<polygon class="st0" points="527.4,398 781,144.3 603.3,144.3 405.9,341.7 405.9,451 628.8,698.8 798,698.8 				"/>
			</g>
			<g>
				<polygon class="st0" points="2835,398 3088.8,144.3 2910.9,144.3 2713.6,341.7 2713.6,451 2936.6,698.8 3105.7,698.8 				"/>
			</g>
			<path class="st0" d="M3405.2,105.5c-170.8,0-309.2,138.5-309.2,309.2c0,170.8,138.5,309.2,309.2,309.2
				c170.8,0,309.2-138.5,309.2-309.2C3714.3,243.8,3576,105.5,3405.2,105.5z M3405.2,598.3c-89,0-161.3-82.3-161.3-183.7
				s72.2-183.7,161.3-183.7s161.3,82.3,161.3,183.7C3566.4,516.1,3494.3,598.3,3405.2,598.3z"/>
		</g>
	</g>
</g>
</svg>
