<?xml version="1.0" encoding="utf-8"?>
<!-- Generator: Adobe Illustrator 25.4.1, SVG Export Plug-In . SVG Version: 6.00 Build 0)  -->
<svg version="1.1" id="Layer_1" xmlns="http://www.w3.org/2000/svg" xmlns:xlink="http://www.w3.org/1999/xlink" x="0px" y="0px"
	 viewBox="0 0 3839 960" style="enable-background:new 0 0 3839 960;" xml:space="preserve">
<style type="text/css">
	.st0{fill:#E31E26;}
	.st1{fill:#FFFFFF;}
</style>
<g>
	<g>
		<path class="st0" d="M509.9,955c-73.7,0-143.3-12.6-206.7-37.5c-60.7-23.8-114.3-58.1-159.4-102C54.3,728.5,5,609.8,5,481.3
			C5,353.1,54.1,234.1,143.4,146c44.9-44.3,98.2-79,158.3-103.1c63-25.2,131.8-38,204.5-38l2.5,0h2820.4c0.8,0,1.6,0,2.5,0
			c72.8,0,141.6,12.7,204.6,37.8c60.2,24,113.5,58.5,158.5,102.8c89.3,87.8,138.8,207,139.5,335.7c0,128.3-49.5,247-139.3,334.3
			c-45.2,43.9-98.9,78.2-159.5,102c-63.4,24.9-132.8,37.5-206.2,37.5H509.9z"/>
		<path class="st1" d="M3331.5,9.9c296.7,0,496.2,213.9,497.5,471.3c0,256.9-200.8,468.8-500,468.8H509.9
			c-300.5,0-500-211.9-500-468.8C9.9,225.1,209.6,9.9,506.2,9.9c0.8,0,1.6,0,2.5,0h2820.4C3329.9,9.9,3330.7,9.9,3331.5,9.9
			 M3331.5,0c-0.8,0-1.7,0-2.5,0H508.7c-0.8,0-1.6,0-2.5,0c-73.3,0-142.8,12.9-206.4,38.3c-60.7,24.3-114.6,59.3-160,104.1
			C95.4,186.4,60.6,238,36.6,295.8C12.3,354.2,0,416.6,0,481.3c0,129.8,49.8,249.8,140.3,337.8c45.6,44.4,99.8,79.1,161.1,103.1
			c64,25.1,134.2,37.8,208.5,37.8h2819.1c74,0,144-12.7,208-37.8c61.2-24,115.5-58.7,161.1-103.1c44.8-43.6,79.8-94.8,104-152.4
			c24.4-58.2,36.8-120.6,36.8-185.5v0v0c-0.3-65-12.9-127.6-37.3-186c-24.2-57.8-59.1-109.4-103.6-153.2
			c-45.5-44.7-99.3-79.6-160.1-103.8C3474.4,12.8,3404.9,0,3331.5,0L3331.5,0z"/>
	</g>
	<g>
		<path class="st1" d="M3327.9,835.4H509.9C271.8,836.6,127.1,677,127.1,480S273,125.8,509.9,124.7h2817.9
			c236.9,0,382.8,158.4,382.8,355.3S3564.7,835.4,3327.9,835.4z"/>
		<path class="st0" d="M718.2,567.3L527.4,258.1H389v442.6h137.2V391.5l192,309.2h137.2V258.1H718.2V567.3z M1802.9,406.5v-43.7
			h-72.3v-59.9h-133.4v59.9h-72.3v43.7h72.3v294.3h133.4V406.5H1802.9z M931.3,700.8h133.4V406.5H931.3V700.8z M931.3,347.9h133.4
			v-91H931.3V347.9z M3263,386.5c-107.2,0-194.5,73.5-194.5,165.8c0,91,87.2,165.8,194.5,165.8c107.2,0,194.5-73.5,194.5-165.8
			S3372.7,386.5,3263,386.5z M3316.6,613.4c0,47.4-27.5,66.1-54.8,66.1c-26.2,0-54.8-20-54.8-66.1c0-17.4,0-63.6,0-63.6
			s0-43.7,0-61.1c0-46.2,27.5-66.1,54.8-66.1c26.2,0,54.8,18.7,54.8,66.1c0,17.4,0,51.1,0,62.4
			C3316.6,552.3,3316.6,596,3316.6,613.4z M2895.1,421.4c-21.2-12.4-43.7-23.7-74.8-26.2c-96-8.8-169.6,76.1-169.6,154.6
			c0,102.3,78.6,140.9,91,145.8c44.9,21.2,102.3,21.2,153.4-11.2c0,2.5,0,17.4,0,17.4H3026V259.4h-130.9
			C2895.1,258.1,2895.1,352.9,2895.1,421.4z M2895.1,552.3c0,0,0,33.6,0,52.3c0,44.9-31.1,57.4-52.3,57.4s-52.3-12.4-52.3-57.4
			c0-16.2,0-52.3,0-52.3s0-37.4,0-52.3c0-46.2,31.1-57.4,52.3-57.4s52.3,11.2,52.3,57.4C2895.1,514.9,2895.1,552.3,2895.1,552.3z
			 M1376.5,392.8c-43.7,1.3-81.1,20-105.9,44.9c0-7.5,0-31.1,0-31.1h-132.2v294.3h132.2c0,0,0-180.8,0-193.3
			c0-26.2,27.5-53.6,63.6-53.6c36.1,0,61.1,28.7,61.1,53.6c0,18.7,0,193.3,0,193.3h132.2c0,0,0-139.7,0-159.6
			C1527.3,423.9,1426.4,391.5,1376.5,392.8z M2458.8,392.8c-43.7,1.3-81.1,20-105.9,44.9c0-7.5,0-31.1,0-31.1h-132.2v294.3h132.1
			c0,0,0-180.8,0-193.3c0-26.2,27.5-53.6,63.6-53.6s61.1,28.7,61.1,53.6c0,18.7,0,193.3,0,193.3h132.2c0,0,0-139.7,0-159.6
			C2608.4,423.9,2507.4,391.5,2458.8,392.8z M2178.3,554.8c0-91-88.5-167-197-167c-108.4,0-195.8,73.5-195.8,165.8
			c0,91,87.2,165.8,195.8,165.8c89.7,0,165.8-51.1,189.5-121h-132.2c0,0,0,1.3,0,17.4c0,53.6-34.9,66.1-54.8,66.1
			c-20,0-56.1-12.4-56.1-66.1c0-16.2,0-61.1,0-61.1H2178.3z M1937.6,451.4c9.9-18.7,29.9-26.2,47.4-27.5c17.4,0,36.1,8.8,47.4,27.5
			c8.8,14.9,8.8,32.4,8.8,57.4h-110.9C1927.6,482.5,1927.6,466.3,1937.6,451.4z M3512.3,313c0-14.9-11.2-21.2-32.4-21.2H3450v76.1
			h18.7v-31.1h8.8l14.9,31.1h20l-16.2-33.6C3506.1,330.4,3512.3,322.9,3512.3,313z M3477.5,324.1h-8.8v-22.5h7.5
			c11.2,0,16.2,3.8,16.2,11.2C3493.6,321.6,3487.4,324.1,3477.5,324.1z M3477.5,261.8c-37.4,0-68.5,29.9-68.5,68.5
			c0,37.4,31.1,68.5,68.5,68.5c37.4,0,68.5-31.1,68.5-68.5C3546,291.8,3514.9,261.8,3477.5,261.8z M3477.5,385.3
			c-29.9,0-54.8-25-54.8-54.8c0-29.9,25-54.8,54.8-54.8c29.8,0,54.8,25,54.8,54.8C3532.3,360.3,3508.6,385.3,3477.5,385.3z
			 M3329.1,10H508.7C210.7,8.8,9.9,224.4,9.9,481.3s199.5,468.8,500,468.8h2819.1c299.2,0,500-211.9,500-468.8
			C3827.8,223.1,3627.1,8.8,3329.1,10z M3327.9,835.4H509.9C271.8,836.6,127.1,677,127.1,480S273,125.8,509.9,124.7h2817.9
			c236.9,0,382.8,158.4,382.8,355.3S3564.7,835.4,3327.9,835.4z M3329.1,10H508.7C210.7,8.8,9.9,224.4,9.9,481.3
			s199.5,468.8,500,468.8h2819.1c299.2,0,500-211.9,500-468.8C3827.8,223.1,3627.1,8.8,3329.1,10z M3327.9,835.4H509.9
			C271.8,836.6,127.1,677,127.1,480S273,125.8,509.9,124.7h2817.9c236.9,0,382.8,158.4,382.8,355.3S3564.7,835.4,3327.9,835.4z
			 M3329.1,10H508.7C210.7,8.8,9.9,224.4,9.9,481.3s199.5,468.8,500,468.8h2819.1c299.2,0,500-211.9,500-468.8
			C3827.8,223.1,3627.1,8.8,3329.1,10z M3327.9,835.4H509.9C271.8,836.6,127.1,677,127.1,480S273,125.8,509.9,124.7h2817.9
			c236.9,0,382.8,158.4,382.8,355.3S3564.7,835.4,3327.9,835.4z"/>
	</g>
</g>
</svg>
