<?xml version="1.0" encoding="utf-8"?>
<!-- Generator: Adobe Illustrator 26.3.1, SVG Export Plug-In . SVG Version: 6.00 Build 0)  -->
<svg version="1.1" id="Layer_1" xmlns="http://www.w3.org/2000/svg" xmlns:xlink="http://www.w3.org/1999/xlink" x="0px" y="0px"
	 viewBox="0 0 3839 692.8" style="enable-background:new 0 0 3839 692.8;" xml:space="preserve">
<style type="text/css">
	.st0{fill:#FFFFFF;}
	.st1{fill:#EF2416;}
	.st2{fill:#FFFFFF;stroke:#FFFFFF;stroke-width:19.9736;stroke-linecap:round;stroke-linejoin:round;stroke-miterlimit:10;}
</style>
<g>
	<g>
		<g>
			<path class="st0" d="M1589.8,261.9l-8-9.1h-57l-8,9.1h-46l58.4-63.6h48.5l57.6,63.6H1589.8z M1563.2,231.2l-9.2-10.3h-1.2
				l-9.1,10.3H1563.2z"/>
			<path class="st0" d="M1575.6,203.3l48.6,53.7h-32.1l-8-9.1h-61.5l-8,9.1h-32.4l49.3-53.7H1575.6 M1532.6,236.1h41.6l-18-20.3
				h-5.7L1532.6,236.1 M1580,193.4h-4.4h-44.1h-4.4l-3,3.2l-49.3,53.7l-15.3,16.7h22.6h32.4h4.5l3-3.4l5-5.7h52.5l5,5.7l3,3.4h4.5
				h32.1h22.4l-15-16.6l-48.6-53.7L1580,193.4L1580,193.4z"/>
		</g>
		<g>
			<polygon class="st0" points="1771.7,261.9 1772.3,224.8 1739.9,261.9 1711.8,261.9 1679.1,224.5 1679.8,261.9 1641.8,261.9 
				1641.8,198.3 1700.6,198.3 1725.8,230.1 1751.2,198.3 1809.6,198.3 1809.6,261.9 			"/>
			<path class="st0" d="M1804.6,203.3V257h-27.9l0.7-40.1h-4.7l-35,40.1h-23.6l-35-40.1h-5l0.7,40.1h-27.9v-53.7h51.4l27.6,34.8
				l27.8-34.8H1804.6 M1814.6,193.4h-9.9h-51.1h-4.8l-3,3.7l-20,25.1l-19.9-25l-3-3.8h-4.8h-51.4h-9.9v9.9V257v9.9h9.9h27.9h10.1
				l-0.2-10.1l-0.3-18.8l22.2,25.5l3,3.4h4.5h23.6h4.5l3-3.4l22-25.2l-0.3,18.4l-0.2,10.1h10.1h27.9h9.9V257v-53.7V193.4
				L1814.6,193.4z"/>
		</g>
		<g>
			<path class="st0" d="M1895.4,262.7l-8.5,0c-10.8,0-23.3-0.1-34.1-1.7c-5.3-0.7-9.8-2.2-13.6-4.4c-9.1-5.2-9.3-15.5-9.4-21l0-0.9
				c0-1.1,0-2.2-0.1-3.3c0-1.2-0.1-2.4-0.1-3.6v-29.7h38.3V228c0,0.7,0,1.5,0.1,2.2c0,0.8,0.1,1.7,0.1,2.5c0,0.2,0,0.5,0,0.8
				c0.1,3,0.4,3.4,1.1,3.8l0.1,0c1.1,0.5,2.5,0.8,4.5,1c5.5,0.6,11.5,0.6,17.2,0.6l3.9,0c3.6,0,7.3,0,10.9-0.1l1,0
				c4.9,0,13.9-0.1,14.6-2.5c0.2-1,0.3-2.3,0.3-3.5c0-0.5,0.1-1.1,0.1-1.6c0.5-6.6,0.4-13.5,0.3-20.1c0-2.6-0.1-5.2-0.1-7.8v-5h38.3
				V228c0,2.3-0.1,4.4-0.3,6.5l0,0.2c0,0.5,0,1-0.1,1.6c-0.2,5.9-0.5,14.9-10,20.6c-3.7,2.2-8.5,3.7-14.7,4.5
				c-10.1,1.2-21.1,1.3-30.6,1.3C1903,262.8,1896.8,262.7,1895.4,262.7z"/>
			<path class="st0" d="M1955.4,203.3V228c0,2.2-0.1,4.3-0.3,6.4c-0.3,6.2,0.3,13.4-7.7,18.2c-3.5,2.1-8,3.2-12.8,3.9
				c-9.4,1.2-19.9,1.3-29.9,1.3c-3.2,0-6.3,0-9.3,0c-2.7,0-5.6,0-8.5,0c-11.1,0-23.1-0.2-33.4-1.6c-4.6-0.6-8.5-1.9-11.9-3.8
				c-7-4-6.8-12.3-7-17.5c0-2.3-0.1-4.6-0.1-6.8v-24.7h28.3V228c0,1.6,0.1,3.2,0.1,4.8c0.1,2.8-0.1,7,4,8.9c1.8,0.9,3.8,1.2,6.1,1.4
				c5.7,0.6,11.8,0.6,17.7,0.6c1.3,0,2.6,0,3.9,0c3.6,0,7.4,0,11-0.1c9.1-0.1,18.8,0.1,20.4-6.4c0.4-1.9,0.4-3.9,0.6-5.9
				c0.7-9.4,0.3-18.8,0.3-28.2H1955.4 M1965.3,193.4h-9.9H1927h-9.9v9.9c0,2.6,0,5.3,0.1,7.8c0.1,6.8,0.2,13.3-0.3,19.7
				c0,0.6-0.1,1.1-0.1,1.7c0,0.3,0,0.5,0,0.8c-2.6,0.5-7.2,0.5-10,0.5l-1,0l-0.1,0l-0.1,0c-3.5,0.1-7.2,0.1-10.8,0.1l-2,0l-2,0
				c-5.6,0-11.4,0-16.7-0.6c-0.3,0-0.7-0.1-1.2-0.1c0-0.2,0-0.4,0-0.6c0-0.9,0-1.8-0.1-2.6c0-0.7-0.1-1.4-0.1-2v-24.7v-9.9h-9.9
				h-28.3h-9.9v9.9V228c0,1.3,0,2.5,0.1,3.7c0,1.1,0.1,2.1,0.1,3.1v0.1l0,0.1l0,0.7c0.1,6,0.4,18.5,11.9,25.2
				c4.4,2.5,9.5,4.2,15.5,5c11.1,1.6,23.8,1.7,34.8,1.7c1.5,0,2.9,0,4.4,0c1.4,0,2.8,0,4.1,0c1.5,0,3,0,4.5,0c1.6,0,3.2,0,4.8,0
				c9.7,0,20.8-0.1,31.1-1.4l0,0l0,0c6.9-0.9,12.3-2.6,16.7-5.2c11.9-7.1,12.2-18.1,12.4-24.7c0-0.5,0-1,0.1-1.5l0-0.1
				c0.1-2.2,0.3-4.4,0.3-6.9v-24.7V193.4L1965.3,193.4z"/>
		</g>
		<g>
			<path class="st0" d="M2028,262.8c-10.3,0-21-0.2-30.2-1.3c-5.5-0.7-9.9-2-13.4-4.1c-6.9-3.9-7.8-9.5-7.8-14
				c0-1.6,0.2-3.1,0.3-4.6l0.5-4.5h5.9c-5.7-4.8-5.7-11.4-5.7-14.4c0-13.9,8.3-20.5,26.9-21.6c10-0.6,20.4-0.7,30.2-0.7l12.6,0
				c10,0,20.5,0.1,30.4,1.5c13.6,2,19.6,7.7,19.6,18.6v7.5h-2.7c6,4.7,6,11.9,6,15.2c0,3.3,0,12-8.6,17.3
				c-7.5,4.7-21.3,4.8-31.3,4.8l-1.7,0c-7.2,0.2-14.7,0.2-21.8,0.2C2035.7,262.7,2029.6,262.8,2028,262.8z"/>
			<path class="st0" d="M2047.2,202.5c9.9,0,20.1,0.1,29.7,1.5c12.7,1.9,15.4,6.7,15.4,13.7v2.6h-27.5v-0.8c0-1.5-0.3-2.7-2.7-3.5
				c-2.3-0.9-7.3-1-10.6-1c-0.5,0-1,0-1.4,0h-24.1c-0.4,0-0.9,0-1.4,0c-3.6,0-10.1,0.1-12.2,1c-1.8,0.7-2.2,2-2.2,3.2
				c0,1,0.4,2.3,1.8,2.9c1,0.5,2.4,0.6,3.6,0.7c3.2,0.3,6.6,0.3,9.8,0.4c6.3,0.2,12.6,0.3,18.8,0.4c10.7,0.2,26.1,0.1,36.6,1.7
				c3.3,0.6,6.3,1.4,8.9,2.7c5.7,2.9,6,8.4,6,12.5c0,4.5-0.7,9.7-6.3,13.1c-6.7,4.2-21.4,4-30.4,4.1c-7.3,0.2-14.5,0.2-21.8,0.2
				c-2.9,0-6,0-9.1,0c-9.9,0-20.5-0.1-29.6-1.3c-4.5-0.6-8.4-1.6-11.6-3.5c-4.7-2.7-5.3-6.1-5.3-9.7c0-1.4,0.1-2.7,0.3-4.1h27.4
				c0,1.2,0,2.3,0.7,3.5c0.4,0.7,1,1.2,2.1,1.7c2.1,1,7.5,1.1,11.2,1.1c1,0,1.8,0,2.5,0c4,0,8,0.1,12,0.1c5,0,9.9-0.1,14.9-0.1
				c0.7,0,1.6,0,2.6,0c4.1,0,10.1-0.2,12-1.7c1-0.9,1-2.1,1-3.1c0-4.1-5.6-3.9-11.3-4c-14.9-0.2-29.9-0.7-44.8-1
				c-8.1-0.2-18.4-0.3-24.3-4.1c-4.9-3.1-5.3-7.6-5.3-11.7c0-9.6,4.3-15.6,22.2-16.7c9.8-0.6,19.9-0.6,29.9-0.6c2.2,0,4.4,0,6.7,0
				C2043.2,202.5,2045.2,202.5,2047.2,202.5 M2047.2,192.5L2047.2,192.5l-3,0l-2.9,0l-3.3,0l-3.3,0c-9.9,0-20.3,0.1-30.5,0.7
				c-10.9,0.6-18.4,3-23.7,7.5c-5.3,4.5-7.9,10.8-7.9,19.1c0,1.9,0,5.5,1.4,9.4h-1.1l-0.9,8.9c-0.2,1.5-0.3,3.2-0.3,5.1
				c0,3.1,0,12.6,10.3,18.4c4.1,2.4,9.1,3.9,15.3,4.7c9.4,1.2,20.4,1.4,30.8,1.4c1.6,0,3.2,0,4.7,0c1.5,0,2.9,0,4.4,0
				c7.2,0,14.6,0,21.9-0.2l1.6,0c4.7,0,10.6-0.1,16.3-0.6c7.8-0.8,13.4-2.4,17.6-5c11-6.8,11-17.9,11-21.6c0-2.6,0-8.6-3.3-14v-6.2
				v-2.6c0-2.4,0-9.8-5.7-15.7c-4-4.1-9.8-6.6-18.1-7.8C2068.1,192.7,2057.3,192.5,2047.2,192.5L2047.2,192.5z"/>
		</g>
		<g>
			<polygon class="st0" points="2117.3,261.9 2117.3,198.3 2230.3,198.3 2230.3,220.9 2226.5,220.9 2226.5,239.1 2230.8,239.1 
				2230.8,261.9 			"/>
			<path class="st0" d="M2225.3,203.3v12.6h-75.1v7.8h71.3v11.7h-71.3v8.6h75.6V257h-103.6v-53.7H2225.3 M2235.2,193.4h-9.9h-103
				h-9.9v9.9V257v9.9h9.9h103.6h9.9V257v-12.9v-9.9h-4.3v-8.3h3.8v-9.9v-12.6V193.4L2235.2,193.4z"/>
		</g>
		<g>
			<polygon class="st0" points="2377.9,261.9 2378.5,224.8 2346.1,261.9 2318,261.9 2285.4,224.5 2286,261.9 2248.1,261.9 
				2248.1,198.3 2306.8,198.3 2332,230.1 2357.4,198.3 2415.8,198.3 2415.8,261.9 			"/>
			<path class="st0" d="M2410.9,203.3V257H2383l0.7-40.1h-4.7l-35,40.1h-23.6l-35-40.1h-5l0.7,40.1H2253v-53.7h51.4l27.6,34.8
				l27.8-34.8H2410.9 M2420.8,193.4h-9.9h-51.1h-4.8l-3,3.7l-20,25.1l-19.9-25l-3-3.8h-4.8H2253h-9.9v9.9V257v9.9h9.9h27.9h10.1
				l-0.2-10.1l-0.3-18.8l22.2,25.5l3,3.4h4.5h23.6h4.5l3-3.4l22-25.2l-0.3,18.4l-0.2,10.1h10.1h27.9h9.9V257v-53.7V193.4
				L2420.8,193.4z"/>
		</g>
		<g>
			<polygon class="st0" points="2436.2,261.9 2436.2,198.3 2549.1,198.3 2549.1,220.9 2545.3,220.9 2545.3,239.1 2549.7,239.1 
				2549.7,261.9 			"/>
			<path class="st0" d="M2544.1,203.3v12.6H2469v7.8h71.3v11.7H2469v8.6h75.6V257h-103.6v-53.7H2544.1 M2554.1,193.4h-9.9h-103h-9.9
				v9.9V257v9.9h9.9h103.6h9.9V257v-12.9v-9.9h-4.3v-8.3h3.8v-9.9v-12.6V193.4L2554.1,193.4z"/>
		</g>
		<g>
			<polygon class="st0" points="2650.3,261.9 2605.2,225.1 2605.8,261.9 2566.9,261.9 2566.9,198.3 2623.3,198.3 2668.1,235.1 
				2667.4,198.3 2706.4,198.3 2706.4,261.9 			"/>
			<path class="st0" d="M2701.4,203.3V257h-49.3l-49-40h-3.1l0.7,40h-28.9v-53.7h49.7l48.7,40h2.9l-0.7-40H2701.4 M2711.3,193.4
				h-9.9h-28.9h-10.1l0.2,10.1l0.4,20.9l-35-28.8l-2.8-2.3h-3.6h-49.7h-9.9v9.9V257v9.9h9.9h28.9h10.1l-0.2-10.1l-0.4-21.1l35.5,29
				l2.7,2.2h3.5h49.3h9.9V257v-53.7V193.4L2711.3,193.4z"/>
		</g>
		<g>
			<polygon class="st0" points="2761.5,261.9 2761.5,222 2720,222 2720,198.3 2842.6,198.3 2842.6,222 2801.1,222 2801.1,261.9 			
				"/>
			<path class="st0" d="M2837.6,203.3V217h-41.4v40h-29.7v-40H2725v-13.7H2837.6 M2847.6,193.4h-9.9H2725h-9.9v9.9V217v9.9h9.9h31.5
				v30v9.9h9.9h29.7h9.9V257v-30h31.5h9.9V217v-13.7V193.4L2847.6,193.4z"/>
		</g>
		<g>
			<polygon class="st0" points="3012.7,261.9 2997.2,229.3 2981.9,261.9 2932,261.9 2890.5,198.3 2931.4,198.3 2956,237.9 
				2976.8,198.3 3017,198.3 3038,238.1 3062.9,198.3 3105,198.3 3062.2,261.9 			"/>
			<path class="st0" d="M3095.7,203.3l-36.1,53.7h-43.7l-18.7-39.3l-18.4,39.3h-44l-35-53.7h28.9l25,40.1h5.2l21.1-40.1h34.2
				l21.2,40.1h5.3l25.1-40.1H3095.7 M3114.4,193.4h-18.7h-30h-5.5l-2.9,4.7l-18.8,30.1l-15.6-29.5l-2.8-5.3h-6h-34.2h-6l-2.8,5.3
				l-15.4,29.3L2937,198l-2.9-4.7h-5.5h-28.9h-18.4l10,15.4l35,53.7l2.9,4.5h5.4h44h6.3l2.7-5.7l9.5-20.2l9.6,20.3l2.7,5.7h6.3h43.7
				h5.3l3-4.4l36.1-53.7L3114.4,193.4L3114.4,193.4z"/>
		</g>
		<g>
			<path class="st0" d="M3189.8,262.8c-2.1,0-4.2,0-6.3,0c-2.1,0-4.1,0-6.2,0c-7.2,0-14.7,0-22-0.1l-0.9,0
				c-10.5-0.1-24.9-0.2-33.8-4c-10.5-4.4-11.4-13.9-11.8-18.5c-0.4-3.4-0.4-6.7-0.4-10c0-3.2,0-6.6,0.5-10.1
				c0.5-4.8,1.6-13.9,11.7-18.4c4-1.7,8.7-2.8,14.9-3.3c9-0.8,19-0.9,27.5-0.9c2.5,0,5,0,7.4,0c2.4,0,4.7,0,6.9,0
				c7.3,0,14.4,0.1,21.8,0.2l1.2,0c10.4,0.1,24.7,0.2,33.6,4c10.2,4.3,11.2,13.2,11.8,18.4c0.5,3.4,0.5,6.8,0.5,10
				c0,3.2,0,6.5-0.4,9.9c-0.4,4.6-1.3,13.9-11.7,18.5c-4.7,2.1-9.9,2.8-14.8,3.2C3209.5,262.7,3199.3,262.8,3189.8,262.8
				C3189.8,262.8,3189.8,262.8,3189.8,262.8z M3164.1,221.5c-3.9,0-14.2,0-16.4,1.7c-0.8,0.6-0.8,4-0.8,7.7l0,0.7c0,0.3,0,0.6,0,1
				c-0.1,3.6,0.3,4.4,1.3,4.9c1,0.5,5.1,1.5,21.1,1.5c1.9,0,3.7,0,5.2,0c1.1,0,2.1,0,2.9,0c2.2,0,4.5,0,6.7,0c2.3,0,4.6,0,6.8,0
				c4.4,0,12.5,0,15.9-1.4c0.9-0.4,1.2-1.6,1.2-5.1l0-0.7c0-2,0-6.5-0.9-8.2c-0.5-0.9-3.5-1.3-5.7-1.4c-4.9-0.4-10-0.4-14.5-0.4
				l-4.9,0H3164.1z"/>
			<path class="st0" d="M3163.1,202.5c4.9,0,9.7,0,14.3,0c7.4,0,14.7,0.1,22.1,0.2c9.8,0.1,24.4,0.1,32.7,3.6
				c7.5,3.2,8.2,9.6,8.8,14.5c0.4,3.1,0.4,6.3,0.4,9.4c0,3.1,0,6.3-0.4,9.4c-0.4,5-1.3,11.2-8.8,14.5c-3.9,1.8-8.4,2.4-13.3,2.8
				c-9.5,0.8-19.3,0.9-29,0.9c-4.2,0-8.3,0-12.4,0c-7.3,0-14.7,0-21.9-0.1c-9.8-0.1-24.6-0.1-32.8-3.6c-7.5-3.1-8.4-9.6-8.8-14.5
				c-0.4-3.1-0.4-6.3-0.4-9.4c0-3.1,0-6.3,0.4-9.4c0.6-4.9,1.4-11.2,8.8-14.5c3.9-1.7,8.5-2.5,13.3-2.9
				C3144.5,202.6,3153.9,202.5,3163.1,202.5 M3169.3,243.9c3.3,0,6.2,0,8.1,0c4.5,0,9.1-0.1,13.5-0.1c5.2,0,13.5,0,17.9-1.9
				c4.6-2,4.2-7.4,4.2-10.4c0-2.9,0-7.8-1.5-10.6c-1.5-2.9-4.7-3.6-9.6-4c-4.9-0.4-9.9-0.4-14.9-0.4c-1.6,0-3.3,0-4.9,0h-17.9
				c-22.6,0-22.2,2.6-22.2,15c0,3.1-0.6,8.2,4.2,10.4C3149.9,243.6,3161,243.9,3169.3,243.9 M3163.1,192.5c-8.7,0-18.7,0.1-28,1
				c-6.7,0.6-11.8,1.7-16.3,3.7l-0.1,0l-0.1,0c-12.6,5.6-14,17.3-14.6,22.4c-0.5,3.8-0.5,7.2-0.5,10.6c0,3.3,0,6.8,0.5,10.5
				c0.4,4.9,1.7,17.1,14.8,22.6c9.8,4.2,24.7,4.3,35.6,4.4l1,0c7.3,0.1,14.8,0.1,22,0.1c2,0,4.1,0,6.1,0c2.1,0,4.2,0,6.3,0
				c9.6,0,19.9-0.1,29.8-0.9c5.3-0.4,11-1.2,16.5-3.6c13-5.7,14.2-17.7,14.6-22.5c0.5-3.7,0.5-7.1,0.5-10.5c0-3.4,0-6.9-0.5-10.6
				c-0.6-5.5-2-16.9-14.8-22.4c-9.8-4.2-24.7-4.3-35.5-4.4l-0.9,0l-0.2,0c-7.5-0.1-14.5-0.2-21.9-0.2c-2.3,0-4.6,0-6.9,0
				C3168,192.5,3165.5,192.5,3163.1,192.5L3163.1,192.5z M3151.9,227c1.8-0.3,5.4-0.6,12.2-0.6h17.9l2.5,0l2.5,0
				c4.3,0,9.4,0,14.1,0.4c0.8,0.1,1.4,0.1,1.8,0.2c0.2,1.6,0.2,3.7,0.2,4.5c0,0.2,0,0.5,0,0.8c0,0.3,0,0.6,0,0.9
				c-3.5,0.6-9.8,0.6-12.1,0.6c-2.3,0-4.6,0-6.9,0c-2.2,0-4.5,0-6.7,0c-0.8,0-1.8,0-2.9,0c-1.5,0-3.2,0-5.1,0
				c-10.2,0-15.1-0.4-17.4-0.8c0-0.2,0-0.4,0-0.6c0-0.4,0-0.7,0-1l0-0.7C3151.9,229.6,3151.9,228.2,3151.9,227L3151.9,227z"/>
		</g>
		<g>
			<path class="st0" d="M3351.5,261.9v-5c0-0.6,0-1.1,0-1.7c0-2.3,0.1-4.5-0.5-6.3c-0.7-0.4-2.9-0.6-6.5-0.6h-41.6v13.6h-38.3v-63.6
				h73.5c2.5,0,5.1,0,7.6,0c2.5,0,5.1,0,7.6,0c1.1,0,2.1,0,3.1,0c10.3,0,21.9,0,29,6.8c4.9,4.7,4.9,10.9,4.9,15l0,1.2
				c0,3.8,0,9.5-4.6,14c-0.2,0.2-0.5,0.4-0.7,0.7c3,2.7,4.3,6.7,4.3,12.1v13.7H3351.5z M3337.7,225c1,0,2,0,3,0c1.1,0,2.2,0,3.2,0
				c2.7,0,6.5-0.1,7.9-0.5c0-0.3,0.1-0.7,0.1-1.3c0-0.4,0-0.7,0-1c-0.8-0.2-2.6-0.4-6.7-0.4h-42.5v3.2H3337.7z"/>
			<path class="st0" d="M3338,203.3c5,0,10.2,0.1,15.2,0.1c10.6,0.1,22.5-0.6,28.8,5.5c3.6,3.5,3.3,8.3,3.3,12.1
				c0,3.5,0.1,7.7-3.1,10.9c-3.1,3.1-8.5,3.8-14.2,4.3c14.1,0.6,16.3,4.5,16.3,12v8.8h-27.9c0-3.2,0.3-6.6-0.8-9.7
				c-1.3-3.5-5.6-3.9-11.2-3.9h-46.6V257h-28.3v-53.7H3338 M3297.8,229.9h39.9c2.1,0,4.2-0.1,6.3-0.1c10.2-0.2,13-0.3,13-6.8
				c0-5.5-2.4-6.4-11.7-6.4h-47.5V229.9 M3338,193.4h-68.5h-9.9v9.9V257v9.9h9.9h28.3h9.9V257v-3.6h36.7c0.8,0,1.5,0,2.1,0
				c0,0.6,0,1.2,0,1.9c0,0.6,0,1.2,0,1.8v9.9h9.9h27.9h9.9V257v-8.8c0-2.2,0-7.2-2.8-11.9c1.5-2.2,2.6-4.6,3.2-7.4
				c0.6-2.8,0.6-5.4,0.6-7.5l0-0.4l0-0.7c0-2.2,0-5-0.6-8c-0.9-4.2-2.9-7.8-5.8-10.7c-8.5-8.2-21.2-8.2-32.5-8.2c-1,0-2.1,0-3.1,0
				l0,0h0c-2.5,0-5,0-7.5,0C3343.1,193.4,3340.5,193.4,3338,193.4L3338,193.4z"/>
		</g>
		<g>
			<polygon class="st0" points="3497.2,261.9 3455.6,241.4 3446.1,241.4 3446.1,261.9 3407.8,261.9 3407.8,198.3 3446.1,198.3 
				3446.1,217.8 3455.5,217.8 3492.2,198 3558,198 3494.5,229.6 3563.6,261.9 			"/>
			<path class="st0" d="M3536.8,203l-53.7,26.7l58.2,27.3h-43l-41.6-20.5h-15.6V257h-28.3v-53.7h28.3v19.5h15.6l36.7-19.8H3536.8
				 M3579.2,193h-42.4h-43.4h-2.5l-2.2,1.2l-34.5,18.6h-3.2v-9.5v-9.9h-9.9h-28.3h-9.9v9.9V257v9.9h9.9h28.3h9.9V257v-10.6h3.4
				l39.5,19.5l2.1,1h2.3h43h44.7l-40.4-19l-39.5-18.5l35.3-17.5L3579.2,193L3579.2,193z"/>
		</g>
		<g>
			<path class="st0" d="M3603.4,262.8c-10.3,0-21-0.2-30.2-1.3c-5.5-0.7-9.9-2-13.4-4.1c-6.9-3.9-7.8-9.5-7.8-14
				c0-1.6,0.2-3.1,0.3-4.6l0.5-4.5h5.9c-5.7-4.8-5.7-11.4-5.7-14.4c0-13.9,8.3-20.5,26.9-21.6c10-0.6,20.4-0.7,30.2-0.7l12.6,0
				c10,0,20.5,0.1,30.4,1.5c13.6,2,19.6,7.7,19.6,18.6v7.5h-2.7c6,4.7,6,11.9,6,15.2c0,3.3,0,12-8.6,17.3
				c-7.5,4.7-21.3,4.8-31.3,4.8l-1.7,0c-7.2,0.2-14.7,0.2-21.8,0.2C3611.1,262.7,3605,262.8,3603.4,262.8z"/>
			<path class="st0" d="M3622.6,202.5c9.9,0,20.1,0.1,29.7,1.5c12.7,1.9,15.4,6.7,15.4,13.7v2.6h-27.5v-0.8c0-1.5-0.3-2.7-2.7-3.5
				c-2.3-0.9-7.3-1-10.6-1c-0.5,0-1,0-1.4,0h-24.1c-0.4,0-0.9,0-1.4,0c-3.6,0-10.1,0.1-12.2,1c-1.8,0.7-2.2,2-2.2,3.2
				c0,1,0.4,2.3,1.8,2.9c1,0.5,2.4,0.6,3.6,0.7c3.2,0.3,6.6,0.3,9.8,0.4c6.3,0.2,12.6,0.3,18.8,0.4c10.7,0.2,26.1,0.1,36.6,1.7
				c3.3,0.6,6.3,1.4,8.9,2.7c5.7,2.9,6,8.4,6,12.5c0,4.5-0.7,9.7-6.3,13.1c-6.7,4.2-21.4,4-30.4,4.1c-7.3,0.2-14.5,0.2-21.8,0.2
				c-2.9,0-6,0-9.1,0c-9.9,0-20.5-0.1-29.6-1.3c-4.5-0.6-8.4-1.6-11.6-3.5c-4.7-2.7-5.3-6.1-5.3-9.7c0-1.4,0.1-2.7,0.3-4.1h27.4
				c0,1.2,0,2.3,0.7,3.5c0.4,0.7,1,1.2,2.1,1.7c2.1,1,7.5,1.1,11.2,1.1c1,0,1.8,0,2.5,0c4,0,8,0.1,12,0.1c5,0,9.9-0.1,14.9-0.1
				c0.7,0,1.6,0,2.6,0c4.1,0,10.1-0.2,12-1.7c1-0.9,1-2.1,1-3.1c0-4.1-5.6-3.9-11.3-4c-14.9-0.2-29.9-0.7-44.8-1
				c-8.1-0.2-18.4-0.3-24.3-4.1c-4.9-3.1-5.3-7.6-5.3-11.7c0-9.6,4.3-15.6,22.2-16.7c9.8-0.6,19.9-0.6,29.9-0.6c2.2,0,4.4,0,6.7,0
				C3618.7,202.5,3620.6,202.5,3622.6,202.5 M3622.6,192.5L3622.6,192.5l-3,0l-2.9,0l-3.3,0l-3.3,0c-9.9,0-20.3,0.1-30.5,0.7
				c-10.9,0.6-18.4,3-23.7,7.5c-5.3,4.5-7.9,10.8-7.9,19.1c0,1.9,0,5.5,1.4,9.4h-1.1l-0.9,8.9c-0.2,1.5-0.3,3.2-0.3,5.1
				c0,3.1,0,12.6,10.3,18.4c4.1,2.4,9.1,3.9,15.3,4.7c9.4,1.2,20.4,1.4,30.8,1.4c1.6,0,3.2,0,4.7,0c1.5,0,2.9,0,4.4,0
				c7.2,0,14.6,0,21.9-0.2l1.6,0c4.7,0,10.6-0.1,16.3-0.6c7.8-0.8,13.4-2.4,17.6-5c11-6.8,11-17.9,11-21.6c0-2.6,0-8.6-3.3-14v-6.2
				v-2.6c0-2.4,0-9.8-5.7-15.7c-4-4.1-9.8-6.6-18.1-7.8C3643.5,192.7,3632.8,192.5,3622.6,192.5L3622.6,192.5z"/>
		</g>
		<g>
			<path class="st0" d="M859.9,117.7c-5.1,0-10.4-0.4-15.4-1.3c-15.8-2.7-20.1-10.8-25.5-21.2c-2.8-5.3-5.9-11.2-11.3-18.3
				c-9.4-12.5-18.9-20.5-25.9-26.3c-7.2-6-11.5-9.7-11-14.8c0.3-2.8,2.1-5.2,5.3-6.9c5.5-3,39-11.7,66.3-11.7
				c10.6,0,19.2,1.3,25.6,4c32.7,13.5,30.9,46.2,29.5,70l-0.2,3.1C896.6,109.1,882.9,117.7,859.9,117.7
				C859.9,117.7,859.9,117.7,859.9,117.7z"/>
			<path class="st0" d="M842.4,22.1c9,0,17.4,1,23.7,3.6c30.8,12.7,27.6,44.5,26.3,68.3c-0.8,14.3-16.9,18.7-32.5,18.7
				c-5.1,0-10.1-0.5-14.6-1.2c-20.2-3.5-17.3-15.9-33.6-37.5c-21.5-28.4-43.8-34.8-33.1-40.7C783,30.8,815.8,22.1,842.4,22.1
				 M842.4,12.2c-27.8,0-62.2,8.8-68.7,12.3c-5.9,3.3-7.6,7.7-7.9,10.8c-0.8,7.7,4.9,12.5,12.7,19.1c6.8,5.7,16,13.5,25.1,25.5
				c5.1,6.7,8.1,12.5,10.8,17.6c5.6,10.6,10.9,20.7,29.1,23.8c5.2,0.9,10.9,1.4,16.2,1.4c25.6,0,41.5-10.5,42.5-28.1
				c0.1-1,0.1-2.1,0.2-3.1c0.7-12.4,1.5-26.5-2-39.9c-4.4-16.7-14.7-28.5-30.6-35.1C862.9,13.6,853.7,12.2,842.4,12.2L842.4,12.2z"
				/>
		</g>
		<g>
			<path class="st0" d="M662.2,252.4c-6.8,0-13.9-0.1-20.6-0.3c-6.8-0.1-13.2-0.3-19.5-0.3c-6.3,0-14.2-3.5-21.2-9.4
				c-7.6-6.4-12-13.8-12-20.3c0-8.4,6.2-18.4,35.9-18.4c8.4,0,12.4-2.9,19-7.7c7-5.1,15.7-11.4,32.7-16.4
				c24.1-7.1,47.1-14,69.3-20.6c82.4-24.8,147.5-44.3,180.5-44.3c14.7,0,35.1-0.4,54.8-0.9c18.3-0.4,35.5-0.8,47.1-0.8
				c9.7,0,25.4,18.1,28.5,21.7c5.7,6.7,18.8,23.7,18.8,37.2c0,4.9-2,16.4-20.7,16.4c-8.6,0-16.9-1.6-25.7-3.3
				c-9.2-1.8-18.7-3.6-29.1-3.6c-25.9,0-39.2,5.3-65.7,15.8l-4.3,1.7c-1.6,0.6-3.1,0.9-4.4,0.9c-3.5,0-6.4-2.2-7.2-5.5
				c-2-7.6,7.1-21.9,23.7-31c3.5-1.9,4.7-4,5-5.6c-4-0.2-8.1-0.3-12.2-0.3c-39,0-85.1,9-126.6,24.6c-38.6,14.5-67.9,33.2-76.2,48.7
				C721.6,249.8,692.3,252.4,662.2,252.4C662.2,252.4,662.2,252.4,662.2,252.4z"/>
			<path class="st0" d="M1028.1,118c12.8,0,69.4,65.3,26.7,65.3c-17.1,0-34-6.9-54.7-6.9c-28.2,0-42.5,6.3-71.9,17.9
				c-1,0.4-1.9,0.6-2.6,0.6c-6.8,0,0.1-17,18.8-27.2c11.1-6.1,6.9-14.7,6.9-14.7c-5.4-0.4-10.9-0.5-16.4-0.5
				c-84.8,0-188.4,41.1-207.2,75.9c-8.9,16.5-36.1,19.1-65.3,19.1c-13.4,0-27.3-0.5-40.1-0.5c-17.5,0-55-38.2,2.7-38.2
				c19.9,0,20.6-14.8,53-24.3c114.3-33.5,207.5-64.8,248.4-64.8C954.6,119.6,1004.1,118,1028.1,118 M1028.1,108.1
				c-11.6,0-28.9,0.4-47.2,0.8c-19.7,0.4-40,0.9-54.7,0.9c-33.7,0-99.1,19.7-182,44.5c-22.2,6.7-45.1,13.6-69.2,20.6
				c-17.8,5.2-27.3,12.1-34.2,17.1c-6.2,4.5-9.3,6.8-16.1,6.8c-12.5,0-21.8,1.6-28.6,5c-10.7,5.4-12.3,13.8-12.3,18.3
				c0,11,8.6,19.8,13.7,24.2c7.9,6.6,17,10.6,24.4,10.6c6.2,0,12.6,0.1,19.4,0.3c6.8,0.1,13.8,0.3,20.7,0.3
				c31.6,0,62.5-2.9,74.1-24.3c7.8-14.5,36.1-32.3,73.6-46.4c40.7-15.3,85.8-24.1,124-24.3c-6.9,4.7-11.5,9.7-14.2,13.4
				c-3.9,5.1-8.1,12.7-6.2,19.8c1.4,5.5,6.3,9.3,12.1,9.3c2,0,4.1-0.4,6.3-1.3l4.3-1.7c26-10.3,39-15.5,63.9-15.5
				c9.9,0,19.2,1.8,28.1,3.5c8.6,1.7,17.5,3.4,26.6,3.4c7.7,0,13.9-1.8,18.3-5.3c3.3-2.7,7.3-7.6,7.3-16c0-14.6-12.5-31.5-20-40.4
				C1053,122.7,1038.9,108.1,1028.1,108.1L1028.1,108.1z"/>
		</g>
		<g>
			<path class="st0" d="M826.4,661.1c-7.2,0-13.4-3.1-17.8-8.9c-5.3-6.9-7.9-17.6-7.9-31.9c0-18.2-13-36.2-25-45.2
				c-4.8-3.6-5.6-10.4-4.2-15.6c1.4-5.4,5-9,9.6-9.6c32.1-4.1,35.8-17,35.8-26.4l0.1-51.6c0-5.7-0.5-11.5-1.4-17.1l-0.1-0.5
				c-1.7-9.9-2-20.1-1-30.1l2.7-26c0-0.4-0.3-0.7-0.4-0.9c-0.2-0.2-0.5-0.5-1.1-0.5h-14c-1.9,11.5-9.4,27.5-28.6,27.5
				c-15.5,0-29.8-26.7-36.9-42.6c-10.6-23.8-17.5-50-17.5-66.9c0-9.6,2.7-23.1,6.9-35.1c2-5.6,8-22.4,17.5-22.4
				c8.8,0,11.2,12.5,12.3,23.4c0.2,2.3,1.7,4.5,3.8,5.7c16.5,9.6,20.2,43.8,20.2,49.7c0,20.4,6.8,20.4,12.2,20.4
				c3.6,0,5.4-1.5,8.4-3.9c4.4-3.6,10.5-8.6,24-8.6c8.8,0,21.5-0.5,28.3-0.7l1.2,0c2.6-0.1,4.8-2,5.1-4.6c0.9-6.7,3.2-16,9.1-22.1
				c21.3-21.9,32-35.8,32-41.2c0-6.8-5.1-14.7-11.6-14.7c-2.3,0-4.8,1-7.4,2.9c-11.4,8.5-24.1,13.7-43.8,18
				c-7.7,1.7-16,4.4-23.3,6.9c-9.8,3.3-18.2,6.1-24.2,6.1c-3.6,0-6.5-1.1-8.4-3.1c-1.8-2-2.7-4.7-2.4-8c0.2-2.7,0.9-10.9,34.7-29.1
				c18.1-9.7,37.9-18,49.2-20.5c1.9-0.4,4.2-1.4,6.9-2.5c6.4-2.6,15.1-6.2,27.3-6.2c16.4,0,47.2,6.9,59.6,15
				c7,4.6,20.4,24,17.3,54.8c-1.2,11.8-12.4,21.5-23.3,30.9c-6.8,5.9-13.9,12-16.2,17.1c-2.3,5.1-2.1,8.4-1.8,15.6
				c0.1,2.9,0.3,6.6,0.3,11.1c0,14.9-14.2,24.7-23.5,24.7h-48c-0.8,0-1.1,0.2-1.4,0.5c-1.8,1.9-3.7,8.5-2.4,29
				c0.4,3.8,10.3,92.9,14.6,123.1c5.4,37.7,2.5,67.3-8.5,87.7c-11.1,20.7-26.7,25.2-32.9,26.2C829.2,661,827.8,661.1,826.4,661.1z"
				/>
			<path class="st0" d="M896.7,229.8c15.5,0,45.2,6.6,56.9,14.2c5.8,3.8,17.9,22,15,50.2c-1.8,17.2-32.7,32.3-39,46.6
				c-3.8,8.7-1.9,13.6-1.9,28.7c0,11.6-11.3,19.7-18.6,19.7h-48c-7.9,0-10.3,10.2-8.8,34.9c0,0,10.2,92.2,14.6,123.3
				c11.9,84-20.6,105.6-37.2,108.3c-1.1,0.2-2.2,0.3-3.4,0.3c-9.3,0-20.8-6.5-20.8-35.8c0-20.6-14.6-39.9-27-49.2
				c-4.9-3.7-3.1-15.5,3-16.3c19-2.4,40.1-9,40.1-31.3l0.1-51.6c0-6-0.5-12-1.5-17.9l-0.1-0.5c-1.6-9.5-1.9-19.2-0.9-28.8l2.7-26.3
				c0-3.6-2.9-6.5-6.5-6.5h-18.4c0,0-1.1,27.5-24.1,27.5c-20.4,0-49.4-70.9-49.4-104.5c0-19.1,11.3-52.6,19.4-52.6
				c3.3,0,6,5.3,7.4,18.9c0.4,4,2.8,7.5,6.2,9.5c12.7,7.5,17.8,36.5,17.8,45.4c0,22.2,8.2,25.3,17.2,25.3
				c12.4,0,11.6-12.5,32.4-12.5c9.4,0,23.2-0.5,29.7-0.8c5-0.2,9.2-4,9.9-9c0.8-6.2,2.8-14.2,7.7-19.3
				c11.9-12.3,33.4-34.7,33.4-44.6c0-9.2-6.9-19.7-16.6-19.7c-3.2,0-6.7,1.2-10.4,3.9c-12,9-25.1,13.5-41.8,17.1
				c-17.8,3.9-37,12.8-46.4,12.8c-3.9,0-6.2-1.6-5.8-5.7c0.9-11.7,58-40.2,80-45.2C871.1,236.7,880.5,229.8,896.7,229.8
				 M896.7,219.9c-13.2,0-22.4,3.8-29.2,6.6c-2.5,1-4.6,1.9-6.1,2.2c-11.7,2.6-32,11.1-50.4,21c-9.5,5.1-17.7,10.2-23.6,14.6
				c-9,6.8-13.2,12.5-13.7,18.5c-0.5,5.9,1.8,9.6,3.7,11.7c2,2.2,5.7,4.7,12,4.7c6.8,0,15.6-2.9,25.8-6.3c7.5-2.5,15.3-5.1,22.8-6.7
				c14.9-3.2,30.8-7.8,45.7-18.8c1.7-1.3,3.2-1.9,4.5-1.9c3.1,0,6.5,5,6.6,9.5c-0.1,0.6-1.3,4.9-10.8,16.3
				c-6.2,7.5-13.5,15.1-19.9,21.6c-5.5,5.7-9,14-10.4,24.9c0,0.2-0.2,0.3-0.4,0.3l-1.2,0c-6.8,0.2-19.4,0.7-28.1,0.7
				c-15.3,0-22.4,5.9-27.1,9.7c-3.1,2.5-3.6,2.8-5.2,2.8c-3.6,0-4.3-0.7-4.5-1c-0.6-0.7-2.7-3.8-2.7-14.4c0-5.4-1.4-15.9-4.5-26.1
				c-4.3-13.9-10.4-23.3-18.2-27.9c-0.8-0.5-1.3-1.2-1.4-1.9c-0.8-7.6-2-13.3-3.7-17.4c-3.8-9.1-10.1-10.5-13.6-10.5c0,0,0,0,0,0
				c-8.9,0-15.9,8.2-22.2,25.7c-4.5,12.5-7.2,26.6-7.2,36.8c0,17.5,7,44.5,17.9,68.9c5.5,12.2,11.4,22.6,17.3,30.1
				c8.1,10.4,16,15.4,24.2,15.4c13.4,0,23.9-6.9,29.7-19.6c1.3-2.8,2.2-5.5,2.8-8h6.2l-2.3,21.9c-1.1,10.5-0.8,21.1,1,31.5l0.1,0.5
				c0.9,5.4,1.4,10.8,1.4,16.2l-0.1,51.6c0,5.2,0,17.4-31.5,21.5c-6.6,0.8-11.8,5.9-13.8,13.3c-1.8,6.8-0.6,15.9,6,20.9
				c11.4,8.6,23,25.4,23,41.2c0,15.6,2.9,27.1,8.9,35c5.3,7,13,10.8,21.8,10.8c1.6,0,3.3-0.1,5-0.4c6.9-1.1,24.3-6.2,36.4-28.8
				c11.5-21.4,14.5-51.9,9-90.8c-4.2-29.9-13.9-117.6-14.5-122.8c-1-15.6,0-21.8,0.7-24.1h46.1c13.2,0,28.5-13,28.5-29.7
				c0-4.6-0.2-8.3-0.3-11.3c-0.3-7.3-0.3-9.5,1.4-13.4c1.8-4.1,8.7-10.1,14.9-15.4c11-9.6,23.6-20.4,25-34.2
				c1.8-17.4-1.7-30.8-4.9-38.9c-3.7-9.4-9.2-17.1-14.6-20.6C945.6,227,914,219.9,896.7,219.9L896.7,219.9z"/>
		</g>
		<g>
			<path class="st0" d="M1046.9,564c-13.7,0-17.7-2.3-21.3-5.3c-1.6-1.3-2.8-2.3-9.7-2.3c-6.4,0-18.8,1.5-31.9,3
				c-15.8,1.9-33.7,4-45.3,4c-6.2,0-10.2-0.6-12.8-1.9c-3-1.5-4.6-4.2-4.2-7.3c1.4-11,34.2-23,46.5-25.6c1.4-0.3,3.8-1,4.1-2.3
				c1.1-4.7-9.5-19.7-27.3-34.4l-0.1-0.1l-0.1-0.1c-19.2-17.7-25.1-26.3-22.5-33.1c2.5-6.5,11.3-6.5,15.5-6.5
				c3.4,0,7.3,0.2,11.4,0.5c4.1,0.3,8.4,0.5,12.7,0.6c10.4,0.1,40.5,8.2,68.6,20.1c36.7,15.5,55.3,30.8,55.3,45.4
				C1085.7,542.3,1081,564,1046.9,564z"/>
			<path class="st0" d="M937.7,457.2c6.6,0,15.4,0.9,24,1c19.2,0.2,119,32.3,119,60.6c0,27.8-8,40.2-33.9,40.2
				c-24.5,0-12.5-7.5-31.1-7.5c-14.7,0-56.5,6.9-77.2,6.9c-4.9,0-8.6-0.4-10.6-1.3c-8.7-4.3,21.9-19.4,41.1-23.6
				c26.7-5.8-21-45.4-21-45.4C919.1,461.5,923.4,457.2,937.7,457.2 M937.7,447.2c-4.9,0-16.4,0-20.2,9.6c-3.2,8.1,2.7,15.9,4.9,18.9
				c3.8,5.1,10,11.5,18.9,19.7l0.2,0.2l0.2,0.2c0.1,0.1,6.9,5.7,13.6,12.8c7.7,8.1,10.4,12.9,11.4,15.3c-8.7,1.9-19.8,6-29.2,10.6
				c-17.3,8.5-20.3,14.5-20.8,19.3c-0.6,5.2,2,9.9,7,12.4c3.4,1.7,7.9,2.4,15,2.4c11.9,0,29.2-2,45.9-4c13-1.5,25.2-3,31.4-3
				c3.7,0,5.2,0.4,5.7,0.5c0.2,0.1,0.2,0.1,0.9,0.7c5.1,4.1,10.5,6.4,24.5,6.4c38.9,0,43.8-26.8,43.8-50.2c0-10.1-6.5-19.7-20-29.4
				c-9.5-6.9-22.4-13.8-38.3-20.5c-26-11-58.2-20.4-70.5-20.5c-4.1,0-8.3-0.3-12.4-0.5C945.3,447.5,941.3,447.2,937.7,447.2
				L937.7,447.2z"/>
		</g>
		<g>
			<path class="st0" d="M655.2,598c-22.7,0-28.1-13.8-32.8-26c-0.7-1.8-1.5-3.7-2.2-5.6c-1.1-2.5-2.1-4.5-3-6.3
				c-3.3-6.7-5.1-10.7-5.1-22.7c0-26.8,6-35.9,12.3-45.5c3.8-5.7,7.6-11.6,10.5-22.4c3-11.4,10.9-12.6,14.1-12.6
				c8.3,0,17.4,7.5,18.5,15c0.9,6.8,5.3,11.1,11.4,11.1c4.5,0,9.5-2.1,14.6-6.2c9.6-7.7,33.3-16.6,44.4-16.6c6.2,0,8.6,2.6,9.6,4.8
				c2.1,4.8-1.6,9.8-4.6,13.1c-5.2,5.7-10.8,9.9-15.7,13.7c-11.9,9.1-20.6,15.6-20.6,37.2c0,14.3-2.9,34.6-28.1,45.3
				c-4.4,1.9-5.2,4.6-6.3,9.4C670.8,589.5,668.8,598,655.2,598z"/>
			<path class="st0" d="M649.1,461.9c6.1,0,12.9,5.9,13.5,10.8c1.3,9.3,7.7,15.4,16.4,15.4c5.3,0,11.4-2.2,17.7-7.3
				c8.7-7,31.1-15.5,41.3-15.5c5.7,0,7.6,2.6,1.3,9.6c-16.8,18.4-37.6,20.3-37.6,54.2c0,15.1-3.5,31.6-25.1,40.8
				c-14.9,6.3-3.3,23.2-21.3,23.2c-22.3,0-24.5-14.6-30.5-28.6c-4.7-11-7.6-12.1-7.6-27c0-41.7,14.9-37.2,22.6-66.6
				C641.5,464.3,645.2,461.9,649.1,461.9 M649.1,452c-9.2,0-16.2,6.1-18.9,16.3c-2.6,10-6.1,15.3-9.8,20.9
				c-6.5,9.8-13.1,20-13.1,48.2c0,13,2.1,17.9,5.6,24.9c0.9,1.8,1.8,3.7,2.9,6.1c0.8,1.8,1.4,3.5,2.2,5.4
				c4.8,12.3,11.4,29.2,37.5,29.2c7.3,0,12.9-2.2,16.7-6.5c3.3-3.8,4.3-8,5.1-11.5c1.1-4.6,1.4-5.1,3.4-6
				c12-5.1,20.6-12.8,25.6-22.9c4.9-9.9,5.5-20.2,5.5-27.1c0-19.1,7-24.4,18.6-33.2c5.1-3.9,10.9-8.3,16.4-14.3
				c2.3-2.5,9.2-10.1,5.5-18.4c-1.3-2.9-4.8-7.8-14.1-7.8c-12.4,0-36.9,9.1-47.5,17.7c-4.1,3.3-8.2,5.1-11.4,5.1
				c-2.5,0-5.7-1.2-6.5-6.8C671.1,461.2,659.9,452,649.1,452L649.1,452C649.1,452,649.1,452,649.1,452L649.1,452z"/>
		</g>
		<g>
			<path class="st0" d="M308.5,687.8c-4.2,0-7.8-2.6-9.4-6.5c-1.5-3.9-0.5-8.3,2.7-11.2c40.1-36.4,130-155.9,136.9-186.5
				c2.8-12.4,10.1-24.8,17.8-37.9c9.9-16.7,20.1-34,20.1-50.9c0-9.5-0.9-12.6-1.3-13.5c-0.3,0-0.8,0-1.1,0l-35.9,0
				c-6,0-12.1,5.5-19.1,11.8c-9.8,8.8-20.9,18.8-37,18.8c-1.5,0-3-0.1-4.4-0.3c-5.8-0.7-10.1-5.5-10.1-11.3l0-48.2
				c0-12.4,4.9-31.2,10.2-38.6c4.3-6.1,8.6-12.2,12.9-18.4c18.5-26.1,37.6-53.2,50.4-75c16.6-28.4,17.5-39.4,15.3-43.6
				c-1.2-2.3-4.3-3.4-9.2-3.4c-1.5,0-3.1,0.1-4.8,0.3c-21.6,2.5-38.4,19.5-52,33.2c-11.3,11.4-20.1,20.3-30,20.7c-0.1,0-0.2,0-0.3,0
				c-2.2,0-5.5-0.8-8.2-4.6c-7.8-10.7-7.4-40.7-3-54.6c2-6.4,4.1-10.6,5.9-14.3c1.4-2.8,2.7-5.5,3.9-9c4.5-12.9,10.3-21.9,16.4-31.4
				c4.8-7.5,9.8-15.3,15.1-26.1c2.1-4.3,4-9.8,6-15.6c6.4-18.2,14.4-40.9,34.4-47.6c2-0.6,4.2-1,6.5-1c8.2,0,19.2,4,29.3,10.8
				c5,3.3,16.9,12.2,19.5,22.6c1.8,6.9-1,13-7.7,16.6c-16.7,9.2-19.7,15.4-23.8,24.1c-3,6.2-6.3,13.2-14.7,22.1
				c-10.5,11.1-22.2,27.8-27.9,37.1c12.4-1.5,33-3.7,52.8-3.7c13.6,0,55.1,0,56.1,23c0.7,14.4-13.8,45-43.1,91
				c-20.3,32-41.9,62.2-52.2,76h64.8c17.5,0,35.5,9.6,45.8,24.4c11.1,15.9,12.8,36.5,4.8,57.9c-8.1,21.9-117.4,233.3-229.7,262.2
				C310.2,687.7,309.3,687.8,308.5,687.8C308.5,687.8,308.5,687.8,308.5,687.8z"/>
			<path class="st0" d="M437,28.1c20.6,0,58.8,29.8,38.8,40.7c-30.1,16.5-20,26.2-39.8,47.2c-15.3,16.3-35.2,46.6-32.1,46.6
				c0,0,0,0,0.1,0c8.9-1.2,35.5-4.7,60.6-4.7c26.1,0,50.5,3.9,51.2,18.3c1.5,31.3-81.6,147.5-97.9,168.6c-1,1.3-0.1,3.2,1.6,3.2
				h70.8c28.6,0,63.4,28.8,45.9,75.7c-7.6,20.5-116.3,230.8-226.3,259.2c-0.5,0.1-0.9,0.2-1.4,0.2c-4.4,0-7-5.8-3.4-9.1
				c40.2-36.5,131.1-156.6,138.4-189.1c6.2-27.4,38-58.4,38-89.9c0-18.4-3.1-18.5-7.4-18.5l-35.9,0c-17.5,0-30.2,30.5-56.1,30.5
				c-1.3,0-2.6-0.1-3.9-0.2c-3.2-0.4-5.7-3.1-5.7-6.4l0-48.2c0-11.6,4.7-29.3,9.3-35.8c50-71.3,108.3-148.2,65.3-148.2
				c-1.6,0-3.4,0.1-5.4,0.3c-40.1,4.7-62.7,53.2-81.6,53.8c-0.1,0-0.1,0-0.1,0c-10.1,0-11.8-36-6.5-52.7c3.4-10.8,6.8-14.7,9.7-23.2
				c7.7-22,19-31.7,31.2-57c8.7-17.9,13.8-52.7,37.6-60.6C433.5,28.3,435.2,28.1,437,28.1 M437,18.1C437,18.1,437,18.1,437,18.1
				c-2.9,0-5.7,0.4-8.1,1.2c-22.4,7.4-30.8,31.4-37.6,50.7c-2,5.7-3.9,11-5.8,15.1c-5.1,10.6-10,18.2-14.8,25.6
				c-6.3,9.8-12.2,19-16.9,32.4c-1.1,3.2-2.3,5.6-3.7,8.5c-1.9,3.9-4,8.2-6.1,15c-4.8,15.2-5.3,46.6,3.7,59
				c4.2,5.8,9.5,6.6,12.2,6.6c0.2,0,0.3,0,0.5,0c11.9-0.4,21.8-10.5,33.4-22.1c13.7-13.8,29.2-29.4,49-31.7c1.5-0.2,3-0.3,4.2-0.3
				c3.3,0,4.5,0.6,4.8,0.8c0.2,0.4,0.9,3.2-1.6,11c-2.3,7-6.8,16.2-13.3,27.4c-12.7,21.8-31.8,48.9-50.4,75.1
				c-4.3,6-8.7,12.3-12.9,18.4c-3.9,5.6-6.6,14.4-7.8,19.2c-2.1,8-3.2,15.9-3.2,22.3l0,48.2c0,8.3,6.2,15.3,14.5,16.2
				c1.7,0.2,3.4,0.3,5,0.3c18,0,30.4-11.1,40.3-20c6-5.4,11.7-10.5,15.8-10.5l33,0c0.2,1.7,0.4,4.4,0.4,8.5
				c0,15.5-9.8,32.2-19.4,48.3c-7.9,13.5-15.5,26.2-18.4,39.4c-2.9,13-24.6,48.1-55.2,89.3c-30,40.5-61.5,77.6-80.2,94.6
				c-4.7,4.2-6.2,10.8-4,16.7c2.3,5.9,7.8,9.7,14,9.7c1.3,0,2.6-0.2,3.9-0.5c26.8-6.9,55.4-24.4,85-51.9
				c23.6-22,47.9-50.4,72.2-84.4c40.5-56.8,71.2-116,76-128.9c8.6-23,6.7-45.2-5.3-62.5c-11.2-16.1-30.8-26.6-49.9-26.6h-54.9
				c11.5-15.8,29.5-41.5,46.6-68.4c12.9-20.4,23.2-38,30.4-52.4c9.6-19.1,13.9-32.3,13.4-41.5c-0.4-7.8-4.7-18.2-23.2-23.6
				c-9.4-2.7-22.1-4.1-37.9-4.1c-15.2,0-30.8,1.3-42.9,2.5c5.9-8.7,14.1-19.6,21.6-27.6c8.9-9.5,12.6-17.2,15.6-23.3
				c3.9-8.1,6.5-13.5,21.8-21.9c8.7-4.8,12.5-13.1,10.1-22.2c-3-11.6-14.8-21-21.6-25.5C463.8,26.3,450.2,18.1,437,18.1L437,18.1
				L437,18.1z"/>
		</g>
		<g>
			<path class="st0" d="M97.2,151.4c-4.1,0-7.2-2.3-8.1-6.1c-2.3-9.9,13.1-32.1,22.6-44.4c11.9-15.5,28.8-34.1,40.6-40.1
				c2.7-1.4,9-8.3,15.1-15c12.1-13.4,27.1-30,41.3-35.5c9.4-3.6,16.3-5.3,22.5-5.3c10.1,0,18.3,4.4,26.4,14.2
				C283.6,50.5,287,60.9,284,67.6c-2.9,6.4-10.5,6.6-17.8,6.9c-5.2,0.2-6.1,0.7-8.2,1.9c-2.9,1.6-6.8,3.9-17.9,6.6
				c-5.8,1.4-12.7,2.6-19.3,3.7c-12,2.1-24.4,4.2-30.5,7.4c-13.8,7.2-26.8,17-39.4,26.4c-15.9,11.9-30.9,23.2-47.2,29.4
				C101.1,150.9,99.1,151.4,97.2,151.4C97.2,151.4,97.2,151.4,97.2,151.4z"/>
			<path class="st0" d="M231.3,9.9c8.6,0,15.4,3.8,22.6,12.4c38.3,46.3,27,46.6,12.1,47.1c-12.8,0.4-6.2,3.6-27.1,8.6
				c-16,3.8-40.5,6.1-51,11.5c-31.3,16.3-57.6,44.8-86.1,55.6c-1.9,0.7-3.4,1-4.5,1c-17,0,34.8-69.9,57.3-81.2
				c9.4-4.7,34.8-42.1,56-50.4C218.8,11.7,225.5,9.9,231.3,9.9 M231.3,0C224.5,0,217,1.7,207,5.6c-15.4,6-30.8,23.1-43.2,36.8
				c-4.8,5.3-11.4,12.6-13.7,13.9c-4.1,2-18.9,11-42.3,41.5c-7,9.2-12.9,17.9-17.1,25.4c-5.8,10.4-7.7,17.5-6.4,23.1
				c1.4,6,6.5,10,12.9,10c2.4,0,5.1-0.6,8.1-1.7c16.9-6.5,32.2-17.9,48.4-30.1c12.4-9.3,25.3-19,38.8-26c5.4-2.8,18-5,29-6.9
				c6.8-1.2,13.7-2.4,19.7-3.8c11-2.6,15.5-5,19.3-7.1c1.7-1,2-1.1,5.9-1.3c7.6-0.3,18.1-0.6,22.2-9.8c3.4-7.6-0.4-15.9-4-22.4
				c-4.4-7.6-11.9-17.9-22.9-31.2C252.5,5.1,242.9,0,231.3,0L231.3,0z"/>
		</g>
		<g>
			<path class="st0" d="M249.9,234.2c-3.2,0-5.8-1.4-7.2-4c-3.8-7.1,3.3-19.3,20.5-45.7c5.3-8.2,10.4-16,12.6-20.5
				c1.3-2.8,1.1-3.7-5.2-8.6c-3.9-3.1-8.7-6.9-11.6-12.8l-1.1-2.2c-3.3-6.7-4.8-9.8-2.9-13.2c1.8-3.1,5.1-3.4,8.7-3.8
				c0.6-0.1,1.3-0.1,2.1-0.2c2.4-0.3,4.9-0.4,7.4-0.4c25.3,0,50.2,12.9,59.2,30.6c2,3.8,2.1,16.9,0.2,22.6c-0.9,2.6-2.2,4.4-4.1,5.3
				c-18.4,9.1-29.2,19.8-38.7,29.2c-11,10.9-20.5,20.3-37.4,23.4C251.5,234.1,250.6,234.2,249.9,234.2
				C249.9,234.2,249.9,234.2,249.9,234.2z"/>
			<path class="st0" d="M273,127.8c23,0,46.4,11.4,54.8,27.9c1.3,2.5,1.9,19.4-1.7,21.2c-40,19.8-45.4,46.9-74.7,52.2
				c-0.6,0.1-1.1,0.2-1.6,0.2c-14.3,0,22.8-47.2,30.3-63c5.5-11.6-11-13.7-16.9-25.7c-6.1-12.6-6.1-11.3,2.8-12.2
				C268.4,127.9,270.7,127.8,273,127.8 M273,117.9c-2.7,0-5.3,0.1-7.9,0.4c-0.7,0.1-1.4,0.1-2,0.2c-4,0.4-9.5,0.8-12.5,6.3
				c-2.7,4.8-0.9,9.6-0.3,11.2c0.7,1.8,1.7,3.8,3.1,6.6c0.3,0.7,0.7,1.4,1.1,2.2c3.4,7,9,11.3,13,14.5c1.1,0.9,2.7,2.1,3.6,3
				c-2.1,4.3-6.9,11.7-12,19.5c-18.7,28.7-25.8,41.3-20.7,50.8c2.3,4.2,6.5,6.6,11.6,6.6c1.1,0,2.2-0.1,3.4-0.3
				c18.4-3.3,28.9-13.7,40-24.7c9.3-9.2,19.7-19.6,37.4-28.3c3.1-1.5,5.3-4.3,6.6-8.2c2.1-6.5,2.3-21-0.5-26.4
				c-5.1-9.9-14.2-18.4-26.3-24.5C299,121,285.8,117.9,273,117.9L273,117.9z"/>
		</g>
		<g>
			<path class="st0" d="M105.8,283.8c-9.3,0-16.4-3.9-21.4-11.6c-5.3-8.3-7.9-21.1-7.9-38.9c0-52.3,11.1-63,27.7-63
				c3.7,0,5.8,1.5,7,2.8c2.9,3.1,2.5,7.4,2.2,11.2c-0.2,1.9-0.4,5.2,0.3,5.9c0.2,0.3,1.2,0.7,3.4,0.7c3,0,13.3-6.7,20.1-11.2
				c12.2-8,23.7-15.5,31.9-15.5c4,0,7.2,1.8,9,4.9c0.3-0.6,0.7-1.3,1-1.9c3.5-6.5,8.3-15.4,15.4-21.3c5.1-4.2,7.6-9.5,9.5-13.3
				c1.7-3.6,3.5-7.4,7.7-7.4c2.1,0,4,1.1,5.6,3.2c6.2,8.3,6.5,8.9,8.6,16.8c0.7,2.5,1,2.9,1.2,3c1.5,0.8,6.6,1.2,9.1,1.4
				c2.4,0.2,6.8,0.5,8,4.5c1.2,3.8-1.8,6.3-4.4,8.5c-4.8,4-12.9,10.6-13.9,24.2c-0.1,1.1-0.2,2.3-0.3,3.5
				c-0.5,6.3-1.2,14.2-0.5,24.4c0.2,3.4,0.7,6.2,1.2,8.6c0.8,4.5,1.5,8.5-1.2,11.7c-2.6,3.1-6.8,3.7-13.2,3.7
				c-26.8,0-33.8-14.4-37.2-41c-0.1-0.6-0.2-0.9-0.3-1.1c-0.1,0-0.2,0-0.3,0c-0.5,0-2.1,0.2-5,1.6c-0.4,0.2-0.7,0.3-0.8,0.4
				c0,0.1,0,0.2,0,0.3c-0.4,3.6-1.4,8.2-8.2,15.7c-5.9,6.5-13.3,12.7-19.8,18.2c-7.4,6.2-14.4,12.1-16.5,16.1
				c-6.1,11.9-2.5,16.3,0.2,19.5c1.5,1.8,3.6,4.3,2.6,7.7c-1.1,3.7-5,4.8-7.1,5.5C114.4,283,109.9,283.8,105.8,283.8
				C105.8,283.8,105.8,283.8,105.8,283.8z"/>
			<path class="st0" d="M211.8,130.1c0.5,0,1,0.4,1.6,1.2c5.8,7.8,5.9,7.9,7.7,15.1c1.6,6.3,2.9,7.3,14.8,8.1
				c13.2,1-13,5.3-14.9,31.8c-0.5,6.8-1.6,16.1-0.7,28.6c1.1,15,6.6,18.7-8.3,18.7c-22.5,0-28.9-10.3-32.3-36.7
				c-0.5-3.9-2.6-5.4-5.5-5.4c-2.1,0-4.6,0.8-7.2,2c-7.3,3.5,0.9,4.9-10.6,17.6c-12.6,13.9-32.4,26.4-37,35.3
				c-12.9,25,11.4,26.3-1.3,30.2c-4.2,1.3-8.4,2.1-12.4,2.1c-13.4,0-24.3-9.6-24.3-45.6c0-52.6,11.1-58.1,22.7-58.1
				c11.2,0-4.4,20.6,13,20.6c9.6,0,39.4-26.7,52-26.7c2.7,0,4.6,1.2,5.3,4.1c0.9,3.4,1.8,4.8,2.8,4.8c3.8,0,9.1-18.9,20.5-28.3
				C207.7,141.5,209.1,130.1,211.8,130.1 M211.8,120.2c-7.3,0-10.3,6.1-12.2,10.2c-1.7,3.6-3.9,8.1-8.2,11.7
				c-6.5,5.4-11.1,12.8-14.6,19c-2.2-1.2-4.8-1.9-7.7-1.9c0,0,0,0,0,0c-9,0-19.6,6.5-34.6,16.3c-5.1,3.3-12.3,8-16.2,9.8
				c0-0.2,0-0.5,0.1-0.7c0.3-4.1,0.8-10.3-3.5-15c-1.8-2-5.2-4.4-10.7-4.4c-4.1,0-16.7,0-24.5,14.6c-5.6,10.5-8.1,27.4-8.1,53.4
				c0,18.8,2.8,32.4,8.7,41.6c5.8,9.1,14.6,13.9,25.5,13.9c4.6,0,9.6-0.8,15.3-2.5c2.3-0.7,8.6-2.6,10.4-8.8
				c1.8-6-1.8-10.2-3.5-12.3c-1.2-1.5-2-2.5-2.3-3.8c-0.5-2.3,0.5-5.9,2.7-10.1c1.6-3.1,9.2-9.5,15.3-14.6
				c6.6-5.6,14.2-11.9,20.3-18.6c3.8-4.2,6.1-7.7,7.4-10.6c2.1,11.3,5.1,18.7,9.7,24.3c8.9,10.8,22,12.1,31,12.1
				c6.3,0,12.8-0.4,17-5.5c4.2-5,3.2-10.7,2.3-15.8c-0.4-2.3-0.9-4.9-1.1-8.1c-0.7-9.7-0.1-17.4,0.5-23.6c0.1-1.3,0.2-2.4,0.3-3.6
				c0.8-11.5,7.6-17,12.1-20.7c1.1-0.9,2.1-1.7,3-2.6c4.5-4.6,3.6-9.4,3-11.2c-2.3-7.2-9.6-7.7-12.4-7.9c-2.9-0.2-4.7-0.4-5.8-0.6
				c0,0,0-0.1,0-0.1c-2.3-8.8-3.1-10-9.4-18.5C218.2,121.1,214.4,120.2,211.8,120.2L211.8,120.2
				C211.8,120.2,211.8,120.2,211.8,120.2L211.8,120.2z M115.9,185.8L115.9,185.8L115.9,185.8L115.9,185.8z"/>
		</g>
		<g>
			<path class="st0" d="M204.6,629c-11.1,0-19.6-11.7-25.1-34.7c-3.7-15.6-4.9-31-4.9-31.6l0-0.2v-0.2c0-7.1,4.4-7.6,5.7-7.6
				c1.9,0,3.3,0.9,4.5,2c1.3-6.2,2.7-18.8,2.7-41.1c0-4.3,0-8.1-0.1-11.6c-0.1-6.1-0.1-10.5,0.1-13.6c-3,0.7-8.3,3-14.9,7.2
				c-13.8,8.9-25.9,20-42.7,35.5c-7,6.4-14.9,13.7-23.8,21.6c-2.8,2.5-5.8,3.8-8.9,3.8c-3.4,0-9.8-1.7-14.4-12.9
				c-7.2-17.8-6.5-52.6,13.4-71.9c24.4-23.5,35.8-43.7,46.8-63.2c7.5-13.2,15.2-26.9,26.8-41.1c4.7-5.8,8.6-11.2,11.1-15.8
				c-0.1-1.5-0.3-2.9-0.4-4.2c-2.4,1.5-5.7,3.9-10,7.6c-4.9,4.3-10.1,8.9-15.3,13.5c-18,15.9-36.6,32.4-48.4,40.8
				c-2.9,2-6.8,6.2-10.9,10.6c-10.6,11.4-23.8,25.5-38.6,25.5c-3.6,0-7.4,0.2-11.1,0.3c-3.7,0.2-7.5,0.3-11,0.3
				c-7.3,0-15.5-0.6-21.4-4.9C6.3,438,4.9,431.9,5,427.8c0.3-9.6,9.2-20.1,26.6-31c17.2-10.9,34.8-24.8,55.2-40.9
				c26.6-21,56.7-44.8,93.4-67.4c7.5-4.6,11.9-9.8,13.3-15.5c1.4-5.8-1.1-10.9-2.6-13.4c-1.4-2.2-1.5-4.8-0.4-6.9
				c1.7-3,5.4-4.5,11.4-4.5c8.3,0,21.4,3,23.9,11.4c1.5,0.9,7.1,1,10.8,1.1c11.8,0.3,31.6,0.7,31.6,21.8c0,22.5-15.7,42.2-28.3,58
				c-6,7.5-12.8,16-12.8,19.7c0,9-0.3,42.4-0.5,57.8c14.3-6.7,15.7-7.7,27.7-15.7c2.5-1.7,5.5-3.7,9.1-6.1c4.7-3.1,7.8-4.4,10.3-4.4
				c2.8,0,5.1,1.6,6,4.2c0.8,2.4,2.4,7.4-19.1,33.7c-9.2,11.2-22.3,25.7-32.7,34c0.8,59.8,3.5,75,5.8,87.2c1.6,8.8,3,16.4,3,37.6
				C236.5,613.7,215.8,629,204.6,629z M181,433.6c-3.3,4.3-5.4,8.9-6.8,13c2.8-1.8,6.9-4.3,12.8-7.5c-0.1-2.5-0.1-4.9-0.2-7.2
				C184,432.4,181.8,433.2,181,433.6z"/>
			<path class="st0" d="M201.7,253.2c7.3,0,17.8,2.8,19.2,8c2.9,10.8,42.1-5.2,42.1,21.3c0,34.1-41.1,63.8-41.1,77.8
				c0,11.9-0.6,65.7-0.6,65.7c25.5-12,20.7-9.7,44.6-25.5c3.8-2.5,6.2-3.6,7.6-3.6c9.1,0-30.6,49.5-50.8,64.5
				c1.2,106.4,8.8,77.1,8.8,127.2c0,22.8-19.1,35.4-27,35.4c-20.6,0-25-61.7-25-61.7c0-1.9,0.3-2.6,0.7-2.6c1.3,0,3.9,5.3,5.9,5.3
				c0.4,0,0.7-0.2,1.1-0.6c3.3-4.5,5.2-22.7,5.2-48.6c0-13.2-0.4-22.4,0.2-26.4c0.4-2.7-1-3.9-3.5-3.9c-4.1,0-11.3,3.1-19.2,8.2
				c-20.2,13-37.2,31.1-67.1,57.6c-1.9,1.7-3.8,2.5-5.6,2.5c-14.6,0-22.3-52.3,2.5-76.3c41.6-40.2,46-70.3,74-104.8
				c5.8-7.1,9.8-13.1,12.3-17.9c-0.5-5.1-0.9-9.5-1.2-12.6c-3.7,0.8-9.7,4.3-17.5,11.2c-22.2,19.4-48.4,43.4-63.2,54
				c-10.7,7.6-28.4,35.2-46.7,35.2c-7.4,0-15.1,0.7-22.2,0.7c-7.5,0-14.1-0.8-18.5-4c-16.1-11.7-0.6-26.9,17.5-38.4
				c40.4-25.6,84.5-68.7,148.5-108.3c19.7-12.2,17.8-26.8,12.2-35.7C193.4,254.4,196.8,253.2,201.7,253.2 M168.6,456.7
				c0.8,0,1.7-0.6,2.7-1.6c2.9-3.1,12.6-8.6,20.8-13c-0.2-5.4-0.3-10.7-0.5-15.5c-6.1,0.1-12.8,1.8-14.3,3.8
				c-4.9,6.3-7.4,12.9-9.3,19.6C166.6,454.8,167.3,456.7,168.6,456.7 M201.7,243.2l0,9.9L201.7,243.2c-7.8,0-13.1,2.4-15.7,7.1
				c-2.1,3.7-1.9,8.2,0.5,12c1.1,1.8,2.9,5.5,2,9.6c-1,4.2-4.8,8.5-11,12.4c-36.9,22.8-67.2,46.7-93.8,67.8
				c-20.3,16-37.8,29.8-54.8,40.6C9.8,404.6,0.4,416.1,0,427.7c-0.2,5.3,1.6,13.1,10.8,19.8c7.1,5.2,16.8,5.9,24.4,5.9
				c3.7,0,7.5-0.2,11.3-0.3c3.6-0.2,7.4-0.3,10.9-0.3c17,0,31-15,42.3-27.1c4-4.2,7.7-8.2,10.2-10c12-8.5,30.7-25.1,48.8-41.1
				c1.2-1.1,2.4-2.2,3.7-3.3c-9.8,12.8-16.8,25.1-23.5,37c-10.9,19.2-22.1,39.1-46,62.1c-12.5,12-16.9,28.1-18.4,39.5
				c-1.8,13.5-0.4,27.6,3.8,37.8c5.6,13.9,14.3,16,19,16c3,0,7.5-0.9,12.2-5c9-8,16.9-15.3,23.9-21.7c16.6-15.3,28.5-26.3,42-34.9
				c2.7-1.8,5.1-3.1,7.1-4.1c0,1.9,0,4,0.1,6.3c0,3.4,0.1,7.3,0.1,11.5c0,16.3-0.7,27.2-1.6,34.1c-0.2,0-0.4,0-0.6,0c0,0,0,0,0,0
				c-4.6,0-8.7,3.1-10.1,7.6c-0.4,1.4-0.6,3-0.6,5v0.4l0,0.4c0,0.7,1.2,16.4,5.1,32.4c2.4,9.9,5.3,17.9,8.7,23.8
				c6.9,12.1,15.4,14.6,21.2,14.6c7.4,0,16.4-4.7,23.7-12.2c8.6-8.9,13.3-20.7,13.3-33.1c0-21.7-1.4-29.5-3.1-38.5
				c-2.2-11.9-4.9-26.6-5.7-84c10.4-8.7,22.8-22.4,31.5-33.2c5.9-7.2,10.8-13.9,14.3-19.3c4.9-7.6,7.6-13.5,5.7-19.2
				c-1.5-4.6-5.7-7.6-10.7-7.6c-3.6,0-7.4,1.5-13,5.2c-3.6,2.4-6.6,4.4-9.1,6.1c-9.3,6.2-12.1,8.1-19.9,11.9
				c0.2-16.7,0.4-41.7,0.4-49.7c0.6-2.9,7.3-11.3,11.7-16.8C256,328,273,306.7,273,282.5c0-11.2-5.3-19.6-15-23.6
				c-6.9-2.9-14.6-3-21.5-3.2c-2.2,0-5.3-0.1-7.3-0.4c-1.8-3.3-5.4-7-12.3-9.5C212.3,244.2,206.8,243.3,201.7,243.2L201.7,243.2z"/>
		</g>
		<g>
			<path class="st0" d="M1825.4,591.8v-80.3h336.3v-15.7h-290c-25.5,0-46.2-20.7-46.2-46.2v-83.7c0-25.5,20.7-46.2,46.2-46.2h383.7
				v80.3h-324.9v15.7h290c25.5,0,46.2,20.7,46.2,46.2v83.7c0,25.5-20.7,46.2-46.2,46.2H1825.4z"/>
			<path class="st0" d="M2250.4,324.6v70.3h-324.9v25.6h241.2h13.9h39.9c22.8,0,41.3,18.5,41.3,41.3v83.7
				c0,22.8-18.5,41.3-41.3,41.3h-39.9h-13.9h-336.3v-70.3h336.3v-25.6h-241.2h-43.8h-10.1c-22.8,0-41.3-18.5-41.3-41.3v-83.7
				c0-22.8,18.5-41.3,41.3-41.3h10.1h43.8H2250.4 M2260.3,314.7h-9.9h-324.9h-43.8h-10.1c-28.2,0-51.2,23-51.2,51.2v83.7
				c0,28.2,23,51.2,51.2,51.2h10.1h43.8h231.2v5.7h-326.3h-9.9v9.9v70.3v9.9h9.9h336.3h13.9h39.9c28.2,0,51.2-23,51.2-51.2v-83.7
				c0-28.2-23-51.2-51.2-51.2h-39.9h-13.9h-231.2v-5.7h315h9.9v-9.9v-70.3V314.7L2260.3,314.7z"/>
		</g>
		<g>
			<rect x="2274.7" y="419.6" class="st0" width="105.1" height="172.2"/>
			<path class="st0" d="M2374.8,424.6v162.3h-95.1V424.6H2374.8 M2384.7,414.6h-9.9h-95.1h-9.9v9.9v162.3v9.9h9.9h95.1h9.9v-9.9
				V424.6V414.6L2384.7,414.6z"/>
		</g>
		<g>
			<polygon class="st0" points="2257,399.9 2288.8,319.6 2394.6,319.6 2362.8,399.9 			"/>
			<path class="st0" d="M2387.3,324.6l-27.9,70.3h-95.1l27.9-70.3H2387.3 M2402,314.7h-14.6h-95.1h-6.8l-2.5,6.3l-27.9,70.3
				l-5.4,13.6h14.6h95.1h6.8l2.5-6.3l27.9-70.3L2402,314.7L2402,314.7z"/>
		</g>
		<g>
			<path class="st0" d="M2715.4,591.8l-214.1-105.4v105.4h-105.1V319.6h105.1V428l220-108.3h261.9v82h248v-82h105.1v225.9
				c0,25.5-20.7,46.2-46.2,46.2H2715.4z M2878.2,579v-67.5h353.1v-29.6h-306.8c-25.5,0-46.2-20.7-46.2-46.2V335.4l-247.4,121.8
				L2878.2,579z"/>
			<path class="st0" d="M3331.4,324.6v220.9c0,22.8-18.5,41.3-41.3,41.3h-39.8h-14.1h-353.1v-70.3h353.1v-39.6h-258h-14.2h-39.6
				c-22.8,0-41.3-18.5-41.3-41.3V327.4l-263.6,129.8l263.3,129.6h-166.3l-180.1-88.7l-40.1-19.7v108.4h-95.1V324.6h95.1V436
				l40.1-19.7l186.1-91.6h160.7h5.6h89.5v82h258v-82H3331.4 M3341.3,314.7h-9.9h-95.1h-9.9v9.9v72.1h-238.1v-72.1v-9.9h-9.9h-89.5
				h-5.6h-160.7h-2.3l-2.1,1l-186.1,91.6l-25.7,12.7v-95.4v-9.9h-9.9h-95.1h-9.9v9.9v262.2v9.9h9.9h95.1h9.9v-9.9v-92.5l25.7,12.7
				l180.1,88.7l2.1,1h2.3h166.3h42.7h310.7h14.1h39.8c28.2,0,51.2-23,51.2-51.2V324.6V314.7L3341.3,314.7z M2642.1,457.2
				l231.1-113.8v92.3c0,28.2,23,51.2,51.2,51.2h39.6h14.2h248v19.7h-343.1h-9.9v9.9V571L2642.1,457.2L2642.1,457.2z"/>
		</g>
		<g>
			<path class="st0" d="M1331.7,591.8V319.6h425c25.5,0,46.2,20.7,46.2,46.2v104.4c0,25.5-20.7,46.2-46.2,46.2h-28.2v0.1h-291.8
				v75.2H1331.7z M1709.5,436.4v-36.5h-272.7v36.5H1709.5z"/>
			<path class="st0" d="M1756.7,324.6c22.8,0,41.3,18.5,41.3,41.3v104.4c0,22.8-18.5,41.3-41.3,41.3h-33.2v0.1h-291.8v75.2h-95.1
				V324.6h88h7.1h282.7h9.1H1756.7 M1431.8,441.3h282.7v-46.4h-282.7V441.3 M1756.7,314.7h-33.2h-9.1h-282.7h-7.1h-88h-9.9v9.9
				v262.2v9.9h9.9h95.1h9.9v-9.9v-65.2h281.8h9.9v-0.1h23.2c28.2,0,51.2-23,51.2-51.2V365.9C1808,337.6,1785,314.7,1756.7,314.7
				L1756.7,314.7z M1441.7,404.9h262.8v26.5h-262.8V404.9L1441.7,404.9z"/>
		</g>
		<g>
			<path class="st0" d="M3401.3,591.8c-25.5,0-46.2-20.7-46.2-46.2V365.9c0-25.5,20.7-46.2,46.2-46.2h386.5
				c25.5,0,46.2,20.7,46.2,46.2v179.7c0,25.5-20.7,46.2-46.2,46.2l-44.9,0L3401.3,591.8z M3729,511.5V399.9h-268.9v111.7H3729z"/>
			<path class="st0" d="M3787.8,324.6c22.8,0,41.3,18.5,41.3,41.3v179.7c0,22.8-18.5,41.3-41.3,41.3h-44.9v0h-308.4v0h-33.2
				c-22.8,0-41.3-18.5-41.3-41.3V365.9c0-22.8,18.5-41.3,41.3-41.3h53.8v0h278.9v0H3787.8 M3455.1,516.5h278.9V394.9h-278.9V516.5
				 M3787.8,314.7h-53.8l-278.9,0l-53.8,0c-28.2,0-51.2,23-51.2,51.2v179.7c0,28.2,23,51.2,51.2,51.2h33.2l308.4,0l44.9,0
				c28.2,0,51.2-23,51.2-51.2V365.9C3839,337.6,3816,314.7,3787.8,314.7L3787.8,314.7z M3465,404.9h259v101.7h-259V404.9L3465,404.9
				z"/>
		</g>
	</g>
	<g>
		<g>
			<path d="M1592.1,257l-8-9.1h-61.5l-8,9.1h-32.4l49.3-53.7h44.1l48.6,53.7H1592.1z M1556.2,215.9h-5.7l-17.9,20.3h41.6
				L1556.2,215.9z"/>
			<path d="M1776.7,257l0.7-40.1h-4.7l-35,40.1h-23.6l-35-40.1h-5l0.7,40.1h-27.9v-53.7h51.4l27.6,34.8l27.8-34.8h51.1V257H1776.7z"
				/>
			<path d="M1955.1,234.4c-0.3,6.2,0.3,13.4-7.7,18.2c-3.5,2.1-8,3.2-12.8,3.9c-12.4,1.5-26.7,1.3-39.2,1.3
				c-13.3,0-28.9,0.2-41.9-1.6c-4.6-0.6-8.5-1.9-11.9-3.8c-7-4-6.8-12.3-7-17.5c0-2.3-0.1-4.6-0.1-6.8v-24.7h28.3V228
				c0,1.6,0.1,3.2,0.1,4.8c0.1,2.8-0.1,7,4,8.9c1.8,0.9,3.8,1.2,6.1,1.4c7,0.7,14.5,0.6,21.6,0.6c3.6,0,7.4,0,11-0.1
				c9.1-0.1,18.8,0.1,20.4-6.4c0.4-1.9,0.4-3.9,0.6-5.9c0.7-9.4,0.3-18.8,0.3-28.2h28.3V228C1955.4,230.2,1955.2,232.3,1955.1,234.4
				z"/>
			<path d="M2089.3,253.5c-6.7,4.2-21.4,4-30.4,4.1c-7.3,0.2-14.5,0.2-21.8,0.2c-12.1,0-26.8,0.2-38.7-1.3
				c-4.5-0.6-8.4-1.6-11.6-3.5c-4.7-2.7-5.3-6.1-5.3-9.7c0-1.4,0.1-2.7,0.3-4.1h27.4c0,1.2,0,2.3,0.7,3.5c0.4,0.7,1,1.2,2.1,1.7
				c2.7,1.2,10.6,1,13.7,1c4,0,8,0.1,12,0.1c5,0,9.9-0.1,14.9-0.1c3.5,0,12.3,0.2,14.7-1.7c1-0.9,1-2.1,1-3.1c0-4.1-5.6-3.9-11.3-4
				c-14.9-0.2-29.9-0.7-44.8-1c-8.1-0.2-18.4-0.3-24.3-4.1c-4.9-3.1-5.3-7.6-5.3-11.7c0-9.6,4.3-15.6,22.2-16.7
				c12-0.7,24.4-0.6,36.6-0.6c11.7,0,24.1-0.2,35.6,1.4c12.7,1.9,15.4,6.7,15.4,13.7v2.6h-27.5v-0.8c0-1.5-0.3-2.7-2.7-3.5
				c-2.7-1-8.9-1-12-1h-24.1c-2.9,0-11.2-0.1-13.7,1c-1.8,0.7-2.2,2-2.2,3.2c0,1,0.4,2.3,1.8,2.9c1,0.5,2.4,0.6,3.6,0.7
				c3.2,0.3,6.6,0.3,9.8,0.4c6.3,0.2,12.6,0.3,18.8,0.4c10.7,0.2,26.1,0.1,36.6,1.7c3.3,0.6,6.3,1.4,8.9,2.7c5.7,2.9,6,8.4,6,12.5
				C2095.6,244.9,2094.9,250,2089.3,253.5z"/>
			<path d="M2122.3,257v-53.7h103v12.6h-75.1v7.8h71.3v11.7h-71.3v8.6h75.6V257H2122.3z"/>
			<path d="M2383,257l0.7-40.1h-4.7l-35,40.1h-23.6l-35-40.1h-5l0.7,40.1H2253v-53.7h51.4l27.6,34.8l27.8-34.8h51.1V257H2383z"/>
			<path d="M2441.1,257v-53.7h103v12.6H2469v7.8h71.3v11.7H2469v8.6h75.6V257H2441.1z"/>
			<path d="M2652.1,257l-49-40h-3.1l0.7,40h-28.9v-53.7h49.7l48.7,40h2.9l-0.7-40h28.9V257H2652.1z"/>
			<path d="M2796.2,217v40h-29.7v-40H2725v-13.7h112.6V217H2796.2z"/>
			<path d="M3059.5,257h-43.7l-18.7-39.3l-18.4,39.3h-44l-35-53.7h28.9l25,40.1h5.2l21.1-40.1h34.2l21.2,40.1h5.3l25.1-40.1h30
				L3059.5,257z"/>
			<path d="M3240.9,239.6c-0.4,5-1.3,11.2-8.8,14.5c-3.9,1.8-8.4,2.4-13.3,2.8c-13.5,1.1-27.8,0.9-41.4,0.9c-7.3,0-14.7,0-21.9-0.1
				c-9.8-0.1-24.6-0.1-32.8-3.6c-7.5-3.1-8.4-9.6-8.8-14.5c-0.4-3.1-0.4-6.3-0.4-9.4c0-3.1,0-6.3,0.4-9.4c0.6-4.9,1.4-11.2,8.8-14.5
				c3.9-1.7,8.5-2.5,13.3-2.9c13.1-1.2,28.2-0.9,41.4-0.9c7.4,0,14.7,0.1,22.1,0.2c9.8,0.1,24.4,0.1,32.7,3.6
				c7.5,3.2,8.2,9.6,8.8,14.5c0.4,3.1,0.4,6.3,0.4,9.4C3241.3,233.3,3241.3,236.4,3240.9,239.6z M3211.4,220.9
				c-1.5-2.9-4.7-3.6-9.6-4c-6.6-0.5-13.3-0.4-19.8-0.4h-17.9c-22.6,0-22.2,2.6-22.2,15c0,3.1-0.6,8.2,4.2,10.4
				c5.3,2.4,24.8,1.9,31.3,1.9c4.5,0,9.1-0.1,13.5-0.1c5.2,0,13.5,0,17.9-1.9c4.6-2,4.2-7.4,4.2-10.4
				C3213,228.6,3213,223.7,3211.4,220.9z"/>
			<path d="M3382.3,231.9c-3.1,3.1-8.5,3.8-14.2,4.3c14.1,0.6,16.3,4.5,16.3,12v8.8h-27.9c0-3.2,0.3-6.6-0.8-9.7
				c-1.3-3.5-5.6-3.9-11.2-3.9h-46.6V257h-28.3v-53.7h68.5c5,0,10.2,0.1,15.2,0.1c10.6,0.1,22.5-0.6,28.8,5.5
				c3.6,3.5,3.3,8.3,3.3,12.1C3385.3,224.5,3385.5,228.7,3382.3,231.9z M3345.3,216.7h-47.5v13.2h39.9c2.1,0,4.2-0.1,6.3-0.1
				c10.2-0.2,13-0.3,13-6.8C3357,217.6,3354.6,216.7,3345.3,216.7z"/>
			<path d="M3498.3,257l-41.6-20.5h-15.6V257h-28.3v-53.7h28.3v19.5h15.6l36.7-19.8h43.4l-53.7,26.7l58.2,27.3H3498.3z"/>
			<path d="M3664.7,253.5c-6.7,4.2-21.4,4-30.4,4.1c-7.3,0.2-14.5,0.2-21.8,0.2c-12.1,0-26.8,0.2-38.7-1.3
				c-4.5-0.6-8.4-1.6-11.6-3.5c-4.7-2.7-5.3-6.1-5.3-9.7c0-1.4,0.1-2.7,0.3-4.1h27.4c0,1.2,0,2.3,0.7,3.5c0.4,0.7,1,1.2,2.1,1.7
				c2.7,1.2,10.6,1,13.7,1c4,0,8,0.1,12,0.1c5,0,9.9-0.1,14.9-0.1c3.5,0,12.3,0.2,14.7-1.7c1-0.9,1-2.1,1-3.1c0-4.1-5.6-3.9-11.3-4
				c-14.9-0.2-29.9-0.7-44.8-1c-8.1-0.2-18.4-0.3-24.3-4.1c-4.9-3.1-5.3-7.6-5.3-11.7c0-9.6,4.3-15.6,22.2-16.7
				c12-0.7,24.4-0.6,36.6-0.6c11.7,0,24.1-0.2,35.6,1.4c12.7,1.9,15.4,6.7,15.4,13.7v2.6h-27.5v-0.8c0-1.5-0.3-2.7-2.7-3.5
				c-2.7-1-8.9-1-12-1h-24.1c-2.9,0-11.2-0.1-13.7,1c-1.8,0.7-2.2,2-2.2,3.2c0,1,0.4,2.3,1.8,2.9c1,0.5,2.4,0.6,3.6,0.7
				c3.2,0.3,6.6,0.3,9.8,0.4c6.3,0.2,12.6,0.3,18.8,0.4c10.7,0.2,26.1,0.1,36.6,1.7c3.3,0.6,6.3,1.4,8.9,2.7c5.7,2.9,6,8.4,6,12.5
				C3671,244.9,3670.3,250,3664.7,253.5z"/>
		</g>
		<path class="st1" d="M778.6,33.2c-10.7,5.9,11.6,12.3,33.1,40.7c16.4,21.7,13.4,34.1,33.6,37.5c18,3.1,46.1,1.4,47.1-17.5
			c1.3-23.8,4.5-55.5-26.3-68.3C841.4,15.5,784.5,30,778.6,33.2z"/>
		<path class="st1" d="M1028.1,118c-24,0-73.5,1.6-101.9,1.6c-40.9,0-134.1,31.3-248.4,64.8c-32.5,9.5-33.2,24.3-53,24.3
			c-57.7,0-20.1,38.2-2.7,38.2c40.7,0,92.4,5.5,105.4-18.6c20.1-37.1,136.4-81.3,223.7-75.4c0,0,4.2,8.6-6.9,14.7
			c-20.6,11.3-26.9,30.9-16.2,26.6c29.4-11.6,43.7-17.9,71.9-17.9c20.7,0,37.6,6.9,54.7,6.9C1097.5,183.3,1040.9,118,1028.1,118z"/>
		<path class="st1" d="M867,547.5c-4.4-31.1-14.6-123.3-14.6-123.3c-1.5-24.8,0.9-34.9,8.8-34.9l48,0c7.2,0,18.6-8.1,18.6-19.7
			c0-15.2-1.9-20.1,1.9-28.7c6.3-14.3,37.3-29.3,39-46.6c2.9-28.2-9.2-46.4-15-50.2c-11.6-7.6-41.4-14.2-56.9-14.2
			c-16.3,0-25.6,6.9-33.1,8.6c-22,5-79.1,33.5-80,45.2c-1.1,14.1,27-1.6,52.2-7.1c16.7-3.6,29.8-8.1,41.8-17.1
			c14.7-11,27,3.5,27,15.8c0,10-21.5,32.4-33.4,44.6c-4.9,5.1-6.9,13.1-7.7,19.3c-0.7,5-4.8,8.8-9.9,9c-6.4,0.2-20.2,0.8-29.7,0.8
			c-20.8,0-20,12.5-32.4,12.5c-9,0-17.2-3.1-17.2-25.3c0-8.8-5-37.9-17.8-45.4c-3.5-2-5.8-5.5-6.2-9.5c-4.8-47.9-26.8,7-26.8,33.7
			c0,33.6,29.1,104.5,49.4,104.5c23,0,24.1-27.5,24.1-27.5h18.4c3.6,0,6.5,2.9,6.5,6.5l-2.7,26.3c-1,9.6-0.7,19.3,0.9,28.8l0.1,0.5
			c1,5.9,1.5,11.9,1.5,17.9l-0.1,51.6c0,22.3-21.1,28.9-40.1,31.3c-6.1,0.8-8,12.6-3,16.3c12.4,9.3,27,28.6,27,49.2
			c0,33.1,14.6,37.1,24.2,35.5C846.3,653.1,878.9,631.5,867,547.5z"/>
		<path class="st1" d="M1080.8,518.8c0-28.3-99.7-60.3-119-60.6c-27.2-0.3-56.1-9-13.8,29.9c0,0,47.7,39.6,21,45.4
			c-19.1,4.2-49.8,19.3-41.1,23.6c10.1,5,69.6-5.6,87.8-5.6c18.6,0,6.6,7.5,31.1,7.5C1072.8,559,1080.8,546.5,1080.8,518.8z"/>
		<path class="st1" d="M639.7,470.8c-7.8,29.4-22.6,24.9-22.6,66.6c0,14.9,2.9,16,7.6,27c6,14,8.2,28.6,30.5,28.6
			c18,0,6.4-16.9,21.3-23.2c21.6-9.2,25.1-25.6,25.1-40.8c0-33.9,20.8-35.8,37.6-54.2c17.7-19.4-29-5-42.6,5.9
			c-16.7,13.4-32,6.9-34-8.1C661.5,464.7,644.2,454.1,639.7,470.8z"/>
		<path class="st1" d="M475.8,68.8c-30.1,16.5-20,26.2-39.8,47.2c-15.5,16.4-35.5,47-32.1,46.6c18.1-2.4,110.4-14.7,111.8,13.6
			c1.5,31.3-81.6,147.5-97.9,168.6c-1,1.3-0.1,3.2,1.6,3.2l70.8,0c28.6,0,63.4,28.8,45.9,75.7c-7.6,20.5-116.3,230.8-226.3,259.2
			c-5.2,1.3-8.7-5.3-4.7-8.9c40.2-36.5,131.1-156.6,138.4-189.1c6.2-27.4,38-58.4,38-89.9c0-18.4-3.1-18.5-7.4-18.5l-35.9,0
			c-18.4,0-31.4,33.6-60,30.3c-3.2-0.4-5.7-3.1-5.7-6.4v-48.2c0-11.6,4.7-29.3,9.3-35.8c51.9-74,112.8-154.1,60-147.9
			c-40.1,4.7-62.7,53.2-81.6,53.8c-10.2,0.4-12-35.9-6.7-52.7c3.4-10.8,6.8-14.7,9.7-23.2c7.7-22,19-31.7,31.2-57
			c8.7-17.9,13.8-52.7,37.6-60.6C450.4,22.7,497.5,56.9,475.8,68.8z"/>
		<path class="st1" d="M253.9,22.4c38.3,46.3,27,46.6,12.1,47.1c-12.8,0.4-6.2,3.6-27.1,8.6c-16,3.8-40.5,6.1-51,11.5
			c-31.3,16.3-57.6,44.8-86.1,55.6c-28.8,11,28.7-68.1,52.8-80.1c9.4-4.7,34.8-42.1,56-50.4C230.8,7,241.9,7.9,253.9,22.4z"/>
		<path class="st1" d="M266.1,128.2c25.1-2.6,52.4,9.4,61.7,27.5c1.3,2.5,1.9,19.4-1.7,21.2c-40,19.8-45.4,46.9-74.7,52.2
			c-18.4,3.3,21-46.6,28.7-62.9c5.5-11.6-11-13.7-16.9-25.7C257.2,127.8,257.2,129.1,266.1,128.2z"/>
		<path class="st1" d="M197.8,149.7c11.7-9.7,11.6-23.8,15.7-18.3c5.8,7.8,5.9,7.9,7.7,15.1c1.6,6.3,2.9,7.3,14.8,8.1
			c13.2,1-13,5.3-14.9,31.8c-0.5,6.8-1.6,16.1-0.7,28.6c1.1,15,6.6,18.7-8.3,18.7c-22.5,0-28.9-10.3-32.3-36.7
			c-0.9-6.8-6.6-6.3-12.7-3.4c-7.3,3.5,0.9,4.9-10.6,17.6c-12.6,13.9-32.4,26.4-37,35.3c-12.9,25,11.4,26.3-1.3,30.2
			c-18.3,5.5-36.7,3.2-36.7-43.4c0-52.6,11.1-58.1,22.7-58.1c11.2,0-4.4,20.6,13,20.6c11.6,0,53-39.2,57.3-22.5
			C178.6,189,183.3,161.7,197.8,149.7z"/>
		<path class="st1" d="M266,400.5c-23.9,15.8-19.1,13.5-44.6,25.5c0,0,0.6-53.8,0.6-65.7c0-13.9,41.1-43.7,41.1-77.8
			c0-26.5-39.2-10.5-42.1-21.3c-2.3-8.7-30-10.6-26-4.2c5.6,8.9,7.4,23.6-12.2,35.7c-64,39.6-108.1,82.7-148.5,108.3
			c-18.1,11.5-33.6,26.7-17.5,38.4c8.5,6.2,25.5,3.3,40.7,3.3c18.3,0,36-27.6,46.7-35.2c14.9-10.6,41-34.5,63.2-54
			c24.7-21.6,31-10.9,6.4,19.2c-28,34.4-32.4,64.6-74,104.8c-27.8,26.9-14.7,89.5,3.1,73.7c29.9-26.5,46.9-44.6,67.1-57.6
			c12.8-8.2,23.7-11.4,22.7-4.3c-0.6,3.9-0.2,13.2-0.2,26.4c0,26-1.8,44.1-5.2,48.6c-2.7,3.6-7.7-10.2-7.7-2c0,0,4.5,61.7,25,61.7
			c8,0,27-12.6,27-35.4c0-50.1-7.6-20.8-8.8-127.2C246,444.2,295,381.4,266,400.5z M204.4,435.7c0,0-27.8,13.8-33.1,19.4
			c-2.7,2.8-5.4,2.5-3.3-5.1c1.9-6.7,4.4-13.4,9.3-19.6c2.6-3.3,19.5-6,23.9-1.3C204.1,432.2,204.4,435.7,204.4,435.7z"/>
		<g>
			<path d="M2220.5,420.6h-39.9h-13.9h-241.2v-25.6h324.9v-70.3h-324.9h-43.8h-10.1c-22.8,0-41.3,18.5-41.3,41.3v83.7
				c0,22.8,18.5,41.3,41.3,41.3h10.1h43.8h241.2v25.6h-336.3v70.3h336.3h13.9h39.9c22.8,0,41.3-18.5,41.3-41.3v-83.7
				C2261.7,439,2243.3,420.6,2220.5,420.6z"/>
			<rect x="2279.7" y="424.6" width="95.1" height="162.3"/>
			<polygon class="st1" points="2264.4,394.9 2359.5,394.9 2387.3,324.6 2292.2,324.6 			"/>
			<path d="M3236.3,406.6h-258v-82h-89.5h-5.6h-160.7l-186.1,91.6l-40.1,19.7V324.6h-95.1v262.2h95.1V478.4l40.1,19.7l180.1,88.7
				h166.3l-263.3-129.6l263.6-129.8v108.3c0,22.8,18.5,41.3,41.3,41.3h39.6h14.2h258v39.6h-353.1v70.3h353.1h14.1h39.8
				c22.8,0,41.3-18.5,41.3-41.3V324.6h-95.1V406.6z"/>
			<path class="st1" d="M1756.7,324.6h-33.2h-9.1h-282.7h-7.1h-88v262.2h95.1v-75.2h291.8v-0.1h33.2c22.8,0,41.3-18.5,41.3-41.3
				V365.9C1798,343.1,1779.5,324.6,1756.7,324.6z M1431.8,394.9h282.7v46.4h-282.7V394.9z"/>
			<path d="M3787.8,324.6h-53.8v0h-278.9v0h-53.8c-22.8,0-41.3,18.5-41.3,41.3v179.7c0,22.8,18.5,41.3,41.3,41.3h33.2v0h308.4v0
				h44.9c22.8,0,41.3-18.5,41.3-41.3V365.9C3829.1,343.1,3810.6,324.6,3787.8,324.6z M3733.9,394.9v121.6h-278.9V394.9H3733.9z"/>
		</g>
		<path class="st1" d="M184.3,337.3c0,0,5.5,54.7,6.6,73c1.3,22.3,2.5,89.3,2.5,89.3l21.4-5.7l-13.9-162.4L184.3,337.3z"/>
	</g>
</g>
</svg>
