<?xml version="1.0" encoding="utf-8"?>
<!-- Generator: Adobe Illustrator 26.4.1, SVG Export Plug-In . SVG Version: 6.00 Build 0)  -->
<svg version="1.1" id="Layer_1" xmlns="http://www.w3.org/2000/svg" xmlns:xlink="http://www.w3.org/1999/xlink" x="0px" y="0px"
	 viewBox="0 0 3839 538.2" style="enable-background:new 0 0 3839 538.2;" xml:space="preserve">
<style type="text/css">
	.st0{fill:#FFFFFF;}
	.st1{fill:#FF0000;}
</style>
<g>
	<g>
		<g>
			<path class="st0" d="M665.3,533.2c-28.1,0-53.9-13-70.6-35.6c-16.7-22.6-21.6-51-13.4-77.9L682.9,87.9
				c7.4-24.1,22-44.8,42.3-59.9c20.3-15,44.4-23,69.7-23h296.7c28.1,0,53.8,13,70.6,35.6c16.7,22.6,21.6,51.1,13.4,78L1074,450.4
				c-7.4,24.1-22,44.8-42.3,59.9c-20.3,15-44.4,23-69.7,23H665.3z M836,140c-16.4,0-31.2,11-36,26.7l-60.4,197.4
				c-2.5,8.1-1,16.6,4,23.4c5,6.8,12.8,10.7,21.2,10.7H921c16.4,0,31.2-11,36-26.7l60.4-197.4c2.5-8.1,1-16.6-4-23.4
				c-5-6.8-12.8-10.7-21.2-10.7H836z"/>
			<path class="st0" d="M1091.5,10c55.7,0,95.5,53.9,79.2,107.1l-101.5,331.8c-14.4,47.1-57.9,79.3-107.2,79.3H665.3
				c-55.7,0-95.5-53.8-79.2-107L687.6,89.4C702,42.2,745.5,10,794.8,10H1091.5 M764.8,403.2H921c18.7,0,35.3-12.3,40.8-30.2
				l60.4-197.4c6.2-20.2-8.9-40.6-30-40.6H836c-18.7,0-35.3,12.3-40.8,30.2l-60.4,197.4C728.7,382.9,743.8,403.2,764.8,403.2
				 M1091.5,0.1H794.8c-26.3,0-51.4,8.3-72.6,23.9c-21.2,15.7-36.4,37.2-44.1,62.4L576.6,418.3c-8.7,28.4-3.5,58.4,14.1,82.3
				c17.7,23.9,44.9,37.6,74.6,37.6H962c26.3,0,51.4-8.3,72.6-23.9c21.2-15.7,36.4-37.2,44.1-62.4l101.5-331.8
				c8.7-28.4,3.5-58.5-14.1-82.4C1148.4,13.8,1121.2,0.1,1091.5,0.1L1091.5,0.1z M764.8,393.3c-6.9,0-13.1-3.2-17.2-8.7
				c-4.1-5.5-5.3-12.5-3.3-19l60.4-197.4c4.2-13.7,17-23.2,31.2-23.2h156.1c6.9,0,13.1,3.2,17.2,8.7c4.1,5.5,5.3,12.5,3.3,19
				l-60.4,197.4c-4.2,13.7-17,23.2-31.2,23.2H764.8L764.8,393.3L764.8,393.3z"/>
		</g>
		<g>
			<path class="st0" d="M1637.1,533.2l109.8-359.1c2.5-8.1,1-16.6-4-23.4c-5-6.8-12.8-10.7-21.2-10.7h-96.5l-120.3,393.2h-141.2
				l109.8-359.1c2.5-8.1,1-16.6-4-23.4c-5-6.8-12.8-10.7-21.2-10.7h-96.5l-120.3,393.2h-141.2L1251.8,5.1H1787
				c36.1,0,69.2,16.7,90.8,45.7c21.6,29.1,27.9,65.7,17.4,100.3l-116.9,382.1H1637.1z"/>
			<path class="st0" d="M1787,10c72.6,0,124.5,70.2,103.5,139.6l-115.8,378.6h-130.8l107.8-352.6c6.2-20.2-8.9-40.6-30-40.6h-100.2
				l-120.3,393.2h-130.8l107.8-352.6c6.2-20.2-8.9-40.6-30-40.6h-100.2l-120.3,393.2H1097L1255.5,10h130.8h142.5h130.8H1787
				 M1787,0.1h-127.3h-130.8h-142.5h-130.8h-7.4l-2.2,7l-158.5,518.2l-3.9,12.8h13.4h130.8h7.4l2.2-7L1355.4,145h92.8
				c6.9,0,13.1,3.2,17.2,8.7c4.1,5.5,5.3,12.5,3.3,19l-107.8,352.6l-3.9,12.8h13.4h130.8h7.4l2.2-7L1628.8,145h92.8
				c6.9,0,13.1,3.2,17.2,8.7c4.1,5.5,5.3,12.5,3.3,19l-107.8,352.6l-3.9,12.8h13.4h130.8h7.4l2.2-7l115.8-378.6
				c5.6-18.4,6.7-37.2,3.2-55.9c-3.3-17.5-10.7-34.4-21.4-48.9c-10.7-14.4-24.7-26.4-40.5-34.6C1824.5,4.5,1806.2,0.1,1787,0.1
				L1787,0.1z"/>
		</g>
		<g>
			<polygon class="st0" points="2432.7,533.2 2552.9,140 2385.9,140 2427.2,5.1 2902.8,5.1 2861.5,140 2694.1,140 2573.7,533.2 			
				"/>
			<path class="st0" d="M2896.1,10l-38.3,125h-167.4l-120.4,393.2h-130.7l120.3-393.2h-167l38.3-125H2896.1 M2909.5,0.1h-13.4
				h-465.1h-7.4l-2.2,7l-38.3,125l-3.9,12.8h13.4h153.5l-116.3,380.3l-3.9,12.8h13.4h130.7h7.4l2.2-7L2697.8,145h160h7.4l2.2-7
				l38.3-125L2909.5,0.1L2909.5,0.1z"/>
		</g>
		<g>
			<path class="st0" d="M1796.3,533.2l41.3-135h304.5c15.6,0,23.9-11.1,26.3-20.6c2.3-9.5,0.2-23.1-13.6-30.4L2005.2,268
				c-30.2-16-52.5-40.1-64.5-69.9c-10.9-26.9-12.9-57.9-5.6-87.1c7.3-29.3,23.5-55.7,45.8-74.4c24.6-20.6,55.6-31.5,89.7-31.5h319.3
				l-41.3,135h-214.6c-13.9,0-21.3,9.9-23.4,18.3c-2.1,8.5-0.2,20.6,12.2,27.2l109.1,57.8c33.2,17.6,57.8,44.3,71,77.1
				c12,29.7,14.2,63.8,6.2,96.1c-8,32.2-25.9,61.3-50.5,81.9c-27.1,22.7-61.2,34.7-98.8,34.7H1796.3z"/>
			<path class="st0" d="M2383.1,10l-38.3,125h-210.9c-30.3,0-40.5,40.7-13.5,54.9l109.1,57.8c137.1,72.8,85.5,280.5-69.8,280.5
				h-356.7l38.3-125h300.9c33.4,0,44.5-44.7,15-60.3l-149.7-79.3c-124-65.7-77.3-253.5,63-253.5H2383.1 M2396.5,0.1h-13.4h-312.6
				c-35.3,0-67.4,11.3-92.9,32.7c-23,19.4-39.9,46.7-47.4,77c-7.5,30.3-5.4,62.3,5.9,90.2c12.5,30.8,35.6,55.9,66.8,72.4l149.7,79.3
				c11.3,5.9,13.1,16.7,11.1,24.8c-2,8.1-8.7,16.8-21.5,16.8h-300.9h-7.4l-2.2,7l-38.3,125l-3.9,12.8h13.4h356.7
				c38.8,0,74.1-12.4,102-35.9c25.3-21.3,43.8-51.3,52.1-84.5c8.3-33.3,6-68.5-6.4-99.2c-13.7-33.9-39-61.4-73.3-79.6l-109.1-57.8
				c-9.8-5.2-11.5-14.6-9.7-21.6c1.7-7,7.5-14.6,18.6-14.6h210.9h7.4l2.2-7l38.3-125L2396.5,0.1L2396.5,0.1z"/>
		</g>
		<g>
			<path class="st0" d="M383.5,533.2L210.1,330l-62.2,203.3H6.7l104.8-342.6h342.6c12.4,0,23.1-7.9,26.7-19.6
				c2.2-7.4,0.9-15.1-3.7-21.3c-4.5-6.1-11.6-9.7-19.2-9.7H127L168.3,5H600c17.3,0,33,8,43.3,21.8c10.2,13.9,13.2,31.2,8.2,47.7
				l-62.4,204.1c-8.7,28.1-34.2,47-63.5,47H383.9l176.9,207.5H383.5z"/>
			<path class="st0" d="M600,9.9c32.8,0,56.4,31.7,46.7,63.1l-62.4,204.1c-8,25.8-31.8,43.5-58.7,43.5H373.1L550,528.3H385.8
				L208,319.8l-63.8,208.4H13.4l101.8-332.7H246h99.1h109c14.5,0,27.2-9.3,31.4-23.2c5.7-18.6-8.2-37.4-27.6-37.4H345.1h-80.6H133.7
				L172,9.9h44.8h86H600 M600,0H302.8h-86H172h-7.4l-2.2,7l-38.3,125.1l-3.9,12.8h13.4h130.8h80.6h112.8c6.1,0,11.6,2.8,15.2,7.7
				c3.6,4.9,4.7,11,2.9,16.9c-2.9,9.6-11.7,16.1-21.9,16.1h-109H246H115.2h-7.4l-2.2,7L3.9,525.4L0,538.2h13.4h130.8h7.4l2.2-7
				l58.5-191.1l166,194.6l3,3.5h4.6H550h21.5l-14-16.4L394.7,330.7h130.9c15.4,0,30-4.9,42.4-14c12.4-9.2,21.3-21.8,25.8-36.5
				L656.3,76c5.5-18,2.3-37-8.9-52.1C636.1,8.7,618.9,0,600,0L600,0z"/>
		</g>
		<g>
			<path class="st0" d="M3563.6,533l-173.3-203.3L3328,533h-141.2l104.8-342.5h342.6c12.4,0,23.1-7.9,26.7-19.6
				c2.2-7.4,0.9-15.1-3.7-21.3c-4.5-6.1-11.6-9.7-19.2-9.7h-330.9l41.3-135h431.8c17.3,0,33,8,43.3,21.8
				c10.2,13.9,13.2,31.2,8.2,47.7l-62.4,204.1c-8.6,28-34,46.9-63,46.9c0,0-142.2,0-142.2,0L3740.9,533H3563.6z"/>
			<path class="st0" d="M3780.2,9.9c32.8,0,56.4,31.7,46.7,63.1l-62.4,204.1c-7.9,25.7-31.5,43.3-58.3,43.3c-0.1,0-0.3,0-0.4,0
				h-152.5l176.9,207.5h-164.3l-177.7-208.4l-63.8,208.4h-130.8l101.8-332.6H3426h99.1h109.1c14.5,0,27.2-9.3,31.4-23.2
				c5.7-18.6-8.2-37.4-27.6-37.4h-112.8h-80.6h-130.8l38.3-125h44.8h86H3780.2 M3780.2,0h-297.3h-86h-44.8h-7.4l-2.2,7l-38.3,125
				l-3.9,12.8h13.4h130.8h80.6H3638c6.1,0,11.6,2.8,15.2,7.7c3.6,4.9,4.7,11,2.9,16.9c-2.9,9.6-11.7,16.1-21.9,16.1h-109.1H3426
				h-130.7h-7.4l-2.2,7L3184,525.2l-3.9,12.8h13.4h130.8h7.4l2.2-7l58.5-191.1l166,194.6l3,3.5h4.6h164.3h21.5l-14-16.4
				l-162.9-191.1h130.9l0.5,0c15.3,0,29.8-4.8,42.1-14c12.3-9.1,21.1-21.7,25.6-36.4L3836.4,76c5.5-18,2.3-37-8.9-52.1
				C3816.2,8.7,3799,0,3780.2,0L3780.2,0z"/>
		</g>
		<g>
			<polygon class="st0" points="3000.3,533.2 3043.7,391.1 3158.6,329.3 3062.6,329.3 3120.6,139.7 2968,329.3 2855.4,329.3 
				2916.6,393.2 2803.9,533.2 2630.7,533.2 3055.7,5.1 3302.9,5.1 3141.4,533.2 			"/>
			<path class="st0" d="M3296.2,10l-158.5,518.2H3007l40.8-133.8l130.5-70.2h-109l63.6-207.8l-167.3,207.8h-121.9l66.2,69.2
				l-108.4,134.8H2641l417-518.2H3296.2 M3309.7,0.1h-13.4h-238.1h-4.8l-3,3.7l-417,518.2l-13,16.2h20.8h160.5h4.8l3-3.7
				l108.4-134.8l5.5-6.8l-6-6.3l-50.1-52.4h98.6h4.8l3-3.7l134.9-167.6l-48.5,158.5l-3.9,12.8h13.4h69.6l-95.7,51.5l-3.6,1.9
				l-1.2,3.9l-40.8,133.8l-3.9,12.8h13.4h130.7h7.4l2.2-7l158.5-518.2L3309.7,0.1L3309.7,0.1z"/>
		</g>
	</g>
	<g>
		<path class="st1" d="M687.6,89.4L586.1,421.2c-16.3,53.3,23.6,107,79.2,107H962c49.3,0,92.8-32.2,107.2-79.3l101.5-331.8
			C1187,63.9,1147.2,10,1091.5,10H794.8C745.5,10,702,42.2,687.6,89.4z M734.8,362.7l60.4-197.4c5.5-17.9,22.1-30.2,40.8-30.2h156.1
			c21.1,0,36.2,20.4,30,40.6L961.7,373c-5.5,17.9-22.1,30.2-40.8,30.2H764.8C743.8,403.2,728.7,382.9,734.8,362.7z"/>
		<path class="st1" d="M1227.8,528.3l120.3-393.2h100.2c21.1,0,36.2,20.4,30,40.6l-107.8,352.6h130.8l120.3-393.2h100.2
			c21.1,0,36.2,20.4,30,40.6l-107.8,352.6h130.8l115.8-378.6C1911.5,80.2,1859.5,10,1787,10h-127.3h-130.8h-142.5h-130.8L1097,528.3
			H1227.8z"/>
		<polygon class="st1" points="2896.1,10 2430.9,10 2392.7,135.1 2559.6,135.1 2439.4,528.3 2570.1,528.3 2690.4,135.1 
			2857.8,135.1 		"/>
		<path class="st1" d="M2133.9,135.1h210.9l38.3-125h-312.6c-140.3,0-187.1,187.8-63,253.5l149.7,79.3c29.5,15.6,18.4,60.3-15,60.3
			h-300.9l-38.3,125h356.7c155.2,0,206.8-207.7,69.8-280.5l-109.1-57.8C2093.5,175.7,2103.6,135.1,2133.9,135.1z"/>
		<path class="st1" d="M584.3,277.2l62.4-204.1c9.6-31.4-13.9-63.1-46.7-63.1H302.8h-86H172l-38.3,125.1h130.8h80.6h112.8
			c19.5,0,33.3,18.8,27.6,37.4l0,0c-4.2,13.8-16.9,23.2-31.4,23.2h-109H246H115.2L13.4,528.3h130.8L208,319.8l177.7,208.4H550
			L373.1,320.7h152.5C552.5,320.7,576.4,303,584.3,277.2z"/>
		<path class="st1" d="M3764.4,277.2l62.4-204.1c9.6-31.4-13.9-63.1-46.7-63.1h-297.3h-86h-44.8l-38.3,125h130.8h80.6H3638
			c19.5,0,33.3,18.8,27.6,37.4l0,0c-4.2,13.8-16.9,23.2-31.4,23.2h-109.1H3426h-130.7l-101.8,332.6h130.8l63.8-208.4l177.7,208.4
			h164.3l-176.9-207.5h152.5C3732.6,320.7,3756.5,303,3764.4,277.2z"/>
		<polygon class="st1" points="3058.1,10 2641,528.3 2801.5,528.3 2910,393.5 2843.8,324.3 2965.6,324.3 3132.9,116.5 3069.3,324.3 
			3178.3,324.3 3047.8,394.5 3007,528.3 3137.7,528.3 3296.2,10 		"/>
	</g>
</g>
</svg>
