<?xml version="1.0" encoding="utf-8"?>
<!-- Generator: Adobe Illustrator 25.4.1, SVG Export Plug-In . SVG Version: 6.00 Build 0)  -->
<svg version="1.1" id="Layer_1" xmlns="http://www.w3.org/2000/svg" xmlns:xlink="http://www.w3.org/1999/xlink" x="0px" y="0px"
	 viewBox="0 0 3839 1490.7" style="enable-background:new 0 0 3839 1490.7;" xml:space="preserve">
<style type="text/css">
	.st0{fill:#FFFFFF;}
	.st1{fill:#034693;}
	.st2{fill:url(#SVGID_1_);}
	.st3{fill:url(#SVGID_00000098184777731953124810000014863346635273078191_);}
	.st4{fill:url(#SVGID_00000062188418127249821200000000964992821930757547_);}
	.st5{fill:url(#SVGID_00000027583429936779804270000015781648072379217819_);}
	.st6{fill:url(#SVGID_00000109026518464434928110000008699252125696940173_);}
	.st7{fill:url(#SVGID_00000169515623991544832850000012968452169406723500_);}
	.st8{display:none;}
	.st9{display:inline;fill:url(#SVGID_00000068649530143588255310000012301970602057892511_);}
	.st10{display:inline;fill:url(#SVGID_00000089558343847839904700000015615540940830202021_);}
	.st11{display:inline;fill:url(#SVGID_00000025440897384498273250000004859998901157356719_);}
	.st12{display:inline;fill:url(#SVGID_00000182494351669987880400000013614124854828030855_);}
	.st13{display:inline;fill:url(#SVGID_00000179635507483878278500000008196966804915031443_);}
	.st14{fill:url(#SVGID_00000103948114257926284160000005968980903969671858_);}
	.st15{fill:url(#SVGID_00000121976876269108581310000004082047630796929181_);}
	.st16{fill:url(#SVGID_00000054966086525557406340000001162439648779232128_);}
	.st17{fill:url(#SVGID_00000098187374547974776310000008051121900019298984_);}
	.st18{fill:url(#SVGID_00000145750537125893053240000012648551847664556676_);}
	.st19{fill:url(#SVGID_00000131360360667900229370000000598032153466553243_);}
</style>
<g>
	<g>
		<path class="st0" d="M2517.3,86c-15.8-50.2-63.1-86-117.6-86s-101.8,35.8-117.6,86l-41.6,123.3V7.2h-217.9
			c-38.7,0-74.6,15.8-101.8,41.6V7.2H1697c-41.6,0-78.9,17.2-106.1,45.9V7.2h-212.2c-90.3,0-164.9,74.6-164.9,164.9
			c0,43,17.2,83.2,44.4,111.8h-44.4V476H1426c60.2,0,111.8-31.5,142-80.3c24.4,47.3,73.1,80.3,130.5,80.3h225.1v-41.6
			c25.8,25.8,61.7,41.6,101.8,41.6h622.3L2517.3,86z"/>
		<g>
			<g>
				<path class="st1" d="M1246.8,172.1c0,73.1,58.8,131.9,131.9,131.9h45.9c4.3,0,7.2,2.9,7.2,7.2c0,4.3-2.9,7.2-5.7,7.2h-179.2
					v55.9h179.2c34.4,0,63.1-28.7,63.1-63.1s-28.7-63.1-63.1-63.1h-45.9c-41.6,0-76-34.4-76-76s34.4-76,76-76H1558v-56h-179.2
					C1305.6,40.1,1246.8,98.9,1246.8,172.1z M1315.7,172.1c0,34.4,28.7,63.1,63.1,63.1h45.9c41.6,0,76,34.4,76,76s-34.4,76-76,76
					h-177.8v55.9h179.2c73.1,0,131.9-58.8,131.9-131.9s-58.8-131.9-131.9-131.9h-45.9c-4.3,0-7.2-2.9-7.2-7.2c0-2.9,2.9-5.7,5.7-5.7
					H1558V109h-179.2C1344.3,109,1315.7,137.7,1315.7,172.1z M2049.9,164.9h159.2V109h-186.4c-24.4,0-43,18.6-43,43v179.2
					c0,24.4,18.6,43,43,43h116.1V248.1h-88.9V304h33v12.9h-33c-7.2,0-12.9-5.7-12.9-12.9V177.8
					C2037,170.6,2042.7,164.9,2049.9,164.9z M2375.4,374.2h130.5L2417,110.4c-2.9-7.2-8.6-12.9-17.2-12.9c-7.2,0-14.3,5.7-17.2,11.5
					l-114.7,334.1h66l40.1-119v50.2h1.4V374.2z M2398.3,253.8l18.6,57.4h-38.7L2398.3,253.8z M2485.8,98.9
					c-11.5-37.3-45.9-66-87.5-66c-41.6,0-76,27.2-86,64.5l-104.7,306.8v-225h-157.7v55.9h103.2v152h-129
					c-31.5,0-55.9-25.8-55.9-55.9V152c0-31.5,25.8-55.9,55.9-55.9h185v-56h-186.4c-61.7,0-111.8,50.2-111.8,111.8v179.2
					c0,61.7,50.2,111.8,111.8,111.8h230.9l116.1-337c4.3-12.9,15.8-21.5,30.1-21.5c14.3,0,25.8,8.6,30.1,21.5l94.6,281h-149.1v55.9
					H2602L2485.8,98.9z M1585.2,152v179.2c0,61.7,50.2,111.8,111.8,111.8h192.1v-55.9H1697c-31.5,0-55.9-25.8-55.9-55.9V152
					c0-31.5,25.8-55.9,55.9-55.9h192.1v-56H1697C1635.4,40.1,1585.2,90.3,1585.2,152z M1710,305.4h139.1v-55.9h-195v83.2
					c0,24.4,18.6,43,43,43h192.1v-55.9h-166.3C1715.7,318.3,1710,312.6,1710,305.4z M1722.9,166.3h164.9V109h-190.7
					c-24.4,0-43,18.6-43,43v83.2h195v-55.9H1710C1710,172.1,1715.7,166.3,1722.9,166.3z"/>
			</g>
		</g>
	</g>
	<g>
		<path class="st0" d="M931.2,722c-5.3-15.8-13.1-31.2-23.1-45.6c-10.2-14.7-22.7-28-37.2-39.6c-15.2-12.1-33.1-21.7-53.1-28.5
			c-19.7-6.7-41.6-10.1-65-10.1c-24.3,0-46.4,3.5-65.5,10.4c-19.3,6.9-36.5,16.7-51.3,29.1c-12.8,10.8-24.2,23-33.8,36.5
			c-9.7-13.6-21.4-26-34.8-36.9c-14.9-12.1-32-21.7-51.1-28.6c-19.2-6.9-41.2-10.4-65.5-10.4c-24.1,0-46.2,3.4-65.7,10.2
			c-19.6,6.8-37.2,16.3-52.4,28.4c-14.8,11.8-27.4,25.4-37.3,40.3c-9.2,13.7-16.7,28.3-22.4,43.2l-0.2,0.6L0,1490.7h277h80.5
			l96.6-293.3l110,293.3h75.3l110.8-295.3l100.2,295.3h353.2L931.2,722z"/>
		<g>
			<g>
				<g>
					<path class="st0" d="M601.8,1085.6l-114.2-306c-2.1-5.3-6.7-10.1-13.6-14.4c-6.9-4.3-14.7-6.4-23.2-6.4
						c-7.5,0-15.2,2.1-23.2,6.4c-8,4.3-12.8,9.1-14.4,14.4l-230.1,656.7H76.9l246.9-696.6c4.3-11.2,9.8-22,16.8-32.4
						c6.9-10.4,15.6-19.7,26-28c10.4-8.3,22.5-14.8,36.3-19.6s29.8-7.2,47.9-7.2c18.1,0,33.8,2.4,47.1,7.2s25,11.3,35.2,19.6
						c10.1,8.3,18.8,17.6,26,28c7.2,10.4,13.4,21.2,18.8,32.4l24,47.9l24-47.9c5.9-11.2,12.4-22,19.6-32.4
						c7.2-10.4,15.7-19.7,25.6-28c9.8-8.3,21.4-14.8,34.8-19.6c13.3-4.8,29-7.2,47.1-7.2c17.6,0,33.4,2.4,47.5,7.2
						s26.4,11.3,36.7,19.6c10.4,8.3,19.2,17.6,26.4,28c7.2,10.4,12.6,21.2,16.4,32.4l246.9,696.6h-106.3L790.3,779.7
						c-1.6-5.3-6.4-10.1-14.4-14.4c-8-4.3-15.7-6.4-23.2-6.4c-8.5,0-16.3,2.1-23.2,6.4c-6.9,4.3-11.5,9.1-13.6,14.4L601.8,1085.6z
						 M601.8,1436.4l-151-402.6l-132.6,402.6H211.9l218.9-636.7c1.1-3.2,3.7-6,8-8.4s8.3-3.6,12-3.6s7.6,1.2,11.6,3.6
						c4,2.4,6.5,5.2,7.6,8.4l131.8,363.5l131.8-363.5c1.1-3.2,3.6-6,7.6-8.4c4-2.4,7.9-3.6,11.6-3.6s7.7,1.2,12,3.6
						c4.3,2.4,6.9,5.2,8,8.4l218.9,636.7H889.4l-136.6-402.6L601.8,1436.4z"/>
					<path class="st0" d="M1326.4,1490.7c-44,0-83-5.5-116-16.3c-36.3-11.8-67.1-31-91.7-57.1c-24.3-25.7-42.3-58.5-53.5-97.4
						c-10.1-35.3-15.3-77.4-15.3-124.8V893.9c0-49.1,5.1-91.9,15.3-127.2c11.2-39.1,29.3-71.8,53.7-97.3
						c24.8-25.8,55.8-44.6,92.4-55.9c32.8-10.1,71.5-15.2,115.1-15.2h102.3c44,0,83.1,5.1,116.1,15.1c37,11.3,68.2,30.2,92.8,56.2
						c24.2,25.6,41.9,58.4,52.8,97.4c9.8,35.3,14.8,77.9,14.8,126.8V1195c0,47.3-5,89.2-14.8,124.4c-10.8,39-28.5,71.8-52.5,97.6
						c-24.4,26.2-55.4,45.5-92.1,57.4c-33.2,10.8-72.6,16.2-117,16.2L1326.4,1490.7L1326.4,1490.7z"/>
					<path class="st0" d="M1227.3,1422.8c-27.7-9-50.7-23.3-69.1-42.7c-18.4-19.4-32-44.5-40.7-75.1c-8.8-30.6-13.2-67.2-13.2-109.8
						V893.9c0-44.2,4.4-81.6,13.2-112.2c8.8-30.6,22.4-55.5,40.7-74.7c18.4-19.2,41.4-33,69.1-41.5c27.7-8.5,60.7-12.8,99.1-12.8
						h102.3c38.9,0,72.3,4.3,100.3,12.8c28,8.5,51,22.4,69.1,41.5c18.1,19.2,31.4,44.1,39.9,74.7c8.5,30.6,12.8,68,12.8,112.2v301.2
						c0,42.6-4.3,79.2-12.8,109.8c-8.5,30.6-21.8,55.7-39.9,75.1s-41.1,33.7-69.1,42.7c-28,9.1-61.4,13.6-100.3,13.6h-102.3
						C1288,1436.4,1255,1431.8,1227.3,1422.8z M1439.8,1330.1c20.2,0,37.3-2.8,51.1-8.4c13.8-5.6,25.2-13.4,34-23.6
						c8.8-10.1,15.2-22.1,19.2-35.9s6-28.8,6-44.7v-346c0-16-2-30.9-6-44.7s-10.4-25.8-19.2-35.9c-8.8-10.1-20.2-18-34.4-23.6
						c-14.1-5.6-31.3-8.4-51.5-8.4h-123c-20.2,0-37.4,2.8-51.5,8.4c-14.1,5.6-25.6,13.5-34.4,23.6s-15.2,22.1-19.2,35.9
						c-4,13.9-6,28.8-6,44.7v345.9c0,16,2,30.9,6,44.7c4,13.9,10.4,25.8,19.2,35.9c8.8,10.1,20.1,18,34,23.6
						c13.8,5.6,30.9,8.4,51.1,8.4h62.3L1439.8,1330.1L1439.8,1330.1z M1325.6,1301.3c-18.6,0-34-1.7-45.9-5.2
						c-12-3.5-21.3-9.2-28-17.2c-6.7-8-11.3-18.2-14-30.8c-2.7-12.5-4-28.1-4-46.7v-314c0-13.8,1.3-26.9,4-39.1
						c2.7-12.2,7.5-22.9,14.4-32c6.9-9,16.4-16.1,28.4-21.2c12-5.1,27.3-7.6,45.9-7.6h51.1h51.1c18.6,0,34,2.5,45.9,7.6
						c12,5.1,21.4,12.1,28.4,21.2c6.9,9.1,11.7,19.7,14.4,32c2.7,12.3,4,25.3,4,39.1v314c0,18.6-1.3,34.2-4,46.7
						c-2.7,12.5-7.3,22.8-14,30.8c-6.7,8-16,13.7-28,17.2c-12,3.5-27.3,5.2-45.9,5.2H1325.6z M1403.1,1195.1
						c6.4,0,10.5-1.9,12.4-5.6c1.9-3.7,2.8-8.8,2.8-15.2V914.7c0-6.4-0.9-11.4-2.8-15.2c-1.9-3.7-6-5.6-12.4-5.6H1352
						c-6.4,0-10.5,1.9-12.4,5.6c-1.9,3.7-2.8,8.8-2.8,15.2v259.6c0,6.4,0.9,11.5,2.8,15.2c1.9,3.7,6,5.6,12.4,5.6H1403.1z"/>
					<path class="st0" d="M1650.7,1490.7V598.3h361.9c44,0,83.1,5.1,116.1,15.1c37,11.3,68.2,30.2,92.8,56.2
						c24.2,25.6,41.9,58.4,52.8,97.4c9.8,35.3,14.8,77.9,14.8,126.8V1195c0,47.3-5,89.2-14.8,124.4c-10.8,39-28.5,71.8-52.5,97.6
						c-24.4,26.2-55.4,45.5-92.1,57.4c-33.2,10.8-72.6,16.2-117,16.2L1650.7,1490.7L1650.7,1490.7z"/>
					<path class="st0" d="M2075,1321.7c13.8-5.6,25.2-13.4,34-23.6c8.8-10.1,15.2-22.1,19.2-35.9c4-13.8,6-28.8,6-44.7v-346
						c0-16-2-30.9-6-44.7c-4-13.8-10.4-25.8-19.2-35.9c-8.8-10.1-20.2-18-34.3-23.6c-14.1-5.6-31.3-8.4-51.5-8.4h-318V652.7h307.6
						c38.9,0,72.3,4.3,100.3,12.8c28,8.5,51,22.4,69.1,41.5c18.1,19.2,31.4,44.1,39.9,74.7c8.5,30.6,12.8,68,12.8,112.2v301.2
						c0,42.6-4.3,79.2-12.8,109.8c-8.5,30.6-21.8,55.7-39.9,75.1c-18.1,19.4-41.1,33.7-69.1,42.7c-28,9.1-61.4,13.6-100.3,13.6H1705
						V919.5h100.7v410.6h218.1C2044.1,1330.1,2061.1,1327.3,2075,1321.7z M1705,893.9V787.7h307.6c18.6,0,34,2.5,45.9,7.6
						c12,5.1,21.4,12.1,28.4,21.2c6.9,9.1,11.7,19.7,14.4,32c2.7,12.3,4,25.3,4,39.1v314c0,18.6-1.3,34.2-4,46.7
						c-2.7,12.5-7.3,22.8-14,30.8c-6.7,8-16,13.7-28,17.2c-12,3.5-27.3,5.2-45.9,5.2h-178.9v-382h111.8v254.8
						c0,13.9,6.7,20.8,20,20.8h17.6c6.4,0,11.6-1.9,15.6-5.6s6-8.8,6-15.2V914.7c0-6.4-2-11.4-6-15.2c-4-3.7-9.2-5.6-15.6-5.6H1705z
						"/>
					<path class="st0" d="M2507.2,1490.7c-36.6,0-72.4-8-106.4-23.9c-33-15.3-62.4-36.5-87.6-63c-25-26.3-45.2-57.7-59.9-93.3
						c-14.9-36-22.5-74.9-22.5-115.5V893.9c0-40.6,7.6-79.5,22.5-115.5c14.7-35.6,34.9-67,59.9-93.3c25.1-26.4,54.6-47.6,87.6-63
						c34-15.8,69.8-23.9,106.4-23.9h357.1v350h-60.7v192.4h60.7v350L2507.2,1490.7L2507.2,1490.7z"/>
					<path class="st0" d="M2285.1,893.9c0-33.6,6.1-65.1,18.4-94.7c12.2-29.6,28.6-55.1,49.1-76.7s44.2-38.6,71.1-51.1
						c26.9-12.5,54.7-18.8,83.5-18.8H2810v106.3h-290c-20.2,0-38.3,4-54.3,12c-16,8-29.4,18.4-40.3,31.2
						c-10.9,12.8-19.3,27.3-25.2,43.5c-5.9,16.3-8.8,32.4-8.8,48.3v301.2c0,16,2.9,32.1,8.8,48.3c5.9,16.3,14.2,30.8,25.2,43.5
						c10.9,12.8,24.4,23.2,40.3,31.2c16,8,34.1,12,54.3,12h290v106.2h-302.8c-28.8,0-56.6-6.3-83.5-18.8
						c-26.9-12.5-50.6-29.6-71.1-51.1c-20.5-21.6-36.9-47.1-49.1-76.7c-12.3-29.6-18.4-61.1-18.4-94.7V893.9z M2420.1,1031.3V909.9
						c0-13.8,2.3-28.1,6.8-42.7c4.5-14.6,11.3-27.8,20.4-39.5c9-11.7,20.5-21.3,34.4-28.8c13.8-7.5,30.1-11.2,48.7-11.2H2810v106.2
						h-277.2c-3.2,0-6.5,1.9-10,5.6c-3.5,3.7-5.2,8.8-5.2,15.2v11.2h231.7v105.5L2420.1,1031.3L2420.1,1031.3z M2420.1,1057.7h329.1
						v106.2h-231.7v10.4c0,6.4,1.7,11.5,5.2,15.2c3.5,3.7,6.8,5.6,10,5.6h277.2v106.3h-279.6c-18.6,0-34.9-3.7-48.7-11.2
						c-13.9-7.5-25.3-17-34.4-28.8c-9.1-11.7-15.9-24.9-20.4-39.5c-4.5-14.6-6.8-28.9-6.8-42.7L2420.1,1057.7L2420.1,1057.7z"/>
					<path class="st0" d="M3086.4,1490.7c-36.6,0-72.4-8-106.4-23.9c-33-15.3-62.4-36.5-87.6-63c-25-26.3-45.2-57.7-59.9-93.3
						c-14.9-36-22.5-74.9-22.5-115.5V598.3h353.1v541.6h15.2v0.8h265.2v350H3086.4z"/>
					<path class="st0" d="M3389.1,1436.4h-302.8c-28.8,0-56.6-6.3-83.5-18.8c-26.9-12.5-50.6-29.6-71.1-51.1
						c-20.5-21.6-36.9-47.1-49.1-76.7c-12.3-29.6-18.4-61.1-18.4-94.7V652.7h106.3v542.4c0,16,2.9,32.1,8.8,48.3
						c5.9,16.3,14.2,30.8,25.2,43.5c10.9,12.8,24.4,23.2,40.3,31.2c16,8,34.1,12,54.3,12h290V1436.4z M3123.9,1195.1h265.2v106.3
						h-279.6c-18.6,0-34.9-3.7-48.7-11.2c-13.9-7.5-25.3-17-34.4-28.8c-9.1-11.7-15.9-24.9-20.4-39.5c-4.5-14.6-6.8-28.9-6.8-42.7
						V652.7h109.4v521.7c0,6.4,1.7,11.3,5.2,14.8c3.5,3.5,6.8,5.2,10,5.2v0.7H3123.9z"/>
					<path class="st0" d="M3497.9,1490.7V948.3h-120.7v-350h185.4c36.6,0,72.4,8,106.4,23.8c33,15.4,62.5,36.5,87.6,63
						c25,26.3,45.2,57.7,59.9,93.3c14.9,36,22.5,74.9,22.5,115.5v596.8h-135H3497.9z"/>
				</g>
				<g>
					<g>
						
							<linearGradient id="SVGID_1_" gradientUnits="userSpaceOnUse" x1="601.9156" y1="4745.5229" x2="601.9156" y2="3961.6023" gradientTransform="matrix(1 0 0 -1 0 5398.0396)">
							<stop  offset="0" style="stop-color:#23BFD4"/>
							<stop  offset="0.7031" style="stop-color:#3F4DA0"/>
						</linearGradient>
						<path class="st2" d="M601.8,1085.6l-114.2-306c-2.1-5.3-6.7-10.1-13.6-14.4c-6.9-4.3-14.7-6.4-23.2-6.4
							c-7.5,0-15.2,2.1-23.2,6.4c-8,4.3-12.8,9.1-14.4,14.4l-230.1,656.7H76.9l246.9-696.6c4.3-11.2,9.8-22,16.8-32.4
							c6.9-10.4,15.6-19.7,26-28c10.4-8.3,22.5-14.8,36.3-19.6s29.8-7.2,47.9-7.2c18.1,0,33.8,2.4,47.1,7.2s25,11.3,35.2,19.6
							c10.1,8.3,18.8,17.6,26,28c7.2,10.4,13.4,21.2,18.8,32.4l24,47.9l24-47.9c5.9-11.2,12.4-22,19.6-32.4
							c7.2-10.4,15.7-19.7,25.6-28c9.8-8.3,21.4-14.8,34.8-19.6c13.3-4.8,29-7.2,47.1-7.2c17.6,0,33.4,2.4,47.5,7.2
							s26.4,11.3,36.7,19.6c10.4,8.3,19.2,17.6,26.4,28c7.2,10.4,12.6,21.2,16.4,32.4l246.9,696.6h-106.3L790.3,779.7
							c-1.6-5.3-6.4-10.1-14.4-14.4c-8-4.3-15.7-6.4-23.2-6.4c-8.5,0-16.3,2.1-23.2,6.4c-6.9,4.3-11.5,9.1-13.6,14.4L601.8,1085.6z
							 M601.8,1436.4l-151-402.6l-132.6,402.6H211.9l218.9-636.7c1.1-3.2,3.7-6,8-8.4s8.3-3.6,12-3.6s7.6,1.2,11.6,3.6
							c4,2.4,6.5,5.2,7.6,8.4l131.8,363.5l131.8-363.5c1.1-3.2,3.6-6,7.6-8.4c4-2.4,7.9-3.6,11.6-3.6s7.7,1.2,12,3.6
							c4.3,2.4,6.9,5.2,8,8.4l218.9,636.7H889.4l-136.6-402.6L601.8,1436.4z"/>
					</g>
					<g>
						
							<linearGradient id="SVGID_00000101105232408012166450000018370015220911754645_" gradientUnits="userSpaceOnUse" x1="1377.5861" y1="4745.3228" x2="1377.5861" y2="3961.7007" gradientTransform="matrix(1 0 0 -1 0 5398.0396)">
							<stop  offset="0" style="stop-color:#23BFD4"/>
							<stop  offset="0.7031" style="stop-color:#3F4DA0"/>
						</linearGradient>
						<path style="fill:url(#SVGID_00000101105232408012166450000018370015220911754645_);" d="M1227.3,1422.8
							c-27.7-9-50.7-23.3-69.1-42.7c-18.4-19.4-32-44.5-40.7-75.1c-8.8-30.6-13.2-67.2-13.2-109.8V893.9c0-44.2,4.4-81.6,13.2-112.2
							c8.8-30.6,22.4-55.5,40.7-74.7c18.4-19.2,41.4-33,69.1-41.5c27.7-8.5,60.7-12.8,99.1-12.8h102.3c38.9,0,72.3,4.3,100.3,12.8
							c28,8.5,51,22.4,69.1,41.5c18.1,19.2,31.4,44.1,39.9,74.7c8.5,30.6,12.8,68,12.8,112.2v301.2c0,42.6-4.3,79.2-12.8,109.8
							c-8.5,30.6-21.8,55.7-39.9,75.1s-41.1,33.7-69.1,42.7c-28,9.1-61.4,13.6-100.3,13.6h-102.3
							C1288,1436.4,1255,1431.8,1227.3,1422.8z M1439.8,1330.1c20.2,0,37.3-2.8,51.1-8.4c13.8-5.6,25.2-13.4,34-23.6
							c8.8-10.1,15.2-22.1,19.2-35.9s6-28.8,6-44.7v-346c0-16-2-30.9-6-44.7s-10.4-25.8-19.2-35.9c-8.8-10.1-20.2-18-34.4-23.6
							c-14.1-5.6-31.3-8.4-51.5-8.4h-123c-20.2,0-37.4,2.8-51.5,8.4c-14.1,5.6-25.6,13.5-34.4,23.6s-15.2,22.1-19.2,35.9
							c-4,13.9-6,28.8-6,44.7v345.9c0,16,2,30.9,6,44.7c4,13.9,10.4,25.8,19.2,35.9c8.8,10.1,20.1,18,34,23.6
							c13.8,5.6,30.9,8.4,51.1,8.4h62.3L1439.8,1330.1L1439.8,1330.1z M1325.6,1301.3c-18.6,0-34-1.7-45.9-5.2
							c-12-3.5-21.3-9.2-28-17.2c-6.7-8-11.3-18.2-14-30.8c-2.7-12.5-4-28.1-4-46.7v-314c0-13.8,1.3-26.9,4-39.1
							c2.7-12.2,7.5-22.9,14.4-32c6.9-9,16.4-16.1,28.4-21.2c12-5.1,27.3-7.6,45.9-7.6h51.1h51.1c18.6,0,34,2.5,45.9,7.6
							c12,5.1,21.4,12.1,28.4,21.2c6.9,9.1,11.7,19.7,14.4,32c2.7,12.3,4,25.3,4,39.1v314c0,18.6-1.3,34.2-4,46.7
							c-2.7,12.5-7.3,22.8-14,30.8c-6.7,8-16,13.7-28,17.2c-12,3.5-27.3,5.2-45.9,5.2H1325.6z M1403.1,1195.1
							c6.4,0,10.5-1.9,12.4-5.6c1.9-3.7,2.8-8.8,2.8-15.2V914.7c0-6.4-0.9-11.4-2.8-15.2c-1.9-3.7-6-5.6-12.4-5.6H1352
							c-6.4,0-10.5,1.9-12.4,5.6c-1.9,3.7-2.8,8.8-2.8,15.2v259.6c0,6.4,0.9,11.5,2.8,15.2c1.9,3.7,6,5.6,12.4,5.6H1403.1z"/>
					</g>
					<g>
						
							<linearGradient id="SVGID_00000037671937854351610980000013371321501299644561_" gradientUnits="userSpaceOnUse" x1="1969.9513" y1="4745.3228" x2="1969.9513" y2="3961.7024" gradientTransform="matrix(1 0 0 -1 0 5398.0396)">
							<stop  offset="0" style="stop-color:#23BFD4"/>
							<stop  offset="0.7031" style="stop-color:#3F4DA0"/>
						</linearGradient>
						<path style="fill:url(#SVGID_00000037671937854351610980000013371321501299644561_);" d="M2075,1321.7
							c13.8-5.6,25.2-13.4,34-23.6c8.8-10.1,15.2-22.1,19.2-35.9c4-13.8,6-28.8,6-44.7v-346c0-16-2-30.9-6-44.7
							c-4-13.8-10.4-25.8-19.2-35.9c-8.8-10.1-20.2-18-34.3-23.6c-14.1-5.6-31.3-8.4-51.5-8.4h-318V652.7h307.6
							c38.9,0,72.3,4.3,100.3,12.8c28,8.5,51,22.4,69.1,41.5c18.1,19.2,31.4,44.1,39.9,74.7c8.5,30.6,12.8,68,12.8,112.2v301.2
							c0,42.6-4.3,79.2-12.8,109.8c-8.5,30.6-21.8,55.7-39.9,75.1c-18.1,19.4-41.1,33.7-69.1,42.7c-28,9.1-61.4,13.6-100.3,13.6
							H1705V919.5h100.7v410.6h218.1C2044.1,1330.1,2061.1,1327.3,2075,1321.7z M1705,893.9V787.7h307.6c18.6,0,34,2.5,45.9,7.6
							c12,5.1,21.4,12.1,28.4,21.2c6.9,9.1,11.7,19.7,14.4,32c2.7,12.3,4,25.3,4,39.1v314c0,18.6-1.3,34.2-4,46.7
							c-2.7,12.5-7.3,22.8-14,30.8c-6.7,8-16,13.7-28,17.2c-12,3.5-27.3,5.2-45.9,5.2h-178.9v-382h111.8v254.8
							c0,13.9,6.7,20.8,20,20.8h17.6c6.4,0,11.6-1.9,15.6-5.6s6-8.8,6-15.2V914.7c0-6.4-2-11.4-6-15.2c-4-3.7-9.2-5.6-15.6-5.6H1705
							z"/>
					</g>
					<g>
						
							<linearGradient id="SVGID_00000110438345564456219920000012638050992890766738_" gradientUnits="userSpaceOnUse" x1="2547.5166" y1="4745.4229" x2="2547.5166" y2="3961.7024" gradientTransform="matrix(1 0 0 -1 0 5398.0396)">
							<stop  offset="0" style="stop-color:#23BFD4"/>
							<stop  offset="0.7031" style="stop-color:#3F4DA0"/>
						</linearGradient>
						<path style="fill:url(#SVGID_00000110438345564456219920000012638050992890766738_);" d="M2285.1,893.9
							c0-33.6,6.1-65.1,18.4-94.7c12.2-29.6,28.6-55.1,49.1-76.7s44.2-38.6,71.1-51.1c26.9-12.5,54.7-18.8,83.5-18.8H2810v106.3
							h-290c-20.2,0-38.3,4-54.3,12c-16,8-29.4,18.4-40.3,31.2c-10.9,12.8-19.3,27.3-25.2,43.5c-5.9,16.3-8.8,32.4-8.8,48.3v301.2
							c0,16,2.9,32.1,8.8,48.3c5.9,16.3,14.2,30.8,25.2,43.5c10.9,12.8,24.4,23.2,40.3,31.2c16,8,34.1,12,54.3,12h290v106.2h-302.8
							c-28.8,0-56.6-6.3-83.5-18.8c-26.9-12.5-50.6-29.6-71.1-51.1c-20.5-21.6-36.9-47.1-49.1-76.7c-12.3-29.6-18.4-61.1-18.4-94.7
							V893.9z M2420.1,1031.3V909.9c0-13.8,2.3-28.1,6.8-42.7c4.5-14.6,11.3-27.8,20.4-39.5c9-11.7,20.5-21.3,34.4-28.8
							c13.8-7.5,30.1-11.2,48.7-11.2H2810v106.2h-277.2c-3.2,0-6.5,1.9-10,5.6c-3.5,3.7-5.2,8.8-5.2,15.2v11.2h231.7v105.5
							L2420.1,1031.3L2420.1,1031.3z M2420.1,1057.7h329.1v106.2h-231.7v10.4c0,6.4,1.7,11.5,5.2,15.2c3.5,3.7,6.8,5.6,10,5.6h277.2
							v106.3h-279.6c-18.6,0-34.9-3.7-48.7-11.2c-13.9-7.5-25.3-17-34.4-28.8c-9.1-11.7-15.9-24.9-20.4-39.5
							c-4.5-14.6-6.8-28.9-6.8-42.7L2420.1,1057.7L2420.1,1057.7z"/>
					</g>
					<g>
						
							<linearGradient id="SVGID_00000147902876815074929220000010604095709652927643_" gradientUnits="userSpaceOnUse" x1="3126.6313" y1="4745.3228" x2="3126.6313" y2="3961.6023" gradientTransform="matrix(1 0 0 -1 0 5398.0396)">
							<stop  offset="0" style="stop-color:#23BFD4"/>
							<stop  offset="0.7031" style="stop-color:#3F4DA0"/>
						</linearGradient>
						<path style="fill:url(#SVGID_00000147902876815074929220000010604095709652927643_);" d="M3389.1,1436.4h-302.8
							c-28.8,0-56.6-6.3-83.5-18.8c-26.9-12.5-50.6-29.6-71.1-51.1c-20.5-21.6-36.9-47.1-49.1-76.7c-12.3-29.6-18.4-61.1-18.4-94.7
							V652.7h106.3v542.4c0,16,2.9,32.1,8.8,48.3c5.9,16.3,14.2,30.8,25.2,43.5c10.9,12.8,24.4,23.2,40.3,31.2c16,8,34.1,12,54.3,12
							h290V1436.4z M3123.9,1195.1h265.2v106.3h-279.6c-18.6,0-34.9-3.7-48.7-11.2c-13.9-7.5-25.3-17-34.4-28.8
							c-9.1-11.7-15.9-24.9-20.4-39.5c-4.5-14.6-6.8-28.9-6.8-42.7V652.7h109.4v521.7c0,6.4,1.7,11.3,5.2,14.8
							c3.5,3.5,6.8,5.2,10,5.2v0.7H3123.9z"/>
					</g>
					
						<linearGradient id="SVGID_00000116195971633146112510000004225071360264470443_" gradientUnits="userSpaceOnUse" x1="3608.094" y1="3961.6023" x2="3608.094" y2="4745.4229" gradientTransform="matrix(1 0 0 -1 0 5398.0396)">
						<stop  offset="0" style="stop-color:#1C639E"/>
						<stop  offset="1" style="stop-color:#26B3CF"/>
					</linearGradient>
					<path style="fill:url(#SVGID_00000116195971633146112510000004225071360264470443_);" d="M3784.7,1436.4h-106.3V893.9
						c0-16-2.9-32.1-8.8-48.3c-5.9-16.2-14.2-30.8-25.2-43.5c-10.9-12.8-24.4-23.2-40.3-31.2c-16-8-34.1-12-54.3-12h-118.3V652.6
						h131.1c28.8,0,56.6,6.3,83.5,18.8c26.9,12.5,50.6,29.6,71.1,51.1c20.5,21.6,36.9,47.1,49.1,76.7c12.3,29.6,18.4,61.1,18.4,94.7
						V1436.4z M3552.3,1174.3V914.7c0-6.4-1.7-11.4-5.2-15.2c-3.5-3.7-6.8-5.6-10-5.6h-105.5V787.7h107.9c18.6,0,34.9,3.7,48.7,11.2
						c13.9,7.5,25.3,17.1,34.4,28.8c9.1,11.7,15.9,24.9,20.4,39.5c4.5,14.7,6.8,28.9,6.8,42.7v235.6 M3649.7,1097.4v339h-97.5V1164"
						/>
				</g>
				<g>
					<g>
						<g class="st8">
							
								<linearGradient id="SVGID_00000127766534480819571620000008687029484146392207_" gradientUnits="userSpaceOnUse" x1="601.9156" y1="4745.5229" x2="601.9156" y2="3961.6023" gradientTransform="matrix(1 0 0 -1 0 5398.0396)">
								<stop  offset="0" style="stop-color:#0094BF"/>
								<stop  offset="2.865892e-02" style="stop-color:#0090BD;stop-opacity:0.5"/>
								<stop  offset="1" style="stop-color:#282A71"/>
							</linearGradient>
							<path style="display:inline;fill:url(#SVGID_00000127766534480819571620000008687029484146392207_);" d="M601.8,1085.6
								l-114.2-306c-2.1-5.3-6.7-10.1-13.6-14.4c-6.9-4.3-14.7-6.4-23.2-6.4c-7.5,0-15.2,2.1-23.2,6.4c-8,4.3-12.8,9.1-14.4,14.4
								l-230.1,656.7H76.9l246.9-696.6c4.3-11.2,9.8-22,16.8-32.4c6.9-10.4,15.6-19.7,26-28c10.4-8.3,22.5-14.8,36.3-19.6
								s29.8-7.2,47.9-7.2c18.1,0,33.8,2.4,47.1,7.2s25,11.3,35.2,19.6c10.1,8.3,18.8,17.6,26,28c7.2,10.4,13.4,21.2,18.8,32.4
								l24,47.9l24-47.9c5.9-11.2,12.4-22,19.6-32.4c7.2-10.4,15.7-19.7,25.6-28c9.8-8.3,21.4-14.8,34.8-19.6
								c13.3-4.8,29-7.2,47.1-7.2c17.6,0,33.4,2.4,47.5,7.2s26.4,11.3,36.7,19.6c10.4,8.3,19.2,17.6,26.4,28
								c7.2,10.4,12.6,21.2,16.4,32.4l246.9,696.6h-106.3L790.3,779.7c-1.6-5.3-6.4-10.1-14.4-14.4c-8-4.3-15.7-6.4-23.2-6.4
								c-8.5,0-16.3,2.1-23.2,6.4c-6.9,4.3-11.5,9.1-13.6,14.4L601.8,1085.6z M601.8,1436.4l-151-402.6l-132.6,402.6H211.9
								l218.9-636.7c1.1-3.2,3.7-6,8-8.4s8.3-3.6,12-3.6s7.6,1.2,11.6,3.6c4,2.4,6.5,5.2,7.6,8.4l131.8,363.5l131.8-363.5
								c1.1-3.2,3.6-6,7.6-8.4c4-2.4,7.9-3.6,11.6-3.6s7.7,1.2,12,3.6c4.3,2.4,6.9,5.2,8,8.4l218.9,636.7H889.4l-136.6-402.6
								L601.8,1436.4z"/>
							
								<linearGradient id="SVGID_00000148632131334649459240000005084452599265337524_" gradientUnits="userSpaceOnUse" x1="1377.5861" y1="4745.3228" x2="1377.5861" y2="3961.7007" gradientTransform="matrix(1 0 0 -1 0 5398.0396)">
								<stop  offset="0" style="stop-color:#0094BF"/>
								<stop  offset="2.865892e-02" style="stop-color:#0090BD;stop-opacity:0.5"/>
								<stop  offset="1" style="stop-color:#282A71"/>
							</linearGradient>
							<path style="display:inline;fill:url(#SVGID_00000148632131334649459240000005084452599265337524_);" d="M1227.3,1422.8
								c-27.7-9-50.7-23.3-69.1-42.7c-18.4-19.4-32-44.5-40.7-75.1c-8.8-30.6-13.2-67.2-13.2-109.8V893.9
								c0-44.2,4.4-81.6,13.2-112.2c8.8-30.6,22.4-55.5,40.7-74.7c18.4-19.2,41.4-33,69.1-41.5c27.7-8.5,60.7-12.8,99.1-12.8h102.3
								c38.9,0,72.3,4.3,100.3,12.8c28,8.5,51,22.4,69.1,41.5c18.1,19.2,31.4,44.1,39.9,74.7c8.5,30.6,12.8,68,12.8,112.2v301.2
								c0,42.6-4.3,79.2-12.8,109.8c-8.5,30.6-21.8,55.7-39.9,75.1s-41.1,33.7-69.1,42.7c-28,9.1-61.4,13.6-100.3,13.6h-102.3
								C1288,1436.4,1255,1431.8,1227.3,1422.8z M1439.8,1330.1c20.2,0,37.3-2.8,51.1-8.4c13.8-5.6,25.2-13.4,34-23.6
								c8.8-10.1,15.2-22.1,19.2-35.9s6-28.8,6-44.7v-346c0-16-2-30.9-6-44.7s-10.4-25.8-19.2-35.9c-8.8-10.1-20.2-18-34.4-23.6
								c-14.1-5.6-31.3-8.4-51.5-8.4h-123c-20.2,0-37.4,2.8-51.5,8.4c-14.1,5.6-25.6,13.5-34.4,23.6s-15.2,22.1-19.2,35.9
								c-4,13.9-6,28.8-6,44.7v345.9c0,16,2,30.9,6,44.7c4,13.9,10.4,25.8,19.2,35.9c8.8,10.1,20.1,18,34,23.6
								c13.8,5.6,30.9,8.4,51.1,8.4h62.3L1439.8,1330.1L1439.8,1330.1z M1325.6,1301.3c-18.6,0-34-1.7-45.9-5.2
								c-12-3.5-21.3-9.2-28-17.2c-6.7-8-11.3-18.2-14-30.8c-2.7-12.5-4-28.1-4-46.7v-314c0-13.8,1.3-26.9,4-39.1
								c2.7-12.2,7.5-22.9,14.4-32c6.9-9,16.4-16.1,28.4-21.2c12-5.1,27.3-7.6,45.9-7.6h51.1h51.1c18.6,0,34,2.5,45.9,7.6
								c12,5.1,21.4,12.1,28.4,21.2c6.9,9.1,11.7,19.7,14.4,32c2.7,12.3,4,25.3,4,39.1v314c0,18.6-1.3,34.2-4,46.7
								c-2.7,12.5-7.3,22.8-14,30.8c-6.7,8-16,13.7-28,17.2c-12,3.5-27.3,5.2-45.9,5.2H1325.6z M1403.1,1195.1
								c6.4,0,10.5-1.9,12.4-5.6c1.9-3.7,2.8-8.8,2.8-15.2V914.7c0-6.4-0.9-11.4-2.8-15.2c-1.9-3.7-6-5.6-12.4-5.6H1352
								c-6.4,0-10.5,1.9-12.4,5.6c-1.9,3.7-2.8,8.8-2.8,15.2v259.6c0,6.4,0.9,11.5,2.8,15.2c1.9,3.7,6,5.6,12.4,5.6H1403.1z"/>
							
								<linearGradient id="SVGID_00000001630840124942834110000001415769785474015877_" gradientUnits="userSpaceOnUse" x1="1969.9513" y1="4745.3228" x2="1969.9513" y2="3961.7024" gradientTransform="matrix(1 0 0 -1 0 5398.0396)">
								<stop  offset="0" style="stop-color:#0094BF"/>
								<stop  offset="2.865892e-02" style="stop-color:#0090BD;stop-opacity:0.5"/>
								<stop  offset="1" style="stop-color:#282A71"/>
							</linearGradient>
							<path style="display:inline;fill:url(#SVGID_00000001630840124942834110000001415769785474015877_);" d="M2075,1321.7
								c13.8-5.6,25.2-13.4,34-23.6c8.8-10.1,15.2-22.1,19.2-35.9c4-13.8,6-28.8,6-44.7v-346c0-16-2-30.9-6-44.7
								c-4-13.8-10.4-25.8-19.2-35.9c-8.8-10.1-20.2-18-34.3-23.6c-14.1-5.6-31.3-8.4-51.5-8.4h-318V652.7h307.6
								c38.9,0,72.3,4.3,100.3,12.8c28,8.5,51,22.4,69.1,41.5c18.1,19.2,31.4,44.1,39.9,74.7c8.5,30.6,12.8,68,12.8,112.2v301.2
								c0,42.6-4.3,79.2-12.8,109.8c-8.5,30.6-21.8,55.7-39.9,75.1c-18.1,19.4-41.1,33.7-69.1,42.7c-28,9.1-61.4,13.6-100.3,13.6
								H1705V919.5h100.7v410.6h218.1C2044.1,1330.1,2061.1,1327.3,2075,1321.7z M1705,893.9V787.7h307.6c18.6,0,34,2.5,45.9,7.6
								c12,5.1,21.4,12.1,28.4,21.2c6.9,9.1,11.7,19.7,14.4,32c2.7,12.3,4,25.3,4,39.1v314c0,18.6-1.3,34.2-4,46.7
								c-2.7,12.5-7.3,22.8-14,30.8c-6.7,8-16,13.7-28,17.2c-12,3.5-27.3,5.2-45.9,5.2h-178.9v-382h111.8v254.8
								c0,13.9,6.7,20.8,20,20.8h17.6c6.4,0,11.6-1.9,15.6-5.6s6-8.8,6-15.2V914.7c0-6.4-2-11.4-6-15.2c-4-3.7-9.2-5.6-15.6-5.6
								H1705z"/>
							
								<linearGradient id="SVGID_00000023281089275333346260000014540989124320006296_" gradientUnits="userSpaceOnUse" x1="2547.5166" y1="4745.4229" x2="2547.5166" y2="3961.7024" gradientTransform="matrix(1 0 0 -1 0 5398.0396)">
								<stop  offset="0" style="stop-color:#0094BF"/>
								<stop  offset="2.865892e-02" style="stop-color:#0090BD;stop-opacity:0.5"/>
								<stop  offset="1" style="stop-color:#282A71"/>
							</linearGradient>
							<path style="display:inline;fill:url(#SVGID_00000023281089275333346260000014540989124320006296_);" d="M2285.1,893.9
								c0-33.6,6.1-65.1,18.4-94.7c12.2-29.6,28.6-55.1,49.1-76.7s44.2-38.6,71.1-51.1c26.9-12.5,54.7-18.8,83.5-18.8H2810v106.3
								h-290c-20.2,0-38.3,4-54.3,12c-16,8-29.4,18.4-40.3,31.2c-10.9,12.8-19.3,27.3-25.2,43.5c-5.9,16.3-8.8,32.4-8.8,48.3v301.2
								c0,16,2.9,32.1,8.8,48.3c5.9,16.3,14.2,30.8,25.2,43.5c10.9,12.8,24.4,23.2,40.3,31.2c16,8,34.1,12,54.3,12h290v106.2h-302.8
								c-28.8,0-56.6-6.3-83.5-18.8c-26.9-12.5-50.6-29.6-71.1-51.1c-20.5-21.6-36.9-47.1-49.1-76.7c-12.3-29.6-18.4-61.1-18.4-94.7
								V893.9z M2420.1,1031.3V909.9c0-13.8,2.3-28.1,6.8-42.7c4.5-14.6,11.3-27.8,20.4-39.5c9-11.7,20.5-21.3,34.4-28.8
								c13.8-7.5,30.1-11.2,48.7-11.2H2810v106.2h-277.2c-3.2,0-6.5,1.9-10,5.6c-3.5,3.7-5.2,8.8-5.2,15.2v11.2h231.7v105.5
								L2420.1,1031.3L2420.1,1031.3z M2420.1,1057.7h329.1v106.2h-231.7v10.4c0,6.4,1.7,11.5,5.2,15.2c3.5,3.7,6.8,5.6,10,5.6
								h277.2v106.3h-279.6c-18.6,0-34.9-3.7-48.7-11.2c-13.9-7.5-25.3-17-34.4-28.8c-9.1-11.7-15.9-24.9-20.4-39.5
								c-4.5-14.6-6.8-28.9-6.8-42.7L2420.1,1057.7L2420.1,1057.7z"/>
							
								<linearGradient id="SVGID_00000048488928635260991390000002205984139717671073_" gradientUnits="userSpaceOnUse" x1="3126.6313" y1="4745.3228" x2="3126.6313" y2="3961.6023" gradientTransform="matrix(1 0 0 -1 0 5398.0396)">
								<stop  offset="0" style="stop-color:#0094BF"/>
								<stop  offset="2.865892e-02" style="stop-color:#0090BD;stop-opacity:0.5"/>
								<stop  offset="1" style="stop-color:#282A71"/>
							</linearGradient>
							<path style="display:inline;fill:url(#SVGID_00000048488928635260991390000002205984139717671073_);" d="M3389.1,1436.4
								h-302.8c-28.8,0-56.6-6.3-83.5-18.8c-26.9-12.5-50.6-29.6-71.1-51.1c-20.5-21.6-36.9-47.1-49.1-76.7
								c-12.3-29.6-18.4-61.1-18.4-94.7V652.7h106.3v542.4c0,16,2.9,32.1,8.8,48.3c5.9,16.3,14.2,30.8,25.2,43.5
								c10.9,12.8,24.4,23.2,40.3,31.2c16,8,34.1,12,54.3,12h290V1436.4z M3123.9,1195.1h265.2v106.3h-279.6
								c-18.6,0-34.9-3.7-48.7-11.2c-13.9-7.5-25.3-17-34.4-28.8c-9.1-11.7-15.9-24.9-20.4-39.5c-4.5-14.6-6.8-28.9-6.8-42.7V652.7
								h109.4v521.7c0,6.4,1.7,11.3,5.2,14.8c3.5,3.5,6.8,5.2,10,5.2v0.7H3123.9z"/>
						</g>
						<g>
							
								<linearGradient id="SVGID_00000048489226655760810560000018254179417170646452_" gradientUnits="userSpaceOnUse" x1="601.9156" y1="4745.5229" x2="601.9156" y2="3961.6023" gradientTransform="matrix(1 0 0 -1 0 5398.0396)">
								<stop  offset="0" style="stop-color:#0094BF"/>
								<stop  offset="2.865892e-02" style="stop-color:#0090BD;stop-opacity:0.5"/>
								<stop  offset="1" style="stop-color:#282A71"/>
							</linearGradient>
							<path style="fill:url(#SVGID_00000048489226655760810560000018254179417170646452_);" d="M601.8,1085.6l-114.2-306
								c-2.1-5.3-6.7-10.1-13.6-14.4c-6.9-4.3-14.7-6.4-23.2-6.4c-7.5,0-15.2,2.1-23.2,6.4c-8,4.3-12.8,9.1-14.4,14.4l-230.1,656.7
								H76.9l246.9-696.6c4.3-11.2,9.8-22,16.8-32.4c6.9-10.4,15.6-19.7,26-28c10.4-8.3,22.5-14.8,36.3-19.6s29.8-7.2,47.9-7.2
								c18.1,0,33.8,2.4,47.1,7.2s25,11.3,35.2,19.6c10.1,8.3,18.8,17.6,26,28c7.2,10.4,13.4,21.2,18.8,32.4l24,47.9l24-47.9
								c5.9-11.2,12.4-22,19.6-32.4c7.2-10.4,15.7-19.7,25.6-28c9.8-8.3,21.4-14.8,34.8-19.6c13.3-4.8,29-7.2,47.1-7.2
								c17.6,0,33.4,2.4,47.5,7.2s26.4,11.3,36.7,19.6c10.4,8.3,19.2,17.6,26.4,28c7.2,10.4,12.6,21.2,16.4,32.4l246.9,696.6h-106.3
								L790.3,779.7c-1.6-5.3-6.4-10.1-14.4-14.4c-8-4.3-15.7-6.4-23.2-6.4c-8.5,0-16.3,2.1-23.2,6.4c-6.9,4.3-11.5,9.1-13.6,14.4
								L601.8,1085.6z M601.8,1436.4l-151-402.6l-132.6,402.6H211.9l218.9-636.7c1.1-3.2,3.7-6,8-8.4s8.3-3.6,12-3.6
								s7.6,1.2,11.6,3.6c4,2.4,6.5,5.2,7.6,8.4l131.8,363.5l131.8-363.5c1.1-3.2,3.6-6,7.6-8.4c4-2.4,7.9-3.6,11.6-3.6
								s7.7,1.2,12,3.6c4.3,2.4,6.9,5.2,8,8.4l218.9,636.7H889.4l-136.6-402.6L601.8,1436.4z"/>
							
								<linearGradient id="SVGID_00000133491879430841438740000005013155320133673114_" gradientUnits="userSpaceOnUse" x1="1377.5861" y1="4745.3228" x2="1377.5861" y2="3961.7007" gradientTransform="matrix(1 0 0 -1 0 5398.0396)">
								<stop  offset="0" style="stop-color:#0094BF"/>
								<stop  offset="2.865892e-02" style="stop-color:#0090BD;stop-opacity:0.5"/>
								<stop  offset="1" style="stop-color:#282A71"/>
							</linearGradient>
							<path style="fill:url(#SVGID_00000133491879430841438740000005013155320133673114_);" d="M1227.3,1422.8
								c-27.7-9-50.7-23.3-69.1-42.7c-18.4-19.4-32-44.5-40.7-75.1c-8.8-30.6-13.2-67.2-13.2-109.8V893.9
								c0-44.2,4.4-81.6,13.2-112.2c8.8-30.6,22.4-55.5,40.7-74.7c18.4-19.2,41.4-33,69.1-41.5c27.7-8.5,60.7-12.8,99.1-12.8h102.3
								c38.9,0,72.3,4.3,100.3,12.8c28,8.5,51,22.4,69.1,41.5c18.1,19.2,31.4,44.1,39.9,74.7c8.5,30.6,12.8,68,12.8,112.2v301.2
								c0,42.6-4.3,79.2-12.8,109.8c-8.5,30.6-21.8,55.7-39.9,75.1s-41.1,33.7-69.1,42.7c-28,9.1-61.4,13.6-100.3,13.6h-102.3
								C1288,1436.4,1255,1431.8,1227.3,1422.8z M1439.8,1330.1c20.2,0,37.3-2.8,51.1-8.4c13.8-5.6,25.2-13.4,34-23.6
								c8.8-10.1,15.2-22.1,19.2-35.9s6-28.8,6-44.7v-346c0-16-2-30.9-6-44.7s-10.4-25.8-19.2-35.9c-8.8-10.1-20.2-18-34.4-23.6
								c-14.1-5.6-31.3-8.4-51.5-8.4h-123c-20.2,0-37.4,2.8-51.5,8.4c-14.1,5.6-25.6,13.5-34.4,23.6s-15.2,22.1-19.2,35.9
								c-4,13.9-6,28.8-6,44.7v345.9c0,16,2,30.9,6,44.7c4,13.9,10.4,25.8,19.2,35.9c8.8,10.1,20.1,18,34,23.6
								c13.8,5.6,30.9,8.4,51.1,8.4h62.3L1439.8,1330.1L1439.8,1330.1z M1325.6,1301.3c-18.6,0-34-1.7-45.9-5.2
								c-12-3.5-21.3-9.2-28-17.2c-6.7-8-11.3-18.2-14-30.8c-2.7-12.5-4-28.1-4-46.7v-314c0-13.8,1.3-26.9,4-39.1
								c2.7-12.2,7.5-22.9,14.4-32c6.9-9,16.4-16.1,28.4-21.2c12-5.1,27.3-7.6,45.9-7.6h51.1h51.1c18.6,0,34,2.5,45.9,7.6
								c12,5.1,21.4,12.1,28.4,21.2c6.9,9.1,11.7,19.7,14.4,32c2.7,12.3,4,25.3,4,39.1v314c0,18.6-1.3,34.2-4,46.7
								c-2.7,12.5-7.3,22.8-14,30.8c-6.7,8-16,13.7-28,17.2c-12,3.5-27.3,5.2-45.9,5.2H1325.6z M1403.1,1195.1
								c6.4,0,10.5-1.9,12.4-5.6c1.9-3.7,2.8-8.8,2.8-15.2V914.7c0-6.4-0.9-11.4-2.8-15.2c-1.9-3.7-6-5.6-12.4-5.6H1352
								c-6.4,0-10.5,1.9-12.4,5.6c-1.9,3.7-2.8,8.8-2.8,15.2v259.6c0,6.4,0.9,11.5,2.8,15.2c1.9,3.7,6,5.6,12.4,5.6H1403.1z"/>
							
								<linearGradient id="SVGID_00000013880630894979223920000013023551696666036875_" gradientUnits="userSpaceOnUse" x1="1969.9513" y1="4745.3228" x2="1969.9513" y2="3961.7024" gradientTransform="matrix(1 0 0 -1 0 5398.0396)">
								<stop  offset="0" style="stop-color:#0094BF"/>
								<stop  offset="2.865892e-02" style="stop-color:#0090BD;stop-opacity:0.5"/>
								<stop  offset="1" style="stop-color:#282A71"/>
							</linearGradient>
							<path style="fill:url(#SVGID_00000013880630894979223920000013023551696666036875_);" d="M2075,1321.7
								c13.8-5.6,25.2-13.4,34-23.6c8.8-10.1,15.2-22.1,19.2-35.9c4-13.8,6-28.8,6-44.7v-346c0-16-2-30.9-6-44.7
								c-4-13.8-10.4-25.8-19.2-35.9c-8.8-10.1-20.2-18-34.3-23.6c-14.1-5.6-31.3-8.4-51.5-8.4h-318V652.7h307.6
								c38.9,0,72.3,4.3,100.3,12.8c28,8.5,51,22.4,69.1,41.5c18.1,19.2,31.4,44.1,39.9,74.7c8.5,30.6,12.8,68,12.8,112.2v301.2
								c0,42.6-4.3,79.2-12.8,109.8c-8.5,30.6-21.8,55.7-39.9,75.1c-18.1,19.4-41.1,33.7-69.1,42.7c-28,9.1-61.4,13.6-100.3,13.6
								H1705V919.5h100.7v410.6h218.1C2044.1,1330.1,2061.1,1327.3,2075,1321.7z M1705,893.9V787.7h307.6c18.6,0,34,2.5,45.9,7.6
								c12,5.1,21.4,12.1,28.4,21.2c6.9,9.1,11.7,19.7,14.4,32c2.7,12.3,4,25.3,4,39.1v314c0,18.6-1.3,34.2-4,46.7
								c-2.7,12.5-7.3,22.8-14,30.8c-6.7,8-16,13.7-28,17.2c-12,3.5-27.3,5.2-45.9,5.2h-178.9v-382h111.8v254.8
								c0,13.9,6.7,20.8,20,20.8h17.6c6.4,0,11.6-1.9,15.6-5.6s6-8.8,6-15.2V914.7c0-6.4-2-11.4-6-15.2c-4-3.7-9.2-5.6-15.6-5.6
								H1705z"/>
							
								<linearGradient id="SVGID_00000067228871026469981840000016001981369203348881_" gradientUnits="userSpaceOnUse" x1="2547.5166" y1="4745.4229" x2="2547.5166" y2="3961.7024" gradientTransform="matrix(1 0 0 -1 0 5398.0396)">
								<stop  offset="0" style="stop-color:#0094BF"/>
								<stop  offset="2.865892e-02" style="stop-color:#0090BD;stop-opacity:0.5"/>
								<stop  offset="1" style="stop-color:#282A71"/>
							</linearGradient>
							<path style="fill:url(#SVGID_00000067228871026469981840000016001981369203348881_);" d="M2285.1,893.9
								c0-33.6,6.1-65.1,18.4-94.7c12.2-29.6,28.6-55.1,49.1-76.7s44.2-38.6,71.1-51.1c26.9-12.5,54.7-18.8,83.5-18.8H2810v106.3
								h-290c-20.2,0-38.3,4-54.3,12c-16,8-29.4,18.4-40.3,31.2c-10.9,12.8-19.3,27.3-25.2,43.5c-5.9,16.3-8.8,32.4-8.8,48.3v301.2
								c0,16,2.9,32.1,8.8,48.3c5.9,16.3,14.2,30.8,25.2,43.5c10.9,12.8,24.4,23.2,40.3,31.2c16,8,34.1,12,54.3,12h290v106.2h-302.8
								c-28.8,0-56.6-6.3-83.5-18.8c-26.9-12.5-50.6-29.6-71.1-51.1c-20.5-21.6-36.9-47.1-49.1-76.7c-12.3-29.6-18.4-61.1-18.4-94.7
								V893.9z M2420.1,1031.3V909.9c0-13.8,2.3-28.1,6.8-42.7c4.5-14.6,11.3-27.8,20.4-39.5c9-11.7,20.5-21.3,34.4-28.8
								c13.8-7.5,30.1-11.2,48.7-11.2H2810v106.2h-277.2c-3.2,0-6.5,1.9-10,5.6c-3.5,3.7-5.2,8.8-5.2,15.2v11.2h231.7v105.5
								L2420.1,1031.3L2420.1,1031.3z M2420.1,1057.7h329.1v106.2h-231.7v10.4c0,6.4,1.7,11.5,5.2,15.2c3.5,3.7,6.8,5.6,10,5.6
								h277.2v106.3h-279.6c-18.6,0-34.9-3.7-48.7-11.2c-13.9-7.5-25.3-17-34.4-28.8c-9.1-11.7-15.9-24.9-20.4-39.5
								c-4.5-14.6-6.8-28.9-6.8-42.7L2420.1,1057.7L2420.1,1057.7z"/>
							
								<linearGradient id="SVGID_00000023256513827028147510000002484224133287428237_" gradientUnits="userSpaceOnUse" x1="3126.6313" y1="4745.3228" x2="3126.6313" y2="3961.6023" gradientTransform="matrix(1 0 0 -1 0 5398.0396)">
								<stop  offset="0" style="stop-color:#0094BF"/>
								<stop  offset="2.865892e-02" style="stop-color:#0090BD;stop-opacity:0.5"/>
								<stop  offset="1" style="stop-color:#282A71"/>
							</linearGradient>
							<path style="fill:url(#SVGID_00000023256513827028147510000002484224133287428237_);" d="M3389.1,1436.4h-302.8
								c-28.8,0-56.6-6.3-83.5-18.8c-26.9-12.5-50.6-29.6-71.1-51.1c-20.5-21.6-36.9-47.1-49.1-76.7c-12.3-29.6-18.4-61.1-18.4-94.7
								V652.7h106.3v542.4c0,16,2.9,32.1,8.8,48.3c5.9,16.3,14.2,30.8,25.2,43.5c10.9,12.8,24.4,23.2,40.3,31.2
								c16,8,34.1,12,54.3,12h290V1436.4z M3123.9,1195.1h265.2v106.3h-279.6c-18.6,0-34.9-3.7-48.7-11.2
								c-13.9-7.5-25.3-17-34.4-28.8c-9.1-11.7-15.9-24.9-20.4-39.5c-4.5-14.6-6.8-28.9-6.8-42.7V652.7h109.4v521.7
								c0,6.4,1.7,11.3,5.2,14.8c3.5,3.5,6.8,5.2,10,5.2v0.7H3123.9z"/>
							
								<linearGradient id="SVGID_00000005240051720131445700000000337349626881069975_" gradientUnits="userSpaceOnUse" x1="3608.094" y1="4745.4229" x2="3608.094" y2="3961.6023" gradientTransform="matrix(1 0 0 -1 0 5398.0396)">
								<stop  offset="0" style="stop-color:#0094BF"/>
								<stop  offset="2.865892e-02" style="stop-color:#0090BD;stop-opacity:0.5"/>
								<stop  offset="1" style="stop-color:#282A71"/>
							</linearGradient>
							<path style="fill:url(#SVGID_00000005240051720131445700000000337349626881069975_);" d="M3784.7,1436.4h-106.3V893.9
								c0-16-2.9-32.1-8.8-48.3c-5.9-16.2-14.2-30.8-25.2-43.5c-10.9-12.8-24.4-23.2-40.3-31.2c-16-8-34.1-12-54.3-12h-118.3V652.6
								h131.1c28.8,0,56.6,6.3,83.5,18.8c26.9,12.5,50.6,29.6,71.1,51.1c20.5,21.6,36.9,47.1,49.1,76.7
								c12.3,29.6,18.4,61.1,18.4,94.7V1436.4z M3552.3,1174.3V914.7c0-6.4-1.7-11.4-5.2-15.2c-3.5-3.7-6.8-5.6-10-5.6h-105.5V787.7
								h107.9c18.6,0,34.9,3.7,48.7,11.2c13.9,7.5,25.3,17.1,34.4,28.8c9.1,11.7,15.9,24.9,20.4,39.5c4.5,14.7,6.8,28.9,6.8,42.7
								v235.6 M3649.7,1097.4v339h-97.5V1164"/>
						</g>
					</g>
				</g>
				<g>
					<g>
						<path class="st1" d="M601.8,1085.6l-114.2-306c-2.1-5.3-6.7-10.1-13.6-14.4c-6.9-4.3-14.7-6.4-23.2-6.4
							c-7.5,0-15.2,2.1-23.2,6.4c-8,4.3-12.8,9.1-14.4,14.4l-230.1,656.7H76.9l246.9-696.6c4.3-11.2,9.8-22,16.8-32.4
							c6.9-10.4,15.6-19.7,26-28c10.4-8.3,22.5-14.8,36.3-19.6s29.8-7.2,47.9-7.2c18.1,0,33.8,2.4,47.1,7.2s25,11.3,35.2,19.6
							c10.1,8.3,18.8,17.6,26,28c7.2,10.4,13.4,21.2,18.8,32.4l24,47.9l24-47.9c5.9-11.2,12.4-22,19.6-32.4
							c7.2-10.4,15.7-19.7,25.6-28c9.8-8.3,21.4-14.8,34.8-19.6c13.3-4.8,29-7.2,47.1-7.2c17.6,0,33.4,2.4,47.5,7.2
							s26.4,11.3,36.7,19.6c10.4,8.3,19.2,17.6,26.4,28c7.2,10.4,12.6,21.2,16.4,32.4l246.9,696.6h-106.3L790.3,779.7
							c-1.6-5.3-6.4-10.1-14.4-14.4c-8-4.3-15.7-6.4-23.2-6.4c-8.5,0-16.3,2.1-23.2,6.4c-6.9,4.3-11.5,9.1-13.6,14.4L601.8,1085.6z
							 M601.8,1436.4l-151-402.6l-132.6,402.6H211.9l218.9-636.7c1.1-3.2,3.7-6,8-8.4s8.3-3.6,12-3.6s7.6,1.2,11.6,3.6
							c4,2.4,6.5,5.2,7.6,8.4l131.8,363.5l131.8-363.5c1.1-3.2,3.6-6,7.6-8.4c4-2.4,7.9-3.6,11.6-3.6s7.7,1.2,12,3.6
							c4.3,2.4,6.9,5.2,8,8.4l218.9,636.7H889.4l-136.6-402.6L601.8,1436.4z"/>
						<path class="st1" d="M1227.3,1422.8c-27.7-9-50.7-23.3-69.1-42.7c-18.4-19.4-32-44.5-40.7-75.1
							c-8.8-30.6-13.2-67.2-13.2-109.8V893.9c0-44.2,4.4-81.6,13.2-112.2c8.8-30.6,22.4-55.5,40.7-74.7c18.4-19.2,41.4-33,69.1-41.5
							c27.7-8.5,60.7-12.8,99.1-12.8h102.3c38.9,0,72.3,4.3,100.3,12.8c28,8.5,51,22.4,69.1,41.5c18.1,19.2,31.4,44.1,39.9,74.7
							c8.5,30.6,12.8,68,12.8,112.2v301.2c0,42.6-4.3,79.2-12.8,109.8c-8.5,30.6-21.8,55.7-39.9,75.1s-41.1,33.7-69.1,42.7
							c-28,9.1-61.4,13.6-100.3,13.6h-102.3C1288,1436.4,1255,1431.8,1227.3,1422.8z M1439.8,1330.1c20.2,0,37.3-2.8,51.1-8.4
							c13.8-5.6,25.2-13.4,34-23.6c8.8-10.1,15.2-22.1,19.2-35.9s6-28.8,6-44.7v-346c0-16-2-30.9-6-44.7s-10.4-25.8-19.2-35.9
							c-8.8-10.1-20.2-18-34.4-23.6c-14.1-5.6-31.3-8.4-51.5-8.4h-123c-20.2,0-37.4,2.8-51.5,8.4c-14.1,5.6-25.6,13.5-34.4,23.6
							s-15.2,22.1-19.2,35.9c-4,13.9-6,28.8-6,44.7v345.9c0,16,2,30.9,6,44.7c4,13.9,10.4,25.8,19.2,35.9c8.8,10.1,20.1,18,34,23.6
							c13.8,5.6,30.9,8.4,51.1,8.4h62.3L1439.8,1330.1L1439.8,1330.1z M1325.6,1301.3c-18.6,0-34-1.7-45.9-5.2
							c-12-3.5-21.3-9.2-28-17.2c-6.7-8-11.3-18.2-14-30.8c-2.7-12.5-4-28.1-4-46.7v-314c0-13.8,1.3-26.9,4-39.1
							c2.7-12.2,7.5-22.9,14.4-32c6.9-9,16.4-16.1,28.4-21.2c12-5.1,27.3-7.6,45.9-7.6h51.1h51.1c18.6,0,34,2.5,45.9,7.6
							c12,5.1,21.4,12.1,28.4,21.2c6.9,9.1,11.7,19.7,14.4,32c2.7,12.3,4,25.3,4,39.1v314c0,18.6-1.3,34.2-4,46.7
							c-2.7,12.5-7.3,22.8-14,30.8c-6.7,8-16,13.7-28,17.2c-12,3.5-27.3,5.2-45.9,5.2H1325.6z M1403.1,1195.1
							c6.4,0,10.5-1.9,12.4-5.6c1.9-3.7,2.8-8.8,2.8-15.2V914.7c0-6.4-0.9-11.4-2.8-15.2c-1.9-3.7-6-5.6-12.4-5.6H1352
							c-6.4,0-10.5,1.9-12.4,5.6c-1.9,3.7-2.8,8.8-2.8,15.2v259.6c0,6.4,0.9,11.5,2.8,15.2c1.9,3.7,6,5.6,12.4,5.6H1403.1z"/>
						<path class="st1" d="M2075,1321.7c13.8-5.6,25.2-13.4,34-23.6c8.8-10.1,15.2-22.1,19.2-35.9c4-13.8,6-28.8,6-44.7v-346
							c0-16-2-30.9-6-44.7c-4-13.8-10.4-25.8-19.2-35.9c-8.8-10.1-20.2-18-34.3-23.6c-14.1-5.6-31.3-8.4-51.5-8.4h-318V652.7h307.6
							c38.9,0,72.3,4.3,100.3,12.8c28,8.5,51,22.4,69.1,41.5c18.1,19.2,31.4,44.1,39.9,74.7c8.5,30.6,12.8,68,12.8,112.2v301.2
							c0,42.6-4.3,79.2-12.8,109.8c-8.5,30.6-21.8,55.7-39.9,75.1c-18.1,19.4-41.1,33.7-69.1,42.7c-28,9.1-61.4,13.6-100.3,13.6
							H1705V919.5h100.7v410.6h218.1C2044.1,1330.1,2061.1,1327.3,2075,1321.7z M1705,893.9V787.7h307.6c18.6,0,34,2.5,45.9,7.6
							c12,5.1,21.4,12.1,28.4,21.2c6.9,9.1,11.7,19.7,14.4,32c2.7,12.3,4,25.3,4,39.1v314c0,18.6-1.3,34.2-4,46.7
							c-2.7,12.5-7.3,22.8-14,30.8c-6.7,8-16,13.7-28,17.2c-12,3.5-27.3,5.2-45.9,5.2h-178.9v-382h111.8v254.8
							c0,13.9,6.7,20.8,20,20.8h17.6c6.4,0,11.6-1.9,15.6-5.6s6-8.8,6-15.2V914.7c0-6.4-2-11.4-6-15.2c-4-3.7-9.2-5.6-15.6-5.6H1705
							z"/>
						<path class="st1" d="M2285.1,893.9c0-33.6,6.1-65.1,18.4-94.7c12.2-29.6,28.6-55.1,49.1-76.7s44.2-38.6,71.1-51.1
							c26.9-12.5,54.7-18.8,83.5-18.8H2810v106.3h-290c-20.2,0-38.3,4-54.3,12c-16,8-29.4,18.4-40.3,31.2
							c-10.9,12.8-19.3,27.3-25.2,43.5c-5.9,16.3-8.8,32.4-8.8,48.3v301.2c0,16,2.9,32.1,8.8,48.3c5.9,16.3,14.2,30.8,25.2,43.5
							c10.9,12.8,24.4,23.2,40.3,31.2c16,8,34.1,12,54.3,12h290v106.2h-302.8c-28.8,0-56.6-6.3-83.5-18.8
							c-26.9-12.5-50.6-29.6-71.1-51.1c-20.5-21.6-36.9-47.1-49.1-76.7c-12.3-29.6-18.4-61.1-18.4-94.7V893.9z M2420.1,1031.3V909.9
							c0-13.8,2.3-28.1,6.8-42.7c4.5-14.6,11.3-27.8,20.4-39.5c9-11.7,20.5-21.3,34.4-28.8c13.8-7.5,30.1-11.2,48.7-11.2H2810v106.2
							h-277.2c-3.2,0-6.5,1.9-10,5.6c-3.5,3.7-5.2,8.8-5.2,15.2v11.2h231.7v105.5L2420.1,1031.3L2420.1,1031.3z M2420.1,1057.7
							h329.1v106.2h-231.7v10.4c0,6.4,1.7,11.5,5.2,15.2c3.5,3.7,6.8,5.6,10,5.6h277.2v106.3h-279.6c-18.6,0-34.9-3.7-48.7-11.2
							c-13.9-7.5-25.3-17-34.4-28.8c-9.1-11.7-15.9-24.9-20.4-39.5c-4.5-14.6-6.8-28.9-6.8-42.7L2420.1,1057.7L2420.1,1057.7z"/>
						<path class="st1" d="M3389.1,1436.4h-302.8c-28.8,0-56.6-6.3-83.5-18.8c-26.9-12.5-50.6-29.6-71.1-51.1
							c-20.5-21.6-36.9-47.1-49.1-76.7c-12.3-29.6-18.4-61.1-18.4-94.7V652.7h106.3v542.4c0,16,2.9,32.1,8.8,48.3
							c5.9,16.3,14.2,30.8,25.2,43.5c10.9,12.8,24.4,23.2,40.3,31.2c16,8,34.1,12,54.3,12h290V1436.4z M3123.9,1195.1h265.2v106.3
							h-279.6c-18.6,0-34.9-3.7-48.7-11.2c-13.9-7.5-25.3-17-34.4-28.8c-9.1-11.7-15.9-24.9-20.4-39.5c-4.5-14.6-6.8-28.9-6.8-42.7
							V652.7h109.4v521.7c0,6.4,1.7,11.3,5.2,14.8c3.5,3.5,6.8,5.2,10,5.2v0.7H3123.9z"/>
						<path class="st1" d="M3784.7,1436.4h-106.3V893.9c0-16-2.9-32.1-8.8-48.3c-5.9-16.2-14.2-30.8-25.2-43.5
							c-10.9-12.8-24.4-23.2-40.3-31.2c-16-8-34.1-12-54.3-12h-118.3V652.6h131.1c28.8,0,56.6,6.3,83.5,18.8
							c26.9,12.5,50.6,29.6,71.1,51.1c20.5,21.6,36.9,47.1,49.1,76.7c12.3,29.6,18.4,61.1,18.4,94.7V1436.4z M3552.3,1174.3V914.7
							c0-6.4-1.7-11.4-5.2-15.2c-3.5-3.7-6.8-5.6-10-5.6h-105.5V787.7h107.9c18.6,0,34.9,3.7,48.7,11.2
							c13.9,7.5,25.3,17.1,34.4,28.8c9.1,11.7,15.9,24.9,20.4,39.5c4.5,14.7,6.8,28.9,6.8,42.7v235.6 M3649.7,1097.4v339h-97.5V1164
							"/>
					</g>
				</g>
			</g>
		</g>
	</g>
	<rect x="2782.7" y="939.9" class="st0" width="51.1" height="217.9"/>
</g>
</svg>
