<?xml version="1.0" encoding="utf-8"?>
<!-- Generator: Adobe Illustrator 25.4.1, SVG Export Plug-In . SVG Version: 6.00 Build 0)  -->
<svg version="1.1" id="Layer_1" xmlns="http://www.w3.org/2000/svg" xmlns:xlink="http://www.w3.org/1999/xlink" x="0px" y="0px"
	 viewBox="0 0 3839 1798.6" style="enable-background:new 0 0 3839 1798.6;" xml:space="preserve">
<style type="text/css">
	.st0{fill:#FFFFFF;}
	.st1{fill:#034693;}
</style>
<g>
	<g>
		<path class="st0" d="M3489.7,230.4C3447.4,96,3320.7,0,3174.9,0c-145.9,0-272.6,96-314.8,230.3l-111.3,330.2V19.2h-583.5
			c-103.7,0-199.6,42.2-272.6,111.3V19.2h-598.9c-111.3,0-211.1,46.1-284.1,122.8V19.2H441.5C199.6,19.2,0,218.9,0,460.7
			c0,115.2,46.1,222.7,119,299.5H0v514.4h568.2c161.2,0,299.4-84.5,380.1-215c65.3,126.7,195.8,215,349.3,215h602.7v-111.3
			c69.1,69.1,165.1,111.3,272.6,111.3H3839L3489.7,230.4z"/>
		<g>
			<g>
				<path class="st1" d="M568.2,852.3H88.3V1002h479.9c92.1,0,168.9-76.8,168.9-168.9s-76.8-168.9-168.9-168.9H445.3
					c-111.3,0-203.5-92.1-203.5-203.5S334,257.3,445.3,257.3h476V107.5H441.5c-195.8,0-353.2,157.4-353.2,353.2
					s157.4,353.2,353.2,353.2h122.8c11.5,0,19.2,7.7,19.2,19.2S575.8,852.3,568.2,852.3z"/>
				<path class="st1" d="M441.5,445.4h479.9V291.8H441.5c-92.1,0-168.9,76.8-168.9,168.9s76.8,168.9,168.9,168.9h122.8
					c111.3,0,203.5,92.1,203.5,203.5s-92.1,203.5-203.5,203.5h-476v149.7h479.9c195.8,0,353.2-157.4,353.2-353.2
					S764,479.9,568.2,479.9H445.3c-11.5,0-19.2-7.7-19.2-19.2C426.1,453,433.8,445.4,441.5,445.4z"/>
			</g>
			<g>
				<path class="st1" d="M2165.2,291.8c-65.3,0-115.2,49.9-115.2,115.2v479.9c0,65.3,49.9,115.2,115.2,115.2h311V664.2h-238v149.7
					h88.3v34.6h-88.3c-19.2,0-34.6-15.4-34.6-34.6V476.1c0-19.2,15.4-34.6,34.6-34.6h426.1V291.8H2165.2z"/>
				<path class="st1" d="M3109.6,1002h349.3l-238-706.4c-7.7-19.2-23-34.6-46.1-34.6c-19.2,0-38.4,15.4-46.1,30.7l-307.1,894.5
					h176.6l107.5-318.6V1002L3109.6,1002L3109.6,1002z M3171,679.5l49.9,153.6h-103.7L3171,679.5z"/>
				<path class="st1" d="M3405.2,264.9c-30.7-99.8-122.8-176.6-234.2-176.6s-203.5,72.9-230.3,172.8l-280.2,821.5V479.9h-422.3
					v149.7h276.4v406.9H2169c-84.5,0-149.7-69.1-149.7-149.7V407c0-84.5,69.1-149.7,149.7-149.7h495.2V107.5h-499.1
					c-165.1,0-299.4,134.4-299.4,299.4v479.9c0,165.1,134.4,299.4,299.4,299.4h618.1l311-902.2c11.5-34.6,42.2-57.6,80.6-57.6
					c38.4,0,69.1,23,80.6,57.6l253.4,752.4h-399.3v149.7h606.6l0,0L3405.2,264.9z"/>
			</g>
			<g>
				<path class="st1" d="M1293.7,1036.6c-84.5,0-149.7-69.1-149.7-149.7V407c0-84.5,69.1-149.7,149.7-149.7h514.4V107.5h-514.4
					c-165.1,0-299.4,134.4-299.4,299.4v479.9c0,165.1,134.4,299.4,299.4,299.4h514.4v-149.7L1293.7,1036.6L1293.7,1036.6z"/>
				<path class="st1" d="M1328.3,817.7h372.4V668h-522.1v222.7c0,65.3,49.9,115.2,115.2,115.2h514.4V856.1h-445.3
					C1343.7,852.3,1328.3,836.9,1328.3,817.7z"/>
				<path class="st1" d="M1700.7,479.9h-372.4c0-19.2,15.4-34.6,34.6-34.6h441.5V291.8h-510.6c-65.3,0-115.2,49.9-115.2,115.2v222.7
					h522.1C1700.7,629.6,1700.7,479.9,1700.7,479.9z"/>
			</g>
		</g>
	</g>
	<g>
		<g>
			<g>
				<path d="M888.2,1793.6c-45.1,0-86.5-17.3-116.6-48.6c-29.8-31-46.3-73.2-46.3-118.8c0-45.4,16.4-87.6,46.3-118.9
					c30.4-31.9,72.4-49.4,118-49.4c63.2,0,98,24.6,126.2,51.3l3.6,3.4l-31.1,33.4l-3.7-3.5c-30.8-29.3-59.4-41.8-95.6-41.8
					c-66.6,0-116.9,53.6-116.9,124.6c0,71.5,50.3,125.5,116.9,125.5c43.2,0,70.5-17.6,98.2-44l3.5-3.3l30.4,29.9l-3.5,3.6
					C990,1764.9,952.9,1793.6,888.2,1793.6z"/>
				<path class="st0" d="M889.6,1462.9c57.1,0,91.3,20.2,122.8,49.9l-24.3,26.1c-26.5-25.2-56.2-43.2-99-43.2
					c-69.7,0-121.9,56.2-121.9,129.6c0,73.4,52.6,130.5,121.9,130.5c43.2,0,71.5-16.6,101.7-45.4l23.4,23
					c-32.9,33.2-68.9,55.2-126,55.2c-90.9,0-157.9-71.5-157.9-162.4C730.3,1536.2,796.9,1462.9,889.6,1462.9 M889.6,1452.9
					c-47,0-90.2,18.1-121.6,51c-30.7,32.2-47.7,75.6-47.7,122.3c0,46.9,16.9,90.3,47.7,122.2c31.1,32.4,73.8,50.2,120.2,50.2
					c28.6,0,53.6-5.3,76.4-16.1c19.5-9.3,37.5-22.6,56.7-42l7.1-7.1l-7.2-7l-23.4-23l-6.9-6.8l-7,6.7
					c-26.8,25.6-53.2,42.6-94.8,42.6c-63.8,0-111.9-51.8-111.9-120.5c0-68.2,48.1-119.6,111.9-119.6c34.7,0,62.3,12.1,92.1,40.4
					l7.3,7l6.9-7.4l24.3-26.1l6.8-7.3l-7.2-6.8c-18.7-17.6-36-29.6-54.6-37.9C942.6,1457.7,918,1452.9,889.6,1452.9L889.6,1452.9z"
					/>
			</g>
			<g>
				<polygon points="1084.8,1788.1 1084.8,1463.2 1130.3,1463.2 1130.3,1745.3 1307.6,1745.3 1307.6,1788.1 				"/>
				<path class="st0" d="M1125.3,1468.2v282.1h177.3v32.8h-212.8v-314.9H1125.3 M1135.3,1458.2h-10h-35.5h-10v10v314.9v10h10h212.8
					h10v-10v-32.8v-10h-10h-167.3v-272.1V1458.2L1135.3,1458.2z"/>
			</g>
			<g>
				<path d="M1633.7,1788.2l-36.9-83.2h-164.9l-37.3,83.2h-47.5l148-327.2h39.8l148,327.2H1633.7z M1578.4,1663l-63.8-143.3
					l-64.3,143.3H1578.4z"/>
				<path class="st0" d="M1531.7,1466l143.5,317.2H1637l-36.9-83.2h-171.4l-37.3,83.2h-36.5l143.5-317.2H1531.7 M1442.6,1668h143.5
					l-71.5-160.6L1442.6,1668 M1538.2,1456h-6.5h-33.3h-6.5l-2.7,5.9l-143.5,317.2l-6.4,14.1h15.5h36.5h6.5l2.6-5.9l34.7-77.3h158.4
					l34.3,77.3l2.6,5.9h6.5h38.2h15.5l-6.4-14.1l-143.5-317.2L1538.2,1456L1538.2,1456z M1458,1658l56.5-126.1l56.1,126.1H1458
					L1458,1658z"/>
			</g>
			<g>
				<path d="M1852.6,1792.6c-50.5,0-92.5-16.4-132-51.7l-3.6-3.2l28.5-33.8l3.8,3.5c33.9,30.7,64.2,43.2,104.6,43.2
					c39,0,65.2-19.7,65.2-49c0-25.8-12.1-41.5-77.9-55.4c-65.8-14.4-109.7-36.2-109.7-96.2c0-53,45.6-91.4,108.5-91.4
					c45.1,0,79.1,11.9,113.8,39.8l3.8,3l-26.8,35.4l-4-3.3c-27.7-22.6-55.6-33.1-87.7-33.1c-36.5,0-62,19-62,46.3
					c-0.1,26.2,12.5,42.2,81.4,56.9c74.7,16.3,106.6,44.5,106.6,94.4c0,28-11.1,51.9-32.2,69.1
					C1912.6,1783.8,1884.8,1792.6,1852.6,1792.6z"/>
				<path class="st0" d="M1840,1463.6c45.9,0,78.7,13,110.7,38.7l-20.7,27.4c-29.2-23.8-58.5-34.2-90.9-34.2
					c-40.9,0-67,22.5-67,51.3c-0.1,30.3,16.1,47,85.4,61.8c70.2,15.3,102.6,40.9,102.6,89.5c0,54.5-45,89.5-107.5,89.5
					c-49.9,0-90.9-16.7-128.7-50.4l22-26.1c32.8,29.7,64.3,44.5,108,44.5c42.3,0,70.2-22,70.2-54c0-29.7-15.8-46.3-81.9-60.3
					c-72.4-15.8-105.7-39.1-105.7-91.3C1736.5,1499.6,1780.1,1463.6,1840,1463.6 M1840,1453.6c-65.8,0-113.5,40.5-113.5,96.4
					c0,28.8,9.6,50.7,29.3,67c17.9,14.7,43.9,25.2,84.2,34.1l0,0l0,0c31,6.6,50.6,13.7,61.6,22.3c8.9,7,12.3,14.9,12.3,28.2
					c0,12.6-5.3,23.3-15.4,31.1c-10.9,8.4-26.4,12.9-44.8,12.9c-39.1,0-68.4-12.1-101.3-41.9l-7.7-7l-6.7,7.9l-22,26.1l-6.3,7.4
					l7.3,6.5c20.1,18,40.7,30.9,62.8,39.7c22.6,8.9,46.3,13.3,72.6,13.3c33.3,0,62.2-9.2,83.5-26.6c10.8-8.8,19.2-19.5,25-31.7
					c6-12.5,9-26.4,9-41.3c0-27.3-9.3-48.5-28.5-64.8c-17.8-15.2-43.8-26.1-82-34.4c-32.7-7-53.3-14.4-64.7-23.2
					c-9.2-7.1-12.8-15.2-12.8-28.8c0-24.3,23.4-41.3,57-41.3c31,0,57.8,10.2,84.6,32l8,6.6l6.3-8.3l20.7-27.4l5.9-7.7l-7.6-6.1
					c-17.5-14-34.8-24-53-30.6C1884.7,1457,1863.8,1453.6,1840,1453.6L1840,1453.6z"/>
			</g>
			<g>
				<path d="M2149.6,1792.6c-50.5,0-92.5-16.4-132-51.7l-3.6-3.2l28.5-33.8l3.8,3.5c33.9,30.7,64.2,43.2,104.6,43.2
					c39,0,65.2-19.7,65.2-49c0-25.8-12.1-41.5-77.9-55.4c-65.8-14.4-109.7-36.2-109.7-96.2c0-53,45.6-91.4,108.5-91.4
					c45.1,0,79.1,11.9,113.8,39.8l3.8,3l-26.8,35.4l-4-3.3c-27.7-22.6-55.6-33.1-87.7-33.1c-36.5,0-62,19-62,46.3
					c-0.1,26.2,12.5,42.2,81.4,56.9c74.7,16.3,106.6,44.5,106.6,94.4c0,28-11.1,51.9-32.2,69.1
					C2209.6,1783.8,2181.8,1792.6,2149.6,1792.6z"/>
				<path class="st0" d="M2137,1463.6c45.9,0,78.7,13,110.7,38.7l-20.7,27.4c-29.2-23.8-58.5-34.2-90.9-34.2
					c-40.9,0-67,22.5-67,51.3c-0.1,30.3,16.1,47,85.4,61.8c70.2,15.3,102.6,40.9,102.6,89.5c0,54.5-45,89.5-107.5,89.5
					c-49.9,0-90.9-16.7-128.7-50.4l22-26.1c32.8,29.7,64.3,44.5,108,44.5c42.3,0,70.2-22,70.2-54c0-29.7-15.8-46.3-81.9-60.3
					c-72.4-15.8-105.7-39.1-105.7-91.3C2033.5,1499.6,2077.1,1463.6,2137,1463.6 M2137,1453.6c-65.8,0-113.5,40.5-113.5,96.4
					c0,28.8,9.6,50.7,29.3,67c17.9,14.7,43.9,25.2,84.2,34.1l0,0l0,0c31,6.6,50.6,13.7,61.6,22.3c8.9,7,12.3,14.9,12.3,28.2
					c0,12.6-5.3,23.3-15.4,31.1c-10.9,8.4-26.4,12.9-44.8,12.9c-39.1,0-68.4-12.1-101.3-41.9l-7.7-7l-6.7,7.9l-22,26.1l-6.3,7.4
					l7.3,6.5c20.1,18,40.7,30.9,62.8,39.7c22.6,8.9,46.3,13.3,72.6,13.3c33.3,0,62.2-9.2,83.5-26.6c10.8-8.8,19.2-19.5,25-31.7
					c6-12.5,9-26.4,9-41.3c0-27.3-9.3-48.5-28.5-64.8c-17.8-15.2-43.8-26.1-82-34.4c-32.7-7-53.3-14.4-64.7-23.2
					c-9.2-7.1-12.8-15.2-12.8-28.8c0-24.4,23.4-41.3,57-41.3c31,0,57.8,10.2,84.6,32l8,6.6l6.3-8.3l20.7-27.4l5.9-7.7l-7.6-6.1
					c-17.5-14-34.8-24-53-30.6C2181.7,1457,2160.8,1453.6,2137,1453.6L2137,1453.6z"/>
			</g>
			<g>
				<rect x="2341.2" y="1463.2" width="45.5" height="325"/>
				<path class="st0" d="M2381.7,1468.2v315h-35.5v-315H2381.7 M2391.7,1458.2h-10h-35.5h-10v10v315v10h10h35.5h10v-10v-315V1458.2
					L2391.7,1458.2z"/>
			</g>
			<g>
				<path d="M2631.5,1793.6c-45.1,0-86.5-17.3-116.6-48.6c-29.8-31-46.3-73.2-46.3-118.8c0-45.4,16.4-87.6,46.3-118.9
					c30.4-31.9,72.4-49.4,118-49.4c63.2,0,98,24.6,126.2,51.3l3.6,3.4l-31.1,33.4l-3.7-3.5c-30.8-29.3-59.4-41.8-95.6-41.8
					c-66.6,0-116.9,53.6-116.9,124.6c0,71.5,50.3,125.5,116.9,125.5c43.2,0,70.5-17.6,98.2-44l3.5-3.3l30.4,29.9l-3.5,3.6
					C2733.3,1764.9,2696.2,1793.6,2631.5,1793.6z"/>
				<path class="st0" d="M2632.9,1462.9c57.1,0,91.3,20.2,122.8,49.9l-24.3,26.1c-26.5-25.2-56.2-43.2-99-43.2
					c-69.7,0-121.9,56.2-121.9,129.6c0,73.4,52.6,130.5,121.9,130.5c43.2,0,71.5-16.6,101.7-45.4l23.4,23
					c-32.9,33.2-68.9,55.2-126,55.2c-90.9,0-157.9-71.5-157.9-162.4C2473.6,1536.2,2540.2,1462.9,2632.9,1462.9 M2632.9,1452.9
					c-47,0-90.2,18.1-121.6,51c-30.7,32.2-47.7,75.6-47.7,122.3c0,46.9,16.9,90.3,47.7,122.2c31.1,32.4,73.8,50.2,120.2,50.2
					c28.6,0,53.6-5.3,76.4-16.1c19.5-9.3,37.5-22.6,56.7-42l7.1-7.1l-7.2-7l-23.4-23l-6.9-6.8l-7,6.7
					c-26.8,25.6-53.2,42.6-94.8,42.6c-63.8,0-111.9-51.8-111.9-120.5c0-68.2,48.1-119.6,111.9-119.6c34.7,0,62.3,12.1,92.1,40.4
					l7.3,7l6.9-7.4l24.3-26.1l6.8-7.3l-7.2-6.8c-18.7-17.6-36-29.6-54.6-37.9C2685.9,1457.7,2661.3,1452.9,2632.9,1452.9
					L2632.9,1452.9z"/>
			</g>
			<g>
				<path d="M2941.1,1792.6c-50.5,0-92.5-16.4-132-51.7l-3.6-3.2l28.5-33.8l3.8,3.5c33.9,30.7,64.2,43.2,104.6,43.2
					c39,0,65.2-19.7,65.2-49c0-25.8-12.1-41.5-77.9-55.4c-65.8-14.4-109.7-36.2-109.7-96.2c0-53,45.6-91.4,108.5-91.4
					c45.1,0,79.1,11.9,113.8,39.8l3.8,3l-26.8,35.4l-4-3.3c-27.7-22.6-55.6-33.1-87.7-33.1c-36.5,0-62,19-62,46.3
					c-0.1,26.2,12.5,42.2,81.4,56.9c74.7,16.3,106.6,44.5,106.6,94.4c0,28-11.1,51.9-32.2,69.1
					C3001.1,1783.8,2973.3,1792.6,2941.1,1792.6z"/>
				<path class="st0" d="M2928.5,1463.6c45.9,0,78.7,13,110.7,38.7l-20.7,27.4c-29.2-23.8-58.5-34.2-90.9-34.2
					c-40.9,0-67,22.5-67,51.3c-0.1,30.3,16.1,47,85.4,61.8c70.2,15.3,102.6,40.9,102.6,89.5c0,54.5-45,89.5-107.5,89.5
					c-49.9,0-90.9-16.7-128.7-50.4l22-26.1c32.8,29.7,64.3,44.5,108,44.5c42.3,0,70.2-22,70.2-54c0-29.7-15.8-46.3-81.9-60.3
					c-72.4-15.8-105.7-39.1-105.7-91.3C2825,1499.6,2868.6,1463.6,2928.5,1463.6 M2928.5,1453.6c-65.8,0-113.5,40.5-113.5,96.4
					c0,28.8,9.6,50.7,29.3,67c17.9,14.7,43.9,25.2,84.2,34.1l0,0l0,0c31,6.6,50.6,13.7,61.6,22.3c8.9,7,12.3,14.9,12.3,28.2
					c0,12.6-5.3,23.3-15.4,31.1c-10.9,8.4-26.4,12.9-44.8,12.9c-39.1,0-68.4-12.1-101.3-41.9l-7.7-7l-6.7,7.9l-22,26.1l-6.3,7.4
					l7.3,6.5c20.1,18,40.7,30.9,62.8,39.7c22.6,8.9,46.3,13.3,72.6,13.3c33.3,0,62.2-9.2,83.5-26.6c10.8-8.8,19.2-19.5,25-31.7
					c6-12.5,9-26.4,9-41.3c0-27.3-9.3-48.5-28.5-64.8c-17.8-15.2-43.8-26.1-82-34.4c-32.7-7-53.3-14.4-64.7-23.2
					c-9.2-7.1-12.8-15.2-12.8-28.8c0-24.4,23.4-41.3,57-41.3c31,0,57.8,10.2,84.6,32l8,6.6l6.3-8.3l20.7-27.4l5.9-7.7l-7.6-6.1
					c-17.5-14-34.8-24-53-30.6C2973.2,1457,2952.3,1453.6,2928.5,1453.6L2928.5,1453.6z"/>
			</g>
		</g>
	</g>
</g>
</svg>
