<?xml version="1.0" encoding="utf-8"?>
<!-- Generator: Adobe Illustrator 25.4.1, SVG Export Plug-In . SVG Version: 6.00 Build 0)  -->
<svg version="1.1" id="Layer_1" xmlns="http://www.w3.org/2000/svg" xmlns:xlink="http://www.w3.org/1999/xlink" x="0px" y="0px"
	 viewBox="0 0 3839 1723.1" style="enable-background:new 0 0 3839 1723.1;" xml:space="preserve">
<style type="text/css">
	.st0{fill:#FFFFFF;}
	.st1{fill:#034693;}
</style>
<g>
	<g>
		<g>
			<g>
				<path class="st0" d="M1161.9,1703.5v-110.5h-103.3c-54.9,51.1-150.6,110.5-299.1,110.5H19.6v-500.4h62.8
					c-61.5-116.7-59.2-263.4,6.8-377.8c34.5-59.8,85-108.8,145.8-141.7c60.1-32.4,128-48.9,201.8-48.9h549.7h805.6
					c53.5,0,104.9,19.7,144.8,55.6c37.4,33.6,61.8,78.7,69.5,127.9h86.7v-21.2c0-89.4,72.7-162.1,162.2-162.1h397.2l213,277.6
					l213-277.8H3799l-819.6,1068.2h-424.6v-55.4c0-30.1-24.5-54.6-54.6-54.6h-783.4c-30.1,0-54.6,24.5-54.6,54.6v56L1161.9,1703.5
					L1161.9,1703.5z"/>
				<g>
					<path d="M1147.3,1718.1v-110.5h-82.8c-33.5,30.3-71.7,54.9-113.4,72.9c-57.6,25-122.1,37.6-191.5,37.6H5v-529.8h54
						C5.8,1070.4,12.4,929.2,76.6,817.9c35.9-62.2,88.3-113.2,151.7-147.3c62.4-33.6,132.7-50.6,208.8-50.6h1355.3
						c57.1,0,112,21.1,154.7,59.3c36.3,32.7,61.7,76.6,71.8,124.1h59.7v-6.5c0-23.8,4.7-47,13.9-68.9c8.8-21,21.6-40,37.9-56.3
						c16.2-16.2,35.1-29,56.2-37.9c21.9-9.2,45.1-13.9,68.9-13.9h404.4l205.8,268.2l205.7-268.2h757.5L2994,1708l-7.3,9.6h-446.5
						v-70.1c0-21.9-17.8-39.8-39.8-39.8h-783.4c-21.9,0-39.8,17.8-39.8,39.8v70.7H1147.3z M1647.7,1688.7v-41.3
						c0-38.2,31.1-69.3,69.3-69.3h783.4c38.2,0,69.3,31.1,69.3,69.3v40.7h402.6l797-1038.7h-683.4l-220.2,287l-220.2-287h-389.9
						c-81.3,0-147.4,66.1-147.4,147.4v36h-114.5l-0.5-4.4c-11.6-102.1-97.9-179.1-200.7-179.1H437.1c-71.3,0-136.9,15.9-194.8,47.1
						c-58.5,31.5-106.9,78.5-140.1,136c-65.8,114.1-65.8,261.5,0,375.5l0.1,0.1l0.1,0.1c0.2,0.5,0.5,0.9,0.8,1.4
						c0.1,0.2,0.3,0.5,0.4,0.7l4.2,7.4H34.4v470.9h725.2c146.4,0,239.5-59.4,291.9-109.2l1.4-1.4h123.8v110.5H1647.7z"/>
					<path class="st0" d="M3818.9,624.9L2990,1705l-5.9,7.6h-9.6h-410H2545V1693v-45.6c0-24.7-20-44.7-44.7-44.7h-783.4
						c-24.7,0-44.7,20-44.7,44.7v46.2v19.5h-19.5h-480.8h-19.5v-19.5v-91h-89.7c-33.3,30.5-71.4,55.2-113.4,73.3
						c-57,24.7-120.7,37.2-189.5,37.2H29.5H9.9v-19.5v-480.8v-19.5h19.5h37.2c-55.6-117.1-50.8-260.2,14.2-373
						c35.4-61.4,87.2-111.7,149.7-145.5c61.6-33.1,131.1-50,206.5-50h549.7h805.6c56,0,109.6,20.6,151.4,58
						c36.9,33.2,61.7,77.3,71,125.4h68.8v-11.5c0-23.2,4.6-45.7,13.5-67c8.6-20.5,21-38.9,36.8-54.7c15.8-15.8,34.2-28.2,54.7-36.8
						c21.2-8.9,43.8-13.5,67-13.5h401.9l208.3,271.4l208.2-271.4H3818.9 M2865.6,928.3l-217.8-283.9h-392.3
						c-84.1,0-152.4,68.3-152.4,152.4v31.1H1998c-11.7-103.1-99.5-183.5-205.7-183.5H986.7H437.1c-72.1,0-138.5,16.1-197.1,47.7
						c-59.3,31.9-108.4,79.7-142.1,137.9c-66.7,115.6-66.7,264.9,0,380.5c0.4,0.8,0.9,1.6,1.3,2.3H29.5v480.8h730.1
						c146,0,240.2-58.1,295.3-110.5h116.9v110.5h480.9v-46.2c0-35.5,28.8-64.3,64.3-64.3h783.4c35.5,0,64.3,28.8,64.3,64.3v45.6h410
						l804.7-1048.6h-695.9L2865.6,928.3 M3839,614.9h-20.1h-745h-4.9l-3,3.9l-200.3,261.1l-200.4-261.1l-3-3.9h-4.9h-401.9
						c-24.5,0-48.3,4.8-70.8,14.3c-21.7,9.2-41.2,22.3-57.8,38.9c-16.7,16.7-29.8,36.2-38.9,57.8c-9.5,22.5-14.3,46.3-14.3,70.8v1.6
						h-50.8c-5.1-22.1-13.3-43.4-24.6-63.2c-12.6-22.3-28.7-42.4-47.9-59.6c-43.6-39.1-99.8-60.6-158-60.6H986.7H437.1
						c-77,0-148,17.2-211.2,51.2c-64.2,34.6-117.3,86.2-153.6,149.2c-63.7,110.5-71.3,250.1-20.9,368H29.5H9.9H0v9.9v19.5v480.8
						v19.5v9.9h9.9h19.5h730.1c70.1,0,135.2-12.8,193.4-38c41.6-18,79.7-42.4,113.3-72.5h75.9v81.1v19.5v9.9h9.9h19.5h480.8h19.5
						h9.9v-9.9v-19.5v-46.2c0-19.2,15.6-34.8,34.8-34.8h783.4c19.2,0,34.8,15.6,34.8,34.8v45.6v19.5v9.9h9.9h19.5h410h9.6h4.9l3-3.9
						l5.9-7.6l828.9-1080.1L3839,614.9L3839,614.9z M3088.3,654.3h670.9l-789.4,1028.8h-395.2v-35.7c0-40.9-33.3-74.2-74.2-74.2
						H1717c-40.9,0-74.2,33.3-74.2,74.2v36.3h-461.1v-100.6v-9.9h-9.9h-116.9h-4l-2.9,2.7c-51.7,49.2-143.7,107.8-288.4,107.8H39.4
						v-461h59.7h17.1l-8.5-14.8c-0.1-0.2-0.3-0.5-0.4-0.7c-0.2-0.4-0.5-0.8-0.6-1.1l-0.1-0.3l-0.1-0.3c-64.9-112.6-64.9-258,0-370.6
						c32.7-56.7,80.5-103.1,138.2-134.1c57.2-30.9,122-46.5,192.4-46.5h549.7h805.6c100.3,0,184.5,75.1,195.8,174.7l1,8.8h8.9h105.1
						h9.9v-9.9v-31.1c0-78.6,63.9-142.5,142.5-142.5h387.4l214.8,280l7.9,10.3l7.9-10.3L3088.3,654.3L3088.3,654.3z"/>
				</g>
			</g>
			<path d="M3123.6,725.7l-257.9,336.1l-257.9-336.1h-352.2c-39.3,0-71.1,31.8-71.1,71.1v112.3h-266.3v-57.7
				c0-69.5-56.3-125.7-125.7-125.7H986.8H437.2c-117.7,0-215.6,52.9-268.9,145.1c-52.5,90.9-52.5,208.4,0,299.2
				c33.5,58.1,85,100.7,147.9,124.1H110.8v318.3h648.9c126.1,0,203.6-51.7,246.3-95.1c5-5.1,9.7-10.2,14.2-15.5h233v110.5h318.3
				v-46.2c0-35.5,28.8-64.3,64.3-64.3h946c35.5,0,64.3,28.8,64.3,64.3v45.6h288.6l679.8-886.1H3123.6z M2553.3,1260.9v-1.3l0.9,1.3
				H2553.3z"/>
			<rect x="1751.9" y="1122.1" class="st0" width="691.6" height="155.8"/>
			<path class="st0" d="M1792.4,806.9H986.7v44.4c0-24.5-19.8-44.4-44.4-44.4H437.1c-302.9,0-302.9,426.8,0,426.8l0,0h322.5
				c94.4,0,94.4,141.6,0,141.6H192v155.8h567.5c335,0,335-453.1,0-453.1H437.1l0,0c-81.1,4.1-89.5-123.9,0-128l0,0h549.7h347.6
				v581.1H1490V950h346.9v-98.6C1836.8,826.9,1817,806.9,1792.4,806.9z"/>
			<polygon class="st0" points="3203.9,806.9 2865.6,1247.9 2527.3,806.9 2281.5,806.9 2836.7,1530.5 2894.5,1530.5 3449.7,806.9 
							"/>
		</g>
	</g>
	<g>
		<g>
			<g>
				<path class="st0" d="M2560.6,94.8C2543.2,39.5,2491.1,0,2431,0s-112.2,39.5-129.6,94.8l-45.8,135.8V7.9h-240.1
					c-42.7,0-82.2,17.4-112.2,45.8V7.9h-246.5c-45.8,0-86.9,19-116.9,50.6V7.9h-233.9c-99.5,0-181.7,82.2-181.7,181.7
					c0,47.4,19,91.7,49,123.2h-49v211.7h233.9c66.4,0,123.2-34.7,156.4-88.5c26.9,52.1,80.6,88.5,143.8,88.5h248v-45.8
					c28.5,28.5,68,45.8,112.2,45.8h685.7L2560.6,94.8z"/>
				<g>
					<g>
						<path class="st1" d="M1358.3,350.7h-197.5v61.6h197.5c37.9,0,69.6-31.6,69.6-69.6s-31.6-69.6-69.6-69.6h-50.6
							c-45.8,0-83.7-37.9-83.7-83.7s37.9-83.7,83.7-83.7h196V44.3h-197.5c-80.6,0-145.4,64.8-145.4,145.4S1225.5,335,1306.1,335
							h50.6c4.8,0,7.9,3.2,7.9,7.9C1364.5,347.6,1361.5,350.7,1358.3,350.7z"/>
						<path class="st1" d="M1306.1,183.3h197.5v-63.2h-197.5c-37.9,0-69.6,31.6-69.6,69.6s31.6,69.6,69.6,69.6h50.6
							c45.8,0,83.7,37.9,83.7,83.7s-37.9,83.7-83.7,83.7h-196v61.6h197.5c80.6,0,145.4-64.8,145.4-145.4s-64.8-145.4-145.4-145.4
							h-50.6c-4.8,0-7.9-3.2-7.9-7.9C1299.8,186.4,1302.9,183.3,1306.1,183.3z"/>
					</g>
					<g>
						<path class="st1" d="M2015.5,120.1c-26.9,0-47.4,20.5-47.4,47.4V365c0,26.9,20.5,47.4,47.4,47.4h128V273.3h-97.9V335h36.3
							v14.2h-36.3c-7.9,0-14.2-6.3-14.2-14.2V196c0-7.9,6.3-14.2,14.2-14.2H2221v-61.7H2015.5z"/>
						<path class="st1" d="M2404.1,412.3h143.8L2450,121.6c-3.2-7.9-9.5-14.2-19-14.2c-7.9,0-15.8,6.3-19,12.6l-126.4,368.1h72.7
							l44.3-131.2v55.3L2404.1,412.3L2404.1,412.3z M2429.4,279.7l20.5,63.2h-42.7L2429.4,279.7z"/>
						<path class="st1" d="M2525.9,109c-12.6-41.1-50.6-72.7-96.3-72.7c-45.8,0-83.7,30.1-94.8,71.1l-115.3,338.1v-248h-173.8v61.6
							h113.8v167.5h-142.4c-34.7,0-61.6-28.5-61.6-61.6V167.5c0-34.7,28.5-61.6,61.6-61.6h203.8V44.3h-205.4
							c-68,0-123.2,55.3-123.2,123.2V365c0,68,55.3,123.2,123.2,123.2h254.4l128-371.3c4.8-14.2,17.4-23.7,33.1-23.7
							s28.5,9.5,33.1,23.7l104.4,309.7h-164.3v61.6h249.6l0,0L2525.9,109z"/>
					</g>
					<g>
						<path class="st1" d="M1656.8,426.6c-34.7,0-61.6-28.5-61.6-61.6V167.5c0-34.7,28.5-61.6,61.6-61.6h211.7V44.3h-211.7
							c-68,0-123.2,55.3-123.2,123.2V365c0,68,55.3,123.2,123.2,123.2h211.7v-61.6H1656.8z"/>
						<path class="st1" d="M1671.1,336.5h153.3v-61.6h-214.9v91.7c0,26.9,20.5,47.4,47.4,47.4h211.7v-61.6h-183.3
							C1677.4,350.7,1671.1,344.4,1671.1,336.5z"/>
						<path class="st1" d="M1824.3,197.5H1671c0-7.9,6.3-14.2,14.2-14.2h181.7v-63.3h-210.1c-26.9,0-47.4,20.5-47.4,47.4v91.7h214.9
							C1824.3,259.2,1824.3,197.5,1824.3,197.5z"/>
					</g>
				</g>
			</g>
		</g>
	</g>
</g>
</svg>
