<?xml version="1.0" encoding="utf-8"?>
<!-- Generator: Adobe Illustrator 25.4.1, SVG Export Plug-In . SVG Version: 6.00 Build 0)  -->
<svg version="1.1" id="Layer_1" xmlns="http://www.w3.org/2000/svg" xmlns:xlink="http://www.w3.org/1999/xlink" x="0px" y="0px"
	 viewBox="0 0 3839 1567.2" style="enable-background:new 0 0 3839 1567.2;" xml:space="preserve">
<style type="text/css">
	.st0{fill:#034693;}
	.st1{fill:#FFFFFF;}
</style>
<g>
	<g>
		<g>
			<g>
				<polygon class="st0" points="464.7,1543.1 464.7,1246.5 203,1246.5 203,1543.1 5,1543.1 5,809.6 203,809.6 203,1088.8 
					464.7,1088.8 464.7,809.6 662.7,809.6 662.7,1543.1 				"/>
				<path class="st1" d="M657.8,814.6v723.5H469.7v-296.6H198.1v296.6H9.9V814.6h188.1v279.2h271.6V814.6H657.8 M667.7,804.6h-9.9
					H469.7h-9.9v9.9v269.3H208V814.6v-9.9h-9.9H9.9H0v9.9v723.5v9.9h9.9h188.1h9.9v-9.9v-286.6h251.7v286.6v9.9h9.9h188.1h9.9v-9.9
					V814.6V804.6L667.7,804.6z"/>
			</g>
			<g>
				<rect x="775.5" y="809.6" class="st0" width="198.1" height="733.5"/>
				<path class="st1" d="M968.6,814.6v723.5H780.4V814.6H968.6 M978.5,804.6h-9.9H780.4h-9.9v9.9v723.5v9.9h9.9h188.1h9.9v-9.9
					V814.6V804.6L978.5,804.6z"/>
			</g>
			<g>
				<polygon class="st0" points="1521.7,1543.2 1284.5,1236.5 1284.5,1543.2 1086.4,1543.2 1086.4,809.6 1284.5,809.6 
					1284.5,1100.7 1506.4,809.6 1752.7,809.6 1460.6,1157.2 1778.4,1543.2 				"/>
				<path class="st1" d="M1742,814.6l-287.9,342.6l313.8,381h-243.7l-242.7-313.8h-1.9v313.8h-188.1V814.6h188.1V1113h1.9
					l227.4-298.4H1742 M1763.4,804.6H1742h-233.2h-4.9l-3,3.9L1289.5,1086V814.6v-9.9h-9.9h-188.1h-9.9v9.9v723.6v9.9h9.9h188.1h9.9
					v-9.9v-287.1l226.8,293.2l3,3.9h4.9h243.7h21.1l-13.4-16.3l-308.5-374.6L1749.6,821L1763.4,804.6L1763.4,804.6z"/>
			</g>
			<g>
				<polygon class="st0" points="2324.7,1543.1 2152.6,1050.2 1975.7,1543.1 1765.4,1543.1 2047.5,809.6 2259.8,809.6 2536,1543.1 
									"/>
				<path class="st1" d="M2256.3,814.6l272.5,723.5h-200.6l-174.6-500h-2l-179.5,500h-199.6l278.3-723.5H2256.3 M2263.2,804.6h-6.9
					h-205.4h-6.8l-2.5,6.4l-278.3,723.5l-5.2,13.5h14.5h199.6h7l2.4-6.6l171-476.4l166.3,476.3l2.3,6.7h7.1h200.6h14.4l-5.1-13.5
					l-272.5-723.5L2263.2,804.6L2263.2,804.6z"/>
			</g>
			<g>
				<path class="st0" d="M2952.1,1543.1l-171.8-269.1v269.1h-198.1V809.6h286.1c75.2,0,138.3,18.8,182.4,54.5
					c23.7,19.1,41.9,43.1,54.3,71.2c13,29.5,19.6,63.8,19.6,102c0,51.8-14.4,98.7-41.6,135.7c-27.3,37.1-66.2,61.9-112.9,72
					l228.9,298.1H2952.1z M2793.6,1133.9c58.5,0,125.5-9.7,125.5-85.3c0-75.6-67.1-85.3-125.5-85.3h-13.2v170.5H2793.6z"/>
				<path class="st1" d="M2868.4,814.6c143,0,251.4,68.1,251.4,222.6c0,99.8-55.6,186.1-158.4,204.4l227.6,296.5h-234.2
					l-177.6-278.3h-1.9v278.3h-188.1V814.6H2868.4 M2775.4,1138.9h18.2c61.4,0,130.5-11.5,130.5-90.2c0-78.7-69.1-90.2-130.5-90.2
					h-18.2V1138.9 M2868.4,804.6h-281.1h-9.9v9.9v723.5v9.9h9.9h188.1h9.9v-9.9V1291l161.1,252.5l2.9,4.6h5.5H3189h20.2l-12.3-16
					l-218-284c44.5-11.3,81.7-36.1,108.3-72.2c13.9-18.9,24.6-40.5,31.9-64.3c7.1-23.4,10.7-48.4,10.7-74.4c0-38.9-6.7-73.9-20-104
					c-12.7-28.8-31.5-53.4-55.8-73c-23-18.6-51-32.8-83.2-42.1C2940,809.1,2905.6,804.6,2868.4,804.6L2868.4,804.6z M2785.4,968.4
					h8.3c37.7,0,64.3,4.6,83.8,14.5c24.8,12.6,36.8,34.1,36.8,65.8c0,31.6-12,53.1-36.8,65.8c-19.4,9.9-46.1,14.5-83.8,14.5h-8.3
					V968.4L2785.4,968.4z"/>
			</g>
			<g>
				<path class="st0" d="M3513.3,1562.3c-46.1,0-91.2-6.3-130.4-18.2c-46.2-14-84.2-35.5-113-63.8c-33.3-32.4-55-72.1-66.3-121.4
					c-10.2-44.4-11-92.2-11-137.4V809.6h198.1v386c0,44.2,1.4,94.4,18.1,131.6c18.2,40.5,52.4,60.1,104.6,60.1s86.4-19.7,104.6-60.1
					c16.7-37.1,18.1-87.4,18.1-131.6v-386H3834v411.9c0,45.1-0.9,92.9-11.1,137.4c-11.3,49.3-33,89-66.3,121.4
					c-28.8,28.3-66.8,49.8-113,63.8C3604.5,1556,3559.4,1562.3,3513.3,1562.3z"/>
				<path class="st1" d="M3829.1,814.6v406.9c0,93.1-3.9,185.2-75.8,255.3c-60.5,59.5-155.5,80.6-239.9,80.6s-179.5-21.1-239.9-80.6
					c-72-70-75.8-162.2-75.8-255.3V814.6h188.1v381c0,94,6.8,196.7,127.6,196.7s127.6-102.7,127.6-196.7v-381H3829.1 M3839,804.6
					h-9.9h-188.1h-9.9v9.9v381c0,43.7-1.4,93.3-17.6,129.5c-17.5,39-49.3,57.2-100.1,57.2s-82.5-18.2-100.1-57.2
					c-16.3-36.2-17.6-85.8-17.6-129.5v-381v-9.9h-9.9h-188.1h-9.9v9.9v406.9c0,45.5,0.9,93.6,11.1,138.5
					c11.5,50.3,33.6,90.8,67.6,123.9c29.4,28.9,68.1,50.8,115.1,65c39.7,12,85.3,18.4,131.9,18.4s92.2-6.4,131.9-18.4
					c47-14.3,85.7-36.1,115-65c34-33.1,56.1-73.6,67.6-123.9c10.3-45,11.2-93.1,11.2-138.5V814.6V804.6L3839,804.6z"/>
			</g>
		</g>
	</g>
	<g>
		<path class="st1" d="M2773.3,125.2C2750.3,52.2,2681.3,0,2602,0s-148.2,52.2-171.2,125.2l-60.5,179.6V10.4h-317.2
			c-56.4,0-108.5,23-148.2,60.5V10.4h-325.6c-60.5,0-114.8,25.1-154.5,66.8V10.4h-308.9c-131.5,0-240,108.5-240,240
			c0,62.7,25.1,121.1,64.7,162.9h-64.7V693h308.9c87.6,0,162.8-46,206.6-116.9c35.5,68.8,106.4,116.9,189.9,116.9h327.8v-60.5
			c37.6,37.6,89.7,60.5,148.2,60.5h905.9L2773.3,125.2z"/>
		<g>
			<g>
				<path class="st0" d="M1184.7,463.4H923.9v81.4h260.9c50,0,91.8-41.8,91.8-91.8s-41.8-91.8-91.8-91.8H1118
					c-60.5,0-110.6-50-110.6-110.6s50.1-110.6,110.6-110.6h258.9V58.5H1116c-106.4,0-192,85.6-192,192s85.6,192,192,192h66.8
					c6.3,0,10.4,4.2,10.4,10.4S1188.9,463.4,1184.7,463.4z"/>
				<path class="st0" d="M1115.9,242.1h260.9v-83.5h-260.9c-50,0-91.8,41.8-91.8,91.8s41.8,91.8,91.8,91.8h66.8
					c60.5,0,110.6,50,110.6,110.6s-50,110.6-110.6,110.6H923.9v81.4h260.9c106.4,0,192-85.6,192-192s-85.6-192-192-192H1118
					c-6.3,0-10.4-4.2-10.4-10.4C1107.5,246.3,1111.7,242.1,1115.9,242.1z"/>
			</g>
			<g>
				<path class="st0" d="M2053.1,158.7c-35.5,0-62.7,27.2-62.7,62.7v260.9c0,35.5,27.2,62.7,62.7,62.7h169.1V361.1h-129.4v81.4h48
					v18.8h-48c-10.4,0-18.8-8.4-18.8-18.8V258.9c0-10.4,8.4-18.8,18.8-18.8h231.7v-81.4L2053.1,158.7L2053.1,158.7z"/>
				<path class="st0" d="M2566.5,544.8h189.9L2627,160.7c-4.2-10.4-12.5-18.8-25.1-18.8c-10.4,0-20.9,8.4-25.1,16.7l-166.9,486.4h96
					l58.5-173.2v73.1L2566.5,544.8L2566.5,544.8z M2600,369.5l27.2,83.5h-56.4L2600,369.5z"/>
				<path class="st0" d="M2727.3,144c-16.7-54.2-66.8-96-127.3-96s-110.6,39.6-125.2,93.9l-152.3,446.7V260.9h-229.6v81.4h150.3
					v221.2h-187.9c-46,0-81.4-37.6-81.4-81.4V221.2c0-46,37.6-81.4,81.4-81.4h269.3V58.5h-271.4c-89.7,0-162.8,73.1-162.8,162.8
					v260.9c0,89.7,73.1,162.8,162.8,162.8h336l169.1-490.5c6.3-18.8,23-31.3,43.9-31.3s37.6,12.5,43.9,31.3l137.8,409.1h-217.1v81.4
					h329.8l0,0L2727.3,144z"/>
			</g>
			<g>
				<path class="st0" d="M1579.3,563.7c-46,0-81.4-37.6-81.4-81.4v-261c0-46,37.6-81.4,81.4-81.4h279.6V58.5h-279.6
					c-89.7,0-162.8,73.1-162.8,162.8v260.9c0,89.7,73.1,162.8,162.8,162.8h279.6v-81.4L1579.3,563.7L1579.3,563.7z"/>
				<path class="st0" d="M1598.1,444.6h202.4v-81.4h-283.9v121.1c0,35.5,27.2,62.7,62.7,62.7h279.6v-81.5h-242.1
					C1606.4,463.4,1598.1,455,1598.1,444.6z"/>
				<path class="st0" d="M1800.5,260.9h-202.4c0-10.4,8.4-18.8,18.8-18.8h240v-83.5h-277.7c-35.5,0-62.7,27.2-62.7,62.7v121.1h283.9
					C1800.5,342.3,1800.5,260.9,1800.5,260.9z"/>
			</g>
		</g>
	</g>
</g>
</svg>
