<?xml version="1.0" encoding="utf-8"?>
<!-- Generator: Adobe Illustrator 26.0.1, SVG Export Plug-In . SVG Version: 6.00 Build 0)  -->
<svg version="1.1" id="Layer_1" xmlns="http://www.w3.org/2000/svg" xmlns:xlink="http://www.w3.org/1999/xlink" x="0px" y="0px"
	 viewBox="0 0 3839 419.9" style="enable-background:new 0 0 3839 419.9;" xml:space="preserve">
<style type="text/css">
	.st0{display:none;}
	.st1{display:inline;}
	.st2{fill:#ED1C24;}
	.st3{fill-rule:evenodd;clip-rule:evenodd;fill:#FFD100;}
	.st4{fill:#231F20;}
	.st5{fill:#C2AC6D;}
	.st6{fill:#FCEA3C;}
	.st7{fill:#299DD8;}
	.st8{fill-rule:evenodd;clip-rule:evenodd;fill:#F91716;}
	.st9{fill:#F91716;}
	.st10{fill:#22CDC4;}
	.st11{fill:#CBB470;}
	.st12{fill:#FFFFFF;}
</style>
<g class="st0">
</g>
<g class="st0">
</g>
<g>
	<g>
		<g>
			<path class="st9" d="M338.6,411.7l-249-303.6v233.6c0,14.9,2.6,23.2,9.1,29.4c7.4,7.1,19.7,10,42.5,10.1l5,0v25.1H5v-25.2h5
				c15,0,43.3-6.5,43.3-31v-264c0-25.2-19.8-46.5-43.3-46.5H5V14.5h128.2l190.5,233.7V73.8c0-18.2-14.8-34.1-31.7-34.1h-20.1V14.5
				H398v27.3l-4.8,0.2c-19,0.7-33.3,14.5-33.3,32.2v337.5H338.6z"/>
			<path class="st12" d="M393,19.5V37c-22.7,0.8-38.1,17.5-38.1,37.2v332.6h-14L84.6,94.2v247.5c0,14.5,2.3,25.1,10.6,33
				c8.4,8,21.4,11.3,46,11.4v15.2H9.9v-15.2c19.8,0,48.2-9.1,48.2-36v-264c0-27.1-21.3-51.4-48.2-51.4V19.5h120.9l197.9,242.7V73.8
				c0-20.2-16.4-39.1-36.7-39.1h-15.1V19.5H393L393,19.5 M403,9.5H393h-0.1H276.8h-9.9v9.9v15.2v9.9h9.9H292
				c14.3,0,26.8,13.6,26.8,29.1v160.5L138.5,13.2l-3-3.7h-4.7H9.9H0v9.9v15.2v9.9h9.9c20.8,0,38.3,19,38.3,41.5v264
				c0,8.5-3.9,14.9-11.8,19.5c-7,4.1-16.9,6.5-26.5,6.5H0v9.9v15.2v9.9h9.9h131.2h9.9v-9.9v-15.2v-9.9l-9.9,0
				c-21.1-0.1-32.8-2.7-39.1-8.7c-5.4-5.2-7.6-12.4-7.6-25.8V122l238.7,291.1l3,3.6h4.7h14h9.9v-9.9V74.2c0-15.2,12-26.7,28.5-27.3
				l9.6-0.3V37V19.5V9.5L403,9.5z"/>
		</g>
		<g>
			
				<ellipse transform="matrix(0.2298 -0.9732 0.9732 0.2298 695.4868 1297.1936)" class="st9" cx="1167.3" cy="209.2" rx="49.2" ry="49.2"/>
			<path class="st12" d="M1167.3,164.9c24.4,0,44.3,19.8,44.3,44.3c0,24.4-19.8,44.3-44.3,44.3c-24.4,0-44.3-19.8-44.3-44.3
				C1123,184.8,1142.8,164.9,1167.3,164.9 M1167.3,155c-29.9,0-54.2,24.3-54.2,54.2s24.3,54.2,54.2,54.2c29.9,0,54.2-24.3,54.2-54.2
				S1197.2,155,1167.3,155L1167.3,155z"/>
		</g>
		<g>
			<path class="st9" d="M1412.5,412.2c-52.8,0-102.3-19-139.2-53.5c-40.2-37.6-61.4-89.3-61.4-149.5C1211.9,98.5,1297.4,5,1398.5,5
				c23.3,0,58.8,1.9,98.7,18.6c6.5,2.7,12.2,4.1,17.1,4.1c12.2,0,15.8-8.6,16.8-15.8l0.6-4.3h26.4v135.3h-26.6l-1.1-3.4
				c-12-36.2-31.9-63.2-59.4-80.1c-20.1-12.4-40.7-16.8-52.2-16.8c-30.2,0-53.9,12.9-70.6,38.2c-18.6,28.2-28,71.3-28,127.8
				c0,80.1,11.5,125.3,37.3,146.5c20.7,16.9,48.9,17.8,54.3,17.8c22.4,0,38.7-6.6,44.5-11.8v-88.3c0-19.5-6.6-26.5-25.1-26.5h-19.4
				v-28.4l184.5,0.1v28.3h-5c-23.9,0-34.6,8.2-34.6,26.5v106.2l-2.7,1.4C1513.8,400.6,1462.2,412.2,1412.5,412.2z"/>
			<path class="st12" d="M1398.5,9.9c24.9,0,58.9,2.4,96.8,18.2c7.3,3.1,13.7,4.5,19,4.5c13,0,20.1-8.2,21.7-20.2h17v125.3h-18
				c-28.7-86.9-96.4-100.4-116.3-100.4c-61.3,0-103.6,50.8-103.6,171c0,92.3,15.7,131.1,39.1,150.3c22.4,18.3,52.2,18.9,57.5,18.9
				c25.8,0,44.1-8.3,49.4-14.8v-90.2c0-20.1-6.7-31.4-30-31.4h-14.4v-18.4l174.6,0.1v18.4c-22.7,0-39.6,7.3-39.6,31.4v103.2
				c-40.3,20.4-91.1,31.4-139.2,31.4c-101.3,0-195.6-73.1-195.6-198.1C1216.9,100.8,1300.5,9.9,1398.5,9.9 M1398.5,0
				c-25.4,0-50.3,5.7-74,16.8c-22.7,10.7-43.2,26-60.9,45.4c-17.7,19.3-31.6,41.7-41.4,66.5c-10.1,25.7-15.3,52.8-15.3,80.5
				c0,31.5,5.8,60.9,17.1,87.6c10.7,25.1,26.1,47.1,45.8,65.6c18.9,17.6,41,31.4,65.7,40.8c24.4,9.3,50.2,14,76.8,14
				c50.5,0,102.8-11.8,143.7-32.5l5.5-2.8v-6.1V272.7c0-10.6,4-14.5,7-16.6c4.8-3.3,12.4-4.9,22.7-4.9h9.9v-9.9v-18.4v-9.9l-9.9,0
				l-174.6-0.1l-10,0v10v18.4v9.9h9.9h14.4c15.8,0,20.1,4.6,20.1,21.5v85.8c-5.4,3.6-18.8,9.3-39.5,9.3c-5.1,0-31.8-0.8-51.2-16.7
				c-11.3-9.3-19.3-22.9-25.1-42.8c-7-24.1-10.4-56.8-10.4-99.8c0-55.6,9.1-97.7,27.2-125.1c15.7-23.9,38-36,66.4-36
				c2.4,0,24.3,0.5,49.6,16.1c26.4,16.3,45.7,42.4,57.3,77.5l2.3,6.8h7.2h18h9.9v-9.9V12.4V2.5h-9.9h-17h-8.7l-1.1,8.7
				c-1.3,10.2-7,11.5-11.8,11.5c-4.2,0-9.3-1.2-15.2-3.7C1458.3,2,1422.2,0,1398.5,0L1398.5,0z"/>
		</g>
		<g>
			<path class="st9" d="M923.1,414.9c-55,0-105.4-20-141.9-56.4c-37.1-37-57.5-88.7-57.5-145.8c0-57.1,20.4-108.9,57.5-145.8
				c36.5-36.4,86.9-56.4,142-56.4c55,0,105.4,20,142,56.4c37.1,37,57.6,88.7,57.6,145.8c0,57.1-20.4,108.8-57.5,145.8
				C1028.5,394.9,978.1,414.9,923.1,414.9z M923.1,45.9c-26.5,0-47.8,12.5-63.3,37.3c-18.1,28.8-27.2,72.3-27.2,129.5
				c0,57.2,9.1,100.8,27.2,129.6c15.5,24.7,36.8,37.3,63.3,37.3c26.5,0,47.8-12.5,63.3-37.3c18.1-28.8,27.2-72.3,27.2-129.5
				c0-57.2-9.1-100.8-27.2-129.6C970.9,58.4,949.6,45.9,923.1,45.9z"/>
			<path class="st12" d="M923.1,15.4c109.8,0,194.6,80.9,194.6,197.3c0,116.4-84.7,197.3-194.6,197.3
				c-109.8,0-194.5-80.9-194.5-197.3C728.6,96.3,813.1,15.4,923.1,15.4 M923.1,384.5c52.7,0,95.6-48.3,95.5-171.8
				c0-123.5-42.7-171.8-95.5-171.8c-52.7,0-95.5,48.3-95.5,171.8S870.2,384.5,923.1,384.5 M923.1,5.5c-56.4,0-108,20.6-145.5,57.9
				c-18.7,18.6-33.2,40.7-43.3,65.7c-10.4,25.8-15.6,53.9-15.6,83.6c0,29.7,5.3,57.9,15.7,83.6c10.1,25,24.6,47.1,43.3,65.7
				c37.5,37.3,89.1,57.9,145.4,57.9c56.4,0,108.1-20.6,145.5-57.9c18.7-18.6,33.3-40.7,43.3-65.7c10.4-25.8,15.7-53.9,15.7-83.6
				c0-29.7-5.3-57.9-15.7-83.6c-10.1-25-24.7-47.1-43.4-65.7C1031.1,26,979.4,5.5,923.1,5.5L923.1,5.5z M923.1,374.5
				c-24.7,0-44.6-11.8-59.1-34.9c-17.5-27.9-26.4-70.6-26.4-126.9c0-56.3,8.9-99,26.5-126.9c14.6-23.2,34.4-34.9,59.1-34.9
				c24.7,0,44.6,11.8,59.1,34.9c17.5,27.9,26.4,70.6,26.4,126.9c0,56.2-8.8,98.9-26.4,126.9C967.6,362.8,947.7,374.5,923.1,374.5
				L923.1,374.5z"/>
		</g>
		<g>
			<path class="st9" d="M2101.2,414.9c-55,0-105.4-20-141.9-56.4c-37.1-37-57.5-88.7-57.5-145.8c0-57.1,20.4-108.9,57.5-145.8
				c36.5-36.4,86.9-56.4,142-56.4c55,0,105.4,20,142,56.4c37.1,37,57.6,88.7,57.6,145.8c0,57.1-20.4,108.8-57.5,145.8
				C2206.7,394.9,2156.2,414.9,2101.2,414.9z M2101.2,45.9c-26.5,0-47.8,12.5-63.3,37.3c-18.1,28.8-27.2,72.3-27.2,129.5
				c0,57.2,9.1,100.8,27.2,129.6c15.5,24.7,36.8,37.3,63.3,37.3c26.5,0,47.8-12.5,63.4-37.3c18.1-28.7,27.2-72.3,27.1-129.5
				c0-57.2-9.1-100.8-27.2-129.6C2149,58.4,2127.7,45.9,2101.2,45.9z"/>
			<path class="st12" d="M2101.2,15.4c109.8,0,194.6,80.9,194.6,197.3c0,116.4-84.7,197.3-194.6,197.3
				c-109.8,0-194.5-80.9-194.5-197.3C1906.7,96.3,1991.3,15.4,2101.2,15.4 M2101.2,384.5c52.8,0,95.6-48.3,95.5-171.8
				c0-123.5-42.7-171.8-95.5-171.8c-52.7,0-95.5,48.3-95.5,171.8S2048.4,384.5,2101.2,384.5 M2101.2,5.5
				c-56.4,0-108,20.6-145.5,57.9c-18.7,18.6-33.2,40.7-43.3,65.7c-10.4,25.8-15.6,53.9-15.6,83.6c0,29.7,5.3,57.9,15.7,83.6
				c10.1,25,24.6,47.1,43.3,65.7c37.5,37.3,89.1,57.9,145.4,57.9c56.4,0,108.1-20.6,145.5-57.9c18.7-18.6,33.3-40.7,43.3-65.7
				c10.4-25.8,15.7-53.9,15.7-83.6c0-29.7-5.3-57.9-15.7-83.6c-10.1-25-24.7-47.1-43.4-65.7C2209.2,26,2157.5,5.5,2101.2,5.5
				L2101.2,5.5z M2101.2,374.5c-24.7,0-44.6-11.8-59.1-34.9c-17.5-27.9-26.4-70.6-26.4-126.9c0-56.3,8.9-99,26.5-126.9
				c14.6-23.2,34.4-34.9,59.1-34.9c24.7,0,44.6,11.8,59.1,34.9c17.5,27.9,26.4,70.6,26.4,126.9c0,56.3-8.8,99-26.4,126.9
				C2145.8,362.8,2125.9,374.5,2101.2,374.5L2101.2,374.5z"/>
		</g>
		<g>
			<path class="st9" d="M3408.4,406.3c-72.6,0-83.5-40.4-83.5-64.6v-52.2h109.8v27.3h273.9l-35.5-61.6h-261.9
				c-36,0-86.2-19.1-86.2-50.2V68.1c0-14,9.6-27.7,27-38.6c14.7-9.3,32.9-15,47.4-15h189.1c40.4,0,78.1,21.8,98.3,56.8l34.6,60
				h-119.9l-15.7-27.3h-151.1v61.6h248c36,0,69.7,19.4,87.9,50.7l54.8,94.8c11.5,19.8,11.5,43.5,0.1,63.4
				c-11.5,19.9-32,31.7-54.9,31.7H3408.4z"/>
			<path class="st12" d="M3588.5,19.5c38.7,0,74.6,20.7,94,54.3l30.3,52.5h-108.4l-15.7-27.3h-159v71.5h253
				c34.5,0,66.3,18.4,83.6,48.2l54.8,94.8c22.6,39-5.6,87.6-50.5,87.6h-362.1c-58.5,0-78.5-26.7-78.5-59.6v-47.3h99.9v27.3h287.5
				l-41.3-71.5h-264.8c-34.2,0-81.3-18.4-81.3-45.3V68.1c0-26.9,42.6-48.6,69.4-48.6H3588.5 M3588.5,9.5h-189.1
				c-15.4,0-34.6,6-50.1,15.8c-18.9,11.9-29.3,27.1-29.3,42.8v136.8c0,16.2,11.8,31,33.3,41.6c17.2,8.5,38.8,13.6,57.9,13.6h259.1
				l29.8,51.6h-260.3v-17.3v-9.9h-9.9h-99.9h-9.9v9.9v47.3c0,20.6,7.2,37.8,20.7,49.6c15.1,13.2,37.9,19.9,67.7,19.9h362.1
				c24.7,0,46.9-12.8,59.2-34.2c12.3-21.4,12.3-47-0.1-68.4l-54.8-94.8c-9.4-16.2-22.8-29.6-39-38.9c-16.1-9.3-34.5-14.3-53.2-14.3
				h-243V109h143.3l12.8,22.3l2.9,5h5.7h108.4h17.2l-8.6-14.9l-30.3-52.5C3670,32.3,3630.7,9.5,3588.5,9.5L3588.5,9.5z"/>
		</g>
		<g>
			<path class="st9" d="M2321,406.4l207.8-359.9c11.3-19.7,32.5-31.9,55.2-31.9h39.1c35.2,0,63.9,28.7,63.9,63.9v117.9l86.6-149.9
				c11.3-19.7,32.4-31.9,55.1-31.9h36.8c31.3,0,65.1,16.8,65.1,53.7v338h-109.8V172.1l-118.6,205.6c-10.3,17.7-29.3,28.7-49.7,28.7
				h-12c-31.6,0-57.3-25.7-57.3-57.3v-189l-142.3,246.4H2321z"/>
			<path class="st12" d="M2865.6,19.5c27,0,60.1,13.8,60.1,48.7v333.1h-99.9V153.5l-127.9,221.6c-9.4,16.1-26.7,26.2-45.4,26.2h-12
				c-28.8,0-52.3-23.4-52.3-52.3V141.4l-150.1,260h-108.4l203.5-352.5c10.4-18.2,29.9-29.4,50.9-29.4h39.1
				c32.5,0,58.9,26.4,58.9,58.9v136.5l95.9-165.9c10.4-18.2,29.9-29.4,50.8-29.4H2865.6 M2865.6,9.5h-36.8
				c-24.5,0-47.3,13.2-59.5,34.4L2692,177.8V78.4c0-38-30.9-68.8-68.8-68.8h-39.1c-24.5,0-47.4,13.2-59.6,34.4L2321,396.4l-8.6,14.9
				h17.2H2438h5.7l2.9-5l131.5-227.9V349c0,34.3,27.9,62.3,62.3,62.3h12c22.2,0,42.8-11.9,54-31.1l109.4-189.5v210.7v9.9h9.9h99.9
				h9.9v-9.9V68.2c0-19.2-8.4-35-24.3-45.7C2899,14.3,2882.3,9.5,2865.6,9.5L2865.6,9.5z"/>
		</g>
		<g>
			<path class="st9" d="M3127.1,406.4c-32,0-61-20.1-72.2-50.1L2927.1,14.5h104.7l95.2,254.8l95.3-254.8h104.7l-127.8,341.8
				C3188.2,386.2,3159.1,406.4,3127.1,406.4z"/>
			<path class="st12" d="M3320,19.5l-125.2,335c-10.5,28.2-37.5,46.9-67.6,46.9c-30.1,0-57-18.7-67.5-46.9l-125.2-335h94.1l98.7,264
				l98.8-264H3320 M3334.3,9.5H3320h-94.1h-6.9l-2.4,6.5l-89.5,239.1L3037.7,16l-2.4-6.5h-6.9h-94.1H2920l5,13.4l125.2,335
				c5.9,15.7,16.3,29.1,30.1,38.7c13.8,9.6,30,14.6,46.8,14.6c16.8,0,33-5.1,46.8-14.6c13.8-9.6,24.2-22.9,30.1-38.7L3329.3,23
				L3334.3,9.5L3334.3,9.5z"/>
		</g>
		<g>
			<path class="st9" d="M1577.2,406.4v-27.3h20.4c20.5,0,30.9-10.5,30.9-31.3V66.7c0-14.4-11.6-27-24.8-27h-26.5V14.5H1892v117.9
				h-26.9v-5c0-3.9-0.5-24.5-11.4-43.7c-13.6-24.1-37.5-36.3-71.1-36.3h-57.8v138.4h7c48.4,0,53.6-51,53.6-72.9v-5h25.7V303h-25.7
				v-5c0-47.8-20-76.4-53.5-76.4h-7v128.8c0,11,8.9,19.9,19.9,19.9l43.8,0c0.7,0,1.5,0,2.2,0c46.8,0,89-37.7,98-87.8l0.7-4.1h24.7
				l-18.9,127.8H1577.2z"/>
			<path class="st12" d="M1887,19.5v26.2v81.8h-16.9c0-9.7-2.9-85.1-87.4-85.1h-62.8v148.3h11.9c39.5,0,58.6-32.6,58.6-77.9h15.7
				v89.4v4.7V298h-15.7c0-51.4-22.8-81.4-58.5-81.4H1720v133.8c0,13.7,11.1,24.9,24.9,24.9h43.7c0.8,0,1.6,0,2.3,0
				c49.7,0,93.6-40.3,102.9-91.8h14.8l-17.4,117.9h-257.7h-51.2v-17.3h15.4c16.5,0,35.9-6.7,35.9-36.3V66.7
				c0-16.4-13.3-31.9-29.7-31.9h-21.5V19.5H1887 M1897,9.5h-9.9h-304.7h-9.9v9.9v15.2v9.9h9.9h21.5c10.4,0,19.8,10.5,19.8,22v281.1
				c0,10.1-2.7,17.3-7.9,21.4c-5.3,4.1-12.7,4.9-18,4.9h-15.4h-9.9v9.9v17.3v9.9h9.9h51.2h257.7h8.6l1.3-8.5l17.4-117.9l1.7-11.4
				h-11.5h-14.8h-8.3l-1.5,8.2c-8.6,47.7-48.6,83.7-93.1,83.7c-0.7,0-1.4,0-2.1,0l-0.1,0h-0.1h-43.7c-8.2,0-14.9-6.7-14.9-14.9
				V226.6h2c14.6,0,26.2,5.8,34.6,17.3c9.1,12.5,13.9,31.2,13.9,54.1v9.9h9.9h15.7h9.9V298v-91.1v-4.7v-89.4v-9.9h-9.9h-15.7h-9.9
				v9.9c0,21-4.4,38.4-12.7,50.2c-8.3,11.8-20.4,17.7-36,17.7h-2V52.3h52.8c31.7,0,54.1,11.4,66.8,33.8
				c10.2,18.1,10.7,37.6,10.7,41.3v9.9h9.9h16.9h9.9v-9.9V45.7V19.5V9.5L1897,9.5z"/>
		</g>
		<g>
			<path class="st9" d="M399.2,406.4v-27.3h20.4c20.5,0,30.9-10.5,30.9-31.3V66.7c0-14.4-11.6-27-24.8-27h-26.6V14.5h314.7v117.9
				H687v-5c0-3.9-0.5-24.5-11.4-43.7c-13.6-24.1-37.5-36.3-71.1-36.3h-57.8v138.4h7c48.4,0,53.6-51,53.6-72.9v-5H633V303h-25.7v-5
				c0-47.8-20-76.4-53.5-76.4h-7v128.8c0,11,8.9,19.9,19.9,19.9l43.8,0c0.7,0,1.5,0,2.2,0c46.8,0,89-37.7,98-87.8l0.7-4.1h24.9
				l-18.9,127.8H399.2z"/>
			<path class="st12" d="M708.9,19.5v26.2v81.8H692c0-9.7-2.9-85.1-87.4-85.1h-62.8v148.3h11.9c39.5,0,58.6-32.6,58.6-77.9H628v89.4
				v4.7V298h-15.7c0-51.4-22.8-81.4-58.5-81.4h-11.9v133.8c0,13.7,11.1,24.9,24.9,24.9h43.7c0.8,0,1.6,0,2.3,0
				c49.7,0,93.6-40.3,102.9-91.8h15l-17.4,117.9H455.4h-51.2v-17.3h15.4c16.5,0,35.9-6.7,35.9-36.3V66.7c0-16.4-13.3-31.9-29.7-31.9
				h-21.6V19.5H708.9 M718.8,9.5h-9.9H404.2h-9.9v9.9v15.2v9.9h9.9h21.6c10.4,0,19.8,10.5,19.8,22v281.1c0,10.1-2.7,17.3-7.9,21.4
				c-5.3,4.1-12.7,4.9-18,4.9h-15.4h-9.9v9.9v17.3v9.9h9.9h51.2h257.8h8.6l1.3-8.5L740.5,285l1.7-11.4h-11.5h-15h-8.3l-1.5,8.2
				c-8.6,47.7-48.6,83.7-93.1,83.7c-0.7,0-1.4,0-2.1,0l-0.1,0h-0.1h-43.7c-8.2,0-14.9-6.7-14.9-14.9V226.6h2
				c14.6,0,26.2,5.8,34.6,17.3c9.1,12.5,13.9,31.2,13.9,54.1v9.9h9.9H628h9.9V298v-91.1v-4.7v-89.4v-9.9H628h-15.7h-9.9v9.9
				c0,21-4.4,38.4-12.7,50.2c-8.3,11.8-20.4,17.7-36,17.7h-2V52.3h52.8c31.7,0,54.1,11.4,66.8,33.8c10.2,18.1,10.7,37.6,10.7,41.3
				v9.9h9.9h16.9h9.9v-9.9V45.7V19.5V9.5L718.8,9.5z"/>
		</g>
	</g>
	<g>
		<g>
			<g>
				<g>
					<path class="st9" d="M392.9,19.5H276.8v15.2H292c20.3,0,36.7,18.9,36.7,39.1v188.4L130.8,19.5H9.9v15.2
						c27,0,48.2,24.4,48.2,51.4v264c0,27-28.5,36-48.2,36v15.2h131.2v-15.2c-24.6-0.1-37.6-3.5-46-11.4c-8.4-8-10.6-18.5-10.6-33
						V94.2l256.4,312.6h14V74.2c0-19.7,15.4-36.4,38.1-37.2L392.9,19.5L392.9,19.5z"/>
					<circle class="st9" cx="1167.3" cy="209.2" r="44.3"/>
					<path class="st9" d="M1416.7,222.7v18.4h14.4c23.4,0,30,11.3,30,31.4v90.2c-5.4,6.6-23.7,14.8-49.4,14.8
						c-5.3,0-35.1-0.6-57.5-18.9c-23.4-19.2-39.1-58-39.1-150.3c0-120.2,42.3-171,103.6-171c19.9,0,87.5,13.4,116.3,100.4h18V12.4
						h-17c-2.2,16.9-15.5,26.3-40.7,15.7c-37.9-15.8-71.9-18.2-96.8-18.2c-98,0-181.5,90.8-181.5,199.3
						c0,124.9,94.3,198.1,195.6,198.1c48,0,98.9-11,139.2-31.4V272.7c0-24.2,16.9-31.4,39.6-31.4v-18.4L1416.7,222.7L1416.7,222.7z"
						/>
					<path class="st9" d="M923.1,15.4c-109.9,0-194.5,80.9-194.5,197.3S813.2,410,923.1,410c109.9,0,194.6-80.9,194.6-197.3
						S1032.9,15.4,923.1,15.4z M923.1,384.5c-52.8,0-95.5-48.3-95.5-171.8s42.8-171.8,95.5-171.8c52.8,0,95.5,48.3,95.5,171.8
						C1018.7,336.1,975.8,384.5,923.1,384.5z"/>
					<path class="st9" d="M2101.2,15.4c-109.9,0-194.5,80.9-194.5,197.3S1991.4,410,2101.2,410c109.9,0,194.6-80.9,194.6-197.3
						S2211,15.4,2101.2,15.4z M2101.2,384.5c-52.8,0-95.5-48.3-95.5-171.8s42.8-171.8,95.5-171.8c52.8,0,95.5,48.3,95.5,171.8
						C2196.8,336.1,2154,384.5,2101.2,384.5z"/>
				</g>
			</g>
			<g>
				<g>
					<g>
						<path class="st8" d="M3682.7,170.6h-253V99.1h159l15.7,27.3h108.4l-30.3-52.5c-19.4-33.6-55.3-54.3-94-54.3h-189.1
							c-26.9,0-69.4,21.8-69.4,48.6v136.8c0,26.9,47.1,45.3,81.3,45.3H3676l41.3,71.5h-287.5v-27.3h-99.9v47.3
							c0,32.9,20,59.6,78.5,59.6h362.1c45,0,73.1-48.6,50.5-87.6l-54.8-94.8C3748.9,189,3717.2,170.6,3682.7,170.6z"/>
						<g>
							<path class="st8" d="M2777.9,48.9L2682,214.9V78.4c0-32.5-26.4-58.9-58.9-58.9h-39.1c-21,0-40.5,11.2-50.9,29.4l-203.5,352.5
								H2438l150.1-260V349c0,28.9,23.5,52.3,52.3,52.3h12c18.7,0,36-10,45.4-26.2l127.9-221.6v247.8h99.9V68.2
								c0-34.9-33.1-48.7-60.1-48.7h-36.8C2807.9,19.5,2788.4,30.7,2777.9,48.9z"/>
						</g>
						<g>
							<path class="st8" d="M3194.8,354.5l125.2-335h-94.1l-98.8,264l-98.7-264h-94.1l125.2,335c10.5,28.2,37.4,46.9,67.5,46.9l0,0
								C3157.3,401.4,3184.2,382.7,3194.8,354.5z"/>
						</g>
					</g>
				</g>
			</g>
		</g>
		<path class="st9" d="M1893.8,283.5c-9.5,52.3-54.6,93.1-105.2,91.8h-43.7c-13.7,0-24.9-11.1-24.9-24.9V216.7h11.9
			c35.7,0,58.5,29.9,58.5,81.4h15.7v-91.1v-4.7v-89.4h-15.7c0,45.3-19.1,77.9-58.6,77.9h-11.9V42.4h62.8c84.6,0,87.4,75.3,87.4,85.1
			h16.9V45.7V19.5h-304.7v15.2h21.5c16.4,0,29.7,15.5,29.7,31.9v281.1c0,29.6-19.4,36.3-35.9,36.3h-15.4v17.3h51.2h257.7l17.4-117.9
			H1893.8z"/>
		<path class="st9" d="M715.6,283.5c-9.5,52.3-54.6,93.1-105.2,91.8h-43.7c-13.7,0-24.9-11.1-24.9-24.9V216.7h11.9
			c35.7,0,58.5,29.9,58.5,81.4H628v-91.1v-4.7v-89.4h-15.7c0,45.3-19.1,77.9-58.6,77.9h-11.9V42.4h62.8c84.6,0,87.4,75.3,87.4,85.1
			h16.9V45.7V19.5H404.2v15.2h21.6c16.4,0,29.7,15.5,29.7,31.9v281.1c0,29.6-19.4,36.3-35.9,36.3h-15.4v17.3h51.2h257.8l17.4-117.9
			H715.6z"/>
	</g>
</g>
</svg>
