<?xml version="1.0" encoding="utf-8"?>
<!-- Generator: Adobe Illustrator 26.3.1, SVG Export Plug-In . SVG Version: 6.00 Build 0)  -->
<svg version="1.1" id="Layer_1" xmlns="http://www.w3.org/2000/svg" xmlns:xlink="http://www.w3.org/1999/xlink" x="0px" y="0px"
	 viewBox="0 0 3839 1404.7" style="enable-background:new 0 0 3839 1404.7;" xml:space="preserve">
<style type="text/css">
	.st0{fill:#FFFFFF;}
	.st1{fill:#E65D0D;}
	.st2{fill:#FF2400;}
	.st3{fill:#FFE600;}
	.st4{font-family:'HelveticaNeueLTStd-Md';}
	.st5{font-size:103.5299px;}
	.st6{fill:#000206;}
	.st7{fill:#FFFDF9;}
	.st8{fill:#A1853E;}
	.st9{fill:#76CEFF;}
	.st10{fill:#0076CE;}
</style>
<g>
	<g>
		<polygon class="st0" points="301.9,1009.3 6.6,5 3832.4,5 3537.1,1009.3 1919.5,1399.6 		"/>
		<path class="st0" d="M3825.7,9.9l-292.6,995.2c0,0-1613.6,389.3-1613.6,389.3L305.9,1005.1L13.3,9.9H3825.7 M3839,0h-13.3H13.3H0
			l3.7,12.7l292.6,995.2l1.6,5.5l5.6,1.3l1613.6,389.3l2.3,0.6l2.3-0.6c16.1-3.9,1612.3-389,1613.6-389.3l5.6-1.3l1.6-5.5
			l292.6-995.2L3839,0L3839,0z"/>
	</g>
	<polygon class="st3" points="3533.1,1005.1 1919.5,1394.4 305.9,1005.1 13.3,9.9 3825.7,9.9 	"/>
	<g>
		<polygon points="1005.5,923.9 847.3,888.2 847.3,498.5 1005.5,498.5 		"/>
		<rect x="1840.4" y="571.6" width="158.2" height="555.8"/>
		<path d="M2935.7,362.3c-159.6,0-293.5,129.4-299.1,289c-5.6,159.6,119.3,289,278.9,289c159.6,0,293.5-129.4,299.1-289
			C3220.2,491.7,3095.3,362.3,2935.7,362.3z M2920.8,790.7c-77,0-137.2-62.4-134.5-139.4c2.7-77,67.3-139.4,144.3-139.4
			c77,0,137.2,62.4,134.5,139.4C3062.4,728.3,2997.8,790.7,2920.8,790.7z"/>
		<g>
			<polygon points="2448,1010.8 2289.8,1046.5 2289.8,546.4 2448,546.4 			"/>
			<polygon points="2583.8,613.4 2108.2,709.9 2108.2,564.7 2583.8,472.4 			"/>
		</g>
		<g>
			<polygon points="685,497.8 1178,597.8 1178,457.4 685,361.7 			"/>
		</g>
		<polygon points="1584.8,968.2 1312.4,908.2 1333.7,771.1 1580.7,823.4 		"/>
		<polygon points="1373.3,495.3 1187.3,964.9 1332.6,997.7 1520.2,523.8 		"/>
		<polygon points="1579.7,535.3 1413,503 1556.4,1048.2 1724.6,1086.1 		"/>
		<g>
			<path d="M1919.5,439.7L139.6,111.4l246.1,819.6l1533.7,360.7l1533.7-360.7l246.1-819.6L1919.5,439.7z M3407.9,888.1
				l-1488.4,344.8L431.1,888.1L215.3,178.1l1704.2,320.3l1704.2-320.3h0L3407.9,888.1z"/>
			<path d="M1919.5,351.6L13.3,9.9l292.6,995.2l1613.6,389.3c0,0,1613.6-389.3,1613.6-389.3L3825.7,9.9L1919.5,351.6z M3476,952.2
				L1919.5,1321L363,952.2l-260.9-874l1817.4,332.1L3736.9,78.2L3476,952.2z"/>
		</g>
		<polygon points="3736.9,78.2 102.1,78.2 13.3,9.9 3825.7,9.9 		"/>
		<text transform="matrix(1 0 0 1 1553.7822 217.0891)" class="st4 st5">MADE IN U.S.A.</text>
	</g>
</g>
</svg>
