<?xml version="1.0" encoding="utf-8"?>
<!-- Generator: Adobe Illustrator 25.4.1, SVG Export Plug-In . SVG Version: 6.00 Build 0)  -->
<svg version="1.1" id="Layer_1" xmlns="http://www.w3.org/2000/svg" xmlns:xlink="http://www.w3.org/1999/xlink" x="0px" y="0px"
	 viewBox="0 0 3839 807.3" style="enable-background:new 0 0 3839 807.3;" xml:space="preserve">
<style type="text/css">
	.st0{fill:#FFFFFF;}
	.st1{fill:#EC2024;}
</style>
<g>
	<g>
		<g>
			<g>
				<path d="M1621.5,383.5c-7.3,0-14.6-1.6-21.7-4.7c-26.6-11.7-36.8-40.9-24.3-69.3c18.2-40.9,50.9-44.1,60.5-44.1
					c6.6,0,12.8,1.2,18.1,3.5c11.6,5.1,20.6,14.6,25.3,26.7c5.7,14.6,4.8,31.8-2.5,48.3C1666.2,367.9,1644.5,383.5,1621.5,383.5
					L1621.5,383.5z"/>
				<path class="st0" d="M1636,270.4c6.1,0,11.6,1.1,16.1,3.1c23.9,10.5,32.9,39.6,20.2,68.3c-9.2,21-28.7,36.7-50.7,36.7
					c-6.4,0-13-1.3-19.7-4.3c-22.3-9.8-34-34.9-21.8-62.8C1593.5,281.2,1617.3,270.4,1636,270.4 M1636,260.4
					c-8.6,0-21.7,1.9-35.4,10.8c-12.7,8.3-22.7,20.4-29.7,36.2c-6.9,15.7-7.7,31.5-2.3,45.7c5.1,13.4,15.5,24.2,29.1,30.2
					c7.7,3.4,15.7,5.1,23.7,5.1c24.9,0,48.4-16.7,59.8-42.6c7.8-17.7,8.8-36.2,2.6-52.1c-5.1-13.3-15-23.7-27.9-29.4
					C1650.2,261.8,1643.3,260.4,1636,260.4L1636,260.4z"/>
			</g>
			<g>
				<path d="M950.4,383.5c-7.3,0-14.6-1.6-21.7-4.7c-26.6-11.7-36.8-40.9-24.3-69.3c18.2-40.9,50.9-44.1,60.5-44.1
					c6.6,0,12.8,1.2,18.1,3.5c11.6,5.1,20.6,14.6,25.3,26.7c5.7,14.6,4.8,31.8-2.5,48.3C995.1,367.9,973.4,383.5,950.4,383.5
					L950.4,383.5z"/>
				<path class="st0" d="M964.9,270.4c6.1,0,11.6,1.1,16.1,3.1c23.9,10.5,32.9,39.6,20.2,68.3c-9.2,21-28.7,36.7-50.7,36.7
					c-6.4,0-13-1.3-19.7-4.3c-22.3-9.8-34-34.9-21.8-62.8C922.4,281.2,946.2,270.4,964.9,270.4 M964.9,260.4
					c-8.6,0-21.7,1.9-35.4,10.8c-12.7,8.3-22.7,20.4-29.7,36.2c-6.9,15.7-7.7,31.5-2.3,45.7c5.1,13.4,15.5,24.2,29.1,30.2
					c7.7,3.4,15.7,5.1,23.7,5.1c24.9,0,48.4-16.7,59.8-42.6c7.8-17.7,8.8-36.2,2.6-52.1c-5.1-13.3-15-23.7-27.9-29.4
					C979.1,261.8,972.2,260.4,964.9,260.4L964.9,260.4z"/>
			</g>
			<g>
				<path d="M1432.7,798.3c-18.9,0-34.5-7.2-45-20.9c-9.7-12.5-14.8-29.7-14.8-49.9c0-28.2,11.6-61,36.6-102.3
					c-15.3,17.9-30.2,35.3-41.1,48.2l-5,5.9c-46.6,55-105.1,118-143.9,118c-32.5,0-58.9-33.9-58.9-75.5c0-18.2,6.4-44.8,14.5-60.5
					c30.8-59.4,55.5-104.5,73.2-136.1c-33.6,43.5-61.3,83.2-83.1,114.4c-15.3,21.9-28.5,40.8-39.3,54.7
					c-31.4,40.5-52.9,64.3-71.7,79.3c-20.5,16.4-39.4,23.7-61.3,23.7c-32.5,0-58.9-33.9-58.9-75.5c0-18.2,6.4-44.8,14.5-60.5
					c30.8-59.4,55.6-104.5,73.2-136.1c-37.3,48.3-67,91.6-90.1,125.4c-11.7,17.1-21.9,31.9-30.4,43.5l-4.5,6.1
					c-50.7,69.3-71.7,98-130.8,98c-18.9,0-34.5-7.2-45-20.9c-9.7-12.5-14.8-29.7-14.8-49.9c0-29.1,12.4-63.3,39.3-106.7
					c-12.9,14.9-27.2,32-43.2,51.6l-7.3,9L690,643c0,0,15-18.7,22.2-27.7c32.7-40.7,69.7-86.9,112.5-140.8l1.5-1.9h110l-4.1,7.4
					c-48.7,87.6-83.5,150.8-106.8,195c-23.4,44.3-35.2,69.9-35.2,76.2c0,2,0,3.6,4.6,3.6c22,0,48.8-25.5,98.7-94.2
					c59.6-82.2,116-163,154.8-221.9c43.1-65.4,173.8-262,175.1-263.9l1.5-2.2h97.5l-4.2,7.4c-0.7,1.3-74,130.8-158.7,283.9
					c-25.3,45.9-47.9,86.2-67.8,121.7c-51,90.8-84.7,150.8-84.7,167.6c0,3.1,1.7,7.5,4.6,7.5c2.1,0,12.9-4.2,34.6-22.9
					c15.5-13.3,40.6-37.6,72.3-77.3c65.7-82.5,155.5-220.3,156.4-221.7l176.6-266.2h97.5l-4.2,7.4c-0.7,1.3-74,130.8-158.8,283.9
					c-25.3,45.9-47.9,86.2-67.8,121.7c-51,90.8-84.7,150.8-84.7,167.6c0,3,1.6,7.2,4.3,7.4c11.3-3.9,86.1-79.4,118.3-116.5
					c24.7-28.3,55.9-68.2,89-110.4c15-19.2,30.6-39,46.6-59.2l1.5-1.9h110l-4.1,7.4c-69.8,125.7-142,255.6-142,271.2
					c0,2,0,3.6,4.6,3.6c23.5,0,55.5-37.3,102.8-101.8c43.4-60.5,88.9-107.8,135.3-140.5c42.4-29.8,83.4-45.6,118.7-45.6
					c14.9,0,29,4.6,40.9,13.4c11,8.1,19.7,19.4,26.1,33.7l20.6-34.7h2.8c2.4,0,4.6-0.2,7-0.5c2.5-0.3,5-0.5,7.9-0.5
					c18.2,0,37,1,55.2,1.9c7.2,0.4,14.1,0.7,20.7,1l7.6,0.3l-3.3,6.8c-20.5,42.1-39.8,74.6-53.8,98.3c-3.9,6.6-7.5,12.7-10.7,18.3
					c-6.8,12.1-13.3,23.4-19.4,34c-33.5,58.8-55.7,97.7-55.7,109.4c0,3.7,2,7.5,5.5,7.5c23.3,0,52.6-33.9,101.8-100.7
					c38.6-52.5,75.1-102.1,107.1-135.9c34.8-36.7,62.3-53.1,89.1-53.1c26.9,0,45,21.9,45,54.5c0,30.2-11.9,58.9-27.1,90.6
					c69.2-93.1,123.8-149,172.6-149c13,0,25.7,6.5,34.9,18c9.3,11.6,14.5,27.3,14.5,44.2c0,32.4-13.2,63.5-30.7,101.6
					c70.2-92.6,126.2-164.7,178.7-164.7c35.8,0,58.9,31.1,58.9,79.3c0,38-14.5,77.1-48.6,130.4c-25.5,39.7-39.1,74.4-39.2,79.3
					c0,3,3.2,4.6,5.5,4.6c21.4,0,46.6-31.8,84.7-79.9c5.3-6.6,10.8-13.6,16.6-20.9c45.3-60.8,104.1-138.4,157.2-199.5
					c12.3-33.3,38-58,52.9-58c4.1,0,7.4,1.8,9.3,5c4.5,7.6-1.5,14.9-7.8,22.7c-8,9.9-19.1,23.4-19.1,44.5c0,13.5,9.9,32.8,21.4,55.2
					c20.9,40.7,49.4,96,36.8,157.2c6.9-7.9,17.2-21,27.3-33.9c3.4-4.3,6.9-8.9,10.7-13.6l3.7-4.7l17.6,20.4l-1.8,3.1
					c-1.6,2.8-40.5,69-92.6,109.7c-27.8,21.6-59.1,33-90.5,33l0,0c-29.1,0-57.5-9.6-79.8-27c-20.9-16.3-33.4-37.6-33.4-57
					c0-35.9,25.5-57.4,50.2-57.4c24,0,41.5,19.7,41.5,47c0,24.6-13.9,39.9-39.2,43.5c2.9,7.9,13.4,11.9,19.7,11.9
					c14.9,0,34-24.5,52.4-67.1c15.9-36.9,27.4-78.6,29.3-97.7c1.8-18.2,4.8-72.8-0.3-98.8c-0.5,0.6-1,1.1-1.4,1.6
					c-4.4,5-6.5,7.5-8.4,8.5c-48.1,52.8-77.3,92.7-121.5,153.1c-3.8,5.2-7.8,10.6-11.8,16.1l-0.1,0.1l-0.1,0.1
					c-7.3,8.7-14.3,17.2-21.1,25.4c-45,54.6-80.6,97.8-119.9,97.8c-37.6,0-65-33-65-78.4c0-39.3,19.3-74.1,57.6-143.5
					c7.6-13.8,16.3-29.5,25.6-46.7c4.3-8.2,8.9-19.5,8.9-23.4c0-1.1-0.2-1.5-0.3-1.6l0,0c0,0-0.3-0.1-0.8-0.1
					c-11.9,0-41.4,19-88.4,72.3c-33.4,37.9-86.7,105.9-150.9,214.1l-1.4,2.4h-108.2l3.5-7.2c6.4-13.1,16.7-31.4,30.9-56.7
					c14.7-26.2,33-58.8,54.4-98.8c7.4-14,14.5-27,20.7-38.5c21-38.8,36.1-66.8,36.1-77.4c0-7.5-3-7.5-4.8-7.5
					c-8.6,0-28.5,11.1-58.8,42.4c-60.7,61.8-110.4,143.5-168,238.2l-3.3,5.5H1992l3.2-7.1c26.4-57.5,62.2-117.5,91-165.7
					c28.9-48.4,53.8-90.1,53.8-103.9c0-2.1-0.6-4.6-3.7-4.6c-3.4,0-15.7,5.1-55.7,51.9c-25.9,30.4-54.5,67.6-77.4,97.5
					c-9.4,12.2-17.5,22.8-23.9,31c-25.4,32-88.6,106.5-128.9,106.5c-32.6,0-56.3-25.7-56.3-61.2c0-4.7,0.2-11.8,0.9-18.9
					c-46.4,49.4-79.6,79.2-125.5,79.2c-31.8,0-51.2-17.1-61.9-31.5c-13-17.5-20.4-40.8-20.4-64c0-12.3,2.1-26.4,5.9-40.3
					c-6.6,8.4-14.3,18.4-20.7,27.8l-3.8,5.2C1516.2,765.3,1492.2,798.3,1432.7,798.3z M1804.2,520.8
					c-22.4,18.4-54.1,60.2-82.7,109.1c-28.8,49.2-46.7,92.5-46.7,113c0,14.1,6.3,16,12.4,16c25.3,0,62.3-32.4,109.9-96.2
					c37-49.7,59.9-86.9,59.8-119.1c0-22.6-8.9-36-23.7-36C1825.5,507.6,1814.9,512.4,1804.2,520.8z"/>
				<path class="st0" d="M1540.5,177.8c0,0-73,129-158.8,283.9c-93.9,170.6-153.1,266.9-153.1,291.7c0,5.8,3.5,12.4,9.6,12.4
					c10.4,0,93.9-86.2,121.8-118.2c35.7-41,83.5-104,135.7-169.7h99.2c-94.8,170.6-142.7,258.4-142.7,273.6c0,6.7,4.4,8.6,9.6,8.6
					c24.4,0,54.2-32.1,106.8-103.9c90.4-126.2,183.9-184,250-184c26.1,0,53,15.3,66.1,53.4l24.4-41c5.3,0,9.6-1,14.8-1
					c25.3,0,52.2,1.9,75.7,2.9c-26.1,53.4-49.5,90.5-64.4,116.3c-47.1,83-75.7,130.6-75.7,145.8c0,6.8,4.4,12.4,10.4,12.4
					c25.3,0,54-32.4,105.8-102.8c82.3-111.8,138.3-187,192.2-187c24.4,0,40,20,40,49.5c0,43.8-26.1,84.8-50.4,138.2
					c85.3-120.1,147.9-191.6,201-191.6c23.5,0,44.4,23.9,44.4,57.2c0,42-23.5,83-48.7,140.2c80-104.9,145.2-198.3,201.7-198.3
					c32.1,0,53.9,27.6,53.9,74.3c0,40-17.4,80.1-47.9,127.7c-25.2,39.1-40,75.3-40,82c0,5.8,5.3,9.6,10.4,9.6
					c27,0,55.7-40.8,105.3-102.7c48-64.5,105.4-139.9,157.6-200c12.1-33.3,37-55.6,48.6-55.6c2.2,0,4,0.8,5,2.6
					c6.7,11.1-27.6,25.7-27.6,64.7c0,42,81.2,122.4,56.8,218.1c-1.1,4.3-0.9,6.2,0.3,6.2c4.4,0,22.2-23.7,47.9-56.4l11.3,13.1
					c0,0-39.4,67.7-91.3,108.2c-29.4,22.9-59.8,32-87.5,32c-60.2,0-108.2-42.8-108.2-79c0-31.4,21.8-52.4,45.3-52.4
					c20.9,0,36.5,17.2,36.5,42s-14.7,37.2-40,39.1c0,14.3,15.9,21.3,25.5,21.3c40.3,0,82.7-130.6,86.6-169.3
					c2.1-20.6,5.6-86.8-2.7-108.6c0-0.1-0.1-0.1-0.1-0.1c-1.5,0-13.4,15.3-14.9,15.3c-0.1,0-0.1,0-0.1-0.1
					c-53,58.1-83.7,101.2-134.6,170.6c-55.1,65.7-94.6,121.5-137.2,121.5c-34.7,0-60-30.5-60-73.4c0-45.8,27.9-86.7,82.7-187.8
					c3.5-6.7,9.6-20,9.6-25.8c0-4.8-2.6-6.7-6.1-6.7c-32.2,0-132.2,101.1-243.5,288.9h-97.4c13-26.7,43.5-77.2,85.3-155.4
					c33.9-63.9,57.4-103,57.4-118.2c0-8.3-3.5-12.4-9.8-12.4c-11.9,0-34,14.6-62.4,43.9c-61.8,62.9-113.1,147.7-170.5,242.1h-100.3
					C2053.7,668.4,2145,543.6,2145,514c0-5.8-3.5-9.6-8.7-9.6c-25.3,0-123.3,134.5-161,182.3c-25.3,31.9-87.5,104.7-124.9,104.7
					c-30.4,0-51.3-23.8-51.3-56.2c0-9.6,0.9-25.8,3.5-34.3c-50.4,54.3-85.3,89.6-133.1,89.6c-51.3,0-77.4-48.5-77.4-90.5
					c0-17.2,4.5-40.7,14-62.7c0.1-0.2,0.1-0.3,0-0.3c-1.3,0-23.2,26.3-37.9,47.8c-54.6,75.5-77.2,108.6-135.5,108.6
					c-36.5,0-54.8-28.6-54.8-65.8c0-45.8,32.2-102,86.2-171.6c-26.1,27.7-78.6,89.7-104.4,120.1c-29.4,34.7-99.2,116.3-140.1,116.3
					c-30.4,0-53.9-32.4-53.9-70.5c0-17.2,6.1-43,13.9-58.2c58.3-112.4,94.8-173.5,102.7-188.7c-77.4,93.4-128.6,175.8-160.2,216.4
					c-57.8,74.5-88.1,101.1-129,101.1c-30.4,0-53.9-32.4-53.9-70.5c0-17.2,6.1-43,13.9-58.2c58.3-112.4,94.8-173.5,102.7-188.7
					c-77.4,93.4-128,175-158.4,216.4c-53.6,73.2-73,102.1-131.3,102.1c-36.5,0-54.8-28.6-54.8-65.8c0-45.8,32.2-102,86.2-171.6
					c-26.1,27.7-57.1,62-98.9,113.4l-3.2-24.7c37.4-46.7,81.2-101.1,133.4-166.8H928c-94.8,170.6-142.7,258.4-142.7,273.6
					c0,6.7,4.4,8.6,9.6,8.6c24.4,0,52.3-27,102.8-96.3c62.9-86.6,117.7-165.5,154.9-222c43.6-66.2,175.1-263.9,175.1-263.9h86.3
					c0,0-73,129-158.8,283.9c-93.9,170.6-153.1,266.9-153.1,291.7c0,5.8,3.5,12.4,9.6,12.4c10.4,0,53.6-30.3,110.8-102.1
					c66.7-83.7,156.7-222,156.7-222l175.1-263.9h86.2 M1687.2,763.8c28.7,0,67-35.3,113.9-98.2c38.3-51.4,60.9-88.6,60.8-122.1
					c0-24.8-10.3-41-28.7-41c-8.7,0-20,4.8-32.1,14.3c-48.6,40-131.3,179.2-131.3,225.9C1669.8,756.2,1675.1,763.8,1687.2,763.8
					 M1557.5,167.8h-17.1h-86.3h-5.3l-3,4.4l-175.1,263.9l0,0l0,0c-0.9,1.4-90.5,138.9-156.1,221.3c-30.4,38.1-54.7,61.8-69.7,74.9
					c-18,15.7-28.6,21.6-32.5,23.1c-0.2-0.6-0.4-1.3-0.4-2.1c0-4.5,3.7-17.1,21.4-51.4c14.5-28.1,35.8-65.9,62.6-113.8
					c19.9-35.5,42.5-75.8,67.8-121.7c84.7-153.1,158-282.5,158.7-283.8l8.4-14.8H1314h-86.3h-5.3l-3,4.4c-1.3,2-132,198.5-175.1,264
					c-38.7,58.8-95.1,139.6-154.6,221.7c-25.7,35.3-44.7,58.4-59.9,72.8c-13.7,13-24.6,19.1-34.1,19.4c0.6-2.4,2.5-8.2,8.4-20.9
					s14.6-30,26.8-53.1c23.3-44.1,57.8-106.7,106-193.3l8.2-14.8H928h-99.2H824l-3,3.8c-42.8,53.9-79.8,100-112.5,140.7
					c-7.2,9-14.2,17.6-20.9,26.1l-2.6,3.3l0.5,4.2l3.2,24.7l3,23l14.6-18c4-4.9,7.8-9.6,11.6-14.1c-11.1,24.6-16.5,46.3-16.5,66.1
					c0,21.3,5.5,39.6,15.8,52.9c11.6,14.9,28.5,22.8,49,22.8c30.1,0,51.7-7.3,72.2-24.5c19.3-16.2,37.5-41,62.6-75.5l4.5-6.1
					c8.6-11.7,18.7-26.5,30.5-43.7c13.4-19.5,28.9-42.3,46.9-67.3c-11.5,21.3-24.4,45.6-38.5,72.8c-8.4,16.3-15,43.9-15,62.8
					c0,20.8,6.2,40.5,17.5,55.5c12.1,16.1,28.5,24.9,46.3,24.9c23.1,0,43-7.6,64.4-24.8c19.1-15.3,40.8-39.3,72.5-80.1
					c10.8-14,24.1-32.9,39.4-54.9c11.7-16.8,25.1-36,40.2-56.9c-11.6,21.5-24.6,45.9-38.8,73.5c-8.4,16.3-15,43.9-15,62.8
					c0,20.8,6.2,40.5,17.5,55.5c12.1,16.1,28.5,24.9,46.3,24.9c20.5,0,47-15.6,81.2-47.8c27.3-25.8,52.8-55.8,66.5-72l4.9-5.8
					c3.5-4.1,7.4-8.7,11.5-13.6c-10.6,24-15.8,45.2-15.8,64.5c0,21.3,5.5,39.6,15.8,52.9c11.6,14.9,28.5,22.8,49,22.8
					c30.2,0,52.5-8.2,74.3-27.3c20.2-17.6,39.2-44,65.5-80.4l3.7-5.1l0.1-0.1l0.1-0.1c2.3-3.4,4.7-6.8,7.2-10.2
					c-1,6.9-1.5,13.6-1.5,19.8c0,24.3,7.8,48.7,21.4,66.9c7.7,10.3,16.9,18.4,27.5,24.1c11.6,6.3,24.6,9.4,38.5,9.4
					c24.6,0,47.3-8.4,71.5-26.4c15.6-11.6,31.1-26.6,48.2-44.4c-0.1,2.9-0.1,4.9-0.1,5.6c0,38.3,25.8,66.2,61.3,66.2
					c19.1,0,43.3-14.1,73.9-43.1c24.9-23.6,47.6-51.1,58.9-65.4c6.5-8.2,14.6-18.8,24-31c22.4-29.2,50.3-65.5,75.7-95.5
					c13.7-16.1,25.3-28.8,34.5-37.5c9.8-9.4,15.2-12.7,17.6-13.8c-0.4,3.6-3.1,12.5-14.5,34c-9.7,18.1-23,40.5-38.5,66.3
					c-28.8,48.3-64.7,108.4-91.3,166.2l-6.5,14.1h15.5h100.3h5.6l2.9-4.8l1.9-3.1c57.4-94.4,106.9-175.9,167.2-237.3l0,0l0,0
					c30.7-31.6,48.8-40.5,54.9-40.8c0.1,0.5,0.2,1.3,0.2,2.5c0,9.4-16.5,39.8-35.5,75c-6.2,11.5-13.3,24.5-20.7,38.5
					c-21.3,40-39.7,72.5-54.4,98.7c-14.3,25.4-24.6,43.7-31,57l-7,14.3h15.9h97.4h5.7l2.9-4.9c64-107.9,117.1-175.6,150.3-213.4
					c41.8-47.5,67.7-65.3,79.7-69.6c-1.4,4.3-4.1,10.6-7.3,16.7c-9.3,17.2-18,32.8-25.6,46.6c-38.8,70.2-58.3,105.4-58.3,145.9
					c0,48.3,29.4,83.4,69.9,83.4c41.6,0,77.9-44,123.7-99.6c1.2-1.4,2.3-2.8,3.5-4.2c-1,4.7-1.5,9.7-1.5,14.7
					c0,10.6,3.4,22,9.8,32.7c6.1,10.2,14.9,19.9,25.5,28.2c23.2,18.1,52.6,28,82.8,28c32.6,0,64.9-11.8,93.6-34.1
					c52.8-41.2,92.2-108.3,93.8-111.1l3.6-6.1l-4.6-5.4l-11.3-13.1l-7.9-9.1l-7.5,9.5c-3.7,4.7-7.3,9.3-10.7,13.6
					c-5.4,6.9-10.9,13.9-15.8,20.1c1.9-21.6-0.6-43.9-7.6-67.7c-8.2-27.9-21-52.9-32.3-74.8c-11.2-21.8-20.9-40.6-20.9-52.9
					c0-19.3,9.9-31.5,17.9-41.4c3.3-4,6.1-7.5,8-11.2c4-7.7,2.3-13.6,0.2-17.2c-2.8-4.7-7.8-7.4-13.6-7.4
					c-12.1,0-24.8,11.5-31.3,18.4c-10.8,11.5-20,26.3-25.9,42c-53,61.1-111.5,138.4-156.8,199c-5.8,7.2-11.3,14.1-16.6,20.8
					c-35.9,45.3-61.8,78-80.8,78c-0.1,0-0.2,0-0.4-0.1c1.6-7.1,14.2-38.7,38.3-76.1c16.5-25.9,28.4-48.3,36.2-68.5
					c8.9-22.8,13.2-43.9,13.2-64.6c0-24.8-5.8-45.8-16.9-60.6c-11.3-15.2-28-23.6-47-23.6c-48.3,0-98.1,56.5-157.8,134.1
					c9-22.9,14.8-44.1,14.8-66c0-18-5.5-34.9-15.6-47.3c-10.1-12.6-24.3-19.8-38.7-19.8c-28.4,0-58.7,17.1-95.4,53.7
					c-16.8,16.8-35.1,37.7-56.3,64.7c6.8-18.3,11.1-36.3,11.1-55c0-16.9-4.5-31.4-13-42.1c-9-11.2-22.1-17.4-36.9-17.4
					c-15.1,0-30.3,4.9-46.5,15c-14.2,8.9-29.3,21.8-46.2,39.7c-32.2,34-68.8,83.7-107.5,136.4c-47,63.8-76.5,98.5-97.6,98.7
					c-0.3-0.3-0.7-1.2-0.7-2.5c0-2.4,1.8-9.9,13.8-32.9c9.6-18.4,23.6-42.9,41.3-74c6.1-10.8,12.5-21.9,19.4-34
					c3.2-5.5,6.8-11.7,10.7-18.2c14.1-23.8,33.4-56.4,54-98.7l6.7-13.7l-15.2-0.6c-6.6-0.3-13.5-0.6-20.7-1
					c-18.2-0.9-37.1-1.9-55.4-1.9c-3.1,0-5.8,0.3-8.4,0.5c-2.2,0.2-4.3,0.4-6.5,0.4h-5.7l-2.9,4.9l-14.5,24.4
					c-6.2-11.2-14.1-20.4-23.5-27.3c-12.7-9.4-27.9-14.4-43.8-14.4c-36.3,0-78.4,16.1-121.6,46.5c-22.5,15.9-45.3,35.6-67.6,58.5
					c-23.5,24.2-46.7,52.2-68.9,83.1c-28.1,38.3-47.5,62.2-63,77.6c-14.6,14.5-26.1,21.8-35.1,22.1c0.6-2.4,2.5-8.2,8.4-20.9
					s14.6-30,26.8-53.1c23.3-44.1,57.8-106.7,106-193.3l8.2-14.8h-16.9h-99.2h-4.8l-3,3.8c-16,20.2-31.6,40-46.6,59.2
					c-33,42.1-64.2,82-88.8,110.2c-14.2,16.3-40.4,44-63.7,67.4c-31.8,31.8-45,42.5-50,46c-0.1-0.4-0.1-0.7-0.1-1.1
					c0-4.5,3.7-17.1,21.4-51.4c14.5-28.1,35.8-65.9,62.6-113.8c19.9-35.5,42.5-75.8,67.8-121.7c84.7-153.1,158-282.5,158.7-283.8
					L1557.5,167.8L1557.5,167.8z M2792.7,506.6c1-0.7,2-1.6,3.1-2.7c2.7,26.4,0.6,69-1.2,87c-1.9,18.7-13.3,59.8-28.9,96.2
					c-20.3,47.3-38,64.1-47.8,64.1c-2.9,0-7.5-1.3-10.9-3.6c8.8-2.3,16-6.1,21.7-11.4c9.1-8.5,13.6-20.4,13.6-35.4
					c0-14.3-4.6-27.4-12.9-36.9c-8.6-9.7-20.5-15.1-33.6-15.1c-6.7,0-13.4,1.4-19.7,4.1C2717.8,596.2,2746.6,557.2,2792.7,506.6
					L2792.7,506.6z M1807.3,524.7c9.7-7.6,19.4-12.1,25.9-12.1c16.9,0,18.7,21.7,18.7,31c0.1,30.8-22.4,67.3-58.8,116.1
					c-23.6,31.6-44.6,55.5-62.4,71.1c-17.4,15.3-32.1,23-43.5,23c-3.7,0-7.5,0-7.5-11C1679.7,700.5,1759.6,564,1807.3,524.7
					L1807.3,524.7z"/>
			</g>
			<g>
				<path d="M112.5,798.8c-8-7.6-10.9-13.3-13.5-21l-1-2.8l2-2.2c6.9-7.3,14.3-14.9,22.2-23c48.2-49.2,114.1-116.6,189.6-261.1
					c49.6-95.8,82.6-173.3,82.6-240.2c0-34.7-20.9-72-66.8-72c-55.4,0-127.7,35.4-188.8,92.5c-63.8,59.5-102,130.8-102,190.6
					c0,43.8,20.7,72,52.8,72c37.9,0,79.7-33.6,114.8-92.3c32.5-54.4,52.7-119.5,52.7-169.9c0-11.4-1.2-22.2-3.3-29l-1.2-3.9l3.5-1.9
					c4-2.2,9.3-4.4,13.6-6.1c1.6-0.7,3.1-1.3,4.3-1.8l4.8-2.1l3,8.2c9.4,25.9,20.1,55.2,20.1,92.6c0,63.4-21.7,123.1-61.2,168.2
					c-18.9,21.6-40.7,38.5-64.9,50.4c-24.9,12.2-51,18.4-77.6,18.4c-28.6,0-52.6-10.4-69.3-30C13.3,514,5,488.7,5,459.5
					c0-32.5,10.4-69.3,30.1-106.4c18.7-35.3,45.5-70.4,77.4-101.3c32.4-31.5,69.3-57.8,106.6-76.2c40.8-20,80.6-30.2,118.3-30.2
					c44.5,0,84.9,16.2,113.8,45.5c28,28.4,43.4,67.1,43.4,108.8c0,61.1-22.1,123.5-67.5,190.8c-32.9,48.7-78.1,101.1-143.9,166.1
					c74-54.8,153.5-136.3,188.4-182.2c44.2-58.1,85.4-109.6,121.8-155.1c57.5-71.8,102.9-128.6,132.6-176.5l2.3-3.6l3.9,1.7
					c5,2.1,15,8.2,19.7,12.2l2.6,2.2l-1.2,3.2c-8.9,24.5-16.8,47.5-24.5,69.8c-8.7,25.2-17,49.1-24.6,69.2
					c-6.2,16.1-13,32.9-20.1,50.7C653.4,425,615.9,519,585.4,633.3c3.7-6.5,7.5-13,11.3-19.7c39.8-69.4,81-141.2,138.3-213.5
					c38.7-48.3,119-123.7,137-133.2l3.7-1.9l2.6,3.3c1.6,2.1,9.7,12.6,11.4,15.9c2.2,4.4-2.2,7.7-4.9,9.6
					c-15.3,11.6-95.9,75.4-168.8,184.7c-63.9,96-125.1,192.6-171,318.4l-1.2,3.3H525l-1.5-1.7c-27-30.2-45.9-87.5-45.9-139.3
					c0-45.6,14.8-97.2,46.6-162.5c20.8-42.8,47.7-89.2,78.4-139.4C536.9,438.5,468.8,521.4,394.7,595
					c-90.3,89.8-180.8,156.8-276.6,204.6l-3.1,1.6L112.5,798.8z"/>
				<path class="st0" d="M730.3,145.5c4.4,1.9,14,7.7,18.4,11.4c-19.3,53.3-35,101.8-49,138.9c-35.8,92.3-89.2,213.1-127.7,371
					c48.1-81.8,95.6-173.3,167.1-263.4c38.6-48.6,117.9-123,135.3-132.1c0,0,9.4,12,10.9,15.1c0.2,0.4-1.2,1.7-3.4,3.3
					c-17.2,13-97.9,77.8-170,185.9C644.3,577.2,585.1,672.5,540.4,795h-13.1c-28.1-31.3-44.7-89.4-44.7-136
					c0-96,67.4-209.2,166.3-367.1C492.2,485,344.3,681,115.9,795.1c-7-6.7-9.6-11.3-12.2-19c48.1-51.3,124.3-116,212.6-285.2
					c50.7-98,83.2-175,83.2-242.5c0-39.9-24.5-77-71.7-77c-118.1,0-295.9,154.1-295.9,288.2c0,46.6,22.8,77,57.8,77
					c87.5,0,172.4-163.5,172.4-267.2c0-9.6-0.9-21.9-3.5-30.4c5.3-2.9,13.1-5.8,17.5-7.7c9.6,26.6,21,56.1,21,94.1
					c0,130.3-93.6,232.1-198.7,232.1c-56.9,0-88.4-42.8-88.4-98c0-132.2,173.4-309.1,327.4-309.1c91,0,152.3,67.5,152.3,149.3
					c0,126.4-94.5,244.4-249.5,391.8c85.9-50.4,193.5-158.8,235.5-214C588.5,329.1,681.3,224.5,730.3,145.5 M726.4,133l-4.5,7.3
					c-29.6,47.6-74.9,104.3-132.2,176c-36.4,45.5-77.7,97.1-121.9,155.2c-24.2,31.8-69.8,80.7-120.1,125.9
					c34.8-38,61.9-71.8,83.7-104c22.7-33.6,39.2-65.2,50.5-96.4c12-33,17.8-64.8,17.8-97.2c0-43-15.9-82.9-44.9-112.3
					c-14.6-14.8-31.9-26.4-51.4-34.4c-20.3-8.3-42.5-12.6-66-12.6c-38.5,0-79.1,10.3-120.5,30.7c-37.8,18.6-75.1,45.2-107.9,77.1
					C76.7,279.5,49.6,315,30.7,350.8C10.6,388.6,0,426.2,0,459.5c0,30.4,8.7,56.8,25.3,76.2c17.7,20.8,43,31.8,73.1,31.8
					c27.3,0,54.2-6.4,79.7-19c24.8-12.2,47.1-29.6,66.5-51.6c19.5-22.2,34.8-48.1,45.5-76.7c11.2-30,16.9-61.9,16.9-94.7
					c0-38.2-10.8-68-20.4-94.3l-1.2-3.2l-3.6-9.9l-9.7,4.2c-1.1,0.5-2.6,1.1-4.2,1.7c-4.4,1.8-9.8,4-14.1,6.3l-7.1,3.9l2.3,7.7
					c1.9,6.2,3.1,16.8,3.1,27.6c0,48.8-20.4,114.5-52,167.4c-16.2,27.1-34.5,49.5-53,65c-19.7,16.5-39.1,24.9-57.5,24.9
					c-13.9,0-25.7-5.9-34.1-17.1c-9-12-13.8-29.3-13.8-50c0-58.4,37.6-128.4,100.5-187.1c60.2-56.2,131.2-91.1,185.4-91.1
					c42.7,0,61.8,33.7,61.8,67.1c0,66-32.8,142.8-82.1,238c-75.1,143.9-140.8,210.9-188.7,259.9c-7.9,8.1-15.4,15.7-22.3,23.1
					l-4.1,4.3l1.9,5.6c3.3,9.8,7,15.6,14.8,23l5.1,4.8l6.3-3.1c51.6-25.8,100.3-56.1,148.9-92.7c43.3-32.6,85.5-69.5,129-112.8
					c58.1-57.8,112.6-121.3,165.1-185.2c-16.4,28.3-31,55.3-43.6,81c-32.1,66-47.1,118.3-47.1,164.7c0,24.4,4.4,51.6,12.3,76.7
					c8.6,27.2,20.7,50,34.9,65.9l3,3.3h4.4h13.1h7l2.4-6.5C595.4,673.3,656.4,577,720.1,481.3c72.4-108.5,152.2-171.7,167.7-183.5
					c1.4-1.1,2.6-2,3.5-2.9c5.8-5.5,3.6-11.2,2.8-12.8V282v-0.1c-1.8-3.4-8.2-11.9-11.9-16.7l-5.1-6.6l-7.4,3.9
					c-11.4,6-39.5,31.2-62,52.9c-31,29.8-58.9,59.6-76.5,81.9c-53.5,67.4-92.9,134.4-130.3,199.4c28.2-97.1,60.7-178.4,87.9-246.4
					c7.1-17.8,13.9-34.7,20.1-50.7l0,0l0,0c7.6-20.2,15.9-44,24.6-69.3c7.7-22.2,15.6-45.2,24.5-69.7l2.3-6.4l-5.2-4.5
					c-5.1-4.4-15.7-10.8-21-13L726.4,133L726.4,133z"/>
			</g>
		</g>
		<g>
			<g>
				<path class="st1" d="M3436.9,799.2c-53.6,0-105.6-10.5-154.6-31.2c-47.3-20-89.8-48.6-126.2-85.1
					c-36.5-36.5-65.1-78.9-85.1-126.2c-20.7-49-31.2-101-31.2-154.6s10.5-105.6,31.2-154.6c20-47.3,48.6-89.8,85.1-126.2
					c36.5-36.5,78.9-65.1,126.2-85.1c49-20.7,101-31.2,154.6-31.2s105.6,10.5,154.6,31.2c47.3,20,89.8,48.6,126.2,85.1
					s65.1,78.9,85.1,126.2c20.7,49,31.2,101,31.2,154.6s-10.5,105.6-31.2,154.6c-20,47.3-48.6,89.8-85.1,126.2
					s-78.9,65.1-126.2,85.1C3542.5,788.7,3490.5,799.2,3436.9,799.2z"/>
				<path class="st0" d="M3436.9,9.9c216.6,0,392.2,175.6,392.2,392.2s-175.6,392.2-392.2,392.2c-216.6,0-392.2-175.6-392.2-392.2
					S3220.3,9.9,3436.9,9.9 M3436.9,0c-54.3,0-106.9,10.6-156.5,31.6c-47.9,20.3-90.9,49.2-127.8,86.2
					c-36.9,36.9-65.9,79.9-86.2,127.8c-21,49.6-31.6,102.2-31.6,156.5s10.6,106.9,31.6,156.5c20.3,47.9,49.2,90.9,86.2,127.8
					c36.9,36.9,79.9,65.9,127.8,86.2c49.6,21,102.2,31.6,156.5,31.6s106.9-10.6,156.5-31.6c47.9-20.3,90.9-49.2,127.8-86.2
					c36.9-36.9,65.9-79.9,86.2-127.8c21-49.6,31.6-102.2,31.6-156.5s-10.6-106.9-31.6-156.5c-20.3-47.9-49.2-90.9-86.2-127.8
					c-36.9-36.9-79.9-65.9-127.8-86.2C3543.8,10.6,3491.2,0,3436.9,0L3436.9,0z"/>
			</g>
			<g>
				<polygon class="st0" points="3320.3,396.9 3153.6,221 3320.3,632.6 3487,235.3 				"/>
				<polygon class="st0" points="3553.6,396.4 3386.9,234.8 3553.6,632.1 3720.3,220.6 				"/>
			</g>
		</g>
	</g>
</g>
</svg>
