<?xml version="1.0" encoding="utf-8"?>
<!-- Generator: Adobe Illustrator 25.0.0, SVG Export Plug-In . SVG Version: 6.00 Build 0)  -->
<svg version="1.1" id="Layer_1" xmlns="http://www.w3.org/2000/svg" xmlns:xlink="http://www.w3.org/1999/xlink" x="0px" y="0px"
	 viewBox="0 0 3840 430.7" style="enable-background:new 0 0 3840 430.7;" xml:space="preserve">
<style type="text/css">
	.st0{fill:#FFFFFF;}
	.st1{fill-rule:evenodd;clip-rule:evenodd;fill:#FFFFFF;}
	.st2{fill-rule:evenodd;clip-rule:evenodd;}
</style>
<g>
	<g>
		<rect id="rect5539_3_" x="1.1" y="0" class="st0" width="245.2" height="303.7"/>
		<rect id="rect5541_3_" y="338.5" class="st0" width="620.7" height="92.2"/>
		<path id="path5543_3_" class="st1" d="M550.6,0h344l219.6,165.5L945.5,273.9L550.6,0z"/>
		<path id="path5547_3_" class="st1" d="M1752.1,0l670.3,430.7h138.7V0h-122.6v300.5L1986.2,0H1752.1z"/>
		<path id="path5549_11_" class="st1" d="M1749.1,46.1l265.8,170.8v213.9H1748L1749.1,46.1z"/>
		<path id="path5549_10_" class="st1" d="M1446.8,0L972.1,305v125.7h247.4V294L1644,0L1446.8,0L1446.8,0z"/>
		<path id="path5549_9_" class="st1" d="M1760.4,5.4l265.8,170.8"/>
		<g>
			<path id="path5551-7_7_" class="st1" d="M3432,430.7l-518-226.4l115.3-42.2l190.8,83.3l88.8-32.5l498.4,217.8h-371.7L3432,430.7
				L3432,430.7z"/>
			<path id="path5553-8_7_" class="st1" d="M3204,366.6l-153.8-67.2l-360.9,131.3h339.6L3204,366.6z"/>
		</g>
		<g>
			<path id="path5551-7_6_" class="st1" d="M3097.2,0l518,226.4l-115.3,42.2l-190.8-83.3l-88.8,32.5L2721.9,0h371.7H3097.2z"/>
			<path id="path5553-8_6_" class="st1" d="M3325.2,64.1l153.8,67.2L3840,0h-339.6L3325.2,64.1z"/>
		</g>
	</g>
</g>
</svg>
