<?xml version="1.0" encoding="utf-8"?>
<!-- Generator: Adobe Illustrator 25.4.1, SVG Export Plug-In . SVG Version: 6.00 Build 0)  -->
<svg version="1.1" id="Layer_1" xmlns="http://www.w3.org/2000/svg" xmlns:xlink="http://www.w3.org/1999/xlink" x="0px" y="0px"
	 viewBox="0 0 3839 1167.3" style="enable-background:new 0 0 3839 1167.3;" xml:space="preserve">
<style type="text/css">
	.st0{fill:#FA3101;}
	.st1{fill:#A41A10;}
	.st2{fill:#FFFFFF;}
	.st3{fill:#0046B7;}
	.st4{fill:#E41F28;}
	.st5{display:none;}
	.st6{display:inline;fill:#FFFFFF;}
</style>
<g>
	<path class="st2" d="M2859.2,722.6V574.1h-207.7v151.6h-8.2l-24.6-38.4l-72.4-113.2h-181.2V625l-27-16.2
		c-46.8-28.1-101.1-43-157.3-43c-55.6,0-109.9,15.3-157.2,44.3l-27.1,16.6v-52.5h-207.7v14.4l-24.1-9.2c-23.7-9-49.1-13.6-75.6-13.6
		c-26.4,0-52,4.9-75.9,14.5l-24.4,9.8v-15.9h-269.9l-48,151.6h-35.4l-53.1-151.6l-224.3-2.9l171,468.8l43.4,119h171.5l2.4-7.4
		l34.7-105.1V1159H1589v-14.2l24,9c24,9,49.7,13.6,76.2,13.6c26.4,0,51.9-4.4,75.8-13.1l23.9-8.7v13.5h207.7v-52.5l27.1,16.6
		c47.3,29,101.6,44.3,157.2,44.3c55.6,0,109.9-15.3,157.2-44.1l27.1-16.5v52.3h207.7v-130.6h25.2l83.6,130.6h177.7v-127.5H3627
		l212-308.9H2859.2z"/>
	<g>
		<polygon points="681.4,747.7 701.9,1006.4 3616.9,1006.4 3794.4,747.7 		"/>
	</g>
	<path class="st2" d="M3463.3,400.3c-3.9-27.4-7-54.9-9.4-82.5c-2.6-28.6-4.2-57.4-5.9-86.1c-1.6-27.5-27-53.8-29.6-81.2
		c-0.5-0.7,9.8-2.1,9.8-2.1V0h-356.9v20.4l-23.2-7.4c-26.9-8.6-57.9-13-92.2-13h-931.3v151.6h-8.2l-24.6-38.4L1919.5,0h-443.2
		l-106.2,151.6h-25V0h-207.7v58.4l-27-16.5C1064.7,14.1,1009.4,0,946,0H635.3l-96.6,140.8l-5.3,7.7H212L0,457.3h321.3l-19.1,27.9
		l-68.4,99.6h252.6L570,462.5l5.3-7.8h40.9v130.1h327.3c65.2,0,119.8-13.5,167-41.4l26.8-15.9v57.3h184.2l91.1-130.6h55.9v130.6
		h477.3V454.2h25.2l83.6,130.6h374.1v-97.5l31,34.5c4.9,5.5,10.1,10.7,15.6,15.5c40.3,36,93.9,55.8,151,55.8
		c33.7,0,66.1-6.9,96.2-20.5l25.1-11.3v23.5h207.7V531l32.3,45.4l5.9,8.4h434.7V454.2h42.6C3468.9,436.2,3465.9,418.3,3463.3,400.3z
		"/>
	<g>
		<polygon points="3731.5,173.6 221.4,173.6 43.9,432.2 3571.8,432.2 		"/>
	</g>
	<g>
		<polygon class="st2" points="3406.3,457.3 3627,457.3 3839,148.5 3406.3,148.5 		"/>
		<g>
			<polygon points="3384.1,432.2 3617.6,432.2 3795.1,173.6 3389.6,173.6 			"/>
		</g>
	</g>
	<g>
		<polyline class="st2" points="1133.1,1031.5 0,1031.5 212,722.6 1024.4,722.6 		"/>
		<g>
			<polygon points="1061.6,747.7 222.1,747.7 44.6,1006.4 1145.1,1006.4 			"/>
		</g>
	</g>
	<polyline class="st2" points="2859.2,747.7 2859.2,568.3 2720,549.8 2426.1,474.2 2413.2,571.2 2059.4,571.2 1969.5,443.2 
		1930.1,447.4 1930.1,568.3 1481.1,575.9 1476.3,447.4 1404.8,447.4 1311.8,574.6 1147.5,575.7 1142.7,508.9 960.9,578.3 
		1022.6,747.7 	"/>
	<g>
		<path d="M2673.5,596.1v217.6l-139.1-217.6h-147.3V677c-50.7-55.2-123.7-89.3-206.2-89.3c-81.6,0-155.1,35.1-206.2,90.9v-82.5
			h-163.8v36.2c-30.9-28-73-44.6-121.6-44.6c-48.2,0-91.1,18.4-122.2,48.4v-40.1h-60.3h-103.5h-68.1l-79.8,252.3L1167,596.1H990.6
			L1188,1137h140.2l75-227.2V1137H1567v-34.9c32,27.3,74.1,43.3,122.2,43.3c47.8,0,89.8-15.4,121.6-41.9v33.5h163.8v-82.5
			c51.1,55.8,124.6,90.9,206.2,90.9c81.6,0,155.1-34.9,206.2-90.5v82.1h163.8V913.9l142.7,223.1h143.7V596.1H2673.5z"/>
	</g>
	<g>
		<path class="st2" d="M1452.9,1087.3V645.8h64.4v441.6H1452.9z"/>
		<path class="st2" d="M1689.2,1095.7c-80.6,0-136-59.1-136-139h64.4c0,43,25.1,80,71.6,80c44.2,0,71-31.6,71-74.6
			c0-47.1-34-57.9-71-72.2c-68.6-26.3-123.5-46.5-123.5-132.5c0-68.6,56.1-119.9,123.5-119.9c73.4,0,126.5,48.3,126.5,122.9h-64.4
			c0-38.2-23.9-63.8-62.1-63.8c-32.2,0-59.1,28-59.1,60.3c0,93.7,194.5,37.6,194.5,205.3C1824.7,1041.4,1768,1095.7,1689.2,1095.7z"
			/>
		<path class="st2" d="M2180.9,1095.7c-126.5,0-229.7-102.6-229.7-229.1c0-127.7,102.6-229.1,229.7-229.1
			c128.9,0,229.7,102,229.7,230.3C2410.6,993.6,2306.8,1095.7,2180.9,1095.7z M2180.9,696.5c-68.6,0-122.9,37-149.8,99.6
			c-9.5,22.1-15.5,45.9-15.5,70.4s6,48.9,15.5,71.6c27.4,62.1,81.7,98.5,149.8,98.5c72.8,0,128.9-41.8,154-109.2
			c7.2-18.5,11.3-38.8,11.3-59.1C2346.1,774.6,2276.9,696.5,2180.9,696.5z"/>
		<path class="st2" d="M1860.5,1087.3V645.8h64.4v441.6H1860.5z"/>
		<path class="st2" d="M2720.8,1087.3L2502.4,746h-1.2v341.3h-64.4V645.8h70.4L2722,981.7h1.2V645.8h64.4v441.6H2720.8z"/>
		<polygon class="st2" points="1371.6,645.7 1257.7,1005.5 1131.8,645.7 1061.6,645.7 1222.8,1087.3 1292.4,1087.3 1438,645.7 		"/>
	</g>
	<g>
		<path d="M275.5,562.9h199.3l88.9-130.1h74.5v130.1h114.9H802h141.6c86.3,0,154.1-25.6,207.6-78.4c2.8-2.8,5.5-5.8,8.2-8.8v87.2
			h150.8l180.4-258.7v258.7h269.7h43.3H1924V339.8l142.7,223.1h143.7V180.4h32.6v382.5h163.8V180.4h21.9v190.2
			c0,62.7,21.2,114.7,61.3,150.4c36.3,32.4,84.7,50.2,136.3,50.2c51.7,0,100.1-17.8,136.3-50.2c2.5-2.2,4.7-4.7,7-7v48.8h163.8
			V462.4l71.5,100.5h88.4h117.1h195.9V404.4H3257v-34.9h149.2V211.1H3257v-30.7h149.2V21.9h-313v38.4c-33.9-25.7-79-38.4-137.4-38.4
			H2824h-54.4h-109.4v346.8c0,44-25.5,44-33.9,44c-8.4,0-33.9,0-33.9-44V21.9h-100.9h-62.9h-218.3h-52.1h-111.7v217.6L1907.4,21.9
			h-103.9h-43.3h-72.9h-202.7l-161.5,238.5V21.9h-163.8v92.4c-47.8-60.5-121.2-92.4-213.4-92.4H802h-48.9H646.8l-323,470.5
			 M323.9,492.4l-48.4,70.4"/>
	</g>
	<g>
		<path class="st2" d="M1284.2,513.2H1209V71.6h64.4v349.1h1.2L1511,71.6h81.2L1284.2,513.2z"/>
		<path class="st2" d="M687.9,513.2V383.1H537.5l-88.9,130.1h-78.8L673,71.6h79.4v441.6H687.9z M687.9,155.2h-1.2L578.1,324h109.8
			V155.2z"/>
		<path class="st2" d="M1116.1,449.3c-48.3,47.7-106.2,63.8-172.4,63.8H802.8V71.6H946c71,0,137.8,21.5,180.2,81.2
			c28.6,40,45.3,91.3,45.3,140.8C1171.5,344.9,1153,412.3,1116.1,449.3z M1094,226.2c-26.3-63.8-80.6-95.5-148.6-95.5h-78.2v323.4
			h77c100.2,0,162.9-58.5,162.9-160.5C1107.1,270.9,1102.3,247.7,1094,226.2z"/>
		<path class="st2" d="M1540.2,513.2V71.6h213.7v59.1h-149.2v130.1h149.2v59.1h-149.2v134.3h149.2v59.1H1540.2z"/>
		<path class="st2" d="M3142.9,513.2V71.6h213.7v59.1h-149.2v130.1h149.2v59.1h-149.2v134.3h149.2v59.1H3142.9z"/>
		<path class="st2" d="M2093.9,513.2l-218.4-341.3h-1.2v341.3h-64.4V71.6h70.4l214.8,335.9h1.2V71.6h64.4v441.6H2093.9z"/>
		<path class="st2" d="M2357.1,130.7v382.5h-64.4V130.7H2208V71.6h233.9v59.1H2357.1z"/>
		<path class="st2" d="M2729.6,484c-28,25.1-65.6,37.6-103.2,37.6c-37.6,0-75.2-12.5-103.2-37.6c-32.8-29.2-44.8-70.4-44.8-113.4
			v-299h64.4v297.2c0,52.5,28.6,93.7,83.5,93.7c54.9,0,83.5-41.2,83.5-93.7V71.6h64.4v299C2774.3,413.5,2762.4,454.7,2729.6,484z"/>
		<path class="st2" d="M3030.5,340.1c-13.1,4.8-28.6,8.4-43,8.4L3111,513.2h-80.6l-145.6-204.7h-1.2v204.7h-64.4V71.6h136.6
			c41.8,0,86.5,6.6,117.6,37c28,26.9,40.6,66.2,40.6,104.4C3114,272.7,3087.8,319.9,3030.5,340.1z M2951.7,130.7h-68v168.9h44.2
			c57.3,0,121.7-16.1,121.7-86.5C3049.6,157,3003,130.7,2951.7,130.7z"/>
	</g>
</g>
</svg>
