<?xml version="1.0" encoding="utf-8"?>
<!-- Generator: Adobe Illustrator 27.2.0, SVG Export Plug-In . SVG Version: 6.00 Build 0)  -->
<svg version="1.1" id="Layer_1" xmlns="http://www.w3.org/2000/svg" xmlns:xlink="http://www.w3.org/1999/xlink" x="0px" y="0px"
	 viewBox="0 0 3840 408.98" style="enable-background:new 0 0 3840 408.98;" xml:space="preserve">
<style type="text/css">
	.st0{fill:#FFFFFF;}
	.st1{fill:#D5A53C;}
	.st2{fill:#EA3323;}
	.st3{fill-rule:evenodd;clip-rule:evenodd;fill:#48A2C9;}
	.st4{fill:none;stroke:#FFE000;stroke-width:4.6219;stroke-miterlimit:10;}
	.st5{fill-rule:evenodd;clip-rule:evenodd;fill:#FFFFFF;}
	.st6{fill:none;stroke:#FFFFFF;stroke-width:4.6219;stroke-miterlimit:10;}
	.st7{fill-rule:evenodd;clip-rule:evenodd;}
	.st8{fill:none;stroke:#000000;stroke-width:4.6219;stroke-miterlimit:10;}
</style>
<g>
	<rect x="2887.87" y="8.62" class="st0" width="99.45" height="391.73"/>
	<rect x="2311.47" y="8.62" class="st0" width="99.45" height="391.73"/>
	<polygon class="st0" points="2058.61,292.26 1947.25,8.63 1839.55,8.63 2002.23,400.35 2016.17,400.35 2101.05,400.35 2115,400.35 
		2277.67,8.63 2169.97,8.63 	"/>
	<rect x="614.89" y="8.62" class="st0" width="99.45" height="391.73"/>
	<path class="st0" d="M3710.72,8.62H3476.4v17.25v65.15v309.33h99.45V91.03h107.66c31.5,0,57.04,25.54,57.04,57.04v252.29H3840
		V137.91C3840,66.51,3782.12,8.62,3710.72,8.62z"/>
	<path class="st0" d="M1354.52,8.62h-104.77h-49.72h-49.72v391.73h99.45V81.25h48.05c19.72,0,35.71,15.99,35.71,35.71v49.26h99.45
		v-57.68C1432.95,61.69,1408.06,8.62,1354.52,8.62z"/>
	<path class="st0" d="M431.96,8.62H330.34H230.9H99.45H0v82.4v309.33h99.45V91.03H230.9v309.33h99.45V91.03h74.41
		c31.5,0,57.04,25.54,57.04,57.04v252.29h99.45V137.91C561.24,66.51,503.36,8.62,431.96,8.62z"/>
	<path class="st0" d="M2742.97,168.18h-120.4v0h-18.96v0c-63.04,0-63.04-86.93,0-86.93h218.07V8.62h-261.36
		c-35.35,0-105.89,29.28-105.89,116.09c0,86.81,70.54,116.09,105.89,116.09h120.4v0h18.96v0c63.04,0,63.04,86.93,0,86.93h-218.07
		v72.63h261.36c35.36,0,105.89-29.28,105.89-116.09C2848.86,197.46,2778.32,168.18,2742.97,168.18z"/>
	<path class="st0" d="M3234.94,0c-165.43,0-210.61,124.86-210.61,204.49s45.17,204.49,210.61,204.49
		c165.43,0,210.61-124.86,210.61-204.49S3400.38,0,3234.94,0z M3341.14,204.23c0.43,89.41-47,126.58-105.74,126.87
		c-58.73,0.28-106.53-36.43-106.96-125.84l0.3-1.02c0-89.41,47.61-126.36,106.35-126.36c58.74,0,106.35,36.94,106.35,126.36H3341.14
		z"/>
	<path class="st0" d="M1651.3,0c-165.43,0-210.61,124.86-210.61,204.49s45.17,204.49,210.61,204.49
		c165.43,0,210.61-124.86,210.61-204.49S1816.74,0,1651.3,0z M1757.5,204.23c0.43,89.41-47,126.58-105.74,126.87
		c-58.73,0.28-106.53-36.43-106.96-125.84l0.3-1.02c0-89.41,47.61-126.36,106.35-126.36c58.73,0,106.35,36.94,106.35,126.36H1757.5z
		"/>
	<path class="st0" d="M753.34,204.49c0,123.24,75.39,195.86,162.5,195.86h185.62v-77.31H970.23c0,0-0.01,0-0.01,0
		c-96.1,0-116.01-82.06-116.01-116.01c0-64.07,51.94-116.01,116.01-116.01h131.24V8.62H949.2C814.2,8.62,753.34,96.32,753.34,204.49
		z"/>
</g>
</svg>
