<?xml version="1.0" encoding="utf-8"?>
<!-- Generator: Adobe Illustrator 25.0.0, SVG Export Plug-In . SVG Version: 6.00 Build 0)  -->
<svg version="1.1" id="Layer_1" xmlns="http://www.w3.org/2000/svg" xmlns:xlink="http://www.w3.org/1999/xlink" x="0px" y="0px"
	 viewBox="0 0 3840 1133.4" style="enable-background:new 0 0 3840 1133.4;" xml:space="preserve">
<style type="text/css">
	.st0{fill:#FFFFFF;}
	.st1{fill:#E31E26;}
</style>
<g>
	<g>
		<path d="M3724,527.8H116c-54.7,0-99.2,44.5-99.2,99.2v390.4c0,54.7,44.5,99.2,99.2,99.2h3608c54.7,0,99.2-44.5,99.2-99.2V627
			C3823.2,572.3,3778.7,527.8,3724,527.8z"/>
		<g>
			<g id="path68_4_">
				<path class="st0" d="M439.5,746c-25.8-36.5-68.2-60.3-116.3-60.3c-78.6,0-142.3,63.7-142.3,142.3s63.7,142.3,142.3,142.3
					c57.1,0,106.3-33.6,129-82.1H326.6v-64.7h200.6c0.1,1.5,0.1,3,0.1,4.5c0,20.9-3.1,41.2-9,60.2c-25.7,83.4-103.3,144-195.1,144
					C210.5,1032.2,119,940.7,119,828c0-112.8,91.4-204.2,204.2-204.2c83.6,0,155.4,50.3,187,122.2H439.5L439.5,746z"/>
			</g>
			<g id="path70_4_">
				<path class="st0" d="M744,627.8L744,627.8l-258,388.5h79.9l55.1-83h123v83.1h66.5V627.8H744L744,627.8z M665.1,866.8L744,748.1
					v118.7H665.1z"/>
			</g>
			<g id="path72_4_">
				<path class="st0" d="M1331.6,627.8L1331.6,627.8l-177.9,267.8V627.8h-66.5l0,0l-258,388.5H909l178.1-268.2v268.4h66.5v-0.5
					l177.9-267.9v268.4h66.5V627.8H1331.6L1331.6,627.8z"/>
			</g>
			<g id="path74_4_">
				<path class="st0" d="M1654,694.4v-66.6h-202.1v388.8l66.5-0.3H1654v-66.6h-135.6v-90.6H1654v-66.5h-135.6v-98.3H1654V694.4z"/>
			</g>
			<g id="path86_4_">
				<path class="st0" d="M2009.6,882.9c21.3-48,53.4-120.2,53.4-120.2h-65.3l-34.4,77.5l-51.2-47.3c23.4-18.8,44-42.6,44-82.4
					c0-21.3-8.4-41.4-23.6-56.7c-17.4-17.3-41.8-27.3-67.2-27.3c-43.9,0-89.4,31.4-89.4,84c0,36.6,20.2,60.3,40.2,77.8
					c-37.1,26.3-69.4,54.2-69.4,111.9c0,32.7,11.8,62.5,33.3,84c21.7,21.7,51.9,33.6,85.2,33.6c63.1,0,94.4-30.5,118.3-77.7
					l77.4,71.5l40.5-43.8L2009.6,882.9L2009.6,882.9z M1841.9,695.4c5.6-5.6,14.7-9.1,23.5-9.1c9.4,0,18.9,3.8,25,9.8
					c4.2,4.2,6.2,8.9,6.2,14.5c0,16.8-8,25.9-30,42.1c-19.2-15.4-30.9-26.1-30.9-42.1C1835.7,704.6,1837.7,699.6,1841.9,695.4
					 M1936.6,900.5c-20.6,45.9-35.2,57.8-71.2,57.8c-17.7,0-32.5-5.6-43.1-16.1c-10.4-10.4-15.8-24.9-15.8-41.8
					c0-31.4,16.1-43.8,55.8-71.3c0.2-0.1,0.4-0.3,0.6-0.4l74.9,69.2L1936.6,900.5L1936.6,900.5z"/>
			</g>
			<g id="path76_4_">
				<path class="st0" d="M2774.9,627.9L2774.9,627.9l-258,388.5h79.9l55.1-83h123v83.2h66.6V627.9H2774.9L2774.9,627.9z M2696,866.9
					l78.8-118.7v118.7H2696z"/>
			</g>
			<g id="path78_4_">
				<path class="st0" d="M2230.5,1016.6L2230.5,1016.6l177.8-267.9v267.9h66.5l0,0l0,0l258-388.5H2653l-178.1,268.2V627.9h-66.5v0.5
					l-177.8,267.8V627.9H2164v388.7H2230.5L2230.5,1016.6z"/>
			</g>
			<g id="path80_4_">
				<path class="st0" d="M3656.6,627.9v156.5h-120.1V627.9H3470v388.7h66.5V851h120.1v165.6h66.6V627.9H3656.6z"/>
			</g>
			<g id="path82_4_">
				<path class="st0" d="M3084.6,627.9h-217.2v66.5h75.3v322.1h66.6V694.4h75.3L3084.6,627.9L3084.6,627.9z"/>
			</g>
			<g id="path84_4_">
				<path class="st0" d="M3375.8,911.8c-25.6,28.4-62.5,46.2-103.7,46.2c-77.1,0-139.6-62.5-139.6-139.5
					c0-77.1,62.5-139.6,139.6-139.6c40.6,0,77.1,18.2,102.6,46.2h78c-34.1-64.8-102.1-110.6-180.5-110.6
					c-112.6,0-203.9,91.3-203.9,203.9s91.3,204,203.9,204c78.9,0,147.4-45,181.3-110.6H3375.8z"/>
			</g>
		</g>
		<g>
			<path class="st0" d="M3724,1133.4H116c-64,0-116-52-116-116V627c0-64,52-116,116-116h3608c64,0,116,52,116,116v390.4
				C3840,1081.4,3788,1133.4,3724,1133.4z M116,527.8c-54.7,0-99.2,44.5-99.2,99.2v390.4c0,54.7,44.5,99.2,99.2,99.2h3608
				c54.7,0,99.2-44.5,99.2-99.2V627c0-54.7-44.5-99.2-99.2-99.2C3724,527.8,116,527.8,116,527.8z"/>
		</g>
	</g>
	<g>
		<g>
			<g>
				<g>
					<path class="st0" d="M2440.1,440.1H1399.3c-131.7,0-230.6-94.4-230.6-219.6c0-125.7,99-220.5,230.2-220.5h1041.7
						c131.7,0,230.6,94.8,230.6,220.5C2671.6,345.7,2571.7,440.1,2440.1,440.1z"/>
				</g>
			</g>
			<g>
				<path d="M1476.6,252.3l-70.4-114.2h-51.1v163.4h50.6V187.4l70.9,114.2h50.6V138.1h-50.6V252.3z M1877.1,192.9v-16.1h-26.7v-22.1
					h-49.3v22.1h-26.7v16.1h26.7v108.6h49.3V192.9H1877.1z M1555.3,301.5h49.3V192.9h-49.3V301.5z M1555.3,171.2h49.3v-33.6h-49.3
					V171.2z M2416.1,185.5c-39.6,0-71.8,27.2-71.8,61.2c0,33.6,32.2,61.2,71.8,61.2s71.8-27.2,71.8-61.2S2456.6,185.5,2416.1,185.5z
					 M2435.9,269.3c0,17.5-10.1,24.4-20.3,24.4c-9.7,0-20.3-7.4-20.3-24.4c0-6.4,0-23.5,0-23.5s0-16.1,0-22.6
					c0-17,10.1-24.4,20.3-24.4c9.7,0,20.3,6.9,20.3,24.4c0,6.4,0,18.9,0,23C2435.9,246.7,2435.9,262.8,2435.9,269.3z M2280.3,198.4
					c-7.8-4.6-16.1-8.7-27.6-9.7c-35.4-3.2-62.6,28.1-62.6,57.1c0,37.7,29,52,33.6,53.9c16.6,7.8,37.7,7.8,56.6-4.1
					c0,0.9,0,6.4,0,6.4h48.3V138.6h-48.3C2280.3,138.1,2280.3,173.1,2280.3,198.4z M2280.3,246.7c0,0,0,12.4,0,19.3
					c0,16.6-11.5,21.2-19.3,21.2s-19.3-4.6-19.3-21.2c0-6,0-19.3,0-19.3s0-13.8,0-19.3c0-17,11.5-21.2,19.3-21.2s19.3,4.1,19.3,21.2
					C2280.3,232.9,2280.3,246.7,2280.3,246.7z M1719.7,187.8c-16.1,0.5-29.9,7.4-39.1,16.6c0-2.8,0-11.5,0-11.5h-48.8v108.6h48.8
					c0,0,0-66.7,0-71.4c0-9.7,10.1-19.8,23.5-19.8c13.3,0,22.6,10.6,22.6,19.8c0,6.9,0,71.4,0,71.4h48.8c0,0,0-51.6,0-58.9
					C1775.4,199.3,1738.1,187.4,1719.7,187.8z M2119.2,187.8c-16.1,0.5-29.9,7.4-39.1,16.6c0-2.8,0-11.5,0-11.5h-48.8v108.6h48.8
					c0,0,0-66.7,0-71.4c0-9.7,10.1-19.8,23.5-19.8c13.3,0,22.6,10.6,22.6,19.8c0,6.9,0,71.4,0,71.4h48.8c0,0,0-51.6,0-58.9
					C2174.5,199.3,2137.2,187.4,2119.2,187.8z M2015.6,247.7c0-33.6-32.7-61.7-72.7-61.7s-72.3,27.2-72.3,61.2
					c0,33.6,32.2,61.2,72.3,61.2c33.1,0,61.2-18.9,70-44.7h-48.8c0,0,0,0.5,0,6.4c0,19.8-12.9,24.4-20.3,24.4s-20.7-4.6-20.7-24.4
					c0-6,0-22.6,0-22.6h92.5V247.7z M1926.8,209.4c3.7-6.9,11-9.7,17.5-10.1c6.4,0,13.3,3.2,17.5,10.1c3.2,5.5,3.2,12,3.2,21.2h-41
					C1923.1,221,1923.1,215,1926.8,209.4z M2508.2,158.4c0-5.5-4.1-7.8-12-7.8h-11v28.1h6.9v-11.5h3.2l5.5,11.5h7.4l-6-12.4
					C2505.9,164.8,2508.2,162,2508.2,158.4z M2495.3,162.5h-3.2v-8.3h2.8c4.1,0,6,1.4,6,4.1C2501.3,161.6,2499,162.5,2495.3,162.5z
					 M2495.3,139.5c-13.8,0-25.3,11-25.3,25.3c0,13.8,11.5,25.3,25.3,25.3s25.3-11.5,25.3-25.3
					C2520.6,150.5,2509.1,139.5,2495.3,139.5z M2495.3,185c-11,0-20.3-9.2-20.3-20.3s9.2-20.3,20.3-20.3c11,0,20.3,9.2,20.3,20.3
					S2506.8,185,2495.3,185z M2440.5,46.5H1399.3c-110-0.5-184.1,79.2-184.1,174s73.7,173.1,184.6,173.1h1040.8
					c110.5,0,184.6-78.3,184.6-173.1C2624.7,125.2,2550.5,46,2440.5,46.5z M2440.1,351.2H1399.7c-87.9,0.5-141.3-58.5-141.3-131.2
					s53.9-130.7,141.3-131.2H2440c87.5,0,141.3,58.5,141.3,131.2S2527.5,351.2,2440.1,351.2z M2440.5,46.5H1399.3
					c-110-0.5-184.1,79.2-184.1,174s73.7,173.1,184.6,173.1h1040.8c110.5,0,184.6-78.3,184.6-173.1
					C2624.7,125.2,2550.5,46,2440.5,46.5z M2440.1,351.2H1399.7c-87.9,0.5-141.3-58.5-141.3-131.2s53.9-130.7,141.3-131.2H2440
					c87.5,0,141.3,58.5,141.3,131.2S2527.5,351.2,2440.1,351.2z M2440.5,46.5H1399.3c-110-0.5-184.1,79.2-184.1,174
					s73.7,173.1,184.6,173.1h1040.8c110.5,0,184.6-78.3,184.6-173.1C2624.7,125.2,2550.5,46,2440.5,46.5z M2440.1,351.2H1399.7
					c-87.9,0.5-141.3-58.5-141.3-131.2s53.9-130.7,141.3-131.2H2440c87.5,0,141.3,58.5,141.3,131.2S2527.5,351.2,2440.1,351.2z"/>
			</g>
		</g>
	</g>
</g>
</svg>
