<?xml version="1.0" encoding="utf-8"?>
<!-- Generator: Adobe Illustrator 25.4.1, SVG Export Plug-In . SVG Version: 6.00 Build 0)  -->
<svg version="1.1" id="Layer_1" xmlns="http://www.w3.org/2000/svg" xmlns:xlink="http://www.w3.org/1999/xlink" x="0px" y="0px"
	 viewBox="0 0 3839 343.2" style="enable-background:new 0 0 3839 343.2;" xml:space="preserve">
<style type="text/css">
	.st0{fill:#232F95;}
	.st1{fill:#FFFFFF;}
	.st2{fill:url(#SVGID_1_);}
	.st3{fill:url(#SVGID_00000058555979709192475040000002419454605732856509_);}
	.st4{fill:url(#SVGID_00000000931223003192600140000001828593561101730998_);}
	.st5{fill:url(#SVGID_00000068677105216341088490000000184937611886638741_);}
	.st6{fill:url(#SVGID_00000023256745077989088280000009816230386136107402_);}
	.st7{fill:url(#SVGID_00000034047711103329367470000013569850072282789269_);}
	.st8{fill:url(#SVGID_00000145750808259511267590000010234283826558747542_);}
	.st9{fill:url(#SVGID_00000034790785817320505170000017874860878988695702_);}
	.st10{fill:url(#SVGID_00000139290553687233616050000016166716844909647497_);}
	.st11{fill:url(#SVGID_00000153677265539643484700000012134869935343487881_);}
	.st12{fill:url(#SVGID_00000090267064360438400860000001384152454471356292_);}
	.st13{fill:url(#SVGID_00000104676324216750622570000000255458737747400851_);}
	.st14{fill:url(#SVGID_00000039838386329779873440000017997533096365803680_);}
	.st15{fill:url(#SVGID_00000034772461679482063650000017916933994035434644_);}
	.st16{fill:url(#SVGID_00000131368282612762947790000008498398292654278298_);}
	.st17{fill:url(#SVGID_00000128460374446096413150000015965963526817578942_);}
	.st18{fill:url(#SVGID_00000103228429641290985430000014419765662677340850_);}
	.st19{fill:url(#SVGID_00000171693319156333527920000004422319602873704895_);}
	.st20{fill:url(#SVGID_00000160898934002050805100000000580943147129815971_);}
	.st21{fill:url(#SVGID_00000046323077722374187540000008940777423996066207_);}
	.st22{fill:url(#SVGID_00000163065440431318826160000007773398679272557234_);}
	.st23{fill:url(#SVGID_00000043457762462749572750000000868535787403061176_);}
	.st24{fill:url(#SVGID_00000133515911855893021370000009391166604831548846_);}
	.st25{fill:url(#SVGID_00000170242595051465303220000006017459576351959702_);}
	.st26{fill:url(#SVGID_00000155109417012953593370000000309561981314573466_);}
	.st27{fill:url(#SVGID_00000111182707295149078660000018319643237802564765_);}
	.st28{fill:url(#SVGID_00000013195381843617939070000014451307456628570024_);}
	.st29{fill:url(#SVGID_00000029016624995792471360000006022394448271080380_);}
	.st30{fill:url(#SVGID_00000144322138758123084030000002710329589978582716_);}
	.st31{fill:url(#SVGID_00000149369971477892535530000016345760260632233404_);}
	.st32{fill:url(#SVGID_00000163045517643338049570000000961488261243949499_);}
	.st33{fill:url(#SVGID_00000106867242854285854220000006625199074185567644_);}
	.st34{fill:url(#SVGID_00000023977704928905300110000001027325435141481890_);}
	.st35{fill:url(#SVGID_00000062887378145090412070000003973615159935496072_);}
	.st36{fill:url(#SVGID_00000157268444874082081260000014847434481228600765_);}
	.st37{fill:url(#SVGID_00000158715757950307130680000001368720039358543260_);}
	.st38{fill:url(#SVGID_00000182528332301014443410000015764256758296478107_);}
	.st39{fill:url(#SVGID_00000147917068164291581120000009825622016684384655_);}
	.st40{fill:url(#SVGID_00000076591831758952004660000011579086118300791439_);}
	.st41{fill:url(#SVGID_00000025408477777919254510000002525453486901247627_);}
	.st42{fill:url(#SVGID_00000145771409260118090810000006616403048684736695_);}
	.st43{fill:url(#SVGID_00000070817410270079290290000003548431513385286279_);}
	.st44{fill:url(#SVGID_00000018200077167300178470000013884701759740645289_);}
	.st45{fill:url(#SVGID_00000026860504087774869200000007132859151626078337_);}
	.st46{fill:url(#SVGID_00000127031688419707599310000006118909669903744912_);}
	.st47{fill:url(#SVGID_00000018916717373802390120000006108914116561759675_);}
	.st48{fill:url(#SVGID_00000158716591774346895890000015999808886666496155_);}
	.st49{fill:url(#SVGID_00000106848813959760766110000005800272169416383899_);}
	.st50{fill:url(#SVGID_00000128448199605885063320000004855899307303286159_);}
	.st51{fill:url(#SVGID_00000160900175144675529070000008409376101651338625_);}
	.st52{fill:url(#SVGID_00000155867873541846123950000016925917534118659712_);}
	.st53{fill:url(#SVGID_00000057131042561569343990000008348855412644219012_);}
	.st54{fill:url(#SVGID_00000005265732549626248770000005311475515921020066_);}
	.st55{fill:url(#SVGID_00000093174795812327316090000011000273456636264094_);}
	.st56{fill:url(#SVGID_00000129186431891248219600000017482971339771437699_);}
	.st57{fill:url(#SVGID_00000140693116641111254110000002066963088657294977_);}
	.st58{fill:url(#SVGID_00000029766329147343353040000005004047689710047382_);}
	.st59{fill:url(#SVGID_00000021092726035195228900000012851130964949412022_);}
	.st60{fill:url(#SVGID_00000016068724926612045270000015295970687503682222_);}
	.st61{fill:url(#SVGID_00000153692922853290889510000015247970488408847503_);}
	.st62{fill:url(#SVGID_00000152959329504882527160000005932164260689832625_);}
	.st63{fill:url(#SVGID_00000161613555702882265970000000451485588309526918_);}
	.st64{fill:url(#SVGID_00000068641085924821569250000000904122642387765417_);}
	.st65{fill:url(#SVGID_00000088842296302170585890000008702215864612439468_);}
	.st66{fill:url(#SVGID_00000169527232805753015970000006453439928741026177_);}
	.st67{fill:url(#SVGID_00000017481302313398711260000007733471745145634952_);}
	.st68{fill:url(#SVGID_00000129920648588892829190000000289560688442131595_);}
	.st69{fill:url(#SVGID_00000119821429032041755240000014152609940733063834_);}
	.st70{fill:url(#SVGID_00000096056562924873425260000008784772487617245875_);}
	.st71{fill:url(#SVGID_00000010287445509112525490000002334050227429125306_);}
	.st72{fill:url(#SVGID_00000098219828685286551720000011967319627051375508_);}
	.st73{fill:url(#SVGID_00000074402133040842871180000008399828238356889534_);}
	.st74{fill:url(#SVGID_00000163068347410417664590000010831485982000119730_);}
	.st75{fill:url(#SVGID_00000067943463518673827990000008757841102682593171_);}
	.st76{fill:url(#SVGID_00000062904419313894531260000000846837471817016246_);}
	.st77{fill:url(#SVGID_00000135657652511184654120000017018553544904532375_);}
	.st78{fill:url(#SVGID_00000064353253555981940500000013578145075617686938_);}
	.st79{fill:url(#SVGID_00000150103061265386602790000008369996379688432269_);}
	.st80{fill:url(#SVGID_00000029026327366946023350000007702443572693935268_);}
	.st81{fill:url(#SVGID_00000041286556277596310770000005209273577473370797_);}
	.st82{fill:url(#SVGID_00000106122920167982148620000014939718285768669090_);}
	.st83{fill:url(#SVGID_00000137103240325592762730000002462519128727358596_);}
	.st84{fill:url(#SVGID_00000114758024439279725790000012238375694937809810_);}
	.st85{fill:url(#SVGID_00000049194373181441677590000001102735265224475050_);}
	.st86{fill:url(#SVGID_00000001646389387094806170000002212280913101865608_);}
	.st87{fill:url(#SVGID_00000062185788295667598840000015555444139490124725_);}
	.st88{fill:url(#SVGID_00000074405040700487806450000017271584530891834515_);}
	.st89{fill:url(#SVGID_00000174603030850454060030000004784970845882069668_);}
	.st90{fill:url(#SVGID_00000065770713326233312190000015799989913960858557_);}
	.st91{fill:url(#SVGID_00000013152062315642599410000009969916589211438497_);}
	.st92{fill:url(#SVGID_00000057112190724279420600000005503434183608231351_);}
	.st93{fill:url(#SVGID_00000015328145033707382900000007330221938172336290_);}
	.st94{fill:url(#SVGID_00000025432007177050373240000008021013027854446735_);}
	.st95{fill:url(#SVGID_00000085964545850948320490000003594492949212213420_);}
	.st96{fill:url(#SVGID_00000150079365110163389590000015922398768347308674_);}
	.st97{fill:url(#SVGID_00000100367391764999295740000010897191608983510204_);}
	.st98{fill:url(#SVGID_00000176013762335875381090000001840422020743417755_);}
	.st99{fill:url(#SVGID_00000177477337095106259890000001643927789561179568_);}
	.st100{fill:url(#SVGID_00000034087079084746618990000002987771083792154762_);}
	.st101{fill:url(#SVGID_00000163060075469331092480000003924188863325376387_);}
	.st102{fill:#502F8E;}
	.st103{fill:url(#SVGID_00000028326836482373571680000007110018023091110545_);}
	.st104{fill:url(#SVGID_00000029753430426389429890000015476753670000233910_);}
	.st105{fill:url(#SVGID_00000149382232032775977370000010112813124568324015_);}
	.st106{fill:url(#SVGID_00000057127350624553907160000002975585060723786383_);}
	.st107{fill:url(#SVGID_00000073691559399634092270000011606976572552297399_);}
	.st108{fill:url(#SVGID_00000137130897359243761530000006185128960337165712_);}
	.st109{fill:url(#SVGID_00000163055482299445954960000017257782579443289479_);}
	.st110{fill:url(#SVGID_00000013875231058960965870000017383313780874218132_);}
	.st111{fill:url(#SVGID_00000123421929213999532190000014315424169384790916_);}
	.st112{fill:url(#SVGID_00000011028113500856177730000002160959930061834403_);}
	.st113{fill:url(#SVGID_00000165230240267276677150000010330369121451538330_);}
	.st114{fill:url(#SVGID_00000045589421589812794250000012669372356774710936_);}
	.st115{fill:url(#SVGID_00000145028522191528852870000015050245335348225461_);}
	.st116{fill:url(#SVGID_00000163763892254613513770000014513641047854257342_);}
	.st117{fill:url(#SVGID_00000015312275138768587310000001784752510064477857_);}
	.st118{fill:url(#SVGID_00000157295070014854217400000013956666032361809028_);}
	.st119{fill:url(#SVGID_00000103240593460621144390000004980896859582596745_);}
	.st120{fill:url(#SVGID_00000038406201055213969020000015610103182903637121_);}
	.st121{fill:url(#SVGID_00000179646910097208249980000011909980470480610748_);}
	.st122{fill:url(#SVGID_00000069395978799666411160000007798924019209779902_);}
	.st123{fill:url(#SVGID_00000004535260179516112020000012146030430006764165_);}
	.st124{fill:url(#SVGID_00000081632744900067503060000004600736240787333278_);}
	.st125{fill:url(#SVGID_00000088116373551087836900000001612367785103038107_);}
	.st126{fill:url(#SVGID_00000047021138531095763050000000759243223650166670_);}
	.st127{fill:url(#SVGID_00000009581895083071909470000009762271584297185451_);}
	.st128{fill:url(#SVGID_00000013907930310441950340000009662645510133430407_);}
	.st129{fill:url(#SVGID_00000103224973699633903430000007930325743182937220_);}
	.st130{fill:url(#SVGID_00000102528440984200290170000010760177462368033186_);}
	.st131{fill:url(#SVGID_00000113328066951849432790000011067458338908544132_);}
	.st132{fill:url(#SVGID_00000180335909397854378360000007035851467474976700_);}
	.st133{fill:url(#SVGID_00000091005956368185764840000014256587838953004185_);}
	.st134{fill:url(#SVGID_00000078726636810508798620000008331817806395457193_);}
	.st135{fill:url(#SVGID_00000091720397183192016440000016845587108224721034_);}
	.st136{fill:url(#SVGID_00000046315450570159160130000008669757212801413029_);}
	.st137{fill:url(#SVGID_00000064322470846928270970000011681161075929082279_);}
	.st138{fill:url(#SVGID_00000027600334920975828520000011762937576479955849_);}
	.st139{fill:url(#SVGID_00000088119729383590152870000002969811756718454187_);}
	.st140{fill:url(#SVGID_00000123432075810414290320000006307702630072894636_);}
	.st141{fill:url(#SVGID_00000083773164816345772870000001169537161437196944_);}
	.st142{fill:url(#SVGID_00000088843933915187484570000003457673088795800509_);}
	.st143{fill:url(#SVGID_00000100377171192649835790000018399994440505609148_);}
	.st144{fill:url(#SVGID_00000067211721056072715960000003548770082417537702_);}
	.st145{fill:url(#SVGID_00000179635609832514107200000008030967390862883000_);}
	.st146{fill:url(#SVGID_00000176018205221928448210000000080562620848032656_);}
	.st147{fill:url(#SVGID_00000010274709855389746610000004662217219415472267_);}
	.st148{fill:url(#SVGID_00000088845786976403703140000006454693956623984314_);}
	.st149{fill:url(#SVGID_00000036248360072366895780000016644669389879589267_);}
	.st150{fill:url(#SVGID_00000106863888071717934660000005373313412986023871_);}
	.st151{fill:url(#SVGID_00000135690521122746618850000007950602915176834977_);}
	.st152{fill:url(#SVGID_00000168799806975939303760000014455592900136253853_);}
	.st153{fill:url(#SVGID_00000019641022865977314480000011714576607004997006_);}
	.st154{fill:url(#SVGID_00000158725808190903596770000003956819654657969063_);}
	.st155{fill:url(#SVGID_00000039128960658383852770000013615075660194983311_);}
	.st156{fill:url(#SVGID_00000029030092010253360500000013074572772444586154_);}
	.st157{fill:url(#SVGID_00000119825172358866326590000015305899317670157701_);}
	.st158{fill:url(#SVGID_00000021820052009850326020000013824604815063734163_);}
	.st159{fill:url(#SVGID_00000070822297106452288210000008475139839367436211_);}
	.st160{fill:url(#SVGID_00000105386540788718013880000015427480462665820570_);}
	.st161{fill:url(#SVGID_00000153701204592765024860000007544576676953875375_);}
	.st162{fill:url(#SVGID_00000003090708867343859280000009803128772866546854_);}
	.st163{fill:url(#SVGID_00000150074739370720725860000015277267106650879929_);}
	.st164{fill:url(#SVGID_00000026147610928229816890000008360953011636813187_);}
	.st165{fill:url(#SVGID_00000166665478859834915320000003048358264198821809_);}
	.st166{fill:url(#SVGID_00000158734057922719848880000013751305914357514123_);}
	.st167{fill:url(#SVGID_00000170278819936816173030000011899408904993706631_);}
	.st168{fill:url(#SVGID_00000070826532801654454420000007389228353150950073_);}
	.st169{fill:url(#SVGID_00000045602791805615902630000008604559431104864158_);}
	.st170{fill:url(#SVGID_00000096775340690812536520000015409496535169060742_);}
</style>
<g>
	<g>
		<path class="st1" d="M2794,58.1h-70.5l-1.9,3.5l-80.8,146.7l-85.7-146.8l-1.9-3.4h-75.8l6.2,10.2l14.6,24
			c-23.4-22.2-59.2-34.3-105.7-34.3H2240v190.7L2127.1,61.5l-2-3.3h-58.3l-2,3.3L1936.5,278l-6,10.2h50.5v0.1h112.2v-50.8h-66
			l66.1-119.2l93.3,166.5l1.9,3.4h75.2l-0.1-0.2h115.5c99.6,0,150.2-38.9,150.2-115.7c0-13.3-1.7-25.6-5-36.8l90.4,149.2l2,3.2h44
			l1.9-3.4l125.5-216.4L2794,58.1 M2367.9,234.3h-61.3V110.2h86.4c46.7,0,68.5,18.9,68.5,59.5C2461.5,218,2437.9,234.3,2367.9,234.3
			z"/>
		<polyline class="st1" points="3234,58.1 3227.2,58.1 3227.2,194.8 3054.4,59.5 3052.6,58.1 3007.2,58.1 3007.2,249 2894.2,61.4 
			2892.2,58.2 2833.9,58.2 2831.9,61.5 2703.5,277.8 2697.5,288 2766,288 2766.1,287.8 2860.4,287.8 2860.4,237 2794.3,237 
			2860.3,118.1 2953.6,284.6 2955.6,288 3030.8,288 3030.7,287.9 3068.7,287.9 3068.7,149.3 3240.9,286.4 3242.8,287.9 3288,287.9 
			3288,58.1 3234,58.1 		"/>
		<path class="st1" d="M3505.9,58.1h-134.8c-47.3,0-63.2,14.6-63.2,58V230c0,43.2,15.9,57.9,63.2,57.9h134.8
			c47.3,0,63.3-14.6,63.3-57.9v-32.3l-6.7,0l-53-0.1h-6.8v35.4h-128.4V111.6h128.4v31.9l6.8,0l53,0.2l6.8,0v-27.7
			C3569.2,72.2,3553.8,58.1,3505.9,58.1"/>
		<polyline class="st1" points="3832.2,234.3 3657.3,234.3 3657.3,194 3761.7,194 3761.7,143.3 3657.3,143.3 3657.3,110.1 
			3836.4,110.1 3836.4,58.1 3590.8,58.1 3590.8,287.9 3839,287.9 3839,234.3 3832.2,234.3 		"/>
	</g>
	<g>
		<path class="st1" d="M765.8,9l-76.4,179.7L656.5,9h-66.6l-86.1,265.1L459.6,9h-83.1L250.6,294.7l18.8-119.4h-125l-9.6,61.5H187
			l-6,32.9c-30,11.9-80.9,7.5-102.6-31.5c-13.7-24.7-26.5-79.7,31.4-130.3c47.2-41.2,128.8-48.7,176-26.9c0,0,6-34.5,10.5-66.6
			c-90.6-31.5-161-5.2-208.1,24C24,78-6.9,138.6,1.3,220.9c9.5,95.6,133.3,155.8,238.1,95.1c1-0.6,1.7-1,2.4-1.4l-9.9,22.4h70.4
			l44.2-98.1h77.9l17.2,98.1h114.6l58.4-183.4L652,337h44.9l87.6-202.9l8.9,202.9h67.4L846.7,9H765.8 M373.4,175.3l28.5-63.6
			l12.3,63.6H373.4z"/>
		<polyline class="st1" points="866.1,337 1054.1,337 1065.3,266.6 947.7,266.6 957.1,208.2 1059.3,208.2 1070.6,137.8 967.2,137.8 
			976.2,79.4 1093.8,79.4 1105,9 918.5,9 866.1,337 		"/>
		<polyline class="st1" points="1784.1,116.1 1742.2,9 1665.1,9 1744.4,182 1720,337 1787.4,337 1808.1,200 1929.4,9 1850.8,9 
			1784.1,116.1 		"/>
		<path class="st1" d="M1600.4,11.9c-74.7-17.2-152.2,42.3-173.1,132.9c-21,90.6,22.6,178.1,97.3,195.4
			c74.7,17.3,152.2-42.2,173.1-132.9C1718.6,116.6,1675,29.1,1600.4,11.9 M1626.7,204.7c-18.2,54.6-61.8,85.9-97.5,69.9
			c-35.6-16-49.8-73.1-31.6-127.6c18.2-54.6,61.8-85.8,97.4-69.9C1630.8,92.9,1644.9,150.1,1626.7,204.7z"/>
		<path class="st1" d="M1333.1,10.9c-36.4-0.6-126.3,0-126.3,0h0.7l-52,325.4c0,0,107.8,0,151.6,0c62.4,0,153.7-92,70.6-167.1
			C1463.2,80.7,1378.5,11.7,1333.1,10.9 M1293.7,273.2c-37.2,0-59.4,0-59.4,0l10.4-65.4c0,0,14.1,0,56.5,0
			C1354.7,207.8,1353.2,273.2,1293.7,273.2z M1301.9,140.9c-37.2,0-46.8,0-46.8,0l10.4-60.9c0,0,1.5,0,43.8,0
			C1356.9,80,1347.3,140.9,1301.9,140.9z"/>
	</g>
</g>
</svg>
