<?xml version="1.0" encoding="utf-8"?>
<!-- Generator: Adobe Illustrator 25.0.0, SVG Export Plug-In . SVG Version: 6.00 Build 0)  -->
<svg version="1.1" id="Layer_1" xmlns="http://www.w3.org/2000/svg" xmlns:xlink="http://www.w3.org/1999/xlink" x="0px" y="0px"
	 viewBox="0 0 3840 1645.6" style="enable-background:new 0 0 3840 1645.6;" xml:space="preserve">
<style type="text/css">
	.st0{fill:#4F549D;}
	.st1{fill:#383C70;}
	.st2{fill:#696FD0;}
	.st3{fill:#DFB10A;}
	.st4{fill:#B28D08;}
	.st5{fill:#FFCA0B;}
	.st6{fill:#7AAC3B;}
	.st7{fill:#5A7F2B;}
	.st8{fill:#9EDF4D;}
	.st9{fill:none;stroke:#231F20;stroke-width:4.0894;stroke-miterlimit:10;}
	.st10{fill:#00968C;}
	.st11{fill:#006962;}
	.st12{fill:#00C9BC;}
	.st13{fill:#BD0547;}
	.st14{fill:#900436;}
	.st15{fill:#F0065A;}
	.st16{fill:#FFFFFF;}
	.st17{fill:#C6C6C6;}
	.st18{fill:#30308F;}
</style>
<g>
	<g>
		<path class="st16" d="M526.4,200.4l-14-72.7l-32.6,72.6L526.4,200.4 M1036.1,385.8l-76.9-0.1L949.3,154L848.9,385.6l-51.3-0.1
			L755.1,176l-67,209.4l-130.8-0.2l-19.5-112l-88.9-0.1l-50.6,111.9l-80.4-0.1L483.5,10.6l94.9,0.1l50,302.7l98.8-302.5l76.1,0.1
			l37.3,205.2l87.5-205.1l92.3,0.1L1036.1,385.8"/>
		<polyline class="st16" points="1256.8,386.2 1269.7,305.8 1135.4,305.6 1146.2,239 1263,239.1 1275.9,158.8 1157.9,158.6 
			1168.3,91.9 1302.5,92.1 1315.4,11.8 1102.5,11.5 1042.1,385.9 1256.8,386.2 		"/>
		<polyline class="st16" points="2256.8,13.1 2167,13 2090.8,135.1 2043,12.8 1955,12.7 2045.3,210.3 2017.2,387.3 2094.1,387.4 
			2118,230.9 2256.8,13.1 		"/>
		<path class="st16" d="M1799.5,315.6c40.7,18.3,90.6-17.4,111.4-79.6c20.8-62.3,4.8-127.6-35.9-145.9
			c-40.7-18.3-90.5,17.4-111.4,79.7C1742.7,232.1,1758.8,297.4,1799.5,315.6 M1683.2,167.3c24-103.5,112.6-171.3,197.9-151.5
			c85.2,19.8,134.9,119.8,110.8,223.3c-24,103.5-112.6,171.3-197.9,151.5C1708.8,370.8,1659.2,270.8,1683.2,167.3"/>
		<path class="st16" d="M154.3,43.4C80.9,88.7,45.5,157.9,54.8,251.9C65.5,361,206.7,430,326.5,360.9c10.5-6.1,6.4-5.1,10.3-8.6
			L361,200.2L218.2,200l-11,70.1l59.7,0.1l-6.9,37.6c-34.2,13.6-92.4,8.4-117.1-36.1c-15.6-28.2-30.1-91,36.1-148.7
			c53.9-47,147.1-55.4,201-30.5c0,0,6.9-39.4,12.1-76.1C288.6-19.6,208.2,10.2,154.3,43.4"/>
		<path class="st16" d="M1432.6,14l-59.9,371.6c0,0,123,0.2,173.1,0.2C1617,386,1721.4,281,1626.6,195
			c97.7-100.8,1.1-179.9-50.7-180.8c-41.6-0.8-144.3-0.2-144.3-0.2L1432.6,14 M1474.7,239c0,0,16.1,0,64.5,0.1
			c61.1,0.1,59.3,74.7-8.6,74.7c-42.4-0.1-67.9-0.1-67.9-0.1L1474.7,239 M1498.6,93c0,0,1.7,0,50.1,0.1c54.3,0.1,43.2,69.7-8.6,69.6
			c-42.4-0.1-53.5-0.1-53.5-0.1L1498.6,93"/>
	</g>
	<g>
		<g>
			<path class="st16" d="M1259.1,693.6c-249.6-8.6-492.2,211.1-521.4,461c-1.2,9.9-2.1,19.7-2.7,29.3
				c-18.3,271.2,164.7,413.6,408,418.9c285.9,6.2,485.4-176.9,508.3-427.5C1673.9,927.4,1508.7,702.2,1259.1,693.6z M1169,1371.6
				c-112.2-0.2-187.3-99.9-167.6-222.7c19.6-122.8,126.5-222.3,238.7-222.1c112.2,0.2,163.1,110.4,160.2,234.7
				C1396.1,1334,1281.3,1371.7,1169,1371.6z"/>
		</g>
		<g>
			<path class="st16" d="M2643.7,722.7c-279.5-1.9-504.8,157.8-504,454.9c0.6,250,138.3,433.5,403.5,425.9
				c197.7-5.7,516.8-178.6,517.2-453.1C3060.7,920.1,2911.8,724.5,2643.7,722.7z M2826.3,1149.9c-11.8,110-123.8,199.1-250.2,199
				c-126.4-0.1-219.3-89.3-207.5-199.3c11.8-110,123.8-199.1,250.2-199C2745.1,950.7,2838.1,1039.9,2826.3,1149.9z"/>
		</g>
		<g>
			<path class="st16" d="M1866.9,1339.8l-11.4-463.5c-0.6-22.4-2.3-44.6-5.2-66.8c-7.8-59.8-26.4-173.8-58.6-218.4
				c-54-74.6-166.9-78.1-203.4-6.1c-24.8,49-21.7,132.7,17,231.9c19.6,50.4,29.7,103.9,32.4,157.9c0,0,21.3,349.2,28.4,465.6
				c3.1,50.8-16.3,167.7,50.1,192.1c101.6,37.3,268.1-103,468.9-108.5c115.8-3.2,187.6-321.9-174.4-236.1
				C1930.6,1306.9,1866.9,1339.8,1866.9,1339.8z"/>
			<g>
				<path class="st16" d="M1666.2,1472.1c-0.3,14.1-0.7,29.7-0.4,45.7C1666,1500.5,1666.6,1484.7,1666.2,1472.1z"/>
			</g>
		</g>
		<g>
			<path class="st16" d="M3809.3,1440c-6.4-9.1-14-17.2-22.4-24.5c-39.4-33.8-189.2-162.2-301.6-254.5
				c87.8-47.8,130.1-80.7,130.1-80.7s122.1-80.7,148.3-204.5c20.1-118.8-2.2-180.8-173.7-265.2c-136.2-67-420.3-127.1-571.8,83.8
				c-35,48.7-35.2,124-20.7,162.3c33.9,89.6,63.1,160.8,56.5,504.1c-0.8,41.7-29.6,59.4-33.1,100.3
				c-3.8,44.2,11.9,161.2,135.9,166.4c106.8,4.5,125.7-87.3,125.7-125.2c0.1-62.7,0.3-176.2,0.3-176.2s289,243.3,338.7,286
				c26.8,23,61.6,36,96.8,32.9c26.8-2.3,57.6-13.4,87.7-43.1C3867.5,1541.6,3831,1471,3809.3,1440z M3282.7,981.6l0.9-199.1
				l150.5,0.2c69.2,0.1,106.8,82.1,60.7,133.7C3462.6,952.6,3400.3,981.8,3282.7,981.6z"/>
		</g>
		<g>
			<path class="st16" d="M550.6,742.7c18.6-4.5,36.8,6.7,42.9,24.8C620.8,848,730.8,889.2,804,821.2c26.5-24.6,34.7-56.6,41.3-124.6
				C862.5,520.8,535,434.3,361,564.5c-120.2,90-366.3,354-360.8,668C-2.4,1319,23,1381.9,23,1381.9s44.6,155.3,199.9,216.4
				c94.5,39.3,237,32.4,237,32.4s267.9,0.5,268.6,0.5c105.9,0.2,202-260-67-237.9c-113.2,9.3-443.8,94.6-436.7-191.5
				C230.4,972,450.4,766.8,550.6,742.7z"/>
		</g>
	</g>
</g>
</svg>
