<?xml version="1.0" encoding="utf-8"?>
<!-- Generator: Adobe Illustrator 25.4.1, SVG Export Plug-In . SVG Version: 6.00 Build 0)  -->
<svg version="1.1" id="Layer_1" xmlns="http://www.w3.org/2000/svg" xmlns:xlink="http://www.w3.org/1999/xlink" x="0px" y="0px"
	 viewBox="0 0 3839 904.5" style="enable-background:new 0 0 3839 904.5;" xml:space="preserve">
<style type="text/css">
	.st0{fill:#FFFFFF;}
	.st1{fill:#912620;}
	.st2{fill:#008471;}
	.st3{fill:#005090;}
	.st4{fill:#B22D2A;}
	.st5{fill:#B32D2A;}
	.st6{fill:#B42D2A;}
	.st7{fill:#B52D2A;}
	.st8{fill:#B62D2A;}
	.st9{fill:#B72D29;}
	.st10{fill:#B82D29;}
	.st11{fill:#B92D29;}
	.st12{fill:#BA2D29;}
	.st13{fill:#BB2D29;}
	.st14{fill:#BC2D29;}
	.st15{fill:#BD2D29;}
	.st16{fill:#BE2D29;}
	.st17{fill:#BF2D29;}
	.st18{fill:#C02D29;}
	.st19{fill:#C12D28;}
	.st20{fill:#C22D28;}
	.st21{fill:#C32D28;}
	.st22{fill:#C42D28;}
	.st23{fill:#C52D28;}
	.st24{fill:#C62D28;}
	.st25{fill:#C72D28;}
	.st26{fill:#C82D28;}
	.st27{fill:#C92D28;}
	.st28{fill:#CA2D28;}
	.st29{fill:#CA2E27;}
	.st30{fill:#CB2E27;}
	.st31{fill:#CC2E27;}
	.st32{fill:#CD2E27;}
	.st33{fill:#CE2E27;}
	.st34{fill:#CF2E27;}
	.st35{fill:#D02E27;}
	.st36{fill:#D12E27;}
	.st37{fill:#D22E27;}
	.st38{fill:#D32E27;}
	.st39{fill:#D42E26;}
	.st40{fill:#D52E26;}
	.st41{fill:#D62E26;}
	.st42{fill:#D72E26;}
	.st43{fill:#D82E26;}
	.st44{fill:#D92E26;}
	.st45{fill:#DA2E26;}
	.st46{fill:#DB2E26;}
	.st47{fill:#DC2E26;}
	.st48{fill:#DD2E26;}
	.st49{fill:#DE2E25;}
	.st50{fill:#DF2E25;}
	.st51{fill:#E02E25;}
	.st52{fill:#E12E25;}
	.st53{fill:#E22E25;}
	.st54{fill:#009588;}
	.st55{fill:#009587;}
	.st56{fill:#019486;}
	.st57{fill:#019485;}
	.st58{fill:#019384;}
	.st59{fill:#029383;}
	.st60{fill:#029382;}
	.st61{fill:#029281;}
	.st62{fill:#039280;}
	.st63{fill:#03917F;}
	.st64{fill:#03917E;}
	.st65{fill:#03917D;}
	.st66{fill:#04907C;}
	.st67{fill:#04907B;}
	.st68{fill:#048F7A;}
	.st69{fill:#058F79;}
	.st70{fill:#058F78;}
	.st71{fill:#058E77;}
	.st72{fill:#068E76;}
	.st73{fill:#068D75;}
	.st74{fill:#068D74;}
	.st75{fill:#078D73;}
	.st76{fill:#078C72;}
	.st77{fill:#078C71;}
	.st78{fill:#088B70;}
	.st79{fill:#088B6F;}
	.st80{fill:#088B6E;}
	.st81{fill:#088A6D;}
	.st82{fill:#098A6C;}
	.st83{fill:#09896B;}
	.st84{fill:#09896A;}
	.st85{fill:#0A8969;}
	.st86{fill:#0A8868;}
	.st87{fill:#0A8867;}
	.st88{fill:#0B8766;}
	.st89{fill:#0B8765;}
	.st90{fill:#0B8764;}
	.st91{fill:#0C8663;}
	.st92{fill:#0C8662;}
	.st93{fill:#0C8561;}
	.st94{fill:#0D8560;}
	.st95{fill:#0D845F;}
	.st96{fill:#0D845E;}
	.st97{fill:#0E835D;}
	.st98{fill:#0E835C;}
	.st99{fill:#0E835B;}
	.st100{fill:#0F825A;}
	.st101{fill:#0F8259;}
	.st102{fill:#0F8158;}
	.st103{fill:#108157;}
	.st104{fill:#108156;}
	.st105{fill:#108055;}
	.st106{fill:#118054;}
	.st107{fill:#117F53;}
	.st108{fill:#117F52;}
	.st109{fill:#117F51;}
	.st110{fill:#127E50;}
	.st111{fill:#127E4F;}
	.st112{fill:#127D4E;}
	.st113{fill:#137D4D;}
	.st114{fill:#137D4C;}
	.st115{fill:#137C4B;}
	.st116{fill:#147C4A;}
	.st117{fill:#147B49;}
	.st118{fill:#147B48;}
	.st119{fill:#157B47;}
	.st120{fill:#157A46;}
	.st121{fill:#157A45;}
	.st122{fill:#167944;}
	.st123{fill:#167943;}
	.st124{fill:#167942;}
	.st125{fill:#167841;}
	.st126{fill:#177840;}
	.st127{fill:#17773F;}
	.st128{fill:#17773E;}
	.st129{fill:#18773D;}
	.st130{fill:#18763C;}
	.st131{fill:#18763B;}
	.st132{fill:#19753A;}
	.st133{fill:#197539;}
	.st134{fill:#005EAA;}
	.st135{fill:#005EAB;}
	.st136{fill:#015FAC;}
	.st137{fill:#015FAD;}
	.st138{fill:#0160AE;}
	.st139{fill:#0260AF;}
	.st140{fill:#0261B0;}
	.st141{fill:#0261B1;}
	.st142{fill:#0362B2;}
	.st143{fill:#0362B3;}
	.st144{fill:#0362B4;}
	.st145{fill:#0463B5;}
	.st146{fill:#0463B6;}
	.st147{fill:#0464B7;}
	.st148{fill:#0564B8;}
	.st149{fill:#0565B9;}
	.st150{fill:#0565BA;}
	.st151{fill:#0666BB;}
	.st152{fill:#0666BC;}
	.st153{fill:#0666BD;}
	.st154{fill:#0767BE;}
	.st155{fill:#0767BF;}
	.st156{fill:#0768BF;}
	.st157{fill:#0768C0;}
	.st158{fill:#0869C1;}
	.st159{fill:#0869C2;}
	.st160{fill:#0869C3;}
	.st161{fill:#096AC4;}
	.st162{fill:#096AC5;}
	.st163{fill:#096BC6;}
	.st164{fill:#0A6BC7;}
	.st165{fill:#0A6CC8;}
	.st166{fill:#0A6CC9;}
	.st167{fill:#0B6DCA;}
	.st168{fill:#0B6DCB;}
	.st169{fill:#0B6DCC;}
	.st170{fill:#0C6ECD;}
	.st171{fill:#0C6ECE;}
	.st172{fill:#0C6FCF;}
	.st173{fill:#0D6FD0;}
	.st174{fill:#0D70D1;}
	.st175{fill:#0D70D2;}
	.st176{fill:#0E71D3;}
	.st177{fill:#0E71D4;}
	.st178{fill:#0058B7;}
	.st179{fill:#0058B6;}
	.st180{fill:#0057B5;}
	.st181{fill:#0057B4;}
	.st182{fill:#0057B3;}
	.st183{fill:#0057B2;}
	.st184{fill:#0056B1;}
	.st185{fill:#0056B0;}
	.st186{fill:#0056AF;}
	.st187{fill:#0056AE;}
	.st188{fill:#0055AD;}
	.st189{fill:#0055AC;}
	.st190{fill:#0055AB;}
	.st191{fill:#0055AA;}
	.st192{fill:#0054A9;}
	.st193{fill:#0054A8;}
	.st194{fill:#0054A7;}
	.st195{fill:#0054A6;}
	.st196{fill:#0053A5;}
	.st197{fill:#0053A4;}
	.st198{fill:#0053A3;}
	.st199{fill:#0053A2;}
	.st200{fill:#0052A1;}
	.st201{fill:#0052A0;}
	.st202{fill:#00529F;}
	.st203{fill:#00529E;}
	.st204{fill:#00519D;}
	.st205{fill:#00519C;}
	.st206{fill:#00519B;}
	.st207{fill:#00519A;}
	.st208{fill:#005099;}
	.st209{fill:#005098;}
	.st210{fill:#005097;}
	.st211{fill:#005096;}
	.st212{fill:#004F95;}
	.st213{fill:#004F94;}
	.st214{fill:#004F93;}
	.st215{fill:#004F92;}
	.st216{fill:#004E91;}
	.st217{fill:#004E90;}
	.st218{fill:#004E8F;}
	.st219{fill:#004E8E;}
	.st220{fill:#004D8D;}
	.st221{fill:#004D8C;}
	.st222{fill:#004D8B;}
	.st223{fill:#004D8A;}
	.st224{fill:#004C89;}
	.st225{fill:#004C88;}
	.st226{fill:#008472;}
	.st227{fill:#008572;}
	.st228{fill:#008671;}
	.st229{fill:#008771;}
	.st230{fill:#008871;}
	.st231{fill:#008970;}
	.st232{fill:#008A70;}
	.st233{fill:#008B6F;}
	.st234{fill:#008C6F;}
	.st235{fill:#008D6F;}
	.st236{fill:#008E6E;}
	.st237{fill:#008F6E;}
	.st238{fill:#00906D;}
	.st239{fill:#00916D;}
	.st240{fill:#00926D;}
	.st241{fill:#00936C;}
	.st242{fill:#00946C;}
	.st243{fill:#00956B;}
	.st244{fill:#00966B;}
	.st245{fill:#00976B;}
	.st246{fill:#00986A;}
	.st247{fill:#00996A;}
	.st248{fill:#D60700;}
	.st249{fill:#034693;}
	.st250{fill:url(#SVGID_1_);}
	.st251{fill:url(#SVGID_00000024721424793754019530000007538508423627443099_);}
	.st252{fill:url(#SVGID_00000130646115163859407380000002597208707945370252_);}
	.st253{fill:url(#SVGID_00000026867895967817255810000018182061059332029869_);}
	.st254{fill:url(#SVGID_00000084529115028875477420000003800870632773443714_);}
	.st255{fill:url(#SVGID_00000141423923570037046370000010474298068915154584_);}
	.st256{fill:url(#SVGID_00000014632172237115954130000001956856267709149877_);}
	.st257{fill:url(#SVGID_00000108304823327486170130000008451679495082543528_);}
	.st258{fill:url(#SVGID_00000120550412445956332660000018299084841609657991_);}
	.st259{fill:url(#SVGID_00000118386770254565627100000000964038160200736948_);}
	.st260{fill:url(#SVGID_00000031183630375567554910000003403421980328961716_);}
	.st261{fill:url(#SVGID_00000129916171735323626060000006264541785254993810_);}
	.st262{fill:url(#SVGID_00000052787081998611047180000011540528738246024890_);}
	.st263{fill:url(#SVGID_00000136369200543380022140000015960311526855803030_);}
	.st264{fill:url(#SVGID_00000062187045360418989010000015545281951187904191_);}
	.st265{fill:url(#SVGID_00000031906128082186561360000017740338563350112655_);}
	.st266{fill:url(#SVGID_00000123401025526110598930000001754968723820157569_);}
	.st267{fill:url(#SVGID_00000041984381123331552600000013283729704756611994_);}
	.st268{fill:url(#SVGID_00000055697332891085908420000015774859955434663584_);}
	.st269{fill:url(#SVGID_00000120535647140766899780000004976886760286807707_);}
	.st270{fill:url(#SVGID_00000044138825296753382140000010220566672180307116_);}
	.st271{fill:url(#SVGID_00000081641617718447349750000002319111835226103706_);}
	.st272{fill:url(#SVGID_00000121249474797084380140000012015130336619465396_);}
	.st273{fill:url(#SVGID_00000032633069549280317760000003483556959296624021_);}
	.st274{fill:url(#SVGID_00000144319478899720380410000011592296597774713258_);}
	.st275{fill:url(#SVGID_00000096048458368037766180000002052496791611759010_);}
	.st276{fill:url(#SVGID_00000149345606660160016790000012604951866153897149_);}
	.st277{fill:url(#SVGID_00000034052690128477775250000007958938543499032735_);}
	.st278{fill:url(#SVGID_00000033332601267111012310000007940331433817408399_);}
	.st279{fill:url(#SVGID_00000181051859289616633330000001986752309564169362_);}
	.st280{fill:url(#SVGID_00000045595980490760999290000015955500524435101577_);}
	.st281{fill:url(#SVGID_00000083784789888197765940000004626733210017058432_);}
	.st282{fill:url(#SVGID_00000151523139403920157010000016195972367269746304_);}
	.st283{fill:url(#SVGID_00000087380487816761451670000010123086898857280417_);}
	.st284{fill:url(#SVGID_00000168114496464117227050000013380963402460905115_);}
	.st285{fill:url(#SVGID_00000024718349851815873130000012926233482827873940_);}
	.st286{fill:url(#SVGID_00000052795891793741451520000017301060267274949771_);}
	.st287{fill:url(#SVGID_00000106114929161321891430000000192245239374450100_);}
	.st288{fill:url(#SVGID_00000098182267333904963140000012151916916938473878_);}
	.st289{fill:url(#SVGID_00000173159138051289491890000014135448645722460825_);}
	.st290{fill:url(#SVGID_00000130645359545631433590000009701312672326856324_);}
	.st291{fill:url(#SVGID_00000152232663301001194790000003210533949936730526_);}
	.st292{fill:url(#SVGID_00000173863623256398659330000002996504734519377837_);}
	.st293{fill:url(#SVGID_00000043444156438731100620000007648886014160282542_);}
	.st294{fill:url(#SVGID_00000149360056077902612490000007765974020033565324_);}
	.st295{fill:url(#SVGID_00000010304073505897692570000000138947445564905624_);}
	.st296{fill:url(#SVGID_00000106143759016687790980000001557315396263493049_);}
	.st297{fill:url(#SVGID_00000034054098779090201890000003794967629486355608_);}
	.st298{fill:url(#SVGID_00000021093221290009855500000003914388412231803559_);}
	.st299{fill:url(#SVGID_00000066477994208892087410000003742958386274823051_);}
	.st300{fill:url(#SVGID_00000158024307601900735090000001992486979319296176_);}
	.st301{fill:url(#SVGID_00000142167909166410617150000000697935646243409289_);}
	.st302{fill:url(#SVGID_00000105410587689793192130000010207343490877249700_);}
	.st303{fill:url(#SVGID_00000084512362294698114460000003795230281735612572_);}
	.st304{fill:url(#SVGID_00000132086935058444346400000016526981863748108946_);}
	.st305{fill:url(#SVGID_00000141437225852139147300000002345219854570685838_);}
	.st306{fill:url(#SVGID_00000127748495222456481540000010070789884804481452_);}
	.st307{fill:url(#SVGID_00000083073596830302128010000016822899933808774554_);}
	.st308{fill:url(#SVGID_00000062193522766630884100000002202683641132237203_);}
	.st309{fill:url(#SVGID_00000037679049754609463790000008820999896722446981_);}
	.st310{fill:url(#SVGID_00000168082742422315639810000001487392934675150775_);}
	.st311{fill:url(#SVGID_00000121239640352253870700000001571797453467142045_);}
	.st312{fill:url(#SVGID_00000070076914585807387420000012817924621402664629_);}
	.st313{fill:url(#SVGID_00000111175850233002679600000011933094920626602930_);}
	.st314{fill:url(#SVGID_00000040551519448483002550000008310345797468368826_);}
	.st315{fill:url(#SVGID_00000018923244666246901780000001301189774277620385_);}
	.st316{fill:url(#SVGID_00000037680891486180227140000002733223892531037340_);}
	.st317{fill:url(#SVGID_00000010990409296441592090000010833531978216742318_);}
	.st318{fill:url(#SVGID_00000070083857811934135180000012696125149534338688_);}
	.st319{fill:url(#SVGID_00000063624602005798701490000004250276080243339153_);}
	.st320{fill:url(#SVGID_00000135662991995399225490000000340911054397341058_);}
	.st321{fill:url(#SVGID_00000051344315868003909900000015574950940107633029_);}
	.st322{fill:url(#SVGID_00000173846334448949267830000017521470896088393112_);}
	.st323{fill:url(#SVGID_00000158726923362774479660000001415062105375310995_);}
	.st324{fill:url(#SVGID_00000039842132848441576280000009477013289281619609_);}
	.st325{fill:url(#SVGID_00000079448421999548391880000010915904520917093268_);}
	.st326{fill:url(#SVGID_00000054953515210932466500000011078087877502044291_);}
	.st327{fill:url(#SVGID_00000052102070203787249160000008537556745214260354_);}
	.st328{fill:url(#SVGID_00000092432934332031499220000016935601486977417138_);}
	.st329{fill:url(#SVGID_00000147197197805781036680000016281638811730674318_);}
	.st330{fill:url(#SVGID_00000079480287430830374170000009448415822761903748_);}
	.st331{fill:url(#SVGID_00000114060638693140651030000014925744620364840626_);}
	.st332{fill:url(#SVGID_00000042730094045288309960000016890807526815516833_);}
	.st333{fill:url(#SVGID_00000173130732954127951130000001381262265867727000_);}
	.st334{fill:url(#SVGID_00000156560627990542246780000000332704092333596345_);}
	.st335{fill:url(#SVGID_00000079477420726884065430000016555751241156902544_);}
	.st336{fill:url(#SVGID_00000010294161934933205770000014135750511494585534_);}
	.st337{fill:url(#SVGID_00000140735328137252621740000017553538822627080583_);}
	.st338{fill:url(#SVGID_00000003792740770803584580000009462583070836584112_);}
	.st339{fill:url(#SVGID_00000137110015949435691740000001258706658043257989_);}
	.st340{fill:url(#SVGID_00000047773899646823013530000012176447203055468431_);}
	.st341{fill:url(#SVGID_00000097466228436944509990000012911071526232049280_);}
	.st342{fill:url(#SVGID_00000042737713601666704900000004831137268120348841_);}
	.st343{fill:url(#SVGID_00000057138776998827758270000002939445577780414124_);}
	.st344{fill:url(#SVGID_00000122700354224810493870000006382622686261092750_);}
	.st345{fill:url(#SVGID_00000070113849663850350920000012694684899636634268_);}
	.st346{fill:#034693;stroke:#FFFFFF;stroke-width:25.205;stroke-miterlimit:10;}
	.st347{fill:url(#SVGID_00000004525936531696023100000000010298405827189676_);}
	.st348{fill:url(#SVGID_00000141445976919627176130000003792904959921338272_);}
	.st349{fill:url(#SVGID_00000162348875342183439960000005442219400650370702_);}
	.st350{fill:url(#SVGID_00000008129384137564345110000018130901866602663849_);}
	.st351{fill:url(#SVGID_00000144331390758728105920000007233240762697246383_);}
	.st352{fill:url(#SVGID_00000108309877519033377120000006554216590434092453_);}
	.st353{fill:url(#SVGID_00000106869850269439380050000010863095136966522278_);}
	.st354{fill:url(#SVGID_00000158736219216404676360000005312064559529337524_);}
</style>
<g>
	<g>
		<g>
			<g>
				<path class="st0" d="M2900.6,66c-12.1-38.5-48.4-66-90.2-66c-41.8,0-78.1,27.5-90.2,66l-31.9,94.6V5.5h-167.1
					c-29.7,0-57.2,12.1-78.1,31.9V5.5h-171.5c-31.9,0-60.5,13.2-81.4,35.2V5.5h-162.7c-69.3,0-126.5,57.2-126.5,126.5
					c0,33,13.2,63.8,34.1,85.8h-34.1v147.4h162.7c46.2,0,85.8-24.2,108.9-61.6c18.7,36.3,56.1,61.6,100.1,61.6h172.6v-31.9
					c19.8,19.8,47.3,31.9,78.1,31.9h477.2L2900.6,66z"/>
				<g>
					<g>
						<path d="M2063.8,244.1h-137.5V287h137.5c26.4,0,48.4-22,48.4-48.4s-22-48.4-48.4-48.4h-35.2c-31.9,0-58.3-26.4-58.3-58.3
							s26.4-58.3,58.3-58.3H2165V30.8h-137.5c-56.1,0-101.2,45.1-101.2,101.2s45.1,101.2,101.2,101.2h35.2c3.3,0,5.5,2.2,5.5,5.5
							C2068.2,241.9,2066,244.1,2063.8,244.1z"/>
						<path d="M2027.5,127.6H2165v-44h-137.5c-26.4,0-48.4,22-48.4,48.4s22,48.4,48.4,48.4h35.2c31.9,0,58.3,26.4,58.3,58.3
							s-26.4,58.3-58.3,58.3h-136.4v42.9h137.5c56.1,0,101.2-45.1,101.2-101.2s-45.1-101.2-101.2-101.2h-35.2
							c-3.3,0-5.5-2.2-5.5-5.5C2023.1,129.8,2025.3,127.6,2027.5,127.6z"/>
					</g>
					<g>
						<path d="M2521.3,83.6c-18.7,0-33,14.3-33,33v137.5c0,18.7,14.3,33,33,33h89v-96.9h-68.2v42.9h25.3v9.9h-25.3
							c-5.5,0-9.9-4.4-9.9-9.9v-96.7c0-5.5,4.4-9.9,9.9-9.9h122.1V83.6H2521.3z"/>
						<path d="M2791.8,287h100.1l-68.2-202.3c-2.2-5.5-6.6-9.9-13.2-9.9c-5.5,0-11,4.4-13.2,8.8l-88,256.2h50.6l30.8-91.3V287
							H2791.8z M2809.4,194.6l14.3,44H2794L2809.4,194.6z"/>
						<path d="M2876.4,75.9c-8.8-28.6-35.2-50.6-67.1-50.6c-31.9,0-58.3,20.9-66,49.5l-80.3,235.3V137.5h-121v42.9h79.2v116.6h-99
							c-24.2,0-42.9-19.8-42.9-42.9V116.6c0-24.2,19.8-42.9,42.9-42.9h141.9V30.8h-143c-47.3,0-85.8,38.5-85.8,85.8v137.5
							c0,47.3,38.5,85.8,85.8,85.8h177.1l89.1-258.4c3.3-9.9,12.1-16.5,23.1-16.5c11,0,19.8,6.6,23.1,16.5l72.6,215.5h-114.4v42.9
							h173.7l0,0L2876.4,75.9z"/>
					</g>
					<g>
						<path d="M2271.7,296.9c-24.2,0-42.9-19.8-42.9-42.9V116.5c0-24.2,19.8-42.9,42.9-42.9h147.4V30.8h-147.4
							c-47.3,0-85.8,38.5-85.8,85.8v137.5c0,47.3,38.5,85.8,85.8,85.8h147.4v-42.9L2271.7,296.9L2271.7,296.9z"/>
						<path d="M2281.6,234.2h106.7v-42.9h-149.6v63.8c0,18.7,14.3,33,33,33h147.4v-42.9h-127.6
							C2286,244.1,2281.6,239.7,2281.6,234.2z"/>
						<path d="M2388.2,137.5h-106.7c0-5.5,4.4-9.9,9.9-9.9h126.5v-44h-146.3c-18.7,0-33,14.3-33,33v63.8h149.6V137.5z"/>
					</g>
				</g>
			</g>
		</g>
	</g>
	<path class="st0" d="M65.4,904.5c-12,0-22.8-2.9-32.1-8.5C4.6,878.5-6,837,3.3,779c8.8-54.9,34.4-119.2,72.1-181
		c32.1-52.6,69.5-97.9,108.1-131.1c39.1-33.5,75.6-51.3,105.6-51.3c12,0,22.8,2.9,32.1,8.5c28.6,17.5,39.3,59,30,117
		c-8.8,54.9-34.4,119.2-72.1,181c-32.1,52.6-69.5,97.9-108.1,131.1C131.9,886.8,95.4,904.5,65.4,904.5z"/>
	<path class="st0" d="M396.4,904.5c-12,0-22.8-2.9-32.1-8.5c-28.6-17.5-39.3-59-30-117c8.8-54.9,34.4-119.2,72.1-181
		c32.1-52.6,69.5-97.9,108.1-131.1c39.1-33.5,75.6-51.3,105.6-51.3c12,0,22.8,2.9,32.1,8.5c28.6,17.5,39.3,59,30,117
		c-8.8,54.9-34.4,119.2-72.1,181c-32.1,52.6-69.5,97.9-108.1,131.1C462.9,886.8,426.4,904.5,396.4,904.5z"/>
	<path class="st0" d="M727.4,904.5c-12,0-22.8-2.9-32.1-8.5c-28.6-17.5-39.3-59-30-117c8.8-54.9,34.4-119.2,72.1-181
		c32.1-52.6,69.5-97.9,108.1-131.1c39.1-33.5,75.6-51.3,105.6-51.3c12,0,22.8,2.9,32.1,8.5c14.6,8.9,24.5,23.9,29.6,44.6
		c14.3,59.1-13.8,158.5-71.7,253.4c-32.1,52.6-69.5,97.9-108.1,131.1C793.9,886.8,757.4,904.5,727.4,904.5z"/>
	<g>
		<path class="st0" d="M2429.4,467.6h-169.8c-23.2,0-42.9,16.9-46.3,39.8L2167.5,812c-4.2,28.2,17.7,53.7,46.3,53.7h26.9h128.9
			l12-80.4h-128.7l11.4-76.1h108.2l11.8-80.4h-108l12.2-81.2h129L2429.4,467.6z"/>
		<path class="st0" d="M3215.1,467.6h-169.8c-23.2,0-42.9,16.9-46.3,39.8L2953.2,812c-4.2,28.2,17.7,53.7,46.3,53.7h26.9h128.9
			l12-80.4h-128.7l11.4-76.1h108.2l11.8-80.4h-108l12.2-81.2h129L3215.1,467.6z"/>
		<path class="st0" d="M1622.7,466.2c-22.5,0-45,11.9-55.7,37.5l-149.8,362.1h86.9l31-74.9h91.7l6.7,74.9h80.6l-30.6-344.2
			C1680.5,486,1651.7,466.2,1622.7,466.2z M1568.4,710.5l42.3-102l9.1,102H1568.4z"/>
		<path class="st0" d="M2044.3,499.1l-93.8,196.9l-31.7-181.8c-5.4-31.1-30.4-46.6-55.4-46.6c-25.5,0-50.9,16-55.7,47.9l-52.7,350.3
			h81.1l28.9-191.6l27.7,158.5c3.8,21.7,21.9,33.6,40.2,33.6c14.4,0,28.9-7.3,36.4-23.1l73.8-154.9l-26.7,177.5h81.2l50.4-335
			c5.8-38.4-24.7-63.2-55.3-63.2C2073.8,467.6,2054.7,477.2,2044.3,499.1z"/>
		<path class="st0" d="M1430.1,548.9c0,0-53.7-102.8-154.6-102.8c-125.2,0-208,125.5-212.4,219c-7.6,160.2,118.8,209.1,173.9,209.1
			c110.7,0,171.6-101.1,195.3-180.2c7.5-25-11.3-50.1-37.4-50.1h-33.5h-92l-33.3,80.3h93.7c-20.6,36.9-57.4,64.1-100.7,64.1
			c-21.9,0-87.8-19.9-83.2-116.8c3.1-65,54.5-144.7,129.6-144.7c49.9,0,83,59.5,83,59.5L1430.1,548.9z"/>
		<path class="st0" d="M2918.8,548.9c0,0-53.7-102.8-154.6-102.8c-125.2,0-208,125.5-212.4,219c-7.6,160.2,118.8,209.1,173.9,209.1
			c110.7,0,171.6-101.1,195.3-180.2c7.5-25-11.3-50.1-37.4-50.1h-33.5h-92l-33.3,80.3h93.7c-20.6,36.9-57.4,64.1-100.7,64.1
			c-21.9,0-87.8-19.9-83.2-116.8c3.1-65,54.5-144.7,129.6-144.7c49.9,0,83,59.5,83,59.5L2918.8,548.9z"/>
		<path class="st0" d="M3803.9,753.8c0,0,0,0-1.1-4.9l0-0.2c-0.7-3.4-2-9.1-4-18.7c-5.1-23.8-23.1-29.2-23.1-29.2
			c66.5-37.2,63.3-106,63.3-110.6c0-68.1-63.6-122.6-116.2-122.6h-29.4h-41.6c-23,0-42.5,16.6-46.2,39.3l-58,358.9h81.3l23-142h36.5
			c15.3,0,28.5,10.7,31.7,25.6l25.2,116.5h82.7L3803.9,753.8L3803.9,753.8z M3700.5,643.4H3665l15.3-95.5h33.5
			c15.9,0,31.6,15.9,35.1,34.9C3754.1,611,3732.3,643.4,3700.5,643.4z"/>
		<path class="st0" d="M3409.6,466.2c-22.4,0-45,11.9-55.7,37.5l-149.8,362.1h86.9l31-74.9h91.7l6.7,74.9h80.6l-30.6-344.2
			C3467.3,486,3438.5,466.2,3409.6,466.2z M3355.4,710.5l42.3-102l9.1,102H3355.4z"/>
	</g>
</g>
</svg>
