<?xml version="1.0" encoding="utf-8"?>
<!-- Generator: Adobe Illustrator 26.0.3, SVG Export Plug-In . SVG Version: 6.00 Build 0)  -->
<svg version="1.1" id="Layer_1" xmlns="http://www.w3.org/2000/svg" xmlns:xlink="http://www.w3.org/1999/xlink" x="0px" y="0px"
	 viewBox="0 0 3839 1190.8" style="enable-background:new 0 0 3839 1190.8;" xml:space="preserve">
<style type="text/css">
	.st0{fill:#FFFFFF;}
	.st1{fill:#FF0000;}
	.st2{fill:url(#SVGID_1_);}
	.st3{fill:url(#SVGID_00000096026463502559289130000013963088939240408454_);}
	.st4{fill:url(#SVGID_00000126292365207539135710000000550305128342223525_);}
	.st5{fill:url(#SVGID_00000119092932167603416280000012142433477526277505_);}
	.st6{fill:url(#SVGID_00000089545926734581562490000004192974698985072286_);}
	.st7{fill:url(#SVGID_00000114784847643615213520000016626069802354308513_);}
	.st8{fill:#3636FF;}
	.st9{display:none;}
	.st10{display:inline;}
	.st11{font-family:'FuturaPT-Bold';}
	.st12{font-size:1260.3585px;}
	.st13{letter-spacing:-25;}
	.st14{font-family:'Gotham-UltraItalic';}
	.st15{font-size:833.8892px;}
	.st16{enable-background:new    ;}
	.st17{fill:url(#SVGID_00000084531656195696248600000008512986389957482138_);}
	.st18{fill:url(#SVGID_00000085973107685760358730000013879948344672140433_);}
	.st19{fill:url(#SVGID_00000067197711845574051070000014402477841305268894_);}
	.st20{fill:url(#SVGID_00000134934084258011685410000012886753027012882325_);}
	.st21{fill:url(#SVGID_00000169543292855747008150000009966527764266718634_);}
	.st22{fill:url(#SVGID_00000105424333704921862840000001929613862364996007_);}
	.st23{fill:url(#SVGID_00000075847386635797874160000007831912249538392243_);}
	.st24{fill:url(#SVGID_00000116919342196468955750000012688176757843429005_);}
	.st25{fill:url(#SVGID_00000082353661438912428860000008299199692528241548_);}
	.st26{fill:url(#SVGID_00000094605061451170439340000002214286144293012877_);}
	.st27{fill:url(#SVGID_00000083811686742120305600000017242420317298927000_);}
	.st28{fill:url(#SVGID_00000093890735061126475340000003005867606825936063_);}
	.st29{fill:url(#SVGID_00000028326087251256467800000018196898743181905040_);}
	.st30{fill:url(#SVGID_00000086677350756596818450000002883096326820579247_);}
	.st31{fill:url(#SVGID_00000135672735070710867240000007433323214083110586_);}
	.st32{fill:url(#SVGID_00000035502873865450784370000009595322322698563220_);}
	.st33{fill:url(#SVGID_00000120546767774514615020000016714022787432383368_);}
	.st34{fill:url(#SVGID_00000107568537090133805600000001498251830715710859_);}
	.st35{fill:url(#SVGID_00000090993121360513707980000015429301268628407184_);}
	.st36{fill:url(#SVGID_00000108304272953071437380000015957523173980026245_);}
	.st37{fill:url(#SVGID_00000067944823643791397680000015901122644046410404_);}
	.st38{fill:url(#SVGID_00000064330666760825541200000012984547864823779249_);}
	.st39{fill:url(#SVGID_00000109710407225327114530000012646074778822763665_);}
	.st40{fill:url(#SVGID_00000160899375543321349560000009348133355339789453_);}
	.st41{fill:url(#SVGID_00000165947488485595416530000007762213429542299779_);}
	.st42{fill:url(#SVGID_00000114781577071664758040000003030438467812494734_);}
	.st43{fill:url(#SVGID_00000158722171033228295040000003365078892457907844_);}
	.st44{fill:url(#SVGID_00000127029596678925473290000013482439979439183508_);}
</style>
<g>
	<g>
		<path class="st0" d="M0,849.4V539.6c0-28.4,24.5-54.2,63.3-54.2h358.9c2.6,0,3.9,0,6.5,0c15.5,0,19.4-1.3,19.4-19.4v-59.4
			c0-15.5-7.7-19.4-25.8-19.4H37.4C12.9,387.3,0,386,0,360.2v-42.6C0,290.4,5.2,284,37.4,284h462.1c37.4,0,55.5,19.4,55.5,56.8
			v433.7c0,20.7,9,31,27.1,31h21.9c16.8,0,27.1,9,27.1,29.7v42.6c0,20.7-12.9,33.6-32.3,33.6H56.8C23.2,911.4,0,886.8,0,849.4z
			 M422.1,800.3c23.2,0,25.8-3.9,25.8-25.8V620.9c0-24.5-2.6-31-25.8-31H207.8c-21.9,0-23.2,5.2-23.2,24.5c0,2.6,0,3.9,0,6.5v153.6
			c0,18.1,6.5,25.8,23.2,25.8H422.1z"/>
		<path class="st0" d="M675.1,338.2c0-31,23.2-54.2,60.7-54.2h361.4c31,0,52.9,21.9,52.9,49.1v100.7c0,29.7-6.5,41.3-34.9,41.3
			h-52.9c-23.2,0-32.3-7.7-32.3-29.7v-40c0-19.4-1.3-23.2-20.7-23.2H815.8c-19.4,0-21.9,9-21.9,28.4v63.3c0,24.5,3.9,45.2,14.2,63.3
			l37.4,71c15.5,31,16.8,50.3,16.8,67.1c0,2.6,0,5.2,0,7.7V870c0,28.4-14.2,41.3-42.6,41.3H719c-24.5,0-43.9-19.4-43.9-46.5V338.2z"
			/>
		<path class="st0" d="M1218.6,830V355c0-43.9,27.1-71,60.7-71h457c34.9,0,58.1,23.2,58.1,52.9v83.9c0,41.3-3.9,47.8-46.5,47.8
			h-109.7c-31,0-47.8-1.3-47.8-29.7v-27.1c0-23.2-7.7-24.5-25.8-24.5c-1.3,0-2.6,0-5.2,0h-188.5c-24.5,0-29.7,2.6-29.7,27.1v362.7
			c0,21.9,6.5,27.1,29.7,27.1h284c21.9,0,23.2,0,23.2-21.9v-36.1c0-23.2,5.2-28.4,29.7-28.4h51.6c24.5,0,34.9,7.7,34.9,31v105.9
			c0,40-15.5,56.8-55.5,56.8h-453.1C1254.7,911.4,1218.6,873.9,1218.6,830z"/>
		<path class="st0" d="M1888.5,849.4V539.6c0-28.4,24.5-54.2,63.3-54.2h358.9c2.6,0,3.9,0,6.5,0c15.5,0,19.4-1.3,19.4-19.4v-59.4
			c0-15.5-7.7-19.4-25.8-19.4H1926c-24.5,0-37.4-1.3-37.4-27.1v-42.6c0-27.1,5.2-33.6,37.4-33.6h462.1c37.4,0,55.5,19.4,55.5,56.8
			v433.7c0,20.7,9,31,27.1,31h21.9c16.8,0,27.1,9,27.1,29.7v42.6c0,20.7-12.9,33.6-32.3,33.6h-542.2
			C1911.8,911.4,1888.5,886.8,1888.5,849.4z M2310.6,800.3c23.2,0,25.8-3.9,25.8-25.8V620.9c0-24.5-2.6-31-25.8-31h-214.3
			c-21.9,0-23.2,5.2-23.2,24.5c0,2.6,0,3.9,0,6.5v153.6c0,18.1,6.5,25.8,23.2,25.8H2310.6z"/>
		<path class="st0" d="M2563.6,839.1V338.2c0-28.4,24.5-54.2,54.2-54.2h302.1c3.9,0,7.7,0,10.3,0c31,0,60.7,1.3,95.5,20.7v-275
			c0-23.2,11.6-29.7,38.7-29.7h38.7c28.4,0,42.6,10.3,42.6,29.7v810.7c0,41.3-31,71-69.7,71h-446.6
			C2589.5,911.4,2563.6,885.5,2563.6,839.1z M2987,806.8c37.4,0,38.7-6.5,38.7-38.7V426c0-34.9-2.6-37.4-24.5-37.4
			c-6.5,0-12.9,0-20.7,0H2796c-2.6,0-5.2,0-6.5,0c-33.6,0-33.6,1.3-33.6,37.4v342.1c0,36.1,1.3,38.7,37.4,38.7H2987z"/>
		<path class="st0" d="M3254.2,859.7v-528c0-27.1,21.9-47.8,60.7-47.8h466c33.6,0,58.1,23.2,58.1,47.8v234.9c0,23.2-16.8,40-46.5,40
			h-330.5c-23.2,0-25.8,7.7-25.8,29.7v142c0,25.8,1.3,28.4,16.8,28.4c3.9,0,7.7,0,12.9,0h233.6c2.6,0,3.9,0,5.2,0
			c14.2,0,18.1-1.3,18.1-19.4v-52.9c0-15.5,6.5-16.8,21.9-16.8h69.7c19.4,0,24.5,5.2,24.5,27.1v114.9c0,38.7-11.6,51.6-50.3,51.6
			h-480.2C3281.3,911.4,3254.2,884.2,3254.2,859.7z M3436.2,400.2v90.4c0,15.5,2.6,20.7,18.1,20.7h246.6c16.8,0,21.9-5.2,21.9-19.4
			v-83.9c0-18.1-5.2-25.8-21.9-25.8h-242.7C3438.8,382.1,3436.2,387.3,3436.2,400.2z"/>
	</g>
	<path class="st0" d="M3803.8,1190.8H35.2c-19.4,0-35.2-15.8-35.2-35.2v-37.2c0-19.4,15.8-35.2,35.2-35.2h3768.6
		c19.4,0,35.2,15.8,35.2,35.2v37.2C3839,1175,3823.2,1190.8,3803.8,1190.8z"/>
	<path class="st0" d="M2882.2,107.6H35.2C15.8,107.6,0,91.8,0,72.4V35.2C0,15.8,15.8,0,35.2,0h2847c19.4,0,35.2,15.8,35.2,35.2v37.2
		C2917.4,91.8,2901.6,107.6,2882.2,107.6z"/>
	<path class="st0" d="M3803.8,107.6h-514.4c-19.4,0-35.2-15.8-35.2-35.2V35.2c0-19.4,15.8-35.2,35.2-35.2h514.4
		c19.4,0,35.2,15.8,35.2,35.2v37.2C3839,91.8,3823.2,107.6,3803.8,107.6z"/>
</g>
<g class="st9">
	<g class="st10">
		<text transform="matrix(1 0 0 1 345.5779 215.1901)" class="st0 st11 st12 st13">arcade</text>
	</g>
	<text transform="matrix(1 0 0 1 392.1956 1427.1233)" class="st10 st14 st15">ARCADE</text>
</g>
</svg>
