<?xml version="1.0" encoding="utf-8"?>
<!-- Generator: Adobe Illustrator 25.0.0, SVG Export Plug-In . SVG Version: 6.00 Build 0)  -->
<svg version="1.1" id="Layer_1" xmlns="http://www.w3.org/2000/svg" xmlns:xlink="http://www.w3.org/1999/xlink" x="0px" y="0px"
	 viewBox="0 0 3840 911.2" style="enable-background:new 0 0 3840 911.2;" xml:space="preserve">
<style type="text/css">
	.st0{fill:#E4202F;}
	.st1{fill:#FFFFFF;}
</style>
<g>
	<g>
		<g>
			<g>
				<path class="st1" d="M404.5,2c23-0.1,45.9,0,68.9-0.1c0.1,54,0,108,0,162.1c0.2,45.1-1,90.2-2.9,135.2
					c-3.1,65-7.1,130.2-17.9,194.5c-7.4,44.3-22.7,87.1-41.8,127.7c-31,65.4-79.8,120.8-134.6,167.3c-49,43.2-107.6,74.6-169.1,95.8
					c-34.8,12-70.7,21.2-107.2,26.4c0-45.3,0-90.6,0-135.9c43.9-6.6,86.2-22.2,125.4-42.8c46.5-24.6,88.4-57.7,123.7-96.7
					c36.4-40.3,65.4-86.9,87.5-136.4c25.9-56.9,39.8-118.4,49.3-180c11.8-78.3,16.8-157.5,18.6-236.6C404.7,55.6,404.5,28.8,404.5,2
					z"/>
				<path class="st1" d="M501.2,2.1c42.3-0.3,84.6,0,126.9-0.1c0,303,0,606,0,909c-42.2,0.1-84.4-0.2-126.6,0.2
					c-0.5-96.6-0.1-193.2-0.2-289.8C501.2,414.8,501.3,208.5,501.2,2.1z"/>
				<path class="st1" d="M656.3,1.9c22.9,0,45.7-0.1,68.5,0c-0.7,92.4,2.4,184.9,13.4,276.7c9,71.3,21.7,143.1,50.1,209.5
					c26.9,64.3,65.7,124,116.3,172.1c48.3,46,106.8,81.4,170.4,101.8c17.7,5.7,35.9,10.1,54.3,12.8c0,45.3,0,90.6,0,135.8
					c-36.2-4.9-71.8-14.2-106.3-26c-41.2-14.3-81-32.9-117.6-56.7c-26.7-17.2-51-37.7-74.3-59.2c-38.4-35.5-72.9-75.8-98.7-121.4
					c-20.2-35.5-35-73.9-46.5-113.1c-10.6-39.4-15.1-80-19.2-120.5c-7.9-87.4-10.9-175.3-10.3-263.1
					C656.3,101.3,656.3,51.6,656.3,1.9z"/>
			</g>
			<path class="st1" d="M1546.3,39.5c35.4-45.2,108.5-53,151.9-15c17.7,14.9,30.2,35.6,36.5,57.7c80.3,276.3,161,552.5,241.2,828.9
				c-47.4,0-94.8-0.1-142.2,0c-22.4-76.2-44.2-152.5-66.3-228.8c-91.7-0.2-183.3,0-274.9-0.1c-22.4,76.2-44.6,152.5-66.6,228.9
				c-47.1-0.2-94.3,0-141.4-0.1c76.3-263.6,152.7-527.2,229.3-790.7C1523,92.8,1526.4,62,1546.3,39.5 M1630,208.8
				c-33.6,114.5-66.5,229.2-99.9,343.7c66.6,0.3,133.2,0.1,199.8,0.1C1696.5,438,1663.3,323.4,1630,208.8z"/>
			<path class="st1" d="M2544.7,45.4c24.7-35.8,72.4-53.2,114.5-42.1c38.5,8.9,67.9,42,78.1,79.4c80.2,276.1,160.8,552.1,241,828.3
				c-47.5,0.4-94.9,0-142.4,0.2c-22.1-76.3-43.9-152.6-66.1-228.8c-91.5,0-183-0.2-274.5,0.1c-21.9,76.3-44.4,152.4-66.3,228.7
				c-47.1,0-94.2,0-141.3,0c76.3-265.1,153.4-529.9,230.3-794.8C2526.1,92.5,2529.2,66.1,2544.7,45.4 M2533.2,552.7
				c66.3,0.1,132.6,0.1,199,0.1c-33-114.9-66.6-229.6-99.4-344.4C2599.6,323.1,2566.2,437.8,2533.2,552.7z"/>
			<path class="st1" d="M1869.8,1.9c171.5,0,342.9,0,514.3,0c0,46.3,0,92.5,0,138.7c-63.2,0-126.2-0.1-189.3,0
				c0,256.8,0,513.6,0,770.4c-45.2,0-90.4,0-135.6,0c0-256.8,0-513.6,0-770.4c-63.1-0.1-126.2,0-189.4,0
				C1869.8,94.4,1869.8,48.2,1869.8,1.9z"/>
			<path class="st1" d="M3129,7.6c13-4.5,26.9-6,40.7-5.7c54.1,0.2,108.1,0,162.2,0.1c91,1.7,177.9,58.2,217.3,140.1
				c27.3,53.2,30.1,115.1,23.2,173.5c-4.8,61.1-30.4,122.2-77.3,162.7c-24.8,22.1-55.7,35.5-82.3,55.2
				c-14.6,11.1-15.3,32.7-7.8,48.1c71.7,110.8,146.3,219.8,219.6,329.6c-53.6,0.1-107.1-0.1-160.7,0.1
				c-70.1-105.3-139.5-211.2-209.4-316.7c-20.5-30-26.1-69.8-13.8-104c9.6-26.3,32.6-45.5,58.2-55.4c48.8-18.6,97-47.9,124-94
				c20.6-34.6,19.5-77.4,10.3-115.3c-10.9-49.2-58.8-87.9-109.5-86.2c-35,0.2-70-0.2-105,0.2c-15.8-0.4-30.7,13.4-30.5,29.4
				c-0.2,247.3,0.1,494.7-0.1,742c-45.6-0.1-91.1,0-136.6-0.1c-0.1-266.3,0.1-532.5-0.1-798.8C3051.5,65.6,3084.7,21.7,3129,7.6z"/>
			<path class="st1" d="M3696.2,1.9c47.9,0,95.8,0,143.8,0c0,303.1,0.1,606.1-0.1,909.2c-47.9-0.1-95.8,0-143.7,0
				C3696.2,608,3696.2,305,3696.2,1.9z"/>
		</g>
	</g>
</g>
</svg>
