<?xml version="1.0" encoding="utf-8"?>
<!-- Generator: Adobe Illustrator 25.4.1, SVG Export Plug-In . SVG Version: 6.00 Build 0)  -->
<svg version="1.1" id="Layer_1" xmlns="http://www.w3.org/2000/svg" xmlns:xlink="http://www.w3.org/1999/xlink" x="0px" y="0px"
	 viewBox="0 0 3839 458.2" style="enable-background:new 0 0 3839 458.2;" xml:space="preserve">
<style type="text/css">
	.st0{fill:#FFFFFF;}
	.st1{fill:#7B9A99;}
	.st2{fill:url(#SVGID_1_);}
	.st3{clip-path:url(#SVGID_00000152243930510154448040000015652176844295327917_);}
	.st4{fill:#606161;}
	.st5{clip-path:url(#SVGID_00000014624749245749470630000008481077612291336890_);}
	.st6{clip-path:url(#SVGID_00000003827361795533930040000012989018778602108595_);}
	.st7{fill:url(#SVGID_00000010291343012792379500000001763293678078802615_);}
	.st8{fill:url(#SVGID_00000119079895640426659000000010633650268669346722_);}
	.st9{fill:url(#SVGID_00000161603661764772388150000014365824631789383868_);}
	.st10{fill:url(#SVGID_00000141424054156615149970000008260885287531093910_);}
	.st11{fill:#F58746;}
	.st12{fill:url(#SVGID_00000110433079713565947230000017100228033658943376_);}
	.st13{fill:url(#SVGID_00000017498970167733900460000001939416376932855963_);}
	.st14{fill:url(#SVGID_00000084510653526060668000000010381839887054758570_);}
	.st15{fill:url(#SVGID_00000181781112335722894480000017956714339594998952_);}
	.st16{fill:url(#SVGID_00000080887798837994500590000004328791663458717830_);}
	.st17{fill:url(#SVGID_00000157270632869785068890000014171623817464508050_);}
	.st18{fill:url(#SVGID_00000005971761747929205800000009031202862318536617_);}
	.st19{fill:url(#SVGID_00000116236775417936101170000015764634303248475558_);}
	.st20{fill:url(#SVGID_00000152968550249534854710000000771395543839387315_);}
	.st21{fill:url(#SVGID_00000060724472443748106570000012350471110652601254_);}
	.st22{fill:url(#SVGID_00000061443267492905572300000017799844901098394507_);}
	.st23{fill:url(#SVGID_00000150077161917049439410000007392128441524734113_);}
	.st24{opacity:0.25;fill:url(#SVGID_00000161595030104656487500000003261014062349378183_);}
	.st25{fill:url(#SVGID_00000151524420037321169040000009419175214827232640_);}
	.st26{fill:url(#SVGID_00000165230829816892259910000016961884021283166869_);}
	.st27{fill:url(#SVGID_00000116949166185085851060000003522337514902125753_);}
	.st28{fill:url(#SVGID_00000133518404282947111280000001946294884811173005_);}
	.st29{fill:url(#SVGID_00000024701473823784654700000004262068131228769926_);}
	.st30{fill:url(#SVGID_00000070090856491880947510000009320247304951798171_);}
	.st31{fill:url(#SVGID_00000056393061246234293230000013262252759386198957_);}
	.st32{fill:url(#SVGID_00000022561697399629972970000007107253216763883964_);}
	.st33{fill:url(#SVGID_00000038390328609950119790000017177795488777349018_);}
	.st34{fill:url(#SVGID_00000112607664895888867330000001290527250319857546_);}
	.st35{fill:url(#SVGID_00000072252462251395513860000001303932060986038185_);}
	.st36{fill:url(#SVGID_00000119811093053284950860000016867824130331153087_);}
	.st37{fill:url(#SVGID_00000019675525228560962990000009148199508163889806_);}
	.st38{fill:url(#SVGID_00000027569400876713410620000009117058944521589423_);}
	.st39{fill:url(#SVGID_00000178171889520818046050000006062851272300121758_);}
	.st40{opacity:0.25;fill:url(#SVGID_00000086672469540457059320000009946317371957027493_);}
	.st41{fill:url(#SVGID_00000052102965660728126350000010531523201591311272_);}
	.st42{fill:url(#SVGID_00000163041910504759846040000003435790992296919172_);}
	.st43{fill:url(#SVGID_00000084510331043107837600000010141628893831014053_);}
	.st44{fill:url(#SVGID_00000127725522342668883000000008439887414744825761_);}
	.st45{fill:url(#SVGID_00000109024599814596455850000014958715163082646153_);}
	.st46{fill:url(#SVGID_00000088108288727764723870000003567369770849104000_);}
	.st47{fill:url(#SVGID_00000036222561008784160200000009627688783500731063_);}
	.st48{fill:url(#SVGID_00000003082701969575610860000016231663046471646359_);}
	.st49{clip-path:url(#SVGID_00000065786420228089353150000018337388415761843126_);}
	.st50{clip-path:url(#SVGID_00000031906934461851449070000007144276519873268671_);}
	.st51{clip-path:url(#SVGID_00000103228077838644163250000014687229349521122965_);}
	.st52{fill:url(#SVGID_00000105396472731284727410000017879033278521831062_);}
	.st53{fill:url(#SVGID_00000169536811850793619580000004687753588957146242_);}
	.st54{fill:url(#SVGID_00000054950495908647235410000012601536006685795488_);}
	.st55{fill:url(#SVGID_00000160185280078391755850000001513112011589759654_);}
	.st56{fill:url(#SVGID_00000018230521586441409970000007506724042720233344_);}
	.st57{fill:url(#SVGID_00000031176481785983748450000001817655972742943381_);}
	.st58{fill:url(#SVGID_00000150082064845207823900000013783595064643923873_);}
	.st59{clip-path:url(#SVGID_00000002372056569551917860000008585310835782086041_);}
	.st60{clip-path:url(#SVGID_00000111875424264093993710000000421204392151848874_);}
	.st61{clip-path:url(#SVGID_00000119118950874600217840000014478164104437778622_);}
	.st62{fill:url(#SVGID_00000173877232607563609290000008303716360220386213_);}
	.st63{clip-path:url(#SVGID_00000101800406734273130780000001061648543229927845_);}
	.st64{clip-path:url(#SVGID_00000114045277788643047810000002779958037384849851_);}
	.st65{clip-path:url(#SVGID_00000025413581370667971030000007181911926373367229_);}
	.st66{fill:url(#SVGID_00000003100992016369950640000004260287973858422180_);}
	.st67{fill:url(#SVGID_00000005241815338122016630000011370292361037603995_);}
	.st68{fill:url(#SVGID_00000154389550619319159050000009446632979238574525_);}
	.st69{fill:url(#SVGID_00000017502732467253917940000006875816544685243279_);}
	.st70{fill:url(#SVGID_00000052092664550632897120000000413425539130381721_);}
	.st71{fill:url(#SVGID_00000013170375413922149610000017516087843222739118_);}
	.st72{fill:url(#SVGID_00000165228255903378481130000007104048451245667970_);}
	.st73{fill:url(#SVGID_00000107550952923660965650000001273968722267166122_);}
	.st74{fill:url(#SVGID_00000037650556585590459930000014954041148360326317_);}
	.st75{fill:url(#SVGID_00000121239391127141179380000011953891716376796063_);}
	.st76{fill:url(#SVGID_00000174578540801681686830000013263244200417258923_);}
	.st77{fill:url(#SVGID_00000088839988947716943410000012269509554681256363_);}
	.st78{opacity:0.25;fill:url(#SVGID_00000114779820811864471790000018037295729574882184_);}
	.st79{fill:url(#SVGID_00000039119107941125014400000003248343582208197519_);}
	.st80{fill:url(#SVGID_00000062883243460459745220000000729888472904751262_);}
	.st81{fill:url(#SVGID_00000022535429419715910460000014309715439284432034_);}
	.st82{fill:url(#SVGID_00000049185278690711926750000008793140458605480834_);}
	.st83{fill:url(#SVGID_00000021109207895841486300000012453785907722155449_);}
	.st84{fill:url(#SVGID_00000075867706751271685970000003982207923378682497_);}
	.st85{fill:url(#SVGID_00000119087204496740570540000014600783377216136338_);}
	.st86{fill:url(#SVGID_00000096778039675024673710000013898412378089878445_);}
	.st87{fill:url(#SVGID_00000131361252044480787370000013089275838165938599_);}
	.st88{fill:url(#SVGID_00000063630250799911189410000013170592847937789356_);}
	.st89{fill:url(#SVGID_00000041267260755249611280000009999916239918612115_);}
	.st90{fill:url(#SVGID_00000121271939107133849790000017340413502990672294_);}
	.st91{fill:url(#SVGID_00000147927816637762190260000000148673007310848649_);}
	.st92{fill:url(#SVGID_00000078726721199023992340000007786310309638239642_);}
	.st93{fill:url(#SVGID_00000019646416676293076650000001522321035226452658_);}
	.st94{opacity:0.25;fill:url(#SVGID_00000140697543927982675510000004004270127455245729_);}
	.st95{fill:url(#SVGID_00000076605946149156463770000016370536134479383432_);}
	.st96{fill:url(#SVGID_00000028306259632412436160000009275302077617286048_);}
	.st97{fill:url(#SVGID_00000060030272774346756630000009977483938834903729_);}
	.st98{fill:url(#SVGID_00000101804848648500193730000005608812753062960807_);}
	.st99{fill:url(#SVGID_00000005978899396008701620000000667554089996162703_);}
	.st100{fill:url(#SVGID_00000009549908322146036840000000643110115193263806_);}
	.st101{fill:url(#SVGID_00000075849296431103673160000017245375941187324547_);}
	.st102{fill:url(#SVGID_00000058550272412782244390000007170383377000478091_);}
	.st103{fill:url(#SVGID_00000057842363479179261080000009754389625825593234_);}
	.st104{fill:url(#SVGID_00000096777478195892809840000003596036141422620321_);}
	.st105{fill:url(#SVGID_00000042695052853789600320000004854210841420006054_);}
	.st106{fill:url(#SVGID_00000005229975606449840790000004096304431002168961_);}
	.st107{fill:url(#SVGID_00000077298250710863232700000009740499031331576249_);}
	.st108{fill:url(#SVGID_00000053538670096863414430000017614293761482925243_);}
	.st109{fill:url(#SVGID_00000145741840051209680720000002314233054422805921_);}
	.st110{fill:url(#SVGID_00000057832306973667829760000002225481578359922111_);}
	.st111{fill:url(#SVGID_00000115501441442813716810000012733519022115527043_);}
	.st112{opacity:0.25;fill:url(#SVGID_00000070809659183800847120000013896620896207910786_);}
	.st113{fill:url(#SVGID_00000056416254295979210400000006215885027614975159_);}
	.st114{fill:url(#SVGID_00000164495972911436781910000001611233850124010421_);}
	.st115{fill:url(#SVGID_00000122694458729499697610000010759987555253621684_);}
	.st116{fill:url(#SVGID_00000064331431574843623070000006629433782290066829_);}
	.st117{fill:url(#SVGID_00000099660718099167185330000010618983801635254173_);}
	.st118{fill:url(#SVGID_00000160874844774029585040000015625981259577334941_);}
	.st119{fill:url(#SVGID_00000015332954671927040260000001849207435601748661_);}
	.st120{fill:url(#SVGID_00000045595855772200159990000003465303087137582013_);}
	.st121{fill:url(#SVGID_00000054264064204320393130000006190095012178856354_);}
	.st122{fill:url(#SVGID_00000134966350185477268760000015257591409220240545_);}
	.st123{fill:url(#SVGID_00000038410622315102678490000016006821950175994007_);}
	.st124{fill:url(#SVGID_00000010305575839660469450000012946443568281590668_);}
	.st125{fill:url(#SVGID_00000065794752969745222530000012724630449378055352_);}
	.st126{fill:url(#SVGID_00000078767175575336826130000004000976695663540353_);}
	.st127{fill:url(#SVGID_00000089555804961137188450000006472132530659942061_);}
	.st128{opacity:0.25;fill:url(#SVGID_00000098899697291386555900000000928518835861725602_);}
	.st129{fill:url(#SVGID_00000018209887926194055520000010514653330266206616_);}
	.st130{fill:url(#SVGID_00000176003367170455026480000010350069316082612155_);}
	.st131{fill:url(#SVGID_00000122702678386870883760000001048620412162253246_);}
	.st132{fill:url(#SVGID_00000052091763552669955650000018438259006109476227_);}
	.st133{fill:url(#SVGID_00000087397441793270526850000014915705016950224816_);}
	.st134{fill:url(#SVGID_00000016796883183809362350000014119922215316543679_);}
	.st135{fill:url(#SVGID_00000181083366180666012820000018350978187535602589_);}
	.st136{fill:url(#SVGID_00000060005164994572264650000006717291362296249781_);}
	.st137{fill:url(#SVGID_00000051341401674998095260000000569674269999917446_);}
</style>
<g>
	<g>
		<path class="st0" d="M686.9,117h169.3v44.5H735.8v47.3h106.1v44.5H735.8v86.1h-48.9V117z"/>
		<path class="st0" d="M889.5,117h48.9v222.3h-48.9V117z"/>
		<path class="st0" d="M986,117h45.1l104.2,136.9V117h48.3v222.3H1142L1034.3,198v141.3H986V117z"/>
		<path class="st0" d="M1305.2,115.4h45.1l95.3,223.9h-51.1l-20.3-49.9h-94l-20.3,49.9h-49.9L1305.2,115.4z M1356.6,246.3
			l-29.5-72.1l-29.5,72.1H1356.6z"/>
		<path class="st0" d="M1471.9,117h48.9v177.8h110.8v44.5h-159.7V117z"/>
		<path class="st0" d="M1747.9,117h103.2c25.4,0,45.4,7,58.1,19.7c10.2,10.2,15.2,22.5,15.2,37.8v0.6c0,25.1-13.3,39.1-29.2,48
			c25.7,9.8,41.6,24.8,41.6,54.6v0.6c0,40.6-33,61-83.2,61h-105.8V117z M1840.6,206.9c21.6,0,35.2-7,35.2-23.5v-0.6
			c0-14.6-11.4-22.9-32.1-22.9h-48.3v47H1840.6z M1853.6,296.4c21.6,0,34.6-7.6,34.6-24.1v-0.6c0-14.9-11.1-24.1-36.2-24.1h-56.5
			v48.9H1853.6z"/>
		<path class="st0" d="M1965.7,244V117h48.9v125.8c0,36.2,18.1,54.9,48,54.9c29.9,0,48-18.1,48-53.4V117h48.9v125.4
			c0,67.3-37.8,100.4-97.5,100.4C2002.2,342.8,1965.7,309.5,1965.7,244z"/>
		<path class="st0" d="M2201.3,117H2303c28.3,0,50.2,7.9,64.8,22.5c12.4,12.4,19.1,29.9,19.1,50.8v0.6c0,35.9-19.4,58.4-47.6,68.9
			l54.3,79.4h-57.2l-47.6-71.1h-38.4v71.1h-48.9V117z M2299.8,225c23.8,0,37.5-12.7,37.5-31.4v-0.6c0-21-14.6-31.8-38.4-31.8h-48.6
			V225H2299.8z"/>
		<path class="st0" d="M2423,117h45.1l104.2,136.9V117h48.3v222.3h-41.6L2471.3,198v141.3H2423V117z"/>
		<path class="st0" d="M2829.5,115.4h45.1l95.3,223.9h-51.1l-20.3-49.9h-94l-20.3,49.9h-49.9L2829.5,115.4z M2880.9,246.3
			l-29.5-72.1l-29.5,72.1H2880.9z"/>
		<path class="st0" d="M2996.2,117h48.9v177.8h110.8v44.5h-159.7V117z"/>
		<path class="st0" d="M3184.8,117h90.8c53,0,85.1,31.4,85.1,76.9v0.6c0,51.4-40,78.1-89.9,78.1h-37.2v66.7h-48.9V117z
			 M3272.5,229.1c24.5,0,38.7-14.6,38.7-33.7v-0.6c0-21.9-15.2-33.7-39.7-33.7h-37.8v68H3272.5z"/>
		<path class="st0" d="M3389,117h48.9v88h90.2v-88h48.9v222.3h-48.9v-89.2h-90.2v89.2H3389V117z"/>
		<path class="st0" d="M3698.6,115.4h45.1l95.3,223.9h-51.1l-20.3-49.9h-94l-20.3,49.9h-49.9L3698.6,115.4z M3750.1,246.3
			l-29.5-72.1l-29.5,72.1H3750.1z"/>
	</g>
	<g>
		<g>
			<g>
				<path class="st0" d="M433.7,0H0v58.4l352.8,124.1H554v-62.3C554,53.8,500.1,0,433.7,0z M336.7,193l-152-53.4v218.2L117.1,382
					v76.2h268.6V330h-49V193z M352.8,313.8H554V198.7H352.8V313.8z"/>
			</g>
		</g>
	</g>
</g>
</svg>
