<?xml version="1.0" encoding="utf-8"?>
<!-- Generator: Adobe Illustrator 25.0.0, SVG Export Plug-In . SVG Version: 6.00 Build 0)  -->
<svg version="1.1" id="Layer_1" xmlns="http://www.w3.org/2000/svg" xmlns:xlink="http://www.w3.org/1999/xlink" x="0px" y="0px"
	 viewBox="0 0 3839 737.4" style="enable-background:new 0 0 3839 737.4;" xml:space="preserve">
<style type="text/css">
	.st0{fill:#FFFFFF;}
</style>
<g>
	<g>
		<polygon class="st0" points="3621.5,670.2 3655.1,670.2 3655.1,737.4 3661.6,737.4 3661.6,670 3688.5,670 3688.5,663.4 
			3621.5,663.4 		"/>
		<polygon class="st0" points="3736.2,726.6 3731.5,726.5 3703.6,663.4 3697.4,663.4 3697.4,737.4 3703.6,737.4 3703.6,677 
			3731,737.4 3736.8,737.4 3763.6,676 3763.6,737.4 3770.8,737.4 3770.8,663.4 3763.9,663.4 		"/>
	</g>
	<g>
		<polygon class="st0" points="1032.4,607.7 1142.1,607.7 1191.8,471.1 1082.1,471.1 		"/>
		<polygon class="st0" points="2793.6,527.1 2921.9,526.5 2948.6,452.5 2820.7,452.5 		"/>
		<path class="st0" d="M3346,0l-52.3,91.5L3327.1,0h-396.4c-76.6,0-147,38.8-188.8,100.3c0-20.4-6-40.5-18-57.6
			C2705.2,16,2674.6,0,2642,0H1890c-44.6,0-86.1,19.5-114.8,51.5c-1.7-3-3.4-6-5.4-8.8C1751.1,16,1720.4,0,1687.8,0h-565.1
			L1009,81.3L958.5,0H557.1L514,118.3h-37.1L520,0H268.2L0,737.4h216.1l15-41.2c19.4,25.3,49.9,41.2,84,41.2h76.6
			c37.7,0,72.2-20.3,91-51.9c1.3,2.1,2.5,4.3,3.9,6.3c20,28.5,52.7,45.6,87.6,45.6h273.3l19.6-53.9c1.6,2.8,3.2,5.6,5.1,8.3
			c20,28.6,52.7,45.6,87.6,45.6h197.8c54.5,0,104.6-27.2,135-70.5c3.2,8.7,7.4,17.1,12.8,24.9c20,28.5,52.7,45.6,87.6,45.6h197.8
			c50.1,0,96.6-23.1,127.4-60.5c2.5,5.1,5.2,10.2,8.6,14.9c20,28.5,52.7,45.6,87.6,45.6h273.3l19.6-53.9c1.6,2.8,3.2,5.6,5.1,8.3
			c20,28.6,52.7,45.6,87.6,45.6h197.8c69,0,131.2-43.6,154.8-108.4l10.4-28.6c0.3,27.6,8.8,54.9,25.1,78.1
			c25.9,36.9,68.2,58.9,113.3,58.9H2899c95.5,0,181.6-60.3,214.3-150.1l25.8-71c20.6,22.7,49.6,35.7,81.2,35.7l166.1,0l-67,185.3
			h251.1L3839,0L3346,0z M1778.9,113.6c8.3-22.9,23.3-42.4,43.3-56.4s43.4-21.4,67.8-21.4h315.7h13.8l-4.7,13l-25,68.6l-2.3,6.4
			h-6.8h-229.9l-11.1,30.5h222.9h13.8l-4.7,13l-25,68.6l-2.3,6.4h-6.8h-229.9l-11.1,30.5h222.9h13.8l-4.7,13l-25,68.6l-2.3,6.4h-6.8
			H1802c-13.3,0-25.9-3.1-37.4-9.3c-10.8-5.8-20.3-14.2-27.4-24.4c-7.1-10.1-11.8-21.9-13.5-34c-1.9-12.9-0.5-25.8,4-38.3
			L1778.9,113.6z M179.9,347.4L290.9,42.1l2.3-6.4h6.8h155.1h13.8l-4.7,13l-38.3,105.4h113.3l40.8-112l2.3-6.4h6.8H744h12.3h1.5
			h15.9h159.5h5.4l2.8,4.6l57.3,92.2l133-95l2.5-1.8h3.1h167.8h7.6h6.8h15.8h352.5c10.8,0,21.1,2.6,30.4,7.6
			c8.8,4.7,16.5,11.6,22.3,19.8s9.6,17.8,11,27.7c1.5,10.5,0.4,21-3.3,31.2l-27,74.3c-7.8,21.3-21.7,39.5-40.3,52.5
			c-18.6,13-40.4,19.9-63.1,19.9h-214.3l-31,85.2l-2.3,6.4h-6.8h-155.1h-13.8l4.7-13l105.5-289.8l-250.5,178.9L1011.6,354l-2.3,6.4
			h-6.8H847.4h-13.8l4.7-13l41.2-113.1l-114-183.7l-8.2-13.3l-4.2,11.5L642,354l-2.3,6.4h-6.8H477.8H464l4.7-13L507.1,242H393.8
			l-40.8,112l-2.3,6.4H344H188.9h-13.8L179.9,347.4z M1704.2,341.3h-204.4c-35.2,0-68.5,11.4-95.9,31.1l24.7-67.9h189.3
			c24.8,0,48.6-6.5,69.6-17.9C1688.4,305.8,1694,324.6,1704.2,341.3z M1163.4,341.3h-96.8c-4.2,0-8.4,0.2-12.6,0.5l30.1-82.7
			l147.6-105.4L1163.4,341.3z M802.5,341.3H684.6l81-222.7L840,238.3L802.5,341.3z M457.6,655.5c-10,27.6-36.5,46.1-65.9,46.1h-76.6
			c-17.4,0-34.2-6.5-47.1-18.2s-21-27.7-22.7-45.1l-6.6-67.8l-45.4,124.7l-2.3,6.4h-6.8H64.9H51.1l4.7-13l96.6-265.5
			c10-27.6,36.5-46.1,65.9-46.1h70.1c17.4,0,34.2,6.5,47.1,18.2s21,27.7,22.7,45.1l8,81.7l50.5-138.6l2.3-6.4h6.8h119.4h13.8
			l-4.7,13L457.6,655.5z M866.7,580l-2.3,6.4h-6.8H654.5l-7.7,21.3h196.1h13.8l-4.7,13l-27.2,74.7l-2.3,6.4h-6.8H574.2
			c-12,0-23.3-2.8-33.7-8.4c-9.7-5.2-18.2-12.8-24.6-21.9c-6.4-9.1-10.6-19.7-12.2-30.6c-1.7-11.7-0.5-23.3,3.6-34.5L559.8,462
			c9.1-25,25.4-46.3,47.2-61.5c21.8-15.3,47.4-23.3,74-23.3h245.7h13.8l-4.7,13l-27.2,74.7l-2.3,6.4h-6.8H696.5l-7.7,21.3h196.1
			h13.8l-4.7,13L866.7,580z M1278.8,616.8c-9.1,25-25.4,46.3-47.2,61.5c-21.8,15.3-47.4,23.3-74,23.3H959.8c-12,0-23.3-2.8-33.7-8.4
			c-9.7-5.2-18.2-12.8-24.6-21.9c-6.4-9.1-10.6-19.7-12.2-30.6c-1.7-11.7-0.5-23.3,3.6-34.5L945.4,462c9.1-25,25.4-46.3,47.2-61.5
			c21.8-15.3,47.4-23.3,74-23.3h197.8c12,0,23.3,2.8,33.7,8.4c9.7,5.2,18.2,12.8,24.6,21.9s10.6,19.7,12.2,30.6
			c1.7,11.7,0.5,23.3-3.6,34.5L1278.8,616.8z M1711.9,616.8c-9.1,25-25.4,46.3-47.2,61.5s-47.4,23.3-74,23.3h-197.8
			c-12,0-23.3-2.8-33.7-8.4c-9.7-5.2-18.2-12.8-24.6-21.9c-6.4-9.1-10.6-19.7-12.2-30.6c-1.7-11.7-0.5-23.3,3.6-34.5l52.5-144.2
			c9.1-25,25.4-46.3,47.2-61.5c21.8-15.3,47.4-23.3,74-23.3h285.6h13.8l-4.7,13l-27.2,74.7l-2.3,6.4h-6.8h-243l-49.7,136.5h109.8
			l27.2-74.8l2.3-6.4h6.8H1731h13.8l-4.7,13L1711.9,616.8z M2106.7,580l-2.3,6.4h-6.8h-203.1l-7.7,21.3h196.1h13.8l-4.7,13
			l-27.2,74.7l-2.3,6.4h-6.8h-241.5c-12,0-23.3-2.8-33.7-8.4c-9.7-5.2-18.2-12.8-24.6-21.9c-6.4-9.1-10.6-19.7-12.2-30.6
			c-1.7-11.7-0.5-23.3,3.6-34.5l52.5-144.2c9.1-25,25.4-46.3,47.2-61.5c21.8-15.3,47.4-23.3,74-23.3h245.7h13.8l-4.7,13l-27.2,74.7
			l-2.3,6.4h-6.8h-203.1l-7.7,21.3h196.1h13.8l-4.7,13L2106.7,580z M2571.3,472.6l-52.5,144.2c-9.1,25-25.4,46.3-47.2,61.5
			c-21.8,15.3-47.4,23.3-74,23.3h-197.8c-12,0-23.3-2.8-33.7-8.4c-9.7-5.2-18.2-12.8-24.6-21.9s-10.6-19.7-12.2-30.6
			c-1.7-11.7-0.5-23.3,3.6-34.5l52.5-144.2c9.1-25,25.4-46.3,47.2-61.5c21.8-15.3,47.4-23.3,74-23.3h197.8c12,0,23.3,2.8,33.7,8.4
			c9.7,5.2,18.2,12.8,24.6,21.9c6.4,9.1,10.6,19.7,12.2,30.6C2576.6,449.7,2575.4,461.3,2571.3,472.6z M2458.7,360.3h-4.9l-2.9-4
			l-63.2-87.6h-30l-31,85.2l-2.3,6.4h-6.8h-155.1h-13.8l4.7-13l111.1-305.2l2.3-6.4h6.8H2642c10.8,0,21.1,2.6,30.4,7.6
			c8.8,4.7,16.5,11.6,22.3,19.8s9.6,17.8,11,27.7c1.5,10.5,0.4,21-3.3,31.2l-27,74.3c-7.8,21.3-21.7,39.5-40.3,52.5
			c-18.6,13-40.4,19.9-63.1,19.9h-5.5l55,76.3l11,15.3h-18.9H2458.7z M3137.8,415.4l-58.1,159.7c-13.6,37.3-37.9,69-70.4,91.8
			c-32.5,22.8-70.6,34.8-110.3,34.8h-197.9c-17.2,0-33.6-4.1-48.5-12.1c-14-7.5-26.3-18.4-35.5-31.6c-9.2-13.1-15.3-28.4-17.6-44.1
			c-2.5-16.8-0.7-33.5,5.1-49.7l145.2-401.5c13.5-37.4,37.9-69.2,70.4-92c32.5-22.8,70.7-34.9,110.5-34.9h331.5h13.8l-4.7,13
			l-56.8,156l-2.3,6.4h-6.8l-272,0c-14.8,0-28.2,9.4-33.2,23.3l-15.9,43.6l157-0.3l0.2,0c17.3,0,33.6,4.1,48.5,12.1
			c14,7.5,26.3,18.5,35.5,31.6c9.2,13.2,15.3,28.4,17.6,44.2C3145.5,382.4,3143.7,399.2,3137.8,415.4z M3205,246.9l-40.3,70.7
			c-2.9-5.7-6.2-11.3-9.9-16.6c-18.7-26.7-45.9-45.6-76.7-54H3205z M3547.9,695.3l-2.3,6.4h-6.8h-154.6h-13.8l4.7-13l62.3-172.4
			l-217.1,0c-26.8,0-50.8-13.8-64.3-37c-13.4-23.2-13.5-50.9-0.3-74.1L3364,40.6l2.8-4.9h5.6h178.2h16.6l-8.2,14.4l-165.5,291.4
			l107.3-0.5L3609,42.2l2.3-6.4h6.8h156h13.8l-4.7,13L3547.9,695.3z"/>
		<polygon class="st0" points="2272.4,607.7 2382.2,607.7 2431.9,471.1 2322.1,471.1 		"/>
		<path class="st0" d="M1563,148.5c2.1-5.7,1.3-11.9-2.2-16.9c-3.5-5-9-7.9-15.1-7.9h-89.3l-20.8,57.2h81.3
			C1537.4,180.8,1556,167.8,1563,148.5z"/>
		<path class="st0" d="M2499.8,123.7h-89.3l-20.8,57.2h81.3c20.6,0,39.2-13,46.2-32.4c2.1-5.7,1.3-11.9-2.2-16.9
			C2511.5,126.5,2505.9,123.7,2499.8,123.7z"/>
	</g>
</g>
</svg>
