<?xml version="1.0" encoding="utf-8"?>
<!-- Generator: Adobe Illustrator 25.0.0, SVG Export Plug-In . SVG Version: 6.00 Build 0)  -->
<svg version="1.1" id="Layer_1" xmlns="http://www.w3.org/2000/svg" xmlns:xlink="http://www.w3.org/1999/xlink" x="0px" y="0px"
	 viewBox="0 0 3839 1687.7" style="enable-background:new 0 0 3839 1687.7;" xml:space="preserve">
<style type="text/css">
	.st0{fill:#FFFFFF;}
</style>
<g>
	<g>
		<path class="st0" d="M3126.6,0l-223,330.3L2680.6,0H2279c-86.2,0-156,79.4-156,177.3v36.1h-107.6C2003.4,93.5,1913.6,0,1804.9,0
			H980L417.3,0c-73.9,0-141.8,18.7-201.9,55.5c-60.7,37.2-111,92.7-145.4,160.6C1.7,350.6,1.7,524.3,70,658.8
			c0.4,0.9,0.9,1.7,1.3,2.6H0v559.5h747.5c149.6,0,245.9-67.7,302.3-128.6h119.7v128.6h492.3v-53.8c0-41.3,29.5-74.8,65.8-74.8
			h802.1c36.4,0,65.8,33.5,65.8,74.8v53.1h419.8L3839,0H3126.6z M2974.2,1125.6h-295.5v-53.1c0-41.3-29.5-74.8-65.8-74.8h-968.5
			c-36.4,0-65.8,33.5-65.8,74.8v53.8h-325.9V997.7h-238.5c-4.7,6.2-9.5,12.2-14.6,18c-43.7,50.4-123,110.6-252.1,110.6H83.2V756
			h210.3c-64.4-27.3-117-76.8-151.4-144.4c-53.7-105.7-53.7-242.4,0-348.1C196.5,156.1,296.9,94.6,417.3,94.6l562.7,0h824.8
			c71.1,0,128.7,65.5,128.7,146.2V308h272.6l0-130.7c0-45.7,32.6-82.8,72.8-82.8l360.6,0l264,391.1l264-391.1h502.6L2974.2,1125.6z"
			/>
		<g>
			<g>
				<path class="st0" d="M1763.4,737.1h708V555.9h-708V737.1z M1850.3,240.8c0-28.5-20.4-51.7-45.5-51.7H980.1v51.7
					c0-28.5-20.4-51.7-45.5-51.7l-517.3,0c-310.1,0-310.1,496.6,0,496.6v0h330.2c96.6,0,96.6,164.8,0,164.8H166.4v181.2h581.1
					c342.9,0,342.9-527.2,0-527.2H417.3v0c-83,4.7-91.7-144.2,0-148.9c0,0,0,0,0,0h562.7h355.8v676.1h159.5V355.6h355.1V240.8z
					 M3250,189.1l-346.4,513.1l-346.4-513.1h-251.6l568.4,841.9h59.1l568.4-841.9H3250z"/>
			</g>
		</g>
	</g>
	<g>
		<path class="st0" d="M214.5,1595.2v8.2c0,26.2,4.8,43,23.8,43c11,0,21.5-10.9,21.5-34.4c0-25.4-8.3-34.8-32.1-47.6
			c-32.1-17.2-46.8-37.9-46.8-84.4c0-54.3,21.3-82,55.4-82c32.1,0,55.4,21.5,55.4,75v7.8H257c0-26.2-5.8-41.4-19.5-41.4
			c-16.3,0-20.5,16-20.5,32.4c0,17.2,3.3,27.7,18.5,37.9l27.8,18.7c27.1,18.4,34.1,39.8,34.1,73.8c0,59-23,85.5-62.1,85.5
			c-40.8,0-56.9-29.7-56.9-81.2v-11.3H214.5z"/>
		<path class="st0" d="M415.4,1403.4v46.1h-63.9v65.6h60.1v46.1h-60.1v75h66.4v46.1H315.4v-278.9H415.4z"/>
		<path class="st0" d="M515.4,1486.2c0-20.7-6-46.9-20.5-46.9c-17.5,0-24.6,28.1-24.6,97.6c0,67.2,4,109.4,24.8,109.4
			c8.5,0,22.3-14.4,22.3-44.5v-28.5h-23.8v-41.4H552v150.4h-26.6v-25.8h-0.5c-8.5,21.9-20.8,31.2-37.6,31.2
			c-44.3,0-53.1-51.6-53.1-148c0-93.7,14-141.8,60.1-141.8c39.6,0,55.6,31.6,55.6,88.3H515.4z"/>
		<path class="st0" d="M614.9,1577.2H650l-17.3-125.4h-0.5L614.9,1577.2z M610.1,1403.4h44.6l47.3,278.9h-37.6l-8.3-59h-47.6
			l-8.3,59h-37.6L610.1,1403.4z"/>
		<path class="st0" d="M879.5,1403.4v46.1h-39.1v232.8h-36.1v-232.8h-39.1v-46.1H879.5z"/>
		<path class="st0" d="M896.8,1682.3v-278.9h36.1v278.9H896.8z"/>
		<path class="st0" d="M1064.4,1403.4v46.1h-39.1v232.8h-36.1v-232.8h-39.1v-46.1H1064.4z"/>
		<path class="st0" d="M1105.8,1577.2h35.1l-17.3-125.4h-0.5L1105.8,1577.2z M1101,1403.4h44.6l47.3,278.9h-37.6l-8.3-59h-47.6
			l-8.3,59h-37.6L1101,1403.4z"/>
		<path class="st0" d="M1247.1,1403.4l43.6,191h0.5v-191h33.1v278.9h-41.1l-44.1-195.3h-0.5v195.3h-33.1v-278.9H1247.1z"/>
		<path class="st0" d="M1436.3,1403.4l25.3,206.2h0.8l26.6-206.2h37.3l-41.1,278.9h-46.4l-41.1-278.9H1436.3z"/>
		<path class="st0" d="M1541.3,1682.3v-278.9h36.1v278.9H1541.3z"/>
		<path class="st0" d="M1642,1640.9h16c25.1,0,30.1-24.6,30.1-100.4c0-63.3-3.3-95.7-30.8-95.7H1642V1640.9z M1605.9,1403.4h59.1
			c50.1,0,59.1,53.5,59.1,135.5c0,98.8-13.5,143.3-61.4,143.3h-56.9V1403.4z"/>
		<path class="st0" d="M1848,1403.4v46.1h-63.9v65.6h60.1v46.1h-60.1v75h66.4v46.1H1748v-278.9H1848z"/>
		<path class="st0" d="M1925.7,1646.3c21.3,0,24.8-28.5,24.8-103.5c0-74.6-3.5-103.5-24.8-103.5c-21.3,0-24.8,28.9-24.8,103.5
			C1900.9,1617.8,1904.4,1646.3,1925.7,1646.3z M1925.7,1397.9c54.1,0,60.9,60.1,60.9,144.9c0,84.8-6.8,144.9-60.9,144.9
			s-60.9-60.1-60.9-144.9C1864.8,1458.1,1871.6,1397.9,1925.7,1397.9z"/>
		<path class="st0" d="M2147.4,1486.2c0-20.7-6-46.9-20.5-46.9c-17.5,0-24.6,28.1-24.6,97.6c0,67.2,4,109.4,24.8,109.4
			c8.5,0,22.3-14.4,22.3-44.5v-28.5h-23.8v-41.4h58.4v150.4h-26.6v-25.8h-0.5c-8.5,21.9-20.8,31.2-37.6,31.2
			c-44.3,0-53.1-51.6-53.1-148c0-93.7,14-141.8,60.1-141.8c39.6,0,55.6,31.6,55.6,88.3H2147.4z"/>
		<path class="st0" d="M2246.9,1577.2h35.1l-17.3-125.4h-0.5L2246.9,1577.2z M2242.2,1403.4h44.6l47.3,278.9h-37.6l-8.3-59h-47.6
			l-8.3,59h-37.6L2242.2,1403.4z"/>
		<path class="st0" d="M2347.4,1403.4h53.6l25.6,196.8h0.5l25.8-196.8h53.4v278.9h-33.1v-222.6h-0.5l-31.8,222.6h-28.1l-31.8-222.6
			h-0.5v222.6h-33.1V1403.4z"/>
		<path class="st0" d="M2632,1403.4v46.1h-63.9v65.6h60.1v46.1h-60.1v75h66.4v46.1h-102.5v-278.9H2632z"/>
		<path class="st0" d="M2741.8,1595.2v8.2c0,26.2,4.8,43,23.8,43c11,0,21.5-10.9,21.5-34.4c0-25.4-8.3-34.8-32.1-47.6
			c-32.1-17.2-46.9-37.9-46.9-84.4c0-54.3,21.3-82,55.4-82c32.1,0,55.4,21.5,55.4,75v7.8h-34.6c0-26.2-5.8-41.4-19.5-41.4
			c-16.3,0-20.5,16-20.5,32.4c0,17.2,3.3,27.7,18.5,37.9l27.8,18.7c27.1,18.4,34.1,39.8,34.1,73.8c0,59-23,85.5-62.1,85.5
			c-40.8,0-56.9-29.7-56.9-81.2v-11.3H2741.8z"/>
		<path class="st0" d="M2871.6,1403.4l23.5,107.8h0.5l25.1-107.8h39.1l-46.3,169.1v109.7h-36.1v-109.7l-46.3-169.1H2871.6z"/>
		<path class="st0" d="M2997.7,1595.2v8.2c0,26.2,4.8,43,23.8,43c11,0,21.5-10.9,21.5-34.4c0-25.4-8.3-34.8-32.1-47.6
			c-32.1-17.2-46.9-37.9-46.9-84.4c0-54.3,21.3-82,55.4-82c32.1,0,55.4,21.5,55.4,75v7.8h-34.6c0-26.2-5.8-41.4-19.5-41.4
			c-16.3,0-20.5,16-20.5,32.4c0,17.2,3.3,27.7,18.5,37.9l27.8,18.7c27.1,18.4,34.1,39.8,34.1,73.8c0,59-23,85.5-62.1,85.5
			c-40.8,0-56.9-29.7-56.9-81.2v-11.3H2997.7z"/>
		<path class="st0" d="M3203.4,1403.4v46.1h-39.1v232.8h-36.1v-232.8h-39.1v-46.1H3203.4z"/>
		<path class="st0" d="M3318.9,1403.4v46.1H3255v65.6h60.1v46.1H3255v75h66.4v46.1h-102.5v-278.9H3318.9z"/>
		<path class="st0" d="M3340.2,1403.4h53.6l25.6,196.8h0.5l25.8-196.8h53.4v278.9H3466v-222.6h-0.5l-31.8,222.6h-28.1l-31.8-222.6
			h-0.5v222.6h-33.1V1403.4z"/>
	</g>
</g>
</svg>
