<?xml version="1.0" encoding="utf-8"?>
<!-- Generator: Adobe Illustrator 26.0.3, SVG Export Plug-In . SVG Version: 6.00 Build 0)  -->
<svg version="1.1" id="Layer_1" xmlns="http://www.w3.org/2000/svg" xmlns:xlink="http://www.w3.org/1999/xlink" x="0px" y="0px"
	 viewBox="0 0 3839 2066.1" style="enable-background:new 0 0 3839 2066.1;" xml:space="preserve">
<style type="text/css">
	.st0{fill:#FFFFFF;}
	.st1{fill:none;}
</style>
<g>
	<g>
		<g>
			<g>
				<path class="st0" d="M2248,30.8c46.8,0,83,9.1,107.6,27.1c11.8,8.6,20.9,19.2,26.9,31.1c26.7,0.5,63.7,5.4,97.3,24.4
					c33.9,19.2,58,49.3,70.4,87.7c56.2,27.3,109,55.3,150.7,111.5c40.9,55.1,49.7,127.4,25.4,209.1c-3.3,11.1-12.5,19.4-23.9,21.5
					c-1.9,0.3-3.7,0.5-5.6,0.5c-9.5,0-18.6-4.4-24.5-12.1l-51-66.9c-3-4-5-8.6-5.8-13.4c-3.1,1-6.3,1.5-9.5,1.5
					c-6.4,0-12.8-2-18.3-6c-1.5-1.1-3.1-2.3-4.8-3.5c15.9,86.8,19.8,159.1-27.4,223.9c-5.8,8-15.1,12.7-24.9,12.7
					c-1.7,0-3.4-0.1-5.1-0.4c-0.8-0.1-1.5-0.3-2.2-0.5c12.6,19.9,24,39.6,34.5,58.9c40.5-30.2,90.1-46.5,144-47.3c1.3,0,2.6,0,3.9,0
					l0,0c46.7,0,85.3,11.4,114.7,33.9c28.9,22,46.7,53.4,51.5,90.6c7.1,55,1.3,102.7-18.1,150.1c-12.9,31.5-30.7,61-52.6,94.1
					c57-1.6,112.7-2.4,166.8-2.4c24.2,0,48.2,0.2,71.8,0.5c126.3-34.2,262.2-59.7,282.4-61.1c6.9-0.5,13.4-0.7,19.3-0.7
					c13.5,0,24.2,1.3,32.8,3.9c23,7,28.7,23.4,30.1,30.2c2.3,11.4,0.5,28.5-21.5,45.2c34.7,3.3,68.4,7,101.2,11.1
					c123.2,15.6,198.1,33.1,234.1,41.5c6.9,1.6,12.4,2.9,15.7,3.6c46.4,9.3,74.2,31.4,74.3,59.2c0,8.2-3,35.5-43.8,44
					c-43.3,9.1-136.8,19.4-266.2,33.6c-206.3,22.8-491.1,54.2-772.8,102.4c8.9,74.2,14.8,137.5,18.2,177.2
					c137.4,21.3,284.1,127.4,342.8,173.8c10.3,8.1,14.3,21.9,10,34.2c-4.3,12.4-16,20.7-29.1,20.7H1783.7
					c-14.6,0-27.1-10.2-30.1-24.5c-3-14.3,4.5-28.6,17.8-34.5c119.5-52.2,245.3-93.3,374.1-122.3c116.3-26.2,234.8-42.5,352.6-48.5
					c1.4-25.2,3.1-61,4.6-103c-4.5,0.7-8.6,1-12.4,1c-6.6,0-12.4-0.9-17.8-2.9c-6.8-2.5-13.5-5.9-19.9-10c-2.9-1.9-5.8-4-8.5-6.2
					c-1.7,0.4-3.5,0.8-5.2,1.2c-53.8,12.1-134.4,29.4-227.7,49.5c-173.3,37.3-390.4,83.9-593.6,130.8c2.6,6.4,5.4,12.7,8.4,19.2
					c13.9,24.9,18,49.5,11.9,71.1c-4,14.1-14.4,34-41.6,48.8c-15.2,8.3-29.2,12.3-42.8,12.3c-15.2,0-27.1-5-36.6-9s-17-7.2-29.6-7.2
					c-3.8,0-8,0.3-12.4,0.9c-3.5,0.5-7.2,0.7-11.2,0.7c-10.5,0-31.7-1.9-55.8-14.3c-23.7-12.2-43.7-31.1-59.3-56
					c-0.3-0.5-0.7-1.1-1-1.6c-369.8,94-784.6,254.1-946.1,318.7l-2.1,0.8c-10.1,4-20.2,8.2-29.9,12.3c-41.1,17.2-76.6,32-106.8,32
					c-32,0-48.8-16.4-57.2-30.2c-7.3-12-16.9-26-27.9-42.2c-29.4-43.2-69.5-102.5-100-171.8c-16.8-38.3-29.2-76.5-36.9-113.6
					c-9-43.4-11.9-87-8.6-129.5c1.8-23.9,23.5-38.3,44.5-49.3c17.2-9,40.7-18.8,71.9-30c55.1-19.8,123.5-39.9,178.4-56.1
					c16.3-4.8,31.9-9.4,45.4-13.5c-6.6-7.8-11.3-16.7-14.1-26.5c-8.4-29.6-2.6-56.9,17-79c14.6-16.5,34.4-27.7,53.4-38.5
					c15.5-8.8,31.5-17.8,39.6-27.5c33.8-40.1,78.2-45.3,113.2-45.3c20.2,0,41.5,2,64,4c23.9,2.2,48.6,4.5,74.7,4.7
					c126.2-155.3,268.4-314,365.2-420.8c37.2-41.1,78.6-88.1,122.3-137.9c69.5-79.1,141.4-160.8,201-223.3
					c90.9-95.2,122.5-113.9,146.6-113.9c1,0,2,0,3,0.1c25.7,1.8,46.6,13,60.6,32.4c12.6,17.4,19,40.9,19,69.7
					c0.1,26-5.1,51.5-9.4,68.4c-29.2,114.7-61,283.2-62.4,412.2c-0.2,19.5-0.6,42.2-1,66.3c-1,62-2.2,138.4-1.7,205.5
					c75.9-9.8,152.2-18.4,237.9-26.5c19.1-1.8,38.6-3.6,58.6-5.4c68.4-87.2,175.8-219.9,225.1-259.3c19.3-15.5,36.8-23,53.3-23
					c12.2,0,34.9,4.3,49.4,33.3c5.5,11,7.5,21.8,9.2,31.3c1.3,7.1,2.4,13.1,4.6,17.1c11,19.8,3.4,47.1-22.8,126.6
					c-3.8,11.6-7.5,22.9-10.8,33c7.2-9.2,13.8-17.7,19.3-24.7c23.9-30.1,53.7-62.2,79.7-85.8c50-45.5,75.3-50.8,89.9-50.8l0,0
					c2.9,0,5.8,0.2,8.5,0.7c18.5,3.2,33.4,13.1,42.9,28.4c12.3,19.8,15,47.3,8.4,86.3c-2.7,15.7-6.6,32.2-11,48.4
					c29.4-1.8,59.9-3.6,91.8-5.5c-2.3-24.4-5.1-47.3-8.6-68.2c-2.5,0.3-5,0.4-7.5,0.4c-20,0-39-8.7-52.1-23.8
					c-12.1-13.9-17.6-31.9-15.1-49.3c2.9-20,17.7-36.6,34.8-55.9c0.2-0.2,0.4-0.5,0.7-0.7c-38.6-92-98.9-194-154-274.5
					c-0.6,1.7-1.2,3.5-1.8,5.2c-7.4,19.7-17.7,35.9-30.6,48c-17.5,16.5-39.8,25.2-64.4,25.2c-8,0-16.4-0.9-24.9-2.7
					c-33-7-60.3-26.2-77-54.2c-15.1-25.3-19.8-55.4-13.1-83.2c-0.8,0-1.6-0.1-2.4-0.2c0.5,6.5-1,13.1-4.5,18.7l-32.1,51.7
					c-5,8.1-13.2,13-22,14.2c0.9,1.4,1.8,2.7,2.8,3.8c6.2,6.8,9,16,7.7,25.1l-3.7,26c-1.4,10-7.7,18.7-16.7,23.2
					c-0.8,0.4-1.6,0.8-2.5,1.1c1.7,2.9,3.6,5.7,5.8,8.2c5.2,5.9,8,13.6,7.8,21.5l-2.1,62.9c-0.3,9-4.6,17.5-11.6,23.1
					c-5.5,4.3-12.2,6.6-19.1,6.6c-2,0-4-0.2-6-0.6c-32.5-6.5-63.5-28.3-87.4-61.3c-24.8-34.3-39.6-77.4-42.8-124.6
					c-3.3-48,6-91.1,18.5-125.7c-2.3,0.5-4.6,0.8-7,0.8c-2,0-4.1-0.2-6.1-0.6c1.4,6.9,0.4,14.1-2.9,20.4l-36.3,69.3
					c-4.2,8.1-11.8,13.8-20.6,15.8c-1.1,0.2-2.3,0.4-3.4,0.6c0.8,1.6,1.7,3.3,2.6,5c3.6,6.8,4.6,14.7,2.7,22.1l-16.5,64.7
					c-2.7,10.7-11,19.1-21.6,22.1c-2.7,0.7-5.5,1.1-8.2,1.1c-8,0-15.9-3.1-21.7-9c-33.6-33.4-58.2-79.6-69.1-129.8
					c-11.3-51.7-8.2-104.8,8.9-153.4c15.8-44.9,33.5-80.2,55.8-111.2c21.3-29.6,47.8-56.4,80.8-81.6c2.4-46,31.1-86,76.9-104.9
					c28.2-11.6,56.2-17.5,83.3-17.5c28.7,0,56.7,6.6,83.7,19.6c2.3-15.4,7-31.9,16.4-47.6c21.7-36.4,62.4-58.4,121.1-65.4
					C2212.1,32,2230.9,30.8,2248,30.8 M2494.4,636l-4.4-14.5c-1.1-3.5-1.5-7.2-1.3-10.9c0.1-1.4,0.2-2.8,0.3-4.3
					c-7.9-0.8-15.1-4.7-20.3-10.7l-17.6-20.8c-6.3-7.5-8.6-17.4-6.5-26.7c-2.2,0.5-4.5,0.8-6.8,0.8c-5.9,0-11.8-1.7-16.8-5
					C2448.6,574.7,2472.9,605.5,2494.4,636 M2198.8,649.7c0.3,0,0.6,0,1,0C2199.2,649.7,2198.7,649.7,2198.8,649.7 M1136.4,1214.5
					c40.3-7,82.4-13.9,126.4-20.8c4.9-106,16.3-208.7,34.8-314.8c-101.1,113.2-192.2,220.6-275.7,325.4c27.4,1.4,53.2,4,79.9,6.7
					C1113.2,1212.2,1124.6,1213.4,1136.4,1214.5 M2665,1015.9c9.2-15.6,16.4-31.3,21.2-46.2c7.9-24.6,9-46.1,3-59
					c-1.9-4-6.8-14.5-30.8-14.5c-4.8,0-10,0.4-15.5,1.3c-4.1,0.6-8.2,1.6-12.1,2.9C2642.7,933.2,2654.2,971.8,2665,1015.9
					 M2481.2,975.5C2481.1,975.5,2481.1,975.5,2481.2,975.5c0,0,0.1,0,0.2,0c0.1,0,0.3,0,0.4,0
					C2481.6,975.5,2481.4,975.5,2481.2,975.5 M2248,0L2248,0c-18.2,0-38.2,1.3-59.5,3.8c-33.1,3.9-61.8,12.4-85.4,25.1
					C2078,42.5,2058.3,61,2044.6,84c-4.2,7.1-7.8,14.5-10.9,22.3c-20.5-6.2-41.6-9.3-62.8-9.3c-31.2,0-63.2,6.7-95.1,19.8
					c-27.6,11.4-51.1,29.6-67.9,52.6c-14,19.2-23,41.3-26.6,64.6c-30.6,24.7-55.7,50.8-76.5,79.8c-13.9,19.4-26.2,40.2-37.3,63.6
					c-2.7-26.5-10.7-49.1-23.8-67.4c-9.7-13.5-21.9-24.2-36.3-31.9c-14.1-7.5-29.9-12-47-13.2c-1.7-0.1-3.5-0.2-5.2-0.2
					c-20.9,0-40.8,8.2-66.6,27.3c-24.8,18.4-57.3,49-102.3,96.1c-60,62.9-132.1,144.9-201.8,224.2c-43.7,49.7-84.9,96.6-122,137.6
					c-94,103.7-232.2,258-356.7,410.3c-19.7-0.8-38.9-2.5-57.6-4.3c-23.3-2.1-45.2-4.2-66.9-4.2c-38.4,0-94.3,5.8-136.7,56.2
					c-4.6,5.5-20,14.2-31.3,20.6c-20.3,11.5-43.2,24.5-61.3,44.9c-26.3,29.7-34.7,67.6-23.8,106.9c-3.1,0.9-6.3,1.9-9.5,2.8
					l-0.6,0.2c-55.3,16.3-124.2,36.5-180.1,56.6c-32.5,11.7-57.3,22-75.8,31.7c-10.9,5.7-24.8,13.7-36.5,24.9
					c-14.8,14.2-23,30.8-24.4,49.3c-3.5,45.4-0.4,91.9,9.2,138.1c8.1,39.2,21.2,79.5,38.9,119.7c31.6,71.9,72.7,132.5,102.7,176.7
					c10.8,15.9,20.1,29.6,27.1,41c17.7,28.9,47.4,44.9,83.5,44.9c36.4,0,74.5-15.9,118.7-34.3h0.1c9.6-4,19.5-8.1,29.4-12.1l2.1-0.8
					c157.7-63.1,558.8-218,921.6-312.1c16.5,21.4,36.4,38.1,59.3,49.9c29.9,15.4,56.6,17.7,69.9,17.7c5.3,0,10.5-0.3,15.4-1
					c3-0.4,5.7-0.6,8.2-0.6c6.1,0,8.9,1.1,17.7,4.8c10.8,4.6,27.2,11.4,48.6,11.4c18.9,0,37.7-5.3,57.5-16.1
					c36.5-19.9,50.9-47.7,56.5-67.5c6.9-24.4,4.7-50.7-6.2-77.2c192.2-44,393.1-87.1,556.4-122.3h0.1
					c88.7-19.1,165.9-35.7,219.6-47.7c7.9,5,16.1,9.1,24.5,12.1c2.9,1,5.8,1.9,8.8,2.6c-0.7,16.3-1.4,31.2-2,44.2
					c-110.4,7.1-221.3,23.1-330.1,47.6c-130.7,29.5-258.4,71.2-379.6,124.2c-12.9,5.6-23.6,15.6-30,28.2c-6.5,12.5-8.4,27-5.6,40.8
					c2.9,13.8,10.5,26.3,21.4,35.2c10.9,8.9,24.7,13.8,38.8,13.8h1283.6c26.2,0,49.5-16.6,58.1-41.3c8.6-24.7,0.6-52.2-20-68.5
					c-32.5-25.7-84.2-63.7-145.7-98.9c-67.5-38.6-130.5-64.3-187.6-76.7c-3-33.2-7.2-76.5-12.8-125.8
					c271.2-45.3,542.4-75.2,742.2-97.3c130.2-14.4,224.3-24.7,269.1-34.1c32-6.7,48.5-22.9,56.6-35.4c10.2-15.5,11.7-31,11.7-38.9
					c-0.1-12-3-23.6-8.9-34.3c-5.3-9.7-12.9-18.5-22.5-26.2c-16.9-13.5-39.7-23.2-67.7-28.8c-2.8-0.6-8.3-1.8-14.6-3.3h-0.2
					c-36.5-8.5-112.4-26.2-237.2-42c-17.3-2.2-35.1-4.3-53.1-6.3c1.5-8.5,1.4-17.2-0.3-25.7c-1.4-6.9-4.8-17.2-12.7-27.5
					c-9.3-12.1-22.6-21-38.6-25.9c-11.5-3.5-25.2-5.2-41.7-5.2c-6.6,0-13.8,0.3-21.4,0.8c-23.5,1.6-157.9,26.9-284.2,60.9
					c-22.5-0.3-45.4-0.4-68-0.4c-35.9,0-72.9,0.4-110.6,1.1c9.2-16.1,17.7-32.9,24.8-50.4c21.5-52.5,27.9-105.2,20.1-165.7
					c-2.9-22.5-9.8-43.5-20.5-62.3c-10.8-18.9-25.2-35.4-42.8-48.9c-34.9-26.6-79.8-40.2-133.4-40.2c-1.4,0-2.9,0-4.3,0
					c-44.9,0.6-87.4,11-125,30.3c1.4-1.6,2.8-3.2,4-5c25.4-34.9,39.5-74,43.1-119.4c1.2-15.7,1.2-31.7,0.3-47.4l24.1,31.7
					c11.6,15.2,29.9,24.2,48.9,24.2c3.7,0,7.5-0.3,11.1-1c11.2-2,21.5-7.2,30-14.7c8.5-7.6,14.6-17.4,17.9-28.3
					c13.3-44.7,17.6-87.5,12.8-127c-4.9-40.7-19.4-77.4-43-109.2c-21.1-28.4-46.3-52.5-77.3-73.7c-24.1-16.5-49.3-29.8-73.5-41.7
					c-15.8-39.8-43.2-71.6-79.9-92.3c-32.5-18.4-67.3-25.3-94.8-27.5c-7.2-9.8-16-18.5-26.4-26.1C2343.7,11.1,2301.4,0,2248,0
					L2248,0L2248,0z M1594,1115c0-57.6,1-119,1.8-170.1c0.4-22.9,0.7-46.6,1-66.5c1-87.9,16.5-195,35.5-290
					c0.8,4.8,1.7,9.5,2.8,14.3c12.2,56,39.7,107.6,77.5,145.1c11.6,11.5,27,17.9,43.4,17.9c5.5,0,11-0.7,16.4-2.2
					c21.2-5.9,37.8-22.8,43.3-44.1l12.1-47.4c7,41.1,22.3,78.8,45,110.1c28.5,39.4,66.2,65.5,106.3,73.5c3.9,0.8,8,1.2,12.1,1.2
					c13.8,0,27.4-4.7,38.2-13.3c14.2-11.2,22.7-28.1,23.3-46.1l2.1-62.9c0.3-8.7-1.2-17.2-4.4-25.1c5.1-7.6,8.4-16.3,9.8-25.6
					l3.7-26c1-7.1,0.8-14.2-0.6-21.1c1.3-1.4,2.5-2.8,3.7-4.2c1.2,2.3,2.4,4.5,3.8,6.7c21.1,35.4,55.6,59.8,97,68.5
					c10.6,2.3,21.2,3.4,31.3,3.4c32.6,0,62.2-11.6,85.5-33.5c5.1-4.8,9.8-10,14.2-15.7c46.3,71.7,86.9,145.2,115.2,208.9
					c-6.3,7.5-12.3,15.2-17.2,23.5c-8-3.9-16.6-6.7-25.8-8.3c-4.5-0.8-9.2-1.2-13.8-1.2c-31.9,0-66,18.1-110.7,58.8
					c-3.3,3-6.7,6.2-10.1,9.5c2.1-15.7,1.8-33-7.2-49.8c-0.5-1.7-1.2-5.7-1.8-8.7c-1.9-10.4-4.5-24.6-11.9-39.5
					c-16-31.9-44-50.3-76.9-50.3c-23.8,0-47.6,9.7-72.6,29.7c-48.3,38.6-145.6,157.1-221.8,253.9c-15.4,1.4-30.7,2.8-45.6,4.2
					C1726.7,1099.5,1660.9,1106.7,1594,1115L1594,1115z M1082.5,1178.2c53.2-65.5,109-131.8,168.8-200.3
					c-8.4,63-14.3,125.6-17.9,189.3c-33.6,5.4-66.5,10.8-98.2,16.3c-9.7-0.9-19.1-1.9-30.2-3
					C1097.4,1179.7,1089.9,1178.9,1082.5,1178.2L1082.5,1178.2z M2445.3,1046.2c0.7-3.5,1.3-6.8,1.8-10.1c0.3-1.7,0.5-3.3,0.8-5
					c4.7,1.7,9.4,3,14.3,3.9c0.4,3.3,0.9,6.6,1.3,10C2457.4,1045.5,2451.3,1045.9,2445.3,1046.2L2445.3,1046.2z"/>
			</g>
			<path id="SVGID_00000031183884684042123440000006322798702246801539_" class="st1" d="M1270.9,1223.5
				c398.3-62.4,580.6-81.6,1329.1-124.8c748.1-43.2,1079.6,52.8,1127.6,62.4s67.2,35.2,30.2,42.9
				c-132.6,27.7-793.2,72.3-1325.8,192.2c-194.7,43.9-729.4,153.6-1089.2,244.7c-416.3,105.5-883,292.7-954.9,321.5
				c-72,28.8-134.4,62.4-156.3,26.6c-49-80-184.4-237.7-169-438.7c2.6-34.2,232.9-95.4,330-125.3
				C642.4,1348.3,872.8,1285.9,1270.9,1223.5"/>
		</g>
		<rect x="2428.7" y="1023.1" class="st0" width="53.2" height="39.6"/>
		<path class="st0" d="M1136.4,1214.5c40.3-7,82.4-13.9,126.4-20.8c4.9-106,16.3-208.7,34.8-314.8
			c-101.1,113.2-192.2,220.6-275.7,325.4c27.4,1.4,53.2,4,79.9,6.7C1113.2,1212.2,1124.6,1213.4,1136.4,1214.5z M1273.8,929
			c-12.9,84-21.4,166.8-25.8,251.6c-38.5,6.1-76.2,12.3-112.3,18.5c-11.3-1.1-22.5-2.2-32.4-3.2c-17.3-1.8-34-3.5-51-4.8
			C1121,1105.7,1193.9,1019.4,1273.8,929z"/>
		<g>
			<path class="st0" d="M1275.6,1396.2c-41.4,2.4-76.1,10.6-115.2,19.9c-54.8,13-116.9,27.8-209.5,27.8c-28.5,0-59-1.4-90.9-4.2
				c-21.5,28.8-40.2,55.7-66.8,93.7c-16.4,23.5-35,50.1-58.8,83.8c-9.7,13.8-18.9,26.8-27.7,39.2
				c-82.4,116.9-123.7,175.6-184.7,210.7c-41.4,23.8-84.1,35.4-130.7,35.4c-20.7,0-39.1-2.2-55.3-4.1l-4.6-0.5
				c-20.7-2.4-40.8-19.2-51.1-42.9c-10.3-23.6-8.4-47.9,5.3-66.8c66.8-91.9,127.5-166.2,186.1-238.1c29.5-36.1,57.8-70.9,85.6-106.3
				c-8.6,0.3-17.5,0.5-26.7,0.5c-39.3,0-72.3-3.6-98.1-10.6c-11.3-3.1-21.3-6.9-30.2-11.4c-3.2,1-6.4,1.9-9.6,2.9
				c-97.2,29.9-327.4,91.1-330,125.3c-15.5,201,120,358.7,169,438.7c6.8,11.1,17.4,15.5,31,15.5c30.4,0,75.5-22.2,125.3-42.1
				c71.4-28.6,531.2-213.1,945-319c-20.6-46.1-30.4-101.5-41.5-164C1286.7,1452.5,1281.7,1424.7,1275.6,1396.2z"/>
			<path class="st0" d="M1631.3,1487.7c0.1,12.7,10.8,22.4,23.1,22.4c1.3,0,2.5-0.1,3.8-0.3c11.6-1.9,22.5-4.4,34.2-7.4
				c5.5-1.4,10.3-4.9,13.4-9.7c70.1-109.7,212.1-335.6,366.4-504.5c-19.2,51.2-36.3,115.2-51.2,174.9c-10,40.1-19.1,93.6-23.9,124.4
				c-3.2,20.1,4.9,40.9,22.1,51.8c5.2,3.3,10.7,5.5,16.4,5.5c1.6,0,3.1-0.2,4.7-0.5c44.8-10.7,85.3-68.3,153.6-166.4
				c59.8-85.9,110.9-140.8,110.9-140.8s-25.9,82.4-62.1,167.7c-36.3,85.3-41.3,122.8-21.6,149.6c8.4,11.4,16.9,14.5,25.1,14.5
				c9.8,0,19.2-4.4,27.6-4.4c3.4,0,6.6,0.7,9.7,2.7c1.3,0.9,3,1.3,5,1.3c27.6,0,117.5-73.7,87.2-100.8c-3-2.7-5.7-3.8-8.2-3.8
				c-12.6,0-20.7,28.2-42.7,28.2c-1,0-2.1-0.1-3.1-0.2c-15.2-1.8-4.4-40.7,9.3-78.8c14.1-39.2,27.2-78.8,38.8-118.8
				c18.7-64.7,37.1-139.5-9.5-147.7c-1-0.2-2.1-0.3-3.2-0.3c-32.4,0-103.8,72.5-145.5,125c-35.9,45.2-115.7,151.4-115.7,151.4
				s21.3-76.2,35.7-130.6c12.3-46.6,51.2-145.6,43.2-160c-8.9-15.9-6.9-34.6-14.4-49.6c-5.1-10.1-12-16.3-21.9-16.3
				c-8.8,0-19.9,4.9-34.1,16.3c-85.3,68.2-396.3,478.6-430.8,540.7C1654.7,1457,1631,1438.2,1631.3,1487.7z"/>
			<path class="st0" d="M1542.2,1361.3c22.4-8.8,54.6-16.8,52.8-55.2c-1.1-22.4-24-43.2-59.2-49.1c-6.4-96-1.6-278.2-0.5-379.3
				c1.5-135.8,35-308.2,63.4-419.5c13.9-54.4,17.1-128-42.7-132.2c-0.3,0-0.5,0-0.8,0c-48.9,0-289.8,291.4-447.1,465
				C984.4,927.6,852.3,1076.8,735,1221.8c-3.2,0.1-6.5,0.1-9.7,0.1c-54.8,0-103.2-8.8-143.8-8.8c-36.6,0-66.8,7.1-89.7,34.3
				c-34.1,40.5-122.9,50.4-104,116.8c11.4,40.2,81.8,49.2,142.8,49.2c49.9,0,93.4-6,93.4-6c-96,128-196.3,237.6-313.5,398.8
				c-17.1,23.5,6.2,58.9,24.5,61c16.8,1.9,35.6,4.4,56.4,4.4c33.4,0,71.9-6.3,115.3-31.3c61.2-35.2,104.5-102.4,202.6-241
				c68.7-97.1,96-138.6,136.5-191.9c39.4,4,74.1,5.7,105.1,5.7c165.5,0,227-48.4,349.2-48.4c27.7,117.3,32.2,224.2,74.6,292.2
				c28.4,45.5,68,55.9,89,55.9c2.6,0,5-0.2,6.9-0.4c6.1-0.8,11.6-1.2,16.6-1.2c33.5,0,45.8,16.2,66.2,16.2c7.7,0,16.5-2.3,28.1-8.6
				c34.4-18.8,34.1-49.1,17.1-78.9C1556.6,1549.2,1547,1469.2,1542.2,1361.3z M1291.6,1249.6c-17,0.7-32.9,1-48,1
				c-108.9,0-172.6-16.4-259.1-16.4c-8.3,0-16.8,0.2-25.6,0.5c121.6-155.7,253.8-309.3,390.3-458.5
				C1315,934,1295.7,1085.8,1291.6,1249.6z"/>
			<path class="st0" d="M2437.8,548.9c-5.9,0-11.8-1.7-16.8-5c27.6,30.9,51.9,61.7,73.4,92.1l-4.4-14.5c-1.1-3.5-1.5-7.2-1.3-10.9
				c0.1-1.4,0.2-2.8,0.3-4.3c-7.9-0.8-15.1-4.7-20.3-10.7l-17.6-20.8c-6.3-7.5-8.6-17.4-6.5-26.7
				C2442.4,548.6,2440.1,548.9,2437.8,548.9z"/>
			<path class="st0" d="M2776,1096.7c-3.3,4.8-6.6,9.7-10,14.7c-11.4,16.8-27.7,37-45.3,57.2c65.5-26.1,145.9-56.8,218.2-80.9
				c-50.3,0.3-103.2,1.2-158.9,3C2778.7,1092.7,2777.4,1094.7,2776,1096.7z"/>
			<path class="st0" d="M2485.1,828c5.2-12.3,19.4-41,48.8-69.5c-49.5-92.4-124.1-197.7-244.2-298.9c-0.6-0.6-1-1-1.6-1.6
				c3.2-0.1,6.4-0.1,9.6-0.1c30.4,0,55.6,4.4,75,12.3l34.1-41.6c0,0,13.9,35.2,8.5,66.1l22.4,23.5l45.9-35.2c0,0,5.3,43.2-9.1,72
				l17.6,20.8l35.2-32c0,0-6.4,43.2-8,68.8l11.2,36.8c51.2-70.4,32-153.6,8-270.3l0,0c1.6,0,45.5,27.1,67.3,43.2
				c9.4-11.2,29.1-35.5,29.1-35.5s15.5,30.7,10.7,59.5l51,66.9c10.8-36.5,28.4-116-20.6-182.1c-39.5-53.2-90.1-78.4-152-108.2
				c-19.3-82.8-90.7-103-146.8-103c-6,0-11.9,0.2-17.5,0.6c-1.8-21.9-21-58.8-112-58.8c-15.3,0-32.6,1-52.2,3.4
				c-125.8,14.9-110.9,98.1-113,136.5c-28.9-23.1-65.9-42.9-111.8-42.9c-21.8,0-45.7,4.5-71.6,15.2c-36.3,14.9-61.8,49.1-57.6,91.7
				c-74.6,53.3-110.9,108.8-138.6,187.7c-31.4,89.3-7.3,191.5,52.8,251.3l16.5-64.7c-30.9-57.6-20.3-82.1-20.3-82.1l41.6,32
				l36.3-69.3c-14.9-41.6-8.5-68.2-8.5-68.2l44.8,32c39.5-34.1,77.8-38.4,77.8-38.4s-66.1,82.1-58.6,192
				c6,88.8,57.6,148.2,105.6,157.8l2.1-62.9c-25.6-28.8-25.6-74.6-25.6-74.6l31.5,17.4l3.7-26c-22.4-24.5-22.9-77.7-22.9-77.7
				l38.7,22.7l32.1-51.7c-7.5-36.3-3.2-69.3-3.2-69.3l37.3,36.3c15.4-6.9,43.2-17,71.1-26c-18.7,15-34.2,36.3-41.2,60.1
				c-12.4,42.2,12.8,92.8,65.6,104c6.6,1.4,12.8,2.1,18.6,2.1c37.1,0,56.4-27.1,66.2-53.2c11.6-30.9,6.2-68.1-5.4-95.3
				c63.3,79.2,155.9,220.4,212.2,348.9C2477.3,842.8,2482,835.4,2485.1,828z"/>
			<path class="st0" d="M3736.8,1115.9c-3.1-0.6-8.4-1.9-15.3-3.5c-36.2-8.4-111.6-26-235.6-41.7c-23.3-3-47.4-5.7-72-8.2
				c7.7-14.4,7.1-27.7,5.4-35.9c-1.9-9.4-9.8-32.4-40.7-41.8c-10.1-3.1-22.2-4.5-37.2-4.5c-6.2,0-13.1,0.3-20.4,0.8
				c-22.5,1.6-159.4,27.5-283.3,61c-23.1-0.3-46.6-0.5-69.9-0.5c-44.6,0-90.9,0.6-138.1,1.7c14.2-22.7,27.7-46.7,38.1-72.2
				c20.5-50,26.5-100.1,19.1-157.9c-5.3-41.4-25.2-76.3-57.4-100.9c-32.2-24.6-73.9-37-124-37c-1.4,0-2.7,0-4.1,0
				c-50.7,0.7-98.3,14.6-138.5,40.3c-4.6-8.2-9.3-16.2-14.1-24.2c7.5-3.2,14-8.4,18.9-15.2c23.7-32.6,36.8-69.1,40.2-111.6
				c2.6-32.3-0.7-65.8-5.5-96.7c0.9,0.1,1.8,0.1,2.7,0.1c1.1,2,2.4,4,3.8,5.8l51,66.9c8.7,11.4,22.4,18.2,36.7,18.2
				c2.8,0,5.6-0.3,8.3-0.8c17.2-3.2,30.9-15.5,35.9-32.3c25.7-86.6,16.1-163.6-27.8-222.7c-41.8-56.3-93-85.2-150.6-113.4
				c-14.1-39.1-40-70.2-75.3-90.1c-33.1-18.7-69-24.6-95.7-26.1c-6.9-10.9-15.9-20.4-27-28.5c-27.3-19.9-66.6-30.1-116.7-30.1
				c-17.6,0-37,1.2-57.6,3.7c-63.6,7.6-108.2,32-132.5,72.8c-6.2,10.4-10.9,21.6-14.3,34c-23.6-8.9-47.9-13.4-72.6-13.4
				c-29.2,0-59.2,6.3-89.2,18.6c-25,10.3-46.2,26.7-61.3,47.4c-13.7,18.8-22.1,40.6-24.5,63.7c-31.7,24.9-57.4,51.3-78.5,80.6
				c-23.1,32.2-41.5,68.8-57.8,115.1c-18,51.4-21.3,107.3-9.5,161.8c11.6,53.2,37.6,102,73.3,137.5c8.7,8.7,20.3,13.4,32.5,13.4
				c4.1,0,8.3-0.6,12.3-1.7c15.9-4.4,28.4-17.1,32.4-33.1l16.5-64.7c1.8-7.2,1.9-14.7,0.2-21.9c7.3-4.3,13.3-10.6,17.3-18.3l4.6-8.8
				c-0.8,12.9-0.7,25.7,0.2,38.5c3.4,50.1,19.2,95.9,45.7,132.5c26.2,36.2,60.6,60.2,96.8,67.4c3,0.6,6,0.9,9.1,0.9
				c10.4,0,20.5-3.5,28.6-10c10.6-8.4,17-21,17.5-34.6l2.1-62.9c0.3-9.5-2.2-18.6-7.3-26.5c6.8-6.9,11.4-16,12.8-25.8l3.7-26
				c1.2-8.2,0.1-16.5-3-23.9c4.9-3.5,9-7.9,12.3-13.1L2070,599c3.1,11.3,7.7,22.2,13.7,32.4c18.9,31.7,49.8,53.5,87,61.4
				c9.6,2,19.1,3.1,28.1,3.1c28.6,0,54.5-10.2,75-29.4c9.6-9,17.9-19.9,24.8-32.6c54.3,81.8,101.9,167.5,133.1,239.7
				c-12,13.7-23,27.2-28.9,42.5c-9.8-7.5-21.6-12.6-34.8-14.9c-3.6-0.6-7.4-1-11.2-1c-18.7,0-46.9,6.2-100.3,54.8
				c-15.7,14.3-32.7,31.5-49,49.6c15.7-50.8,18.9-74.1,7.4-94.9c-1-1.8-2.1-7.9-2.9-12.4c-1.8-10-4.1-22.4-10.6-35.4
				c-18.8-37.7-50.4-41.8-63.1-41.8c-20.2,0-40.8,8.6-63,26.4c-48,38.4-147.1,159.6-223.5,256.6c-17.5,1.6-35,3.2-52.1,4.8
				c-77.6,7.4-148.4,15.2-221.1,24.4c-0.2-62.5,0.9-131.4,1.8-187.6v-0.2c0.4-22.9,0.7-46.5,1-66.3c1.5-127.7,33-294.8,62-408.6
				c4.5-17.7,9.9-44.6,9.8-72.2c-0.1-32.1-7.5-58.6-21.9-78.7c-16.7-23.2-41.6-36.6-72-38.7c-1.3-0.1-2.7-0.1-4.1-0.1
				c-17.4,0-34.5,7.3-57.4,24.3c-24.1,17.9-55.9,47.9-100.3,94.4c-59.8,62.7-131.8,144.5-201.3,223.7l11.6,10.2l-11.7-10
				c-43.7,49.7-85,96.7-122.1,137.7c-95.1,104.9-235.5,261.6-361,415.6c-22.9-0.6-44.8-2.6-66.1-4.6c-22.9-2.1-44.5-4.1-65.5-4.1
				c-15.3,0-38.4,0.9-61.7,8.3c-25,8-46.3,22.3-63.2,42.4c-6.4,7.6-21.8,16.3-35.4,24.1c-20.2,11.4-41,23.2-57.4,41.7
				c-22.9,25.8-30.1,59-20.3,93.4c1.3,4.6,3,9.1,5,13.4c-8.3,2.4-16.9,5-25.9,7.6c-55.1,16.2-123.8,36.4-179.3,56.3
				c-31.8,11.4-56,21.5-73.8,30.9c-15,7.8-50,26.2-52.7,61.8c-3.4,43.9-0.4,89,8.9,133.8c7.9,38.2,20.7,77.4,37.9,116.7
				c31,70.6,71.7,130.5,101.3,174.2c10.9,16.1,20.3,29.9,27.5,41.6c14.8,24.2,39.8,37.5,70.4,37.5c33.3,0,70.1-15.4,112.7-33.2
				c9.7-4,19.7-8.2,29.7-12.2l2.1-0.8c159.4-63.8,567.3-221.3,933.5-315.3c16.3,23.5,36.5,41.5,60.1,53.7c27,13.9,51,16,62.9,16
				c4.6,0,9.1-0.3,13.3-0.9c3.7-0.5,7.2-0.8,10.3-0.8c9.5,0,14.8,2.2,23.6,6c10.2,4.3,24.3,10.2,42.6,10.2
				c16.2,0,32.6-4.7,50.2-14.2c31.8-17.4,44.2-41.2,49-58.1c7.2-25.5,2.7-54-13-82.3c-0.2-0.5-0.4-0.9-0.6-1.4
				c197.9-45.5,406.6-90.3,575.3-126.6l0.3-0.1c92.2-19.8,172-37,225.7-49.1c1.2,0.9,2.4,1.7,3.7,2.5c7.4,4.8,15.1,8.8,23.1,11.6
				c6.1,2.2,12.5,3.4,19.5,3.8c-1.1,28.4-2.3,53.1-3.2,72c-114.1,6.6-228.9,22.7-341.4,48.1c-129.7,29.2-256.5,70.7-376.8,123.3
				c-19.9,8.7-31.1,30.4-26.7,51.7c4.4,21.3,23.4,36.7,45.2,36.7h1283.6c19.6,0,37.1-12.5,43.6-31c6.4-18.5,0.4-39.2-15-51.3
				c-56.4-44.6-200-148.9-338.1-174.8c-3.2-37.3-8.3-90.1-15.5-151.3c276.5-46.8,553.9-77.4,757.4-99.8
				c129.8-14.3,223.6-24.7,267.6-33.9c41.5-8.7,56.2-36.2,56.1-59.1C3823.4,1154.5,3791,1126.7,3736.8,1115.9z M3764.3,1234.2
				c-43.3,9.1-136.8,19.4-266.2,33.6c-206.3,22.8-491.1,54.2-772.8,102.4c8.9,74.2,14.8,137.5,18.2,177.2
				c137.4,21.3,284.1,127.4,342.8,173.8c10.3,8.1,14.3,21.9,10,34.2c-4.3,12.4-16,20.7-29.1,20.7H1783.7
				c-14.6,0-27.1-10.2-30.1-24.5c-3-14.3,4.5-28.6,17.8-34.5c119.5-52.2,245.3-93.3,374.1-122.3c116.3-26.2,234.8-42.5,352.6-48.5
				c1.4-25.2,3.1-61,4.6-103c-4.5,0.7-8.6,1-12.4,1c-6.6,0-12.4-0.9-17.8-2.9c-6.8-2.5-13.5-5.9-19.9-10c-2.9-1.9-5.7-4-8.4-6.2
				c-1.7,0.4-3.5,0.8-5.2,1.2c-53.8,12.1-134.4,29.4-227.7,49.5c-173.3,37.3-390.4,83.9-593.6,130.8c2.6,6.4,5.4,12.7,8.4,19.2
				c13.9,24.9,18,49.5,11.9,71.1c-4,14.1-14.4,34-41.6,48.8c-15.2,8.3-29.2,12.3-42.8,12.3c-15.2,0-27.1-5-36.6-9
				c-9.5-4-17-7.2-29.6-7.2c-3.8,0-8,0.3-12.4,0.9c-3.5,0.5-7.2,0.7-11.2,0.7c-10.5,0-31.7-1.9-55.8-14.3
				c-23.7-12.2-43.7-31.1-59.3-56c-0.3-0.5-0.7-1.1-1-1.6c-369.8,94-784.6,254.1-946.1,318.7l-2.1,0.8c-10.1,4.1-20.2,8.3-29.9,12.3
				c-41.1,17.2-76.6,32-106.8,32c-32,0-48.8-16.4-57.2-30.2c-7.3-12-16.9-26-27.9-42.2c-29.4-43.2-69.5-102.5-100-171.8
				c-16.8-38.3-29.2-76.5-36.9-113.6c-9-43.4-11.9-87-8.6-129.5c1.8-23.9,23.5-38.3,44.5-49.3c17.2-9,40.7-18.8,71.9-30
				c55.1-19.8,123.5-39.9,178.4-56.1c16.3-4.8,31.9-9.4,45.4-13.5c-6.6-7.8-11.3-16.7-14.1-26.5c-8.4-29.6-2.6-56.9,17-79
				c14.6-16.5,34.4-27.7,53.4-38.5c15.5-8.8,31.5-17.8,39.6-27.5c33.8-40.1,78.2-45.3,113.2-45.3c20.2,0,41.5,2,64,4
				c23.9,2.2,48.6,4.5,74.7,4.7c126.2-155.3,268.4-314,365.2-420.8c37.2-41.1,78.6-88.1,122.3-137.9
				c69.5-79.1,141.4-160.8,200.9-223.3c90.9-95.2,122.5-113.9,146.6-113.9c1,0,2,0,3,0.1c25.7,1.8,46.6,13,60.6,32.4
				c12.6,17.4,19,40.9,19,69.7c0.1,26-5.1,51.5-9.4,68.4c-29.2,114.7-61,283.2-62.4,412.2c-0.2,19.5-0.6,42.2-1,66.3
				c-1,62-2.2,138.4-1.7,205.5c75.9-9.8,152.2-18.4,237.9-26.5c19.1-1.8,38.6-3.6,58.6-5.4c68.4-87.2,175.8-219.9,225.1-259.3
				c19.3-15.5,36.8-23,53.3-23c12.2,0,34.9,4.3,49.4,33.3c5.5,11,7.5,21.8,9.2,31.3c1.3,7.1,2.4,13.1,4.6,17.1
				c11,19.8,3.4,47.1-22.8,126.6c-3.8,11.6-7.5,22.9-10.8,33c7.2-9.2,13.8-17.7,19.3-24.7c23.9-30.1,53.7-62.2,79.7-85.8
				c50-45.5,75.3-50.8,89.9-50.8l0,0c2.9,0,5.8,0.2,8.5,0.7c18.5,3.2,33.4,13.1,42.9,28.4c12.3,19.8,15,47.3,8.4,86.3
				c-2.7,15.7-6.6,32.2-11,48.4c29.4-1.8,59.9-3.6,91.8-5.5c-2.3-24.4-5.1-47.3-8.7-68.2c-2.5,0.3-5,0.4-7.5,0.4
				c-20,0-39-8.7-52.1-23.8c-12.1-13.9-17.6-31.9-15.1-49.3c2.9-20,17.7-36.6,34.8-55.9c0.2-0.2,0.4-0.5,0.6-0.7
				c-38.6-92-98.8-194-154-274.5c-0.6,1.7-1.2,3.5-1.8,5.2c-7.4,19.7-17.7,35.9-30.6,48c-17.5,16.5-39.8,25.2-64.4,25.2
				c-8,0-16.4-0.9-24.9-2.7c-33-7-60.3-26.2-77-54.2c-15.1-25.3-19.8-55.4-13.1-83.2c-0.8,0-1.6-0.1-2.4-0.2
				c0.5,6.5-1,13.1-4.5,18.7l-32.1,51.7c-5,8.1-13.2,13-22,14.2c0.9,1.4,1.8,2.7,2.8,3.8c6.2,6.8,9,16,7.7,25.1l-3.7,26
				c-1.4,10-7.7,18.7-16.7,23.2c-0.8,0.4-1.6,0.8-2.5,1.1c1.7,2.9,3.6,5.7,5.8,8.2c5.2,5.9,8,13.6,7.8,21.5l-2.1,62.9
				c-0.3,9-4.6,17.5-11.6,23.1c-5.5,4.3-12.2,6.6-19.1,6.6c-2,0-4-0.2-6-0.6c-32.4-6.5-63.5-28.3-87.4-61.3
				c-24.8-34.3-39.6-77.4-42.8-124.6c-3.3-48,6-91.1,18.5-125.7c-2.3,0.5-4.6,0.8-7,0.8c-2,0-4.1-0.2-6.1-0.6
				c1.4,6.9,0.4,14.1-2.9,20.4l-36.3,69.3c-4.2,8.1-11.8,13.8-20.6,15.8c-1.1,0.3-2.3,0.4-3.4,0.6c0.8,1.6,1.7,3.3,2.6,5
				c3.6,6.8,4.6,14.7,2.7,22.1l-16.5,64.7c-2.7,10.7-11,19.1-21.6,22.1c-2.7,0.7-5.5,1.1-8.2,1.1c-8,0-15.9-3.1-21.7-9
				c-33.6-33.4-58.2-79.6-69.1-129.8c-11.3-51.7-8.2-104.8,8.9-153.4c15.8-44.9,33.5-80.2,55.8-111.2c21.3-29.6,47.8-56.4,80.8-81.6
				c2.4-46,31.1-86,76.9-104.9c28.2-11.6,56.2-17.5,83.3-17.5c28.7,0,56.7,6.6,83.7,19.6c2.3-15.4,7-31.9,16.4-47.6
				c21.7-36.4,62.4-58.4,121.1-65.4c20-2.4,38.8-3.6,55.8-3.6c46.8,0,83,9.1,107.6,27.1c11.8,8.6,20.9,19.2,26.9,31.1
				c26.7,0.5,63.7,5.4,97.3,24.4c33.9,19.1,58,49.3,70.4,87.7c56.2,27.3,109,55.3,150.7,111.5c40.9,55.1,49.7,127.4,25.4,209.1
				c-3.3,11.1-12.5,19.4-23.9,21.5c-1.9,0.3-3.7,0.5-5.6,0.5c-9.5,0-18.6-4.4-24.5-12.1l-51-66.9c-3-4-5-8.6-5.8-13.4
				c-3.1,1-6.3,1.5-9.5,1.5c-6.4,0-12.8-2-18.3-6c-1.5-1.1-3.1-2.3-4.8-3.5c15.9,86.8,19.8,159.1-27.4,223.9
				c-5.8,8-15.1,12.7-24.9,12.7c-1.7,0-3.4-0.1-5.1-0.4c-0.8-0.1-1.5-0.3-2.2-0.5c12.6,19.9,24,39.6,34.5,58.9
				c40.5-30.2,90.1-46.5,144-47.3c1.3,0,2.6,0,3.9,0l0,0c46.7,0,85.3,11.4,114.7,33.9c28.9,22,46.7,53.4,51.5,90.6
				c7.1,55,1.3,102.7-18.1,150.1c-12.9,31.5-30.7,61-52.6,94.1c57-1.6,112.7-2.4,166.8-2.4c24.2,0,48.1,0.2,71.8,0.5
				c126.3-34.2,262.3-59.7,282.5-61.1c6.9-0.5,13.4-0.7,19.3-0.7c13.5,0,24.2,1.3,32.8,3.9c23,7,28.7,23.4,30.1,30.2
				c2.3,11.4,0.5,28.5-21.5,45.2c34.7,3.3,68.5,7,101.2,11.1c123.2,15.6,198.1,33.1,234.1,41.5c6.9,1.6,12.4,2.9,15.7,3.6
				c46.4,9.3,74.2,31.4,74.3,59.2C3808.2,1198.3,3805.1,1225.7,3764.3,1234.2z M2425.9,1062.8c2.6-10.7,4.5-20.3,6-29.2
				c1.5-9.1,2.6-17.7,3.2-25.8c12.1,7.9,26.1,12.7,40.7,13.6c1.8,11.9,3.4,24.6,4.8,38.1C2461.8,1060.6,2443.5,1061.7,2425.9,1062.8
				z"/>
			<path class="st0" d="M2483.1,1219.7c30.1-29,69.4-66.8,117.4-121c-0.1,0-0.2,0-0.3,0c-72.9,4.2-140.4,8.2-203.3,12
				c-0.7,2.4-1.4,4.8-2.1,7.2c-5.2,17.7-32.6,98.2-39,116.9c3.5-1.1,7.4-1.7,11.5-1.7c7.2,0,17.9,2,28.7,11.6
				c16.2,14.5,20.7,36.7,12,59.3c-10.4,27.1-36.9,51.1-51.8,62.9c-15.1,12.1-44,32.3-67.9,32.3c-6,0-11.8-1.2-16.9-3.6
				c-1.1,0.2-2.4,0.5-3.4,0.8c-5.9,1.4-13.3,3.2-22,3.2c-13.7,0-33.4-4.7-49.8-27c-28.1-38.2-19.8-85.6,8.4-156.5
				c-63.3,90.7-104.4,145.4-157.3,158c-3.9,0.9-7.8,1.4-11.8,1.4c-11.1,0-22.2-3.5-32.9-10.4c-27-17.2-41.1-49.6-35.9-82.6
				c4.7-29.5,14-85.3,24.5-127.1c1.5-5.9,3-11.9,4.5-18c-3,0.2-6.1,0.5-9.1,0.7c-102.3,131.7-191.3,271.2-245.5,356.2
				c-3.3,5.1-6.4,10.1-9.4,14.8c-7.3,11.4-18.5,19.5-31.5,22.9c-14,3.6-25.4,6.1-37,8c-2.9,0.5-5.9,0.7-8.8,0.7
				c-29.6,0-53.7-23.8-53.9-53c-0.1-19.4,3-33.8,9.7-45.2c7.3-12.4,17.4-18.6,24.1-22.7c5.9-3.6,8.6-5.2,12.2-11.7
				c17.5-31.6,98.6-142.7,187.5-257.2c-98.4,9-184.2,18.6-270.2,29.7c0.3,18.7,0.8,36.3,1.5,52.2c12.4,4.6,23.5,10.9,32.8,18.8
				c16.9,14.3,26.6,33,27.6,52.7c1.2,24.8-7.5,46-25,61.1c-8.4,7.3-17.8,12.3-26.7,16.1c4.1,76.2,11.9,135.9,32.6,195.8
				c312.2-72.1,658.1-143.9,814.7-178.9c-7.5-12.3-12.4-26.3-14.4-41.1c-4.2-32.3,5.8-64.8,27.6-89.1
				C2447.6,1253.9,2464.1,1238,2483.1,1219.7z"/>
			<path class="st0" d="M3330.7,1068.6c50.8-21.8,60.8-42.2,10.8-42.2c-5.1,0-10.8,0.2-17.1,0.7c-22.4,1.6-215.9,38.4-355.1,83.2
				c-158.4,51-367.9,140.8-367.9,140.8s100.8-100.1,139.2-156.8c70.4-104,115.2-163.2,100.8-275.1c-7.3-56.7-53.1-97.6-135.7-97.6
				c-1.2,0-2.3,0-3.5,0c-115.2,1.6-172.4,79.7-188.8,118.4c-17.6,41.6-65.6,75.2-68.8,97.6c-2.8,19.5,15.2,38,36.8,38
				c4.7,0,9.6-0.9,14.4-2.8c24-9.6,68.8-94.4,142.4-105.6c7.2-1.1,13.9-1.6,20.1-1.6c92.2,0,82.4,115-0.9,214.4
				c-96.9,115.6-163.2,168.1-200,209.2c-31.2,34.9-27,90.9,12.1,116.6c4.4,2.9,8.9,5.2,13.5,6.9c2,0.7,4.4,1.1,7.3,1.1
				c49.1,0,229.1-99.1,405.4-170.6C3065.2,1174.2,3296.8,1083.1,3330.7,1068.6z"/>
			<path class="st0" d="M3727.8,1161.2c-27.8-5.6-151.1-40.2-395.7-59.8c-25,10.2-78.5,31.6-143.7,57.5
				c-85.6,34.1-192.1,76.5-281.2,112.6c-46.6,18.9-93.6,39.8-138.4,60.3c443.7-72.9,883.7-105.6,989.1-127.7
				C3795,1196.4,3775.8,1170.8,3727.8,1161.2z"/>
			<path class="st0" d="M2715.1,1575.4c-2.3-30.2-8.7-106.3-19.9-199.9c-11.2,2-22.4,4-33.6,6c-56.3,25.9-97.4,44-127.7,53.9
				c-2.2,65.2-5.1,116.9-6.6,140.3c-248.1,9.2-504,65-743.5,169.5h1283.6c-89.2-70.5-230-159.5-348-169.9L2715.1,1575.4
				L2715.1,1575.4z"/>
			<path class="st0" d="M2686.2,969.8c7.9-24.6,9-46.1,3-59c-1.9-4-6.8-14.5-30.8-14.5c-4.8,0-10,0.4-15.5,1.3
				c-4.1,0.6-8.2,1.6-12.1,2.9c12,32.8,23.5,71.4,34.3,115.6C2674.2,1000.3,2681.4,984.7,2686.2,969.8z M2658.3,911.7
				c9.6,0,13.6,2.1,14.9,3c1.1,0.8,1.4,1.4,2,2.7c3.3,7.2,4.1,23.5-3.7,47.7c-0.7,2.1-1.4,4.3-2.2,6.5c-5.9-21.4-12-41.3-18.2-59.5
				C2653.7,911.8,2656.1,911.7,2658.3,911.7z"/>
			<path class="st0" d="M2549.5,964.6c-11.9,13.2-21.3,23.7-31.3,30.7c4.1,23.4,7.4,49.3,10,77c22.8-1.3,46.1-2.7,70.2-4.1
				c10-0.6,20-1.1,30-1.6c1.8-2.1,3.6-4.3,5.4-6.4c2.7-3.2,5.2-6.4,7.7-9.6c-11.4-49.8-24.2-96.4-38.6-136.3
				C2582.1,928.3,2564.1,948.3,2549.5,964.6z"/>
		</g>
	</g>
</g>
</svg>
