<?xml version="1.0" encoding="utf-8"?>
<!-- Generator: Adobe Illustrator 25.0.0, SVG Export Plug-In . SVG Version: 6.00 Build 0)  -->
<svg version="1.1" id="Layer_1" xmlns="http://www.w3.org/2000/svg" xmlns:xlink="http://www.w3.org/1999/xlink" x="0px" y="0px"
	 viewBox="0 0 3839 1394.4" style="enable-background:new 0 0 3839 1394.4;" xml:space="preserve">
<style type="text/css">
	.st0{fill:#FFFFFF;}
	.st1{fill:#FFE850;}
	.st2{fill:#0057A6;}
</style>
<g>
	<g>
		<g>
			<path class="st0" d="M3126.6,0l-223,290.6L2680.6,0L2279,0c-86.2,0-156,69.9-156,156l0,31.8h-107.6
				C2003.4,82.3,1913.6,0,1804.9,0H980L417.3,0c-73.9,0-141.8,16.4-201.9,48.8c-60.7,32.8-111,81.6-145.4,141.3
				C1.7,308.5,1.7,461.3,70,579.7c0.4,0.8,0.9,1.5,1.3,2.3H0v492.3h747.5c149.6,0,245.9-59.5,302.3-113.1h119.7v113.1h492.3v-47.3
				c0-36.4,29.5-65.8,65.8-65.8h802.1c36.4,0,65.8,29.5,65.8,65.8v46.7h419.8L3839,0H3126.6z M2974.2,990.4h-295.5v-46.7
				c0-36.4-29.5-65.8-65.8-65.8h-968.5c-36.4,0-65.8,29.5-65.8,65.8V991h-325.9V877.9h-238.5c-4.7,5.4-9.5,10.7-14.6,15.9
				c-43.7,44.4-123,97.3-252.1,97.3H83.2V665.2h210.3c-64.4-24-117-67.5-151.4-127.1c-53.7-93-53.7-213.3,0-306.3
				c54.5-94.4,154.8-148.5,275.3-148.5l562.7,0h824.8c71.1,0,128.7,57.6,128.7,128.7V271h272.6l0-115c0-40.2,32.6-72.8,72.8-72.8
				l360.6,0l264,344.1l264-344.1h502.6L2974.2,990.4z"/>
			<polygon class="st0" points="2583.9,631.1 2584.8,631.1 2583.9,629.8 			"/>
		</g>
		<rect x="1763.4" y="489.1" class="st0" width="708" height="159.5"/>
		<path class="st0" d="M1804.9,166.4H980v45.5c0-25.1-20.4-45.5-45.5-45.5l-517.3,0c-310.1,0-310.1,437,0,437v0h330.2
			c96.6,0,96.6,145,0,145H166.4v159.5h581.1c342.9,0,342.9-463.9,0-463.9H417.3v0c-83,4.1-91.7-126.9,0-131c0,0,0,0,0,0H980h355.8
			v594.9h159.5V312.9h355.1v-101C1850.3,186.8,1830,166.4,1804.9,166.4z"/>
		<polygon class="st0" points="3250,166.4 2903.6,617.8 2557.2,166.4 2305.7,166.4 2874.1,907.2 2933.2,907.2 3501.6,166.4 		"/>
	</g>
	<g>
		<path class="st0" d="M85.5,1281.7c39.9,9.7,60.7,24,60.7,55.6c0,35.6-27.8,56.6-67.4,56.6c-28.9,0-56.1-10-78.8-30.2l20-23.7
			c18.1,15.6,36.1,24.5,59.6,24.5c20.5,0,33.4-9.4,33.4-24c0-13.8-7.6-21-42.6-29.1c-40.2-9.7-62.8-21.6-62.8-56.6
			c0-32.9,27-55,64.5-55c27.5,0,49.4,8.4,68.5,23.7l-17.8,25.1c-17-12.7-34-19.4-51.2-19.4c-19.4,0-30.7,10-30.7,22.7
			C40.7,1266.6,49.4,1273,85.5,1281.7z"/>
		<path class="st0" d="M325.3,1232H218.5v49.1h94.7v29.7h-94.7v50.7h108.1v29.7H185.3v-188.8h140V1232z"/>
		<path class="st0" d="M455.5,1394.4c-59.1,0-97.9-42.1-97.9-97.4c0-53.1,40.5-97.9,97.4-97.9c32.9,0,53.1,9.2,72.5,25.6l-21,25.1
			c-14.6-12.4-28.9-20.2-52.9-20.2c-34.8,0-61.2,30.2-61.2,66.9c0,39.1,25.6,67.7,64.2,67.7c17.8,0,34-5.7,45.6-14.3v-35.3h-48.3
			v-28.9h80.4v79.3C515.7,1380.9,489,1394.4,455.5,1394.4z"/>
		<path class="st0" d="M758.1,1391.2h-35.1l-19.1-45.6h-89.3l-19.4,45.6h-34l83.1-190.1h30.7L758.1,1391.2z M659.2,1240.7
			l-32.4,75.5h65L659.2,1240.7z"/>
		<path class="st0" d="M1005.5,1202.4h35.9l-78.5,190.1h-29.1l-78.5-190.1h36.7l56.9,145.1L1005.5,1202.4z"/>
		<path class="st0" d="M1108.8,1202.4v188.8h-33.2v-188.8H1108.8z"/>
		<path class="st0" d="M1229.6,1391.2h-70.4v-188.8h70.4c59.3,0,100.3,40.7,100.3,94.1C1329.9,1349.9,1288.9,1391.2,1229.6,1391.2z
			 M1229.6,1232.6h-37.2V1361h37.2c39.6,0,65.5-26.7,65.5-63.9C1295.1,1259.8,1269.2,1232.6,1229.6,1232.6z"/>
		<path class="st0" d="M1510.1,1232h-106.8v49.1h94.7v29.7h-94.7v50.7h108.2v29.7h-141.3v-188.8h140V1232z"/>
		<path class="st0" d="M1640.9,1394.4c-58,0-98.4-44-98.4-97.4c0-53.4,41-97.9,99-97.9c58,0,98.4,44,98.4,97.4
			C1739.9,1349.9,1698.9,1394.4,1640.9,1394.4z M1640.9,1229.6c-37.5,0-63.6,29.9-63.6,66.9s26.7,67.4,64.2,67.4
			c37.5,0,63.6-29.9,63.6-66.9S1678.4,1229.6,1640.9,1229.6z"/>
		<path class="st0" d="M1950.5,1394.4c-59.1,0-97.9-42.1-97.9-97.4c0-53.1,40.5-97.9,97.4-97.9c32.9,0,53.1,9.2,72.5,25.6l-21,25.1
			c-14.6-12.4-28.9-20.2-52.9-20.2c-34.8,0-61.2,30.2-61.2,66.9c0,39.1,25.6,67.7,64.2,67.7c17.8,0,34-5.7,45.6-14.3v-35.3h-48.3
			v-28.9h80.4v79.3C2010.7,1380.9,1984,1394.4,1950.5,1394.4z"/>
		<path class="st0" d="M2253.1,1391.2h-35.1l-19.1-45.6h-89.3l-19.4,45.6h-34l83.1-190.1h30.7L2253.1,1391.2z M2154.1,1240.7
			l-32.4,75.5h65L2154.1,1240.7z"/>
		<path class="st0" d="M2378.3,1344.8h-1.1l-59.1-88.5v134.9h-32.6v-188.8h35.3l57.4,89.3l57.4-89.3h35.3v188.8h-33.2v-135.4
			L2378.3,1344.8z"/>
		<path class="st0" d="M2659.6,1232h-106.8v49.1h94.7v29.7h-94.7v50.7h108.2v29.7h-141.3v-188.8h140V1232z"/>
		<path class="st0" d="M2854,1281.7c39.9,9.7,60.7,24,60.7,55.6c0,35.6-27.8,56.6-67.4,56.6c-28.9,0-56.1-10-78.8-30.2l20-23.7
			c18.1,15.6,36.1,24.5,59.6,24.5c20.5,0,33.4-9.4,33.4-24c0-13.8-7.6-21-42.6-29.1c-40.2-9.7-62.8-21.6-62.8-56.6
			c0-32.9,27-55,64.5-55c27.5,0,49.4,8.4,68.5,23.7l-17.8,25.1c-17-12.7-34-19.4-51.2-19.4c-19.4,0-30.7,10-30.7,22.7
			C2809.3,1266.6,2817.9,1273,2854,1281.7z"/>
		<path class="st0" d="M3034.7,1391.2h-33.4v-74.4l-75-114.4h39.1l52.9,83.6l53.4-83.6h38l-75,113.5V1391.2z"/>
		<path class="st0" d="M3202.2,1281.7c39.9,9.7,60.7,24,60.7,55.6c0,35.6-27.8,56.6-67.4,56.6c-28.9,0-56.1-10-78.8-30.2l20-23.7
			c18.1,15.6,36.1,24.5,59.6,24.5c20.5,0,33.4-9.4,33.4-24c0-13.8-7.6-21-42.6-29.1c-40.2-9.7-62.8-21.6-62.8-56.6
			c0-32.9,27-55,64.5-55c27.5,0,49.4,8.4,68.5,23.7l-17.8,25.1c-17-12.7-34-19.4-51.2-19.4c-19.4,0-30.7,10-30.7,22.7
			C3157.5,1266.6,3166.1,1273,3202.2,1281.7z"/>
		<path class="st0" d="M3377.8,1391.2h-33.4v-158h-59.9v-30.7h153.2v30.7h-59.9V1391.2z"/>
		<path class="st0" d="M3612.7,1232h-106.8v49.1h94.7v29.7h-94.7v50.7h108.1v29.7h-141.3v-188.8h140V1232z"/>
		<path class="st0" d="M3746.2,1344.8h-1.1l-59.1-88.5v134.9h-32.6v-188.8h35.3l57.4,89.3l57.4-89.3h35.3v188.8h-33.2v-135.4
			L3746.2,1344.8z"/>
	</g>
</g>
</svg>
