<?xml version="1.0" encoding="utf-8"?>
<!-- Generator: Adobe Illustrator 25.0.0, SVG Export Plug-In . SVG Version: 6.00 Build 0)  -->
<svg version="1.1" id="Layer_1" xmlns="http://www.w3.org/2000/svg" xmlns:xlink="http://www.w3.org/1999/xlink" x="0px" y="0px"
	 viewBox="0 0 3839 2633.2" style="enable-background:new 0 0 3839 2633.2;" xml:space="preserve">
<style type="text/css">
	.st0{fill:#FFFFFF;}
	.st1{fill:#AA9644;}
	.st2{fill:#199A40;}
	.st3{fill:#F4134B;}
	.st4{fill:#D4BF7C;}
	.st5{fill:url(#SVGID_1_);}
	.st6{fill:url(#SVGID_2_);}
	.st7{fill:url(#SVGID_3_);}
	.st8{fill:url(#SVGID_4_);}
	.st9{fill:url(#SVGID_5_);}
	.st10{fill:url(#SVGID_6_);}
	.st11{fill:url(#SVGID_7_);}
	.st12{fill:url(#SVGID_8_);}
	.st13{fill:url(#SVGID_9_);}
	.st14{fill:url(#SVGID_10_);}
	.st15{fill:url(#SVGID_11_);}
	.st16{fill:url(#SVGID_12_);}
	.st17{fill:none;stroke:#000000;stroke-width:37.6374;stroke-miterlimit:10;}
	.st18{fill:none;stroke:#FFFFFF;stroke-width:37.6374;stroke-miterlimit:10;}
</style>
<g>
	<g>
		<g>
			<g>
				<path class="st0" d="M952,1000.7l24.4-95.9c2.3-9.1,1.1-18.8-3.3-27.1c-3.8-7.1-7.1-13.7-9.9-19.9c2.8,0.6,5.6,1,8.4,1
					c2.7,0,5.4-0.3,8.1-0.9c10.9-2.4,20.1-9.5,25.3-19.3l53.8-102.9c4.9-9.3,5.6-20.3,2.1-30.2c-1.3-3.6-2.4-7.1-3.5-10.4
					c6.6,4.7,14.2,7,21.9,7c8.8,0,17.6-3.1,24.6-9.2c0.2-0.2,0.4-0.3,0.6-0.5c-21.7,53.4-39.7,123.3-34.3,202.5
					c4.7,68.5,26.1,131,62,180.7c34.3,47.4,78.6,78.6,124.8,87.9c2.4,0.5,4.9,0.7,7.4,0.7c8.4,0,16.7-2.8,23.4-8.1
					c8.7-6.9,13.9-17.2,14.2-28.2l3.2-93.4c0.3-9.7-3.1-19.1-9.5-26.3c-5.8-6.6-10.6-14.4-14.3-22.6c4-0.5,8-1.7,11.8-3.6
					c11.1-5.5,18.7-16.1,20.5-28.4l5.5-38.5c1.6-11.1-1.9-22.4-9.5-30.7c-4.4-4.8-8.1-11.5-11.1-19.2c2.3,0.4,4.5,0.6,6.8,0.6
					c12.6,0,24.9-6.3,32-17.8l47.7-76.6c5.1-8.2,6.9-18,4.9-27.5c-0.5-2.3-0.9-4.7-1.3-7c4.8,2.1,9.9,3.2,15.1,3.2
					c3.1,0,6.2-0.4,9.3-1.2c-0.4,1.2-0.7,2.4-1.1,3.5c-12.2,41.4-6.1,86.9,16.6,125c23.6,39.6,62.3,66.8,109,76.7
					c12.1,2.6,24,3.9,35.4,3.9c61.1,0,108.5-36.7,133.5-103.4c2.8-7.6,5.2-15.4,7-23.6c65.5,94.2,136.9,210.4,193.5,324.1
					c0.6-0.3,1.2-0.7,1.7-1c7.3-4.3,14.5-8.7,21.4-13.6c2.9-2.1,5.7-4.3,8.4-6.7c-82.9-165.5-194.9-333.1-275.2-433.6
					c17.2,40.3,25,95.5,7.9,141.2c-14.5,38.7-43.1,79-98.2,79c-8.5,0-17.7-1-27.5-3.1c-78.3-16.6-115.7-91.6-97.3-154.3
					c10.4-35.3,33.5-66.9,61.2-89.2c-41.3,13.3-82.6,28.3-105.5,38.5l-55.4-53.8c0,0-6.3,49.1,4.7,102.8l-47.7,76.6l-57.4-33.7
					c0,0,0.7,78.9,33.9,115.3l-5.5,38.5l-46.8-25.8c0,0,0,68,38,110.8l-3.2,93.4c-71.2-14.2-147.7-102.4-156.7-234.2
					c-11.1-163,87-284.8,87-284.8s-57,6.3-115.5,57l-66.5-47.5c0,0-9.5,39.6,12.7,101.3l-53.8,102.9l-61.7-47.5
					c0,0-15.8,36.4,30.1,121.8l-24.4,95.9c-89.2-88.8-125-240.3-78.4-372.8c41.1-117.1,94.9-199.4,205.7-278.5
					c-6.3-63.3,31.6-113.9,85.4-136.1c38.5-15.9,73.9-22.5,106.3-22.5c68.1,0,123,29.3,165.9,63.6c3.2-57-19-180.4,167.7-202.5
					c29.1-3.5,54.8-5,77.5-5c135.1,0,163.5,54.8,166.2,87.3c8.3-0.6,17-1,25.9-1c83.2,0,189.2,30,217.8,152.9
					c91.8,44.3,166.9,81.6,225.5,160.6c72.8,98.1,46.7,216,30.6,270.2l-75.7-99.3c7.1-42.7-15.9-88.2-15.9-88.2s-29.2,36-43.2,52.7
					c-32.4-23.9-97.5-64.2-99.9-64.2c0,0,0,0-0.1,0c35.6,173.3,64.1,296.7-11.9,401.1l-16.6-54.6c2.4-38,11.9-102.1,11.9-102.1
					l-52.2,47.5l-26.1-30.9c21.4-42.7,13.5-106.8,13.5-106.8l-68,52.2l-33.2-34.8c7.9-45.9-12.7-98.1-12.7-98.1l-50.6,61.7
					c-28.8-11.7-66.3-18.3-111.4-18.3c-4.6,0-9.3,0.1-14.1,0.2c0.8,0.8,1.5,1.5,2.3,2.3c158.1,133.3,263,271.3,336.1,396.6
					c10.5-6.8,21.3-13.2,32.3-19.3c-8.2-14-16.7-28.1-25.7-42.4c-39.4-62.8-84.1-123.4-132.7-180.1c-30.2-35.2-62.4-69.5-96.4-102.6
					c3.2,0.9,6.5,1.3,9.7,1.3c9.9,0,19.6-3.9,26.7-11.1c-0.1,1.2-0.3,2.3-0.5,3.5c-2,11.7,1.6,23.8,9.9,32.4l33.2,34.8
					c7.4,7.7,17.3,11.7,27.2,11.7c8,0,16.1-2.6,22.9-7.8l1.9-1.4c-1.1,3.3-2.4,6.4-3.8,9.3c-6.7,13.5-4.8,29.7,4.9,41.1l26.1,30.9
					c6.6,7.8,16.1,12.6,26.3,13.2c0.8,0.1,1.6,0.1,2.5,0.1c1.3,0,2.6-0.1,3.9-0.2c-0.5,5.2-0.8,10.2-1.1,14.8
					c-0.3,4.5,0.2,9,1.6,13.3l16.6,54.6c4.2,13.7,15.7,23.8,29.8,26.2c2.1,0.4,4.2,0.5,6.3,0.5c11.9,0,23.3-5.7,30.4-15.5
					c39-53.7,56.6-114.6,55.1-191.6c-0.9-47.4-8.7-97.9-19.5-153.5c8.6,5.8,16.7,11.4,23.3,16.3c6.7,5,14.6,7.4,22.4,7.4
					c7.7,0,15.3-2.4,21.8-6.9c-1.3,9.8,1.4,19.8,7.4,27.7l75.7,99.3c7.2,9.4,18.3,14.8,29.9,14.8c2.3,0,4.5-0.2,6.8-0.6
					c13.9-2.6,25.3-12.7,29.3-26.3c35.2-118.8,22.6-223.6-36.5-303.3c-61.6-83-140.1-124-223.8-164.6c-8.3-27-20.4-51.2-36.3-72.1
					c-17.5-23-39.5-42.1-65.5-56.8c-50.5-28.5-106.6-35-145.5-35.2c-7-15.6-19-32.7-39.5-47.6C1765.4,13,1713.3,0,1645.6,0
					c-24.9,0-52.5,1.8-81.9,5.3c-43.8,5.2-80.9,16.1-110.2,32.5c-27.3,15.3-48.7,35.7-63.6,60.6c-15.4,25.9-21.9,53.6-24.6,78.6
					c-7.8-4.1-15.7-7.8-23.8-11.2c-34.5-14.5-70.5-21.9-107-21.9c-39.2,0-79.8,8.5-120.6,25.3c-66.2,27.3-107.4,85.6-109.4,152.3
					C954.9,359,915.1,399,883.3,443.1c-32.6,45.3-58.5,97.1-81.7,163c-24.9,70.8-29.4,148-13,223.3c7.9,36.2,20.4,70.7,37.2,102.5
					c17.2,32.6,38.4,61.6,63.2,86.2c7.1,7.1,16.7,11,26.5,11c3.3,0,6.7-0.4,10-1.4C938.6,1024.1,948.7,1013.8,952,1000.7z"/>
				<path class="st0" d="M2200.3,1390c12.7-1,25.5-2.5,38.4-2.7c-12-42.5-24.4-80.7-37.2-114.4c-7.6-20-16.1-41.6-25.6-64.6
					c-11.5,5-22.9,10.3-34.5,15c9.1,22,17.4,43.1,25,63C2178.3,1318,2189.6,1352.8,2200.3,1390z"/>
				<path class="st0" d="M2040,1389c-0.1-0.5-0.2-1-0.3-1.4c-6.5-29.3-15.8-60.5-27.2-92.7c-0.5,0.3-0.9,0.7-1.4,1
					c-8.1,5.8-16.5,11.2-25.1,16.2c-2.1,1.2-4.2,2.4-6.3,3.5c8.6,25.1,15.8,49.3,21.3,72.3C2014.1,1388.1,2027.1,1388.3,2040,1389z"
					/>
				<path class="st0" d="M2038.6,2019.6c10.5,4.9,21.4,8.9,32.4,12.7c0.6-20.7,1.1-42.1,1.5-64.1c-12.6-0.2-25.1-0.2-37.7,0.4
					c-0.3,16.5-0.7,32.8-1.1,48.7C2035.4,2018,2037,2018.8,2038.6,2019.6z"/>
				<path class="st0" d="M2338.8,2056.4c5.3-0.4,10.7-1,16-1.9c-4.5-41.1-9.8-85.4-15.8-131.9c-12.2,3.3-24.5,6.3-36.7,9.4
					c5.6,44.1,10.6,86.2,14.9,125.3C2324.4,2057.3,2331.6,2057,2338.8,2056.4z"/>
				<path class="st0" d="M2884.9,2506.6c-55.9-44.2-144.3-108.3-247.8-163.2c-72.5-38.4-140.3-65.7-202.6-81.7
					c-0.7,0.1-1.4,0.3-2,0.4c-17.2,3.5-34.7,5.2-52.2,6.7c-14.1,1.2-28.2,2.3-42.3,4.2c0.3,4,0.6,7.7,0.9,11h6.5
					c175.1,15.4,384.1,147.5,516.4,252.1H956.8c201.5-88,410.8-152.7,621.4-194.7c-1.9-2.7-3.5-5.6-5.1-8.5c-2.2-4.2-4-8.7-5.8-13.1
					c-1.8-4.3-3.8-9.1-6.4-13.3c-21.9,4.4-43.8,9.1-65.6,14c-190.5,43-376.8,103.9-553.6,181.1c-16.3,7.1-25.4,24.7-21.8,42.2
					c3.6,17.4,19,29.9,36.8,29.9h1904.7c16,0,30.3-10.1,35.6-25.3C2902.4,2533.4,2897.5,2516.6,2884.9,2506.6z"/>
			</g>
		</g>
		<g>
			<path class="st0" d="M1883.9,1984c3.9,0.5,7.8,1.2,11.6,2.1c16.1,3.7,31.4,10.2,46.8,16.1c4.9,1.9,9.9,3.7,14.9,5.4
				c231.9-47.9,454.4-82.2,664.2-107.1c-3.7-10.2-10.8-19-18.5-26.4c-3.1-3-6.4-5.8-9.9-8.4c-136.9,16.5-278.6,37-424.3,62.6
				C2073.1,1945,1978.1,1963.7,1883.9,1984z"/>
			<path class="st0" d="M1532.2,1392.3c0,0.5-0.1,0.9-0.2,1.4c-1.4,10.4-5.3,20.4-9.3,30.1c-1,2.4-2,4.8-3,7.1
				c45.4-4.2,91.2-7.9,137.2-11c0.3-0.3,0.6-0.6,0.9-0.8c4.7-4.4,9.5-8.6,14.5-12.6c4.5-3.6,9-7.1,13.3-10.9
				c4.4-3.9,8.7-8.1,12.1-13c0.7-0.9,1.3-1.9,1.9-2.9C1643.5,1383.1,1587.7,1387.3,1532.2,1392.3z"/>
			<path class="st0" d="M199.3,2588.8c-16.7,8.7-36.1,9-53.1,0.7c-17.2-8.3-29-23.9-32.5-42.7c-0.5-2.6-49-256.9-60.9-335.6
				c-18.1-118.7-20.2-262.9-5.4-358.9c5.9-38.3,30.3-70.2,65.2-85.5c316.6-138,689-238.9,1093.4-298.6c6.4-7.2,13.3-13.9,19.7-21.1
				c3.9-4.5,7.7-9.2,10.6-14.3c1.2-2.2,2.4-4.5,3.2-7c-36,5.1-71.9,10.4-107.6,16.1c-386.1,61.8-734,159.5-1034.2,290.4
				c-46.8,20.4-79.5,63.1-87.4,114.2c-15.4,99.3-13.2,248.1,5.4,370.3c12.1,79.4,60.7,334.4,61.2,336.9
				c5.7,30.6,25.1,55.9,53.1,69.5c13.5,6.6,27.9,9.8,42.3,9.8c15.3,0,30.5-3.7,44.6-11.1c427.9-223.5,849.6-382,1251.2-495.3
				c0.3-2.2,0.8-4.4,1.5-6.6c1.7-5.3,4.5-9.9,7.9-14.3c3.8-5,7.9-9.8,12.1-14.5c3.9-4.5,7.9-8.9,11.7-13.5
				c-95.5,26.3-189.7,54.4-282.3,84.2C866.9,2275.8,523.8,2419.3,199.3,2588.8z"/>
			<path class="st0" d="M2212.7,1368.4c-112.1-2-223.5-1.2-334.1,2.5c0.2,0.5,0.4,0.9,0.5,1.4c2.6,8.1,2.7,16.9,2.9,25.3
				c0.1,3.5,0.1,7.2,0.2,10.8c69.9-2.3,140.2-3.5,211-3.5c39.5,0,79.1,0.4,118.9,1.1c35,0.6,69.9,1.6,104.6,2.8
				c0.6-0.7,1.3-1.4,1.9-2.1c10.4-11.2,22-22,31.4-34.3C2304.4,1370.6,2258.7,1369.3,2212.7,1368.4z"/>
			<path class="st0" d="M3803.5,1685.4c-140.6-88.4-362.3-164.8-641.4-220.8c-193.4-38.8-408.3-66.7-633.4-82.3
				c-0.4,1.2-0.8,2.4-1.3,3.5c-4.3,11.3-9.4,22.2-14.7,33.1c228.3,15.4,446.3,43.3,641.9,82.6c274.6,55.2,492,129.8,628.7,215.8
				c17.6,11,20,29,16.5,42.2c-3.6,13.2-14.8,27.6-35.6,28.3c-22,0.8-44.4,1.6-67.2,2.4c-230,8.1-510,17.9-823.8,46
				c-0.2,1.4-0.4,2.9-0.6,4.3c-1.9,11.5-4.9,22.8-6.4,34.3c316.2-28.9,597.8-38.8,832.2-47c22.8-0.8,45.3-1.6,67.3-2.4
				c34-1.2,61.7-23.3,70.6-56.2C3845.1,1736.4,3832.2,1703.5,3803.5,1685.4z"/>
		</g>
		<g>
			<path class="st0" d="M1677.6,2401.9c-23.2,0-48.7-8.2-74.7-24.7l-0.6-0.4c-39.1-21.8-58.6-64.7-74.3-99.1
				c-6.9-15.2-13.5-29.6-19.3-35.9c-33.9-37.4-63.8-78-52.6-121.5c11.9-46,66.6-83.3,177.4-121.1c75.8-25.8,160.9-34.3,260-25.9
				c84.6,7.1,165,25.1,235.9,41c68.5,15.3,127.6,28.6,167.2,26.3l0.7,0l0.7,0c0.7,0,73.3,0.7,147.7-16.3
				c64.9-14.8,144.8-46.4,157-112.9c2.4-13-1.7-19.2-5.5-23.2c-11.5-12-44.5-25.6-135.9-22c-67.8,2.7-145.5,13.6-214,23.3
				c-50.5,7.1-94.1,13.3-122.2,14.3c-4.4,0.2-8.7,0.2-12.9,0.2c-135.7,0-197.1-80.6-209.2-157.8c-4.9-31.4-1.8-63.2,8.7-89.5
				c11.6-29,31.1-48.7,54.9-55.4c79.9-22.5,208-95.6,326.1-186.3c63.8-49,89.1-136.8,53.1-184.3c-20.8-27.5-59.4-36.8-111.6-27.1
				c-68.2,12.8-156.6,58.7-255.6,132.8c-0.4,0.3-42.4,31.3-90.4,22.3c-28.1-5.3-51.6-22.6-69.6-51.5c-16.6-26.5-21.4-53-14.3-78.6
				c12.7-46,60.1-70.6,62.1-71.6l0.2-0.1c50.5-24.8,66.6-44.8,86.9-70c17.5-21.8,37.4-46.5,81-78.2c99.8-72.7,193.1-91.4,253.9-94.2
				c66.6-3.1,109.5,11.4,111.3,12c59.7,20.8,107.1,50.3,141,87.6c28.9,31.9,48.3,69.7,57.4,112.4c15.1,70.4-0.3,139.6-15.8,185.3
				c-37.3,109.6-127.8,205.8-188.2,261c178.5-29.4,332.6,6.1,421.4,99.6c74.8,78.8,94.7,190.1,56.1,313.4
				c-45.7,146.1-179.7,242.4-398.3,286.5c-185,37.3-396.5,29.6-510.1,25.4c-95.5-3.5-174,23.3-221,75.3
				C1725.1,2392.3,1702.7,2401.9,1677.6,2401.9z M1602.6,2377C1602.6,2377,1602.6,2377,1602.6,2377L1602.6,2377
				C1602.6,2377,1602.6,2377,1602.6,2377z M1620.9,2344.1c0.4,0.2,1.1,0.6,2.2,1.3c22.2,14.1,63.7,33.1,91.4,2.5
				c54.6-60.4,143.5-91.5,250.3-87.7c112.1,4.1,320.6,11.7,501.3-24.7c204.1-41.1,328.5-128.8,369.8-260.8
				c34.3-109.7,17.5-207.8-47.5-276.3c-91.3-96.2-262.9-123.7-459-73.4l-92.7,23.7l76.8-57.1c1.8-1.3,180-135.4,233.4-291.9
				c32.1-94.1,54-263.2-159.3-337.6c-0.3-0.1-39.2-13-99.1-9.9c-55.2,2.8-140.1,20.2-231.6,86.9c-39.5,28.8-57,50.5-73.8,71.4
				c-21.4,26.5-41.6,51.6-99.4,80.1c-1.5,0.8-34.9,18.9-42.9,48.3c-4.2,15.2-0.9,31,10,48.5c12.3,19.6,27.3,31.2,44.6,34.4
				c30.9,5.8,60.6-15.2,60.9-15.4c105-78.7,196.3-125.7,271.2-139.7c89.3-16.7,131.4,18.7,148.5,41.3
				c48.7,64.2,20.5,174.9-60.2,236.9c-92.4,70.9-236.6,163.9-338.8,192.7c-27.4,7.7-44.1,54.8-36.6,102.9
				c4.8,30.9,32.3,131.2,183.6,125.7c26.1-1,68.8-7,118.3-14c69.4-9.8,148.1-20.9,217.8-23.7c87-3.4,139.3,7.2,164.5,33.6
				c14.1,14.7,19.4,34.1,15.4,56.1c-29.4,160.1-321.5,160.2-341.6,160c-44.8,2.4-106.1-11.3-176.9-27.2
				c-140.5-31.5-315.4-70.6-475.5-16.1c-93.6,31.8-145.1,63.7-153.1,94.8c-5.4,20.9,7.8,46.9,44,86.7c9.7,10.7,17.1,26.9,25.6,45.6
				C1575.7,2291.7,1592.5,2328.4,1620.9,2344.1L1620.9,2344.1z"/>
		</g>
		<g>
			<path class="st0" d="M1478.5,1210.6c14.9,0,25.5,9.3,33.2,24.7c11.4,22.8,8.4,51,21.8,75.2c12.1,21.8-46.8,172-65.5,242.7
				c-21.8,82.5-54.2,198.2-54.2,198.2s121.1-161.2,175.6-229.8c63.3-79.7,171.7-189.7,220.8-189.7c1.7,0,3.4,0.1,4.9,0.4
				c70.9,12.4,42.8,126.2,14.4,224.6c-17.5,60.6-37.4,120.5-58.8,179.9c-20.8,57.7-37.2,116.9-14.1,119.6c1.6,0.2,3.2,0.3,4.8,0.3
				c33.3,0,45.7-42.8,64.8-42.8c3.8,0,7.9,1.7,12.4,5.8c46,41.2-90.5,153-132.3,153c-3.1,0-5.7-0.6-7.6-1.9
				c-4.6-3.1-9.5-4.2-14.7-4.2c-12.8,0-27.1,6.7-41.9,6.7c-12.5,0-25.3-4.7-38.1-21.9c-30-40.7-22.2-97.5,32.8-226.9
				c55-129.5,94.3-254.5,94.3-254.5s-77.6,83.2-168.3,213.6c-103.6,148.9-165.1,236.3-233,252.4c-2.4,0.6-4.8,0.8-7.2,0.8
				c-8.5,0-17-3.4-24.8-8.4c-26-16.6-38.3-48.2-33.5-78.7c7.4-46.9,21.1-128.1,36.3-188.8c22.7-90.6,48.5-187.7,77.7-265.4
				c-234.1,256.3-449.7,599.1-556,765.5c-4.6,7.3-11.9,12.5-20.2,14.7c-18,4.7-34.7,8.5-52.6,11.3c-1.9,0.3-3.7,0.4-5.6,0.4
				c-18.7,0-34.7-15.2-34.7-34.6c-0.2-74.5,35.6-46.2,63.9-97.2c52.3-94.2,524.3-716.9,653.8-820.4
				C1448.2,1218.1,1465.1,1210.6,1478.5,1210.6 M1478.5,1173L1478.5,1173c-23,0-47.6,10.8-75.3,32.9c-79.5,63.6-260.9,290.4-362,420
				c-141.3,181.1-273.6,361.9-301.2,411.6c-6.6,11.8-12.2,15.3-21.6,21c-24.8,15.2-47.1,33.8-47,94.5c0.1,39.8,32.5,72.2,72.4,72.2
				c3.9,0,7.8-0.3,11.6-0.9c17.6-2.8,34.9-6.6,56.1-12.1c17.6-4.6,32.7-15.5,42.5-30.8c4.5-7.1,9.3-14.5,14.2-22.3
				c90.5-141.9,244.9-384,419.9-600.5c-8.6,31.7-16.6,63.2-24.1,93.2c-15.8,63-29.9,147.4-37,192.1c-7.3,46.4,12.4,92,50.4,116.3
				c14.9,9.5,30.1,14.3,45.1,14.3c5.4,0,10.7-0.6,15.9-1.9c82.8-19.7,147.7-113,255.2-267.6c8.5-12.2,16.8-24,25-35.3
				c-5.3,13.2-10.9,26.6-16.5,39.9c-52.9,124.4-73.1,203.4-28.4,264c18.2,24.7,41.2,37.2,68.4,37.2c12.1,0,22.7-2.5,31.3-4.5
				c2.7-0.6,6.1-1.5,8.5-1.9c7.3,3.9,15.4,5.8,24.4,5.8c33.5,0,75.4-29.5,97.4-47c21.9-17.5,60.8-52.6,75.8-91.7
				c11.9-31.2,6.2-60.3-15.8-80c-14.2-12.7-28.2-15.4-37.5-15.4c0,0,0,0,0,0c-13.4,0-24.2,5.1-32.8,11.6
				c3.2-10.5,7.4-23.1,12.9-38.3c23.2-64.3,42.7-123.9,59.5-182.2c11.5-39.8,22.9-81.9,28.4-120.3c7.2-50.8,2.9-86.6-13.5-112.9
				c-13.1-21-33.5-34.4-58.9-38.8c-3.7-0.6-7.5-1-11.4-1c0,0,0,0,0,0c-20.7,0-56.8,7.8-130.4,74.8c-39,35.6-83.9,83.9-119.9,129.2
				c-15.4,19.5-36.3,46.4-58.3,75.1c0.9-3.6,1.9-7.1,2.8-10.5c5.9-22.1,16-53,26.8-85.7c41.1-124.5,49.5-159.3,35.2-185
				c-4.1-7.3-5.9-17.3-8-28.7c-2.5-13.8-5.3-29.5-13.1-45C1525.6,1178.9,1495,1173,1478.5,1173L1478.5,1173L1478.5,1173z"/>
		</g>
	</g>
	<rect x="2020.7" y="1978" class="st0" width="38.5" height="32.3"/>
</g>
</svg>
