<?xml version="1.0" encoding="utf-8"?>
<!-- Generator: Adobe Illustrator 26.0.3, SVG Export Plug-In . SVG Version: 6.00 Build 0)  -->
<svg version="1.1" id="Layer_1" xmlns="http://www.w3.org/2000/svg" xmlns:xlink="http://www.w3.org/1999/xlink" x="0px" y="0px"
	 viewBox="0 0 3839 1292.4" style="enable-background:new 0 0 3839 1292.4;" xml:space="preserve">
<style type="text/css">
	.st0{fill:url(#SVGID_1_);}
	.st1{fill:#FFFFFF;}
	.st2{fill:url(#SVGID_00000145036846180291247250000004470553666170097842_);}
	.st3{fill:url(#SVGID_00000049903568361040566230000011740760947622953863_);}
	.st4{fill:url(#SVGID_00000005228250251250710570000008093988476952777143_);}
	.st5{fill:url(#SVGID_00000009556807144904159950000013696173499007469191_);}
	.st6{fill:url(#SVGID_00000117641147541154781900000015289182832271418020_);}
	.st7{fill:url(#SVGID_00000003810005580423604150000005419763056279766207_);}
	.st8{fill:url(#SVGID_00000135652542798356732610000013667574587777152666_);}
	.st9{fill:url(#SVGID_00000020367196561329356530000004744140396743602358_);}
	.st10{fill:url(#SVGID_00000008859265723343243070000007900314275480755599_);}
	.st11{fill:url(#SVGID_00000016776352381565836900000008493054188932038058_);}
	.st12{fill:url(#SVGID_00000157999410498934144390000012986866639279660432_);}
	.st13{fill:url(#SVGID_00000114057526872133571450000014945743337096784523_);}
	.st14{fill:url(#SVGID_00000183969504719771429530000011982830034207638435_);}
	.st15{fill:url(#SVGID_00000180325883282076412570000016551136609996972717_);}
	.st16{fill:url(#SVGID_00000169531247186188697190000006622911023938666421_);}
</style>
<g>
	<g>
		<g>
			<g>
				<path class="st1" d="M1490,274.7c0-34-28.3-62.2-62.2-62.2h-45.3c-41,0-75-34-75-75s34-75,75-75h175.4V7.3h-176.8
					c-72.2,0-130.2,58-130.2,130.2s58,130.2,130.2,130.2h45.3c4.2,0,7.1,2.8,7.1,7.1c0,4.2-2.8,7.1-5.7,7.1h-176.9V337h176.8
					C1461.7,337,1490,308.7,1490,274.7z M1427.7,144.8h-45.3c-4.2,0-7.1-2.8-7.1-7.1c0-2.8,2.8-5.7,5.7-5.7h176.9V75.4l-176.8,0.1
					c-34,0-62.2,28.3-62.2,62.3s28.3,62.2,62.3,62.2h45.3c41,0,75,33.9,75,74.9c0,41-33.9,75-74.9,75l-175.4,0.1v55.2l176.8-0.1
					c72.2,0,130.1-58.1,130.1-130.2S1499.9,144.8,1427.7,144.8z M2043.2,130.4h157V75.2h-183.9c-24.1,0-42.4,18.4-42.4,42.4v176.8
					c0,24.1,18.4,42.4,42.4,42.4h114.6V212.5h-87.7v55.2h32.5v12.7h-32.5c-7.1,0-12.7-5.7-12.7-12.7V143.1
					C2030.5,136.1,2036.1,130.4,2043.2,130.4z M2493.1,337l-87.7-260.3c-2.8-7.1-8.5-12.7-17-12.7c-7.1,0-14.1,5.7-17,11.3
					l-113.2,329.6h65.1l39.6-117.4V337H2493.1z M2387,218.1l18.4,56.6h-38.2L2387,218.1z M2473.2,65c-11.3-36.7-45.3-65-86.3-65
					c-41,0-75,26.9-84.9,63.7l-103.1,302.8l-0.1-222.1l-155.6,0.1v55.2l101.9-0.1l0.1,150l-127.3,0.1c-31.1,0-55.2-25.4-55.2-55.1
					l-0.1-176.8c0-31.1,25.4-55.2,55.1-55.2l182.5-0.1V7.3l-183.9,0.1C1955.5,7.4,1906,57,1906,117.8l0.1,176.8
					c0,60.8,49.6,110.3,110.4,110.3l227.8-0.1l114.4-332.5c4.2-12.7,15.6-21.2,29.7-21.2c14.1,0,25.5,8.5,29.7,21.2l93.5,277.2
					l-147.1,0.1v55.2l223.5-0.1L2473.2,65z M1640,294.5V117.7c0-31.1,25.5-55.2,55.2-55.2h189.6V7.3h-189.6
					c-60.8,0-110.4,49.5-110.4,110.4v176.8c0,60.8,49.5,110.4,110.4,110.4h189.6v-55.2h-189.6C1664,349.7,1640,324.2,1640,294.5z
					 M1720.7,283.3c-7.1-1.4-12.7-7.1-12.7-14.1l137.2-0.1v-55.2l-192.4,0.1v82.1c0,24.1,18.4,42.4,42.5,42.4l189.6-0.1v-55.2
					L1720.7,283.3z M1720.6,131.8h162.7V75.2h-188.2c-24.1,0-42.4,18.4-42.4,42.4v82.1h192.4v-55.2h-137.2
					C1707.9,137.5,1713.6,131.8,1720.6,131.8z"/>
			</g>
		</g>
		<g>
			<g>
				<g>
					<path class="st1" d="M3820.7,663.8c-12.1-29.2-28.2-54.4-48.5-75.7c-20.2-21.3-43.6-38.1-70.2-50.4
						c-26.5-12.3-54-18.5-82.4-18.5h-575V624h562.3c20,0,37.8,3.9,53.6,11.8c15.8,7.9,29,18.1,39.8,30.7
						c10.8,12.6,19.1,26.9,24.8,43c5.8,16,8.7,31.9,8.7,47.7v297.2c0,15.8-2.9,31.7-8.7,47.7c-5.8,16-14.1,30.3-24.8,43
						c-10.8,12.6-24,22.9-39.8,30.7c-15.8,7.9-33.6,11.8-53.6,11.8h-339.1l0,0h-286.1c-20,0-37.8-3.9-53.6-11.8s-29-18.1-39.8-30.7
						c-10.8-12.6-19.1-26.9-24.8-43c-5.8-16-8.7-31.9-8.7-47.7V519.2h-104.8v535.2c0,33.1,6,64.2,18.1,93.4
						c12.1,29.2,28.2,54.4,48.5,75.7c20.2,21.3,43.6,38.1,70.2,50.4c26.5,12.4,54,18.5,82.4,18.5h263l0,0h387.6
						c28.4,0,55.8-6.2,82.4-18.5c26.5-12.3,49.9-29.2,70.2-50.4c20.2-21.3,36.4-46.5,48.5-75.7c12.1-29.2,18.1-60.3,18.1-93.4V757.2
						C3838.8,724.1,3832.8,693,3820.7,663.8z M3604.3,762.8c3.4,3.7,5.1,8.7,5.1,15v11h-228.6v104h324.7V773
						c0-13.7-2.2-27.7-6.7-42.2c-4.5-14.4-11.2-27.5-20.1-39c-8.9-11.6-20.2-21-33.9-28.4c-13.7-7.4-29.7-11-48.1-11h-552.1v104.8
						h549.7C3597.6,757.2,3600.9,759.1,3604.3,762.8z M1500.7,572.8c-17.9-18.9-40.6-32.6-68.2-41c-27.6-8.4-60.6-12.6-98.9-12.6
						h-100.9c-37.8,0-70.4,4.2-97.7,12.6c-27.3,8.4-50.1,22.1-68.2,41c-18.1,18.9-31.5,43.5-40.2,73.7c-8.7,30.2-13,67.1-13,110.7
						v297.2c0,42,4.3,78.2,13,108.4c8.7,30.2,22.1,54.9,40.2,74.1c18.1,19.2,40.9,33.2,68.2,42.2c27.3,8.9,59.9,13.4,97.7,13.4
						h100.9c38.4,0,71.3-4.5,98.9-13.4c27.6-8.9,50.3-23,68.2-42.2c17.9-19.2,31-43.9,39.4-74.1c8.4-30.2,12.6-66.3,12.6-108.4
						V757.2c0-43.6-4.2-80.5-12.6-110.7C1531.7,616.3,1518.5,591.7,1500.7,572.8z M1453.4,1076.4c0,15.8-2,30.5-5.9,44.1
						c-3.9,13.7-10.2,25.5-18.9,35.5c-8.7,10-19.8,17.7-33.5,23.3c-13.7,5.5-30.5,8.3-50.4,8.3h-61.5h-61.5c-20,0-36.8-2.8-50.4-8.3
						c-13.7-5.5-24.8-13.3-33.5-23.3c-8.7-10-15-21.8-18.9-35.5c-3.9-13.7-5.9-28.4-5.9-44.1V735.2c0-15.8,2-30.5,5.9-44.1
						c3.9-13.7,10.2-25.5,18.9-35.5c8.7-10,20-17.7,33.9-23.3c13.9-5.5,30.9-8.3,50.8-8.3h121.4c20,0,36.9,2.8,50.8,8.3
						s25.2,13.3,33.9,23.3c8.7,10,15,21.8,18.9,35.5s5.9,28.4,5.9,44.1L1453.4,1076.4L1453.4,1076.4z M1406.9,680.8
						c-6.8-8.9-16.2-15.9-28-20.9c-11.8-5-26.9-7.5-45.3-7.5h-50.4h-50.4c-18.4,0-33.5,2.5-45.3,7.5c-11.8,5-21.2,12-28,20.9
						c-6.8,8.9-11.6,19.4-14.2,31.5s-3.9,25-3.9,38.6v309.8c0,18.4,1.3,33.8,3.9,46.1c2.6,12.4,7.2,22.5,13.8,30.3
						c6.6,7.9,15.8,13.5,27.6,16.9c11.8,3.4,26.9,5.1,45.3,5.1h102.5c18.4,0,33.5-1.7,45.3-5.1c11.8-3.4,21-9.1,27.6-16.9
						c6.6-7.9,11.2-18,13.8-30.3c2.6-12.3,3.9-27.7,3.9-46.1V750.9c0-13.7-1.3-26.5-3.9-38.6
						C1418.4,700.2,1413.7,689.7,1406.9,680.8z M1323.3,1033.8c0,6.3-0.9,11.3-2.8,15c-1.8,3.7-5.9,5.5-12.2,5.5h-50.4
						c-6.3,0-10.4-1.8-12.2-5.5c-1.8-3.7-2.8-8.7-2.8-15V777.7c0-6.3,0.9-11.3,2.8-15c1.8-3.7,5.9-5.5,12.2-5.5h50.4
						c6.3,0,10.4,1.8,12.2,5.5c1.8,3.7,2.8,8.7,2.8,15V1033.8z M2076.9,572.8c-17.9-18.9-40.6-32.6-68.2-41s-60.6-12.6-98.9-12.6
						h-303.5V624H1920c20,0,36.9,2.8,50.8,8.3s25.2,13.3,33.9,23.3c8.7,10,15,21.8,18.9,35.5c3.9,13.7,5.9,28.4,5.9,44.1v341.3
						c0,15.8-2,30.5-5.9,44.1c-3.9,13.7-10.2,25.5-18.9,35.5c-8.7,10-19.8,17.7-33.5,23.3c-13.7,5.5-30.5,8.3-50.4,8.3h-215.2V782.5
						h-99.3v510h303.5c38.4,0,71.3-4.5,98.9-13.4s50.3-23,68.2-42.2s31-43.9,39.4-74.1c8.4-30.2,12.6-66.3,12.6-108.4V757.2
						c0-43.6-4.2-80.5-12.6-110.7S2094.7,591.7,2076.9,572.8z M1896.8,762.7c3.9,3.7,5.9,8.7,5.9,15v256.2c0,6.3-2,11.3-5.9,15
						c-3.9,3.7-9.1,5.5-15.4,5.5h-17.3c-13.1,0-19.7-6.8-19.7-20.5V782.5H1734v376.8h176.6c18.4,0,33.5-1.7,45.3-5.1
						c11.8-3.4,21-9.1,27.6-16.9c6.6-7.9,11.2-18,13.8-30.3c2.6-12.3,3.9-27.7,3.9-46.1v-310c0-13.7-1.3-26.5-3.9-38.6
						s-7.4-22.6-14.2-31.5c-6.8-8.9-16.2-15.9-28-20.9c-11.8-5-26.9-7.5-45.3-7.5h-303.5v104.8h275.1
						C1887.7,757.2,1892.8,759.1,1896.8,762.7z M2315.3,537.7c-26.5,12.4-49.9,29.2-70.2,50.4c-20.2,21.3-36.4,46.5-48.5,75.7
						s-18.1,60.3-18.1,93.4v297.2c0,33.1,6,64.2,18.1,93.4c12.1,29.2,28.2,54.4,48.5,75.7c20.2,21.3,43.6,38.1,70.2,50.4
						c26.5,12.4,54,18.5,82.4,18.5h298.7v-104.8h-286.1c-20,0-37.8-3.9-53.6-11.8c-15.8-7.9-29-18.1-39.8-30.7
						c-10.8-12.6-19.1-26.9-24.8-43c-5.8-16-8.7-31.9-8.7-47.7V757.2c0-15.8,2.9-31.7,8.7-47.7c5.8-16,14.1-30.3,24.8-43
						c10.8-12.6,24-22.9,39.8-30.7c15.8-7.9,33.6-11.8,53.6-11.8h286.1V519.2h-298.7C2369.3,519.2,2341.8,525.4,2315.3,537.7z
						 M2372.5,663.4c-13.7,7.4-25,16.8-33.9,28.4s-15.6,24.6-20.1,39c-4.5,14.5-6.7,28.5-6.7,42.2v119.8h324.8v-104h-228.7v-11
						c0-6.3,1.7-11.3,5.1-15c3.4-3.7,6.7-5.5,9.9-5.5h273.5V652.4h-275.9C2402.1,652.4,2386.1,656.1,2372.5,663.4z M2413.1,1048.8
						c-3.4-3.7-5.1-8.7-5.1-15v-10.2h228.6V918.8h-324.8v119.8c0,13.7,2.2,27.7,6.7,42.2c4.5,14.5,11.2,27.5,20.1,39
						c8.9,11.6,20.2,21,33.9,28.4c13.7,7.4,29.7,11,48.1,11h275.9v-104.8h-273.6C2419.8,1054.3,2416.5,1052.5,2413.1,1048.8z
						 M2909.9,1119.7c8.9,11.6,20.2,21,33.9,28.4s29.7,11,48.1,11H3232l0,0h364.8c18.4,0,34.4-3.7,48.1-11
						c13.7-7.4,25-16.8,33.9-28.4s15.6-24.6,20.1-39c4.5-14.4,6.7-28.5,6.7-42.2V918.8h-324.8v104.8h228.6v10.2
						c0,6.3-1.7,11.3-5.1,15c-3.4,3.7-6.7,5.5-9.9,5.5h-326.6l0,0h-261.7v-0.8c-3.2,0-6.4-1.7-9.9-5.1c-3.4-3.4-5.1-8.3-5.1-14.6
						V519.2h-108v519.4c0,13.7,2.2,27.7,6.7,42.2C2894.3,1095.2,2901,1108.2,2909.9,1119.7z M776,573.2c-7.1-10.2-15.8-19.4-26-27.6
						c-10.2-8.1-22.3-14.6-36.3-19.3c-13.9-4.7-29.6-7.1-46.9-7.1c-17.9,0-33.4,2.4-46.5,7.1c-13.1,4.7-24.6,11.2-34.3,19.3
						c-9.7,8.2-18.1,17.3-25.2,27.6c-7.1,10.2-13.5,20.9-19.3,31.9l-23.6,47.3l-23.6-47.3c-5.3-11-11.4-21.7-18.5-31.9
						c-7.1-10.2-15.6-19.4-25.6-27.6c-10-8.1-21.6-14.6-34.7-19.3c-13.1-4.7-28.6-7.1-46.5-7.1c-17.9,0-33.6,2.4-47.3,7.1
						c-13.7,4.7-25.6,11.2-35.9,19.3c-10.2,8.2-18.8,17.3-25.6,27.6c-6.8,10.2-12.4,20.9-16.6,31.9L0,1292.3h104.8l227-647.9
						c1.6-5.2,6.3-10,14.2-14.2c7.9-4.2,15.5-6.3,22.9-6.3c8.4,0,16,2.1,22.9,6.3c6.8,4.2,11.3,8.9,13.4,14.2l112.7,301.9
						l112.7-301.9c2.1-5.2,6.6-10,13.4-14.2c6.8-4.2,14.4-6.3,22.9-6.3c7.4,0,15,2.1,22.9,6.3c7.9,4.2,12.6,8.9,14.2,14.2l227,647.9
						h104.8L792.2,605.1C788.5,594.1,783.1,583.4,776,573.2z M678.7,655.9c-4.2-2.4-8.2-3.5-11.8-3.5c-3.7,0-7.5,1.2-11.4,3.5
						c-3.9,2.4-6.4,5.1-7.5,8.3l-130.1,358.6L387.8,664.2c-1.1-3.2-3.5-5.9-7.5-8.3c-3.9-2.4-7.8-3.5-11.4-3.5
						c-3.7,0-7.6,1.2-11.8,3.5c-4.2,2.4-6.8,5.1-7.9,8.3l-216,628.2H238l130.8-397.3l149,397.3l149-397.3l134.8,397.3h100.9
						l-216-628.2C685.5,661.1,682.9,658.3,678.7,655.9z"/>
				</g>
			</g>
		</g>
	</g>
</g>
</svg>
