<?xml version="1.0" encoding="utf-8"?>
<!-- Generator: Adobe Illustrator 25.4.1, SVG Export Plug-In . SVG Version: 6.00 Build 0)  -->
<svg version="1.1" id="Layer_1" xmlns="http://www.w3.org/2000/svg" xmlns:xlink="http://www.w3.org/1999/xlink" x="0px" y="0px"
	 viewBox="0 0 3839 2227.1" style="enable-background:new 0 0 3839 2227.1;" xml:space="preserve">
<style type="text/css">
	.st0{fill:#FFFFFF;}
</style>
<g>
	<g>
		<g>
			<g>
				<path class="st0" d="M507.8,808.4H0v158.4h507.8c97.5,0,178.7-81.2,178.7-178.7s-81.2-178.7-178.7-178.7h-130
					c-117.8,0-215.3-97.5-215.3-215.3S260,178.7,377.8,178.7h503.7V20.3H373.7C166.6,20.3,0,186.9,0,394.1s166.6,373.7,373.7,373.7
					h130c12.2,0,20.3,8.1,20.3,20.3C524.1,800.3,515.9,808.4,507.8,808.4z"/>
				<path class="st0" d="M373.7,377.8h507.8V215.3H373.7C276.2,215.3,195,296.5,195,394s81.2,178.7,178.7,178.7h130
					C621.5,572.7,719,670.2,719,788s-97.5,215.3-215.3,215.3H0v158.4h507.8c207.2,0,373.7-166.6,373.7-373.7S715,414.4,507.8,414.4
					h-130c-12.2,0-20.3-8.1-20.3-20.3C357.5,385.9,365.6,377.8,373.7,377.8z"/>
				<path class="st0" d="M2197.8,215.3c-69.1,0-121.9,52.8-121.9,121.9V845c0,69.1,52.8,121.9,121.9,121.9h329.1V609.4H2275v158.4
					h93.4v36.6H2275c-20.3,0-36.6-16.2-36.6-36.6V410.3c0-20.3,16.2-36.6,36.6-36.6h450.9V215.3H2197.8z"/>
				<path class="st0" d="M3197.1,966.9h369.7l-251.9-747.5c-8.1-20.3-24.4-36.6-48.7-36.6c-20.3,0-40.6,16.2-48.7,32.5l-325,946.5
					h186.9l113.7-337.2v142.2L3197.1,966.9L3197.1,966.9z M3262.1,625.6l52.8,162.5h-109.7L3262.1,625.6z"/>
				<path class="st0" d="M3509.9,186.9C3477.4,81.2,3379.9,0,3262.1,0c-117.8,0-215.3,77.2-243.7,182.8l-296.6,869.4V414.4H2275
					v158.4h292.5v430.6h-365.6c-89.4,0-158.4-73.1-158.4-158.4V337.2c0-89.4,73.1-158.4,158.4-158.4H2726V20.3h-528.1
					c-174.7,0-316.9,142.2-316.9,316.9V845c0,174.7,142.2,316.9,316.9,316.9H2852l329.1-954.7c12.2-36.6,44.7-60.9,85.3-60.9
					s73.1,24.4,85.3,60.9l268.1,796.2h-422.5v158.4H3839l0,0L3509.9,186.9z"/>
				<path class="st0" d="M1275.6,1003.4c-89.4,0-158.4-73.1-158.4-158.4V337.2c0-89.4,73.1-158.4,158.4-158.4H1820V20.3h-544.4
					c-174.7,0-316.9,142.2-316.9,316.9V845c0,174.7,142.2,316.9,316.9,316.9H1820v-158.4L1275.6,1003.4L1275.6,1003.4z"/>
				<path class="st0" d="M1312.2,771.9h394.1V613.4h-552.5V849c0,69.1,52.8,121.9,121.9,121.9H1820V812.5h-471.2
					C1328.4,808.4,1312.2,792.2,1312.2,771.9z"/>
				<path class="st0" d="M1706.2,414.4h-394.1c0-20.3,16.2-36.6,36.6-36.6h467.2V215.3h-540.3c-69.1,0-121.9,52.8-121.9,121.9v235.6
					h552.5C1706.2,572.8,1706.2,414.4,1706.2,414.4z"/>
			</g>
		</g>
		<g>
			<path class="st0" d="M484.7,2221.2v-339.7h-388v-388H48.4v679.4h48.4v-243h48.4v291.3H0v-776.1h145.1v388h388v339.7h48.4v-679.4
				h-48.4v291.3H193.4v-48.4h291.3V1445h145.1v776.1L484.7,2221.2L484.7,2221.2z"/>
			<path class="st0" d="M803.2,2221.2v-776.1h145.1v48.4h-96.7v679.4H900v-631h48.4v679.4L803.2,2221.2L803.2,2221.2z"/>
			<path class="st0" d="M1563.9,2221.2L1315,1913.4v-76.7l271.3,336.1h63.7l-313.7-389.2l289-290.1h-69.6l-289,291.3v436.4h-145.1
				v-776.1h145.1v200.5l-48.4,48.4v-200.5H1170v679.4h48.4v-409.3l318.4-318.4h201.7L1400,1788.3l351.5,432.9H1563.9z"/>
			<path class="st0" d="M2295.1,2221.2l-66-194.6h-232.3l-67.2,194.6h-155.7l264.2-776.1h154.5l-54.3,163.9l110.9,320.8h-273.6
				l83.7-245.3l27.1,79l-42.5,117.9h135.6l-93.2-273.6l38.9-114.4h-51.9l-233.5,679.4h51.9l67.2-194.6h305.5l66,194.6h51.9
				L2190.1,1609l27.1-77.8l234.7,690H2295.1z"/>
			<path class="st0" d="M2974.5,2221.2l-194.6-339.7h-96.7v339.7h-145.1v-776.1h316.1c93.2,0,168.7,75.5,168.7,167.5
				s-71.9,172.2-165.1,172.2h-222.9v-243h181.6c71.9,0,109.7,16.5,109.7,96.7h-5.9c0-43.6-38.9-48.4-73.1-48.4h-163.9v146.2h176.9
				c67.2,0,114.4-60.2,114.4-123.8c0-64.9-53.1-119.1-117.9-119.1h-270.1v679.4h48.4v-339.7h168.7l194.6,339.7h56.6l-194.6-339.7
				c107.3,0,206.4-80.2,206.4-192.2h4.7c0,96.7-34.2,195.8-134.5,227.6l200.5,352.7H2974.5z"/>
			<path class="st0" d="M3519.4,2227.1c-180.5,0-316.1-172.2-316.1-344.4v-437.6h145.1v437.6c0,103.8,59,198.1,172.2,198.1
				c234.7,0,263-324.3,264.2-497.7v-89.6h-48.4v17.7c0,115.6-1.2,290.1-42.5,389.2h-5.9v-455.3h146.3v145.1
				c0,201.7-50.7,539-313.7,539c-145.1,0-220.6-110.9-220.6-246.5v-389.2h-48.4v386.9c0,163.9,94.4,297.2,268.9,297.2
				c119.1,0,215.8-63.7,272.4-166.3c14.2-25.9,36.6-74.3,41.3-102.6h4.7C3839,2079.7,3689.2,2227.1,3519.4,2227.1z"/>
		</g>
	</g>
</g>
</svg>
