<?xml version="1.0" encoding="utf-8"?>
<!-- Generator: Adobe Illustrator 26.0.3, SVG Export Plug-In . SVG Version: 6.00 Build 0)  -->
<svg version="1.1" id="Layer_1" xmlns="http://www.w3.org/2000/svg" xmlns:xlink="http://www.w3.org/1999/xlink" x="0px" y="0px"
	 viewBox="0 0 3838.9 1356.3" style="enable-background:new 0 0 3838.9 1356.3;" xml:space="preserve">
<style type="text/css">
	.st0{fill:#FFFFFF;}
	.st1{fill:url(#SVGID_1_);}
	.st2{fill:url(#SVGID_00000173121707633967145100000004423934963068467870_);}
	.st3{fill:url(#SVGID_00000098196862509661013220000014220603213182051220_);}
	.st4{fill:url(#SVGID_00000125603124243389863800000000743682789411002256_);}
	.st5{fill:url(#SVGID_00000021116802735556170060000010038858532362825660_);}
	.st6{fill:url(#SVGID_00000141448482528359785530000004766281297062231205_);}
	.st7{display:none;}
	.st8{display:inline;fill:url(#SVGID_00000078736296422179550830000002800065683876092854_);}
	.st9{display:inline;fill:url(#SVGID_00000065069529352153502650000016332593441954458045_);}
	.st10{display:inline;fill:url(#SVGID_00000083778066457601785780000001150078243214546821_);}
	.st11{display:inline;fill:url(#SVGID_00000157267704723641113720000001809470052678699943_);}
	.st12{display:inline;fill:url(#SVGID_00000120534169114822498430000018056668196884372382_);}
	.st13{fill:url(#SVGID_00000159433117425845005190000016042226629724316554_);}
	.st14{fill:url(#SVGID_00000080208201200359810510000018258425487161300908_);}
	.st15{fill:url(#SVGID_00000063632324042913238390000009210565953232435337_);}
	.st16{fill:url(#SVGID_00000044165734205868490710000002278578507175657636_);}
	.st17{fill:url(#SVGID_00000161614292225432083530000005823451409466914436_);}
	.st18{fill:url(#SVGID_00000075874820643000939370000009295674205010322569_);}
	.st19{fill:url(#SVGID_00000078741147085555611100000002106313485766882967_);}
	.st20{fill:url(#SVGID_00000110465373162899807660000017964364378513857154_);}
	.st21{fill:url(#SVGID_00000039118329948393598770000005594438147448929215_);}
	.st22{fill:url(#SVGID_00000039130637248809925970000003355817914425427873_);}
	.st23{fill:url(#SVGID_00000065793318276685594590000009928796428818636725_);}
	.st24{fill:url(#SVGID_00000137844723585427895170000005858699224134692230_);}
	.st25{display:inline;fill:url(#SVGID_00000016048205719641961560000003465165522313347992_);}
	.st26{display:inline;fill:url(#SVGID_00000041994920316113902000000014722281022132145064_);}
	.st27{display:inline;fill:url(#SVGID_00000044157008898030846940000005488467332241592240_);}
	.st28{display:inline;fill:url(#SVGID_00000127021401774092614510000010870514933957175225_);}
	.st29{display:inline;fill:url(#SVGID_00000092455825187995598630000000698333335334196111_);}
	.st30{fill:url(#SVGID_00000026844722962006936660000017360510175712463271_);}
	.st31{fill:url(#SVGID_00000162349336839528368870000014786615449907293074_);}
	.st32{fill:url(#SVGID_00000111898137232483692900000015764607132793738427_);}
	.st33{fill:url(#SVGID_00000086652339890221194260000015932870900486220978_);}
	.st34{fill:url(#SVGID_00000041986454757346982720000003554326740729515908_);}
	.st35{fill:url(#SVGID_00000098218480849170792680000002678171600526691230_);}
	.st36{fill:url(#SVGID_00000019664671832864731830000002340756069939964313_);}
	.st37{fill:url(#SVGID_00000046301113062809929440000017476603783458652853_);}
	.st38{fill:url(#SVGID_00000062872337058773696720000005307873932882375070_);}
	.st39{fill:url(#SVGID_00000124861052996508209070000003638772185303173301_);}
	.st40{fill:url(#SVGID_00000121973189337797629600000010233187442017976483_);}
	.st41{fill:url(#SVGID_00000021102819824881615910000002717343837538351029_);}
	.st42{display:inline;fill:url(#SVGID_00000128468705069100094300000006510705210721473428_);}
	.st43{display:inline;fill:url(#SVGID_00000094578327498728371910000004708042088269464457_);}
	.st44{display:inline;fill:url(#SVGID_00000135682536471278081370000010942434101988019093_);}
	.st45{display:inline;fill:url(#SVGID_00000086669399498328622320000017979126325883352222_);}
	.st46{display:inline;fill:url(#SVGID_00000139981935020188158610000006820692638320436382_);}
	.st47{fill:url(#SVGID_00000101824543737721605790000010203892797637760174_);}
	.st48{fill:url(#SVGID_00000059998254209043937890000014507619501284250810_);}
	.st49{fill:url(#SVGID_00000103223548910344502010000010630256290288799135_);}
	.st50{fill:url(#SVGID_00000006709972559010536030000016598988006728088972_);}
	.st51{fill:url(#SVGID_00000005247287430351298530000001503536545858846372_);}
	.st52{fill:url(#SVGID_00000008131845967806304770000011080005404240217249_);}
	.st53{fill:url(#SVGID_00000009570637458662878950000005049377080552288404_);}
	.st54{fill:url(#SVGID_00000169546528130708610590000002518486186986016187_);}
	.st55{fill:url(#SVGID_00000057117707657875701860000011090221444668754826_);}
	.st56{fill:url(#SVGID_00000177483039486790765590000005659455879507933095_);}
	.st57{fill:url(#SVGID_00000021804243518098483910000008637526509791623820_);}
	.st58{fill:url(#SVGID_00000057111557419164290490000016613221977683457681_);}
	.st59{display:inline;fill:url(#SVGID_00000044164075127463032680000000813861500588059811_);}
	.st60{display:inline;fill:url(#SVGID_00000093865038809327417430000007036751623895577765_);}
	.st61{display:inline;fill:url(#SVGID_00000057871054670400286020000010505728919542532017_);}
	.st62{display:inline;fill:url(#SVGID_00000082347330398952170140000018210243727921526426_);}
	.st63{display:inline;fill:url(#SVGID_00000080179162534043977640000004822888104977175426_);}
	.st64{fill:url(#SVGID_00000139254144741360584870000014869379408139948417_);}
	.st65{fill:url(#SVGID_00000052809221423354792660000013774604804677086899_);}
	.st66{fill:url(#SVGID_00000002352250517833319070000003282526807448988051_);}
	.st67{fill:url(#SVGID_00000072281143186760043490000010612475610671802538_);}
	.st68{fill:url(#SVGID_00000062187654135496370990000003044844641656320173_);}
	.st69{fill:url(#SVGID_00000030476544380901444390000005666327388783923091_);}
	.st70{fill:url(#SVGID_00000018944715027562082100000001723726115080104097_);}
	.st71{fill:url(#SVGID_00000080198768464673222390000007378794575750696837_);}
	.st72{fill:url(#SVGID_00000016790725060647089450000005055841408463948962_);}
	.st73{fill:url(#SVGID_00000081619993000781359120000012961478957852893590_);}
	.st74{fill:url(#SVGID_00000048492080457529485250000003582204078567331459_);}
	.st75{fill:url(#SVGID_00000132786317629766020540000009672955006534790031_);}
	.st76{display:inline;fill:url(#SVGID_00000084510062065836786170000011482410828506521758_);}
	.st77{display:inline;fill:url(#SVGID_00000115486314308161256990000017147160075125604788_);}
	.st78{display:inline;fill:url(#SVGID_00000021823835405933777500000012078247953561679744_);}
	.st79{display:inline;fill:url(#SVGID_00000030469239481186104770000007251125418443732410_);}
	.st80{display:inline;fill:url(#SVGID_00000071528686315131464160000014842181650868306068_);}
	.st81{fill:url(#SVGID_00000096053130334798930710000012723560034256654014_);}
	.st82{fill:url(#SVGID_00000078027295257308181140000002166207026493081519_);}
	.st83{fill:url(#SVGID_00000082344747704458546960000011214869550358896307_);}
	.st84{fill:url(#SVGID_00000128473368196472583750000018443652126325909380_);}
	.st85{fill:url(#SVGID_00000037667049691284489760000011369801615312441780_);}
	.st86{fill:url(#SVGID_00000183934897540739789660000007458691806247894151_);}
	.st87{fill:url(#SVGID_00000104680608482557306810000010266878870372321204_);}
	.st88{fill:url(#SVGID_00000093143858008224780900000011766336983410840511_);}
	.st89{fill:url(#SVGID_00000106829075441068719690000017113318102257760932_);}
	.st90{fill:url(#SVGID_00000156577340400729434740000011530011447947650204_);}
	.st91{fill:url(#SVGID_00000126311237034810971820000013345805219949052330_);}
	.st92{fill:url(#SVGID_00000031182092652448925800000000438030938484727718_);}
	.st93{display:inline;fill:url(#SVGID_00000161605438271543448170000000790997653830668691_);}
	.st94{display:inline;fill:url(#SVGID_00000138569721663796191670000009930770504163109048_);}
	.st95{display:inline;fill:url(#SVGID_00000054958076388112140170000016356139280189540776_);}
	.st96{display:inline;fill:url(#SVGID_00000128474198357104963500000010418181318624022680_);}
	.st97{display:inline;fill:url(#SVGID_00000004540355850552258890000004160005676406018184_);}
	.st98{fill:url(#SVGID_00000176020260450791642360000006314698862742027702_);}
	.st99{fill:url(#SVGID_00000132080251988873039670000011746098975493307797_);}
	.st100{fill:url(#SVGID_00000115489407320637609880000014427303547530503847_);}
	.st101{fill:url(#SVGID_00000094598749625997235730000000795778435100567221_);}
	.st102{fill:url(#SVGID_00000022559342974328325790000011212706491830505379_);}
	.st103{fill:url(#SVGID_00000177477117683809474960000004519892913326864264_);}
	.st104{fill:url(#SVGID_00000026870146090416996420000000473031220986097593_);}
	.st105{fill:url(#SVGID_00000055666119450765395510000008787798674643160234_);}
	.st106{fill:url(#SVGID_00000110458165230756474700000016301728870449172409_);}
	.st107{fill:url(#SVGID_00000088093620802727544220000004899232998152218240_);}
	.st108{fill:url(#SVGID_00000178192357038598315580000015114923179059567284_);}
	.st109{fill:url(#SVGID_00000086693996882131692990000007078760387585480878_);}
	.st110{display:inline;fill:url(#SVGID_00000160183250640045750270000015516302953362131084_);}
	.st111{display:inline;fill:url(#SVGID_00000155126386133296372910000016466900143157346195_);}
	.st112{display:inline;fill:url(#SVGID_00000103244607176882174920000012071467745369790346_);}
	.st113{display:inline;fill:url(#SVGID_00000053519247313100727310000013073125704433508025_);}
	.st114{display:inline;fill:url(#SVGID_00000037662629693251874620000004052345536045779113_);}
	.st115{fill:url(#SVGID_00000112598783302252499260000016662591394819988366_);}
	.st116{fill:url(#SVGID_00000014594750386406693900000006838992866730875011_);}
	.st117{fill:url(#SVGID_00000035501442375662109160000013247457307898913450_);}
	.st118{fill:url(#SVGID_00000115517003775271949500000016280248195865118391_);}
	.st119{fill:url(#SVGID_00000122703361672090447950000011670768287943967149_);}
	.st120{fill:url(#SVGID_00000017507365417560461550000016440204742405396100_);}
	.st121{fill:url(#SVGID_00000151539318408219686680000011018115978160402330_);}
	.st122{fill:url(#SVGID_00000082338385202501476360000009612309580221711538_);}
	.st123{fill:url(#SVGID_00000165232370863304141310000016021610038568407944_);}
	.st124{fill:url(#SVGID_00000011023694854030800290000000311215877920268976_);}
	.st125{fill:url(#SVGID_00000111908380887091068790000006165149549115221678_);}
	.st126{fill:url(#SVGID_00000012446380883221826400000000697883270148751786_);}
	.st127{display:inline;fill:url(#SVGID_00000078730043389572156800000011039343583382863551_);}
	.st128{display:inline;fill:url(#SVGID_00000145047132357973959900000012236466934949840517_);}
	.st129{display:inline;fill:url(#SVGID_00000108280458451270923200000016623453216984539270_);}
	.st130{display:inline;fill:url(#SVGID_00000006706470946555566050000001214947195656187321_);}
	.st131{display:inline;fill:url(#SVGID_00000018916314589108097750000001527827953620683926_);}
	.st132{fill:url(#SVGID_00000158749105382755468040000015520629827151351715_);}
	.st133{fill:url(#SVGID_00000154417005969471942850000000318526233707982482_);}
	.st134{fill:url(#SVGID_00000137821786033519972310000001221769389894427566_);}
	.st135{fill:url(#SVGID_00000183229549625300521990000003722306093462244234_);}
	.st136{fill:url(#SVGID_00000060004565137512472940000015732429834853169558_);}
	.st137{fill:url(#SVGID_00000101104436218541509520000005101748712949236136_);}
</style>
<g>
	<g>
		<g>
			<g>
				<path class="st0" d="M1468.9,288.3c0-35.6-29.7-65.3-65.3-65.3H1356c-43.1,0-78.7-35.6-78.7-78.7s35.6-78.7,78.7-78.7H1540V7.7
					h-185.6c-75.7,0-136.6,60.9-136.6,136.6s60.9,136.6,136.6,136.6h47.5c4.5,0,7.4,3,7.4,7.4s-3,7.4-5.9,7.4h-185.6v57.9h185.6
					C1439.2,353.6,1468.9,323.9,1468.9,288.3z M1403.5,151.9H1356c-4.5,0-7.4-3-7.4-7.4c0-3,3-5.9,5.9-5.9l185.6-0.1V79.1
					l-185.6,0.1c-35.6,0-65.3,29.7-65.3,65.4c0,35.6,29.7,65.3,65.4,65.3h47.5c43.1,0,78.7,35.6,78.7,78.6c0,43-35.6,78.7-78.6,78.7
					l-184.1,0.1v57.9l185.6-0.1c75.7,0,136.6-60.9,136.5-136.7C1540,212.8,1479.1,151.9,1403.5,151.9z M2049.3,136.8h164.8V78.9
					h-193c-25.2,0-44.5,19.3-44.5,44.5V309c0,25.2,19.3,44.5,44.5,44.5h120.3V222.9h-92v57.9h34.1v13.4h-34.1
					c-7.4,0-13.4-5.9-13.4-13.4V150.2C2035.9,142.8,2041.8,136.8,2049.3,136.8z M2521.4,353.6l-92-273.2c-3-7.4-8.9-13.4-17.8-13.4
					c-7.4,0-14.8,5.9-17.8,11.9l-118.9,346h68.3l41.6-123.2v52h136.6V353.6z M2410,228.9l19.3,59.4h-40.1L2410,228.9z M2500.5,68.2
					C2488.6,29.7,2453,0,2409.9,0s-78.7,28.2-89,66.9l-108.2,317.8l-0.1-233.1l-163.3,0.1v57.9l106.9-0.1l0.1,157.4l-133.6,0.1
					c-32.7,0-57.9-26.7-57.9-57.9l-0.1-185.6c0-32.7,26.7-57.9,57.9-57.9l191.5-0.1V7.6l-193,0.1c-63.8,0-115.8,52-115.7,115.9
					l0.1,185.6c0,63.8,52,115.8,115.9,115.7l239-0.1l120.1-349c4.4-13.4,16.3-22.3,31.2-22.3s26.7,8.9,31.2,22.3l98.1,290.9
					l-154.4,0.1v57.9l234.6-0.1L2500.5,68.2z M1626.1,309.1V123.5c0-32.7,26.7-57.9,57.9-57.9h198.9V7.7H1684
					c-63.8,0-115.8,52-115.8,115.8v185.6c0,63.8,52,115.8,115.8,115.8h198.9V367H1684C1651.4,367,1626.1,340.2,1626.1,309.1z
					 M1710.8,297.3c-7.4-1.5-13.4-7.4-13.4-14.8l144-0.1v-57.9l-201.9,0.1v86.1c0,25.2,19.3,44.5,44.6,44.5l198.9-0.1v-57.9
					L1710.8,297.3z M1710.8,138.3h170.7V78.9H1684c-25.2,0-44.5,19.3-44.5,44.5v86.1h201.9v-57.9h-144
					C1697.4,144.3,1703.3,138.3,1710.8,138.3z"/>
			</g>
		</g>
		<path class="st0" d="M543.4,993.2L425.2,676.4c-2.2-5.5-6.9-10.5-14.1-14.9c-7.2-4.4-15.2-6.6-24-6.6c-7.7,0-15.7,2.2-24,6.6
			c-8.3,4.4-13.2,9.4-14.9,14.9L110,1356.3H0L255.6,635c4.4-11.6,10.2-22.7,17.4-33.5c7.2-10.8,16.1-20.4,26.9-29
			c10.8-8.5,23.3-15.3,37.6-20.3c14.3-5,30.9-7.4,49.6-7.4c18.7,0,35,2.5,48.8,7.4c13.8,5,25.9,11.7,36.4,20.3
			c10.5,8.6,19.4,18.2,26.9,29c7.4,10.8,13.9,21.9,19.4,33.5l24.8,49.6l24.8-49.6c6.1-11.6,12.8-22.7,20.3-33.5s16.3-20.4,26.5-29
			c10.2-8.5,22.2-15.3,36-20.3c13.8-5,30-7.4,48.8-7.4c18.2,0,34.6,2.5,49.2,7.4c14.6,5,27.3,11.7,38,20.3
			c10.8,8.6,19.9,18.2,27.3,29c7.4,10.8,13.1,21.9,17,33.5l255.6,721.3h-110L738.7,676.4c-1.7-5.5-6.6-10.5-14.9-14.9
			c-8.3-4.4-16.3-6.6-24-6.6c-8.8,0-16.8,2.2-24,6.6c-7.2,4.4-11.9,9.4-14.1,14.9L543.4,993.2z M543.4,1356.3L387.1,939.4
			l-137.3,416.9h-110L366.4,697c1.1-3.3,3.9-6.2,8.3-8.7c4.4-2.5,8.5-3.7,12.4-3.7c3.9,0,7.9,1.2,12,3.7c4.1,2.5,6.7,5.4,7.9,8.7
			l136.5,376.4L679.9,697c1.1-3.3,3.7-6.2,7.9-8.7c4.1-2.5,8.1-3.7,12-3.7s8,1.2,12.4,3.7c4.4,2.5,7.2,5.4,8.3,8.7l226.6,659.2
			H841.2L699.8,939.4L543.4,1356.3z"/>
		<path class="st0" d="M1191.1,1342.2c-28.7-9.4-52.5-24.1-71.5-44.3c-19-20.1-33.1-46-42.2-77.8c-9.1-31.7-13.6-69.6-13.6-113.7
			V794.6c0-45.8,4.5-84.5,13.6-116.2c9.1-31.7,23.2-57.5,42.2-77.3c19-19.9,42.9-34.2,71.5-43c28.7-8.8,62.9-13.2,102.6-13.2h105.9
			c40.2,0,74.9,4.4,103.8,13.2c29,8.8,52.8,23.2,71.5,43c18.7,19.9,32.5,45.6,41.4,77.3c8.8,31.7,13.2,70.5,13.2,116.2v311.8
			c0,44.1-4.4,82-13.2,113.7c-8.8,31.7-22.6,57.6-41.4,77.8c-18.8,20.1-42.6,34.9-71.5,44.3c-29,9.4-63.6,14.1-103.8,14.1h-105.9
			C1254,1356.3,1219.8,1351.6,1191.1,1342.2z M1411.1,1246.3c20.9,0,38.6-2.9,52.9-8.7s26.1-13.9,35.2-24.4
			c9.1-10.5,15.7-22.9,19.9-37.2c4.1-14.3,6.2-29.8,6.2-46.3V771.5c0-16.5-2.1-32-6.2-46.3s-10.8-26.7-19.9-37.2
			c-9.1-10.5-21-18.6-35.6-24.4c-14.6-5.8-32.4-8.7-53.4-8.7h-127.4c-21,0-38.7,2.9-53.4,8.7c-14.6,5.8-26.5,13.9-35.6,24.4
			c-9.1,10.5-15.7,22.9-19.9,37.2c-4.1,14.3-6.2,29.8-6.2,46.3v358.2c0,16.5,2.1,32,6.2,46.3s10.8,26.8,19.9,37.2
			c9.1,10.5,20.8,18.6,35.2,24.4c14.3,5.8,32,8.7,52.9,8.7h64.5L1411.1,1246.3L1411.1,1246.3z M1292.8,1216.5
			c-19.3,0-35.2-1.8-47.6-5.4s-22.1-9.5-29-17.8c-6.9-8.3-11.7-18.9-14.5-31.8c-2.8-12.9-4.1-29.1-4.1-48.4V788
			c0-14.3,1.4-27.8,4.1-40.5c2.8-12.7,7.7-23.7,14.9-33.1c7.2-9.4,17-16.7,29.4-21.9c12.4-5.2,28.3-7.9,47.6-7.9h52.9h52.9
			c19.3,0,35.2,2.6,47.6,7.9c12.4,5.2,22.2,12.6,29.4,21.9c7.2,9.4,12.1,20.4,14.9,33.1c2.8,12.7,4.1,26.2,4.1,40.5v325.1
			c0,19.3-1.4,35.4-4.1,48.4c-2.8,13-7.6,23.6-14.5,31.8c-6.9,8.3-16.5,14.2-29,17.8c-12.4,3.6-28.3,5.4-47.6,5.4L1292.8,1216.5
			L1292.8,1216.5z M1373.1,1106.5c6.6,0,10.9-1.9,12.8-5.8c1.9-3.9,2.9-9.1,2.9-15.7V816.1c0-6.6-1-11.9-2.9-15.7
			c-1.9-3.9-6.2-5.8-12.8-5.8h-52.9c-6.6,0-10.9,1.9-12.8,5.8c-1.9,3.9-2.9,9.1-2.9,15.7V1085c0,6.6,1,11.9,2.9,15.7
			c1.9,3.9,6.2,5.8,12.8,5.8H1373.1z"/>
		<path class="st0" d="M2068.6,1237.6c14.3-5.8,26.1-13.9,35.2-24.4c9.1-10.5,15.7-22.9,19.9-37.2c4.1-14.3,6.2-29.8,6.2-46.3V771.5
			c0-16.5-2.1-32-6.2-46.3s-10.8-26.7-19.9-37.2c-9.1-10.5-21-18.6-35.6-24.4c-14.6-5.8-32.4-8.7-53.4-8.7h-329.2v-110h318.5
			c40.2,0,74.9,4.4,103.8,13.2c29,8.8,52.8,23.2,71.5,43c18.7,19.9,32.5,45.6,41.4,77.3c8.8,31.7,13.2,70.5,13.2,116.2v311.8
			c0,44.1-4.4,82-13.2,113.7c-8.8,31.7-22.6,57.6-41.4,77.8c-18.8,20.1-42.6,34.9-71.5,44.3c-29,9.4-63.6,14.1-103.8,14.1h-318.5
			V821.1h104.3v425.2h225.8C2036.6,1246.3,2054.3,1243.4,2068.6,1237.6z M1685.6,794.6v-110h318.5c19.3,0,35.2,2.6,47.6,7.9
			c12.4,5.2,22.2,12.6,29.4,21.9c7.2,9.4,12.1,20.4,14.9,33.1c2.8,12.7,4.1,26.2,4.1,40.5v325.1c0,19.3-1.4,35.4-4.1,48.4
			c-2.8,13-7.6,23.6-14.5,31.8c-6.9,8.3-16.5,14.2-29,17.8c-12.4,3.6-28.3,5.4-47.6,5.4h-185.3V821.1h115.8V1085
			c0,14.3,6.9,21.5,20.7,21.5h18.2c6.6,0,12-1.9,16.1-5.8c4.1-3.9,6.2-9.1,6.2-15.7V816.1c0-6.6-2.1-11.9-6.2-15.7
			c-4.1-3.9-9.5-5.8-16.1-5.8H1685.6z"/>
		<path class="st0" d="M2286.2,794.6c0-34.7,6.3-67.4,19-98s29.6-57.1,50.9-79.4c21.2-22.3,45.8-40,73.6-52.9
			c27.8-12.9,56.7-19.4,86.4-19.4h313.5v110h-300.3c-21,0-39.7,4.1-56.2,12.4c-16.5,8.3-30.5,19-41.8,32.3
			c-11.3,13.2-20,28.3-26.1,45.1s-9.1,33.5-9.1,50v311.8c0,16.5,3,33.2,9.1,50c6.1,16.8,14.7,31.8,26.1,45.1
			c11.3,13.2,25.2,24,41.8,32.3c16.5,8.3,35.3,12.4,56.2,12.4h300.3v110h-313.5c-29.8,0-58.6-6.5-86.4-19.4
			c-27.9-12.9-52.4-30.6-73.6-52.9c-21.2-22.3-38.2-48.8-50.9-79.4c-12.7-30.6-19-63.3-19-98V794.6z M2425.9,936.9V811.2
			c0-14.3,2.3-29.1,7-44.3c4.7-15.2,11.7-28.8,21.1-40.9c9.4-12.1,21.2-22,35.6-29.8c14.3-7.7,31.1-11.6,50.5-11.6h289.5v110h-287
			c-3.3,0-6.8,1.9-10.3,5.8c-3.6,3.9-5.4,9.1-5.4,15.7v11.6h239.9v109.2H2425.9z M2425.9,964.2h340.8v110h-239.8v10.8
			c0,6.6,1.8,11.9,5.4,15.7c3.6,3.9,7,5.8,10.3,5.8h287v110h-289.5c-19.3,0-36.1-3.9-50.5-11.6c-14.3-7.7-26.2-17.6-35.6-29.8
			c-9.4-12.1-16.4-25.8-21.1-40.9c-4.7-15.2-7-29.9-7-44.3L2425.9,964.2L2425.9,964.2z"/>
		<path class="st0" d="M3429.3,1356.3h-313.5c-29.8,0-58.6-6.5-86.4-19.4c-27.9-12.9-52.4-30.6-73.6-52.9
			c-21.2-22.3-38.2-48.8-50.9-79.4c-12.7-30.6-19-63.3-19-98V544.8h110v561.6c0,16.5,3,33.2,9.1,50c6.1,16.8,14.7,31.8,26.1,45.1
			c11.3,13.2,25.2,24,41.8,32.3c16.5,8.3,35.3,12.4,56.2,12.4h300.3v110.1H3429.3z M3154.7,1106.5h274.6v110h-289.5
			c-19.3,0-36.1-3.9-50.5-11.6c-14.3-7.7-26.2-17.6-35.6-29.8c-9.4-12.1-16.4-25.8-21.1-40.9c-4.7-15.2-7-29.9-7-44.3V544.8h113.3
			V1085c0,6.6,1.8,11.7,5.4,15.3c3.6,3.6,7,5.4,10.3,5.4v0.8H3154.7z"/>
		<path class="st0" d="M543.4,993.2L425.2,676.4c-2.2-5.5-6.9-10.5-14.1-14.9c-7.2-4.4-15.2-6.6-24-6.6c-7.7,0-15.7,2.2-24,6.6
			c-8.3,4.4-13.2,9.4-14.9,14.9L110,1356.3H0L255.6,635c4.4-11.6,10.2-22.7,17.4-33.5c7.2-10.8,16.1-20.4,26.9-29
			c10.8-8.5,23.3-15.3,37.6-20.3c14.3-5,30.9-7.4,49.6-7.4c18.7,0,35,2.5,48.8,7.4c13.8,5,25.9,11.7,36.4,20.3
			c10.5,8.6,19.4,18.2,26.9,29c7.4,10.8,13.9,21.9,19.4,33.5l24.8,49.6l24.8-49.6c6.1-11.6,12.8-22.7,20.3-33.5s16.3-20.4,26.5-29
			c10.2-8.5,22.2-15.3,36-20.3c13.8-5,30-7.4,48.8-7.4c18.2,0,34.6,2.5,49.2,7.4c14.6,5,27.3,11.7,38,20.3
			c10.8,8.6,19.9,18.2,27.3,29c7.4,10.8,13.1,21.9,17,33.5l255.6,721.3h-110L738.7,676.4c-1.7-5.5-6.6-10.5-14.9-14.9
			c-8.3-4.4-16.3-6.6-24-6.6c-8.8,0-16.8,2.2-24,6.6c-7.2,4.4-11.9,9.4-14.1,14.9L543.4,993.2z M543.4,1356.3L387.1,939.4
			l-137.3,416.9h-110L366.4,697c1.1-3.3,3.9-6.2,8.3-8.7c4.4-2.5,8.5-3.7,12.4-3.7c3.9,0,7.9,1.2,12,3.7c4.1,2.5,6.7,5.4,7.9,8.7
			l136.5,376.4L679.9,697c1.1-3.3,3.7-6.2,7.9-8.7c4.1-2.5,8.1-3.7,12-3.7s8,1.2,12.4,3.7c4.4,2.5,7.2,5.4,8.3,8.7l226.6,659.2
			H841.2L699.8,939.4L543.4,1356.3z"/>
		<path class="st0" d="M1191.1,1342.2c-28.7-9.4-52.5-24.1-71.5-44.3c-19-20.1-33.1-46-42.2-77.8c-9.1-31.7-13.6-69.6-13.6-113.7
			V794.6c0-45.8,4.5-84.5,13.6-116.2c9.1-31.7,23.2-57.5,42.2-77.3c19-19.9,42.9-34.2,71.5-43c28.7-8.8,62.9-13.2,102.6-13.2h105.9
			c40.2,0,74.9,4.4,103.8,13.2c29,8.8,52.8,23.2,71.5,43c18.7,19.9,32.5,45.6,41.4,77.3c8.8,31.7,13.2,70.5,13.2,116.2v311.8
			c0,44.1-4.4,82-13.2,113.7c-8.8,31.7-22.6,57.6-41.4,77.8c-18.8,20.1-42.6,34.9-71.5,44.3c-29,9.4-63.6,14.1-103.8,14.1h-105.9
			C1254,1356.3,1219.8,1351.6,1191.1,1342.2z M1411.1,1246.3c20.9,0,38.6-2.9,52.9-8.7s26.1-13.9,35.2-24.4
			c9.1-10.5,15.7-22.9,19.9-37.2c4.1-14.3,6.2-29.8,6.2-46.3V771.5c0-16.5-2.1-32-6.2-46.3s-10.8-26.7-19.9-37.2
			c-9.1-10.5-21-18.6-35.6-24.4c-14.6-5.8-32.4-8.7-53.4-8.7h-127.4c-21,0-38.7,2.9-53.4,8.7c-14.6,5.8-26.5,13.9-35.6,24.4
			c-9.1,10.5-15.7,22.9-19.9,37.2c-4.1,14.3-6.2,29.8-6.2,46.3v358.2c0,16.5,2.1,32,6.2,46.3s10.8,26.8,19.9,37.2
			c9.1,10.5,20.8,18.6,35.2,24.4c14.3,5.8,32,8.7,52.9,8.7h64.5L1411.1,1246.3L1411.1,1246.3z M1292.8,1216.5
			c-19.3,0-35.2-1.8-47.6-5.4s-22.1-9.5-29-17.8c-6.9-8.3-11.7-18.9-14.5-31.8c-2.8-12.9-4.1-29.1-4.1-48.4V788
			c0-14.3,1.4-27.8,4.1-40.5c2.8-12.7,7.7-23.7,14.9-33.1c7.2-9.4,17-16.7,29.4-21.9c12.4-5.2,28.3-7.9,47.6-7.9h52.9h52.9
			c19.3,0,35.2,2.6,47.6,7.9c12.4,5.2,22.2,12.6,29.4,21.9c7.2,9.4,12.1,20.4,14.9,33.1c2.8,12.7,4.1,26.2,4.1,40.5v325.1
			c0,19.3-1.4,35.4-4.1,48.4c-2.8,13-7.6,23.6-14.5,31.8c-6.9,8.3-16.5,14.2-29,17.8c-12.4,3.6-28.3,5.4-47.6,5.4L1292.8,1216.5
			L1292.8,1216.5z M1373.1,1106.5c6.6,0,10.9-1.9,12.8-5.8c1.9-3.9,2.9-9.1,2.9-15.7V816.1c0-6.6-1-11.9-2.9-15.7
			c-1.9-3.9-6.2-5.8-12.8-5.8h-52.9c-6.6,0-10.9,1.9-12.8,5.8c-1.9,3.9-2.9,9.1-2.9,15.7V1085c0,6.6,1,11.9,2.9,15.7
			c1.9,3.9,6.2,5.8,12.8,5.8H1373.1z"/>
		<path class="st0" d="M2068.6,1237.6c14.3-5.8,26.1-13.9,35.2-24.4c9.1-10.5,15.7-22.9,19.9-37.2c4.1-14.3,6.2-29.8,6.2-46.3V771.5
			c0-16.5-2.1-32-6.2-46.3s-10.8-26.7-19.9-37.2c-9.1-10.5-21-18.6-35.6-24.4c-14.6-5.8-32.4-8.7-53.4-8.7h-329.2v-110h318.5
			c40.2,0,74.9,4.4,103.8,13.2c29,8.8,52.8,23.2,71.5,43c18.7,19.9,32.5,45.6,41.4,77.3c8.8,31.7,13.2,70.5,13.2,116.2v311.8
			c0,44.1-4.4,82-13.2,113.7c-8.8,31.7-22.6,57.6-41.4,77.8c-18.8,20.1-42.6,34.9-71.5,44.3c-29,9.4-63.6,14.1-103.8,14.1h-318.5
			V821.1h104.3v425.2h225.8C2036.6,1246.3,2054.3,1243.4,2068.6,1237.6z M1685.6,794.6v-110h318.5c19.3,0,35.2,2.6,47.6,7.9
			c12.4,5.2,22.2,12.6,29.4,21.9c7.2,9.4,12.1,20.4,14.9,33.1c2.8,12.7,4.1,26.2,4.1,40.5v325.1c0,19.3-1.4,35.4-4.1,48.4
			c-2.8,13-7.6,23.6-14.5,31.8c-6.9,8.3-16.5,14.2-29,17.8c-12.4,3.6-28.3,5.4-47.6,5.4h-185.3V821.1h115.8V1085
			c0,14.3,6.9,21.5,20.7,21.5h18.2c6.6,0,12-1.9,16.1-5.8c4.1-3.9,6.2-9.1,6.2-15.7V816.1c0-6.6-2.1-11.9-6.2-15.7
			c-4.1-3.9-9.5-5.8-16.1-5.8H1685.6z"/>
		<path class="st0" d="M2286.2,794.6c0-34.7,6.3-67.4,19-98s29.6-57.1,50.9-79.4c21.2-22.3,45.8-40,73.6-52.9
			c27.8-12.9,56.7-19.4,86.4-19.4h313.5v110h-300.3c-21,0-39.7,4.1-56.2,12.4c-16.5,8.3-30.5,19-41.8,32.3
			c-11.3,13.2-20,28.3-26.1,45.1s-9.1,33.5-9.1,50v311.8c0,16.5,3,33.2,9.1,50c6.1,16.8,14.7,31.8,26.1,45.1
			c11.3,13.2,25.2,24,41.8,32.3c16.5,8.3,35.3,12.4,56.2,12.4h300.3v110h-313.5c-29.8,0-58.6-6.5-86.4-19.4
			c-27.9-12.9-52.4-30.6-73.6-52.9c-21.2-22.3-38.2-48.8-50.9-79.4c-12.7-30.6-19-63.3-19-98V794.6z M2425.9,936.9V811.2
			c0-14.3,2.3-29.1,7-44.3c4.7-15.2,11.7-28.8,21.1-40.9c9.4-12.1,21.2-22,35.6-29.8c14.3-7.7,31.1-11.6,50.5-11.6h289.5v110h-287
			c-3.3,0-6.8,1.9-10.3,5.8c-3.6,3.9-5.4,9.1-5.4,15.7v11.6h239.9v109.2H2425.9z M2425.9,964.2h340.8v110h-239.8v10.8
			c0,6.6,1.8,11.9,5.4,15.7c3.6,3.9,7,5.8,10.3,5.8h287v110h-289.5c-19.3,0-36.1-3.9-50.5-11.6c-14.3-7.7-26.2-17.6-35.6-29.8
			c-9.4-12.1-16.4-25.8-21.1-40.9c-4.7-15.2-7-29.9-7-44.3L2425.9,964.2L2425.9,964.2z"/>
		<path class="st0" d="M3429.3,1356.3h-313.5c-29.8,0-58.6-6.5-86.4-19.4c-27.9-12.9-52.4-30.6-73.6-52.9
			c-21.2-22.3-38.2-48.8-50.9-79.4c-12.7-30.6-19-63.3-19-98V544.8h110v561.6c0,16.5,3,33.2,9.1,50c6.1,16.8,14.7,31.8,26.1,45.1
			c11.3,13.2,25.2,24,41.8,32.3c16.5,8.3,35.3,12.4,56.2,12.4h300.3v110.1H3429.3z M3154.7,1106.5h274.6v110h-289.5
			c-19.3,0-36.1-3.9-50.5-11.6c-14.3-7.7-26.2-17.6-35.6-29.8c-9.4-12.1-16.4-25.8-21.1-40.9c-4.7-15.2-7-29.9-7-44.3V544.8h113.3
			V1085c0,6.6,1.8,11.7,5.4,15.3c3.6,3.6,7,5.4,10.3,5.4v0.8H3154.7z"/>
		<path class="st0" d="M3838.9,1356.3h-110V794.7c0-16.5-3-33.2-9.1-50s-14.7-31.8-26.1-45.1c-11.3-13.2-25.2-24-41.8-32.3
			c-16.5-8.3-35.3-12.4-56.2-12.4h-122.5v-110h135.7c29.8,0,58.6,6.5,86.4,19.4c27.9,13,52.4,30.6,73.6,52.9
			c21.2,22.3,38.2,48.8,50.9,79.4c12.7,30.6,19,63.3,19,98v561.7H3838.9z M3598.2,1085V816.2c0-6.6-1.8-11.9-5.4-15.7
			c-3.6-3.9-7-5.8-10.3-5.8h-109.2v-110H3585c19.3,0,36.1,3.9,50.5,11.6c14.3,7.7,26.2,17.7,35.6,29.8c9.4,12.1,16.4,25.8,21.1,40.9
			c4.7,15.2,7,29.9,7,44.3v243.9 M3699.1,1005.3v351h-100.9v-282"/>
	</g>
</g>
</svg>
