<?xml version="1.0" encoding="utf-8"?>
<!-- Generator: Adobe Illustrator 26.3.1, SVG Export Plug-In . SVG Version: 6.00 Build 0)  -->
<svg version="1.1" id="Layer_1" xmlns="http://www.w3.org/2000/svg" xmlns:xlink="http://www.w3.org/1999/xlink" x="0px" y="0px"
	 viewBox="0 0 3839 1570.4" style="enable-background:new 0 0 3839 1570.4;" xml:space="preserve">
<style type="text/css">
	.st0{fill:#009A60;}
	.st1{fill:#D6B00A;}
	.st2{fill:#FFFFFF;}
	.st3{fill:#016CC6;}
	.st4{fill:#FF156A;}
	.st5{fill:#7201FF;}
	.st6{fill:#FE0000;}
	.st7{fill:#1A3591;}
	.st8{fill:#F03190;}
	.st9{fill:#00EDEA;}
	.st10{fill:#FFF800;}
	.st11{fill:#030508;}
	.st12{fill:#4ACF93;}
	.st13{fill:#F0E257;}
	.st14{clip-path:url(#SVGID_00000178887133598234598380000004297235306521217444_);}
	.st15{clip-path:url(#SVGID_00000046328876585802330770000010905913656934150069_);}
	.st16{clip-path:url(#SVGID_00000080914033185668244480000018103321495503634603_);}
	.st17{clip-path:url(#SVGID_00000107557238319992629230000008798377508899397298_);}
	.st18{fill:url(#SVGID_00000053519744520919977690000016265075293534133408_);}
	.st19{fill:url(#SVGID_00000128474257384768125600000015890810459886842033_);}
	.st20{fill:url(#SVGID_00000104670764229512171590000014903832127151858579_);}
	.st21{fill:url(#SVGID_00000109720688235035371230000008974937434973091519_);}
	.st22{fill:url(#SVGID_00000029728007907059568360000009806388593185602211_);}
	.st23{fill:url(#SVGID_00000122697062965173308310000013160199703248281240_);}
	.st24{fill:url(#SVGID_00000006701953169525548420000010924969246157731465_);}
	.st25{fill:url(#SVGID_00000072966242690093842470000013833782876659554228_);}
	.st26{fill:url(#SVGID_00000132798780264078411150000000810674236772132491_);}
	.st27{fill:url(#SVGID_00000085945037583958344460000013575001393813076151_);}
	.st28{fill:url(#SVGID_00000059300406015000722300000013582152563436571288_);}
	.st29{fill:url(#SVGID_00000117650362687520764310000002850974615812628919_);}
	.st30{fill:url(#SVGID_00000001661284990537203980000005095447341584677003_);}
	.st31{fill:url(#SVGID_00000078038614769897290240000007136985106983661696_);}
	.st32{fill:url(#SVGID_00000160162070217217569410000004447617675538309772_);}
	.st33{fill:url(#SVGID_00000011028460450614302970000015555222074458917273_);}
	.st34{fill:url(#SVGID_00000019662549860449320620000006204228367968942209_);}
	.st35{fill:url(#SVGID_00000006672865413873093700000014677360963836324228_);}
	.st36{fill:url(#SVGID_00000028304311386389063250000008782612839592670882_);}
	.st37{fill:url(#SVGID_00000125574760084359061880000009982942707923166393_);}
	.st38{fill:url(#SVGID_00000042697973183271202340000002746402532076575120_);}
	.st39{fill:url(#SVGID_00000052069201954294464920000009231740246623454138_);}
	.st40{fill:url(#SVGID_00000160186507226502323890000006170005526461596863_);}
	.st41{fill:url(#SVGID_00000065040116672776253180000010791973204677726353_);}
	.st42{fill:url(#SVGID_00000086673695700609341950000005416930974967656581_);}
	.st43{fill:url(#SVGID_00000110450938155646909010000013578168374526785948_);}
	.st44{fill:url(#SVGID_00000031912631553595025800000013129711267079417238_);}
	.st45{fill:url(#SVGID_00000117656113511058233240000014837242165974364574_);}
	.st46{fill:url(#SVGID_00000088842377532810660800000007935178647216136586_);}
	.st47{fill:url(#SVGID_00000157284263814040492440000002490567015827420342_);}
	.st48{clip-path:url(#SVGID_00000173871729321477311110000004564137391048747412_);}
	.st49{clip-path:url(#SVGID_00000122696802878899820920000003566106430389519287_);}
	.st50{clip-path:url(#SVGID_00000087401824979971567230000012456195016971571622_);}
	.st51{clip-path:url(#SVGID_00000137092062784514898720000011932435164444409770_);}
	.st52{clip-path:url(#SVGID_00000147190799429788662820000008142366905537469117_);}
	.st53{clip-path:url(#SVGID_00000016776370030547690950000014774666765892701327_);}
	.st54{clip-path:url(#SVGID_00000126325109533024237190000012943785569318696353_);}
	.st55{clip-path:url(#SVGID_00000016077839347288637020000001075599406220804024_);}
	.st56{clip-path:url(#SVGID_00000114785398103462099460000005549215321200687265_);}
	.st57{clip-path:url(#SVGID_00000041996097762521713790000010978243713244327857_);}
	.st58{clip-path:url(#SVGID_00000018954435808794413960000006233973463014715838_);}
	.st59{clip-path:url(#SVGID_00000108287847651750645060000016304825556547779463_);}
	.st60{clip-path:url(#SVGID_00000014616083499204849220000007662298543536437409_);}
	.st61{clip-path:url(#SVGID_00000080910705185670662550000007596380868179239856_);}
	.st62{clip-path:url(#SVGID_00000022540096691183815930000017756062877580494212_);}
	.st63{clip-path:url(#SVGID_00000064315958709971314470000018161109244317559453_);}
	.st64{clip-path:url(#SVGID_00000180328753736716434660000016958147824862809270_);}
	.st65{clip-path:url(#SVGID_00000183931707345910127380000007403804057158413957_);}
	.st66{clip-path:url(#SVGID_00000028324456123304251170000005067038758345449135_);}
</style>
<g>
	<g>
		<g>
			<path class="st2" d="M3614.5,316.8v597.4h-382V316.8H3008v565.5c0,141.6,114.8,256.4,256.4,256.4h350.1h171h53.5V316.8H3614.5z"
				/>
			<path class="st2" d="M0,578.4C0,722.9,117.1,840,261.6,840h305.5c20.5,0,37.1,16.6,37.1,37.1c0,20.5-16.6,37.1-37.1,37.1H0v224.5
				h567.2c144.5,0,261.6-117.1,261.6-261.6c0-144.5-117.1-261.6-261.6-261.6H261.6c-20.5,0-37.1-16.6-37.1-37.1
				c0-20.5,16.6-37.1,37.1-37.1h567.2V316.8H261.6C117.1,316.8,0,434,0,578.4z"/>
			<rect x="1785.9" y="316.8" class="st2" width="224.5" height="821.9"/>
			<rect x="1785.9" class="st2" width="224.5" height="224.5"/>
			<path class="st2" d="M2525.8,291c-72.5,0-140.7,18.3-200.4,50.4V0h-224.5v1138.8h224.5v-50.3c59.7,32.1,127.9,50.3,200.4,50.3
				c234.1,0,423.9-189.8,423.9-423.8C2949.6,480.8,2759.9,291,2525.8,291z M2525.8,915.3c-110.7,0-200.4-89.7-200.4-200.4
				s89.7-200.4,200.4-200.4s200.4,89.7,200.4,200.4S2636.4,915.3,2525.8,915.3z"/>
			<path class="st2" d="M1294.8,291c-234.1,0-423.9,189.8-423.9,423.9c0,234.1,189.8,423.8,423.9,423.8
				c170.5,0,317.1-100.9,384.4-246h-293.9c-27.3,13.9-57.8,22.5-90.5,22.5c-63,0-118.6-29.7-155.3-75.2h310.6H1669h30.8
				c12.2-39.6,18.8-81.6,18.8-125.1C1718.6,480.8,1528.9,291,1294.8,291z M1121.8,615.5c34.6-60.1,98.7-101,173-101
				s138.4,40.9,173,101H1121.8z"/>
		</g>
	</g>
	<g>
		<path class="st2" d="M388.5,1280.2h50.2v143.7l135.9-143.7h61.6l-118.8,122.9L641.5,1566h-60.8l-97.6-128.6l-44.5,45.7v82.9h-50.2
			V1280.2z"/>
		<path class="st2" d="M936.2,1278.2h46.5l125.7,287.8h-53.1l-29-69H891.3l-29.4,69h-51.4L936.2,1278.2z M1008.1,1452.5l-49.4-114.3
			l-49,114.3H1008.1z"/>
		<path class="st2" d="M1292.5,1280.2h50.2V1566h-50.2V1280.2z"/>
		<path class="st2" d="M1555.6,1280.2h50.2V1399h136.3v-118.8h50.2V1566h-50.2v-120.4h-136.3V1566h-50.2V1280.2z"/>
		<path class="st2" d="M2100.5,1278.2h46.5l125.7,287.8h-53.1l-29-69h-135.1l-29.4,69h-51.4L2100.5,1278.2z M2172.4,1452.5
			l-49.4-114.3l-49,114.3H2172.4z"/>
		<path class="st2" d="M2486.9,1326.8h-90.6v-46.5h231.8v46.5h-90.6V1566h-50.6V1326.8z"/>
		<path class="st2" d="M2794.9,1524.3l30.2-35.9c27.3,23.7,54.7,37.1,90.2,37.1c31,0,50.6-14.3,50.6-35.9v-0.8
			c0-20.4-11.4-31.4-64.5-43.7c-60.8-14.7-95.1-32.7-95.1-85.3v-0.8c0-49,40.8-82.9,97.6-82.9c41.6,0,74.7,12.7,103.7,35.9l-26.9,38
			c-25.7-19.2-51.4-29.4-77.6-29.4c-29.4,0-46.5,15.1-46.5,33.9v0.8c0,22,13.1,31.8,67.8,44.9c60.4,14.7,91.8,36.3,91.8,83.7v0.8
			c0,53.5-42,85.3-102,85.3C2870.4,1570,2829.1,1554.9,2794.9,1524.3z"/>
		<path class="st2" d="M3206,1444.7v-164.5h50.2v162.5c0,53.1,27.3,81.6,72.2,81.6c44.5,0,71.8-26.9,71.8-79.6v-164.5h50.2v162
			c0,85.3-48.2,128.2-122.9,128.2C3253.4,1570.4,3206,1527.6,3206,1444.7z"/>
	</g>
</g>
</svg>
