<?xml version="1.0" encoding="utf-8"?>
<!-- Generator: Adobe Illustrator 26.0.2, SVG Export Plug-In . SVG Version: 6.00 Build 0)  -->
<svg version="1.1" id="Layer_1" xmlns="http://www.w3.org/2000/svg" xmlns:xlink="http://www.w3.org/1999/xlink" x="0px" y="0px"
	 viewBox="0 0 3839 402.1" style="enable-background:new 0 0 3839 402.1;" xml:space="preserve">
<style type="text/css">
	.st0{display:none;}
	.st1{display:inline;}
	.st2{fill:#C2AC6D;}
	.st3{fill:#FFFFFF;}
	.st4{fill:#F91716;}
	.st5{fill-rule:evenodd;clip-rule:evenodd;fill:#F91716;}
	.st6{fill-rule:evenodd;clip-rule:evenodd;}
	.st7{fill-rule:evenodd;clip-rule:evenodd;fill:#FFFFFF;}
</style>
<g>
	<g>
		<g>
			<path class="st3" d="M385,9.6H268.3v15.3h15.2c20.4,0,36.9,19,36.9,39.3v189.4L121.5,9.6H0v15.3c27.1,0,48.5,24.5,48.5,51.7V342
				c0,27.1-28.6,36.2-48.5,36.2v15.3h131.9v-15.3c-24.7-0.1-37.8-3.5-46.2-11.5c-8.4-8-10.7-18.6-10.7-33.2V84.7l257.7,314.2h14.1
				V64.6c0-19.8,15.5-36.6,38.3-37.4V9.6z"/>
			<circle class="st3" cx="1163.4" cy="200.3" r="44.5"/>
			<path class="st3" d="M1414.1,213.9v18.5h14.5c23.5,0,30.2,11.4,30.2,31.6v90.7c-5.4,6.6-23.8,14.9-49.7,14.9
				c-5.3,0-35.3-0.6-57.8-19c-23.5-19.3-39.3-58.3-39.3-151.1c0-120.8,42.5-171.9,104.1-171.9c20,0,88,13.5,116.9,100.9h18.1V2.5
				H1534c-2.2,17-15.6,26.4-40.9,15.8C1455,2.4,1420.8,0,1395.8,0c-98.5,0-182.5,91.3-182.5,200.3c0,125.6,94.8,199.1,196.6,199.1
				c48.3,0,99.4-11.1,139.9-31.6V264.1c0-24.3,17-31.6,39.8-31.6v-18.5L1414.1,213.9L1414.1,213.9z"/>
			<g>
				<path class="st3" d="M709.4,274.9c-9.5,52.6-54.9,93.7-105.8,92.4h-43.9c-13.8,0-25-11.2-25-25V207.8h12
					c35.9,0,58.8,30.1,58.8,81.8h15.8v-91.6v-4.7v-89.9h-15.8c0,45.5-19.2,78.3-58.9,78.3h-12V32.6h63.1c85,0,87.9,75.7,87.9,85.5
					h17V35.9V9.6H396.3v15.3H418c16.5,0,29.9,15.6,29.9,32.1v282.6c0,29.8-19.5,36.5-36.1,36.5h-15.5v17.4h51.5H707l17.5-118.5
					H709.4z"/>
				<path class="st3" d="M917.9,5.5c-110.5,0-195.5,81.3-195.5,198.3s85.1,198.3,195.5,198.3c110.5,0,195.6-81.3,195.6-198.3
					S1028.3,5.5,917.9,5.5z M917.9,376.5c-53.1,0-96-48.6-96-172.7s43-172.7,96-172.7c53.1,0,96,48.6,96,172.7
					C1014,327.9,970.9,376.5,917.9,376.5z"/>
			</g>
			<g>
				<path class="st3" d="M1893.7,274.9c-9.5,52.6-54.9,93.7-105.8,92.4H1744c-13.8,0-25-11.2-25-25V207.8h12
					c35.9,0,58.8,30.1,58.8,81.8h15.8v-91.6v-4.7v-89.9h-15.8c0,45.5-19.2,78.3-58.9,78.3h-12V32.6h63.1c85,0,87.9,75.7,87.9,85.5
					h17V35.9V9.6h-306.3v15.3h21.6c16.5,0,29.9,15.6,29.9,32.1v282.6c0,29.8-19.5,36.5-36.1,36.5h-15.5v17.4h51.5h259.1l17.5-118.5
					H1893.7z"/>
				<path class="st3" d="M2102.2,5.5c-110.5,0-195.5,81.3-195.5,198.3s85.1,198.3,195.5,198.3c110.5,0,195.6-81.3,195.6-198.3
					S2212.6,5.5,2102.2,5.5z M2102.2,376.5c-53.1,0-96-48.6-96-172.7s43-172.7,96-172.7c53.1,0,96,48.6,96,172.7
					C2198.3,327.9,2155.3,376.5,2102.2,376.5z"/>
			</g>
		</g>
	</g>
	<g>
		<g>
			<g>
				<path class="st7" d="M3692,161.5h-254.3V89.6h159.8l15.8,27.4h109l-30.5-52.8c-19.5-33.8-55.6-54.6-94.5-54.6h-190.1
					c-27,0-69.8,21.9-69.8,48.9V196c0,27,47.3,45.5,81.7,45.5h266.2l41.5,71.9h-289v-27.4h-100.4v47.5c0,33.1,20.1,59.9,78.9,59.9
					h364c45.2,0,73.5-48.9,50.8-88.1L3776,210C3758.6,180,3726.7,161.5,3692,161.5z"/>
				<g>
					<path class="st7" d="M2782.5,39.2L2686.1,206V68.8c0-32.7-26.5-59.2-59.2-59.2h-39.3c-21.1,0-40.7,11.3-51.2,29.6l-204.6,354.3
						h109l150.9-261.4v208.7c0,29.1,23.6,52.6,52.6,52.6h12.1c18.8,0,36.2-10.1,45.6-26.3l128.6-222.8v249.1H2931V58.6
						c0-35.1-33.3-49-60.4-49h-37C2812.6,9.6,2793,20.9,2782.5,39.2z"/>
				</g>
				<g>
					<path class="st7" d="M3201.5,346.4L3327.4,9.6h-94.6L3133.5,275L3034.3,9.6h-94.6l125.9,336.8c10.6,28.3,37.6,47.1,67.9,47.1
						l0,0C3163.8,393.5,3190.9,374.7,3201.5,346.4z"/>
				</g>
			</g>
		</g>
	</g>
</g>
</svg>
