<?xml version="1.0" encoding="utf-8"?>
<!-- Generator: Adobe Illustrator 26.3.1, SVG Export Plug-In . SVG Version: 6.00 Build 0)  -->
<svg version="1.1" id="Layer_1" xmlns="http://www.w3.org/2000/svg" xmlns:xlink="http://www.w3.org/1999/xlink" x="0px" y="0px"
	 viewBox="0 0 3839 1368.9" style="enable-background:new 0 0 3839 1368.9;" xml:space="preserve">
<style type="text/css">
	.st0{fill:#FFFFFF;}
</style>
<g>
	<g>
		<polygon class="st0" points="2770.3,436.5 2670.9,436.5 2670.9,754.7 2670.9,854 2770.3,854 2985.7,854 2985.7,754.7 
			2770.3,754.7 		"/>
		<polygon class="st0" points="3739.7,661.3 3564.9,436.5 3564.9,436.5 3465.6,436.5 3465.6,854 3564.9,854 3564.9,629.2 
			3739.7,854 3839,854 3839,789.1 3839,436.5 3739.7,436.5 		"/>
		<path class="st0" d="M2520.6,436.5h-259.6V854h99.3V726.8h160.2c63.6,0,115.1-51.5,115.1-115.1v-60.1
			C2635.7,488,2584.2,436.5,2520.6,436.5z M2536.4,601.6c0,14.3-11.6,25.9-25.9,25.9h-150.2v-91.7h150.2c14.3,0,25.9,11.6,25.9,25.9
			V601.6z"/>
		<path class="st0" d="M1812.2,551.6c0-63.6-51.5-115.1-115.1-115.1h-167.5c-63.6,0-115.1,51.5-115.1,115.1v187.3
			c0,63.6,51.5,115.1,115.1,115.1h167.5c63.6,0,115.1-51.5,115.1-115.1V551.6z M1712.9,728.8c0,14.3-11.6,25.9-25.9,25.9h-147.4
			c-14.3,0-25.9-11.6-25.9-25.9V561.7c0-14.3,11.6-25.9,25.9-25.9H1687c14.3,0,25.9,11.6,25.9,25.9V728.8z"/>
		<polygon class="st0" points="1002.9,535.8 1146.2,535.8 1146.2,854 1245.6,854 1245.6,535.8 1388.9,535.8 1388.9,436.5 
			1002.9,436.5 		"/>
		<path class="st0" d="M3167.2,436.5L3013.6,854h105.8l20.9-56.8h176.7l20.9,56.8h105.8l-153.6-417.5H3167.2z M3176.9,697.9
			l51.8-140.9l51.8,140.9H3176.9z"/>
		<path class="st0" d="M1963.6,436.5L1810,854h105.8l20.9-56.8h176.7l20.9,56.8h105.8l-153.6-417.5H1963.6z M1973.3,697.9
			l51.8-140.9l51.8,140.9H1973.3z"/>
	</g>
	<g>
		<path class="st0" d="M218.2,0v199.3h199.3V0H218.2z M371.9,153.7h-108v-108h108V153.7z"/>
		<path class="st0" d="M218.2,218.2v199.3h199.3V218.2H218.2z M371.9,371.9h-108v-108h108V371.9z"/>
		<path class="st0" d="M218.2,436.5v199.3h199.3V436.5H218.2z M371.9,590.2h-108v-108h108V590.2z"/>
		<path class="st0" d="M218.2,654.7V854h199.3V654.7H218.2z M371.9,808.4h-108v-108h108V808.4z"/>
		<path class="st0" d="M436.5,0v199.3h199.3V0H436.5z M590.2,153.7h-108v-108h108V153.7z"/>
		<path class="st0" d="M436.5,218.2v199.3h199.3V218.2H436.5z M590.2,371.9h-108v-108h108V371.9z"/>
		<path class="st0" d="M436.5,436.5v199.3h199.3V436.5H436.5z M590.2,590.2h-108v-108h108V590.2z"/>
		<path class="st0" d="M436.5,654.7V854h199.3V654.7H436.5z M590.2,808.4h-108v-108h108V808.4z"/>
		<path class="st0" d="M0,218.2v199.3h199.3V218.2H0z M153.7,371.9h-108v-108h108V371.9z"/>
		<path class="st0" d="M0,436.5v199.3h199.3V436.5H0z M153.7,590.2h-108v-108h108V590.2z"/>
		<path class="st0" d="M199.3,0L199.3,0C89.2,0,0,89.2,0,199.3l0,0l0,0v0h199.3V0L199.3,0z M153.7,153.7H52.5
			c15-48.4,52.8-86.2,101.2-101.2V153.7z"/>
		<path class="st0" d="M0,654.7L0,654.7C0,764.8,89.2,854,199.3,854l0,0l0,0h0V654.7H0L0,654.7z M153.7,700.4v101.2
			c-48.4-15-86.2-52.8-101.2-101.2H153.7z"/>
		<path class="st0" d="M854,199.3L854,199.3C854,89.2,764.8,0,654.7,0l0,0l0,0h0v199.3H854L854,199.3z M700.4,153.7V52.5
			c48.4,15,86.2,52.8,101.2,101.2H700.4z"/>
		<path class="st0" d="M654.7,417.5L654.7,417.5c110.1,0,199.3-89.2,199.3-199.3l0,0l0,0v0H654.7V417.5L654.7,417.5z M700.4,263.9
			h101.2c-15,48.4-52.8,86.2-101.2,101.2V263.9z"/>
		<path class="st0" d="M654.7,854L654.7,854C764.8,854,854,764.8,854,654.7l0,0l0,0v0H654.7V854L654.7,854z M700.4,700.4h101.2
			c-15,48.4-52.8,86.2-101.2,101.2V700.4z"/>
	</g>
	<g>
		<g>
			<g>
				<path class="st0" d="M918.5,1368.9c-90.9,0-157.9-71.5-157.9-162.4c0-90,66.6-163.3,159.3-163.3c57.1,0,91.3,20.2,122.8,49.9
					l-24.3,26.1c-26.5-25.2-56.2-43.2-99-43.2c-69.7,0-121.9,56.2-121.9,129.6c0,73.4,52.6,130.5,121.9,130.5
					c43.2,0,71.5-16.6,101.7-45.4l23.4,23C1011.5,1346.8,975.5,1368.9,918.5,1368.9z"/>
				<path class="st0" d="M1120,1048.6h35.5v282h177.3v32.8h-212.7v-314.8H1120z"/>
				<path class="st0" d="M1705.3,1363.5h-38.2l-36.9-83.2h-171.4l-37.3,83.2H1385l143.5-317.1h33.3L1705.3,1363.5z M1544.6,1087.7
					l-72,160.6h143.5L1544.6,1087.7z"/>
				<path class="st0" d="M1887.4,1189c70.2,15.3,102.6,40.9,102.6,89.5c0,54.5-45,89.5-107.5,89.5c-49.9,0-90.9-16.7-128.7-50.4
					l22-26.1c32.8,29.7,64.3,44.5,108,44.5c42.3,0,70.2-22,70.2-54c0-29.7-15.8-46.3-81.9-60.3c-72.4-15.8-105.7-39.1-105.7-91.3
					c0-50.4,43.6-86.4,103.5-86.4c45.9,0,78.7,13,110.7,38.7l-20.7,27.4c-29.2-23.8-58.5-34.2-90.9-34.2c-40.9,0-67,22.5-67,51.3
					C1801.9,1157.5,1818.1,1174.1,1887.4,1189z"/>
				<path class="st0" d="M2184.4,1189c70.2,15.3,102.6,40.9,102.6,89.5c0,54.5-45,89.5-107.5,89.5c-49.9,0-90.9-16.7-128.7-50.4
					l22-26.1c32.8,29.7,64.3,44.5,108,44.5c42.3,0,70.2-22,70.2-54c0-29.7-15.8-46.3-81.9-60.3c-72.4-15.8-105.7-39.1-105.7-91.3
					c0-50.4,43.6-86.4,103.5-86.4c45.9,0,78.7,13,110.7,38.7l-20.7,27.4c-29.2-23.8-58.5-34.2-90.9-34.2c-40.9,0-67,22.5-67,51.3
					C2099.1,1157.5,2115.1,1174.1,2184.4,1189z"/>
				<path class="st0" d="M2411.6,1048.6v314.9h-35.5v-314.9H2411.6L2411.6,1048.6z"/>
				<path class="st0" d="M2661.2,1368.9c-90.9,0-157.9-71.5-157.9-162.4c0-90,66.6-163.3,159.3-163.3c57.1,0,91.3,20.2,122.8,49.9
					l-24.3,26.1c-26.5-25.2-56.2-43.2-99-43.2c-69.7,0-121.9,56.2-121.9,129.6c0,73.4,52.6,130.5,121.9,130.5
					c43.2,0,71.5-16.6,101.7-45.4l23.4,23C2754.4,1346.8,2718.4,1368.9,2661.2,1368.9z"/>
				<path class="st0" d="M2975.8,1189c70.2,15.3,102.6,40.9,102.6,89.5c0,54.5-45,89.5-107.5,89.5c-49.9,0-90.9-16.7-128.7-50.4
					l22-26.1c32.8,29.7,64.3,44.5,108,44.5c42.3,0,70.2-22,70.2-54c0-29.7-15.8-46.3-81.9-60.3c-72.4-15.8-105.7-39.1-105.7-91.3
					c0-50.4,43.6-86.4,103.5-86.4c45.9,0,78.7,13,110.7,38.7l-20.7,27.4c-29.2-23.8-58.5-34.2-90.9-34.2c-40.9,0-67,22.5-67,51.3
					C2890.2,1157.5,2906.4,1174.1,2975.8,1189z"/>
			</g>
		</g>
	</g>
</g>
</svg>
