<?xml version="1.0" encoding="utf-8"?>
<!-- Generator: Adobe Illustrator 26.2.1, SVG Export Plug-In . SVG Version: 6.00 Build 0)  -->
<svg version="1.1" id="Layer_1" xmlns="http://www.w3.org/2000/svg" xmlns:xlink="http://www.w3.org/1999/xlink" x="0px" y="0px"
	 viewBox="0 0 3839 849" style="enable-background:new 0 0 3839 849;" xml:space="preserve">
<style type="text/css">
	.st0{fill:#FFFFFF;}
</style>
<g>
	<g>
		<path class="st0" d="M3279.5,834.3c-4.8,0-9.3-2.3-12.1-6.3c-2.8-3.9-3.4-9-1.8-13.5l4.7-13.1l8.8-24.3H3239
			c-4.8,0-9.3-2.3-12.1-6.3c-2.8-3.9-3.4-9-1.8-13.5l4.7-13.1l32.2-89.1h-64.3c-18.6,0-36.5-3.8-53.3-11.2
			c-4.8-2.2-9.5-4.6-13.9-7.3l-13.3,36.4c-35.1,96.4-127.6,161.1-230.3,161.1h-191.3c-51.5,0-99.9-25.2-129.6-67.4
			c-3.6-5.1-6.9-10.5-9.8-16.1c-33.6,51.4-91.5,83.4-153.9,83.4H2211c-29.7,0-58.1-10.3-80.8-28.8l-4.6,12.7l-2.4,6.5
			c-2.1,5.8-7.7,9.7-13.9,9.7h-271.2c-37.3,0-72.6-16.3-96.8-44.3c-12.2,10.4-25.8,19.3-40.1,26.2c-24.6,11.9-52,18.1-79.3,18.1
			h-191.3c-39.9,0-77.5-18.7-101.6-50.2c-34,32.1-78.9,50.1-125.9,50.1h-191.3c-29.7,0-58.1-10.3-80.8-28.8l-4.6,12.7l-2.4,6.5
			c-2.1,5.8-7.7,9.7-13.9,9.7H639c-33.4,0-64.8-12.8-88.4-35.5c-23.5,22.5-55.2,35.5-87.8,35.5h-74c-20.1,0-39.3-4.5-57-13.4
			c-4.7-2.3-9.3-5-13.8-8l-1.9,5.3l-2.4,6.5c-2.1,5.8-7.7,9.7-13.9,9.7H70.1c-4.8,0-9.3-2.3-12.1-6.3c-2.8-3.9-3.4-9-1.8-13.5
			l4.7-13.1l8.8-24.2H29.5c-4.8,0-9.3-2.3-12.1-6.3s-3.4-9-1.8-13.5l4.7-13.2L279.7,30.9l2.4-6.5c2.1-5.8,7.7-9.7,13.9-9.7h264.2
			c2.7,0,5.3,0.7,7.5,2.1c2.2-1.3,4.8-2.1,7.5-2.1h400.3c5.1,0,9.9,2.7,12.6,7l2.9,4.6l28.5,45.9c3.8,0.9,7.1,3.2,9.2,6.6l0.8,1.2
			c0,0,85.2-61,85.3-61l2.6-1.8c2.5-1.7,5.4-2.6,8.4-2.6h549.4c33.3,0,65.1,13.8,87.9,37.7c30.6-24.4,68.3-37.7,107.7-37.7h726.9
			c39.6,0,76.7,19.4,99.4,51.8c3.7,5.4,7,11.1,9.8,17c18.5-17.8,39.9-32.8,62.8-43.9c33.2-16.2,70.3-24.8,107.1-24.8h892.1
			c4.8,0,9.3,2.4,12.1,6.3c2.8,4,3.4,9,1.8,13.5l-4.8,13.2l-8.7,24.1h40.3c4.7,0,9.2,2.3,12,6.1c2.8,3.9,3.5,8.8,2,13.3l-4.4,13.3
			c0,0.1-0.1,0.3-0.1,0.4l-259.5,713.2l-2.4,6.5c-2.1,5.8-7.7,9.7-13.9,9.7H3279.5z M802.2,344.7l26.3-72.2l-0.2-0.4l-26.4,72.6
			H802.2z"/>
		<path class="st0" d="M3768.9,29.5l-4.8,13.2l-16,43.9h47.4h14l-4.4,13.3l-259.5,713.2l-2.4,6.4h-6.9h-242.8h-13.9l4.7-13.1
			l16-44.1h-47.4H3239l4.7-13.1l39.4-108.9h-85.4c-16.5,0-32.4-3.3-47.3-9.9c-9.8-4.4-19-10.1-27.2-17l-19.9,54.5
			c-33,90.6-120,151.4-216.4,151.4h-191.3c-46.7,0-90.6-22.8-117.5-61.1c-6.6-9.5-12-19.7-16.2-30.5c-2.2-1.9-4.3-3.8-6.5-5.9
			c-27.5,58.9-87.3,97.5-153.1,97.5H2211c-33.6,0-65.4-15.1-86.8-40.7l-12.5,34.3l-2.4,6.4h-6.9h-264.3c-36.8,0-71.5-18-92.7-48.2
			c-0.7-1-1.5-2.1-2.2-3.2c-14,14.3-30.5,26.2-48.4,34.9c-22.6,10.9-47.9,16.6-72.9,16.6h-191.3c-36.8,0-71.5-18-92.7-48.2
			c-2.5-3.5-4.6-7.1-6.7-10.9c-32,37.2-78.8,59.1-128.2,59.1h-191.3c-33.6,0-65.4-15.1-86.8-40.7l-12.5,34.3l-2.4,6.4h-6.9H639
			c-34.5,0-67.1-15.8-88.4-42.6c-21.1,26.6-53.6,42.6-87.8,42.6h-74c-17.7,0-34.7-3.9-50.3-11.8c-9.9-4.9-19.2-11.5-27.3-19.2
			l-9,24.6l-2.4,6.4H293H84.1h-14l4.7-13.1l16-44H43.5h-14l4.7-13.2L293.6,35.9l2.4-6.4h6.9h243.3h14l-4.7,13.2l-16,43.9h15.1
			l18.3-50.7l2.4-6.4h6.9h388h5.4l2.9,4.6l32.6,52.6h5.1l2.9,4.6l6.2,10l98-70.1l2.6-1.8h3.2h546.3c34.2,0,66.2,16.3,86.3,43.9
			c29.4-28.1,68.6-43.9,109.4-43.9h726.9c34.7,0,67.3,16.9,87.3,45.5c6.6,9.6,11.6,20.1,14.9,31.3c1.1,0.8,2.3,1.6,3.3,2.5
			c20.3-23.2,45.3-42.4,73-55.9c31.2-15.3,66.1-23.3,100.6-23.3H3260h13.9h4.4h476.6H3768.9 M780.7,359.5h31.8l32.3-88.7l-20.1-32.2
			L780.7,359.5 M1137.9,359.7h23.5l10.5-29.1l-31.7,22.6L1137.9,359.7 M3809.5,86.6L3809.5,86.6 M3768.9,0h-14h-476.6h-4.4H3260
			h-383.2c-39.1,0-78.4,9.1-113.6,26.3c-18.6,9.1-36.3,20.6-52.5,34c-0.5-0.7-0.9-1.4-1.4-2.1c0-0.1-0.1-0.1-0.1-0.2
			C2683.8,21.7,2642.1,0,2597.7,0h-726.9c-24,0-47.6,4.6-70,13.6c-13,5.2-25.2,11.8-36.6,19.6c-8.3-7.2-17.5-13.4-27.3-18.4
			C1717.9,5.1,1696.5,0,1675.1,0h-546.3h-3.2c-6,0-11.9,1.8-16.8,5.3l-2.6,1.8c-0.1,0.1-0.3,0.2-0.4,0.3l-75.2,53.8
			c-0.5-0.3-0.9-0.5-1.4-0.7l-25.9-41.8l-2.8-4.6c-5.4-8.7-14.9-14-25.1-14h-5.4h-388h-6.9c-2.6,0-5.1,0.3-7.5,1c-2.4-0.6-5-1-7.5-1
			h-14H302.9H296c-12.4,0-23.4,7.7-27.7,19.3l-2.4,6.4c0,0,0,0.1,0,0.1L6.5,738.7c0,0,0,0.1,0,0.1L1.7,752c-3.2,9-1.9,19.1,3.7,27
			c5.5,7.9,14.5,12.5,24.2,12.5h14h5.1l-1.6,4.4c0,0,0,0.1,0,0.1l-4.7,13.1c-3.3,9.1-1.9,19.1,3.6,27c5.5,7.9,14.6,12.6,24.2,12.6
			h14H293h6.8c10.7,0,20.4-5.8,25.6-14.8c19.7,9.8,41,14.8,63.3,14.8h74c21.2,0,42.6-5,61.8-14.3c9.2-4.5,18-10,26-16.4
			c8.2,6.5,17.1,12,26.4,16.6c19.2,9.3,40.6,14.2,62,14.2h264.3h6.9c12.4,0,23.4-7.7,27.7-19.3l0.4-1.2c22,13.3,47.3,20.5,73.6,20.5
			h191.3c45.6,0,89.4-15.7,124.4-44c26.7,27.9,63.9,44.1,103.1,44.1H1622c29.5,0,59.2-6.8,85.7-19.6c11.4-5.5,22.2-12,32.3-19.5
			c26.2,24.9,61.3,39.1,98.1,39.1h264.3h6.9c12.4,0,23.4-7.7,27.7-19.3l0.4-1.2c22,13.3,47.3,20.5,73.6,20.5h191.3
			c59.7,0,115.7-27.2,152.9-71.9c32.5,45.1,84.8,72,140.4,72H2887c108.8,0,207-68.7,244.2-170.9l7.5-20.5
			c18.6,8.2,38.5,12.4,59.1,12.4h43.3l-25.1,69.3l-4.7,13.1c-3.3,9.1-1.9,19.1,3.6,27c5.5,7.9,14.6,12.6,24.2,12.6h13.9h5.3
			l-1.6,4.5l-4.7,13.1c-3.3,9.1-1.9,19.1,3.6,27c5.5,7.9,14.6,12.6,24.2,12.6h13.9h242.8h6.9c12.4,0,23.4-7.7,27.7-19.3l2.4-6.4
			c0,0,0-0.1,0-0.1L3832.8,110c0.1-0.3,0.2-0.5,0.3-0.8l4.2-12.6c1.1-3.1,1.8-6.5,1.8-10.1c0-16.3-13.2-29.5-29.5-29.5h0h-14h-5.2
			l1.5-4.2h0l4.8-13.2c3.3-9.1,2-19.2-3.5-27.1C3787.6,4.7,3778.5,0,3768.9,0L3768.9,0z"/>
	</g>
	<g>
		<g>
			<polygon points="903.4,435.4 1053.1,435.4 1095.6,319.1 1345.8,140.4 1183.6,140.4 1046.9,238 986.3,140.4 832,140.4 
				944.7,321.8 			"/>
			<polygon points="458.2,321 587.7,321 546.1,435.4 695.9,435.4 803.2,140.4 653.5,140.4 611.8,254.7 482.5,254.7 524,140.4 
				374.2,140.4 266.7,435.4 416.7,435.4 			"/>
			<path d="M1402.2,435.4l32.3-88.5h213.8c40.8,0,77.2-25.5,91.1-63.8l26.1-71.8c12.5-34.5-13-71-49.6-71h-356l-107.4,295.1H1402.2
				L1402.2,435.4z M1485.5,206.7h92.9c18.9,0,32.1,18.8,25.6,36.5l0,0c-8.2,22.4-29.5,37.4-53.5,37.4h-91.9L1485.5,206.7z"/>
			<path d="M2570.6,346.9c40.8,0,77.2-25.5,91.1-63.8l26.1-71.8c12.5-34.5-13-71-49.6-71h-356l-107.4,295.1h150l32.3-88.5h40.3
				l63.9,88.5h150l-63.9-88.5L2570.6,346.9L2570.6,346.9z M2381,280.6l26.9-73.9h92.9c18.9,0,32.1,18.8,25.6,36.5l0,0
				c-8.2,22.4-29.5,37.4-53.5,37.4H2381L2381,280.6z"/>
			<path d="M1826.2,435.4h283l24.1-66.3h-228.8l17.5-48h228.8l24.1-66.3h-228.8l17.5-48h228.8l24.1-66.3h-305.2
				c-44.1,0-83.6,27.6-98.7,69.1l-49.5,136C1747.3,389.2,1779.7,435.4,1826.2,435.4z"/>
			<path d="M750.8,542.5h202.9l26.3-72.3H742.5c-48.4,0-91.8,30.3-108.4,75.9l-50.7,139.4c-14.1,38.8,14.6,79.8,55.8,79.8h233.5
				l26.3-72.3h-203l14.3-39.3h202.9l26.3-72.3H736.5L750.8,542.5z"/>
			<path d="M1306.4,470.3h-191.3c-48.4,0-91.8,30.3-108.4,75.9l-50.6,139.4c-14.1,38.8,14.6,79.8,55.8,79.8h191.3
				c48.4,0,91.8-30.3,108.4-75.9l50.7-139.4C1376.4,511.4,1347.6,470.3,1306.4,470.3z M1194.8,693.3h-125.9l54.8-150.7h125.9
				L1194.8,693.3z"/>
			<path d="M1949.7,542.5h202.9l26.3-72.3h-237.6c-48.4,0-91.8,30.3-108.4,75.9l-50.8,139.4c-14.1,38.8,14.6,79.8,55.8,79.8h233.5
				l26.3-72.3h-202.9l14.3-39.3H2112l26.3-72.3h-202.9L1949.7,542.5z"/>
			<path d="M2505.3,470.3H2314c-48.4,0-91.8,30.3-108.4,75.9l-50.7,139.4c-14.1,38.8,14.6,79.8,55.8,79.8h191.3
				c48.4,0,91.8-30.3,108.4-75.9l50.7-139.4C2575.2,511.4,2546.6,470.3,2505.3,470.3z M2393.6,693.3h-125.9l54.8-150.7h125.9
				L2393.6,693.3z"/>
			<path d="M1613.5,693.3h-125.9l54.8-150.7h241.4l26.3-72.3H1534c-48.4,0-91.8,30.3-108.4,75.9l-50.7,139.4
				c-14.1,38.8,14.6,79.8,55.8,79.8H1622c48.4,0,91.8-30.3,108.4-75.9l27.3-74.7h-115.4L1613.5,693.3z"/>
			<path d="M495.7,470.3L432.8,643l-11.7-119.9c-3-29.9-28.1-52.7-58.2-52.7h-67.8c-24.5,0-46.5,15.4-54.9,38.4l-93.4,256.6h115.4
				l58.1-159.3l10.4,106.5c3,29.9,28.1,52.7,58.2,52.7h73.9c24.5,0,46.5-15.4,54.9-38.4L611,470.3L495.7,470.3L495.7,470.3z"/>
			<path d="M3024.3,374.3l-165.2,0.3l19.9-54.7c6.3-17.2,22.5-28.7,41-28.7h263l54.9-150.8h-320.5c-74.3,0-140.7,46.6-166,116.5
				L2611,644.9c-21.2,58.6,22.2,120.4,84.5,120.4h191.3c74.1,0,140.5-46.4,165.9-116.2l56.2-154.4
				C3130.3,436.1,3086.7,374.2,3024.3,374.3z M2915.4,614.7l-143.9,0.7l33.1-90.8h143.4L2915.4,614.7z"/>
			<path d="M3581.9,140.4l-106.7,295.2l-126.3,0.6l167.9-295.8h-172.3l-201.4,352.4c-23.7,41.6,6.3,93.4,54.3,93.4h223.2
				l-64.8,179.1h149.5l227.5-625.1L3581.9,140.4L3581.9,140.4z"/>
		</g>
		<g>
			<path d="M3286.1,814.5l20.7-57.2h-61.2l44.1-122h-92.4c-29,0-56-10.7-76.6-30.5l-22.4,61.3c-32.3,88.7-117.4,148.3-211.8,148.3
				h-191.3c-45.1,0-87.5-22.1-113.4-59.1c-6.6-9.5-12.1-19.7-16.1-30.6c-4.2-3.5-8.4-7.5-12.2-11.6
				c-25.2,60.8-85.2,101.2-151.4,101.2h-191.3c-35.1,0-68-17.1-88.4-45.8l-16.6,45.8H1838c-35.2,0-68.3-17.2-88.6-46.2
				c-1.8-2.6-3.5-5.3-5.3-8.6c-31.2,34.9-75.3,54.7-122.1,54.7h-191.3c-35.2,0-68.3-17.2-88.6-46.2c-3.6-5.2-6.9-10.9-9.6-17
				c-31.1,39.7-78.8,63.2-129.2,63.2h-191.3c-35.1,0-68-17.1-88.4-45.8l-16.6,45.8H639.1c-35.2,0-68.1-17.1-88.5-45.9
				c-20,28.6-53,45.9-87.8,45.9h-73.9c-30.7,0-59.3-12.7-79.6-35.2l-12.8,35.2H77.1l20.8-57.2H36.5L299.4,34.5h253.7l-20.8,57.1
				h25.5l20.8-57.1h394.1l35.4,57.2h5.1l10.4,16.7l103.6-73.9h547.8c33.2,0,64.3,16.2,83.3,43.4c0.8,1.1,1.5,2.2,2.2,3.2
				c28.9-29.8,68.6-46.7,110.1-46.7h726.9c33.1,0,64.3,16.1,83.3,43.3c6.7,9.6,11.6,20.2,14.7,31.5c2.9,2,5.6,4,8.3,6.3
				c20.3-24.3,46-44.4,74.4-58.3c30.5-15,64.6-22.8,98.5-22.8H3267l-15,41.3l23.5-41.3H3762l-20.8,57.1h61.3l-263.2,722.9H3286.1z
				 M1164.9,364.5l17.1-47.2l-45.8,32.7l-5.2,14.4L1164.9,364.5L1164.9,364.5z M815.8,364.4l34.3-94.1l-26.6-42.8l-49.9,137H815.8z"
				/>
			<path class="st0" d="M3754.9,39.3l-20.8,57.1h61.3l-259.5,713.2h-242.8l20.7-57.2h-61.2l44.1-122h-99.3
				c-30.6,0-58.7-12.7-78.5-34.6l-25,68.6c-31.6,86.6-114.8,145-207.2,145h-191.3c-43.5,0-84.5-21.3-109.5-57
				c-6.8-9.6-12.1-19.9-16-30.7c-6.5-5.3-12.5-11.3-18-17.9l-0.3,0.8c-22.7,62.6-82.9,104.8-149.7,104.8h-191.3
				c-33.6,0-65.3-16.5-84.7-44.1c-1.8-2.6-3.3-5.3-4.9-8l-19,52.1h-264.3c-33.6,0-65.3-16.5-84.7-44.1c-3.2-4.6-5.9-9.5-8.3-14.5
				c-29.7,36.2-74.6,58.6-123.2,58.6h-190.9c-33.6,0-65.3-16.5-84.7-44.1c-5.3-7.5-9.4-15.8-12.4-24.1
				c-29.3,41.9-77.8,68.2-130.5,68.2h-191.2c-33.6,0-65.3-16.5-84.7-44.1c-1.8-2.6-3.3-5.3-4.9-8l-18.9,52.1H639.1
				c-33.6,0-65.3-16.5-84.7-44.1c-1.4-2.1-2.5-4.1-3.7-6.2c-18.2,30.6-51.5,50.2-87.9,50.2h-73.9c-33.1,0-62.4-15.5-81.2-39.9
				l-14.6,40H84.1l20.8-57.2H43.5L302.9,39.3h243.4l-20.8,57.1h35.8l20.8-57.1h388l35.4,57.2h5.1l11.7,18.9L1129,39.3h546.3
				c31.6,0,61.1,15.5,79.3,41.4c2,2.8,3.6,5.6,5.3,8.5c27.8-31,67.9-49.8,111.1-49.8h726.9c31.6,0,61.1,15.5,79.3,41.3
				c6.8,9.7,11.6,20.5,14.4,31.7c4.6,3.1,9.1,6.5,13.1,10.3c41.1-51.5,104.3-83.3,172.4-83.3H3260l-20.8,57.1h6.5l32.6-57.1
				L3754.9,39.3 M766.7,369.2h52.6l36.2-99.5l-33.2-53.4L766.7,369.2 M1124,369.3h44.3l23.7-65.2l-59.9,42.7L1124,369.3
				 M3103.1,346.3l6.3-11h-12.6C3099.1,338.8,3101.1,342.5,3103.1,346.3 M3768.9,29.5h-14h-476.6h-4.4H3260h-383.2
				c-34.6,0-69.4,8.1-100.6,23.3c-27.7,13.5-52.7,32.7-73,55.9c-1.1-0.9-2.3-1.7-3.3-2.5c-3.2-11.2-8.3-21.8-14.9-31.3
				c-20-28.6-52.7-45.5-87.3-45.5h-726.9c-40.8,0-80,15.9-109.4,43.9c-20.1-27.6-52.1-43.9-86.3-43.9h-546.3h-3.2l-2.6,1.8l-98,70.1
				l-6.2-10l-2.9-4.6h-5.1l-32.6-52.6l-2.9-4.6h-5.4h-388h-6.9l-2.4,6.4l-18.3,50.7h-15.1l16-43.9l4.7-13.2h-14H302.9H296l-2.4,6.4
				L34.3,748.8L29.5,762h14h47.4l-16,44l-4.7,13.1h14H293h6.8l2.4-6.4l9-24.6c8.1,7.7,17.3,14.3,27.3,19.2
				c15.7,7.9,32.6,11.8,50.3,11.8h74c34.3,0,66.8-16,87.8-42.6c21.4,26.9,54,42.6,88.4,42.6h264.3h6.9l2.4-6.4l12.5-34.3
				c21.5,25.6,53.3,40.7,86.8,40.7h191.3c49.4,0,96.2-21.9,128.2-59.1c2.1,3.8,4.2,7.4,6.7,10.9c21.2,30.2,55.8,48.2,92.7,48.2H1622
				c25,0,50.2-5.7,72.9-16.6c17.9-8.7,34.5-20.6,48.4-34.9c0.7,1.2,1.5,2.3,2.2,3.2c21.2,30.2,55.8,48.2,92.7,48.2h264.3h6.9
				l2.4-6.4l12.5-34.3c21.5,25.6,53.3,40.7,86.8,40.7h191.3c65.8,0,125.6-38.6,153.1-97.5c2.2,2.1,4.3,4,6.5,5.9
				c4.2,10.8,9.6,21.1,16.2,30.5c26.9,38.3,70.8,61.1,117.5,61.1H2887c96.4,0,183.4-60.8,216.4-151.4l19.9-54.5
				c8.2,6.9,17.3,12.6,27.2,17c14.9,6.6,30.7,9.9,47.3,9.9h85.4l-39.4,108.9l-4.7,13.1h13.9h47.4l-16,44.1l-4.7,13.1h13.9h242.8h6.9
				l2.4-6.4L3805,99.9l4.4-13.3h-14h-47.4l16-43.9L3768.9,29.5L3768.9,29.5z M780.7,359.5l44-120.9l20.1,32.2l-32.3,88.7H780.7
				L780.7,359.5z M1140.3,353.2l31.7-22.6l-10.5,29.1h-23.5L1140.3,353.2L1140.3,353.2z"/>
		</g>
		<polygon class="st0" points="862.8,378.4 1012.7,378.4 1054.9,262 1305.2,83.2 1143,83.2 1006.4,180.9 945.7,83.2 791.4,83.2 
			904.2,264.7 		"/>
		<polygon class="st0" points="417.7,263.9 547.1,263.9 505.5,378.4 655.4,378.4 762.7,83.2 612.9,83.2 571.2,197.6 441.9,197.6 
			483.4,83.2 333.6,83.2 226.2,378.4 376.1,378.4 		"/>
		<path class="st0" d="M1361.6,378.4l32.3-88.5h213.8c40.8,0,77.2-25.5,91.1-63.8l26.1-71.8c12.5-34.5-13-71-49.6-71h-356
			l-107.4,295.1H1361.6L1361.6,378.4z M1444.9,149.6h92.9c18.9,0,32.1,18.8,25.6,36.5l0,0c-8.2,22.4-29.5,37.4-53.5,37.4h-91.9
			L1444.9,149.6z"/>
		<path class="st0" d="M2530.1,289.8c40.8,0,77.2-25.5,91.1-63.8l26.1-71.8c12.5-34.5-13-71-49.6-71h-356l-107.4,295.1h150
			l32.3-88.5h40.3l63.9,88.5h150l-63.9-88.5L2530.1,289.8L2530.1,289.8z M2340.4,223.4l26.9-73.9h92.9c18.9,0,32.1,18.8,25.6,36.5
			l0,0c-8.2,22.4-29.5,37.4-53.5,37.4H2340.4L2340.4,223.4z"/>
		<path class="st0" d="M1785.6,378.4h283l24.1-66.3h-228.8l17.5-48h228.8l24.1-66.3h-228.8l17.5-48h228.8l24.1-66.3h-305.2
			c-44.1,0-83.6,27.6-98.7,69.1l-49.5,135.9C1706.6,332,1739.1,378.4,1785.6,378.4z"/>
		<path class="st0" d="M710.2,485.5h202.9l26.3-72.3H701.8c-48.4,0-91.8,30.3-108.4,75.9l-50.7,139.4
			c-14.1,38.8,14.6,79.8,55.8,79.8H832l26.3-72.3H655.5l14.3-39.3h202.9l26.3-72.3h-203L710.2,485.5z"/>
		<path class="st0" d="M1265.8,413.2h-191.3c-48.4,0-91.8,30.3-108.4,75.9l-50.7,139.4c-14.1,38.8,14.6,79.8,55.8,79.8h191.3
			c48.4,0,91.8-30.3,108.4-75.9l50.7-139.4C1335.8,454.2,1307.1,413.2,1265.8,413.2z M1154.3,636.1h-125.9l54.7-150.6h126
			L1154.3,636.1z"/>
		<path class="st0" d="M1909.2,485.5H2112l26.3-72.3h-237.6c-48.4,0-91.8,30.3-108.4,75.9l-50.7,139.4
			c-14.1,38.8,14.6,79.8,55.8,79.8h233.5l26.3-72.3h-202.9l14.3-39.3h202.9l26.3-72.3h-202.9L1909.2,485.5z"/>
		<path class="st0" d="M2464.8,413.2h-191.3c-48.4,0-91.8,30.3-108.4,75.9l-50.7,139.4c-14.1,38.8,14.6,79.8,55.8,79.8h191.3
			c48.4,0,91.8-30.3,108.4-75.9l50.7-139.4C2534.7,454.2,2506,413.2,2464.8,413.2z M2353,636.1h-125.9l54.8-150.7h125.9L2353,636.1z
			"/>
		<path class="st0" d="M1572.9,636.1H1447l54.8-150.7h241.4l26.3-72.3h-276.1c-48.4,0-91.8,30.3-108.4,75.9l-50.7,139.4
			c-14.1,38.8,14.6,79.8,55.8,79.8h191.3c48.4,0,91.8-30.3,108.4-75.9l27.3-74.7h-115.4L1572.9,636.1z"/>
		<path class="st0" d="M455.1,413.2l-62.8,172.7L380.6,466c-3-29.9-28.1-52.7-58.2-52.7h-67.8c-24.5,0-46.5,15.4-54.9,38.4
			l-93.3,256.6h115.4l58-159.2l10.4,106.5c3,29.9,28.1,52.7,58.2,52.7h74c24.5,0,46.5-15.4,54.9-38.4l93.4-256.7H455.1z"/>
		<path class="st0" d="M2983.8,317.1l-165.2,0.3l19.9-54.7c6.3-17.2,22.5-28.7,41-28.7h263l54.9-150.8h-320.6
			c-74.3,0-140.7,46.6-166,116.5l-140.4,388.2c-21.2,58.6,22.2,120.4,84.5,120.4h191.3c74.1,0,140.5-46.4,165.9-116.2l56.2-154.4
			C3089.7,379.1,3046.1,316.9,2983.8,317.1z M2874.9,557.6l-143.9,0.7l33.1-90.8h143.5L2874.9,557.6z"/>
		<path class="st0" d="M3541.3,83.2l-106.7,295.2l-126.3,0.6l167.9-295.8h-172.3l-201.4,352.5c-23.7,41.6,6.3,93.4,54.3,93.4H3380
			l-64.8,179.1h149.5l227.5-625.1L3541.3,83.2L3541.3,83.2z"/>
		<rect x="3087.9" y="304" width="48" height="54.1"/>
	</g>
</g>
</svg>
