<?xml version="1.0" encoding="utf-8"?>
<!-- Generator: Adobe Illustrator 26.2.1, SVG Export Plug-In . SVG Version: 6.00 Build 0)  -->
<svg version="1.1" id="Layer_1" xmlns="http://www.w3.org/2000/svg" xmlns:xlink="http://www.w3.org/1999/xlink" x="0px" y="0px"
	 viewBox="0 0 3839 1457" style="enable-background:new 0 0 3839 1457;" xml:space="preserve">
<style type="text/css">
	.st0{fill:#FFFFFF;}
	.st1{fill:#356CB4;}
</style>
<g>
	<g>
		<g>
			<path class="st0" d="M697.3,1226.5c-91.8,0-180.9-15.9-264.7-47.2c-40.4-15.1-79.3-33.8-115.7-55.5
				c-35.9-21.4-69.9-46.2-101.1-73.7c-30.9-27.3-59-57.4-83.6-89.5c-24.9-32.4-46.2-67.1-63.3-103C33,782.6,14.8,702.9,14.8,620.7
				c0-82.1,18.2-161.8,54-236.9c17.3-35.9,38.6-70.6,63.3-103c24.5-32.1,52.7-62.3,83.6-89.5c31.1-27.5,65.1-52.3,101.1-73.7
				c36.4-21.7,75.3-40.4,115.7-55.5c83.8-31.3,172.9-47.2,264.7-47.2c91.9,0,181,15.9,264.8,47.3c40.4,15.1,79.3,33.8,115.7,55.5
				c35.9,21.4,69.9,46.2,101.1,73.7c30.9,27.3,59,57.4,83.6,89.5c24.9,32.4,46.2,67.1,63.3,103c35.9,74.9,54.1,154.6,54.1,236.9
				s-18.2,161.9-54.1,236.9c-17.2,35.9-38.5,70.6-63.3,103c-24.5,32.1-52.7,62.3-83.6,89.5c-31.1,27.5-65.1,52.3-101.1,73.7
				c-36.4,21.7-75.3,40.4-115.7,55.5C878.2,1210.6,789.1,1226.5,697.3,1226.5z"/>
			<path class="st0" d="M697.2,29.5c90,0,177.3,15.6,259.6,46.4c39.5,14.8,77.7,33.1,113.3,54.3c35.3,21.1,68.6,45.4,98.9,72.1
				c30.2,26.7,57.7,56.1,81.6,87.4c24.2,31.6,45,65.4,61.7,100.4c35,73,52.7,150.5,52.7,230.5s-17.7,157.5-52.7,230.5
				c-16.8,35.1-37.6,68.8-61.7,100.4c-23.9,31.3-51.4,60.7-81.6,87.4c-30.2,26.7-63.5,51-98.9,72.1c-35.6,21.3-73.8,39.6-113.3,54.3
				c-82.2,30.7-169.5,46.3-259.5,46.3c-90,0-177.3-15.6-259.5-46.3c-39.5-14.8-77.7-33.1-113.3-54.3c-35.3-21.1-68.6-45.4-98.9-72.1
				c-30.2-26.7-57.7-56.1-81.6-87.4c-24.2-31.6-45-65.4-61.7-100.4c-35-73-52.7-150.5-52.7-230.5s17.7-157.5,52.6-230.6
				c16.8-35.1,37.6-68.8,61.7-100.4c23.9-31.3,51.4-60.7,81.6-87.4c30.2-26.7,63.5-51,98.9-72.1c35.6-21.3,73.8-39.6,113.3-54.3
				C519.9,45.1,607.2,29.5,697.2,29.5 M697.2,0c-93.6,0-184.4,16.2-269.9,48.1c-41.2,15.4-81,34.5-118.1,56.7
				c-36.7,21.9-71.5,47.2-103.3,75.3c-31.6,27.9-60.4,58.8-85.5,91.6C95,305,73.2,340.5,55.5,377.3c0,0,0,0,0,0.1
				C18.7,454.5,0,536.4,0,620.7C0,705.1,18.7,787,55.6,863.9c17.6,36.8,39.4,72.4,64.9,105.6c25.1,32.8,53.9,63.7,85.5,91.6
				c31.8,28.1,66.5,53.4,103.3,75.3c37.2,22.2,76.9,41.2,118.1,56.6c85.5,31.9,176.3,48.1,269.9,48.1s184.4-16.2,269.9-48.1
				c41.2-15.4,81-34.5,118.1-56.7c36.7-21.9,71.5-47.2,103.3-75.3c31.6-27.9,60.4-58.8,85.5-91.6c25.4-33.3,47.2-68.8,64.9-105.6
				c36.9-77,55.6-158.8,55.6-243.3c0-84.4-18.7-166.3-55.6-243.3c-17.6-36.8-39.4-72.4-64.9-105.6c-25.1-32.9-53.9-63.7-85.5-91.6
				c-31.8-28.1-66.5-53.4-103.3-75.3c-37.2-22.2-76.9-41.2-118.1-56.6C881.7,16.2,790.8,0,697.2,0L697.2,0z"/>
		</g>
		<g>
			<path class="st0" d="M1612.9,938.8c-26.4,0-52.1-5.2-76.3-15.4c-23.3-9.9-44.3-24.1-62.3-42.1c-18-18-32.1-38.9-42-62.3
				c-10.3-24.3-15.5-49.9-15.5-76.4V687c0-22.8,18.6-41.4,41.4-41.4h70.7c22.8,0,41.4,18.6,41.4,41.4v63c0,23.7,19.3,42.9,42.9,42.9
				c23.7,0,42.9-19.3,42.9-42.9V350.5c0-22.5,18.3-41,40.8-41.4c0.1,0,71.1,0,71.1,0c11.1,0,21.6,4.4,29.4,12.3
				c7.7,7.8,11.9,18.1,11.8,29.1v392.2c0,26.4-5.2,52.1-15.4,76.3c-9.9,23.3-24.1,44.3-42.1,62.3c-18,18-38.9,32.1-62.3,42
				C1665.1,933.6,1639.4,938.8,1612.9,938.8z"/>
			<path class="st0" d="M1767.9,323.9c14.7,0,26.6,11.9,26.4,26.5v392.3c0,24.5-4.8,48.2-14.3,70.6c-9.2,21.6-22.3,41-38.9,57.6
				c-16.6,16.6-36,29.7-57.6,38.9c-22.3,9.5-46.1,14.3-70.6,14.3c-24.5,0-48.2-4.8-70.6-14.3c-21.6-9.2-41-22.3-57.6-38.9
				c-16.6-16.6-29.7-36-38.9-57.6c-9.5-22.4-14.3-46.1-14.3-70.6V687c0-14.7,11.9-26.6,26.6-26.6h70.7c14.7,0,26.6,11.9,26.6,26.6
				v63c0,31.8,25.9,57.7,57.7,57.7s57.7-25.9,57.7-57.7V350.5c0-14.5,11.7-26.4,26.2-26.6h0.1h0.1H1767.9 M1767.9,294.4h-70.7h-0.1
				h-0.1c-0.1,0-0.3,0-0.4,0c-14.8,0.2-28.7,6.2-39.2,16.7c-10.4,10.6-16.2,24.6-16.2,39.4v399.5c0,15.5-12.6,28.2-28.2,28.2
				s-28.2-12.6-28.2-28.2v-63c0-30.9-25.2-56.1-56.1-56.1h-70.7c-30.9,0-56.1,25.2-56.1,56.1v55.6c0,28.4,5.6,56,16.6,82.1
				c10.7,25.1,25.9,47.6,45.2,67c19.3,19.3,41.9,34.5,66.9,45.2c26.1,11,53.7,16.6,82.1,16.6c28.4,0,56-5.6,82.1-16.6
				c25.1-10.7,47.6-25.9,67-45.2c19.3-19.3,34.5-41.9,45.2-66.9c11-26.1,16.6-53.7,16.6-82.1V350.6c0.1-14.9-5.5-28.9-16-39.5
				C1797.2,300.3,1783,294.4,1767.9,294.4L1767.9,294.4z"/>
		</g>
		<g>
			<path class="st0" d="M2145.8,938.9c-19.6,0-36.5-13.7-40.3-32.7L2059.4,697H1962c0,0-46.2,209.6-46.2,209.7
				c-4.4,18.9-21,32.1-40.3,32.1h-69.8c-12.6,0-24.3-5.6-32.1-15.3c-7.9-9.6-10.9-22.2-8.3-34.6c0,0,120.5-547.4,120.5-547.5
				c4.4-18.9,21-32.1,40.3-32.1h169c19.1,0,36.2,13.6,40.6,32.3c0,0.1,120.5,547.4,120.5,547.5c2.6,12.2-0.4,24.7-8.2,34.5
				c-0.1,0.1-0.1,0.1-0.2,0.2c-8,9.7-19.7,15.2-32.1,15.2H2145.8z M2027.2,551.1l-16.6-75.1l-16.6,75.1H2027.2z"/>
			<path class="st0" d="M2095,324c12.4,0,23.3,8.8,26.2,20.9L2241.6,892c1.7,7.9-0.3,16-5.3,22.3c-5.1,6.2-12.6,9.8-20.7,9.8h-69.8
				c-12.6,0-23.4-8.9-25.8-21l-48.7-220.9h-121.1l-48.7,221c-2.9,12.1-13.5,20.7-25.9,20.7h-69.8c-8.1,0-15.7-3.5-20.7-9.8
				c-5.1-6.2-7-14.4-5.3-22.3l120.4-547.1c2.9-12.1,13.5-20.7,25.9-20.7h78.3h12.4H2095 M1975.7,565.8h69.9l-35-158.4L1975.7,565.8
				 M2095,294.5h-78.3h-12.4H1926c-26.1,0-48.6,17.9-54.6,43.4c0,0.1-0.1,0.3-0.1,0.4l-120.4,547.1c0,0.1,0,0.1,0,0.2
				c-3.6,16.8,0.5,33.9,11.3,47c10.6,13.2,26.5,20.8,43.6,20.8h69.8c26.1,0,48.6-17.9,54.6-43.4c0-0.1,0.1-0.3,0.1-0.4l43.6-197.9
				h73.6l43.6,197.5c5.2,25.8,28.2,44.4,54.7,44.4h69.8c16.8,0,32.7-7.5,43.5-20.6c0.1-0.1,0.2-0.3,0.3-0.4
				c10.6-13.3,14.6-30.3,11.1-46.8c0-0.1,0-0.1,0-0.2L2150,338.6c0-0.1-0.1-0.3-0.1-0.4c-2.9-12.3-9.9-23.4-19.8-31.3
				C2120.1,298.9,2107.7,294.5,2095,294.5L2095,294.5z"/>
		</g>
		<g>
			<path class="st0" d="M2671.5,939c-22.8,0-41.4-18.6-41.4-41.4V350.5c0-22.8,18.6-41.4,41.4-41.4h329.6
				c22.6,0,41.2,18.5,41.4,41.2c0,0,0,63.4,0,63.4c0,22.8-18.6,41.4-41.4,41.4h-217.7v80.8h173c22.8,0,41.4,18.6,41.4,41.4v63.3
				c0,22.8-18.6,41.4-41.4,41.4h-173V793h217.7c22.8,0,41.4,18.6,41.4,41.4v63.3c0,22.8-18.6,41.4-41.4,41.4H2671.5z"/>
			<path class="st0" d="M3001.1,323.9c14.7,0,26.5,11.9,26.6,26.5v63.3c0,14.7-11.9,26.6-26.6,26.6h-232.5v110.4h187.8
				c14.7,0,26.6,11.9,26.6,26.6v63.3c0,14.7-11.9,26.6-26.6,26.6h-187.8v140.6h232.5c14.7,0,26.6,11.9,26.6,26.6v63.3
				c0,14.7-11.9,26.6-26.6,26.6h-329.6c-14.7,0-26.6-11.9-26.6-26.6v-80V657.4v-96.8V430.6v-80c0-14.7,11.9-26.6,26.6-26.6h87.3
				H3001.1 M3001.1,294.4h-242.3h-87.3c-30.9,0-56.1,25.2-56.1,56.1v80v130.1v96.8v160.2v80c0,30.9,25.2,56.1,56.1,56.1h329.6
				c30.9,0,56.1-25.2,56.1-56.1v-63.3c0-30.9-25.2-56.1-56.1-56.1h-202.9v-81.5h158.2c30.9,0,56.1-25.2,56.1-56.1v-63.3
				c0-30.9-25.2-56.1-56.1-56.1h-158.2v-51.3h202.9c30.9,0,56.1-25.2,56.1-56.1v-63.3c0-0.1,0-0.1,0-0.2c-0.1-14.9-6-28.9-16.5-39.4
				C3030.2,300.2,3016.1,294.4,3001.1,294.4L3001.1,294.4z"/>
		</g>
		<g>
			<path class="st0" d="M2281.2,939c-22.8,0-41.4-18.6-41.4-41.4V350.5c0-22.8,18.6-41.4,41.4-41.4h70.7c22.8,0,41.4,18.5,41.4,41.3
				v442.7l217.6-0.1c22.8,0,41.4,18.6,41.4,41.4v63.3c0,22.8-18.6,41.4-41.4,41.4H2281.2z"/>
			<path class="st0" d="M2351.9,323.9c14.7,0,26.6,11.9,26.6,26.5v457.4l232.4-0.1c14.7,0,26.6,11.9,26.6,26.6v63.3
				c0,14.7-11.9,26.6-26.6,26.6h-329.6c-14.7,0-26.6-11.9-26.6-26.6v-80V350.5c0-14.7,11.9-26.6,26.6-26.6H2351.9 M2351.9,294.4
				h-70.7c-30.9,0-56.1,25.2-56.1,56.1v467.1v80c0,30.9,25.2,56.1,56.1,56.1h329.6c30.9,0,56.1-25.2,56.1-56.1v-63.3
				c0-30.9-25.2-56.1-56.1-56.1l-202.8,0.1V350.4C2408,319.5,2382.8,294.4,2351.9,294.4L2351.9,294.4z"/>
		</g>
		<g>
			<path class="st0" d="M3609.3,938.8c-18.5,0-66.6-3.1-113.2-31.4c-30-18.2-53.9-43.5-71-75.5c-5.3-10-10-20.6-14-31.9
				c-4.4,12.6-9.7,24.4-15.9,35.3c-17.2,30.8-41.1,55.3-70.8,72.9c-46.2,27.4-93.3,30.3-111.4,30.3c-18.5,0-66.6-3.1-113.2-31.4
				c-30-18.2-53.9-43.5-71-75.5c-20.4-38-30.7-85.2-30.7-140.3v-44.7c-0.1-0.6-0.1-1.1-0.1-1.7v-95.4c0-55.1,10.3-102.3,30.7-140.3
				c17-31.8,40.9-57.1,71-75.5c46.7-28.3,94.7-31.4,113.2-31.4c0.6,0,1.2,0,1.8,0.1c19.2,0.2,65.3,3.8,110.5,30.8
				c29.7,17.9,53.3,42.5,70.2,73.1c6,10.9,11.2,22.6,15.6,35c4-11.4,8.7-22.1,14.1-32.2c17-31.8,40.9-57.1,71-75.5
				c46.7-28.3,94.7-31.4,113.2-31.4s66.5,3.1,113.2,31.4c30.1,18.2,54,43.6,71,75.5c20.4,38,30.7,85.2,30.7,140.3v141.9
				c0,55.1-10.3,102.3-30.7,140.3c-17,31.8-40.9,57.1-71,75.5C3675.8,935.7,3627.8,938.8,3609.3,938.8z M3608,443.7
				c-4.4,0-16,1.2-28.1,12.6c-20.9,19.8-32.4,61.5-32.4,117.4v98.5c0,56,11.5,97.7,32.4,117.3c12.1,11.4,23.6,12.6,28.1,12.6
				c4.4,0,16-1.2,28.1-12.5c20.8-19.7,32.4-61.4,32.4-117.3v-98.6c0-56-11.5-97.7-32.4-117.4C3624,444.9,3612.4,443.7,3608,443.7z
				 M3211.5,443.9c-2.5,0-15.4,0.6-28,12.7c-20.9,19.8-32.3,61.5-32.3,117.3V668c0,55.8,11.5,97.5,32.5,117.4
				c12.7,12,25.5,12.6,27.9,12.6c2.1,0,13.3-0.5,25-10.1c19.1-15.6,31-47.3,34.4-91.8c0-0.1,0-0.1,0-0.2c0.9-10.4,5.6-20,13.2-27
				c7.6-7,17.6-10.9,28-10.9h74.2c2.7,0,5.3,0.3,7.9,0.8V583c-2.6,0.5-5.3,0.8-8.1,0.8H3312c-21.4,0-39.4-16.7-41.1-38
				c-3.2-42.1-14.1-73-31.5-89.4C3227,444.8,3214.9,443.9,3211.5,443.9z"/>
			<path class="st0" d="M3609.3,317.4c17.2,0,62,2.9,105.5,29.2c27.9,16.8,49.9,40.4,65.7,69.8c19.2,35.8,28.9,80.7,28.9,133.3
				v141.9c0,52.6-9.7,97.5-28.9,133.3c-15.8,29.4-37.8,52.9-65.7,69.8c-43.5,26.4-88.2,29.2-105.5,29.2s-62.1-2.9-105.5-29.2
				c-27.9-16.8-49.9-40.4-65.7-69.8c-14.2-26.6-23.3-58.1-27-94.1c-3.9,37.4-13.5,70.1-28.7,97.4c-16,28.5-37.9,51.1-65.5,67.4
				c-43,25.5-86.9,28.3-103.9,28.3c-17.3,0-62.1-2.9-105.5-29.2c-27.9-16.8-49.9-40.4-65.7-69.8c-19.2-35.8-28.9-80.7-28.9-133.3
				v-46.4h-0.1V636v-86.2c0-52.6,9.7-97.5,28.9-133.3c15.8-29.4,37.8-52.9,65.7-69.8c43.5-26.4,88.3-29.2,105.5-29.2l0.2,0.1
				c17,0,61.2,2.9,104.5,28.7c27.3,16.4,49.1,39.1,64.9,67.5c15.2,27.4,24.8,60.2,28.5,97.8c3.7-36.4,12.7-68.3,27.1-95.1
				c15.8-29.4,37.8-52.9,65.7-69.8C3547.3,320.3,3592.1,317.4,3609.3,317.4 M3608,816.8c6.2,0,22.3-1.6,38.2-16.5
				c24.2-22.9,37-67.1,37-128.1v-98.6c0-60.9-12.8-105.3-37-128.1c-16-15.1-32-16.6-38.2-16.6c-6.2,0-22.3,1.6-38.2,16.6
				c-24.2,22.9-37,67.1-37,128.1v98.5c0,60.9,12.8,105.3,37,128.1C3585.8,815.2,3601.8,816.8,3608,816.8 M3211.6,812.8
				c4.2,0,19.2-1,34.4-13.4c22.3-18.2,36-53.6,39.8-102.1c0.6-6.7,3.5-12.9,8.5-17.4c4.9-4.5,11.3-7,18-7h74.2
				c9.6,0,18,5.2,22.6,12.9V555.8c-4.6,7.9-13.1,13.2-22.8,13.2h-74.2h-0.1c-13.7,0-25.3-10.7-26.4-24.4
				c-8.4-109.9-63.1-115.5-74-115.5c-4.8,0-21.9,1.2-38.2,16.7c-24.1,22.9-36.9,67.1-36.9,128v33.6v27.1V668
				c0,60.9,12.9,105.2,37.1,128.1C3189.9,811.6,3206.8,812.8,3211.6,812.8 M3609.3,287.9c-19.7,0-71,3.3-120.9,33.5
				c-32.4,19.7-58.1,47-76.4,81.1c-0.4,0.7-0.7,1.3-1,2c-0.9-1.7-1.8-3.4-2.7-5c-18.2-32.9-43.6-59.3-75.5-78.5c0,0,0,0-0.1,0
				c-47.7-28.6-96.3-32.7-117.2-32.9c-0.9-0.1-1.7-0.1-2.6-0.1c-19.7,0-71,3.3-120.9,33.5c-32.4,19.7-58.1,47-76.4,81.1
				c-21.5,40.2-32.4,89.7-32.4,147.2V636v9.2c0,0.8,0,1.6,0.1,2.4v43.9c0,57.5,10.9,107.1,32.4,147.3c18.3,34.3,44.1,61.6,76.4,81.1
				c49.8,30.2,101.1,33.5,120.8,33.5c19.3,0,69.6-3.2,118.9-32.4c32-19,57.7-45.4,76.2-78.4c1-1.8,2-3.7,3-5.5
				c0.3,0.6,0.6,1.2,0.9,1.8c18.3,34.3,44.1,61.6,76.4,81.1c49.8,30.2,101.1,33.5,120.8,33.5c19.7,0,71-3.3,120.9-33.5
				c32.4-19.7,58.1-47,76.4-81.1c21.5-40.2,32.4-89.7,32.4-147.2V549.8c0-57.5-10.9-107.1-32.4-147.3
				c-18.3-34.3-44.1-61.6-76.4-81.1C3680.3,291.2,3629,287.9,3609.3,287.9L3609.3,287.9z M3608,787.3c-2.1,0-9.5-0.6-17.9-8.6
				c-8.1-7.6-14.8-20.2-19.5-36.5c-5.5-19-8.3-42.6-8.3-70.1v-98.5c0-27.5,2.8-51.1,8.3-70.1c4.7-16.3,11.5-28.9,19.5-36.6
				c8.4-7.9,15.8-8.5,17.9-8.5c2.1,0,9.5,0.6,17.9,8.6c8.1,7.6,14.8,20.2,19.5,36.5c5.5,19,8.3,42.6,8.3,70.1v98.6
				c0,27.5-2.8,51.1-8.3,70.1c-4.7,16.2-11.4,28.9-19.5,36.5C3617.5,786.7,3610.1,787.3,3608,787.3L3608,787.3z M3211.6,783.2
				c-0.5,0-8.9-0.1-17.8-8.6c-8.1-7.6-14.8-20.3-19.6-36.6c-5.5-19-8.3-42.6-8.3-70.1v-33.6v-27.1v-33.6c0-27.5,2.8-51,8.3-70
				c4.7-16.3,11.4-28.9,19.5-36.6c8.9-8.5,17.5-8.6,17.8-8.6c0.9,0,8.9,0.2,17.7,8.5c6,5.6,11.1,13.7,15.4,24.1
				c5.9,14.6,9.8,33.3,11.5,55.5c0,0,0,0.1,0,0.1c2.3,28.9,26.8,51.6,55.8,51.6h0.1h67.5v44.8h-67.3c-14.1,0-27.6,5.3-38,14.8
				c-10.3,9.5-16.6,22.5-17.9,36.6c0,0.1,0,0.2,0,0.3c-1.6,21.3-5.3,39.5-11,54c-4.8,12.5-10.9,21.7-18,27.5c0,0,0,0,0,0
				C3219.3,783.1,3211.9,783.2,3211.6,783.2L3211.6,783.2z"/>
		</g>
		<g>
			<path class="st0" d="M1640.1,1442.2c-49.6,0-95.2-19.1-128.4-53.7c-32.7-34-50.8-80.2-50.8-130c0-49.6,18-95.7,50.8-129.9
				c33.5-35.1,79.6-54.5,129.8-54.5c29.8,0,55.8,5.1,79.4,15.5c19.6,8.7,37.9,21.4,57.6,39.9l7.1,6.7c5.9,5.6,6.2,14.9,0.7,20.8
				l-30.4,32.7l-6.8,7.3c-2.7,2.9-6.4,4.6-10.3,4.7c-0.2,0-0.3,0-0.5,0c-3.8,0-7.4-1.4-10.1-4l-7.2-6.8
				c-26.5-25.3-49.7-35.5-80-35.5c-26.1,0-50.1,10.2-67.5,28.8c-17.6,18.9-27.4,44.9-27.4,73.5c0,28.8,9.7,55.1,27.4,74.1
				c17.4,18.7,41.3,29,67.4,29c36,0,58.3-14.4,82.6-37.7l7-6.6c2.8-2.7,6.5-4,10.1-4c3.8,0,7.5,1.4,10.4,4.2l6.8,6.7l22.9,22.5
				l7,6.9c5.8,5.7,5.9,15.1,0.1,20.9l-6.9,7c-20.1,20.3-39.1,34.3-59.7,44.1C1697.1,1436.6,1670.5,1442.2,1640.1,1442.2z"/>
			<path class="st0" d="M1641.5,1089c27.9,0,51.9,4.7,73.4,14.3c18.2,8.1,35.1,19.9,53.5,37.1l7.1,6.7l-6.6,7.1l-23.8,25.6l-6.8,7.3
				l-7.2-6.8c-29.1-27.8-56.1-39.6-90.2-39.6c-62.5,0-109.6,50.3-109.6,117.1c0,67.2,47.2,118,109.6,118c40.8,0,66.6-16.6,92.8-41.7
				l6.9-6.5l6.8,6.7l22.9,22.5l7,6.9l-6.9,7c-18.8,19-36.4,32.1-55.5,41.2c-22.3,10.6-46.8,15.8-74.8,15.8
				c-45.5,0-87.3-17.4-117.8-49.1c-30.1-31.3-46.7-73.8-46.7-119.7c0-45.7,16.5-88.2,46.7-119.7
				C1553.1,1106.7,1595.4,1089,1641.5,1089 M1641.5,1059.4c-54.3,0-104.2,21-140.5,59.1c-35.4,37-54.8,86.7-54.8,140.1
				c0,53.6,19.5,103.4,54.9,140.2c36,37.5,85.4,58.2,139,58.2c32.7,0,61.3-6.1,87.5-18.6c22.2-10.5,42.5-25.5,63.8-47c0,0,0,0,0,0
				l6.9-7c5.5-5.6,8.6-13.1,8.5-20.9c-0.1-7.8-3.2-15.3-8.8-20.8l-7-6.9l-23-22.6l-6.8-6.7c-5.7-5.7-13.2-8.5-20.7-8.5
				c-7.3,0-14.6,2.7-20.3,8l-6.9,6.5c0,0-0.1,0.1-0.1,0.1c-29.4,28.1-48.8,33.6-72.4,33.6c-21.9,0-42-8.6-56.6-24.3
				c-15.1-16.3-23.5-39.1-23.5-64.1c0-24.8,8.3-47.3,23.4-63.4c14.6-15.6,34.7-24.1,56.7-24.1c26.5,0,46.1,8.8,69.8,31.4
				c0,0,0.1,0.1,0.1,0.1l7.2,6.8c5.5,5.2,12.8,8.1,20.3,8.1c0.3,0,0.6,0,0.9,0c7.9-0.2,15.3-3.6,20.7-9.4l6.8-7.3l23.8-25.6l6.6-7.1
				c11.1-11.9,10.5-30.5-1.3-41.6l-7.1-6.7c0,0,0,0,0,0c-20.9-19.7-40.5-33.2-61.7-42.6C1701.4,1064.9,1673.4,1059.4,1641.5,1059.4
				L1641.5,1059.4z"/>
		</g>
		<g>
			<path class="st0" d="M1827.9,1436.8c-8.2,0-14.8-6.6-14.8-14.8v-327.9c0-8.2,6.6-14.8,14.8-14.8h54.3c8.2,0,14.8,6.6,14.8,14.8
				v261.5h158.8c8.2,0,14.8,6.6,14.8,14.8v51.6c0,8.2-6.6,14.8-14.8,14.8H1827.9z"/>
			<path class="st0" d="M1882.1,1094.2v9.8v266.4H2046h9.7v9.7v32.1v9.7h-9.7h-208.3h-9.7v-9.7v-308.4v-9.7h9.7h34.8H1882.1
				 M1882.1,1064.6h-9.7h-34.8h-9.7c-16.3,0-29.5,13.2-29.5,29.5v9.7v308.4v9.7c0,16.3,13.2,29.5,29.5,29.5h9.7H2046h9.7
				c16.3,0,29.5-13.2,29.5-29.5v-9.7v-32.1v-9.7c0-16.3-13.2-29.5-29.5-29.5h-9.7h-134.3V1104v-9.8
				C1911.7,1077.9,1898.4,1064.6,1882.1,1064.6L1882.1,1064.6z"/>
		</g>
		<g>
			<path class="st0" d="M2082.1,1436.9c-5,0-9.7-2.5-12.4-6.7c-2.7-4.2-3.1-9.5-1.1-14.1l6.2-13.8l140.6-310.5l2.5-5.7
				c2.4-5.4,7.7-8.8,13.5-8.8h45.2c5.7,0,11,3.3,13.4,8.5c0,0,2.6,5.6,2.6,5.6l140.6,310.6l6.3,13.9c2.1,4.6,1.7,9.9-1,14.1
				c-2.7,4.2-7.4,6.8-12.4,6.8h-59c-5.9,0-11.2-3.5-13.5-8.8l-2.6-5.8l-29.7-66.8h-136l-30.1,67l-2.5,5.7c-2.4,5.4-7.7,8.8-13.5,8.8
				H2082.1z M2285.7,1275l-32.3-72.5L2221,1275H2285.7z"/>
			<path class="st0" d="M2276.7,1092l2.6,5.5l140.6,310.6l6.3,13.9H2411h-37.4h-6.4l-2.6-5.8l-33.6-75.6h-155.2l-34,75.7l-2.6,5.8
				h-6.3h-35.7h-15.2l6.2-13.8l140.6-310.5l2.6-5.8h6.3h32.6H2276.7 M2198.2,1289.8h110.3l-54.9-123.5L2198.2,1289.8 M2276.7,1062.5
				h-6.3h-32.6h-6.3c-11.7,0-22.3,6.9-27,17.6l-2.5,5.7l-140.5,310.4c0,0,0,0,0,0.1l-6.2,13.8c-4.1,9.1-3.3,19.7,2.1,28.2
				c5.4,8.4,14.8,13.5,24.8,13.5h15.2h35.7h6.3c11.7,0,22.3-6.9,27-17.6l2.5-5.7l26.1-58.2h116.8l25.8,58l2.5,5.8
				c4.7,10.7,15.3,17.6,27,17.6h6.4h37.4h15.2c10,0,19.4-5.1,24.8-13.5c5.4-8.4,6.2-19.1,2.1-28.2l-6.3-13.9l-140.6-310.6
				c0-0.1-0.1-0.2-0.1-0.3l-2.6-5.5C2298.6,1069.1,2288.2,1062.5,2276.7,1062.5L2276.7,1062.5z M2243.8,1260.3l9.6-21.5l9.6,21.5
				H2243.8L2243.8,1260.3z"/>
		</g>
		<g>
			<path class="st0" d="M2584.6,1441.3c-27.7,0-52.8-4.6-76.5-14c-23.4-9.3-44.9-22.9-65.8-41.6l-7.1-6.3c-6-5.3-6.6-14.4-1.5-20.5
				l6.1-7.3l21.6-25.6l6.5-7.7c2.6-3.1,6.3-5,10.3-5.3c0.3,0,0.7,0,1,0c3.7,0,7.2,1.4,9.9,3.8l7.5,6.8
				c29.6,26.8,54.6,37.2,89.2,37.2c14.6,0,27-3.4,34.8-9.5c6.2-4.8,9.4-11.1,9.4-18.8c0-9.3-1.9-12.3-6.5-16c-9-7-26.7-13.2-54.3-19
				c0,0-0.1,0-0.1,0c-42-9.2-69.4-20.4-88.8-36.4c-22.6-18.6-34.1-44.5-34.1-77.1c0-30.9,13-58.9,36.6-79
				c22.9-19.5,54.6-30.2,89.3-30.2c25,0,47.2,3.7,67.9,11.2c19.3,6.9,37.7,17.5,56.1,32.3l7.4,5.9c6.2,5,7.4,14,2.6,20.4l-5.7,7.6
				l-20.3,26.9l-6.1,8.1c-2.4,3.2-6,5.3-10,5.8c-0.6,0.1-1.2,0.1-1.8,0.1c-3.4,0-6.7-1.2-9.3-3.3l-7.9-6.4
				c-23.4-19.1-46.8-28-73.5-28c-24.2,0-41.1,10.6-41.1,25.7c0,0,0,0.1,0,0.1c-0.1,9.5,1.9,12.6,6.8,16.4c9.2,7.1,28.6,13.9,57.5,20
				c39.8,8.6,67.4,20.3,86.8,36.9c21.9,18.8,33,44,33,74.7c0,16.7-3.4,32.4-10.2,46.7c-6.7,14.1-16.3,26.2-28.5,36.2
				C2652.3,1431.2,2620.8,1441.3,2584.6,1441.3z"/>
			<path class="st0" d="M2572.2,1089.6c23.2,0,43.7,3.3,62.8,10.3c17.8,6.4,34.8,16.1,51.9,29.9l7.4,5.9l-5.7,7.6l-20.3,26.9
				l-6.1,8.1l-7.9-6.4c-26.2-21.4-52.5-31.3-82.8-31.3c-32.9,0-55.8,16.6-55.8,40.5c-0.1,13.3,3.4,21.2,12.5,28.2
				c11.2,8.7,31.4,16,63.4,22.7c37.3,8.1,62.8,18.8,80.2,33.7c18.7,16,27.9,36.8,27.9,63.5c0,14.5-3,28.1-8.8,40.4
				c-5.7,11.9-13.9,22.3-24.5,31c-20.9,17-49.1,26-81.8,26c-25.7,0-49-4.2-71.1-13c-21.6-8.6-41.7-21.3-61.4-38.9l-7.1-6.3l6.1-7.3
				l21.6-25.6l6.5-7.8l7.5,6.8c32.2,29.1,60.8,41.1,99.1,41.1c18,0,33.3-4.3,43.9-12.6c9.8-7.6,15.1-18.1,15.1-30.4
				c0-13-3.4-20.7-12.1-27.6c-10.8-8.5-29.9-15.5-60.4-21.9c-39.6-8.7-65-18.9-82.5-33.4c-19.4-16-28.7-37.4-28.7-65.7
				C2461.1,1129.3,2507.8,1089.6,2572.2,1089.6 M2572.2,1060.1c-38.1,0-73.2,12-98.8,33.7c-27,22.9-41.9,55-41.9,90.3
				c0,37.1,13.3,66.9,39.5,88.5c21.3,17.5,50.6,29.7,95,39.4c0.1,0,0.2,0,0.2,0.1c32.5,6.8,44.1,13,48.1,16.1
				c0.3,0.2,0.5,0.4,0.6,0.5c0.1,0.6,0.3,1.8,0.3,3.8c0,3.1-1,5-3.5,7c0,0-0.1,0.1-0.1,0.1c-5.2,4.1-14.6,6.4-25.8,6.4
				c-30.9,0-52.4-9.1-79.3-33.4l-7.5-6.8c-5.5-4.9-12.5-7.7-19.9-7.7c-0.7,0-1.4,0-2,0.1c-8,0.6-15.5,4.4-20.6,10.5l-6.5,7.8
				l-21.5,25.5c0,0,0,0,0,0.1l-6.1,7.3c-10.3,12.2-8.9,30.4,3,41l7.1,6.3c22.2,19.9,45.2,34.3,70.2,44.3
				c25.5,10.1,52.4,15.1,82,15.1c39.6,0,74.3-11.3,100.5-32.6c13.9-11.3,24.8-25.2,32.5-41.1c0-0.1,0.1-0.1,0.1-0.2
				c7.7-16.3,11.6-34.1,11.6-53c0-35.3-12.8-64.2-38.2-85.9c0,0,0,0-0.1-0.1c-21.3-18.2-50.9-30.9-93.2-40.1c0,0-0.1,0-0.1,0
				c-35-7.4-47.3-14-51.5-17.2c-0.4-0.3-0.6-0.5-0.8-0.7c-0.1-0.6-0.2-1.8-0.2-3.9c0-0.1,0-0.1,0-0.2c0-5.3,10.6-10.9,26.3-10.9
				c23.4,0,43.2,7.6,64.1,24.7c0,0,0,0,0,0l7.9,6.4c5.3,4.3,11.9,6.6,18.6,6.6c1.2,0,2.4-0.1,3.6-0.2c8-1,15.2-5.1,20-11.5l6.1-8.1
				l20.3-26.9l5.7-7.6c9.6-12.8,7.3-30.9-5.1-40.8l-7.4-5.9c-19.6-15.8-39.4-27.1-60.3-34.7
				C2622.8,1064.1,2599,1060.1,2572.2,1060.1L2572.2,1060.1z"/>
		</g>
		<g>
			<path class="st0" d="M2875.5,1441.3c-27.7,0-52.8-4.6-76.5-14c-23.4-9.3-44.9-22.9-65.8-41.6l-7.1-6.3c-6-5.3-6.6-14.4-1.5-20.5
				l6.1-7.3l21.6-25.6l6.5-7.7c2.6-3.1,6.3-5,10.3-5.3c0.3,0,0.7,0,1,0c3.7,0,7.2,1.4,9.9,3.8l7.5,6.8
				c29.6,26.8,54.6,37.2,89.2,37.2c14.6,0,27-3.4,34.8-9.5c6.2-4.8,9.4-11.1,9.4-18.8c0-9.3-1.9-12.3-6.5-16c-9-7-26.7-13.2-54.3-19
				c0,0-0.1,0-0.1,0c-42-9.2-69.4-20.4-88.8-36.4c-22.6-18.6-34.1-44.5-34.1-77.1c0-30.9,13-58.9,36.6-79
				c22.9-19.5,54.6-30.2,89.3-30.2c25,0,47.2,3.7,67.9,11.2c19.3,6.9,37.7,17.5,56.1,32.3l7.4,5.9c6.2,5,7.4,14,2.6,20.4l-5.7,7.6
				l-20.3,26.9l-6.1,8.1c-2.4,3.2-6,5.3-10,5.8c-0.6,0.1-1.2,0.1-1.8,0.1c-3.4,0-6.7-1.2-9.3-3.3l-7.9-6.4
				c-23.4-19.1-46.8-28-73.5-28c-24.2,0-41.1,10.6-41.1,25.7c0,0,0,0.1,0,0.1c-0.1,9.5,1.9,12.6,6.8,16.4c9.2,7.1,28.6,13.9,57.5,20
				c39.8,8.6,67.4,20.3,86.8,36.9c21.9,18.8,33,44,33,74.7c0,16.7-3.4,32.4-10.2,46.7c-6.7,14.1-16.3,26.2-28.5,36.2
				C2943.1,1431.2,2911.6,1441.3,2875.5,1441.3z"/>
			<path class="st0" d="M2863.1,1089.6c23.2,0,43.7,3.3,62.8,10.3c17.8,6.4,34.8,16.1,51.9,29.9l7.4,5.9l-5.7,7.6l-20.3,26.9
				l-6.1,8.1l-7.9-6.4c-26.2-21.4-52.5-31.3-82.8-31.3c-32.9,0-55.8,16.6-55.8,40.5c-0.1,13.3,3.4,21.2,12.5,28.2
				c11.2,8.7,31.4,16,63.4,22.7c37.3,8.1,62.8,18.8,80.2,33.7c18.7,16,27.9,36.8,27.9,63.5c0,14.5-3,28.1-8.8,40.4
				c-5.7,11.9-13.9,22.3-24.5,31c-20.9,17-49.1,26-81.8,26c-25.7,0-49-4.2-71.1-13c-21.6-8.6-41.7-21.3-61.4-38.9l-7.1-6.3l6.1-7.3
				l21.6-25.6l6.5-7.8l7.5,6.8c32.2,29.1,60.8,41.1,99.1,41.1c18,0,33.3-4.3,43.9-12.6c9.8-7.6,15.1-18.1,15.1-30.4
				c0-13-3.4-20.7-12.1-27.6c-10.8-8.5-29.9-15.5-60.4-21.9c-39.6-8.7-65-18.9-82.5-33.4c-19.4-16-28.7-37.4-28.7-65.7
				C2751.9,1129.3,2798.7,1089.6,2863.1,1089.6 M2863.1,1060.1c-38.1,0-73.2,12-98.8,33.7c-27,22.9-41.9,55-41.9,90.3
				c0,37.1,13.3,66.9,39.5,88.5c21.3,17.5,50.6,29.7,95,39.4c0.1,0,0.2,0,0.2,0.1c32.5,6.8,44.1,13,48.1,16.1
				c0.3,0.2,0.5,0.4,0.6,0.5c0.1,0.6,0.3,1.8,0.3,3.8c0,3.1-1,5-3.5,7c0,0-0.1,0.1-0.1,0.1c-5.2,4.1-14.6,6.4-25.8,6.4
				c-30.9,0-52.4-9.1-79.3-33.4l-7.5-6.8c-5.5-4.9-12.5-7.7-19.9-7.7c-0.7,0-1.4,0-2,0.1c-8,0.6-15.5,4.4-20.6,10.5l-6.5,7.8
				l-21.5,25.5c0,0,0,0,0,0.1l-6.1,7.3c-10.3,12.2-8.9,30.4,3,41l7.1,6.3c22.2,19.9,45.2,34.3,70.2,44.3
				c25.5,10.1,52.4,15.1,82,15.1c39.6,0,74.3-11.3,100.5-32.6c13.9-11.3,24.8-25.2,32.5-41.1c0-0.1,0.1-0.1,0.1-0.2
				c7.7-16.3,11.6-34.1,11.6-53c0-35.3-12.8-64.2-38.2-85.9c0,0,0,0-0.1-0.1c-21.3-18.2-50.9-30.9-93.2-40.1c0,0-0.1,0-0.1,0
				c-35-7.4-47.3-14-51.5-17.2c-0.4-0.3-0.6-0.5-0.8-0.7c-0.1-0.6-0.2-1.8-0.2-3.9c0-0.1,0-0.1,0-0.2c0-5.3,10.6-10.9,26.3-10.9
				c23.4,0,43.2,7.6,64.1,24.7c0,0,0,0,0,0l7.9,6.4c5.3,4.3,11.9,6.6,18.6,6.6c1.2,0,2.4-0.1,3.6-0.2c8-1,15.2-5.1,20-11.5l6.1-8.1
				l20.3-26.9l5.7-7.6c9.6-12.8,7.3-30.9-5.1-40.8l-7.4-5.9c-19.6-15.8-39.4-27.1-60.3-34.7
				C2913.7,1064.1,2889.8,1060.1,2863.1,1060.1L2863.1,1060.1z"/>
		</g>
		<g>
			<path class="st0" d="M3058.2,1436.9c-8.2,0-14.8-6.6-14.8-14.8v-328c0-8.2,6.6-14.8,14.8-14.8h54.3c8.2,0,14.8,6.6,14.8,14.8v328
				c0,8.2-6.6,14.8-14.8,14.8H3058.2z"/>
			<path class="st0" d="M3112.6,1094.2v9.7v308.5v9.7h-9.7H3068h-9.7v-9.7v-308.5v-9.7h9.7h34.9H3112.6 M3112.6,1064.6h-9.7H3068
				h-9.7c-16.3,0-29.5,13.2-29.5,29.5v9.7v308.5v9.7c0,16.3,13.2,29.5,29.5,29.5h9.7h34.9h9.7c16.3,0,29.5-13.2,29.5-29.5v-9.7
				v-308.5v-9.7C3142.1,1077.9,3128.9,1064.6,3112.6,1064.6L3112.6,1064.6z"/>
		</g>
		<g>
			<path class="st0" d="M3347.3,1442.2c-49.6,0-95.2-19.1-128.4-53.7c-32.7-34-50.8-80.2-50.8-130c0-49.6,18-95.7,50.8-129.9
				c33.5-35.1,79.6-54.5,129.8-54.5c29.9,0,55.9,5.1,79.5,15.7c19.6,8.7,37.8,21.4,57.5,39.8l7.1,6.7c5.9,5.6,6.2,14.9,0.7,20.8
				l-30.4,32.7l-6.7,7.2c-2.7,2.9-6.4,4.6-10.3,4.7c-0.2,0-0.3,0-0.5,0c-3.8,0-7.4-1.4-10.1-4l-7.2-6.8
				c-26.7-25.2-49.9-35.5-80-35.5c-26.1,0-50.1,10.2-67.5,28.8c-17.6,18.9-27.4,44.9-27.4,73.5c0,28.8,9.7,55.1,27.4,74.1
				c17.4,18.7,41.3,29,67.4,29c36,0,58.3-14.4,82.6-37.7l7-6.6c2.8-2.7,6.5-4,10.1-4c3.8,0,7.5,1.4,10.4,4.2l6.8,6.7l22.9,22.5
				l7,6.9c5.8,5.7,5.9,15.1,0.1,20.9l-6.9,7c-20.1,20.3-39.1,34.3-59.7,44.1C3404.3,1436.6,3377.7,1442.2,3347.3,1442.2z"/>
			<path class="st0" d="M3348.7,1089c27.8,0,51.9,4.7,73.5,14.4c18.1,8.1,35.1,19.9,53.4,37.1l7.1,6.7l-6.6,7.1l-23.8,25.6l-6.7,7.2
				l-7.2-6.8c-29.3-27.8-56.3-39.6-90.2-39.6c-62.5,0-109.6,50.3-109.6,117.1c0,67.2,47.2,118,109.6,118c40.8,0,66.6-16.6,92.8-41.7
				l6.9-6.5l6.8,6.7l22.9,22.5l7,6.9l-6.9,7c-18.8,19-36.4,32.1-55.5,41.2c-22.3,10.6-46.8,15.8-74.8,15.8
				c-45.5,0-87.3-17.4-117.8-49.1c-30.1-31.3-46.7-73.8-46.7-119.7c0-45.7,16.5-88.2,46.7-119.7
				C3260.3,1106.7,3302.6,1089,3348.7,1089 M3348.7,1059.4c-54.3,0-104.2,21-140.5,59.1c-35.4,37-54.8,86.7-54.8,140.1
				c0,53.6,19.5,103.4,54.9,140.2c36,37.5,85.4,58.2,139,58.2c32.7,0,61.3-6.1,87.5-18.6c22.2-10.5,42.5-25.5,63.8-47c0,0,0,0,0,0
				l6.9-7c5.5-5.6,8.6-13.1,8.5-20.9c-0.1-7.8-3.2-15.3-8.8-20.8l-7-6.9l-23-22.6l-6.8-6.7c-5.7-5.7-13.2-8.5-20.7-8.5
				c-7.3,0-14.6,2.7-20.3,8l-6.9,6.5c0,0-0.1,0.1-0.1,0.1c-29.4,28.1-48.8,33.6-72.4,33.6c-21.9,0-42-8.6-56.6-24.3
				c-15.1-16.3-23.5-39.1-23.5-64.1c0-24.8,8.3-47.3,23.4-63.4c14.6-15.6,34.7-24.1,56.7-24.1c13.1,0,24.2,2.2,34.9,6.9
				c11.2,4.9,22.7,13,35,24.6l7.2,6.8c5.5,5.2,12.8,8.1,20.3,8.1c0.3,0,0.6,0,0.9,0c7.9-0.3,15.3-3.6,20.7-9.4l6.7-7.2l23.8-25.6
				l6.6-7.1c11.1-11.9,10.5-30.5-1.3-41.6l-7.1-6.7c0,0,0,0,0,0c-20.9-19.6-40.4-33.2-61.6-42.6
				C3408.7,1065,3380.7,1059.4,3348.7,1059.4L3348.7,1059.4z"/>
		</g>
		<g>
			<path class="st0" d="M3650.5,1441.3c-27.7,0-52.8-4.6-76.5-14c-23.4-9.3-44.9-22.9-65.8-41.6l-7.1-6.3c-6-5.3-6.6-14.4-1.5-20.5
				l6.1-7.3l21.6-25.6l6.5-7.7c2.6-3.1,6.3-5,10.3-5.3c0.3,0,0.7,0,1,0c3.7,0,7.2,1.4,9.9,3.8l7.5,6.8
				c29.6,26.8,54.6,37.2,89.2,37.2c14.6,0,27-3.4,34.8-9.5c6.2-4.8,9.4-11.1,9.4-18.8c0-9.3-1.9-12.3-6.5-16c-9-7-26.7-13.2-54.3-19
				c0,0-0.1,0-0.1,0c-42.1-9.2-69.4-20.5-88.7-36.4c-22.6-18.7-34.1-44.6-34.1-77.1c0-31.2,13.4-59.4,37.6-79.7
				c22.8-19,54.2-29.5,88.3-29.5c25.1,0,47.3,3.7,67.8,11.2c19.4,7,37.7,17.5,56.1,32.3l7.4,5.9c6.2,5,7.4,14,2.6,20.4l-5.7,7.6
				l-20.3,26.9l-6.1,8.1c-2.4,3.2-6,5.3-10,5.8c-0.6,0.1-1.2,0.1-1.8,0.1c-3.4,0-6.7-1.2-9.3-3.3l-7.9-6.4
				c-23.4-19.1-46.8-28-73.5-28c-24.2,0-41.1,10.6-41.1,25.7c0,9.6,2.1,12.8,6.9,16.5c9.2,7.1,28.6,13.9,57.5,20
				c39.8,8.6,67.4,20.3,86.8,36.9c21.9,18.8,33,44,33,74.7c0,16.7-3.4,32.4-10.2,46.7c-6.7,14.1-16.3,26.2-28.5,36.2
				C3718.1,1431.2,3686.6,1441.3,3650.5,1441.3z"/>
			<path class="st0" d="M3638,1089.6c23.3,0,43.8,3.3,62.7,10.3c17.8,6.4,34.8,16.1,51.9,29.9l7.4,5.9l-5.7,7.6l-20.3,26.9l-6.1,8.1
				l-7.9-6.4c-26.2-21.4-52.5-31.3-82.8-31.3c-32.9,0-55.8,16.6-55.8,40.5c0,13.3,3.5,21.2,12.6,28.2c11.2,8.7,31.4,16,63.4,22.7
				c37.3,8.1,62.8,18.8,80.2,33.7c18.7,16,27.9,36.8,27.9,63.5c0,14.5-3,28.1-8.8,40.4c-5.7,11.9-13.9,22.3-24.5,31
				c-20.9,17-49.1,26-81.8,26c-25.7,0-49-4.2-71.1-13c-21.6-8.6-41.7-21.3-61.4-38.9l-7.1-6.3l6.1-7.3l21.6-25.6l6.5-7.8l7.5,6.8
				c32.2,29.1,60.8,41.1,99.1,41.1c18,0,33.3-4.3,43.9-12.6c9.8-7.6,15.1-18.1,15.1-30.4c0-13-3.4-20.7-12.1-27.6
				c-10.8-8.5-29.9-15.5-60.4-21.9c-39.5-8.7-65-18.9-82.5-33.4c-19.3-16-28.7-37.4-28.7-65.7c0-26.8,11.5-51,32.3-68.3
				C3579.4,1098.9,3607.4,1089.6,3638,1089.6 M3638,1060.1c-37.6,0-72.3,11.7-97.8,32.9c-27.7,23.1-42.9,55.4-42.9,91
				c0,37,13.3,66.8,39.5,88.4c21.2,17.5,50.5,29.7,95,39.5c0.1,0,0.2,0,0.3,0.1c32.5,6.8,44.1,13,48.1,16.1c0.3,0.2,0.5,0.4,0.6,0.5
				c0.1,0.6,0.3,1.8,0.3,3.8c0,3.1-1,5-3.5,7c0,0-0.1,0.1-0.1,0.1c-5.2,4.1-14.6,6.4-25.8,6.4c-30.9,0-52.4-9.1-79.3-33.4l-7.5-6.8
				c-5.5-4.9-12.5-7.7-19.9-7.7c-0.7,0-1.4,0-2,0.1c-8,0.6-15.5,4.4-20.6,10.5l-6.5,7.8l-21.5,25.5c0,0,0,0,0,0.1l-6.1,7.3
				c-10.3,12.2-8.9,30.4,3,41l7.1,6.3c22.2,19.9,45.2,34.3,70.2,44.3c25.5,10.1,52.4,15.1,82,15.1c39.6,0,74.3-11.3,100.5-32.6
				c13.9-11.3,24.8-25.2,32.5-41.1c0-0.1,0.1-0.1,0.1-0.2c7.7-16.3,11.6-34.1,11.6-53c0-35.3-12.8-64.2-38.2-85.9c0,0,0,0-0.1-0.1
				c-21.3-18.2-50.9-30.9-93.2-40.1c0,0-0.1,0-0.1,0c-35-7.4-47.3-14-51.5-17.2c-0.4-0.3-0.7-0.5-0.8-0.7c-0.1-0.6-0.3-1.8-0.3-4.1
				c0-5.3,10.6-10.9,26.3-10.9c23.4,0,43.2,7.6,64.1,24.7c0,0,0,0,0,0l7.9,6.4c5.3,4.3,11.9,6.6,18.6,6.6c1.2,0,2.4-0.1,3.6-0.2
				c8-1,15.2-5.1,20-11.5l6.1-8.1l20.3-26.9l5.7-7.6c9.6-12.8,7.3-30.9-5.1-40.8l-7.4-5.9c-19.6-15.8-39.3-27.1-60.3-34.6
				C3688.8,1064.1,3664.9,1060.1,3638,1060.1L3638,1060.1z"/>
		</g>
	</g>
	<g>
		<g>
			<g>
				<path class="st1" d="M697.2,1207c-89.4,0-176.1-15.5-257.8-46c-78.9-29.5-149.8-71.7-210.6-125.5
					C167.9,981.6,120,918.9,86.6,849.1C52,776.7,34.5,699.9,34.5,620.7S52,464.6,86.6,392.3c33.4-69.8,81.2-132.5,142.2-186.4
					c60.8-53.8,131.7-96,210.6-125.5C521,49.9,607.8,34.5,697.2,34.5s176.1,15.5,257.8,46c78.9,29.5,149.8,71.7,210.6,125.5
					c60.9,53.9,108.7,116.6,142.2,186.4c34.7,72.4,52.2,149.2,52.2,228.4s-17.5,156.1-52.2,228.4c-33.4,69.8-81.2,132.5-142.2,186.4
					c-60.8,53.8-131.7,96-210.6,125.5C873.3,1191.4,786.6,1207,697.2,1207z"/>
				<path class="st0" d="M697.2,39.3c363.3,0,657.8,260.3,657.8,581.4s-294.5,581.4-657.8,581.4S39.3,941.8,39.3,620.7
					S333.9,39.3,697.2,39.3 M697.2,29.5c-90,0-177.3,15.6-259.5,46.3c-39.5,14.8-77.7,33.1-113.3,54.3
					c-35.3,21.1-68.6,45.4-98.9,72.1s-57.7,56.1-81.6,87.4C119.7,321.3,99,355,82.1,390.1c-34.9,73.1-52.6,150.6-52.6,230.6
					s17.7,157.5,52.7,230.5c16.7,35.1,37.5,68.8,61.7,100.4c23.9,31.3,51.4,60.7,81.6,87.4c30.2,26.7,63.5,51,98.9,72.1
					c35.6,21.3,73.8,39.6,113.3,54.3c82.2,30.7,169.5,46.3,259.5,46.3s177.3-15.6,259.5-46.3c39.5-14.8,77.7-33.1,113.3-54.3
					c35.3-21.1,68.6-45.4,98.9-72.1c30.2-26.7,57.7-56.1,81.6-87.4c24.1-31.6,44.9-65.4,61.7-100.4c35-73,52.7-150.5,52.7-230.5
					s-17.7-157.5-52.7-230.5c-16.7-35.1-37.5-68.8-61.7-100.4c-23.9-31.3-51.4-60.7-81.6-87.4c-30.2-26.7-63.5-51-98.9-72.1
					c-35.6-21.3-73.8-39.6-113.3-54.3C874.5,45.1,787.2,29.5,697.2,29.5L697.2,29.5z"/>
			</g>
			<g>
				
					<rect x="1080.2" y="483.9" transform="matrix(0.7071 -0.7071 0.7071 0.7071 -98.1521 988.864)" class="st0" width="128.8" height="258"/>
				
					<rect x="901.2" y="487.1" transform="matrix(0.7071 -0.7071 0.7071 0.7071 -152.7916 863.2277)" class="st0" width="128.8" height="258"/>
				
					<rect x="722.2" y="490.1" transform="matrix(0.7071 -0.7071 0.7071 0.7071 -207.4022 737.5215)" class="st0" width="128.8" height="258"/>
				
					<rect x="543.3" y="493.3" transform="matrix(0.7071 -0.7071 0.7071 0.7071 -262.0752 611.9431)" class="st0" width="128.8" height="258"/>
				
					<rect x="364.2" y="496.6" transform="matrix(0.7071 -0.7071 0.7071 0.7071 -316.7843 486.2779)" class="st0" width="128.8" height="258"/>
				
					<rect x="185.2" y="499.7" transform="matrix(0.7071 -0.7071 0.7071 0.7071 -371.4238 360.6415)" class="st0" width="128.8" height="258"/>
			</g>
			<g>
				<g>
					
						<rect x="901.2" y="182" transform="matrix(0.7071 -0.7071 0.7071 0.7071 62.9479 773.8617)" class="st0" width="128.8" height="258"/>
					
						<rect x="722.2" y="185.1" transform="matrix(0.7071 -0.7071 0.7071 0.7071 8.3083 648.2253)" class="st0" width="128.8" height="258"/>
					
						<rect x="543.2" y="188.2" transform="matrix(0.7071 -0.7071 0.7071 0.7071 -46.3023 522.5193)" class="st0" width="128.8" height="258"/>
					
						<rect x="364.2" y="191.3" transform="matrix(0.7071 -0.7071 0.7071 0.7071 -100.9418 396.8829)" class="st0" width="128.8" height="258"/>
				</g>
				<g>
					
						<rect x="901.2" y="792.3" transform="matrix(0.7071 -0.7071 0.7071 0.7071 -368.6341 952.6226)" class="st0" width="128.8" height="258"/>
					
						<rect x="722.2" y="795.5" transform="matrix(0.7071 -0.7071 0.7071 0.7071 -423.2737 826.9863)" class="st0" width="128.8" height="258"/>
					
						<rect x="543.2" y="798.5" transform="matrix(0.7071 -0.7071 0.7071 0.7071 -477.8843 701.2802)" class="st0" width="128.8" height="258"/>
					
						<rect x="364.2" y="801.7" transform="matrix(0.7071 -0.7071 0.7071 0.7071 -532.5238 575.6438)" class="st0" width="128.8" height="258"/>
				</g>
			</g>
		</g>
		<g>
			<g>
				<path d="M1613.1,919.1c-47.2,0-91.5-18.3-124.7-51.7c-33.3-33.3-51.7-77.7-51.7-124.7V687c0-11.9,9.7-21.7,21.7-21.7h70.7
					c11.9,0,21.7,9.7,21.7,21.7v63c0,34.5,28.1,62.6,62.6,62.6c34.5,0,62.6-28.1,62.6-62.6V350.4c0-11.8,9.6-21.6,21.4-21.7h70.8
					c11.9,0,21.7,9.7,21.7,21.7v392.2c0,47.2-18.3,91.5-51.7,124.7C1704.6,900.7,1660.3,919.1,1613.1,919.1z"/>
				<path class="st0" d="M1767.9,333.7c9.3,0,16.7,7.6,16.7,16.7v392.2c0,94.8-76.8,171.5-171.5,171.5s-171.5-76.8-171.5-171.5
					v-55.6c0-9.3,7.6-16.7,16.7-16.7h70.7c9.3,0,16.7,7.6,16.7,16.7v63c0,37.2,30.1,67.4,67.4,67.4c37.2,0,67.4-30.1,67.4-67.4
					V350.4c0-9.2,7.6-16.6,16.5-16.7H1767.9 M1767.9,323.9h-70.7h-0.1h-0.1c-14.5,0.2-26.2,12.1-26.2,26.6v399.5
					c0,31.8-25.9,57.7-57.7,57.7s-57.7-25.9-57.7-57.7v-63c0-14.7-11.9-26.6-26.6-26.6h-70.7c-14.7,0-26.6,11.9-26.6,26.6v55.6
					c0,24.5,4.8,48.2,14.3,70.6c9.2,21.6,22.3,41,38.9,57.6s36,29.7,57.6,38.9c22.4,9.5,46.1,14.3,70.6,14.3
					c24.5,0,48.2-4.8,70.6-14.3c21.6-9.2,41-22.3,57.6-38.9s29.7-36,38.9-57.6c9.5-22.4,14.3-46.1,14.3-70.6V350.4
					C1794.5,335.8,1782.6,323.9,1767.9,323.9L1767.9,323.9z"/>
			</g>
			<g>
				<path d="M2145.6,919.2c-10.2,0-19-7.2-21-17l-49.5-224.9h-128.9l-49.6,224.9c-2.3,10-11,16.9-21.2,16.9h-69.8
					c-6.6,0-12.7-3-16.8-8.1c-4.1-5.1-5.7-11.7-4.3-18.1l120.4-547.1c2.3-10,11-16.9,21.2-16.9h169c10.1,0,19,7.2,21.2,16.9
					l120.4,547c1.4,6.4-0.2,13-4.3,18.1c-4.1,5.1-10.2,8.1-16.8,8.1h-69.8V919.2z M2051.6,570.8l-41-186.1l-41,186.1H2051.6z"/>
				<path class="st0" d="M2095,333.8c7.9,0,14.7,5.5,16.3,13.1L2231.9,894c2.3,10.3-5.7,20.3-16.3,20.3h-69.8
					c-7.9,0-14.7-5.5-16.1-13.1l-50.4-228.7h-136.8L1892,901.2c-1.8,7.7-8.6,13.1-16.3,13.1h-69.8c-10.6,0-18.6-9.8-16.3-20.3
					l120.4-547.1c1.8-7.7,8.6-13.1,16.3-13.1h78.3h12.4H2095 M1963.6,575.7h94.2l-47.1-213.8L1963.6,575.7 M2095,324h-78.3h-12.4
					H1926c-12.4,0-23,8.6-25.9,20.7l0,0l0,0l-120.4,547.1c-1.7,7.9,0.2,16,5.3,22.3c5,6.3,12.6,9.8,20.7,9.8h69.8
					c12.4,0,23-8.6,25.9-20.7l0,0l0,0l48.7-221h121.1l48.7,220.9c2.4,12.1,13.2,21,25.8,21h69.8c8.1,0,15.6-3.6,20.7-9.8
					c5-6.3,7-14.4,5.3-22.3l-120.4-547.1C2118.3,332.8,2107.4,324,2095,324L2095,324z M1975.7,565.8l35-158.4l35,158.4H1975.7
					L1975.7,565.8z"/>
			</g>
			<g>
				<path d="M2671.5,919.1c-11.9,0-21.7-9.7-21.7-21.7v-547c0-11.9,9.7-21.7,21.7-21.7h329.6c11.9,0,21.7,9.7,21.7,21.7v63.3
					c0,11.9-9.7,21.7-21.7,21.7h-237.4v120.1h192.6c11.9,0,21.7,9.7,21.7,21.7v63.3c0,11.9-9.7,21.7-21.7,21.7h-192.6v150.2h237.4
					c11.9,0,21.7,9.7,21.7,21.7v63.3c0,11.9-9.7,21.7-21.7,21.7L2671.5,919.1L2671.5,919.1z"/>
				<path class="st0" d="M3001.1,333.7c9.3,0,16.7,7.6,16.7,16.7v63.3c0,9.2-7.6,16.7-16.7,16.7h-242.3v130h197.5
					c9.3,0,16.7,7.6,16.7,16.7v63.3c0,9.3-7.6,16.7-16.7,16.7h-197.5v160h242.3c9.3,0,16.7,7.6,16.7,16.7v63.3
					c0,9.3-7.6,16.7-16.7,16.7h-329.6c-9.3,0-16.7-7.6-16.7-16.7v-80v-160v-96.8v-130v-80c0-9.3,7.6-16.7,16.7-16.7h87.3
					L3001.1,333.7 M3001.1,323.9h-242.3h-87.3c-14.7,0-26.6,11.9-26.6,26.6v80v130.1v96.8v160.2v80c0,14.7,11.9,26.6,26.6,26.6
					h329.6c14.7,0,26.6-11.9,26.6-26.6v-63.3c0-14.7-11.9-26.6-26.6-26.6h-232.5V667.2h187.8c14.7,0,26.6-11.9,26.6-26.6v-63.3
					c0-14.7-11.9-26.6-26.6-26.6h-187.8V440.3h232.5c14.7,0,26.6-11.9,26.6-26.6v-63.3C3027.6,335.8,3015.8,323.9,3001.1,323.9
					L3001.1,323.9z"/>
			</g>
			<g>
				<path d="M2281.2,919.2c-11.9,0-21.7-9.7-21.7-21.7V350.4c0-11.9,9.7-21.7,21.7-21.7h70.7c11.9,0,21.7,9.7,21.7,21.7v462.2
					l237.3-0.1c11.9,0,21.7,9.7,21.7,21.7v63.3c0,11.9-9.7,21.7-21.7,21.7L2281.2,919.2L2281.2,919.2z"/>
				<path class="st0" d="M2351.9,333.7c9.3,0,16.7,7.6,16.7,16.7v467.1l242.2-0.1c9.3,0,16.7,7.6,16.7,16.7v63.3
					c0,9.3-7.6,16.7-16.7,16.7h-329.6c-9.2,0-16.7-7.6-16.7-16.7v-80v-467c0-9.3,7.6-16.7,16.7-16.7H2351.9 M2351.9,323.9h-70.7
					c-14.7,0-26.6,11.9-26.6,26.6v467.1v80c0,14.7,11.9,26.6,26.6,26.6h329.6c14.7,0,26.6-11.9,26.6-26.6v-63.3
					c0-14.7-11.9-26.6-26.6-26.6l-232.4,0.1V350.4C2378.5,335.8,2366.6,323.9,2351.9,323.9L2351.9,323.9z"/>
			</g>
			<g>
				<path d="M3609.3,919.2c-16.8,0-60.6-2.8-103-28.6c-27.1-16.4-48.5-39.3-63.9-67.9c-18.8-35.1-28.4-79.3-28.4-130.9v-142
					c0-51.8,9.6-95.8,28.4-130.9c15.4-28.7,36.8-51.5,63.9-67.9c42.4-25.8,86.2-28.6,103-28.6c16.8,0,60.6,2.8,103,28.6
					c27.1,16.4,48.5,39.3,63.9,67.9c18.8,35.1,28.4,79.3,28.4,130.9v141.9c0,51.8-9.6,95.8-28.4,131c-15.4,28.7-36.8,51.5-63.9,67.9
					C3669.8,916.4,3626.1,919.2,3609.3,919.2z M3608,424c-13.4,0-80.1,7.2-80.1,149.7v98.6c0,142.4,66.8,149.7,80.1,149.7
					c13.4,0,80.1-7.2,80.1-149.7v-98.6C3688.2,431.2,3621.4,424,3608,424z"/>
				<path class="st0" d="M3609.3,327.2c14.1,0,190.2,0,190.2,222.6v141.9c0,222.6-176.1,222.6-190.2,222.6s-190.2,0-190.2-222.6
					V549.8C3419.1,327.2,3595.2,327.2,3609.3,327.2 M3608,826.7c6.4,0,85,0,85-154.5v-98.6c0-154.5-78.7-154.5-85-154.5
					c-6.4,0-85,0-85,154.5v98.6C3523,826.7,3601.7,826.7,3608,826.7 M3609.3,317.4c-17.2,0-62,2.9-105.5,29.2
					c-27.9,16.9-49.9,40.4-65.7,69.8c-19.2,35.8-28.9,80.7-28.9,133.3v141.9c0,52.6,9.7,97.5,28.9,133.3
					c15.8,29.4,37.8,53,65.7,69.8c43.4,26.4,88.2,29.2,105.5,29.2s62-2.9,105.5-29.2c27.9-16.9,49.9-40.4,65.7-69.8
					c19.2-35.8,28.9-80.7,28.9-133.3V549.8c0-52.6-9.7-97.5-28.9-133.3c-15.8-29.4-37.8-53-65.7-69.8
					C3671.3,320.3,3626.5,317.4,3609.3,317.4L3609.3,317.4z M3608,816.8c-6.2,0-22.3-1.6-38.2-16.6c-24.2-22.8-37-67.1-37-128.1
					v-98.5c0-60.9,12.8-105.2,37-128.1c16-15.1,32-16.6,38.2-16.6c6.2,0,22.3,1.6,38.2,16.6c24.2,22.8,37,67.1,37,128.1v98.6
					c0,60.9-12.8,105.2-37,128.1C3630.3,815.2,3614.2,816.8,3608,816.8L3608,816.8z"/>
			</g>
			<g>
				<path d="M3213,919.1c-16.8,0-60.6-2.8-103-28.6c-27.1-16.4-48.5-39.3-63.9-67.9c-18.8-35.1-28.4-79.3-28.4-131v-51h-0.1v-90.8
					c0-51.8,9.6-95.8,28.4-130.9c15.4-28.7,36.8-51.5,63.9-67.9c42.4-25.8,86.2-28.6,103-28.6h0.4c16.6,0,59.8,2.8,101.9,28.1
					c26.6,16,47.9,38.1,63.2,65.7c18.8,33.9,28.8,76.3,29.7,126c0,12-9.6,21.8-21.6,21.8h-74.3c-11.2,0-20.7-8.8-21.6-19.9
					c-8.7-114.2-67.2-120-78.9-120c-6.8,0-24.4,1.8-41.6,18.1c-25.1,23.8-38.4,69.3-38.4,131.5V668c0,62.3,13.4,107.8,38.6,131.6
					c17.2,16.2,34.8,18,41.5,18c11.6,0,70.2-5.8,79-120c0.9-11.3,10.1-19.9,21.6-19.9h74.2c11.7,0,21.5,9.6,21.6,21.5v0.1
					c-0.9,50-11,92.6-30,126.6c-15.5,27.7-36.9,49.8-63.7,65.7C3272.4,916.4,3229.5,919.1,3213,919.1z"/>
				<path class="st0" d="M3212.9,327.2c0.1,0,0.2,0,0.4,0c15.8,0,186,1.3,189.9,215c0,9.3-7.5,16.7-16.6,16.7h-74.2l0,0h-0.1
					c-8.8,0-16-6.8-16.6-15.4c-9.4-124.3-77.6-124.6-83.8-124.6c-6.7,0-85,0.3-85,154.5v33.6v27.1v33.6c0,154.5,78.8,154.5,85,154.5
					c5.8,0,74.3-0.1,83.8-124.6c0.7-8.8,8-15.4,16.6-15.4h74.2c9.2,0,16.5,7.6,16.6,16.6c-3.9,215-176.2,215-190.1,215
					c-14.1,0-190.2,0-190.2-222.6V636h-0.1v-86.2C3022.7,327.2,3198.8,327.2,3212.9,327.2 M3212.9,317.4c-17.2,0-62,2.9-105.5,29.2
					c-27.9,16.9-49.9,40.4-65.7,69.8c-19.2,35.8-28.9,80.7-28.9,133.3V636v9.2h0.1v46.4c0,52.6,9.7,97.5,28.9,133.3
					c15.8,29.4,37.8,53,65.7,69.8c43.4,26.4,88.2,29.2,105.5,29.2c16.9,0,60.8-2.8,103.9-28.3c27.6-16.3,49.5-39,65.5-67.4
					c19.4-34.7,29.7-78.1,30.6-128.9v-0.1v-0.1c-0.2-14.5-12-26.3-26.5-26.3h-74.2c-6.7,0-13.1,2.5-18,7c-4.9,4.5-7.9,10.7-8.5,17.4
					c-3.7,48.5-17.4,83.9-39.8,102.1c-15.2,12.4-30.1,13.4-34.4,13.4c-4.8,0-21.8-1.2-38.1-16.6c-24.2-22.9-37.1-67.1-37.1-128.1
					v-33.6v-27.1v-33.6c0-60.8,12.8-105.1,36.9-128c16.3-15.6,33.4-16.7,38.2-16.7c10.9,0,65.7,5.6,74,115.5
					c1.1,13.7,12.7,24.4,26.4,24.4h0.1h74.2c14.6,0,26.5-11.9,26.5-26.6v-0.1v-0.1c-0.9-50.6-11.1-93.7-30.3-128.4
					c-15.8-28.5-37.6-51.1-64.9-67.5c-43.2-25.9-87.4-28.7-104.5-28.7L3212.9,317.4L3212.9,317.4z"/>
			</g>
			<g>
				<path d="M1640.2,1422.6c-44.1,0-84.7-16.9-114.2-47.7c-29.2-30.4-45.3-71.7-45.3-116.3c0-44.4,16-85.8,45.3-116.4
					c29.8-31.2,70.9-48.4,115.6-48.4c61.8,0,96,24.1,123.6,50.2l3.5,3.3l-30.5,32.8l-3.5-3.4c-30.2-28.7-58.2-41-93.5-41
					c-65.3,0-114.5,52.5-114.5,122c0,70.1,49.2,122.9,114.5,122.9c42.3,0,69.1-17.2,96.2-43.1l3.4-3.2l29.8,29.2l-3.4,3.4
					C1740,1394.6,1703.6,1422.6,1640.2,1422.6z"/>
				<path class="st0" d="M1641.5,1098.8c55.9,0,89.4,19.8,120.2,48.8l-23.8,25.6c-26-24.7-55-42.3-97-42.3
					c-68.2,0-119.3,55-119.3,126.9c0,71.9,51.5,127.8,119.3,127.8c42.3,0,70-16.2,99.5-44.5l22.9,22.5
					c-32.1,32.5-67.3,54.1-123.4,54.1c-89,0-154.6-70-154.6-159C1485.5,1170.6,1550.7,1098.8,1641.5,1098.8 M1641.5,1089
					c-46.1,0-88.4,17.7-119.1,49.9c-30.1,31.5-46.7,74-46.7,119.7c0,45.9,16.5,88.4,46.7,119.7c30.4,31.7,72.3,49.1,117.8,49.1
					c28.1,0,52.6-5.1,74.8-15.8c19.1-9.1,36.7-22.2,55.5-41.2l6.9-7l-7-6.9l-22.9-22.5l-6.8-6.7l-6.9,6.5
					c-26.3,25.1-52.1,41.7-92.8,41.7c-62.4,0-109.6-50.7-109.6-118c0-66.8,47.1-117.1,109.6-117.1c34.1,0,61,11.8,90.2,39.6l7.2,6.8
					l6.8-7.3l23.8-25.6l6.6-7.1l-7.1-6.7c-18.3-17.2-35.2-29-53.5-37.1C1693.4,1093.7,1669.4,1089,1641.5,1089L1641.5,1089z"/>
			</g>
			<g>
				<polygon points="1832.7,1417.2 1832.7,1099.1 1877.2,1099.1 1877.2,1375.3 2050.9,1375.3 2050.9,1417.2 				"/>
				<path class="st0" d="M1872.4,1103.9v276.3H2046v32.1h-208.3v-308.4H1872.4 M1882.1,1094.2h-9.7h-34.8h-9.7v9.7v308.4v9.7h9.7
					H2046h9.7v-9.7v-32.1v-9.7h-9.7h-163.8V1104L1882.1,1094.2L1882.1,1094.2z"/>
			</g>
			<g>
				<path d="M2370.3,1417.3l-36.1-81.4h-161.5l-36.5,81.4h-46.5l144.8-320.4h38.9l145,320.4H2370.3z M2316,1294.7l-62.5-140.4
					l-62.9,140.4H2316z"/>
				<path class="st0" d="M2270.4,1101.8l140.6,310.6h-37.4l-36.1-81.4h-167.9l-36.5,81.4h-35.7l140.4-310.6H2270.4 M2183,1299.6
					h140.6l-70-157.2L2183,1299.6 M2276.7,1092h-6.3h-32.6h-6.3l-2.6,5.8l-140.6,310.5l-6.2,13.8h15.2h35.7h6.3l2.6-5.8l34-75.7
					H2331l33.6,75.6l2.6,5.8h6.4h37.4h15.2l-6.3-13.9l-140.6-310.6L2276.7,1092L2276.7,1092z M2198.2,1289.8l55.3-123.5l54.9,123.5
					H2198.2L2198.2,1289.8z"/>
			</g>
			<g>
				<path d="M2584.5,1421.6c-49.5,0-90.6-16-129.3-50.6l-3.5-3.2l27.9-33.1l3.7,3.4c33.2,30,62.9,42.3,102.5,42.3
					c38.2,0,63.8-19.3,63.8-47.9c0-25.3-11.8-40.6-76.3-54.3c-64.5-14.1-107.4-35.4-107.4-94.2c0-51.9,44.7-89.5,106.2-89.5
					c44.1,0,77.5,11.6,111.5,39l3.7,3l-26.2,34.7l-3.9-3.2c-27.1-22.1-54.4-32.4-86-32.4c-35.7,0-60.7,18.6-60.7,45.3
					c-0.1,25.7,12.2,41.4,79.8,55.7c73.2,16,104.4,43.6,104.4,92.5c0,27.5-10.9,50.8-31.5,67.6
					C2643.2,1413,2616,1421.6,2584.5,1421.6z"/>
				<path class="st0" d="M2572.2,1099.5c45,0,77.1,12.7,108.4,37.9l-20.3,26.9c-28.6-23.3-57.3-33.5-89-33.5
					c-40.1,0-65.6,22.1-65.6,50.2c-0.1,29.6,15.8,46,83.6,60.6c68.7,15,100.4,40.1,100.4,87.6c0,53.4-44.1,87.6-105.3,87.6
					c-48.8,0-89-16.3-126-49.3l21.6-25.6c32.1,29,63,43.6,105.7,43.6c41.5,0,68.7-21.6,68.7-52.9c0-29-15.5-45.3-80.2-59.1
					c-70.9-15.5-103.5-38.3-103.5-89.4C2470.8,1134.7,2513.6,1099.5,2572.2,1099.5 M2572.2,1089.6c-64.4,0-111.2,39.7-111.2,94.4
					c0,28.3,9.4,49.7,28.7,65.7c17.5,14.5,42.9,24.7,82.5,33.4l0,0l0,0c30.4,6.4,49.5,13.4,60.4,21.9c8.7,6.9,12.1,14.6,12.1,27.6
					c0,12.3-5.2,22.8-15.1,30.4c-10.6,8.3-25.9,12.6-43.9,12.6c-38.3,0-67-11.9-99.1-41.1l-7.5-6.8l-6.5,7.8l-21.6,25.6l-6.1,7.3
					l7.1,6.3c19.7,17.6,39.9,30.3,61.4,38.9c22.1,8.8,45.4,13,71.1,13c32.7,0,60.9-9,81.8-26c10.6-8.7,18.8-19.1,24.5-31
					c5.8-12.3,8.8-25.9,8.8-40.4c0-26.7-9.2-47.5-27.9-63.5c-17.4-14.9-42.9-25.6-80.2-33.7c-32-6.8-52.2-14.1-63.4-22.7
					c-9.1-7-12.6-14.9-12.5-28.2c0-23.8,22.9-40.5,55.8-40.5c30.3,0,56.6,9.9,82.8,31.3l7.9,6.4l6.1-8.1l20.3-26.9l5.7-7.6l-7.4-5.9
					c-17.1-13.8-34.1-23.5-51.9-29.9C2615.9,1093,2595.5,1089.6,2572.2,1089.6L2572.2,1089.6z"/>
			</g>
			<g>
				<path d="M2875.4,1421.6c-49.5,0-90.6-16-129.3-50.6l-3.5-3.2l27.9-33.1l3.7,3.4c33.2,30,62.9,42.3,102.5,42.3
					c38.2,0,63.8-19.3,63.8-47.9c0-25.3-11.8-40.6-76.3-54.3c-64.5-14.1-107.4-35.4-107.4-94.2c0-51.9,44.7-89.5,106.2-89.5
					c44.1,0,77.5,11.6,111.5,39l3.7,3l-26.2,34.7l-3.9-3.2c-27.1-22.1-54.4-32.4-86-32.4c-35.7,0-60.7,18.6-60.7,45.3
					c-0.1,25.7,12.2,41.4,79.8,55.7c73.2,16,104.4,43.6,104.4,92.5c0,27.5-10.9,50.8-31.5,67.6
					C2934.1,1413,2906.9,1421.6,2875.4,1421.6z"/>
				<path class="st0" d="M2863.1,1099.5c45,0,77.1,12.7,108.4,37.9l-20.3,26.9c-28.6-23.3-57.3-33.5-89-33.5
					c-40.1,0-65.6,22.1-65.6,50.2c-0.1,29.6,15.8,46,83.6,60.6c68.7,15,100.4,40.1,100.4,87.6c0,53.4-44.1,87.6-105.3,87.6
					c-48.8,0-89-16.3-126-49.3l21.6-25.6c32.1,29,63,43.6,105.7,43.6c41.5,0,68.7-21.6,68.7-52.9c0-29-15.5-45.3-80.2-59.1
					c-70.9-15.5-103.5-38.3-103.5-89.4C2761.7,1134.7,2804.4,1099.5,2863.1,1099.5 M2863.1,1089.6c-64.4,0-111.2,39.7-111.2,94.4
					c0,28.3,9.4,49.7,28.7,65.7c17.5,14.5,42.9,24.7,82.5,33.4l0,0l0,0c30.4,6.4,49.5,13.4,60.4,21.9c8.7,6.9,12.1,14.6,12.1,27.6
					c0,12.3-5.2,22.8-15.1,30.4c-10.6,8.3-25.9,12.6-43.9,12.6c-38.3,0-67-11.9-99.1-41.1l-7.5-6.8l-6.5,7.8l-21.6,25.6l-6.1,7.3
					l7.1,6.3c19.7,17.6,39.9,30.3,61.4,38.9c22.1,8.8,45.4,13,71.1,13c32.7,0,60.9-9,81.8-26c10.6-8.7,18.8-19.1,24.5-31
					c5.8-12.3,8.8-25.9,8.8-40.4c0-26.7-9.2-47.5-27.9-63.5c-17.4-14.9-42.9-25.6-80.2-33.7c-32-6.8-52.2-14.1-63.4-22.7
					c-9.1-7-12.6-14.9-12.5-28.2c0-23.8,22.9-40.5,55.8-40.5c30.3,0,56.6,9.9,82.8,31.3l7.9,6.4l6.1-8.1l20.3-26.9l5.7-7.6l-7.4-5.9
					c-17.1-13.8-34.1-23.5-51.9-29.9C2906.8,1093,2886.3,1089.6,2863.1,1089.6L2863.1,1089.6z"/>
			</g>
			<g>
				<rect x="3062.9" y="1099.1" width="44.7" height="318.2"/>
				<path class="st0" d="M3102.7,1103.9v308.5h-34.9v-308.5H3102.7 M3112.6,1094.2h-9.7H3068h-9.7v9.7v308.5v9.7h9.7h34.9h9.7v-9.7
					v-308.5V1094.2L3112.6,1094.2z"/>
			</g>
			<g>
				<path d="M3347.3,1422.6c-44.1,0-84.7-16.9-114.2-47.7c-29.2-30.4-45.3-71.7-45.3-116.3c0-44.4,16-85.8,45.3-116.4
					c29.8-31.2,70.9-48.4,115.6-48.4c61.8,0,96,24.1,123.6,50.2l3.5,3.3l-30.5,32.7l-3.5-3.4c-30.3-28.7-58.3-41-93.5-41
					c-65.3,0-114.5,52.5-114.5,122c0,70.1,49.2,122.9,114.5,122.9c42.3,0,69.1-17.2,96.2-43.1l3.4-3.2l29.8,29.2l-3.4,3.4
					C3447,1394.6,3410.7,1422.6,3347.3,1422.6z"/>
				<path class="st0" d="M3348.7,1098.8c56,0,89.4,19.8,120.2,48.8l-23.8,25.6c-26.1-24.7-55-42.3-97-42.3
					c-68.3,0-119.3,55-119.3,126.9c0,71.9,51.6,127.8,119.3,127.8c42.3,0,70-16.2,99.5-44.5l22.9,22.5
					c-32.1,32.5-67.3,54.1-123.4,54.1c-89,0-154.6-70-154.6-159C3192.6,1170.6,3257.9,1098.8,3348.7,1098.8 M3348.7,1089
					c-46.1,0-88.4,17.7-119.1,49.9c-30.1,31.5-46.7,74-46.7,119.7c0,45.9,16.5,88.4,46.7,119.7c30.4,31.7,72.3,49.1,117.8,49.1
					c28.1,0,52.6-5.1,74.8-15.8c19.1-9.1,36.7-22.2,55.5-41.2l6.9-7l-7-6.9l-22.9-22.5l-6.8-6.7l-6.9,6.5
					c-26.3,25.1-52.1,41.7-92.8,41.7c-62.4,0-109.6-50.7-109.6-118c0-66.8,47.1-117.1,109.6-117.1c33.9,0,60.8,11.8,90.2,39.6
					l7.2,6.8l6.7-7.2l23.8-25.6l6.6-7.1l-7.1-6.7c-18.3-17.2-35.2-29-53.4-37.1C3400.6,1093.7,3376.4,1089,3348.7,1089L3348.7,1089z
					"/>
			</g>
			<g>
				<path d="M3650.6,1421.6c-49.5,0-90.6-16-129.3-50.6l-3.5-3.2l27.9-33.1l3.7,3.4c33.2,30,62.9,42.3,102.5,42.3
					c38.2,0,63.8-19.3,63.8-47.9c0-25.3-11.8-40.6-76.3-54.3c-64.5-14.1-107.5-35.4-107.5-94.2c0-51.9,44.7-89.5,106.2-89.5
					c44.1,0,77.5,11.6,111.5,39l3.7,3l-26.2,34.7l-3.9-3.2c-27.1-22.1-54.4-32.4-86-32.4c-35.7,0-60.7,18.6-60.7,45.3
					c0,25.7,12.3,41.4,79.9,55.7c73.2,16,104.4,43.6,104.4,92.5c0,27.5-10.9,50.8-31.5,67.6
					C3709.2,1413,3682.1,1421.6,3650.6,1421.6z"/>
				<path class="st0" d="M3638,1099.5c45,0,77.1,12.7,108.4,37.9l-20.3,26.9c-28.6-23.3-57.3-33.5-89-33.5
					c-40.1,0-65.6,22.1-65.6,50.2c0,29.6,15.9,46,83.7,60.6c68.7,15,100.4,40.1,100.4,87.6c0,53.4-44.1,87.6-105.3,87.6
					c-48.8,0-89-16.3-126-49.3l21.6-25.6c32.1,29,62.9,43.6,105.7,43.6c41.5,0,68.7-21.6,68.7-52.9c0-29-15.5-45.3-80.2-59.1
					c-70.9-15.5-103.6-38.3-103.6-89.4C3536.7,1134.7,3579.6,1099.5,3638,1099.5 M3638,1089.6c-30.6,0-58.7,9.3-78.9,26.1
					c-20.8,17.3-32.3,41.5-32.3,68.3c0,28.3,9.5,49.7,28.7,65.7c17.5,14.5,43,24.7,82.5,33.4l0,0l0,0c30.4,6.4,49.5,13.4,60.4,21.9
					c8.7,6.9,12.1,14.6,12.1,27.6c0,12.3-5.2,22.8-15.1,30.4c-10.6,8.3-25.9,12.6-43.9,12.6c-38.3,0-67-11.9-99.1-41.1l-7.5-6.8
					l-6.5,7.8l-21.6,25.6l-6.1,7.3l7.1,6.3c19.7,17.6,39.9,30.3,61.4,38.9c22.1,8.8,45.4,13,71.1,13c32.7,0,60.9-9,81.8-26
					c10.6-8.7,18.8-19.1,24.5-31c5.8-12.3,8.8-25.9,8.8-40.4c0-26.7-9.2-47.5-27.9-63.5c-17.4-14.9-42.9-25.6-80.2-33.7
					c-32-6.8-52.2-14.1-63.4-22.7c-9.1-7-12.6-14.9-12.6-28.2c0-23.8,22.9-40.5,55.8-40.5c30.3,0,56.6,9.9,82.8,31.3l7.9,6.4
					l6.1-8.1l20.3-26.9l5.7-7.6l-7.4-5.9c-17.1-13.8-34.1-23.5-51.9-29.9C3681.9,1093,3661.4,1089.6,3638,1089.6L3638,1089.6z"/>
			</g>
		</g>
	</g>
</g>
</svg>
