<?xml version="1.0" encoding="utf-8"?>
<!-- Generator: Adobe Illustrator 26.2.1, SVG Export Plug-In . SVG Version: 6.00 Build 0)  -->
<svg version="1.1" id="Layer_1" xmlns="http://www.w3.org/2000/svg" xmlns:xlink="http://www.w3.org/1999/xlink" x="0px" y="0px"
	 viewBox="0 0 3839 1507.9" style="enable-background:new 0 0 3839 1507.9;" xml:space="preserve">
<style type="text/css">
	.st0{fill:#FFFFFF;}
	.st1{fill:#E31E26;}
</style>
<g>
	<g>
		<g>
			<path class="st0" d="M531.6,989.6c-75.1,0-146-12.9-210.7-38.2c-62.2-24.3-117.2-59.6-163.5-104.7
				c-92-89.4-142.6-211.3-142.6-343.2c0-65.7,12.5-129,37.2-188.3c24.3-58.6,59.6-111,104.9-155.9c46-45.4,100.7-81,162.4-105.7
				C383.7,27.8,453.9,14.8,528,14.8h2781.9c74.3,0,144.6,13,208.7,38.7c61.6,24.5,116.3,60,162.5,105.4
				c45.3,44.6,80.7,96.9,105.3,155.7c24.8,59.4,37.6,122.9,37.9,188.8c0,65.9-12.6,129.3-37.4,188.4
				c-24.5,58.4-60.1,110.5-105.7,154.9c-46.3,45.1-101.3,80.3-163.5,104.7c-64.7,25.4-135.4,38.2-210.2,38.2H531.6z"/>
			<path class="st0" d="M3309.9,29.5c72.3,0,140.7,12.6,203.2,37.6c59.9,23.8,112.8,58.2,157.6,102.2c43.8,43.1,78.2,93.9,102,150.8
				c24,57.5,36.4,119.1,36.7,183.1c0,63.9-12.2,125.3-36.2,182.7c-23.8,56.7-58.3,107.1-102.4,150.1
				c-44.9,43.7-98.4,77.9-158.6,101.5c-63,24.7-131.9,37.2-204.8,37.2H531.6c-73.2,0-142.3-12.5-205.3-37.2
				c-60.4-23.6-113.7-57.8-158.6-101.5C78.6,749.4,29.5,631.3,29.5,503.4c0-63.7,12.1-125.1,36-182.7
				c23.6-56.9,57.9-107.7,101.6-151c44.7-44.1,97.8-78.6,157.5-102.5c62.6-25,131.1-37.7,203.2-37.7c0.9,0,1.7,0,2.5,0h2777
				C3308.2,29.5,3309.1,29.5,3309.9,29.5 M3309.9,0h-2.5h-2777H528c-76,0-148,13.4-214.2,39.8c-63.6,25.5-119.9,62.1-167.3,108.9
				c0,0,0,0,0,0C99.7,195,63.4,249.1,38.3,309.5C12.9,370.5,0,435.8,0,503.4C0,639.4,52.2,765,147.1,857.2
				c47.7,46.5,104.4,82.8,168.4,107.8c66.4,26,139.1,39.3,216.1,39.3h2775.8c76.6,0,149.2-13.2,215.6-39.3
				c64.1-25.1,120.8-61.4,168.4-107.9c47-45.8,83.7-99.5,109-159.8c25.6-61,38.5-126.3,38.5-194.1c0,0,0-0.1,0-0.1
				c-0.3-67.8-13.4-133.2-39-194.4c-25.4-60.6-61.9-114.6-108.5-160.5c-47.6-46.8-104-83.3-167.4-108.6
				C3458.1,13.4,3386.1,0,3309.9,0L3309.9,0z"/>
		</g>
		<g>
			<path class="st0" d="M908.7,1493.1c-49.5,0-95.1-19.1-128.4-53.7c-32.8-34-50.8-80.2-50.8-130c0-49.6,18-95.8,50.8-130
				c33.5-35.1,79.6-54.5,129.8-54.5c29.6,0,55.6,5,79.4,15.3c0,0,0.1,0,0.1,0.1c19.6,8.7,37.9,21.4,57.6,39.9l7.1,6.7
				c5.9,5.6,6.2,14.9,0.7,20.8l-30.4,32.7l-6.8,7.3c-2.7,2.9-6.4,4.6-10.3,4.7c-0.2,0-0.3,0-0.5,0c-3.8,0-7.4-1.4-10.1-4l-7.2-6.8
				c-26.5-25.3-49.7-35.5-80-35.5c-26.1,0-50,10.3-67.4,28.9c-17.7,18.9-27.4,45-27.4,73.5c0,28.8,9.7,55.2,27.4,74.2
				c17.4,18.7,41.3,29.1,67.4,29.1c36,0,58.3-14.4,82.7-37.7l7-6.6c2.8-2.7,6.5-4,10.1-4c3.8,0,7.5,1.4,10.4,4.2l6.8,6.7l22.9,22.5
				l7,6.9c2.8,2.8,4.4,6.5,4.4,10.5s-1.5,7.7-4.3,10.5l-7,7c-20,20.2-38.9,34.2-59.6,44C965.5,1487.4,938.9,1493.1,908.7,1493.1z"/>
			<path class="st0" d="M910.1,1139.7c27.9,0,51.9,4.7,73.6,14.1c18.2,8.1,35.2,19.9,53.5,37.1l7.1,6.7l-6.6,7.1l-23.8,25.6
				l-6.8,7.3l-7.2-6.8c-29.1-27.8-56.1-39.6-90.2-39.6c-62.4,0-109.6,50.4-109.6,117.2c0,67.3,47.1,118.1,109.6,118.1
				c40.7,0,66.6-16.6,92.9-41.7l6.9-6.5l6.8,6.7l22.9,22.5l7,6.9l-7,7c-18.8,19-36.5,32.1-55.5,41.2c-22.4,10.6-46.8,15.9-74.8,15.9
				c-45.5,0-87.2-17.4-117.8-49.1c-30.1-31.3-46.7-73.8-46.7-119.7c0-45.8,16.5-88.3,46.7-119.8
				C821.7,1157.4,864,1139.7,910.1,1139.7 M910.1,1110.2c-54.3,0-104.2,21-140.5,59.1c-35.4,37-54.8,86.8-54.8,140.2
				c0,53.6,19.5,103.4,54.9,140.2c36.1,37.5,85.5,58.2,139,58.2c32.4,0,61-6.1,87.5-18.7c22.3-10.6,42.6-25.6,63.8-47l6.9-6.9
				c5.6-5.6,8.7-13.1,8.7-21c0-7.9-3.2-15.4-8.8-20.9l-7-6.9l-23-22.6l-6.8-6.7c-5.7-5.7-13.2-8.5-20.7-8.5c-7.3,0-14.6,2.7-20.3,8
				l-6.9,6.5c0,0-0.1,0.1-0.1,0.1c-22.3,21.3-41.3,33.6-72.4,33.6c-21.9,0-42-8.6-56.6-24.3c-15.1-16.3-23.5-39.1-23.5-64.2
				c0-24.8,8.3-47.3,23.4-63.4c14.6-15.6,34.7-24.2,56.6-24.2c26.5,0,46.1,8.8,69.8,31.4c0,0,0.1,0.1,0.1,0.1l7.2,6.8
				c5.5,5.2,12.8,8.1,20.3,8.1c0.3,0,0.6,0,0.9,0c7.9-0.2,15.3-3.6,20.7-9.4l6.8-7.3l23.8-25.6l6.6-7.1
				c11.1-11.9,10.5-30.5-1.3-41.6l-7.1-6.7c0,0,0,0,0,0c-20.9-19.7-40.5-33.2-61.7-42.6c-0.1,0-0.2-0.1-0.3-0.1
				C969.6,1115.6,941.8,1110.2,910.1,1110.2L910.1,1110.2z"/>
		</g>
		<g>
			<path class="st0" d="M1096.6,1487.7c-8.2,0-14.8-6.6-14.8-14.8v-328c0-8.2,6.6-14.8,14.8-14.8h54.2c8.2,0,14.9,6.6,14.9,14.8
				v261.6h158.9c8.2,0,14.8,6.6,14.8,14.8v51.6c0,8.2-6.6,14.8-14.8,14.8H1096.6z"/>
			<path class="st0" d="M1150.8,1144.9v9.8v266.5h163.9h9.7v9.7v32.1v9.7h-9.7h-208.4h-9.7v-9.7v-308.5v-9.7h9.6h0.1h34.7H1150.8
				L1150.8,1144.9 M1150.8,1115.4L1150.8,1115.4h-9.8h-34.7h-0.1h-9.6c-16.3,0-29.5,13.2-29.5,29.5v9.7v308.5v9.7
				c0,16.3,13.2,29.5,29.5,29.5h9.7h208.4h9.7c16.3,0,29.5-13.2,29.5-29.5v-9.7v-32.1v-9.7c0-16.3-13.2-29.5-29.5-29.5h-9.7h-134.4
				v-237v-9.8C1180.4,1128.6,1167.2,1115.4,1150.8,1115.4L1150.8,1115.4z"/>
		</g>
		<g>
			<path class="st0" d="M1635.8,1487.8c-5.9,0-11.2-3.5-13.5-8.8l-2.6-5.8l-29.7-66.9h-136.1l-30,67l-2.5,5.8
				c-2.4,5.4-7.7,8.8-13.5,8.8h-57.2c-5,0-9.7-2.6-12.4-6.8c-2.7-4.2-3.1-9.6-1-14.1l6.3-13.8l140.6-310.7l2.5-5.7
				c2.4-5.3,7.7-8.7,13.5-8.7h45.2c5.9,0,11.2,3.5,13.5,8.8l2.4,5.5l140.7,310.7l6.3,13.9c2.1,4.6,1.7,9.9-1,14.1
				c-2.7,4.2-7.4,6.8-12.4,6.8H1635.8z M1554.5,1325.7l-32.3-72.5l-32.5,72.5H1554.5z"/>
			<path class="st0" d="M1545.3,1142.8l2.5,5.6l140.7,310.8l6.3,13.9h-15.2h-37.4h-6.4l-2.6-5.8l-33.6-75.7h-155.3l-34,75.7
				l-2.6,5.8h-6.3h-35.7h-15.2l6.3-13.8l140.6-310.8l2.6-5.7h6.3h32.6H1545.3 M1466.9,1340.5h110.3l-54.9-123.5L1466.9,1340.5
				 M1545.3,1113.2h-6.3h-32.6h-6.3c-11.6,0-22.2,6.8-27,17.5l-2.5,5.7L1330,1447l-6.3,13.7c-4.2,9.1-3.4,19.8,2,28.2
				c5.4,8.5,14.8,13.6,24.9,13.6h15.2h35.7h6.3c11.7,0,22.3-6.9,27-17.6l2.5-5.7l26.1-58.2h116.9l25.8,58.1l2.6,5.8
				c4.7,10.7,15.3,17.6,27,17.6h6.4h37.4h15.2c10,0,19.4-5.1,24.8-13.5c5.4-8.4,6.2-19.1,2.1-28.2l-6.3-13.9l-140.6-310.6l-2.4-5.5
				C1567.6,1120.2,1557,1113.2,1545.3,1113.2L1545.3,1113.2z M1512.5,1310.9l9.7-21.5l9.6,21.5H1512.5L1512.5,1310.9z"/>
		</g>
		<g>
			<path class="st0" d="M1853.4,1492.1c-27.6,0-52.7-4.6-76.5-14c-23.5-9.3-45-22.9-66-41.6l-7.1-6.3c-6-5.3-6.6-14.4-1.5-20.5
				l6.1-7.3l21.6-25.6l6.5-7.7c2.6-3.1,6.3-5,10.3-5.3c0.3,0,0.7,0,1,0c3.7,0,7.2,1.4,9.9,3.8l7.5,6.8
				c29.6,26.8,54.6,37.2,89.3,37.2c14.6,0,27-3.4,34.8-9.5c6.2-4.8,9.4-11.1,9.4-18.8c0-9.3-1.9-12.3-6.5-16
				c-8.7-6.8-26.9-13.2-54.2-19c0,0-0.1,0-0.1,0c-42-9.2-69.4-20.4-88.8-36.4c-22.6-18.6-34.1-44.5-34.1-77.1
				c0-30.9,13-58.9,36.6-79c22.9-19.5,54.6-30.2,89.3-30.2c24.9,0,47.1,3.6,67.7,11c19.4,7,37.8,17.5,56.2,32.3l7.4,5.9
				c6.2,5,7.4,14,2.6,20.4l-5.7,7.6l-20.3,26.9l-6.1,8.1c-2.4,3.2-6,5.3-10,5.8c-0.6,0.1-1.2,0.1-1.8,0.1c-3.4,0-6.7-1.2-9.3-3.3
				l-7.9-6.4c-23.4-19.1-46.8-28-73.5-28c-24.2,0-41.1,10.6-41.1,25.7c0,0,0,0.1,0,0.1c-0.1,9.5,1.9,12.6,6.8,16.4
				c9.4,7.2,28.2,13.8,57.5,20.1c39.8,8.6,67.4,20.3,86.8,36.9c21.9,18.7,33,43.8,33,74.7c0,16.7-3.4,32.5-10.2,46.8
				c-6.7,14.1-16.3,26.2-28.5,36.2C1921,1482,1889.5,1492.1,1853.4,1492.1z"/>
			<path class="st0" d="M1841,1140.4c23.3,0,43.8,3.3,62.7,10.1c17.8,6.4,34.8,16.1,51.9,29.9l7.4,5.9l-5.7,7.6l-20.3,26.9l-6.1,8.1
				l-7.9-6.4c-26.2-21.4-52.5-31.3-82.8-31.3c-32.9,0-55.8,16.6-55.8,40.5c-0.1,13.3,3.4,21.2,12.5,28.2c11.2,8.7,31.3,16,63.4,22.8
				c37.4,8.1,62.9,18.8,80.3,33.7c18.7,16,27.9,36.7,27.9,63.5c0,14.6-3,28.2-8.8,40.5c-5.7,11.9-13.9,22.4-24.5,31
				c-20.9,17-49.1,26-81.8,26c-25.7,0-48.9-4.2-71.1-13c-21.7-8.6-41.8-21.3-61.5-38.9l-7.1-6.3l6.1-7.3l21.6-25.6l6.5-7.8l7.5,6.8
				c32.2,29.1,60.9,41.1,99.3,41.1c18,0,33.3-4.3,43.9-12.6c9.8-7.6,15.1-18.1,15.1-30.4c0-13-3.4-20.7-12.1-27.6
				c-10.7-8.5-29.9-15.5-60.4-21.9c-39.6-8.7-65-18.9-82.5-33.4c-19.4-16-28.8-37.4-28.8-65.7
				C1729.8,1180.1,1776.6,1140.4,1841,1140.4 M1841,1110.9c-38.1,0-73.3,12-98.9,33.7c-27,22.9-41.9,55-41.9,90.3
				c0,37.1,13.3,66.9,39.5,88.5c21.3,17.5,50.6,29.7,95,39.4c0.1,0,0.2,0,0.2,0.1c32.7,6.9,44.2,13,48.1,16.1
				c0.3,0.2,0.5,0.4,0.7,0.6c0.1,0.6,0.3,1.8,0.3,3.9c0,3.1-1,5-3.5,7c0,0-0.1,0.1-0.1,0.1c-5.2,4.1-14.6,6.4-25.8,6.4
				c-31,0-52.5-9.1-79.4-33.4l-7.5-6.8c-5.5-5-12.5-7.7-19.9-7.7c-0.7,0-1.4,0-2,0.1c-8,0.6-15.5,4.4-20.6,10.5l-6.4,7.7l-21.5,25.6
				c0,0,0,0,0,0.1l-6.1,7.3c-10.3,12.2-8.9,30.4,3,41l7,6.3c22.2,19.9,45.3,34.4,70.3,44.3c25.6,10.1,52.4,15.1,82,15.1
				c39.6,0,74.3-11.3,100.5-32.6c13.9-11.3,24.8-25.2,32.5-41.1c0-0.1,0.1-0.1,0.1-0.2c7.7-16.3,11.6-34.2,11.6-53.1
				c0-35.4-12.9-64.4-38.2-86c-21.3-18.2-51-30.9-93.3-40.1c-35.1-7.5-47.4-14.1-51.6-17.4c-0.4-0.3-0.6-0.5-0.8-0.7
				c-0.1-0.6-0.2-1.8-0.2-3.9c0-0.1,0-0.1,0-0.2c0-5.3,10.6-10.9,26.3-10.9c23.4,0,43.2,7.6,64.1,24.7c0,0,0,0,0,0l7.9,6.4
				c5.3,4.3,11.9,6.6,18.6,6.6c1.2,0,2.4-0.1,3.6-0.2c8-1,15.2-5.1,20-11.5l6.1-8.1l20.3-26.9l5.7-7.6c9.6-12.8,7.3-30.9-5.1-40.8
				l-7.4-5.9c-19.7-15.8-39.4-27.2-60.4-34.7C1891.4,1114.8,1867.7,1110.9,1841,1110.9L1841,1110.9z"/>
		</g>
		<g>
			<path class="st0" d="M2144.3,1492.1c-27.6,0-52.7-4.6-76.5-14c-23.5-9.3-45-22.9-66-41.6l-7.1-6.3c-6-5.3-6.6-14.4-1.5-20.5
				l6.1-7.3l21.6-25.6l6.5-7.7c2.6-3.1,6.3-5,10.3-5.3c0.3,0,0.7,0,1,0c3.7,0,7.2,1.4,9.9,3.8l7.5,6.8
				c29.6,26.8,54.6,37.2,89.3,37.2c14.6,0,27-3.4,34.8-9.5c6.2-4.8,9.4-11.1,9.4-18.8c0-9.3-1.9-12.3-6.5-16
				c-8.7-6.8-26.9-13.2-54.2-19c0,0-0.1,0-0.1,0c-42-9.2-69.4-20.4-88.8-36.4c-22.6-18.6-34.1-44.5-34.1-77.1
				c0-30.9,13-58.9,36.6-79c22.9-19.5,54.6-30.2,89.3-30.2c24.9,0,47.1,3.6,67.7,11c19.4,7,37.8,17.5,56.2,32.3l7.4,5.9
				c6.2,5,7.4,14,2.6,20.4l-5.7,7.6l-20.3,26.9l-6.1,8.1c-2.4,3.2-6,5.3-10,5.8c-0.6,0.1-1.2,0.1-1.8,0.1c-3.4,0-6.7-1.2-9.3-3.3
				l-7.9-6.4c-23.4-19.1-46.8-28-73.5-28c-24.2,0-41.1,10.6-41.1,25.7c0,0,0,0.1,0,0.1c-0.1,9.5,1.9,12.6,6.8,16.4
				c9.4,7.2,28.2,13.8,57.5,20.1c39.8,8.6,67.4,20.3,86.8,36.9c21.9,18.7,33,43.8,33,74.7c0,16.7-3.4,32.5-10.2,46.8
				c-6.7,14.1-16.3,26.2-28.5,36.2C2212,1482,2180.5,1492.1,2144.3,1492.1z"/>
			<path class="st0" d="M2131.9,1140.4c23.2,0,43.8,3.3,62.7,10.1c17.8,6.4,34.8,16.1,51.9,29.9l7.4,5.9l-5.7,7.6l-20.3,26.9
				l-6.1,8.1l-7.9-6.4c-26.2-21.4-52.5-31.3-82.8-31.3c-32.9,0-55.8,16.6-55.8,40.5c-0.1,13.3,3.4,21.2,12.5,28.2
				c11.2,8.7,31.3,16,63.4,22.8c37.4,8.1,62.9,18.8,80.3,33.7c18.7,16,27.9,36.7,27.9,63.5c0,14.6-3,28.2-8.8,40.5
				c-5.7,11.9-13.9,22.4-24.5,31c-20.9,17-49.1,26-81.8,26c-25.7,0-48.9-4.2-71.1-13c-21.7-8.6-41.8-21.3-61.5-38.9l-7.1-6.3
				l6.1-7.3l21.6-25.6l6.5-7.8l7.5,6.8c32.2,29.1,60.9,41.1,99.3,41.1c18,0,33.3-4.3,43.9-12.6c9.8-7.6,15.1-18.1,15.1-30.4
				c0-13-3.4-20.7-12.1-27.6c-10.7-8.5-29.9-15.5-60.4-21.9c-39.6-8.7-65-18.9-82.5-33.4c-19.4-16-28.8-37.4-28.8-65.7
				C2020.8,1180.1,2067.5,1140.4,2131.9,1140.4 M2131.9,1110.9c-38.1,0-73.3,12-98.9,33.7c-27,22.9-41.9,55-41.9,90.3
				c0,37.1,13.3,66.9,39.5,88.5c21.3,17.5,50.6,29.7,95,39.4c0.1,0,0.2,0,0.2,0.1c32.7,6.9,44.2,13,48.1,16.1
				c0.3,0.2,0.5,0.4,0.7,0.6c0.1,0.6,0.3,1.8,0.3,3.9c0,3.1-1,5-3.5,7c0,0-0.1,0.1-0.1,0.1c-5.2,4.1-14.6,6.4-25.8,6.4
				c-31,0-52.5-9.1-79.4-33.4l-7.5-6.8c-5.5-5-12.5-7.7-19.9-7.7c-0.7,0-1.4,0-2,0.1c-8,0.6-15.5,4.4-20.6,10.5l-6.4,7.7l-21.5,25.6
				c0,0,0,0,0,0.1l-6.1,7.3c-10.3,12.2-8.9,30.4,3,41l7,6.3c22.2,19.9,45.3,34.4,70.3,44.3c25.6,10.1,52.4,15.1,82,15.1
				c39.6,0,74.3-11.3,100.5-32.6c13.9-11.3,24.8-25.2,32.5-41.1c0-0.1,0.1-0.1,0.1-0.2c7.7-16.3,11.6-34.2,11.6-53.1
				c0-35.4-12.9-64.4-38.2-86c-21.3-18.2-51-30.9-93.3-40.1c-35.1-7.5-47.4-14.1-51.6-17.4c-0.4-0.3-0.6-0.5-0.8-0.7
				c-0.1-0.6-0.2-1.8-0.2-3.9c0-0.1,0-0.1,0-0.2c0-5.3,10.6-10.9,26.3-10.9c23.4,0,43.2,7.6,64.1,24.7c0,0,0,0,0,0l7.9,6.4
				c5.3,4.3,11.9,6.6,18.6,6.6c1.2,0,2.4-0.1,3.6-0.2c8-1,15.2-5.1,20-11.5l6.1-8.1l20.3-26.9l5.7-7.6c9.6-12.8,7.3-30.9-5.1-40.8
				l-7.4-5.9c-19.7-15.8-39.4-27.2-60.4-34.7C2182.4,1114.8,2158.6,1110.9,2131.9,1110.9L2131.9,1110.9z"/>
		</g>
		<g>
			<path class="st0" d="M2327.3,1487.8c-8.2,0-14.8-6.6-14.8-14.8v-328.1c0-8.2,6.6-14.8,14.8-14.8h54.3c8.2,0,14.8,6.6,14.8,14.8
				V1473c0,8.2-6.6,14.8-14.8,14.8H2327.3z"/>
			<path class="st0" d="M2381.5,1144.9v9.7v308.6v9.7h-9.7H2337h-9.7v-9.7v-308.6v-9.7h9.7h34.8H2381.5 M2381.5,1115.4h-9.7H2337
				h-9.7c-16.3,0-29.5,13.2-29.5,29.5v9.7v308.6v9.7c0,16.3,13.2,29.5,29.5,29.5h9.7h34.8h9.7c16.3,0,29.5-13.2,29.5-29.5v-9.7
				v-308.6v-9.7C2411.1,1128.6,2397.9,1115.4,2381.5,1115.4L2381.5,1115.4z"/>
		</g>
		<g>
			<path class="st0" d="M2616.3,1493.1c-49.5,0-95.1-19.1-128.4-53.7c-32.8-34-50.8-80.2-50.8-130c0-49.6,18-95.8,50.8-130
				c33.5-35.1,79.6-54.5,129.8-54.5c29.6,0,55.6,5,79.4,15.3c0,0,0.1,0,0.1,0.1c19.6,8.7,37.9,21.4,57.6,39.9l7.1,6.7
				c5.9,5.6,6.2,14.9,0.7,20.8l-30.4,32.7l-6.8,7.3c-2.7,2.9-6.4,4.6-10.3,4.7c-0.2,0-0.3,0-0.5,0c-3.8,0-7.4-1.4-10.1-4l-7.2-6.8
				c-26.5-25.3-49.7-35.5-80-35.5c-26.1,0-50,10.3-67.4,28.9c-17.7,18.9-27.4,45-27.4,73.5c0,28.8,9.7,55.2,27.4,74.2
				c17.4,18.7,41.3,29.1,67.4,29.1c36,0,58.3-14.4,82.6-37.7l7-6.6c2.8-2.7,6.5-4,10.1-4c3.8,0,7.5,1.4,10.4,4.3l6.8,6.7l22.9,22.5
				l7,6.9c5.8,5.7,5.9,15.1,0.1,20.9l-6.9,7c-20,20.2-39,34.3-59.7,44.1C2673.1,1487.4,2646.5,1493.1,2616.3,1493.1z"/>
			<path class="st0" d="M2617.7,1139.7c27.9,0,51.9,4.7,73.6,14.1c18.2,8.1,35.2,19.9,53.5,37.1l7.1,6.7l-6.6,7.1l-23.8,25.6
				l-6.8,7.3l-7.2-6.8c-29.1-27.8-56.1-39.6-90.2-39.6c-62.4,0-109.6,50.4-109.6,117.2c0,67.3,47.1,118.1,109.6,118.1
				c40.7,0,66.6-16.6,92.9-41.7l6.9-6.5l6.8,6.7l22.9,22.5l7,6.9l-6.9,7c-18.8,19-36.5,32.1-55.5,41.2
				c-22.4,10.6-46.9,15.9-74.9,15.9c-45.5,0-87.2-17.4-117.8-49.1c-30.1-31.3-46.7-73.8-46.7-119.7c0-45.8,16.5-88.3,46.7-119.8
				C2529.2,1157.4,2571.6,1139.7,2617.7,1139.7 M2617.7,1110.2c-54.3,0-104.2,21-140.5,59.1c-35.4,37-54.8,86.8-54.8,140.2
				c0,53.6,19.5,103.4,54.9,140.2c36.1,37.5,85.5,58.2,139,58.2c32.5,0,61.1-6.1,87.6-18.7c22.3-10.6,42.6-25.6,63.8-47.1
				c0,0,0,0,0,0l6.9-7c5.5-5.6,8.6-13.1,8.5-20.9s-3.2-15.3-8.8-20.8l-7-6.9l-23-22.6l-6.8-6.7c-5.7-5.7-13.2-8.5-20.7-8.5
				c-7.3,0-14.6,2.7-20.3,8l-6.9,6.5c0,0-0.1,0.1-0.1,0.1c-22.3,21.3-41.3,33.6-72.4,33.6c-21.9,0-42-8.6-56.6-24.3
				c-15.1-16.3-23.5-39.1-23.5-64.2c0-24.8,8.3-47.3,23.4-63.4c14.6-15.6,34.7-24.2,56.6-24.2c26.5,0,46.1,8.8,69.8,31.4
				c0,0,0.1,0.1,0.1,0.1l7.2,6.8c5.5,5.2,12.8,8.1,20.3,8.1c0.3,0,0.6,0,0.9,0c7.9-0.2,15.3-3.6,20.7-9.4l6.8-7.3l23.8-25.6l6.6-7.1
				c11.1-11.9,10.5-30.5-1.3-41.6l-7.1-6.7c0,0,0,0,0,0c-20.9-19.7-40.5-33.2-61.7-42.6c-0.1,0-0.2-0.1-0.3-0.1
				C2677.2,1115.6,2649.3,1110.2,2617.7,1110.2L2617.7,1110.2z"/>
		</g>
		<g>
			<path class="st0" d="M2919.7,1492.1c-27.6,0-52.7-4.6-76.5-14c-23.5-9.3-45-22.9-66-41.6l-7.1-6.3c-6-5.3-6.6-14.4-1.5-20.5
				l6.1-7.3l21.6-25.6l6.5-7.7c2.6-3.1,6.3-5,10.3-5.3c0.3,0,0.7,0,1,0c3.7,0,7.2,1.4,9.9,3.8l7.5,6.8
				c29.6,26.8,54.6,37.2,89.3,37.2c14.6,0,27-3.4,34.8-9.5c6.2-4.8,9.4-11.1,9.4-18.8c0-9.3-1.9-12.3-6.5-16
				c-8.7-6.8-26.9-13.2-54.2-19c0,0-0.1,0-0.1,0c-42-9.2-69.4-20.4-88.8-36.4c-22.6-18.6-34.1-44.5-34.1-77.1
				c0-30.9,13-58.9,36.6-79c22.9-19.5,54.6-30.2,89.3-30.2c24.8,0,47,3.6,67.7,11c19.4,7,37.8,17.6,56.2,32.3l7.4,5.9
				c6.2,5,7.4,14,2.6,20.4l-5.7,7.6l-20.3,26.9l-6.1,8.1c-2.4,3.2-6,5.3-10,5.8c-0.6,0.1-1.2,0.1-1.8,0.1c-3.4,0-6.7-1.2-9.3-3.3
				l-7.9-6.4c-23.4-19.1-46.8-28-73.5-28c-24.2,0-41.1,10.6-41.1,25.7c0,0,0,0.1,0,0.1c-0.1,9.5,1.9,12.6,6.8,16.4
				c9.4,7.2,28.2,13.8,57.5,20.1c39.8,8.6,67.4,20.3,86.8,36.9c21.9,18.7,33,43.8,33,74.7c0,16.7-3.4,32.5-10.2,46.8
				c-6.7,14.1-16.3,26.2-28.5,36.2C2987.4,1482,2955.9,1492.1,2919.7,1492.1z"/>
			<path class="st0" d="M2907.3,1140.4c23.2,0,43.7,3.3,62.7,10.1c17.8,6.4,34.8,16.1,51.9,29.9l7.4,5.9l-5.7,7.6l-20.3,26.9
				l-6.1,8.1l-7.9-6.4c-26.2-21.4-52.5-31.3-82.8-31.3c-32.9,0-55.8,16.6-55.8,40.5c-0.1,13.3,3.4,21.2,12.5,28.2
				c11.2,8.7,31.3,16,63.4,22.8c37.4,8.1,62.9,18.8,80.3,33.7c18.7,16,27.9,36.7,27.9,63.5c0,14.6-3,28.2-8.8,40.5
				c-5.7,11.9-13.9,22.4-24.5,31c-20.9,17-49.1,26-81.8,26c-25.7,0-48.9-4.2-71.1-13c-21.7-8.6-41.8-21.3-61.5-38.9l-7.1-6.3
				l6.1-7.3l21.6-25.6l6.5-7.8l7.5,6.8c32.2,29.1,60.9,41.1,99.3,41.1c18,0,33.3-4.3,43.9-12.6c9.8-7.6,15.1-18.1,15.1-30.4
				c0-13-3.4-20.7-12.1-27.6c-10.7-8.5-29.9-15.5-60.4-21.9c-39.6-8.7-65-18.9-82.5-33.4c-19.4-16-28.8-37.4-28.8-65.7
				C2796.2,1180.1,2842.9,1140.4,2907.3,1140.4 M2907.3,1110.9c-38.1,0-73.3,12-98.9,33.7c-27,22.9-41.9,55-41.9,90.3
				c0,37.1,13.3,66.9,39.5,88.5c21.3,17.5,50.6,29.7,95,39.4c0.1,0,0.2,0,0.2,0.1c32.7,6.9,44.2,13,48.1,16.1
				c0.3,0.2,0.5,0.4,0.7,0.6c0.1,0.6,0.3,1.8,0.3,3.9c0,3.1-1,5-3.5,7c0,0-0.1,0.1-0.1,0.1c-5.2,4.1-14.6,6.4-25.8,6.4
				c-31,0-52.5-9.1-79.4-33.4l-7.5-6.8c-5.5-5-12.5-7.7-19.9-7.7c-0.7,0-1.4,0-2,0.1c-8,0.6-15.5,4.4-20.6,10.5l-6.4,7.7l-21.5,25.6
				c0,0,0,0,0,0.1l-6.1,7.3c-10.3,12.2-8.9,30.4,3,41l7,6.3c22.2,19.9,45.3,34.4,70.3,44.3c25.6,10.1,52.4,15.1,82,15.1
				c39.6,0,74.3-11.3,100.5-32.6c13.9-11.3,24.8-25.2,32.5-41.1c0-0.1,0.1-0.1,0.1-0.2c7.7-16.3,11.6-34.2,11.6-53.1
				c0-35.4-12.9-64.4-38.2-86c-21.3-18.2-51-30.9-93.3-40.1c-35.1-7.5-47.4-14.1-51.6-17.4c-0.4-0.3-0.6-0.5-0.8-0.7
				c-0.1-0.6-0.2-1.8-0.2-3.9c0-0.1,0-0.1,0-0.2c0-5.3,10.6-10.9,26.3-10.9c23.4,0,43.2,7.6,64.1,24.7c0,0,0,0,0,0l7.9,6.4
				c5.3,4.3,11.9,6.6,18.6,6.6c1.2,0,2.4-0.1,3.6-0.2c8-1,15.2-5.1,20-11.5l6.1-8.1l20.3-26.9l5.7-7.6c9.6-12.8,7.3-30.9-5.1-40.8
				l-7.4-5.9c-19.7-15.8-39.4-27.2-60.4-34.7C2957.7,1114.7,2933.9,1110.9,2907.3,1110.9L2907.3,1110.9z"/>
		</g>
	</g>
	<g>
		<g>
			<path class="st1" d="M531.6,969.9c-72.6,0-141.1-12.4-203.5-36.9c-59.8-23.4-112.5-57.2-157-100.4C83,746.8,34.5,630,34.5,503.4
				c0-126.2,48.3-243.4,136.3-330.1c44.2-43.6,96.7-77.8,155.9-101.5C388.6,47,456.4,34.4,528,34.4h2.5h2777.1c0.8,0,1.6,0,2.5,0
				c71.7,0,139.4,12.5,201.5,37.2c59.3,23.6,111.8,57.6,156.1,101.2c87.9,86.5,136.7,203.8,137.4,330.5
				c0,126.3-48.7,243.2-137.2,329.2c-44.5,43.2-97.4,77-157,100.4c-62.4,24.5-130.8,36.9-203,36.9H531.6z"/>
			<path class="st0" d="M3309.9,39.3c292.1,0,488.6,210.6,489.9,464.1c0,253-197.7,461.6-492.3,461.6H531.6
				c-295.9,0-492.3-208.6-492.3-461.6C39.3,251.2,235.9,39.3,528,39.3c0.8,0,1.6,0,2.5,0h2777.1
				C3308.3,39.3,3309.1,39.3,3309.9,39.3 M3309.9,29.5c-0.8,0-1.7,0-2.5,0h-2777c-0.8,0-1.6,0-2.5,0c-72.2,0-140.6,12.7-203.2,37.7
				C265,91.2,211.9,125.6,167.2,169.8c-43.7,43.3-78,94.1-101.6,151c-23.9,57.5-36,118.9-36,182.7c0,127.8,49,246,138.1,332.6
				c44.9,43.7,98.3,77.9,158.6,101.5c63,24.7,132.1,37.2,205.3,37.2h2775.8c72.9,0,141.8-12.5,204.8-37.2
				c60.3-23.6,113.7-57.8,158.6-101.5c44.1-42.9,78.6-93.3,102.4-150.1c24-57.3,36.2-118.7,36.2-182.7l0,0l0,0
				c-0.3-64-12.7-125.6-36.7-183.1c-23.8-56.9-58.2-107.7-102-150.8c-44.8-44-97.8-78.4-157.6-102.2
				C3450.6,42.1,3382.1,29.5,3309.9,29.5L3309.9,29.5z"/>
		</g>
		<g>
			<path class="st0" d="M3306.3,852.1H531.6c-234.4,1.2-376.9-156-376.9-349.9s143.7-348.8,376.9-349.8h2774.6
				c233.3,0,376.9,156,376.9,349.8S3539.5,852.1,3306.3,852.1z"/>
			<path class="st1" d="M736.7,588.1L548.8,283.7H412.6v435.8h135.1V415l189.1,304.4h135.1V283.7H736.7V588.1z M1804.7,429.8v-43
				h-71.2v-59h-131.4v59H1531v43h71.2v289.8h131.4V429.8H1804.7z M946.5,719.6h131.4V429.8H946.5V719.6z M946.5,372.1h131.4v-89.6
				H946.5V372.1z M3242.4,410.1c-105.6,0-191.5,72.4-191.5,163.3c0,89.6,85.9,163.3,191.5,163.3c105.6,0,191.5-72.4,191.5-163.3
				S3350.4,410.1,3242.4,410.1z M3295.2,633.5c0,46.7-27.1,65.1-54,65.1c-25.8,0-54-19.7-54-65.1c0-17.1,0-62.6,0-62.6s0-43,0-60.2
				c0-45.5,27.1-65.1,54-65.1c25.8,0,54,18.4,54,65.1c0,17.1,0,50.3,0,61.4C3295.2,573.4,3295.2,616.4,3295.2,633.5z M2880.2,444.5
				c-20.9-12.2-43-23.3-73.7-25.8c-94.5-8.7-167,74.9-167,152.2c0,100.7,77.4,138.7,89.6,143.6c44.2,20.9,100.7,20.9,151-11
				c0,2.5,0,17.1,0,17.1H3009V285h-128.9C2880.2,283.7,2880.2,377,2880.2,444.5z M2880.2,573.4c0,0,0,33.1,0,51.5
				c0,44.2-30.6,56.5-51.5,56.5s-51.5-12.2-51.5-56.5c0-16,0-51.5,0-51.5s0-36.8,0-51.5c0-45.5,30.6-56.5,51.5-56.5
				s51.5,11,51.5,56.5C2880.2,536.5,2880.2,573.4,2880.2,573.4z M1384.9,416.3c-43,1.3-79.9,19.7-104.3,44.2c0-7.4,0-30.6,0-30.6
				h-130.2v289.8h130.2c0,0,0-178,0-190.3c0-25.8,27.1-52.8,62.6-52.8c35.5,0,60.2,28.3,60.2,52.8c0,18.4,0,190.3,0,190.3h130.2
				c0,0,0-137.6,0-157.1C1533.4,446.9,1434,415,1384.9,416.3z M2450.6,416.3c-43,1.3-79.9,19.7-104.3,44.2c0-7.4,0-30.6,0-30.6
				h-130.2v289.8h130.1c0,0,0-178,0-190.3c0-25.8,27.1-52.8,62.6-52.8c35.5,0,60.2,28.3,60.2,52.8c0,18.4,0,190.3,0,190.3h130.2
				c0,0,0-137.6,0-157.1C2597.9,446.9,2498.4,415,2450.6,416.3z M2174.4,575.8c0-89.6-87.1-164.4-194-164.4
				c-106.7,0-192.8,72.4-192.8,163.3c0,89.6,85.9,163.3,192.8,163.3c88.3,0,163.3-50.3,186.6-119.1h-130.2c0,0,0,1.3,0,17.1
				c0,52.8-34.4,65.1-54,65.1c-19.7,0-55.2-12.2-55.2-65.1c0-16,0-60.2,0-60.2L2174.4,575.8L2174.4,575.8z M1937.4,474
				c9.7-18.4,29.4-25.8,46.7-27.1c17.1,0,35.5,8.7,46.7,27.1c8.7,14.7,8.7,31.9,8.7,56.5h-109.2
				C1927.5,504.6,1927.5,488.7,1937.4,474z M3487.9,337.7c0-14.7-11-20.9-31.9-20.9h-29.4v74.9h18.4v-30.6h8.7l14.7,30.6h19.7
				l-16-33.1C3481.8,354.9,3487.9,347.5,3487.9,337.7z M3453.6,348.7h-8.7v-22.2h7.4c11,0,16,3.7,16,11
				C3469.5,346.2,3463.4,348.7,3453.6,348.7z M3453.6,287.3c-36.8,0-67.4,29.4-67.4,67.4c0,36.8,30.6,67.4,67.4,67.4
				c36.8,0,67.4-30.6,67.4-67.4C3521.1,316.9,3490.4,287.3,3453.6,287.3z M3453.6,408.9c-29.4,0-54-24.6-54-54c0-29.4,24.6-54,54-54
				c29.3,0,54,24.6,54,54S3484.2,408.9,3453.6,408.9z M3307.5,39.4H530.4C237,38.2,39.3,250.5,39.3,503.4S235.7,965,531.6,965
				h2775.8c294.6,0,492.3-208.6,492.3-461.6C3798.5,249.2,3600.9,38.2,3307.5,39.4z M3306.3,852.1H531.6
				c-234.4,1.2-376.9-156-376.9-349.9s143.7-348.8,376.9-349.8h2774.6c233.3,0,376.9,156,376.9,349.8S3539.5,852.1,3306.3,852.1z
				 M3307.5,39.4H530.4C237,38.2,39.3,250.5,39.3,503.4S235.7,965,531.6,965h2775.8c294.6,0,492.3-208.6,492.3-461.6
				C3798.5,249.2,3600.9,38.2,3307.5,39.4z M3306.3,852.1H531.6c-234.4,1.2-376.9-156-376.9-349.9s143.7-348.8,376.9-349.8h2774.6
				c233.3,0,376.9,156,376.9,349.8S3539.5,852.1,3306.3,852.1z M3307.5,39.4H530.4C237,38.2,39.3,250.5,39.3,503.4
				S235.7,965,531.6,965h2775.8c294.6,0,492.3-208.6,492.3-461.6C3798.5,249.2,3600.9,38.2,3307.5,39.4z M3306.3,852.1H531.6
				c-234.4,1.2-376.9-156-376.9-349.9s143.7-348.8,376.9-349.8h2774.6c233.3,0,376.9,156,376.9,349.8S3539.5,852.1,3306.3,852.1z"/>
		</g>
		<g>
			<g>
				<g>
					<g>
						<path d="M908.7,1473.5c-44.1,0-84.7-16.9-114.2-47.7c-29.2-30.4-45.3-71.7-45.3-116.3c0-44.5,16-85.8,45.3-116.4
							c29.8-31.2,70.9-48.4,115.6-48.4c61.8,0,96,24.1,123.7,50.2l3.5,3.3l-30.5,32.8l-3.5-3.4c-30.2-28.8-58.2-41-93.6-41
							c-65.3,0-114.5,52.5-114.5,122.1c0,70.1,49.2,122.9,114.5,122.9c42.3,0,69.1-17.2,96.2-43.1l3.4-3.2l29.8,29.3l-3.4,3.4
							C1008.4,1445.4,971.9,1473.5,908.7,1473.5z"/>
						<path class="st0" d="M910.1,1149.6c55.9,0,89.4,19.8,120.3,48.8l-23.8,25.6c-26-24.7-55-42.3-97-42.3
							c-68.2,0-119.4,55-119.4,126.9c0,71.9,51.5,127.8,119.4,127.8c42.3,0,70-16.2,99.6-44.5l22.9,22.5
							c-32.2,32.4-67.4,54.1-123.4,54.1c-89,0-154.7-70-154.7-159.1C754.1,1221.3,819.3,1149.6,910.1,1149.6 M910.1,1139.7
							c-46.1,0-88.4,17.7-119.1,49.9c-30.1,31.5-46.7,74-46.7,119.8c0,45.9,16.5,88.4,46.7,119.7c30.5,31.7,72.3,49.1,117.8,49.1
							c28.1,0,52.5-5.2,74.8-15.9c19-9.1,36.7-22.2,55.5-41.2l7-7l-7-6.9l-22.9-22.5l-6.8-6.7l-6.9,6.5
							c-26.3,25.1-52.2,41.7-92.9,41.7c-62.5,0-109.6-50.7-109.6-118.1c0-66.8,47.2-117.2,109.6-117.2c34.1,0,61,11.8,90.2,39.6
							l7.2,6.8l6.8-7.3l23.8-25.6l6.6-7.1l-7.1-6.7c-18.3-17.2-35.2-29-53.5-37.1C962,1144.4,938,1139.7,910.1,1139.7L910.1,1139.7z
							"/>
					</g>
					<g>
						<polygon points="1101.3,1468.1 1101.3,1149.9 1145.8,1149.9 1145.8,1426.1 1319.6,1426.1 1319.6,1468.1 						"/>
						<path class="st0" d="M1140.9,1154.8v276.3h173.8v32.1h-208.4v-308.5L1140.9,1154.8 M1106.2,1154.8L1106.2,1154.8
							L1106.2,1154.8 M1150.7,1144.9h-9.7h-34.7h-0.1h-9.6v9.7v308.5v9.7h9.7h208.4h9.7v-9.7v-32.1v-9.7h-9.7h-163.9v-266.5
							L1150.7,1144.9L1150.7,1144.9z"/>
					</g>
					<g>
						<path d="M1639,1468.2l-36.1-81.5h-161.7l-36.5,81.5h-46.5l145-320.5h38.9l145.1,320.5H1639z M1584.8,1345.4l-62.5-140.4
							l-62.9,140.4H1584.8z"/>
						<path class="st0" d="M1539,1152.6l140.7,310.8h-37.4l-36.1-81.5h-168l-36.5,81.5h-35.7l140.6-310.8H1539 M1451.7,1350.3h140.6
							l-70-157.3L1451.7,1350.3 M1545.3,1142.8h-6.3h-32.6h-6.3l-2.6,5.7l-140.6,310.8l-6.3,13.8h15.2h35.7h6.3l2.6-5.8l34-75.7
							h155.3l33.6,75.7l2.6,5.8h6.4h37.4h15.2l-6.3-13.9l-140.7-310.8L1545.3,1142.8L1545.3,1142.8z M1466.8,1340.6l55.4-123.6
							l54.9,123.5L1466.8,1340.6L1466.8,1340.6z"/>
					</g>
					<g>
						<path d="M1853.4,1472.5c-49.5,0-90.6-16-129.3-50.6l-3.5-3.2l27.9-33.1l3.7,3.4c33.2,30,62.9,42.3,102.5,42.3
							c38.2,0,63.9-19.3,63.9-48c0-25.3-11.8-40.6-76.3-54.3c-64.5-14.1-107.4-35.4-107.4-94.2c0-51.9,44.7-89.5,106.2-89.5
							c44.1,0,77.5,11.6,111.5,39l3.7,3l-26.2,34.7l-3.9-3.2c-27.1-22.1-54.5-32.4-86-32.4c-35.7,0-60.8,18.6-60.8,45.4
							c-0.1,25.6,12.2,41.3,79.8,55.7c73.2,16,104.4,43.6,104.4,92.5c0,27.5-10.9,50.8-31.5,67.6
							C1912.1,1463.9,1884.9,1472.5,1853.4,1472.5z"/>
						<path class="st0" d="M1841,1150.3c45,0,77.1,12.7,108.4,37.9l-20.3,26.9c-28.6-23.3-57.3-33.5-89-33.5
							c-40.1,0-65.7,22.1-65.7,50.2c-0.1,29.6,15.8,46,83.7,60.6c68.7,15,100.5,40.1,100.5,87.6c0,53.4-44.1,87.6-105.3,87.6
							c-48.8,0-89-16.3-126-49.3l21.6-25.6c32.1,29,63,43.6,105.8,43.6c41.5,0,68.7-21.6,68.7-52.9c0-29-15.5-45.4-80.2-59.1
							c-70.9-15.5-103.6-38.3-103.6-89.4C1739.7,1185.5,1782.3,1150.3,1841,1150.3 M1841,1140.4c-64.4,0-111.2,39.7-111.2,94.4
							c0,28.3,9.4,49.7,28.8,65.7c17.5,14.5,42.9,24.7,82.5,33.4l0,0l0,0c30.4,6.4,49.6,13.4,60.4,21.9c8.7,6.9,12.1,14.6,12.1,27.6
							c0,12.3-5.2,22.8-15.1,30.4c-10.6,8.3-25.9,12.6-43.9,12.6c-38.3,0-67.1-11.9-99.3-41.1l-7.5-6.8l-6.5,7.8l-21.6,25.6
							l-6.1,7.3l7.1,6.3c19.7,17.6,39.9,30.3,61.5,38.9c22.2,8.8,45.4,13,71.1,13c32.7,0,60.9-9,81.8-26c10.6-8.7,18.8-19.1,24.5-31
							c5.8-12.3,8.8-25.9,8.8-40.5c0-26.8-9.2-47.6-27.9-63.5c-17.4-14.9-42.9-25.6-80.3-33.7c-32.1-6.9-52.2-14.2-63.4-22.8
							c-9.1-7-12.6-14.9-12.5-28.2c0-23.8,22.9-40.5,55.8-40.5c30.3,0,56.6,9.9,82.8,31.3l7.9,6.4l6.1-8.1l20.3-26.9l5.7-7.6
							l-7.4-5.9c-17.1-13.8-34.1-23.5-51.9-29.9C1884.8,1143.8,1864.3,1140.4,1841,1140.4L1841,1140.4z"/>
					</g>
					<g>
						<path d="M2144.2,1472.5c-49.5,0-90.6-16-129.3-50.6l-3.5-3.2l27.9-33.1l3.7,3.4c33.2,30,62.9,42.3,102.5,42.3
							c38.2,0,63.9-19.3,63.9-48c0-25.3-11.8-40.6-76.3-54.3c-64.5-14.1-107.4-35.4-107.4-94.2c0-51.9,44.7-89.5,106.2-89.5
							c44.1,0,77.5,11.6,111.5,39l3.7,3l-26.2,34.7l-3.9-3.2c-27.1-22.1-54.5-32.4-86-32.4c-35.7,0-60.8,18.6-60.8,45.4
							c-0.1,25.6,12.2,41.3,79.8,55.7c73.2,16,104.4,43.6,104.4,92.5c0,27.5-10.9,50.8-31.5,67.6
							C2203,1463.9,2175.8,1472.5,2144.2,1472.5z"/>
						<path class="st0" d="M2131.9,1150.3c45,0,77.1,12.7,108.4,37.9l-20.3,26.9c-28.6-23.3-57.3-33.5-89-33.5
							c-40.1,0-65.7,22.1-65.7,50.2c-0.1,29.6,15.8,46,83.7,60.6c68.7,15,100.5,40.1,100.5,87.6c0,53.4-44.1,87.6-105.3,87.6
							c-48.8,0-89-16.3-126-49.3l21.6-25.6c32.1,29,63,43.6,105.8,43.6c41.5,0,68.7-21.6,68.7-52.9c0-29-15.5-45.4-80.2-59.1
							c-70.9-15.5-103.6-38.3-103.6-89.4C2030.5,1185.5,2073.3,1150.3,2131.9,1150.3 M2131.9,1140.4c-64.4,0-111.2,39.7-111.2,94.4
							c0,28.3,9.4,49.7,28.8,65.7c17.5,14.5,42.9,24.7,82.5,33.4l0,0l0,0c30.4,6.4,49.6,13.4,60.4,21.9c8.7,6.9,12.1,14.6,12.1,27.6
							c0,12.3-5.2,22.8-15.1,30.4c-10.6,8.3-25.9,12.6-43.9,12.6c-38.3,0-67.1-11.9-99.3-41.1l-7.5-6.8l-6.5,7.8l-21.6,25.6
							l-6.1,7.3l7.1,6.3c19.7,17.6,39.9,30.3,61.5,38.9c22.2,8.8,45.4,13,71.1,13c32.7,0,60.9-9,81.8-26c10.6-8.7,18.8-19.1,24.5-31
							c5.8-12.3,8.8-25.9,8.8-40.5c0-26.8-9.2-47.6-27.9-63.5c-17.4-14.9-42.9-25.6-80.3-33.7c-32.1-6.9-52.2-14.2-63.4-22.8
							c-9.1-7-12.6-14.9-12.5-28.2c0-23.8,22.9-40.5,55.8-40.5c30.3,0,56.6,9.9,82.8,31.3l7.9,6.4l6.1-8.1l20.3-26.9l5.7-7.6
							l-7.4-5.9c-17.1-13.8-34.1-23.5-51.9-29.9C2175.8,1143.8,2155.2,1140.4,2131.9,1140.4L2131.9,1140.4z"/>
					</g>
					<g>
						<rect x="2332" y="1149.9" width="44.6" height="318.3"/>
						<path class="st0" d="M2371.7,1154.8v308.6h-34.8v-308.6H2371.7 M2381.5,1144.9h-9.7H2337h-9.7v9.7v308.6v9.7h9.7h34.8h9.7
							v-9.7v-308.6V1144.9L2381.5,1144.9z"/>
					</g>
					<g>
						<path d="M2616.3,1473.5c-44.1,0-84.7-16.9-114.2-47.7c-29.2-30.4-45.3-71.7-45.3-116.3c0-44.5,16-85.8,45.3-116.4
							c29.8-31.2,70.9-48.4,115.6-48.4c61.8,0,96,24.1,123.7,50.2l3.5,3.3l-30.5,32.8l-3.5-3.4c-30.2-28.8-58.2-41-93.6-41
							c-65.3,0-114.5,52.5-114.5,122.1c0,70.1,49.2,122.9,114.5,122.9c42.3,0,69.1-17.2,96.2-43.1l3.4-3.2l29.8,29.3l-3.4,3.4
							C2716,1445.4,2679.6,1473.5,2616.3,1473.5z"/>
						<path class="st0" d="M2617.7,1149.6c55.9,0,89.4,19.8,120.3,48.8l-23.8,25.6c-26-24.7-55-42.3-97-42.3
							c-68.2,0-119.4,55-119.4,126.9c0,71.9,51.5,127.8,119.4,127.8c42.3,0,70-16.2,99.6-44.5l22.9,22.5
							c-32.1,32.4-67.3,54.1-123.4,54.1c-89,0-154.7-70-154.7-159.1C2461.6,1221.3,2526.9,1149.6,2617.7,1149.6 M2617.7,1139.7
							c-46.1,0-88.4,17.7-119.1,49.9c-30.1,31.5-46.7,74-46.7,119.8c0,45.9,16.5,88.4,46.7,119.7c30.5,31.7,72.3,49.1,117.8,49.1
							c28.1,0,52.6-5.2,74.9-15.9c19-9.1,36.7-22.2,55.5-41.2l6.9-7l-7-6.9l-22.9-22.5l-6.8-6.7l-6.9,6.5
							c-26.3,25.1-52.2,41.7-92.9,41.7c-62.5,0-109.6-50.7-109.6-118.1c0-66.8,47.2-117.2,109.6-117.2c34.1,0,61,11.8,90.2,39.6
							l7.2,6.8l6.8-7.3l23.8-25.6l6.6-7.1l-7.1-6.7c-18.3-17.2-35.2-29-53.5-37.1C2669.5,1144.4,2645.5,1139.7,2617.7,1139.7
							L2617.7,1139.7z"/>
					</g>
					<g>
						<path d="M2919.6,1472.5c-49.5,0-90.6-16-129.3-50.6l-3.5-3.2l27.9-33.1l3.7,3.4c33.2,30,62.9,42.3,102.5,42.3
							c38.2,0,63.9-19.3,63.9-48c0-25.3-11.8-40.6-76.3-54.3c-64.5-14.1-107.4-35.4-107.4-94.2c0-51.9,44.7-89.5,106.2-89.5
							c44.1,0,77.5,11.6,111.5,39l3.7,3l-26.2,34.7l-3.9-3.2c-27.1-22.1-54.5-32.4-86-32.4c-35.7,0-60.8,18.6-60.8,45.4
							c-0.1,25.6,12.2,41.3,79.8,55.7c73.2,16,104.4,43.6,104.4,92.5c0,27.5-10.9,50.8-31.5,67.6
							C2978.4,1463.9,2951.2,1472.5,2919.6,1472.5z"/>
						<path class="st0" d="M2907.3,1150.3c45,0,77.1,12.7,108.4,37.9l-20.3,26.9c-28.6-23.3-57.3-33.5-89-33.5
							c-40.1,0-65.7,22.1-65.7,50.2c-0.1,29.6,15.8,46,83.7,60.6c68.7,15,100.5,40.1,100.5,87.6c0,53.4-44.1,87.6-105.3,87.6
							c-48.8,0-89-16.3-126-49.3l21.6-25.6c32.1,29,63,43.6,105.7,43.6c41.5,0,68.7-21.6,68.7-52.9c0-29-15.5-45.4-80.2-59.1
							c-70.9-15.5-103.6-38.3-103.6-89.4C2805.9,1185.5,2848.7,1150.3,2907.3,1150.3 M2907.3,1140.4c-64.4,0-111.2,39.7-111.2,94.4
							c0,28.3,9.4,49.7,28.8,65.7c17.5,14.5,42.9,24.7,82.5,33.4l0,0l0,0c30.4,6.4,49.6,13.4,60.4,21.9c8.7,6.9,12.1,14.6,12.1,27.6
							c0,12.3-5.2,22.8-15.1,30.4c-10.6,8.3-25.9,12.6-43.9,12.6c-38.3,0-67.1-11.9-99.3-41.1l-7.5-6.8l-6.5,7.8l-21.6,25.6
							l-6.1,7.3l7.1,6.3c19.7,17.6,39.9,30.3,61.5,38.9c22.2,8.8,45.4,13,71.1,13c32.7,0,60.9-9,81.8-26c10.6-8.7,18.8-19.1,24.5-31
							c5.8-12.3,8.8-25.9,8.8-40.5c0-26.8-9.2-47.6-27.9-63.5c-17.4-14.9-42.9-25.6-80.3-33.7c-32.1-6.9-52.2-14.2-63.4-22.8
							c-9.1-7-12.6-14.9-12.5-28.2c0-23.8,22.9-40.5,55.8-40.5c30.3,0,56.6,9.9,82.8,31.3l7.9,6.4l6.1-8.1l20.3-26.9l5.7-7.6
							l-7.4-5.9c-17.1-13.8-34.1-23.5-51.9-29.9C2951.1,1143.8,2930.6,1140.4,2907.3,1140.4L2907.3,1140.4z"/>
					</g>
				</g>
			</g>
		</g>
	</g>
</g>
</svg>
