<?xml version="1.0" encoding="utf-8"?>
<!-- Generator: Adobe Illustrator 26.2.1, SVG Export Plug-In . SVG Version: 6.00 Build 0)  -->
<svg version="1.1" id="Layer_1" xmlns="http://www.w3.org/2000/svg" xmlns:xlink="http://www.w3.org/1999/xlink" x="0px" y="0px"
	 viewBox="0 0 3839 1705.4" style="enable-background:new 0 0 3839 1705.4;" xml:space="preserve">
<style type="text/css">
	.st0{fill:#FFFFFF;}
	.st1{fill:#6B4284;}
</style>
<g>
	<g>
		<g>
			<path class="st0" d="M3373,1186.7c-8.2,0-14.8-6.6-14.8-14.8V724.1c0-8.2,6.6-14.8,14.8-14.8h131.3c0.6,0,1.1,0,1.7,0.1h303.5
				c8.2,0,14.8,6.6,14.8,14.8V840c0,8.2-6.6,14.8-14.8,14.8h-280.7v20.9h194.9c8.2,0,14.8,6.6,14.8,14.8V1006
				c0,8.2-6.6,14.8-14.8,14.8h-194.9v20.8h280.7c8.2,0,14.8,6.6,14.8,14.8v115.6c0,8.2-6.6,14.8-14.8,14.8H3373z"/>
			<path class="st0" d="M3504.2,724.1L3504.2,724.1l9.7,0.1h285.7h9.7v9.7V830v9.9h-9.7H3514v50.4h199.9h9.7v9.7v96.1v9.7h-9.7H3514
				v50.3h285.7h9.7v9.7v96.1v9.7h-9.7h-417h-9.7v-9.7v-96.1v-9.7V839.8V830v-96.2v-9.7h9.7H3504.2 M3504.2,694.6h-121.5h-9.7
				c-16.3,0-29.5,13.2-29.5,29.5v9.7V830v9.7v216.5v9.7v96.1v9.7c0,16.3,13.2,29.5,29.5,29.5h9.7h417h9.7
				c16.3,0,29.5-13.2,29.5-29.5v-9.7v-96.1v-9.7c0-16.3-13.2-29.5-29.5-29.5h-9.7h-55.1c5.3-5.3,8.5-12.7,8.5-20.8v-9.7v-96.1v-9.7
				c0-8.2-3.3-15.5-8.6-20.9h55.2h9.7c16.3,0,29.5-13.2,29.5-29.5V830v-96.1v-9.7c0-16.3-13.2-29.5-29.5-29.5h-9.7H3514h-7.3
				C3505.8,694.6,3505,694.6,3504.2,694.6L3504.2,694.6z"/>
		</g>
		<g>
			<path class="st0" d="M1325.5,1186.5c-8.2,0-14.8-6.6-14.8-14.8V724.1c0-8.2,6.6-14.8,14.8-14.8c0,0,131.4,0,131.4,0l9.7,0.1
				h271.7c8.2,0,14.8,6.6,14.8,14.8v115.6c0,8.2-6.6,14.8-14.8,14.8h-257v20.8h219.1c8.2,0,14.8,6.6,14.8,14.8v115.7
				c0,8.2-6.6,14.8-14.8,14.8h-219.1v151.1c0,8.2-6.6,14.8-14.8,14.8H1325.5z"/>
			<path class="st0" d="M1456.8,724.1l9.7,0.1h262h9.7v9.7V830v9.7h-9.7h-262v50.3h224.1h9.7v9.8v96.1v9.7h-9.7h-224.1V1162v9.7
				h-9.7h-121.5h-9.7v-9.7v-156.3V996v-96.1v-9.7v-50.3V830v-96.2v-9.7h9.7H1456.8 M1456.8,694.6h-121.5h-9.7
				c-16.3,0-29.5,13.2-29.5,29.5v9.7V830v9.7v50.3v9.7V996v9.7V1162v9.7c0,16.3,13.2,29.5,29.5,29.5h9.7h121.5h9.7
				c16.3,0,29.5-13.2,29.5-29.5v-9.7v-126.6h194.6h9.7c16.3,0,29.5-13.2,29.5-29.5v-9.7V900v-9.8c0-8.1-3.3-15.4-8.5-20.8h7.2h9.7
				c16.3,0,29.5-13.2,29.5-29.5V830v-96.1v-9.7c0-16.3-13.2-29.5-29.5-29.5h-9.7h-261.9l-9.6-0.1
				C1457,694.6,1456.9,694.6,1456.8,694.6L1456.8,694.6z"/>
		</g>
		<g>
			<path class="st0" d="M1856,1186.5c-30.5,0-59.1-11.8-80.5-33.3c-21.5-21.5-33.3-50.1-33.3-80.5V823.2c0-30.5,11.8-59.1,33.3-80.5
				c21.5-21.5,50.1-33.3,80.5-33.3h328.4c30.3,0,58.9,11.8,80.5,33.3c21.5,21.5,33.3,50.1,33.3,80.6v249.4
				c0,30.5-11.8,59.1-33.3,80.5c-21.5,21.5-50.1,33.3-80.5,33.3H1856z M2127.7,1041.5V854.6h-214.9v186.9H2127.7z"/>
			<path class="st0" d="M2184.4,724.1c26.6,0,51.4,10.4,70.1,29c18.7,18.7,28.9,43.6,28.9,70.1v249.4c0,26.5-10.2,51.4-28.9,70.1
				c-18.7,18.7-43.6,28.9-70.1,28.9H1856c-26.5,0-51.4-10.2-70.1-28.9c-18.7-18.7-28.9-43.6-28.9-70.1V830v-6.8
				c0-26.5,10.2-51.4,28.9-70.1c18.7-18.7,43.6-28.9,70.1-28.9H2184.4 M1898,1056.2h244.5V839.8H1898V1056.2 M2184.4,694.6H1856
				c-34.4,0-66.7,13.4-91,37.6c-24.2,24.2-37.6,56.6-37.6,91v6.8v242.7c0,34.4,13.4,66.7,37.6,91c24.2,24.2,56.6,37.6,91,37.6h328.4
				c34.4,0,66.7-13.4,91-37.6c24.2-24.2,37.6-56.6,37.6-91V823.3c0-34.4-13.4-66.7-37.6-91c0,0,0,0-0.1-0.1
				C2251,707.9,2218.7,694.6,2184.4,694.6L2184.4,694.6z M1927.5,869.3h185.4v157.3h-185.4V869.3L1927.5,869.3z"/>
		</g>
		<g>
			<path class="st0" d="M2934.1,1186.5c-30.5,0-59.1-11.8-80.5-33.3c-21.5-21.5-33.3-50.1-33.3-80.5V823.2c0-30.4,11.8-59,33.3-80.5
				c21.3-21.4,49.9-33.3,80.4-33.3c0.6,0,1.2,0,1.7,0.1h312.8c30.5,0,59.1,11.8,80.5,33.3c21.5,21.5,33.3,50.1,33.3,80.6v86.5
				c0,8.2-6.6,14.8-14.8,14.8h-148.1c-8.2,0-14.8-6.6-14.8-14.8v-55.2h-193.8v186.9h193.8v-55.2c0-8.2,6.6-14.8,14.8-14.8h148.1
				c8.2,0,14.8,6.6,14.8,14.8v86.5c0,30.5-11.8,59.1-33.3,80.5c-21.5,21.5-50.1,33.3-80.5,33.3H2934.1z"/>
			<path class="st0" d="M2933.9,724.2L2933.9,724.2l0.2,0.1h314.3c26.5,0,51.4,10.2,70.1,28.9c18.7,18.7,28.9,43.6,28.9,70.1v76.7
				v9.7h-9.7h-128.6h-9.7v-9.7v-60.3h-223.3v216.4h223.3V996v-9.7h9.7h128.6h9.7v9.7v76.7c0,26.5-10.2,51.4-28.9,70.1
				s-43.6,28.9-70.1,28.9h-314.3c-26.5,0-51.4-10.2-70.1-28.9c-18.7-18.7-28.9-43.6-28.9-70.1V823.2c0-26.4,10.2-51.3,28.9-70
				C2882.6,734.4,2907.4,724.2,2933.9,724.2 M2933.9,694.7c-34.4,0-66.7,13.4-90.9,37.7c-24.2,24.2-37.5,56.5-37.5,90.8v249.5
				c0,34.4,13.4,66.7,37.6,91c24.2,24.2,56.6,37.6,91,37.6h314.3c34.4,0,66.7-13.4,91-37.6c24.2-24.2,37.6-56.6,37.6-91V996v-9.7
				c0-16.3-13.2-29.5-29.5-29.5h-9.7h-128.6h-9.7c-16.3,0-29.5,13.2-29.5,29.5v9.7v30.7h-164.2V869.3h164.2v30.7v9.7
				c0,16.3,13.2,29.5,29.5,29.5h9.7h128.6h9.7c16.3,0,29.5-13.2,29.5-29.5v-9.7v-76.7c0-34.4-13.4-66.7-37.6-91
				c-24.2-24.2-56.6-37.6-91-37.6h-312.1C2935.6,694.7,2934.7,694.7,2933.9,694.7L2933.9,694.7z"/>
		</g>
		<g>
			<path class="st0" d="M215.2,1186.6c-8.2,0-14.8-6.6-14.8-14.8V854.6H29.5c-8.2,0-14.8-6.6-14.8-14.8V724.1
				c0-8.2,6.6-14.8,14.8-14.8h317c0.6,0,1.1,0,1.7,0.1H542c8.2,0,14.8,6.6,14.8,14.8v115.6c0,8.2-6.6,14.8-14.8,14.8H371v317.3
				c0,8.2-6.6,14.8-14.8,14.8H215.2z"/>
			<path class="st0" d="M346.5,724.1L346.5,724.1l9.8,0.1h176h9.7v9.7V830v9.7h-9.7H356.2v322.3v9.7h-9.7H225h-9.7v-9.7V839.8h-176
				h-9.7V830v-96.2v-9.7h9.7h176.1h9.7H346.5 M346.5,694.6H225.1h-9.7H39.3h-9.7C13.2,694.6,0,707.8,0,724.1v9.7V830v9.7
				c0,16.3,13.2,29.5,29.5,29.5h9.7h146.4v292.7v9.7c0,16.3,13.2,29.5,29.5,29.5h9.7h121.5h9.7c16.3,0,29.5-13.2,29.5-29.5v-9.7
				V869.3h146.5h9.7c16.3,0,29.5-13.2,29.5-29.5V830v-96.1v-9.7c0-16.3-13.2-29.5-29.5-29.5h-9.7h-176h-7.4
				C348.1,694.6,347.3,694.6,346.5,694.6L346.5,694.6z"/>
		</g>
		<g>
			<path class="st0" d="M1178.3,1319.2c-24,0-43.5-19.5-43.5-43.4c0-24,19.5-43.5,43.5-43.5c11.7,0,22.7,4.6,30.9,12.9
				c8.2,8.2,12.7,19.2,12.6,30.7C1221.8,1299.7,1202.3,1319.2,1178.3,1319.2z"/>
			<path class="st0" d="M1178.3,1247c15.9,0,28.8,12.9,28.8,28.8c0,15.9-12.9,28.7-28.8,28.7c-15.9,0-28.8-12.8-28.8-28.7
				C1149.6,1259.9,1162.5,1247,1178.3,1247 M1178.3,1217.5c-32.1,0-58.3,26.1-58.3,58.3c0,32.1,26.1,58.2,58.3,58.2
				c32.1,0,58.2-26.1,58.3-58.1c0.1-15.5-5.9-30.1-16.9-41.1C1208.7,1223.6,1194,1217.5,1178.3,1217.5L1178.3,1217.5z"/>
		</g>
		<g>
			<path class="st0" d="M2182.7,1319.2c-24,0-43.5-19.5-43.5-43.4c0-24,19.5-43.5,43.5-43.5c11.7,0,22.7,4.6,30.9,12.9
				c8.2,8.2,12.7,19.2,12.6,30.7C2226.3,1299.7,2206.7,1319.2,2182.7,1319.2z"/>
			<path class="st0" d="M2182.7,1247c15.9,0,28.8,12.9,28.8,28.8c0,15.9-12.9,28.7-28.8,28.7c-15.9,0-28.8-12.8-28.8-28.7
				C2154,1259.9,2166.9,1247,2182.7,1247 M2182.7,1217.5c-32.1,0-58.3,26.1-58.3,58.3c0,32.1,26.1,58.2,58.3,58.2
				c32.1,0,58.2-26.1,58.3-58.1c0.1-15.5-5.9-30.1-16.9-41.1C2213.1,1223.6,2198.4,1217.5,2182.7,1217.5L2182.7,1217.5z"/>
		</g>
		<g>
			<path class="st0" d="M419.1,1357.6c-8.2,0-14.8-6.6-14.8-14.8v-31h-13.7v31c0,8.2-6.6,14.8-14.8,14.8H327
				c-8.2,0-14.8-6.6-14.8-14.8v-96.8c0-28.7,23.4-52.1,52.1-52.1h66.5c14,0,27.1,5.5,36.9,15.4c9.8,9.9,15.1,23,15,36.9v96.6
				c0,8.2-6.6,14.8-14.8,14.8H419.1z"/>
			<path class="st0" d="M430.8,1208.7c20.6,0,37.3,16.7,37.1,37.4v86.9v9.7h-9.7h-29.3h-9.7v-9.7v-36h-43.2v36v9.7h-9.7h-29.3H327
				v-9.7v-45.9v-22.9v-18.2c0-20.6,16.7-37.3,37.3-37.3H430.8 M375.9,1254.4h43.2v-3.2h-43.2V1254.4 M430.8,1179.2h-66.5
				c-36.9,0-66.9,30-66.9,66.9v18.2v22.9v45.9v9.7c0,16.3,13.2,29.5,29.5,29.5h9.7h29.3h9.7c8.5,0,16.2-3.6,21.6-9.4
				c5.4,5.8,13.1,9.4,21.6,9.4h9.7h29.3h9.7c16.3,0,29.5-13.2,29.5-29.5v-9.7v-86.8c0.1-17.8-6.7-34.6-19.3-47.3
				C465.5,1186.2,448.7,1179.2,430.8,1179.2L430.8,1179.2z"/>
		</g>
		<g>
			<path class="st0" d="M2019.5,1357.6c-8.2,0-14.8-6.6-14.8-14.8v-31H1991v31c0,8.2-6.6,14.8-14.8,14.8h-48.8
				c-8.2,0-14.8-6.6-14.8-14.8v-96.8c0-28.7,23.4-52.1,52.1-52.1h66.5c13.9,0,26.9,5.4,36.7,15.3c9.8,9.9,15.2,23,15.1,37l0,96.6
				c0,8.2-6.6,14.8-14.8,14.8H2019.5z"/>
			<path class="st0" d="M2031.2,1208.7c20.6,0,37.2,16.7,37.1,37.4v86.9v9.7h-9.7h-29.3h-9.7v-9.7v-36h-43.2v36v9.7h-9.7h-29.3h-9.7
				v-9.7v-45.9v-22.9v-18.2c0-20.6,16.7-37.3,37.3-37.3H2031.2 M1976.4,1254.4h43.2v-3.2h-43.2V1254.4 M2031.2,1179.2h-66.5
				c-36.9,0-66.9,30-66.9,66.9v18.2v22.9v45.9v9.7c0,16.3,13.2,29.5,29.5,29.5h9.7h29.3h9.7c8.5,0,16.2-3.6,21.6-9.4
				c5.4,5.8,13.1,9.4,21.6,9.4h9.7h29.3h9.7c16.3,0,29.5-13.2,29.5-29.5v-9.7v-86.9c0.1-17.9-6.8-34.7-19.4-47.4
				C2065.8,1186.2,2049.1,1179.2,2031.2,1179.2L2031.2,1179.2z"/>
		</g>
		<g>
			<path class="st0" d="M764.6,1357.6c-28.7,0-52.1-23.4-52.1-52.1v-59.5c0-28.7,23.4-52.1,52.1-52.1h103.8
				c8.2,0,14.8,6.6,14.8,14.8v42.6c0,8.2-6.6,14.8-14.8,14.8H791v19.5h77.4c8.2,0,14.8,6.6,14.8,14.8v42.4c0,8.2-6.6,14.8-14.8,14.8
				H764.6z"/>
			<path class="st0" d="M868.4,1208.7v9.9v22.9v9.7h-9.7h-82.4v49h82.4h9.7v9.7v22.9v9.7h-9.7h-94c-20.6,0-37.3-16.7-37.3-37.3
				v-59.5c0-20.6,16.7-37.3,37.3-37.3h94H868.4 M868.4,1179.2h-9.7h-94c-36.9,0-66.9,30-66.9,66.9v59.5c0,36.9,30,66.9,66.9,66.9h94
				h9.7c16.3,0,29.5-13.2,29.5-29.5v-9.7v-22.9v-9.7c0-10.2-5.2-19.2-13.1-24.5c7.9-5.3,13.1-14.3,13.1-24.5v-9.7v-22.9v-9.9
				C897.9,1192.4,884.7,1179.2,868.4,1179.2L868.4,1179.2z"/>
		</g>
		<g>
			<path class="st0" d="M952,1357.6c-28.7,0-52.1-23.4-52.1-52.1v-59.5c0-28.7,23.4-52.1,52.1-52.1h66.5c28.7,0,52.1,23.4,52.1,52.1
				v59.5c0,28.7-23.4,52.1-52.1,52.1H952z M992,1285.4v-19.5h-13.7v19.5H992z"/>
			<path class="st0" d="M1018.5,1208.7c20.6,0,37.3,16.7,37.3,37.3v59.5c0,20.6-16.7,37.3-37.3,37.3H952
				c-20.6,0-37.3-16.7-37.3-37.3v-59.5c0-20.6,16.7-37.3,37.3-37.3H1018.5 M963.6,1300.2h43.2v-49h-43.2V1300.2 M1018.5,1179.2H952
				c-36.9,0-66.9,30-66.9,66.9v59.5c0,36.9,30,66.9,66.9,66.9h66.5c36.9,0,66.9-30,66.9-66.9v-59.5
				C1085.4,1209.2,1055.4,1179.2,1018.5,1179.2L1018.5,1179.2z"/>
		</g>
		<g>
			<path class="st0" d="M1563.4,1357.6c-28.7,0-52.1-23.4-52.1-52.1v-59.5c0-28.7,23.4-52.1,52.1-52.1h103.8
				c8.2,0,14.8,6.6,14.8,14.8v42.5c0,8.2-6.6,14.8-14.8,14.8h-9.7v19.6h9.7c8.2,0,14.8,6.6,14.8,14.8v42.4c0,8.2-6.6,14.8-14.8,14.8
				H1563.4z"/>
			<path class="st0" d="M1667.2,1208.7v9.8v22.9v9.7h-9.7H1575v3.2h57.9h9.7v9.7v23v9.7h-9.7H1575v3.3h82.4h9.7v9.7v22.9v9.7h-9.7
				h-94c-20.6,0-37.3-16.7-37.3-37.3v-59.5c0-20.6,16.7-37.3,37.3-37.3h94H1667.2 M1667.2,1179.2h-9.7h-94
				c-36.9,0-66.9,30-66.9,66.9v59.5c0,36.9,30,66.9,66.9,66.9h94h9.7c16.3,0,29.5-13.2,29.5-29.5v-9.7v-22.9v-9.7
				c0-10.2-5.2-19.3-13.1-24.6c7.9-5.3,13.1-14.3,13.1-24.6v-9.7v-22.9v-9.8C1696.7,1192.4,1683.5,1179.2,1667.2,1179.2
				L1667.2,1179.2z"/>
		</g>
		<g>
			<path class="st0" d="M1764.2,1357.6c-28.7,0-52.1-23.4-52.1-52.1v-59.5c0-28.7,23.4-52.1,52.1-52.1H1868
				c8.2,0,14.8,6.6,14.8,14.8v42.5c0,0.5,0,1.1-0.1,1.6c0.1,0.5,0.1,1.1,0.1,1.6v51c0,28.7-23.4,52.1-52.1,52.1H1764.2z"/>
			<path class="st0" d="M1868,1208.7v9.8v22.9v9.7h-9.7h-82.4v49h43.2v-3.3h-30.1h-9.7v-9.7v-22.9v-9.7h9.7h40h29.2h0.1h9.7v9.7
				v41.3c0,20.6-16.7,37.3-37.3,37.3h-66.5c-20.6,0-37.3-16.7-37.3-37.3v-59.5c0-20.6,16.7-37.3,37.3-37.3h94H1868 M1868,1179.2
				h-9.7h-94c-36.9,0-66.9,30-66.9,66.9v59.5c0,36.9,30,66.9,66.9,66.9h66.5c36.9,0,66.9-30,66.9-66.9v-41.3v-9.7c0-0.5,0-1.1,0-1.6
				c0-0.5,0-1.1,0-1.6v-9.7v-22.9v-9.8C1897.5,1192.4,1884.3,1179.2,1868,1179.2L1868,1179.2z"/>
		</g>
		<g>
			<path class="st0" d="M227.7,1357.6c-4.8,0-9.4-2.4-12.1-6.3l-3-4.2l-18.1-25.8v21.5c0,8.2-6.6,14.8-14.8,14.8H131
				c-8.2,0-14.8-6.6-14.8-14.8v-134c0-8.2,6.6-14.8,14.8-14.8h54.9c4.8,0,9.4,2.4,12.1,6.3l3,4.2l7.5,10.7v-6.5
				c0-8.2,6.6-14.8,14.8-14.8h48.8c8.2,0,14.8,6.6,14.8,14.8v134.1c0,8.2-6.6,14.8-14.8,14.8H227.7z"/>
			<path class="st0" d="M185.9,1208.7l3,4.2l34.4,49v-43.5v-9.7h9.7h29.3h9.7v9.8v114.5v9.7h-9.7H255h-22.2h-5.1l-3-4.2l-45-64.2
				v58.6v9.7H170h-29.3H131v-9.7v-91.6v-22.9v-9.7h9.8h29.3h5.5h4.9h0.2H185.9 M185.9,1179.2h-5.1h-0.2h-4.9h-5.5h-29.3H131
				c-16.3,0-29.5,13.2-29.5,29.5v9.7v22.9v91.6v9.7c0,16.3,13.2,29.5,29.5,29.5h9.7H170h9.7c9.9,0,18.6-4.8,23.9-12.2
				c5.5,7.7,14.5,12.3,24,12.3h5.1H255h7.3h9.7c16.3,0,29.5-13.2,29.5-29.5v-9.7v-114.5v-9.8c0-16.3-13.2-29.5-29.5-29.5h-9.7H233
				h-9.7c-7.1,0-13.6,2.5-18.7,6.6C199.4,1181.6,192.8,1179.2,185.9,1179.2L185.9,1179.2z"/>
		</g>
		<g>
			<path class="st0" d="M3604.7,1357.6c-28.7,0-52.1-23.4-52.1-52.1v-59.5c0-28.7,23.4-52.1,52.1-52.1h66.5
				c28.7,0,52.1,23.4,52.1,52.1v59.5c0,28.7-23.4,52.1-52.1,52.1H3604.7z M3644.8,1285.4v-19.5h-13.7v19.5H3644.8z"/>
			<path class="st0" d="M3671.1,1208.7c20.6,0,37.3,16.7,37.3,37.3v59.5c0,20.6-16.7,37.3-37.3,37.3h-66.5
				c-20.6,0-37.3-16.7-37.3-37.3v-59.5c0-20.6,16.7-37.3,37.3-37.3H3671.1 M3616.4,1300.2h43.2v-49h-43.2V1300.2 M3671.1,1179.2
				h-66.5c-36.9,0-66.9,30-66.9,66.9v59.5c0,36.9,30,66.9,66.9,66.9h66.5c36.9,0,66.9-30,66.9-66.9v-59.5c0-17.8-7-34.6-19.6-47.3
				C3705.7,1186.2,3689,1179.2,3671.1,1179.2L3671.1,1179.2z"/>
		</g>
		<g>
			<path class="st0" d="M3373.1,1357.5c-8.2,0-14.8-6.6-14.8-14.8v-134c0-8.2,6.6-14.8,14.8-14.8h103.8c28.7,0,52.1,23.3,52.1,52
				v59.5c0,28.7-23.4,52.1-52.1,52.1H3373.1z M3450.5,1285.4v-19.5h-13.7v19.5H3450.5z"/>
			<path class="st0" d="M3476.9,1208.7c20.6,0,37.3,16.7,37.3,37.2v59.5c0,20.6-16.7,37.3-37.3,37.3h-94h-9.7v-9.7v-114.5v-9.7h9.7
				H3476.9 M3422,1300.2h43.2v-49H3422V1300.2 M3476.9,1179.2h-94h-9.7c-16.3,0-29.5,13.2-29.5,29.5v9.7V1333v9.7
				c0,16.3,13.2,29.5,29.5,29.5h9.7h94c36.9,0,66.9-30,66.9-66.9V1246C3543.7,1209.1,3513.7,1179.2,3476.9,1179.2L3476.9,1179.2z"/>
		</g>
		<g>
			<path class="st0" d="M3044.8,1357.6c-28.7,0-52.1-23.4-52.1-52.1v-59.5c0-28.7,23.4-52.1,52.1-52.1h103.8
				c8.2,0,14.8,6.6,14.8,14.8v42.5c0,8.2-6.6,14.8-14.8,14.8H3134v19.6h14.6c8.2,0,14.8,6.6,14.8,14.8v42.4
				c0,8.2-6.6,14.8-14.8,14.8H3044.8z"/>
			<path class="st0" d="M3148.6,1208.7v9.8v22.9v9.7h-9.7h-82.3v3.2h53h9.7v9.7v23v9.7h-9.7h-53v3.3h82.3h9.7v9.7v22.9v9.7h-9.7h-94
				c-20.6,0-37.3-16.7-37.3-37.3v-59.5c0-20.6,16.7-37.3,37.3-37.3h94H3148.6 M3148.6,1179.2h-9.7h-94c-36.9,0-66.9,30-66.9,66.9
				v59.5c0,36.9,30,66.9,66.9,66.9h94h9.7c16.3,0,29.5-13.2,29.5-29.5v-9.7v-22.9v-9.7c0-10.2-5.2-19.3-13.1-24.6
				c7.9-5.3,13.1-14.3,13.1-24.6v-9.7v-22.9v-9.8C3178.1,1192.4,3164.9,1179.2,3148.6,1179.2L3148.6,1179.2z"/>
		</g>
		<g>
			<path class="st0" d="M2411.7,1357.6c-4.8,0-9.4-2.4-12.1-6.3l-3-4.2l-18.1-25.8v21.5c0,8.2-6.6,14.8-14.8,14.8h-48.8
				c-8.2,0-14.8-6.6-14.8-14.8v-134c0-8.2,6.6-14.8,14.8-14.8h54.8c4.8,0,9.4,2.4,12.1,6.3l3,4.2l7.5,10.7v-6.5
				c0-8.2,6.6-14.8,14.8-14.8h48.8c8.1,0,14.7,6.5,14.8,14.6c0,0,0.1,9.9,0.1,10v124.3c0,8.2-6.6,14.8-14.8,14.8H2411.7z"/>
			<path class="st0" d="M2369.7,1208.7l3,4.2l34.4,49v-43.5v-9.7h9.7h29.3h9.7l0.1,9.8v114.5v9.7h-9.7h-7.3h-22.2h-5.1l-3-4.2
				l-45-64.2v58.6v9.7h-9.7h-29.3h-9.7v-9.7v-91.6v-22.9v-9.7h9.7h29.3h5.5h4.9h0.2H2369.7 M2369.7,1179.2h-5.1h-0.2h-4.9h-5.5
				h-29.3h-9.7c-16.3,0-29.5,13.2-29.5,29.5v9.7v22.9v91.6v9.7c0,16.3,13.2,29.5,29.5,29.5h9.7h29.3h9.7c9.9,0,18.6-4.8,23.9-12.2
				c5.5,7.7,14.5,12.3,24,12.3h5.1h22.2h7.3h9.7c16.3,0,29.5-13.2,29.5-29.5v-9.7v-114.5c0-0.1,0-0.2,0-0.3l-0.1-9.8
				c-0.2-16.2-13.3-29.2-29.5-29.2h-9.7h-29.3h-9.7c-7.1,0-13.6,2.5-18.7,6.6C2383.2,1181.6,2376.6,1179.2,2369.7,1179.2
				L2369.7,1179.2z"/>
		</g>
		<g>
			<path class="st0" d="M2516.4,1357.5c-8.2,0-14.8-6.6-14.8-14.8v-134c0-8.2,6.6-14.8,14.8-14.8h48.8c8.2,0,14.8,6.6,14.8,14.8v134
				c0,8.2-6.6,14.8-14.8,14.8H2516.4z"/>
			<path class="st0" d="M2565.3,1208.7v9.7V1333v9.7h-9.7h-29.3h-9.7v-9.7v-114.5v-9.7h9.7h29.3H2565.3 M2565.3,1179.2h-9.7h-29.3
				h-9.7c-16.3,0-29.5,13.2-29.5,29.5v9.7V1333v9.7c0,16.3,13.2,29.5,29.5,29.5h9.7h29.3h9.7c16.3,0,29.5-13.2,29.5-29.5v-9.7
				v-114.5v-9.7C2594.8,1192.4,2581.6,1179.2,2565.3,1179.2L2565.3,1179.2z"/>
		</g>
		<g>
			<path class="st0" d="M3275.5,1357.7c-4.8,0-9.4-2.4-12.1-6.3l-3-4.2l-18-25.7v21.3c0,8.2-6.6,14.8-14.8,14.8h-48.8
				c-8.2,0-14.8-6.6-14.8-14.8v-134c0-8.2,6.6-14.8,14.8-14.8h54.7c4.8,0,9.4,2.4,12.1,6.3l3,4.2l7.5,10.7v-6.5
				c0-8.2,6.6-14.8,14.8-14.8h48.8c8.1,0,14.7,6.5,14.8,14.6c0,0,0.1,10,0.1,10.1v124.3c0,8.2-6.6,14.8-14.8,14.8H3275.5z"/>
			<path class="st0" d="M3233.5,1208.7l3,4.2l34.4,49v-43.5v-9.7h9.7h29.3h9.7l0.1,9.9v114.5v9.7h-9.7h-7.3h-22.2h-5.1l-3-4.2
				l-44.9-64.1v58.4v9.7h-9.7h-29.3h-9.7v-9.7v-91.6v-22.9v-9.7h9.7h29.3h5.4h5h0.1H3233.5 M3233.5,1179.2h-5.1h-0.1h-5h-5.4h-29.3
				h-9.7c-16.3,0-29.5,13.2-29.5,29.5v9.7v22.9v91.6v9.7c0,16.3,13.2,29.5,29.5,29.5h9.7h29.3h9.7c9.8,0,18.5-4.8,23.9-12.1
				c5.5,7.7,14.5,12.3,24,12.3h5.1h22.2h7.3h9.7c16.3,0,29.5-13.2,29.5-29.5v-9.7v-114.5c0-0.1,0-0.2,0-0.3l-0.1-9.9
				c-0.2-16.2-13.3-29.2-29.5-29.2h-9.7h-29.3h-9.7c-7.1,0-13.6,2.5-18.7,6.6C3247,1181.6,3240.4,1179.2,3233.5,1179.2
				L3233.5,1179.2z"/>
		</g>
		<g>
			<path class="st0" d="M2725.1,1357.7c-4.8,0-9.4-2.4-12.1-6.3l-3-4.2l-18-25.7v21.3c0,8.2-6.6,14.8-14.8,14.8h-48.8
				c-8.2,0-14.8-6.6-14.8-14.8v-134c0-8.2,6.6-14.8,14.8-14.8h54.7c4.8,0,9.4,2.4,12.1,6.3l3,4.2l7.5,10.7v-6.5
				c0-8.2,6.6-14.8,14.8-14.8h48.8c8.1,0,14.7,6.5,14.8,14.6c0,0,0.1,10,0.1,10.1v124.3c0,8.2-6.6,14.8-14.8,14.8H2725.1z"/>
			<path class="st0" d="M2683.1,1208.7l3,4.2l34.4,49v-43.5v-9.7h9.7h29.3h9.7l0.1,9.9v114.5v9.7h-9.7h-7.3h-22.2h-5.1l-3-4.2
				l-44.9-64.1v58.4v9.7h-9.7h-29.3h-9.7v-9.7v-91.6v-22.9v-9.7h9.7h29.3h5.4h5h0.1H2683.1 M2683.1,1179.2h-5.1h-0.1h-5h-5.4h-29.3
				h-9.7c-16.3,0-29.5,13.2-29.5,29.5v9.7v22.9v91.6v9.7c0,16.3,13.2,29.5,29.5,29.5h9.7h29.3h9.7c9.8,0,18.5-4.8,23.9-12.1
				c5.5,7.7,14.5,12.3,24,12.3h5.1h22.2h7.3h9.7c16.3,0,29.5-13.2,29.5-29.5v-9.7v-114.5c0-0.1,0-0.2,0-0.3l-0.1-9.9
				c-0.2-16.2-13.3-29.2-29.5-29.2h-9.7h-29.3h-9.7c-7.1,0-13.6,2.5-18.7,6.6C2696.6,1181.6,2690,1179.2,2683.1,1179.2
				L2683.1,1179.2z"/>
		</g>
		<g>
			<path class="st0" d="M582.2,1357.6c-2.8,0-5.4-0.8-7.7-2.1c-2.2,1.3-4.8,2-7.5,2h-48.9c-8.2,0-14.8-6.6-14.8-14.8v-134
				c0-8.2,6.6-14.8,14.8-14.8h62.8c6.3,0,11.9,4,14,10l2.3,6.6l6,17.5l6-17.5l2.3-6.6c2-6,7.7-10,14-10h63c4,0,7.8,1.6,10.5,4.4
				c2.8,2.8,4.3,6.7,4.2,10.6l-0.2,9.6v124.1c0,8.2-6.6,14.8-14.8,14.8h-48.8c-2.7,0-5.3-0.7-7.5-2c-2.3,1.4-4.9,2.1-7.7,2.1H582.2z
				"/>
			<path class="st0" d="M688.5,1208.7L688.5,1208.7 M688.5,1208.7l-0.2,9.7V1333v9.7h-9.7h-29.3h-9.7v-9.7v-34.4l-12.9,37.6
				l-2.3,6.6h-7h-28.1h-7l-2.3-6.6l-12.9-37.6v34.4v9.7h-9.7h-29.4h-9.7v-9.7v-114.5v-9.7h9.7h22h7.5H574h6.9l2.3,6.6l20,58l20-58
				l2.3-6.6h7h16.8h7.5h22H688.5 M688.5,1179.2L688.5,1179.2h-9.8h-22h-7.5h-16.8h-7c-8.7,0-16.8,3.8-22.3,10.1
				c-5.5-6.3-13.5-10.1-22.3-10.1H574h-16.7h-7.5h-22h-9.7c-16.3,0-29.5,13.2-29.5,29.5v9.7V1333v9.7c0,16.3,13.2,29.5,29.5,29.5
				h9.7h29.4h9.7c2.6,0,5-0.3,7.4-0.9c2.5,0.7,5.1,1,7.8,1h7h28.1h7c2.7,0,5.3-0.4,7.8-1c2.4,0.6,4.8,0.9,7.4,0.9h9.7h29.3h9.7
				c16.3,0,29.5-13.2,29.5-29.5v-9.7v-114.2l0.2-9c0-0.3,0-0.7,0-1C718,1192.4,704.8,1179.2,688.5,1179.2L688.5,1179.2z
				 M688.5,1238.3L688.5,1238.3L688.5,1238.3L688.5,1238.3z"/>
		</g>
		<g>
			<path class="st0" d="M2861.5,1357.5c-8.2,0-14.8-6.6-14.8-14.8v-76.8h-31.2c-8.2,0-14.8-6.6-14.8-14.8v-42.4
				c0-8.2,6.6-14.8,14.8-14.8h140.8c8.2,0,14.8,6.6,14.8,14.8v42.4c0,8.2-6.6,14.8-14.8,14.8h-31.2v76.8c0,8.2-6.6,14.8-14.8,14.8
				H2861.5z"/>
			<path class="st0" d="M2956.3,1208.7v9.7v22.9v9.7h-9.7h-36.2v81.8v9.7h-9.7h-29.3h-9.7v-9.7v-81.8h-36.2h-9.7v-9.7v-22.9v-9.7
				h9.7h46.1h29.3h46.1H2956.3 M2956.3,1179.2h-9.6h-46.1h-29.3h-46.1h-9.7c-16.3,0-29.5,13.2-29.5,29.5v9.7v22.9v9.7
				c0,16.3,13.2,29.5,29.5,29.5h9.7h6.7v52.3v9.7c0,16.3,13.2,29.5,29.5,29.5h9.7h29.3h9.7c16.3,0,29.5-13.2,29.5-29.5v-9.7v-52.3
				h6.7h9.7c16.3,0,29.5-13.2,29.5-29.5v-9.7v-22.9v-9.7C2985.8,1192.4,2972.6,1179.2,2956.3,1179.2L2956.3,1179.2z"/>
		</g>
		<g>
			<path class="st0" d="M2192,711.5c-5.3,0-10.2-2.9-12.8-7.5L1937.3,279L1695.4,704c-2.6,4.6-7.5,7.5-12.8,7.5h-125.2
				c-5.3,0-10.1-2.8-12.8-7.4c-2.6-4.6-2.7-10.2,0-14.8l8.4-14.6l362.9-637.6l8.6-15c2.6-4.6,7.5-7.4,12.8-7.4
				c5.3,0,10.2,2.8,12.8,7.4l8.6,15l362.9,637.7l8.3,14.5c2.6,4.6,2.6,10.2,0,14.8c-2.6,4.6-7.5,7.4-12.8,7.4H2192z"/>
			<path class="st0" d="M1937.2,29.5l8.6,15l362.8,637.7l8.4,14.6h-16.8h-102.4h-5.7l-2.9-5l-251.9-442.6l-251.9,442.6l-2.9,5h-5.7
				h-102.7h-16.8l8.4-14.6l362.9-637.7L1937.2,29.5 M1937.2,0c-10.6,0-20.4,5.7-25.6,14.9l-8.6,15c0,0,0,0,0,0.1L1540,667.5
				l-8.3,14.5c-5.2,9.1-5.2,20.4,0.1,29.5c5.3,9.1,15,14.7,25.6,14.7h16.8h102.7h5.7c10.6,0,20.4-5.7,25.7-14.9l2.9-5l226.2-397.5
				l226.2,397.5l2.8,5c5.3,9.2,15.1,14.9,25.7,14.9h5.7h102.4h16.8c10.5,0,20.3-5.6,25.6-14.7c5.3-9.1,5.3-20.4,0.1-29.5l-8.3-14.5
				L1971.4,29.9c0,0,0,0,0-0.1l-8.6-15C1957.5,5.7,1947.8,0,1937.2,0L1937.2,0z"/>
		</g>
		<g>
			<path class="st0" d="M1000.4,1690.6c-5.3,0-10.1-2.8-12.8-7.4c-2.6-4.6-2.7-10.2,0-14.8l8.4-14.6l165.7-291.2
				c2.6-4.6,7.5-7.5,12.8-7.5h125.1c5.3,0,10.1,2.8,12.8,7.4c2.6,4.6,2.7,10.2,0,14.8l-8.4,14.6l-91.3,160.3h1448.9l-91.3-160.4
				l-8.3-14.5c-2.6-4.6-2.6-10.2,0-14.8c2.6-4.6,7.5-7.4,12.8-7.4H2700c5.4,0,10.4,2.9,12.9,7.7l2.7,4.9l162.8,286.1l8.3,14.5
				c2.6,4.6,2.6,10.2,0,14.8c-2.6,4.6-7.5,7.4-12.8,7.4H1000.4z"/>
			<path class="st0" d="M2700,1370l2.8,5l162.9,286.2l8.4,14.6h-16.8H1017.2h-16.8l8.4-14.6l162.9-286.2l2.9-5h5.7h102.6h16.8
				l-8.4,14.6L1187.4,1567h1499.7l-103.9-182.5l-8.4-14.6h16.8h102.6H2700 M2700,1340.5h-5.7h-102.6h-16.8
				c-10.5,0-20.3,5.6-25.6,14.7c-5.3,9.1-5.3,20.4-0.1,29.5l8.4,14.6l78.7,138.2H1238.2l78.7-138.2l8.4-14.6
				c5.3-9.1,5.2-20.4-0.1-29.5c-5.3-9.1-15-14.7-25.6-14.7h-16.8h-102.6h-5.7c-10.6,0-20.4,5.7-25.7,14.9l-2.9,5l-162.8,286.1
				l-8.4,14.6c-5.2,9.1-5.2,20.4,0.1,29.5c5.3,9.1,15,14.7,25.6,14.7h16.8h1839.9h16.8c10.5,0,20.3-5.6,25.6-14.7
				c5.3-9.1,5.3-20.4,0.1-29.5l-8.3-14.5l-162.7-286l-2.6-4.8C2720.7,1346.4,2710.8,1340.5,2700,1340.5L2700,1340.5z"/>
		</g>
		<g>
			<path class="st0" d="M1325.6,1357.6c-8.2,0-14.8-6.6-14.8-14.8v-42.4c0-5.7,3.2-10.6,7.9-13.1c-5-8-7.9-17.5-7.9-27.6v-13.7
				c0-28.7,23.4-52.1,52.1-52.1h103.8c8.2,0,14.8,6.6,14.8,14.8v42.4c0,5.7-3.2,10.6-7.9,13.1c5,8,7.9,17.5,7.9,27.6v13.7
				c0,28.7-23.4,52.1-52.1,52.1H1325.6z"/>
			<path class="st0" d="M1466.7,1208.7v9.7v22.9v9.7h-9.7h-82.4v3.3h54.8c20.6,0,37.3,16.7,37.3,37.3v13.7
				c0,20.6-16.7,37.3-37.3,37.3h-94h-9.7v-9.7v-22.9v-9.7h9.7h82.4v-3.3h-54.8c-20.6,0-37.3-16.7-37.3-37.3v-13.7
				c0-20.6,16.7-37.3,37.3-37.3h94H1466.7 M1466.7,1179.2h-9.7h-94c-36.9,0-66.9,30-66.9,66.9v13.7c0,8.7,1.7,17,4.7,24.7
				c-3,4.6-4.7,10.1-4.7,16v9.7v22.9v9.7c0,16.3,13.2,29.5,29.5,29.5h9.7h94c36.9,0,66.9-30,66.9-66.9v-13.7c0-8.7-1.7-17-4.7-24.7
				c3-4.6,4.7-10.1,4.7-16v-9.7v-22.9v-9.7C1496.3,1192.4,1483,1179.2,1466.7,1179.2L1466.7,1179.2z"/>
		</g>
		<g>
			<path class="st0" d="M951.2,1186.8c-3.4,0-6.7-1.2-9.4-3.4c0,0-2.8-2.3-2.9-2.4l-197.6-165.5l-3.5-2.9c-3.4-2.8-5.3-7-5.3-11.3
				v-98.6c0-8.2,6.6-14.8,14.8-14.8h152v-33.4H721.6v317.3c0,8.2-6.6,14.8-14.8,14.8h-141c-8.2,0-14.8-6.6-14.8-14.8V724.1
				c0-8.2,6.6-14.8,14.8-14.8h390.7c30.2,0,58.8,11.8,80.6,33.2c0,0,0.1,0.1,0.1,0.1c21.5,21.5,33.3,50.1,33.3,80.5v96
				c0,30.5-11.8,59.1-33.3,80.5c-14.8,14.8-33,25-52.8,29.9l117.5,98.5v-404c0-8.2,6.6-14.8,14.8-14.8h141c8.2,0,14.8,6.6,14.8,14.8
				v447.6c0,8.2-6.6,14.8-14.8,14.8h-123.4c-1,0.2-1.9,0.3-2.9,0.3H951.2z"/>
			<path class="st0" d="M1257.7,724.1v9.8v428v9.7h-9.7H1131l0.4,0.3h-27H954.7h-3.5l-2.8-2.3l-197.6-165.5l-3.5-3v-4.6v-84.2v-9.7
				h9.7h157v-62.9H706.9v322.3v9.7h-9.7H575.6h-9.7v-9.7V830v-96.2v-9.7h9.7h381c26.6,0,51.4,10.4,70.2,28.9
				c18.7,18.7,28.9,43.6,28.9,70.1v96c0,26.5-10.2,51.4-28.9,70.1c-18.7,18.7-43.6,28.9-70.1,28.9h-8.9l162.9,136.5l6,5V733.9v-9.7
				h9.7h121.5H1257.7 M1257.7,694.6h-9.7h-121.5h-9.7c-16.3,0-29.5,13.2-29.5,29.5v9.7v362.6l-73.7-61.7
				c12.5-6.2,24.1-14.4,34.2-24.5c24.2-24.2,37.6-56.6,37.6-91v-96c0-34.4-13.4-66.7-37.6-91c-0.1-0.1-0.1-0.1-0.2-0.2
				c-24.5-24.1-56.8-37.4-90.9-37.4h-381h-9.7c-16.3,0-29.5,13.2-29.5,29.5v9.7V830v332v9.7c0,16.3,13.2,29.5,29.5,29.5h9.7h121.5
				h9.7c16.3,0,29.5-13.2,29.5-29.5v-9.7v-131.3l193,161.7c0.1,0.1,0.1,0.1,0.2,0.2l2.8,2.3c5.3,4.3,11.9,6.7,18.7,6.7h3.5h149.7h27
				c1.4,0,2.8-0.1,4.2-0.3h112.4h9.7c16.3,0,29.5-13.2,29.5-29.5v-9.7v-428v-9.8C1287.2,707.8,1274,694.6,1257.7,694.6L1257.7,694.6
				z M736.4,869.3h148.1v3.8H757h-9.7c-3.8,0-7.5,0.7-10.8,2V869.3L736.4,869.3z"/>
		</g>
		<g>
			<path class="st0" d="M2700.2,1186.9c-3.4,0-6.7-1.2-9.4-3.4c0,0-2.8-2.3-2.9-2.4l-197.8-165.6l-3.5-2.9c-3.4-2.8-5.3-7-5.3-11.3
				v-98.6c0-8.2,6.6-14.8,14.8-14.8h152.3v-33.4h-177.6v317.3c0,8.2-6.6,14.8-14.8,14.8h-141c-8.2,0-14.8-6.6-14.8-14.8V724.2
				c0-8.2,6.6-14.8,14.8-14.8h390.5c30.3,0,58.9,11.9,80.7,33.4c21.5,21.5,33.3,50.1,33.3,80.6v95.9c0,30.5-11.8,59.1-33.3,80.5
				c-14.8,14.8-32.9,25-52.8,29.9l135.7,113.6l20.7,17.3c4.8,4,6.5,10.5,4.4,16.4c-2.1,5.8-7.7,9.7-13.9,9.7H2700.2z"/>
			<path class="st0" d="M2705.5,724.2c26.5,0,51.4,10.4,70.3,29.1c18.7,18.7,28.9,43.6,28.9,70.1v95.9c0,26.5-10.2,51.4-28.9,70.1
				c-18.7,18.7-43.6,28.9-70.1,28.9h-8.9l162.9,136.4l20.7,17.3h-27h-149.7h-3.5l-2.8-2.3l-197.8-165.6l-3.5-3v-4.6v-84.2v-9.7h9.7
				h157.3v-62.9H2456v322.3v9.7h-9.7h-121.5h-9.7v-9.7V830v-96.1v-9.7h9.7H2705.5 M2705.5,694.7h-380.8h-9.7
				c-16.3,0-29.5,13.2-29.5,29.5v9.7V830v332v9.7c0,16.3,13.2,29.5,29.5,29.5h9.7h121.5h9.7c16.3,0,29.5-13.2,29.5-29.5v-9.7V1031
				l192.9,161.5c0.1,0.1,0.1,0.1,0.2,0.2l2.8,2.3c5.3,4.3,11.9,6.7,18.7,6.7h3.5h149.7h27c12.4,0,23.5-7.8,27.8-19.4
				c4.2-11.7,0.7-24.8-8.8-32.7l-20.7-17.3l-116.2-97.3c12.5-6.1,24.1-14.4,34.2-24.5c24.2-24.2,37.6-56.6,37.6-91v-95.9
				c0-34.4-13.4-66.7-37.6-91c0,0-0.1-0.1-0.1-0.1C2772,708,2739.7,694.7,2705.5,694.7L2705.5,694.7z M2485.5,869.3h148.1v3.8
				h-127.8h-9.7c-3.7,0-7.3,0.7-10.5,1.9V869.3L2485.5,869.3z"/>
		</g>
	</g>
	<g>
		<g>
			<rect x="1121.5" y="729" class="st1" width="131.3" height="438"/>
			<path class="st0" d="M1247.9,733.9v428.1h-121.5V733.9H1247.9 M1257.7,724.1h-9.7h-121.5h-9.7v9.7V1162v9.7h9.7h121.5h9.7v-9.7
				v-428V724.1L1257.7,724.1z"/>
		</g>
		<g>
			<polygon class="st1" points="3377.9,1167.1 3377.9,1061.1 3377.9,1061.1 3377.9,834.9 3377.9,830 3377.9,729.1 3382.8,729 
				3509.1,729 3509.1,729.1 3804.6,729.1 3804.6,834.9 3509.1,834.9 3509.1,895.1 3718.9,895.1 3718.9,1001.1 3509.1,1001.1 
				3509.1,1061.1 3804.6,1061.1 3804.6,1167.1 			"/>
			<path class="st0" d="M3504.2,733.9L3504.2,733.9h295.5V830h-295.5v70H3714v96.1h-209.7v69.9h295.5v96.1h-417v-96.1l0,0V830l0,0
				v-96.1l0,0l0,0H3504.2 M3504.2,724.1h-121.5h-9.7l0,0v9.7V830v9.7l0,0v216.5v9.7v96.1v9.7h9.7h417h9.7v-9.7v-96.1v-9.7h-9.7H3514
				V1006h199.9h9.7v-9.7v-96.1v-9.7h-9.7H3514V840h285.7h9.7V830v-96.1v-9.7h-9.7H3514L3504.2,724.1L3504.2,724.1z"/>
		</g>
		<g>
			<polygon class="st1" points="1330.4,1167 1330.4,1001 1330.4,996.1 1330.4,895 1330.4,895 1330.4,834.9 1330.4,830 1330.4,729 
				1335.4,729 1461.7,729 1461.7,729 1733.6,729 1733.6,834.9 1461.7,834.9 1461.7,895 1695.6,895 1695.6,1001 1461.7,1001 
				1461.7,1167 			"/>
			<path class="st0" d="M1456.8,733.9L1456.8,733.9h271.9V830h-271.9V900h233.9v96.1h-233.9v166h-121.5v-166l0,0V900l0,0V830l0,0
				v-96.1l0,0l0,0H1456.8 M1456.8,724.1h-121.5h-9.7l0,0v9.7V830v9.7l0,0v50.3v9.7V996v9.7l0,0V1162v9.7h9.7h121.5h9.7v-9.7v-156.2
				h224.1h9.7v-9.7V900v-9.8h-9.7h-224.1v-50.3h262h9.7V830v-96.1v-9.7h-9.7h-262L1456.8,724.1L1456.8,724.1z"/>
		</g>
		<g>
			<path class="st1" d="M1856,1167c-51.9,0-94.2-42.2-94.2-94.2V823.3c0-51.9,42.2-94.2,94.2-94.2h328.4c51.9,0,94.2,42.2,94.2,94.2
				v249.5c0,51.9-42.2,94.2-94.2,94.2H1856z M2147.4,1061.1V834.9h-254.3V1061L2147.4,1061.1L2147.4,1061.1z"/>
			<path class="st0" d="M2184.4,733.9c49.3,0,89.3,40,89.3,89.3v249.5c0,49.3-40,89.3-89.3,89.3H1856c-49.3,0-89.3-40-89.3-89.3V830
				v-6.8c0-49.3,40-89.3,89.3-89.3L2184.4,733.9 M1888.2,1066.1h264.1V830h-264.1V1066.1 M2184.4,724.1H1856
				c-26.5,0-51.4,10.2-70.1,28.9c-18.7,18.7-28.9,43.6-28.9,70.1v6.8v242.7c0,26.5,10.2,51.4,28.9,70.1
				c18.7,18.7,43.6,28.9,70.1,28.9h328.4c26.5,0,51.4-10.2,70.1-28.9c18.7-18.7,28.9-43.6,28.9-70.1V823.3
				c0-26.5-10.2-51.4-28.9-70.1C2235.8,734.5,2211,724.1,2184.4,724.1L2184.4,724.1z M1898,839.8h244.5v216.4H1898L1898,839.8
				L1898,839.8z"/>
		</g>
		<g>
			<path class="st1" d="M2934.1,1167c-51.9,0-94.2-42.2-94.2-94.2V823.3c0-51.9,42.2-94.1,94-94.1h314.5c51.9,0,94.2,42.2,94.2,94.2
				V905h-138.4v-70H2971v226.3h233.2v-70h138.4v81.6c0,51.9-42.2,94.2-94.2,94.2L2934.1,1167L2934.1,1167z"/>
			<path class="st0" d="M2933.9,734c0.1,0,0.1,0,0.2,0h314.3c49.3,0,89.3,40,89.3,89.3v76.7h-128.6v-70h-242.9v236.1h242.9v-70
				h128.6v76.7c0,49.3-40,89.3-89.3,89.3h-314.3c-49.3,0-89.3-40-89.3-89.3V823.3C2844.8,774,2884.7,734,2933.9,734 M2933.9,724.2
				L2933.9,724.2c-26.5,0-51.3,10.2-69.9,28.9c-18.7,18.7-28.9,43.6-28.9,70v249.5c0,26.5,10.2,51.4,28.9,70.1
				c18.7,18.7,43.6,28.9,70.1,28.9h314.3c26.5,0,51.4-10.2,70.1-28.9c18.7-18.7,28.9-43.6,28.9-70.1V996v-9.7h-9.7h-128.6h-9.7v9.7
				v60.3h-223.3V839.8h223.3v60.3v9.7h9.7h128.6h9.7v-9.7v-76.7c0-26.5-10.2-51.4-28.9-70.1c-18.7-18.7-43.6-28.9-70.1-28.9h-314.3
				L2933.9,724.2L2933.9,724.2L2933.9,724.2z"/>
		</g>
		<g>
			<polygon class="st1" points="220.2,1167 220.2,834.9 34.5,834.9 34.5,729.1 220.2,729.1 225.1,729 351.4,729 351.4,729.1 
				537.2,729.1 537.2,834.9 351.4,834.9 351.4,1167 			"/>
			<path class="st0" d="M346.5,733.9L346.5,733.9h185.8V830H346.5v332H225.1V830H39.3v-96.1H225l0,0H346.5 M346.5,724.1H225.1h-9.7
				l0,0H39.3h-9.7v9.7V830v9.7h9.7h176v322.3v9.7h9.7h121.5h9.7v-9.7V839.8h176.1h9.7V830v-96.1v-9.7h-9.7h-176L346.5,724.1
				L346.5,724.1z"/>
		</g>
		<g>
			<path class="st1" d="M1178.3,1299.6c-13.2,0-23.9-10.6-23.9-23.8s10.6-23.9,23.9-23.9s23.9,10.6,23.9,23.9
				C1202.2,1288.9,1191.5,1299.6,1178.3,1299.6z"/>
			<path class="st0" d="M1178.3,1256.8c10.4,0,19,8.5,19,19c0,10.4-8.5,18.9-19,18.9c-10.4,0-19-8.6-19-18.9
				C1159.3,1265.3,1167.9,1256.8,1178.3,1256.8 M1178.3,1247c-15.9,0-28.8,12.9-28.8,28.8c0,15.9,12.9,28.7,28.8,28.7
				s28.8-12.8,28.8-28.7C1207.2,1259.9,1194.2,1247,1178.3,1247L1178.3,1247z"/>
		</g>
		<g>
			<path class="st1" d="M2182.7,1299.6c-13.2,0-23.9-10.6-23.9-23.8s10.6-23.9,23.9-23.9c13.3,0,23.9,10.6,23.9,23.9
				C2206.7,1288.9,2195.9,1299.6,2182.7,1299.6z"/>
			<path class="st0" d="M2182.7,1256.8c10.4,0,19,8.5,19,19c0,10.4-8.6,18.9-19,18.9s-19-8.6-19-18.9
				C2163.7,1265.3,2172.3,1256.8,2182.7,1256.8 M2182.7,1247c-15.9,0-28.8,12.9-28.8,28.8c0,15.9,12.9,28.7,28.8,28.7
				s28.8-12.8,28.8-28.7C2211.6,1259.9,2198.6,1247,2182.7,1247L2182.7,1247z"/>
		</g>
		<g>
			<path class="st1" d="M424,1337.9V1292h-53v45.9h-39.2v-91.9c0-17.8,14.5-32.4,32.4-32.4h66.5c17.8,0,32.4,14.5,32.4,32.4v91.9
				H424z M424,1259.4v-13h-53v13H424z"/>
			<path class="st0" d="M430.8,1218.5c15.2,0,27.6,12.3,27.6,27.6v86.9H429v-45.9h-62.8v45.9h-29.4v-45.9v-22.8v-18.2
				c0-15.2,12.3-27.6,27.6-27.6H430.8 M366.1,1264.3h62.8v-22.8h-62.8V1264.3 M430.8,1208.7h-66.5c-20.6,0-37.3,16.7-37.3,37.3v18.2
				v22.9v45.9v9.7h9.7h29.3h9.7v-9.7v-36h43.2v36v9.7h9.7h29.3h9.7v-9.7v-86.9C468.1,1225.5,451.4,1208.7,430.8,1208.7L430.8,1208.7
				z M375.9,1251.2h43.2v3.2h-43.2V1251.2L375.9,1251.2z"/>
		</g>
		<g>
			<path class="st1" d="M2024.4,1337.9V1292h-53v45.9h-39.2v-91.9c0-17.8,14.5-32.4,32.4-32.4h66.5c17.8,0,32.4,14.5,32.4,32.4v91.9
				H2024.4z M2024.4,1259.4v-13h-53v13H2024.4z"/>
			<path class="st0" d="M2031.2,1218.5c15.2,0,27.6,12.3,27.6,27.6v86.9h-29.4v-45.9h-62.8v45.9h-29.3v-45.9v-22.8v-18.2
				c0-15.2,12.3-27.6,27.6-27.6H2031.2 M1966.6,1264.3h62.8v-22.8h-62.8V1264.3 M2031.2,1208.7h-66.5c-20.6,0-37.3,16.7-37.3,37.3
				v18.2v22.9v45.9v9.7h9.7h29.3h9.7v-9.7v-36h43.2v36v9.7h9.7h29.3h9.7v-9.7v-86.9C2068.4,1225.5,2051.8,1208.7,2031.2,1208.7
				L2031.2,1208.7z M1976.4,1251.2h43.2v3.2h-43.2V1251.2L1976.4,1251.2z"/>
		</g>
		<g>
			<path class="st1" d="M764.6,1337.9c-17.8,0-32.4-14.5-32.4-32.4v-59.5c0-17.8,14.5-32.4,32.4-32.4h99v32.7h-92.2v58.9h92.2v32.7
				L764.6,1337.9L764.6,1337.9z"/>
			<path class="st0" d="M858.6,1218.5v22.9h-92.2v68.6h92.2v22.9h-94c-15.2,0-27.6-12.3-27.6-27.6V1246c0-15.2,12.3-27.6,27.6-27.6
				L858.6,1218.5 M868.4,1208.7h-9.8h-94c-20.6,0-37.3,16.7-37.3,37.3v59.5c0,20.6,16.7,37.3,37.3,37.3h94h9.7v-9.7v-22.9v-9.7h-9.7
				h-82.4v-49h82.4h9.7v-9.7v-22.9L868.4,1208.7L868.4,1208.7z"/>
		</g>
		<g>
			<path class="st1" d="M951.9,1337.9c-17.8,0-32.4-14.5-32.4-32.4v-59.5c0-17.8,14.5-32.4,32.4-32.4h66.5
				c17.8,0,32.4,14.5,32.4,32.4v59.5c0,17.8-14.5,32.4-32.4,32.4H951.9z M1011.6,1305.2v-58.9h-53v58.9H1011.6z"/>
			<path class="st0" d="M1018.5,1218.5c15.2,0,27.6,12.3,27.6,27.6v59.5c0,15.2-12.3,27.6-27.6,27.6H952
				c-15.2,0-27.6-12.3-27.6-27.6v-59.5c0-15.2,12.2-27.6,27.6-27.6H1018.5 M953.7,1310.1h62.8v-68.6h-62.8V1310.1 M1018.5,1208.7
				H952c-20.6,0-37.3,16.7-37.3,37.3v59.5c0,20.6,16.7,37.3,37.3,37.3h66.5c20.6,0,37.3-16.7,37.3-37.3v-59.5
				C1055.8,1225.5,1039.1,1208.7,1018.5,1208.7L1018.5,1208.7z M963.6,1251.2h43.2v49h-43.2V1251.2L963.6,1251.2z"/>
		</g>
		<g>
			<path class="st1" d="M1563.5,1337.9c-17.8,0-32.4-14.5-32.4-32.4v-59.5c0-17.8,14.5-32.4,32.4-32.4h99v32.7h-92.2v13h67.6v32.7
				h-67.6v13.1h92.2v32.7L1563.5,1337.9L1563.5,1337.9z"/>
			<path class="st0" d="M1657.4,1218.5v22.9h-92.2v22.8h67.6v22.9h-67.6v22.9h92.2v22.9h-94c-15.2,0-27.6-12.3-27.6-27.6v-59.5
				c0-15.2,12.3-27.6,27.6-27.6L1657.4,1218.5 M1667.2,1208.7h-9.7h-94c-20.6,0-37.3,16.7-37.3,37.3v59.5
				c0,20.6,16.7,37.3,37.3,37.3h94h9.7v-9.7v-22.9v-9.7h-9.7H1575v-3.3h57.9h9.7v-9.7v-23v-9.7h-9.7H1575v-3.2h82.4h9.7v-9.7v-22.9
				V1208.7L1667.2,1208.7z"/>
		</g>
		<g>
			<path class="st1" d="M1764.1,1337.9c-17.8,0-32.4-14.5-32.4-32.4v-59.5c0-17.8,14.5-32.4,32.4-32.4h99v32.7h-92.2v58.9h53v-13.1
				h-40v-32.8h79.1l0.1,4.9v41.3c0,17.8-14.5,32.4-32.4,32.4H1764.1z"/>
			<path class="st0" d="M1858.1,1218.5v22.9h-92.2v68.6h62.8v-22.9h-40v-22.8h40h29.2h0.1v41.3c0,15.2-12.3,27.6-27.6,27.6h-66.5
				c-15.2,0-27.6-12.3-27.6-27.6v-59.5c0-15.2,12.3-27.6,27.6-27.6H1858.1 M1868,1208.7h-9.7h-94c-20.6,0-37.3,16.7-37.3,37.3v59.5
				c0,20.6,16.7,37.3,37.3,37.3h66.5c20.6,0,37.3-16.7,37.3-37.3v-41.3v-9.7h-9.7h-0.1h-29.2h-40h-9.7v9.7v22.9v9.7h9.7h30.1v3.3
				h-43.2v-49h82.4h9.7v-9.7v-22.9V1208.7L1868,1208.7z"/>
		</g>
		<g>
			<polygon class="st1" points="230.3,1337.9 175,1259 175,1337.9 135.8,1337.9 135.8,1213.6 183.2,1213.6 227.9,1277.6 
				227.9,1213.6 267.1,1213.6 267.1,1337.9 			"/>
			<path class="st0" d="M262.3,1218.5V1333H255h-22.2l-62.8-89.6v89.6h-29.3v-91.6v-22.9H170h5.5h4.9h0.2l52.2,74.5v-74.5H262.3
				 M272.1,1208.7h-9.7H233h-9.7v9.7v43.5l-34.4-49l-3-4.2h-5.1h-0.2h-4.9h-5.5h-29.3H131v9.7v22.9v91.6v9.7h9.7H170h9.7v-9.7v-58.6
				l45,64.2l3,4.2h5.1H255h7.3h9.7v-9.7v-114.5V1208.7L272.1,1208.7z"/>
		</g>
		<g>
			<path class="st1" d="M3604.8,1337.9c-17.8,0-32.4-14.5-32.4-32.4v-59.5c0-17.8,14.5-32.4,32.4-32.4h66.5
				c17.8,0,32.4,14.5,32.4,32.4v59.5c0,17.8-14.5,32.4-32.4,32.4H3604.8z M3664.4,1305.2v-58.9h-53v58.9H3664.4z"/>
			<path class="st0" d="M3671.1,1218.5c15.2,0,27.6,12.3,27.6,27.6v59.5c0,15.2-12.3,27.6-27.6,27.6h-66.5
				c-15.2,0-27.6-12.3-27.6-27.6v-59.5c0-15.2,12.3-27.6,27.6-27.6H3671.1 M3606.6,1310.1h62.8v-68.6h-62.8V1310.1 M3671.1,1208.7
				h-66.5c-20.6,0-37.3,16.7-37.3,37.3v59.5c0,20.6,16.7,37.3,37.3,37.3h66.5c20.6,0,37.3-16.7,37.3-37.3v-59.5
				C3708.4,1225.5,3691.7,1208.7,3671.1,1208.7L3671.1,1208.7z M3616.4,1251.2h43.2v49h-43.2V1251.2L3616.4,1251.2z"/>
		</g>
		<g>
			<path class="st1" d="M3377.9,1337.9v-124.3h99c17.8,0,32.4,14.5,32.4,32.4v59.5c0,17.8-14.5,32.4-32.4,32.4L3377.9,1337.9
				L3377.9,1337.9z M3470.1,1305.2v-58.9h-53v58.9H3470.1z"/>
			<path class="st0" d="M3476.9,1218.5c15.2,0,27.6,12.3,27.6,27.6v59.5c0,15.2-12.3,27.6-27.6,27.6h-94v-114.5L3476.9,1218.5
				 M3412.2,1310.1h62.8v-68.6h-62.8V1310.1 M3476.9,1208.7h-94h-9.7v9.7V1333v9.7h9.7h94c20.6,0,37.3-16.7,37.3-37.3V1246
				C3514.2,1225.5,3497.4,1208.7,3476.9,1208.7L3476.9,1208.7z M3422,1251.2h43.2v49H3422V1251.2L3422,1251.2z"/>
		</g>
		<g>
			<path class="st1" d="M3044.7,1337.9c-17.8,0-32.4-14.5-32.4-32.4v-59.5c0-17.8,14.5-32.4,32.4-32.4h99v32.7h-92.1v13h62.8v32.7
				h-62.8v13.1h92.1v32.7L3044.7,1337.9L3044.7,1337.9z"/>
			<path class="st0" d="M3138.7,1218.5v22.9h-92.1v22.8h62.8v22.9h-62.8v22.9h92.1v22.9h-94c-15.2,0-27.6-12.3-27.6-27.6v-59.5
				c0-15.2,12.3-27.6,27.6-27.6L3138.7,1218.5 M3148.6,1208.7h-9.7h-94c-20.6,0-37.3,16.7-37.3,37.3v59.5
				c0,20.6,16.7,37.3,37.3,37.3h94h9.7v-9.7v-22.9v-9.7h-9.7h-82.3v-3.3h53h9.7v-9.7v-23v-9.7h-9.7h-53v-3.2h82.3h9.7v-9.7v-22.9
				V1208.7L3148.6,1208.7z"/>
		</g>
		<g>
			<polygon class="st1" points="2414.2,1337.9 2358.9,1259 2358.9,1337.9 2319.7,1337.9 2319.7,1213.6 2367.1,1213.6 2411.9,1277.6 
				2411.9,1213.6 2451,1213.6 2451,1337.9 			"/>
			<path class="st0" d="M2446,1218.5V1333h-7.3h-22.2l-62.8-89.6v89.6h-29.3v-91.6v-22.9h29.3h5.5h4.9h0.2l52.2,74.5v-74.5H2446
				 M2455.9,1208.7h-9.7h-29.3h-9.7v9.7v43.5l-34.4-49l-3-4.2h-5.1h-0.2h-4.9h-5.5h-29.3h-9.7v9.7v22.9v91.6v9.7h9.7h29.3h9.7v-9.7
				v-58.6l45,64.2l3,4.2h5.1h22.2h7.3h9.7v-9.7v-114.5L2455.9,1208.7L2455.9,1208.7z"/>
		</g>
		<g>
			<rect x="2521.2" y="1213.6" class="st1" width="39.2" height="124.3"/>
			<path class="st0" d="M2555.4,1218.5V1333h-29.3v-114.5H2555.4 M2565.3,1208.7h-9.7h-29.3h-9.7v9.7V1333v9.7h9.7h29.3h9.7v-9.7
				v-114.5V1208.7L2565.3,1208.7z"/>
		</g>
		<g>
			<polygon class="st1" points="3278,1337.9 3222.8,1259.1 3222.8,1337.9 3183.6,1337.9 3183.6,1213.6 3230.9,1213.6 3232.4,1215.7 
				3275.6,1277.6 3275.6,1213.6 3314.8,1213.6 3314.8,1337.9 			"/>
			<path class="st0" d="M3309.9,1218.5V1333h-7.3h-22.2l-62.6-89.4v89.4h-29.3v-91.6v-22.9h29.3h5.4h5h0.1l52.2,74.5v-74.5H3309.9
				 M3319.7,1208.7h-9.7h-29.3h-9.7v9.7v43.5l-34.4-49l-3-4.2h-5.1h-0.1h-5h-5.4h-29.3h-9.7v9.7v22.9v91.6v9.7h9.7h29.3h9.7v-9.7
				v-58.4l44.9,64.1l3,4.2h5.1h22.2h7.3h9.7v-9.7v-114.5L3319.7,1208.7L3319.7,1208.7z"/>
		</g>
		<g>
			<polygon class="st1" points="2727.5,1337.9 2672.3,1259.1 2672.3,1337.9 2633.1,1337.9 2633.1,1213.6 2680.5,1213.6 
				2725.2,1277.6 2725.2,1213.6 2764.4,1213.6 2764.4,1337.9 			"/>
			<path class="st0" d="M2759.5,1218.5V1333h-7.3h-22.2l-62.7-89.4v89.4H2638v-91.6v-22.9h29.3h5.4h5h0.1l52.2,74.5v-74.5H2759.5
				 M2769.3,1208.7h-9.7h-29.3h-9.7v9.7v43.5l-34.4-49l-3-4.2h-5.1h-0.1h-5h-5.4h-29.3h-9.7v9.7v22.9v91.6v9.7h9.7h29.3h9.7v-9.7
				v-58.4l44.9,64.1l3,4.2h5.1h22.2h7.3h9.7v-9.7v-114.5L2769.3,1208.7L2769.3,1208.7z"/>
		</g>
		<g>
			<polygon class="st1" points="644.3,1337.9 644.3,1269.3 620.8,1337.9 585.9,1337.9 562.1,1269.3 562.1,1337.9 522.9,1337.9 
				522.9,1213.6 577.5,1213.6 603.3,1288.3 628.9,1213.6 683.5,1213.6 683.5,1337.9 			"/>
			<path class="st0" d="M678.7,1218.5V1333h-29.3v-92.9l-32,92.9h-28.1l-32-92.9v92.9H528v-114.5h22h7.5h16.7l29.2,85l29.1-85h16.8
				h7.5H678.7 M688.5,1208.7h-9.7h-22h-7.5h-16.8h-7l-2.3,6.6l-20,58l-20-58l-2.3-6.6H574h-16.7h-7.5h-22h-9.7v9.7V1333v9.7h9.7
				h29.4h9.7v-9.7v-34.4l12.9,37.6l2.3,6.6h7h28.1h7l2.3-6.6l12.9-37.6v34.4v9.7h9.7h29.3h9.7v-9.7v-114.5L688.5,1208.7
				L688.5,1208.7z"/>
		</g>
		<g>
			<polygon class="st1" points="2866.4,1337.9 2866.4,1246.4 2820.4,1246.4 2820.4,1213.6 2951.5,1213.6 2951.5,1246.4 
				2905.6,1246.4 2905.6,1337.9 			"/>
			<path class="st0" d="M2946.7,1218.5v22.9h-46.1v91.6h-29.3v-91.6h-46.1v-22.9h46.1h29.3H2946.7 M2956.5,1208.7h-9.7h-46.1h-29.3
				h-46.1h-9.7v9.7v22.9v9.7h9.7h36.2v81.8v9.7h9.7h29.3h9.7v-9.7v-81.8h36.2h9.7v-9.7v-22.9v-9.7H2956.5z"/>
		</g>
		<g>
			<polygon class="st1" points="2194.7,692 1937.2,239.5 1679.7,692 1565.9,692 1937.2,39.4 2308.5,692 			"/>
			<path class="st0" d="M1937.2,49.3L2300.1,687h-102.6l-260.3-457.6L1676.8,687h-102.6L1937.2,49.3 M1937.2,29.5l-8.6,15
				l-362.9,637.7l-8.4,14.6h16.8h102.7h5.7l2.9-5l251.9-442.6l251.9,442.6l2.9,5h5.7h102.4h16.8l-8.4-14.6L1945.7,44.5L1937.2,29.5
				L1937.2,29.5z"/>
		</g>
		<g>
			<polygon class="st1" points="1008.8,1670.9 1177.2,1374.9 1291,1374.9 1178.9,1572 2695.4,1572 2583.3,1374.9 2697.1,1374.9 
				2865.5,1670.9 			"/>
			<path class="st0" d="M2694.3,1379.9l162.9,286.2H1017.2l162.9-286.2h102.6L1170.5,1577h1533.4l-112.1-197.1L2694.3,1379.9
				 M2700,1370h-5.7h-102.6h-16.8l8.4,14.6l103.9,182.5H1187.4l103.9-182.5l8.4-14.6h-16.8h-102.6h-5.7l-2.9,5l-162.9,286.2
				l-8.4,14.6h16.8h1839.9h16.8l-8.4-14.6L2702.7,1375L2700,1370L2700,1370z"/>
		</g>
		<g>
			<path class="st1" d="M1330.4,1338v-32.7h92.2v-13.1h-59.8c-17.8,0-32.4-14.5-32.4-32.4v-13.7c0-17.8,14.5-32.4,32.4-32.4h99v32.7
				h-92.2v13.1h59.8c17.8,0,32.4,14.5,32.4,32.4v13.7c0,17.8-14.5,32.4-32.4,32.4H1330.4z"/>
			<path class="st0" d="M1456.9,1218.5v22.9h-92.2v22.9h64.7c15.2,0,27.6,12.3,27.6,27.6v13.7c0,15.2-12.3,27.6-27.6,27.6h-94v-22.9
				h92.2v-22.9h-64.7c-15.2,0-27.6-12.3-27.6-27.6v-13.7c0-15.2,12.3-27.6,27.6-27.6H1456.9 M1466.7,1208.7h-9.7h-94
				c-20.6,0-37.3,16.7-37.3,37.3v13.7c0,20.6,16.7,37.3,37.3,37.3h54.8v3.3h-82.4h-9.7v9.7v22.9v9.7h9.7h94
				c20.6,0,37.3-16.7,37.3-37.3v-13.7c0-20.6-16.7-37.3-37.3-37.3h-54.8v-3.3h82.4h9.7v-9.7v-22.9V1208.7L1466.7,1208.7z"/>
		</g>
		<g>
			<path class="st1" d="M952.9,1167.1L752.1,998.9v-91.3H919V835h-217v332H570.7V729h385.9c51.9,0,94.2,42.2,94.2,94.2v95.9
				c0,51.9-42.2,94.2-94.2,94.2h-22.3l183.5,153.8L952.9,1167.1L952.9,1167.1z"/>
			<path class="st0" d="M956.6,733.9c49.3,0,89.3,40,89.3,89.3v95.9c0,49.3-40,89.3-89.3,89.3h-35.7l183.5,153.8H954.7L757,996.6
				v-84.2h166.9V830H697.1v332H575.6V830v-96.1H956.6 M956.6,724.1h-381h-9.7v9.7V830v332v9.7h9.7h121.5h9.7v-9.7V839.8H914v62.9
				H757h-9.7v9.7v84.2v4.6l3.5,3l197.6,165.5l2.8,2.3h3.5h149.7h27l-20.7-17.3l-162.9-136.5h8.9c26.5,0,51.4-10.2,70.1-28.9
				c18.7-18.7,28.9-43.6,28.9-70.1v-96c0-26.5-10.2-51.4-28.9-70.1C1008,734.5,983.2,724.1,956.6,724.1L956.6,724.1z"/>
		</g>
		<g>
			<path class="st1" d="M2701.9,1167.1l-201-168.2v-91.3h167.1V835H2451v332.1h-131.3v-438h385.8c51.9,0,94.2,42.2,94.2,94.2v95.9
				c0,51.9-42.2,94.2-94.2,94.2h-22.3l183.5,153.7L2701.9,1167.1L2701.9,1167.1z"/>
			<path class="st0" d="M2705.5,734c49.3,0,89.3,40,89.3,89.3v95.9c0,49.3-40,89.3-89.3,89.3h-35.7l183.5,153.7h-149.7l-197.9-165.6
				v-84.2h167.1V830h-226.9v332.1h-121.5v-332V734H2705.5 M2705.5,724.2h-380.8h-9.7v9.7V830v332v9.7h9.7h121.5h9.7v-9.7V839.8
				h207.2v62.9h-157.3h-9.7v9.7v84.2v4.6l3.5,3l197.8,165.6l2.8,2.3h3.5h149.7h27l-20.7-17.3l-162.9-136.4h8.9
				c26.5,0,51.4-10.2,70.1-28.9c18.7-18.7,28.9-43.6,28.9-70.1v-95.9c0-26.5-10.2-51.4-28.9-70.1
				C2756.9,734.6,2732,724.2,2705.5,724.2L2705.5,724.2z"/>
		</g>
	</g>
</g>
</svg>
