<?xml version="1.0" encoding="utf-8"?>
<!-- Generator: Adobe Illustrator 26.4.1, SVG Export Plug-In . SVG Version: 6.00 Build 0)  -->
<svg version="1.1" id="Layer_1" xmlns="http://www.w3.org/2000/svg" xmlns:xlink="http://www.w3.org/1999/xlink" x="0px" y="0px"
	 viewBox="0 0 3839 1942.7" style="enable-background:new 0 0 3839 1942.7;" xml:space="preserve">
<style type="text/css">
	.st0{fill:#FFFFFF;}
	.st1{fill:#FFFFFF;stroke:#FFFFFF;stroke-width:29.616;stroke-linecap:round;stroke-linejoin:round;stroke-miterlimit:10;}
	.st2{fill:#030508;}
	.st3{fill:#4ACF93;}
	.st4{fill:#F0E257;}
	.st5{clip-path:url(#SVGID_00000130638598446544836730000013371046994968198787_);}
	.st6{fill:#009A60;}
	.st7{clip-path:url(#SVGID_00000131353073614453410660000008812437057993536406_);}
	.st8{clip-path:url(#SVGID_00000091706537024233676600000000287583329596162494_);}
	.st9{clip-path:url(#SVGID_00000042004532012440361500000013803763608187237030_);}
	.st10{clip-path:url(#SVGID_00000010996645746589989040000011660053113787163044_);}
	.st11{fill:#D6B00A;}
	.st12{clip-path:url(#SVGID_00000017503855748976130440000010593102246871264391_);}
</style>
<g>
	<g>
		<g>
			<g>
				<path class="st0" d="M201.8,1927.9c-48.5,0-114.4-9-152.8-51.9c-32.2-35.3-33.5-77.8-34-96l-0.2-6c-0.1-4,1.4-7.9,4.2-10.8
					c2.8-2.9,6.6-4.5,10.6-4.5c0,0,115.8,0.1,115.8,0.1c8,0,14.5,6.3,14.8,14.3l0.2,5c0.2,6.4,0.5,17,5.8,25.2
					c6.2,9.6,19.3,14.5,38.8,14.5c3.6,0,14.6,0,24-3.9c9.2-3.8,12.7-9.3,12.7-19.6c0-11.8-5-14.3-18.1-17.9l-93.2-24.2
					c-14.2-3.7-40.5-10.6-64-28.2c-30-22.6-45.2-54.6-45.2-95.2c0-37.3,14.8-71.2,41.8-95.6c31.9-28.8,78.4-43.4,138.2-43.4
					c70.6,0,120.6,17.8,148.7,52.8c22.8,28.4,26.2,60.4,26.5,87.9l0.1,5c0,4-1.5,7.8-4.3,10.6c-2.8,2.8-6.6,4.4-10.5,4.4H244.8
					c-3.9,0-7.7-1.6-10.5-4.3c-2.8-2.8-4.3-6.5-4.3-10.5l0-5.2c0-4.9,0-14.1-3.9-21.3c-1.5-2.8-6.1-11.3-26.5-11.3
					c-15.1,0-30.4,6.3-30.4,20.3c0,10,3.5,14.3,23.9,19.9l71,18.4c26.5,6.9,56.6,14.7,81.1,32.7c29.5,21.7,44.4,54,44.4,96.1
					c0,46.8-19.7,84.7-57.1,109.6C300.4,1916.5,255.1,1927.9,201.8,1927.9z"/>
				<path class="st0" d="M201.2,1504.7c65.9,0,112,15.9,137.2,47.3c20,24.9,23,53.8,23.3,78.9l0.1,5H244.8v-5.2
					c0-5.8,0-17.9-5.7-28.4c-6.8-12.7-20.1-19.1-39.5-19.1c-26.6,0-45.2,14.5-45.2,35.2c0,22.8,16.5,29.2,34.9,34.3l71.1,18.4
					c25.2,6.6,53.8,14,76.1,30.3c25.8,19,38.4,46.5,38.4,84.1c0,41.6-17.5,75.3-50.5,97.3c-29.8,19.9-72.2,30.4-122.6,30.4
					c-82.5,0-122.6-25.6-141.8-47c-28.6-31.3-29.7-70-30.2-86.5l-0.2-6l115.8,0.1l0.2,5c0.2,7.4,0.7,21.1,8.2,32.7
					c9.1,14.1,26.4,21.3,51.3,21.3c4.4,0,17.6,0,29.7-5c14.7-6.1,21.9-17,21.9-33.3c0-20.2-11.1-27.3-29.1-32.2l-93.3-24.2
					c-13.2-3.4-37.6-9.8-58.8-25.7c-26.1-19.6-39.3-47.7-39.3-83.4C36.1,1568.8,79.4,1504.7,201.2,1504.7 M201.2,1475.1
					c-32.2,0-61.3,4.2-86.4,12.4c-24.1,7.9-44.9,19.6-61.7,34.8c-30.1,27.2-46.7,65-46.7,106.5c0,44.9,17.7,81.9,51.1,107.1
					c3.9,3,8,5.7,12,8.1l-39.9,0c0,0,0,0,0,0c-8,0-15.7,3.2-21.2,9c-5.6,5.7-8.6,13.5-8.4,21.5l0.2,6c0.5,18.1,2,66.1,37.8,105.5
					c14.8,16.5,34.4,29.7,58.2,39.2c29.2,11.7,64.8,17.6,105.6,17.6c56.3,0,104.4-12.2,139.1-35.4c20.6-13.8,36.6-31.4,47.5-52.3
					c10.7-20.7,16.2-44.1,16.2-69.6c0-47.1-17-83.4-50.5-108c-6.2-4.5-12.7-8.5-19.3-11.9h27c7.9,0,15.5-3.2,21.1-8.8
					c5.6-5.6,8.6-13.3,8.5-21.2l-0.1-5c-0.1-12.3-0.9-28.7-5.1-46.1c-4.7-19.2-13-36.3-24.7-50.9
					C330.4,1494.7,276.5,1475.1,201.2,1475.1L201.2,1475.1z M184.1,1619.2c0-0.3,0-0.6,0-1c0-0.7,0-1,1.2-2
					c1.1-0.8,5.3-3.6,14.4-3.6c2.7,0,11.7,0.3,13.4,3.6c1.8,3.3,2.1,8.7,2.1,12.3l-18.2-4.7C189,1621.6,185.6,1620.1,184.1,1619.2
					L184.1,1619.2z M204.9,1803c-6.4,0-21.9-0.8-26.4-7.7c-2.7-4.2-3.2-11.2-3.4-16.1l44.6,11.6c3.7,1,5.8,1.8,7,2.4
					c0,0.3,0,0.7,0,1.2c0,3.1-0.5,4.2-0.6,4.2l0,0c0,0-0.7,0.7-3,1.7C218.9,1802.1,212.7,1803,204.9,1803L204.9,1803z"/>
			</g>
			<path class="st1" d="M201.2,1509.6c148.7,0,155,80.7,155.5,121.3h-107c0-11.6,0.5-52.7-50.1-52.7c-30.6,0-50.1,17.4-50.1,40.1
				c0,28,23.2,34.8,38.5,39l71.2,18.5c50.7,13.2,110.8,29,110.8,109.7c0,84.8-72.8,122.8-168.2,122.8c-39.6,0-103.3-6.4-138.2-45.4
				c-27.9-30.5-28.5-68-29-84.3l106,0.1c0.5,15.3,1.6,59,64.3,59c8.9,0,56.5,0,56.5-43.2c0-18-7.4-30-32.7-36.9l-93.4-24.3
				c-26.3-6.9-94.4-24.7-94.4-104.4C41,1567.1,87.4,1509.6,201.2,1509.6 M201.2,1499.8c-28.3,0-53.9,3.5-76,10.4
				c-20.9,6.5-38.8,16.1-53.2,28.4c-13.6,11.7-24.1,25.7-31,41.6c-6.5,15-9.9,31.3-9.9,48.6c0,37.4,13.9,66.7,41.2,87.3
				c21.9,16.5,47,23,60.5,26.6l93.3,24.2c10.2,2.8,17,6.4,20.8,11c3.2,3.9,4.6,9,4.6,16.4c0,14.3-6,23.4-18.8,28.7
				c-11.2,4.6-23.7,4.6-27.8,4.6c-23.1,0-39-6.4-47.1-19.1c-6.7-10.5-7.2-23.3-7.4-30.2l0-0.2l-0.3-9.5l-9.5,0l-106-0.1l-10.1,0
				l0.3,10.1l0,0.9c0.5,17.1,1.7,57.1,31.5,89.7c16.8,18.7,41,32.3,72.2,40.2c21.7,5.6,46.3,8.4,73.3,8.4
				c51.4,0,94.7-10.8,125.3-31.3c16.8-11.2,29.8-25.3,38.7-41.8c9.3-17.3,14-37.4,14-59.6c0-20.5-3.8-38.6-11.2-53.7
				c-6.6-13.5-16.5-25.1-29.2-34.4c-23-16.9-52.1-24.4-77.7-31.1l-71.1-18.4c-6.5-1.8-15.3-4.2-21.7-9c-6.5-4.8-9.5-11.3-9.5-20.5
				c0-18.1,16.2-30.2,40.3-30.2c17.7,0,29.2,5.4,35.2,16.5c5.1,9.4,5.1,20.6,5.1,26v0.3v9.8h9.8h107h9.9l-0.1-9.9
				c-0.1-11-0.7-24.1-3.8-38.1c-3.8-16.8-10.7-31.5-20.5-43.8c-12.2-15.2-29.2-27.1-50.5-35.2
				C267.5,1504.5,237.1,1499.8,201.2,1499.8L201.2,1499.8z"/>
		</g>
		<g>
			<g>
				<path class="st0" d="M526.1,1925.3c-51.2,0-91.2-13.3-119-39.5c-28.2-26.6-42.5-65-42.5-114.1c0-50.7,13.1-90.9,38.9-119.4
					c27.8-30.7,68.7-46.3,121.6-46.3c35.4,0,64.2,6.3,88.2,19.2c24.2,13,42.9,33,55.5,59.3c12.5,24.7,16.8,50.7,16.8,103.1v4.9
					c0,3.3-1.1,6.3-2.9,8.8c1.5,2.7,2.1,5.8,1.8,8.9l-0.6,5.5c-4.2,37.7-22.9,66.6-55.7,85.9
					C601.6,1917.1,566.3,1925.3,526.1,1925.3z M497.5,1807.2c4.3,21.5,16.4,24.9,29.2,24.9c20.9,0,24.7-11.2,25.8-20.9l0.4-4H497.5z
					 M549.1,1714.1c-4.6-12.9-12.9-15.9-24-15.9c-9.4,0-18.5,2.3-23.9,15.9H549.1z"/>
				<path class="st0" d="M525.2,1620.8c65.1,0,107.8,23,130.4,70.2c11.4,22.3,15.2,46.7,15.2,96.5v4.9H481
					c1.2,36.7,16.1,54.5,45.6,54.5c23.7,0,38.1-12.1,40.5-34.1l0.5-4.4h102.2l-0.6,5.5c-3.6,32.8-20,57.9-48.5,74.8
					c-24.3,14.3-57,21.9-94.5,21.9c-47.3,0-83.9-11.9-108.9-35.5c-25.1-23.7-37.8-58.4-37.8-103.3c0-46.9,11.8-83.8,35.1-109.5
					C439.4,1634.7,476.6,1620.8,525.2,1620.8 M482.5,1728.9h84.6c-2.3-22.2-10.1-45.6-42.1-45.6
					C500.4,1683.3,486.4,1698.2,482.5,1728.9 M525.2,1591.1c-27.7,0-52.8,4.1-74.6,12.3c-22.9,8.6-42.4,21.7-58,38.9
					c-28.3,31.3-42.7,74.9-42.7,129.4c0,25.8,3.8,49.3,11.3,69.8c7.9,21.6,19.9,40.1,35.8,55.1c30.7,28.9,74.1,43.6,129.2,43.6
					c42.8,0,80.7-9,109.6-26c36.5-21.5,58.3-55.1,62.9-97l0.6-5.4c0.4-3.2,0.2-6.4-0.5-9.5c1.1-3.1,1.7-6.4,1.7-9.8v-4.9
					c0-27.5-1.1-46.9-3.7-63.2c-2.8-17.5-7.4-32.3-14.6-46.5C654.4,1620.3,601.6,1591.1,525.2,1591.1L525.2,1591.1z"/>
			</g>
			<path class="st1" d="M525.2,1625.7c73.8,0,108.1,30,126,67.5c11.6,22.7,14.7,48,14.7,94.4H476.1c0,14.2,0,64.3,50.6,64.3
				c26.3,0,42.7-13.7,45.4-38.5h92.3c-7.4,66.5-69.6,92.3-138.2,92.3c-92.3,0-141.8-46.4-141.8-133.9
				C384.3,1683.1,427.6,1625.7,525.2,1625.7 M477,1733.8h95.4c-1.1-15.3-4.2-55.4-47.4-55.4S478.1,1721.1,477,1733.8 M525.2,1615.8
				c-50,0-88.5,14.5-114.3,43c-24.1,26.7-36.3,64.6-36.3,112.8c0,46.3,13.2,82.3,39.4,106.9c25.9,24.4,63.7,36.8,112.2,36.8
				c38.4,0,71.9-7.8,97-22.6c14.2-8.4,25.8-19,34.2-31.6c9.1-13.5,14.7-29.3,16.7-46.9l1.2-10.9h-11H572h-8.8l-0.9,8.8
				c-1,9.7-4.5,17.1-10.4,22.1c-6,5.1-14.5,7.6-25.2,7.6c-17.5,0-29-6.9-35.3-21c-3.5-7.9-4.7-16.7-5.2-23.7h179.7h9.8v-9.8
				c0-44-2.5-72.7-15.7-98.7C636.5,1639.7,592.4,1615.8,525.2,1615.8L525.2,1615.8z M488.1,1724c1-5.6,2.7-12.1,5.8-18
				c6.3-11.9,16.5-17.7,31.1-17.7c14.8,0,24.9,5.5,30.8,16.7c3.2,6.1,4.9,13,5.7,19H488.1L488.1,1724z"/>
		</g>
		<g>
			<g>
				<path class="st0" d="M688.9,1919.5c-8.2,0-14.8-6.6-14.8-14.8v-274.6c0-8.2,6.6-14.8,14.8-14.8h109c8.2,0,14.8,6.6,14.8,14.8
					v274.6c0,8.2-6.6,14.8-14.8,14.8H688.9z"/>
				<path class="st0" d="M797.9,1630.2v274.6h-109v-274.6H797.9 M797.9,1600.6h-109c-16.4,0-29.6,13.3-29.6,29.6v274.6
					c0,16.4,13.3,29.6,29.6,29.6h109c16.4,0,29.6-13.3,29.6-29.6v-274.6C827.6,1613.8,814.3,1600.6,797.9,1600.6L797.9,1600.6z"/>
			</g>
			<path class="st1" d="M793,1635.1v264.7h-99.2v-264.7H793 M802.9,1625.3H793h-99.2H684v9.8v264.7v9.8h9.8H793h9.8v-9.8v-264.7
				V1625.3L802.9,1625.3z"/>
		</g>
		<g>
			<g>
				<path class="st0" d="M687.9,1610.6c-8.2,0-14.8-6.6-14.8-14.8v-80.5c0-8.2,6.6-14.8,14.8-14.8h111.1c8.2,0,14.8,6.6,14.8,14.8
					v80.5c0,8.2-6.6,14.8-14.8,14.8H687.9z"/>
				<path class="st0" d="M798.9,1515.3v80.5H687.9v-80.5H798.9 M798.9,1485.7H687.9c-16.4,0-29.6,13.3-29.6,29.6v80.5
					c0,16.4,13.3,29.6,29.6,29.6h111.1c16.4,0,29.6-13.3,29.6-29.6v-80.5C828.5,1498.9,815.3,1485.7,798.9,1485.7L798.9,1485.7z"/>
			</g>
			<path class="st1" d="M794,1520.2v70.7H692.8v-70.7H794 M803.8,1510.4H794H692.8H683v9.8v70.7v9.8h9.8H794h9.8v-9.8v-70.7V1510.4
				L803.8,1510.4z"/>
		</g>
		<g>
			<g>
				<path class="st0" d="M1014.4,1925.4c-11.3,0-40.9,0-71.8-21.4l-0.2,2c-0.6,7.7-7,13.6-14.8,13.6H825c-4.2,0-8.1-1.7-10.9-4.8
					c-2.8-3.1-4.2-7.2-3.8-11.3l0.5-5.3c2.6-29.4,3-62.9,3.1-64.2v-319.6c0-8.2,6.6-14.8,14.8-14.8H938c8.2,0,14.8,6.6,14.8,14.8
					v108.5c25.3-12.5,51.8-14.2,64.1-14.2c28.3,0,53.4,7.2,74.6,21.5c16.1,10.8,29.7,25.5,40.4,43.5c0,0.1,0.1,0.1,0.1,0.2
					c17.2,29.9,19.5,63.4,19.5,92.2c0,52.9-11.8,88.1-39.5,117.8C1073.8,1925.4,1029.1,1925.4,1014.4,1925.4z M982.2,1705.4
					c-8.5,0-19.1,2.3-26.2,20.3c-5.2,13.3-6.3,29.2-6.3,40.1c0,6.9,0.6,24.4,6,39.2c7,19.1,17.2,21.3,24.4,21.3
					c15.5,0,21.1-9.9,24.7-20.5c5.1-14.9,5.1-32.8,5.1-40.5C1009.9,1705.4,989.7,1705.4,982.2,1705.4z"/>
				<path class="st0" d="M938,1514.3v136.3c26.5-24.4,63.2-27.2,78.9-27.2c56.2,0,86.7,31.4,102.3,57.8c15.5,26.9,17.6,58,17.6,84.8
					c0,48.8-10.6,81-35.6,107.7c-33.9,36.9-73.8,36.9-86.9,36.9c-13,0-50.6,0-84.2-37.2l-2.5,31.4H825l0.5-5.3
					c2.7-30.5,3.1-65.2,3.1-65.5v-319.7H938 M980,1841.1c19,0,31.7-10,38.7-30.5c5.9-17.2,5.9-36.9,5.9-45.3
					c0-50.3-13.9-74.7-42.5-74.7c-18.8,0-32.2,10-40,29.7c-6.1,15.5-7.4,33.3-7.4,45.6C934.8,1783.5,938.1,1841.1,980,1841.1
					 M938,1484.7H828.6c-16.4,0-29.6,13.3-29.6,29.6v319.6c0,2.1-0.5,34.4-3,63l-0.5,5.3c-0.7,8.3,2,16.5,7.7,22.6
					c5.6,6.1,13.5,9.6,21.8,9.6h102.7c8.4,0,16.1-3.5,21.5-9.2c7.1,3.7,14.5,6.7,22.2,9.1c19.5,5.9,35.4,5.9,43,5.9
					c7.2,0,24,0,43.9-5.8c24.8-7.2,46.5-20.9,64.7-40.6c30.1-32.2,43.5-71.7,43.5-127.8c0-30.7-2.6-66.6-21.5-99.6
					c-0.1-0.1-0.1-0.2-0.2-0.3c-11.8-20-26.9-36.2-44.9-48.3c-23.7-16-51.6-24-82.9-24c-10,0-25.7,0.9-42.9,5.4
					c-2.2,0.6-4.3,1.2-6.4,1.8v-86.7C967.6,1498,954.3,1484.7,938,1484.7L938,1484.7z M980,1811.5c-3.1,0-4-0.8-4.7-1.5
					c-1.2-1.1-3.5-3.8-5.7-10c-3.2-8.7-5.1-21.5-5.1-34.1c0-13.7,1.9-26,5.3-34.7c4.3-10.9,8.4-10.9,12.4-10.9
					c3.8,0,4.6,0.7,6.2,3.5c2.5,4.4,6.7,15.6,6.7,41.6c0,6.9,0,23.1-4.3,35.7c-2.2,6.5-4.4,8.7-5.2,9.3
					C984.5,1811.1,982.6,1811.5,980,1811.5L980,1811.5z"/>
			</g>
			<path class="st1" d="M933.1,1519.2v143.9c27.4-34.3,74.3-34.8,83.9-34.8c50.7,0,81.2,26.9,98.1,55.4
				c14.2,24.7,16.9,53.8,16.9,82.3c0,51.7-12.2,80.7-34.3,104.4c-29.6,32.2-63.2,35.3-83.3,35.3c-17.4,0-55.4-1.6-88.1-44.8l-3.1,39
				h-92.8c2.7-30,3.1-64.3,3.1-65.9v-314.8H933.1 M980,1846c49.6,0,49.6-63.2,49.6-80.7c0-26.9-3.1-79.6-47.4-79.6
				c-49.1,0-52.2,60.7-52.2,80.1C929.9,1783.3,933.1,1846,980,1846 M942.9,1509.4h-9.8h-99.6h-9.8v9.8V1834c0,0.3-0.4,34.5-3.1,65
				l-0.9,10.7h10.7h92.8h9.1l0.7-9l1.3-16.2c32.9,31,67.6,31,80.1,31c9.7,0,24.5-0.6,41.1-6.1c18.6-6.1,35.2-17,49.3-32.4
				c25.8-27.7,36.9-60.9,36.9-111c0-27.5-2.2-59.3-18.2-87.2l0-0.1l0-0.1c-10.4-17.5-23.7-31.5-39.5-41.6
				c-19.3-12.3-41.8-18.6-67-18.6c-13.1,0-25.8,1.6-37.8,4.9c-13.9,3.7-26,9.4-36.3,16.9v-121V1509.4L942.9,1509.4z M980,1836.2
				c-23.3,0-30.9-20.4-33.4-27.2c-6.2-16.5-6.8-35.7-6.8-43.2c0-11.8,1.2-29,7-43.8c7-17.9,18.6-26.5,35.4-26.5
				c15.1,0,25,7.4,31.1,23.4c6.5,16.9,6.5,39.1,6.5,46.4C1019.8,1813,1006.8,1836.2,980,1836.2L980,1836.2z"/>
		</g>
		<g>
			<g>
				<path class="st0" d="M1254.9,1924.2c-23.3,0-43.6-4.2-60.3-12.5c-17.3-8.7-30.9-21.7-40.2-38.9c-14.8-27.1-16.8-60-16.8-88.5
					v-154.2c0-8.2,6.6-14.8,14.8-14.8h108.2c8.2,0,14.8,6.6,14.8,14.8v159.5c0,29.6,8.2,31.9,19.9,31.9c14.8,0,21.9-4.9,21.9-33
					v-158.3c0-8.2,6.6-14.8,14.8-14.8h109c8.2,0,14.8,6.6,14.8,14.8v223.2c1,20.2,1.1,24.5,1.4,40.1l0.3,10.8
					c0.1,4-1.4,7.8-4.2,10.7c-2.8,2.9-6.6,4.5-10.6,4.5h-107.2c-7.7,0-14.1-5.9-14.8-13.5
					C1298.1,1921.6,1274.5,1924.2,1254.9,1924.2z"/>
				<path class="st0" d="M1260.7,1630.1v159.5c0,23.1,4.1,46.7,34.7,46.7c32.4,0,36.7-24.2,36.7-47.8v-158.3h109v223.6
					c1,20.3,1.1,24.5,1.4,40.1l0.3,10.8h-107.2l-1.6-31.6c-25,31.7-53.7,36.3-79.1,36.3c-42.3,0-71.7-14.7-87.5-43.7
					c-13.2-24.2-15-54.7-15-81.4v-154.2H1260.7 M1260.7,1600.5h-108.2c-16.4,0-29.6,13.3-29.6,29.6v154.2c0,30.4,2.2,65.5,18.6,95.6
					c14.7,27,46.3,59.2,113.5,59.2c16.9,0,38.5-1.8,60.4-12.7c5.3,5,12.4,8,20.2,8h107.2c8,0,15.6-3.2,21.2-8.9s8.6-13.4,8.4-21.4
					l-0.3-10.8c-0.4-15.6-0.5-20-1.4-40.1v-222.9c0-16.4-13.3-29.6-29.6-29.6h-109c-16.4,0-29.6,13.3-29.6,29.6v158.3
					c0,11.9-1.5,16.3-2.1,17.7c-0.7,0.2-2.3,0.5-5,0.5c-1.5,0-2.6-0.1-3.2-0.2c-0.7-1.8-1.8-6.3-1.8-16.9v-159.5
					C1290.3,1613.7,1277.1,1600.5,1260.7,1600.5L1260.7,1600.5z"/>
			</g>
			<path class="st1" d="M1255.8,1635L1255.8,1635v154.6c0,14.7,0,51.7,39.6,51.7c41.6,0,41.6-38,41.6-52.7v-153.4h99.2v218.8
				c1.1,22.7,1.1,25.3,1.6,45.9h-97.5l-2.1-41.1c-26.9,42.7-60.1,45.9-83.3,45.9c-91.7,0-97.5-69.6-97.5-120.2V1635H1255.8
				 M1265.6,1625.2h-9.8h-98.4h-9.8v9.8v149.3c0,11.5,0.3,26.6,2.4,41.5c2.4,16.6,6.7,30.4,13.1,42.2c16.7,30.7,47.6,46.3,91.8,46.3
				c12.8,0,28-0.9,44-7.7c11.2-4.7,21.5-11.8,30.7-21.3l0.7,14.9l0.5,9.3h9.3h97.5h10.1l-0.2-10.1l-0.1-5.8
				c-0.4-15.6-0.5-19.8-1.4-40.1v-218.5v-9.8h-9.8H1337h-9.8v9.8v153.4c0,6.9,0,18.4-4.3,27.8c-4.7,10.3-13.5,15.1-27.5,15.1
				c-24.7,0-29.8-16.7-29.8-41.8v-154.5v-0.1V1625.2L1265.6,1625.2z"/>
		</g>
		<g>
			<g>
				<path class="st0" d="M1863.7,1919.5c-5.1,0-9.9-2.6-12.6-7l-91.6-146.5v138.6c0,8.2-6.6,14.8-14.8,14.8h-116.9
					c-3.9,0-7.7-1.6-10.5-4.3c-2.8-2.8-4.3-6.5-4.3-10.5l0.1-390.5c0-8.2,6.6-14.8,14.8-14.8h116.8c8.2,0,14.8,6.6,14.8,14.8v111.5
					l87.6-120.2c2.8-3.8,7.2-6.1,12-6.1h137.6c5.7,0,10.8,3.2,13.3,8.3c2.5,5.1,1.8,11.2-1.7,15.6l-128.7,164.4l139,208.8
					c3,4.5,3.3,10.4,0.7,15.2c-2.6,4.8-7.6,7.8-13.1,7.8H1863.7z"/>
				<path class="st0" d="M1996.8,1514.2l-135.3,172.9l144.9,217.7h-142.7l-118.9-190.3v190.3h-116.9l0.1-390.5h116.8v157l114.4-157
					H1996.8 M1996.8,1484.6h-137.6c-9.5,0-18.4,4.5-23.9,12.2l-60.8,83.5v-66c0-16.4-13.3-29.6-29.6-29.6H1628
					c-16.4,0-29.6,13.3-29.6,29.6l-0.1,390.5c0,7.9,3.1,15.4,8.7,20.9c5.6,5.6,13.1,8.7,20.9,8.7h116.9c16.4,0,29.6-13.3,29.6-29.6
					v-87l64.2,102.7c5.4,8.7,14.9,13.9,25.1,13.9h142.7c10.9,0,21-6,26.1-15.6c5.2-9.6,4.6-21.3-1.5-30.4l-133-199.8l122.1-156
					c7-8.9,8.3-21,3.3-31.2S2008.1,1484.6,1996.8,1484.6L1996.8,1484.6z M1996.8,1543.8L1996.8,1543.8L1996.8,1543.8L1996.8,1543.8z
					"/>
			</g>
			<path class="st1" d="M1986.7,1519.1l-131.3,167.7l141.8,213h-130.8l-126.6-202.5v202.5h-107l0.1-380.7h107v167.1l121.8-167.1
				H1986.7 M2006.8,1509.3h-20.2h-125h-5l-2.9,4l-104,142.8v-137v-9.8h-9.8h-107h-9.8l0,9.8l-0.1,380.7l0,9.8h9.8h107h9.8v-9.8
				v-168.2l108.4,173.4l2.9,4.6h5.4h130.8h18.3l-10.2-15.3l-137.9-207.1l126.9-162.1L2006.8,1509.3L2006.8,1509.3z"/>
		</g>
		<g>
			<g>
				<path class="st0" d="M2080.3,1924.7c-36.2,0-64.7-9.8-84.7-29.1c-18.6-17.9-28.4-43.2-28.4-72.9c0-39.1,17.3-69.8,50.1-88.9
					h-18.1c-4,0-7.9-1.6-10.7-4.5c-2.8-2.9-4.3-6.8-4.1-10.9l0.3-6.7c0.5-13.5,1.6-41.6,26-66.8c24.2-24.9,69.3-39.2,123.8-39.2
					c29.6,0,83.9,4.7,116.1,36.1c19.3,18.7,29.1,46.9,29.1,83.7v123.3c0,17.9,0.5,22.3,5,47l1.1,5.8c0.8,4.3-0.4,8.8-3.2,12.1
					c-2.8,3.4-7,5.3-11.4,5.3h-104.8c-7,0-13-4.9-14.5-11.7l-0.4-1.6C2132.5,1918.7,2109.3,1924.7,2080.3,1924.7z M2147,1795.1
					c-40.7,2-42.9,8.6-42.9,18.8c0,7.4,2.9,16.1,16.7,16.1c6.6,0,15.6-2.4,21.1-14C2143.9,1811.9,2146,1805.2,2147,1795.1z
					 M2134.6,1693.8c-3,0-8.4,0.5-11.4,3.6c-2.7,2.7-3.7,7.4-4.1,11.8c7.7-0.4,15.7-0.6,24-0.6c1.4,0,2.7,0,4.1,0
					c-1-7.5-2.8-11.1-4.4-12.7C2142.2,1695.4,2140.6,1693.8,2134.6,1693.8z"/>
				<path class="st0" d="M2134.5,1620.7c27.3,0,77.4,4.1,105.8,31.9c16.3,15.8,24.6,40.4,24.6,73.1v123.3c0,19,0.5,24.1,5.2,49.7
					l1.1,5.8h-104.8l-0.8-3.9c-1.5-7.1-2.5-14.9-2.9-24.5c-15.2,18.1-38.3,33.7-82.4,33.7c-32.2,0-57.3-8.4-74.4-24.9
					c-15.6-15.1-23.9-36.6-23.9-62.3c0-34.3,14.6-60.1,43.5-76.5c26.8-15.3,65.3-22.8,117.6-22.8c6.4,0,13,0.1,19.8,0.3
					c0-14.8-1.6-30.1-9.6-38.2c-4.4-4.4-10.5-6.6-18.8-6.6c-6.4,0-15.5,1.4-22,8c-5.8,5.9-8.7,15-8.5,27.1l0.1,5h-105.1l0.3-6.7
					c0.5-12.6,1.3-35.9,21.8-57C2042.4,1633.6,2084.7,1620.7,2134.5,1620.7 M2120.8,1844.8c7.2,0,24.9-2.2,34.5-22.5
					c4.9-10.6,7.3-25.2,7-42.5c-45.6,0.8-73.1,4.2-73.1,34.1C2089.3,1828.2,2097.5,1844.8,2120.8,1844.8 M2134.5,1591
					c-58.5,0-107.5,15.9-134.4,43.7c-28.4,29.2-29.7,62.3-30.2,76.5l-0.3,6.7c-0.3,8.1,2.7,15.9,8.2,21.7c1.3,1.3,2.6,2.5,4.1,3.5
					c-5.7,6.1-10.6,12.8-14.7,20c-9.8,17.3-14.8,37.3-14.8,59.6c0,33.9,11.4,62.8,32.9,83.6c22.9,22,54.8,33.2,95,33.2
					c25.3,0,47.1-4.4,65.8-13.5c5.4,5,12.5,8.1,20.3,8.1h104.8c8.8,0,17.1-3.9,22.7-10.7s8-15.6,6.4-24.3l-1.1-5.8
					c-4.6-25-4.7-28-4.7-44.4v-123.3c0-41-11.3-72.8-33.6-94.4c-16.4-16-39-27.5-67.2-34C2171.1,1592.1,2149,1591,2134.5,1591
					L2134.5,1591z M2118.9,1813.8c1.5-0.6,4.1-1.4,8.6-2.1c-1.3,1.9-3.1,3.5-6.7,3.5c-0.8,0-1.4,0-1.8-0.1c-0.1-0.3-0.1-0.8-0.1-1.2
					C2118.9,1813.9,2118.9,1813.8,2118.9,1813.8L2118.9,1813.8z"/>
			</g>
			<path class="st1" d="M2134.5,1625.6c23.8,0,74.3,3.1,102.3,30.5c16.9,16.3,23.2,41.1,23.2,69.6v123.3c0,19,0.5,24.3,5.3,50.6
				h-94.9c-2-9.5-3.1-21-3.1-37.8c-12.1,18-32.7,43.2-87,43.2c-64.8,0-93.4-35.3-93.4-82.3c0-66.9,57.3-94.4,156.2-94.4
				c8,0,16.2,0.2,24.7,0.5c0.5-28.5-3.1-54.8-33.2-54.8c-18.5,0-35.8,10-35.3,40.1h-95c0.5-12.1,0.5-34.8,20.5-55.4
				C2045.3,1637.6,2086.4,1625.6,2134.5,1625.6 M2120.8,1849.7c10.5,0,29-4.2,39-25.3c7.9-16.9,7.9-38.5,7.4-49.6
				c-42.1,0.6-82.8,1.1-82.8,39.1C2084.4,1833.4,2097.1,1849.7,2120.8,1849.7 M2134.5,1615.7c-24.7,0-48.2,3.1-68,9.1
				c-21,6.3-37.4,15.4-48.7,27.1c-21.8,22.5-22.7,47.1-23.2,60.3l-0.1,1.6l-0.4,10.2h10.2h71.1c-20.7,3.9-38.1,9.8-52.3,18
				c-30.5,17.4-46,44.6-46,80.8c0,27,8.8,49.8,25.4,65.8c18.1,17.4,44.3,26.3,77.8,26.3c25.8,0,47.5-5.5,64.6-16.4
				c5.3-3.3,9.8-7,13.7-10.7c0.5,5,1.2,9.6,2.2,13.9l1.7,7.8h7.9h94.9h11.8l-2.1-11.6c-4.8-26.2-5.1-31-5.1-48.8v-123.3
				c0-34.1-8.8-59.9-26.1-76.7C2214,1620.1,2162.5,1615.7,2134.5,1615.7L2134.5,1615.7z M2109.1,1719.7l-0.1-5.7
				c-0.2-10.7,2.2-18.6,7.1-23.6c5.3-5.4,13-6.5,18.5-6.5c6.9,0,11.9,1.7,15.3,5.1c6,6.1,7.7,17.9,8.1,29.7
				c-5.1-0.1-10-0.2-14.8-0.2C2131,1718.5,2119.7,1718.9,2109.1,1719.7L2109.1,1719.7z M2120.8,1839.9c-12.9,0-26.6-6.8-26.6-26
				c0-12.9,5.4-19.9,18.7-24.2c11.8-3.8,27.6-4.6,44.6-4.9c-0.2,14.4-2.4,26.5-6.6,35.4C2142.5,1838,2127.1,1839.9,2120.8,1839.9
				L2120.8,1839.9z"/>
		</g>
		<g>
			<g>
				<path class="st0" d="M2292.1,1610.6c-8.2,0-14.8-6.6-14.8-14.8v-80.5c0-8.2,6.6-14.8,14.8-14.8h111.1c8.2,0,14.8,6.6,14.8,14.8
					v80.5c0,8.2-6.6,14.8-14.8,14.8H2292.1z"/>
				<path class="st0" d="M2403.1,1515.3v80.5h-111.1v-80.5H2403.1 M2403.1,1485.7h-111.1c-16.4,0-29.6,13.3-29.6,29.6v80.5
					c0,16.4,13.3,29.6,29.6,29.6h111.1c16.4,0,29.6-13.3,29.6-29.6v-80.5C2432.7,1498.9,2419.5,1485.7,2403.1,1485.7L2403.1,1485.7z
					"/>
			</g>
			<path class="st1" d="M2398.2,1520.2v70.7H2297v-70.7H2398.2 M2408,1510.4h-9.8H2297h-9.8v9.8v70.7v9.8h9.8h101.2h9.8v-9.8v-70.7
				V1510.4L2408,1510.4z"/>
		</g>
		<g>
			<g>
				<path class="st0" d="M2293.1,1919.5c-8.2,0-14.8-6.6-14.8-14.8v-274.6c0-8.2,6.6-14.8,14.8-14.8h109c8.2,0,14.8,6.6,14.8,14.8
					v274.6c0,8.2-6.6,14.8-14.8,14.8H2293.1z"/>
				<path class="st0" d="M2402.1,1630.2v274.6h-109v-274.6H2402.1 M2402.1,1600.6h-109c-16.4,0-29.6,13.3-29.6,29.6v274.6
					c0,16.4,13.3,29.6,29.6,29.6h109c16.4,0,29.6-13.3,29.6-29.6v-274.6C2431.8,1613.8,2418.5,1600.6,2402.1,1600.6L2402.1,1600.6z"
					/>
			</g>
			<path class="st1" d="M2397.2,1635.1v264.7h-99.2v-264.7H2397.2 M2407.1,1625.3h-9.8h-99.2h-9.8v9.8v264.7v9.8h9.8h99.2h9.8v-9.8
				v-264.7V1625.3L2407.1,1625.3z"/>
		</g>
		<g>
			<g>
				<path class="st0" d="M2618,1919.5c-8.2,0-14.8-6.6-14.8-14.8v-147.3c0-42.3-9.3-45.7-21.4-45.7c-12.3,0-18.4,5.9-22.4,21.7
					c-2.1,10-2.1,26.2-2.1,46.7v124.6c0,8.2-6.6,14.8-14.8,14.8h-109c-3.9,0-7.7-1.6-10.5-4.3c-2.8-2.8-4.3-6.5-4.3-10.5l0.1-390.5
					c0-8.2,6.6-14.8,14.8-14.8h110c8.2,0,14.8,6.6,14.8,14.8v110.3c18.7-9.9,39.8-15,63.1-15c34.8,0,64.2,10.8,87.2,32.1
					c32.7,29.6,32.7,65.8,32.7,104.2v158.9c0,8.2-6.6,14.8-14.8,14.8H2618z"/>
				<path class="st0" d="M2543.4,1514.2v138.5c13.6-12,37.9-28.4,77.9-28.4c31,0,57,9.5,77.2,28.2c27.9,25.2,27.9,55.2,27.9,93.3
					v158.9H2618v-147.3c0-29.3-2.8-60.5-36.2-60.5c-25.6,0-33.3,18.9-36.9,33.1c-2.5,11.6-2.5,28.5-2.5,50v124.6h-109l0.1-390.5
					H2543.4 M2543.4,1484.6h-110c-16.4,0-29.6,13.3-29.6,29.6l-0.1,390.5c0,7.9,3.1,15.4,8.7,20.9c5.6,5.6,13.1,8.7,20.9,8.7h109
					c16.4,0,29.6-13.3,29.6-29.6v-124.6c0-18.6,0-34.8,1.8-43.3c1.6-6.1,3.1-8.5,3.8-9.4c0.5-0.6,1.9-0.9,4.2-0.9
					c1.5,0,2.4,0.1,2.9,0.2c0.5,0.9,1.5,3.2,2.4,8c1.2,7,1.3,15.7,1.3,22.6v147.3c0,16.4,13.3,29.6,29.6,29.6h108.4
					c16.4,0,29.6-13.3,29.6-29.6v-158.9c0-20.2,0-39.3-4.2-58c-5.2-22.8-16.1-41.5-33.3-57.1c-12.9-11.9-27.8-21.1-44.4-27.1
					c-16.1-5.9-33.9-8.9-52.8-8.9c-17.1,0-33.2,2.5-48.3,7.4v-88C2573.1,1497.9,2559.8,1484.6,2543.4,1484.6L2543.4,1484.6z"/>
			</g>
			<path class="st1" d="M2538.5,1519.1v145c10.6-10.5,34.8-34.9,82.8-34.9c25.8,0,52.2,6.9,73.8,26.9c26.3,23.8,26.3,52.7,26.3,89.7
				v154h-98.6v-142.4c0-22.2,0-65.4-41.1-65.4c-31.6,0-39,26.3-41.6,36.9c-2.7,12.1-2.7,29-2.7,51.2v119.7h-99.2l0.1-380.7H2538.5
				 M2548.4,1509.3h-9.8h-100.2h-9.8l0,9.8l-0.1,380.7l0,9.8h9.8h99.2h9.8v-9.8v-119.7c0-21.2,0-37.9,2.4-48.9
				c1-4,3.1-12.1,8.2-18.7c5.6-7.2,13.4-10.7,23.9-10.7c13.8,0,22.1,5.6,26.8,18c4.5,11.9,4.5,27.3,4.5,37.5v142.4v9.8h9.8h98.6h9.8
				v-9.8v-154c0-37.7,0-70.2-29.5-96.9c-21.1-19.6-48.2-29.5-80.5-29.5c-34.6,0-58,11.8-73,22.9v-123.3V1509.3L2548.4,1509.3z"/>
		</g>
		<g>
			<g>
				<path class="st0" d="M2837.5,1924.7c-36.2,0-64.7-9.8-84.6-29.1c-18.6-17.9-28.4-43.1-28.4-72.9c0-39.1,17.3-69.8,50.1-88.9
					h-18.1c-4,0-7.9-1.6-10.7-4.5c-2.8-2.9-4.3-6.8-4.1-10.9l0.3-6.7c0.5-13.5,1.6-41.6,26-66.8c24.2-24.9,69.3-39.2,123.8-39.2
					c29.6,0,83.9,4.7,116.1,36.1c19.3,18.7,29.1,46.9,29.1,83.7v123.3c0,17.9,0.5,22.3,5,47l1.1,5.8c0.8,4.3-0.4,8.8-3.2,12.1
					c-2.8,3.4-7,5.3-11.4,5.3h-104.9c-7,0-13-4.9-14.5-11.7l-0.3-1.6C2889.8,1918.7,2866.5,1924.7,2837.5,1924.7z M2904.4,1795.1
					c-40.7,2-42.9,8.6-42.9,18.8c0,7.4,2.9,16.1,16.7,16.1c6.6,0,15.6-2.4,21.1-14C2901.3,1811.9,2903.4,1805.2,2904.4,1795.1z
					 M2891.9,1693.8c-3,0-8.4,0.5-11.4,3.6c-2.7,2.7-3.7,7.4-4.1,11.8c7.7-0.4,15.7-0.6,24-0.6c1.4,0,2.7,0,4.1,0
					c-1-7.5-2.8-11.1-4.4-12.7C2899.6,1695.4,2898,1693.8,2891.9,1693.8z"/>
				<path class="st0" d="M2891.8,1620.7c27.3,0,77.4,4.1,105.8,31.9c16.3,15.8,24.6,40.4,24.6,73.1v123.3c0,19,0.5,24.1,5.2,49.7
					l1.1,5.8h-104.9l-0.8-3.9c-1.5-7.1-2.5-14.9-2.9-24.5c-15.2,18.1-38.3,33.7-82.4,33.7c-32.2,0-57.2-8.4-74.4-24.9
					c-15.6-15.1-23.8-36.6-23.8-62.3c0-34.3,14.6-60.1,43.5-76.5c26.8-15.3,65.3-22.8,117.6-22.8c6.4,0,13,0.1,19.8,0.3
					c0-14.8-1.6-30.1-9.6-38.2c-4.4-4.4-10.5-6.6-18.8-6.6c-6.4,0-15.5,1.4-22,8c-5.8,5.9-8.7,15-8.5,27.1l0.1,5h-105.1l0.3-6.7
					c0.5-12.6,1.3-35.9,21.8-57C2799.7,1633.6,2842.1,1620.7,2891.8,1620.7 M2878.2,1844.8c7.2,0,24.9-2.2,34.5-22.5
					c4.9-10.6,7.3-25.2,7-42.5c-45.6,0.8-73.1,4.2-73.1,34.1C2846.7,1828.2,2854.9,1844.8,2878.2,1844.8 M2891.8,1591
					c-58.5,0-107.5,15.9-134.4,43.7c-28.4,29.2-29.7,62.3-30.2,76.5l-0.3,6.7c-0.3,8.1,2.7,15.9,8.2,21.7c1.3,1.3,2.6,2.5,4.1,3.5
					c-5.7,6.1-10.6,12.8-14.7,20c-9.8,17.3-14.8,37.3-14.8,59.6c0,33.9,11.4,62.8,32.9,83.6c22.8,22.1,54.8,33.2,94.9,33.2
					c25.3,0,47.1-4.4,65.8-13.5c5.4,5,12.5,8.1,20.3,8.1h104.9c8.8,0,17.1-3.9,22.7-10.7c5.6-6.7,8-15.6,6.4-24.3l-1.1-5.8
					c-4.6-25-4.7-28-4.7-44.4v-123.3c0-41-11.3-72.8-33.6-94.4c-16.4-16-39-27.5-67.2-34C2928.5,1592.1,2906.4,1591,2891.8,1591
					L2891.8,1591z M2876.3,1813.8c1.5-0.6,4.1-1.4,8.6-2.1c-1.3,1.9-3.1,3.5-6.7,3.5c-0.8,0-1.4,0-1.8-0.1c-0.1-0.3-0.1-0.8-0.1-1.2
					C2876.3,1813.9,2876.3,1813.8,2876.3,1813.8L2876.3,1813.8z"/>
			</g>
			<path class="st1" d="M2891.8,1625.6c23.8,0,74.3,3.1,102.3,30.5c16.9,16.3,23.2,41.1,23.2,69.6v123.3c0,19,0.5,24.3,5.3,50.6h-95
				c-2-9.5-3.1-21-3.1-37.8c-12.1,18-32.7,43.2-87,43.2c-64.8,0-93.3-35.3-93.3-82.3c0-66.9,57.3-94.4,156.2-94.4
				c8,0,16.2,0.2,24.7,0.5c0.5-28.5-3.1-54.8-33.2-54.8c-18.5,0-35.8,10-35.3,40.1h-95c0.5-12.1,0.5-34.8,20.5-55.4
				C2802.7,1637.6,2843.8,1625.6,2891.8,1625.6 M2878.2,1849.7c10.5,0,29-4.2,39-25.3c7.9-16.9,7.9-38.5,7.4-49.6
				c-42.1,0.6-82.8,1.1-82.8,39.1C2841.8,1833.4,2854.4,1849.7,2878.2,1849.7 M2891.8,1615.7c-24.7,0-48.2,3.1-68,9.1
				c-21,6.3-37.4,15.4-48.7,27.1c-21.8,22.5-22.7,47.1-23.2,60.3l-0.1,1.6l-0.4,10.2h10.2h71.1c-20.7,3.9-38.1,9.8-52.3,18
				c-30.5,17.4-46,44.6-46,80.8c0,27,8.8,49.8,25.3,65.8c18.1,17.5,44.2,26.3,77.8,26.3c25.8,0,47.5-5.5,64.6-16.4
				c5.3-3.3,9.8-7,13.7-10.7c0.5,5,1.2,9.6,2.2,13.9l1.7,7.8h7.9h95h11.8l-2.1-11.6c-4.8-26.2-5.1-31-5.1-48.8v-123.3
				c0-34.1-8.8-59.9-26.1-76.7C2971.4,1620.1,2919.9,1615.7,2891.8,1615.7L2891.8,1615.7z M2866.5,1719.7l-0.1-5.7
				c-0.2-10.7,2.2-18.6,7.1-23.6c5.3-5.4,13-6.5,18.5-6.5c6.9,0,11.9,1.7,15.3,5.1c6,6.1,7.7,17.9,8.1,29.7
				c-5.1-0.1-10-0.2-14.8-0.2C2888.4,1718.5,2877.1,1718.9,2866.5,1719.7L2866.5,1719.7z M2878.2,1839.9c-12.9,0-26.6-6.8-26.6-26
				c0-12.9,5.4-19.9,18.7-24.2c11.8-3.8,27.6-4.6,44.6-4.9c-0.2,14.4-2.4,26.5-6.6,35.4C2899.8,1838,2884.4,1839.9,2878.2,1839.9
				L2878.2,1839.9z"/>
		</g>
		<g>
			<g>
				<path class="st0" d="M3171.8,1923.7c-44.3,0-73.3-8.2-91.5-25.8c-20.5-19.8-23.1-48.6-23.1-71.4v-107.3h-35.3
					c-8.2,0-14.8-6.6-14.8-14.8v-73.1c0-8.2,6.6-14.8,14.8-14.8h36.8v-24.8c0-6.1,3.7-11.5,9.3-13.8l105.3-41.9
					c1.8-0.7,3.6-1.1,5.5-1.1c2.9,0,5.8,0.9,8.3,2.6c4.1,2.8,6.5,7.3,6.5,12.3v66.6l48,0.1c8.2,0,14.8,6.6,14.8,14.8v73
					c0,8.2-6.6,14.8-14.8,14.8h-49v71.9l0,0.4c0.1,9.7,0.3,23.1,2.2,25.3c0.1,0.1,2.5,2.1,16.5,2.1c7.3,0,11.4,0,22.2-1.4l5.5-0.7
					c0.6-0.1,1.3-0.1,1.9-0.1c3.6,0,7.1,1.3,9.8,3.7c3.2,2.8,5,6.9,5,11.1v72c0,7.3-5.3,13.4-12.4,14.6l-4.1,0.7
					C3224.6,1921.1,3206.1,1923.7,3171.8,1923.7z"/>
				<path class="st0" d="M3178.9,1549.8v81.4l62.7,0.1v73h-63.8v86.8l0,0.5c0.5,32.3,0.6,42,33.6,42c7.7,0,12.3,0,24.1-1.5l5.5-0.7
					v72l-4.1,0.7c-14.1,2.3-31.9,4.8-65.1,4.8c-83.4,0-99.8-30.2-99.8-82.4v-122.2h-50.1v-73.1h51.7v-39.6L3178.9,1549.8
					 M3178.9,1520.2c-3.7,0-7.4,0.7-11,2.1l-105.3,41.9c-11.3,4.5-18.7,15.4-18.7,27.5v9.9h-22c-16.4,0-29.6,13.3-29.6,29.6v73.1
					c0,16.4,13.3,29.6,29.6,29.6h20.5v92.5c0,25.7,3.1,58.3,27.6,82c21.1,20.5,53.4,30,101.8,30c35.5,0,54.7-2.7,69.9-5.2l4.1-0.7
					c14.3-2.3,24.8-14.7,24.8-29.2v-72c0-8.5-3.7-16.6-10.1-22.3c-5.4-4.8-12.4-7.4-19.5-7.4c-1.3,0-2.5,0.1-3.8,0.2l-5.5,0.7
					c-9.9,1.3-13.1,1.3-20.3,1.3c-1.4,0-2.6,0-3.7-0.1c-0.2-3.9-0.2-8.6-0.3-12.8l0-0.3v-56.9h34.2c16.4,0,29.6-13.3,29.6-29.6v-73
					c0-16.3-13.2-29.6-29.6-29.6l-33.2-0.1v-51.8c0-9.8-4.9-19-13-24.5C3190.5,1521.9,3184.7,1520.2,3178.9,1520.2L3178.9,1520.2z"
					/>
			</g>
			<path class="st1" d="M3173.9,1557v79l62.7,0.1v63.2h-63.8v91.7c0.5,32.7,0.5,47.4,38.5,47.4c7.9,0,12.7,0,24.7-1.6v62.3
				c-13.2,2.2-30.5,4.7-64.3,4.7c-79,0-94.9-26.3-94.9-77.5v-127.1h-50.1v-63.2h51.7V1595L3173.9,1557 M3183.8,1542.5l-13.5,5.4
				l-95.4,38l-6.2,2.5v6.7v31.3h-41.8h-9.8v9.8v63.2v9.8h9.8h40.3v117.2c0,22.5,2.5,47.8,20.9,65.1c16.2,15.2,42.8,22.2,83.8,22.2
				c33.6,0,51.6-2.5,65.9-4.8l8.2-1.4v-8.3V1837v-11.2l-11.1,1.4c-11.4,1.5-15.7,1.5-23.5,1.5c-20.7,0-23.8-4.9-24.9-6.7
				c-3.4-5.3-3.5-16.4-3.7-30.5l0-0.5v-81.8h54h9.8v-9.8v-63.2v-9.8l-9.8,0l-52.9-0.1V1557V1542.5L3183.8,1542.5z"/>
		</g>
		<g>
			<g>
				<path class="st0" d="M3372.7,1927.1c-40.2,0-90.4-4.1-122.3-36.4c-18.7-19-28-44.8-27.6-76.8l0.1-4.8
					c0.1-8.1,6.7-14.6,14.8-14.6h48.5c-7.5-3.1-15.8-7.4-23.7-13.4c-22.1-16.7-33.8-41.1-33.8-70.4c0-36.4,20.7-63.3,40.2-76.3
					c25.3-17.8,58.7-26.2,105-26.2c37.9,0,67.3,6.4,90,19.5c30.7,17.8,48.1,48.3,50.4,88.2l0.3,5.2c0.2,4.1-1.2,8.1-4,11
					c-2.8,3-6.7,4.6-10.8,4.6h-27.8c5.2,2.7,10.6,6,15.8,10.2c21.1,16.8,31.8,40.6,31.8,70.9c0,25.2-7,46.8-20.9,64.2
					c-11.3,14.1-26.9,25.1-46.5,32.7C3419.7,1927.1,3385.6,1927.1,3372.7,1927.1z M3360.3,1816.4c0.1,3.7,0.5,8.9,2.3,12.9
					c0,0.1,0.2,0.3,0.2,0.4c0.7,1.5,2.1,4.6,10.9,4.6c7.3,0,10.3-2.1,10.3-7.2c0-2-0.1-2-1.5-3c-4.2-2.8-13.5-5.5-21.2-7.5
					C3361.3,1816.7,3360.3,1816.4,3360.3,1816.4z M3359.8,1701.5c0.4,0.4,2.8,2.4,12.2,4.9c0,0,8.8,2.4,8.8,2.4
					c-0.2-3.5-0.6-6.9-1.6-9.1c-0.8-1.5-1.9-3.1-9.7-3.1c-5.3,0-9.1,1.5-9.7,2.3l0,0c0,0-0.1,0.3-0.1,1.2
					C3359.7,1700.9,3359.8,1701.3,3359.8,1701.5z"/>
				<path class="st0" d="M3373.8,1622.9c35.2,0,62.2,5.7,82.6,17.6c26.6,15.4,41,41,43.1,76.2l0.3,5.2h-104v-4.9
					c0-7.5,0-16.8-3.2-23.7c-2.9-5.7-7.8-11.5-23-11.5c-5.8,0-24.6,1.3-24.6,18.3c0,10.6,6.1,16,23.3,20.6l70.6,19.6
					c18,4.9,65.9,17.9,65.9,77.5c0,21.8-5.9,40.3-17.7,54.9c-9.6,12-23.2,21.5-40.3,28.1c-29.7,11.5-61.9,11.5-74,11.5
					c-37.3,0-83.8-3.6-111.8-32c-15.9-16.1-23.7-38.3-23.4-66.3l0.1-4.8h102.9v4.7l4.9,0c0,4.4,0,13.6,3.8,21.7l0,0.1
					c3.9,8.9,12.2,13.5,24.5,13.5c23.9,0,25.1-18.3,25.1-22c0-13.7-9.9-18.6-33.7-24.8l-53.9-15.3c-7.5-1.9-24.8-6.4-40-17.9
					c-18.6-14-28-33.7-28-58.5c0-30.7,17.4-53.2,33.7-64.1C3299.9,1630.4,3330.6,1622.9,3373.8,1622.9 M3373.8,1593.3
					c-49.4,0-85.5,9.1-113.4,28.8c-12.7,8.5-23.6,20.3-31.7,34c-9.7,16.5-14.9,35.3-14.9,54.5c0,27.1,8.7,50.6,25.3,69h-1.4
					c-16.2,0-29.4,13-29.6,29.2l-0.1,4.8c-0.2,17.4,2.2,33.5,7.3,47.8c5.4,15.2,13.6,28.5,24.6,39.6c35.7,36.2,89.7,40.8,132.8,40.8
					c13.6,0,49.8,0,84.7-13.5c22-8.6,39.8-21.1,52.7-37.2c16-20,24.2-44.7,24.2-73.4c0-27-7.9-50.3-23.1-68.5
					c3.8-1.6,7.2-3.9,10.1-7c5.6-5.9,8.5-13.9,8-22l-0.3-5.2c-2.6-45.1-22.6-79.8-57.8-100.2
					C3446.2,1600.3,3414.3,1593.3,3373.8,1593.3L3373.8,1593.3z"/>
			</g>
			<path class="st1" d="M3373.8,1627.8c57,0,116.6,15.3,120.8,89.2h-93.9c0-8,0-18-3.7-25.8c-4.2-8.4-11.6-14.2-27.4-14.2
				c-15.3,0-29.6,6.9-29.6,23.2c0,15.3,11.1,21.1,26.9,25.3l70.6,19.5c25.3,6.9,62.3,21.1,62.3,72.8c0,89.7-103.9,89.7-127.1,89.7
				c-53.8,0-131.3-8-130.2-93.3h98.1v-0.2h0c0,4.7,0,14.7,4.2,23.8c3.7,8.4,12.1,16.4,29,16.4c22.7,0,30-15.3,30-26.9
				c0-18.5-15.3-23.8-37.4-29.6l-53.8-15.3c-16.4-4.2-64.3-17.4-64.3-71.7c0-26.3,14.2-48.5,31.6-60.1
				C3303.1,1634.1,3334.7,1627.8,3373.8,1627.8 M3373.8,1618c-44.2,0-75.8,7.8-99.4,24.4c-10.3,6.9-19,16.5-25.3,27.8
				c-6.9,12.4-10.5,26.3-10.5,40.4c0,14.2,3,27,8.9,38.1c5,9.4,12,17.6,21,24.3c15.9,12,33.9,16.7,41.7,18.7l53.7,15.3l0.1,0l0.1,0
				c24.2,6.3,30.1,10.3,30.1,20.1c0,15.9-15.5,17.1-20.2,17.1c-10.3,0-16.8-3.5-20-10.5l0-0.1l0-0.1c-3.3-7.1-3.3-15.5-3.3-19.6
				l-9.8,0v-9.6h-98.1h-9.7l-0.1,9.7c-0.4,29.3,8,52.7,24.8,69.8c13.3,13.4,32,22.9,55.7,28.1c21.8,4.8,44.4,5.4,59.6,5.4
				c12.4,0,45.2,0,75.8-11.9c40-15.5,61.1-45.8,61.1-87.6c0-25.6-8.4-46-25-60.6c-14-12.3-31.2-18.1-44.5-21.7l-31.4-8.7h85.9h10.4
				l-0.6-10.4c-2.1-37-17.4-63.9-45.5-80.2C3437.7,1624,3409.9,1618,3373.8,1618L3373.8,1618z M3390.9,1721.9l-21.3-5.9l0,0l0,0
				c-16.7-4.5-19.6-8.7-19.6-15.8c0-4.3,1.5-7.4,4.8-9.6c3.5-2.4,8.8-3.8,15-3.8c13,0,16.4,4.5,18.6,8.7c2.7,5.9,2.7,14.5,2.7,21.5
				V1721.9L3390.9,1721.9z"/>
		</g>
		<g>
			<g>
				<path class="st0" d="M3621.5,1924.2c-23.3,0-43.6-4.2-60.3-12.5c-17.3-8.7-30.9-21.7-40.2-38.9c-14.8-27.1-16.8-60-16.8-88.5
					v-154.2c0-8.2,6.6-14.8,14.8-14.8h108.2c8.2,0,14.8,6.6,14.8,14.8l0,159.5c0,29.6,8.2,31.9,19.9,31.9c14.8,0,21.9-4.9,21.9-33
					v-158.3c0-8.2,6.6-14.8,14.8-14.8h109c8.2,0,14.8,6.6,14.8,14.8v223.2c1,20.2,1.1,24.4,1.4,40l0.3,10.8c0.1,4-1.4,7.8-4.2,10.7
					c-2.8,2.9-6.6,4.5-10.6,4.5h-107.2c-7.7,0-14.1-5.9-14.8-13.5C3664.7,1921.6,3641.1,1924.2,3621.5,1924.2z"/>
				<path class="st0" d="M3627.3,1630.1l0,159.5c0,23.1,4.1,46.7,34.7,46.7c32.4,0,36.7-24.2,36.7-47.8v-158.3h109v223.6
					c1,20.3,1.1,24.5,1.4,40.1l0.3,10.8h-107.2l-1.6-31.6c-25,31.7-53.7,36.3-79.1,36.3c-42.3,0-71.7-14.7-87.5-43.7
					c-13.2-24.2-15-54.7-15-81.4v-154.2H3627.3 M3627.3,1600.5h-108.2c-16.4,0-29.6,13.3-29.6,29.6v154.2c0,30.4,2.2,65.5,18.6,95.6
					c14.7,27,46.3,59.2,113.5,59.2c16.9,0,38.5-1.8,60.4-12.7c5.3,5,12.4,8,20.2,8h107.2c8,0,15.6-3.2,21.2-8.9s8.6-13.4,8.4-21.4
					l-0.3-10.8c-0.4-15.7-0.5-20-1.4-40.1v-222.9c0-16.4-13.3-29.6-29.6-29.6h-109c-16.4,0-29.6,13.3-29.6,29.6v158.3
					c0,11.9-1.5,16.3-2.1,17.7c-0.7,0.2-2.3,0.5-5,0.5c-1.5,0-2.6-0.1-3.2-0.2c-0.7-1.8-1.8-6.3-1.8-16.9l0-159.5
					C3656.9,1613.7,3643.7,1600.5,3627.3,1600.5L3627.3,1600.5z"/>
			</g>
			<path class="st1" d="M3622.4,1635L3622.4,1635L3622.4,1635l0,154.6c0,14.7,0,51.7,39.6,51.7c41.6,0,41.6-38,41.6-52.7v-153.4
				h99.2v218.8c1.1,22.7,1.1,25.3,1.6,45.9h-97.5l-2.1-41.1c-26.9,42.7-60.1,45.9-83.3,45.9c-91.7,0-97.5-69.6-97.5-120.2V1635
				H3622.4 M3632.2,1625.2h-9.8H3524h-9.8v9.8v149.3c0,11.5,0.3,26.6,2.4,41.5c2.4,16.6,6.7,30.4,13.1,42.2
				c16.7,30.7,47.6,46.3,91.8,46.3c12.8,0,28-0.9,44-7.7c11.2-4.7,21.5-11.8,30.7-21.3l0.7,14.9l0.5,9.3h9.3h97.5h10.1l-0.2-10.1
				l-0.1-5.8c-0.4-15.6-0.5-19.8-1.4-40.1v-218.5v-9.8h-9.8h-99.2h-9.8v9.8v153.4c0,6.9,0,18.4-4.3,27.8
				c-4.7,10.3-13.5,15.1-27.5,15.1c-24.7,0-29.8-16.7-29.8-41.8v-154.5l0-0.1L3632.2,1625.2L3632.2,1625.2z"/>
		</g>
		<g>
			<g>
				<path class="st0" d="M1325.4,1418.5c-37.6,0-75-4.8-111-14.3c-58.8-11.3-115-36.4-163-72.6H845.2c-0.4,0.4-0.7,0.7-1.1,1.1
					c-26.8,26.8-58.1,47.9-93,62.6c-36.2,15.3-74.5,23.1-113.9,23.1H88.9c-8.2,0-14.8-6.6-14.8-14.8v-72H29.8
					c-8.2,0-14.8-6.6-14.8-14.8V670.4c0-8.2,6.6-14.8,14.8-14.8h128.9c0.4-0.4,0.7-0.7,1.1-1.1c26.8-26.8,58.1-47.9,93-62.6
					c36.2-15.3,74.5-23.1,113.9-23.1h548.2c8.2,0,14.8,6.6,14.8,14.8l0.1,46.1v25.9h106.5c35.4-31.4,75.5-56.7,119.4-75.3
					c53.7-22.8,110.8-34.4,169.8-34.4c58.7,0,115.8,11.6,169.9,34.3c43.7,18.5,83.9,43.9,119.3,75.3h144.9v-72
					c0-1.3,0.2-2.5,0.5-3.7c-0.3-1.2-0.5-2.4-0.5-3.7v-291c0-8.2,6.6-14.8,14.8-14.8h291c4.8,0,9.1,2.3,11.8,5.9V29.6
					c0-8.2,6.6-14.8,14.8-14.8h291c8.2,0,14.8,6.6,14.8,14.8v532.1c2.8-0.8,5.6-1.5,8.4-2.2c35-9,71.4-13.6,108.1-13.6
					c58.7,0,115.9,11.6,169.8,34.4c43.7,18.5,83.9,43.9,119.3,75.3h103.9v-72c0-8.2,6.6-14.8,14.8-14.8h291
					c8.2,0,14.8,6.6,14.8,14.8v72h216.3v-72c0-8.2,6.6-14.8,14.8-14.8h291c8.2,0,14.8,6.6,14.8,14.8l0.1,46.1v25.9h44.2
					c8.2,0,14.8,6.6,14.8,14.8v646.3c0,8.2-6.6,14.8-14.8,14.8h-44.2v72.1c0,8.2-6.6,14.8-14.8,14.8h-554.9
					c-26.8,0-53.3-3.7-78.7-10.9c-53.2-9.3-102.2-36.2-138.9-76h-202.2c-28.1,21.1-58.9,38.7-91.4,52.5
					c-53.7,22.8-110.8,34.4-169.8,34.4c-36.3,0-72.7-4.6-108.1-13.6c-0.8-0.2-1.5-0.4-2.2-0.6l-0.5-0.1c-1.9-0.4-3.8-0.8-5.8-1.2
					v0.6c0,8.2-6.6,14.8-14.8,14.8h-291c-5.8,0-10.9-3.4-13.3-8.3c-2.4,4.9-7.5,8.3-13.3,8.3h-291c-8.2,0-14.8-6.6-14.8-14.8v-72.1
					h-173.2c-7.6,5.7-15.4,11.1-23.1,16.2C1492.4,1394,1410.2,1418.5,1325.4,1418.5z"/>
				<path class="st0" d="M2383.1,29.6v552.1c9.1-3,18.1-5.6,26.9-7.9c33.8-8.7,69-13.1,104.4-13.1c56.7,0,111.9,11.2,164,33.2
					c44,18.6,84.1,44.4,119.4,76.5h124.3v-86.8h291v86.8h245.9v-86.8h291l0.1,46.1v40.7h59v646.3h-59v86.9h-554.9
					c-25.7,0-51.1-3.5-75.4-10.5c-52.4-9-100.5-36.1-135.6-76.4h-213.8c-28.2,21.7-59.2,39.7-92.2,53.7
					c-51.9,22-107.1,33.2-164,33.2c-35.1,0-70.2-4.4-104.4-13.1c-0.6-0.2-1.3-0.3-1.9-0.5l-1.1-0.3c-7.9-1.5-15.9-3.3-23.9-5.4v19.3
					h-291v-86.9h-26.6v86.9h-291v-86.9h-193c-8.6,6.6-17.4,12.9-26.2,18.6c-68.4,44.7-147.9,68.3-229.7,68.3
					c-36.5,0-72.7-4.7-107.7-13.9c-58.4-11.2-114.1-36.4-161.2-73H838.9c-1.9,2-3.6,3.8-5.3,5.4c-25.5,25.5-55.2,45.5-88.3,59.5
					c-34.4,14.5-70.8,21.9-108.2,21.9H88.9v-86.8H29.8V670.4H165c1.9-2,3.6-3.8,5.3-5.4c25.5-25.5,55.2-45.5,88.3-59.5
					c34.4-14.5,70.8-21.9,108.2-21.9h548.2l0.1,46.1v40.7h127c35.2-32.1,75.3-57.8,119.4-76.5c51.9-22,107.1-33.2,164-33.2
					c56.7,0,111.9,11.2,164.1,33.2c44,18.6,84.1,44.4,119.4,76.5h165.4v-86.8h41.2v-7.4h-41.2v-291h291v41.2h26.6V29.6H2383.1
					 M2383.1,0h-291c-16.4,0-29.6,13.3-29.6,29.6v226h-288c-16.4,0-29.6,13.3-29.6,29.6v291c0,1.2,0.1,2.5,0.2,3.7
					c-0.1,1.2-0.2,2.4-0.2,3.7v57.2h-124.5c-35.6-30.8-75.6-55.7-119.1-74.2c0,0,0,0,0,0c-55.9-23.6-115-35.5-175.6-35.5
					c-61,0-120,12-175.6,35.5c-43.6,18.5-83.6,43.4-119.1,74.1h-86.1v-11c0,0,0,0,0-0.1l-0.1-46.1c0-16.3-13.3-29.5-29.6-29.5H366.7
					c-41.4,0-81.7,8.2-119.7,24.2c-35.2,14.9-67,35.9-94.4,62.6H29.8c-16.4,0-29.6,13.3-29.6,29.6v646.3c0,16.4,13.3,29.6,29.6,29.6
					h29.5v57.2c0,16.4,13.3,29.6,29.6,29.6h548.3c41.4,0,81.7-8.2,119.7-24.2c35.2-14.9,67-35.9,94.4-62.6h195.3
					c48.7,35.9,105.4,60.8,164.6,72.2c37.1,9.7,75.6,14.7,114.3,14.7c87.6,0,172.6-25.3,245.9-73.1c6.7-4.4,13.4-9,19.9-13.8h153.5
					v57.3c0,16.4,13.3,29.6,29.6,29.6h291c4.8,0,9.3-1.1,13.3-3.1c4,2,8.5,3.1,13.3,3.1h291c10.1,0,19.1-5.1,24.4-12.8
					c35.1,8.5,71,12.8,106.9,12.8c61,0,120.1-12,175.6-35.5c32.1-13.6,62.6-30.9,90.5-51.4h190.9c38.2,39.4,88,66.1,142,75.7
					c26.5,7.5,54.1,11.2,82,11.2h554.9c16.4,0,29.6-13.3,29.6-29.6v-57.3h29.4c16.4,0,29.6-13.3,29.6-29.6V670.4
					c0-16.4-13.3-29.6-29.6-29.6h-29.4v-11c0,0,0,0,0-0.1l-0.1-46.1c0-16.3-13.3-29.5-29.6-29.5h-291c-16.4,0-29.6,13.3-29.6,29.6
					v57.2h-186.6v-57.2c0-16.4-13.3-29.6-29.6-29.6h-291c-16.4,0-29.6,13.3-29.6,29.6v57.2h-83.5c-35.6-30.8-75.6-55.7-119.1-74.2
					c-55.8-23.6-114.9-35.5-175.6-35.5c-34.4,0-68.6,3.9-101.7,11.6V29.6C2412.7,13.3,2399.4,0,2383.1,0L2383.1,0z"/>
			</g>
			<path class="st1" d="M2378.2,34.5v41.2v512.8c10.9-3.7,21.9-7.1,33-9.9c33.6-8.6,68.3-13,103.2-13c56.2,0,110.8,11.1,162.1,32.8
				c44.1,18.7,84.2,44.5,119.4,76.9h131.2v-45.6v-41.2h41.2h198.7h41.2v41.2v45.6H3464v-45.6v-41.2h41.2H3704h41.2l0.1,41.2v45.6h59
				v636.5h-59v45.7v41.2h-41.2h-47.3h-151.4h-310c-25.4,0-50.3-3.5-74.3-10.4c-53.5-9.1-100.6-36.9-134.4-76.5H2769
				c-28.3,21.9-59.3,40-92.5,54.1c-51.4,21.8-106,32.8-162.1,32.8c-35,0-69.6-4.4-103.2-13c-1-0.3-2.1-0.6-3.1-0.8
				c-10.1-1.9-20.1-4.3-29.9-7v20.8h-41.2h-198.7H2097v-41.2v-45.7h-36.4v45.7v41.2h-41.2h-198.7h-41.2v-41.2v-45.7h-199.6
				c-8.8,6.8-17.9,13.3-27.3,19.4c-67.6,44.1-146,67.5-227,67.5c-36.3,0-72-4.7-106.6-13.8c-59.8-11.4-114.5-37-160.6-73.1H836.8
				c-2.2,2.3-4.4,4.6-6.6,6.9c-25,25-54.2,44.7-86.7,58.4c-33.7,14.2-69.4,21.5-106.2,21.5H135H93.8v-41.2v-45.6H34.7V675.3h132.4
				c2.2-2.3,4.4-4.6,6.6-6.9c25-25,54.2-44.7,86.7-58.4c33.7-14.2,69.4-21.5,106.2-21.5h502.1H910l0.1,41.2v45.6h133.8
				c35.2-32.4,75.3-58.2,119.5-76.9c51.4-21.8,106-32.8,162.1-32.8c56.2,0,110.8,11.1,162.2,32.8c44.1,18.7,84.2,44.5,119.4,76.9
				h172.2v-45.6v-41.2h41.2v-17.2h-41.2v-41.2V331.4v-41.2h41.2h198.7h41.2v41.2h36.4V75.8V34.5h41.2h198.7H2378.2 M2388,24.7h-9.8
				h-41.2h-198.7H2097h-9.8v9.8v41.2v245.8h-16.8v-31.4v-9.8h-9.8h-41.2h-198.7h-41.2h-9.8v9.8v41.2v198.7v41.2v9.8v7.4v41.2v35.7
				h-158.6c-35.4-31.9-75.5-57.5-119.4-76.1c-52.8-22.3-108.7-33.6-166-33.6c-57.6,0-113.5,11.3-166,33.6
				c-44,18.7-84.2,44.3-119.4,76.1H919.9v-35.7l-0.1-41.3l0-9.8H910h-41.2H366.7c-38.1,0-75.1,7.5-110.1,22.3
				c-33.7,14.3-63.9,34.6-89.8,60.5c-1.3,1.3-2.5,2.6-3.9,4H34.7h-9.8v9.8v636.5v9.8h9.8H84v35.7v41.2v9.8h9.8H135h502.2
				c38.1,0,75.1-7.5,110.1-22.3c33.7-14.3,63.9-34.6,89.8-60.5c1.3-1.3,2.5-2.6,3.9-4h213.8c23.1,17.7,48.1,32.8,74.5,44.9
				c27.9,12.8,57.3,22.2,87.4,27.9c35.3,9.3,71.9,14.1,108.8,14.1c82.8,0,163.2-23.9,232.4-69.1c8.5-5.6,17-11.6,25.2-17.8h186.4
				v35.8v41.2v9.8h9.8h41.2h198.7h41.2h9.8v-9.8v-41.2v-35.8h16.8v35.8v41.2v9.8h9.8h41.2h198.7h41.2h9.8v-9.8v-8.1
				c6,1.4,11.9,2.7,17.9,3.9c0.3,0.1,0.6,0.2,0.8,0.2c0.7,0.2,1.3,0.4,2,0.5c34.6,8.8,70.2,13.3,105.6,13.3
				c57.6,0,113.5-11.3,166-33.6c32.9-13.9,63.8-31.9,92-53.3h209.9c35.6,40.2,84,67.2,136.7,76.3c24.7,7.1,50.4,10.6,76.5,10.6h310
				h151.4h47.3h41.2h9.8v-9.8v-41.2v-35.8h49.2h9.8v-9.8V675.3v-9.8h-9.8h-49.2v-35.7l-0.1-41.3l0-9.8h-9.8H3704h-198.7H3464h-9.8
				v9.8v41.2v35.7h-236.1v-35.7v-41.2v-9.8h-9.8h-41.2h-198.7h-41.2h-9.8v9.8v41.2v35.7h-117.5c-35.4-31.9-75.5-57.5-119.4-76.1
				c-52.7-22.3-108.6-33.6-165.9-33.6c-35.9,0-71.4,4.5-105.6,13.3c-6.8,1.7-13.7,3.7-20.7,5.9V75.8V34.5V24.7L2388,24.7z"/>
		</g>
	</g>
	<g>
		<g>
			<g>
				<path class="st2" d="M140.6,1778.6c0.5,15.3,1.6,59,64.3,59c8.9,0,56.5,0,56.5-43.2c0-18-7.4-30-32.7-36.9l-93.4-24.3
					c-26.3-6.9-94.4-24.7-94.4-104.4c0-61.7,46.4-119.2,160.3-119.2c148.7,0,155,80.7,155.5,121.3h-107c0-11.6,0.5-52.7-50.1-52.7
					c-30.6,0-50.1,17.4-50.1,40.1c0,28,23.2,34.8,38.5,39l71.2,18.5c50.7,13.2,110.8,29,110.8,109.7c0,84.8-72.8,122.8-168.2,122.8
					c-39.6,0-103.3-6.4-138.2-45.4c-27.9-30.5-28.5-68-29-84.3L140.6,1778.6L140.6,1778.6z"/>
			</g>
			<g>
				<path class="st2" d="M476.1,1787.5c0,14.2,0,64.3,50.6,64.3c26.3,0,42.7-13.7,45.4-38.5h92.3c-7.4,66.5-69.6,92.3-138.2,92.3
					c-92.3,0-141.8-46.4-141.8-133.9c0-88.6,43.2-146,140.8-146c73.8,0,108.1,30,126,67.5c11.6,22.7,14.7,48,14.7,94.4H476.1z
					 M572.5,1733.8c-1.1-15.3-4.2-55.4-47.4-55.4s-46.9,42.7-48,55.4H572.5z"/>
			</g>
			<g>
				<path class="st2" d="M692.8,1520.2H794v70.7H692.8V1520.2z M693.9,1635.1H793v264.7h-99.2V1635.1z"/>
			</g>
			<g>
				<path class="st2" d="M933.1,1519.1v144c27.4-34.3,74.3-34.8,83.9-34.8c50.7,0,81.2,26.9,98.1,55.4
					c14.2,24.7,16.9,53.8,16.9,82.3c0,51.7-12.2,80.7-34.3,104.4c-29.6,32.2-63.2,35.3-83.3,35.3c-17.4,0-55.4-1.6-88.1-44.8
					l-3.1,39h-92.8c2.7-30,3.1-64.3,3.1-65.9v-314.8L933.1,1519.1L933.1,1519.1z M980,1846c49.6,0,49.6-63.2,49.6-80.7
					c0-26.9-3.1-79.6-47.4-79.6c-49.1,0-52.2,60.7-52.2,80.1C929.9,1783.3,933.1,1846,980,1846z"/>
			</g>
			<g>
				<path class="st2" d="M1255.8,1635.1v154.5c0,14.7,0,51.7,39.6,51.7c41.6,0,41.6-38,41.6-52.7v-153.4h99.2v218.8
					c1.1,22.7,1.1,25.3,1.6,45.9h-97.5l-2.1-41.1c-26.9,42.7-60.1,45.9-83.3,45.9c-91.7,0-97.5-69.6-97.5-120.2V1635L1255.8,1635.1
					L1255.8,1635.1L1255.8,1635.1z"/>
			</g>
			<g>
				<path class="st2" d="M1632.9,1519.1h107v167.1l121.8-167.1h125l-131.3,167.7l141.8,213h-130.8l-126.6-202.5v202.5h-107
					L1632.9,1519.1L1632.9,1519.1z"/>
			</g>
			<g>
				<path class="st2" d="M2170.4,1899.6c-2-9.5-3.1-21-3.1-37.8c-12.1,18-32.7,43.2-87,43.2c-64.8,0-93.4-35.3-93.4-82.3
					c0-72.3,67-98.6,180.9-93.9c0.5-28.5-3.1-54.8-33.2-54.8c-18.5,0-35.8,10-35.3,40.1h-95c0.5-12.1,0.5-34.8,20.5-55.4
					c20.5-21.1,61.7-33.2,109.7-33.2c23.8,0,74.3,3.1,102.3,30.5c16.9,16.3,23.2,41.1,23.2,69.6v123.3c0,19,0.5,24.3,5.3,50.6
					C2265.3,1899.6,2170.4,1899.6,2170.4,1899.6z M2084.4,1813.9c0,19.5,12.7,35.8,36.4,35.8c10.5,0,29-4.2,39-25.3
					c7.9-16.9,7.9-38.5,7.4-49.6C2125,1775.4,2084.4,1775.9,2084.4,1813.9z"/>
			</g>
			<g>
				<path class="st2" d="M2297,1520.2h101.2v70.7H2297V1520.2z M2298.1,1635.1h99.2v264.7h-99.2V1635.1z"/>
			</g>
			<g>
				<path class="st2" d="M2438.4,1519.1h100.2v145c10.6-10.5,34.8-34.9,82.8-34.9c25.8,0,52.2,6.9,73.8,26.9
					c26.3,23.8,26.3,52.7,26.3,89.7v154h-98.6v-142.4c0-22.2,0-65.4-41.1-65.4c-31.6,0-39,26.3-41.6,36.9c-2.7,12.1-2.7,29-2.7,51.2
					v119.7h-99.2L2438.4,1519.1L2438.4,1519.1z"/>
			</g>
			<g>
				<path class="st2" d="M2927.6,1899.6c-2-9.5-3.1-21-3.1-37.8c-12.1,18-32.7,43.2-87,43.2c-64.8,0-93.3-35.3-93.3-82.3
					c0-72.3,67-98.6,180.9-93.9c0.5-28.5-3.1-54.8-33.2-54.8c-18.5,0-35.8,10-35.4,40.1h-95c0.5-12.1,0.5-34.8,20.5-55.4
					c20.5-21.1,61.7-33.2,109.7-33.2c23.8,0,74.3,3.1,102.3,30.5c16.9,16.3,23.2,41.1,23.2,69.6v123.3c0,19,0.5,24.3,5.3,50.6
					H2927.6z M2841.8,1813.9c0,19.5,12.7,35.8,36.4,35.8c10.5,0,29-4.2,39-25.3c7.9-16.9,7.9-38.5,7.4-49.6
					C2882.4,1775.4,2841.8,1775.9,2841.8,1813.9z"/>
			</g>
			<g>
				<path class="st2" d="M3236.7,1636.2v63.2h-63.8v91.7c0.5,32.7,0.5,47.4,38.5,47.4c7.9,0,12.7,0,24.7-1.6v62.3
					c-13.2,2.2-30.5,4.7-64.3,4.7c-79,0-94.9-26.3-94.9-77.5v-127.1h-50.1v-63.2h51.7V1595l95.4-38v79L3236.7,1636.2L3236.7,1636.2z
					"/>
			</g>
			<g>
				<path class="st2" d="M3340.6,1813.9c0,4.7,0,14.7,4.2,23.8c3.7,8.4,12.1,16.4,29,16.4c22.7,0,30-15.3,30-26.9
					c0-18.5-15.3-23.8-37.4-29.6l-53.8-15.3c-16.4-4.2-64.3-17.4-64.3-71.7c0-26.3,14.2-48.5,31.6-60.1
					c23.2-16.4,54.8-22.7,93.9-22.7c57,0,116.6,15.3,120.8,89.2h-93.9c0-8,0-18-3.7-25.8c-4.2-8.4-11.6-14.2-27.4-14.2
					c-15.3,0-29.6,6.9-29.6,23.2c0,15.3,11.1,21.1,26.9,25.3l70.6,19.5c25.3,6.9,62.3,21.1,62.3,72.8c0,89.7-103.9,89.7-127.1,89.7
					c-53.8,0-131.3-8-130.2-93.3h98.1L3340.6,1813.9L3340.6,1813.9z"/>
			</g>
			<g>
				<path class="st2" d="M3622.4,1635.1v154.5c0,14.7,0,51.7,39.6,51.7c41.6,0,41.6-38,41.6-52.7v-153.4h99.2v218.8
					c1.1,22.7,1.1,25.3,1.6,45.9h-97.5l-2.1-41.1c-26.9,42.7-60.1,45.9-83.3,45.9c-91.7,0-97.5-69.6-97.5-120.2V1635L3622.4,1635.1
					L3622.4,1635.1L3622.4,1635.1z"/>
			</g>
		</g>
		<rect x="34.7" y="675.3" class="st2" width="3769.7" height="636.5"/>
		<rect x="1820.5" y="331.4" class="st2" width="358.1" height="525.3"/>
		<g>
			<g>
				<path class="st3" d="M3195.3,1378.1c-66.2,0-128.3-25.7-175.1-72.6c-46.7-46.7-72.6-109-72.6-175.1V609.2h240.1V1138h296.9
					V609.2h240v769H3195.3z"/>
				<g>
					<path d="M3704,629.8v727.7h-47.3h-151.4h-310c-125.4,0-227-101.6-227-227V629.8H3167v528.9h338.2V629.8H3704 M3745.2,588.5
						H3704h-198.7H3464v41.2v487.6h-255.7V629.8v-41.2h-41.2h-198.7h-41.2v41.2v500.7c0,36.2,7.1,71.3,21.1,104.5
						c13.6,31.9,32.9,60.7,57.4,85.2c24.6,24.6,53.3,44,85.2,57.4c33.1,14,68.2,21.1,104.5,21.1h310h151.4h47.3h41.2v-41.2V629.8
						L3745.2,588.5L3745.2,588.5z"/>
				</g>
			</g>
			<g>
				<path class="st3" d="M114.4,1378.1v-240h522.8c6.8,0,12.3-5.5,12.3-12.3c0-6.8-5.5-12.2-12.3-12.2H366.7
					c-67.4,0-130.7-26.2-178.3-73.8s-73.8-111-73.8-178.3s26.2-130.7,73.8-178.3c47.6-47.6,111-73.8,178.3-73.8h522.8v240H366.7
					c-6.8,0-12.3,5.5-12.3,12.2c0,6.8,5.5,12.3,12.3,12.3h270.5c67.4,0,130.7,26.2,178.3,73.8c47.6,47.6,73.8,111,73.8,178.3
					s-26.2,130.7-73.8,178.3c-47.6,47.6-111,73.8-178.3,73.8L114.4,1378.1L114.4,1378.1z"/>
				<g>
					<path d="M868.7,629.8v198.7H366.7c-18.2,0-32.9,14.7-32.9,32.9s14.7,32.9,32.9,32.9h270.5c127.9,0,231.6,103.7,231.6,231.6
						s-103.7,231.6-231.6,231.6H135v-198.7h502.2c18.2,0,32.9-14.7,32.9-32.9c0-18.2-14.7-32.9-32.9-32.9H366.7
						c-127.9,0-231.6-103.7-231.6-231.6s103.7-231.6,231.6-231.6L868.7,629.8 M910,588.5h-41.2H366.7c-36.8,0-72.6,7.3-106.2,21.5
						c-32.5,13.7-61.7,33.4-86.7,58.4s-44.8,54.2-58.5,86.7c-14.2,33.7-21.5,69.4-21.5,106.2s7.3,72.6,21.5,106.2
						c13.7,32.5,33.4,61.7,58.4,86.7s54.2,44.7,86.7,58.4c3.9,1.7,7.9,3.2,11.8,4.6H135H93.8v41.2v198.7v41.2H135h502.2
						c36.8,0,72.6-7.3,106.2-21.5c32.5-13.7,61.7-33.4,86.7-58.4s44.7-54.2,58.4-86.7c14.2-33.7,21.5-69.4,21.5-106.2
						s-7.3-72.6-21.5-106.2c-13.7-32.5-33.4-61.7-58.4-86.7s-54.2-44.7-86.7-58.4c-3.9-1.7-7.9-3.2-11.8-4.6h137.2h41.2v-41.2V629.8
						L910,588.5L910,588.5z"/>
				</g>
			</g>
			<g>
				<g>
					<rect x="1799.9" y="609.2" class="st4" width="240" height="769"/>
					<path d="M2019.3,629.8v727.7h-198.7V629.8H2019.3 M2060.5,588.5h-41.2h-198.7h-41.2v41.2v727.7v41.2h41.2h198.7h41.2v-41.2
						V629.8V588.5L2060.5,588.5z"/>
				</g>
				<g>
					<rect x="1799.9" y="310.7" class="st4" width="240" height="240"/>
					<path d="M2019.3,331.4v198.7h-198.7V331.4H2019.3 M2060.5,290.1h-41.2h-198.7h-41.2v41.2v198.7v41.2h41.2h198.7h41.2v-41.2
						V331.4V290.1L2060.5,290.1z"/>
				</g>
			</g>
			<g>
				<g>
					<path class="st3" d="M2514.4,1378.1c-53.9,0-107.4-11.1-156.7-32.4v32.4h-240V55.1h240v563.5c49.3-21.2,102.9-32.4,156.7-32.4
						c53.4,0,105.3,10.5,154.1,31.1c47.1,19.9,89.5,48.5,125.8,84.8c36.3,36.3,64.9,78.7,84.8,125.8
						c20.6,48.8,31.1,100.6,31.1,154.1c0,53.4-10.5,105.3-31.1,154.1c-19.9,47.1-48.5,89.5-84.8,125.8
						c-36.3,36.3-78.7,64.9-125.8,84.8C2619.6,1367.6,2567.8,1378.1,2514.4,1378.1z M2514.4,825.5c-86.4,0-156.7,70.3-156.7,156.7
						s70.3,156.7,156.7,156.7c86.4,0,156.7-70.3,156.7-156.7C2671.1,895.8,2600.8,825.5,2514.4,825.5z"/>
				</g>
				<g>
					<path d="M2336.9,75.8v575.7c52.8-28.4,113.2-44.6,177.3-44.6c207.3,0,375.3,168,375.3,375.3s-168,375.3-375.3,375.3
						c-64.2,0-124.5-16.2-177.3-44.6v44.6h-198.7V75.8H2336.9 M2514.4,1159.6c98,0,177.3-79.4,177.3-177.3s-79.4-177.4-177.3-177.4
						c-98,0-177.3,79.4-177.3,177.4S2416.4,1159.6,2514.4,1159.6 M2378.2,34.5h-41.2h-198.7H2097v41.2v1281.7v41.2h41.2h198.7h41.2
						v-22.9c10.9,3.7,21.9,7.1,33,9.9c33.6,8.5,68.2,13,103.2,13c56.2,0,110.8-11,162.1-32.8c49.6-21,94.2-51,132.4-89.3
						s68.2-82.8,89.3-132.4c21.7-51.4,32.8-106,32.8-162.1c0-56.2-11-110.8-32.8-162.1c-21-49.6-51-94.2-89.3-132.4
						c-38.2-38.2-82.8-68.2-132.4-89.3c-51.4-21.7-106-32.8-162.1-32.8c-34.9,0-69.6,4.3-103.2,13c-11.1,2.8-22.1,6.2-33,9.9V75.8
						V34.5L2378.2,34.5z M2514.4,1118.3c-36.3,0-70.5-14.1-96.2-39.9c-25.7-25.7-39.9-59.9-39.9-96.2s14.1-70.5,39.9-96.2
						c25.7-25.7,59.9-39.9,96.2-39.9c36.3,0,70.5,14.1,96.2,39.9c25.7,25.7,39.9,59.9,39.9,96.2s-14.1,70.5-39.9,96.2
						S2550.7,1118.3,2514.4,1118.3L2514.4,1118.3z"/>
				</g>
			</g>
			<g>
				<g>
					<path class="st3" d="M1325.4,1378.1c-53.4,0-105.3-10.5-154.1-31.1c-47.1-19.9-89.5-48.5-125.8-84.8
						c-36.3-36.3-64.9-78.7-84.8-125.8c-20.6-48.8-31.1-100.6-31.1-154.1c0-53.4,10.4-105.4,31-154.2
						c19.9-47.1,48.5-89.5,84.8-125.8c36.3-36.3,78.7-64.9,125.8-84.8c48.8-20.6,100.6-31.1,154.1-31.1s105.3,10.5,154.1,31.1
						c47.1,19.9,89.5,48.5,125.8,84.8c36.3,36.3,64.9,78.7,84.8,125.8c20.6,48.8,31.1,100.6,31.1,154.1c0,39.8-5.9,79-17.6,116.9
						l-4.5,14.5h-458.3c25,16.4,54.2,25.3,84.4,25.3c24,0,47.7-6,70.7-17.7l4.4-2.3h297.4l-13.6,29.3
						c-31.3,67.7-80.9,124.9-143.3,165.7C1477,1355.9,1402.4,1378.1,1325.4,1378.1z M1437.6,873.6c-9.7-10.2-20.8-19-33-26.3
						c-23.9-14.2-51.3-21.8-79.1-21.8s-55.3,7.6-79.1,21.8c-12.1,7.3-23.2,16.1-33,26.3H1437.6z"/>
				</g>
				<g>
					<path d="M1325.4,607c207.3,0,375.3,168,375.3,375.3c0,38.6-5.9,75.8-16.7,110.8h-27.2H1463h-275
						c32.5,40.3,81.7,66.6,137.5,66.6c29,0,56-7.7,80.1-19.9h260.2c-59.6,128.5-189.3,217.8-340.2,217.8
						c-207.3,0-375.3-168-375.3-375.3C950.1,774.9,1118.2,607,1325.4,607 M1172.3,894.2h306.4c-30.6-53.2-87.4-89.5-153.2-89.5
						C1259.6,804.9,1202.9,841.1,1172.3,894.2 M1325.4,565.7c-56.2,0-110.8,11-162.1,32.8c-49.6,21-94.2,51-132.4,89.3
						c-38.2,38.2-68.2,82.8-89.3,132.4c-21.7,51.4-32.8,106-32.8,162.1s11,110.8,32.8,162.1c21,49.6,51,94.2,89.3,132.4
						c38.2,38.2,82.8,68.2,132.4,89.3c51.4,21.7,106,32.8,162.1,32.8c81,0,159.5-23.4,227-67.5c65.6-42.9,117.7-103.2,150.7-174.3
						l10.5-22.8h0.8l1.6-5l14.3-30.8h-4.8c10.9-37.7,16.5-76.7,16.5-116.2c0-56.2-11-110.8-32.8-162.1c-21-49.6-51-94.2-89.3-132.4
						c-38.2-38.2-82.8-68.2-132.4-89.3C1436.2,576.8,1381.6,565.7,1325.4,565.7L1325.4,565.7z M1282.9,853c13.6-4.5,28-6.9,42.5-6.9
						s28.9,2.4,42.5,6.9H1282.9L1282.9,853z"/>
				</g>
			</g>
		</g>
		<g>
			<g>
				<g>
					<defs>
						<path id="SVGID_1_" d="M3505.3,629.8v528.9h-338.2V629.8h-198.7v500.7c0,125.4,101.6,227,227,227h310h151.4h47.3V629.8H3505.3
							z"/>
					</defs>
					<clipPath id="SVGID_00000118355059929873384800000002851861322694576551_">
						<use xlink:href="#SVGID_1_"  style="overflow:visible;"/>
					</clipPath>
					<g style="clip-path:url(#SVGID_00000118355059929873384800000002851861322694576551_);">
						<path class="st6" d="M3469.3,663.9v528.9h-338.2V663.9h-198.7v500.7c0,125.4,101.6,227,227,227h310h151.3h47.3V663.9H3469.3z"
							/>
					</g>
				</g>
			</g>
		</g>
		<g>
			<g>
				<g>
					<defs>
						<path id="SVGID_00000118396126516755670060000003345667809886832319_" d="M135,861.4c0,127.9,103.7,231.6,231.6,231.6h270.5
							c18.2,0,32.9,14.7,32.9,32.9c0,18.2-14.7,32.9-32.9,32.9H135v198.7h502.2c127.9,0,231.6-103.7,231.6-231.6
							S765.1,894.3,637.2,894.3H366.7c-18.2,0-32.9-14.7-32.9-32.9s14.7-32.9,32.9-32.9h502.2V629.8H366.7
							C238.7,629.8,135,733.5,135,861.4z"/>
					</defs>
					<clipPath id="SVGID_00000075135818457406831130000014379795888351512483_">
						<use xlink:href="#SVGID_00000118396126516755670060000003345667809886832319_"  style="overflow:visible;"/>
					</clipPath>
					<g style="clip-path:url(#SVGID_00000075135818457406831130000014379795888351512483_);">
						<path class="st6" d="M99.1,895.5c0,127.9,103.7,231.6,231.6,231.6h270.5c18.2,0,32.9,14.7,32.9,32.9
							c0,18.2-14.7,32.9-32.9,32.9H99.1v198.6h502.2c127.9,0,231.6-103.7,231.6-231.6S729.2,928.3,601.3,928.3H330.7
							c-18.2,0-32.9-14.7-32.9-32.9s14.7-32.9,32.9-32.9h502.2V663.9H330.7C202.8,663.9,99.1,767.5,99.1,895.5z"/>
					</g>
				</g>
			</g>
		</g>
		<g>
			<g>
				<g>
					<defs>
						<path id="SVGID_00000084503790093666406640000007476672337445754253_" d="M2514.4,607c-64.2,0-124.5,16.2-177.3,44.6V75.8
							h-198.7v1281.7H2337v-44.6c52.8,28.4,113.2,44.6,177.3,44.6c207.3,0,375.3-168,375.3-375.3
							C2889.6,774.9,2721.6,607,2514.4,607z"/>
					</defs>
					<clipPath id="SVGID_00000004536766605259374560000007597711962763341501_">
						<use xlink:href="#SVGID_00000084503790093666406640000007476672337445754253_"  style="overflow:visible;"/>
					</clipPath>
					<g style="clip-path:url(#SVGID_00000004536766605259374560000007597711962763341501_);">
						<path class="st6" d="M2478.4,641c-64.2,0-124.5,16.2-177.3,44.6V109.8h-198.7v1281.7h198.7V1347
							c52.8,28.4,113.2,44.6,177.3,44.6c207.3,0,375.3-168,375.3-375.3S2685.7,641,2478.4,641z M2478.4,1193.6
							c-98,0-177.3-79.4-177.3-177.3s79.4-177.4,177.3-177.4c98,0,177.3,79.4,177.3,177.4
							C2655.8,1114.3,2576.4,1193.6,2478.4,1193.6z"/>
					</g>
				</g>
			</g>
		</g>
		<g>
			<g>
				<g>
					<defs>
						<path id="SVGID_00000046338794893621173140000004518559208779031946_" d="M1325.4,607c-207.3,0-375.3,168-375.3,375.3
							s168,375.3,375.3,375.3c150.9,0,280.7-89.4,340.2-217.8h-260.2c-24.2,12.4-51.2,19.9-80.1,19.9c-55.8,0-105-26.3-137.5-66.6
							h275h193.8h27.2c10.8-35.1,16.7-72.2,16.7-110.8C1700.7,774.9,1532.7,607,1325.4,607z"/>
					</defs>
					<clipPath id="SVGID_00000168107423604339062950000003361673898871151762_">
						<use xlink:href="#SVGID_00000046338794893621173140000004518559208779031946_"  style="overflow:visible;"/>
					</clipPath>
					<g style="clip-path:url(#SVGID_00000168107423604339062950000003361673898871151762_);">
						<path class="st6" d="M1289.5,641c-207.3,0-375.3,168-375.3,375.3s168,375.3,375.3,375.3c150.9,0,280.7-89.4,340.2-217.8
							h-260.2c-24.2,12.4-51.2,19.9-80.1,19.9c-55.8,0-105-26.3-137.5-66.6h275.1h193.8h27.2c10.8-35.1,16.7-72.2,16.7-110.8
							C1664.8,809,1496.8,641,1289.5,641z M1136.4,928.3c30.6-53.2,87.4-89.5,153.2-89.5s122.5,36.2,153.2,89.5H1136.4z"/>
					</g>
				</g>
			</g>
		</g>
		<g>
			<g>
				<g>
					<defs>
						<rect id="SVGID_00000030463976545839078910000003808534694612961462_" x="1820.5" y="331.4" width="198.7" height="198.7"/>
					</defs>
					<clipPath id="SVGID_00000053518204758451088530000011347298180611137167_">
						<use xlink:href="#SVGID_00000030463976545839078910000003808534694612961462_"  style="overflow:visible;"/>
					</clipPath>
					<g style="clip-path:url(#SVGID_00000053518204758451088530000011347298180611137167_);">
						<rect x="1784.6" y="365.4" class="st11" width="198.7" height="198.7"/>
					</g>
				</g>
			</g>
		</g>
		<g>
			<g>
				<g>
					<defs>
						<rect id="SVGID_00000107563841133121358680000008578638591687631745_" x="1820.5" y="629.8" width="198.7" height="727.7"/>
					</defs>
					<clipPath id="SVGID_00000072282258828929248350000010475044658706405304_">
						<use xlink:href="#SVGID_00000107563841133121358680000008578638591687631745_"  style="overflow:visible;"/>
					</clipPath>
					<g style="clip-path:url(#SVGID_00000072282258828929248350000010475044658706405304_);">
						<rect x="1784.6" y="663.9" class="st11" width="198.7" height="727.7"/>
					</g>
				</g>
			</g>
		</g>
	</g>
</g>
</svg>
