<?xml version="1.0" encoding="utf-8"?>
<!-- Generator: Adobe Illustrator 26.3.1, SVG Export Plug-In . SVG Version: 6.00 Build 0)  -->
<svg version="1.1" id="Layer_1" xmlns="http://www.w3.org/2000/svg" xmlns:xlink="http://www.w3.org/1999/xlink" x="0px" y="0px"
	 viewBox="0 0 3839 1442.1" style="enable-background:new 0 0 3839 1442.1;" xml:space="preserve">
<style type="text/css">
	.st0{fill:#FFFFFF;}
	.st1{fill:#E65D0D;}
	.st2{fill:#FF2400;}
	.st3{fill:#FFE600;}
	.st4{font-family:'HelveticaNeueLTStd-Md';}
	.st5{font-size:101.9367px;}
	.st6{fill:#000206;}
	.st7{fill:#FFFDF9;}
	.st8{fill:#A1853E;}
	.st9{fill:#76CEFF;}
	.st10{fill:#0076CE;}
</style>
<g>
	<g>
		<path class="st0" d="M1919.5,1427.4c-1.2,0-2.3-0.1-3.5-0.4L319.5,1041.7c-5.1-1.2-9.2-5.1-10.7-10.2L15.4,33.7
			c-1.3-4.5-0.4-9.3,2.3-13c2.8-3.7,7.2-5.9,11.8-5.9h3779.9c4.7,0,9,2.2,11.8,5.9c2.8,3.7,3.7,8.5,2.3,13l-293.4,997.8
			c-1.5,5.1-5.6,9-10.7,10.2L1923,1426.9C1921.8,1427.2,1920.7,1427.4,1919.5,1427.4z M1919.5,1387.3L3487,1009.1
			c3.9-0.9,7-1.7,9.5-2.3l280.1-952.7H62.3l280.1,952.7L1919.5,1387.3z"/>
		<path class="st0" d="M3809.5,29.5L3809.5,29.5 M3809.5,29.5l-3.7,12.5l-288.1,979.9l-1.6,5.4l-5.5,1.3
			c-1.3,0.3-1572.9,379.5-1588.8,383.3l-2.3,0.6l-2.3-0.6L328.4,1028.7l-5.5-1.3l-1.6-5.4L33.2,42.1l-3.7-12.5h13.1h3753.8H3809.5
			 M1919.5,1402.5c0,0,1588.8-383.3,1588.8-383.3l288.1-979.9H42.6l288.1,979.9L1919.5,1402.5 M3809.5,0L3809.5,0h-13.1H42.6H29.5
			C20.2,0,11.5,4.4,5.9,11.8c-5.6,7.5-7.3,17.1-4.7,26l3.7,12.5L293,1030.3l1.6,5.4c3,10.1,11.1,17.9,21.4,20.4l5.5,1.3
			l1588.8,383.3l2.3,0.6c2.3,0.5,4.6,0.8,6.9,0.8c2.3,0,4.6-0.3,6.9-0.8l2.3-0.6l538.1-129.8c460.6-111.1,1049.9-253.3,1050.7-253.5
			l5.5-1.3c10.3-2.5,18.4-10.2,21.4-20.4l1.6-5.4l288.1-979.9l3.5-11.8c0.9-2.9,1.4-5.9,1.4-9.1C3839,13.2,3825.8,0,3809.5,0
			L3809.5,0z M3809.5,59.1L3809.5,59.1L3809.5,59.1L3809.5,59.1z M82.1,68.9h3674.8l-272.2,925.6l-1.2,0.3l-50.4,12.2l-180,43.4
			L2707,1182.1l-787.5,190L354.2,994.5L82.1,68.9L82.1,68.9z"/>
	</g>
	<polygon class="st3" points="3508.3,1019.2 1919.5,1402.5 330.7,1019.2 42.6,39.3 3796.4,39.3 	"/>
	<g>
		<polygon points="1019.6,939.2 863.8,904.1 863.8,520.3 1019.6,520.3 		"/>
		<rect x="1841.6" y="592.4" width="155.8" height="547.3"/>
		<path d="M2920.1,386.3c-157.1,0-289,127.4-294.5,284.5c-5.5,157.1,117.4,284.5,274.6,284.5s289-127.4,294.5-284.5
			C3200.2,513.7,3077.2,386.3,2920.1,386.3z M2905.4,808.1c-75.8,0-135.1-61.5-132.5-137.3c2.6-75.8,66.2-137.3,142.1-137.3
			c75.8,0,135.1,61.5,132.5,137.3C3044.8,746.6,2981.2,808.1,2905.4,808.1z"/>
		<g>
			<polygon points="2439.9,1024.8 2284.1,1060 2284.1,567.5 2439.9,567.5 			"/>
			<polygon points="2573.6,633.5 2105.3,728.5 2105.3,585.5 2573.6,494.6 			"/>
		</g>
		<g>
			<polygon points="704,519.7 1189.4,618.1 1189.4,479.9 704,385.7 			"/>
		</g>
		<polygon points="1590,982.8 1321.7,923.7 1342.7,788.8 1585.9,840.2 		"/>
		<polygon points="1381.7,517.2 1198.6,979.6 1341.6,1011.9 1526.4,545.3 		"/>
		<polygon points="1584.9,556.6 1420.8,524.8 1562,1061.6 1727.6,1098.9 		"/>
		<g>
			<path d="M1919.5,462.5L167,139.2l242.4,807l1510.1,355.1l1510.1-355.1l242.4-807L1919.5,462.5z M3385,903.9l-1465.5,339.5
				L454,903.9l-212.5-699l1678,315.4l1678-315.4h0L3385,903.9z"/>
			<path d="M1919.5,375.7L42.6,39.3l288.1,979.9l1588.8,383.3c0,0,1588.8-383.3,1588.8-383.3l288.1-979.9L1919.5,375.7z M3452,967.1
				l-1532.5,363.1L387,967.1L130.1,106.6l1789.4,327l1789.4-327L3452,967.1z"/>
		</g>
		<polygon points="3708.9,106.6 130.1,106.6 42.6,39.3 3796.4,39.3 		"/>
		<text transform="matrix(1 0 0 1 1559.4089 243.2863)" class="st4 st5">MADE IN U.S.A.</text>
	</g>
</g>
</svg>
