<?xml version="1.0" encoding="utf-8"?>
<!-- Generator: Adobe Illustrator 25.0.0, SVG Export Plug-In . SVG Version: 6.00 Build 0)  -->
<svg version="1.1" id="Layer_1" xmlns="http://www.w3.org/2000/svg" xmlns:xlink="http://www.w3.org/1999/xlink" x="0px" y="0px"
	 viewBox="0 0 3840 1167.2" style="enable-background:new 0 0 3840 1167.2;" xml:space="preserve">
<style type="text/css">
	.st0{fill:url(#SVGID_1_);}
	.st1{fill:#FF4864;}
	.st2{fill:#28B872;}
	.st3{fill:#3EA9EF;}
	.st4{fill:#C0214E;}
	.st5{fill:url(#SVGID_2_);}
	.st6{fill:#FFFFFF;}
	.st7{fill:url(#SVGID_3_);}
</style>
<g>
	<g>
		<g>
			<path class="st6" d="M3005.1,568.3V260.8c0-44.9,23.1-68.6,65.4-68.6h185.2V305h-46.8v-68.6H3082c-19.2,0-26.9,12.2-26.9,36.5
				v283.2c0,24.4,7.7,36.5,26.9,36.5h126.9v-73.1h46.8v117.3h-185.2C3028.2,636.9,3005.1,613.2,3005.1,568.3z"/>
			<path class="st6" d="M3281.9,592.7h39.1V236.4h-39.1v-44.2H3494c42.3,0,65.4,23.7,65.4,68.6v101.9c0,44.9-23.1,68.6-65.4,68.6
				h-123v161.5h40.4v44.2h-129.4V592.7z M3482.5,387c19.2,0,26.9-12.2,26.9-36.5v-77.5c0-24.4-7.7-36.5-26.9-36.5H3371V387H3482.5z"
				/>
			<path class="st6" d="M3589.5,568.3V260.8c0-44.9,23.1-68.6,65.4-68.6H3840V305h-46.8v-68.6h-126.9c-19.2,0-26.9,12.2-26.9,36.5
				v283.2c0,24.4,7.7,36.5,26.9,36.5h126.9v-73.1h46.8v117.3h-185.2C3612.5,636.9,3589.5,613.2,3589.5,568.3z"/>
		</g>
		<g>
			<rect x="3005.1" y="681.1" class="st6" width="834.9" height="296.2"/>
			<g>
				<g>
					<path class="st1" d="M3285.7,811.9v-71.6h-155.1c-36.7,0-66.5,29.8-66.5,66.5v5.2H3285.7z"/>
					<path class="st1" d="M3064.2,846.6v5.2c0,36.7,29.8,66.5,66.5,66.5h155.1v-71.6H3064.2z"/>
				</g>
			</g>
			<g>
				<rect x="3320.5" y="740.2" class="st2" width="204.2" height="71.6"/>
				<rect x="3320.5" y="846.6" class="st2" width="204.2" height="71.6"/>
			</g>
			<g>
				<path class="st3" d="M3780.9,811.9v-5.2c0-36.7-29.8-66.5-66.5-66.5h-155.1v71.6H3780.9z"/>
				<path class="st3" d="M3559.4,846.6v71.6h155.1c36.7,0,66.5-29.8,66.5-66.5v-5.2H3559.4z"/>
			</g>
		</g>
	</g>
	<g>
		<g>
			<polygon class="st4" points="1848.2,0 1270.2,1167.2 1909.5,1167.2 2470.3,0 			"/>
		</g>
		<g>
			<path class="st6" d="M400.2,977.3H243.7l-13-155.4h-63.6l-11.8,155.4H0l98.9-785.1h203.6L400.2,977.3z M198.9,387.6l-22.4,304.9
				h44.7L198.9,387.6z"/>
			<path class="st6" d="M927.5,977.3H778V532.4l-58.9,444.9h-96.5L560.2,530v447.3H410.7V192.2h218.9l38.8,347.2l41.2-347.2h217.8
				V977.3z"/>
			<path class="st6" d="M1172.2,461.8v-93c0-24.7-1.2-33-3.5-38.8c-4.7-8.2-11.8-14.1-20-14.1c-8.2,0-17.7,5.9-21.2,14.1
				c-2.4,7.1-3.5,13-3.5,38.8v57.7c0,25.9,7.1,35.3,37.7,51.8l70.6,38.8c93,51.8,105.9,73,105.9,178.9v126
				c0,68.3-4.7,90.6-23.5,115.3c-25.9,35.3-54.1,42.4-176.6,42.4c-97.7,0-124.8-5.9-150.7-35.3c-15.3-16.5-22.4-35.3-25.9-64.7
				c-2.4-15.3-2.4-33-2.4-85.9V652.4H1124v131.8v20c0,31.8,7.1,44.7,24.7,44.7c15.3,0,23.5-13,23.5-35.3v-20v-87.1l-1.2-16.5
				c-1.2-29.4-4.7-35.3-33-50.6c-10.6-5.9-18.8-9.4-20-10.6l-69.5-38.8c-76.5-43.6-89.5-68.3-89.5-166v-91.8
				c0-64.7,7.1-93,31.8-115.4c25.9-23.5,56.5-29.4,170.7-29.4c100.1,0,127.1,7.1,151.8,40c20,25.9,24.7,50.6,24.7,123.6v110.7
				H1172.2z"/>
			<path class="st6" d="M1598,977.3h-166v-658h-83.6V192.2h330.8v127.1H1598V977.3z"/>
			<path class="st6" d="M1866.1,192.2l58.9,1.2c115.3,2.3,143.6,33,143.6,151.8v82.4c0,109.5-16.5,147.1-74.2,162.4
				c28.2,9.4,44.7,22.4,56.5,43.6c15.3,27.1,17.7,48.3,17.7,140.1v203.6h-164.8V741.9c0-77.7,0-76.5-41.2-77.7c-2.3,0-3.5,0-7.1,0
				v313.1h-166V192.2H1866.1z M1867.3,520.6c31.8,0,36.5-7.1,36.5-57.7v-84.8l-1.2-21.2c0-28.2-7.1-36.5-29.4-36.5h-10.6h-7.1v200.1
				C1861.4,520.6,1864.9,520.6,1867.3,520.6z"/>
			<path class="st6" d="M2473.4,977.3h-156.6l-13-155.4h-63.6l-11.8,155.4h-155.4l98.9-785.1h203.6L2473.4,977.3z M2272.1,387.6
				l-22.4,304.9h44.7L2272.1,387.6z"/>
			<path class="st6" d="M2645.2,192.2c142.4,0,162.4,3.5,189.5,35.3c24.7,28.3,30.6,58.9,30.6,167.1v387.3
				c0,96.5-3.5,122.4-22.4,150.7c-22.4,33-55.3,43.6-136.5,43.6l-83.6,1.2h-138.9V192.2H2645.2z M2665.2,849
				c25.9,0,31.8-8.2,31.8-41.2c0-4.7,0-8.2,0-16.5c0-13,0-27.1,0-38.8V384.1v-20c0-35.3-5.9-43.6-31.8-43.6c-3.5,0-9.4,1.2-15.3,1.2
				V849C2655.8,849,2661.7,849,2665.2,849z"/>
		</g>
	</g>
</g>
</svg>
