<?xml version="1.0" encoding="utf-8"?>
<!-- Generator: Adobe Illustrator 25.0.0, SVG Export Plug-In . SVG Version: 6.00 Build 0)  -->
<svg version="1.1" id="Layer_1" xmlns="http://www.w3.org/2000/svg" xmlns:xlink="http://www.w3.org/1999/xlink" x="0px" y="0px"
	 viewBox="0 0 3840 1070.2" style="enable-background:new 0 0 3840 1070.2;" xml:space="preserve">
<style type="text/css">
	.st0{fill:url(#SVGID_1_);}
	.st1{fill:#FF4864;}
	.st2{fill:#28B872;}
	.st3{fill:#3EA9EF;}
	.st4{fill:#C0214E;}
	.st5{fill:url(#SVGID_2_);}
	.st6{fill:#FFFFFF;}
	.st7{fill:url(#SVGID_3_);}
</style>
<g>
	<g>
		<g>
			<path class="st6" d="M2721.8,411.4V219.1c0-28,14.4-42.9,40.9-42.9h115.8v70.5h-29.2v-42.9h-79.3c-12,0-16.8,7.6-16.8,22.8v177.1
				c0,15.2,4.8,22.8,16.8,22.8h79.3V381h29.2v73.3h-115.8C2736.3,454.3,2721.8,439.5,2721.8,411.4z"/>
			<path class="st6" d="M2894.9,426.6h24.4V203.9h-24.4v-27.6h132.6c26.4,0,40.9,14.8,40.9,42.9v63.7c0,28-14.4,42.9-40.9,42.9
				h-76.9v101h25.2v27.6h-80.9V426.6z M3020.3,298c12,0,16.8-7.6,16.8-22.8v-48.5c0-15.2-4.8-22.8-16.8-22.8h-69.7V298H3020.3z"/>
			<path class="st6" d="M3087.2,411.4V219.1c0-28,14.4-42.9,40.9-42.9h115.8v70.5h-29.2v-42.9h-79.3c-12,0-16.8,7.6-16.8,22.8v177.1
				c0,15.2,4.8,22.8,16.8,22.8h79.3V381h29.2v73.3h-115.8C3101.6,454.3,3087.2,439.5,3087.2,411.4z"/>
			<path class="st6" d="M3440.2,381.8h-103.4v-30.9L3437,176.2h32.5v176.7h27.6v28.8h-27.6v72.5h-29.2V381.8z M3440.2,352.9V219.1
				L3364,352.9H3440.2z"/>
			<path class="st6" d="M3665.3,226.7v22.4h-30.9v-25.2c0-14.8-6.4-22.8-16.4-22.8H3560c-10,0-16.8,8-16.8,22.8v78.9
				c6.4-7.6,14-11.2,22-11.2h56.5c29.2,0,48.1,19.2,48.1,50.5v61.7c0,31.3-18.8,50.5-48.1,50.5h-60.9c-29.2,0-48.1-19.2-48.1-50.5
				V226.7c0-31.3,18.8-50.5,48.1-50.5h56.1C3646.1,176.2,3665.3,195.5,3665.3,226.7z M3639.3,339.3c0-15.2-4.8-22.8-16.8-22.8H3560
				c-12,0-16.8,7.6-16.8,22.8v67.3c0,15.2,4.8,22.8,16.8,22.8h62.5c12,0,16.8-7.6,16.8-22.8V339.3z"/>
			<path class="st6" d="M3783.1,381.8h-103.4v-30.9l100.2-174.7h32.5v176.7h27.6v28.8h-27.6v72.5h-29.2V381.8z M3783.1,352.9V219.1
				L3707,352.9H3783.1z"/>
		</g>
		<g>
			<rect x="2721.8" y="499.4" class="st6" width="1118.2" height="396.7"/>
			<g>
				<g>
					<path class="st1" d="M3097.7,674.5v-95.9H2890c-49.2,0-89,39.8-89,89v6.9H3097.7z"/>
					<path class="st1" d="M2801,721v6.9c0,49.2,39.9,89,89,89h207.7V721H2801z"/>
				</g>
			</g>
			<g>
				<rect x="3144.2" y="578.6" class="st2" width="273.4" height="95.9"/>
				<rect x="3144.2" y="721" class="st2" width="273.4" height="95.9"/>
			</g>
			<g>
				<path class="st3" d="M3760.8,674.5v-6.9c0-49.2-39.9-89-89-89h-207.7v95.9H3760.8z"/>
				<path class="st3" d="M3464.1,721v95.9h207.7c49.2,0,89-39.9,89-89V721H3464.1z"/>
			</g>
		</g>
	</g>
	<g>
		<g>
			<polygon class="st4" points="1694.6,0 1164.7,1070.2 1750.8,1070.2 2265,0 			"/>
		</g>
		<g>
			<path class="st6" d="M367,896.1H223.4l-11.9-142.5h-58.3l-10.8,142.5H0l90.7-719.9h186.7L367,896.1z M182.4,355.4l-20.5,279.5h41
				L182.4,355.4z"/>
			<path class="st6" d="M850.4,896.1H713.3v-408l-54,408h-88.5L513.7,486v410.1H376.6V176.2h200.7L613,494.6l37.8-318.4h199.7V896.1
				z"/>
			<path class="st6" d="M1074.8,423.4v-85.3c0-22.7-1.1-30.2-3.2-35.6c-4.3-7.6-10.8-12.9-18.3-12.9c-7.6,0-16.2,5.4-19.4,12.9
				c-2.2,6.5-3.2,11.9-3.2,35.6V391c0,23.8,6.5,32.4,34.5,47.5l64.8,35.6c85.3,47.5,97.1,66.9,97.1,164v115.5
				c0,62.6-4.3,83.1-21.6,105.8c-23.7,32.4-49.6,38.9-161.9,38.9c-89.6,0-114.4-5.4-138.1-32.4c-14-15.1-20.5-32.4-23.7-59.4
				c-2.2-14-2.2-30.2-2.2-78.8V598.2h151.1v120.9v18.3c0,29.1,6.5,41,22.7,41c14,0,21.6-11.9,21.6-32.4v-18.3v-79.9l-1.1-15.1
				c-1.1-27-4.3-32.4-30.2-46.4c-9.7-5.4-17.3-8.6-18.3-9.7L961.5,541c-70.1-39.9-82-62.6-82-152.2v-84.2
				c0-59.4,6.5-85.3,29.1-105.8c23.7-21.6,51.8-27,156.5-27c91.7,0,116.6,6.5,139.2,36.7c18.4,23.8,22.7,46.4,22.7,113.3v101.5
				H1074.8z"/>
			<path class="st6" d="M1465.2,896.1H1313V292.8h-76.6V176.2h303.3v116.6h-74.5V896.1z"/>
			<path class="st6" d="M1711,176.2l54,1.1c105.8,2.2,131.7,30.2,131.7,139.2v75.6c0,100.4-15.1,134.9-68,148.9
				c25.9,8.6,41,20.5,51.8,39.9c14,24.8,16.2,44.2,16.2,128.4v186.7h-151.1V680.2c0-71.2,0-70.2-37.8-71.2c-2.2,0-3.2,0-6.5,0v287.1
				h-152.2V176.2H1711z M1712.1,477.3c29.1,0,33.5-6.5,33.5-52.9v-77.7l-1.1-19.4c0-25.9-6.5-33.5-27-33.5h-9.7h-6.5v183.5
				C1706.7,477.3,1709.9,477.3,1712.1,477.3z"/>
			<path class="st6" d="M2267.8,896.1h-143.5l-11.9-142.5h-58.3l-10.8,142.5h-142.5l90.7-719.9h186.7L2267.8,896.1z M2083.3,355.4
				l-20.5,279.5h41L2083.3,355.4z"/>
			<path class="st6" d="M2425.4,176.2c130.6,0,148.9,3.2,173.8,32.4c22.7,25.9,28.1,54,28.1,153.3v355.1
				c0,88.5-3.2,112.2-20.5,138.1c-20.5,30.2-50.7,39.9-125.2,39.9l-76.6,1.1h-127.4V176.2H2425.4z M2443.7,778.5
				c23.7,0,29.1-7.6,29.1-37.8c0-4.3,0-7.6,0-15.1c0-11.9,0-24.8,0-35.6V352.1v-18.3c0-32.4-5.4-39.9-29.1-39.9
				c-3.2,0-8.6,1.1-14,1.1v483.5C2435.1,778.5,2440.5,778.5,2443.7,778.5z"/>
		</g>
	</g>
</g>
</svg>
