<?xml version="1.0" encoding="utf-8"?>
<!-- Generator: Adobe Illustrator 27.0.1, SVG Export Plug-In . SVG Version: 6.00 Build 0)  -->
<svg version="1.1" id="Layer_1" xmlns="http://www.w3.org/2000/svg" xmlns:xlink="http://www.w3.org/1999/xlink" x="0px" y="0px"
	 viewBox="0 0 3839 1043.01" style="enable-background:new 0 0 3839 1043.01;" xml:space="preserve">
<style type="text/css">
	.st0{fill:#FFFFFF;}
	.st1{fill:#62B647;}
	.st2{clip-path:url(#SVGID_00000015340740070422111540000014986098936658527130_);fill:#0D97D3;}
	.st3{clip-path:url(#SVGID_00000161600761464540319900000006852907161470393988_);fill:#924092;}
	.st4{clip-path:url(#SVGID_00000163782614897419897130000004886054610253272967_);fill:#E11F32;}
	.st5{clip-path:url(#SVGID_00000028313887396643375960000012588052934760878777_);fill:#F08020;}
	.st6{clip-path:url(#SVGID_00000016074972161538914170000014119869674988664234_);fill:#F2BC1A;}
	.st7{clip-path:url(#SVGID_00000148636832438691161100000002105552423443107216_);fill:#62B647;}
	.st8{clip-path:url(#SVGID_00000109001155238757290930000003441483193297410436_);fill:#0D97D3;}
	.st9{clip-path:url(#SVGID_00000125589580034573762790000007398550020558354104_);fill:#924092;}
	.st10{clip-path:url(#SVGID_00000160888800063585944990000009951792595936555137_);fill:#E11F32;}
	.st11{clip-path:url(#SVGID_00000168811787996365185510000000922154982848673703_);fill:#F08020;}
	.st12{clip-path:url(#SVGID_00000042729109796202409270000015631746408631424943_);fill:#F2BC1A;}
	.st13{clip-path:url(#SVGID_00000060729473820271790320000018219575222889286018_);fill:#62B647;}
	.st14{clip-path:url(#SVGID_00000075161428609119421480000016660580787497731219_);fill:#0D97D3;}
	.st15{clip-path:url(#SVGID_00000140729525692467787060000011985498947009897093_);fill:#924092;}
	.st16{clip-path:url(#SVGID_00000000928999897049350690000003064092351677960112_);fill:#E11F32;}
	.st17{clip-path:url(#SVGID_00000069390397463267426510000014652399443903429772_);fill:#F08020;}
	.st18{clip-path:url(#SVGID_00000048503756853432002490000013000604093145997486_);fill:#F2BC1A;}
	.st19{clip-path:url(#SVGID_00000018224907003240869540000008748086175627017620_);fill:#62B647;}
	.st20{clip-path:url(#SVGID_00000056428911164212049710000001253482587804780170_);fill:#0D97D3;}
	.st21{clip-path:url(#SVGID_00000000929867669827744520000000352958376793641138_);fill:#924092;}
	.st22{clip-path:url(#SVGID_00000024716247865330300320000016281680415263781263_);fill:#E11F32;}
	.st23{clip-path:url(#SVGID_00000176025091033283292280000014371158706287106221_);fill:#F08020;}
	.st24{clip-path:url(#SVGID_00000097483585939008783310000005909589483960576136_);fill:#F2BC1A;}
	.st25{clip-path:url(#SVGID_00000093138520368539836290000018298699645732537021_);fill:#62B647;}
	.st26{clip-path:url(#SVGID_00000009557874708969989740000009613949538100848774_);fill:#0D97D3;}
	.st27{clip-path:url(#SVGID_00000057840038993408177900000009870853701428041908_);fill:#924092;}
	.st28{clip-path:url(#SVGID_00000127739888843048114010000011575709980624941727_);fill:#E11F32;}
	.st29{clip-path:url(#SVGID_00000059269885270147087230000005498326778843006127_);fill:#F08020;}
	.st30{clip-path:url(#SVGID_00000046305031843447702050000014348061304350177426_);fill:#F2BC1A;}
	.st31{clip-path:url(#SVGID_00000158709746893577069890000007011377376215940503_);fill:#62B647;}
	.st32{clip-path:url(#SVGID_00000083805105184260110290000010655557500351534484_);fill:#0D97D3;}
	.st33{clip-path:url(#SVGID_00000052087253049481143710000012037734581446025647_);fill:#924092;}
	.st34{clip-path:url(#SVGID_00000071555793083850073000000016533655958424064411_);fill:#E11F32;}
	.st35{clip-path:url(#SVGID_00000013914169328857522560000003765995310990705598_);fill:#F08020;}
	.st36{clip-path:url(#SVGID_00000006703489728702890490000017567373618630771111_);fill:#F2BC1A;}
	.st37{clip-path:url(#SVGID_00000157279304741247936270000017493637332440100014_);fill:#62B647;}
</style>
<g>
	<path class="st0" d="M3722.56,1043.01h-804.14c-64.31,0-116.44-52.13-116.44-116.44V116.44C2801.97,52.13,2854.11,0,2918.42,0
		h804.14C3786.87,0,3839,52.13,3839,116.44v810.12C3839,990.87,3786.87,1043.01,3722.56,1043.01z"/>
	<path class="st0" d="M2550.97,1043.01H116.44C52.13,1043.01,0,990.87,0,926.56V116.44C0,52.13,52.13,0,116.44,0h2434.53
		c64.31,0,116.44,52.13,116.44,116.44v810.12C2667.42,990.87,2615.28,1043.01,2550.97,1043.01z"/>
	<g>
		<path class="st1" d="M694.26,214.72c11.42-14.97,20.13-31.13,25.59-48.89c5.92-19.47,7.37-37.98,4.33-56.22
			c-16.5,1.56-33.69,7.17-51.62,17.1s-32.12,21.97-43.64,36.04c-11.52,14.07-19.72,29.75-25.69,46.69
			c-6.76,20.03-8.63,38.03-5.23,55.42c17.92,0.53,35.61-4.13,53.93-14.14C668.59,241.74,682.85,229.7,694.26,214.72z"/>
		<path class="st0" d="M497.21,776.14c9.3-0.47,19.09-2.3,28.4-5c4.62-1.35,12.54-4.52,24.67-9.59c10.2-4.12,18.61-7.29,26.05-9.12
			c10.68-2.7,21.85-4.12,33.5-4.12s22.81,1.35,33.5,4.12c6.48,1.82,15.37,5,26.05,9.59c10.68,4.52,19.09,7.29,24.67,9.12
			c9.79,2.7,19.51,4.12,29.77,3.65c14.89,0,28.81-4.12,41.84-12.29c11.17-7.29,22.33-17.29,33.98-31
			c7.44-8.64,17.23-21.88,29.77-39.64c13.51-20.06,25.57-41.46,35.84-65.17c3.72-8.64,7.93-19.11,11.65-31
			c-7.44-2.7-15.37-6.82-24.19-12.76c-18.13-11.82-33.01-26.4-44.18-43.29c-15.78-23.23-23.71-50.11-24.19-80.7
			c0-25.05,6.07-49.23,18.61-71.11c8.82-15.46,20.95-29.65,35.36-42.41c6.48-5.94,13.51-10.94,20.95-15.46
			c-17.64-25.53-41.42-43.76-70.72-55.17c-16.75-6.35-35.36-10.47-55.83-11.82c-10.68-0.88-21.85-0.47-33.01,1.35
			c-9.3,1.35-19.51,4.12-30.26,7.29c-6.96,2.7-15.78,5.94-26.95,9.99c-11.17,4.52-19.09,7.29-23.23,8.64
			c-7.44,2.3-13.92,3.65-18.61,3.65c-6.07,0-13.92-1.35-23.23-4.52c-2.76-0.88-11.65-4.52-27.43-10.47
			c-12.06-4.52-22.33-8.17-30.67-10.47c-11.65-2.7-22.33-4.12-32.53-4.12c-29.29,0.47-56.31,8.17-81.88,23.7
			c-25.57,15.06-45.56,35.52-60.45,61.52c-19.09,32.35-28.81,71.11-28.81,115.27c0,39.64,6.96,80.23,21.37,122.57
			c13.03,38.76,30.26,72.93,51.14,102.51c12.06,17.76,22.33,31.47,30.67,40.99c12.06,14.59,24.19,25.05,35.84,32.35
			C468.4,772.02,482.33,776.14,497.21,776.14z"/>
		<g>
			<g>
				<defs>
					<path id="SVGID_1_" d="M497.21,776.14c9.3-0.47,19.09-2.3,28.4-5c4.62-1.35,12.54-4.52,24.67-9.59
						c10.2-4.12,18.61-7.29,26.05-9.12c10.68-2.7,21.85-4.12,33.5-4.12s22.81,1.35,33.5,4.12c6.48,1.82,15.37,5,26.05,9.59
						c10.68,4.52,19.09,7.29,24.67,9.12c9.79,2.7,19.51,4.12,29.77,3.65c14.89,0,28.81-4.12,41.84-12.29
						c11.17-7.29,22.33-17.29,33.98-31c7.44-8.64,17.23-21.88,29.77-39.64c13.51-20.06,25.57-41.46,35.84-65.17
						c3.72-8.64,7.93-19.11,11.65-31c-7.44-2.7-15.37-6.82-24.19-12.76c-18.13-11.82-33.01-26.4-44.18-43.29
						c-15.78-23.23-23.71-50.11-24.19-80.7c0-25.05,6.07-49.23,18.61-71.11c8.82-15.46,20.95-29.65,35.36-42.41
						c6.48-5.94,13.51-10.94,20.95-15.46c-17.64-25.53-41.42-43.76-70.72-55.17c-16.75-6.35-35.36-10.47-55.83-11.82
						c-10.68-0.88-21.85-0.47-33.01,1.35c-9.3,1.35-19.51,4.12-30.26,7.29c-6.96,2.7-15.78,5.94-26.95,9.99
						c-11.17,4.52-19.09,7.29-23.23,8.64c-7.44,2.3-13.92,3.65-18.61,3.65c-6.07,0-13.92-1.35-23.23-4.52
						c-2.76-0.88-11.65-4.52-27.43-10.47c-12.06-4.52-22.33-8.17-30.67-10.47c-11.65-2.7-22.33-4.12-32.53-4.12
						c-29.29,0.47-56.31,8.17-81.88,23.7c-25.57,15.06-45.56,35.52-60.45,61.52c-19.09,32.35-28.81,71.11-28.81,115.27
						c0,39.64,6.96,80.23,21.37,122.57c13.03,38.76,30.26,72.93,51.14,102.51c12.06,17.76,22.33,31.47,30.67,40.99
						c12.06,14.59,24.19,25.05,35.84,32.35C468.4,772.02,482.33,776.14,497.21,776.14z"/>
				</defs>
				<clipPath id="SVGID_00000060729287884363113290000013796267672403063722_">
					<use xlink:href="#SVGID_1_"  style="overflow:visible;"/>
				</clipPath>
				
					<rect x="265.08" y="691.39" style="clip-path:url(#SVGID_00000060729287884363113290000013796267672403063722_);fill:#0D97D3;" width="661.94" height="84.75"/>
			</g>
		</g>
		<g>
			<g>
				<defs>
					<path id="SVGID_00000040542528509663986280000010203577347610896006_" d="M497.21,776.14c9.3-0.47,19.09-2.3,28.4-5
						c4.62-1.35,12.54-4.52,24.67-9.59c10.2-4.12,18.61-7.29,26.05-9.12c10.68-2.7,21.85-4.12,33.5-4.12s22.81,1.35,33.5,4.12
						c6.48,1.82,15.37,5,26.05,9.59c10.68,4.52,19.09,7.29,24.67,9.12c9.79,2.7,19.51,4.12,29.77,3.65
						c14.89,0,28.81-4.12,41.84-12.29c11.17-7.29,22.33-17.29,33.98-31c7.44-8.64,17.23-21.88,29.77-39.64
						c13.51-20.06,25.57-41.46,35.84-65.17c3.72-8.64,7.93-19.11,11.65-31c-7.44-2.7-15.37-6.82-24.19-12.76
						c-18.13-11.82-33.01-26.4-44.18-43.29c-15.78-23.23-23.71-50.11-24.19-80.7c0-25.05,6.07-49.23,18.61-71.11
						c8.82-15.46,20.95-29.65,35.36-42.41c6.48-5.94,13.51-10.94,20.95-15.46c-17.64-25.53-41.42-43.76-70.72-55.17
						c-16.75-6.35-35.36-10.47-55.83-11.82c-10.68-0.88-21.85-0.47-33.01,1.35c-9.3,1.35-19.51,4.12-30.26,7.29
						c-6.96,2.7-15.78,5.94-26.95,9.99c-11.17,4.52-19.09,7.29-23.23,8.64c-7.44,2.3-13.92,3.65-18.61,3.65
						c-6.07,0-13.92-1.35-23.23-4.52c-2.76-0.88-11.65-4.52-27.43-10.47c-12.06-4.52-22.33-8.17-30.67-10.47
						c-11.65-2.7-22.33-4.12-32.53-4.12c-29.29,0.47-56.31,8.17-81.88,23.7c-25.57,15.06-45.56,35.52-60.45,61.52
						c-19.09,32.35-28.81,71.11-28.81,115.27c0,39.64,6.96,80.23,21.37,122.57c13.03,38.76,30.26,72.93,51.14,102.51
						c12.06,17.76,22.33,31.47,30.67,40.99c12.06,14.59,24.19,25.05,35.84,32.35C468.4,772.02,482.33,776.14,497.21,776.14z"/>
				</defs>
				<clipPath id="SVGID_00000083799130514306979540000016131340004044148909_">
					<use xlink:href="#SVGID_00000040542528509663986280000010203577347610896006_"  style="overflow:visible;"/>
				</clipPath>
				
					<rect x="265.08" y="606.58" style="clip-path:url(#SVGID_00000083799130514306979540000016131340004044148909_);fill:#924092;" width="661.94" height="84.75"/>
			</g>
		</g>
		<g>
			<g>
				<defs>
					<path id="SVGID_00000005983406816041348460000015863638500804740796_" d="M497.21,776.14c9.3-0.47,19.09-2.3,28.4-5
						c4.62-1.35,12.54-4.52,24.67-9.59c10.2-4.12,18.61-7.29,26.05-9.12c10.68-2.7,21.85-4.12,33.5-4.12s22.81,1.35,33.5,4.12
						c6.48,1.82,15.37,5,26.05,9.59c10.68,4.52,19.09,7.29,24.67,9.12c9.79,2.7,19.51,4.12,29.77,3.65
						c14.89,0,28.81-4.12,41.84-12.29c11.17-7.29,22.33-17.29,33.98-31c7.44-8.64,17.23-21.88,29.77-39.64
						c13.51-20.06,25.57-41.46,35.84-65.17c3.72-8.64,7.93-19.11,11.65-31c-7.44-2.7-15.37-6.82-24.19-12.76
						c-18.13-11.82-33.01-26.4-44.18-43.29c-15.78-23.23-23.71-50.11-24.19-80.7c0-25.05,6.07-49.23,18.61-71.11
						c8.82-15.46,20.95-29.65,35.36-42.41c6.48-5.94,13.51-10.94,20.95-15.46c-17.64-25.53-41.42-43.76-70.72-55.17
						c-16.75-6.35-35.36-10.47-55.83-11.82c-10.68-0.88-21.85-0.47-33.01,1.35c-9.3,1.35-19.51,4.12-30.26,7.29
						c-6.96,2.7-15.78,5.94-26.95,9.99c-11.17,4.52-19.09,7.29-23.23,8.64c-7.44,2.3-13.92,3.65-18.61,3.65
						c-6.07,0-13.92-1.35-23.23-4.52c-2.76-0.88-11.65-4.52-27.43-10.47c-12.06-4.52-22.33-8.17-30.67-10.47
						c-11.65-2.7-22.33-4.12-32.53-4.12c-29.29,0.47-56.31,8.17-81.88,23.7c-25.57,15.06-45.56,35.52-60.45,61.52
						c-19.09,32.35-28.81,71.11-28.81,115.27c0,39.64,6.96,80.23,21.37,122.57c13.03,38.76,30.26,72.93,51.14,102.51
						c12.06,17.76,22.33,31.47,30.67,40.99c12.06,14.59,24.19,25.05,35.84,32.35C468.4,772.02,482.33,776.14,497.21,776.14z"/>
				</defs>
				<clipPath id="SVGID_00000016792437883543693890000005789918912151057296_">
					<use xlink:href="#SVGID_00000005983406816041348460000015863638500804740796_"  style="overflow:visible;"/>
				</clipPath>
				
					<rect x="265.08" y="521.83" style="clip-path:url(#SVGID_00000016792437883543693890000005789918912151057296_);fill:#E11F32;" width="661.94" height="84.75"/>
			</g>
		</g>
		<g>
			<g>
				<defs>
					<path id="SVGID_00000083065021279924187730000008136990571361331874_" d="M497.21,776.14c9.3-0.47,19.09-2.3,28.4-5
						c4.62-1.35,12.54-4.52,24.67-9.59c10.2-4.12,18.61-7.29,26.05-9.12c10.68-2.7,21.85-4.12,33.5-4.12s22.81,1.35,33.5,4.12
						c6.48,1.82,15.37,5,26.05,9.59c10.68,4.52,19.09,7.29,24.67,9.12c9.79,2.7,19.51,4.12,29.77,3.65
						c14.89,0,28.81-4.12,41.84-12.29c11.17-7.29,22.33-17.29,33.98-31c7.44-8.64,17.23-21.88,29.77-39.64
						c13.51-20.06,25.57-41.46,35.84-65.17c3.72-8.64,7.93-19.11,11.65-31c-7.44-2.7-15.37-6.82-24.19-12.76
						c-18.13-11.82-33.01-26.4-44.18-43.29c-15.78-23.23-23.71-50.11-24.19-80.7c0-25.05,6.07-49.23,18.61-71.11
						c8.82-15.46,20.95-29.65,35.36-42.41c6.48-5.94,13.51-10.94,20.95-15.46c-17.64-25.53-41.42-43.76-70.72-55.17
						c-16.75-6.35-35.36-10.47-55.83-11.82c-10.68-0.88-21.85-0.47-33.01,1.35c-9.3,1.35-19.51,4.12-30.26,7.29
						c-6.96,2.7-15.78,5.94-26.95,9.99c-11.17,4.52-19.09,7.29-23.23,8.64c-7.44,2.3-13.92,3.65-18.61,3.65
						c-6.07,0-13.92-1.35-23.23-4.52c-2.76-0.88-11.65-4.52-27.43-10.47c-12.06-4.52-22.33-8.17-30.67-10.47
						c-11.65-2.7-22.33-4.12-32.53-4.12c-29.29,0.47-56.31,8.17-81.88,23.7c-25.57,15.06-45.56,35.52-60.45,61.52
						c-19.09,32.35-28.81,71.11-28.81,115.27c0,39.64,6.96,80.23,21.37,122.57c13.03,38.76,30.26,72.93,51.14,102.51
						c12.06,17.76,22.33,31.47,30.67,40.99c12.06,14.59,24.19,25.05,35.84,32.35C468.4,772.02,482.33,776.14,497.21,776.14z"/>
				</defs>
				<clipPath id="SVGID_00000080185885067888833200000006625876305776629126_">
					<use xlink:href="#SVGID_00000083065021279924187730000008136990571361331874_"  style="overflow:visible;"/>
				</clipPath>
				
					<rect x="265.08" y="437.08" style="clip-path:url(#SVGID_00000080185885067888833200000006625876305776629126_);fill:#F08020;" width="661.94" height="84.75"/>
			</g>
		</g>
		<g>
			<g>
				<defs>
					<path id="SVGID_00000140711830753995474570000006307074079438906547_" d="M497.21,776.14c9.3-0.47,19.09-2.3,28.4-5
						c4.62-1.35,12.54-4.52,24.67-9.59c10.2-4.12,18.61-7.29,26.05-9.12c10.68-2.7,21.85-4.12,33.5-4.12s22.81,1.35,33.5,4.12
						c6.48,1.82,15.37,5,26.05,9.59c10.68,4.52,19.09,7.29,24.67,9.12c9.79,2.7,19.51,4.12,29.77,3.65
						c14.89,0,28.81-4.12,41.84-12.29c11.17-7.29,22.33-17.29,33.98-31c7.44-8.64,17.23-21.88,29.77-39.64
						c13.51-20.06,25.57-41.46,35.84-65.17c3.72-8.64,7.93-19.11,11.65-31c-7.44-2.7-15.37-6.82-24.19-12.76
						c-18.13-11.82-33.01-26.4-44.18-43.29c-15.78-23.23-23.71-50.11-24.19-80.7c0-25.05,6.07-49.23,18.61-71.11
						c8.82-15.46,20.95-29.65,35.36-42.41c6.48-5.94,13.51-10.94,20.95-15.46c-17.64-25.53-41.42-43.76-70.72-55.17
						c-16.75-6.35-35.36-10.47-55.83-11.82c-10.68-0.88-21.85-0.47-33.01,1.35c-9.3,1.35-19.51,4.12-30.26,7.29
						c-6.96,2.7-15.78,5.94-26.95,9.99c-11.17,4.52-19.09,7.29-23.23,8.64c-7.44,2.3-13.92,3.65-18.61,3.65
						c-6.07,0-13.92-1.35-23.23-4.52c-2.76-0.88-11.65-4.52-27.43-10.47c-12.06-4.52-22.33-8.17-30.67-10.47
						c-11.65-2.7-22.33-4.12-32.53-4.12c-29.29,0.47-56.31,8.17-81.88,23.7c-25.57,15.06-45.56,35.52-60.45,61.52
						c-19.09,32.35-28.81,71.11-28.81,115.27c0,39.64,6.96,80.23,21.37,122.57c13.03,38.76,30.26,72.93,51.14,102.51
						c12.06,17.76,22.33,31.47,30.67,40.99c12.06,14.59,24.19,25.05,35.84,32.35C468.4,772.02,482.33,776.14,497.21,776.14z"/>
				</defs>
				<clipPath id="SVGID_00000078019280592648373740000001989552215612261000_">
					<use xlink:href="#SVGID_00000140711830753995474570000006307074079438906547_"  style="overflow:visible;"/>
				</clipPath>
				
					<rect x="265.08" y="352.26" style="clip-path:url(#SVGID_00000078019280592648373740000001989552215612261000_);fill:#F2BC1A;" width="661.94" height="84.75"/>
			</g>
		</g>
		<g>
			<g>
				<defs>
					<path id="SVGID_00000007415055846598909040000007746585163887601548_" d="M497.21,776.14c9.3-0.47,19.09-2.3,28.4-5
						c4.62-1.35,12.54-4.52,24.67-9.59c10.2-4.12,18.61-7.29,26.05-9.12c10.68-2.7,21.85-4.12,33.5-4.12s22.81,1.35,33.5,4.12
						c6.48,1.82,15.37,5,26.05,9.59c10.68,4.52,19.09,7.29,24.67,9.12c9.79,2.7,19.51,4.12,29.77,3.65
						c14.89,0,28.81-4.12,41.84-12.29c11.17-7.29,22.33-17.29,33.98-31c7.44-8.64,17.23-21.88,29.77-39.64
						c13.51-20.06,25.57-41.46,35.84-65.17c3.72-8.64,7.93-19.11,11.65-31c-7.44-2.7-15.37-6.82-24.19-12.76
						c-18.13-11.82-33.01-26.4-44.18-43.29c-15.78-23.23-23.71-50.11-24.19-80.7c0-25.05,6.07-49.23,18.61-71.11
						c8.82-15.46,20.95-29.65,35.36-42.41c6.48-5.94,13.51-10.94,20.95-15.46c-17.64-25.53-41.42-43.76-70.72-55.17
						c-16.75-6.35-35.36-10.47-55.83-11.82c-10.68-0.88-21.85-0.47-33.01,1.35c-9.3,1.35-19.51,4.12-30.26,7.29
						c-6.96,2.7-15.78,5.94-26.95,9.99c-11.17,4.52-19.09,7.29-23.23,8.64c-7.44,2.3-13.92,3.65-18.61,3.65
						c-6.07,0-13.92-1.35-23.23-4.52c-2.76-0.88-11.65-4.52-27.43-10.47c-12.06-4.52-22.33-8.17-30.67-10.47
						c-11.65-2.7-22.33-4.12-32.53-4.12c-29.29,0.47-56.31,8.17-81.88,23.7c-25.57,15.06-45.56,35.52-60.45,61.52
						c-19.09,32.35-28.81,71.11-28.81,115.27c0,39.64,6.96,80.23,21.37,122.57c13.03,38.76,30.26,72.93,51.14,102.51
						c12.06,17.76,22.33,31.47,30.67,40.99c12.06,14.59,24.19,25.05,35.84,32.35C468.4,772.02,482.33,776.14,497.21,776.14z"/>
				</defs>
				<clipPath id="SVGID_00000105394085560493550390000015859696208874016955_">
					<use xlink:href="#SVGID_00000007415055846598909040000007746585163887601548_"  style="overflow:visible;"/>
				</clipPath>
				
					<rect x="265.08" y="251.5" style="clip-path:url(#SVGID_00000105394085560493550390000015859696208874016955_);fill:#62B647;" width="661.94" height="100.75"/>
			</g>
		</g>
	</g>
	<g>
		<path d="M1264.56,586.34c-11.96,0-14.78,2.17-23.93,36.19c-14.08,57.9-20.41,76.72-20.41,89.02s9.15,18.82,26.04,20.99
			c11.96,1.45,21.11,2.17,21.11,10.13c0,6.51-5.63,7.96-12.67,7.96c-12.67,0-30.26-2.9-45.75-2.9c-18.3,0-40.82,2.9-45.75,2.9
			c-4.93,0-8.45-2.9-8.45-7.96c0-6.51,5.63-8.69,11.26-9.41c10.56-1.45,20.41-4.34,26.74-24.61
			c39.41-125.21,73.9-253.32,106.98-379.97c2.81-8.69,4.93-16.65,6.33-24.61c2.11-10.13,4.22-20.26,12.67-20.26
			c7.74,0,9.15,5.79,11.96,16.65c38,131.72,76.71,264.9,115.42,397.35c4.93,15.2,11.96,33.29,24.63,35.46
			c8.45,2.17,21.11,3.62,21.11,11.58c0,4.34-4.92,5.79-14.08,5.79c-18.3,0-33.08-2.9-52.08-2.9c-19.71,0-39.41,2.9-54.89,2.9
			c-5.63,0-11.96-2.17-11.96-7.96c0-6.51,8.45-9.41,19-9.41c11.26,0,23.22-2.17,23.22-18.82c0-9.41-9.85-36.19-24.63-91.92
			c-9.15-31.12-10.56-36.19-26.74-36.19H1264.56z M1341.97,568.25c14.08,0,15.48-1.45,15.48-5.79c0-2.9-1.41-9.41-3.52-15.92
			c-7.04-25.33-21.11-68.76-38-133.17c-2.11-10.86-5.63-15.92-9.85-15.92c-4.93,0-6.33,5.79-10.56,23.89
			c-14.78,55.73-24.63,91.92-31.67,117.25c-4.22,17.37-5.63,22.44-5.63,24.61c0,3.62,2.11,5.07,14.78,5.07H1341.97z"/>
		<path d="M1553.09,849.07c0,28.06,6.9,34.88,33.12,38.67c8.28,1.52,14.49,2.27,14.49,10.62c0,4.55-4.83,7.58-14.49,7.58
			c-12.42,0-20.7-3.03-49.69-3.03c-26.91,0-43.48,3.03-54.52,3.03c-10.35,0-13.8-2.27-13.8-7.58s2.76-8.34,11.04-10.62
			c28.29-5.31,31.05-9.1,31.05-43.98V485.99c0-17.44-2.76-21.99-17.25-26.54c-12.42-3.79-17.25-4.55-17.25-8.34
			c0-7.58,3.45-8.34,10.35-12.13c22.08-11.37,38.64-22.75,46.93-31.09c8.28-6.07,11.04-10.62,14.49-10.62s4.83,3.03,4.83,10.62
			v31.85c0,3.03,1.38,5.31,4.14,5.31c2.76,0,9.66-7.58,17.94-15.93c15.18-13.65,34.5-28.06,56.59-28.06
			c57.97,0,109.72,70.52,109.72,179.72c0,103.13-51.75,175.93-123.52,175.93c-18.63,0-32.43-5.31-44.16-9.86
			c-6.9-3.03-11.73-6.07-15.87-6.07c-4.14,0-4.14,5.31-4.14,16.68V849.07z M1694.56,579.26c0-88.72-28.29-148.63-76.6-148.63
			c-17.94,0-35.88,7.58-48.31,21.23c-10.35,11.37-16.56,26.54-16.56,40.95v175.93c0,26.54,5.52,45.5,17.25,57.63
			c10.35,11.37,25.53,16.68,40.71,16.68c47.62,0,83.5-52.32,83.5-163.04V579.26z"/>
		<path d="M1829.1,849.07c0,28.06,6.9,34.88,33.12,38.67c8.28,1.52,14.49,2.27,14.49,10.62c0,4.55-4.83,7.58-14.49,7.58
			c-12.42,0-20.7-3.03-49.68-3.03c-26.91,0-43.48,3.03-54.52,3.03c-10.35,0-13.8-2.27-13.8-7.58s2.76-8.34,11.04-10.62
			c28.29-5.31,31.05-9.1,31.05-43.98V485.99c0-17.44-2.76-21.99-17.25-26.54c-12.42-3.79-17.25-4.55-17.25-8.34
			c0-7.58,3.45-8.34,10.35-12.13c22.08-11.37,38.64-22.75,46.93-31.09c8.28-6.07,11.04-10.62,14.49-10.62s4.83,3.03,4.83,10.62
			v31.85c0,3.03,1.38,5.31,4.14,5.31c2.76,0,9.66-7.58,17.94-15.93c15.18-13.65,34.51-28.06,56.59-28.06
			c57.97,0,109.72,70.52,109.72,179.72c0,103.13-51.75,175.93-123.52,175.93c-18.63,0-32.43-5.31-44.16-9.86
			c-6.9-3.03-11.73-6.07-15.87-6.07s-4.14,5.31-4.14,16.68V849.07z M1970.57,579.26c0-88.72-28.29-148.63-76.6-148.63
			c-17.94,0-35.88,7.58-48.31,21.23c-10.35,11.37-16.56,26.54-16.56,40.95v175.93c0,26.54,5.52,45.5,17.25,57.63
			c10.35,11.37,25.53,16.68,40.71,16.68c47.62,0,83.5-52.32,83.5-163.04V579.26z"/>
		<path d="M2060.57,330.17c0-18.96-2.76-23.51-22.08-26.54c-10.35-1.52-13.8-2.27-13.8-7.58c0-5.31,2.76-7.58,9.66-9.86
			c24.84-9.1,41.41-15.93,50.38-21.99c8.28-5.31,11.04-7.58,15.18-7.58c2.07,0,3.45,2.27,3.45,11.37v431.84
			c0,23.51,6.9,27.3,31.05,32.61c7.59,1.52,14.49,2.27,14.49,9.1c0,5.31-2.76,9.1-7.59,9.1c-8.97,0-19.32-3.03-58.66-3.03
			c-35.19,0-45.55,3.03-55.21,3.03c-3.45,0-8.28-2.28-8.28-9.1c0-5.31,6.21-8.34,12.42-9.1c26.22-3.03,28.98-12.13,28.98-37.16
			V330.17z"/>
		<path d="M2216.22,558.78c-13.8,0-17.94,3.79-17.94,15.92c0,89.48,35.88,150.15,90.4,150.15c33.12,0,54.52-15.93,64.87-40.95
			c6.9-14.41,8.97-25.03,13.8-25.03c2.76,0,4.83,2.28,4.83,9.1c0,11.37-6.21,25.78-10.35,34.88c-16.56,33.37-48.99,53.84-83.5,53.84
			c-78.67,0-126.97-71.28-126.97-172.9c0-128.15,66.25-186.55,126.97-186.55c55.89,0,93.85,47.77,93.85,120.57
			c0,37.92,0,40.95-15.18,40.95H2216.22z M2200.35,523.14c0,12.13,2.07,15.17,28.98,15.17c14.49,0,27.6-0.76,39.33-1.52
			c23.46-1.52,42.78-4.55,49.68-8.34c8.28-5.31,12.42-13.65,12.42-33.37c0-45.5-20.01-80.38-57.28-80.38
			c-43.47,0-73.15,52.32-73.15,107.68V523.14z"/>
	</g>
	<path d="M3191.16,736.86c-23.89-3.79-26.62-16.68-26.62-43.98V351.47c0-21.23,4.09-31.09,23.89-33.37
		c19.79-3.03,28.66-1.52,28.66-11.37c0-6.83-5.46-9.86-14.33-9.86c-17.06,0-226.27,0-244.69,0c-10.24,0-14.33,4.55-14.33,9.86
		c0,10.62,6.82,8.34,26.62,11.37c19.11,2.27,23.89,6.82,23.89,33.37v344.44c0,31.85-2.05,36.4-26.62,40.95
		c-11.6,2.27-23.2,3.03-23.2,12.13c0,8.34,4.78,8.34,12.97,8.34c10.24,0,234.46,0,244.01,0c11.6,0,14.33-3.03,14.33-7.58
		C3215.73,739.9,3202.76,739.14,3191.16,736.86z M3118.13,695.92c0,31.85-2.05,36.4-26.62,40.95c-0.04,0.01-0.08,0.02-0.13,0.02
		c-7.89,1.54-16.02,1.55-23.91,0.02c-0.07-0.01-0.15-0.03-0.22-0.04c-23.89-3.79-26.62-16.68-26.62-43.98V351.47
		c0-21.23,4.09-31.09,23.89-33.37c0.06-0.01,0.11-0.02,0.17-0.03c9.71-1.48,19.59-1.49,29.3-0.01c0.08,0.01,0.16,0.02,0.24,0.04
		c19.11,2.27,23.89,6.82,23.89,33.37V695.92z"/>
	<g>
		<path d="M3432.91,724.95c0,3.78-0.49,7.55-1.94,10.25c-1.94,4.85-5.34,8.09-11.16,11.33c-16.5,11.33-43.19,17.8-70.85,17.8
			c-79.11,0-132.97-71.18-132.97-169.87c0-114.33,67.94-183.89,141.23-183.89c27.66,0,49.01,4.85,63.09,13.48
			c6.31,3.24,7.28,9.17,7.76,30.2c0,14.02,0.49,25.89,0,38.29c-0.49,13.48-1.94,16.18-7.76,16.18c-5.34,0-8.25-7.55-15.04-24.81
			c-12.13-33.44-24.27-57.7-52.9-57.7c-50.47,0-82.99,72.26-82.99,160.7c0,103.54,31.55,153.37,83.48,153.37
			c31.42,0,34.45-22.33,34.45-34.19v-65.25c0-28.58-5.34-30.2-19.41-32.36c-10.68-1.08-16.02-1.62-16.02-9.17
			c0-4.31,3.88-7.01,11.16-7.01c12.13,0.54,24.75,2.16,45.62,2.16c21.84,0,33-2.16,41.74-2.16c7.76,0,10.68,2.16,10.68,7.01
			c0,7.55-4.37,5.93-16.02,9.71c-8.73,2.7-12.13,4.85-12.13,25.89V724.95z"/>
		<path d="M3546.86,768.95c-25.25-1.43-46.3-3.94-59.72-14.19c-5.68-5.93-5.66-22.26-6.18-48.68c0-15.64,0-35.59,2.07-46.92
			c0.52-5.93,2.58-8.09,7.23-8.09c6.71,0,8.26,6.47,9.81,14.02c12.39,52.85,40.91,81.68,74.98,81.68
			c32.52,0,55.97-26.14,55.97-62.81c0-39.37-33.39-61.48-63.85-80.89c-7.22-4.31-14.97-9.71-22.19-14.56
			c-30.97-21.03-67.29-45.3-67.29-92.22c0-51.77,37.84-85.75,103.42-85.75c23.74,0,51.62,7.55,62.46,14.02
			c4.65,2.7,5.16,4.85,5.68,17.26c0.51,8.63,0.51,19.95,0.51,36.67c0,22.65-0.51,26.96-7.74,26.96c-7.23,0-7.23-9.17-10.32-19.95
			c-11.36-40.45-37.74-57.24-63.55-57.24c-24.78,0-51.44,17.33-51.44,45.91c0,53.32,51.5,65.25,87.11,87.36
			c32.52,21.03,68.59,57.03,68.59,108.8C3672.4,722.54,3611.48,772.62,3546.86,768.95z"/>
	</g>
</g>
</svg>
