<?xml version="1.0" encoding="utf-8"?>
<!-- Generator: Adobe Illustrator 25.4.1, SVG Export Plug-In . SVG Version: 6.00 Build 0)  -->
<svg version="1.1" id="Layer_1" xmlns="http://www.w3.org/2000/svg" xmlns:xlink="http://www.w3.org/1999/xlink" x="0px" y="0px"
	 viewBox="0 0 3839 347.3" style="enable-background:new 0 0 3839 347.3;" xml:space="preserve">
<style type="text/css">
	.st0{fill-rule:evenodd;clip-rule:evenodd;fill:#002684;}
	.st1{fill-rule:evenodd;clip-rule:evenodd;fill:#12506F;}
	.st2{fill-rule:evenodd;clip-rule:evenodd;fill:#247A5B;}
	.st3{fill-rule:evenodd;clip-rule:evenodd;fill:#36A346;}
	.st4{fill-rule:evenodd;clip-rule:evenodd;fill:#48CD31;}
	.st5{fill-rule:evenodd;clip-rule:evenodd;fill:#6AD534;}
	.st6{fill-rule:evenodd;clip-rule:evenodd;fill:#8CDD37;}
	.st7{fill-rule:evenodd;clip-rule:evenodd;fill:#AFE63A;}
	.st8{fill-rule:evenodd;clip-rule:evenodd;fill:#D1EE3D;}
	.st9{fill-rule:evenodd;clip-rule:evenodd;fill:#F3F640;}
	.st10{fill-rule:evenodd;clip-rule:evenodd;fill:#F6D730;}
	.st11{fill-rule:evenodd;clip-rule:evenodd;fill:#F9B721;}
	.st12{fill-rule:evenodd;clip-rule:evenodd;fill:#FB9811;}
	.st13{fill-rule:evenodd;clip-rule:evenodd;fill:#FE7801;}
	.st14{fill-rule:evenodd;clip-rule:evenodd;fill:#FE5C13;}
	.st15{fill-rule:evenodd;clip-rule:evenodd;fill:#FE4125;}
	.st16{fill-rule:evenodd;clip-rule:evenodd;fill:#FE2537;}
	.st17{fill-rule:evenodd;clip-rule:evenodd;fill:#14A4FE;}
	.st18{fill-rule:evenodd;clip-rule:evenodd;fill:#21AECB;}
	.st19{fill-rule:evenodd;clip-rule:evenodd;fill:#2EB998;}
	.st20{fill-rule:evenodd;clip-rule:evenodd;fill:#3BC364;}
	.st21{fill-rule:evenodd;clip-rule:evenodd;fill:#24795B;}
	.st22{fill-rule:evenodd;clip-rule:evenodd;fill:#48CC31;}
	.st23{fill-rule:evenodd;clip-rule:evenodd;fill:#6AD434;}
	.st24{fill-rule:evenodd;clip-rule:evenodd;fill:#8BDC37;}
	.st25{fill-rule:evenodd;clip-rule:evenodd;fill:#AEE53A;}
	.st26{fill-rule:evenodd;clip-rule:evenodd;fill:#D0ED3D;}
	.st27{fill-rule:evenodd;clip-rule:evenodd;fill:#F2F540;}
	.st28{fill-rule:evenodd;clip-rule:evenodd;fill:#F5D630;}
	.st29{fill-rule:evenodd;clip-rule:evenodd;fill:#F8B621;}
	.st30{fill-rule:evenodd;clip-rule:evenodd;fill:#FA9711;}
	.st31{fill-rule:evenodd;clip-rule:evenodd;fill:#FD7801;}
	.st32{fill-rule:evenodd;clip-rule:evenodd;fill:#F9500E;}
	.st33{fill-rule:evenodd;clip-rule:evenodd;fill:#F6281C;}
	.st34{fill-rule:evenodd;clip-rule:evenodd;fill:#F20029;}
	.st35{fill:#002684;}
	.st36{fill:#F20029;}
	.st37{fill:#FFFFFF;}
	.st38{fill-rule:evenodd;clip-rule:evenodd;fill:#14A3FD;}
	.st39{fill-rule:evenodd;clip-rule:evenodd;fill:#3E3632;}
	.st40{fill:#282422;}
	.st41{fill:url(#SVGID_1_);}
	.st42{fill:url(#SVGID_00000078019548579030521160000006730752693130560653_);}
	.st43{fill:url(#SVGID_00000072966597226840242510000003071630986383858356_);}
	.st44{fill:url(#SVGID_00000018203017065417171360000010927644183537727647_);}
	.st45{fill:url(#SVGID_00000014597614722969692340000002301278561353891467_);}
	.st46{fill:url(#SVGID_00000075844455169545591370000003446636453511991211_);}
	.st47{fill:url(#SVGID_00000034812124101450488390000000097298632834376086_);}
	.st48{fill:url(#SVGID_00000031891633423683113670000004889340032942835085_);}
	.st49{fill:url(#SVGID_00000171698615614358752670000013124250042706183328_);}
	.st50{fill:url(#SVGID_00000008870688444044434930000012132028419494279836_);}
	.st51{fill:url(#SVGID_00000106106968358551481170000007041483457135995300_);}
	.st52{fill:url(#SVGID_00000065787689431021455960000015218055911055188106_);}
	.st53{fill:url(#SVGID_00000007402643286886811780000001239064836792235414_);}
	.st54{fill:url(#SVGID_00000138559850921960526850000003907532565614424473_);}
	.st55{fill:url(#SVGID_00000045587894311493605900000014883748565640575665_);}
	.st56{fill:url(#SVGID_00000098204325083730136770000015653217811687211708_);}
	.st57{fill:url(#SVGID_00000015324930899561734060000005240051619687664567_);}
	.st58{fill:url(#SVGID_00000070102129986394771790000011454764380200461719_);}
	.st59{fill:url(#SVGID_00000016051193749375436610000015411337619273361085_);}
	.st60{fill:url(#SVGID_00000142894635534801130600000005223892790997745038_);}
	.st61{fill:url(#SVGID_00000097469536774208116930000018411618814901430952_);}
	.st62{fill:url(#SVGID_00000032641408287863196910000011354129433022618789_);}
	.st63{fill:url(#SVGID_00000095331839663501402260000009099426003861835958_);}
	.st64{fill:url(#SVGID_00000095303448144312790200000001642955446692511916_);}
	.st65{fill:url(#SVGID_00000129915629843447072360000004576909636331682716_);}
	.st66{fill:url(#SVGID_00000020379541960794485010000003728634835792026760_);}
	.st67{fill:url(#SVGID_00000000923551022750999990000010262002718008855702_);}
	.st68{fill:url(#SVGID_00000111174088093619811150000005855431459426231976_);}
	.st69{fill:url(#SVGID_00000000903306267851136170000011453003100619859903_);}
	.st70{fill-rule:evenodd;clip-rule:evenodd;fill:#FFFFFF;}
	.st71{fill:url(#SVGID_00000142893565141441310700000002496286651777252274_);}
	.st72{fill:url(#SVGID_00000173854641918989940830000004400807760604797827_);}
	.st73{fill:url(#SVGID_00000162320309145323254540000016382678193485221536_);}
	.st74{fill:url(#SVGID_00000183948689838497621030000008770504127031115949_);}
	.st75{fill:url(#SVGID_00000011008980525783017450000017416808003520263325_);}
	.st76{fill:url(#SVGID_00000005960849153814323430000006211165109832360101_);}
	.st77{fill:url(#SVGID_00000021814678597996672020000010810823060981390747_);}
	.st78{fill:url(#SVGID_00000147927276477402526660000008693360481671060391_);}
	.st79{fill:url(#SVGID_00000114039232552455675630000011263266247629158317_);}
	.st80{fill:url(#SVGID_00000112607306533431736280000013401503954533375638_);}
	.st81{fill:url(#SVGID_00000078044406655708946770000004963324314209424059_);}
	.st82{fill:url(#SVGID_00000097466738678080414400000017507140319952530620_);}
	.st83{fill:url(#SVGID_00000150799127090556765640000013914762835108175025_);}
	.st84{fill:url(#SVGID_00000103980463805582585050000016530806087185041847_);}
	.st85{fill:url(#SVGID_00000149376834377337713300000007925303673524728243_);}
	.st86{fill:url(#SVGID_00000167357698052032443690000006034352666390147734_);}
	.st87{fill:url(#SVGID_00000120545804354826962970000004350902289331692179_);}
	.st88{fill:url(#SVGID_00000008128000439042306220000011883355117637781949_);}
	.st89{fill:url(#SVGID_00000050625050647749691400000006042886706381340567_);}
	.st90{fill:url(#SVGID_00000053532285751524361970000007668020438910827181_);}
	.st91{fill:url(#SVGID_00000062888514890821994990000003295440208625782951_);}
	.st92{fill:url(#SVGID_00000066474683501410220730000014096730771904476091_);}
	.st93{fill:url(#SVGID_00000103982894139563237410000008610836278426080955_);}
	.st94{fill:url(#SVGID_00000009570636648769284620000009760226665447567013_);}
	.st95{fill:url(#SVGID_00000069382796491993114130000000476808787049653158_);}
	.st96{fill:url(#SVGID_00000004516955653618084400000011689263253494188423_);}
	.st97{fill:url(#SVGID_00000010297442769971257030000007395393111802967712_);}
	.st98{fill:url(#SVGID_00000016792960289317359490000010106024498439073416_);}
	.st99{fill:url(#SVGID_00000005247863263999413450000006881760589512810407_);}
	.st100{fill:#0F2166;}
	.st101{fill:#FD2537;}
</style>
<g>
	<g>
		<g>
			<g>
				<g>
					<g>
						<g>
							<polygon class="st0" points="2431.2,52.2 2431.2,52.2 2431.2,295.3 2403.4,295.3 2403.4,52.2 							"/>
							<polygon class="st1" points="2492.8,52.2 2492.8,52.2 2492.8,295.3 2465,295.3 2465,52.2 							"/>
							<polygon class="st21" points="2554.5,52.2 2554.5,52.2 2554.5,295.3 2526.7,295.3 2526.7,52.2 							"/>
							<polygon class="st3" points="2616.1,52.2 2616.1,52.2 2616.1,295.3 2588.4,295.3 2588.4,52.2 							"/>
							<polygon class="st22" points="2677.8,52.2 2677.8,52.2 2677.8,295.3 2650,295.3 2650,52.2 							"/>
						</g>
					</g>
				</g>
				<g>
					<polygon class="st23" points="2739.5,52.2 2739.5,52.2 2739.5,295.3 2711.6,295.3 2711.6,52.2 					"/>
				</g>
				<g>
					<polygon class="st24" points="2801.1,52.2 2801.1,52.2 2801.1,295.3 2773.3,295.3 2773.3,52.2 					"/>
				</g>
				<g>
					<polygon class="st25" points="2862.8,52.2 2862.8,52.2 2862.8,295.3 2835,295.3 2835,52.2 					"/>
				</g>
				<g>
					<polygon class="st26" points="2924.4,52.2 2924.4,52.2 2924.4,295.3 2896.6,295.3 2896.6,52.2 					"/>
				</g>
			</g>
			<g>
				<g>
					<polygon class="st27" points="2986,52.2 2986,52.2 2986,295.3 2958.2,295.3 2958.2,52.2 					"/>
				</g>
				<g>
					<polygon class="st28" points="3047.7,52.2 3047.7,52.2 3047.7,295.3 3019.9,295.3 3019.9,52.2 					"/>
				</g>
				<g>
					<polygon class="st29" points="3109.4,52.2 3109.4,52.2 3109.4,295.3 3081.6,295.3 3081.6,52.2 					"/>
				</g>
				<g>
					<polygon class="st30" points="3171,52.2 3171,52.2 3171,295.3 3143.2,295.3 3143.2,52.2 					"/>
				</g>
			</g>
			<g>
				<g>
					<polygon class="st31" points="3232.7,52.2 3232.7,52.2 3232.7,295.3 3204.9,295.3 3204.9,52.2 					"/>
					<polygon class="st32" points="3294.3,52.2 3294.3,52.2 3294.3,295.3 3266.5,295.3 3266.5,52.2 					"/>
					<polygon class="st33" points="3356,52.2 3356,52.2 3356,295.3 3328.2,295.3 3328.2,52.2 					"/>
					<polygon class="st34" points="3417.6,52.2 3417.6,52.2 3417.6,295.3 3389.8,295.3 3389.8,52.2 					"/>
				</g>
			</g>
		</g>
		<g>
			<g>
				<path class="st35" d="M538.2,161.9c-2.2-20.5-24.3-20-39.8-20c-8.5,0-26.2,0.3-33,6.2c-6.5,5.6-6.5,20.3-6.5,28.1
					c0,7.6,0.3,17.7,6,23.4c6.8,6.8,25.7,7.3,34.4,7.3c6,0,11.7,0,17.7-0.8c12-1.7,19.1-5.3,21-18.6H587c-0.5,14.9-1.4,29.3-12,40.5
					c-11.2,12.1-28.4,14.6-43.9,15.5c-11.7,0.6-23.2,0.8-34.9,0.8c-21,0-51,0.6-69-12.4c-17.5-12.7-16.6-39.1-16.6-58.5
					c0-19.1-0.3-41.9,15.3-55.4c16.9-14.6,52.1-13.5,72.9-13.5c20.8,0,56.8-0.8,74,13.5c4.6,3.9,7.6,7.9,10.1,13.8
					c4.1,9.9,4.4,19.4,4.6,30.1H538.2z"/>
				<path class="st35" d="M784.3,197.8c-1.1,12.9-4.4,24.5-14.2,33.2c-16.6,14.9-55.9,13.2-76.4,13.2c-21.3,0-58.9,2-76.4-13.2
					c-4.9-4.2-7.9-8.7-10.4-14.6c-5.5-13.8-4.6-31.2-4.6-45.9c0-7.3,0-14.9,0.8-22.2c1.1-12.7,5.7-23.9,15.8-31.8
					c16.4-12.9,55.4-12.1,74.8-12.1c19.6,0,58.1-0.8,74.8,12.1c4.6,3.7,7.6,7.3,10.4,12.7c7.1,12.9,6.3,29.5,6.3,43.9
					C785.1,181.3,784.9,189.8,784.3,197.8z M730.8,149.3c-7.1-7-27.8-7.3-36.8-7.3c-8.7,0-17.7,0.3-26.2,2
					c-16.9,3.4-17.2,16.9-17.2,32.1c0,7.3-0.3,17.2,4.9,22.8c7.4,8.2,28.7,8.2,38.5,8.2c9.3,0,19.1,0,28.1-2.5
					c15-4.2,14.7-18.3,14.7-32.1C736.8,164.7,736.6,154.9,730.8,149.3z"/>
				<path class="st35" d="M1037.8,240.9v-62.2c0-28.7-3-36.9-32.7-36.9c-33.3,0-35.8,13.5-35.8,44.2v54.9h-48.3v-62.2v-9.3
					c0-24.2-10.1-27.6-31.9-27.6c-34.4,0-36.6,12.7-36.6,44.2v54.9h-48.3V107.9h45.5v20h2.2c9-20.5,33-23.4,52.4-23.4
					c24.6,0,46.1,4.2,58.7,27.9c9.8-24.8,32.7-27.9,55.9-27.9c18.8,0,39.8,2.3,53.5,17.2c4.6,5.1,8.2,10.4,10.1,17.2
					c3.8,12.9,3.5,26.7,3.5,40v62.1H1037.8z"/>
				<path class="st35" d="M1340.5,240.9v-62.2c0-28.7-3-36.9-32.7-36.9c-33.3,0-35.8,13.5-35.8,44.2v54.9h-48.3v-62.2v-9.3
					c0-24.2-10.1-27.6-31.9-27.6c-34.4,0-36.6,12.7-36.6,44.2v54.9h-48.3V107.9h45.6v20h2.2c9-20.5,33-23.4,52.4-23.4
					c24.6,0,46.1,4.2,58.7,27.9c9.8-24.8,32.7-27.9,55.9-27.9c18.8,0,39.8,2.3,53.5,17.2c4.6,5.1,8.2,10.4,10.1,17.2
					c3.8,12.9,3.5,26.7,3.5,40v62.1H1340.5z"/>
				<path class="st35" d="M1588.8,197.8c-1.1,12.9-4.4,24.5-14.2,33.2c-16.6,14.9-55.9,13.2-76.4,13.2c-21.3,0-58.9,2-76.4-13.2
					c-4.9-4.2-7.9-8.7-10.4-14.6c-5.5-13.8-4.6-31.2-4.6-45.9c0-7.3,0-14.9,0.8-22.2c1.1-12.7,5.7-23.9,15.8-31.8
					c16.4-12.9,55.4-12.1,74.8-12.1c19.6,0,58.1-0.8,74.8,12.1c4.6,3.7,7.6,7.3,10.4,12.7c7.1,12.9,6.3,29.5,6.3,43.9
					C1589.6,181.3,1589.3,189.8,1588.8,197.8z M1535.3,149.3c-7.1-7-27.8-7.3-36.8-7.3c-8.7,0-17.7,0.3-26.2,2
					c-16.9,3.4-17.2,16.9-17.2,32.1c0,7.3-0.3,17.2,4.9,22.8c7.4,8.2,28.7,8.2,38.5,8.2c9.3,0,19.1,0,28.1-2.5
					c15-4.2,14.7-18.3,14.7-32.1C1541.3,164.7,1541,154.9,1535.3,149.3z"/>
				<path class="st35" d="M1742.1,240.9v-17.4h-2.5c-3.3,5.6-5.7,9.3-11.2,12.7c-12,7.6-32.2,8.2-45.8,8.2
					c-19.9,0-46.9,0.3-62.8-14.1c-14.2-12.9-13.9-38.6-13.9-56.6c0-20.8,0.5-46.2,19.1-59.1c16.4-11.3,39.3-10.1,58.1-10.1
					c14.2,0,29.7-0.3,42.3,7.3c6.3,3.7,8.5,7.3,12,13.8h1.9V53.3h48.3v187.7H1742.1z M1737.2,154.3c-5.7-13.5-26.5-12.4-38.2-12.4
					c-12,0-36.3-1.4-42.3,12.7c-2.2,5.6-2.5,12.9-2.5,18.9c0,7.9-0.3,20,5.5,26.2c6.5,7.3,27.6,7.3,36.3,7.3
					c9.8,0,21.8-0.6,31.1-3.7c13.1-4.2,12.8-17.2,12.8-29.3C1739.9,167.8,1739.6,160.2,1737.2,154.3z"/>
				<path class="st35" d="M1988.8,197.8c-1.1,12.9-4.4,24.5-14.2,33.2c-16.6,14.9-55.9,13.2-76.4,13.2c-21.3,0-58.9,2-76.4-13.2
					c-4.9-4.2-7.9-8.7-10.4-14.6c-5.5-13.8-4.6-31.2-4.6-45.9c0-7.3,0-14.9,0.8-22.2c1.1-12.7,5.7-23.9,15.8-31.8
					c16.4-12.9,55.4-12.1,74.8-12.1c19.6,0,58.1-0.8,74.8,12.1c4.6,3.7,7.6,7.3,10.4,12.7c7.1,12.9,6.3,29.5,6.3,43.9
					C1989.6,181.3,1989.3,189.8,1988.8,197.8z M1935.3,149.3c-7.1-7-27.8-7.3-36.8-7.3c-8.7,0-17.7,0.3-26.2,2
					c-16.9,3.4-17.2,16.9-17.2,32.1c0,7.3-0.3,17.2,4.9,22.8c7.4,8.2,28.7,8.2,38.5,8.2c9.3,0,19.1,0,28.1-2.5
					c15-4.2,14.7-18.3,14.7-32.1C1941.3,164.7,1941,154.9,1935.3,149.3z"/>
				<path class="st35" d="M2158.2,167h-45.3c0-19.7-6.3-25-25.4-25c-29.7,0-30.6,19.4-30.6,43.9v55.1h-48.3V107.9h45.6v20h2.2
					c11.2-20.5,29.2-23.4,50.2-23.4c15,0,33,2,43.1,14.9c9,11.5,8.7,28.1,8.7,42.2C2158.5,163.3,2158.2,165.3,2158.2,167z"/>
				<path class="st35" d="M2343.8,185.3h-126.1c0,7.6-0.3,16.3,6,21.7c6.5,5.3,24.8,5.6,32.7,5.6c7.9,0,30,0.3,35.2-5.6
					c2.2-2.3,2.7-5.3,3.3-8.4h48c-1.1,12.7-3.5,22.5-12.8,31.2c-16.6,15.5-56.5,14.6-77.5,14.6c-19.1,0-51,0.3-66.9-12.4
					c-4.9-3.9-8.2-8.4-10.9-14.1c-6-12.9-5.5-29-5.5-42.8c0-8.4,0-16.9,0.8-25c1.4-13.5,5.7-25.6,16.6-33.8
					c16.9-12.7,50.8-11.8,70.7-11.8c18.3,0,38.2-0.6,55.9,4.8c28.7,8.7,30.6,35.7,30.6,62.5C2344.1,176.3,2344.1,180.8,2343.8,185.3
					z M2295.5,154.9c0-5.1-0.3-9-3.8-12.9c-5.7-6.5-25.4-6.5-33.3-6.5c-7.4,0-14.7,0-21.8,1.1c-13.6,2-18.6,7.3-18.8,21.4h77.8
					L2295.5,154.9L2295.5,154.9z"/>
			</g>
		</g>
		<g>
			<path class="st35" d="M79.1,173.7c0-50.8,40.1-92.1,89.3-92.1c15.8,0,30.7,4.3,43.5,11.7V5.9C198,2.1,183.5,0,168.4,0
				C75.4,0,0,77.7,0,173.7s75.4,173.7,168.4,173.7c15.1,0,29.7-2.1,43.5-5.9v-87.5c-12.9,7.5-27.7,11.7-43.5,11.7
				C119.2,265.6,79.1,224.3,79.1,173.7z"/>
			<polygon class="st35" points="211.9,167.3 291.3,167.3 358.6,97.9 211.9,97.9 			"/>
			<polygon class="st36" points="211.9,180 211.9,249.3 358.6,249.3 291.3,180 			"/>
		</g>
		<g>
			<path class="st35" d="M3461.3,295.3V52.4h75.3v242.9H3461.3z"/>
			<path class="st35" d="M3771.9,120.5c0-3.6-0.4-8.7-3.5-11.3c-3.2-2.5-8.1-2.9-11.7-3.3c-18.4-1.8-37.5-1.8-56.2-1.8
				c-17.3,0-36,0-53,3.3c-3.9,0.7-7.4,1.8-10.6,4.4c-8.1,6.6-7.4,24.8-7.4,34.3v9.5v4c4.2-4.4,8.5-8,13.8-10.9
				c19.8-11.7,59.4-10.6,81.6-10.6c24,0,53.4,0.4,76.3,8c8.5,2.9,15.5,6.9,21.9,13.5c14.1,14.2,14.5,41.5,14.5,60.5
				c0,34.6-5.7,65.6-43.1,73.2c-14.5,2.9-29.3,4-43.8,4.4c-21.2,0.4-42.1,0.7-63.3,0.7c-29.7,0-85.2,1.8-107.8-19.3
				c-16.3-14.9-17.3-44.1-18-64.9c-0.4-16-0.7-32.4-0.7-48.5c0-29.2-3.2-76.5,20.1-97.3c22.3-20,98.2-18.9,126.2-18.9
				c15.5,0,31.1,0,46.6,0.7c21.6,0.7,58,1.8,74.2,18.9c11.3,12,11,35.7,11,51.4C3839,120.5,3771.9,120.5,3771.9,120.5z
				 M3751.4,194.8c-19.1-2.9-39.6-2.2-59-2.2c-14.1,0-28.6-0.7-42.8,1.5c-13.8,2.2-19.1,10.9-19.1,24.8c0,6.2,1.4,14.2,5.7,19
				c7.1,7.7,47,5.8,56.2,5.8c12.4,0,24.4-0.4,36.8-0.7c8.8-0.4,26.9,0.7,33.9-6.2c4.2-4.4,4.9-12.4,4.9-18.2
				C3768,205,3765.1,196.9,3751.4,194.8z"/>
		</g>
	</g>
</g>
</svg>
