<?xml version="1.0" encoding="utf-8"?>
<!-- Generator: Adobe Illustrator 25.4.1, SVG Export Plug-In . SVG Version: 6.00 Build 0)  -->
<svg version="1.1" id="Layer_1" xmlns="http://www.w3.org/2000/svg" xmlns:xlink="http://www.w3.org/1999/xlink" x="0px" y="0px"
	 viewBox="0 0 3839 811.8" style="enable-background:new 0 0 3839 811.8;" xml:space="preserve">
<style type="text/css">
	.st0{fill-rule:evenodd;clip-rule:evenodd;fill:#002684;}
	.st1{fill-rule:evenodd;clip-rule:evenodd;fill:#12506F;}
	.st2{fill-rule:evenodd;clip-rule:evenodd;fill:#247A5B;}
	.st3{fill-rule:evenodd;clip-rule:evenodd;fill:#36A346;}
	.st4{fill-rule:evenodd;clip-rule:evenodd;fill:#48CD31;}
	.st5{fill-rule:evenodd;clip-rule:evenodd;fill:#6AD534;}
	.st6{fill-rule:evenodd;clip-rule:evenodd;fill:#8CDD37;}
	.st7{fill-rule:evenodd;clip-rule:evenodd;fill:#AFE63A;}
	.st8{fill-rule:evenodd;clip-rule:evenodd;fill:#D1EE3D;}
	.st9{fill-rule:evenodd;clip-rule:evenodd;fill:#F3F640;}
	.st10{fill-rule:evenodd;clip-rule:evenodd;fill:#F6D730;}
	.st11{fill-rule:evenodd;clip-rule:evenodd;fill:#F9B721;}
	.st12{fill-rule:evenodd;clip-rule:evenodd;fill:#FB9811;}
	.st13{fill-rule:evenodd;clip-rule:evenodd;fill:#FE7801;}
	.st14{fill-rule:evenodd;clip-rule:evenodd;fill:#FE5C13;}
	.st15{fill-rule:evenodd;clip-rule:evenodd;fill:#FE4125;}
	.st16{fill-rule:evenodd;clip-rule:evenodd;fill:#FE2537;}
	.st17{fill-rule:evenodd;clip-rule:evenodd;fill:#14A4FE;}
	.st18{fill-rule:evenodd;clip-rule:evenodd;fill:#21AECB;}
	.st19{fill-rule:evenodd;clip-rule:evenodd;fill:#2EB998;}
	.st20{fill-rule:evenodd;clip-rule:evenodd;fill:#3BC364;}
	.st21{fill-rule:evenodd;clip-rule:evenodd;fill:#24795B;}
	.st22{fill-rule:evenodd;clip-rule:evenodd;fill:#48CC31;}
	.st23{fill-rule:evenodd;clip-rule:evenodd;fill:#6AD434;}
	.st24{fill-rule:evenodd;clip-rule:evenodd;fill:#8BDC37;}
	.st25{fill-rule:evenodd;clip-rule:evenodd;fill:#AEE53A;}
	.st26{fill-rule:evenodd;clip-rule:evenodd;fill:#D0ED3D;}
	.st27{fill-rule:evenodd;clip-rule:evenodd;fill:#F2F540;}
	.st28{fill-rule:evenodd;clip-rule:evenodd;fill:#F5D630;}
	.st29{fill-rule:evenodd;clip-rule:evenodd;fill:#F8B621;}
	.st30{fill-rule:evenodd;clip-rule:evenodd;fill:#FA9711;}
	.st31{fill-rule:evenodd;clip-rule:evenodd;fill:#FD7801;}
	.st32{fill-rule:evenodd;clip-rule:evenodd;fill:#F9500E;}
	.st33{fill-rule:evenodd;clip-rule:evenodd;fill:#F6281C;}
	.st34{fill-rule:evenodd;clip-rule:evenodd;fill:#F20029;}
	.st35{fill:#002684;}
	.st36{fill:#F20029;}
	.st37{fill:#FFFFFF;}
	.st38{fill-rule:evenodd;clip-rule:evenodd;fill:#14A3FD;}
	.st39{fill-rule:evenodd;clip-rule:evenodd;fill:#3E3632;}
	.st40{fill:#282422;}
	.st41{fill:url(#SVGID_1_);}
	.st42{fill:url(#SVGID_00000129183242352026088710000001908852398694882180_);}
	.st43{fill:url(#SVGID_00000029761809552081885280000006887678701722138272_);}
	.st44{fill:url(#SVGID_00000181771387285281307680000012883850892698428568_);}
	.st45{fill:url(#SVGID_00000151502843521325172910000016865697541903178643_);}
	.st46{fill:url(#SVGID_00000140701024333306413750000012026639374329013144_);}
	.st47{fill:url(#SVGID_00000097461517776938360200000006692628660619366302_);}
	.st48{fill:url(#SVGID_00000085241598213786828220000009282588427083603613_);}
	.st49{fill:url(#SVGID_00000067212245988401030290000015304954234338783670_);}
	.st50{fill:url(#SVGID_00000044145253420454464070000001978859727075271610_);}
	.st51{fill:url(#SVGID_00000057859004937850946870000002164015524725657258_);}
	.st52{fill:url(#SVGID_00000116225675246654809250000013319820738364718724_);}
	.st53{fill:url(#SVGID_00000046316006008209557330000001071135597904666026_);}
	.st54{fill:url(#SVGID_00000177463510719825097120000009505701988128431237_);}
	.st55{fill:url(#SVGID_00000070090802187276124060000014249055504781322882_);}
	.st56{fill:url(#SVGID_00000072983259786511846610000005077936579991926447_);}
	.st57{fill:url(#SVGID_00000145028728211751584100000015511977150183201159_);}
	.st58{fill:url(#SVGID_00000041975995230506189080000004075441640856242842_);}
	.st59{fill:url(#SVGID_00000150818499527091523510000013938241475843834813_);}
	.st60{fill:url(#SVGID_00000072272144624697563030000012230069458184030865_);}
	.st61{fill:url(#SVGID_00000144326771949343920020000002548525686018974349_);}
	.st62{fill:url(#SVGID_00000111184303309696472190000008934707244510087050_);}
	.st63{fill:url(#SVGID_00000122722018154081735400000009133421196853509299_);}
	.st64{fill:url(#SVGID_00000029006729285870918830000011175538128089020566_);}
	.st65{fill:url(#SVGID_00000076589675139236052010000017861089901168562054_);}
	.st66{fill:url(#SVGID_00000013907112778426151440000017449669064717013382_);}
	.st67{fill:url(#SVGID_00000080200049268449444050000015309836202370487481_);}
	.st68{fill:url(#SVGID_00000065752684812590609620000012210722278254067074_);}
	.st69{fill:url(#SVGID_00000156576592471827918200000002672049870044562078_);}
	.st70{fill-rule:evenodd;clip-rule:evenodd;fill:#FFFFFF;}
	.st71{fill:url(#SVGID_00000118395789983719862600000002589466465381799835_);}
	.st72{fill:url(#SVGID_00000147934910618950244520000007076801856651894153_);}
	.st73{fill:url(#SVGID_00000111913414327891081800000013487959463539146628_);}
	.st74{fill:url(#SVGID_00000106851398439692675930000006373786998057388476_);}
	.st75{fill:url(#SVGID_00000100382769184190011610000018437510893732191618_);}
	.st76{fill:url(#SVGID_00000047745600278776493060000009682815781168181693_);}
	.st77{fill:url(#SVGID_00000005954883270266988060000006859672344892863924_);}
	.st78{fill:url(#SVGID_00000158030450980559003010000016487273825023943811_);}
	.st79{fill:url(#SVGID_00000031893733886937820220000013116482618689773198_);}
	.st80{fill:url(#SVGID_00000018222032464743584510000004814428482276174469_);}
	.st81{fill:url(#SVGID_00000155120175574316544760000012275926074027912862_);}
	.st82{fill:url(#SVGID_00000124148231615301038340000003558694687125835934_);}
	.st83{fill:url(#SVGID_00000048493170686944659110000013376940462926280613_);}
	.st84{fill:url(#SVGID_00000180348060382214208100000004499519261534206855_);}
	.st85{fill:url(#SVGID_00000036974205034192943490000001194221288278901144_);}
	.st86{fill:url(#SVGID_00000120552055081004554890000002184604955742706865_);}
	.st87{fill:url(#SVGID_00000183946526308184401080000011329356400075688869_);}
	.st88{fill:url(#SVGID_00000181086850049887943630000014214320651630856119_);}
	.st89{fill:url(#SVGID_00000109030671863647730590000005290800552282285748_);}
	.st90{fill:url(#SVGID_00000135665489190251918380000002564768372864145795_);}
	.st91{fill:url(#SVGID_00000006699844040291764300000009912372823338736039_);}
	.st92{fill:url(#SVGID_00000021108937649770169610000017440183709697209735_);}
	.st93{fill:url(#SVGID_00000008110988808336886550000001698919357739854227_);}
	.st94{fill:url(#SVGID_00000168815079487776449170000014773027196652624315_);}
	.st95{fill:url(#SVGID_00000098912667929436764730000006577147616236679557_);}
	.st96{fill:url(#SVGID_00000174604229887454424190000008930014248874418852_);}
	.st97{fill:url(#SVGID_00000026848074095317335760000014371002992891575952_);}
	.st98{fill:url(#SVGID_00000120524516690811510430000007812071021358586539_);}
	.st99{fill:url(#SVGID_00000014626180144715073480000003878066676469463732_);}
	.st100{fill:#0F2166;}
	.st101{fill:#FD2537;}
</style>
<g>
	<g>
		<g>
			<path class="st37" d="M2511.1,806.4V484.1h-34l-128.8,108.5l-73.2-85.7l158.9-136.7h210.5v436.1L2511.1,806.4L2511.1,806.4z"/>
			<path class="st37" d="M2734.1,806.4c0-17-1.3-34.7-1.3-51.7c0-35.3-0.7-70.6,5.2-105.3c11.8-72.6,74.6-81.7,137.3-87l164.8-13.1
				c20.9-2,43.8-2,64.1-9.2c19-6.5,19-17.7,19-36c0-12.4,0-26.2-11.1-34c-16.3-12.4-87-9.2-105.9-9.2c-39.9,0-83.1-2-122.9,4.6
				c-30.1,4.6-26.8,26.2-26.8,52.3v14.4h-128.8v-17.7c0-36,0.7-85.7,27.5-113.8c30.1-31.4,96.8-32.7,136.7-34.7
				c28.1-1.3,56.2-1.3,84.4-1.3h12.4l107.9,0.7c41.9,0,95.5,0.7,126.9,32.7c24.2,24.9,24.2,74.6,24.2,106.6c0,32.7-0.7,67.4-19,96.1
				c-24.2,38.6-92.9,43.8-133.4,46.4c-31.4,2-62.1,3.9-93.5,5.9c-24.9,1.3-49.7,3.3-74.6,5.2c-11.1,0.7-39.2,2.6-49.7,6.5
				c-20.9,7.8-20.9,22.2-20.9,41.2h398.2v100.1h-520.7V806.4z"/>
			<path class="st37" d="M3805.6,784.8c-43.2,31.4-147.1,26.8-198.7,26.8h-59.5c-53.6,0-141.9,3.9-187.7-26.8
				c-30.7-20.9-33.4-62.8-33.4-96.8c0-28.8,2.6-59.5,23.5-81.1c15.7-16.3,39.9-19.6,61.5-23.5c-9.8-0.7-20.3-1.3-30.1-3.9
				c-43.8-11.8-49.7-54.9-49.7-94.2c0-63.4,19-100.7,85-111.2c54.3-8.5,111.2-9.2,166.1-9.2c30.1,0,60.2,0.7,90.2,2
				c38.6,2,93.5,3.3,126.2,25.5c30.1,20.3,34.7,61.5,34.7,94.8c0,25.5-3.3,54.9-20.3,74.6c-15.7,18.3-36.6,20.3-59.5,21.6
				c23.5,3.9,43.8,6.5,61.5,23.5c22.9,21.6,23.5,59.5,23.5,88.9C3839,728.5,3834.4,764.5,3805.6,784.8z M3704.3,642.9
				c-9.8-9.8-45.8-9.2-58.2-9.2c-23.5-0.7-47.1-1.3-70.6-1.3c-21.6,0-98.1-2-112.5,8.5c-9.8,7.2-9.8,23.5-9.8,34.7
				c0,9.8,0.7,20.9,8.5,28.1c15,13.1,95.5,9.8,114.4,9.8c22.9,0,45.8-0.7,68.7-1.3c16.3,0,55.6,2,64.1-17c3.3-7.2,3.3-17,3.3-24.9
				C3712.1,661.2,3711.5,649.4,3704.3,642.9z M3646.2,464.4c-26.2-0.7-51.7-1.3-77.8-1.3c-26.8,0-54.9-0.7-81.7,3.3
				c-22.2,3.3-28.1,15-28.1,36.6c0,22.9,7.8,30.7,30.1,33.4c46.4,4.6,96.1,2.6,142.6,2.6c15,0,58.9,0,69.3-10.5
				c6.5-6.5,6.5-19,6.5-27.5C3706.9,463.1,3676.2,465.1,3646.2,464.4z"/>
		</g>
		<g>
			<g>
				<polygon id="polygon7_00000124883709870818638230000014937738687087087794_" class="st34" points="864.9,368.8 864.9,368.8 
					2176.4,368.8 2176.4,414 864.9,414 				"/>
				<polygon class="st31" points="864.9,467.4 864.9,467.4 2176.4,467.4 2176.4,512.6 864.9,512.6 				"/>
				<polygon class="st27" points="864.9,565.9 864.9,565.9 2176.4,565.9 2176.4,611 864.9,611 				"/>
				<polygon class="st22" points="864.9,664.3 864.9,664.3 2176.4,664.3 2176.4,709.5 864.9,709.5 				"/>
				<polygon id="polygon15_00000030454044997956532970000012147162117299404169_" class="st38" points="864.9,762.8 864.9,762.8 
					2176.4,762.8 2176.4,808 864.9,808 				"/>
			</g>
		</g>
		<g>
			<path class="st37" d="M1055.7,157.4c-3.3-29.8-36.3-29-59.5-29c-12.6,0-39.2,0.4-49.4,9c-9.8,8.2-9.8,29.4-9.8,40.8
				c0,11,0.4,25.7,9,33.9c10.2,9.8,38.3,10.6,51.4,10.6c9,0,17.5,0,26.5-1.2c17.9-2.4,28.6-7.7,31.4-26.9h73.4
				c-0.8,21.6-2,42.4-17.9,58.7c-16.7,17.5-42.4,21.2-65.7,22.4c-17.5,0.8-34.7,1.2-52.2,1.2c-31.4,0-76.3,0.8-103.2-17.9
				c-26.1-18.4-24.9-56.7-24.9-84.8c0-27.7-0.4-60.8,22.8-80.3c25.3-21.2,77.9-19.6,108.9-19.6c31,0,84.8-1.2,110.5,19.6
				c6.9,5.7,11.4,11.4,15.1,20c6.1,14.3,6.5,28.1,6.9,43.6h-73.3V157.4z"/>
			<path class="st37" d="M1434.1,209.5c-1.6,18.8-6.5,35.5-21.2,48.1c-24.9,21.6-83.6,19.2-114.2,19.2c-31.8,0-88.1,2.9-114.2-19.2
				c-7.3-6.1-11.8-12.6-15.5-21.2c-8.2-20-6.9-45.3-6.9-66.5c0-10.6,0-21.6,1.2-32.2c1.6-18.4,8.6-34.7,23.7-46.1
				c24.5-18.8,82.8-17.5,111.8-17.5c29.4,0,86.9-1.2,111.8,17.5c6.9,5.3,11.4,10.6,15.5,18.4c10.6,18.8,9.4,42.8,9.4,63.6
				C1435.3,185.6,1434.9,197.7,1434.1,209.5z M1354.2,139.1c-10.6-10.2-41.6-10.6-55.1-10.6c-13.1,0-26.5,0.4-39.2,2.9
				c-25.3,4.9-25.7,24.5-25.7,46.5c0,10.6-0.4,24.9,7.3,33c11,11.8,42.8,11.8,57.5,11.8c13.9,0,28.6,0,42-3.7
				c22.4-6.1,22-26.5,22-46.5C1363.1,161.5,1362.7,147.2,1354.2,139.1z"/>
			<path class="st37" d="M1823.5,271.9v-90.1c0-41.6-4.5-53.4-48.9-53.4c-49.8,0-53.4,19.6-53.4,64v79.5h-72.2v-90.1v-13.5
				c0-35.1-15.1-40-47.7-40c-51.4,0-54.7,18.4-54.7,64v79.6h-72.2V79.1h68.1v29h3.3c13.5-29.8,49.4-33.9,78.3-33.9
				c36.7,0,68.9,6.1,87.7,40.4c14.7-35.9,48.9-40.4,83.6-40.4c28.1,0,59.5,3.3,79.9,24.9c6.9,7.3,12.2,15.1,15.1,24.9
				c5.7,18.8,5.3,38.7,5.3,57.9v90.1H1823.5z"/>
			<path class="st37" d="M2286.3,271.9v-90.1c0-41.6-4.5-53.4-48.9-53.4c-49.8,0-53.4,19.6-53.4,64v79.5h-72.2v-90.1v-13.5
				c0-35.1-15.1-40-47.7-40c-51.4,0-54.7,18.4-54.7,64v79.6h-72.2V79.1h68.1v29h3.3c13.5-29.8,49.4-33.9,78.3-33.9
				c36.7,0,68.9,6.1,87.7,40.4c14.7-35.9,48.9-40.4,83.6-40.4c28.1,0,59.5,3.3,79.9,24.9c6.9,7.3,12.2,15.1,15.1,24.9
				c5.7,18.8,5.3,38.7,5.3,57.9v90.1H2286.3z"/>
			<path class="st37" d="M2668,209.5c-1.6,18.8-6.5,35.5-21.2,48.1c-24.9,21.6-83.6,19.2-114.2,19.2c-31.8,0-88.1,2.9-114.2-19.2
				c-7.3-6.1-11.8-12.6-15.5-21.2c-8.2-20-6.9-45.3-6.9-66.5c0-10.6,0-21.6,1.2-32.2c1.6-18.4,8.6-34.7,23.7-46.1
				c24.5-18.8,82.8-17.5,111.8-17.5c29.4,0,86.9-1.2,111.8,17.5c6.9,5.3,11.4,10.6,15.5,18.4c10.6,18.8,9.4,42.8,9.4,63.6
				C2669.2,185.6,2668.8,197.7,2668,209.5z M2588,139.1c-10.6-10.2-41.6-10.6-55.1-10.6c-13.1,0-26.5,0.4-39.2,2.9
				c-25.3,4.9-25.7,24.5-25.7,46.5c0,10.6-0.4,24.9,7.3,33c11,11.8,42.8,11.8,57.5,11.8c13.9,0,28.5,0,42-3.7
				c22.4-6.1,22-26.5,22-46.5C2597,161.5,2596.6,147.2,2588,139.1z"/>
			<path class="st37" d="M2907.7,271.9v-25.3h-3.7c-4.9,8.2-8.6,13.5-16.7,18.4c-17.9,11-48.1,11.8-68.5,11.8
				c-29.8,0-70.2,0.4-93.8-20.4c-21.2-18.8-20.8-55.9-20.8-82c0-30.2,0.8-66.9,28.6-85.7c24.5-16.3,58.7-14.7,86.9-14.7
				c21.2,0,44.5-0.4,63.2,10.6c9.4,5.3,12.6,10.6,17.9,20h2.9V0h72.2v271.9H2907.7z M2900.3,146.4c-8.6-19.6-39.6-17.9-57.1-17.9
				c-17.9,0-54.2-2-63.2,18.4c-3.3,8.2-3.7,18.8-3.7,27.3c0,11.4-0.4,29,8.2,37.9c9.8,10.6,41.2,10.6,54.2,10.6
				c14.7,0,32.6-0.8,46.5-5.3c19.6-6.1,19.2-24.9,19.2-42.4C2904.4,166,2904,155,2900.3,146.4z"/>
			<path class="st37" d="M3286.9,209.5c-1.6,18.8-6.5,35.5-21.2,48.1c-24.9,21.6-83.6,19.2-114.2,19.2c-31.8,0-88.1,2.9-114.2-19.2
				c-7.3-6.1-11.8-12.6-15.5-21.2c-8.2-20-6.9-45.3-6.9-66.5c0-10.6,0-21.6,1.2-32.2c1.6-18.4,8.6-34.7,23.7-46.1
				c24.5-18.8,82.8-17.5,111.8-17.5c29.4,0,86.9-1.2,111.8,17.5c6.9,5.3,11.4,10.6,15.5,18.4c10.6,18.8,9.4,42.8,9.4,63.6
				C3288.1,185.6,3287.7,197.7,3286.9,209.5z M3207,139.1c-10.6-10.2-41.6-10.6-55.1-10.6c-13.1,0-26.5,0.4-39.2,2.9
				c-25.3,4.9-25.7,24.5-25.7,46.5c0,10.6-0.4,24.9,7.3,33c11,11.8,42.8,11.8,57.5,11.8c13.9,0,28.5,0,42-3.7
				c22.4-6.1,22-26.5,22-46.5C3216,161.5,3215.6,147.2,3207,139.1z"/>
			<path class="st37" d="M3550.8,164.8h-67.7c0-28.6-9.4-36.3-37.9-36.3c-44.5,0-45.7,28.1-45.7,63.6v79.9h-72.2V79.1h68.1v29h3.3
				c16.7-29.8,43.6-33.9,75-33.9c22.4,0,49.4,2.9,64.4,21.6c13.5,16.7,13.1,40.8,13.1,61.2C3551.2,159.5,3550.8,162.3,3550.8,164.8z
				"/>
			<path class="st37" d="M3838.6,191.3h-188.4c0,11-0.4,23.7,9,31.4c9.8,7.7,37.1,8.2,48.9,8.2s44.9,0.4,52.6-8.2
				c3.3-3.3,4.1-7.7,4.9-12.2h71.8c-1.6,18.4-5.3,32.6-19.2,45.3c-24.9,22.4-84.4,21.2-115.8,21.2c-28.5,0-76.3,0.4-99.9-17.9
				c-7.3-5.7-12.2-12.2-16.3-20.4c-9-18.8-8.2-42-8.2-62c0-12.2,0-24.5,1.2-36.3c2-19.6,8.6-37.1,24.9-48.9
				c25.3-18.4,75.9-17.1,105.6-17.1c27.3,0,57.1-0.8,83.6,6.9c42.8,12.6,45.7,51.8,45.7,90.5C3839,178.2,3839,184.8,3838.6,191.3z
				 M3766.4,147.2c0-7.3-0.4-13.1-5.7-18.8c-8.6-9.4-37.9-9.4-49.8-9.4c-11,0-22,0-32.6,1.6c-20.4,2.9-27.7,10.6-28.1,31h116.2
				L3766.4,147.2L3766.4,147.2z"/>
		</g>
		<g>
			<path class="st37" d="M172.4,441.1c0-107.3,87.3-194.5,194.5-194.5c34.4,0,66.8,9,94.9,24.8V86.7c-30.3-8.1-62.1-12.5-94.9-12.5
				C164.3,74.2,0,238.4,0,441.1S164.3,808,366.9,808c32.8,0,64.6-4.4,94.9-12.5V610.8c-28.1,15.8-60.5,24.8-94.9,24.8
				C259.6,635.6,172.4,548.4,172.4,441.1z"/>
			<polygon class="st37" points="461.8,427.8 634.7,427.8 781.5,281 461.8,281 			"/>
			<polygon class="st37" points="461.8,454.5 461.8,601.2 781.5,601.2 634.7,454.5 			"/>
		</g>
	</g>
</g>
</svg>
