<?xml version="1.0" encoding="utf-8"?>
<!-- Generator: Adobe Illustrator 25.4.1, SVG Export Plug-In . SVG Version: 6.00 Build 0)  -->
<svg version="1.1" id="Layer_1" xmlns="http://www.w3.org/2000/svg" xmlns:xlink="http://www.w3.org/1999/xlink" x="0px" y="0px"
	 viewBox="0 0 3839 310.3" style="enable-background:new 0 0 3839 310.3;" xml:space="preserve">
<style type="text/css">
	.st0{fill-rule:evenodd;clip-rule:evenodd;fill:#14A3FD;}
	.st1{fill-rule:evenodd;clip-rule:evenodd;fill:#21ADCA;}
	.st2{fill-rule:evenodd;clip-rule:evenodd;fill:#2EB897;}
	.st3{fill-rule:evenodd;clip-rule:evenodd;fill:#3BC264;}
	.st4{fill-rule:evenodd;clip-rule:evenodd;fill:#48CC31;}
	.st5{fill-rule:evenodd;clip-rule:evenodd;fill:#6AD434;}
	.st6{fill-rule:evenodd;clip-rule:evenodd;fill:#8BDC37;}
	.st7{fill-rule:evenodd;clip-rule:evenodd;fill:#AEE53A;}
	.st8{fill-rule:evenodd;clip-rule:evenodd;fill:#D0ED3D;}
	.st9{fill-rule:evenodd;clip-rule:evenodd;fill:#F2F540;}
	.st10{fill-rule:evenodd;clip-rule:evenodd;fill:#F5D630;}
	.st11{fill-rule:evenodd;clip-rule:evenodd;fill:#F8B621;}
	.st12{fill-rule:evenodd;clip-rule:evenodd;fill:#FA9711;}
	.st13{fill-rule:evenodd;clip-rule:evenodd;fill:#FD7801;}
	.st14{fill-rule:evenodd;clip-rule:evenodd;fill:#F9500E;}
	.st15{fill-rule:evenodd;clip-rule:evenodd;fill:#F6281C;}
	.st16{fill-rule:evenodd;clip-rule:evenodd;fill:#F20029;}
	.st17{fill:#002684;}
	.st18{fill:#F20029;}
	.st19{fill-rule:evenodd;clip-rule:evenodd;fill:#002684;}
	.st20{fill-rule:evenodd;clip-rule:evenodd;fill:#12506F;}
	.st21{fill-rule:evenodd;clip-rule:evenodd;fill:#24795B;}
	.st22{fill-rule:evenodd;clip-rule:evenodd;fill:#36A346;}
	.st23{fill:#FFFFFF;}
	.st24{fill-rule:evenodd;clip-rule:evenodd;fill:#3E3632;}
	.st25{fill:#282422;}
	.st26{fill:url(#SVGID_1_);}
	.st27{fill:url(#SVGID_00000024699669890637883360000013870136635022899621_);}
	.st28{fill:url(#SVGID_00000092423694101765243450000000324449247376557474_);}
	.st29{fill:url(#SVGID_00000052090022712926986520000009795736193800548537_);}
	.st30{fill:url(#SVGID_00000022537762289860667100000003847913456066587778_);}
	.st31{fill:url(#SVGID_00000109713861228982964490000009559374699734638488_);}
	.st32{fill:url(#SVGID_00000176731079613819701900000013172487913401465505_);}
	.st33{fill:url(#SVGID_00000120546943279730836450000003206270395122345398_);}
	.st34{fill:url(#SVGID_00000092446638831693215990000007249764731277373855_);}
	.st35{fill:url(#SVGID_00000083797272460492628140000009353794456905715628_);}
	.st36{fill:url(#SVGID_00000062913624648192231660000011603008504072456099_);}
	.st37{fill:url(#SVGID_00000179618509169502937880000016712766645473311632_);}
	.st38{fill:url(#SVGID_00000084516044373791272200000001534457416101842598_);}
	.st39{fill:url(#SVGID_00000154392329009519178830000001242445365572423828_);}
	.st40{fill:url(#SVGID_00000156579268380207510970000013078301300123227581_);}
	.st41{fill:url(#SVGID_00000129206055529061841140000003643441225168664719_);}
	.st42{fill:url(#SVGID_00000090280342882336552500000014409934797531597220_);}
	.st43{fill:url(#SVGID_00000049921495856635231190000010250764820927869882_);}
	.st44{fill-rule:evenodd;clip-rule:evenodd;fill:#FFFFFF;}
	.st45{fill:url(#SVGID_00000131333321195712706660000010277189120350182027_);}
	.st46{fill:url(#SVGID_00000004522151704329079990000003169523573456095920_);}
	.st47{fill:url(#SVGID_00000018948653943220787020000007753650364073024132_);}
	.st48{fill:url(#SVGID_00000034053891246111270750000012794027808822325680_);}
	.st49{fill:url(#SVGID_00000057127853644191838850000012963652860024576912_);}
	.st50{fill:url(#SVGID_00000080195711499192745300000011642762256530064562_);}
	.st51{fill:url(#SVGID_00000125584803090688204690000005119306430791139766_);}
	.st52{fill:url(#SVGID_00000163058429144334586280000008108182524113264541_);}
	.st53{fill:url(#SVGID_00000019648239786418264800000011165921963280102286_);}
	.st54{fill:url(#SVGID_00000156569516598652000950000002786009478715914405_);}
	.st55{fill:url(#SVGID_00000178911989535529079470000002032860768279504002_);}
	.st56{fill:url(#SVGID_00000124859482145125279100000012123299665218584486_);}
	.st57{fill:url(#SVGID_00000065794511046936570180000003881813752505510841_);}
	.st58{fill:url(#SVGID_00000091702460267623955780000010256915301034280372_);}
	.st59{fill:url(#SVGID_00000004517436855937978890000005564478966620326288_);}
	.st60{fill:url(#SVGID_00000116215563902523168530000009865455496675555719_);}
	.st61{fill:url(#SVGID_00000050637185945904988850000016607008534879243659_);}
	.st62{fill:url(#SVGID_00000088127605558903876950000009326313387620509076_);}
</style>
<g>
	<g>
		<rect class="st44" width="3839" height="310.3"/>
		<rect x="19.8" y="19.8" class="st24" width="3799.4" height="270.7"/>
		<g>
			<polygon id="polygon15_00000042695320801497507470000012967519225670133410_" class="st0" points="1592.3,97.3 1592.3,97.3 
				1592.3,213 1573.7,213 1573.7,97.3 			"/>
			<polygon class="st0" points="1633.6,97.3 1633.6,97.3 1633.6,213 1615,213 1615,97.3 			"/>
			<polygon class="st0" points="1674.8,97.3 1674.8,97.3 1674.8,213 1656.2,213 1656.2,97.3 			"/>
			<polygon class="st0" points="1716.1,97.3 1716.1,97.3 1716.1,213 1697.5,213 1697.5,97.3 			"/>
			<polygon class="st0" points="1757.2,97.3 1757.2,97.3 1757.2,213 1738.6,213 1738.6,97.3 			"/>
			<polygon class="st4" points="1798.5,97.3 1798.5,97.3 1798.5,213 1779.8,213 1779.8,97.3 			"/>
			<polygon class="st4" points="1839.7,97.3 1839.7,97.3 1839.7,213 1821.1,213 1821.1,97.3 			"/>
			<polygon class="st4" points="1880.9,97.3 1880.9,97.3 1880.9,213 1862.3,213 1862.3,97.3 			"/>
			<polygon class="st4" points="1922.2,97.3 1922.2,97.3 1922.2,213 1903.6,213 1903.6,97.3 			"/>
			<polygon class="st4" points="1963.4,97.3 1963.4,97.3 1963.4,213 1944.8,213 1944.8,97.3 			"/>
			<polygon class="st4" points="2004.7,97.3 2004.7,97.3 2004.7,213 1986.1,213 1986.1,97.3 			"/>
			<polygon class="st4" points="2045.9,97.3 2045.9,97.3 2045.9,213 2027.3,213 2027.3,97.3 			"/>
			<polygon class="st9" points="2087.2,97.3 2087.2,97.3 2087.2,213 2068.6,213 2068.6,97.3 			"/>
			<polygon class="st9" points="2128.3,97.3 2128.3,97.3 2128.3,213 2109.8,213 2109.8,97.3 			"/>
			<polygon class="st9" points="2169.6,97.3 2169.6,97.3 2169.6,213 2150.9,213 2150.9,97.3 			"/>
			<polygon class="st9" points="2210.8,97.3 2210.8,97.3 2210.8,213 2192.2,213 2192.2,97.3 			"/>
			<polygon class="st9" points="2252,97.3 2252,97.3 2252,213 2233.4,213 2233.4,97.3 			"/>
			<polygon class="st9" points="2293.3,97.3 2293.3,97.3 2293.3,213 2274.7,213 2274.7,97.3 			"/>
			<polygon class="st9" points="2334.5,97.3 2334.5,97.3 2334.5,213 2315.9,213 2315.9,97.3 			"/>
			<polygon class="st9" points="2375.8,97.3 2375.8,97.3 2375.8,213 2357.2,213 2357.2,97.3 			"/>
			<polygon class="st9" points="2417,97.3 2417,97.3 2417,213 2398.4,213 2398.4,97.3 			"/>
			<polygon class="st9" points="2458.3,97.3 2458.3,97.3 2458.3,213 2439.7,213 2439.7,97.3 			"/>
			<polygon class="st9" points="2499.4,97.3 2499.4,97.3 2499.4,213 2480.9,213 2480.9,97.3 			"/>
			<polygon class="st9" points="2540.7,97.3 2540.7,97.3 2540.7,213 2522,213 2522,97.3 			"/>
			<polygon class="st9" points="2581.9,97.3 2581.9,97.3 2581.9,213 2563.3,213 2563.3,97.3 			"/>
			<polygon class="st9" points="2623.1,97.3 2623.1,97.3 2623.1,213 2604.5,213 2604.5,97.3 			"/>
			<polygon class="st9" points="2664.4,97.3 2664.4,97.3 2664.4,213 2645.8,213 2645.8,97.3 			"/>
			<polygon class="st9" points="2705.6,97.3 2705.6,97.3 2705.6,213 2687,213 2687,97.3 			"/>
			<polygon class="st13" points="2746.9,97.3 2746.9,97.3 2746.9,213 2728.3,213 2728.3,97.3 			"/>
			<polygon class="st13" points="2788.1,97.3 2788.1,97.3 2788.1,213 2769.5,213 2769.5,97.3 			"/>
			<polygon class="st13" points="2829.4,97.3 2829.4,97.3 2829.4,213 2810.8,213 2810.8,97.3 			"/>
			<polygon class="st16" points="2870.6,97.3 2870.6,97.3 2870.6,213 2852,213 2852,97.3 			"/>
			<polygon class="st16" points="2911.8,97.3 2911.8,97.3 2911.8,213 2893.1,213 2893.1,97.3 			"/>
			<polygon class="st16" points="2953,97.3 2953,97.3 2953,213 2934.4,213 2934.4,97.3 			"/>
			<polygon class="st16" points="2994.2,97.3 2994.2,97.3 2994.2,213 2975.6,213 2975.6,97.3 			"/>
			<polygon class="st16" points="3035.5,97.3 3035.5,97.3 3035.5,213 3016.9,213 3016.9,97.3 			"/>
			<polygon id="polygon15_00000155835366192976434130000008650706249603470513_" class="st16" points="3076.7,97.3 3076.7,97.3 
				3076.7,213 3058.1,213 3058.1,97.3 			"/>
		</g>
		<g>
			<path class="st23" d="M393.8,148.4c-1.3-12.1-14.8-11.8-24.2-11.8c-5.1,0-15.9,0.2-20.1,3.7c-4,3.3-4,12-4,16.6
				c0,4.5,0.2,10.5,3.7,13.8c4.2,4,15.6,4.3,20.9,4.3c3.7,0,7.1,0,10.8-0.5c7.3-1,11.6-3.2,12.8-11h29.9c-0.3,8.8-0.8,17.3-7.3,23.9
				c-6.8,7.1-17.3,8.6-26.7,9.1c-7.1,0.3-14.1,0.5-21.3,0.5c-12.8,0-31.1,0.3-42-7.3c-10.6-7.5-10.1-23.1-10.1-34.5
				c0-11.3-0.2-24.7,9.3-32.7c10.3-8.6,31.7-8,44.3-8s34.5-0.5,45,8c2.8,2.3,4.6,4.7,6.1,8.1c2.5,5.8,2.7,11.5,2.8,17.8L393.8,148.4
				L393.8,148.4z"/>
			<path class="st23" d="M547.9,169.6c-0.7,7.6-2.7,14.4-8.6,19.6c-10.1,8.8-34,7.8-46.5,7.8c-13,0-35.9,1.2-46.5-7.8
				c-3-2.5-4.8-5.1-6.3-8.6c-3.3-8.1-2.8-18.4-2.8-27.1c0-4.3,0-8.8,0.5-13.1c0.7-7.5,3.5-14.1,9.6-18.8c10-7.6,33.7-7.1,45.5-7.1
				c12,0,35.4-0.5,45.5,7.1c2.8,2.2,4.6,4.3,6.3,7.5c4.3,7.6,3.8,17.4,3.8,25.9C548.4,159.8,548.2,164.8,547.9,169.6z M515.3,140.9
				c-4.3-4.2-16.9-4.3-22.4-4.3c-5.3,0-10.8,0.2-15.9,1.2c-10.3,2-10.5,10-10.5,18.9c0,4.3-0.2,10.1,3,13.5
				c4.5,4.8,17.4,4.8,23.4,4.8c5.6,0,11.6,0,17.1-1.5c9.1-2.5,9-10.8,9-18.9C519,150,518.8,144.2,515.3,140.9z"/>
			<path class="st23" d="M706.4,195v-36.7c0-16.9-1.8-21.8-19.9-21.8c-20.3,0-21.8,8-21.8,26.1V195h-29.4v-36.7v-5.5
				c0-14.3-6.1-16.3-19.4-16.3c-20.9,0-22.3,7.5-22.3,26.1V195h-29.4v-78.6h27.7v11.8h1.3c5.5-12.1,20.1-13.8,31.9-13.8
				c14.9,0,28.1,2.5,35.7,16.4c6-14.6,19.9-16.4,34-16.4c11.5,0,24.2,1.3,32.6,10.1c2.8,3,5,6.1,6.1,10.1c2.3,7.6,2.2,15.8,2.2,23.6
				v36.7L706.4,195L706.4,195z"/>
			<path class="st23" d="M894.8,195v-36.7c0-16.9-1.8-21.8-19.9-21.8c-20.3,0-21.8,8-21.8,26.1V195h-29.3v-36.7v-5.5
				c0-14.3-6.1-16.3-19.4-16.3c-20.9,0-22.3,7.5-22.3,26.1V195h-29.4v-78.6h27.7v11.8h1.3c5.5-12.1,20.1-13.8,31.9-13.8
				c14.9,0,28.1,2.5,35.7,16.4c6-14.6,19.9-16.4,34-16.4c11.5,0,24.2,1.3,32.6,10.1c2.8,3,5,6.1,6.1,10.1c2.3,7.6,2.2,15.8,2.2,23.6
				v36.7L894.8,195L894.8,195z"/>
			<path class="st23" d="M1050.1,169.6c-0.7,7.6-2.7,14.4-8.6,19.6c-10.1,8.8-34,7.8-46.5,7.8c-13,0-35.9,1.2-46.5-7.8
				c-3-2.5-4.8-5.1-6.3-8.6c-3.3-8.1-2.8-18.4-2.8-27.1c0-4.3,0-8.8,0.5-13.1c0.7-7.5,3.5-14.1,9.6-18.8c10-7.6,33.7-7.1,45.5-7.1
				c12,0,35.4-0.5,45.5,7.1c2.8,2.2,4.6,4.3,6.3,7.5c4.3,7.6,3.8,17.4,3.8,25.9C1050.6,159.8,1050.5,164.8,1050.1,169.6z
				 M1017.6,140.9c-4.3-4.2-16.9-4.3-22.4-4.3c-5.3,0-10.8,0.2-15.9,1.2c-10.3,2-10.5,10-10.5,18.9c0,4.3-0.2,10.1,3,13.5
				c4.5,4.8,17.4,4.8,23.4,4.8c5.6,0,11.6,0,17.1-1.5c9.1-2.5,9-10.8,9-18.9C1021.2,150,1021.1,144.2,1017.6,140.9z"/>
			<path class="st23" d="M1147.8,195v-10.3h-1.5c-2,3.3-3.5,5.5-6.8,7.5c-7.3,4.5-19.6,4.8-27.9,4.8c-12.1,0-28.6,0.2-38.2-8.3
				c-8.6-7.6-8.5-22.8-8.5-33.4c0-12.3,0.3-27.2,11.6-34.9c10-6.6,23.9-6,35.4-6c8.6,0,18.1-0.2,25.7,4.3c3.8,2.2,5.1,4.3,7.3,8.1
				h1.2V84.3h29.4V195H1147.8z M1144.8,143.9c-3.5-8-16.1-7.3-23.3-7.3c-7.3,0-22.1-0.8-25.7,7.5c-1.3,3.3-1.5,7.6-1.5,11.1
				c0,4.7-0.2,11.8,3.3,15.4c4,4.3,16.8,4.3,22.1,4.3c6,0,13.3-0.3,18.9-2.2c8-2.5,7.8-10.1,7.8-17.3
				C1146.4,151.9,1146.3,147.4,1144.8,143.9z"/>
			<path class="st23" d="M1302.2,169.6c-0.7,7.6-2.7,14.4-8.6,19.6c-10.1,8.8-34,7.8-46.5,7.8c-13,0-35.9,1.2-46.5-7.8
				c-3-2.5-4.8-5.1-6.3-8.6c-3.3-8.1-2.8-18.4-2.8-27.1c0-4.3,0-8.8,0.5-13.1c0.7-7.5,3.5-14.1,9.6-18.8c10-7.6,33.7-7.1,45.5-7.1
				c12,0,35.4-0.5,45.5,7.1c2.8,2.2,4.6,4.3,6.3,7.5c4.3,7.6,3.8,17.4,3.8,25.9C1302.7,159.8,1302.5,164.8,1302.2,169.6z
				 M1269.6,140.9c-4.3-4.2-16.9-4.3-22.4-4.3c-5.3,0-10.8,0.2-15.9,1.2c-10.3,2-10.5,10-10.5,18.9c0,4.3-0.2,10.1,3,13.5
				c4.5,4.8,17.4,4.8,23.4,4.8c5.6,0,11.6,0,17.1-1.5c9.1-2.5,9-10.8,9-18.9C1273.3,150,1273.1,144.2,1269.6,140.9z"/>
			<path class="st23" d="M1409.5,151.4h-27.6c0-11.6-3.8-14.8-15.4-14.8c-18.1,0-18.6,11.5-18.6,25.9V195h-29.4v-78.6h27.7v11.8h1.3
				c6.8-12.1,17.8-13.8,30.6-13.8c9.1,0,20.1,1.2,26.2,8.8c5.5,6.8,5.3,16.6,5.3,24.9C1409.7,149.2,1409.5,150.4,1409.5,151.4z"/>
			<path class="st23" d="M1526.8,162.2h-76.7c0,4.5-0.2,9.6,3.7,12.8c4,3.2,15.1,3.3,19.9,3.3s18.3,0.2,21.4-3.3
				c1.3-1.3,1.7-3.2,2-5h29.2c-0.7,7.5-2.2,13.3-7.8,18.4c-10.1,9.1-34.4,8.6-47.2,8.6c-11.6,0-31.1,0.2-40.7-7.3
				c-3-2.3-5-5-6.6-8.3c-3.7-7.6-3.3-17.1-3.3-25.2c0-5,0-10,0.5-14.8c0.8-8,3.5-15.1,10.1-19.9c10.3-7.5,30.9-7,43-7
				c11.1,0,23.3-0.3,34,2.8c17.4,5.2,18.6,21.1,18.6,36.9C1526.9,156.9,1526.9,159.5,1526.8,162.2z M1497.4,144.2
				c0-3-0.2-5.3-2.3-7.6c-3.5-3.8-15.4-3.8-20.3-3.8c-4.5,0-9,0-13.3,0.7c-8.3,1.2-11.3,4.3-11.5,12.6h47.3v-1.9H1497.4z"/>
		</g>
		<g>
			<path class="st23" d="M3247.5,170.1c-0.8,7.1-2.9,14.1-8.6,18.8c-8.3,7-26.1,7-36.3,7c-12.5,0-25.4,0.2-32.6-11.8h-1.3v41.8H3140
				V117.3h27.1v10.4h1.5c6.6-12.8,22.5-12.3,35.2-12.3c15.1,0,36,0,42,17c2.4,7,2.4,16.4,2.4,23.7
				C3248.1,160.7,3247.9,165.4,3247.5,170.1z M3216.8,141.9c-4.1-5.2-16-5-21.9-5c-7.1,0-21.2-1-24.6,7.1c-1.6,3.6-1.6,8.6-1.6,12.5
				c0,4.2,0.2,8.9,2.6,12.5c3.7,5.3,17.2,5.3,22.9,5.3c5.5,0,11.8-0.2,17.2-1.6c8.8-2.4,8.1-11,8.1-18.6
				C3219.4,149.9,3219.6,145.5,3216.8,141.9z"/>
			<path class="st23" d="M3264.9,193.9V85.9h28.7v108.1H3264.9z"/>
			<path class="st23" d="M3388.4,193.9v-11.5h-1.5c-6,12.8-20.6,13.4-32.9,13.4c-15.4,0-33.7-2.1-39.9-18.6
				c-2.9-7.9-2.6-16.5-2.6-25v-35h28.5v35c0,18.8,3.6,22,22.5,22c22,0,24.1-5.7,24.1-26.3v-30.8h28.5v76.8H3388.4z"/>
			<path class="st23" d="M3531.7,187.5c-8.9,8.9-37,8.4-48.5,8.4c-12.5,0-34.5,1-44.6-7.9c-5.5-4.9-6.6-11.3-6.8-18.5h29.2
				c0.6,7,7.8,7.8,13.3,8.3c3.6,0.3,7.1,0.3,10.7,0.3c5,0,18.6,0.3,22.5-3.2c1.1-1,1.6-2.4,1.6-3.9c0-6.3-8.9-6-13.3-6
				c-5.3,0-10.7-0.2-16-0.2c-5.5,0-11,0-16.5,0c-17.2,0-30.8-4-30.8-23.8c0-12.2,4.9-20.3,17-23.2c11.2-2.6,24.5-2.4,35.8-2.4
				c12,0,32.9-0.8,42.3,7c5,4.2,5.7,10.5,6.2,16.7h-29.2c-0.3-1.6-0.6-2.8-2.1-3.7c-3.1-2.1-14.6-2.1-18.2-2.1
				c-4.7,0-17.3-0.2-21.4,2.6c-1.1,1-1.8,2.1-1.8,3.6c0,4.2,3.4,4.9,6.8,5.2c7.3,0.6,15.7,0.5,23,0.5l16,0.2
				c18,0.2,30.6,3.6,30.6,24C3537.7,175.7,3536.5,182.6,3531.7,187.5z"/>
			<path class="st23" d="M3557.6,217.2h-20.5l89.3-154.8h20.7L3557.6,217.2z"/>
			<path class="st23" d="M3755.9,173.9v20.1h-31.3v-20.1h-86.2v-41.3l64.2-46.7h53.3v63.7h20.9v24.3H3755.9z M3724.7,111h-6.6
				l-50.2,34.4v4.2h56.9L3724.7,111L3724.7,111z"/>
		</g>
		<g>
			<path class="st23" d="M115.4,155.2c0-25.5,20.7-46.2,46.2-46.2c8.2,0,15.9,2.1,22.5,5.9V71c-7.2-1.9-14.7-3-22.5-3
				c-48.1,0-87.1,39-87.1,87.1s39,87.1,87.1,87.1c7.8,0,15.3-1,22.5-3v-43.9c-6.7,3.7-14.3,5.9-22.5,5.9
				C136.1,201.3,115.4,180.6,115.4,155.2z"/>
			<polygon class="st23" points="184.1,152 225.1,152 259.9,117.2 184.1,117.2 			"/>
			<polygon class="st23" points="184.1,158.4 184.1,193.1 259.9,193.1 225.1,158.4 			"/>
		</g>
	</g>
</g>
</svg>
