<?xml version="1.0" encoding="utf-8"?>
<!-- Generator: Adobe Illustrator 25.4.1, SVG Export Plug-In . SVG Version: 6.00 Build 0)  -->
<svg version="1.1" id="Layer_1" xmlns="http://www.w3.org/2000/svg" xmlns:xlink="http://www.w3.org/1999/xlink" x="0px" y="0px"
	 viewBox="0 0 3839 419.3" style="enable-background:new 0 0 3839 419.3;" xml:space="preserve">
<style type="text/css">
	.st0{fill-rule:evenodd;clip-rule:evenodd;fill:#002684;}
	.st1{fill-rule:evenodd;clip-rule:evenodd;fill:#12506F;}
	.st2{fill-rule:evenodd;clip-rule:evenodd;fill:#247A5B;}
	.st3{fill-rule:evenodd;clip-rule:evenodd;fill:#36A346;}
	.st4{fill-rule:evenodd;clip-rule:evenodd;fill:#48CD31;}
	.st5{fill-rule:evenodd;clip-rule:evenodd;fill:#6AD534;}
	.st6{fill-rule:evenodd;clip-rule:evenodd;fill:#8CDD37;}
	.st7{fill-rule:evenodd;clip-rule:evenodd;fill:#AFE63A;}
	.st8{fill-rule:evenodd;clip-rule:evenodd;fill:#D1EE3D;}
	.st9{fill-rule:evenodd;clip-rule:evenodd;fill:#F3F640;}
	.st10{fill-rule:evenodd;clip-rule:evenodd;fill:#F6D730;}
	.st11{fill-rule:evenodd;clip-rule:evenodd;fill:#F9B721;}
	.st12{fill-rule:evenodd;clip-rule:evenodd;fill:#FB9811;}
	.st13{fill-rule:evenodd;clip-rule:evenodd;fill:#FE7801;}
	.st14{fill-rule:evenodd;clip-rule:evenodd;fill:#FE5C13;}
	.st15{fill-rule:evenodd;clip-rule:evenodd;fill:#FE4125;}
	.st16{fill-rule:evenodd;clip-rule:evenodd;fill:#FE2537;}
	.st17{fill-rule:evenodd;clip-rule:evenodd;fill:#14A4FE;}
	.st18{fill-rule:evenodd;clip-rule:evenodd;fill:#21AECB;}
	.st19{fill-rule:evenodd;clip-rule:evenodd;fill:#2EB998;}
	.st20{fill-rule:evenodd;clip-rule:evenodd;fill:#3BC364;}
	.st21{fill-rule:evenodd;clip-rule:evenodd;fill:#24795B;}
	.st22{fill-rule:evenodd;clip-rule:evenodd;fill:#48CC31;}
	.st23{fill-rule:evenodd;clip-rule:evenodd;fill:#6AD434;}
	.st24{fill-rule:evenodd;clip-rule:evenodd;fill:#8BDC37;}
	.st25{fill-rule:evenodd;clip-rule:evenodd;fill:#AEE53A;}
	.st26{fill-rule:evenodd;clip-rule:evenodd;fill:#D0ED3D;}
	.st27{fill-rule:evenodd;clip-rule:evenodd;fill:#F2F540;}
	.st28{fill-rule:evenodd;clip-rule:evenodd;fill:#F5D630;}
	.st29{fill-rule:evenodd;clip-rule:evenodd;fill:#F8B621;}
	.st30{fill-rule:evenodd;clip-rule:evenodd;fill:#FA9711;}
	.st31{fill-rule:evenodd;clip-rule:evenodd;fill:#FD7801;}
	.st32{fill-rule:evenodd;clip-rule:evenodd;fill:#F9500E;}
	.st33{fill-rule:evenodd;clip-rule:evenodd;fill:#F6281C;}
	.st34{fill-rule:evenodd;clip-rule:evenodd;fill:#F20029;}
	.st35{fill:#002684;}
	.st36{fill:#F20029;}
	.st37{fill:#FFFFFF;}
	.st38{fill-rule:evenodd;clip-rule:evenodd;fill:#14A3FD;}
	.st39{fill-rule:evenodd;clip-rule:evenodd;fill:#3E3632;}
	.st40{fill:#282422;}
	.st41{fill:url(#SVGID_1_);}
	.st42{fill:url(#SVGID_00000019658244697152652000000003248004911753227180_);}
	.st43{fill:url(#SVGID_00000052094665358585941070000000657533999188027285_);}
	.st44{fill:url(#SVGID_00000085931071467123729870000004106395383633443767_);}
	.st45{fill:url(#SVGID_00000000935328128357724870000014860771755204207014_);}
	.st46{fill:url(#SVGID_00000016076428963630552400000017684322414713456306_);}
	.st47{fill:url(#SVGID_00000060023721287282931280000002997777736727839363_);}
	.st48{fill:url(#SVGID_00000089546899428600133320000008673575154210545295_);}
	.st49{fill:url(#SVGID_00000016035129759926728130000017746997842417823137_);}
	.st50{fill:url(#SVGID_00000168799963015372810060000007111576529997502339_);}
	.st51{fill:url(#SVGID_00000142861333827060398100000013884507113671904433_);}
	.st52{fill:url(#SVGID_00000041978809783320520830000002444974205175409592_);}
	.st53{fill:url(#SVGID_00000036966764401079351000000012664945709371858848_);}
	.st54{fill:url(#SVGID_00000085930465635161428230000007872199127459435693_);}
	.st55{fill:url(#SVGID_00000015335800308674019350000011909060474773026751_);}
	.st56{fill:url(#SVGID_00000042699971030785256660000007099055576224947647_);}
	.st57{fill:url(#SVGID_00000115498941681648639270000007160270837400864898_);}
	.st58{fill:url(#SVGID_00000133513650669943139170000003102529627682406576_);}
	.st59{fill:url(#SVGID_00000026122811862955014980000002565611167397238444_);}
	.st60{fill:url(#SVGID_00000030473167171905000360000005339466049449207221_);}
	.st61{fill:url(#SVGID_00000172428895577874344130000000621383456873671602_);}
	.st62{fill:url(#SVGID_00000116230048253784540650000000300223099237409967_);}
	.st63{fill:url(#SVGID_00000166646792902750717330000002980596751970562446_);}
	.st64{fill:url(#SVGID_00000173121390130532810320000017990287815121557146_);}
	.st65{fill:url(#SVGID_00000147210968039927262180000002417114243365274767_);}
	.st66{fill:url(#SVGID_00000143593984930957310540000013598227230637705610_);}
	.st67{fill:url(#SVGID_00000127007416765092689430000000471684304455795622_);}
	.st68{fill:url(#SVGID_00000091718192139790585030000009427343579665583762_);}
	.st69{fill:url(#SVGID_00000107569092627963732520000002870103251342453177_);}
	.st70{fill-rule:evenodd;clip-rule:evenodd;fill:#FFFFFF;}
	.st71{fill:url(#SVGID_00000159455447408720840460000003765285072060015537_);}
	.st72{fill:url(#SVGID_00000017486736064462233990000012703936998850210704_);}
	.st73{fill:url(#SVGID_00000000215668688073640500000012973672104125836450_);}
	.st74{fill:url(#SVGID_00000034803878721887355340000009916977940209349257_);}
	.st75{fill:url(#SVGID_00000076570587181939686700000018105175326399456912_);}
	.st76{fill:url(#SVGID_00000049209292036475844290000014852566015479783304_);}
	.st77{fill:url(#SVGID_00000025400956061719367160000007943163238514748058_);}
	.st78{fill:url(#SVGID_00000066487909424374258390000001480835447082319037_);}
	.st79{fill:url(#SVGID_00000095315653266816586000000002902483709534701747_);}
	.st80{fill:url(#SVGID_00000130639016763246570490000008444555172675363223_);}
	.st81{fill:url(#SVGID_00000002370554988301449390000003143480892943282308_);}
	.st82{fill:url(#SVGID_00000116217489233512279000000015848033205480044194_);}
	.st83{fill:url(#SVGID_00000181075728276443755610000006054940792690644380_);}
	.st84{fill:url(#SVGID_00000058551080515025715420000013714349012008840588_);}
	.st85{fill:url(#SVGID_00000008121145479305728940000013840298272196798892_);}
	.st86{fill:url(#SVGID_00000134241117018894352950000005471825347751231912_);}
	.st87{fill:url(#SVGID_00000075125431332494252510000015866724876271206041_);}
	.st88{fill:url(#SVGID_00000112617050629666289690000006396162870447908262_);}
	.st89{fill:url(#SVGID_00000021838520339956497880000001912974370006109324_);}
	.st90{fill:url(#SVGID_00000080199928877602186090000007969567237067442844_);}
	.st91{fill:url(#SVGID_00000037692680216777713130000015500146212562079420_);}
	.st92{fill:url(#SVGID_00000156572012886952274270000015188865903774961805_);}
	.st93{fill:url(#SVGID_00000023283265746442512250000008479364224357778603_);}
	.st94{fill:url(#SVGID_00000094611074346391601710000012181244787894175905_);}
	.st95{fill:url(#SVGID_00000119833920761872598590000003394063008256272317_);}
	.st96{fill:url(#SVGID_00000060013761401896145720000016606668429833402756_);}
	.st97{fill:url(#SVGID_00000161610625255738031940000012688269423315553453_);}
	.st98{fill:url(#SVGID_00000165949340924549697500000001432013962445106875_);}
	.st99{fill:url(#SVGID_00000070097475329551346660000005614385499061192075_);}
	.st100{fill:#0F2166;}
	.st101{fill:#FD2537;}
</style>
<g>
	<g>
		<g>
			<path class="st70" d="M209.5,419.1c-55.8,0-108.4-21.9-148.1-61.6C21.9,317.9,0,265.3,0,209.5S21.9,101.2,61.6,61.5
				C101.3,21.9,153.8,0,209.5,0h3419.8c55.8,0,108.4,21.9,148.1,61.6s61.6,92.3,61.6,148.1s-21.9,108.4-61.6,148.1
				c-39.7,39.7-92.3,61.6-148.1,61.6H209.5V419.1z"/>
			<path id="path5_00000055697817326251641040000009980549056664600993_" class="st39" d="M3629.4,19.8
				c104.4,0,189.7,85.4,189.7,189.7l0,0c0,104.4-85.4,189.7-189.7,189.7H209.5c-104.4,0-189.7-85.4-189.7-189.7l0,0
				c0-104.4,85.4-189.7,189.7-189.7L3629.4,19.8L3629.4,19.8z"/>
			<g>
				<polygon id="polygon7_00000141413584445773947190000000301444524812215435_" class="st34" points="2112,74.7 2112,74.7 
					3119.4,74.7 3119.4,102.5 2112,102.5 				"/>
				<polygon class="st31" points="2112,135.2 2112,135.2 3119.4,135.2 3119.4,163 2112,163 				"/>
				<polygon class="st27" points="2112,195.6 2112,195.6 3119.4,195.6 3119.4,223.4 2112,223.4 				"/>
				<polygon class="st22" points="2112,256.1 2112,256.1 3119.4,256.1 3119.4,283.9 2112,283.9 				"/>
				<polygon id="polygon15_00000021829752379904631570000007853972765542602407_" class="st38" points="2112,316.7 2112,316.7 
					3119.4,316.7 3119.4,344.4 2112,344.4 				"/>
			</g>
		</g>
		<g>
			<path class="st40" d="M520.5,212.7c-1.8-16.2-19.8-15.8-32.4-15.8c-6.9,0-21.3,0.2-26.9,4.9c-5.3,4.4-5.3,16-5.3,22.2
				c0,6,0.2,14,4.9,18.4c5.6,5.3,20.9,5.8,28,5.8c4.9,0,9.6,0,14.4-0.7c9.8-1.3,15.6-4.2,17.1-14.7h40c-0.4,11.8-1.1,23.1-9.8,32
				c-9.1,9.6-23.1,11.6-35.8,12.2c-9.6,0.4-18.9,0.7-28.4,0.7c-17.1,0-41.6,0.4-56.2-9.8c-14.2-10-13.6-30.9-13.6-46.2
				c0-15.1-0.2-33.1,12.4-43.8c13.8-11.6,42.5-10.7,59.3-10.7c16.9,0,46.2-0.7,60.2,10.7c3.8,3.1,6.2,6.2,8.2,10.9
				c3.3,7.8,3.6,15.3,3.8,23.8L520.5,212.7L520.5,212.7z"/>
			<path class="st40" d="M726.6,241.1c-0.9,10.2-3.6,19.3-11.6,26.2c-13.6,11.8-45.6,10.4-62.2,10.4c-17.3,0-48,1.6-62.2-10.4
				c-4-3.3-6.4-6.9-8.4-11.6c-4.4-10.9-3.8-24.7-3.8-36.2c0-5.8,0-11.8,0.7-17.6c0.9-10,4.7-18.9,12.9-25.1
				c13.3-10.2,45.1-9.6,60.9-9.6c16,0,47.3-0.7,60.9,9.6c3.8,2.9,6.2,5.8,8.4,10c5.8,10.2,5.1,23.3,5.1,34.7
				C727.3,228,727.1,234.7,726.6,241.1z M683.1,202.7c-5.8-5.6-22.7-5.8-30-5.8c-7.1,0-14.4,0.2-21.3,1.6c-13.8,2.7-14,13.3-14,25.3
				c0,5.8-0.2,13.6,4,18c6,6.4,23.3,6.4,31.3,6.4c7.6,0,15.6,0,22.9-2c12.2-3.3,12-14.4,12-25.3C688,214.9,687.7,207.1,683.1,202.7z
				"/>
			<path class="st40" d="M938.8,275.2v-49.1c0-22.7-2.4-29.1-26.7-29.1c-27.1,0-29.1,10.7-29.1,34.9v43.3h-39.3v-49.1v-7.3
				c0-19.1-8.2-21.8-26-21.8c-28,0-29.8,10-29.8,34.9v43.3h-39.3V170.1h37.1v15.8h1.8c7.3-16.2,26.9-18.4,42.7-18.4
				c20,0,37.6,3.3,47.8,22c8-19.6,26.7-22,45.6-22c15.3,0,32.4,1.8,43.6,13.6c3.8,4,6.7,8.2,8.2,13.6c3.1,10.2,2.9,21.1,2.9,31.6
				v49.1h-39.5V275.2z"/>
			<path class="st40" d="M1191.1,275.2v-49.1c0-22.7-2.4-29.1-26.7-29.1c-27.1,0-29.1,10.7-29.1,34.9v43.3H1096v-49.1v-7.3
				c0-19.1-8.2-21.8-26-21.8c-28,0-29.8,10-29.8,34.9v43.3h-39.3V170.1h37.1v15.8h1.8c7.3-16.2,26.9-18.4,42.7-18.4
				c20,0,37.6,3.3,47.8,22c8-19.6,26.7-22,45.6-22c15.3,0,32.4,1.8,43.6,13.6c3.8,4,6.7,8.2,8.2,13.6c3.1,10.2,2.9,21.1,2.9,31.6
				v49.1h-39.5V275.2z"/>
			<path class="st40" d="M1399.1,241.1c-0.9,10.2-3.6,19.3-11.6,26.2c-13.6,11.8-45.6,10.4-62.2,10.4c-17.3,0-48,1.6-62.2-10.4
				c-4-3.3-6.4-6.9-8.4-11.6c-4.4-10.9-3.8-24.7-3.8-36.2c0-5.8,0-11.8,0.7-17.6c0.9-10,4.7-18.9,12.9-25.1
				c13.3-10.2,45.1-9.6,60.9-9.6c16,0,47.3-0.7,60.9,9.6c3.8,2.9,6.2,5.8,8.4,10c5.8,10.2,5.1,23.3,5.1,34.7
				C1399.7,228,1399.5,234.7,1399.1,241.1z M1355.5,202.7c-5.8-5.6-22.7-5.8-30-5.8c-7.1,0-14.4,0.2-21.3,1.6
				c-13.8,2.7-14,13.3-14,25.3c0,5.8-0.2,13.6,4,18c6,6.4,23.3,6.4,31.3,6.4c7.6,0,15.6,0,22.9-2c12.2-3.3,12-14.4,12-25.3
				C1360.4,214.9,1360.2,207.1,1355.5,202.7z"/>
			<path class="st40" d="M1529.8,275.2v-13.8h-2c-2.7,4.4-4.7,7.3-9.1,10c-9.8,6-26.2,6.4-37.3,6.4c-16.2,0-38.2,0.2-51.1-11.1
				c-11.6-10.2-11.3-30.4-11.3-44.7c0-16.4,0.4-36.4,15.6-46.7c13.3-8.9,32-8,47.3-8c11.6,0,24.2-0.2,34.4,5.8
				c5.1,2.9,6.9,5.8,9.8,10.9h1.6V127h39.3v148.2L1529.8,275.2L1529.8,275.2z M1525.8,206.7c-4.7-10.7-21.6-9.8-31.1-9.8
				c-9.8,0-29.6-1.1-34.4,10c-1.8,4.4-2,10.2-2,14.9c0,6.2-0.2,15.8,4.4,20.7c5.3,5.8,22.4,5.8,29.6,5.8c8,0,17.8-0.4,25.3-2.9
				c10.7-3.3,10.4-13.6,10.4-23.1C1528,217.4,1527.8,211.4,1525.8,206.7z"/>
			<path class="st40" d="M1736.4,241.1c-0.9,10.2-3.6,19.3-11.6,26.2c-13.6,11.8-45.6,10.4-62.2,10.4c-17.3,0-48,1.6-62.2-10.4
				c-4-3.3-6.4-6.9-8.4-11.6c-4.4-10.9-3.8-24.7-3.8-36.2c0-5.8,0-11.8,0.7-17.6c0.9-10,4.7-18.9,12.9-25.1
				c13.3-10.2,45.1-9.6,60.9-9.6c16,0,47.3-0.7,60.9,9.6c3.8,2.9,6.2,5.8,8.4,10c5.8,10.2,5.1,23.3,5.1,34.7
				C1737.1,228,1736.8,234.7,1736.4,241.1z M1692.8,202.7c-5.8-5.6-22.7-5.8-30-5.8c-7.1,0-14.4,0.2-21.3,1.6
				c-13.8,2.7-14,13.3-14,25.3c0,5.8-0.2,13.6,4,18c6,6.4,23.3,6.4,31.3,6.4c7.6,0,15.6,0,22.9-2c12.2-3.3,12-14.4,12-25.3
				C1697.7,214.9,1697.5,207.1,1692.8,202.7z"/>
			<path class="st40" d="M1880.2,216.7h-36.9c0-15.6-5.1-19.8-20.7-19.8c-24.2,0-24.9,15.3-24.9,34.7v43.6h-39.3V170.1h37.1v15.8
				h1.8c9.1-16.2,23.8-18.4,40.9-18.4c12.2,0,26.9,1.6,35.1,11.8c7.3,9.1,7.1,22.2,7.1,33.3C1880.4,213.8,1880.2,215.4,1880.2,216.7
				z"/>
			<path class="st40" d="M2037,231.1h-102.6c0,6-0.2,12.9,4.9,17.1c5.3,4.2,20.2,4.4,26.7,4.4c6.4,0,24.4,0.2,28.7-4.4
				c1.8-1.8,2.2-4.2,2.7-6.7h39.1c-0.9,10-2.9,17.8-10.4,24.7c-13.6,12.2-46,11.6-63.1,11.6c-15.6,0-41.6,0.2-54.5-9.8
				c-4-3.1-6.7-6.7-8.9-11.1c-4.9-10.2-4.4-22.9-4.4-33.8c0-6.7,0-13.3,0.7-19.8c1.1-10.7,4.7-20.2,13.6-26.7
				c13.8-10,41.3-9.3,57.6-9.3c14.9,0,31.1-0.4,45.6,3.8c23.3,6.9,24.9,28.2,24.9,49.3C2037.3,224,2037.3,227.6,2037,231.1z
				 M1997.7,207.1c0-4-0.2-7.1-3.1-10.2c-4.7-5.1-20.7-5.1-27.1-5.1c-6,0-12,0-17.8,0.9c-11.1,1.6-15.1,5.8-15.3,16.9h63.3V207.1z"
				/>
		</g>
		<g>
			<path class="st40" d="M3366.6,179c0-2.9-0.3-6.9-2.9-9c-2.6-2-6.6-2.3-9.5-2.6c-15-1.4-30.6-1.4-45.9-1.4
				c-14.2,0-29.5,0-43.3,2.6c-3.2,0.6-6.1,1.4-8.7,3.5c-6.6,5.2-6.1,19.7-6.1,27.2v7.5v3.2c3.5-3.5,6.9-6.4,11.3-8.7
				c16.2-9.2,48.5-8.4,66.8-8.4c19.7,0,43.6,0.3,62.4,6.4c6.9,2.3,12.7,5.5,17.9,10.7c11.6,11.3,11.8,32.9,11.8,48
				c0,27.5-4.6,52-35.3,58.1c-11.8,2.3-24,3.2-35.8,3.5c-17.3,0.3-34.4,0.6-51.7,0.6c-24.3,0-69.6,1.4-88.1-15.3
				c-13.3-11.8-14.2-35-14.7-51.4c-0.3-12.7-0.6-25.7-0.6-38.4c0-23.1-2.6-60.7,16.5-77.2c18.2-15.9,80.3-15,103.2-15
				c12.7,0,25.4,0,38.1,0.6c17.6,0.6,47.4,1.4,60.7,15c9.2,9.5,9,28.3,9,40.7h-55.1V179z M3349.9,238c-15.6-2.3-32.4-1.7-48.3-1.7
				c-11.6,0-23.4-0.6-35,1.2c-11.3,1.7-15.6,8.7-15.6,19.7c0,4.9,1.2,11.3,4.6,15c5.8,6.1,38.4,4.6,45.9,4.6
				c10.1,0,19.9-0.3,30.1-0.6c7.2-0.3,22,0.6,27.7-4.9c3.5-3.5,4-9.8,4-14.4C3363.5,246.1,3361.2,239.7,3349.9,238z"/>
			<path class="st40" d="M3649.9,281.9v35.8h-55.8v-35.8h-153.7v-73.7l114.4-83.2h95.1v113.6h37.3v43.3H3649.9z M3594.1,169.9h-11.8
				l-89.6,61.3v7.5h101.4L3594.1,169.9L3594.1,169.9z"/>
		</g>
		<g>
			<path class="st40" d="M147.8,221.8c0-34.1,27.7-61.8,61.8-61.8c10.9,0,21.2,2.9,30.1,7.9v-58.7c-9.6-2.6-19.7-4-30.1-4
				C145.2,105.3,93,157.5,93,221.8s52.2,116.6,116.6,116.6c10.4,0,20.5-1.4,30.1-4v-58.7c-8.9,5-19.2,7.9-30.1,7.9
				C175.4,283.6,147.8,255.9,147.8,221.8z"/>
			<polygon class="st40" points="239.7,217.5 294.6,217.5 341.3,171 239.7,171 			"/>
			<polygon class="st40" points="239.7,226 239.7,272.7 341.3,272.7 294.6,226 			"/>
		</g>
		<g>
			<g>
				
					<linearGradient id="SVGID_1_" gradientUnits="userSpaceOnUse" x1="-7669.022" y1="-7417.5747" x2="-7669.022" y2="-7313.2046" gradientTransform="matrix(1 0 0 -1 8157.374 -7154.9502)">
					<stop  offset="0" style="stop-color:#B4BFC9"/>
					<stop  offset="1" style="stop-color:#F5F6FF"/>
				</linearGradient>
				<path class="st41" d="M482,262.5c-13.8,0-37,0-50.3-9.2c-12.3-8.7-12.3-27-12.2-41.7v-2.7c0-14.6,0-31.1,11.4-40.7
					c11.9-10,37.7-10,50.1-10c1.3,0,6.2,0,7.3,0h5.7c13.1,0,40.3,0,52.6,10c3.5,2.9,5.6,5.6,7.3,9.7c2.7,6.4,3.2,12.6,3.4,19.5H523
					c-3.6-15.8-21.9-15.8-33-15.8h-2c-9.5,0-22.9,0.6-28.9,5.6c-6.4,5.4-6.4,17.9-6.4,24.6c0,7.3,0.5,15.5,5.8,20.7
					c4.6,4.4,14.7,6.6,30.1,6.6c5,0,9.8,0,14.9-0.7c9.7-1.3,16.8-4.4,19.2-14.6h34.3c-0.5,11.1-1.9,19.8-8.8,26.8
					c-8.4,8.8-21.8,10.7-33.8,11.3c-9.6,0.4-18.9,0.7-28.3,0.7L482,262.5z"/>
				<path class="st37" d="M480.9,161.3c1.3,0,2.6,0,3.9,0c1.2,0,2.3,0,3.4,0c0.9,0,1.8,0,2.7,0c1,0,2,0,3,0c12.7,0,39.1,0,50.7,9.3
					c3.2,2.6,4.9,4.9,6.5,8.6c2.1,4.9,2.8,9.9,3.1,15.2h-28.8c-2.2-6.3-7-10.9-14-13.3c-6.6-2.3-14.1-2.5-21.3-2.5h-1h-1
					c-10.8,0-24.2,0.7-30.8,6.3c-7.5,6.3-7.5,19.2-7.5,26.9c0,5.7,0,16.4,6.8,22.9c5.2,5,15.8,7.5,32.2,7.5c4.9,0,10,0,15.3-0.7
					c8.5-1.2,17.5-3.9,21.1-14.6h28.7c-0.6,9.1-2.2,15.9-7.7,21.6l0,0l0,0c-7.7,8-20.3,9.7-31.6,10.3c-9.6,0.4-18.8,0.7-28.2,0.7
					h-2.1h-2.2c-13.5,0-36,0-48.5-8.7c-11-7.7-11-25.2-11-39.2v-2v-0.8c0-13.9,0-29.7,10.3-38.3
					C443.9,161.3,468.9,161.3,480.9,161.3 M480.9,155.2c-17,0-40.1,0.7-52,10.7c-12.7,10.7-12.4,28.7-12.4,43.8
					c0,15.3-0.7,36.2,13.6,46.2c13.5,9.4,35.3,9.8,52,9.8c1.4,0,2.9,0,4.2,0c9.6,0,18.9-0.2,28.4-0.7c12.7-0.7,26.7-2.7,35.8-12.2
					c8.7-8.9,9.3-20.2,9.8-32h-40c-1.6,10.4-7.3,13.3-17.1,14.7c-4.9,0.7-9.6,0.7-14.4,0.7c-7.1,0-22.4-0.4-28-5.8
					c-4.7-4.4-4.9-12.4-4.9-18.4c0-6.2,0-17.8,5.3-22.2c5.6-4.7,20-4.9,26.9-4.9c0.7,0,1.3,0,2,0c12.5,0,28.7,0.4,30.4,15.8h40
					c-0.2-8.4-0.4-16-3.8-23.8c-2-4.7-4.4-7.8-8.2-10.9c-12.5-10.1-37.4-10.7-54.5-10.7c-2,0-3.9,0-5.7,0
					C486,155.2,483.5,155.2,480.9,155.2L480.9,155.2z"/>
			</g>
			<g>
				
					<linearGradient id="SVGID_00000027567213960636534850000014508222382515056528_" gradientUnits="userSpaceOnUse" x1="-7504.4771" y1="-7417.5396" x2="-7504.4771" y2="-7313.1694" gradientTransform="matrix(1 0 0 -1 8157.374 -7154.9502)">
					<stop  offset="0" style="stop-color:#B4BFC9"/>
					<stop  offset="1" style="stop-color:#F5F6FF"/>
				</linearGradient>
				<path style="fill:url(#SVGID_00000027567213960636534850000014508222382515056528_);" d="M640.7,262.6c-17,0-37.8-1.1-48.1-9.8
					c-3.4-2.9-5.7-6-7.6-10.4c-3.7-9-3.6-20.7-3.5-31c0-1.4,0-2.7,0-4c0-5.7,0-11.6,0.6-17.2c0.9-10.1,4.8-17.8,11.7-23
					c11.7-8.9,40.7-8.9,53-8.9h6h6.1c12.3,0,41.1,0,53,9c3.4,2.6,5.6,5.1,7.6,9c4.9,8.6,4.8,20,4.8,30c0,1.1,0,2.2,0,3.2
					c0,6.5-0.2,13-0.7,19.3c-1,11.4-4.1,18.6-10.5,24.1c-9.9,8.6-31.8,9.8-49.6,9.8c-2.1,0-4,0-5.9,0c-1.7,0-3.2,0-4.7,0
					c-1.7,0-3.5,0-5.4,0C645.3,262.5,643,262.6,640.7,262.6z M653.1,181.6c-6.7,0-14.6,0.2-21.9,1.6c-16.5,3.2-16.5,16.6-16.5,28.3
					v0.8c0,6,0,14.2,4.8,19.3c6.9,7.4,24.9,7.4,33.6,7.4c7.9,0,16,0,23.7-2.1c14.3-3.9,14.3-17.1,14.3-27.7v-0.6
					c0-7.2-0.5-15.3-5.8-20.4C679,182.3,663.9,181.6,653.1,181.6z"/>
				<path class="st37" d="M658.9,161.3c12,0,40.1,0,51.1,8.3c3.1,2.3,5,4.6,6.7,8v0.1v0.1c4.4,7.9,4.4,18.3,4.3,28.4
					c0,1.1,0,2.2,0,3.2c0,6.4-0.2,12.8-0.6,19.1c-0.9,10.6-3.8,17.2-9.5,22.1c-10.3,9-36.5,9-47.6,9c-2.1,0-4,0-5.9,0
					c-1.7,0-3.2,0-4.7,0c-1.7,0-3.5,0-5.5,0c-2.1,0-4.4,0-6.7,0c-16.5,0-36.6-1-46.2-9.1c-3-2.5-5-5.2-6.7-9.2
					c-3.5-8.5-3.4-19.8-3.3-29.8c0-1.4,0-2.7,0-4.1c0-5.6,0-11.4,0.6-16.9v-0.1v-0.1c0.8-9.3,4.3-16.1,10.5-20.8
					c10.8-8.3,39.1-8.3,51.1-8.3c1.1,0,2.2,0,3.3,0c1,0,1.9,0,2.7,0c0.9,0,1.8,0,2.8,0C656.7,161.3,657.8,161.3,658.9,161.3
					L658.9,161.3 M617.3,233.8c6.9,7.4,21.3,8.4,35.8,8.4c7.7,0,16.4,0,24.5-2.2c16.5-4.5,16.5-19.6,16.5-30.7v-0.6
					c0-5.7,0-16.2-6.8-22.6c-5.4-5.2-15.9-7.5-34.2-7.5c-6.9,0-14.9,0.2-22.5,1.7c-19,3.7-19,19.7-19,31.4v0.8
					C611.6,218.9,611.6,227.7,617.3,233.8 M658.9,155.2c-2.2,0-4.2,0-6.1,0c-1.8,0-3.8,0-6,0c-16.8,0-43.1,0.5-54.9,9.6
					c-8.2,6.2-12,15.1-12.9,25.1c-0.7,5.8-0.7,11.8-0.7,17.6c0,11.6-0.7,25.3,3.8,36.2c2,4.7,4.4,8.2,8.4,11.6
					c11.3,9.5,33,10.5,50.1,10.5c4.4,0,8.6-0.1,12.1-0.1c3.1,0,6.7,0,10.6,0c17.3,0,40.6-0.9,51.6-10.5c8-6.9,10.7-16,11.6-26.2
					c0.4-6.4,0.7-13.1,0.7-19.6c0-11.3,0.7-24.4-5.1-34.7c-2.2-4.2-4.7-7.1-8.4-10C701.7,155.7,675.8,155.2,658.9,155.2L658.9,155.2
					z M653.1,236c-8,0-25.3,0-31.3-6.4c-4.2-4.4-4-12.2-4-18c0-12,0.2-22.7,14-25.3c6.9-1.3,14.2-1.6,21.3-1.6
					c7.3,0,24.2,0.2,30,5.8c4.7,4.4,4.9,12.2,4.9,18.2c0,10.9,0.2,22-12,25.3C668.6,236,660.6,236,653.1,236L653.1,236z"/>
			</g>
			<g>
				
					<linearGradient id="SVGID_00000062885764383641191850000005054208527969655983_" gradientUnits="userSpaceOnUse" x1="-7294.0215" y1="-7414.8755" x2="-7294.0215" y2="-7313.3047" gradientTransform="matrix(1 0 0 -1 8157.374 -7154.9502)">
					<stop  offset="0" style="stop-color:#B4BFC9"/>
					<stop  offset="1" style="stop-color:#F5F6FF"/>
				</linearGradient>
				<path style="fill:url(#SVGID_00000062885764383641191850000005054208527969655983_);" d="M941.9,259.8v-46.1
					c0-22.9-2.7-32.2-29.7-32.2c-30.6,0-32.2,14.4-32.2,38v40.3h-33.3v-53.4c0-23-12.6-24.8-29.1-24.8c-31.3,0-32.8,13.7-32.8,38
					v40.3h-33.2v-99h31v15.8h6.8l0.8-1.8c6.7-14.8,24.8-16.6,39.9-16.6c20.4,0,35.8,3.5,45.1,20.4l3.1,5.6l2.4-5.9
					c6.8-16.7,22-20.1,42.7-20.1c14.6,0,30.9,1.5,41.3,12.6c3.9,4.2,6.2,7.9,7.5,12.3c2.8,9.2,2.8,19.1,2.8,28.7v48L941.9,259.8
					L941.9,259.8z"/>
				<path class="st37" d="M923.5,161.3c13.9,0,29.4,1.4,39.1,11.6c3.6,3.8,5.7,7.2,6.8,11.1l0,0l0,0c2.7,8.7,2.6,18.4,2.6,27.8v2v43
					h-27.1v-43c0-24-3.2-35.2-32.8-35.2c-32.8,0-35.2,16.2-35.2,41v37.2h-27.1v-43v-7.3c0-25.8-15.2-27.9-32.1-27.9
					c-33.5,0-35.9,15.5-35.9,41v37.2h-27.1V164h24.9v9.7v6.1h6.1h1.8h4l1.6-3.6c4.6-10.3,16.1-14.8,37.1-14.8
					c19.3,0,33.9,3.2,42.4,18.8l6.2,11.3l4.9-11.9C889.8,164.4,903.4,161.3,923.5,161.3 M923.5,155.2c-18.9,0-37.6,2.4-45.6,22
					c-10.2-18.7-27.8-22-47.8-22c-15.8,0-35.3,2.2-42.7,18.4h-1.7v-15.8h-37.1v105.2H788v-43.3c0-24.9,1.8-34.9,29.8-34.9
					c17.8,0,26,2.7,26,21.8v7.3v49.1H883v-43.3c0-24.2,2-34.9,29.1-34.9c24.2,0,26.7,6.4,26.7,29.1v49.1h39.3v-49.1
					c0-10.4,0.2-21.3-2.9-31.6c-1.6-5.3-4.4-9.6-8.2-13.6C955.9,157,938.8,155.2,923.5,155.2L923.5,155.2z"/>
			</g>
			<g>
				
					<linearGradient id="SVGID_00000175309260080276409410000001053999748389602227_" gradientUnits="userSpaceOnUse" x1="-7041.6938" y1="-7414.8755" x2="-7041.6938" y2="-7313.3047" gradientTransform="matrix(1 0 0 -1 8157.374 -7154.9502)">
					<stop  offset="0" style="stop-color:#B4BFC9"/>
					<stop  offset="1" style="stop-color:#F5F6FF"/>
				</linearGradient>
				<path style="fill:url(#SVGID_00000175309260080276409410000001053999748389602227_);" d="M1194.2,259.8v-46.1
					c0-22.9-2.7-32.2-29.7-32.2c-30.6,0-32.2,14.4-32.2,38v40.3h-33.2v-53.4c0-23-12.6-24.8-29.1-24.8c-31.3,0-32.8,13.7-32.8,38
					v40.3H1004v-99h31v15.8h6.8l0.8-1.8c6.7-14.8,24.8-16.6,39.9-16.6c20.4,0,35.8,3.5,45.1,20.4l3.1,5.6l2.4-5.9
					c6.8-16.7,22-20.1,42.7-20.1c14.6,0,30.9,1.5,41.3,12.6c3.9,4.2,6.2,7.9,7.5,12.3c2.8,9.2,2.8,19.1,2.8,28.7v48L1194.2,259.8
					L1194.2,259.8z"/>
				<path class="st37" d="M1175.8,161.3c13.9,0,29.4,1.4,39.1,11.6c3.6,3.8,5.7,7.2,6.8,11.1l0,0l0,0c2.7,8.7,2.6,18.4,2.6,27.8v2
					v43h-27.1v-43c0-24-3.2-35.2-32.8-35.2c-32.8,0-35.2,16.2-35.2,41v37.2h-27.1v-43v-7.3c0-25.8-15.2-27.9-32.1-27.9
					c-33.5,0-35.9,15.5-35.9,41v37.2H1007V164h24.9v9.7v6.1h6.1h1.8h4l1.6-3.6c4.6-10.3,16.1-14.8,37.1-14.8
					c19.3,0,33.9,3.2,42.4,18.8l6.2,11.3l4.9-11.9C1142.1,164.4,1155.7,161.3,1175.8,161.3 M1175.8,155.2c-18.9,0-37.6,2.4-45.6,22
					c-10.2-18.7-27.8-22-47.8-22c-15.8,0-35.3,2.2-42.7,18.4h-1.8v-15.8h-37.1v105.2h39.3v-43.3c0-24.9,1.8-34.9,29.8-34.9
					c17.8,0,26,2.7,26,21.8v7.3v49.1h39.3v-43.3c0-24.2,2-34.9,29.1-34.9c24.2,0,26.7,6.4,26.7,29.1v49.1h39.3v-49.1
					c0-10.4,0.2-21.3-2.9-31.6c-1.6-5.3-4.4-9.6-8.2-13.6C1208.2,157,1191.1,155.2,1175.8,155.2L1175.8,155.2z"/>
			</g>
			<g>
				
					<linearGradient id="SVGID_00000160175490311866026040000002776972919385163707_" gradientUnits="userSpaceOnUse" x1="-6832.0698" y1="-7417.5396" x2="-6832.0698" y2="-7313.1694" gradientTransform="matrix(1 0 0 -1 8157.374 -7154.9502)">
					<stop  offset="0" style="stop-color:#B4BFC9"/>
					<stop  offset="1" style="stop-color:#F5F6FF"/>
				</linearGradient>
				<path style="fill:url(#SVGID_00000160175490311866026040000002776972919385163707_);" d="M1313.1,262.6c-17,0-37.8-1.1-48.1-9.8
					c-3.4-2.9-5.7-6-7.6-10.4c-3.7-9-3.6-20.7-3.5-31c0-1.4,0-2.7,0-4c0-5.7,0-11.6,0.6-17.2c0.9-10.1,4.8-17.8,11.7-23
					c11.7-8.9,40.7-8.9,53-8.9h6h6.1c12.3,0,41.1,0,53,9c3.4,2.6,5.6,5.1,7.6,9c4.9,8.6,4.8,20,4.8,30c0,1.1,0,2.2,0,3.2
					c0,6.5-0.2,13-0.7,19.3c-1,11.4-4.1,18.6-10.5,24.1c-9.9,8.6-31.8,9.8-49.6,9.8c-2.1,0-4,0-5.9,0c-1.7,0-3.2,0-4.7,0
					c-1.7,0-3.5,0-5.4,0C1317.7,262.5,1315.5,262.6,1313.1,262.6z M1325.5,181.6c-6.7,0-14.6,0.2-21.9,1.6
					c-16.5,3.2-16.5,16.6-16.5,28.3v0.8c0,6,0,14.2,4.8,19.3c6.9,7.4,24.9,7.4,33.6,7.4c7.9,0,16,0,23.7-2.1
					c14.3-3.9,14.3-17.1,14.3-27.7v-0.6c0-7.2-0.5-15.3-5.8-20.4C1351.4,182.3,1336.3,181.6,1325.5,181.6z"/>
				<path class="st37" d="M1331.4,161.3c12,0,40.1,0,51.1,8.3c3.1,2.3,5,4.6,6.7,8v0.1v0.1c4.4,7.9,4.4,18.3,4.3,28.4
					c0,1.1,0,2.2,0,3.2c0,6.4-0.2,12.8-0.6,19.1c-0.9,10.6-3.8,17.2-9.5,22.1c-10.3,9-36.5,9-47.6,9c-2.1,0-4,0-5.9,0
					c-1.7,0-3.2,0-4.7,0c-1.7,0-3.5,0-5.5,0c-2.1,0-4.4,0-6.7,0c-16.5,0-36.6-1-46.2-9.1c-3-2.5-5-5.2-6.7-9.2
					c-3.5-8.5-3.4-19.8-3.3-29.8c0-1.4,0-2.7,0-4.1c0-5.6,0-11.4,0.6-16.9v-0.1v-0.1c0.8-9.3,4.3-16.1,10.5-20.8
					c10.8-8.3,39.1-8.3,51.1-8.3c1.1,0,2.2,0,3.3,0c1,0,1.9,0,2.7,0c0.9,0,1.8,0,2.8,0C1329.1,161.3,1330.2,161.3,1331.4,161.3
					L1331.4,161.3 M1289.7,233.8c6.9,7.4,21.3,8.4,35.8,8.4c7.7,0,16.4,0,24.5-2.2c16.5-4.5,16.5-19.6,16.5-30.7v-0.6
					c0-5.7,0-16.2-6.8-22.6c-5.4-5.2-15.9-7.5-34.2-7.5c-6.9,0-14.9,0.2-22.5,1.7c-19,3.7-19,19.7-19,31.4v0.8
					C1284,218.9,1284,227.7,1289.7,233.8 M1331.4,155.2c-2.2,0-4.2,0-6.1,0c-1.8,0-3.8,0-6,0c-16.8,0-43.1,0.5-54.9,9.6
					c-8.2,6.2-12,15.1-12.9,25.1c-0.7,5.8-0.7,11.8-0.7,17.6c0,11.6-0.7,25.3,3.8,36.2c2,4.7,4.4,8.2,8.4,11.6
					c11.3,9.5,33,10.5,50.1,10.5c4.4,0,8.6-0.1,12.1-0.1c3.1,0,6.7,0,10.6,0c17.3,0,40.6-0.9,51.6-10.5c8-6.9,10.7-16,11.6-26.2
					c0.4-6.4,0.7-13.1,0.7-19.6c0-11.3,0.7-24.4-5.1-34.7c-2.2-4.2-4.7-7.1-8.4-10C1374.2,155.7,1348.3,155.2,1331.4,155.2
					L1331.4,155.2z M1325.5,236c-8,0-25.3,0-31.3-6.4c-4.2-4.4-4-12.2-4-18c0-12,0.2-22.7,14-25.3c6.9-1.3,14.2-1.6,21.3-1.6
					c7.3,0,24.2,0.2,30,5.8c4.7,4.4,4.9,12.2,4.9,18.2c0,10.9,0.2,22-12,25.3C1341.1,236,1333.1,236,1325.5,236L1325.5,236z"/>
			</g>
			<g>
				
					<linearGradient id="SVGID_00000060719991253995892650000008083333390761353627_" gradientUnits="userSpaceOnUse" x1="-6664.4521" y1="-7417.5747" x2="-6664.4521" y2="-7272.8164" gradientTransform="matrix(1 0 0 -1 8157.374 -7154.9502)">
					<stop  offset="0" style="stop-color:#B4BFC9"/>
					<stop  offset="1" style="stop-color:#F5F6FF"/>
				</linearGradient>
				<path style="fill:url(#SVGID_00000060719991253995892650000008083333390761353627_);" d="M1479.5,262.5c-15,0-35.5,0-47.2-10.4
					c-10.3-9.1-10.3-27.9-10.3-41.6v-0.8c0-18.2,1.1-35.3,14.2-44.1c10.4-6.9,24.9-7.5,37.7-7.5c1.4,0,2.7,0,4,0s2.6,0,3.9,0h2.4
					c9.5,0,21.4,0,30.5,5.4c4.4,2.5,5.9,4.8,8.7,9.8l0.9,1.6h6.4v-57.1h33.2v142.1h-31v-13.8h-6.8l-0.9,1.5c-2.6,4.4-4.3,6.7-8.1,9
					c-9.8,6-28,6-35.8,6L1479.5,262.5z M1489,181.6c-7.9,0-26.4,0-31.6,11.9v0.1c-2,4.9-2.2,10.8-2.2,16v0.8c0,6.5,0,16.4,5.3,22
					c5.5,5.9,19.1,6.7,31.8,6.7c7.3,0,17.9-0.3,26.3-3c12.6-3.9,12.6-15.9,12.6-25.5V210c0-5.4-0.3-11.7-2.5-16.8
					c-5.1-11.7-21.5-11.7-29.4-11.7c-0.8,0-1.7,0-2.4,0c-0.7,0-1.4,0-2,0c-0.8,0-1.6,0-2.4,0C1491.2,181.6,1490.2,181.6,1489,181.6z
					"/>
				<path class="st37" d="M1560.8,120.9v136h-24.9v-7.7V243h-6.1h-2h-3.5l-1.8,3c-2.4,4-3.8,6-7,7.9l0,0l0,0
					c-9,5.5-26.6,5.5-34.1,5.5h-0.9h-0.9c-13.7,0-34.3,0-45.2-9.6c-9.3-8.2-9.3-26.2-9.3-39.3v-0.8c0-17.3,1-33.6,12.8-41.6
					c9.7-6.5,23.1-7,36-7c1.4,0,2.7,0,4,0s2.6,0,3.9,0h1.2h1.2c9.2,0,20.5,0,29,4.9l0,0l0,0c3.7,2.1,4.8,3.8,7.5,8.6l1.8,3.1h3.6
					h1.6h6.1v-6.1v-51h27 M1458.2,234.4c6.3,6.8,20.1,7.7,34,7.7c7.5,0,18.4-0.3,27.2-3.2c14.7-4.6,14.7-18.9,14.7-28.4v-0.6
					c0-5.8-0.3-12.4-2.7-18c-5.9-13.5-23.7-13.5-32.2-13.5c-0.8,0-1.7,0-2.5,0c-0.7,0-1.4,0-2,0c-0.8,0-1.6,0-2.4,0
					c-1,0-2.1,0-3.2,0c-8.5,0-28.4,0-34.4,13.7v0.1v0.1c-2.1,5.4-2.4,11.7-2.4,17.2v0.8C1452.1,217.4,1452.1,228,1458.2,234.4
					 M1566.9,114.8h-39.3v57.1h-1.6c-2.9-5.1-4.7-8-9.8-10.9c-9.5-5.6-21.2-5.8-32.1-5.8c-0.8,0-1.6,0-2.4,0c-2.6,0-5.2,0-7.9,0
					c-13.5,0-28.3,0.6-39.4,8c-15.1,10.2-15.6,30.2-15.6,46.7c0,14.2-0.2,34.5,11.3,44.7c12.4,10.9,33.3,11.1,49.3,11.1
					c0.6,0,1.2,0,1.9,0c11.1,0,27.6-0.4,37.3-6.4c4.4-2.7,6.4-5.6,9.1-10h2v13.7h37.1L1566.9,114.8L1566.9,114.8z M1492.2,236
					c-7.1,0-24.2,0-29.6-5.8c-4.7-4.9-4.4-14.4-4.4-20.7c0-4.7,0.2-10.4,2-14.9c4.1-9.3,18.5-10,28.8-10c2.1,0,4,0,5.6,0
					c1.4,0,2.9,0,4.5,0c9.6,0,22.6,0.7,26.6,9.8c2,4.7,2.2,10.7,2.2,15.6c0,9.6,0.2,19.8-10.4,23.1
					C1510,235.6,1500.2,236,1492.2,236L1492.2,236z"/>
			</g>
			<g>
				
					<linearGradient id="SVGID_00000166659301643804405820000016357460958913969071_" gradientUnits="userSpaceOnUse" x1="-6494.6665" y1="-7417.5396" x2="-6494.6665" y2="-7313.1694" gradientTransform="matrix(1 0 0 -1 8157.374 -7154.9502)">
					<stop  offset="0" style="stop-color:#B4BFC9"/>
					<stop  offset="1" style="stop-color:#F5F6FF"/>
				</linearGradient>
				<path style="fill:url(#SVGID_00000166659301643804405820000016357460958913969071_);" d="M1650.5,262.6c-17,0-37.8-1.1-48.1-9.8
					c-3.4-2.9-5.7-6-7.6-10.4c-3.7-9-3.6-20.7-3.5-31c0-1.4,0-2.7,0-4c0-5.7,0-11.6,0.6-17.2c0.9-10.1,4.8-17.8,11.7-23
					c11.7-8.9,40.7-8.9,53-8.9h6h6.1c12.3,0,41.1,0,53,9c3.4,2.6,5.6,5.1,7.6,9c4.9,8.6,4.8,20,4.8,30c0,1.1,0,2.2,0,3.2
					c0,6.5-0.2,13-0.7,19.3c-1,11.4-4.1,18.6-10.5,24.1c-9.9,8.6-31.8,9.8-49.6,9.8c-2.1,0-4,0-5.9,0c-1.7,0-3.2,0-4.7,0
					c-1.7,0-3.5,0-5.4,0C1655,262.5,1652.8,262.6,1650.5,262.6z M1662.8,181.6c-6.7,0-14.6,0.2-21.9,1.6
					c-16.5,3.2-16.5,16.6-16.5,28.3v0.8c0,6,0,14.2,4.8,19.3c6.9,7.4,24.9,7.4,33.6,7.4c7.9,0,16,0,23.7-2.1
					c14.3-3.9,14.3-17.1,14.3-27.7v-0.6c0-7.2-0.5-15.3-5.8-20.4C1688.8,182.3,1673.7,181.6,1662.8,181.6z"/>
				<path class="st37" d="M1668.7,161.3c12,0,40.1,0,51.1,8.3c3.1,2.3,5,4.6,6.7,8v0.1v0.1c4.4,7.9,4.4,18.3,4.3,28.4
					c0,1.1,0,2.2,0,3.2c0,6.4-0.2,12.8-0.6,19.1c-0.9,10.6-3.8,17.2-9.5,22.1c-10.3,9-36.5,9-47.6,9c-2.1,0-4,0-5.9,0
					c-1.7,0-3.2,0-4.7,0c-1.7,0-3.5,0-5.5,0c-2.1,0-4.4,0-6.7,0c-16.5,0-36.6-1-46.2-9.1c-3-2.5-5-5.2-6.7-9.2
					c-3.5-8.5-3.4-19.8-3.3-29.8c0-1.4,0-2.7,0-4.1c0-5.6,0-11.4,0.6-16.9v-0.1v-0.1c0.8-9.3,4.3-16.1,10.5-20.8
					c10.8-8.3,39.1-8.3,51.1-8.3c1.1,0,2.2,0,3.3,0c1,0,1.9,0,2.7,0c0.9,0,1.8,0,2.8,0C1666.4,161.3,1667.5,161.3,1668.7,161.3
					L1668.7,161.3 M1627,233.8c6.9,7.4,21.3,8.4,35.8,8.4c7.7,0,16.4,0,24.5-2.2c16.5-4.5,16.5-19.6,16.5-30.7v-0.6
					c0-5.7,0-16.2-6.8-22.6c-5.4-5.2-15.9-7.5-34.2-7.5c-6.9,0-14.9,0.2-22.5,1.7c-19,3.7-19,19.7-19,31.4v0.8
					C1621.4,218.9,1621.3,227.7,1627,233.8 M1668.7,155.2c-2.2,0-4.2,0-6.1,0c-1.8,0-3.8,0-6,0c-16.8,0-43.1,0.5-54.9,9.6
					c-8.2,6.2-12,15.1-12.9,25.1c-0.7,5.8-0.7,11.8-0.7,17.6c0,11.6-0.7,25.3,3.8,36.2c2,4.7,4.4,8.2,8.4,11.6
					c11.3,9.5,33,10.5,50.1,10.5c4.4,0,8.6-0.1,12.1-0.1c3.1,0,6.7,0,10.6,0c17.3,0,40.6-0.9,51.6-10.5c8-6.9,10.7-16,11.6-26.2
					c0.4-6.4,0.7-13.1,0.7-19.6c0-11.3,0.7-24.4-5.1-34.7c-2.2-4.2-4.7-7.1-8.4-10C1711.5,155.7,1685.6,155.2,1668.7,155.2
					L1668.7,155.2z M1662.8,236c-8,0-25.3,0-31.3-6.4c-4.2-4.4-4-12.2-4-18c0-12,0.2-22.7,14-25.3c6.9-1.3,14.2-1.6,21.3-1.6
					c7.3,0,24.2,0.2,30,5.8c4.7,4.4,4.9,12.2,4.9,18.2c0,10.9,0.2,22-12,25.3C1678.4,236,1670.4,236,1662.8,236L1662.8,236z"/>
			</g>
			<g>
				
					<linearGradient id="SVGID_00000075123425238974291970000001464438143619920773_" gradientUnits="userSpaceOnUse" x1="-6337.9956" y1="-7414.7754" x2="-6337.9956" y2="-7313.105" gradientTransform="matrix(1 0 0 -1 8157.374 -7154.9502)">
					<stop  offset="0" style="stop-color:#B4BFC9"/>
					<stop  offset="1" style="stop-color:#F5F6FF"/>
				</linearGradient>
				<path style="fill:url(#SVGID_00000075123425238974291970000001464438143619920773_);" d="M1761.5,259.8v-99h31v15.8h6.6l0.9-1.6
					c7.9-14.1,20-16.9,38.2-16.9c10.4,0,25.1,1.1,32.7,10.6c6.4,8,6.4,19.9,6.4,30.5v1c0,0.4,0,0.7,0,1.2h-31
					c-0.8-14.5-7.2-19.8-23.7-19.8c-28,0-28,20-28,37.7v40.5H1761.5z"/>
				<path class="st37" d="M1838.2,161.3c9.7,0,23.5,1,30.3,9.5c5.6,6.9,5.8,17.8,5.8,27.6h-25.2c-1.6-14.1-9.5-19.8-26.5-19.8
					c-13.5,0-22.4,4.4-27,13.4c-3.7,7.3-4,16.3-4,27.4v37.4h-27.1V164h24.9v9.7v6.1h6.1h1.8h3.6l1.8-3.1
					C1809.9,163.8,1821.1,161.3,1838.2,161.3 M1838.2,155.2c-17.1,0-31.8,2.2-40.9,18.4h-1.8v-15.8h-37.1v105.2h39.3v-43.6
					c0-19.3,0.7-34.7,24.9-34.7c15.6,0,20.7,4.2,20.7,19.8h36.9c0-1.3,0.2-2.9,0.2-4.2c0-11.1,0.2-24.2-7.1-33.3
					C1865.1,156.8,1850.4,155.2,1838.2,155.2L1838.2,155.2z"/>
			</g>
			<g>
				
					<linearGradient id="SVGID_00000129184023605014098000000003464000167977458592_" gradientUnits="userSpaceOnUse" x1="-6191.1001" y1="-7417.4751" x2="-6191.1001" y2="-7313.105" gradientTransform="matrix(1 0 0 -1 8157.374 -7154.9502)">
					<stop  offset="0" style="stop-color:#B4BFC9"/>
					<stop  offset="1" style="stop-color:#F5F6FF"/>
				</linearGradient>
				<path style="fill:url(#SVGID_00000129184023605014098000000003464000167977458592_);" d="M1960.8,262.5c-13.5,0-38.8,0-50.5-9.1
					c-3.4-2.6-5.9-5.7-8-10.1c-4.2-8.8-4.2-20-4.1-29.9v-2.5c0-6.5,0-13.2,0.7-19.5c1.2-11.5,5.1-19.3,12.3-24.5
					c12.1-8.8,37.4-8.8,49.6-8.8h6.1c0,0,6.5,0,7.8,0c12.3,0,25.3,0.3,36.9,3.7c21,6.2,22.7,24.7,22.7,46.4c0,2.5,0,5.1-0.1,7.6
					h-102.8v3.8c0,6.1,0,13.8,6,18.8c4.4,3.5,13.5,5.1,28.6,5.1h1.9c16.8,0,25.4-1.6,28.9-5.4c1.7-1.7,2.5-3.7,3-5.7h33.2
					c-1,8-3.1,13.9-9.1,19.3c-11.9,10.8-41.4,10.8-55.6,10.8H1960.8z M1967.5,176.5c-6,0-12.2,0-18.2,0.9
					c-12.6,1.8-17.7,7.3-17.9,19.9l-0.1,3.1h69.5v-5.5c0-4.4-0.3-8.4-3.9-12.3C1991.9,177.2,1979.2,176.5,1967.5,176.5z"/>
				<path class="st37" d="M1974.7,161.3c12.1,0,24.8,0.3,36,3.5c8.7,2.6,14.2,7.5,17.2,15.6c3.1,8.2,3.3,18.7,3.3,27.9
					c0,1.5,0,3.1,0,4.5h-96.8h-6.1v6.1v0.7c0,6.4,0,15.2,7.1,21.1l0,0l0,0c5,3.9,14.7,5.8,30.5,5.8h0.8h1.1c17.9,0,27-1.8,31.2-6.3
					c1.5-1.5,2.4-3.1,3-4.8h27.4c-1.1,5.6-3.2,10-7.6,14c-11.1,10-40.8,10-53.6,10c-1,0-2,0-2.9,0h-2.5h-1h-1
					c-13.2,0-37.7,0-48.7-8.5c-3-2.4-5.2-5-7.1-9c-3.9-8.2-3.9-19-3.8-28.6c0-0.9,0-1.7,0-2.5c0-6.7,0-13,0.6-19.1
					c1.1-10.6,4.6-17.7,11.1-22.3c11.3-8.2,36-8.2,47.8-8.2c1.1,0,2.2,0,3.3,0c1,0,2,0,2.9,0c1.3,0,2.6,0,3.9,0
					C1972,161.3,1973.3,161.3,1974.7,161.3 M1948.8,174.4c-14.1,2-20.3,8.8-20.6,22.8l-0.1,6.2h6.2h63.3h6.1v-6.1v-2.4
					c0-3.7,0-9.3-4.7-14.4c-5.7-6.2-18.6-7.1-31.6-7.1C1961.4,173.5,1955,173.5,1948.8,174.4 M1974.7,155.2c-2.6,0-5.3,0-7.8,0
					c-1.9,0-4,0-6.1,0c-16.4,0-39.3,0.5-51.4,9.3c-8.9,6.4-12.4,16-13.6,26.7c-0.7,6.4-0.7,13.1-0.7,19.8c0,10.9-0.4,23.6,4.4,33.8
					c2.2,4.4,4.9,8,8.9,11.1c12.3,9.6,36.7,9.8,52.4,9.8c0.7,0,1.4,0,2,0c1.7,0,3.5,0,5.5,0c17.9,0,45.4-0.5,57.7-11.6
					c7.6-6.9,9.6-14.7,10.4-24.7h-39.1c-0.4,2.4-0.9,4.9-2.7,6.7c-3.9,4.3-19.2,4.4-26.7,4.4c-0.7,0-1.4,0-1.9,0
					c-6.4,0-21.3-0.2-26.7-4.4c-5.1-4.2-4.9-11.1-4.9-17.1h102.7c0.2-3.6,0.2-7.1,0.2-10.7c0-21.1-1.6-42.5-24.9-49.3
					C2000.4,155.5,1987.3,155.2,1974.7,155.2L1974.7,155.2z M1934.4,197.3c0.2-11.1,4.2-15.3,15.3-16.9c5.8-0.9,11.8-0.9,17.8-0.9
					c6.4,0,22.4,0,27.1,5.1c2.9,3.1,3.1,6.2,3.1,10.2v2.4L1934.4,197.3L1934.4,197.3z"/>
			</g>
		</g>
		<g>
			<g>
				
					<linearGradient id="SVGID_00000034782527692020291920000001938408965610117520_" gradientUnits="userSpaceOnUse" x1="-4849.5479" y1="-7459.7627" x2="-4849.5479" y2="-7268.5176" gradientTransform="matrix(1 0 0 -1 8157.374 -7154.9502)">
					<stop  offset="0" style="stop-color:#B4BFC9"/>
					<stop  offset="1" style="stop-color:#F5F6FF"/>
				</linearGradient>
				<path style="fill:url(#SVGID_00000034782527692020291920000001938408965610117520_);" d="M3285.8,304.8
					c-28.7,0-60-1.7-74.2-14.6c-12.4-11-13.2-33.1-13.7-49.3c-0.3-11.9-0.6-25.4-0.6-38.3c0-2.4,0-4.9-0.1-7.5
					c-0.2-22.6-0.6-53.4,15.5-67.3c16.4-14.3,74.3-14.3,93.4-14.3h7.8c12.5,0,25.4,0,38,0.6h0.5c17.1,0.6,45.8,1.5,58.1,14.1
					c7.7,7.9,8.1,24,8.1,35.5h-48.9c-0.3-3-1.3-6.2-3.9-8.3c-3.1-2.5-7.5-2.9-10.6-3.2l-0.5-0.1c-15.2-1.5-31-1.5-46.3-1.5
					c-14,0-29.8,0-43.9,2.7c-3.1,0.6-6.7,1.5-10,4.1c-7.4,5.8-7.3,19.1-7.3,27.9v1.7v18.1l5.2-5.2c3.8-3.8,6.9-6.2,10.5-8.1
					c12.4-7.1,35.1-8,55.7-8c1.8,0,3.6,0,5.2,0c1.5,0,3,0,4.4,0c21.4,0,43.7,0.5,61.5,6.2c7,2.3,12.1,5.4,16.7,9.9
					c11,10.7,11,32.7,11,45.8c0,29.2-5.6,49.7-32.8,55.1c-10.2,2-21.4,3.1-35.3,3.4h-1.3c-17.2,0.3-33.5,0.6-50.4,0.6
					c-1.7,0-3.5,0-5.4,0C3290.2,304.8,3288,304.8,3285.8,304.8z M3287.7,220.8c-6.4,0-13.9,0.2-21.4,1.3
					c-12.1,1.9-18.2,9.5-18.2,22.7c0,3.4,0.5,11.8,5.4,17.1c2.6,2.7,8.8,5.8,34.8,5.8l0,0c3.6,0,6.9-0.1,9.5-0.1
					c1.6,0,2.9-0.1,3.9-0.1c10,0,19.5-0.3,29.6-0.6h0.5c1.2,0,2.5-0.1,4-0.1c8.5-0.1,20.1-0.2,25.8-5.7c3.4-3.4,5-8.8,5-16.7
					c0-10-2-19.6-16.2-21.8c-10.9-1.6-22.1-1.8-32.6-1.8c-2.7,0-5.5,0-8.2,0c-2.7,0-5.3,0-8,0c-2.3,0-4.6,0-6.9,0
					C3292.4,220.9,3290.1,220.8,3287.7,220.8z"/>
				<path class="st37" d="M3306.1,110.5v6.1c1.6,0,3,0,4.4,0c1.2,0,2.3,0,3.4,0c12.4,0,25.3,0,37.9,0.6l0,0l0,0h0.5
					c16.7,0.5,44.6,1.5,56,13.2c6.2,6.4,7.1,19.7,7.2,30.4h-43.2c-0.6-2.7-1.9-5.6-4.7-7.7c-3.8-3-8.9-3.5-12.2-3.8l-0.5-0.1
					c-15.3-1.5-31.2-1.5-46.5-1.5c-14.1,0-30,0-44.4,2.7c-3.2,0.6-7.5,1.7-11.3,4.7c-8.5,6.7-8.5,20.9-8.4,30.3c0,0.6,0,1.1,0,1.7
					v7.5v3.2v14.8l10.5-10.5c3.5-3.5,6.5-5.8,9.8-7.6h0.1h0.1c13.3-7.6,41.9-7.6,54.1-7.6c1.8,0,3.5,0,5.2,0c1.5,0,3,0,4.4,0
					c21.1,0,43.2,0.5,60.5,6.1c6.5,2.2,11.3,5,15.5,9.2l0,0l0,0c10,9.7,10,30.9,10,43.6c0,28.4-5.1,47.1-30.3,52.1
					c-10,2-21.1,3-34.8,3.4h-1.3c-17.2,0.3-33.4,0.6-50.3,0.6c-1.7,0-3.5,0-5.4,0c-2.1,0-4.3,0-6.5,0c-17,0-56.9,0-72.1-13.8l0,0
					l0,0c-11.4-10.2-12.2-32.3-12.7-47c-0.3-11.9-0.6-25.3-0.6-38.3c0-2.4,0-4.9-0.1-7.6c-0.2-22-0.6-52,14.4-65
					c4.2-3.7,14.7-8.7,40.4-11.4c17.5-1.9,36.4-2.1,50.9-2.1L3306.1,110.5 M3288.4,270.7c3.7,0,6.9-0.1,9.5-0.1c1.6,0,2.9,0,3.8,0
					c10,0,19.6-0.3,29.7-0.6h0.5l0,0l0,0c1.1,0,2.4-0.1,3.9-0.1c9-0.1,21.3-0.3,27.9-6.5l0.1-0.1l0.1-0.1c3.9-3.9,5.8-10.1,5.8-18.8
					c0-10.9-2.2-22.3-18.8-24.8c-11.1-1.6-22.4-1.9-33-1.9c-2.7,0-5.5,0-8.2,0c-2.7,0-5.3,0-7.9,0c-2.3,0-4.6,0-6.9,0
					c-2.3,0-4.7,0-7.1,0c-6.5,0-14.1,0.2-21.9,1.3c-9.5,1.5-20.8,7.1-20.8,25.7c0,3.7,0.6,13.1,6.2,19.2l0,0l0,0
					C3254.6,267.5,3261.4,270.7,3288.4,270.7 M3306.1,110.5c-26.8,0-79,0.7-95.4,15c-19.1,16.5-16.5,54-16.5,77.2
					c0,12.7,0.3,25.7,0.6,38.4c0.6,16.5,1.4,39.6,14.7,51.4c15.8,14.3,51.1,15.3,76.2,15.3c4.3,0,8.4,0,11.9,0
					c17.3,0,34.4-0.3,51.7-0.6c11.8-0.3,24-1.2,35.8-3.5c30.6-6.1,35.3-30.6,35.3-58.1c0-15-0.3-36.7-11.8-48
					c-5.2-5.2-11-8.4-17.9-10.7c-18.8-6.1-42.8-6.4-62.4-6.4c-2.9,0-6.1,0-9.6,0c-18.5,0-43.6,0.6-57.2,8.4
					c-4.3,2.3-7.8,5.2-11.3,8.7v-3.2v-7.5c0-7.5-0.6-22,6.1-27.2c2.6-2,5.5-2.9,8.7-3.5c13.9-2.6,29.2-2.6,43.3-2.6
					c15.3,0,30.9,0,45.9,1.4c2.9,0.3,6.9,0.6,9.5,2.6c2.6,2,2.9,6.1,2.9,9h54.9c0-12.4,0.3-31.2-9-40.7
					c-13.3-13.6-43.1-14.4-60.7-15c-12.7-0.6-25.4-0.6-38.1-0.6C3311.6,110.5,3309,110.5,3306.1,110.5L3306.1,110.5z M3288.4,264.6
					c-12.4,0-28.7-0.7-32.6-4.8c-3.5-3.8-4.6-10.1-4.6-15c0-11,4.3-17.9,15.6-19.7c6.9-1,14-1.2,21-1.2c4.7,0,9.4,0.1,14,0.1
					c5.3,0,10.7-0.1,16.1-0.1c10.8,0,21.7,0.3,32.1,1.8c11.3,1.7,13.6,8.1,13.6,18.8c0,4.6-0.6,11-4,14.4
					c-5.8,5.5-20.5,4.6-27.7,4.9c-10.1,0.3-19.9,0.6-30.1,0.6C3299.3,264.4,3294.3,264.6,3288.4,264.6L3288.4,264.6z"/>
			</g>
			<g>
				
					<linearGradient id="SVGID_00000086693353363603182170000009303345552606085020_" gradientUnits="userSpaceOnUse" x1="-4593.6455" y1="-7457.3633" x2="-4593.6455" y2="-7270.8169" gradientTransform="matrix(1 0 0 -1 8157.374 -7154.9502)">
					<stop  offset="0" style="stop-color:#B4BFC9"/>
					<stop  offset="1" style="stop-color:#F5F6FF"/>
				</linearGradient>
				<path style="fill:url(#SVGID_00000086693353363603182170000009303345552606085020_);" d="M3597.1,302.4v-35.8h-153.7v-69.1
					l112.4-81.7h91v113.6h37.3v37.2h-37.3v35.8H3597.1z M3489.6,217.2v12.2h107.6v-74.9h-15.9L3489.6,217.2z"/>
				<path class="st37" d="M3643.7,119v107.4v6.1h6.1h31.2v31.1h-31.2h-6.1v6.1v29.7h-43.5v-29.7v-6.1h-6.1h-147.6v-64.4l110.3-80.2
					L3643.7,119 M3486.5,232.4h6.1H3594h6.1v-6.1v-68.8v-6.1h-6.1h-11.8h-1.9l-1.6,1.1l-89.6,61.3l-2.7,1.8v3.2v7.5v6.1
					 M3649.9,112.8h-95.1l-114.4,83.2v73.7h153.7v35.8h55.8v-35.8h37.3v-43.3h-37.3V112.8L3649.9,112.8z M3492.6,226.3v-7.5
					l89.6-61.3h11.8v68.8H3492.6L3492.6,226.3z"/>
			</g>
		</g>
		<g>
			<g>
				
					<linearGradient id="SVGID_00000029020098813828042540000004907251514264378027_" gradientUnits="userSpaceOnUse" x1="-7991.0215" y1="-7477.9575" x2="-7991.0215" y2="-7251.0225" gradientTransform="matrix(1 0 0 -1 8157.374 -7154.9502)">
					<stop  offset="0" style="stop-color:#B4BFC9"/>
					<stop  offset="1" style="stop-color:#F5F6FF"/>
				</linearGradient>
				<path style="fill:url(#SVGID_00000029020098813828042540000004907251514264378027_);" d="M209.5,323
					C147,323,96.1,272.1,96.1,209.5C96.1,147,147,96.1,209.5,96.1c9.1,0,18.2,1.1,27.1,3.3v51.3c-8.5-3.9-17.7-5.9-27.1-5.9
					c-35.8,0-64.9,29.1-64.9,64.9s29.1,64.9,64.9,64.9c9.4,0,18.6-2,27.1-5.9v51.3C227.7,321.9,218.6,323,209.5,323z"/>
				<path class="st37" d="M209.5,99.1c8.1,0,16.1,0.9,24,2.6V146c-7.6-2.9-15.8-4.4-24-4.4c-37.5,0-67.9,30.5-67.9,67.9
					s30.5,67.9,67.9,67.9c8.2,0,16.4-1.5,24-4.4v44.3c-7.9,1.8-15.9,2.6-24,2.6c-29.5,0-57.2-11.5-78.1-32.4
					c-20.9-20.9-32.4-48.6-32.4-78.1s11.5-57.2,32.4-78.1C152.4,110.6,180,99.1,209.5,99.1 M209.5,93C145.2,93,93,145.2,93,209.5
					s52.2,116.6,116.6,116.6c10.4,0,20.5-1.4,30.1-4v-58.7c-8.9,5-19.2,7.9-30.1,7.9c-34.1,0-61.8-27.7-61.8-61.8
					s27.7-61.8,61.8-61.8c10.9,0,21.2,2.9,30.1,7.9V97C230,94.4,219.9,93,209.5,93L209.5,93z"/>
			</g>
			<g>
				
					<linearGradient id="SVGID_00000006689020828559832560000000162805077074523287_" gradientUnits="userSpaceOnUse" x1="-7869.0566" y1="-7357.1919" x2="-7869.0566" y2="-7316.7036" gradientTransform="matrix(1 0 0 -1 8157.374 -7154.9502)">
					<stop  offset="0" style="stop-color:#B4BFC9"/>
					<stop  offset="1" style="stop-color:#F5F6FF"/>
				</linearGradient>
				<polygon style="fill:url(#SVGID_00000006689020828559832560000000162805077074523287_);" points="242.7,202.2 242.7,161.8 
					333.9,161.8 293.4,202.2 				"/>
				<path class="st37" d="M326.5,164.9l-34.4,34.4h-46.3v-34.4H326.5 M341.3,158.7H239.7v46.6h55L341.3,158.7L341.3,158.7z"/>
			</g>
			<g>
				
					<linearGradient id="SVGID_00000062892502659653528550000011237134237102395029_" gradientUnits="userSpaceOnUse" x1="-7869.0566" y1="-7412.2764" x2="-7869.0566" y2="-7371.7881" gradientTransform="matrix(1 0 0 -1 8157.374 -7154.9502)">
					<stop  offset="0" style="stop-color:#B4BFC9"/>
					<stop  offset="1" style="stop-color:#F5F6FF"/>
				</linearGradient>
				<polygon style="fill:url(#SVGID_00000062892502659653528550000011237134237102395029_);" points="242.7,257.3 242.7,216.8 
					293.4,216.8 333.9,257.3 				"/>
				<path class="st37" d="M292.1,219.9l34.4,34.4h-80.7v-34.4H292.1 M294.6,213.8h-55v46.6h101.6L294.6,213.8L294.6,213.8z"/>
			</g>
		</g>
	</g>
</g>
</svg>
