<?xml version="1.0" encoding="utf-8"?>
<!-- Generator: Adobe Illustrator 25.4.1, SVG Export Plug-In . SVG Version: 6.00 Build 0)  -->
<svg version="1.1" id="Layer_1" xmlns="http://www.w3.org/2000/svg" xmlns:xlink="http://www.w3.org/1999/xlink" x="0px" y="0px"
	 viewBox="0 0 3839 416.8" style="enable-background:new 0 0 3839 416.8;" xml:space="preserve">
<style type="text/css">
	.st0{fill-rule:evenodd;clip-rule:evenodd;fill:#3E3632;}
	.st1{fill:#282422;}
	.st2{fill:#C5C5C5;}
	.st3{fill:#020202;stroke:#000000;stroke-width:4.7827;stroke-linecap:round;stroke-linejoin:round;stroke-miterlimit:10;}
	.st4{clip-path:url(#SVGID_00000178204633967352120430000004472916007628274863_);}
	.st5{fill:#002684;stroke:#231F20;stroke-width:0.7971;stroke-linecap:round;stroke-linejoin:round;stroke-miterlimit:10;}
	.st6{fill:#00771F;}
	.st7{fill:#89BC27;}
	.st8{fill:#FCEC01;}
	.st9{fill:#F17100;}
	.st10{fill:#E50069;}
	.st11{clip-path:url(#SVGID_00000154389726501722861570000004050958496790938241_);}
	.st12{stroke:#000000;stroke-width:4.7827;stroke-linecap:round;stroke-linejoin:round;stroke-miterlimit:10;}
	.st13{fill:#FFFFFF;stroke:#000000;stroke-width:4.7827;stroke-linecap:round;stroke-linejoin:round;stroke-miterlimit:10;}
	.st14{fill:#020202;}
	.st15{fill:none;stroke:#000000;stroke-width:4.7827;stroke-linecap:round;stroke-linejoin:round;stroke-miterlimit:10;}
	.st16{fill:#F20029;stroke:#000000;stroke-width:4.7827;stroke-linecap:round;stroke-linejoin:round;stroke-miterlimit:10;}
	.st17{fill:#002684;stroke:#000000;stroke-width:4.7827;stroke-linecap:round;stroke-linejoin:round;stroke-miterlimit:10;}
	.st18{fill:url(#SVGID_00000004509617288502175000000009468056318293103502_);}
	.st19{fill:#FFFFFF;}
	.st20{fill:url(#SVGID_00000177452980249941951590000007317653526205873825_);}
	.st21{fill:url(#SVGID_00000101069053518553080750000004476253721910843792_);}
	.st22{fill:url(#SVGID_00000011018428426584454880000003933354173448773787_);}
	.st23{clip-path:url(#SVGID_00000176025379935073385080000002437822630379716241_);}
	.st24{clip-path:url(#SVGID_00000160152653283581251990000016870653862041654676_);}
	.st25{clip-path:url(#SVGID_00000084524738570112828600000008605900097073947835_);}
	.st26{fill:#002684;}
	.st27{clip-path:url(#SVGID_00000178917811379689569000000007848575559304487859_);}
	.st28{clip-path:url(#SVGID_00000101810153163239469380000000695983236160039599_);}
	.st29{fill:#020202;stroke:#000000;stroke-width:4.928;stroke-linecap:round;stroke-linejoin:round;stroke-miterlimit:10;}
	.st30{fill:#FFFFFF;stroke:#000000;stroke-width:4.928;stroke-linecap:round;stroke-linejoin:round;stroke-miterlimit:10;}
	.st31{fill:#F20029;stroke:#000000;stroke-width:4.928;stroke-linecap:round;stroke-linejoin:round;stroke-miterlimit:10;}
	.st32{fill:#002684;stroke:#000000;stroke-width:4.928;stroke-linecap:round;stroke-linejoin:round;stroke-miterlimit:10;}
	.st33{fill:none;stroke:#000000;stroke-width:4.928;stroke-linecap:round;stroke-linejoin:round;stroke-miterlimit:10;}
	.st34{clip-path:url(#SVGID_00000167373235856288584960000013179317956217439657_);}
	.st35{clip-path:url(#SVGID_00000077313309533250293690000017563902209071134618_);}
	.st36{clip-path:url(#SVGID_00000129205861111435064540000010623392844213459626_);}
	.st37{fill:url(#SVGID_00000155869482432701343330000004538182191765851030_);}
	.st38{fill:url(#SVGID_00000145739943489232180770000002838211668171683493_);}
	.st39{fill:url(#SVGID_00000183933823132107529450000011068842090926142343_);}
	.st40{fill:url(#SVGID_00000145740279485437716050000010143650742038026147_);}
	.st41{clip-path:url(#SVGID_00000105419832058856559400000012349046399811177350_);}
	.st42{fill:#231F20;}
	.st43{clip-path:url(#SVGID_00000152956021615581542970000004075322886270106301_);}
	.st44{clip-path:url(#SVGID_00000129915441044571917810000002929584671490102921_);}
	.st45{fill:#F20029;}
	.st46{clip-path:url(#SVGID_00000091707030219355084890000005112695540539074478_);}
	.st47{clip-path:url(#SVGID_00000092443415693466954980000008326746021339640724_);}
	.st48{clip-path:url(#SVGID_00000021095882141012403120000009935227584637458347_);}
	.st49{clip-path:url(#SVGID_00000048492913842987425640000011023476247597178755_);}
	.st50{clip-path:url(#SVGID_00000026145177802431348750000003720381952311065733_);}
	.st51{clip-path:url(#SVGID_00000008851520129563555020000007641358649882741123_);}
	.st52{fill-rule:evenodd;clip-rule:evenodd;fill:#F20029;}
	.st53{fill-rule:evenodd;clip-rule:evenodd;fill:#FD7801;}
	.st54{fill-rule:evenodd;clip-rule:evenodd;fill:#F2F540;}
	.st55{fill-rule:evenodd;clip-rule:evenodd;fill:#48CC31;}
	.st56{fill-rule:evenodd;clip-rule:evenodd;fill:#14A3FD;}
	.st57{fill:url(#SVGID_00000177443749533580413870000004744078837251391928_);}
	.st58{fill:url(#SVGID_00000077313600202261368510000010841251137414411197_);}
	.st59{fill:url(#SVGID_00000088096341520570259590000000392848178244215680_);}
	.st60{fill:url(#SVGID_00000080195425136607443200000006291997193008793985_);}
	.st61{fill:url(#SVGID_00000018923464835980586870000007245107341814377896_);}
	.st62{fill:url(#SVGID_00000007407767483066638620000009558598999795176599_);}
	.st63{fill:url(#SVGID_00000140727017249710522700000004537145584444222601_);}
	.st64{fill:url(#SVGID_00000035525272628101441340000002278640655337770671_);}
	.st65{fill:url(#SVGID_00000056396588801771061480000009426439404363233183_);}
	.st66{fill:url(#SVGID_00000091717155924349465850000018142646328717698751_);}
	.st67{fill:url(#SVGID_00000002379785930681101050000014469778944713891515_);}
	.st68{fill:url(#SVGID_00000129206942419352923370000003579597649964919708_);}
	.st69{fill:url(#SVGID_00000165927664028675963030000011609641885882240407_);}
	.st70{fill:url(#SVGID_00000089538637230866014830000012231016566363885736_);}
	.st71{fill:url(#SVGID_00000003812953784894435120000004357163910344166324_);}
	.st72{fill:url(#SVGID_00000091004340204966773710000014946556860937172386_);}
	.st73{fill:url(#SVGID_00000037662310561977075380000007685882261802432408_);}
	.st74{fill-rule:evenodd;clip-rule:evenodd;fill:#0F2166;}
	.st75{fill-rule:evenodd;clip-rule:evenodd;fill:#1D4C59;}
	.st76{fill-rule:evenodd;clip-rule:evenodd;fill:#2C774C;}
	.st77{fill-rule:evenodd;clip-rule:evenodd;fill:#3AA23E;}
	.st78{fill-rule:evenodd;clip-rule:evenodd;fill:#48CD31;}
	.st79{fill-rule:evenodd;clip-rule:evenodd;fill:#6AD534;}
	.st80{fill-rule:evenodd;clip-rule:evenodd;fill:#8CDD37;}
	.st81{fill-rule:evenodd;clip-rule:evenodd;fill:#AFE63A;}
	.st82{fill-rule:evenodd;clip-rule:evenodd;fill:#D1EE3D;}
	.st83{fill-rule:evenodd;clip-rule:evenodd;fill:#F3F640;}
	.st84{fill-rule:evenodd;clip-rule:evenodd;fill:#F6D730;}
	.st85{fill-rule:evenodd;clip-rule:evenodd;fill:#F9B721;}
	.st86{fill-rule:evenodd;clip-rule:evenodd;fill:#FB9811;}
	.st87{fill-rule:evenodd;clip-rule:evenodd;fill:#FE7801;}
	.st88{fill-rule:evenodd;clip-rule:evenodd;fill:#FE5C13;}
	.st89{fill-rule:evenodd;clip-rule:evenodd;fill:#FE4125;}
	.st90{fill-rule:evenodd;clip-rule:evenodd;fill:#FE2537;}
	.st91{fill-rule:evenodd;clip-rule:evenodd;fill:#14A4FE;}
	.st92{fill-rule:evenodd;clip-rule:evenodd;fill:#21AECB;}
	.st93{fill-rule:evenodd;clip-rule:evenodd;fill:#2EB998;}
	.st94{fill-rule:evenodd;clip-rule:evenodd;fill:#3BC364;}
	.st95{fill-rule:evenodd;clip-rule:evenodd;fill:#C5C5C5;}
	.st96{fill:#020202;stroke:#000000;stroke-width:4.7334;stroke-linecap:round;stroke-linejoin:round;stroke-miterlimit:10;}
	.st97{clip-path:url(#SVGID_00000085963071075422238290000008403935940845627326_);}
	.st98{fill:#002684;stroke:#231F20;stroke-width:0.7889;stroke-linecap:round;stroke-linejoin:round;stroke-miterlimit:10;}
	.st99{clip-path:url(#SVGID_00000147201287396655974960000018036599481560194971_);}
	.st100{stroke:#000000;stroke-width:4.7334;stroke-linecap:round;stroke-linejoin:round;stroke-miterlimit:10;}
	.st101{fill:#FFFFFF;stroke:#000000;stroke-width:4.7334;stroke-linecap:round;stroke-linejoin:round;stroke-miterlimit:10;}
	.st102{fill:none;stroke:#000000;stroke-width:4.7334;stroke-linecap:round;stroke-linejoin:round;stroke-miterlimit:10;}
	.st103{fill:#F20029;stroke:#000000;stroke-width:4.7334;stroke-linecap:round;stroke-linejoin:round;stroke-miterlimit:10;}
	.st104{fill:#002684;stroke:#000000;stroke-width:4.7334;stroke-linecap:round;stroke-linejoin:round;stroke-miterlimit:10;}
	.st105{fill:url(#SVGID_00000152232328074460577700000005429674086058685838_);}
	.st106{fill:url(#SVGID_00000051370515430560671360000001562831006778524853_);}
	.st107{fill:url(#SVGID_00000147918433736035837110000001236577718264524940_);}
	.st108{fill:url(#SVGID_00000072260928295161519660000011596668881452552097_);}
	.st109{clip-path:url(#SVGID_00000105402317829967311950000004515451747389794188_);}
	.st110{clip-path:url(#SVGID_00000133517374242065163350000011083645750689948818_);}
	.st111{clip-path:url(#SVGID_00000047030390846417159480000002885280154266312884_);}
	.st112{clip-path:url(#SVGID_00000111164135220865759440000015237615697220552084_);}
	.st113{clip-path:url(#SVGID_00000013878530840264107020000012781016880613388700_);}
	.st114{fill:#020202;stroke:#000000;stroke-width:4.8772;stroke-linecap:round;stroke-linejoin:round;stroke-miterlimit:10;}
	.st115{fill:#FFFFFF;stroke:#000000;stroke-width:4.8772;stroke-linecap:round;stroke-linejoin:round;stroke-miterlimit:10;}
	.st116{fill:#F20029;stroke:#000000;stroke-width:4.8772;stroke-linecap:round;stroke-linejoin:round;stroke-miterlimit:10;}
	.st117{fill:#002684;stroke:#000000;stroke-width:4.8772;stroke-linecap:round;stroke-linejoin:round;stroke-miterlimit:10;}
	.st118{fill:none;stroke:#000000;stroke-width:4.8772;stroke-linecap:round;stroke-linejoin:round;stroke-miterlimit:10;}
	.st119{fill:url(#SVGID_00000033329585233929165870000010221789662019608490_);}
	.st120{fill:url(#SVGID_00000003099337590839382900000010015140360534605970_);}
	.st121{fill:url(#SVGID_00000178889361165215813720000010066707298610917026_);}
	.st122{fill:url(#SVGID_00000013173357817742623340000016542371476992359871_);}
	.st123{clip-path:url(#SVGID_00000114790104017032957250000000099575547344481959_);}
	.st124{clip-path:url(#SVGID_00000180342157378070097730000005967161787645795243_);}
	.st125{clip-path:url(#SVGID_00000112613642583363801860000000023184994161629617_);}
	.st126{fill-rule:evenodd;clip-rule:evenodd;fill:#FFFFFF;}
	.st127{fill:url(#SVGID_00000127016043244183669750000010085824528688752801_);}
	.st128{fill:url(#SVGID_00000044880955385432035920000017038449856167708863_);}
	.st129{fill:url(#SVGID_00000091698939363932160190000000685925474978246827_);}
	.st130{fill:url(#SVGID_00000097493418839037798120000013452352376385285795_);}
	.st131{fill:url(#SVGID_00000155138630397517819460000004378652726805427386_);}
	.st132{fill:url(#SVGID_00000048502452147147421530000001741968731259484853_);}
	.st133{fill:url(#SVGID_00000109719033653234407790000012592595747838661564_);}
	.st134{fill:url(#SVGID_00000046338031709617240060000011020552820930782341_);}
	.st135{fill:url(#SVGID_00000065759865059035010080000000435152725342785423_);}
	.st136{fill:url(#SVGID_00000075882573549891054360000007482998312616158389_);}
	.st137{fill:url(#SVGID_00000168838703050728300040000006217819644944205199_);}
	.st138{fill:url(#SVGID_00000025409958477121862760000017161725998504066459_);}
	.st139{fill:url(#SVGID_00000166633901239510704400000004665483439363914644_);}
	.st140{fill:url(#SVGID_00000028311441202725223300000000486983287216298928_);}
	.st141{fill:url(#SVGID_00000145742181032258157390000012457750589530376362_);}
	.st142{fill:url(#SVGID_00000132065065907212789000000006663636377011415955_);}
	.st143{fill:url(#SVGID_00000015336240477905358800000005701691969369266845_);}
	.st144{fill-rule:evenodd;clip-rule:evenodd;fill:#002684;}
	.st145{fill-rule:evenodd;clip-rule:evenodd;fill:#12506F;}
	.st146{fill-rule:evenodd;clip-rule:evenodd;fill:#24795B;}
	.st147{fill-rule:evenodd;clip-rule:evenodd;fill:#36A346;}
	.st148{fill-rule:evenodd;clip-rule:evenodd;fill:#6AD434;}
	.st149{fill-rule:evenodd;clip-rule:evenodd;fill:#8BDC37;}
	.st150{fill-rule:evenodd;clip-rule:evenodd;fill:#AEE53A;}
	.st151{fill-rule:evenodd;clip-rule:evenodd;fill:#D0ED3D;}
	.st152{fill-rule:evenodd;clip-rule:evenodd;fill:#F5D630;}
	.st153{fill-rule:evenodd;clip-rule:evenodd;fill:#F8B621;}
	.st154{fill-rule:evenodd;clip-rule:evenodd;fill:#FA9711;}
	.st155{fill-rule:evenodd;clip-rule:evenodd;fill:#F9500E;}
	.st156{fill-rule:evenodd;clip-rule:evenodd;fill:#F6281C;}
	.st157{clip-path:url(#SVGID_00000138547546588017532420000008824013047305065353_);}
	.st158{clip-path:url(#SVGID_00000167391415512076828080000010318791567655514285_);}
	.st159{clip-path:url(#SVGID_00000000186895783094845570000006681456044263926173_);}
	.st160{clip-path:url(#SVGID_00000109737997120895735050000005263321601168134565_);}
	.st161{clip-path:url(#SVGID_00000093139235072718626130000005882914683062694274_);}
	.st162{clip-path:url(#SVGID_00000148652311152894137040000009039232514904364722_);}
	.st163{clip-path:url(#SVGID_00000137118338382380010180000017624411123572927109_);}
	.st164{clip-path:url(#SVGID_00000028318104920161531190000015115517977397233539_);}
	.st165{clip-path:url(#SVGID_00000110456587245776364350000006349368638994353060_);}
	.st166{clip-path:url(#SVGID_00000171686742390819928920000004587131337918297752_);}
	.st167{clip-path:url(#SVGID_00000176010803130863358820000004187599757720096386_);}
	.st168{clip-path:url(#SVGID_00000013163794367516568960000009196893434491605391_);}
	.st169{clip-path:url(#SVGID_00000130608902322642782430000011817094804031126461_);}
	.st170{clip-path:url(#SVGID_00000034809631043083775760000006320258315160440249_);}
	.st171{clip-path:url(#SVGID_00000121259648606029824490000009849546134512905133_);}
	.st172{clip-path:url(#SVGID_00000049205377555713973500000012024686792186417291_);}
	.st173{clip-path:url(#SVGID_00000178198573595093632100000004395209389903942334_);}
	.st174{clip-path:url(#SVGID_00000160158697451164013920000011372372885865876380_);}
	.st175{clip-path:url(#SVGID_00000052783989496056068530000002687085923527517588_);}
	.st176{clip-path:url(#SVGID_00000042723775457112596070000009985153872958104721_);}
	.st177{clip-path:url(#SVGID_00000046300861104541068130000018306919072168601769_);}
	.st178{clip-path:url(#SVGID_00000103982051968317252640000004851936935620385200_);}
	.st179{clip-path:url(#SVGID_00000025418383038781844670000005957434240211242889_);}
	.st180{clip-path:url(#SVGID_00000093855511175883981220000015928105734053171592_);}
	.st181{clip-path:url(#SVGID_00000079455091552649274950000017058837905684284588_);}
	.st182{clip-path:url(#SVGID_00000121277102689646892910000012304295790433737100_);}
	.st183{clip-path:url(#SVGID_00000057860780026778352770000009234022631470265764_);}
</style>
<g>
	<g>
		<path class="st95" d="M208.4,416.8c-55.5,0-107.8-21.7-147.2-61.2C21.7,316.1,0,263.8,0,208.3C0,153,21.7,100.7,61.2,61.2
			S153,0,208.4,0h3422.2c55.5,0,107.8,21.7,147.2,61.2c39.5,39.5,61.2,91.8,61.2,147.2c0,55.5-21.7,107.8-61.2,147.2
			c-39.5,39.5-91.8,61.2-147.2,61.2L208.4,416.8L208.4,416.8z"/>
		<path id="path4583_00000147181559814607495680000008465619725816332952_" class="st0" d="M208.4,19.8h3422.2
			c103.8,0,188.7,84.9,188.7,188.6l0,0c0,103.8-84.9,188.7-188.7,188.7H208.4c-103.8,0-188.7-84.9-188.7-188.7l0,0
			C19.8,104.7,104.7,19.8,208.4,19.8z"/>
		<path id="path4595_00000030456616161198339100000009660805904688890258_" class="st19" d="M1855.9,154.7h-33.4v95.9h34.9v-50.1
			c0-13.1,8-19.6,22.5-19.6c14.5,0,18.2,4.4,18.9,16.7h32.7c0-32.7-4.4-45-39.2-45c-21.1,0-28.3,4.4-36.3,20.3L1855.9,154.7
			L1855.9,154.7z M2016.4,231.6c-33.4,0-38.5-2.9-38.5-19.6h91.6c-1.5-46.5-1.5-57.4-63.2-57.4c-52.3,0-64,9.4-64,50.9
			c0,38.5,15.3,48,57.4,48.7c47.2,0,69.8-2.2,69.8-33.4h-34.2C2033.9,228,2031,231.6,2016.4,231.6z M1977.2,191.8
			c1.5-10.2,4.4-13.8,27.6-13.8c25.4,0,29.1,1.5,30.5,13.8H1977.2z M678.3,195.3h34.9c-2.9-32.7-12.4-40.7-61-40.7
			c-55.2,0-67.6,8.7-67.6,49.4s11.6,50.1,63.2,50.1c54.5,0,65.4-7.3,65.4-41.4h-34.9c0,9.5-3.6,13.8-30.5,13.8
			c-23.3,0-28.3-5.8-28.3-24.7c0-18.2,5.1-18.2,32.7-18.2C672.5,183.8,676.1,185.9,678.3,195.3z M1488.3,201.1
			c0-39.2-11.6-47.2-67.6-47.2c-60.3,0-67.6,10.2-67.6,50.8c0,40.7,10.2,49.4,67.6,49.4C1481.8,254.1,1488.3,244,1488.3,201.1z
			 M1388.7,203.3c0-19.6,4.4-21.8,29.8-21.8c28.3,0,33.4,0.7,33.4,21.8c0,19.6-3.6,23.3-30.5,23.3
			C1392.4,226.5,1388.7,223.6,1388.7,203.3L1388.7,203.3z M1801.3,201.1c0-39.2-10.9-47.2-66.8-47.2c-59.6,0-66.9,9.4-66.9,50.1
			c0,41.4,10.2,50.1,66.9,50.1C1795.5,254.1,1801.3,244,1801.3,201.1z M1702.6,203.3c0-19.6,4.4-21.8,29.8-21.8
			c28.3,0,33.4,0.7,33.4,21.8c0,19.6-3.6,23.3-30.5,23.3C1706.3,226.5,1702.6,223.6,1702.6,203.3z M868,201.1
			c0-39.2-10.9-47.2-66.8-47.2c-60.3,0-67.6,9.4-67.6,50.1c0,41.4,10.2,50.1,67.6,50.1C862.1,254.1,868,244,868,201.1z M769.8,203.3
			c0-19.6,4.4-21.8,29.1-21.8c28.3,0,33.4,0.7,33.4,21.8c0,19.6-3.6,23.3-30.5,23.3C773.5,226.5,769.8,223.6,769.8,203.3z
			 M1609.6,114v56c-8-10.9-15.3-16.7-44.3-16.7c-46.5,0-55.2,12.4-55.2,50.1c0,38.5,12.4,49.4,57.4,49.4c28.3,0,37.1-7.3,43.6-19.6
			v17.4h34.9V114H1609.6L1609.6,114z M1584.2,180.8c19.6,0,26.2,2.9,26.2,18.2c0,23.3-1.5,25.5-29.1,25.5s-34.9-0.7-34.9-20.4
			C1546.4,181.6,1555.1,180.8,1584.2,180.8z M923.2,154.7h-32.7v95.9h34.9v-49.4c0-14.5,7.3-19.6,26.9-19.6
			c18.2,0,23.3,6.5,23.3,24.7v44.3h35.6v-50.8c0-13.8,10.9-18.2,27.6-18.2c16,0,23.3,4.4,23.3,18.2v50.8h34.9v-56.7
			c0-28.3-17.4-41.4-49.4-41.4c-27.6,0-37.8,10.2-41.4,21.1c-7.3-12.4-17.4-21.1-45.1-21.1c-26.2,0-33.4,8.7-37.8,24.7L923.2,154.7
			L923.2,154.7z M1157.8,154.7h-32.7v95.9h34.9v-49.4c0-14.5,8.7-19.6,26.1-19.6c18.2,0,23.3,5.8,23.3,24.7v44.3h35.6v-50.8
			c0-13.8,10.2-18.2,26.9-18.2c16,0,24,5.1,24,18.2v50.8h34.9v-56.7c0-28.3-17.4-41.4-49.4-41.4c-27.6,0-37.1,9.4-41.4,21.1
			c-7.3-12.4-17.4-21.1-45.1-21.1c-25.4,0-32,8.7-37.1,24.7L1157.8,154.7L1157.8,154.7z"/>
		<g>
			<path class="st19" d="M426.9,262.8c-9.5,5.4-20.5,8.4-32.2,8.4c-36.4,0-66.1-29.6-66.1-66.1s29.6-66.1,66.1-66.1
				c11.7,0,22.7,3.1,32.2,8.4V84.8c-10.3-2.7-21.1-4.2-32.2-4.2c-68.8,0-124.6,55.8-124.6,124.6s55.8,124.6,124.6,124.6
				c11.1,0,21.9-1.5,32.2-4.2V262.8z"/>
			<g>
				<g>
					<rect x="426.9" y="150.8" class="st19" width="52.3" height="49.9"/>
					<polygon class="st19" points="535.5,150.8 485.6,200.6 462.7,200.6 462.7,150.8 					"/>
				</g>
				<g>
					<rect x="426.9" y="209.6" class="st19" width="52.3" height="49.9"/>
					<polygon class="st19" points="535.5,259.5 485.6,209.6 462.7,209.6 462.7,259.5 					"/>
				</g>
			</g>
		</g>
		<path class="st2" d="M3630.7,19.8H2273.1V397h1357.5c103.8,0,188.7-84.9,188.7-188.7C3819.2,104.7,3734.3,19.8,3630.7,19.8z"/>
		<g>
			<polygon class="st96" points="2546.2,58.3 2516.7,58.3 2496.5,78.5 2519.1,78.5 2555.7,78.5 2583.2,308.2 2594.5,213.4 
				2576,58.3 			"/>
			<g>
				<g>
					<defs>
						<polygon id="SVGID_00000152963397669467435110000011424588802262167962_" points="2610.6,78.5 2583.2,308.2 2555.7,78.5 
							2496.5,78.5 2530.8,366.3 2576.2,366.3 2590.1,366.3 2635.5,366.3 2669.8,78.5 						"/>
					</defs>
					<clipPath id="SVGID_00000060740727545288215210000002336566991692675474_">
						<use xlink:href="#SVGID_00000152963397669467435110000011424588802262167962_"  style="overflow:visible;"/>
					</clipPath>
					<g style="clip-path:url(#SVGID_00000060740727545288215210000002336566991692675474_);">
						<polygon class="st98" points="2650,68.4 2322.3,389.3 2203.6,389.3 2455.3,68.4 						"/>
						<polygon class="st6" points="3114.1,68.4 2786.5,389.3 3065.8,389.3 						"/>
						<polygon class="st7" points="2998,68.4 2670.4,389.3 2786.5,389.3 3114.1,68.4 						"/>
						<polygon class="st8" points="2554.3,389.3 2882,68.4 2998,68.4 2670.4,389.3 						"/>
						<polygon class="st9" points="2438.4,389.3 2766,68.4 2882,68.4 2554.3,389.3 						"/>
						<polygon class="st10" points="2322.3,389.3 2650,68.4 2766,68.4 2438.4,389.3 						"/>
					</g>
				</g>
			</g>
			<polygon class="st96" points="2660.4,58.3 2630.8,58.3 2610.6,78.5 2628.4,78.5 2669.8,78.5 2637.9,346.1 2637.9,346.1 
				2635.5,366.3 2655.7,346.1 2657.6,330.4 2657.6,330.4 2690.1,58.3 			"/>
			<g>
				<g>
					<defs>
						<path id="SVGID_00000083048804369792199190000011644998351817825166_" d="M2906.3,282c-11.1,6.2-23.9,9.8-37.5,9.8
							c-42.4,0-77-34.5-77-77s34.5-77,77-77c13.6,0,26.4,3.6,37.5,9.8v-73c-12-3.2-24.5-4.9-37.5-4.9c-80.2,0-145.1,65-145.1,145.1
							s65,145.1,145.1,145.1c13,0,25.6-1.7,37.5-4.9V282z"/>
					</defs>
					<clipPath id="SVGID_00000152258786054422950320000003621436259044443028_">
						<use xlink:href="#SVGID_00000083048804369792199190000011644998351817825166_"  style="overflow:visible;"/>
					</clipPath>
					<g style="clip-path:url(#SVGID_00000152258786054422950320000003621436259044443028_);">
						<polygon class="st98" points="2650,68.4 2322.3,389.3 2203.6,389.3 2455.3,68.4 						"/>
						<polygon class="st6" points="3114.1,68.4 2786.5,389.3 3065.8,389.3 						"/>
						<polygon class="st7" points="2998,68.4 2670.4,389.3 2786.5,389.3 3114.1,68.4 						"/>
						<polygon class="st8" points="2554.3,389.3 2882,68.4 2998,68.4 2670.4,389.3 						"/>
						<polygon class="st9" points="2438.4,389.3 2766,68.4 2882,68.4 2554.3,389.3 						"/>
						<polygon class="st10" points="2322.3,389.3 2650,68.4 2766,68.4 2438.4,389.3 						"/>
					</g>
				</g>
			</g>
			<polygon class="st100" points="2555.7,78.5 2576,58.3 2516.7,58.3 2496.5,78.5 			"/>
			<polygon class="st100" points="2630.8,58.3 2690.1,58.3 2669.8,78.5 2610.6,78.5 			"/>
			<g>
				<path class="st96" d="M3209.4,58.3h-59.2c-11.7,0-22.4,4.5-30.4,11.9l0,0l-0.3,0.3c-0.7,0.6-1.3,1.3-2,2l-18.1,18.1l0,0
					c1-0.9,2-1.8,3.1-2.7l0,0c1.1-0.8,2.2-1.6,3.3-2.3c0.1,0,0.1-0.1,0.2-0.1c1.1-0.7,2.2-1.3,3.4-1.9c0.1-0.1,0.3-0.1,0.4-0.2
					c1.1-0.5,2.2-1.1,3.3-1.5c0.3-0.1,0.6-0.2,0.9-0.3c1-0.4,2-0.8,3.1-1.1c0.5-0.1,1-0.2,1.5-0.4c0.9-0.2,1.8-0.5,2.7-0.7
					c0.8-0.2,1.5-0.2,2.3-0.4c0.7-0.1,1.3-0.2,2-0.3c1.5-0.1,3-0.2,4.5-0.2h59.2l0,0c1.4,0,2.8,0.1,4.2,0.2c0.4,0,0.8,0.1,1.2,0.1
					c1,0.1,2,0.3,3,0.5c0.4,0.1,0.8,0.1,1.2,0.2c2.6,0.6,5.2,1.4,7.6,2.4c0.4,0.1,0.7,0.3,1.1,0.5c0.9,0.4,1.8,0.8,2.6,1.3
					c0.3,0.2,0.7,0.3,1,0.5c1.1,0.6,2.3,1.3,3.3,2c1.2,0.8,2.4,1.7,3.5,2.6c1.2,1,2.3,2,3.4,3.1c0.4,0.4,0.7,0.7,1,1.1
					c0.7,0.8,1.4,1.5,2,2.3c0.4,0.5,0.7,1,1.1,1.4c0.6,0.8,1.1,1.5,1.6,2.3c0.3,0.5,0.7,1.1,1,1.6c0.5,0.8,0.9,1.6,1.3,2.4
					c0.3,0.6,0.6,1.2,0.8,1.8c0.4,0.8,0.7,1.7,1.1,2.6c0.2,0.6,0.5,1.2,0.7,1.8c0.3,0.9,0.6,1.8,0.8,2.8c0.2,0.6,0.3,1.2,0.5,1.8
					c0.2,1,0.4,2.1,0.5,3.2c0.1,0.5,0.2,1.1,0.2,1.6c0.2,1.6,0.3,3.2,0.3,4.9l0,0v77.8l0,0v7c0,9.8-3.2,19.2-8.9,26.8l0,0l14.7-14.1
					l0,0c9-8.4,14.4-20.3,14.4-32.9v-84.8C3254.4,78.5,3234.2,58.3,3209.4,58.3z"/>
				<path class="st101" d="M3280.4,123.6v197.7c0,24.9,20.2,45,45,45h59.2c24.9,0,45-20.2,45-45V123.6c0-24.9-20.2-45-45-45h-59.2
					C3300.5,78.5,3280.4,98.7,3280.4,123.6z M3339.2,309.1V135.8c0-5.9,4.8-10.6,10.6-10.6h10.3c5.9,0,10.6,4.8,10.6,10.6v173.4
					c0,5.9-4.8,10.6-10.6,10.6h-10.3C3344,319.7,3339.2,314.9,3339.2,309.1z"/>
				<g>
					<g>
						<path class="st14" d="M3414.8,354.6L3414.8,354.6l0.8-0.7C3415.3,354.2,3415,354.4,3414.8,354.6z"/>
						<path class="st96" d="M3449.9,103.4c0-24.9-20.2-45-45-45h-59.2c-11.9,0-22.6,4.6-30.6,12.1h-0.2l-22.1,22.1h0.1
							c8.2-8.6,19.7-14,32.6-14h9.5h49.7c6.2,0,12.1,1.3,17.5,3.5c6.6,2.8,12.4,7.1,17,12.6c0.3,0.4,0.6,0.8,0.9,1.2
							c2,2.5,3.7,5.3,5.1,8.2c2.9,5.9,4.5,12.5,4.5,19.6v187.3l0,0v10.5c0,12-4.7,22.9-12.4,30.9l19.3-19.3c0.3-0.3,0.6-0.6,0.8-0.8
							l0.2-0.2l0,0c7.6-8,12.3-18.9,12.3-30.8L3449.9,103.4L3449.9,103.4z"/>
					</g>
					<path class="st14" d="M3349.8,125.1c-5.9,0-10.6,4.8-10.6,10.6V309c0,5.9,4.8,10.6,10.6,10.6h10.3c5.9,0,10.6-4.8,10.6-10.6
						v-9.6h-0.8c-5.9,0-10.6-4.8-10.6-10.6V125.1H3349.8z"/>
				</g>
				<path class="st96" d="M3154.4,125.1c-5.9,0-10.6,4.8-10.6,10.6v8.7l0,0V179l20.2-20.2V142v-16.9H3154.4z"/>
				<path class="st96" d="M3163.9,299.5V274l-14.8,8.3c-3.4,1.9-5.4,5.4-5.4,9.3v28.2h90.4v8.4v38.2l20.2-20.2v-18v-28.6
					L3163.9,299.5L3163.9,299.5z"/>
				<path class="st14" d="M3097,93l-0.7,0.7l0,0C3096.5,93.5,3096.7,93.2,3097,93z"/>
				<path class="st100" d="M3404.8,58.3h-59.2c-11.9,0-22.6,4.6-30.6,12.1h-0.2l-22.1,22.1h0.1c8.2-8.6,19.7-14,32.6-14h9.5h49.7
					c6.2,0,12.1,1.3,17.5,3.5c4.9,2.1,9.3,5,13.2,8.6l20.2-20.2C3427.5,62.9,3416.7,58.3,3404.8,58.3z"/>
				<polygon class="st100" points="3143.7,319.7 3163.9,299.5 3254.4,299.5 3234.2,319.7 				"/>
				<path class="st100" d="M3224.4,95.6l20.2-20.2c-8.3-10.4-21-17.1-35.3-17.1h-59.1c-11.7,0-22.4,4.5-30.4,11.9l0,0l-0.3,0.3
					c-0.7,0.6-1.3,1.3-2,2l-18.1,18.1c8-7.5,18.8-12.1,30.6-12.1h59.2c9.3,0,18,2.8,25.2,7.7c1.2,0.8,2.4,1.7,3.5,2.6
					C3220.2,90.8,3222.4,93.1,3224.4,95.6z"/>
				<path class="st101" d="M3084.9,123.6v55.5h58.8v-43.3c0-5.9,4.8-10.6,10.6-10.6h10.4c5.9,0,10.6,4.8,10.6,10.6v69.7
					c0,3.9-2.1,7.4-5.5,9.3l-61.9,34.6c-14.3,8-23.1,23-23.1,39.3v49.8v27.9h58.8l0,0h90.4v-46.6h-90.4v-28.2c0-3.9,2.1-7.4,5.4-9.3
					l61.9-34.6c14.2-8,23.1-23,23.1-39.3v-84.8c0-24.9-20.2-45-45-45h-59.2C3105.1,78.5,3084.9,98.7,3084.9,123.6z"/>
				<path class="st96" d="M3135.6,233.8l34.3-19.2c0.4-0.2,0.8-0.5,1.2-0.8c2.7-2,4.2-5.1,4.2-8.5v-2.7l-47.1,26.3
					c-3.1,1.7-6,3.8-8.5,6.2l0,0l-0.3,0.3c-0.7,0.7-1.5,1.4-2.1,2.1l-17.9,17.9l0,0c2.6-2.4,5.5-4.5,8.6-6.3L3135.6,233.8
					L3135.6,233.8z"/>
			</g>
			<g>
				<path class="st14" d="M2860.7,354.6L2860.7,354.6l0.8-0.7C2861.3,354.2,2861,354.4,2860.7,354.6z"/>
			</g>
			<path class="st102" d="M2906.3,282c-11.1,6.2-23.9,9.8-37.5,9.8c-42.4,0-77-34.5-77-77s34.5-77,77-77c13.6,0,26.4,3.6,37.5,9.8
				v-73c-12-3.2-24.5-4.9-37.5-4.9c-80.2,0-145.1,65-145.1,145.1s65,145.1,145.1,145.1c13,0,25.6-1.7,37.5-4.9V282z"/>
			<g>
				<path class="st96" d="M2811.3,195.5c0-16.3,5.1-31.4,13.8-43.9c-20,13.9-33.1,37-33.1,63.2c0,42.4,34.5,77,77,77
					c13.6,0,26.4-3.6,37.5-9.8v34.9v38.2l19.3-19.3v-20.1v-53c-11.1,6.2-23.9,9.8-37.5,9.8C2845.8,272.5,2811.3,238,2811.3,195.5z"
					/>
				<path class="st96" d="M2888.1,50.5c-45,0-85.2,20.5-111.8,52.6c25.1-20.8,57.4-33.3,92.5-33.3c13,0,25.6,1.7,37.5,4.9v25.2v47.9
					l19.3-19.3v-27.4V55.4C2913.7,52.2,2901.1,50.5,2888.1,50.5z"/>
			</g>
			<path class="st100" d="M2906.3,74.7l19.3-19.3c-12-3.2-24.5-4.9-37.5-4.9c-45,0-85.2,20.5-111.8,52.6
				c25.1-20.8,57.4-33.3,92.5-33.3C2881.8,69.8,2894.4,71.5,2906.3,74.7z"/>
			<path class="st96" d="M2906.3,282l19.3-19.3c-11.1,6.2-23.9,9.8-37.5,9.8c-42.4,0-77-34.5-77-77c0-16.3,5.1-31.4,13.8-43.9
				c-20,13.9-33.1,37-33.1,63.2c0,42.4,34.5,77,77,77C2882.4,291.8,2895.2,288.2,2906.3,282L2906.3,282z"/>
			<polygon class="st103" points="2967.2,220.2 2948,220.2 2906.3,220.2 2906.3,278.2 2948,278.2 2967.2,278.2 3032.8,278.2 
				2974.8,220.2 			"/>
			<polygon class="st96" points="2986.6,200.8 2967.3,200.8 2925.7,200.8 2906.3,220.2 2925.7,220.2 2933.3,220.2 2948,220.2 
				2967.2,220.2 2974.8,220.2 3013.5,258.9 3032.8,278.2 3052.2,258.9 2994.1,200.8 			"/>
			<polygon class="st100" points="2974.8,220.2 2994.1,200.8 2925.7,200.8 2906.3,220.2 			"/>
			<polygon class="st100" points="2948,151.6 2967.2,151.6 3032.8,151.6 3052.2,132.3 2986.6,132.3 2967.3,132.3 2925.7,132.3 
				2906.3,151.6 2925.7,151.6 			"/>
			<polygon class="st104" points="2967.2,209.6 2974.8,209.6 3032.8,151.6 2967.2,151.6 2948,151.6 2906.3,151.6 2906.3,209.6 
				2948,209.6 			"/>
			<polygon class="st102" points="2610.6,78.5 2583.2,308.2 2555.7,78.5 2496.5,78.5 2530.8,366.3 2576.2,366.3 2590.1,366.3 
				2635.5,366.3 2669.8,78.5 			"/>
		</g>
	</g>
</g>
</svg>
