<?xml version="1.0" encoding="utf-8"?>
<!-- Generator: Adobe Illustrator 25.0.0, SVG Export Plug-In . SVG Version: 6.00 Build 0)  -->
<svg version="1.1" id="Layer_1" xmlns="http://www.w3.org/2000/svg" xmlns:xlink="http://www.w3.org/1999/xlink" x="0px" y="0px"
	 viewBox="0 0 3840 372.8" style="enable-background:new 0 0 3840 372.8;" xml:space="preserve">
<style type="text/css">
	.st0{fill:#FFFFFF;}
</style>
<g>
	<g>
		<path class="st0" d="M2866.4,253.8c-35.2,32.4-116.3,27.9-161,27.9h-143.1v91.1h-113.5V0h255.4c20.7,0,40.8,0,61.5,0.6
			c36.3,0.6,77.7,4.5,105.1,31.3c25.7,25.2,25.7,80.5,25.7,113.5C2896.6,180.5,2894.3,228,2866.4,253.8z M2731.7,93.9
			c-8.9,0-18.4-0.6-27.4-0.6h-142v95h168.8c43.6,0,51.4-7.8,51.4-50.9C2782.5,96.7,2768,94.5,2731.7,93.9z"/>
		<path class="st0" d="M2927.8,372.8V0h412.5v87.8h-300.7V142h285.6v81.6h-285.6v59.8h302.9v89.4H2927.8z"/>
		<path class="st0" d="M3674,95v277.8h-119.1V95h-166V0H3840v95H3674z"/>
	</g>
	<g>
		<g>
			<path id="path4595_2_" class="st0" d="M2069.9,120.5h-43.6v125.1h45.5v-65.4c0-17.1,10.4-25.6,29.4-25.6
				c18.9,0,23.7,5.7,24.6,21.8h42.7c0-42.7-5.7-58.8-51.2-58.8c-27.5,0-37,5.7-47.4,26.5L2069.9,120.5L2069.9,120.5z M2279.4,221
				c-43.6,0-50.2-3.8-50.2-25.6h119.5c-1.9-60.6-1.9-74.9-82.5-74.9c-68.3,0-83.5,12.3-83.5,66.4c0,50.3,19.9,62.6,74.9,63.5
				c61.6,0,91-2.9,91-43.6H2304C2302.1,216.2,2298.4,221,2279.4,221z M2228.2,168.8c1.9-13.3,5.7-18,36-18c33.2,0,37.9,1.9,39.8,18
				H2228.2z M532.9,173.6h45.5c-3.8-42.7-16.1-53.1-79.6-53.1c-72.1,0-88.2,11.4-88.2,64.5c0,53.1,15.2,65.4,82.5,65.4
				c71.1,0,85.3-9.5,85.3-54.1h-45.5c0,12.3-4.7,18-39.8,18c-30.3,0-37-7.6-37-32.2c0-23.7,6.6-23.7,42.7-23.7
				C525.3,158.4,530,161.3,532.9,173.6z M1590.1,181.1c0-51.2-15.2-61.6-88.2-61.6c-78.7,0-88.2,13.3-88.2,66.3
				c0,53.1,13.3,64.5,88.2,64.5C1581.6,250.4,1590.1,237.1,1590.1,181.1z M1460.2,184c0-25.6,5.7-28.4,38.9-28.4
				c37,0,43.6,0.9,43.6,28.4c0,25.6-4.7,30.3-39.8,30.3C1464.9,214.4,1460.2,210.6,1460.2,184L1460.2,184z M1998.7,181.1
				c0-51.2-14.2-61.6-87.2-61.6c-77.8,0-87.2,12.3-87.2,65.4c0,54,13.3,65.4,87.2,65.4C1991.1,250.4,1998.7,237.1,1998.7,181.1z
				 M1869.8,184c0-25.6,5.7-28.4,38.9-28.4c37,0,43.6,0.9,43.6,28.4c0,25.6-4.7,30.3-39.8,30.3
				C1874.5,214.4,1869.8,210.6,1869.8,184z M780.4,181.1c0-51.2-14.2-61.6-87.2-61.6c-78.7,0-88.2,12.3-88.2,65.4
				c0,54,13.3,65.4,88.2,65.4C772.8,250.4,780.4,237.1,780.4,181.1z M652.3,184c0-25.6,5.7-28.4,37.9-28.4c37,0,43.6,0.9,43.6,28.4
				c0,25.6-4.8,30.3-39.8,30.3C657.1,214.4,652.3,210.6,652.3,184z M1748.4,67.4v73c-10.4-14.2-19.9-21.8-57.8-21.8
				c-60.7,0-72.1,16.1-72.1,65.4c0,50.3,16.1,64.5,74.9,64.5c37,0,48.4-9.5,56.9-25.6v22.7h45.5V67.4L1748.4,67.4L1748.4,67.4z
				 M1715.2,154.6c25.6,0,34.1,3.8,34.1,23.7c0,30.4-1.9,33.2-37.9,33.2c-36,0-45.5-1-45.5-26.6
				C1665.9,155.6,1677.3,154.6,1715.2,154.6z M852.4,120.5h-42.7v125.1h45.5v-64.5c0-18.9,9.5-25.6,35.1-25.6
				c23.7,0,30.3,8.5,30.3,32.2v57.8h46.5v-66.3c0-18,14.2-23.7,36-23.7c20.9,0,30.3,5.7,30.3,23.7v66.3h45.5v-73.9
				c0-37-22.8-54-64.5-54c-36,0-49.3,13.3-54.1,27.5c-9.5-16.1-22.7-27.5-58.8-27.5c-34.1,0-43.6,11.4-49.3,32.2L852.4,120.5
				L852.4,120.5z M1158.7,120.5H1116v125.1h45.5v-64.5c0-18.9,11.4-25.6,34.1-25.6c23.7,0,30.3,7.6,30.3,32.2v57.8h46.5v-66.3
				c0-18,13.3-23.7,35.1-23.7c20.9,0,31.3,6.6,31.3,23.7v66.3h45.5v-73.9c0-37-22.7-54-64.5-54c-36,0-48.4,12.3-54,27.5
				c-9.5-16.1-22.8-27.5-58.8-27.5c-33.2,0-41.7,11.4-48.3,32.2L1158.7,120.5L1158.7,120.5z"/>
			<g>
				<path class="st0" d="M204.7,261.6c-12.4,7-26.8,11-42.1,11c-47.5,0-86.2-38.7-86.2-86.2s38.7-86.2,86.2-86.2
					c15.3,0,29.6,4,42.1,11V29.3c-13.4-3.6-27.5-5.5-42-5.5C72.8,23.8,0,96.6,0,186.4S72.8,349,162.6,349c14.5,0,28.6-1.9,42-5.5
					V261.6z"/>
				<g>
					<g>
						<rect x="204.7" y="115.4" class="st0" width="68.2" height="65.1"/>
						<polygon class="st0" points="346.4,115.4 281.3,180.5 251.4,180.5 251.4,115.4 						"/>
					</g>
					<g>
						<rect x="204.7" y="192.3" class="st0" width="68.2" height="65.1"/>
						<polygon class="st0" points="346.4,257.4 281.3,192.3 251.4,192.3 251.4,257.4 						"/>
					</g>
				</g>
			</g>
		</g>
	</g>
</g>
</svg>
