<?xml version="1.0" encoding="utf-8"?>
<!-- Generator: Adobe Illustrator 25.4.1, SVG Export Plug-In . SVG Version: 6.00 Build 0)  -->
<svg version="1.1" id="Layer_1" xmlns="http://www.w3.org/2000/svg" xmlns:xlink="http://www.w3.org/1999/xlink" x="0px" y="0px"
	 viewBox="0 0 3839 419.3" style="enable-background:new 0 0 3839 419.3;" xml:space="preserve">
<style type="text/css">
	.st0{fill-rule:evenodd;clip-rule:evenodd;fill:#3E3632;}
	.st1{fill:#282422;}
	.st2{fill:#C5C5C5;}
	.st3{fill:#020202;stroke:#000000;stroke-width:4.7827;stroke-linecap:round;stroke-linejoin:round;stroke-miterlimit:10;}
	.st4{clip-path:url(#SVGID_00000073710591371636787690000012122807677044051867_);}
	.st5{fill:#002684;stroke:#231F20;stroke-width:0.7971;stroke-linecap:round;stroke-linejoin:round;stroke-miterlimit:10;}
	.st6{fill:#00771F;}
	.st7{fill:#89BC27;}
	.st8{fill:#FCEC01;}
	.st9{fill:#F17100;}
	.st10{fill:#E50069;}
	.st11{clip-path:url(#SVGID_00000001663527600539741290000016063867733408529076_);}
	.st12{stroke:#000000;stroke-width:4.7827;stroke-linecap:round;stroke-linejoin:round;stroke-miterlimit:10;}
	.st13{fill:#FFFFFF;stroke:#000000;stroke-width:4.7827;stroke-linecap:round;stroke-linejoin:round;stroke-miterlimit:10;}
	.st14{fill:#020202;}
	.st15{fill:none;stroke:#000000;stroke-width:4.7827;stroke-linecap:round;stroke-linejoin:round;stroke-miterlimit:10;}
	.st16{fill:#F20029;stroke:#000000;stroke-width:4.7827;stroke-linecap:round;stroke-linejoin:round;stroke-miterlimit:10;}
	.st17{fill:#002684;stroke:#000000;stroke-width:4.7827;stroke-linecap:round;stroke-linejoin:round;stroke-miterlimit:10;}
	.st18{fill:url(#SVGID_00000183249282808645214220000008987559119511755651_);}
	.st19{fill:#FFFFFF;}
	.st20{fill:url(#SVGID_00000166648748995744678360000009303237978126291382_);}
	.st21{fill:url(#SVGID_00000081631757816341930050000004700422912822825909_);}
	.st22{fill:url(#SVGID_00000013897036145057927700000007700363202870342537_);}
	.st23{clip-path:url(#SVGID_00000152977369730568445210000012744518820895570076_);}
	.st24{clip-path:url(#SVGID_00000115515795799720373250000017933358193615833768_);}
	.st25{clip-path:url(#SVGID_00000181075290671406893540000013821104365380826764_);}
	.st26{fill:#002684;}
	.st27{clip-path:url(#SVGID_00000059291973462557054390000014618738554362679431_);}
	.st28{clip-path:url(#SVGID_00000020376264861202917170000002201271581231839893_);}
	.st29{fill:#020202;stroke:#000000;stroke-width:4.928;stroke-linecap:round;stroke-linejoin:round;stroke-miterlimit:10;}
	.st30{fill:#FFFFFF;stroke:#000000;stroke-width:4.928;stroke-linecap:round;stroke-linejoin:round;stroke-miterlimit:10;}
	.st31{fill:#F20029;stroke:#000000;stroke-width:4.928;stroke-linecap:round;stroke-linejoin:round;stroke-miterlimit:10;}
	.st32{fill:#002684;stroke:#000000;stroke-width:4.928;stroke-linecap:round;stroke-linejoin:round;stroke-miterlimit:10;}
	.st33{fill:none;stroke:#000000;stroke-width:4.928;stroke-linecap:round;stroke-linejoin:round;stroke-miterlimit:10;}
	.st34{clip-path:url(#SVGID_00000099643818492347335120000007178404855802073269_);}
	.st35{clip-path:url(#SVGID_00000180338110552539092100000017085895964683033227_);}
	.st36{clip-path:url(#SVGID_00000039855483965541315410000006862957780488185248_);}
	.st37{fill:url(#SVGID_00000018944580941937362980000000245074611296714405_);}
	.st38{fill:url(#SVGID_00000155857642285449414400000017899974274640997556_);}
	.st39{fill:url(#SVGID_00000158733499925758916190000016260962884481801372_);}
	.st40{fill:url(#SVGID_00000140694580669559178990000016836867955109118621_);}
	.st41{clip-path:url(#SVGID_00000125578351514195291060000010164759202326327723_);}
	.st42{fill:#231F20;}
	.st43{clip-path:url(#SVGID_00000016047654841603572780000000929090257781051008_);}
	.st44{clip-path:url(#SVGID_00000102535165624798030990000004652113846601358988_);}
	.st45{fill:#F20029;}
	.st46{clip-path:url(#SVGID_00000108300766589337465220000001426020077561189004_);}
	.st47{clip-path:url(#SVGID_00000111181687658781610990000012547541198171921064_);}
	.st48{clip-path:url(#SVGID_00000067922903674461974840000001567750851151434155_);}
	.st49{clip-path:url(#SVGID_00000147221242678042492630000009010334588305018530_);}
	.st50{clip-path:url(#SVGID_00000075856628094368721080000007338644485572646309_);}
	.st51{clip-path:url(#SVGID_00000138538430527237804970000014703728182204570548_);}
	.st52{fill-rule:evenodd;clip-rule:evenodd;fill:#F20029;}
	.st53{fill-rule:evenodd;clip-rule:evenodd;fill:#FD7801;}
	.st54{fill-rule:evenodd;clip-rule:evenodd;fill:#F2F540;}
	.st55{fill-rule:evenodd;clip-rule:evenodd;fill:#48CC31;}
	.st56{fill-rule:evenodd;clip-rule:evenodd;fill:#14A3FD;}
	.st57{fill:url(#SVGID_00000118397345789800927610000007940175511232790173_);}
	.st58{fill:url(#SVGID_00000047759475605854156570000016542380086886918531_);}
	.st59{fill:url(#SVGID_00000083769328757540338080000001913291783272517308_);}
	.st60{fill:url(#SVGID_00000037680423746579098690000015579038494742857369_);}
	.st61{fill:url(#SVGID_00000018925794314232373960000000666775917933682347_);}
	.st62{fill:url(#SVGID_00000091719559055422286160000004574997858306497191_);}
	.st63{fill:url(#SVGID_00000054946804872895943860000018424558894892492985_);}
	.st64{fill:url(#SVGID_00000155113091752746522350000002454589362357280909_);}
	.st65{fill:url(#SVGID_00000053531772902020630430000015766762479298607514_);}
	.st66{fill:url(#SVGID_00000041285219950801409620000008589697658637112493_);}
	.st67{fill:url(#SVGID_00000177466186101024526690000009272902098197129621_);}
	.st68{fill:url(#SVGID_00000023254004313749973530000018246282671158434229_);}
	.st69{fill:url(#SVGID_00000034811705231673573790000001490773607449423257_);}
	.st70{fill:url(#SVGID_00000091706201930359052430000014413050135501086099_);}
	.st71{fill:url(#SVGID_00000098203839941756431120000005637646274113822131_);}
	.st72{fill:url(#SVGID_00000139975389936879304530000002402748238584261018_);}
	.st73{fill:url(#SVGID_00000059293161117861678100000017478240171045607338_);}
	.st74{fill-rule:evenodd;clip-rule:evenodd;fill:#0F2166;}
	.st75{fill-rule:evenodd;clip-rule:evenodd;fill:#1D4C59;}
	.st76{fill-rule:evenodd;clip-rule:evenodd;fill:#2C774C;}
	.st77{fill-rule:evenodd;clip-rule:evenodd;fill:#3AA23E;}
	.st78{fill-rule:evenodd;clip-rule:evenodd;fill:#48CD31;}
	.st79{fill-rule:evenodd;clip-rule:evenodd;fill:#6AD534;}
	.st80{fill-rule:evenodd;clip-rule:evenodd;fill:#8CDD37;}
	.st81{fill-rule:evenodd;clip-rule:evenodd;fill:#AFE63A;}
	.st82{fill-rule:evenodd;clip-rule:evenodd;fill:#D1EE3D;}
	.st83{fill-rule:evenodd;clip-rule:evenodd;fill:#F3F640;}
	.st84{fill-rule:evenodd;clip-rule:evenodd;fill:#F6D730;}
	.st85{fill-rule:evenodd;clip-rule:evenodd;fill:#F9B721;}
	.st86{fill-rule:evenodd;clip-rule:evenodd;fill:#FB9811;}
	.st87{fill-rule:evenodd;clip-rule:evenodd;fill:#FE7801;}
	.st88{fill-rule:evenodd;clip-rule:evenodd;fill:#FE5C13;}
	.st89{fill-rule:evenodd;clip-rule:evenodd;fill:#FE4125;}
	.st90{fill-rule:evenodd;clip-rule:evenodd;fill:#FE2537;}
	.st91{fill-rule:evenodd;clip-rule:evenodd;fill:#14A4FE;}
	.st92{fill-rule:evenodd;clip-rule:evenodd;fill:#21AECB;}
	.st93{fill-rule:evenodd;clip-rule:evenodd;fill:#2EB998;}
	.st94{fill-rule:evenodd;clip-rule:evenodd;fill:#3BC364;}
	.st95{fill-rule:evenodd;clip-rule:evenodd;fill:#C5C5C5;}
	.st96{fill:#020202;stroke:#000000;stroke-width:4.7334;stroke-linecap:round;stroke-linejoin:round;stroke-miterlimit:10;}
	.st97{clip-path:url(#SVGID_00000046316969236562574360000000093578101801184169_);}
	.st98{fill:#002684;stroke:#231F20;stroke-width:0.7889;stroke-linecap:round;stroke-linejoin:round;stroke-miterlimit:10;}
	.st99{clip-path:url(#SVGID_00000130634689716499695210000016064925776661608096_);}
	.st100{stroke:#000000;stroke-width:4.7334;stroke-linecap:round;stroke-linejoin:round;stroke-miterlimit:10;}
	.st101{fill:#FFFFFF;stroke:#000000;stroke-width:4.7334;stroke-linecap:round;stroke-linejoin:round;stroke-miterlimit:10;}
	.st102{fill:none;stroke:#000000;stroke-width:4.7334;stroke-linecap:round;stroke-linejoin:round;stroke-miterlimit:10;}
	.st103{fill:#F20029;stroke:#000000;stroke-width:4.7334;stroke-linecap:round;stroke-linejoin:round;stroke-miterlimit:10;}
	.st104{fill:#002684;stroke:#000000;stroke-width:4.7334;stroke-linecap:round;stroke-linejoin:round;stroke-miterlimit:10;}
	.st105{fill:url(#SVGID_00000085931176994241329920000010153978940536467600_);}
	.st106{fill:url(#SVGID_00000032607494666640528740000011176594835008941992_);}
	.st107{fill:url(#SVGID_00000033361998681573771600000009723102825763583118_);}
	.st108{fill:url(#SVGID_00000034801383831671467370000018011491656723064763_);}
	.st109{clip-path:url(#SVGID_00000013151952564128574720000000671138785433317032_);}
	.st110{clip-path:url(#SVGID_00000062887782165011339890000006809092692638645946_);}
	.st111{clip-path:url(#SVGID_00000034058377121916555390000006946861989450239401_);}
	.st112{clip-path:url(#SVGID_00000034057493912128875940000007166969272570987199_);}
	.st113{clip-path:url(#SVGID_00000131334952799705429180000017933135518663486886_);}
	.st114{fill:#020202;stroke:#000000;stroke-width:4.8772;stroke-linecap:round;stroke-linejoin:round;stroke-miterlimit:10;}
	.st115{fill:#FFFFFF;stroke:#000000;stroke-width:4.8772;stroke-linecap:round;stroke-linejoin:round;stroke-miterlimit:10;}
	.st116{fill:#F20029;stroke:#000000;stroke-width:4.8772;stroke-linecap:round;stroke-linejoin:round;stroke-miterlimit:10;}
	.st117{fill:#002684;stroke:#000000;stroke-width:4.8772;stroke-linecap:round;stroke-linejoin:round;stroke-miterlimit:10;}
	.st118{fill:none;stroke:#000000;stroke-width:4.8772;stroke-linecap:round;stroke-linejoin:round;stroke-miterlimit:10;}
	.st119{fill:url(#SVGID_00000067921898493049328580000012975489632912194732_);}
	.st120{fill:url(#SVGID_00000017494977225474038040000016525183996043191719_);}
	.st121{fill:url(#SVGID_00000132800336017392461920000007912948301469516431_);}
	.st122{fill:url(#SVGID_00000147193740838408616230000004510181950660431014_);}
	.st123{clip-path:url(#SVGID_00000114755441885502537770000001208376745033307558_);}
	.st124{clip-path:url(#SVGID_00000115487788810141971810000000326253068991098280_);}
	.st125{clip-path:url(#SVGID_00000155115265646155091810000010496965964197732225_);}
	.st126{fill-rule:evenodd;clip-rule:evenodd;fill:#FFFFFF;}
	.st127{fill:url(#SVGID_00000101104956315202440460000008153147216595704231_);}
	.st128{fill:url(#SVGID_00000163033258788403159450000017429179114014107536_);}
	.st129{fill:url(#SVGID_00000150794271960632339370000005078009040414508425_);}
	.st130{fill:url(#SVGID_00000041974487186514463720000010946636171462162851_);}
	.st131{fill:url(#SVGID_00000018205157317210614590000006604686294842501295_);}
	.st132{fill:url(#SVGID_00000115491728615055952040000004285980200364646558_);}
	.st133{fill:url(#SVGID_00000180350133634879267130000010099177183724198328_);}
	.st134{fill:url(#SVGID_00000050626067134995741520000009737611621642707840_);}
	.st135{fill:url(#SVGID_00000138567270990969850410000011041212396440731027_);}
	.st136{fill:url(#SVGID_00000126296043793601616400000000192333602898173105_);}
	.st137{fill:url(#SVGID_00000015312322733542150000000009393658819934201490_);}
	.st138{fill:url(#SVGID_00000107590474298040424630000000316910955489589653_);}
	.st139{fill:url(#SVGID_00000147190728439356972690000004610969796425450905_);}
	.st140{fill:url(#SVGID_00000078746732451672783510000011205195083400448673_);}
	.st141{fill:url(#SVGID_00000078731211759734233060000004997871105686876084_);}
	.st142{fill:url(#SVGID_00000170983583364737522730000012675512508922918546_);}
	.st143{fill:url(#SVGID_00000006665421841687571870000012128560536163562933_);}
	.st144{fill-rule:evenodd;clip-rule:evenodd;fill:#002684;}
	.st145{fill-rule:evenodd;clip-rule:evenodd;fill:#12506F;}
	.st146{fill-rule:evenodd;clip-rule:evenodd;fill:#24795B;}
	.st147{fill-rule:evenodd;clip-rule:evenodd;fill:#36A346;}
	.st148{fill-rule:evenodd;clip-rule:evenodd;fill:#6AD434;}
	.st149{fill-rule:evenodd;clip-rule:evenodd;fill:#8BDC37;}
	.st150{fill-rule:evenodd;clip-rule:evenodd;fill:#AEE53A;}
	.st151{fill-rule:evenodd;clip-rule:evenodd;fill:#D0ED3D;}
	.st152{fill-rule:evenodd;clip-rule:evenodd;fill:#F5D630;}
	.st153{fill-rule:evenodd;clip-rule:evenodd;fill:#F8B621;}
	.st154{fill-rule:evenodd;clip-rule:evenodd;fill:#FA9711;}
	.st155{fill-rule:evenodd;clip-rule:evenodd;fill:#F9500E;}
	.st156{fill-rule:evenodd;clip-rule:evenodd;fill:#F6281C;}
	.st157{clip-path:url(#SVGID_00000059285631652123478400000015828385959863364018_);}
	.st158{clip-path:url(#SVGID_00000142879301991107587090000010996449623191634334_);}
	.st159{clip-path:url(#SVGID_00000181804599221800548300000004726843897453669551_);}
	.st160{clip-path:url(#SVGID_00000088855512029148920180000001822735581719621789_);}
	.st161{clip-path:url(#SVGID_00000101793014639477612150000009281123225001000615_);}
	.st162{clip-path:url(#SVGID_00000100350133204785639180000003805534701899913385_);}
	.st163{clip-path:url(#SVGID_00000159462421636331381130000000808372127546936988_);}
	.st164{clip-path:url(#SVGID_00000028304371027851285230000010407730977805040568_);}
	.st165{clip-path:url(#SVGID_00000100377913858161574090000018341144096487287961_);}
	.st166{clip-path:url(#SVGID_00000178184224514501422800000009367993337297414547_);}
	.st167{clip-path:url(#SVGID_00000041287524367604877770000010587619472602621856_);}
	.st168{clip-path:url(#SVGID_00000124147049497470561290000014536465063058072985_);}
	.st169{clip-path:url(#SVGID_00000038409638732291865500000016316602605002786222_);}
	.st170{clip-path:url(#SVGID_00000005972698992586863000000002805219590119221928_);}
	.st171{clip-path:url(#SVGID_00000078756232245440547750000006004103934965628583_);}
	.st172{clip-path:url(#SVGID_00000036960274310552614720000013678236262563008186_);}
	.st173{clip-path:url(#SVGID_00000165954030962048901020000015637491733269982364_);}
	.st174{clip-path:url(#SVGID_00000183214258830919380770000016699782041381524126_);}
	.st175{clip-path:url(#SVGID_00000057840174566489281740000013069600477637543864_);}
	.st176{clip-path:url(#SVGID_00000082332165898769358640000011197897080345169846_);}
	.st177{clip-path:url(#SVGID_00000031888750330801149790000005805953339733655461_);}
	.st178{clip-path:url(#SVGID_00000056418874769491785420000014863085214198245276_);}
	.st179{clip-path:url(#SVGID_00000021087036390224083760000007651046027876238231_);}
	.st180{clip-path:url(#SVGID_00000181768899067496074020000004673205093785090750_);}
	.st181{clip-path:url(#SVGID_00000098900950097758938210000012855188334726887822_);}
	.st182{clip-path:url(#SVGID_00000078749976293357639610000001285484489821704124_);}
	.st183{clip-path:url(#SVGID_00000122680951655787200980000008207476749834963602_);}
</style>
<g>
	<g>
		<g>
			<path class="st126" d="M209.5,419.1c-55.8,0-108.4-21.9-148.1-61.6C21.9,317.9,0,265.3,0,209.5S21.9,101.2,61.6,61.5
				C101.3,21.9,153.8,0,209.5,0h3419.8c55.8,0,108.4,21.9,148.1,61.6s61.6,92.3,61.6,148.1s-21.9,108.4-61.6,148.1
				c-39.7,39.7-92.3,61.6-148.1,61.6H209.5V419.1z"/>
			<path id="path5_00000145752724395888266120000011460131703314310277_" class="st0" d="M3629.4,19.8
				c104.4,0,189.7,85.4,189.7,189.7l0,0c0,104.4-85.4,189.7-189.7,189.7H209.5c-104.4,0-189.7-85.4-189.7-189.7l0,0
				c0-104.4,85.4-189.7,189.7-189.7L3629.4,19.8L3629.4,19.8z"/>
			<g>
				<polygon id="polygon7_00000143577036560169781460000011870425622386704018_" class="st52" points="2112,74.7 2112,74.7 
					2604.9,74.7 2604.9,102.5 2112,102.5 				"/>
				<polygon class="st53" points="2112,135.2 2112,135.2 2604.9,135.2 2604.9,163 2112,163 				"/>
				<polygon class="st54" points="2112,195.6 2112,195.6 2604.9,195.6 2604.9,223.4 2112,223.4 				"/>
				<polygon class="st55" points="2112,256.1 2112,256.1 2604.9,256.1 2604.9,283.9 2112,283.9 				"/>
				<polygon id="polygon15_00000172422697079502684620000017837627332584613555_" class="st56" points="2112,316.7 2112,316.7 
					2604.9,316.7 2604.9,344.4 2112,344.4 				"/>
			</g>
		</g>
		<g>
			<path class="st1" d="M520.5,212.7c-1.8-16.2-19.8-15.8-32.4-15.8c-6.9,0-21.3,0.2-26.9,4.9c-5.3,4.4-5.3,16-5.3,22.2
				c0,6,0.2,14,4.9,18.4c5.6,5.3,20.9,5.8,28,5.8c4.9,0,9.6,0,14.4-0.7c9.8-1.3,15.6-4.2,17.1-14.7h40c-0.4,11.8-1.1,23.1-9.8,32
				c-9.1,9.6-23.1,11.6-35.8,12.2c-9.6,0.4-18.9,0.7-28.4,0.7c-17.1,0-41.6,0.4-56.2-9.8c-14.2-10-13.6-30.9-13.6-46.2
				c0-15.1-0.2-33.1,12.4-43.8c13.8-11.6,42.5-10.7,59.3-10.7c16.9,0,46.2-0.7,60.2,10.7c3.8,3.1,6.2,6.2,8.2,10.9
				c3.3,7.8,3.6,15.3,3.8,23.8L520.5,212.7L520.5,212.7z"/>
			<path class="st1" d="M726.6,241.1c-0.9,10.2-3.6,19.3-11.6,26.2c-13.6,11.8-45.6,10.4-62.2,10.4c-17.3,0-48,1.6-62.2-10.4
				c-4-3.3-6.4-6.9-8.4-11.6c-4.4-10.9-3.8-24.7-3.8-36.2c0-5.8,0-11.8,0.7-17.6c0.9-10,4.7-18.9,12.9-25.1
				c13.3-10.2,45.1-9.6,60.9-9.6c16,0,47.3-0.7,60.9,9.6c3.8,2.9,6.2,5.8,8.4,10c5.8,10.2,5.1,23.3,5.1,34.7
				C727.3,228,727.1,234.7,726.6,241.1z M683.1,202.7c-5.8-5.6-22.7-5.8-30-5.8c-7.1,0-14.4,0.2-21.3,1.6c-13.8,2.7-14,13.3-14,25.3
				c0,5.8-0.2,13.6,4,18c6,6.4,23.3,6.4,31.3,6.4c7.6,0,15.6,0,22.9-2c12.2-3.3,12-14.4,12-25.3C688,214.9,687.7,207.1,683.1,202.7z
				"/>
			<path class="st1" d="M938.8,275.2v-49.1c0-22.7-2.4-29.1-26.7-29.1c-27.1,0-29.1,10.7-29.1,34.9v43.3h-39.3v-49.1v-7.3
				c0-19.1-8.2-21.8-26-21.8c-28,0-29.8,10-29.8,34.9v43.3h-39.3V170.1h37.1v15.8h1.8c7.3-16.2,26.9-18.4,42.7-18.4
				c20,0,37.6,3.3,47.8,22c8-19.6,26.7-22,45.6-22c15.3,0,32.4,1.8,43.6,13.6c3.8,4,6.7,8.2,8.2,13.6c3.1,10.2,2.9,21.1,2.9,31.6
				v49.1h-39.5V275.2z"/>
			<path class="st1" d="M1191.1,275.2v-49.1c0-22.7-2.4-29.1-26.7-29.1c-27.1,0-29.1,10.7-29.1,34.9v43.3H1096v-49.1v-7.3
				c0-19.1-8.2-21.8-26-21.8c-28,0-29.8,10-29.8,34.9v43.3h-39.3V170.1h37.1v15.8h1.8c7.3-16.2,26.9-18.4,42.7-18.4
				c20,0,37.6,3.3,47.8,22c8-19.6,26.7-22,45.6-22c15.3,0,32.4,1.8,43.6,13.6c3.8,4,6.7,8.2,8.2,13.6c3.1,10.2,2.9,21.1,2.9,31.6
				v49.1h-39.5V275.2z"/>
			<path class="st1" d="M1399.1,241.1c-0.9,10.2-3.6,19.3-11.6,26.2c-13.6,11.8-45.6,10.4-62.2,10.4c-17.3,0-48,1.6-62.2-10.4
				c-4-3.3-6.4-6.9-8.4-11.6c-4.4-10.9-3.8-24.7-3.8-36.2c0-5.8,0-11.8,0.7-17.6c0.9-10,4.7-18.9,12.9-25.1
				c13.3-10.2,45.1-9.6,60.9-9.6c16,0,47.3-0.7,60.9,9.6c3.8,2.9,6.2,5.8,8.4,10c5.8,10.2,5.1,23.3,5.1,34.7
				C1399.7,228,1399.5,234.7,1399.1,241.1z M1355.5,202.7c-5.8-5.6-22.7-5.8-30-5.8c-7.1,0-14.4,0.2-21.3,1.6
				c-13.8,2.7-14,13.3-14,25.3c0,5.8-0.2,13.6,4,18c6,6.4,23.3,6.4,31.3,6.4c7.6,0,15.6,0,22.9-2c12.2-3.3,12-14.4,12-25.3
				C1360.4,214.9,1360.2,207.1,1355.5,202.7z"/>
			<path class="st1" d="M1529.8,275.2v-13.8h-2c-2.7,4.4-4.7,7.3-9.1,10c-9.8,6-26.2,6.4-37.3,6.4c-16.2,0-38.2,0.2-51.1-11.1
				c-11.6-10.2-11.3-30.4-11.3-44.7c0-16.4,0.4-36.4,15.6-46.7c13.3-8.9,32-8,47.3-8c11.6,0,24.2-0.2,34.4,5.8
				c5.1,2.9,6.9,5.8,9.8,10.9h1.6V127h39.3v148.2L1529.8,275.2L1529.8,275.2z M1525.8,206.7c-4.7-10.7-21.6-9.8-31.1-9.8
				c-9.8,0-29.6-1.1-34.4,10c-1.8,4.4-2,10.2-2,14.9c0,6.2-0.2,15.8,4.4,20.7c5.3,5.8,22.4,5.8,29.6,5.8c8,0,17.8-0.4,25.3-2.9
				c10.7-3.3,10.4-13.6,10.4-23.1C1528,217.4,1527.8,211.4,1525.8,206.7z"/>
			<path class="st1" d="M1736.4,241.1c-0.9,10.2-3.6,19.3-11.6,26.2c-13.6,11.8-45.6,10.4-62.2,10.4c-17.3,0-48,1.6-62.2-10.4
				c-4-3.3-6.4-6.9-8.4-11.6c-4.4-10.9-3.8-24.7-3.8-36.2c0-5.8,0-11.8,0.7-17.6c0.9-10,4.7-18.9,12.9-25.1
				c13.3-10.2,45.1-9.6,60.9-9.6c16,0,47.3-0.7,60.9,9.6c3.8,2.9,6.2,5.8,8.4,10c5.8,10.2,5.1,23.3,5.1,34.7
				C1737.1,228,1736.8,234.7,1736.4,241.1z M1692.8,202.7c-5.8-5.6-22.7-5.8-30-5.8c-7.1,0-14.4,0.2-21.3,1.6
				c-13.8,2.7-14,13.3-14,25.3c0,5.8-0.2,13.6,4,18c6,6.4,23.3,6.4,31.3,6.4c7.6,0,15.6,0,22.9-2c12.2-3.3,12-14.4,12-25.3
				C1697.7,214.9,1697.5,207.1,1692.8,202.7z"/>
			<path class="st1" d="M1880.2,216.7h-36.9c0-15.6-5.1-19.8-20.7-19.8c-24.2,0-24.9,15.3-24.9,34.7v43.6h-39.3V170.1h37.1v15.8h1.8
				c9.1-16.2,23.8-18.4,40.9-18.4c12.2,0,26.9,1.6,35.1,11.8c7.3,9.1,7.1,22.2,7.1,33.3C1880.4,213.8,1880.2,215.4,1880.2,216.7z"/>
			<path class="st1" d="M2037,231.1h-102.6c0,6-0.2,12.9,4.9,17.1c5.3,4.2,20.2,4.4,26.7,4.4c6.5,0,24.4,0.2,28.7-4.4
				c1.8-1.8,2.2-4.2,2.7-6.7h39.1c-0.9,10-2.9,17.8-10.4,24.7c-13.6,12.2-46,11.6-63.1,11.6c-15.6,0-41.6,0.2-54.5-9.8
				c-4-3.1-6.7-6.7-8.9-11.1c-4.9-10.2-4.4-22.9-4.4-33.8c0-6.7,0-13.3,0.7-19.8c1.1-10.7,4.7-20.2,13.6-26.7
				c13.8-10,41.3-9.3,57.6-9.3c14.9,0,31.1-0.4,45.6,3.8c23.3,6.9,24.9,28.2,24.9,49.3C2037.3,224,2037.3,227.6,2037,231.1z
				 M1997.7,207.1c0-4-0.2-7.1-3.1-10.2c-4.7-5.1-20.7-5.1-27.1-5.1c-6,0-12,0-17.8,0.9c-11.1,1.6-15.1,5.8-15.3,16.9h63.3V207.1z"
				/>
		</g>
		<g>
			<path class="st1" d="M147.8,221.8c0-34.1,27.7-61.8,61.8-61.8c10.9,0,21.2,2.9,30.1,7.9v-58.7c-9.6-2.6-19.7-4-30.1-4
				C145.2,105.3,93,157.5,93,221.8s52.2,116.6,116.6,116.6c10.4,0,20.5-1.4,30.1-4v-58.7c-8.9,5-19.2,7.9-30.1,7.9
				C175.4,283.6,147.8,255.9,147.8,221.8z"/>
			<polygon class="st1" points="239.7,217.5 294.6,217.5 341.3,171 239.7,171 			"/>
			<polygon class="st1" points="239.7,226 239.7,272.7 341.3,272.7 294.6,226 			"/>
		</g>
		<g>
			<path class="st1" d="M2837.1,317.8H2765l-76.5-192.7h51.7l56.3,144.2h9l55.7-144.2h51.5L2837.1,317.8z"/>
			<path class="st1" d="M2933.6,317.8V125.1h49.4v192.7H2933.6z"/>
			<path class="st1" d="M3113.9,320.6c-20.4,0-41.5,0.3-61.4-4.9c-16-4.3-26.2-14.5-29.4-35c-3-18.8-2.3-39-2.3-58.1
				c0-11.6,0-23.1,0.5-34.4c0.5-17.6,0.7-36.7,11.6-49.4c3.7-4.3,8.1-7.2,13-9.2c20.4-8.4,64.2-7.5,85.8-7.5
				c17.6,0,35.7-0.6,53.1,3.5c7,1.7,13.2,4.6,18.8,10.1c12.3,11.8,12.3,34.7,12.3,52c0,2-0.2,4.3-0.2,6.4h-47.1
				c-0.2-5.2-0.2-14.7-3.5-18.2c-2.1-2.3-5.8-3.2-8.6-3.5c-12.5-2-25.7-2-38.3-2c-6.7,0-13.2,0-19.9,0.3c-7,0.3-16.9,0.3-22.7,5.8
				c-8.1,7.8-7.4,34.7-7.4,46c0,10.4-0.9,36.7,7,43.9c3,2.6,6.3,4,10,4.6c10,1.7,20.9,1.4,31.1,1.4h23.9c8.6,0,25.3,1.7,29.2-10.7
				c1.6-5.2,1.9-12.7,1.9-18.2h47.1c0.2,4.6,0.5,9.5,0.5,14.2c0,16.5-0.2,36.1-10.9,48c-14.4,16.2-55.4,15-73.7,15L3113.9,320.6
				L3113.9,320.6z"/>
			<path class="st1" d="M3277.1,317.8c0-7.5-0.5-15.3-0.5-22.8c0-15.6-0.2-31.2,1.9-46.5c4.2-32.1,26.4-36.1,48.7-38.4l58.4-5.8
				c7.4-0.9,15.5-0.9,22.7-4c6.7-2.9,6.7-7.8,6.7-15.9c0-5.5,0-11.6-3.9-15c-5.8-5.5-30.8-4-37.6-4c-14.1,0-29.4-0.9-43.6,2
				c-10.7,2-9.5,11.6-9.5,23.1v6.4h-45.7v-8c0-15.9,0.2-37.9,9.7-50.3c10.7-13.9,34.3-14.5,48.5-15.3c10-0.6,19.9-0.6,29.9-0.6h4.4
				l38.3,0.3c14.8,0,33.9,0.3,45,14.4c8.6,11,8.6,32.9,8.6,47.1c0,14.4-0.2,29.8-6.7,42.5c-8.6,17.1-32.9,19.4-47.3,20.5
				c-11.1,0.9-22,1.7-33.2,2.6c-8.8,0.6-17.6,1.4-26.4,2.3c-3.9,0.3-13.9,1.2-17.6,2.9c-7.4,3.5-7.4,9.8-7.4,18.2h141.2v44.2
				L3277.1,317.8L3277.1,317.8z"/>
			<path class="st1" d="M3652.6,316.6c-18.6,3.8-43.6,3.5-62.4,3.5c-11.6,0-23-0.3-34.5-0.6c-25.5-0.6-55.2-1.7-60.8-40.2
				c-2.6-17.9-1.9-39.6-1.9-57.8c0-11.6,0-22.8,0.2-34.4c0.2-16.2,1.2-34.7,10.7-47.1c6.3-8.1,15.1-12.1,23.9-13.9
				c18.6-3.8,43.4-3.5,62.4-3.5c11.4,0,23,0.6,34.3,0.9c39.7,1.2,62.6,6.4,62.6,63.6v68.8C3687,288,3680.5,310.8,3652.6,316.6z
				 M3630.1,176.4c-5.3-2.9-13.2-3.2-19-3.2c-9.3,0-18.6-0.3-28.1-0.3c-9.5,0-19.9-0.3-29.2,2.3c-2.8,0.9-5.6,2-7.7,4.9
				c-6.3,8.1-5.8,30.9-5.8,41.3c0,9.5-0.5,32.1,4.9,39.9c2.3,3.5,5.1,4.9,8.6,6.1c10,2.9,26.4,2.9,36.9,2.6l20.4-0.6
				c5.8-0.3,13.7-0.3,19-3.5c11.6-6.4,10-31.8,10-44.5C3640.1,208.8,3641.7,183.1,3630.1,176.4z"/>
		</g>
		<g>
			<g>
				
					<linearGradient id="SVGID_00000146500114723268204060000012641744273223345850_" gradientUnits="userSpaceOnUse" x1="5547.6523" y1="22046.5566" x2="5547.6523" y2="22150.9258" gradientTransform="matrix(1 0 0 -1 -5059.3501 22309.1816)">
					<stop  offset="0" style="stop-color:#B4BFC9"/>
					<stop  offset="1" style="stop-color:#F5F6FF"/>
				</linearGradient>
				<path style="fill:url(#SVGID_00000146500114723268204060000012641744273223345850_);" d="M482,262.5c-13.8,0-37,0-50.3-9.2
					c-12.3-8.7-12.3-27-12.2-41.7v-2.7c0-14.6,0-31.1,11.4-40.7c11.9-10,37.7-10,50-10c1.3,0,6.2,0,7.3,0h5.7c13.1,0,40.3,0,52.6,10
					c3.5,2.9,5.6,5.6,7.3,9.7c2.7,6.4,3.2,12.6,3.4,19.5h-34.3c-3.6-15.8-21.9-15.8-33-15.8h-2c-9.5,0-22.9,0.6-28.9,5.6
					c-6.4,5.4-6.4,17.9-6.4,24.6c0,7.3,0.5,15.5,5.8,20.7c4.6,4.4,14.7,6.6,30.1,6.6c5,0,9.8,0,14.9-0.7c9.7-1.3,16.8-4.4,19.2-14.6
					h34.3c-0.5,11.1-1.9,19.8-8.8,26.8c-8.4,8.8-21.8,10.7-33.8,11.3c-9.6,0.4-18.9,0.7-28.3,0.7L482,262.5z"/>
				<path class="st19" d="M480.9,161.3c1.3,0,2.6,0,3.9,0c1.2,0,2.3,0,3.4,0c0.9,0,1.8,0,2.7,0c1,0,2,0,3,0c12.7,0,39.1,0,50.7,9.3
					c3.2,2.6,4.9,4.9,6.5,8.6c2.1,4.9,2.8,9.9,3.1,15.2h-28.8c-2.2-6.3-7-10.9-14-13.3c-6.6-2.3-14.1-2.5-21.3-2.5h-1h-1
					c-10.9,0-24.2,0.7-30.8,6.3c-7.5,6.3-7.5,19.2-7.5,26.9c0,5.7,0,16.4,6.8,22.9c5.2,5,15.8,7.5,32.2,7.5c4.9,0,10,0,15.3-0.7
					c8.5-1.2,17.5-3.9,21.1-14.6h28.7c-0.6,9.1-2.2,15.9-7.7,21.6l0,0l0,0c-7.7,8-20.3,9.7-31.6,10.3c-9.6,0.4-18.8,0.7-28.2,0.7
					h-2.1h-2.2c-13.5,0-36,0-48.5-8.7c-11-7.7-11-25.2-11-39.2v-2v-0.8c0-13.9,0-29.7,10.3-38.3
					C443.9,161.3,468.9,161.3,480.9,161.3 M480.9,155.2c-17,0-40.1,0.7-52,10.7c-12.7,10.7-12.4,28.7-12.4,43.8
					c0,15.3-0.7,36.2,13.6,46.2c13.5,9.4,35.3,9.8,52,9.8c1.4,0,2.9,0,4.2,0c9.6,0,18.9-0.2,28.4-0.7c12.7-0.7,26.7-2.7,35.8-12.2
					c8.7-8.9,9.3-20.2,9.8-32h-40c-1.6,10.4-7.3,13.3-17.1,14.7c-4.9,0.7-9.6,0.7-14.4,0.7c-7.1,0-22.4-0.4-28-5.8
					c-4.7-4.4-4.9-12.4-4.9-18.4c0-6.2,0-17.8,5.3-22.2c5.6-4.7,20-4.9,26.9-4.9c0.7,0,1.3,0,2,0c12.5,0,28.7,0.4,30.4,15.8h40
					c-0.2-8.4-0.4-16-3.8-23.8c-2-4.7-4.4-7.8-8.2-10.9c-12.5-10.1-37.4-10.7-54.5-10.7c-2,0-3.9,0-5.7,0
					C486,155.2,483.5,155.2,480.9,155.2L480.9,155.2z"/>
			</g>
			<g>
				
					<linearGradient id="SVGID_00000091001734618769617930000014083729221589934980_" gradientUnits="userSpaceOnUse" x1="5712.2471" y1="22046.5918" x2="5712.2471" y2="22150.9609" gradientTransform="matrix(1 0 0 -1 -5059.3501 22309.1816)">
					<stop  offset="0" style="stop-color:#B4BFC9"/>
					<stop  offset="1" style="stop-color:#F5F6FF"/>
				</linearGradient>
				<path style="fill:url(#SVGID_00000091001734618769617930000014083729221589934980_);" d="M640.7,262.6c-17,0-37.8-1.1-48.1-9.8
					c-3.4-2.9-5.7-6-7.6-10.4c-3.7-9-3.6-20.7-3.5-31c0-1.4,0-2.7,0-4c0-5.7,0-11.6,0.6-17.2c0.9-10.1,4.8-17.8,11.7-23
					c11.7-8.9,40.6-8.9,53-8.9h6h6.1c12.3,0,41.1,0,53,9c3.4,2.6,5.6,5.1,7.6,9c4.9,8.6,4.8,20,4.8,30c0,1.1,0,2.2,0,3.2
					c0,6.5-0.2,13-0.7,19.3c-1,11.4-4.1,18.6-10.5,24.1c-9.9,8.6-31.8,9.8-49.6,9.8c-2.1,0-4,0-5.9,0c-1.7,0-3.2,0-4.7,0
					c-1.7,0-3.5,0-5.4,0C645.3,262.5,643,262.6,640.7,262.6z M653.1,181.6c-6.7,0-14.6,0.2-21.9,1.6c-16.5,3.2-16.5,16.6-16.5,28.3
					v0.8c0,6,0,14.2,4.8,19.3c6.9,7.4,24.9,7.4,33.6,7.4c7.9,0,16,0,23.7-2.1c14.3-3.9,14.3-17.1,14.3-27.7v-0.6
					c0-7.2-0.5-15.3-5.8-20.4C679,182.3,663.9,181.6,653.1,181.6z"/>
				<path class="st19" d="M658.9,161.3c12,0,40.1,0,51.1,8.3c3.1,2.3,5,4.6,6.7,8v0.1v0.1c4.4,7.9,4.4,18.3,4.3,28.4
					c0,1.1,0,2.2,0,3.2c0,6.4-0.2,12.8-0.6,19.1c-0.9,10.6-3.8,17.2-9.5,22.1c-10.3,9-36.5,9-47.6,9c-2.1,0-4,0-5.9,0
					c-1.7,0-3.2,0-4.7,0c-1.7,0-3.5,0-5.5,0c-2.1,0-4.4,0-6.7,0c-16.5,0-36.6-1-46.2-9.1c-3-2.5-5-5.2-6.7-9.2
					c-3.5-8.5-3.4-19.8-3.3-29.8c0-1.4,0-2.7,0-4.1c0-5.6,0-11.4,0.6-16.9v-0.1v-0.1c0.8-9.3,4.3-16.1,10.5-20.8
					c10.8-8.3,39.1-8.3,51.1-8.3c1.1,0,2.2,0,3.3,0c1,0,1.9,0,2.7,0c0.9,0,1.8,0,2.8,0C656.7,161.3,657.8,161.3,658.9,161.3
					L658.9,161.3 M617.3,233.8c6.9,7.4,21.3,8.4,35.8,8.4c7.7,0,16.4,0,24.5-2.2c16.5-4.5,16.5-19.6,16.5-30.7v-0.6
					c0-5.7,0-16.2-6.8-22.6c-5.4-5.2-15.9-7.5-34.2-7.5c-6.9,0-14.9,0.2-22.5,1.7c-19,3.7-19,19.7-19,31.4v0.8
					C611.6,218.9,611.6,227.7,617.3,233.8 M658.9,155.2c-2.2,0-4.2,0-6.1,0c-1.8,0-3.8,0-6,0c-16.8,0-43.1,0.5-54.9,9.6
					c-8.2,6.2-12,15.1-12.9,25.1c-0.7,5.8-0.7,11.8-0.7,17.6c0,11.6-0.7,25.3,3.8,36.2c2,4.7,4.4,8.2,8.4,11.6
					c11.3,9.5,33,10.5,50.1,10.5c4.4,0,8.6-0.1,12.1-0.1c3.1,0,6.7,0,10.6,0c17.3,0,40.6-0.9,51.6-10.5c8-6.9,10.7-16,11.6-26.2
					c0.4-6.4,0.7-13.1,0.7-19.6c0-11.3,0.7-24.4-5.1-34.7c-2.2-4.2-4.7-7.1-8.4-10C701.7,155.7,675.8,155.2,658.9,155.2L658.9,155.2
					z M653.1,236c-8,0-25.3,0-31.3-6.4c-4.2-4.4-4-12.2-4-18c0-12,0.2-22.7,14-25.3c6.9-1.3,14.2-1.6,21.3-1.6
					c7.3,0,24.2,0.2,30,5.8c4.7,4.4,4.9,12.2,4.9,18.2c0,10.9,0.2,22-12,25.3C668.6,236,660.6,236,653.1,236L653.1,236z"/>
			</g>
			<g>
				
					<linearGradient id="SVGID_00000012439427779821214520000003035072006670867336_" gradientUnits="userSpaceOnUse" x1="5922.7026" y1="22049.2559" x2="5922.7026" y2="22150.8262" gradientTransform="matrix(1 0 0 -1 -5059.3501 22309.1816)">
					<stop  offset="0" style="stop-color:#B4BFC9"/>
					<stop  offset="1" style="stop-color:#F5F6FF"/>
				</linearGradient>
				<path style="fill:url(#SVGID_00000012439427779821214520000003035072006670867336_);" d="M941.9,259.8v-46.1
					c0-22.9-2.7-32.2-29.7-32.2c-30.6,0-32.2,14.4-32.2,38v40.3h-33.3v-53.4c0-23-12.6-24.8-29.1-24.8c-31.3,0-32.8,13.7-32.8,38
					v40.3h-33.2v-99h31v15.8h6.8l0.8-1.8c6.7-14.8,24.8-16.6,39.9-16.6c20.4,0,35.8,3.5,45.1,20.4l3.1,5.6l2.4-5.9
					c6.8-16.7,22-20.1,42.7-20.1c14.6,0,30.9,1.5,41.3,12.6c3.9,4.2,6.2,7.9,7.5,12.3c2.8,9.2,2.8,19.1,2.8,28.7v48L941.9,259.8
					L941.9,259.8z"/>
				<path class="st19" d="M923.5,161.3c13.9,0,29.4,1.4,39.1,11.6c3.6,3.8,5.7,7.2,6.8,11.1l0,0l0,0c2.7,8.7,2.6,18.4,2.6,27.8v2v43
					h-27.1v-43c0-24-3.2-35.2-32.8-35.2c-32.8,0-35.2,16.2-35.2,41v37.2h-27.1v-43v-7.3c0-25.8-15.2-27.9-32.1-27.9
					c-33.5,0-35.9,15.5-35.9,41v37.2h-27.1V164h24.9v9.7v6.1h6.1h1.8h4l1.6-3.6c4.6-10.3,16.1-14.8,37.1-14.8
					c19.3,0,33.9,3.2,42.4,18.8l6.2,11.3l4.9-11.9C889.8,164.4,903.4,161.3,923.5,161.3 M923.5,155.2c-18.9,0-37.6,2.4-45.6,22
					c-10.2-18.7-27.8-22-47.8-22c-15.8,0-35.3,2.2-42.7,18.4h-1.7v-15.8h-37.1v105.2H788v-43.3c0-24.9,1.8-34.9,29.8-34.9
					c17.8,0,26,2.7,26,21.8v7.3v49.1H883v-43.3c0-24.2,2-34.9,29.1-34.9c24.2,0,26.7,6.4,26.7,29.1v49.1h39.3v-49.1
					c0-10.4,0.2-21.3-2.9-31.6c-1.6-5.3-4.4-9.6-8.2-13.6C955.9,157,938.8,155.2,923.5,155.2L923.5,155.2z"/>
			</g>
			<g>
				
					<linearGradient id="SVGID_00000046322489052217947730000006380651395109066665_" gradientUnits="userSpaceOnUse" x1="6175.0303" y1="22049.2559" x2="6175.0303" y2="22150.8262" gradientTransform="matrix(1 0 0 -1 -5059.3501 22309.1816)">
					<stop  offset="0" style="stop-color:#B4BFC9"/>
					<stop  offset="1" style="stop-color:#F5F6FF"/>
				</linearGradient>
				<path style="fill:url(#SVGID_00000046322489052217947730000006380651395109066665_);" d="M1194.2,259.8v-46.1
					c0-22.9-2.7-32.2-29.7-32.2c-30.6,0-32.2,14.4-32.2,38v40.3h-33.2v-53.4c0-23-12.6-24.8-29.1-24.8c-31.3,0-32.8,13.7-32.8,38
					v40.3H1004v-99h31v15.8h6.8l0.8-1.8c6.7-14.8,24.8-16.6,39.9-16.6c20.4,0,35.8,3.5,45.1,20.4l3.1,5.6l2.4-5.9
					c6.8-16.7,22-20.1,42.7-20.1c14.6,0,30.9,1.5,41.3,12.6c3.9,4.2,6.2,7.9,7.5,12.3c2.8,9.2,2.8,19.1,2.8,28.7v48L1194.2,259.8
					L1194.2,259.8z"/>
				<path class="st19" d="M1175.8,161.3c13.9,0,29.4,1.4,39.1,11.6c3.6,3.8,5.7,7.2,6.8,11.1l0,0l0,0c2.7,8.7,2.6,18.4,2.6,27.8v2
					v43h-27.1v-43c0-24-3.2-35.2-32.8-35.2c-32.8,0-35.2,16.2-35.2,41v37.2h-27.1v-43v-7.3c0-25.8-15.2-27.9-32.1-27.9
					c-33.5,0-35.9,15.5-35.9,41v37.2H1007V164h24.9v9.7v6.1h6.1h1.8h4l1.6-3.6c4.6-10.3,16.1-14.8,37.1-14.8
					c19.3,0,33.9,3.2,42.4,18.8l6.2,11.3l4.9-11.9C1142.1,164.4,1155.7,161.3,1175.8,161.3 M1175.8,155.2c-18.9,0-37.6,2.4-45.6,22
					c-10.2-18.7-27.8-22-47.8-22c-15.8,0-35.3,2.2-42.7,18.4h-1.8v-15.8h-37.1v105.2h39.3v-43.3c0-24.9,1.8-34.9,29.8-34.9
					c17.8,0,26,2.7,26,21.8v7.3v49.1h39.3v-43.3c0-24.2,2-34.9,29.1-34.9c24.2,0,26.7,6.4,26.7,29.1v49.1h39.3v-49.1
					c0-10.4,0.2-21.3-2.9-31.6c-1.6-5.3-4.4-9.6-8.2-13.6C1208.2,157,1191.1,155.2,1175.8,155.2L1175.8,155.2z"/>
			</g>
			<g>
				
					<linearGradient id="SVGID_00000047770325462112526180000013042858523044076704_" gradientUnits="userSpaceOnUse" x1="6384.6543" y1="22046.5918" x2="6384.6543" y2="22150.9609" gradientTransform="matrix(1 0 0 -1 -5059.3501 22309.1816)">
					<stop  offset="0" style="stop-color:#B4BFC9"/>
					<stop  offset="1" style="stop-color:#F5F6FF"/>
				</linearGradient>
				<path style="fill:url(#SVGID_00000047770325462112526180000013042858523044076704_);" d="M1313.1,262.6c-17,0-37.8-1.1-48.1-9.8
					c-3.4-2.9-5.7-6-7.6-10.4c-3.7-9-3.6-20.7-3.5-31c0-1.4,0-2.7,0-4c0-5.7,0-11.6,0.6-17.2c0.9-10.1,4.8-17.8,11.7-23
					c11.7-8.9,40.6-8.9,53-8.9h6h6.1c12.3,0,41.1,0,53,9c3.4,2.6,5.6,5.1,7.6,9c4.9,8.6,4.8,20,4.8,30c0,1.1,0,2.2,0,3.2
					c0,6.5-0.2,13-0.7,19.3c-1,11.4-4.1,18.6-10.5,24.1c-9.9,8.6-31.8,9.8-49.6,9.8c-2.1,0-4,0-5.9,0c-1.7,0-3.2,0-4.7,0
					c-1.7,0-3.5,0-5.4,0C1317.7,262.5,1315.5,262.6,1313.1,262.6z M1325.5,181.6c-6.7,0-14.6,0.2-21.9,1.6
					c-16.5,3.2-16.5,16.6-16.5,28.3v0.8c0,6,0,14.2,4.8,19.3c6.9,7.4,24.9,7.4,33.6,7.4c7.9,0,16,0,23.7-2.1
					c14.3-3.9,14.3-17.1,14.3-27.7v-0.6c0-7.2-0.5-15.3-5.8-20.4C1351.4,182.3,1336.3,181.6,1325.5,181.6z"/>
				<path class="st19" d="M1331.4,161.3c12,0,40.1,0,51.1,8.3c3.1,2.3,5,4.6,6.7,8v0.1v0.1c4.4,7.9,4.4,18.3,4.3,28.4
					c0,1.1,0,2.2,0,3.2c0,6.4-0.2,12.8-0.6,19.1c-0.9,10.6-3.8,17.2-9.5,22.1c-10.3,9-36.5,9-47.6,9c-2.1,0-4,0-5.9,0
					c-1.7,0-3.2,0-4.7,0c-1.7,0-3.5,0-5.5,0c-2.1,0-4.4,0-6.7,0c-16.5,0-36.6-1-46.2-9.1c-3-2.5-5-5.2-6.7-9.2
					c-3.5-8.5-3.4-19.8-3.3-29.8c0-1.4,0-2.7,0-4.1c0-5.6,0-11.4,0.6-16.9v-0.1v-0.1c0.8-9.3,4.3-16.1,10.5-20.8
					c10.8-8.3,39.1-8.3,51.1-8.3c1.1,0,2.2,0,3.3,0c1,0,1.9,0,2.7,0c0.9,0,1.8,0,2.8,0C1329.1,161.3,1330.2,161.3,1331.4,161.3
					L1331.4,161.3 M1289.7,233.8c6.9,7.4,21.3,8.4,35.8,8.4c7.7,0,16.4,0,24.5-2.2c16.5-4.5,16.5-19.6,16.5-30.7v-0.6
					c0-5.7,0-16.2-6.8-22.6c-5.4-5.2-15.9-7.5-34.2-7.5c-6.9,0-14.9,0.2-22.5,1.7c-19,3.7-19,19.7-19,31.4v0.8
					C1284,218.9,1284,227.7,1289.7,233.8 M1331.4,155.2c-2.2,0-4.2,0-6.1,0c-1.8,0-3.8,0-6,0c-16.8,0-43.1,0.5-54.9,9.6
					c-8.2,6.2-12,15.1-12.9,25.1c-0.7,5.8-0.7,11.8-0.7,17.6c0,11.6-0.7,25.3,3.8,36.2c2,4.7,4.4,8.2,8.4,11.6
					c11.3,9.5,33,10.5,50.1,10.5c4.4,0,8.6-0.1,12.1-0.1c3.1,0,6.7,0,10.6,0c17.3,0,40.6-0.9,51.6-10.5c8-6.9,10.7-16,11.6-26.2
					c0.4-6.4,0.7-13.1,0.7-19.6c0-11.3,0.7-24.4-5.1-34.7c-2.2-4.2-4.7-7.1-8.4-10C1374.2,155.7,1348.3,155.2,1331.4,155.2
					L1331.4,155.2z M1325.5,236c-8,0-25.3,0-31.3-6.4c-4.2-4.4-4-12.2-4-18c0-12,0.2-22.7,14-25.3c6.9-1.3,14.2-1.6,21.3-1.6
					c7.3,0,24.2,0.2,30,5.8c4.7,4.4,4.9,12.2,4.9,18.2c0,10.9,0.2,22-12,25.3C1341.1,236,1333.1,236,1325.5,236L1325.5,236z"/>
			</g>
			<g>
				
					<linearGradient id="SVGID_00000138567441038759918320000006996390563257041798_" gradientUnits="userSpaceOnUse" x1="6552.272" y1="22046.5566" x2="6552.272" y2="22191.3145" gradientTransform="matrix(1 0 0 -1 -5059.3501 22309.1816)">
					<stop  offset="0" style="stop-color:#B4BFC9"/>
					<stop  offset="1" style="stop-color:#F5F6FF"/>
				</linearGradient>
				<path style="fill:url(#SVGID_00000138567441038759918320000006996390563257041798_);" d="M1479.5,262.5c-15,0-35.5,0-47.2-10.4
					c-10.3-9.1-10.3-27.9-10.3-41.6v-0.8c0-18.2,1.1-35.3,14.2-44.1c10.4-6.9,24.9-7.5,37.7-7.5c1.4,0,2.7,0,4,0s2.6,0,3.9,0h2.4
					c9.5,0,21.4,0,30.5,5.4c4.4,2.5,5.9,4.8,8.7,9.8l0.9,1.6h6.4v-57.1h33.2v142.1h-31v-13.8h-6.8l-0.9,1.5c-2.6,4.4-4.3,6.7-8.1,9
					c-9.8,6-28,6-35.8,6L1479.5,262.5L1479.5,262.5z M1489,181.6c-7.9,0-26.4,0-31.6,11.9v0.1c-2,4.9-2.2,10.8-2.2,16v0.8
					c0,6.5,0,16.4,5.3,22c5.5,5.9,19.1,6.7,31.8,6.7c7.3,0,17.9-0.3,26.3-3c12.6-3.9,12.6-15.9,12.6-25.5V210
					c0-5.4-0.3-11.7-2.5-16.8c-5.1-11.7-21.5-11.7-29.4-11.7c-0.8,0-1.7,0-2.4,0c-0.7,0-1.4,0-2,0c-0.8,0-1.6,0-2.4,0
					C1491.2,181.6,1490.2,181.6,1489,181.6z"/>
				<path class="st19" d="M1560.8,120.9v136h-24.9v-7.7V243h-6.1h-2h-3.5l-1.8,3c-2.4,4-3.8,6-7,7.9l0,0l0,0
					c-9,5.5-26.6,5.5-34.1,5.5h-0.9h-0.9c-13.7,0-34.3,0-45.2-9.6c-9.3-8.2-9.3-26.2-9.3-39.3v-0.8c0-17.3,1-33.6,12.8-41.6
					c9.7-6.5,23.1-7,36-7c1.4,0,2.7,0,4,0s2.6,0,3.9,0h1.2h1.2c9.1,0,20.5,0,28.9,4.9l0,0l0,0c3.7,2.1,4.8,3.8,7.5,8.6l1.8,3.1h3.6
					h1.6h6.1v-6.1v-51h27.1 M1458.2,234.4c6.3,6.8,20.1,7.7,34,7.7c7.5,0,18.4-0.3,27.2-3.2c14.7-4.6,14.7-18.9,14.7-28.4v-0.6
					c0-5.8-0.3-12.4-2.7-18c-5.9-13.5-23.7-13.5-32.2-13.5c-0.8,0-1.7,0-2.5,0c-0.7,0-1.4,0-2,0c-0.8,0-1.6,0-2.4,0
					c-1,0-2.1,0-3.2,0c0,0,0,0-0.1,0c-8.5,0-28.4,0-34.4,13.7v0.1v0.1c-2.1,5.4-2.4,11.7-2.4,17.2v0.8
					C1452.1,217.4,1452.1,228,1458.2,234.4 M1566.9,114.8h-39.3v57.1h-1.6c-2.9-5.1-4.7-8-9.8-10.9c-9.5-5.6-21.2-5.8-32-5.8
					c-0.8,0-1.6,0-2.4,0c-2.6,0-5.2,0-7.9,0c-13.5,0-28.3,0.6-39.4,8c-15.1,10.2-15.6,30.2-15.6,46.7c0,14.2-0.2,34.5,11.3,44.7
					c12.4,10.9,33.3,11.1,49.3,11.1c0.6,0,1.2,0,1.9,0c11.1,0,27.6-0.4,37.3-6.4c4.4-2.7,6.4-5.6,9.1-10h2v13.7h37.1V114.8
					L1566.9,114.8z M1492.2,236c-7.1,0-24.2,0-29.6-5.8c-4.7-4.9-4.4-14.4-4.4-20.7c0-4.7,0.2-10.4,2-14.9c4.1-9.3,18.5-10,28.8-10
					c2.1,0,4,0,5.6,0c1.4,0,2.9,0,4.5,0c9.6,0,22.6,0.7,26.6,9.8c2,4.7,2.2,10.7,2.2,15.6c0,9.6,0.2,19.8-10.4,23.1
					C1510,235.6,1500.2,236,1492.2,236L1492.2,236z"/>
			</g>
			<g>
				
					<linearGradient id="SVGID_00000121984316116920228170000009695527439768666301_" gradientUnits="userSpaceOnUse" x1="6722.0576" y1="22046.5918" x2="6722.0576" y2="22150.9609" gradientTransform="matrix(1 0 0 -1 -5059.3501 22309.1816)">
					<stop  offset="0" style="stop-color:#B4BFC9"/>
					<stop  offset="1" style="stop-color:#F5F6FF"/>
				</linearGradient>
				<path style="fill:url(#SVGID_00000121984316116920228170000009695527439768666301_);" d="M1650.5,262.6c-17,0-37.8-1.1-48.1-9.8
					c-3.4-2.9-5.7-6-7.6-10.4c-3.7-9-3.6-20.7-3.5-31c0-1.4,0-2.7,0-4c0-5.7,0-11.6,0.6-17.2c0.9-10.1,4.8-17.8,11.7-23
					c11.7-8.9,40.6-8.9,53-8.9h6h6.1c12.3,0,41.1,0,53,9c3.4,2.6,5.6,5.1,7.6,9c4.9,8.6,4.8,20,4.8,30c0,1.1,0,2.2,0,3.2
					c0,6.5-0.2,13-0.7,19.3c-1,11.4-4.1,18.6-10.5,24.1c-9.9,8.6-31.8,9.8-49.6,9.8c-2.1,0-4,0-5.9,0c-1.7,0-3.2,0-4.7,0
					c-1.7,0-3.5,0-5.4,0C1655,262.5,1652.8,262.6,1650.5,262.6z M1662.8,181.6c-6.7,0-14.6,0.2-21.9,1.6
					c-16.5,3.2-16.5,16.6-16.5,28.3v0.8c0,6,0,14.2,4.8,19.3c6.9,7.4,24.9,7.4,33.6,7.4c7.9,0,16,0,23.7-2.1
					c14.3-3.9,14.3-17.1,14.3-27.7v-0.6c0-7.2-0.5-15.3-5.8-20.4C1688.8,182.3,1673.7,181.6,1662.8,181.6z"/>
				<path class="st19" d="M1668.7,161.3c12,0,40.1,0,51.1,8.3c3.1,2.3,5,4.6,6.7,8v0.1v0.1c4.4,7.9,4.4,18.3,4.3,28.4
					c0,1.1,0,2.2,0,3.2c0,6.4-0.2,12.8-0.6,19.1c-0.9,10.6-3.8,17.2-9.5,22.1c-10.3,9-36.5,9-47.6,9c-2.1,0-4,0-5.9,0
					c-1.7,0-3.2,0-4.7,0c-1.7,0-3.5,0-5.5,0c-2.1,0-4.4,0-6.7,0c-16.5,0-36.6-1-46.2-9.1c-3-2.5-5-5.2-6.7-9.2
					c-3.5-8.5-3.4-19.8-3.3-29.8c0-1.4,0-2.7,0-4.1c0-5.6,0-11.4,0.6-16.9v-0.1v-0.1c0.8-9.3,4.3-16.1,10.5-20.8
					c10.8-8.3,39.1-8.3,51.1-8.3c1.1,0,2.2,0,3.3,0c1,0,1.9,0,2.7,0c0.9,0,1.8,0,2.8,0C1666.4,161.3,1667.5,161.3,1668.7,161.3
					L1668.7,161.3 M1627,233.8c6.9,7.4,21.3,8.4,35.8,8.4c7.7,0,16.4,0,24.5-2.2c16.5-4.5,16.5-19.6,16.5-30.7v-0.6
					c0-5.7,0-16.2-6.8-22.6c-5.4-5.2-15.9-7.5-34.2-7.5c-6.9,0-14.9,0.2-22.5,1.7c-19,3.7-19,19.7-19,31.4v0.8
					C1621.4,218.9,1621.3,227.7,1627,233.8 M1668.7,155.2c-2.2,0-4.2,0-6.1,0c-1.8,0-3.8,0-6,0c-16.8,0-43.1,0.5-54.9,9.6
					c-8.2,6.2-12,15.1-12.9,25.1c-0.7,5.8-0.7,11.8-0.7,17.6c0,11.6-0.7,25.3,3.8,36.2c2,4.7,4.4,8.2,8.4,11.6
					c11.3,9.5,33,10.5,50.1,10.5c4.4,0,8.6-0.1,12.1-0.1c3.1,0,6.7,0,10.6,0c17.3,0,40.6-0.9,51.6-10.5c8-6.9,10.7-16,11.6-26.2
					c0.4-6.4,0.7-13.1,0.7-19.6c0-11.3,0.7-24.4-5.1-34.7c-2.2-4.2-4.7-7.1-8.4-10C1711.5,155.7,1685.6,155.2,1668.7,155.2
					L1668.7,155.2z M1662.8,236c-8,0-25.3,0-31.3-6.4c-4.2-4.4-4-12.2-4-18c0-12,0.2-22.7,14-25.3c6.9-1.3,14.2-1.6,21.3-1.6
					c7.3,0,24.2,0.2,30,5.8c4.7,4.4,4.9,12.2,4.9,18.2c0,10.9,0.2,22-12,25.3C1678.4,236,1670.4,236,1662.8,236L1662.8,236z"/>
			</g>
			<g>
				
					<linearGradient id="SVGID_00000175284125118078769030000003540806919138491781_" gradientUnits="userSpaceOnUse" x1="6878.7285" y1="22049.3555" x2="6878.7285" y2="22151.0254" gradientTransform="matrix(1 0 0 -1 -5059.3501 22309.1816)">
					<stop  offset="0" style="stop-color:#B4BFC9"/>
					<stop  offset="1" style="stop-color:#F5F6FF"/>
				</linearGradient>
				<path style="fill:url(#SVGID_00000175284125118078769030000003540806919138491781_);" d="M1761.5,259.8v-99h31v15.8h6.6l0.9-1.6
					c7.9-14.1,20-16.9,38.2-16.9c10.4,0,25.1,1.1,32.7,10.6c6.4,8,6.4,19.9,6.4,30.5v1c0,0.4,0,0.7,0,1.2h-31
					c-0.8-14.5-7.2-19.8-23.7-19.8c-28,0-28,20-28,37.7v40.5H1761.5z"/>
				<path class="st19" d="M1838.2,161.3c9.7,0,23.5,1,30.3,9.5c5.6,6.9,5.8,17.8,5.8,27.6h-25.2c-1.6-14.1-9.5-19.8-26.5-19.8
					c-13.5,0-22.4,4.4-27,13.4c-3.7,7.3-4,16.3-4,27.4v37.4h-27.1V164h24.9v9.7v6.1h6.1h1.8h3.6l1.8-3.1
					C1809.9,163.8,1821.1,161.3,1838.2,161.3 M1838.2,155.2c-17.1,0-31.8,2.2-40.9,18.4h-1.8v-15.8h-37.1v105.2h39.3v-43.6
					c0-19.3,0.7-34.7,24.9-34.7c15.6,0,20.7,4.2,20.7,19.8h36.9c0-1.3,0.2-2.9,0.2-4.2c0-11.1,0.2-24.2-7.1-33.3
					C1865.1,156.8,1850.4,155.2,1838.2,155.2L1838.2,155.2z"/>
			</g>
			<g>
				
					<linearGradient id="SVGID_00000004511975128472728280000014847685881874615964_" gradientUnits="userSpaceOnUse" x1="7025.624" y1="22046.6562" x2="7025.624" y2="22151.0254" gradientTransform="matrix(1 0 0 -1 -5059.3501 22309.1816)">
					<stop  offset="0" style="stop-color:#B4BFC9"/>
					<stop  offset="1" style="stop-color:#F5F6FF"/>
				</linearGradient>
				<path style="fill:url(#SVGID_00000004511975128472728280000014847685881874615964_);" d="M1960.8,262.5c-13.5,0-38.8,0-50.5-9.1
					c-3.4-2.6-5.9-5.7-8-10.1c-4.2-8.8-4.2-20-4.1-29.9v-2.5c0-6.5,0-13.2,0.7-19.5c1.2-11.5,5.1-19.3,12.3-24.5
					c12.1-8.8,37.4-8.8,49.6-8.8h6.1c0,0,6.5,0,7.8,0c12.3,0,25.3,0.3,36.9,3.7c21,6.2,22.7,24.7,22.7,46.4c0,2.5,0,5.1-0.1,7.6
					h-102.8v3.8c0,6.1,0,13.8,6,18.8c4.4,3.5,13.5,5.1,28.6,5.1h1.9c16.8,0,25.4-1.6,28.9-5.4c1.7-1.7,2.5-3.7,3-5.7h33.2
					c-1,8-3.1,13.9-9.1,19.3c-11.9,10.8-41.4,10.8-55.6,10.8H1960.8z M1967.5,176.5c-6,0-12.2,0-18.2,0.9
					c-12.6,1.8-17.7,7.3-17.9,19.9l-0.1,3.1h69.5v-5.5c0-4.4-0.3-8.4-3.9-12.3C1991.9,177.2,1979.2,176.5,1967.5,176.5z"/>
				<path class="st19" d="M1974.7,155.2v6.1l0,0c12.1,0,24.8,0.3,36,3.5c8.7,2.6,14.2,7.5,17.2,15.6c3.1,8.2,3.3,18.7,3.3,27.9
					c0,1.5,0,3.1,0,4.5h-96.8h-6.1v6.1v0.7c0,6.4,0,15.2,7.1,21.1l0,0h0.1c5,3.9,14.7,5.8,30.5,5.8h0.8h1.1c17.9,0,27-1.8,31.2-6.3
					c1.5-1.5,2.4-3.1,3-4.8h27.4c-1.1,5.6-3.2,10-7.6,14c-11.1,10-40.8,10-53.6,10c-1,0-2,0-2.9,0h-2.5h-1h-1
					c-13.2,0-37.7,0-48.7-8.5c-3-2.4-5.2-5-7.1-9c-3.9-8.2-3.9-19-3.8-28.6c0-0.9,0-1.7,0-2.5c0-6.7,0-13,0.6-19.1
					c1.1-10.6,4.6-17.7,11.1-22.3c11.3-8.2,36-8.2,47.8-8.2c1.1,0,2.2,0,3.3,0c1,0,2,0,2.9,0c1.3,0,2.6,0,3.9,0s2.6,0,4,0
					L1974.7,155.2 M1948.8,174.4c-14.1,2-20.3,8.8-20.6,22.8l-0.1,6.2h6.2h63.3h6.1v-6.1v-2.4c0-3.7,0-9.3-4.7-14.4
					c-5.7-6.2-18.6-7.1-31.6-7.1C1961.4,173.5,1955,173.5,1948.8,174.4 M1974.7,155.2c-2.6,0-5.3,0-7.8,0c-1.9,0-4,0-6.1,0
					c-16.4,0-39.3,0.5-51.4,9.3c-8.9,6.4-12.4,16-13.6,26.7c-0.7,6.4-0.7,13.1-0.7,19.8c0,10.9-0.4,23.6,4.4,33.8
					c2.2,4.4,4.9,8,8.9,11.1c12.3,9.6,36.7,9.8,52.4,9.8c0.7,0,1.4,0,2,0c1.7,0,3.5,0,5.5,0c17.9,0,45.4-0.5,57.7-11.6
					c7.6-6.9,9.6-14.7,10.4-24.7h-39.1c-0.4,2.4-0.9,4.9-2.7,6.7c-3.9,4.3-19.2,4.4-26.7,4.4c-0.7,0-1.4,0-1.9,0
					c-6.4,0-21.3-0.2-26.7-4.4c-5.1-4.2-4.9-11.1-4.9-17.1h102.7c0.2-3.6,0.2-7.1,0.2-10.7c0-21.1-1.6-42.5-24.9-49.3
					C2000.4,155.5,1987.3,155.2,1974.7,155.2L1974.7,155.2z M1934.4,197.3c0.2-11.1,4.2-15.3,15.3-16.9c5.8-0.9,11.8-0.9,17.8-0.9
					c6.4,0,22.4,0,27.1,5.1c2.9,3.1,3.1,6.2,3.1,10.2v2.4L1934.4,197.3L1934.4,197.3z"/>
			</g>
		</g>
		<g>
			<g>
				
					<linearGradient id="SVGID_00000176734961652086370960000003913563854654491048_" gradientUnits="userSpaceOnUse" x1="5225.7026" y1="21986.1738" x2="5225.7026" y2="22213.1094" gradientTransform="matrix(1 0 0 -1 -5059.3501 22309.1816)">
					<stop  offset="0" style="stop-color:#B4BFC9"/>
					<stop  offset="1" style="stop-color:#F5F6FF"/>
				</linearGradient>
				<path style="fill:url(#SVGID_00000176734961652086370960000003913563854654491048_);" d="M209.5,323
					C147,323,96.1,272.1,96.1,209.5C96.1,147,147,96.1,209.5,96.1c9.1,0,18.2,1.1,27.1,3.3v51.3c-8.5-3.9-17.7-5.9-27.1-5.9
					c-35.8,0-64.9,29.1-64.9,64.9s29.1,64.9,64.9,64.9c9.4,0,18.6-2,27.1-5.9v51.3C227.7,321.9,218.6,323,209.5,323z"/>
				<path class="st19" d="M209.5,99.1c8.1,0,16.1,0.9,24,2.6V146c-7.7-2.9-15.8-4.4-24-4.4c-37.5,0-67.9,30.5-67.9,67.9
					c0,37.5,30.5,67.9,67.9,67.9c8.2,0,16.4-1.5,24-4.4v44.3c-7.9,1.8-15.9,2.6-24,2.6c-29.5,0-57.2-11.5-78.1-32.4
					c-20.9-20.9-32.4-48.6-32.4-78.1s11.5-57.2,32.4-78.1C152.4,110.6,180,99.1,209.5,99.1 M209.5,93C145.2,93,93,145.2,93,209.5
					s52.2,116.6,116.6,116.6c10.4,0,20.5-1.4,30.1-4v-58.7c-8.9,5-19.2,7.9-30.1,7.9c-34.1,0-61.8-27.7-61.8-61.8
					s27.7-61.8,61.8-61.8c10.9,0,21.2,2.9,30.1,7.9V97C230,94.4,219.9,93,209.5,93L209.5,93z"/>
			</g>
			<g>
				
					<linearGradient id="SVGID_00000153675418411127582870000011681796094272142010_" gradientUnits="userSpaceOnUse" x1="5347.6675" y1="22106.9395" x2="5347.6675" y2="22147.4277" gradientTransform="matrix(1 0 0 -1 -5059.3501 22309.1816)">
					<stop  offset="0" style="stop-color:#B4BFC9"/>
					<stop  offset="1" style="stop-color:#F5F6FF"/>
				</linearGradient>
				<polygon style="fill:url(#SVGID_00000153675418411127582870000011681796094272142010_);" points="242.7,202.2 242.7,161.8 
					333.9,161.8 293.4,202.2 				"/>
				<path class="st19" d="M326.5,164.9l-34.4,34.4h-46.3v-34.4H326.5 M341.3,158.7H239.7v46.6h55L341.3,158.7L341.3,158.7z"/>
			</g>
			<g>
				
					<linearGradient id="SVGID_00000044165996194294521340000009148185226095607177_" gradientUnits="userSpaceOnUse" x1="5347.6675" y1="22051.8555" x2="5347.6675" y2="22092.3438" gradientTransform="matrix(1 0 0 -1 -5059.3501 22309.1816)">
					<stop  offset="0" style="stop-color:#B4BFC9"/>
					<stop  offset="1" style="stop-color:#F5F6FF"/>
				</linearGradient>
				<polygon style="fill:url(#SVGID_00000044165996194294521340000009148185226095607177_);" points="242.7,257.3 242.7,216.8 
					293.4,216.8 333.9,257.3 				"/>
				<path class="st19" d="M292.1,219.9l34.4,34.4h-80.7v-34.4H292.1 M294.6,213.8h-55v46.6h101.6L294.6,213.8L294.6,213.8z"/>
			</g>
		</g>
		<g>
			<g>
				
					<linearGradient id="SVGID_00000142882948941572711460000016169425654981821627_" gradientUnits="userSpaceOnUse" x1="7859.9473" y1="22006.7676" x2="7859.9473" y2="22193.3145" gradientTransform="matrix(1 0 0 -1 -5059.3501 22309.1816)">
					<stop  offset="0" style="stop-color:#B4BFC9"/>
					<stop  offset="1" style="stop-color:#F5F6FF"/>
				</linearGradient>
				<polygon style="fill:url(#SVGID_00000142882948941572711460000016169425654981821627_);" points="2767.1,302.4 2693,115.9 
					2738.1,115.9 2794.5,260 2807.7,260 2863.3,115.9 2908.2,115.9 2835,302.4 				"/>
				<path class="st19" d="M2903.7,119l-70.8,180.4h-63.7L2697.5,119h38.5l54.8,140.3l1.5,3.9h4.2h9h4.2l1.5-3.9l54.1-140.3
					L2903.7,119 M2912.7,112.8h-51.5l-55.6,144.2h-9l-56.4-144.2h-51.7l76.5,192.7h72.1L2912.7,112.8L2912.7,112.8z"/>
			</g>
			<g>
				
					<linearGradient id="SVGID_00000034768334681688325210000007007367444817598080_" gradientUnits="userSpaceOnUse" x1="8017.5522" y1="22006.7676" x2="8017.5522" y2="22193.3145" gradientTransform="matrix(1 0 0 -1 -5059.3501 22309.1816)">
					<stop  offset="0" style="stop-color:#B4BFC9"/>
					<stop  offset="1" style="stop-color:#F5F6FF"/>
				</linearGradient>
				
					<rect x="2936.6" y="115.9" style="fill:url(#SVGID_00000034768334681688325210000007007367444817598080_);" width="43.3" height="186.5"/>
				<path class="st19" d="M2976.7,119v180.4h-37.1V119H2976.7 M2982.9,112.8h-49.4v192.7h49.4V112.8L2982.9,112.8z"/>
			</g>
			<g>
				
					<linearGradient id="SVGID_00000150801163938995336430000018421842382360579237_" gradientUnits="userSpaceOnUse" x1="8178.7368" y1="22003.8691" x2="8178.7368" y2="22196.2129" gradientTransform="matrix(1 0 0 -1 -5059.3501 22309.1816)">
					<stop  offset="0" style="stop-color:#B4BFC9"/>
					<stop  offset="1" style="stop-color:#F5F6FF"/>
				</linearGradient>
				<path style="fill:url(#SVGID_00000150801163938995336430000018421842382360579237_);" d="M3141.6,305.3c-1.5,0-3,0-4.4,0
					c-1.2,0-2.4,0-3.5,0h-26.1c-19.7,0-37.4-0.4-54.5-4.8c-15.9-4.3-24.3-14.3-27.2-32.5c-2.5-15.6-2.4-32.3-2.3-48.5
					c0-3,0-6.1,0-9.1c0-11.3,0-23.1,0.5-34.3v-1.3c0.4-17,0.9-34.6,10.8-46.2c3.1-3.7,7-6.4,11.8-8.4c15.8-6.5,46.6-7.3,71.8-7.3
					c2.5,0,5,0,7.2,0c2,0,3.9,0,5.6,0c2,0,3.9,0,5.9,0s3.9,0,5.9,0c13.1,0,27.1,0.3,40.6,3.4c7.2,1.8,12.7,4.8,17.3,9.3
					c11.4,11,11.4,33.4,11.4,49.8c0,0.9-0.1,1.9-0.1,3c0,0.1,0,0.2,0,0.3h-41.2c-0.3-7.2-1-13.8-4.2-17.2c-2.7-3-7.1-4.1-10.4-4.4
					c-12.7-2-25.9-2-38.7-2c-6.8,0-13.3,0-20.1,0.3l-1.4,0.1c-7.2,0.3-17,0.6-23.3,6.6c-7.9,7.6-8.5,27.5-8.4,45.7v2.5
					c0,0.9,0,1.9,0,3c-0.1,17.3,0.4,36.2,8,43.2c3.4,3,7.2,4.7,11.6,5.4c7.9,1.4,16.4,1.5,23.8,1.5c1.3,0,2.6,0,3.9,0s2.6,0,3.8,0
					h23.9c0.9,0,1.8,0,2.8,0c1.2,0,2.4,0,3.8,0c6.4,0,21.5,0,25.6-12.9c1.5-4.7,1.9-11,2-16.1h41.1c0.2,3.8,0.3,7.5,0.3,11.1
					c0,14.6,0,34.7-10.1,45.9C3192.8,305.3,3155.6,305.3,3141.6,305.3z"/>
				<path class="st19" d="M3143.3,116.1c12.9,0,26.6,0.3,39.9,3.3c6.7,1.7,11.7,4.3,15.9,8.5l0,0l0,0c10.4,10,10.4,31.8,10.4,47.6
					c0,0.1,0,0.2,0,0.2h-35.3c-0.4-6.6-1.4-12.6-4.8-16.2c-3.4-3.7-8.5-5-12.3-5.4c-13-2.1-26.2-2.1-39.1-2.1
					c-6.9,0-13.3,0-20.2,0.3c-0.5,0-0.9,0-1.4,0.1c-7.7,0.3-18.2,0.7-25.3,7.4c-8.7,8.4-9.4,29.1-9.3,47.9c0,0.9,0,1.7,0,2.5
					c0,0.9,0,1.9,0,3c-0.1,18.7,0.5,37.7,9,45.5l0.1,0.1l0.1,0.1c3.8,3.3,8,5.2,13,6c8.2,1.4,16.9,1.5,24.3,1.5c1.3,0,2.6,0,4,0
					c1.3,0,2.6,0,3.8,0h23.9c0.8,0,1.8,0,2.7,0c1.2,0,2.5,0,3.8,0c6.5,0,23.7,0,28.5-15.1c1.3-4.2,1.8-9.3,2-13.9h35.2
					c0.1,2.8,0.2,5.4,0.2,8c0,14.1,0,33.5-9.4,43.9c-11.5,13-47.7,13-61.3,13c-1.5,0-3,0-4.4,0c-1.2,0-2.4,0-3.5,0h-19.9h-3.1h-3.1
					c-19.5,0-37-0.4-53.7-4.7c-14.8-4-22.3-13-25-30c-2.5-15.3-2.4-32-2.3-48c0-3.1,0-6.1,0-9.1c0-11.3,0-23,0.5-34.1l0,0l0,0V175
					c0.4-16.5,0.9-33.5,10.1-44.3c2.8-3.3,6.3-5.8,10.7-7.6c17.2-7.1,54.7-7.1,70.6-7.1c2.5,0,4.9,0,7.2,0c2,0,3.9,0,5.6,0
					c2,0,3.9,0,5.9,0C3139.3,116.1,3141.3,116.1,3143.3,116.1 M3143.3,109.9c-3.9,0-7.9,0-11.8,0c-3.7,0-8,0-12.8,0
					c-23.1,0-56.1,0.6-73,7.5c-4.9,2-9.3,4.9-13,9.2c-10.9,12.7-11.1,31.8-11.6,49.4c-0.5,11.3-0.5,22.8-0.5,34.4
					c0,19.1-0.7,39.3,2.3,58.1c3.2,20.5,13.4,30.6,29.4,35c17.9,4.7,36.8,4.9,55.3,4.9c2.1,0,4.1,0,6.2,0h19.9c2.3,0,4.9,0,7.8,0
					c20.3,0,53.3-0.9,65.9-15c10.7-11.8,10.9-31.5,10.9-48c0-4.6-0.2-9.5-0.5-14.2h-47.1c0,5.5-0.2,13-1.9,18.2
					c-3.1,9.7-14,10.8-22.7,10.8c-2.4,0-4.7-0.1-6.6-0.1h-23.9c-2.6,0-5.2,0-7.8,0c-7.8,0-15.8-0.2-23.3-1.5c-3.7-0.6-7-2-10-4.6
					c-7.9-7.2-7-33.5-7-43.9c0-11.3-0.7-38.1,7.4-46c5.8-5.5,15.8-5.5,22.7-5.8c6.7-0.3,13.2-0.3,19.9-0.3c12.5,0,25.7,0,38.3,2
					c2.8,0.3,6.5,1.2,8.6,3.5c3.2,3.5,3.2,13,3.5,18.2h47.1c0-2,0.2-4.3,0.2-6.4c0-17.3,0-40.2-12.3-52c-5.6-5.5-11.8-8.4-18.8-10.1
					C3171,110.3,3157.1,109.9,3143.3,109.9L3143.3,109.9z"/>
			</g>
			<g>
				
					<linearGradient id="SVGID_00000038380987915829374330000012460877643539466376_" gradientUnits="userSpaceOnUse" x1="8427.2852" y1="22006.668" x2="8427.2852" y2="22195.7129" gradientTransform="matrix(1 0 0 -1 -5059.3501 22309.1816)">
					<stop  offset="0" style="stop-color:#B4BFC9"/>
					<stop  offset="1" style="stop-color:#F5F6FF"/>
				</linearGradient>
				<path style="fill:url(#SVGID_00000038380987915829374330000012460877643539466376_);" d="M3280.1,302.4c0-2.8-0.1-5.7-0.2-8.4
					c-0.1-3.7-0.2-7.6-0.2-11.3v-4.3c0-13.8,0-28.1,1.8-41.9c3.8-29.1,23.1-33.4,46-35.8l58.4-5.8c1.7-0.2,3.3-0.3,5-0.5
					c6.2-0.6,12.6-1.1,18.7-3.8c8.5-3.7,8.5-10.3,8.5-18.7c0-5.8,0-12.9-4.9-17.3c-3.7-3.5-12.3-5-27.7-5c-3.1,0-6,0.1-8.3,0.1
					c-1.5,0-2.8,0.1-3.7,0.1c-2.6,0-5.3,0-8-0.1c-2.8,0-5.5-0.1-8.3-0.1c-8.5,0-18.4,0.3-27.9,2.2c-12.2,2.3-12.1,12.9-12,23
					c0,1,0,2,0,3.1v3.3h-39.6v-4.7c0-13.7,0-36.5,9.1-48.4c9.2-12,30-13.2,43.7-14l2.5-0.1c9.9-0.6,20-0.6,29.7-0.6h4.4l38.2,0.3
					c13.6,0,32.2,0,42.6,13.3c7.9,10.1,7.9,32.1,7.9,45.2c0,12.7,0,28.6-6.4,41.1c-8,15.9-32,17.8-44.8,18.9
					c-5.6,0.4-11.1,0.9-16.6,1.3c-5.5,0.4-11,0.9-16.6,1.3c-8.8,0.6-17.8,1.5-26.5,2.3c-6.4,0.5-14.8,1.4-18.6,3.2
					c-9.2,4.3-9.2,12.4-9.2,21v3.1h141.2v38.1h-178.1V302.4z"/>
				<path class="st19" d="M3367.1,116.7l38.3,0.3c12.9,0,30.7,0,40.2,12.1c7.3,9.3,7.3,30.6,7.3,43.3c0,12.4,0,27.8-6.1,39.7
					c-7.2,14.3-30.1,16.2-42.3,17.2c-5.5,0.4-10.9,0.9-16.4,1.3c-5.6,0.4-11.1,0.9-16.8,1.3c-8.9,0.6-17.8,1.5-26.5,2.3
					c-9.7,0.7-16.3,1.9-19.7,3.4c-11,5.1-11,15-11,23.8v6.1h6.1h135.1v32h-172.3c0-1.8-0.1-3.7-0.2-5.5c-0.1-3.7-0.2-7.6-0.2-11.2
					c0-1.4,0-2.8,0-4.3c0-13.7,0-27.9,1.8-41.5c1.7-12.7,6.3-20.9,14.6-25.9c7.9-4.7,18.5-6.2,28.6-7.2l58.4-5.8h0.1h0.1
					c1.6-0.2,3.2-0.3,4.8-0.5c6.1-0.5,13.1-1.2,19.6-4c10.4-4.5,10.4-13.1,10.4-21.5c0-6,0-14.3-5.9-19.6
					c-4.4-4.1-13.3-5.8-29.7-5.8c-3.1,0-6,0.1-8.3,0.1c-1.5,0-2.8,0.1-3.6,0.1c-2.6,0-5.2,0-7.9-0.1c-2.7,0-5.5-0.1-8.4-0.1
					c-8.6,0-18.7,0.3-28.5,2.3c-14.7,2.8-14.6,15.7-14.5,26.1c0,1,0,2,0,3v0.2h-33.4v-1.7c0-13.3,0-35.5,8.5-46.5
					c8.4-10.9,28.3-12,41.5-12.8c0.9-0.1,1.7-0.1,2.5-0.1c9.8-0.6,19.8-0.6,29.6-0.6L3367.1,116.7 M3367.2,110.5h-4.4
					c-10,0-19.9,0-29.9,0.6c-14.1,0.9-37.8,1.4-48.5,15.3c-9.5,12.4-9.7,34.4-9.7,50.3v7.8h45.7V178c0-11.6-1.2-21.1,9.5-23.1
					c8.8-1.8,18.1-2.1,27.3-2.1c5.5,0,11,0.1,16.3,0.1c2.3,0,6.8-0.2,11.9-0.2c9.8,0,21.8,0.6,25.6,4.2c3.9,3.5,3.9,9.5,3.9,15
					c0,8.1,0,13-6.7,15.9c-7.2,3.2-15.3,3.2-22.7,4l-58.4,5.8c-22.3,2.3-44.5,6.4-48.7,38.4c-2.1,15.3-1.9,30.9-1.9,46.5
					c0,7.5,0.5,15.3,0.5,22.8h184.5v-44.2h-141.2c0-8.4,0-14.7,7.4-18.2c3.7-1.7,13.7-2.6,17.6-2.9c8.8-0.9,17.6-1.7,26.4-2.3
					c11.1-0.9,22-1.7,33.2-2.6c14.4-1.2,38.7-3.5,47.3-20.5c6.5-12.7,6.7-28,6.7-42.5c0-14.2,0-36.1-8.6-47.1
					c-11.1-14.2-30.1-14.4-45-14.4L3367.2,110.5L3367.2,110.5z"/>
			</g>
			<g>
				
					<linearGradient id="SVGID_00000072980888174052819700000000241068306422380729_" gradientUnits="userSpaceOnUse" x1="8649.2002" y1="22004.3691" x2="8649.2002" y2="22195.5137" gradientTransform="matrix(1 0 0 -1 -5059.3501 22309.1816)">
					<stop  offset="0" style="stop-color:#B4BFC9"/>
					<stop  offset="1" style="stop-color:#F5F6FF"/>
				</linearGradient>
				<path style="fill:url(#SVGID_00000072980888174052819700000000241068306422380729_);" d="M3590.2,304.7c-11.2,0-22-0.3-33.5-0.6
					h-1c-24.6-0.6-52.5-1.2-57.8-37.5c-2.1-14.6-2-32.1-1.9-47.6c0-3.3,0-6.6,0-9.7c0-11.7,0-22.8,0.2-34.3
					c0.2-15.9,1.2-33.8,10-45.3c5.1-6.6,12.5-10.8,22-12.7c15.6-3.2,36-3.4,53.9-3.4h7.9c7.6,0,15.4,0.3,22.9,0.5
					c3.8,0.1,7.6,0.3,11.3,0.3c20.9,0.6,34.8,2.5,44.3,10.1c10.4,8.4,15.3,24.4,15.3,50.4v68.8c0,17.6-2,29.9-6.4,38.9
					c-5,10.1-13.4,16.3-25.7,18.8c-15.5,3.1-36,3.4-53.9,3.4L3590.2,304.7z M3543.7,166.2c-6,7.8-6.5,25.3-6.4,41.1v2v2.1
					c0,15.2,0.3,32,5.4,39.5c2.9,4.4,6.6,6.1,10.1,7.2h0.1c6.5,1.9,16.4,2.8,29.4,2.8c2.7,0,5.5,0,8.5-0.1l20.4-0.6
					c0.7,0,1.3-0.1,1.9-0.1c5.8-0.3,13.1-0.6,18.5-3.8c12-6.6,11.7-28.5,11.5-43c0-1.5,0-2.9,0-4.2c0-1.3,0-2.7,0-4.2
					c0.2-14.6,0.4-36.7-11.5-43.5c-5.9-3.2-14.1-3.6-20.5-3.6c-4.6,0-9.3-0.1-13.8-0.1c-4.6-0.1-9.4-0.1-14.2-0.1h-5.3
					c-8.1,0-16.8,0.2-24.8,2.4C3549.6,161.2,3546.3,162.6,3543.7,166.2z"/>
				<path class="st19" d="M3582.3,110.5v6.1h4.1h3.8c7.5,0,15.3,0.3,22.8,0.5c3.7,0.1,7.6,0.3,11.3,0.4c20.2,0.6,33.7,2.3,42.5,9.4
					c9.7,7.8,14.1,23,14.1,48v68.8c0,35-8.3,50.3-29.6,54.7c-15.3,3.1-35.5,3.4-53.3,3.4h-4.1h-3.8c-11.2,0-22-0.3-33.4-0.6h-1
					c-11.1-0.3-25-0.6-35.4-5.3c-11-5-17.2-14.4-19.4-29.6c-2-14.4-1.9-31.8-1.8-47.2c0-3.3,0-6.6,0-9.8c0-11.7,0-22.8,0.2-34.3
					c0.2-15.4,1.1-32.7,9.4-43.4c4.6-6,11.4-9.9,20.3-11.6c15.3-3.1,35.5-3.4,53.2-3.4L3582.3,110.5 M3541.2,164.4
					c-6.6,8.6-7.1,26.7-7,43c0,0.7,0,1.4,0,2c0,0.6,0,1.4,0,2.1c0,15.6,0.4,33,5.9,41.2c3.5,5.2,7.9,7.2,11.7,8.5h0.1h0.1
					c6.8,2,17,3,30.2,3c2.7,0,5.5,0,8.5-0.1l20.4-0.6h0.1h0.1c0.6,0,1.2-0.1,1.8-0.1c6.2-0.3,13.8-0.6,19.9-4.2
					c13.5-7.5,13.3-30.5,13.1-45.6c0-1.5,0-2.9,0-4.2c0-1.3,0-2.7,0-4.2c0.2-15.3,0.5-38.5-13.1-46.2h-0.1h-0.1
					c-6.4-3.5-14.7-3.9-21.9-3.9c-4.6,0-9.2-0.1-13.8-0.1c-4.7-0.1-9.5-0.1-14.3-0.1c-0.9,0-1.7,0-2.6,0c-0.9,0-1.8,0-2.7,0
					c-8.4,0-17.2,0.2-25.6,2.5h-0.1h-0.1C3548.4,158.4,3544.4,160.1,3541.2,164.4 M3582.3,110.5c-17.6,0-38.4,0.2-54.5,3.5
					c-8.8,1.7-17.6,5.8-23.9,13.9c-9.5,12.4-10.4,30.9-10.7,47.1c-0.2,11.6-0.2,22.8-0.2,34.4c0,18.2-0.7,39.9,1.9,57.8
					c5.6,38.4,35.2,39.6,60.8,40.2c11.6,0.3,23,0.6,34.5,0.6c2.5,0,5.1,0,7.8,0c17.5,0,38.5-0.2,54.5-3.5
					c28.1-5.8,34.5-28.6,34.5-60.7v-68.8c0-57.2-23-62.4-62.6-63.6c-11.4-0.3-23-0.9-34.3-0.9C3587.7,110.5,3585,110.5,3582.3,110.5
					L3582.3,110.5z M3582.3,257.9c-9.6,0-20.9-0.5-28.5-2.7c-3.5-1.2-6.3-2.6-8.6-6.1c-5.3-7.8-4.9-30.3-4.9-39.9
					c0-10.4-0.5-33.2,5.8-41.3c2.1-2.9,4.9-4,7.7-4.9c7.6-2.1,15.9-2.3,23.9-2.3c1.8,0,3.5,0,5.3,0c9.5,0,18.8,0.3,28.1,0.3
					c5.8,0,13.7,0.3,19,3.2c11.6,6.6,10,32.4,10,45.1c0,12.7,1.6,38.1-10,44.5c-5.3,3.2-13.2,3.2-19,3.5l-20.4,0.6
					C3588.2,257.9,3585.3,257.9,3582.3,257.9L3582.3,257.9z"/>
			</g>
		</g>
	</g>
</g>
</svg>
