<?xml version="1.0" encoding="utf-8"?>
<!-- Generator: Adobe Illustrator 25.4.1, SVG Export Plug-In . SVG Version: 6.00 Build 0)  -->
<svg version="1.1" id="Layer_1" xmlns="http://www.w3.org/2000/svg" xmlns:xlink="http://www.w3.org/1999/xlink" x="0px" y="0px"
	 viewBox="0 0 3839 347.3" style="enable-background:new 0 0 3839 347.3;" xml:space="preserve">
<style type="text/css">
	.st0{fill-rule:evenodd;clip-rule:evenodd;fill:#002684;}
	.st1{fill-rule:evenodd;clip-rule:evenodd;fill:#12506F;}
	.st2{fill-rule:evenodd;clip-rule:evenodd;fill:#247A5B;}
	.st3{fill-rule:evenodd;clip-rule:evenodd;fill:#36A346;}
	.st4{fill-rule:evenodd;clip-rule:evenodd;fill:#48CD31;}
	.st5{fill-rule:evenodd;clip-rule:evenodd;fill:#6AD534;}
	.st6{fill-rule:evenodd;clip-rule:evenodd;fill:#8CDD37;}
	.st7{fill-rule:evenodd;clip-rule:evenodd;fill:#AFE63A;}
	.st8{fill-rule:evenodd;clip-rule:evenodd;fill:#D1EE3D;}
	.st9{fill-rule:evenodd;clip-rule:evenodd;fill:#F3F640;}
	.st10{fill-rule:evenodd;clip-rule:evenodd;fill:#F6D730;}
	.st11{fill-rule:evenodd;clip-rule:evenodd;fill:#F9B721;}
	.st12{fill-rule:evenodd;clip-rule:evenodd;fill:#FB9811;}
	.st13{fill-rule:evenodd;clip-rule:evenodd;fill:#FE7801;}
	.st14{fill-rule:evenodd;clip-rule:evenodd;fill:#FE5C13;}
	.st15{fill-rule:evenodd;clip-rule:evenodd;fill:#FE4125;}
	.st16{fill-rule:evenodd;clip-rule:evenodd;fill:#FE2537;}
	.st17{fill-rule:evenodd;clip-rule:evenodd;fill:#14A4FE;}
	.st18{fill-rule:evenodd;clip-rule:evenodd;fill:#21AECB;}
	.st19{fill-rule:evenodd;clip-rule:evenodd;fill:#2EB998;}
	.st20{fill-rule:evenodd;clip-rule:evenodd;fill:#3BC364;}
	.st21{fill-rule:evenodd;clip-rule:evenodd;fill:#24795B;}
	.st22{fill-rule:evenodd;clip-rule:evenodd;fill:#48CC31;}
	.st23{fill-rule:evenodd;clip-rule:evenodd;fill:#6AD434;}
	.st24{fill-rule:evenodd;clip-rule:evenodd;fill:#8BDC37;}
	.st25{fill-rule:evenodd;clip-rule:evenodd;fill:#AEE53A;}
	.st26{fill-rule:evenodd;clip-rule:evenodd;fill:#D0ED3D;}
	.st27{fill-rule:evenodd;clip-rule:evenodd;fill:#F2F540;}
	.st28{fill-rule:evenodd;clip-rule:evenodd;fill:#F5D630;}
	.st29{fill-rule:evenodd;clip-rule:evenodd;fill:#F8B621;}
	.st30{fill-rule:evenodd;clip-rule:evenodd;fill:#FA9711;}
	.st31{fill-rule:evenodd;clip-rule:evenodd;fill:#FD7801;}
	.st32{fill-rule:evenodd;clip-rule:evenodd;fill:#F9500E;}
	.st33{fill-rule:evenodd;clip-rule:evenodd;fill:#F6281C;}
	.st34{fill-rule:evenodd;clip-rule:evenodd;fill:#F20029;}
	.st35{fill:#002684;}
	.st36{fill:#F20029;}
	.st37{fill:#FFFFFF;}
	.st38{fill-rule:evenodd;clip-rule:evenodd;fill:#14A3FD;}
	.st39{fill-rule:evenodd;clip-rule:evenodd;fill:#3E3632;}
	.st40{fill:#282422;}
	.st41{fill:url(#SVGID_1_);}
	.st42{fill:url(#SVGID_00000045582067605352974110000001059788403186904224_);}
	.st43{fill:url(#SVGID_00000123403783399670454000000011158912425732470163_);}
	.st44{fill:url(#SVGID_00000127743226476264269910000014280203482024668815_);}
	.st45{fill:url(#SVGID_00000157287301284913143400000008134535609771507389_);}
	.st46{fill:url(#SVGID_00000111881183288371335580000001792789016827000209_);}
	.st47{fill:url(#SVGID_00000065757497215124642210000017986245678811220652_);}
	.st48{fill:url(#SVGID_00000114070723369915917170000009158294229783960235_);}
	.st49{fill:url(#SVGID_00000137834911371636647310000000513344962883836843_);}
	.st50{fill:url(#SVGID_00000174591684648747312280000006879178977283010962_);}
	.st51{fill:url(#SVGID_00000077312933278792823390000015471437779728516286_);}
	.st52{fill:url(#SVGID_00000009566379261959514930000000863102552683189388_);}
	.st53{fill:url(#SVGID_00000044870516220289773890000006926477744947282600_);}
	.st54{fill:url(#SVGID_00000019677765408463110350000005338996386119141809_);}
	.st55{fill:url(#SVGID_00000169557108478521969930000007431884646056628884_);}
	.st56{fill:url(#SVGID_00000142894178707477845690000001758646041698073263_);}
	.st57{fill:url(#SVGID_00000072247787669310400440000017074787968788311728_);}
	.st58{fill:url(#SVGID_00000046332167771077220200000015777056373249632423_);}
	.st59{fill:url(#SVGID_00000032609377455412542630000004305041882814007187_);}
	.st60{fill:url(#SVGID_00000150784071901850143750000004901604081906139782_);}
	.st61{fill:url(#SVGID_00000052070546000134424830000015043187507356057782_);}
	.st62{fill:url(#SVGID_00000098200903364843973200000013967558776691994497_);}
	.st63{fill:url(#SVGID_00000101064446041283914900000007581283880620131224_);}
	.st64{fill:url(#SVGID_00000072994747897170373040000006098196302247554184_);}
	.st65{fill:url(#SVGID_00000177451361091514356120000002324338320404366210_);}
	.st66{fill:url(#SVGID_00000079460575082450539100000014665242793826754467_);}
	.st67{fill:url(#SVGID_00000045599011608486595130000000317381986273589908_);}
	.st68{fill:url(#SVGID_00000034086926091267690480000010225408871220749478_);}
	.st69{fill:url(#SVGID_00000176009425922817660750000006311078968456321455_);}
	.st70{fill-rule:evenodd;clip-rule:evenodd;fill:#FFFFFF;}
	.st71{fill:url(#SVGID_00000080921675986653294210000006788358155734147759_);}
	.st72{fill:url(#SVGID_00000008839799740725777470000015440112680528530090_);}
	.st73{fill:url(#SVGID_00000037679871209720601530000011615070940918105011_);}
	.st74{fill:url(#SVGID_00000094609438225703263640000004555017110358139049_);}
	.st75{fill:url(#SVGID_00000109014528252834361210000006427879663288022661_);}
	.st76{fill:url(#SVGID_00000095326218850010570560000003701327273211476369_);}
	.st77{fill:url(#SVGID_00000091698229745514959950000010613689562380832131_);}
	.st78{fill:url(#SVGID_00000085220092639201172430000001668116269802205077_);}
	.st79{fill:url(#SVGID_00000021828293321991731040000001910908033373091515_);}
	.st80{fill:url(#SVGID_00000006696389690149799380000006439441858586967729_);}
	.st81{fill:url(#SVGID_00000121967779697807333570000017783051859406508730_);}
	.st82{fill:url(#SVGID_00000039112229931541749330000015467932952371581609_);}
	.st83{fill:url(#SVGID_00000169526986187084519960000013895612447638179252_);}
	.st84{fill:url(#SVGID_00000088097324268642619450000006750015159482942360_);}
	.st85{fill:url(#SVGID_00000153699921068682924420000009731890725970461373_);}
	.st86{fill:url(#SVGID_00000113350716668178936850000014132162657871389105_);}
	.st87{fill:url(#SVGID_00000162327302183068439450000004213820242578633881_);}
	.st88{fill:url(#SVGID_00000085961764840897733810000010812375729557139117_);}
	.st89{fill:url(#SVGID_00000062909412613793211710000018150269045347954871_);}
	.st90{fill:url(#SVGID_00000090296427139477133700000005409024208438483603_);}
	.st91{fill:url(#SVGID_00000155141214250042108590000010038771070566406537_);}
	.st92{fill:url(#SVGID_00000110460733037601273560000013079563790953198465_);}
	.st93{fill:url(#SVGID_00000052103245603077422140000007811900770009303735_);}
	.st94{fill:url(#SVGID_00000121264074850819308880000003642917168103799724_);}
	.st95{fill:url(#SVGID_00000176734495201472063260000001905128786334242202_);}
	.st96{fill:url(#SVGID_00000069381539618041865890000006319067456691481750_);}
	.st97{fill:url(#SVGID_00000116201952916873432720000017000257087238172341_);}
	.st98{fill:url(#SVGID_00000094579971705764702490000011313177042967717548_);}
	.st99{fill:url(#SVGID_00000165215016347424475610000013430228279829080732_);}
	.st100{fill:#0F2166;}
	.st101{fill:#FD2537;}
</style>
<g>
	<g>
		<g>
			<g>
				<g>
					<g>
						<g>
							<polygon class="st0" points="2431.2,52.2 2431.2,52.2 2431.2,295.3 2403.4,295.3 2403.4,52.2 							"/>
							<polygon class="st1" points="2492.8,52.2 2492.8,52.2 2492.8,295.3 2465,295.3 2465,52.2 							"/>
							<polygon class="st21" points="2554.5,52.2 2554.5,52.2 2554.5,295.3 2526.7,295.3 2526.7,52.2 							"/>
							<polygon class="st3" points="2616.1,52.2 2616.1,52.2 2616.1,295.3 2588.4,295.3 2588.4,52.2 							"/>
							<polygon class="st22" points="2677.8,52.2 2677.8,52.2 2677.8,295.3 2650,295.3 2650,52.2 							"/>
						</g>
					</g>
				</g>
				<g>
					<polygon class="st23" points="2739.5,52.2 2739.5,52.2 2739.5,295.3 2711.6,295.3 2711.6,52.2 					"/>
				</g>
				<g>
					<polygon class="st24" points="2801.1,52.2 2801.1,52.2 2801.1,295.3 2773.3,295.3 2773.3,52.2 					"/>
				</g>
				<g>
					<polygon class="st25" points="2862.8,52.2 2862.8,52.2 2862.8,295.3 2835,295.3 2835,52.2 					"/>
				</g>
				<g>
					<polygon class="st26" points="2924.4,52.2 2924.4,52.2 2924.4,295.3 2896.6,295.3 2896.6,52.2 					"/>
				</g>
			</g>
			<g>
				<g>
					<polygon class="st27" points="2986,52.2 2986,52.2 2986,295.3 2958.2,295.3 2958.2,52.2 					"/>
				</g>
				<g>
					<polygon class="st28" points="3047.7,52.2 3047.7,52.2 3047.7,295.3 3019.9,295.3 3019.9,52.2 					"/>
				</g>
				<g>
					<polygon class="st29" points="3109.4,52.2 3109.4,52.2 3109.4,295.3 3081.6,295.3 3081.6,52.2 					"/>
				</g>
				<g>
					<polygon class="st30" points="3171,52.2 3171,52.2 3171,295.3 3143.2,295.3 3143.2,52.2 					"/>
				</g>
			</g>
			<g>
				<g>
					<polygon class="st31" points="3232.7,52.2 3232.7,52.2 3232.7,295.3 3204.9,295.3 3204.9,52.2 					"/>
					<polygon class="st32" points="3294.3,52.2 3294.3,52.2 3294.3,295.3 3266.5,295.3 3266.5,52.2 					"/>
					<polygon class="st33" points="3356,52.2 3356,52.2 3356,295.3 3328.2,295.3 3328.2,52.2 					"/>
					<polygon class="st34" points="3417.6,52.2 3417.6,52.2 3417.6,295.3 3389.8,295.3 3389.8,52.2 					"/>
				</g>
			</g>
		</g>
		<g>
			<g>
				<path class="st37" d="M538.2,161.9c-2.2-20.5-24.3-20-39.8-20c-8.5,0-26.2,0.3-33,6.2c-6.5,5.6-6.5,20.3-6.5,28.1
					c0,7.6,0.3,17.7,6,23.4c6.8,6.8,25.7,7.3,34.4,7.3c6,0,11.7,0,17.7-0.8c12-1.7,19.1-5.3,21-18.6H587c-0.5,14.9-1.4,29.3-12,40.5
					c-11.2,12.1-28.4,14.6-43.9,15.5c-11.7,0.6-23.2,0.8-34.9,0.8c-21,0-51,0.6-69-12.4c-17.5-12.7-16.6-39.1-16.6-58.5
					c0-19.1-0.3-41.9,15.3-55.4c16.9-14.6,52.1-13.5,72.9-13.5c20.8,0,56.8-0.8,74,13.5c4.6,3.9,7.6,7.9,10.1,13.8
					c4.1,9.9,4.4,19.4,4.6,30.1H538.2z"/>
				<path class="st37" d="M784.3,197.8c-1.1,12.9-4.4,24.5-14.2,33.2c-16.6,14.9-55.9,13.2-76.4,13.2c-21.3,0-58.9,2-76.4-13.2
					c-4.9-4.2-7.9-8.7-10.4-14.6c-5.5-13.8-4.6-31.2-4.6-45.9c0-7.3,0-14.9,0.8-22.2c1.1-12.7,5.7-23.9,15.8-31.8
					c16.4-12.9,55.4-12.1,74.8-12.1c19.6,0,58.1-0.8,74.8,12.1c4.6,3.7,7.6,7.3,10.4,12.7c7.1,12.9,6.3,29.5,6.3,43.9
					C785.1,181.3,784.9,189.8,784.3,197.8z M730.8,149.3c-7.1-7-27.8-7.3-36.8-7.3c-8.7,0-17.7,0.3-26.2,2
					c-16.9,3.4-17.2,16.9-17.2,32.1c0,7.3-0.3,17.2,4.9,22.8c7.4,8.2,28.7,8.2,38.5,8.2c9.3,0,19.1,0,28.1-2.5
					c15-4.2,14.7-18.3,14.7-32.1C736.8,164.7,736.6,154.9,730.8,149.3z"/>
				<path class="st37" d="M1037.8,240.9v-62.2c0-28.7-3-36.9-32.7-36.9c-33.3,0-35.8,13.5-35.8,44.2v54.9h-48.3v-62.2v-9.3
					c0-24.2-10.1-27.6-31.9-27.6c-34.4,0-36.6,12.7-36.6,44.2v54.9h-48.3V107.9h45.5v20h2.2c9-20.5,33-23.4,52.4-23.4
					c24.6,0,46.1,4.2,58.7,27.9c9.8-24.8,32.7-27.9,55.9-27.9c18.8,0,39.8,2.3,53.5,17.2c4.6,5.1,8.2,10.4,10.1,17.2
					c3.8,12.9,3.5,26.7,3.5,40v62.1H1037.8z"/>
				<path class="st37" d="M1340.5,240.9v-62.2c0-28.7-3-36.9-32.7-36.9c-33.3,0-35.8,13.5-35.8,44.2v54.9h-48.3v-62.2v-9.3
					c0-24.2-10.1-27.6-31.9-27.6c-34.4,0-36.6,12.7-36.6,44.2v54.9h-48.3V107.9h45.6v20h2.2c9-20.5,33-23.4,52.4-23.4
					c24.6,0,46.1,4.2,58.7,27.9c9.8-24.8,32.7-27.9,55.9-27.9c18.8,0,39.8,2.3,53.5,17.2c4.6,5.1,8.2,10.4,10.1,17.2
					c3.8,12.9,3.5,26.7,3.5,40v62.1H1340.5z"/>
				<path class="st37" d="M1588.8,197.8c-1.1,12.9-4.4,24.5-14.2,33.2c-16.6,14.9-55.9,13.2-76.4,13.2c-21.3,0-58.9,2-76.4-13.2
					c-4.9-4.2-7.9-8.7-10.4-14.6c-5.5-13.8-4.6-31.2-4.6-45.9c0-7.3,0-14.9,0.8-22.2c1.1-12.7,5.7-23.9,15.8-31.8
					c16.4-12.9,55.4-12.1,74.8-12.1c19.6,0,58.1-0.8,74.8,12.1c4.6,3.7,7.6,7.3,10.4,12.7c7.1,12.9,6.3,29.5,6.3,43.9
					C1589.6,181.3,1589.3,189.8,1588.8,197.8z M1535.3,149.3c-7.1-7-27.8-7.3-36.8-7.3c-8.7,0-17.7,0.3-26.2,2
					c-16.9,3.4-17.2,16.9-17.2,32.1c0,7.3-0.3,17.2,4.9,22.8c7.4,8.2,28.7,8.2,38.5,8.2c9.3,0,19.1,0,28.1-2.5
					c15-4.2,14.7-18.3,14.7-32.1C1541.3,164.7,1541,154.9,1535.3,149.3z"/>
				<path class="st37" d="M1742.1,240.9v-17.4h-2.5c-3.3,5.6-5.7,9.3-11.2,12.7c-12,7.6-32.2,8.2-45.8,8.2
					c-19.9,0-46.9,0.3-62.8-14.1c-14.2-12.9-13.9-38.6-13.9-56.6c0-20.8,0.5-46.2,19.1-59.1c16.4-11.3,39.3-10.1,58.1-10.1
					c14.2,0,29.7-0.3,42.3,7.3c6.3,3.7,8.5,7.3,12,13.8h1.9V53.3h48.3v187.7H1742.1z M1737.2,154.3c-5.7-13.5-26.5-12.4-38.2-12.4
					c-12,0-36.3-1.4-42.3,12.7c-2.2,5.6-2.5,12.9-2.5,18.9c0,7.9-0.3,20,5.5,26.2c6.5,7.3,27.6,7.3,36.3,7.3
					c9.8,0,21.8-0.6,31.1-3.7c13.1-4.2,12.8-17.2,12.8-29.3C1739.9,167.8,1739.6,160.2,1737.2,154.3z"/>
				<path class="st37" d="M1988.8,197.8c-1.1,12.9-4.4,24.5-14.2,33.2c-16.6,14.9-55.9,13.2-76.4,13.2c-21.3,0-58.9,2-76.4-13.2
					c-4.9-4.2-7.9-8.7-10.4-14.6c-5.5-13.8-4.6-31.2-4.6-45.9c0-7.3,0-14.9,0.8-22.2c1.1-12.7,5.7-23.9,15.8-31.8
					c16.4-12.9,55.4-12.1,74.8-12.1c19.6,0,58.1-0.8,74.8,12.1c4.6,3.7,7.6,7.3,10.4,12.7c7.1,12.9,6.3,29.5,6.3,43.9
					C1989.6,181.3,1989.3,189.8,1988.8,197.8z M1935.3,149.3c-7.1-7-27.8-7.3-36.8-7.3c-8.7,0-17.7,0.3-26.2,2
					c-16.9,3.4-17.2,16.9-17.2,32.1c0,7.3-0.3,17.2,4.9,22.8c7.4,8.2,28.7,8.2,38.5,8.2c9.3,0,19.1,0,28.1-2.5
					c15-4.2,14.7-18.3,14.7-32.1C1941.3,164.7,1941,154.9,1935.3,149.3z"/>
				<path class="st37" d="M2158.2,167h-45.3c0-19.7-6.3-25-25.4-25c-29.7,0-30.6,19.4-30.6,43.9v55.1h-48.3V107.9h45.6v20h2.2
					c11.2-20.5,29.2-23.4,50.2-23.4c15,0,33,2,43.1,14.9c9,11.5,8.7,28.1,8.7,42.2C2158.5,163.3,2158.2,165.3,2158.2,167z"/>
				<path class="st37" d="M2343.8,185.3h-126.1c0,7.6-0.3,16.3,6,21.7c6.5,5.3,24.8,5.6,32.7,5.6c7.9,0,30,0.3,35.2-5.6
					c2.2-2.3,2.7-5.3,3.3-8.4h48c-1.1,12.7-3.5,22.5-12.8,31.2c-16.6,15.5-56.5,14.6-77.5,14.6c-19.1,0-51,0.3-66.9-12.4
					c-4.9-3.9-8.2-8.4-10.9-14.1c-6-12.9-5.5-29-5.5-42.8c0-8.4,0-16.9,0.8-25c1.4-13.5,5.7-25.6,16.6-33.8
					c16.9-12.7,50.8-11.8,70.7-11.8c18.3,0,38.2-0.6,55.9,4.8c28.7,8.7,30.6,35.7,30.6,62.5C2344.1,176.3,2344.1,180.8,2343.8,185.3
					z M2295.5,154.9c0-5.1-0.3-9-3.8-12.9c-5.7-6.5-25.4-6.5-33.3-6.5c-7.4,0-14.7,0-21.8,1.1c-13.6,2-18.6,7.3-18.8,21.4h77.8
					L2295.5,154.9L2295.5,154.9z"/>
			</g>
		</g>
		<g>
			<path class="st37" d="M79.1,173.7c0-50.8,40.1-92.1,89.3-92.1c15.8,0,30.7,4.3,43.5,11.7V5.9C198,2.1,183.5,0,168.4,0
				C75.4,0,0,77.7,0,173.7s75.4,173.7,168.4,173.7c15.1,0,29.7-2.1,43.5-5.9v-87.5c-12.9,7.5-27.7,11.7-43.5,11.7
				C119.2,265.6,79.1,224.3,79.1,173.7z"/>
			<polygon class="st37" points="211.9,167.3 291.3,167.3 358.6,97.9 211.9,97.9 			"/>
			<polygon class="st37" points="211.9,180 211.9,249.3 358.6,249.3 291.3,180 			"/>
		</g>
		<g>
			<path class="st37" d="M3461.3,295.3V52.4h75.3v242.9H3461.3z"/>
			<path class="st37" d="M3771.9,120.5c0-3.6-0.4-8.7-3.5-11.3c-3.2-2.5-8.1-2.9-11.7-3.3c-18.4-1.8-37.5-1.8-56.2-1.8
				c-17.3,0-36,0-53,3.3c-3.9,0.7-7.4,1.8-10.6,4.4c-8.1,6.6-7.4,24.8-7.4,34.3v9.5v4c4.2-4.4,8.5-8,13.8-10.9
				c19.8-11.7,59.4-10.6,81.6-10.6c24,0,53.4,0.4,76.3,8c8.5,2.9,15.5,6.9,21.9,13.5c14.1,14.2,14.5,41.5,14.5,60.5
				c0,34.6-5.7,65.6-43.1,73.2c-14.5,2.9-29.3,4-43.8,4.4c-21.2,0.4-42.1,0.7-63.3,0.7c-29.7,0-85.2,1.8-107.8-19.3
				c-16.3-14.9-17.3-44.1-18-64.9c-0.4-16-0.7-32.4-0.7-48.5c0-29.2-3.2-76.5,20.1-97.3c22.3-20,98.2-18.9,126.2-18.9
				c15.5,0,31.1,0,46.6,0.7c21.6,0.7,58,1.8,74.2,18.9c11.3,12,11,35.7,11,51.4C3839,120.5,3771.9,120.5,3771.9,120.5z
				 M3751.4,194.8c-19.1-2.9-39.6-2.2-59-2.2c-14.1,0-28.6-0.7-42.8,1.5c-13.8,2.2-19.1,10.9-19.1,24.8c0,6.2,1.4,14.2,5.7,19
				c7.1,7.7,47,5.8,56.2,5.8c12.4,0,24.4-0.4,36.8-0.7c8.8-0.4,26.9,0.7,33.9-6.2c4.2-4.4,4.9-12.4,4.9-18.2
				C3768,205,3765.1,196.9,3751.4,194.8z"/>
		</g>
	</g>
</g>
</svg>
