<?xml version="1.0" encoding="utf-8"?>
<!-- Generator: Adobe Illustrator 25.0.0, SVG Export Plug-In . SVG Version: 6.00 Build 0)  -->
<svg version="1.1" id="Layer_1" xmlns="http://www.w3.org/2000/svg" xmlns:xlink="http://www.w3.org/1999/xlink" x="0px" y="0px"
	 viewBox="0 0 3840 1574.5" style="enable-background:new 0 0 3840 1574.5;" xml:space="preserve">
<style type="text/css">
	.st0{fill:#FFFFFF;}
</style>
<g>
	<g>
		<path class="st0" d="M1039.7,631.9c-87.7,80.7-289.5,69.6-400.8,69.6H282.5v226.9H0V0h636c51.5,0,101.6,0,153.1,1.4
			c90.5,1.4,193.5,11.1,261.6,77.9c64,62.6,64,200.4,64,282.5C1114.8,449.5,1109.3,567.8,1039.7,631.9z M704.2,233.8
			c-22.3,0-45.9-1.4-68.2-1.4H282.5V469h420.3c108.6,0,128-19.5,128-126.7C830.9,240.8,794.7,235.2,704.2,233.8z"/>
		<path class="st0" d="M1192.7,928.3V0h1027.1v218.5h-748.8v135h711.2v203.2h-711.2v148.9h754.3v222.7H1192.7z"/>
		<path class="st0" d="M3050.7,236.6v691.7h-296.4V236.6h-413.4V0h1123.2v236.6H3050.7z"/>
	</g>
	<g>
		<path class="st0" d="M4.8,1568.6c0-12.6-1-25.7-1-38.3c0-26.2-0.5-52.3,3.9-78c8.7-53.8,55.2-60.6,101.8-64.4l122.1-9.7
			c15.5-1.5,32.5-1.5,47.5-6.8c14.1-4.8,14.1-13.1,14.1-26.6c0-9.2,0-19.4-8.2-25.2c-12.1-9.2-64.4-6.8-78.5-6.8
			c-29.6,0-61.5-1.5-91.1,3.4c-22.3,3.4-19.9,19.4-19.9,38.8v10.7H0v-13.1c0-26.7,0.5-63.5,20.4-84.3
			c22.3-23.3,71.7-24.2,101.3-25.7c20.8-1,41.7-1,62.5-1h9.2l80,0.5c31,0,70.7,0.5,94,24.2c17.9,18.4,17.9,55.2,17.9,79
			c0,24.2-0.5,49.9-14.1,71.2c-17.9,28.6-68.8,32.5-98.8,34.4c-23.3,1.5-46,2.9-69.3,4.4c-18.4,1-36.8,2.4-55.2,3.9
			c-8.2,0.5-29.1,1.9-36.8,4.8c-15.5,5.8-15.5,16.5-15.5,30.5h295.1v74.1H4.8z"/>
		<path class="st0" d="M741.4,1566.7c-38.8,6.3-91.1,5.8-130.3,5.8c-24.2,0-48-0.5-72.2-1c-53.3-1-115.3-2.9-127-67.4
			c-5.3-30-3.9-66.4-3.9-96.9c0-19.4,0-38.3,0.5-57.7c0.5-27.1,2.4-58.1,22.3-79c13.1-13.6,31.5-20.4,49.9-23.3
			c38.8-6.3,90.6-5.8,130.3-5.8c23.7,0,48,1,71.7,1.5c82.9,1.9,130.8,10.7,130.8,106.6v115.3C813.6,1518.7,800,1557,741.4,1566.7z
			 M694.4,1331.7c-11.1-4.8-27.6-5.3-39.7-5.3c-19.4,0-38.8-0.5-58.6-0.5c-19.9,0-41.7-0.5-61.1,3.9c-5.8,1.5-11.6,3.4-16,8.2
			c-13.1,13.6-12.1,51.8-12.1,69.3c0,16-1,53.8,10.2,66.9c4.8,5.8,10.7,8.2,17.9,10.2c20.8,4.8,55.2,4.8,77,4.4l42.6-1
			c12.1-0.5,28.6-0.5,39.7-5.8c24.2-10.7,20.8-53.3,20.8-74.6C715.2,1385.9,718.6,1342.8,694.4,1331.7z"/>
		<path class="st0" d="M1169.2,1566.7c-38.8,6.3-91.1,5.8-130.3,5.8c-24.2,0-48-0.5-72.2-1c-53.3-1-115.3-2.9-127-67.4
			c-5.3-30-3.9-66.4-3.9-96.9c0-19.4,0-38.3,0.5-57.7c0.5-27.1,2.4-58.1,22.3-79c13.1-13.6,31.5-20.4,49.9-23.3
			c38.8-6.3,90.6-5.8,130.3-5.8c23.7,0,48,1,71.7,1.5c82.9,1.9,130.8,10.7,130.8,106.6v115.3
			C1241.4,1518.7,1227.8,1557,1169.2,1566.7z M1122.2,1331.7c-11.1-4.8-27.6-5.3-39.7-5.3c-19.4,0-38.8-0.5-58.6-0.5
			c-19.9,0-41.7-0.5-61.1,3.9c-5.8,1.5-11.6,3.4-16,8.2c-13.1,13.6-12.1,51.8-12.1,69.3c0,16-1,53.8,10.2,66.9
			c4.8,5.8,10.7,8.2,17.9,10.2c20.8,4.8,55.2,4.8,77,4.4l42.6-1c12.1-0.5,28.6-0.5,39.7-5.8c24.2-10.7,20.8-53.3,20.8-74.6
			C1143.1,1385.9,1146.4,1342.8,1122.2,1331.7z"/>
		<path class="st0" d="M1422.2,1568.6v-238.9H1397l-95.5,80.4l-54.3-63.5l117.7-101.3h156v323.2H1422.2z"/>
		<path class="st0" d="M2033.2,1547.8c-23.3,25.2-74.1,24.2-105.6,24.7c-25.2,1-50.4,1-75.6,1c-42.2,0-93,1.5-134.2-7.8
			c-15.5-3.4-29.1-9.7-40.2-20.8c-16.5-16-18.4-36.8-18.4-58.6c0-8.2,0.5-16.5,1-24.7h95c0,7.3,0,14.1,2.4,20.8
			c1.5,4.4,3.4,7.3,7.3,10.2c9.2,7.3,36.8,6.3,47.5,6.3c14.1,0,27.6,0.5,41.7,0.5c17.4,0,34.4-0.5,51.8-0.5
			c12.1,0,42.6,1.5,50.9-10.2c3.4-5.3,3.4-12.6,3.4-18.4c0-24.7-19.4-23.7-39.2-24.2c-51.8-1.5-103.7-4.4-155.5-6.3
			c-28.1-1-64-1.9-84.3-24.7c-17-18.9-18.4-46-18.4-70.3c0-57.7,15-94,77-100.3c41.7-4.4,84.8-3.9,126.9-3.9
			c40.7,0,83.8-1,123.6,8.7c44.1,11.1,53.3,40.2,53.3,82.4v15.5h-95.5v-4.8c0-9.2-1-16-9.2-21.3c-9.2-6.3-31-5.8-41.7-5.8h-83.8
			c-10.2,0-38.8-0.5-47.5,5.8c-6.3,4.4-7.8,12.1-7.8,19.4c0,5.8,1.5,13.6,6.3,17.4c3.4,2.9,8.2,3.9,12.6,4.4
			c11.1,1.9,22.8,1.9,33.9,2.4c21.8,1,43.6,1.9,65.4,2.4c37.3,1,90.6,0.5,127,10.2c11.6,3.4,21.8,8.2,31,16.5
			c19.9,17.4,20.8,50.9,20.8,75.1C2055,1495.9,2052.5,1526.9,2033.2,1547.8z"/>
		<path class="st0" d="M2392.2,1472.7h-223.9c0,13.1-0.5,28.1,10.7,37.3c11.6,9.2,44.1,9.7,58.1,9.7c14.1,0,53.3,0.5,62.5-9.7
			c3.9-3.9,4.8-9.2,5.8-14.5h85.3c-1.9,21.8-6.3,38.8-22.8,53.8c-29.6,26.7-100.3,25.2-137.6,25.2c-33.9,0-90.6,0.5-118.7-21.3
			c-8.7-6.8-14.5-14.5-19.4-24.2c-10.7-22.3-9.7-49.9-9.7-73.7c0-14.5,0-29.1,1.5-43.1c2.4-23.3,10.2-44.1,29.6-58.1
			c30-21.8,90.1-20.4,125.5-20.4c32.5,0,67.8-1,99.3,8.2c50.9,15,54.3,61.5,54.3,107.6C2392.7,1457.1,2392.7,1464.9,2392.2,1472.7z
			 M2306.4,1420.3c0-8.7-0.5-15.5-6.8-22.3c-10.2-11.1-45.1-11.1-59.1-11.1c-13.1,0-26.2,0-38.8,1.9c-24.2,3.4-32.9,12.6-33.4,36.8
			h138.1V1420.3z"/>
		<path class="st0" d="M2686.8,1441.2h-80.4c0-33.9-11.1-43.1-45.1-43.1c-52.8,0-54.3,33.4-54.3,75.6v95h-85.8v-229.2h80.9v34.4h3.9
			c19.9-35.4,51.8-40.2,89.2-40.2c26.7,0,58.6,3.4,76.6,25.7c16,19.9,15.5,48.5,15.5,72.7
			C2687.3,1434.9,2686.8,1438.2,2686.8,1441.2z"/>
		<path class="st0" d="M2698.5,1309.8v-64.4h85.8v64.4H2698.5z M2698.5,1568.6v-229.2h85.8v229.2H2698.5z"/>
		<path class="st0" d="M3124.4,1472.7h-223.9c0,13.1-0.5,28.1,10.7,37.3c11.6,9.2,44.1,9.7,58.1,9.7c14.1,0,53.3,0.5,62.5-9.7
			c3.9-3.9,4.8-9.2,5.8-14.5h85.3c-1.9,21.8-6.3,38.8-22.8,53.8c-29.6,26.7-100.3,25.2-137.6,25.2c-33.9,0-90.6,0.5-118.7-21.3
			c-8.7-6.8-14.5-14.5-19.4-24.2c-10.7-22.3-9.7-49.9-9.7-73.7c0-14.5,0-29.1,1.5-43.1c2.4-23.3,10.2-44.1,29.6-58.1
			c30-21.8,90.1-20.4,125.5-20.4c32.5,0,67.8-1,99.3,8.2c50.9,15,54.3,61.5,54.3,107.6C3124.8,1457.1,3124.8,1464.9,3124.4,1472.7z
			 M3038.6,1420.3c0-8.7-0.5-15.5-6.8-22.3c-10.2-11.1-45.1-11.1-59.1-11.1c-13.1,0-26.2,0-38.8,1.9c-24.2,3.4-33,12.6-33.4,36.8
			h138.1V1420.3z"/>
		<path class="st0" d="M3446.1,1549.2c-26.7,26.7-110.5,25.2-144.9,25.2c-37.3,0-103.2,2.9-133.3-23.7
			c-16.5-14.5-19.9-33.9-20.4-55.2h87.2c1.9,20.8,23.3,23.3,39.7,24.7c10.7,1,21.3,1,32,1c15,0,55.7,1,67.4-9.7
			c3.4-2.9,4.8-7.3,4.8-11.6c0-18.9-26.7-17.9-39.7-17.9c-16,0-32-0.5-48-0.5c-16.5,0-33,0-49.4,0c-51.4,0-92.1-12.1-92.1-71.2
			c0-36.3,14.5-60.6,50.9-69.3c33.4-7.8,73.2-7.3,107.1-7.3c35.9,0,98.4-2.4,126.5,20.8c15,12.6,17,31.5,18.4,49.9h-87.2
			c-1-4.8-1.9-8.2-6.3-11.1c-9.2-6.3-43.6-6.3-54.3-6.3c-14.1,0-51.8-0.5-64,7.8c-3.4,2.9-5.3,6.3-5.3,10.7
			c0,12.6,10.2,14.5,20.4,15.5c21.8,1.9,47,1.5,68.8,1.5l48,0.5c53.8,0.5,91.6,10.7,91.6,71.7
			C3464,1513.8,3460.6,1534.7,3446.1,1549.2z"/>
	</g>
	<g>
		<path class="st0" d="M3548.5,0h113.9v21.3h-44.7v119.4H3593V21.3h-44.5V0z"/>
		<path class="st0" d="M3694,0h34.7l38.8,110.1h0.4L3805.7,0h34.3v140.6h-23.4V32.1h-0.4l-39,108.5h-20.3l-39-108.5h-0.4v108.5H3694
			V0z"/>
	</g>
</g>
</svg>
