<?xml version="1.0" encoding="utf-8"?>
<!-- Generator: Adobe Illustrator 25.0.0, SVG Export Plug-In . SVG Version: 6.00 Build 0)  -->
<svg version="1.1" id="Layer_1" xmlns="http://www.w3.org/2000/svg" xmlns:xlink="http://www.w3.org/1999/xlink" x="0px" y="0px"
	 viewBox="0 0 3840 629" style="enable-background:new 0 0 3840 629;" xml:space="preserve">
<style type="text/css">
	.st0{fill:#EC2224;}
	.st1{fill:#FFFFFF;}
	.st2{fill:url(#SVGID_1_);}
	.st3{fill:url(#SVGID_2_);}
	.st4{fill:url(#SVGID_3_);}
	.st5{fill:url(#SVGID_4_);}
	.st6{fill:url(#SVGID_5_);}
	.st7{fill:url(#SVGID_6_);}
	.st8{fill:url(#SVGID_7_);}
	.st9{fill:url(#SVGID_8_);}
	.st10{fill:url(#SVGID_9_);}
	.st11{fill:url(#SVGID_10_);}
	.st12{fill:url(#SVGID_11_);}
	.st13{fill:url(#SVGID_12_);}
	.st14{fill:url(#SVGID_13_);}
	.st15{fill:url(#SVGID_14_);}
	.st16{fill:url(#SVGID_15_);}
	.st17{fill:url(#SVGID_16_);}
	.st18{fill:url(#SVGID_17_);}
	.st19{fill:url(#SVGID_18_);}
	.st20{fill:url(#SVGID_19_);}
	.st21{fill:url(#SVGID_20_);}
	.st22{fill:url(#SVGID_21_);}
	.st23{fill:url(#SVGID_22_);}
	.st24{fill:url(#SVGID_23_);}
	.st25{fill:url(#SVGID_24_);}
	.st26{fill:url(#SVGID_25_);}
	.st27{fill:url(#SVGID_26_);}
	.st28{fill:url(#SVGID_27_);}
	.st29{fill:url(#SVGID_28_);}
	.st30{fill:url(#SVGID_29_);}
	.st31{fill:url(#SVGID_30_);}
	.st32{fill:url(#SVGID_31_);}
	.st33{fill:url(#SVGID_32_);}
	.st34{fill:url(#SVGID_33_);}
	.st35{fill:url(#SVGID_34_);}
	.st36{fill:url(#SVGID_35_);}
	.st37{fill:url(#SVGID_36_);}
	.st38{fill:url(#SVGID_37_);}
	.st39{fill:url(#SVGID_38_);}
</style>
<g>
	<path class="st1" d="M3743.4,629H96.6C43.2,629,0,585.7,0,532.4V96.6C0,43.2,43.2,0,96.6,0h3646.8c53.3,0,96.6,43.2,96.6,96.6
		v435.8C3840,585.7,3796.8,629,3743.4,629z"/>
	<g>
		<g>
			<path d="M3531.5,488.8v-28.3c0-21,15.3-30.1,34.2-30.1c18.8,0,34.2,9.1,34.2,30.1v28.3H3531.5z M3590,476.8v-11.8
				c0-18.8-10.7-22.8-24.4-22.8c-13.7,0-24.4,4-24.4,22.8v11.8H3590z"/>
			<path d="M3588.8,379.8c2.7,0,3.7-0.6,3.7-2.6c0-0.7,0-1.5-0.2-2.7h7.6c0.6,1.6,1.2,5.1,1.2,6.9c0,4.4-1.5,7.6-6,8.4
				c4.2,4.3,6,11.3,6,17.1c0,8.9-4.8,16.9-14.5,16.9c-12.3,0-14.3-9.9-15.4-19c-1.4-7.9-0.6-14.8-7-14.8c-5.6,0-6.7,5.8-6.7,10.2
				c0,6.1,2.5,10.4,7.8,10.9v10.9c-12.7-0.8-16.5-11.6-16.5-22.5c0-9.7,3.9-19.8,14.4-19.8H3588.8z M3575,390.7
				c2.2,3.3,2.1,8.6,3,13.4c0.8,4.7,2.5,8.9,8.2,8.9c4.9,0,6.3-6.2,6.3-10c0-4.8-2.5-12.2-9.4-12.2H3575z"/>
			<path d="M3550.3,373v-8.2h-14.8v-10.9h14.8V344h8.1v9.9h26.4c4.5,0,6.8-0.4,6.8-5.3c0-1.5,0-3.1-0.4-4.6h8.4
				c0.2,2.4,0.6,4.7,0.6,7.1c0,11.4-4.4,13.5-12.6,13.7h-29.2v8.2H3550.3z"/>
			<path d="M3588.8,294.7c2.7,0,3.7-0.6,3.7-2.6c0-0.7,0-1.5-0.2-2.7h7.6c0.6,1.6,1.2,5.1,1.2,6.9c0,4.4-1.5,7.6-6,8.4
				c4.2,4.3,6,11.3,6,17.1c0,8.9-4.8,16.9-14.5,16.9c-12.3,0-14.3-9.9-15.4-19c-1.4-7.8-0.6-14.8-7-14.8c-5.6,0-6.7,5.8-6.7,10.2
				c0,6.1,2.5,10.4,7.8,10.9V337c-12.7-0.8-16.5-11.6-16.5-22.5c0-9.7,3.9-19.8,14.4-19.8H3588.8z M3575,305.6
				c2.2,3.3,2.1,8.6,3,13.4c0.8,4.7,2.5,8.9,8.2,8.9c4.9,0,6.3-6.2,6.3-10c0-4.8-2.5-12.2-9.4-12.2H3575z"/>
			<path d="M3531.5,270.3v-12h58v-34.7h10.3v46.7H3531.5z"/>
			<path d="M3550.3,223.6v-8.2h-14.8v-10.9h14.8v-9.9h8.1v9.9h26.4c4.5,0,6.8-0.4,6.8-5.3c0-1.5,0-3.1-0.4-4.6h8.4
				c0.2,2.4,0.6,4.7,0.6,7.1c0,11.4-4.4,13.5-12.6,13.7h-29.2v8.2H3550.3z"/>
			<path d="M3599.8,140.2v10.3h-6.7v0.2c5.6,2.9,8,9.1,8,15.3c0,15.6-11.6,23.2-26.4,23.2c-17.9,0-25.7-10.6-25.7-21.4
				c0-6.2,2.3-13.1,7.7-16.5v-0.2h-25.3v-10.9H3599.8z M3592.5,164.6c0-9.8-8.9-13.9-17.5-13.9c-10.9,0-17.4,5.3-17.4,13.7
				c0,10.2,9.1,13.9,18,13.9C3584.1,178.3,3592.5,174.1,3592.5,164.6z"/>
		</g>
		<path d="M3586.9,132.1v-13.3h12.9v13.3H3586.9z"/>
	</g>
	<g>
		<g>
			<polygon class="st0" points="675.5,502.8 630.4,581 606.1,581 651.3,502.8 			"/>
			<path class="st0" d="M768.1,342.5l105.2-182.3c10.9-18.8,31-30.4,52.7-30.4h223.6l12.1-21h-153.3l-81.9,0
				c-29.5,0-56.9,15.9-71.7,41.4L815.1,219l-1.2,2.1l-70.1,121.5H768.1z"/>
			<g>
				<path class="st0" d="M1196.8,47.9l-188.4,0l0,0h-81.9c-51.3,0-98.7,27.4-124.4,71.8l-39.7,68.8l-1.2,2.1l-87.7,151.9h54.5
					l115-199.2c17.2-29.7,49.1-48.2,83.5-48.2h243L1196.8,47.9z"/>
				<path class="st0" d="M892.7,248.3h188.4l60.6-104.9H926c-16.9,0-32.4,9-40.9,23.6L783.8,342.5h54.5L892.7,248.3z"/>
				<polygon class="st0" points="745.8,502.8 700.6,581 646.1,581 691.3,502.8 				"/>
				<polygon class="st0" points="581,502.8 535.8,581 590.3,581 635.5,502.8 				"/>
			</g>
			<path class="st0" d="M350.4,248.3h128.8l-17.5,30.3C406.5,374.3,475.5,494,586.1,494h0l540.7,0l-50.3,87h54.5l36.6-63.4
				c8.4-14.6,8.4-32.6,0-47.2c-8.4-14.6-24-23.6-40.9-23.6H586.1c-34.8,0-66.1-18-83.5-48.2c-17.4-30.2-17.4-66.2,0-96.4l17.5-30.3
				c8.4-14.6,8.4-32.6,0-47.2c-8.4-14.6-24-23.6-40.9-23.6H323.2L350.4,248.3z"/>
			<path class="st0" d="M295.3,152.8h182.4c34.8,0,66.1,18,83.5,48.2c17.4,30.2,17.4,66.2,0,96.4l-17.5,30.3
				c-8.4,14.6-8.4,32.6,0,47.2c8.4,14.6,24,23.6,40.9,23.6l540.7,0c34.8,0,66.1,18,83.5,48.2c15.4,26.6,17.2,57.8,5.4,85.5
				l-28.2,48.9h55.4l8.3-14.4c55.3-95.7-13.8-215.4-124.4-215.4l-292,0H668.5l-83.9,0L602,321c55.3-95.7-13.8-215.4-124.4-215.4
				h-1.4L445,136.9l-31.3-31.3H268L295.3,152.8z"/>
			<g>
				<polygon class="st0" points="422.6,96.8 445,74.3 467.5,96.8 491.3,96.8 445,50.5 398.8,96.8 				"/>
			</g>
			<path class="st0" d="M283.7,201.2l-72-26.3l41.7-26.3l10.2,17.8h214.1c29.9,0,56.7,15.5,71.7,41.4c15,25.9,15,56.8,0,82.7
				l-17.5,30.3c-10.9,18.8-10.9,42,0,60.8c10.9,18.8,31,30.4,52.7,30.4l540.7,0c29.9,0,56.7,15.5,71.7,41.4s15,56.8,0,82.8
				l-25.9,44.8h-24.3l32.7-56.6c10.9-18.8,10.9-42,0-60.8c-10.9-18.8-31-30.4-52.7-30.4H750.9H586.1c-29.9,0-56.7-15.5-71.7-41.4
				c-15-25.9-15-56.8,0-82.8l17.5-30.3c10.9-18.8,10.9-42,0-60.8c-10.9-18.8-31-30.4-52.7-30.4H275.9L283.7,201.2z"/>
		</g>
		<g>
			<g>
				<linearGradient id="SVGID_1_" gradientUnits="userSpaceOnUse" x1="1343.5186" y1="314.4861" x2="3469.2485" y2="314.4861">
					<stop  offset="0.1596" style="stop-color:#EA2427"/>
					<stop  offset="0.5303" style="stop-color:#FFCC05"/>
					<stop  offset="0.7318" style="stop-color:#6DBD46"/>
					<stop  offset="1" style="stop-color:#46A2DA"/>
				</linearGradient>
				<path class="st2" d="M1519.8,140.2h-176.3v348.6h155.3c121.6,0,178.2-67.9,178.2-174.8C1677,226.1,1636,140.2,1519.8,140.2z
					 M1492.9,399.4h-42V229.5h34.2c77.6,0,84.5,61,84.5,83C1569.6,345.2,1559.8,399.4,1492.9,399.4z M1975.3,327.2
					c35.6-13.2,52.2-51.3,52.2-87.4c0-65.9-52.7-99.6-113.8-99.6h-204.6v348.6h107.4V367.2h57.1c42.5,0,45.4,34.7,48.3,67.9
					c1.5,18.1,3.4,36.1,8.8,53.7h107.4c-9.8-16.1-10.2-57.6-11.7-74.7C2022.7,370.6,2004.6,338.4,1975.3,327.2z M1872.8,292.5h-56.2
					v-69.3h50.3c41,0,53.2,12.7,53.2,34.7C1920.1,289.1,1892.8,292.5,1872.8,292.5z M2182.8,140.2l-128.4,348.6h107.9l15.6-49.8
					h110.8l14.7,49.8h111.3l-126.9-348.6H2182.8z M2201.3,364.3l33.7-107.4h1l31.3,107.4H2201.3z M2598.8,371.6h47.4
					c-5.4,25.9-30.8,38.6-55.7,38.6c-65.4,0-78.6-57.1-78.6-89.8c0-23.9-2.4-101.6,71.3-101.6c25.4,0,46.9,18.1,50.8,43.5h103
					c-15.6-82-71.8-130.4-160.6-130.4c-78.6,0-171.9,53.2-171.9,186c0,99.1,63.5,179.2,166.5,179.2c38.1,0,75.2-13.2,99.1-43.9
					l3.4,35.6h67.9V296.9h-142.6V371.6z M2946.8,131.9c-105.9,0-176.7,76.2-176.7,182.6c0,106.4,70.8,182.6,176.7,182.6
					c106,0,176.8-76.2,176.8-182.6C3123.6,208,3052.8,131.9,2946.8,131.9z M2946.8,410.2c-27.3,0-69.3-18.1-69.3-95.7
					c0-77.6,42-95.7,69.3-95.7c27.3,0,69.3,18.1,69.3,95.7C3016.2,392.1,2974.2,410.2,2946.8,410.2z M3367.7,140.2v186.5h-1
					l-101.6-186.5h-109.9v348.6h101.6V298.4h1l106.9,190.4h104.5V140.2H3367.7z"/>
			</g>
		</g>
	</g>
</g>
</svg>
