<?xml version="1.0" encoding="utf-8"?>
<!-- Generator: Adobe Illustrator 25.0.0, SVG Export Plug-In . SVG Version: 6.00 Build 0)  -->
<svg version="1.1" id="Layer_1" xmlns="http://www.w3.org/2000/svg" xmlns:xlink="http://www.w3.org/1999/xlink" x="0px" y="0px"
	 viewBox="0 0 3840 1363.8" style="enable-background:new 0 0 3840 1363.8;" xml:space="preserve">
<style type="text/css">
	.st0{fill:#EC2224;}
	.st1{fill:#FFFFFF;}
	.st2{fill:url(#SVGID_1_);}
	.st3{fill:url(#SVGID_2_);}
	.st4{fill:url(#SVGID_3_);}
	.st5{fill:url(#SVGID_4_);}
	.st6{fill:url(#SVGID_5_);}
	.st7{fill:url(#SVGID_6_);}
	.st8{fill:url(#SVGID_7_);}
	.st9{fill:url(#SVGID_8_);}
	.st10{fill:url(#SVGID_9_);}
	.st11{fill:url(#SVGID_10_);}
	.st12{fill:url(#SVGID_11_);}
	.st13{fill:url(#SVGID_12_);}
	.st14{fill:url(#SVGID_13_);}
	.st15{fill:url(#SVGID_14_);}
	.st16{fill:url(#SVGID_15_);}
	.st17{fill:url(#SVGID_16_);}
	.st18{fill:url(#SVGID_17_);}
	.st19{fill:url(#SVGID_18_);}
	.st20{fill:url(#SVGID_19_);}
	.st21{fill:url(#SVGID_20_);}
	.st22{fill:url(#SVGID_21_);}
	.st23{fill:url(#SVGID_22_);}
	.st24{fill:url(#SVGID_23_);}
	.st25{fill:url(#SVGID_24_);}
	.st26{fill:url(#SVGID_25_);}
	.st27{fill:url(#SVGID_26_);}
	.st28{fill:url(#SVGID_27_);}
	.st29{fill:url(#SVGID_28_);}
	.st30{fill:url(#SVGID_29_);}
	.st31{fill:url(#SVGID_30_);}
	.st32{fill:url(#SVGID_31_);}
	.st33{fill:url(#SVGID_32_);}
	.st34{fill:url(#SVGID_33_);}
	.st35{fill:url(#SVGID_34_);}
	.st36{fill:url(#SVGID_35_);}
	.st37{fill:url(#SVGID_36_);}
	.st38{fill:url(#SVGID_37_);}
	.st39{fill:url(#SVGID_38_);}
</style>
<g>
	<g>
		<g>
			<g>
				<linearGradient id="SVGID_1_" gradientUnits="userSpaceOnUse" x1="5.038938e-05" y1="332.8165" x2="3615.6489" y2="332.8165">
					<stop  offset="0.1596" style="stop-color:#EA2427"/>
					<stop  offset="0.5303" style="stop-color:#FFCC05"/>
					<stop  offset="0.7318" style="stop-color:#6DBD46"/>
					<stop  offset="1" style="stop-color:#46A2DA"/>
				</linearGradient>
				<path class="st2" d="M299.8,36.3H0v592.9h264.1c206.8,0,303.1-115.4,303.1-297.3C567.2,182.5,497.5,36.3,299.8,36.3z
					 M254.1,477.3h-71.4v-289h58.1c132,0,143.7,103.8,143.7,141.2C384.5,385.1,367.9,477.3,254.1,477.3z M1074.6,354.4
					c60.6-22.4,88.9-87.2,88.9-148.7c0-112.1-89.7-169.4-193.5-169.4H622v592.9h182.7V422.5h97.2c72.2,0,77.2,59,82.2,115.4
					c2.5,30.7,5.8,61.5,14.9,91.4h182.7c-16.6-27.4-17.4-98-19.9-127.1C1155.1,428.3,1124.4,373.5,1074.6,354.4z M900.2,295.4h-95.5
					V177.5h85.5c69.8,0,90.5,21.6,90.5,59C980.7,289.6,934.2,295.4,900.2,295.4z M1427.5,36.3l-218.4,592.9h183.5l26.6-84.7h188.5
					l24.9,84.7H1822L1606.1,36.3H1427.5z M1459.1,417.5l57.3-182.7h1.7l53.2,182.7H1459.1z M2135,430h80.5
					c-9.1,44-52.3,65.6-94.7,65.6c-111.3,0-133.7-97.2-133.7-152.8c0-40.7-4.2-172.7,121.2-172.7c43.2,0,79.7,30.7,86.4,73.9H2370
					C2343.5,104.4,2248,22.2,2096.8,22.2c-133.7,0-292.3,90.5-292.3,316.4c0,168.6,108,304.8,283.2,304.8
					c64.8,0,127.9-22.4,168.6-74.7l5.8,60.6h115.4V302.9H2135V430z M2727.1,22.2c-180.2,0-300.6,129.5-300.6,310.6
					s120.4,310.6,300.6,310.6c180.2,0,300.6-129.6,300.6-310.6S2907.3,22.2,2727.1,22.2z M2727.1,495.6
					c-46.5,0-117.9-30.7-117.9-162.8s71.4-162.8,117.9-162.8c46.5,0,117.9,30.7,117.9,162.8S2773.6,495.6,2727.1,495.6z
					 M3442.9,36.3v317.2h-1.7L3268.5,36.3h-186.8v592.9h172.7V305.4h1.7l181.9,323.9h177.7V36.3H3442.9z"/>
			</g>
		</g>
		<g>
			<polygon class="st0" points="514.5,1269.5 464.4,1356.3 437.5,1356.3 487.6,1269.5 			"/>
			<path class="st0" d="M617.1,1091.8l116.7-202.2c12.1-20.9,34.3-33.7,58.4-33.7h248l13.4-23.3h-170l-90.8,0
				c-32.7,0-63.1,17.6-79.5,45.9l-44.1,76.3L668,957l-77.8,134.7H617.1z"/>
			<g>
				<path class="st0" d="M1092.6,765l-209,0l0,0h-90.8c-56.9,0-109.5,30.4-137.9,79.6L610.9,921l-1.3,2.3l-97.3,168.4h60.5
					l127.6-220.9c19-33,54.5-53.4,92.6-53.4h269.6L1092.6,765z"/>
				<path class="st0" d="M755.4,987.3h209l67.2-116.3H792.3c-18.7,0-36,10-45.3,26.2l-112.4,194.6H695L755.4,987.3z"/>
				<polygon class="st0" points="592.4,1269.5 542.3,1356.3 481.8,1356.3 531.9,1269.5 				"/>
				<polygon class="st0" points="409.6,1269.5 359.5,1356.3 420,1356.3 470.1,1269.5 				"/>
			</g>
			<path class="st0" d="M153.9,987.3h142.9l-19.4,33.6c-61.3,106.2,15.3,238.9,137.9,238.9h0l599.7,0l-55.7,96.5h60.5l40.6-70.4
				c9.4-16.2,9.4-36.2,0-52.4c-9.4-16.2-26.6-26.2-45.3-26.2H415.3c-38.6,0-73.3-20-92.6-53.5c-19.3-33.5-19.3-73.4,0-106.9
				l19.4-33.6c9.4-16.2,9.4-36.2,0-52.4c-9.4-16.2-26.6-26.2-45.3-26.2H123.7L153.9,987.3z"/>
			<path class="st0" d="M92.7,881.4H295c38.6,0,73.3,20,92.6,53.5c19.3,33.5,19.3,73.4,0,106.9l-19.4,33.6
				c-9.4,16.2-9.4,36.2,0,52.4c9.4,16.2,26.6,26.2,45.3,26.2l599.7,0c38.6,0,73.3,20,92.6,53.5c17,29.5,19.1,64.1,6,94.8l-31.3,54.2
				h61.4l9.2-15.9c61.3-106.2-15.3-238.9-137.9-238.9l-323.9,0H506.6l-93.1,0l19.4-33.6C494.3,961.7,417.6,829,295,829h-1.5
				l-34.7,34.7L224.1,829H62.5L92.7,881.4z"/>
			<g>
				<polygon class="st0" points="233.9,819.3 258.8,794.3 283.8,819.3 310.2,819.3 258.8,767.9 207.5,819.3 				"/>
			</g>
			<path class="st0" d="M79.9,935L0,905.9l46.2-29.1l11.4,19.7H295c33.2,0,62.9,17.2,79.5,45.9c16.6,28.7,16.6,63,0,91.8l-19.4,33.6
				c-12.1,20.9-12.1,46.6,0,67.5c12.1,20.9,34.3,33.7,58.4,33.7l599.7,0c33.2,0,62.9,17.2,79.5,45.9c16.6,28.7,16.6,63,0,91.8
				l-28.7,49.7h-26.9l36.3-62.8c12.1-20.9,12.1-46.6,0-67.5c-12.1-20.9-34.3-33.7-58.4-33.7H598H415.3c-33.2,0-62.9-17.2-79.5-45.9
				c-16.6-28.7-16.6-63,0-91.8l19.4-33.6c12.1-20.9,12.1-46.6,0-67.5c-12.1-20.9-34.3-33.7-58.4-33.7H71.3L79.9,935z"/>
		</g>
	</g>
	<path class="st1" d="M1900.7,1015c-9.1-158.6,89.7-250,245-250c140.4,0,235.8,59,235.8,181.9c0,147.8-144.5,194.3-253.3,260.8v0.8
		h261.6v141.2h-500.8c-3.3-55.6,13.3-103.8,41.5-142.8c48.2-67.3,131.2-111.3,205.1-156.1c29.9-18.3,78.1-41.5,78.1-83.9
		c0-52.3-30.7-70.6-69.8-70.6c-66.4,0-88.9,48.2-87.2,118.8H1900.7z"/>
	<path class="st1" d="M1407.4,964.3c0.8-68.1,28.2-117.9,72.2-151.1c44-32.4,103.8-48.2,168.6-48.2c167.8,0,223.4,99.7,223.4,148.7
		c0,121.2-76.4,121.2-76.4,123.7v1.7c0,6.6,94.7,6.6,94.7,135.4c0,70.6-53.1,181.9-242.5,181.9c-259.9,0-260.8-182.7-256.6-225.9
		h157.8c-0.8,30.7,6.6,54,22.4,68.9c15.8,19.1,39.9,25.8,68.9,25.8c47.3,0,77.2-17.4,77.2-64.8c0-50.7-39-59.8-77.2-59.8
		c-24.1,0-35.7,2.5-48.2,4.2V991.8c12.5,0.8,25.8,3.3,48.2,3.3c34.9,0,78.9-7.5,78.9-52.3c0-36.5-41.5-50.7-75.6-50.7
		c-44.8,0-81.4,24.1-79.7,72.2H1407.4z"/>
	<path class="st1" d="M2692.7,742.6h126.2l-232.5,621.2h-126.2L2692.7,742.6z"/>
	<path class="st1" d="M3136.8,926.2c-3.3-10.8-11.6-22.4-24.1-31.6c-11.6-7.5-26.6-10-44.8-10c-63.1,0-94.7,61.5-100.5,118.8
		c39-35.7,81.4-44.8,133.7-44.8c111.3,0,193.5,71.4,193.5,184.4c0,142-99.7,213.4-237.5,213.4c-175.2,0-246.6-132.9-246.6-274.9
		c0-181.9,83.9-316.4,260.8-316.4c124.6,0,199.3,48.2,217.6,161.1H3136.8z M2978.2,1145.4c0,45.7,33.2,79.7,78.9,79.7
		c49.8,0,84.7-35.7,84.7-79.7c0-40.7-33.2-76.4-84.7-76.4C3012.3,1069,2978.2,1102.2,2978.2,1145.4z"/>
	<path class="st1" d="M3586.9,1235.1h-256.6v-156.1l264.1-307.3h165.3v322.2h78.1v141.2h-78.1v114.6h-172.7V1235.1z M3445.7,1093.9
		h141.2V932L3445.7,1093.9z"/>
	<g>
		<g>
			<g>
				<path class="st1" d="M3721.5,629.3v-48.2c0-35.8,26-51.3,58.1-51.3c32.1,0,58.1,15.5,58.1,51.3v48.2H3721.5z M3821.1,608.9v-20
					c0-31.9-18.2-38.7-41.5-38.7c-23.3,0-41.5,6.8-41.5,38.7v20H3821.1z"/>
				<path class="st1" d="M3819,443.9c4.6,0,6.4-1,6.4-4.4c0-1.1,0-2.6-0.3-4.6h12.9c1,2.8,2.1,8.6,2.1,11.7
					c0,7.5-2.6,12.9-10.3,14.3c7.2,7.3,10.3,19.2,10.3,29.1c0,15.1-8.1,28.8-24.6,28.8c-21,0-24.4-16.8-26.2-32.4
					c-2.4-13.4-1-25.2-11.9-25.2c-9.6,0-11.4,9.9-11.4,17.4c0,10.4,4.2,17.7,13.3,18.6v18.5c-21.6-1.3-28-19.7-28-38.2
					c0-16.4,6.7-33.7,24.4-33.7H3819z M3795.6,462.5c3.7,5.7,3.6,14.7,5,22.8c1.3,8,4.2,15.1,14,15.1c8.3,0,10.7-10.6,10.7-17.1
					c0-8.1-4.2-20.8-16-20.8H3795.6z"/>
				<path class="st1" d="M3753.6,432.3v-14h-25.2v-18.6h25.2V383h13.8v16.8h44.9c7.7,0,11.6-0.7,11.6-8.9c0-2.6,0-5.2-0.7-7.8h14.3
					c0.3,4.1,1,8,1,12c0,19.4-7.5,23-21.5,23.3h-49.6v14H3753.6z"/>
				<path class="st1" d="M3819,299.2c4.6,0,6.4-1,6.4-4.4c0-1.1,0-2.6-0.3-4.6h12.9c1,2.8,2.1,8.6,2.1,11.7
					c0,7.5-2.6,12.9-10.3,14.3c7.2,7.3,10.3,19.2,10.3,29.1c0,15.1-8.1,28.8-24.6,28.8c-21,0-24.4-16.8-26.2-32.4
					c-2.4-13.3-1-25.2-11.9-25.2c-9.6,0-11.4,9.9-11.4,17.4c0,10.4,4.2,17.7,13.3,18.5v18.6c-21.6-1.3-28-19.7-28-38.2
					c0-16.4,6.7-33.7,24.4-33.7H3819z M3795.6,317.8c3.7,5.7,3.6,14.6,5,22.8c1.3,8,4.2,15.1,14,15.1c8.3,0,10.7-10.6,10.7-17.1
					c0-8.1-4.2-20.8-16-20.8H3795.6z"/>
				<path class="st1" d="M3721.5,257.7v-20.3h98.6v-59.1h17.6v79.4H3721.5z"/>
				<path class="st1" d="M3753.6,178.3v-14h-25.2v-18.6h25.2v-16.8h13.8v16.8h44.9c7.7,0,11.6-0.7,11.6-8.9c0-2.6,0-5.2-0.7-7.8
					h14.3c0.3,4.1,1,8,1,12c0,19.4-7.5,23-21.5,23.3h-49.6v14H3753.6z"/>
				<path class="st1" d="M3837.7,36.3v17.6h-11.4v0.3c9.6,4.9,13.7,15.5,13.7,26c0,26.5-19.7,39.4-44.9,39.4
					c-30.4,0-43.8-18.1-43.8-36.5c0-10.6,3.9-22.3,13.2-28v-0.3h-43V36.3H3837.7z M3825.4,77.8c0-16.6-15.1-23.6-29.8-23.6
					c-18.5,0-29.6,8.9-29.6,23.3c0,17.4,15.5,23.6,30.6,23.6C3811,101.1,3825.4,94,3825.4,77.8z"/>
			</g>
			<path class="st1" d="M3815.7,22.6V0h22v22.6H3815.7z"/>
		</g>
	</g>
</g>
</svg>
