<?xml version="1.0" encoding="utf-8"?>
<!-- Generator: Adobe Illustrator 26.0.3, SVG Export Plug-In . SVG Version: 6.00 Build 0)  -->
<svg version="1.1" id="Layer_1" xmlns="http://www.w3.org/2000/svg" xmlns:xlink="http://www.w3.org/1999/xlink" x="0px" y="0px"
	 viewBox="0 0 3839 1412.4" style="enable-background:new 0 0 3839 1412.4;" xml:space="preserve">
<style type="text/css">
	.st0{fill:#FFFFFF;}
	.st1{fill:#FFFFFA;}
	.st2{fill:#FF0000;}
</style>
<g>
	<g>
		<rect x="14.8" y="14.8" width="3809.5" height="1382.9"/>
		<path class="st0" d="M3809.5,29.5v1353.4H29.5V29.5H3809.5 M3839,0h-29.5H29.5H0v29.5v1353.4v29.5h29.5h3779.9h29.5v-29.5V29.5V0
			H3839z"/>
	</g>
	<g>
		<polygon class="st0" points="1573.2,350.8 1414.6,350.8 1414.6,194.6 1593.5,194.6 		"/>
		<rect x="939.4" y="645.2" class="st0" width="316.3" height="156.2"/>
		<rect x="1118.5" y="420" class="st0" width="137.1" height="156.2"/>
		<path class="st0" d="M1118.5,576c-254.2,0-254.2-381.4,0-381.4c0,52.1,0,104.1,0,156.2c-46.1,0-46.1,69.2,0,69.2
			C1118.5,472,1118.5,524.1,1118.5,576z"/>
		<path class="st0" d="M1255.6,420c254.2,0,254.2,381.4,0,381.4c0-52.1,0-104.1,0-156.2c46.1,0,46.1-69.2,0-69.2
			C1255.6,524.1,1255.6,472,1255.6,420z"/>
		<polygon class="st0" points="2024.4,801.4 1593.5,194.6 1457.5,272.9 1832.9,801.4 		"/>
		<polygon class="st0" points="1388.6,801.4 1819.6,194.6 2011.1,194.6 1580.2,801.4 		"/>
		<rect x="1118.5" y="194.6" class="st0" width="323.6" height="156.2"/>
		<polygon class="st0" points="393.4,801.4 468,528.2 542.5,801.4 683.3,801.4 757.9,528.2 832.4,801.4 994.2,801.4 828.7,194.6 
			687,194.6 612.9,466.3 538.9,194.6 397.1,194.6 231.5,801.4 		"/>
	</g>
	<g>
		<path class="st0" d="M438.5,1144.1V892.5H312.7v271.8c0,29.6,24,53.5,53.5,53.5h57.7h14.6h116.7v-53.5h-96.4
			C447.6,1164.4,438.5,1155.3,438.5,1144.1z"/>
		<rect x="231.5" y="974.7" class="st0" width="323.6" height="53.5"/>
		<path class="st0" d="M814.3,974.7v189.6h-70.8V974.7H617.6v189.6c0,29.6,24,53.5,53.5,53.5H689h54.5h70.8H913h27.1v-243H814.3z"/>
		<path class="st0" d="M1261.4,974.7h-114.1h-45.1c-44.6,0-80.8,36.2-80.8,80.8v162.3h125.8v-189.6h114.1L1261.4,974.7L1261.4,974.7
			z"/>
		<path class="st0" d="M1437.1,974.7v-82.3h-125.8v325.3H1553c44.6,0,80.8-44.6,80.8-111.2v-20.8c0-66.5-36.2-111.2-80.8-111.2
			h-115.9V974.7z M1437.1,1164.4v-136.1h70.8v136.1H1437.1z"/>
		<path class="st0" d="M1943.7,974.7h-29.3h-86.5h-45.1c-44.6,0-80.8,44.6-80.8,111.2v20.8c0,66.5,36.2,111.2,80.8,111.2h15.9h115.7
			h29.3c44.6,0,80.8-44.6,80.8-111.2v-20.8C2024.4,1019.4,1988.3,974.7,1943.7,974.7z M1898.6,1164.4h-70.8v-136.1h70.8V1164.4z"/>
	</g>
	<rect x="2362.1" y="85.6" class="st0" width="1391.3" height="1241.4"/>
	<g>
		<rect x="2657.6" y="194.6" width="224" height="1023.1"/>
		<rect x="2748.1" y="194.7" width="429.3" height="224"/>
		<rect x="3177.5" y="374.1" width="224" height="215.7"/>
		<rect x="3233.9" y="813.8" width="224" height="404"/>
		<rect x="2764.9" y="589.8" width="412.6" height="224"/>
		<polygon points="3401.5,374 3177.4,194.6 3103.5,194.6 3146.9,395.7 3379.5,393.1 		"/>
		<polygon points="3177.4,589.7 3457.9,813.9 3093.4,813.9 		"/>
	</g>
</g>
</svg>
