<?xml version="1.0" encoding="utf-8"?>
<!-- Generator: Adobe Illustrator 27.0.0, SVG Export Plug-In . SVG Version: 6.00 Build 0)  -->
<svg version="1.1" id="Layer_1" xmlns="http://www.w3.org/2000/svg" xmlns:xlink="http://www.w3.org/1999/xlink" x="0px" y="0px"
	 viewBox="0 0 3839 659.25" style="enable-background:new 0 0 3839 659.25;" xml:space="preserve">
<style type="text/css">
	.st0{fill:#FFFFFF;}
	.st1{fill:#24F5EA;}
	.st2{fill:#DB0A15;}
</style>
<g>
	<rect x="1124.52" y="0" class="st0" width="2714.48" height="659.25"/>
	<rect y="0" class="st2" width="1124.52" height="659.25"/>
	<g>
		<path class="st0" d="M95.14,83.9h212.91c125.61,0,206.51,64.58,206.51,174.58v1.41c0,117.11-90.13,178.85-213.61,178.85h-68.13
			v141.94H95.14V83.9z M298.11,330.87c48.97,0,78.78-25.55,78.78-64.58v-1.41c0-42.58-29.81-65.29-79.49-65.29h-64.58v131.29H298.11
			z"/>
		<path class="st0" d="M535.13,333.71v-1.43c0-144.76,111.42-258.32,261.87-258.32c101.48,0,166.78,42.58,210.77,103.62
			l-103.61,80.19c-28.38-35.49-61.03-58.19-108.58-58.19c-69.55,0-118.52,58.9-118.52,131.29v1.41
			c0,74.52,48.97,132.72,118.52,132.72c51.81,0,82.33-24.13,112.13-60.33l103.61,73.81c-46.84,64.57-110,112.12-220,112.12
			C649.39,590.6,535.13,482.03,535.13,333.71z"/>
		<path d="M1208.61,333.71v-1.43c0-144.76,113.55-258.32,267.55-258.32c87.29,0,149.03,26.97,201.55,72.39l-80.91,97.23
			c-35.48-29.8-70.97-46.84-119.94-46.84c-71.68,0-127.03,60.33-127.03,136.26v1.41c0,80.19,56.07,137.68,134.84,137.68
			c33.35,0,58.9-7.1,79.48-20.58v-60.32h-97.94V290.42h228.52v223.54c-52.52,43.29-125.61,76.64-215.74,76.64
			C1324.28,590.6,1208.61,484.16,1208.61,333.71z"/>
		<path d="M1922.54,80.35h132.71l211.48,500.33h-147.61l-36.19-88.72h-191.61l-35.49,88.72h-144.78L1922.54,80.35z M2043.18,384.8
			l-55.35-141.23l-56.07,141.23H2043.18z"/>
		<path d="M2294.4,83.9h145.48l118.52,192.32L2676.92,83.9h145.48v496.78h-136.97v-285.3l-127.03,194.46h-2.84l-126.33-193.03
			v283.87H2294.4V83.9z"/>
		<path d="M2889.82,83.9h399.55v117.09h-263.29v75.23h238.45V384.8h-238.45v78.78h266.84v117.09h-403.1V83.9z"/>
		<path d="M3304.98,506.86l76.64-91.55c48.97,39.04,103.61,59.62,161.09,59.62c36.91,0,56.78-12.78,56.78-34.07v-1.41
			c0-20.58-16.32-31.94-83.74-47.55c-105.75-24.13-187.36-53.94-187.36-156.13v-1.43c0-92.25,73.1-158.96,192.32-158.96
			c84.45,0,150.45,22.71,204.39,66l-68.84,97.23c-45.42-31.94-95.09-48.97-139.1-48.97c-33.35,0-49.68,14.19-49.68,31.94v1.41
			c0,22.72,17.03,32.65,85.87,48.27c114.26,24.83,185.23,61.74,185.23,154.7v1.43c0,101.47-80.19,161.8-200.84,161.8
			C3449.75,589.19,3366.01,561.51,3304.98,506.86z"/>
	</g>
</g>
</svg>
