<?xml version="1.0" encoding="utf-8"?>
<!-- Generator: Adobe Illustrator 27.0.0, SVG Export Plug-In . SVG Version: 6.00 Build 0)  -->
<svg version="1.1" id="Layer_1" xmlns="http://www.w3.org/2000/svg" xmlns:xlink="http://www.w3.org/1999/xlink" x="0px" y="0px"
	 viewBox="0 0 2159 2159" style="enable-background:new 0 0 2159 2159;" xml:space="preserve">
<style type="text/css">
	.st0{fill:#FFFFFF;}
	.st1{fill:#24F5EA;}
	.st2{fill:#DB0A15;}
</style>
<g>
	<rect class="st0" width="2159" height="2159"/>
	<g>
		<g>
			<path d="M177.81,213.33h428.42c252.98,0,425.7,112.89,425.7,338.66v2.72c0,229.85-175.45,352.26-432.5,352.26H496.06v258.41
				H177.81V213.33z M581.75,679.83c81.6,0,136-36.72,136-104.73v-2.72c0-69.36-50.32-104.72-134.65-104.72h-87.05v212.17H581.75z"/>
			<path d="M1078.18,692.07v-2.72c0-284.26,221.69-496.43,505.95-496.43c209.45,0,350.9,102.01,431.15,247.53l-262.5,153.69
				c-35.36-68-85.68-115.6-172.73-115.6c-107.44,0-178.17,93.84-178.17,208.09v2.72c0,123.77,73.44,210.81,178.17,210.81
				c89.77,0,140.09-48.96,179.53-119.69l262.5,148.25c-80.25,141.45-213.53,257.06-450.19,257.06
				C1308.03,1185.78,1078.18,987.21,1078.18,692.07z"/>
		</g>
		<g>
			<path d="M149.86,1838.65v-1.01c0-105.75,83.48-184.68,195.3-184.68c60.72,0,109.79,20.24,148.24,53.63l-66.28,79.94
				c-23.27-19.73-49.08-30.86-78.43-30.86c-46.04,0-79.43,35.42-79.43,83.48v1.01c0,50.09,34.91,84.5,84.5,84.5
				c20.24,0,31.37-3.04,40.47-8.1v-35.41h-60.71v-75.89h171.52v163.93c-38.45,31.37-92.08,53.12-156.34,53.12
				C238.4,2022.31,149.86,1948.44,149.86,1838.65z"/>
			<path d="M662.91,1658.02h117.38l149.26,356.7H801.04l-18.72-47.56H658.36l-18.22,47.56H513.65L662.91,1658.02z M752.97,1883.17
				l-32.38-86.01l-32.38,86.01H752.97z"/>
			<path d="M944.22,1660.55h123.46l75.89,124.46l75.89-124.46h123.46v354.17h-117.89v-175.57l-81.46,125.98h-2.02l-81.46-125.98
				v175.57H944.22V1660.55z"/>
			<path d="M1383.41,1660.55h302.06v97.14h-185.69v35.92h173.04v85.51h-173.04v38.45h188.21v97.14h-304.58V1660.55z"/>
			<path d="M1690.53,1961.59l63.24-75.38c38.45,29.34,82.47,41.49,123.96,41.49c21.25,0,30.36-5.56,30.36-15.18v-1.01
				c0-10.12-11.14-15.69-49.08-23.27c-79.43-16.19-149.26-38.96-149.26-113.84v-1.01c0-67.3,52.62-119.41,150.27-119.41
				c68.3,0,118.9,16.19,159.88,48.57l-57.68,79.94c-33.4-24.29-73.37-34.91-106.25-34.91c-17.71,0-25.81,6.07-25.81,14.68v1.01
				c0,9.62,9.62,15.69,47.05,22.77c90.57,16.69,151.29,43.01,151.29,114.34v1.01c0,74.37-61.22,119.91-156.34,119.91
				C1800.32,2021.3,1735.56,2001.06,1690.53,1961.59z"/>
		</g>
		<rect x="157.76" y="1372.46" width="1864.3" height="95.42"/>
	</g>
</g>
</svg>
