<?xml version="1.0" encoding="utf-8"?>
<!-- Generator: Adobe Illustrator 25.4.1, SVG Export Plug-In . SVG Version: 6.00 Build 0)  -->
<svg version="1.1" id="Layer_1" xmlns="http://www.w3.org/2000/svg" xmlns:xlink="http://www.w3.org/1999/xlink" x="0px" y="0px"
	 viewBox="0 0 1919 426.9" style="enable-background:new 0 0 1919 426.9;" xml:space="preserve">
<style type="text/css">
	.st0{fill:#006CC4;}
	.st1{fill:#FF003D;}
	.st2{fill:#406AB1;}
</style>
<g>
	<g>
		<g>
			<path class="st0" d="M90.4,293.1c0,45.6,27,51.3,39.3,51.3c22.9,0,32-17.3,32-35.3c0-20.7-11.1-27.1-69.3-52.5
				C65.9,245.3,0.1,217.7,0.1,144c0-79.1,51.9-120.8,121-120.8c56.5,0,131.2,30.6,132.7,125.1H166c0-13.3-2.9-41.5-32.6-41.5
				c-16.8,0-33.2,12.2-33.2,30.8c0,18,5.9,22.8,73.7,54.7c70.4,32.9,91.8,74.8,91.8,112.5c0,62.6-35.1,122.1-135.1,122.1
				C55.4,426.9-2.5,370,0.1,293.1H90.4z"/>
		</g>
		<polygon class="st0" points="661.8,426.9 552.5,426.9 536.9,23.6 651.8,167 		"/>
		<polygon class="st0" points="392,426.9 282.6,426.9 267,23.6 376.4,23.6 		"/>
		<polygon class="st0" points="1152.1,426.9 1039.3,426.9 809.1,97.9 869.9,23.6 		"/>
		<polygon class="st0" points="898.1,406.6 799.5,426.9 574.3,105.1 536.9,23.6 630.2,23.6 		"/>
		<polygon class="st0" points="661.8,426.9 544.1,426.9 281.6,51.7 379.9,23.6 649.6,408.7 		"/>
		<rect x="310.6" y="286.9" class="st0" width="238.8" height="84"/>
		<polygon class="st0" points="898.9,426.9 799.5,426.9 788.5,400.7 773.9,23.6 869.9,23.6 885.7,86.2 		"/>
		<path class="st0" d="M1219.7,353.1c-9.4-16.8-15.1-46,11.4-89.4c27-44.1,54.9-53.4,73.6-53.4c9.5,0,16.3,2.4,19.5,3.8l133.6-190.7
			h-390.9h-86.4h-88L1117.7,345l0.8,1.9l56.5,79.9l2-2.8l46-65.6C1221.9,356.7,1220.7,355,1219.7,353.1z"/>
		<path class="st1" d="M1831.7,95.8c8,6.8,89.6-58.6,87.3-89.3C1916.4-28.1,1819.3,85.3,1831.7,95.8z"/>
		<path class="st1" d="M1903.3,193.7c-8.7-8.9-36.8,34.2-65.8,29.4c-15.2-2.5-13.7-17.3-12.4-23.6c0.3-1.6,1.7-2.9,3.4-3.3
			c29.8-6.2,82.6-64.5,64.7-85.3c-16.7-19.5-63.9,10.9-80.3,32.1c-19.6,25.3-37.9,60.3-52.8,78.3c-29.3,35.5-25.8,1.6-20.8-8.9
			c10.5-22.3,19.2-65.3,5.3-74.4c-12.1-7.9-30.6,15.3-36.9,24.4c-15.7,22.8-27.5,18-20.3-1.3c9.4-25,20.9-60.8,6.5-65.8
			c-19.7-6.8-42.6,63.8-49,87.6c-6,22.6-38.2,105-58.4,92.8c-13.1-8,0.6-44.4,6.6-57.6c13.7-29.7,17.1-43,7-47.1
			c-22.1-9-51.7,64-60.3,78.6c-14.8,25.3-42.2,56.4-43.5,26.1c-1.3-30.2,46.5-68.2,28-82.5c-18.4-14.3-49.5,49.5-49.5,49.5
			c-19.1,43.5-28.2,34.8-28.2,34.8c-2.7-45.9-21.1-73.2-43.4-73.2c-22.5,0-41.7,25-50.3,53.1c-3.9,18.7-20.3,54.2-54.1,74.4
			c-18.7,11.1-56.3,15.4-41.2-26.7c0,0,13-32.5,35.1-23.7c17.1,6.8,43.7-46,27.3-55.8c0,0-39-21-79,44.5
			c-42.4,69.4,2.7,101.3,26.4,101.1c28.1-0.3,67.1-47.1,72.7-55.1c3.9-5.5,9.5-11.5,12.1-4.5c10.8,29.7,30.5,36,44.8,35.5
			c21.7-0.6,30.7-22.7,40.6-34.5c9.1-10.8,35.5-40.1,36.1-20.9c0.8,28.9,40.9,44.5,55,13.9c12.9-28.2,25-24,27.1-11.7
			c4.5,26.9,21.2,21.8,21.2,21.8c25.1,0,53-52.2,62.9-73.9c8.4-18.5,13.6-9.2,12.5,6.2c-2.1,28.9-11.9,57-16.5,77.4
			c-5.4,23.7,3.6,58.9,20,58.9c11.8,0,15.7-64.4,14.2-82.6c0-20.1,23.5-15.7,40.2-17.1c27.1-2.3,44.9-25.8,68.8-59
			c1.3-1.8,4.2-1.4,4.9,0.7c10.1,31.2,29.8,33.1,43.3,30.9C1865.2,251.3,1908.9,199.4,1903.3,193.7z M1861.4,133.8
			c7.5,9.2-19.6,44.5-31.9,37.2C1819.9,165.3,1854.6,125.4,1861.4,133.8z M1405.9,317c-16.2,13.1-28.2,0.1-28.2-13.5
			c0.1-11.9-2.8-28.9,9.5-44.2c10.2-12.7,21-16.9,20.3-3c-0.4,8.3-2.1,15.8,4.9,29.7C1421.3,303.1,1417.6,307.5,1405.9,317z
			 M1712.8,225.5c-7.2,14.5-13,22.7-22.6,20.3c-6.5-1.6-6.2-15.2,0.2-30.1c7.8-18,18.9-31.2,25.1-28.5
			C1721.7,189.9,1722.7,205.7,1712.8,225.5z"/>
	</g>
</g>
<g>
	<line class="st2" x1="91.5" y1="-981.5" x2="444.7" y2="-981.5"/>
</g>
</svg>
