<?xml version="1.0" encoding="utf-8"?>
<!-- Generator: Adobe Illustrator 25.4.1, SVG Export Plug-In . SVG Version: 6.00 Build 0)  -->
<svg version="1.1" id="Layer_1" xmlns="http://www.w3.org/2000/svg" xmlns:xlink="http://www.w3.org/1999/xlink" x="0px" y="0px"
	 viewBox="0 0 3839 1027.5" style="enable-background:new 0 0 3839 1027.5;" xml:space="preserve">
<style type="text/css">
	.st0{fill:#FF0000;}
	.st1{fill:#FFFFFF;}
	.st2{fill:#034693;}
</style>
<g>
	<g>
		<g>
			<rect x="1179.9" y="772.9" class="st0" width="172.9" height="84.3"/>
			<path class="st1" d="M1347.7,777.9v74.4h-162.9v-74.4H1347.7 M1357.7,767.9h-9.9h-162.9h-9.9v9.9v74.4v9.9h9.9h162.9h9.9v-9.9
				v-74.4V767.9L1357.7,767.9z"/>
		</g>
		<g>
			<path class="st0" d="M1382.9,1022.5v-84.3h464V825.7h-251.2l139-138.9h-346.3v-84.3h549.9l-138.9,138.9h63.5c0.4,0,0.9,0,1.4,0
				c18.7,0,33.8,5.9,44.8,17.5c28,29.5,24.9,90.6,22.5,139.7c-1.1,21.4-2.1,41.5-0.3,54.9l0,0.3v0.3c0,37.7-30.7,68.4-68.4,68.4
				H1382.9z"/>
			<path class="st1" d="M1926.3,607.4l-138.9,138.9h75.5c0.5,0,0.9,0,1.4,0c93.3,0,54.5,152.6,62.1,207.8
				c0,35.1-28.4,63.5-63.5,63.5h-474.9v-74.4h464V820.7h-244.2l139-138.9h-353.4v-74.4H1926.3 M1950.3,597.5h-24h-532.9h-9.9v9.9
				v74.4v9.9h9.9h329.3l-122,122l-17,17h24h234.2v102.5h-454h-9.9v9.9v74.4v9.9h9.9h474.9c40.5,0,73.4-32.9,73.4-73.4v-0.7l-0.1-0.7
				c-1.8-12.9-0.8-32.8,0.3-53.9c1.2-24.4,2.6-52.1,0.3-77.2c-2.8-30.4-10.7-52-24.1-66.1c-12-12.6-28.3-19-48.4-19
				c-0.5,0-1,0-1.4,0h-51.4l122-122L1950.3,597.5L1950.3,597.5z"/>
		</g>
		<g>
			<path class="st0" d="M664.6,1022.5c-37.7,0-68.4-30.7-68.4-68.4c-0.3-39.9-0.9-75.5-1.4-107c-2.3-134.2-3.3-195.5,26.5-225.7
				c19.5-19.9,51.8-23.9,94.1-23.9c23.8,0,52.7,1.4,86.1,3c50.6,2.4,113.5,5.4,191.9,5.4c0,0,0,0,0,0c47.7,0,96.8-1.1,145.8-3.4
				l5.2-0.2v84.6H698.3v251.4h446.2v84.3H664.6z"/>
			<path class="st1" d="M715.4,602.4c58.9,0,146.9,8.4,278.1,8.4c43.7,0,92.2-0.9,146-3.4v74.4H693.3v261.4h446.2v74.4H664.6
				c-35.1,0-63.5-28.4-63.5-63.5C599.1,648.3,577.6,602.4,715.4,602.4 M715.4,592.5c-25.4,0-43.3,1.5-58,4.9
				c-16.9,3.9-29.9,10.6-39.6,20.5c-15.4,15.7-23.4,39.3-26.8,79c-3,36.1-2.2,84-1.1,150.3c0.5,31.4,1.1,67,1.4,106.9
				c0,40.5,32.9,73.4,73.4,73.4h474.9h9.9v-9.9v-74.4v-9.9h-9.9H703.3V691.8h436.2h9.9v-9.9v-74.4V597l-10.4,0.5
				c-48.9,2.3-97.9,3.4-145.6,3.4c-78.3,0-141.2-3-191.7-5.4C768.2,593.9,739.3,592.5,715.4,592.5L715.4,592.5z"/>
		</g>
		<g>
			<path class="st0" d="M2031,1022.5c-37.7,0-68.4-30.7-68.4-68.4V670.9c0-37.6,30.7-68.3,68.4-68.4h459.3
				c37.7,0,68.4,30.7,68.4,68.4v283.2c0,37.7-30.7,68.4-68.4,68.4H2031z M2456.6,938.2V686.8h-391.9v251.4H2456.6z"/>
			<path class="st1" d="M2490.3,607.4c35.1,0,63.5,28.4,63.5,63.5v283.2c0,35.1-28.4,63.5-63.5,63.5H2031
				c-35.1,0-63.5-28.4-63.5-63.5V670.9c0-35,28.4-63.4,63.5-63.5H2490.3 M2059.7,943.2h401.8V681.8h-401.8V943.2 M2490.3,597.5H2031
				c-40.5,0.1-73.4,33-73.4,73.4v283.2c0,40.5,32.9,73.4,73.4,73.4h459.3c40.5,0,73.4-32.9,73.4-73.4V670.9
				C2563.7,630.4,2530.8,597.5,2490.3,597.5L2490.3,597.5z M2069.7,691.8h381.9v241.5h-381.9V691.8L2069.7,691.8z"/>
		</g>
		<g>
			<path class="st0" d="M2668.7,1022.5c-37.7,0-68.4-30.7-68.4-68.4V670.9c0-37.6,30.7-68.3,68.4-68.4H3128
				c37.7,0,68.4,30.7,68.4,68.4v283.2c0,37.7-30.7,68.4-68.4,68.4H2668.7z M3094.3,938.2V686.8h-391.9v251.4H3094.3z"/>
			<path class="st1" d="M3128,607.4c35.1,0,63.5,28.4,63.5,63.5v283.2c0,35.1-28.4,63.5-63.5,63.5h-459.3
				c-35.1,0-63.5-28.4-63.5-63.5V670.9c0-35,28.3-63.4,63.5-63.5H3128 M2697.4,943.2h401.8V681.8h-401.8V943.2 M3128,597.5h-459.3
				c-19.7,0.1-38.1,7.7-51.9,21.5c-13.8,13.8-21.5,32.3-21.5,51.9v283.2c0,40.5,32.9,73.4,73.4,73.4H3128
				c40.5,0,73.4-32.9,73.4-73.4V670.9C3201.4,630.4,3168.5,597.5,3128,597.5L3128,597.5z M2707.4,691.8h381.9v241.5h-381.9V691.8
				L2707.4,691.8z"/>
		</g>
		<g>
			<path class="st0" d="M3306.3,1022.5c-37.7,0-68.4-30.7-68.4-68.4V670.9c0-37.6,30.7-68.3,68.4-68.4h459.3
				c37.7,0,68.4,30.7,68.4,68.4v283.2c0,37.7-30.7,68.4-68.4,68.4H3306.3z M3731.9,938.2V686.8H3340v251.4H3731.9z"/>
			<path class="st1" d="M3765.6,607.4c35.1,0,63.5,28.4,63.5,63.5v283.2c0,35.1-28.4,63.5-63.5,63.5h-459.3
				c-35.1,0-63.5-28.4-63.5-63.5V670.9c0-35,28.4-63.4,63.5-63.5H3765.6 M3335.1,943.2h401.8V681.8h-401.8V943.2 M3765.6,597.5
				h-459.3c-40.5,0.1-73.4,33-73.4,73.4v283.2c0,40.5,32.9,73.4,73.4,73.4h459.3c40.5,0,73.4-32.9,73.4-73.4V670.9
				C3839,630.4,3806.1,597.5,3765.6,597.5L3765.6,597.5z M3345,691.8h381.9v241.5H3345V691.8L3345,691.8z"/>
		</g>
		<g>
			<path class="st0" d="M6.3,1022.5v-84.3h446.1v-81l-378.5,0c-19.2,0-34.6-5.9-45.8-17.5C2,812.5,4.2,758.6,5.9,715.2
				c0.7-16.6,1.3-32.3,0.3-43.9l0-0.2v-0.2c0-37.7,30.7-68.4,68.4-68.4h479.9v84.3H108.3v86.1l378.5,0c19.3,0,34.7,5.9,45.9,17.4
				c25.8,26.9,23.8,79.6,22.2,122c-0.6,15.6-1.2,30.2-0.3,41.4l0,0.2v0.2c0,37.7-30.7,68.4-68.4,68.4H6.3z"/>
			<path class="st1" d="M549.5,607.4v74.4H103.3v96.1h382.8c0.2,0,0.4,0,0.6,0c86.8,0,58.5,122.7,62.8,176.2
				c0,35-28.4,63.5-63.5,63.5H11.3v-74.4h446.1v-90.9H74.6c-0.2,0-0.5,0-0.7,0c-88.1,0-57.8-127.5-62.7-181.4
				c0-35,28.4-63.5,63.5-63.5H549.5 M559.5,597.5h-9.9H74.6c-40.5,0-73.4,32.9-73.4,73.4v0.5l0,0.5c1,11.3,0.4,26.8-0.3,43.3
				c-0.9,21.6-1.9,46.1,0.5,68.4c2.9,27.1,10.5,46.7,23,59.8c12.1,12.6,28.7,19,49.3,19c0.3,0,0.5,0,0.8,0h372.7v71H11.3H1.3v9.9
				v74.4v9.9h9.9h474.9c40.5,0,73.4-32.9,73.4-73.4v-0.4l0-0.4c-0.9-10.9-0.3-25.4,0.3-40.8c1.7-43.3,3.8-97.2-23.6-125.6
				c-12.1-12.6-28.7-18.9-49.5-18.9l-0.6,0H113.3v-76.2h436.2h9.9v-9.9v-74.4V597.5L559.5,597.5z"/>
		</g>
	</g>
	<g>
		<g>
			<g>
				<g>
					<path class="st1" d="M2519.2,88c-16.1-51.3-64.5-88-120.3-88s-104.1,36.7-120.3,88l-42.5,126.1V7.3h-222.8
						c-39.6,0-76.3,16.1-104.1,42.5V7.3h-228.7c-42.5,0-80.7,17.6-108.5,46.9V7.3h-216.9c-92.4,0-168.6,76.3-168.6,168.6
						c0,44,17.6,85.1,45.5,114.4h-45.5v196.5h216.9c61.6,0,114.4-32.3,145.2-82.1c24.9,48.4,74.8,82.1,133.5,82.1h230.1v-42.5
						c26.4,26.4,63.1,42.5,104.1,42.5h636.3L2519.2,88z"/>
					<g>
						<g>
							<path class="st2" d="M1403.4,325.5h-183.3v57.2h183.3c35.2,0,64.5-29.3,64.5-64.5s-29.3-64.5-64.5-64.5h-46.9
								c-42.5,0-77.7-35.2-77.7-77.7s35.2-77.7,77.7-77.7h181.8V41.1H1355c-74.8,0-134.9,60.1-134.9,134.9s60.1,134.9,134.9,134.9
								h46.9c4.4,0,7.3,2.9,7.3,7.3C1409.2,322.5,1406.3,325.5,1403.4,325.5z"/>
							<path class="st2" d="M1355,170.1h183.3v-58.7H1355c-35.2,0-64.5,29.3-64.5,64.5s29.3,64.5,64.5,64.5h46.9
								c42.5,0,77.7,35.2,77.7,77.7s-35.2,77.7-77.7,77.7h-181.8v57.2h183.3c74.8,0,134.9-60.1,134.9-134.9s-60.1-134.9-134.9-134.9
								h-46.9c-4.4,0-7.3-2.9-7.3-7.3C1349.1,173,1352.1,170.1,1355,170.1z"/>
						</g>
						<g>
							<path class="st2" d="M2013.4,111.5c-24.9,0-44,19.1-44,44v183.3c0,24.9,19.1,44,44,44H2132V253.6h-90.9v57.2h33.7V324h-33.7
								c-7.3,0-13.2-5.9-13.2-13.2v-129c0-7.3,5.9-13.2,13.2-13.2h162.8v-57.2H2013.4z"/>
							<path class="st2" d="M2374,382.7h133.5l-90.9-269.7c-2.9-7.3-8.8-13.2-17.6-13.2c-7.3,0-14.7,5.9-17.6,11.7L2264,453.1h67.5
								l41.1-121.7v51.3H2374z M2397.5,259.5l19.1,58.7H2377L2397.5,259.5z"/>
							<path class="st2" d="M2486.9,101.2c-11.7-38.1-46.9-67.5-89.5-67.5s-77.7,27.9-88,66l-107.1,313.7V183.3h-161.3v57.2h105.6
								V396h-132c-32.3,0-57.2-26.4-57.2-57.2V155.4c0-32.3,26.4-57.2,57.2-57.2h189.2V41.1h-190.6c-63.1,0-114.4,51.3-114.4,114.4
								v183.3c0,63.1,51.3,114.4,114.4,114.4h236.1l118.8-344.5c4.4-13.2,16.1-22,30.8-22s26.4,8.8,30.8,22l96.8,287.3H2374v57.2
								h231.6l0,0L2486.9,101.2z"/>
						</g>
						<g>
							<path class="st2" d="M1680.6,395.9c-32.3,0-57.2-26.4-57.2-57.2V155.4c0-32.3,26.4-57.2,57.2-57.2h196.5V41.1h-196.5
								c-63.1,0-114.4,51.3-114.4,114.4v183.3c0,63.1,51.3,114.4,114.4,114.4h196.5V396L1680.6,395.9L1680.6,395.9z"/>
							<path class="st2" d="M1693.7,312.3H1836v-57.2h-199.4v85.1c0,24.9,19.1,44,44,44h196.5v-57.2h-170.1
								C1699.6,325.5,1693.7,319.6,1693.7,312.3z"/>
							<path class="st2" d="M1835.9,183.3h-142.2c0-7.3,5.9-13.2,13.2-13.2h168.6v-58.7h-195c-24.9,0-44,19.1-44,44v85.1h199.4
								V183.3z"/>
						</g>
					</g>
				</g>
			</g>
		</g>
	</g>
</g>
</svg>
