<?xml version="1.0" encoding="utf-8"?>
<!-- Generator: Adobe Illustrator 26.3.1, SVG Export Plug-In . SVG Version: 6.00 Build 0)  -->
<svg version="1.1" id="Layer_1" xmlns="http://www.w3.org/2000/svg" xmlns:xlink="http://www.w3.org/1999/xlink" x="0px" y="0px"
	 viewBox="0 0 3839 1313.5" style="enable-background:new 0 0 3839 1313.5;" xml:space="preserve">
<style type="text/css">
	.st0{fill:#DD1000;}
	.st1{fill:#FFFFFF;}
	.st2{font-family:'HelveticaNeueLTStd-Roman';}
	.st3{font-size:133.4309px;}
	.st4{letter-spacing:-2;}
</style>
<g>
	<g>
		<g>
			<polygon class="st0" points="2827.4,718 2654.3,287.3 2509.2,835.4 2585.4,835.4 2668.7,520.7 2827.4,915.5 2986.1,520.8 
				3069.4,835.4 3145.6,835.4 3000.5,287.3 			"/>
			<polygon class="st0" points="2827.4,672.4 3003.8,233.4 3163.2,835.4 3239.4,835.4 3018.2,0 2827.4,474.8 2636.6,0 2415.4,835.4 
				2491.6,835.4 2651,233.4 			"/>
		</g>
		<g>
			<path class="st0" d="M3182.8,1126.4C3182.8,1126.4,3182.8,1126.4,3182.8,1126.4l10.4-8.9L3182.8,1126.4z"/>
			<path class="st0" d="M3428.8,1222.9c168.9,0,306.4-137.4,306.4-306.4s-137.4-306.4-306.4-306.4c-47.5,0-93,10.6-135.3,31.4
				l-18.3,9l107-317.6h414.3l42.5-73.7h-509.7l-169.1,501.7l8.7,41.3l48.2,17.3c36.8-80.1,117.7-135.8,211.6-135.8h0
				c128.3,0,232.7,104.4,232.7,232.7c0,128.3-104.4,232.7-232.7,232.7c-68.2,0-132.7-29.8-177-81.7l-58.6,50l2.5-2.2
				C3254.1,1183.7,3339,1222.9,3428.8,1222.9z"/>
			<path class="st0" d="M3428.8,519.5c-4.6,0-9.2,0.1-13.8,0.2l32.4-96.1h296.9l42.5-73.7h-392.3l-90.4,268.1
				c39.4-16.5,81.3-24.9,124.7-24.9c178.3,0,323.3,145.1,323.3,323.4s-145,323.4-323.3,323.4c-94.8,0-184.4-41.4-246-113.5l-56,47.8
				c75.6,88.5,185.7,139.3,302,139.3c218.9,0,397-178.1,397-397S3647.7,519.5,3428.8,519.5z"/>
		</g>
	</g>
	<g>
		<g>
			<g>
				<rect y="472.4" class="st0" width="479.7" height="292.3"/>
				<path class="st1" d="M93.2,640.6h211.5v42.7H54.5v44.2h332c21.4,0,38.8-17.4,38.8-38.8v-53.4c0-21.4-17.4-38.8-38.8-38.8H175
					v-42.7h250.2v-44.2h-332c-21.4,0-38.8,17.4-38.8,38.8v53.4C54.5,623.2,71.8,640.6,93.2,640.6z"/>
			</g>
			<g>
				<rect x="1700.7" y="472.2" class="st0" width="479.7" height="292.3"/>
				<path class="st1" d="M1749.4,509.4v217.8h343.4c21.4,0,38.8-17.4,38.8-38.8V548.2c0-21.4-17.4-38.8-38.8-38.8H1749.4z
					 M1983.7,683H1870V553.6h113.7c15.1,0,27.3,12.2,27.3,27.3v74.8C2011,670.8,1998.8,683,1983.7,683z"/>
			</g>
			<g>
				<rect x="566.9" y="472.2" class="st0" width="479.7" height="292.3"/>
				<path class="st1" d="M615.7,548.2v140.2c0,21.4,17.4,38.8,38.8,38.8h304.6c21.4,0,38.8-17.4,38.8-38.8V548.2
					c0-21.4-17.4-38.8-38.8-38.8H654.4C633,509.4,615.7,526.8,615.7,548.2z M855.9,683h-98.4c-11.8,0-21.3-9.5-21.3-21.3v-86.8
					c0-11.8,9.5-21.3,21.3-21.3h98.4c11.8,0,21.3,9.5,21.3,21.3v86.8C877.3,673.5,867.7,683,855.9,683z"/>
			</g>
			<g>
				<rect x="1133.8" y="472.2" class="st0" width="479.7" height="292.3"/>
				<path class="st1" d="M1573.2,727.2l-14-21.8l-41.7-65c21.4,0,38.8-17.4,38.8-38.8v-53.4c0-21.4-17.4-38.8-38.8-38.8h-343.4
					v217.8h120.6v-86.8h94.4l40.1,86.8H1573.2z M1294.7,596.2v-42.7h119.7c11.8,0,21.3,9.5,21.3,21.3s-9.5,21.3-21.3,21.3H1294.7z"
					/>
			</g>
		</g>
		<g>
			<text transform="matrix(1 0 0 1 559.1919 937.8015)" class="st1 st2 st3 st4">Creative Computer</text>
		</g>
	</g>
</g>
</svg>
