<?xml version="1.0" encoding="utf-8"?>
<!-- Generator: Adobe Illustrator 25.0.0, SVG Export Plug-In . SVG Version: 6.00 Build 0)  -->
<svg version="1.1" id="Layer_1" xmlns="http://www.w3.org/2000/svg" xmlns:xlink="http://www.w3.org/1999/xlink" x="0px" y="0px"
	 viewBox="0 0 3840 404" style="enable-background:new 0 0 3840 404;" xml:space="preserve">
<style type="text/css">
	.st0{fill:url(#SVGID_1_);}
	.st1{fill:url(#SVGID_2_);}
	.st2{fill:url(#SVGID_3_);}
	.st3{fill:url(#SVGID_4_);}
	.st4{fill:url(#SVGID_5_);}
	.st5{fill:url(#SVGID_6_);}
	.st6{fill:url(#SVGID_7_);}
	.st7{fill:url(#SVGID_8_);}
	.st8{fill:url(#SVGID_9_);}
	.st9{fill:url(#SVGID_10_);}
	.st10{fill:#DD243C;}
	.st11{fill:#1AAA4B;}
	.st12{fill:#1094D2;}
	.st13{fill:url(#SVGID_11_);}
	.st14{fill:url(#SVGID_12_);}
	.st15{fill:url(#SVGID_13_);}
	.st16{fill:url(#SVGID_14_);}
	.st17{fill:url(#SVGID_15_);}
	.st18{fill:url(#SVGID_16_);}
	.st19{fill:url(#SVGID_17_);}
	.st20{fill:url(#SVGID_18_);}
	.st21{fill:url(#SVGID_19_);}
	.st22{fill:url(#SVGID_20_);}
	.st23{fill:url(#SVGID_21_);}
	.st24{fill:url(#SVGID_22_);}
	.st25{fill:url(#SVGID_23_);}
	.st26{fill:url(#SVGID_24_);}
	.st27{fill:url(#SVGID_25_);}
	.st28{fill:url(#SVGID_26_);}
	.st29{fill:url(#SVGID_27_);}
	.st30{fill:url(#SVGID_28_);}
	.st31{fill:url(#SVGID_29_);}
	.st32{fill:url(#SVGID_30_);}
	.st33{fill:url(#SVGID_31_);}
	.st34{fill:url(#SVGID_32_);}
	.st35{fill:url(#SVGID_33_);}
	.st36{fill:url(#SVGID_34_);}
	.st37{fill:url(#SVGID_35_);}
	.st38{fill:url(#SVGID_36_);}
	.st39{fill:url(#SVGID_37_);}
	.st40{fill:url(#SVGID_38_);}
	.st41{fill:url(#SVGID_39_);}
	.st42{fill:url(#SVGID_40_);}
	.st43{fill:#FFFFFF;}
	.st44{fill:url(#SVGID_41_);}
	.st45{fill:url(#SVGID_42_);}
	.st46{fill:url(#SVGID_43_);}
	.st47{fill:url(#SVGID_44_);}
	.st48{fill:url(#SVGID_45_);}
	.st49{fill:url(#SVGID_46_);}
	.st50{fill:url(#SVGID_47_);}
	.st51{fill:url(#SVGID_48_);}
	.st52{fill:url(#SVGID_49_);}
	.st53{fill:url(#SVGID_50_);}
	.st54{fill:url(#SVGID_51_);}
	.st55{fill:url(#SVGID_52_);}
	.st56{fill:url(#SVGID_53_);}
	.st57{fill:url(#SVGID_54_);}
	.st58{fill:url(#SVGID_55_);}
	.st59{fill:url(#SVGID_56_);}
	.st60{fill:url(#SVGID_57_);}
	.st61{fill:url(#SVGID_58_);}
	.st62{fill:url(#SVGID_59_);}
	.st63{fill:url(#SVGID_60_);}
	.st64{fill:url(#SVGID_61_);}
	.st65{fill:url(#SVGID_62_);}
	.st66{fill:url(#SVGID_63_);}
	.st67{fill:url(#SVGID_64_);}
	.st68{fill:url(#SVGID_65_);}
	.st69{fill:url(#SVGID_66_);}
	.st70{fill:url(#SVGID_67_);}
	.st71{fill:url(#SVGID_68_);}
	.st72{fill:url(#SVGID_69_);}
	.st73{fill:url(#SVGID_70_);}
	.st74{fill:url(#SVGID_71_);}
	.st75{fill:url(#SVGID_72_);}
	.st76{fill:url(#SVGID_73_);}
	.st77{fill:url(#SVGID_74_);}
	.st78{fill:url(#SVGID_75_);}
	.st79{fill:url(#SVGID_76_);}
	.st80{fill:url(#SVGID_77_);}
	.st81{fill:url(#SVGID_78_);}
	.st82{fill:url(#SVGID_79_);}
	.st83{fill:url(#SVGID_80_);}
	.st84{fill:url(#SVGID_81_);}
	.st85{fill:url(#SVGID_82_);}
	.st86{fill:url(#SVGID_83_);}
	.st87{fill:url(#SVGID_84_);}
	.st88{fill:url(#SVGID_85_);}
	.st89{fill:url(#SVGID_86_);}
	.st90{fill:url(#SVGID_87_);}
	.st91{fill:url(#SVGID_88_);}
	.st92{fill:url(#SVGID_89_);}
	.st93{fill:url(#SVGID_90_);}
	.st94{fill:url(#SVGID_91_);}
	.st95{fill:url(#SVGID_92_);}
	.st96{fill:url(#SVGID_93_);}
	.st97{fill:url(#SVGID_94_);}
	.st98{fill:url(#SVGID_95_);}
	.st99{fill:url(#SVGID_96_);}
	.st100{fill:url(#SVGID_97_);}
	.st101{fill:url(#SVGID_98_);}
	.st102{fill:url(#SVGID_99_);}
	.st103{fill:url(#SVGID_100_);}
	.st104{fill:url(#SVGID_101_);}
	.st105{fill:url(#SVGID_102_);}
	.st106{fill:url(#SVGID_103_);}
	.st107{fill:url(#SVGID_104_);}
	.st108{fill:url(#SVGID_105_);}
	.st109{fill:url(#SVGID_106_);}
	.st110{fill:url(#SVGID_107_);}
	.st111{fill:url(#SVGID_108_);}
	.st112{fill:url(#SVGID_109_);}
	.st113{fill:url(#SVGID_110_);}
	.st114{fill:url(#SVGID_111_);}
	.st115{fill:url(#SVGID_112_);}
	.st116{fill:url(#SVGID_113_);}
	.st117{fill:url(#SVGID_114_);}
	.st118{fill:url(#SVGID_115_);}
	.st119{fill:url(#SVGID_116_);}
	.st120{fill:url(#SVGID_117_);}
	.st121{fill:url(#SVGID_118_);}
	.st122{fill:url(#SVGID_119_);}
	.st123{fill:url(#SVGID_120_);}
</style>
<g>
	<g>
		<path class="st43" d="M2389.3,404H43.6C19.5,404,0,384.5,0,360.4V43.6C0,19.5,19.5,0,43.6,0h2345.7c24.1,0,43.6,19.5,43.6,43.6
			v316.7C2433,384.5,2413.5,404,2389.3,404z"/>
		<g>
			<linearGradient id="SVGID_1_" gradientUnits="userSpaceOnUse" x1="909.4998" y1="316.6928" x2="909.4998" y2="133.5766">
				<stop  offset="0" style="stop-color:#000000"/>
				<stop  offset="1" style="stop-color:#5A5855"/>
				<stop  offset="1" style="stop-color:#FFFFFF"/>
			</linearGradient>
			<rect x="873" y="133.6" class="st0" width="73" height="183.1"/>
			<linearGradient id="SVGID_2_" gradientUnits="userSpaceOnUse" x1="1295.1185" y1="316.6927" x2="1295.1185" y2="80.1677">
				<stop  offset="0" style="stop-color:#000000"/>
				<stop  offset="1" style="stop-color:#5A5855"/>
				<stop  offset="1" style="stop-color:#FFFFFF"/>
			</linearGradient>
			<path class="st1" d="M1258.6,160.1v58.7c0,13.8-11.2,25-25,25h-20.2v73h38.1c44.2,0,80-35.8,80-80v-58.7c0-13.8,11.2-25,25-25
				h20.2v-73h-38.1C1294.4,80.2,1258.6,116,1258.6,160.1z"/>
			<linearGradient id="SVGID_3_" gradientUnits="userSpaceOnUse" x1="1466.0016" y1="316.6927" x2="1466.0016" y2="80.1677">
				<stop  offset="0" style="stop-color:#000000"/>
				<stop  offset="1" style="stop-color:#5A5855"/>
				<stop  offset="1" style="stop-color:#FFFFFF"/>
			</linearGradient>
			<path class="st2" d="M1456.2,133.6V80.2h-73v236.5h73V201.2c0-5.4,4.4-9.8,9.8-9.8l0,0c5.4,0,9.8,4.4,9.8,9.8v115.5h73V185.8
				c0-28.9-23.4-52.3-52.3-52.3H1456.2z"/>
			<linearGradient id="SVGID_4_" gradientUnits="userSpaceOnUse" x1="2030.5834" y1="316.6927" x2="2030.5834" y2="80.1677">
				<stop  offset="0" style="stop-color:#000000"/>
				<stop  offset="1" style="stop-color:#5A5855"/>
				<stop  offset="1" style="stop-color:#FFFFFF"/>
			</linearGradient>
			<path class="st3" d="M2116.6,316.7L2076.4,211l35.6-54.4h-77l-32.5,49.7l0,0V80.2h-57.9v236.5h57.9v-49.8c0-9.2,12.8-11.6,16.1-3
				l20.1,52.7H2116.6z"/>
			<linearGradient id="SVGID_5_" gradientUnits="userSpaceOnUse" x1="760.7137" y1="316.6927" x2="760.7137" y2="80.1677">
				<stop  offset="0" style="stop-color:#000000"/>
				<stop  offset="1" style="stop-color:#5A5855"/>
				<stop  offset="1" style="stop-color:#FFFFFF"/>
			</linearGradient>
			<path class="st4" d="M786.9,80.2v53.4h-27.3c-50.6,0-91.6,41-91.6,91.6s41,91.6,91.6,91.6h27.3h27.3h39.3V80.2H786.9z
				 M760.7,281.2c-16.1,0-29.2-13.1-29.2-29.2s13.1-29.2,29.2-29.2s29.2,13.1,29.2,29.2S776.8,281.2,760.7,281.2z"/>
			<linearGradient id="SVGID_6_" gradientUnits="userSpaceOnUse" x1="573.1906" y1="316.6927" x2="573.1906" y2="133.5766">
				<stop  offset="0" style="stop-color:#000000"/>
				<stop  offset="1" style="stop-color:#5A5855"/>
				<stop  offset="1" style="stop-color:#FFFFFF"/>
			</linearGradient>
			<path class="st5" d="M605.2,133.6h-96.5v57.9h58.1c4.2,0,7.6,3.4,7.6,7.6v0c0,4.2-3.4,7.6-7.6,7.6h-21.7
				c-30,0-55.4,23.5-56.2,53.5c-0.9,31.1,24.1,56.6,55.1,56.6h30.4h10.2h53.4h9.4h10.2V185.8C657.5,157,634.1,133.6,605.2,133.6z
				 M565.9,281.2c-16.1,0-29.2-13.1-29.2-29.2s13.1-29.2,29.2-29.2s29.2,13.1,29.2,29.2S582,281.2,565.9,281.2z"/>
			<linearGradient id="SVGID_7_" gradientUnits="userSpaceOnUse" x1="1643.6339" y1="316.6927" x2="1643.6339" y2="133.5766">
				<stop  offset="0" style="stop-color:#000000"/>
				<stop  offset="1" style="stop-color:#5A5855"/>
				<stop  offset="1" style="stop-color:#FFFFFF"/>
			</linearGradient>
			<path class="st6" d="M1675.7,133.6h-96.5v57.9h58.1c4.2,0,7.6,3.4,7.6,7.6v0c0,4.2-3.4,7.6-7.6,7.6h-21.7
				c-30,0-55.4,23.5-56.2,53.5c-0.9,31.1,24.1,56.6,55.1,56.6h30.4h10.2h53.4h9.4h10.2V185.8C1727.9,157,1704.5,133.6,1675.7,133.6z
				 M1636.4,281.2c-16.1,0-29.2-13.1-29.2-29.2s13.1-29.2,29.2-29.2c16.1,0,29.2,13.1,29.2,29.2S1652.5,281.2,1636.4,281.2z"/>
			<linearGradient id="SVGID_8_" gradientUnits="userSpaceOnUse" x1="405.4272" y1="316.6927" x2="405.4272" y2="80.1677">
				<stop  offset="0" style="stop-color:#000000"/>
				<stop  offset="1" style="stop-color:#5A5855"/>
				<stop  offset="1" style="stop-color:#FFFFFF"/>
			</linearGradient>
			<path class="st7" d="M447.4,216.3c27.1-9.7,46.6-35.6,46.6-66c0-38.7-31.4-70.1-70.1-70.1c-1.4,0-107.5,0-107.5,0v236.5H383
				v-45.6c0-8.4,11.4-11,15-3.3l23,48.9h73.6L447.4,216.3z M394.2,233.6c-16.1,0-29.2-13.1-29.2-29.2s13.1-29.2,29.2-29.2
				c16.1,0,29.2,13.1,29.2,29.2S410.4,233.6,394.2,233.6z"/>
			<linearGradient id="SVGID_9_" gradientUnits="userSpaceOnUse" x1="1056.1359" y1="323.8458" x2="1056.1359" y2="126.4236">
				<stop  offset="0" style="stop-color:#000000"/>
				<stop  offset="1" style="stop-color:#5A5855"/>
				<stop  offset="1" style="stop-color:#FFFFFF"/>
			</linearGradient>
			<path class="st8" d="M1056.1,126.4c-54.5,0-98.7,44.2-98.7,98.7s44.2,98.7,98.7,98.7c54.5,0,98.7-44.2,98.7-98.7
				S1110.7,126.4,1056.1,126.4z M1056.1,281.2c-16.1,0-29.2-13.1-29.2-29.2s13.1-29.2,29.2-29.2c16.1,0,29.2,13.1,29.2,29.2
				S1072.3,281.2,1056.1,281.2z"/>
			<linearGradient id="SVGID_10_" gradientUnits="userSpaceOnUse" x1="1837.2412" y1="323.8458" x2="1837.2412" y2="126.4236">
				<stop  offset="0" style="stop-color:#000000"/>
				<stop  offset="1" style="stop-color:#5A5855"/>
				<stop  offset="1" style="stop-color:#FFFFFF"/>
			</linearGradient>
			<path class="st9" d="M1864.5,262.5c-4.2,10.9-14.8,18.7-27.2,18.7c-16.1,0-29.2-13.1-29.2-29.2s13.1-29.2,29.2-29.2
				c12.4,0,23,7.8,27.2,18.7h70.1c0.9-5.3,1.4-10.8,1.4-16.4c0-54.5-44.2-98.7-98.7-98.7c-54.5,0-98.7,44.2-98.7,98.7
				s44.2,98.7,98.7,98.7c41.3,0,76.6-25.3,91.4-61.3H1864.5z"/>
		</g>
	</g>
	<g>
		<path class="st43" d="M2821.3,33.7v93.2h-39.9V33.7h-55.7V1.9H2877v31.9H2821.3z"/>
		<path class="st43" d="M3047.8,68.4c-4.1,7.1-11.4,8.8-19.1,10.1c18.9,1.3,21.9,10.5,21.9,27.9v20.4h-37.5c0-7.5,0.4-15.4-1.1-22.7
			c-1.7-8.2-7.5-9-15-9h-62.6v31.7h-38V1.9h92c6.7,0,13.7,0.2,20.4,0.2c14.2,0.2,30.2-1.3,38.6,12.7c4.9,8.1,4.5,19.3,4.5,28.3
			C3051.9,51.4,3052.1,61.1,3047.8,68.4z M2998.1,33.2h-63.7v30.7h53.6c2.8,0,5.6-0.2,8.4-0.2c13.7-0.4,17.4-0.7,17.4-15.7
			C3013.8,35.2,3010.7,33.2,2998.1,33.2z"/>
		<path class="st43" d="M3215,118.8c-9,9.7-28.7,9.4-40.9,9.6c-9.7,0.4-19.5,0.4-29.2,0.4c-16.3,0-36,0.6-51.9-3
			c-6-1.3-11.2-3.7-15.6-8.1c-6.4-6.2-7.1-14.2-7.1-22.7c0-3.2,0.2-6.4,0.4-9.6h36.7c0,2.8,0,5.4,0.9,8.1c0.6,1.7,1.3,2.8,2.8,3.9
			c3.6,2.8,14.2,2.4,18.4,2.4c5.4,0,10.7,0.2,16.1,0.2c6.7,0,13.3-0.2,20.1-0.2c4.7,0,16.5,0.6,19.7-3.9c1.3-2.1,1.3-4.9,1.3-7.1
			c0-9.6-7.5-9.2-15.2-9.4c-20.1-0.6-40.1-1.7-60.2-2.4c-10.9-0.4-24.7-0.7-32.6-9.6c-6.6-7.3-7.1-17.8-7.1-27.2
			c0-22.3,5.8-36.4,29.8-38.8c16.1-1.7,32.8-1.5,49.1-1.5c15.7,0,32.4-0.4,47.8,3.4c17.1,4.3,20.6,15.6,20.6,31.9v6H3182v-1.9
			c0-3.6-0.4-6.2-3.6-8.2c-3.6-2.4-12-2.2-16.1-2.2h-32.4c-3.9,0-15-0.2-18.4,2.2c-2.4,1.7-3,4.7-3,7.5c0,2.2,0.6,5.2,2.4,6.7
			c1.3,1.1,3.2,1.5,4.9,1.7c4.3,0.7,8.8,0.7,13.1,0.9c8.4,0.4,16.9,0.7,25.3,0.9c14.4,0.4,35.1,0.2,49.1,3.9c4.5,1.3,8.4,3.2,12,6.4
			c7.7,6.7,8.1,19.7,8.1,29.1C3223.4,98.8,3222.5,110.8,3215,118.8z"/>
		<path class="st43" d="M3466.8,120.7c-12.4,9-42.2,7.7-57,7.7h-17.1c-15.4,0-40.7,1.1-53.8-7.7c-8.8-6-9.6-18-9.6-27.7
			c0-8.2,0.7-17.1,6.7-23.2c4.5-4.7,11.4-5.6,17.6-6.7c-2.8-0.2-5.8-0.4-8.6-1.1c-12.6-3.4-14.2-15.7-14.2-27
			c0-18.2,5.4-28.9,24.4-31.9c15.6-2.4,31.9-2.6,47.6-2.6c8.6,0,17.2,0.2,25.9,0.6c11.1,0.6,26.8,0.9,36.2,7.3
			c8.6,5.8,9.9,17.6,9.9,27.2c0,7.3-0.9,15.7-5.8,21.4c-4.5,5.2-10.5,5.8-17.1,6.2c6.7,1.1,12.6,1.9,17.6,6.7
			c6.6,6.2,6.7,17.1,6.7,25.5C3476.3,104.6,3475,114.9,3466.8,120.7z M3437.7,80c-2.8-2.8-13.1-2.6-16.7-2.6
			c-6.7-0.2-13.5-0.4-20.2-0.4c-6.2,0-28.1-0.6-32.2,2.4c-2.8,2.1-2.8,6.7-2.8,9.9c0,2.8,0.2,6,2.4,8.1c4.3,3.8,27.4,2.8,32.8,2.8
			c6.6,0,13.1-0.2,19.7-0.4c4.7,0,15.9,0.6,18.4-4.9c0.9-2.1,0.9-4.9,0.9-7.1C3440,85.3,3439.8,81.9,3437.7,80z M3421,28.9
			c-7.5-0.2-14.8-0.4-22.3-0.4c-7.7,0-15.7-0.2-23.4,0.9c-6.4,0.9-8.1,4.3-8.1,10.5c0,6.6,2.2,8.8,8.6,9.6
			c13.3,1.3,27.6,0.7,40.9,0.7c4.3,0,16.9,0,19.9-3c1.9-1.9,1.9-5.4,1.9-7.9C3438.5,28.5,3429.7,29.1,3421,28.9z"/>
		<path class="st43" d="M3628.4,126.2c-15,2.4-35.2,2.2-50.4,2.2c-9.4,0-18.6-0.2-27.9-0.4c-20.6-0.4-44.6-1.1-49.1-26.1
			c-2.1-11.6-1.5-25.7-1.5-37.5c0-7.5,0-14.8,0.2-22.3c0.2-10.5,0.9-22.5,8.6-30.6c5.1-5.2,12.2-7.9,19.3-9
			c15-2.4,35.1-2.2,50.4-2.2c9.2,0,18.6,0.4,27.7,0.6c32.1,0.8,50.6,4.1,50.6,41.2v44.6C3656.3,107.6,3651,122.4,3628.4,126.2z
			 M3610.2,35.2c-4.3-1.9-10.7-2.1-15.4-2.1c-7.5,0-15-0.2-22.7-0.2c-7.7,0-16.1-0.2-23.6,1.5c-2.2,0.6-4.5,1.3-6.2,3.2
			c-5.1,5.2-4.7,20.1-4.7,26.8c0,6.2-0.4,20.8,3.9,25.9c1.9,2.2,4.1,3.2,6.9,3.9c8.1,1.9,21.4,1.9,29.8,1.7l16.5-0.4
			c4.7-0.2,11.1-0.2,15.4-2.3c9.4-4.1,8.1-20.6,8.1-28.9C3618.2,56.2,3619.6,39.6,3610.2,35.2z"/>
		<rect x="3249.8" y="65.9" class="st43" width="49.7" height="33.2"/>
	</g>
	<g>
		<path class="st10" d="M2831.7,404h-246c-24.1,0-43.6-19.5-43.6-43.6v-82.7c0-24.1,19.5-43.6,43.6-43.6h246
			c24.1,0,43.6,19.5,43.6,43.6v82.7C2875.4,384.5,2855.8,404,2831.7,404z"/>
		<path class="st11" d="M3314,404h-246c-24.1,0-43.6-19.5-43.6-43.6v-82.7c0-24.1,19.5-43.6,43.6-43.6h246
			c24.1,0,43.6,19.5,43.6,43.6v82.7C3357.7,384.5,3338.1,404,3314,404z"/>
		<path class="st12" d="M3796.4,404h-246c-24.1,0-43.6-19.5-43.6-43.6v-82.7c0-24.1,19.5-43.6,43.6-43.6h246
			c24.1,0,43.6,19.5,43.6,43.6v82.7C3840,384.5,3820.5,404,3796.4,404z"/>
	</g>
</g>
</svg>
