<?xml version="1.0" encoding="utf-8"?>
<!-- Generator: Adobe Illustrator 26.3.1, SVG Export Plug-In . SVG Version: 6.00 Build 0)  -->
<svg version="1.1" id="Layer_1" xmlns="http://www.w3.org/2000/svg" xmlns:xlink="http://www.w3.org/1999/xlink" x="0px" y="0px"
	 viewBox="0 0 3839 1482.5" style="enable-background:new 0 0 3839 1482.5;" xml:space="preserve">
<style type="text/css">
	.st0{fill:#3094BF;}
	.st1{fill:#FFFFFF;}
	.st2{fill:#FFFF00;}
</style>
<g>
	<g>
		<path class="st1" d="M1185,1468.4l6.4-681.3h-43.3l-319.5,681.3H613.5L294,787.1h-45.8l6.4,681.3H0V557.7h468.4l252,591.2
			l253.3-591.2h465.8v910.7H1185z"/>
		<path class="st1" d="M2709.9,1173.5c-3.8,84.7-11.5,189.8-80.2,245.8c-35.6,30-76.4,41-120.9,47.8c-123.5,19.1-253.3,15-378,15
			c-66.2,0-133.6,0-199.8-1.4c-89.1-1.4-224-1.4-299.1-61.4c-68.7-53.2-76.4-162.5-80.2-245.8c-3.8-53.3-3.8-106.5-3.8-159.8
			c0-53.3,0-106.5,3.8-159.8c5.1-83.3,12.7-189.8,80.2-245.8c35.6-28.7,77.6-42.3,120.9-49.2c119.6-20.5,257.1-15,378-15
			c67.4,0,133.6,1.4,201.1,2.7c89.1,1.4,222.7,1.4,297.8,61.4c68.7,54.6,75.1,162.5,80.2,245.8c3.8,53.3,3.8,106.5,3.8,159.8
			C2713.7,1067,2713.7,1120.3,2709.9,1173.5z M2441.3,856.7c-14-49.2-43.3-61.4-87.8-68.3c-59.8-8.2-120.9-6.8-180.7-6.8h-162.9
			c-206.2,0-202.4,43.7-202.4,255.3c0,51.9-5.1,139.3,38.2,176.1c48.4,41,226.6,32.8,285.1,32.8c40.7,0,82.7-1.4,123.5-1.4
			c47.1,0,123.5,0,162.9-31.4c42-34.1,38.2-125.6,38.2-176.1C2455.3,987.8,2455.3,904.5,2441.3,856.7z"/>
		<path class="st1" d="M3783,1397.4c-26.7,31.4-63.6,46.4-100.6,57.3c-89.1,25.9-180.7,24.6-271.1,24.6H3307
			c-115.8,0-234.2,2.7-347.5-25.9c-117.1-30-137.5-112-137.5-230.8c0-12.3,0-23.2,1.3-35.5H3069c0,21.8,1.3,49.2,15.3,66.9
			c24.2,28.7,212.6,24.6,246.9,24.6h118.4c112,0,140,0,140-127c0-20.5,0-47.8-8.9-66.9c-20.4-42.3-101.8-39.6-138.7-41
			c-58.5-2.7-117.1-4.1-175.6-4.1c-42,0-100.6-2.7-141.3,8.2c-35.6,9.6-43.3,24.6-43.3,61.4h-226.6V557.7h944.4v196.6h-610.9
			c-35.6,0-72.6,0-106.9-6.8c0,54.6,1.3,110.6-1.3,165.2c12.7-13.7,26.7-25.9,42-35.5c58.5-34.1,220.2-32.8,288.9-32.8
			c87.8,0,208.7,1.4,292.7,27.3C3825,908.6,3839,1026,3839,1144.8C3839,1218.6,3832.6,1338.7,3783,1397.4z"/>
	</g>
	<g>
		<path class="st1" d="M255.3,108.6v266.9H148.7V108.6H0V17.3h404v91.3H255.3z"/>
		<path class="st1" d="M727.1,375.5v-130H497.4v130H390.7V17.3h106.6v128.3h229.8V17.3h106.6v358.2H727.1z"/>
		<path class="st1" d="M1303.9,259.5c-1.5,33.3-4.5,74.6-31.5,96.7c-14,11.8-30,16.1-47.6,18.8c-48.6,7.5-99.6,5.9-148.7,5.9
			c-26,0-52.6,0-78.6-0.5c-35-0.5-88.1-0.5-117.6-24.2c-27-20.9-30-63.9-31.5-96.7c-1.5-20.9-1.5-41.9-1.5-62.8
			c0-20.9,0-41.9,1.5-62.8c2-32.8,5-74.6,31.5-96.7c14-11.3,30.5-16.6,47.6-19.3c47.1-8.1,101.1-5.9,148.7-5.9
			c26.5,0,52.6,0.5,79.1,1.1c35,0.5,87.6,0.5,117.1,24.2c27,21.5,29.5,63.9,31.5,96.7c1.5,20.9,1.5,41.9,1.5,62.8
			C1305.4,217.6,1305.4,238.6,1303.9,259.5z M1198.3,134.9c-5.5-19.3-17-24.2-34.5-26.8c-23.5-3.2-47.6-2.7-71.1-2.7h-64.1
			c-81.1,0-79.6,17.2-79.6,100.4c0,20.4-2,54.8,15,69.3c19,16.1,89.1,12.9,112.1,12.9c16,0,32.5-0.5,48.6-0.5
			c18.5,0,48.6,0,64.1-12.4c16.5-13.4,15-49.4,15-69.3C1203.8,186.5,1203.8,153.7,1198.3,134.9z"/>
		<path class="st1" d="M1784.7,375.5l2.5-268h-17l-125.6,268h-84.6l-125.6-268h-18l2.5,268h-100.1V17.3h184.2l99.1,232.5l99.6-232.5
			h183.2v358.2H1784.7z"/>
		<path class="st1" d="M2284.4,352.4c-24,27.9-76.6,26.8-109.1,27.4c-26,1.1-52.1,1.1-78.1,1.1c-43.5,0-96.1,1.6-138.7-8.6
			c-16-3.8-30-10.7-41.5-23.1c-17-17.7-19-40.8-19-65c0-9.1,0.5-18.3,1-27.4h98.1c0,8.1,0,15.6,2.5,23.1c1.5,4.8,3.5,8.1,7.5,11.3
			c9.5,8.1,38,7,49.1,7c14.5,0,28.5,0.5,43,0.5c18,0,35.5-0.5,53.6-0.5c12.5,0,44.1,1.6,52.6-11.3c3.5-5.9,3.5-14,3.5-20.4
			c0-27.4-20-26.3-40.5-26.8c-53.6-1.6-107.1-4.8-160.7-7c-29-1.1-66.1-2.1-87.1-27.4c-17.5-20.9-19-51-19-77.9
			c0-63.9,15.5-104.2,79.6-111.2c43-4.8,87.6-4.3,131.1-4.3c42,0,86.6-1.1,127.6,9.7c45.6,12.4,55.1,44.6,55.1,91.3v17.2h-98.6v-5.4
			c0-10.2-1-17.7-9.5-23.6c-9.5-7-32-6.4-43-6.4h-86.6c-10.5,0-40-0.5-49.1,6.4c-6.5,4.8-8,13.4-8,21.5c0,6.4,1.5,15,6.5,19.3
			c3.5,3.2,8.5,4.3,13,4.8c11.5,2.1,23.5,2.1,35,2.7c22.5,1.1,45.1,2.1,67.6,2.7c38.5,1.1,93.6,0.5,131.2,11.3
			c12,3.8,22.5,9.1,32,18.3c20.5,19.3,21.5,56.4,21.5,83.2C2306.9,295,2304.4,329.3,2284.4,352.4z"/>
		<path class="st1" d="M2777.1,259.5c-1.5,33.3-4.5,74.6-31.5,96.7c-14,11.8-30,16.1-47.6,18.8c-48.6,7.5-99.6,5.9-148.7,5.9
			c-26,0-52.6,0-78.6-0.5c-35-0.5-88.1-0.5-117.6-24.2c-27-20.9-30-63.9-31.5-96.7c-1.5-20.9-1.5-41.9-1.5-62.8
			c0-20.9,0-41.9,1.5-62.8c2-32.8,5-74.6,31.5-96.7c14-11.3,30.5-16.6,47.6-19.3c47.1-8.1,101.1-5.9,148.7-5.9
			c26.5,0,52.6,0.5,79.1,1.1c35,0.5,87.6,0.5,117.1,24.2c27,21.5,29.5,63.9,31.5,96.7c1.5,20.9,1.5,41.9,1.5,62.8
			C2778.6,217.6,2778.6,238.6,2777.1,259.5z M2671.5,134.9c-5.5-19.3-17-24.2-34.5-26.8c-23.5-3.2-47.6-2.7-71.1-2.7h-64.1
			c-81.1,0-79.6,17.2-79.6,100.4c0,20.4-2,54.8,15,69.3c19,16.1,89.1,12.9,112.1,12.9c16,0,32.5-0.5,48.6-0.5
			c18.5,0,48.6,0,64.1-12.4c16.5-13.4,15-49.4,15-69.3C2677,186.5,2677,153.7,2671.5,134.9z"/>
		<path class="st1" d="M3079.6,375.5l-175.7-266.9h-11l2.5,266.9h-103.6V17.3H2970l174.7,266.9h10.5l-2.5-266.9h103.6v358.2H3079.6z
			"/>
		<g>
			<g>
				<g>
					<rect x="3705.7" y="101.3" class="st0" width="93.6" height="190.2"/>
					<rect x="3461.9" y="101.3" class="st0" width="93.6" height="190.2"/>
				</g>
				<g>
					<polygon class="st0" points="3630.6,298.7 3630.6,392.6 3839,316.8 3839,222.8 					"/>
					<polygon class="st1" points="3422.3,222.8 3422.3,316.8 3630.6,392.6 3630.6,298.7 					"/>
				</g>
				<g>
					<polygon class="st0" points="3422.3,75.8 3422.3,169.8 3630.6,93.9 3630.6,0 					"/>
					<polygon class="st1" points="3630.6,0 3630.6,93.9 3839,169.8 3839,75.8 					"/>
				</g>
			</g>
		</g>
	</g>
</g>
</svg>
