<?xml version="1.0" encoding="utf-8"?>
<!-- Generator: Adobe Illustrator 26.5.0, SVG Export Plug-In . SVG Version: 6.00 Build 0)  -->
<svg version="1.1" id="Layer_1" xmlns="http://www.w3.org/2000/svg" xmlns:xlink="http://www.w3.org/1999/xlink" x="0px" y="0px"
	 viewBox="0 0 3839 878.6" style="enable-background:new 0 0 3839 878.6;" xml:space="preserve">
<style type="text/css">
	.st0{fill:#FFFFFF;}
	.st1{fill:none;stroke:#231F20;stroke-width:2.6734;stroke-miterlimit:10;}
	.st2{fill:#3E96FF;}
	.st3{fill:#FF3C22;}
	.st4{fill:#3C8929;}
	.st5{fill:#FFC200;}
	.st6{fill:none;stroke:#231F20;stroke-width:3.2171;stroke-miterlimit:10;}
	.st7{fill:none;stroke:#231F20;stroke-width:3.2649;stroke-miterlimit:10;}
	.st8{fill:none;stroke:#231F20;stroke-width:2.6458;stroke-miterlimit:10;}
	.st9{fill:none;stroke:#231F20;stroke-width:3.1839;stroke-miterlimit:10;}
	.st10{fill:none;stroke:#231F20;stroke-width:3.2313;stroke-miterlimit:10;}
	.st11{fill:none;stroke:#231F20;stroke-width:2.0772;stroke-miterlimit:10;}
	.st12{fill:none;stroke:#231F20;stroke-width:1.917;stroke-miterlimit:10;}
	.st13{fill:none;stroke:#231F20;stroke-width:2.0294;stroke-miterlimit:10;}
	.st14{fill:none;stroke:#231F20;stroke-width:1.8689;stroke-miterlimit:10;}
</style>
<g>
	<g>
		<path class="st0" d="M1157.7,519.9c-1.3,1.6-3.3,2.8-5.9,3.7c-2.6,0.8-7.9,1.2-15.9,1.2h-102.1v4.4l15.5,27.4l5-1.4
			c-1.4-2.6-2.1-4.9-2.1-6.7c0-1.7,0.6-3.1,1.7-4.1c1.2-1,3.2-1.7,6.2-2.2c4.1-0.6,13-0.9,26.8-0.9h49c7.9,0,13.2,0.4,16,1.3
			c2.8,0.9,4.8,2.1,6,3.6c1,1.2,1.5,3.4,1.7,6.5h-0.1v4.7c0,5.3-1.9,9.2-5.8,11.6c-2.9,1.9-10.1,2.8-21.6,2.8h-122.9
			c-10.5,0-17.3-0.7-20.2-2.2c-4.8-2.4-7.2-6.4-7.2-12.2v-4.7h-5.1v38.1l147.2,48l-147.2,48.8v38.1h5.1c0-5.5,0.9-9.5,2.7-11.9
			c1.8-2.5,4-4.2,6.7-5.1c3.7-1.3,9.7-2,18-2H1132c10.5,0,17.3,0.7,20.2,2.2c4.8,2.4,7.2,6.4,7.2,12.1v4.8h5.1v-46.8h-5.1v4.8
			c0,5.3-1.9,9.2-5.8,11.6c-2.9,1.8-10.1,2.7-21.6,2.7h-125.7l158.2-51.9v-3.3l-158.2-51.8H1132c10.5,0,17.3,0.7,20.2,2.2
			c4.8,2.3,7.2,6.3,7.2,12.1v4.8h5.1v-54.7v-2.4V511h-5C1159.6,515.3,1159,518.3,1157.7,519.9z"/>
		<path class="st0" d="M991.4,540.2c2.8-2,4.2-4.4,4.2-7.1c0-2.8-1.4-5.1-4.2-7.1c-2.8-1.9-6.1-2.9-10-2.9c-3.9,0-7.2,1-9.9,2.9
			c-2.7,1.9-4.1,4.3-4.1,7.1c0,2.8,1.4,5.2,4.1,7.2c2.7,1.9,6,2.9,9.9,2.9C985.3,543.1,988.6,542.1,991.4,540.2z"/>
		<path class="st0" d="M1155,455.1c-9-7.1-21.9-11.9-38.6-14.4l-1.9,2.9c11.2,3.4,18.9,7,23.2,10.6c6.2,5.2,9.3,11,9.3,17.4
			c0,9.1-5.8,16.2-17.4,21.6c-11.6,5.3-25,8-40.2,8c-14.9,0-26.9-2.7-35.9-8c-6.8-4-10.3-9.3-10.3-16c0-4.1,1.4-7.3,4.2-9.6
			c2.9-2.3,7-3.7,12.5-4c5.5-0.4,9.2-1.1,11.1-2.2c3.5-2,5.3-4.9,5.3-8.8c0-2.9-1.1-5.2-3.3-6.8c-2.2-1.6-5-2.4-8.5-2.4
			c-7.1,0-14,2.9-20.6,8.6c-6.6,5.7-9.9,13.1-9.9,22c0,11.9,6.2,22.1,18.7,30.6c12.5,8.5,28.7,12.7,48.7,12.7
			c20.6,0,37-3.8,49.1-11.5c12.1-7.7,18.2-16.6,18.2-27C1168.5,470.1,1164,462.2,1155,455.1z"/>
		<path class="st0" d="M1057.3,391.6c3.2-2.9,4.8-5.5,4.8-7.8c0-2.4-1.2-4.4-3.7-6.1c-2.5-1.7-5.5-2.6-9.2-2.6
			c-4.1,0-7.7,1.2-10.7,3.6c-3.1,2.4-4.6,5.4-4.6,9c0,8,9.5,15.8,28.6,23.4h-28.6v4.2l15.5,27.5l5-1c-1.4-2.6-2.1-4.9-2.1-6.9
			c0-1.7,0.6-3.2,1.9-4.3c1.3-1.2,3.4-1.9,6.2-2.4c2.8-0.4,11.6-0.6,26.4-0.6h49.2c7.4,0,11.9,0.2,13.5,0.5c3.2,0.7,5.6,1.8,7.1,3.5
			c2,2.2,3.1,5.7,3.1,10.3h5v-46.5h-5c0,4.1-0.8,7.2-2.5,9.4c-1.7,2.2-3.7,3.7-6.2,4.6c-3.6,1.3-8.9,1.9-16,1.9H1074
			c-8.7-3.2-14.9-6.2-18.7-9.2c-1.8-1.4-2.8-2.7-2.8-3.9C1052.5,396.6,1054.1,394.5,1057.3,391.6z"/>
		<path class="st0" d="M1133.3,301.8c-11.7-3.9-23.2-5.8-34.5-5.8c-16.2,0-30.5,3.5-43,10.6c-14.6,8.3-21.9,19.4-21.9,33.1
			c0,7.5,2.8,14.7,8.3,21.4c5.5,6.7,14,12.2,25.5,16.3c11.5,4.1,23.1,6.2,34.7,6.2c16,0,30.4-3.4,43.3-10.2
			c15.3-8.1,22.9-18.9,22.9-32.6c0-8.4-3-16-8.9-22.8C1153.7,311.1,1144.9,305.7,1133.3,301.8z M1138.5,357.3
			c-13.4,5.3-29.4,7.9-47.9,7.9c-11.5,0-20.8-1.1-28.2-3.3c-7.3-2.2-12.4-5-15.3-8.6c-2.9-3.5-4.4-7.1-4.4-10.6
			c0-7.3,4.4-13.2,13.3-17.9c12.9-6.9,30.7-10.4,53.3-10.4c18,0,30.7,2.1,38.1,6.2c7.4,4.2,11.1,9.5,11.1,15.9
			C1158.6,345.1,1151.9,352,1138.5,357.3z"/>
		<path class="st0" d="M1157.9,240.4c-7.1-6.2-16.4-9.4-27.9-9.4c-15,0-27,6.7-36.2,20.1l-9.8,14.5c-4.3,6.3-8.3,10.4-12.1,12.5
			c-3.7,2.1-8.1,3.2-13.3,3.2c-4.2,0-8-1.4-11.4-4.3c-3.4-2.8-5.1-6.6-5.1-11.2c0-6.1,2.5-11.1,7.3-15c4.9-3.9,14.1-7.2,27.7-9.7
			v-3.3h-43.3v3.3c2.2,0.8,3.7,1.5,4.3,2.1c0.6,0.6,1,1.4,1,2.5c0,1.1-0.7,3.4-2.1,6.7c-2.1,5.1-3.2,9.4-3.2,13
			c0,8.1,3.5,14.8,10.5,19.9c7,5.1,15.8,7.7,26.2,7.7c8,0,14.7-1.5,20-4.5c5.4-3,11.4-9.2,18-18.8c6.7-9.6,12.2-16,16.5-19.2
			c4.3-3.2,9.7-4.8,16.1-4.8c5.3,0,9.8,1.4,13.5,4.3c3.7,2.9,5.6,6.6,5.6,11.1c0,6.5-3.3,12.3-9.8,17.5c-6.6,5.2-16.3,8.8-29.3,10.6
			v3.3h45.4v-3.3c-2.4-0.9-3.6-2-3.6-3.6c0-1.4,0.5-3.2,1.4-5.4c2.8-7.1,4.2-13.5,4.2-19C1168.5,253.7,1165,246.7,1157.9,240.4z"/>
		<path class="st0" d="M1133.3,145.3c-11.7-3.9-23.2-5.8-34.5-5.8c-16.2,0-30.5,3.5-43,10.6c-14.6,8.3-21.9,19.4-21.9,33.1
			c0,7.5,2.8,14.7,8.3,21.4c5.5,6.7,14,12.2,25.5,16.3c11.5,4.1,23.1,6.2,34.7,6.2c16,0,30.4-3.4,43.3-10.2
			c15.3-8.1,22.9-18.9,22.9-32.6c0-8.4-3-16-8.9-22.8C1153.7,154.6,1144.9,149.2,1133.3,145.3z M1138.5,200.7
			c-13.4,5.3-29.4,7.9-47.9,7.9c-11.5,0-20.8-1.1-28.2-3.3c-7.3-2.2-12.4-5-15.3-8.6c-2.9-3.5-4.4-7.1-4.4-10.6
			c0-7.3,4.4-13.2,13.3-17.9c12.9-6.9,30.7-10.4,53.3-10.4c18,0,30.7,2.1,38.1,6.2c7.4,4.2,11.1,9.4,11.1,15.9
			C1158.6,188.6,1151.9,195.5,1138.5,200.7z"/>
		<path class="st0" d="M997.1,124.7c8.8,2.9,19.5,4.4,32.2,4.4h8.3v17.6h10v-17.6h83.5c9.1,0,15.2,0.4,18.3,1.2
			c3.1,0.8,5.6,2.3,7.5,4.5c1.8,2.2,2.8,4.6,2.8,7.2v4.1h5V91.9h-5v8.2c0,4.1-2,7.4-6.1,9.8c-3.1,1.9-10.6,2.8-22.5,2.8h-83.5V89.3
			h-0.3v-4.7h85.4c9.2,0,15.9-0.7,20.3-2.1c4.4-1.4,7.8-3.5,10.1-6.4c2.4-2.9,3.5-5.9,3.5-8.9c0-4.5-2.3-8.9-6.9-13.1
			c-4.6-4.2-11.4-7.5-20.5-9.8v3.9c3.7,1.1,6.5,2.7,8.4,4.8c1.9,2,2.8,4.2,2.8,6.3c0,2.6-1.4,4.8-4.3,6.5c-2.9,1.7-8.4,2.5-16.6,2.5
			h-82.4V47h-9.7v21.2h-39.7c-2.1-1.3-4.4-1.9-6.8-1.9c-5.2,0-9.8,1.9-14,5.7c-6.3,5.8-9.4,12.2-9.4,19.1c0,7.5,2.7,14.2,8.1,20.2
			C981.2,117.3,988.3,121.8,997.1,124.7z M980.3,92.2c1.8-2,5.2-4.3,10.2-6.7c5-2.4,8.3-4.5,9.8-6.2c1.5-1.7,2.3-3.3,2.3-4.8
			c0-0.4-0.1-0.8-0.2-1.2c5.8,1.8,10,3.2,12.6,4.4c6.7,3,12.4,6.4,17.3,10.2c2,1.5,3.7,3.1,5.2,4.6v20.3h-9.2
			c-19.8,0-32.1-0.5-36.8-1.4c-4.8-0.9-8.3-2.4-10.5-4.6c-2.3-2.1-3.4-4.7-3.4-7.7C977.6,96.5,978.5,94.2,980.3,92.2z"/>
		<path class="st0" d="M1164,25.4c-3-2.1-6.6-3.2-10.9-3.2s-7.9,1.1-10.9,3.2c-3,2.1-4.5,4.7-4.5,7.8c0,3,1.5,5.6,4.4,7.8
			c3,2.1,6.6,3.2,11,3.2c4.3,0,7.9-1.1,10.9-3.2c3-2.1,4.5-4.7,4.5-7.8C1168.5,30.1,1167,27.6,1164,25.4z"/>
		<path class="st0" d="M3139.2,426c-52.4-55-62-95.8-62-144.1c0-110.8,37.3-138.4,53.1-138.4c21.9,0,44,17.6,59.9,55.1
			c15.9,37.4,27.5,100.1,30.6,154.7h8.4V118h-8.4c-4.1,25-10.2,37.4-18.2,37.4c-4.6,0-9.9-2.7-15.9-8.1
			c-23.8-20.2-33.3-30.3-57.6-30.3c-61.7,0-93,110.9-93,202.6c0,120.7,31.8,168.2,91,222.9c65.5,60.5,70,125.6,70,182.3
			c0,33.1-17.3,125.7-59,125.7c-60.8,0-91.9-145.6-91.9-211.6h-8.4v239.7h8.4c4.4-25,10.7-37.4,18.9-37.4c9.3,0,29.9,35.6,77.2,35.6
			c57.3,0,101.2-109.3,101.2-194.7C3243.3,507.2,3192.4,481.8,3139.2,426z"/>
		<path class="st0" d="M2187,125.9h-71.8h-12.6H2065h-30.5h-19h-4.5h-49.5v10.4c36.8,0,42,59.5,42,59.5v466.7l-185.2-536.7h-27.2
			h-15.8h-0.3h-3.2h-30.1h-20.6h-9h-24.4h-13.6h-24.4h-29.4l4.5-28.8v0c7.7-50.1,22.6-84.9,50.7-84.9V0h-45.9h-17.1h-45.9l0,12.2
			c36.7,0,43.4,53,36.4,98.2l0,0L1522.8,630L1452,81.7l0,0c0,0,0,0,0,0l-3.7-28.4c-2-22.4,1.2-41.1,28.1-41.1l0-12.2h-55h-8h-20.3
			h-5.9h-57.1v12.2c27.7,0,39.9,21.3,46.4,56.8l25.4,188.6L1344.3,630l-70.8-548.3l0,0c0,0,0,0,0,0l-3.7-28.4
			c-2-22.4,1.2-41.1,28.1-41.1l0-12.2h-53.4h-9.6h-20.3h-4.3h-58.7l0,12.2c27.7,0,39.9,21.3,46.4,56.8l108.5,805.3l0,0h0h19.8h0
			l84.8-548.4l73.9,548.4v0h0h19.8h0l115.6-747.2v9.2c25.9,0,29.2,28.3,29.6,47.9v618.6c-0.3,19.7-3.6,47.9-29.6,47.9v10.4h29.6l0,0
			h62.3l0,0h17.7l0,0h49.5h4.5h49.5v-10.4c-36.8,0-42-59.5-42-59.5V254.1l212.4,615.5v0h19.3v-60.4h0v-90.7h0V195.8
			c0,0,3.7-41.9,26.6-55.4c22,13.5,22.8,55.4,22.8,55.4v595.4c0,0-1.1,59.5-37.9,59.5v10.4h49.1h31.6h71.8
			c168.9,0,171.1-367.6,171.1-367.6S2355.8,125.9,2187,125.9z M1771.9,791.2c0,0-4.6,53-36.1,59c-20.5-4-23.3-29.3-23.6-47.4V184.2
			c0.3-16.7,2.7-39.7,19.4-46.2c29,10.1,40.2,59.9,40.3,60v0l0,0V791.2z M2164.6,840c0,0-28.5-1.3-28.5-10.2V157.2
			c0-8.9,28.5-10.2,28.5-10.2c132.5,0,131.2,342,131.2,342v9C2295.8,498,2297.2,840,2164.6,840z"/>
		<path class="st0" d="M2525.1,122.4c-44.3,0.9-82.4,28.8-114.3,103.8c-31.4,73.8-51.5,167-52.7,271.6
			c1.2,104.6,21.3,197.8,52.7,271.6c31.9,75,70,102.8,114.3,103.8c44.3-0.9,82.4-28.8,114.3-103.8c31.4-73.8,51.5-167,52.7-271.6
			c-1.2-104.6-21.3-197.8-52.7-271.6C2607.5,151.2,2569.4,123.3,2525.1,122.4z M2533.3,854.9c-5.2,2.2-11.2,2.2-16.4,0
			c-41.8-17.2-90-131.7-90.5-357.1c0.6-225.4,48.8-339.9,90.5-357.1c5.2-2.2,11.2-2.2,16.4,0c41.8,17.2,90,131.7,90.5,357.1
			C2623.2,723.2,2575,837.6,2533.3,854.9z"/>
		<path class="st0" d="M3074.5,136.3l0-10.4h-39.3h-14.6h-39.3l0,10.4c31.4,0,37.1,45.4,31.2,84.1l0,0l-68.8,444.8l-63.7-493.7
			c-1.7-19.2,1-35.2,24-35.2l0-10.4h-47.1h-6.8h-17.4h-5h-48.9l0,10.4c23.7,0,34.1,18.2,39.7,48.6l21.8,161.5l-49.3,318.8
			l-63.7-493.7c-1.7-19.2,1-35.2,24-35.2l0-10.4h-45.8h-8.2h-17.4h-3.7H2626l0,10.4c23.7,0,34.1,18.2,39.7,48.6l92.9,689.4v0l0,0
			h16.9h0l72.6-469.5l63.2,469.5v0h0h16.9h0L3031.1,209l0,0C3037.7,166.1,3050.5,136.3,3074.5,136.3z"/>
		<path class="st0" d="M3529.7,646.6c10.8-13.4,16.2-27.3,16.2-41.8c0-17-5.8-31.1-17.2-42.2c-11.5-11.1-26.5-16.7-45.1-16.7
			c-15.3,0-29.3,4.7-42.2,14.1c-12.8,9.4-23.4,23.2-31.5,41.5l8.7,2.6c13.7-21.9,29.4-32.8,47-32.8c11.2,0,20.7,4.1,28.6,12.2
			c7.9,8.1,11.8,18.4,11.8,30.8c0,16.5-6.8,30.8-20.3,42.8c-18.7,16.9-47.2,28.2-85.3,34v6.9c15.9,0.9,30.6,5.1,43.9,12.4
			c13.4,7.3,23.2,16.9,29.4,28.7c6.2,11.8,9.3,25.3,9.3,40.4c0,18.6-4.6,36.1-13.8,52.6c-9.2,16.5-20.9,24.7-35.1,24.7
			c-5.8,0-11.5-0.9-17-2.7c-5.5-1.8-13.2-5.5-23-11c-9.8-5.5-16-8.7-18.5-9.5c-4.1-1.3-8.2-1.9-12.3-1.9c-5.8,0-10.7,2-14.8,5.9
			c-4,3.9-6,8.7-6,14.2c0,6.3,3.4,11.8,10.2,16.5c10.2,6.9,25.3,10.4,45.1,10.4c21.7,0,42.5-5.4,62.3-16.2
			c19.8-10.8,35.3-26.1,46.7-45.8c11.3-19.8,17-39.5,17-59.2c0-17.8-4.2-33-12.5-45.7c-8.4-12.7-20.7-22.4-37.1-29.2
			C3500.3,672,3518.9,660,3529.7,646.6z"/>
		<path class="st0" d="M3553.5,830.7c-6.6,0-12.2,2.3-16.9,7c-4.6,4.6-7,10.3-7,16.9c0,6.6,2.3,12.2,7,16.9c4.6,4.6,10.3,7,16.9,7
			c6.6,0,12.3-2.3,17-7c4.7-4.6,7.1-10.3,7.1-16.9c0-6.6-2.3-12.2-7-16.9C3566,833,3560.3,830.7,3553.5,830.7z"/>
		<path class="st0" d="M3781.4,696.7c5.2-4.4,9.7-6.6,13.5-6.6c2.5,0,7.5,1.3,14.9,3.8c3.8,1.4,7.3,2.1,10.6,2.1
			c5.7,0,10.7-2,15.1-5.9c2.4-2.2,3.5-6.3,3.5-12.3c0-5.2-2-9.6-6-13.2c-4-3.6-9.4-5.4-16.2-5.4c-4.6,0-8.7,0.8-12.5,2.4
			c-6,2.5-12.9,7.2-20.8,14.1c-7.9,6.9-14.6,14.1-20.1,21.6l-20.8,31.2c-6.5-24.1-11.1-39-13.9-44.7c-3.9-8.2-9.8-16.4-17.5-24.6
			l-63.1,11.1v8.5c4.7-0.3,8.9-0.5,12.5-0.5c11.3,0,19.9,2.1,25.8,6.4c5.8,4.3,10.5,11.5,14.2,21.7c0.8,2.2,6.1,22.4,15.8,60.7
			c-3.9,8.8-12.3,23.2-25,43c-12.8,19.8-22.8,32.8-30.2,38.7c-3,2.5-5.4,3.8-7.3,3.8c-2.2,0-5.4-1.8-9.5-5.4c-5.7-5-11-7.6-16.1-7.6
			c-5,0-9.3,1.7-12.8,5.2c-3.5,3.5-5.2,7.8-5.2,13c0,5.8,1.9,10.5,5.7,13.9c5.2,4.6,10.9,6.9,17.2,6.9c9,0,18.3-3.9,27.9-11.8
			c14.8-12.3,34.5-39.8,59.1-82.4c10.4,46.8,17.2,73.2,20.6,79.4c5.2,9.9,12.2,14.9,21,14.9c6,0,13.3-3.5,22-10.4
			c15.3-12.3,27.9-27.7,37.8-46.3l-8.3-4.3c-6.1,11.7-13.5,21.1-22.2,28.3c-4.4,3.6-8.3,5.4-11.6,5.4c-2,0-4.1-1.2-6.1-3.7
			c-2-2.4-4.6-9.9-7.6-22.3l-19.4-81.3C3759.9,720.8,3771.6,704.9,3781.4,696.7z"/>
	</g>
	<path class="st0" d="M437.1,874.3L437.1,874.3C195.7,874.3,0,678.6,0,437.1v0C0,195.7,195.7,0,437.1,0h0
		c241.4,0,437.1,195.7,437.1,437.1v0C874.3,678.6,678.6,874.3,437.1,874.3z"/>
	<g>
		<g>
			<polygon points="232,644.3 249.1,601.5 249.1,601.5 309.4,600.2 292.3,642.9 			"/>
			<polygon points="104.2,525.7 95.8,546.6 129.2,545.9 137.6,525 			"/>
			<polygon points="81.8,509.3 89.1,491.1 63.8,491.7 56.5,509.8 			"/>
			<polygon points="142.4,560 132.2,585.5 175.5,584.5 185.7,559 			"/>
			<polygon points="179.2,613.2 192.1,580.8 245.5,579.7 232.6,612 			"/>
		</g>
		<g>
			<polygon points="303.2,465.9 363.6,464.6 380.7,421.8 320.3,423.2 			"/>
			<polygon points="200.4,367.6 208.8,346.7 175.4,347.4 167.1,368.3 			"/>
			<polygon points="127.8,331.5 135,313.4 160.3,312.8 153.1,330.9 			"/>
			<polygon points="246.8,406.2 257,380.7 213.6,381.6 203.4,407.1 			"/>
			<polygon points="263.4,402.5 250.5,434.9 303.9,433.7 316.8,401.3 			"/>
		</g>
		<g>
			<g>
				<polygon class="st2" points="350.5,488.1 299.5,489.2 285.1,525.1 336.4,523.5 				"/>
			</g>
			<polygon class="st2" points="145.9,430.7 153.4,411.9 180.1,411.3 172.6,430.2 			"/>
			<polygon class="st2" points="112.5,376.1 106,392.3 126,391.9 132.5,375.7 			"/>
			<polygon class="st2" points="184.1,468.5 193.1,445.9 228.4,445.2 219.3,467.8 			"/>
			<polygon class="st2" points="288.1,467.4 276.4,496.6 230.5,497.6 242.2,468.4 			"/>
		</g>
		<g>
			<polygon class="st2" points="262.2,582.4 276.6,546.4 327.7,545.3 313.3,581.3 			"/>
			<polygon class="st2" points="157.3,468.5 149.8,487.4 123,488 130.5,469.1 			"/>
			<polygon class="st2" points="103.2,449.1 109.7,432.9 89.6,433.3 83.2,449.5 			"/>
			<polygon class="st2" points="161.2,525.8 170.2,503.2 205.5,502.4 196.5,525 			"/>
			<polygon class="st2" points="265.2,524.6 253.6,553.8 207.6,554.8 219.3,525.6 			"/>
		</g>
		<g>
			<polygon class="st3" points="398.9,366.9 384.5,402.9 333.5,404.1 347.9,368.1 			"/>
			<polygon class="st3" points="194.3,309.6 201.8,290.8 228.5,290.2 221,309 			"/>
			<polygon class="st3" points="154.4,271.2 160.9,255 180.9,254.6 174.4,270.8 			"/>
			<polygon class="st3" points="232.4,347.4 241.5,324.8 276.8,324.1 267.7,346.7 			"/>
			<polygon class="st3" points="336.5,346.3 324.8,375.5 278.9,376.5 290.5,347.3 			"/>
		</g>
		<g>
			<polygon class="st3" points="370.8,310.7 356.4,346.7 407.4,345.6 421.8,309.6 			"/>
			<polygon class="st3" points="217.1,252.3 224.7,233.5 251.4,232.9 243.9,251.7 			"/>
			<polygon class="st3" points="177.3,213.9 183.8,197.7 203.8,197.2 197.3,213.4 			"/>
			<polygon class="st3" points="255.4,290.1 264.4,267.5 299.7,266.7 290.6,289.3 			"/>
			<polygon class="st3" points="359.4,289 347.7,318.2 301.8,319.2 313.4,290 			"/>
		</g>
		<g>
			<g>
				<polygon points="451.9,243.4 434.9,286.2 374.5,287.5 391.6,244.7 				"/>
				<polygon points="271.7,189.1 280.1,168.2 246.7,168.9 238.4,189.9 				"/>
				<polygon points="206.3,134.9 199,153 224.3,152.5 231.6,134.4 				"/>
				<polygon points="274.7,228.7 284.9,203.2 328.3,202.2 318.1,227.7 				"/>
				<polygon points="334.7,224.1 321.7,256.4 375.1,255.3 388.1,222.9 				"/>
			</g>
		</g>
		<g>
			<polygon points="428.2,487.2 363.3,488.4 343.1,539 408,537.8 			"/>
			<polygon points="384.8,595.7 405,545.2 340.1,546.4 319.9,597 			"/>
			<path d="M317,604.4l-24,60.1c21.5-1.8,43.6-2.9,65.5-2.9l23.3-58.4L317,604.4z"/>
			<polygon points="366.2,481.1 386.4,430.5 451.3,429.3 431.1,479.8 			"/>
			<polygon points="454.3,421.9 389.4,423.1 409.6,372.5 474.5,371.3 			"/>
			<polygon points="477.4,363.9 412.5,365.2 432.7,314.6 497.6,313.4 			"/>
			<path d="M500.6,306l23.7-59.3c-22,0-44,1.1-65.5,2.9l-23,57.7L500.6,306z"/>
			<path d="M674.4,270.3c-41.7-16.6-91.8-23.1-142.7-23.6L365.9,661.6c50.9,0.5,101,7,142.7,23.6c68.9,27.5,111.7,63.9,138,95.7
				L812.3,366C786.1,334.2,743.3,297.8,674.4,270.3z"/>
		</g>
		<g>
			<path class="st4" d="M691.1,510.8c-24.3-21.6-54.8-39.9-91.1-54.4c-0.1,0-0.2-0.1-0.3-0.1l52.5-131.5c0.1,0,0.2,0.1,0.3,0.1
				c36.3,14.5,66.8,32.7,91.1,54.4L691.1,510.8z"/>
			<path class="st3" d="M508,305.7l-52.5,131.5c41.8-1,78.6,1.9,109.1,8.6l0.7-1.6l51.9-129.9C586.7,307.6,549.9,304.7,508,305.7z"
				/>
			<path class="st5" d="M586.1,490.4c0.1,0,0.2,0.1,0.3,0.1c36.3,14.5,66.8,32.7,91.1,54.4l-54.1,135.5
				c-27.4-19.3-58.4-36-92.9-49.8c-0.1,0-0.2-0.1-0.3-0.1L586.1,490.4z"/>
			<path class="st2" d="M441.9,471.3l-52.8,132.1c39.4,1.7,74.9,6.9,106.4,15.6l2.2-5.6l53.3-133.5
				C520.6,473.1,483.8,470.2,441.9,471.3z"/>
		</g>
	</g>
</g>
</svg>
