<?xml version="1.0" encoding="utf-8"?>
<!-- Generator: Adobe Illustrator 26.5.0, SVG Export Plug-In . SVG Version: 6.00 Build 0)  -->
<svg version="1.1" id="Layer_1" xmlns="http://www.w3.org/2000/svg" xmlns:xlink="http://www.w3.org/1999/xlink" x="0px" y="0px"
	 viewBox="0 0 3839 922.1" style="enable-background:new 0 0 3839 922.1;" xml:space="preserve">
<style type="text/css">
	.st0{fill:#FFFFFF;}
	.st1{fill:none;stroke:#231F20;stroke-width:2.6734;stroke-miterlimit:10;}
	.st2{fill:#3E96FF;}
	.st3{fill:#FF3C22;}
	.st4{fill:#3C8929;}
	.st5{fill:#FFC200;}
	.st6{fill:none;stroke:#231F20;stroke-width:3.2171;stroke-miterlimit:10;}
	.st7{fill:none;stroke:#231F20;stroke-width:3.2649;stroke-miterlimit:10;}
	.st8{fill:none;stroke:#231F20;stroke-width:2.6458;stroke-miterlimit:10;}
	.st9{fill:none;stroke:#231F20;stroke-width:3.1839;stroke-miterlimit:10;}
	.st10{fill:none;stroke:#231F20;stroke-width:3.2313;stroke-miterlimit:10;}
	.st11{fill:none;stroke:#231F20;stroke-width:2.0772;stroke-miterlimit:10;}
	.st12{fill:none;stroke:#231F20;stroke-width:1.917;stroke-miterlimit:10;}
	.st13{fill:none;stroke:#231F20;stroke-width:2.0294;stroke-miterlimit:10;}
	.st14{fill:none;stroke:#231F20;stroke-width:1.8689;stroke-miterlimit:10;}
</style>
<g>
	<g>
		<g>
			<path class="st0" d="M268.3,724.2c-6.5,0-12.6-3.2-16.3-8.5c-3.8-5.5-4.6-12.5-2.1-18.6l22.3-55.7c2.9-7.4,10-12.3,17.9-12.4
				l78.7-1.7c0.1,0,0.3,0,0.4,0c6.5,0,12.6,3.2,16.3,8.5c3.8,5.5,4.6,12.5,2.1,18.6L365.4,710c-2.9,7.4-10,12.3-17.9,12.4l-78.7,1.7
				C268.6,724.2,268.5,724.2,268.3,724.2z"/>
			<path class="st0" d="M369.3,646.9L369.3,646.9 M369.3,646.9L347,702.6l-78.7,1.7l22.3-55.7L369.3,646.9 M369.3,607.3
				c-0.1,0-0.3,0-0.4,0c-0.2,0-0.4,0-0.6,0l-78.6,1.7c-15.9,0.3-30,10.1-35.9,24.9l-22.3,55.7c-4.9,12.3-3.3,26.3,4.2,37.2
				c7.4,10.7,19.6,17,32.5,17c0.3,0,0.6,0,0.9,0l78.7-1.7c15.9-0.3,30-10.1,35.9-24.9l21.9-54.8c2.1-4.8,3.2-10.1,3.2-15.6
				c0-21.7-17.5-39.4-39.2-39.6C369.6,607.3,369.4,607.3,369.3,607.3L369.3,607.3z M369.3,686.5L369.3,686.5L369.3,686.5
				L369.3,686.5z"/>
		</g>
		<g>
			<path class="st0" d="M90.8,596.9c-6.5,0-12.6-3.2-16.3-8.5c-3.8-5.5-4.6-12.5-2.1-18.6l10.9-27.3c2.9-7.4,10-12.3,17.9-12.4
				l43.5-1c0.1,0,0.3,0,0.4,0c6.5,0,12.6,3.2,16.3,8.5c3.8,5.5,4.6,12.5,2.1,18.6l-10.9,27.3c-2.9,7.4-10,12.3-17.9,12.4l-43.5,1
				C91.1,596.9,91,596.9,90.8,596.9z"/>
			<path class="st0" d="M145.2,548.9L145.2,548.9 M145.2,548.9l-10.9,27.3l-43.5,1l10.9-27.3L145.2,548.9 M145.2,509.3
				c-0.1,0-0.3,0-0.4,0c0,0,0,0,0,0c0,0,0,0,0,0c-0.2,0-0.3,0-0.5,0l-43.4,1c-15.9,0.3-30,10.1-35.9,24.9l-10.9,27.3
				c-4.9,12.3-3.3,26.3,4.2,37.2c7.4,10.7,19.6,17,32.5,17c0.3,0,0.6,0,0.9,0l43.5-1c15.9-0.3,30-10.1,35.9-24.9l10.5-26.4
				c2.1-4.8,3.2-10.1,3.2-15.6c0-21.7-17.5-39.4-39.1-39.6C145.5,509.3,145.4,509.3,145.2,509.3L145.2,509.3z M145.2,588.4
				L145.2,588.4L145.2,588.4L145.2,588.4z"/>
		</g>
		<g>
			<path class="st0" d="M39.6,548.9c-6.5,0-12.6-3.2-16.3-8.5c-3.8-5.5-4.6-12.5-2.1-18.6l9.4-23.6c2.9-7.4,10-12.3,17.9-12.4
				l33-0.7c0.1,0,0.3,0,0.4,0c6.5,0,12.6,3.2,16.3,8.5c3.8,5.5,4.6,12.5,2.1,18.6l-9.4,23.6c-2.9,7.4-10,12.3-17.9,12.4l-33,0.7
				C39.9,548.9,39.7,548.9,39.6,548.9z"/>
			<path class="st0" d="M82,504.7L82,504.7 M82,504.7l-9.4,23.6l-33,0.7l9.4-23.6L82,504.7 M82,465.1c-0.1,0-0.3,0-0.4,0
				c0,0,0,0,0,0c0,0,0,0,0,0c-0.2,0-0.3,0-0.5,0l-32.9,0.7c-15.9,0.3-30,10.1-35.9,24.9l-9.4,23.6c-4.9,12.3-3.3,26.3,4.2,37.2
				c7.4,10.7,19.6,17,32.5,17c0.3,0,0.6,0,0.9,0l33-0.7c15.9-0.3,30-10.1,35.9-24.9l9.1-22.7c2.1-4.8,3.2-10.1,3.2-15.6
				c0-21.7-17.5-39.3-39.1-39.6C82.3,465.1,82.2,465.1,82,465.1L82,465.1z M82,544.3L82,544.3L82,544.3L82,544.3z"/>
		</g>
		<g>
			<path class="st0" d="M138.2,647.5c-6.5,0-12.6-3.2-16.3-8.5c-3.8-5.5-4.6-12.5-2.1-18.6l13.3-33.3c2.9-7.4,10-12.3,17.9-12.4
				l56.6-1.2c0.1,0,0.3,0,0.4,0c6.5,0,12.6,3.2,16.3,8.5c3.8,5.5,4.6,12.5,2.1,18.6l-13.3,33.3c-2.9,7.4-10,12.3-17.9,12.4
				l-56.6,1.2C138.5,647.5,138.3,647.5,138.2,647.5z"/>
			<path class="st0" d="M208,593.2L208,593.2 M208,593.2l-13.3,33.3l-56.6,1.2l13.3-33.3L208,593.2 M208,553.6c-0.1,0-0.3,0-0.4,0
				c-0.2,0-0.4,0-0.6,0l-56.4,1.2c-15.9,0.3-30,10.1-35.9,24.9L101.4,613c-4.9,12.3-3.3,26.3,4.2,37.2c7.4,10.7,19.6,17,32.5,17
				c0.3,0,0.6,0,0.9,0l56.6-1.2c15.9-0.3,30-10.1,35.9-24.9l12.9-32.3c2.1-4.8,3.2-10.1,3.2-15.6c0-21.7-17.5-39.4-39.2-39.6
				C208.3,553.6,208.2,553.6,208,553.6L208,553.6z M208,632.8L208,632.8L208,632.8L208,632.8z"/>
		</g>
		<g>
			<path class="st0" d="M199.5,683.7c-6.5,0-12.6-3.2-16.3-8.5c-3.8-5.5-4.6-12.5-2.1-18.6l16.9-42.2c2.9-7.4,10-12.3,17.9-12.4
				l69.6-1.5c0.1,0,0.3,0,0.4,0c6.5,0,12.6,3.2,16.3,8.5c3.8,5.5,4.6,12.5,2.1,18.6l-16.9,42.2c-2.9,7.4-10,12.3-17.9,12.4
				l-69.6,1.5C199.8,683.7,199.7,683.7,199.5,683.7z"/>
			<path class="st0" d="M286,620.1L286,620.1 M286,620.1l-16.9,42.2l-69.6,1.5l16.9-42.2L286,620.1 M286,580.6c-0.1,0-0.3,0-0.4,0
				c0,0,0,0,0,0c0,0,0,0,0,0c-0.2,0-0.3,0-0.5,0l-69.5,1.5c-15.9,0.3-30,10.1-35.9,24.9l-16.9,42.2c-4.9,12.3-3.3,26.3,4.2,37.2
				c7.4,10.7,19.6,17,32.5,17c0.3,0,0.6,0,0.9,0l69.6-1.5c15.9-0.3,30-10.1,35.9-24.9l16.5-41.3c2.1-4.8,3.2-10.1,3.2-15.6
				c0-21.7-17.5-39.3-39.1-39.6C286.3,580.6,286.2,580.6,286,580.6L286,580.6z M286,659.7L286,659.7L286,659.7L286,659.7z"/>
		</g>
		<g>
			<path class="st0" d="M361.2,491.7c-6.5,0-12.6-3.2-16.3-8.5c-3.8-5.5-4.6-12.5-2.1-18.6l22.3-55.7c2.9-7.4,10-12.3,17.9-12.4
				l78.7-1.7c0.1,0,0.3,0,0.4,0c6.5,0,12.6,3.2,16.3,8.5c3.8,5.5,4.6,12.5,2.1,18.6l-22.3,55.7c-2.9,7.4-10,12.3-17.9,12.4
				l-78.7,1.7C361.5,491.7,361.3,491.7,361.2,491.7z"/>
			<path class="st0" d="M462.2,414.4L462.2,414.4 M462.2,414.4l-22.3,55.7l-78.7,1.7l22.3-55.7L462.2,414.4 M462.2,374.8
				c-0.1,0-0.3,0-0.4,0c0,0,0,0,0,0c0,0,0,0,0,0c-0.2,0-0.3,0-0.5,0l-78.6,1.7c-15.9,0.3-30,10.1-35.9,24.9l-22.3,55.7
				c-4.9,12.3-3.3,26.3,4.2,37.2c7.4,10.7,19.6,17,32.5,17c0.3,0,0.6,0,0.9,0l78.7-1.7c15.9-0.3,30-10.1,35.9-24.9l21.9-54.8
				c2.1-4.8,3.2-10.1,3.2-15.6c0-21.7-17.5-39.3-39.1-39.6C462.5,374.8,462.3,374.8,462.2,374.8L462.2,374.8z M462.2,454L462.2,454
				L462.2,454L462.2,454z"/>
		</g>
		<g>
			<path class="st0" d="M183.7,364.4c-6.5,0-12.6-3.2-16.3-8.5c-3.8-5.5-4.6-12.5-2.1-18.6l10.9-27.3c2.9-7.4,10-12.3,17.9-12.4
				l43.5-1c0.1,0,0.3,0,0.4,0c6.5,0,12.6,3.2,16.3,8.5c3.8,5.5,4.6,12.5,2.1,18.6L245.6,351c-2.9,7.4-10,12.3-17.9,12.4l-43.5,1
				C184,364.4,183.9,364.4,183.7,364.4z"/>
			<path class="st0" d="M238.1,316.4L238.1,316.4 M238.1,316.4l-10.9,27.3l-43.5,1l10.9-27.3L238.1,316.4 M238.1,276.8
				c-0.1,0-0.3,0-0.4,0c-0.2,0-0.4,0-0.6,0l-43.4,1c-15.9,0.3-30,10.1-35.9,24.9l-10.9,27.3c-4.9,12.3-3.3,26.3,4.2,37.2
				c7.4,10.7,19.6,17,32.5,17c0.3,0,0.6,0,0.9,0l43.5-1c15.9-0.3,30-10.1,35.9-24.9l10.5-26.4c2.1-4.8,3.2-10.1,3.2-15.6
				c0-21.7-17.5-39.4-39.2-39.6C238.4,276.8,238.2,276.8,238.1,276.8L238.1,276.8z M238.1,356L238.1,356L238.1,356L238.1,356z"/>
		</g>
		<g>
			<path class="st0" d="M132.5,316.4c-6.5,0-12.6-3.2-16.3-8.5c-3.8-5.5-4.6-12.5-2.1-18.6l9.4-23.6c2.9-7.4,10-12.3,17.9-12.4
				l33-0.7c0.1,0,0.3,0,0.4,0c6.5,0,12.6,3.2,16.3,8.5c3.8,5.5,4.6,12.5,2.1,18.6l-9.4,23.6c-2.9,7.4-10,12.3-17.9,12.4l-33,0.7
				C132.8,316.4,132.6,316.4,132.5,316.4z"/>
			<path class="st0" d="M174.9,272.2L174.9,272.2 M174.9,272.2l-9.4,23.6l-33,0.7l9.4-23.6L174.9,272.2 M174.9,232.6
				c-0.1,0-0.3,0-0.4,0c0,0,0,0,0,0c0,0,0,0,0,0c-0.2,0-0.3,0-0.5,0l-32.9,0.7c-15.9,0.3-30,10.1-35.9,24.9l-9.4,23.6
				c-4.9,12.3-3.3,26.3,4.2,37.2c7.4,10.7,19.6,17,32.5,17c0.3,0,0.6,0,0.9,0l33-0.7c15.9-0.3,30-10.1,35.9-24.9l9.1-22.7
				c2.1-4.8,3.2-10.1,3.2-15.6c0-21.7-17.5-39.3-39.1-39.6C175.2,232.6,175,232.6,174.9,232.6L174.9,232.6z M174.9,311.8
				L174.9,311.8L174.9,311.8L174.9,311.8z"/>
		</g>
		<g>
			<path class="st0" d="M231.1,415c-6.5,0-12.6-3.2-16.3-8.5c-3.8-5.5-4.6-12.5-2.1-18.6l13.3-33.3c2.9-7.4,10-12.3,17.9-12.4
				l56.6-1.2c0.1,0,0.3,0,0.4,0c6.5,0,12.6,3.2,16.3,8.5c3.8,5.5,4.6,12.5,2.1,18.6L306,401.3c-2.9,7.4-10,12.3-17.9,12.4l-56.6,1.2
				C231.4,415,231.2,415,231.1,415z"/>
			<path class="st0" d="M300.9,360.7L300.9,360.7 M300.9,360.7L287.6,394l-56.6,1.2l13.3-33.3L300.9,360.7 M300.9,321.1
				c-0.1,0-0.3,0-0.4,0c0,0,0,0,0,0c0,0,0,0,0,0c-0.2,0-0.3,0-0.5,0l-56.4,1.2c-15.9,0.3-30,10.1-35.9,24.9l-13.3,33.3
				c-4.9,12.3-3.3,26.3,4.2,37.2c7.4,10.7,19.6,17,32.5,17c0.3,0,0.6,0,0.9,0l56.6-1.2c15.9-0.3,30-10.1,35.9-24.9l12.9-32.3
				c2.1-4.8,3.2-10.1,3.2-15.6c0-21.7-17.5-39.3-39.1-39.6C301.2,321.1,301.1,321.1,300.9,321.1L300.9,321.1z M300.9,400.3
				L300.9,400.3L300.9,400.3L300.9,400.3z"/>
		</g>
		<g>
			<path class="st0" d="M292.4,451.2c-6.5,0-12.6-3.2-16.3-8.5c-3.8-5.5-4.6-12.5-2.1-18.6l16.9-42.2c2.9-7.4,10-12.3,17.9-12.4
				l69.6-1.5c0.1,0,0.3,0,0.4,0c6.5,0,12.6,3.2,16.3,8.5c3.8,5.5,4.6,12.5,2.1,18.6l-16.9,42.2c-2.9,7.4-10,12.3-17.9,12.4
				l-69.6,1.5C292.7,451.2,292.6,451.2,292.4,451.2z"/>
			<path class="st0" d="M378.9,387.7L378.9,387.7 M378.9,387.7L362,429.9l-69.6,1.5l16.9-42.2L378.9,387.7 M378.9,348.1
				c-0.1,0-0.3,0-0.4,0c0,0,0,0,0,0c0,0,0,0,0,0c-0.2,0-0.3,0-0.5,0l-69.5,1.5c-15.9,0.3-30,10.1-35.9,24.9l-16.9,42.2
				c-4.9,12.3-3.3,26.3,4.2,37.2c7.4,10.7,19.6,17,32.5,17c0.3,0,0.6,0,0.9,0l69.6-1.5c15.9-0.3,30-10.1,35.9-24.9l16.5-41.3
				c2.1-4.8,3.2-10.1,3.2-15.6c0-21.7-17.5-39.3-39.1-39.6C379.2,348.1,379,348.1,378.9,348.1L378.9,348.1z M378.9,427.2
				L378.9,427.2L378.9,427.2L378.9,427.2z"/>
		</g>
		<g>
			<path class="st0" d="M337.6,568.7c-6.4,0-12.5-3.1-16.2-8.4c-3.8-5.5-4.6-12.5-2.2-18.7l18.7-46.8c2.9-7.4,10-12.3,17.9-12.4
				l66.6-1.5c0.1,0,0.3,0,0.4,0c6.5,0,12.6,3.2,16.3,8.5c3.8,5.5,4.6,12.5,2.1,18.6l-18.4,46.2c-2.9,7.3-9.9,12.2-17.8,12.4
				l-66.8,2.1C338,568.7,337.8,568.7,337.6,568.7z"/>
			<path class="st0" d="M422.9,500.7L422.9,500.7 M422.9,500.7l-18.4,46.2l-66.8,2.1l18.7-46.8L422.9,500.7 M422.9,461.1
				c-0.1,0-0.3,0-0.4,0c0,0,0,0,0,0c0,0,0,0,0,0c-0.2,0-0.3,0-0.5,0l-66.4,1.5c-15.9,0.3-30,10.1-35.9,24.9l-18.7,46.8
				c-5,12.4-3.3,26.5,4.3,37.4c7.4,10.6,19.5,16.9,32.4,16.9c0.4,0,0.8,0,1.2,0l66.8-2.1c15.7-0.5,29.7-10.3,35.5-24.9l18.1-45.3
				c2.1-4.8,3.2-10.1,3.2-15.6c0-21.7-17.5-39.3-39.1-39.6C423.2,461.1,423,461.1,422.9,461.1L422.9,461.1z M422.9,540.3
				L422.9,540.3L422.9,540.3L422.9,540.3z"/>
		</g>
		<g>
			<path class="st0" d="M156.1,445.8c-6.5,0-12.6-3.2-16.3-8.5c-3.8-5.5-4.6-12.5-2.1-18.6l9.8-24.5c2.9-7.4,10-12.3,17.9-12.4
				l34.9-0.8c0.1,0,0.3,0,0.4,0c6.5,0,12.6,3.2,16.3,8.5c3.8,5.5,4.6,12.5,2.1,18.6l-9.8,24.5c-2.9,7.4-10,12.3-17.9,12.4l-34.9,0.8
				C156.3,445.8,156.2,445.8,156.1,445.8z"/>
			<path class="st0" d="M200.7,400.7L200.7,400.7 M200.7,400.7l-9.8,24.5l-34.9,0.8l9.8-24.5L200.7,400.7 M200.7,361.1
				c-0.1,0-0.3,0-0.4,0c-0.2,0-0.4,0-0.6,0l-34.8,0.8c-15.9,0.3-30,10.1-35.9,24.9l-9.8,24.5c-4.9,12.3-3.3,26.3,4.2,37.2
				c7.4,10.7,19.6,17,32.5,17c0.3,0,0.6,0,0.9,0l34.9-0.8c15.9-0.3,30-10.1,35.9-24.9l9.4-23.6c2.1-4.8,3.2-10.1,3.2-15.6
				c0-21.7-17.5-39.4-39.2-39.6C201,361.1,200.9,361.1,200.7,361.1L200.7,361.1z M200.7,440.3L200.7,440.3L200.7,440.3L200.7,440.3z
				"/>
		</g>
		<g>
			<path class="st0" d="M104.1,395.7c-6.5,0-12.6-3.2-16.3-8.5c-3.8-5.5-4.6-12.5-2.1-18.6l8.4-21.1c2.9-7.4,10-12.3,17.9-12.4
				l26.1-0.6c0.1,0,0.3,0,0.4,0c6.5,0,12.6,3.2,16.3,8.5c3.8,5.5,4.6,12.5,2.1,18.6l-8.4,21.1c-2.9,7.4-10,12.3-17.9,12.4l-26.1,0.6
				C104.4,395.7,104.2,395.7,104.1,395.7z"/>
			<path class="st0" d="M138.7,354.2L138.7,354.2 M138.7,354.2l-8.4,21.1l-26.1,0.6l8.4-21.1L138.7,354.2 M138.7,314.6
				c-0.1,0-0.3,0-0.4,0c0,0,0,0,0,0c0,0,0,0,0,0c-0.2,0-0.3,0-0.5,0l-26,0.6c-15.9,0.3-30,10.1-35.9,24.9l-8.4,21.1
				c-4.9,12.3-3.3,26.3,4.2,37.2c7.4,10.7,19.6,17,32.5,17c0.3,0,0.6,0,0.9,0l26.1-0.6c15.9-0.3,30-10.1,35.9-24.9l8.1-20.2
				c2.1-4.8,3.2-10.1,3.2-15.6c0-21.7-17.5-39.3-39.1-39.6C139,314.6,138.8,314.6,138.7,314.6L138.7,314.6z M138.7,393.8
				L138.7,393.8L138.7,393.8L138.7,393.8z"/>
		</g>
		<g>
			<path class="st0" d="M205.9,495.1c-6.5,0-12.6-3.2-16.3-8.5c-3.8-5.5-4.6-12.5-2.1-18.6l11.8-29.5c2.9-7.4,10-12.3,17.9-12.4
				l46-1c0.1,0,0.3,0,0.4,0c6.5,0,12.6,3.2,16.3,8.5c3.8,5.5,4.6,12.5,2.1,18.6l-11.8,29.5c-2.9,7.4-10,12.3-17.9,12.4l-46,1
				C206.2,495.1,206,495.1,205.9,495.1z"/>
			<path class="st0" d="M263.6,444.8L263.6,444.8 M263.6,444.8l-11.8,29.5l-46,1l11.8-29.5L263.6,444.8 M263.6,405.2
				c-0.1,0-0.3,0-0.4,0c0,0,0,0,0,0c0,0,0,0,0,0c-0.2,0-0.3,0-0.5,0l-45.9,1c-15.9,0.3-30,10.1-35.9,24.9l-11.8,29.5
				c-4.9,12.3-3.3,26.3,4.2,37.2c7.4,10.7,19.6,17,32.5,17c0.3,0,0.6,0,0.9,0l46-1c15.9-0.3,30-10.1,35.9-24.9l11.4-28.6
				c2.1-4.8,3.2-10.1,3.2-15.6c0-21.7-17.5-39.3-39.1-39.6C263.9,405.2,263.8,405.2,263.6,405.2L263.6,405.2z M263.6,484.4
				L263.6,484.4L263.6,484.4L263.6,484.4z"/>
		</g>
		<g>
			<path class="st0" d="M266.4,533c-6.5,0-12.6-3.2-16.3-8.5c-3.8-5.5-4.6-12.5-2.1-18.6l15.2-38.1c2.9-7.4,10-12.3,17.9-12.4
				l59.9-1.3c0.1,0,0.3,0,0.4,0c6.5,0,12.6,3.2,16.3,8.5c3.8,5.5,4.6,12.5,2.1,18.6l-15.2,38.1c-2.9,7.4-10,12.3-17.9,12.4
				l-59.9,1.3C266.7,533,266.5,533,266.4,533z"/>
			<path class="st0" d="M341.5,473.8L341.5,473.8 M341.5,473.8l-15.2,38.1l-59.9,1.3l15.2-38.1L341.5,473.8 M341.5,434.2
				c-0.1,0-0.3,0-0.4,0c0,0,0,0,0,0c0,0,0,0,0,0c-0.2,0-0.3,0-0.5,0l-59.8,1.3c-15.9,0.3-30,10.1-35.9,24.9l-15.2,38.1
				c-4.9,12.3-3.3,26.3,4.2,37.2c7.4,10.7,19.6,17,32.5,17c0.3,0,0.6,0,0.9,0l59.9-1.3c15.9-0.3,30-10.1,35.9-24.9l14.8-37.1
				c2.1-4.8,3.2-10.1,3.2-15.6c0-21.7-17.5-39.3-39.1-39.6C341.8,434.2,341.7,434.2,341.5,434.2L341.5,434.2z M341.5,513.4
				L341.5,513.4L341.5,513.4L341.5,513.4z"/>
		</g>
		<g>
			<path class="st0" d="M307.8,643.5c-6.5,0-12.6-3.2-16.3-8.5c-3.8-5.5-4.6-12.5-2.1-18.6l18.7-46.9c2.9-7.4,10-12.3,17.9-12.4
				l66.6-1.5c0.1,0,0.3,0,0.4,0c6.5,0,12.6,3.2,16.3,8.5c3.8,5.5,4.6,12.5,2.1,18.6l-18.7,46.9c-2.9,7.4-10,12.3-17.9,12.4
				l-66.6,1.5C308.1,643.5,307.9,643.5,307.8,643.5z"/>
			<path class="st0" d="M393.1,575.3L393.1,575.3 M393.1,575.3l-18.7,46.9l-66.6,1.5l18.7-46.9L393.1,575.3 M393.1,535.7
				c-0.1,0-0.3,0-0.4,0c0,0,0,0,0,0c0,0,0,0,0,0c-0.2,0-0.3,0-0.5,0l-66.4,1.5c-15.9,0.3-30,10.1-35.9,24.9L271,609
				c-4.9,12.3-3.3,26.3,4.2,37.2c7.4,10.7,19.6,17,32.5,17c0.3,0,0.6,0,0.9,0l66.6-1.5c15.9-0.3,30-10.1,35.9-24.9l18.4-46
				c2.1-4.8,3.2-10.1,3.2-15.6c0-21.7-17.5-39.3-39.1-39.6C393.4,535.7,393.2,535.7,393.1,535.7L393.1,535.7z M393.1,614.9
				L393.1,614.9L393.1,614.9L393.1,614.9z"/>
		</g>
		<g>
			<path class="st0" d="M126.3,520.4c-6.5,0-12.6-3.2-16.3-8.5c-3.8-5.5-4.6-12.5-2.1-18.6l9.8-24.5c2.9-7.4,10-12.3,17.9-12.4
				l34.9-0.8c0.1,0,0.3,0,0.4,0c6.5,0,12.6,3.2,16.3,8.5c3.8,5.5,4.6,12.5,2.1,18.6l-9.8,24.5c-2.9,7.4-10,12.3-17.9,12.4l-34.9,0.8
				C126.5,520.4,126.4,520.4,126.3,520.4z"/>
			<path class="st0" d="M170.9,475.3L170.9,475.3 M170.9,475.3l-9.8,24.5l-34.9,0.8l9.8-24.5L170.9,475.3 M170.9,435.7
				c-0.1,0-0.3,0-0.4,0c-0.2,0-0.4,0-0.6,0l-34.8,0.8c-15.9,0.3-30,10.1-35.9,24.9l-9.8,24.5c-4.9,12.3-3.3,26.3,4.2,37.2
				c7.4,10.7,19.6,17,32.5,17c0.3,0,0.6,0,0.9,0l34.9-0.8c15.9-0.3,30-10.1,35.9-24.9l9.4-23.6c2.1-4.8,3.2-10.1,3.2-15.6
				c0-21.7-17.5-39.4-39.2-39.6C171.2,435.7,171.1,435.7,170.9,435.7L170.9,435.7z M170.9,514.9L170.9,514.9L170.9,514.9
				L170.9,514.9z"/>
		</g>
		<g>
			<path class="st0" d="M74.3,470.3c-6.5,0-12.6-3.2-16.3-8.5c-3.8-5.5-4.6-12.5-2.1-18.6l8.4-21.1c2.9-7.4,10-12.3,17.9-12.4
				l26.1-0.6c0.1,0,0.3,0,0.4,0c6.5,0,12.6,3.2,16.3,8.5c3.8,5.5,4.6,12.5,2.1,18.6l-8.4,21.1c-2.9,7.4-10,12.3-17.9,12.4l-26.1,0.6
				C74.6,470.3,74.4,470.3,74.3,470.3z"/>
			<path class="st0" d="M108.9,428.8L108.9,428.8 M108.9,428.8l-8.4,21.1l-26.1,0.6l8.4-21.1L108.9,428.8 M108.9,389.2
				c-0.1,0-0.3,0-0.4,0c0,0,0,0,0,0c0,0,0,0,0,0c-0.2,0-0.3,0-0.5,0l-26,0.6c-15.9,0.3-30,10.1-35.9,24.9l-8.4,21.1
				c-4.9,12.3-3.3,26.3,4.2,37.2c7.4,10.7,19.6,17,32.5,17c0.3,0,0.6,0,0.9,0l26.1-0.6c15.9-0.3,30-10.1,35.9-24.9l8.1-20.2
				c2.1-4.8,3.2-10.1,3.2-15.6c0-21.7-17.5-39.3-39.1-39.6C109.2,389.2,109,389.2,108.9,389.2L108.9,389.2z M108.9,468.4
				L108.9,468.4L108.9,468.4L108.9,468.4z"/>
		</g>
		<g>
			<path class="st0" d="M176.1,569.7c-6.5,0-12.6-3.2-16.3-8.5c-3.8-5.5-4.6-12.5-2.1-18.6l11.8-29.5c2.9-7.4,10-12.3,17.9-12.4
				l46-1c0.1,0,0.3,0,0.4,0c6.5,0,12.6,3.2,16.3,8.5c3.8,5.5,4.6,12.5,2.1,18.6l-11.8,29.5c-2.9,7.4-10,12.3-17.9,12.4l-46,1
				C176.4,569.7,176.2,569.7,176.1,569.7z"/>
			<path class="st0" d="M233.8,519.4L233.8,519.4 M233.8,519.4l-11.8,29.5l-46,1l11.8-29.5L233.8,519.4 M233.8,479.8
				c-0.1,0-0.3,0-0.4,0c-0.2,0-0.4,0-0.6,0l-45.9,1c-15.9,0.3-30,10.1-35.9,24.9l-11.8,29.5c-4.9,12.3-3.3,26.3,4.2,37.2
				c7.4,10.7,19.6,17,32.5,17c0.3,0,0.6,0,0.9,0l46-1c15.9-0.3,30-10.1,35.9-24.9l11.4-28.5c2.1-4.8,3.2-10.1,3.2-15.6
				c0-21.7-17.5-39.4-39.2-39.6C234.1,479.8,234,479.8,233.8,479.8L233.8,479.8z M233.8,559L233.8,559L233.8,559L233.8,559z"/>
		</g>
		<g>
			<path class="st0" d="M236.6,607.6c-6.5,0-12.6-3.2-16.3-8.5c-3.8-5.5-4.6-12.5-2.1-18.6l15.2-38.1c2.9-7.4,10-12.3,17.9-12.4
				l59.9-1.3c0.1,0,0.3,0,0.4,0c6.5,0,12.6,3.2,16.3,8.5c3.8,5.5,4.6,12.5,2.1,18.6l-15.2,38.1c-2.9,7.4-10,12.3-17.9,12.4
				l-59.9,1.3C236.9,607.6,236.8,607.6,236.6,607.6z"/>
			<path class="st0" d="M311.7,548.4L311.7,548.4 M311.7,548.4l-15.2,38.1l-59.9,1.3l15.2-38.1L311.7,548.4 M311.7,508.8
				c-0.1,0-0.3,0-0.4,0c-0.2,0-0.4,0-0.6,0l-59.8,1.3c-15.9,0.3-30,10.1-35.9,24.9l-15.2,38.1c-4.9,12.3-3.3,26.3,4.2,37.2
				c7.4,10.7,19.6,17,32.5,17c0.3,0,0.6,0,0.9,0l59.9-1.3c15.9-0.3,30-10.1,35.9-24.9l14.8-37.1c2.1-4.8,3.2-10.1,3.2-15.6
				c0-21.7-17.5-39.4-39.2-39.6C312,508.8,311.9,508.8,311.7,508.8L311.7,508.8z M311.7,588L311.7,588L311.7,588L311.7,588z"/>
		</g>
		<g>
			<path class="st0" d="M400.7,411c-6.5,0-12.6-3.2-16.3-8.5c-3.8-5.5-4.6-12.5-2.1-18.6l18.7-46.9c2.9-7.4,10-12.3,17.9-12.4
				l66.6-1.5c0.1,0,0.3,0,0.4,0c6.5,0,12.6,3.2,16.3,8.5c3.8,5.5,4.6,12.5,2.1,18.6l-18.7,46.9c-2.9,7.4-10,12.3-17.9,12.4
				l-66.6,1.5C400.9,411,400.8,411,400.7,411z"/>
			<path class="st0" d="M486,342.8L486,342.8 M486,342.8l-18.7,46.9l-66.6,1.5l18.7-46.9L486,342.8 M486,303.2c-0.1,0-0.3,0-0.4,0
				c-0.2,0-0.4,0-0.6,0l-66.4,1.5c-15.9,0.3-30,10.1-35.9,24.9l-18.7,46.9c-4.9,12.3-3.3,26.3,4.2,37.2c7.4,10.7,19.6,17,32.5,17
				c0.3,0,0.6,0,0.9,0l66.6-1.5c15.9-0.3,30-10.1,35.9-24.9l18.4-46c2.1-4.8,3.2-10.1,3.2-15.6c0-21.7-17.5-39.4-39.2-39.6
				C486.2,303.2,486.1,303.2,486,303.2L486,303.2z M486,382.4L486,382.4L486,382.4L486,382.4z"/>
		</g>
		<g>
			<path class="st0" d="M219.1,287.9c-6.5,0-12.6-3.2-16.3-8.5c-3.8-5.5-4.6-12.4-2.1-18.6l9.8-24.5c2.9-7.4,10-12.3,17.9-12.4
				l34.9-0.8c0.1,0,0.3,0,0.4,0c6.5,0,12.6,3.2,16.3,8.5c3.8,5.5,4.6,12.5,2.1,18.6l-9.8,24.5c-2.9,7.4-10,12.3-18,12.4l-34.9,0.7
				C219.4,287.8,219.3,287.9,219.1,287.9z"/>
			<path class="st0" d="M263.8,242.8L263.8,242.8 M263.8,242.8l-9.8,24.5l-34.9,0.7l9.8-24.5L263.8,242.8 M263.8,203.2
				c-0.1,0-0.3,0-0.4,0c0,0,0,0,0,0c0,0,0,0,0,0c-0.2,0-0.3,0-0.5,0l-34.8,0.8c-15.9,0.3-30,10.1-35.9,24.9l-9.8,24.5
				c-4.9,12.3-3.3,26.3,4.2,37.2c7.4,10.7,19.6,17,32.5,17c0.3,0,0.6,0,0.8,0l34.9-0.7c15.9-0.3,30-10.1,35.9-24.9l9.4-23.6
				c2.1-4.8,3.2-10.1,3.2-15.6c0-21.7-17.5-39.3-39.1-39.6C264.1,203.2,264,203.2,263.8,203.2L263.8,203.2z M263.8,282.4
				L263.8,282.4L263.8,282.4L263.8,282.4z"/>
		</g>
		<g>
			<path class="st0" d="M167.2,237.8c-6.5,0-12.6-3.2-16.3-8.5c-3.8-5.5-4.6-12.5-2.1-18.6l8.4-21.1c2.9-7.4,10-12.3,17.9-12.4
				l26.1-0.6c0.1,0,0.3,0,0.4,0c6.5,0,12.6,3.2,16.3,8.5c3.8,5.5,4.6,12.5,2.1,18.6l-8.4,21.1c-2.9,7.4-10,12.3-17.9,12.4l-26.1,0.6
				C167.5,237.8,167.3,237.8,167.2,237.8z"/>
			<path class="st0" d="M201.7,196.3L201.7,196.3 M201.7,196.3l-8.4,21.1l-26.1,0.6l8.4-21.1L201.7,196.3 M201.7,156.7
				c-0.1,0-0.3,0-0.4,0c-0.2,0-0.4,0-0.6,0l-26,0.6c-15.9,0.3-30,10.1-35.9,24.9l-8.4,21.1c-4.9,12.3-3.3,26.3,4.2,37.2
				c7.4,10.7,19.6,17,32.5,17c0.3,0,0.6,0,0.9,0l26.1-0.6c15.9-0.3,30-10.1,35.9-24.9l8.1-20.2c2.1-4.8,3.2-10.1,3.2-15.6
				c0-21.7-17.5-39.4-39.2-39.6C202,156.7,201.9,156.7,201.7,156.7L201.7,156.7z M201.7,235.9L201.7,235.9L201.7,235.9L201.7,235.9z
				"/>
		</g>
		<g>
			<path class="st0" d="M268.9,337.2c-6.5,0-12.6-3.2-16.3-8.5c-3.8-5.5-4.6-12.5-2.1-18.6l11.8-29.5c2.9-7.4,10-12.3,17.9-12.4
				l46-1c0.1,0,0.3,0,0.4,0c6.5,0,12.6,3.2,16.3,8.5c3.8,5.5,4.6,12.5,2.1,18.6l-11.8,29.5c-2.9,7.4-10,12.3-17.9,12.4l-46,1
				C269.2,337.2,269.1,337.2,268.9,337.2z"/>
			<path class="st0" d="M326.7,286.9L326.7,286.9 M326.7,286.9l-11.8,29.5l-46,1l11.8-29.5L326.7,286.9 M326.7,247.3
				c-0.1,0-0.3,0-0.4,0c0,0,0,0,0,0c0,0,0,0,0,0c-0.2,0-0.3,0-0.5,0l-45.9,1c-15.9,0.3-30,10.1-35.9,24.9l-11.8,29.5
				c-4.9,12.3-3.3,26.3,4.2,37.2c7.4,10.7,19.6,17,32.5,17c0.3,0,0.6,0,0.9,0l46-1c15.9-0.3,30-10.1,35.9-24.9l11.4-28.6
				c2.1-4.8,3.2-10.1,3.2-15.6c0-21.7-17.5-39.3-39.1-39.6C327,247.3,326.9,247.3,326.7,247.3L326.7,247.3z M326.7,326.5
				L326.7,326.5L326.7,326.5L326.7,326.5z"/>
		</g>
		<g>
			<path class="st0" d="M329.5,375.1c-6.5,0-12.6-3.2-16.3-8.5c-3.8-5.5-4.6-12.5-2.1-18.6l15.2-38.1c2.9-7.4,10-12.3,17.9-12.4
				l59.9-1.3c0.1,0,0.3,0,0.4,0c6.5,0,12.6,3.2,16.3,8.5c3.8,5.5,4.6,12.5,2.1,18.6l-15.2,38.1c-2.9,7.4-10,12.3-17.9,12.4
				l-59.9,1.3C329.8,375.1,329.6,375.1,329.5,375.1z"/>
			<path class="st0" d="M404.6,315.9L404.6,315.9 M404.6,315.9L389.4,354l-59.9,1.3l15.2-38.1L404.6,315.9 M404.6,276.3
				c-0.1,0-0.3,0-0.4,0c0,0,0,0,0,0c0,0,0,0,0,0c-0.2,0-0.3,0-0.5,0l-59.8,1.3c-15.9,0.3-30,10.1-35.9,24.9l-15.2,38.1
				c-4.9,12.3-3.3,26.3,4.2,37.2c7.4,10.7,19.6,17,32.5,17c0.3,0,0.6,0,0.9,0l59.9-1.3c15.9-0.3,30-10.1,35.9-24.9l14.8-37.1
				c2.1-4.8,3.2-10.1,3.2-15.6c0-21.7-17.5-39.3-39.1-39.6C404.9,276.3,404.7,276.3,404.6,276.3L404.6,276.3z M404.6,355.5
				L404.6,355.5L404.6,355.5L404.6,355.5z"/>
		</g>
		<g>
			<path class="st0" d="M430.5,336.3c-6.5,0-12.6-3.2-16.3-8.5c-3.8-5.5-4.6-12.5-2.1-18.6l18.7-46.9c2.9-7.4,10-12.3,17.9-12.4
				l66.6-1.5c0.1,0,0.3,0,0.4,0c6.5,0,12.6,3.2,16.3,8.5c3.8,5.5,4.6,12.5,2.1,18.6l-18.7,46.9c-2.9,7.4-10,12.3-17.9,12.4
				l-66.6,1.5C430.8,336.3,430.7,336.3,430.5,336.3z"/>
			<path class="st0" d="M515.8,268.1L515.8,268.1 M515.8,268.1L497.1,315l-66.6,1.5l18.7-46.9L515.8,268.1 M515.8,228.5
				c-0.1,0-0.3,0-0.4,0c0,0,0,0,0,0c0,0,0,0,0,0c-0.2,0-0.3,0-0.5,0l-66.4,1.5c-15.9,0.4-30,10.1-35.9,24.9l-18.7,46.9
				c-4.9,12.3-3.3,26.3,4.2,37.2c7.4,10.7,19.6,17,32.5,17c0.3,0,0.6,0,0.9,0l66.6-1.5c15.9-0.3,30-10.1,35.9-24.9l18.4-46
				c2.1-4.8,3.2-10.1,3.2-15.6c0-21.7-17.5-39.4-39.1-39.6C516.1,228.5,516,228.5,515.8,228.5L515.8,228.5z M515.8,307.7
				L515.8,307.7L515.8,307.7L515.8,307.7z"/>
		</g>
		<g>
			<path class="st0" d="M249,213.1c-6.5,0-12.6-3.2-16.3-8.5c-3.8-5.5-4.6-12.5-2.1-18.6l9.8-24.5c2.9-7.4,10-12.3,17.9-12.4
				l34.9-0.8c0.1,0,0.3,0,0.4,0c6.5,0,12.6,3.2,16.3,8.5c3.8,5.5,4.6,12.5,2.1,18.6l-9.8,24.5c-2.9,7.4-10,12.3-17.9,12.4l-34.9,0.8
				C249.3,213.1,249.1,213.1,249,213.1z"/>
			<path class="st0" d="M293.7,168L293.7,168 M293.7,168l-9.8,24.5l-34.9,0.8l9.8-24.5L293.7,168 M293.7,128.4c-0.1,0-0.3,0-0.4,0
				c-0.2,0-0.4,0-0.6,0l-34.8,0.8c-15.9,0.3-30,10.1-35.9,24.9l-9.8,24.5c-4.9,12.3-3.3,26.3,4.2,37.2c7.4,10.7,19.6,17,32.5,17
				c0.3,0,0.6,0,0.9,0l34.9-0.8c15.9-0.3,30-10.1,35.9-24.9l9.4-23.6c2.1-4.8,3.2-10.1,3.2-15.6c0-21.7-17.5-39.4-39.2-39.6
				C294,128.4,293.8,128.4,293.7,128.4L293.7,128.4z M293.7,207.6L293.7,207.6L293.7,207.6L293.7,207.6z"/>
		</g>
		<g>
			<path class="st0" d="M197,163.1c-6.5,0-12.6-3.2-16.3-8.5c-3.8-5.5-4.6-12.5-2.1-18.6l8.4-21.1c2.9-7.4,10-12.3,17.9-12.4
				l26.1-0.6c0.1,0,0.3,0,0.4,0c6.5,0,12.6,3.2,16.3,8.5c3.8,5.5,4.6,12.5,2.1,18.6l-8.4,21.1c-2.9,7.4-10,12.3-17.9,12.4l-26.1,0.6
				C197.3,163.1,197.2,163.1,197,163.1z"/>
			<path class="st0" d="M231.6,121.6L231.6,121.6 M231.6,121.6l-8.4,21.1l-26.1,0.6l8.4-21.1L231.6,121.6 M231.6,82
				c-0.1,0-0.3,0-0.4,0c-0.2,0-0.4,0-0.6,0l-26,0.6c-15.9,0.3-30,10.1-35.9,24.9l-8.4,21.1c-4.9,12.3-3.3,26.3,4.2,37.2
				c7.4,10.7,19.6,17,32.5,17c0.3,0,0.6,0,0.9,0l26.1-0.6c15.9-0.3,30-10.1,35.9-24.9l8.1-20.2c2.1-4.8,3.2-10.1,3.2-15.6
				c0-21.7-17.5-39.4-39.2-39.6C231.9,82,231.7,82,231.6,82L231.6,82z M231.6,161.1L231.6,161.1L231.6,161.1L231.6,161.1z"/>
		</g>
		<g>
			<path class="st0" d="M298.8,262.4c-6.5,0-12.6-3.2-16.3-8.5c-3.8-5.5-4.6-12.5-2.1-18.6l11.8-29.5c2.9-7.4,10-12.3,17.9-12.4
				l46-1c0.1,0,0.3,0,0.4,0c6.5,0,12.6,3.2,16.3,8.5c3.8,5.5,4.6,12.5,2.1,18.6L363.2,249c-2.9,7.4-10,12.3-17.9,12.4l-46,1
				C299.1,262.4,299,262.4,298.8,262.4z"/>
			<path class="st0" d="M356.6,212.2L356.6,212.2 M356.6,212.2l-11.8,29.5l-46,1l11.8-29.5L356.6,212.2 M356.6,172.6
				c-0.1,0-0.3,0-0.4,0c0,0,0,0,0,0c0,0,0,0,0,0c-0.2,0-0.3,0-0.5,0l-45.9,1c-15.9,0.3-30,10.1-35.9,24.9L262,228
				c-4.9,12.3-3.3,26.3,4.2,37.2c7.4,10.7,19.6,17,32.5,17c0.3,0,0.6,0,0.9,0l46-1c15.9-0.3,30-10.1,35.9-24.9l11.4-28.6
				c2.1-4.8,3.2-10.1,3.2-15.6c0-21.7-17.5-39.3-39.1-39.6C356.9,172.6,356.7,172.6,356.6,172.6L356.6,172.6z M356.6,251.7
				L356.6,251.7L356.6,251.7L356.6,251.7z"/>
		</g>
		<g>
			<path class="st0" d="M359.3,300.3c-6.5,0-12.6-3.2-16.3-8.5c-3.8-5.5-4.6-12.5-2.1-18.6l15.2-38.1c2.9-7.4,10-12.3,17.9-12.4
				l59.9-1.3c0.1,0,0.3,0,0.4,0c6.5,0,12.6,3.2,16.3,8.5c3.8,5.5,4.6,12.5,2.1,18.6l-15.2,38.1c-2.9,7.4-10,12.3-17.9,12.4
				l-59.9,1.3C359.6,300.3,359.5,300.3,359.3,300.3z"/>
			<path class="st0" d="M434.4,241.2L434.4,241.2 M434.4,241.2l-15.2,38.1l-59.9,1.3l15.2-38.1L434.4,241.2 M434.4,201.6
				c-0.1,0-0.3,0-0.4,0c0,0,0,0,0,0c0,0,0,0,0,0c-0.2,0-0.3,0-0.5,0l-59.8,1.3c-15.9,0.3-30,10.1-35.9,24.9l-15.2,38.1
				c-4.9,12.3-3.3,26.3,4.2,37.2c7.4,10.7,19.6,17,32.5,17c0.3,0,0.6,0,0.9,0l59.9-1.3c15.9-0.3,30-10.1,35.9-24.9l14.8-37.1
				c2.1-4.8,3.2-10.1,3.2-15.6c0-21.7-17.5-39.4-39.1-39.6C434.7,201.6,434.6,201.6,434.4,201.6L434.4,201.6z M434.4,280.8
				L434.4,280.8L434.4,280.8L434.4,280.8z"/>
		</g>
		<g>
			<path class="st0" d="M454.1,259c-6.5,0-12.6-3.2-16.3-8.5c-3.8-5.5-4.6-12.5-2.1-18.6l22.3-55.7c2.9-7.4,10-12.3,17.9-12.4
				l78.7-1.7c0.1,0,0.3,0,0.4,0c6.5,0,12.6,3.2,16.3,8.5c3.8,5.5,4.6,12.5,2.1,18.6l-22.3,55.7c-2.9,7.4-10,12.3-17.9,12.4
				l-78.7,1.7C454.4,259,454.3,259,454.1,259z"/>
			<path class="st0" d="M555.1,181.8L555.1,181.8 M555.1,181.8l-22.3,55.7l-78.7,1.7l22.3-55.7L555.1,181.8 M555.1,142.2
				c-0.1,0-0.3,0-0.4,0c-0.2,0-0.4,0-0.6,0l-78.6,1.7c-15.9,0.3-30,10.1-35.9,24.9l-22.3,55.7c-4.9,12.3-3.3,26.3,4.2,37.2
				c7.4,10.7,19.6,17,32.5,17c0.3,0,0.6,0,0.9,0l78.7-1.7c15.9-0.3,30-10.1,35.9-24.9l21.9-54.8c2.1-4.8,3.2-10.1,3.2-15.6
				c0-21.7-17.5-39.4-39.2-39.6C555.4,142.2,555.3,142.2,555.1,142.2L555.1,142.2z M555.1,221.3L555.1,221.3L555.1,221.3
				L555.1,221.3z"/>
		</g>
		<g>
			<path class="st0" d="M276.6,131.8c-6.5,0-12.6-3.2-16.3-8.5c-3.8-5.5-4.6-12.5-2.1-18.6l10.9-27.3c2.9-7.4,10-12.3,17.9-12.4
				l43.5-1c0.1,0,0.3,0,0.4,0c6.5,0,12.6,3.2,16.3,8.5c3.8,5.5,4.6,12.5,2.1,18.6l-10.9,27.3c-2.9,7.4-10,12.3-17.9,12.4l-43.5,1
				C276.9,131.8,276.8,131.8,276.6,131.8z"/>
			<path class="st0" d="M331,83.7L331,83.7 M331,83.7L320.1,111l-43.5,1l10.9-27.3L331,83.7 M331,44.1c-0.1,0-0.3,0-0.4,0
				c-0.2,0-0.4,0-0.6,0l-43.4,1c-15.9,0.3-30,10.1-35.9,24.9l-10.9,27.3c-4.9,12.3-3.3,26.3,4.2,37.2c7.4,10.7,19.6,17,32.5,17
				c0.3,0,0.6,0,0.9,0l43.5-1c15.9-0.3,30-10.1,35.9-24.9l10.5-26.4c2.1-4.8,3.2-10.1,3.2-15.6c0-21.7-17.5-39.4-39.2-39.6
				C331.3,44.1,331.2,44.1,331,44.1L331,44.1z M331,123.3L331,123.3L331,123.3L331,123.3z"/>
		</g>
		<g>
			<path class="st0" d="M225.4,83.7c-6.5,0-12.6-3.2-16.3-8.5c-3.8-5.5-4.6-12.5-2.1-18.6l9.4-23.6c2.9-7.4,10-12.3,17.9-12.4
				l33-0.7c0.1,0,0.3,0,0.4,0c6.5,0,12.6,3.2,16.3,8.5c3.8,5.5,4.6,12.5,2.1,18.6l-9.4,23.6c-2.9,7.4-10,12.3-17.9,12.4l-33,0.7
				C225.7,83.7,225.5,83.7,225.4,83.7z"/>
			<path class="st0" d="M267.8,39.6L267.8,39.6 M267.8,39.6l-9.4,23.6l-33,0.7l9.4-23.6L267.8,39.6 M267.8,0c-0.1,0-0.3,0-0.4,0
				c0,0,0,0,0,0c0,0,0,0,0,0c-0.2,0-0.3,0-0.5,0L234,0.7c-15.9,0.3-30,10.1-35.9,24.9l-9.4,23.6c-4.9,12.3-3.3,26.3,4.2,37.2
				c7.4,10.7,19.6,17,32.5,17c0.3,0,0.6,0,0.9,0l33-0.7c15.9-0.3,30-10.1,35.9-24.9l9.1-22.7c2.1-4.8,3.2-10.1,3.2-15.6
				c0-21.7-17.5-39.4-39.1-39.6C268.1,0,268,0,267.8,0L267.8,0z M267.8,79.2L267.8,79.2L267.8,79.2L267.8,79.2z"/>
		</g>
		<g>
			<path class="st0" d="M324,182.4c-6.5,0-12.6-3.2-16.3-8.5c-3.8-5.5-4.6-12.5-2.1-18.6l13.3-33.3c2.9-7.4,10-12.3,17.9-12.4
				l56.6-1.2c0.1,0,0.3,0,0.4,0c6.5,0,12.6,3.2,16.3,8.5c3.8,5.5,4.6,12.5,2.1,18.6l-13.3,33.3c-2.9,7.4-10,12.3-17.9,12.4
				l-56.6,1.2C324.3,182.4,324.2,182.4,324,182.4z"/>
			<path class="st0" d="M393.9,128.1L393.9,128.1 M393.9,128.1l-13.3,33.3l-56.6,1.2l13.3-33.3L393.9,128.1 M393.9,88.5
				c-0.1,0-0.3,0-0.4,0c0,0,0,0,0,0c0,0,0,0,0,0c-0.2,0-0.3,0-0.5,0l-56.4,1.2c-15.9,0.3-30,10.1-35.9,24.9l-13.3,33.3
				c-4.9,12.3-3.3,26.3,4.2,37.2c7.4,10.7,19.6,17,32.5,17c0.3,0,0.6,0,0.9,0l56.6-1.2c15.9-0.3,30-10.1,35.9-24.9l12.9-32.3
				c2.1-4.8,3.2-10.1,3.2-15.6c0-21.7-17.5-39.3-39.1-39.6C394.1,88.5,394,88.5,393.9,88.5L393.9,88.5z M393.9,167.7L393.9,167.7
				L393.9,167.7L393.9,167.7z"/>
		</g>
		<g>
			<path class="st0" d="M385.4,218.5c-6.5,0-12.6-3.2-16.3-8.5c-3.8-5.5-4.6-12.5-2.1-18.6l16.9-42.2c2.9-7.4,10-12.3,17.9-12.4
				l69.6-1.5c0.1,0,0.3,0,0.4,0c6.5,0,12.6,3.2,16.3,8.5c3.8,5.5,4.6,12.5,2.1,18.6l-16.9,42.2c-2.9,7.4-10,12.3-17.9,12.4
				l-69.6,1.5C385.7,218.5,385.5,218.5,385.4,218.5z"/>
			<path class="st0" d="M471.8,155L471.8,155 M471.8,155L455,197.2l-69.6,1.5l16.9-42.2L471.8,155 M471.8,115.4c-0.1,0-0.3,0-0.4,0
				c0,0,0,0,0,0c0,0,0,0,0,0c-0.2,0-0.3,0-0.5,0l-69.5,1.5c-15.9,0.3-30,10.1-35.9,24.9l-16.9,42.2c-4.9,12.3-3.3,26.3,4.2,37.2
				c7.4,10.7,19.6,17,32.5,17c0.3,0,0.6,0,0.9,0l69.6-1.5c15.9-0.3,30-10.1,35.9-24.9l16.5-41.3c2.1-4.8,3.2-10.1,3.2-15.6
				c0-21.7-17.5-39.3-39.1-39.6C472.1,115.4,472,115.4,471.8,115.4L471.8,115.4z M471.8,194.6L471.8,194.6L471.8,194.6L471.8,194.6z
				"/>
		</g>
		<g>
			<path class="st0" d="M413.2,586.9c-6.5,0-12.6-3.2-16.3-8.5c-3.8-5.5-4.6-12.4-2.1-18.6l26.3-65.9c3-7.4,10-12.3,18-12.4
				l84.6-1.6c0.1,0,0.3,0,0.4,0c6.5,0,12.6,3.2,16.3,8.5c3.8,5.5,4.6,12.4,2.1,18.6l-26.3,65.9c-3,7.4-10,12.3-18,12.4l-84.6,1.6
				C413.4,586.9,413.3,586.9,413.2,586.9z"/>
			<path class="st0" d="M524.1,499.6L524.1,499.6 M524.1,499.6l-26.3,65.9l-84.6,1.6l26.3-65.9L524.1,499.6 M524.1,460
				C524.1,460,524.1,460,524.1,460C524,460,524,460,524.1,460c-0.1,0-0.1,0-0.1,0c0,0,0,0,0,0c0,0,0,0,0,0c-0.2,0-0.5,0-0.7,0
				l-84.5,1.6c-15.9,0.3-30.1,10.1-36,24.9l-26.3,65.9c-4.9,12.3-3.3,26.3,4.2,37.2c7.4,10.7,19.6,17.1,32.6,17.1c0.3,0,0.5,0,0.8,0
				l84.6-1.6c15.9-0.3,30.1-10.1,36-24.9l26-65c2.1-4.8,3.2-10.1,3.2-15.6c0-21.8-17.6-39.5-39.4-39.6c0,0,0,0,0,0c0,0,0,0,0,0
				C524.2,460,524.2,460,524.1,460C524.2,460,524.2,460,524.1,460C524.1,460,524.1,460,524.1,460L524.1,460z M524.1,539.2
				L524.1,539.2L524.1,539.2L524.1,539.2z"/>
		</g>
		<g>
			<path class="st0" d="M383,662.5c-6.5,0-12.6-3.2-16.3-8.5c-3.8-5.5-4.6-12.4-2.1-18.6l26.3-65.9c3-7.4,10-12.3,18-12.4l84.6-1.6
				c0.1,0,0.3,0,0.4,0c6.5,0,12.6,3.2,16.3,8.5c3.8,5.5,4.6,12.4,2.1,18.6L486,648.4c-3,7.4-10,12.3-18,12.4l-84.6,1.6
				C383.2,662.5,383.1,662.5,383,662.5z"/>
			<path class="st0" d="M493.9,575.2L493.9,575.2 M493.9,575.2l-26.3,65.9l-84.6,1.6l26.3-65.9L493.9,575.2 M493.9,535.6
				C493.9,535.6,493.9,535.6,493.9,535.6C493.8,535.6,493.8,535.6,493.9,535.6c-0.1,0-0.1,0-0.1,0c0,0,0,0,0,0c0,0,0,0,0,0
				c-0.2,0-0.5,0-0.7,0l-84.5,1.6c-15.9,0.3-30.1,10.1-36,24.9L346.2,628c-4.9,12.3-3.3,26.3,4.2,37.2c7.4,10.7,19.6,17.1,32.6,17.1
				c0.3,0,0.5,0,0.8,0l84.6-1.6c15.9-0.3,30.1-10.1,36-24.9l26-65c2.1-4.8,3.2-10.1,3.2-15.6c0-21.8-17.6-39.5-39.4-39.6
				c0,0,0,0,0,0c0,0,0,0,0,0C494,535.6,494,535.6,493.9,535.6C494,535.6,494,535.6,493.9,535.6C494,535.6,493.9,535.6,493.9,535.6
				L493.9,535.6z M493.9,614.8L493.9,614.8L493.9,614.8L493.9,614.8z"/>
		</g>
		<g>
			<path class="st0" d="M347.8,750.4c-6.2,0-12.2-3-15.9-8c-4.1-5.5-5-12.7-2.5-19.1l31.3-78.3c3-7.4,10-12.3,18-12.4l84.6-1.6
				c0.1,0,0.3,0,0.4,0c6.5,0,12.6,3.2,16.3,8.5c3.8,5.5,4.6,12.4,2.1,18.6l-30.4,76.2c-3,7.5-10.3,12.4-18.4,12.5
				c-26.5,0-54.7,1.3-83.8,3.7C348.9,750.4,348.4,750.4,347.8,750.4z"/>
			<path class="st0" d="M463.7,650.7L463.7,650.7 M463.7,650.7l-30.4,76.2c-28.6,0-57.4,1.4-85.5,3.7l31.3-78.3L463.7,650.7
				 M463.7,611.1c0,0-0.1,0-0.1,0c0,0,0,0,0,0c0,0,0,0-0.1,0c-0.2,0-0.5,0-0.7,0l-84.5,1.6c-15.9,0.3-30.1,10.1-36,24.9L311.1,716
				c-5.1,12.7-3.2,27.2,4.9,38.2c7.5,10.1,19.3,16,31.8,16c1.1,0,2.2,0,3.3-0.1c28.6-2.4,56.2-3.6,82.2-3.6
				c16.2,0,30.7-9.9,36.7-24.9l30.1-75.3c2.1-4.8,3.2-10.1,3.2-15.6c0-21.8-17.6-39.5-39.4-39.6c0,0,0,0,0,0c0,0,0,0,0,0
				C463.8,611.1,463.8,611.1,463.7,611.1L463.7,611.1z M463.7,690.3L463.7,690.3L463.7,690.3L463.7,690.3z"/>
		</g>
		<g>
			<path class="st0" d="M443.3,511.4c-6.5,0-12.6-3.2-16.3-8.5c-3.8-5.5-4.6-12.4-2.1-18.6l26.3-65.9c3-7.4,10-12.3,18-12.4
				l84.6-1.6c0.1,0,0.3,0,0.4,0c6.5,0,12.6,3.2,16.3,8.5c3.8,5.5,4.6,12.4,2.1,18.6l-26.3,65.9c-3,7.4-10,12.3-18,12.4l-84.6,1.6
				C443.6,511.4,443.5,511.4,443.3,511.4z"/>
			<path class="st0" d="M554.3,424.1L554.3,424.1 M554.3,424.1L527.9,490l-84.6,1.6l26.3-65.9L554.3,424.1 M554.3,384.5
				c0,0-0.1,0-0.1,0c0,0,0,0,0,0c0,0,0,0-0.1,0c-0.2,0-0.5,0-0.7,0l-84.5,1.6c-15.9,0.3-30.1,10.1-36,24.9l-26.3,65.9
				c-4.9,12.3-3.3,26.3,4.2,37.2c7.4,10.7,19.6,17.1,32.6,17.1c0.3,0,0.5,0,0.8,0l84.6-1.6c15.9-0.3,30.1-10.1,36-24.9l26-65
				c2.1-4.8,3.2-10.1,3.2-15.6c0-21.8-17.6-39.5-39.4-39.6c0,0,0,0,0,0c0,0,0,0,0,0C554.4,384.5,554.3,384.5,554.3,384.5
				L554.3,384.5z M554.3,463.7L554.3,463.7L554.3,463.7L554.3,463.7z"/>
		</g>
		<g>
			<path class="st0" d="M473.5,435.8c-6.5,0-12.6-3.2-16.3-8.5c-3.8-5.5-4.6-12.4-2.1-18.6l26.3-65.9c3-7.4,10-12.3,18-12.4
				l84.6-1.6c0.1,0,0.3,0,0.4,0c6.5,0,12.6,3.2,16.3,8.5c3.8,5.5,4.6,12.4,2.1,18.6l-26.3,65.9c-3,7.4-10,12.3-18,12.4l-84.6,1.6
				C473.8,435.8,473.6,435.8,473.5,435.8z"/>
			<path class="st0" d="M584.5,348.5L584.5,348.5 M584.5,348.5l-26.3,65.9l-84.6,1.6l26.3-65.9L584.5,348.5 M584.5,308.9
				C584.4,308.9,584.4,308.9,584.5,308.9C584.4,308.9,584.4,308.9,584.5,308.9c-0.1,0-0.1,0-0.1,0c0,0,0,0,0,0c0,0,0,0,0,0
				c-0.2,0-0.5,0-0.7,0l-84.5,1.6c-15.9,0.3-30.1,10.1-36,24.9l-26.3,65.9c-4.9,12.3-3.3,26.3,4.2,37.2
				c7.4,10.7,19.6,17.1,32.6,17.1c0.3,0,0.5,0,0.8,0l84.6-1.6c15.9-0.3,30.1-10.1,36-24.9l26-65c2.1-4.8,3.2-10.1,3.2-15.6
				c0-21.8-17.6-39.5-39.4-39.6c0,0,0,0,0,0c0,0,0,0,0,0C584.6,308.9,584.5,308.9,584.5,308.9C584.5,308.9,584.5,308.9,584.5,308.9
				C584.5,308.9,584.5,308.9,584.5,308.9L584.5,308.9z M584.5,388.1L584.5,388.1L584.5,388.1L584.5,388.1z"/>
		</g>
		<g>
			<path class="st0" d="M503.7,360.3c-6.5,0-12.6-3.2-16.3-8.5c-3.8-5.5-4.6-12.4-2.1-18.6l26.3-65.9c3-7.4,10-12.3,18-12.4
				l84.6-1.6c0.1,0,0.3,0,0.4,0c6.5,0,12.6,3.2,16.3,8.5c3.8,5.5,4.6,12.4,2.1,18.6l-26.3,65.9c-3,7.4-10,12.3-18,12.4l-84.6,1.6
				C504,360.3,503.8,360.3,503.7,360.3z"/>
			<path class="st0" d="M614.6,273L614.6,273 M614.6,273l-26.3,65.9l-84.6,1.6l26.3-65.9L614.6,273 M614.6,233.4c0,0-0.1,0-0.1,0
				c0,0,0,0,0,0c0,0,0,0-0.1,0c-0.2,0-0.5,0-0.7,0l-84.5,1.6c-15.9,0.3-30.1,10.1-36,24.9l-26.3,65.9c-4.9,12.3-3.3,26.3,4.2,37.2
				c7.4,10.7,19.6,17.1,32.6,17.1c0.3,0,0.5,0,0.8,0l84.6-1.6c15.9-0.3,30.1-10.1,36-24.9l26-65c2.1-4.8,3.2-10.1,3.2-15.6
				c0-21.8-17.6-39.5-39.4-39.6c0,0,0,0,0,0c0,0,0,0,0,0C614.7,233.4,614.7,233.4,614.6,233.4L614.6,233.4z M614.6,312.5
				L614.6,312.5L614.6,312.5L614.6,312.5z"/>
		</g>
		<g>
			<path class="st0" d="M533.9,284.7c-6.5,0-12.6-3.2-16.3-8.5c-3.8-5.5-4.6-12.4-2.1-18.6l30-75.2c2.8-7,9.3-11.8,16.7-12.4
				c30.2-2.5,59.5-3.8,87.1-3.8c0,0,0,0,0,0c6.6,0,12.7,3.3,16.4,8.7c3.7,5.4,4.4,12.3,2,18.4l-30.9,77.3c-3,7.4-10,12.3-18,12.4
				l-84.6,1.6C534.1,284.7,534,284.7,533.9,284.7z"/>
			<path class="st0" d="M649.4,186L649.4,186 M649.4,186l-30.9,77.3l-84.6,1.6l30-75.2C592,187.4,620.8,186,649.4,186 M649.4,146.4
				C649.4,146.4,649.4,146.4,649.4,146.4c-28.2,0-58,1.3-88.7,3.9c-15,1.2-27.9,10.8-33.5,24.8l-30,75.2
				c-4.9,12.3-3.3,26.3,4.2,37.2c7.4,10.7,19.6,17.1,32.6,17.1c0.3,0,0.5,0,0.8,0l84.6-1.6c15.9-0.3,30.1-10.1,36-24.9l30.5-76.4
				c2.1-4.8,3.2-10.1,3.2-15.6c0-21.8-17.7-39.5-39.5-39.6C649.5,146.4,649.5,146.4,649.4,146.4
				C649.5,146.4,649.5,146.4,649.4,146.4C649.4,146.4,649.4,146.4,649.4,146.4L649.4,146.4z M649.4,225.6L649.4,225.6L649.4,225.6
				L649.4,225.6z"/>
		</g>
		<g>
			<path class="st0" d="M808.9,902.3c-5.9,0-11.5-2.6-15.3-7.2c-41.1-49.8-98.9-89.8-171.9-119c-46.9-18.7-107.1-28.6-178.9-29.4
				c-6.5-0.1-12.6-3.4-16.2-8.8c-3.6-5.4-4.4-12.3-1.9-18.4l116.8-292.5l68.4-171.5c0.2-0.5,0.4-1,0.7-1.5l30.2-75.5
				c3-7.5,10.3-12.5,18.4-12.5c0.1,0,0.1,0,0.2,0c76.7,0.8,141.7,11.6,193.2,32.2c79.3,31.7,142.5,75.6,187.8,130.6
				c4.6,5.6,5.8,13.2,3.1,19.9L827.2,889.9c-2.6,6.5-8.4,11.1-15.3,12.2C810.9,902.2,809.9,902.3,808.9,902.3z"/>
			<path class="st0" d="M659,186c66.4,0.7,131.7,9.1,186,30.8c89.9,35.9,145.6,83.3,179.9,124.8L808.9,882.5
				c-34.2-41.5-90-88.9-179.9-124.8c-54.3-21.7-119.6-30.1-186-30.8l30.3-75.9l68.8-172.2h0l17.7-44.4L628.2,263c0,0,0,0,0.1,0
				L659,186 M659,146.4c-16.2,0-30.7,9.9-36.8,24.9l-29.9,74.9c-0.3,0.7-0.6,1.4-0.9,2.1L523,419.8l-17.7,44.3l-68.8,172.2
				l-30.3,75.9c-4.8,12.1-3.4,25.9,3.9,36.7c7.3,10.9,19.4,17.4,32.5,17.6c69.3,0.7,127.1,10.1,171.8,28
				c38.3,15.3,72.7,34,102.1,55.5c23.8,17.4,44.7,36.8,61.9,57.7c7.6,9.2,18.8,14.4,30.5,14.4c2,0,4.1-0.2,6.1-0.5
				c13.8-2.2,25.5-11.4,30.7-24.4l216.1-540.9c5.4-13.4,3-28.7-6.2-39.9c-21.4-26-47.1-49.9-76.3-71.3
				c-34.8-25.4-75-47.3-119.5-65.1c-53.8-21.5-121.1-32.8-200.3-33.6C659.3,146.4,659.2,146.4,659,146.4L659,146.4z"/>
		</g>
	</g>
	<g>
		<g>
			<g>
				<polygon points="268.3,704.4 290.6,648.6 290.6,648.6 369.3,646.9 347,702.6 				"/>
				<polygon points="101.7,549.8 90.8,577.1 134.3,576.1 145.2,548.9 				"/>
				<polygon points="72.6,528.4 82,504.7 49,505.5 39.6,529.1 				"/>
				<polygon points="151.5,594.5 138.2,627.7 194.8,626.5 208,593.2 				"/>
				<polygon points="199.5,663.9 216.4,621.7 286,620.1 269.2,662.3 				"/>
			</g>
			<g>
				<polygon points="361.2,471.9 439.9,470.1 462.2,414.4 383.5,416.1 				"/>
				<polygon points="227.2,343.6 238.1,316.4 194.6,317.3 183.7,344.6 				"/>
				<polygon points="132.5,296.6 141.9,273 174.9,272.2 165.4,295.9 				"/>
				<polygon points="287.6,394 300.9,360.7 244.4,362 231.1,395.2 				"/>
				<polygon points="309.3,389.2 292.4,431.4 362,429.9 378.9,387.7 				"/>
			</g>
			<g>
				<g>
					<polygon class="st2" points="422.9,500.7 356.3,502.2 337.6,549 404.4,546.9 					"/>
				</g>
				<polygon class="st2" points="156.1,426 165.9,401.5 200.7,400.7 190.9,425.2 				"/>
				<polygon class="st2" points="112.5,354.8 104.1,375.9 130.2,375.3 138.7,354.2 				"/>
				<polygon class="st2" points="205.9,475.3 217.6,445.8 263.6,444.8 251.9,474.3 				"/>
				<polygon class="st2" points="341.5,473.8 326.3,511.9 266.4,513.2 281.6,475.1 				"/>
			</g>
			<g>
				<polygon class="st2" points="307.8,623.7 326.5,576.8 393.1,575.3 374.3,622.2 				"/>
				<polygon class="st2" points="170.9,475.3 161.1,499.8 126.3,500.6 136.1,476 				"/>
				<polygon class="st2" points="100.4,449.9 108.9,428.8 82.7,429.4 74.3,450.5 				"/>
				<polygon class="st2" points="176.1,549.9 187.8,520.4 233.8,519.4 222.1,548.9 				"/>
				<polygon class="st2" points="311.7,548.4 296.5,586.5 236.6,587.8 251.8,549.7 				"/>
			</g>
			<g>
				<polygon class="st3" points="486,342.8 467.2,389.7 400.7,391.2 419.4,344.3 				"/>
				<polygon class="st3" points="219.1,268.1 228.9,243.5 263.8,242.8 254,267.3 				"/>
				<polygon class="st3" points="167.2,218 175.6,196.9 201.7,196.3 193.3,217.4 				"/>
				<polygon class="st3" points="268.9,317.4 280.7,287.9 326.7,286.9 314.9,316.4 				"/>
				<polygon class="st3" points="404.6,315.9 389.4,354 329.5,355.3 344.7,317.2 				"/>
			</g>
			<g>
				<polygon class="st3" points="449.3,269.5 430.5,316.5 497.1,315 515.8,268.1 				"/>
				<polygon class="st3" points="249,193.4 258.8,168.8 293.7,168 283.9,192.6 				"/>
				<polygon class="st3" points="197,143.3 205.5,122.1 231.6,121.6 223.2,142.7 				"/>
				<polygon class="st3" points="298.8,242.6 310.6,213.2 356.6,212.2 344.8,241.6 				"/>
				<polygon class="st3" points="434.4,241.2 419.2,279.2 359.3,280.5 374.5,242.5 				"/>
			</g>
			<g>
				<g>
					<polygon points="555.1,181.8 532.8,237.5 454.1,239.2 476.4,183.5 					"/>
					<polygon points="320.1,111 331,83.7 287.5,84.7 276.6,112 					"/>
					<polygon points="234.8,40.3 225.4,64 258.4,63.2 267.8,39.6 					"/>
					<polygon points="324,162.6 337.3,129.3 393.9,128.1 380.6,161.3 					"/>
					<polygon points="402.2,156.5 385.4,198.7 455,197.2 471.8,155 					"/>
				</g>
			</g>
			<g>
				<polygon points="524.1,499.6 439.5,501.2 413.2,567.1 497.8,565.5 				"/>
				<polygon points="467.6,641.1 493.9,575.2 409.3,576.8 383,642.7 				"/>
				<path d="M379.1,652.3l-31.3,78.3c28.1-2.3,56.8-3.7,85.5-3.7l30.4-76.2L379.1,652.3z"/>
				<polygon points="443.3,491.6 469.7,425.7 554.3,424.1 527.9,490 				"/>
				<polygon points="558.1,414.4 473.5,416 499.9,350.1 584.5,348.5 				"/>
				<polygon points="588.3,338.9 503.7,340.5 530,274.6 614.6,273 				"/>
				<path d="M618.5,263.3l30.9-77.3c-28.6,0-57.4,1.4-85.5,3.7l-30,75.2L618.5,263.3z"/>
				<path d="M845.1,216.8c-54.3-21.7-119.6-30.1-186-30.8L442.9,727c66.4,0.7,131.7,9.1,186,30.8c89.9,35.9,145.6,83.3,179.9,124.8
					l216.1-540.9C990.7,300.1,934.9,252.7,845.1,216.8z"/>
			</g>
			<g>
				<path class="st4" d="M866.9,530.4c-31.6-28.2-71.4-52-118.8-70.9c-0.1,0-0.2-0.1-0.3-0.1l68.5-171.5c0.1,0,0.2,0.1,0.3,0.1
					c47.4,18.9,87.1,42.7,118.8,70.9L866.9,530.4z"/>
				<path class="st3" d="M628.2,263l-68.4,171.5c54.5-1.4,102.5,2.4,142.3,11.2l0.9-2.1l67.6-169.3
					C730.8,265.4,682.8,261.6,628.2,263z"/>
				<path class="st5" d="M730.1,503.7c0.1,0,0.2,0.1,0.3,0.1c47.4,18.9,87.1,42.7,118.8,70.9l-70.5,176.6
					c-35.7-25.2-76.2-46.9-121.2-64.9c-0.1,0-0.2-0.1-0.3-0.1L730.1,503.7z"/>
				<path class="st2" d="M542.1,478.8L473.3,651c51.3,2.3,97.7,9,138.7,20.3l2.9-7.3l69.5-174C644.6,481.3,596.6,477.5,542.1,478.8z
					"/>
			</g>
		</g>
		<g>
			<path class="st0" d="M1253.9,540.8c-1.2,1.6-3.1,2.7-5.7,3.5c-2.5,0.8-7.6,1.2-15.3,1.2h-98.4v4.2l15,26.4l4.8-1.3
				c-1.3-2.5-2-4.7-2-6.5c0-1.7,0.6-3,1.7-3.9c1.1-1,3.1-1.7,6-2.1c3.9-0.6,12.5-0.9,25.8-0.9h47.2c7.6,0,12.7,0.4,15.4,1.3
				c2.7,0.9,4.6,2,5.8,3.5c0.9,1.2,1.5,3.3,1.7,6.3h-0.1v4.5c0,5.1-1.9,8.8-5.6,11.2c-2.8,1.8-9.7,2.7-20.9,2.7h-118.5
				c-10.2,0-16.7-0.7-19.5-2.1c-4.6-2.3-7-6.2-7-11.8v-4.5h-4.9v36.7l141.9,46.2l-141.9,47v36.7h4.9c0-5.3,0.9-9.1,2.6-11.5
				c1.7-2.4,3.9-4,6.5-4.9c3.6-1.3,9.4-1.9,17.4-1.9h118.5c10.2,0,16.7,0.7,19.5,2.1c4.6,2.3,7,6.2,7,11.7v4.6h4.9V694h-4.9v4.6
				c0,5.1-1.9,8.8-5.6,11.2c-2.8,1.7-9.7,2.6-20.9,2.6H1108l152.6-50.1v-3.2l-152.6-50h121.1c10.2,0,16.7,0.7,19.5,2.1
				c4.6,2.2,7,6.1,7,11.7v4.6h4.9v-52.7v-2.3v-40.2h-4.8C1255.8,536.4,1255.1,539.3,1253.9,540.8z"/>
			<path class="st0" d="M1093.6,560.4c2.7-1.9,4-4.2,4-6.9c0-2.7-1.3-5-4-6.8c-2.7-1.9-5.9-2.8-9.6-2.8c-3.7,0-6.9,0.9-9.6,2.8
				c-2.6,1.9-3.9,4.2-3.9,6.8c0,2.7,1.3,5,3.9,6.9c2.6,1.9,5.8,2.8,9.6,2.8C1087.7,563.2,1090.9,562.3,1093.6,560.4z"/>
			<path class="st0" d="M1251.3,478.3c-8.7-6.9-21.1-11.5-37.2-13.9l-1.9,2.8c10.8,3.3,18.2,6.7,22.3,10.2c6,5,9,10.6,9,16.8
				c0,8.7-5.6,15.7-16.8,20.8c-11.2,5.1-24.1,7.7-38.7,7.7c-14.3,0-25.9-2.6-34.6-7.7c-6.6-3.9-9.9-9-9.9-15.4c0-3.9,1.3-7,4-9.3
				c2.8-2.2,6.8-3.5,12-3.9c5.3-0.3,8.8-1.1,10.7-2.2c3.4-1.9,5.1-4.7,5.1-8.5c0-2.8-1-5-3.1-6.5c-2.1-1.6-4.8-2.3-8.2-2.3
				c-6.9,0-13.5,2.8-19.9,8.3c-6.4,5.5-9.6,12.6-9.6,21.2c0,11.5,6,21.3,18.1,29.5c12,8.2,27.7,12.3,46.9,12.3
				c19.9,0,35.7-3.7,47.3-11.1c11.7-7.4,17.5-16.1,17.5-26C1264.3,492.8,1260,485.2,1251.3,478.3z"/>
			<path class="st0" d="M1157.1,417.1c3.1-2.8,4.6-5.3,4.6-7.5c0-2.3-1.2-4.3-3.6-5.9c-2.4-1.7-5.3-2.5-8.8-2.5
				c-3.9,0-7.4,1.1-10.4,3.4c-3,2.3-4.5,5.2-4.5,8.7c0,7.7,9.2,15.2,27.5,22.5h-27.5v4l15,26.5l4.8-1c-1.3-2.5-2-4.7-2-6.7
				c0-1.7,0.6-3,1.9-4.2c1.3-1.1,3.2-1.9,6-2.3c2.7-0.4,11.2-0.6,25.5-0.6h47.5c7.1,0,11.5,0.2,13,0.5c3.1,0.6,5.4,1.8,6.8,3.3
				c2,2.2,2.9,5.5,2.9,9.9h4.8v-44.8h-4.8c0,3.9-0.8,7-2.4,9.1c-1.6,2.1-3.6,3.6-6,4.4c-3.5,1.2-8.6,1.8-15.4,1.8h-58.7
				c-8.4-3.1-14.4-6-18.1-8.9c-1.8-1.3-2.7-2.6-2.7-3.7C1152.5,422,1154.1,419.9,1157.1,417.1z"/>
			<path class="st0" d="M1230.4,330.6c-11.2-3.8-22.3-5.6-33.3-5.6c-15.6,0-29.4,3.4-41.5,10.2c-14.1,8-21.1,18.7-21.1,31.9
				c0,7.3,2.7,14.1,8,20.6c5.3,6.5,13.5,11.7,24.6,15.7c11.1,4,22.3,6,33.5,6c15.4,0,29.3-3.3,41.7-9.8
				c14.7-7.8,22.1-18.2,22.1-31.4c0-8.1-2.9-15.4-8.6-22C1250.1,339.5,1241.6,334.3,1230.4,330.6z M1235.4,384
				c-12.9,5.1-28.3,7.6-46.1,7.6c-11.1,0-20.1-1.1-27.1-3.2c-7-2.1-12-4.9-14.8-8.3c-2.8-3.4-4.2-6.8-4.2-10.2
				c0-7,4.3-12.8,12.8-17.3c12.5-6.7,29.6-10,51.3-10c17.4,0,29.6,2,36.8,6c7.1,4,10.7,9.1,10.7,15.3
				C1254.8,372.3,1248.4,379,1235.4,384z"/>
			<path class="st0" d="M1254.1,271.4c-6.8-6-15.8-9-26.9-9c-14.4,0-26.1,6.5-34.9,19.4l-9.5,14c-4.1,6.1-8,10.1-11.6,12
				c-3.6,2-7.8,3.1-12.8,3.1c-4,0-7.7-1.4-11-4.1c-3.3-2.7-4.9-6.3-4.9-10.8c0-5.9,2.4-10.7,7.1-14.5c4.7-3.8,13.6-6.9,26.7-9.3V269
				h-41.7v3.2c2.1,0.8,3.5,1.4,4.1,2c0.6,0.6,0.9,1.4,0.9,2.4c0,1.1-0.7,3.2-2,6.5c-2,4.9-3.1,9.1-3.1,12.5
				c0,7.8,3.4,14.2,10.2,19.2c6.8,4.9,15.2,7.4,25.3,7.4c7.8,0,14.2-1.4,19.3-4.3c5.2-2.9,11-8.9,17.4-18.2
				c6.4-9.2,11.7-15.4,15.9-18.5c4.2-3.1,9.4-4.6,15.5-4.6c5.1,0,9.4,1.4,13,4.2c3.6,2.8,5.4,6.4,5.4,10.7c0,6.2-3.2,11.9-9.5,16.9
				c-6.3,5-15.7,8.4-28.2,10.2v3.2h43.7v-3.2c-2.3-0.8-3.5-2-3.5-3.4c0-1.3,0.4-3.1,1.3-5.2c2.7-6.9,4-13,4-18.3
				C1264.3,284.2,1260.9,277.4,1254.1,271.4z"/>
			<path class="st0" d="M1230.4,179.7c-11.2-3.8-22.3-5.6-33.3-5.6c-15.6,0-29.4,3.4-41.5,10.2c-14.1,8-21.1,18.7-21.1,31.9
				c0,7.3,2.7,14.1,8,20.6c5.3,6.5,13.5,11.7,24.6,15.7c11.1,4,22.3,6,33.5,6c15.4,0,29.3-3.3,41.7-9.8
				c14.7-7.8,22.1-18.3,22.1-31.4c0-8.1-2.9-15.4-8.6-22C1250.1,188.6,1241.6,183.4,1230.4,179.7z M1235.4,233.1
				c-12.9,5.1-28.3,7.6-46.1,7.6c-11.1,0-20.1-1-27.1-3.2c-7-2.1-12-4.9-14.8-8.3c-2.8-3.4-4.2-6.8-4.2-10.2c0-7,4.3-12.8,12.8-17.3
				c12.5-6.7,29.6-10,51.3-10c17.4,0,29.6,2,36.8,6c7.1,4,10.7,9.1,10.7,15.3C1254.8,221.4,1248.4,228.1,1235.4,233.1z"/>
			<path class="st0" d="M1099,159.8c8.5,2.8,18.8,4.2,31,4.2h8v17h9.6v-17h80.5c8.7,0,14.6,0.4,17.7,1.2c3,0.8,5.4,2.2,7.2,4.3
				c1.8,2.1,2.7,4.4,2.7,7v3.9h4.8v-52.3h-4.8v7.9c0,4-2,7.1-5.9,9.5c-3,1.8-10.2,2.7-21.7,2.7h-80.5v-22.5h-0.3v-4.6h82.4
				c8.8,0,15.4-0.7,19.6-2c4.2-1.3,7.5-3.4,9.8-6.2c2.3-2.8,3.4-5.7,3.4-8.6c0-4.3-2.2-8.5-6.6-12.6c-4.4-4.1-11-7.2-19.7-9.5V86
				c3.6,1.1,6.3,2.6,8.1,4.6c1.8,2,2.7,4,2.7,6.1c0,2.5-1.4,4.6-4.1,6.3c-2.8,1.6-8.1,2.4-16,2.4h-79.4V84.9h-9.4v20.4h-38.2
				c-2.1-1.2-4.3-1.8-6.6-1.8c-5,0-9.5,1.8-13.5,5.5c-6.1,5.6-9.1,11.8-9.1,18.4c0,7.2,2.6,13.7,7.8,19.4
				C1083.7,152.7,1090.6,157,1099,159.8z M1082.9,128.5c1.7-2,5-4.1,9.8-6.5c4.9-2.4,8-4.3,9.5-6c1.5-1.6,2.2-3.2,2.2-4.6
				c0-0.4-0.1-0.8-0.2-1.1c5.6,1.7,9.7,3.1,12.2,4.2c6.4,2.9,12,6.1,16.6,9.8c1.9,1.5,3.6,3,5,4.4v19.6h-8.8
				c-19.1,0-30.9-0.4-35.5-1.3c-4.6-0.9-8-2.4-10.2-4.4c-2.2-2-3.3-4.5-3.3-7.5C1080.3,132.6,1081.2,130.4,1082.9,128.5z"/>
			<path class="st0" d="M1260,64.1c-2.9-2.1-6.4-3.1-10.5-3.1s-7.6,1-10.5,3.1c-2.9,2-4.3,4.6-4.3,7.5c0,2.9,1.4,5.4,4.3,7.5
				c2.9,2.1,6.4,3.1,10.6,3.1c4.1,0,7.6-1,10.5-3.1c2.9-2.1,4.3-4.6,4.3-7.5C1264.3,68.7,1262.9,66.2,1260,64.1z"/>
			<path class="st0" d="M3164.3,450.3c-50.5-53-59.8-92.4-59.8-139c0-106.9,36-133.4,51.2-133.4c21.1,0,42.4,17,57.7,53.1
				c15.4,36.1,26.5,96.5,29.5,149.2h8.1V153.4h-8.1c-3.9,24.1-9.8,36.1-17.5,36.1c-4.4,0-9.5-2.6-15.4-7.8
				c-23-19.5-32.1-29.3-55.5-29.3c-59.5,0-89.7,106.9-89.7,195.4c0,116.4,30.6,162.1,87.7,214.9c63.1,58.3,67.5,121.1,67.5,175.8
				c0,31.9-16.7,121.2-56.9,121.2c-58.6,0-88.6-140.3-88.6-204.1h-8.1v231.1h8.1c4.2-24.1,10.3-36.1,18.2-36.1
				c8.9,0,28.9,34.3,74.5,34.3c55.2,0,97.5-105.4,97.5-187.7C3264.7,528.6,3215.6,504.1,3164.3,450.3z"/>
			<path class="st0" d="M2246.2,160.9H2177h-12.2h-36.2h-29.4h-18.3h-4.3h-47.7v10c35.5,0,40.5,57.4,40.5,57.4v450l-178.5-517.4
				h-26.2h-15.3h-0.3h-3.1h-29h-19.8h-8.7H1765h-13.1h-23.5h-28.3l4.3-27.8l0,0c7.5-48.3,21.8-81.8,48.9-81.8l0-11.7H1709h-16.5
				h-44.3l0,11.7c35.4,0,41.8,51.1,35.1,94.7l0,0l-77.5,501l-71.7-556.1c-1.9-21.6,1.1-39.6,27.1-39.6l0-11.7h-53.1h-7.7h-19.5h-5.7
				h-55.1l0,11.7c26.7,0,38.4,20.5,44.7,54.8l24.5,181.8l-55.5,359l-71.7-556.1c-1.9-21.6,1.1-39.6,27.1-39.6l0-11.7h-51.5h-9.2
				h-19.5h-4.1h-56.6v11.7c26.7,0,38.4,20.5,44.7,54.8l104.6,776.4v0l0,0h19h0l81.8-528.7l71.2,528.7l0,0h0h19h0l111.4-720.4l0,8.9
				c25,0,28.2,27.3,28.5,46.2v596.4c-0.3,19-3.5,46.2-28.5,46.2l0,10h28.5h23.5h13.1h23.5h17h11.5h36.2h4.3h47.7v-10
				c-35.5,0-40.5-57.4-40.5-57.4V284.6l204.8,593.4v0h18.6v-58.2v0v-87.4v0v-504c0,0,3.5-40.4,25.7-53.4c21.2,13,22,53.4,22,53.4
				v574.1c0,0-1.1,57.4-36.6,57.4v10h47.3h30.5h69.2c162.8,0,165-354.5,165-354.5S2409.1,160.9,2246.2,160.9z M1846,802.4
				c0,0-4.5,51.1-34.8,56.8c-19.8-3.9-22.5-28.3-22.8-45.7V217.2c0.3-16.1,2.6-38.3,18.7-44.5c28,9.7,38.8,57.8,38.8,57.9v0l0,0
				V802.4z M2224.7,849.5c0,0-27.5-1.2-27.5-9.8V191.2c0-8.6,27.5-9.8,27.5-9.8c127.8,0,126.5,329.7,126.5,329.7v8.7
				C2351.2,519.8,2352.5,849.5,2224.7,849.5z"/>
			<path class="st0" d="M2572.2,157.6c-42.7,0.9-79.5,27.7-110.2,100.1c-30.2,71.2-49.6,161-50.8,261.8
				c1.2,100.9,20.6,190.7,50.8,261.8c30.7,72.3,67.5,99.2,110.2,100.1c42.7-0.9,79.5-27.7,110.2-100.1
				c30.2-71.2,49.6-161,50.8-261.8c-1.2-100.9-20.6-190.7-50.8-261.8C2651.7,185.3,2615,158.5,2572.2,157.6z M2580.1,863.8
				c-5,2.1-10.8,2.1-15.8,0c-40.3-16.6-86.7-127-87.3-344.3c0.5-217.3,47-327.7,87.3-344.3c5-2.1,10.8-2.1,15.8,0
				c40.3,16.6,86.7,127,87.3,344.3C2666.9,736.8,2620.4,847.2,2580.1,863.8z"/>
			<path class="st0" d="M3101.9,171l0-10h-37.9h-14.1h-37.9l0,10c30.3,0,35.8,43.8,30,81l0,0l-66.3,428.9l-61.4-476
				c-1.6-18.5,1-33.9,23.2-33.9l0-10h-45.4h-6.6h-16.7h-4.8h-47.2v10c22.9,0,32.9,17.6,38.3,46.9l21,155.7l-47.5,307.4l-58.4-452.5
				l0,0c0,0,0,0,0,0l-3-23.4c-1.6-18.5,1-33.9,23.2-33.9l0-10h-44.1h-7.9h-16.7h-3.5h-48.5l0,10c22.9,0,32.9,17.6,38.3,46.9
				l89.5,664.6l0,0h0h16.3h0l70-452.6l61,452.6v0h0h16.3h0l99.2-641.5v0C3066.5,199.7,3078.8,171,3101.9,171z"/>
			<path class="st0" d="M3540.8,663c10.4-12.9,15.6-26.3,15.6-40.3c0-16.4-5.5-30-16.6-40.7c-11.1-10.7-25.6-16.1-43.5-16.1
				c-14.7,0-28.3,4.5-40.7,13.6c-12.4,9-22.5,22.4-30.4,40l8.4,2.5c13.2-21.1,28.3-31.7,45.3-31.7c10.8,0,20,3.9,27.6,11.7
				c7.6,7.8,11.4,17.7,11.4,29.7c0,15.9-6.5,29.7-19.6,41.2c-18.1,16.2-45.5,27.2-82.2,32.8v6.6c15.3,0.9,29.5,4.9,42.4,12
				c12.9,7.1,22.4,16.3,28.4,27.7c6,11.4,9,24.4,9,38.9c0,17.9-4.4,34.8-13.3,50.7c-8.9,15.9-20.2,23.8-33.8,23.8
				c-5.6,0-11.1-0.9-16.4-2.6c-5.3-1.7-12.7-5.3-22.2-10.6c-9.5-5.3-15.5-8.3-17.9-9.1c-4-1.2-7.9-1.8-11.8-1.8
				c-5.6,0-10.4,1.9-14.2,5.7c-3.9,3.8-5.8,8.4-5.8,13.7c0,6.1,3.3,11.4,9.8,15.9c9.9,6.7,24.4,10,43.5,10c21,0,41-5.2,60-15.6
				c19.1-10.4,34.1-25.1,45-44.2c10.9-19.1,16.4-38.1,16.4-57.1c0-17.2-4-31.8-12.1-44.1c-8.1-12.2-20-21.6-35.8-28.1
				C3512.5,687.5,3530.4,675.9,3540.8,663z"/>
			<path class="st0" d="M3563.7,840.5c-6.4,0-11.8,2.2-16.3,6.7c-4.5,4.5-6.7,9.9-6.7,16.3c0,6.4,2.2,11.8,6.7,16.3
				c4.5,4.5,9.9,6.7,16.3,6.7c6.4,0,11.8-2.2,16.4-6.7c4.6-4.5,6.8-9.9,6.8-16.3c0-6.4-2.2-11.8-6.7-16.3
				C3575.8,842.7,3570.3,840.5,3563.7,840.5z"/>
			<path class="st0" d="M3783.4,711.3c5-4.2,9.3-6.4,13-6.4c2.4,0,7.2,1.2,14.3,3.6c3.6,1.4,7.1,2,10.2,2c5.5,0,10.3-1.9,14.6-5.7
				c2.3-2.1,3.4-6.1,3.4-11.8c0-5-1.9-9.3-5.8-12.8c-3.9-3.5-9.1-5.2-15.6-5.2c-4.4,0-8.4,0.8-12.1,2.3c-5.8,2.4-12.5,6.9-20,13.6
				c-7.6,6.6-14,13.6-19.4,20.8l-20,30.1c-6.2-23.2-10.7-37.6-13.4-43c-3.8-7.9-9.4-15.8-16.9-23.7l-60.8,10.7v8.2
				c4.6-0.3,8.6-0.5,12.1-0.5c10.9,0,19.2,2,24.8,6.1c5.6,4.1,10.2,11.1,13.7,21c0.8,2.1,5.8,21.6,15.3,58.5
				c-3.8,8.5-11.8,22.3-24.1,41.5c-12.3,19.1-22,31.6-29.2,37.4c-2.9,2.4-5.2,3.6-7.1,3.6c-2.1,0-5.2-1.7-9.1-5.2
				c-5.5-4.9-10.6-7.3-15.5-7.3c-4.9,0-9,1.7-12.3,5c-3.3,3.3-5,7.5-5,12.5c0,5.6,1.8,10.1,5.5,13.4c5,4.4,10.6,6.6,16.6,6.6
				c8.7,0,17.6-3.8,26.9-11.4c14.3-11.8,33.3-38.3,56.9-79.5c10,45.1,16.6,70.6,19.8,76.5c5,9.6,11.8,14.3,20.3,14.3
				c5.8,0,12.8-3.3,21.2-10c14.7-11.8,26.9-26.7,36.4-44.6l-8-4.1c-5.9,11.2-13.1,20.3-21.4,27.3c-4.3,3.5-8,5.2-11.2,5.2
				c-2,0-4-1.2-5.9-3.5c-2-2.4-4.4-9.5-7.3-21.5l-18.7-78.4C3762.8,734.5,3774,719.2,3783.4,711.3z"/>
		</g>
	</g>
</g>
</svg>
