<?xml version="1.0" encoding="utf-8"?>
<!-- Generator: Adobe Illustrator 26.5.0, SVG Export Plug-In . SVG Version: 6.00 Build 0)  -->
<svg version="1.1" id="Layer_1" xmlns="http://www.w3.org/2000/svg" xmlns:xlink="http://www.w3.org/1999/xlink" x="0px" y="0px"
	 viewBox="0 0 3839 1093.5" style="enable-background:new 0 0 3839 1093.5;" xml:space="preserve">
<style type="text/css">
	.st0{fill:#FFFFFF;}
	.st1{fill:none;stroke:#231F20;stroke-width:2.6734;stroke-miterlimit:10;}
	.st2{fill:#3E96FF;}
	.st3{fill:#FF3C22;}
	.st4{fill:#3C8929;}
	.st5{fill:#FFC200;}
	.st6{fill:none;stroke:#231F20;stroke-width:3.2171;stroke-miterlimit:10;}
	.st7{fill:none;stroke:#231F20;stroke-width:3.2649;stroke-miterlimit:10;}
	.st8{fill:none;stroke:#231F20;stroke-width:2.6458;stroke-miterlimit:10;}
	.st9{fill:none;stroke:#231F20;stroke-width:3.1839;stroke-miterlimit:10;}
	.st10{fill:none;stroke:#231F20;stroke-width:3.2313;stroke-miterlimit:10;}
	.st11{fill:none;stroke:#231F20;stroke-width:2.0772;stroke-miterlimit:10;}
	.st12{fill:none;stroke:#231F20;stroke-width:1.917;stroke-miterlimit:10;}
	.st13{fill:none;stroke:#231F20;stroke-width:2.0294;stroke-miterlimit:10;}
	.st14{fill:none;stroke:#231F20;stroke-width:1.8689;stroke-miterlimit:10;}
</style>
<g>
	<g>
		<g>
			<path class="st2" d="M314.8,859.4c-6.5,0-12.6-3.2-16.3-8.5c-3.8-5.5-4.6-12.5-2.1-18.6l26.8-67.1c2.9-7.4,10-12.3,17.9-12.4
				l94.7-2.1c0.1,0,0.3,0,0.4,0c6.5,0,12.6,3.2,16.3,8.5c3.8,5.5,4.6,12.5,2.1,18.6l-26.8,67.1c-2.9,7.4-10,12.3-17.9,12.4
				l-94.7,2.1C315.1,859.4,315,859.4,314.8,859.4z"/>
			<path class="st0" d="M436.3,770.4L436.3,770.4 M436.3,770.4l-26.8,67.1l-94.7,2.1l26.8-67.1L436.3,770.4 M436.4,730.8
				L436.4,730.8c-0.3,0-0.7,0-1,0l-94.5,2.1c-15.9,0.3-30,10.1-35.9,24.9l-26.8,67.1c-4.9,12.3-3.3,26.3,4.2,37.2
				c7.4,10.7,19.6,17,32.5,17c0.3,0,0.6,0,0.9,0l94.7-2.1c15.9-0.3,30-10.1,35.9-24.9l26.4-66.2c2.1-4.8,3.2-10.1,3.2-15.6
				C475.9,748.5,458.2,730.8,436.4,730.8L436.4,730.8z M436.3,810L436.3,810L436.3,810L436.3,810z"/>
		</g>
		<g>
			<path class="st2" d="M101.3,706.2c-6.5,0-12.6-3.2-16.3-8.5c-3.8-5.5-4.6-12.5-2.1-18.6L96,646.2c2.9-7.4,10-12.3,17.9-12.4
				l52.3-1.2c0.1,0,0.3,0,0.4,0c6.5,0,12.6,3.2,16.3,8.5c3.8,5.5,4.6,12.5,2.1,18.6L172,692.6C169,700,162,704.9,154,705l-52.3,1.2
				C101.5,706.2,101.4,706.2,101.3,706.2z"/>
			<path class="st0" d="M166.7,652.4L166.7,652.4 M166.7,652.4l-13.1,32.8l-52.3,1.2l13.1-32.8L166.7,652.4 M166.7,612.8
				c-0.1,0-0.3,0-0.4,0c-0.2,0-0.4,0-0.6,0l-52.2,1.2c-15.9,0.3-30,10.1-35.9,24.9l-13.1,32.8c-4.9,12.3-3.3,26.3,4.2,37.2
				c7.4,10.7,19.6,17,32.5,17c0.3,0,0.6,0,0.9,0l52.3-1.2c15.9-0.3,30-10.1,35.9-24.9l12.7-31.9c2.1-4.8,3.2-10.1,3.2-15.6
				c0-21.7-17.5-39.4-39.2-39.6C167,612.8,166.9,612.8,166.7,612.8L166.7,612.8z M166.7,692L166.7,692L166.7,692L166.7,692z"/>
		</g>
		<g>
			<path class="st2" d="M39.6,648.4c-6.5,0-12.6-3.2-16.3-8.5c-3.8-5.5-4.6-12.5-2.1-18.6l11.4-28.4c2.9-7.4,10-12.3,17.9-12.4
				l39.7-0.9c0.1,0,0.3,0,0.4,0c6.5,0,12.6,3.2,16.3,8.5c3.8,5.5,4.6,12.5,2.1,18.6l-11.4,28.4c-2.9,7.4-10,12.3-17.9,12.4L40,648.4
				C39.9,648.4,39.7,648.4,39.6,648.4z"/>
			<path class="st0" d="M90.6,599.3L90.6,599.3 M90.6,599.3l-11.4,28.4l-39.7,0.9L51,600.2L90.6,599.3 M90.6,559.7
				c-0.1,0-0.3,0-0.4,0c-0.2,0-0.4,0-0.6,0l-39.6,0.9c-15.9,0.3-30,10.1-35.9,24.9L2.8,614c-4.9,12.3-3.3,26.3,4.2,37.2
				c7.4,10.7,19.6,17,32.5,17c0.3,0,0.6,0,0.9,0l39.7-0.9c15.9-0.3,30-10.1,35.9-24.9l11-27.5c2.1-4.8,3.2-10.1,3.2-15.6
				c0-21.7-17.5-39.4-39.2-39.6C90.9,559.7,90.8,559.7,90.6,559.7L90.6,559.7z M90.6,638.9L90.6,638.9L90.6,638.9L90.6,638.9z"/>
		</g>
		<g>
			<path class="st2" d="M158.3,767.1c-6.5,0-12.6-3.2-16.3-8.5c-3.8-5.5-4.6-12.5-2.1-18.6l16-40c2.9-7.4,10-12.3,17.9-12.4
				l68.1-1.5c0.1,0,0.3,0,0.4,0c6.5,0,12.6,3.2,16.3,8.5c3.8,5.5,4.6,12.5,2.1,18.6l-16,40c-2.9,7.4-10,12.3-17.9,12.4l-68.1,1.5
				C158.5,767.1,158.4,767.1,158.3,767.1z"/>
			<path class="st0" d="M242.3,705.8L242.3,705.8 M242.3,705.8l-16,40l-68.1,1.5l16-40L242.3,705.8 M242.3,666.2c-0.1,0-0.3,0-0.4,0
				c0,0,0,0,0,0c0,0,0,0,0,0c-0.2,0-0.3,0-0.5,0l-67.9,1.5c-15.9,0.3-30,10.1-35.9,24.9l-16,40c-4.9,12.3-3.3,26.3,4.2,37.2
				c7.4,10.7,19.6,17,32.5,17c0.3,0,0.6,0,0.9,0l68.1-1.5c15.9-0.3,30-10.1,35.9-24.9l15.6-39.1c2.1-4.8,3.2-10.1,3.2-15.6
				c0-21.7-17.5-39.4-39.1-39.6C242.6,666.2,242.4,666.2,242.3,666.2L242.3,666.2z M242.3,745.4L242.3,745.4L242.3,745.4
				L242.3,745.4z"/>
		</g>
		<g>
			<path class="st2" d="M232.1,810.6c-6.5,0-12.6-3.2-16.3-8.5c-3.8-5.5-4.6-12.5-2.1-18.6l20.3-50.8c2.9-7.4,10-12.3,17.9-12.4
				l83.8-1.8c0.1,0,0.3,0,0.4,0c6.5,0,12.6,3.2,16.3,8.5c3.8,5.5,4.6,12.5,2.1,18.6l-20.3,50.8c-2.9,7.4-10,12.3-17.9,12.4
				l-83.8,1.8C232.4,810.6,232.2,810.6,232.1,810.6z"/>
			<path class="st0" d="M336.1,738.2L336.1,738.2 M336.1,738.2L315.9,789l-83.8,1.8l20.3-50.8L336.1,738.2 M336.1,698.6
				c-0.1,0-0.3,0-0.4,0c-0.2,0-0.4,0-0.6,0l-83.7,1.8c-15.9,0.3-30,10.1-35.9,24.9l-20.3,50.8c-4.9,12.3-3.3,26.3,4.2,37.2
				c7.4,10.7,19.6,17,32.5,17c0.3,0,0.6,0,0.9,0l83.8-1.8c15.9-0.3,30-10.1,35.9-24.9l19.9-49.9c2.1-4.8,3.2-10.1,3.2-15.6
				c0-21.7-17.5-39.4-39.2-39.6c0,0,0,0,0,0c0,0,0,0,0,0C336.4,698.6,336.3,698.6,336.1,698.6L336.1,698.6z M336.1,777.8
				L336.1,777.8L336.1,777.8L336.1,777.8z"/>
		</g>
		<g>
			<path class="st2" d="M426.6,579.6c-6.5,0-12.6-3.2-16.3-8.5c-3.8-5.5-4.6-12.5-2.1-18.6l26.8-67.1c2.9-7.4,10-12.3,17.9-12.4
				l94.7-2.1c0.1,0,0.3,0,0.4,0c6.5,0,12.6,3.2,16.3,8.5c3.8,5.5,4.6,12.5,2.1,18.6L539.7,565c-2.9,7.4-10,12.3-17.9,12.4l-94.7,2.1
				C426.9,579.6,426.8,579.6,426.6,579.6z"/>
			<path class="st0" d="M548.1,490.6L548.1,490.6 M548.1,490.6l-26.8,67.1l-94.7,2.1l26.8-67.1L548.1,490.6 M548.1,451
				c-0.2,0-0.3,0-0.5,0c-0.2,0-0.3,0-0.5,0l-94.6,2.1c-15.9,0.3-30,10.1-35.9,24.9l-26.8,67.1c-4.9,12.3-3.3,26.3,4.2,37.2
				c7.4,10.7,19.6,17,32.5,17c0.3,0,0.6,0,0.9,0l94.7-2.1c15.9-0.3,30-10.1,35.9-24.9l26.4-66.2c2.1-4.8,3.2-10.1,3.2-15.6
				c0-21.7-17.5-39.3-39.1-39.6C548.4,451,548.3,451,548.1,451L548.1,451z M548.1,530.2L548.1,530.2L548.1,530.2L548.1,530.2z"/>
		</g>
		<g>
			<path class="st2" d="M213,426.4c-6.5,0-12.6-3.2-16.3-8.5c-3.8-5.5-4.6-12.5-2.1-18.6l13.1-32.8c2.9-7.4,10-12.3,17.9-12.4
				l52.3-1.2c0.1,0,0.3,0,0.4,0c6.5,0,12.6,3.2,16.3,8.5c3.8,5.5,4.6,12.5,2.1,18.6l-13.1,32.8c-2.9,7.4-10,12.3-17.9,12.4
				l-52.3,1.2C213.3,426.4,213.2,426.4,213,426.4z"/>
			<path class="st0" d="M278.5,372.7L278.5,372.7 M278.5,372.7l-13.1,32.8l-52.3,1.2l13.1-32.8L278.5,372.7 M278.5,333.1
				c-0.1,0-0.3,0-0.4,0c0,0,0,0,0,0c0,0,0,0,0,0c-0.2,0-0.3,0-0.5,0l-52.2,1.2c-15.9,0.3-30,10.1-35.9,24.9L176.3,392
				c-4.9,12.3-3.3,26.3,4.2,37.2c7.4,10.7,19.6,17,32.5,17c0.3,0,0.6,0,0.9,0l52.3-1.2c15.9-0.3,30-10.1,35.9-24.9l12.7-31.9
				c2.1-4.8,3.2-10.1,3.2-15.6c0-21.7-17.5-39.3-39.1-39.6C278.8,333.1,278.6,333.1,278.5,333.1L278.5,333.1z M278.5,412.2
				L278.5,412.2L278.5,412.2L278.5,412.2z"/>
		</g>
		<g>
			<path class="st2" d="M151.3,368.7c-6.5,0-12.6-3.2-16.3-8.5c-3.8-5.5-4.6-12.5-2.1-18.6l11.4-28.4c2.9-7.4,10-12.3,17.9-12.4
				l39.7-0.9c0.1,0,0.3,0,0.4,0c6.5,0,12.6,3.2,16.3,8.5c3.8,5.5,4.6,12.5,2.1,18.6l-11.4,28.4c-2.9,7.4-10,12.3-17.9,12.4
				l-39.7,0.9C151.6,368.7,151.5,368.7,151.3,368.7z"/>
			<path class="st0" d="M202.4,319.5L202.4,319.5 M202.4,319.5L191,348l-39.7,0.9l11.4-28.4L202.4,319.5 M202.4,280
				c-0.1,0-0.3,0-0.4,0c0,0,0,0,0,0c0,0,0,0,0,0c-0.2,0-0.3,0-0.5,0l-39.6,0.9c-15.9,0.3-30,10.1-35.9,24.9l-11.4,28.4
				c-4.9,12.3-3.3,26.3,4.2,37.2c7.4,10.7,19.6,17,32.5,17c0.3,0,0.6,0,0.9,0l39.7-0.9c15.9-0.3,30-10.1,35.9-24.9l11-27.5
				c2.1-4.8,3.2-10.1,3.2-15.6c0-21.7-17.5-39.4-39.1-39.6C202.7,280,202.5,280,202.4,280L202.4,280z M202.4,359.1L202.4,359.1
				L202.4,359.1L202.4,359.1z"/>
		</g>
		<g>
			<path class="st2" d="M270,487.3c-6.5,0-12.6-3.2-16.3-8.5c-3.8-5.5-4.6-12.5-2.1-18.6l16-40c2.9-7.4,10-12.3,17.9-12.4l68.1-1.5
				c0.1,0,0.3,0,0.4,0c6.5,0,12.6,3.2,16.3,8.5c3.8,5.5,4.6,12.5,2.1,18.6l-16,40c-2.9,7.4-10,12.3-17.9,12.4l-68.1,1.5
				C270.3,487.3,270.2,487.3,270,487.3z"/>
			<path class="st0" d="M354.1,426L354.1,426 M354.1,426l-16,40l-68.1,1.5l16-40L354.1,426 M354.1,386.4c-0.1,0-0.3,0-0.4,0
				c-0.2,0-0.4,0-0.6,0l-67.9,1.5c-15.9,0.3-30,10.1-35.9,24.9l-16,40c-4.9,12.3-3.3,26.3,4.2,37.2c7.4,10.7,19.6,17,32.5,17
				c0.3,0,0.6,0,0.9,0l68.1-1.5c15.9-0.3,30-10.1,35.9-24.9l15.6-39.1c2.1-4.8,3.2-10.1,3.2-15.6c0-21.7-17.5-39.4-39.2-39.6
				C354.3,386.4,354.2,386.4,354.1,386.4L354.1,386.4z M354.1,465.6L354.1,465.6L354.1,465.6L354.1,465.6z"/>
		</g>
		<g>
			<path class="st2" d="M343.8,530.9c-6.5,0-12.6-3.2-16.3-8.5c-3.8-5.5-4.6-12.5-2.1-18.6l20.3-50.8c2.9-7.4,10-12.3,17.9-12.4
				l83.8-1.8c0.1,0,0.3,0,0.4,0c6.5,0,12.6,3.2,16.3,8.5c3.8,5.5,4.6,12.5,2.1,18.6L446,516.6c-2.9,7.4-10,12.3-17.9,12.4l-83.8,1.8
				C344.1,530.9,344,530.9,343.8,530.9z"/>
			<path class="st0" d="M447.9,458.4L447.9,458.4 M447.9,458.4l-20.3,50.8l-83.8,1.8l20.3-50.8L447.9,458.4 M447.9,418.9
				c-0.1,0-0.3,0-0.4,0c-0.2,0-0.4,0-0.6,0l-83.7,1.8c-15.9,0.3-30,10.1-35.9,24.9l-20.3,50.8c-4.9,12.3-3.3,26.3,4.2,37.2
				c7.4,10.7,19.6,17,32.5,17c0.3,0,0.6,0,0.9,0l83.8-1.8c15.9-0.3,30-10.1,35.9-24.9l19.9-49.9c2.1-4.8,3.2-10.1,3.2-15.6
				c0-21.7-17.5-39.4-39.2-39.6c0,0,0,0,0,0c0,0,0,0,0,0C448.2,418.9,448,418.9,447.9,418.9L447.9,418.9z M447.9,498L447.9,498
				L447.9,498L447.9,498z"/>
		</g>
		<g>
			<path class="st2" d="M398.3,672.3c-6.4,0-12.5-3.1-16.2-8.4c-3.8-5.5-4.6-12.5-2.2-18.7l22.5-56.3c2.9-7.4,10-12.3,17.9-12.4
				l80.1-1.8c0.1,0,0.3,0,0.4,0c6.5,0,12.6,3.2,16.3,8.5c3.8,5.5,4.6,12.5,2.1,18.6L497,657.4c-2.9,7.3-9.9,12.2-17.8,12.4
				l-80.4,2.5C398.7,672.3,398.5,672.3,398.3,672.3z"/>
			<path class="st0" d="M500.8,594.5L500.8,594.5 M500.8,594.5l-22.2,55.6l-80.4,2.5l22.5-56.3L500.8,594.5 M500.8,554.9
				c-0.1,0-0.3,0-0.4,0c0,0,0,0,0,0c0,0,0,0,0,0c-0.2,0-0.3,0-0.5,0l-80,1.8c-15.9,0.3-30,10.1-35.9,24.9l-22.5,56.3
				c-5,12.4-3.3,26.5,4.3,37.4c7.4,10.6,19.5,16.9,32.4,16.9c0.4,0,0.8,0,1.2,0l80.4-2.5c15.7-0.5,29.7-10.3,35.5-24.9l21.8-54.7
				c2.1-4.8,3.2-10.1,3.2-15.6c0-21.7-17.5-39.4-39.1-39.6C501.1,554.9,501,554.9,500.8,554.9L500.8,554.9z M500.8,634.1
				L500.8,634.1L500.8,634.1L500.8,634.1z"/>
		</g>
		<g>
			<path class="st2" d="M179.7,524.4c-6.5,0-12.6-3.2-16.3-8.5c-3.8-5.5-4.6-12.5-2.1-18.6l11.8-29.5c2.9-7.4,10-12.3,17.9-12.4
				l42-0.9c0.1,0,0.3,0,0.4,0c6.5,0,12.6,3.2,16.3,8.5c3.8,5.5,4.6,12.5,2.1,18.6L240.1,511c-2.9,7.4-10,12.3-17.9,12.4l-42,0.9
				C180,524.4,179.9,524.4,179.7,524.4z"/>
			<path class="st0" d="M233.5,474.1L233.5,474.1 M233.5,474.1l-11.8,29.5l-42,0.9l11.8-29.5L233.5,474.1 M233.5,434.5
				c-0.1,0-0.3,0-0.4,0c0,0,0,0,0,0c0,0,0,0,0,0c-0.2,0-0.3,0-0.5,0l-41.9,0.9c-15.9,0.3-30,10.1-35.9,24.9L143,489.9
				c-4.9,12.3-3.3,26.3,4.2,37.2c7.4,10.7,19.6,17,32.5,17c0.3,0,0.6,0,0.9,0l42-0.9c15.9-0.3,30-10.1,35.9-24.9l11.4-28.6
				c2.1-4.8,3.2-10.1,3.2-15.6c0-21.7-17.5-39.3-39.1-39.6C233.8,434.5,233.7,434.5,233.5,434.5L233.5,434.5z M233.5,513.7
				L233.5,513.7L233.5,513.7L233.5,513.7z"/>
		</g>
		<g>
			<path class="st2" d="M117.2,464.1c-6.5,0-12.6-3.2-16.3-8.5c-3.8-5.5-4.6-12.5-2.1-18.6l10.2-25.4c2.9-7.4,10-12.3,17.9-12.4
				l31.4-0.7c0.1,0,0.3,0,0.4,0c6.5,0,12.6,3.2,16.3,8.5c3.8,5.5,4.6,12.5,2.1,18.6L167,451c-2.9,7.4-10,12.3-17.9,12.4l-31.4,0.7
				C117.5,464.1,117.4,464.1,117.2,464.1z"/>
			<path class="st0" d="M158.8,418.2L158.8,418.2 M158.8,418.2l-10.2,25.4l-31.4,0.7l10.2-25.4L158.8,418.2 M158.8,378.6
				c-0.1,0-0.3,0-0.4,0c-0.2,0-0.4,0-0.6,0l-31.3,0.7c-15.9,0.3-30,10.1-35.9,24.9l-10.2,25.4c-4.9,12.3-3.3,26.3,4.2,37.2
				c7.4,10.7,19.6,17,32.5,17c0.3,0,0.6,0,0.9,0l31.4-0.7c15.9-0.3,30-10.1,35.9-24.9l9.8-24.5c2.1-4.8,3.2-10.1,3.2-15.6
				c0-21.7-17.5-39.4-39.2-39.6C159.1,378.6,159,378.6,158.8,378.6L158.8,378.6z M158.8,457.8L158.8,457.8L158.8,457.8L158.8,457.8z
				"/>
		</g>
		<g>
			<path class="st2" d="M239.7,583.7c-6.5,0-12.6-3.2-16.3-8.5c-3.8-5.5-4.6-12.5-2.1-18.6l14.2-35.5c2.9-7.4,10-12.3,17.9-12.4
				l55.3-1.2c0.1,0,0.3,0,0.4,0c6.5,0,12.6,3.2,16.3,8.5c3.8,5.5,4.6,12.5,2.1,18.6L313.4,570c-2.9,7.4-10,12.3-17.9,12.4l-55.3,1.2
				C240,583.7,239.8,583.7,239.7,583.7z"/>
			<path class="st0" d="M309.2,527.2L309.2,527.2 M309.2,527.2L295,562.7l-55.3,1.2l14.2-35.5L309.2,527.2 M309.2,487.6
				c-0.1,0-0.3,0-0.4,0c-0.2,0-0.4,0-0.6,0l-55.2,1.2c-15.9,0.3-30,10.1-35.9,24.9l-14.2,35.5c-4.9,12.3-3.3,26.3,4.2,37.2
				c7.4,10.7,19.6,17,32.5,17c0.3,0,0.6,0,0.9,0l55.3-1.2c15.9-0.3,30-10.1,35.9-24.9l13.8-34.5c2.1-4.8,3.2-10.1,3.2-15.6
				c0-21.7-17.5-39.4-39.2-39.6C309.5,487.6,309.3,487.6,309.2,487.6L309.2,487.6z M309.2,566.8L309.2,566.8L309.2,566.8
				L309.2,566.8z"/>
		</g>
		<g>
			<path class="st2" d="M312.5,629.3c-6.5,0-12.6-3.2-16.3-8.5c-3.8-5.5-4.6-12.5-2.1-18.6l18.3-45.8c2.9-7.4,10-12.3,17.9-12.4
				l72.1-1.6c0.1,0,0.3,0,0.4,0c6.5,0,12.6,3.2,16.3,8.5c3.8,5.5,4.6,12.5,2.1,18.6L403,615.3c-2.9,7.4-10,12.3-17.9,12.4l-72.1,1.6
				C312.8,629.3,312.7,629.3,312.5,629.3z"/>
			<path class="st0" d="M402.9,562.1L402.9,562.1 M402.9,562.1l-18.3,45.8l-72.1,1.6l18.3-45.8L402.9,562.1 M402.9,522.5
				c-0.1,0-0.3,0-0.4,0c0,0,0,0,0,0c0,0,0,0,0,0c-0.2,0-0.3,0-0.5,0l-72,1.6c-15.9,0.3-30,10.1-35.9,24.9l-18.3,45.8
				c-4.9,12.3-3.3,26.3,4.2,37.2c7.4,10.7,19.6,17,32.5,17c0.3,0,0.6,0,0.9,0l72.1-1.6c15.9-0.3,30-10.1,35.9-24.9l17.9-44.9
				c2.1-4.8,3.2-10.1,3.2-15.6c0-21.7-17.5-39.3-39.1-39.6C403.2,522.5,403.1,522.5,402.9,522.5L402.9,522.5z M402.9,601.7
				L402.9,601.7L402.9,601.7L402.9,601.7z"/>
		</g>
		<g>
			<path class="st2" d="M362.3,762.3c-6.5,0-12.6-3.2-16.3-8.5c-3.8-5.5-4.6-12.5-2.1-18.6l22.6-56.5c2.9-7.4,10-12.3,17.9-12.4
				l80.1-1.8c0.1,0,0.3,0,0.4,0c6.5,0,12.6,3.2,16.3,8.5c3.8,5.5,4.6,12.5,2.1,18.6l-22.6,56.5c-2.9,7.4-10,12.3-17.9,12.4
				l-80.1,1.8C362.6,762.3,362.5,762.3,362.3,762.3z"/>
			<path class="st0" d="M465,684.2L465,684.2 M465,684.2l-22.6,56.5l-80.1,1.8l22.6-56.5L465,684.2 M465,644.7c-0.1,0-0.3,0-0.4,0
				c0,0,0,0,0,0c0,0,0,0,0,0c-0.2,0-0.3,0-0.5,0l-80,1.8c-15.9,0.3-30,10.1-35.9,24.9l-22.6,56.5c-4.9,12.3-3.3,26.3,4.2,37.2
				c7.4,10.7,19.6,17,32.5,17c0.3,0,0.6,0,0.9,0l80.1-1.8c15.9-0.3,30-10.1,35.9-24.9l22.2-55.6c2.1-4.8,3.2-10.1,3.2-15.6
				c0-21.7-17.5-39.3-39.1-39.6C465.3,644.7,465.1,644.7,465,644.7L465,644.7z M465,723.8L465,723.8L465,723.8L465,723.8z"/>
		</g>
		<g>
			<path class="st2" d="M143.9,614.1c-6.5,0-12.6-3.2-16.3-8.5c-3.8-5.5-4.6-12.5-2.1-18.6l11.8-29.5c2.9-7.4,10-12.3,17.9-12.4
				l42-0.9c0.1,0,0.3,0,0.4,0c6.5,0,12.6,3.2,16.3,8.5c3.8,5.5,4.6,12.5,2.1,18.6l-11.8,29.5c-2.9,7.4-10,12.3-17.9,12.4l-42,0.9
				C144.2,614.1,144,614.1,143.9,614.1z"/>
			<path class="st0" d="M197.7,563.9L197.7,563.9 M197.7,563.9l-11.8,29.5l-42,0.9l11.8-29.5L197.7,563.9 M197.7,524.3
				c-0.1,0-0.3,0-0.4,0c0,0,0,0,0,0c0,0,0,0,0,0c-0.2,0-0.3,0-0.5,0l-41.9,0.9c-15.9,0.3-30,10.1-35.9,24.9l-11.8,29.5
				c-4.9,12.3-3.3,26.3,4.2,37.2c7.4,10.7,19.6,17,32.5,17c0.3,0,0.6,0,0.9,0l42-0.9c15.9-0.3,30-10.1,35.9-24.9l11.4-28.6
				c2.1-4.8,3.2-10.1,3.2-15.6c0-21.7-17.5-39.3-39.1-39.6C198,524.3,197.8,524.3,197.7,524.3L197.7,524.3z M197.7,603.5
				L197.7,603.5L197.7,603.5L197.7,603.5z"/>
		</g>
		<g>
			<path class="st2" d="M81.4,553.9c-6.5,0-12.6-3.2-16.3-8.5c-3.8-5.5-4.6-12.5-2.1-18.6l10.2-25.4c2.9-7.4,10-12.3,17.9-12.4
				l31.4-0.7c0.1,0,0.3,0,0.4,0c6.5,0,12.6,3.2,16.3,8.5c3.8,5.5,4.6,12.5,2.1,18.6l-10.2,25.4c-2.9,7.4-10,12.3-17.9,12.4
				l-31.4,0.7C81.7,553.9,81.5,553.9,81.4,553.9z"/>
			<path class="st0" d="M123,507.9L123,507.9 M123,507.9l-10.2,25.4l-31.4,0.7l10.2-25.4L123,507.9 M123,468.4c-0.1,0-0.3,0-0.4,0
				c-0.2,0-0.4,0-0.6,0l-31.3,0.7c-15.9,0.3-30,10.1-35.9,24.9l-10.2,25.4c-4.9,12.3-3.3,26.3,4.2,37.2c7.4,10.7,19.6,17,32.5,17
				c0.3,0,0.6,0,0.9,0l31.4-0.7c15.9-0.3,30-10.1,35.9-24.9l9.8-24.5c2.1-4.8,3.2-10.1,3.2-15.6c0-21.7-17.5-39.4-39.2-39.6
				C123.2,468.4,123.1,468.4,123,468.4L123,468.4z M123,547.5L123,547.5L123,547.5L123,547.5z"/>
		</g>
		<g>
			<path class="st2" d="M203.8,673.4c-6.5,0-12.6-3.2-16.3-8.5c-3.8-5.5-4.6-12.5-2.1-18.6l14.2-35.5c2.9-7.4,10-12.3,17.9-12.4
				l55.3-1.2c0.1,0,0.3,0,0.4,0c6.5,0,12.6,3.2,16.3,8.5c3.8,5.5,4.6,12.5,2.1,18.6l-14.2,35.5c-2.9,7.4-10,12.3-17.9,12.4
				l-55.3,1.2C204.1,673.4,204,673.4,203.8,673.4z"/>
			<path class="st0" d="M273.3,617L273.3,617 M273.3,617l-14.2,35.5l-55.3,1.2l14.2-35.5L273.3,617 M273.3,577.4c-0.1,0-0.3,0-0.4,0
				c0,0,0,0,0,0c0,0,0,0,0,0c-0.2,0-0.3,0-0.5,0l-55.2,1.2c-15.9,0.3-30,10.1-35.9,24.9L167.1,639c-4.9,12.3-3.3,26.3,4.2,37.2
				c7.4,10.7,19.6,17,32.5,17c0.3,0,0.6,0,0.9,0L260,692c15.9-0.3,30-10.1,35.9-24.9l13.8-34.5c2.1-4.8,3.2-10.1,3.2-15.6
				c0-21.7-17.5-39.3-39.1-39.6C273.6,577.4,273.5,577.4,273.3,577.4L273.3,577.4z M273.3,656.6L273.3,656.6L273.3,656.6
				L273.3,656.6z"/>
		</g>
		<g>
			<path class="st2" d="M276.7,719.1c-6.5,0-12.6-3.2-16.3-8.5c-3.8-5.5-4.6-12.5-2.1-18.6l18.3-45.8c2.9-7.4,10-12.3,17.9-12.4
				l72.1-1.6c0.1,0,0.3,0,0.4,0c6.5,0,12.6,3.2,16.3,8.5c3.8,5.5,4.6,12.5,2.1,18.6L367.1,705c-2.9,7.4-10,12.3-17.9,12.4l-72.1,1.6
				C277,719.1,276.8,719.1,276.7,719.1z"/>
			<path class="st0" d="M367.1,651.9L367.1,651.9 M367.1,651.9l-18.3,45.8l-72.1,1.6l18.3-45.8L367.1,651.9 M367.1,612.3
				c-0.1,0-0.3,0-0.4,0c0,0,0,0,0,0c0,0,0,0,0,0c-0.2,0-0.3,0-0.5,0l-72,1.6c-15.9,0.3-30,10.1-35.9,24.9l-18.3,45.8
				c-4.9,12.3-3.3,26.3,4.2,37.2c7.4,10.7,19.6,17,32.5,17c0.3,0,0.6,0,0.9,0l72.1-1.6c15.9-0.3,30-10.1,35.9-24.9l17.9-44.9
				c2.1-4.8,3.2-10.1,3.2-15.6c0-21.7-17.5-39.4-39.1-39.6C367.3,612.3,367.2,612.3,367.1,612.3L367.1,612.3z M367.1,691.5
				L367.1,691.5L367.1,691.5L367.1,691.5z"/>
		</g>
		<g>
			<path class="st2" d="M474.1,482.5c-6.5,0-12.6-3.2-16.3-8.5c-3.8-5.5-4.6-12.5-2.1-18.6l22.6-56.5c2.9-7.4,10-12.3,17.9-12.4
				l80.1-1.8c0.1,0,0.3,0,0.4,0c6.5,0,12.6,3.2,16.3,8.5c3.8,5.5,4.6,12.5,2.1,18.6l-22.6,56.5c-2.9,7.4-10,12.3-17.9,12.4
				l-80.1,1.8C474.4,482.5,474.2,482.5,474.1,482.5z"/>
			<path class="st0" d="M576.7,404.5L576.7,404.5 M576.7,404.5l-22.6,56.5l-80.1,1.8l22.6-56.5L576.7,404.5 M576.7,364.9
				c-0.1,0-0.3,0-0.4,0c0,0,0,0,0,0c0,0,0,0,0,0c-0.2,0-0.3,0-0.5,0l-80,1.8c-15.9,0.3-30,10.1-35.9,24.9L437.3,448
				c-4.9,12.3-3.3,26.3,4.2,37.2c7.4,10.7,19.6,17,32.5,17c0.3,0,0.6,0,0.9,0l80.1-1.8c15.9-0.3,30-10.1,35.9-24.9l22.2-55.6
				c2.1-4.8,3.2-10.1,3.2-15.6c0-21.7-17.5-39.3-39.1-39.6C577,364.9,576.9,364.9,576.7,364.9L576.7,364.9z M576.7,444.1
				L576.7,444.1L576.7,444.1L576.7,444.1z"/>
		</g>
		<g>
			<path class="st2" d="M255.7,334.3c-6.5,0-12.6-3.2-16.3-8.5c-3.8-5.5-4.6-12.4-2.1-18.6l11.8-29.5c2.9-7.4,10-12.3,17.9-12.4
				l42-0.9c0.1,0,0.3,0,0.4,0c6.5,0,12.6,3.2,16.3,8.5c3.8,5.5,4.6,12.5,2.1,18.6L316,321c-2.9,7.4-10,12.3-18,12.4l-42,0.9
				C255.9,334.3,255.8,334.3,255.7,334.3z"/>
			<path class="st0" d="M309.4,284.1L309.4,284.1 M309.4,284.1l-11.8,29.5l-42,0.9l11.8-29.5L309.4,284.1 M309.4,244.5
				c-0.1,0-0.3,0-0.4,0c0,0,0,0,0,0c0,0,0,0,0,0c-0.2,0-0.3,0-0.5,0l-41.9,0.9c-15.9,0.3-30,10.1-35.9,24.9l-11.8,29.5
				c-4.9,12.3-3.3,26.3,4.2,37.2c7.4,10.7,19.6,17,32.5,17c0.3,0,0.6,0,0.8,0l42-0.9c15.9-0.3,30-10.1,35.9-24.9l11.4-28.6
				c2.1-4.8,3.2-10.1,3.2-15.6c0-21.7-17.5-39.3-39.1-39.6C309.7,244.5,309.6,244.5,309.4,244.5L309.4,244.5z M309.4,323.7
				L309.4,323.7L309.4,323.7L309.4,323.7z"/>
		</g>
		<g>
			<path class="st2" d="M193.1,274.1c-6.5,0-12.6-3.2-16.3-8.5c-3.8-5.5-4.6-12.5-2.1-18.6l10.2-25.4c2.9-7.4,10-12.3,17.9-12.4
				l31.4-0.7c0.1,0,0.3,0,0.4,0c6.5,0,12.6,3.2,16.3,8.5c3.8,5.5,4.6,12.5,2.1,18.6l-10.2,25.4c-2.9,7.4-10,12.3-17.9,12.4
				l-31.4,0.7C193.4,274.1,193.3,274.1,193.1,274.1z"/>
			<path class="st0" d="M234.7,228.2L234.7,228.2 M234.7,228.2l-10.2,25.4l-31.4,0.7l10.2-25.4L234.7,228.2 M234.7,188.6
				c-0.1,0-0.3,0-0.4,0c0,0,0,0,0,0c0,0,0,0,0,0c-0.2,0-0.3,0-0.5,0l-31.3,0.7c-15.9,0.3-30,10.1-35.9,24.9l-10.2,25.4
				c-4.9,12.3-3.3,26.3,4.2,37.2c7.4,10.7,19.6,17,32.5,17c0.3,0,0.6,0,0.9,0l31.4-0.7c15.9-0.3,30-10.1,35.9-24.9l9.8-24.5
				c2.1-4.8,3.2-10.1,3.2-15.6c0-21.7-17.5-39.4-39.1-39.6C235,188.6,234.9,188.6,234.7,188.6L234.7,188.6z M234.7,267.8
				L234.7,267.8L234.7,267.8L234.7,267.8z"/>
		</g>
		<g>
			<path class="st2" d="M315.6,393.7c-6.5,0-12.6-3.2-16.3-8.5c-3.8-5.5-4.6-12.5-2.1-18.6l14.2-35.5c2.9-7.4,10-12.3,17.9-12.4
				l55.3-1.2c0.1,0,0.3,0,0.4,0c6.5,0,12.6,3.2,16.3,8.5c3.8,5.5,4.6,12.5,2.1,18.6L389.3,380c-2.9,7.4-10,12.3-17.9,12.4l-55.3,1.2
				C315.9,393.7,315.7,393.7,315.6,393.7z"/>
			<path class="st0" d="M385.1,337.2L385.1,337.2 M385.1,337.2l-14.2,35.5l-55.3,1.2l14.2-35.5L385.1,337.2 M385.1,297.6
				c-0.1,0-0.3,0-0.4,0c0,0,0,0,0,0c0,0,0,0,0,0c-0.2,0-0.3,0-0.5,0l-55.2,1.2c-15.9,0.3-30,10.1-35.9,24.9l-14.2,35.5
				c-4.9,12.3-3.3,26.3,4.2,37.2c7.4,10.7,19.6,17,32.5,17c0.3,0,0.6,0,0.9,0l55.3-1.2c15.9-0.3,30-10.1,35.9-24.9l13.8-34.5
				c2.1-4.8,3.2-10.1,3.2-15.6c0-21.7-17.5-39.3-39.1-39.6C385.4,297.6,385.3,297.6,385.1,297.6L385.1,297.6z M385.1,376.8
				L385.1,376.8L385.1,376.8L385.1,376.8z"/>
		</g>
		<g>
			<path class="st2" d="M388.4,439.3c-6.5,0-12.6-3.2-16.3-8.5c-3.8-5.5-4.6-12.5-2.1-18.6l18.3-45.8c2.9-7.4,10-12.3,17.9-12.4
				l72.1-1.6c0.1,0,0.3,0,0.4,0c6.5,0,12.6,3.2,16.3,8.5c3.8,5.5,4.6,12.5,2.1,18.6l-18.3,45.8c-2.9,7.4-10,12.3-17.9,12.4
				l-72.1,1.6C388.7,439.3,388.6,439.3,388.4,439.3z"/>
			<path class="st0" d="M478.8,372.1L478.8,372.1 M478.8,372.1l-18.3,45.8l-72.1,1.6l18.3-45.8L478.8,372.1 M478.8,332.5
				c-0.1,0-0.3,0-0.4,0c-0.2,0-0.4,0-0.6,0l-72,1.6c-15.9,0.3-30,10.1-35.9,24.9l-18.3,45.8c-4.9,12.3-3.3,26.3,4.2,37.2
				c7.4,10.7,19.6,17,32.5,17c0.3,0,0.6,0,0.9,0l72.1-1.6c15.9-0.3,30-10.1,35.9-24.9l17.9-44.9c2.1-4.8,3.2-10.1,3.2-15.6
				c0-21.7-17.5-39.4-39.2-39.6C479.1,332.5,479,332.5,478.8,332.5L478.8,332.5z M478.8,411.7L478.8,411.7L478.8,411.7L478.8,411.7z
				"/>
		</g>
		<g>
			<path class="st2" d="M510,392.6c-6.5,0-12.6-3.2-16.3-8.5c-3.8-5.5-4.6-12.5-2.1-18.6l22.6-56.5c2.9-7.4,10-12.3,17.9-12.4
				l80.1-1.8c0.1,0,0.3,0,0.4,0c6.5,0,12.6,3.2,16.3,8.5c3.8,5.5,4.6,12.5,2.1,18.6l-22.6,56.5c-2.9,7.4-10,12.3-17.9,12.4
				l-80.1,1.8C510.3,392.6,510.2,392.6,510,392.6z"/>
			<path class="st0" d="M612.7,314.5L612.7,314.5 M612.7,314.5L590.1,371l-80.1,1.8l22.6-56.5L612.7,314.5 M612.7,274.9
				c-0.1,0-0.3,0-0.4,0c0,0,0,0,0,0c0,0,0,0,0,0c-0.2,0-0.3,0-0.5,0l-80,1.8c-15.9,0.3-30,10.1-35.9,24.9l-22.6,56.5
				c-4.9,12.3-3.3,26.3,4.2,37.2c7.4,10.7,19.6,17,32.5,17c0.3,0,0.6,0,0.9,0l80.1-1.8c15.9-0.3,30-10.1,35.9-24.9l22.2-55.6
				c2.1-4.8,3.2-10.1,3.2-15.6c0-21.7-17.5-39.3-39.1-39.6C613,274.9,612.8,274.9,612.7,274.9L612.7,274.9z M612.7,354.1
				L612.7,354.1L612.7,354.1L612.7,354.1z"/>
		</g>
		<g>
			<path class="st2" d="M291.6,244.4c-6.5,0-12.6-3.2-16.3-8.5c-3.8-5.5-4.6-12.5-2.1-18.6l11.8-29.5c2.9-7.4,10-12.3,17.9-12.4
				l42-0.9c0.1,0,0.3,0,0.4,0c6.5,0,12.6,3.2,16.3,8.5c3.8,5.5,4.6,12.5,2.1,18.6L351.9,231c-2.9,7.4-10,12.3-17.9,12.4l-42,0.9
				C291.9,244.4,291.7,244.4,291.6,244.4z"/>
			<path class="st0" d="M345.4,194.2L345.4,194.2 M345.4,194.2l-11.8,29.5l-42,0.9l11.8-29.5L345.4,194.2 M345.4,154.6
				c-0.1,0-0.3,0-0.4,0c0,0,0,0,0,0c0,0,0,0,0,0c-0.2,0-0.3,0-0.5,0l-41.9,0.9c-15.9,0.3-30,10.1-35.9,24.9l-11.8,29.5
				c-4.9,12.3-3.3,26.3,4.2,37.2c7.4,10.7,19.6,17,32.5,17c0.3,0,0.6,0,0.9,0l42-0.9c15.9-0.3,30-10.1,35.9-24.9l11.4-28.6
				c2.1-4.8,3.2-10.1,3.2-15.6c0-21.7-17.5-39.3-39.1-39.6C345.7,154.6,345.5,154.6,345.4,154.6L345.4,154.6z M345.4,233.7
				L345.4,233.7L345.4,233.7L345.4,233.7z"/>
		</g>
		<g>
			<path class="st2" d="M229.1,184.1c-6.5,0-12.6-3.2-16.3-8.5c-3.8-5.5-4.6-12.5-2.1-18.6l10.2-25.4c2.9-7.4,10-12.3,17.9-12.4
				l31.4-0.7c0.1,0,0.3,0,0.4,0c6.5,0,12.6,3.2,16.3,8.5c3.8,5.5,4.6,12.5,2.1,18.6L278.9,171c-2.9,7.4-10,12.3-17.9,12.4l-31.4,0.7
				C229.3,184.1,229.2,184.1,229.1,184.1z"/>
			<path class="st0" d="M270.7,138.2L270.7,138.2 M270.7,138.2l-10.2,25.4l-31.4,0.7l10.2-25.4L270.7,138.2 M270.7,98.6
				c-0.1,0-0.3,0-0.4,0c-0.2,0-0.4,0-0.6,0l-31.3,0.7c-15.9,0.3-30,10.1-35.9,24.9l-10.2,25.4c-4.9,12.3-3.3,26.3,4.2,37.2
				c7.4,10.7,19.6,17,32.5,17c0.3,0,0.6,0,0.9,0l31.4-0.7c15.9-0.3,30-10.1,35.9-24.9l9.8-24.5c2.1-4.8,3.2-10.1,3.2-15.6
				c0-21.7-17.5-39.4-39.2-39.6C270.9,98.6,270.8,98.6,270.7,98.6L270.7,98.6z M270.7,177.8L270.7,177.8L270.7,177.8L270.7,177.8z"
				/>
		</g>
		<g>
			<path class="st2" d="M351.5,303.7c-6.5,0-12.6-3.2-16.3-8.5c-3.8-5.5-4.6-12.5-2.1-18.6l14.2-35.5c2.9-7.4,10-12.3,17.9-12.4
				l55.3-1.2c0.1,0,0.3,0,0.4,0c6.5,0,12.6,3.2,16.3,8.5c3.8,5.5,4.6,12.5,2.1,18.6l-14.2,35.5c-2.9,7.4-10,12.3-17.9,12.4
				l-55.3,1.2C351.8,303.7,351.7,303.7,351.5,303.7z"/>
			<path class="st0" d="M421,247.3L421,247.3 M421,247.3l-14.2,35.5l-55.3,1.2l14.2-35.5L421,247.3 M421,207.7c-0.1,0-0.3,0-0.4,0
				c0,0,0,0,0,0c0,0,0,0,0,0c-0.2,0-0.3,0-0.5,0l-55.2,1.2c-15.9,0.3-30,10.1-35.9,24.9l-14.2,35.5c-4.9,12.3-3.3,26.3,4.2,37.2
				c7.4,10.7,19.6,17,32.5,17c0.3,0,0.6,0,0.9,0l55.3-1.2c15.9-0.3,30-10.1,35.9-24.9l13.8-34.5c2.1-4.8,3.2-10.1,3.2-15.6
				c0-21.7-17.5-39.3-39.1-39.6C421.3,207.7,421.2,207.7,421,207.7L421,207.7z M421,286.8L421,286.8L421,286.8L421,286.8z"/>
		</g>
		<g>
			<path class="st2" d="M424.4,349.3c-6.5,0-12.6-3.2-16.3-8.5c-3.8-5.5-4.6-12.5-2.1-18.6l18.3-45.8c2.9-7.4,10-12.3,17.9-12.4
				l72.1-1.6c0.1,0,0.3,0,0.4,0c6.5,0,12.6,3.2,16.3,8.5c3.8,5.5,4.6,12.5,2.1,18.6l-18.3,45.8c-2.9,7.4-10,12.3-17.9,12.4
				l-72.1,1.6C424.7,349.3,424.5,349.3,424.4,349.3z"/>
			<path class="st0" d="M514.7,282.2L514.7,282.2 M514.7,282.2L496.5,328l-72.1,1.6l18.3-45.8L514.7,282.2 M514.7,242.6
				c-0.1,0-0.3,0-0.4,0c0,0,0,0,0,0c0,0,0,0,0,0c-0.2,0-0.3,0-0.5,0l-72,1.6c-15.9,0.3-30,10.1-35.9,24.9l-18.3,45.8
				c-4.9,12.3-3.3,26.3,4.2,37.2c7.4,10.7,19.6,17,32.5,17c0.3,0,0.6,0,0.9,0l72.1-1.6c15.9-0.3,30-10.1,35.9-24.9l17.9-44.9
				c2.1-4.8,3.2-10.1,3.2-15.6c0-21.7-17.5-39.3-39.1-39.6C515,242.6,514.9,242.6,514.7,242.6L514.7,242.6z M514.7,321.8
				L514.7,321.8L514.7,321.8L514.7,321.8z"/>
		</g>
		<g>
			<path class="st2" d="M538.4,299.6c-6.5,0-12.6-3.2-16.3-8.5c-3.8-5.5-4.6-12.5-2.1-18.6l26.8-67.1c2.9-7.4,10-12.3,17.9-12.4
				l94.7-2.1c0.1,0,0.3,0,0.4,0c6.5,0,12.6,3.2,16.3,8.5c3.8,5.5,4.6,12.5,2.1,18.6l-26.8,67.1c-2.9,7.4-10,12.3-17.9,12.4
				l-94.7,2.1C538.7,299.6,538.6,299.6,538.4,299.6z"/>
			<path class="st0" d="M659.9,210.7L659.9,210.7 M659.9,210.7l-26.8,67.1l-94.7,2.1l26.8-67.1L659.9,210.7 M660,171.1
				c-0.2,0-0.3,0-0.5,0c-0.2,0-0.3,0-0.5,0l-94.6,2.1c-15.9,0.3-30,10.1-35.9,24.9l-26.8,67.1c-4.9,12.3-3.3,26.3,4.2,37.2
				c7.4,10.7,19.6,17,32.5,17c0.3,0,0.6,0,0.9,0l94.7-2.1c15.9-0.3,30-10.1,35.9-24.9l26.4-66.2c2.1-4.8,3.2-10.1,3.2-15.6
				c0-21.7-17.5-39.3-39.1-39.6C660.3,171.1,660.1,171.1,660,171.1L660,171.1z M659.9,250.3L659.9,250.3L659.9,250.3L659.9,250.3z"
				/>
		</g>
		<g>
			<path class="st2" d="M324.9,146.5c-6.5,0-12.6-3.2-16.3-8.5c-3.8-5.5-4.6-12.5-2.1-18.6l13.1-32.8c2.9-7.4,10-12.3,17.9-12.4
				l52.3-1.2c0.1,0,0.3,0,0.4,0c6.5,0,12.6,3.2,16.3,8.5c3.8,5.5,4.6,12.5,2.1,18.6l-13.1,32.8c-2.9,7.4-10,12.3-17.9,12.4
				l-52.3,1.2C325.1,146.5,325,146.5,324.9,146.5z"/>
			<path class="st0" d="M390.3,92.7L390.3,92.7 M390.3,92.7l-13.1,32.8l-52.3,1.2L338,93.9L390.3,92.7 M390.3,53.1
				c-0.1,0-0.3,0-0.4,0c0,0,0,0,0,0c0,0,0,0,0,0c-0.2,0-0.3,0-0.5,0l-52.2,1.2c-15.9,0.3-30,10.1-35.9,24.9L288.1,112
				c-4.9,12.3-3.3,26.3,4.2,37.2c7.4,10.7,19.6,17,32.5,17c0.3,0,0.6,0,0.9,0l52.3-1.2c15.9-0.3,30-10.1,35.9-24.9l12.7-31.9
				c2.1-4.8,3.2-10.1,3.2-15.6c0-21.7-17.5-39.3-39.1-39.6C390.6,53.1,390.5,53.1,390.3,53.1L390.3,53.1z M390.3,132.3L390.3,132.3
				L390.3,132.3L390.3,132.3z"/>
		</g>
		<g>
			<path class="st2" d="M263.2,88.7c-6.5,0-12.6-3.2-16.3-8.5c-3.8-5.5-4.6-12.5-2.1-18.6l11.4-28.4c2.9-7.4,10-12.3,17.9-12.4
				l39.7-0.9c0.1,0,0.3,0,0.4,0c6.5,0,12.6,3.2,16.3,8.5c3.8,5.5,4.6,12.5,2.1,18.6l-11.4,28.4c-2.9,7.4-10,12.3-17.9,12.4
				l-39.7,0.9C263.5,88.7,263.3,88.7,263.2,88.7z"/>
			<path class="st0" d="M314.2,39.6L314.2,39.6 M314.2,39.6L302.9,68l-39.7,0.9l11.4-28.4L314.2,39.6 M314.2,0c-0.1,0-0.3,0-0.4,0
				c0,0,0,0,0,0c0,0,0,0,0,0c-0.2,0-0.3,0-0.5,0l-39.6,0.9c-15.9,0.3-30,10.1-35.9,24.9l-11.4,28.4c-4.9,12.3-3.3,26.3,4.2,37.2
				c7.4,10.7,19.6,17,32.5,17c0.3,0,0.6,0,0.9,0l39.7-0.9c15.9-0.3,30-10.1,35.9-24.9l11-27.5c2.1-4.8,3.2-10.1,3.2-15.6
				c0-21.7-17.5-39.3-39.1-39.6C314.5,0,314.4,0,314.2,0L314.2,0z M314.2,79.2L314.2,79.2L314.2,79.2L314.2,79.2z"/>
		</g>
		<g>
			<path class="st2" d="M381.9,207.4c-6.5,0-12.6-3.2-16.3-8.5c-3.8-5.5-4.6-12.5-2.1-18.6l16-40c2.9-7.4,10-12.3,17.9-12.4
				l68.1-1.5c0.1,0,0.3,0,0.4,0c6.5,0,12.6,3.2,16.3,8.5c3.8,5.5,4.6,12.5,2.1,18.6l-16,40c-2.9,7.4-10,12.3-17.9,12.4l-68.1,1.5
				C382.1,207.4,382,207.4,381.9,207.4z"/>
			<path class="st0" d="M465.9,146.1L465.9,146.1 M465.9,146.1l-16,40l-68.1,1.5l16-40L465.9,146.1 M465.9,106.5c-0.1,0-0.3,0-0.4,0
				c-0.2,0-0.4,0-0.6,0L397,108c-15.9,0.3-30,10.1-35.9,24.9l-16,40c-4.9,12.3-3.3,26.3,4.2,37.2c7.4,10.7,19.6,17,32.5,17
				c0.3,0,0.6,0,0.9,0l68.1-1.5c15.9-0.3,30-10.1,35.9-24.9l15.6-39.1c2.1-4.8,3.2-10.1,3.2-15.6c0-21.7-17.5-39.4-39.2-39.6
				C466.2,106.5,466,106.5,465.9,106.5L465.9,106.5z M465.9,185.7L465.9,185.7L465.9,185.7L465.9,185.7z"/>
		</g>
		<g>
			<path class="st2" d="M455.7,250.9c-6.5,0-12.6-3.2-16.3-8.5c-3.8-5.5-4.6-12.5-2.1-18.6l20.3-50.8c2.9-7.4,10-12.3,17.9-12.4
				l83.8-1.8c0.1,0,0.3,0,0.4,0c6.5,0,12.6,3.2,16.3,8.5c3.8,5.5,4.6,12.5,2.1,18.6l-20.3,50.8c-2.9,7.4-10,12.3-17.9,12.4
				l-83.8,1.8C456,250.9,455.8,250.9,455.7,250.9z"/>
			<path class="st0" d="M559.7,178.5L559.7,178.5 M559.7,178.5l-20.3,50.8l-83.8,1.8l20.3-50.8L559.7,178.5 M559.7,138.9
				c-0.1,0-0.3,0-0.4,0c-0.2,0-0.4,0-0.6,0l-83.7,1.8c-15.9,0.3-30,10.1-35.9,24.9l-20.3,50.8c-4.9,12.3-3.3,26.3,4.2,37.2
				c7.4,10.7,19.6,17,32.5,17c0.3,0,0.6,0,0.9,0l83.8-1.8c15.9-0.3,30-10.1,35.9-24.9l19.9-49.9c2.1-4.8,3.2-10.1,3.2-15.6
				c0-21.7-17.5-39.4-39.2-39.6c0,0,0,0,0,0c0,0,0,0,0,0C560,138.9,559.9,138.9,559.7,138.9L559.7,138.9z M559.7,218.1L559.7,218.1
				L559.7,218.1L559.7,218.1z"/>
		</g>
		<g>
			<path class="st2" d="M489.1,694.2c-6.5,0-12.6-3.2-16.3-8.5c-3.8-5.5-4.6-12.4-2.1-18.6l31.7-79.3c3-7.4,10-12.3,18-12.4
				l101.8-1.9c0.1,0,0.3,0,0.4,0c6.5,0,12.6,3.2,16.3,8.5c3.8,5.5,4.6,12.4,2.1,18.6l-31.7,79.3c-3,7.4-10,12.3-18,12.4l-101.8,1.9
				C489.4,694.2,489.2,694.2,489.1,694.2z"/>
			<path class="st0" d="M622.6,593.2L622.6,593.2 M622.6,593.2l-31.7,79.3l-101.8,1.9l31.7-79.3L622.6,593.2 M622.6,553.6
				c-0.1,0-0.3,0-0.4,0c0,0,0,0,0,0l0,0c-0.1,0-0.3,0-0.4,0l-101.7,1.9c-15.9,0.3-30.1,10.1-36,24.9l-31.7,79.3
				c-4.9,12.3-3.3,26.3,4.2,37.2c7.4,10.7,19.6,17.1,32.6,17.1c0.3,0,0.5,0,0.8,0l101.8-1.9c15.9-0.3,30.1-10.1,36-24.9l31.3-78.4
				c2.1-4.8,3.2-10.1,3.2-15.6c0-21.7-17.5-39.4-39.2-39.6c0,0,0,0,0,0c0,0,0,0,0,0C622.8,553.6,622.7,553.6,622.6,553.6
				L622.6,553.6z M622.6,632.8L622.6,632.8L622.6,632.8L622.6,632.8z"/>
		</g>
		<g>
			<path class="st2" d="M452.8,785.2c-6.5,0-12.6-3.2-16.3-8.5c-3.8-5.5-4.6-12.4-2.1-18.6l31.7-79.3c3-7.4,10-12.3,18-12.4
				l101.8-1.9c0.1,0,0.3,0,0.4,0c6.5,0,12.6,3.2,16.3,8.5c3.8,5.5,4.6,12.4,2.1,18.6L573,770.8c-3,7.4-10,12.3-18,12.4l-101.8,1.9
				C453.1,785.2,452.9,785.2,452.8,785.2z"/>
			<path class="st0" d="M586.3,684.1L586.3,684.1 M586.3,684.1l-31.7,79.3l-101.8,1.9l31.7-79.3L586.3,684.1 M586.3,644.5
				c-0.1,0-0.3,0-0.4,0c0,0,0,0,0,0s0,0,0,0c-0.1,0-0.3,0-0.4,0l-101.7,1.9c-15.9,0.3-30.1,10.1-36,24.9L416,750.7
				c-4.9,12.3-3.3,26.3,4.2,37.2c7.4,10.7,19.6,17.1,32.6,17.1c0.3,0,0.5,0,0.8,0l101.8-1.9c15.9-0.3,30.1-10.1,36-24.9l31.3-78.4
				c2.1-4.8,3.2-10.1,3.2-15.6c0-21.7-17.5-39.4-39.2-39.6C586.6,644.5,586.4,644.5,586.3,644.5L586.3,644.5z M586.3,723.7
				L586.3,723.7L586.3,723.7L586.3,723.7z"/>
		</g>
		<g>
			<path class="st2" d="M410.5,891c-6.2,0-12.2-3-15.9-8c-4.1-5.5-5-12.7-2.5-19.1l37.6-94.2c3-7.4,10-12.3,18-12.4l101.8-1.9
				c0.1,0,0.3,0,0.4,0c6.5,0,12.6,3.2,16.3,8.5c3.8,5.5,4.6,12.4,2.1,18.6L531.7,874c-3,7.5-10.3,12.4-18.4,12.5
				c-32,0-66.1,1.5-101.2,4.4C411.6,891,411.1,891,410.5,891z"/>
			<path class="st0" d="M550,775L550,775 M550,775l-36.6,91.7c-34.5,0-69,1.7-102.8,4.5l37.6-94.2L550,775 M550,735.4
				c-0.1,0-0.3,0-0.4,0c0,0,0,0,0,0l0,0c-0.1,0-0.3,0-0.4,0l-101.7,1.9c-15.9,0.3-30.1,10.1-36,24.9l-37.6,94.2
				c-5.1,12.7-3.2,27.2,4.9,38.2c7.5,10.1,19.3,16.1,31.8,16.1c1.1,0,2.2,0,3.3-0.1c34.6-2.9,68.1-4.3,99.6-4.4
				c16.2,0,30.7-9.9,36.7-24.9l36.3-90.8c2.1-4.8,3.2-10.1,3.2-15.6c0-21.7-17.5-39.4-39.2-39.6c0,0,0,0,0,0c0,0,0,0,0,0
				C550.2,735.4,550.1,735.4,550,735.4L550,735.4z M550,814.6L550,814.6L550,814.6L550,814.6z"/>
		</g>
		<g>
			<path class="st2" d="M525.4,603.3c-6.5,0-12.6-3.2-16.3-8.5c-3.8-5.5-4.6-12.4-2.1-18.6l31.7-79.3c3-7.4,10-12.3,18-12.4
				l101.8-1.9c0.1,0,0.3,0,0.4,0c6.5,0,12.6,3.2,16.3,8.5c3.8,5.5,4.6,12.4,2.1,18.6l-31.7,79.3c-3,7.4-10,12.3-18,12.4l-101.8,1.9
				C525.7,603.3,525.6,603.3,525.4,603.3z"/>
			<path class="st0" d="M659,502.3L659,502.3 M659,502.3l-31.7,79.3l-101.8,1.9l31.7-79.3L659,502.3 M659,462.7c-0.1,0-0.3,0-0.4,0
				c0,0,0,0,0,0s0,0,0,0c-0.1,0-0.3,0-0.4,0l-101.7,1.9c-15.9,0.3-30.1,10.1-36,24.9l-31.7,79.3c-4.9,12.3-3.3,26.3,4.2,37.2
				c7.4,10.7,19.6,17.1,32.6,17.1c0.3,0,0.5,0,0.8,0l101.8-1.9c15.9-0.3,30.1-10.1,36-24.9l31.3-78.4c2.1-4.8,3.2-10.1,3.2-15.6
				c0-21.7-17.5-39.4-39.2-39.6C659.2,462.7,659.1,462.7,659,462.7L659,462.7z M659,541.8L659,541.8L659,541.8L659,541.8z"/>
		</g>
		<g>
			<path class="st2" d="M561.8,512.4c-6.5,0-12.6-3.2-16.3-8.5c-3.8-5.5-4.6-12.4-2.1-18.6l31.7-79.3c3-7.4,10-12.3,18-12.4
				l101.8-1.9c0.1,0,0.3,0,0.4,0c6.5,0,12.6,3.2,16.3,8.5c3.8,5.5,4.6,12.4,2.1,18.6L682,498c-3,7.4-10,12.3-18,12.4l-101.8,1.9
				C562,512.4,561.9,512.4,561.8,512.4z"/>
			<path class="st0" d="M695.3,411.3L695.3,411.3 M695.3,411.3l-31.7,79.3l-101.8,1.9l31.7-79.3L695.3,411.3 M695.3,371.7
				c-0.1,0-0.3,0-0.4,0c0,0,0,0,0,0l0,0c-0.1,0-0.3,0-0.4,0l-101.7,1.9c-15.9,0.3-30.1,10.1-36,24.9L525,477.9
				c-4.9,12.3-3.3,26.3,4.2,37.2c7.4,10.7,19.6,17.1,32.6,17.1c0.3,0,0.5,0,0.8,0l101.8-1.9c15.9-0.3,30.1-10.1,36-24.9l31.3-78.4
				c2.1-4.8,3.2-10.1,3.2-15.6c0-21.7-17.5-39.4-39.2-39.6c0,0,0,0,0,0c0,0,0,0,0,0C695.5,371.7,695.4,371.7,695.3,371.7
				L695.3,371.7z M695.3,450.9L695.3,450.9L695.3,450.9L695.3,450.9z"/>
		</g>
		<g>
			<path class="st2" d="M598.1,421.5c-6.5,0-12.6-3.2-16.3-8.5c-3.8-5.5-4.6-12.4-2.1-18.6l31.7-79.3c3-7.4,10-12.3,18-12.4
				l101.8-1.9c0.1,0,0.3,0,0.4,0c6.5,0,12.6,3.2,16.3,8.5c3.8,5.5,4.6,12.4,2.1,18.6l-31.7,79.3c-3,7.4-10,12.3-18,12.4l-101.8,1.9
				C598.3,421.5,598.2,421.5,598.1,421.5z"/>
			<path class="st0" d="M731.6,320.4L731.6,320.4 M731.6,320.4l-31.7,79.3l-101.8,1.9l31.7-79.3L731.6,320.4 M731.6,280.8
				c-0.1,0-0.3,0-0.4,0c0,0,0,0,0,0c0,0,0,0,0,0c-0.1,0-0.3,0-0.4,0L629,282.8c-15.9,0.3-30.1,10.1-36,24.9L561.3,387
				c-4.9,12.3-3.3,26.3,4.2,37.2c7.4,10.7,19.6,17.1,32.6,17.1c0.3,0,0.5,0,0.8,0l101.8-1.9c15.9-0.3,30.1-10.1,36-24.9L768,336
				c2.1-4.8,3.2-10.1,3.2-15.6c0-21.7-17.5-39.4-39.2-39.6C731.8,280.8,731.7,280.8,731.6,280.8L731.6,280.8z M731.6,360L731.6,360
				L731.6,360L731.6,360z"/>
		</g>
		<g>
			<path class="st2" d="M634.4,330.5c-6.5,0-12.6-3.2-16.3-8.5c-3.8-5.5-4.6-12.4-2.1-18.6l36.2-90.5c2.8-7,9.3-11.8,16.7-12.4
				c36.2-3,71.4-4.5,104.5-4.6c0,0,0,0,0,0c6.6,0,12.7,3.3,16.4,8.7c3.7,5.4,4.4,12.3,2,18.4l-37.2,93.1c-3,7.4-10,12.3-18,12.4
				l-101.8,1.9C634.7,330.5,634.5,330.5,634.4,330.5z"/>
			<path class="st0" d="M773.4,215.8L773.4,215.8 M773.4,215.8l-37.2,93.1l-101.8,1.9l36.2-90.5
				C704.4,217.4,738.9,215.8,773.4,215.8 M773.4,176.2C773.4,176.2,773.4,176.2,773.4,176.2c-33.7,0-69.3,1.6-106.1,4.6
				c-15,1.2-27.9,10.8-33.5,24.8l-36.2,90.5c-4.9,12.3-3.3,26.3,4.2,37.2c7.4,10.7,19.6,17.1,32.6,17.1c0.3,0,0.5,0,0.8,0l101.8-1.9
				c15.9-0.3,30.1-10.1,36-24.9l36.8-92.2c2.1-4.8,3.2-10.1,3.2-15.6c0-21.8-17.7-39.5-39.5-39.6
				C773.5,176.2,773.5,176.2,773.4,176.2C773.5,176.2,773.5,176.2,773.4,176.2C773.4,176.2,773.4,176.2,773.4,176.2L773.4,176.2z
				 M773.4,255.3L773.4,255.3L773.4,255.3L773.4,255.3z"/>
		</g>
		<g>
			<path class="st2" d="M965.3,1073.7c-5.9,0-11.5-2.6-15.3-7.2c-49.9-60.4-120-109-208.5-144.4c-56.9-22.7-129.8-34.7-216.7-35.6
				c-6.5-0.1-12.6-3.4-16.2-8.8c-3.6-5.4-4.4-12.3-1.9-18.4l140.6-352l82.3-206.3c0.2-0.6,0.5-1.1,0.7-1.6l36.4-91
				c3-7.5,10.3-12.5,18.4-12.5c0.1,0,0.1,0,0.2,0c91.8,1,169.5,13.9,231,38.4c94.8,37.9,170.2,90.3,224.4,155.9
				c4.6,5.6,5.8,13.2,3.1,19.9l-260,650.9c-2.6,6.5-8.4,11.1-15.3,12.2C967.3,1073.7,966.3,1073.7,965.3,1073.7z"/>
			<path class="st0" d="M785,215.8c79.9,0.8,158.5,10.9,223.9,37C1117,296,1184.2,353.1,1225.3,403l-260,650.9
				C924.1,1004,857,947,748.9,903.8c-65.4-26.1-143.9-36.2-223.9-37l36.5-91.4l82.8-207.2h0l21.3-53.4l82.3-206.3c0,0,0.1,0,0.1,0
				L785,215.8 M785,176.2c-16.2,0-30.7,9.9-36.8,24.9l-36.1,90.3c-0.4,0.8-0.7,1.5-1,2.3l-82.3,206.3l-21.3,53.4l-82.8,207.2
				l-36.5,91.4c-4.8,12.1-3.4,25.9,3.9,36.7c7.3,10.9,19.4,17.4,32.5,17.6c84.4,0.9,155,12.4,209.6,34.2
				c46.7,18.7,88.7,41.5,124.7,67.8c29.2,21.4,54.8,45.2,75.9,70.8c7.6,9.2,18.8,14.4,30.5,14.4c2,0,4.1-0.2,6.1-0.5
				c13.8-2.2,25.5-11.4,30.7-24.4l260-650.9c5.4-13.4,3-28.7-6.2-39.9c-25.3-30.7-55.7-59.1-90.3-84.4
				c-41.3-30.2-89.1-56.2-142-77.3c-63.8-25.5-143.9-38.9-238.1-39.9C785.3,176.2,785.2,176.2,785,176.2L785,176.2z"/>
		</g>
	</g>
	<g>
		<g>
			<polygon points="314.8,839.6 341.6,772.5 341.6,772.5 436.3,770.4 409.6,837.5 			"/>
			<polygon points="114.4,653.6 101.3,686.4 153.6,685.3 166.7,652.4 			"/>
			<polygon points="79.3,627.8 90.6,599.3 51,600.2 39.6,628.6 			"/>
			<polygon points="174.2,707.3 158.3,747.3 226.3,745.8 242.3,705.8 			"/>
			<polygon points="232.1,790.8 252.4,740.1 336.1,738.2 315.9,789 			"/>
		</g>
		<g>
			<polygon points="426.6,559.8 521.3,557.7 548.1,490.6 453.4,492.7 			"/>
			<polygon points="265.4,405.5 278.5,372.7 226.1,373.8 213,406.6 			"/>
			<polygon points="151.4,348.9 162.7,320.4 202.4,319.5 191,348 			"/>
			<polygon points="338.1,466 354.1,426 286,427.5 270,467.5 			"/>
			<polygon points="364.1,460.3 343.8,511.1 427.6,509.2 447.9,458.4 			"/>
		</g>
		<g>
			<g>
				<polygon class="st2" points="500.8,594.5 420.7,596.3 398.3,652.5 478.6,650.1 				"/>
			</g>
			<polygon class="st2" points="179.7,504.6 191.5,475 233.5,474.1 221.7,503.7 			"/>
			<polygon class="st2" points="127.4,418.9 117.2,444.3 148.7,443.6 158.8,418.2 			"/>
			<polygon class="st2" points="239.7,563.9 253.8,528.4 309.2,527.2 295,562.7 			"/>
			<polygon class="st2" points="402.9,562.1 384.6,607.9 312.5,609.5 330.8,563.7 			"/>
		</g>
		<g>
			<polygon class="st2" points="362.3,742.5 384.9,686 465,684.2 442.4,740.7 			"/>
			<polygon class="st2" points="197.7,563.9 185.9,593.4 143.9,594.3 155.7,564.8 			"/>
			<polygon class="st2" points="112.8,533.4 123,507.9 91.5,508.6 81.4,534.1 			"/>
			<polygon class="st2" points="203.8,653.6 218,618.2 273.3,617 259.2,652.4 			"/>
			<polygon class="st2" points="367.1,651.9 348.8,697.7 276.7,699.3 295,653.5 			"/>
		</g>
		<g>
			<polygon class="st3" points="576.7,404.5 554.2,460.9 474.1,462.7 496.6,406.2 			"/>
			<polygon class="st3" points="255.7,314.5 267.4,285 309.4,284.1 297.6,313.6 			"/>
			<polygon class="st3" points="193.1,254.3 203.3,228.9 234.7,228.2 224.6,253.6 			"/>
			<polygon class="st3" points="315.6,373.9 329.8,338.4 385.1,337.2 370.9,372.7 			"/>
			<polygon class="st3" points="478.8,372.1 460.5,417.9 388.4,419.5 406.7,373.7 			"/>
		</g>
		<g>
			<polygon class="st3" points="532.6,316.3 510,372.8 590.1,371 612.7,314.5 			"/>
			<polygon class="st3" points="291.6,224.6 303.4,195.1 345.4,194.2 333.6,223.7 			"/>
			<polygon class="st3" points="229.1,164.3 239.2,138.9 270.7,138.2 260.5,163.7 			"/>
			<polygon class="st3" points="351.5,283.9 365.7,248.5 421,247.3 406.9,282.7 			"/>
			<polygon class="st3" points="514.7,282.2 496.4,328 424.4,329.6 442.7,283.8 			"/>
		</g>
		<g>
			<g>
				<polygon points="659.9,210.7 633.2,277.7 538.4,279.8 565.2,212.8 				"/>
				<polygon points="377.2,125.5 390.3,92.7 338,93.9 324.9,126.7 				"/>
				<polygon points="274.6,40.5 263.2,68.9 302.9,68 314.2,39.6 				"/>
				<polygon points="381.9,187.6 397.8,147.6 465.9,146.1 449.9,186.1 				"/>
				<polygon points="476,180.3 455.7,231.1 539.5,229.3 559.7,178.5 				"/>
			</g>
		</g>
		<g>
			<polygon points="622.6,593.2 520.8,595.1 489.1,674.4 590.9,672.5 			"/>
			<polygon points="554.6,763.4 586.3,684.1 484.5,686 452.8,765.4 			"/>
			<path d="M448.2,777l-37.6,94.2c33.8-2.8,68.4-4.5,102.8-4.5L550,775L448.2,777z"/>
			<polygon points="525.4,583.5 557.1,504.2 659,502.3 627.3,581.6 			"/>
			<polygon points="663.6,490.7 561.8,492.6 593.5,413.3 695.3,411.3 			"/>
			<polygon points="699.9,399.7 598.1,401.7 629.8,322.3 731.6,320.4 			"/>
			<path d="M736.2,308.8l37.2-93.1c-34.5,0-69,1.7-102.8,4.5l-36.2,90.5L736.2,308.8z"/>
			<path d="M1008.9,252.8c-65.4-26.1-143.9-36.2-223.9-37L525,866.8c79.9,0.8,158.5,10.9,223.9,37C857,947,924.1,1004,965.3,1053.9
				l260-650.9C1184.2,353.1,1117,296,1008.9,252.8z"/>
		</g>
		<g>
			<path class="st4" d="M1035.1,630.2c-38.1-33.9-85.9-62.5-142.9-85.3c-0.1-0.1-0.3-0.1-0.4-0.2l82.4-206.3
				c0.1,0.1,0.3,0.1,0.4,0.2c57,22.8,104.9,51.4,142.9,85.3L1035.1,630.2z"/>
			<path class="st3" d="M747.9,308.4l-82.3,206.3c65.6-1.6,123.4,2.9,171.2,13.5l1-2.6l81.4-203.8
				C871.4,311.4,813.6,306.8,747.9,308.4z"/>
			<path class="st5" d="M870.5,598.1c0.1,0.1,0.3,0.1,0.4,0.2c57,22.8,104.9,51.4,142.9,85.3l-84.9,212.5
				c-43-30.3-91.7-56.4-145.8-78.1c-0.1-0.1-0.3-0.1-0.4-0.2L870.5,598.1z"/>
			<path class="st2" d="M644.3,568.1l-82.8,207.2c61.8,2.7,117.5,10.9,166.9,24.4l3.5-8.8l83.6-209.4
				C767.6,571.1,709.9,566.5,644.3,568.1z"/>
		</g>
	</g>
	<g>
		<path class="st0" d="M1498.5,744.6c-1.1,1.4-2.8,2.5-5.1,3.2c-2.3,0.7-6.9,1.1-13.9,1.1h-89.1v3.8l13.6,23.9l4.4-1.2
			c-1.2-2.3-1.8-4.3-1.8-5.9c0-1.5,0.5-2.7,1.5-3.5c1-0.9,2.8-1.5,5.4-1.9c3.6-0.5,11.3-0.8,23.4-0.8h42.7c6.9,0,11.5,0.4,13.9,1.2
			c2.4,0.8,4.2,1.8,5.2,3.2c0.8,1.1,1.3,3,1.5,5.7h-0.1v4.1c0,4.6-1.7,8-5.1,10.1c-2.5,1.6-8.8,2.4-18.9,2.4h-107.3
			c-9.2,0-15.1-0.6-17.7-1.9c-4.2-2.1-6.3-5.6-6.3-10.6v-4.1h-4.5v33.2l128.4,41.9l-128.4,42.6v33.2h4.5c0-4.8,0.8-8.3,2.4-10.4
			c1.6-2.2,3.5-3.6,5.9-4.5c3.2-1.2,8.5-1.7,15.7-1.7h107.3c9.2,0,15.1,0.6,17.7,1.9c4.2,2.1,6.3,5.6,6.3,10.6v4.2h4.5v-40.8h-4.5
			v4.2c0,4.6-1.7,8-5.1,10.1c-2.5,1.6-8.8,2.3-18.9,2.3h-109.7l138.1-45.3v-2.9l-138.1-45.2h109.7c9.2,0,15.1,0.6,17.7,1.9
			c4.2,2,6.3,5.5,6.3,10.6v4.2h4.5v-47.7v-2.1v-36.4h-4.4C1500.2,740.6,1499.6,743.2,1498.5,744.6z"/>
		<path class="st0" d="M1353.4,762.3c2.4-1.7,3.6-3.8,3.6-6.2c0-2.4-1.2-4.5-3.6-6.2c-2.4-1.7-5.3-2.6-8.7-2.6
			c-3.4,0-6.3,0.9-8.7,2.6c-2.4,1.7-3.6,3.8-3.6,6.2c0,2.5,1.2,4.6,3.6,6.3c2.4,1.7,5.3,2.6,8.7,2.6
			C1348,764.9,1350.9,764,1353.4,762.3z"/>
		<path class="st0" d="M1496.2,688c-7.9-6.2-19.1-10.4-33.7-12.5l-1.7,2.5c9.8,3,16.5,6.1,20.2,9.3c5.4,4.5,8.1,9.6,8.1,15.2
			c0,7.9-5.1,14.2-15.2,18.8c-10.1,4.6-21.8,7-35,7c-13,0-23.4-2.3-31.4-7c-6-3.5-9-8.2-9-13.9c0-3.6,1.2-6.4,3.6-8.4
			c2.5-2,6.1-3.2,10.9-3.5c4.8-0.3,8-1,9.7-1.9c3.1-1.7,4.6-4.3,4.6-7.7c0-2.5-0.9-4.5-2.8-5.9c-1.9-1.4-4.4-2.1-7.4-2.1
			c-6.2,0-12.2,2.5-18,7.5c-5.8,5-8.7,11.4-8.7,19.2c0,10.4,5.4,19.3,16.3,26.7c10.9,7.4,25.1,11.1,42.5,11.1c18,0,32.3-3.3,42.9-10
			c10.6-6.7,15.9-14.5,15.9-23.5C1508,701.1,1504,694.2,1496.2,688z"/>
		<path class="st0" d="M1410.9,632.6c2.8-2.5,4.2-4.8,4.2-6.8c0-2.1-1.1-3.9-3.3-5.4c-2.2-1.5-4.8-2.2-8-2.2c-3.6,0-6.7,1-9.4,3.1
			c-2.7,2.1-4.1,4.7-4.1,7.9c0,7,8.3,13.8,24.9,20.4h-24.9v3.6l13.6,24l4.4-0.9c-1.2-2.2-1.8-4.3-1.8-6.1c0-1.5,0.6-2.8,1.7-3.8
			c1.1-1,2.9-1.7,5.4-2.1c2.5-0.4,10.1-0.6,23.1-0.6h43c6.5,0,10.4,0.1,11.7,0.4c2.8,0.6,4.9,1.6,6.2,3c1.8,2,2.7,5,2.7,9h4.4v-40.6
			h-4.4c0,3.6-0.7,6.3-2.2,8.2c-1.5,1.9-3.3,3.2-5.4,4c-3.1,1.1-7.8,1.6-13.9,1.6h-53.1c-7.6-2.8-13-5.5-16.3-8
			c-1.6-1.2-2.4-2.3-2.4-3.4C1406.7,637,1408.1,635.1,1410.9,632.6z"/>
		<path class="st0" d="M1477.2,554.2c-10.2-3.4-20.2-5.1-30.1-5.1c-14.1,0-26.6,3.1-37.5,9.3c-12.8,7.3-19.1,16.9-19.1,28.9
			c0,6.6,2.4,12.8,7.2,18.7c4.8,5.9,12.2,10.6,22.3,14.2c10,3.6,20.2,5.4,30.3,5.4c14,0,26.6-3,37.8-8.9c13.3-7,20-16.5,20-28.5
			c0-7.3-2.6-14-7.7-19.9C1495,562.3,1487.4,557.6,1477.2,554.2z M1481.8,602.6c-11.7,4.6-25.6,6.9-41.8,6.9c-10,0-18.2-1-24.6-2.9
			s-10.8-4.4-13.4-7.5c-2.5-3.1-3.8-6.2-3.8-9.2c0-6.3,3.9-11.6,11.6-15.7c11.3-6.1,26.8-9.1,46.5-9.1c15.7,0,26.8,1.8,33.3,5.5
			c6.5,3.6,9.7,8.2,9.7,13.8C1499.4,592,1493.5,598,1481.8,602.6z"/>
		<path class="st0" d="M1498.7,500.7c-6.2-5.4-14.3-8.2-24.4-8.2c-13.1,0-23.6,5.9-31.6,17.6l-8.6,12.6c-3.7,5.5-7.2,9.1-10.5,10.9
			c-3.2,1.8-7.1,2.8-11.6,2.8c-3.6,0-6.9-1.2-9.9-3.7c-3-2.5-4.5-5.7-4.5-9.8c0-5.3,2.1-9.7,6.4-13.1c4.3-3.4,12.3-6.2,24.2-8.4
			v-2.9h-37.8v2.9c1.9,0.7,3.2,1.3,3.8,1.8c0.6,0.5,0.8,1.2,0.8,2.2c0,1-0.6,2.9-1.8,5.9c-1.9,4.4-2.8,8.2-2.8,11.3
			c0,7.1,3.1,12.9,9.2,17.3c6.1,4.5,13.8,6.7,22.9,6.7c7,0,12.8-1.3,17.4-3.9c4.7-2.6,9.9-8.1,15.7-16.4
			c5.8-8.4,10.6-13.9,14.4-16.7c3.8-2.8,8.5-4.2,14-4.2c4.6,0,8.5,1.3,11.8,3.8c3.3,2.5,4.9,5.8,4.9,9.7c0,5.7-2.9,10.8-8.6,15.3
			c-5.7,4.6-14.2,7.6-25.5,9.3v2.9h39.6v-2.9c-2.1-0.7-3.1-1.8-3.1-3.1c0-1.2,0.4-2.8,1.2-4.7c2.4-6.2,3.6-11.8,3.6-16.6
			C1508,512.2,1504.9,506.1,1498.7,500.7z"/>
		<path class="st0" d="M1477.2,417.6c-10.2-3.4-20.2-5.1-30.1-5.1c-14.1,0-26.6,3.1-37.5,9.3c-12.8,7.3-19.1,16.9-19.1,28.9
			c0,6.6,2.4,12.8,7.2,18.7c4.8,5.9,12.2,10.6,22.3,14.2c10,3.6,20.2,5.4,30.3,5.4c14,0,26.6-3,37.8-8.9c13.3-7,20-16.5,20-28.5
			c0-7.3-2.6-14-7.7-19.9C1495,425.7,1487.4,421,1477.2,417.6z M1481.8,466c-11.7,4.6-25.6,6.9-41.8,6.9c-10,0-18.2-1-24.6-2.9
			c-6.4-1.9-10.8-4.4-13.4-7.5c-2.5-3.1-3.8-6.2-3.8-9.2c0-6.3,3.9-11.6,11.6-15.7c11.3-6.1,26.8-9.1,46.5-9.1
			c15.7,0,26.8,1.8,33.3,5.5c6.5,3.6,9.7,8.2,9.7,13.8C1499.4,455.4,1493.5,461.4,1481.8,466z"/>
		<path class="st0" d="M1358.3,399.6c7.7,2.5,17,3.8,28.1,3.8h7.3v15.4h8.7v-15.4h72.9c7.9,0,13.2,0.4,16,1.1c2.7,0.7,4.9,2,6.5,3.9
			c1.6,1.9,2.4,4,2.4,6.3v3.5h4.4V371h-4.4v7.2c0,3.6-1.8,6.4-5.3,8.6c-2.7,1.6-9.3,2.4-19.6,2.4h-72.9v-20.4h-0.2v-4.1h74.6
			c8,0,13.9-0.6,17.7-1.8c3.8-1.2,6.8-3.1,8.8-5.6c2.1-2.5,3.1-5.1,3.1-7.8c0-3.9-2-7.7-6-11.4c-4-3.7-9.9-6.5-17.9-8.6v3.4
			c3.2,1,5.7,2.4,7.3,4.2c1.7,1.8,2.5,3.6,2.5,5.5c0,2.3-1.3,4.2-3.8,5.7c-2.5,1.5-7.3,2.2-14.5,2.2h-71.9v-18.5h-8.5v18.5h-34.6
			c-1.9-1.1-3.9-1.7-5.9-1.7c-4.5,0-8.6,1.7-12.2,5c-5.5,5.1-8.2,10.6-8.2,16.7c0,6.5,2.4,12.4,7.1,17.6
			C1344.5,393.2,1350.7,397.1,1358.3,399.6z M1343.7,371.3c1.5-1.8,4.5-3.7,8.9-5.9c4.4-2.1,7.3-3.9,8.6-5.4c1.3-1.5,2-2.9,2-4.2
			c0-0.3-0.1-0.7-0.1-1c5.1,1.6,8.8,2.8,11,3.8c5.8,2.6,10.8,5.6,15.1,8.9c1.7,1.3,3.2,2.7,4.5,4v17.7h-8c-17.3,0-28-0.4-32.1-1.2
			c-4.2-0.8-7.2-2.1-9.2-4c-2-1.8-3-4.1-3-6.7C1341.4,375,1342.1,373,1343.7,371.3z"/>
		<path class="st0" d="M1504,313c-2.6-1.9-5.8-2.8-9.5-2.8s-6.9,0.9-9.5,2.8c-2.6,1.8-3.9,4.1-3.9,6.8c0,2.7,1.3,4.9,3.9,6.8
			c2.6,1.9,5.8,2.8,9.6,2.8c3.7,0,6.9-0.9,9.5-2.8c2.6-1.9,3.9-4.1,3.9-6.8C1508,317.1,1506.6,314.8,1504,313z"/>
		<path class="st0" d="M3228.2,662.6c-45.7-48-54.2-83.6-54.2-125.8c0-96.7,32.6-120.8,46.3-120.8c19.1,0,38.4,15.4,52.3,48.1
			c13.9,32.7,24,87.4,26.8,135.1h7.3V393.8h-7.3c-3.6,21.8-8.9,32.7-15.9,32.7c-4,0-8.6-2.4-13.9-7.1
			c-20.8-17.7-29.1-26.5-50.2-26.5c-53.9,0-81.2,96.8-81.2,176.9c0,105.4,27.7,146.8,79.4,194.5c57.1,52.8,61.1,109.6,61.1,159.1
			c0,28.8-15.1,109.7-51.5,109.7c-53.1,0-80.2-127.1-80.2-184.7h-7.3v209.3h7.3c3.8-21.8,9.3-32.7,16.5-32.7
			c8.1,0,26.1,31.1,67.4,31.1c50,0,88.3-95.4,88.3-169.9C3319,733.5,3274.6,711.3,3228.2,662.6z"/>
		<path class="st0" d="M2397,400.7h-62.7h-11h-32.8h-26.6h-16.6h-3.9h-43.2v9.1c32.1,0,36.7,51.9,36.7,51.9v407.4l-161.6-468.4
			h-23.8h-13.8h-0.3h-2.8h-26.3h-18h-7.9h-21.3h-11.9h-21.3h-25.7l3.9-25.2l0,0c6.8-43.7,19.7-74.1,44.3-74.1l0-10.6h-40.1h-14.9
			h-40.1l0,10.6c32.1,0,37.9,46.3,31.8,85.7l0,0l-70.1,453.6l-65-503.4c-1.7-19.6,1-35.9,24.5-35.9l0-10.6h-48h-7H1704h-5.1H1649
			v10.6c24.2,0,34.8,18.6,40.5,49.6l22.2,164.6l-50.3,325.1l-65-503.4c-1.7-19.6,1-35.9,24.5-35.9l0-10.6h-46.7h-8.3h-17.7h-3.7
			h-51.3l0,10.6c24.2,0,34.8,18.6,40.5,49.6l94.7,702.9l0,0h0h17.2h0l74-478.7l64.5,478.7l0,0h0h17.2h0l100.9-652.3l0,8.1
			c22.7,0,25.5,24.7,25.8,41.9v539.9c-0.3,17.2-3.1,41.9-25.8,41.9l0,9.1h25.8l0,0h54.4l0,0h15.4l0,0h43.2h3.9h43.2v-9.1
			c-32.1,0-36.7-51.9-36.7-51.9V512.6l185.4,537.3v0h16.9v-52.7v0V918l0,0V461.7c0,0,3.2-36.6,23.3-48.4
			c19.2,11.8,19.9,48.4,19.9,48.4v519.8c0,0-1,51.9-33.1,51.9v9.1h42.9h27.6h62.7c147.4,0,149.4-320.9,149.4-320.9
			S2544.4,400.7,2397,400.7z M2034.6,981.4c0,0-4,46.2-31.5,51.5c-17.9-3.5-20.4-25.6-20.6-41.4V451.6c0.2-14.6,2.4-34.7,17-40.3
			c25.3,8.8,35.1,52.3,35.1,52.4v0l0,0V981.4z M2377.5,1024c0,0-24.9-1.1-24.9-8.9V428c0-7.8,24.9-8.9,24.9-8.9
			c115.7,0,114.5,298.5,114.5,298.5v7.9C2492,725.5,2493.2,1024,2377.5,1024z"/>
		<path class="st0" d="M2692.1,397.6c-38.7,0.8-71.9,25.1-99.8,90.6c-27.4,64.4-44.9,145.8-46,237.1c1.1,91.3,18.6,172.6,46,237.1
			c27.8,65.5,61.1,89.8,99.8,90.6c38.7-0.8,71.9-25.1,99.8-90.6c27.4-64.4,44.9-145.8,46-237.1c-1.1-91.3-18.6-172.6-46-237.1
			C2764.1,422.7,2730.8,398.4,2692.1,397.6z M2699.3,1037c-4.6,1.9-9.7,1.9-14.3,0c-36.4-15-78.5-115-79-311.7
			c0.5-196.7,42.6-296.7,79-311.7c4.6-1.9,9.7-1.9,14.3,0c36.4,15,78.5,115,79,311.7C2777.8,922,2735.7,1021.9,2699.3,1037z"/>
		<path class="st0" d="M3171.7,409.7l0-9.1h-34.3h-12.8h-34.3l0,9.1c27.4,0,32.4,39.6,27.2,73.4l0,0l-60,388.3l-55.6-430.9
			c-1.5-16.8,0.8-30.8,21-30.8l0-9.1h-41.1h-6h-15.2h-4.4h-42.7l0,9.1c20.7,0,29.8,15.9,34.7,42.5l19,140.9l-43,278.3l-55.6-430.9
			c-1.5-16.8,0.8-30.8,21-30.8l0-9.1h-39.9h-7.1h-15.2h-3.2h-43.9v9.1c20.7,0,29.8,15.9,34.7,42.5l81.1,601.7v0l0,0h14.8h0
			l63.4-409.8l55.2,409.8v0l0,0h14.8h0l89.8-580.8l0,0C3139.6,435.8,3150.7,409.7,3171.7,409.7z"/>
		<path class="st0" d="M3569,855.2c9.4-11.7,14.1-23.8,14.1-36.5c0-14.8-5-27.1-15.1-36.8c-10-9.7-23.2-14.5-39.4-14.5
			c-13.3,0-25.6,4.1-36.8,12.3c-11.2,8.2-20.4,20.2-27.5,36.2l7.6,2.3c12-19.1,25.6-28.7,41-28.7c9.8,0,18.1,3.5,25,10.6
			c6.9,7.1,10.3,16.1,10.3,26.9c0,14.4-5.9,26.9-17.7,37.3c-16.4,14.7-41.2,24.6-74.4,29.7v6c13.9,0.8,26.7,4.4,38.4,10.8
			c11.7,6.4,20.2,14.7,25.7,25.1c5.4,10.3,8.1,22.1,8.1,35.3c0,16.2-4,31.5-12.1,45.9c-8,14.4-18.2,21.5-30.6,21.5
			c-5.1,0-10-0.8-14.8-2.4c-4.8-1.6-11.5-4.8-20.1-9.6c-8.6-4.8-14-7.6-16.2-8.2c-3.6-1.1-7.1-1.6-10.7-1.6c-5.1,0-9.4,1.7-12.9,5.2
			c-3.5,3.4-5.3,7.6-5.3,12.4c0,5.5,3,10.3,8.9,14.4c8.9,6,22.1,9.1,39.4,9.1c19,0,37.1-4.7,54.3-14.1c17.3-9.4,30.8-22.8,40.7-40
			c9.9-17.3,14.8-34.5,14.8-51.7c0-15.5-3.6-28.8-10.9-39.9c-7.3-11.1-18.1-19.6-32.4-25.5C3543.4,877.4,3559.6,866.9,3569,855.2z"
			/>
		<path class="st0" d="M3589.8,1015.9c-5.8,0-10.7,2-14.7,6.1c-4.1,4.1-6.1,9-6.1,14.7c0,5.8,2,10.7,6.1,14.7
			c4.1,4.1,9,6.1,14.7,6.1s10.7-2,14.8-6.1c4.1-4.1,6.2-9,6.2-14.7c0-5.8-2-10.7-6.1-14.7
			C3600.7,1017.9,3595.7,1015.9,3589.8,1015.9z"/>
		<path class="st0" d="M3788.7,898.9c4.5-3.8,8.5-5.8,11.8-5.8c2.2,0,6.5,1.1,13,3.3c3.3,1.2,6.4,1.9,9.3,1.9
			c4.9,0,9.3-1.7,13.2-5.2c2.1-1.9,3.1-5.5,3.1-10.7c0-4.5-1.8-8.4-5.3-11.5c-3.5-3.2-8.2-4.7-14.1-4.7c-4,0-7.6,0.7-10.9,2.1
			c-5.2,2.2-11.3,6.3-18.1,12.3c-6.9,6-12.7,12.3-17.5,18.9l-18.1,27.2c-5.6-21-9.7-34-12.2-39c-3.4-7.1-8.5-14.3-15.3-21.4
			l-55.1,9.7v7.4c4.1-0.3,7.8-0.4,10.9-0.4c9.9,0,17.4,1.9,22.5,5.6c5.1,3.7,9.2,10,12.4,19c0.7,1.9,5.3,19.6,13.8,53
			c-3.4,7.7-10.7,20.2-21.9,37.5c-11.1,17.3-19.9,28.6-26.4,33.8c-2.6,2.2-4.7,3.3-6.4,3.3c-1.9,0-4.7-1.6-8.2-4.7
			c-4.9-4.4-9.6-6.6-14-6.6c-4.4,0-8.1,1.5-11.1,4.5c-3,3-4.5,6.8-4.5,11.3c0,5.1,1.6,9.1,4.9,12.2c4.5,4,9.6,6,15.1,6
			c7.8,0,15.9-3.4,24.3-10.3c12.9-10.7,30.1-34.7,51.6-72c9.1,40.8,15.1,63.9,17.9,69.3c4.5,8.7,10.7,13,18.4,13
			c5.2,0,11.6-3,19.2-9.1c13.3-10.7,24.3-24.2,33-40.4l-7.2-3.7c-5.4,10.2-11.8,18.4-19.4,24.7c-3.9,3.2-7.2,4.7-10.1,4.7
			c-1.8,0-3.6-1.1-5.4-3.2c-1.8-2.1-4-8.6-6.6-19.5l-16.9-70.9C3770,919.9,3780.2,906.1,3788.7,898.9z"/>
	</g>
</g>
</svg>
