<?xml version="1.0" encoding="utf-8"?>
<!-- Generator: Adobe Illustrator 27.0.0, SVG Export Plug-In . SVG Version: 6.00 Build 0)  -->
<svg version="1.1" id="Layer_1" xmlns="http://www.w3.org/2000/svg" xmlns:xlink="http://www.w3.org/1999/xlink" x="0px" y="0px"
	 viewBox="0 0 3855.81 483.76" style="enable-background:new 0 0 3855.81 483.76;" xml:space="preserve">
<style type="text/css">
	.st0{fill:#FFFFFF;}
	.st1{fill:url(#SVGID_1_);}
	.st2{fill:url(#SVGID_00000150078676517501959790000005716225513899343491_);}
	.st3{fill:url(#SVGID_00000119812775710849742480000002833445874671841426_);}
	.st4{fill:url(#SVGID_00000093869469978475260770000002251892461555339157_);}
	.st5{fill:url(#SVGID_00000063633349792562973980000005255116295504022195_);}
	.st6{fill:url(#SVGID_00000114770677115450150620000008547820510225050770_);}
	.st7{fill:url(#SVGID_00000179641816124137854470000009558916128663243915_);}
	.st8{fill:url(#SVGID_00000102506121543722496910000011514726369125759116_);}
	.st9{fill:url(#SVGID_00000116937622205497274510000018165347775076784513_);}
	.st10{fill:url(#SVGID_00000160884956913549454160000010507932972540923786_);}
	.st11{fill:url(#SVGID_00000134956632757225791310000012033061845629878456_);}
	.st12{fill:url(#SVGID_00000003796624017077915420000014335441823246565780_);}
	.st13{fill:url(#SVGID_00000125584497014463752930000006771190124985187253_);}
	.st14{fill:url(#SVGID_00000002368413345178848760000017226963193050576798_);}
	.st15{fill:url(#SVGID_00000165916121976506415650000011130082906142431370_);}
	.st16{fill:url(#SVGID_00000067924811801707661330000016333929722340240546_);}
	.st17{fill:url(#SVGID_00000093898118625553652640000007532954873128907446_);}
	.st18{fill:url(#SVGID_00000169530549647716251610000009603152093459196060_);}
	.st19{fill:url(#SVGID_00000101785332745383066990000003070040081035062204_);}
	.st20{fill:url(#SVGID_00000031924711466949461930000017062676051556564356_);}
	.st21{fill:url(#SVGID_00000052063743815386093000000006056544966190698625_);}
	.st22{fill:url(#SVGID_00000072971995238850297210000009246423278979669383_);}
	.st23{fill:url(#SVGID_00000161633243528694508580000010162926063743895949_);}
	.st24{fill:url(#SVGID_00000165208795376825623180000004176215124060417709_);}
	.st25{fill:url(#SVGID_00000176766157658935528930000005181527590038758312_);}
	.st26{fill:url(#SVGID_00000004522613531969114970000004938655528150310581_);}
	.st27{fill:url(#SVGID_00000041290527505142381200000004080700026976459154_);}
	.st28{fill:url(#SVGID_00000134931460397607388440000003813044816722682548_);}
	.st29{fill:url(#SVGID_00000003096523898836549660000017158525292842932627_);}
	.st30{fill:url(#SVGID_00000149339728040580859840000013264480220874039960_);}
	.st31{fill:url(#SVGID_00000025439584232604773320000016549694483525696397_);}
	.st32{fill:url(#SVGID_00000139999886666958444110000008482872023703029439_);}
	.st33{fill:url(#SVGID_00000013895540730362156830000005337555626980670395_);}
	.st34{fill:url(#SVGID_00000083073481102621307540000001876027495136524721_);}
	.st35{fill:url(#SVGID_00000038409737224505043460000006269318229158357694_);}
	.st36{fill:url(#SVGID_00000001648859539301288960000012364508409312262791_);}
	.st37{fill:url(#SVGID_00000011710904154199664610000015037863254278227371_);}
	.st38{fill:url(#SVGID_00000064355312842139679200000000067898652784862387_);}
	.st39{fill:url(#SVGID_00000119835082548987134460000005621940809780407718_);}
	.st40{fill:url(#SVGID_00000055696069205730114490000017969291865315630748_);}
	.st41{fill:url(#SVGID_00000082350288984696734940000009627736967371716792_);}
	.st42{fill:url(#SVGID_00000080171289826737878910000004493704029454740643_);}
	.st43{fill:url(#SVGID_00000093869643560784358850000008953159193306165385_);}
	.st44{fill:url(#SVGID_00000066482256338860844840000018241333551399093911_);}
	.st45{fill:url(#SVGID_00000072238185571850904030000000682127608335328391_);}
	.st46{fill:url(#SVGID_00000091728058921084394120000010511535035403702949_);}
	.st47{fill:url(#SVGID_00000009578594154310375850000015848981650941624501_);}
	.st48{fill:url(#SVGID_00000079476429023842590900000018356973913743208360_);}
	.st49{fill:url(#SVGID_00000040553791725987639900000003830472167471042693_);}
	.st50{fill:url(#SVGID_00000051354537372060104280000016102173218235641473_);}
	.st51{fill:url(#SVGID_00000008132956222470224550000016385661443732087707_);}
	.st52{fill:url(#SVGID_00000092427731849666397110000004852046513184642997_);}
	.st53{fill:url(#SVGID_00000060742439105811957070000014251674507111499923_);}
	.st54{fill:url(#SVGID_00000028324317338650794790000014979050089230133176_);}
	.st55{fill:url(#SVGID_00000177484867340749883370000015790685534785136002_);}
	.st56{fill:url(#SVGID_00000048468705704137691410000008385058741759366534_);}
	.st57{fill:url(#SVGID_00000068661679513711400480000001285754547355351446_);}
	.st58{fill:url(#SVGID_00000055665887987675208620000010425178217737321401_);}
	.st59{fill:url(#SVGID_00000066503678455840104030000013336123382721381803_);}
	.st60{fill:url(#SVGID_00000067226040885541969980000008969521766953301153_);}
	.st61{fill:url(#SVGID_00000007428854424541055520000010346132807860128391_);}
	.st62{fill:url(#SVGID_00000126301965518722294710000013335435690455290247_);}
	.st63{fill:url(#SVGID_00000079472952307636553690000001479491294348270496_);}
	.st64{fill:url(#SVGID_00000170974640662831519380000018427223193410098574_);}
	.st65{fill:url(#SVGID_00000108298927142137068310000007429767150774515373_);}
	.st66{fill:url(#SVGID_00000156563816321266173320000012109070871128351139_);}
	.st67{fill:url(#SVGID_00000147197868105520701680000010119627141237913496_);}
	.st68{fill:url(#SVGID_00000101062447635081337020000008120724852171370881_);}
	.st69{fill:url(#SVGID_00000044161731585044877160000002020592097042756000_);}
	.st70{fill:url(#SVGID_00000163767751201302430970000013681178598143772806_);}
	.st71{fill:url(#SVGID_00000130633636409387145200000011457290276427991434_);}
	.st72{fill:url(#SVGID_00000013185623432160422550000013567405766540026758_);}
	.st73{fill:url(#SVGID_00000096056245755980042390000018066924307554253954_);}
	.st74{fill:url(#SVGID_00000154416297343709378010000011219756461149132718_);}
	.st75{fill:url(#SVGID_00000142164692994548700960000015840252232009378438_);}
	.st76{fill:url(#SVGID_00000016785821183181994550000009140198344085254327_);}
	.st77{fill:url(#SVGID_00000060020244081063133340000006194455647339008686_);}
	.st78{fill:url(#SVGID_00000102518228706309453480000003391727034615699085_);}
	.st79{fill:url(#SVGID_00000019640708357658994750000008053640476064135343_);}
	.st80{fill:url(#SVGID_00000048490267513751452200000002904739029583503261_);}
	.st81{fill:url(#SVGID_00000175282936248316137140000016540725127738554028_);}
	.st82{fill:url(#SVGID_00000038395435891906342920000013623078607326893697_);}
	.st83{fill:url(#SVGID_00000182488909182782313060000011033985082112755849_);}
	.st84{fill:url(#SVGID_00000001656557242036693820000018294647567513891210_);}
	.st85{fill:url(#SVGID_00000000905710791488784220000008098109089090451860_);}
	.st86{fill:url(#SVGID_00000119087307826952010360000003968409177170144384_);}
	.st87{fill:url(#SVGID_00000056402337866951488650000003948826859216869778_);}
	.st88{fill:url(#SVGID_00000000212708559749102570000011826211911148977807_);}
	.st89{fill:url(#SVGID_00000011740338692009304520000016051057414448479922_);}
	.st90{fill:url(#SVGID_00000078029468364428197460000009354599002916445831_);}
	.st91{fill:url(#SVGID_00000102518868681936301180000002824396273849914243_);}
	.st92{fill:url(#SVGID_00000078007096768140427150000004664210108271005085_);}
	.st93{fill:url(#SVGID_00000100377102722382000140000016517142405932503948_);}
	.st94{fill:url(#SVGID_00000119100997139513774610000015650101552635687808_);}
	.st95{fill:url(#SVGID_00000147938428789076688700000010858692045613884346_);}
	.st96{fill:url(#SVGID_00000041274714745254400170000010099620116079376040_);}
	.st97{fill:url(#SVGID_00000163772227791901252800000000261087324283271309_);}
	.st98{fill:url(#SVGID_00000176037107800549479230000005311483334909704638_);}
	.st99{fill:url(#SVGID_00000082334457175720490160000009821610931204917914_);}
	.st100{fill:url(#SVGID_00000104685667350050180090000011318345413005761695_);}
	.st101{fill:url(#SVGID_00000070817505775412820000000010164337876091931294_);}
	.st102{fill:url(#SVGID_00000029047601546350331820000011517533806934042766_);}
	.st103{fill:url(#SVGID_00000068637679909163260470000009566373690158582937_);}
	.st104{fill:url(#SVGID_00000112607271463282821970000013925808865212536486_);}
	.st105{fill:url(#SVGID_00000147940349120313801580000006571672716564239037_);}
	.st106{fill:url(#SVGID_00000161615975641015568160000013504248666216806295_);}
	.st107{fill:url(#SVGID_00000177448285926671552550000013499807079171705000_);}
	.st108{fill:url(#SVGID_00000164486029486099608310000017947359053633653413_);}
	.st109{fill:url(#SVGID_00000132070715725547570180000007859775274384176560_);}
	.st110{fill:url(#SVGID_00000091009188088902884660000015356480256967616905_);}
	.st111{fill:url(#SVGID_00000043421583889566818140000008989926596397846205_);}
	.st112{fill:url(#SVGID_00000139274639980157358700000011785494729877562295_);}
	.st113{fill:url(#SVGID_00000131345996089035307260000001143431286276445345_);}
	.st114{fill:url(#SVGID_00000033350558264232848070000008933335387397414031_);}
	.st115{fill:url(#SVGID_00000113350148566002655350000005967901089852756368_);}
	.st116{fill:url(#SVGID_00000063599568438387924090000015119012019819635634_);}
	.st117{fill:url(#SVGID_00000047034956776317697250000014932382619166580403_);}
	.st118{fill:url(#SVGID_00000000203189125702083640000007158277950957881733_);}
	.st119{fill:url(#SVGID_00000029032747182144885180000010498184421416293520_);}
	.st120{fill:url(#SVGID_00000124158009790575919920000010491695135852805287_);}
	.st121{fill:url(#SVGID_00000178918257315435895930000017920835086978209189_);}
	.st122{fill:url(#SVGID_00000150808939787405477590000005217111040904049039_);}
	.st123{fill:url(#SVGID_00000004537562513379297430000010380276159701201833_);}
	.st124{fill:url(#SVGID_00000151524039766676397750000003481353042445707153_);}
	.st125{fill:url(#SVGID_00000113338008039613286030000015987161221759140269_);}
	.st126{fill:url(#SVGID_00000008126881109386901000000010082995641699890827_);}
	.st127{fill:url(#SVGID_00000067957927779405882530000006099006545791940513_);}
	.st128{fill:url(#SVGID_00000103264504023510645720000018238540418581838267_);}
	.st129{fill:url(#SVGID_00000124151223004741754700000013742491542529290682_);}
	.st130{fill:url(#SVGID_00000158707336222755494730000007599388319410533822_);}
	.st131{fill:url(#SVGID_00000028289822208387669000000001342960105494810014_);}
	.st132{fill:url(#SVGID_00000054252086256459995780000003360914041228072627_);}
	.st133{fill:url(#SVGID_00000149375061121008067660000010894203106149816965_);}
	.st134{fill:url(#SVGID_00000093894425377663109800000005419635629844931764_);}
	.st135{fill:url(#SVGID_00000144332854498934649200000017756529275547942033_);}
	.st136{fill:url(#SVGID_00000039817829820325696120000009097620309347817351_);}
	.st137{fill:url(#SVGID_00000144332260653756130110000011703101140154662321_);}
	.st138{fill:url(#SVGID_00000163030381450863906450000003729829161115689630_);}
	.st139{fill:url(#SVGID_00000054232227078832550810000007573614829977575580_);}
	.st140{fill:url(#SVGID_00000168099167823850596890000003864294726175811491_);}
	.st141{fill:url(#SVGID_00000084499325795330615430000004225814819739144587_);}
	.st142{fill:url(#SVGID_00000013915474530108446690000001601310808750339459_);}
	.st143{fill:url(#SVGID_00000117638906934121432060000000962828747155117976_);}
	.st144{fill:url(#SVGID_00000047027672931274511680000008433784294826738081_);}
	.st145{fill:url(#SVGID_00000013902609971040743270000008519126059251066007_);}
	.st146{fill:url(#SVGID_00000172411016659056496060000002720507390249864853_);}
	.st147{fill:url(#SVGID_00000032615286086288222130000016962129631134160303_);}
	.st148{fill:url(#SVGID_00000058582735922345199260000007359222600678711739_);}
	.st149{fill:url(#SVGID_00000171686919302386109210000012063759626191819421_);}
	.st150{fill:url(#SVGID_00000129903312370572329220000011707472159918710673_);}
	.st151{fill:url(#SVGID_00000068660537891299423280000009145615465557137056_);}
	.st152{fill:url(#SVGID_00000181801786447669596200000015152863572578523544_);}
	.st153{fill:url(#SVGID_00000054984859699084845100000003668321735745115310_);}
	.st154{fill:url(#SVGID_00000093175309083417881480000012728387034518611591_);}
	.st155{fill:url(#SVGID_00000023247248865839108750000006540881071437300096_);}
	.st156{fill:url(#SVGID_00000106128262578252206060000018221436232503368088_);}
	.st157{fill:url(#SVGID_00000013879263272290669370000004346171180899164575_);}
	.st158{fill:url(#SVGID_00000154398358034906341490000007108680353398071734_);}
	.st159{fill:url(#SVGID_00000119107303605413541350000001661175601344772489_);}
	.st160{fill:url(#SVGID_00000125571834754046820430000008171498582329963654_);}
	.st161{fill:url(#SVGID_00000160158698568233186280000002501832131589458361_);}
	.st162{fill:url(#SVGID_00000033359461238286118050000013910997423725398953_);}
	.st163{fill:url(#SVGID_00000057843901257527698220000008832779328525490831_);}
	.st164{fill:url(#SVGID_00000039113218740117466550000017498833994867438523_);}
	.st165{fill:url(#SVGID_00000049214057236595739090000005654409637495404703_);}
	.st166{fill:url(#SVGID_00000095324497340364909510000011747539126384178608_);}
	.st167{fill:url(#SVGID_00000026162669512119327840000018015524466449073039_);}
	.st168{fill:url(#SVGID_00000157282740275597015770000012172713867865488001_);}
	.st169{fill:url(#SVGID_00000124138092094170990610000009137796352048277942_);}
	.st170{fill:url(#SVGID_00000157993026761294871780000000383495623738880899_);}
	.st171{fill:url(#SVGID_00000063597613143517325480000011680235866488786613_);}
	.st172{fill:url(#SVGID_00000181801474992416007420000003726441958397827740_);}
	.st173{fill:url(#SVGID_00000103974171633508377060000000620692246863890609_);}
	.st174{fill:url(#SVGID_00000034077415612571852140000001629352344405381253_);}
	.st175{fill:url(#SVGID_00000168808821732750302230000007020464285475829166_);}
	.st176{fill:url(#SVGID_00000098935395290859477400000000980709732292202378_);}
	.st177{fill:url(#SVGID_00000173840966913111982460000011657074214732745359_);}
	.st178{fill:url(#SVGID_00000131348296380877414800000013221200213589958564_);}
	.st179{fill:url(#SVGID_00000032627985329866426400000002106850343204791472_);}
	.st180{fill:url(#SVGID_00000083059509969081496180000010824244804101128345_);}
	.st181{fill:url(#SVGID_00000140728769500756179040000012274266919980867713_);}
	.st182{fill:url(#SVGID_00000020363865502712127710000011526665161578666675_);}
	.st183{fill:url(#SVGID_00000088849552657830935130000018059659219674357133_);}
	.st184{fill:url(#SVGID_00000158732857593529113100000012124959089740683161_);}
	.st185{fill:url(#SVGID_00000036964516043892470010000011794569574267426487_);}
	.st186{fill:url(#SVGID_00000127743858687113693000000015165543767241172150_);}
	.st187{fill:url(#SVGID_00000019655900429800424480000016711741015456639929_);}
	.st188{fill:url(#SVGID_00000078020517954340159070000000484761733328115863_);}
	.st189{fill:url(#SVGID_00000089541177102624763000000016566545452401177483_);}
	.st190{fill:url(#SVGID_00000073692798135486140790000006787680176190071192_);}
	.st191{fill:url(#SVGID_00000072282039811285264350000003006182353201562758_);}
	.st192{fill:url(#SVGID_00000149378984727113697570000000054381603811304628_);}
	.st193{fill:url(#SVGID_00000008139005200504243190000004990959013703658175_);}
	.st194{fill:url(#SVGID_00000076590004619675853390000002207805996505615770_);}
	.st195{fill:url(#SVGID_00000058585163305343207960000002736351395314522272_);}
	.st196{fill:url(#SVGID_00000010274169731833455180000007668371114756925104_);}
	.st197{fill:url(#SVGID_00000080901777327207510740000005904457197207181203_);}
	.st198{fill:url(#SVGID_00000179611981500284365750000012866713165065769919_);}
	.st199{fill:url(#SVGID_00000058573149768661465050000004114010571317760896_);}
	.st200{fill:url(#SVGID_00000025438434514062125000000012393179489261545132_);}
	.st201{fill:url(#SVGID_00000031893809063768117440000016155865379004707467_);}
	.st202{fill:url(#SVGID_00000090253829748311243610000008971597076121529256_);}
	.st203{fill:url(#SVGID_00000153695816545037908540000016721125722302219688_);}
	.st204{fill:url(#SVGID_00000057846464707771134000000012219708720543936668_);}
	.st205{fill:url(#SVGID_00000177445905481491089790000013397152411592856232_);}
	.st206{fill:url(#SVGID_00000065073520218028699000000016582459751409829766_);}
	.st207{fill:url(#SVGID_00000170278483237077707490000009021637899943233197_);}
	.st208{fill:url(#SVGID_00000043458024098945034230000017582766011687388826_);}
	.st209{fill:url(#SVGID_00000083795457797199714090000012120879396195720091_);}
	.st210{fill:url(#SVGID_00000090975573814328161400000007548207378225516701_);}
	.st211{fill:url(#SVGID_00000143586711164627976500000008882651625670620339_);}
	.st212{fill:url(#SVGID_00000155120102551482493610000014021803517225190787_);}
	.st213{fill:url(#SVGID_00000053528526818642547640000014833691436378940330_);}
	.st214{fill:url(#SVGID_00000157278524554159536670000005386967595736080260_);}
	.st215{fill:url(#SVGID_00000133489339599137448400000003129855666744822187_);}
	.st216{fill:url(#SVGID_00000053539736143485718950000013647234689157604011_);}
	.st217{fill:url(#SVGID_00000124153694609967697330000004403304373644460712_);}
	.st218{fill:url(#SVGID_00000067935110675528639950000004493619589591460284_);}
	.st219{fill:url(#SVGID_00000163762207624333829090000002571848910035063468_);}
	.st220{fill:url(#SVGID_00000174603939930026432700000004319411816661834163_);}
	.st221{fill:url(#SVGID_00000124867285249985737250000003455926151181519508_);}
	.st222{fill:url(#SVGID_00000009553259713297738240000009845128913842785432_);}
	.st223{fill:url(#SVGID_00000032631036300997707920000016753967858690020271_);}
	.st224{fill:url(#SVGID_00000037689534238067210390000010756501742541509809_);}
	.st225{fill:url(#SVGID_00000145773759368727608360000016593976654305399991_);}
	.st226{fill:url(#SVGID_00000156584318102124499540000010063276782745900694_);}
	.st227{fill:url(#SVGID_00000065782978033508483010000013657076398057472431_);}
	.st228{fill:url(#SVGID_00000011024513033961679080000014548867904085284523_);}
	.st229{fill:url(#SVGID_00000065790106505765765470000017010224556944732839_);}
	.st230{fill:url(#SVGID_00000121968727982974462960000013144971107197727380_);}
	.st231{fill:url(#SVGID_00000095340386768104065700000008464071192640677798_);}
	.st232{fill:url(#SVGID_00000065790637633802644900000003598642587096830083_);}
	.st233{fill:url(#SVGID_00000080196182869456367620000011490435109763795889_);}
	.st234{fill:url(#SVGID_00000106126703696031149530000010651051401255904941_);}
	.st235{fill:url(#SVGID_00000086683178160473920290000000542401571415681153_);}
	.st236{fill:url(#SVGID_00000069360493957237936180000005731494176876916406_);}
	.st237{fill:url(#SVGID_00000101085705309310971030000002594554909587926463_);}
	.st238{fill:url(#SVGID_00000166676072566315623880000008086063688561363334_);}
	.st239{fill:url(#SVGID_00000149381807619595753280000005446594580112669346_);}
	.st240{fill:url(#SVGID_00000007392760130727905600000017222590118804298134_);}
	.st241{fill:url(#SVGID_00000162317683963975179630000000700884781203976625_);}
	.st242{fill:url(#SVGID_00000159455927813269669330000013852518776953763972_);}
	.st243{fill:url(#SVGID_00000108273384541303204830000016138161818590662286_);}
	.st244{fill:url(#SVGID_00000073684812158638601600000017082391731492220060_);}
	.st245{fill:url(#SVGID_00000084496060618027647510000004434433148271002795_);}
	.st246{fill:url(#SVGID_00000044170168289643375240000011937703553608036019_);}
	.st247{fill:url(#SVGID_00000007423078369621209430000002235805353421972876_);}
	.st248{fill:url(#SVGID_00000083794722278559620980000016318787556157881778_);}
	.st249{fill:url(#SVGID_00000005228158734792070720000018188448757637536928_);}
	.st250{fill:url(#SVGID_00000135688469196588718730000003687216177827275163_);}
	.st251{fill:url(#SVGID_00000122000966934220963250000007850333400414975928_);}
	.st252{fill:url(#SVGID_00000143597527028445564320000016624109402258280070_);}
	.st253{fill:url(#SVGID_00000004518530472090420400000016932059679894759846_);}
	.st254{fill:url(#SVGID_00000000903448784271689490000011080915976390321050_);}
	.st255{fill:url(#SVGID_00000120541492580443468460000008034447049564258222_);}
	.st256{fill:url(#SVGID_00000065796410066126071330000018444773668161249947_);}
	.st257{fill:url(#SVGID_00000157282066975569289410000009699890228401032094_);}
	.st258{fill:url(#SVGID_00000070108105456873920590000009441687015654248875_);}
	.st259{fill:url(#SVGID_00000176044120726858945620000012215035046638886824_);}
	.st260{fill:url(#SVGID_00000113315590688448812390000010947663989959593872_);}
	.st261{fill:url(#SVGID_00000164472237374398662260000007435761569594033793_);}
	.st262{fill:url(#SVGID_00000011750559209345853560000010827651674553452182_);}
	.st263{fill:url(#SVGID_00000137850844998341828520000006080764504023346111_);}
	.st264{fill:url(#SVGID_00000139278904634897146730000011890499918013366188_);}
	.st265{fill:url(#SVGID_00000182486944167935551860000007146494190952069047_);}
	.st266{fill:url(#SVGID_00000109003768916757051580000013983402201815711131_);}
	.st267{fill:url(#SVGID_00000089555496703094951590000008159770908822869394_);}
	.st268{fill:url(#SVGID_00000018932590211795130730000001367005975567394447_);}
	.st269{fill:url(#SVGID_00000101101032869053406230000016737177723903819683_);}
	.st270{fill:url(#SVGID_00000015344110306887345040000014954283624781962921_);}
	.st271{fill:url(#SVGID_00000086689545392899737910000004824573790771965073_);}
	.st272{fill:url(#SVGID_00000043442826598972401490000005492001030668240792_);}
	.st273{fill:url(#SVGID_00000016778311434107786560000004580777819998740124_);}
	.st274{fill:url(#SVGID_00000179644559742591256260000003531216484840029065_);}
	.st275{fill:url(#SVGID_00000039125338129211666110000000782340284184821167_);}
	.st276{fill:url(#SVGID_00000083075673509781392190000002291833651158201775_);}
	.st277{fill:url(#SVGID_00000024721218039402820610000004467545278311172747_);}
	.st278{fill:url(#SVGID_00000067238199632139750900000014909443110466510466_);}
	.st279{fill:url(#SVGID_00000174563250487182737160000011662826851487227066_);}
	.st280{fill:url(#SVGID_00000084504087336921726920000013051094266584751540_);}
	.st281{fill:url(#SVGID_00000038379599272644378460000009559265596315098292_);}
	.st282{fill:url(#SVGID_00000052102424340315007820000009160139135561858228_);}
	.st283{fill:url(#SVGID_00000015330363412744736200000010801577458164825739_);}
	.st284{fill:url(#SVGID_00000160177958140945185250000010324679874987936655_);}
	.st285{fill:url(#SVGID_00000114043247041906987850000016420527691160664972_);}
	.st286{fill:url(#SVGID_00000063594230642670736740000014657771573890907573_);}
	.st287{fill:url(#SVGID_00000170252022804382557850000004204536209299927190_);}
	.st288{fill:url(#SVGID_00000130629119529333212600000012671016433059784600_);}
	.st289{fill:url(#SVGID_00000021810676851650444960000002428322743168171176_);}
	.st290{fill:url(#SVGID_00000073698357007824419830000010836567721933451394_);}
	.st291{fill:url(#SVGID_00000135659475814903834410000010900310356531799467_);}
	.st292{fill:url(#SVGID_00000105399047963771736830000005541391496820842135_);}
	.st293{fill:url(#SVGID_00000032621878290685638960000013217173307534996888_);}
	.st294{fill:url(#SVGID_00000090260465851423776500000013717779189737114011_);}
	.st295{fill:url(#SVGID_00000091693840894313209340000007281081178284934567_);}
	.st296{fill:url(#SVGID_00000055682905730445294710000003283942216614259129_);}
	.st297{fill:url(#SVGID_00000096021755897014523650000003639862148305565616_);}
	.st298{fill:url(#SVGID_00000060749497686561575720000018090207498194282128_);}
	.st299{fill:url(#SVGID_00000016055333869724015690000011704193313107988866_);}
	.st300{fill:url(#SVGID_00000167359136187022390470000007653197680560023686_);}
	.st301{fill:url(#SVGID_00000068665906476043979530000007583158627216295827_);}
	.st302{fill:url(#SVGID_00000027605376123173149660000012664385766855149979_);}
	.st303{fill:url(#SVGID_00000140005293967979621370000012969422120559348653_);}
	.st304{fill:url(#SVGID_00000060740119919039077410000008467996505339583666_);}
	.st305{fill:url(#SVGID_00000003105290968320417820000014847877772381432226_);}
	.st306{fill:url(#SVGID_00000177460658247109648170000014127503172832483763_);}
	.st307{fill:url(#SVGID_00000074414910361583260080000007368361559022130064_);}
	.st308{fill:url(#SVGID_00000077283355354381538150000010232827922533632174_);}
	.st309{fill:url(#SVGID_00000155860285349443617010000007900196756292539544_);}
	.st310{fill:url(#SVGID_00000047033245613276996500000006388602315710801818_);}
	.st311{fill:url(#SVGID_00000080187421772196473380000003657974700634968735_);}
	.st312{fill:url(#SVGID_00000143584025376680631800000015940490171733282958_);}
	.st313{fill:url(#SVGID_00000173142624640069759290000015799282134581815195_);}
	.st314{fill:url(#SVGID_00000012430021687154269820000005299900404334621343_);}
	.st315{fill:url(#SVGID_00000050643908023316943270000008473321218579829147_);}
	.st316{fill:url(#SVGID_00000115481600593531071590000015541640521491994044_);}
	.st317{fill:url(#SVGID_00000020382129019561761550000006299297443415776129_);}
	.st318{fill:url(#SVGID_00000084531608234663687980000007654791636710881925_);}
	.st319{fill:url(#SVGID_00000045588157073308279420000016659201367771007138_);}
	.st320{fill:url(#SVGID_00000139258798976300734800000007747143438465511091_);}
</style>
<g>
	<g>
		<g>
			<linearGradient id="SVGID_1_" gradientUnits="userSpaceOnUse" x1="8.1018" y1="241.8776" x2="3847.1018" y2="241.8776">
				<stop  offset="0" style="stop-color:#FF2422"/>
				<stop  offset="1" style="stop-color:#C24FFF"/>
			</linearGradient>
			<path class="st1" d="M442.53,202.39H230.82l15.54-57.62h227.9l34.96-129.49H129.82L8.1,468.48h151.5l39.49-148.26H410.8
				L442.53,202.39z M668.44,12.04L355.08,468.48h165.09l39.49-60.86h158.62l7.77,60.86h161.21L818.64,12.04H668.44z M627,300.15
				l70.57-110.06l12.3,110.06H627z M1262.63,15.28l-156.68,254.44l-19.42-254.44H920.14l61.51,456.44h145.02L1432.9,15.28H1262.63z
				 M1632.29,6.21c-152.15,0-266.74,125.6-266.74,266.1c0,115.89,91.93,205.23,225.31,205.23c152.15,0,266.74-125.6,266.74-266.09
				C1857.6,95.56,1765.66,6.21,1632.29,6.21z M1601.22,344.17c-54.38,0-83.52-37.55-83.52-85.46c0-56.97,40.79-119.13,104.24-119.13
				c54.38,0,83.52,37.55,83.52,85.46C1705.45,282.02,1664.67,344.17,1601.22,344.17z M2334.1,158.36
				c0-35.61-10.36-69.28-35.61-94.53c-30.43-30.43-83.52-48.56-167.04-48.56H1954.7l-121.72,453.2h151.5l34.96-129.49H2057
				l50.5,129.49h163.15l-62.8-150.85C2297.2,289.79,2334.1,228.93,2334.1,158.36z M2102.97,230.87h-55.03l23.96-88.7h53.74
				c21.37,0,36.26,4.53,44.67,12.95c6.47,6.47,9.71,14.89,9.71,23.96C2180.01,207.57,2153.47,230.87,2102.97,230.87z M2417.61,15.28
				l-121.72,453.2h151.5l121.72-453.2H2417.61z M3020.36,15.28h-418.24l-34.31,128.19h133.37l-87.4,325.01h151.5l87.4-325.01h133.37
				L3020.36,15.28z M3127.17,294.97h221.42l29.13-109.42h-221.42l12.3-45.97h237.61l33.67-124.31h-386.52l-121.72,453.2h389.75
				l33.02-124.31h-240.84L3127.17,294.97z M3669.06,184.91c-62.8-23.31-72.51-25.9-72.51-39.49c0-12.95,13.6-18.13,33.02-18.13
				c47.91,0,96.47,22.66,130.78,50.5l86.75-103.59c-49.2-42.08-121.07-67.98-202-67.98c-123.66,0-203.94,71.22-203.94,158.62
				c0,66.69,39.49,96.47,123.66,127.54c66.04,24.6,74.46,29.13,74.46,43.38c0,12.95-13.6,20.07-33.02,20.07
				c-47.91,0-101-20.72-152.79-64.1l-86.75,103.59c55.03,49.85,133.37,82.22,223.36,82.22c130.13,0,205.24-71.22,205.24-162.5
				C3795.31,245.76,3746.1,213.39,3669.06,184.91z"/>
		</g>
	</g>
	<g>
		<g>
			<g>
				
					<linearGradient id="SVGID_00000103257289389365940340000000439271795557363620_" gradientUnits="userSpaceOnUse" x1="258.6572" y1="468.4792" x2="258.6572" y2="15.278">
					<stop  offset="0" style="stop-color:#FF0000"/>
					<stop  offset="0.2634" style="stop-color:#E42372"/>
					<stop  offset="0.3192" style="stop-color:#FFA1FF"/>
					<stop  offset="0.4267" style="stop-color:#DA2F9A"/>
					<stop  offset="0.7554" style="stop-color:#CC41D4"/>
					<stop  offset="0.7881" style="stop-color:#FFA1FF"/>
					<stop  offset="0.8413" style="stop-color:#C846E3"/>
					<stop  offset="1" style="stop-color:#C24FFF"/>
				</linearGradient>
				<path style="fill:url(#SVGID_00000103257289389365940340000000439271795557363620_);" d="M492.99,27.7l-28.25,104.63H246.36
					h-9.52l-2.48,9.19l-15.54,57.62l-4.22,15.66h16.22h195.5l-25.03,92.98H199.09h-9.55l-2.46,9.23l-37.04,139.03H24.31L139.35,27.7
					H492.99 M509.21,15.28H129.82L8.1,468.48h151.5l39.49-148.26H410.8l31.72-117.83H230.82l15.54-57.62h227.9L509.21,15.28
					L509.21,15.28z"/>
			</g>
			<g>
				
					<linearGradient id="SVGID_00000142869203734313736300000004349032259007672968_" gradientUnits="userSpaceOnUse" x1="621.1743" y1="468.4792" x2="621.1743" y2="12.0402">
					<stop  offset="0" style="stop-color:#FF0000"/>
					<stop  offset="0.2634" style="stop-color:#E42372"/>
					<stop  offset="0.3192" style="stop-color:#FFA1FF"/>
					<stop  offset="0.4267" style="stop-color:#DA2F9A"/>
					<stop  offset="0.7554" style="stop-color:#CC41D4"/>
					<stop  offset="0.7881" style="stop-color:#FFA1FF"/>
					<stop  offset="0.8413" style="stop-color:#C846E3"/>
					<stop  offset="1" style="stop-color:#C24FFF"/>
				</linearGradient>
				<path style="fill:url(#SVGID_00000142869203734313736300000004349032259007672968_);" d="M807.94,24.47l64.89,431.59H737
					l-6.38-50.01l-1.39-10.85h-10.94H559.67h-6.75l-3.67,5.66l-35.82,55.2H378.68L674.98,24.47H807.94 M604.27,312.57H627h82.87
					h13.89l-1.54-13.81l-12.3-110.06l-3.89-34.83l-18.92,29.5l-70.57,110.06L604.27,312.57 M818.64,12.04h-150.2L355.08,468.48
					h165.09l39.49-60.86h158.62l7.77,60.86h161.21L818.64,12.04L818.64,12.04z M627,300.15l70.57-110.06l12.3,110.06H627L627,300.15
					z"/>
			</g>
			<g>
				
					<linearGradient id="SVGID_00000160880503320779759050000003294195667834979771_" gradientUnits="userSpaceOnUse" x1="1176.5203" y1="471.7165" x2="1176.5203" y2="15.278">
					<stop  offset="0" style="stop-color:#FF0000"/>
					<stop  offset="0.2634" style="stop-color:#E42372"/>
					<stop  offset="0.3192" style="stop-color:#FFA1FF"/>
					<stop  offset="0.4267" style="stop-color:#DA2F9A"/>
					<stop  offset="0.7554" style="stop-color:#CC41D4"/>
					<stop  offset="0.7881" style="stop-color:#FFA1FF"/>
					<stop  offset="0.8413" style="stop-color:#C846E3"/>
					<stop  offset="1" style="stop-color:#C24FFF"/>
				</linearGradient>
				<path style="fill:url(#SVGID_00000160880503320779759050000003294195667834979771_);" d="M1409.6,27.7l-289.56,431.59H992.51
					L934.35,27.7h140.66l18.55,242.96l2.91,38.14l20.06-32.57L1269.57,27.7H1409.6 M1432.9,15.28h-170.27l-156.68,254.44
					l-19.42-254.44H920.14l61.51,456.44h145.02L1432.9,15.28L1432.9,15.28z"/>
			</g>
			<g>
				
					<linearGradient id="SVGID_00000052790887890142626660000013123876018234951558_" gradientUnits="userSpaceOnUse" x1="1611.577" y1="477.5421" x2="1611.577" y2="6.213">
					<stop  offset="0" style="stop-color:#FF0000"/>
					<stop  offset="0.2634" style="stop-color:#E42372"/>
					<stop  offset="0.3192" style="stop-color:#FFA1FF"/>
					<stop  offset="0.4267" style="stop-color:#DA2F9A"/>
					<stop  offset="0.7554" style="stop-color:#CC41D4"/>
					<stop  offset="0.7881" style="stop-color:#FFA1FF"/>
					<stop  offset="0.8413" style="stop-color:#C846E3"/>
					<stop  offset="1" style="stop-color:#C24FFF"/>
				</linearGradient>
				<path style="fill:url(#SVGID_00000052790887890142626660000013123876018234951558_);" d="M1632.29,18.64
					c31.09,0,60.41,5.04,87.14,14.99c25.56,9.51,48.13,23.26,67.08,40.85c37.83,35.13,58.67,83.77,58.67,136.97
					c0,32.93-6.5,65.25-19.33,96.07c-12.57,30.22-30.56,57.46-53.46,80.99c-48.09,49.4-112.56,76.6-181.52,76.6
					c-31.09,0-60.41-5.04-87.14-14.99c-25.56-9.51-48.13-23.26-67.08-40.85c-37.83-35.13-58.67-83.77-58.67-136.97
					c0-32.93,6.5-65.25,19.33-96.07c12.57-30.22,30.56-57.46,53.46-80.99C1498.87,45.84,1563.33,18.64,1632.29,18.64 M1601.22,356.6
					c33.1,0,63.5-15.22,85.61-42.86c19.73-24.66,31.05-56.99,31.05-88.69c0-27.61-8.52-51.5-24.63-69.09
					c-17.25-18.84-41.91-28.8-71.32-28.8c-33.1,0-63.5,15.22-85.61,42.86c-19.73,24.66-31.05,56.99-31.05,88.69
					c0,27.6,8.52,51.5,24.63,69.09C1547.15,346.64,1571.82,356.6,1601.22,356.6 M1632.29,6.21c-152.15,0-266.74,125.6-266.74,266.1
					c0,115.89,91.93,205.23,225.31,205.23c152.15,0,266.74-125.6,266.74-266.09C1857.6,95.56,1765.66,6.21,1632.29,6.21
					L1632.29,6.21z M1601.22,344.17c-54.38,0-83.52-37.55-83.52-85.46c0-56.97,40.79-119.13,104.24-119.13
					c54.38,0,83.52,37.55,83.52,85.46C1705.45,282.02,1664.67,344.17,1601.22,344.17L1601.22,344.17z"/>
			</g>
			<g>
				
					<linearGradient id="SVGID_00000010281735987741599640000003194776764019595450_" gradientUnits="userSpaceOnUse" x1="2083.543" y1="468.4792" x2="2083.543" y2="15.278">
					<stop  offset="0" style="stop-color:#FF0000"/>
					<stop  offset="0.2634" style="stop-color:#E42372"/>
					<stop  offset="0.3192" style="stop-color:#FFA1FF"/>
					<stop  offset="0.4267" style="stop-color:#DA2F9A"/>
					<stop  offset="0.7554" style="stop-color:#CC41D4"/>
					<stop  offset="0.7881" style="stop-color:#FFA1FF"/>
					<stop  offset="0.8413" style="stop-color:#C846E3"/>
					<stop  offset="1" style="stop-color:#C24FFF"/>
				</linearGradient>
				<path style="fill:url(#SVGID_00000010281735987741599640000003194776764019595450_);" d="M2131.45,27.7
					c75.2,0,128.44,15.11,158.25,44.92c10.82,10.82,19.01,23.86,24.36,38.79c5.05,14.08,7.61,29.87,7.61,46.95
					c0,50.54-20.39,117.14-117.52,147.4l-13.01,4.05l5.24,12.58l55.64,133.65h-136.03l-47.41-121.58l-3.09-7.91H2057h-37.55h-9.52
					l-2.48,9.19l-32.48,120.3h-125.78L1964.23,27.7H2131.45 M2031.71,243.3h16.23h55.03c26.5,0,48.89-6.08,64.75-17.58
					c15.94-11.56,24.72-28.12,24.72-46.64c0-12.5-4.74-24.13-13.35-32.74c-11.01-11.01-28.99-16.59-53.46-16.59h-53.74h-9.52
					l-2.48,9.19l-23.96,88.7L2031.71,243.3 M2131.45,15.28H1954.7l-121.72,453.2h151.5l34.96-129.49H2057l50.5,129.49h163.15
					l-62.8-150.85c89.35-27.84,126.25-88.7,126.25-159.27c0-35.61-10.36-69.28-35.61-94.53
					C2268.06,33.41,2214.97,15.28,2131.45,15.28L2131.45,15.28z M2047.93,230.87l23.96-88.7h53.74c21.37,0,36.26,4.53,44.67,12.95
					c6.47,6.47,9.71,14.89,9.71,23.96c0,28.49-26.55,51.79-77.04,51.79H2047.93L2047.93,230.87z"/>
			</g>
			<g>
				
					<linearGradient id="SVGID_00000118370622878696401770000006217650627394377117_" gradientUnits="userSpaceOnUse" x1="2432.4978" y1="468.4792" x2="2432.4978" y2="15.278">
					<stop  offset="0" style="stop-color:#FF0000"/>
					<stop  offset="0.2634" style="stop-color:#E42372"/>
					<stop  offset="0.3192" style="stop-color:#FFA1FF"/>
					<stop  offset="0.4267" style="stop-color:#DA2F9A"/>
					<stop  offset="0.7554" style="stop-color:#CC41D4"/>
					<stop  offset="0.7881" style="stop-color:#FFA1FF"/>
					<stop  offset="0.8413" style="stop-color:#C846E3"/>
					<stop  offset="1" style="stop-color:#C24FFF"/>
				</linearGradient>
				<path style="fill:url(#SVGID_00000118370622878696401770000006217650627394377117_);" d="M2552.9,27.7l-115.04,428.35h-125.77
					L2427.14,27.7H2552.9 M2569.11,15.28h-151.5l-121.72,453.2h151.5L2569.11,15.28L2569.11,15.28z"/>
			</g>
			<g>
				
					<linearGradient id="SVGID_00000052101753097372565620000002726582916803230345_" gradientUnits="userSpaceOnUse" x1="2794.0808" y1="468.4792" x2="2794.0808" y2="15.278">
					<stop  offset="0" style="stop-color:#FF0000"/>
					<stop  offset="0.2634" style="stop-color:#E42372"/>
					<stop  offset="0.3192" style="stop-color:#FFA1FF"/>
					<stop  offset="0.4267" style="stop-color:#DA2F9A"/>
					<stop  offset="0.7554" style="stop-color:#CC41D4"/>
					<stop  offset="0.7881" style="stop-color:#FFA1FF"/>
					<stop  offset="0.8413" style="stop-color:#C846E3"/>
					<stop  offset="1" style="stop-color:#C24FFF"/>
				</linearGradient>
				<path style="fill:url(#SVGID_00000052101753097372565620000002726582916803230345_);" d="M3004.17,27.7l-27.66,103.34h-123.83
					h-9.53l-2.47,9.2l-84.93,315.81h-125.76l83.19-309.36l4.21-15.65h-16.21h-117.18l27.66-103.34H3004.17 M3020.36,15.28h-418.24
					l-34.31,128.19h133.37l-87.4,325.01h151.5l87.4-325.01h133.37L3020.36,15.28L3020.36,15.28z"/>
			</g>
			<g>
				
					<linearGradient id="SVGID_00000114057712217148893380000005965138752990076344_" gradientUnits="userSpaceOnUse" x1="3185.7676" y1="468.4792" x2="3185.7676" y2="15.278">
					<stop  offset="0" style="stop-color:#FF0000"/>
					<stop  offset="0.2634" style="stop-color:#E42372"/>
					<stop  offset="0.3192" style="stop-color:#FFA1FF"/>
					<stop  offset="0.4267" style="stop-color:#DA2F9A"/>
					<stop  offset="0.7554" style="stop-color:#CC41D4"/>
					<stop  offset="0.7881" style="stop-color:#FFA1FF"/>
					<stop  offset="0.8413" style="stop-color:#C846E3"/>
					<stop  offset="1" style="stop-color:#C24FFF"/>
				</linearGradient>
				<path style="fill:url(#SVGID_00000114057712217148893380000005965138752990076344_);" d="M3423.65,27.7l-26.94,99.46h-228.1
					h-9.54l-2.47,9.21l-12.3,45.97l-4.19,15.64h16.19h205.25l-22.52,84.56h-211.87h-9.46l-2.52,9.12l-13.6,49.2l-4.35,15.74h16.32
					h224.69l-26.42,99.46h-363.99L3062.9,27.7H3423.65 M3439.88,15.28h-386.52l-121.72,453.2h389.75l33.02-124.31h-240.84l13.6-49.2
					h221.42l29.13-109.42h-221.42l12.3-45.97h237.61L3439.88,15.28L3439.88,15.28z"/>
			</g>
			<g>
				
					<linearGradient id="SVGID_00000159447349999533875260000013555583662697641126_" gradientUnits="userSpaceOnUse" x1="3606.9055" y1="477.5421" x2="3606.9055" y2="6.213">
					<stop  offset="0" style="stop-color:#FF0000"/>
					<stop  offset="0.2634" style="stop-color:#E42372"/>
					<stop  offset="0.3192" style="stop-color:#FFA1FF"/>
					<stop  offset="0.4267" style="stop-color:#DA2F9A"/>
					<stop  offset="0.7554" style="stop-color:#CC41D4"/>
					<stop  offset="0.7881" style="stop-color:#FFA1FF"/>
					<stop  offset="0.8413" style="stop-color:#C846E3"/>
					<stop  offset="1" style="stop-color:#C24FFF"/>
				</linearGradient>
				<path style="fill:url(#SVGID_00000159447349999533875260000013555583662697641126_);" d="M3645.1,18.64
					c38.29,0,74.92,5.9,108.87,17.54c28.45,9.75,53.79,23.09,75.5,39.72l-70.99,84.76c-16.55-12.11-34.92-22.4-53.73-30.07
					c-25.59-10.44-50.88-15.73-75.18-15.73c-41.02,0-45.44,21.37-45.44,30.55c0,11.51,5.11,19.26,17.1,25.9
					c9.42,5.22,24.3,10.72,51.31,20.72c3.83,1.42,7.89,2.92,12.22,4.53c42.46,15.7,69.56,30.27,87.88,47.23
					c20.64,19.11,30.25,41.75,30.25,71.25c0,20.93-4.24,40.67-12.61,58.66c-8.39,18.04-20.75,33.95-36.74,47.28
					c-34.63,28.87-84.24,44.14-143.46,44.14c-42.13,0-82.63-7.27-120.38-21.61c-31.84-12.1-60.59-28.74-85.62-49.57l71.07-84.86
					c49.48,38.76,101.51,59.17,151.12,59.17c11.95,0,22.35-2.38,30.05-6.87c9.92-5.79,15.39-14.89,15.39-25.62
					c0-12.62-5.41-20.9-18.67-28.56c-11.02-6.37-29.38-13.61-63.91-26.47c-44.98-16.61-71.61-30.87-89.07-47.71
					c-18.3-17.65-26.47-38.68-26.47-68.18c0-39.46,18.11-75.84,50.99-102.42c16.95-13.71,37.24-24.43,60.31-31.88
					C3589.33,22.64,3616.32,18.64,3645.1,18.64 M3645.1,6.21c-123.66,0-203.94,71.22-203.94,158.62
					c0,66.69,39.49,96.47,123.66,127.54c66.04,24.6,74.45,29.13,74.45,43.38c0,12.95-13.6,20.07-33.02,20.07
					c-47.91,0-101-20.72-152.79-64.1l-86.75,103.59c55.03,49.85,133.37,82.22,223.36,82.22c130.13,0,205.24-71.22,205.24-162.5
					c0-69.27-49.2-101.65-126.25-130.13c-62.8-23.31-72.51-25.9-72.51-39.49c0-12.95,13.6-18.13,33.02-18.13
					c47.91,0,96.47,22.66,130.78,50.5l86.75-103.59C3797.9,32.11,3726.03,6.21,3645.1,6.21L3645.1,6.21z"/>
			</g>
		</g>
	</g>
</g>
</svg>
