<?xml version="1.0" encoding="utf-8"?>
<!-- Generator: Adobe Illustrator 27.0.0, SVG Export Plug-In . SVG Version: 6.00 Build 0)  -->
<svg version="1.1" id="Layer_1" xmlns="http://www.w3.org/2000/svg" xmlns:xlink="http://www.w3.org/1999/xlink" x="0px" y="0px"
	 viewBox="0 0 3853.49 418" style="enable-background:new 0 0 3853.49 418;" xml:space="preserve">
<style type="text/css">
	.st0{fill:#FFFFFF;}
	.st1{fill:url(#SVGID_1_);}
	.st2{fill:url(#SVGID_00000159456393349104318710000001345882748723285120_);}
	.st3{fill:url(#SVGID_00000059307848900857003380000005697058007066306698_);}
	.st4{fill:url(#SVGID_00000096024657624088780670000002639466228318475417_);}
	.st5{fill:url(#SVGID_00000087387590234533648380000010126766371418252942_);}
	.st6{fill:url(#SVGID_00000151534594170838390840000007130358411419226025_);}
	.st7{fill:url(#SVGID_00000041985764220023288720000016355998514724005784_);}
	.st8{fill:url(#SVGID_00000171722015179004192420000015961042237997829250_);}
	.st9{fill:url(#SVGID_00000126289960827569018780000012317339890881759678_);}
	.st10{fill:url(#SVGID_00000154391354963382767940000016302310910717080204_);}
	.st11{fill:url(#SVGID_00000153698204159300666160000009957157351079153038_);}
	.st12{fill:url(#SVGID_00000088835243453948046920000011856332758437667220_);}
	.st13{fill:url(#SVGID_00000084499990055064117100000012666355774083740331_);}
	.st14{fill:url(#SVGID_00000137124636778038981860000008412467637038567607_);}
	.st15{fill:url(#SVGID_00000165199252869232564130000000558548836082925732_);}
	.st16{fill:url(#SVGID_00000181805633322738664300000016228165534985513633_);}
	.st17{fill:url(#SVGID_00000126292829821011833260000003884978924040373160_);}
	.st18{fill:url(#SVGID_00000164479041321224827820000003428448540738890118_);}
	.st19{fill:url(#SVGID_00000027581327575688311140000009020756821095318171_);}
	.st20{fill:url(#SVGID_00000007422526712063054650000010325144809516259734_);}
	.st21{fill:url(#SVGID_00000124156529119285385570000001094025420903450500_);}
	.st22{fill:url(#SVGID_00000026866112721779468630000015547342518251125136_);}
	.st23{fill:url(#SVGID_00000168099703563191590790000015534891600483911062_);}
	.st24{fill:url(#SVGID_00000183951182148753371840000013299525254055741090_);}
	.st25{fill:url(#SVGID_00000173851737831549957650000007168196772560348828_);}
	.st26{fill:url(#SVGID_00000000901508407724059180000007830062296138053251_);}
	.st27{fill:url(#SVGID_00000031165524827068539230000010832124049549305271_);}
	.st28{fill:url(#SVGID_00000092454782750579962350000001939792778324207013_);}
	.st29{fill:url(#SVGID_00000035506858355341423750000009305765457850659982_);}
	.st30{fill:url(#SVGID_00000072247634547441970870000012710284181950248068_);}
	.st31{fill:url(#SVGID_00000085216341987378037500000014378642057943644560_);}
	.st32{fill:url(#SVGID_00000071545987266260200610000017873328865229121452_);}
	.st33{fill:url(#SVGID_00000142854889166436905390000010385460075544206246_);}
	.st34{fill:url(#SVGID_00000028290049490463745230000003189842266620688573_);}
	.st35{fill:url(#SVGID_00000067219574470292478580000006580479334869061284_);}
	.st36{fill:url(#SVGID_00000074440512973436061400000016624110524225142969_);}
	.st37{fill:url(#SVGID_00000072996456445251844770000014519446963173434301_);}
	.st38{fill:url(#SVGID_00000085936637218266809490000013929517929274908855_);}
	.st39{fill:url(#SVGID_00000034812216842113996520000011847430247333103266_);}
	.st40{fill:url(#SVGID_00000057837974206812405840000010977611118708493477_);}
	.st41{fill:url(#SVGID_00000129890029180592732960000010695842349775718540_);}
	.st42{fill:url(#SVGID_00000096755443596450696460000005024517381871204535_);}
	.st43{fill:url(#SVGID_00000014618338336402599470000014903848575574562432_);}
	.st44{fill:url(#SVGID_00000182517091614922625730000009248139019364638644_);}
	.st45{fill:url(#SVGID_00000091004899147779202820000000896133968342758315_);}
	.st46{fill:url(#SVGID_00000050635107387678711890000017425074016649778847_);}
	.st47{fill:url(#SVGID_00000155852602040093083070000015407803955610660259_);}
	.st48{fill:url(#SVGID_00000000935879439918832000000016711464535732691843_);}
	.st49{fill:url(#SVGID_00000003074199146208408630000004408160023305246888_);}
	.st50{fill:url(#SVGID_00000152951782089258697210000017792204708058930343_);}
	.st51{fill:url(#SVGID_00000084494405184906853190000005512610337434420909_);}
	.st52{fill:url(#SVGID_00000023265982712990235260000013246608766647975325_);}
	.st53{fill:url(#SVGID_00000024710223991780185690000001758211661727096497_);}
	.st54{fill:url(#SVGID_00000068642098149876949690000006774690688112243357_);}
	.st55{fill:url(#SVGID_00000143576994218502760370000017926734659097492900_);}
	.st56{fill:url(#SVGID_00000027586375677003591230000007001700917799726266_);}
	.st57{fill:url(#SVGID_00000083776510958782593270000009254632849550848146_);}
	.st58{fill:url(#SVGID_00000073708470422562248840000005274459930233930114_);}
	.st59{fill:url(#SVGID_00000134936353835112374020000017253850740926784190_);}
	.st60{fill:url(#SVGID_00000137095366688871721960000016225209983207826318_);}
	.st61{fill:url(#SVGID_00000092449531610483430210000014455167434306376579_);}
	.st62{fill:url(#SVGID_00000176013591600592284160000011751079954545115285_);}
	.st63{fill:url(#SVGID_00000145058620467106672040000016964264501462917044_);}
	.st64{fill:url(#SVGID_00000173118736450833955440000014238108871632181673_);}
	.st65{fill:url(#SVGID_00000104702051361919964120000013387522686140764819_);}
	.st66{fill:url(#SVGID_00000135690992190560063140000000050198395791004590_);}
	.st67{fill:url(#SVGID_00000016759360379947197070000011029060627350049420_);}
	.st68{fill:url(#SVGID_00000020386960528677418710000001992678259363242428_);}
	.st69{fill:url(#SVGID_00000089555772650559199150000001822266901997289093_);}
	.st70{fill:url(#SVGID_00000011017681616299545570000007932070982966705577_);}
	.st71{fill:url(#SVGID_00000060746482888948798560000017295691459043219100_);}
	.st72{fill:url(#SVGID_00000057113379484150324080000003825174628293935782_);}
	.st73{fill:url(#SVGID_00000160165620960980659340000011943568610996966025_);}
	.st74{fill:url(#SVGID_00000107558019799179216490000005243689633865568899_);}
	.st75{fill:url(#SVGID_00000020384915754632991900000009513400269306959807_);}
	.st76{fill:url(#SVGID_00000163074307652334520800000014680414474824959391_);}
	.st77{fill:url(#SVGID_00000000904337962207459060000008767247377081973689_);}
	.st78{fill:url(#SVGID_00000054950062917129175550000010526365997321910431_);}
	.st79{fill:url(#SVGID_00000000916381040176094030000005761684489693394354_);}
	.st80{fill:url(#SVGID_00000112629750458110465610000001504830215306957484_);}
	.st81{fill:url(#SVGID_00000105419255637192888720000011230058318240741767_);}
	.st82{fill:url(#SVGID_00000054979452394514984940000001235277510311534015_);}
	.st83{fill:url(#SVGID_00000119807959344114239360000001141272441947185591_);}
	.st84{fill:url(#SVGID_00000004525105474598261940000010047151746323446408_);}
	.st85{fill:url(#SVGID_00000077307507650634119820000014358360260901515702_);}
	.st86{fill:url(#SVGID_00000165917113203697096110000007750456970262396082_);}
	.st87{fill:url(#SVGID_00000109725738479047009680000009945112671928909748_);}
	.st88{fill:url(#SVGID_00000031892039241605290530000008506195508217102513_);}
	.st89{fill:url(#SVGID_00000048474882649308722830000007787413228818546838_);}
	.st90{fill:url(#SVGID_00000106855922762828154890000011036845414426197420_);}
	.st91{fill:url(#SVGID_00000083779981551895908710000007589975892887252633_);}
	.st92{fill:url(#SVGID_00000126290636116612955300000015085626192440358567_);}
	.st93{fill:url(#SVGID_00000137820529980448011850000006305030501716002998_);}
	.st94{fill:url(#SVGID_00000163043565022227474530000000964420953050662053_);}
	.st95{fill:url(#SVGID_00000010285865857131429910000017392531256337641107_);}
	.st96{fill:url(#SVGID_00000041262067479523596620000011658256664001584512_);}
	.st97{fill:url(#SVGID_00000160882790068557941870000008862856965655446663_);}
	.st98{fill:url(#SVGID_00000105423745357663735690000000237208063035805870_);}
	.st99{fill:url(#SVGID_00000146485136128285330640000014305838981926268861_);}
	.st100{fill:url(#SVGID_00000081615970318086935420000002156737904216508089_);}
	.st101{fill:url(#SVGID_00000103986061351407903210000016280354261189537442_);}
	.st102{fill:url(#SVGID_00000021798087428251612480000018143115990699850649_);}
	.st103{fill:url(#SVGID_00000157283059007187450630000008576929588906128513_);}
	.st104{fill:url(#SVGID_00000092431110486086945230000012013688840486338947_);}
	.st105{fill:url(#SVGID_00000126308138699528284660000007422630583323474821_);}
	.st106{fill:url(#SVGID_00000113316994255784133430000014842605731310398389_);}
	.st107{fill:url(#SVGID_00000163031375319638749190000015721170914016969139_);}
	.st108{fill:url(#SVGID_00000011740038067708741430000005050246638230952335_);}
	.st109{fill:url(#SVGID_00000000197683267370086240000007493927186686215555_);}
	.st110{fill:url(#SVGID_00000142889419572358544980000005534962275296631477_);}
	.st111{fill:url(#SVGID_00000061455287599029837360000014850068557889130906_);}
	.st112{fill:url(#SVGID_00000021087363344745965160000002736048732249001880_);}
	.st113{fill:url(#SVGID_00000012474196961204604610000013060183293776826043_);}
	.st114{fill:url(#SVGID_00000145057637167828805880000005416001776145787303_);}
	.st115{fill:url(#SVGID_00000055682783058223217870000010873157558031247538_);}
	.st116{fill:url(#SVGID_00000083807341520402115550000012670551234159667619_);}
	.st117{fill:url(#SVGID_00000044137181563555893440000018414000383883258525_);}
	.st118{fill:url(#SVGID_00000166641222289440223630000010205117081209298577_);}
	.st119{fill:url(#SVGID_00000046328670261428768410000011761882768048351382_);}
	.st120{fill:url(#SVGID_00000067196328135588100480000003417627461292189078_);}
	.st121{fill:url(#SVGID_00000006696238354344329960000011640654241254319264_);}
	.st122{fill:url(#SVGID_00000120530513237601722550000013392121341033933486_);}
	.st123{fill:url(#SVGID_00000176725614968830162270000005345984699000979388_);}
	.st124{fill:url(#SVGID_00000089576305395077599520000009447632816871168169_);}
	.st125{fill:url(#SVGID_00000158020273353154148000000018198363566621583512_);}
	.st126{fill:url(#SVGID_00000137853280849548032650000009415690443228781446_);}
	.st127{fill:url(#SVGID_00000052103462345726578050000003935871795788403131_);}
	.st128{fill:url(#SVGID_00000180348339177122565090000012732562510785428616_);}
	.st129{fill:url(#SVGID_00000030465362372561235770000017715251532360304524_);}
	.st130{fill:url(#SVGID_00000099650782036066421040000004381732919236673445_);}
	.st131{fill:url(#SVGID_00000108272287586239501240000012584156048893960584_);}
	.st132{fill:url(#SVGID_00000027571571961914728870000015059468865720941714_);}
	.st133{fill:url(#SVGID_00000119088636908727907110000010958367670046330807_);}
	.st134{fill:url(#SVGID_00000136384485385574832140000015904387012130629794_);}
	.st135{fill:url(#SVGID_00000162336651652809999190000012504401476601287868_);}
	.st136{fill:url(#SVGID_00000089565721369264446870000004527544207277994627_);}
	.st137{fill:url(#SVGID_00000010275147992486614330000012480261752099998101_);}
	.st138{fill:url(#SVGID_00000087381302865437817460000013133041274797061297_);}
	.st139{fill:url(#SVGID_00000168108726166397553590000016223437881161974452_);}
	.st140{fill:url(#SVGID_00000092417536211098405410000007145617429973086626_);}
	.st141{fill:url(#SVGID_00000124133081136653558050000016533173804191942800_);}
	.st142{fill:url(#SVGID_00000179641535785631211840000003856203849071216562_);}
	.st143{fill:url(#SVGID_00000119093022380327192890000015186708721211933080_);}
	.st144{fill:url(#SVGID_00000142880551029042554430000009228021085917896102_);}
	.st145{fill:url(#SVGID_00000177442146443693151670000008458034878984843409_);}
	.st146{fill:url(#SVGID_00000056426404670774447630000009245234008747727010_);}
	.st147{fill:url(#SVGID_00000033344122851979412690000007435566177373191820_);}
	.st148{fill:url(#SVGID_00000047061739268580222930000002250829099372258723_);}
	.st149{fill:url(#SVGID_00000048486975369915424940000008917526643607206312_);}
	.st150{fill:url(#SVGID_00000183967744050116681000000012167573923807391396_);}
	.st151{fill:url(#SVGID_00000029742478600684366810000008902398971958108054_);}
	.st152{fill:url(#SVGID_00000067205887564195451650000015779676883064247958_);}
	.st153{fill:url(#SVGID_00000152249688175618915080000009749465068665181599_);}
	.st154{fill:url(#SVGID_00000149369318781706389840000015631116471474849700_);}
	.st155{fill:url(#SVGID_00000009570740461506346820000005605355523431795864_);}
	.st156{fill:url(#SVGID_00000166645410633271959290000002710478933438642560_);}
	.st157{fill:url(#SVGID_00000003098207442613768860000004768373181302296755_);}
	.st158{fill:url(#SVGID_00000145033409815355374440000006476199151157392536_);}
	.st159{fill:url(#SVGID_00000113343438816834835120000013217605896051382937_);}
	.st160{fill:url(#SVGID_00000140698279374232210310000011838586935045510040_);}
	.st161{fill:url(#SVGID_00000006675124782388277660000013782955876226245047_);}
	.st162{fill:url(#SVGID_00000071559635263900312770000016536556931061047736_);}
	.st163{fill:url(#SVGID_00000163069382100130307890000015906306064526197637_);}
	.st164{fill:url(#SVGID_00000021816342470005512770000010090306584142600600_);}
	.st165{fill:url(#SVGID_00000103982721320315261940000009443619888243646366_);}
	.st166{fill:url(#SVGID_00000064313040348126587180000008933011655983436702_);}
	.st167{fill:url(#SVGID_00000126286436880212763970000003575557369299481730_);}
	.st168{fill:url(#SVGID_00000046337312306299642620000005348324667702681257_);}
	.st169{fill:url(#SVGID_00000173141461706400545930000012835146575618390694_);}
	.st170{fill:url(#SVGID_00000009585563377353941780000004089139902561423276_);}
	.st171{fill:url(#SVGID_00000000924428909744999630000002962494953564824497_);}
	.st172{fill:url(#SVGID_00000085953069754450703910000013727907703338598797_);}
	.st173{fill:url(#SVGID_00000039841928704059429470000008207452944909247159_);}
	.st174{fill:url(#SVGID_00000040534676148827732390000014298192595168649604_);}
	.st175{fill:url(#SVGID_00000022536599526467577840000000985310713197249175_);}
	.st176{fill:url(#SVGID_00000126284236757062782930000003872460097044178055_);}
	.st177{fill:url(#SVGID_00000026848195674279319030000016476921509426859180_);}
	.st178{fill:url(#SVGID_00000130641588792811114200000000910761803893728916_);}
	.st179{fill:url(#SVGID_00000134971680478136936950000016670201725913288321_);}
	.st180{fill:url(#SVGID_00000092438773270703450810000000271387785020863932_);}
	.st181{fill:url(#SVGID_00000088830510225537014880000017122869588337282456_);}
	.st182{fill:url(#SVGID_00000182517125360700298400000006359102545974535831_);}
	.st183{fill:url(#SVGID_00000037653339543202820790000004290496561179170714_);}
	.st184{fill:url(#SVGID_00000133529499587215590030000006303613904073068702_);}
	.st185{fill:url(#SVGID_00000135653798658263643570000016589787479863960755_);}
	.st186{fill:url(#SVGID_00000113346724921367914570000014043611138447310221_);}
	.st187{fill:url(#SVGID_00000059276610640376450050000013528215587279516341_);}
	.st188{fill:url(#SVGID_00000121251777028405185510000013855268651432197029_);}
	.st189{fill:url(#SVGID_00000089562834153113242030000017368641978904667567_);}
	.st190{fill:url(#SVGID_00000060739218898042778570000004212935226147251593_);}
	.st191{fill:url(#SVGID_00000085931381170615520180000004930250963634726550_);}
	.st192{fill:url(#SVGID_00000125565250923952074600000006345587995294179226_);}
	.st193{fill:url(#SVGID_00000035495684909290149630000012039707439154763413_);}
	.st194{fill:url(#SVGID_00000077315997979000321080000018050537699099166624_);}
	.st195{fill:url(#SVGID_00000038387812954727839020000016715220974834051490_);}
	.st196{fill:url(#SVGID_00000005989657025422315760000003963372455811749260_);}
	.st197{fill:url(#SVGID_00000072266036214213278040000015523292324542444676_);}
	.st198{fill:url(#SVGID_00000070828871755896987750000005019507852507307707_);}
	.st199{fill:url(#SVGID_00000008865595812786310310000012095403077213269951_);}
	.st200{fill:url(#SVGID_00000033363757474327311060000002337698129437955724_);}
	.st201{fill:url(#SVGID_00000127743252042734661550000011845721729288352924_);}
	.st202{fill:url(#SVGID_00000120533163734275608940000001689801091791442844_);}
	.st203{fill:url(#SVGID_00000051358334075367336570000013356422049639550341_);}
	.st204{fill:url(#SVGID_00000041297280145646262030000015351242124519555991_);}
	.st205{fill:url(#SVGID_00000176763737458031517690000014570439869507260809_);}
	.st206{fill:url(#SVGID_00000044163072630190724780000009662625078189165735_);}
	.st207{fill:url(#SVGID_00000013876386603179327420000017782983303734583487_);}
	.st208{fill:url(#SVGID_00000036248636351868645770000012336012632387858363_);}
	.st209{fill:url(#SVGID_00000017512329442863905020000003809353106317250456_);}
	.st210{fill:url(#SVGID_00000094603092898065875680000001719286297077047464_);}
	.st211{fill:url(#SVGID_00000087376402313570399840000002948676317439092667_);}
	.st212{fill:url(#SVGID_00000152953786408741943350000001418800509708113598_);}
	.st213{fill:url(#SVGID_00000176721861516009361660000016586436568164707256_);}
	.st214{fill:url(#SVGID_00000150797816819335755740000002576491619873372559_);}
	.st215{fill:url(#SVGID_00000157291190992514003010000005066745788566775210_);}
	.st216{fill:url(#SVGID_00000141457445076963256210000017216106266027606676_);}
	.st217{fill:url(#SVGID_00000133496410494857719920000003399072261204889478_);}
	.st218{fill:url(#SVGID_00000065794545907763160450000018201587996154774402_);}
	.st219{fill:url(#SVGID_00000122678707271649865320000006646791158231355264_);}
	.st220{fill:url(#SVGID_00000016061440343916322650000003625455687466404789_);}
	.st221{fill:url(#SVGID_00000121250572485061979300000015073032841310393737_);}
	.st222{fill:url(#SVGID_00000011752247173273888980000004923926356181064097_);}
	.st223{fill:url(#SVGID_00000141433601131453618000000016568916614627763872_);}
	.st224{fill:url(#SVGID_00000098202179841114621930000010553215119163713471_);}
	.st225{fill:url(#SVGID_00000026121347861850685990000012607454153665441715_);}
	.st226{fill:url(#SVGID_00000154394922009756446700000012490977991280302248_);}
	.st227{fill:url(#SVGID_00000026142755101261028410000014784654213325834652_);}
	.st228{fill:url(#SVGID_00000158745545319975630480000011660465024756286126_);}
	.st229{fill:url(#SVGID_00000091695875628024600420000004444450206304184714_);}
	.st230{fill:url(#SVGID_00000018933470040796943280000014872822149061838256_);}
	.st231{fill:url(#SVGID_00000155853270410109005740000012377819231930409905_);}
	.st232{fill:url(#SVGID_00000062890540381903110160000005678144230314270136_);}
	.st233{fill:url(#SVGID_00000026880974937022545640000016635144171997458062_);}
	.st234{fill:url(#SVGID_00000117653905017751741340000014320608270758533264_);}
	.st235{fill:url(#SVGID_00000021814813170047905660000011452914072358997635_);}
	.st236{fill:url(#SVGID_00000023242609797478986100000014650447042701285289_);}
	.st237{fill:url(#SVGID_00000095303139819263946420000002632368920812055485_);}
	.st238{fill:url(#SVGID_00000163046129297928098020000015810727692413794457_);}
	.st239{fill:url(#SVGID_00000063594983723487826750000006359340632171382172_);}
	.st240{fill:url(#SVGID_00000035525599089988439490000014391234630639110051_);}
	.st241{fill:url(#SVGID_00000066517403513744517980000014396238192670099859_);}
	.st242{fill:url(#SVGID_00000005970422645492322560000002274348855531281026_);}
	.st243{fill:url(#SVGID_00000078003617037117371740000013009715232695320494_);}
	.st244{fill:url(#SVGID_00000052790121107086381270000008595588830001334696_);}
	.st245{fill:url(#SVGID_00000000928691467633716870000009564264523544181949_);}
	.st246{fill:url(#SVGID_00000078020314771690288980000008071174164196143026_);}
	.st247{fill:url(#SVGID_00000178899298800276386930000011437984256376336562_);}
	.st248{fill:url(#SVGID_00000161612524827195669510000001847486121356263855_);}
	.st249{fill:url(#SVGID_00000137123137906283096260000011070532730925512614_);}
	.st250{fill:url(#SVGID_00000134951871721143257960000010647698071767574431_);}
	.st251{fill:url(#SVGID_00000166673146650289806310000015050662833345052842_);}
	.st252{fill:url(#SVGID_00000044879851396237601870000008848273238000194435_);}
	.st253{fill:url(#SVGID_00000117656379784451791930000007861184935203857027_);}
	.st254{fill:url(#SVGID_00000081605736295777733600000001757970703089055668_);}
	.st255{fill:url(#SVGID_00000103233317991189890000000012629972278423669906_);}
	.st256{fill:url(#SVGID_00000140705677102301180180000002765376015899248021_);}
	.st257{fill:url(#SVGID_00000073689701973302134760000014780216602537519772_);}
	.st258{fill:url(#SVGID_00000092440380785666960630000011017691620743505563_);}
	.st259{fill:url(#SVGID_00000021828493323674962790000006771558848259217033_);}
	.st260{fill:url(#SVGID_00000074402433167546983810000005900502929490714797_);}
	.st261{fill:url(#SVGID_00000087413308302777956100000005940374501311275913_);}
	.st262{fill:url(#SVGID_00000119818658411705314450000006000403450646291593_);}
	.st263{fill:url(#SVGID_00000144311665300325126620000002058894252855184563_);}
	.st264{fill:url(#SVGID_00000140702892202535459470000018313004326309466787_);}
	.st265{fill:url(#SVGID_00000129905875410383761880000011453838302026975129_);}
	.st266{fill:url(#SVGID_00000096762954212577712200000010071996998348290712_);}
	.st267{fill:url(#SVGID_00000164486136337333643710000012336858128871871891_);}
	.st268{fill:url(#SVGID_00000181074986453469110270000004281988142336140174_);}
	.st269{fill:url(#SVGID_00000126286223705703277020000016437388949464489628_);}
	.st270{fill:url(#SVGID_00000153695591219136351330000015700427652990664832_);}
	.st271{fill:url(#SVGID_00000034091618606263340660000018279486584181492135_);}
	.st272{fill:url(#SVGID_00000181060268597360572210000006484349299978918026_);}
	.st273{fill:url(#SVGID_00000054976690678509670370000013572377177595779766_);}
	.st274{fill:url(#SVGID_00000002360419495789898760000015740556300766600608_);}
	.st275{fill:url(#SVGID_00000081647949448737367550000001206357452004762276_);}
	.st276{fill:url(#SVGID_00000025427003421973030690000012871224762934725812_);}
	.st277{fill:url(#SVGID_00000060726139016306038580000016079716870346832285_);}
	.st278{fill:url(#SVGID_00000039095331569023225720000006876716822912023743_);}
	.st279{fill:url(#SVGID_00000045620329675018708990000002141508838836123779_);}
	.st280{fill:url(#SVGID_00000111176626693913449740000009157711455239070631_);}
	.st281{fill:url(#SVGID_00000075129631416826434600000007858465621995485610_);}
	.st282{fill:url(#SVGID_00000051356280737256558020000002609708420159738810_);}
	.st283{fill:url(#SVGID_00000129922335122671635650000011384027636179108236_);}
	.st284{fill:url(#SVGID_00000070117112267990049780000009533907152652176264_);}
	.st285{fill:url(#SVGID_00000140726706038405177570000017363823446759338684_);}
	.st286{fill:url(#SVGID_00000008854808935113293760000000261449555365912248_);}
	.st287{fill:url(#SVGID_00000183231684842140716530000004086562467284262043_);}
	.st288{fill:url(#SVGID_00000090996610166871147150000010420147670235346606_);}
	.st289{fill:url(#SVGID_00000171709464545449704630000012794998297336522168_);}
	.st290{fill:url(#SVGID_00000107552246035603841080000007139485157444305552_);}
	.st291{fill:url(#SVGID_00000035506690692878512780000009215201909328193460_);}
	.st292{fill:url(#SVGID_00000117637561576634766070000011831933389876553108_);}
	.st293{fill:url(#SVGID_00000104690597003761693540000006500505758023251899_);}
	.st294{fill:url(#SVGID_00000009558427809486171060000002390183943388427691_);}
	.st295{fill:url(#SVGID_00000016753936001320657530000000876563641510889111_);}
	.st296{fill:url(#SVGID_00000139262981461301570750000008643807222017906095_);}
	.st297{fill:url(#SVGID_00000061430315300338637240000009629954229586289312_);}
	.st298{fill:url(#SVGID_00000021091999322304548540000007051495545449446789_);}
	.st299{fill:url(#SVGID_00000034071090706005329720000009850234938636652436_);}
	.st300{fill:url(#SVGID_00000083800117377016225140000017374336413798547864_);}
	.st301{fill:url(#SVGID_00000178169500261127895120000001855080006950919097_);}
	.st302{fill:url(#SVGID_00000026867108711065660680000009889158888953005725_);}
	.st303{fill:url(#SVGID_00000063603703293310515690000001921652009921063313_);}
	.st304{fill:url(#SVGID_00000080919043399579921000000003940346399184202118_);}
	.st305{fill:url(#SVGID_00000067204857707485234100000012282644190662979213_);}
	.st306{fill:url(#SVGID_00000168833951606413806550000005731738000179826072_);}
	.st307{fill:url(#SVGID_00000010287255793522093360000004834531490171237032_);}
	.st308{fill:url(#SVGID_00000119819400134036557830000015762079488900128438_);}
	.st309{fill:url(#SVGID_00000066481472460298220950000015305706098048919222_);}
	.st310{fill:url(#SVGID_00000057132800001005787920000004171465375248750730_);}
	.st311{fill:url(#SVGID_00000053534191098125479200000010411856808169794747_);}
	.st312{fill:url(#SVGID_00000001626252007774307360000010355776742079278210_);}
	.st313{fill:url(#SVGID_00000100382046335282014860000006321138369201083578_);}
	.st314{fill:url(#SVGID_00000096054278814077711970000000344459460762090635_);}
	.st315{fill:url(#SVGID_00000006708323700248801620000015048224243272387730_);}
	.st316{fill:url(#SVGID_00000062893829187803959960000009694061536021458341_);}
	.st317{fill:url(#SVGID_00000026133057488408940740000005315746967612961409_);}
	.st318{fill:url(#SVGID_00000142879060927715844960000000177953976918050697_);}
	.st319{fill:url(#SVGID_00000103945298242842974500000015030796619803921077_);}
	.st320{fill:url(#SVGID_00000005249536184880742040000012997998136002332053_);}
</style>
<g>
	<g>
		<g>
			<linearGradient id="SVGID_1_" gradientUnits="userSpaceOnUse" x1="6.9818" y1="208.9976" x2="3845.9817" y2="208.9976">
				<stop  offset="0" style="stop-color:#FF2422"/>
				<stop  offset="1" style="stop-color:#C24FFF"/>
			</linearGradient>
			<path class="st1" d="M111.87,13.72L6.98,404.27h130.56L242.43,13.72H111.87z M547.05,13.72l-50.21,186.35L408.13,13.72H285.94
				L181.05,404.27h129.44l52.45-194.16l92.62,194.16H571.6L676.49,13.72H547.05z M1010.12,63.94
				c-29.57-29.57-76.99-50.21-152.87-50.21H718.88L613.99,404.27H783.6c90.38,0,157.89-25.11,204.76-71.97
				c41.84-41.84,64.16-95.41,64.16-153.99C1052.52,130.89,1039.13,92.95,1010.12,63.94z M891.83,258.65
				c-20.09,20.09-54.12,31.8-93.73,31.8h-22.87l43.52-162.92h21.76c31.24,0,50.77,7.25,63.05,19.53
				c10.04,10.04,16.18,23.99,16.18,45.19C919.73,216.25,908.01,242.47,891.83,258.65z M1136.19,13.72L1031.3,404.27h130.56
				l104.89-390.55H1136.19z M1205.37,404.27h335.87l28.45-107.12h-207.55l11.72-42.4h190.81l25.11-94.29h-190.81l10.6-39.61h204.76
				l29.01-107.12h-333.08L1205.37,404.27z M1971.95,173.29l-21.2,83.69h64.16l-12.83,41.84c-8.93,3.91-20.09,6.14-34.03,6.14
				c-40.73,0-75.88-23.99-75.88-72.53c0-63.05,44.08-113.82,118.28-113.82c34.59,0,68.07,14.51,90.38,35.15l81.46-83.69
				c-26.78-32.92-89.83-64.72-163.47-64.72c-157.34,0-257.76,105.45-257.76,233.21c0,122.74,95.96,174.07,193.04,174.07
				c56.35,0,111.59-17.3,150.08-40.17l55.79-199.18H1971.95z M2376.99,10.93l-270.04,393.34h142.27l34.03-52.44h136.69l6.7,52.44
				h138.92l-59.14-393.34H2376.99z M2341.28,259.21l60.81-94.85l10.6,94.85H2341.28z M2976.19,13.72l-120.51,137.25l-46.87-137.25
				h-128.88l-104.89,390.55h127.77l51.89-193.6l52.45,138.92h2.23l127.21-138.92l-51.89,193.6h130l104.89-390.55H2976.19z
				 M3225.58,254.75h190.81l25.11-94.29h-190.81l10.6-39.61h204.76l29.01-107.12h-333.08l-104.89,390.55h335.87l28.45-107.12
				h-207.55L3225.58,254.75z M3692.55,159.9c-54.12-20.09-62.49-22.32-62.49-34.03c0-11.16,11.72-15.62,28.45-15.62
				c41.29,0,83.13,19.53,112.7,43.52l74.76-89.27c-42.4-36.27-104.33-58.58-174.07-58.58c-106.56,0-175.75,61.37-175.75,136.69
				c0,57.47,34.03,83.13,106.56,109.91c56.91,21.2,64.16,25.11,64.16,37.38c0,11.16-11.72,17.3-28.45,17.3
				c-41.29,0-87.04-17.85-131.67-55.24L3432,341.23c47.42,42.96,114.93,70.86,192.49,70.86c112.14,0,176.86-61.37,176.86-140.04
				C3801.35,212.35,3758.95,184.45,3692.55,159.9z"/>
		</g>
	</g>
	<g>
		<g>
			<g>
				
					<linearGradient id="SVGID_00000178884074835024157880000017589892941371508620_" gradientUnits="userSpaceOnUse" x1="124.7049" y1="404.2726" x2="124.7049" y2="13.7227">
					<stop  offset="0" style="stop-color:#FF0000"/>
					<stop  offset="0.2634" style="stop-color:#E42372"/>
					<stop  offset="0.3192" style="stop-color:#FFA1FF"/>
					<stop  offset="0.4267" style="stop-color:#DA2F9A"/>
					<stop  offset="0.7554" style="stop-color:#CC41D4"/>
					<stop  offset="0.7881" style="stop-color:#FFA1FF"/>
					<stop  offset="0.8413" style="stop-color:#C846E3"/>
					<stop  offset="1" style="stop-color:#C24FFF"/>
				</linearGradient>
				<path style="fill:url(#SVGID_00000178884074835024157880000017589892941371508620_);" d="M228.46,24.43l-99.14,369.13H20.95
					l99.14-369.13H228.46 M242.43,13.72H111.87L6.98,404.27h130.56L242.43,13.72L242.43,13.72z"/>
			</g>
			<g>
				
					<linearGradient id="SVGID_00000162341652202380004930000014567561726013535673_" gradientUnits="userSpaceOnUse" x1="428.7696" y1="404.2726" x2="428.7696" y2="13.7227">
					<stop  offset="0" style="stop-color:#FF0000"/>
					<stop  offset="0.2634" style="stop-color:#E42372"/>
					<stop  offset="0.3192" style="stop-color:#FFA1FF"/>
					<stop  offset="0.4267" style="stop-color:#DA2F9A"/>
					<stop  offset="0.7554" style="stop-color:#CC41D4"/>
					<stop  offset="0.7881" style="stop-color:#FFA1FF"/>
					<stop  offset="0.8413" style="stop-color:#C846E3"/>
					<stop  offset="1" style="stop-color:#C24FFF"/>
				</linearGradient>
				<path style="fill:url(#SVGID_00000162341652202380004930000014567561726013535673_);" d="M662.53,24.43l-99.14,369.13H462.31
					L372.6,205.5l-12.46-26.12l-7.55,27.93l-50.31,186.24H195.01l99.14-369.13h107.21l85.8,180.24l12.46,26.18l7.54-28l48.08-178.43
					H662.53 M676.49,13.72H547.05l-50.21,186.35L408.13,13.72H285.94L181.05,404.27h129.44l52.45-194.16l92.62,194.16H571.6
					L676.49,13.72L676.49,13.72z"/>
			</g>
			<g>
				
					<linearGradient id="SVGID_00000097482178145841883720000016573366719899700132_" gradientUnits="userSpaceOnUse" x1="833.252" y1="404.2726" x2="833.252" y2="13.7227">
					<stop  offset="0" style="stop-color:#FF0000"/>
					<stop  offset="0.2634" style="stop-color:#E42372"/>
					<stop  offset="0.3192" style="stop-color:#FFA1FF"/>
					<stop  offset="0.4267" style="stop-color:#DA2F9A"/>
					<stop  offset="0.7554" style="stop-color:#CC41D4"/>
					<stop  offset="0.7881" style="stop-color:#FFA1FF"/>
					<stop  offset="0.8413" style="stop-color:#C846E3"/>
					<stop  offset="1" style="stop-color:#C24FFF"/>
				</linearGradient>
				<path style="fill:url(#SVGID_00000097482178145841883720000016573366719899700132_);" d="M857.24,24.43
					c34.73,0,65.09,4.51,90.23,13.4c21.97,7.77,40.5,19.1,55.07,33.67c26.42,26.42,39.27,61.36,39.27,106.8
					c0,55.86-21.1,106.49-61.03,146.42c-22.46,22.46-50.08,39.63-82.08,51.05c-33.11,11.8-71.83,17.79-115.1,17.79H627.95
					l99.14-369.13H857.24 M761.28,301.16h13.94h22.87c42.18,0,79.1-12.73,101.3-34.94c18.85-18.85,31.03-47.89,31.03-73.96
					c0-22.51-6.32-39.77-19.32-52.76c-15.25-15.25-38.35-22.66-70.62-22.66h-21.76h-8.22l-2.12,7.94l-43.52,162.92L761.28,301.16
					 M857.24,13.72H718.88L613.99,404.27H783.6c90.38,0,157.89-25.11,204.76-71.97c41.84-41.84,64.16-95.41,64.16-153.99
					c0-47.42-13.39-85.36-42.4-114.38C980.55,34.37,933.12,13.72,857.24,13.72L857.24,13.72z M775.23,290.46l43.52-162.92h21.76
					c31.24,0,50.77,7.25,63.05,19.53c10.04,10.04,16.18,23.99,16.18,45.19c0,23.99-11.72,50.21-27.9,66.39
					c-20.09,20.09-54.12,31.8-93.73,31.8H775.23L775.23,290.46z"/>
			</g>
			<g>
				
					<linearGradient id="SVGID_00000054227822039025386620000012318748169362217624_" gradientUnits="userSpaceOnUse" x1="1149.0245" y1="404.2726" x2="1149.0245" y2="13.7227">
					<stop  offset="0" style="stop-color:#FF0000"/>
					<stop  offset="0.2634" style="stop-color:#E42372"/>
					<stop  offset="0.3192" style="stop-color:#FFA1FF"/>
					<stop  offset="0.4267" style="stop-color:#DA2F9A"/>
					<stop  offset="0.7554" style="stop-color:#CC41D4"/>
					<stop  offset="0.7881" style="stop-color:#FFA1FF"/>
					<stop  offset="0.8413" style="stop-color:#C846E3"/>
					<stop  offset="1" style="stop-color:#C24FFF"/>
				</linearGradient>
				<path style="fill:url(#SVGID_00000054227822039025386620000012318748169362217624_);" d="M1252.78,24.43l-99.14,369.13h-108.38
					l99.14-369.13H1252.78 M1266.75,13.72h-130.56L1031.3,404.27h130.56L1266.75,13.72L1266.75,13.72z"/>
			</g>
			<g>
				
					<linearGradient id="SVGID_00000052079157766618635090000012958423974057741445_" gradientUnits="userSpaceOnUse" x1="1424.3563" y1="404.2726" x2="1424.3563" y2="13.7227">
					<stop  offset="0" style="stop-color:#FF0000"/>
					<stop  offset="0.2634" style="stop-color:#E42372"/>
					<stop  offset="0.3192" style="stop-color:#FFA1FF"/>
					<stop  offset="0.4267" style="stop-color:#DA2F9A"/>
					<stop  offset="0.7554" style="stop-color:#CC41D4"/>
					<stop  offset="0.7881" style="stop-color:#FFA1FF"/>
					<stop  offset="0.8413" style="stop-color:#C846E3"/>
					<stop  offset="1" style="stop-color:#C24FFF"/>
				</linearGradient>
				<path style="fill:url(#SVGID_00000052079157766618635090000012958423974057741445_);" d="M1629.35,24.43l-23.21,85.71h-196.57
					h-8.22l-2.12,7.94l-10.6,39.61l-3.61,13.48h13.95h176.88l-19.4,72.87h-182.58h-8.15l-2.17,7.86l-11.72,42.4l-3.75,13.56h14.07
					h193.63l-22.77,85.71h-313.67l99.14-369.13H1629.35 M1643.34,13.72h-333.08l-104.89,390.55h335.87l28.45-107.12h-207.55
					l11.72-42.4h190.81l25.11-94.29h-190.81l10.6-39.61h204.76L1643.34,13.72L1643.34,13.72z"/>
			</g>
			<g>
				
					<linearGradient id="SVGID_00000011716469727627616120000014672994785459187847_" gradientUnits="userSpaceOnUse" x1="1971.6677" y1="412.641" x2="1971.6677" y2="5.3541">
					<stop  offset="0" style="stop-color:#FF0000"/>
					<stop  offset="0.2634" style="stop-color:#E42372"/>
					<stop  offset="0.3192" style="stop-color:#FFA1FF"/>
					<stop  offset="0.4267" style="stop-color:#DA2F9A"/>
					<stop  offset="0.7554" style="stop-color:#CC41D4"/>
					<stop  offset="0.7881" style="stop-color:#FFA1FF"/>
					<stop  offset="0.8413" style="stop-color:#C846E3"/>
					<stop  offset="1" style="stop-color:#C24FFF"/>
				</linearGradient>
				<path style="fill:url(#SVGID_00000011716469727627616120000014672994785459187847_);" d="M2018.81,16.06
					c32.81,0,65.7,6.62,95.11,19.16c21.98,9.36,40.68,21.44,53.7,34.56l-67.48,69.33c-24.99-19.68-57.79-31.21-89.7-31.21
					c-38.36,0-71.07,12.61-94.59,36.45c-22.18,22.49-34.4,53.76-34.4,88.07c0,25.93,9.11,47.56,26.35,62.55
					c15.35,13.34,36.74,20.69,60.24,20.69c14.77,0,27.66-2.37,38.33-7.04l4.5-1.97l1.44-4.7l12.83-41.84l4.25-13.85h-14.48h-50.4
					l15.78-62.27h165.57l-50.81,181.4c-40.29,22.93-92.62,36.53-140.94,36.53c-49.44,0-94.31-13.76-126.34-38.74
					c-17.52-13.66-31.15-30.57-40.52-50.25c-10.27-21.55-15.47-46.58-15.47-74.38c0-60.51,23.63-116.17,66.53-156.74
					c21.85-20.66,47.98-36.8,77.65-47.98C1947.26,22.05,1981.87,16.06,2018.81,16.06 M2018.81,5.35
					c-157.34,0-257.76,105.45-257.76,233.21c0,122.74,95.96,174.07,193.04,174.07c56.35,0,111.59-17.3,150.08-40.17l55.79-199.18
					h-188.02l-21.2,83.69h64.16l-12.83,41.84c-8.93,3.91-20.09,6.14-34.03,6.14c-40.73,0-75.88-23.99-75.88-72.53
					c0-63.05,44.08-113.82,118.28-113.82c34.59,0,68.07,14.51,90.38,35.15l81.46-83.69C2155.5,37.15,2092.46,5.35,2018.81,5.35
					L2018.81,5.35z"/>
			</g>
			<g>
				
					<linearGradient id="SVGID_00000043449660687681749050000016366190465283867267_" gradientUnits="userSpaceOnUse" x1="2336.2595" y1="404.2726" x2="2336.2595" y2="10.9327">
					<stop  offset="0" style="stop-color:#FF0000"/>
					<stop  offset="0.2634" style="stop-color:#E42372"/>
					<stop  offset="0.3192" style="stop-color:#FFA1FF"/>
					<stop  offset="0.4267" style="stop-color:#DA2F9A"/>
					<stop  offset="0.7554" style="stop-color:#CC41D4"/>
					<stop  offset="0.7881" style="stop-color:#FFA1FF"/>
					<stop  offset="0.8413" style="stop-color:#C846E3"/>
					<stop  offset="1" style="stop-color:#C24FFF"/>
				</linearGradient>
				<path style="fill:url(#SVGID_00000043449660687681749050000016366190465283867267_);" d="M2497.21,21.64l55.92,371.92h-117.06
					l-5.5-43.09l-1.19-9.35h-9.43h-136.69h-5.82l-3.17,4.88l-30.87,47.57h-116.11l255.33-371.92H2497.21 M2321.7,269.92h19.59h71.41
					h11.97l-1.33-11.9l-10.6-94.85l-3.35-30.01l-16.3,25.42l-60.81,94.85L2321.7,269.92 M2506.43,10.93h-129.44l-270.04,393.34
					h142.27l34.03-52.44h136.69l6.7,52.44h138.92L2506.43,10.93L2506.43,10.93z M2341.28,259.21l60.81-94.85l10.6,94.85H2341.28
					L2341.28,259.21z"/>
			</g>
			<g>
				
					<linearGradient id="SVGID_00000000915793015853327670000002137550440735062970_" gradientUnits="userSpaceOnUse" x1="2847.312" y1="404.2726" x2="2847.312" y2="13.7227">
					<stop  offset="0" style="stop-color:#FF0000"/>
					<stop  offset="0.2634" style="stop-color:#E42372"/>
					<stop  offset="0.3192" style="stop-color:#FFA1FF"/>
					<stop  offset="0.4267" style="stop-color:#DA2F9A"/>
					<stop  offset="0.7554" style="stop-color:#CC41D4"/>
					<stop  offset="0.7881" style="stop-color:#FFA1FF"/>
					<stop  offset="0.8413" style="stop-color:#C846E3"/>
					<stop  offset="1" style="stop-color:#C24FFF"/>
				</linearGradient>
				<path style="fill:url(#SVGID_00000000915793015853327670000002137550440735062970_);" d="M3105.62,24.43l-99.14,369.13h-107.83
					l48.27-180.12l11.34-42.31l-29.58,32.3l-117.02,127.8l-46.94-124.35l-11.75-31.12l-8.61,32.13l-49.76,185.66h-105.59
					l99.14-369.13h113.01l44.39,130l5.98,17.5l12.2-13.9l117.31-133.61H3105.62 M3119.58,13.72h-143.39l-120.51,137.25
					l-46.87-137.25h-128.88l-104.89,390.55h127.77l51.89-193.6l52.45,138.92h2.23l127.21-138.92l-51.89,193.6h130L3119.58,13.72
					L3119.58,13.72z"/>
			</g>
			<g>
				
					<linearGradient id="SVGID_00000103251297320720439970000015153584899402325407_" gradientUnits="userSpaceOnUse" x1="3276.0703" y1="404.2726" x2="3276.0703" y2="13.7227">
					<stop  offset="0" style="stop-color:#FF0000"/>
					<stop  offset="0.2634" style="stop-color:#E42372"/>
					<stop  offset="0.3192" style="stop-color:#FFA1FF"/>
					<stop  offset="0.4267" style="stop-color:#DA2F9A"/>
					<stop  offset="0.7554" style="stop-color:#CC41D4"/>
					<stop  offset="0.7881" style="stop-color:#FFA1FF"/>
					<stop  offset="0.8413" style="stop-color:#C846E3"/>
					<stop  offset="1" style="stop-color:#C24FFF"/>
				</linearGradient>
				<path style="fill:url(#SVGID_00000103251297320720439970000015153584899402325407_);" d="M3481.06,24.43l-23.21,85.71h-196.57
					h-8.22l-2.12,7.94l-10.6,39.61l-3.61,13.48h13.95h176.88l-19.4,72.87h-182.58h-8.15l-2.17,7.86l-11.72,42.4l-3.75,13.56h14.07
					h193.63l-22.77,85.71h-313.68l99.14-369.13H3481.06 M3495.06,13.72h-333.08l-104.89,390.55h335.87l28.45-107.12h-207.55
					l11.72-42.4h190.81l25.11-94.29h-190.81l10.6-39.61h204.76L3495.06,13.72L3495.06,13.72z"/>
			</g>
			<g>
				
					<linearGradient id="SVGID_00000157268875549131862140000011868390528827646390_" gradientUnits="userSpaceOnUse" x1="3638.99" y1="412.0829" x2="3638.99" y2="5.911">
					<stop  offset="0" style="stop-color:#FF0000"/>
					<stop  offset="0.2634" style="stop-color:#E42372"/>
					<stop  offset="0.3192" style="stop-color:#FFA1FF"/>
					<stop  offset="0.4267" style="stop-color:#DA2F9A"/>
					<stop  offset="0.7554" style="stop-color:#CC41D4"/>
					<stop  offset="0.7881" style="stop-color:#FFA1FF"/>
					<stop  offset="0.8413" style="stop-color:#C846E3"/>
					<stop  offset="1" style="stop-color:#C24FFF"/>
				</linearGradient>
				<path style="fill:url(#SVGID_00000157268875549131862140000011868390528827646390_);" d="M3671.91,16.62
					c33,0,64.56,5.08,93.82,15.11c24.52,8.41,46.36,19.9,65.06,34.23l-61.18,73.05c-14.27-10.43-30.09-19.31-46.3-25.92
					c-22.05-8.99-43.85-13.56-64.79-13.56c-35.35,0-39.16,18.41-39.16,26.33c0,9.92,4.41,16.6,14.73,22.32
					c8.11,4.5,20.94,9.24,44.21,17.85c3.3,1.22,6.8,2.52,10.54,3.9c36.59,13.53,59.95,26.08,75.73,40.7
					c17.79,16.47,26.07,35.98,26.07,61.4c0,18.04-3.66,35.05-10.87,50.55c-7.23,15.55-17.88,29.25-31.66,40.74
					c-29.85,24.88-72.6,38.04-123.63,38.04c-36.31,0-71.21-6.26-103.74-18.62c-27.44-10.42-52.22-24.77-73.78-42.72l61.25-73.13
					c42.64,33.4,87.48,50.99,130.23,50.99c28.91,0,39.16-15.09,39.16-28.01c0-10.88-4.66-18.01-16.09-24.61
					c-9.5-5.49-25.32-11.73-55.07-22.81c-38.76-14.31-61.71-26.61-76.76-41.11c-15.77-15.21-22.81-33.33-22.81-58.76
					c0-34.01,15.6-65.35,43.94-88.27c14.61-11.81,32.09-21.05,51.97-27.47C3623.85,20.07,3647.11,16.62,3671.91,16.62 M3671.91,5.91
					c-106.56,0-175.75,61.37-175.75,136.69c0,57.47,34.03,83.13,106.56,109.91c56.91,21.2,64.16,25.11,64.16,37.38
					c0,11.16-11.72,17.3-28.45,17.3c-41.29,0-87.04-17.85-131.67-55.24L3432,341.23c47.42,42.96,114.93,70.86,192.49,70.86
					c112.14,0,176.86-61.37,176.86-140.04c0-59.7-42.4-87.59-108.8-112.14c-54.12-20.09-62.49-22.32-62.49-34.03
					c0-11.16,11.72-15.62,28.45-15.62c41.29,0,83.13,19.53,112.7,43.52l74.76-89.27C3803.58,28.23,3741.65,5.91,3671.91,5.91
					L3671.91,5.91z"/>
			</g>
		</g>
	</g>
</g>
</svg>
