<?xml version="1.0" encoding="utf-8"?>
<!-- Generator: Adobe Illustrator 25.2.1, SVG Export Plug-In . SVG Version: 6.00 Build 0)  -->
<svg version="1.1" id="Layer_1" xmlns="http://www.w3.org/2000/svg" xmlns:xlink="http://www.w3.org/1999/xlink" x="0px" y="0px"
	 viewBox="0 0 3838 1876.7" style="enable-background:new 0 0 3838 1876.7;" xml:space="preserve">
<style type="text/css">
	.st0{fill:#FFFFFF;}
</style>
<g>
	<g>
		<g>
			<path d="M528,1361.6c-83.5,0-219.9,0-219.9,0v215.2h68.2v-143.5c0-9.4,7.1-16.5,16.5-16.5h117.6c9.4,0,16.5,7.1,16.5,16.5v143.5
				H595v-143.5C595,1432.2,605.6,1361.6,528,1361.6z"/>
			<path d="M2427,1361.6c-80,0-219.9,0-219.9,0v215.2h69.4v-143.5c0-9.4,7.1-16.5,15.3-16.5h118.8c9.4,0,16.5,7.1,16.5,16.5v143.5
				h68.2v-143.5C2495.2,1432.2,2504.6,1361.6,2427,1361.6z"/>
			<path d="M3460.5,1361.6c-80,0-219.9,0-219.9,0v215.2h68.2v-143.5c0-9.4,7.1-16.5,16.5-16.5h118.8c9.4,0,16.5,7.1,16.5,16.5v143.5
				h68.2v-143.5C3529.9,1432.2,3539.3,1361.6,3460.5,1361.6z"/>
			<path d="M625.6,1415.7h75.3c7.1,0,16.5,7.1,16.5,16.5v143.5h72.9v-143.5c0-9.4,7.1-16.5,16.5-16.5h75.3v-54.1H625.6L625.6,1415.7
				L625.6,1415.7z"/>
			<path d="M3559.3,1361.6v54.1h75.3c9.4,0,16.5,7.1,16.5,16.5v143.5h76.4v-143.5c0-9.4,5.9-16.5,15.3-16.5h75.3v-54.1H3559.3z"/>
			<path d="M1492.2,1415.7h75.3c9.4,0,16.5,7.1,16.5,16.5v143.5h75.3v-143.5c0-9.4,7.1-16.5,16.5-16.5h75.3v-54.1h-261v54.1H1492.2z
				"/>
			<rect x="2089.5" y="1361.6" width="72.9" height="215.2"/>
			<path d="M1970.7,1361.6h-119.9c-77.6,0-71.7,71.7-71.7,71.7v9.4V1578h69.4v-54.1h122.3v54.1h69.4v-135.2v-9.4
				C2042.5,1432.2,2050.7,1361.6,1970.7,1361.6z M1971.9,1467.5h-122.3v-25.9v-11.8c0-5.9,9.4-14.1,14.1-14.1h92.9
				c10.6,0,16.5,7.1,16.5,14.1v11.8L1971.9,1467.5L1971.9,1467.5z"/>
			<path d="M1392.2,1361.6h-194v78.8v136.4h71.7v-41.2c0-9.4,5.9-14.1,15.3-14.1h95.2c4.7,0,14.1,7.1,14.1,14.1v41.2h68.2v-32.9
				c0,0,5.9-30.6-25.9-51.7c21.2-15.3,28.2-37.6,30.6-51.7c1.2-5.9,1.2-10.6,1.2-10.6S1468.6,1361.6,1392.2,1361.6z M1394.6,1451
				c0,10.6-4.7,16.5-14.1,16.5h-99.9c-4.7,0-10.6-5.9-10.6-16.5v-10.6v-10.6c0-9.4,5.9-16.5,15.3-16.5h95.2
				c9.4,0,14.1,4.7,14.1,16.5v10.6L1394.6,1451L1394.6,1451z"/>
			<path d="M22.3,1505.1c0,0-7.1,71.7,71.7,71.7h169.3v-54.1H105.8c-10.6,0-20-9.4-20-17.6c0-10.6,7.1-16.5,20-16.5H254V1451H102.3
				c-9.4,0-16.5-7.1-16.5-16.5c0-9.4,7.1-16.5,16.5-16.5h161.1V1364H22.3V1505.1z"/>
			<path d="M916,1505.1c0,0-10.6,71.7,68.2,71.7h169.3v-54.1H996c-10.6,0-20-9.4-20-17.6c0-10.6,9.4-16.5,20-16.5h148.2V1451H996
				c-10.6,0-20-7.1-20-16.5c0-9.4,9.4-16.5,20-16.5h157.6V1364H916V1505.1z"/>
			<path d="M2957.3,1505.1c0,0-7.1,71.7,69.4,71.7h171.7v-54.1h-158.7c-9.4,0-17.6-9.4-17.6-17.6c0-10.6,5.9-16.5,16.5-16.5h148.2
				V1451h-148.2c-10.6,0-16.5-7.1-16.5-16.5c0-9.4,5.9-16.5,16.5-16.5h159.9V1364h-241.1V1505.1z"/>
			<path d="M2845.6,1361.6c-80,0-304.5,0-304.5,0v215.2h63.5v-143.5c0-9.4,7.1-16.5,16.5-16.5h51.7c9.4,0,16.5,7.1,16.5,16.5v143.5
				h71.7v-143.5c0-9.4,5.9-16.5,16.5-16.5h54.1c5.9,0,14.1,7.1,14.1,16.5l3.5,143.5h68.2v-143.5
				C2916.1,1433.4,2925.5,1361.6,2845.6,1361.6z"/>
		</g>
		<g>
			<g>
				<path d="M1876.7,1715.6h77.6c5.9,0,14.1,7.1,14.1,16.5v143.5h75.3l3.5-143.5c0-9.4,4.7-16.5,14.1-16.5h75.3v-54.1h-258.7
					L1876.7,1715.6L1876.7,1715.6z"/>
				<path d="M2751.5,1661.5c-80,0-304.5,0-304.5,0v215.2h63.5v-143.5c0-9.4,7.1-16.5,16.5-16.5h51.7c9.4,0,16.5,7.1,16.5,16.5v143.5
					h70.6v-143.5c0-9.4,5.9-16.5,16.5-16.5h54.1c5.9,0,14.1,7.1,14.1,16.5l3.5,143.5h68.2v-143.5
					C2824.4,1732,2831.5,1661.5,2751.5,1661.5z"/>
				<path d="M1565.1,1661.5h-64.7v80c0,9.4-9.4,16.5-16.5,16.5h-96.4c-9.4,0-16.5-7.1-16.5-16.5v-80h-68.2v78.8
					c0,0-7.1,72.9,71.7,72.9h22.3v63.5h75.3v-63.5h25.9c78.8,0,68.2-71.7,68.2-71.7v-80L1565.1,1661.5L1565.1,1661.5z"/>
				<path d="M2163.6,1804.9c0,0-10.6,71.7,68.2,71.7h169.3v-54.1h-157.6c-10.6,0-20-7.1-20-17.6s9.4-15.3,20-15.3h148.2V1752h-148.2
					c-10.6,0-20-9.4-20-18.8s9.4-16.5,20-16.5h157.6v-54.1h-237.5V1804.9z"/>
				<path d="M1782.6,1749.7h-101.1c-11.8,0-20-4.7-20-15.3c0-9.4,7.1-17.6,16.5-17.6h172.9v-54.1h-189.3
					c-35.3,0-64.7,29.4-64.7,62.3c0,47,30.6,64.7,71.7,64.7h101.1c10.6,0,21.2,4.7,21.2,15.3c0,9.4-7.1,17.6-16.5,17.6h-177.6v54.1
					h194c31.7,0,64.7-25.9,64.7-62.3C1855.5,1770.8,1820.2,1749.7,1782.6,1749.7z"/>
				<path d="M1204.1,1749.7h-98.8c-11.8,0-21.2-4.7-21.2-15.3c0-9.4,9.4-17.6,17.6-17.6h172.9v-54.1h-189.3
					c-37.6,0-68.2,29.4-68.2,62.3c0,47,32.9,64.7,74.1,64.7h98.8c11.8,0,21.2,4.7,21.2,15.3c0,9.4-9.4,17.6-17.6,17.6h-175.2v54.1
					h194c35.3,0,67-25.9,67-62.3C1279.3,1770.8,1245.2,1749.7,1204.1,1749.7z"/>
			</g>
		</g>
	</g>
	<g>
		<g>
			<g>
				<path class="st0" d="M3247.7,1124.1H589.1C252.8,1124.1,0,883.1,0,563.2C0,242.2,252.8,0,587.9,0h2661
					C3585.2,0,3838,242.2,3838,563.2C3839.2,883.1,3584,1124.1,3247.7,1124.1z"/>
			</g>
		</g>
		<g>
			<path d="M786.6,644.4L606.7,352.8H476.2v417.4h129.3V478.6l181.1,291.6H916V352.8H786.6V644.4z M1809.6,492.7v-41.2h-68.2v-56.4
				h-125.8v56.4h-68.2v41.2h68.2v277.5h125.8V492.7H1809.6z M987.7,770.2h125.8V492.7H987.7V770.2z M987.7,437.4h125.8v-85.8H987.7
				V437.4z M3186.6,473.9c-101.1,0-183.4,69.4-183.4,156.4c0,85.8,82.3,156.4,183.4,156.4c101.1,0,183.4-69.4,183.4-156.4
				S3290,473.9,3186.6,473.9z M3237.1,687.9c0,44.7-25.9,62.3-51.7,62.3c-24.7,0-51.7-18.8-51.7-62.3c0-16.5,0-60,0-60
				s0-41.2,0-57.6c0-43.5,25.9-62.3,51.7-62.3c24.7,0,51.7,17.6,51.7,62.3c0,16.5,0,48.2,0,58.8
				C3237.1,630.3,3237.1,671.4,3237.1,687.9z M2839.7,506.8c-20-11.8-41.2-22.3-70.6-24.7c-90.5-8.2-159.9,71.7-159.9,145.8
				c0,96.4,74.1,132.9,85.8,137.6c42.3,20,96.4,20,144.6-10.6c0,2.4,0,16.5,0,16.5h123.5V353.9h-123.5
				C2839.7,352.8,2839.7,442.1,2839.7,506.8z M2839.7,630.3c0,0,0,31.7,0,49.4c0,42.3-29.4,54.1-49.4,54.1s-49.4-11.8-49.4-54.1
				c0-15.3,0-49.4,0-49.4s0-35.3,0-49.4c0-43.5,29.4-54.1,49.4-54.1s49.4,10.6,49.4,54.1C2839.7,595,2839.7,630.3,2839.7,630.3z
				 M1407.5,479.7c-41.2,1.2-76.4,18.8-99.9,42.3c0-7.1,0-29.4,0-29.4h-124.6v277.5h124.6c0,0,0-170.5,0-182.3
				c0-24.7,25.9-50.6,60-50.6c34.1,0,57.6,27,57.6,50.6c0,17.6,0,182.3,0,182.3h124.6c0,0,0-131.7,0-150.5
				C1549.8,509.1,1454.5,478.6,1407.5,479.7z M2428.1,479.7c-41.2,1.2-76.4,18.8-99.9,42.3c0-7.1,0-29.4,0-29.4h-124.6v277.5h124.6
				c0,0,0-170.5,0-182.3c0-24.7,25.9-50.6,60-50.6s57.6,27,57.6,50.6c0,17.6,0,182.3,0,182.3h124.6c0,0,0-131.7,0-150.5
				C2569.2,509.1,2474,478.6,2428.1,479.7z M2163.6,632.6c0-85.8-83.5-157.6-185.8-157.6s-184.6,69.4-184.6,156.4
				c0,85.8,82.3,156.4,184.6,156.4c84.7,0,156.4-48.2,178.7-114.1h-124.6c0,0,0,1.2,0,16.5c0,50.6-32.9,62.3-51.7,62.3
				c-18.8,0-52.9-11.8-52.9-62.3c0-15.3,0-57.6,0-57.6H2163.6z M1936.6,535c9.4-17.6,28.2-24.7,44.7-25.9c16.5,0,34.1,8.2,44.7,25.9
				c8.2,14.1,8.2,30.6,8.2,54.1h-104.7C1927.2,564.4,1927.2,549.1,1936.6,535z M3421.7,404.5c0-14.1-10.6-20-30.6-20H3363v71.7h17.6
				v-29.4h8.2l14.1,29.4h18.8l-15.3-31.7C3415.9,421,3421.7,413.9,3421.7,404.5z M3388.8,415.1h-8.2v-21.2h7.1
				c10.6,0,15.3,3.5,15.3,10.6C3404.1,412.7,3398.2,415.1,3388.8,415.1z M3388.8,356.3c-35.3,0-64.7,28.2-64.7,64.7
				c0,35.3,29.4,64.7,64.7,64.7c35.3,0,64.7-29.4,64.7-64.7C3453.5,384.5,3424.1,356.3,3388.8,356.3z M3388.8,472.7
				c-28.2,0-51.7-23.5-51.7-51.7s23.5-51.7,51.7-51.7s51.7,23.5,51.7,51.7S3418.2,472.7,3388.8,472.7z M3248.9,118.8H589.1
				c-281-1.2-470.3,202.2-470.3,444.5s188.1,442.1,471.5,442.1h2658.6c282.2,0,471.5-199.9,471.5-442.1
				C3719.2,319.8,3529.9,117.6,3248.9,118.8z M3247.7,897.2H590.3c-224.6,1.2-361-149.3-361-335.1s137.6-333.9,361-335.1h2657.4
				c223.4,0,361,149.3,361,335.1S3471.1,897.2,3247.7,897.2z M3248.9,118.8H589.1c-281-1.2-470.3,202.2-470.3,444.5
				s188.1,442.1,471.5,442.1h2658.6c282.2,0,471.5-199.9,471.5-442.1C3719.2,319.8,3529.9,117.6,3248.9,118.8z M3247.7,897.2H590.3
				c-224.6,1.2-361-149.3-361-335.1s137.6-333.9,361-335.1h2657.4c223.4,0,361,149.3,361,335.1S3471.1,897.2,3247.7,897.2z
				 M3248.9,118.8H589.1c-281-1.2-470.3,202.2-470.3,444.5s188.1,442.1,471.5,442.1h2658.6c282.2,0,471.5-199.9,471.5-442.1
				C3719.2,319.8,3529.9,117.6,3248.9,118.8z M3247.7,897.2H590.3c-224.6,1.2-361-149.3-361-335.1s137.6-333.9,361-335.1h2657.4
				c223.4,0,361,149.3,361,335.1S3471.1,897.2,3247.7,897.2z"/>
		</g>
	</g>
</g>
</svg>
