<?xml version="1.0" encoding="utf-8"?>
<!-- Generator: Adobe Illustrator 25.0.0, SVG Export Plug-In . SVG Version: 6.00 Build 0)  -->
<svg version="1.1" id="Layer_1" xmlns="http://www.w3.org/2000/svg" xmlns:xlink="http://www.w3.org/1999/xlink" x="0px" y="0px"
	 viewBox="0 0 3839 1844.2" style="enable-background:new 0 0 3839 1844.2;" xml:space="preserve">
<style type="text/css">
	.st0{fill:url(#SVGID_1_);}
	.st1{fill:url(#SVGID_2_);}
	.st2{fill:url(#SVGID_3_);}
	.st3{fill:url(#SVGID_4_);}
	.st4{fill:url(#SVGID_5_);}
	.st5{fill:url(#SVGID_6_);}
	.st6{fill:url(#SVGID_7_);}
	.st7{fill:url(#SVGID_8_);}
	.st8{fill:url(#SVGID_9_);}
	.st9{fill:url(#SVGID_10_);}
	.st10{fill:url(#SVGID_11_);}
	.st11{fill:url(#SVGID_12_);}
	.st12{fill:url(#SVGID_13_);}
	.st13{fill:url(#SVGID_14_);}
	.st14{fill:url(#SVGID_15_);}
	.st15{fill:url(#SVGID_16_);}
	.st16{fill:url(#SVGID_17_);}
	.st17{fill:url(#SVGID_18_);}
	.st18{fill:url(#SVGID_19_);}
	.st19{fill:url(#SVGID_20_);}
	.st20{fill:url(#SVGID_21_);}
	.st21{fill:url(#SVGID_22_);}
	.st22{fill:url(#SVGID_23_);}
	.st23{fill:url(#SVGID_24_);}
	.st24{fill:url(#SVGID_25_);}
	.st25{fill:#FFFFFF;}
	.st26{fill:url(#SVGID_26_);}
	.st27{fill:url(#SVGID_27_);}
	.st28{fill:url(#SVGID_28_);}
	.st29{fill:url(#SVGID_29_);}
	.st30{fill:url(#SVGID_30_);}
	.st31{fill:url(#SVGID_31_);}
	.st32{fill:url(#SVGID_32_);}
	.st33{fill:url(#SVGID_33_);}
	.st34{fill:url(#SVGID_34_);}
	.st35{fill:url(#SVGID_35_);}
	.st36{fill:url(#SVGID_36_);}
	.st37{fill:url(#SVGID_37_);}
	.st38{fill:url(#SVGID_38_);}
	.st39{fill:url(#SVGID_39_);}
	.st40{fill:url(#SVGID_40_);}
	.st41{fill:url(#SVGID_41_);}
	.st42{fill:url(#SVGID_42_);}
	.st43{fill:url(#SVGID_43_);}
	.st44{fill:url(#SVGID_44_);}
	.st45{fill:url(#SVGID_45_);}
	.st46{fill:url(#SVGID_46_);}
	.st47{fill:url(#SVGID_47_);}
	.st48{fill:url(#SVGID_48_);}
	.st49{fill:url(#SVGID_49_);}
	.st50{fill:url(#SVGID_50_);}
</style>
<g>
	<g>
		<g>
			<polygon points="575.7,1463.4 382.6,1309.9 654.9,1309.9 800.5,1048.3 800.5,1309.9 1218,1309.9 1218,0 0,1844.2 355.5,1844.2 
							"/>
			<polygon points="811.1,1511 900.4,1776.6 1218,1776.6 1218,1511 			"/>
			<g>
				<polygon points="3825.1,1339.4 3825.1,1328.2 1164.2,1321.4 1105.8,1346.4 				"/>
				<polygon points="3825.1,1377.5 3825.1,1366.3 1075.7,1359.3 1016.3,1384.7 				"/>
				<polygon points="3825.1,1415.6 3825.1,1404.4 987.2,1397.1 926.7,1423 				"/>
				<polygon points="3825.1,1453.6 3825.1,1442.5 898.6,1435 837.1,1461.3 				"/>
				<polygon points="807.2,1499.5 3825.1,1491.7 3825.1,1480.6 810.1,1472.8 799.8,1477.3 				"/>
			</g>
		</g>
	</g>
	<g>
		<path d="M1429.3,930.3v351.8h-119V671.4H1471l50.9,281.2l53.4-281.2h148.8v610.8h-120V930.3l-59.7,351.8h-53.4L1429.3,930.3z"/>
		<path d="M1778.7,1282.1V671.4h210.6v89.5h-79v145.3h73.4v90.6h-73.4v197.6h79v87.8H1778.7z"/>
		<path d="M2044.9,1282.1V671.4h150.9c65.6,0,107.3,7.3,125.3,21.8c18,14.5,27,49.3,27,104.2v63.5c0,44.4-4.5,74-13.3,88.9
			c-8.9,14.9-48.2,26.5-71.5,34.5c22.5,6.4,61.7,16.8,71,31.3c9.3,14.5,13.9,37.1,13.9,67.6v198.8h-127.5v-209.9
			c0-12.7-2.1-21.3-6.3-25.7s-17.3-6.6-29-6.6h-7.8v242.2H2044.9z M2220.7,883.8v-90.1c0-16.3-2-26.3-5.9-30
			c-3.9-3.7-11.9-5.5-23.8-5.5h-13v168.4c1.7,0,4,0.1,7.1,0.4c3.1,0.3,5.3,0.4,6.7,0.4c11.1,0,18.8-1.8,22.8-5.3
			c4-3.6,6.1-10.3,6.1-20.3V883.8z"/>
		<path d="M2409.9,1282.1V671.4h131.6v610.8H2409.9z"/>
		<path d="M2603.1,794.8c0-56.9,8.4-92.2,25.2-106c16.8-13.7,67.1-29,134.1-29c68.5,0,102.6,15.8,119.1,30.5
			c16.6,14.7,24.8,49.5,24.8,104.5v85.1h-132.7v-81.4c0-11.8-1.5-19.8-4.5-23.9c-3-4.2-14.9-6.3-23-6.3c-6.2,0-10.5,1.8-13,5.5
			c-2.5,3.7-3.7,11.9-3.7,24.7v356c0,11.3,1.4,19.2,4.3,23.9c2.8,4.6,7.7,7,14.7,7c5.9,0,16.9-1.8,20.3-5.3c3.3-3.5,5-8.5,5-14.9
			v-10.6V1022h132.7v136.1c0,56.3-8.5,91.7-25.6,106.3c-17.1,14.6-50.4,30.6-117.4,30.6c-67.7,0-118.6-16.1-135.2-31.1
			c-16.7-15-25-50.2-25-105.8V794.8z"/>
		<path d="M2926.3,1282.1l100.8-610.8h160.1l71.5,610.8h-113.7l-13.4-107.7h-68l-10,107.7H2926.3z M3083.7,1063.1h41.6l-20.6-235.8
			L3083.7,1063.1z"/>
		<path d="M3287.3,1282.1V671.4h122.7l65.7,250.4V671.4h114.8v610.8h-105.8l-83.8-299.3v299.3H3287.3z"/>
	</g>
	<g>
		<path d="M3644.2,740.5V690h-20.9V679h56.3V690h-20.8v50.5H3644.2z"/>
		<path d="M3688,740.5V679h21.5l14,46.8l13.9-46.8h21.7v61.5h-13.7v-49.6l-14.3,49.6h-14.9l-14.5-49.6v49.6H3688z"/>
	</g>
	<g>
		<polygon points="1331.6,1755.4 1331.6,1575.2 1310.3,1575.2 1310.3,1776.6 1455.4,1776.6 1455.4,1755.4 		"/>
		<polygon points="2074.6,1596.5 2074.6,1575.2 1918.3,1575.2 1918.3,1776.6 2074.6,1776.6 2074.6,1755.4 1939.5,1755.4 
			1939.5,1685.5 2069.8,1685.5 2069.8,1664.3 1939.5,1664.3 1939.5,1596.5 		"/>
		<polygon points="3341.9,1596.5 3341.9,1575.2 3185.5,1575.2 3185.5,1776.6 3341.9,1776.6 3341.9,1755.4 3206.8,1755.4 
			3206.8,1685.5 3337.1,1685.5 3337.1,1664.3 3206.8,1664.3 3206.8,1596.5 		"/>
		<g>
			<path d="M2241.7,1642.7c0.3,0,0.6-0.1,0.8-0.1c-2.7-0.1-4.4-0.2-4.4-0.2C2239.3,1642.5,2240.4,1642.7,2241.7,1642.7z"/>
			<path d="M2257.4,1689.1c17.8-5.1,30.5-18.6,30.5-34.6v-42.5c0-20.3-20.7-36.9-46.2-36.9h-133.3v201.4h21.3v-78.2h113.3
				c13.8,0,24.9,17.7,24.9,28.7v49.5h21.3V1724C2289.1,1707.7,2275.7,1694,2257.4,1689.1z M2241.7,1677.1c-0.9,0-74.8-0.1-112,0
				v-80.8c36-0.3,106.4-0.9,112-0.9c13.8,0,24.9,8.9,24.9,19.9v36.1C2266.6,1662.3,2255.5,1677.1,2241.7,1677.1z"/>
		</g>
		<path d="M1593.3,1575.2h-25.5l-94.6,201.4h23.5l19.7-41.8h128.4l19.6,41.8h23.5L1593.3,1575.2z M1526.4,1713.5l54.2-115.4
			l54.2,115.4H1526.4z"/>
		<path d="M2772.2,1575.2h-25.5l-94.6,201.4h23.5l19.6-41.8h128.4l19.6,41.8h23.5L2772.2,1575.2z M2705.2,1713.5l54.2-115.4
			l54.2,115.4H2705.2z"/>
		<path d="M1884,1633.2v-21.1c0-20.3-20.7-36.9-46.2-36.9c-2.4,0-6.9,0-6.9,0s-75.5,0-82.6,0c-25.5,0-46.2,16.5-46.2,36.9v39.1
			c0,20.4,20.7,36.9,46.2,36.9c0,0,86,0,89.4,0c13.8,0,24.9,8.9,24.9,19.9v27.6c0,11-11.2,19.9-24.9,19.9c0,0-75.6,0-89.4,0
			c-13.8,0-24.9-8.9-24.9-19.9v-21.9h-21.3v26.3c0,20.3,20.7,36.9,46.2,36.9c2,0,6.6,0,6.6,0s75.5,0,82.8,0
			c25.5,0,46.2-16.5,46.2-36.9v-36.2c0-20.4-20.7-36.9-46.2-36.9h-89.4c-13.8,0-24.9-8.9-24.9-19.9v-30.4c0-11,11.2-19.9,24.9-19.9
			c12.6,0,89.4,0,89.4,0c13.8,0,24.9,8.9,24.9,19.9v16.8H1884z"/>
		<path d="M3555,1633.2v-21.1c0-20.3-20.7-36.9-46.2-36.9c-2.4,0-6.9,0-6.9,0s-75.5,0-82.6,0c-25.5,0-46.2,16.5-46.2,36.9v39.1
			c0,20.4,20.7,36.9,46.2,36.9c0,0,86,0,89.4,0c13.8,0,24.9,8.9,24.9,19.9v27.6c0,11-11.2,19.9-24.9,19.9c0,0-75.6,0-89.4,0
			c-13.8,0-24.9-8.9-24.9-19.9v-21.9h-21.3v26.3c0,20.3,20.7,36.9,46.2,36.9c2,0,6.7,0,6.7,0s75.5,0,82.8,0
			c25.5,0,46.2-16.5,46.2-36.9v-36.2c0-20.4-20.7-36.9-46.2-36.9h-89.4c-13.8,0-24.9-8.9-24.9-19.9v-30.4c0-11,11.2-19.9,24.9-19.9
			c12.6,0,89.4,0,89.4,0c13.8,0,24.9,8.9,24.9,19.9v16.8H3555z"/>
		<path d="M2627.9,1633.2v-21.1c0-20.3-20.7-36.9-46.2-36.9h-103.9c-25.5,0-46.2,16.5-46.2,36.9v127.7c0,20.3,20.7,36.9,46.2,36.9
			h103.9c25.5,0,46.2-16.5,46.2-36.9v-62.6h-103.3v21.3h82v37.1c0,11-11.2,19.9-24.9,19.9h-103.9c-13.8,0-24.9-8.9-24.9-19.9v-119
			c0-11,11.2-19.9,24.9-19.9h103.9c13.8,0,24.9,8.9,24.9,19.9v16.8H2627.9z"/>
		<polygon points="3112.6,1575.2 3016.8,1748.6 2921.1,1575.2 2888.6,1575.2 2888.6,1776.1 2909.8,1776.1 2909.8,1598.8 
			3008,1776.6 3025.6,1776.6 3123.8,1598.8 3123.8,1776.1 3145.1,1776.1 3145.1,1575.2 		"/>
		<path d="M3829.7,1755.9v12.3c0,4.8-4.9,8.7-10.9,8.7h-28.1c-6,0-10.9-3.9-10.9-8.7v-51.8c0-4.8,4.9-8.7,10.9-8.7h28.1
			c6,0,10.9,3.9,10.9,8.7v7.3h9.3v-9.2c0-8.9-9-16.1-20.1-16.1h-28.1c-11.1,0-20.1,7.2-20.1,16.1v55.6c0,8.9,9,16,20.1,16h28.1
			c11.1,0,20.1-7.2,20.1-16v-14.2H3829.7z"/>
		<rect x="3652.5" y="1698.4" width="9.3" height="87.7"/>
		<polygon points="3745.9,1698.4 3745.9,1778.1 3696.2,1698.4 3679.5,1698.4 3679.5,1786.1 3688.8,1786.1 3688.8,1704.1 
			3740,1786.1 3755.2,1786.1 3755.2,1698.4 		"/>
		<path d="M3594.3,1754.3h-22.6v27.1h13.5c0.5,0.9,0.8,1.9,0.8,3v12.1c0,4.3-4.4,7.9-9.9,7.9c-2.8,0-5.7,0-5.7,0l-5.8,8.4
			c0,0,9,0,11.6,0c10.1,0,18.3-6.5,18.3-14.6V1754.3z"/>
	</g>
</g>
</svg>
