<?xml version="1.0" encoding="utf-8"?>
<!-- Generator: Adobe Illustrator 25.0.0, SVG Export Plug-In . SVG Version: 6.00 Build 0)  -->
<svg version="1.1" id="Layer_1" xmlns="http://www.w3.org/2000/svg" xmlns:xlink="http://www.w3.org/1999/xlink" x="0px" y="0px"
	 viewBox="0 0 3839 795.8" style="enable-background:new 0 0 3839 795.8;" xml:space="preserve">
<style type="text/css">
	.st0{fill:#FFFFFF;}
	.st1{fill:#00FF12;}
	.st2{fill:none;}
	.st3{fill:none;stroke:#2C72FF;stroke-width:26.119;stroke-linecap:round;stroke-linejoin:round;stroke-miterlimit:10;}
	.st4{fill:none;stroke:#000000;stroke-width:26.119;stroke-linecap:round;stroke-linejoin:round;stroke-miterlimit:10;}
	.st5{fill:none;stroke:#2C72FF;stroke-width:26.8516;stroke-linecap:round;stroke-linejoin:round;stroke-miterlimit:10;}
	.st6{fill:none;stroke:#000000;stroke-width:26.8516;stroke-linecap:round;stroke-linejoin:round;stroke-miterlimit:10;}
	.st7{fill:#FF00ED;}
	.st8{fill:none;stroke:#D38D00;stroke-width:26.8516;stroke-linecap:round;stroke-linejoin:round;stroke-miterlimit:10;}
	.st9{fill:none;stroke:#FFFFFF;stroke-width:26.8516;stroke-linecap:round;stroke-linejoin:round;stroke-miterlimit:10;}
</style>
<g>
	<polygon class="st0" points="0,795.8 276.5,0 3839,0 3839,795.8 	"/>
	<path d="M2906,282.5h-13.9v238.9h13.9c74.4,0,131.7-34.4,131.7-115.3C3037.7,319.4,2987.8,282.5,2906,282.5z"/>
	<path d="M470.2,294.8H462L421.2,483h90L485,374.2C478.4,348,474.3,321,470.2,294.8z"/>
	<path d="M2281.9,294.8h-8.2L2232.8,483h90l-26.2-108.8C2290.1,348,2286,321,2281.9,294.8z"/>
	<path d="M651.1,0H403.9H276.5L0,795.8h403.9H434h68h433h2904V0H651.1z M570.8,706.3l-20.4-76.9H381.1l-18,76.9H125.9L340.2,89.5
		H588l220,616.8H570.8z M1100.7,442c0,0.8-0.2,1.6-0.4,2.4c-0.2,0.5-0.3,1-0.6,1.5l-25.7,48.5v211.8h-0.2H854.7V181l183.8-40.4
		l11.1-2.4c0.6-0.1,1.1-0.2,1.7-0.2c0,0,0.1,0,0.1,0c0.1,0,0.1,0,0.2,0c0.8,0,1.5,0.1,2.3,0.4c0.1,0,0.2,0,0.3,0.1
		c0.7,0.3,1.4,0.6,2,1.1c0.1,0.1,0.2,0.2,0.4,0.3c0.6,0.5,1.1,1,1.6,1.6c0.1,0.1,0.1,0.2,0.2,0.3c0.5,0.7,0.8,1.4,1.1,2.2l13.1,43.8
		l1.5,4.9c1,3.5,0.8,7.1-0.4,10.3c-1.3,3.6-3.9,6.8-7.6,8.7l-8.5,4.5l-42.3,22.4c-4.8,2.5-7.2,8-5.9,13.2l1.5,6.3h0l26,104.9
		c1.5,6.1,6.4,10.9,12.5,12.2l44.8,10.1c2.8,0.6,5,2.7,6,5.3c0,0,0,0,0,0.1c0.1,0.4,0.2,0.8,0.3,1.2c0,0.1,0,0.1,0.1,0.2
		c0.1,0.4,0.1,0.9,0.1,1.3c0,0,0,0.1,0,0.1V442z M1176.1,706.3l-75.2-151.6v-53.5l22.5-42.5c1.3-2.5,2-4.6,2.6-6.3
		c1-3.4,1.6-6.9,1.6-10.3l0-50.3l-0.1-0.7c-0.1-1.2-0.2-2.4-0.4-3.5l-0.3-1.7l-0.3-1.1c-0.3-1.1-0.6-2.3-1-3.4l-0.5-1.5l-0.3-0.6
		c-4.5-10.3-13.5-17.8-24.6-20.3l-38.7-8.7l-23.2-93.6l40.4-21.4c9.3-4.9,16.5-13.1,20.2-23.1c3.3-8.9,3.6-18.3,0.9-27.3l-14.6-48.7
		c-0.9-3.2-2.4-6.2-4.3-9.1l-0.6-0.9l-0.6-0.9c-1.9-2.6-4.1-4.9-6.7-6.8l-1-0.7l-0.6-0.4c-2.7-1.9-5.6-3.4-8.6-4.4l-1.5-0.5
		l-0.8-0.2c-1.5-0.4-3.1-0.7-4.7-0.9l-1.3-0.3l-5.1,0l-0.8,0.1c-1.7,0.1-3.3,0.4-4.9,0.7l-189.2,41.6v-64h270.8
		c139.1,0,256.8,58.9,256.8,214.3c0,93.3-36,132.5-119.4,160.3v4.9c11.4,9,25.4,18.8,37.6,36.8l134.2,200.4H1176.1z M1785.5,518.1
		c51.5,0,92.4-22.1,128.4-57.3l-6.5,230.7c-36,17.2-119.4,24.5-159.5,24.5c-175.9,0-313.3-136.6-313.3-312.5
		c0-180,141.5-323.9,322.3-323.9c50.7,0,103.1,9,150.5,25.4l6.5,234.8c-36-33.5-81-62.2-131.7-62.2c-67.1,0-121.9,53.2-121.9,120.2
		C1660.4,465.8,1718.4,518.1,1785.5,518.1z M2382.5,706.3l-20.4-76.9h-169.3l-18,76.9h-237.2l214.3-616.8h247.9l220,616.8H2382.5z
		 M2951.8,706.3h-283.8V89.5h228.2c207,0,365.6,90.8,365.6,317.4C3261.8,590.1,3132.6,706.3,2951.8,706.3z M3749.5,706.3h-421.3
		V89.5h414.7V258h-189v58.9h172.6v160.3H3554v60.5h195.5V706.3z"/>
	<path class="st2" d="M1051.4,137.9c-0.6,0-1.2,0.1-1.8,0.2L854.7,181v525.3h219.4V494.4l25.7-48.5c0.6-1.2,1-2.6,1-3.9v-48.6
		c0-3.9-2.7-7.3-6.5-8.2l-44.8-10.1c-6.2-1.4-11-6.1-12.5-12.2l-27.5-111.2c-1.3-5.2,1.1-10.7,5.9-13.2l50.8-27
		c6.8-3.6,10.2-11.6,7.9-19l-14.6-48.7C1058.4,140.3,1055,137.9,1051.4,137.9L1051.4,137.9z"/>
	<g>
		<defs>
			<path id="SVGID_105_" d="M1074.1,550.7v-56.3l25.7-48.5c0.2-0.5,0.4-1,0.6-1.5c0.2-0.8,0.4-1.6,0.4-2.4v-48.6c0,0,0-0.1,0-0.1
				c0-0.5,0-0.9-0.1-1.3c0-0.1,0-0.1-0.1-0.2c-0.1-0.4-0.2-0.8-0.3-1.2c0,0,0,0,0-0.1c-1-2.6-3.2-4.6-6-5.3l-44.8-10.1
				c-6.2-1.4-11-6.1-12.5-12.2l-26-104.9h0l-1.6-6.3c-1.3-5.2,1.1-10.7,5.9-13.2l42.3-22.4l8.5-4.5c3.6-1.9,6.2-5.1,7.6-8.7
				c1.2-3.2,1.4-6.8,0.4-10.3l-1.5-4.9l-13.1-43.8c-0.2-0.8-0.6-1.6-1.1-2.2c-0.1-0.1-0.1-0.2-0.2-0.3c-0.5-0.6-1-1.2-1.6-1.6
				c-0.1-0.1-0.2-0.2-0.4-0.3c-0.6-0.4-1.3-0.8-2.1-1.1c-0.1,0-0.2,0-0.3-0.1c-0.7-0.2-1.5-0.3-2.3-0.4c-0.1,0-0.1,0-0.2,0
				c0,0-0.1,0-0.1,0c-0.6,0-1.1,0.1-1.7,0.2l-11.1,2.4L854.7,181v525.3h219.2h0.2V550.7"/>
		</defs>
		<clipPath id="SVGID_1_">
			<use xlink:href="#SVGID_105_"  style="overflow:visible;"/>
		</clipPath>
	</g>
	<path d="M1055.3,362.7h34.1c36.8,0,73.6-5.7,73.6-51.5c0-47.4-33.5-53.2-72-53.2h-59.5L1055.3,362.7z"/>
</g>
</svg>
