<?xml version="1.0" encoding="utf-8"?>
<!-- Generator: Adobe Illustrator 25.0.0, SVG Export Plug-In . SVG Version: 6.00 Build 0)  -->
<svg version="1.1" id="Layer_1" xmlns="http://www.w3.org/2000/svg" xmlns:xlink="http://www.w3.org/1999/xlink" x="0px" y="0px"
	 viewBox="0 0 3839 1181.4" style="enable-background:new 0 0 3839 1181.4;" xml:space="preserve">
<style type="text/css">
	.st0{fill:#FFFFFF;}
	.st1{fill:none;}
	.st2{fill:none;stroke:#2C72FF;stroke-width:26.2223;stroke-linecap:round;stroke-linejoin:round;stroke-miterlimit:10;}
	.st3{fill:none;stroke:#000000;stroke-width:26.2223;stroke-linecap:round;stroke-linejoin:round;stroke-miterlimit:10;}
	.st4{fill:none;stroke:#FFFFFF;stroke-width:13.1112;stroke-linecap:round;stroke-linejoin:round;stroke-miterlimit:10;}
	.st5{fill:none;stroke:#2C72FF;stroke-width:26.8516;stroke-linecap:round;stroke-linejoin:round;stroke-miterlimit:10;}
	.st6{fill:none;stroke:#000000;stroke-width:26.8516;stroke-linecap:round;stroke-linejoin:round;stroke-miterlimit:10;}
	.st7{fill:none;stroke:#FFFFFF;stroke-width:13.4258;stroke-linecap:round;stroke-linejoin:round;stroke-miterlimit:10;}
	.st8{fill:#FF00ED;}
	.st9{fill:#00FF12;}
	.st10{fill:none;stroke:#D38D00;stroke-width:26.8516;stroke-linecap:round;stroke-linejoin:round;stroke-miterlimit:10;}
	.st11{fill:none;stroke:#FFFFFF;stroke-width:26.8516;stroke-linecap:round;stroke-linejoin:round;stroke-miterlimit:10;}
</style>
<g>
	<polygon class="st0" points="3798.6,760.8 40.4,744.5 291.9,19.3 3798.6,19.3 	"/>
	<g>
		<g>
			<path d="M470.2,294.8H462L421.1,483h90L485,374.2C478.4,348,474.3,321,470.2,294.8z"/>
			<path class="st1" d="M1051.4,137.9c-0.6,0-1.2,0.1-1.8,0.2L854.7,181v525.3h219.4V494.4l25.7-48.5c0.6-1.2,1-2.6,1-3.9v-48.6
				c0-3.9-2.7-7.3-6.5-8.2l-44.8-10.1c-6.2-1.4-11-6.1-12.5-12.2l-27.5-111.2c-1.3-5.2,1.1-10.7,5.9-13.2l50.8-27
				c6.8-3.6,10.2-11.6,7.9-19l-14.6-48.7C1058.4,140.3,1055,137.9,1051.4,137.9L1051.4,137.9z"/>
			<g>
				<defs>
					<path id="SVGID_165_" d="M1074.1,550.7v-56.3l25.7-48.5c0.2-0.5,0.4-1,0.6-1.5c0.2-0.8,0.4-1.6,0.4-2.4v-48.6c0,0,0-0.1,0-0.1
						c0-0.5,0-0.9-0.1-1.3c0-0.1,0-0.1-0.1-0.2c-0.1-0.4-0.2-0.8-0.3-1.2c0,0,0,0,0-0.1c-1-2.6-3.2-4.6-6-5.3l-44.8-10.1
						c-6.2-1.4-11-6.1-12.5-12.2l-26-104.9h0l-1.6-6.3c-1.3-5.2,1.1-10.7,5.9-13.2l42.3-22.4l8.5-4.5c3.6-1.9,6.2-5.1,7.6-8.7
						c1.2-3.2,1.4-6.8,0.4-10.3l-1.5-4.9l-13.1-43.8c-0.2-0.8-0.6-1.6-1.1-2.2c-0.1-0.1-0.1-0.2-0.2-0.3c-0.5-0.6-1-1.2-1.6-1.6
						c-0.1-0.1-0.2-0.2-0.4-0.3c-0.6-0.4-1.3-0.8-2.1-1.1c-0.1,0-0.2,0-0.3-0.1c-0.7-0.2-1.5-0.3-2.3-0.4c-0.1,0-0.1,0-0.2,0
						c0,0-0.1,0-0.1,0c-0.6,0-1.1,0.1-1.7,0.2l-11.1,2.4L854.7,181v525.3h219.2h0.2V550.7"/>
				</defs>
				<clipPath id="SVGID_1_">
					<use xlink:href="#SVGID_165_"  style="overflow:visible;"/>
				</clipPath>
			</g>
			<path d="M1091,258h-59.5l23.8,104.7h34.1c36.8,0,73.6-5.7,73.6-51.5C1163,263.7,1129.5,258,1091,258z"/>
			<path d="M2318.9,546l-26.9-2.3v149.2c0,7.4,6,13.4,13.4,13.4l0,0c7.4,0,13.4-6,13.4-13.4V546z"/>
			<path class="st6" d="M2277.9,302.1c24.4,0,48.9,9.3,67.5,28c18.6,18.6,28,43.1,28,67.5"/>
			<path class="st6" d="M2277.9,302.1c24.4,0,48.9,9.3,67.5,28"/>
			<path d="M2277.8,533.4c-13.7,0-27-2.1-39.5-5.9v27.9c12.6,3.2,25.8,4.9,39.5,4.9c14.2,0,28-1.9,41.1-5.3V527
				C2305.9,531.1,2292.1,533.4,2277.8,533.4z"/>
		</g>
	</g>
	<g>
		<path d="M2906,282.5h-13.9v238.9h13.9c74.4,0,131.7-34.4,131.7-115.3C3037.7,319.4,2987.8,282.5,2906,282.5z"/>
	</g>
	<g>
		<path d="M651.1,0H403.9H276.5L0,795.8l134,385.6h3571l134-385.6V0H651.1z M3328.2,89.5h414.7V258h-189v58.9h172.6v160.3H3554v60.5
			h195.5v168.5h-421.3V89.5z M2667.9,89.5h228.2c207,0,365.6,90.8,365.6,317.4c0,183.2-129.2,299.4-310,299.4h-283.8V89.5z
			 M2151.8,89.5h247.9l220,616.8h-237.2h-36.8V545.4c57.4-26.2,94.8-83.3,94.8-147.8c0-89.7-72.9-162.6-162.6-162.6
			c-89.7,0-162.6,72.9-162.6,162.6c0,65.2,37.9,122.6,96.2,148.4v160.2h-36.8h-237.2L2151.8,89.5z M2318.9,706.3
			c0,22.2-18,40.3-40.3,40.3c-22.2,0-40.3-18-40.3-40.3c0,0,0,0,0,0V527.5c-31.2-9.5-57.6-29.9-74.8-56.7c-0.2-0.2-0.3-0.5-0.5-0.7
			c-1.8-2.8-3.5-5.7-5.1-8.7c-0.1-0.2-0.2-0.4-0.3-0.6c-1.5-2.9-2.9-5.8-4.3-8.9c-0.1-0.2-0.2-0.4-0.3-0.6c-1.3-3-2.5-6-3.5-9.1
			c-0.2-0.5-0.4-1.1-0.6-1.6c-1-3.1-2-6.2-2.8-9.4c-0.1-0.3-0.1-0.5-0.2-0.8c-0.7-3-1.4-6.1-1.9-9.1c-0.1-0.6-0.2-1.1-0.3-1.7
			c-0.5-3.2-0.9-6.4-1.2-9.7c-0.1-0.7-0.1-1.3-0.2-2c-0.3-3.4-0.4-6.8-0.4-10.2c0,0,0,0,0,0c0,0,0,0,0,0
			c0-75,60.8-135.8,135.8-135.8c75,0,135.8,60.8,135.8,135.8c0,0,0,0,0,0c0,0,0,0,0,0c0,3.4-0.2,6.8-0.4,10.1
			c-0.1,0.7-0.1,1.4-0.2,2c-0.3,3.2-0.7,6.4-1.2,9.6c-0.1,0.5-0.2,1.1-0.3,1.6c-0.5,3-1.1,5.9-1.8,8.9c-0.1,0.4-0.2,0.7-0.3,1.1
			c-0.8,3.1-1.7,6.2-2.7,9.3c-0.2,0.6-0.4,1.1-0.6,1.7c-1.1,3.1-2.2,6.1-3.5,9.1c0,0.1-0.1,0.2-0.1,0.3c-1.3,3-2.7,5.9-4.2,8.8
			c-0.2,0.3-0.3,0.6-0.5,1c-1.5,2.9-3.2,5.7-4.9,8.5c-0.2,0.3-0.3,0.5-0.5,0.8c-3.6,5.7-7.7,11.2-12.1,16.3
			c-0.1,0.1-0.2,0.3-0.3,0.4c-16.2,18.5-37.2,32.5-61.2,40.1L2318.9,706.3C2318.9,706.2,2318.9,706.3,2318.9,706.3z M1756.9,79.7
			c50.7,0,103.1,9,150.5,25.4l6.5,234.8c-36-33.5-81-62.2-131.7-62.2c-67.1,0-121.9,53.2-121.9,120.2c0,67.9,58.1,120.2,125.2,120.2
			c51.5,0,92.4-22.1,128.4-57.3l-6.5,230.7c-36,17.2-119.4,24.5-159.5,24.5c-175.9,0-313.3-136.6-313.3-312.5
			C1434.6,223.7,1576.1,79.7,1756.9,79.7z M854.6,89.5h270.8c139.1,0,256.8,58.9,256.8,214.3c0,93.3-36,132.5-119.4,160.3v4.9
			c11.4,9,25.4,18.8,37.6,36.8l134.1,200.4h-258.5l-75.2-151.6v-53.5l22.5-42.5c1.3-2.5,2-4.6,2.6-6.3c1-3.4,1.6-6.9,1.6-10.3
			l0-50.3l-0.1-0.7c-0.1-1.2-0.2-2.4-0.4-3.5l-0.3-1.7l-0.3-1.1c-0.3-1.1-0.6-2.3-1-3.4l-0.5-1.5l-0.3-0.6
			c-4.5-10.3-13.5-17.8-24.6-20.3l-38.7-8.7l-23.2-93.6l40.4-21.4c9.3-4.9,16.5-13.1,20.2-23.1c3.3-8.9,3.6-18.3,0.9-27.3
			l-14.6-48.7c-0.9-3.2-2.4-6.2-4.3-9.1l-0.6-0.9l-0.6-0.9c-1.9-2.6-4.1-4.9-6.7-6.8l-1-0.7l-0.6-0.4c-2.7-1.9-5.6-3.4-8.6-4.4
			l-1.5-0.5l-0.8-0.2c-1.5-0.4-3.1-0.7-4.7-0.9l-1.3-0.3l-5.1,0l-0.8,0.1c-1.7,0.1-3.3,0.4-4.9,0.7l-189.2,41.6V89.5z M1009.3,251.8
			l1.5,6.3h0l26,104.9c1.5,6.1,6.4,10.9,12.5,12.2l44.8,10.1c2.8,0.6,5,2.7,6,5.3c0,0,0,0,0,0.1c0.1,0.4,0.2,0.8,0.3,1.2
			c0,0.1,0,0.1,0.1,0.2c0.1,0.4,0.1,0.9,0.1,1.3c0,0,0,0.1,0,0.1V442c0,0.8-0.2,1.6-0.4,2.4c-0.2,0.5-0.3,1-0.6,1.5l-25.7,48.5
			v211.8h-0.2H854.7V181l183.8-40.4l11.1-2.4c0.6-0.1,1.1-0.2,1.7-0.2c0,0,0.1,0,0.1,0c0.1,0,0.1,0,0.2,0c0.8,0,1.5,0.1,2.3,0.4
			c0.1,0,0.2,0,0.3,0.1c0.7,0.3,1.4,0.6,2,1.1c0.1,0.1,0.2,0.2,0.4,0.3c0.6,0.5,1.1,1,1.6,1.6c0.1,0.1,0.1,0.2,0.2,0.3
			c0.5,0.7,0.8,1.4,1.1,2.2l13.1,43.8l1.5,4.9c1,3.5,0.8,7.1-0.4,10.3c-1.4,3.6-3.9,6.8-7.6,8.7l-8.5,4.5l-42.3,22.4
			C1010.5,241.1,1008,246.5,1009.3,251.8z M340.2,89.5H588l220,616.8H570.8l-20.4-76.9H381.1l-18,76.9H125.9L340.2,89.5z"/>
		<g>
			<path class="st0" d="M1128.4,925c-15-18.6-38.1-30-64.2-30c-50.4,0-98,43.8-105.8,93.6c-8.1,49.8,26.1,93.5,76.8,93.5
				c25.5,0,52.5-12,73.2-30l-4.8,31.2c-21.9,14.1-47.1,22.2-71.1,22.2c-63.9,0-109.7-51.9-99.5-116
				c10.2-64.8,71.7-117.8,136.4-117.8c25.2,0,46.5,7.2,64.2,22.2L1128.4,925z"/>
			<path class="st0" d="M1261.8,1078.2h62.4l-3.6,23.4H1233l35.7-226.1h25.2L1261.8,1078.2z"/>
			<path class="st0" d="M1479.5,1037.4l-37.5,64.2h-27.6l141.8-236.9l64.2,236.9h-27.9l-16.5-64.2H1479.5z M1546.4,923.5l-53.1,90.6
				h76.5L1546.4,923.5z"/>
			<path class="st0" d="M1866.3,919.6c-6.6-15.6-15.9-24.6-35.1-24.6c-20.1,0-39.6,14.4-42.9,35.1c-3.3,19.5,15.6,28.5,29.7,35.4
				l13.8,6.6c27.6,12.9,50.1,27.6,44.4,63.6c-6.3,39.6-42.9,69.9-82.2,69.9c-36.3,0-59.7-23.4-61.2-58.5l25.5-6.9
				c-0.3,23.1,14.4,42,38.7,42c24.3,0,49.5-18.6,53.7-44.1c4.2-26.4-15.3-35.4-34.8-45l-12.6-6c-24.6-12-45.3-25.5-40.2-57.9
				c5.7-35.1,38.7-57.6,72.3-57.6c25.2,0,44.7,12.9,53.1,35.1L1866.3,919.6z"/>
			<path class="st0" d="M2123.8,919.6c-6.6-15.6-15.9-24.6-35.1-24.6c-20.1,0-39.6,14.4-42.9,35.1c-3.3,19.5,15.6,28.5,29.7,35.4
				l13.8,6.6c27.6,12.9,50.1,27.6,44.4,63.6c-6.3,39.6-42.9,69.9-82.2,69.9c-36.3,0-59.7-23.4-61.2-58.5l25.5-6.9
				c-0.3,23.1,14.4,42,38.7,42c24.3,0,49.5-18.6,53.7-44.1c4.2-26.4-15.3-35.4-34.8-45l-12.6-6c-24.6-12-45.3-25.5-40.2-57.9
				c5.7-35.1,38.7-57.6,72.3-57.6c25.2,0,44.7,12.9,53.1,35.1L2123.8,919.6z"/>
			<path class="st0" d="M2275.8,1101.6h-25.2l35.7-226.1h25.2L2275.8,1101.6z"/>
			<path class="st0" d="M2611.9,925c-15-18.6-38.1-30-64.2-30c-50.4,0-98,43.8-105.8,93.6c-8.1,49.8,26.1,93.5,76.8,93.5
				c25.5,0,52.5-12,73.2-30l-4.8,31.2c-21.9,14.1-47.1,22.2-71.1,22.2c-63.9,0-109.7-51.9-99.5-116
				c10.2-64.8,71.7-117.8,136.4-117.8c25.2,0,46.5,7.2,64.2,22.2L2611.9,925z"/>
			<path class="st0" d="M2847.8,919.6c-6.6-15.6-15.9-24.6-35.1-24.6c-20.1,0-39.6,14.4-42.9,35.1c-3.3,19.5,15.6,28.5,29.7,35.4
				l13.8,6.6c27.6,12.9,50.1,27.6,44.4,63.6c-6.3,39.6-42.9,69.9-82.2,69.9c-36.3,0-59.7-23.4-61.2-58.5l25.5-6.9
				c-0.3,23.1,14.4,42,38.7,42c24.3,0,49.5-18.6,53.7-44.1c4.2-26.4-15.3-35.4-34.8-45l-12.6-6c-24.6-12-45.3-25.5-40.2-57.9
				c5.7-35.1,38.7-57.6,72.3-57.6c25.2,0,44.7,12.9,53.1,35.1L2847.8,919.6z"/>
		</g>
	</g>
	<line class="st7" x1="842.6" y1="795.8" x2="2996.4" y2="795.8"/>
</g>
</svg>
