<?xml version="1.0" encoding="utf-8"?>
<!-- Generator: Adobe Illustrator 26.0.3, SVG Export Plug-In . SVG Version: 6.00 Build 0)  -->
<svg version="1.1" id="Layer_1" xmlns="http://www.w3.org/2000/svg" xmlns:xlink="http://www.w3.org/1999/xlink" x="0px" y="0px"
	 viewBox="0 0 3839 942.9" style="enable-background:new 0 0 3839 942.9;" xml:space="preserve">
<style type="text/css">
	.st0{fill:#FFFFFF;}
	.st1{fill:#FF0000;}
	.st2{fill:url(#SVGID_1_);}
	.st3{fill:url(#SVGID_00000120530984350253872090000006850064858453401272_);}
	.st4{fill:url(#SVGID_00000078742744165814327270000016593528910724675517_);}
	.st5{fill:url(#SVGID_00000041256512010407905180000005179200390451852444_);}
	.st6{fill:url(#SVGID_00000052086144957055290720000007295557658265274277_);}
	.st7{fill:url(#SVGID_00000111887999287849423470000002126132045086336446_);}
	.st8{fill:#3636FF;}
	.st9{display:none;}
	.st10{display:inline;}
	.st11{enable-background:new    ;}
	.st12{fill:url(#SVGID_00000034785109327448804650000010935353477161761947_);}
	.st13{fill:url(#SVGID_00000069375681419370207900000011746518504176460190_);}
	.st14{fill:url(#SVGID_00000086657991241928955090000009622829927267751846_);}
	.st15{fill:url(#SVGID_00000160186877066993378660000010240242064862771353_);}
	.st16{fill:url(#SVGID_00000059294672505361703070000013697906872779634570_);}
	.st17{fill:url(#SVGID_00000144312304163716175880000001346530857680776354_);}
	.st18{fill:url(#SVGID_00000150800308395834044670000008207629667283174075_);}
	.st19{fill:url(#SVGID_00000083777733991576189800000012702046838112394168_);}
	.st20{fill:url(#SVGID_00000044162766262357972190000006843033148351473811_);}
	.st21{fill:url(#SVGID_00000006676688000599650970000004542399111012022191_);}
	.st22{fill:url(#SVGID_00000039126605366922426690000003754112490958838658_);}
	.st23{fill:url(#SVGID_00000044164320336886217320000009232009818339213453_);}
	.st24{fill:url(#SVGID_00000160190931847336537290000001693389701020869311_);}
	.st25{fill:url(#SVGID_00000094588123681216482640000001055434722974294423_);}
	.st26{fill:url(#SVGID_00000065076327506514789090000004996568476484128443_);}
	.st27{fill:url(#SVGID_00000079456694458275661150000014059646842400789177_);}
	.st28{fill:url(#SVGID_00000003786223565074486640000010866578665974479023_);}
	.st29{fill:url(#SVGID_00000134935640988969746970000017986774264375939494_);}
	.st30{fill:url(#SVGID_00000070836668008811003770000014752730539354382506_);}
	.st31{fill:url(#SVGID_00000080169371660064999060000005340825953107824570_);}
	.st32{fill:url(#SVGID_00000073685469646648699690000004319645568816584351_);}
	.st33{fill:url(#SVGID_00000049204467557377433250000001955112393433572763_);}
	.st34{fill:url(#SVGID_00000134965902002893788170000010428262743237702039_);}
	.st35{fill:url(#SVGID_00000018208670612782794590000011353781822597071798_);}
	.st36{fill:url(#SVGID_00000026131637278511541810000006974157739401103506_);}
	.st37{fill:url(#SVGID_00000009552043461941996970000008927016418252231092_);}
	.st38{fill:url(#SVGID_00000021828703273451717370000005310683619669897899_);}
	.st39{fill:url(#SVGID_00000166667862970608181050000001501355917258323108_);}
</style>
<g>
	<g>
		<path d="M461.3,357.4h202.8v566.5H461.3v-62.1c-46.9,64.6-120.4,81.1-176.2,81.1c-60.8,0-135.6-17.7-204-90
			C26.6,794.6,0,730,0,645.1c0-106.5,41.8-181.2,87.4-226.9c48.2-48.2,122.9-79.8,204-79.8c91.2,0,145.7,46.9,169.8,73.5V357.4z
			 M248.4,547.5c-27.9,26.6-40.6,63.4-40.6,92.5c0,33,13.9,68.4,39.3,92.5c21.5,20.3,57,38,91.2,38c33,0,65.9-13.9,91.2-39.3
			c17.7-17.7,38-45.6,38-91.2c0-26.6-7.6-62.1-39.3-92.5c-19-17.7-48.2-36.8-91.2-36.8C311.8,510.7,277.5,519.6,248.4,547.5z"/>
		<path d="M768.3,357.4H971v92.5c20.3-38,49.4-63.4,79.8-78.6c30.4-16.5,67.2-22.8,105.2-22.8c5.1,0,13.9,1.3,40.6,2.5v191.4
			c-10.1-5.1-38-20.3-87.4-20.3c-26.6,0-63.4,3.8-92.5,30.4c-43.1,39.3-45.6,98.9-45.6,129.3v242.1H768.3V357.4z"/>
		<path d="M1675.7,911.2c-54.5,26.6-98.9,31.7-140.7,31.7c-110.3,0-182.5-46.9-223.1-86.2c-53.2-52-87.4-128-87.4-211.6
			c0-83.6,34.2-163.5,91.2-219.3c53.2-50.7,131.8-86.2,228.1-86.2c35.5,0,81.1,6.3,131.8,31.7v169.8c-26.6-19-62.1-36.8-105.2-36.8
			c-48.2,0-78.6,19-98.9,39.3c-27.9,27.9-39.3,64.6-39.3,97.6c0,31.7,11.4,68.4,35.5,95.1c19,20.3,52,43.1,103.9,43.1
			c29.1,0,67.2-6.3,103.9-38V911.2z"/>
		<path d="M2191.5,357.4h202.8v566.5h-202.8v-62.1c-46.9,64.6-120.4,81.1-176.2,81.1c-60.8,0-135.6-17.7-204-90
			c-54.5-58.3-81.1-122.9-81.1-207.8c0-106.5,41.8-181.2,87.4-226.9c48.2-48.2,122.9-79.8,204-79.8c91.2,0,145.7,46.9,169.8,73.5
			V357.4z M1978.5,547.5c-27.9,26.6-40.6,63.4-40.6,92.5c0,33,13.9,68.4,39.3,92.5c21.5,20.3,57,38,91.2,38
			c33,0,65.9-13.9,91.2-39.3c17.7-17.7,38-45.6,38-91.2c0-26.6-7.6-62.1-39.3-92.5c-19-17.7-48.2-36.8-91.2-36.8
			C2041.9,510.7,2007.7,519.6,1978.5,547.5z"/>
		<path d="M3136.5,923.9h-202.8v-62.1c-57,73.5-131.8,81.1-171.1,81.1c-81.1,0-145.7-26.6-199-78.6c-57-55.8-91.2-135.6-91.2-225.6
			c0-96.3,40.6-174.9,92.5-224.3c55.8-53.2,130.5-76,200.2-76c77.3,0,131.8,34.2,168.6,73.5V0h202.8V923.9z M2897,736.3
			c26.6-24.1,43.1-62.1,43.1-96.3c0-31.7-17.7-69.7-38-91.2c-22.8-24.1-54.5-38-92.5-38c-43.1,0-72.2,19-90,36.8
			c-22.8,22.8-39.3,58.3-39.3,96.3c0,29.1,12.7,62.1,39.3,88.7c27.9,27.9,60.8,38,90,38C2842.5,770.5,2875.4,755.3,2897,736.3z"/>
		<path d="M3839,678h-422c0,30.4,11.4,71,35.5,95.1c12.7,12.7,38,27.9,83.6,27.9c5.1,0,40.6-1.3,65.9-15.2
			c12.7-7.6,26.6-20.3,35.5-38h193.9c-8.9,31.7-26.6,76-68.4,116.6c-41.8,40.6-107.7,78.6-230.7,78.6c-74.8,0-164.8-16.5-234.5-86.2
			c-36.8-36.8-83.6-106.5-83.6-214.2c0-95.1,35.5-171.1,84.9-219.3c46.9-45.6,120.4-82.4,231.9-82.4c65.9,0,150.8,13.9,218,77.3
			c79.8,76,90,174.9,90,238.3V678z M3652.7,561.4c-5.1-21.5-17.7-45.6-33-60.8c-26.6-26.6-63.4-30.4-83.6-30.4
			c-34.2,0-60.8,8.9-82.4,30.4c-13.9,15.2-26.6,35.5-30.4,60.8H3652.7z"/>
	</g>
</g>
</svg>
