<?xml version="1.0" encoding="utf-8"?>
<!-- Generator: Adobe Illustrator 26.0.3, SVG Export Plug-In . SVG Version: 6.00 Build 0)  -->
<svg version="1.1" id="Layer_1" xmlns="http://www.w3.org/2000/svg" xmlns:xlink="http://www.w3.org/1999/xlink" x="0px" y="0px"
	 viewBox="0 0 3843.2 550.9" style="enable-background:new 0 0 3843.2 550.9;" xml:space="preserve">
<style type="text/css">
	.st0{fill:#1E1E1E;}
	.st1{fill:#FFFFFF;}
	.st2{fill:url(#SVGID_1_);}
	.st3{fill:url(#SVGID_00000008142298500799767770000000692927008676927654_);}
	.st4{fill:url(#SVGID_00000133493582864101427330000010165535026733078408_);}
	.st5{fill:url(#SVGID_00000054957109872503696810000016990996605634275251_);}
	.st6{fill:url(#SVGID_00000024716089129652433490000003725327446205737916_);}
	.st7{fill:url(#SVGID_00000073696926910967756220000015044510701181624498_);}
	.st8{fill:url(#SVGID_00000156549356069572754540000005785106263394951306_);}
	.st9{fill:url(#SVGID_00000100380784773108330920000009566023679448923808_);}
	.st10{fill:url(#SVGID_00000074442029686594792470000004085987085989449630_);}
	.st11{fill:url(#SVGID_00000085952342568300439050000014542352540014448041_);}
	.st12{fill:url(#SVGID_00000038395928227047058070000007169232665601952667_);}
	.st13{fill:url(#SVGID_00000109723667684074792710000002471520311073970869_);}
	.st14{fill:url(#SVGID_00000003786689732783927770000002548009019486556845_);}
	.st15{fill:#232244;}
	.st16{fill:url(#SVGID_00000158707428095455771430000014902356628092328578_);}
	.st17{fill:url(#SVGID_00000105396165123891970640000010540712655052358541_);}
	.st18{fill:#00FFF8;}
	.st19{fill:#FF0000;}
	.st20{fill:#0000FF;}
	.st21{stroke:#231F20;stroke-width:2.4791;stroke-miterlimit:10;}
	.st22{fill:#FFCE00;}
	.st23{fill:#339300;}
	.st24{fill:url(#SVGID_00000154417952983530474730000008075095881264742819_);}
	.st25{fill:url(#SVGID_00000029744400114693648430000014783179004991988909_);}
	.st26{fill:url(#SVGID_00000061439868967085241490000015966086827902444181_);}
	.st27{fill:url(#SVGID_00000159467922532080035270000018418828136922494882_);}
	.st28{fill:url(#SVGID_00000122721468217629942030000000185100623429521295_);}
	.st29{fill:#7C7C7C;}
	.st30{fill:url(#SVGID_00000059276425155323659970000012590896610837325193_);}
	.st31{fill:url(#SVGID_00000038374518957431896760000016714277810013391497_);}
	.st32{fill:url(#SVGID_00000111151630828626888880000013722721888134516626_);}
	.st33{fill:url(#SVGID_00000143619220317736308240000002422917246890422183_);}
	.st34{fill:url(#SVGID_00000042726539776088576970000004458136310277443503_);}
	.st35{fill:url(#SVGID_00000146485100800103104130000006304674369885838221_);}
	.st36{fill:url(#SVGID_00000001663285370836806710000011781068731106465684_);}
	.st37{fill:url(#SVGID_00000076568896811283381650000005070437353187244689_);}
	.st38{fill:url(#SVGID_00000142896294153375932320000018418315697580419243_);}
	.st39{fill:url(#SVGID_00000047740267498460441520000008533517274892630951_);}
	.st40{fill:url(#SVGID_00000058581951594344402250000005514878846071863479_);}
	.st41{fill:url(#SVGID_00000113314727963781013020000010727918807144298116_);}
	.st42{fill:url(#SVGID_00000070801839058752310660000016963949233477007749_);}
	.st43{fill:url(#SVGID_00000152255133184860484170000013025644040950362559_);}
	.st44{fill:url(#SVGID_00000080886261321518452990000003361500672385380496_);}
	.st45{fill:url(#SVGID_00000114767597483037862850000017850711164769235647_);}
	.st46{fill:url(#SVGID_00000057124587474351053450000007027159908627122065_);}
	.st47{fill:url(#SVGID_00000078013299521640878220000016052015526474170520_);}
	.st48{fill:url(#SVGID_00000143598874365426111290000013276871825810176649_);}
	.st49{fill:url(#SVGID_00000036947981639004625320000005273039225236519866_);}
	.st50{fill:url(#SVGID_00000047782804348948633610000016969858855628768388_);}
	.st51{fill:url(#SVGID_00000136374722525434537180000016801655515821817743_);}
</style>
<g>
	<g>
		<path class="st21" d="M988.4,1.2H878.7h0h0c-121.2,0-219.4,98.2-219.4,219.4l0,109.7V440v109.7H769h109.7V440V330.3v-54.8
			c0-30.3,24.6-54.8,54.8-54.8h54.8h109.7h109.7V110.9h-109.7L988.4,1.2z"/>
		<path class="st21" d="M3182.1,220.6c0-121.2-98.2-219.4-219.4-219.4h0h0h-109.7h-109.7h0h-109.7v109.7h0l109.7,109.7h109.7h54.8
			c30.3,0,54.8,24.6,54.8,54.8s-24.6,54.8-54.8,54.8h-54.8L2743.4,440h-109.7v109.7h109.7h109.7h109.7v0h0
			c121.2,0,219.4-98.2,219.4-219.4v0l0,0V220.6L3182.1,220.6z"/>
		<path class="st21" d="M3346.7,330.3c30.3,0,54.8-24.6,54.8-54.8s-24.6-54.8-54.8-54.8h0c-30.3,0-54.8,24.6-54.8,54.8
			S3316.4,330.3,3346.7,330.3L3346.7,330.3z"/>
		<path class="st21" d="M2688.5,330.3c30.3,0,54.8-24.6,54.8-54.8s-24.6-54.8-54.8-54.8h0c-30.3,0-54.8,24.6-54.8,54.8
			S2658.3,330.3,2688.5,330.3L2688.5,330.3z"/>
		<path class="st21" d="M3730.6,1.2h-109.7h-109.7h-109.7h-109.7v109.7l109.7,109.7l109.7,109.7h109.7h54.8
			c30.3,0,54.8-24.6,54.8-54.8s-24.6-54.8-54.8-54.8h-54.8H3566c-30.3,0-54.8-24.6-54.8-54.8v0c0-30.3,24.6-54.8,54.8-54.8h54.8
			h109.7h109.7V1.2H3730.6z"/>
		<polygon class="st21" points="3620.9,440 3511.2,440 3401.5,440 3291.8,440 3291.8,549.7 3401.5,549.7 3511.2,549.7 3620.9,549.7 
			3730.6,549.7 3840.2,549.7 3730.6,440 		"/>
		<path class="st21" d="M1043.3,330.3L1043.3,330.3c-30.3,0-54.8,24.6-54.8,54.8v0c0,30.3,24.6,54.8,54.8,54.8h0
			c30.3,0,54.8-24.6,54.8-54.8v0C1098.1,354.9,1073.5,330.3,1043.3,330.3z"/>
		<path class="st21" d="M1591.7,220.6l274.2,0V1.2h-109.7v109.7h-109.7L1536.8,1.2h0h0c-121.2,0-219.4,98.2-219.4,219.4l0,0v109.7h0
			v0c0,121.2,98.2,219.4,219.4,219.4h0v0l329.1,0l0-109.7l-109.7-109.7h-109.7h-54.8c-30.3,0-54.8-24.6-54.8-54.8
			S1561.4,220.6,1591.7,220.6z"/>
		<path class="st21" d="M2304.6,1.2L2304.6,1.2H2195c-121.2,0-219.4,98.2-219.4,219.4v329.1h109.7L2195,440h109.7v109.7l109.7,0
			L2524,440V330.3V220.6C2524,99.5,2425.8,1.2,2304.6,1.2z M2195,275.5L2195,275.5c0-30.3,24.6-54.8,54.8-54.8l0,0
			c30.3,0,54.8,24.6,54.8,54.8v0c0,30.3-24.6,54.8-54.8,54.8h0C2219.5,330.3,2195,305.7,2195,275.5z"/>
		<path class="st21" d="M330.3,1.2L330.3,1.2H220.6C99.5,1.2,1.2,99.5,1.2,220.6v329.1h109.7L220.6,440h109.7v109.7l109.7,0
			L549.7,440V330.3V220.6C549.7,99.5,451.5,1.2,330.3,1.2z M220.6,275.5L220.6,275.5c0-30.3,24.6-54.8,54.8-54.8h0
			c30.3,0,54.8,24.6,54.8,54.8v0c0,30.3-24.6,54.8-54.8,54.8h0C245.2,330.3,220.6,305.7,220.6,275.5z"/>
	</g>
</g>
</svg>
