<?xml version="1.0" encoding="utf-8"?>
<!-- Generator: Adobe Illustrator 25.0.0, SVG Export Plug-In . SVG Version: 6.00 Build 0)  -->
<svg version="1.1" id="Layer_1" xmlns="http://www.w3.org/2000/svg" xmlns:xlink="http://www.w3.org/1999/xlink" x="0px" y="0px"
	 viewBox="0 0 1941 2158.6" style="enable-background:new 0 0 1941 2158.6;" xml:space="preserve">
<style type="text/css">
	.st0{fill:#E4202F;}
	.st1{fill:#FFFFFF;}
</style>
<g>
	<g>
		<g>
			<path d="M1933.1,2060.4c-5.3-9.2-12.6-16.5-21.8-21.7c-9.2-5.3-19.1-7.9-29.6-7.9c-10.4,0-20.3,2.6-29.5,7.9
				c-9.3,5.3-16.5,12.5-21.8,21.7c-5.3,9.2-7.9,19.1-7.9,29.7c0,10.8,2.7,20.8,8.2,30c5.5,9.3,12.8,16.5,21.8,21.5
				c9.1,5.1,18.8,7.6,29.2,7.6s20.1-2.5,29.2-7.6c9.1-5.1,16.4-12.3,21.9-21.5c5.5-9.3,8.2-19.3,8.2-30
				C1941,2079.6,1938.4,2069.7,1933.1,2060.4z M1925.1,2115.7c-4.7,7.9-10.8,13.9-18.6,18.2c-7.7,4.3-16,6.4-24.8,6.4
				c-8.8,0-17.1-2.1-24.8-6.4c-7.7-4.3-13.9-10.4-18.5-18.2c-4.6-7.9-7-16.4-7-25.5c0-9,2.2-17.4,6.7-25.2
				c4.5-7.8,10.6-14,18.5-18.4c7.9-4.5,16.2-6.7,25.1-6.7c8.9,0,17.3,2.2,25.1,6.7c7.9,4.5,14,10.6,18.5,18.4
				c4.5,7.8,6.7,16.2,6.7,25.2C1932,2099.3,1929.7,2107.8,1925.1,2115.7z"/>
			<path d="M1898.3,2104.5c-2.9-5.3-5.6-8.8-8.1-10.4c4.9-2.1,8.5-5,10.8-8.8c2.4-3.8,3.5-7.8,3.5-12c0-3.6-0.8-6.9-2.5-10
				c-1.7-3.1-4-5.4-6.9-7.1c-2.9-1.7-7.2-2.5-12.9-2.5H1859v73.2h11.5v-30.8h8.6c1.2,0,3.1,2.4,5.8,7.1l2.4,4.5l10,19.1h13.1
				L1898.3,2104.5z M1878.5,2087.4h-8v-24.8h8.7c4,0,6.9,0.6,8.5,1.7c1.6,1.1,2.8,2.5,3.7,4.1c0.8,1.7,1.3,3.5,1.3,5.6
				c0,3.4-1,6.4-3.1,9.2C1887.5,2086,1883.8,2087.4,1878.5,2087.4z"/>
		</g>
	</g>
	<g>
		<g>
			<path d="M656.5,0.2c35.2-0.2,70.4,0,105.6-0.2c0.1,82.8,0,165.6,0.1,248.2c0.3,69-1.6,138.2-4.5,207.1
				c-4.8,99.6-10.9,199.5-27.5,298.1c-11.3,67.8-34.9,133.4-64,195.6c-47.6,100.2-122.2,185.1-206.3,256.3
				c-75,66-164.8,114.3-259.2,146.8c-53.4,18.3-108.2,32.5-164.2,40.5c0.1-69.3,0.1-138.9,0-208.3c67.3-10.1,132-34,192.2-65.5
				c71.2-37.7,135.6-88.4,189.6-148.2c55.9-61.8,100.3-133.2,134-209c39.7-87.2,61-181.6,75.5-275.9
				c18.1-119.9,25.6-241.2,28.5-362.5C656.7,82.4,656.3,41.2,656.5,0.2z"/>
			<path d="M804.6,0.3c64.8-0.4,129.6,0,194.4-0.2c0,464.2,0,928.5,0,1392.8c-64.6,0.1-129.3-0.3-193.9,0.2
				c-0.8-148.1-0.1-296.1-0.3-444.1C804.6,632.8,804.8,316.5,804.6,0.3z"/>
			<path d="M1042.2,0c35.1,0,70-0.1,104.9,0c-1.2,141.5,3.7,283.4,20.6,424c13.8,109.2,33.3,219.2,76.7,321
				c41.2,98.5,100.7,190,178.2,263.7c74,70.5,163.7,124.8,261.1,156c27.2,8.7,55,15.5,83.2,19.6c0,69.3-0.1,138.7,0,208.1
				c-55.5-7.5-109.9-21.8-162.9-39.9c-63.2-21.9-124.1-50.3-180.2-86.8c-40.9-26.4-78.1-57.9-113.8-90.6
				c-58.9-54.4-111.6-116.1-151.3-186c-31.1-54.5-53.6-113.3-71.2-173.3c-16.2-60.3-23.2-122.6-29.5-184.6
				c-12.2-134-16.7-268.6-15.9-403.1C1042.2,152.3,1042.2,76.3,1042.2,0z"/>
			<path d="M656.5,0.2c-0.1,41.1,0.2,82.1-0.2,123.3c-2.8,121.3-10.4,242.5-28.5,362.5c-14.5,94.3-35.7,188.7-75.5,275.9
				c-33.8,75.9-78.2,147.3-134,209c-54.1,59.9-118.2,110.4-189.6,148.2c-60.1,31.7-124.8,55.5-192.2,65.5
				c0.1,69.3,0.1,138.9,0,208.3c56-7.8,110.8-22,164.2-40.5c94.3-32.6,184-80.7,259.2-146.9c83.9-71.2,158.8-156.1,206.3-256.3
				c29.1-62.2,52.7-127.7,64-195.6c16.5-98.5,22.8-198.3,27.5-298.1c2.9-69,4.8-138.1,4.5-207.1c-0.1-82.7,0.1-165.6-0.1-248.2
				C726.8,0.2,691.7,0,656.5,0.2"/>
			<path d="M804.6,0.3c0.2,316.3,0,632.5,0.1,948.8c0.2,148.1-0.5,296.1,0.3,444.1c64.6-0.6,129.3-0.1,193.9-0.2
				c0-464.2,0-928.5,0-1392.8C934.2,0.3,869.4-0.2,804.6,0.3"/>
			<path d="M1042.2,0c0,76,0,152.2,0,228.2c-0.8,134.5,3.7,269.1,15.9,403.1c6.3,62,13.2,124.3,29.5,184.6
				c17.7,60.1,40.3,118.8,71.2,173.3c39.6,69.9,92.3,131.6,151.3,186c35.7,32.9,72.9,64.2,113.8,90.6c56.1,36.5,117,64.9,180.2,86.8
				c53,18,107.4,32.3,162.9,39.9c-0.1-69.3,0-138.7,0-208.1c-28.3-4.1-56.1-10.9-83.2-19.6c-97.4-31.3-187.1-85.4-261.1-156
				c-77.4-73.7-136.9-165.2-178.2-263.7c-43.6-101.8-63.1-211.8-76.7-321.1c-16.9-140.5-21.6-282.4-20.6-423.9
				C1112.2,0,1077.2,0,1042.2,0"/>
		</g>
		<g>
			<path d="M181.2,1555.6c24.5-31.3,75-36.7,105-10.4c12.3,10.4,20.9,24.6,25.2,40c55.5,191.1,111.3,382,166.7,573.1
				c-32.8,0-65.5-0.1-98.3,0c-15.5-52.7-30.5-105.5-45.8-158.1c-63.4-0.1-126.7,0-190.2-0.1c-15.5,52.8-30.8,105.5-46.1,158.2
				c-32.6-0.1-65.1,0-97.7-0.1c52.8-182.3,105.6-364.5,158.6-546.7C165.1,1592.5,167.5,1571.2,181.2,1555.6 M239,1672.7
				c-23.2,79.1-46,158.5-69,237.6c46.1,0.2,92,0.1,138.1,0.1C285,1831.2,262.1,1752,239,1672.7z"/>
			<path d="M871.5,1559.7c17.1-24.8,50.1-36.8,79.1-29.1c26.6,6.1,47,29,54.1,54.9c55.5,191,111.1,381.7,166.6,572.7
				c-32.9,0.2-65.6,0-98.4,0.1c-15.3-52.8-30.4-105.5-45.8-158.2c-63.3,0-126.5-0.1-189.8,0c-15.2,52.8-30.7,105.4-45.9,158.1
				c-32.5,0-65.1,0-97.6,0c52.8-183.3,106-366.3,159.2-549.5C858.5,1592.3,860.7,1574.1,871.5,1559.7 M863.4,1910.5
				c45.9,0.1,91.7,0,137.6,0c-22.8-79.4-46-158.8-68.7-238.1C909.4,1751.8,886.2,1831,863.4,1910.5z"/>
			<path d="M404.9,1529.7c118.5,0,237,0,355.6,0c0,32,0,64,0,95.9c-43.7,0-87.2,0-130.9,0c0,177.5,0,355.1,0,532.6
				c-31.3,0-62.5,0-93.7,0c0-177.5,0-355.1,0-532.6c-43.7-0.1-87.2,0-130.9,0C404.9,1593.7,404.9,1561.7,404.9,1529.7z"/>
			<path d="M1275.4,1533.6c9-3.1,18.7-4.1,28.2-3.9c37.4,0.1,74.7,0,112.1,0c63,1.2,123,40.3,150.3,96.9
				c18.9,36.8,20.8,79.5,16.1,119.9c-3.3,42.3-21,84.5-53.5,112.5c-17.2,15.3-38.6,24.6-56.9,38.2c-10.1,7.6-10.6,22.6-5.4,33.3
				c49.6,76.5,101.1,152,151.8,227.9c-37.1,0.1-74-0.1-111.1,0.1c-48.5-72.8-96.5-146.1-144.8-218.9c-14.2-20.8-18.1-48.3-9.5-71.9
				c6.7-18.2,22.6-31.5,40.3-38.4c33.8-12.9,67-33.2,85.8-65c14.2-24,13.5-53.5,7.1-79.6c-7.5-34-40.7-60.8-75.7-59.7
				c-24.3,0.2-48.4-0.1-72.6,0.1c-10.9-0.2-21.3,9.3-21.1,20.3c-0.1,171.1,0,341.9-0.1,513c-31.5-0.1-63.1,0-94.4,0
				c-0.1-184.1,0.1-368.1-0.1-552.3C1221.8,1573.7,1244.8,1543.3,1275.4,1533.6z"/>
			<path d="M1667.6,1529.7c33.2,0,66.2,0,99.4,0c0,209.6,0.1,419.1-0.1,628.5c-33.2-0.1-66.1,0-99.3,0
				C1667.6,1948.6,1667.6,1739.2,1667.6,1529.7z"/>
		</g>
	</g>
</g>
</svg>
