<?xml version="1.0" encoding="utf-8"?>
<!-- Generator: Adobe Illustrator 26.0.3, SVG Export Plug-In . SVG Version: 6.00 Build 0)  -->
<svg version="1.1" id="Layer_1" xmlns="http://www.w3.org/2000/svg" xmlns:xlink="http://www.w3.org/1999/xlink" x="0px" y="0px"
	 viewBox="0 0 3839 726.3" style="enable-background:new 0 0 3839 726.3;" xml:space="preserve">
<style type="text/css">
	.st0{fill:#231F20;}
	.st1{fill:#FFFFFF;}
	.st2{display:none;}
	.st3{display:inline;fill:#FF0642;}
	.st4{display:inline;fill:#FFFFFF;stroke:#000000;stroke-width:0.6411;stroke-miterlimit:10;}
	.st5{display:inline;fill:#FFCB04;}
</style>
<g>
	<path class="st0" d="M1507.3,167.6v238.9c0,0,160.9-67,160.9-161.6C1668.2,128,1507.3,167.6,1507.3,167.6"/>
	<path class="st0" d="M2751.9,155.5c-70.2,0-164.4,41.3-164.4,206.3s83.9,206.3,164.4,206.3c80.4,0,166.1-51.6,166.1-206.3
		C2918,207.1,2822.1,155.5,2751.9,155.5"/>
	<polyline class="st0" points="887.6,363.5 1000.5,363.5 942.4,200.2 887.6,363.5 	"/>
	<path class="st0" d="M570.9,642.1H392.8C180.5,642.1,62.4,475.3,62.4,355c0-184.5,159.8-286.9,304.7-286.9
		c140.4,0,225.1,107.7,225.1,107.7l-96.7,101.9c0,0-5.1,2.6-9.4,2.6c-4.3,0-10.3-4.3-10.3-4.3l-12-10.3c0,0-3.4-0.8-3.4-4.3
		c0-3.4,9.4-12,9.4-28.3c0-16.3-3.4-84.2-107.8-84.2s-150.7,98-150.7,178.8c0,80.8,49.7,228.7,212.3,228.7
		c94.6,0,114.7-53.3,114.7-53.3h32.5V642.1z M1267.6,643.8h-214.9v-41.3c0,0,13.7,1.7,20.6-10.3c6.9-12,6.9-21.5,1.7-33.5
		c-5.1-12-41.1-107.5-41.1-107.5H858.5c0,0-36,96.2-39.4,104.9c-3.4,8.6-3.4,22.4,0,30.9c5.7,14.3,25.7,16.4,25.7,16.4v40.4h-172
		v-40.4c0,0,15.6-5.4,27.3-17.2c12.9-12.9,17.1-26.6,17.1-26.6L891.8,83.4h146.4l178,467.5c5.1,12.9,13.8,25,22.3,35.2
		c8.5,10.3,29.1,17.2,29.1,17.2V643.8z M1675,423.7c-73.1,33.8-169.4,60.2-169.4,60.2v89.4c0,0,0.8,6,9.4,16.4
		c8.6,10.3,18,12.9,18,12.9v41.3h-198.6v-40.4c0,0,12-2.6,20.6-11.2c8.6-8.6,10.3-18.9,10.3-18.9v-404c0,0,0.8-17.2-6-24.1
		c-6.9-6.9-23.1-16.3-23.1-16.3V83.4c0,0,172.9,0,273.9,0c101,0,202,36.1,202,153S1738.4,394.5,1675,423.7z M2175,149.7
		c-104.4,0-150.7,98-150.7,178.8c0,80.8,49.7,228.7,212.3,228.7c94.7,0,114.7-53.3,114.7-53.3h32.5V643h-178.1
		c-212.3,0-330.4-166.7-330.4-287.1c0-184.5,159.8-286.9,304.7-286.9c140.4,0,225.1,107.7,225.1,107.7l-96.7,101.9
		c0,0-5.1,2.5-9.4,2.5c-4.3,0-10.3-4.3-10.3-4.3l-12-10.3c0,0-3.4-0.9-3.4-4.3c0-3.4,9.4-12,9.4-28.3
		C2282.8,217.6,2279.4,149.7,2175,149.7z M2751.9,659.9c-184.9,0-317.8-135.6-317.8-300.6s136.3-292.9,317.8-292.9
		c181.4,0,317.8,127.9,317.8,292.9S2936.8,659.9,2751.9,659.9z M3779.9,644.1h-204.6v-37.2c0,0,18-2.6,24-11.2
		c6-8.6,8.6-13.8,6.9-27.5c-1.7-13.8-50.5-326.6-50.5-326.6l-89.1,276.7h-107.8l-88.2-259.5l-44.5,305.9c0,0-1.7,18.4,5.2,28.4
		c9.4,13.8,26.5,13.8,26.5,13.8v37h-177.2v-39.6c0,0,14.1-2.2,24.4-14.1c10.3-12,12-27.5,12-27.5l64.6-403.6c0,0,3.8-15-0.4-21.9
		c-4.5-7.2-28.7-13.3-28.7-13.3v-40h203.8l73.6,228.3l78.7-228.7h213.2v33.5c0,0-14.3,6-20.6,13.8c-7.7,9.4-7.7,16.3-6,30.1
		c1.7,13.8,56.5,386.8,58.2,400.5c1.7,13.8,3.4,21.5,6.8,31c3.4,9.4,19.7,17.1,19.7,17.1V644.1z"/>
	<path class="st1" d="M1507.3,167.6v238.9c0,0,160.9-67,160.9-161.6C1668.2,128,1507.3,167.6,1507.3,167.6"/>
	<path class="st1" d="M2751.9,155.5c-70.2,0-164.4,41.3-164.4,206.3s83.9,206.3,164.4,206.3c80.4,0,166.1-51.6,166.1-206.3
		C2918,207.1,2822.1,155.5,2751.9,155.5"/>
	<polyline class="st1" points="887.6,363.5 1000.5,363.5 942.4,200.2 887.6,363.5 	"/>
	<path d="M678.7,172.8L497.2,365.3l-119.8-82.5c0,0,39.4-37.8,3.4-65.3c-28.1-21.4-106.7,24.1-103.4,113.5
		c4,103.1,67.5,161.5,137.6,161.5c65,0,82.1-52.7,82.1-52.7h145.9v121.5L848.2,18h234.5L1271,506.2c0,0,13.7,25.8,27.4,32.7
		c0,0,0.8-320.3,0.8-329.3c0-9-1.2-18.9-6.8-25.3c-9.2-10.7-24.8-15-24.8-15V18c0,0,217.3,0,328.7,0c170.4,0,214.2,46.5,263.6,135.8
		c68.3-92.3,162.2-153,296.2-153c137.9,0,235.4,51,291.1,135.8C2525,43.3,2650.2,0,2764.8,0c140.8,0,258.4,68.4,319.3,174.5V18
		h316.7l33.4,85.1L3459,18h327l0,147.8c-23.1,11.2-32.4,22.6-28.3,49l45.7,292.2c1.9,9.5,5.2,19.4,13.4,26.7
		c9.5,8.5,22.3,6.9,22.3,6.9v168.5h-328.7V581.8H3322v127.6h-309v-82.9c0,0-112.9,99.7-258.5,99.7c-186.2,0-310.7-137.5-310.7-137.5
		v120.3c0,0-13.7,0-219.2,0c-195,0-362.4-107.2-409.2-302.5c-22.2,21.2-119.9,91.3-237.1,117.7c-9.1,2-13.7,5.5-13.7,15.5
		c0,18.1,38.6,24.5,38.6,24.5v144.8c0,0-1013.5,0-1201.8,0C178.8,709.1,0,556.1,0,361.9S139.4,2.5,370.5,2.5
		C591.4,2.5,678.7,172.8,678.7,172.8"/>
	<path class="st1" d="M891.8,83.3h146.4l178.1,467.6c5.1,12.9,13.7,24.9,22.3,35.2c8.5,10.3,29.1,17.2,29.1,17.2v40.4h-214.9v-41.3
		c0,0,13.7,1.8,20.6-10.3c6.9-12,6.9-21.5,1.7-33.5c-5.1-12-41.1-107.5-41.1-107.5H858.5c0,0-36,96.3-39.4,104.9
		c-3.4,8.6-3.4,22.4,0,30.9c5.7,14.3,25.7,16.4,25.7,16.4v40.4h-172v-40.4c0,0,15.6-5.4,27.3-17.2c12.9-12.9,17.2-26.7,17.2-26.7
		L891.8,83.3 M887.6,363.5h113l-58.2-163.3L887.6,363.5z"/>
	<path class="st1" d="M1336.1,83.3c0,0,172.9,0,273.9,0c101,0,202,36.1,202,153s-73.6,158.1-137,187.3
		c-73.1,33.8-169.5,60.2-169.5,60.2v89.3c0,0,0.8,6,9.4,16.4c8.5,10.3,18,12.9,18,12.9v41.3h-198.6v-40.4c0,0,12-2.6,20.6-11.2
		c8.6-8.6,10.3-18.9,10.3-18.9v-404c0,0,0.8-17.2-6-24.1c-6.9-6.9-23.1-16.3-23.1-16.3V83.3 M1507.3,167.6v238.9
		c0,0,160.9-67,160.9-161.6C1668.2,128,1507.3,167.6,1507.3,167.6z"/>
	<path class="st1" d="M2751.9,659.9c-184.9,0-317.8-135.6-317.8-300.6s136.3-293,317.8-293c181.5,0,317.8,127.9,317.8,293
		S2936.8,659.9,2751.9,659.9 M2587.6,361.9c0,165,83.9,206.3,164.4,206.3c80.4,0,166.1-51.6,166.1-206.3
		c0-154.7-95.9-206.3-166.1-206.3C2681.7,155.6,2587.6,196.8,2587.6,361.9z"/>
	<path class="st1" d="M3152.5,83.7h203.7l73.6,228.3l78.7-228.7h213.1v33.5c0,0-14.2,6-20.6,13.8c-7.7,9.4-7.7,16.4-6,30.1
		c1.7,13.8,56.5,386.8,58.2,400.5c1.7,13.8,3.5,21.5,6.9,31c3.4,9.4,19.7,17.2,19.7,17.2V644h-204.6v-37.2c0,0,18-2.6,23.9-11.2
		c6-8.6,8.6-13.8,6.8-27.5c-1.7-13.8-50.5-326.6-50.5-326.6l-89,276.8h-107.8l-88.2-259.6l-44.5,306c0,0-1.7,18.3,5.1,28.3
		c9.4,13.8,26.5,13.8,26.5,13.8v36.9h-177.2v-39.5c0,0,14.1-2.2,24.4-14.2c10.3-12,12-27.5,12-27.5l64.6-403.5
		c0,0,3.9-15.1-0.4-21.9c-4.5-7.2-28.7-13.4-28.7-13.4V83.7"/>
	<path class="st1" d="M592.2,175.7l-95.5,100.6c-5,5.3-13.3,5.8-18.9,1.2l-16.2-13.3c-0.7-0.6-1.1-1.6-1.1-2.9
		c0-3.4,9.4-12,9.4-28.3c0-16.4-3.4-84.2-107.8-84.2c-104.4,0-150.7,98-150.7,178.8c0,80.8,49.7,228.7,212.3,228.7
		c94.6,0,114.7-53.3,114.7-53.3h32.5V642H392.8C180.5,642,62.4,475.3,62.4,355c0-184.5,159.8-286.9,304.7-286.9
		C507.5,68.1,592.2,175.7,592.2,175.7"/>
	<path class="st1" d="M2405.3,176.7l-95.5,100.6c-5,5.3-13.3,5.8-18.9,1.2l-16.2-13.3c-0.7-0.6-1.1-1.6-1.1-2.9
		c0-3.4,9.4-12,9.4-28.3c0-16.4-3.4-84.2-107.8-84.2c-104.4,0-150.7,98-150.7,178.8c0,80.8,49.7,228.7,212.3,228.7
		c94.6,0,114.7-53.3,114.7-53.3h32.5V643h-178.1c-212.3,0-330.4-166.7-330.4-287.1c0-184.5,159.8-286.9,304.7-286.9
		C2320.5,69.1,2405.3,176.7,2405.3,176.7"/>
</g>
</svg>
