<?xml version="1.0" encoding="utf-8"?>
<!-- Generator: Adobe Illustrator 25.0.0, SVG Export Plug-In . SVG Version: 6.00 Build 0)  -->
<svg version="1.1" id="Layer_1" xmlns="http://www.w3.org/2000/svg" xmlns:xlink="http://www.w3.org/1999/xlink" x="0px" y="0px"
	 viewBox="0 0 3839 891.3" style="enable-background:new 0 0 3839 891.3;" xml:space="preserve">
<style type="text/css">
	.st0{fill:#FFFFFF;}
	.st1{fill:url(#SVGID_1_);}
	.st2{fill:url(#SVGID_2_);}
</style>
<g>
	<g>
		<polygon points="222.8,891.3 0,891.3 210.8,0 433.6,0 		"/>
		<polygon points="558.1,85 403.9,737 626.7,737 780.9,85 		"/>
		<polygon points="820.7,170 706.7,652 929.5,652 1043.5,170 		"/>
		<g>
			<polygon class="st0" points="408.7,730.9 218.7,6.1 428.8,6.1 618.8,730.9 			"/>
			<path d="M424.1,12.3l186.7,712.5H413.4L226.7,12.3H424.1 M433.6,0H210.8l193.2,737h222.8L433.6,0L433.6,0z"/>
		</g>
		<g>
			<polygon class="st0" points="711.5,645.9 566.1,91.2 776.2,91.2 921.5,645.9 			"/>
			<path d="M771.4,97.3l142.2,542.4H716.2L574,97.3H771.4 M780.9,85H558.1l148.6,567h222.8L780.9,85L780.9,85z"/>
		</g>
	</g>
	<g>
		<g>
			<path d="M1588.5,336.8l8.8-32.8h-275l3.1,32.8h88.4l-45.4,191.8c-3.8,16.2,8.4,31.7,25.1,31.7h53.2l52.8-223.5H1588.5z"/>
			<path d="M2933.1,304.2l-52.8,223.3h-41.1l52.8-223.4h-85.7l-52.8,223.4h-41.1l52.8-223.4h-85.7l-53.1,224.7
				c-3.8,16.2,8.4,31.7,25.1,31.7l306.9,0.1l60.6-256.3H2933.1z"/>
			<path d="M3483.1,304.1l-52.8,223.3h-31.7L3378.2,304h-83.8l21.3,232.9c1.2,13.3,12.3,23.4,25.6,23.4l166.9,0.1l60.6-256.3H3483.1
				z"/>
			<path d="M3647.4,304l-37.5,0.2l-53.1,224.7c-3.8,16.2,8.4,31.7,25.1,31.7h53.2l143.4-0.2l7.8-32.8h-143.3l23.3-98.6h126.9
				l7.8-32.8H3674l14-59.2h143.3l7.7-32.7L3647.4,304z"/>
			<path d="M1628.5,304.3l-53.1,224.6c-3.8,16.2,8.5,31.7,25.1,31.7l198-0.2l53.1-224.6c3.8-16.2-8.5-31.7-25.1-31.7L1628.5,304.3z
				 M1661.5,527.5l45.1-190.7h59l-45.1,190.7H1661.5z"/>
			<path d="M1900.2,304l-60.6,256.3h85.7l52.8-223.5h41.1l-52.8,223.6h85.7l52.9-223.6h41.1l-52.9,223.6h85.7l53.1-224.7
				c3.8-16.2-8.4-31.7-25.1-31.7L1900.2,304z"/>
			<path d="M2280.8,304.2l-53.1,224.7c-3.8,16.2,8.4,31.7,25.1,31.7h53.2l60.6-256.3H2280.8z"/>
			<path d="M1104.1,304l-60.6,256.3h85.7l15.7-66.7h83.1l6.1,66.7h83.8l-21.3-232.9c-1.2-13.3-12.3-23.4-25.7-23.4H1104.1z
				 M1152.7,460.8l29.3-124h31.6l11.3,124H1152.7z"/>
			<path d="M3060.2,304l-60.6,256.3h85.7l15.8-66.7h83.1l6.1,66.7h83.8l-21.3-232.9c-1.2-13.3-12.3-23.4-25.7-23.4H3060.2z
				 M3108.8,460.8l29.3-124h31.7l11.3,124H3108.8z"/>
			<path d="M2471.7,396l14-59.2h144.8l7.8-32.8l-230.6,0.3l-22,92.9c-3.8,16.2,8.4,31.7,25.1,31.7h112.2l-23.3,98.6h-144.7
				l-7.8,32.8h230.6l31.3-132.6c3.8-16.2-8.5-31.7-25.1-31.7H2471.7z"/>
		</g>
	</g>
</g>
</svg>
