<?xml version="1.0" encoding="utf-8"?>
<!-- Generator: Adobe Illustrator 25.4.1, SVG Export Plug-In . SVG Version: 6.00 Build 0)  -->
<svg version="1.1" id="Layer_1" xmlns="http://www.w3.org/2000/svg" xmlns:xlink="http://www.w3.org/1999/xlink" x="0px" y="0px"
	 viewBox="0 0 3839 1260.2" style="enable-background:new 0 0 3839 1260.2;" xml:space="preserve">
<style type="text/css">
	.st0{fill:#FFFFFF;}
</style>
<g>
	<g>
		<path d="M395.6,1010.4l-9.7-4.2c0.6-1.9,1.2-4.2,1.2-6.5c0-6.1-56.9-38.7-155.7-38.7c-94.5,0-135.1,22.4-135.1,51.3
			c0,76.4,356.8-35.4,356.8,133.3c0,61.5-77.5,109-232.6,109c-147.8,0-190.2-36.3-204.2-36.3c-3.6,0-5.5,2.3-8.5,3.7l-7.9-1.4
			l50.3-79.2l9.7,3.7c0,1.9-1.2,3.7-1.2,7.5c0,27.5,78.1,47.1,155.7,47.1c110.3,0,147.8-24.2,147.8-49.9c0-91.3-352,21.9-352-132.8
			c0-78.3,107.2-110.9,224.8-110.9c105.4,0,179.3,35.4,186.6,35.4c7.9,0,9.1-1.9,10.9-3.3l9.7,2.3L395.6,1010.4z"/>
		<path d="M590.7,910.7v6.5c-4.2,0-7.9,1.9-7.9,4.2c0,3.3,3.6,6.1,8.5,11.2l107.8,114.2l111.5-116.5c2.4-2.8,4.8-5.6,4.8-7
			c0-2.8-4.2-5.6-8.5-6.1v-6.5h124.2v6.5c-12.7,0.5-23,7.9-31.5,17.2l-158.1,169.2v125.8c0,10.3,3,14,15.1,14v6.5H640.9v-6.5
			c12.1,0,14.5-3.7,14.5-14v-125.8L488.9,934.4c-9.1-9.3-15.1-17.2-29.7-17.2v-6.5H590.7z"/>
		<path d="M1307.9,1010.4l-9.7-4.2c0.6-1.9,1.2-4.2,1.2-6.5c0-6.1-56.9-38.7-155.7-38.7c-94.5,0-135.1,22.4-135.1,51.3
			c0,76.4,356.8-35.4,356.8,133.3c0,61.5-77.5,109-232.6,109c-147.8,0-190.2-36.3-204.2-36.3c-3.6,0-5.5,2.3-8.5,3.7l-7.9-1.4
			l50.3-79.2l9.7,3.7c0,1.9-1.2,3.7-1.2,7.5c0,27.5,78.1,47.1,155.7,47.1c110.3,0,147.8-24.2,147.8-49.9c0-91.3-352,21.9-352-132.8
			c0-78.3,107.2-110.9,224.8-110.9c105.4,0,179.3,35.4,186.6,35.4c7.9,0,9.1-1.9,10.9-3.3l9.7,2.3L1307.9,1010.4z"/>
		<path d="M1658.1,1229.4c0,10.3,3,14,18.8,14v6.5h-123v-6.5c15.8,0,18.2-3.7,18.2-14V965.6h-146c-14.5,0-20.6,3.7-20.6,11.7h-8.5
			v-77.8h8.5c0,7.5,6.1,11.2,20.6,11.2h378c14.5,0,20.6-3.7,20.6-11.2h8.5v77.8h-8.5c0-7.9-6.1-11.7-20.6-11.7h-146V1229.4z"/>
		<path d="M1873.8,1243.4c13.3,0,15.8-3.7,15.8-14V931.2c0-10.3-2.4-14-15.8-14v-6.5h393.2c14.5,0,20.6-3.7,20.6-10.3h8.5v77.4h-8.5
			c0-8.4-6.1-12.1-20.6-12.1h-291.4v82.9h190.2c14.5,0,20.6-3.7,20.6-12.1h8.5v78.3h-8.5c0-3.7-1.2-6.5-4.8-8.4
			c-3-1.9-8.5-2.8-15.8-2.8h-190.2v91.3h296.8c14.5,0,20.6-3.7,20.6-11.2h8.5v76.4h-8.5c0-6.5-6.1-10.3-20.6-10.3h-398.6V1243.4z"/>
		<path d="M2855.8,910.7v6.5c-13.9,0-16.4,3.7-16.4,14v298.2c0,10.3,2.4,14,16.4,14v6.5h-116.9v-6.5c12.1,0,14.5-3.7,14.5-14v-209.2
			h-1.2l-156.3,229.7h-8.5l-154.5-232.1h-1.2v211.6c0,10.3,2.4,14,18.2,14v6.5H2342v-6.5c13.3,0,15.8-3.7,15.8-14V931.2
			c0-10.3-2.4-14-15.8-14v-6.5h134.5v6.5c-7.9,0-15.8,3.3-15.8,8.9c0,4.2,4.2,8.4,13.3,21.9l122.4,179.9l134.5-192
			c3-3.7,6.7-8.9,6.7-12.1c0-4.2-5.5-6.1-15.8-6.5v-6.5H2855.8z"/>
		<path d="M3262.1,996.4c-46,0.9-53.3,7.5-55.7,18.6h-8.5v-74.6h8.5c0,7.5,6.7,10.3,15.1,10.3c12.7,0,41.8-9.8,41.8-21.9
			c0-7-7.3-11.7-15.8-11.7v-6.5h118.7v6.5c-13.3,0-18.2,5.6-18.2,16.8v292.7c0,11.2,4.8,16.8,18.2,16.8v6.5h-122.4v-6.5
			c13.3,0,18.2-5.6,18.2-16.8V996.4z"/>
		<path d="M3768.7,1007.6l-7.3-2.8c1.2-1.9,1.2-3.3,1.2-5.1c0-11.2-35.7-38.7-107.2-38.7c-86,0-142.4,35-148.4,102.5
			c45.4-30.3,98.1-40.1,149-40.1c92.7,0,183,37.3,183,112.3c0,86.2-103,118.8-200.5,118.8c-141.8,0-217.5-63.8-217.5-170.1
			S3513.1,906,3651.2,906c43.6,0,76.9,7.5,101.2,14.9c24.2,7.5,39.4,14.9,45.4,14.9c4.8,0,6.7-1.9,9.1-4.2l7.9,2.3L3768.7,1007.6z
			 M3637.9,1078.4c-72.7,0-115.1,31.7-115.1,60.6c0,41.9,42.4,60.6,115.1,60.6c72.7,0,115.1-18.6,115.1-60.6
			C3753,1097.1,3710.6,1078.4,3637.9,1078.4z"/>
	</g>
	<g>
		<g>
			<g>
				<g>
					<path d="M1044.8,500.9H730.2v98.2h314.6c60.4,0,110.8-50.3,110.8-110.8s-50.3-110.8-110.8-110.8h-80.5
						c-73,0-133.4-60.4-133.4-133.4s60.4-133.4,133.4-133.4h312.1V12.6H961.8c-128.4,0-231.6,103.2-231.6,231.6
						s103.2,231.6,231.6,231.6h80.5c7.6,0,12.6,5,12.6,12.6C1054.9,495.9,1049.8,500.9,1044.8,500.9z"/>
					<path d="M961.8,234.1h314.6V133.4H961.8c-60.4,0-110.8,50.3-110.8,110.8s50.3,110.8,110.8,110.8h80.5
						c73,0,133.4,60.4,133.4,133.4s-60.4,133.4-133.4,133.4H730.2v98.2h314.6c128.4,0,231.6-103.2,231.6-231.6
						s-103.2-231.6-231.6-231.6h-80.5c-7.6,0-12.6-5-12.6-12.6C951.7,239.1,956.7,234.1,961.8,234.1z"/>
				</g>
				<g>
					<path d="M2091.9,133.4c-42.8,0-75.5,32.7-75.5,75.5v314.6c0,42.8,32.7,75.5,75.5,75.5h203.9V377.6h-156.1v98.2h57.9v22.7h-57.9
						c-12.6,0-22.7-10.1-22.7-22.7V254.2c0-12.6,10.1-22.7,22.7-22.7h279.4v-98.2H2091.9z"/>
					<path d="M2711.1,599.1h229.1l-156.1-463.1c-5-12.6-15.1-22.7-30.2-22.7c-12.6,0-25.2,10.1-30.2,20.1l-201.4,586.5h115.8
						l70.5-208.9v88.1H2711.1z M2751.4,387.6l32.7,100.7h-68L2751.4,387.6z"/>
					<path d="M2904.9,115.8C2884.8,50.3,2824.4,0,2751.4,0s-133.4,47.8-151,113.3l-183.7,538.7V256.7h-276.9v98.2H2321v266.8h-226.5
						c-55.4,0-98.2-45.3-98.2-98.2V208.9c0-55.4,45.3-98.2,98.2-98.2h324.7V12.6h-327.2c-108.2,0-196.3,88.1-196.3,196.3v314.6
						c0,108.2,88.1,196.3,196.3,196.3h405.2l203.9-591.5c7.6-22.7,27.7-37.8,52.9-37.8c25.2,0,45.3,15.1,52.9,37.8l166.1,493.3
						h-261.8v98.2h397.7l0,0L2904.9,115.8z"/>
				</g>
				<g>
					<path d="M1520.5,621.7c-55.4,0-98.2-45.3-98.2-98.2V208.9c0-55.4,45.3-98.2,98.2-98.2h337.3V12.6h-337.3
						c-108.2,0-196.3,88.1-196.3,196.3v314.6c0,108.2,88.1,196.3,196.3,196.3h337.3v-98.2H1520.5z"/>
					<path d="M1543.2,478.2h244.2v-98.2H1445v146c0,42.8,32.7,75.5,75.5,75.5h337.3v-98.2h-292
						C1553.3,500.9,1543.2,490.8,1543.2,478.2z"/>
					<path d="M1787.4,256.7h-244.2c0-12.6,10.1-22.7,22.7-22.7h289.5V133.4h-334.8c-42.8,0-75.5,32.7-75.5,75.5v146h342.3
						C1787.4,354.9,1787.4,256.7,1787.4,256.7z"/>
				</g>
			</g>
		</g>
	</g>
</g>
</svg>
