<?xml version="1.0" encoding="utf-8"?>
<!-- Generator: Adobe Illustrator 25.4.1, SVG Export Plug-In . SVG Version: 6.00 Build 0)  -->
<svg version="1.1" id="Layer_1" xmlns="http://www.w3.org/2000/svg" xmlns:xlink="http://www.w3.org/1999/xlink" x="0px" y="0px"
	 viewBox="0 0 3839 2189.3" style="enable-background:new 0 0 3839 2189.3;" xml:space="preserve">
<style type="text/css">
	.st0{fill:#FFFFFF;}
</style>
<g>
	<g>
		<path d="M484.7,2183.4v-339.7h-388v-388H48.4v679.4h48.4v-243h48.4v291.3H0v-776.1h145.1v388h388V2135h48.4v-679.4h-48.4v291.3
			H193.4v-48.4h291.3v-291.3h145.1v776.1L484.7,2183.4L484.7,2183.4z"/>
		<path d="M803.2,2183.4v-776.1h145.1v48.4h-96.7v679.4H900v-631h48.4v679.4L803.2,2183.4L803.2,2183.4z"/>
		<path d="M1563.9,2183.4L1315,1875.6v-76.7l271.3,336.1h63.7l-313.7-389.2l289-290.1h-69.6l-289,291.3v436.4h-145.1v-776.1h145.1
			v200.5l-48.4,48.4v-200.5H1170v679.4h48.4v-409.3l318.4-318.4h201.7L1400,1750.5l351.5,432.9H1563.9z"/>
		<path d="M2295.1,2183.4l-66-194.6h-232.3l-67.2,194.6h-155.7l264.2-776.1h154.5l-54.3,163.9l110.9,320.8h-273.6l83.7-245.3
			l27.1,79l-42.5,117.9h135.6l-93.2-273.6l38.9-114.4h-51.9L1839.8,2135h51.9l67.2-194.6h305.5l66,194.6h51.9l-192.2-563.8
			l27.1-77.8l234.7,690H2295.1z"/>
		<path d="M2974.5,2183.4l-194.6-339.7h-96.7v339.7h-145.1v-776.1h316.1c93.2,0,168.7,75.5,168.7,167.5S2951,1747,2857.8,1747
			h-222.9v-243h181.6c71.9,0,109.7,16.5,109.7,96.7h-5.9c0-43.6-38.9-48.4-73.1-48.4h-163.9v146.2h176.9
			c67.2,0,114.4-60.2,114.4-123.8c0-64.9-53.1-119.1-117.9-119.1h-270.1V2135h48.4v-339.7h168.7l194.6,339.7h56.6l-194.6-339.7
			c107.3,0,206.4-80.2,206.4-192.2h4.7c0,96.7-34.2,195.8-134.5,227.6l200.5,352.7H2974.5z"/>
		<path d="M3519.4,2189.3c-180.5,0-316.1-172.2-316.1-344.4v-437.6h145.1v437.6c0,103.8,59,198.1,172.2,198.1
			c234.7,0,263-324.3,264.2-497.7v-89.6h-48.4v17.7c0,115.6-1.2,290.1-42.5,389.2h-5.9v-455.3h146.3v145.1
			c0,201.7-50.7,539-313.7,539c-145.1,0-220.6-110.9-220.6-246.5v-389.2h-48.4v386.9c0,163.9,94.4,297.2,268.9,297.2
			c119.1,0,215.8-63.7,272.4-166.3c14.2-25.9,36.6-74.3,41.3-102.6h4.7C3839,2041.9,3689.2,2189.3,3519.4,2189.3z"/>
	</g>
	<g>
		<path class="st0" d="M3489.7,230.4C3447.4,96,3320.7,0,3174.9,0c-145.9,0-272.6,96-314.8,230.3l-111.3,330.2V19.2h-583.5
			c-103.7,0-199.6,42.2-272.6,111.3V19.2h-598.9c-111.3,0-211.1,46.1-284.1,122.8V19.2H441.5C199.6,19.2,0,218.9,0,460.7
			c0,115.2,46.1,222.7,119,299.5H0v514.4h568.2c161.2,0,299.4-84.5,380.1-215c65.3,126.7,195.8,215,349.3,215h602.7v-111.3
			c69.1,69.1,165.1,111.3,272.6,111.3H3839L3489.7,230.4z"/>
		<g>
			<g>
				<path d="M568.2,852.3H88.3V1002h479.9c92.1,0,168.9-76.8,168.9-168.9s-76.8-168.9-168.9-168.9H445.3
					c-111.3,0-203.5-92.1-203.5-203.5S334,257.3,445.3,257.3h476V107.5H441.5c-195.8,0-353.2,157.4-353.2,353.2
					s157.4,353.2,353.2,353.2h122.8c11.5,0,19.2,7.7,19.2,19.2S575.8,852.3,568.2,852.3z"/>
				<path d="M441.5,445.4h479.9V291.8H441.5c-92.1,0-168.9,76.8-168.9,168.9s76.8,168.9,168.9,168.9h122.8
					c111.3,0,203.5,92.1,203.5,203.5s-92.1,203.5-203.5,203.5h-476v149.7h479.9c195.8,0,353.2-157.4,353.2-353.2
					S764,479.9,568.2,479.9H445.3c-11.5,0-19.2-7.7-19.2-19.2C426.1,453,433.8,445.4,441.5,445.4z"/>
			</g>
			<g>
				<path d="M2165.2,291.8c-65.3,0-115.2,49.9-115.2,115.2v479.9c0,65.3,49.9,115.2,115.2,115.2h311V664.2h-238v149.7h88.3v34.6
					h-88.3c-19.2,0-34.6-15.4-34.6-34.6V476.1c0-19.2,15.4-34.6,34.6-34.6h426.1V291.8H2165.2z"/>
				<path d="M3109.6,1002h349.3l-238-706.4c-7.7-19.2-23-34.6-46.1-34.6c-19.2,0-38.4,15.4-46.1,30.7l-307.1,894.5h176.6
					l107.5-318.6V1002L3109.6,1002L3109.6,1002z M3171,679.5l49.9,153.6h-103.7L3171,679.5z"/>
				<path d="M3405.2,264.9c-30.7-99.8-122.8-176.6-234.2-176.6s-203.5,72.9-230.3,172.8l-280.2,821.5V479.9h-422.3v149.7h276.4
					v406.9H2169c-84.5,0-149.7-69.1-149.7-149.7V407c0-84.5,69.1-149.7,149.7-149.7h495.2V107.5h-499.1
					c-165.1,0-299.4,134.4-299.4,299.4v479.9c0,165.1,134.4,299.4,299.4,299.4h618.1l311-902.2c11.5-34.6,42.2-57.6,80.6-57.6
					c38.4,0,69.1,23,80.6,57.6l253.4,752.4h-399.3v149.7h606.6l0,0L3405.2,264.9z"/>
			</g>
			<g>
				<path d="M1293.7,1036.6c-84.5,0-149.7-69.1-149.7-149.7V407c0-84.5,69.1-149.7,149.7-149.7h514.4V107.5h-514.4
					c-165.1,0-299.4,134.4-299.4,299.4v479.9c0,165.1,134.4,299.4,299.4,299.4h514.4v-149.7L1293.7,1036.6L1293.7,1036.6z"/>
				<path d="M1328.3,817.7h372.4V668h-522.1v222.7c0,65.3,49.9,115.2,115.2,115.2h514.4V856.1h-445.3
					C1343.7,852.3,1328.3,836.9,1328.3,817.7z"/>
				<path d="M1700.7,479.9h-372.4c0-19.2,15.4-34.6,34.6-34.6h441.5V291.8h-510.6c-65.3,0-115.2,49.9-115.2,115.2v222.7h522.1
					C1700.7,629.6,1700.7,479.9,1700.7,479.9z"/>
			</g>
		</g>
	</g>
</g>
</svg>
