<?xml version="1.0" encoding="utf-8"?>
<!-- Generator: Adobe Illustrator 25.0.0, SVG Export Plug-In . SVG Version: 6.00 Build 0)  -->
<svg version="1.1" id="Layer_1" xmlns="http://www.w3.org/2000/svg" xmlns:xlink="http://www.w3.org/1999/xlink" x="0px" y="0px"
	 viewBox="0 0 3839 2037.4" style="enable-background:new 0 0 3839 2037.4;" xml:space="preserve">
<style type="text/css">
	.st0{fill:#FFFFFF;}
	.st1{fill:none;}
</style>
<g>
	<g>
		<g>
			<path d="M2475.5,1806.1c63.4,0,111,36.1,111,109.9c0,64.5-36.3,112.4-111,112.4h-105.6v-222.4H2475.5 M2423.7,1987.4h48
				c31.2,0,61-17.4,61-66.7c0-44.8-17.1-73.5-70.6-73.5h-38.4V1987.4"/>
			<path d="M991,1806.1h55.2l91.5,222.4h-55.9l-18.5-49.5h-91.5l-19.2,49.5h-54.5L991,1806.1z M985.8,1942.5h63.4l-30.8-81.6h-0.7
				L985.8,1942.5z"/>
			<path d="M1158.9,1806.1h75.7l57.2,153h0.7l54.1-153h75.7v222.4H1372v-157.6h-0.7l-60,157.6h-41.5l-60-156.1h-0.7v156.1h-50.4
				V1806.1z"/>
			<path d="M3607.9,939.1h-28.6v-14.3h78.1v14.3h-28.6v63.1h-21V939.1z"/>
			<path d="M3668.3,924.8h29.5l22.3,53.2h0.3l21.1-53.2h29.5v77.4h-19.6v-54.8h-0.3l-23.4,54.8h-16.2l-23.4-54.3h-0.3v54.3h-19.6
				V924.8z"/>
			<path d="M1558.7,1806.1h131.9c43.9,0,71.6,27.7,71.6,61.4c0,26.2-11.7,45.8-38.7,55.8v0.6c26.4,6.2,33.9,29.6,35.6,52
				c1,14,0.7,40.2,10.3,52.7h-53.8c-6.5-14-5.8-35.5-8.6-53.3c-3.8-23.4-13.7-33.6-40.8-33.6h-53.8v86.9h-53.8V1806.1z
				 M1612.5,1906.7h58.9c24,0,37-9.3,37-31.8c0-21.5-13-30.8-37-30.8h-58.9V1906.7z"/>
			<path d="M1921.6,2010.1c-16.3,14.5-34.2,22-57.3,22c-36.8,0-65.9-20.5-65.9-55.5c0-25.9,21.7-43.5,45.6-53.7
				c-10.8-12.2-19.4-23.3-19.4-39.4c0-25.7,25.9-42.3,53-42.3c30.8,0,55.9,15,55.9,44.3c0,21.5-15.7,36.3-36.2,46.1l26.2,29.3
				c4-6.7,6.3-14.5,7.4-22h35.1c-2,16.6-8.3,32.7-19.7,45.6l41.3,43.8h-49.6L1921.6,2010.1z M1865.5,1946.8
				c-14.3,5.7-28.5,15.6-28.5,30.6c0,13.5,13.7,24.4,29.1,24.4c14.5,0,24.8-6.7,34.2-16.3L1865.5,1946.8z M1879.7,1866
				c-9.7,0-18.2,6.7-18.2,16.3c0,11.7,8.3,19.2,16,27.7c11.4-6.7,20.8-13,20.8-26.4C1898.3,1874,1889.7,1866,1879.7,1866z"/>
			<path d="M2014,1806.1h105.6c63.4,0,111,36.1,111,110c0,64.5-36.3,112.5-111,112.5H2014V1806.1z M2067.8,1987.4h48
				c31.2,0,61-17.4,61-66.7c0-44.9-17.1-73.5-70.6-73.5h-38.4V1987.4z"/>
			<path d="M2369.9,1806.1h105.6c63.4,0,111,36.1,111,110c0,64.5-36.3,112.5-111,112.5h-105.6V1806.1z M2423.7,1987.4h48
				c31.2,0,61-17.4,61-66.7c0-44.9-17.1-73.5-70.6-73.5h-38.4V1987.4z"/>
			<path d="M2627.3,1806.1h183v41.1h-129.2v47.7h118.6v38h-118.6v54.5H2813v41.1h-185.7V1806.1z"/>
			<path d="M2852.8,1806.1h110.3c61,0,84.6,35.2,84.6,71.3c0,36.1-23.6,71.3-84.6,71.3h-56.5v79.8h-53.8V1806.1z M2906.6,1910.7
				h41.8c25,0,47.3-5,47.3-33.3s-22.3-33.3-47.3-33.3h-41.8V1910.7z"/>
			<path d="M3138.9,1847.2h-73.3v-41.1h200.5v41.1h-73.3v181.3h-53.8V1847.2z"/>
			<path d="M3270.2,1980.5h53.8v48h-53.8V1980.5z"/>
			<path d="M3573.7,1894.2c-1.7-49.8,29.5-88.2,87-88.2c43.9,0,82.2,25.5,82.2,68.2c0,32.7-19.2,50.8-42.8,66
				c-23.6,15.3-51.7,27.7-69.2,50.2h113.4v38h-176.1c0.3-50.5,34.3-72,75.7-97.5c21.2-13.1,50-26.5,50.4-53.3
				c0-20.6-15.1-33.6-36-33.6c-28.8,0-38,27.1-38,50.2H3573.7z"/>
			<path d="M3410.5,1980.2h-22.3l3.9-21.9h25.5l10.1-30.2h-22.2l3.9-21.9h25.5l16-48.3h26l-16,48.3h26l15.7-48.3h26l-15.7,48.3h19.8
				l-3.9,21.9h-23.3l-9.9,30.2h19.8l-3.9,21.9h-23.3l-15.7,48.3h-26l15.7-48.3h-25.7l-16,48.3h-26L3410.5,1980.2z M3453.7,1928.1
				l-10.2,30.2h26l9.9-30.2H3453.7z"/>
		</g>
		<g>
			<path id="path2658_5_" class="st0" d="M2228.6,435.7c75.1,77.4,255.6,344.6,294.6,520.1c43.2,194.3,13,628.6,13,628.6l99.3,30.5
				l93.6-30.5c0,0-32.5-470.3-119.2-697.9c-44-115.5-121.4-288.3-314.2-450.8C2241.5,379.9,2232.9,404.2,2228.6,435.7z"/>
			<path id="path2660_5_" class="st0" d="M2367.1,91c58.5-4.3,145.2,10.8,166.9,104c62.9,30.3,114.3,55.9,154.4,110
				c49.8,67.2,32,147.9,21,185l-51.9-68c4.9-29.3-10.9-60.4-10.9-60.4s-20,24.7-29.6,36.1c-22.4-16.6-67.8-44.6-68.4-43.9
				c24.4,118.7,43.9,203.2-8.1,274.7l-11.4-37.4c1.6-26,8.1-69.9,8.1-69.9l-35.8,32.5l-17.9-21.1c14.6-29.3,9.2-73.2,9.2-73.2
				l-46.6,35.8l-22.8-23.8c5.4-31.4-8.7-67.2-8.7-67.2l-34.7,42.3c-34.7-14.1-87.8-17.3-155-4.3c-35.4,6.8-108.4,31.4-137.6,44.4
				l-37.9-36.8c0,0-4.3,33.6,3.2,70.4l-32.7,52.5l-39.3-23.1c0,0,0.5,54,23.2,79l-3.7,26.4l-32-17.7c0,0,0,46.6,26,75.9l-2.2,63.9
				c-48.8-9.8-101.2-70.1-107.3-160.4c-7.6-111.6,59.6-195.1,59.6-195.1s-39,4.3-79.1,39l-45.5-32.5c0,0-6.5,27.1,8.7,69.4
				l-36.8,70.4l-42.3-32.5c0,0-10.8,24.9,20.6,83.5l-16.7,65.7c-61.1-60.8-85.6-164.6-53.7-255.4c28.2-80.2,65-136.6,140.9-190.7
				c-4.3-43.4,21.7-78,58.5-93.2c81.9-33.7,143.1-6.5,186.4,28.2c2.2-39-13-123.6,114.9-138.7C2338.8,18.2,2365,65,2367.1,91z"/>
			<path id="path2662_5_" class="st0" d="M3086.1,1742.6H1781.5c246-107.4,509-164.2,763.6-172.6h187.3
				C2852.4,1580.4,2995.5,1670.9,3086.1,1742.6z"/>
			<path id="path2664_5_" class="st0" d="M2236.5,441.6c26,11.4,53.6,81.3,34.1,133.3c-11.5,30.6-35.9,62.7-86.2,52
				c-53.6-11.4-79.3-62.8-66.7-105.7C2134.1,466,2196,423.9,2236.5,441.6z"/>
			<path d="M2253.3,31.3c92.5,0,112,37.5,113.8,59.8c5.7-0.4,11.6-0.7,17.8-0.7c57,0,129.6,20.5,149.1,104.7
				c62.9,30.3,114.3,55.9,154.4,110c49.9,67.2,32,147.9,21,185l-51.9-68c4.9-29.3-10.9-60.4-10.9-60.4s-20,24.7-29.6,36.1
				c-22.2-16.4-66.7-43.9-68.4-43.9c0,0,0,0,0,0c24.4,118.7,43.9,203.2-8.1,274.7l-11.4-37.4c1.6-26,8.1-69.9,8.1-69.9l-35.8,32.5
				l-17.9-21.1c14.6-29.3,9.2-73.2,9.2-73.2l-46.6,35.8l-22.8-23.8c5.4-31.4-8.7-67.2-8.7-67.2l-34.7,42.3
				c-19.7-8-45.4-12.5-76.3-12.5c-3.2,0-6.4,0-9.7,0.1c0.6,0.6,1.1,1,1.6,1.6c192.8,162.5,270.2,335.3,314.2,450.8
				c77.7,204.1,111.9,603,118.1,683.4h4.4c120,10.5,263,101,353.7,172.6H1781.5c243.4-106.3,503.5-162.9,755.6-172.3
				c4.7-75.7,24.7-440.8-13.9-614.4c-33.6-151.3-172.3-370.5-258-477.7c11.8,27.6,17.3,65.4,5.5,96.8c-9.9,26.5-29.6,54.1-67.3,54.1
				c-5.8,0-12.1-0.7-18.9-2.1c-53.6-11.4-79.3-62.8-66.6-105.7c7.1-24.2,22.9-45.8,41.9-61.1c-28.3,9.1-56.6,19.4-72.3,26.4
				l-37.9-36.8c0,0-4.3,33.6,3.3,70.4l-32.7,52.5l-39.3-23.1c0,0,0.5,54,23.2,79l-3.7,26.4l-32-17.7c0,0,0,46.6,26,75.9l-2.2,63.9
				c-48.8-9.8-101.2-70.1-107.3-160.4c-7.6-111.6,59.6-195.1,59.6-195.1s-39,4.3-79.1,39l-45.5-32.5c0,0-6.5,27.1,8.7,69.4
				l-36.8,70.4l-42.3-32.5c0,0-10.8,24.9,20.6,83.4l-16.7,65.7c-61.1-60.8-85.6-164.6-53.7-255.4c28.2-80.2,65-136.5,140.9-190.7
				c-4.3-43.3,21.7-78,58.5-93.2c26.4-10.9,50.6-15.4,72.8-15.4c46.7,0,84.2,20.1,113.6,43.6c2.2-39-13-123.6,114.9-138.7
				C2220.2,32.3,2237.8,31.3,2253.3,31.3 M2253.3,0L2253.3,0c-17.3,0-36.4,1.2-56.8,3.6c-59.6,7.1-101,29.4-123.1,66.4
				c-9.5,16-14.2,32.7-16.6,48.4c-27.5-13.2-56-19.9-85.1-19.9c-27.6,0-56.1,6-84.7,17.8c-46.6,19.2-75.8,59.8-78.2,106.6
				c-33.5,25.6-60.5,52.8-82.1,82.9c-22.6,31.5-40.6,67.4-56.7,113c-17.4,49.5-20.5,103.4-9.1,155.9c11.1,51.1,36.1,98,70.2,132
				c5.9,5.9,13.9,9.1,22,9.1c2.8,0,5.6-0.4,8.3-1.1c10.8-3,19.2-11.5,22-22.4l16.7-65.7c1.9-7.6,1-15.6-2.8-22.5
				c-0.9-1.7-1.8-3.4-2.6-5c1.2-0.1,2.3-0.3,3.5-0.6c9-2,16.7-7.9,21-16l36.8-70.4c3.3-6.4,4.4-13.7,2.9-20.7c2,0.4,4.1,0.6,6.2,0.6
				c2.4,0,4.8-0.3,7.1-0.8c-12.7,35.2-22.1,78.9-18.8,127.7c3.3,48,18.3,91.7,43.5,126.6c24.3,33.6,55.9,55.7,88.8,62.3
				c2,0.4,4.1,0.6,6.1,0.6c7,0,13.8-2.3,19.4-6.8c7.2-5.7,11.5-14.3,11.8-23.4l2.2-63.9c0.3-8-2.5-15.8-7.9-21.8
				c-2.2-2.5-4.2-5.3-5.9-8.3c0.9-0.3,1.7-0.7,2.5-1.1c9.2-4.6,15.6-13.4,17-23.6l3.7-26.4c1.3-9.2-1.6-18.6-7.9-25.5
				c-1-1.1-1.9-2.4-2.8-3.8c8.9-1.2,17.3-6.2,22.4-14.5l32.7-52.5c3.6-5.7,5.2-12.4,4.6-19.1c0.8,0.1,1.6,0.2,2.4,0.2
				c-6.8,28.3-2,58.9,13.3,84.6c17,28.4,44.7,48,78.2,55.1c8.7,1.8,17.2,2.8,25.4,2.8c25,0,47.7-8.8,65.5-25.6
				c13.1-12.3,23.6-28.7,31.1-48.8c0.6-1.7,1.3-3.5,1.8-5.3c78,113.8,166,269.9,190.9,382c34.1,153.6,21,466.5,14.9,577.6
				c-119.8,6.1-240.2,22.6-358.4,49.3c-130.9,29.5-258.8,71.3-380.1,124.3c-13.6,5.9-21.1,20.5-18.1,35c3,14.5,15.8,24.9,30.6,24.9
				h1304.6c13.3,0,25.2-8.4,29.5-21c4.4-12.6,0.3-26.5-10.1-34.8c-59.7-47.2-208.8-155-348.4-176.6c-4.7-55.9-14.4-157.8-30.3-271.2
				c-24.4-173.4-53.9-306.3-87.6-394.9c-24.6-64.4-56.8-138.6-106-216.4c0.7,0.2,1.5,0.3,2.3,0.5c1.7,0.3,3.5,0.4,5.2,0.4
				c9.9,0,19.3-4.7,25.3-12.9c47.9-65.9,44-139.4,27.8-227.6c1.7,1.2,3.4,2.4,4.9,3.5c5.6,4.1,12.1,6.1,18.6,6.1
				c3.3,0,6.6-0.5,9.7-1.5c0.9,4.9,2.9,9.6,5.9,13.6l51.9,68c6,7.8,15.2,12.3,24.9,12.3c1.9,0,3.8-0.2,5.6-0.5
				c11.6-2.1,21-10.6,24.3-21.9c24.6-83.1,15.7-156.6-25.8-212.6c-42.4-57.2-96-85.6-153.2-113.4c-12.5-39.1-37-69.7-71.5-89.1
				c-34.1-19.3-71.7-24.3-98.9-24.8c-6.1-12.1-15.4-22.9-27.3-31.6C2337.6,9.3,2300.8,0,2253.3,0L2253.3,0L2253.3,0z M2387,477
				c1.9-0.4,3.7-1,5.4-1.8c0.5,3.7,1.5,7.2,3.2,10.5C2392.8,482.8,2389.9,479.9,2387,477L2387,477z M2503.7,615
				c-21.8-30.9-46.5-62.2-74.6-93.6c5.2,3.4,11.1,5.1,17.1,5.1c2.3,0,4.6-0.3,6.9-0.8c-2.1,9.4,0.2,19.5,6.6,27.1l17.9,21.1
				c5.2,6.2,12.6,10.1,20.6,10.9c-0.1,1.5-0.2,2.9-0.3,4.4c-0.2,3.7,0.2,7.5,1.3,11.1L2503.7,615L2503.7,615z"/>
			<g>
				<path id="SVGID_56_" class="st0" d="M1260.4,1212.3c404.8-63.4,590.1-82.9,1350.9-126.8c760.3-43.9,1097.3,53.6,1146.1,63.4
					c48.8,9.8,68.3,35.8,30.7,43.6c-134.7,28.1-806.1,73.4-1347.5,195.4c-197.9,44.6-741.3,156.1-1107.1,248.7
					c-423.1,107.2-897.3,297.5-970.5,326.8c-73.2,29.3-136.6,63.4-158.8,27c-49.8-81.3-187.4-241.6-171.7-445.9
					c2.7-34.8,236.7-96.9,335.4-127.3C621.5,1339.1,855.6,1275.7,1260.4,1212.3"/>
				<path d="M2985.1,1074.2c499.5,0,732.4,66.7,772.3,74.7c48.8,9.8,68.3,35.8,30.7,43.6c-134.7,28.1-806.1,73.4-1347.5,195.4
					c-197.9,44.6-741.3,156.1-1107.1,248.7c-423.1,107.2-897.3,297.5-970.5,326.8c-50.6,20.2-96.4,42.8-127.3,42.8
					c-13.8,0-24.6-4.5-31.5-15.8c-49.8-81.3-187.4-241.6-171.7-445.9c2.7-34.8,236.6-97,335.4-127.3
					c253.6-78,487.7-141.4,892.5-204.8c404.8-63.4,590.1-82.9,1350.9-126.8C2749.7,1077.5,2873.9,1074.2,2985.1,1074.2 M2985.1,1043
					c-118.9,0-245.2,3.8-375.6,11.3c-407.4,23.5-626.9,38.7-810.1,56.2c-194.8,18.6-341.4,39.3-543.8,71
					c-388.2,60.8-622.8,121.5-896.8,205.8c-16.1,4.9-36.3,10.9-57.7,17.2c-55.8,16.4-125.3,36.9-181.3,57
					c-31.7,11.4-55.6,21.3-73.1,30.5c-21.3,11.2-43.4,25.9-45.3,50.1c-3.3,43.2-0.4,87.5,8.8,131.6c7.8,37.7,20.4,76.6,37.5,115.4
					c30.9,70.4,71.8,130.6,101.6,174.6c11.2,16.5,20.9,30.7,28.3,42.9c8.6,14,25.6,30.7,58.2,30.7c30.7,0,66.8-15.1,108.5-32.5
					c9.9-4.1,20.1-8.4,30.4-12.5l2.1-0.9c164.5-65.8,587.9-229.2,964.4-324.6c264.5-67,617.3-142.8,874.8-198.2
					c94.9-20.4,176.8-38,231.4-50.3c368.5-83,794.6-130,1076.5-161.1c131.5-14.5,226.5-25,270.5-34.2c41.5-8.7,44.6-36.4,44.5-44.7
					c-0.1-28.2-28.4-50.7-75.5-60.1c-3.4-0.7-8.9-2-16-3.6c-36.6-8.5-112.7-26.3-237.9-42.1C3355,1052.9,3178.5,1043,2985.1,1043
					L2985.1,1043z"/>
			</g>
			<path id="SVGID_55_" class="st0" d="M2856.4,801.2c14.6,113.8-30.9,173.9-102.4,279.6c-39,57.6-141.4,159.3-141.4,159.3
				s212.9-91.2,373.9-143.1c141.4-45.5,338.1-82.9,360.9-84.5c69.9-4.9,63.4,17.9,6.5,42.3c-34.5,14.8-269.9,107.3-442.2,177.2
				c-189.7,77-383.6,185.3-419.4,172.3c-4.7-1.7-9.3-4.1-13.7-7c-39.8-26.1-44-83.1-12.3-118.5c37.4-41.8,104.7-95.1,203.2-212.6
				c90.4-107.8,95.7-233.7-19.5-216.2c-74.8,11.4-120.3,97.5-144.7,107.3c-27.5,11-55.5-11.6-52-35.8c3.3-22.8,52-56.9,69.9-99.2
				c16.6-39.3,74.8-118.7,191.8-120.3C2801.1,700.9,2848.9,742.8,2856.4,801.2"/>
			<path id="SVGID_54_" class="st0" d="M2164.1,865.9c7.6,15.2,5.6,34.2,14.6,50.4c8.1,14.6-31.3,115.2-43.9,162.6
				c-14.6,55.3-36.3,132.8-36.3,132.8s81.1-108,117.6-153.9c43.9-55.3,120.1-132.2,151.2-126.8c65,11.4,5.7,150.2-8.3,215.3
				c-15.9,40.6-54.7,132.9-30.9,135.7c29.5,3.5,35.8-41.6,54.9-24.6c33.1,29.7-74.8,113.8-93.7,101.2c-17.1-11.4-40.6,17.9-63.4-13
				c-20.1-27.2-14.9-65.3,21.9-152c36.8-86.7,63.1-170.4,63.1-170.4s-51.9,55.7-112.7,143.1c-69.4,99.7-110.5,158.2-156.1,169.1
				c-7.3,1.7-14.7-0.8-21.4-5.1c-17.4-11.1-25.6-32.3-22.4-52.7c5-31.4,14.2-85.8,24.3-126.5c15.2-60.7,32.5-125.7,52-177.7
				c-156.8,171.6-301.2,401.2-372.4,512.7c-3.1,4.9-7.9,8.4-13.6,9.8c-11.9,3.1-23,5.6-34.8,7.5c-14.1,2.3-27.3-8.2-27.4-22.4
				c-0.2-50.4,23.8-31.2,42.8-65.5c35-63.1,351.1-480.1,437.8-549.5C2137.7,841.5,2154.3,846.4,2164.1,865.9"/>
			<path d="M2141.9,849.4c10,0,17.1,6.2,22.2,16.5c7.6,15.2,5.6,34.2,14.6,50.4c8.1,14.6-31.4,115.2-43.9,162.6
				c-14.6,55.3-36.3,132.8-36.3,132.8s81.1-108,117.6-153.9c42.4-53.4,115-127.1,147.9-127.1c1.1,0,2.2,0.1,3.3,0.3
				c47.4,8.3,28.7,84.3,9.7,150.1c-11.8,40.7-25.1,80.9-39.5,120.8c-13.9,38.7-24.9,78.3-9.5,80.1c1.1,0.1,2.2,0.2,3.2,0.2
				c22.3,0,30.6-28.6,43.4-28.6c2.5,0,5.3,1.1,8.3,3.9c30.8,27.6-60.6,102.5-88.6,102.5c-2.1,0-3.8-0.4-5.1-1.3
				c-3.1-2.1-6.4-2.8-9.8-2.8c-8.5,0-18.1,4.5-28.1,4.5c-8.4,0-17-3.1-25.5-14.7c-20.1-27.2-14.9-65.3,21.9-152
				c36.8-86.7,63.1-170.4,63.1-170.4s-51.9,55.7-112.7,143.1c-69.4,99.7-110.5,158.2-156.1,169.1c-1.6,0.4-3.2,0.6-4.8,0.6
				c-5.7,0-11.4-2.3-16.6-5.6c-17.4-11.1-25.6-32.3-22.4-52.7c5-31.4,14.2-85.8,24.3-126.5c15.2-60.7,32.5-125.7,52-177.7
				c-156.8,171.6-301.2,401.3-372.4,512.7c-3.1,4.9-8,8.4-13.6,9.8c-11.9,3.1-23,5.6-34.8,7.5c-1.3,0.2-2.6,0.3-3.9,0.3
				c-12.5,0-23.4-9.8-23.5-22.8c-0.2-50.4,23.8-31.2,42.8-65.5c35-63.1,351.1-480.1,437.8-549.5
				C2121.6,854.3,2132.9,849.4,2141.9,849.4 M2141.9,818.1L2141.9,818.1c-16.8,0-34.6,7.6-54.2,23.4
				c-53.7,43-175.6,195.3-243.4,282.3c-94.8,121.5-183.6,242.9-202.2,276.4c-3.6,6.5-6.4,8.2-12.3,11.8c-6.8,4.1-17,10.4-24.5,23
				c-6.8,11.6-10,26.2-9.9,45.9c0.1,29.7,24.7,53.9,54.8,53.9c3,0,6-0.2,8.9-0.7c11.8-1.9,23.4-4.4,37.6-8.1
				c13.3-3.4,24.7-11.7,32.1-23.3c3.1-4.8,6.3-9.8,9.6-15c57.4-90,153.3-240.4,262.9-379.1c-3.1,11.8-6,23.4-8.8,34.8
				c-10.6,42.5-20.2,99.2-24.9,129.2c-5.3,33.5,9,66.4,36.5,83.9c10.9,7,22.2,10.5,33.5,10.5c4.1,0,8.1-0.5,12-1.4
				c53.7-12.8,95.5-68.5,159.8-160.6c-28.7,72-37.1,120.2-8.5,159c16.7,22.7,36.8,27.4,50.7,27.4c8.8,0,16.3-1.8,22.3-3.2
				c1.1-0.3,2.4-0.6,3.5-0.8c5.2,2.4,11.1,3.6,17.2,3.6c24.3,0,53.7-20.6,69-32.8c15.1-12.1,42.1-36.4,52.6-64
				c8.8-23,4.2-45.5-12.2-60.3c-10.9-9.8-21.9-11.8-29.2-11.8c-4.3,0-8.2,0.6-11.7,1.7c6.5-19.1,34.4-100.9,39.6-118.9
				c8.2-27.8,17.4-59.4,22.3-88.4c6.7-39.6,4-67.5-8.6-87.7c-9.7-15.6-24.8-25.6-43.6-28.9c-2.8-0.5-5.7-0.7-8.7-0.7c0,0,0,0,0,0
				c-14.9,0-40.6,5.4-91.4,51.7c-26.4,24-56.6,56.6-81,87.2c-5.7,7.1-12.4,15.7-19.6,25.1c3.3-10.3,7-21.8,10.9-33.6
				c26.6-80.8,34.3-108.6,23.1-128.7c-2.2-4-3.4-10.2-4.7-17.4c-1.7-9.7-3.7-20.6-9.3-31.8C2177.4,822.5,2154.3,818.1,2141.9,818.1
				L2141.9,818.1z"/>
			<g>
				<path id="SVGID_53_" class="st0" d="M1593.5,434.6c-28.8,113.1-62.9,288.3-64.4,426.3c-1.2,102.7-6,287.9,0.5,385.5
					c35.8,6,59.1,27.1,60.1,49.9c1.9,39-30.9,47.1-53.6,56.1c4.9,109.7,14.6,191,57.4,283.1c17.3,30.3,17.6,61.1-17.3,80.2
					c-47.7,26-49.9-15.2-112.7-6.5c-18.2,2.5-65-4.3-97.5-56.4c-43.2-69.1-47.7-177.7-75.9-296.9c-147.4,0-208.1,69.4-461.7,43.3
					c-41.2,54.2-68.8,96.3-138.7,195.1c-99.7,140.9-143.7,209.1-205.9,244.9c-71.5,41.2-130,32.5-174.5,27.4
					c-18.6-2.2-42.2-38.2-24.9-62c119.2-163.9,221.1-275.3,318.6-405.3c0,0-218.9,30.3-240.1-43.9c-19.2-67.5,71-77.5,105.7-118.7
					c50.6-60.1,136.6-23.8,247.1-26c119.2-147.4,253.6-299.1,379.3-437.8c160.8-177.4,407.4-475.9,455.2-472.5
					C1610.8,304.5,1607.5,379.3,1593.5,434.6z M1339.9,757.6c-138.7,151.7-273.1,307.8-396.7,466c114.9-4.3,184.2,21.7,338.1,15.2
					C1285.6,1072.3,1305.2,918,1339.9,757.6"/>
				<path d="M1549.3,300.2c0.3,0,0.6,0,0.8,0c60.7,4.3,57.4,79.1,43.3,134.4c-28.8,113.1-62.9,288.3-64.4,426.3
					c-1.2,102.7-6,287.9,0.5,385.4c35.8,6,59.1,27.1,60.1,49.9c1.9,39-30.9,47.1-53.7,56.1c4.9,109.7,14.6,191,57.4,283.1
					c17.3,30.3,17.6,61.1-17.3,80.2c-11.8,6.4-20.7,8.7-28.6,8.7c-20.8,0-33.2-16.5-67.3-16.5c-5.1,0-10.7,0.4-16.9,1.2
					c-2,0.3-4.4,0.4-7.1,0.4c-21.4,0-61.6-10.5-90.5-56.8c-43.2-69.1-47.7-177.7-75.9-296.9c-124.1,0-186.7,49.2-354.9,49.2
					c-31.5,0-66.8-1.7-106.8-5.8c-41.2,54.2-68.8,96.3-138.7,195.1c-99.7,140.9-143.7,209.1-205.9,244.9
					c-44.1,25.4-83.3,31.8-117.2,31.8c-21.1,0-40.3-2.5-57.3-4.5c-18.6-2.2-42.2-38.2-24.9-62c119.2-163.9,221.1-275.3,318.6-405.3
					c0,0-44.3,6.1-94.9,6.1c-62,0-133.5-9.2-145.1-50c-19.2-67.5,71-77.5,105.7-118.7c23.3-27.6,54-34.9,91.1-34.9
					c41.3,0,90.5,9,146.1,9c3.2,0,6.5,0,9.8-0.1c119.2-147.4,253.6-299.1,379.3-437.8C1254.8,596.3,1499.6,300.2,1549.3,300.2
					 M943.2,1223.6c8.9-0.3,17.6-0.5,26-0.5c88,0,152.7,16.7,263.3,16.7c15.3,0,31.5-0.3,48.8-1c4.2-166.5,23.8-320.8,58.5-481.2
					C1201.1,909.3,1066.8,1065.3,943.2,1223.6 M1549.3,268.9c-24.4,0-56.6,18.9-149,115.7c-60.6,63.5-133.6,146.6-204.2,226.9
					c-44.5,50.6-86.5,98.4-124.3,140.2c-98.4,108.6-242.8,269.8-371.1,427.6c-26.6-0.3-51.6-2.6-75.9-4.8
					c-22.9-2.1-44.6-4.1-65.1-4.1c-35.5,0-80.7,5.2-115,46c-8.3,9.9-24.6,19.1-40.3,28c-19.4,11-39.4,22.3-54.3,39.1
					c-19.9,22.4-25.8,50.2-17.3,80.3c8.5,29.7,33.9,50.5,75.5,61.9c26.2,7.2,59.8,10.8,99.7,10.8c9.4,0,18.5-0.2,27.2-0.5
					c-28.3,36-57.1,71.3-87,108.1c-59.6,73.1-121.2,148.6-189.1,242c-13.9,19.2-15.9,43.9-5.4,67.9c10.5,24,30.9,41.2,52,43.6
					l4.7,0.5c16.5,1.9,35.2,4.1,56.2,4.1c47.3,0,90.7-11.8,132.8-36c62-35.7,104-95.3,187.7-214.1c8.9-12.6,18.2-25.9,28.1-39.8
					c24.2-34.2,43.1-61.3,59.8-85.2c27-38.6,46-65.9,67.9-95.2c32.4,2.9,63.4,4.3,92.3,4.3c94.1,0,157.2-15,212.9-28.2
					c39.8-9.4,75-17.8,117.1-20.2c6.2,29,11.2,57.2,16.1,84.8c13.8,77.7,25.7,144.9,58.1,196.8c15.9,25.4,36.1,44.5,60.3,57
					c24.5,12.6,46.1,14.5,56.7,14.5c4,0,7.8-0.2,11.3-0.7c4.5-0.6,8.7-0.9,12.6-0.9c12.8,0,20.4,3.2,30.1,7.3
					c9.7,4.1,21.8,9.2,37.2,9.2c13.8,0,28-4.1,43.5-12.5c27.6-15.1,38.2-35.3,42.3-49.6c6.2-22,2.1-47-12.1-72.3
					c-36.4-78.7-47.6-149.8-52.9-247.9c9-3.9,18.5-9,27.1-16.4c17.9-15.4,26.7-36.9,25.5-62.1c-1-20-10.9-39-28-53.6
					c-9.4-8-20.7-14.5-33.4-19.1c-3.6-79.7-1.6-201.9-0.2-293.4c0.4-24.4,0.8-47.5,1-67.4c1.5-131.1,33.8-302.4,63.5-418.9
					c4.4-17.1,9.6-43.1,9.5-69.5c-0.1-29.3-6.6-53.2-19.3-70.9c-14.2-19.7-35.5-31-61.6-32.9C1551.3,269,1550.3,268.9,1549.3,268.9
					L1549.3,268.9z M1007.3,1192.8c84.9-106.5,177.4-215.7,280.2-330.7c-20.4,116.6-32.3,229.2-36.5,346.3
					c-6.2,0.1-12.4,0.2-18.4,0.2c-56.9,0-101.2-4.5-144-8.9C1061.3,1196.8,1035.2,1194.2,1007.3,1192.8L1007.3,1192.8z"/>
			</g>
			<path d="M2718.5,702c83.9,0,130.5,41.6,137.9,99.2c14.6,113.8-30.9,173.9-102.4,279.6c-39,57.6-141.4,159.3-141.4,159.3
				s212.9-91.2,373.9-143.1c141.4-45.5,338.1-82.9,360.9-84.5c6.5-0.5,12.3-0.7,17.4-0.7c50.8,0,40.7,20.8-10.9,42.9
				c-34.5,14.8-269.9,107.3-442.2,177.2c-179.2,72.7-362.1,173.4-412,173.4c-2.9,0-5.4-0.3-7.4-1.1c-4.7-1.7-9.3-4.1-13.7-7
				c-39.8-26.1-44-83.1-12.3-118.5c37.4-41.8,104.7-95.1,203.2-212.6c84.7-101,94.7-217.9,1-217.9c-6.3,0-13.2,0.5-20.5,1.6
				c-74.8,11.4-120.3,97.5-144.7,107.3c-4.9,2-9.9,2.9-14.7,2.9c-21.9,0-40.2-18.8-37.4-38.6c3.3-22.8,52-56.9,69.9-99.2
				c16.6-39.3,74.8-118.7,191.8-120.3C2716.1,702,2717.3,702,2718.5,702 M2718.5,670.8L2718.5,670.8c-1.3,0-2.6,0-4,0
				c-57.6,0.8-110.4,19.1-152.6,52.9c-42.2,33.7-61.3,71.7-67.5,86.5c-7.3,17.2-22.9,34.7-36.6,50.1c-17.4,19.6-32.5,36.5-35.4,56.8
				c-2.5,17.7,3.1,36,15.3,50.1c13.3,15.4,32.6,24.2,53,24.2c9,0,17.8-1.7,26.3-5.1c14.8-5.9,26.6-19.1,43-37.3
				c23.5-26.2,55.8-62.2,94.8-68.1c5.6-0.9,10.9-1.3,15.8-1.3c24.5,0,29.5,10.7,31.3,14.8c6.1,13.1,5,34.9-3,59.9
				c-9.6,29.7-28.5,62.3-53.2,91.8c-64.4,76.8-115.7,126.2-153.2,162.3c-19.3,18.6-36.1,34.7-49.4,49.6
				c-22.1,24.7-32.3,57.7-28,90.6c4,30.9,21,58.2,46.5,75c6.5,4.3,13.3,7.7,20.2,10.2c5.5,2,11.4,3,18.1,3c35,0,98-28.5,215.6-83.1
				c64.1-29.8,136.7-63.5,208.2-92.5c90.6-36.8,198.8-79.8,285.8-114.5c78.3-31.2,140.2-55.8,156.9-63c17.1-7.3,30.7-14.8,40.5-22.2
				c22.5-17.1,24.4-34.5,22-46.1c-1.4-6.9-7.2-23.6-30.6-30.7c-8.7-2.7-19.6-3.9-33.3-3.9c-6,0-12.6,0.2-19.6,0.7
				c-25,1.7-224.6,39.7-368.3,85.9c-78.6,25.3-169.9,60.1-243,89.2c17.9-20.6,34.4-41.1,46-58.2c3.4-5.1,6.8-10.1,10.1-15
				c34.2-50.3,61.2-90.1,79-133.6c19.7-48.2,25.6-96.6,18.4-152.5c-4.9-37.8-22.9-69.7-52.3-92.1
				C2805.2,682.4,2765.9,670.8,2718.5,670.8L2718.5,670.8z"/>
		</g>
	</g>
	<rect x="2380.2" y="463.3" width="22.1" height="32.8"/>
</g>
</svg>
