<?xml version="1.0" encoding="utf-8"?>
<!-- Generator: Adobe Illustrator 25.4.1, SVG Export Plug-In . SVG Version: 6.00 Build 0)  -->
<svg version="1.1" id="Layer_1" xmlns="http://www.w3.org/2000/svg" xmlns:xlink="http://www.w3.org/1999/xlink" x="0px" y="0px"
	 viewBox="0 0 3839 1825.5" style="enable-background:new 0 0 3839 1825.5;" xml:space="preserve">
<style type="text/css">
	.st0{fill:#FFFFFF;}
</style>
<g>
	<g>
		<path class="st0" d="M3489.7,230.3C3447.4,96,3320.7,0,3174.9,0c-145.9,0-272.6,96-314.8,230.3l-111.3,330.2V19.2h-583.5
			c-103.7,0-199.6,42.2-272.6,111.3V19.2h-598.9c-111.3,0-211.1,46.1-284.1,122.8V19.2H441.6C199.7,19.2,0.1,218.8,0.1,460.7
			c0,115.2,46.1,222.7,119,299.4H0.1v514.4h568.2c161.2,0,299.4-84.5,380.1-215c65.3,126.7,195.8,215,349.3,215h602.7v-111.3
			c69.1,69.1,165.1,111.3,272.6,111.3H3839L3489.7,230.3z"/>
		<g>
			<g>
				<g>
					<path d="M568.3,852.3H88.4V1002h479.9c92.1,0,168.9-76.8,168.9-168.9s-76.8-168.9-168.9-168.9H445.4
						c-111.3,0-203.5-92.1-203.5-203.5s92.2-203.5,203.5-203.5h476V107.5H441.6c-195.8,0-353.2,157.4-353.2,353.2
						s157.4,353.2,353.2,353.2h122.8c11.5,0,19.2,7.7,19.2,19.2C583.6,844.6,575.9,852.3,568.3,852.3z"/>
					<path d="M441.6,445.3h479.9V291.8H441.6c-92.1,0-168.9,76.8-168.9,168.9s76.8,168.9,168.9,168.9h122.8
						c111.3,0,203.5,92.1,203.5,203.5s-92.1,203.5-203.5,203.5h-476v149.7h479.9c195.8,0,353.2-157.4,353.2-353.2
						S764.1,479.9,568.3,479.9H445.4c-11.5,0-19.2-7.7-19.2-19.2C426.2,453,433.9,445.3,441.6,445.3z"/>
				</g>
				<g>
					<path d="M2165.2,291.8c-65.3,0-115.2,49.9-115.2,115.2v479.9c0,65.3,49.9,115.2,115.2,115.2h311v-338h-238v149.7h88.3v34.6
						h-88.3c-19.2,0-34.6-15.4-34.6-34.6V476c0-19.2,15.4-34.6,34.6-34.6h426.1V291.8H2165.2z"/>
					<path d="M3109.6,1002h349.3l-238-706.4c-7.7-19.2-23-34.6-46.1-34.6c-19.2,0-38.4,15.4-46.1,30.7l-307.1,894.5h176.6
						l107.5-318.6V1002H3109.6z M3171,679.5l49.9,153.6h-103.7L3171,679.5z"/>
					<path d="M3405.2,264.9c-30.7-99.8-122.8-176.6-234.2-176.6s-203.5,72.9-230.3,172.8l-280.2,821.5V479.9h-422.3v149.7h276.4
						v406.9H2169c-84.5,0-149.7-69.1-149.7-149.7V406.9c0-84.5,69.1-149.7,149.7-149.7h495.2V107.5h-499.1
						c-165.1,0-299.4,134.4-299.4,299.4v479.9c0,165.1,134.4,299.4,299.4,299.4h618.1l311-902.2c11.5-34.6,42.2-57.6,80.6-57.6
						c38.4,0,69.1,23,80.6,57.6l253.4,752.4h-399.3v149.7h606.6l0,0L3405.2,264.9z"/>
				</g>
				<g>
					<path d="M1293.8,1036.5c-84.5,0-149.7-69.1-149.7-149.7V406.9c0-84.5,69.1-149.7,149.7-149.7h514.4V107.5h-514.4
						c-165.1,0-299.4,134.4-299.4,299.4v479.9c0,165.1,134.4,299.4,299.4,299.4h514.4v-149.7H1293.8z"/>
					<path d="M1328.4,817.7h372.4V668h-522.1v222.7c0,65.3,49.9,115.2,115.2,115.2h514.4V856.1H1363
						C1343.8,852.3,1328.4,836.9,1328.4,817.7z"/>
					<path d="M1700.8,479.9h-372.4c0-19.2,15.4-34.6,34.6-34.6h441.5V291.8h-510.6c-65.3,0-115.2,49.9-115.2,115.2v222.7h522.1
						C1700.8,629.6,1700.8,479.9,1700.8,479.9z"/>
				</g>
			</g>
		</g>
	</g>
	<g>
		<g>
			<path d="M3139.1,1606.8h8.2c2.3,7.6,11.6,11.2,44.4,11.2c80,0,101.6-20.3,101.6-39.5c0-20.7-28.1-41.3-89.4-41.3
				c-78.8,0-133.2,33.2-133.2,48c0,3.1,1.2,5.8,2.3,8.1l-7,4.5l-61.9-62.5l8.2-3.6c2.3,1.3,5.2,2.7,8.7,2.7
				c17,0,52.6-50.4,188.1-50.4c95.2,0,167.1,39.5,167.1,91.2c0,30.6-21.6,54.4-59,62.9v0.9c49,13.4,83,39.1,83,81.7
				c0,58-73.6,99.3-187,99.3c-152.5,0-185.8-40.4-205.6-40.4c-4.7,0-8.2,1.8-11.6,4l-9.3-2.7l46.7-77.2l8.7,4c0,1.3-0.6,3.1-0.6,5.4
				c0,17.6,64.8,53.9,161.8,53.9c73.6,0,113.9-19.8,113.9-48c0-24.7-30.4-51.7-115-51.7c-43.8,0-53.2,4.9-54.9,13h-8.2v-73.6H3139.1
				z"/>
			<path d="M3451.6,1550.6l8.2-4.9c1.2,1.3,3.5,2.2,7,2.2c16.3,0,60.2-63.8,184.6-63.8c72.4,0,163,31.9,163,94.4
				c0,119.5-223.2,106.9-282.8,182.3h281.5c12.8,0,17.6-3.6,17.6-10.8h8.2v75.4h-8.2c0-6.3-4.7-9.9-17.6-9.9h-375
				c0-164,293.3-156.8,293.3-234.1c0-29.2-43.8-44.4-83.6-44.4c-67.2,0-124.4,43.1-124.4,62.9c0,4,2.3,6.7,4.7,9l-7.6,5.4
				L3451.6,1550.6z"/>
		</g>
		<g>
			<path d="M381.4,1584.7l-9.3-4c0.6-1.8,1.2-4,1.2-6.3c0-5.8-54.9-37.3-150.1-37.3c-91.1,0-130.2,21.6-130.2,49.4
				c0,73.7,344-34.1,344,128.5c0,59.3-74.8,105.1-224.3,105.1c-142.5,0-183.4-35-196.8-35c-3.5,0-5.3,2.2-8.2,3.6l-7.6-1.3
				l48.5-76.4l9.3,3.6c0,1.8-1.2,3.6-1.2,7.2c0,26.5,75.3,45.4,150.1,45.4c106.3,0,142.5-23.4,142.5-48.1
				c0-88.1-339.3,21.1-339.3-128c0-75.5,103.4-106.9,216.7-106.9c101.6,0,172.9,34.1,179.9,34.1c7.6,0,8.8-1.8,10.5-3.1l9.3,2.2
				L381.4,1584.7z"/>
			<path d="M569.5,1488.5v6.3c-4.1,0-7.6,1.8-7.6,4c0,3.1,3.5,5.8,8.2,10.8l104,110.1l107.5-112.3c2.3-2.7,4.7-5.4,4.7-6.7
				c0-2.7-4.1-5.4-8.2-5.8v-6.3h119.7v6.3c-12.3,0.4-22.2,7.6-30.4,16.6l-152.4,163.1v121.3c0,9.9,2.9,13.5,14.6,13.5v6.3H617.9
				v-6.3c11.7,0,14-3.6,14-13.5v-121.3l-160.6-163.1c-8.8-9-14.6-16.6-28.6-16.6v-6.3H569.5z"/>
			<path d="M1261,1584.7l-9.3-4c0.6-1.8,1.2-4,1.2-6.3c0-5.8-54.9-37.3-150.1-37.3c-91.1,0-130.2,21.6-130.2,49.4
				c0,73.7,344-34.1,344,128.5c0,59.3-74.8,105.1-224.3,105.1c-142.5,0-183.4-35-196.8-35c-3.5,0-5.3,2.2-8.2,3.6l-7.6-1.3
				l48.5-76.4l9.3,3.6c0,1.8-1.2,3.6-1.2,7.2c0,26.5,75.3,45.4,150.1,45.4c106.3,0,142.5-23.4,142.5-48.1
				c0-88.1-339.3,21.1-339.3-128c0-75.5,103.4-106.9,216.7-106.9c101.6,0,172.9,34.1,179.9,34.1c7.6,0,8.8-1.8,10.5-3.1l9.3,2.2
				L1261,1584.7z"/>
			<path d="M1598.6,1795.9c0,9.9,2.9,13.5,18.1,13.5v6.3h-118.6v-6.3c15.2,0,17.5-3.6,17.5-13.5v-254.3h-140.8
				c-14,0-19.9,3.6-19.9,11.2h-8.2v-75h8.2c0,7.2,5.8,10.8,19.9,10.8h364.5c14,0,19.9-3.6,19.9-10.8h8.2v75h-8.2
				c0-7.6-5.8-11.2-19.9-11.2h-140.8V1795.9z"/>
			<path d="M1806.5,1809.3c12.8,0,15.2-3.6,15.2-13.5v-287.5c0-9.9-2.3-13.5-15.2-13.5v-6.3h379.1c14,0,19.9-3.6,19.9-9.9h8.2v74.6
				h-8.2c0-8.1-5.8-11.7-19.9-11.7h-280.9v80h183.4c14,0,19.9-3.6,19.9-11.7h8.2v75.5h-8.2c0-3.6-1.2-6.3-4.7-8.1
				c-2.9-1.8-8.2-2.7-15.2-2.7h-183.4v88.1h286.2c14,0,19.9-3.6,19.9-10.8h8.2v73.7h-8.2c0-6.3-5.8-9.9-19.9-9.9h-384.3V1809.3z"/>
			<path d="M2753.3,1488.5v6.3c-13.4,0-15.8,3.6-15.8,13.5v287.5c0,9.9,2.3,13.5,15.8,13.5v6.3h-112.7v-6.3c11.7,0,14-3.6,14-13.5
				v-201.7h-1.2l-150.7,221.5h-8.2l-148.9-223.7h-1.2v204c0,9.9,2.3,13.5,17.5,13.5v6.3h-104v-6.3c12.8,0,15.2-3.6,15.2-13.5v-287.5
				c0-9.9-2.3-13.5-15.2-13.5v-6.3h129.7v6.3c-7.6,0-15.2,3.1-15.2,8.5c0,4,4.1,8.1,12.8,21.1l118,173.4l129.7-185.1
				c2.9-3.6,6.4-8.5,6.4-11.7c0-4-5.3-5.8-15.2-6.3v-6.3H2753.3z"/>
		</g>
	</g>
</g>
</svg>
