<?xml version="1.0" encoding="utf-8"?>
<!-- Generator: Adobe Illustrator 25.4.1, SVG Export Plug-In . SVG Version: 6.00 Build 0)  -->
<svg version="1.1" id="Layer_1" xmlns="http://www.w3.org/2000/svg" xmlns:xlink="http://www.w3.org/1999/xlink" x="0px" y="0px"
	 viewBox="0 0 3839 2116.2" style="enable-background:new 0 0 3839 2116.2;" xml:space="preserve">
<style type="text/css">
	.st0{fill:#FFFFFF;}
</style>
<g>
	<g>
		<path class="st0" d="M3489.7,230.4C3447.4,96,3320.7,0,3174.9,0c-145.9,0-272.6,96-314.8,230.3l-111.3,330.2V19.2h-583.5
			c-103.7,0-199.6,42.2-272.6,111.3V19.2h-598.9c-111.3,0-211.1,46.1-284.1,122.8V19.2H441.5C199.6,19.2,0,218.9,0,460.7
			c0,115.2,46.1,222.7,119,299.5H0v514.4h568.2c161.2,0,299.4-84.5,380.1-215c65.3,126.7,195.8,215,349.3,215h602.7v-111.3
			c69.1,69.1,165.1,111.3,272.6,111.3H3839L3489.7,230.4z"/>
		<g>
			<g>
				<path d="M568.2,852.3H88.3V1002h479.9c92.1,0,168.9-76.8,168.9-168.9s-76.8-168.9-168.9-168.9H445.3
					c-111.3,0-203.5-92.1-203.5-203.5S334,257.3,445.3,257.3h476V107.5H441.5c-195.8,0-353.2,157.4-353.2,353.2
					s157.4,353.2,353.2,353.2h122.8c11.5,0,19.2,7.7,19.2,19.2S575.8,852.3,568.2,852.3z"/>
				<path d="M441.5,445.4h479.9V291.8H441.5c-92.1,0-168.9,76.8-168.9,168.9s76.8,168.9,168.9,168.9h122.8
					c111.3,0,203.5,92.1,203.5,203.5s-92.1,203.5-203.5,203.5h-476v149.7h479.9c195.8,0,353.2-157.4,353.2-353.2
					S764,479.9,568.2,479.9H445.3c-11.5,0-19.2-7.7-19.2-19.2C426.1,453,433.8,445.4,441.5,445.4z"/>
			</g>
			<g>
				<path d="M2165.2,291.8c-65.3,0-115.2,49.9-115.2,115.2v479.9c0,65.3,49.9,115.2,115.2,115.2h311V664.2h-238v149.7h88.3v34.6
					h-88.3c-19.2,0-34.6-15.4-34.6-34.6V476.1c0-19.2,15.4-34.6,34.6-34.6h426.1V291.8H2165.2z"/>
				<path d="M3109.6,1002h349.3l-238-706.4c-7.7-19.2-23-34.6-46.1-34.6c-19.2,0-38.4,15.4-46.1,30.7l-307.1,894.5h176.6
					l107.5-318.6V1002L3109.6,1002L3109.6,1002z M3171,679.5l49.9,153.6h-103.7L3171,679.5z"/>
				<path d="M3405.2,264.9c-30.7-99.8-122.8-176.6-234.2-176.6s-203.5,72.9-230.3,172.8l-280.2,821.5V479.9h-422.3v149.7h276.4
					v406.9H2169c-84.5,0-149.7-69.1-149.7-149.7V407c0-84.5,69.1-149.7,149.7-149.7h495.2V107.5h-499.1
					c-165.1,0-299.4,134.4-299.4,299.4v479.9c0,165.1,134.4,299.4,299.4,299.4h618.1l311-902.2c11.5-34.6,42.2-57.6,80.6-57.6
					c38.4,0,69.1,23,80.6,57.6l253.4,752.4h-399.3v149.7h606.6l0,0L3405.2,264.9z"/>
			</g>
			<g>
				<path d="M1293.7,1036.6c-84.5,0-149.7-69.1-149.7-149.7V407c0-84.5,69.1-149.7,149.7-149.7h514.4V107.5h-514.4
					c-165.1,0-299.4,134.4-299.4,299.4v479.9c0,165.1,134.4,299.4,299.4,299.4h514.4v-149.7L1293.7,1036.6L1293.7,1036.6z"/>
				<path d="M1328.3,817.7h372.4V668h-522.1v222.7c0,65.3,49.9,115.2,115.2,115.2h514.4V856.1h-445.3
					C1343.7,852.3,1328.3,836.9,1328.3,817.7z"/>
				<path d="M1700.7,479.9h-372.4c0-19.2,15.4-34.6,34.6-34.6h441.5V291.8h-510.6c-65.3,0-115.2,49.9-115.2,115.2v222.7h522.1
					C1700.7,629.6,1700.7,479.9,1700.7,479.9z"/>
			</g>
		</g>
	</g>
	<g>
		<path d="M78.8,1791.1v314.1H0v-698h78.8v310.1h402.8v-310.1h78.8v698h-78.8v-314.1H78.8z"/>
		<path d="M843.6,1407.2v698h-78.8v-698L843.6,1407.2L843.6,1407.2z"/>
		<path d="M1642.3,2105.2h-98.7l-268.2-338l-148.6,150.6v187.5H1048v-698h78.8v416.8l400.9-416.8h101.7l-299.1,305.1L1642.3,2105.2z
			"/>
		<path d="M2410.1,2105.2h-84.8l-81.8-184.5h-379.9l-82.8,184.5H1700l318.1-703h73.8L2410.1,2105.2z M2054.1,1494l-159.5,356h318.1
			L2054.1,1494z"/>
		<path d="M3028.3,2105.2L2825.9,1834h-199.4v271.2h-78.8v-698h300.1c153.6,0,252.3,82.8,252.3,208.4
			c0,116.7-79.8,184.5-189.5,204.4l214.4,285.2H3028.3z M2841.9,1480h-215.4v283.2h214.4c104.7,0,179.5-53.8,179.5-144.6
			C3020.3,1531.9,2954.5,1480,2841.9,1480z"/>
		<path d="M3839,1807.1c0,203.4-116.7,309.1-291.2,309.1c-172.5,0-290.2-105.7-290.2-303.1v-405.8h78.8v400.8
			c0,150.6,79.8,235.3,213.4,235.3c128.6,0,210.4-77.8,210.4-230.3v-405.8h78.8V1807.1z"/>
	</g>
</g>
</svg>
