<?xml version="1.0" encoding="utf-8"?>
<!-- Generator: Adobe Illustrator 26.0.2, SVG Export Plug-In . SVG Version: 6.00 Build 0)  -->
<svg version="1.1" id="Layer_1" xmlns="http://www.w3.org/2000/svg" xmlns:xlink="http://www.w3.org/1999/xlink" x="0px" y="0px"
	 viewBox="0 0 3839 1386.5" style="enable-background:new 0 0 3839 1386.5;" xml:space="preserve">
<style type="text/css">
	.st0{display:none;}
	.st1{display:inline;}
	.st2{fill:#C2AC6D;}
	.st3{fill:#FFFFFF;}
	.st4{fill:#F91716;}
	.st5{fill-rule:evenodd;clip-rule:evenodd;fill:#F91716;}
	.st6{fill-rule:evenodd;clip-rule:evenodd;}
	.st7{fill-rule:evenodd;clip-rule:evenodd;fill:#FFFFFF;}
</style>
<g>
	<g>
		<g>
			<path d="M643.3,16h-195v25.6h25.4c34.1,0,61.7,31.8,61.7,65.7v316.4L202.9,16H0v25.6c45.3,0,81.1,40.9,81.1,86.3v443.4
				c0,45.3-47.8,60.4-81.1,60.4v25.6h220.4v-25.6c-41.3-0.2-63.1-5.9-77.2-19.2c-14.1-13.4-17.9-31.1-17.9-55.4V141.5l430.5,524.9
				h23.5V108c0-33.1,25.9-61.2,64-62.6V16z"/>
			<circle cx="1943.7" cy="334.6" r="74.4"/>
			<path d="M2362.6,357.3v31h24.2c39.3,0,50.5,19,50.5,52.9v151.6c-9,11-39.7,24.8-83,24.8c-8.8,0-59-1-96.5-31.8
				c-39.2-32.2-65.6-97.4-65.6-252.4c0-201.8,71-287.3,173.9-287.3c33.5,0,147,22.6,195.3,168.6h30.3V4.1h-28.6
				c-3.6,28.3-26,44-68.3,26.4C2430.9,4,2373.8,0,2332,0c-164.6,0-304.9,152.5-304.9,334.6c0,209.8,158.4,332.7,328.5,332.7
				c80.6,0,166.1-18.6,233.8-52.9V441.2c0-40.6,28.3-52.9,66.5-52.9v-31L2362.6,357.3L2362.6,357.3z"/>
			<g>
				<path d="M1185.2,459.4c-15.9,87.9-91.7,156.5-176.7,154.3h-73.4c-23,0-41.7-18.7-41.7-41.7V347.2h20.1
					c60,0,98.3,50.2,98.3,136.6h26.3V330.7v-7.8V172.7h-26.3c0,76-32.1,130.9-98.4,130.9h-20.1V54.5h105.5
					c142,0,146.8,126.5,146.8,142.8h28.3V59.9V16H662.2v25.5h36.1c27.6,0,50,26.1,50,53.6v472.1c0,49.7-32.6,61-60.2,61h-25.9v29.2
					h86.1h433l29.2-198H1185.2z"/>
				<path d="M1533.5,9.3c-184.6,0-326.7,135.9-326.7,331.3s142.2,331.3,326.7,331.3c184.6,0,326.8-135.9,326.8-331.3
					S1718.1,9.3,1533.5,9.3z M1533.5,629c-88.7,0-160.4-81.2-160.4-288.5S1445,52.1,1533.5,52.1c88.7,0,160.4,81.2,160.4,288.5
					C1694.1,547.8,1622.2,629,1533.5,629z"/>
			</g>
			<g>
				<path d="M3163.9,459.4c-15.9,87.9-91.7,156.5-176.7,154.3h-73.4c-23,0-41.7-18.7-41.7-41.7V347.2h20.1
					c60,0,98.3,50.2,98.3,136.6h26.3V330.7v-7.8V172.7h-26.3c0,76-32.1,130.9-98.4,130.9H2872V54.5h105.5
					c142,0,146.8,126.5,146.8,142.8h28.3V59.9V16h-511.7v25.5h36.1c27.6,0,50,26.1,50,53.6v472.1c0,49.7-32.6,61-60.2,61h-25.9v29.2
					h86.1h433l29.2-198H3163.9z"/>
				<path d="M3512.2,9.3c-184.6,0-326.7,135.9-326.7,331.3s142.2,331.3,326.7,331.3c184.6,0,326.8-135.9,326.8-331.3
					S3696.8,9.3,3512.2,9.3z M3512.2,629c-88.7,0-160.4-81.2-160.4-288.5s71.9-288.5,160.4-288.5c88.7,0,160.4,81.2,160.4,288.5
					C3672.8,547.8,3600.9,629,3512.2,629z"/>
			</g>
		</g>
	</g>
	<g>
		<g>
			<g>
				<g>
					<path class="st6" d="M2673.2,980.1h-332.1v-93.9h208.7l20.6,35.7h142.3l-39.8-69c-25.5-44.1-72.5-71.3-123.5-71.3h-248.2
						c-35.3,0-91.2,28.6-91.2,63.8v179.6c0,35.2,61.8,59.5,106.7,59.5h347.7l54.2,93.9h-377.4v-35.7H2210v62
						c0,43.2,26.2,78.2,103,78.2h475.3c59,0,95.9-63.9,66.4-115l-71.9-124.6C2760.2,1004.2,2718.4,980.1,2673.2,980.1z"/>
					<g>
						<path class="st6" d="M1485.3,820.3l-125.8,217.9V859c0-42.7-34.6-77.3-77.3-77.3H1231c-27.6,0-53.1,14.7-66.9,38.6L896.9,1283
							h142.3l197.1-341.3v272.6c0,38,30.8,68.8,68.8,68.8h15.7c24.6,0,47.3-13.1,59.5-34.4l168-290.9V1283h131.1V845.8
							c0-45.9-43.5-64-78.9-64h-48.3C1524.7,781.7,1499.1,796.5,1485.3,820.3z"/>
					</g>
					<g>
						<path class="st6" d="M2032.5,1221.6l164.4-439.8h-123.5l-129.6,346.6l-129.6-346.7h-123.5l164.4,439.8
							c13.8,37,49.2,61.5,88.6,61.5l0,0C1983.4,1283,2018.7,1258.5,2032.5,1221.6z"/>
					</g>
					<path class="st6" d="M1140.5,1327.1c-1.3-4.7-3.8-9-7.3-12.5c-16.4-16.3-42.9-16.5-59.6-0.7c-16.6-15.8-43.2-15.6-59.6,0.7
						c-3.5,3.5-6,7.8-7.3,12.5c-0.3,0.9-0.4,1.5-0.4,1.7l0,0l0,0v57.6h17v-56.7l0,0c10.3-14.2,31.5-14.2,41.8,0v56.7h17v-56.7
						c10.3-14.2,31.5-14.2,41.8,0l0,0v56.7h17v-57.6C1140.8,1328.7,1140.7,1328,1140.5,1327.1z"/>
					<path class="st6" d="M2752.1,1327.1c-1.3-4.7-3.8-9-7.3-12.5c-16.4-16.3-42.9-16.5-59.6-0.7c-16.6-15.8-43.2-15.6-59.6,0.7
						c-3.5,3.5-6,7.8-7.3,12.5c-0.3,0.9-0.4,1.5-0.4,1.7l0,0l0,0v57.6h17v-56.7l0,0c10.3-14.2,31.5-14.2,41.8,0v56.7h17v-56.7
						c10.3-14.2,31.5-14.2,41.8,0l0,0v56.7h17v-57.6C2752.5,1328.7,2752.4,1328,2752.1,1327.1z"/>
					<path class="st6" d="M1290.3,1369.5L1290.3,1369.5c-4.3,0-8.5-2.8-8.5-8.5l0,0v-58.8h-17v58.8c0,17,12.7,25.4,25.4,25.4h62.4
						v-17H1290.3z"/>
					<rect x="1464.8" y="1302.2" class="st6" width="17" height="84.2"/>
					<rect x="1686.5" y="1302.2" class="st6" width="17" height="84.2"/>
					<polygon class="st6" points="1457.3,1302.2 1417.2,1302.2 1400.3,1302.2 1359.7,1302.2 1359.7,1319.2 1400.3,1319.2 
						1400.3,1386.4 1417.2,1386.4 1417.2,1319.2 1457.3,1319.2 					"/>
					<polygon class="st6" points="2501.6,1302.2 2461.5,1302.2 2444.6,1302.2 2404,1302.2 2404,1319.2 2444.6,1319.2 2444.6,1386.4 
						2461.5,1386.4 2461.5,1319.2 2501.6,1319.2 					"/>
					<path class="st6" d="M1240.1,1302.2v58.8l0,0c0,5.6-4.3,8.5-8.5,8.5l0,0h-52.6l0,0c-4.3,0-8.5-2.8-8.5-8.5l0,0v-58.8h-17v58.8
						c0,17,12.7,25.4,25.4,25.4h52.6c12.7,0,25.4-8.5,25.4-25.4v-58.8H1240.1z"/>
					<path class="st6" d="M1789.7,1302.2h-60.6h-14.3h-2.6v84.2h2.6h14.3h60.6c17,0,25.4-12.7,25.4-25.4v-33.4
						C1815.1,1314.9,1806.6,1302.2,1789.7,1302.2z M1789.7,1369.5h-60.6v-50.3h60.6l0,0c5.6,0,8.5,4.3,8.5,8.5l0,0v33.4l0,0
						C1798.2,1365.3,1795.4,1369.5,1789.7,1369.5z"/>
					<path class="st6" d="M1922.8,1319.2v-17h-74.9c-17,0-25.4,12.7-25.4,25.4v33.4c0,12.7,8.5,25.4,25.4,25.4h74.9v-17h-74.9
						c-5.6,0-8.5-4.3-8.5-8.5l0,0v-8.2h82.9v-17h-82.9v-8.2l0,0c0-4.3,2.8-8.5,8.5-8.5l0,0H1922.8z"/>
					<path class="st6" d="M2608.8,1319.2v-17h-74.9c-17,0-25.4,12.7-25.4,25.4v33.4c0,12.7,8.5,25.4,25.4,25.4h74.9v-17h-74.9
						c-5.6,0-8.5-4.3-8.5-8.5l0,0v-8.2h82.9v-17h-82.9v-8.2l0,0c0-4.3,2.8-8.5,8.5-8.5l0,0H2608.8z"/>
					<path class="st6" d="M2105.1,1319.2h74.5v-17h-74.5l0,0c-33.7,0-33.7,50.6,0,50.6l0,0h49.2l0,0c11.1,0,11.1,16.7,0,16.7l0,0
						h-74.5v17h74.5l0,0c33.7,0,33.7-50.6,0-50.6h-49.2C2093.9,1335.9,2093.9,1319.2,2105.1,1319.2z"/>
					<path class="st6" d="M2321.1,1319.2h74.5v-17h-74.5l0,0c-33.7,0-33.7,50.6,0,50.6l0,0h49.2l0,0c11.1,0,11.1,16.7,0,16.7l0,0
						h-74.5v17h74.5l0,0c33.7,0,33.7-50.6,0-50.6h-49.2C2310,1335.9,2310,1319.2,2321.1,1319.2z"/>
					<path class="st6" d="M2007.3,1302.2L2007.3,1302.2L2007.3,1302.2h-53.1l0,0l0,0c-17,0-25.4,12.7-25.4,25.4v33.4
						c0,12.7,8.5,25.4,25.4,25.4l0,0l0,0h53.1l0,0l0,0c17,0,25.4-12.7,25.4-25.4v-33.4C2032.7,1314.9,2024.2,1302.2,2007.3,1302.2z
						 M1954.2,1369.5c-5.6,0-8.5-4.3-8.5-8.5l0,0v-33.4l0,0c0-4.3,2.8-8.5,8.5-8.5h53.1c5.6,0,8.5,4.3,8.5,8.5l0,0v33.4l0,0
						c0,4.3-2.8,8.5-8.5,8.5H1954.2z"/>
					<polygon class="st6" points="1659.3,1302.2 1621,1366 1582.7,1302.2 1562.9,1302.2 1613.5,1386.4 1628.5,1386.4 1679.1,1302.2 
											"/>
				</g>
			</g>
			<path d="M2272.8,1302.5v26.2c0,4.3-2.8,8.5-8.5,8.5h-51.2c-5.6,0-8.5-4.3-8.5-8.5v-26.2h-17v26.2c0,12.7,8.5,25.4,25.4,25.4h17.1
				v32.1h17v-32.1h17.1c17,0,25.4-12.7,25.4-25.4v-26.2H2272.8z"/>
		</g>
	</g>
</g>
</svg>
