<?xml version="1.0" encoding="utf-8"?>
<!-- Generator: Adobe Illustrator 25.2.3, SVG Export Plug-In . SVG Version: 6.00 Build 0)  -->
<svg version="1.1" id="Layer_1" xmlns="http://www.w3.org/2000/svg" xmlns:xlink="http://www.w3.org/1999/xlink" x="0px" y="0px"
	 viewBox="0 0 3839 323.21" style="enable-background:new 0 0 3839 323.21;" xml:space="preserve">
<style type="text/css">
	.st0{fill:#010101;}
	.st1{fill:#871A1C;}
	.st2{fill:#FBDD00;}
	.st3{fill:#FFFFFF;}
</style>
<g>
	<g>
		<g>
			<path class="st0" d="M1.43,189.95h102.75v19.19H63.83v107.73H41.61V209.15H1.43V189.95z"/>
			<path class="st0" d="M126.32,189.95h23.11l31.82,100.43h0.36l32.53-100.43h22.57l-43.37,126.92h-24.71L126.32,189.95z"/>
		</g>
		<g>
			<path class="st0" d="M0,3.96h91.37v19.19H22.22v33.24h63.99v18.14H22.22v37.15h70.39v19.2H0V3.96z"/>
			<path class="st0" d="M123.1,3.96h56c36.26,0,43.2,23.47,43.2,39.28c0,15.64-6.93,39.11-43.2,38.93h-33.78v48.71H123.1V3.96z
				 M145.32,64.05h32.53c9.95,0,22.22-4.98,22.22-20.98c0-16.72-10.13-20.98-21.87-20.98h-32.89V64.05z"/>
			<path class="st0" d="M367.62,67.42c0,36.27-22.75,66.49-60.8,66.49c-38.04,0-60.79-30.22-60.79-66.49s22.75-66.49,60.79-66.49
				C344.87,0.93,367.62,31.15,367.62,67.42z M268.25,67.42c0,24.35,11.38,48.35,38.58,48.35c27.2,0,38.58-23.99,38.58-48.35
				s-11.38-48.36-38.58-48.36C279.62,19.06,268.25,43.07,268.25,67.42z"/>
			<path class="st0" d="M484.69,44.3c-3.73-14.57-13.15-25.24-31.64-25.24c-27.2,0-38.58,24-38.58,48.36s11.38,48.35,38.58,48.35
				c19.73,0,30.57-14.75,32.36-33.24h21.69c-1.78,30.41-23.29,51.38-54.04,51.38c-38.04,0-60.79-30.22-60.79-66.49
				s22.75-66.49,60.79-66.49c28.62,0.18,51.2,16,53.87,43.37H484.69z"/>
			<path class="st0" d="M537.94,3.96h22.22v50.48h57.77V3.96h22.22v126.92h-22.22V73.65h-57.77v57.24h-22.22V3.96z"/>
		</g>
		<g>
			<path class="st0" d="M467.07,320.18h-14.22l-3.38-14.93c-11.91,13.5-22.75,17.95-38.22,17.95c-38.04,0-60.79-30.22-60.79-66.49
				s22.75-66.49,60.79-66.49c27.74,0,51.02,14.75,54.4,43.37h-21.69c-2.13-16.7-16.71-25.24-32.71-25.24
				c-27.19,0-38.57,24-38.57,48.36c0,24.35,11.38,48.35,38.57,48.35c22.75,0.36,35.2-13.33,35.56-34.83h-33.78v-16.89h54.04V320.18z
				"/>
			<path class="st0" d="M536.32,193.26h23.64l48.88,126.92h-23.82l-11.91-33.59h-50.66l-11.91,33.59h-22.93L536.32,193.26z
				 M528.5,269.7h38.75l-19.02-54.57h-0.53L528.5,269.7z"/>
			<path class="st0" d="M631.69,193.26h31.29L698,292.63h0.35l34.13-99.37h30.94v126.92h-21.16v-97.96h-0.35l-35.2,97.96H688.4
				l-35.2-97.96h-0.36v97.96h-21.15V193.26z"/>
			<path class="st0" d="M801.22,193.26h91.37v19.19h-69.15v33.24h63.99v18.14h-63.99v37.15h70.39v19.2h-92.62V193.26z"/>
		</g>
	</g>
	<g>
		<path class="st0" d="M1455.11,314.88V211.87h-71.73l-37.94,49.63c17.93-5,29.61-16.68,40.03-32.53h63.82
			c-17.11,38.37-64.65,92.17-150.99,92.17c-94.25,0-163.06-76.74-163.06-161.4C1135.24,73.82,1203.21,0,1294.96,0
			c47.97,0,87.59,12.93,121.37,44.62l-33.79,45.46c-19.18-19.6-45.04-36.7-87.15-36.7c-59.23,0-103.03,48.38-103.03,106.35
			c0,51.72,37.54,95.93,84.25,106.35l188.1-259.83h47.54v308.63H1455.11z M1455.11,108.02h-0.83l-37.53,55.05h38.36V108.02z"/>
		<path class="st0" d="M1750.81,321.14c-19.18,0-41.3-6.26-59.64-20.44c-18.35,13.76-41.28,20.44-63.38,20.44
			c-39.63,0-97.19-26.69-100.52-94.67h60.06c2.92,30.87,23.35,41.29,40.86,41.29c22.53,0,42.55-15.43,42.55-38.79
			c0-31.7-20.43-36.29-58.39-52.55c-27.11-11.68-69.64-29.2-69.64-90.09c0-52.13,37.94-86.33,90.49-86.33
			c19.2,0,42.55,7.09,60.48,23.77C1709.51,9.18,1731.63,0,1756.65,0c35.86,0,88.41,25.02,91.33,88h-58.38
			c-2.5-27.53-19.2-34.62-34.62-34.62c-17.93,0-31.7,12.93-31.7,31.28c0,25.44,15.44,32.53,46.71,42.96
			c25.44,8.34,80.91,27.94,80.91,95.09C1850.9,281.94,1809.2,321.14,1750.81,321.14z M1666.14,88
			c-2.5-27.53-19.18-34.62-34.62-34.62c-21.27,0-31.68,14.18-31.68,30.03c0,20.44,12.09,31.7,45.46,45.88
			c11.27,4.59,27.53,10.42,42.95,20.02C1675.74,135.96,1666.14,116.78,1666.14,88z M1738.29,178.08
			c-8.75-3.33-20.85-7.5-32.94-15.01c12.92,13.35,22.52,32.11,22.52,59.64c0,11.26-1.67,21.69-4.17,31.28
			c6.68,10.01,20.85,13.76,31.7,13.76c21.68,0,38.36-15.85,38.36-37.53C1793.76,202.28,1779.17,193.52,1738.29,178.08z"/>
		<path class="st0" d="M1860.06,314.88V6.26h165.99v53.38H1917.2v75.49h104.26v53.38H1917.2v72.99h108.85v53.38H1860.06z"/>
		<path class="st0" d="M2253.51,59.64h-43.86V6.26h144.84v53.38h-43.86v255.24h-57.12V59.64"/>
		<path class="st0" d="M2089.29,59.64h-43.86V6.26h144.84v53.38h-43.86v255.24h-57.12V59.64"/>
		<path class="st0" d="M2373.87,314.88V6.26h165.99v53.38h-108.85v75.49h104.26v53.38h-104.26v72.99h108.85v53.38H2373.87z"/>
		<path class="st0" d="M2846.4,314.88L2629.11,6.26h70.48l138.47,203.11h0.83V6.26h57.14v308.63H2846.4z"/>
		<path class="st0" d="M2915.21,314.88V6.26h57.14v308.63H2915.21z"/>
		<path class="st0" d="M3079.11,321.14c-54.62,0-98-40.04-100.51-94.67h60.06c2.09,23.36,16.27,41.29,40.88,41.29
			c22.1,0,42.53-15.43,42.53-38.79c0-35.03-31.7-41.71-58.81-52.13c-9.6-3.76-18.76-7.09-27.94-11.68
			c-31.28-16.26-45.46-41.7-45.46-77.16c0-50.88,40.03-88,90.51-88c50.05,0,88.82,37.96,91.33,88h-58.39
			c-1.67-20.85-12.92-34.62-34.61-34.62c-17.94,0-31.7,12.93-31.7,31.28c0,29.61,28.36,35.45,51.3,42.96
			c46.71,15.43,80.91,40.87,80.91,95.09C3179.22,281.1,3136.67,321.14,3079.11,321.14z"/>
		<path class="st0" d="M3185.47,314.88V6.26h57.12v308.63H3185.47z"/>
		<path class="st0" d="M3415.68,321.14c-88.42,0-161.4-70.9-161.4-159.74c0-89.67,72.15-161.4,161.4-161.4
			c89.24,0,161.4,71.73,161.4,161.4C3577.09,250.24,3504.11,321.14,3415.68,321.14z M3415.68,53.38
			c-59.23,0-104.28,49.63-104.28,107.6c0,57.55,45.89,106.77,104.28,106.77c58.38,0,104.26-49.21,104.26-106.77
			C3519.95,103.02,3474.89,53.38,3415.68,53.38z"/>
		<path class="st0" d="M3775.18,314.88L3646.31,90.5h-0.83v224.38h-57.14V6.26h65.07l127.62,224.38h0.83V6.26H3839v308.63H3775.18z"
			/>
	</g>
</g>
</svg>
