<?xml version="1.0" encoding="utf-8"?>
<!-- Generator: Adobe Illustrator 26.0.1, SVG Export Plug-In . SVG Version: 6.00 Build 0)  -->
<svg version="1.1" id="Layer_1" xmlns="http://www.w3.org/2000/svg" xmlns:xlink="http://www.w3.org/1999/xlink" x="0px" y="0px"
	 viewBox="0 0 3839 1264.2" style="enable-background:new 0 0 3839 1264.2;" xml:space="preserve">
<style type="text/css">
	.st0{fill:#FFE000;}
	.st1{fill:#FFFFFF;}
	.st2{fill:#FF001F;}
</style>
<g>
	<g>
		<g>
			<g>
				<rect x="2353" y="176.9" width="50.6" height="160.7"/>
				<rect x="1453.3" y="176.9" width="50.6" height="160.4"/>
				<polygon points="931.7,176.9 931.7,222.5 931.7,257.3 931.7,294.9 931.7,337.4 982.2,337.4 982.2,294.9 1138,294.9 1138,257.3 
					982.2,257.3 982.2,222.5 1138,222.5 1138,176.9 982.2,176.9 				"/>
				<polygon points="2258,234.5 2135.6,234.5 2135.6,176.9 2085.1,176.9 2085.1,234.5 2085.1,280.2 2085.1,337.4 2135.6,337.4 
					2135.6,280.2 2258,280.2 2258,337.1 2308.6,337.1 2308.6,280.2 2308.6,234.5 2308.6,176.9 2258,176.9 				"/>
				<path d="M2852.7,176.9h-146.3h-32.3v160.4h32.3v0.4h146.3c30.2,0,54.7-21.5,54.7-71.9v-7v-3v-6.9
					C2907.3,198.3,2882.8,176.9,2852.7,176.9z M2861,256.9v0.4v7.4c0,17.9-10.7,27.1-23.9,27.1h-112.4v-69.2h112.4
					c13.2,0,23.9,9.2,23.9,27.1V256.9z"/>
				<polygon points="2498.6,176.9 2448.1,176.9 2448.1,291.4 2448.1,337.1 2448.1,337.4 2498.6,337.4 2498.6,337.1 2654.4,337.1 
					2654.4,291.4 2498.6,291.4 				"/>
				<path d="M1989.6,176.9h-116c-34.6,0-62.7,28.1-62.7,62.7v35c0,34.6,28.1,62.7,62.7,62.7h116c34.6,0,62.7-28.1,62.7-62.7v-1.9
					h-50.6v0.4c0,10.2-8.3,18.5-18.5,18.5H1880c-10.2,0-18.5-8.3-18.5-18.5v-31.9c0-10.2,8.3-18.5,18.5-18.5h103.2
					c10.2,0,18.5,8.3,18.5,18.5v0.4h50.6v-1.9C2052.3,204.8,2024.3,176.9,1989.6,176.9z"/>
				<path d="M1779.4,255v-29.6c0-26.9-21.8-48.6-48.6-48.6h-170h-12.6v160.4h50.6v-42.3h84.2l40.3,42.2h62.9l-40.8-42.7
					C1764.7,291.5,1779.4,275,1779.4,255z M1715.7,257.3H1599v-34.8h116.7c9.6,0,17.4,7.8,17.4,17.4S1725.3,257.3,1715.7,257.3z"/>
				<path d="M1329.4,176.9h-40.5h-4.8h-50.5h-0.4L1140,337.5h60.9l22-42.5h127.3l22,42.5h60.9l-93.2-160.7L1329.4,176.9
					L1329.4,176.9z M1242.4,257.3l18-34.8h52.2l18,34.8H1242.4z"/>
			</g>
			<rect x="931.7" width="1975.7" height="134.8"/>
			<rect x="931.7" y="379.5" width="1975.7" height="134.8"/>
		</g>
		<g>
			<g>
				<polygon points="2059.7,951.5 1860.3,679.4 1758.2,679.4 1758.2,1183.1 1885.9,1183.1 1885.9,930.4 2071.2,1183.1 
					2187.4,1183.1 2187.4,679.4 2059.7,679.4 				"/>
				<polygon points="1588.3,951.5 1388.9,679.4 1286.8,679.4 1286.8,1183.1 1414.5,1183.1 1414.5,930.4 1599.8,1183.1 
					1716.1,1183.1 1716.1,679.4 1588.3,679.4 				"/>
				<polygon points="2255.6,679.4 2229.6,679.4 2229.6,1183.1 2255.6,1183.1 2255.6,1183.2 2510.6,1183.2 2510.6,1055.4 
					2357.4,1055.4 2357.4,999.1 2510.6,999.1 2510.6,871.4 2357.4,871.4 2357.4,807.2 2510.6,807.2 2510.6,679.4 2357.4,679.4 				
					"/>
				<polygon points="2680.6,1055.4 2680.6,679.4 2552.8,679.4 2552.8,1183.1 2568.6,1183.1 2568.6,1183.2 2823.7,1183.2 
					2823.7,1055.4 				"/>
				<path d="M1116.9,679.4h-100.1l-202.5,426.8V679.4H686.5v184H543.3v-184H415.6v503.7h127.7V991.1h143.3v191.9h91.3l0,0h142.6
					l87.3-184h109.2v184h127.8V679.4h-85.3H1116.9z M1068.3,871.4l48.6-102.4v102.4H1068.3z"/>
				<path d="M71.9,752.2C25.2,800.1,0,864.2,0,930.9c0,72.5,24.6,136,78.3,184.5c50.5,46,115.2,71.9,183.2,71.9
					c39.5,0,69.9-9.8,112-22.7v-152.1c-26.5,31.7-68,51.8-109.4,51.8c-79,0-132.1-55.7-132.1-132.7c0-75.7,52.4-135.3,130.1-135.3
					c43.4,0,85.5,18.7,111.4,53.7h0.1V697.8c-37.6-15.5-75.1-24.6-115.9-24.6C189.1,673.2,119.8,703,71.9,752.2z"/>
			</g>
			<path d="M3805.4,690.6c-7.6-28-29.2-50-57.2-57.8c-104.8-29.1-268.8-36.5-370.6-36.5c-101.9,0-265.8,7.4-370.6,36.5
				c-27.9,7.7-49.6,29.8-57.2,57.8c-13.7,50.7-33.6,140.9-33.6,239.6c0,98.7,19.8,189,33.6,239.6c7.6,28,29.2,50.1,57.2,57.8
				c104.8,29.1,268.8,36.5,370.6,36.5c101.9,0,265.8-7.4,370.6-36.5c27.9-7.7,49.6-29.8,57.2-57.8c13.8-50.7,33.6-141,33.6-239.6
				S3819.2,741.3,3805.4,690.6z M3537.5,779.8h-191.7v90.5h191.6v128.1h-191.6v210.3h-128.1V779.8V651.7h128.1h191.7V779.8z"/>
		</g>
	</g>
</g>
</svg>
