<?xml version="1.0" encoding="utf-8"?>
<!-- Generator: Adobe Illustrator 25.4.1, SVG Export Plug-In . SVG Version: 6.00 Build 0)  -->
<svg version="1.1" id="Layer_1" xmlns="http://www.w3.org/2000/svg" xmlns:xlink="http://www.w3.org/1999/xlink" x="0px" y="0px"
	 viewBox="0 0 3839 779.8" style="enable-background:new 0 0 3839 779.8;" xml:space="preserve">
<style type="text/css">
	.st0{fill:#FFFFFF;}
	.st1{fill:#666666;}
	.st2{fill:#91C93D;}
	.st3{fill:#999999;}
	.st4{clip-path:url(#SVGID_00000116938586353992589270000017781493007905369269_);}
	.st5{clip-path:url(#SVGID_00000111160401030586589100000001947781310319907475_);}
	.st6{clip-path:url(#SVGID_00000047781726700867332950000012547166889964311964_);}
	.st7{clip-path:url(#SVGID_00000010312686917530989880000005591009097102390918_);}
	.st8{fill:url(#SVGID_00000013183673975968182460000001206467393142444960_);}
	.st9{fill:url(#SVGID_00000002363494559604837080000011768039265529191560_);}
	.st10{fill:url(#SVGID_00000168113038346599496190000009601472560240401331_);}
	.st11{fill:url(#SVGID_00000142178050029557415490000011333390008911334037_);}
	.st12{opacity:0.8;fill:url(#SVGID_00000023979231273287223210000008374888103440757125_);}
	.st13{opacity:0.55;fill:url(#SVGID_00000103245981189549075470000001554020521393393320_);}
	.st14{fill:url(#SVGID_00000101817452182737580020000011199735392779894433_);}
	.st15{fill:url(#SVGID_00000082335689341408738090000013406534869892065686_);}
	.st16{clip-path:url(#SVGID_00000164477830842254707710000009671926910138475169_);}
	.st17{fill:url(#SVGID_00000119110161713682331550000002415489170598736804_);}
	.st18{fill:url(#SVGID_00000136373295554821765150000000125799812804500128_);}
	.st19{fill:url(#SVGID_00000041279920259125982280000016511206873556401547_);}
	.st20{opacity:0.8;fill:url(#SVGID_00000165942479099292583410000012178111768803413888_);}
	.st21{opacity:0.55;fill:url(#SVGID_00000134248751744825429580000017694091080968822687_);}
	.st22{fill:url(#SVGID_00000094612953884945485160000007406658196077751453_);}
	.st23{fill:url(#SVGID_00000154403243250350793390000001473865952914503356_);}
	.st24{clip-path:url(#SVGID_00000159458622230595273090000010188436765373955720_);}
	.st25{fill:#BFBDBE;}
	.st26{fill:url(#SVGID_00000124853908260646384780000011503902707845222801_);}
	.st27{fill:url(#SVGID_00000133528603280353971780000012813237025272607132_);}
	.st28{opacity:0.8;fill:url(#SVGID_00000078758006995714091610000014169588061943928192_);}
	.st29{opacity:0.55;fill:url(#SVGID_00000095339257708410674040000004157347937825021103_);}
	.st30{fill:url(#SVGID_00000118365987669308679340000000797317458805719215_);}
	.st31{fill:url(#SVGID_00000114069057381438309330000017813602002890297740_);}
	.st32{clip-path:url(#SVGID_00000133496042777488844290000000261538573957465777_);}
	.st33{clip-path:url(#SVGID_00000107567070526640674960000000999551527883108739_);}
	.st34{fill:url(#SVGID_00000154389634753311483700000011428540095056358795_);}
	.st35{fill:url(#SVGID_00000101062288041409919140000016968423080803996337_);}
	.st36{fill:url(#SVGID_00000080914023290283901330000005359301454575696293_);}
	.st37{opacity:0.8;fill:url(#SVGID_00000094616407185852261410000001317972935706445716_);}
	.st38{opacity:0.55;fill:url(#SVGID_00000083050297178361572930000018143757066393589162_);}
	.st39{fill:url(#SVGID_00000111870648526082519630000010239278260482091408_);}
	.st40{fill:url(#SVGID_00000163033909911522504000000017775504891494534038_);}
	.st41{clip-path:url(#SVGID_00000152263376670267594910000018132230116201571215_);}
	.st42{clip-path:url(#SVGID_00000049219960145938565530000006561408879358488218_);}
	.st43{opacity:0.5;fill:url(#SVGID_00000014632422434939851700000013691554878147693720_);}
	.st44{opacity:0.5;fill:url(#SVGID_00000060715872199144421650000015150390283131073420_);}
	.st45{opacity:0.5;fill:url(#SVGID_00000046328135325962591310000009961680213837073850_);}
	.st46{clip-path:url(#SVGID_00000138539235593999322830000002351343466296842122_);}
	.st47{opacity:0.5;fill:url(#SVGID_00000039091295509472317030000018183714116414362526_);}
	.st48{clip-path:url(#SVGID_00000160153411103655792130000001896287561768879239_);}
	.st49{clip-path:url(#SVGID_00000012461105402575208530000013870578484914802355_);}
	.st50{clip-path:url(#SVGID_00000003066899041123342030000012891319725878953651_);}
	.st51{clip-path:url(#SVGID_00000131349676454502676650000017898199268700502444_);}
	.st52{fill:url(#SVGID_00000148623106362026987750000015544861812254055821_);}
	.st53{fill:url(#SVGID_00000083792949111233499980000011394057738808777127_);}
	.st54{fill:url(#SVGID_00000019643936730966945940000014756353987408888477_);}
	.st55{fill:url(#SVGID_00000112621928000357818390000006112796353343368633_);}
	.st56{opacity:0.8;fill:url(#SVGID_00000146468411518221560700000000823014609818260907_);}
	.st57{opacity:0.55;fill:url(#SVGID_00000084502524060794239660000004621549694013411456_);}
	.st58{fill:url(#SVGID_00000052105037390809648040000018338010009764724871_);}
	.st59{fill:url(#SVGID_00000136381585306358483680000006156351167653552519_);}
	.st60{clip-path:url(#SVGID_00000163051913688434961010000001785626714896845503_);}
	.st61{fill:url(#SVGID_00000027576526266025260910000011009313239989656236_);}
	.st62{fill:url(#SVGID_00000132067443219906397450000015553041114588131236_);}
	.st63{fill:url(#SVGID_00000170976242654400005330000000532381284981710740_);}
	.st64{opacity:0.8;fill:url(#SVGID_00000097497401670319429490000016540376456286377911_);}
	.st65{opacity:0.55;fill:url(#SVGID_00000155132732067823325150000016923647489056459405_);}
	.st66{fill:url(#SVGID_00000023258365664795493730000010655640085315616931_);}
	.st67{fill:url(#SVGID_00000045610291037528363420000017886346908398294425_);}
	.st68{clip-path:url(#SVGID_00000088130428156352566710000010018018972255787663_);}
	.st69{fill:url(#SVGID_00000141433678840732363520000017182011156332172702_);}
	.st70{fill:url(#SVGID_00000073703474959966423520000017929409688299643834_);}
	.st71{opacity:0.8;fill:url(#SVGID_00000044885555649659262060000002875131624817021314_);}
	.st72{opacity:0.55;fill:url(#SVGID_00000121977201046992951900000007019265409865359263_);}
	.st73{fill:url(#SVGID_00000163039918421453801510000013337018748305361549_);}
	.st74{fill:url(#SVGID_00000132046858488904709260000013768889746612252048_);}
	.st75{clip-path:url(#SVGID_00000016784821674911007310000017665390770528329891_);}
	.st76{clip-path:url(#SVGID_00000029018344816652124200000008986796814032976780_);}
	.st77{clip-path:url(#SVGID_00000054957301294884930040000002558900540102843047_);}
	.st78{clip-path:url(#SVGID_00000057839894086448105570000011242879124478497158_);}
	.st79{clip-path:url(#SVGID_00000026853683059965505770000014989677510486550941_);}
	.st80{fill:url(#SVGID_00000100373972543284313120000014854455999122713019_);}
	.st81{fill:url(#SVGID_00000072966534451339540010000003653793012152571063_);}
	.st82{fill:url(#SVGID_00000039101555923317960670000017987565620681904259_);}
	.st83{fill:url(#SVGID_00000021105675664202155010000007508276917120239024_);}
	.st84{opacity:0.8;fill:url(#SVGID_00000001641008167670669150000000545179659866638979_);}
	.st85{opacity:0.55;fill:url(#SVGID_00000034801539623397819790000003787200570884414629_);}
	.st86{fill:url(#SVGID_00000081650160019832700780000005285397617850718870_);}
	.st87{fill:url(#SVGID_00000016775219429711411220000014608452386431095434_);}
	.st88{clip-path:url(#SVGID_00000025417658393595681630000012765020593202064817_);}
	.st89{fill:url(#SVGID_00000049191089818401418190000005448129260329519540_);}
	.st90{fill:url(#SVGID_00000008850066487845385930000007671943851387094146_);}
	.st91{fill:url(#SVGID_00000032635783776876080600000008629473235153451709_);}
	.st92{opacity:0.8;fill:url(#SVGID_00000088844342623200471560000008481470040632274350_);}
	.st93{opacity:0.55;fill:url(#SVGID_00000036220436255037697350000017953507676474623405_);}
	.st94{fill:url(#SVGID_00000142152553551204219100000005911612437724840323_);}
	.st95{fill:url(#SVGID_00000036950037178585650390000012114887856940131991_);}
	.st96{clip-path:url(#SVGID_00000004528441817748750500000017119649067073814926_);}
	.st97{fill:url(#SVGID_00000044894184552255654570000014680287730919057321_);}
	.st98{fill:url(#SVGID_00000183957538613183862520000011883946084477540274_);}
	.st99{opacity:0.8;fill:url(#SVGID_00000021840083169068319590000008081569918634675336_);}
	.st100{opacity:0.55;fill:url(#SVGID_00000182493592127289151920000003505832214147880868_);}
	.st101{fill:url(#SVGID_00000044176689320198687130000008660301996852542343_);}
	.st102{fill:url(#SVGID_00000183247225146979229190000002705818801154746506_);}
	.st103{clip-path:url(#SVGID_00000157297124401363186330000011922371487134706851_);}
	.st104{clip-path:url(#SVGID_00000163056439097344886570000014735699402593067155_);}
	.st105{fill:url(#SVGID_00000048500053013323764050000011043412329032876417_);}
	.st106{fill:url(#SVGID_00000134937744082955819260000001291388582368447141_);}
	.st107{fill:url(#SVGID_00000087400702360369189320000011904873486344778405_);}
	.st108{opacity:0.8;fill:url(#SVGID_00000173839403411486048610000011176334996898661055_);}
	.st109{opacity:0.55;fill:url(#SVGID_00000041253726187652942510000016714299334446612657_);}
	.st110{fill:url(#SVGID_00000116957709203649068920000003950733377440925859_);}
	.st111{fill:url(#SVGID_00000100376407359440228620000002251787929531694466_);}
	.st112{clip-path:url(#SVGID_00000009564661920340253850000002871727193620910269_);}
	.st113{clip-path:url(#SVGID_00000179629325508186604970000003950520003327766198_);}
	.st114{opacity:0.5;fill:url(#SVGID_00000083048945364806003640000002637159190547332525_);}
	.st115{opacity:0.5;fill:url(#SVGID_00000109739085646076941340000002964728031412670092_);}
	.st116{opacity:0.5;fill:url(#SVGID_00000108281903728039897210000011629877085952051350_);}
	.st117{clip-path:url(#SVGID_00000005974472803879014820000002132314602473929384_);}
	.st118{opacity:0.5;fill:url(#SVGID_00000040536316926129601900000008803325103703300284_);}
	.st119{clip-path:url(#SVGID_00000003104352809504914260000012382877958459708859_);}
	.st120{clip-path:url(#SVGID_00000121980071664676981140000005911397857220278178_);}
	.st121{clip-path:url(#SVGID_00000021836543032607881690000001426686311734695321_);}
	.st122{clip-path:url(#SVGID_00000170242149726028364450000016897070230552918917_);}
	.st123{fill:url(#SVGID_00000027565980767679060120000003933484581275063680_);}
	.st124{fill:url(#SVGID_00000125603350724262109200000007377417204965148569_);}
	.st125{fill:url(#SVGID_00000091707763275263407370000015527701290558559129_);}
	.st126{fill:url(#SVGID_00000052795476986668377920000007673329306423745186_);}
	.st127{opacity:0.8;fill:url(#SVGID_00000067201321895372397480000014020369267130355102_);}
	.st128{opacity:0.55;fill:url(#SVGID_00000105403291120209960910000012819799206932170431_);}
	.st129{fill:url(#SVGID_00000120545083569724805950000016712836266634695352_);}
	.st130{fill:url(#SVGID_00000045606611420865780520000001815554691330233494_);}
	.st131{clip-path:url(#SVGID_00000029022054464394578020000012339146900552458385_);}
	.st132{fill:url(#SVGID_00000031897518132079690300000014312820976295344791_);}
	.st133{fill:url(#SVGID_00000019639452592914819070000004331508504688142238_);}
	.st134{fill:url(#SVGID_00000103239134623397420130000011223902320763397821_);}
	.st135{opacity:0.8;fill:url(#SVGID_00000083799439308490352890000003174730803329099914_);}
	.st136{opacity:0.55;fill:url(#SVGID_00000089539486093190723830000007417557432772082564_);}
	.st137{fill:url(#SVGID_00000075851473132933530220000004426834100481207212_);}
	.st138{fill:url(#SVGID_00000052803484561431641080000007366461773923238566_);}
	.st139{clip-path:url(#SVGID_00000137830316349023478390000004341074450417889171_);}
	.st140{fill:url(#SVGID_00000068643589767455221640000014628517703151524753_);}
	.st141{fill:url(#SVGID_00000160883247842552090140000008166840823143308961_);}
	.st142{opacity:0.8;fill:url(#SVGID_00000068637489806076696370000016433873285117728682_);}
	.st143{opacity:0.55;fill:url(#SVGID_00000080894271085148274790000018230636444279932863_);}
	.st144{fill:url(#SVGID_00000011721046883406106010000016968398868633803648_);}
	.st145{fill:url(#SVGID_00000089541957100257152580000008451044564917470864_);}
	.st146{clip-path:url(#SVGID_00000171711940456198394400000015450859564829128106_);}
	.st147{clip-path:url(#SVGID_00000050633120833852829580000000774786861423658133_);}
	.st148{fill:url(#SVGID_00000161633387746116615950000011751153415298039973_);}
	.st149{fill:url(#SVGID_00000141422592856262633310000004175935998916817290_);}
	.st150{fill:url(#SVGID_00000080903245936874037220000018153530497149518236_);}
	.st151{opacity:0.8;fill:url(#SVGID_00000064330429334735440210000007549888981661568700_);}
	.st152{opacity:0.55;fill:url(#SVGID_00000059267937150161841060000003098479702378054564_);}
	.st153{fill:url(#SVGID_00000160179856447382164990000018003084784026844566_);}
	.st154{fill:url(#SVGID_00000085235761153052188210000005182583420080889749_);}
	.st155{clip-path:url(#SVGID_00000021110706840034825710000007372780386371027643_);}
	.st156{clip-path:url(#SVGID_00000006670572706375361080000001785520212211305117_);}
	.st157{opacity:0.5;fill:url(#SVGID_00000140725058214173182740000014502968695073135277_);}
	.st158{opacity:0.5;fill:url(#SVGID_00000066475100667654052570000008327296497950643113_);}
	.st159{opacity:0.5;fill:url(#SVGID_00000056409117110845221810000014162674055317965696_);}
	.st160{clip-path:url(#SVGID_00000045592421685871202440000009679936744727618723_);}
	.st161{opacity:0.5;fill:url(#SVGID_00000116946692310319171640000013309284388318082216_);}
	.st162{clip-path:url(#SVGID_00000080912059117016157670000004942623959714573732_);}
	.st163{fill:url(#SVGID_00000181055474803580260680000012486620759425215421_);}
	.st164{fill:url(#SVGID_00000110461709021507519390000002355012561953282746_);}
	.st165{fill:url(#SVGID_00000143608720008393567610000006203087073273446587_);}
	.st166{opacity:0.8;fill:url(#SVGID_00000104672427322975879980000000687652472041751981_);}
	.st167{opacity:0.55;fill:url(#SVGID_00000168829190908817139470000004165240360506582953_);}
	.st168{fill:url(#SVGID_00000070114572525062410380000001561075148136413061_);}
	.st169{fill:url(#SVGID_00000145755619722567719120000004944880844235712909_);}
	.st170{clip-path:url(#SVGID_00000051362439859418400080000000968986878068500668_);}
	.st171{clip-path:url(#SVGID_00000082345495643296504480000017786989316937368194_);}
	.st172{opacity:0.5;fill:url(#SVGID_00000092441746384777133860000016683122155222738077_);}
	.st173{opacity:0.5;fill:url(#SVGID_00000080206065120190709640000010608299356339795129_);}
	.st174{opacity:0.5;fill:url(#SVGID_00000070088892002393375640000012096083233222711729_);}
	.st175{clip-path:url(#SVGID_00000132050923590217588840000010977646258134287774_);}
	.st176{opacity:0.5;fill:url(#SVGID_00000053522490700877171930000016280991096911501698_);}
	.st177{fill:#9DA0A3;}
	.st178{fill:#107C10;}
	.st179{opacity:0.49;}
	.st180{clip-path:url(#SVGID_00000166644918068953738370000018294375353225613479_);}
	.st181{clip-path:url(#SVGID_00000104695370996405587120000003249278093454865031_);}
	.st182{fill:url(#SVGID_00000181072943417568295720000016476615213833147792_);}
	.st183{opacity:0.15;fill:#FFFFFF;}
	.st184{opacity:7.000000e-02;fill:#FFFFFF;}
	.st185{clip-path:url(#SVGID_00000177475303556838746110000009123145112374454672_);}
	.st186{fill:url(#SVGID_00000084501404753748146090000007537718056140847807_);}
	.st187{clip-path:url(#SVGID_00000072251423127374041920000001723220797992385163_);}
	.st188{fill:url(#SVGID_00000088099345220536760130000011956454234787227830_);}
	.st189{opacity:7.000000e-02;fill:url(#SVGID_00000165913896296844399640000010285704308144405387_);}
	.st190{clip-path:url(#SVGID_00000146500905424941462780000014352642653301936805_);}
	.st191{fill:url(#SVGID_00000067936688950563161210000003730061714937985702_);}
	.st192{fill:url(#SVGID_00000084503032645081142960000012116605929431603847_);}
	.st193{fill:url(#SVGID_00000108284057720440243460000009503416356870881213_);}
	.st194{fill:url(#SVGID_00000143603456197791780800000005839662488991283593_);}
	.st195{fill:url(#SVGID_00000101075492881566692500000011687460547225497769_);}
	.st196{fill:url(#SVGID_00000147205164591684903800000006420437743315152808_);}
	.st197{fill:url(#SVGID_00000022562531574497966800000017180384004073448874_);}
	.st198{fill:url(#SVGID_00000016769844127939594030000005333990194309004694_);}
	.st199{clip-path:url(#SVGID_00000009578376381419823530000017522301862127914663_);}
	.st200{clip-path:url(#SVGID_00000174562013910314630940000007988215742318214793_);}
	.st201{fill:url(#SVGID_00000043444524778042895740000007804199238394251708_);}
	.st202{clip-path:url(#SVGID_00000171693852139021053650000006788525532925116090_);}
	.st203{fill:url(#SVGID_00000162334288416300927580000002354104464529298851_);}
	.st204{clip-path:url(#SVGID_00000016795617168497885790000012631491526798279587_);}
	.st205{fill:url(#SVGID_00000157997755224425974710000015161434834795483808_);}
	.st206{opacity:7.000000e-02;fill:url(#SVGID_00000168806010393275649680000011175103473972452270_);}
	.st207{clip-path:url(#SVGID_00000108987446680375126380000010132011927158451370_);}
	.st208{fill:url(#SVGID_00000039118195811340286250000011341065277915620522_);}
	.st209{fill:url(#SVGID_00000127018801542441586740000010512499018294170557_);}
	.st210{fill:url(#SVGID_00000037694234490882982150000005698351388722259898_);}
	.st211{fill:url(#SVGID_00000125568289320164322830000007995543244864398758_);}
	.st212{fill:url(#SVGID_00000145052139508689847870000007211747447099601058_);}
	.st213{fill:url(#SVGID_00000180328581632570598360000003922825191362637961_);}
	.st214{fill:url(#SVGID_00000136398799849033187400000000741383614905513636_);}
	.st215{fill:url(#SVGID_00000038399103984901044600000009076850509894423703_);}
	.st216{clip-path:url(#SVGID_00000137129606182483460280000013342449628536482985_);}
	.st217{clip-path:url(#SVGID_00000054250066366736552800000014438890544619680681_);}
	.st218{fill:url(#SVGID_00000128448368578568230460000014693068423973438397_);}
	.st219{clip-path:url(#SVGID_00000049922250346789230900000013797482049572510869_);}
	.st220{fill:url(#SVGID_00000059278508301219261960000017037669998336412338_);}
	.st221{clip-path:url(#SVGID_00000087398060599573571090000011954080533808929924_);}
	.st222{fill:url(#SVGID_00000137851038389302873930000004678608189621471373_);}
	.st223{opacity:7.000000e-02;fill:url(#SVGID_00000152962592873016751450000004492263776003701902_);}
	.st224{clip-path:url(#SVGID_00000127747289288904749190000006652900685241973936_);}
	.st225{fill:url(#SVGID_00000082358973129463058940000015606983061336022677_);}
	.st226{fill:url(#SVGID_00000065067219767755152350000018053202392032523400_);}
	.st227{fill:url(#SVGID_00000147212883655845199750000001734400608592674451_);}
	.st228{fill:url(#SVGID_00000167388502372924792310000008053445021892063883_);}
	.st229{fill:url(#SVGID_00000156577088623529151520000012136126373628384945_);}
	.st230{fill:url(#SVGID_00000128454348077489879280000016536345330266197666_);}
	.st231{fill:url(#SVGID_00000049916364710810840510000005936560610431549058_);}
	.st232{fill:url(#SVGID_00000135673207430678745970000006910811101001484448_);}
	.st233{clip-path:url(#SVGID_00000095329573207337030240000017086162165313377941_);}
	.st234{clip-path:url(#SVGID_00000093173885174295821070000013715338870122032540_);}
	.st235{fill:url(#SVGID_00000016045471181768805690000004891107688094809488_);}
	.st236{clip-path:url(#SVGID_00000027592510529320797370000014806863715868539299_);}
	.st237{fill:url(#SVGID_00000096746151272270993110000003587243217284478654_);}
	.st238{clip-path:url(#SVGID_00000145045940392977078290000012477518872495087241_);}
	.st239{fill:url(#SVGID_00000045603006538957128560000007428841840319097774_);}
	.st240{opacity:7.000000e-02;fill:url(#SVGID_00000114071576046421996630000006809094412559233186_);}
	.st241{clip-path:url(#SVGID_00000046341228952598213070000015664064380154907583_);}
	.st242{fill:url(#SVGID_00000080169127596954393920000014317277723117988019_);}
	.st243{fill:url(#SVGID_00000031896900863699568370000006579401765040001185_);}
	.st244{fill:url(#SVGID_00000173143066073307174430000015693683351020835509_);}
	.st245{fill:url(#SVGID_00000115493866424620167560000003672376774705229495_);}
	.st246{fill:url(#SVGID_00000101801074008212877890000012641974860214140053_);}
	.st247{fill:url(#SVGID_00000145738251171154725000000011082887811384035762_);}
	.st248{fill:url(#SVGID_00000105400661994416618020000003874213636599954100_);}
	.st249{fill:url(#SVGID_00000046326901001805357070000010077483633391301507_);}
</style>
<g>
	<g>
		<g>
			<path d="M3590.5,151.3c-111,0-174.7,89.4-174.7,245.2c0,155.7,63.7,245.1,174.7,245.1c63.3,0,110.3-27.6,140.2-81.8
				c28.4-51.7,34.4-117.4,34.4-163.3C3765.1,322.8,3748,151.3,3590.5,151.3 M3590.5,599.7c-31.7,0-58-10.4-78.2-30.5
				c-44.5-44.7-51.3-127.4-51.3-172.7c0-61.1,12.7-203.2,129.5-203.2s129.3,142.1,129.3,203.2
				C3719.8,457.6,3707.3,599.7,3590.5,599.7 M3215.3,313.2c-50.7,0-97,24.7-125.5,65.5c6-88.8,34.5-185.4,130.9-185.4
				c53.8,0,94.7,35.1,103.8,89.6l1.4,8.6h44.8l-1.2-11.4c-8.9-79.4-65.9-128.8-148.8-128.8c-146.7,0-177.4,145.5-177.4,267.4
				c0,145.8,59.5,222.8,172,222.8c92.4,0,162.3-70,162.3-162.8C3377.6,382.8,3309.3,313.2,3215.3,313.2 M3215.3,599.7
				c-66.3,0-118.3-53.2-118.3-120.9c0-70.5,51-123.6,118.3-123.6c30.2,0,58.9,11.8,80.2,33.3c23.4,23.2,36.6,56.2,36.6,90.3
				C3332.2,546.5,3280.9,599.7,3215.3,599.7 M3008.1,497c0,87.3-65,143.7-165.5,143.7c-54.5,0-98.8-16.2-128.1-47
				c-28-29.3-41.6-71.4-39.4-121.6l0.4-9.6h45.3l-0.3,10.5c-1.6,37.8,8.8,69.6,29.9,91.6c21.5,22.2,53.5,34.2,92.2,34.2
				c59.8,0,120.1-35.1,120.1-101.9c0-27.7-8.4-49.6-25.4-65.4c-20.4-19.1-53.3-27.8-94.9-28.3h-31.6c-0.2-11-0.2-32.9,0-44.2
				c11.5-0.1,23.4-0.2,31.4-0.2c22.1,0,65.1-5.6,88.4-27.9c14.3-13.7,21.8-32.6,21.8-55.8c0-54.3-55.3-82.7-109.8-82.7
				c-54,0-94.7,35.2-103.9,89.7l-1.4,8.5h-45l1.3-11.3c8.9-79.4,66.1-128.9,149-128.9c50.7,0,95.4,15.7,122.7,43
				c21.3,21.4,32.3,48.9,32.3,81.7c0,46.5-25.1,86-64.7,104.2C2979.4,398,3008.1,441.8,3008.1,497"/>
			<path d="M2503,629.9l-149.3-202.8l-149.3,202.8h-61.4l179.5-245l-163.9-222.6h61.5l133.6,181.5l133.6-181.5h61.4l-163.9,222.5
				l179.6,245H2503z M1339.1,629.9l-179.6-245l163.9-222.5h-61.4L1128.3,344L994.8,162.4h-61.3l163.9,222.5l-179.7,245h61.5
				l149.2-202.7l149.3,202.7H1339.1z M1721.2,493.3c0,84.3-63.8,136.6-166.8,136.6l-189.8-0.1V410.8h-97.2
				c7.1-10.6,25.7-36.3,33.9-46.9h63.3V162.4h189.8c141,0,152,97.3,152,127.2c0,40.4-22.2,75.2-56.2,93.6
				c10.3,4.7,20.9,11.1,30.7,19.5C1707.3,425.3,1721.2,456.6,1721.2,493.3 M1417.1,363.9h137.3c63.2,0,99.5-29.3,99.5-78.5
				c0-65-62.2-74.4-99.5-74.4h-137.3V363.9z M1668.8,492.4c0-67.1-62.2-81.5-114.4-81.5h-137.3v170.2h137.3
				C1597.2,581.1,1668.8,569.5,1668.8,492.4 M2190.9,395.9c0,144-91.5,244.4-222.7,244.4c-131.3,0-223.1-100.4-223.1-244.4
				c0-143.8,91.8-244.3,223.1-244.3C2099.4,151.6,2190.9,252,2190.9,395.9 M2137.8,395.9c0-114.8-69.8-194.9-169.6-194.9
				c-100.1,0-170.2,80.1-170.2,194.9s70.1,194.9,170.2,194.9C2068,590.8,2137.8,510.6,2137.8,395.9"/>
		</g>
	</g>
	<g>
		<path d="M389.9,297.2c-162.4,124.7-280.5,261-292.3,350.7c71.4,80.9,175.9,131.9,292.3,131.9s220.8-51,292.3-131.9
			C670.4,558.2,552.2,421.9,389.9,297.2z"/>
		<path d="M389.9,0c-81.1,0-156.4,24.8-218.8,67.2c69-41.6,218.8,72.1,218.8,72.1S539.7,25.6,608.7,67.2C546.3,24.8,471,0,389.9,0z"
			/>
		<path d="M0,389.9C0,483.3,32.9,569,87.6,636.1C67.7,455.5,301.1,213,301.1,213S204.8,100.7,137.6,92.7l0,0
			C53.4,164.2,0,270.8,0,389.9z"/>
		<path d="M692.1,636.2c54.8-67.1,87.6-152.9,87.6-246.3c0-119.1-53.4-225.7-137.6-297.2l0,0C575,100.7,478.7,213,478.7,213
			S712.1,455.6,692.1,636.2z"/>
	</g>
	<g>
		<path d="M3797.4,559.7c-22.9,0-41.5,18.6-41.5,41.5s18.6,41.5,41.5,41.5c22.9,0,41.5-18.6,41.5-41.5S3820.4,559.7,3797.4,559.7z
			 M3797.4,633c-17.5,0-31.8-14.2-31.8-31.8c0-17.5,14.2-31.8,31.8-31.8c17.5,0,31.8,14.2,31.8,31.8
			C3829.2,618.8,3815,633,3797.4,633z"/>
		<g>
			<polygon points="3817.7,625.3 3817.7,625.3 3817.7,625.3 			"/>
		</g>
		<path d="M3804.4,603.8c6.7-0.5,11.9-3.7,11.9-12.1c0-9.8-6.4-13.3-17.8-13.3h-17.2v45.2h9v-19.3h5.7l11,19.3h9.4L3804.4,603.8z
			 M3790.4,597.3v-11.8h7.6c4.1,0,9.2,0.7,9.2,5.6c0,5.6-3.7,6.2-8.8,6.2H3790.4z"/>
	</g>
	<g>
		<path d="M707,0c-22.9,0-41.5,18.6-41.5,41.5S684.1,83,707,83s41.5-18.6,41.5-41.5S729.9,0,707,0z M707,73.3
			c-17.5,0-31.8-14.2-31.8-31.8S689.5,9.7,707,9.7c17.5,0,31.8,14.2,31.8,31.8S724.6,73.3,707,73.3z"/>
		<g>
			<polygon points="727.3,63.6 727.3,63.6 727.2,63.6 			"/>
		</g>
		<path d="M713.9,44.1c6.7-0.5,11.9-3.7,11.9-12.1c0-9.8-6.4-13.3-17.8-13.3h-17.2V64h9V44.7h5.7l11,19.3h9.4L713.9,44.1z
			 M699.9,37.6V25.7h7.6c4.1,0,9.2,0.7,9.2,5.6c0,5.6-3.7,6.2-8.8,6.2H699.9z"/>
	</g>
</g>
</svg>
