<?xml version="1.0" encoding="utf-8"?>
<!-- Generator: Adobe Illustrator 26.0.3, SVG Export Plug-In . SVG Version: 6.00 Build 0)  -->
<svg version="1.1" id="Layer_1" xmlns="http://www.w3.org/2000/svg" xmlns:xlink="http://www.w3.org/1999/xlink" x="0px" y="0px"
	 viewBox="0 0 3839 1861.5" style="enable-background:new 0 0 3839 1861.5;" xml:space="preserve">
<style type="text/css">
	.st0{fill:#C497FF;}
	.st1{fill:#65B7FF;}
	.st2{fill:#FFFFFF;}
	.st3{fill:#636363;}
</style>
<g>
	<g>
		<g>
			<polygon points="516.2,0 224.5,0 0,224.5 0,597.2 224.5,821.7 346.8,821.5 346.8,541.2 280.4,541.2 280.4,280.4 460.3,280.4 
				460.3,432.9 740.7,432.9 740.7,224.5 			"/>
			<polygon points="393.9,541.2 393.9,821.5 460.3,821.5 460.3,1082.3 280.4,1082.3 280.4,914.1 0,914.1 0,1138.2 224.5,1362.7 
				516.2,1362.7 740.7,1138.2 740.7,765.6 516.2,541.2 			"/>
		</g>
		<g>
			<polygon points="1161.8,1082.3 1095.4,1082.3 1095.4,0 815,0 815,1138.2 1039.5,1362.7 1161.8,1362.7 			"/>
			<polygon points="1275.3,0 1275.3,1082.3 1208.9,1082.3 1208.9,1362.7 1331.2,1362.7 1555.7,1138.2 1555.7,0 			"/>
		</g>
		<g>
			<polygon points="3378.7,541.2 3378.7,280.4 3378.7,0 3378.7,0 3098.3,0 3098.3,1362.7 3378.7,1362.7 3378.7,1309.4 3378.7,821.5 
							"/>
			<polygon points="3614.5,0 3561.9,0 3523.4,0 3425.8,0 3425.8,280.4 3558.6,280.4 3558.6,402.7 3558.6,501.7 3558.6,541.2 
				3425.8,541.2 3425.8,821.5 3558.6,821.5 3558.6,866 3558.6,961.7 3558.6,1353.6 3839,1353.6 3839,958.7 3839,866 3839,834.1 
				3686.2,681.3 3839,528.6 3839,501.7 3839,403.9 3839,285.6 3839,247.6 3839,224.5 			"/>
		</g>
		<g>
			<rect x="2752.9" y="541.2" width="220.2" height="280.4"/>
			<polygon points="3020.2,0 2705.8,0 2705.8,0 2425.5,0 2425.5,1362.7 2646.7,1362.7 2646.7,1362.7 3020.2,1362.7 3020.2,1082.3 
				2705.8,1082.3 2705.8,976.2 2705.8,821.5 2705.8,541.2 2705.8,488.5 2705.8,280.4 3020.2,280.4 			"/>
		</g>
		<g>
			<polygon points="2142.3,0 1953.6,0 1953.6,280.4 2086.4,280.4 2086.4,630.2 1953.6,630.2 1953.6,910.5 2142.3,910.5 
				2366.8,686.1 2366.8,224.5 			"/>
			<polygon points="1906.5,910.5 1906.5,630.2 1906.5,280.4 1906.5,0 1626.1,0 1626.1,1362.7 1906.5,1362.7 			"/>
		</g>
	</g>
	<g>
		<path d="M2169.7,1630.3v-61c0-46.9-38-84.9-84.9-84.9h-404.5v377.2h84v-146.3h165.8l122.8,146.3h109.6l-122.8-146.3h45.1
			C2131.7,1715.2,2169.7,1677.2,2169.7,1630.3z M1764.2,1647.6v-95.7h321.5v95.7H1764.2z"/>
		<path d="M1601.2,1551.9v-67.6h-415.7c-47.3,0-85.7,38.4-85.7,85.7v205.8c0,47.3,38.4,85.7,85.7,85.7h415.7v-213.9h-250.7v67.6
			h166.7v78.7h-333.4v-242H1601.2z"/>
		<polygon points="3270.3,1551.9 3270.3,1484.3 2914.9,1484.3 2830.9,1484.3 2830.9,1551.9 2830.9,1861.5 2914.9,1861.5 
			2914.9,1715.2 3215.2,1715.2 3215.2,1647.6 2914.9,1647.6 2914.9,1551.9 		"/>
		<polygon points="3839,1484.3 3720.2,1484.3 3577.5,1627 3434.7,1484.3 3316,1484.3 3504.6,1672.9 3316,1861.5 3434.7,1861.5 
			3577.5,1718.8 3720.2,1861.5 3839,1861.5 3650.4,1672.9 		"/>
		<polygon points="2671,1861.5 2765.4,1861.5 2572,1484.3 2408.2,1484.3 2214.8,1861.5 2309.2,1861.5 2467.9,1551.9 2512.2,1551.9 
					"/>
	</g>
</g>
</svg>
