<?xml version="1.0" encoding="UTF-8"?><svg id="Layer_1" xmlns="http://www.w3.org/2000/svg" viewBox="0 0 3840 857.9"><g><polyline points="1145.7 626.9 1285.1 626.9 1285.1 316.9 1190.8 316.9 1190.8 494.7 1190 494.7 1127.8 316.9 988.3 316.9 988.3 626.9 1082.6 626.9 1082.6 448 1083.4 448 1145.7 626.9"/><polyline points="1672 626.9 1811.5 626.9 1811.5 316.9 1717.1 316.9 1717.1 494.7 1716.3 494.7 1654.1 316.9 1514.6 316.9 1514.6 626.9 1609 626.9 1609 448 1609.7 448 1672 626.9"/><polyline points="2578.2 626.9 2717.7 626.9 2717.7 316.9 2623.4 316.9 2623.4 494.7 2622.5 494.7 2560.3 316.9 2420.8 316.9 2420.8 626.9 2515.2 626.9 2515.2 448 2515.9 448 2578.2 626.9"/><rect x="1342.2" y="316.9" width="116.3" height="310"/><polyline points="1919.2 401.2 1845.2 401.2 1845.2 316.9 2109.7 316.9 2109.7 401.2 2035.5 401.2 2035.5 626.9 1919.2 626.9 1919.2 401.2"/><path d="M2881.7,556.5h11.4c18.7,0,31.3-5.7,38.6-18.2,7.8-12.9,8.6-36.3,8.6-66.3s-.8-53.5-8.6-66.4c-7.3-12.4-19.8-18.2-38.6-18.2h-11.4v169.1m-113.9-239.6h137.9c117.6,0,155,66.5,155,158.4s-57.8,151.6-148.1,151.6h-144.8V316.9h0Z"/><path d="M3243,556.5c17.9,0,31.3-8.8,31.3-84.6s-12.6-84.6-31.3-84.6-31.4,10.5-31.4,84.6c.1,75.9,13.6,84.6,31.4,84.6m0-247.8c101.3,0,151.7,66.5,151.7,163.2s-50.4,163.2-151.7,163.2-151.8-66.5-151.8-163.2c.1-96.6,50.6-163.2,151.8-163.2Z"/><path d="M3537.4,428.8c16,0,25.6-16.2,25.6-37-.1-17.6-8.1-36.6-29.5-36.6-13,0-23.2,8.2-27,18.2-1.5,3.1-2,7.5-2,14.8,1.4,19.8,10.9,40.6,32.6,40.6h.3m65.4-153.1c-6.2-.4-12.2-.3-20.6,.1-49.1,2.3-68.9,23.2-75.6,46.8h1.2c12.2-10.7,27.3-15.6,47.6-15.6,38.9,0,74.5,28.2,74.5,81.3s-39.1,90.4-91.4,90.4c-69.1,0-99.2-52.7-99.2-109.3,0-46,16.3-84.9,43-110,25.5-23.6,58.3-35.5,98.5-36.4,10.7-.6,17,0,22.1,.5v52.2h-.1Z"/><path d="M3751.5,368v-42.7c0-15.7,.9-32.1,1.7-49.4h-1.3c-7.8,16.8-14.5,32.7-23.1,49.9l-20.4,41.3-.3,.8h43.4m0,106.7v-55.6h-103.4v-44.4l83-148h82.6v141.4h26.3v51h-26.3v55.6h-62.2Z"/><polyline points="2144 316.9 2374.2 316.9 2374.2 398.8 2258.6 398.8 2258.6 431.2 2365 431.2 2365 510.7 2258.6 510.7 2258.6 545.5 2377.8 545.5 2377.8 626.8 2144 626.8 2144 316.9"/></g><g><g id="layer3"><g id="polygon3538"><polygon points="243.4 164.7 300.7 281 330.5 269.6 429.5 92.8 309.6 46.2 243.4 164.7"/></g><g id="polygon3540"><polygon points="524.1 267.9 615.7 164.7 737.4 211.6 737.4 536.8 558.4 281 524.1 267.9"/></g><g id="polygon3552"><polygon points="121.7 211.6 0 164.7 0 677 121.7 728.2 121.7 455.9 300.7 803.4 429.5 857.9 429.5 330.4 300.7 281 300.7 548.8 121.7 211.6"/></g></g><g id="layer4"><g id="polygon3556"><polygon points="737.4 728.2 558.4 494.6 558.4 622.2 595 673.5 737.4 728.2"/></g></g><g id="layer5"><g id="polygon3544"><polygon points="558.4 281 429.5 330.4 300.7 281 429.5 231.7 558.4 281"/></g><g id="polygon3546"><polygon points="615.7 164.7 737.4 117.9 859.1 164.7 737.4 211.6 615.7 164.7"/></g><g id="polygon3548"><polygon points="0 164.7 121.7 117.9 243.4 164.7 121.7 211.6 0 164.7"/></g><g id="polygon3550"><polygon points="549.4 46.3 429.5 0 309.6 46.2 429.5 92.8 549.4 46.3"/></g></g></g></svg>