<?xml version="1.0" encoding="utf-8"?>
<!-- Generator: Adobe Illustrator 26.5.0, SVG Export Plug-In . SVG Version: 6.00 Build 0)  -->
<svg version="1.1" id="Layer_1" xmlns="http://www.w3.org/2000/svg" xmlns:xlink="http://www.w3.org/1999/xlink" x="0px" y="0px"
	 viewBox="0 0 3839 525.38" style="enable-background:new 0 0 3839 525.38;" xml:space="preserve">
<style type="text/css">
	.st0{fill:#898A8D;}
	.st1{fill:#F47B30;}
	.st2{fill:#A19FA3;}
	.st3{fill:#17B3E8;}
	.st4{fill-rule:evenodd;clip-rule:evenodd;fill:#E60012;}
	.st5{fill:#FFFFFF;}
	.st6{fill-rule:evenodd;clip-rule:evenodd;fill:#FFFFFF;}
	.st7{fill-rule:evenodd;clip-rule:evenodd;}
</style>
<g>
	<g>
		<g>
			<path d="M3775.36,156.87l21.2,328.71h-468.28l21.19-328.71h425.84 M3812.61,117.09h-500.42l-26.34,408.29H3839l-26.34-408.29
				H3812.61z M3678.1,232.55V79.75C3678.1,35.7,3642.39,0,3598.34,0h-71.83c-44.05-0.01-79.77,35.7-79.77,79.75v152.8
				c0,1.57,1.27,2.84,2.84,2.84l0,0h34.11c1.57-0.01,2.83-1.28,2.83-2.84V79.75c0-22.1,17.92-40.02,40.02-40.02h71.83
				c22.08,0.03,39.97,17.94,39.97,40.02v152.8c0,1.57,1.27,2.84,2.84,2.84h34.08C3676.83,235.39,3678.1,234.12,3678.1,232.55z"/>
		</g>
		<path d="M2285.1,240.94c-31.77-10.6-55.94-18.44-55.94-40.84c0-14.86,13.08-28.93,37.28-28.93c24.64,0,39.23,12.99,50.94,22.66
			l54.5-37.94c-23.14-28.59-62.63-52.59-104.43-52.59c-57.9,0-107.64,42.54-107.64,97.81c0,41.37,27.85,80.39,85.99,99.69
			c36.46,12.11,59.26,19.43,59.26,42.76c0,16.03-16.18,30.53-35.96,30.53c-24.43,0-44.36-16.37-59.67-29.95l-57.85,40.36
			c28.81,33.44,74.38,57.73,115.75,57.73c64.36,0,108.45-48.97,108.45-100.15C2375.78,302.41,2353.53,263.74,2285.1,240.94
			 M3051.13,380.64c-34.59,0-60.14-27.16-60.14-61.51c0-34.33,25.55-61.53,60.14-61.53c34.48,0,60.87,27.61,60.87,61.53
			S3085.61,380.64,3051.13,380.64 M3053.34,198.41c-31.22,0-55.62,16-60.84,23.76h-1.15v-16.79h-66.01v319.99h66.01V416.1h1.15
			c5.22,7.75,29.62,23.71,60.84,23.71c65.12,0,119.96-54.33,119.96-120.68C3173.3,252.79,3118.46,198.41,3053.34,198.41
			 M2534.39,198.48c-24.72,0-46.84,10.07-60.33,26.39h-0.7V112.83h-66.03v319.99h66.03V322.17c0-44.17,24.02-63.21,51.27-63.21
			c18.92,0,47.71,11.98,47.71,56.68v117.09h66.06V310.81C2638.4,234.37,2585.59,198.48,2534.39,198.48 M2122.1,101.78
			c-0.41-0.46-1.17-0.43-1.55,0.09l-48.71,67.32c-0.21,0.27-0.19,0.64,0.03,0.89c0.22,0.26,0.6,0.31,0.91,0.15l72.03-41.44
			c0.53-0.33,0.65-1.05,0.24-1.51L2122.1,101.78z M1994.21,228.1c18.32,0,32.82,6.74,46.18,19.09l-119.33,68.85
			C1912.41,270.46,1947.72,228.1,1994.21,228.1 M1996.34,381c-18.4,0-39.14-7.65-49.95-20.93L2079.07,283
			c28.45-16.41,41.63-30.76,29.38-52.01c-19.07-30.07-67.04-61.82-118.91-61.82c-73.38,0-133.28,65-133.28,137.02
			c0,77.47,67.87,137.18,142.35,137.18c68.85,0,130.27-49.5,133.66-121.11h-68.3C2060.88,354.39,2033.99,381,1996.34,381
			 M2050.21,154.6l44.17-70.39c0.33-0.55,0.09-1.25-0.5-1.46l-32.22-11.73c-0.6-0.21-1.25,0.17-1.32,0.81l-11.43,82.3
			c-0.05,0.33,0.14,0.67,0.45,0.79C2049.69,155.01,2050.04,154.89,2050.21,154.6 M2781.87,380.3c-33.01,0-59.81-27.39-59.81-61.06
			s26.8-61.06,59.81-61.06c32.97,0,59.79,27.39,59.79,61.06S2814.84,380.3,2781.87,380.3 M2781.87,198.4
			c-67.01,0-121.27,54.19-121.27,120.75c0,66.54,54.26,120.67,121.27,120.67c66.99,0,121.25-54.12,121.25-120.67
			C2903.12,252.59,2848.86,198.4,2781.87,198.4 M2022.37,152.04c0.33-0.05,0.58-0.31,0.62-0.65l5.93-82.9
			c0.05-0.64-0.5-1.13-1.13-1.05l-33.95,4.78c-0.62,0.07-1,0.72-0.77,1.29l28.54,78.07C2021.72,151.9,2022.03,152.09,2022.37,152.04
			"/>
	</g>
	<g>
		<path d="M811.27,5.57c35.16,0,62.71,25.98,62.71,59.2c0,33.14-27.55,59.07-62.71,59.07c-33.86,0-61.32-26.47-61.32-59.07
			C749.91,32.09,777.42,5.57,811.27,5.57 M760.18,521.64h104.58V183.09H760.18V521.64z M962.72,64.77
			c0,32.64,27.46,59.07,61.27,59.07c35.12,0,62.71-25.98,62.71-59.07c0-33.23-27.6-59.2-62.71-59.2
			C990.19,5.57,962.72,32.09,962.72,64.77 M972.81,521.64h104.63V183.09H972.81V521.64z M593.73,34.02l-91.84,359.76
			c0,0-70.1-270.03-81.49-308.35c-11.39-38.36-34.94-55.15-68.25-55.15s-56.86,16.79-68.25,55.15
			c-11.44,38.31-81.58,308.35-81.58,308.35L110.57,34.02H0c0,0,106.11,383.85,120.57,428.28c11.3,34.71,37.82,63.07,77.26,63.07
			c45.11,0,66.18-32.87,75.9-63.07c9.68-29.98,78.38-283.54,78.38-283.54s68.7,253.56,78.43,283.54
			c9.68,30.21,30.84,63.07,75.9,63.07c39.44,0,66-28.36,77.26-63.07C598.1,417.87,704.21,34.02,704.21,34.02L593.73,34.02
			L593.73,34.02z"/>
		<path d="M1468.44,264.62c39.12,0,68.66-30.48,68.66-78.43V5.57h-137.31v180.58C1399.83,234.09,1429.32,264.62,1468.44,264.62
			 M1659.51,5.57h-58.71v182.02c0,87.84-50.74,135.24-132.36,135.24c-81.62,0-132.32-47.41-132.32-135.24V5.57h-58.71
			c-42.9,0-68.84,25.93-68.84,68.84l0.05,222.58c0,64.56,33.86,98.42,98.42,98.42h322.89c64.56,0,98.42-33.86,98.42-98.42
			l0.05-222.58C1728.35,31.5,1702.41,5.57,1659.51,5.57"/>
	</g>
</g>
</svg>
