<?xml version="1.0" encoding="utf-8"?>
<!-- Generator: Adobe Illustrator 26.0.3, SVG Export Plug-In . SVG Version: 6.00 Build 0)  -->
<svg version="1.1" id="Layer_1" xmlns="http://www.w3.org/2000/svg" xmlns:xlink="http://www.w3.org/1999/xlink" x="0px" y="0px"
	 viewBox="0 0 3616.4 2159" style="enable-background:new 0 0 3616.4 2159;" xml:space="preserve">
<style type="text/css">
	.st0{fill:#FFFFFF;}
</style>
<g>
	<g>
		<g>
			<path d="M2044.7,1486.6c296.9,0,537.4-61.7,537.4-150.9v-0.2c0-89.2-240.6-150.9-537.4-150.9h-306.6v302H2044.7z"/>
			<ellipse cx="864.1" cy="1344.9" rx="128.3" ry="34.9"/>
			<path d="M0,893.6v717.6h0V2159h3616.4v-547.8V893.6H0z M3310.2,1108.8h137v98.2h-137V1108.8z M3310.2,1249.4h137v290.2h-137
				V1249.4z M2849.1,1261l372.3,67l-372.3,67V1261z M1601.1,1120.6h95.1h41.9h306.6c378.1,0,712.1,79.3,712.1,214.9v0.2
				c0,135.6-334.1,214.9-712.1,214.9h-306.6h-41.9h-95.1V1120.6z M367.4,1178.3c132.5-42.1,308.4-65.2,495.4-65.2
				c324.2,0,605.1,70.5,683.1,171.6l9.3,12.1h-175.1l-2.2-2.1c-72.1-69.5-279.1-116.1-515.2-116.1c-292.6,0-539.7,75-539.7,163.8
				c0,88.8,247.2,163.8,539.7,163.8c236,0,443-46.7,515.2-116.1l2.2-2.1l175.1-0.4l-9.3,12.1c-77.9,101-358.8,171.6-683.1,171.6
				c-187,0-362.9-23.2-495.4-65.2c-135.1-42.9-209.5-101-209.5-163.7S232.3,1221.2,367.4,1178.3z M1044.9,1344.9
				c0,40.4-93.1,62.2-180.8,62.2s-180.8-21.8-180.8-62.2c0-40.4,93.1-62.2,180.8-62.2c77.5,0,145.9,16.2,170.4,40.2
				C1041.4,1329.7,1044.9,1337.1,1044.9,1344.9z M3578.2,2120.7H38.3v-368h3539.9V2120.7z"/>
		</g>
		<g>
			<path d="M308.6,2027.5c-14.9,7.7-33.5,11.6-55.7,11.6c-28.7,0-51.8-9.1-69.1-27.2c-17.3-18.1-26-42-26-71.4
				c0-31.7,9.7-57.3,29.2-76.8c19.5-19.5,44.1-29.3,73.8-29.3c19.2,0,35,2.7,47.7,8.2v32.6c-13.4-7.9-28.1-11.9-44.2-11.9
				c-21.5,0-38.8,6.9-52.2,20.6c-13.3,13.7-20,32.1-20,55c0,21.8,6.2,39.2,18.7,52.2c12.4,12.9,28.8,19.4,49,19.4
				c18.7,0,34.9-4.4,48.6-13.3V2027.5z"/>
			<path d="M431.1,2035.8v-198.1h57.2c73,0,109.6,32.2,109.6,96.6c0,30.6-10.1,55.2-30.4,73.7c-20.3,18.6-47.4,27.8-81.5,27.8H431.1
				z M463.9,1865.6V2008h26.3c23.1,0,41.1-6.4,54-19.1c12.8-12.7,19.3-30.7,19.3-53.9c0-46.3-24-69.5-72-69.5H463.9z"/>
			<path d="M988.6,1865.6h-74.1v59.6h68.3v27.8h-68.3v82.9h-32.9v-198.1h106.9V1865.6z"/>
			<path d="M1190.4,2039.1c-28.6,0-51.4-9.3-68.6-27.8c-17.2-18.5-25.8-42.6-25.8-72.3c0-31.9,8.7-57.3,26.3-76.3
				c17.5-19,41.3-28.5,71.3-28.5c27.8,0,50.2,9.2,67.2,27.6c17,18.4,25.5,42.5,25.5,72.3c0,32.3-8.7,57.9-26.1,76.7
				C1242.7,2029.7,1219.5,2039.1,1190.4,2039.1z M1191.9,1863.2c-18.1,0-32.9,6.8-44.3,20.3c-11.4,13.5-17.1,31.4-17.1,53.5
				c0,22,5.5,39.7,16.6,53.2c11.1,13.5,25.5,20.2,43.4,20.2c19,0,33.9-6.4,44.9-19.2c11-12.8,16.4-30.7,16.4-53.7
				c0-23.7-5.3-42-16-54.9C1225.3,1869.7,1210.6,1863.2,1191.9,1863.2z"/>
			<path d="M1560.6,2035.8h-38.4l-31.6-53.1c-2.9-4.9-5.6-9.1-8.4-12.5c-2.7-3.5-5.5-6.3-8.3-8.5c-2.8-2.2-5.9-3.8-9.2-4.8
				c-3.3-1-7-1.5-11.2-1.5h-13.3v80.4h-32.7v-198.1h65.2c9.3,0,17.9,1.1,25.7,3.3c7.8,2.2,14.6,5.6,20.4,10
				c5.8,4.5,10.3,10,13.6,16.7c3.3,6.7,4.9,14.5,4.9,23.4c0,7-1,13.4-3.1,19.3c-2.1,5.9-5,11.1-8.8,15.6c-3.8,4.6-8.4,8.5-13.8,11.7
				c-5.4,3.2-11.4,5.7-18.2,7.5v0.6c3.6,2,6.7,4.3,9.4,6.7c2.7,2.4,5.2,5,7.6,7.5c2.4,2.6,4.8,5.5,7.1,8.8c2.3,3.3,4.9,7.1,7.8,11.4
				L1560.6,2035.8z M1440.2,1864.3v64.4h27.4c5.1,0,9.7-0.8,14-2.3c4.3-1.6,8-3.8,11.1-6.8c3.1-2.9,5.6-6.5,7.3-10.8
				c1.7-4.2,2.6-9,2.6-14.2c0-9.5-3-16.9-9-22.2c-6-5.3-14.6-8-25.8-8H1440.2z"/>
			<path d="M1969.3,1837.7l-64.9,126.1v72h-32.9v-71.3l-63.3-126.8h37.4l39,85c0.5,1,1.8,4.8,4.1,11.5h0.4c0.8-2.9,2.3-6.8,4.6-11.5
				l40.8-85H1969.3z"/>
			<path d="M2154.5,2039.1c-28.6,0-51.4-9.3-68.6-27.8c-17.2-18.5-25.8-42.6-25.8-72.3c0-31.9,8.7-57.3,26.3-76.3
				c17.5-19,41.3-28.5,71.3-28.5c27.8,0,50.2,9.2,67.2,27.6c17,18.4,25.5,42.5,25.5,72.3c0,32.3-8.7,57.9-26.1,76.7
				C2206.8,2029.7,2183.6,2039.1,2154.5,2039.1z M2156,1863.2c-18.1,0-32.9,6.8-44.3,20.3c-11.4,13.5-17.1,31.4-17.1,53.5
				c0,22,5.5,39.7,16.6,53.2c11.1,13.5,25.5,20.2,43.4,20.2c19,0,33.9-6.4,44.9-19.2c11-12.8,16.4-30.7,16.4-53.7
				c0-23.7-5.3-42-16-54.9C2189.4,1869.7,2174.7,1863.2,2156,1863.2z"/>
			<path d="M2524,1955.7c0,55.6-26.3,83.5-79,83.5c-50.5,0-75.7-26.8-75.7-80.3v-121.2h32.9v114.4c0,38.9,15.1,58.3,45.3,58.3
				c29.1,0,43.7-18.7,43.7-56.2v-116.5h32.9V1955.7z"/>
			<path d="M2808.5,2035.8h-38.4l-31.6-53.1c-2.9-4.9-5.6-9.1-8.4-12.5c-2.7-3.5-5.5-6.3-8.3-8.5c-2.8-2.2-5.9-3.8-9.2-4.8
				c-3.3-1-7-1.5-11.2-1.5h-13.3v80.4h-32.7v-198.1h65.2c9.3,0,17.9,1.1,25.7,3.3c7.8,2.2,14.6,5.6,20.4,10
				c5.8,4.5,10.3,10,13.6,16.7c3.3,6.7,4.9,14.5,4.9,23.4c0,7-1,13.4-3.1,19.3c-2.1,5.9-5,11.1-8.8,15.6c-3.8,4.6-8.4,8.5-13.8,11.7
				c-5.4,3.2-11.4,5.7-18.2,7.5v0.6c3.6,2,6.7,4.3,9.4,6.7c2.7,2.4,5.2,5,7.6,7.5c2.4,2.6,4.8,5.5,7.1,8.8c2.3,3.3,4.9,7.1,7.8,11.4
				L2808.5,2035.8z M2688.2,1864.3v64.4h27.4c5.1,0,9.7-0.8,14-2.3c4.3-1.6,8-3.8,11.1-6.8c3.1-2.9,5.6-6.5,7.3-10.8
				c1.7-4.2,2.6-9,2.6-14.2c0-9.5-3-16.9-9-22.2c-6-5.3-14.6-8-25.8-8H2688.2z"/>
			<path d="M3206.3,1865.6h-56.9v170.2h-32.9v-170.2h-56.8v-27.9h146.6V1865.6z"/>
			<path d="M3482.4,1837.7l-71.2,198.1h-36.8l-69.9-198.1h35.9l48.9,150.3c1.6,4.8,2.8,10.4,3.6,16.7h0.6c0.6-5.3,2-10.9,4-17
				l50-150.1H3482.4z"/>
		</g>
	</g>
	<g>
		<path d="M2723,0c-77.3,0-233.8,0.8-234.1,0v680.8h190.4l1.1-170.1h85.1c181.5,0,276.6-87.6,276.6-255.2
			C3041.8,70.9,2922.8,0,2723,0z M2723,382.8h-42.5V127.6c11.4-0.6,32.5,0,42.5,0c96.2,0,130.9,49.2,130.9,131.8
			C2853.6,344.7,2824.1,382.8,2723,382.8z"/>
		<polygon points="1021.1,680.8 1021.1,404.2 829.5,404.2 829.5,680.8 638.3,680.8 638.3,0 829.5,0 829.5,276.6 1021.1,276.6 
			1021.1,0 1212.6,0 1212.6,680.8 		"/>
		<polygon points="1361.3,680.8 1361.3,0 1531.5,0 1552.9,0 1552.9,680.8 		"/>
		<polygon points="2061.9,680.8 1701.9,680.8 1701.9,0 1893.1,0 1893.1,553.2 2084.7,553.2 		"/>
		<rect x="2148.6" y="0" width="191.5" height="680.8"/>
		<path d="M3297.3,170.1v21.4c0,104.5,319.1,56.4,319.1,276.6c0,165.1-113.7,212.7-276.6,212.7c-63.9,0-167.4-12-234.1-21.1v-149
			c58.7,30.3,169.9,42.5,234.1,42.5c72,0,85.1-22.5,85.1-63.9c0-117.3-319.1-66.7-319.1-297.7C3105.8,57.5,3237,0,3394.3,0
			c111.5,0,128.7,10.3,179.6,21.4V149c-45.3-19.2-108.7-21.1-170.1-21.1C3347.6,127.6,3297.3,134.3,3297.3,170.1z"/>
		<path d="M234.1,0C156.5,0,0,0.8,0,0v680.8h190.4l1.1-170.1h85.1c181.5,0,276.6-87.6,276.6-255.2C552.9,70.9,433.9,0,234.1,0z
			 M234.1,382.8h-42.5V127.6c11.4-0.6,32.5,0,42.5,0c96.2,0,130.9,49.2,130.9,131.8C364.7,344.7,335.3,382.8,234.1,382.8z"/>
	</g>
</g>
</svg>
