<?xml version="1.0" encoding="utf-8"?>
<!-- Generator: Adobe Illustrator 26.0.2, SVG Export Plug-In . SVG Version: 6.00 Build 0)  -->
<svg version="1.1" xmlns="http://www.w3.org/2000/svg" xmlns:xlink="http://www.w3.org/1999/xlink" x="0px" y="0px"
	 viewBox="0 0 3839 503" style="enable-background:new 0 0 3839 503;" xml:space="preserve">
<style type="text/css">
	.st0{display:none;}
	.st1{display:inline;}
	.st2{fill:#FF1F1F;}
	.st3{fill:#FFFFFF;}
	.st4{fill:#FF1F1F;stroke:#FF1F1F;stroke-width:12.9372;stroke-miterlimit:10;}
	.st5{fill:none;stroke:#FF1F1F;stroke-width:12.9372;stroke-miterlimit:10;}
	.st6{fill:#FF1F1F;stroke:#000000;stroke-width:4.5925;stroke-miterlimit:10;}
	.st7{fill:#FF6A15;stroke:#000000;stroke-width:4.5925;stroke-miterlimit:10;}
	.st8{fill:#FFB40A;stroke:#000000;stroke-width:4.5925;stroke-miterlimit:10;}
	.st9{fill:#FFFF00;stroke:#000000;stroke-width:4.5925;stroke-miterlimit:10;}
	.st10{fill:#FFFFFF;stroke:#FFFFFF;stroke-width:12.9372;stroke-miterlimit:10;}
	.st11{fill:none;stroke:#FFFFFF;stroke-width:12.9372;stroke-miterlimit:10;}
	.st12{fill:#FF0074;stroke:#000000;stroke-width:4.5925;stroke-miterlimit:10;}
	.st13{fill:#FF803A;stroke:#000000;stroke-width:4.5925;stroke-miterlimit:10;}
	.st14{fill:#FFFFFF;stroke:#000000;stroke-width:4.5925;stroke-miterlimit:10;}
	.st15{fill:#FF0074;stroke:#000000;stroke-width:7.2529;stroke-miterlimit:10;}
	.st16{fill:#FF803A;stroke:#000000;stroke-width:7.2529;stroke-miterlimit:10;}
	.st17{fill:#FFFF00;stroke:#000000;stroke-width:7.2529;stroke-miterlimit:10;}
	.st18{fill:#FFFFFF;stroke:#000000;stroke-width:7.2529;stroke-miterlimit:10;}
	.st19{fill:#FF1F1F;stroke:#000000;stroke-width:6.6981;stroke-miterlimit:10;}
	.st20{fill:#FF6A15;stroke:#000000;stroke-width:6.6981;stroke-miterlimit:10;}
	.st21{fill:#FFB40A;stroke:#000000;stroke-width:6.6981;stroke-miterlimit:10;}
	.st22{fill:#FFFF00;stroke:#000000;stroke-width:6.6981;stroke-miterlimit:10;}
	.st23{fill:#FF1F1F;stroke:#FF1F1F;stroke-width:20.3455;stroke-miterlimit:10;}
	.st24{fill:none;stroke:#FF1F1F;stroke-width:20.3455;stroke-miterlimit:10;}
	.st25{fill:#FF1F1F;stroke:#000000;stroke-width:7.2224;stroke-miterlimit:10;}
	.st26{fill:#FF6A15;stroke:#000000;stroke-width:7.2224;stroke-miterlimit:10;}
	.st27{fill:#FFB40A;stroke:#000000;stroke-width:7.2224;stroke-miterlimit:10;}
	.st28{fill:#FFFF00;stroke:#000000;stroke-width:7.2224;stroke-miterlimit:10;}
	.st29{fill:#FFFFFF;stroke:#FFFFFF;stroke-width:20.3455;stroke-miterlimit:10;}
	.st30{fill:none;stroke:#FFFFFF;stroke-width:20.3455;stroke-miterlimit:10;}
	.st31{fill:#FF0074;stroke:#000000;stroke-width:7.2224;stroke-miterlimit:10;}
	.st32{fill:#FF803A;stroke:#000000;stroke-width:7.2224;stroke-miterlimit:10;}
	.st33{fill:#FFFFFF;stroke:#000000;stroke-width:7.2224;stroke-miterlimit:10;}
	.st34{stroke:#000000;stroke-width:12.9372;stroke-miterlimit:10;}
	.st35{fill:none;stroke:#000000;stroke-width:12.9372;stroke-miterlimit:10;}
	.st36{stroke:#000000;stroke-width:20.3455;stroke-miterlimit:10;}
	.st37{fill:none;stroke:#000000;stroke-width:20.3455;stroke-miterlimit:10;}
	.st38{fill:none;stroke:#000000;stroke-width:7.2529;stroke-miterlimit:10;}
	.st39{fill:none;stroke:#000000;stroke-width:4.5925;stroke-miterlimit:10;}
	.st40{fill:none;stroke:#000000;stroke-width:7.2224;stroke-miterlimit:10;}
	.st41{fill:none;stroke:#FFFFFF;stroke-width:7.2529;stroke-miterlimit:10;}
	.st42{fill:none;stroke:#FFFFFF;stroke-width:4.5925;stroke-miterlimit:10;}
	.st43{fill:none;stroke:#FFFFFF;stroke-width:7.2224;stroke-miterlimit:10;}
	.st44{fill:#FF1F1F;stroke:#000000;stroke-width:4.5799;stroke-miterlimit:10;}
	.st45{fill:#FF6A15;stroke:#000000;stroke-width:4.5799;stroke-miterlimit:10;}
	.st46{fill:#FFB40A;stroke:#000000;stroke-width:4.5799;stroke-miterlimit:10;}
	.st47{fill:#FFFF00;stroke:#000000;stroke-width:4.5799;stroke-miterlimit:10;}
	.st48{fill:#FF0074;stroke:#000000;stroke-width:4.5799;stroke-miterlimit:10;}
	.st49{fill:#FF803A;stroke:#000000;stroke-width:4.5799;stroke-miterlimit:10;}
	.st50{fill:#FFFFFF;stroke:#000000;stroke-width:4.5799;stroke-miterlimit:10;}
	.st51{fill:#FF0074;}
	.st52{fill:#FF803A;}
	.st53{fill:#FFFF00;}
	.st54{fill:#FF6A15;}
	.st55{fill:#FFB40A;}
	.st56{fill:none;stroke:#000000;stroke-width:4.5799;stroke-miterlimit:10;}
	.st57{fill:none;stroke:#FFFFFF;stroke-width:4.5799;stroke-miterlimit:10;}
</style>
<g id="copy_with_strokes" class="st0">
	<g class="st1">
		<g>
			
				<rect x="566.3" y="282.4" transform="matrix(-1.836970e-16 1 -1 -1.836970e-16 893.4957 -299.3522)" width="60.3" height="29.4"/>
			
				<rect x="566.3" y="516.4" transform="matrix(-1.836970e-16 1 -1 -1.836970e-16 1127.4617 -65.3863)" width="60.3" height="29.4"/>
			
				<rect x="911.1" y="240.6" transform="matrix(-1.836970e-16 1 -1 -1.836970e-16 1238.3129 -644.1694)" width="60.3" height="113"/>
			
				<rect x="1437.4" y="279.4" transform="matrix(-1.836970e-16 1 -1 -1.836970e-16 1764.6281 -1170.4873)" width="60.3" height="35.4"/>
			
				<rect x="911.1" y="474.5" transform="matrix(-1.836970e-16 1 -1 -1.836970e-16 1472.2788 -410.2035)" width="60.3" height="113"/>
			<rect x="382.6" y="266.9" width="60.3" height="294.3"/>
			<rect x="485" y="266.9" width="60.3" height="294.3"/>
			<path d="M611.1,561.2c0-20.1,0-40.2,0-60.3c115.8,0,115.8-173.7,0-173.7c0-20.1,0-40.2,0-60.3
				C807.3,266.9,807.3,561.2,611.1,561.2z"/>
			<rect x="788" y="266.9" width="60.3" height="294.3"/>
			
				<rect x="911.1" y="357.5" transform="matrix(-1.836970e-16 1 -1 -1.836970e-16 1355.2959 -527.1864)" width="60.3" height="113"/>
			
				<rect x="1437.4" y="396.3" transform="matrix(-1.836970e-16 1 -1 -1.836970e-16 1881.611 -1053.5044)" width="60.3" height="35.4"/>
			<rect x="1353.1" y="266.9" width="60.3" height="294.3"/>
			<path d="M1485.3,444.2c0-20.2,0-40.1,0-60.3c37.4,0,37.4-56.7,0-56.7c0-20.2,0-40.1,0-60.3
				C1603.1,266.9,1603.1,444.2,1485.3,444.2z"/>
			<path d="M1080.1,395.1c8.5-42.6,46-74.7,91.1-74.7c45.1,0,82.6,32.1,91.1,74.7h61c-9-76-73.7-135-152.1-135s-143.1,59-152.1,135
				H1080.1z"/>
			<path d="M1262.3,431.5c-8.5,42.6-46,74.7-91.1,74.7c-45.1,0-82.6-32.1-91.1-74.7h-61c9,76,73.7,135,152.1,135
				c78.4,0,143.1-59,152.1-135H1262.3z"/>
			<polygon points="292,266.9 223.8,401 257.6,467.4 359.6,266.9 			"/>
			<polygon points="203.3,441.1 114.7,266.9 47,266.9 203.3,574.1 237.2,507.6 203.3,441.1 			"/>
			<path d="M1943.4,504.4c-42.6-8.5-74.7-46-74.7-91.1c0-45.1,32.1-82.6,74.7-91.1v-61c-76,9-135,73.7-135,152.1s59,143.1,135,152.1
				V504.4z"/>
			<path d="M2036.7,358.7l43-43c-24.5-29.5-59.8-49.7-99.8-54.5v61C2003.1,326.9,2023.2,340.2,2036.7,358.7z"/>
			<path d="M2036.7,468c-13.5,18.5-33.6,31.8-56.9,36.4v61c40.1-4.7,75.4-25,99.8-54.5L2036.7,468z"/>
			<polygon points="1682.1,450.6 1651.4,510.9 1772.2,510.9 1772.2,450.6 			"/>
			<polygon points="1584.9,561.2 1653.1,427.2 1619.3,360.7 1517.3,561.2 			"/>
			<polygon points="1673.6,387 1762.2,561.2 1829.9,561.2 1673.6,254 1639.7,320.5 1673.6,387 			"/>
			<path d="M605,71.1c-15.9,0-47.9,0.2-47.9,0v139.4h39l0.2-34.9h17.4c37.2,0,56.6-17.9,56.6-52.3C670.4,85.6,646,71.1,605,71.1z
				 M605,149.5h-8.7V97.2c2.3-0.1,6.7,0,8.7,0c19.7,0,26.8,10.1,26.8,27C631.8,141.7,625.8,149.5,605,149.5z"/>
			<polygon points="256.5,210.5 256.5,153.9 217.2,153.9 217.2,210.5 178,210.5 178,71.1 217.2,71.1 217.2,127.7 256.5,127.7 
				256.5,71.1 295.7,71.1 295.7,210.5 			"/>
			<polygon points="326.2,210.5 326.2,71.1 361,71.1 365.4,71.1 365.4,210.5 			"/>
			<polygon points="469.6,210.5 395.9,210.5 395.9,71.1 435.1,71.1 435.1,184.3 474.3,184.3 			"/>
			<rect x="487.4" y="71.1" width="39.2" height="139.4"/>
			<path d="M722.6,105.9v4.4c0,21.4,65.3,11.6,65.3,56.6c0,33.8-23.3,43.6-56.6,43.6c-13.1,0-34.3-2.4-47.9-4.4v-30.5
				c12,6.2,34.8,8.7,47.9,8.7c14.8,0,17.4-4.6,17.4-13.1c0-24-65.4-13.7-65.4-61c0-27.5,26.9-39.2,59.1-39.2
				c22.8,0,26.4,2.1,36.8,4.4v26.1c-9.3-3.9-22.3-4.4-34.9-4.4C733,97.2,722.6,98.6,722.6,105.9z"/>
			<path d="M95.2,71.1c-15.9,0-47.9,0.2-47.9,0v139.4h39l0.2-34.9H104c37.2,0,56.6-17.9,56.6-52.3C160.6,85.6,136.2,71.1,95.2,71.1z
				 M95.2,149.5h-8.7V97.2c2.3-0.1,6.7,0,8.7,0c19.7,0,26.8,10.1,26.8,27C122,141.7,116,149.5,95.2,149.5z"/>
		</g>
		<polygon points="2433.5,383.9 2316.5,383.9 2316.5,266.9 2256.2,266.9 2256.2,383.9 2139.2,383.9 2139.2,444.2 2256.2,444.2 
			2256.2,561.2 2316.5,561.2 2316.5,444.2 2433.5,444.2 		"/>
		
			<rect x="2724.5" y="350.6" transform="matrix(-1.836970e-16 1 -1 -1.836970e-16 3168.0166 -2341.2532)" width="60.3" height="125.7"/>
		<path d="M3322.4,395.1c8.5-42.6,46-74.7,91.1-74.7c45.1,0,82.6,32.1,91.1,74.7h61c-9-76-73.7-135-152.1-135s-143.1,59-152.1,135
			H3322.4z"/>
		<path d="M3504.6,431.5c-8.5,42.6-46,74.7-91.1,74.7c-45.1,0-82.6-32.1-91.1-74.7h-61c9,76,73.7,135,152.1,135
			c78.4,0,143.1-59,152.1-135H3504.6z"/>
		<path d="M3642.8,395.1c8.5-42.6,46-74.7,91.1-74.7c45.1,0,82.6,32.1,91.1,74.7h61c-9-76-73.7-135-152.1-135s-143.1,59-152.1,135
			H3642.8z"/>
		<path d="M3825,431.5c-8.5,42.6-46,74.7-91.1,74.7c-45.1,0-82.6-32.1-91.1-74.7h-61c9,76,73.7,135,152.1,135
			c78.4,0,143.1-59,152.1-135H3825z"/>
		<path d="M2784.7,413.3c0,10.6-1.8,20.7-5,30.2h62.3c2-9.8,3-19.9,3-30.2c0-10.3-1-20.4-3-30.1h-62.3
			C2782.9,392.7,2784.7,402.8,2784.7,413.3z"/>
		<path d="M2691.8,506.3c-51.3,0-92.9-41.6-92.9-92.9s41.6-92.9,92.9-92.9c25,0,47.6,9.9,64.3,25.9l42.6-42.6
			c-27.6-26.9-65.3-43.5-107-43.5c-84.6,0-153.2,68.6-153.2,153.2s68.6,153.2,153.2,153.2c60.7,0,113.2-35.4,138-86.6h-73.2
			C2739.8,496.2,2717,506.3,2691.8,506.3z"/>
		<polygon points="2887.3,561.2 2951.3,561.2 3021.2,363.7 2957.2,363.7 		"/>
		<polygon points="2851.6,327.2 2851.6,266.9 3055.5,266.9 3034.2,327.2 		"/>
		<rect x="3146.9" y="431.5" width="96" height="60.3"/>
		<polygon points="2992.1,491.8 3110.5,491.8 3110.5,431.5 3049.8,431.5 		"/>
		<polygon points="3146.9,330 3146.9,561.1 3207.2,561.1 3207.2,267 		"/>
	</g>
</g>
<g id="Layer_1">
	<g>
		<g>
			
				<rect x="519.2" y="211.3" transform="matrix(-1.836970e-16 1 -1 -1.836970e-16 775.3865 -323.3816)" width="60.3" height="29.4"/>
			
				<rect x="519.2" y="445.3" transform="matrix(-1.836970e-16 1 -1 -1.836970e-16 1009.3525 -89.4156)" width="60.3" height="29.4"/>
			
				<rect x="864.1" y="169.5" transform="matrix(-1.836970e-16 1 -1 -1.836970e-16 1120.2037 -668.1988)" width="60.3" height="113"/>
			
				<rect x="1390.4" y="208.3" transform="matrix(-1.836970e-16 1 -1 -1.836970e-16 1646.5188 -1194.5167)" width="60.3" height="35.4"/>
			
				<rect x="864.1" y="403.5" transform="matrix(-1.836970e-16 1 -1 -1.836970e-16 1354.1697 -434.2328)" width="60.3" height="113"/>
			<rect x="335.6" y="195.9" width="60.3" height="294.3"/>
			<rect x="438" y="195.9" width="60.3" height="294.3"/>
			<path d="M564.1,490.1c0-20.1,0-40.2,0-60.3c115.8,0,115.8-173.7,0-173.7c0-20.1,0-40.2,0-60.3
				C760.2,195.9,760.2,490.1,564.1,490.1z"/>
			<rect x="741" y="195.9" width="60.3" height="294.3"/>
			
				<rect x="864.1" y="286.5" transform="matrix(-1.836970e-16 1 -1 -1.836970e-16 1237.1866 -551.2158)" width="60.3" height="113"/>
			
				<rect x="1390.4" y="325.3" transform="matrix(-1.836970e-16 1 -1 -1.836970e-16 1763.5018 -1077.5338)" width="60.3" height="35.4"/>
			<rect x="1306.1" y="195.9" width="60.3" height="294.3"/>
			<path d="M1438.2,373.1c0-20.2,0-40.1,0-60.3c37.4,0,37.4-56.7,0-56.7c0-20.2,0-40.1,0-60.3C1556,195.9,1556,373.1,1438.2,373.1z"
				/>
			<path d="M1033.1,324c8.5-42.6,46-74.7,91.1-74.7c45.1,0,82.6,32.1,91.1,74.7h61c-9-76-73.7-135-152.1-135s-143.1,59-152.1,135
				H1033.1z"/>
			<path d="M1215.3,360.5c-8.5,42.6-46,74.7-91.1,74.7c-45.1,0-82.6-32.1-91.1-74.7h-61c9,76,73.7,135,152.1,135
				c78.4,0,143.1-59,152.1-135H1215.3z"/>
			<polygon points="245,195.9 176.7,329.9 210.6,396.4 312.6,195.9 			"/>
			<polygon points="156.3,370.1 67.7,195.9 0,195.9 156.3,503 190.1,436.5 156.3,370.1 			"/>
			<path d="M1896.4,433.3c-42.6-8.5-74.7-46-74.7-91.1c0-45.1,32.1-82.6,74.7-91.1v-61c-76,9-135,73.7-135,152.1s59,143.1,135,152.1
				V433.3z"/>
			<path d="M1989.7,287.6l43-43c-24.5-29.5-59.8-49.7-99.8-54.5v61C1956.1,255.8,1976.2,269.1,1989.7,287.6z"/>
			<path d="M1989.7,396.9c-13.5,18.5-33.6,31.8-56.9,36.4v61c40.1-4.7,75.4-25,99.8-54.5L1989.7,396.9z"/>
			<polygon points="1635,379.6 1604.3,439.9 1725.1,439.9 1725.1,379.6 			"/>
			<polygon points="1537.9,490.1 1606.1,356.1 1572.3,289.6 1470.2,490.1 			"/>
			<polygon points="1626.5,315.9 1715.2,490.1 1782.8,490.1 1626.5,183 1592.7,249.4 1626.5,315.9 			"/>
			<path d="M558,0c-15.9,0-47.9,0.2-47.9,0v139.4h39l0.2-34.9h17.4c37.2,0,56.6-17.9,56.6-52.3C623.3,14.5,598.9,0,558,0z M558,78.4
				h-8.7V26.1c2.3-0.1,6.7,0,8.7,0c19.7,0,26.8,10.1,26.8,27C584.8,70.6,578.7,78.4,558,78.4z"/>
			<polygon points="209.4,139.4 209.4,82.8 170.2,82.8 170.2,139.4 131,139.4 131,0 170.2,0 170.2,56.6 209.4,56.6 209.4,0 248.6,0 
				248.6,139.4 			"/>
			<polygon points="279.1,139.4 279.1,0 314,0 318.3,0 318.3,139.4 			"/>
			<polygon points="422.6,139.4 348.8,139.4 348.8,0 388,0 388,113.3 427.3,113.3 			"/>
			<rect x="440.3" y="0" width="39.2" height="139.4"/>
			<path d="M675.6,34.9v4.4c0,21.4,65.3,11.6,65.3,56.6c0,33.8-23.3,43.6-56.6,43.6c-13.1,0-34.3-2.4-47.9-4.4v-30.5
				c12,6.2,34.8,8.7,47.9,8.7c14.8,0,17.4-4.6,17.4-13.1c0-24-65.4-13.7-65.4-61c0-27.5,26.9-39.2,59.1-39.2
				c22.8,0,26.4,2.1,36.8,4.4v26.1c-9.3-3.9-22.3-4.4-34.9-4.4C685.9,26.1,675.6,27.5,675.6,34.9z"/>
			<path d="M48.2,0C32.4,0,0.3,0.2,0.3,0v139.4h39l0.2-34.9h17.4c37.2,0,56.6-17.9,56.6-52.3C113.6,14.5,89.2,0,48.2,0z M48.2,78.4
				h-8.7V26.1c2.3-0.1,6.7,0,8.7,0c19.7,0,26.8,10.1,26.8,27C75,70.6,69,78.4,48.2,78.4z"/>
		</g>
		<polygon points="2386.4,312.8 2269.5,312.8 2269.5,195.9 2209.2,195.9 2209.2,312.8 2092.2,312.8 2092.2,373.1 2209.2,373.1 
			2209.2,490.1 2269.5,490.1 2269.5,373.1 2386.4,373.1 		"/>
		
			<rect x="2677.4" y="279.5" transform="matrix(-1.836970e-16 1 -1 -1.836970e-16 3049.9075 -2365.2827)" width="60.3" height="125.7"/>
		<path d="M3275.4,324c8.5-42.6,46-74.7,91.1-74.7c45.1,0,82.6,32.1,91.1,74.7h61c-9-76-73.7-135-152.1-135
			c-78.4,0-143.1,59-152.1,135H3275.4z"/>
		<path d="M3457.5,360.5c-8.5,42.6-46,74.7-91.1,74.7c-45.1,0-82.6-32.1-91.1-74.7h-61c9,76,73.7,135,152.1,135
			c78.4,0,143.1-59,152.1-135H3457.5z"/>
		<path d="M3595.8,324c8.5-42.6,46-74.7,91.1-74.7c45.1,0,82.6,32.1,91.1,74.7h61c-9-76-73.7-135-152.1-135
			c-78.4,0-143.1,59-152.1,135H3595.8z"/>
		<path d="M3778,360.5c-8.5,42.6-46,74.7-91.1,74.7c-45.1,0-82.6-32.1-91.1-74.7h-61c9,76,73.7,135,152.1,135
			c78.4,0,143.1-59,152.1-135H3778z"/>
		<path d="M2737.7,342.2c0,10.6-1.8,20.7-5,30.2h62.3c2-9.8,3-19.9,3-30.2c0-10.3-1-20.4-3-30.1h-62.3
			C2735.9,321.6,2737.7,331.7,2737.7,342.2z"/>
		<path d="M2644.8,435.2c-51.3,0-92.9-41.6-92.9-92.9s41.6-92.9,92.9-92.9c25,0,47.6,9.9,64.3,25.9l42.6-42.6
			c-27.6-26.9-65.3-43.5-107-43.5c-84.6,0-153.2,68.6-153.2,153.2s68.6,153.2,153.2,153.2c60.7,0,113.2-35.4,138-86.6h-73.2
			C2692.8,425.2,2669.9,435.2,2644.8,435.2z"/>
		<polygon points="2840.3,490.1 2904.2,490.1 2974.2,292.6 2910.2,292.6 		"/>
		<polygon points="2804.6,256.2 2804.6,195.9 3008.4,195.9 2987.2,256.2 		"/>
		<rect x="3099.9" y="360.5" width="96" height="60.3"/>
		<polygon points="2945,420.8 3063.5,420.8 3063.5,360.5 3002.7,360.5 		"/>
		<polygon points="3099.9,258.9 3099.9,490.1 3160.2,490.1 3160.2,195.9 		"/>
	</g>
</g>
</svg>
