<?xml version="1.0" encoding="utf-8"?>
<!-- Generator: Adobe Illustrator 26.0.2, SVG Export Plug-In . SVG Version: 6.00 Build 0)  -->
<svg version="1.1" xmlns="http://www.w3.org/2000/svg" xmlns:xlink="http://www.w3.org/1999/xlink" x="0px" y="0px"
	 viewBox="0 0 3839 759.1" style="enable-background:new 0 0 3839 759.1;" xml:space="preserve">
<style type="text/css">
	.st0{display:none;}
	.st1{display:inline;}
	.st2{fill:#FF1F1F;}
	.st3{fill:#FFFFFF;}
	.st4{fill:#FF1F1F;stroke:#FF1F1F;stroke-width:12.9372;stroke-miterlimit:10;}
	.st5{fill:none;stroke:#FF1F1F;stroke-width:12.9372;stroke-miterlimit:10;}
	.st6{fill:#FF1F1F;stroke:#000000;stroke-width:4.5925;stroke-miterlimit:10;}
	.st7{fill:#FF6A15;stroke:#000000;stroke-width:4.5925;stroke-miterlimit:10;}
	.st8{fill:#FFB40A;stroke:#000000;stroke-width:4.5925;stroke-miterlimit:10;}
	.st9{fill:#FFFF00;stroke:#000000;stroke-width:4.5925;stroke-miterlimit:10;}
	.st10{fill:#FFFFFF;stroke:#FFFFFF;stroke-width:12.9372;stroke-miterlimit:10;}
	.st11{fill:none;stroke:#FFFFFF;stroke-width:12.9372;stroke-miterlimit:10;}
	.st12{fill:#FF0074;stroke:#000000;stroke-width:4.5925;stroke-miterlimit:10;}
	.st13{fill:#FF803A;stroke:#000000;stroke-width:4.5925;stroke-miterlimit:10;}
	.st14{fill:#FFFFFF;stroke:#000000;stroke-width:4.5925;stroke-miterlimit:10;}
	.st15{fill:#FF0074;stroke:#000000;stroke-width:7.2529;stroke-miterlimit:10;}
	.st16{fill:#FF803A;stroke:#000000;stroke-width:7.2529;stroke-miterlimit:10;}
	.st17{fill:#FFFF00;stroke:#000000;stroke-width:7.2529;stroke-miterlimit:10;}
	.st18{fill:#FFFFFF;stroke:#000000;stroke-width:7.2529;stroke-miterlimit:10;}
	.st19{fill:#FF1F1F;stroke:#000000;stroke-width:6.6981;stroke-miterlimit:10;}
	.st20{fill:#FF6A15;stroke:#000000;stroke-width:6.6981;stroke-miterlimit:10;}
	.st21{fill:#FFB40A;stroke:#000000;stroke-width:6.6981;stroke-miterlimit:10;}
	.st22{fill:#FFFF00;stroke:#000000;stroke-width:6.6981;stroke-miterlimit:10;}
	.st23{fill:#FF1F1F;stroke:#FF1F1F;stroke-width:20.3455;stroke-miterlimit:10;}
	.st24{fill:none;stroke:#FF1F1F;stroke-width:20.3455;stroke-miterlimit:10;}
	.st25{fill:#FF1F1F;stroke:#000000;stroke-width:7.2224;stroke-miterlimit:10;}
	.st26{fill:#FF6A15;stroke:#000000;stroke-width:7.2224;stroke-miterlimit:10;}
	.st27{fill:#FFB40A;stroke:#000000;stroke-width:7.2224;stroke-miterlimit:10;}
	.st28{fill:#FFFF00;stroke:#000000;stroke-width:7.2224;stroke-miterlimit:10;}
	.st29{fill:#FFFFFF;stroke:#FFFFFF;stroke-width:20.3455;stroke-miterlimit:10;}
	.st30{fill:none;stroke:#FFFFFF;stroke-width:20.3455;stroke-miterlimit:10;}
	.st31{fill:#FF0074;stroke:#000000;stroke-width:7.2224;stroke-miterlimit:10;}
	.st32{fill:#FF803A;stroke:#000000;stroke-width:7.2224;stroke-miterlimit:10;}
	.st33{fill:#FFFFFF;stroke:#000000;stroke-width:7.2224;stroke-miterlimit:10;}
	.st34{stroke:#000000;stroke-width:12.9372;stroke-miterlimit:10;}
	.st35{fill:none;stroke:#000000;stroke-width:12.9372;stroke-miterlimit:10;}
	.st36{stroke:#000000;stroke-width:20.3455;stroke-miterlimit:10;}
	.st37{fill:none;stroke:#000000;stroke-width:20.3455;stroke-miterlimit:10;}
	.st38{fill:none;stroke:#000000;stroke-width:7.2529;stroke-miterlimit:10;}
	.st39{fill:none;stroke:#000000;stroke-width:4.5925;stroke-miterlimit:10;}
	.st40{fill:none;stroke:#000000;stroke-width:7.2224;stroke-miterlimit:10;}
	.st41{fill:none;stroke:#FFFFFF;stroke-width:7.2529;stroke-miterlimit:10;}
	.st42{fill:none;stroke:#FFFFFF;stroke-width:4.5925;stroke-miterlimit:10;}
	.st43{fill:none;stroke:#FFFFFF;stroke-width:7.2224;stroke-miterlimit:10;}
	.st44{fill:#FF1F1F;stroke:#000000;stroke-width:4.5799;stroke-miterlimit:10;}
	.st45{fill:#FF6A15;stroke:#000000;stroke-width:4.5799;stroke-miterlimit:10;}
	.st46{fill:#FFB40A;stroke:#000000;stroke-width:4.5799;stroke-miterlimit:10;}
	.st47{fill:#FFFF00;stroke:#000000;stroke-width:4.5799;stroke-miterlimit:10;}
	.st48{fill:#FF0074;stroke:#000000;stroke-width:4.5799;stroke-miterlimit:10;}
	.st49{fill:#FF803A;stroke:#000000;stroke-width:4.5799;stroke-miterlimit:10;}
	.st50{fill:#FFFFFF;stroke:#000000;stroke-width:4.5799;stroke-miterlimit:10;}
	.st51{fill:#FF0074;}
	.st52{fill:#FF803A;}
	.st53{fill:#FFFF00;}
	.st54{fill:#FF6A15;}
	.st55{fill:#FFB40A;}
	.st56{fill:none;stroke:#000000;stroke-width:4.5799;stroke-miterlimit:10;}
	.st57{fill:none;stroke:#FFFFFF;stroke-width:4.5799;stroke-miterlimit:10;}
</style>
<g id="copy_with_strokes" class="st0">
	<g class="st1">
		
			<rect x="828" y="84" transform="matrix(-1.836970e-16 1 -1 -1.836970e-16 979.4373 -767.2383)" class="st36" width="90.7" height="44.2"/>
		
			<rect x="828" y="435.9" transform="matrix(-1.836970e-16 1 -1 -1.836970e-16 1331.3324 -415.3432)" class="st36" width="90.7" height="44.2"/>
		
			<rect x="1346.6" y="21.1" transform="matrix(-1.836970e-16 1 -1 -1.836970e-16 1498.0576 -1285.8586)" class="st36" width="90.7" height="170"/>
		
			<rect x="2149.1" y="79.5" transform="matrix(-1.836970e-16 1 -1 -1.836970e-16 2300.4976 -2088.3027)" class="st36" width="90.7" height="53.3"/>
		
			<rect x="1346.6" y="373" transform="matrix(-1.836970e-16 1 -1 -1.836970e-16 1849.9528 -933.9634)" class="st36" width="90.7" height="170"/>
		<rect x="551.8" y="60.8" class="st36" width="90.7" height="442.6"/>
		<rect x="705.8" y="60.8" class="st36" width="90.7" height="442.6"/>
		<g>
			<path d="M895.4,503.3c0-30.2,0-60.5,0-90.7c174.1,0,174.1-261.2,0-261.2c0-30.2,0-60.5,0-90.7
				C1190.5,60.8,1190.5,503.3,895.4,503.3z"/>
			<path class="st37" d="M895.4,503.3c0-30.2,0-60.5,0-90.7c174.1,0,174.1-261.2,0-261.2c0-30.2,0-60.5,0-90.7
				C1190.5,60.8,1190.5,503.3,895.4,503.3z"/>
		</g>
		<rect x="1161.5" y="60.8" class="st36" width="90.7" height="442.6"/>
		
			<rect x="1346.6" y="197" transform="matrix(-1.836970e-16 1 -1 -1.836970e-16 1674.0051 -1109.911)" class="st36" width="90.7" height="170"/>
		
			<rect x="2149.1" y="255.4" transform="matrix(-1.836970e-16 1 -1 -1.836970e-16 2476.4451 -1912.3552)" class="st36" width="90.7" height="53.3"/>
		<rect x="2022.3" y="60.8" class="st36" width="90.7" height="442.6"/>
		<path class="st36" d="M2221,327.4c0-30.3,0-60.4,0-90.7c56.2,0,56.2-85.3,0-85.3c0-30.3,0-60.4,0-90.7
			C2398.2,60.8,2398.2,327.4,2221,327.4z"/>
		<path class="st36" d="M1611.7,253.5c12.7-64,69.2-112.3,137-112.3c67.8,0,124.3,48.3,137,112.3h91.8
			c-13.6-114.3-110.8-203-228.8-203c-118,0-215.2,88.7-228.8,203H1611.7z"/>
		<path class="st36" d="M1885.7,308.3c-12.7,64-69.2,112.3-137,112.3c-67.8,0-124.3-48.3-137-112.3h-91.8
			c13.6,114.3,110.8,203,228.8,203c118,0,215.2-88.7,228.8-203H1885.7z"/>
		<polygon class="st36" points="415.5,60.8 312.9,262.3 363.8,362.3 517.2,60.8 		"/>
		<polygon class="st36" points="282.1,322.8 148.8,60.8 47,60.8 282.1,522.7 333,422.8 282.1,322.8 		"/>
		<path class="st36" d="M2904,417.9c-64-12.7-112.3-69.2-112.3-137c0-67.8,48.3-124.3,112.3-137V52.2
			c-114.3,13.6-203,110.8-203,228.8s88.7,215.2,203,228.8V417.9z"/>
		<path class="st36" d="M3044.4,198.7l64.6-64.6c-36.8-44.4-89.9-74.8-150.2-82v91.8C2993.8,150.9,3024.1,170.9,3044.4,198.7z"/>
		<path class="st36" d="M3044.4,363.1c-20.3,27.8-50.5,47.8-85.5,54.8v91.8c60.3-7.1,113.4-37.5,150.2-82L3044.4,363.1z"/>
		<polygon class="st36" points="2513.6,337.1 2467.5,427.8 2649.1,427.8 2630.6,337.1 		"/>
		<polygon class="st36" points="2367.5,503.3 2470.1,301.8 2419.2,201.8 2265.8,503.3 		"/>
		<polygon class="st36" points="2500.8,241.3 2634.2,503.3 2735.9,503.3 2500.8,41.4 2450,141.3 2500.8,241.3 		"/>
		<g>
			<path d="M3674.1,620.5c-18.4,0-55.5,0.2-55.5,0V782h45.2l0.3-40.4h20.2c43,0,65.6-20.8,65.6-60.6
				C3749.8,637.3,3721.5,620.5,3674.1,620.5z M3674.1,711.3H3664v-60.6c2.7-0.2,7.7,0,10.1,0c22.8,0,31,11.7,31,31.2
				C3705.1,702.3,3698.1,711.3,3674.1,711.3z"/>
			<polygon points="3270.3,782 3270.3,716.4 3224.8,716.4 3224.8,782 3179.4,782 3179.4,620.5 3224.8,620.5 3224.8,686.1 
				3270.3,686.1 3270.3,620.5 3315.7,620.5 3315.7,782 			"/>
			<polygon points="3351,782 3351,620.5 3391.4,620.5 3396.4,620.5 3396.4,782 			"/>
			<polygon points="3517.2,782 3431.8,782 3431.8,620.5 3477.2,620.5 3477.2,751.7 3522.6,751.7 			"/>
			<rect x="3537.8" y="620.5" width="45.4" height="161.5"/>
			<path d="M3810.3,660.9v5.1c0,24.8,75.7,13.4,75.7,65.6c0,39.2-27,50.5-65.6,50.5c-15.2,0-39.7-2.8-55.5-5v-35.3
				c13.9,7.2,40.3,10.1,55.5,10.1c17.1,0,20.2-5.4,20.2-15.1c0-27.8-75.7-15.9-75.7-70.7c0-31.8,31.1-45.4,68.5-45.4
				c26.5,0,30.6,2.4,42.6,5.1v30.3c-10.8-4.6-25.8-5-40.4-5C3822.3,650.8,3810.3,652.4,3810.3,660.9z"/>
			<path d="M3083.5,620.5c-18.4,0-55.5,0.2-55.5,0V782h45.2l0.3-40.4h20.2c43,0,65.6-20.8,65.6-60.6
				C3159.2,637.3,3131,620.5,3083.5,620.5z M3083.5,711.3h-10.1v-60.6c2.7-0.2,7.7,0,10.1,0c22.8,0,31,11.7,31,31.2
				C3114.6,702.3,3107.6,711.3,3083.5,711.3z"/>
		</g>
		<g>
			<g>
				<g>
					<polyline class="st40" points="3632.2,327.4 3632.2,503.3 3710.1,503.3 3710.1,327.4 3886,327.4 3886,236.7 3710.1,236.7 
						3710.1,60.8 3632.2,60.8 3632.2,236.7 					"/>
				</g>
				<polygon class="st40" points="3652.5,236.7 3476.6,236.7 3476.6,60.8 3385.9,60.8 3385.9,236.7 3209.9,236.7 3209.9,327.4 
					3385.9,327.4 3385.9,503.3 3476.6,503.3 3476.6,327.4 3652.5,327.4 				"/>
			</g>
			<line class="st40" x1="3554.5" y1="327.4" x2="3554.5" y2="503.3"/>
			<line class="st40" x1="3554.5" y1="60.8" x2="3554.5" y2="236.7"/>
			<line class="st40" x1="3476.6" y1="60.8" x2="3632.2" y2="60.8"/>
			<line class="st40" x1="3476.6" y1="503.3" x2="3632.2" y2="503.3"/>
			<rect x="3652.5" y="236.7" class="st40" width="77.8" height="90.7"/>
			<rect x="3730.4" y="236.7" class="st40" width="77.8" height="90.7"/>
		</g>
	</g>
</g>
<g id="Layer_1">
	<g>
		<g>
			<rect x="793.4" y="64.8" transform="matrix(-1.836970e-16 1 -1 -1.836970e-16 925.1985 -751.754)" width="90.2" height="43.9"/>
			<path d="M870.6,142h-64.2V31.5h64.2V142z M826.6,121.7h23.7v-70h-23.7V121.7z"/>
		</g>
		<g>
			
				<rect x="793.4" y="414.8" transform="matrix(-1.836970e-16 1 -1 -1.836970e-16 1275.2516 -401.701)" width="90.2" height="43.9"/>
			<path d="M870.6,492h-64.2V381.5h64.2V492z M826.6,471.8h23.7v-70h-23.7V471.8z"/>
		</g>
		<g>
			
				<rect x="1309.3" y="2.2" transform="matrix(-1.836970e-16 1 -1 -1.836970e-16 1441.104 -1267.6594)" width="90.2" height="169.1"/>
			<path d="M1449.1,142h-189.3V31.5h189.3V142z M1279.9,121.7h148.9v-70h-148.9V121.7z"/>
		</g>
		<g>
			
				<rect x="2107.5" y="60.2" transform="matrix(-1.836970e-16 1 -1 -1.836970e-16 2239.3433 -2065.9028)" width="90.2" height="53"/>
			<path d="M2189.2,141.9H2116V31.5h73.2V141.9z M2136.2,121.7h32.8v-70h-32.8V121.7z"/>
		</g>
		<g>
			
				<rect x="1309.3" y="352.2" transform="matrix(-1.836970e-16 1 -1 -1.836970e-16 1791.157 -917.6064)" width="90.2" height="169.1"/>
			<path d="M1449.1,492h-189.3V381.5h189.3V492z M1279.9,471.8h148.9v-70h-148.9V471.8z"/>
		</g>
		<g>
			<rect x="518.6" y="41.6" width="90.2" height="440.3"/>
			<path d="M619,492H508.5V31.5H619V492z M528.8,471.8h70v-420h-70V471.8z"/>
		</g>
		<g>
			<rect x="671.8" y="41.6" width="90.2" height="440.3"/>
			<path d="M772.1,492H661.7V31.5h110.5V492z M681.9,471.8h70v-420h-70V471.8z"/>
		</g>
		<g>
			<path d="M860.4,481.9c0-30.1,0-60.1,0-90.2c173.2,0,173.2-259.8,0-259.8c0-30.1,0-60.1,0-90.2C1154,41.6,1154,481.9,860.4,481.9z
				"/>
			<g>
				<path d="M860.4,492h-10.1V381.5h10.1c37.2,0,68.2-12.9,89.9-37.2c19.3-21.7,29.9-51,29.9-82.6c0-57.7-37.5-119.8-119.8-119.8
					h-10.1V31.5h10.1c71,0,130.7,25,172.7,72.2c37.1,41.8,57.6,97.9,57.6,158.1c0,60.2-20.5,116.3-57.6,158.1
					C991.1,467,931.4,492,860.4,492z M870.6,401.5v70.1c60.6-2.2,111.4-24.7,147.4-65.2c33.8-38.1,52.5-89.4,52.5-144.6
					c0-55.2-18.6-106.5-52.5-144.6c-36-40.5-86.8-63-147.4-65.2V122c38.7,2.2,71.3,17.2,94.9,43.7c22.6,25.4,35,59.5,35,96
					c0,36.5-12.4,70.6-35,96C941.9,384.3,909.2,399.3,870.6,401.5z"/>
			</g>
		</g>
		<g>
			<rect x="1125.1" y="41.6" width="90.2" height="440.3"/>
			<path d="M1225.4,492H1115V31.5h110.5V492z M1135.2,471.8h70v-420h-70V471.8z"/>
		</g>
		<g>
			
				<rect x="1309.3" y="177.2" transform="matrix(-1.836970e-16 1 -1 -1.836970e-16 1616.1305 -1092.6329)" width="90.2" height="169.1"/>
			<path d="M1449.1,317h-189.3V206.5h189.3V317z M1279.9,296.7h148.9v-70h-148.9V296.7z"/>
		</g>
		<g>
			
				<rect x="2107.5" y="235.2" transform="matrix(-1.836970e-16 1 -1 -1.836970e-16 2414.3699 -1890.8765)" width="90.2" height="53"/>
			<path d="M2189.2,317H2116V206.5h73.2V317z M2136.2,296.7h32.8v-70h-32.8V296.7z"/>
		</g>
		<g>
			<rect x="1981.4" y="41.6" width="90.2" height="440.3"/>
			<path d="M2081.7,492h-110.5V31.5h110.5V492z M1991.5,471.8h70v-420h-70V471.8z"/>
		</g>
		<g>
			<path d="M2179.1,306.9c0-30.2,0-60,0-90.2c55.9,0,55.9-84.8,0-84.8c0-30.2,0-60,0-90.2C2355.4,41.6,2355.4,306.9,2179.1,306.9z"
				/>
			<path d="M2179.1,317H2169V206.5h10.1c15.6,0,23.4-7.9,27.3-14.6c6.1-10.6,6.1-24.8,0-35.4c-3.8-6.6-11.7-14.6-27.3-14.6H2169
				V31.5h10.1c43.8,0,80.7,15.5,106.7,44.9c22.9,25.9,35.6,60.7,35.6,97.9s-12.6,72-35.6,97.9C2259.8,301.5,2222.9,317,2179.1,317z
				 M2189.2,225.9v70.5c76.8-4.9,111.9-65.6,111.9-122.2S2266.1,56.9,2189.2,52v70.5c14.9,2.6,27.2,11,34.7,23.8
				c9.8,16.9,9.8,38.8,0,55.7C2216.5,214.9,2204.2,223.3,2189.2,225.9z"/>
		</g>
		<g>
			<path d="M1573,233.4c12.7-63.7,68.9-111.7,136.3-111.7c67.4,0,123.6,48,136.3,111.7h91.3c-13.5-113.7-110.2-201.9-227.6-201.9
				c-117.4,0-214.1,88.2-227.6,201.9H1573z"/>
			<path d="M1948.2,243.5h-111l-1.6-8.1c-11.9-60-65.1-103.6-126.4-103.6c-61.3,0-114.4,43.6-126.4,103.6l-1.6,8.1h-111l1.3-11.3
				C1485.9,112,1588,21.3,1709.3,21.3c121.2,0,223.4,90.7,237.6,210.9L1948.2,243.5z M1853.6,223.3h71.5
				c-17.9-104.4-108.8-181.7-215.9-181.7s-198,77.3-215.9,181.7h71.5c16.8-65.2,76.3-111.7,144.4-111.7
				C1777.4,111.5,1836.8,158,1853.6,223.3z"/>
		</g>
		<g>
			<path d="M1845.6,287.9c-12.7,63.7-68.9,111.7-136.3,111.7c-67.4,0-123.6-48-136.3-111.7h-91.3
				c13.5,113.7,110.2,201.9,227.6,201.9c117.4,0,214.1-88.2,227.6-201.9H1845.6z"/>
			<path d="M1709.3,500c-121.2,0-223.4-90.7-237.6-210.9l-1.3-11.3h111l1.6,8.1c11.9,60,65.1,103.6,126.4,103.6
				c61.3,0,114.4-43.6,126.4-103.6l1.6-8.1h111l-1.3,11.3C1932.6,409.3,1830.5,500,1709.3,500z M1493.4,298
				c17.9,104.4,108.8,181.7,215.9,181.7c107.1,0,198-77.3,215.9-181.7h-71.5c-16.8,65.2-76.2,111.7-144.4,111.7
				c-68.1,0-127.5-46.5-144.4-111.7H1493.4z"/>
		</g>
		<g>
			<polygon points="383,41.6 280.9,242.1 331.6,341.6 484.2,41.6 			"/>
			<path d="M331.6,363.9l-62-121.8L376.8,31.5h123.9L331.6,363.9z M292.3,242.1l39.3,77.2L467.7,51.7h-78.5L292.3,242.1z"/>
		</g>
		<g>
			<polygon points="250.4,302.3 117.7,41.6 16.5,41.6 250.4,501.2 301,401.7 250.4,302.3 			"/>
			<path d="M250.4,523.5L0,31.5h123.9l126.3,248.3l0,0l62,121.9L250.4,523.5z M33,51.7l217.4,427.1l39.3-77.2l-178.1-350H33z"/>
		</g>
		<g>
			<path d="M2858.5,396.9c-63.7-12.7-111.7-68.9-111.7-136.3c0-67.4,48-123.6,111.7-136.3V33.1c-113.7,13.5-201.9,110.2-201.9,227.6
				s88.2,214.1,201.9,227.6V396.9z"/>
			<path d="M2868.7,499.6l-11.3-1.3c-120.2-14.2-210.9-116.4-210.9-237.6c0-121.2,90.7-223.4,210.9-237.6l11.3-1.3v111l-8.1,1.6
				c-60,11.9-103.6,65.1-103.6,126.4s43.6,114.4,103.6,126.4l8.1,1.6V499.6z M2848.4,44.8c-104.4,17.9-181.7,108.8-181.7,215.9
				c0,107.1,77.3,198,181.7,215.9V405c-65.2-16.8-111.7-76.3-111.7-144.4s46.5-127.5,111.7-144.4V44.8z"/>
		</g>
		<g>
			<path d="M2998.1,178.9l64.3-64.3c-36.6-44.2-89.4-74.4-149.4-81.5v91.3C2947.9,131.3,2978,151.2,2998.1,178.9z"/>
			<path d="M2996.9,194.4l-7-9.6c-19.2-26.3-47.2-44.3-78.9-50.6l-8.1-1.6v-111l11.3,1.3c61.1,7.2,116.5,37.5,156,85.1l5.9,7.1
				L2996.9,194.4z M2923.2,116.3c29.6,7.6,55.9,24.1,75.8,47.4l49.6-49.6c-33.1-36.8-77-61-125.4-69.3V116.3z"/>
		</g>
		<g>
			<path d="M2998.1,342.4c-20.2,27.7-50.3,47.6-85.1,54.5v91.3c59.9-7.1,112.8-37.3,149.4-81.5L2998.1,342.4z"/>
			<path d="M2902.9,499.6v-111l8.1-1.6c31.7-6.3,59.7-24.3,78.9-50.6l7-9.6l79.2,79.2l-5.9,7.1c-39.4,47.6-94.8,77.9-156,85.1
				L2902.9,499.6z M2923.2,405v71.5c48.4-8.3,92.4-32.6,125.4-69.3l-49.6-49.6C2979.1,380.9,2952.7,397.4,2923.2,405z"/>
		</g>
		<g>
			<polygon points="2470.2,316.5 2424.3,406.7 2605,406.7 2586.5,316.5 			"/>
			<path d="M2617.4,416.8h-209.6l56.2-110.5h130.8L2617.4,416.8z M2440.8,396.6h151.8l-14.3-70h-101.9L2440.8,396.6z"/>
		</g>
		<g>
			<polygon points="2324.8,481.9 2426.9,281.4 2376.3,181.9 2223.6,481.9 			"/>
			<path d="M2331,492h-123.9l169.2-332.4l62,121.8L2331,492z M2240.1,471.8h78.5l96.9-190.4l-39.3-77.2L2240.1,471.8z"/>
		</g>
		<g>
			<polygon points="2457.5,221.2 2590.1,481.9 2691.3,481.9 2457.5,22.3 2406.9,121.8 2457.5,221.2 			"/>
			<path d="M2707.8,492h-123.9l-127.6-250.8l0,0l-60.8-119.5l62-121.8L2707.8,492z M2596.3,471.8h78.5L2457.5,44.6l-39.3,77.2
				l40.4,79.5v0L2596.3,471.8z"/>
		</g>
		<g>
			<path d="M3624.5,598.4c-18.3,0-55.2,0.2-55.2,0v160.7h44.9l0.3-40.2h20.1c42.8,0,65.3-20.6,65.3-60.3
				C3699.8,615.2,3671.8,598.4,3624.5,598.4z M3624.5,688.8h-10v-60.2c2.7-0.2,7.7,0,10,0c22.7,0,30.9,11.6,30.9,31.1
				C3655.4,679.8,3648.5,688.8,3624.5,688.8z"/>
			<polygon points="3222.9,759.1 3222.9,693.8 3177.7,693.8 3177.7,759.1 3132.5,759.1 3132.5,598.4 3177.7,598.4 3177.7,663.7 
				3222.9,663.7 3222.9,598.4 3268.1,598.4 3268.1,759.1 			"/>
			<polygon points="3303.2,759.1 3303.2,598.4 3343.4,598.4 3348.4,598.4 3348.4,759.1 			"/>
			<polygon points="3468.5,759.1 3383.5,759.1 3383.5,598.4 3428.7,598.4 3428.7,729 3473.9,729 			"/>
			<rect x="3489" y="598.4" width="45.2" height="160.7"/>
			<path d="M3760.1,638.6v5c0,24.7,75.3,13.3,75.3,65.3c0,39-26.9,50.2-65.3,50.2c-15.1,0-39.5-2.8-55.2-5v-35.1
				c13.9,7.1,40.1,10,55.2,10c17,0,20.1-5.3,20.1-15.1c0-27.7-75.3-15.8-75.3-70.3c0-31.7,30.9-45.2,68.1-45.2
				c26.3,0,30.4,2.4,42.4,5v30.1c-10.7-4.5-25.7-5-40.2-5C3772,628.5,3760.1,630.1,3760.1,638.6z"/>
			<path d="M3037.1,598.4c-18.3,0-55.2,0.2-55.2,0v160.7h44.9l0.3-40.2h20.1c42.8,0,65.3-20.6,65.3-60.3
				C3112.4,615.2,3084.3,598.4,3037.1,598.4z M3037.1,688.8h-10v-60.2c2.7-0.2,7.7,0,10,0c22.7,0,30.9,11.6,30.9,31.1
				C3068,679.8,3061,688.8,3037.1,688.8z"/>
		</g>
		<g>
			<g>
				<g>
					<g>
						<polygon points="3664,485.5 3579.4,485.5 3579.4,306.9 3586.5,306.9 3586.5,478.3 3656.8,478.3 3656.8,303.3 3831.8,303.3 
							3831.8,220.2 3656.8,220.2 3656.8,45.2 3586.5,45.2 3586.5,216.6 3579.4,216.6 3579.4,38 3664,38 3664,213 3839,213 
							3839,310.5 3664,310.5 						"/>
					</g>
				</g>
				<g>
					<path d="M3431.7,485.5h-97.4v-175h-175V213h175V38h97.4v175h175v97.4h-175V485.5z M3341.4,478.3h83v-175h175v-83h-175v-175h-83
						v175h-175v83h175V478.3z"/>
				</g>
			</g>
			<g>
				<rect x="3502" y="306.9" width="7.2" height="175"/>
			</g>
			<g>
				<rect x="3502" y="41.6" width="7.2" height="175"/>
			</g>
			<g>
				<rect x="3428.1" y="38" width="154.9" height="7.2"/>
			</g>
			<g>
				<rect x="3428.1" y="478.3" width="154.9" height="7.2"/>
			</g>
			<g>
				<path d="M3684.1,310.5h-84.6V213h84.6V310.5z M3606.7,303.3h70.3v-83h-70.3V303.3z"/>
			</g>
			<g>
				<path d="M3761.6,310.5h-84.6V213h84.6V310.5z M3684.1,303.3h70.3v-83h-70.3V303.3z"/>
			</g>
		</g>
	</g>
</g>
</svg>
