<?xml version="1.0" encoding="utf-8"?>
<!-- Generator: Adobe Illustrator 25.4.1, SVG Export Plug-In . SVG Version: 6.00 Build 0)  -->
<svg version="1.1" id="Layer_1" xmlns="http://www.w3.org/2000/svg" xmlns:xlink="http://www.w3.org/1999/xlink" x="0px" y="0px"
	 viewBox="0 0 3839 1026.2" style="enable-background:new 0 0 3839 1026.2;" xml:space="preserve">
<style type="text/css">
	.st0{fill:#DA221F;}
	.st1{fill:#FFFFFF;}
	.st2{fill:#002F82;}
</style>
<g>
	<g>
		<g>
			<path d="M2478.6,996.6v-18.9c43.9-2.7,56.2-22.9,89.5-56.7l438.8-433.4l-414.2-424c-10.6-10.8-26.4-31-70.2-31V13.6h414.2v18.9
				c-22.8,0-36.9,5.4-36.9,18.9c0,5.4,8.8,16.2,26.4,33.8l238.7,245.7l249.3-247.1c14-14.9,24.6-25.7,24.6-33.8
				c0-10.8-14-17.6-29.8-17.6V13.6h389.6v18.9c-57.9,1.3-80.7,24.4-114.1,56.7l-382.6,379.4l442.3,452.4
				c35.1,36.5,47.4,55.4,94.7,56.7v18.9h-410.8v-18.9c26.4,0,33.4-4,33.4-17.6c0-12.1-29.8-39.1-63.2-72.9l-256.3-260.6
				l-310.7,307.9c-8.8,9.5-15.8,13.5-15.8,25.7c0,10.8,14,17.6,36.8,17.6v18.9H2478.6z"/>
		</g>
		<g>
			<path d="M458.1,368.6h24.6c7,22.9,35.1,33.8,133.4,33.8c240.5,0,305.5-60.7,305.5-118.9c0-62.2-84.3-124.2-268.5-124.2
				c-237,0-400.2,100-400.2,144.4c0,9.5,3.6,17.6,7,24.4l-21,13.5L52.6,153.9l24.6-10.8c7,4,15.8,8.1,26.4,8.1
				C154.5,151.2,261.5,0,668.7,0c286.1,0,502.1,118.9,502.1,274.1c0,91.8-64.9,163.3-177.2,189v2.7
				c147.4,40.5,249.3,117.4,249.3,245.7c0,174.2-221.2,298.5-561.7,298.5C223.1,1010,123,888.5,63.3,888.5c-14,0-24.6,5.4-35.1,12.1
				L0,892.5l140.4-232.3l26.4,12.1c0,4-1.8,9.5-1.8,16.2c0,52.7,194.8,162,486.3,162c221.1,0.1,342.2-59.3,342.2-144.3
				c0-74.3-91.3-155.2-345.8-155.2c-131.7,0-159.7,14.9-165,39.1H458V368.6H458.1z"/>
		</g>
		<g>
			<path d="M1297.8,199.8l24.6-14.9c3.6,4,10.6,6.8,21,6.8c49.3,0,180.9-191.7,554.8-191.7c217.6,0,489.7,95.9,489.7,283.6
				c0,359.2-670.5,321.4-849.6,548.2h846.1c38.6,0,52.7-10.8,52.7-32.4h24.6v226.8h-24.6c0-18.9-14-29.7-52.7-29.7h-1127
				c0-492.8,881.2-471.3,881.2-703.5c0-87.7-131.7-133.7-251-133.7c-201.8,0-373.8,129.7-373.8,189c0,12.1,7,20.2,14,27l-22.8,16.2
				L1297.8,199.8z"/>
		</g>
	</g>
</g>
</svg>
