<?xml version="1.0" encoding="utf-8"?>
<!-- Generator: Adobe Illustrator 26.5.0, SVG Export Plug-In . SVG Version: 6.00 Build 0)  -->
<svg version="1.1" id="Layer_1" xmlns="http://www.w3.org/2000/svg" xmlns:xlink="http://www.w3.org/1999/xlink" x="0px" y="0px"
	 viewBox="0 0 3839 447.29" style="enable-background:new 0 0 3839 447.29;" xml:space="preserve">
<style type="text/css">
	.st0{fill:#FFFFFF;}
	.st1{fill:#FFFFFF;stroke:#000000;stroke-width:6.18;stroke-linecap:round;stroke-linejoin:round;stroke-miterlimit:10;}
	.st2{fill:none;stroke:#000000;stroke-width:6.18;stroke-linecap:round;stroke-linejoin:round;stroke-miterlimit:10;}
	.st3{stroke:#FFFFFF;stroke-width:6.18;stroke-linecap:round;stroke-linejoin:round;stroke-miterlimit:10;}
	.st4{fill:none;stroke:#FFFFFF;stroke-width:6.18;stroke-linecap:round;stroke-linejoin:round;stroke-miterlimit:10;}
</style>
<g>
	<path d="M2266.16,273.5c0,0,0.01,0,0.01,0c0.16,0,0.31-0.02,0.47-0.04c0.03-0.01,0.07-0.01,0.1-0.02c0.04-0.01,0.07-0.02,0.11-0.03
		c0.08-0.02,0.17-0.04,0.25-0.07c0.05-0.02,0.11-0.04,0.16-0.06c0.04-0.02,0.08-0.03,0.12-0.04c0.01,0,0.02-0.01,0.02-0.01
		c0.05-0.02,0.09-0.05,0.14-0.07c0.05-0.02,0.1-0.05,0.14-0.07c0.07-0.04,0.13-0.08,0.19-0.12c0.04-0.02,0.07-0.05,0.11-0.08
		c0,0,0.01-0.01,0.01-0.01c0.02-0.02,0.05-0.03,0.07-0.05c0.12-0.09,0.23-0.2,0.34-0.31c0.01-0.01,0.02-0.01,0.02-0.02c0,0,0,0,0,0
		c0.01-0.01,0.01-0.02,0.02-0.02c0.02-0.02,0.03-0.04,0.05-0.06c0.07-0.08,0.14-0.17,0.2-0.26c0.02-0.02,0.03-0.04,0.05-0.07
		c0.02-0.03,0.04-0.07,0.05-0.1c0.02-0.04,0.05-0.08,0.08-0.12c0.01-0.02,0.01-0.05,0.03-0.07c0.03-0.05,0.06-0.1,0.09-0.16
		c0.07-0.15,0.12-0.31,0.16-0.46c0-0.01,0.01-0.01,0.01-0.02c0,0,0,0,0,0c0-0.01,0-0.03,0.01-0.04c0.01-0.03,0.01-0.06,0.01-0.08
		c0.03-0.13,0.05-0.25,0.06-0.38c0.01-0.07,0-0.14,0-0.21c0-0.03,0-0.05,0-0.08c0-0.04,0-0.08,0-0.12c0-0.03,0-0.06,0-0.09
		c-0.01-0.08-0.03-0.16-0.04-0.24c-0.01-0.09-0.02-0.17-0.04-0.26c-0.01-0.04-0.03-0.08-0.04-0.12c-0.01-0.05-0.03-0.09-0.05-0.13
		c-0.03-0.08-0.05-0.15-0.08-0.23c-0.07-0.16-0.15-0.31-0.24-0.45c0,0,0,0,0,0l-102.14-157.25c-1.42-2.18-3.04-4.13-4.83-5.83
		c-0.02-0.01-0.03-0.03-0.04-0.05c-0.06-0.05-0.12-0.1-0.17-0.15c-7.59-7.09-18.12-9.76-28.62-6.98c-0.31,0.08-0.62,0.15-0.93,0.24
		c-3.11,0.92-5.95,2.27-8.5,3.94c-8.44,5.55-13.57,14.87-13.57,25.6v142.15c0,0.05,0.01,0.09,0.01,0.14c0,0.08,0.01,0.16,0.02,0.23
		c0.01,0.06,0.02,0.12,0.03,0.18c0.01,0.04,0.01,0.08,0.02,0.12c0.01,0.05,0.02,0.1,0.04,0.15c0.02,0.08,0.05,0.15,0.08,0.23
		c0.02,0.04,0.03,0.09,0.04,0.13c0,0,0,0,0,0.01c0.01,0.02,0.02,0.04,0.03,0.07c0.03,0.07,0.07,0.14,0.11,0.21
		c0.03,0.06,0.07,0.13,0.11,0.19c0.01,0.02,0.02,0.05,0.04,0.07c0.01,0.01,0.02,0.03,0.03,0.04c0.02,0.03,0.04,0.05,0.06,0.08
		c0.04,0.06,0.09,0.12,0.14,0.17c0.04,0.04,0.07,0.08,0.11,0.12c0.03,0.03,0.06,0.06,0.09,0.09c0.04,0.04,0.08,0.07,0.12,0.11
		c0.06,0.05,0.12,0.1,0.18,0.14c0.03,0.02,0.05,0.04,0.08,0.06c0.01,0.01,0.03,0.02,0.04,0.03c0.02,0.01,0.04,0.02,0.06,0.04
		c0.06,0.04,0.13,0.08,0.2,0.11c0.07,0.04,0.13,0.07,0.2,0.1c0.02,0.01,0.04,0.02,0.07,0.03c0,0,0.01,0,0.01,0
		c0.05,0.02,0.09,0.03,0.14,0.05c0.07,0.03,0.14,0.05,0.22,0.07c0.05,0.01,0.1,0.03,0.15,0.04c0.04,0.01,0.08,0.01,0.12,0.02
		c0.06,0.01,0.11,0.02,0.17,0.03c0.08,0.01,0.17,0.02,0.25,0.02c0.04,0,0.09,0.01,0.13,0.01L2266.16,273.5
		C2266.16,273.5,2266.16,273.5,2266.16,273.5z M2120.5,267.32l33.13-33.13h39.34l61.02,33.13H2120.5z M2155.44,228.01v-50.23
		l32.63,50.23H2155.44z M2195.92,228.76l-40.98-63.09c-0.75-1.15-2.16-1.67-3.47-1.28c-1.31,0.39-2.21,1.59-2.21,2.96v62.47
		l-33.13,33.13V128.26c0-2.69,0.41-5.27,1.17-7.68c0.03-0.09,0.05-0.19,0.08-0.28c2.45-7.47,8.35-13.28,16.39-15.66
		c0.04-0.01,0.09-0.02,0.13-0.03c0.59-0.17,1.19-0.32,1.78-0.45c0.23-0.05,0.47-0.08,0.7-0.13c0.41-0.08,0.81-0.15,1.22-0.21
		c0.27-0.04,0.54-0.06,0.81-0.09c0.37-0.04,0.74-0.08,1.1-0.1c0.28-0.02,0.56-0.02,0.84-0.03c0.37-0.01,0.73-0.02,1.1-0.01
		c0.21,0,0.42,0.01,0.63,0.02c0.41,0.02,0.82,0.05,1.23,0.08c0.19,0.02,0.37,0.03,0.56,0.05c0.57,0.07,1.14,0.15,1.7,0.26
		c0.1,0.02,0.2,0.05,0.3,0.07c0.47,0.1,0.94,0.21,1.4,0.33c0.19,0.05,0.38,0.11,0.57,0.17c0.38,0.11,0.76,0.23,1.13,0.37
		c0.19,0.07,0.37,0.13,0.56,0.2c0.44,0.17,0.88,0.35,1.32,0.55c0.1,0.04,0.19,0.08,0.29,0.13c0.52,0.24,1.03,0.51,1.53,0.79
		c0.15,0.09,0.3,0.18,0.46,0.27c0.36,0.21,0.71,0.43,1.06,0.66c0.17,0.11,0.33,0.22,0.5,0.34c0.36,0.25,0.71,0.51,1.05,0.78
		c0.12,0.1,0.25,0.19,0.38,0.29c0.46,0.37,0.91,0.76,1.34,1.17c0.09,0.09,0.18,0.18,0.27,0.27c0.34,0.33,0.68,0.68,1.01,1.03
		c0.13,0.14,0.26,0.29,0.39,0.44c0.29,0.33,0.57,0.67,0.85,1.02c0.11,0.15,0.23,0.29,0.34,0.44c0.38,0.5,0.74,1.01,1.09,1.54
		l95.51,147.04L2195.92,228.76z"/>
	<path d="M842.53,2.71c-0.01-0.08-0.02-0.15-0.04-0.23c-0.01-0.07-0.03-0.14-0.05-0.22c-0.02-0.08-0.05-0.15-0.08-0.23
		c-0.02-0.04-0.03-0.09-0.04-0.13c-0.01-0.02-0.02-0.04-0.03-0.07c-0.03-0.07-0.07-0.15-0.11-0.22c-0.03-0.06-0.07-0.13-0.11-0.19
		c-0.04-0.07-0.09-0.13-0.13-0.19c-0.04-0.06-0.09-0.12-0.14-0.17c-0.05-0.06-0.1-0.11-0.16-0.16c-0.05-0.05-0.1-0.1-0.16-0.15
		c-0.06-0.05-0.12-0.09-0.18-0.14c-0.06-0.04-0.12-0.09-0.18-0.13c-0.06-0.04-0.13-0.08-0.2-0.11c-0.07-0.04-0.14-0.07-0.21-0.1
		c-0.02-0.01-0.05-0.03-0.07-0.04c-0.04-0.02-0.09-0.03-0.14-0.04c-0.07-0.03-0.15-0.05-0.22-0.07c-0.07-0.02-0.15-0.04-0.22-0.05
		c-0.07-0.01-0.15-0.03-0.22-0.04c-0.08-0.01-0.16-0.01-0.24-0.02c-0.05,0-0.09-0.01-0.14-0.01H606.88
		c-19.09,0-35.72,10.65-44.3,26.32V3.09c0-0.23-0.03-0.45-0.08-0.67c-0.01-0.05-0.02-0.1-0.04-0.15c-0.06-0.23-0.15-0.46-0.27-0.67
		c0-0.01,0-0.02-0.01-0.02c-0.01-0.02-0.03-0.03-0.04-0.05c-0.12-0.2-0.26-0.38-0.42-0.55c-0.02-0.03-0.04-0.05-0.07-0.08
		c-0.17-0.17-0.36-0.31-0.56-0.43c-0.04-0.03-0.09-0.05-0.13-0.07c-0.2-0.11-0.42-0.21-0.65-0.28c0,0-0.01,0-0.01,0
		c-0.01,0-0.03,0-0.04-0.01c-0.23-0.06-0.47-0.09-0.71-0.09c-0.03,0-0.05-0.01-0.08-0.01H313.1c-15.76,0-30.29,7.89-38.88,21.11
		L0.49,442.52c0,0,0,0,0,0c-0.09,0.14-0.17,0.29-0.24,0.45c-0.03,0.07-0.05,0.15-0.08,0.22c-0.03,0.09-0.07,0.17-0.09,0.26
		c-0.02,0.08-0.03,0.16-0.04,0.25c-0.01,0.08-0.03,0.17-0.04,0.25c-0.01,0.09,0,0.18,0,0.27c0,0.08-0.01,0.16,0,0.24
		c0.01,0.17,0.04,0.34,0.08,0.5c0,0,0,0,0,0c0.01,0.03,0.02,0.05,0.03,0.08c0.04,0.14,0.08,0.27,0.14,0.41
		c0.04,0.09,0.09,0.16,0.13,0.25c0.04,0.07,0.07,0.14,0.11,0.2c0.2,0.31,0.46,0.58,0.76,0.79c0.05,0.04,0.1,0.07,0.15,0.1
		c0.11,0.07,0.23,0.14,0.35,0.2c0.06,0.03,0.12,0.06,0.18,0.08c0.13,0.05,0.25,0.09,0.39,0.12c0.06,0.01,0.11,0.03,0.17,0.04
		c0.18,0.03,0.37,0.06,0.56,0.06c0.01,0,0.01,0,0.02,0c0,0,0,0,0,0h221.07h0c0.27,0,0.53-0.04,0.78-0.1
		c0.09-0.02,0.16-0.07,0.25-0.1c0.16-0.06,0.32-0.11,0.47-0.19c0.09-0.05,0.17-0.12,0.25-0.18c0.13-0.09,0.26-0.17,0.37-0.28
		c0.08-0.08,0.15-0.17,0.22-0.26c0.08-0.1,0.18-0.19,0.25-0.3l182.37-280.76h28.17L257.11,442.52c0,0,0,0,0,0
		c-0.09,0.14-0.17,0.29-0.24,0.45c-0.03,0.07-0.05,0.14-0.07,0.21c-0.03,0.09-0.07,0.17-0.09,0.27c-0.02,0.08-0.03,0.17-0.04,0.25
		c-0.01,0.08-0.03,0.17-0.04,0.25c-0.01,0.09,0,0.18,0,0.27c0,0.08-0.01,0.15,0,0.23c0.01,0.17,0.04,0.34,0.08,0.5c0,0,0,0,0,0
		c0.01,0.02,0.02,0.04,0.02,0.06c0.04,0.14,0.08,0.28,0.15,0.42c0.04,0.08,0.09,0.16,0.13,0.24c0.04,0.07,0.07,0.14,0.11,0.21
		c0.09,0.14,0.2,0.28,0.31,0.4c0,0,0,0,0,0v0c0.13,0.14,0.28,0.27,0.44,0.39c0.05,0.04,0.1,0.07,0.15,0.1
		c0.11,0.07,0.23,0.14,0.35,0.2c0.06,0.03,0.12,0.06,0.18,0.08c0.13,0.05,0.25,0.09,0.39,0.12c0.06,0.01,0.11,0.03,0.17,0.04
		c0.18,0.03,0.37,0.06,0.56,0.06c0.01,0,0.01,0,0.02,0c0,0,0,0,0,0h221.07c0.27,0,0.53-0.04,0.78-0.1c0.09-0.02,0.16-0.07,0.25-0.1
		c0.16-0.06,0.32-0.11,0.47-0.19c0.09-0.05,0.17-0.12,0.26-0.18c0.13-0.09,0.25-0.17,0.37-0.28c0.08-0.08,0.15-0.17,0.22-0.26
		c0.08-0.1,0.18-0.19,0.25-0.3l159.55-245.62V444.2c0,0.05,0.01,0.09,0.01,0.14c0,0.08,0.01,0.16,0.02,0.24
		c0.01,0.07,0.02,0.15,0.04,0.22c0.01,0.07,0.03,0.15,0.05,0.22c0.02,0.08,0.05,0.15,0.07,0.23c0.02,0.04,0.03,0.09,0.04,0.13
		c0.01,0.02,0.02,0.05,0.04,0.07c0.03,0.07,0.07,0.14,0.11,0.21c0.04,0.06,0.07,0.13,0.11,0.19c0.04,0.06,0.09,0.13,0.13,0.19
		c0.04,0.06,0.09,0.12,0.14,0.18c0.05,0.06,0.1,0.11,0.16,0.17c0.05,0.05,0.1,0.1,0.16,0.15c0.06,0.05,0.12,0.1,0.18,0.14
		c0.06,0.04,0.12,0.09,0.18,0.13c0.06,0.04,0.13,0.08,0.2,0.11c0.07,0.04,0.14,0.07,0.21,0.1c0.02,0.01,0.05,0.03,0.07,0.04
		c0.03,0.01,0.06,0.02,0.1,0.03c0.13,0.05,0.26,0.09,0.39,0.12c0.05,0.01,0.1,0.03,0.16,0.04c0.18,0.03,0.35,0.05,0.54,0.05
		c0,0,0,0,0,0v0l0,0h193.46c0,0,0,0,0,0c0,0,0,0,0,0c0,0,0,0,0,0c0.18,0,0.36-0.02,0.54-0.05c0.05-0.01,0.1-0.02,0.16-0.04
		c0.13-0.03,0.26-0.07,0.39-0.12c0.03-0.01,0.06-0.02,0.1-0.03c0.02-0.01,0.05-0.03,0.07-0.04c0.07-0.03,0.14-0.07,0.21-0.1
		c0.07-0.04,0.13-0.07,0.2-0.11c0.06-0.04,0.12-0.08,0.18-0.13c0.06-0.05,0.12-0.09,0.18-0.14c0.06-0.05,0.11-0.1,0.16-0.15
		c0.05-0.05,0.11-0.11,0.16-0.16c0.05-0.06,0.09-0.11,0.14-0.17c0.05-0.06,0.09-0.12,0.13-0.19c0.04-0.06,0.07-0.12,0.11-0.19
		c0.04-0.07,0.08-0.14,0.11-0.22c0.01-0.02,0.02-0.04,0.03-0.07c0.02-0.04,0.03-0.09,0.04-0.13c0.03-0.08,0.05-0.15,0.08-0.23
		c0.02-0.07,0.03-0.14,0.05-0.22c0.02-0.08,0.03-0.15,0.04-0.23c0.01-0.08,0.01-0.16,0.02-0.24c0-0.05,0.01-0.09,0.01-0.14V3.09
		c0-0.05-0.01-0.09-0.01-0.14C842.54,2.87,842.54,2.79,842.53,2.71z M559.8,55.99c0.14-0.23,0.27-0.46,0.41-0.69
		c0.12-0.2,0.23-0.39,0.34-0.58c0.12-0.19,0.23-0.39,0.34-0.58c0.14-0.23,0.27-0.44,0.4-0.66c0.08-0.13,0.16-0.27,0.24-0.4
		c0.21-0.34,0.41-0.68,0.6-0.99c0.29-0.48,0.45-1.04,0.45-1.61c0-24.43,19.87-44.3,44.3-44.3h225.12l-33.13,33.13h-192
		c-1.3,0-2.57,0.03-3.83,0.09c-0.18,0.01-0.35,0.03-0.52,0.03c-1.09,0.06-2.18,0.13-3.24,0.22c-0.05,0.01-0.1,0.01-0.16,0.02
		c-16.87,1.58-29.76,8.22-39.52,16.64C559.68,56.2,559.74,56.09,559.8,55.99z M601.67,45.67c0.12-0.01,0.24-0.02,0.36-0.02
		c0.64-0.04,1.28-0.07,1.93-0.09c0.18-0.01,0.35-0.02,0.53-0.02c0.79-0.02,1.59-0.04,2.4-0.04h190.19V401.8H688.41V120.87
		c0,0,0,0,0-0.01c0-0.01,0-0.02,0-0.02c0-0.18-0.02-0.37-0.05-0.54c-0.01-0.05-0.03-0.1-0.04-0.16c-0.01-0.05-0.02-0.09-0.04-0.14
		c-0.02-0.08-0.05-0.17-0.08-0.25c-0.03-0.07-0.06-0.13-0.09-0.2c-0.03-0.07-0.06-0.14-0.1-0.21c-0.01-0.01-0.01-0.02-0.01-0.03
		c-0.01-0.02-0.03-0.04-0.05-0.06c0,0,0,0,0-0.01c-0.04-0.06-0.07-0.12-0.11-0.18c-0.07-0.1-0.15-0.2-0.24-0.29
		c-0.03-0.03-0.06-0.07-0.09-0.11c-0.01-0.01-0.02-0.02-0.03-0.02c-0.12-0.12-0.25-0.22-0.39-0.32c-0.01-0.01-0.02-0.02-0.04-0.03
		c-0.04-0.03-0.09-0.05-0.13-0.07c-0.04-0.03-0.09-0.05-0.13-0.07c-0.07-0.04-0.15-0.08-0.22-0.12c-0.06-0.03-0.12-0.04-0.18-0.07
		c-0.07-0.03-0.14-0.06-0.22-0.08c-0.01,0-0.02-0.01-0.04-0.01c0,0-0.01,0-0.01,0c-0.03-0.01-0.06-0.01-0.09-0.02
		c-0.07-0.02-0.14-0.03-0.21-0.04c-0.13-0.02-0.25-0.03-0.38-0.04c-0.04,0-0.07-0.01-0.11-0.01l-7.98-0.02c-0.05,0-0.1,0-0.15,0
		c-6.38,0-12.69,0.97-18.71,2.82c-0.12,0.04-0.23,0.06-0.35,0.1c-1.01,0.32-2.01,0.66-3.01,1.03c-6.76,2.49-13.1,6.1-18.71,10.75
		l-0.28,0.23c-3.86,3.19-7.31,6.79-10.32,10.73c-1,1.31-1.96,2.66-2.86,4.05c-5.32,8.2-14.43,22.21-25.71,39.59
		c-1.26,1.94-2.55,3.93-3.87,5.96c-0.96,1.48-1.94,2.98-2.93,4.51c-1.98,3.05-4.01,6.17-6.08,9.36c-2.31,3.55-4.67,7.19-7.07,10.89
		c-2.82,4.34-5.69,8.76-8.61,13.26c-0.8,1.23-1.6,2.47-2.41,3.71c-1.8,2.78-3.62,5.58-5.45,8.39c-0.34,0.52-0.68,1.04-1.01,1.56
		c-0.82,1.26-1.64,2.52-2.46,3.79c-0.8,1.23-1.6,2.46-2.4,3.69c-0.69,1.06-1.38,2.12-2.07,3.18c-0.42,0.65-0.84,1.3-1.27,1.95
		c-3.17,4.89-6.37,9.8-9.56,14.71c-0.29,0.45-0.58,0.9-0.87,1.34c-3.29,5.06-6.57,10.12-9.84,15.14c-0.08,0.13-0.17,0.26-0.25,0.39
		c-1.44,2.21-2.87,4.41-4.29,6.61c-0.36,0.55-0.71,1.09-1.07,1.64c-3.98,6.12-7.9,12.17-11.75,18.08c-0.4,0.61-0.79,1.22-1.19,1.83
		c-7.53,11.59-14.71,22.65-21.27,32.74c-0.18,0.28-0.37,0.57-0.55,0.85c-5.78,8.9-11.06,17.03-15.66,24.1
		c-0.13,0.2-0.26,0.4-0.39,0.6c-8.77,13.5-14.95,23.02-17.18,26.45H337.8l180.18-277.39c0,0,0,0,0,0c0.09-0.14,0.17-0.29,0.24-0.45
		c0.03-0.07,0.05-0.14,0.07-0.21c0,0,0-0.01,0.01-0.01c0.02-0.04,0.03-0.09,0.05-0.13c0.01-0.04,0.03-0.08,0.04-0.12
		c0.02-0.08,0.03-0.16,0.04-0.25c0.01-0.08,0.03-0.17,0.04-0.25c0-0.03,0-0.06,0-0.09c0-0.04,0-0.08,0-0.12c0-0.02,0-0.04,0-0.06
		c0-0.08,0.01-0.16,0-0.24c-0.01-0.13-0.04-0.25-0.06-0.38c-0.01-0.03-0.01-0.06-0.01-0.08c0-0.01,0-0.03-0.01-0.04c0,0,0,0,0,0
		c-0.01-0.03-0.02-0.05-0.03-0.07c-0.04-0.14-0.08-0.28-0.14-0.41c-0.02-0.06-0.06-0.11-0.09-0.16c-0.01-0.02-0.01-0.05-0.03-0.07
		c-0.02-0.04-0.05-0.08-0.08-0.12c-0.02-0.03-0.03-0.07-0.05-0.1c-0.02-0.02-0.03-0.04-0.05-0.07c-0.06-0.09-0.13-0.17-0.2-0.25
		c-0.03-0.04-0.06-0.07-0.09-0.11c-0.11-0.11-0.22-0.22-0.34-0.31c-0.01,0-0.01-0.01-0.02-0.01c-0.02-0.02-0.05-0.03-0.08-0.05
		c-0.09-0.07-0.19-0.13-0.29-0.19c-0.02-0.01-0.04-0.02-0.06-0.03c-0.03-0.02-0.07-0.03-0.1-0.05c-0.09-0.04-0.17-0.08-0.27-0.12
		c-0.03-0.01-0.06-0.03-0.1-0.04c-0.02-0.01-0.05-0.01-0.07-0.02c-0.1-0.03-0.2-0.05-0.3-0.08c-0.04-0.01-0.08-0.02-0.12-0.03
		c-0.01,0-0.02,0-0.04,0c-0.15-0.02-0.31-0.04-0.47-0.04H386.1c-0.14,0-0.27,0.03-0.41,0.05c-0.1,0.01-0.21,0.01-0.31,0.04
		c-0.02,0.01-0.04,0.01-0.07,0.01c-0.08,0.02-0.16,0.07-0.24,0.1c-0.06,0.02-0.11,0.04-0.17,0.07c-0.08,0.03-0.17,0.06-0.25,0.1
		c-0.02,0.01-0.04,0.02-0.06,0.03c-0.09,0.05-0.17,0.12-0.25,0.18c-0.05,0.03-0.1,0.07-0.14,0.1c-0.06,0.05-0.13,0.08-0.18,0.13
		c-0.02,0.01-0.03,0.03-0.04,0.05c-0.08,0.08-0.15,0.17-0.22,0.26c-0.08,0.1-0.18,0.19-0.25,0.3L201.14,401.8H81.18L305.71,56.13
		c4.3-6.62,11.56-10.56,19.44-10.56c0.05,0,0.09,0,0.14,0l2.05,0.01l204.27,1.21v56.18v0.1c0,0.05,0.01,0.09,0.01,0.14
		c0,0.11,0.02,0.21,0.03,0.31c0.01,0.09,0.03,0.19,0.05,0.28c0.02,0.1,0.05,0.19,0.08,0.28c0.03,0.09,0.06,0.18,0.1,0.27
		c0.04,0.09,0.08,0.17,0.13,0.25c0.05,0.09,0.1,0.17,0.16,0.25c0.05,0.07,0.11,0.15,0.17,0.22c0.06,0.08,0.13,0.15,0.2,0.22
		c0.06,0.06,0.13,0.12,0.2,0.18c0.08,0.06,0.16,0.13,0.24,0.18c0.07,0.05,0.15,0.09,0.23,0.13c0.09,0.05,0.19,0.1,0.29,0.14
		c0.08,0.03,0.16,0.06,0.24,0.09c0.11,0.03,0.22,0.06,0.33,0.09c0.04,0.01,0.07,0.02,0.11,0.03c0.06,0.01,0.13,0.01,0.19,0.02
		c0.05,0.01,0.1,0.02,0.16,0.02c0.06,0,0.11,0,0.16,0c0.04,0,0.08-0.01,0.11-0.01c0.15-0.01,0.29-0.02,0.43-0.04
		c0.08-0.01,0.16-0.04,0.24-0.06c0.09-0.02,0.19-0.05,0.28-0.08c0.08-0.03,0.16-0.07,0.24-0.11c0.08-0.04,0.16-0.07,0.24-0.12
		c0.08-0.04,0.15-0.1,0.22-0.15c0.07-0.05,0.15-0.1,0.22-0.16c0.07-0.06,0.13-0.12,0.19-0.18c0.07-0.07,0.13-0.13,0.19-0.2
		c0.06-0.07,0.11-0.13,0.16-0.2c0.05-0.08,0.1-0.16,0.15-0.24c0.04-0.07,0.08-0.15,0.12-0.23c0.04-0.09,0.08-0.18,0.11-0.27
		c0.03-0.08,0.06-0.16,0.08-0.25c0.01-0.04,0.03-0.07,0.03-0.11c0.02-0.11,1.97-8.41,7.28-18.67c0.03-0.06,0.06-0.11,0.09-0.17
		c0.17-0.32,0.33-0.64,0.51-0.96c0.13-0.24,0.25-0.47,0.38-0.71c0.08-0.14,0.16-0.28,0.24-0.43
		C554.98,67.01,571.73,47.69,601.67,45.67z M556.4,49.62c-0.1,0.16-0.22,0.36-0.34,0.57c-0.01,0.01-0.02,0.03-0.02,0.04
		c-0.26,0.43-0.56,0.94-0.92,1.54c-0.04,0.07-0.08,0.14-0.13,0.22c-0.16,0.27-0.32,0.54-0.49,0.84c-0.02,0.04-0.04,0.07-0.07,0.11
		c-0.19,0.32-0.39,0.66-0.59,1.01c-0.06,0.1-0.12,0.2-0.18,0.31c-0.18,0.31-0.37,0.63-0.56,0.97c-0.04,0.07-0.08,0.14-0.12,0.21
		c-0.23,0.39-0.46,0.79-0.7,1.21c-0.07,0.11-0.13,0.23-0.2,0.35c-0.2,0.36-0.41,0.72-0.63,1.1c-0.05,0.1-0.11,0.19-0.16,0.29
		c-0.25,0.44-0.51,0.89-0.77,1.35c-0.08,0.14-0.16,0.28-0.24,0.43c-0.22,0.4-0.45,0.8-0.68,1.21c-0.06,0.11-0.12,0.21-0.18,0.32
		c-0.28,0.49-0.56,1-0.84,1.51c-0.08,0.14-0.16,0.28-0.23,0.43c-0.24,0.44-0.49,0.88-0.73,1.33c-0.06,0.11-0.12,0.23-0.19,0.34
		c-0.29,0.54-0.59,1.08-0.89,1.63c-0.08,0.14-0.16,0.29-0.23,0.44c-0.25,0.47-0.51,0.95-0.76,1.43c-0.06,0.12-0.13,0.24-0.19,0.36
		c-0.3,0.57-0.61,1.14-0.91,1.72c-0.08,0.15-0.15,0.3-0.23,0.44c-0.25,0.49-0.51,0.97-0.76,1.47c-0.07,0.13-0.14,0.26-0.2,0.39
		c-0.3,0.59-0.61,1.18-0.91,1.78c-0.07,0.14-0.14,0.28-0.21,0.42c-0.26,0.51-0.51,1.01-0.76,1.52c-0.07,0.13-0.13,0.27-0.2,0.4
		c-0.3,0.6-0.59,1.21-0.89,1.81c-0.06,0.13-0.12,0.26-0.19,0.39c-0.25,0.52-0.5,1.04-0.75,1.56c-0.06,0.13-0.12,0.26-0.18,0.38
		c-0.29,0.61-0.57,1.21-0.85,1.81c-0.05,0.12-0.11,0.24-0.16,0.35c-0.12,0.27-0.25,0.54-0.37,0.81V44.59l8.24-13.5l10.37-17V49.62z
		 M279.4,24.47c7.44-11.45,20.04-18.29,33.69-18.29h240.89l-9.22,15.11l-11.79,19.33l-205.08-1.21l-2.55-0.02c0,0-0.01,0-0.01,0
		c-0.05,0-0.11,0-0.16,0c0,0,0,0,0,0c-9.98,0-19.18,4.99-24.63,13.37L73.32,402.55l-41.07,22.3L12.3,435.68L279.4,24.47z
		 M15.25,441.11l1.73-0.94l59.29-32.19h124.71l17.98,33.13H15.25z M224.4,438.16l-17.98-33.13l179.45-276.27l17.98,33.13
		L224.4,438.16z M409.28,158.95l-17.98-33.13h111.92l-61.02,33.13H409.28z M445.15,164.38l61.02-33.13L385.12,317.61l-55.17,84.94
		l-44.67,24.25l-16.35,8.88L445.15,164.38z M271.87,441.11l1.32-0.72l59.7-32.41H457.6l17.98,33.13H271.87z M643.37,188.22
		L481.02,438.16l-17.98-33.13c4.36-6.72,22.51-34.65,45.43-69.94c0.1-0.15,0.19-0.29,0.29-0.44c0.88-1.36,1.77-2.73,2.67-4.11
		c0.58-0.9,1.17-1.79,1.75-2.7c3.7-5.7,7.51-11.56,11.38-17.52c0.83-1.28,1.67-2.57,2.51-3.86c1.11-1.71,2.23-3.44,3.35-5.17
		c1.36-2.09,2.72-4.19,4.09-6.3c0.62-0.96,1.25-1.92,1.87-2.88c37.4-57.58,77.72-119.66,91.76-141.28c1.77-2.73,3.78-5.31,5.98-7.71
		c1.85-2.02,3.83-3.92,5.95-5.67l0.28-0.23c0.65-0.54,1.3-1.06,1.97-1.56c9.82-7.44,21.84-11.55,34.18-11.7
		c0.28,0,0.55-0.02,0.83-0.02h0.01l2.66,0.01L643.37,188.22z M649.1,190.65l33.13-58.12v271.08l-33.13,33.13V190.65z M653.47,441.11
		l8.28-8.28l24.85-24.85h112.28l32.51,32.51l0.62,0.62H653.47z M836.38,436.74l-33.13-33.13V43.68l33.13-33.13V436.74z"/>
	<path d="M1941.05,155.02c-0.01-0.08-0.02-0.15-0.04-0.23c-0.01-0.07-0.03-0.14-0.05-0.22c-0.02-0.08-0.05-0.15-0.08-0.23
		c-0.02-0.04-0.03-0.09-0.04-0.13c-0.01-0.02-0.02-0.04-0.03-0.07c-0.03-0.07-0.07-0.15-0.11-0.22c-0.03-0.06-0.07-0.13-0.11-0.19
		c-0.04-0.07-0.09-0.13-0.13-0.19c-0.04-0.06-0.09-0.12-0.13-0.17c-0.05-0.06-0.1-0.11-0.16-0.17c-0.05-0.05-0.1-0.1-0.16-0.15
		c-0.06-0.05-0.12-0.1-0.18-0.14c-0.06-0.04-0.12-0.09-0.18-0.13c-0.06-0.04-0.13-0.08-0.2-0.11c-0.07-0.04-0.14-0.07-0.21-0.1
		c-0.02-0.01-0.05-0.03-0.07-0.04c-0.05-0.02-0.09-0.03-0.14-0.05c-0.07-0.03-0.15-0.05-0.22-0.07c-0.07-0.02-0.15-0.04-0.22-0.05
		c-0.07-0.01-0.15-0.03-0.22-0.04c-0.08-0.01-0.16-0.01-0.24-0.02c-0.05,0-0.09-0.01-0.14-0.01h-216.18c-0.01,0-0.02,0-0.04,0
		c-0.53,0-1.04,0.14-1.49,0.4c0,0,0,0,0,0c-0.22,0.13-0.43,0.28-0.61,0.46c-0.02,0.01-0.03,0.03-0.04,0.05
		c-0.15,0.15-0.29,0.31-0.41,0.5l-84.56,130.19v0c-0.09,0.14-0.17,0.29-0.24,0.45c-0.03,0.07-0.05,0.15-0.08,0.22
		c-0.03,0.09-0.07,0.17-0.09,0.26c-0.02,0.09-0.03,0.17-0.04,0.26c-0.01,0.08-0.03,0.16-0.04,0.24c-0.01,0.1,0,0.19,0,0.29
		c0,0.07-0.01,0.14,0,0.21c0.01,0.17,0.04,0.34,0.08,0.51c0,0,0,0,0,0c0,0.01,0.01,0.02,0.01,0.04c0.04,0.15,0.09,0.3,0.15,0.45
		c0.03,0.08,0.08,0.15,0.12,0.23c0.04,0.07,0.07,0.15,0.12,0.22c0.09,0.14,0.19,0.26,0.3,0.38c0.01,0.01,0.01,0.02,0.02,0.02
		c0,0,0,0,0,0c0.13,0.14,0.28,0.27,0.44,0.39c0.05,0.04,0.1,0.07,0.16,0.1c0.11,0.07,0.23,0.14,0.35,0.2
		c0.06,0.03,0.12,0.06,0.18,0.08c0.13,0.05,0.26,0.09,0.39,0.12c0.06,0.01,0.11,0.03,0.17,0.04c0.18,0.03,0.37,0.06,0.56,0.06
		c0.01,0,0.01,0,0.02,0c0,0,0,0,0,0h104.19v13.91h-134.78v-94.32l46.7-71.9h260.69c0,0,0,0,0,0c0,0,0,0,0,0c0,0,0,0,0,0
		c0.18,0,0.36-0.02,0.54-0.05c0.05-0.01,0.1-0.02,0.16-0.04c0.13-0.03,0.26-0.07,0.39-0.12c0.03-0.01,0.06-0.02,0.1-0.03
		c0.02-0.01,0.05-0.03,0.07-0.04c0.07-0.03,0.14-0.07,0.21-0.1c0.07-0.04,0.13-0.07,0.2-0.11c0.06-0.04,0.12-0.08,0.18-0.13
		c0.06-0.05,0.12-0.09,0.18-0.14c0.06-0.05,0.11-0.1,0.16-0.15c0.05-0.05,0.11-0.11,0.16-0.17c0.05-0.06,0.09-0.11,0.13-0.17
		c0.05-0.06,0.09-0.12,0.13-0.19c0.04-0.06,0.07-0.12,0.11-0.19c0.04-0.07,0.08-0.14,0.11-0.22c0.01-0.02,0.02-0.04,0.03-0.07
		c0.02-0.04,0.03-0.09,0.04-0.13c0.03-0.08,0.05-0.15,0.08-0.23c0.02-0.07,0.03-0.14,0.05-0.22c0.02-0.08,0.03-0.15,0.04-0.23
		c0.01-0.08,0.01-0.16,0.02-0.23c0-0.05,0.01-0.09,0.01-0.14V3.09c0-0.05-0.01-0.09-0.01-0.14c0-0.08-0.01-0.16-0.02-0.23
		c-0.01-0.08-0.02-0.15-0.04-0.23c-0.01-0.07-0.03-0.14-0.05-0.22c-0.02-0.08-0.05-0.15-0.08-0.23c-0.02-0.04-0.03-0.09-0.04-0.13
		c-0.01-0.02-0.02-0.04-0.03-0.07c-0.03-0.07-0.07-0.15-0.11-0.22c-0.03-0.06-0.07-0.13-0.11-0.19c-0.04-0.07-0.09-0.13-0.13-0.19
		c-0.04-0.06-0.09-0.12-0.14-0.17c-0.05-0.06-0.1-0.11-0.16-0.17c-0.05-0.05-0.1-0.1-0.16-0.15c-0.06-0.05-0.12-0.09-0.18-0.14
		c-0.06-0.04-0.12-0.09-0.18-0.13c-0.06-0.04-0.13-0.08-0.2-0.11c-0.07-0.04-0.14-0.07-0.21-0.1c-0.02-0.01-0.05-0.03-0.07-0.04
		c-0.04-0.02-0.09-0.03-0.14-0.05c-0.07-0.03-0.15-0.05-0.22-0.07c-0.07-0.02-0.15-0.04-0.22-0.05c-0.07-0.01-0.15-0.03-0.22-0.04
		c-0.08-0.01-0.16-0.01-0.24-0.02c-0.05,0-0.09-0.01-0.14-0.01h-375.39c-15.76,0-30.29,7.89-38.88,21.11l-92.26,142.04
		c-0.03,0.05-0.05,0.1-0.07,0.15c-0.06,0.11-0.11,0.21-0.16,0.33c-0.05,0.11-0.09,0.22-0.12,0.33c-0.03,0.11-0.06,0.23-0.08,0.35
		c-0.02,0.12-0.04,0.24-0.04,0.36c0,0.06-0.02,0.11-0.02,0.17V444.2c0,0.05,0.01,0.09,0.01,0.14c0,0.08,0.01,0.16,0.02,0.24
		c0.01,0.06,0.02,0.12,0.03,0.18c0.01,0.04,0.01,0.08,0.02,0.12c0.01,0.05,0.02,0.1,0.04,0.15c0.02,0.08,0.05,0.15,0.08,0.23
		c0.02,0.04,0.03,0.09,0.04,0.13c0,0,0,0,0,0.01c0.01,0.02,0.02,0.04,0.03,0.07c0.03,0.07,0.07,0.14,0.11,0.21
		c0.03,0.06,0.07,0.13,0.11,0.19c0.01,0.02,0.02,0.05,0.04,0.07c0.01,0.01,0.02,0.02,0.03,0.04c0.02,0.03,0.04,0.06,0.06,0.08
		c0.04,0.06,0.09,0.12,0.14,0.17c0.04,0.04,0.07,0.08,0.11,0.12c0.03,0.03,0.06,0.06,0.09,0.09c0.04,0.04,0.08,0.07,0.12,0.11
		c0.06,0.05,0.12,0.09,0.18,0.14c0.03,0.02,0.05,0.04,0.08,0.06c0.01,0.01,0.02,0.02,0.04,0.03c0.02,0.01,0.04,0.02,0.07,0.04
		c0.06,0.04,0.13,0.07,0.19,0.11c0.07,0.04,0.14,0.07,0.21,0.1c0.02,0.01,0.04,0.02,0.06,0.03c0,0,0.01,0,0.01,0
		c0.03,0.01,0.06,0.02,0.1,0.03c0.12,0.04,0.24,0.08,0.36,0.11c0.04,0.01,0.08,0.03,0.12,0.03c0.02,0,0.05,0.01,0.07,0.01
		c0.17,0.03,0.34,0.05,0.51,0.05c0.01,0,0.02,0,0.02,0c0,0,0,0,0,0h527.87c0,0,0,0,0.01,0c0.01,0,0.02,0,0.02,0
		c0.17,0,0.35-0.02,0.51-0.05c0.02,0,0.05,0,0.07-0.01c0.04-0.01,0.08-0.02,0.12-0.03c0.12-0.03,0.24-0.07,0.36-0.11
		c0.03-0.01,0.06-0.02,0.09-0.03c0,0,0.01,0,0.01,0c0.02-0.01,0.04-0.02,0.06-0.03c0.07-0.03,0.14-0.07,0.21-0.11
		c0.06-0.03,0.13-0.07,0.19-0.11c0.02-0.01,0.05-0.02,0.07-0.04c0.01-0.01,0.02-0.02,0.04-0.03c0.03-0.02,0.05-0.04,0.08-0.06
		c0.06-0.04,0.12-0.09,0.18-0.14c0.04-0.04,0.08-0.07,0.12-0.11c0.03-0.03,0.06-0.06,0.09-0.09c0.04-0.04,0.08-0.08,0.11-0.12
		c0.05-0.06,0.09-0.12,0.14-0.18c0.02-0.03,0.04-0.05,0.06-0.08c0.01-0.01,0.02-0.02,0.03-0.04c0.01-0.02,0.03-0.05,0.04-0.07
		c0.04-0.06,0.07-0.12,0.11-0.19c0.04-0.07,0.07-0.14,0.11-0.21c0.01-0.02,0.02-0.04,0.03-0.07c0,0,0,0,0-0.01
		c0.02-0.04,0.03-0.09,0.04-0.13c0.03-0.08,0.05-0.15,0.08-0.23c0.01-0.05,0.03-0.1,0.04-0.15c0.01-0.04,0.02-0.08,0.02-0.12
		c0.01-0.06,0.02-0.12,0.03-0.18c0.01-0.08,0.01-0.16,0.02-0.24c0-0.05,0.01-0.09,0.01-0.14V155.39c0-0.05-0.01-0.09-0.01-0.14
		C1941.07,155.17,1941.06,155.09,1941.05,155.02z M1930.53,158.48l-33.13,33.13h-152.41l-17.98-33.13H1930.53z M1561.96,317.27
		c3.6,17.55,19.17,30.8,37.77,30.8h184.11c0,0,0,0,0,0s0,0,0,0c0.01,0,0.02,0,0.02,0c0.17,0,0.35-0.02,0.51-0.05
		c0.02,0,0.05,0,0.07-0.01c0.04-0.01,0.08-0.02,0.12-0.04c0.12-0.03,0.24-0.07,0.36-0.11c0.03-0.01,0.06-0.02,0.09-0.03
		c0,0,0,0,0.01,0c0.02-0.01,0.05-0.02,0.07-0.04c0.07-0.03,0.14-0.07,0.2-0.1c0.07-0.04,0.13-0.07,0.19-0.11
		c0.02-0.01,0.04-0.02,0.06-0.04c0.02-0.01,0.03-0.03,0.05-0.04c0.02-0.02,0.05-0.04,0.07-0.05c0.06-0.04,0.12-0.09,0.18-0.14
		c0.04-0.03,0.08-0.07,0.12-0.11c0.03-0.03,0.06-0.06,0.09-0.09c0.04-0.04,0.07-0.08,0.11-0.12c0.05-0.06,0.09-0.12,0.14-0.18
		c0.02-0.03,0.04-0.05,0.06-0.07c0.01-0.02,0.03-0.03,0.04-0.05c0.01-0.02,0.02-0.04,0.04-0.07c0.04-0.06,0.07-0.12,0.11-0.19
		c0.04-0.07,0.07-0.14,0.11-0.21c0.01-0.02,0.02-0.05,0.03-0.07c0,0,0,0,0-0.01c0.02-0.04,0.03-0.09,0.04-0.13
		c0.03-0.08,0.05-0.15,0.08-0.23c0.01-0.05,0.03-0.1,0.04-0.14c0.01-0.04,0.02-0.08,0.02-0.12c0.01-0.06,0.02-0.12,0.03-0.18
		c0.01-0.08,0.01-0.16,0.02-0.23c0-0.05,0.01-0.09,0.01-0.14c0,0,0,0,0,0v0v-98.71c0-0.05-0.01-0.09-0.01-0.14
		c0-0.08-0.01-0.16-0.02-0.23c-0.01-0.06-0.02-0.12-0.03-0.18c-0.01-0.04-0.01-0.08-0.02-0.12c-0.01-0.05-0.02-0.1-0.04-0.15
		c-0.02-0.08-0.05-0.15-0.08-0.23c-0.02-0.04-0.03-0.09-0.04-0.13c0,0,0,0,0-0.01c-0.01-0.02-0.02-0.04-0.03-0.07
		c-0.03-0.07-0.07-0.14-0.11-0.21c-0.03-0.06-0.07-0.13-0.11-0.19c-0.01-0.02-0.02-0.05-0.04-0.07c-0.01-0.01-0.02-0.02-0.03-0.04
		c-0.02-0.03-0.04-0.06-0.07-0.08c-0.04-0.06-0.09-0.12-0.13-0.17c-0.04-0.04-0.07-0.08-0.11-0.12c-0.03-0.03-0.06-0.06-0.09-0.09
		c-0.04-0.04-0.08-0.07-0.12-0.11c-0.06-0.05-0.12-0.1-0.18-0.14c-0.03-0.02-0.05-0.04-0.08-0.06c-0.01-0.01-0.03-0.02-0.04-0.03
		c-0.02-0.01-0.04-0.02-0.06-0.04c-0.06-0.04-0.13-0.08-0.2-0.11c-0.07-0.04-0.13-0.07-0.2-0.1c-0.02-0.01-0.04-0.02-0.07-0.03
		c0,0-0.01,0-0.01,0c-0.05-0.02-0.09-0.03-0.14-0.05c-0.07-0.03-0.15-0.05-0.22-0.07c-0.05-0.01-0.1-0.03-0.15-0.04
		c-0.04-0.01-0.08-0.02-0.12-0.02c-0.06-0.01-0.12-0.02-0.18-0.03c-0.08-0.01-0.16-0.01-0.24-0.02c-0.05,0-0.09-0.01-0.14-0.01
		h-68.5l29.48-45.39h150.76V401.8h-443.08V177.39l78.82-121.34c4.29-6.61,11.56-10.56,19.45-10.56h320.88v45.39h-227.04
		c-0.62,0-1.24,0.02-1.86,0.06c-9.26,0.58-17.67,5.46-22.77,13.31l-58.31,89.77c-0.05,0.08-0.09,0.16-0.13,0.23
		c-0.02,0.03-0.04,0.06-0.05,0.1c-0.04,0.08-0.07,0.16-0.1,0.24c-0.02,0.04-0.03,0.08-0.05,0.12c-0.02,0.07-0.04,0.14-0.06,0.21
		c-0.01,0.04-0.02,0.09-0.03,0.13c-0.02,0.09-0.04,0.17-0.05,0.26c0,0.04,0,0.07-0.01,0.11c-0.01,0.09-0.02,0.18-0.02,0.27v113.81
		C1561.18,312.17,1561.45,314.76,1561.96,317.27z M1780.75,337.52l-33.13-33.13v-17.53l33.13-33.13V337.52z M1721.57,161.43
		l17.98,33.13l-32.07,49.37l-61.02,33.13L1721.57,161.43z M1649.42,282.49l61.02-33.13h65.94l-4.91,4.91l-28.22,28.22H1649.42z
		 M1743.25,308.76l28.22,28.22l4.91,4.91h-176.65c-17.29,0-31.47-13.63-32.33-30.71c-0.03-0.55-0.04-1.11-0.04-1.66V199.84
		l33.13,9.81v96.01c0,1.71,1.38,3.09,3.09,3.09H1743.25z M1651.69,130.19c-1.05,0-2.02,0.53-2.59,1.41l-46.86,72.14l-33.13-9.81
		l56.06-86.3c4.29-6.61,11.56-10.56,19.45-10.56h228.85l31.05,31.05l2.08,2.08H1651.69z M1910.96,125.82l-33.13-33.13V43.68
		l28.22-28.22l4.91-4.91V125.82z M1504.97,24.47c7.44-11.45,20.04-18.29,33.69-18.29h367.93l-33.13,33.13h-322.68
		c-9.98,0-19.19,5-24.63,13.37l-78.06,120.17l-33.13-9.81L1504.97,24.47z M1413.21,168.96l33.13,9.81v224.83l-33.13,33.13V168.96z
		 M1417.58,441.11l1.83-1.83l31.3-31.29h446.7l29.45,29.45l3.68,3.68H1417.58z M1934.9,436.74l-33.13-33.13V195.98l33.13-33.13
		V436.74z"/>
	<path d="M2664.82,147.81c-0.01-0.08-0.02-0.15-0.04-0.23c-0.01-0.07-0.03-0.14-0.05-0.22c-0.02-0.08-0.05-0.16-0.08-0.23
		c-0.02-0.04-0.02-0.09-0.04-0.13c-0.01-0.02-0.02-0.04-0.03-0.07c-0.03-0.07-0.07-0.15-0.11-0.22c-0.03-0.06-0.07-0.13-0.11-0.19
		c-0.04-0.07-0.09-0.13-0.14-0.19c-0.04-0.06-0.09-0.12-0.13-0.17c-0.05-0.06-0.1-0.11-0.16-0.17c-0.05-0.05-0.1-0.1-0.16-0.15
		c-0.06-0.05-0.12-0.09-0.18-0.14c-0.06-0.04-0.12-0.09-0.18-0.13c-0.06-0.04-0.13-0.08-0.2-0.11c-0.07-0.04-0.14-0.07-0.21-0.1
		c-0.02-0.01-0.05-0.03-0.07-0.04c-0.05-0.02-0.09-0.03-0.14-0.05c-0.07-0.03-0.15-0.05-0.22-0.07c-0.08-0.02-0.15-0.04-0.23-0.05
		c-0.07-0.01-0.14-0.03-0.22-0.04c-0.08-0.01-0.16-0.01-0.24-0.02c-0.05,0-0.09-0.01-0.14-0.01h-175.81c-0.05,0-0.09,0.01-0.14,0.01
		c-0.08,0-0.16,0.01-0.25,0.02c-0.07,0.01-0.14,0.02-0.22,0.04c-0.08,0.01-0.15,0.03-0.23,0.05c-0.07,0.02-0.15,0.05-0.22,0.07
		c-0.05,0.02-0.09,0.03-0.14,0.05c-0.03,0.01-0.05,0.03-0.07,0.04c-0.07,0.03-0.14,0.07-0.2,0.1s-0.13,0.07-0.2,0.11
		c-0.06,0.04-0.12,0.08-0.18,0.13c-0.06,0.05-0.12,0.09-0.18,0.14c-0.05,0.05-0.11,0.1-0.16,0.15c-0.05,0.05-0.11,0.11-0.16,0.17
		c-0.05,0.05-0.09,0.11-0.13,0.17c-0.05,0.06-0.09,0.12-0.14,0.19c-0.04,0.06-0.07,0.12-0.11,0.19c-0.04,0.07-0.08,0.14-0.11,0.22
		c-0.01,0.02-0.02,0.04-0.03,0.07c-0.02,0.04-0.03,0.09-0.04,0.13c-0.03,0.08-0.05,0.15-0.08,0.23c-0.02,0.07-0.03,0.14-0.05,0.22
		c-0.02,0.08-0.03,0.15-0.04,0.23c-0.01,0.08-0.01,0.16-0.02,0.23c0,0.05-0.01,0.09-0.01,0.14v137.4c0,0.05,0.01,0.09,0.01,0.14
		c0,0.08,0.01,0.16,0.02,0.24c0.01,0.08,0.02,0.15,0.04,0.23c0.01,0.07,0.03,0.14,0.05,0.22c0.02,0.08,0.05,0.15,0.08,0.23
		c0.02,0.04,0.03,0.09,0.04,0.13c0.01,0.02,0.02,0.04,0.03,0.07c0.03,0.07,0.07,0.15,0.11,0.22c0.03,0.06,0.07,0.13,0.11,0.19
		c0.04,0.07,0.09,0.13,0.13,0.19c0.04,0.06,0.09,0.12,0.13,0.17c0.05,0.06,0.11,0.11,0.16,0.17c0.05,0.05,0.1,0.1,0.16,0.15
		c0.06,0.05,0.12,0.1,0.18,0.14c0.06,0.04,0.12,0.09,0.18,0.13c0.06,0.04,0.13,0.08,0.2,0.11c0.07,0.04,0.14,0.07,0.21,0.1
		c0.02,0.01,0.05,0.03,0.07,0.04c0.03,0.01,0.06,0.02,0.1,0.03c0.13,0.05,0.25,0.09,0.39,0.12c0.05,0.01,0.11,0.03,0.16,0.04
		c0.17,0.03,0.34,0.05,0.51,0.05c0.01,0,0.02,0,0.02,0c0,0,0,0,0,0h175.8c0,0,0,0,0.01,0c0.01,0,0.02,0,0.02,0
		c0.17,0,0.35-0.02,0.51-0.05c0.05-0.01,0.11-0.02,0.16-0.04c0.13-0.03,0.26-0.07,0.39-0.12c0.03-0.01,0.06-0.02,0.1-0.03
		c0.02-0.01,0.05-0.03,0.07-0.04c0.07-0.03,0.14-0.07,0.21-0.1c0.07-0.04,0.13-0.07,0.2-0.11c0.06-0.04,0.12-0.08,0.18-0.13
		c0.06-0.05,0.12-0.09,0.18-0.14c0.06-0.05,0.11-0.1,0.16-0.15c0.05-0.05,0.11-0.11,0.16-0.17c0.05-0.06,0.09-0.11,0.13-0.17
		c0.05-0.06,0.09-0.12,0.13-0.19c0.04-0.06,0.07-0.12,0.11-0.19c0.04-0.07,0.08-0.14,0.11-0.22c0.01-0.02,0.02-0.04,0.03-0.07
		c0.02-0.04,0.03-0.09,0.04-0.13c0.03-0.08,0.05-0.15,0.08-0.23c0.02-0.07,0.03-0.14,0.05-0.22c0.02-0.08,0.03-0.15,0.04-0.23
		c0.01-0.08,0.01-0.16,0.02-0.23c0-0.05,0.01-0.09,0.01-0.14v-137.4c0-0.05-0.01-0.09-0.01-0.14
		C2664.83,147.96,2664.83,147.88,2664.82,147.81z M2654.29,151.27l-3.84,3.84l-29.29,29.29h-94.64l-29.45-29.45l-3.68-3.68H2654.29z
		 M2619.36,190.58v52.6h-91.02v-52.6H2619.36z M2489.03,155.64l33.13,33.13v56.22l-33.13,33.13V155.64z M2493.4,282.49l6.63-6.63
		l26.5-26.5h94.64l29.29,29.29l3.84,3.84H2493.4z M2658.66,278.12l-33.13-33.13v-56.22l33.13-33.13V278.12z"/>
	<path d="M3236.11,2.71c-0.01-0.07-0.02-0.14-0.04-0.22c-0.01-0.08-0.03-0.15-0.05-0.23c-0.02-0.07-0.05-0.15-0.07-0.22
		c-0.02-0.05-0.03-0.09-0.05-0.14c-0.01-0.03-0.03-0.05-0.04-0.07c-0.03-0.07-0.07-0.14-0.1-0.21c-0.04-0.07-0.07-0.13-0.11-0.2
		c-0.04-0.06-0.08-0.12-0.13-0.18c-0.05-0.06-0.09-0.12-0.14-0.18c-0.05-0.06-0.1-0.11-0.15-0.16c-0.05-0.05-0.1-0.11-0.16-0.15
		c-0.06-0.05-0.12-0.09-0.18-0.14c-0.06-0.04-0.12-0.09-0.18-0.13c-0.06-0.04-0.13-0.08-0.2-0.11c-0.07-0.04-0.14-0.07-0.21-0.1
		c-0.02-0.01-0.05-0.03-0.07-0.04c-0.05-0.02-0.09-0.03-0.14-0.05c-0.07-0.03-0.15-0.05-0.22-0.07c-0.08-0.02-0.15-0.04-0.23-0.05
		c-0.07-0.01-0.14-0.03-0.22-0.04c-0.08-0.01-0.16-0.01-0.24-0.02c-0.05,0-0.09-0.01-0.14-0.01h-387.78
		c-15.76,0-30.29,7.89-38.88,21.11l-114.05,175.59c-9.96,15.34-9.96,35.17,0,50.51l116.26,178.98
		c8.58,13.22,23.12,21.11,38.88,21.11h385.58c0,0,0,0,0,0c0,0,0,0,0,0c0,0,0,0,0,0c0.18,0,0.36-0.02,0.54-0.05
		c0.05-0.01,0.1-0.02,0.15-0.04c0.13-0.03,0.26-0.07,0.39-0.12c0.03-0.01,0.06-0.02,0.1-0.03c0.02-0.01,0.05-0.03,0.07-0.04
		c0.07-0.03,0.14-0.07,0.21-0.1c0.07-0.04,0.13-0.07,0.2-0.11c0.06-0.04,0.12-0.08,0.18-0.13c0.06-0.05,0.12-0.09,0.18-0.14
		c0.06-0.05,0.11-0.1,0.16-0.15s0.11-0.11,0.15-0.16c0.05-0.06,0.09-0.12,0.14-0.18c0.04-0.06,0.09-0.12,0.13-0.18
		c0.04-0.06,0.08-0.13,0.11-0.2c0.04-0.07,0.07-0.14,0.1-0.21c0.01-0.02,0.03-0.05,0.04-0.07c0.02-0.05,0.03-0.09,0.05-0.14
		c0.03-0.07,0.05-0.14,0.07-0.22c0.02-0.08,0.04-0.15,0.05-0.23c0.01-0.07,0.03-0.14,0.04-0.22c0.01-0.08,0.01-0.16,0.02-0.25
		c0-0.05,0.01-0.09,0.01-0.14V305.67c0-0.05-0.01-0.09-0.01-0.14c0-0.08-0.01-0.16-0.02-0.25c-0.01-0.07-0.02-0.14-0.04-0.22
		c-0.01-0.08-0.03-0.15-0.05-0.23c-0.02-0.07-0.05-0.15-0.07-0.22c-0.02-0.05-0.03-0.09-0.05-0.14c-0.01-0.02-0.03-0.05-0.04-0.07
		c-0.03-0.07-0.07-0.14-0.1-0.21c-0.04-0.07-0.07-0.13-0.11-0.2c-0.04-0.06-0.08-0.12-0.13-0.18c-0.05-0.06-0.09-0.12-0.14-0.18
		c-0.05-0.06-0.1-0.11-0.15-0.16c-0.05-0.05-0.11-0.11-0.17-0.16c-0.06-0.05-0.12-0.09-0.18-0.14c-0.06-0.05-0.12-0.09-0.19-0.13
		c-0.06-0.04-0.13-0.07-0.19-0.11c-0.07-0.04-0.14-0.07-0.21-0.11c-0.02-0.01-0.05-0.03-0.07-0.04c-0.04-0.02-0.09-0.03-0.14-0.04
		c-0.07-0.03-0.15-0.05-0.22-0.07c-0.07-0.02-0.15-0.04-0.22-0.05c-0.07-0.01-0.15-0.03-0.22-0.04c-0.08-0.01-0.16-0.01-0.24-0.02
		c-0.05,0-0.09-0.01-0.14-0.01h-250.62l-47.76-73.52c-2.81-4.32-2.81-9.9,0-14.22l50.97-78.47h247.4c0,0,0,0,0.01,0
		c0.01,0,0.02,0,0.02,0c0.18,0,0.35-0.02,0.52-0.05c0.05-0.01,0.11-0.02,0.16-0.04c0.13-0.03,0.26-0.07,0.39-0.12
		c0.03-0.01,0.06-0.02,0.1-0.03c0.02-0.01,0.05-0.02,0.07-0.04c0.07-0.03,0.14-0.07,0.21-0.11c0.07-0.04,0.13-0.07,0.19-0.11
		c0.06-0.04,0.12-0.09,0.19-0.13c0.06-0.04,0.12-0.09,0.18-0.14c0.06-0.05,0.11-0.1,0.17-0.16c0.05-0.05,0.1-0.1,0.15-0.16
		c0.05-0.06,0.1-0.12,0.14-0.18c0.04-0.06,0.09-0.12,0.13-0.18c0.04-0.06,0.08-0.13,0.11-0.2c0.04-0.07,0.07-0.14,0.1-0.21
		c0.01-0.02,0.03-0.05,0.04-0.07c0.02-0.05,0.03-0.09,0.05-0.14c0.03-0.07,0.05-0.14,0.07-0.22c0.02-0.08,0.04-0.15,0.05-0.23
		c0.01-0.07,0.03-0.14,0.04-0.22c0.01-0.08,0.01-0.16,0.02-0.25c0-0.05,0.01-0.09,0.01-0.14V3.09c0-0.05-0.01-0.09-0.01-0.14
		C3236.13,2.87,3236.12,2.79,3236.11,2.71z M2847.48,441.11c-13.66,0-26.25-6.84-33.69-18.29l-116.26-178.98
		c-8.64-13.3-8.64-30.48,0-43.77l114.05-175.59c7.44-11.45,20.04-18.29,33.7-18.29h380.32l-33.13,33.13h-335.08
		c-9.98,0-19.19,5-24.63,13.37l-99.56,153.27c-6.31,9.72-6.31,22.28,0,32l101.76,156.67c5.44,8.37,14.65,13.37,24.63,13.37h332.87
		l29.45,29.45l3.68,3.68H2847.48z M2886.21,237.95l62.85,96.75c5.44,8.37,14.64,13.37,24.63,13.37h216.97v53.74h-331.06
		c-0.99,0-1.96-0.06-2.92-0.18c-6.73-0.85-12.77-4.59-16.52-10.37l-101.76-156.67c-4.98-7.67-4.98-17.59,0-25.26l99.56-153.27
		c4.29-6.61,11.56-10.56,19.45-10.56h333.27v45.39H2976.9c-9.98,0-19.19,5-24.63,13.37l-66.06,101.7
		C2879.9,215.67,2879.9,228.23,2886.21,237.95z M3229.96,436.74l-33.13-33.13v-57.35l33.13-33.13V436.74z M2983.97,130.19
		c-1.05,0-2.02,0.53-2.59,1.41l-51.89,79.88c-4.13,6.36-4.13,14.59,0,20.95l48.67,74.93c0.57,0.88,1.54,1.41,2.59,1.41h244.83
		l-3.68,3.68l-29.45,29.45h-218.78c-7.88,0-15.15-3.95-19.45-10.56l-62.85-96.75c-1.56-2.4-2.63-5.01-3.21-7.71
		c-1.28-5.94-0.21-12.27,3.21-17.55l66.06-101.7c4.29-6.61,11.56-10.56,19.45-10.56h215.57l29.45,29.45l3.68,3.68H2983.97z
		 M3229.96,125.82l-33.13-33.13V43.68l30.21-30.21l2.91-2.91V125.82z"/>
	<path d="M1391.66,154.63C1391.66,154.63,1391.66,154.63,1391.66,154.63c0-0.01-0.01-0.02-0.01-0.04c-0.04-0.15-0.09-0.3-0.16-0.45
		c-0.03-0.08-0.08-0.15-0.12-0.23c-0.04-0.07-0.07-0.15-0.12-0.22c-0.09-0.14-0.19-0.26-0.3-0.38c-0.01-0.01-0.01-0.02-0.02-0.02
		c0,0,0,0,0,0c-0.12-0.13-0.24-0.24-0.38-0.35c-0.06-0.05-0.12-0.08-0.18-0.12c-0.08-0.05-0.16-0.11-0.24-0.16
		c-0.07-0.04-0.15-0.07-0.23-0.1c-0.08-0.03-0.15-0.07-0.24-0.1c-0.09-0.03-0.18-0.05-0.28-0.07c-0.07-0.02-0.14-0.04-0.21-0.05
		c-0.17-0.03-0.34-0.04-0.51-0.04h-286.13l10.35-15.94h268.07c0,0,0,0,0,0l0,0c0,0,0,0,0,0c0.18,0,0.36-0.02,0.54-0.05
		c0.05-0.01,0.1-0.02,0.16-0.04c0.13-0.03,0.26-0.07,0.39-0.12c0.03-0.01,0.06-0.02,0.1-0.03c0.02-0.01,0.05-0.03,0.07-0.04
		c0.07-0.03,0.14-0.07,0.21-0.1c0.07-0.04,0.13-0.07,0.2-0.11c0.06-0.04,0.12-0.08,0.18-0.13c0.06-0.05,0.12-0.09,0.18-0.14
		c0.06-0.05,0.11-0.1,0.16-0.15c0.05-0.05,0.11-0.11,0.16-0.17c0.05-0.05,0.09-0.11,0.13-0.17c0.05-0.06,0.09-0.12,0.13-0.19
		c0.04-0.06,0.07-0.12,0.11-0.19c0.04-0.07,0.08-0.14,0.11-0.22c0.01-0.02,0.02-0.04,0.03-0.07c0.02-0.04,0.03-0.09,0.04-0.13
		c0.03-0.08,0.05-0.15,0.08-0.23c0.02-0.07,0.03-0.14,0.05-0.22c0.01-0.07,0.03-0.15,0.04-0.23c0.01-0.08,0.01-0.16,0.02-0.24
		c0-0.05,0.01-0.09,0.01-0.14V3.09c0-0.05-0.01-0.09-0.01-0.14c0-0.08-0.01-0.16-0.02-0.24c-0.01-0.08-0.02-0.15-0.04-0.23
		c-0.01-0.07-0.03-0.14-0.05-0.22c-0.02-0.08-0.05-0.15-0.08-0.23c-0.02-0.04-0.03-0.09-0.04-0.13c-0.01-0.02-0.02-0.04-0.03-0.07
		c-0.03-0.07-0.07-0.15-0.11-0.22c-0.03-0.06-0.07-0.13-0.11-0.19c-0.04-0.07-0.09-0.13-0.13-0.19c-0.04-0.06-0.09-0.12-0.13-0.17
		c-0.05-0.06-0.1-0.11-0.16-0.17c-0.05-0.05-0.1-0.1-0.16-0.15c-0.06-0.05-0.12-0.1-0.18-0.14c-0.06-0.04-0.12-0.09-0.18-0.13
		c-0.06-0.04-0.13-0.08-0.2-0.11c-0.07-0.04-0.14-0.07-0.21-0.1c-0.02-0.01-0.05-0.03-0.07-0.04c-0.04-0.02-0.09-0.03-0.14-0.04
		c-0.07-0.03-0.15-0.05-0.22-0.07c-0.07-0.02-0.15-0.04-0.22-0.05c-0.07-0.01-0.15-0.03-0.22-0.04c-0.08-0.01-0.16-0.01-0.24-0.02
		c-0.05,0-0.09-0.01-0.14-0.01H988.12c-15.76,0-30.29,7.89-38.88,21.1L869.2,144.31c-0.03,0.05-0.05,0.1-0.08,0.15
		c-0.06,0.11-0.11,0.21-0.16,0.33c-0.05,0.11-0.09,0.22-0.12,0.33c-0.03,0.11-0.06,0.23-0.08,0.34c-0.02,0.12-0.04,0.24-0.04,0.36
		c0,0.06-0.02,0.11-0.02,0.17v298.2c0,0.05,0.01,0.09,0.01,0.14c0,0.08,0.01,0.16,0.02,0.24c0.01,0.08,0.02,0.15,0.04,0.23
		c0.01,0.07,0.03,0.14,0.05,0.22c0.02,0.08,0.05,0.15,0.08,0.23c0.02,0.04,0.03,0.09,0.04,0.13c0.01,0.02,0.02,0.04,0.03,0.07
		c0.03,0.07,0.07,0.14,0.11,0.22c0.03,0.06,0.07,0.13,0.11,0.19c0.04,0.06,0.09,0.12,0.13,0.19c0.04,0.06,0.09,0.12,0.14,0.18
		c0.05,0.06,0.1,0.11,0.16,0.16s0.11,0.11,0.16,0.16s0.12,0.09,0.18,0.14c0.06,0.05,0.12,0.09,0.19,0.13
		c0.06,0.04,0.13,0.07,0.19,0.11c0.07,0.04,0.14,0.07,0.21,0.11c0.02,0.01,0.05,0.03,0.07,0.04c0.03,0.01,0.06,0.02,0.09,0.03
		c0.13,0.05,0.26,0.09,0.39,0.12c0.05,0.01,0.11,0.03,0.16,0.04c0.17,0.03,0.34,0.05,0.51,0.05c0.01,0,0.02,0,0.02,0c0,0,0,0,0,0
		h509.16c0,0,0,0,0,0l0,0c0,0,0,0,0,0c0.18,0,0.36-0.02,0.54-0.05c0.05-0.01,0.1-0.02,0.16-0.04c0.13-0.03,0.26-0.07,0.39-0.12
		c0.03-0.01,0.06-0.02,0.09-0.03c0.02-0.01,0.05-0.02,0.07-0.04c0.07-0.03,0.14-0.07,0.21-0.11c0.07-0.04,0.13-0.07,0.19-0.11
		c0.06-0.04,0.12-0.09,0.18-0.13c0.06-0.05,0.12-0.09,0.18-0.14c0.06-0.05,0.11-0.1,0.16-0.15c0.05-0.05,0.11-0.11,0.16-0.16
		c0.05-0.06,0.09-0.12,0.14-0.17c0.05-0.06,0.09-0.12,0.13-0.19c0.04-0.06,0.07-0.12,0.11-0.19c0.04-0.07,0.08-0.14,0.11-0.22
		c0.01-0.02,0.02-0.04,0.03-0.07c0.02-0.04,0.03-0.09,0.04-0.13c0.03-0.08,0.05-0.15,0.08-0.23c0.02-0.07,0.03-0.14,0.05-0.22
		c0.01-0.07,0.03-0.15,0.04-0.23c0.01-0.08,0.01-0.16,0.02-0.24c0-0.05,0.01-0.09,0.01-0.14V305.67c0-0.05-0.01-0.09-0.01-0.14
		c0-0.08-0.01-0.16-0.02-0.24c-0.01-0.08-0.02-0.15-0.04-0.23c-0.01-0.07-0.03-0.14-0.05-0.22c-0.02-0.08-0.05-0.16-0.08-0.23
		c-0.02-0.04-0.03-0.09-0.04-0.13c-0.01-0.02-0.02-0.04-0.03-0.07c-0.03-0.07-0.07-0.15-0.11-0.22c-0.03-0.06-0.07-0.13-0.11-0.19
		c-0.04-0.07-0.09-0.13-0.13-0.19c-0.04-0.06-0.09-0.12-0.14-0.17c-0.05-0.06-0.1-0.11-0.16-0.16c-0.05-0.05-0.1-0.11-0.16-0.15
		c-0.06-0.05-0.12-0.09-0.18-0.14c-0.06-0.04-0.12-0.09-0.18-0.13c-0.06-0.04-0.13-0.07-0.2-0.11c-0.07-0.04-0.14-0.07-0.21-0.1
		c-0.02-0.01-0.05-0.03-0.07-0.04c-0.04-0.02-0.09-0.03-0.14-0.05c-0.07-0.03-0.15-0.05-0.22-0.07c-0.07-0.02-0.15-0.04-0.22-0.05
		c-0.07-0.01-0.15-0.03-0.22-0.04c-0.08-0.01-0.16-0.01-0.24-0.02c-0.05,0-0.09-0.01-0.14-0.01h-305.57v-13.91h228.72c0,0,0,0,0,0
		c0.27,0,0.53-0.04,0.78-0.1c0.08-0.02,0.16-0.07,0.24-0.09c0.16-0.06,0.33-0.11,0.48-0.2c0.09-0.05,0.17-0.12,0.25-0.18
		c0.13-0.09,0.26-0.17,0.37-0.28c0.08-0.08,0.15-0.17,0.22-0.26c0.08-0.1,0.18-0.19,0.25-0.3l84.56-130.19c0,0,0,0,0,0
		c0.09-0.14,0.17-0.29,0.24-0.45c0.03-0.07,0.05-0.15,0.08-0.22c0.03-0.09,0.06-0.17,0.09-0.26c0.02-0.09,0.03-0.17,0.04-0.26
		c0.01-0.08,0.03-0.16,0.04-0.24c0.01-0.1,0-0.19,0-0.29c0-0.07,0.01-0.14,0-0.21C1391.73,154.97,1391.7,154.8,1391.66,154.63z
		 M1376.5,158.48l-61.02,33.13h-278.87l61.02-33.13H1376.5z M1032.99,243.18c-0.05,0-0.09,0.01-0.14,0.01
		c-0.08,0-0.16,0.01-0.25,0.02c-0.06,0.01-0.12,0.02-0.17,0.03c-0.04,0.01-0.08,0.01-0.12,0.02c-0.05,0.01-0.1,0.02-0.15,0.04
		c-0.07,0.02-0.15,0.05-0.22,0.07c-0.05,0.02-0.09,0.03-0.14,0.05c0,0-0.01,0-0.01,0c-0.02,0.01-0.04,0.02-0.07,0.03
		c-0.07,0.03-0.14,0.07-0.2,0.1c-0.07,0.04-0.13,0.07-0.2,0.11c-0.02,0.01-0.04,0.02-0.06,0.04c-0.02,0.01-0.03,0.02-0.04,0.03
		c-0.03,0.02-0.05,0.04-0.07,0.06c-0.06,0.05-0.12,0.09-0.18,0.14c-0.04,0.03-0.08,0.07-0.12,0.11c-0.03,0.03-0.06,0.06-0.09,0.09
		c-0.04,0.04-0.08,0.08-0.11,0.12c-0.05,0.06-0.09,0.11-0.13,0.17c-0.02,0.03-0.05,0.06-0.07,0.08c-0.01,0.01-0.02,0.02-0.03,0.04
		c-0.01,0.02-0.03,0.05-0.04,0.07c-0.04,0.06-0.07,0.12-0.11,0.19c-0.04,0.07-0.08,0.14-0.11,0.21c-0.01,0.02-0.02,0.04-0.03,0.07
		c0,0,0,0,0,0.01c-0.02,0.04-0.03,0.09-0.04,0.13c-0.03,0.08-0.05,0.15-0.08,0.23c-0.01,0.05-0.03,0.1-0.04,0.15
		c-0.01,0.04-0.02,0.08-0.02,0.12c-0.01,0.06-0.02,0.12-0.03,0.18c-0.01,0.08-0.01,0.16-0.02,0.24c0,0.05-0.01,0.09-0.01,0.14v98.71
		c0,0.05,0.01,0.09,0.01,0.14c0,0.08,0.01,0.16,0.02,0.24c0.01,0.06,0.02,0.12,0.03,0.18c0.01,0.04,0.01,0.08,0.02,0.12
		c0.01,0.05,0.02,0.1,0.04,0.15c0.02,0.08,0.05,0.15,0.08,0.23c0.02,0.04,0.03,0.09,0.04,0.13c0,0,0,0,0,0.01
		c0.01,0.02,0.02,0.04,0.03,0.07c0.03,0.07,0.07,0.14,0.11,0.21c0.03,0.06,0.07,0.13,0.11,0.19c0.01,0.02,0.02,0.05,0.04,0.07
		c0.01,0.01,0.02,0.02,0.03,0.04c0.02,0.03,0.04,0.06,0.07,0.08c0.04,0.06,0.09,0.12,0.13,0.17c0.04,0.04,0.07,0.08,0.11,0.12
		c0.03,0.03,0.06,0.06,0.09,0.09c0.04,0.04,0.08,0.07,0.12,0.11c0.06,0.05,0.12,0.1,0.18,0.14c0.02,0.02,0.05,0.04,0.07,0.06
		c0.02,0.01,0.03,0.02,0.04,0.03c0.02,0.01,0.04,0.02,0.06,0.04c0.06,0.04,0.13,0.08,0.2,0.11c0.07,0.04,0.13,0.07,0.2,0.1
		c0.02,0.01,0.04,0.02,0.07,0.03c0,0,0.01,0,0.01,0c0.03,0.01,0.06,0.02,0.1,0.03c0.12,0.04,0.24,0.08,0.36,0.11
		c0.04,0.01,0.08,0.03,0.12,0.03c0.02,0,0.05,0.01,0.07,0.01c0.17,0.03,0.34,0.05,0.51,0.05c0.01,0,0.02,0,0.02,0c0,0,0,0,0,0
		h305.56v53.74H914.19V158.56l66.6-102.52c0.27-0.41,0.55-0.82,0.84-1.21c3.49-4.7,8.58-7.86,14.25-8.94
		c1.42-0.27,2.88-0.41,4.35-0.41h338.32v45.39h-234.42c-9.98,0-19.19,5-24.63,13.37l-57.66,88.77c0,0,0,0,0,0
		c-0.09,0.14-0.17,0.29-0.24,0.45c-0.03,0.07-0.05,0.14-0.07,0.22c0,0,0,0.01,0,0.01c-0.02,0.04-0.03,0.09-0.05,0.13
		c-0.01,0.04-0.03,0.08-0.04,0.12c-0.02,0.08-0.03,0.17-0.04,0.25c-0.01,0.08-0.03,0.16-0.04,0.25c0,0.03,0,0.06,0,0.09
		c0,0.04,0,0.08,0,0.12c0,0.03,0,0.05,0,0.08c0,0.07-0.01,0.15,0,0.22c0.01,0.13,0.04,0.25,0.06,0.38c0.01,0.03,0.01,0.06,0.01,0.08
		c0,0.01,0,0.03,0.01,0.04c0,0,0,0,0,0c0,0.01,0.01,0.02,0.01,0.04c0.04,0.15,0.09,0.3,0.15,0.45c0.02,0.06,0.06,0.11,0.09,0.16
		c0.01,0.02,0.01,0.05,0.03,0.07c0.02,0.04,0.05,0.08,0.08,0.12c0.02,0.03,0.03,0.07,0.05,0.1c0.01,0.02,0.03,0.04,0.05,0.07
		c0.06,0.09,0.13,0.17,0.2,0.25c0.02,0.02,0.04,0.05,0.06,0.07c0,0,0.01,0.01,0.01,0.01c0,0,0,0,0,0c0.01,0.01,0.02,0.01,0.02,0.02
		c0.11,0.11,0.22,0.22,0.34,0.31c0.02,0.02,0.05,0.03,0.07,0.05c0,0,0.01,0,0.01,0.01c0.04,0.03,0.07,0.05,0.11,0.08
		c0.06,0.04,0.13,0.08,0.19,0.12c0.05,0.03,0.1,0.05,0.14,0.07c0.04,0.02,0.09,0.05,0.13,0.07c0.01,0,0.02,0.01,0.03,0.01
		c0.04,0.02,0.08,0.03,0.12,0.04c0.05,0.02,0.11,0.04,0.16,0.06c0.08,0.03,0.16,0.05,0.24,0.07c0.04,0.01,0.08,0.02,0.11,0.03
		c0.03,0.01,0.07,0.01,0.1,0.02c0.15,0.02,0.31,0.04,0.47,0.04c0,0,0.01,0,0.01,0c0,0,0,0,0,0h286.13l-13.65,21.01l-15.83,24.38
		H1032.99z M1036.08,253.73l33.13,33.13v17.53l-33.13,33.13V253.73z M1111.21,130.19c-0.01,0-0.01,0-0.02,0
		c-0.24,0-0.47,0.03-0.7,0.09c-0.06,0.01-0.12,0.04-0.17,0.05c-0.17,0.05-0.33,0.11-0.48,0.19c-0.07,0.03-0.13,0.07-0.19,0.11
		c-0.15,0.09-0.28,0.19-0.41,0.3c-0.05,0.04-0.1,0.08-0.15,0.13c-0.17,0.16-0.33,0.34-0.46,0.54l-13.94,21.46l-61.02,33.13
		l51.03-78.56c4.29-6.61,11.56-10.56,19.45-10.56h236.23l33.13,33.13H1111.21z M1377.86,125.82l-33.13-33.13V43.68l33.13-33.13
		V125.82z M954.43,24.47c7.44-11.45,20.04-18.29,33.69-18.29h385.37l-33.13,33.13h-340.13c-9.98,0-19.19,5-24.63,13.37
		l-65.84,101.35l-33.13-9.82L954.43,24.47z M874.88,150.14l33.13,9.82v243.66l-33.13,33.13V150.14z M879.25,441.11l4.14-4.14
		l28.99-28.99h427.98l33.13,33.13H879.25z M1377.86,436.74l-33.13-33.13v-57.36l33.13-33.13V436.74z M1373.49,308.76l-33.13,33.13
		h-299.92l33.13-33.13H1373.49z M1073.58,282.49l-33.13-33.13h240.48l3.55,6.54l14.43,26.59H1073.58z M1304.34,279.54l-17.98-33.13
		l32.07-49.37l61.02-33.13L1304.34,279.54z"/>
	<path d="M2556.3,443.71c-0.01-0.09-0.02-0.18-0.04-0.26c-0.02-0.09-0.06-0.17-0.08-0.25c-0.03-0.08-0.05-0.16-0.08-0.23
		c-0.07-0.16-0.15-0.31-0.24-0.45c0,0,0,0,0,0L2282.12,21.11C2273.53,7.89,2259,0,2243.24,0h-284.35c-0.05,0-0.09,0.01-0.14,0.01
		c-0.08,0-0.16,0.01-0.24,0.02c-0.07,0.01-0.15,0.02-0.22,0.04c-0.07,0.01-0.15,0.03-0.22,0.05c-0.08,0.02-0.15,0.05-0.22,0.07
		c-0.05,0.02-0.09,0.03-0.14,0.05c-0.02,0.01-0.05,0.03-0.07,0.04c-0.07,0.03-0.14,0.07-0.21,0.1c-0.07,0.04-0.13,0.07-0.2,0.11
		c-0.06,0.04-0.12,0.08-0.18,0.13c-0.06,0.05-0.12,0.09-0.18,0.14c-0.06,0.05-0.11,0.1-0.16,0.15c-0.05,0.05-0.11,0.11-0.16,0.17
		c-0.05,0.06-0.09,0.11-0.14,0.17c-0.05,0.06-0.09,0.12-0.13,0.19c-0.04,0.06-0.07,0.12-0.11,0.19c-0.04,0.07-0.08,0.14-0.11,0.22
		c-0.01,0.02-0.02,0.04-0.03,0.07c-0.02,0.04-0.03,0.09-0.04,0.13c-0.03,0.08-0.05,0.15-0.08,0.23c-0.02,0.07-0.03,0.14-0.05,0.22
		c-0.02,0.08-0.03,0.15-0.04,0.23c-0.01,0.08-0.01,0.16-0.02,0.23c0,0.05-0.01,0.09-0.01,0.14V444.2c0,0.05,0.01,0.09,0.01,0.14
		c0,0.08,0.01,0.16,0.02,0.24c0.01,0.08,0.02,0.15,0.04,0.23c0.01,0.07,0.03,0.14,0.05,0.22c0.02,0.08,0.05,0.15,0.08,0.23
		c0.02,0.04,0.03,0.09,0.04,0.13c0.01,0.02,0.02,0.04,0.03,0.07c0.03,0.07,0.07,0.15,0.11,0.22c0.03,0.06,0.07,0.13,0.11,0.19
		c0.04,0.07,0.09,0.13,0.13,0.19c0.04,0.06,0.09,0.12,0.14,0.17c0.05,0.06,0.1,0.11,0.16,0.17c0.05,0.05,0.1,0.1,0.16,0.15
		c0.06,0.05,0.12,0.1,0.18,0.14c0.06,0.04,0.12,0.09,0.18,0.13c0.06,0.04,0.13,0.08,0.2,0.11c0.07,0.04,0.14,0.07,0.21,0.1
		c0.02,0.01,0.05,0.03,0.07,0.04c0.03,0.01,0.06,0.02,0.1,0.03c0.13,0.05,0.26,0.09,0.39,0.12c0.05,0.01,0.1,0.03,0.16,0.04
		c0.18,0.03,0.35,0.05,0.54,0.05c0,0,0,0,0,0l0,0c0,0,0,0,0,0h193.45c0,0,0,0,0,0c0.01,0,0.02,0,0.02,0c0.17,0,0.35-0.02,0.51-0.05
		c0.05-0.01,0.11-0.02,0.16-0.04c0.13-0.03,0.26-0.07,0.39-0.12c0.03-0.01,0.06-0.02,0.1-0.03c0.02-0.01,0.05-0.03,0.07-0.04
		c0.07-0.03,0.14-0.07,0.21-0.1c0.07-0.04,0.13-0.07,0.2-0.11c0.06-0.04,0.12-0.08,0.18-0.13c0.06-0.05,0.12-0.09,0.18-0.14
		c0.06-0.05,0.11-0.1,0.16-0.15c0.05-0.05,0.11-0.11,0.16-0.17c0.05-0.06,0.09-0.11,0.14-0.17c0.05-0.06,0.09-0.12,0.13-0.19
		c0.04-0.06,0.07-0.12,0.11-0.19c0.04-0.07,0.08-0.14,0.11-0.22c0.01-0.02,0.02-0.04,0.03-0.07c0.02-0.04,0.03-0.09,0.04-0.13
		c0.03-0.08,0.05-0.15,0.08-0.23c0.02-0.07,0.03-0.14,0.05-0.22c0.01-0.08,0.03-0.15,0.04-0.23c0.01-0.08,0.01-0.16,0.02-0.24
		c0-0.05,0.01-0.09,0.01-0.14v-72.62h125.89l48.26,74.3c0.07,0.11,0.17,0.2,0.25,0.3c0.07,0.09,0.14,0.18,0.22,0.26
		c0.11,0.11,0.24,0.19,0.37,0.28c0.09,0.06,0.16,0.13,0.25,0.18c0.15,0.08,0.31,0.14,0.47,0.19c0.08,0.03,0.16,0.07,0.24,0.1
		c0.25,0.07,0.51,0.1,0.78,0.1h0h0h221.07c0,0,0,0,0,0c0.01,0,0.01,0,0.02,0c0.19,0,0.38-0.02,0.56-0.06
		c0.06-0.01,0.11-0.03,0.17-0.04c0.13-0.03,0.26-0.07,0.39-0.12c0.06-0.02,0.12-0.05,0.18-0.08c0.12-0.06,0.24-0.12,0.35-0.2
		c0.05-0.03,0.1-0.06,0.16-0.1c0.16-0.12,0.31-0.24,0.44-0.39c0,0,0,0,0,0c0.01-0.01,0.01-0.02,0.02-0.02
		c0.11-0.12,0.21-0.25,0.3-0.38c0.05-0.07,0.08-0.15,0.12-0.22c0.04-0.08,0.09-0.15,0.12-0.23c0.06-0.15,0.11-0.3,0.15-0.45
		c0-0.01,0.01-0.02,0.01-0.04c0,0,0,0,0,0c0.04-0.17,0.07-0.33,0.08-0.51c0.01-0.07,0-0.14,0-0.21c0-0.1,0.01-0.2,0-0.29
		C2556.33,443.87,2556.31,443.79,2556.3,443.71z M1961.98,10.55l33.13,33.13v359.94l-33.13,33.13V10.55z M1966.35,441.11l0.62-0.62
		l32.51-32.51h112.28l28.99,28.99l4.14,4.14H1966.35z M2115.63,279.15c-0.01-0.01-0.01-0.02-0.02-0.02
		c-0.04-0.06-0.09-0.12-0.14-0.18c-0.06-0.08-0.12-0.15-0.18-0.22c-0.01-0.01-0.02-0.02-0.03-0.03c-0.02-0.02-0.04-0.03-0.05-0.05
		c-0.03-0.03-0.05-0.05-0.08-0.07c-0.07-0.07-0.14-0.13-0.22-0.19c-0.02-0.02-0.04-0.03-0.06-0.05c-0.04-0.03-0.09-0.06-0.14-0.09
		c-0.07-0.05-0.15-0.1-0.22-0.14c-0.03-0.02-0.07-0.04-0.11-0.05c-0.05-0.02-0.1-0.04-0.14-0.06c-0.07-0.03-0.14-0.06-0.21-0.08
		c-0.05-0.02-0.1-0.03-0.15-0.05c-0.05-0.01-0.09-0.03-0.14-0.04c-0.07-0.02-0.13-0.03-0.2-0.04c-0.06-0.01-0.13-0.02-0.2-0.02
		c-0.04,0-0.09-0.01-0.13-0.01c-0.06,0-0.12,0-0.18,0c-0.07,0-0.14,0-0.21,0.01c-0.03,0-0.06,0-0.08,0c-0.02,0-0.04,0-0.06,0
		c-0.05,0.01-0.1,0.02-0.16,0.03c-0.04,0.01-0.08,0.01-0.12,0.01c-0.04,0.01-0.07,0.02-0.1,0.03c-0.04,0.01-0.09,0.01-0.13,0.03
		c-0.01,0-0.02,0.01-0.03,0.01c-0.04,0.01-0.09,0.03-0.13,0.05c-0.07,0.03-0.14,0.05-0.21,0.08c-0.06,0.03-0.12,0.05-0.17,0.08
		c-0.02,0.01-0.04,0.01-0.06,0.02c-0.02,0.01-0.04,0.03-0.06,0.04c-0.05,0.03-0.11,0.06-0.16,0.1c-0.06,0.04-0.13,0.09-0.19,0.14
		c-0.04,0.03-0.08,0.06-0.12,0.09c-0.03,0.03-0.06,0.05-0.09,0.08c-0.07,0.06-0.13,0.13-0.19,0.2c-0.03,0.04-0.07,0.07-0.11,0.11
		c-0.02,0.02-0.03,0.04-0.04,0.06c-0.06,0.08-0.11,0.16-0.16,0.24c-0.03,0.05-0.07,0.1-0.1,0.15c-0.01,0.01-0.01,0.03-0.02,0.04
		c-0.05,0.09-0.08,0.18-0.12,0.27c-0.03,0.06-0.06,0.12-0.08,0.19c-0.04,0.1-0.06,0.21-0.09,0.32c-0.01,0.06-0.03,0.11-0.04,0.17
		c0,0.02,0,0.03-0.01,0.05c-0.01,0.06-0.01,0.12-0.02,0.19c-0.01,0.09-0.02,0.19-0.02,0.28V401.8h-108.66V45.49h229.83
		c7.88,0,15.15,3.95,19.45,10.56l224.59,345.76H2355.2l-48.26-74.3c-0.07-0.11-0.17-0.2-0.25-0.3c-0.07-0.09-0.14-0.18-0.22-0.26
		c-0.01-0.01-0.03-0.03-0.04-0.04c-0.09-0.08-0.2-0.14-0.3-0.21c-0.01-0.01-0.02-0.02-0.04-0.03c-0.09-0.06-0.16-0.13-0.25-0.18
		c-0.02-0.01-0.03-0.02-0.05-0.03c-0.12-0.06-0.25-0.1-0.38-0.15c-0.02-0.01-0.03-0.01-0.05-0.02c-0.08-0.03-0.16-0.07-0.25-0.1
		c-0.02,0-0.03-0.01-0.05-0.01c-0.12-0.03-0.25-0.03-0.37-0.05c-0.12-0.01-0.24-0.05-0.36-0.05h-158.22L2115.63,279.15z
		 M2143.89,342.07l-11.7-26.08l9.35,14.39L2143.89,342.07z M2149.26,436.74l-33.13-33.13V295.28l21.06,46.96l12.07,26.92V436.74z
		 M2281.17,365.41h-126.28l-6.66-33.13h150.93l-14.91,27.46L2281.17,365.41z M2331.94,438.16l-45.34-69.81l17.98-33.13l45.34,69.81
		L2331.94,438.16z M2337.37,441.11l17.59-32.41l0.39-0.72h124.71l61.02,33.13H2337.37z M2483.02,402.55L2255.76,52.68
		c-5.44-8.37-14.65-13.37-24.63-13.37h-231.64l-33.13-33.13h276.89c13.66,0,26.25,6.84,33.69,18.29l267.1,411.21L2483.02,402.55z"/>
	<path d="M3831.53,194.14L3719.13,21.11C3710.55,7.89,3696.01,0,3680.25,0h-419.01c-0.05,0-0.1,0.01-0.14,0.01
		c-0.08,0-0.16,0.01-0.23,0.02c-0.08,0.01-0.15,0.02-0.22,0.04c-0.07,0.01-0.15,0.03-0.22,0.05c-0.08,0.02-0.15,0.05-0.22,0.07
		c-0.05,0.02-0.09,0.03-0.14,0.05c-0.03,0.01-0.05,0.03-0.07,0.04c-0.07,0.03-0.14,0.07-0.21,0.1c-0.07,0.04-0.13,0.07-0.2,0.11
		c-0.06,0.04-0.12,0.08-0.18,0.13c-0.06,0.05-0.12,0.09-0.18,0.14c-0.06,0.05-0.11,0.1-0.16,0.15c-0.05,0.05-0.11,0.11-0.16,0.16
		c-0.05,0.06-0.09,0.12-0.14,0.18c-0.05,0.06-0.09,0.12-0.13,0.19c-0.04,0.06-0.07,0.13-0.11,0.19c-0.04,0.07-0.07,0.14-0.11,0.21
		c-0.01,0.02-0.03,0.05-0.04,0.07c-0.02,0.05-0.03,0.09-0.05,0.14c-0.03,0.07-0.05,0.15-0.07,0.22c-0.02,0.08-0.04,0.15-0.05,0.23
		c-0.01,0.07-0.03,0.14-0.04,0.22c-0.01,0.08-0.01,0.16-0.02,0.25c0,0.05-0.01,0.09-0.01,0.14V444.2c0,0.05,0.01,0.09,0.01,0.14
		c0,0.08,0.01,0.16,0.02,0.25c0.01,0.07,0.02,0.14,0.04,0.22c0.02,0.08,0.03,0.15,0.05,0.23c0.02,0.08,0.05,0.15,0.07,0.22
		c0.02,0.05,0.03,0.09,0.05,0.14c0.01,0.02,0.02,0.05,0.04,0.07c0.03,0.07,0.07,0.14,0.11,0.21c0.04,0.06,0.07,0.13,0.11,0.19
		c0.04,0.06,0.09,0.12,0.13,0.19c0.04,0.06,0.09,0.12,0.14,0.18c0.05,0.06,0.1,0.11,0.16,0.16c0.05,0.05,0.1,0.1,0.16,0.15
		c0.06,0.05,0.12,0.1,0.18,0.14c0.06,0.04,0.12,0.09,0.18,0.13c0.06,0.04,0.13,0.08,0.2,0.11c0.07,0.04,0.14,0.07,0.21,0.1
		c0.02,0.01,0.05,0.03,0.07,0.04c0.03,0.01,0.06,0.02,0.1,0.03c0.13,0.05,0.26,0.09,0.39,0.12c0.05,0.01,0.1,0.03,0.16,0.04
		c0.18,0.03,0.36,0.05,0.54,0.05c0,0,0,0,0,0c0,0,0,0,0,0c0,0,0,0,0,0h413.48c15.76,0,30.29-7.89,38.88-21.11l117.92-181.54
		C3841.49,229.3,3841.49,209.48,3831.53,194.14z M3264.33,10.55l33.13,33.13v359.93l-33.13,33.13V10.55z M3826.34,241.28
		l-117.92,181.54c-7.44,11.45-20.04,18.29-33.69,18.29h-406.02l3.68-3.68l29.45-29.45h360.78c9.98,0,19.19-5,24.63-13.37
		l103.42-159.22c0.79-1.21,1.48-2.47,2.07-3.77c4.14-9.05,3.45-19.73-2.07-28.23l-97.9-150.72c-1.02-1.57-2.17-3.02-3.44-4.34
		c-1.54-1.61-3.26-3.02-5.1-4.23c-0.32-0.21-0.63-0.41-0.96-0.6c-1.18-0.71-2.41-1.33-3.67-1.87c-0.38-0.16-0.77-0.32-1.16-0.46
		c-0.98-0.37-1.98-0.69-3-0.95c-2.35-0.6-4.8-0.91-7.3-0.91h-366.31l-33.13-33.13h411.55c13.66,0,26.26,6.84,33.69,18.29
		l112.39,173.03C3834.98,210.8,3834.98,227.98,3826.34,241.28z M3303.64,401.8V45.49h364.5c1.97,0,3.9,0.25,5.76,0.72
		c3.74,0.95,7.17,2.83,10,5.46c1.38,1.29,2.63,2.75,3.68,4.38l97.9,150.72c0.31,0.48,0.6,0.97,0.88,1.46
		c1.91,3.47,2.86,7.32,2.86,11.17c0,4.4-1.25,8.79-3.74,12.63l-103.42,159.22c-4.29,6.61-11.56,10.56-19.45,10.56H3303.64z"/>
	<path d="M3664.64,234.16l0.13-0.23c0.04-0.07,0.08-0.15,0.12-0.23c0.08-0.15,0.16-0.29,0.24-0.44c0.1-0.18,0.2-0.35,0.29-0.54
		l0.09-0.18c0.13-0.26,0.26-0.54,0.39-0.82c0.03-0.07,0.06-0.13,0.09-0.2c0.02-0.05,0.05-0.1,0.07-0.15l0.07-0.15
		c0.18-0.41,0.35-0.83,0.51-1.25l0.1-0.25c0,0,0,0,0,0c0.04-0.1,0.07-0.19,0.1-0.29c0.18-0.5,0.35-1,0.5-1.51
		c0.05-0.16,0.1-0.32,0.14-0.47c0.03-0.12,0.07-0.23,0.1-0.35l0.06-0.24c0.12-0.44,0.22-0.89,0.32-1.33c0,0,0.02-0.12,0.03-0.13
		c0.09-0.43,0.17-0.86,0.25-1.34c0-0.01,0.02-0.09,0.02-0.11c0.02-0.1,0.02-0.2,0.04-0.3c0.01-0.09,0.02-0.18,0.04-0.27
		c0.04-0.26,0.08-0.53,0.1-0.79l0.02-0.2c0.02-0.23,0.04-0.46,0.05-0.69c0.01-0.13,0.02-0.25,0.03-0.38
		c0.04-0.58,0.07-1.17,0.07-1.75c0-0.01,0-0.16,0-0.17c0-0.47-0.01-0.94-0.03-1.41c0-0.01,0-0.02,0-0.03
		c-0.02-0.48-0.06-0.96-0.1-1.4c0-0.02-0.01-0.11-0.01-0.13c-0.04-0.36-0.09-0.72-0.14-1.08c-0.01-0.06-0.01-0.12-0.02-0.18
		c-0.01-0.05-0.01-0.11-0.02-0.16c0,0-0.02-0.1-0.02-0.11c-0.08-0.55-0.19-1.1-0.3-1.63c-0.03-0.12-0.06-0.25-0.08-0.37
		c-0.06-0.26-0.12-0.53-0.18-0.79c-0.01-0.03-0.02-0.08-0.03-0.12c-0.05-0.18-0.11-0.37-0.16-0.55c-0.05-0.19-0.11-0.39-0.17-0.58
		c-0.16-0.53-0.33-1.05-0.52-1.57c-0.03-0.07-0.05-0.15-0.08-0.22c-0.22-0.6-0.47-1.18-0.73-1.76c-0.07-0.15-0.14-0.29-0.21-0.44
		c-0.11-0.23-0.21-0.46-0.32-0.69c-0.11-0.22-0.23-0.43-0.34-0.64c-0.09-0.16-0.17-0.33-0.26-0.49c-0.32-0.57-0.65-1.13-1-1.67
		l-64.4-99.14c-1.91-2.94-4.29-5.45-7-7.49c-2.59-1.95-5.49-3.47-8.59-4.46c-0.06-0.02-0.12-0.03-0.18-0.05
		c-2.82-0.89-5.8-1.36-8.86-1.36H3409.4c-0.05,0-0.09,0.01-0.14,0.01c-0.08,0-0.16,0.01-0.25,0.02c-0.06,0.01-0.12,0.02-0.17,0.03
		c-0.04,0.01-0.08,0.01-0.12,0.02c-0.05,0.01-0.1,0.03-0.15,0.04c-0.07,0.02-0.15,0.05-0.22,0.07c-0.05,0.02-0.09,0.03-0.14,0.05
		c0,0-0.01,0-0.01,0c-0.02,0.01-0.04,0.02-0.06,0.03c-0.07,0.03-0.14,0.07-0.2,0.1c-0.07,0.04-0.13,0.07-0.2,0.11
		c-0.02,0.01-0.04,0.02-0.07,0.04c-0.01,0.01-0.02,0.02-0.04,0.03c-0.03,0.02-0.05,0.04-0.08,0.06c-0.06,0.05-0.12,0.09-0.18,0.14
		c-0.04,0.04-0.08,0.07-0.12,0.11c-0.03,0.03-0.06,0.06-0.09,0.09c-0.04,0.04-0.07,0.08-0.11,0.12c-0.05,0.06-0.09,0.12-0.14,0.18
		c-0.02,0.03-0.04,0.05-0.06,0.08c-0.01,0.01-0.02,0.03-0.03,0.04c-0.01,0.02-0.02,0.04-0.04,0.06c-0.04,0.06-0.08,0.13-0.11,0.2
		c-0.04,0.07-0.07,0.13-0.1,0.2c-0.01,0.02-0.02,0.04-0.03,0.06c0,0,0,0.01,0,0.01c-0.02,0.05-0.03,0.09-0.05,0.14
		c-0.03,0.07-0.05,0.14-0.07,0.22c-0.01,0.05-0.03,0.1-0.04,0.15c-0.01,0.04-0.02,0.08-0.02,0.12c-0.01,0.06-0.02,0.12-0.03,0.17
		c-0.01,0.08-0.01,0.16-0.02,0.25c0,0.05-0.01,0.09-0.01,0.14v251.01v0c0,0,0,0,0,0c0,0.05,0.01,0.09,0.01,0.13
		c0,0.08,0.01,0.16,0.02,0.25c0.01,0.06,0.02,0.12,0.03,0.17c0.01,0.04,0.01,0.08,0.02,0.12c0.01,0.05,0.02,0.1,0.04,0.15
		c0.02,0.07,0.05,0.15,0.07,0.22c0.02,0.05,0.03,0.09,0.05,0.14c0,0,0,0.01,0,0.01c0.01,0.02,0.02,0.04,0.03,0.07
		c0.03,0.07,0.07,0.14,0.1,0.2s0.07,0.13,0.11,0.2c0.01,0.02,0.02,0.04,0.04,0.06c0.01,0.02,0.03,0.03,0.04,0.05
		c0.02,0.02,0.04,0.05,0.05,0.07c0.05,0.06,0.09,0.12,0.14,0.18c0.03,0.04,0.07,0.08,0.11,0.12c0.03,0.03,0.06,0.06,0.09,0.09
		c0.04,0.04,0.08,0.07,0.12,0.11c0.06,0.05,0.12,0.09,0.18,0.14c0.02,0.02,0.04,0.04,0.07,0.05c0.02,0.01,0.03,0.03,0.05,0.04
		c0.02,0.01,0.04,0.02,0.06,0.04c0.06,0.04,0.13,0.08,0.2,0.11c0.07,0.04,0.13,0.07,0.2,0.1c0.02,0.01,0.05,0.02,0.07,0.03
		c0,0,0,0,0.01,0c0.03,0.01,0.06,0.02,0.1,0.03c0.12,0.04,0.23,0.08,0.36,0.11c0.04,0.01,0.08,0.03,0.12,0.04
		c0.02,0,0.05,0,0.07,0.01c0.17,0.03,0.34,0.05,0.52,0.05c0.01,0,0.02,0,0.02,0c0,0,0,0,0,0c0,0,0,0,0,0h165.35
		c0.66,0,1.31-0.02,1.96-0.07c0.11-0.01,0.21-0.02,0.32-0.03c0.55-0.04,1.1-0.1,1.65-0.17c0.1-0.01,0.19-0.03,0.29-0.05
		c0.56-0.08,1.12-0.18,1.68-0.29c0.07-0.01,0.13-0.03,0.2-0.04c0.59-0.12,1.18-0.27,1.76-0.43c0.03-0.01,0.06-0.02,0.09-0.03
		c4.06-1.14,7.82-3.13,11.04-5.86c0.02-0.02,0.04-0.03,0.05-0.05c0.42-0.36,0.84-0.74,1.24-1.12c0.15-0.15,0.32-0.31,0.48-0.47
		c0.24-0.24,0.48-0.49,0.72-0.74c0.25-0.27,0.5-0.55,0.76-0.85c0.12-0.14,0.23-0.27,0.35-0.41c0.31-0.38,0.62-0.76,0.89-1.12
		c0.01-0.01,0.03-0.04,0.05-0.07c0.38-0.51,0.75-1.04,1.1-1.58l64.5-99.31C3664.14,235,3664.39,234.6,3664.64,234.16z
		 M3412.49,101.43l3.24,3.24l29.88,29.88v169.83l-2.54,2.54l-30.59,30.59V101.43z M3662.34,221.48c-0.03,0.35-0.06,0.7-0.11,1.05
		c-0.01,0.08-0.02,0.16-0.03,0.24c-0.08,0.52-0.17,1.03-0.28,1.54c0,0,0,0,0,0c-0.1,0.45-0.22,0.89-0.34,1.33
		c-0.18,0.64-0.38,1.28-0.62,1.91c-0.18,0.47-0.37,0.93-0.58,1.39c-0.05,0.11-0.1,0.21-0.15,0.32c-0.17,0.36-0.35,0.72-0.54,1.07
		c-0.07,0.12-0.13,0.24-0.2,0.36c-0.25,0.45-0.51,0.89-0.79,1.32l-64.51,99.31c0,0.01-0.01,0.01-0.01,0.02
		c-0.23,0.36-0.48,0.71-0.73,1.05c-0.05,0.07-0.09,0.13-0.14,0.2c0,0,0,0,0,0c-0.22,0.3-0.45,0.58-0.69,0.87
		c-0.09,0.1-0.17,0.21-0.26,0.31c-0.01,0.01-0.03,0.03-0.04,0.04c-0.19,0.23-0.39,0.44-0.59,0.66c-0.12,0.13-0.24,0.26-0.38,0.4
		c-0.08,0.09-0.17,0.17-0.26,0.26c-0.1,0.1-0.21,0.21-0.31,0.31c-0.16,0.15-0.32,0.3-0.5,0.46c-0.35,0.32-0.72,0.63-1.12,0.95
		c-0.38,0.3-0.77,0.59-1.18,0.88c-0.4,0.28-0.81,0.54-1.23,0.8c-0.01,0.01-0.03,0.02-0.04,0.02c-1.8,1.09-3.74,1.92-5.75,2.48
		c-0.01,0-0.02,0-0.02,0.01c-0.47,0.13-0.95,0.25-1.44,0.35c-0.04,0.01-0.07,0.02-0.11,0.02c-0.45,0.09-0.91,0.17-1.36,0.23
		c-0.06,0.01-0.13,0.02-0.19,0.03c-0.44,0.06-0.88,0.1-1.33,0.14c-0.07,0.01-0.15,0.02-0.22,0.02c-0.51,0.03-1.03,0.05-1.55,0.05
		h-157.89l33.13-33.13h117.69c1.05,0,2.02-0.53,2.59-1.41l50.33-77.49c0.01-0.02,0.03-0.04,0.04-0.06c0.23-0.36,0.45-0.73,0.66-1.1
		c0.07-0.13,0.14-0.27,0.21-0.4l0.11-0.22c0.1-0.19,0.2-0.38,0.28-0.57c0.1-0.21,0.19-0.42,0.31-0.72l0.05-0.11
		c0.05-0.13,0.11-0.25,0.15-0.38c0.11-0.28,0.21-0.57,0.33-0.92l0.1-0.29c0.1-0.32,0.19-0.65,0.28-1.02l0.05-0.2
		c0.08-0.36,0.16-0.72,0.23-1.12c0-0.01,0.02-0.09,0.02-0.1c0.07-0.38,0.12-0.77,0.15-1.09c0-0.03,0.01-0.11,0.02-0.13
		c0.04-0.41,0.07-0.81,0.09-1.22c0.17-4.03-0.89-7.93-3.08-11.29l-50.23-77.32c-0.57-0.88-1.54-1.41-2.59-1.41h-117.8l-29.88-29.88
		l-3.24-3.24h158c1.97,0,3.9,0.25,5.76,0.72c5.57,1.42,10.47,4.88,13.69,9.84l44.1,67.89l20.31,31.26c0,0,0,0.01,0,0.01
		c0.28,0.43,0.54,0.87,0.79,1.31c0.07,0.13,0.14,0.26,0.21,0.39c0.19,0.35,0.36,0.7,0.53,1.06c0.05,0.11,0.11,0.22,0.16,0.33
		c0.21,0.47,0.41,0.94,0.59,1.42c0.01,0.02,0.01,0.04,0.02,0.06c0.17,0.46,0.32,0.93,0.46,1.39c0.03,0.1,0.06,0.2,0.09,0.3
		c0.11,0.4,0.22,0.81,0.31,1.22c0.02,0.11,0.05,0.22,0.08,0.33c0.11,0.5,0.2,1.01,0.27,1.51c0,0.01,0,0.02,0,0.03
		c0.07,0.49,0.12,0.97,0.16,1.46c0.01,0.1,0.01,0.19,0.02,0.29c0.04,0.66,0.05,1.31,0.04,1.97
		C3662.42,220.39,3662.39,220.93,3662.34,221.48z M3620.37,222.14l-3.06-0.42c-0.04,0.24-0.09,0.49-0.15,0.73l3.01,0.72l-3.05-0.55
		c-0.06,0.22-0.12,0.44-0.18,0.66l-0.04,0.12c0,0.01-0.04,0.11-0.04,0.12c-0.06,0.19-0.13,0.38-0.2,0.57l-0.18,0.42
		c-0.05,0.13-0.11,0.26-0.17,0.4c-0.05,0.11-0.11,0.23-0.17,0.34l-0.24,0.46c-0.15,0.27-0.3,0.53-0.45,0.75
		c-0.02,0.03-0.04,0.05-0.05,0.08L3566,302.58H3451.8V136.37h114.31l49.31,75.92c1.48,2.28,2.2,4.93,2.08,7.67
		c-0.01,0.28-0.03,0.56-0.07,0.88c-0.03,0.26-0.07,0.53-0.11,0.79L3620.37,222.14z"/>
</g>
</svg>
