<?xml version="1.0" encoding="utf-8"?>
<!-- Generator: Adobe Illustrator 26.0.3, SVG Export Plug-In . SVG Version: 6.00 Build 0)  -->
<svg version="1.1" id="Layer_1" xmlns="http://www.w3.org/2000/svg" xmlns:xlink="http://www.w3.org/1999/xlink" x="0px" y="0px"
	 viewBox="0 0 2159 2159" style="enable-background:new 0 0 2159 2159;" xml:space="preserve">
<style type="text/css">
	.st0{display:none;fill:#00AD9C;}
	.st1{display:none;fill:#FFFFFF;stroke:#231F20;stroke-miterlimit:10;}
	.st2{fill:#FFFFFF;}
	.st3{fill-rule:evenodd;clip-rule:evenodd;fill:#FFFFFF;}
	.st4{fill-rule:evenodd;clip-rule:evenodd;}
	.st5{fill:#00AD9C;}
	.st6{fill:#FBB817;}
	.st7{fill:#0174BA;}
	.st8{fill:#EB2027;}
</style>
<g>
	<path d="M1903.2,1857.5c-4.3,0-8.4,1.7-11.5,4.8c-3.1,3.1-4.8,7.2-4.8,11.6c0,4.4,1.7,8.5,4.8,11.6c3.1,3.1,7.1,4.8,11.5,4.8
		c8.9,0,16.2-7.4,16.2-16.5c0-4.4-1.7-8.5-4.8-11.6C1911.5,1859.2,1907.5,1857.5,1903.2,1857.5z M1913,1883.6v0.5v0.4h-0.5h-3.4
		h-0.3l-0.1-0.2c-0.1-0.2-0.2-0.5-0.2-0.8c-0.1-0.3-0.1-0.9-0.2-1.7l-0.2-3.5c-0.1-1.2-0.4-2-1.2-2.4c-0.4-0.2-1.2-0.3-2.3-0.3h-5.9
		v8.5v0.5h-0.5h-2.8h-0.5v-0.5v-21v-0.5h0.4h9.6c1.6,0,3,0.2,4.1,0.7c2.2,1,3.2,2.8,3.2,5.4c0,1.4-0.3,2.5-0.9,3.3
		c-0.4,0.6-0.9,1.2-1.6,1.6c0.6,0.3,1,0.6,1.3,1.1c0.5,0.6,0.7,1.5,0.8,2.9l0.1,2.8c0,0.7,0.1,1.3,0.2,1.7c0.2,0.5,0.4,0.9,0.6,1
		l0.3,0.1V1883.6z"/>
	<path d="M1907.1,1866.4c-0.5-0.2-1.2-0.4-2.1-0.4h-6.4v6.2h6c1.2,0,2.2-0.2,2.8-0.7c0.6-0.4,0.9-1.3,1-2.5
		C1908.5,1867.7,1908.1,1866.8,1907.1,1866.4z"/>
	<path d="M0,0v2159h2159V0H0z M434.2,1792.3c-12.3,12.5-40.9,11.3-40.9,11.3h-31.6v-20.5h22c9.2,0,19.3-2.1,25.5-12.5
		c4-6.9,4.8-25.5,4.8-37.6c0-11.3-1.4-28-8.4-37.2c-8.3-10.9-32.6-10.9-32.6-10.9h-33.4v208.8h-36v-230.9h78.7c0,0,27.7,0,43.1,7.1
		c18.6,8.6,27.7,33.8,27.7,58.9C453.1,1756.4,449.2,1777,434.2,1792.3z M517.4,1893.7h-36.1v-230.9h36.1V1893.7z M690.3,1891.9
		l-69.1,1.5c0,0-31.3,0.1-47-6.3c-15.4-6.3-23.7-23.4-23.7-47.2c0-23,7-36.3,17.5-44.7c15.2-12,42.2-10.9,42.2-10.9h22v20.5h-12.3
		c-9.3,0-18.9,1.7-24.1,8.3c-4.9,6.3-7.6,11.7-7.6,23.8c0,15.9,3.1,23,10.6,28.4c6.6,4.8,18.5,5.8,31.7,5.8l23.8-1.5v-94.6
		c0-12.1-3.1-19.6-8-25.9c-5.3-6.7-16.2-9.2-25.4-9.2l-47.5,1.5v-23.4l57.2-1.5c0,0,27.1-1.1,42.2,10.9
		c10.6,8.4,17.6,21.7,17.6,44.7V1891.9z M767.2,1982.3h-29.9l37.8-92.7l-66-172.9h42l44.1,129.4l47.5-129.4h33.4L767.2,1982.3z
		 M1011,1879.8c-7.5,7.5-18.4,10.9-26.8,12.3c-9.6,1.7-25.5,1.8-25.5,1.8l-55.3-1.5v-21.8c0,0,38.1,1.5,46.1,1.5
		c17.6,0,26.4-3.8,33-10.8c4-4.2,7.5-23.1,7.5-29.8c0-6.6-1.3-21.1-4-27c-2.6-5.8-8.7-11.3-18-12c-6.6-0.6-16.7-1.9-28.6-2.4
		c-16.7-0.8-27.6-9.5-32.9-15.7c-5.3-6.3-12.3-15.7-12.3-44.4c0-28.9,7.5-45,15-52.6c7.5-7.5,18.4-10.8,26.9-12.3
		c9.7-1.6,25.5-1.7,25.5-1.7l50.4,1.5v21.8c0,0-36.7-1.5-44.7-1.5c-17.6,0-22.9,3.8-29.5,10.9c-3.9,4.2-6.9,15.8-6.9,22.5
		c0,6.7,0.8,20.2,3.4,26.1c2.6,5.8,8.8,11.3,18.1,12c6.6,0.6,16.7,1.9,28.5,2.5c16.7,0.8,27.7,9.4,32.9,15.7
		c5.3,6.3,12.3,19.4,12.3,48.2C1026,1851.7,1018.5,1872.3,1011,1879.8z M1140.8,1738.4h-40.6v99.8c0,0,0,12.5,1.3,22.9
		c1.3,10.4,8.8,10.9,15,10.9c6.1,0,16.2-0.8,16.2-0.8v21.8l-37.3,0.7c-20.7,0-28.6-12.9-29.5-18.4c-0.9-5.4-1.7-20.9-1.7-20.9
		v-169.6h36v31.8h40.6V1738.4z M1298.1,1891.9l-69,1.5c0,0-31.3,0.1-47.1-6.3c-15.4-6.3-23.8-23.4-23.8-47.2
		c0-23,7.1-36.3,17.6-44.7c15.1-12,42.2-10.9,42.2-10.9h22v20.5h-12.3c-9.2,0-18.8,1.7-24.1,8.3c-4.9,6.3-7.6,11.7-7.6,23.8
		c0,15.9,3.1,23,10.5,28.4c6.6,4.8,18.5,5.8,31.6,5.8l23.9-1.5v-94.6c0-12.1-3.1-19.6-8.1-25.9c-5.3-6.7-16.1-9.2-25.4-9.2
		l-47.5,1.5v-23.4l57.2-1.5c0,0,27.1-1.1,42.2,10.9c10.6,8.4,17.6,21.7,17.6,44.7V1891.9z M1416.8,1738.4h-40.7v99.8
		c0,0,0,12.5,1.4,22.9c1.3,10.4,8.7,10.9,14.9,10.9c6.2,0,16.3-0.8,16.3-0.8v21.8l-37.4,0.7c-20.6,0-28.6-12.9-29.4-18.4
		c-0.8-5.4-1.8-20.9-1.8-20.9v-169.6h36.1v31.8h40.7V1738.4z M1484,1893.7H1448v-177h36.1V1893.7z M1484,1695H1448v-32.1h36.1V1695z
		 M1651.7,1881.5c-10.3,8.3-29.3,13.8-53.8,13.8c-24.6,0-43.5-5.5-53.9-13.8c-10.3-8.3-22.9-25.7-22.9-76.3
		c0-50.5,12.7-68,22.9-76.3c10.3-8.3,29.3-13.8,53.9-13.8c24.5,0,43.5,5.5,53.8,13.8c10.3,8.3,23,25.7,23,76.3
		C1674.7,1855.8,1662,1873.2,1651.7,1881.5z M1854.1,1893.6h-36v-118.4c0-12.1-3.1-19.6-8-25.9c-5.3-6.7-16.2-9.2-25.4-9.2
		l-35.3,1.5v152h-35.7v-175.4l80.8-1.5c0,0,27-1.1,42.2,10.9c10.6,8.4,17.6,21.7,17.6,44.7V1893.6z M1916.9,1887.9
		c-3.7,3.8-8.5,5.8-13.7,5.8c-5.2,0-10.1-2.1-13.7-5.8s-5.7-8.7-5.7-13.9c0-10.9,8.7-19.7,19.4-19.7c5.2,0,10.1,2,13.7,5.8
		c3.7,3.7,5.7,8.7,5.7,14C1922.6,1879.2,1920.6,1884.2,1916.9,1887.9z M1826.6,1296.8c0,0-28.3,10.9-46.8,17.2
		c-18.6,6.3-395.2,141.6-395.2,141.6l-241.4,87.1L856,1452.4v-91.8c-216.4,47.1-381.9,18.8-490.2-11.1
		c-128.4-35.5-163.8-73-167.2-118.6c-3.4-45.6,66.3-86.1,132.2-113.4c0,0,34.5-13.6,59.4-22.1c24.9-8.4,339.5-120.9,339.5-120.9
		L856,929.9V183.2c122.1,22.7,300,76.2,395.7,108.4c243.2,83.4,325.7,187.4,325.7,421.5c0,228.1-140.9,314.7-320,228.3V516.1
		c0-49.9-9.1-95.8-56-108.9c-35.9-11.5-58.2,21.9-58.2,71.8v619.9l4.6-1.6c120.7-46.4,215.7-70.7,352.5-75
		c151.1-4.7,267.1,31.5,306.9,43.9c84,26.2,147.3,60.8,152.9,107.2C1967.3,1234.4,1878.1,1278.3,1826.6,1296.8z"/>
	<path d="M1599.1,1739.1c-11.8,0-20.9,4-25.9,10.1c-4.9,6-10.9,18.9-10.9,56.1c0,37.1,6.1,50,10.9,56c5,6.1,14.1,10.2,25.9,10.2
		c11.8,0,20.9-4,25.8-10.2c5-6,11-18.9,11-56c0-37.2-6-50-11-56.1C1619.9,1743.1,1610.8,1739.1,1599.1,1739.1z"/>
	<path d="M514.4,1218.6c-27.4,9.3-82.8,36.7-36.7,58.3c49.3,23,141.9,11,192.1-8l62.1-22.7l124.2-44.4v-105.4l-279.2,100.1
		L514.4,1218.6z"/>
	<path d="M1661.6,1128.3c-15.2-2.1-41.9-5.8-87.8-1.7c-37.6,3.4-65,14-65,14l-96.7,34.4c0,0-159.4,56.4-268.8,95.2v106.1
		l430.1-153.9c0,0,62.1-21.9,86.6-30.3c24.5-8.4,49.8-25.3,44.7-40.5C1699.6,1136.3,1669.2,1129.3,1661.6,1128.3z"/>
</g>
</svg>
