<?xml version="1.0" encoding="utf-8"?>
<!-- Generator: Adobe Illustrator 26.5.0, SVG Export Plug-In . SVG Version: 6.00 Build 0)  -->
<svg version="1.1" xmlns="http://www.w3.org/2000/svg" xmlns:xlink="http://www.w3.org/1999/xlink" x="0px" y="0px"
	 viewBox="0 0 3287.9 2160.4" style="enable-background:new 0 0 3287.9 2160.4;" xml:space="preserve">
<style type="text/css">
	.st0{fill:#FFFFFF;}
	.st1{fill-rule:evenodd;clip-rule:evenodd;}
	.st2{fill-rule:evenodd;clip-rule:evenodd;fill:#FFFFFF;}
</style>
<g id="Layer_1">
</g>
<g id="Layer_2">
	<g>
		<g>
			<g>
				<path d="M1740.6,21.1c0.9,0,1.6,0,2.1,0c0,0,0,0,0,0c11.3,0.5,27.3,2.1,46.9,5.2c6,1,12.4,2,19,3.3
					c78.2,14.6,198.3,50.1,306.1,125c2.3,1.6,4.5,3.2,6.7,4.7c0.8,0.6,1.6,1.1,2.4,1.7c1.4,1,2.9,2,4.3,3c0.9,0.6,1.8,1.3,2.7,1.9
					c1.3,0.9,2.6,1.8,3.9,2.8c1,0.7,2,1.4,3,2.2c1.2,0.8,2.3,1.7,3.5,2.5c1,0.7,2,1.5,3,2.2c1.1,0.8,2.2,1.6,3.3,2.4
					c1.1,0.8,2.1,1.6,3.2,2.4c1,0.7,2,1.5,3,2.2c1.1,0.9,2.3,1.7,3.4,2.6c0.9,0.7,1.8,1.4,2.8,2.1c1.1,0.9,2.2,1.7,3.4,2.5
					c0.9,0.7,1.8,1.4,2.7,2.1c1.1,0.9,2.2,1.7,3.4,2.6c0.9,0.7,1.8,1.3,2.6,2c1.1,0.9,2.2,1.7,3.4,2.6c0.9,0.7,1.7,1.3,2.6,2
					c1.1,0.9,2.3,1.8,3.4,2.7c0.8,0.6,1.6,1.3,2.4,1.9c1.2,0.9,2.3,1.8,3.5,2.7c0.8,0.6,1.5,1.2,2.3,1.8c1.1,0.9,2.3,1.8,3.4,2.8
					c0.8,0.6,1.5,1.2,2.3,1.8c1.1,0.9,2.3,1.9,3.4,2.8c0.7,0.6,1.5,1.2,2.2,1.8c1.2,1,2.3,1.9,3.5,2.9c0.7,0.6,1.4,1.1,2.1,1.7
					c1.2,1,2.3,1.9,3.5,2.9c0.7,0.6,1.3,1.1,2,1.7c1.2,1,2.3,1.9,3.4,2.9c0.6,0.6,1.3,1.1,1.9,1.7c1.1,1,2.3,2,3.4,3
					c0.6,0.5,1.2,1.1,1.9,1.6c1.1,1,2.3,2,3.4,3c0.6,0.5,1.2,1.1,1.8,1.6c1.2,1,2.3,2,3.4,3.1c0.6,0.5,1.1,1,1.7,1.5
					c1.2,1,2.3,2.1,3.4,3.1c0.6,0.5,1.1,1,1.7,1.5c1.1,1,2.3,2.1,3.4,3.1c0.5,0.5,1.1,1,1.6,1.5c1.1,1.1,2.3,2.1,3.4,3.2
					c0.5,0.5,1.1,1,1.6,1.5c1.1,1.1,2.3,2.1,3.4,3.2c0.5,0.5,1,0.9,1.5,1.4c1.1,1.1,2.3,2.2,3.4,3.3c0.5,0.5,1,0.9,1.5,1.4
					c1.1,1.1,2.2,2.2,3.4,3.3c0.5,0.5,1,0.9,1.4,1.4c1.1,1.1,2.2,2.2,3.4,3.3c0.5,0.5,0.9,0.9,1.4,1.4c1.1,1.1,2.2,2.3,3.3,3.4
					c0.4,0.4,0.9,0.9,1.3,1.3c1.1,1.1,2.2,2.3,3.3,3.4c0.4,0.4,0.9,0.9,1.3,1.3c1.1,1.2,2.2,2.3,3.3,3.5c0.4,0.4,0.8,0.9,1.2,1.3
					c1.1,1.2,2.2,2.4,3.3,3.5c0.4,0.4,0.8,0.8,1.2,1.3c1.1,1.2,2.2,2.4,3.3,3.6c0.4,0.4,0.8,0.8,1.2,1.3c1.1,1.2,2.2,2.4,3.3,3.6
					c0.4,0.4,0.8,0.8,1.1,1.3c1.1,1.2,2.2,2.4,3.3,3.7c0.4,0.4,0.7,0.8,1.1,1.2c1.1,1.2,2.2,2.5,3.3,3.7c0.4,0.4,0.7,0.8,1.1,1.2
					c1.1,1.3,2.2,2.5,3.3,3.8c0.3,0.4,0.7,0.8,1,1.2c1.1,1.3,2.2,2.6,3.3,3.9c0.3,0.4,0.6,0.8,1,1.2c1.1,1.3,2.2,2.6,3.3,3.9
					c0.3,0.4,0.6,0.8,0.9,1.1c1.1,1.3,2.2,2.7,3.3,4c0.3,0.4,0.6,0.7,0.9,1.1c1.1,1.3,2.2,2.7,3.3,4c0.3,0.4,0.6,0.7,0.9,1.1
					c1.1,1.4,2.2,2.7,3.3,4.1c0.3,0.4,0.6,0.7,0.8,1.1c1.1,1.4,2.2,2.8,3.3,4.2c0.3,0.3,0.5,0.7,0.8,1c1.1,1.4,2.2,2.8,3.3,4.3
					c0.3,0.3,0.5,0.7,0.8,1c1.1,1.4,2.2,2.9,3.3,4.4c0.2,0.3,0.5,0.6,0.7,1c1.1,1.5,2.2,2.9,3.3,4.4c0.2,0.3,0.5,0.6,0.7,1
					c1.1,1.5,2.2,3,3.3,4.5c0.2,0.3,0.4,0.6,0.7,0.9c1.1,1.5,2.2,3.1,3.3,4.6c0.2,0.3,0.4,0.6,0.6,0.9c1.1,1.6,2.2,3.1,3.3,4.7
					c0.2,0.3,0.4,0.6,0.6,0.8c1.1,1.6,2.2,3.2,3.3,4.8c0.2,0.3,0.4,0.5,0.6,0.8c1.1,1.6,2.2,3.3,3.4,4.9c0.2,0.2,0.3,0.5,0.5,0.7
					c1.1,1.7,2.3,3.3,3.4,5c0.2,0.2,0.3,0.5,0.5,0.7c1.1,1.7,2.3,3.4,3.4,5.1c0.1,0.2,0.3,0.4,0.4,0.7c1.1,1.7,2.3,3.5,3.4,5.2
					c0.1,0.2,0.3,0.4,0.4,0.6c1.2,1.8,2.3,3.6,3.5,5.4c0.1,0.2,0.2,0.3,0.3,0.5c1.2,1.8,2.3,3.7,3.5,5.5c0.1,0.2,0.2,0.3,0.3,0.5
					c1.2,1.9,2.4,3.8,3.6,5.6c0.1,0.1,0.2,0.3,0.2,0.4c1.2,1.9,2.4,3.9,3.6,5.8c0.1,0.1,0.1,0.2,0.2,0.3c1.2,2,2.4,4,3.6,5.9
					c0,0.1,0.1,0.2,0.1,0.2c1.2,2,2.5,4.1,3.7,6.1c0,0,0.1,0.1,0.1,0.1c1.3,2.1,2.5,4.2,3.8,6.3c0,0,0,0,0,0c6,10.1,12,20.5,18,31.3
					c0.9,1.5,1.5,3.2,1.9,4.9c0.5,2.1,0.7,4.2,0.5,6.3l-0.3,3.8c-0.3,3-1.7,5.8-4,7.8l-13.5,11.9c-5.5,3.9-10.6,5.3-16,5.3
					c-3.6,0-7.3-0.6-11.5-1.4c-9.4-1.7-29.6-6.7-57.6-6.7c-3,0-6.1,0.1-9.2,0.2c-218.1,9.8-464.2,71.4-789.6,187.3
					c57.6-286.8,121.1-572.3,185.3-669.2c4.4-5.8,9.1-9.7,13.7-12.3c0,0,0.1-0.1,0.1-0.1c0.2-0.1,0.3-0.2,0.5-0.2
					c0.4-0.2,0.8-0.5,1.2-0.7c0.3-0.1,0.6-0.3,0.9-0.4c0.2-0.1,0.4-0.2,0.6-0.3c0.3-0.1,0.6-0.3,0.9-0.4c0.2-0.1,0.4-0.2,0.6-0.2
					c0.3-0.1,0.6-0.3,1-0.4c0.4-0.2,0.9-0.3,1.3-0.5c0.1,0,0.3-0.1,0.4-0.1c0.5-0.1,0.9-0.3,1.4-0.4c0,0,0,0,0.1,0
					C1733.6,21.2,1737.9,21.1,1740.6,21.1 M1796.6,386.9L1796.6,386.9c57.8-17.2,145.3-31.1,226.8-38.6c39.5-3.7,77.6-5.9,110.2-6.2
					c3.1,0,6.1-0.1,9.1-0.1c26.9,0,49.5,1.4,65.4,4.3c-4.1-4.6-8.3-9.3-12.7-13.9c-3-3.1-6-6.3-9.1-9.4
					c-91.6-92.2-235.4-177.9-352.5-213.5v0c0,0,0,0,0,0c0,0,0,0.3-0.1,0.7c-0.4,4.9-2.8,34.5-7.2,75.7c-0.6,5.5-1.3,11.2-1.9,17.1
					c-0.9,8-1.9,16.4-2.9,25c0,0.1,0,0.2,0,0.4c0,0.1-0.1,0.4-0.1,0.6c0,0.1-0.1,0.4-0.1,0.6c0,0,0,0.1,0,0.1c0,0,0,0.1,0,0.2
					c0,0.1,0,0.1,0,0.2c0,0,0,0.1,0,0.1c0,0.1,0,0.1,0,0.2c0,0.1,0,0.2,0,0.2c0,0.1,0,0.2,0,0.2v0.1c-0.1,0.1-0.1,0.4-0.1,0.6
					c-0.1,0.1-0.1,0.4-0.1,0.6c-0.1,0.2-0.1,0.4-0.1,0.6v0.1c-0.1,0.1-0.1,0.4-0.1,0.6c-0.1,0.2-0.1,0.5-0.1,0.7
					c-0.1,0.1-0.1,0.4-0.1,0.6c-0.1,0.2-0.1,0.4-0.1,0.6c-0.1,0.1-0.1,0.4-0.1,0.5c0,0,0,0,0,0.1c-0.1,0.2-0.1,0.4-0.1,0.6
					c-0.1,0.1-0.1,0.4-0.1,0.6c0,0.1,0,0.1,0,0.1c-0.1,0.2-0.1,0.4-0.1,0.6c0,0.2,0,0.4-0.1,0.6c0,0.1,0,0.4-0.1,0.6
					c0,0.1,0,0.4-0.1,0.5c0,0.1,0,0.1,0,0.1c0,0.1,0,0.4-0.1,0.6c0,0.2,0,0.3-0.1,0.5c-0.1,1-0.3,2.1-0.4,3.1c0,0,0,0,0,0
					c0,0,0,0,0,0c0,0.1,0,0.3-0.1,0.4c0,0,0,0.1,0,0.1c0,0.2-0.1,0.4-0.1,0.6c0,0.2-0.1,0.4-0.1,0.6c0,0.2-0.1,0.4-0.1,0.8
					c-0.1,0.1-0.1,0.4-0.1,0.5v0.1c-0.1,0.1-0.1,0.4-0.1,0.6c-0.1,0.2-0.1,0.4-0.1,0.6c-0.1,0.2-0.1,0.4-0.1,0.6
					c-0.1,0.2-0.1,0.4-0.1,0.6c-0.1,0.2-0.1,0.4-0.1,0.6c0,0.2,0,0.4-0.1,0.6v0.1c0,0.2,0,0.4-0.1,0.6c0,0.1,0,0.3-0.1,0.5
					c0,0.2,0,0.4-0.1,0.7c0,0.1-0.1,0.4-0.1,0.6c0,0.2-0.1,0.4-0.1,0.6c0,0.2-0.1,0.4-0.1,0.6c0,0.1-0.1,0.4-0.1,0.5
					c0,0.2-0.1,0.4-0.1,0.6c0,0,0,0,0,0.1c-0.1,0.1-0.1,0.4-0.1,0.5c-0.1,0.3-0.1,0.5-0.1,0.7c-0.1,0.2-0.1,0.4-0.1,0.6
					c0,0.1,0,0.3,0,0.5c-0.1,0.1-0.1,0.4-0.1,0.6l-0.1,0.1c0,0.2,0,0.4-0.1,0.6c0,0.2,0,0.4-0.1,0.6c0,0.2,0,0.4-0.1,0.6
					c0,0.2-0.1,0.4-0.1,0.6c0,0.2-0.1,0.4-0.1,0.6v0.1c0,0.3-0.1,0.5-0.1,0.6c-0.1,0.2-0.1,0.4-0.1,0.6c-0.1,0.1-0.1,0.4-0.1,0.5
					c0,0.1,0,0.1,0,0.1c-0.1,0.1-0.1,0.4-0.1,0.6c0,0,0,0-0.1,0c0,0,0,0.1,0,0.1c0,0.2,0,0.3,0,0.5c0,0.2,0,0.4-0.1,0.6
					c0,0.2,0,0.4-0.1,0.6c0,0.2-0.1,0.4-0.1,0.6c0,0.2-0.1,0.4-0.1,0.6c0,0.1-0.1,0.4-0.1,0.5c0,0.3-0.1,0.4-0.1,0.6c0,0,0,0,0,0.1
					C1811.2,307.3,1804.5,349.3,1796.6,386.9 M1740.6,0c-6.3,0-12.1,0.8-17.7,2.4c0,0-0.1,0-0.1,0c-0.6,0.2-1.3,0.4-1.9,0.6
					c-0.2,0.1-0.4,0.1-0.6,0.2c-0.7,0.2-1.4,0.5-2.1,0.8c-0.4,0.2-0.9,0.4-1.4,0.5l-0.1,0l-0.1,0c-0.3,0.1-0.5,0.2-0.8,0.3
					c-0.5,0.2-1,0.4-1.5,0.7c-0.3,0.1-0.7,0.3-1,0.5c0,0-0.1,0-0.1,0c-0.4,0.2-0.8,0.4-1.2,0.6c-0.2,0.1-0.5,0.2-0.7,0.4
					c-1.2,0.5-2.3,1.1-3.3,1.9c-0.1,0.1-0.3,0.2-0.4,0.3c-6.9,4.3-13,9.9-18.3,16.9c-0.3,0.4-0.5,0.7-0.8,1.1
					c-30.7,46.3-62.7,134.5-97.9,269.7c-33.7,129.2-66,285.4-90.5,407c-1.5,7.4,1.1,15.1,6.9,20.1c3.9,3.4,8.8,5.1,13.8,5.1
					c2.4,0,4.8-0.4,7.1-1.2c167.1-59.5,308.7-102.9,432.9-132.8c129.3-31.1,244-48.5,350.5-53.3c2.8-0.1,5.6-0.2,8.4-0.2
					c21.9,0,38.7,3.4,48.7,5.4c1.9,0.4,3.6,0.7,5,1c4.7,0.9,9.9,1.7,15.4,1.7c10.3,0,19.6-3,28.2-9.2c0.6-0.4,1.2-0.9,1.7-1.4
					l13.5-11.9c6.3-5.6,10.3-13.3,11-21.8l0.3-3.8c0.4-4.4,0.1-8.8-1-13.1c-0.9-3.6-2.2-7-4-10.2c-6.1-10.8-12.2-21.5-18.3-31.7
					c0,0,0,0,0,0l0,0c0,0,0,0,0,0c-1.3-2.1-2.5-4.2-3.8-6.3c0,0-0.1-0.1-0.1-0.1c-1.3-2.1-2.5-4.2-3.8-6.2c0,0,0,0,0-0.1l-0.1-0.1
					c-1.3-2.1-2.5-4.1-3.7-6.1l-0.2-0.3c-1.2-2-2.5-4-3.7-5.9l-0.1-0.2l-0.1-0.2c-1.2-1.9-2.4-3.8-3.6-5.7l-0.1-0.2l-0.2-0.3
					c-1.2-1.9-2.4-3.8-3.6-5.6l-0.2-0.4l-0.1-0.1c-1.2-1.9-2.4-3.7-3.6-5.5l-0.4-0.6c-1.2-1.8-2.3-3.5-3.5-5.3l-0.1-0.1l-0.4-0.6
					c-1.1-1.7-2.3-3.4-3.5-5.2l-0.2-0.2l-0.3-0.5c-1.2-1.7-2.3-3.4-3.5-5.1l-0.3-0.4l-0.2-0.3c-1.1-1.7-2.3-3.3-3.4-5l-0.3-0.4
					l-0.3-0.4c-1.1-1.7-2.3-3.3-3.4-4.9l-0.6-0.9c-1.1-1.6-2.3-3.2-3.4-4.8l-0.6-0.8l0-0.1c-1.1-1.6-2.3-3.1-3.4-4.7l-0.7-1
					c-1.1-1.5-2.2-3.1-3.4-4.6l-0.1-0.2l-0.6-0.8c-1.1-1.5-2.2-3-3.4-4.5l-0.7-1c-1.1-1.5-2.2-3-3.4-4.5l-0.6-0.8l-0.2-0.2
					c-1.1-1.5-2.2-2.9-3.4-4.4l-0.8-1.1c-1.1-1.4-2.2-2.9-3.3-4.3l-0.6-0.7l-0.3-0.4c-1.1-1.4-2.2-2.8-3.4-4.2l-0.9-1.1
					c-1.1-1.4-2.2-2.8-3.4-4.1l-0.9-1.1c-1.1-1.4-2.2-2.7-3.4-4.1l-0.9-1.1c-1.2-1.4-2.3-2.7-3.4-4.1l-1-1.2
					c-1.1-1.3-2.2-2.6-3.4-3.9l-0.9-1l-0.2-0.2c-1.1-1.3-2.2-2.6-3.4-3.9l-1-1.2l-0.1-0.1c-1.1-1.3-2.2-2.5-3.4-3.8l-0.8-0.8
					l-0.4-0.4c-1.1-1.3-2.2-2.5-3.4-3.8l-1.1-1.2l-0.1-0.1c-1.1-1.2-2.2-2.5-3.4-3.7l-0.8-0.9l-0.4-0.4c-1.1-1.2-2.3-2.5-3.4-3.7
					l-0.7-0.8l-0.5-0.5c-1.2-1.2-2.3-2.4-3.4-3.6l-0.9-0.9l-0.4-0.4c-1.1-1.2-2.3-2.4-3.4-3.6l-0.9-1l-0.4-0.4
					c-1.1-1.2-2.3-2.3-3.4-3.5l-1.1-1.1l-0.3-0.3c-1.1-1.1-2.3-2.3-3.4-3.5l-1-1l-0.4-0.4c-1.1-1.1-2.3-2.3-3.4-3.4l-1-1l-0.5-0.5
					c-1.2-1.1-2.3-2.3-3.4-3.4l-1.1-1l-0.4-0.4c-1.2-1.1-2.3-2.2-3.5-3.3l-0.9-0.9l-0.6-0.6c-1.2-1.1-2.3-2.2-3.5-3.3l-1.1-1
					l-0.5-0.5c-1.2-1.1-2.3-2.2-3.5-3.2l-1-0.9l-0.6-0.6c-1.2-1.1-2.3-2.1-3.5-3.2l-1.1-1l-0.6-0.5c-1.2-1.1-2.4-2.1-3.5-3.2
					l-1.2-1.1l-0.5-0.5l-0.2-0.2c-1.1-1-2.2-2-3.3-3l-1.2-1.1l-0.6-0.5l-0.1-0.1c-1.1-1-2.3-2-3.4-3l-1.2-1l-0.7-0.6l-0.3-0.2
					c-1.1-0.9-2.2-1.9-3.2-2.8l-1.3-1.1l-0.7-0.6l-0.4-0.3c-1-0.9-2.1-1.8-3.1-2.7c-0.4-0.3-0.8-0.7-1.3-1.1l-0.7-0.6l-0.6-0.5
					c-1-0.8-2-1.7-3-2.5c-0.4-0.4-0.9-0.8-1.4-1.1l-0.7-0.6l-0.3-0.3c-1.1-0.9-2.1-1.8-3.2-2.7c-0.5-0.4-1-0.8-1.5-1.2l-0.7-0.6
					l-0.6-0.5c-1-0.8-1.9-1.6-2.9-2.4c-0.5-0.4-1-0.8-1.6-1.3l-0.7-0.6l-0.6-0.5c-1-0.8-1.9-1.5-2.9-2.3l-1.4-1.1l-0.9-0.7l-0.7-0.6
					c-0.9-0.7-1.9-1.5-2.8-2.2l-1.5-1.2l-0.9-0.7l-0.6-0.5c-0.9-0.7-1.9-1.5-2.8-2.2c-0.6-0.5-1.2-0.9-1.8-1.4l-0.8-0.6l-0.9-0.7
					c-0.8-0.6-1.7-1.3-2.5-1.9c-0.6-0.5-1.3-1-2-1.5l-0.7-0.6l-0.8-0.6c-0.9-0.7-1.7-1.3-2.6-2c-0.6-0.5-1.3-1-1.9-1.5l-0.8-0.6
					l-0.9-0.7c-0.8-0.6-1.7-1.3-2.6-1.9l-1.8-1.3l-1-0.8l-1-0.8c-0.8-0.6-1.6-1.2-2.4-1.8c-0.7-0.5-1.4-1-2.1-1.5l-1-0.7l-1.1-0.8
					c-0.7-0.5-1.5-1.1-2.2-1.6c-0.7-0.5-1.5-1.1-2.2-1.6l-1.1-0.8l-1-0.7c-0.7-0.5-1.4-1-2.1-1.5c-0.8-0.6-1.7-1.2-2.6-1.9l-0.9-0.7
					l-1.1-0.8c-0.6-0.5-1.3-0.9-2-1.4c-1.1-0.8-2.2-1.5-3.2-2.3l-0.7-0.5l-0.9-0.7c-0.6-0.4-1.2-0.9-1.8-1.3
					c-1.3-0.9-2.5-1.8-3.8-2.7l-0.5-0.4l-0.9-0.6l-1.5-1.1c-2.3-1.6-4.5-3.2-6.8-4.8c-119.3-83-248.1-116.1-314.2-128.5
					c-6.6-1.2-13.2-2.4-19.6-3.4c-23.5-3.7-39.7-5-49.2-5.5c-0.3,0-0.7,0-1,0l-0.6,0C1741.7,0,1741.2,0,1740.6,0L1740.6,0z
					 M1842.6,230.4c1-8.3,2-16.7,2.9-25c0.7-5.9,1.3-11.6,1.9-17.1c0,0,0-0.1,0-0.1c2.1-19.9,3.8-37.2,5-50.3
					c49.4,17.5,104,43.7,156.2,75.2c54.9,33.1,104.6,70.1,145.2,107.9c-3.6-0.1-7.3-0.1-11.2-0.1c-3,0-6.2,0-9.3,0.1
					c-32.6,0.3-71.3,2.5-112,6.3c-73,6.8-144,17.9-197.6,30.6c4.9-26.5,9.5-55.8,13.8-87.6c0-0.3,0.1-0.6,0.1-0.9
					c0-0.3,0.1-0.5,0.1-0.8c0-0.1,0-0.2,0-0.3c0.1-0.3,0.1-0.5,0.1-0.8c0.1-0.7,0.2-1.3,0.3-2c0-0.2,0-0.3,0.1-0.5
					c0-0.3,0.1-0.6,0.1-0.9c0.1-0.4,0.1-0.8,0.1-1.3c0.1-0.4,0.1-0.8,0.2-1.1c0-0.2,0-0.3,0.1-0.5c0.1-0.5,0.1-0.9,0.2-1.4
					c0-0.1,0-0.2,0-0.4c0.1-0.5,0.1-1,0.2-1.5c0.1-0.4,0.1-0.8,0.1-1.2c0-0.3,0.1-0.6,0.1-1c0-0.1,0-0.2,0-0.3c0-0.2,0-0.4,0.1-0.6
					c0.1-0.5,0.1-0.9,0.2-1.3c0-0.3,0.1-0.6,0.1-0.8c0-0.1,0-0.2,0-0.3c0.1-0.5,0.2-1.1,0.2-1.6c0-0.1,0-0.2,0-0.3
					c0-0.3,0.1-0.5,0.1-0.8c0-0.1,0-0.2,0-0.3c0-0.3,0.1-0.5,0.1-0.8c0-0.3,0.1-0.5,0.1-0.8c0-0.1,0-0.3,0.1-0.5c0-0.1,0-0.2,0-0.3
					c0-0.3,0.1-0.6,0.1-0.9c0-0.1,0-0.2,0-0.2l0.2-1.9c0.1-0.4,0.1-0.8,0.2-1.3c0.1-0.4,0.1-0.9,0.2-1.3c0-0.2,0.1-0.5,0.1-0.7
					c0,0,0-0.1,0-0.1c0.1-0.6,0.2-1.2,0.2-1.8c0-0.2,0.1-0.4,0.1-0.7c0-0.2,0-0.4,0.1-0.5c0-0.1,0-0.2,0-0.3c0-0.3,0.1-0.5,0.1-0.8
					c0-0.3,0.1-0.5,0.1-0.8c0-0.2,0-0.4,0.1-0.5c0-0.2,0.1-0.4,0.1-0.7c0-0.1,0-0.2,0-0.3c0-0.3,0.1-0.5,0.1-0.8
					c0-0.3,0.1-0.5,0.1-0.8c0.1-0.4,0.1-0.8,0.1-1.2c0-0.1,0-0.2,0-0.3C1842.5,231,1842.5,230.7,1842.6,230.4L1842.6,230.4z"/>
			</g>
			<g>
				<path d="M2212.5,567.2c1,0,2,0,3,0c1.2,0,2.3,0,3.5,0.1c1.1,0,2.2,0.1,3.3,0.1c1.2,0,2.3,0.1,3.5,0.2c1.1,0.1,2.2,0.1,3.3,0.2
					c1.1,0.1,2.3,0.2,3.4,0.3c1.1,0.1,2.2,0.2,3.3,0.3c1.1,0.1,2.3,0.2,3.4,0.4c1.1,0.1,2.2,0.3,3.2,0.4c1.1,0.2,2.2,0.3,3.4,0.5
					c1.1,0.2,2.1,0.3,3.2,0.5c1.1,0.2,2.2,0.4,3.3,0.6c1.1,0.2,2.1,0.4,3.1,0.6c1.1,0.2,2.2,0.5,3.3,0.7c1,0.2,2.1,0.5,3.1,0.7
					c1.1,0.3,2.2,0.5,3.2,0.8c1,0.3,2,0.5,3.1,0.8c1.1,0.3,2.1,0.6,3.2,0.9c1,0.3,2,0.6,3,0.9c1,0.3,2.1,0.7,3.1,1c1,0.3,2,0.7,3,1
					c0.5,0.2,1,0.3,1.4,0.5c2.2,0.8,4.4,1.5,6.7,2.1c0,0,0.1,0,0.1,0c1.5,0.4,2.9,0.8,4.4,1.3c0.4,0.1,0.8,0.3,1.2,0.4
					c1.2,0.4,2.3,0.7,3.5,1.1c0.4,0.1,0.8,0.3,1.2,0.4c3.1,1.1,6.3,2.2,9.5,3.5c0.3,0.1,0.6,0.3,1,0.4c1.4,0.6,2.8,1.1,4.2,1.7
					c0.3,0.1,0.5,0.2,0.8,0.3c3.4,1.4,6.8,3,10.3,4.7c0.2,0.1,0.4,0.2,0.6,0.3c1.7,0.8,3.4,1.7,5.1,2.6c0,0,0.1,0,0.1,0
					c3.6,1.9,7.3,3.9,11,6.1c0.1,0,0.1,0.1,0.2,0.1c11.1,6.6,22.4,14.6,33.4,24c0,0,0,0,0,0c3.9,3.1,7.1,6,9.5,8.5
					c52.9,49.8,99.4,135.5,103.8,276.5c2.6,255.4-125.7,418.4-228,508.2c-18.5,17-40,33.6-63.4,48.6c-0.3,0.2-0.6,0.4-0.9,0.6
					c-1,0.6-2,1.3-2.9,1.9c-1.3,0.9-2.7,1.7-4.1,2.5c-0.3,0.2-0.7,0.4-1,0.6c-1.9,1.1-3.7,2.3-5.6,3.4c-0.2,0.1-0.3,0.2-0.5,0.3
					c-57.7,34.4-125.5,58.9-191,58.9c-0.5,0-1,0-1.5,0c0,0,0,0,0,0c0,0,0,0,0,0c0,0,0,0,0,0c-1,0-2.1,0-3.1,0c-1,0-2,0-3-0.1
					c-1,0-2.1-0.1-3.1-0.1c-1.2-0.1-2.5-0.1-3.7-0.2c-1.4-0.1-2.9-0.2-4.3-0.3c-1.1-0.1-2.2-0.2-3.3-0.3c-1-0.1-2-0.2-3-0.3
					c-1.2-0.1-2.4-0.3-3.5-0.4c-1.3-0.1-2.5-0.3-3.8-0.5c-1.3-0.2-2.7-0.4-4-0.6c-0.9-0.1-1.8-0.3-2.8-0.4c-1.2-0.2-2.4-0.4-3.6-0.6
					c-0.8-0.1-1.6-0.3-2.4-0.4c-1.8-0.3-3.6-0.7-5.4-1.1c-0.8-0.2-1.6-0.4-2.5-0.6c-1.2-0.3-2.5-0.6-3.7-0.9
					c-0.8-0.2-1.5-0.4-2.3-0.6c-1.8-0.5-3.6-1-5.5-1.5c-0.7-0.2-1.4-0.4-2.1-0.6c-1.3-0.4-2.7-0.8-4-1.3c-0.7-0.2-1.4-0.5-2.2-0.7
					c-1.8-0.6-3.7-1.3-5.5-1.9c-0.5-0.2-1-0.4-1.5-0.6c-1.5-0.6-3-1.1-4.4-1.7c-0.7-0.3-1.3-0.5-2-0.8c-1.7-0.7-3.3-1.4-5-2.2
					c-0.3-0.1-0.7-0.3-1-0.4c-1.8-0.8-3.6-1.7-5.4-2.5c-0.6-0.3-1.2-0.6-1.8-0.9c-1.5-0.8-3.1-1.6-4.6-2.4c-0.4-0.2-0.8-0.4-1.2-0.6
					c-1.8-1-3.7-2-5.5-3.1c-0.5-0.3-1-0.6-1.5-0.9c-1.5-0.9-3-1.8-4.4-2.7c-0.4-0.3-0.9-0.6-1.3-0.8c-1.8-1.2-3.6-2.4-5.4-3.6
					c-0.4-0.3-0.8-0.6-1.2-0.8c-1.5-1-3-2.1-4.5-3.2c-0.5-0.3-0.9-0.7-1.4-1c-1.8-1.3-3.6-2.7-5.4-4.1c-0.2-0.2-0.5-0.4-0.7-0.6
					c-1.6-1.3-3.1-2.5-4.7-3.9c-0.5-0.4-0.9-0.8-1.4-1.2c-1.8-1.5-3.5-3.1-5.3-4.7c-47.1-46.7-74.5-103.5-88.3-163.8
					c0,0.1,0,0.2,0,0.3c-3.8-16.3-6.5-33-8.3-49.9c-0.1-0.6-0.1-1.2-0.2-1.8c-0.2-1.6-0.3-3.2-0.5-4.9
					c-5.4-56.8-0.7-114.9,9.5-169.4c0.6-3.1,1.2-6.3,1.8-9.4c0,0,0-0.1,0-0.1c16.2-80.9,44.3-153,69.1-199.7
					c0.2-0.4,0.5-0.9,0.7-1.3c0.4-0.7,0.8-1.5,1.2-2.2c0.6-1.1,1.2-2.1,1.7-3.2c0.3-0.5,0.5-0.9,0.8-1.4c0.4-0.6,0.7-1.3,1.1-1.9
					c0.6-1.1,1.2-2.1,1.8-3.1c1.2-2.3,2.4-4.6,3.6-6.9c0.8-1.6,1.6-3.1,2.4-4.7c1.1-2.1,2.2-4.1,3.3-6.1c0.9-1.8,1.9-3.5,2.8-5.3
					c1.1-1.9,2.1-3.8,3.2-5.7c1-1.8,2-3.6,3-5.4c1-1.8,2.1-3.6,3.2-5.4c1.1-1.8,2.1-3.7,3.2-5.4c1.1-1.8,2.1-3.6,3.2-5.3
					c1.1-1.8,2.1-3.6,3.2-5.3c1.1-1.8,2.2-3.5,3.2-5.2c1.1-1.7,2.2-3.5,3.2-5.2c1.1-1.7,2.2-3.4,3.3-5.1c1.1-1.7,2.2-3.4,3.3-5.1
					c1.1-1.7,2.2-3.3,3.3-5c1.1-1.7,2.2-3.4,3.3-5c1.1-1.6,2.2-3.2,3.3-4.9c1.1-1.6,2.2-3.3,3.4-4.9c1.1-1.6,2.2-3.1,3.4-4.7
					c1.1-1.6,2.3-3.2,3.4-4.8c1.1-1.6,2.3-3.1,3.4-4.6c1.1-1.6,2.3-3.1,3.4-4.7c1.1-1.5,2.3-3,3.4-4.5c1.2-1.5,2.3-3.1,3.5-4.6
					c1.1-1.5,2.3-2.9,3.4-4.3c1.2-1.5,2.3-3,3.5-4.4c1.2-1.4,2.3-2.8,3.5-4.2c1.2-1.4,2.4-2.9,3.5-4.3c1.2-1.4,2.3-2.7,3.5-4.1
					c1.2-1.4,2.4-2.8,3.6-4.2c1.2-1.3,2.3-2.7,3.5-4c1.2-1.4,2.4-2.8,3.6-4.1c1.2-1.3,2.4-2.6,3.5-3.9c1.2-1.3,2.4-2.7,3.6-4
					c1.2-1.3,2.4-2.5,3.5-3.8c1.2-1.3,2.4-2.6,3.7-3.9c1.2-1.2,2.4-2.4,3.6-3.7c1.2-1.3,2.5-2.5,3.7-3.8c1.2-1.2,2.4-2.4,3.6-3.5
					c1.2-1.2,2.5-2.4,3.7-3.6c1.2-1.2,2.4-2.3,3.6-3.4c1.2-1.2,2.5-2.4,3.7-3.5c1.2-1.1,2.4-2.2,3.6-3.3c1.3-1.2,2.5-2.3,3.8-3.4
					c1.2-1.1,2.4-2.1,3.6-3.2c1.3-1.1,2.5-2.2,3.8-3.3c1.2-1,2.4-2.1,3.6-3.1c1.3-1.1,2.5-2.2,3.8-3.2c1.2-1,2.4-2,3.6-3
					c1.3-1,2.5-2.1,3.8-3.1c1.2-1,2.4-1.9,3.7-2.9c1.3-1,2.5-2,3.8-3c1.2-0.9,2.4-1.8,3.7-2.8c1.3-1,2.6-1.9,3.8-2.9
					c1.2-0.9,2.4-1.8,3.7-2.7c1.3-0.9,2.6-1.8,3.8-2.8c1.2-0.9,2.4-1.7,3.7-2.5c1.3-0.9,2.6-1.8,3.9-2.6c1.2-0.8,2.4-1.6,3.7-2.4
					c1.3-0.9,2.6-1.7,3.9-2.5c1.2-0.8,2.4-1.6,3.7-2.3c1.3-0.8,2.6-1.6,3.9-2.4c1.2-0.8,2.5-1.5,3.7-2.2c1.3-0.8,2.6-1.5,3.9-2.3
					c1.2-0.7,2.5-1.4,3.7-2.1c1.3-0.7,2.6-1.5,3.9-2.2c1.2-0.7,2.4-1.3,3.7-2c1.3-0.7,2.6-1.4,3.9-2.1c1.2-0.6,2.4-1.3,3.7-1.9
					c1.3-0.7,2.6-1.3,3.9-2c1.2-0.6,2.4-1.2,3.7-1.8c1.3-0.6,2.6-1.3,3.9-1.9c1.2-0.6,2.4-1.1,3.7-1.7c1.3-0.6,2.6-1.2,3.9-1.8
					c1.2-0.5,2.4-1.1,3.7-1.6c1.3-0.6,2.6-1.1,3.8-1.6c1.2-0.5,2.4-1,3.6-1.5c1.3-0.5,2.6-1,3.8-1.5c1.2-0.5,2.4-0.9,3.6-1.4
					c1.3-0.5,2.6-1,3.8-1.4c1.2-0.4,2.4-0.9,3.6-1.3c1.3-0.4,2.5-0.9,3.8-1.3c1.2-0.4,2.4-0.8,3.6-1.2c1.3-0.4,2.5-0.8,3.8-1.2
					c1.2-0.4,2.4-0.7,3.6-1.1c1.3-0.4,2.5-0.7,3.8-1.1c1.2-0.3,2.4-0.7,3.6-1c1.3-0.3,2.5-0.7,3.8-1c1.2-0.3,2.4-0.6,3.6-0.9
					c1.3-0.3,2.5-0.6,3.7-0.9c1.2-0.3,2.4-0.5,3.5-0.8c1.2-0.3,2.5-0.5,3.7-0.8c1.2-0.2,2.4-0.5,3.5-0.7c1.2-0.2,2.5-0.5,3.7-0.7
					c1.2-0.2,2.3-0.4,3.5-0.6c1.2-0.2,2.5-0.4,3.7-0.6c1.2-0.2,2.3-0.3,3.5-0.5c1.2-0.2,2.4-0.3,3.7-0.5c1.2-0.1,2.3-0.3,3.5-0.4
					c1.2-0.1,2.4-0.2,3.6-0.3c1.1-0.1,2.3-0.2,3.4-0.3c1.2-0.1,2.4-0.2,3.6-0.2c1.1-0.1,2.3-0.1,3.4-0.2c1.2-0.1,2.4-0.1,3.6-0.1
					c1.1,0,2.3-0.1,3.4-0.1c1.2,0,2.4,0,3.5,0C2212.3,567.2,2212.4,567.2,2212.5,567.2 M2018.1,1407.3c-1.2-1.2-1.8-1.8-1.8-1.8
					c10.1,8.5,25,13,43.3,13.3c0.6,0,1.2,0,1.8,0c1.6,0,3.2,0,4.9-0.1c0.1,0,0.2,0,0.3,0c0.8,0,1.6-0.1,2.4-0.1
					c1-0.1,1.9-0.1,2.9-0.2c0.2,0,0.4,0,0.6,0c73-6.4,186.9-72.2,266.5-217.1c108.9-197.6,52.6-408.8-37.3-429.4
					c-3.6-0.7-7.5-1.1-11.7-1.1c-58.2,0-168.9,72.4-242.2,218c-84.5,167.2-105.1,337-31.9,416.9
					C2016.6,1406.1,2017.3,1406.7,2018.1,1407.3 M2212.5,546.1h-0.3c-1.3,0-2.6,0-3.9,0c-1.2,0-2.4,0-3.7,0.1
					c-1.3,0-2.6,0.1-3.9,0.1c-1.2,0.1-2.5,0.1-3.7,0.2c-1.3,0.1-2.6,0.2-3.9,0.3c-1.2,0.1-2.5,0.2-3.7,0.3c-1.3,0.1-2.6,0.2-3.9,0.4
					c-1.2,0.1-2.5,0.3-3.7,0.4c-1.3,0.2-2.6,0.3-4,0.5c-1.3,0.2-2.5,0.3-3.8,0.5c-1.3,0.2-2.6,0.4-4,0.6c-1.3,0.2-2.5,0.4-3.8,0.6
					c-1.3,0.2-2.7,0.5-4,0.7c-1.3,0.2-2.5,0.5-3.8,0.7c-1.3,0.3-2.7,0.5-4,0.8c-1.3,0.3-2.5,0.5-3.8,0.8c-1.3,0.3-2.7,0.6-4,0.9
					c-1.3,0.3-2.6,0.6-3.8,0.9c-1.3,0.3-2.7,0.7-4,1.1c-1.3,0.3-2.6,0.7-3.8,1c-1.4,0.4-2.7,0.8-4.1,1.2c-1.3,0.4-2.6,0.8-3.8,1.2
					c-1.3,0.4-2.7,0.9-4.1,1.3c-1.3,0.4-2.6,0.8-3.8,1.3c-1.4,0.5-2.7,0.9-4.1,1.4c-1.3,0.4-2.6,0.9-3.8,1.4c-1.4,0.5-2.7,1-4.1,1.5
					l-0.2,0.1c-1.2,0.5-2.5,0.9-3.7,1.4c-1.3,0.5-2.6,1-3.9,1.6l-0.2,0.1l-0.3,0.1c-1.2,0.5-2.4,1-3.6,1.5c-1.3,0.6-2.7,1.2-4.1,1.7
					l-0.4,0.2c-1.2,0.5-2.3,1-3.5,1.5c-1.2,0.6-2.5,1.1-3.8,1.7l-0.3,0.1l-0.3,0.1c-1.2,0.5-2.4,1.1-3.6,1.7
					c-1.3,0.6-2.6,1.3-3.9,1.9l-0.2,0.1l-0.5,0.2c-1.1,0.5-2.2,1.1-3.4,1.7c-1.3,0.6-2.5,1.3-3.8,1.9l-0.3,0.2l-0.5,0.2
					c-1.1,0.6-2.3,1.2-3.4,1.8c-1.2,0.7-2.5,1.3-3.7,2l-0.4,0.2l-0.5,0.3c-1.1,0.6-2.2,1.2-3.4,1.9c-1.2,0.7-2.4,1.4-3.6,2l-0.4,0.3
					l-0.5,0.3c-1.1,0.7-2.3,1.3-3.4,2c-1.2,0.7-2.5,1.5-3.7,2.2l-0.4,0.2l-0.5,0.3c-1.1,0.7-2.2,1.3-3.4,2c-1.2,0.7-2.4,1.5-3.6,2.2
					l-0.5,0.3l-0.7,0.4c-1.1,0.7-2.1,1.3-3.2,2c-1.2,0.8-2.3,1.5-3.5,2.3l-0.5,0.4l-0.7,0.5c-1,0.7-2.1,1.4-3.1,2.1
					c-1.2,0.8-2.3,1.6-3.5,2.4l-0.5,0.4l-0.7,0.5c-1,0.7-2.1,1.4-3.1,2.2c-1.1,0.8-2.2,1.6-3.4,2.4l-0.6,0.5l-0.7,0.5
					c-1.1,0.8-2.1,1.5-3.2,2.3c-1.1,0.8-2.2,1.6-3.3,2.5l-0.7,0.5l-0.8,0.6c-1,0.8-2,1.5-3,2.3c-1.1,0.8-2.2,1.7-3.3,2.5l-0.7,0.6
					l-0.8,0.6c-1,0.8-2,1.6-3,2.4c-1.1,0.9-2.1,1.7-3.2,2.6l-0.8,0.6l-0.8,0.7c-1,0.8-2,1.6-3,2.4c-1.1,0.9-2.2,1.8-3.2,2.7
					l-0.7,0.6l-0.8,0.7c-1,0.8-1.9,1.6-2.9,2.5c-1.1,0.9-2.1,1.8-3.1,2.8l-0.8,0.7l-0.9,0.8c-1,0.8-1.9,1.7-2.9,2.6
					c-1,0.9-2.1,1.9-3.1,2.9l-0.8,0.7l-0.9,0.8c-1,0.9-1.9,1.7-2.9,2.6c-1,1-2,1.9-3.1,2.9l-0.8,0.8l-0.8,0.8
					c-1,0.9-1.9,1.8-2.9,2.8c-1,1-2,1.9-3,2.9l-0.9,0.9l-0.9,0.9c-0.9,0.9-1.9,1.9-2.8,2.8c-1,1-2,2-2.9,3l-0.9,0.9l-0.9,0.9
					c-0.9,1-1.9,1.9-2.8,2.9c-1,1-1.9,2-2.9,3.1l-0.9,1l-0.9,1c-0.9,1-1.8,1.9-2.7,2.9c-1,1-1.9,2.1-2.9,3.2l-0.9,1l-1,1.1
					c-0.9,1-1.8,2-2.7,3c-0.9,1-1.8,2.1-2.8,3.1l-1,1.1l-1,1.1c-0.9,1-1.8,2-2.7,3c-0.9,1.1-1.8,2.2-2.8,3.2l-0.9,1.1l-0.9,1.1
					c-0.9,1.1-1.8,2.1-2.7,3.2c-0.9,1.1-1.8,2.2-2.7,3.3l-0.9,1.2l-1,1.2c-0.9,1.1-1.7,2.1-2.6,3.2c-0.9,1.1-1.8,2.3-2.7,3.4l-1,1.2
					l-0.9,1.2c-0.9,1.1-1.7,2.2-2.6,3.3c-0.9,1.1-1.7,2.2-2.6,3.4l-1,1.3l-1,1.4c-0.8,1.1-1.7,2.2-2.5,3.3c-0.8,1.1-1.7,2.3-2.5,3.4
					l-1,1.4l-1,1.4c-0.8,1.1-1.7,2.2-2.5,3.4c-0.8,1.2-1.7,2.3-2.5,3.5l-1,1.4l-1,1.4c-0.8,1.1-1.6,2.3-2.4,3.4
					c-0.8,1.2-1.6,2.4-2.4,3.5l-1,1.5l-1,1.5c-0.8,1.2-1.6,2.3-2.4,3.5c-0.8,1.2-1.6,2.4-2.5,3.7l-1,1.5l-1,1.5
					c-0.8,1.2-1.6,2.4-2.4,3.6c-0.8,1.2-1.6,2.5-2.4,3.7l-1,1.5l-1,1.6c-0.8,1.2-1.5,2.4-2.3,3.6c-0.8,1.2-1.5,2.5-2.3,3.7l-1,1.6
					l-1,1.7c-0.8,1.2-1.5,2.4-2.3,3.7c-0.8,1.3-1.5,2.5-2.3,3.8l-1,1.6l-1,1.6c-0.8,1.3-1.5,2.6-2.3,3.9c-0.7,1.3-1.5,2.5-2.2,3.8
					l-1,1.8l-1,1.7c-0.8,1.3-1.5,2.6-2.3,3.9c-0.7,1.2-1.4,2.5-2.1,3.8l-1,1.8l-1,1.8c-0.8,1.3-1.5,2.7-2.3,4
					c-0.6,1.2-1.3,2.4-1.9,3.6l-1,1.8l-1,1.9c-0.8,1.5-1.6,2.9-2.4,4.4c-0.5,1-1.1,2-1.6,3c-0.3,0.6-0.6,1.2-0.9,1.8l-0.9,1.8
					c-0.8,1.6-1.7,3.2-2.5,4.8c-0.5,0.9-1.1,1.9-1.6,2.8c-0.4,0.7-0.8,1.3-1.1,2l-0.8,1.4c-0.6,1.1-1.2,2.2-1.8,3.3
					c-0.4,0.8-0.8,1.5-1.2,2.3l-0.7,1.4c-14.5,27.2-50.3,101.7-71.1,205.5c0,0.1,0,0.1,0,0.2c-0.6,3.1-1.2,6.2-1.8,9.5
					c-11.6,62-14.9,121-9.8,175.3c0.1,1.5,0.3,3,0.5,4.6l0.1,0.5l0.1,0.7c0,0.4,0.1,0.8,0.1,1.2c1.9,18,4.9,35.6,8.7,52.3
					c0.1,0.4,0.2,0.8,0.3,1.2c15.9,68.6,47.4,126.7,93.6,172.6c0.2,0.2,0.4,0.4,0.6,0.5c1.7,1.6,3.6,3.2,5.7,5.1
					c0.5,0.4,1,0.9,1.5,1.3c1.7,1.5,3.4,2.9,5.1,4.2l0.2,0.1c0.2,0.2,0.4,0.3,0.6,0.5c1.9,1.5,3.8,3,5.9,4.6
					c0.4,0.3,0.8,0.6,1.1,0.8l0.4,0.3c1.6,1.2,3.3,2.4,4.9,3.5l0.4,0.3c0.3,0.2,0.6,0.4,0.9,0.7c2,1.4,4,2.7,6,4
					c0.4,0.2,0.7,0.4,1.1,0.7l0.4,0.3c1.6,1,3.3,2,4.9,3l0.5,0.3c0.4,0.2,0.8,0.5,1.2,0.7c2.2,1.3,4.2,2.4,6.1,3.4
					c0.3,0.2,0.6,0.3,1,0.5l0.4,0.2c1.6,0.9,3.3,1.8,5,2.6c0.7,0.3,1.3,0.7,2,1c2.2,1.1,4.1,2,5.9,2.8c0.3,0.1,0.5,0.2,0.8,0.4
					l0.3,0.1c1.8,0.8,3.6,1.6,5.5,2.4c0.7,0.3,1.5,0.6,2.2,0.9c1.6,0.6,3.2,1.3,4.9,1.9l0.5,0.2c0.4,0.2,0.8,0.3,1.2,0.4
					c1.9,0.7,3.9,1.4,6.1,2.1c0.7,0.2,1.4,0.5,2.1,0.7l0.3,0.1c1.5,0.5,2.9,0.9,4.4,1.4l0.6,0.2c0.6,0.2,1.1,0.3,1.7,0.5
					c1.9,0.6,4,1.1,6,1.7c0.7,0.2,1.3,0.3,2,0.5l0.5,0.1c1.4,0.3,2.7,0.7,4.1,1l0.4,0.1c0.8,0.2,1.6,0.4,2.3,0.5
					c2.1,0.5,4,0.9,5.9,1.2c0.7,0.1,1.3,0.2,2,0.4l0.7,0.1c1.3,0.2,2.6,0.5,3.9,0.7c1,0.2,2,0.3,3,0.5c1.5,0.2,2.9,0.4,4.3,0.6
					c1.4,0.2,2.8,0.4,4.2,0.5c1.3,0.2,2.6,0.3,3.9,0.4c1.1,0.1,2.1,0.2,3.2,0.3c1.2,0.1,2.4,0.2,3.6,0.3c1.6,0.1,3.1,0.2,4.7,0.3
					c1.3,0.1,2.7,0.1,4,0.2c1.1,0,2.3,0.1,3.4,0.1c1.1,0,2.2,0.1,3.3,0.1l0.6,0c0.8,0,1.7,0,2.5,0l0.3,0c0.4,0,0.8,0,1.2,0
					c0.1,0,0.3,0,0.4,0c33.4,0,68.7-5.9,104.9-17.5c32.6-10.5,65.2-25.4,96.9-44.3l0.5-0.3c1.9-1.2,3.9-2.3,5.8-3.5l0.6-0.4l0.4-0.3
					c1.5-0.9,2.9-1.8,4.3-2.7c1-0.6,2-1.3,3.1-1.9l0.8-0.5l0.2-0.1c23.9-15.4,46.1-32.5,66-50.6c65.7-57.7,118.9-124.2,157.9-197.8
					c52.4-98.7,78.3-208.4,77.2-326.3c0-0.1,0-0.3,0-0.4c-2.1-68-14-128.5-35.3-179.9c-18.3-44-43.4-81.3-74.7-110.9
					c-3.1-3.2-6.8-6.5-11-9.9c-11.4-9.6-23.5-18.3-36-25.8l-0.2-0.1c-4-2.4-8-4.6-12-6.7c0,0-0.1,0-0.1-0.1c0,0,0,0,0,0
					c-1.8-0.9-3.7-1.9-5.6-2.8l-0.6-0.3c-3.8-1.8-7.6-3.6-11.3-5.2l-0.7-0.3l-0.2-0.1c-1.5-0.6-3.1-1.3-4.6-1.9l-0.3-0.1l-0.8-0.3
					c-3.5-1.4-7-2.7-10.5-3.8c-0.4-0.1-0.7-0.2-1.1-0.4l-0.3-0.1c-1.3-0.4-2.6-0.8-3.9-1.2l-0.4-0.1l-0.9-0.3
					c-1.8-0.5-3.3-1-4.8-1.4c-0.1,0-0.2-0.1-0.3-0.1c-1.8-0.5-3.5-1-5.2-1.6c-0.4-0.1-0.8-0.3-1.2-0.4l-0.3-0.1
					c-1.1-0.4-2.2-0.7-3.3-1.1c-1.2-0.4-2.3-0.7-3.5-1.1c-1.1-0.3-2.2-0.7-3.4-1c-1.2-0.3-2.3-0.7-3.5-1c-1.1-0.3-2.3-0.6-3.4-0.9
					c-1.2-0.3-2.4-0.6-3.6-0.9c-1.2-0.3-2.3-0.5-3.4-0.8c-1.2-0.3-2.4-0.5-3.6-0.8c-1.1-0.2-2.3-0.5-3.5-0.7
					c-1.2-0.2-2.4-0.4-3.7-0.6c-1.2-0.2-2.3-0.4-3.5-0.6c-1.2-0.2-2.5-0.4-3.7-0.5c-1.2-0.2-2.4-0.3-3.6-0.5
					c-1.2-0.1-2.5-0.3-3.7-0.4c-1.2-0.1-2.4-0.2-3.6-0.3c-1.2-0.1-2.5-0.2-3.8-0.3c-1.2-0.1-2.4-0.2-3.6-0.2
					c-1.3-0.1-2.5-0.1-3.8-0.2c-1.2-0.1-2.4-0.1-3.6-0.1c-1.3,0-2.5-0.1-3.8-0.1C2214.7,546.1,2213.6,546.1,2212.5,546.1
					L2212.5,546.1z M2029.1,1388.7c-29.3-34.1-41.6-88.3-35.4-157.1c3.1-35,11-72.8,23.3-112.4c12.4-39.8,29.1-80.6,49.6-121.2
					c40.5-80.4,88.3-129.6,121.4-156.8c37.2-30.6,76.3-49.6,102-49.6c2.7,0,5.1,0.2,7.2,0.6c21.5,5.1,42.4,27,57.3,60.4
					c18.1,40.5,26.1,93.6,22.5,149.4c-4.2,64.3-23.7,129.7-56.4,188.9c-34.8,63.3-79.7,116.5-129.9,153.8
					c-40.7,30.2-84.4,49.4-119.9,52.5l-0.2,0l-0.4,0c-0.9,0.1-1.7,0.1-2.5,0.2l-0.1,0c-0.6,0-1.2,0.1-1.8,0.1l-0.2,0
					c0,0-0.1,0-0.1,0c-1.4,0.1-2.7,0.1-4.1,0.1c-0.5,0-1,0-1.5,0c-13.2-0.2-23.9-3.2-30.1-8.4
					C2029.6,1389.1,2029.4,1388.9,2029.1,1388.7L2029.1,1388.7z"/>
			</g>
			<g>
				<path d="M1351.3,895c2.1,0,4.2,0.5,6,1.6l0.1,0c0,0,0,0,0,0c8.3,4.6,30.2,16.8,56.1,31.2c0.2,0.1,0.5,0.3,0.7,0.4
					c6.9,3.8,14,7.8,21.3,11.8c1,0.6,2.1,1.1,3.1,1.7c25.8,14.3,52.5,29.2,72.5,40.3c0.2,0.1,0.3,0.2,0.5,0.3
					c1.9,1.1,3.8,2.1,5.6,3.1c0.1,0,0.1,0.1,0.2,0.1c4.3,2.4,8.1,4.5,11.5,6.4c1.1,0.6,2.2,1.2,3.2,1.8c0.4,0.2,0.8,0.4,1.2,0.6
					c0.3,0.1,0.5,0.3,0.8,0.4c0.3,0.2,0.7,0.4,1,0.6c0.3,0.2,0.5,0.3,0.8,0.4c0.2,0.1,0.5,0.3,0.7,0.4c0.4,0.2,0.8,0.4,1.1,0.6
					c0.1,0.1,0.2,0.1,0.3,0.2c0.3,0.2,0.6,0.4,0.9,0.5c0.2,0.1,0.3,0.2,0.5,0.3c0.3,0.1,0.5,0.3,0.7,0.4c0.1,0.1,0.3,0.1,0.4,0.2
					c0.3,0.2,0.6,0.3,0.8,0.5c0,0,0,0,0,0c0.6,0.3,1,0.5,1.2,0.6c7.8,3.3,4.6,7.9,3.9,11.2l-2.7,6.4l-5,11.7l0,0l-0.1,0l0,0l0.1,0
					c-0.9,1.8-1.8,3.8-2.8,5.9c0,0,0,0.1,0,0.1c0,0,0,0,0,0c-16.4,35-50.7,117-92.8,215.3c-0.1,0.1-0.1,0.3-0.2,0.4
					c-1,2.3-2,4.7-3,7c-0.2,0.5-0.4,1-0.6,1.5c-0.9,2-1.7,4-2.6,6c-0.3,0.7-0.6,1.4-0.9,2.1c-0.8,1.8-1.6,3.6-2.3,5.5
					c-0.4,0.9-0.8,1.9-1.2,2.8c-0.7,1.6-1.4,3.2-2,4.7c-0.5,1.1-1,2.2-1.4,3.3c-0.6,1.4-1.2,2.9-1.9,4.3c-0.5,1.3-1.1,2.5-1.6,3.8
					c-0.6,1.3-1.1,2.6-1.7,3.9c-0.6,1.4-1.2,2.7-1.8,4.1c-0.5,1.2-1,2.4-1.6,3.6c-0.6,1.5-1.3,2.9-1.9,4.4c-0.5,1.1-1,2.3-1.5,3.4
					c-0.6,1.5-1.3,2.9-1.9,4.4c-0.5,1.2-1.1,2.4-1.6,3.7c-0.6,1.4-1.2,2.8-1.8,4.2c-0.5,1.2-1.1,2.4-1.6,3.7c-0.6,1.5-1.3,3-1.9,4.5
					c-0.5,1.1-1,2.3-1.5,3.4c-0.7,1.5-1.3,3-2,4.5c-0.5,1.2-1,2.4-1.6,3.6c-0.6,1.5-1.3,3-1.9,4.4c-0.5,1.2-1,2.3-1.5,3.5
					c-0.7,1.6-1.4,3.2-2.1,4.7c-0.5,1-0.9,2.1-1.4,3.1c-0.7,1.7-1.5,3.4-2.2,5c-0.4,1-0.8,1.9-1.3,2.9c-0.8,1.7-1.5,3.5-2.3,5.2
					c-0.4,0.9-0.8,1.8-1.2,2.7c-0.8,1.8-1.6,3.6-2.4,5.4c-0.4,0.9-0.8,1.8-1.2,2.7c-0.8,1.8-1.6,3.6-2.4,5.3
					c-0.4,0.9-0.8,1.8-1.2,2.6c-0.8,1.9-1.6,3.7-2.5,5.6c-0.3,0.7-0.6,1.4-0.9,2c-0.9,2-1.8,4.1-2.7,6.1c-0.2,0.5-0.4,1-0.7,1.5
					c-1,2.2-2,4.4-2.9,6.6c-0.1,0.2-0.2,0.4-0.3,0.6c-3.5,7.8-7,15.6-10.5,23.4c168.3,79.9,292.7,108.7,419.8,122.5
					c3.3,0.5,6.4,1.5,9,3.1c0.1,0.1,0.2,0.1,0.3,0.2c0.7,0.5,1.3,1,2,1.5c0.2,0.1,0.4,0.3,0.5,0.4c3,2.8,4.8,6.8,4.5,11.7l-0.8,5.7
					l-1.2,8.8c-0.5,3.4-1.2,5.6-2,7.3c-0.7,1.4-1.6,2.4-2.5,3.3c-0.6,0.6-1.2,1.1-1.9,1.8c-0.4,0.4-0.9,0.8-1.3,1.3c0,0,0,0,0,0
					c-0.3,0.3-0.6,0.5-1,0.8c0,0-0.1,0.1-0.1,0.1c-0.1,0.1-0.3,0.2-0.4,0.3c-0.2,0.2-0.4,0.3-0.6,0.5c0,0-0.1,0.1-0.1,0.1
					c0,0,0,0,0,0c0,0-0.1,0.1-0.1,0.1c-0.1,0.1-0.2,0.1-0.2,0.2c-1,0.7-2,1.5-3,2.2c0,0,0,0,0,0c-15.6,11.2-48.1,31.8-60.6,39.7
					c-3.4,2.1-7.1,3.7-11,4.6l-2.8,0.7c-2.5,0.6-5.1,0.9-7.7,0.9c-0.9,0-1.7,0-2.6-0.1c-134.1-10.8-255.1-44.1-381.1-99.8
					c0,0,0,0,0,0h0c-6.5,18.1-12.2,39.4-14.8,49.4c-1,4-2.6,7.8-4.7,11.3l-7.5,12.8l-0.2,0.4c0,0,0,0,0,0l-0.1,0.1
					c0,0-0.1,0.1-0.1,0.1c-0.2,0.3-0.4,0.5-0.6,0.8c-0.1,0.1-0.3,0.2-0.4,0.4c-0.1,0.1-0.3,0.2-0.4,0.3c-0.8,0.6-1.8,1-2.8,1.1
					l-7.3,0.6c0,0,0.1,0,0.1,0c-0.3,0-0.6,0.1-0.9,0.1c-0.8,0-2-0.1-4.1-0.8h0c-0.1,0-0.2-0.1-0.2-0.1c-0.3-0.1-0.6-0.2-1-0.4
					c-23.6-8.9-75.5-38.1-82-42l-7.9-7.4c-1.3-1.2-2.3-2.8-2.9-4.5c-6.1-17.8-10.7-46.5-8.2-100.1
					c-99.5-63.5-199.7-147.9-277.6-257.3c-5.3-7.3-6.6-9.2-7.9-17.6c-3.3-19-11.8-81.3-12.4-91.1c-0.1-0.9-0.2-1.8-0.3-2.7
					c0,0,0,0,0,0c-0.5-5.8-1.1-14.2,5-18.5c0.1,0,0.1-0.1,0.2-0.2l0.5-0.3c0,0,0,0,0,0v0l10.4-6.7l0,0c0,0,0,0,0,0l0.3-0.2
					c1.4-0.9,2.9-1.7,4.5-2.3c0,0,0,0,0,0l2.3-0.7c1.4-0.4,2.9-0.8,4.4-0.9c0.6,0,1.3-0.1,1.9-0.1c6.2,0,12.8,2.3,18.4,8.9
					c0,0,0.1,0.1,0.1,0.1c0.3,0.4,0.6,0.7,0.9,1.1c0.4,0.5,0.7,1,1.1,1.5c47.8,64.1,115.9,146.6,267,249.3
					c4.3-18.2,8.7-36.9,13.5-55.9c26-106,60.4-225.3,115.1-361c0.9-2.2,1.7-4.3,2.6-6.5c1.2-2.9,3-5.5,5.2-7.6l8.8-8.1
					c1.9-1.8,4.4-2.9,7-3.2l8.4-1C1350.3,895.1,1350.8,895,1351.3,895 M1535.7,1034.6L1535.7,1034.6 M1535.7,1034.6
					C1535.7,1034.6,1535.7,1034.6,1535.7,1034.6C1535.7,1034.6,1535.7,1034.6,1535.7,1034.6 M1535.7,1034.6
					C1535.7,1034.6,1535.7,1034.6,1535.7,1034.6C1535.7,1034.6,1535.7,1034.6,1535.7,1034.6 M1351.3,874c-1.3,0-2.6,0.1-3.9,0.2
					l-8.4,1c-7,0.8-13.5,3.8-18.7,8.6c0,0-0.1,0.1-0.1,0.1l-8.8,8.1c-4.5,4.2-8.2,9.5-10.5,15.2c-0.8,2.1-1.7,4.2-2.5,6.3l-0.1,0.2
					c-46.7,115.7-83.5,231.4-116,363.8c-2.1,8.5-4.2,17.1-6.4,26c-124.8-88.4-187.6-161.1-236.5-226.7c-0.5-0.7-1-1.3-1.5-2
					c-0.5-0.7-1-1.2-1.4-1.7c-0.1-0.1-0.2-0.2-0.3-0.3c-8.9-10.5-21.2-16.3-34.5-16.3c-1.1,0-2.3,0-3.5,0.1c-2.9,0.2-5.9,0.8-9,1.7
					l-2.3,0.7c-0.3,0.1-0.6,0.2-0.8,0.3c-0.4,0.1-0.8,0.3-1.1,0.4c-2.7,1.1-5.4,2.5-7.8,4.1l-0.3,0.2c0,0,0,0-0.1,0l-10.3,6.6
					c0,0-0.1,0.1-0.1,0.1l-0.5,0.3c-0.6,0.4-1.1,0.7-1.6,1.1c-15.6,11.6-13.8,30.8-13.2,37.2c0,0.3,0.1,0.6,0.1,1
					c0.1,0.7,0.1,1.3,0.2,1.9c1,12.9,9.5,73.9,12.6,92.3c2,12.8,5.3,17.9,11.6,26.5c68.9,96.8,160.8,183,273.2,256.3
					c-1.2,42,1.9,72.6,9.8,95.7c1.7,4.9,4.6,9.4,8.4,13l7.8,7.4c1.1,1,2.3,1.9,3.6,2.7c4.3,2.6,58.7,33.5,85.2,43.6
					c0.5,0.2,0.9,0.4,1.3,0.5c0.1,0.1,0.3,0.1,0.4,0.2c0.4,0.1,0.8,0.3,1.1,0.4c3.5,1.1,6.7,1.6,10.1,1.6c0.7,0,1.5,0,2.2-0.1
					c0.1,0,0.3,0,0.4,0l7.3-0.6c4.7-0.4,9.2-2.1,13.1-4.8c0.7-0.5,1.3-1,2-1.6c0.1-0.1,0.1-0.1,0.2-0.2c0.5-0.4,1.1-1,1.8-1.7
					c0.9-0.9,1.7-1.9,2.4-3c0.3-0.5,0.7-1,1-1.5c0,0,0.1-0.1,0.1-0.1c0,0,0-0.1,0.1-0.1c0.1-0.1,0.1-0.2,0.2-0.3l0.2-0.4l7.4-12.7
					c3.1-5.2,5.4-10.8,6.9-16.7c1.3-5.1,4-15.1,7.3-26.1c124.5,52.7,241.6,82.2,366.6,92.2c1.4,0.1,2.9,0.2,4.3,0.2
					c4.2,0,8.5-0.5,12.6-1.5l2.8-0.7c6.1-1.5,12-3.9,17.3-7.3c13.2-8.3,45.5-28.8,61.5-40.3c1-0.7,2.3-1.6,3.6-2.7l0.2-0.2l0.2-0.2
					c0,0,0,0,0.1,0l0.5-0.4l0.2-0.1l0.1-0.1l0.3-0.2l0,0l0,0l0,0l0.2-0.1c0.4-0.3,0.8-0.7,1.2-1c0.6-0.5,1.1-0.9,1.6-1.4
					c0.2-0.2,0.5-0.5,0.7-0.7l0.5-0.4c0.6-0.5,1.3-1.1,2-1.9c2.8-2.7,4.9-5.5,6.6-8.8c2-3.9,3.4-8.4,4.1-14c0,0,0-0.1,0-0.1l1.2-8.8
					l0.8-5.7c0.1-0.5,0.1-1,0.2-1.5c0.7-10.9-3.2-21-11.1-28.4c-0.6-0.5-1-0.9-1.3-1.1c-1.4-1.2-2.8-2.2-4.2-3.2
					c-0.3-0.2-0.6-0.4-1-0.6c-5-3-10.8-5-16.9-5.9c-0.2,0-0.4-0.1-0.6-0.1c-69.6-7.6-130.3-18.9-191-35.8
					c-64.9-18-131.6-43-203.3-76c0.7-1.5,1.4-3,2-4.6l0.1-0.3l0.1-0.3l2.6-5.8l0.4-0.8l0.4-1l0.2-0.5l2.7-6.1l0.4-1l0.5-1.1l2.5-5.6
					l0.8-1.7l0.4-0.9l2.4-5.4l0.5-1.2l0.7-1.5l1.4-3.3l0.9-2.1l0.7-1.6l0.5-1.2l1-2.2l1.3-3l1-2.2l0.3-0.7l2.2-5.1l0.8-1.9l0.5-1.2
					l1.3-3l0.7-1.7l1.5-3.5l0.4-0.9l1.5-3.5l1.5-3.4l0.1-0.2l0.6-1.4l1.4-3.1l0.4-1l1-2.4l1.9-4.5l1.6-3.7l1.8-4.2l1.6-3.7l1.9-4.4
					l1.1-2.5l0.4-0.9l1.7-3.8l0.2-0.6l1.6-3.6l0.6-1.5l1.1-2.6l0.5-1.3l1.1-2.6l0.7-1.6l0.9-2.2l0.7-1.6l1.2-2.7l0.7-1.5l0.8-1.8
					l0.6-1.3l1.5-3.4l1.2-2.7l2.4-5.5l0.9-2.1l2.6-6l0.6-1.5l3-7.1l0.1-0.2l0.1-0.1c12.4-28.9,24.3-57,34.9-81.7
					c25.7-60.3,46-108,57.4-132.5c0.2-0.3,0.3-0.6,0.4-0.9c0.9-1.9,1.7-3.6,2.5-5.1c0.4-0.8,0.7-1.6,1-2.4l4.4-10.4l2.7-6.4
					c0.5-1.1,0.9-2.3,1.2-3.6c0-0.1,0-0.1,0.1-0.2c5.5-17.8-4-29.4-15.2-34.6c-0.1-0.1-0.2-0.1-0.3-0.2c0,0-0.1,0-0.1-0.1l-0.6-0.4
					l-0.2-0.1l-0.2-0.1l-0.2-0.1l-0.6-0.3l-0.1-0.1l-0.2-0.1l-0.2-0.1l-0.4-0.2l-0.6-0.3l-0.1-0.1l-0.2-0.1l-0.2-0.1l-0.9-0.5
					l-0.4-0.2l-0.3-0.2l-0.8-0.4l-0.5-0.3l-0.5-0.3l-0.7-0.4c0,0-0.1,0-0.1,0l-0.6-0.4l-0.5-0.3l-3.2-1.8c-3.4-1.9-7.2-4-11.5-6.4
					c0,0-0.1,0-0.1-0.1c0,0,0,0-0.1,0l-4.7-2.6l-0.9-0.5l-0.2-0.1l-0.3-0.1c-19.9-11-46.7-25.9-72.4-40.2l-0.5-0.3l-2.7-1.5
					l-21.2-11.8l-0.3-0.2l-0.4-0.2c-25.9-14.4-47.8-26.6-56.1-31.2c0,0-0.1,0-0.1-0.1C1362.5,875.4,1356.9,874,1351.3,874
					L1351.3,874z"/>
			</g>
			<path d="M1299,110.1c4.1,0,6.6,1.5,8.9,3.2l16.4,21.2c5.5,9.9,0.5,15.1,0,32.5c-1,69.1,26.2,207.8,73.2,366.3l60,198.1h0
				c-177.8,71-458,181.7-575.9,292.2c-8.5,8.2-15.9,9.7-20.1,9.7c-2.4,0-3.8-0.5-3.8-0.5l-18.5-2.3c-6.8-0.4-10.6-3.8-13.1-10.3
				l-3.2-13.1c0,0,0,0,0,0c-33.8-169.7-46-370.7,69.7-555.7c120.4-193,276.6-283.9,382.6-333.5l12.4-5.1l1.5-0.7
				C1293.2,110.6,1296.4,110.1,1299,110.1 M879.5,797.8c63.6-57.1,170.4-143.9,308.8-206.4c-19.4-82.1-39.5-196.3-31.2-323.4
				c-68.5,48-165.2,133.6-212.8,214.8C898.9,559.3,875.2,675.3,879.5,797.8 M1299,89c-5,0-10.4,1-16.5,3c-0.7,0.2-1.4,0.5-2.1,0.8
				l-1.2,0.5l-12,4.9c-0.3,0.1-0.6,0.3-1,0.4c-71.9,33.7-134.1,71.5-190,115.6c-79.1,62.3-146.9,138.3-201.6,225.9
				c-28.5,45.6-51,94.8-66.7,146c-14.2,46.3-23.4,95.8-27.3,147.2c-6.3,83.4,0.4,171.3,21.3,276.6c0.1,0.7,0.2,1.4,0.4,2.1l3.2,13.1
				c0.2,0.9,0.5,1.7,0.8,2.6c7.3,18.8,22,23,30.6,23.7l16.7,2.1c2,0.4,4.6,0.8,7.7,0.8c8.4,0,21.3-2.7,34.6-15.5
				c26-24.3,62.5-50.5,108.5-77.9c40.4-24,89.3-49.7,145.6-76.4c104.2-49.3,215.6-93.8,305.2-129.6l9.8-3.9c3.6-1.4,6.8-3.8,9.2-7.1
				c4-5.4,5.2-12.3,3.2-18.7l-60-198c-45.5-153.6-73.2-291.5-72.3-359.7c0.1-4.8,0.8-8.5,1.3-12c1.4-8.2,3-18.4-3.9-31.1
				c-0.5-1-1.1-1.9-1.8-2.7l-16.4-21.2c-1.1-1.4-2.4-2.7-3.8-3.8C1316.5,93.3,1309.6,89,1299,89L1299,89z M900.3,751.8
				c1-43.2,5.6-85.5,13.6-124.5c10.7-52,27.5-98.3,48.5-133.7c0,0,0-0.1,0.1-0.1c36.7-62.6,107.6-132,171.7-182.2
				c-1.5,84.6,8.3,172.9,29.7,268.2C1074.3,621.8,985.9,679.6,900.3,751.8L900.3,751.8z"/>
			<g>
				<g>
					<path d="M1138.7,423.4c4.7,50.1,13,101.6,25.2,156c-50.5,23.9-100.8,52.7-150.2,86.2C1037.9,577.1,1080.3,494.8,1138.7,423.4
						 M1156.2,371.8c-88.6,93.1-150.9,211.3-175.3,342.9c56.9-42.2,126.8-86.9,207.4-123.3C1174.4,532.4,1160.1,456.8,1156.2,371.8
						L1156.2,371.8z"/>
				</g>
			</g>
			<g>
				<g>
					<path d="M2238.9,605c10.6,0,21.4,0.8,32.1,2.5c1.3,0.2,2.8,0.4,4.5,0.7c0.3,0,0.5,0.1,0.8,0.1l0.6,0.1c1,0.2,2.1,0.4,3.1,0.6
						c0.5,0.1,1,0.2,1.5,0.3c1,0.2,2,0.4,3,0.6l0.5,0.1c0.3,0.1,0.6,0.1,0.8,0.2c1.2,0.3,2.5,0.6,3.7,0.8l0.4,0.1l0.1,0c0,0,0,0,0,0
						c1.3,0.3,2.7,0.7,4.1,1c0.2,0.1,0.4,0.1,0.6,0.2l0.6,0.2c1,0.3,1.9,0.5,2.9,0.8c0.5,0.1,0.9,0.3,1.4,0.4
						c0.9,0.3,1.8,0.5,2.7,0.8l0.4,0.1c0.3,0.1,0.6,0.2,1,0.3c1,0.3,2,0.6,3,1l0.5,0.2l0.4,0.1c1.2,0.4,2.5,0.8,3.7,1.3l0.5,0.2
						l0.6,0.2c0.9,0.3,1.8,0.6,2.7,1c0.4,0.1,0.8,0.3,1.1,0.4l0.2,0.1c0.8,0.3,1.5,0.6,2.3,0.9c0.4,0.2,0.9,0.4,1.3,0.5
						c0.8,0.3,1.6,0.6,2.4,1l0.5,0.2c0.2,0.1,0.4,0.2,0.6,0.2c1.1,0.5,2.2,0.9,3.3,1.4l0.4,0.2l0.5,0.2c0.8,0.3,1.5,0.7,2.3,1
						c0.4,0.2,0.7,0.3,1.1,0.5l0.2,0.1c0.6,0.3,1.3,0.6,1.9,0.9c0.4,0.2,0.9,0.4,1.3,0.6c0.6,0.3,1.2,0.6,1.8,0.9l0.3,0.2
						c0.3,0.1,0.6,0.3,0.9,0.4c0.8,0.4,1.6,0.8,2.3,1.2c0.5,0.3,1,0.5,1.4,0.8c0.6,0.3,1.2,0.6,1.7,0.9c0.4,0.2,0.8,0.4,1.1,0.6
						l0.2,0.1c0.5,0.3,0.9,0.5,1.3,0.8c0.4,0.3,0.9,0.5,1.3,0.8c0.4,0.2,0.8,0.5,1.2,0.7l0.3,0.2c0.3,0.2,0.7,0.4,1,0.6
						c0.3,0.2,0.6,0.4,0.9,0.6l0.2,0.2c0.8,0.5,1.6,1,2.3,1.5l0.4,0.2c0.2,0.1,0.4,0.2,0.6,0.4c0.4,0.2,0.7,0.5,1.1,0.7l0.2,0.1
						l0.2,0.2c0.2,0.1,0.4,0.3,0.6,0.4c0,0,0,0,0,0c0.4,0.3,0.8,0.6,1.2,0.8c0.3,0.2,0.5,0.4,0.8,0.5c0.4,0.3,0.8,0.6,1.2,0.9
						l0.3,0.2l0.3,0.2c1,0.7,1.9,1.4,2.7,2c4.4,3.4,6.7,5.8,7.7,6.9c0.4,0.5,0.8,0.9,1.3,1.3c26.7,25.4,48.4,57.9,64.3,96.6
						c17.6,42.7,28.1,92.9,31.2,149.4c-1-4.6-2.1-9.1-3.2-13.6c-1.7-6.6-3.7-13.2-5.8-19.6c-11.9-36-29.3-66.4-50.5-87.9
						c-0.1-0.1-0.2-0.2-0.2-0.2c-7.8-7.9-16.2-14.7-25-20c-2.6-1.6-5.1-3-7.6-4.3c-0.3-0.2-0.6-0.3-0.9-0.5
						c-3.5-1.8-7.1-3.3-10.7-4.6c-13.5-5-28-7.9-43.3-8.8c-0.1,0-0.1,0-0.2,0c-3.2-0.2-6.4-0.2-9.6-0.2
						c-38.5,0-80.1,13.4-120.2,38.7c-3.7,2.3-7.4,4.8-11.1,7.3c-14.9,10.2-29.6,22.2-44,35.5c-0.2,0.2-0.4,0.3-0.5,0.5l-0.1,0.1
						c-0.4,0.4-0.8,0.7-1.1,1l-0.2,0.2c-0.3,0.3-0.6,0.6-1,0.9c-0.1,0.1-0.2,0.2-0.4,0.4c-0.1,0.1-0.3,0.2-0.4,0.4
						c-0.3,0.3-0.7,0.6-1,0.9l0,0c-0.2,0.2-0.6,0.6-1.1,1c-0.1,0.1-0.3,0.3-0.4,0.4c-0.2,0.2-0.4,0.4-0.6,0.5
						c-0.3,0.3-0.6,0.6-0.9,0.9l-0.3,0.3l-0.4,0.4l0,0c0,0-0.1,0.1-0.1,0.1c-0.2,0.2-0.6,0.6-0.9,1c-0.1,0.1-0.2,0.2-0.4,0.4
						c0,0-0.1,0.1-0.1,0.1c-0.9,0.7-1.7,1.6-2.4,2.4c0,0,0,0,0,0c-0.5,0.5-1,1-1.5,1.5c-0.3,0.3-0.5,0.5-0.7,0.7
						c-0.6,0.6-1.2,1.1-1.8,1.8c0,0-0.1,0.1-0.1,0.1c-0.1,0.1-0.2,0.2-0.3,0.3c-0.2,0.2-0.4,0.4-0.7,0.6c-0.1,0.1-0.1,0.1-0.2,0.2
						c-0.5,0.5-0.8,0.9-1.1,1.2c-0.3,0.3-0.5,0.5-0.7,0.8c0,0,0,0,0,0l-0.4,0.4c-0.4,0.4-0.7,0.7-1,1.1c-0.1,0.1-0.1,0.2-0.2,0.2
						l-0.1,0.1c-0.4,0.4-0.7,0.7-0.9,1c-0.1,0.1-0.2,0.2-0.3,0.3c-0.2,0.2-0.5,0.5-0.8,0.9c-0.5,0.5-1,1-1.5,1.5
						c-0.4,0.4-0.8,0.8-1,1c-0.2,0.3-0.4,0.5-0.6,0.6l-0.1,0.1l0,0c-0.4,0.4-0.8,0.9-1.2,1.3c-0.2,0.2-0.4,0.4-0.6,0.7
						c-0.4,0.4-0.8,0.9-1.2,1.3c-0.1,0.1-0.3,0.3-0.4,0.5c-0.2,0.2-0.4,0.5-0.7,0.7c-0.4,0.4-0.7,0.8-1.1,1.3
						c-0.4,0.4-0.8,0.9-1.2,1.4c-0.8,0.8-1.4,1.5-1.8,2c-0.1,0.1-0.2,0.2-0.3,0.3c-0.2,0.2-0.3,0.4-0.5,0.5c-0.4,0.4-0.7,0.8-1,1.1
						c-0.1,0.1-0.2,0.2-0.2,0.3l0,0c0,0,0,0,0,0c-0.4,0.5-0.8,1-1.2,1.5l0,0.1c-0.1,0.1-0.2,0.3-0.3,0.4c0,0,0,0-0.1,0.1
						c-0.1,0.2-0.3,0.3-0.4,0.5c0,0,0,0,0,0c-0.8,0.8-1.4,1.6-2.1,2.5c-0.2,0.2-0.4,0.5-0.7,0.8c-0.2,0.2-0.4,0.5-0.6,0.7
						c-0.4,0.4-0.9,0.9-1.4,1.6c-0.4,0.4-0.8,0.9-1.1,1.3c-0.5,0.5-0.9,1.1-1.3,1.6c-0.5,0.6-1,1.2-1.4,1.8l-0.2,0.3l-0.2,0.2
						c-0.1,0.1-0.2,0.2-0.2,0.3c-0.2,0.2-0.4,0.5-0.6,0.7c-0.4,0.5-0.7,0.8-0.9,1.1l-0.1,0.1c-0.1,0.1-0.1,0.1-0.2,0.2
						c-0.6,0.7-1.1,1.4-1.6,2.1l0,0.1c-0.1,0.2-0.2,0.3-0.4,0.5c-0.1,0.1-0.2,0.2-0.3,0.3l0,0.1c-0.4,0.4-0.9,1.1-1.5,1.9
						c-0.1,0.1-0.1,0.1-0.2,0.2c-0.1,0.2-0.3,0.3-0.4,0.5c-0.3,0.4-0.6,0.7-0.8,1.1c-0.5,0.6-1,1.2-1.3,1.7
						c-0.2,0.3-0.5,0.6-0.7,0.9c-0.2,0.2-0.3,0.4-0.5,0.6l0,0c-0.2,0.2-0.3,0.4-0.5,0.7c-0.4,0.5-0.8,1-1.2,1.5
						c-0.1,0.1-0.2,0.3-0.3,0.5c0,0.1-0.1,0.1-0.1,0.2c-0.3,0.4-0.6,0.8-0.9,1.2c-0.5,0.6-1,1.2-1.4,1.8l-0.1,0.1
						c-0.2,0.2-0.3,0.5-0.5,0.7c-0.1,0.1-0.2,0.3-0.3,0.5c-0.1,0.1-0.1,0.1-0.2,0.2c-0.4,0.5-0.7,1-1.1,1.5c0,0,0,0.1-0.1,0.1
						c-0.1,0.2-0.3,0.4-0.4,0.6c-0.3,0.4-0.7,0.9-1.1,1.5c-0.5,0.6-0.9,1.2-1.3,1.8c-0.1,0.2-0.2,0.3-0.3,0.5l0,0
						c-0.1,0.1-0.2,0.2-0.3,0.3c-0.2,0.2-0.3,0.4-0.4,0.6c-0.1,0.2-0.2,0.3-0.3,0.4c-0.1,0.2-0.3,0.4-0.4,0.6c0,0.1-0.1,0.1-0.1,0.2
						c-0.4,0.5-0.7,1-1.1,1.5c-0.1,0.1-0.2,0.3-0.3,0.4c-0.4,0.4-0.7,0.9-1,1.3c-0.3,0.4-0.5,0.8-0.8,1.2c-0.4,0.6-0.8,1.2-1.1,1.6
						c-0.1,0.2-0.2,0.4-0.4,0.6l-0.1,0.1c-0.2,0.2-0.3,0.4-0.4,0.7c-0.2,0.3-0.5,0.6-0.8,1.1c-0.3,0.4-0.6,0.9-0.9,1.3
						c-0.1,0.1-0.2,0.2-0.2,0.4c-0.3,0.4-0.5,0.7-0.6,0.9c0,0.1-0.1,0.2-0.1,0.2c-0.2,0.3-0.5,0.7-0.8,1.1c-0.4,0.6-0.7,1.1-0.9,1.4
						l0,0.1c-0.1,0.1-0.2,0.3-0.3,0.4c-0.1,0.2-0.2,0.3-0.3,0.5c-0.1,0.1-0.1,0.2-0.2,0.2c-0.3,0.4-0.5,0.8-0.8,1.2
						c-0.1,0.2-0.2,0.3-0.3,0.5c-0.2,0.3-0.4,0.5-0.5,0.8c-0.1,0.2-0.3,0.4-0.4,0.6l-0.3,0.4c0,0-0.1,0.1-0.1,0.1
						c-0.1,0.2-0.2,0.3-0.3,0.5c-0.4,0.6-0.7,1.2-0.9,1.5l0,0l0,0l-0.1,0.1c0,0.1-0.1,0.1-0.1,0.2c-0.2,0.3-0.4,0.6-0.6,0.9
						c-0.2,0.2-0.3,0.5-0.5,0.8c-0.2,0.3-0.4,0.6-0.6,0.9c0,0,0,0.1,0,0.1l-0.1,0.2c-0.1,0.2-0.2,0.3-0.3,0.5l-0.2,0.4
						c-0.3,0.5-0.7,1-1,1.6c-0.1,0.1-0.1,0.2-0.2,0.3c-0.1,0.1-0.1,0.2-0.2,0.3c-0.3,0.5-0.7,0.9-1,1.4c-0.3,0.5-0.6,1-0.9,1.5
						c-0.6,0.8-1.2,1.7-1.7,2.7c0,0,0,0,0,0c-0.4,0.5-0.7,1.1-1,1.6l-0.2,0.3l-0.3,0.6l-0.1,0.2c-0.1,0.2-0.2,0.3-0.3,0.5
						c-0.7,1-1.2,1.9-1.7,2.8c0,0.1-0.1,0.1-0.1,0.2l-0.1,0.2c-0.2,0.4-0.5,0.9-0.9,1.5l0,0c-0.2,0.3-0.4,0.6-0.6,0.9
						c-0.4,0.5-0.6,1-0.9,1.4c-0.1,0.1-0.1,0.2-0.2,0.3c-0.3,0.4-0.6,0.9-0.8,1.4c-0.1,0.1-0.1,0.2-0.2,0.3
						c-0.2,0.3-0.5,0.7-0.7,1.3l0,0c0,0.1-0.1,0.2-0.2,0.3c0,0.1-0.1,0.1-0.1,0.2c-0.1,0.2-0.2,0.3-0.3,0.5
						c-0.4,0.6-0.6,1.1-0.8,1.4c-0.2,0.4-0.4,0.7-0.5,0.9c-0.3,0.4-0.5,0.8-0.7,1.1l-0.1,0.2c-0.1,0.1-0.2,0.3-0.3,0.4
						c-0.2,0.3-0.3,0.6-0.5,0.9c-0.5,0.7-0.9,1.5-1.3,2.3c-0.1,0.2-0.2,0.3-0.3,0.5c-0.2,0.3-0.4,0.7-0.6,1
						c-0.1,0.2-0.3,0.5-0.4,0.7c-0.2,0.3-0.4,0.6-0.5,0.9c-0.2,0.3-0.4,0.6-0.6,0.9l-0.1,0.1l0,0.1c0,0.1-0.1,0.2-0.2,0.3
						c-0.2,0.4-0.5,0.8-0.7,1.2c-0.2,0.4-0.5,0.9-0.7,1.3l-0.1,0.2c-0.1,0.2-0.3,0.5-0.4,0.7c0,0,0,0.1-0.1,0.1
						c-0.1,0.2-0.3,0.4-0.4,0.7c-0.2,0.3-0.3,0.6-0.5,0.9c-0.1,0.2-0.2,0.4-0.3,0.6l-0.1,0.2c-0.1,0.1-0.1,0.2-0.2,0.3
						c-0.2,0.4-0.5,0.8-0.7,1.1c-0.3,0.5-0.5,1-0.8,1.5l-0.3,0.5l0,0c-0.1,0.2-0.2,0.4-0.3,0.5l0,0c-0.5,0.8-0.8,1.5-1.1,2l-0.2,0.3
						c0,0.1-0.1,0.1-0.1,0.2c-0.3,0.5-0.7,1.2-1.2,2.2c0,0.1-0.1,0.1-0.1,0.2c-0.1,0.1-0.1,0.2-0.2,0.3l0,0.1
						c-0.2,0.3-0.4,0.6-0.6,0.9c-0.2,0.4-0.5,0.8-0.7,1.2l-0.2,0.4c-0.2,0.4-0.4,0.8-0.6,1.2c-0.1,0.1-0.1,0.2-0.2,0.3
						c-0.2,0.3-0.3,0.5-0.4,0.8c-0.2,0.5-0.5,1-0.8,1.5c-0.1,0.2-0.2,0.3-0.3,0.5c-0.5,0.9-0.9,1.8-1.2,2.4
						c-0.1,0.1-0.1,0.3-0.2,0.4c-0.5,0.9-0.9,1.7-1.2,2.3c-0.4,0.7-0.7,1.3-1.1,2c-0.2,0.5-0.5,0.9-0.7,1.4
						c-0.2,0.3-0.3,0.6-0.4,0.9l0,0.1c0,0,0,0,0,0.1c0,0.1-0.1,0.1-0.1,0.2v0l-0.2,0.3l0,0.1c-0.1,0.3-0.3,0.5-0.4,0.8
						c-0.3,0.6-0.6,1.2-0.9,1.8l-0.5,1.1l-0.5,1.1c-0.1,0.3-0.3,0.5-0.4,0.8l0,0.1c-0.3,0.6-0.6,1.2-0.9,1.9c-0.6,1.1-1,2.1-1.4,3
						c-0.2,0.3-0.3,0.7-0.5,1c-0.2,0.5-0.4,1-0.6,1.5c-0.1,0.2-0.2,0.4-0.3,0.6c-0.1,0.2-0.2,0.3-0.2,0.5c-0.5,1-1,2-1.4,3.1
						l-0.1,0.2c-0.1,0.3-0.2,0.6-0.4,0.8c-0.1,0.3-0.2,0.5-0.3,0.8l-0.1,0.2c-0.2,0.4-0.3,0.8-0.5,1.2c-0.1,0.2-0.2,0.4-0.3,0.6
						c-0.7,1.4-1.3,2.7-1.7,3.7l-0.4,0.9c-0.5,1.1-1,2.2-1.4,3.1c-0.3,0.5-0.5,1.1-0.7,1.6c-0.2,0.5-0.5,1.2-0.8,1.9
						c-0.3,0.6-0.5,1.2-0.8,1.8c-0.4,0.9-0.8,1.7-1.1,2.4l-0.1,0.1l0,0.1c-0.1,0.2-0.2,0.5-0.3,0.7c0,0,0,0,0,0
						c-0.1,0.3-0.3,0.6-0.4,1l-0.2,0.5c-0.5,1.1-1,2.3-1.5,3.6c-0.1,0.3-0.3,0.7-0.4,1l-0.1,0.4c-0.5,1.2-1,2.3-1.5,3.5l-0.2,0.5
						c-0.2,0.6-0.5,1.2-0.7,1.7c-0.7,1.6-1.3,3-1.8,4.4l-0.1,0.2c0,0.1-0.1,0.1-0.1,0.2c-0.4,1.2-0.9,2.3-1.4,3.5l-0.4,0.9l-0.2,0.4
						c-0.2,0.6-0.5,1.2-0.7,1.8c-0.2,0.6-0.5,1.2-0.7,1.8l-0.2,0.5l-0.3,0.7c-0.6,1.6-1.1,3.1-1.7,4.5c-0.1,0.2-0.2,0.4-0.2,0.6
						c-0.6,1.6-1.2,3.3-1.8,4.9c-0.7,1.8-1.3,3.6-2,5.4c-0.1,0.2-0.1,0.4-0.2,0.5c-0.3,1-0.7,1.9-1.1,2.9c-0.6,1.5-1.1,3.2-1.7,4.9
						c0,0.1,0,0.1,0,0.2c-0.5,1.7-1.2,3.4-1.8,5.3c0,0.1-0.1,0.2-0.1,0.2c-0.5,1.6-1,3.1-1.5,4.6c-0.8,2.4-1.7,4.9-2.5,7.6
						c-0.2,0.6-0.4,1.2-0.6,1.8c-0.3,1-0.6,1.9-0.8,2.7c-0.2,0.5-0.3,0.9-0.5,1.3l-0.4,1c-0.2,0.5-0.3,1-0.5,1.5
						c-0.1,0.4-0.2,0.9-0.4,1.3l0,0.1l-0.1,0.5l-0.1,0.4l-0.2,0.8l-0.4,1.2c0,0,0,0.1,0,0.1c-0.1,0.4-0.3,0.9-0.5,1.5l-0.1,0.4
						c-0.3,1-0.7,2-1,3.2c-15.3,52.9-23,103.5-22.9,150.5c0,2,0,4,0.1,5.9c0,2,0.1,3.9,0.1,5.9c0.2,5.6,0.5,11.2,0.9,16.7
						c0.2,2.1,0.3,4.3,0.5,6.5c0.6,7.1,1.5,14.1,2.5,20.8c0.1,0.4,0.1,0.8,0.2,1.2c0.1,0.6,0.1,1.1,0.2,1.7c0.1,1,0.3,1.9,0.5,2.8
						c0.1,0.5,0.2,0.9,0.3,1.4c0,0.2,0.1,0.5,0.1,0.7c0,0.1,0,0.2,0,0.3c0,0.3,0.1,0.6,0.1,0.8c0.1,0.5,0.2,1.1,0.3,1.6
						c0.1,0.3,0.1,0.7,0.2,1c0,0.2,0.1,0.4,0.1,0.5c0,0.1,0,0.3,0.1,0.4c0.1,0.4,0.1,0.8,0.2,1.2c0,0.1,0,0.2,0,0.2
						c0,0.3,0.1,0.6,0.2,0.9c0,0,0,0,0,0c0.1,0.5,0.2,0.9,0.3,1.4c0.1,0.2,0.1,0.5,0.2,0.7c0,0,0,0.1,0,0.1c0,0.2,0.1,0.4,0.1,0.6
						c0.1,0.7,0.2,1.3,0.4,2c0,0,0,0,0,0.1c0,0,0,0,0,0c0.1,0.7,0.3,1.5,0.5,2.2c0,0.1,0.1,0.2,0.1,0.3c0.1,0.3,0.2,0.7,0.3,1.2
						c0,0.2,0.1,0.3,0.1,0.5c0,0.1,0.1,0.2,0.1,0.4c0.1,0.3,0.1,0.5,0.2,0.8c0.1,0.4,0.2,0.9,0.3,1.3c0.1,0.3,0.1,0.5,0.2,0.7
						c0,0.2,0.1,0.4,0.2,0.7c0,0.2,0.1,0.4,0.2,0.6c0.1,0.3,0.1,0.6,0.2,0.9c0,0.1,0,0.1,0,0.2c0.1,0.4,0.2,0.8,0.3,1.1c0,0,0,0,0,0
						c0.2,0.8,0.4,1.6,0.6,2.4c0.1,0.5,0.3,1.1,0.5,1.6c0.1,0.3,0.2,0.6,0.2,0.8c0.1,0.6,0.3,1.2,0.5,1.8c0.2,0.7,0.3,1.4,0.6,2
						c0,0.1,0,0.1,0,0.2c0.2,0.6,0.3,1.2,0.5,1.8c0.1,0.4,0.2,0.8,0.3,1.1c0,0.1,0.1,0.3,0.1,0.4c0.1,0.5,0.3,1,0.5,1.5c0,0,0,0,0,0
						c0.1,0.5,0.4,1.2,0.8,2.2c0.1,0.2,0.1,0.3,0.2,0.5c0,0,0,0,0,0c0,0,0,0.1,0,0.1c0,0,0,0,0,0c0.1,0.5,0.3,0.9,0.4,1.3
						c0.2,0.8,0.5,1.6,0.8,2.4c0.1,0.3,0.2,0.6,0.3,1c0.2,0.6,0.4,1.1,0.6,1.7c0.2,0.7,0.5,1.4,0.8,2.1c0.1,0.3,0.3,0.7,0.4,1
						c0.1,0.2,0.1,0.4,0.2,0.5c0,0,0,0.1,0,0.1c0.1,0.4,0.3,0.8,0.5,1.3c0,0.1,0.1,0.2,0.1,0.3c0.2,0.5,0.4,1,0.6,1.5
						c0.2,0.6,0.4,1.2,0.7,1.8c0.1,0.2,0.1,0.3,0.2,0.5c0.2,0.6,0.5,1.2,0.8,1.8c0.1,0.3,0.3,0.7,0.4,1c0.2,0.4,0.3,0.7,0.5,1.1
						c0.1,0.3,0.3,0.6,0.4,0.9c0.2,0.5,0.4,1,0.6,1.5c0,0,0,0,0,0c0,0,0,0,0,0c0.3,0.7,0.6,1.5,1,2.2c0.1,0.2,0.2,0.4,0.3,0.6
						c0,0,0,0.1,0.1,0.1c0.2,0.4,0.3,0.7,0.5,1.1c0,0,0,0.1,0,0.1c0.3,0.7,0.6,1.4,1,2.1c0.1,0.1,0.1,0.2,0.2,0.3l0.1,0.1l0.1,0.3
						c0.1,0.1,0.1,0.2,0.2,0.4c0,0.1,0.1,0.1,0.1,0.2c0.2,0.4,0.4,0.8,0.6,1.2l0,0c0.1,0.2,0.3,0.5,0.5,0.9c0.2,0.5,0.4,0.9,0.7,1.4
						c0.1,0.3,0.3,0.6,0.4,0.8c0.1,0.1,0.1,0.2,0.2,0.4c0,0,0,0,0,0c0,0.1,0.1,0.1,0.1,0.2c0.2,0.5,0.5,1.1,0.8,1.6
						c0,0,0,0.1,0.1,0.1c0,0,0,0.1,0.1,0.1c0.2,0.5,0.5,1,0.8,1.5c4.9,8.4,9.8,15.7,15.1,22.2c0,0,0,0.1,0.1,0.1
						c1.2,1.5,2.4,2.9,3.7,4.3c1.2,1.4,2.5,2.7,3.8,4.1c2.5,2.6,5.1,5,7.7,7.3c0,0,0.1,0.1,0.1,0.1c5.3,4.6,11.3,8.7,17.9,12.3
						c1.6,0.9,3.3,1.7,5,2.6c19.2,9.2,42.5,14.1,67.4,14.1c31.4,0,64-7.4,96.9-22.1c-19.4,12.8-39.9,24.3-60.5,33.8
						c-47.4,21.9-95,33.5-137.7,33.6c-0.1,0-0.3,0-0.4,0c-0.3,0-0.5,0-0.8,0c-1.5,0-3-0.1-4.4-0.2c0,0,0,0-0.1,0
						c-14.5-0.7-28.6-2.9-41.8-6.7c-0.1,0-0.1,0-0.2-0.1c-1.2-0.4-2.5-0.7-3.7-1.1c-0.1,0-0.2-0.1-0.3-0.1c-1.2-0.4-2.4-0.8-3.6-1.2
						c-0.1,0-0.2-0.1-0.2-0.1c-1.2-0.4-2.5-0.8-3.6-1.3l-0.2-0.1c0,0,0,0-0.1,0c-1.2-0.5-2.4-0.9-3.5-1.3l-0.3-0.1
						c-1.2-0.5-2.4-0.9-3.4-1.4l0,0l-0.4-0.2c-1.2-0.5-2.3-1-3.3-1.4c-0.1-0.1-0.3-0.1-0.4-0.2c-1.2-0.5-2.2-1-3.2-1.5l0,0
						c-0.2-0.1-0.3-0.2-0.5-0.2c-1.1-0.6-2.2-1.1-3.1-1.5l-0.1,0l-0.4-0.2c0,0,0,0,0,0c-1.1-0.6-2.1-1.1-2.9-1.6l-0.1-0.1
						c-0.2-0.1-0.4-0.2-0.5-0.3c-0.8-0.4-1.9-1-2.9-1.6l-0.2-0.1c-0.2-0.1-0.4-0.2-0.5-0.3c-1-0.6-1.9-1.1-2.7-1.6l-0.2-0.1
						c-0.2-0.1-0.4-0.2-0.6-0.4c-0.9-0.5-1.7-1.1-2.6-1.6c-0.1-0.1-0.2-0.1-0.3-0.2l-0.6-0.4c-0.8-0.5-1.6-1.1-2.4-1.6
						c-0.1-0.1-0.2-0.2-0.3-0.2c-0.2-0.2-0.4-0.3-0.6-0.4c-0.8-0.5-1.6-1.1-2.4-1.6c-0.2-0.1-0.3-0.2-0.4-0.3l-0.6-0.4l-0.3-0.2
						c-0.6-0.5-1.3-0.9-1.9-1.4c-0.2-0.1-0.3-0.3-0.5-0.4c-0.2-0.2-0.4-0.3-0.6-0.5l-0.5-0.3c-0.5-0.4-1.1-0.8-1.6-1.2
						c-0.2-0.2-0.4-0.3-0.6-0.5l-0.6-0.5l-0.5-0.4c-0.5-0.4-1-0.8-1.4-1.2c-0.2-0.2-0.4-0.4-0.7-0.6l-0.6-0.5l-0.5-0.5
						c-0.4-0.4-0.8-0.7-1.3-1.1c-0.3-0.2-0.5-0.5-0.8-0.7l-0.6-0.6l-0.6-0.5c-0.3-0.3-0.7-0.6-1-0.9c-0.3-0.3-0.6-0.6-0.9-0.9
						l-0.6-0.6l-0.6-0.6c-0.3-0.3-0.5-0.5-0.8-0.7c-0.5-0.5-1-1-1.6-1.5l-0.3-0.3l-0.5-0.5c-0.1-0.1-0.2-0.2-0.4-0.3
						c-0.1-0.1-0.1-0.1-0.2-0.2c-1.2-1.2-2.4-2.5-3.6-3.8c-0.4-0.5-0.9-1-1.4-1.5c-0.3-0.5-0.6-1-1-1.6
						c-27-37.7-40.8-69.1-47.7-108.2c-8-45.3-6.9-102.6,3.6-185.6c8.4-66.5,21.5-121.8,41-174.2c20.5-54.9,49.4-109.1,88.4-165.6
						C2069.6,654,2186.2,614.6,2219,606.6c3-0.7,6.2-1.2,9.5-1.4v0l0.2,0l0.3,0c0,0,0,0,0.1,0c1.2-0.1,2.4-0.1,3.8-0.1l0.6,0l0.5,0
						c1.7,0,3.2-0.1,4.6-0.1C2238.8,605,2238.8,605,2238.9,605 M2238.7,583.9C2238.7,583.9,2238.7,583.9,2238.7,583.9
						c-1.7,0-3.4,0-5.1,0.1c-0.4,0-0.8,0-1.2,0c-1.4,0-2.8,0.1-4.2,0.1c-0.2,0-0.5,0-0.7,0c-4.5,0.2-9,0.9-13.4,1.9
						c-36.2,8.8-157.9,50.3-280.7,228.3c-81.2,117.8-116.5,219.7-133,349.1c-21.9,172-3.4,237,47.9,308.7c-2.6-2.8-5.1-5.7-7.6-8.6
						c2.5,3.2,5,6.3,7.6,9.3c0.2,0.3,0.5,0.5,0.7,0.8c1.1,1.2,2.1,2.4,3.2,3.6c1.3,1.4,2.7,2.9,4,4.3c0.1,0.1,0.1,0.1,0.2,0.2
						c0.4,0.4,0.8,0.8,1.2,1.2c0.7,0.7,1.4,1.4,2.1,2.1c0.5,0.5,1.1,1,1.6,1.5c0.6,0.6,1.2,1.1,1.8,1.7c0.6,0.6,1.2,1.1,1.8,1.6
						c0.5,0.5,1.1,1,1.6,1.4c0.7,0.6,1.3,1.2,2,1.7c0.5,0.4,1,0.8,1.5,1.2c0.7,0.6,1.4,1.2,2.2,1.8c0.5,0.4,0.9,0.8,1.4,1.1
						c0.8,0.6,1.5,1.2,2.3,1.8c0.4,0.3,0.8,0.7,1.3,1c0.8,0.6,1.6,1.2,2.5,1.8c0.4,0.3,0.8,0.6,1.2,0.9c0.9,0.6,1.8,1.2,2.6,1.9
						c0.4,0.2,0.7,0.5,1.1,0.7c0.9,0.6,1.8,1.2,2.8,1.8c0.3,0.2,0.7,0.4,1,0.7c1,0.6,2,1.2,2.9,1.8c0.3,0.2,0.6,0.4,0.9,0.5
						c1,0.6,2.1,1.2,3.1,1.8c0.3,0.2,0.5,0.3,0.8,0.5c1.1,0.6,2.2,1.2,3.2,1.8c0.2,0.1,0.5,0.3,0.7,0.4c1.1,0.6,2.3,1.2,3.4,1.8
						c0.2,0.1,0.4,0.2,0.6,0.3c1.2,0.6,2.4,1.2,3.5,1.8c0.2,0.1,0.3,0.2,0.5,0.2c1.2,0.6,2.5,1.2,3.7,1.7c0.1,0.1,0.3,0.1,0.4,0.2
						c1.3,0.6,2.5,1.1,3.8,1.7c0.1,0,0.2,0.1,0.3,0.1c1.3,0.5,2.6,1.1,3.9,1.6c0.1,0,0.2,0.1,0.3,0.1c1.3,0.5,2.7,1,4.1,1.5
						c0.1,0,0.1,0,0.2,0.1c1.4,0.5,2.8,1,4.2,1.5c0,0,0.1,0,0.1,0.1c1.4,0.5,2.8,0.9,4.3,1.4c0,0,0.1,0,0.1,0
						c1.5,0.5,2.9,0.9,4.4,1.3c0,0,0,0,0,0c14.8,4.2,30.4,6.7,46.8,7.5c0,0,0,0,0,0c1.6,0.1,3.2,0.1,4.9,0.2c0.5,0,1,0,1.6,0
						c98.8,0,202.8-55.7,269.6-117.3c102.1-89.6,230.3-252.6,227.7-507.7c-4.6-140.1-50.4-225.8-102.7-275.5c-2.5-2.8-6-6-10.4-9.5
						c0,0,0,0,0,0c-1-0.8-2.1-1.6-3.2-2.4c-0.2-0.2-0.4-0.3-0.7-0.5c-0.5-0.3-0.9-0.7-1.4-1c-0.3-0.2-0.6-0.4-0.9-0.6
						c-0.5-0.3-0.9-0.6-1.4-1c-0.3-0.2-0.7-0.4-1-0.7c-0.5-0.3-0.9-0.6-1.4-1c-0.4-0.2-0.7-0.5-1.1-0.7c-0.8-0.5-1.7-1.1-2.6-1.7
						c-0.4-0.3-0.9-0.5-1.3-0.8c-0.5-0.3-1-0.6-1.4-0.9c-0.5-0.3-0.9-0.6-1.4-0.8c-0.5-0.3-1-0.6-1.5-0.9c-0.5-0.3-1-0.6-1.5-0.9
						c-0.5-0.3-1-0.5-1.4-0.8c-0.6-0.3-1.3-0.7-1.9-1c-0.5-0.3-1.1-0.6-1.6-0.9c-0.8-0.5-1.7-0.9-2.6-1.3c-0.4-0.2-0.9-0.5-1.3-0.7
						c-0.7-0.3-1.3-0.7-2-1c-0.5-0.2-1-0.5-1.5-0.7c-0.7-0.3-1.4-0.7-2.1-1c-0.5-0.2-0.9-0.4-1.4-0.7c-0.8-0.4-1.7-0.8-2.5-1.1
						c-0.4-0.2-0.7-0.3-1.1-0.5c-1.2-0.5-2.4-1-3.6-1.5c-0.4-0.2-0.8-0.3-1.2-0.5c-0.9-0.4-1.7-0.7-2.6-1.1c-0.5-0.2-1-0.4-1.4-0.6
						c-0.8-0.3-1.7-0.7-2.5-1c-0.5-0.2-1-0.4-1.4-0.5c-1-0.4-1.9-0.7-2.9-1.1c-0.4-0.1-0.7-0.3-1.1-0.4c-1.3-0.5-2.7-0.9-4.1-1.4
						c-0.3-0.1-0.6-0.2-1-0.3c-1.1-0.4-2.2-0.7-3.3-1c-0.5-0.2-1-0.3-1.5-0.4c-1-0.3-2-0.6-2.9-0.9c-0.5-0.1-1-0.3-1.5-0.4
						c-1.1-0.3-2.1-0.6-3.2-0.9c-0.4-0.1-0.9-0.2-1.3-0.3c-1.5-0.4-3-0.8-4.5-1.1c-0.2,0-0.4-0.1-0.6-0.1c-1.3-0.3-2.7-0.6-4-0.9
						c-0.5-0.1-1-0.2-1.5-0.3c-1.1-0.2-2.2-0.5-3.3-0.7c-0.6-0.1-1.1-0.2-1.7-0.3c-1.1-0.2-2.2-0.4-3.4-0.6c-0.5-0.1-1-0.2-1.5-0.3
						c-1.6-0.3-3.2-0.5-4.9-0.8C2263,584.9,2251.1,583.9,2238.7,583.9L2238.7,583.9z M2092.4,1450.2c-22.9,0-42.7-4.6-58.2-12
						c-1.4-0.7-2.8-1.4-4.1-2.1c-5.4-2.9-10.1-6.2-14.3-9.7c-2.1-1.8-4.3-3.9-6.4-6.1c-1.1-1.1-2.1-2.2-3.2-3.4
						c-1-1.2-2.1-2.4-3.1-3.6c-4.7-5.8-9.1-12.3-13.3-19.6c0-0.1-0.1-0.3-0.2-0.4c-0.1-0.3-0.2-0.4-0.3-0.6
						c-0.1-0.3-0.3-0.4-0.4-0.7c-0.1-0.1-0.1-0.3-0.2-0.4c-0.1-0.1-0.1-0.1-0.1-0.2c-0.1-0.1-0.1-0.2-0.2-0.4c0,0,0-0.1-0.1-0.1
						c-0.1,0-0.1-0.1-0.1-0.3c0,0,0-0.1-0.1-0.1c0,0-0.1-0.1-0.1-0.1c0-0.1-0.1-0.1-0.1-0.2c-0.1-0.1-0.2-0.4-0.3-0.6
						c0,0-0.1-0.1-0.1-0.2c-0.1-0.1-0.1-0.2-0.1-0.3c0,0,0-0.1,0-0.1c-0.1-0.1-0.1-0.3-0.2-0.4c-0.1-0.1-0.2-0.3-0.2-0.5
						c0,0,0-0.1-0.1-0.1c0-0.1,0-0.1,0-0.1c0,0,0,0,0,0c-0.1-0.1-0.3-0.4-0.4-0.6c0-0.1-0.1-0.1-0.1-0.2c0-0.1-0.1-0.2-0.1-0.3
						c-0.1-0.1-0.1-0.1-0.1-0.2c-0.1-0.1-0.1-0.2-0.1-0.2c-0.1-0.2-0.2-0.4-0.3-0.5c0-0.1-0.1-0.1-0.1-0.2c-0.1-0.1-0.1-0.3-0.2-0.6
						c0,0,0,0,0-0.1c0,0-0.1-0.1-0.1-0.1c-0.1-0.3-0.1-0.4-0.2-0.6c0,0,0-0.1-0.1-0.1c-0.1-0.1-0.1-0.2-0.2-0.3
						c0-0.1-0.1-0.2-0.2-0.3c0-0.1-0.1-0.2-0.1-0.2c-0.1-0.1-0.1-0.3-0.2-0.4c0-0.1-0.1-0.1-0.1-0.2c-0.1-0.1-0.1-0.3-0.2-0.6
						c0-0.1-0.1-0.1-0.1-0.2c0-0.1-0.1-0.2-0.1-0.4c0,0,0,0-0.1-0.1c-0.1-0.1-0.2-0.1-0.2-0.2c-0.1-0.1-0.1-0.3-0.1-0.4
						c-0.1-0.1-0.1-0.2-0.2-0.4c0-0.1-0.1-0.2-0.1-0.4c0,0-0.1-0.1-0.1-0.2c-0.1-0.1-0.1-0.3-0.2-0.4c-0.1-0.1-0.1-0.3-0.1-0.3
						c0-0.1-0.1-0.2-0.1-0.2c-0.1-0.2-0.1-0.4-0.2-0.5c0-0.1,0-0.1-0.1-0.1c0-0.1,0-0.1-0.1-0.1c-0.1-0.3-0.1-0.4-0.2-0.6
						c0,0,0-0.1,0-0.1c-0.1-0.1-0.1-0.3-0.2-0.5c0-0.1-0.1-0.3-0.1-0.4c0,0,0-0.1,0-0.1c-0.1-0.2-0.2-0.4-0.2-0.5
						c0-0.2-0.1-0.3-0.1-0.4c0-0.1-0.1-0.1-0.1-0.2c0-0.1-0.1-0.2-0.1-0.3c0-0.1,0-0.2,0-0.3c-0.1,0-0.1-0.1-0.3-0.3
						c0-0.2-0.1-0.4-0.2-0.6c0,0,0,0,0-0.1c0-0.1,0-0.1,0-0.2c0-0.1-0.1-0.2-0.1-0.3c-0.1-0.1-0.1-0.3-0.2-0.4c0-0.1,0-0.1,0-0.2
						c0-0.1,0-0.3-0.1-0.4c0-0.1-0.1-0.1-0.1-0.2c-0.1-0.2-0.1-0.3-0.2-0.5c-0.1-0.1-0.1-0.1-0.1-0.3c-0.1-0.1-0.1-0.3-0.1-0.4
						c0-0.1-0.1-0.2-0.1-0.3c0-0.1-0.1-0.2-0.1-0.3c0,0-0.1-0.1-0.1-0.2c-0.1-0.1-0.1-0.3-0.2-0.5c-0.1-0.1-0.1-0.2-0.1-0.3
						c0,0,0-0.1,0-0.1c0,0,0-0.1-0.1-0.1c-0.1-0.1-0.1-0.2-0.2-0.5c0-0.1-0.1-0.1-0.1-0.2c0-0.1-0.1-0.2-0.1-0.2
						c-0.1-0.1-0.1-0.3-0.2-0.4c0-0.1,0-0.2-0.1-0.2c0-0.1-0.1-0.2-0.1-0.3c0,0,0-0.1,0-0.1c0-0.1-0.1-0.2-0.1-0.3
						c-0.1-0.3-0.2-0.4-0.3-0.6c0-0.1-0.1-0.2-0.1-0.4c0-0.1,0-0.1-0.1-0.2c0-0.1,0-0.2-0.1-0.2c-0.1-0.1-0.1-0.1-0.1-0.2
						c0,0,0,0,0-0.1c-0.1-0.1-0.1-0.4-0.1-0.6c-0.1-0.1-0.1-0.4-0.2-0.6c0-0.1-0.1-0.1-0.1-0.2c0-0.1-0.1-0.2-0.1-0.3
						c0-0.1-0.1-0.3-0.1-0.4c0-0.1-0.1-0.2-0.1-0.4c0-0.1-0.1-0.2-0.2-0.4v-0.1c-0.1-0.1-0.1-0.3-0.2-0.5c0-0.1,0-0.1,0-0.2
						c0-0.1-0.1-0.1-0.1-0.2c0-0.1,0-0.1-0.1-0.2c0-0.1,0-0.1-0.1-0.2c0-0.1-0.1-0.2-0.1-0.3c0-0.1,0-0.2,0-0.2
						c-0.1-0.3-0.1-0.4-0.2-0.7c0,0,0-0.1,0-0.1c-0.1-0.2-0.1-0.4-0.2-0.6c0,0,0,0,0,0c-0.1,0-0.1-0.1-0.1-0.2c0,0,0,0,0,0
						c-0.1-0.1-0.1-0.3-0.1-0.4c0-0.1,0-0.1,0-0.2c0-0.1,0-0.1,0-0.1c-0.2-0.3-0.2-0.4-0.4-0.9c0-0.1,0-0.2-0.1-0.3
						c0-0.1-0.1-0.2-0.1-0.2c0-0.1,0-0.1-0.1-0.2c0-0.1,0-0.1-0.1-0.1c0,0,0,0,0,0c0-0.1-0.1-0.3-0.1-0.4c0-0.1-0.1-0.2-0.1-0.3
						c0-0.2-0.1-0.3-0.1-0.4c0-0.1-0.1-0.2-0.1-0.3c0,0,0,0,0-0.1c-0.1-0.1-0.1-0.3-0.2-0.5c0-0.1,0-0.1-0.1-0.2
						c0-0.1-0.1-0.1-0.1-0.2c0-0.1-0.1-0.2-0.1-0.4c0-0.1-0.1-0.3-0.1-0.4c0,0,0,0,0,0c-0.1-0.1-0.1-0.4-0.2-0.7
						c-0.1-0.1-0.1-0.4-0.2-0.6c0,0,0,0,0-0.1c-0.1-0.2-0.1-0.4-0.2-0.6c0-0.1,0-0.1-0.1-0.2c-0.1-0.1-0.1-0.3-0.1-0.4
						c0-0.1,0-0.1-0.1-0.2c0-0.1,0-0.2-0.1-0.3c0,0,0-0.1,0-0.1c-0.1-0.2-0.1-0.4-0.1-0.6c0-0.1-0.1-0.1-0.1-0.2
						c0-0.1-0.1-0.2-0.1-0.4c0,0,0-0.1-0.1-0.2c0,0,0-0.1,0-0.1c-0.1-0.3-0.1-0.4-0.1-0.6c0-0.1-0.1-0.1-0.1-0.2
						c0-0.1-0.1-0.3-0.1-0.3c-0.1-0.1-0.1-0.3-0.2-0.4c0-0.2-0.1-0.3-0.1-0.5c0-0.1-0.1-0.2-0.1-0.4c0,0,0-0.1-0.1-0.1
						c0-0.1-0.1-0.4-0.1-0.6c-0.1-0.2-0.1-0.4-0.2-0.6c0,0,0-0.1,0-0.1c0,0,0,0,0-0.1c0-0.1-0.1-0.2-0.1-0.2c0-0.1,0-0.2-0.1-0.2
						c0-0.1-0.1-0.3-0.1-0.5c0-0.1-0.1-0.4-0.1-0.6c0-0.1,0-0.1,0-0.2c0-0.1,0-0.1,0-0.2c0,0,0-0.1,0-0.1c0-0.1-0.1-0.2-0.1-0.3
						c0-0.1-0.1-0.3-0.1-0.4c0-0.1,0-0.3,0-0.4c-0.1,0-0.1-0.1-0.1-0.1c0-0.1,0-0.2-0.1-0.2c0-0.1-0.1-0.3-0.1-0.5
						c0-0.3-0.1-0.4-0.1-0.7c0-0.1-0.1-0.3-0.1-0.3c0-0.1,0-0.2-0.1-0.3c0-0.2,0-0.3-0.1-0.4c-0.1-0.1-0.1-0.4-0.1-0.6
						c0,0,0-0.1-0.1-0.3c0-0.1,0-0.3-0.1-0.4c0-0.1,0-0.1-0.1-0.2c-0.1-0.2-0.1-0.3-0.1-0.5c0-0.1,0-0.1,0-0.2
						c0-0.1-0.1-0.1-0.1-0.2c0-0.1,0-0.1,0-0.2c-0.1-0.3-0.1-0.4-0.1-0.7c-0.1-0.1-0.1-0.3-0.2-0.4c0,0,0,0,0,0
						c0-0.1-0.1-0.3-0.1-0.4c0-0.1,0-0.1-0.1-0.2c0-0.1,0-0.3-0.1-0.3c0-0.1-0.1-0.4-0.1-0.6c0-0.3-0.1-0.4-0.1-0.6c0,0,0-0.1,0-0.1
						c0-0.2-0.1-0.3-0.1-0.5c0-0.1-0.1-0.4-0.1-0.6c-0.1-0.1-0.1-0.3-0.1-0.4c0-0.1,0-0.1,0-0.2c0-0.1-0.1-0.2-0.1-0.4
						c0-0.1,0-0.3-0.1-0.4c0-0.2,0-0.3-0.1-0.5c0-0.1-0.1-0.2-0.1-0.3c0-0.1,0-0.2,0-0.3c0,0,0-0.1,0-0.1c0-0.3-0.1-0.4-0.1-0.7
						c0-0.1,0-0.3-0.1-0.4c0-0.1,0-0.2,0-0.3c0-0.1,0-0.2,0-0.3c-0.1-0.1-0.1-0.3-0.1-0.6c0-0.1,0-0.2,0-0.3c0-0.1-0.1-0.3-0.1-0.5
						c0,0,0-0.1-0.1-0.3c0-0.3-0.1-0.4-0.1-0.7c0-0.1,0-0.3-0.1-0.4c0-0.1,0-0.3,0-0.4c0,0,0-0.1,0-0.1c0-0.2-0.1-0.3-0.1-0.5
						c0-0.3-0.1-0.4-0.1-0.7c-0.1-0.1-0.1-0.3-0.1-0.4c0-0.3-0.1-0.6-0.1-0.7c0-0.1,0-0.3,0-0.4c0,0,0-0.1,0-0.1
						c-0.1-0.2-0.1-0.4-0.1-0.6c0-0.1-0.1-0.3-0.1-0.4c0-0.1-0.1-0.4-0.2-0.6c0-0.3-0.1-0.4-0.1-0.7c0-0.1-0.1-0.3-0.1-0.4
						c0,0,0-0.1-0.1-0.3c0-0.1,0-0.4-0.1-0.6c0-0.1,0-0.1,0-0.1c0-0.1-0.1-0.3-0.1-0.4c0-0.1-0.1-0.3-0.1-0.4
						c-0.1-0.3-0.1-0.6-0.1-0.7c-1-6.3-1.8-12.8-2.4-19.5c-0.2-2-0.4-4-0.5-6.1c-0.4-5.2-0.7-10.4-0.8-15.8
						c-0.1-1.8-0.1-3.7-0.1-5.6c0-1.9,0-3.7-0.1-5.6c-0.1-41.7,6.3-90.1,22.1-144.6c0.3-1,0.6-2,0.9-3c0.2-0.7,0.5-1.5,0.7-2.2
						c0.2-0.6,0.4-1.3,0.6-2c0.1-0.3,0.2-0.7,0.3-1c0.2-0.6,0.3-1.2,0.5-1.7c0.3-1,0.7-2,1.1-3.1c0.3-0.9,0.5-1.8,0.8-2.7
						c0.2-0.6,0.4-1.3,0.6-1.9c0.7-2.5,1.6-4.9,2.4-7.2c0.4-1.5,0.9-2.8,1.4-4.3c0.7-2,1.4-4,2.1-6c0.8-2.6,1.8-5.1,2.7-7.6
						c1.3-3.4,2.6-7,3.8-10.4c0.8-1.9,1.5-3.8,2.2-5.7c0.3-0.7,0.5-1.4,0.8-2.1c0.3-0.7,0.5-1.4,0.8-2c0.6-1.5,1.2-3,1.8-4.6
						c0.6-1.4,1.1-2.8,1.8-4.3c0.3-0.8,0.7-1.7,1-2.5c0.4-1,0.9-2.1,1.3-3.1c0.2-0.5,0.4-1,0.6-1.5c0.5-1.2,0.9-2.3,1.4-3.4
						c0.2-0.4,0.4-0.9,0.6-1.4c0.1-0.3,0.3-0.7,0.4-1c0.4-0.8,0.7-1.7,1.1-2.4c0.6-1.6,1.3-3,1.8-4.4c0.9-1.7,1.6-3.4,2.3-5
						c0.4-1,0.8-2,1.4-2.9c0.4-0.8,0.7-1.7,1.1-2.5c0.1-0.3,0.3-0.6,0.4-0.9c0.1-0.3,0.3-0.7,0.4-1c0.4-0.8,0.7-1.6,1.1-2.4
						c0.4-0.9,0.9-1.8,1.2-2.7c0.6-1.3,1.2-2.6,1.9-4c0.3-0.6,0.6-1.3,0.9-1.9c0.2-0.4,0.4-0.8,0.5-1.1c0.4-0.8,0.7-1.6,1.1-2.3
						c0.2-0.3,0.3-0.5,0.4-0.8c0-0.1,0.1-0.2,0.1-0.3c0.1-0.1,0.2-0.3,0.2-0.4c0.1-0.3,0.3-0.5,0.4-0.8c0.1-0.2,0.2-0.5,0.4-0.7
						c0.2-0.4,0.5-0.9,0.7-1.3c0.4-0.7,0.8-1.4,1.2-2.1c0.4-0.7,0.6-1.3,1-1.9c0.5-0.9,0.9-1.9,1.4-2.8c0.5-0.9,1-1.8,1.4-2.6
						c0.1-0.2,0.2-0.4,0.4-0.7c0.4-0.7,0.7-1.4,1.1-2.1c0.1-0.2,0.3-0.5,0.4-0.7c0.4-0.6,0.8-1.2,1.1-1.9c0.3-0.6,0.6-1.1,0.9-1.6
						c0.3-0.6,0.6-1.2,1-1.8c0.1-0.2,0.3-0.5,0.4-0.7c0.2-0.3,0.3-0.6,0.5-0.9c0.3-0.6,0.6-1.2,0.9-1.8c0.1-0.1,0.2-0.3,0.2-0.4
						c0.2-0.3,0.3-0.6,0.5-1c0.1-0.1,0.1-0.2,0.2-0.3c0.4-0.7,0.8-1.3,1.2-2c0.2-0.4,0.4-0.8,0.6-1.2c0.2-0.4,0.4-0.8,0.6-1.2
						c0.1-0.2,0.3-0.4,0.4-0.6c0.2-0.3,0.4-0.7,0.6-1c0.5-0.8,1-1.6,1.4-2.4c0.4-0.8,0.8-1.5,1.2-2.2c0.3-0.4,0.6-0.9,0.8-1.4
						c0-0.1,0.1-0.2,0.1-0.3c0-0.1,0.1-0.1,0.1-0.2c0.4-0.6,0.7-1.2,1.1-1.8c0.3-0.5,0.6-1.1,0.9-1.6c0-0.1,0.1-0.1,0.1-0.2
						c0.1-0.1,0.1-0.2,0.2-0.3c0.2-0.3,0.3-0.5,0.5-0.8c0.1-0.1,0.2-0.3,0.3-0.4c0.4-0.8,0.8-1.4,1.2-2.1c0.4-0.6,0.8-1.3,1.2-1.9
						c0.4-0.6,0.7-1.1,1-1.6c0.2-0.4,0.5-0.9,0.8-1.3c0.1-0.2,0.2-0.4,0.3-0.6c0.4-0.6,0.7-1.2,1.1-1.8c0.2-0.3,0.4-0.7,0.6-0.9
						c0,0,0,0,0-0.1c0.1-0.1,0.1-0.3,0.2-0.4c0.2-0.3,0.3-0.5,0.5-0.8c0.1-0.2,0.3-0.4,0.4-0.7c0.4-0.6,0.8-1.2,1.1-1.8
						c0.4-0.4,0.6-0.8,0.9-1.3c0.1-0.1,0.1-0.3,0.2-0.4c0.3-0.5,0.6-0.9,0.9-1.4c0.4-0.5,0.7-1,1-1.5c0.1-0.1,0.1-0.2,0.2-0.2
						c0.1-0.1,0.1-0.2,0.2-0.3c0.2-0.3,0.4-0.7,0.6-1c0.1-0.1,0.1-0.2,0.2-0.2c0-0.1,0.1-0.1,0.1-0.2c0.2-0.3,0.3-0.6,0.5-0.9
						c0.1-0.2,0.2-0.3,0.3-0.5c0.2-0.3,0.3-0.5,0.5-0.7c0.1-0.1,0.1-0.2,0.2-0.3c0.2-0.2,0.3-0.4,0.4-0.6c0.1-0.2,0.2-0.3,0.3-0.5
						c0.1-0.2,0.2-0.4,0.4-0.5c0.3-0.5,0.6-1,0.9-1.5c0,0,0.1-0.1,0.1-0.1c0,0,0.1-0.1,0.1-0.1c0.3-0.4,0.5-0.8,0.8-1.1
						c0.4-0.5,0.8-1.1,1.1-1.6c0.4-0.4,0.6-0.9,0.9-1.4c0.4-0.5,0.6-1,1-1.5c0.3-0.4,0.6-0.8,0.9-1.2c0.2-0.4,0.5-0.9,0.8-1.3
						c0,0,0.1-0.1,0.1-0.1c0-0.1,0.1-0.1,0.1-0.2c0.2-0.2,0.3-0.5,0.5-0.7c0.1-0.1,0.2-0.3,0.3-0.4c0.3-0.5,0.7-1,1.1-1.6
						c0.1-0.1,0.2-0.3,0.3-0.4c0.2-0.3,0.4-0.6,0.6-0.9c0.3-0.4,0.5-0.8,0.8-1.1c0,0,0-0.1,0.1-0.1c0.2-0.3,0.4-0.5,0.5-0.8
						s0.4-0.5,0.6-0.8c0.2-0.2,0.3-0.4,0.5-0.7c0.2-0.2,0.3-0.5,0.5-0.7c0.1-0.1,0.2-0.3,0.3-0.5c0.1-0.2,0.2-0.3,0.3-0.4
						c0.3-0.5,0.6-0.9,0.9-1.3c0,0,0-0.1,0.1-0.1c0-0.1,0.1-0.1,0.1-0.2c0.3-0.4,0.5-0.7,0.8-1.1c0-0.1,0.1-0.1,0.1-0.2
						c0,0,0-0.1,0.1-0.1c0.2-0.3,0.5-0.7,0.7-1c0.4-0.4,0.7-0.9,1-1.3c0.2-0.2,0.3-0.4,0.5-0.6c0.1-0.1,0.1-0.1,0.2-0.2
						c0.1-0.2,0.3-0.4,0.4-0.6c0.2-0.4,0.5-0.7,0.7-1.1c0.2-0.3,0.5-0.6,0.7-0.9c0-0.1,0.1-0.1,0.1-0.2c0-0.1,0.1-0.1,0.1-0.2
						c0.3-0.4,0.6-0.8,0.9-1.2c0.4-0.3,0.6-0.6,0.8-1c0.3-0.4,0.6-0.9,1-1.4c0.1-0.2,0.2-0.3,0.3-0.5c0.1-0.1,0.2-0.2,0.3-0.4
						c0.1-0.2,0.2-0.3,0.3-0.5c0.3-0.3,0.5-0.6,0.8-1c0,0,0-0.1,0.1-0.1c0,0,0-0.1,0.1-0.1c0.3-0.4,0.6-0.8,0.9-1.2
						c0.2-0.3,0.5-0.6,0.7-0.8c0.3-0.4,0.6-0.9,1-1.3c0.2-0.3,0.4-0.6,0.7-1c0-0.1,0.1-0.1,0.1-0.2c0,0,0-0.1,0.1-0.1
						c0.2-0.3,0.5-0.6,0.7-0.9c0,0,0.1-0.1,0.1-0.1c0.4-0.5,0.6-0.8,1-1.3c0.2-0.2,0.4-0.5,0.6-0.7c0.1-0.1,0.2-0.2,0.3-0.4
						c0.3-0.4,0.6-0.7,0.8-1.1c0.3-0.3,0.6-0.6,0.8-0.9c0.3-0.4,0.6-0.7,0.9-1.1c0.3-0.3,0.5-0.7,0.8-1.1c0,0,0-0.1,0.1-0.1
						c0,0,0.1-0.1,0.1-0.1c0.2-0.2,0.4-0.5,0.6-0.7c0.1-0.1,0.2-0.2,0.3-0.3c0.1-0.1,0.1-0.2,0.2-0.3c0.2-0.3,0.4-0.5,0.6-0.7
						c0.2-0.2,0.3-0.3,0.5-0.5c0.1-0.1,0.1-0.2,0.2-0.2c0.1-0.1,0.2-0.3,0.3-0.4c0.3-0.3,0.7-0.7,0.9-1.1c0,0,0-0.1,0.1-0.1
						c0.1-0.1,0.3-0.3,0.4-0.4c0.1-0.2,0.3-0.3,0.4-0.5c0.3-0.4,0.6-0.6,0.8-0.9c0.4-0.4,0.6-0.8,1-1.2c0.3-0.3,0.6-0.7,0.9-1.1
						c0,0,0,0,0.1-0.1c0.2-0.4,0.4-0.6,0.7-0.9c0.1-0.1,0.2-0.2,0.3-0.3c0.2-0.3,0.5-0.5,0.7-0.8c0.2-0.3,0.5-0.6,0.7-0.9
						c0,0,0,0,0.1-0.1c0,0,0.1-0.1,0.1-0.1c0.2-0.3,0.4-0.6,0.6-0.8c0.2-0.2,0.3-0.4,0.5-0.5c0,0,0,0,0,0c0.2-0.2,0.3-0.4,0.5-0.6
						c0.1-0.2,0.3-0.3,0.4-0.5c0.2-0.2,0.4-0.4,0.5-0.6c0.1-0.1,0.1-0.2,0.2-0.3c0.2-0.2,0.3-0.4,0.5-0.6c0.4-0.4,0.6-0.8,1.1-1.1
						c0.4-0.4,0.6-0.7,1-1.2c0.1-0.1,0.2-0.2,0.4-0.4s0.2-0.3,0.4-0.4c0,0,0,0,0,0c0.2-0.3,0.5-0.5,0.7-0.7c0.4-0.4,0.7-0.8,1.1-1.1
						c0.3-0.4,0.6-0.7,0.8-1.1c0.3-0.3,0.5-0.5,0.8-0.8c0,0,0,0,0,0c0,0,0,0,0.1-0.1c0.3-0.3,0.5-0.6,0.8-0.9
						c0.3-0.3,0.5-0.5,0.7-0.8c0.1-0.1,0.2-0.2,0.3-0.4c0.1-0.1,0.1-0.1,0.2-0.2c0.2-0.2,0.4-0.4,0.6-0.6c0.3-0.2,0.5-0.5,0.7-0.8
						c0.4-0.3,0.7-0.7,1-1c0.4-0.4,0.7-0.7,1-1.1c0.3-0.3,0.5-0.6,0.8-0.8c0,0,0-0.1,0.1-0.1c0.3-0.3,0.6-0.6,0.9-1c0,0,0,0,0.1-0.1
						c0.4-0.4,0.7-0.7,1-1c0.1-0.1,0.2-0.3,0.4-0.4c0.1-0.1,0.2-0.2,0.3-0.3c0.1-0.1,0.3-0.3,0.4-0.4c0.1-0.1,0.2-0.3,0.4-0.4
						c0.4-0.4,0.7-0.7,1.1-1.1c0.1-0.1,0.2-0.2,0.2-0.3c0.2-0.2,0.5-0.5,0.7-0.7c0.3-0.2,0.6-0.5,0.9-0.8c0.3-0.3,0.6-0.7,1-1
						c0,0,0,0,0,0c0.1-0.2,0.3-0.3,0.5-0.5c0.4-0.4,0.8-0.8,1.2-1.1c0,0,0,0,0,0c0.2-0.2,0.3-0.4,0.5-0.6c0.1-0.1,0.1-0.2,0.2-0.3
						c0.1-0.1,0.1-0.1,0.2-0.1c0.3-0.2,0.5-0.4,0.7-0.6c0.1-0.1,0.2-0.3,0.3-0.4c0,0,0,0,0,0c0.1-0.1,0.3-0.3,0.4-0.4
						c0.3-0.4,0.6-0.7,0.9-1c0,0,0,0,0,0c0.2-0.2,0.4-0.4,0.5-0.5c0.2-0.2,0.3-0.3,0.5-0.5c0.1,0,0.1-0.1,0.2-0.2
						c0.2-0.2,0.4-0.4,0.6-0.6c0.2-0.2,0.5-0.5,0.7-0.7c0,0,0,0,0,0v0c0.4-0.4,0.7-0.6,1.1-1.1c0.2-0.2,0.4-0.3,0.5-0.5
						c0.1-0.1,0.3-0.3,0.5-0.4c0,0,0.1-0.1,0.1-0.1c0.2-0.2,0.4-0.4,0.7-0.7c0.2-0.2,0.5-0.4,0.7-0.6c0,0,0.1-0.1,0.1-0.1
						c0.1-0.1,0.2-0.1,0.2-0.2c0.2-0.2,0.5-0.5,0.7-0.6c0.2-0.2,0.5-0.5,0.7-0.7c13.8-12.9,27.7-24,41.5-33.6
						c3.5-2.4,6.9-4.7,10.4-6.8c38-23.9,75.2-35.4,109-35.4c2.9,0,5.7,0.1,8.6,0.2c13,0.8,25.5,3.3,37.3,7.6c2.9,1,5.7,2.3,8.5,3.7
						c0.2,0.1,0.4,0.2,0.5,0.3c2.1,1.1,4.3,2.3,6.4,3.6c7.3,4.5,14.4,10.2,21.1,17c0,0,0.1,0.1,0.1,0.1
						c18.5,18.9,34.4,46.2,45.5,79.7c2,5.9,3.8,12,5.4,18.3c1.6,6.2,3.1,12.5,4.4,19c5.2,26.1,7.7,54.8,6.8,85.4c0,0.2,0,0.4,0,0.5
						c-0.5,14.5-1.7,29.5-3.7,44.7c-0.6,4.1-1.2,8.2-1.8,12.4c-9.8,60.2-32.7,125.2-73.4,190.2c-20.4,32.5-41.1,60.4-61.8,84.3
						c-4.4,5.1-8.9,10-13.3,14.7c-1.7,1.8-3.5,3.7-5.2,5.5C2220.6,1423.7,2147.6,1450.2,2092.4,1450.2L2092.4,1450.2z M2375.1,627.7
						C2375.1,627.7,2375.1,627.7,2375.1,627.7C2375.1,627.7,2375.1,627.7,2375.1,627.7L2375.1,627.7z"/>
				</g>
				<g>
					<path d="M1250.4,153.3c-0.5,17.8,0.4,37.4,2.8,59.1c3.6,32.5,9.7,63.4,15.2,89.9c14.3,69,87.9,313.1,109.5,384.4
						c-156.3,56.2-259.5,99.1-342.7,142.2c-47.7,24.7-88.9,49.6-125.8,76.1c-26.1,18.7-50.2,38.3-72.9,59.3
						c-5.4-31.4-9.3-60.9-12-89.5c1.2,0.2,2.4,0.3,3.6,0.3c5.6,0,11.1-2.2,15.1-6.4c45.9-47,92.5-87.9,142.6-125
						c66.1-49,139.8-92.3,219-128.7c0.5-0.2,1-0.5,1.4-0.7c8-4.4,12.3-13.6,10.4-22.7c-11.8-57.2-22.9-113.2-29.9-169.9
						c-12.1-98.3-8.1-174,12.4-231.5c0.4-1,0.7-2.1,0.9-3.2c0.4-2.1,0.5-4.3,0.2-6.3C1216.2,171.3,1232.9,162.2,1250.4,153.3
						 M1275.1,117.7L1275.1,117.7L1275.1,117.7z M1275.1,117.7c-106,49.7-262.2,140.6-382.6,333.5
						c-115.7,185.1-103.4,386-69.7,555.7c119.6-123.4,278.7-199.3,581-307.3c0,0-98.3-322.4-114.8-401.7
						C1278.6,247.4,1264.5,174.2,1275.1,117.7L1275.1,117.7z M1179.1,183.2C1179.1,183.2,1179.1,183.2,1179.1,183.2
						C1179.1,183.2,1179.1,183.2,1179.1,183.2C1179.1,183.2,1179.1,183.2,1179.1,183.2C1179.1,183.2,1179.1,183.2,1179.1,183.2
						c-25,70.2-24,155.8-13.4,241.2c7.3,59.1,19.2,118.1,30.2,171.6c0,0,0,0,0,0c0,0,0,0,0,0c-179,82.2-292.4,180.8-367.8,258.1
						c-18.4-138-1.5-243.9,44.9-355.2c0,0,0,0,0,0c0,0,21.5-47.6,21.5-47.6c84.9-118.2,157.4-185.5,280.9-257.8
						C1175.2,193.5,1179,183.4,1179.1,183.2L1179.1,183.2z"/>
				</g>
				<g>
					<path d="M1742.3,42.2c14.1,0.7,36.5,3.2,64.4,8.5c-0.4,17.6-3.6,57.3-15.1,146.6c-7.2,55.3-16.6,122.4-27.5,194.3
						c-1.3,4.9-0.8,10.3,1.7,15.1c3.7,7.1,11,11.3,18.7,11.3c1.8,0,3.7-0.2,5.5-0.7c40.3-10.8,101.1-22.4,162.8-30.9
						c52.2-7.2,130.4-15.8,206.9-15.8c55.8,0,101.1,4.6,134.6,13.6c1.7,0.5,3.5,1,5.3,1.5l0.4,0.1l0.1,0c0,0,0,0,0.1,0
						c1.6,0.5,3.2,1,4.8,1.5c0,0,0,0,0.1,0l0.2,0.1c2.2,0.7,4.5,1.1,6.7,1.1c5.7,0,11.3-2.3,15.3-6.5c17.1,23.1,33.7,48,50.6,75.7
						c-27-2.4-55.3-3.7-84.5-3.7c-100,0-207.3,14.2-310.5,41.2c-132.7,34.4-304.3,86.2-396.7,119.2
						c40.6-205.7,97.1-470.3,144.2-563.5l4.5-7.8C1737.2,42.5,1740,42.2,1742.3,42.2 M1742.7,21.1c-4.4,0-13.9,0.7-22.2,5
						c-0.1,0-0.1,0-0.2,0.1c-0.1,0.1-0.2,0.1-0.3,0.2l-8.5,14.6c-49.5,97.3-107.7,371.8-153,603.5c-0.2,1.1,0.6,2,1.6,2
						c0.2,0,0.4,0,0.6-0.1c76-30.1,276.8-91.7,427.2-130.7c101.8-26.6,208-40.5,305.2-40.5c43.2,0,84.7,2.8,123.2,8.4
						c0,0,0.8,0.1,0.9,0.2c-81-142.5-159.3-229.2-302.6-329c-27.5-19.1-55.8-35.7-84-50c-2.4-1.2-4.7-2.4-7.1-3.5
						c-21.1-10.4-42.2-19.6-62.8-27.7c-2.3-0.9-4.6-1.8-6.8-2.6C1860.8,35.2,1778.4,22.8,1742.7,21.1L1742.7,21.1z M1827.8,46.7
						L1827.8,46.7C1827.9,46.7,1827.9,46.7,1827.8,46.7c1.8,0.4,3.6,0.8,5.5,1.2c0.4,0.1,0.9,0.2,1.3,0.3c1.2,0.3,2.5,0.6,3.7,0.9
						c1.3,0.3,2.6,0.6,3.9,1c1.5,0.4,2.9,0.7,4.4,1.1c1.1,0.3,2.2,0.6,3.3,0.9c1.2,0.3,2.4,0.6,3.6,1c-1.6-0.4-2.9-0.6-4-0.6
						c-5.9,0-3,5.5,4.1,7.8c157.8,43.5,355.7,180,446.1,303.5l11.9,3.8c0,0,0,0.1,0.1,0.1c0,0,0,0,0,0c0,0,0,0,0,0c0,0-0.1,0-0.1,0
						c-0.1,0-0.2-0.1-0.3-0.1c-1.7-0.6-3.5-1.1-5.3-1.6c-0.2-0.1-0.4-0.1-0.6-0.2c-1.9-0.6-3.8-1.1-5.8-1.6
						c-37.9-10.2-86.9-14.3-140.1-14.3c-135.7,0-298.6,26.8-375.1,47.4l0.1-0.1c10.9-72,20.5-139.8,27.8-196.9
						C1822,126.4,1827.8,70.7,1827.8,46.7C1827.8,46.7,1827.8,46.7,1827.8,46.7L1827.8,46.7z"/>
				</g>
				<g>
					<path d="M1340.3,972.8l138.2,75c-86.4,203.2-176.9,427.1-177.8,429.4c-3.9,9.6-0.2,20.6,8.6,25.9c3.4,2,7.2,3,10.9,3
						c3.8,0,7.6-1,10.9-3c122.9,55.6,233.3,92.7,328.2,110.4c0.1,0,0.3,0.1,0.4,0.1c22,4.1,42.6,7,62.1,9c-4.9,3.1-8.9,5.6-11.4,7.2
						c-1.4,0.9-3,1.5-4.6,1.9l-2.8,0.7c-0.9,0.2-1.9,0.3-2.8,0.3c-0.3,0-0.6,0-0.9,0c-127.2-10.3-246.2-41.4-374.3-98
						c-0.1,0-0.2-0.1-0.3-0.1l-13.7-5.8c-2.6-1.1-5.4-1.7-8.2-1.7c-3.1,0-6.2,0.7-9.1,2.1c-5.5,2.6-9.5,7.5-11.2,13.3
						c-0.5,1.7-9.9,35.4-16.5,62.4c-22-10.3-54-28-63.8-33.7l-4.3-4c-6.2-19.8-8.3-49.3-6.4-90c0.4-7.5-3.4-14.7-9.7-18.8
						c-112.5-71.8-203.9-156.5-271.8-251.8c0,0-0.1-0.1-0.1-0.1c-1.2-1.7-3.1-4.3-3.4-5c0-0.1-0.3-0.7-0.7-3.4c0-0.1,0-0.3-0.1-0.4
						c-0.6-3.3-1.3-7.7-2-12.8c59.9,73.3,131.9,138.7,233.5,213.2c2.6,1.9,5.2,3.8,7.9,5.8c4.5,3.3,9,6.5,13.4,9.7
						c3.8,2.7,7.3,5.2,10.6,7.6c3.6,2.6,7.9,3.9,12.2,3.9c2.6,0,5.2-0.5,7.7-1.5c6.6-2.6,11.5-8.4,12.9-15.4
						C1240.1,1221.5,1283.6,1100.7,1340.3,972.8 M1330.3,943.4c-66.6,147.4-110.5,272.2-149,460.4c-3.6-2.5-7.1-5-10.5-7.5
						c-4.5-3.2-8.9-6.4-13.3-9.6c-2.6-1.9-5.2-3.8-7.8-5.7c-133.5-97.9-211.4-176.9-277.5-273.5c0.1,0.9,0.2,1.7,0.3,2.7
						c0.6,9.8,9.2,72,12.4,91.1c1.3,8.4,2.6,10.4,7.9,17.6c77.9,109.4,178.1,193.8,277.6,257.3c-2.5,53.5,2.1,82.3,8.2,100.1
						c0.6,1.7,1.6,3.2,2.9,4.5l7.9,7.4c6.5,3.9,58.4,33.1,82,42c0.3,0.1,0.7,0.3,1,0.4c0.1,0,0.2,0.1,0.2,0.1h0
						c2.1,0.7,3.3,0.8,4.1,0.8c0.3,0,0.6,0,0.9-0.1c0.1,0,0.2,0,0.4-0.1c0.3-0.1,0.6-0.1,0.8-0.2c0.2-0.1,0.3-0.1,0.5-0.2
						c0.1,0,0.2-0.1,0.2-0.1c1.7-1,3-3,3.6-6.9c5.9-27.1,19.5-75.6,19.5-75.6l13.7,5.8c126,55.7,247,88.9,381.1,99.8
						c0.9,0.1,1.7,0.1,2.6,0.1c2.6,0,5.2-0.3,7.7-0.9l2.8-0.7c3.9-0.9,7.6-2.5,11-4.6c12.6-7.9,45.1-28.5,60.6-39.7c0,0,0,0,0,0
						c0.3-0.2,0.7-0.5,1-0.7c0,0,0,0,0,0c0,0,0,0,0,0c0,0,0,0,0,0c0.8-0.6,1.5-1.1,2.2-1.6c0,0,0,0,0,0c0,0,0,0,0,0
						c-0.1,0.1-0.1,0.1-0.2,0.2c-0.6,0.5-1.3,1-2,1.5c0.4-0.1,2.4-0.5,3.7-1.4c0.7-0.5,0.6-2,1-2.1c-5.1,0.3-10.2,0.4-15.4,0.4
						c-34,0-70.5-4.1-109-11.2l0,0c-99.9-18.6-212.7-58.6-326-110c-4.3-1.9-1.9-4.3-0.5-6.9c3.4-6.5-0.4-9.5-0.3-10.4l-0.6,0.8
						l-15.8,18.7c0,0,95.6-236.7,185.2-446.7l0,0L1330.3,943.4L1330.3,943.4z M1787.9,1603.7L1787.9,1603.7L1787.9,1603.7z"/>
				</g>
			</g>
			<g>
				<g>
					<path d="M1844.7,212.7c42.6,13.5,83.9,31.3,122.9,53.2c30.6,17.1,59.8,36.8,87.3,58.6c-10.9,0.8-22.1,1.7-33.5,2.8
						c-73,6.8-144,17.9-197.6,30.6c4.9-26.5,9.5-55.8,13.8-87.6c0-0.3,0.1-0.6,0.1-0.9c0-0.3,0.1-0.5,0.1-0.8c0-0.1,0-0.2,0-0.2
						c0.1-0.3,0.1-0.6,0.2-0.9c0.1-0.6,0.2-1.2,0.3-1.8c0-0.2,0.1-0.5,0.1-0.7c0-0.2,0.1-0.5,0.1-0.7c0.1-0.4,0.1-0.8,0.2-1.3
						c0.1-0.4,0.1-0.8,0.2-1.1c0-0.2,0.1-0.4,0.1-0.6c0.1-0.4,0.1-0.8,0.2-1.2c0-0.2,0-0.3,0.1-0.5c0.1-0.5,0.1-0.9,0.2-1.4
						c0.1-0.4,0.1-0.8,0.1-1.3c0-0.3,0.1-0.6,0.1-1c0-0.1,0-0.2,0-0.4c0-0.2,0-0.4,0.1-0.5c0.1-0.5,0.1-0.9,0.2-1.3
						c0-0.3,0.1-0.6,0.1-0.8c0-0.1,0-0.3,0-0.4c0.1-0.5,0.2-1,0.2-1.5c0-0.1,0-0.2,0-0.3c0-0.3,0.1-0.5,0.1-0.8c0-0.1,0-0.2,0-0.2
						c0-0.3,0.1-0.6,0.1-0.9c0-0.3,0.1-0.5,0.1-0.8c0-0.2,0-0.3,0.1-0.5c0-0.1,0-0.2,0-0.3c0-0.3,0.1-0.6,0.1-0.9c0-0.1,0-0.2,0-0.3
						l0.2-1.9c0.1-0.4,0.1-0.8,0.2-1.3c0.1-0.4,0.1-0.9,0.2-1.3c0-0.2,0.1-0.5,0.1-0.7c0,0,0-0.1,0-0.1c0.1-0.6,0.2-1.2,0.3-1.9
						c0-0.2,0-0.3,0.1-0.5c0-0.2,0.1-0.5,0.1-0.7c0-0.1,0-0.2,0-0.2c0-0.3,0.1-0.5,0.1-0.8c0-0.3,0.1-0.5,0.1-0.8c0-0.1,0-0.3,0-0.4
						c0-0.3,0.1-0.6,0.1-0.8c0-0.1,0-0.2,0-0.3c0-0.2,0.1-0.4,0.1-0.6c0-0.3,0.1-0.6,0.1-0.9c0.1-0.4,0.1-0.8,0.1-1.2
						c0-0.1,0-0.2,0-0.3c0-0.2,0.1-0.5,0.1-0.8C1843.3,224.6,1844,218.6,1844.7,212.7 M1842.6,229L1842.6,229L1842.6,229
						 M1840.2,248.9L1840.2,248.9L1840.2,248.9 M1826.6,185.4c0,0.2,0,0.4-0.1,0.6c-0.6,5.5-1.3,11.2-1.9,17.1
						c-0.9,8-1.9,16.4-2.9,25c0,0.1,0,0.2,0,0.4c0,0.1-0.1,0.4-0.1,0.6c0,0.1-0.1,0.4-0.1,0.6c0,0,0,0.1,0,0.1c0,0,0,0.1,0,0.2
						c0,0.1,0,0.1,0,0.2c0,0,0,0.1,0,0.1c0,0.1,0,0.1,0,0.2c0,0.1,0,0.2,0,0.2c0,0.1,0,0.2,0,0.2v0.1c-0.1,0.1-0.1,0.4-0.1,0.6
						c-0.1,0.1-0.1,0.4-0.1,0.6c-0.1,0.2-0.1,0.4-0.1,0.6v0.1c-0.1,0.1-0.1,0.4-0.1,0.6c-0.1,0.2-0.1,0.5-0.1,0.7
						c-0.1,0.1-0.1,0.4-0.1,0.6c-0.1,0.2-0.1,0.4-0.1,0.6c-0.1,0.1-0.1,0.4-0.1,0.5c0,0,0,0,0,0.1c-0.1,0.2-0.1,0.4-0.1,0.6
						c-0.1,0.1-0.1,0.4-0.1,0.6c0,0.1,0,0.1,0,0.1c-0.1,0.2-0.1,0.4-0.1,0.6c0,0.2,0,0.4-0.1,0.6c0,0.1,0,0.4-0.1,0.6
						c0,0.1,0,0.4-0.1,0.5c0,0.1,0,0.1,0,0.1c0,0.1,0,0.4-0.1,0.6c0,0.2,0,0.3-0.1,0.5c-0.1,1-0.3,2.1-0.4,3.1c0,0,0,0,0,0
						c0,0,0,0,0,0c0,0.1,0,0.3,0,0.4c0,0,0,0.1,0,0.1c0,0.2-0.1,0.4-0.1,0.6c0,0.2-0.1,0.4-0.1,0.6c0,0.2-0.1,0.4-0.1,0.8
						c-0.1,0.1-0.1,0.4-0.1,0.5v0.1c-0.1,0.1-0.1,0.4-0.1,0.6c-0.1,0.2-0.1,0.4-0.1,0.6c-0.1,0.2-0.1,0.4-0.1,0.6
						c-0.1,0.2-0.1,0.4-0.1,0.6c-0.1,0.2-0.1,0.4-0.1,0.6c0,0.2,0,0.4-0.1,0.6v0.1c0,0.2,0,0.4-0.1,0.6c0,0.1,0,0.3-0.1,0.5
						c0,0.2,0,0.4-0.1,0.7c0,0.1-0.1,0.4-0.1,0.6c0,0.2-0.1,0.4-0.1,0.6c0,0.2-0.1,0.4-0.1,0.6c0,0.1-0.1,0.4-0.1,0.5
						c0,0.2-0.1,0.4-0.1,0.6c0,0,0,0,0,0.1c-0.1,0.1-0.1,0.4-0.1,0.5c-0.1,0.3-0.1,0.5-0.1,0.7c-0.1,0.2-0.1,0.4-0.1,0.6
						c0,0.1,0,0.3,0,0.5c-0.1,0.1-0.1,0.4-0.1,0.6l-0.1,0.1c0,0.2,0,0.4-0.1,0.6c0,0.2,0,0.4-0.1,0.6c0,0.2,0,0.4-0.1,0.6
						c0,0.2-0.1,0.4-0.1,0.6c0,0.2-0.1,0.4-0.1,0.6v0.1c0,0.3-0.1,0.5-0.1,0.6c-0.1,0.2-0.1,0.4-0.1,0.6c-0.1,0.1-0.1,0.4-0.1,0.5
						c0,0.1,0,0.1,0,0.1c-0.1,0.1-0.1,0.4-0.1,0.6c0,0,0,0-0.1,0c0,0,0,0.1,0,0.1c0,0.2,0,0.3,0,0.5c0,0.2,0,0.4-0.1,0.6
						c0,0.2,0,0.4-0.1,0.6c0,0.2-0.1,0.4-0.1,0.6c0,0.2-0.1,0.4-0.1,0.6c0,0.1-0.1,0.4-0.1,0.5c0,0.3-0.1,0.4-0.1,0.6c0,0,0,0,0,0.1
						c-5.4,39.8-12.1,81.8-20.1,119.4l0.1-0.1c57.7-17.1,145.2-31,226.7-38.6c29.7-2.8,58.6-4.7,85-5.6
						C2029.6,269.4,1933.3,214.6,1826.6,185.4L1826.6,185.4z"/>
				</g>
				<path d="M1652.1,161.3C1652.1,161.3,1652.1,161.3,1652.1,161.3c0.2,0,0.5,0,0.7,0C1652.6,161.3,1652.4,161.3,1652.1,161.3z"/>
				<g>
					<path d="M2290,791.7c2.6,0,5.1,0.2,7.2,0.6c1.5,0.4,3,0.8,4.5,1.3c1,15,1.5,30.1,1.5,45c0,56.5-7.2,112.5-21.3,166.6
						c-13.7,52.5-34,103.2-60.4,150.8c-25.9,46.8-57.5,90.4-94,129.6c-32.1,34.5-67.9,65.6-106.6,92.4
						c-23.4-34.2-32.8-84.4-27.2-146.4c3.1-35,11-72.8,23.3-112.4c12.4-39.8,29.1-80.6,49.6-121.2c40.5-80.4,88.3-129.6,121.4-156.8
						C2225.1,810.7,2264.2,791.7,2290,791.7 M2290,770.6c-58.2,0-168.9,72.4-242.2,218c-84.5,167.2-105.1,337-31.9,416.9
						c0.3,0.3,0.6,0.5,1,0.8c185.2-120.9,307.5-329.9,307.5-567.6c0-19.8-0.9-39.5-2.5-58.9c-6.5-3.8-13.2-6.5-20.1-8.1
						C2298.1,771,2294.2,770.6,2290,770.6L2290,770.6z"/>
				</g>
				<path d="M979,951.6C979,951.6,979,951.6,979,951.6c-0.1-0.6-0.2-1.2-0.3-1.8C978.8,950.4,978.9,951.1,979,951.6z"/>
				<polygon points="2016.8,1406.2 2016.8,1406.2 2016.8,1406.2 				"/>
				<path d="M1847.9,1485.7C1847.9,1485.7,1848,1485.7,1847.9,1485.7C1848,1485.7,1847.9,1485.7,1847.9,1485.7
					C1847.9,1485.7,1847.9,1485.7,1847.9,1485.7z"/>
				<path d="M2321.8,779.8C2321.8,779.8,2321.8,779.8,2321.8,779.8C2321.8,779.8,2321.8,779.8,2321.8,779.8L2321.8,779.8z"/>
				<path d="M1893.2,1469.9c-0.6,0.2-1.2,0.4-1.7,0.7C1892,1470.3,1892.6,1470.1,1893.2,1469.9z"/>
			</g>
			<g>
				<path d="M2271.2,575.2C2271.2,575.2,2271.2,575.2,2271.2,575.2c0.2,0.4,0.4,0.9,0.5,1.3C2271.5,576.1,2271.4,575.7,2271.2,575.2
					z"/>
				<g>
					<path d="M1623,182.8c-44.2,140.5-86.7,341-122.9,521.1c-1.5,7.4,1.1,15.1,6.9,20.1c3.9,3.4,8.8,5.1,13.8,5.1
						c2.4,0,4.8-0.4,7.1-1.2c238.2-84.8,426-137.6,588.7-164.8c-0.5,0.2-1,0.3-1.5,0.5c-1.3,0.4-2.6,0.9-3.8,1.4
						c-1.3,0.5-2.7,1-4.1,1.5l-0.2,0.1c-1.2,0.5-2.4,0.9-3.7,1.4c-1.3,0.5-2.6,1-3.9,1.6l-0.2,0.1l-0.3,0.1c-1.2,0.5-2.4,1-3.6,1.5
						c-1.4,0.6-2.7,1.1-4.1,1.7l-0.3,0.1c-1.2,0.5-2.4,1-3.5,1.5c-1.3,0.6-2.6,1.2-3.8,1.7l-0.2,0.1l-0.3,0.2
						c-1.2,0.5-2.4,1.1-3.5,1.6c-1.3,0.6-2.6,1.3-3.9,1.9l-0.2,0.1l-0.5,0.2c-1.1,0.5-2.2,1.1-3.4,1.7c-1.3,0.6-2.5,1.3-3.8,1.9
						l-0.3,0.2l-0.5,0.3c-1.1,0.6-2.2,1.2-3.4,1.8c-1.3,0.7-2.5,1.3-3.8,2l-0.3,0.2l-0.5,0.3c-1.1,0.6-2.3,1.2-3.4,1.9
						c-1.2,0.7-2.4,1.4-3.6,2l-0.5,0.3l-0.5,0.3c-1.1,0.6-2.2,1.3-3.4,1.9c-1.2,0.7-2.4,1.4-3.7,2.2l-0.4,0.2l-0.5,0.3
						c-1.1,0.7-2.2,1.3-3.4,2c-1.2,0.7-2.4,1.5-3.6,2.2l-0.5,0.3l-0.6,0.4c-1.1,0.7-2.1,1.3-3.2,2c-1.2,0.8-2.4,1.6-3.6,2.3
						l-0.5,0.3l-0.7,0.4c-1.1,0.7-2.1,1.4-3.2,2.1c-1.2,0.8-2.4,1.6-3.5,2.4l-0.5,0.3l-0.6,0.4c-1.1,0.7-2.1,1.5-3.2,2.2
						c-1.1,0.8-2.2,1.6-3.4,2.4l-0.6,0.5l-0.7,0.5c-1,0.8-2.1,1.5-3.1,2.3c-1.1,0.8-2.2,1.7-3.3,2.5l-0.7,0.5l-0.8,0.6
						c-1,0.8-2,1.5-3,2.3c-1.1,0.8-2.2,1.7-3.3,2.6l-0.7,0.5l-0.8,0.6c-1,0.8-2,1.6-3,2.3c-1.1,0.9-2.1,1.7-3.2,2.6l-0.8,0.6
						l-0.8,0.7c-1,0.8-2,1.6-3,2.4c-1.1,0.9-2.2,1.8-3.3,2.8l-0.7,0.6l-0.8,0.7c-1,0.8-2,1.7-2.9,2.5c-1,0.9-2.1,1.8-3.1,2.7
						l-0.8,0.7l-0.9,0.8c-1,0.8-1.9,1.7-2.9,2.5c-1,0.9-2.1,1.9-3.1,2.9l-0.8,0.7l-0.9,0.8c-1,0.9-1.9,1.7-2.9,2.6
						c-1,1-2,1.9-3.1,2.9l-0.8,0.8l-0.9,0.8c-1,0.9-1.9,1.8-2.9,2.7c-1,1-2,1.9-2.9,2.9l-0.9,0.9l-0.9,0.9c-0.9,0.9-1.9,1.9-2.8,2.8
						c-1,1-2,2-2.9,3l-0.9,0.9l-0.9,0.9c-0.9,1-1.9,1.9-2.8,2.9c-1,1-1.9,2-2.9,3.1l-0.9,0.9l-0.9,1c-0.9,1-1.8,1.9-2.7,2.9
						c-1,1-1.9,2.1-2.9,3.1l-0.9,1l-1,1.1c-0.9,1-1.8,2-2.7,2.9c-0.9,1-1.8,2.1-2.7,3.1l-1,1.1l-1,1.1c-0.9,1-1.8,2-2.6,3
						c-0.9,1.1-1.8,2.2-2.8,3.2l-0.9,1.1l-0.9,1.1c-0.9,1.1-1.8,2.1-2.7,3.2c-0.9,1.1-1.8,2.2-2.8,3.4l-0.9,1.1l-1,1.2
						c-0.9,1.1-1.7,2.1-2.6,3.2c-0.9,1.1-1.8,2.3-2.7,3.4l-0.9,1.1l-0.9,1.2c-0.9,1.1-1.8,2.2-2.6,3.3c-0.9,1.1-1.7,2.2-2.6,3.3
						l-1,1.4l-1,1.3c-0.8,1.1-1.7,2.2-2.5,3.3c-0.8,1.1-1.7,2.3-2.5,3.4l-1,1.4l-1,1.4c-0.8,1.1-1.7,2.2-2.5,3.4
						c-0.9,1.2-1.7,2.4-2.5,3.5l-1,1.4l-1,1.4c-0.8,1.1-1.6,2.3-2.4,3.4c-0.8,1.2-1.6,2.4-2.5,3.6l-1,1.4l-1,1.4
						c-0.8,1.2-1.6,2.4-2.4,3.6c-0.8,1.2-1.6,2.4-2.4,3.7l-1,1.5l-1,1.5c-0.8,1.2-1.6,2.4-2.4,3.6c-0.8,1.2-1.6,2.5-2.4,3.7l-1,1.5
						l-1,1.6c-0.8,1.2-1.5,2.4-2.3,3.6c-0.8,1.2-1.6,2.5-2.3,3.7l-1,1.6l-1,1.7c-0.8,1.2-1.5,2.5-2.3,3.7c-0.8,1.2-1.5,2.5-2.3,3.8
						l-1,1.7l-1,1.6c-0.8,1.3-1.5,2.6-2.3,3.9c-0.7,1.3-1.5,2.6-2.2,3.8l-1,1.8l-1,1.7c-0.8,1.3-1.5,2.6-2.2,3.9
						c-0.7,1.2-1.4,2.5-2.1,3.8c-0.3,0.6-0.7,1.2-1,1.8l-1,1.8c-0.7,1.3-1.5,2.7-2.2,4c-0.7,1.2-1.3,2.4-1.9,3.6
						c-0.3,0.6-0.6,1.2-1,1.8l-1,1.9c-0.8,1.5-1.6,2.9-2.4,4.4c-0.5,1-1.1,2-1.6,3c-0.3,0.6-0.6,1.2-0.9,1.7l-0.9,1.8
						c-0.8,1.6-1.7,3.2-2.5,4.8c-0.5,0.9-1.1,1.9-1.6,2.8c-0.4,0.7-0.8,1.3-1.1,2c-0.2,0.4-0.5,0.9-0.7,1.3l-0.1,0.1
						c-0.6,1.1-1.2,2.2-1.8,3.3c-0.4,0.8-0.8,1.5-1.2,2.3c-0.2,0.5-0.5,0.9-0.7,1.4c-43.4,81.6-64.2,170.8-71.1,205.4
						c0,0.1,0,0.2,0,0.2c-0.6,3-1.2,6.2-1.8,9.5c-11.6,62-14.9,121-9.8,175.2c0.1,1.5,0.3,3.1,0.5,4.6l0,0.5c0,0,0,0,0,0.1l0.1,0.7
						c0,0.4,0.1,0.7,0.1,1.1c1.9,18.1,4.9,35.7,8.7,52.3c0.1,0.4,0.2,0.8,0.3,1.2c13.5,58.3,38.3,109,73.8,151.1
						c-52.6,13.3-106.7,20-161.5,20c-35,0-70.2-2.8-104.5-8.3c-49.2-16.1-99.5-36.1-153.1-60.8c0.7-1.5,1.3-3,2-4.6c0,0,0,0,0-0.1
						l0.1-0.3l0.1-0.3c0.9-2.1,1.8-4.2,2.8-6.2l0.2-0.4l0.3-0.6l0.4-0.9c0.9-2,1.8-4.1,2.7-6.1l0.4-1l0.5-1c0.8-1.9,1.6-3.7,2.5-5.6
						l0.6-1.3l0.6-1.3l2.4-5.4l0.6-1.3l0.6-1.4l1.6-3.6l0.8-1.8l1.2-2.7l1.4-3.2l0.9-2.1l0.5-1.1l0.8-1.8l0.9-2.1l1.3-3l0.6-1.4
						l0.7-1.7l2-4.6l0-0.1l1.5-3.5l0.7-1.6l1.2-2.9l1.6-3.6l0.7-1.6l1.3-2.9l1.5-3.4l1.9-4.5l1.6-3.7l1.8-4.2l1.6-3.7
						c0.6-1.5,1.3-2.9,1.9-4.4l1.2-2.7l0.3-0.8l1.4-3.3l0.4-1l1.6-3.6l0.8-1.9l1-2.3l0.8-1.8l0.9-2.1l1.6-3.8l0.6-1.4l1.3-3l0.7-1.6
						l0.8-1.8l0.1-0.3l1.9-4.5l1.2-2.8l2.3-5.4l0.7-1.6l0.2-0.5l2.3-5.4l0.3-0.6l0.6-1.5l0.9-2l2.2-5.1l0-0.1l0.1-0.2
						c0,0,0-0.1,0-0.1c12.4-28.9,24.3-57,34.8-81.7c25.8-60.5,46.1-108.4,57.6-132.8c0-0.1,0.1-0.2,0.1-0.3c1-2,1.8-3.8,2.6-5.4
						c0.4-0.8,0.7-1.6,1-2.4l4.4-10.4l2.7-6.4c0.5-1.1,0.9-2.3,1.2-3.6c0-0.1,0-0.1,0.1-0.2c5.5-17.8-4-29.4-15.2-34.6
						c-0.1,0-0.2-0.1-0.3-0.2c0,0-0.1,0-0.1,0l0,0l-0.8-0.4l-0.3-0.2l-0.1,0l-0.3-0.1l-0.4-0.2c0,0,0,0-0.1,0l-0.4-0.2
						c0,0-0.1,0-0.1,0l-0.2-0.1l-0.7-0.4c0,0,0,0-0.1,0l-0.2-0.1l-1.1-0.6l-0.1-0.1l-0.6-0.4c0,0,0,0-0.1,0l-0.2-0.1l-0.6-0.3
						l-1-0.6l-0.2-0.1l-0.6-0.3l-0.5-0.3l-0.7-0.4l-3.2-1.8l-10-5.5l-1.5-0.8l0,0c0,0-0.1,0-0.1-0.1l-5.6-3.1l-0.1-0.1l-0.3-0.2
						c-19.9-11.1-46.7-25.9-72.5-40.3l-0.8-0.5l-2.3-1.3l-1.9-1.1l-19.3-10.7l-0.2-0.1l-0.5-0.3c-25.9-14.4-47.8-26.6-56.1-31.2l0,0
						c0,0,0,0-0.1,0c0,0,0,0,0,0c-5-2.8-10.6-4.2-16.3-4.2c-1.3,0-2.6,0.1-3.9,0.2l-8.4,1c-7,0.8-13.5,3.8-18.7,8.6
						c0,0-0.1,0.1-0.1,0.1l-8.8,8.1c-4.5,4.2-8.2,9.5-10.5,15.2c-0.9,2.2-1.7,4.4-2.6,6.5c-46.7,115.8-83.5,231.4-116,363.8
						c-1.6,6.5-3.2,13-4.8,19.7c-41.7-42.6-77.2-90.6-106-142.9c-33.1-60.2-56.3-124.8-69.1-192.1c132.3-79.2,317-152.9,452.9-207.3
						l9.7-3.9c3.7-1.4,6.9-3.9,9.3-7.1c4-5.4,5.2-12.3,3.2-18.7l-59.9-198c-30.8-103.8-53.6-200.8-64.8-275.4
						c42.5-21.3,87.2-38,133.3-49.6C1530.7,191,1576.6,184.5,1623,182.8 M1647,161.3c-114.6,0-222.5,28.5-317.2,78.7
						c10.2,75,33.7,179,67.6,293.2l60,198.1h0c-139.1,55.6-340.7,135.4-478.4,220.3c25.5,151.9,101.6,286.7,210.3,386.4
						c4.2-18.1,8.7-36.6,13.4-55.5c26-106,60.4-225.3,115.1-361c0.9-2.2,1.7-4.3,2.6-6.5c1.2-2.9,3-5.5,5.2-7.6l8.8-8.1
						c1.9-1.8,4.4-2.9,7-3.2l8.4-1c0.5-0.1,1-0.1,1.4-0.1c2.1,0,4.2,0.5,6,1.6l0.1,0c0,0,0,0,0,0c8.3,4.6,30.2,16.8,56.1,31.2
						c0.2,0.1,0.5,0.3,0.7,0.4c6.9,3.8,14,7.8,21.3,11.8c1,0.6,2.1,1.1,3.1,1.7c25.8,14.3,52.5,29.2,72.5,40.3
						c0.2,0.1,0.3,0.2,0.5,0.3c1.9,1.1,3.8,2.1,5.6,3.1c0.1,0,0.1,0.1,0.2,0.1c4.3,2.4,8.1,4.5,11.5,6.4c1.1,0.6,2.2,1.2,3.2,1.8
						c0.4,0.2,0.8,0.4,1.2,0.6c0.3,0.1,0.5,0.3,0.8,0.4c0.3,0.2,0.7,0.4,1,0.6c0.3,0.2,0.5,0.3,0.8,0.4c0.2,0.1,0.5,0.3,0.7,0.4
						c0.4,0.2,0.8,0.4,1.1,0.6c0.1,0.1,0.2,0.1,0.3,0.2c0.3,0.2,0.6,0.4,0.9,0.5c0.2,0.1,0.3,0.2,0.5,0.3c0.3,0.1,0.5,0.3,0.7,0.4
						c0.1,0.1,0.3,0.1,0.4,0.2c0.3,0.2,0.6,0.3,0.8,0.5c0,0,0,0,0,0c0.6,0.3,1,0.5,1.2,0.6c7.8,3.3,4.6,7.9,3.9,11.2l-2.7,6.4
						l-5,11.7l0,0l-0.1,0l0,0l0.1,0c-0.9,1.8-1.8,3.8-2.8,5.9c0,0,0,0.1,0,0.1c0,0,0,0,0,0c-16.4,35-50.7,117-92.8,215.3
						c-0.1,0.1-0.1,0.3-0.2,0.4c-1,2.3-2,4.7-3,7c-0.2,0.5-0.4,1-0.6,1.5c-0.9,2-1.7,4-2.6,6c-0.3,0.7-0.6,1.4-0.9,2.1
						c-0.8,1.8-1.6,3.6-2.3,5.5c-0.4,0.9-0.8,1.9-1.2,2.8c-0.7,1.6-1.4,3.2-2,4.7c-0.5,1.1-1,2.2-1.4,3.3c-0.6,1.4-1.2,2.9-1.9,4.3
						c-0.5,1.3-1.1,2.5-1.6,3.8c-0.6,1.3-1.1,2.6-1.7,3.9c-0.6,1.4-1.2,2.7-1.8,4.1c-0.5,1.2-1,2.4-1.6,3.6
						c-0.6,1.5-1.3,2.9-1.9,4.4c-0.5,1.1-1,2.3-1.5,3.4c-0.6,1.5-1.3,2.9-1.9,4.4c-0.5,1.2-1.1,2.4-1.6,3.7
						c-0.6,1.4-1.2,2.8-1.8,4.2c-0.5,1.2-1.1,2.4-1.6,3.7c-0.6,1.5-1.3,3-1.9,4.5c-0.5,1.1-1,2.3-1.5,3.4c-0.7,1.5-1.3,3-2,4.5
						c-0.5,1.2-1,2.4-1.6,3.6c-0.6,1.5-1.3,3-1.9,4.4c-0.5,1.2-1,2.3-1.5,3.5c-0.7,1.6-1.4,3.2-2.1,4.7c-0.5,1-0.9,2.1-1.4,3.1
						c-0.7,1.7-1.5,3.4-2.2,5c-0.4,1-0.8,1.9-1.3,2.9c-0.8,1.7-1.5,3.5-2.3,5.2c-0.4,0.9-0.8,1.8-1.2,2.7c-0.8,1.8-1.6,3.6-2.4,5.4
						c-0.4,0.9-0.8,1.8-1.2,2.7c-0.8,1.8-1.6,3.6-2.4,5.3c-0.4,0.9-0.8,1.8-1.2,2.6c-0.8,1.9-1.6,3.7-2.5,5.6
						c-0.3,0.7-0.6,1.4-0.9,2c-0.9,2-1.8,4.1-2.7,6.1c-0.2,0.5-0.4,1-0.7,1.5c-1,2.2-2,4.4-2.9,6.6c-0.1,0.2-0.2,0.4-0.3,0.6
						c-3.5,7.8-7,15.6-10.5,23.4c64.1,30.4,121.9,53.4,175.8,71c35.7,5.8,72.2,8.8,109.5,8.8c70,0,137.5-10.6,201-30.3
						c-1.6-1.4-3.2-2.8-4.8-4.3c-47.1-46.7-74.5-103.5-88.3-163.8c0,0.1,0,0.2,0,0.3c-3.8-16.3-6.5-33-8.3-49.9
						c-0.1-0.6-0.1-1.2-0.2-1.7c-0.2-1.6-0.3-3.2-0.5-4.9c-5.4-56.8-0.7-114.9,9.5-169.4c0.6-3.1,1.2-6.2,1.8-9.4c0,0,0-0.1,0-0.1
						c16.2-80.9,44.3-153,69.1-199.7c0.2-0.4,0.5-0.9,0.7-1.3c0.4-0.7,0.8-1.5,1.2-2.2c0.6-1.1,1.2-2.1,1.7-3.2
						c0.3-0.5,0.5-0.9,0.8-1.4c0.4-0.6,0.7-1.3,1.1-1.9c0.6-1.1,1.2-2.1,1.8-3.1c1.2-2.3,2.4-4.6,3.6-6.9c0.8-1.6,1.6-3.1,2.4-4.7
						c1.1-2.1,2.2-4.1,3.3-6.1c0.9-1.8,1.9-3.5,2.8-5.3c1.1-1.9,2.1-3.8,3.2-5.7c1-1.8,2-3.6,3-5.4c1-1.8,2.1-3.6,3.2-5.4
						c1.1-1.8,2.1-3.7,3.2-5.4c1.1-1.8,2.1-3.6,3.2-5.3c1.1-1.8,2.1-3.6,3.2-5.3c1.1-1.8,2.2-3.5,3.2-5.2c1.1-1.7,2.2-3.5,3.2-5.2
						c1.1-1.7,2.2-3.4,3.3-5.1c1.1-1.7,2.2-3.4,3.3-5.1c1.1-1.7,2.2-3.3,3.3-5c1.1-1.7,2.2-3.4,3.3-5c1.1-1.6,2.2-3.2,3.3-4.9
						c1.1-1.6,2.2-3.3,3.4-4.9c1.1-1.6,2.2-3.1,3.4-4.7c1.1-1.6,2.3-3.2,3.4-4.8c1.1-1.6,2.3-3.1,3.4-4.6c1.1-1.6,2.3-3.1,3.4-4.7
						c1.1-1.5,2.3-3,3.4-4.5c1.2-1.5,2.3-3.1,3.5-4.6c1.1-1.5,2.3-2.9,3.4-4.3c1.2-1.5,2.3-3,3.5-4.4c1.2-1.4,2.3-2.8,3.5-4.2
						c1.2-1.4,2.4-2.9,3.5-4.3c1.2-1.4,2.3-2.7,3.5-4.1c1.2-1.4,2.4-2.8,3.6-4.2c1.2-1.3,2.3-2.7,3.5-4c1.2-1.4,2.4-2.8,3.6-4.1
						c1.2-1.3,2.4-2.6,3.5-3.9c1.2-1.3,2.4-2.7,3.6-4c1.2-1.3,2.4-2.5,3.5-3.8c1.2-1.3,2.4-2.6,3.7-3.9c1.2-1.2,2.4-2.4,3.6-3.7
						c1.2-1.3,2.5-2.5,3.7-3.8c1.2-1.2,2.4-2.4,3.6-3.5c1.2-1.2,2.5-2.4,3.7-3.6c1.2-1.2,2.4-2.3,3.6-3.4c1.2-1.2,2.5-2.4,3.7-3.5
						c1.2-1.1,2.4-2.2,3.6-3.3c1.3-1.2,2.5-2.3,3.8-3.4c1.2-1.1,2.4-2.1,3.6-3.2c1.3-1.1,2.5-2.2,3.8-3.3c1.2-1,2.4-2.1,3.6-3.1
						c1.3-1.1,2.5-2.2,3.8-3.2c1.2-1,2.4-2,3.6-3c1.3-1,2.5-2.1,3.8-3.1c1.2-1,2.4-1.9,3.7-2.9c1.3-1,2.5-2,3.8-3
						c1.2-0.9,2.4-1.8,3.7-2.8c1.3-1,2.6-1.9,3.8-2.9c1.2-0.9,2.4-1.8,3.7-2.7c1.3-0.9,2.6-1.8,3.8-2.8c1.2-0.9,2.4-1.7,3.7-2.5
						c1.3-0.9,2.6-1.8,3.9-2.6c1.2-0.8,2.4-1.6,3.7-2.4c1.3-0.9,2.6-1.7,3.9-2.5c1.2-0.8,2.4-1.6,3.7-2.3c1.3-0.8,2.6-1.6,3.9-2.4
						c1.2-0.8,2.5-1.5,3.7-2.2c1.3-0.8,2.6-1.5,3.9-2.3c1.2-0.7,2.5-1.4,3.7-2.1c1.3-0.7,2.6-1.5,3.9-2.2c1.2-0.7,2.4-1.3,3.7-2
						c1.3-0.7,2.6-1.4,3.9-2.1c1.2-0.6,2.4-1.3,3.7-1.9c1.3-0.7,2.6-1.3,3.9-2c1.2-0.6,2.4-1.2,3.7-1.8c1.3-0.6,2.6-1.3,3.9-1.9
						c1.2-0.6,2.4-1.1,3.7-1.7c1.3-0.6,2.6-1.2,3.9-1.8c1.2-0.5,2.4-1.1,3.7-1.6c1.3-0.6,2.6-1.1,3.8-1.6c1.2-0.5,2.4-1,3.6-1.5
						c1.3-0.5,2.6-1,3.8-1.5c1.2-0.5,2.4-0.9,3.6-1.4c1.3-0.5,2.6-1,3.8-1.4c1.2-0.4,2.4-0.9,3.6-1.3c1.3-0.4,2.5-0.9,3.8-1.3
						c1.2-0.4,2.4-0.8,3.6-1.2c1.3-0.4,2.5-0.8,3.8-1.2c1.2-0.4,2.4-0.7,3.6-1.1c1.3-0.4,2.5-0.7,3.8-1.1c1.2-0.3,2.4-0.7,3.6-1
						c1.3-0.3,2.5-0.7,3.8-1c1.2-0.3,2.4-0.6,3.6-0.9c1.3-0.3,2.5-0.6,3.7-0.9c1.2-0.3,2.4-0.5,3.5-0.8c1.2-0.3,2.5-0.5,3.7-0.8
						c1.2-0.2,2.4-0.5,3.5-0.7c1.2-0.2,2.5-0.5,3.7-0.7c1.2-0.2,2.3-0.4,3.5-0.6c1.2-0.2,2.5-0.4,3.7-0.6c1.2-0.2,2.3-0.3,3.5-0.5
						c1.2-0.2,2.4-0.3,3.7-0.5c1.2-0.1,2.3-0.3,3.5-0.4c1.2-0.1,2.4-0.2,3.6-0.3c1.1-0.1,2.3-0.2,3.4-0.3c1.2-0.1,2.4-0.2,3.6-0.2
						c1.1-0.1,2.3-0.1,3.4-0.2c1.2-0.1,2.4-0.1,3.6-0.1c1.1,0,2.3-0.1,3.4-0.1c1.2,0,2.4,0,3.5,0c0.1,0,0.2,0,0.3,0c1,0,2,0,3,0
						c1.2,0,2.3,0,3.5,0.1c1.1,0,2.2,0.1,3.3,0.1c1.2,0,2.3,0.1,3.5,0.2c1.1,0.1,2.2,0.1,3.3,0.2c1.1,0.1,2.3,0.2,3.4,0.3
						c1.1,0.1,2.2,0.2,3.3,0.3c1.1,0.1,2.3,0.2,3.4,0.4c1.1,0.1,2.2,0.3,3.2,0.4c1.1,0.2,2.2,0.3,3.4,0.5c1.1,0.2,2.1,0.3,3.2,0.5
						c1.1,0.2,2.2,0.4,3.3,0.6c1.1,0.2,2.1,0.4,3.1,0.6c1.1,0.2,2.2,0.5,3.3,0.7c1,0.2,2.1,0.5,3.1,0.7c1.1,0.3,2.2,0.5,3.2,0.8
						c1,0.3,2,0.5,3.1,0.8c1,0.3,2.1,0.6,3.1,0.9c-7.2-17.1-15.1-33.9-23.7-50.3c-202.6,17.8-432.2,78.2-726.7,183.1
						c41.4-206.1,85.8-411.4,131.4-546.7C1650.4,161.3,1648.7,161.3,1647,161.3L1647,161.3z M1535.7,1034.6
						C1535.7,1034.6,1535.7,1034.6,1535.7,1034.6C1535.7,1034.6,1535.7,1034.6,1535.7,1034.6L1535.7,1034.6z"/>
				</g>
			</g>
			<polygon points="2299.2,362.9 2301.1,365.4 2312.7,368.7 2312.7,366.1 			"/>
		</g>
		<g>
			<g>
				<polygon points="2022.4,1875.4 2072,1875.4 2166.9,2027.8 2167.5,2027.8 2167.5,1875.4 2214.4,1875.4 2214.4,2102.5 
					2164.3,2102.5 2069.9,1950.4 2069.3,1950.4 2069.3,2102.5 2022.4,2102.5 				"/>
				<path d="M2285.9,2031.2c1.3,28.6,15.3,41.7,40.5,41.7c18.1,0,32.8-11.1,35.6-21.3h39.8c-12.8,38.8-39.8,55.4-77.1,55.4
					c-51.8,0-83.9-35.7-83.9-86.6c0-49.4,34-86.8,83.9-86.8c56,0,83.2,47,80,97.6H2285.9z M2359.4,2002.6c-4.2-22.9-14-35-36-35
					c-28.6,0-36.8,22.3-37.5,35H2359.4L2359.4,2002.6z"/>
				<path d="M2489.6,1938h33v30.3h-33v81.4c0,15.3,3.8,19.1,19,19.1c4.8,0,9.3-0.3,14.1-1.2v35.4c-7.6,1.1-17.5,1.5-26.4,1.5
					c-27.7,0-51.9-6.4-51.9-39.1v-97H2417V1938h27.5v-49.4h45.2L2489.6,1938L2489.6,1938z"/>
				<polygon points="2744,2102.5 2697.5,2102.5 2668.2,1992.1 2667.6,1992.1 2639.5,2102.5 2592.8,2102.5 2540.6,1938 2588.3,1938 
					2618.6,2049.6 2619.2,2049.6 2646.6,1938 2690.5,1938 2718.4,2049.4 2719.1,2049.4 2749.4,1938 2795.9,1938 				"/>
				<path d="M2886.9,1933.6c51.9,0,85.2,34.3,85.2,86.8c0,52.2-33.3,86.6-85.2,86.6c-51.6,0-85-34.4-85-86.6
					C2801.9,1967.9,2835.3,1933.6,2886.9,1933.6 M2886.9,2073c30.9,0,40.1-26.4,40.1-52.5c0-26.4-9.2-52.9-40.1-52.9
					c-30.5,0-39.7,26.5-39.7,52.9C2847.2,2046.6,2856.4,2073,2886.9,2073"/>
				<path d="M2997.2,1938h42.9v30.5h0.6c8.3-20.6,30.6-35,52.5-35c3.2,0,7.1,0.7,9.9,1.6v42c-4.2-0.9-10.8-1.6-16.2-1.6
					c-33,0-44.5,23.9-44.5,52.9v74.2h-45.2L2997.2,1938L2997.2,1938z"/>
				<polygon points="3125.4,1875.4 3170.5,1875.4 3170.5,1997.2 3227.4,1938.1 3281,1938.1 3219,1998.5 3287.9,2102.5 
					3233.3,2102.5 3188.1,2029 3170.5,2045.9 3170.5,2102.5 3125.4,2102.5 				"/>
			</g>
			<g>
				<path d="M0,1875.3h102.5c56.6,0,78.6,36,78.6,72.9c0,36.9-22,72.8-78.6,72.8H50v81.5H0L0,1875.3L0,1875.3z M50,1982.1h38.9
					c23.1,0,43.9-5.1,43.9-34c0-29-20.7-34.1-43.9-34.1H50V1982.1z"/>
				<rect x="206.3" y="1875.3" width="45.2" height="227.2"/>
				<path d="M284.8,1988.6c2.5-42.3,40.4-55.1,77.2-55.1c32.9,0,72.4,7.3,72.4,46.9v85.6c0,15,1.5,29.9,5.6,36.6h-45.8
					c-1.7-5.1-2.8-10.6-3.2-15.9c-14.3,14.9-35.2,20.3-55.4,20.3c-31.1,0-56-15.6-56-49.4c0-37.2,28-46.1,56-49.9
					c27.8-4.2,53.5-3.2,53.5-21.6c0-19.4-13.4-22.2-29.3-22.2c-17.1,0-28.3,7-29.9,24.8L284.8,1988.6L284.8,1988.6z M389.1,2021.9
					c-7.6,6.7-23.6,7-37.5,9.6c-14.1,2.8-26.7,7.7-26.7,24.2c0,16.9,13.1,21,27.6,21c35.4,0,36.6-28.1,36.6-37.9V2021.9z"/>
				<path d="M548.4,2123.2c-9.9,26.5-25.4,37.3-56.7,37.3c-9.2,0-18.4-0.7-27.6-1.7v-37.2c8.6,0.7,17.5,1.9,26.4,1.6
					c15.6-1.6,20.6-17.8,15.6-30.9l-57.8-154.3h48.4l37.2,112.7h0.6l36-112.7h46.8L548.4,2123.2z"/>
				<path d="M673.4,2027c0,30.3,23.5,42,50.2,42c17.6,0,44.3-5.1,44.3-28.3c0-24.6-34-28.6-67.4-37.5c-33.8-8.9-67.8-22-67.8-64.7
					c0-46.4,43.9-68.7,84.9-68.7c47.4,0,91,20.7,91,73.3h-48.3c-1.7-27.5-21.1-34.5-44.9-34.5c-15.9,0-34.5,6.7-34.5,25.8
					c0,17.5,10.8,19.7,67.8,34.4c16.6,4.1,67.5,14.7,67.5,66.2c0,41.7-32.9,72.8-94.6,72.8c-50.3,0-97.3-24.8-96.7-80.8H673.4
					L673.4,2027z"/>
				<path d="M903.3,1937.9h33.1v30.2h-33.1v81.5c0,15.3,3.8,19.1,19.1,19.1c4.7,0,9.2-0.3,14.1-1.3v35.4c-7.7,1.2-17.6,1.5-26.5,1.5
					c-27.7,0-51.9-6.3-51.9-39.1v-97.1h-27.2v-30.2H858v-49.4h45.2L903.3,1937.9z"/>
				<path d="M964.3,1988.6c2.7-42.3,40.4-55.1,77.4-55.1c32.7,0,72.2,7.3,72.2,46.9v85.6c0,15,1.6,29.9,5.7,36.6h-45.9
					c-1.6-5.1-2.8-10.6-3.2-15.9c-14.2,14.9-35.3,20.3-55.4,20.3c-31.2,0-56-15.6-56-49.4c0-37.2,28-46.1,56-49.9
					c27.6-4.2,53.4-3.2,53.4-21.6c0-19.4-13.4-22.2-29.3-22.2c-17.2,0-28.2,7-29.8,24.8L964.3,1988.6L964.3,1988.6z M1068.7,2021.9
					c-7.7,6.7-23.5,7-37.5,9.6c-14,2.8-26.7,7.7-26.7,24.2c0,16.9,13.1,21,27.7,21c35.3,0,36.5-28.1,36.5-37.9L1068.7,2021.9
					L1068.7,2021.9z"/>
				<path d="M1206,1937.9h33.1v30.3H1206v81.4c0,15.3,3.8,19.1,19.1,19.1c4.8,0,9.2-0.3,14-1.3v35.4c-7.6,1.2-17.5,1.5-26.4,1.5
					c-27.7,0-51.9-6.3-51.9-39.1v-97.1h-27.3v-30.2h27.3v-49.4h45.2V1937.9z"/>
				<path d="M1314.2,1912.6H1269v-37.3h45.2V1912.6z M1269,1937.9h45.2v164.5H1269V1937.9z"/>
				<path d="M1426.5,1933.5c51.8,0,85.2,34.4,85.2,86.8c0,52.2-33.5,86.6-85.2,86.6c-51.6,0-85-34.4-85-86.6
					C1341.5,1967.9,1374.9,1933.5,1426.5,1933.5 M1426.5,2072.9c30.7,0,40-26.4,40-52.5c0-26.4-9.3-52.9-40-52.9
					c-30.6,0-39.9,26.5-39.9,52.9C1386.7,2046.5,1395.9,2072.9,1426.5,2072.9"/>
				<path d="M1538.6,1937.9h43v23h0.9c11.4-18.5,31.2-27.4,50.3-27.4c48.1,0,60.1,27,60.1,67.8v101.2h-45.2v-93
					c0-27-7.9-40.4-29-40.4c-24.5,0-35,13.7-35,47v86.3h-45.1L1538.6,1937.9L1538.6,1937.9z"/>
				<g>
					<path d="M1815.6,1969.8c19.4,1.6,47.4-2.2,47.4-27.7c0-18.8-14.9-29.6-31.5-29.6c-22.6,0-34.7,16.9-34.3,39.8h-42.9
						c1.6-45.5,31.2-77,77-77c35.6,0,74.7,21.9,74.7,61.7c0,21-10.5,39.8-31.2,45.5v0.6c24.5,5.4,39.4,25.8,39.4,50.6
						c0,46.8-39.1,73.1-82.7,73.1c-49.9,0-83.6-29.9-82.7-81.1h42.9c1,24.2,13,43.9,39.1,43.9c20.4,0,36.3-14,36.3-35
						c0-33.7-29.6-33.1-51.5-33.1V1969.8z"/>
				</g>
			</g>
		</g>
	</g>
</g>
</svg>
