<?xml version="1.0" encoding="utf-8"?>
<!-- Generator: Adobe Illustrator 26.0.3, SVG Export Plug-In . SVG Version: 6.00 Build 0)  -->
<svg version="1.1" id="Layer_1" xmlns="http://www.w3.org/2000/svg" xmlns:xlink="http://www.w3.org/1999/xlink" x="0px" y="0px"
	 viewBox="0 0 3839 748.8" style="enable-background:new 0 0 3839 748.8;" xml:space="preserve">
<style type="text/css">
	.st0{fill:#FFFFFF;}
	.st1{fill:url(#SVGID_1_);}
	.st2{fill:url(#SVGID_00000183221757772946524150000003805073911707958463_);}
	.st3{fill:url(#SVGID_00000112627786671294222800000008846031624493038007_);}
	.st4{fill:url(#SVGID_00000039125070991986182000000011649636953641096361_);}
	.st5{fill:url(#SVGID_00000168112122750842115310000005923099893815200415_);}
	.st6{fill:url(#SVGID_00000121963578025837970240000010054341657625720730_);}
	.st7{fill:url(#SVGID_00000013178482691080963160000015914559116198533248_);}
	.st8{fill:url(#SVGID_00000161627763398092472920000005793708152231870100_);}
	.st9{fill:url(#SVGID_00000174586409498148202890000008587835563692339336_);}
	.st10{fill:url(#SVGID_00000139293895211252583870000015093364331933218751_);}
	.st11{fill:url(#SVGID_00000127727892618788738920000001718656170850140094_);}
	.st12{fill:url(#SVGID_00000092458400715032525970000002160972504676372872_);}
	.st13{fill:url(#SVGID_00000045587620585872400110000015744733077772928401_);}
	.st14{fill:url(#SVGID_00000093890717046988305160000010100693022623682704_);}
	.st15{fill:url(#SVGID_00000174577743997555931820000014879567663528196231_);}
	.st16{fill:url(#SVGID_00000054266324252338019930000014075891898926876328_);}
	.st17{fill:url(#SVGID_00000128468341490201775800000003990158633678958746_);}
	.st18{fill:url(#SVGID_00000017509469049200290060000012744665723649617341_);}
	.st19{fill:url(#SVGID_00000022536340773037250890000015195444048332014498_);}
	.st20{fill:url(#SVGID_00000048501516782595314320000018137331654741991847_);}
	.st21{fill:url(#SVGID_00000145047313893737335450000006421815964320667269_);}
	.st22{fill-rule:evenodd;clip-rule:evenodd;}
	.st23{fill:#00AD9C;}
	.st24{fill:#FBB817;}
	.st25{fill:#0174BA;}
	.st26{fill:#EB2027;}
	.st27{fill-rule:evenodd;clip-rule:evenodd;fill:#FFFFFF;}
</style>
<g>
	<g>
		<g>
			<path d="M0,86.9v478.5h74.7V132.7h69.1c0,0,50.2,0,67.4,22.5c14.6,19.1,17.3,53.7,17.3,77.1c0,25-1.6,63.7-10,77.8
				c-12.7,21.6-33.7,26-52.8,26h-45.6v42.5h65.6c0,0,59.2,2.5,84.7-23.4c31.2-31.7,39.2-74.4,39.2-131.5
				c0-51.9-18.8-104.3-57.3-122.1C220.5,86.9,163,86.9,163,86.9H0"/>
			<rect x="368.4" y="86.9" width="74.7" height="478.5"/>
			<polyline points="840.5,198.5 977.1,556.7 898.7,748.8 960.7,748.8 1186.6,198.5 1117.4,198.5 1019,466.7 927.4,198.5 
				840.5,198.5 			"/>
			<path d="M1242.9,562.5v-45.2c0,0,79,3.1,95.5,3.1c36.5,0,54.7-7.8,68.4-22.5c8.1-8.8,15.4-47.9,15.4-61.8
				c0-13.9-2.7-43.8-8.1-56.1c-5.6-12-18.3-23.3-37.4-24.9c-13.6-1.2-34.7-3.9-59.3-5.1c-34.5-1.6-57.3-19.6-68.3-32.6
				c-10.9-12.9-25.5-32.4-25.5-92.1c0-59.8,15.4-93.2,30.9-108.8c15.5-15.6,38.2-22.5,55.6-25.6c20-3.4,52.8-3.6,52.8-3.6l104.6,3
				v45.2c0,0-76.2-3-92.7-3c-36.5,0-47.4,7.8-61,22.5c-8.1,8.7-14.4,32.9-14.4,46.7c0,13.9,1.6,42,7.1,54.1
				c5.4,12,18.2,23.3,37.3,25c13.6,1,34.7,3.8,59.2,4.9c34.7,1.6,57.4,19.6,68.3,32.6c11,13,25.6,40.3,25.6,100
				c0,59.8-15.6,102.4-31,118c-15.5,15.5-38.2,22.5-55.6,25.5c-20.1,3.5-52.8,3.7-52.8,3.7L1242.9,562.5"/>
			<path d="M1650.5,132.7h-74.7V484c0,0,1.8,32.1,3.6,43.3c1.8,11.3,18.2,38,61,38l77.4-1.5v-45.1c0,0-21,1.5-33.6,1.5
				c-12.8,0-28.4-0.8-31-22.5c-2.8-21.6-2.8-47.5-2.8-47.5V243.5h84.3v-45h-84.3V132.7"/>
			<rect x="2371.4" y="198.5" width="74.7" height="366.9"/>
			<rect x="2371.4" y="86.8" width="74.7" height="66.6"/>
			<path d="M2630.8,265.7C2620.6,278.4,2608,305,2608,382c0,77,12.5,103.6,22.8,116.2c10.2,12.5,29.1,21,53.5,21
				c24.5,0,43.3-8.5,53.6-21c10.2-12.6,22.8-39.3,22.8-116.2c0-77-12.5-103.6-22.8-116.3c-10.4-12.6-29.1-21-53.6-21
				C2659.9,244.7,2641.1,253.1,2630.8,265.7 M2682,195.3c50.8,0,90.2,11.4,111.4,28.5c21.4,17.2,47.6,53.4,47.6,158.1
				c0,104.8-26.3,140.9-47.6,158.1c-21.2,17.1-60.6,28.6-111.4,28.6c-50.9,0-90.2-11.4-111.5-28.6c-21.3-17.2-47.5-53.4-47.5-158.1
				c0-104.8,26.1-141,47.5-158.1C2591.8,206.7,2631.1,195.3,2682,195.3z"/>
			<path d="M2995.8,250l73.2-3.1c19.2,0,41.7,5.2,52.7,19c10.2,13.1,16.6,28.6,16.6,53.7V565h74.8V313.5c0-47.6-14.7-75.2-36.6-92.6
				c-31.3-24.8-87.4-22.5-87.4-22.5l-167.3,3V565h74.1V250"/>
			<path d="M2222.6,132.7h-74.7V484c0,0,1.8,32.1,3.5,43.3c1.9,11.3,18.2,38,61.1,38l77.4-1.5v-45.1c0,0-21,1.5-33.7,1.5
				s-28.3-0.8-31-22.5c-2.7-21.6-2.7-47.5-2.7-47.5V243.5h84.1v-45h-84.1V132.7"/>
			<path d="M726.5,319.7c0-25.1-6.4-40.7-16.7-53.7c-10.9-13.9-33.4-19-52.6-19l-98.5,3.1v-48.5l118.5-3c0,0,56.1-2.4,87.5,22.5
				c21.9,17.4,36.4,45,36.4,92.6v247.9L658,564.6c0,0-64.8,0.3-97.5-13c-31.8-12.9-49.2-48.5-49.2-97.8c0-47.6,14.6-75.2,36.5-92.6
				c31.4-24.9,87.4-22.4,87.4-22.4H681V381h-25.6c-19.2,0-39,3.5-49.9,17.4c-10.2,12.9-15.7,24.2-15.7,49.3
				c0,32.9,6.4,47.6,21.9,58.8c13.7,10,38.2,12.2,65.6,12.2l49.4-3V319.7"/>
			<path d="M1986,319.7c0-25.1-6.3-40.7-16.5-53.7c-11.1-13.9-33.5-19-52.6-19l-98.5,3.1v-48.5l118.5-3c0,0,56.1-2.4,87.4,22.5
				c21.9,17.4,36.5,45,36.5,92.6v247.9l-143.1,3.1c0,0-64.9,0.3-97.5-13c-31.9-12.9-49.3-48.5-49.3-97.8c0-47.6,14.7-75.2,36.5-92.6
				c31.3-24.9,87.5-22.4,87.5-22.4h45.7V381h-25.7c-19.1,0-39,3.5-49.8,17.4c-10.3,12.9-15.8,24.2-15.8,49.3
				c0,32.9,6.4,47.6,21.9,58.8c13.7,10,38.3,12.2,65.6,12.2l49.2-3V319.7"/>
		</g>
		<path d="M3838.8,148.7c1,55.1-1.7,84.2-20.2,111.9c-16.4,24.2-48.7,46.5-120.2,46.5l-88.7-2.8c-13.9,0.2-50.3,4.3-67.4,22.8
			c-14.8,15.7-15.7,27.6-17.4,69.9v123.7h301.6v60.8h-329.6l-15.7-0.2c-22.4,0-44.5-15.2-44.5-45.6v-92.3
			c1.5-108,9.3-123.6,32.7-151.8c16.2-19.5,54.3-41.4,100.7-43.8c9.1-0.5,26.3-1.7,50.2-0.8c17.7,0.6,35.1,1,42.9,1.1
			c41,0.5,56-7.1,67.3-21.8c12.8-16.6,19.6-36.1,19.6-68.1c0-29.9-6-58.3-17.5-71.4c-13.9-15.1-27.1-25.3-65.7-25.3
			c-97.4-0.3-211.2,2.3-211.2,2.3V6.6c0,0,111.2-4.8,224.7-6.5c70.7-1.1,109.5,17.6,129.3,43.4C3830.5,70.5,3838,95.9,3838.8,148.7"
			/>
	</g>
</g>
</svg>
