<?xml version="1.0" encoding="utf-8"?>
<!-- Generator: Adobe Illustrator 26.5.0, SVG Export Plug-In . SVG Version: 6.00 Build 0)  -->
<svg version="1.1" xmlns="http://www.w3.org/2000/svg" xmlns:xlink="http://www.w3.org/1999/xlink" x="0px" y="0px"
	 viewBox="0 0 3073.9 2160.4" style="enable-background:new 0 0 3073.9 2160.4;" xml:space="preserve">
<style type="text/css">
	.st0{fill-rule:evenodd;clip-rule:evenodd;}
	.st1{fill:#FFFFFF;}
	.st2{fill-rule:evenodd;clip-rule:evenodd;fill:#FFFFFF;}
</style>
<g id="Layer_1">
</g>
<g id="Layer_2">
	<g>
		<g>
			<g>
				<path d="M1633.6,21.1c0.9,0,1.6,0,2.1,0c0,0,0,0,0,0c11.3,0.5,27.3,2.1,46.9,5.2c6,1,12.4,2,19,3.3
					c78.2,14.6,198.3,50.1,306.1,125c2.3,1.6,4.5,3.2,6.7,4.7c0.8,0.6,1.6,1.1,2.4,1.7c1.4,1,2.9,2,4.3,3c0.9,0.6,1.8,1.3,2.7,1.9
					c1.3,0.9,2.6,1.8,3.9,2.8c1,0.7,2,1.4,3,2.2c1.2,0.8,2.3,1.7,3.5,2.5c1,0.7,2,1.5,3,2.2c1.1,0.8,2.2,1.6,3.3,2.4
					c1.1,0.8,2.1,1.6,3.2,2.4c1,0.7,2,1.5,3,2.2c1.1,0.9,2.3,1.7,3.4,2.6c0.9,0.7,1.8,1.4,2.8,2.1c1.1,0.9,2.2,1.7,3.4,2.5
					c0.9,0.7,1.8,1.4,2.7,2.1c1.1,0.9,2.2,1.7,3.4,2.6c0.9,0.7,1.8,1.3,2.6,2c1.1,0.9,2.2,1.7,3.4,2.6c0.9,0.7,1.7,1.3,2.6,2
					c1.1,0.9,2.3,1.8,3.4,2.7c0.8,0.6,1.6,1.3,2.4,1.9c1.2,0.9,2.3,1.8,3.5,2.7c0.8,0.6,1.5,1.2,2.3,1.8c1.1,0.9,2.3,1.8,3.4,2.8
					c0.8,0.6,1.5,1.2,2.3,1.8c1.1,0.9,2.3,1.9,3.4,2.8c0.7,0.6,1.5,1.2,2.2,1.8c1.2,1,2.3,1.9,3.5,2.9c0.7,0.6,1.4,1.1,2.1,1.7
					c1.2,1,2.3,1.9,3.5,2.9c0.7,0.6,1.3,1.1,2,1.7c1.2,1,2.3,1.9,3.4,2.9c0.6,0.6,1.3,1.1,1.9,1.7c1.1,1,2.3,2,3.4,3
					c0.6,0.5,1.2,1.1,1.9,1.6c1.1,1,2.3,2,3.4,3c0.6,0.5,1.2,1.1,1.8,1.6c1.2,1,2.3,2,3.4,3.1c0.6,0.5,1.1,1,1.7,1.5
					c1.2,1,2.3,2.1,3.4,3.1c0.6,0.5,1.1,1,1.7,1.5c1.1,1,2.3,2.1,3.4,3.1c0.5,0.5,1.1,1,1.6,1.5c1.1,1.1,2.3,2.1,3.4,3.2
					c0.5,0.5,1.1,1,1.6,1.5c1.1,1.1,2.3,2.1,3.4,3.2c0.5,0.5,1,0.9,1.5,1.4c1.1,1.1,2.3,2.2,3.4,3.3c0.5,0.5,1,0.9,1.5,1.4
					c1.1,1.1,2.2,2.2,3.4,3.3c0.5,0.5,1,0.9,1.4,1.4c1.1,1.1,2.2,2.2,3.4,3.3c0.5,0.5,0.9,0.9,1.4,1.4c1.1,1.1,2.2,2.3,3.3,3.4
					c0.4,0.4,0.9,0.9,1.3,1.3c1.1,1.1,2.2,2.3,3.3,3.4c0.4,0.4,0.9,0.9,1.3,1.3c1.1,1.2,2.2,2.3,3.3,3.5c0.4,0.4,0.8,0.9,1.2,1.3
					c1.1,1.2,2.2,2.4,3.3,3.5c0.4,0.4,0.8,0.8,1.2,1.3c1.1,1.2,2.2,2.4,3.3,3.6c0.4,0.4,0.8,0.8,1.2,1.3c1.1,1.2,2.2,2.4,3.3,3.6
					c0.4,0.4,0.8,0.8,1.1,1.3c1.1,1.2,2.2,2.4,3.3,3.7c0.4,0.4,0.7,0.8,1.1,1.2c1.1,1.2,2.2,2.5,3.3,3.7c0.4,0.4,0.7,0.8,1.1,1.2
					c1.1,1.3,2.2,2.5,3.3,3.8c0.3,0.4,0.7,0.8,1,1.2c1.1,1.3,2.2,2.6,3.3,3.9c0.3,0.4,0.6,0.8,1,1.2c1.1,1.3,2.2,2.6,3.3,3.9
					c0.3,0.4,0.6,0.8,0.9,1.1c1.1,1.3,2.2,2.7,3.3,4c0.3,0.4,0.6,0.7,0.9,1.1c1.1,1.3,2.2,2.7,3.3,4c0.3,0.4,0.6,0.7,0.9,1.1
					c1.1,1.4,2.2,2.7,3.3,4.1c0.3,0.4,0.6,0.7,0.8,1.1c1.1,1.4,2.2,2.8,3.3,4.2c0.3,0.3,0.5,0.7,0.8,1c1.1,1.4,2.2,2.8,3.3,4.3
					c0.3,0.3,0.5,0.7,0.8,1c1.1,1.4,2.2,2.9,3.3,4.4c0.2,0.3,0.5,0.6,0.7,1c1.1,1.5,2.2,2.9,3.3,4.4c0.2,0.3,0.5,0.6,0.7,1
					c1.1,1.5,2.2,3,3.3,4.5c0.2,0.3,0.4,0.6,0.7,0.9c1.1,1.5,2.2,3.1,3.3,4.6c0.2,0.3,0.4,0.6,0.6,0.9c1.1,1.6,2.2,3.1,3.3,4.7
					c0.2,0.3,0.4,0.6,0.6,0.8c1.1,1.6,2.2,3.2,3.3,4.8c0.2,0.3,0.4,0.5,0.6,0.8c1.1,1.6,2.2,3.3,3.4,4.9c0.2,0.2,0.3,0.5,0.5,0.7
					c1.1,1.7,2.3,3.3,3.4,5c0.2,0.2,0.3,0.5,0.5,0.7c1.1,1.7,2.3,3.4,3.4,5.1c0.1,0.2,0.3,0.4,0.4,0.7c1.1,1.7,2.3,3.5,3.4,5.2
					c0.1,0.2,0.3,0.4,0.4,0.6c1.2,1.8,2.3,3.6,3.5,5.4c0.1,0.2,0.2,0.3,0.3,0.5c1.2,1.8,2.3,3.7,3.5,5.5c0.1,0.2,0.2,0.3,0.3,0.5
					c1.2,1.9,2.4,3.8,3.6,5.6c0.1,0.1,0.2,0.3,0.2,0.4c1.2,1.9,2.4,3.9,3.6,5.8c0.1,0.1,0.1,0.2,0.2,0.3c1.2,2,2.4,4,3.6,5.9
					c0,0.1,0.1,0.2,0.1,0.2c1.2,2,2.5,4.1,3.7,6.1c0,0,0.1,0.1,0.1,0.1c1.3,2.1,2.5,4.2,3.8,6.3c0,0,0,0,0,0c6,10.1,12,20.5,18,31.3
					c0.9,1.5,1.5,3.2,1.9,4.9c0.5,2.1,0.7,4.2,0.5,6.3l-0.3,3.8c-0.3,3-1.7,5.8-4,7.8l-13.5,11.9c-5.5,3.9-10.6,5.3-16,5.3
					c-3.6,0-7.3-0.6-11.5-1.4c-9.4-1.7-29.6-6.7-57.6-6.7c-3,0-6.1,0.1-9.2,0.2c-218.1,9.8-464.2,71.4-789.6,187.3
					c57.6-286.8,121.1-572.3,185.3-669.2c4.4-5.8,9.1-9.7,13.7-12.3c0,0,0.1-0.1,0.1-0.1c0.2-0.1,0.3-0.2,0.5-0.2
					c0.4-0.2,0.8-0.5,1.2-0.7c0.3-0.1,0.6-0.3,0.9-0.4c0.2-0.1,0.4-0.2,0.6-0.3c0.3-0.1,0.6-0.3,0.9-0.4c0.2-0.1,0.4-0.2,0.6-0.2
					c0.3-0.1,0.6-0.3,1-0.4c0.4-0.2,0.9-0.3,1.3-0.5c0.1,0,0.3-0.1,0.4-0.1c0.5-0.1,0.9-0.3,1.4-0.4c0,0,0,0,0.1,0
					C1626.6,21.2,1630.9,21.1,1633.6,21.1 M1689.6,386.9L1689.6,386.9c57.8-17.2,145.3-31.1,226.8-38.6c39.5-3.7,77.6-5.9,110.2-6.2
					c3.1,0,6.1-0.1,9.1-0.1c26.9,0,49.5,1.4,65.4,4.3c-4.1-4.6-8.3-9.3-12.7-13.9c-3-3.1-6-6.3-9.1-9.4
					c-91.6-92.2-235.4-177.9-352.5-213.5v0c0,0,0,0,0,0c0,0,0,0.3-0.1,0.7c-0.4,4.9-2.8,34.5-7.2,75.7c-0.6,5.5-1.3,11.2-1.9,17.1
					c-0.9,8-1.9,16.4-2.9,25c0,0.1,0,0.2,0,0.4c0,0.1-0.1,0.4-0.1,0.6c0,0.1-0.1,0.4-0.1,0.6c0,0,0,0.1,0,0.1c0,0,0,0.1,0,0.2
					c0,0.1,0,0.1,0,0.2c0,0,0,0.1,0,0.1c0,0.1,0,0.1,0,0.2c0,0.1,0,0.2,0,0.2c0,0.1,0,0.2,0,0.2v0.1c-0.1,0.1-0.1,0.4-0.1,0.6
					c-0.1,0.1-0.1,0.4-0.1,0.6c-0.1,0.2-0.1,0.4-0.1,0.6v0.1c-0.1,0.1-0.1,0.4-0.1,0.6c-0.1,0.2-0.1,0.5-0.1,0.7
					c-0.1,0.1-0.1,0.4-0.1,0.6c-0.1,0.2-0.1,0.4-0.1,0.6c-0.1,0.1-0.1,0.4-0.1,0.5c0,0,0,0,0,0.1c-0.1,0.2-0.1,0.4-0.1,0.6
					c-0.1,0.1-0.1,0.4-0.1,0.6c0,0.1,0,0.1,0,0.1c-0.1,0.2-0.1,0.4-0.1,0.6c0,0.2,0,0.4-0.1,0.6c0,0.1,0,0.4-0.1,0.6
					c0,0.1,0,0.4-0.1,0.5c0,0.1,0,0.1,0,0.1c0,0.1,0,0.4-0.1,0.6c0,0.2,0,0.3-0.1,0.5c-0.1,1-0.3,2.1-0.4,3.1c0,0,0,0,0,0
					c0,0,0,0,0,0c0,0.1,0,0.3-0.1,0.4c0,0,0,0.1,0,0.1c0,0.2-0.1,0.4-0.1,0.6c0,0.2-0.1,0.4-0.1,0.6c0,0.2-0.1,0.4-0.1,0.8
					c-0.1,0.1-0.1,0.4-0.1,0.5v0.1c-0.1,0.1-0.1,0.4-0.1,0.6c-0.1,0.2-0.1,0.4-0.1,0.6c-0.1,0.2-0.1,0.4-0.1,0.6
					c-0.1,0.2-0.1,0.4-0.1,0.6c-0.1,0.2-0.1,0.4-0.1,0.6c0,0.2,0,0.4-0.1,0.6v0.1c0,0.2,0,0.4-0.1,0.6c0,0.1,0,0.3-0.1,0.5
					c0,0.2,0,0.4-0.1,0.7c0,0.1-0.1,0.4-0.1,0.6c0,0.2-0.1,0.4-0.1,0.6c0,0.2-0.1,0.4-0.1,0.6c0,0.1-0.1,0.4-0.1,0.5
					c0,0.2-0.1,0.4-0.1,0.6c0,0,0,0,0,0.1c-0.1,0.1-0.1,0.4-0.1,0.5c-0.1,0.3-0.1,0.5-0.1,0.7c-0.1,0.2-0.1,0.4-0.1,0.6
					c0,0.1,0,0.3,0,0.5c-0.1,0.1-0.1,0.4-0.1,0.6l-0.1,0.1c0,0.2,0,0.4-0.1,0.6c0,0.2,0,0.4-0.1,0.6c0,0.2,0,0.4-0.1,0.6
					c0,0.2-0.1,0.4-0.1,0.6c0,0.2-0.1,0.4-0.1,0.6v0.1c0,0.3-0.1,0.5-0.1,0.6c-0.1,0.2-0.1,0.4-0.1,0.6c-0.1,0.1-0.1,0.4-0.1,0.5
					c0,0.1,0,0.1,0,0.1c-0.1,0.1-0.1,0.4-0.1,0.6c0,0,0,0-0.1,0c0,0,0,0.1,0,0.1c0,0.2,0,0.3,0,0.5c0,0.2,0,0.4-0.1,0.6
					c0,0.2,0,0.4-0.1,0.6c0,0.2-0.1,0.4-0.1,0.6c0,0.2-0.1,0.4-0.1,0.6c0,0.1-0.1,0.4-0.1,0.5c0,0.3-0.1,0.4-0.1,0.6c0,0,0,0,0,0.1
					C1704.3,307.3,1697.5,349.3,1689.6,386.9 M1633.6,0c-6.3,0-12.1,0.8-17.7,2.4c0,0-0.1,0-0.1,0c-0.6,0.2-1.3,0.4-1.9,0.6
					c-0.2,0.1-0.4,0.1-0.6,0.2c-0.7,0.2-1.4,0.5-2.1,0.8c-0.4,0.2-0.9,0.4-1.4,0.5l-0.1,0l-0.1,0c-0.3,0.1-0.5,0.2-0.8,0.3
					c-0.5,0.2-1,0.4-1.5,0.7c-0.3,0.1-0.7,0.3-1,0.5c0,0-0.1,0-0.1,0c-0.4,0.2-0.8,0.4-1.2,0.6c-0.2,0.1-0.5,0.2-0.7,0.4
					c-1.2,0.5-2.3,1.1-3.3,1.9c-0.1,0.1-0.3,0.2-0.4,0.3c-6.9,4.3-13,9.9-18.3,16.9c-0.3,0.4-0.5,0.7-0.8,1.1
					c-30.7,46.3-62.7,134.5-97.9,269.7c-33.7,129.2-66,285.4-90.5,407c-1.5,7.4,1.1,15.1,6.9,20.1c3.9,3.4,8.8,5.1,13.8,5.1
					c2.4,0,4.8-0.4,7.1-1.2c167.1-59.5,308.7-102.9,432.9-132.8c129.3-31.1,244-48.5,350.5-53.3c2.8-0.1,5.6-0.2,8.4-0.2
					c21.9,0,38.7,3.4,48.7,5.4c1.9,0.4,3.6,0.7,5,1c4.7,0.9,9.9,1.7,15.4,1.7c10.3,0,19.6-3,28.2-9.2c0.6-0.4,1.2-0.9,1.7-1.4
					l13.5-11.9c6.3-5.6,10.3-13.3,11-21.8l0.3-3.8c0.4-4.4,0.1-8.8-1-13.1c-0.9-3.6-2.2-7-4-10.2c-6.1-10.8-12.2-21.5-18.3-31.7
					c0,0,0,0,0,0l0,0c0,0,0,0,0,0c-1.3-2.1-2.5-4.2-3.8-6.3c0,0-0.1-0.1-0.1-0.1c-1.3-2.1-2.5-4.2-3.8-6.2c0,0,0,0,0-0.1l-0.1-0.1
					c-1.3-2.1-2.5-4.1-3.7-6.1l-0.2-0.3c-1.2-2-2.5-4-3.7-5.9l-0.1-0.2l-0.1-0.2c-1.2-1.9-2.4-3.8-3.6-5.7l-0.1-0.2l-0.2-0.3
					c-1.2-1.9-2.4-3.8-3.6-5.6l-0.2-0.4l-0.1-0.1c-1.2-1.9-2.4-3.7-3.6-5.5l-0.4-0.6c-1.2-1.8-2.3-3.5-3.5-5.3l-0.1-0.1l-0.4-0.6
					c-1.1-1.7-2.3-3.4-3.5-5.2l-0.2-0.2l-0.3-0.5c-1.2-1.7-2.3-3.4-3.5-5.1l-0.3-0.4l-0.2-0.3c-1.1-1.7-2.3-3.3-3.4-5l-0.3-0.4
					l-0.3-0.4c-1.1-1.7-2.3-3.3-3.4-4.9l-0.6-0.9c-1.1-1.6-2.3-3.2-3.4-4.8l-0.6-0.8l0-0.1c-1.1-1.6-2.3-3.1-3.4-4.7l-0.7-1
					c-1.1-1.5-2.2-3.1-3.4-4.6l-0.1-0.2l-0.6-0.8c-1.1-1.5-2.2-3-3.4-4.5l-0.7-1c-1.1-1.5-2.2-3-3.4-4.5l-0.6-0.8l-0.2-0.2
					c-1.1-1.5-2.2-2.9-3.4-4.4l-0.8-1.1c-1.1-1.4-2.2-2.9-3.3-4.3l-0.6-0.7l-0.3-0.4c-1.1-1.4-2.2-2.8-3.4-4.2l-0.9-1.1
					c-1.1-1.4-2.2-2.8-3.4-4.1l-0.9-1.1c-1.1-1.4-2.2-2.7-3.4-4.1l-0.9-1.1c-1.2-1.4-2.3-2.7-3.4-4.1l-1-1.2
					c-1.1-1.3-2.2-2.6-3.4-3.9l-0.9-1l-0.2-0.2c-1.1-1.3-2.2-2.6-3.4-3.9l-1-1.2l-0.1-0.1c-1.1-1.3-2.2-2.5-3.4-3.8l-0.8-0.8
					l-0.4-0.4c-1.1-1.3-2.2-2.5-3.4-3.8l-1.1-1.2l-0.1-0.1c-1.1-1.2-2.2-2.5-3.4-3.7l-0.8-0.9l-0.4-0.4c-1.1-1.2-2.3-2.5-3.4-3.7
					l-0.7-0.8l-0.5-0.5c-1.2-1.2-2.3-2.4-3.4-3.6l-0.9-0.9l-0.4-0.4c-1.1-1.2-2.3-2.4-3.4-3.6l-0.9-1l-0.4-0.4
					c-1.1-1.2-2.3-2.3-3.4-3.5l-1.1-1.1l-0.3-0.3c-1.1-1.1-2.3-2.3-3.4-3.5l-1-1l-0.4-0.4c-1.1-1.1-2.3-2.3-3.4-3.4l-1-1l-0.5-0.5
					c-1.2-1.1-2.3-2.3-3.4-3.4l-1.1-1l-0.4-0.4c-1.2-1.1-2.3-2.2-3.5-3.3l-0.9-0.9l-0.6-0.6c-1.2-1.1-2.3-2.2-3.5-3.3l-1.1-1
					l-0.5-0.5c-1.2-1.1-2.3-2.2-3.5-3.2l-1-0.9l-0.6-0.6c-1.2-1.1-2.3-2.1-3.5-3.2l-1.1-1l-0.6-0.5c-1.2-1.1-2.4-2.1-3.5-3.2
					l-1.2-1.1l-0.5-0.5l-0.2-0.2c-1.1-1-2.2-2-3.3-3l-1.2-1.1l-0.6-0.5l-0.1-0.1c-1.1-1-2.3-2-3.4-3l-1.2-1l-0.7-0.6l-0.3-0.2
					c-1.1-0.9-2.2-1.9-3.2-2.8l-1.3-1.1l-0.7-0.6l-0.4-0.3c-1-0.9-2.1-1.8-3.1-2.7c-0.4-0.3-0.8-0.7-1.3-1.1l-0.7-0.6l-0.6-0.5
					c-1-0.8-2-1.7-3-2.5c-0.4-0.4-0.9-0.8-1.4-1.1l-0.7-0.6l-0.3-0.3c-1.1-0.9-2.1-1.8-3.2-2.7c-0.5-0.4-1-0.8-1.5-1.2l-0.7-0.6
					l-0.6-0.5c-1-0.8-1.9-1.6-2.9-2.4c-0.5-0.4-1-0.8-1.6-1.3l-0.7-0.6l-0.6-0.5c-1-0.8-1.9-1.5-2.9-2.3l-1.4-1.1l-0.9-0.7l-0.7-0.6
					c-0.9-0.7-1.9-1.5-2.8-2.2l-1.5-1.2l-0.9-0.7l-0.6-0.5c-0.9-0.7-1.9-1.5-2.8-2.2c-0.6-0.5-1.2-0.9-1.8-1.4l-0.8-0.6l-0.9-0.7
					c-0.8-0.6-1.7-1.3-2.5-1.9c-0.6-0.5-1.3-1-2-1.5l-0.7-0.6l-0.8-0.6c-0.9-0.7-1.7-1.3-2.6-2c-0.6-0.5-1.3-1-1.9-1.5l-0.8-0.6
					l-0.9-0.7c-0.8-0.6-1.7-1.3-2.6-1.9l-1.8-1.3l-1-0.8l-1-0.8c-0.8-0.6-1.6-1.2-2.4-1.8c-0.7-0.5-1.4-1-2.1-1.5l-1-0.7l-1.1-0.8
					c-0.7-0.5-1.5-1.1-2.2-1.6c-0.7-0.5-1.5-1.1-2.2-1.6l-1.1-0.8l-1-0.7c-0.7-0.5-1.4-1-2.1-1.5c-0.8-0.6-1.7-1.2-2.6-1.9l-0.9-0.7
					l-1.1-0.8c-0.6-0.5-1.3-0.9-2-1.4c-1.1-0.8-2.2-1.5-3.2-2.3l-0.7-0.5l-0.9-0.7c-0.6-0.4-1.2-0.9-1.8-1.3
					c-1.3-0.9-2.5-1.8-3.8-2.7l-0.5-0.4l-0.9-0.6l-1.5-1.1c-2.3-1.6-4.5-3.2-6.8-4.8c-119.3-83-248.1-116.1-314.2-128.5
					c-6.6-1.2-13.2-2.4-19.6-3.4c-23.5-3.7-39.7-5-49.2-5.5c-0.3,0-0.7,0-1,0l-0.6,0C1634.7,0,1634.2,0,1633.6,0L1633.6,0z
					 M1735.6,230.4c1-8.3,2-16.7,2.9-25c0.7-5.9,1.3-11.6,1.9-17.1c0,0,0-0.1,0-0.1c2.1-19.9,3.8-37.2,5-50.3
					c49.4,17.5,104,43.7,156.2,75.2c54.9,33.1,104.6,70.1,145.2,107.9c-3.6-0.1-7.3-0.1-11.2-0.1c-3,0-6.2,0-9.3,0.1
					c-32.6,0.3-71.3,2.5-112,6.3c-73,6.8-144,17.9-197.6,30.6c4.9-26.5,9.5-55.8,13.8-87.6c0-0.3,0.1-0.6,0.1-0.9
					c0-0.3,0.1-0.5,0.1-0.8c0-0.1,0-0.2,0-0.3c0.1-0.3,0.1-0.5,0.1-0.8c0.1-0.7,0.2-1.3,0.3-2c0-0.2,0-0.3,0.1-0.5
					c0-0.3,0.1-0.6,0.1-0.9c0.1-0.4,0.1-0.8,0.1-1.3c0.1-0.4,0.1-0.8,0.2-1.1c0-0.2,0-0.3,0.1-0.5c0.1-0.5,0.1-0.9,0.2-1.4
					c0-0.1,0-0.2,0-0.4c0.1-0.5,0.1-1,0.2-1.5c0.1-0.4,0.1-0.8,0.1-1.2c0-0.3,0.1-0.6,0.1-1c0-0.1,0-0.2,0-0.3c0-0.2,0-0.4,0.1-0.6
					c0.1-0.5,0.1-0.9,0.2-1.3c0-0.3,0.1-0.6,0.1-0.8c0-0.1,0-0.2,0-0.3c0.1-0.5,0.2-1.1,0.2-1.6c0-0.1,0-0.2,0-0.3
					c0-0.3,0.1-0.5,0.1-0.8c0-0.1,0-0.2,0-0.3c0-0.3,0.1-0.5,0.1-0.8c0-0.3,0.1-0.5,0.1-0.8c0-0.1,0-0.3,0.1-0.5c0-0.1,0-0.2,0-0.3
					c0-0.3,0.1-0.6,0.1-0.9c0-0.1,0-0.2,0-0.2l0.2-1.9c0.1-0.4,0.1-0.8,0.2-1.3c0.1-0.4,0.1-0.9,0.2-1.3c0-0.2,0.1-0.5,0.1-0.7
					c0,0,0-0.1,0-0.1c0.1-0.6,0.2-1.2,0.2-1.8c0-0.2,0.1-0.4,0.1-0.7c0-0.2,0-0.4,0.1-0.5c0-0.1,0-0.2,0-0.3c0-0.3,0.1-0.5,0.1-0.8
					c0-0.3,0.1-0.5,0.1-0.8c0-0.2,0-0.4,0.1-0.5c0-0.2,0.1-0.4,0.1-0.7c0-0.1,0-0.2,0-0.3c0-0.3,0.1-0.5,0.1-0.8
					c0-0.3,0.1-0.5,0.1-0.8c0.1-0.4,0.1-0.8,0.1-1.2c0-0.1,0-0.2,0-0.3C1735.5,231,1735.6,230.7,1735.6,230.4L1735.6,230.4z"/>
			</g>
			<g>
				<path d="M2105.5,567.2c1,0,2,0,3,0c1.2,0,2.3,0,3.5,0.1c1.1,0,2.2,0.1,3.3,0.1c1.2,0,2.3,0.1,3.5,0.2c1.1,0.1,2.2,0.1,3.3,0.2
					c1.1,0.1,2.3,0.2,3.4,0.3c1.1,0.1,2.2,0.2,3.3,0.3c1.1,0.1,2.3,0.2,3.4,0.4c1.1,0.1,2.2,0.3,3.2,0.4c1.1,0.2,2.2,0.3,3.4,0.5
					c1.1,0.2,2.1,0.3,3.2,0.5c1.1,0.2,2.2,0.4,3.3,0.6c1.1,0.2,2.1,0.4,3.1,0.6c1.1,0.2,2.2,0.5,3.3,0.7c1,0.2,2.1,0.5,3.1,0.7
					c1.1,0.3,2.2,0.5,3.2,0.8c1,0.3,2,0.5,3.1,0.8c1.1,0.3,2.1,0.6,3.2,0.9c1,0.3,2,0.6,3,0.9c1,0.3,2.1,0.7,3.1,1c1,0.3,2,0.7,3,1
					c0.5,0.2,1,0.3,1.4,0.5c2.2,0.8,4.4,1.5,6.7,2.1c0,0,0.1,0,0.1,0c1.5,0.4,2.9,0.8,4.4,1.3c0.4,0.1,0.8,0.3,1.2,0.4
					c1.2,0.4,2.3,0.7,3.5,1.1c0.4,0.1,0.8,0.3,1.2,0.4c3.1,1.1,6.3,2.2,9.5,3.5c0.3,0.1,0.6,0.3,1,0.4c1.4,0.6,2.8,1.1,4.2,1.7
					c0.3,0.1,0.5,0.2,0.8,0.3c3.4,1.4,6.8,3,10.3,4.7c0.2,0.1,0.4,0.2,0.6,0.3c1.7,0.8,3.4,1.7,5.1,2.6c0,0,0.1,0,0.1,0
					c3.6,1.9,7.3,3.9,11,6.1c0.1,0,0.1,0.1,0.2,0.1c11.1,6.6,22.4,14.6,33.4,24c0,0,0,0,0,0c3.9,3.1,7.1,6,9.5,8.5
					c52.9,49.8,99.4,135.5,103.8,276.5c2.6,255.4-125.7,418.4-228,508.2c-18.5,17-40,33.6-63.4,48.6c-0.3,0.2-0.6,0.4-0.9,0.6
					c-1,0.6-2,1.3-2.9,1.9c-1.3,0.9-2.7,1.7-4.1,2.5c-0.3,0.2-0.7,0.4-1,0.6c-1.9,1.1-3.7,2.3-5.6,3.4c-0.2,0.1-0.3,0.2-0.5,0.3
					c-57.7,34.4-125.5,58.9-191,58.9c-0.5,0-1,0-1.5,0c0,0,0,0,0,0c0,0,0,0,0,0c0,0,0,0,0,0c-1,0-2.1,0-3.1,0c-1,0-2,0-3-0.1
					c-1,0-2.1-0.1-3.1-0.1c-1.2-0.1-2.5-0.1-3.7-0.2c-1.4-0.1-2.9-0.2-4.3-0.3c-1.1-0.1-2.2-0.2-3.3-0.3c-1-0.1-2-0.2-3-0.3
					c-1.2-0.1-2.4-0.3-3.5-0.4c-1.3-0.1-2.5-0.3-3.8-0.5c-1.3-0.2-2.7-0.4-4-0.6c-0.9-0.1-1.8-0.3-2.8-0.4c-1.2-0.2-2.4-0.4-3.6-0.6
					c-0.8-0.1-1.6-0.3-2.4-0.4c-1.8-0.3-3.6-0.7-5.4-1.1c-0.8-0.2-1.6-0.4-2.5-0.6c-1.2-0.3-2.5-0.6-3.7-0.9
					c-0.8-0.2-1.5-0.4-2.3-0.6c-1.8-0.5-3.6-1-5.5-1.5c-0.7-0.2-1.4-0.4-2.1-0.6c-1.3-0.4-2.7-0.8-4-1.3c-0.7-0.2-1.4-0.5-2.2-0.7
					c-1.8-0.6-3.7-1.3-5.5-1.9c-0.5-0.2-1-0.4-1.5-0.6c-1.5-0.6-3-1.1-4.4-1.7c-0.7-0.3-1.3-0.5-2-0.8c-1.7-0.7-3.3-1.4-5-2.2
					c-0.3-0.1-0.7-0.3-1-0.4c-1.8-0.8-3.6-1.7-5.4-2.5c-0.6-0.3-1.2-0.6-1.8-0.9c-1.5-0.8-3.1-1.6-4.6-2.4c-0.4-0.2-0.8-0.4-1.2-0.6
					c-1.9-1-3.7-2-5.5-3.1c-0.5-0.3-1-0.6-1.5-0.9c-1.5-0.9-3-1.8-4.4-2.7c-0.4-0.3-0.9-0.6-1.3-0.8c-1.8-1.2-3.6-2.4-5.4-3.6
					c-0.4-0.3-0.8-0.6-1.2-0.8c-1.5-1-3-2.1-4.5-3.2c-0.5-0.3-0.9-0.7-1.4-1c-1.8-1.3-3.6-2.7-5.4-4.1c-0.2-0.2-0.5-0.4-0.7-0.6
					c-1.6-1.3-3.1-2.5-4.7-3.9c-0.5-0.4-0.9-0.8-1.4-1.2c-1.8-1.5-3.5-3.1-5.3-4.7c-47.1-46.7-74.5-103.5-88.3-163.8
					c0,0.1,0,0.2,0,0.3c-3.8-16.3-6.5-33-8.3-49.9c-0.1-0.6-0.1-1.2-0.2-1.8c-0.2-1.6-0.3-3.2-0.5-4.9
					c-5.4-56.8-0.7-114.9,9.5-169.4c0.6-3.1,1.2-6.3,1.8-9.4c0,0,0-0.1,0-0.1c16.2-80.9,44.3-153,69.1-199.7
					c0.2-0.4,0.5-0.9,0.7-1.3c0.4-0.7,0.8-1.5,1.2-2.2c0.6-1.1,1.2-2.1,1.7-3.2c0.3-0.5,0.5-0.9,0.8-1.4c0.4-0.6,0.7-1.3,1.1-1.9
					c0.6-1.1,1.2-2.1,1.8-3.1c1.2-2.3,2.4-4.6,3.6-6.9c0.8-1.6,1.6-3.1,2.4-4.7c1.1-2.1,2.2-4.1,3.3-6.1c0.9-1.8,1.9-3.5,2.8-5.3
					c1.1-1.9,2.1-3.8,3.2-5.7c1-1.8,2-3.6,3-5.4c1-1.8,2.1-3.6,3.2-5.4c1.1-1.8,2.1-3.7,3.2-5.4c1.1-1.8,2.1-3.6,3.2-5.3
					c1.1-1.8,2.1-3.6,3.2-5.3c1.1-1.8,2.2-3.5,3.2-5.2c1.1-1.7,2.2-3.5,3.2-5.2c1.1-1.7,2.2-3.4,3.3-5.1c1.1-1.7,2.2-3.4,3.3-5.1
					c1.1-1.7,2.2-3.3,3.3-5c1.1-1.7,2.2-3.4,3.3-5c1.1-1.6,2.2-3.2,3.3-4.9c1.1-1.6,2.2-3.3,3.4-4.9c1.1-1.6,2.2-3.1,3.4-4.7
					c1.1-1.6,2.3-3.2,3.4-4.8c1.1-1.6,2.3-3.1,3.4-4.6c1.1-1.6,2.3-3.1,3.4-4.7c1.1-1.5,2.3-3,3.4-4.5c1.2-1.5,2.3-3.1,3.5-4.6
					c1.1-1.5,2.3-2.9,3.4-4.3c1.2-1.5,2.3-3,3.5-4.4c1.2-1.4,2.3-2.8,3.5-4.2c1.2-1.4,2.4-2.9,3.5-4.3c1.2-1.4,2.3-2.7,3.5-4.1
					c1.2-1.4,2.4-2.8,3.6-4.2c1.2-1.3,2.3-2.7,3.5-4c1.2-1.4,2.4-2.8,3.6-4.1c1.2-1.3,2.4-2.6,3.5-3.9c1.2-1.3,2.4-2.7,3.6-4
					c1.2-1.3,2.4-2.5,3.5-3.8c1.2-1.3,2.4-2.6,3.7-3.9c1.2-1.2,2.4-2.4,3.6-3.7c1.2-1.3,2.5-2.5,3.7-3.8c1.2-1.2,2.4-2.4,3.6-3.5
					c1.2-1.2,2.5-2.4,3.7-3.6c1.2-1.2,2.4-2.3,3.6-3.4c1.2-1.2,2.5-2.4,3.7-3.5c1.2-1.1,2.4-2.2,3.6-3.3c1.3-1.2,2.5-2.3,3.8-3.4
					c1.2-1.1,2.4-2.1,3.6-3.2c1.3-1.1,2.5-2.2,3.8-3.3c1.2-1,2.4-2.1,3.6-3.1c1.3-1.1,2.5-2.2,3.8-3.2c1.2-1,2.4-2,3.6-3
					c1.3-1,2.5-2.1,3.8-3.1c1.2-1,2.4-1.9,3.7-2.9c1.3-1,2.5-2,3.8-3c1.2-0.9,2.4-1.8,3.7-2.8c1.3-1,2.6-1.9,3.8-2.9
					c1.2-0.9,2.4-1.8,3.7-2.7c1.3-0.9,2.6-1.8,3.8-2.8c1.2-0.9,2.4-1.7,3.7-2.5c1.3-0.9,2.6-1.8,3.9-2.6c1.2-0.8,2.4-1.6,3.7-2.4
					c1.3-0.9,2.6-1.7,3.9-2.5c1.2-0.8,2.4-1.6,3.7-2.3c1.3-0.8,2.6-1.6,3.9-2.4c1.2-0.8,2.5-1.5,3.7-2.2c1.3-0.8,2.6-1.5,3.9-2.3
					c1.2-0.7,2.5-1.4,3.7-2.1c1.3-0.7,2.6-1.5,3.9-2.2c1.2-0.7,2.4-1.3,3.7-2c1.3-0.7,2.6-1.4,3.9-2.1c1.2-0.6,2.4-1.3,3.7-1.9
					c1.3-0.7,2.6-1.3,3.9-2c1.2-0.6,2.4-1.2,3.7-1.8c1.3-0.6,2.6-1.3,3.9-1.9c1.2-0.6,2.4-1.1,3.7-1.7c1.3-0.6,2.6-1.2,3.9-1.8
					c1.2-0.5,2.4-1.1,3.7-1.6c1.3-0.6,2.6-1.1,3.8-1.6c1.2-0.5,2.4-1,3.6-1.5c1.3-0.5,2.6-1,3.8-1.5c1.2-0.5,2.4-0.9,3.6-1.4
					c1.3-0.5,2.6-1,3.8-1.4c1.2-0.4,2.4-0.9,3.6-1.3c1.3-0.4,2.5-0.9,3.8-1.3c1.2-0.4,2.4-0.8,3.6-1.2c1.3-0.4,2.5-0.8,3.8-1.2
					c1.2-0.4,2.4-0.7,3.6-1.1c1.3-0.4,2.5-0.7,3.8-1.1c1.2-0.3,2.4-0.7,3.6-1c1.3-0.3,2.5-0.7,3.8-1c1.2-0.3,2.4-0.6,3.6-0.9
					c1.3-0.3,2.5-0.6,3.7-0.9c1.2-0.3,2.4-0.5,3.5-0.8c1.2-0.3,2.5-0.5,3.7-0.8c1.2-0.2,2.4-0.5,3.5-0.7c1.2-0.2,2.5-0.5,3.7-0.7
					c1.2-0.2,2.3-0.4,3.5-0.6c1.2-0.2,2.5-0.4,3.7-0.6c1.2-0.2,2.3-0.3,3.5-0.5c1.2-0.2,2.4-0.3,3.7-0.5c1.2-0.1,2.3-0.3,3.5-0.4
					c1.2-0.1,2.4-0.2,3.6-0.3c1.1-0.1,2.3-0.2,3.4-0.3c1.2-0.1,2.4-0.2,3.6-0.2c1.1-0.1,2.3-0.1,3.4-0.2c1.2-0.1,2.4-0.1,3.6-0.1
					c1.1,0,2.3-0.1,3.4-0.1c1.2,0,2.4,0,3.5,0C2105.3,567.2,2105.4,567.2,2105.5,567.2 M1911.2,1407.3c-1.2-1.2-1.8-1.8-1.8-1.8
					c10.1,8.5,25,13,43.3,13.3c0.6,0,1.2,0,1.8,0c1.6,0,3.2,0,4.9-0.1c0.1,0,0.2,0,0.3,0c0.8,0,1.6-0.1,2.4-0.1
					c1-0.1,1.9-0.1,2.9-0.2c0.2,0,0.4,0,0.6,0c73-6.4,186.9-72.2,266.5-217.1c108.9-197.6,52.6-408.8-37.3-429.4
					c-3.6-0.7-7.5-1.1-11.7-1.1c-58.2,0-168.9,72.4-242.2,218c-84.5,167.2-105.1,337-31.9,416.9
					C1909.6,1406.1,1910.4,1406.7,1911.2,1407.3 M2105.5,546.1h-0.3c-1.3,0-2.6,0-3.9,0c-1.2,0-2.4,0-3.7,0.1
					c-1.3,0-2.6,0.1-3.9,0.1c-1.2,0.1-2.5,0.1-3.7,0.2c-1.3,0.1-2.6,0.2-3.9,0.3c-1.2,0.1-2.5,0.2-3.7,0.3c-1.3,0.1-2.6,0.2-3.9,0.4
					c-1.2,0.1-2.5,0.3-3.7,0.4c-1.3,0.2-2.6,0.3-4,0.5c-1.3,0.2-2.5,0.3-3.8,0.5c-1.3,0.2-2.6,0.4-4,0.6c-1.3,0.2-2.5,0.4-3.8,0.6
					c-1.3,0.2-2.7,0.5-4,0.7c-1.3,0.2-2.5,0.5-3.8,0.7c-1.3,0.3-2.7,0.5-4,0.8c-1.3,0.3-2.5,0.5-3.8,0.8c-1.3,0.3-2.7,0.6-4,0.9
					c-1.3,0.3-2.6,0.6-3.8,0.9c-1.3,0.3-2.7,0.7-4,1.1c-1.3,0.3-2.6,0.7-3.8,1c-1.4,0.4-2.7,0.8-4.1,1.2c-1.3,0.4-2.6,0.8-3.8,1.2
					c-1.3,0.4-2.7,0.9-4.1,1.3c-1.3,0.4-2.6,0.8-3.8,1.3c-1.4,0.5-2.7,0.9-4.1,1.4c-1.3,0.4-2.6,0.9-3.8,1.4c-1.4,0.5-2.7,1-4.1,1.5
					l-0.2,0.1c-1.2,0.5-2.5,0.9-3.7,1.4c-1.3,0.5-2.6,1-3.9,1.6l-0.2,0.1l-0.3,0.1c-1.2,0.5-2.4,1-3.6,1.5c-1.3,0.6-2.7,1.2-4.1,1.7
					l-0.4,0.2c-1.2,0.5-2.3,1-3.5,1.5c-1.2,0.6-2.5,1.1-3.8,1.7l-0.3,0.1l-0.3,0.1c-1.2,0.5-2.4,1.1-3.6,1.7
					c-1.3,0.6-2.6,1.3-3.9,1.9l-0.2,0.1l-0.5,0.2c-1.1,0.5-2.2,1.1-3.4,1.7c-1.3,0.6-2.5,1.3-3.8,1.9l-0.3,0.2l-0.5,0.2
					c-1.1,0.6-2.3,1.2-3.4,1.8c-1.2,0.7-2.5,1.3-3.7,2l-0.4,0.2l-0.5,0.3c-1.1,0.6-2.2,1.2-3.4,1.9c-1.2,0.7-2.4,1.4-3.6,2l-0.4,0.3
					l-0.5,0.3c-1.1,0.7-2.3,1.3-3.4,2c-1.2,0.7-2.5,1.5-3.7,2.2l-0.4,0.2l-0.5,0.3c-1.1,0.7-2.2,1.3-3.4,2c-1.2,0.7-2.4,1.5-3.6,2.2
					l-0.5,0.3l-0.7,0.4c-1.1,0.7-2.1,1.3-3.2,2c-1.2,0.8-2.3,1.5-3.5,2.3l-0.5,0.4l-0.7,0.5c-1,0.7-2.1,1.4-3.1,2.1
					c-1.2,0.8-2.3,1.6-3.5,2.4l-0.5,0.4l-0.7,0.5c-1,0.7-2.1,1.4-3.1,2.2c-1.1,0.8-2.2,1.6-3.4,2.4l-0.6,0.5l-0.7,0.5
					c-1.1,0.8-2.1,1.5-3.2,2.3c-1.1,0.8-2.2,1.6-3.3,2.5l-0.7,0.5l-0.8,0.6c-1,0.8-2,1.5-3,2.3c-1.1,0.8-2.2,1.7-3.3,2.5l-0.7,0.6
					l-0.8,0.6c-1,0.8-2,1.6-3,2.4c-1.1,0.9-2.1,1.7-3.2,2.6l-0.8,0.6l-0.8,0.7c-1,0.8-2,1.6-3,2.4c-1.1,0.9-2.2,1.8-3.2,2.7
					l-0.7,0.6l-0.8,0.7c-1,0.8-1.9,1.6-2.9,2.5c-1.1,0.9-2.1,1.8-3.1,2.8l-0.8,0.7l-0.9,0.8c-1,0.8-1.9,1.7-2.9,2.6
					c-1,0.9-2.1,1.9-3.1,2.9l-0.8,0.7l-0.9,0.8c-1,0.9-1.9,1.7-2.9,2.6c-1,1-2,1.9-3.1,2.9l-0.8,0.8l-0.8,0.8
					c-1,0.9-1.9,1.8-2.9,2.8c-1,1-2,1.9-3,2.9l-0.9,0.9l-0.9,0.9c-0.9,0.9-1.9,1.9-2.8,2.8c-1,1-2,2-2.9,3l-0.9,0.9l-0.9,0.9
					c-0.9,1-1.9,1.9-2.8,2.9c-1,1-1.9,2-2.9,3.1l-0.9,1l-0.9,1c-0.9,1-1.8,1.9-2.7,2.9c-1,1-1.9,2.1-2.9,3.2l-0.9,1l-1,1.1
					c-0.9,1-1.8,2-2.7,3c-0.9,1-1.8,2.1-2.8,3.1l-1,1.1l-1,1.1c-0.9,1-1.8,2-2.7,3c-0.9,1.1-1.8,2.2-2.8,3.2l-0.9,1.1l-0.9,1.1
					c-0.9,1.1-1.8,2.1-2.7,3.2c-0.9,1.1-1.8,2.2-2.7,3.3l-0.9,1.2l-1,1.2c-0.9,1.1-1.7,2.1-2.6,3.2c-0.9,1.1-1.8,2.3-2.7,3.4l-1,1.2
					l-0.9,1.2c-0.9,1.1-1.7,2.2-2.6,3.3c-0.9,1.1-1.7,2.2-2.6,3.4l-1,1.3l-1,1.4c-0.8,1.1-1.7,2.2-2.5,3.3c-0.8,1.1-1.7,2.3-2.5,3.4
					l-1,1.4l-1,1.4c-0.8,1.1-1.7,2.2-2.5,3.4c-0.8,1.2-1.7,2.3-2.5,3.5l-1,1.4l-1,1.4c-0.8,1.1-1.6,2.3-2.4,3.4
					c-0.8,1.2-1.6,2.4-2.4,3.5l-1,1.5l-1,1.5c-0.8,1.2-1.6,2.3-2.4,3.5c-0.8,1.2-1.6,2.4-2.5,3.7l-1,1.5l-1,1.5
					c-0.8,1.2-1.6,2.4-2.4,3.6c-0.8,1.2-1.6,2.5-2.4,3.7l-1,1.5l-1,1.6c-0.8,1.2-1.5,2.4-2.3,3.6c-0.8,1.2-1.5,2.5-2.3,3.7l-1,1.6
					l-1,1.7c-0.8,1.2-1.5,2.4-2.3,3.7c-0.8,1.3-1.5,2.5-2.3,3.8l-1,1.6l-1,1.6c-0.8,1.3-1.5,2.6-2.3,3.9c-0.7,1.3-1.5,2.5-2.2,3.8
					l-1,1.8l-1,1.7c-0.8,1.3-1.5,2.6-2.3,3.9c-0.7,1.2-1.4,2.5-2.1,3.8l-1,1.8l-1,1.8c-0.8,1.3-1.5,2.7-2.3,4
					c-0.6,1.2-1.3,2.4-1.9,3.6l-1,1.8l-1,1.9c-0.8,1.5-1.6,2.9-2.4,4.4c-0.5,1-1.1,2-1.6,3c-0.3,0.6-0.6,1.2-0.9,1.8l-0.9,1.8
					c-0.8,1.6-1.7,3.2-2.5,4.8c-0.5,0.9-1.1,1.9-1.6,2.8c-0.4,0.7-0.8,1.3-1.1,2l-0.8,1.4c-0.6,1.1-1.2,2.2-1.8,3.3
					c-0.4,0.8-0.8,1.5-1.2,2.3l-0.7,1.4c-14.5,27.2-50.3,101.7-71.1,205.5c0,0.1,0,0.1,0,0.2c-0.6,3.1-1.2,6.2-1.8,9.5
					c-11.6,62-14.9,121-9.8,175.3c0.1,1.5,0.3,3,0.5,4.6l0.1,0.5l0.1,0.7c0,0.4,0.1,0.8,0.1,1.2c1.9,18,4.9,35.6,8.7,52.3
					c0.1,0.4,0.2,0.8,0.3,1.2c15.9,68.6,47.4,126.7,93.6,172.6c0.2,0.2,0.4,0.4,0.6,0.5c1.7,1.6,3.6,3.2,5.7,5.1
					c0.5,0.4,1,0.9,1.5,1.3c1.7,1.5,3.4,2.9,5.1,4.2l0.2,0.1c0.2,0.2,0.4,0.3,0.6,0.5c1.9,1.5,3.8,3,5.9,4.6
					c0.4,0.3,0.8,0.6,1.1,0.8l0.4,0.3c1.6,1.2,3.3,2.4,4.9,3.5l0.4,0.3c0.3,0.2,0.6,0.4,0.9,0.7c2,1.4,4,2.7,6,4
					c0.4,0.2,0.7,0.4,1.1,0.7l0.4,0.3c1.6,1,3.3,2,4.9,3l0.5,0.3c0.4,0.2,0.8,0.5,1.2,0.7c2.2,1.3,4.2,2.4,6.1,3.4
					c0.3,0.2,0.6,0.3,1,0.5l0.4,0.2c1.6,0.9,3.3,1.8,5,2.6c0.7,0.3,1.3,0.7,2,1c2.2,1.1,4.1,2,5.9,2.8c0.3,0.1,0.5,0.2,0.8,0.4
					l0.3,0.1c1.8,0.8,3.6,1.6,5.5,2.4c0.7,0.3,1.5,0.6,2.2,0.9c1.6,0.6,3.2,1.3,4.9,1.9l0.5,0.2c0.4,0.2,0.8,0.3,1.2,0.4
					c1.9,0.7,3.9,1.4,6.1,2.1c0.7,0.2,1.4,0.5,2.1,0.7l0.3,0.1c1.5,0.5,2.9,0.9,4.4,1.4l0.6,0.2c0.6,0.2,1.1,0.3,1.7,0.5
					c1.9,0.6,4,1.1,6,1.7c0.7,0.2,1.3,0.3,2,0.5l0.5,0.1c1.4,0.3,2.7,0.7,4.1,1l0.4,0.1c0.8,0.2,1.6,0.4,2.3,0.5
					c2.1,0.5,4,0.9,5.9,1.2c0.7,0.1,1.3,0.2,2,0.4l0.7,0.1c1.3,0.2,2.6,0.5,3.9,0.7c1,0.2,2,0.3,3,0.5c1.5,0.2,2.9,0.4,4.3,0.6
					c1.4,0.2,2.8,0.4,4.2,0.5c1.3,0.2,2.6,0.3,3.9,0.4c1.1,0.1,2.1,0.2,3.2,0.3c1.2,0.1,2.4,0.2,3.6,0.3c1.6,0.1,3.1,0.2,4.7,0.3
					c1.3,0.1,2.7,0.1,4,0.2c1.1,0,2.3,0.1,3.4,0.1c1.1,0,2.2,0.1,3.3,0.1l0.6,0c0.8,0,1.7,0,2.5,0l0.3,0c0.4,0,0.8,0,1.2,0
					c0.1,0,0.3,0,0.4,0c33.4,0,68.7-5.9,104.9-17.5c32.6-10.5,65.2-25.4,96.9-44.3l0.5-0.3c1.9-1.2,3.9-2.3,5.8-3.5l0.6-0.4l0.4-0.3
					c1.5-0.9,2.9-1.8,4.3-2.7c1-0.6,2-1.3,3.1-1.9l0.8-0.5l0.2-0.1c23.9-15.4,46.1-32.5,66-50.6c65.7-57.7,118.9-124.2,157.9-197.8
					c52.4-98.7,78.3-208.4,77.2-326.3c0-0.1,0-0.3,0-0.4c-2.1-68-14-128.5-35.3-179.9c-18.3-44-43.4-81.3-74.7-110.9
					c-3.1-3.2-6.8-6.5-11-9.9c-11.4-9.6-23.5-18.3-36-25.8l-0.2-0.1c-4-2.4-8-4.6-12-6.7c0,0-0.1,0-0.1-0.1c0,0,0,0,0,0
					c-1.8-0.9-3.7-1.9-5.6-2.8l-0.6-0.3c-3.8-1.8-7.6-3.6-11.3-5.2l-0.7-0.3l-0.2-0.1c-1.5-0.6-3.1-1.3-4.6-1.9l-0.3-0.1l-0.8-0.3
					c-3.5-1.4-7-2.7-10.5-3.8c-0.4-0.1-0.7-0.2-1.1-0.4l-0.3-0.1c-1.3-0.4-2.6-0.8-3.9-1.2l-0.4-0.1l-0.9-0.3
					c-1.8-0.5-3.3-1-4.8-1.4c-0.1,0-0.2-0.1-0.3-0.1c-1.8-0.5-3.5-1-5.2-1.6c-0.4-0.1-0.8-0.3-1.2-0.4l-0.3-0.1
					c-1.1-0.4-2.2-0.7-3.3-1.1c-1.2-0.4-2.3-0.7-3.5-1.1c-1.1-0.3-2.2-0.7-3.4-1c-1.2-0.3-2.3-0.7-3.5-1c-1.1-0.3-2.3-0.6-3.4-0.9
					c-1.2-0.3-2.4-0.6-3.6-0.9c-1.2-0.3-2.3-0.5-3.4-0.8c-1.2-0.3-2.4-0.5-3.6-0.8c-1.1-0.2-2.3-0.5-3.5-0.7
					c-1.2-0.2-2.4-0.4-3.7-0.6c-1.2-0.2-2.3-0.4-3.5-0.6c-1.2-0.2-2.5-0.4-3.7-0.5c-1.2-0.2-2.4-0.3-3.6-0.5
					c-1.2-0.1-2.5-0.3-3.7-0.4c-1.2-0.1-2.4-0.2-3.6-0.3c-1.2-0.1-2.5-0.2-3.8-0.3c-1.2-0.1-2.4-0.2-3.6-0.2
					c-1.3-0.1-2.5-0.1-3.8-0.2c-1.2-0.1-2.4-0.1-3.6-0.1c-1.3,0-2.5-0.1-3.8-0.1C2107.7,546.1,2106.6,546.1,2105.5,546.1
					L2105.5,546.1z M1922.1,1388.7c-29.3-34.1-41.6-88.3-35.4-157.1c3.1-35,11-72.8,23.3-112.4c12.4-39.8,29.1-80.6,49.6-121.2
					c40.5-80.4,88.3-129.6,121.4-156.8c37.2-30.6,76.3-49.6,102-49.6c2.6,0,5.1,0.2,7.2,0.6c21.5,5.1,42.4,27,57.3,60.4
					c18.1,40.5,26.1,93.6,22.5,149.4c-4.2,64.3-23.7,129.7-56.4,188.9c-34.8,63.3-79.7,116.5-129.9,153.8
					c-40.7,30.2-84.4,49.4-119.9,52.5l-0.2,0l-0.4,0c-0.9,0.1-1.7,0.1-2.5,0.2l-0.1,0c-0.6,0-1.2,0.1-1.8,0.1l-0.2,0
					c0,0-0.1,0-0.1,0c-1.4,0.1-2.7,0.1-4.1,0.1c-0.5,0-1,0-1.5,0c-13.2-0.2-23.9-3.2-30.1-8.4
					C1922.6,1389.1,1922.4,1388.9,1922.1,1388.7L1922.1,1388.7z"/>
			</g>
			<g>
				<path d="M1244.3,895c2.1,0,4.2,0.5,6,1.6l0.1,0c0,0,0,0,0,0c8.3,4.6,30.2,16.8,56.1,31.2c0.2,0.1,0.5,0.3,0.7,0.4
					c6.9,3.8,14,7.8,21.3,11.8c1,0.6,2.1,1.1,3.1,1.7c25.8,14.3,52.5,29.2,72.5,40.3c0.2,0.1,0.3,0.2,0.5,0.3
					c1.9,1.1,3.8,2.1,5.6,3.1c0.1,0,0.1,0.1,0.2,0.1c4.3,2.4,8.1,4.5,11.5,6.4c1.1,0.6,2.2,1.2,3.2,1.8c0.4,0.2,0.8,0.4,1.2,0.6
					c0.3,0.1,0.5,0.3,0.8,0.4c0.3,0.2,0.7,0.4,1,0.6c0.3,0.2,0.5,0.3,0.8,0.4c0.2,0.1,0.5,0.3,0.7,0.4c0.4,0.2,0.8,0.4,1.1,0.6
					c0.1,0.1,0.2,0.1,0.3,0.2c0.3,0.2,0.6,0.4,0.9,0.5c0.2,0.1,0.3,0.2,0.5,0.3c0.3,0.1,0.5,0.3,0.7,0.4c0.1,0.1,0.3,0.1,0.4,0.2
					c0.3,0.2,0.6,0.3,0.8,0.5c0,0,0,0,0,0c0.6,0.3,1,0.5,1.2,0.6c7.8,3.3,4.6,7.9,3.9,11.2l-2.7,6.4l-5,11.7l0,0l-0.1,0l0,0l0.1,0
					c-0.9,1.8-1.8,3.8-2.8,5.9c0,0,0,0.1,0,0.1c0,0,0,0,0,0c-16.4,35-50.7,117-92.8,215.3c-0.1,0.1-0.1,0.3-0.2,0.4
					c-1,2.3-2,4.7-3,7c-0.2,0.5-0.4,1-0.6,1.5c-0.9,2-1.7,4-2.6,6c-0.3,0.7-0.6,1.4-0.9,2.1c-0.8,1.8-1.6,3.6-2.3,5.5
					c-0.4,0.9-0.8,1.9-1.2,2.8c-0.7,1.6-1.4,3.2-2,4.7c-0.5,1.1-1,2.2-1.4,3.3c-0.6,1.4-1.2,2.9-1.9,4.3c-0.5,1.3-1.1,2.5-1.6,3.8
					c-0.6,1.3-1.1,2.6-1.7,3.9c-0.6,1.4-1.2,2.7-1.8,4.1c-0.5,1.2-1,2.4-1.6,3.6c-0.6,1.5-1.3,2.9-1.9,4.4c-0.5,1.1-1,2.3-1.5,3.4
					c-0.6,1.5-1.3,2.9-1.9,4.4c-0.5,1.2-1.1,2.4-1.6,3.7c-0.6,1.4-1.2,2.8-1.8,4.2c-0.5,1.2-1.1,2.4-1.6,3.7c-0.6,1.5-1.3,3-1.9,4.5
					c-0.5,1.1-1,2.3-1.5,3.4c-0.7,1.5-1.3,3-2,4.5c-0.5,1.2-1,2.4-1.6,3.6c-0.6,1.5-1.3,3-1.9,4.4c-0.5,1.2-1,2.3-1.5,3.5
					c-0.7,1.6-1.4,3.2-2.1,4.7c-0.5,1-0.9,2.1-1.4,3.1c-0.7,1.7-1.5,3.4-2.2,5c-0.4,1-0.8,1.9-1.3,2.9c-0.8,1.7-1.5,3.5-2.3,5.2
					c-0.4,0.9-0.8,1.8-1.2,2.7c-0.8,1.8-1.6,3.6-2.4,5.4c-0.4,0.9-0.8,1.8-1.2,2.7c-0.8,1.8-1.6,3.6-2.4,5.3
					c-0.4,0.9-0.8,1.8-1.2,2.6c-0.8,1.9-1.6,3.7-2.5,5.6c-0.3,0.7-0.6,1.4-0.9,2c-0.9,2-1.8,4.1-2.7,6.1c-0.2,0.5-0.4,1-0.7,1.5
					c-1,2.2-2,4.4-2.9,6.6c-0.1,0.2-0.2,0.4-0.3,0.6c-3.5,7.8-7,15.6-10.5,23.4c168.3,79.9,292.7,108.7,419.8,122.5
					c3.3,0.5,6.4,1.5,9,3.1c0.1,0.1,0.2,0.1,0.3,0.2c0.7,0.5,1.3,1,2,1.5c0.2,0.1,0.4,0.3,0.5,0.4c3,2.8,4.8,6.8,4.5,11.7l-0.8,5.7
					l-1.2,8.8c-0.5,3.4-1.2,5.6-2,7.3c-0.7,1.4-1.6,2.4-2.5,3.3c-0.6,0.6-1.2,1.1-1.9,1.8c-0.4,0.4-0.9,0.8-1.3,1.3c0,0,0,0,0,0
					c-0.3,0.3-0.6,0.5-1,0.8c0,0-0.1,0.1-0.1,0.1c-0.1,0.1-0.3,0.2-0.4,0.3c-0.2,0.2-0.4,0.3-0.6,0.5c0,0-0.1,0.1-0.1,0.1
					c0,0,0,0,0,0c0,0-0.1,0.1-0.1,0.1c-0.1,0.1-0.2,0.1-0.2,0.2c-1,0.7-2,1.5-3,2.2c0,0,0,0,0,0c-15.6,11.2-48.1,31.8-60.6,39.7
					c-3.4,2.1-7.1,3.7-11,4.6l-2.8,0.7c-2.5,0.6-5.1,0.9-7.7,0.9c-0.9,0-1.7,0-2.6-0.1c-134.1-10.8-255.1-44.1-381.1-99.8
					c0,0,0,0,0,0h0c-6.5,18.1-12.2,39.4-14.8,49.4c-1,4-2.6,7.8-4.7,11.3l-7.5,12.8l-0.2,0.4c0,0,0,0,0,0l-0.1,0.1
					c0,0-0.1,0.1-0.1,0.1c-0.2,0.3-0.4,0.5-0.6,0.8c-0.1,0.1-0.3,0.2-0.4,0.4c-0.1,0.1-0.3,0.2-0.4,0.3c-0.8,0.6-1.8,1-2.8,1.1
					l-7.3,0.6c0,0,0.1,0,0.1,0c-0.3,0-0.6,0.1-0.9,0.1c-0.8,0-2-0.1-4.1-0.8h0c-0.1,0-0.2-0.1-0.2-0.1c-0.3-0.1-0.6-0.2-1-0.4
					c-23.6-8.9-75.5-38.1-82-42l-7.9-7.4c-1.3-1.2-2.3-2.8-2.9-4.5c-6.1-17.8-10.7-46.5-8.2-100.1
					c-99.5-63.5-199.7-147.9-277.6-257.3c-5.3-7.3-6.6-9.2-7.9-17.6c-3.3-19-11.8-81.3-12.4-91.1c-0.1-0.9-0.2-1.8-0.3-2.7
					c0,0,0,0,0,0c-0.5-5.8-1.1-14.2,5-18.5c0.1,0,0.1-0.1,0.2-0.2l0.5-0.3c0,0,0,0,0,0v0l10.4-6.7l0,0c0,0,0,0,0,0l0.3-0.2
					c1.4-0.9,2.9-1.7,4.5-2.3c0,0,0,0,0,0l2.3-0.7c1.4-0.4,2.9-0.8,4.4-0.9c0.6,0,1.3-0.1,1.9-0.1c6.2,0,12.8,2.3,18.4,8.9
					c0,0,0.1,0.1,0.1,0.1c0.3,0.4,0.6,0.7,0.9,1.1c0.4,0.5,0.7,1,1.1,1.5c47.8,64.1,115.9,146.6,267,249.3
					c4.3-18.2,8.7-36.9,13.5-55.9c26-106,60.4-225.3,115.1-361c0.9-2.2,1.7-4.3,2.6-6.5c1.2-2.9,3-5.5,5.2-7.6l8.8-8.1
					c1.9-1.8,4.4-2.9,7-3.2l8.4-1C1243.3,895.1,1243.8,895,1244.3,895 M1428.8,1034.6L1428.8,1034.6 M1428.8,1034.6
					C1428.8,1034.6,1428.7,1034.6,1428.8,1034.6C1428.7,1034.6,1428.8,1034.6,1428.8,1034.6 M1428.7,1034.6
					C1428.7,1034.6,1428.7,1034.6,1428.7,1034.6C1428.7,1034.6,1428.7,1034.6,1428.7,1034.6 M1244.3,874c-1.3,0-2.6,0.1-3.9,0.2
					l-8.4,1c-7,0.8-13.5,3.8-18.7,8.6c0,0-0.1,0.1-0.1,0.1l-8.8,8.1c-4.5,4.2-8.2,9.5-10.5,15.2c-0.8,2.1-1.7,4.2-2.5,6.3l-0.1,0.2
					c-46.7,115.7-83.5,231.4-116,363.8c-2.1,8.5-4.2,17.1-6.4,26c-124.8-88.4-187.6-161.1-236.5-226.7c-0.5-0.7-1-1.3-1.5-2
					c-0.5-0.7-1-1.2-1.4-1.7c-0.1-0.1-0.2-0.2-0.3-0.3c-8.9-10.5-21.1-16.3-34.5-16.3c-1.1,0-2.3,0-3.5,0.1c-2.9,0.2-5.9,0.8-9,1.7
					l-2.3,0.7c-0.3,0.1-0.6,0.2-0.8,0.3c-0.4,0.1-0.8,0.3-1.1,0.4c-2.7,1.1-5.4,2.5-7.8,4.1l-0.3,0.2c0,0,0,0-0.1,0l-10.3,6.6
					c0,0-0.1,0.1-0.1,0.1l-0.5,0.3c-0.6,0.4-1.1,0.7-1.6,1.1c-15.6,11.6-13.8,30.8-13.2,37.2c0,0.3,0.1,0.6,0.1,1
					c0.1,0.7,0.1,1.3,0.2,1.9c1,12.9,9.5,73.9,12.6,92.3c2,12.8,5.3,17.9,11.6,26.5c68.9,96.8,160.8,183,273.2,256.3
					c-1.2,42,1.9,72.6,9.8,95.7c1.7,4.9,4.6,9.4,8.4,13l7.8,7.4c1.1,1,2.3,1.9,3.6,2.7c4.3,2.6,58.7,33.5,85.2,43.6
					c0.5,0.2,0.9,0.4,1.3,0.5c0.1,0.1,0.3,0.1,0.4,0.2c0.4,0.1,0.8,0.3,1.1,0.4c3.5,1.1,6.7,1.6,10.1,1.6c0.7,0,1.5,0,2.2-0.1
					c0.1,0,0.3,0,0.4,0l7.3-0.6c4.7-0.4,9.2-2.1,13.1-4.8c0.7-0.5,1.3-1,2-1.6c0.1-0.1,0.1-0.1,0.2-0.2c0.5-0.4,1.1-1,1.8-1.7
					c0.9-0.9,1.7-1.9,2.4-3c0.3-0.5,0.7-1,1-1.5c0,0,0.1-0.1,0.1-0.1c0,0,0-0.1,0.1-0.1c0.1-0.1,0.1-0.2,0.2-0.3l0.2-0.4l7.4-12.7
					c3.1-5.2,5.4-10.8,6.9-16.7c1.3-5.1,4-15.1,7.3-26.1c124.5,52.7,241.6,82.2,366.6,92.2c1.4,0.1,2.9,0.2,4.3,0.2
					c4.2,0,8.5-0.5,12.6-1.5l2.8-0.7c6.1-1.5,12-3.9,17.3-7.3c13.2-8.3,45.5-28.8,61.5-40.3c1-0.7,2.3-1.6,3.6-2.7l0.2-0.2l0.2-0.2
					c0,0,0,0,0.1,0l0.5-0.4l0.2-0.1l0.1-0.1l0.3-0.2l0,0l0,0l0,0l0.2-0.1c0.4-0.3,0.8-0.7,1.2-1c0.6-0.5,1.1-0.9,1.6-1.4
					c0.2-0.2,0.5-0.5,0.7-0.7l0.5-0.4c0.6-0.5,1.3-1.1,2-1.9c2.8-2.7,4.9-5.5,6.6-8.8c2-3.9,3.4-8.4,4.1-14c0,0,0-0.1,0-0.1l1.2-8.8
					l0.8-5.7c0.1-0.5,0.1-1,0.2-1.5c0.7-10.9-3.2-21-11.1-28.4c-0.6-0.5-1-0.9-1.3-1.1c-1.4-1.2-2.8-2.2-4.2-3.2
					c-0.3-0.2-0.6-0.4-1-0.6c-5-3-10.8-5-16.9-5.9c-0.2,0-0.4-0.1-0.6-0.1c-69.6-7.6-130.3-18.9-191-35.8
					c-64.9-18-131.6-43-203.3-76c0.7-1.5,1.4-3,2-4.6l0.1-0.3l0.1-0.3l2.6-5.8l0.4-0.8l0.4-1l0.2-0.5l2.7-6.1l0.4-1l0.5-1.1l2.5-5.6
					l0.8-1.7l0.4-0.9l2.4-5.4l0.5-1.2l0.7-1.5l1.4-3.3l0.9-2.1l0.7-1.6l0.5-1.2l1-2.2l1.3-3l1-2.2l0.3-0.7l2.2-5.1l0.8-1.9l0.5-1.2
					l1.3-3l0.7-1.7l1.5-3.5l0.4-0.9l1.5-3.5l1.5-3.4l0.1-0.2l0.6-1.4l1.4-3.1l0.4-1l1-2.4l1.9-4.5l1.6-3.7l1.8-4.2l1.6-3.7l1.9-4.4
					l1.1-2.5l0.4-0.9l1.7-3.8l0.2-0.6l1.6-3.6l0.6-1.5l1.1-2.6l0.5-1.3l1.1-2.6l0.7-1.6l0.9-2.2l0.7-1.6l1.2-2.7l0.7-1.5l0.8-1.8
					l0.6-1.3l1.5-3.4l1.2-2.7l2.4-5.5l0.9-2.1l2.6-6l0.6-1.5l3-7.1l0.1-0.2l0.1-0.1c12.4-28.9,24.3-57,34.9-81.7
					c25.7-60.3,46-108,57.4-132.5c0.2-0.3,0.3-0.6,0.4-0.9c0.9-1.9,1.7-3.6,2.5-5.1c0.4-0.8,0.7-1.6,1-2.4l4.4-10.4l2.7-6.4
					c0.5-1.1,0.9-2.3,1.2-3.6c0-0.1,0-0.1,0.1-0.2c5.5-17.8-4-29.4-15.2-34.6c-0.1-0.1-0.2-0.1-0.3-0.2c0,0-0.1,0-0.1-0.1l-0.6-0.4
					l-0.2-0.1l-0.2-0.1l-0.2-0.1l-0.6-0.3l-0.1-0.1l-0.2-0.1l-0.2-0.1l-0.4-0.2l-0.6-0.3l-0.1-0.1l-0.2-0.1l-0.2-0.1l-0.9-0.5
					l-0.4-0.2l-0.3-0.2l-0.8-0.4l-0.5-0.3l-0.5-0.3l-0.7-0.4c0,0-0.1,0-0.1,0l-0.6-0.4l-0.5-0.3l-3.2-1.8c-3.4-1.9-7.2-4-11.5-6.4
					c0,0-0.1,0-0.1-0.1c0,0,0,0-0.1,0l-4.7-2.6l-0.9-0.5l-0.2-0.1l-0.3-0.1c-19.9-11-46.7-25.9-72.4-40.2l-0.5-0.3l-2.7-1.5
					l-21.2-11.8l-0.3-0.2l-0.4-0.2c-25.9-14.4-47.8-26.6-56.1-31.2c0,0-0.1,0-0.1-0.1C1255.5,875.4,1249.9,874,1244.3,874
					L1244.3,874z"/>
			</g>
			<path d="M1192,110.1c4.1,0,6.6,1.5,8.9,3.2l16.4,21.2c5.5,9.9,0.5,15.1,0,32.5c-1,69.1,26.2,207.8,73.2,366.3l60,198.1h0
				c-177.8,71-458,181.7-575.9,292.2c-8.5,8.2-15.9,9.7-20.1,9.7c-2.4,0-3.8-0.5-3.8-0.5l-18.5-2.3c-6.8-0.4-10.6-3.8-13.1-10.3
				l-3.2-13.1c0,0,0,0,0,0c-33.8-169.7-46-370.7,69.7-555.7c120.4-193,276.6-283.9,382.6-333.5l12.4-5.1l1.5-0.7
				C1186.2,110.6,1189.4,110.1,1192,110.1 M772.6,797.8c63.6-57.1,170.4-143.9,308.8-206.4c-19.4-82.1-39.5-196.3-31.2-323.4
				c-68.5,48-165.2,133.6-212.8,214.8C791.9,559.3,768.2,675.3,772.6,797.8 M1192,89c-5,0-10.4,1-16.5,3c-0.7,0.2-1.4,0.5-2.1,0.8
				l-1.2,0.5l-12,4.9c-0.3,0.1-0.6,0.3-1,0.4c-71.9,33.7-134.1,71.5-190,115.6c-79.1,62.3-146.9,138.3-201.6,225.9
				c-28.5,45.6-51,94.8-66.7,146c-14.2,46.3-23.4,95.8-27.3,147.2c-6.3,83.4,0.4,171.3,21.3,276.6c0.1,0.7,0.2,1.4,0.4,2.1l3.2,13.1
				c0.2,0.9,0.5,1.7,0.8,2.6c7.3,18.8,22,23,30.6,23.7l16.7,2.1c2,0.4,4.6,0.8,7.7,0.8c8.4,0,21.3-2.7,34.6-15.5
				c26-24.3,62.5-50.5,108.5-77.9c40.4-24,89.3-49.7,145.6-76.4c104.2-49.3,215.6-93.8,305.2-129.6l9.8-3.9c3.6-1.4,6.8-3.8,9.2-7.1
				c4-5.4,5.2-12.3,3.2-18.7l-60-198c-45.5-153.6-73.2-291.5-72.3-359.7c0.1-4.8,0.8-8.5,1.3-12c1.4-8.2,3-18.4-3.9-31.1
				c-0.5-1-1.1-1.9-1.8-2.7l-16.4-21.2c-1.1-1.4-2.4-2.7-3.8-3.8C1209.5,93.3,1202.6,89,1192,89L1192,89z M793.3,751.8
				c1-43.2,5.6-85.5,13.6-124.5c10.7-52,27.5-98.3,48.5-133.7c0,0,0-0.1,0.1-0.1c36.7-62.6,107.6-132,171.7-182.2
				c-1.5,84.6,8.3,172.9,29.7,268.2C967.3,621.8,878.9,679.6,793.3,751.8L793.3,751.8z"/>
			<g>
				<g>
					<path d="M1031.7,423.4c4.7,50.1,13,101.6,25.2,156c-50.5,23.9-100.8,52.7-150.2,86.2C930.9,577.1,973.3,494.8,1031.7,423.4
						 M1049.2,371.8C960.7,464.9,898.3,583.1,874,714.7c56.9-42.2,126.8-86.9,207.4-123.3C1067.4,532.4,1053.1,456.8,1049.2,371.8
						L1049.2,371.8z"/>
				</g>
			</g>
			<g>
				<path d="M2381.3,912.6c-4.6-140.1-50.4-225.8-102.7-275.5c-2.5-2.8-6-6-10.4-9.5c0,0,0,0,0,0c-1-0.8-2.1-1.6-3.2-2.4
					c-0.2-0.2-0.4-0.3-0.7-0.5c-0.5-0.3-0.9-0.7-1.4-1c-0.3-0.2-0.6-0.4-0.9-0.6c-0.5-0.3-0.9-0.6-1.4-1c-0.3-0.2-0.7-0.4-1-0.7
					c-0.5-0.3-0.9-0.6-1.4-1c-0.4-0.2-0.7-0.5-1.1-0.7c-0.8-0.5-1.7-1.1-2.6-1.7c-0.4-0.3-0.9-0.5-1.3-0.8c-0.5-0.3-1-0.6-1.4-0.9
					c-0.5-0.3-0.9-0.6-1.4-0.8c-0.5-0.3-1-0.6-1.5-0.9c-0.5-0.3-1-0.6-1.5-0.9c-0.5-0.3-1-0.5-1.4-0.8c-0.6-0.3-1.3-0.7-1.9-1
					c-0.5-0.3-1.1-0.6-1.6-0.9c-0.8-0.5-1.7-0.9-2.6-1.3c-0.4-0.2-0.9-0.5-1.3-0.7c-0.7-0.3-1.3-0.7-2-1c-0.5-0.2-1-0.5-1.5-0.7
					c-0.7-0.3-1.4-0.7-2.1-1c-0.5-0.2-0.9-0.4-1.4-0.7c-0.8-0.4-1.7-0.8-2.5-1.1c-0.4-0.2-0.7-0.3-1.1-0.5c-1.2-0.5-2.4-1-3.6-1.5
					c-0.4-0.2-0.8-0.3-1.2-0.5c-0.9-0.4-1.7-0.7-2.6-1.1c-0.5-0.2-1-0.4-1.4-0.6c-0.8-0.3-1.7-0.7-2.5-1c-0.5-0.2-1-0.4-1.4-0.5
					c-1-0.4-1.9-0.7-2.9-1.1c-0.4-0.1-0.7-0.3-1.1-0.4c-1.3-0.5-2.7-0.9-4.1-1.4c-0.3-0.1-0.6-0.2-1-0.3c-1.1-0.4-2.2-0.7-3.3-1
					c-0.5-0.2-1-0.3-1.5-0.4c-1-0.3-2-0.6-2.9-0.9c-0.5-0.1-1-0.3-1.5-0.4c-1.1-0.3-2.1-0.6-3.2-0.9c-0.4-0.1-0.9-0.2-1.3-0.3
					c-1.5-0.4-3-0.8-4.5-1.1c-0.2,0-0.4-0.1-0.6-0.1c-1.3-0.3-2.7-0.6-4-0.9c-0.5-0.1-1-0.2-1.5-0.3c-1.1-0.2-2.2-0.5-3.3-0.7
					c-0.6-0.1-1.1-0.2-1.7-0.3c-1.1-0.2-2.2-0.4-3.4-0.6c-0.5-0.1-1-0.2-1.5-0.3c-1.6-0.3-3.2-0.5-4.9-0.8
					c-11.1-1.7-23-2.7-35.4-2.7c0,0,0,0,0,0c-1.7,0-3.4,0-5.1,0.1c-0.4,0-0.8,0-1.2,0c-1.4,0-2.8,0.1-4.2,0.1c-0.2,0-0.5,0-0.7,0
					c-4.5,0.2-9,0.9-13.4,1.9c-36.2,8.8-157.9,50.3-280.7,228.3c-81.2,117.8-116.5,219.7-133,349.1c-21.9,172-3.4,237,47.9,308.7
					c-2.6-2.8-5.1-5.7-7.6-8.6c2.5,3.2,5,6.3,7.6,9.3c0.2,0.3,0.5,0.5,0.7,0.8c1.1,1.2,2.1,2.4,3.2,3.6c1.3,1.4,2.7,2.9,4,4.3
					c0.1,0.1,0.1,0.1,0.2,0.2c0.4,0.4,0.8,0.8,1.2,1.2c0.7,0.7,1.4,1.4,2.1,2.1c0.5,0.5,1.1,1,1.6,1.5c0.6,0.6,1.2,1.1,1.8,1.7
					c0.6,0.6,1.2,1.1,1.8,1.6c0.5,0.5,1.1,1,1.6,1.4c0.7,0.6,1.3,1.2,2,1.7c0.5,0.4,1,0.8,1.5,1.2c0.7,0.6,1.4,1.2,2.2,1.8
					c0.5,0.4,0.9,0.8,1.4,1.1c0.8,0.6,1.5,1.2,2.3,1.8c0.4,0.3,0.8,0.7,1.3,1c0.8,0.6,1.6,1.2,2.5,1.8c0.4,0.3,0.8,0.6,1.2,0.9
					c0.9,0.6,1.8,1.2,2.6,1.9c0.4,0.2,0.7,0.5,1.1,0.7c0.9,0.6,1.8,1.2,2.8,1.8c0.3,0.2,0.7,0.4,1,0.7c1,0.6,2,1.2,2.9,1.8
					c0.3,0.2,0.6,0.4,0.9,0.5c1,0.6,2.1,1.2,3.1,1.8c0.3,0.2,0.5,0.3,0.8,0.5c1.1,0.6,2.2,1.2,3.2,1.8c0.2,0.1,0.5,0.3,0.7,0.4
					c1.1,0.6,2.3,1.2,3.4,1.8c0.2,0.1,0.4,0.2,0.6,0.3c1.2,0.6,2.4,1.2,3.5,1.8c0.2,0.1,0.3,0.2,0.5,0.2c1.2,0.6,2.5,1.2,3.7,1.7
					c0.1,0.1,0.3,0.1,0.4,0.2c1.3,0.6,2.5,1.1,3.8,1.7c0.1,0,0.2,0.1,0.3,0.1c1.3,0.5,2.6,1.1,3.9,1.6c0.1,0,0.2,0.1,0.3,0.1
					c1.3,0.5,2.7,1,4.1,1.5c0.1,0,0.1,0,0.2,0.1c1.4,0.5,2.8,1,4.2,1.5c0,0,0.1,0,0.1,0.1c1.4,0.5,2.8,0.9,4.3,1.4c0,0,0.1,0,0.1,0
					c1.5,0.5,2.9,0.9,4.4,1.3c0,0,0,0,0,0c14.8,4.2,30.4,6.7,46.8,7.5c0,0,0,0,0,0c1.6,0.1,3.2,0.1,4.9,0.2c0.5,0,1,0,1.6,0
					c98.8,0,202.8-55.7,269.6-117.3C2255.7,1330.8,2383.9,1167.8,2381.3,912.6z M2347.1,994.6c0,0.2,0,0.4,0,0.5
					c-0.5,14.5-1.7,29.5-3.7,44.7c-0.6,4.1-1.2,8.2-1.8,12.4c-9.8,60.2-32.7,125.2-73.4,190.2c-20.4,32.5-41.1,60.4-61.8,84.3
					c-4.4,5.1-8.9,10-13.3,14.7c-1.7,1.8-3.5,3.7-5.2,5.5c-74.2,76.8-147.2,103.3-202.3,103.3c-22.9,0-42.7-4.6-58.2-12
					c-1.4-0.7-2.8-1.4-4.1-2.1c-5.4-2.9-10.1-6.2-14.3-9.7c-2.1-1.8-4.3-3.9-6.4-6.1c-1.1-1.1-2.1-2.2-3.2-3.4
					c-1-1.2-2.1-2.4-3.1-3.6c-4.7-5.8-9.1-12.3-13.3-19.6c0-0.1-0.1-0.3-0.2-0.4c-0.1-0.3-0.2-0.4-0.3-0.6c-0.1-0.3-0.3-0.4-0.3-0.7
					c-0.1-0.1-0.1-0.3-0.2-0.4c-0.1-0.1-0.1-0.1-0.1-0.2c-0.1-0.1-0.1-0.2-0.2-0.4c0,0,0-0.1-0.1-0.1c-0.1,0-0.1-0.1-0.1-0.3
					c0,0,0-0.1-0.1-0.1c0,0-0.1-0.1-0.1-0.1c0-0.1-0.1-0.1-0.1-0.2c-0.1-0.1-0.2-0.4-0.3-0.6c0,0-0.1-0.1-0.1-0.2
					c-0.1-0.1-0.1-0.2-0.1-0.3c0,0,0-0.1,0-0.1c-0.1-0.1-0.1-0.3-0.2-0.4c-0.1-0.1-0.2-0.3-0.2-0.5c0,0,0-0.1-0.1-0.1
					c0-0.1,0-0.1,0-0.1c0,0,0,0,0,0c-0.1-0.1-0.3-0.4-0.4-0.6c0-0.1-0.1-0.1-0.1-0.2c0-0.1-0.1-0.2-0.1-0.3
					c-0.1-0.1-0.1-0.1-0.1-0.2c-0.1-0.1-0.1-0.2-0.1-0.2c-0.1-0.2-0.2-0.4-0.3-0.5c0-0.1-0.1-0.1-0.1-0.2c-0.1-0.1-0.1-0.3-0.2-0.6
					c0,0,0,0,0-0.1c0,0-0.1-0.1-0.1-0.1c-0.1-0.3-0.1-0.4-0.2-0.6c0,0,0-0.1-0.1-0.1c-0.1-0.1-0.1-0.2-0.2-0.3
					c0-0.1-0.1-0.2-0.2-0.3c0-0.1-0.1-0.2-0.1-0.2c-0.1-0.1-0.1-0.3-0.2-0.4c0-0.1-0.1-0.1-0.1-0.2c-0.1-0.1-0.1-0.3-0.2-0.6
					c0-0.1-0.1-0.1-0.1-0.2c0-0.1-0.1-0.2-0.1-0.4c0,0,0,0-0.1-0.1c-0.1-0.1-0.2-0.1-0.2-0.2c-0.1-0.1-0.1-0.3-0.1-0.4
					c-0.1-0.1-0.1-0.2-0.2-0.4c0-0.1-0.1-0.2-0.1-0.4c0,0-0.1-0.1-0.1-0.2c-0.1-0.1-0.1-0.3-0.2-0.4c-0.1-0.1-0.1-0.3-0.1-0.3
					c0-0.1-0.1-0.2-0.1-0.2c-0.1-0.2-0.1-0.4-0.2-0.5c0-0.1,0-0.1-0.1-0.1c0-0.1,0-0.1-0.1-0.1c-0.1-0.3-0.1-0.4-0.2-0.6
					c0,0,0-0.1,0-0.1c-0.1-0.1-0.1-0.3-0.2-0.5c0-0.1-0.1-0.3-0.1-0.4c0,0,0-0.1,0-0.1c-0.1-0.2-0.2-0.4-0.2-0.5
					c0-0.2-0.1-0.3-0.1-0.4c0-0.1-0.1-0.1-0.1-0.2c0-0.1-0.1-0.2-0.1-0.3c0-0.1,0-0.2,0-0.3c-0.1,0-0.1-0.1-0.3-0.3
					c0-0.2-0.1-0.4-0.2-0.6c0,0,0,0,0-0.1c0-0.1,0-0.1,0-0.2c0-0.1-0.1-0.2-0.1-0.3c-0.1-0.1-0.1-0.3-0.2-0.4c0-0.1,0-0.1,0-0.2
					c0-0.1,0-0.3-0.1-0.4c0-0.1-0.1-0.1-0.1-0.2c-0.1-0.2-0.1-0.3-0.2-0.5c-0.1-0.1-0.1-0.1-0.1-0.3c-0.1-0.1-0.1-0.3-0.1-0.4
					c0-0.1-0.1-0.2-0.1-0.3c0-0.1-0.1-0.2-0.1-0.3c0,0-0.1-0.1-0.1-0.2c-0.1-0.1-0.1-0.3-0.2-0.5c-0.1-0.1-0.1-0.2-0.1-0.3
					c0,0,0-0.1,0-0.1c0,0,0-0.1-0.1-0.1c-0.1-0.1-0.1-0.2-0.2-0.5c0-0.1-0.1-0.1-0.1-0.2c0-0.1-0.1-0.2-0.1-0.2
					c-0.1-0.1-0.1-0.3-0.2-0.4c0-0.1,0-0.2-0.1-0.2c0-0.1-0.1-0.2-0.1-0.3c0,0,0-0.1,0-0.1c0-0.1-0.1-0.2-0.1-0.3
					c-0.1-0.3-0.2-0.4-0.3-0.6c0-0.1-0.1-0.2-0.1-0.4c0-0.1,0-0.1-0.1-0.2c0-0.1,0-0.2-0.1-0.2c-0.1-0.1-0.1-0.1-0.1-0.2
					c0,0,0,0,0-0.1c-0.1-0.1-0.1-0.4-0.1-0.6c-0.1-0.1-0.1-0.4-0.2-0.6c0-0.1-0.1-0.1-0.1-0.2c0-0.1-0.1-0.2-0.1-0.3
					c0-0.1-0.1-0.3-0.1-0.4c0-0.1-0.1-0.2-0.1-0.4c0-0.1-0.1-0.2-0.2-0.4v-0.1c-0.1-0.1-0.1-0.3-0.2-0.5c0-0.1,0-0.1,0-0.2
					c0-0.1-0.1-0.1-0.1-0.2c0-0.1,0-0.1-0.1-0.2c0-0.1,0-0.1-0.1-0.2c0-0.1-0.1-0.2-0.1-0.3c0-0.1,0-0.2,0-0.2
					c-0.1-0.3-0.1-0.4-0.2-0.7c0,0,0-0.1,0-0.1c-0.1-0.2-0.1-0.4-0.2-0.6c0,0,0,0,0,0c-0.1,0-0.1-0.1-0.1-0.2c0,0,0,0,0,0
					c-0.1-0.1-0.1-0.3-0.1-0.4c0-0.1,0-0.1,0-0.2c0-0.1,0-0.1,0-0.1c-0.2-0.3-0.2-0.4-0.4-0.9c0-0.1,0-0.2-0.1-0.3
					c0-0.1-0.1-0.2-0.1-0.2c0-0.1,0-0.1-0.1-0.2c0-0.1,0-0.1-0.1-0.1c0,0,0,0,0,0c0-0.1-0.1-0.3-0.1-0.4s-0.1-0.2-0.1-0.3
					c0-0.2-0.1-0.3-0.1-0.4c0-0.1-0.1-0.2-0.1-0.3c0,0,0,0,0-0.1c-0.1-0.1-0.1-0.3-0.2-0.5c0-0.1,0-0.1-0.1-0.2
					c0-0.1-0.1-0.1-0.1-0.2c0-0.1-0.1-0.2-0.1-0.4c0-0.1-0.1-0.3-0.1-0.4c0,0,0,0,0,0c-0.1-0.1-0.1-0.4-0.2-0.7
					c-0.1-0.1-0.1-0.4-0.2-0.6c0,0,0,0,0-0.1c-0.1-0.2-0.1-0.4-0.2-0.6c0-0.1,0-0.1-0.1-0.2c-0.1-0.1-0.1-0.3-0.1-0.4
					c0-0.1,0-0.1-0.1-0.2c0-0.1,0-0.2-0.1-0.3c0,0,0-0.1,0-0.1c-0.1-0.2-0.1-0.4-0.1-0.6c0-0.1-0.1-0.1-0.1-0.2
					c0-0.1-0.1-0.2-0.1-0.4c0,0,0-0.1-0.1-0.2c0,0,0-0.1,0-0.1c-0.1-0.3-0.1-0.4-0.1-0.6c0-0.1-0.1-0.1-0.1-0.2
					c0-0.1-0.1-0.3-0.1-0.3c-0.1-0.1-0.1-0.3-0.2-0.4c0-0.2-0.1-0.3-0.1-0.5c0-0.1-0.1-0.2-0.1-0.4c0,0,0-0.1-0.1-0.1
					c0-0.1-0.1-0.4-0.1-0.6c-0.1-0.2-0.1-0.4-0.2-0.6c0,0,0-0.1,0-0.1c0,0,0,0,0-0.1c0-0.1-0.1-0.2-0.1-0.2c0-0.1,0-0.2-0.1-0.2
					c0-0.1-0.1-0.3-0.1-0.5c0-0.1-0.1-0.4-0.1-0.6c0-0.1,0-0.1,0-0.2c0-0.1,0-0.1,0-0.2c0,0,0-0.1,0-0.1c0-0.1-0.1-0.2-0.1-0.3
					c0-0.1-0.1-0.3-0.1-0.4c0-0.1,0-0.3,0-0.4c-0.1,0-0.1-0.1-0.1-0.1c0-0.1,0-0.2-0.1-0.2c0-0.1-0.1-0.3-0.1-0.5
					c0-0.3-0.1-0.4-0.1-0.7c0-0.1-0.1-0.3-0.1-0.3c0-0.1,0-0.2-0.1-0.3c0-0.2,0-0.3-0.1-0.4c-0.1-0.1-0.1-0.4-0.1-0.6
					c0,0,0-0.1-0.1-0.3c0-0.1,0-0.3-0.1-0.4c0-0.1,0-0.1-0.1-0.2c-0.1-0.2-0.1-0.3-0.1-0.5c0-0.1,0-0.1,0-0.2c0-0.1-0.1-0.1-0.1-0.2
					c0-0.1,0-0.1,0-0.2c-0.1-0.3-0.1-0.4-0.1-0.7c-0.1-0.1-0.1-0.3-0.2-0.4c0,0,0,0,0,0c0-0.1-0.1-0.3-0.1-0.4c0-0.1,0-0.1-0.1-0.2
					c0-0.1,0-0.3-0.1-0.3c0-0.1-0.1-0.4-0.1-0.6c0-0.3-0.1-0.4-0.1-0.6c0,0,0-0.1,0-0.1c0-0.2-0.1-0.3-0.1-0.5
					c0-0.1-0.1-0.4-0.1-0.6c-0.1-0.1-0.1-0.3-0.1-0.4c0-0.1,0-0.1,0-0.2c0-0.1-0.1-0.2-0.1-0.4c0-0.1,0-0.3-0.1-0.4
					c0-0.2,0-0.3-0.1-0.5c0-0.1-0.1-0.2-0.1-0.3c0-0.1,0-0.2,0-0.3c0,0,0-0.1,0-0.1c0-0.3-0.1-0.4-0.1-0.7c0-0.1,0-0.3-0.1-0.4
					c0-0.1,0-0.2,0-0.3c0-0.1,0-0.2,0-0.3c-0.1-0.1-0.1-0.3-0.1-0.6c0-0.1,0-0.2,0-0.3c0-0.1-0.1-0.3-0.1-0.5c0,0,0-0.1-0.1-0.3
					c0-0.3-0.1-0.4-0.1-0.7c0-0.1,0-0.3-0.1-0.4c0-0.1,0-0.3,0-0.4c0,0,0-0.1,0-0.1c0-0.2-0.1-0.3-0.1-0.5c0-0.3-0.1-0.4-0.1-0.7
					c-0.1-0.1-0.1-0.3-0.1-0.4c0-0.3-0.1-0.6-0.1-0.7c0-0.1,0-0.3,0-0.4c0,0,0-0.1,0-0.1c-0.1-0.2-0.1-0.4-0.1-0.6
					c0-0.1-0.1-0.3-0.1-0.4c0-0.1-0.1-0.4-0.2-0.6c0-0.3-0.1-0.4-0.1-0.7c0-0.1-0.1-0.3-0.1-0.4c0,0,0-0.1-0.1-0.3
					c0-0.1,0-0.4-0.1-0.6c0-0.1,0-0.1,0-0.1c0-0.1-0.1-0.3-0.1-0.4c0-0.1-0.1-0.3-0.1-0.4c-0.1-0.3-0.1-0.6-0.1-0.7
					c-1-6.3-1.8-12.8-2.4-19.5c-0.2-2-0.4-4-0.5-6.1c-0.4-5.2-0.7-10.4-0.8-15.8c-0.1-1.8-0.1-3.7-0.1-5.6c0-1.9,0-3.7-0.1-5.6
					c-0.1-41.7,6.3-90.1,22.1-144.6c0.3-1,0.6-2,0.9-3c0.2-0.7,0.5-1.5,0.7-2.2c0.2-0.6,0.4-1.3,0.6-2c0.1-0.3,0.2-0.7,0.3-1
					c0.2-0.6,0.3-1.2,0.5-1.7c0.3-1,0.7-2,1.1-3.1c0.3-0.9,0.5-1.8,0.8-2.7c0.2-0.6,0.4-1.3,0.6-1.9c0.7-2.5,1.6-4.9,2.4-7.2
					c0.4-1.5,0.9-2.8,1.4-4.3c0.7-2,1.4-4,2.1-6c0.8-2.6,1.8-5.1,2.7-7.6c1.3-3.4,2.6-7,3.8-10.4c0.8-1.9,1.5-3.8,2.2-5.7
					c0.3-0.7,0.5-1.4,0.8-2.1c0.3-0.7,0.5-1.4,0.8-2c0.6-1.5,1.2-3,1.8-4.6c0.6-1.4,1.1-2.8,1.8-4.3c0.3-0.8,0.7-1.7,1-2.5
					c0.4-1,0.9-2.1,1.3-3.1c0.2-0.5,0.4-1,0.6-1.5c0.5-1.2,0.9-2.3,1.4-3.4c0.2-0.4,0.4-0.9,0.6-1.4c0.1-0.3,0.3-0.7,0.4-1
					c0.4-0.8,0.7-1.7,1.1-2.4c0.6-1.6,1.3-3,1.8-4.4c0.9-1.7,1.6-3.4,2.3-5c0.4-1,0.8-2,1.4-2.9c0.4-0.8,0.7-1.7,1.1-2.5
					c0.1-0.3,0.3-0.6,0.4-0.9c0.1-0.3,0.3-0.7,0.4-1c0.4-0.8,0.7-1.6,1.1-2.4c0.4-0.9,0.9-1.8,1.2-2.7c0.6-1.3,1.2-2.6,1.9-4
					c0.3-0.6,0.6-1.3,0.9-1.9c0.2-0.4,0.4-0.8,0.5-1.1c0.4-0.8,0.7-1.6,1.1-2.3c0.2-0.3,0.3-0.5,0.4-0.8c0-0.1,0.1-0.2,0.1-0.3
					c0.1-0.1,0.2-0.3,0.2-0.4c0.1-0.3,0.3-0.5,0.4-0.8c0.1-0.2,0.2-0.5,0.4-0.7c0.2-0.4,0.5-0.9,0.7-1.3c0.4-0.7,0.8-1.4,1.2-2.1
					c0.4-0.7,0.6-1.3,1-1.9c0.5-0.9,0.9-1.9,1.4-2.8c0.5-0.9,1-1.8,1.4-2.6c0.1-0.2,0.2-0.4,0.4-0.7c0.4-0.7,0.7-1.4,1.1-2.1
					c0.1-0.2,0.3-0.5,0.4-0.7c0.4-0.6,0.8-1.2,1.1-1.9c0.3-0.6,0.6-1.1,0.9-1.6c0.3-0.6,0.6-1.2,1-1.8c0.1-0.2,0.3-0.5,0.4-0.7
					c0.2-0.3,0.3-0.6,0.5-0.9c0.3-0.6,0.6-1.2,0.9-1.8c0.1-0.1,0.2-0.3,0.2-0.4c0.2-0.3,0.3-0.6,0.5-1c0.1-0.1,0.1-0.2,0.2-0.3
					c0.4-0.7,0.8-1.3,1.2-2c0.2-0.4,0.4-0.8,0.6-1.2c0.2-0.4,0.4-0.8,0.6-1.2c0.1-0.2,0.3-0.4,0.4-0.6c0.2-0.3,0.4-0.7,0.6-1
					c0.5-0.8,1-1.6,1.4-2.4c0.4-0.8,0.8-1.5,1.2-2.2c0.3-0.4,0.6-0.9,0.8-1.4c0-0.1,0.1-0.2,0.1-0.3c0-0.1,0.1-0.1,0.1-0.2
					c0.4-0.6,0.7-1.2,1.1-1.8c0.3-0.5,0.6-1.1,0.9-1.6c0-0.1,0.1-0.1,0.1-0.2c0.1-0.1,0.1-0.2,0.2-0.3c0.2-0.3,0.3-0.5,0.5-0.8
					c0.1-0.1,0.2-0.3,0.3-0.4c0.4-0.8,0.8-1.4,1.2-2.1c0.4-0.6,0.8-1.3,1.2-1.9c0.4-0.6,0.7-1.1,1-1.6c0.2-0.4,0.5-0.9,0.8-1.3
					c0.1-0.2,0.2-0.4,0.3-0.6c0.4-0.6,0.7-1.2,1.1-1.8c0.2-0.3,0.4-0.7,0.6-0.9c0,0,0,0,0-0.1c0.1-0.1,0.1-0.3,0.2-0.4
					c0.2-0.3,0.3-0.5,0.5-0.8c0.1-0.2,0.3-0.4,0.4-0.7c0.4-0.6,0.8-1.2,1.1-1.8c0.4-0.4,0.6-0.8,0.9-1.3c0.1-0.1,0.1-0.3,0.2-0.4
					c0.3-0.5,0.6-0.9,0.9-1.4c0.4-0.5,0.7-1,1-1.5c0.1-0.1,0.1-0.2,0.2-0.2c0.1-0.1,0.1-0.2,0.2-0.3c0.2-0.3,0.4-0.7,0.6-1
					c0.1-0.1,0.1-0.2,0.2-0.2c0-0.1,0.1-0.1,0.1-0.2c0.2-0.3,0.3-0.6,0.5-0.9c0.1-0.2,0.2-0.3,0.3-0.5c0.2-0.3,0.3-0.5,0.5-0.7
					c0.1-0.1,0.1-0.2,0.2-0.3c0.2-0.2,0.3-0.4,0.4-0.6c0.1-0.2,0.2-0.3,0.3-0.5c0.1-0.2,0.2-0.4,0.4-0.5c0.3-0.5,0.6-1,0.9-1.5
					c0,0,0.1-0.1,0.1-0.1c0,0,0.1-0.1,0.1-0.1c0.3-0.4,0.5-0.8,0.8-1.1c0.4-0.5,0.8-1.1,1.1-1.6c0.4-0.4,0.6-0.9,0.9-1.4
					c0.4-0.5,0.6-1,1-1.5c0.3-0.4,0.6-0.8,0.9-1.2c0.2-0.4,0.5-0.9,0.8-1.3c0,0,0.1-0.1,0.1-0.1c0-0.1,0.1-0.1,0.1-0.2
					c0.2-0.2,0.3-0.5,0.5-0.7c0.1-0.1,0.2-0.3,0.3-0.4c0.3-0.5,0.7-1,1.1-1.6c0.1-0.1,0.2-0.3,0.3-0.4c0.2-0.3,0.4-0.6,0.6-0.9
					c0.3-0.4,0.5-0.8,0.8-1.1c0,0,0-0.1,0.1-0.1c0.2-0.3,0.4-0.5,0.5-0.8c0.2-0.3,0.4-0.5,0.6-0.8c0.2-0.2,0.3-0.4,0.5-0.7
					c0.2-0.2,0.3-0.5,0.5-0.7c0.1-0.1,0.2-0.3,0.3-0.5c0.1-0.2,0.2-0.3,0.3-0.4c0.3-0.5,0.6-0.9,0.9-1.3c0,0,0-0.1,0.1-0.1
					c0-0.1,0.1-0.1,0.1-0.2c0.3-0.4,0.5-0.7,0.8-1.1c0-0.1,0.1-0.1,0.1-0.2c0,0,0-0.1,0.1-0.1c0.2-0.3,0.5-0.7,0.7-1
					c0.4-0.4,0.7-0.9,1-1.3c0.2-0.2,0.3-0.4,0.5-0.6c0.1-0.1,0.1-0.1,0.2-0.2c0.1-0.2,0.3-0.4,0.4-0.6c0.2-0.4,0.5-0.7,0.7-1.1
					c0.2-0.3,0.5-0.6,0.7-0.9c0-0.1,0.1-0.1,0.1-0.2c0-0.1,0.1-0.1,0.1-0.2c0.3-0.4,0.6-0.8,0.9-1.2c0.3-0.3,0.6-0.6,0.8-1
					c0.3-0.4,0.6-0.9,1-1.4c0.1-0.2,0.2-0.3,0.3-0.5c0.1-0.1,0.2-0.2,0.3-0.4c0.1-0.2,0.2-0.3,0.3-0.5c0.3-0.3,0.5-0.6,0.8-1
					c0,0,0-0.1,0.1-0.1c0,0,0-0.1,0.1-0.1c0.3-0.4,0.6-0.8,0.9-1.2c0.2-0.3,0.5-0.6,0.7-0.8c0.3-0.4,0.6-0.9,1-1.3
					c0.2-0.3,0.4-0.6,0.7-1c0-0.1,0.1-0.1,0.1-0.2c0,0,0-0.1,0.1-0.1c0.2-0.3,0.5-0.6,0.7-0.9c0,0,0.1-0.1,0.1-0.1
					c0.4-0.5,0.6-0.8,1-1.3c0.2-0.2,0.4-0.5,0.6-0.7c0.1-0.1,0.2-0.2,0.3-0.4c0.3-0.4,0.6-0.7,0.8-1.1c0.3-0.3,0.6-0.6,0.8-0.9
					c0.3-0.4,0.6-0.7,0.9-1.1c0.3-0.3,0.5-0.7,0.8-1.1c0,0,0-0.1,0.1-0.1c0,0,0.1-0.1,0.1-0.1c0.2-0.2,0.4-0.5,0.6-0.7
					c0.1-0.1,0.2-0.2,0.3-0.3c0.1-0.1,0.1-0.2,0.2-0.3c0.2-0.3,0.4-0.5,0.6-0.7c0.2-0.2,0.3-0.3,0.5-0.5c0.1-0.1,0.1-0.2,0.2-0.2
					c0.1-0.1,0.2-0.3,0.3-0.4c0.3-0.3,0.7-0.7,0.9-1.1c0,0,0-0.1,0.1-0.1c0.1-0.1,0.3-0.3,0.4-0.4c0.1-0.2,0.3-0.3,0.4-0.5
					c0.3-0.4,0.6-0.6,0.8-0.9c0.4-0.4,0.6-0.8,1-1.2c0.3-0.3,0.6-0.7,0.9-1.1c0,0,0,0,0.1-0.1c0.2-0.4,0.4-0.6,0.7-0.9
					c0.1-0.1,0.2-0.2,0.3-0.3c0.2-0.3,0.5-0.5,0.7-0.8c0.2-0.3,0.5-0.6,0.7-0.9c0,0,0,0,0.1-0.1c0,0,0.1-0.1,0.1-0.1
					c0.2-0.3,0.4-0.6,0.6-0.8c0.2-0.2,0.3-0.4,0.5-0.5c0,0,0,0,0,0c0.2-0.2,0.3-0.4,0.5-0.6c0.1-0.2,0.3-0.3,0.4-0.5
					c0.2-0.2,0.4-0.4,0.5-0.6c0.1-0.1,0.1-0.2,0.2-0.3c0.2-0.2,0.3-0.4,0.5-0.6c0.4-0.4,0.6-0.8,1.1-1.1c0.4-0.4,0.6-0.7,1-1.2
					c0.1-0.1,0.2-0.2,0.4-0.4c0.1-0.1,0.2-0.3,0.4-0.4c0,0,0,0,0,0c0.2-0.3,0.5-0.5,0.7-0.7c0.4-0.4,0.7-0.8,1.1-1.1
					c0.3-0.4,0.6-0.7,0.8-1.1c0.3-0.3,0.5-0.5,0.8-0.8c0,0,0,0,0,0c0,0,0,0,0.1-0.1c0.3-0.3,0.5-0.6,0.8-0.9
					c0.3-0.3,0.5-0.5,0.7-0.8c0.1-0.1,0.2-0.2,0.3-0.4c0.1-0.1,0.1-0.1,0.2-0.2c0.2-0.2,0.4-0.4,0.6-0.6c0.3-0.2,0.5-0.5,0.7-0.8
					c0.4-0.3,0.7-0.7,1-1c0.4-0.4,0.7-0.7,1-1.1c0.3-0.3,0.5-0.6,0.8-0.8c0,0,0-0.1,0.1-0.1c0.3-0.3,0.6-0.6,0.9-1c0,0,0,0,0.1-0.1
					c0.4-0.4,0.7-0.7,1-1c0.1-0.1,0.2-0.3,0.3-0.4c0.1-0.1,0.2-0.2,0.3-0.3c0.1-0.1,0.3-0.3,0.4-0.4c0.1-0.1,0.2-0.3,0.4-0.4
					c0.4-0.4,0.7-0.7,1.1-1.1c0.1-0.1,0.2-0.2,0.2-0.3c0.2-0.2,0.5-0.5,0.7-0.7c0.3-0.2,0.6-0.5,0.9-0.8c0.3-0.3,0.6-0.7,1-1
					c0,0,0,0,0,0c0.1-0.2,0.3-0.3,0.5-0.5c0.4-0.4,0.8-0.8,1.2-1.1c0,0,0,0,0,0c0.2-0.2,0.3-0.4,0.5-0.6c0.1-0.1,0.1-0.2,0.2-0.3
					c0.1-0.1,0.1-0.1,0.2-0.1c0.3-0.2,0.5-0.4,0.7-0.6c0.1-0.1,0.2-0.3,0.3-0.4c0,0,0,0,0,0c0.1-0.1,0.3-0.3,0.4-0.4
					c0.3-0.4,0.6-0.7,0.9-1c0,0,0,0,0,0c0.2-0.2,0.4-0.4,0.5-0.5c0.2-0.2,0.3-0.3,0.5-0.5c0.1,0,0.1-0.1,0.2-0.2
					c0.2-0.2,0.4-0.4,0.6-0.6c0.2-0.2,0.5-0.5,0.7-0.7c0,0,0,0,0,0v0c0.4-0.4,0.7-0.6,1.1-1.1c0.2-0.2,0.4-0.3,0.5-0.5
					c0.1-0.1,0.3-0.3,0.5-0.4c0,0,0.1-0.1,0.1-0.1c0.2-0.2,0.4-0.4,0.7-0.7c0.2-0.2,0.5-0.4,0.7-0.6c0,0,0.1-0.1,0.1-0.1
					c0.1-0.1,0.2-0.1,0.2-0.2c0.2-0.2,0.5-0.5,0.7-0.6c0.2-0.2,0.5-0.5,0.7-0.7c13.8-12.9,27.7-24,41.5-33.6
					c3.5-2.4,6.9-4.7,10.4-6.8c38-23.9,75.2-35.4,109-35.4c2.9,0,5.7,0.1,8.6,0.2c13,0.8,25.5,3.3,37.3,7.6c2.9,1,5.7,2.3,8.5,3.7
					c0.2,0.1,0.4,0.2,0.5,0.3c2.1,1.1,4.3,2.3,6.4,3.6c7.3,4.5,14.4,10.2,21.1,17c0,0,0.1,0.1,0.1,0.1
					c18.5,18.9,34.4,46.2,45.5,79.7c2,5.9,3.8,12,5.4,18.3c1.6,6.2,3.1,12.5,4.4,19C2345.5,935.3,2348,964,2347.1,994.6z"/>
				<path class="st0" d="M1182.1,298c-10.4-50.7-24.6-123.9-13.9-180.3c-106,49.7-262.2,140.6-382.6,333.5
					c-115.7,185.1-103.4,386-69.7,555.7c119.6-123.4,278.7-199.3,581-307.3C1296.9,699.7,1198.6,377.3,1182.1,298z M1088.9,595.9
					C1088.9,595.9,1088.9,595.9,1088.9,595.9c-179,82.2-292.4,180.8-367.8,258.1c-18.4-138-1.5-243.9,44.9-355.2
					c0,0.1,21.5-47.6,21.5-47.6c84.9-118.2,157.4-185.5,280.9-257.8c0,0,3.8-10.3,3.8-10.3c0,0,0,0,0,0c0,0,0,0,0,0
					c-25,70.2-24,155.8-13.4,241.2C1066,483.5,1077.9,542.4,1088.9,595.9C1088.9,595.9,1088.9,595.9,1088.9,595.9z"/>
				<path class="st0" d="M2007.7,154.7c-27.5-19.1-55.8-35.7-84-50c-2.4-1.2-4.7-2.4-7.1-3.5c-21.1-10.4-42.2-19.6-62.8-27.7
					c-2.3-0.9-4.6-1.8-6.8-2.6c-93.2-35.6-175.6-48-211.3-49.7c-4.4,0-13.9,0.7-22.2,5c-0.1,0-0.1,0-0.2,0.1
					c-0.1,0.1-0.2,0.1-0.3,0.2l-8.5,14.6c-49.5,97.3-107.7,371.8-153,603.5c-0.3,1.3,1,2.4,2.3,1.9c76-30.1,276.8-91.7,427.2-130.7
					c147.1-38.4,303.2-50.4,428.4-32.2c0,0,0.8,0.1,0.9,0.2C2229.3,341.2,2150.9,254.5,2007.7,154.7z M2204.8,367.5c0,0-0.1,0-0.1,0
					c-0.1,0-0.2-0.1-0.3-0.1c-1.7-0.6-3.5-1.1-5.3-1.6c-0.2-0.1-0.4-0.1-0.6-0.2c-1.9-0.6-3.8-1.1-5.8-1.6
					c-134.7-36.3-408.7,4.4-515.2,33.1l0.1-0.1c10.9-72,20.5-139.8,27.8-196.9c9.5-73.6,15.3-129.4,15.3-153.4c0,0,0,0,0,0v0
					c0,0,0,0,0.1,0c1.8,0.4,3.5,0.8,5.4,1.2c0.4,0.1,0.9,0.2,1.3,0.3c1.2,0.3,2.5,0.6,3.7,0.9c1.3,0.3,2.6,0.6,3.9,1
					c1.5,0.4,2.9,0.7,4.4,1.1c1.1,0.3,2.2,0.6,3.3,0.9c1.2,0.3,2.4,0.6,3.6,1c-10.7-2.6-8.3,4.5,0.1,7.2
					c157.8,43.5,355.7,180,446.1,303.5l11.9,3.8C2204.7,367.5,2204.8,367.5,2204.8,367.5C2204.8,367.5,2204.8,367.5,2204.8,367.5
					C2204.8,367.5,2204.8,367.5,2204.8,367.5z"/>
				<path class="st0" d="M1680.9,1603.7c-5.1,0.3-10.2,0.4-15.4,0.4c-34,0-70.5-4.1-109-11.2l0,0c-99.9-18.6-212.7-58.6-326-110
					c-4.3-1.9-1.9-4.3-0.5-6.9c3.4-6.5-0.4-9.5-0.3-10.4l-0.6,0.8l-15.8,18.7c0,0,95.6-236.7,185.2-446.7l0,0l-175.1-95
					c-66.6,147.4-110.5,272.2-149,460.3c-3.6-2.5-7.1-5-10.5-7.5c-4.5-3.2-8.9-6.4-13.3-9.6c-2.6-1.9-5.2-3.8-7.8-5.7
					C909.2,1283,831.3,1204,765.2,1107.4c0.1,0.9,0.2,1.7,0.3,2.7c0.6,9.8,9.2,72,12.4,91.1c1.3,8.4,2.6,10.4,7.9,17.6
					c77.9,109.4,178.1,193.8,277.6,257.3c-2.5,53.5,2.1,82.3,8.2,100.1c0.6,1.7,1.6,3.2,2.9,4.5l7.9,7.4c6.5,3.9,58.4,33.1,82,42
					c0.3,0.1,0.7,0.3,1,0.4c0.1,0,0.2,0.1,0.2,0.1h0c2.1,0.7,3.3,0.8,4.1,0.8c0.3,0,0.6,0,0.9-0.1c0.1,0,0.2,0,0.4-0.1
					c0.3-0.1,0.6-0.1,0.8-0.2c0.2-0.1,0.3-0.1,0.5-0.2c0.1,0,0.2-0.1,0.2-0.1c1.7-1,3-3,3.6-6.9c5.9-27.1,19.5-75.6,19.5-75.6
					l13.7,5.8c126,55.7,247,88.9,381.1,99.8c3.5,0.3,6.9,0,10.3-0.8l2.8-0.7c3.9-0.9,7.6-2.5,11-4.6c12.6-7.9,45.1-28.5,60.6-39.7
					c0,0,0,0,0,0c0.9-0.6,2-1.4,3-2.2c0.1-0.1,0.2-0.1,0.2-0.2c-0.7,0.5-1.5,1.1-2.3,1.7c-0.1,0,2.2-0.4,3.7-1.4
					C1680.6,1605.3,1680.5,1603.8,1680.9,1603.7z"/>
			</g>
			<g>
				<g>
					<path d="M1737.7,212.7c42.6,13.5,83.9,31.3,122.9,53.2c30.6,17.1,59.8,36.8,87.3,58.6c-10.9,0.8-22.1,1.7-33.5,2.8
						c-73,6.8-144,17.9-197.6,30.6c4.9-26.5,9.5-55.8,13.8-87.6c0-0.3,0.1-0.6,0.1-0.9c0-0.3,0.1-0.5,0.1-0.8c0-0.1,0-0.2,0-0.3
						c0.1-0.3,0.1-0.6,0.2-0.9c0.1-0.6,0.2-1.2,0.3-1.8c0-0.2,0.1-0.5,0.1-0.7c0-0.2,0.1-0.5,0.1-0.7c0.1-0.4,0.1-0.8,0.2-1.3
						c0.1-0.4,0.1-0.8,0.2-1.1c0-0.2,0.1-0.4,0.1-0.6c0.1-0.4,0.1-0.8,0.2-1.2c0-0.2,0-0.3,0.1-0.5c0.1-0.5,0.1-1,0.2-1.4
						c0.1-0.4,0.1-0.8,0.1-1.3c0-0.3,0.1-0.6,0.1-1c0-0.1,0-0.2,0-0.3c0-0.2,0-0.4,0.1-0.6c0.1-0.5,0.1-0.9,0.2-1.3
						c0-0.3,0.1-0.6,0.1-0.8c0-0.1,0-0.3,0-0.4c0.1-0.5,0.2-1,0.2-1.5c0-0.1,0-0.2,0-0.3c0-0.3,0.1-0.5,0.1-0.8c0-0.1,0-0.2,0-0.3
						c0-0.3,0.1-0.6,0.1-0.9c0-0.3,0.1-0.5,0.1-0.8c0-0.1,0-0.3,0.1-0.5c0-0.1,0-0.2,0-0.3c0-0.3,0.1-0.6,0.1-0.9c0-0.1,0-0.2,0-0.3
						l0.2-1.9c0.1-0.4,0.1-0.8,0.2-1.3c0.1-0.4,0.1-0.9,0.2-1.3c0-0.2,0.1-0.5,0.1-0.7c0,0,0-0.1,0-0.1c0.1-0.6,0.2-1.2,0.3-1.9
						c0-0.2,0-0.3,0.1-0.5c0-0.2,0.1-0.5,0.1-0.7c0-0.1,0-0.2,0-0.2c0-0.3,0.1-0.5,0.1-0.8c0-0.2,0.1-0.5,0.1-0.7c0-0.1,0-0.3,0-0.4
						c0-0.3,0.1-0.6,0.1-0.8c0-0.1,0-0.2,0-0.3c0-0.2,0.1-0.4,0.1-0.6c0-0.3,0.1-0.6,0.1-0.9c0.1-0.4,0.1-0.8,0.1-1.2
						c0-0.1,0-0.2,0-0.3c0-0.2,0.1-0.5,0.1-0.8C1736.3,224.6,1737,218.6,1737.7,212.7 M1735.6,229L1735.6,229L1735.6,229
						 M1733.2,248.9L1733.2,248.9L1733.2,248.9 M1719.6,185.4c0,0.2,0,0.4-0.1,0.6c-0.6,5.5-1.3,11.2-1.9,17.1
						c-0.9,8-1.9,16.4-2.9,25c0,0.1,0,0.2,0,0.4c0,0.1-0.1,0.4-0.1,0.6c0,0.1-0.1,0.4-0.1,0.6c0,0,0,0.1,0,0.1c0,0,0,0.1,0,0.2
						c0,0.1,0,0.1,0,0.2c0,0,0,0.1,0,0.1c0,0.1,0,0.1,0,0.2c0,0.1,0,0.2,0,0.2c0,0.1,0,0.2,0,0.2v0.1c-0.1,0.1-0.1,0.4-0.1,0.6
						c-0.1,0.1-0.1,0.4-0.1,0.6c-0.1,0.2-0.1,0.4-0.1,0.6v0.1c-0.1,0.1-0.1,0.4-0.1,0.6c-0.1,0.2-0.1,0.5-0.1,0.7
						c-0.1,0.1-0.1,0.4-0.1,0.6c-0.1,0.2-0.1,0.4-0.1,0.6c-0.1,0.1-0.1,0.4-0.1,0.5c0,0,0,0,0,0.1c-0.1,0.2-0.1,0.4-0.1,0.6
						c-0.1,0.1-0.1,0.4-0.1,0.6c0,0.1,0,0.1,0,0.1c-0.1,0.2-0.1,0.4-0.1,0.6c0,0.2,0,0.4-0.1,0.6c0,0.1,0,0.4-0.1,0.6
						c0,0.1,0,0.4-0.1,0.5c0,0.1,0,0.1,0,0.1c0,0.1,0,0.4-0.1,0.6c0,0.2,0,0.3-0.1,0.5c-0.1,1-0.3,2.1-0.4,3.1c0,0,0,0,0,0
						c0,0,0,0,0,0c0,0.1,0,0.3-0.1,0.4c0,0,0,0.1,0,0.1c0,0.2-0.1,0.4-0.1,0.6c0,0.2-0.1,0.4-0.1,0.6c0,0.2-0.1,0.4-0.1,0.8
						c-0.1,0.1-0.1,0.4-0.1,0.5v0.1c-0.1,0.1-0.1,0.4-0.1,0.6c-0.1,0.2-0.1,0.4-0.1,0.6c-0.1,0.2-0.1,0.4-0.1,0.6
						c-0.1,0.2-0.1,0.4-0.1,0.6c-0.1,0.2-0.1,0.4-0.1,0.6c0,0.2,0,0.4-0.1,0.6v0.1c0,0.2,0,0.4-0.1,0.6c0,0.1,0,0.3-0.1,0.5
						c0,0.2,0,0.4-0.1,0.7c0,0.1-0.1,0.4-0.1,0.6c0,0.2-0.1,0.4-0.1,0.6c0,0.2-0.1,0.4-0.1,0.6c0,0.1-0.1,0.4-0.1,0.5
						c0,0.2-0.1,0.4-0.1,0.6c0,0,0,0,0,0.1c-0.1,0.1-0.1,0.4-0.1,0.5c-0.1,0.3-0.1,0.5-0.1,0.7c-0.1,0.2-0.1,0.4-0.1,0.6
						c0,0.1,0,0.3,0,0.5c-0.1,0.1-0.1,0.4-0.1,0.6l-0.1,0.1c0,0.2,0,0.4-0.1,0.6c0,0.2,0,0.4-0.1,0.6c0,0.2,0,0.4-0.1,0.6
						c0,0.2-0.1,0.4-0.1,0.6c0,0.2-0.1,0.4-0.1,0.6v0.1c0,0.3-0.1,0.5-0.1,0.6c-0.1,0.2-0.1,0.4-0.1,0.6c-0.1,0.1-0.1,0.4-0.1,0.5
						c0,0.1,0,0.1,0,0.1c-0.1,0.1-0.1,0.4-0.1,0.6c0,0,0,0-0.1,0c0,0,0,0.1,0,0.1c0,0.2,0,0.3,0,0.5c0,0.2,0,0.4-0.1,0.6
						c0,0.2,0,0.4-0.1,0.6c0,0.2-0.1,0.4-0.1,0.6c0,0.2-0.1,0.4-0.1,0.6c0,0.1-0.1,0.4-0.1,0.5c0,0.3-0.1,0.4-0.1,0.6c0,0,0,0,0,0.1
						c-5.4,39.8-12.1,81.8-20.1,119.4l0.1-0.1c57.7-17.1,145.2-31,226.7-38.6c29.7-2.8,58.6-4.7,85-5.6
						C1922.6,269.4,1826.3,214.6,1719.6,185.4L1719.6,185.4z"/>
				</g>
				<path d="M1545.2,161.3C1545.2,161.3,1545.2,161.3,1545.2,161.3c0.2,0,0.5,0,0.7,0C1545.6,161.3,1545.4,161.3,1545.2,161.3z"/>
				<g>
					<path d="M2183,791.7c2.6,0,5.1,0.2,7.2,0.6c1.5,0.4,3,0.8,4.5,1.3c1,15,1.5,30.1,1.5,45c0,56.5-7.2,112.5-21.3,166.6
						c-13.7,52.5-34,103.2-60.4,150.8c-25.9,46.8-57.5,90.4-94,129.6c-32.1,34.5-67.9,65.6-106.6,92.4
						c-23.4-34.2-32.8-84.4-27.2-146.4c3.1-35,11-72.8,23.3-112.4c12.4-39.8,29.1-80.6,49.6-121.2c40.5-80.4,88.3-129.6,121.4-156.8
						C2118.2,810.7,2157.2,791.7,2183,791.7 M2183,770.6c-58.2,0-168.9,72.4-242.2,218c-84.5,167.2-105.1,337-31.9,416.9
						c0.3,0.3,0.6,0.5,1,0.8c185.2-120.9,307.5-329.9,307.5-567.6c0-19.8-0.9-39.5-2.5-58.9c-6.5-3.8-13.2-6.5-20.1-8.1
						C2191.1,771,2187.2,770.6,2183,770.6L2183,770.6z"/>
				</g>
				<path d="M872,951.6C872,951.6,872,951.6,872,951.6c-0.1-0.6-0.2-1.2-0.3-1.8C871.8,950.4,871.9,951.1,872,951.6z"/>
				<polygon points="1909.8,1406.2 1909.8,1406.2 1909.8,1406.2 				"/>
				<path d="M1741,1485.7C1741,1485.7,1741,1485.7,1741,1485.7C1741,1485.7,1741,1485.7,1741,1485.7
					C1741,1485.7,1741,1485.7,1741,1485.7z"/>
				<path d="M2214.8,779.8C2214.8,779.8,2214.8,779.8,2214.8,779.8C2214.8,779.8,2214.8,779.8,2214.8,779.8L2214.8,779.8z"/>
				<path d="M1786.2,1469.9c-0.6,0.2-1.2,0.4-1.7,0.7C1785.1,1470.3,1785.6,1470.1,1786.2,1469.9z"/>
			</g>
			<g>
				<path d="M2164.2,575.2C2164.2,575.2,2164.2,575.2,2164.2,575.2c0.2,0.4,0.4,0.9,0.5,1.3C2164.6,576.1,2164.4,575.7,2164.2,575.2
					z"/>
				<g>
					<path d="M1516,182.8c-44.2,140.5-86.7,341-122.9,521.1c-1.5,7.4,1.1,15.1,6.9,20.1c3.9,3.4,8.8,5.1,13.8,5.1
						c2.4,0,4.8-0.4,7.1-1.2c238.2-84.8,426-137.6,588.7-164.8c-0.5,0.2-1,0.3-1.5,0.5c-1.3,0.4-2.6,0.9-3.8,1.4
						c-1.4,0.5-2.7,1-4.1,1.5l-0.2,0.1c-1.2,0.5-2.4,0.9-3.7,1.4c-1.3,0.5-2.6,1-3.9,1.5l-0.2,0.1l-0.2,0.1c-1.2,0.5-2.4,1-3.6,1.5
						c-1.4,0.6-2.7,1.2-4.1,1.7l-0.4,0.2c-1.2,0.5-2.3,1-3.5,1.5c-1.3,0.6-2.5,1.1-3.8,1.7l-0.3,0.1l-0.3,0.1
						c-1.2,0.5-2.4,1.1-3.6,1.7c-1.3,0.6-2.7,1.3-4,1.9l-0.1,0l-0.4,0.2c-1.1,0.6-2.3,1.1-3.4,1.7c-1.2,0.6-2.5,1.3-3.7,1.9
						l-0.3,0.2l-0.5,0.2c-1.1,0.6-2.3,1.2-3.4,1.8c-1.2,0.7-2.5,1.3-3.7,2l-0.4,0.2l-0.5,0.2c-1.1,0.6-2.3,1.2-3.4,1.9
						c-1.2,0.7-2.4,1.4-3.6,2.1l-0.4,0.3l-0.5,0.3c-1.1,0.6-2.3,1.3-3.4,2c-1.2,0.7-2.5,1.5-3.7,2.2l-0.3,0.2l-0.5,0.3
						c-1.1,0.7-2.2,1.3-3.3,2c-1.2,0.7-2.4,1.5-3.6,2.2l-0.5,0.3l-0.7,0.4c-1.1,0.7-2.1,1.3-3.2,2c-1.2,0.7-2.3,1.5-3.5,2.3
						l-0.6,0.4l-0.7,0.5c-1,0.7-2.1,1.4-3.1,2.1c-1.2,0.8-2.3,1.6-3.5,2.4l-0.5,0.4l-0.7,0.5c-1.1,0.7-2.1,1.5-3.2,2.2
						c-1.1,0.8-2.3,1.6-3.4,2.4l-0.6,0.5l-0.7,0.5c-1.1,0.8-2.1,1.5-3.2,2.3c-1.1,0.8-2.2,1.7-3.4,2.5l-0.7,0.5l-0.8,0.6
						c-1,0.8-2,1.5-3,2.3c-1.1,0.8-2.2,1.7-3.3,2.6l-0.7,0.5l-0.8,0.6c-1,0.8-2,1.6-3,2.4c-1.1,0.9-2.1,1.7-3.2,2.6l-0.8,0.6
						l-0.8,0.7c-1,0.8-2,1.6-3,2.4c-1.1,0.9-2.1,1.8-3.2,2.7l-0.8,0.6l-0.9,0.7c-1,0.8-1.9,1.6-2.9,2.5c-1,0.9-2.1,1.8-3.1,2.7
						l-0.8,0.7l-0.9,0.8c-1,0.9-1.9,1.7-2.9,2.6c-1,0.9-2.1,1.9-3.1,2.9l-0.8,0.7l-0.9,0.8c-1,0.9-1.9,1.7-2.9,2.6
						c-1,1-2,1.9-3.1,2.9l-0.8,0.8l-0.9,0.8c-1,0.9-1.9,1.8-2.9,2.8c-1,1-2,1.9-2.9,2.9l-0.9,0.9l-0.9,0.9c-0.9,0.9-1.9,1.9-2.8,2.8
						c-1,1-2,2-3,3l-0.9,0.9l-0.9,0.9c-0.9,1-1.9,1.9-2.8,2.9c-1,1-1.9,2-2.9,3.1l-0.9,0.9l-0.9,1c-0.9,1-1.8,1.9-2.7,2.9
						c-1,1-1.9,2.1-2.9,3.2l-0.9,0.9l-1,1.1c-0.9,1-1.8,2-2.7,3c-0.9,1-1.8,2.1-2.7,3.1l-1,1.1l-1,1.1c-0.9,1-1.8,2-2.7,3
						c-0.9,1.1-1.9,2.2-2.8,3.3l-0.9,1.1l-0.9,1.1c-0.9,1.1-1.8,2.1-2.7,3.2c-0.9,1.1-1.8,2.2-2.7,3.3l-0.9,1.1l-1,1.2
						c-0.9,1.1-1.7,2.1-2.6,3.2c-0.9,1.1-1.8,2.3-2.7,3.4l-0.9,1.2l-0.9,1.2c-0.9,1.1-1.7,2.2-2.6,3.3c-0.9,1.1-1.7,2.2-2.6,3.4
						l-1,1.3l-1,1.3c-0.8,1.1-1.7,2.2-2.5,3.3c-0.8,1.1-1.7,2.3-2.5,3.4l-1,1.4l-1,1.4c-0.8,1.1-1.6,2.2-2.5,3.3
						c-0.9,1.2-1.7,2.4-2.5,3.6l-1,1.4l-1,1.4c-0.8,1.1-1.6,2.3-2.4,3.4c-0.8,1.2-1.6,2.4-2.4,3.5l-1,1.5l-1,1.4
						c-0.8,1.2-1.6,2.3-2.4,3.5c-0.8,1.2-1.6,2.4-2.5,3.7l-1,1.5l-1,1.4c-0.8,1.2-1.6,2.4-2.4,3.6c-0.8,1.2-1.6,2.5-2.4,3.7l-1,1.5
						l-1,1.6c-0.8,1.2-1.5,2.4-2.3,3.6c-0.8,1.2-1.5,2.5-2.3,3.7l-1,1.6l-1,1.7c-0.8,1.2-1.5,2.5-2.3,3.7c-0.8,1.3-1.5,2.5-2.3,3.8
						l-1,1.7l-1,1.6c-0.8,1.3-1.5,2.5-2.3,3.8c-0.7,1.3-1.5,2.5-2.2,3.8c-0.3,0.6-0.7,1.2-1,1.8l-1,1.7c-0.8,1.3-1.5,2.6-2.3,3.9
						c-0.7,1.3-1.4,2.5-2.1,3.8c-0.3,0.6-0.7,1.2-1,1.8l-1,1.8c-0.8,1.3-1.5,2.7-2.2,4c-0.6,1.2-1.3,2.4-1.9,3.6
						c-0.3,0.6-0.7,1.2-1,1.8l-1,1.8c-0.8,1.5-1.6,2.9-2.4,4.4c-0.5,1-1.1,2-1.6,3c-0.3,0.6-0.6,1.2-0.9,1.7l-0.9,1.8
						c-0.8,1.6-1.7,3.2-2.5,4.8c-0.5,0.9-1.1,1.9-1.6,2.8c-0.4,0.7-0.8,1.3-1.1,2c-0.3,0.5-0.5,1-0.8,1.4c-0.6,1.1-1.2,2.2-1.8,3.3
						c-0.4,0.8-0.8,1.5-1.2,2.3l-0.7,1.4c-43.4,81.7-64.2,170.9-71.1,205.5l0,0c0,0.1,0,0.1,0,0.2c-0.6,3-1.2,6.2-1.8,9.5
						c-11.6,62-14.9,121-9.8,175.2c0.1,1.5,0.3,3.1,0.5,4.6l0,0.5c0,0,0,0,0,0.1l0.1,0.7c0,0.4,0.1,0.8,0.1,1.2
						c1.9,18.1,4.9,35.7,8.7,52.3c0.1,0.4,0.2,0.8,0.3,1.2c13.5,58.3,38.3,109,73.8,151.1c-52.6,13.3-106.7,20-161.5,20
						c-35,0-70.2-2.8-104.5-8.3c-49.2-16.1-99.5-36.1-153.1-60.8c0.7-1.5,1.4-3.1,2-4.6l0.1-0.3l0.1-0.3l2.2-5l0.7-1.7l0.4-0.9
						l0.3-0.6c0.9-2,1.8-4.1,2.7-6.1l0.5-1.1l0.4-0.9c0.8-1.9,1.6-3.7,2.5-5.6l0.4-0.9l0.8-1.7l2.4-5.4l0.5-1.2l0.7-1.5l1.5-3.5
						l0.8-1.9l0.7-1.5l0.6-1.3l2.3-5.2l1.3-2.9l2.2-5l0.7-1.6l0.7-1.5l1.1-2.5l1-2.2l0.4-0.9l1.1-2.6l0.5-1.1l1.4-3.3l1.4-3.2
						l0.2-0.4l0.8-1.8l1.2-2.8l1.5-3.4l0.3-0.8l1.6-3.7l0.3-0.8l1.3-2.9l0.3-0.7l1.5-3.4l1.6-3.7l1.9-4.4l1-2.2l0.5-1.2l1.9-4.3
						l0-0.1l1.6-3.6l0.7-1.6l1.1-2.5l0.7-1.6l1-2.3l1.6-3.8l0.8-1.9l1-2.4l0.8-1.8l0.6-1.5l2-4.7l1.2-2.8l0.1-0.2l2.2-5.2l0.8-1.8
						l0.2-0.4l2.5-5.8l0.1-0.3l0.6-1.4l0.1-0.1l3-7l0.1-0.2l0.1-0.2c0,0,0,0,0-0.1c12.4-28.9,24.3-57,34.9-81.7
						c25.8-60.7,46.2-108.6,57.6-132.9c0,0,0-0.1,0.1-0.1c1-2,1.9-3.9,2.6-5.4c0.4-0.8,0.7-1.6,1-2.4l4.4-10.4l2.7-6.4
						c0.5-1.1,0.9-2.3,1.2-3.6c0-0.1,0-0.1,0.1-0.2c5.5-17.8-4-29.4-15.2-34.6c-0.1,0-0.2-0.1-0.3-0.1c0,0-0.1,0-0.1-0.1l-0.9-0.5
						l-0.1,0l-0.2-0.1l-0.3-0.2l-0.4-0.2c0,0-0.1,0-0.1,0l-0.4-0.2l-0.4-0.2l-0.6-0.3c0,0,0,0-0.1,0l-0.3-0.1l-1.2-0.7l-0.7-0.4
						l-0.5-0.3l-0.3-0.2l-1-0.5c0,0,0,0-0.1,0l-0.7-0.4l-0.7-0.4l-0.6-0.3l-3.2-1.8l-8.1-4.5l-3.4-1.9l0,0c0,0-0.1-0.1-0.1-0.1
						l-5.6-3.1l-0.1-0.1l-0.3-0.2c-19.9-11.1-46.7-25.9-72.5-40.2l-3.1-1.7l-21.3-11.8l-0.2-0.1l-0.4-0.2c0,0,0,0,0,0
						c-25.9-14.4-47.8-26.6-56.1-31.2v0c0,0-0.1,0-0.1,0c-5-2.8-10.6-4.2-16.3-4.2c-1.3,0-2.6,0.1-3.9,0.2l-8.4,1
						c-7,0.8-13.5,3.8-18.7,8.6c0,0-0.1,0.1-0.1,0.1l-8.8,8.1c-4.5,4.2-8.2,9.5-10.5,15.2c-0.8,2-1.6,3.9-2.4,5.9l-0.2,0.6
						c-46.7,115.8-83.5,231.4-116,363.8l0,0c-1.6,6.5-3.2,13-4.8,19.6c-41.7-42.6-77.2-90.6-106-142.9
						c-33.1-60.2-56.3-124.8-69.1-192.1c132.3-79.2,317-152.9,452.9-207.3l9.7-3.9c3.7-1.4,6.9-3.9,9.3-7.1c4-5.4,5.2-12.3,3.2-18.7
						l-60-198c-30.8-103.8-53.6-200.8-64.8-275.3c42.5-21.3,87.2-38,133.3-49.6C1423.7,191,1469.7,184.5,1516,182.8 M1540,161.3
						c-114.6,0-222.5,28.5-317.2,78.7c10.2,75,33.7,179,67.6,293.2l60,198.1h0c-139.1,55.6-340.7,135.4-478.4,220.3
						c25.5,151.9,101.6,286.7,210.3,386.4c4.2-18.1,8.7-36.6,13.4-55.5c26-106,60.4-225.3,115.1-361c0.9-2.2,1.7-4.3,2.6-6.5
						c1.2-2.9,3-5.5,5.2-7.6l8.8-8.1c1.9-1.8,4.4-2.9,7-3.2l8.4-1c0.5-0.1,1-0.1,1.4-0.1c2.1,0,4.2,0.5,6,1.6l0.1,0c0,0,0,0,0,0
						c8.3,4.6,30.2,16.8,56.1,31.2c0.2,0.1,0.5,0.3,0.7,0.4c6.9,3.8,14,7.8,21.3,11.8c1,0.6,2.1,1.1,3.1,1.7
						c25.8,14.3,52.5,29.2,72.5,40.3c0.2,0.1,0.3,0.2,0.5,0.3c1.9,1.1,3.8,2.1,5.6,3.1c0.1,0,0.1,0.1,0.2,0.1
						c4.3,2.4,8.1,4.5,11.5,6.4c1.1,0.6,2.2,1.2,3.2,1.8c0.4,0.2,0.8,0.4,1.2,0.6c0.3,0.1,0.5,0.3,0.8,0.4c0.3,0.2,0.7,0.4,1,0.6
						c0.3,0.2,0.5,0.3,0.8,0.4c0.2,0.1,0.5,0.3,0.7,0.4c0.4,0.2,0.8,0.4,1.1,0.6c0.1,0.1,0.2,0.1,0.3,0.2c0.3,0.2,0.6,0.4,0.9,0.5
						c0.2,0.1,0.3,0.2,0.5,0.3c0.3,0.1,0.5,0.3,0.7,0.4c0.1,0.1,0.3,0.1,0.4,0.2c0.3,0.2,0.6,0.3,0.8,0.5c0,0,0,0,0,0
						c0.6,0.3,1,0.5,1.2,0.6c7.8,3.3,4.6,7.9,3.9,11.2l-2.7,6.4l-5,11.7l0,0l-0.1,0l0,0l0.1,0c-0.9,1.8-1.8,3.8-2.8,5.9
						c0,0,0,0.1,0,0.1c0,0,0,0,0,0c-16.4,35-50.7,117-92.8,215.3c-0.1,0.1-0.1,0.3-0.2,0.4c-1,2.3-2,4.7-3,7c-0.2,0.5-0.4,1-0.6,1.5
						c-0.9,2-1.7,4-2.6,6c-0.3,0.7-0.6,1.4-0.9,2.1c-0.8,1.8-1.6,3.6-2.3,5.5c-0.4,0.9-0.8,1.9-1.2,2.8c-0.7,1.6-1.4,3.2-2,4.7
						c-0.5,1.1-1,2.2-1.4,3.3c-0.6,1.4-1.2,2.9-1.9,4.3c-0.5,1.3-1.1,2.5-1.6,3.8c-0.6,1.3-1.1,2.6-1.7,3.9
						c-0.6,1.4-1.2,2.7-1.8,4.1c-0.5,1.2-1,2.4-1.6,3.6c-0.6,1.5-1.3,2.9-1.9,4.4c-0.5,1.1-1,2.3-1.5,3.4c-0.6,1.5-1.3,2.9-1.9,4.4
						c-0.5,1.2-1.1,2.4-1.6,3.7c-0.6,1.4-1.2,2.8-1.8,4.2c-0.5,1.2-1.1,2.4-1.6,3.7c-0.6,1.5-1.3,3-1.9,4.5c-0.5,1.1-1,2.3-1.5,3.4
						c-0.7,1.5-1.3,3-2,4.5c-0.5,1.2-1,2.4-1.6,3.6c-0.6,1.5-1.3,3-1.9,4.4c-0.5,1.2-1,2.3-1.5,3.5c-0.7,1.6-1.4,3.2-2.1,4.7
						c-0.5,1-0.9,2.1-1.4,3.1c-0.7,1.7-1.5,3.4-2.2,5c-0.4,1-0.8,1.9-1.3,2.9c-0.8,1.7-1.5,3.5-2.3,5.2c-0.4,0.9-0.8,1.8-1.2,2.7
						c-0.8,1.8-1.6,3.6-2.4,5.4c-0.4,0.9-0.8,1.8-1.2,2.7c-0.8,1.8-1.6,3.6-2.4,5.3c-0.4,0.9-0.8,1.8-1.2,2.6
						c-0.8,1.9-1.6,3.7-2.5,5.6c-0.3,0.7-0.6,1.4-0.9,2c-0.9,2-1.8,4.1-2.7,6.1c-0.2,0.5-0.4,1-0.7,1.5c-1,2.2-2,4.4-2.9,6.6
						c-0.1,0.2-0.2,0.4-0.3,0.6c-3.5,7.8-7,15.6-10.5,23.4c64.1,30.4,121.9,53.4,175.8,71c35.7,5.8,72.2,8.8,109.5,8.8
						c70,0,137.5-10.6,201-30.3c-1.6-1.4-3.2-2.8-4.8-4.3c-47.1-46.7-74.5-103.5-88.3-163.8c0,0.1,0,0.2,0,0.3
						c-3.8-16.3-6.5-33-8.3-49.9c-0.1-0.6-0.1-1.2-0.2-1.7c-0.2-1.6-0.3-3.2-0.5-4.9c-5.4-56.8-0.7-114.9,9.5-169.4
						c0.6-3.1,1.2-6.2,1.8-9.4c0,0,0-0.1,0-0.1c16.2-80.9,44.3-153,69.1-199.7c0.2-0.4,0.5-0.9,0.7-1.3c0.4-0.7,0.8-1.5,1.2-2.2
						c0.6-1.1,1.2-2.1,1.7-3.2c0.3-0.5,0.5-0.9,0.8-1.4c0.4-0.6,0.7-1.3,1.1-1.9c0.6-1.1,1.2-2.1,1.8-3.1c1.2-2.3,2.4-4.6,3.6-6.9
						c0.8-1.6,1.6-3.1,2.4-4.7c1.1-2.1,2.2-4.1,3.3-6.1c0.9-1.8,1.9-3.5,2.8-5.3c1.1-1.9,2.1-3.8,3.2-5.7c1-1.8,2-3.6,3-5.4
						c1-1.8,2.1-3.6,3.2-5.4c1.1-1.8,2.1-3.7,3.2-5.4c1.1-1.8,2.1-3.6,3.2-5.3c1.1-1.8,2.1-3.6,3.2-5.3c1.1-1.8,2.2-3.5,3.2-5.2
						c1.1-1.7,2.2-3.5,3.2-5.2c1.1-1.7,2.2-3.4,3.3-5.1c1.1-1.7,2.2-3.4,3.3-5.1c1.1-1.7,2.2-3.3,3.3-5c1.1-1.7,2.2-3.4,3.3-5
						c1.1-1.6,2.2-3.2,3.3-4.9c1.1-1.6,2.2-3.3,3.4-4.9c1.1-1.6,2.2-3.1,3.4-4.7c1.1-1.6,2.3-3.2,3.4-4.8c1.1-1.6,2.3-3.1,3.4-4.6
						c1.1-1.6,2.3-3.1,3.4-4.7c1.1-1.5,2.3-3,3.4-4.5c1.2-1.5,2.3-3.1,3.5-4.6c1.1-1.5,2.3-2.9,3.4-4.3c1.2-1.5,2.3-3,3.5-4.4
						c1.2-1.4,2.3-2.8,3.5-4.2c1.2-1.4,2.4-2.9,3.5-4.3c1.2-1.4,2.3-2.7,3.5-4.1c1.2-1.4,2.4-2.8,3.6-4.2c1.2-1.3,2.3-2.7,3.5-4
						c1.2-1.4,2.4-2.8,3.6-4.1c1.2-1.3,2.4-2.6,3.5-3.9c1.2-1.3,2.4-2.7,3.6-4c1.2-1.3,2.4-2.5,3.5-3.8c1.2-1.3,2.4-2.6,3.7-3.9
						c1.2-1.2,2.4-2.4,3.6-3.7c1.2-1.3,2.5-2.5,3.7-3.8c1.2-1.2,2.4-2.4,3.6-3.5c1.2-1.2,2.5-2.4,3.7-3.6c1.2-1.2,2.4-2.3,3.6-3.4
						c1.2-1.2,2.5-2.4,3.7-3.5c1.2-1.1,2.4-2.2,3.6-3.3c1.3-1.1,2.5-2.3,3.8-3.4c1.2-1.1,2.4-2.1,3.6-3.2c1.3-1.1,2.5-2.2,3.8-3.3
						c1.2-1,2.4-2.1,3.6-3.1c1.3-1.1,2.5-2.2,3.8-3.2c1.2-1,2.4-2,3.6-3c1.3-1,2.5-2.1,3.8-3.1c1.2-1,2.4-1.9,3.7-2.9
						c1.3-1,2.5-2,3.8-3c1.2-0.9,2.4-1.8,3.7-2.8c1.3-1,2.6-1.9,3.8-2.9c1.2-0.9,2.4-1.8,3.7-2.7c1.3-0.9,2.6-1.8,3.8-2.8
						c1.2-0.9,2.4-1.7,3.7-2.5c1.3-0.9,2.6-1.8,3.9-2.6c1.2-0.8,2.4-1.6,3.7-2.4c1.3-0.9,2.6-1.7,3.9-2.5c1.2-0.8,2.4-1.6,3.7-2.3
						c1.3-0.8,2.6-1.6,3.9-2.4c1.2-0.8,2.5-1.5,3.7-2.2c1.3-0.8,2.6-1.5,3.9-2.3c1.2-0.7,2.5-1.4,3.7-2.1c1.3-0.7,2.6-1.5,3.9-2.2
						c1.2-0.7,2.4-1.3,3.7-2c1.3-0.7,2.6-1.4,3.9-2.1c1.2-0.6,2.4-1.3,3.7-1.9c1.3-0.7,2.6-1.3,3.9-2c1.2-0.6,2.4-1.2,3.7-1.8
						c1.3-0.6,2.6-1.3,3.9-1.9c1.2-0.6,2.4-1.1,3.7-1.7c1.3-0.6,2.6-1.2,3.9-1.8c1.2-0.5,2.4-1.1,3.7-1.6c1.3-0.6,2.6-1.1,3.8-1.6
						c1.2-0.5,2.4-1,3.6-1.5c1.3-0.5,2.6-1,3.8-1.5c1.2-0.5,2.4-0.9,3.6-1.4c1.3-0.5,2.6-1,3.8-1.4c1.2-0.4,2.4-0.9,3.6-1.3
						c1.3-0.4,2.5-0.9,3.8-1.3c1.2-0.4,2.4-0.8,3.6-1.2c1.3-0.4,2.5-0.8,3.8-1.2c1.2-0.4,2.4-0.7,3.6-1.1c1.3-0.4,2.5-0.7,3.8-1.1
						c1.2-0.3,2.4-0.7,3.6-1c1.3-0.3,2.5-0.7,3.8-1c1.2-0.3,2.4-0.6,3.6-0.9c1.3-0.3,2.5-0.6,3.7-0.9c1.2-0.3,2.4-0.5,3.5-0.8
						c1.2-0.3,2.5-0.5,3.7-0.8c1.2-0.2,2.4-0.5,3.5-0.7c1.2-0.2,2.5-0.5,3.7-0.7c1.2-0.2,2.3-0.4,3.5-0.6c1.2-0.2,2.5-0.4,3.7-0.6
						c1.2-0.2,2.3-0.3,3.5-0.5c1.2-0.2,2.4-0.3,3.7-0.5c1.2-0.1,2.3-0.3,3.5-0.4c1.2-0.1,2.4-0.2,3.6-0.3c1.1-0.1,2.3-0.2,3.4-0.3
						c1.2-0.1,2.4-0.2,3.6-0.2c1.1-0.1,2.3-0.1,3.4-0.2c1.2-0.1,2.4-0.1,3.6-0.1c1.1,0,2.3-0.1,3.4-0.1c1.2,0,2.4,0,3.5,0
						c0.1,0,0.2,0,0.3,0c1,0,2,0,3,0c1.2,0,2.3,0,3.5,0.1c1.1,0,2.2,0.1,3.3,0.1c1.2,0,2.3,0.1,3.5,0.2c1.1,0.1,2.2,0.1,3.3,0.2
						c1.1,0.1,2.3,0.2,3.4,0.3c1.1,0.1,2.2,0.2,3.3,0.3c1.1,0.1,2.3,0.2,3.4,0.4c1.1,0.1,2.2,0.3,3.2,0.4c1.1,0.2,2.2,0.3,3.4,0.5
						c1.1,0.2,2.1,0.3,3.2,0.5c1.1,0.2,2.2,0.4,3.3,0.6c1.1,0.2,2.1,0.4,3.1,0.6c1.1,0.2,2.2,0.5,3.3,0.7c1,0.2,2.1,0.5,3.1,0.7
						c1.1,0.3,2.2,0.5,3.2,0.8c1,0.3,2,0.5,3.1,0.8c1,0.3,2.1,0.6,3.1,0.9c-7.2-17.1-15.1-33.9-23.7-50.3
						c-202.6,17.8-432.2,78.2-726.7,183.1c41.4-206.1,85.8-411.4,131.4-546.7C1543.4,161.3,1541.7,161.3,1540,161.3L1540,161.3z"/>
				</g>
			</g>
			<polygon points="2192.2,362.9 2194.1,365.4 2205.7,368.7 2205.7,366.1 			"/>
		</g>
		<g>
			<path d="M0,1875h102.6c56.7,0,78.7,36,78.7,72.9c0,37-22,73-78.7,73H50.1v81.5H0V1875 M50.1,1981.9h38.8c23.2,0,43.9-4.9,43.9-34
				c0-28.8-20.7-34-43.9-34H50.1V1981.9z"/>
			<rect x="206.6" y="1875" width="45.2" height="227.4"/>
			<path d="M285,1988.4c2.7-42.3,40.6-55.1,77.5-55.1c32.6,0,72.2,7.3,72.2,46.9v85.7c0,15.1,1.6,29.8,5.8,36.6h-45.8l-3.2-15.9
				c-14.4,14.9-35.4,20.4-55.4,20.4c-31.3,0-56.2-15.5-56.2-49.4c0-37.2,28.3-46.1,56.2-50.1c27.8-4.2,53.5-3.2,53.5-21.5
				c0-19.5-13.2-22.4-29.2-22.4c-17.4,0-28.4,7-29.9,24.8L285,1988.4 M389.5,2021.9c-7.6,6.6-23.5,6.9-37.7,9.5
				c-13.7,2.9-26.5,7.7-26.5,24.3c0,16.9,13.1,20.9,27.8,20.9c35.2,0,36.4-28,36.4-37.7V2021.9z"/>
			<path d="M549,2123c-10,26.7-25.7,37.4-56.8,37.4c-9.3,0-18.6-0.7-27.6-1.7v-37c8.5,0.4,17.4,1.9,26.3,1.3
				c15.6-1.3,20.7-17.7,15.6-30.7l-58-154.4h48.4l37.3,112.8h0.6l36-112.8h46.7L549,2123"/>
			<path d="M673.9,2027c0,30.3,23.6,42,50.6,42c17.5,0,44.1-5,44.1-28.3c0-24.7-34-28.7-67.4-37.7c-33.9-8.9-67.9-21.8-67.9-64.6
				c0-46.5,43.9-68.6,85-68.6c47.3,0,91.1,20.5,91.1,73H761c-1.7-27.4-21-34.4-44.9-34.4c-15.8,0-34.3,6.9-34.3,26
				c0,17.4,10.6,19.5,67.7,34.3c16.4,4,67.4,14.6,67.4,66.3c0,41.6-32.7,72.8-94.6,72.8c-50.2,0-97.4-24.7-96.8-80.8L673.9,2027"/>
			<path d="M904.1,1937.9h33.1v30.1h-33.1v81.7c0,15.2,3.7,19.1,19.1,19.1l14-1.4v35.6c-7.7,1.2-17.4,1.4-26.3,1.4
				c-27.9,0-51.9-6.3-51.9-39.2V1968h-27.3v-30.1h27.3v-49.4h45.2L904.1,1937.9"/>
			<path d="M965.3,1988.4c2.4-42.3,40.4-55.1,77.3-55.1c32.9,0,72.2,7.3,72.2,46.9v85.7c0,15.1,1.7,29.8,5.7,36.6h-45.8l-3.2-15.9
				c-14.2,14.9-35.2,20.4-55.3,20.4c-31.1,0-56-15.5-56-49.4c0-37.2,27.9-46.1,56-50.1c27.6-4.2,53.6-3.2,53.6-21.5
				c0-19.5-13.6-22.4-29.4-22.4c-17.2,0-28.3,7-30.1,24.8L965.3,1988.4 M1069.8,2021.9c-7.8,6.6-23.7,6.9-37.8,9.5
				c-13.8,2.9-26.6,7.7-26.6,24.3c0,16.9,13.1,20.9,27.7,20.9c35.3,0,36.7-28,36.7-37.7L1069.8,2021.9L1069.8,2021.9z"/>
			<path d="M1207.1,1937.9h33.1v30.1h-33.1v81.7c0,15.2,3.9,19.1,19,19.1l14.1-1.4v35.6c-7.6,1.2-17.4,1.4-26.3,1.4
				c-27.6,0-51.9-6.3-51.9-39.2V1968h-27.4v-30.1h27.4v-49.4h45.2L1207.1,1937.9"/>
			<path d="M1315.3,1912.3h-45.1V1875h45.1V1912.3z M1270.2,1937.9h45.1v164.6h-45.1L1270.2,1937.9L1270.2,1937.9z"/>
			<path d="M1427.9,1933.3c51.6,0,85.2,34.6,85.2,87.1c0,52.2-33.6,86.5-85.2,86.5c-51.7,0-85.2-34.3-85.2-86.5
				C1342.7,1967.8,1376.2,1933.3,1427.9,1933.3 M1427.9,2072.9c30.8,0,40-26.5,40-52.5c0-26.5-9.3-52.9-40-52.9
				c-30.7,0-40,26.4-40,52.9C1387.9,2046.3,1397.2,2072.9,1427.9,2072.9z"/>
			<path d="M1539.9,1937.9h42.8v22.8h1.1c11.4-18.4,31.2-27.4,50.4-27.4c48.1,0,60.1,27.1,60.1,67.9v101.3h-45.2v-93
				c0-27.1-8.1-40.6-29.1-40.6c-24.4,0-34.9,13.9-34.9,47.2v86.4h-45.2L1539.9,1937.9"/>
			<polyline points="1807.3,1875 1857,1875 1952,2027.5 1952.5,2027.5 1952.5,1875 1999.4,1875 1999.4,2102.5 1949.4,2102.5 
				1854.7,1950.3 1854.2,1950.3 1854.2,2102.5 1807.3,2102.5 1807.3,1875 			"/>
			<path d="M2071.1,2031.1c1.2,28.6,15.2,41.8,40.5,41.8c18.2,0,32.9-11.2,35.6-21.4h40c-12.8,38.9-40,55.4-77.1,55.4
				c-52,0-84.2-35.7-84.2-86.5c0-49.5,33.9-87.1,84.2-87.1c56,0,83.1,47.4,79.9,97.9H2071.1 M2144.8,2002.4c-4.4-23-14.1-35-36.2-35
				c-28.6,0-36.7,22.4-37.5,35H2144.8z"/>
			<path d="M2274.8,1937.9h33.3v30.1h-33.3v81.7c0,15.2,4,19.1,19.4,19.1l13.9-1.4v35.6c-7.7,1.2-17.6,1.4-26.5,1.4
				c-27.8,0-51.9-6.3-51.9-39.2V1968h-27.2v-30.1h27.2v-49.4h45.1V1937.9"/>
			<polyline points="2529.5,2102.5 2482.9,2102.5 2453.6,1992 2452.9,1992 2424.9,2102.5 2378.2,2102.5 2325.9,1937.9 
				2373.7,1937.9 2404,2049.6 2404.7,2049.6 2432.1,1937.9 2475.9,1937.9 2503.8,2049.2 2504.6,2049.2 2534.8,1937.9 2581.4,1937.9 
				2529.5,2102.5 			"/>
			<path d="M2672.5,1933.3c51.9,0,85.4,34.6,85.4,87.1c0,52.2-33.5,86.5-85.4,86.5c-51.4,0-84.9-34.3-84.9-86.5
				C2587.6,1967.8,2621.2,1933.3,2672.5,1933.3 M2672.5,2072.9c30.9,0,40.3-26.5,40.3-52.5c0-26.5-9.3-52.9-40.3-52.9
				c-30.6,0-39.7,26.4-39.7,52.9C2632.8,2046.3,2641.9,2072.9,2672.5,2072.9z"/>
			<path d="M2782.9,1937.9h43v30.6h0.7c8.3-20.8,30.6-35.2,52.6-35.2l9.8,1.7v42l-16.1-1.6c-33.2,0-44.8,23.7-44.8,52.7v74.3h-45.2
				V1937.9"/>
			<polyline points="2911.3,1875 2956.5,1875 2956.5,1997 3013.5,1937.9 3067,1937.9 3004.9,1998.3 3073.9,2102.5 3019.2,2102.5 
				2974,2028.8 2956.5,2045.6 2956.5,2102.5 2911.3,2102.5 2911.3,1875 			"/>
		</g>
	</g>
</g>
</svg>
