<?xml version="1.0" encoding="utf-8"?>
<!-- Generator: Adobe Illustrator 26.0.3, SVG Export Plug-In . SVG Version: 6.00 Build 0)  -->
<svg version="1.1" id="Layer_1" xmlns="http://www.w3.org/2000/svg" xmlns:xlink="http://www.w3.org/1999/xlink" x="0px" y="0px"
	 viewBox="0 0 2159 2159" style="enable-background:new 0 0 2159 2159;" xml:space="preserve">
<style type="text/css">
	.st0{display:none;fill:#00AD9C;}
	.st1{display:none;fill:#FFFFFF;stroke:#231F20;stroke-miterlimit:10;}
	.st2{fill:#FFFFFF;}
	.st3{fill-rule:evenodd;clip-rule:evenodd;fill:#FFFFFF;}
	.st4{fill-rule:evenodd;clip-rule:evenodd;}
	.st5{fill:#00AD9C;}
	.st6{fill:#FBB817;}
	.st7{fill:#0174BA;}
	.st8{fill:#EB2027;}
</style>
<g>
	<path d="M1908.4,1866.5c-0.5-0.2-1.2-0.4-2.1-0.4h-6.4v6.2h6c1.2,0,2.2-0.2,2.8-0.7c0.6-0.4,0.9-1.3,1-2.5
		C1909.8,1867.8,1909.3,1867,1908.4,1866.5z"/>
	<path d="M1904.4,1857.6c-4.3,0-8.4,1.7-11.5,4.8c-3.1,3.1-4.8,7.2-4.8,11.6s1.7,8.5,4.8,11.6c3.1,3.1,7.1,4.8,11.5,4.8
		c8.9,0,16.2-7.4,16.2-16.5c0-4.4-1.7-8.5-4.8-11.6C1912.8,1859.3,1908.8,1857.6,1904.4,1857.6z M1914.3,1883.7v0.5v0.4h-0.5h-3.4
		h-0.3l-0.1-0.2c-0.1-0.2-0.2-0.5-0.2-0.8c-0.1-0.3-0.1-0.9-0.2-1.7l-0.2-3.5c-0.1-1.2-0.4-2-1.2-2.4c-0.4-0.2-1.2-0.3-2.3-0.3h-5.9
		v8.5v0.5h-0.5h-2.8h-0.5v-0.5v-21v-0.5h0.4h9.6c1.6,0,3,0.2,4.1,0.7c2.2,1,3.2,2.8,3.2,5.4c0,1.4-0.3,2.5-0.9,3.3
		c-0.4,0.6-0.9,1.2-1.6,1.6c0.6,0.3,1,0.6,1.3,1.1c0.5,0.6,0.7,1.5,0.8,2.9l0.1,2.8c0,0.7,0.1,1.3,0.2,1.7c0.2,0.5,0.4,0.9,0.6,1
		l0.3,0.1V1883.7z"/>
	<path d="M0,0v2159h2159V0H0z M231.6,1177.2c58.6-44.1,158.2-77.3,158.2-77.3l411.4-148.3v169.2L505,1228.4
		c-52.3,19-60.5,45.9-17.9,60.1c42.6,14,119.5,10.1,172-9l141.9-52.3v151.4c-9,1.7-18.9,3.4-28.4,4.9
		c-141.4,23.5-292.8,13.6-442-36.2C191.6,1307.5,168.5,1224.8,231.6,1177.2z M434.3,1792.4c-12.4,12.5-41,11.3-41,11.3h-31.7v-20.5
		h22c9.2,0,19.3-2.1,25.5-12.5c4-6.9,4.8-25.5,4.8-37.6c0-11.3-1.4-28-8.4-37.2c-8.3-10.9-32.6-10.9-32.6-10.9h-33.4v209h-36.1
		v-231.1h78.7c0,0,27.7,0,43.1,7.1c18.6,8.6,27.7,33.8,27.7,58.9C453.2,1756.4,449.3,1777,434.3,1792.4z M517.6,1893.9h-36.1v-231.1
		h36.1V1893.9z M690.6,1892.1l-69.1,1.5c0,0-31.4,0.1-47.1-6.3c-15.4-6.3-23.7-23.4-23.7-47.2c0-23,7-36.4,17.5-44.7
		c15.2-12,42.2-10.9,42.2-10.9h22.1v20.5h-12.3c-9.3,0-18.9,1.7-24.1,8.3c-4.9,6.3-7.6,11.7-7.6,23.8c0,15.9,3.1,23,10.6,28.5
		c6.6,4.8,18.5,5.8,31.7,5.8l23.8-1.5v-94.6c0-12.1-3.1-19.7-8-25.9c-5.3-6.7-16.2-9.2-25.4-9.2l-47.6,1.5v-23.4l57.3-1.5
		c0,0,27.1-1.1,42.3,10.9c10.6,8.4,17.6,21.7,17.6,44.7V1892.1z M767.6,1982.6h-29.9l37.8-92.8l-66-173h42l44.2,129.5l47.5-129.5
		h33.5L767.6,1982.6z M1011.6,1880c-7.5,7.5-18.4,10.9-26.8,12.3c-9.6,1.7-25.5,1.8-25.5,1.8l-55.3-1.5v-21.8c0,0,38.2,1.5,46.1,1.5
		c17.6,0,26.4-3.8,33-10.8c4-4.2,7.5-23.1,7.5-29.9c0-6.6-1.3-21.2-4-27c-2.6-5.8-8.7-11.3-18-12.1c-6.6-0.6-16.7-1.9-28.6-2.4
		c-16.7-0.8-27.7-9.5-33-15.7c-5.3-6.3-12.4-15.7-12.4-44.5c0-28.9,7.5-45.1,15-52.6c7.5-7.5,18.4-10.8,26.9-12.3
		c9.7-1.6,25.5-1.7,25.5-1.7l50.4,1.5v21.8c0,0-36.8-1.5-44.7-1.5c-17.6,0-22.9,3.8-29.5,10.9c-3.9,4.2-6.9,15.9-6.9,22.5
		c0,6.7,0.8,20.2,3.4,26.1c2.6,5.8,8.8,11.3,18.1,12.1c6.6,0.6,16.7,1.9,28.6,2.5c16.7,0.8,27.7,9.5,33,15.7
		c5.3,6.3,12.4,19.5,12.4,48.3C1026.6,1851.8,1019.1,1872.4,1011.6,1880z M1141.4,1738.5h-40.7v99.9c0,0,0,12.5,1.3,22.9
		c1.3,10.4,8.8,10.9,15,10.9c6.1,0,16.2-0.8,16.2-0.8v21.8l-37.4,0.7c-20.7,0-28.6-12.9-29.5-18.4c-0.9-5.4-1.7-20.9-1.7-20.9V1685
		h36.1v31.8h40.7V1738.5z M1144.2,1553.1l-287-92.4V172.9c122.1,23,299.9,77.3,395.5,110c243.1,84.6,325.5,190.1,325.5,427.8
		c0,231.4-141,319.1-319.9,231.6V510.7c0-50.6-9-97.3-56-110.4c-35.9-11.8-58.1,22.2-58.1,72.6V1553.1z M1298.9,1892.1l-69.1,1.5
		c0,0-31.4,0.1-47.1-6.3c-15.4-6.3-23.8-23.4-23.8-47.2c0-23,7.1-36.4,17.6-44.7c15.1-12,42.2-10.9,42.2-10.9h22v20.5h-12.4
		c-9.2,0-18.8,1.7-24.1,8.3c-4.9,6.3-7.6,11.7-7.6,23.8c0,15.9,3.1,23,10.5,28.5c6.6,4.8,18.5,5.8,31.7,5.8l23.9-1.5v-94.6
		c0-12.1-3.1-19.7-8.1-25.9c-5.3-6.7-16.1-9.2-25.4-9.2l-47.6,1.5v-23.4l57.3-1.5c0,0,27.1-1.1,42.2,10.9
		c10.6,8.4,17.6,21.7,17.6,44.7V1892.1z M1417.7,1738.5H1377v99.9c0,0,0,12.5,1.4,22.9c1.3,10.4,8.7,10.9,14.9,10.9
		c6.2,0,16.3-0.8,16.3-0.8v21.8l-37.4,0.7c-20.7,0-28.6-12.9-29.5-18.4c-0.8-5.4-1.8-20.9-1.8-20.9V1685h36.1v31.8h40.7V1738.5z
		 M1485,1893.9h-36.1v-177.2h36.1V1893.9z M1485,1695h-36.1v-32.2h36.1V1695z M1652.8,1881.7c-10.3,8.3-29.3,13.8-53.8,13.8
		c-24.6,0-43.6-5.5-53.9-13.8c-10.3-8.3-23-25.7-23-76.3c0-50.6,12.7-68.1,23-76.3c10.4-8.3,29.3-13.8,53.9-13.8
		c24.5,0,43.5,5.5,53.8,13.8c10.3,8.3,23,25.7,23,76.3C1675.8,1855.9,1663.1,1873.4,1652.8,1881.7z M1855.3,1893.7h-36.1v-118.5
		c0-12.1-3.1-19.7-8-25.9c-5.3-6.7-16.2-9.2-25.4-9.2l-35.4,1.5v152.1h-35.8v-175.5l80.9-1.5c0,0,27.1-1.1,42.2,10.9
		c10.6,8.4,17.6,21.7,17.6,44.7V1893.7z M1918.2,1888.1c-3.7,3.8-8.5,5.8-13.8,5.8c-5.2,0-10.1-2.1-13.8-5.8
		c-3.7-3.7-5.7-8.7-5.7-13.9c0-10.9,8.7-19.8,19.5-19.8c5.2,0,10.1,2,13.8,5.8c3.7,3.7,5.7,8.7,5.7,14
		C1923.9,1879.4,1921.8,1884.4,1918.2,1888.1z M1945.1,1229.5c-34.4,44.1-118.8,75.6-118.8,75.6l-627.6,228.6v-168.6l461.8-166.9
		c52.5-19,60.5-45.9,17.9-60.1s-119.5-10.1-172,9l-307.6,110v-175.2l17.9-6.2c0,0,88.9-31.9,213.8-45.9
		c124.9-14,278.1,1.9,398.1,48.2C1964.2,1121.4,1979.5,1185.4,1945.1,1229.5z"/>
	<path d="M1600.1,1739.1c-11.8,0-21,4-25.9,10.1c-4.9,6-11,18.9-11,56.1c0,37.1,6.1,50,11,56.1c5,6.1,14.1,10.2,25.9,10.2
		c11.8,0,20.9-4,25.8-10.2c5-6,11-18.9,11-56.1c0-37.2-6-50.1-11-56.1C1621,1743.1,1611.9,1739.1,1600.1,1739.1z"/>
</g>
</svg>
