<?xml version="1.0" encoding="utf-8"?>
<!-- Generator: Adobe Illustrator 26.0.3, SVG Export Plug-In . SVG Version: 6.00 Build 0)  -->
<svg version="1.1" id="Layer_1" xmlns="http://www.w3.org/2000/svg" xmlns:xlink="http://www.w3.org/1999/xlink" x="0px" y="0px"
	 viewBox="0 0 3839 763.1" style="enable-background:new 0 0 3839 763.1;" xml:space="preserve">
<style type="text/css">
	.st0{fill:#FFFFFF;}
	.st1{fill-rule:evenodd;clip-rule:evenodd;fill:#FFFFFF;}
	.st2{fill-rule:evenodd;clip-rule:evenodd;}
	.st3{fill:#00AD9C;}
	.st4{fill:#FBB817;}
	.st5{fill:#0174BA;}
	.st6{fill:#EB2027;}
</style>
<g>
	<g>
		<path d="M1252,225.1v385.3h60.1V262.1h55.7c0,0,40.4,0,54.3,18.1c11.7,15.3,14,43.2,14,62c0,20.2-1.3,51.2-8.1,62.7
			c-10.3,17.3-27.2,20.8-42.6,20.8h-36.6V460h52.8c0,0,47.7,2.1,68.3-18.8c25-25.6,31.5-59.9,31.5-105.9c0-41.9-15.2-83.9-46.2-98.2
			c-25.7-11.9-71.9-11.9-71.9-11.9H1252z"/>
		<rect x="1548.6" y="225.1" width="60.2" height="385.3"/>
		<polygon points="1928.8,315 2038.8,603.5 1975.7,758.2 2025.6,758.2 2207.5,315 2151.7,315 2072.5,531 1998.8,315 		"/>
		<path d="M2252.8,608.2v-36.4c0,0,63.6,2.5,76.8,2.5c29.4,0,44-6.3,55-18.1c6.6-7,12.4-38.6,12.4-49.8c0-11.1-2.1-35.3-6.6-45.1
			c-4.4-9.8-14.6-18.8-30-20.1c-11-0.9-27.9-3.1-47.7-4.1c-27.8-1.3-46.1-15.8-54.9-26.2c-8.8-10.5-20.6-26.2-20.6-74.2
			c0-48.2,12.5-75.1,25-87.7c12.5-12.5,30.7-18.1,44.8-20.6c16.1-2.7,42.5-2.9,42.5-2.9l84.1,2.5v36.4c0,0-61.3-2.4-74.5-2.4
			c-29.4,0-38.2,6.3-49.3,18.1c-6.5,7-11.5,26.4-11.5,37.6c0,11.2,1.3,33.7,5.7,43.5c4.4,9.8,14.7,18.8,30.1,20.1
			c11,0.9,27.8,3.1,47.6,4.1c27.8,1.3,46.2,15.8,55,26.2c8.8,10.5,20.6,32.4,20.6,80.5c0,48.1-12.5,82.5-25,95.1
			c-12.5,12.5-30.7,18.1-44.7,20.5c-16.1,2.8-42.6,3-42.6,3L2252.8,608.2z"/>
		<path d="M2581,262.1h-60.1V545c0,0,1.4,25.8,2.9,34.8c1.5,9.1,14.6,30.7,49.2,30.7l62.3-1.2v-36.4c0,0-16.9,1.3-27.1,1.3
			c-10.3,0-22.8-0.7-25-18.1c-2.2-17.4-2.2-38.2-2.2-38.2V351.2h67.8V315H2581V262.1z"/>
		<rect x="3161.4" y="315" width="60.2" height="295.4"/>
		<rect x="3161.4" y="225.1" width="60.2" height="53.6"/>
		<path d="M3411.6,312.5c40.9,0,72.5,9.2,89.7,23c17.2,13.8,38.3,42.9,38.3,127.3c0,84.3-21.2,113.5-38.3,127.2
			c-17.1,13.9-48.8,23-89.7,23c-41,0-72.6-9.2-89.9-23c-17.1-13.8-38.3-42.9-38.3-127.2c0-84.3,21.2-113.5,38.3-127.3
			C3339,321.7,3370.6,312.5,3411.6,312.5 M3370.2,369.2c-8.2,10.1-18.3,31.5-18.3,93.5c0,61.9,10.1,83.4,18.3,93.5
			c8.3,10.2,23.5,17,43.2,17c19.6,0,34.8-6.7,43.1-17c8.3-10.1,18.4-31.6,18.4-93.5c0-62-10.1-83.4-18.4-93.5
			c-8.3-10.2-23.4-16.9-43.1-16.9C3393.7,352.3,3378.5,359,3370.2,369.2"/>
		<path d="M3664.2,356.5l59-2.5c15.3,0,33.5,4.2,42.3,15.3c8.3,10.5,13.4,23,13.4,43.2v197.5h60.1V407.7c0-38.3-11.7-60.6-29.3-74.5
			c-25.3-20-70.4-18.1-70.4-18.1l-134.8,2.4v292.7h59.6V356.5z"/>
		<path d="M3041.6,262.1h-60.2V545c0,0,1.6,25.8,3,34.8c1.4,9.1,14.7,30.7,49.1,30.7l62.3-1.2v-36.4c0,0-16.8,1.3-27.1,1.3
			c-10.3,0-22.7-0.7-24.9-18.1c-2.3-17.4-2.3-38.2-2.3-38.2V351.2h67.8V315h-67.8V262.1z"/>
		<path d="M1837,412.6c0-20.2-5.1-32.8-13.3-43.2c-8.8-11.1-27-15.3-42.4-15.3l-79.3,2.5v-39.1l95.4-2.4c0,0,45.2-1.9,70.4,18.1
			c17.6,14,29.3,36.2,29.3,74.5v199.6l-115.2,2.5c0,0-52.3,0.2-78.5-10.5c-25.8-10.5-39.6-39.1-39.6-78.7
			c0-38.3,11.7-60.6,29.2-74.6c25.3-20,70.4-18.1,70.4-18.1h36.8V462h-20.5c-15.4,0-31.5,2.8-40.3,13.9
			c-8.2,10.5-12.7,19.5-12.7,39.7c0,26.5,5.2,38.3,17.6,47.4c11,8,30.8,9.8,52.8,9.8l39.7-2.5V412.6z"/>
		<path d="M2851.3,412.6c0-20.2-5.2-32.8-13.5-43.2c-8.8-11.1-26.9-15.3-42.3-15.3l-79.3,2.5v-39.1l95.4-2.4c0,0,45.1-1.9,70.4,18.1
			c17.6,14,29.4,36.2,29.4,74.5v199.6l-115.2,2.5c0,0-52.3,0.2-78.5-10.5c-25.7-10.5-39.7-39.1-39.7-78.7
			c0-38.3,11.8-60.6,29.4-74.6c25.2-20,70.4-18.1,70.4-18.1h36.7V462h-20.6c-15.4,0-31.3,2.8-40.1,13.9
			c-8.2,10.5-12.6,19.5-12.6,39.7c0,26.5,5.1,38.3,17.6,47.4c11,8,30.8,9.8,52.8,9.8l39.8-2.5V412.6z"/>
	</g>
	<g>
		<g>
			<path class="st2" d="M73.1,649.4c-76.8-22-89.6-67.7-54.7-94.1c32.4-24.4,87.5-42.7,87.5-42.7l227.5-82v93.5l-163.8,59.5
				c-28.9,10.5-33.5,25.4-9.9,33.2c23.5,7.7,66.1,5.6,95.1-5l78.5-28.9v83.7c-5,0.9-10.4,1.9-15.7,2.7
				C239.4,682.4,155.6,676.9,73.1,649.4L73.1,649.4z"/>
			<path class="st2" d="M553.2,659.2l255.3-92.3c29-10.5,33.5-25.4,9.9-33.2c-23.5-7.8-66.1-5.6-95.1,5l-170.1,60.8v-96.9l9.9-3.4
				c0,0,49.1-17.7,118.2-25.4c69.1-7.7,153.7,1,220.1,26.6c74.9,24.1,83.3,59.5,64.3,83.8S900.2,626,900.2,626l-347,126.4V659.2z"/>
			<path class="st2" d="M583,60.8c134.4,46.8,180,105.1,180,236.6c0,127.9-78,176.5-176.9,128V186.8c0-28-5-53.8-31-61
				c-19.8-6.5-32.1,12.3-32.1,40.2v597.2L364.3,712V0C431.8,12.7,530.1,42.7,583,60.8L583,60.8z"/>
		</g>
	</g>
</g>
</svg>
