<?xml version="1.0" encoding="utf-8"?>
<!-- Generator: Adobe Illustrator 25.1.0, SVG Export Plug-In . SVG Version: 6.00 Build 0)  -->
<svg version="1.1" id="Layer_1" xmlns="http://www.w3.org/2000/svg" xmlns:xlink="http://www.w3.org/1999/xlink" x="0px" y="0px"
	 viewBox="0 0 1148.9 2160" style="enable-background:new 0 0 1148.9 2160;" xml:space="preserve">
<style type="text/css">
	.st0{fill:#FFFFFF;}
	.st1{fill:url(#SVGID_1_);}
	.st2{fill:#888888;}
	.st3{fill:#FF0000;}
	.st4{fill:#0000A0;}
	.st5{fill:url(#SVGID_2_);}
	.st6{fill:url(#SVGID_3_);}
	.st7{fill:url(#SVGID_4_);}
	.st8{fill:none;stroke:#000000;stroke-width:11.4787;stroke-miterlimit:10;}
	.st9{fill:url(#SVGID_5_);}
	.st10{fill:url(#SVGID_6_);}
	.st11{fill:url(#SVGID_7_);}
	.st12{fill:url(#SVGID_8_);}
	.st13{fill:url(#SVGID_9_);}
	.st14{fill:url(#SVGID_10_);}
	.st15{fill:url(#SVGID_11_);}
	.st16{fill:url(#SVGID_12_);}
	.st17{fill:url(#SVGID_13_);}
	.st18{fill:url(#SVGID_14_);}
	.st19{fill:url(#SVGID_15_);}
	.st20{fill:url(#SVGID_16_);}
	.st21{fill:url(#SVGID_17_);}
	.st22{fill:url(#SVGID_18_);}
	.st23{fill:url(#SVGID_19_);}
	.st24{fill:url(#SVGID_20_);}
	.st25{opacity:0.5;}
	.st26{opacity:0.7;}
	.st27{opacity:0.5;fill:#FFFFFF;}
	.st28{opacity:0.7;fill:#FFFFFF;}
</style>
<g>
	<rect x="49.1" y="49.1" width="1050.6" height="2061.7"/>
	<rect x="98.3" y="98.3" class="st0" width="952.4" height="1582.7"/>
	<g>
		
			<radialGradient id="SVGID_1_" cx="-4252.6704" cy="19714.127" r="219.2959" gradientTransform="matrix(1 0 0 1 4852.2402 -18559.8398)" gradientUnits="userSpaceOnUse">
			<stop  offset="0.5225" style="stop-color:#FFE41B"/>
			<stop  offset="0.8933" style="stop-color:#716A13"/>
			<stop  offset="1" style="stop-color:#49482E"/>
		</radialGradient>
		<path class="st1" d="M392.9,1190.2c0-100.6,81.3-182.1,181.6-182.1c100.3,0,181.6,81.5,181.6,182.1s-81.3,182.1-181.6,182.1
			C474.1,1372.2,392.9,1290.7,392.9,1190.2z"/>
		<g>
			<path class="st2" d="M360.8,1543.6c0-20.7,95.6-37.5,213.6-37.5s213.6,16.8,213.6,37.5s-95.6,37.5-213.6,37.5
				S360.8,1564.3,360.8,1543.6z"/>
			<polygon class="st3" points="574.5,248.6 787.2,461.9 574.5,675.2 361.8,461.9 			"/>
			<path class="st4" d="M772.3,832.4c0-51.2-1.1-101.4-15.6-119.6c-16.9-21.3-98.2-27.9-181.3-27.9h-2c-83,0-164.3,6.6-181.3,27.9
				c-14.5,18.2-15.6,68.4-15.6,119.6v14.1c0,51.2,1.1,101.4,15.6,119.6c16.9,21.3,98.2,27.9,181.3,27.9h2c83,0,164.3-6.6,181.3-27.9
				c14.5-18.2,15.6-68.4,15.6-119.6L772.3,832.4L772.3,832.4z"/>
		</g>
	</g>
	<g>
		<path class="st0" d="M239.3,1863.3v0.7c30.5,0.6,53,6.6,67.5,18.2c14.5,11.5,21.8,25.5,21.8,41.9c0,18.3-8.2,33.4-24.8,45.2
			c-16.5,11.9-38.5,17.8-65.9,17.8c-23.7,0-42-4.8-55-14.2c-13-9.5-19.4-20.2-19.4-32.3c0-8,2.9-14.6,8.7-19.5s12.8-7.4,20.9-7.4
			c7.6,0,14.2,2.2,19.6,6.4c5.5,4.3,8.1,10,8.1,17.1c0,9.4-6.3,17.3-18.9,23.7c-2.5,1.2-3.8,2.7-3.8,4.2c0,2.9,3.5,5.4,10.7,7.7
			c7.1,2.2,14.3,3.3,21.7,3.3c24.3,0,36.5-17.9,36.5-53.7c0-35.4-14.6-53.1-43.8-53.1l-24.3,1c-4.9,0-7.4-1.8-7.4-5.4
			c0-4.1,2.6-6.2,7.7-6.2l17.7,0.7c18,0,30.1-4,36.2-12c6.2-8,9.2-19.4,9.2-34.2c0-15.2-2.3-26.5-6.9-33.6
			c-4.6-7.2-12.6-10.8-23.9-10.8c-6.1,0-11.9,1-17.3,3.1c-5.4,2.1-8.1,4.1-8.1,6.1c0,1.9,1.8,3.8,5.3,5.8c9.3,5.9,14,12.3,14,19.2
			c0,6.8-2.6,12.2-7.8,16.2c-5.2,4-11.1,6-17.6,6c-7.5,0-14.2-2.3-20.1-6.9c-5.9-4.6-8.9-10.3-8.9-17.1c0-11.6,6.6-21.7,19.7-30.1
			c13.1-8.5,29.9-12.7,50.4-12.7c22.7,0,41.8,4.8,57.4,14.4c15.6,9.6,23.4,21.9,23.4,36.9C322,1839.2,294.4,1857.1,239.3,1863.3z"/>
		<path class="st0" d="M514.2,1770.8v203.6h19.9c30.5,0,48.9-8,55.2-24c6.3-16,9.5-43.3,9.5-82.1c0-30.3-2-52.1-5.8-65.3
			c-3.9-13.2-9.8-22-17.7-26.1c-7.9-4.1-18-6.2-30.1-6.2L514.2,1770.8L514.2,1770.8z M452.6,1974.5v-203.6h-31.9v-11h128
			c37,0,66.3,10.5,87.9,31.5c21.6,21,32.4,47.5,32.4,79.4c0,16.6-3.3,32.2-9.9,46.8c-6.6,14.6-16.7,27.9-30.4,39.8
			c-13.7,11.9-27.7,19.6-42.1,23.1c-14.4,3.4-32,5.1-53,5.1H420.7v-11L452.6,1974.5L452.6,1974.5z"/>
		<path class="st0" d="M915.5,1872.7c0-34.6-0.7-57.3-2.1-68.3c-1.4-11-5.1-19.9-11.1-26.6c-6-6.7-15.8-10.1-29.4-10.1
			c-11.5,0-20.7,2.7-27.5,8.2c-6.8,5.5-11.1,14.2-12.8,26.2c-1.7,12-2.5,35.5-2.5,70.3c0,34.5,0.7,57.4,2.2,68.6
			c1.4,11.2,5.2,20.1,11.4,26.7c6.2,6.6,15.9,9.9,29.2,9.9c11,0,20-2.7,26.9-8c7-5.3,11.3-14,13-26
			C914.6,1931.5,915.5,1907.9,915.5,1872.7z M760,1871.8c0-33.8,11.1-61.4,33.4-82.9c22.3-21.5,49-32.2,80.2-32.2
			c28.9,0,54.8,10.1,77.7,30.3c22.9,20.2,34.3,48.9,34.3,86.1c0,34.9-10.8,62.9-32.4,83.9c-21.6,21-48,31.6-79.2,31.6
			c-33.7,0-61.1-11.2-82.3-33.5C770.6,1932.8,760,1905,760,1871.8z"/>
	</g>
	<path class="st0" d="M0,0v2160h1148.9V0H0z M49.1,2110.9V49.1h1050.6v2061.7H49.1z"/>
</g>
</svg>
