<?xml version="1.0" encoding="utf-8"?>
<!-- Generator: Adobe Illustrator 25.1.0, SVG Export Plug-In . SVG Version: 6.00 Build 0)  -->
<svg version="1.1" id="Layer_1" xmlns="http://www.w3.org/2000/svg" xmlns:xlink="http://www.w3.org/1999/xlink" x="0px" y="0px"
	 viewBox="0 0 3840 1254" style="enable-background:new 0 0 3840 1254;" xml:space="preserve">
<style type="text/css">
	.st0{fill:#D8D8D8;}
	.st1{fill:url(#SVGID_1_);}
	.st2{fill:#FFFFFF;}
	.st3{fill:url(#SVGID_2_);}
	.st4{fill:url(#SVGID_3_);}
	.st5{fill:#999999;}
	.st6{fill:url(#SVGID_4_);}
	.st7{fill:#666666;}
</style>
<g>
	<g>
		<path class="st0" d="M1091.2,1252.6c-41.9,0-76-34.1-76-76V589.4c0-13.7,11.1-24.8,24.8-24.8h272.8c13.7,0,24.8,11.1,24.8,24.8
			v638.4c0,13.7-11.1,24.8-24.8,24.8H1091.2z"/>
		<path class="st0" d="M1938.6,1252.6c-41.9,0-76-34.1-76-76V589.4c0-13.7,11.1-24.8,24.8-24.8h272c13.7,0,24.8,11.1,24.8,24.8
			v638.4c0,13.7-11.1,24.8-24.8,24.8H1938.6z"/>
		<path class="st0" d="M1229.3,1252.6c-13.7,0-24.8-11.1-24.8-24.8V978.4c0-13.7,11.1-24.8,24.8-24.8h15.7
			c-26.1-38.8-40.5-84.8-40.5-132.1v-20.2c0-130.5,106.1-236.6,236.6-236.6H1954c13.7,0,24.8,11.1,24.8,24.8v249.4
			c0,13.4-10.6,24.2-23.8,24.8c26.1,38.8,40.5,84.8,40.5,132.1v20.2c0,130.5-106.1,236.6-236.6,236.6H1229.3z"/>
		<path class="st0" d="M835.4,690.7c-129.4,0-234.6-105.2-234.6-234.6V234.6C600.8,105.2,706,0,835.4,0l391.4,0.4
			C1356,0.5,1461.1,105.8,1461.1,235v221.1c0,129.4-105.2,234.6-234.6,234.6H835.4z M1139.5,389.6v-90.7H922.4v90.7H1139.5z"/>
		<path class="st0" d="M3214.3,692c-129.4,0-234.6-105.2-234.6-234.6V235.8c0-129.4,105.2-234.6,234.6-234.6l391.4,0.4
			C3734.9,1.8,3840,107,3840,236.2v221.1c0,129.4-105.2,234.6-234.6,234.6H3214.3z M3518.4,390.8v-90.7h-217.1v90.7H3518.4z"/>
		<path class="st0" d="M2285.9,1254c-129.4,0-234.6-105.2-234.6-234.6V797.9c0-129.4,105.2-234.6,234.6-234.6l391.4,0.4
			c129.2,0.1,234.3,105.4,234.3,234.6v221.1c0,129.4-105.2,234.6-234.6,234.6H2285.9z M2590,952.8v-90.7h-217.1v90.7H2590z"/>
		<path class="st0" d="M234.6,692C105.2,692,0,586.7,0,457.4V235.8C0,106.5,105.2,1.2,234.6,1.2l433.2,0.2c41.9,0,75.9,34.1,75.9,76
			v197.9c0,13.7-11.1,24.8-24.8,24.8H321.6v90.7h397.3c13.7,0,24.8,11.1,24.8,24.8l48.8,251.6c0,13.7-11.1,24.8-24.8,24.8H234.6z"/>
		<path class="st0" d="M2613.6,692c-129.4,0-234.6-105.2-234.6-234.6V235.8c0-129.4,105.2-234.6,234.6-234.6l433.2,0.2
			c41.9,0,75.9,34.1,75.9,76v197.9c0,13.7-11.1,24.8-24.8,24.8h-397.3v90.7h397.3c13.7,0,24.8,11.1,24.8,24.8v251.6
			c0,13.7-11.1,24.8-24.8,24.8H2613.6z"/>
		<path class="st0" d="M1552.6,691c-129.4,0-234.6-105.2-234.6-234.6V26.6c0-13.7,11.1-24.8,24.8-24.8h220.9c41.9,0,76,34.1,76,76
			v312.1h257.3c13.7,0,24.8,11.1,24.8,24.8v251.6c0,13.7-11.1,24.8-24.8,24.8H1552.6z"/>
		<path class="st0" d="M2013.1,692c-129.4,0-234.6-105.2-234.6-234.6V25.9c0-6.6,2.6-12.9,7.3-17.5c4.6-4.6,11-7.3,17.5-7.3
			c0,0,643,0.4,643,0.4c41.9,0,75.9,34.1,75.9,76v197.9c0,13.7-11.1,24.8-24.8,24.8h-11.4v90.7h11.4c13.7,0,24.8,11.1,24.8,24.8
			v251.6c0,13.7-11.1,24.8-24.8,24.8H2013.1z"/>
		<path class="st0" d="M3392.3,1250.8c-41.4-0.5-75.1-34.5-75.1-76V862.1h-217.1v365.7c0,13.7-11.1,24.8-24.8,24.8h-220.9
			c-41.9,0-76-34.1-76-76V588.1c0-13.7,11.1-24.8,24.8-24.8H3070c0.6,0,1.2,0,1.7,0.1l332.7,0.3c129.2,0.1,234.3,105.4,234.3,234.6
			v430.3c0,6.6-2.7,13-7.4,17.6c-4.6,4.6-10.9,7.2-17.4,7.2C3613.9,1253.3,3392.3,1250.8,3392.3,1250.8z"/>
		<path class="st0" d="M546.2,1252.6c-8.9,0-17-4.7-21.5-12.4L156.1,601.8c-4.4-7.7-4.4-17.1,0-24.8c4.4-7.7,12.6-12.4,21.5-12.4
			h314.1c8.9,0,17,4.7,21.5,12.4l159.4,276.1L832,577c4.4-7.7,12.6-12.4,21.5-12.4h314.1c8.9,0,17,4.7,21.5,12.4
			c4.4,7.7,4.4,17.1,0,24.8l-368.6,638.4c-4.4,7.7-12.6,12.4-21.5,12.4H546.2z"/>
	</g>
	<g>
		<g>
			<path d="M1040,1176.7V589.4h272.8v638.4h-221.7C1062.9,1227.8,1040,1204.9,1040,1176.7z"/>
			<path d="M1887.5,1176.7V589.4h272v638.4h-220.9C1910.4,1227.8,1887.5,1204.9,1887.5,1176.7z"/>
			<path d="M1229.3,1227.8V978.4h69.7c-42.8-38.8-69.7-94.8-69.7-156.9v-20.2c0-116.8,95-211.8,211.8-211.8H1954v249.4h-53
				c42.8,38.8,69.7,94.8,69.7,156.9v20.2c0,116.8-95,211.8-211.8,211.8H1229.3z"/>
			<path d="M835.4,665.9c-115.7,0-209.8-94.1-209.8-209.8V234.6c0-115.7,94.1-209.8,209.8-209.8l391.4,0.4
				c115.6,0.1,209.6,94.2,209.6,209.8v221.1c0,115.7-94.1,209.8-209.8,209.8H835.4z"/>
			<path d="M3214.3,667.2c-115.7,0-209.8-94.1-209.8-209.8V235.8c0-115.7,94.1-209.8,209.8-209.8l391.4,0.4
				c115.6,0.1,209.6,94.2,209.6,209.8v221.1c0,115.7-94.1,209.8-209.8,209.8H3214.3z"/>
			<path d="M2285.9,1229.2c-115.7,0-209.8-94.1-209.8-209.8V797.9c0-115.7,94.1-209.8,209.8-209.8l391.4,0.4
				c115.6,0.1,209.6,94.2,209.6,209.8v221.1c0,115.7-94.1,209.8-209.8,209.8H2285.9z"/>
			<path d="M234.6,667.2c-115.9,0-209.8-93.9-209.8-209.8V235.8C24.8,120.2,118.9,26,234.6,26l433.2,0.2c28.2,0,51.1,22.9,51.1,51.2
				l136.6,589.8H234.6z"/>
			<path d="M2613.6,667.2c-115.9,0-209.8-93.9-209.8-209.8V235.8c0-115.7,94.1-209.8,209.8-209.8l433.2,0.2
				c28.2,0,51.1,22.9,51.1,51.2v338.2v251.6H2613.6z"/>
			<path d="M1552.6,666.2c-115.9,0-209.8-93.9-209.8-209.8V26.6h220.9c28.3,0,51.2,22.9,51.2,51.2v336.8h282.1v251.6H1552.6z"/>
			<path d="M2013.1,667.2c-115.9,0-209.8-93.9-209.8-209.8V25.9l643,0.4c28.2,0,51.1,22.9,51.1,51.2v197.9h-36.2v140.3h36.2v251.6
				H2013.1z"/>
			<path d="M3342,1174.8V837.3h-266.7v390.5h-220.9c-28.3,0-51.2-22.9-51.2-51.2V588.1H3070v0.1l334.4,0.3
				c115.8,0.1,209.6,94,209.6,209.8v430.3l-221.5-2.5C3364.5,1225.7,3342,1202.9,3342,1174.8z"/>
			<polygon points="546.2,1227.8 177.6,589.4 491.7,589.4 672.6,902.7 853.5,589.4 1167.6,589.4 799,1227.8 			"/>
		</g>
		<rect x="1364.2" y="573.1" width="45.9" height="45.9"/>
	</g>
	<g>
		<g>
			<linearGradient id="SVGID_1_" gradientUnits="userSpaceOnUse" x1="84.9899" y1="626.9904" x2="3755.01" y2="626.9904">
				<stop  offset="0" style="stop-color:#D81526"/>
				<stop  offset="0.25" style="stop-color:#DE551E"/>
				<stop  offset="0.5" style="stop-color:#EEB824"/>
				<stop  offset="0.75" style="stop-color:#75B230"/>
				<stop  offset="1" style="stop-color:#49A070"/>
			</linearGradient>
			<path class="st1" d="M835.4,605.7h391.1c82.6,0,149.6-67,149.6-149.6V235c0-82.6-66.9-149.5-149.4-149.6L835.5,85
				c-82.7-0.1-149.8,66.9-149.8,149.6v221.5C685.8,538.7,752.8,605.7,835.4,605.7z M837.4,271.9c0-32,26-58,58-58h271
				c32,0,58,26,58,58v144.6c0,32-26,58-58,58h-271c-32,0-58-26-58-58V271.9z M3605.6,86.6l-391.1-0.4
				c-82.7-0.1-149.8,66.9-149.8,149.6v221.5c0,82.6,67,149.6,149.6,149.6h391.1c82.6,0,149.6-67,149.6-149.6V236.2
				C3755,153.7,3688.1,86.7,3605.6,86.6z M3603.4,417.8c0,32-26,58-58,58h-271c-32,0-58-26-58-58V273.1c0-32,26-58,58-58h271
				c32,0,58,26,58,58V417.8z M658.7,475.8h-364c-32,0-58-26-58-58V273.1c0-32,26-58,58-58h364l0-128.7l-424-0.2
				C152.1,86.2,85,153.2,85,235.8v221.5C85,540,152,607,234.6,607h424.1V475.8z M2613.6,607h424.1V475.8h-364c-32,0-58-26-58-58
				V273.1c0-32,26-58,58-58h364l0-128.7l-424-0.2c-82.7-0.1-149.8,66.9-149.8,149.6v221.5C2464,540,2531,607,2613.6,607z
				 M1552.6,606h284.1V474.8h-224c-32,0-58-26-58-58v-330H1403v369.6C1403,539,1469.9,606,1552.6,606z M2013.1,607h424.1V475.8
				h-383.3c-21.4,0-38.8-17.4-38.8-38.8v0c0-21.4,17.4-38.8,38.8-38.8h347.1V294.9H2055c-22,0-39.9-17.9-39.9-39.9
				s17.9-39.9,39.9-39.9h382.2l0-128.7l-573.7-0.4v371.3C1863.5,540,1930.4,607,2013.1,607z M1100.2,1167.6h152.4v-518h-152.4
				V1167.6z M1947.7,1167.6h151.6v-518h-151.6V1167.6z M1758.9,844.1h-285c-18.1,0-32.7-14.7-32.7-32.7v0
				c0-18.1,14.7-32.7,32.7-32.7h419.9v-129h-452.6c-83.7,0-151.6,67.9-151.6,151.6v20.2c0,83.7,67.9,151.6,151.6,151.6h285
				c18.1,0,32.7,14.7,32.7,32.7s-14.7,32.7-32.7,32.7h-436.6v129h469.3c83.7,0,151.6-67.9,151.6-151.6v-20.2
				C1910.5,912,1842.6,844.1,1758.9,844.1z M2677.2,648.7l-391.1-0.4c-82.7-0.1-149.8,66.9-149.8,149.6v221.5
				c0,82.6,67,149.6,149.6,149.6H2677c82.6,0,149.6-67,149.6-149.6V798.3C2826.6,715.7,2759.7,648.7,2677.2,648.7z M2675,979.8
				c0,32-26,58-58,58h-271c-32,0-58-26-58-58V835.2c0-32,26-58,58-58h271c32,0,58,26,58,58V979.8z M3404.4,648.7l-391.1-0.4
				c-1.1,0-2.3,0.1-3.4,0.2v-0.2h-146.4v519.4h151.6V835.2c0-32,26-58,58-58h271c32,0,58,26,58,58v330.8l151.6,1.7V798.3
				C3553.8,715.7,3486.9,648.7,3404.4,648.7z M672.6,1023.1L456.9,649.6H281.8l299.1,518h183.3l299.1-518H888.2L672.6,1023.1z"/>
		</g>
	</g>
</g>
</svg>
