<?xml version="1.0" encoding="utf-8"?>
<!-- Generator: Adobe Illustrator 26.0.3, SVG Export Plug-In . SVG Version: 6.00 Build 0)  -->
<svg version="1.1" id="Layer_1" xmlns="http://www.w3.org/2000/svg" xmlns:xlink="http://www.w3.org/1999/xlink" x="0px" y="0px"
	 viewBox="0 0 3839 994.4" style="enable-background:new 0 0 3839 994.4;" xml:space="preserve">
<style type="text/css">
	.st0{fill:#FF221D;}
	.st1{fill:#FDEB05;}
	.st2{display:none;}
	.st3{display:inline;}
	.st4{fill:#FBE901;}
	.st5{fill:#FFFFFF;}
</style>
<g>
	<g>
		<path class="st0" d="M796.3,994.4c-10.7,0-15.1-2.1-19-4.9l21.6-95.6c37.4-5.7,52.9-31.3,60.7-99.3
			c19.7-170.3,133.3-180.2,146.1-180.7c1.5-0.1,2.9-0.1,4.2-0.1c4,0,7.4,0.3,12.5,1.2l-22.8,101.4c-37,5.1-45.3,36.8-60.4,128.7
			c-22.7,137.4-119.3,148.5-138.4,149.3C799.1,994.4,797.6,994.4,796.3,994.4z"/>
		<path class="st0" d="M2748.3,994.4c-10.8,0-15.1-2.1-19.1-4.9l21.6-95.6c37.4-5.7,52.9-31.3,60.7-99.3
			c19.7-170.3,133.3-180.2,146.1-180.7c1.5-0.1,2.9-0.1,4.2-0.1c4,0,7.4,0.3,12.5,1.2l-22.8,101.4c-37,5.1-45.3,36.8-60.4,128.7
			c-22.7,137.4-119.3,148.5-138.4,149.3C2751.1,994.4,2749.6,994.4,2748.3,994.4z"/>
		<path class="st0" d="M638.9,994.4c-10.7,0-15.1-2.1-19-4.9l21.6-95.6c37.4-5.7,52.9-31.3,60.7-99.3
			c19.7-170.3,133.3-180.2,146.1-180.7c1.5-0.1,2.9-0.1,4.2-0.1c4,0,7.4,0.3,12.5,1.2l-22.8,101.4c-37,5.1-45.3,36.8-60.4,128.7
			C759,982.4,662.4,993.5,643.3,994.3C641.7,994.4,640.2,994.4,638.9,994.4z"/>
		<rect x="2311.5" y="512.2" class="st0" width="97.7" height="482.2"/>
		<path class="st0" d="M3302.7,613.8c-107.6,0-197.9,78.2-207.3,185.8c-9.4,107.6,70.2,194.8,177.8,194.8s212.6-83.7,211.9-194.8
			C3484.4,691.5,3410.3,613.8,3302.7,613.8z M3371.3,870.4c-25.6,25.7-62.3,41.1-98.2,41.1c-28.4,0-53.7-10.6-71.4-29.9
			c-17.9-19.5-26.3-46-23.8-74.8c5.5-62.8,59.1-110.1,124.7-110.1c60.9,0,99,39.6,99.4,103.4
			C3402.3,832.4,3385.5,856.1,3371.3,870.4z"/>
		<path class="st0" d="M586.1,993.6h-85.7l42.1-186.8c0.2-2.5,0.3-5,0.3-7.5c-0.4-63.8-38.5-103.4-99.4-103.4
			c-65.6,0-119.2,47.3-124.7,110.1c-2.5,28.7,5.9,55.3,23.8,74.8c17.7,19.3,43,29.9,71.4,29.9c25.1,0,50.6-7.5,72.4-20.8l-22,97.8
			l-0.5,0.1c0,0-33,5.9-49.9,5.9c-107.6,0-187.2-87.2-177.8-194.8C245.4,691.2,335.7,613,443.4,613S625,690.8,625.7,798.8
			c0.1,10.2-0.8,20.1-2.4,29.8L586.1,993.6z"/>
		<path class="st0" d="M1532.5,706.8h64.7l17.4-77h-64.6l26.5-117.6h-89.9l-79,350.3c0,0-1.8,8-2.4,10.6
			c-14.4,61.3,1.6,121.2,81.3,121.2c0,0,9.7,0,11.4,0l43.3-77h-37.7c-15.9,0-14.7-16.1-10.9-32.8
			C1502,842.8,1532.5,706.8,1532.5,706.8z"/>
		<path class="st0" d="M1729.1,706.8h64.7l17.4-77h-64.6l26.5-117.6h-89.9l-79,350.3c0,0-1.8,8-2.4,10.6
			c-14.4,61.3,1.6,121.2,81.3,121.2c0,0,9.7,0,11.4,0l43.3-77h-37.7c-15.9,0-14.8-16.1-10.9-32.8
			C1698.5,842.8,1729.1,706.8,1729.1,706.8z"/>
		<path class="st0" d="M207.5,993.9c-63.8-6.1-120.7-33.3-158.2-76.2C11.4,874.4-5.2,818.4,1.4,756C22.6,554.3,199,513.2,344,514.5
			l-18.6,83c-197.5,3.3-233.7,92.6-241.5,167.2C73.7,862,148.8,908.8,226,912.1L207.5,993.9z"/>
		<path class="st0" d="M2686.8,629.8l-82.2,364.6h90c15.7-69.8,55.3-245.6,82.1-364.6H2686.8z"/>
		<g>
			<path class="st0" d="M3112.9,589.2c10.1-45,17.4-77,17.4-77h-89.9l-17.4,77H3112.9z"/>
			<path class="st0" d="M3013.9,629.8l-82.2,364.6h90c15.7-69.8,55.3-245.6,82.1-364.6H3013.9z"/>
		</g>
		<g>
			<path class="st0" d="M3563.3,629.8l-82.2,364.6h90c15.7-69.8,55.3-245.6,82.1-364.6H3563.3z"/>
		</g>
		<path class="st0" d="M3641.8,629.8l-17.4,77h101.2c12.4,0,21.6,11.5,18.9,23.6l-59.5,264h90c12.1-53.8,38.5-170.9,62.2-275.9
			c10.2-45.4-24.3-88.6-70.9-88.6L3641.8,629.8L3641.8,629.8z"/>
		<g>
			<path class="st0" d="M2746.4,512.2h-33.1h-36.3c-28.7,0-55.4,14.7-70.7,39l-279.8,443.2H2442l255.8-405.2h88
				c10.1-45,17.4-77,17.4-77L2746.4,512.2L2746.4,512.2z"/>
		</g>
		<path class="st0" d="M1913,891.8l268.5-131.4c-16.2-87.1-84.6-146.6-178.7-146.6c-107.6,0-197.9,78.2-207.3,185.8
			c-9.4,107.6,70.2,194.8,177.8,194.8c17.4,0,34.8-2.2,51.6-6.3c1.8-0.5,3.7-0.9,5.5-1.4l22.8-100.9c-23.3,16.4-51.8,25.7-79.9,25.7
			C1950.4,911.5,1929.5,904.6,1913,891.8z M1878.1,806.8c5.5-62.8,59.1-110.1,124.7-110.1c33.3,0,59.7,11.8,77,33l-201.5,98.6
			C1877.5,821.3,1877.5,814.1,1878.1,806.8z"/>
		<path class="st0" d="M1130.7,891.8l268.5-131.4c-16.2-87.1-84.6-146.6-178.7-146.6c-107.6,0-197.9,78.2-207.3,185.8
			c-9.4,107.6,70.2,194.8,177.8,194.8c17.4,0,34.8-2.2,51.6-6.3c1.8-0.5,3.7-0.9,5.5-1.4l22.8-100.9c-23.3,16.4-51.8,25.7-79.9,25.7
			C1168.1,911.5,1147.2,904.6,1130.7,891.8z M1095.8,806.8c5.5-62.8,59.1-110.1,124.7-110.1c33.3,0,59.7,11.8,77,33L1096,828.3
			C1095.2,821.3,1095.1,814.1,1095.8,806.8z"/>
	</g>
	<g>
		<g>
			<g>
				<path class="st0" d="M128.7,2.4H202l-3.1,15.2H143l-5.5,26.3h51.8l-3,14.4h-52l-6.1,29.4h56.3l-3.1,15.2h-73.6L128.7,2.4z"/>
				<path class="st0" d="M217.9,2.4h40.4c31.4,0,31.4,21.3,31.4,30.7c0,0.6-0.4,31.3-36.9,31.3h-30.1l-8,38.6H197L217.9,2.4z
					 M225.6,50h26.6c15.8,0,19.9-10.6,19.9-19.4c0-5.6-2.4-13.8-16.8-13.8h-22.8L225.6,50z"/>
				<path class="st0" d="M348.7,0c26.5,0,43.9,18.2,43.9,43.9c0,42.2-26.3,61.4-53.2,61.4c-28.7,0-44.6-19-44.6-43.9
					C294.7,19.1,322.5,0,348.7,0z M339.9,91c23.2,0,35.1-24.1,35.1-46.5c0-18.7-9.3-30.1-26.9-30.1c-23.9,0-35.8,24.1-35.8,46.5
					C312.3,79.5,322.3,91,339.9,91z"/>
				<path class="st0" d="M477.6,35.9c0-14.1-8.3-21.5-22.7-21.5c-23.9,0-35.8,24.1-35.8,46.5c0,18.7,10,30.1,27.6,30.1
					c18.2,0,24.1-16.2,26-23.1h17.6c-5.8,25.3-23.2,37.5-44.2,37.5c-28.7,0-44.6-19-44.6-43.9c0-42.2,27.7-61.4,53.9-61.4
					c23.8,0,40.4,12.8,39.7,35.9H477.6z"/>
				<path class="st0" d="M518.9,2.4h17.6l-8.3,40h47l8.3-40h17.6l-20.8,100.5h-17.6l9.4-45.3h-47l-9.4,45.3H498L518.9,2.4z"/>
				<path class="st0" d="M650.8,2.4h82.8l-3.2,15.2h-32l-17.7,85.3H663l17.7-85.3h-33.1L650.8,2.4z"/>
				<path class="st0" d="M732.6,2.4h17.9l9.4,79.4h0.3l42-79.4h18.7l-55.2,100.5h-20L732.6,2.4z"/>
				<path class="st0" d="M935.6,102.9h-11.3V92.4h-0.3c-7,8.9-18.3,13-26.7,13c-28.7,0-44.6-19-44.6-43.9
					c0-42.2,27.7-61.4,53.9-61.4c23.7,0,41.8,11,42,34.5H931c-0.7-13.7-10.1-20.1-24.9-20.1c-23.9,0-35.8,24.1-35.8,46.5
					c0,18.7,10,30.1,27.6,30.1c17.3,0,26.8-11.5,30.6-27.6h-27.6l2.8-13.4h43.2L935.6,102.9z"/>
				<path class="st0" d="M1007,2.4h18.6l17.5,100.5h-17.9l-4.1-26.6h-40l-15.5,26.6h-18.9L1007,2.4z M1013,20.1h-0.3l-24.2,42.8
					h30.7L1013,20.1z"/>
				<path class="st0" d="M1073,2.4h24.2l11,76.6h0.3l43.6-76.6h24.9l-20.7,100.5h-16.9l17.5-80.5h-0.3l-45.5,80.5h-13.8l-12.7-80.5
					h-0.3l-15.3,80.5h-16.9L1073,2.4z"/>
				<path class="st0" d="M1197.8,2.4h73.2l-3.1,15.2H1212l-5.5,26.3h51.8l-3,14.4h-52l-6.1,29.4h56.3l-3.1,15.2h-73.6L1197.8,2.4z"
					/>
			</g>
		</g>
		<g>
			<g>
				<g>
					<path class="st0" d="M527.6,448.2l0.9-4.2c-7.9,2.3-18.7,4.2-33,4.2h-33.1c-18.3,0-35.4-8.2-46.8-22.5
						c-11.4-14.3-15.7-32.8-11.7-50.7l32-141.8h65.8L469,378.8c-0.6,2.6,0,5.2,1.7,7.2c1.6,2,4.1,3.2,6.7,3.2h46.4
						c10.1,0,18.7-6.9,20.9-16.7l31.4-139.3h65.8l-48.5,215L527.6,448.2L527.6,448.2z"/>
					<path class="st0" d="M631.2,241.8l-26.4,117.1l-8.8,39l0,0l-9.4,41.8h-48.3l2.3-10.4c0,0-12.3,10.4-45.1,10.4h-33.1
						c-33,0-57.4-30.6-50.2-62.7l30.5-135.1h48.3l-30.5,135.1c-2.4,10.7,5.7,20.9,16.7,20.9h46.4c14,0,26.2-9.7,29.3-23.4
						l29.9-132.7L631.2,241.8 M652.6,224.7h-21.4h-48.3h-13.7l-3,13.4l-29.9,132.7c-1.3,5.9-6.5,10-12.5,10h-46.4l30.5-135.1
						l4.7-20.9h-21.4h-48.3h-13.7l-3,13.4l-30.5,135.1c-4.6,20.4,0.2,41.5,13.3,57.9c13.1,16.4,32.6,25.7,53.5,25.7h33.1
						c8.2,0,15.4-0.6,21.7-1.5l-0.3,1.5h21.4h48.3h13.7l3-13.4l9.4-41.8l8.8-39l26.4-117.1L652.6,224.7L652.6,224.7z"/>
				</g>
				<g>
					<path class="st0" d="M1113.1,448.2l48.5-215h65.8l-0.9,4.1c7.9-2.3,18.7-4.1,33-4.1h43.6l-13.3,58.9h-58.5
						c-10.1,0-18.7,6.9-20.9,16.7l-31.4,139.3L1113.1,448.2L1113.1,448.2z"/>
					<path class="st0" d="M1292.3,241.8l-9.4,41.8h-51.7c-14,0-26.2,9.7-29.3,23.4l-4.3,19.1l-1.1,4.8l-20.7,91.7l-3.8,17l0,0h-48.3
						l35.2-156.1l0,0l9.4-41.8h0l0,0h48.3l-2.3,10.4c0,0,12.3-10.4,45.1-10.4L1292.3,241.8 M1313.8,224.7h-21.4h-32.9
						c-8.2,0-15.4,0.6-21.6,1.5l0.3-1.5h-21.4h-48.3h-13.7l-3,13.4l-9.4,41.8l-35.2,156.1l-4.7,20.9h21.4h48.3h13.7l3-13.4l3.8-17
						l20.7-91.7l1.1-4.8l4.3-19.1c1.3-5.9,6.5-10,12.5-10h51.7h13.7l3-13.4l9.4-41.8L1313.8,224.7L1313.8,224.7z"/>
				</g>
				<g>
					<path class="st0" d="M943.3,448.2c-18.3,0-35.4-8.2-46.8-22.5c-11.5-14.3-15.7-32.8-11.7-50.7l17.8-79
						c8.3-37,40.7-62.8,78.6-62.8h74.7c18.3,0,35.4,8.2,46.8,22.5c11.4,14.3,15.7,32.8,11.7,50.7l-2.2,9.6
						c-5.6,24.7-23.1,43.9-45.8,52h34.1l-3.9,17.5c-8.3,37-40.7,62.8-78.6,62.8H943.3z M949.8,378.8c-0.6,2.6,0,5.2,1.7,7.2
						c1.6,2,4.1,3.2,6.7,3.2h56.6c8.8,0,16.4-6,18.3-14.7l0.6-2.5h-82.4L949.8,378.8z M1035.9,313.2c6.5,0,12.1-4.4,13.5-10.8
						c0.6-2.5,0-5.1-1.6-7.1s-4-3.1-6.6-3.1h-54.7c-10.1,0-18.7,6.9-20.9,16.7l-1,4.3L1035.9,313.2L1035.9,313.2z"/>
					<path class="st0" d="M1055.8,241.8c33,0,57.4,30.6,50.2,62.7l-2.2,9.6c-6.5,28.9-32.2,49.5-61.9,49.5h-97.5l-3,13.4
						c-2.4,10.7,5.7,20.9,16.7,20.9h56.6c12.8,0,23.9-8.9,26.7-21.3h48.3l-1.6,7c-7.4,32.8-36.6,56.1-70.2,56.1h-74.7
						c-33,0-57.4-30.6-50.2-62.7l17.8-79c7.4-32.8,36.6-56.1,70.2-56.1L1055.8,241.8 M954,321.8h82c10.5,0,19.6-7.3,21.9-17.5
						c2.4-10.6-5.7-20.7-16.5-20.7h-54.7c-14,0-26.2,9.7-29.2,23.4L954,321.8 M1055.8,224.7h-74.7c-42,0-77.7,28.6-86.9,69.5
						l-17.8,79c-4.6,20.4,0.2,41.5,13.3,57.9c13.1,16.4,32.6,25.7,53.5,25.7h74.7c42,0,77.7-28.6,86.9-69.5l1.6-7l4.7-20.9h-14.4
						c11.6-10.8,20.1-25,23.8-41.5l2.2-9.6c4.6-20.4-0.2-41.5-13.3-57.9C1096.3,234,1076.8,224.7,1055.8,224.7L1055.8,224.7z
						 M977.3,304.6c2.3-2.4,5.6-3.9,9.2-3.9h54.4c-0.6,2.3-2.7,3.9-5.1,3.9H977.3L977.3,304.6z M958.2,380.7h57c-0.1,0-0.2,0-0.4,0
						L958.2,380.7L958.2,380.7L958.2,380.7z"/>
				</g>
				<g>
					<path class="st0" d="M619.4,469.3l53.2-236.1h65.8l-0.9,4.2c7.9-2.3,18.7-4.2,33-4.2H811c18.3,0,35.4,8.2,46.8,22.5
						c11.4,14.3,15.7,32.8,11.7,50.7l-15.5,68.8c-8.3,37-40.7,62.8-78.6,62.8h-47.3c-16.4,0-27.4-2.5-34.7-5.4l-8.3,36.7
						L619.4,469.3L619.4,469.3z M742.3,292.2c-10.1,0-18.7,6.9-20.9,16.7l-13.5,59.7c-0.6,2.6,0,5.2,1.7,7.2c1.6,2,4.1,3.2,6.7,3.2
						h53.9c10.1,0,18.7-6.9,20.9-16.7l13.5-59.7c0.6-2.6,0-5.2-1.7-7.2c-1.6-2-4.1-3.2-6.7-3.2L742.3,292.2L742.3,292.2z"/>
					<path class="st0" d="M811,241.8c33,0,57.4,30.6,50.2,62.7l-15.5,68.8c-7.4,32.8-36.6,56.1-70.2,56.1h-47.3
						c-32.9,0-40.4-10.4-40.4-10.4l-3.3,14.4l-1.4,6.2l0,0l0,0l0,0l-4.8,21.1h-48.2l4.8-21.1h0l0,0l7.3-32.3l27.9-123.7l0,0l7-31.2
						l2.4-10.6l0,0h48.3l-2.3,10.4c0,0,12.3-10.4,45.1-10.4h12.2h8.8L811,241.8 M710.7,317.3L710.7,317.3l-11.2,49.5
						c-2.4,10.7,5.7,20.9,16.7,20.9h53.9c14,0,26.2-9.7,29.3-23.4l13.5-59.7c2.4-10.7-5.7-20.9-16.7-20.9H787h-6.2h-38.5
						c-14,0-26.2,9.7-29.3,23.4L710.7,317.3 M811,224.7h-19.5h-8.8h-12.2c-8.2,0-15.4,0.6-21.7,1.5l0.3-1.5h-21.4h-48.3h-13.7
						l-3,13.4l-2.4,10.6l-7,31.2l-27.9,123.7l-7.3,32.3l-3.9,17.4l0,0l-0.8,3.7l-4.7,20.9h21.4h48.2h13.7l3-13.4l4.7-20.9
						c7.4,1.8,16.7,3,28.4,3h47.3c42,0,77.7-28.6,86.9-69.5l15.5-68.8c4.6-20.4-0.2-41.5-13.3-57.9C851.5,234,832,224.7,811,224.7
						L811,224.7z M727.4,321l2.3-10.3c1.3-5.9,6.5-10,12.5-10h38.5h6.2h9.2l-13.5,59.7c-1.3,5.9-6.5,10-12.5,10h-53.9L727.4,321
						L727.4,321L727.4,321z"/>
				</g>
				<g>
					<g>
						<g>
							<path class="st0" d="M162.4,448.2c-18.3,0-35.4-8.2-46.8-22.5c-11.4-14.3-15.7-32.8-11.7-50.7l1.5-6.7l6.9-0.4h58.9
								l-2.4,10.9c-0.6,2.6,0,5.2,1.7,7.2c1.6,2,4.1,3.2,6.7,3.2h110.5c10.1,0,18.7-6.9,20.9-16.7l5.1-22.7c0.9-4,0-8.1-2.6-11.2
								c-2.5-3.2-6.3-5-10.4-5H193.6c-19.6,0-37.9-8.8-50.2-24.1c-12.3-15.3-16.8-35.1-12.5-54.3l5-22.3c8.3-37,40.7-62.8,78.6-62.8
								h130c18.3,0,35.4,8.2,46.9,22.6c11.5,14.3,15.7,32.8,11.6,50.7l-1.5,6.7l-6.9,0.3h-58.5l2.4-10.5c0.7-3,0.1-5.6-1.6-7.6
								s-4.1-3.2-6.7-3.2H219.7c-10.1,0-18.7,6.9-20.9,16.7l-2.9,12.7c-0.9,4,0.1,8.1,2.6,11.2c2.5,3.2,6.3,5,10.4,5h121.7
								c16,0,30.9,7.2,40.9,19.7c10,12.5,13.7,28.6,10.1,44.2L371,385.6c-8.4,36.9-40.7,62.7-78.5,62.7L162.4,448.2L162.4,448.2z"/>
							<path class="st0" d="M344.5,178.6c33,0,57.5,30.7,50.1,62.8l-0.1,0.3h-47.7l0.1-0.4c2.4-10.7-5.7-20.9-16.7-20.9H219.7
								c-14,0-26.2,9.7-29.3,23.4l-2.9,12.7c-3.1,13.7,7.3,26.7,21.3,26.7h121.7c28.1,0,48.9,26.1,42.6,53.5l-10.7,46.9
								c-7.5,32.8-36.6,56-70.2,56H162.4c-33,0-57.4-30.6-50.2-62.7l0.1-0.4h48.3l-0.1,0.4c-2.4,10.7,5.7,20.9,16.7,20.9h110.5
								c14,0,26.2-9.7,29.3-23.4l5.1-22.7c3.1-13.7-7.3-26.7-21.3-26.7H193.6c-35.7,0-62.2-33.1-54.3-68l5-22.3
								c7.4-32.8,36.6-56.1,70.2-56.1L344.5,178.6 M344.5,161.5h-130c-42,0-77.7,28.6-86.9,69.5l-5,22.3
								c-4.9,21.7,0.3,44.1,14.2,61.5c13.9,17.4,34.6,27.3,56.9,27.3h107.1c2,0,3.2,1.1,3.7,1.8c0.5,0.7,1.4,2.1,0.9,4l-5.1,22.7
								c-1.3,5.9-6.5,10-12.5,10H177.2l0.1-0.4l4.7-20.9h-21.5h-48.3H98.6l-3,13.4l-0.1,0.4c-4.6,20.4,0.2,41.5,13.3,57.9
								s32.6,25.7,53.5,25.7h130.1c41.9,0,77.6-28.5,86.9-69.3l10.7-46.9c4.1-18.2-0.1-36.9-11.8-51.5s-29-22.9-47.6-22.9H208.9
								c-2,0-3.2-1.1-3.7-1.8c-0.5-0.7-1.4-2.1-0.9-4l2.9-12.7c1.3-5.9,6.5-10,12.5-10h110.5l-0.1,0.4l-4.7,20.9h21.4h47.7h13.7
								l3-13.3l0.1-0.3c4.7-20.5-0.2-41.6-13.2-58C385,170.9,365.5,161.5,344.5,161.5L344.5,161.5z"/>
						</g>
					</g>
				</g>
			</g>
			<g>
				<g>
					<path class="st1" d="M504.2,406l0.9-4.2c-7.9,2.3-18.7,4.2-33,4.2h-33.1c-18.3,0-35.4-8.2-46.8-22.5
						c-11.4-14.3-15.7-32.8-11.7-50.7l32-141.8h65.8l-32.8,145.6c-0.6,2.6,0,5.2,1.7,7.2c1.6,2,4.1,3.2,6.7,3.2h46.4
						c10.1,0,18.7-6.9,20.9-16.7L552.7,191h65.8l-48.5,215L504.2,406L504.2,406z"/>
					<path class="st0" d="M607.8,199.5l-26.4,117.1l-8.8,39l0,0l-9.4,41.8h-48.3l2.3-10.4c0,0-12.3,10.4-45.1,10.4h-33.1
						c-33,0-57.4-30.6-50.2-62.7l30.5-135.1h48.3l-30.5,135.1c-2.4,10.7,5.7,20.9,16.7,20.9h46.4c14,0,26.2-9.7,29.3-23.4
						l29.9-132.7L607.8,199.5 M629.2,182.4h-21.4h-48.3h-13.7l-3,13.4l-29.9,132.7c-1.3,5.9-6.5,10-12.5,10h-46.4l30.5-135.1
						l4.7-20.9h-21.4h-48.3h-13.7l-3,13.4l-30.5,135.1c-4.6,20.4,0.2,41.5,13.3,57.9c13.1,16.4,32.6,25.7,53.5,25.7h33.1
						c8.2,0,15.4-0.6,21.7-1.5l-0.3,1.5h21.4h48.3h13.7l3-13.4l9.4-41.8l8.8-39l26.4-117.1L629.2,182.4L629.2,182.4z"/>
				</g>
				<g>
					<path class="st1" d="M1089.7,406l48.5-215h65.8l-0.9,4.1c7.9-2.3,18.7-4.1,33-4.1h43.6l-13.3,58.9h-58.5
						c-10.1,0-18.7,6.9-20.9,16.7L1155.5,406L1089.7,406L1089.7,406z"/>
					<path class="st0" d="M1268.9,199.6l-9.4,41.8h-51.7c-14,0-26.2,9.7-29.3,23.4l-4.3,19.1l-1.1,4.8l-20.7,91.7l-3.8,17l0,0h-48.3
						l35.2-156.1l0,0l9.4-41.8h0l0,0h48.3l-2.3,10.4c0,0,12.3-10.4,45.1-10.4L1268.9,199.6 M1290.4,182.4h-21.4H1236
						c-8.2,0-15.4,0.6-21.7,1.5l0.3-1.5h-21.4H1145h-13.7l-3,13.4l-9.4,41.8l-35.2,156.1l-4.7,20.9h21.4h48.3h13.7l3-13.4l3.8-17
						l20.7-91.7l1.1-4.8l4.3-19.1c1.3-5.9,6.5-10,12.5-10h51.7h13.7l3-13.4l9.4-41.8L1290.4,182.4L1290.4,182.4z"/>
				</g>
				<g>
					<path class="st1" d="M919.9,406c-18.3,0-35.4-8.2-46.8-22.5c-11.4-14.3-15.7-32.8-11.7-50.7l17.8-79
						c8.3-37,40.7-62.8,78.6-62.8h74.7c18.3,0,35.4,8.2,46.9,22.5c11.4,14.3,15.7,32.8,11.7,50.7l-2.2,9.6
						c-5.6,24.7-23.1,43.9-45.8,52h34.1l-3.9,17.4c-8.3,37-40.7,62.8-78.6,62.8L919.9,406L919.9,406z M926.4,336.6
						c-0.6,2.5,0,5.2,1.7,7.2c1.6,2,4.1,3.2,6.7,3.2h56.6c8.8,0,16.4-6,18.3-14.7l0.6-2.5h-82.4L926.4,336.6z M1012.5,271
						c6.5,0,12.1-4.4,13.5-10.8c0.6-2.5,0-5.1-1.6-7.1c-1.6-2-4-3.1-6.5-3.1h-54.7c-10.1,0-18.7,6.9-20.9,16.7l-1,4.3L1012.5,271
						L1012.5,271z"/>
					<path class="st0" d="M1032.4,199.6c33,0,57.4,30.6,50.2,62.7l-2.2,9.6c-6.5,28.9-32.2,49.5-61.9,49.5h-97.5l-3,13.4
						c-2.4,10.7,5.7,20.9,16.7,20.9h56.6c12.8,0,23.9-8.9,26.7-21.3h48.3l-1.6,7c-7.4,32.8-36.6,56.1-70.2,56.1h-74.6
						c-33,0-57.4-30.6-50.2-62.7l17.8-79c7.4-32.8,36.6-56.1,70.2-56.1L1032.4,199.6 M930.6,279.5h82c10.5,0,19.6-7.3,21.9-17.5
						c2.4-10.6-5.7-20.7-16.5-20.7h-54.7c-14,0-26.2,9.7-29.2,23.4L930.6,279.5 M1032.4,182.4h-74.7c-42,0-77.7,28.6-86.9,69.5
						l-17.8,79c-4.6,20.4,0.2,41.5,13.3,57.9c13.1,16.4,32.6,25.7,53.5,25.7h74.7c42,0,77.7-28.6,86.9-69.5l1.6-7l4.7-20.9h-14.4
						c11.6-10.8,20.1-25,23.8-41.5l2.2-9.6c4.6-20.4-0.2-41.5-13.3-57.9C1072.9,191.8,1053.4,182.4,1032.4,182.4L1032.4,182.4z
						 M953.9,262.4c2.3-2.4,5.6-3.9,9.2-3.9h54.4c-0.6,2.3-2.7,3.9-5.1,3.9H953.9L953.9,262.4z M934.8,338.5h57c-0.1,0-0.2,0-0.4,0
						L934.8,338.5L934.8,338.5L934.8,338.5z"/>
				</g>
				<g>
					<path class="st1" d="M596,427L649.2,191H715l-0.9,4.2c7.9-2.3,18.7-4.2,33-4.2h40.6c18.3,0,35.4,8.2,46.8,22.5
						c11.4,14.3,15.7,32.8,11.7,50.7l-15.5,68.8c-8.3,37-40.6,62.8-78.6,62.8h-47.3c-16.4,0-27.4-2.5-34.7-5.4l-8.3,36.7H596z
						 M718.9,249.9c-10.1,0-18.7,6.9-20.9,16.7l-13.5,59.7c-0.6,2.6,0,5.2,1.7,7.2c1.6,2,4.1,3.2,6.7,3.2h53.9
						c10.1,0,18.7-6.9,20.9-16.7l13.5-59.7c0.6-2.6,0-5.2-1.7-7.2c-1.6-2-4.1-3.2-6.7-3.2L718.9,249.9L718.9,249.9z"/>
					<path class="st0" d="M787.6,199.5c33,0,57.4,30.6,50.2,62.7L822.3,331c-7.4,32.8-36.6,56.1-70.2,56.1h-47.3
						c-32.9,0-40.4-10.4-40.4-10.4l-3.3,14.4l-1.4,6.2l0,0l0,0l0,0l-4.8,21.1h-48.2l4.8-21.1h0l0,0l7.3-32.3l27.9-123.7l0,0l7-31.2
						l2.4-10.6l0,0h48.3L702,210c0,0,12.3-10.4,45.1-10.4h12.2h8.8L787.6,199.5 M687.3,275L687.3,275l-11.2,49.5
						c-2.4,10.7,5.7,20.9,16.7,20.9h53.9c14,0,26.2-9.7,29.3-23.4l13.5-59.7c2.4-10.7-5.7-20.9-16.7-20.9h-9.2h-6.2h-38.5
						c-14,0-26.2,9.7-29.3,23.4L687.3,275 M787.6,182.4h-19.5h-8.8h-12.2c-8.2,0-15.4,0.6-21.7,1.5l0.3-1.5h-21.4h-48.3h-13.7
						l-3,13.4l-2.4,10.6l-7,31.2L602,361.3l-7.3,32.3l-3.8,17.1l0,0l-0.9,4l-4.7,20.9h21.4H655h13.7l3-13.4l4.7-20.9
						c7.4,1.8,16.7,3,28.4,3h47.3c42,0,77.7-28.6,86.9-69.5l15.5-68.8c4.6-20.4-0.2-41.5-13.3-57.9
						C828.1,191.8,808.6,182.4,787.6,182.4L787.6,182.4z M692.9,328.2l11.1-49.5l0,0l2.3-10.3c1.3-5.9,6.5-10,12.5-10h38.5h6.2h9.2
						l-13.5,59.7c-1.3,5.9-6.5,10-12.5,10L692.9,328.2L692.9,328.2z"/>
				</g>
				<g>
					<g>
						<g>
							<path class="st1" d="M139,406c-18.3,0-35.4-8.2-46.9-22.5c-11.4-14.3-15.7-32.8-11.7-50.7l1.5-6.7l6.9-0.4h59l-2.4,10.5
								c-0.7,3-0.1,5.6,1.6,7.6c1.6,2,4.1,3.2,6.7,3.2h110.5c10.1,0,18.7-6.9,20.9-16.7l5.1-22.7c0.9-4,0-8.1-2.6-11.2
								c-2.5-3.2-6.3-5-10.4-5H170.2c-19.6,0-37.9-8.8-50.2-24.1s-16.8-35.1-12.5-54.3l5-22.3c8.3-37,40.7-62.8,78.6-62.8h130
								c18.3,0,35.4,8.2,46.9,22.6c11.4,14.3,15.7,32.8,11.6,50.7l-1.5,6.7l-6.9,0.3h-58.5l2.4-10.5c0.7-3,0.1-5.6-1.6-7.6
								c-1.6-2.1-4.1-3.2-6.7-3.2H196.3c-10.1,0-18.7,6.9-20.9,16.7l-2.9,12.7c-0.9,4,0.1,8.1,2.6,11.2c2.5,3.2,6.3,5,10.4,5h121.7
								c16,0,30.9,7.2,40.9,19.7c10,12.5,13.7,28.6,10.1,44.2l-10.7,46.9c-8.4,36.9-40.7,62.7-78.5,62.7L139,406L139,406z"/>
							<path class="st0" d="M321.1,136.4c33,0,57.5,30.7,50.1,62.8l-0.1,0.3h-47.7l0.1-0.4c2.4-10.7-5.7-20.9-16.7-20.9H196.3
								c-14,0-26.2,9.7-29.3,23.4l-2.9,12.7c-3.1,13.7,7.3,26.7,21.3,26.7h121.7c28.1,0,48.9,26.1,42.6,53.5l-10.7,46.9
								c-7.5,32.8-36.6,56-70.2,56H139c-33,0-57.4-30.6-50.2-62.7l0.1-0.4h48.3l-0.1,0.4c-2.4,10.7,5.7,20.9,16.7,20.9h110.5
								c14,0,26.2-9.7,29.3-23.4l5.1-22.7c3.1-13.7-7.3-26.7-21.3-26.7H170.2c-35.7,0-62.2-33.1-54.3-68l5-22.3
								c7.4-32.8,36.6-56.1,70.2-56.1L321.1,136.4 M321.1,119.3h-130c-42,0-77.7,28.6-86.9,69.5l-5,22.3
								c-4.9,21.7,0.3,44.1,14.2,61.5c13.9,17.4,34.6,27.3,56.9,27.3h107.1c2,0,3.2,1.1,3.7,1.8c0.5,0.7,1.4,2.1,0.9,4l-5.1,22.7
								c-1.3,5.9-6.5,10-12.5,10H153.8l0.1-0.5l4.7-20.9h-21.4H88.9H75.2l-3,13.4l-0.1,0.4c-4.6,20.4,0.2,41.5,13.3,57.9
								c13.1,16.4,32.6,25.7,53.5,25.7H269c41.9,0,77.6-28.5,86.9-69.3l10.7-46.9c4.1-18.2-0.1-36.9-11.8-51.5
								c-11.6-14.6-29-22.9-47.6-22.9H185.5c-2,0-3.2-1.1-3.7-1.8c-0.5-0.7-1.4-2.1-0.9-4l2.9-12.7c1.3-5.9,6.5-10,12.5-10h110.5
								l-0.1,0.4l-4.7,20.9h21.4h47.7h13.7l3-13.3l0.1-0.3c4.7-20.4-0.2-41.6-13.2-58C361.6,128.7,342.1,119.3,321.1,119.3
								L321.1,119.3z"/>
						</g>
					</g>
				</g>
			</g>
			<rect x="357.3" y="249.1" class="st0" width="31.6" height="49.4"/>
			<rect x="146.7" y="295.4" class="st0" width="31.6" height="49.4"/>
		</g>
	</g>
</g>
</svg>
