<?xml version="1.0" encoding="utf-8"?>
<!-- Generator: Adobe Illustrator 26.0.3, SVG Export Plug-In . SVG Version: 6.00 Build 0)  -->
<svg version="1.1" id="Layer_1" xmlns="http://www.w3.org/2000/svg" xmlns:xlink="http://www.w3.org/1999/xlink" x="0px" y="0px"
	 viewBox="0 0 3839 1303.2" style="enable-background:new 0 0 3839 1303.2;" xml:space="preserve">
<style type="text/css">
	.st0{fill:#C1C1C1;}
	.st1{fill:#FFF200;}
	.st2{fill:#DE0204;}
	.st3{fill:#E60008;}
</style>
<g>
	<g>
		<g>
			<polygon class="st0" points="3176.1,1294.3 3348.1,661.7 3100.9,661.7 2928.9,1294.3 			"/>
			<path class="st0" d="M1781.9,1147.3c-74.4,0-160.6-46.2-160.6-145.5c0-79.3,106.7-164,233.3-164c48.4,0,112.4,8.3,169,24.7
				c19.7-20.2,42.7-43.7,59.1-60.6c-93.8-72.1-235.3-116.4-370.5-116.4c-263.8,0-434.1,138.4-434.1,303.8
				c0,207,205.2,303.8,360.3,303.8c132.7,0,267.7-32.6,371.1-85.5l-17.3-110.1C1920.6,1127.1,1839.9,1147.3,1781.9,1147.3z"/>
			<path class="st0" d="M2974,661.7h-247.2l-13.2,48.7c-76.3-22.1-158.1-34-233-34c-263.8,0-419.9,173.5-419.9,362.6
				c0,154.9,131.5,264.2,286.6,264.2c101.7,0,181.3-18.6,246.3-75.9c0.7-0.6,1.4-1.1,2.1-1.7c13.8,29.2,46.6,69.6,128.8,68.7
				c90.4-1,125.3-27.8,128.8-36.8l31.1-114.3H2843L2974,661.7z M2670.2,865l-56.9,214c-11.3,41.6-110.9,81.2-193.7,54.9
				c-41.4-13.2-56.7-44.4-61.7-72.2c-4.5-25.2-0.2-51.1,10.6-74.3c7.2-15.5,19-40.6,37.4-80C2450.5,812,2686,806.9,2670.2,865z"/>
			<path class="st0" d="M3283.9,866.3c0,0,109.2-45.7,192.9-45.7c0,0,139.8-11.3,130.1,130.9c-3.9,57.3-22.7,123.4-53.5,199.1
				l-66.8,143.7h227.2c204.1-362.3,105.7-492.4,69.7-541.1c-116.3-157.5-457.8-31-457.8-31"/>
			<path class="st0" d="M1022.8,572.6c-364.1-96.2-670.3,260.3-980.2,721.7h516.4c100.7-187.5,281.1-495,432.1-471
				c72.9,11.6,87.9,220.4-13.8,471h158.7C1294.2,779,1186.8,615.9,1022.8,572.6z"/>
			<ellipse class="st0" cx="842.8" cy="1145" rx="155.5" ry="33"/>
			<g>
				<path class="st0" d="M1247.2,642.5c18.6,33.4,32.1,71.7,40.6,114.8c17.2-18.2,36.4-35.3,57.9-51.1
					c37.4-27.4,79.8-49.6,126.2-66.6c-46.2-50.9-113-82.9-187.2-82.9c-31.6,0-61.9,5.9-89.8,16.5
					C1215.2,593.4,1232.7,616.5,1247.2,642.5z"/>
			</g>
		</g>
		<path class="st1" d="M1998.2,547.5l44.2-8.2c68.2-12.7,170.4-51.4,173.4-94.2c0.2-3.5-0.3-5.3-0.6-5.6c-0.2-0.2-4.9-5-26.9-5
			c-4.3,0-8.2,0.2-11.4,0.3l-2.5,0.1c-8.1,0.3-16.1,0.5-23.7,0.5c-136.6,0-168-49.4-180.6-97.8l-0.6-2.2
			c-40.2-151.3,161.1-306.3,169.7-312.9L2169,0l64.8,158.4l-26.5,10.9c-1.6,0.7-164.7,70.8-140.8,149.8c1.7,5.6,2.5,7.2,2.8,7.5
			c8.8,6.7,70.9,9.1,104.3,10.4c89.3,3.5,139.4,43.8,137.6,110.4c-0.9,69.6-41.7,210.7-189.4,244.1l-18.7,4.2L1998.2,547.5z"/>
		<path class="st2" d="M2172.7,365.8c-115.9-4.6-124.7-9.2-133.5-38.3c-32.2-106.4,157.3-184.7,157.3-184.7l-39.8-97.3
			c0,0-195,148.2-159.3,282.7c7.5,28.4,17.7,84.1,176.1,78.2c20.2-0.8,74.2-4.7,71,40.9c-5.9,85.1-196.8,120.4-196.8,120.4l68,96
			c164.7-37.2,167.1-216.9,167.1-216.9C2284.7,376.5,2207.3,367.1,2172.7,365.8z"/>
		<g>
			<polygon class="st1" points="2947.9,133.6 3205,17.6 3229.4,155.3 3067.3,193.3 3078,244.1 3201.2,201.7 3235.2,300.5 
				3099.7,347.2 3110.6,399 3313.4,289.7 3319.2,425.3 3032.8,537 			"/>
			<polygon class="st2" points="3090.4,442.4 3066.4,328.3 3198.8,282.7 3183.4,238.1 3056.6,281.8 3033.4,171.8 3196.4,133.6 
				3183.1,58.9 2980.7,150.2 3047.1,465.7 3047.1,465.7 3052,488.9 3052.3,490.5 3052.3,490.5 3053.9,497.9 3289.7,406 
				3286.7,336.7 			"/>
		</g>
		<g>
			<path class="st1" d="M3543.6,558.2l11.2-31.2c4.7-13.5,14.2-54.7,0.9-82.3c-5.4-11.1-14.1-19.2-26.7-24.6
				c-5.1,0.3-10.1,0.4-15.2,0.4c-10.3,0-20.7-0.6-31-1.9c-33.1-4-64.2-13.9-91.1-28.8l-19,139.5l-94.2-10l18-406.5l124.3,16.4
				c20.8-6,43.2-9.1,66.3-9.1c10.3,0,20.7,0.6,31.1,1.9c108,12.9,187.8,89.9,178.1,171.7c-4.4,36.9-25.7,69.2-59.9,92.2
				c21.9,34.4,40.3,90.5,27.7,166.4l-4.9,29.4L3543.6,558.2z M3417.2,291.1c17.6,17.6,46.3,30.3,76.8,33.9
				c6.2,0.7,12.4,1.1,18.6,1.1c48.4,0,83.7-22.8,86.2-44c1.4-11.7-6.1-25.4-20.6-37.6c-17.9-15-43.8-25.5-71.2-28.8
				c-6.2-0.7-12.4-1.1-18.6-1.1c-24,0-47.4,5.8-64,16l-12,7.3l-5.8,42.6L3417.2,291.1z"/>
			<path class="st2" d="M3514.8,150.6c-46.1-5.5-89.4,3-122.2,21l2.3-16.8l-71.1-9.4l-15.4,348.3l39.7,4.2l21.7-159.3
				c27.7,26.5,68.8,45.9,116.4,51.6c16.2,1.9,32,2.1,47.1,0.8c89.7,30.9,48.5,145.6,48.5,145.6l53.9,11c15-90.3-19.3-150.2-44-170.3
				c42-17.2,71.4-48.4,76-86.9C3675.7,224.2,3607.2,161.6,3514.8,150.6z M3627.3,285.5c-5.4,45.1-68,76.2-136.7,68
				c-38.6-4.6-72.4-20.8-93.7-42.2l-25.9,18.4l19.8-145.1l18.7,21.5c25.7-15.7,62.4-23.5,101-18.9
				C3579.1,195.5,3632.7,240.5,3627.3,285.5z"/>
		</g>
		<g>
			<polygon class="st3" points="3133.5,1262.1 3305.5,629.6 3058.3,629.6 2886.3,1262.1 			"/>
			<path class="st3" d="M1739.3,1115.2c-74.4,0-160.6-46.2-160.6-145.5c0-79.3,106.7-164,233.3-164c48.4,0,112.4,8.3,169,24.7
				c19.7-20.2,42.7-43.7,59.1-60.6c-93.8-72.1-235.3-116.4-370.5-116.4c-263.8,0-434.1,138.4-434.1,303.8
				c0,207,205.2,303.8,360.3,303.8c132.7,0,267.7-32.6,371.1-85.5l-17.3-110.1C1877.9,1094.9,1797.3,1115.2,1739.3,1115.2z"/>
			<path class="st3" d="M2931.3,629.6h-247.2l-13.2,48.7c-76.3-22.1-158.1-34-233-34c-263.8,0-419.9,173.5-419.9,362.6
				c0,154.9,131.5,264.2,286.6,264.2c101.7,0,181.3-18.6,246.3-75.9c0.7-0.6,1.4-1.1,2.1-1.7c13.8,29.2,46.6,69.6,128.8,68.7
				c90.4-1,125.3-27.8,128.8-36.8l31.1-114.3h-41.4L2931.3,629.6z M2627.6,832.8l-56.9,214c-11.3,41.6-110.9,81.2-193.7,54.9
				c-41.4-13.2-56.7-44.4-61.7-72.2c-4.5-25.2-0.2-51.1,10.6-74.3c7.2-15.5,19-40.6,37.4-80C2407.9,779.8,2643.4,774.7,2627.6,832.8
				z"/>
			<path class="st3" d="M3241.2,834.1c0,0,109.2-45.7,192.9-45.7c0,0,139.8-11.3,130.1,130.9c-3.9,57.3-22.7,123.4-53.5,199.1
				l-66.8,143.7h227.2c204.1-362.3,105.7-492.4,69.7-541.1c-116.3-157.5-457.8-31-457.8-31"/>
			<path class="st3" d="M980.2,540.4C616.1,444.2,309.9,800.7,0,1262.1h516.4c100.7-187.5,281.1-495,432.1-471
				c72.9,11.6,87.9,220.4-13.8,471h158.7C1251.6,746.8,1144.2,583.8,980.2,540.4z"/>
			<ellipse class="st3" cx="800.2" cy="1112.9" rx="155.5" ry="33"/>
			<g>
				<path class="st3" d="M1204.6,610.4c18.6,33.4,32.1,71.7,40.6,114.8c17.2-18.2,36.4-35.3,57.9-51.1
					c37.4-27.4,79.8-49.6,126.2-66.6c-46.2-50.9-113-82.9-187.2-82.9c-31.6,0-61.9,5.9-89.8,16.5
					C1172.6,561.2,1190.1,584.3,1204.6,610.4z"/>
			</g>
		</g>
		<g>
			<path class="st1" d="M2483.9,591.5c-80.9,0-143.8-50.4-164.1-131.6l-62.9-251.3l101.4-25.4l62.9,251.3
				c11.8,47.2,48.7,52.3,64,52.3c23.3,0,46-10.5,59.2-27.5c12.1-15.5,15.6-35.6,9.9-58.1l-52-207.9l101.4-25.4l52,207.9
				c13.7,54.7,3.8,107.1-27.7,147.5C2594.6,566,2540.8,591.5,2483.9,591.5C2483.9,591.5,2483.9,591.5,2483.9,591.5z"/>
			<path class="st2" d="M2627.8,382.8l-45-180.1l-45.7,11.4l45.1,180.1h0c31.5,125.9-157.3,173.1-188.8,47.2c0,0,0,0,0,0L2337.4,218
				l-45.7,11.4l55.9,223.5l0,0C2394.3,639.7,2674.6,569.6,2627.8,382.8C2627.8,382.8,2627.8,382.8,2627.8,382.8z"/>
		</g>
		<g>
			<path class="st1" d="M2631.7,553.1l13.1-402.8l130.6,15.4c20-6,41.3-9.1,63.2-9.1c9.1,0,18.2,0.5,27.3,1.6
				c104.9,12.3,182,92.5,171.9,178.7c-9.2,78.6-85.4,135.6-181.1,135.6c0,0,0,0,0,0c-9.1,0-18.4-0.5-27.5-1.6
				c-29.4-3.5-57.3-12.3-81.9-25.8L2733.2,565L2631.7,553.1z M2768.1,340.3c16.5,18.2,43.6,31.1,72.4,34.4
				c5.2,0.6,10.5,0.9,15.7,0.9c43.9,0,82.2-22.5,85.5-50.1c1.6-13.7-5.7-29.1-20-42.2c-16.8-15.5-41.2-26.1-67-29.1
				c-5.2-0.6-10.5-0.9-15.7-0.9c-23.4,0-46.3,6.4-62.7,17.6l-9.2,6.3l-6.4,54.8L2768.1,340.3z"/>
			<path class="st2" d="M2862.6,186.7c-43.7-5.1-84.8,4-116.5,22.8l2.1-18.1l-75.8-8.9l-11.2,345.2l46.8,5.5l16.5-139.9
				c26.5,25.7,64.3,44.1,108,49.2c89.3,10.5,168.5-38.2,176.8-108.9C3017.6,262.9,2951.9,197.2,2862.6,186.7z M2970.1,328.9
				c-5.7,48.1-66.6,82.1-133,74.3c-37.3-4.4-69.9-21.2-90.3-43.7l-20.3,16l17.5-148.6l16,20.3c25-17.1,60.6-25.9,97.9-21.5
				C2924.4,233.6,2975.8,280.8,2970.1,328.9z"/>
		</g>
	</g>
</g>
</svg>
