<?xml version="1.0" encoding="utf-8"?>
<!-- Generator: Adobe Illustrator 26.0.1, SVG Export Plug-In . SVG Version: 6.00 Build 0)  -->
<svg version="1.1" id="Layer_1" xmlns="http://www.w3.org/2000/svg" xmlns:xlink="http://www.w3.org/1999/xlink" x="0px" y="0px"
	 viewBox="0 0 3839 821" style="enable-background:new 0 0 3839 821;" xml:space="preserve">
<style type="text/css">
	.st0{fill:#C5B9A4;}
	.st1{fill:#FF1E00;}
	.st2{fill:#EEE1D0;}
	.st3{fill:#FFFFFF;}
</style>
<g>
	<g>
		<g>
			<g>
				<path class="st2" d="M39,0C17.4,0,0,17.5,0,39v9v30.1v664.7v39.1c0,21.6,17.5,39,39,39h39.1h370.4h39.1c21.6,0,39-17.5,39-39
					v-21.4v-17.7V506V78.2V48.1v-9c0-21.6-17.5-39-39-39L39,0L39,0z M409.5,506h-14c-21.6,0-39,17.5-39,39v158.7
					c0,21.6-17.5,39-39,39H117.2c-21.6,0-39-17.5-39-39V117.2c0-21.6,17.5-39,39-39h292.3c21.6,0,39,17.5,39,39v349.7
					C448.5,488.5,431.1,506,409.5,506z"/>
				<path class="st2" d="M1639.1,0L1639.1,0c-21.6,0-39.1,17.5-39.1,39.1v246.8c0,11.4-5,22.3-13.7,29.7l-104.9,89.5
					c-21.8,18.6-53.8,18.6-75.6,0l-104.9-89.5c-8.7-7.4-13.7-18.3-13.7-29.7V39.1c0-21.6-17.5-39.1-39.1-39.1l0,0
					c-21.6,0-39.1,17.5-39.1,39.1v282.8c0,11.4,5,22.3,13.7,29.7l108.4,92.5c17.4,14.8,27.4,36.5,27.4,59.3v278.5
					c0,21.6,17.5,39.1,39.1,39.1h92c21.6,0,39.1-17.5,39.1-39.1V503.4c0-22.8,10-44.5,27.4-59.3l108.4-92.5
					c8.7-7.4,13.7-18.3,13.7-29.7V39.1C1678.2,17.5,1660.7,0,1639.1,0z"/>
				<path class="st2" d="M3799.9,0L3799.9,0c-21.6,0-39.1,17.5-39.1,39.1v246.8c0,11.4-5,22.3-13.7,29.7l-104.9,89.5
					c-21.8,18.6-53.8,18.6-75.6,0l-104.9-89.5c-8.7-7.4-13.7-18.3-13.7-29.7V39.1c0-21.6-17.5-39.1-39.1-39.1l0,0
					c-21.6,0-39.1,17.5-39.1,39.1v282.8c0,11.4,5,22.3,13.7,29.7l108.4,92.5c17.4,14.8,27.4,36.5,27.4,59.3v278.5
					c0,21.6,17.5,39.1,39.1,39.1h92c21.6,0,39.1-17.5,39.1-39.1V503.4c0-22.8,10-44.5,27.4-59.3l108.4-92.5
					c8.7-7.4,13.7-18.3,13.7-29.7V39.1C3839,17.5,3821.5,0,3799.9,0z"/>
				<path class="st2" d="M2308.7,39v361.3c0,21.6,17.5,39,39,39h308c21.6,0,39,17.5,39,39v225.4c0,21.6-17.5,39-39,39H2518
					c-21.6,0-39-17.5-39-39v-104c0-21.6-17.5-39-39-39h-92.1c-21.6,0-39,17.5-39,39v182.2c0,21.6,17.5,39,39,39h386.2
					c21.6,0,39-17.5,39-39V400.2c0-21.6-17.5-39-39-39h-308c-21.6,0-39-17.5-39-39v-205c0-21.6,17.5-39,39-39h229.8
					c21.6,0,39,17.5,39,39v92.1c0,21.6,17.5,39.1,39.1,39.1l0,0c21.6,0,39.1-17.5,39.1-39.1V39c0-21.6-17.5-39-39-39h-386.2
					C2326.2,0,2308.7,17.5,2308.7,39z"/>
				<path class="st2" d="M1756.3,39v361.3c0,21.6,17.5,39,39,39h308c21.6,0,39,17.5,39,39v225.4c0,21.6-17.5,39-39,39h-137.8
					c-21.6,0-39-17.5-39-39v-104c0-21.6-17.5-39-39-39h-92.1c-21.6,0-39,17.5-39,39v182.2c0,21.6,17.5,39,39,39h386.2
					c21.6,0,39-17.5,39-39V400.2c0-21.6-17.5-39-39-39h-308c-21.6,0-39-17.5-39-39v-205c0-21.6,17.5-39,39-39h229.8
					c21.6,0,39,17.5,39,39v92.1c0,21.6,17.5,39.1,39.1,39.1l0,0c21.6,0,39.1-17.5,39.1-39.1V39c0-21.6-17.5-39-39-39h-386.2
					C1773.8,0,1756.3,17.5,1756.3,39z"/>
				<path class="st2" d="M3293,39.1L3293,39.1c0-21.6-17.5-39.1-39.1-39.1h-357.2c-21.6,0-39.1,17.5-39.1,39.1v742.8
					c0,21.6,17.5,39.1,39.1,39.1h357.2c21.6,0,39.1-17.5,39.1-39.1l0,0c0-21.6-17.5-39.1-39.1-39.1h-187
					c-21.6,0-39.1-17.5-39.1-39.1V478.4c0-21.6,17.5-39.1,39.1-39.1h187c21.6,0,39.1-17.5,39.1-39.1l0,0c0-21.6-17.5-39.1-39.1-39.1
					h-279.1c-21.6,0-39.1-17.5-39.1-39.1V117.2c0-21.6,17.5-39.1,39.1-39.1h279.1C3275.5,78.2,3293,60.7,3293,39.1z"/>
				<path class="st2" d="M645.7,0c-21.6,0-39,17.5-39,39v712.8v30.1c0,21.6,17.5,39,39,39H953c99.6,0,180.3-80.7,180.3-180.3V180.3
					C1133.3,80.7,1052.6,0,953,0H645.7L645.7,0z M957.6,742.8H816c-21.6,0-39-17.5-39-39V117.2c0-21.6,17.5-39,39-39h141.6
					c53.9,0,97.6,43.7,97.6,97.6v469.4C1055.2,699.1,1011.5,742.8,957.6,742.8z"/>
			</g>
		</g>
	</g>
</g>
</svg>
