<?xml version="1.0" encoding="utf-8"?>
<!-- Generator: Adobe Illustrator 26.0.3, SVG Export Plug-In . SVG Version: 6.00 Build 0)  -->
<svg version="1.1" id="Layer_1" xmlns="http://www.w3.org/2000/svg" xmlns:xlink="http://www.w3.org/1999/xlink" x="0px" y="0px"
	 viewBox="0 0 3839 1588" style="enable-background:new 0 0 3839 1588;" xml:space="preserve">
<style type="text/css">
	.st0{fill:#444444;}
	.st1{fill:none;stroke:#BCBCBC;stroke-width:40.0464;stroke-linecap:round;stroke-miterlimit:10;}
	.st2{fill:#BCBCBC;}
	.st3{fill:#FFDD34;}
	.st4{fill:#7B46CE;}
	.st5{fill:none;stroke:#7B46CE;stroke-width:40.0464;stroke-linecap:round;stroke-miterlimit:10;}
	.st6{fill:#FF3ABD;}
	.st7{fill:#FFFFFF;}
	.st8{fill:none;stroke:#000000;stroke-width:37.9695;stroke-linecap:round;stroke-miterlimit:10;}
	.st9{clip-path:url(#SVGID_00000081610038574851757720000004703055712284585132_);}
	.st10{fill:none;stroke:#000000;stroke-width:6.6258;stroke-miterlimit:10;}
	.st11{clip-path:url(#SVGID_00000031907776501516129880000018222376151620435629_);}
	.st12{fill:none;stroke:#000000;stroke-width:6.2764;stroke-miterlimit:10;}
	.st13{fill:none;stroke:#000000;stroke-width:6.2897;stroke-miterlimit:10;}
	.st14{fill:none;stroke:#000000;stroke-width:40.6866;stroke-linecap:round;stroke-miterlimit:10;}
	.st15{clip-path:url(#SVGID_00000124852733242157232840000014443809471757947521_);}
	.st16{clip-path:url(#SVGID_00000123426405349407189900000007047956300891014281_);}
	.st17{fill:none;stroke:#FFFFFF;stroke-width:6.2764;stroke-miterlimit:10;}
</style>
<g>
	<g>
		<path class="st7" d="M190.5,1585.6v-123.4l-52.2,123.4h-12l-52-123.4v123.4H60.5V1447h21.6l50.5,118l50.3-118h21.6v138.7H190.5z"
			/>
		<path class="st7" d="M278.8,1588c-27.9,0-47.1-16.9-47.1-54.6V1447h13.9v86.5c0,28.3,11.7,41.8,33.4,41.8
			c21.4,0,33.2-13.5,33.2-41.8V1447h13.9v86.5C326.1,1571.1,306.9,1588,278.8,1588z"/>
		<path class="st7" d="M353.4,1585.6V1447h13.9V1573h57.4v12.6H353.4z"/>
		<path class="st7" d="M463,1459.6v126.1h-13.9v-126.1h-31.7V1447h77.3v12.6H463z"/>
		<path class="st7" d="M509.1,1585.6V1447H523v138.7H509.1z"/>
		<path class="st7" d="M680.4,1585.6v-123.4l-52.2,123.4h-12l-52-123.4v123.4h-13.9V1447h21.6l50.4,118l50.3-118h21.6v138.7H680.4z"
			/>
		<path class="st7" d="M721.6,1585.6V1447h75.8v12.6h-61.9v49.7h59.8v12.6h-59.8v51.2h61.9v12.6L721.6,1585.6L721.6,1585.6z"/>
		<path class="st7" d="M858.3,1585.6h-37.4V1447h32.7c25.1,0,39.8,3,52.9,10.9c20.6,12.2,31.5,32.8,31.5,58.9
			C938.1,1556.7,912.6,1585.6,858.3,1585.6z M898.9,1468.6c-10.5-6.4-23.6-9-44.7-9h-19.3V1573h19.3c24.6,0,38.8-3.6,49.9-12.4
			c12.7-10.3,19.9-26.3,19.9-44.5C924,1495.6,914.8,1478.2,898.9,1468.6z"/>
		<path class="st7" d="M959.4,1585.6V1447h13.9v138.7H959.4z"/>
		<path class="st7" d="M1108,1585.6l-20.1-46.8h-64.5l-20.3,46.7h-14.6l59.5-138.7h15.6l59.7,138.7H1108V1585.6z M1055.8,1462.8
			l-27.2,63.6h53.9L1055.8,1462.8z"/>
		<path class="st7" d="M1189,1585.6V1447h75.8v12.6h-61.9v49.7h59.9v12.6h-59.9v51.2h61.9v12.6L1189,1585.6L1189,1585.6z"/>
		<path class="st7" d="M1384.8,1585.6l-82.6-121.9v121.9h-13.9V1447h18.8l77.7,115v-115h13.9v138.7H1384.8z"/>
		<path class="st7" d="M1458.7,1459.6v126.1h-13.9v-126.1h-31.7V1447h77.3v12.6H1458.7z"/>
		<path class="st7" d="M1504.8,1585.6V1447h75.8v12.6h-61.9v49.7h59.8v12.6h-59.8v51.2h61.9v12.6L1504.8,1585.6L1504.8,1585.6z"/>
		<path class="st7" d="M1657.3,1533.9l38.8,51.8h-17.3l-46.7-62.8c38.8,0,52-6.7,52-31.7c0-23.1-14.2-31.5-46.5-31.5h-19.5v126.1
			h-13.9v-138.7h34.3c43.5,0,59.7,15.8,59.7,44.7C1698.2,1516.2,1683.9,1531.1,1657.3,1533.9z"/>
		<path class="st7" d="M1749.5,1459.6v126.1h-13.9v-126.1h-31.7V1447h77.3v12.6H1749.5z"/>
		<path class="st7" d="M1893.6,1585.6l-20.1-46.7h-64.6l-20.3,46.7H1774l59.5-138.7h15.6l59.7,138.7H1893.6z M1841.4,1462.8
			l-27.2,63.6h53.8L1841.4,1462.8z"/>
		<path class="st7" d="M1923.8,1585.6V1447h13.9v138.7H1923.8z"/>
		<path class="st7" d="M2061.5,1585.6l-82.5-121.9v121.9h-13.9V1447h18.8l77.7,115v-115h13.9v138.7H2061.5z"/>
		<path class="st7" d="M2232.7,1585.6v-123.4l-52.2,123.4h-12l-52-123.4v123.4h-13.8V1447h21.6l50.5,118l50.3-118h21.6v138.7H2232.7
			z"/>
		<path class="st7" d="M2273.9,1585.6V1447h75.8v12.6h-61.9v49.7h59.8v12.6h-59.8v51.2h61.9v12.6L2273.9,1585.6L2273.9,1585.6z"/>
		<path class="st7" d="M2469.7,1585.6l-82.6-121.9v121.9h-13.9V1447h18.8l77.7,115v-115h13.9v138.7H2469.7z"/>
		<path class="st7" d="M2543.6,1459.6v126.1h-13.9v-126.1H2498V1447h77.3v12.6H2543.6z"/>
		<path class="st7" d="M2681,1529.6h-26.6v56.1h-13.9V1447h38.3c38.1,0,53.5,12.9,53.5,42C2732.2,1515.3,2718.6,1529.6,2681,1529.6z
			 M2674.1,1459.6h-19.7v57.4h25.7c27.6,0,38.1-7.9,38.1-28C2718.1,1460.9,2700.4,1459.6,2674.1,1459.6z"/>
		<path class="st7" d="M2750.3,1585.6V1447h13.9V1573h57.4v12.6H2750.3z"/>
		<path class="st7" d="M2949.7,1585.6l-20.1-46.8h-64.5l-20.3,46.7h-14.6l59.5-138.7h15.6l59.7,138.7h-15.3V1585.6z M2897.5,1462.8
			l-27.2,63.6h53.9L2897.5,1462.8z"/>
		<path class="st7" d="M3014,1539.3v46.3h-13.9v-46.3l-48-92.3h15.4l39.4,77.7l40.4-77.7h15.2L3014,1539.3z"/>
		<path class="st7" d="M3075.8,1585.6V1447h75.8v12.6h-61.9v49.7h59.9v12.6h-59.9v51.2h61.9v12.6L3075.8,1585.6L3075.8,1585.6z"/>
		<path class="st7" d="M3228.3,1533.9l38.8,51.8h-17.3l-46.7-62.8c38.8,0,52-6.7,52-31.7c0-23.1-14.3-31.5-46.5-31.5h-19.5v126.1
			h-13.9v-138.7h34.3c43.5,0,59.7,15.8,59.7,44.7C3269.2,1516.2,3254.9,1531.1,3228.3,1533.9z"/>
		<path class="st7" d="M3379.2,1529.6h-26.6v56.1h-13.9V1447h38.3c38.1,0,53.5,12.9,53.5,42
			C3430.5,1515.3,3417,1529.6,3379.2,1529.6z M3372.3,1459.6h-19.7v57.4h25.7c27.6,0,38.1-7.9,38.1-28
			C3416.4,1460.9,3398.8,1459.6,3372.3,1459.6z"/>
		<path class="st7" d="M3515.3,1588c-41.5,0-72.8-30.8-72.8-71.3c0-41.5,30.6-72.2,71.9-72.2c28.7,0,53.1,14.7,63.8,38.5h-15.6
			c-11.8-18.6-28.1-25.7-47.7-25.7c-33,0-58.3,25.5-58.3,58.9c0,32.5,26.5,59.1,58.5,59.1c20.3,0,33.6-7.7,48.2-26.1h15.4
			C3564.8,1574.9,3543.5,1588,3515.3,1588z"/>
		<path class="st7" d="M3664.5,1459.6v50.1h54.4v12.6h-54.4v63.4h-13.9V1447h70.4v12.6H3664.5L3664.5,1459.6z"/>
		<path class="st7" d="M3822.7,1585.6l-39.2-59.3l-39.4,59.3h-16.3l47.1-70.9l-44.5-67.7h16.3l36.8,55.6l36.6-55.6h16.1l-44.5,67.7
			l47.3,70.9H3822.7z"/>
		<path class="st0" d="M3610.1,1528.8c-5.6,0-10.1-4.5-10.1-10.1s4.5-10.1,10.1-10.1c5.4,0,10.1,4.5,10.1,10.1
			C3620.2,1524.4,3615.5,1528.8,3610.1,1528.8z"/>
	</g>
	<g>
		<g>
			<path class="st7" d="M1169,380L1169,380H997.8l0,0h-68.2v921.3h93.8v-254.7H1169l0,0C1613.5,1046.6,1613.5,380,1169,380z
				 M1169,952.8L1169,952.8h-145.7v-479H1169l0,0C1488.4,473.8,1488.4,952.8,1169,952.8z"/>
			<path class="st7" d="M2019.7,1214.1c-213.8,0-387.1-173.4-387.1-387.1s173.4-387.1,387.1-387.1c145,0,271.3,79.7,337.6,197.7
				h104.6C2388.3,466.1,2218.1,346,2019.7,346c-265.7,0-480.9,215.4-480.9,480.9c0,265.7,215.4,480.9,480.9,480.9
				c198.3,0,368.6-120.1,442.1-291.5h-104.6C2291,1134.4,2164.7,1214.1,2019.7,1214.1z"/>
			<rect x="2402.1" y="737" class="st7" width="131.6" height="180"/>
			<polygon class="st7" points="3068,889.1 3068,708.3 2795.9,708.3 2795.9,544.6 3068,544.6 3068,363.7 2795.9,363.7 2655.3,363.7 
				2615.1,363.7 2615.1,1285.5 2795.9,1285.5 2795.9,889.1 			"/>
			<polygon class="st7" points="3547.9,791.6 3795,363.7 3586.1,363.7 3443.5,610.8 3300.9,363.7 3092,363.7 3339.1,791.6 
				3054,1285.5 3262.9,1285.5 3443.5,972.5 3624.1,1285.5 3833,1285.5 			"/>
		</g>
		<g>
			<path class="st1" d="M430.5,457.2c132.4,16.4,271.3,92.3,271.3,190c0,143.7-189.2,245.6-336.9,245.6
				c-137.7,0-249.3-55.9-249.3-123.2S227.3,647.9,365,647.9c95.4,0,227.9,53.5,242.5,121.6c17.2,81.1-43,128.4-43,128.4
				s-88.4,76.7-195.6,76.7S184.4,938,184.4,887.6s78-91.3,185.1-91.3c66.4,0,148.3,30.9,172.6,81.8
				c24.3,50.7-32.9,156.1-173.8,156.1c-76.7,0-138.8-29.6-138.8-66.1s62.1-63.7,138.8-63.7c44.1,0,110,23.1,126.6,57.8
				c12.7,26.5-0.9,85-77.8,109.8"/>
			<circle class="st2" cx="365.1" cy="449.2" r="30.6"/>
			<g>
				<polygon class="st2" points="0,696.9 0,1116.7 372.8,898 372.8,478.3 				"/>
				<polygon class="st2" points="372.8,1137.7 372.8,1335.3 745.5,1116.7 745.5,919.1 				"/>
				<polygon class="st2" points="372.8,1137.7 372.8,1335.3 0,1116.7 0,919.1 				"/>
			</g>
			<polygon class="st3" points="32.5,662.7 32.5,1082.5 405.2,863.8 405.2,444.1 			"/>
			<circle class="st4" cx="408.7" cy="410.6" r="30.6"/>
			<path class="st5" d="M474.2,418.6c132.4,16.4,271.3,92.3,271.3,190c0,143.7-189.2,245.6-336.9,245.6
				c-137.7,0-249.3-55.9-249.3-123.2S271,609.3,408.6,609.3c95.4,0,227.9,53.5,242.5,121.6c17.2,81.1-43,128.4-43,128.4
				s-88.4,76.7-195.6,76.7S228.1,899.4,228.1,849s78-91.3,185.1-91.3c66.4,0,148.3,30.9,172.6,81.8
				c24.3,50.7-32.9,156.1-173.8,156.1c-76.7,0-138.8-29.6-138.8-66.1s62.1-63.7,138.8-63.7c44.1,0,110,23.1,126.6,57.8
				c12.7,26.5-0.9,85-77.8,109.8"/>
			<polygon class="st6" points="405.2,1103.5 405.2,1301.1 778,1082.5 778,884.9 			"/>
			<polygon class="st4" points="405.2,1103.5 405.2,1301.1 32.5,1082.5 32.5,884.9 			"/>
		</g>
	</g>
	<g>
		<path class="st7" d="M1430.8,8.2h78.2c17.9,0,39,16.7,48.4,25.9l137.1,152.1V8.2h46.6v242.8h-81.6c-17.2,0.1-33.7-7.1-45.3-19.8
			l-137-152.4v172.2h-46.4V8.2z"/>
		<path class="st7" d="M2402.2,252.4c-56,7.4-112.6,8.6-168.8,3.7c-33.1-2-65.5-10.6-95.3-25.3c-37.6-19.4-49.5-63.1-49-102.8
			c0.4-36.6,11.2-75.6,43.9-96.9c21.4-14,44.3-18.7,68.5-23.1c66.3-11.7,132.6-9.1,197.3-2v34.6c-76.3-14.8-156.8-11.1-184.2,23.9
			c-13.6,17.6-20.5,39.5-19.5,61.8c0,33,11.2,82.8,78.2,92.5c43.6,6.4,86.7,1.6,128.6-6.1L2402.2,252.4z"/>
		<path class="st7" d="M1924.6,214.8c6.8,0,111.7,0.5,147.9,0v36.3c-72.7,2.8-142.5,4.1-216,1c-62.2-2.6-72.9-33.8-74.4-64V8.2
			h286.6v34.5h-185.2v61.8h169.2v33.8h-169.2c0,18.3,0.6,39,0.8,42.8c1,23.5,11.9,32.2,40.6,33.8"/>
	</g>
</g>
</svg>
