<?xml version="1.0" encoding="utf-8"?>
<!-- Generator: Adobe Illustrator 26.0.3, SVG Export Plug-In . SVG Version: 6.00 Build 0)  -->
<svg version="1.1" id="Layer_1" xmlns="http://www.w3.org/2000/svg" xmlns:xlink="http://www.w3.org/1999/xlink" x="0px" y="0px"
	 viewBox="0 0 3839 1426.2" style="enable-background:new 0 0 3839 1426.2;" xml:space="preserve">
<style type="text/css">
	.st0{fill:#65B7FF;}
	.st1{fill:#C497FF;}
	.st2{fill:#FFFFFF;}
</style>
<g>
	<g>
		<g>
			<g>
				<g>
					<polygon class="st0" points="285.1,673.4 124,673.4 0,797.4 0,1003.3 124,1127.3 191.6,1127.2 191.6,972.4 154.9,972.4 
						154.9,828.3 254.3,828.3 254.3,912.6 409.1,912.6 409.1,797.4 					"/>
					<polygon class="st0" points="217.6,972.4 217.6,1127.2 254.3,1127.2 254.3,1271.3 154.9,1271.3 154.9,1178.4 0,1178.4 
						0,1302.2 124,1426.2 285.1,1426.2 409.1,1302.2 409.1,1096.3 285.1,972.4 					"/>
				</g>
				<g>
					<polygon class="st0" points="641.8,1271.3 605.1,1271.3 605.1,673.4 450.2,673.4 450.2,1302.2 574.2,1426.2 641.8,1426.2 					
						"/>
					<polygon class="st0" points="704.5,673.4 704.5,1271.3 667.8,1271.3 667.8,1426.2 735.3,1426.2 859.3,1302.2 859.3,673.4 					
						"/>
				</g>
				<g>
					<polygon class="st0" points="1866.3,972.4 1866.3,828.3 1866.3,673.4 1866.3,673.4 1711.4,673.4 1711.4,1426.2 1866.3,1426.2 
						1866.3,1396.7 1866.3,1127.2 					"/>
					<polygon class="st0" points="1996.6,673.4 1967.5,673.4 1946.3,673.4 1892.4,673.4 1892.4,828.3 1965.7,828.3 1965.7,895.9 
						1965.7,950.6 1965.7,972.4 1892.4,972.4 1892.4,1127.2 1965.7,1127.2 1965.7,1151.8 1965.7,1204.7 1965.7,1421.1 
						2120.6,1421.1 2120.6,1203 2120.6,1151.8 2120.6,1134.2 2036.2,1049.8 2120.6,965.4 2120.6,950.6 2120.6,896.5 2120.6,831.2 
						2120.6,810.2 2120.6,797.4 					"/>
				</g>
				<g>
					<rect x="1520.7" y="972.4" class="st0" width="121.6" height="154.9"/>
					<polygon class="st0" points="1668.3,673.4 1494.6,673.4 1494.6,673.4 1339.8,673.4 1339.8,1426.2 1462,1426.2 1462,1426.2 
						1668.3,1426.2 1668.3,1271.3 1494.6,1271.3 1494.6,1212.7 1494.6,1127.2 1494.6,972.4 1494.6,943.3 1494.6,828.3 1668.3,828.3 
											"/>
				</g>
				<g>
					<polygon class="st0" points="1183.4,673.4 1079.1,673.4 1079.1,828.3 1152.5,828.3 1152.5,1021.5 1079.1,1021.5 1079.1,1176.4 
						1183.4,1176.4 1307.4,1052.4 1307.4,797.4 					"/>
					<polygon class="st0" points="1053.1,1176.4 1053.1,1021.5 1053.1,828.3 1053.1,673.4 898.2,673.4 898.2,1426.2 1053.1,1426.2 
											"/>
				</g>
			</g>
			<g>
				<path class="st0" d="M2916.9,1025.8v-32.9c0-26.1-21.2-47.3-47.3-47.3H2647c-0.2,0-0.4,0.2-0.4,0.4v207.5c0,0.2,0.2,0.4,0.4,0.4
					h45.6c0.2,0,0.4-0.2,0.4-0.4v-79.9c0-0.2,0.2-0.4,0.4-0.4h91c0.1,0,0.2,0.1,0.3,0.2l67.6,80.5c0.1,0.1,0.2,0.2,0.3,0.2h59.5
					c0.3,0,0.6-0.4,0.3-0.7l-66.7-79.5c-0.2-0.3-0.1-0.7,0.3-0.7h23.6C2895.8,1073.1,2916.9,1051.9,2916.9,1025.8z M2693,1035.4v-52
					c0-0.2,0.2-0.4,0.4-0.4h177.2v52.9h-177.2C2693.1,1035.8,2693,1035.6,2693,1035.4z"/>
				<path class="st0" d="M2602.9,982.9v-37.3h-229.6c-26.1,0-47.3,21.2-47.3,47.3v113.7c0,26.1,21.2,47.3,47.3,47.3h229.6v-118.2
					h-138.5v37.3h92.1v43.5h-184.2V982.9L2602.9,982.9L2602.9,982.9z"/>
				<polygon class="st0" points="3524.9,982.9 3524.9,945.6 3328.5,945.6 3282.1,945.6 3282.1,982.9 3282.1,1154 3328.5,1154 
					3328.5,1073.1 3494.4,1073.1 3494.4,1035.8 3328.5,1035.8 3328.5,982.9 				"/>
				<polygon class="st0" points="3839,945.6 3773.4,945.6 3694.6,1024.4 3615.7,945.6 3550.1,945.6 3654.3,1049.8 3550.1,1154 
					3615.7,1154 3694.6,1075.1 3773.4,1154 3839,1154 3734.8,1049.8 				"/>
				<polygon class="st0" points="3193.8,1154 3246,1154 3139.1,945.6 3048.7,945.6 2941.8,1154 2994,1154 3081.6,982.9 
					3106.1,982.9 				"/>
			</g>
		</g>
		<rect x="2325.9" y="791" class="st0" width="1513.1" height="37.3"/>
		<rect x="2325.9" y="673.4" class="st0" width="1513.1" height="37.3"/>
		<g>
			<rect x="2325.9" y="1383.8" class="st0" width="1513.1" height="37.3"/>
			<rect x="2325.9" y="1266.3" class="st0" width="1513.1" height="37.3"/>
		</g>
	</g>
	<g>
		<g>
			<polygon class="st0" points="2197.9,105.2 2030.4,180.8 1976.9,132.1 1996.3,201.8 1853.4,317.3 2020.8,241.7 2074.3,290.4 
				2055,220.8 			"/>
			<g>
				<polygon class="st0" points="2197.9,105.2 2030.4,180.8 1976.9,132.1 1996.3,201.8 1853.4,317.3 2020.8,241.7 2074.3,290.4 
					2055,220.8 				"/>
			</g>
			<g>
				<path class="st0" d="M2032,172.4l1.5-0.7c0.7-2.8,1.2-5.6,1.8-8.6l2.7-17.9l-29.4,5.8L2032,172.4z"/>
				<path class="st0" d="M1895.8,256.2l29.2-5.8l63-50.9l-11.6-41.9l-8.5,1.7l-2.4,15.7c-0.6,4.1-3.8,7.5-7.9,8.3l-37.2,7.4
					c-3.7,0.7-7-2.4-6.4-6.1l15.8-102.4c0.6-4.1,3.8-7.5,7.9-8.3l37.2-7.4c3.7-0.7,7,2.4,6.4,6.1l-2.3,15l70.2-13.9l3.4-21.8
					c4.8-30.9-22.6-57-53.2-50.9l-62.2,12.4c-40.1,7.9-71,40.2-77.3,80.7l-17.1,111.3C1837.8,236.2,1865.2,262.3,1895.8,256.2z"/>
			</g>
			<path class="st0" d="M1406.8,379.4c-27.1-21.6-40.9-44.3-41.3-67.3c-0.9-64.7,107.9-128.7,278.1-164.3l1.8-11.6
				C1471,171.9,1353.4,238,1354.4,312.2c0.6,44,42.8,84.1,113.6,115.8l1.8-11.3C1444.6,405.2,1423.4,392.8,1406.8,379.4z"/>
			<path class="st0" d="M1938.7,108.3l-1.7,11c65.4-0.1,128.7,3.7,188.1,11.1l19.1-8.6C2080.7,113,2011.5,108.2,1938.7,108.3z"/>
			<path class="st0" d="M2181.2,127.6l-11.5,9.3c52.5,8.5,101,19.9,143.9,34.2c50.9,16.9,90.8,36.7,118.5,58.9
				c27.1,21.6,40.9,44.3,41.3,67.3c0.9,66-112.4,131.3-288.5,166.4c-66,13.1-139.2,21.6-214.1,24.9c-1.9,3.9-4,7.7-6.2,11.3
				c80-3.2,155.4-12,222.5-25.3c177.9-35.4,298.4-102.3,297.4-177.4C2483.5,221.8,2360.7,158.1,2181.2,127.6z"/>
			<g>
				<path class="st0" d="M2301.7,246l-57.7,11.5c-3.4,0.7-6,3.4-6.5,6.9l-1.8,11.6l69.3-13.8c3.4-0.7,6-3.4,6.5-6.9l0,0
					C2312.3,249.7,2307.3,244.8,2301.7,246z"/>
				<path class="st0" d="M1860.7,338.2l-8.8,57.6c-0.7,4.5,3.4,8.4,7.9,7.5l65.7-13.1l11-71.5l-70.5,13.9
					C1863.3,333.2,1861.1,335.4,1860.7,338.2z M1884.3,355.6l20.7-4.1l-2.6,16.8l-20.7,4.1L1884.3,355.6z"/>
				<path class="st0" d="M2361.7,206c-10.3-15.6-28.9-23-46.6-19.5l-72.6,14.4c-19.1,3.8-35.6,14.9-46.6,30.3
					c-0.4-0.4-0.7-0.7-1.1-1.1c-10.7-10.1-25.7-14.6-40.1-11.6l-88,17.5l7,25.1l86.1-17.1c13.1-2.6,24.8,8.6,22.8,21.8l-16.4,106.7
					l-29.1,5.8l14.4-93.3c0.7-4.5-3.4-8.4-7.9-7.5l-65.7,13.1l-15.8,102.7L2033,399l18.4-119.5l-32.3-29.4l-86.6,39.1l8.7-1.8
					l29.1-5.8l0,0L1946.1,439c-7.1,46.3-42.4,83.1-88.3,92.3l-32.4,6.4l4.8-31.2l22.7-4.5c34.2-6.8,60.6-34.3,65.9-68.8l1.9-11.8
					l-77.1,15.4c-13.1,2.6-24.8-8.6-22.8-21.8l11.2-72.8c2-13,9-24.3,19.1-31.8v-0.1l51.5-41.6l-36.8,7.3
					c-19.1,3.8-35.6,14.9-46.6,30.3c-0.4-0.4-0.7-0.7-1.1-1.1c-10.7-10.1-25.7-14.6-40.1-11.6l-78,15.5l2.2-14.1l9-58.6l55-10.9
					c40.1-7.9,71-40.2,77.3-80.7l8.1-52.8c4.8-30.9-22.6-57-53.2-50.9l-129.1,25.7L1645.2,223l-130.9,26c-3.4,0.7-6,3.4-6.5,6.9
					L1466,527.1c-0.9,5.6,4.1,10.5,9.8,9.4l175.8-34.9l0,0l56.8-11.3l15.8-102.7l20.7-4.1L1729,486.1l83.4-16.6l2.1-14
					c9.9,6.6,22.1,9.2,34.1,6.9l33.1-6.6c-8.3,10.6-20.2,18.2-33.9,20.9l-34.9,7c-3.4,0.7-6,3.4-6.5,6.9l-10.5,68.6
					c-0.9,5.6,4.1,10.5,9.8,9.4l57.3-11.4c56.6-11.3,100.1-56.7,109-113.8l0.9-5.5l56.2-11.2l0,0l56.2-11.2l15.8-102.7l20.7-4.1
					l-15.8,102.7l83.4-16.6l2.1-14c9.9,6.6,22.1,9.2,34.1,6.8l118.4-23.6c3.4-0.7,6-3.4,6.5-6.9l12.4-80.2l-3.3,0.6
					c3.1-6.4,5.2-13.4,6.4-20.7l2.7-17.9C2370.3,227.3,2368.1,215.5,2361.7,206z M1729.8,115.2l44.1-8.7c3.7-0.7,7,2.4,6.4,6.1
					l-6.7,43.8c-0.6,4.1-3.8,7.5-7.9,8.3l-44.8,8.9L1729.8,115.2z M1628.6,479.4L1616,482l-14.8,2.9l-82.8,16.5l-22.9,4.5l36-233.9
					l9.6-1.9l71.1-14.1l32.2-6.4l-4.8,31.2l-9.3,1.9l-74.6,14.8l-10.6,68.8l34.9-6.9l6.3-1.2l22.9-4.5l-4.8,31.2l-12.3,2.5
					l-16.9,3.4l-34.9,7l-11,71.5l76.6-15.2l4.2-0.9l23.3-4.7L1628.6,479.4z M1560.7,436.2l2.6-16.8l64.1-12.7l13.2-85.9l-64.1,12.7
					l2.2-14.1l53.2-10.6l24.2-4.8l-3.4,22.4l-14.6,94.4L1560.7,436.2z M1789.4,447.4l-29.1,5.8l14.4-93.3c0.7-4.5-3.4-8.4-7.9-7.5
					l-65.7,13.1l-15.8,102.7l-29.1,5.8l20.6-133.8l106.2-21.2c13.1-2.6,24.8,8.6,22.8,21.8L1789.4,447.4z M2005.9,404.4l-29.1,5.8
					l20.6-133.9l29.1-5.8L2005.9,404.4z M2343,233.9l-2.9,18.8c-3.1,20.4-18.7,36.5-38.8,40.6l-70.4,14l-2.1,13.5
					c-0.7,4.5,3.4,8.4,7.9,7.5l65.7-13.1l13-2.6l16.1-3.2l-4.8,31.2l-5.5,1.1l-100.8,20c-13.1,2.6-24.8-8.6-22.8-21.8l11.2-72.8
					c3.1-20.4,18.7-36.5,38.8-40.6l72.5-14.5C2333.3,209.5,2345,220.7,2343,233.9z"/>
			</g>
		</g>
	</g>
</g>
</svg>
