<?xml version="1.0" encoding="utf-8"?>
<!-- Generator: Adobe Illustrator 26.0.1, SVG Export Plug-In . SVG Version: 6.00 Build 0)  -->
<svg version="1.1" id="Layer_1" xmlns="http://www.w3.org/2000/svg" xmlns:xlink="http://www.w3.org/1999/xlink" x="0px" y="0px"
	 viewBox="0 0 3839 1147.3" style="enable-background:new 0 0 3839 1147.3;" xml:space="preserve">
<style type="text/css">
	.st0{fill:#30348D;}
	.st1{fill:#F16140;}
	.st2{fill:#FFFFFF;}
</style>
<g>
	<g>
		<g>
			<path class="st2" d="M1651.2,317.4c-4.1,0-7.4-3.3-7.4-7.4v-27.5h-27.5c-4.1,0-7.4-3.3-7.4-7.4v-56.3c0-4.1,3.3-7.4,7.4-7.4h80.5
				v-30h-56.8c-4.1,0-7.4-3.3-7.4-7.4v-27.5h-27.5c-4.1,0-7.4-3.3-7.4-7.4V91c0-4.1,3.3-7.4,7.4-7.4h248.1c4.1,0,7.4,3.3,7.4,7.4
				v27.5h27.5c4.1,0,7.4,3.3,7.4,7.4v79.8c0,30.5-21.4,55.4-47.8,55.4h-64.1v0.9c0,30.6-21.4,55.4-47.8,55.4H1651.2z"/>
			<path class="st2" d="M1853.3,91v16.9v18h34.9v16.9v31v31.8c0,26.5-18.1,47.9-40.3,47.9h-71.6v8.3c0,26.5-18.1,48-40.4,48h-84.7
				V275h-34.9v-56.3h88v-44.9h-64.2v-34.9h-34.9V91H1853.3 M1840.6,205.7h0.2v-0.2C1840.7,205.5,1840.7,205.6,1840.6,205.7
				 M1734.6,253.6h4.6v-11.1C1738.1,246.5,1736.6,250.2,1734.6,253.6 M1853.3,76.1h-248.1c-8.2,0-14.9,6.7-14.9,14.9v47.9
				c0,8.2,6.7,14.9,14.9,14.9h20v20c0,8.2,6.7,14.9,14.9,14.9h49.3v15.1h-73.1c-8.2,0-14.9,6.7-14.9,14.9V275
				c0,8.2,6.7,14.9,14.9,14.9h20v20c0,8.2,6.7,14.9,14.9,14.9h84.7c15.3,0,29.4-6.9,39.9-19.4c8.5-10.2,13.8-23.1,15-37h57
				c15.2,0,29.4-6.9,39.9-19.3c9.9-11.7,15.3-27.2,15.3-43.5v-31.8v-31v-16.9c0-8.2-6.7-14.9-14.9-14.9h-20v-3.1V91
				C1868.2,82.8,1861.5,76.1,1853.3,76.1L1853.3,76.1z"/>
		</g>
		<g>
			<path class="st2" d="M1044,222.3c-4.1,0-7.4-3.3-7.4-7.4v-27.5h-27.5c-4.1,0-7.4-3.3-7.4-7.4v-56.3c0-4.1,3.3-7.4,7.4-7.4h213.1
				c4.1,0,7.4,3.3,7.4,7.4v27.5h27.5c4.1,0,7.4,3.3,7.4,7.4v56.3c0,4.1-3.3,7.4-7.4,7.4H1044z"/>
			<path class="st2" d="M1222.2,123.6v34.9h34.9v56.3H1044v-34.9h-34.9v-56.3H1222.2 M1222.2,108.7h-213.1
				c-8.2,0-14.9,6.7-14.9,14.9v56.3c0,8.2,6.7,14.9,14.9,14.9h20v20c0,8.2,6.7,14.9,14.9,14.9h213.1c8.2,0,14.9-6.7,14.9-14.9v-56.3
				c0-8.2-6.7-14.9-14.9-14.9h-20v-20C1237.1,115.4,1230.4,108.7,1222.2,108.7L1222.2,108.7z"/>
		</g>
		<g>
			<path class="st2" d="M2676.2,225.4c-4.1,0-7.4-3.3-7.4-7.4v-27.5h-27.5c-4.1,0-7.4-3.3-7.4-7.4v-56.3c0-4.1,3.3-7.4,7.4-7.4
				h214.9c4.1,0,7.4,3.3,7.4,7.4v27.5h27.5c4.1,0,7.4,3.3,7.4,7.4V218c0,4.1-3.3,7.4-7.4,7.4H2676.2z"/>
			<path class="st2" d="M2856.1,126.8v34.9h34.9V218h-214.9v-34.9h-34.9v-56.3H2856.1 M2856.1,111.9h-214.9
				c-8.2,0-14.9,6.7-14.9,14.9v56.3c0,8.2,6.7,14.9,14.9,14.9h20v20c0,8.2,6.7,14.9,14.9,14.9H2891c8.2,0,14.9-6.7,14.9-14.9v-56.3
				c0-8.2-6.7-14.9-14.9-14.9h-20v-20C2871,118.5,2864.4,111.9,2856.1,111.9L2856.1,111.9z"/>
		</g>
		<g>
			<path class="st2" d="M2222.5,315.8c-0.2,0-0.4,0-0.6,0l-284.6-23.1c-3.9-0.3-6.8-3.5-6.8-7.4V260l-28.1-2.3
				c-3.9-0.3-6.8-3.5-6.8-7.4V202c0-2.1,0.9-4.1,2.4-5.5c1.4-1.3,3.2-2,5-2c0.2,0,0.4,0,0.6,0l26.9,2.2v-17l-28.1-2.3
				c-3.9-0.3-6.8-3.5-6.8-7.4v-48.4c0-2.1,0.9-4.1,2.4-5.5c1.4-1.3,3.2-2,5-2c0.2,0,0.4,0,0.6,0l26.9,2.2v-17l-28.1-2.3
				c-3.9-0.3-6.8-3.5-6.8-7.4V41.4c0-2.1,0.9-4.1,2.4-5.5c1.4-1.3,3.2-2,5-2c0.2,0,0.4,0,0.6,0L2188.2,57c3.9,0.3,6.8,3.5,6.8,7.4
				v25.2l28.1,2.3c3.9,0.3,6.8,3.5,6.8,7.4v48.4c0,2.1-0.9,4.1-2.4,5.5c-1.4,1.3-3.2,2-5,2c-0.2,0-0.4,0-0.6,0l-26.9-2.2v17
				l28.1,2.3c3.9,0.3,6.8,3.5,6.8,7.4V228c0,2.1-0.9,4.1-2.4,5.5c-1.4,1.3-3.2,2-5,2c-0.2,0-0.4,0-0.6,0l-26.9-2.2v17l28.1,2.3
				c3.9,0.3,6.8,3.5,6.8,7.4v48.4c0,2.1-0.9,4.1-2.4,5.5C2226.2,315.1,2224.4,315.8,2222.5,315.8z"/>
			<path class="st2" d="M1903,41.4l284.6,23.1v32.1l34.9,2.8v48.4l-34.9-2.8v31.9l34.9,2.8V228l-34.9-2.8v31.9l34.9,2.8v48.4
				l-284.6-23.1v-32.1l-34.9-2.8V202l34.9,2.8v-31.9l-34.9-2.8v-48.4l34.9,2.8V92.6l-34.9-2.8V41.4 M1903,26.5
				c-3.7,0-7.3,1.4-10.1,3.9c-3.1,2.8-4.8,6.8-4.8,10.9v48.4c0,7.8,6,14.2,13.7,14.8l21.2,1.7v2l-18.8-1.5c-0.4,0-0.8,0-1.2,0
				c-3.7,0-7.3,1.4-10.1,3.9c-3.1,2.8-4.8,6.8-4.8,10.9v48.4c0,7.8,6,14.2,13.7,14.8l21.2,1.7v2l-18.8-1.5c-0.4,0-0.8,0-1.2,0
				c-3.7,0-7.3,1.4-10.1,3.9c-3.1,2.8-4.8,6.8-4.8,10.9v48.4c0,7.8,6,14.2,13.7,14.8l21.2,1.7v18.3c0,7.8,6,14.2,13.7,14.8
				l284.6,23.1c0.4,0,0.8,0,1.2,0c3.7,0,7.3-1.4,10.1-3.9c3.1-2.8,4.8-6.8,4.8-10.9v-48.4c0-7.8-6-14.2-13.7-14.8l-21.2-1.7v-2
				l18.8,1.5c0.4,0,0.8,0,1.2,0c3.7,0,7.3-1.4,10.1-3.9c3.1-2.8,4.8-6.8,4.8-10.9v-48.4c0-7.8-6-14.2-13.7-14.8l-21.2-1.7v-2
				l18.8,1.5c0.4,0,0.8,0,1.2,0c3.7,0,7.3-1.4,10.1-3.9c3.1-2.8,4.8-6.8,4.8-10.9V99.3c0-7.8-6-14.2-13.7-14.8l-21.2-1.7V64.4
				c0-7.8-6-14.2-13.7-14.8l-284.6-23.1C1903.8,26.5,1903.4,26.5,1903,26.5L1903,26.5z"/>
		</g>
		<g>
			<path class="st2" d="M1343.3,317.4c-4.1,0-7.4-3.3-7.4-7.4v-27.5h-27.5c-4.1,0-7.4-3.3-7.4-7.4v-56.3c0-4.1,3.3-7.4,7.4-7.4
				h136.3c20.2,0,39.4-7.9,53.9-22.3c13.3-13.1,21.2-30.6,21.2-46.7v-8.8h-199.4c-4.1,0-7.4-3.3-7.4-7.4V98.5h-27.5
				c-4.1,0-7.4-3.3-7.4-7.4V34.8c0-4.1,3.3-7.4,7.4-7.4h273.9c4.1,0,7.4,3.3,7.4,7.4v27.5h27.5c4.1,0,7.4,3.3,7.4,7.4v128.1
				c0,0.6-0.1,1.2-0.2,1.8c-1.1,34.9-10.7,64.5-27.8,85.9c-16.5,20.6-39,31.9-63.3,31.9H1343.3z"/>
			<path class="st2" d="M1559.6,34.8v34.9h34.9v70.7v57.4h-0.2c-1.8,71.8-40.1,112.1-83.6,112.1h-167.4V275h-34.9v-56.3h136.3
				c47.6,0,82.6-39.8,82.6-76.4V126h-206.8V91.1h-34.9V34.8H1559.6 M1550.1,215.3c7.8-11.9,12.2-25.2,12.2-38.2V126h-2.7v36.9h-0.2
				C1559,182.9,1555.6,200.4,1550.1,215.3 M1559.6,19.9h-273.9c-8.2,0-14.9,6.7-14.9,14.9v56.3c0,8.2,6.7,14.9,14.9,14.9h20v20
				c0,8.2,6.7,14.9,14.9,14.9h191.9v1.4c0,29.1-29,61.6-67.7,61.6h-136.3c-8.2,0-14.9,6.7-14.9,14.9V275c0,8.2,6.7,14.9,14.9,14.9
				h20v20c0,8.2,6.7,14.9,14.9,14.9h167.4c26.6,0,51.2-12.3,69.1-34.7c18-22.4,28.1-53.4,29.4-89.6c0.2-0.9,0.2-1.8,0.2-2.7v-57.4
				V69.7c0-8.2-6.7-14.9-14.9-14.9h-20v-20C1574.5,26.5,1567.8,19.9,1559.6,19.9L1559.6,19.9z"/>
		</g>
		<g>
			<path class="st2" d="M1016,325.8c-2.2,0-4.3-1-5.7-2.6l-27.2-32.3c0,0-2,0-2,0c-2.2,0-4.3-1-5.7-2.6l-0.4-0.5
				c-16.3,19.2-37.8,29.6-61.3,29.6H746.3c-4.1,0-7.4-3.3-7.4-7.4v-27.5h-27.5c-4.1,0-7.4-3.3-7.4-7.4v-56.3c0-4.1,3.3-7.4,7.4-7.4
				h136.3c20.2,0,39.4-7.9,53.9-22.3c13.3-13.1,21.2-30.6,21.2-46.7v-8.8H766.3c-4.1,0-7.4-3.3-7.4-7.4V98.5h-27.5
				c-4.1,0-7.4-3.3-7.4-7.4V34.8c0-4.1,3.3-7.4,7.4-7.4h231.2c4.1,0,7.4,3.3,7.4,7.4v27.5h27.5c4.1,0,7.4,3.3,7.4,7.4v128.1
				c0,0.6-0.1,1.2-0.2,1.8c-0.1,4.4-0.4,8.8-0.9,13.1l84.4,100.3c1.9,2.2,2.3,5.3,1.1,7.9s-3.8,4.3-6.7,4.3
				C1082.6,325.2,1016,325.8,1016,325.8z"/>
			<path class="st2" d="M962.6,34.8v34.9h34.9v70.7v57.4h-0.2c-0.1,6-0.6,11.8-1.2,17.3l86.4,102.7l-66.5,0.6l-29.4-34.9l-5.5,0
				l-6.3-7.5c-15.5,22.2-37.6,34-61.1,34H746.3V275h-34.9v-56.3h136.3c47.6,0,82.6-39.8,82.6-76.4V126H766.3V91.1h-34.9V34.8H962.6
				 M964.8,184.5c0.3-2.4,0.5-4.9,0.5-7.3V126h-2.7v36.9h-0.2c-0.1,6-0.6,11.8-1.2,17.3L964.8,184.5 M962.6,19.9H731.4
				c-8.2,0-14.9,6.7-14.9,14.9v56.3c0,8.2,6.7,14.9,14.9,14.9h20v20c0,8.2,6.7,14.9,14.9,14.9h149.2v1.4c0,29.1-29,61.6-67.7,61.6
				H711.4c-8.2,0-14.9,6.7-14.9,14.9V275c0,8.2,6.7,14.9,14.9,14.9h20v20c0,8.2,6.7,14.9,14.9,14.9h167.4c14.3,0,28-3.5,40.7-10.5
				c8-4.4,15.3-10,21.8-16.8c1.1,0.4,2.2,0.6,3.4,0.8l25,29.7c2.8,3.4,7,5.3,11.4,5.3c0,0,0.1,0,0.1,0l66.5-0.6
				c5.8-0.1,11-3.4,13.4-8.7c2.4-5.2,1.6-11.4-2.1-15.8l-82.4-97.9c0.3-3.2,0.5-6.5,0.6-9.8c0.2-0.9,0.2-1.8,0.2-2.7v-57.4V69.7
				c0-8.2-6.7-14.9-14.9-14.9h-20v-20C977.4,26.5,970.8,19.9,962.6,19.9L962.6,19.9z"/>
		</g>
		<g>
			<path class="st2" d="M3259.2,317.4c-26.8,0-51.4-15.8-66.1-42.5c-14.6-7.4-26.8-19.8-35.5-35.9c-2.2-4.1-4.2-8.4-5.9-13v84
				c0,4.1-3.3,7.4-7.4,7.4h-71.1c-4.1,0-7.4-3.3-7.4-7.4v-27.5h-27.5c-4.1,0-7.4-3.3-7.4-7.4v-0.3c-4.4,8-9.6,15-15.6,21
				c-14.1,14-32.1,21.7-50.6,21.7h-21.3c-4.1,0-7.4-3.3-7.4-7.4v-27.7c-2,0.2-4.1,0.3-6.1,0.3h-21.3c-4.1,0-7.4-3.3-7.4-7.4v-47.9
				c0-4.1,3.3-7.4,7.4-7.4c14.5,0,34.8-22.5,36.9-65c-1-1.3-1.6-2.9-1.6-4.6v-27.5h-27.5c-4.1,0-7.4-3.3-7.4-7.4V67.2
				c0-4.1,3.3-7.4,7.4-7.4h114.6v-25c0-4.1,3.3-7.4,7.4-7.4h71.1c4.1,0,7.4,3.3,7.4,7.4v25h12.2c-3.5-0.6-6.2-3.7-6.2-7.3V14.9
				c0-4.1,3.3-7.4,7.4-7.4h55.9c4.1,0,7.4,3.3,7.4,7.4v27.5h3.2V14.9c0-4.1,3.3-7.4,7.4-7.4h55.9c4.1,0,7.4,3.3,7.4,7.4v27.5h27.5
				c4.1,0,7.4,3.3,7.4,7.4v37.5c0,4.1-3.3,7.4-7.4,7.4h-13.2c3.5,0.6,6.2,3.7,6.2,7.3V150c0,4.1-3.3,7.4-7.4,7.4H3209
				c0.4,6,1.3,11.8,2.5,17.3h24.6c4.1,0,7.4,3.3,7.4,7.4c0,13.9,2,27.1,5.9,38.4c2.3,1.3,3.8,3.7,3.8,6.5v2.9
				c7.2,15,17.8,24.6,27.5,24.6c4.1,0,7.4,3.3,7.4,7.4v47.9c0,4.1-3.3,7.4-7.4,7.4H3259.2z M3030.8,174.8v-17.3h-18.6v8.3
				c0,3-0.1,6-0.2,9H3030.8z"/>
			<path class="st2" d="M3260.1,14.9v34.9h34.9v37.5h-49.3v14.8h34.9V150h-79.4c0.2,12,1.8,22.8,4.4,32.2h30.4
				c0,17.5,3,32.6,7.7,44.8c0.6,0.1,1.3,0.1,1.9,0.1v3.9v0.6c8.9,19.5,22.4,30.4,34.9,30.4v3.9v44h-21.3
				c-21.4,0-45.7-11.9-60.7-40.7c-25.9-12-49.2-43.7-49.2-103.5V150h-5v159.9h-71.1V275h-34.9v-50.4c-7.4,61.6-43.4,85.3-73.6,85.3
				h-21.3v-36.5c-4.6,1.1-9.1,1.6-13.5,1.6h-21.3v-44v-3.9c20.3,0,43.7-28.9,44.5-77.1h-1.8v-34.9h-34.9V67.2h122V34.8h71.1v32.4
				h55.8V52.4h-34.9V14.9h55.9v34.9h18V14.9H3260.1 M3221.1,67.2h18V52.4h-18V67.2 M3004.1,182.2h34.2V150h-33.5v15.8
				C3004.7,171.5,3004.5,177,3004.1,182.2 M3260.1,0h-55.9c-3.4,0-6.5,1.1-9,3c-2.5-1.9-5.6-3-9-3h-55.9c-8.2,0-14.9,6.7-14.9,14.9
				v6.3c-1.8-0.8-3.9-1.3-6-1.3h-71.1c-8.2,0-14.9,6.7-14.9,14.9v17.5h-107.2c-8.2,0-14.9,6.7-14.9,14.9v47.9
				c0,8.2,6.7,14.9,14.9,14.9h20v20c0,2.3,0.5,4.6,1.5,6.5c-1.2,16.6-5.4,31.3-12.3,42.1c-6.4,10-13.2,13.6-17,13.6
				c-8.2,0-14.9,6.7-14.9,14.9v3.9v44c0,8.2,6.7,14.9,14.9,14.9h20v20c0,8.2,6.7,14.9,14.9,14.9h21.3c20.5,0,40.4-8.5,55.9-23.9
				c3.9-3.9,7.5-8.1,10.7-12.8c2.1,1.1,4.5,1.8,7,1.8h20v20c0,8.2,6.7,14.9,14.9,14.9h71.1c8.2,0,14.9-6.7,14.9-14.9v-54.7
				c7.9,10.7,17.6,19.2,28.5,25.2c16.2,27.9,42.6,44.4,71.5,44.4h21.3c8.2,0,14.9-6.7,14.9-14.9v-44V262c0-8.2-6.7-14.9-14.9-14.9
				c-5.2,0-13.4-5.9-20-18.9v-1.1c0-4.4-1.9-8.3-4.9-11c-3.1-10.1-4.8-21.6-4.8-33.8c0-8.2-6.7-14.9-14.9-14.9h-18.5
				c-0.1-0.8-0.3-1.6-0.4-2.4h63.4c8.2,0,14.9-6.7,14.9-14.9v-47.8c8-0.2,14.4-6.8,14.4-14.9V49.8c0-8.2-6.7-14.9-14.9-14.9h-20v-20
				C3275,6.7,3268.3,0,3260.1,0L3260.1,0z M3019.6,164.9h3.8v2.4h-3.8c0-0.5,0-1,0-1.6V164.9L3019.6,164.9z"/>
		</g>
		<g>
			<path class="st2" d="M2351.6,317.4c-4.1,0-7.4-3.3-7.4-7.4v-27.5h-27.5c-4.1,0-7.4-3.3-7.4-7.4v-56.3c0-4.1,3.3-7.4,7.4-7.4h75.6
				l4.8-17.3h-22c-11.4,8.7-24.5,13.3-38.2,13.3h-17.5c-2,0-3.9-0.8-5.3-2.3c-1.4-1.4-2.2-3.4-2.1-5.4l0.9-28.2
				c-3.6,0.7-7.2,1-10.8,1h-17.5c-2,0-3.9-0.8-5.3-2.3c-1.4-1.4-2.2-3.4-2.1-5.4l1.7-56.3c0.1-3.4,2.5-6.3,5.8-7l9.4-2.1
				c12-6.1,19.7-25.1,19.7-48.6V34.8c0-4.1,3.3-7.4,7.4-7.4h268c4.1,0,7.4,3.3,7.4,7.4v27.5h27.5c4.1,0,7.4,3.3,7.4,7.4l0,138.4
				c0,21.5-9,48.4-22.9,68.4c-13,18.7-36.4,41-74.2,41H2351.6z"/>
			<path class="st2" d="M2589.1,34.8v34.9h34.9v37.7V126v71V208c0,35.2-27.6,101.9-89.6,101.9h-182.8V275h-34.9v-56.3h81.3l8.9-32.2
				h-34.4c-10.1,8.4-22.3,13.3-35.6,13.3h-17.5l1.2-38.3c-5.9,2.2-12.1,3.4-18.6,3.4h-17.5l1.2-40l0.5-16.3l10.2-2.3
				c14.3-6.6,24.7-27.2,24.7-55.7V34.8h2.7h12.2H2589.1 M2398.9,130.2h143.5V126H2399C2399,127.4,2399,128.8,2398.9,130.2
				 M2589.1,19.9H2336h-12.2h-2.7c-8.2,0-14.9,6.7-14.9,14.9v15.9c0,22.7-7.5,37.1-14.9,41.6l-8.4,1.9c-6.6,1.5-11.4,7.3-11.6,14.1
				l-0.5,16.3l-1.2,40c-0.1,4,1.4,7.9,4.2,10.8c2.8,2.9,6.7,4.5,10.7,4.5h17.5c1,0,2.1,0,3.1-0.1l-0.6,19.6c-0.1,3,0.7,5.8,2.2,8.3
				c-3,2.7-4.9,6.7-4.9,11V275c0,8.2,6.7,14.9,14.9,14.9h20v20c0,8.2,6.7,14.9,14.9,14.9h182.8c17.3,0,33.4-4.4,47.8-13.1
				c12.4-7.5,23.3-17.9,32.5-31c17.9-25.7,24.2-54.4,24.2-72.6V197v-71v-18.6V69.7c0-8.2-6.7-14.9-14.9-14.9h-20v-20
				C2604,26.5,2597.3,19.9,2589.1,19.9L2589.1,19.9z M2377.5,201.4h9.8l-0.7,2.4h-12.7C2375.1,203,2376.3,202.2,2377.5,201.4
				L2377.5,201.4z"/>
		</g>
		<g>
			<path class="st2" d="M1787.9,1139.4c-2.2,0-4.3-1-5.7-2.7c-1.4-1.7-2-3.9-1.6-6.1l129.6-734.9c0.6-3.6,3.7-6.1,7.3-6.1h96.1
				c2.2,0,4.3,1,5.7,2.7c1.4,1.7,2,3.9,1.6,6.1l-129.6,734.9c-0.6,3.6-3.7,6.1-7.3,6.1H1787.9z"/>
			<path class="st2" d="M2013.7,397L2013.7,397 M2013.7,397L1884.1,1132h-96.1L1917.5,397H2013.7 M2013.7,382.2L2013.7,382.2h-96.1
				c-7.2,0-13.4,5.2-14.7,12.3l-129.6,734.9c-0.8,4.3,0.4,8.8,3.3,12.2c2.8,3.4,7,5.3,11.4,5.3h96.1c7.2,0,13.4-5.2,14.7-12.3
				L2028.3,400c0.2-1,0.3-2,0.3-3C2028.6,388.8,2021.9,382.2,2013.7,382.2L2013.7,382.2z M2013.7,411.9L2013.7,411.9L2013.7,411.9
				L2013.7,411.9z"/>
		</g>
		<g>
			<path class="st2" d="M1650.9,1139.4c-2.2,0-4.3-1-5.7-2.7c-1.4-1.7-2-3.9-1.6-6.1l67.1-380.6L1541.3,1135
				c-1.2,2.7-3.9,4.4-6.8,4.4h-36.2c-3.9,0-7.1-2.9-7.4-6.8l-33.7-385l-68,385.7c-0.6,3.6-3.7,6.1-7.3,6.1h-96.1
				c-2.2,0-4.3-1-5.7-2.7c-1.4-1.7-2-3.9-1.6-6.1L1408,395.7c0.6-3.6,3.7-6.1,7.3-6.1h96.1c2.2,0,4.3,1,5.7,2.6
				c1,1.2,1.6,2.6,1.7,4.1l62.3,365.7l192.6-368.3c1.2-2.5,3.8-4.3,6.7-4.3h96.1c2.2,0,4.3,1,5.7,2.7c1.4,1.7,2,3.9,1.6,6.1
				l-129.6,734.9c-0.6,3.6-3.7,6.1-7.3,6.1H1650.9z"/>
			<path class="st2" d="M1876.6,397L1876.6,397 M1876.6,397L1747,1132h-96.1l77.8-441.3L1534.4,1132h-36.2l-38.6-441.3l-77.8,441.3
				h-96.1L1415.3,397h96.1l0,0.1l66.1,388l202.9-388l0-0.1H1876.6 M1876.6,382.2L1876.6,382.2h-96.1c-6,0-11.2,3.5-13.6,8.8
				l-182.1,348.2l-58.5-343.7c-0.3-2.9-1.5-5.7-3.4-8c-2.8-3.3-7-5.3-11.4-5.3h-96.1c-7.2,0-13.4,5.2-14.7,12.3l-129.6,734.9
				c-0.8,4.3,0.4,8.8,3.3,12.2c2.8,3.4,7,5.3,11.4,5.3h96.1c7.2,0,13.4-5.2,14.7-12.3l58.2-330l28.8,328.7
				c0.7,7.7,7.1,13.6,14.8,13.6h36.2c5.9,0,11.2-3.5,13.6-8.9l144.5-328.4l-56.4,319.8c-0.8,4.3,0.4,8.8,3.3,12.2
				c2.8,3.4,7,5.3,11.4,5.3h96.1c7.2,0,13.4-5.2,14.7-12.3L1891.2,400c0.2-1,0.3-2,0.3-3C1891.5,388.8,1884.8,382.2,1876.6,382.2
				L1876.6,382.2z M1876.6,411.9L1876.6,411.9L1876.6,411.9L1876.6,411.9z"/>
		</g>
		<g>
			<path class="st2" d="M513.4,1139.4c-46.1,0-81.3-14-104.5-41.5c-33-39.1-41.6-106-25.7-198.7c0-0.2,0-0.4,0.1-0.6l88.7-502.9
				c0.6-3.6,3.7-6.1,7.3-6.1h96.1c2.2,0,4.3,1,5.7,2.7c1.4,1.7,2,3.9,1.6,6.1l-81.1,460.2c-6.6,37.3-1,72,14.5,90.5
				c7.2,8.6,16,13,26,13c15.5,0,32.9-10.9,47.7-30c15.8-20.3,27.3-47.3,32.3-76.1l81.2-460.2c0.6-3.6,3.7-6.1,7.3-6.1h96.1
				c2.2,0,4.3,1,5.7,2.7c1.4,1.7,2,3.9,1.6,6.1l-88.7,502.9c0,0.2-0.1,0.4-0.1,0.6c-12.7,70.1-34.2,125.5-63.9,164.6
				C624.5,1114.9,574.8,1139.4,513.4,1139.4z"/>
			<path class="st2" d="M806.7,397l-88.2,500.2h0c0,0,0,0,0,0l-0.5,2.7h0c-22.1,122.6-76.7,232.1-204.6,232.1
				c-127.9,0-143.9-109.4-122.8-232.1h0L479.2,397h96.1l-81.1,460.2h0c-10.9,62,10.5,112.2,47.8,112.2c37.3,0,76.4-50.2,87.4-112.2
				L710.6,397H806.7 M718.5,897.2L718.5,897.2 M806.7,382.2h-96.1c-7.2,0-13.4,5.2-14.7,12.3l-81.2,460.2
				c-4.9,27.6-15.8,53.5-30.9,72.8c-13.4,17.2-28.7,27.1-41.8,27.1c-7.7,0-14.5-3.5-20.3-10.3c-6.5-7.8-11.2-19.2-13.7-33.2
				c-2.7-15.4-2.4-33.1,0.8-51.2L590,399.6c0.8-4.3-0.4-8.8-3.3-12.2c-2.8-3.4-7-5.3-11.4-5.3h-96.1c-7.2,0-13.4,5.2-14.7,12.3
				l-88.7,502.9c-0.1,0.3-0.1,0.6-0.1,0.9c-7.4,43.1-9.6,81.1-6.5,113c3.7,38.4,15.1,69.2,33.9,91.5c24.7,29.3,61.7,44.1,110.2,44.1
				c63.8,0,115.6-25.5,153.8-75.9c30.4-40,52.4-96.4,65.3-167.6c0.1-0.3,0.1-0.6,0.2-0.9l0.4-2.3c0.1-0.3,0.1-0.5,0.1-0.8
				l88.1-499.8c0.8-4.3-0.4-8.8-3.3-12.2C815.3,384.1,811.1,382.2,806.7,382.2L806.7,382.2z M806.7,411.9L806.7,411.9L806.7,411.9
				L806.7,411.9z"/>
		</g>
		<g>
			<path class="st2" d="M717.6,1139.4c-2.2,0-4.3-1-5.7-2.7c-1.4-1.7-2-3.9-1.6-6.1l129.6-734.9c0.6-3.6,3.7-6.1,7.3-6.1h192.1
				c2.2,0,4.3,1,5.7,2.7c1.4,1.7,2,3.9,1.6,6.1l-27.5,156.1c-0.6,3.6-3.7,6.1-7.3,6.1h-89.7l-20.1,114h87.1c2.2,0,4.3,1,5.7,2.7
				c1.4,1.7,2,3.9,1.6,6.1l-27.5,156.1c-0.6,3.6-3.7,6.1-7.3,6.1h-89.7l-50.8,287.8c-0.6,3.6-3.7,6.1-7.3,6.1H717.6z"/>
			<path class="st2" d="M1039.3,397l-27.5,156.1h-96l-22.7,128.8h96L961.5,838h-96l-51.8,294h-96.1L847.2,397h48.1h48.1H1039.3
				 M989.1,681.9L989.1,681.9 M1039.3,382.2h-96h-48.1h-48.1c-7.2,0-13.4,5.2-14.7,12.3l-129.6,734.9c-0.8,4.3,0.4,8.8,3.3,12.2
				c2.8,3.4,7,5.3,11.4,5.3h96.1c7.2,0,13.4-5.2,14.7-12.3l49.7-281.7h83.5c7.2,0,13.4-5.2,14.7-12.3l27.4-155.7c0.2-1,0.3-2,0.3-3
				c0-8.2-6.7-14.9-14.9-14.9h0h-78.2l17.5-99.1h83.5c7.2,0,13.4-5.2,14.7-12.3l27.5-156.1c0.8-4.3-0.4-8.8-3.3-12.2
				C1047.9,384.1,1043.7,382.2,1039.3,382.2L1039.3,382.2z M1039.3,411.9L1039.3,411.9L1039.3,411.9L1039.3,411.9z"/>
		</g>
		<g>
			<path class="st2" d="M1171.7,1139.4c-4.1,0-7.4-3.3-7.4-7.3l-2-111.4h-123l-42.2,113.8c-1.1,2.9-3.9,4.9-7,4.9h-97.9
				c-2.4,0-4.7-1.2-6.1-3.2c-1.4-2-1.7-4.6-0.9-6.8L1158.6,392c1.1-2.9,3.9-4.9,7-4.9h90.9c4.1,0,7.4,3.3,7.4,7.3l13.3,737.4
				c0,2-0.7,3.9-2.1,5.3c-1.4,1.4-3.3,2.2-5.3,2.2H1171.7z M1159.2,849.8l-2.6-145.5l-53.9,145.5H1159.2z"/>
			<path class="st2" d="M1256.4,394.6l13.3,737.4h-97.9l-2.1-118.7h-135.5l-44,118.7h-97.9l273.3-737.4H1256.4 M1092,857.3h74.8
				l-3.5-192.5L1092,857.3 M1256.4,379.7h-90.9c-6.2,0-11.8,3.9-14,9.7l-273.3,737.4c-1.7,4.6-1,9.7,1.7,13.7
				c2.8,4,7.3,6.4,12.2,6.4h97.9c6.2,0,11.8-3.9,14-9.7l40.4-109H1155l1.9,104.1c0.1,8.1,6.8,14.6,14.9,14.6h97.9
				c4,0,7.8-1.6,10.6-4.5c2.8-2.8,4.3-6.7,4.3-10.7l-13.3-737.4C1271.1,386.2,1264.5,379.7,1256.4,379.7L1256.4,379.7z
				 M1113.4,842.4l36.5-98.5l1.8,98.5H1113.4L1113.4,842.4z"/>
		</g>
		<g>
			<path class="st2" d="M2186.2,1139.4c-2.2,0-4.3-1-5.7-2.7c-1.4-1.7-2-3.9-1.6-6.1l100.5-570.2h-61.8c-2.2,0-4.3-1-5.7-2.7
				c-1.4-1.7-2-3.9-1.6-6.1l27.5-156.1c0.6-3.6,3.7-6.1,7.3-6.1h253.7c2.2,0,4.3,1,5.7,2.7c1.4,1.7,2,3.9,1.6,6.1l-27.5,156.1
				c-0.6,3.6-3.7,6.1-7.3,6.1h-80.7l-101,572.7c-0.6,3.6-3.7,6.1-7.3,6.1H2186.2z"/>
			<path class="st2" d="M2498.8,397L2498.8,397 M2498.8,397l-27.5,156.1h-86.9L2282.3,1132h-96.1l102.1-578.9h-70.6l27.5-156.1
				H2498.8 M2498.8,382.2L2498.8,382.2h-253.7c-7.2,0-13.4,5.2-14.7,12.3L2203,550.5c-0.8,4.3,0.4,8.8,3.3,12.2
				c2.8,3.4,7,5.3,11.4,5.3h52.9l-99,561.4c-0.8,4.3,0.4,8.8,3.3,12.2c2.8,3.4,7,5.3,11.4,5.3h96.1c7.2,0,13.4-5.2,14.7-12.3
				l99.9-566.6h74.4c7.2,0,13.4-5.2,14.7-12.3l27.4-155.7c0.2-1,0.3-2,0.3-3C2513.7,388.8,2507.1,382.2,2498.8,382.2L2498.8,382.2z
				 M2498.8,411.9L2498.8,411.9L2498.8,411.9L2498.8,411.9z"/>
		</g>
		<g>
			<path class="st2" d="M2567.3,1139.4c-46.1,0-81.3-14-104.5-41.5c-33-39.1-41.6-106-25.7-198.7c0-0.2,0-0.4,0.1-0.6l88.7-502.9
				c0.6-3.6,3.7-6.1,7.3-6.1h96.1c2.2,0,4.3,1,5.7,2.7c1.4,1.7,2,3.9,1.6,6.1l-81.1,460.2c-6.6,37.3-1,72,14.5,90.5
				c7.2,8.6,16,13,26,13c15.5,0,32.9-10.9,47.7-30c15.8-20.2,27.2-47.3,32.3-76l81.2-460.2c0.6-3.6,3.7-6.1,7.3-6.1h96.1
				c2.2,0,4.3,1,5.7,2.7c1.4,1.7,2,3.9,1.6,6.1l-88.7,502.9c0,0.2-0.1,0.4-0.1,0.6c-12.7,70.1-34.2,125.5-63.9,164.6
				C2678.5,1114.9,2628.7,1139.4,2567.3,1139.4z"/>
			<path class="st2" d="M2860.6,397L2860.6,397 M2860.6,397l-88.2,500.2c0,0,0,0,0,0l-0.5,2.7h0c-22.1,122.6-76.7,232.1-204.6,232.1
				c-127.9,0-143.9-109.4-122.8-232.1h0l88.7-502.9h96.1l-81.1,460.2h0c-10.9,62,10.5,112.2,47.8,112.2c37.3,0,76.4-50.2,87.4-112.2
				l81.2-460.2H2860.6 M2860.7,382.2L2860.7,382.2h-96.1c-7.2,0-13.4,5.2-14.7,12.3l-81.2,460.2c-4.9,27.6-15.8,53.5-30.9,72.8
				c-13.4,17.2-28.7,27.1-41.8,27.1c-7.7,0-14.5-3.5-20.3-10.3c-6.5-7.8-11.2-19.2-13.7-33.2c-2.7-15.4-2.4-33.1,0.8-51.2
				c0-0.1,0-0.1,0-0.2l81.1-460c0.8-4.3-0.4-8.8-3.3-12.2c-2.8-3.4-7-5.3-11.4-5.3h-96.1c-7.2,0-13.4,5.2-14.7,12.3l-88.7,502.9
				c-0.1,0.3-0.1,0.6-0.1,0.9c-7.4,43.1-9.6,81.1-6.5,113c3.7,38.4,15.1,69.2,33.9,91.5c24.7,29.3,61.7,44.1,110.2,44.1
				c63.8,0,115.6-25.5,153.8-75.9c30.4-40,52.4-96.4,65.3-167.6c0.1-0.3,0.1-0.6,0.2-0.9l0.5-2.7c0,0,0,0,0-0.1l88.1-499.7
				c0.2-1,0.3-2,0.3-3C2875.5,388.8,2868.9,382.2,2860.7,382.2L2860.7,382.2z M2860.6,411.9L2860.6,411.9L2860.6,411.9L2860.6,411.9
				z"/>
		</g>
		<g>
			<path class="st2" d="M150,1139.4C150,1139.4,150,1139.4,150,1139.4c-1.7,0-3.4,0-5.1-0.1c-10.8-0.3-27.9-0.4-50.8-0.4
				c-37.8,0-78.7,0.4-79.1,0.4c0,0-0.1,0-0.1,0c-2.5,0-4.9-1.3-6.3-3.4c-1.4-2.2-1.5-4.9-0.4-7.2l75.1-156.1
				c1.2-2.6,3.8-4.2,6.7-4.2h68c60,0,79.1-29.9,85.2-47.8c10.8-32-2.8-72.7-31.6-94.7l0,0c-0.6-0.5-1.4-1.1-2.3-1.8L164,786.7
				c-0.2-0.2-0.5-0.4-0.7-0.6c-19.7-20.7-31.2-49.2-34.1-84.5c-2.4-29.8,1.3-64.6,10.9-103.5c9.2-36.9,25-91,56.2-134.6
				c35.1-49.1,82.2-74,139.8-74c36.1,0,116.1,0,116.1,0c2.2,0,4.3,1,5.7,2.6c1.4,1.7,2,3.9,1.6,6l-26.6,156.1
				c-0.6,3.6-3.7,6.2-7.3,6.2h-84c-47.3,0-79,13.4-86.9,36.7c-7.2,21.3,6.2,49.6,33.3,70.3c0.1,0.1,0.1,0.1,0.2,0.2l47.3,38.9
				c0.2,0.2,0.4,0.3,0.5,0.5c22,22,32.8,57.8,32,106.4c-0.7,45.3-11.5,90.3-17.8,113c-16.9,60.8-39.4,109.2-66.8,144
				C247.7,1116.2,202.7,1139.4,150,1139.4z"/>
			<path class="st2" d="M336.2,396.9c36.1,0,116.1,0,116.1,0L425.7,553h-84c-117,0-115.7,76.3-58.1,120.4l47.3,38.9
				c46.4,46.4,29,152.2,12.3,212.2c-28,100.6-82.1,207.4-193.3,207.4c-1.6,0-3.2,0-4.9-0.1c-12.3-0.3-31.3-0.5-51-0.5
				c-38.2,0-79.2,0.4-79.2,0.4L90,975.8h68c117,0,115.7-111.8,58.1-155.8c0,0-47.3-38.9-47.3-38.9c-39.7-41.7-38.7-111.2-21.3-181.1
				C167.7,518.4,210.9,396.9,336.2,396.9 M336.2,382c-60.2,0-109.3,26-145.9,77.2c-31.9,44.7-48,99.7-57.4,137.1
				c-9.9,39.7-13.6,75.3-11.1,105.9c3,37,15.2,67,36.1,89c0.4,0.4,0.9,0.8,1.3,1.2l23.7,19.5l16.3,13.4l5.4,4.4
				c0.8,0.7,1.6,1.4,2.5,2l0,0c26.4,20.2,38.9,57.3,29,86.4c-9.3,27.5-37.1,42.7-78.1,42.7H90c-5.7,0-10.9,3.3-13.4,8.4L1.5,1125.4
				c-2.2,4.6-1.9,10.1,0.9,14.4c2.7,4.3,7.5,6.9,12.6,6.9c0.1,0,0.1,0,0.2,0c0.4,0,41.3-0.4,79-0.4c22.9,0,39.9,0.2,50.6,0.4
				c1.8,0,3.5,0.1,5.3,0.1c55.1,0,102.1-24.1,139.5-71.7c28-35.6,50.9-84.9,68.1-146.6c6.4-23.1,17.3-68.8,18.1-114.9
				c0.8-50.7-10.7-88.3-34.2-111.8c-0.3-0.3-0.7-0.7-1.1-1l-47.3-38.9c-0.1-0.1-0.3-0.2-0.4-0.3c-24.6-18.8-37-43.7-30.8-62
				c6.8-20.1,35.9-31.7,79.9-31.7h84c7.3,0,13.5-5.2,14.7-12.4L467,399.4c0.7-4.3-0.5-8.7-3.3-12.1c-2.8-3.4-7-5.3-11.4-5.3
				C452.3,382.1,372.3,382,336.2,382L336.2,382z"/>
		</g>
		<g>
			<path class="st2" d="M2939.7,1139.4c-3.7,0-6.8-2.7-7.4-6.4l-30.2-205.4l-36.3,205.6c-0.6,3.6-3.7,6.1-7.3,6.1h-96.1
				c-2.2,0-4.3-1-5.7-2.7c-1.4-1.7-2-3.9-1.6-6.1l129.6-734.9c0.6-3.6,3.7-6.1,7.3-6.1h125.8c41.1,0,78.5,23.1,95.4,59
				c19.6,41.6,23.5,100.4,11.6,174.7c-11.9,74.1-25.5,119.1-45.3,150.7c-19.2,30.5-44.3,48.1-78.2,65.7l42.8,291.3
				c0.3,2.1-0.3,4.3-1.7,5.9c-1.4,1.6-3.5,2.6-5.6,2.6H2939.7z M2942.4,727.4c15.9,0,29.6-5.3,40.6-15.9c14-13.3,24-35,29.7-64.5
				c6.3-32.6,3.6-56.2-7.9-70.2c-8-9.7-20.8-15.1-37.9-16.2l-29.4,166.7H2942.4z"/>
			<path class="st2" d="M3017.9,397c37.5,0,72.7,20.8,88.7,54.7c15.6,33.1,24.5,86,11,170.3c-23.5,145.9-53.1,177.3-124.2,213.4
				l43.6,296.5h-97.2l-36.9-251l-44.3,251h-96.1L2892,397h10.8h85.3H3017.9 M2928.6,734.9h13.8c31.5,0,64.6-19,77.6-86.4
				c14.6-75.8-19.7-95.4-59.4-95.4L2928.6,734.9 M3017.9,382.2h-29.7h-85.3H2892c-7.2,0-13.4,5.2-14.7,12.3l-129.6,734.9
				c-0.8,4.3,0.4,8.8,3.3,12.2c2.8,3.4,7,5.3,11.4,5.3h96.1c7.2,0,13.4-5.2,14.7-12.3l28.3-160.3l23.5,159.9
				c1.1,7.3,7.3,12.7,14.7,12.7h97.2c4.3,0,8.4-1.9,11.3-5.2c2.8-3.3,4.1-7.6,3.5-11.9l-42.1-286.1c32.6-17.4,57.2-35.4,76.3-65.9
				c20.4-32.4,34.2-78.3,46.3-153.4c12.2-75.8,8.1-136-12.2-179C3101.9,407,3061.8,382.2,3017.9,382.2L3017.9,382.2z M2946.4,719.8
				l26.6-151c11.7,1.7,20.4,6,26.1,12.8c9.9,12,12.1,34.2,6.4,64c-5.4,27.9-14.6,48.3-27.5,60.5
				C2969.1,714.6,2958.7,719.1,2946.4,719.8L2946.4,719.8z"/>
		</g>
		<g>
			<path class="st2" d="M3127.8,1139.9c-26.7,0-48.4-0.1-64.5-0.4c-2.2,0-4.2-1-5.6-2.7c-1.4-1.7-2-3.9-1.6-6l129.6-734.9
				c0.6-3.6,3.7-6.1,7.3-6.1h126.2c33.2,0,63.5,13.5,83.2,37c25.9,30.9,33.6,76.9,22.9,136.6c-12.3,68.6-33.8,128.5-64,178.2
				c0.8,1.5,1.5,3,2.2,4.4c25,54.1,19.8,124.4,11.1,173.7c-17.3,97.8-34.2,143.6-64.2,174.9c-27.1,28.3-66.4,44.7-107.9,45
				C3175.1,1139.8,3150,1139.9,3127.8,1139.9C3127.8,1139.9,3127.8,1139.9,3127.8,1139.9z M3242.2,968.5c8.7,0,16.7-4.5,21.3-12
				c5.2-8.5,12.3-23.1,16.2-44.6c4.3-24.1,1.8-43.8-6.9-54.2c-4.2-5.1-9.7-7.6-16.2-7.6h-39.8l-20.9,118.5H3242.2z M3270.7,679
				c7.4,0,14.2-3.1,18.8-8.5c7.4-8.8,17.2-24.3,21.5-48.1c4.8-26.6,3.1-46.5-4.8-56c-3.3-4-7.7-5.9-13.4-5.9h-24.9L3246.9,679
				H3270.7z"/>
			<path class="st2" d="M3319.2,397c51.1,0,121.9,35.7,98.8,164.9c-14.1,78.8-38.9,137-65.3,179.4c1.5,2.5,2.8,5.1,4.1,7.7
				c15.3,33.1,25.2,86.7,10.5,169.3c-16.6,93.6-32.7,140.3-62.3,171.1c-26.6,27.8-64.1,42.4-102.6,42.7c-21.3,0.2-48.3,0.3-74.7,0.3
				c-23.5,0-46.5-0.1-64.4-0.4L3192.9,397h83.8h12.4H3319.2 M3238,686.5h32.7c9.4,0,18.4-4,24.4-11.2c8.2-9.8,18.6-26.4,23.1-51.6
				c8.2-45.3-2.2-70.6-25.6-70.6c-23.4,0-31.2,0-31.2,0L3238,686.5 M3187,975.9h55.2c11.3,0,21.7-5.9,27.7-15.5
				c6.2-10.1,13.2-25.5,17.1-47.2c8.2-45.3-7.1-70.6-30.4-70.6c-23.4,0-46,0-46,0L3187,975.9 M3319.2,382.2h-30.1h-12.4h-83.8
				c-7.2,0-13.4,5.2-14.7,12.3l-129.6,734.9c-0.8,4.3,0.4,8.7,3.2,12c2.8,3.4,6.9,5.3,11.2,5.4c16.2,0.3,37.9,0.4,64.7,0.4
				c22.2,0,47.4-0.1,74.8-0.3c21.3-0.2,41.9-4.2,61.2-12.1c19.9-8.2,37.4-20,51.9-35.1c31.2-32.5,48.6-79.3,66.2-178.8
				c7-39.4,9.1-75.4,6.2-107.2c-2.5-26.8-8.4-50.7-17.8-71c-0.2-0.3-0.3-0.7-0.5-1c29.5-49.8,50.7-109.3,62.8-177.2
				c5.7-32.1,6.3-60.8,1.5-85.4c-4.3-22.6-13.1-41.9-26-57.3C3387,396.6,3354.6,382.2,3319.2,382.2L3319.2,382.2z M3274.1,568h18.7
				c4.4,0,6.4,1.6,7.7,3.2c2.4,2.8,9.6,14.7,3.2,49.9c-4,22.2-13,36.5-19.9,44.7c-3.1,3.7-7.9,5.9-13.1,5.9h-14.9L3274.1,568
				L3274.1,568z M3223,857.4h33.5c4.4,0,7.7,1.6,10.5,5c7.2,8.6,9.1,26.6,5.2,48.2c-3.7,20.4-10.3,34.1-15.2,42.1
				c-3.3,5.3-8.9,8.5-15,8.5h-37.4L3223,857.4L3223,857.4z"/>
		</g>
		<g>
			<path class="st2" d="M3551.9,1139.9c-34.2,0-65.3-15.5-90-44.9c-55-65.5-73.9-192.6-49.4-331.5c17.5-99.3,54.7-192.7,104.8-263
				c50.9-71.5,109.2-110.8,164.3-110.8c34.2,0,65.3,15.5,90,44.9c55,65.5,73.9,192.6,49.4,331.5c-17.5,99.3-54.7,192.7-104.8,263
				C3665.4,1100.5,3607,1139.9,3551.9,1139.9z M3654.1,560.5c-24,0-51.6,21.3-75.9,58.5c-25.5,39.1-45,91.2-54.8,146.7
				c-14,79.5-5.2,152.3,22.6,185.4c9.6,11.5,20.9,17.3,33.6,17.3c24,0,51.6-21.3,75.9-58.5c25.5-39.1,45-91.2,54.8-146.7
				c14-79.5,5.2-152.3-22.6-185.4C3678,566.3,3666.7,560.5,3654.1,560.5z"/>
			<path class="st2" d="M3681.6,397c108.8,0,167.9,164.6,132.1,367.7c-35.8,203.1-153,367.7-261.7,367.7
				c-108.8,0-167.9-164.6-132.1-367.7C3455.7,561.7,3572.9,397,3681.6,397 M3579.5,975.9c55.7,0,117.5-94.7,138-211.4
				s-7.8-211.4-63.5-211.4s-117.5,94.7-138.1,211.4S3523.9,975.9,3579.5,975.9 M3681.6,382.2c-57.5,0-118,40.5-170.4,113.9
				c-50.7,71.2-88.4,165.7-106.1,266c-12.3,69.8-14,138.1-4.9,197.4c9,58.9,28.4,107.3,55.9,140.2c26.1,31.1,59.2,47.6,95.7,47.6
				c57.5,0,118-40.5,170.4-113.9c50.7-71.2,88.4-165.7,106.1-266c12.3-69.8,14-138.1,4.9-197.4c-9-58.9-28.4-107.3-55.9-140.2
				C3751.2,398.6,3718.1,382.2,3681.6,382.2L3681.6,382.2z M3579.5,961c-10.5,0-19.6-4.8-27.9-14.6c-12.1-14.4-21-39-25-69
				c-4.3-32.7-3-70.8,4-110.3c9.6-54.5,28.7-105.7,53.7-143.9c22.9-35.1,48.3-55.2,69.7-55.2c10.5,0,19.6,4.8,27.9,14.6
				c12.1,14.4,21,39,25,69c4.3,32.7,3,70.8-4,110.3c-9.6,54.5-28.7,105.7-53.7,143.9C3626.3,940.9,3600.9,961,3579.5,961L3579.5,961
				z"/>
		</g>
	</g>
	<g>
		<g>
			<g>
				<polygon class="st0" points="1937.9,124.6 2222.5,147.7 2222.5,99.3 1937.9,76.3 				"/>
				<g>
					<path class="st0" d="M1640.1,173.8h200.7v31.8h-101.6v47.9h-88v56.3h84.7c22.3,0,40.4-21.5,40.4-48v-8.3h71.6
						c22.3,0,40.3-21.5,40.3-47.9l0,0v-31.8v-31v-16.9h-248.1V173.8z"/>
					<rect x="1044" y="158.5" class="st0" width="213.1" height="56.3"/>
					<rect x="2676.2" y="161.7" class="st0" width="214.9" height="56.3"/>
					<polygon class="st0" points="3144.3,69.7 3073.2,69.7 3073.2,102.1 2951.1,102.1 2951.1,150 3073.2,150 3073.2,309.9 
						3144.3,309.9 3144.3,150 3280.6,150 3280.6,102.1 3144.3,102.1 					"/>
					<rect x="3165.2" y="49.8" class="st0" width="55.9" height="37.5"/>
					<rect x="3239.1" y="49.8" class="st0" width="55.9" height="37.5"/>
					<path class="st0" d="M3236,182.2h-51.8v18.4c0,79.5,41.1,109.3,75,109.3h21.3v-44V262C3259.9,262,3236,232,3236,182.2z"/>
					<path class="st0" d="M2943.3,262v3.9v44h21.3c33.9,0,75-29.7,75-109.3v-18.4h-51.8C2987.8,232,2964,262,2943.3,262z"/>
					<path class="st0" d="M2358.7,69.7h-2.7v15.9c0,28.5-10.4,49-24.7,55.7l-10.2,2.3l-0.5,16.3l-1.2,40h17.5
						c34.3,0,62.2-33.1,62.2-73.9h178.2v39.1h-164.5l-15.5,56.3h161.4v3.2c0,16-10.9,29-24.4,29h-22.6h-160.1v56.3h182.8
						c62,0,89.6-66.7,89.6-101.9l0-11.1v-71v-18.6V69.7h-253.2H2358.7z"/>
					<polygon class="st0" points="1937.9,285.3 2222.5,308.3 2222.5,259.9 1937.9,236.9 					"/>
					<polygon class="st0" points="1937.9,204.9 2222.5,228 2222.5,179.6 1937.9,156.6 					"/>
					<path class="st0" d="M1320.6,126h241.7v51.2c0,36.7-35,76.4-82.6,76.4h-136.3v56.3h167.4c43.5,0,81.9-40.3,83.6-112.1h0.2
						v-57.4V69.7h-273.9V126z"/>
					<path class="st0" d="M766.3,126h199v51.2c0,36.7-35,76.4-82.6,76.4H746.3v56.3h167.4c43.5,0,81.9-40.3,83.6-112.1h0.2v-57.4
						V69.7H766.3V126z"/>
					<polyline class="st0" points="964.9,257.6 1016,318.3 1082.5,317.8 992.5,210.8 					"/>
				</g>
			</g>
			<g>
				<polygon class="st1" points="1903,89.8 2187.6,112.8 2187.6,64.4 1903,41.4 				"/>
				<g>
					<path class="st1" d="M1605.2,138.9h200.7v31.8h-101.6v47.9h-88V275h84.7c22.3,0,40.4-21.5,40.4-48v-8.3h71.6
						c22.3,0,40.3-21.5,40.3-47.9l0,0v-31.8v-31V91h-248.1V138.9z"/>
					<rect x="1009.1" y="123.6" class="st1" width="213.1" height="56.3"/>
					<rect x="2641.3" y="126.8" class="st1" width="214.9" height="56.3"/>
					<polygon class="st1" points="3109.4,34.8 3038.3,34.8 3038.3,67.2 2916.2,67.2 2916.2,115.1 3038.3,115.1 3038.3,275 
						3109.4,275 3109.4,115.1 3245.7,115.1 3245.7,67.2 3109.4,67.2 					"/>
					<rect x="3130.3" y="14.9" class="st1" width="55.9" height="37.5"/>
					<rect x="3204.2" y="14.9" class="st1" width="55.9" height="37.5"/>
					<path class="st1" d="M3201.1,147.3h-51.8v18.4c0,79.5,41.1,109.3,75,109.3h21.3v-44v-3.9C3225,227.1,3201.1,197.1,3201.1,147.3
						z"/>
					<path class="st1" d="M2908.4,227.1v3.9v44h21.3c33.9,0,75-29.7,75-109.3v-18.4h-51.8C2952.9,197.1,2929.1,227.1,2908.4,227.1z"
						/>
					<path class="st1" d="M2323.8,34.8h-2.7v15.9c0,28.5-10.4,49-24.7,55.7l-10.2,2.3l-0.5,16.3l-1.2,40h17.5
						c34.3,0,62.2-33.1,62.2-73.9h178.2v39.1h-164.5l-15.5,56.3h161.4v3.2c0,16-10.9,29-24.4,29h-22.6h-160.1V275h182.8
						c62,0,89.6-66.7,89.6-101.9l0-11.1v-71V72.4V34.8H2336H2323.8z"/>
					<polygon class="st1" points="1903,250.4 2187.6,273.4 2187.6,225 1903,202 					"/>
					<polygon class="st1" points="1903,170.1 2187.6,193.1 2187.6,144.7 1903,121.7 					"/>
					<path class="st1" d="M1285.7,91.1h241.7v51.2c0,36.7-35,76.4-82.6,76.4h-136.3V275h167.4c43.5,0,81.9-40.3,83.6-112.1h0.2
						v-57.4V34.8h-273.9V91.1z"/>
					<path class="st1" d="M731.4,91.1h199v51.2c0,36.7-35,76.4-82.6,76.4H711.4V275h167.4c43.5,0,81.9-40.3,83.6-112.1h0.2v-57.4
						V34.8H731.4V91.1z"/>
					<polyline class="st1" points="930,222.7 981.1,283.4 1047.6,282.9 957.6,175.9 					"/>
				</g>
			</g>
		</g>
		<polygon class="st0" points="1787.9,1132 1884.1,1132 2013.7,397 1917.5,397 		"/>
		<polygon class="st0" points="1780.5,397 1780.4,397.1 1577.5,785.1 1511.4,397.1 1511.4,397 1415.3,397 1285.7,1132 1381.9,1132 
			1459.7,690.6 1498.3,1132 1534.4,1132 1728.7,690.6 1650.9,1132 1747,1132 1876.6,397 		"/>
		<path class="st0" d="M718,899.9l0.5-2.6c0,0,0,0,0,0h0L806.7,397h-96.1l-81.2,460.2c-10.9,62-50,112.2-87.4,112.2
			c-37.3,0-58.7-50.2-47.8-112.2h0L575.4,397h-96.1l-88.7,502.9h0c-21.1,122.6-5.1,232.1,122.8,232.1
			C641.3,1132,695.9,1022.5,718,899.9L718,899.9z"/>
		<polygon class="st0" points="961.5,838 989.1,681.9 893.1,681.9 915.8,553.1 1011.8,553.1 1039.3,397 943.3,397 895.3,397 
			847.2,397 717.6,1132 813.7,1132 865.6,838 		"/>
		<path class="st0" d="M1165.5,394.6L892.2,1132h97.9l44-118.7h135.5l2.1,118.7h97.9l-13.3-737.4H1165.5z M1092,857.3l71.4-192.5
			l3.5,192.5H1092z"/>
		<polygon class="st0" points="2471.3,553.1 2498.8,397 2245.1,397 2217.6,553.1 2288.2,553.1 2186.2,1132 2282.3,1132 
			2384.4,553.1 		"/>
		<path class="st0" d="M2772,899.9l0.5-2.6c0,0,0,0,0,0h0l88.2-500.2h-96.1l-81.2,460.2c-10.9,62-50,112.2-87.4,112.2
			c-37.3,0-58.7-50.2-47.8-112.2h0l81.1-460.2h-96.1l-88.7,502.9h0c-21.1,122.6-5.1,232.1,122.8,232.1
			C2695.2,1132,2749.8,1022.5,2772,899.9L2772,899.9z"/>
		<path class="st0" d="M283.6,673.4C226,629.3,224.7,553,341.7,553h84l26.6-156.1c0,0-80,0-116.1,0c-125.3,0-168.5,121.5-188.8,203
			C130,669.8,129.1,739.3,168.7,781c0,0,47.3,38.9,47.3,38.9c57.6,44.1,58.9,155.8-58.1,155.8H90l-75.1,156.1c0,0,94.1-1,130.2,0
			c114.4,3.2,169.8-105.3,198.1-207.4c16.7-60,34.2-165.7-12.3-212.2L283.6,673.4z"/>
		<path class="st0" d="M3117.5,622c13.6-84.4,4.6-137.2-11-170.3c-16-33.9-51.2-54.7-88.7-54.7h-29.7h-85.3H2892L2762.4,1132h96.1
			l44.3-251l36.9,251h97.2l-43.6-296.5C3064.5,799.3,3094.1,768,3117.5,622z M3020,648.5c-13,67.4-46.1,86.4-77.6,86.4h-13.8
			l32-181.8C3000.3,553.1,3034.6,572.7,3020,648.5z"/>
		<path class="st0" d="M3352.7,741.3c26.4-42.4,51.2-100.6,65.3-179.4c23.2-129.2-47.7-164.9-98.8-164.9h-30.1h-12.4h-83.8
			L3063.3,1132c38,0.7,98.9,0.4,139.1,0.1c38.5-0.3,75.9-14.9,102.6-42.7c29.6-30.8,45.7-77.5,62.3-171.1
			c14.7-82.6,4.8-136.2-10.5-169.3C3355.5,746.4,3354.1,743.8,3352.7,741.3z M3287,913.2c-3.9,21.8-10.9,37.1-17.1,47.2
			c-5.9,9.6-16.3,15.5-27.7,15.5H3187l23.5-133.4c0,0,22.7,0,46,0C3279.9,842.5,3295.1,867.8,3287,913.2z M3318.3,623.7
			c-4.5,25.2-14.9,41.8-23.1,51.6c-6.1,7.2-15.1,11.2-24.4,11.2H3238l23.5-133.4c0,0,7.8,0,31.2,0
			C3316.1,553.1,3326.5,578.4,3318.3,623.7z"/>
		<path class="st0" d="M3681.6,397c-108.8,0-225.9,164.6-261.7,367.7c-35.8,203.1,23.3,367.7,132.1,367.7
			c108.8,0,225.9-164.6,261.7-367.7C3849.5,561.7,3790.4,397,3681.6,397z M3717.6,764.5c-20.6,116.8-82.4,211.4-138.1,211.4
			s-84.1-94.7-63.5-211.4s82.4-211.4,138.1-211.4S3738.2,647.7,3717.6,764.5z"/>
	</g>
</g>
</svg>
