<?xml version="1.0" encoding="utf-8"?>
<!-- Generator: Adobe Illustrator 26.0.2, SVG Export Plug-In . SVG Version: 6.00 Build 0)  -->
<svg version="1.1" id="Layer_1" xmlns="http://www.w3.org/2000/svg" xmlns:xlink="http://www.w3.org/1999/xlink" x="0px" y="0px"
	 viewBox="0 0 3839 1877.1" style="enable-background:new 0 0 3839 1877.1;" xml:space="preserve">
<style type="text/css">
	.st0{display:none;}
	.st1{display:inline;fill:#FFFFFF;}
	.st2{display:inline;}
	.st3{fill:#2920E2;}
	.st4{fill:#FFFFFF;}
	.st5{fill:#E31E26;}
	.st6{fill:#F4A51C;}
	.st7{fill:#9A9A9A;}
</style>
<g>
	<g>
		<g>
			<path class="st5" d="M1436.3,1492.4C1436.3,1492.4,1436.6,1492.6,1436.3,1492.4c19.3-12.5,32.2-34.6,32.2-59.7
				c0-39-30.8-70.6-68.9-70.6h-15.3h-186.3v78.8v136.4h71.8v-41.9c0-7.4,6-13.4,13.4-13.4h97.8c7.4,0,13.4,6,13.4,13.4v1.3v40.6
				h68.5v-40.6C1462.6,1526.1,1458.1,1506.8,1436.3,1492.4z M1283.4,1467.9c-7.4,0-13.4-6-13.4-13.4v-27.4c0-7.4,6-13.4,13.4-13.4
				h97.8c7.4,0,13.4,6,13.4,13.4v27.4c0,7.4-6,13.4-13.4,13.4H1283.4z"/>
			<path class="st5" d="M1977.6,1362h-16.3h-38.2h-25.9H1859h-16.3c-35.3,0-63.9,28.6-63.9,63.9v17.2v134.1h70.4v-53h121.9v53h70.4
				v-134.1v-17.2C2041.5,1390.6,2012.9,1362,1977.6,1362z M1849.5,1467.8v-34.1c0-9.8,7.9-17.7,17.7-17.7h30.2h25.9h30.2
				c9.8,0,17.7,7.9,17.7,17.7v34.1H1849.5z"/>
			<rect x="2089.4" y="1362" class="st5" width="72.9" height="215.2"/>
			<path class="st5" d="M2436,1362h-229v215.2h69.4V1433c0-8.7,7.1-15.8,15.8-15.8h119c8.7,0,15.8,7.1,15.8,15.8v43.9v100.3h68.2
				v-100.3v-17.3v-26v-12.4C2495.3,1388.5,2468.7,1362,2436,1362z"/>
			<path class="st5" d="M2854.2,1362h-313.2v215.2h63.5v-134.6v-10.2c0-8.4,6.8-15.2,15.2-15.2h54.3c8.4,0,15.2,6.8,15.2,15.2v26.2
				l0,0v118.6h71.7v-134.6v-10.2c0-8.4,6.8-15.2,15.2-15.2h54.3c8.4,0,15.2,6.8,15.2,15.2v10.2v134.6h3.5h68.2v-152.1
				C2917.3,1390.2,2889,1362,2854.2,1362z"/>
			<path class="st5" d="M3469.6,1362h-229v215.2h69.4V1433c0-8.7,7.1-15.8,15.8-15.8h119c8.7,0,15.8,7.1,15.8,15.8v43.9v100.3h68.2
				v-100.3v-17.3v-26v-12.4C3528.8,1388.5,3502.3,1362,3469.6,1362z"/>
			<path class="st5" d="M537,1362h-229v215.2h69.4V1433c0-8.7,7.1-15.8,15.8-15.8h119c8.7,0,15.8,7.1,15.8,15.8v43.9v100.3h68.2
				v-100.3v-17.3v-26v-12.4C596.3,1388.5,569.8,1362,537,1362z"/>
			<path class="st5" d="M263.2,1416.7V1362H85.5l0,0H22.1v152c0,35,28.3,63.3,63.3,63.3h177.7v-54.7H102.5c-9.4,0-17-7.6-17-17l0,0
				c0-9.4,7.6-17,17-17h151.2v-38H102.5c-9.4,0-17-7.6-17-17l0,0c0-9.4,7.6-17,17-17L263.2,1416.7z"/>
			<path class="st5" d="M1156.6,1416.7V1362H978.9l0,0h-63.4v152c0,35,28.3,63.3,63.3,63.3h177.7v-54.7H996c-9.4,0-17-7.6-17-17l0,0
				c0-9.4,7.6-17,17-17h151.2v-38H996c-9.4,0-17-7.6-17-17l0,0c0-9.4,7.6-17,17-17L1156.6,1416.7z"/>
			<path class="st5" d="M3198.2,1416.7V1362h-177.6l0,0h-63.4v152c0,35,28.3,63.3,63.3,63.3h177.7v-54.7h-160.6c-9.4,0-17-7.6-17-17
				l0,0c0-9.4,7.6-17,17-17h151.2v-38h-151.2c-9.4,0-17-7.6-17-17l0,0c0-9.4,7.6-17,17-17L3198.2,1416.7L3198.2,1416.7z"/>
			<path class="st5" d="M3819.1,1362h-258.8v54.1h76.2c8.3,0,15,6.7,15,15v146.1h76.5v-146.1c0-8.3,6.7-15,15-15h76.2V1362z"/>
			<path class="st5" d="M1749.9,1362h-258.8v54.1h76.2c8.3,0,15,6.7,15,15v146.1h76.5v-146.1c0-8.3,6.7-15,15-15h76.2L1749.9,1362
				L1749.9,1362z"/>
			<path class="st5" d="M883.1,1362H624.4v54.1h76.2c8.3,0,15,6.7,15,15v146.1H792v-146.1c0-8.3,6.7-15,15-15h76.2L883.1,1362
				L883.1,1362z"/>
		</g>
		<g>
			<path class="st5" d="M1782.5,1749.3h-101.1c-11.8,0-20-4.7-20-15.4c0-9.5,7.1-17.7,16.5-17.7h172.9v-54.4h-189.3
				c-35.3,0-64.7,29.6-64.7,62.6c0,47.3,30.6,65.1,71.7,65.1h101.1c10.6,0,21.2,4.7,21.2,15.4c0,9.5-7.1,17.7-16.5,17.7h-177.6v54.4
				h194c31.7,0,64.7-26,64.7-62.6C1855.4,1770.6,1820.1,1749.3,1782.5,1749.3z"/>
			<path class="st5" d="M1204,1749.4h-98.8c-11.8,0-21.2-4.7-21.2-15.4c0-9.4,9.4-17.7,17.6-17.7h172.9v-54.4h-189.3
				c-37.6,0-68.2,29.6-68.2,62.6c0,47.2,32.9,65,74.1,65h98.8c11.8,0,21.2,4.7,21.2,15.4c0,9.4-9.4,17.7-17.6,17.7h-175.3v54.4h194
				c35.3,0,67-26,67-62.6C1279.3,1770.7,1245.2,1749.4,1204,1749.4z"/>
			<path class="st5" d="M2760.1,1661.9h-313.2v215.2h63.5v-134.6v-10.2c0-8.4,6.8-15.2,15.2-15.2h54.3c8.4,0,15.2,6.8,15.2,15.2
				v26.2l0,0v118.6h71.7v-134.6v-10.2c0-8.4,6.8-15.2,15.2-15.2h54.3c8.4,0,15.2,6.8,15.2,15.2v10.2v134.6h3.5h68.2V1725
				C2823.2,1690.1,2794.9,1661.9,2760.1,1661.9z"/>
			<path class="st5" d="M1565.1,1661.9h-64.7h-0.4v80.3c0,9-7.3,16.2-16.2,16.2h-96.6c-9,0-16.2-7.3-16.2-16.2v-80.3h-1.5h-66.7
				v78.8v11.3c0,34,27.6,61.6,61.6,61.6h32.4v63.5h75.3v-63.5h33c34,0,61.6-27.6,61.6-61.6v-90.1H1565.1L1565.1,1661.9z"/>
			<path class="st5" d="M2404.3,1716.5v-54.7h-177.6l0,0h-63.4v152c0,35,28.3,63.3,63.3,63.3h177.7v-54.7h-160.6
				c-9.4,0-17-7.6-17-17l0,0c0-9.4,7.6-17,17-17h151.2v-38h-151.2c-9.4,0-17-7.6-17-17l0,0c0-9.4,7.6-17,17-17L2404.3,1716.5
				L2404.3,1716.5z"/>
			<path class="st5" d="M2135.9,1661.8h-258.8v54.1h76.2c8.3,0,15,6.7,15,15V1877h76.5v-146.1c0-8.3,6.7-15,15-15h76.2V1661.8z"/>
		</g>
	</g>
	<g>
		<g>
			<g>
				<path class="st5" d="M3248.6,1124.4H589.3C252.9,1124.4,0,883.3,0,563.4C0,242.3,252.9,0,588.1,0h2661.7
					C3586.1,0,3839,242.3,3839,563.4C3840.2,883.3,3584.9,1124.4,3248.6,1124.4z"/>
			</g>
		</g>
		<g>
			<path class="st4" d="M786.9,644.5l-180-291.7H476.3v417.5h129.4V478.7l181.1,291.7h129.4V352.8H786.9V644.5z M1810.1,492.8v-41.2
				h-68.2v-56.5H1616v56.5h-68.2v41.2h68.2v277.6h125.8V492.8H1810.1z M988,770.4h125.8V492.8H988V770.4z M988,437.5h125.8v-85.9
				H988V437.5z M3187.4,474c-101.1,0-183.5,69.4-183.5,156.4c0,85.9,82.3,156.4,183.5,156.4c101.2,0,183.5-69.4,183.5-156.4
				S3290.9,474,3187.4,474z M3238,688.1c0,44.7-25.9,62.3-51.8,62.3c-24.7,0-51.8-18.8-51.8-62.3c0-16.5,0-60,0-60s0-41.2,0-57.6
				c0-43.5,25.9-62.3,51.8-62.3c24.7,0,51.8,17.6,51.8,62.3c0,16.5,0,48.2,0,58.8C3238,630.4,3238,671.6,3238,688.1z M2840.4,506.9
				c-20-11.8-41.2-22.3-70.6-24.7c-90.6-8.2-160,71.7-160,145.8c0,96.4,74.1,132.9,85.9,137.6c42.3,20,96.4,20,144.7-10.6
				c0,2.4,0,16.5,0,16.5h123.5V354h-123.5C2840.4,352.8,2840.4,442.2,2840.4,506.9z M2840.4,630.4c0,0,0,31.8,0,49.4
				c0,42.3-29.4,54.1-49.4,54.1c-20,0-49.4-11.8-49.4-54.1c0-15.3,0-49.4,0-49.4s0-35.3,0-49.4c0-43.5,29.4-54.1,49.4-54.1
				c20,0,49.4,10.6,49.4,54.1C2840.4,595.1,2840.4,630.4,2840.4,630.4z M1407.9,479.9c-41.2,1.2-76.5,18.8-100,42.3
				c0-7.1,0-29.4,0-29.4h-124.7v277.6h124.7c0,0,0-170.5,0-182.3c0-24.7,25.9-50.6,60-50.6c34.1,0,57.6,27.1,57.6,50.6
				c0,17.6,0,182.3,0,182.3h124.7c0,0,0-131.7,0-150.5C1550.2,509.3,1454.9,478.7,1407.9,479.9z M2428.8,479.9
				c-41.2,1.2-76.5,18.8-100,42.3c0-7.1,0-29.4,0-29.4h-124.7v277.6h124.7c0,0,0-170.5,0-182.3c0-24.7,25.9-50.6,60-50.6
				s57.6,27.1,57.6,50.6c0,17.6,0,182.3,0,182.3h124.7c0,0,0-131.7,0-150.5C2569.9,509.3,2474.6,478.7,2428.8,479.9z M2164.1,632.8
				c0-85.9-83.5-157.6-185.8-157.6c-102.3,0-184.7,69.4-184.7,156.4c0,85.9,82.3,156.4,184.7,156.4c84.7,0,156.4-48.2,178.8-114.1
				h-124.7c0,0,0,1.2,0,16.5c0,50.6-32.9,62.3-51.8,62.3s-52.9-11.8-52.9-62.3c0-15.3,0-57.6,0-57.6L2164.1,632.8L2164.1,632.8z
				 M1937.1,535.2c9.4-17.6,28.2-24.7,44.7-25.9c16.5,0,34.1,8.2,44.7,25.9c8.2,14.1,8.2,30.6,8.2,54.1H1930
				C1927.7,564.6,1927.7,549.3,1937.1,535.2z M3422.6,404.6c0-14.1-10.6-20-30.6-20h-28.2v71.7h17.6v-29.4h8.2l14.1,29.4h18.8
				l-15.3-31.8C3416.8,421.1,3422.6,414,3422.6,404.6z M3389.7,415.2h-8.2V394h7.1c10.6,0,15.3,3.5,15.3,10.6
				C3405,412.8,3399.1,415.2,3389.7,415.2z M3389.7,356.4c-35.3,0-64.7,28.2-64.7,64.7c0,35.3,29.4,64.7,64.7,64.7
				s64.7-29.4,64.7-64.7C3454.4,384.6,3425,356.4,3389.7,356.4z M3389.7,472.8c-28.2,0-51.8-23.5-51.8-51.8s23.5-51.8,51.8-51.8
				s51.8,23.5,51.8,51.8S3419.1,472.8,3389.7,472.8z M3249.7,118.8H589.3c-281.1-1.2-470.5,202.3-470.5,444.6
				s188.2,442.2,471.6,442.2h2659.3c282.3,0,471.6-199.9,471.6-442.2C3720.2,319.9,3530.8,117.6,3249.7,118.8z M3248.6,897.4H590.4
				c-224.6,1.2-361-149.4-361-335.2s137.6-334,361-335.2h2658.1c223.5,0,361.1,149.4,361.1,335.2S3472,897.4,3248.6,897.4z
				 M3249.7,118.8H589.3c-281.1-1.2-470.5,202.3-470.5,444.6s188.2,442.2,471.6,442.2h2659.3c282.3,0,471.6-199.9,471.6-442.2
				C3720.2,319.9,3530.8,117.6,3249.7,118.8z M3248.6,897.4H590.4c-224.6,1.2-361-149.4-361-335.2s137.6-334,361-335.2h2658.1
				c223.5,0,361.1,149.4,361.1,335.2S3472,897.4,3248.6,897.4z M3249.7,118.8H589.3c-281.1-1.2-470.5,202.3-470.5,444.6
				s188.2,442.2,471.6,442.2h2659.3c282.3,0,471.6-199.9,471.6-442.2C3720.2,319.9,3530.8,117.6,3249.7,118.8z M3248.6,897.4H590.4
				c-224.6,1.2-361-149.4-361-335.2s137.6-334,361-335.2h2658.1c223.5,0,361.1,149.4,361.1,335.2S3472,897.4,3248.6,897.4z"/>
		</g>
	</g>
</g>
</svg>
