<?xml version="1.0" encoding="utf-8"?>
<!-- Generator: Adobe Illustrator 26.3.1, SVG Export Plug-In . SVG Version: 6.00 Build 0)  -->
<svg version="1.1" id="Layer_1" xmlns="http://www.w3.org/2000/svg" xmlns:xlink="http://www.w3.org/1999/xlink" x="0px" y="0px"
	 viewBox="0 0 3839 1146.7" style="enable-background:new 0 0 3839 1146.7;" xml:space="preserve">
<style type="text/css">
	.st0{fill:#FFFFFF;}
	.st1{fill:none;stroke:#FFFFFF;stroke-width:9.3756;stroke-miterlimit:10;}
	.st2{fill:#30308F;}
	.st3{fill:#EC2024;}
	.st4{fill:#CBCBCA;}
</style>
<g>
	<g>
		<path class="st2" d="M3543,831.9c9.9-8,115.8-96,159.4-136.6l6.4-5.9c48.7-44.9,130.2-119.9,130.2-293.1
			c0-136.8-97.5-240-226.9-240c-73.1,0-144.8,33.7-196.6,92.4c-50.2,56.9-77.8,133.6-77.8,216h160.1l0,0
			c0-163.1,181.2-200.4,181.2-68.4c0,108.8-42.8,142-85.5,181.8c-39.1,36.4-140.1,120.5-150.7,129.1
			c-165,132.6-240.2,266.6-240.2,429.1h132.8v0h381.5l25.7-162.4h-333.2C3436.4,931,3478.3,883.9,3543,831.9z"/>
		<g>
			<g>
				<path class="st2" d="M711.2,864.7l-20.7-107l-47.8,106.9L711.2,864.7 M1461.1,1136.2H1348l-15.1-340.7l-147.1,340.7h-75.5
					l-62.9-308l-98,308H757.1l-29-164.7H597.4l-74.2,164.7H405.1l242.6-550.7h139.6l74.2,445.1l144.6-445.1H1118l55.3,301.7
					l128.3-301.7h135.7L1461.1,1136.2"/>
				<polyline class="st2" points="1785.5,1136.2 1804.4,1018.1 1607,1018.1 1622.7,920 1794.3,920 1813.2,801.8 1639.7,801.8 
					1654.8,703.8 1852.2,703.8 1871,585.6 1557.9,585.6 1470,1136.2 1785.5,1136.2 				"/>
				<polyline class="st2" points="3255.2,585.6 3123.2,585.6 3011.3,765.4 2940.9,585.6 2811.4,585.6 2944.7,876 2903.7,1136.2 
					3016.8,1136.2 3051.5,906.2 3255.2,585.6 				"/>
				<path class="st2" d="M2583.4,1031.4c59.9,26.8,133.1-25.7,163.6-117.4c30.5-91.6,6.8-187.6-53.1-214.4
					C2634,673,2560.8,725.5,2530.3,817C2499.7,908.7,2523.6,1004.7,2583.4,1031.4 M2412.1,813.6c35.1-152.2,165.2-252.2,290.7-223.1
					c125.4,29,198.5,175.9,163.4,328c-35.2,152.3-165.3,252.2-290.7,223.2C2450.2,1112.6,2377,965.8,2412.1,813.6"/>
				<path class="st2" d="M163.6,634.6C55.9,701.3,4,803.1,17.8,941.4c16,160.4,223.8,261.5,399.8,159.7c15.4-8.9,9.4-7.5,15.1-12.6
					l35.2-223.7H258l-16.1,103h87.7l-10,55.4c-50.2,20.2-135.7,12.6-172.3-52.8c-23.1-41.4-44.5-133.8,52.8-218.8
					c79.2-69.2,216.2-81.7,295.4-45.2c0,0,10-57.9,17.6-112C361.1,541.6,242.8,585.6,163.6,634.6"/>
				<path class="st2" d="M2043.2,588.7l-87.4,546.5c0,0,180.9,0,254.6,0c104.8,0,258-154.5,118.5-280.8
					c143.5-148.4,1.3-264.5-74.9-265.7c-61.1-1-212.1,0-212.1,0H2043.2 M2105.6,919.3c0,0,23.7,0,94.8,0
					c89.8,0,87.4,109.8-12.4,109.8c-62.4,0-99.8,0-99.8,0L2105.6,919.3 M2140.5,704.7c0,0,2.5,0,73.6,0
					c79.9,0,63.6,102.4-12.5,102.4c-62.4,0-78.6,0-78.6,0L2140.5,704.7"/>
			</g>
		</g>
	</g>
	<g>
		<path class="st2" d="M1018.4,78.6c-5.5-29.5-37.3-48.6-133.7-54.4c-144.1-8.6-400.1,66.9-471,116.5c-18.3,12.8-22.7,67.4-5.5,94
			c33.9,52.4,130.2,64,210.4,84c80.2,20,147.8,45.9,148.4,61.9c0.7,20.2-47.2,28.2-118,39.1c-157.3,24.3-418.5,65.4-507.3,64.9
			c-9.3,0-18.4-2.8-26.2-7.9l-7.6-4.9c-5-3.2-11-4.7-16.9-4.1l-50.3,5c-14.2,1.4-25.1,13.4-25.1,27.7v17c0,34.8,10.8,45,50,40.2
			c87.4-10.6,202.3-18.8,326.7-32.3c159-17.2,335.3-50.9,374-72.3c51.4-28.5,38.5-121.9-23.2-150.6c-87.4-40.7-234.1-61.6-287.9-84
			c-23.3-9.7-15.3-18.7,7.4-30.4c38.3-19.8,114.7-53.4,231.2-78C842,78.7,922.4,82.9,967,97.7c16,5.3,44.9,17.2,13.8,32.9
			c-18.7,9.5-57.5,21.8-85.8,30c-31.2,9.1-24.8,87.5,0.6,75.3c25.4-12.2,88.9-28.6,115.2-65.7C1026.9,147.5,1023.3,105,1018.4,78.6z
			"/>
		<path class="st2" d="M2961.9,395.9c-60.3,0-202.3-0.2-318.2,31.1c-11.4,3.1-21.4,0.8-8.6-26.6c19.2-41.1,39.9-92.2,19.6-134.9
			c-12.8-26.9-42-49.4-72.2-77.1c14.3-12.7,34.8-95.2-26.5-108.9c-28.4-6.4-48.6,2.5-52.8,34.8c-1.6,12.6-0.1,25.4,3.3,37.7
			c3.6,12.9,9.1,24.7,17.7,35.3c-64.3,61-132.1,117-214.6,171.5c-77.3,51.1-164.3,97.9-271,116.5c-29.8,5.2-103.9,16.1-30.7-75.4
			c80.9,20,179-23.8,234.6-60.7c52.2-34.6,110-66.9,104.8-107.6c-12.9-101.5-168.3-37.2-278,32.7
			c-179.1,114.1-177.7,227.1-119.9,252.9c111.2,49.7,344.2-61.4,607.3-299.9c73.6,89.8,51.7,74.8,6.8,188.6
			c-8.1,20.5-20.9,101.2,45.2,88.1c156.8-31.2,379.2-55.3,553.6-33.6c7.5,0.9,13.6,6.4,15.5,13.7l1.2,4.5
			c1.8,7.1,8.3,11.9,15.6,11.8l55-1.3c11.8-0.3,21.7-8.8,23.9-20.4c2.9-15.3,4.3-35.6-5-46.7
			C3252.6,402.8,3134.9,395.9,2961.9,395.9z M2308.7,226.7c5.2,0.8,7.4,7.3,3.8,11.1c-61.5,64.7-229.5,133.4-264.8,118.9
			C2091.5,306.7,2232,214.3,2308.7,226.7z M2546.7,160.7l0.1,0.1c0,0,0,0,0,0C2546.8,160.8,2546.8,160.8,2546.7,160.7z"/>
		<path class="st2" d="M1948.4,241.1c-13.5-28.4-47.5-21.8-89.5-12.4c-64.7,14.4-149,50.1-300.5,161.7c-4.3,3.2-9.5-2.6-5.9-6.5
			c49.8-54.2,116.3-127.2,133.6-147.4c15.7-18.3-14.8-62.9-47.5-43.8c-108.1,62.8-288.8,167.1-383.2,227.7
			c-31.7,20.4-44.8,8.7-26.5-17.6c95-135.9,153.5-146.7,145.2-187.9c-11.5-57.1-46.9-15.6-67.5,1.6
			c-31.5,26.4-81.6,62.9-161.1,107.1c-74,41.1-173.6,97.2-211.2,117.9c-36,19.7-46.9,0.5-27.7-22.6
			c14.7-17.7,155.4-138.2,204.4-180.9c0,0,30.6-20.9,16.2-42.2c-16.6-24.6-25.2-34.6-57.9-2.3c-28.7,28.3-214,191.4-233.6,222.1
			c-19.1,30-19.1,40.9-10.8,61.6c8.5,21.5,31.3,37.1,56.8,32.9c43.8-7.2,130.6-52.9,205.5-96.7c35.5-20.8,96.4-59.7,131.1-82.1
			c3.9-2.5,8.3,2.5,5.2,6c-21.9,24.9-53.8,64-59.8,86.7c-6.8,25.5,41.4,57.7,80.5,44.2c46.1-15.9,228.9-124.8,312.5-175.3
			c4.7-2.9,9.6,3.5,5.5,7.3c-53.2,49.9-151.2,149.4-272.3,307c-17.2,22.4,39.2,56.4,51,41.1c43.2-55.5,106-134.1,189.5-190.3
			c4.1-2.7,5.1-3.3,9-6c4.9,6.2,11.3,11.4,14.2,14.7c37.3,42.8,102.8,51.2,206.6-4c0,0,130.4-69.7,174.2-133.1
			C1948.8,308.8,1970.1,286.8,1948.4,241.1z M1808.5,370.1c-116.5,76.8-203.6,110.2-239.3,65c186.5-121.7,282-151.5,327.7-157.5
			c6.6-0.9,11.1,6.6,7.1,11.9C1883.7,317.3,1832.2,354.5,1808.5,370.1z"/>
	</g>
	<g>
		<path class="st3" d="M1002.7,55.1C997.2,25.6,965.4,6.5,869,0.7C724.9-8,468.9,67.6,398,117.2c-18.3,12.8-22.7,67.4-5.5,94
			c33.9,52.4,130.2,64,210.4,84c80.2,20,147.8,45.9,148.4,61.9c0.7,20.2-47.2,28.2-118,39.1C476,420.6,214.8,461.7,126,461.2
			c-9.3,0-18.4-2.8-26.2-7.9l-7.6-4.9c-5-3.2-11-4.7-16.9-4.1l-50.3,5C10.8,450.8,0,462.7,0,477v17c0,34.8,10.8,45,50,40.2
			c87.4-10.6,202.3-18.8,326.7-32.3c159-17.2,335.3-50.9,374-72.3c51.4-28.5,38.5-121.9-23.2-150.6c-87.4-40.7-234.1-61.6-287.9-84
			c-23.3-9.7-15.3-18.7,7.4-30.4c38.3-19.8,114.7-53.4,231.2-78c148.2-31.4,228.6-27.1,273.1-12.3c16,5.3,44.9,17.2,13.8,32.9
			c-18.7,9.5-57.5,21.8-85.8,30c-31.2,9.1-24.8,87.5,0.6,75.3c25.4-12.2,88.9-28.6,115.2-65.7C1011.2,124,1007.6,81.5,1002.7,55.1z"
			/>
		<path class="st3" d="M2946.2,372.4c-60.3,0-202.3-0.2-318.2,31.1c-11.4,3.1-21.4,0.8-8.6-26.6c19.2-41.1,39.9-92.2,19.6-134.9
			c-12.8-26.9-42-49.4-72.2-77.1c14.3-12.7,34.8-95.2-26.5-108.9c-28.4-6.4-48.6,2.5-52.8,34.8c-1.6,12.6-0.1,25.4,3.3,37.7
			c3.6,12.9,9.1,24.7,17.7,35.3c-64.3,61-132.1,117-214.6,171.5c-77.3,51.1-164.3,97.9-271,116.5c-29.8,5.2-103.9,16.1-30.7-75.4
			c80.9,20,179-23.8,234.6-60.7c52.2-34.6,110-66.9,104.8-107.6c-12.9-101.5-168.3-37.2-278,32.7
			c-179.1,114.1-177.7,227.1-119.9,252.9c111.2,49.7,344.2-61.4,607.3-299.9c73.6,89.8,51.7,74.8,6.8,188.6
			c-8.1,20.5-20.9,101.2,45.2,88.1c156.8-31.2,379.2-55.3,553.6-33.6c7.5,0.9,13.6,6.4,15.5,13.7l1.2,4.5
			c1.8,7.1,8.3,11.9,15.6,11.8l55-1.3c11.8-0.3,21.7-8.8,23.9-20.4c2.9-15.3,4.3-35.6-5-46.7C3237,379.3,3119.2,372.4,2946.2,372.4z
			 M2293,203.2c5.2,0.8,7.4,7.3,3.8,11.1c-61.5,64.7-229.5,133.4-264.8,118.9C2075.8,283.2,2216.3,190.8,2293,203.2z M2531.1,137.2
			l0.1,0.1c0,0,0,0,0,0C2531.2,137.3,2531.1,137.3,2531.1,137.2z"/>
		<path class="st3" d="M1932.7,217.6c-13.5-28.4-47.5-21.8-89.5-12.4c-64.7,14.4-149,50.1-300.5,161.7c-4.3,3.2-9.5-2.6-5.9-6.5
			c49.8-54.2,116.3-127.2,133.6-147.4c15.7-18.3-14.8-62.9-47.5-43.8c-108.1,62.8-288.8,167.1-383.2,227.7
			c-31.7,20.4-44.8,8.7-26.5-17.6c95-135.9,153.5-146.7,145.2-187.9c-11.5-57.1-46.9-15.6-67.5,1.6
			c-31.5,26.4-81.6,62.9-161.1,107.1c-74,41.1-173.6,97.2-211.2,117.9c-36,19.7-46.9,0.5-27.7-22.6
			c14.7-17.7,155.4-138.2,204.4-180.9c0,0,30.6-20.9,16.2-42.2c-16.6-24.6-25.2-34.6-57.9-2.3c-28.7,28.3-214,191.4-233.6,222.1
			c-19.1,30-19.1,40.9-10.8,61.6c8.5,21.5,31.3,37.1,56.8,32.9c43.8-7.2,130.6-52.9,205.5-96.7c35.5-20.8,96.4-59.7,131.1-82.1
			c3.9-2.5,8.3,2.5,5.2,6c-21.9,24.9-53.8,64-59.8,86.7c-6.8,25.5,41.4,57.7,80.5,44.2c46.1-15.9,228.9-124.8,312.5-175.3
			c4.7-2.9,9.6,3.5,5.5,7.3c-53.2,49.9-151.2,149.4-272.3,307c-17.2,22.4,39.2,56.4,51,41.1c43.2-55.5,106-134.1,189.5-190.3
			c4.1-2.7,5.1-3.3,9-6c4.9,6.2,11.3,11.4,14.2,14.7c37.3,42.8,102.8,51.2,206.6-4c0,0,130.4-69.7,174.2-133.1
			C1933.1,285.3,1954.4,263.3,1932.7,217.6z M1792.8,346.6c-116.5,76.8-203.6,110.2-239.3,65c186.5-121.7,282-151.5,327.7-157.5
			c6.6-0.9,11.1,6.6,7.1,11.9C1868,293.8,1816.6,331,1792.8,346.6z"/>
	</g>
</g>
</svg>
