<?xml version="1.0" encoding="utf-8"?>
<!-- Generator: Adobe Illustrator 25.0.0, SVG Export Plug-In . SVG Version: 6.00 Build 0)  -->
<svg version="1.1" id="Layer_1" xmlns="http://www.w3.org/2000/svg" xmlns:xlink="http://www.w3.org/1999/xlink" x="0px" y="0px"
	 viewBox="0 0 3839 1214.2" style="enable-background:new 0 0 3839 1214.2;" xml:space="preserve">
<style type="text/css">
	.st0{fill:#FFFFFF;}
	.st1{fill:#E60012;}
	.st2{fill-rule:evenodd;clip-rule:evenodd;fill:#E60012;}
	.st3{filter:url(#Adobe_OpacityMaskFilter);}
	.st4{fill-rule:evenodd;clip-rule:evenodd;fill:#FFFFFF;}
	.st5{mask:url(#b_4_);fill-rule:evenodd;clip-rule:evenodd;fill:#FFFFFF;}
	.st6{fill-rule:evenodd;clip-rule:evenodd;}
	.st7{filter:url(#Adobe_OpacityMaskFilter_1_);}
	.st8{mask:url(#b_1_);fill-rule:evenodd;clip-rule:evenodd;fill:#FFFFFF;}
	.st9{filter:url(#Adobe_OpacityMaskFilter_2_);}
	.st10{mask:url(#b_2_);fill-rule:evenodd;clip-rule:evenodd;}
	.st11{filter:url(#Adobe_OpacityMaskFilter_3_);}
	.st12{mask:url(#b_7_);fill-rule:evenodd;clip-rule:evenodd;}
	.st13{filter:url(#Adobe_OpacityMaskFilter_4_);}
	.st14{mask:url(#b_8_);fill-rule:evenodd;clip-rule:evenodd;fill:#FFFFFF;}
	.st15{filter:url(#Adobe_OpacityMaskFilter_5_);}
	.st16{mask:url(#b_9_);fill-rule:evenodd;clip-rule:evenodd;fill:#FFFFFF;}
	.st17{filter:url(#Adobe_OpacityMaskFilter_6_);}
	.st18{mask:url(#b_3_);fill-rule:evenodd;clip-rule:evenodd;fill:#E60012;}
	.st19{filter:url(#Adobe_OpacityMaskFilter_7_);}
	.st20{mask:url(#b_5_);fill-rule:evenodd;clip-rule:evenodd;fill:#FFFFFF;}
	.st21{filter:url(#Adobe_OpacityMaskFilter_8_);}
	.st22{mask:url(#b_6_);fill-rule:evenodd;clip-rule:evenodd;}
	.st23{filter:url(#Adobe_OpacityMaskFilter_9_);}
	.st24{mask:url(#b_12_);fill-rule:evenodd;clip-rule:evenodd;fill:#E60012;}
	.st25{filter:url(#Adobe_OpacityMaskFilter_10_);}
	.st26{mask:url(#b_10_);fill-rule:evenodd;clip-rule:evenodd;fill:#FFFFFF;}
	.st27{filter:url(#Adobe_OpacityMaskFilter_11_);}
	.st28{mask:url(#b_11_);fill-rule:evenodd;clip-rule:evenodd;}
</style>
<g>
	<rect y="0" class="st2" width="3839" height="1214.2"/>
	<g>
		<g transform="translate(0 -.187)">
			<defs>
				<filter id="Adobe_OpacityMaskFilter" filterUnits="userSpaceOnUse" x="196.5" y="235.9" width="742.9" height="742.8">
					<feColorMatrix  type="matrix" values="1 0 0 0 0  0 1 0 0 0  0 0 1 0 0  0 0 0 1 0"/>
				</filter>
			</defs>
			<mask maskUnits="userSpaceOnUse" x="196.5" y="235.9" width="742.9" height="742.8" id="b_9_">
				<g class="st3">
					<path id="a_9_" class="st4" d="M939.4,978.7H196.5V235.9h742.9V978.7z"/>
				</g>
			</mask>
			<path class="st16" d="M312.2,458.7c0,38.6,31.3,69.9,69.9,69.9s69.9-31.3,69.9-69.9c0-38.6-31.2-69.8-69.8-69.8c0,0,0,0-0.1,0
				C343.5,388.9,312.2,420.1,312.2,458.7C312.2,458.7,312.2,458.7,312.2,458.7z M494.9,918.8H387c-34.7,0.1-67.9-13.6-92.3-38.2
				c-24.6-24.4-38.4-57.7-38.3-92.3V426.3c0-34.9,13.6-67.7,38.2-92.3c24.5-24.6,57.7-38.4,92.4-38.3h107.9V918.8z M549.4,235.9H387
				c-105.2,0-190.5,85.3-190.5,190.4v361.9c0,105.2,85.3,190.5,190.5,190.5h162.3c3,0,5.4-2.4,5.4-5.4c0,0,0,0,0,0V241.3
				C554.8,238.3,552.4,235.9,549.4,235.9C549.4,235.9,549.4,235.9,549.4,235.9z M776.1,569.3c41.5,0.8,74.4,35.2,73.6,76.6
				c-0.8,40.3-33.3,72.8-73.6,73.6c-41.5-0.8-74.4-35.2-73.6-76.6C703.4,602.6,735.8,570.1,776.1,569.3z M634.6,978.7h114.3
				c105.2,0,190.5-85.3,190.5-190.5V426.3c0-105.2-85.3-190.4-190.5-190.4H634c-2.6,0-4.8,2.1-4.8,4.7c0,0,0,0.1,0,0.1v732.5
				C629.2,976.2,631.6,978.7,634.6,978.7L634.6,978.7z"/>
		</g>
		<path class="st4" d="M3125.3,415.4h-45.2V295.2h45.2c33.2,0.1,60,26.9,60,60.1C3185.3,388.5,3158.4,415.3,3125.3,415.4z
			 M3123.1,251.7h-85.6v207.2h85.7c58.8,0,106.6-46.5,106.6-103.6C3229.7,298.2,3181.9,251.7,3123.1,251.7L3123.1,251.7z
			 M2964.4,639c44.1,0,85.3,23.5,107.3,60.7l63.6-55.2c-38.7-57.8-103.7-92.4-173.2-92.3c-115.1,0-208.7,93.5-208.7,208.6
			s93.6,208.6,208.7,208.6c69.9,0,134.2-34.5,173.2-92.3l-63.6-55.3c-22,37.1-63.2,60.7-107.3,60.7c-68.4,0-124-54.6-124-121.7
			C2840.4,693.6,2896,639,2964.4,639L2964.4,639z M2361.5,647.8h124.9v307.9h84.1V647.8h122.1v-83h-331.1L2361.5,647.8L2361.5,647.8
			z M3488.1,719h-182.5V564.8h-80.9v390.9h80.9V799.8h182.5v155.9h80.9V564.9h-80.9V719z M3474,419.8c-35.6-0.1-64.3-28.9-64.4-64.5
			c0-35.5,28.9-64.5,64.4-64.5c35.6,0.1,64.4,28.9,64.4,64.5C3538.4,390.9,3509.6,419.8,3474,419.8z M3474,244.8
			c-60.8,0-110.3,49.6-110.3,110.5c0,61,49.5,110.6,110.3,110.6c60.9,0,110.4-49.6,110.4-110.6
			C3584.4,294.4,3534.9,244.8,3474,244.8L3474,244.8z M2504.7,420.5h-119v-48.6h110v-37.5h-110v-44.7h119v-38l-161.1,0.1v207.1
			l161.1-0.1L2504.7,420.5L2504.7,420.5z M2862.2,458.9V251.7h-42.1v136.1l-101.9-136.1h-41.8v207.2h42V320.4l102.9,138.5
			L2862.2,458.9L2862.2,458.9z M1480.6,458.9h46.1V251.7h-46.1V458.9L1480.6,458.9z M1300.8,718.3c-56.4-9.3-92.8-19.7-92.8-46
			c0-30.4,40.6-42.1,95.1-42.1c50.7,0,101.5,19.3,119.6,26.9l27.8-67.6c-19.7-7.9-82.1-30.1-151.4-30.1
			c-84.4,0-174.3,41.2-174.3,117.5c0,61.9,43.6,93.5,155.8,112.8c79,13.6,122.5,21.1,121.3,55.1c-0.7,18.7-15.2,50.1-104.2,50.1
			c-71.7,0-122.1-26-139.7-36.5l-37,66.8c19.7,10.4,85.9,41.4,171,41.4c124.4,0,190.1-43.1,190.1-124.6
			C1482.1,794.7,1466.1,745.5,1300.8,718.3L1300.8,718.3z M1921.4,848.5l-82.7-283.7h-69.4l-82.5,282.5l-75.2-282.5h-85.1
			l110.6,390.9h94l72.8-257.5l72.4,257.5h94.3L2082,564.8h-85L1921.4,848.5L1921.4,848.5z M1725,320.4l102.9,138.5h40.9V251.7h-42.1
			v136.1l-101.9-136.1H1683v207.2h42V320.4z M2179.1,955.7h87V564.9h-87V955.7z M2191.9,251.7h-175.6v44h66.2v163.2h44.6V295.7h64.7
			L2191.9,251.7L2191.9,251.7z M1180.6,320.4l103,138.5h40.8V251.7h-42v136.1l-101.9-136.1h-41.8v207.2h41.9L1180.6,320.4
			L1180.6,320.4z"/>
	</g>
</g>
</svg>
