<?xml version="1.0" encoding="utf-8"?>
<!-- Generator: Adobe Illustrator 25.1.0, SVG Export Plug-In . SVG Version: 6.00 Build 0)  -->
<svg version="1.1" id="Layer_1" xmlns="http://www.w3.org/2000/svg" xmlns:xlink="http://www.w3.org/1999/xlink" x="0px" y="0px"
	 viewBox="0 0 3839.5 1214.7" style="enable-background:new 0 0 3839.5 1214.7;" xml:space="preserve">
<style type="text/css">
	.st0{fill:#FFFFFF;}
	.st1{fill:#334FA2;}
	.st2{fill:#F01B25;}
</style>
<g>
	<g>
		<g>
			<g>
				<polyline class="st1" points="211.9,544.1 399.7,544.1 399.7,126.7 272.7,126.7 272.7,366 271.6,366 187.8,126.7 0,126.7 
					0,544.1 127,544.1 127,303.1 128.2,303.1 211.9,544.1 				"/>
				<polyline class="st1" points="920.5,544.1 1108.4,544.1 1108.4,126.7 981.4,126.7 981.4,366 980.2,366 896.4,126.7 708.7,126.7 
					708.7,544.1 835.7,544.1 835.7,303.1 836.7,303.1 920.5,544.1 				"/>
				<polyline class="st1" points="2140.6,544.1 2328.5,544.1 2328.5,126.7 2201.5,126.7 2201.5,366 2200.3,366 2116.5,126.7 
					1928.8,126.7 1928.8,544.1 2055.8,544.1 2055.8,303.1 2056.8,303.1 2140.6,544.1 				"/>
				<rect x="476.5" y="126.7" class="st1" width="156.6" height="417.3"/>
				<polyline class="st1" points="1253.4,240.1 1153.7,240.1 1153.7,126.7 1509.8,126.7 1509.8,240.1 1410,240.1 1410,544.1 
					1253.4,544.1 1253.4,240.1 				"/>
				<path class="st1" d="M2549.2,449.3h15.3c25.2,0,42.1-7.7,51.9-24.5c10.4-17.3,11.6-48.9,11.6-89.3c0-40.5-1.1-72.1-11.6-89.4
					c-9.8-16.8-26.7-24.6-51.9-24.6h-15.3V449.3 M2395.9,126.7h185.6c158.3,0,208.6,89.6,208.6,213.3c0,126-77.8,204.1-199.3,204.1
					h-194.9V126.7z"/>
				<path class="st1" d="M3035.7,449.3c24.1,0,42.1-11.8,42.1-113.9c0-99.8-16.9-113.9-42.1-113.9c-25.2,0-42.2,14.1-42.2,113.9
					C2993.5,437.5,3011.7,449.3,3035.7,449.3 M3035.7,115.7c136.4,0,204.2,89.6,204.2,219.7c0,130.1-67.8,219.7-204.2,219.7
					c-136.3,0-204.3-89.6-204.3-219.7C2831.4,205.3,2899.4,115.7,3035.7,115.7z"/>
				<path class="st2" d="M3432.1,277.4c21.5,0,34.4-21.8,34.4-49.8c-0.1-23.7-10.9-49.3-39.8-49.3c-17.5,0-31.2,11-36.3,24.5
					c-2,4.1-2.8,10-2.8,19.9c1.8,26.7,14.7,54.7,43.9,54.7H3432.1 M3520.1,71.2c-8.3-0.6-16.4-0.4-27.7,0.1
					c-66.1,3.2-92.7,31.2-101.8,63.1h1.6c16.4-14.4,36.7-21,64-21c52.4,0,100.3,37.9,100.3,109.5c0,68.4-52.6,121.7-123.1,121.7
					c-93,0-133.5-71-133.5-147.1c0-61.9,22-114.3,58-148.1c34.3-31.7,78.5-47.7,132.6-49.1c14.3-0.7,22.9,0,29.7,0.6V71.2z"/>
				<path class="st2" d="M3720.4,195.5v-57.4c0-21.1,1.2-43.3,2.3-66.5h-1.8c-10.5,22.6-19.5,44-31.2,67.2l-27.4,55.6l-0.3,1.1
					H3720.4 M3720.4,339v-74.9h-139.3v-59.8L3692.9,5.1h111.2v190.5h35.4v68.6h-35.4V339H3720.4z"/>
				<polyline class="st1" points="1556.1,126.6 1865.9,126.6 1865.9,237 1710.4,237 1710.4,280.6 1853.6,280.6 1853.6,387.6 
					1710.4,387.6 1710.4,434.5 1870.9,434.5 1870.9,544 1556.1,544 1556.1,126.6 				"/>
			</g>
		</g>
	</g>
	<g>
		<rect x="1034.4" y="717.6" class="st0" width="1770.7" height="497"/>
		<path d="M1283.2,1073.9c23.8,0,38.1-22.4,38.1-51.1c-0.1-24.3-12.1-50.6-44-50.6c-19.3,0-34.5,11.3-40.2,25.1
			c-2.2,4.2-3.1,10.3-3.1,20.5c2,27.4,16.2,56.1,48.6,56.1H1283.2 M1380.7,862.4c-9.2-0.6-18.1-0.4-30.7,0.1
			c-73.2,3.2-102.6,32-112.7,64.7h1.7c18.2-14.7,40.6-21.5,70.9-21.5c58,0,111,38.9,111,112.3c0,70.2-58.2,124.9-136.3,124.9
			c-102.9,0-147.8-72.8-147.8-150.9c0-63.5,24.3-117.3,64.2-151.9c38-32.5,86.9-49,146.8-50.3c15.9-0.8,25.3,0,32.9,0.6V862.4z"/>
		<path d="M1688.5,990v-58.9c0-21.7,1.3-44.4,2.6-68.2h-2c-11.6,23.2-21.6,45.1-34.5,69l-30.4,57.1l-0.4,1.1H1688.5 M1688.5,1137.1
			v-76.8h-154.2v-61.4L1658,794.6h123.1V990h67.7v70.3h-67.7v76.8H1688.5z"/>
		<path d="M2543.7,794.6h-44h-59.9h-30.1v342.6h30.1h59.9h44c112,0,170.3-71.4,170.3-161.9v-18.7
			C2714,866,2655.7,794.6,2543.7,794.6z M2543.7,1066.3L2543.7,1066.3h-44V865.4h44l0,0c34.7,0,64.5,32.6,64.5,100.4
			S2578.4,1066.3,2543.7,1066.3z"/>
		<path d="M2120.7,794.6h-44h-59.9h-30.1v342.6h30.1h59.9h44c112,0,170.3-71.4,170.3-161.9v-18.7
			C2291,866,2232.7,794.6,2120.7,794.6z M2120.7,1066.3L2120.7,1066.3h-44V865.4h44l0,0c34.7,0,64.5,32.6,64.5,100.4
			S2155.3,1066.3,2120.7,1066.3z"/>
	</g>
</g>
</svg>
