<?xml version="1.0" encoding="utf-8"?>
<!-- Generator: Adobe Illustrator 26.0.2, SVG Export Plug-In . SVG Version: 6.00 Build 0)  -->
<svg version="1.1" xmlns="http://www.w3.org/2000/svg" xmlns:xlink="http://www.w3.org/1999/xlink" x="0px" y="0px"
	 viewBox="0 0 3839 483.9" style="enable-background:new 0 0 3839 483.9;" xml:space="preserve">
<style type="text/css">
	.st0{display:none;}
	.st1{display:inline;}
	.st2{fill:#FF1F1F;}
	.st3{fill:#FFFFFF;}
	.st4{fill:#FF1F1F;stroke:#FF1F1F;stroke-width:12.9372;stroke-miterlimit:10;}
	.st5{fill:none;stroke:#FF1F1F;stroke-width:12.9372;stroke-miterlimit:10;}
	.st6{fill:#FF1F1F;stroke:#000000;stroke-width:4.5925;stroke-miterlimit:10;}
	.st7{fill:#FF6A15;stroke:#000000;stroke-width:4.5925;stroke-miterlimit:10;}
	.st8{fill:#FFB40A;stroke:#000000;stroke-width:4.5925;stroke-miterlimit:10;}
	.st9{fill:#FFFF00;stroke:#000000;stroke-width:4.5925;stroke-miterlimit:10;}
	.st10{fill:#FFFFFF;stroke:#FFFFFF;stroke-width:12.9372;stroke-miterlimit:10;}
	.st11{fill:none;stroke:#FFFFFF;stroke-width:12.9372;stroke-miterlimit:10;}
	.st12{fill:#FF0074;stroke:#000000;stroke-width:4.5925;stroke-miterlimit:10;}
	.st13{fill:#FF803A;stroke:#000000;stroke-width:4.5925;stroke-miterlimit:10;}
	.st14{fill:#FFFFFF;stroke:#000000;stroke-width:4.5925;stroke-miterlimit:10;}
	.st15{fill:#FF0074;stroke:#000000;stroke-width:7.2529;stroke-miterlimit:10;}
	.st16{fill:#FF803A;stroke:#000000;stroke-width:7.2529;stroke-miterlimit:10;}
	.st17{fill:#FFFF00;stroke:#000000;stroke-width:7.2529;stroke-miterlimit:10;}
	.st18{fill:#FFFFFF;stroke:#000000;stroke-width:7.2529;stroke-miterlimit:10;}
	.st19{fill:#FF1F1F;stroke:#000000;stroke-width:6.6981;stroke-miterlimit:10;}
	.st20{fill:#FF6A15;stroke:#000000;stroke-width:6.6981;stroke-miterlimit:10;}
	.st21{fill:#FFB40A;stroke:#000000;stroke-width:6.6981;stroke-miterlimit:10;}
	.st22{fill:#FFFF00;stroke:#000000;stroke-width:6.6981;stroke-miterlimit:10;}
	.st23{fill:#FF1F1F;stroke:#FF1F1F;stroke-width:20.3455;stroke-miterlimit:10;}
	.st24{fill:none;stroke:#FF1F1F;stroke-width:20.3455;stroke-miterlimit:10;}
	.st25{fill:#FF1F1F;stroke:#000000;stroke-width:7.2224;stroke-miterlimit:10;}
	.st26{fill:#FF6A15;stroke:#000000;stroke-width:7.2224;stroke-miterlimit:10;}
	.st27{fill:#FFB40A;stroke:#000000;stroke-width:7.2224;stroke-miterlimit:10;}
	.st28{fill:#FFFF00;stroke:#000000;stroke-width:7.2224;stroke-miterlimit:10;}
	.st29{fill:#FFFFFF;stroke:#FFFFFF;stroke-width:20.3455;stroke-miterlimit:10;}
	.st30{fill:none;stroke:#FFFFFF;stroke-width:20.3455;stroke-miterlimit:10;}
	.st31{fill:#FF0074;stroke:#000000;stroke-width:7.2224;stroke-miterlimit:10;}
	.st32{fill:#FF803A;stroke:#000000;stroke-width:7.2224;stroke-miterlimit:10;}
	.st33{fill:#FFFFFF;stroke:#000000;stroke-width:7.2224;stroke-miterlimit:10;}
	.st34{stroke:#000000;stroke-width:12.9372;stroke-miterlimit:10;}
	.st35{fill:none;stroke:#000000;stroke-width:12.9372;stroke-miterlimit:10;}
	.st36{stroke:#000000;stroke-width:20.3455;stroke-miterlimit:10;}
	.st37{fill:none;stroke:#000000;stroke-width:20.3455;stroke-miterlimit:10;}
	.st38{fill:none;stroke:#000000;stroke-width:7.2529;stroke-miterlimit:10;}
	.st39{fill:none;stroke:#000000;stroke-width:4.5925;stroke-miterlimit:10;}
	.st40{fill:none;stroke:#000000;stroke-width:7.2224;stroke-miterlimit:10;}
	.st41{fill:none;stroke:#FFFFFF;stroke-width:7.2529;stroke-miterlimit:10;}
	.st42{fill:none;stroke:#FFFFFF;stroke-width:4.5925;stroke-miterlimit:10;}
	.st43{fill:none;stroke:#FFFFFF;stroke-width:7.2224;stroke-miterlimit:10;}
	.st44{fill:#FF1F1F;stroke:#000000;stroke-width:4.5799;stroke-miterlimit:10;}
	.st45{fill:#FF6A15;stroke:#000000;stroke-width:4.5799;stroke-miterlimit:10;}
	.st46{fill:#FFB40A;stroke:#000000;stroke-width:4.5799;stroke-miterlimit:10;}
	.st47{fill:#FFFF00;stroke:#000000;stroke-width:4.5799;stroke-miterlimit:10;}
	.st48{fill:#FF0074;stroke:#000000;stroke-width:4.5799;stroke-miterlimit:10;}
	.st49{fill:#FF803A;stroke:#000000;stroke-width:4.5799;stroke-miterlimit:10;}
	.st50{fill:#FFFFFF;stroke:#000000;stroke-width:4.5799;stroke-miterlimit:10;}
	.st51{fill:#FF0074;}
	.st52{fill:#FF803A;}
	.st53{fill:#FFFF00;}
	.st54{fill:#FF6A15;}
	.st55{fill:#FFB40A;}
	.st56{fill:none;stroke:#000000;stroke-width:4.5799;stroke-miterlimit:10;}
	.st57{fill:none;stroke:#FFFFFF;stroke-width:4.5799;stroke-miterlimit:10;}
</style>
<g id="copy_with_strokes" class="st0">
	<g class="st1">
		
			<rect x="501.9" y="343.3" transform="matrix(-1.836970e-16 1 -1 -1.836970e-16 888.0175 -173.3778)" class="st4" width="57.7" height="28.1"/>
		
			<rect x="831.6" y="303.3" transform="matrix(-1.836970e-16 1 -1 -1.836970e-16 1217.7955 -503.1559)" class="st4" width="57.7" height="108.1"/>
		
			<rect x="1341.9" y="340.4" transform="matrix(-1.836970e-16 1 -1 -1.836970e-16 1728.0477 -1013.4108)" class="st4" width="57.7" height="33.9"/>
		<rect x="326.2" y="328.5" class="st4" width="57.7" height="281.4"/>
		<rect x="424.1" y="328.5" class="st4" width="57.7" height="281.4"/>
		<g>
			<path class="st2" d="M544.7,609.9c0-19.2,0-38.4,0-57.7c110.7,0,110.7-166.1,0-166.1c0-19.2,0-38.4,0-57.7
				C732.4,328.5,732.4,609.9,544.7,609.9z"/>
			<path class="st5" d="M544.7,609.9c0-19.2,0-38.4,0-57.7c110.7,0,110.7-166.1,0-166.1c0-19.2,0-38.4,0-57.7
				C732.4,328.5,732.4,609.9,544.7,609.9z"/>
		</g>
		<rect x="713.9" y="328.5" class="st4" width="57.7" height="281.4"/>
		
			<rect x="831.6" y="415.2" transform="matrix(-1.836970e-16 1 -1 -1.836970e-16 1329.6764 -391.2751)" class="st4" width="57.7" height="108.1"/>
		
			<rect x="1341.9" y="452.3" transform="matrix(-1.836970e-16 1 -1 -1.836970e-16 1839.9286 -901.53)" class="st4" width="57.7" height="33.9"/>
		<rect x="1261.3" y="328.5" class="st4" width="57.7" height="281.4"/>
		<path class="st4" d="M1387.7,498c0-19.3,0-38.4,0-57.7c35.8,0,35.8-54.2,0-54.2c0-19.3,0-38.4,0-57.7
			C1500.3,328.5,1500.3,498,1387.7,498z"/>
		<path class="st4" d="M1000.2,451.1c8.1-40.7,44-71.4,87.1-71.4c43.1,0,79,30.7,87.1,71.4h58.4c-8.6-72.7-70.5-129.1-145.5-129.1
			s-136.9,56.4-145.5,129.1H1000.2z"/>
		<path class="st4" d="M1174.4,485.9c-8.1,40.7-44,71.4-87.1,71.4c-43.1,0-79-30.7-87.1-71.4h-58.4c8.6,72.7,70.5,129.1,145.5,129.1
			c75,0,136.9-56.4,145.5-129.1H1174.4z"/>
		<polygon class="st4" points="239.5,328.5 174.3,456.7 206.7,520.3 304.2,328.5 		"/>
		<polygon class="st4" points="154.8,495.1 70,328.5 5.3,328.5 154.8,622.3 187.1,558.7 154.8,495.1 		"/>
		<path class="st4" d="M1822,555.6c-40.7-8.1-71.4-44-71.4-87.1c0-43.1,30.7-79,71.4-87.1V323c-72.7,8.6-129.1,70.5-129.1,145.5
			S1749.3,605.3,1822,614V555.6z"/>
		<path class="st4" d="M1911.2,416.2l41.1-41.1c-23.4-28.2-57.2-47.6-95.5-52.1v58.4C1879.1,385.8,1898.3,398.5,1911.2,416.2z"/>
		<polygon class="st4" points="1480.8,609.9 1546,481.7 1513.7,418.2 1416.1,609.9 		"/>
		<polygon class="st4" points="1565.6,443.3 1650.4,609.9 1715.1,609.9 1565.6,316.1 1533.2,379.7 1565.6,443.3 		"/>
		
			<rect x="2700.4" y="408.5" transform="matrix(-1.836970e-16 1 -1 -1.836970e-16 3197.78 -2260.666)" class="st4" width="57.7" height="120.2"/>
		<path class="st4" d="M3290.5,451.1c8.1-40.7,44-71.4,87.1-71.4c43.1,0,79,30.7,87.1,71.4h58.4c-8.6-72.7-70.5-129.1-145.5-129.1
			c-75,0-136.9,56.4-145.5,129.1H3290.5z"/>
		<path class="st4" d="M3464.8,485.9c-8.1,40.7-44,71.4-87.1,71.4c-43.1,0-79-30.7-87.1-71.4h-58.4c8.6,72.7,70.5,129.1,145.5,129.1
			c75,0,136.9-56.4,145.5-129.1H3464.8z"/>
		<path class="st4" d="M3604.3,451.1c8.1-40.7,44-71.4,87.1-71.4c43.1,0,79,30.7,87.1,71.4h58.4c-8.6-72.7-70.5-129.1-145.5-129.1
			c-75,0-136.9,56.4-145.5,129.1H3604.3z"/>
		<path class="st4" d="M3778.5,485.9c-8.1,40.7-44,71.4-87.1,71.4c-43.1,0-79-30.7-87.1-71.4h-58.4c8.6,72.7,70.5,129.1,145.5,129.1
			c75,0,136.9-56.4,145.5-129.1H3778.5z"/>
		<path class="st4" d="M2758,468.5c0,10.1-1.7,19.8-4.8,28.9h59.6c1.9-9.3,2.9-19,2.9-28.9c0-9.8-1-19.5-2.8-28.8h-59.6
			C2756.3,448.7,2758,458.4,2758,468.5z"/>
		<path class="st4" d="M2669.1,557.4c-49.1,0-88.8-39.8-88.8-88.8s39.8-88.8,88.8-88.8c23.9,0,45.5,9.4,61.5,24.7l40.8-40.8
			c-26.4-25.8-62.5-41.6-102.3-41.6c-80.9,0-146.5,65.6-146.5,146.5s65.6,146.5,146.5,146.5c58.1,0,108.3-33.8,132-82.8h-70
			C2715.1,547.8,2693.2,557.4,2669.1,557.4z"/>
		<polygon class="st4" points="2856.1,609.9 2917.3,609.9 2984.2,421 2923,421 		"/>
		<polygon class="st4" points="2822,386.2 2822,328.5 3016.9,328.5 2996.6,386.2 		"/>
		<rect x="3116.6" y="485.9" class="st4" width="91.8" height="57.7"/>
		<polygon class="st4" points="2968.5,543.6 3081.8,543.6 3081.8,485.9 3023.7,485.9 		"/>
		<polygon class="st4" points="3116.6,388.8 3116.6,609.9 3174.3,609.9 3174.3,328.5 		"/>
		<g>
			<polygon class="st6" points="2446.4,440.4 2334.5,440.4 2334.5,328.5 2276.9,328.5 2276.9,440.4 2165,440.4 2165,498 2276.9,498 
				2276.9,609.9 2334.5,609.9 2334.5,498 2446.4,498 			"/>
			<polygon class="st7" points="2396.9,440.4 2285,440.4 2285,328.5 2227.4,328.5 2227.4,440.4 2115.5,440.4 2115.5,498 2227.4,498 
				2227.4,609.9 2285,609.9 2285,498 2396.9,498 			"/>
			<polygon class="st8" points="2347.4,440.4 2235.5,440.4 2235.5,328.5 2177.9,328.5 2177.9,440.4 2066,440.4 2066,498 2177.9,498 
				2177.9,609.9 2235.5,609.9 2235.5,498 2347.4,498 			"/>
			<polygon class="st9" points="2297.9,440.4 2186,440.4 2186,328.5 2128.4,328.5 2128.4,440.4 2016.5,440.4 2016.5,498 2128.4,498 
				2128.4,609.9 2186,609.9 2186,498 2297.9,498 			"/>
		</g>
	</g>
</g>
<g id="Layer_1">
	<g>
		<g>
			
				<rect x="505.7" y="41.3" transform="matrix(-1.836970e-16 1 -1 -1.836970e-16 589.7867 -479.2205)" class="st2" width="57.5" height="28"/>
			<path class="st2" d="M555,90.5H514V20.1H555V90.5z M526.9,77.6h15.1V33h-15.1V77.6z"/>
		</g>
		<g>
			
				<rect x="505.7" y="264.4" transform="matrix(-1.836970e-16 1 -1 -1.836970e-16 812.9351 -256.0721)" class="st2" width="57.5" height="28"/>
			<path class="st2" d="M555,313.6H514v-70.4H555V313.6z M526.9,300.7h15.1v-44.6h-15.1V300.7z"/>
		</g>
		<g>
			
				<rect x="834.6" y="1.4" transform="matrix(-1.836970e-16 1 -1 -1.836970e-16 918.6611 -808.0948)" class="st2" width="57.5" height="107.8"/>
			<path class="st2" d="M923.7,90.5H803V20.1h120.7V90.5z M815.9,77.6h94.9V33h-94.9V77.6z"/>
		</g>
		<g>
			
				<rect x="1343.5" y="38.4" transform="matrix(-1.836970e-16 1 -1 -1.836970e-16 1427.5149 -1316.9514)" class="st2" width="57.5" height="33.8"/>
			<path class="st2" d="M1395.6,90.5h-46.7V20.1h46.7V90.5z M1361.8,77.6h20.9V33h-20.9V77.6z"/>
		</g>
		<g>
			
				<rect x="834.6" y="224.5" transform="matrix(-1.836970e-16 1 -1 -1.836970e-16 1141.8094 -584.9465)" class="st2" width="57.5" height="107.8"/>
			<path class="st2" d="M923.7,313.6H803v-70.4h120.7V313.6z M815.9,300.7h94.9v-44.6h-94.9V300.7z"/>
		</g>
		<g>
			<rect x="330.6" y="26.5" class="st2" width="57.5" height="280.7"/>
			<path class="st2" d="M394.6,313.6h-70.4V20.1h70.4V313.6z M337.1,300.7h44.6V33h-44.6V300.7z"/>
		</g>
		<g>
			<rect x="428.2" y="26.5" class="st2" width="57.5" height="280.7"/>
			<path class="st2" d="M492.2,313.6h-70.4V20.1h70.4V313.6z M434.7,300.7h44.6V33h-44.6V300.7z"/>
		</g>
		<g>
			<path class="st2" d="M548.5,307.2c0-19.2,0-38.3,0-57.5c110.4,0,110.4-165.6,0-165.6c0-19.2,0-38.3,0-57.5
				C735.6,26.5,735.6,307.2,548.5,307.2z"/>
			<g>
				<path class="st2" d="M548.5,313.6h-6.5v-70.4h6.5c23.7,0,43.5-8.2,57.3-23.7c12.3-13.8,19.1-32.5,19.1-52.7
					c0-36.8-23.9-76.4-76.4-76.4h-6.5V20.1h6.5c45.2,0,83.3,15.9,110.1,46c23.7,26.6,36.7,62.4,36.7,100.8s-13,74.1-36.7,100.8
					C631.8,297.7,593.8,313.6,548.5,313.6z M555,255.9v44.7c38.6-1.4,71-15.7,94-41.6c21.6-24.3,33.5-57,33.5-92.2
					c0-63-39.9-130.6-127.4-133.8v44.7c24.7,1.4,45.5,11,60.5,27.9c14.4,16.2,22.3,37.9,22.3,61.2s-7.9,45-22.3,61.2
					C600.4,245,579.6,254.5,555,255.9z"/>
			</g>
		</g>
		<g>
			<rect x="717.2" y="26.5" class="st2" width="57.5" height="280.7"/>
			<path class="st2" d="M781.2,313.6h-70.4V20.1h70.4V313.6z M723.7,300.7h44.6V33h-44.6V300.7z"/>
		</g>
		<g>
			
				<rect x="834.6" y="113" transform="matrix(-1.836970e-16 1 -1 -1.836970e-16 1030.2352 -696.5207)" class="st2" width="57.5" height="107.8"/>
			<path class="st2" d="M923.7,202.1H803v-70.4h120.7V202.1z M815.9,189.2h94.9v-44.6h-94.9V189.2z"/>
		</g>
		<g>
			
				<rect x="1343.5" y="150" transform="matrix(-1.836970e-16 1 -1 -1.836970e-16 1539.0891 -1205.3772)" class="st2" width="57.5" height="33.8"/>
			<path class="st2" d="M1395.6,202.1h-46.7v-70.4h46.7V202.1z M1361.8,189.2h20.9v-44.6h-20.9V189.2z"/>
		</g>
		<g>
			<rect x="1263.1" y="26.5" class="st2" width="57.5" height="280.7"/>
			<path class="st2" d="M1327,313.6h-70.4V20.1h70.4V313.6z M1269.5,300.7h44.6V33h-44.6V300.7z"/>
		</g>
		<g>
			<path class="st2" d="M1389.1,195.6c0-19.2,0-38.3,0-57.5c35.7,0,35.7-54.1,0-54.1c0-19.2,0-38.3,0-57.5
				C1501.5,26.5,1501.5,195.6,1389.1,195.6z"/>
			<path class="st2" d="M1389.1,202.1h-6.5v-70.4h6.5c9.9,0,14.9-5,17.4-9.3c3.9-6.8,3.9-15.8,0-22.6c-2.4-4.2-7.4-9.3-17.4-9.3
				h-6.5V20.1h6.5c27.9,0,51.5,9.9,68,28.6c14.6,16.5,22.7,38.7,22.7,62.4s-8.1,45.9-22.7,62.4
				C1440.6,192.2,1417.1,202.1,1389.1,202.1z M1395.6,144v45c49-3.1,71.4-41.8,71.4-77.9s-22.4-74.8-71.4-77.9v45
				c9.5,1.6,17.4,7,22.1,15.2c6.2,10.8,6.2,24.7,0,35.5C1412.9,137,1405.1,142.4,1395.6,144z"/>
		</g>
		<g>
			<path class="st2" d="M1002.7,148.8c8.1-40.6,43.9-71.2,86.9-71.2c43,0,78.8,30.6,86.9,71.2h58.2C1226.1,76.3,1164.4,20,1089.6,20
				c-74.8,0-136.5,56.2-145.1,128.7H1002.7z"/>
			<path class="st2" d="M1241.9,155.2h-70.7l-1-5.2c-7.6-38.3-41.5-66-80.6-66c-39.1,0-72.9,27.8-80.6,66l-1,5.2h-70.7l0.9-7.2
				c9.1-76.6,74.2-134.4,151.5-134.4c77.3,0,142.4,57.8,151.5,134.4L1241.9,155.2z M1181.6,142.3h45.6
				c-11.4-66.5-69.3-115.8-137.6-115.8c-68.3,0-126.2,49.3-137.6,115.8h45.6c10.7-41.6,48.6-71.2,92-71.2
				C1133,71.1,1170.9,100.8,1181.6,142.3z"/>
		</g>
		<g>
			<path class="st2" d="M1176.5,183.5c-8.1,40.6-43.9,71.2-86.9,71.2c-43,0-78.8-30.6-86.9-71.2h-58.2
				c8.6,72.5,70.3,128.7,145.1,128.7c74.8,0,136.5-56.2,145.1-128.7H1176.5z"/>
			<path class="st2" d="M1089.6,318.7c-77.3,0-142.4-57.8-151.5-134.4l-0.9-7.2h70.7l1,5.2c7.6,38.3,41.5,66,80.6,66
				c39.1,0,72.9-27.8,80.6-66l1-5.2h70.7l-0.9,7.2C1232,260.9,1166.9,318.7,1089.6,318.7z M952,190
				c11.4,66.5,69.3,115.8,137.6,115.8c68.3,0,126.2-49.3,137.6-115.8h-45.6c-10.7,41.6-48.6,71.2-92,71.2c-43.4,0-81.3-29.6-92-71.2
				H952z"/>
		</g>
		<g>
			<polygon class="st2" points="244.1,26.5 179.1,154.4 211.4,217.8 308.7,26.5 			"/>
			<path class="st2" d="M211.4,232l-39.5-77.6l68.3-134.3h79L211.4,232z M186.3,154.4l25,49.2L298.2,33h-50.1L186.3,154.4z"/>
		</g>
		<g>
			<polygon class="st2" points="159.6,192.7 75,26.5 10.5,26.5 159.6,319.5 191.9,256.1 159.6,192.7 			"/>
			<path class="st2" d="M159.6,333.7L0,20.1h79l80.5,158.3l0,0l39.6,77.7L159.6,333.7z M21,33l138.6,272.3l25-49.2L71.1,33H21z"/>
		</g>
		<g>
			<path class="st2" d="M1822.2,253c-40.6-8.1-71.2-43.9-71.2-86.9c0-43,30.6-78.8,71.2-86.9V21.1c-72.5,8.6-128.7,70.3-128.7,145.1
				s56.2,136.5,128.7,145.1V253z"/>
			<path class="st2" d="M1828.7,318.5l-7.2-0.9c-76.6-9.1-134.4-74.2-134.4-151.5c0-77.3,57.8-142.4,134.4-151.5l7.2-0.9v70.7
				l-5.2,1c-38.3,7.6-66,41.5-66,80.6c0,39.1,27.8,72.9,66,80.6l5.2,1V318.5z M1815.8,28.5C1749.2,39.9,1700,97.9,1700,166.1
				c0,68.3,49.3,126.2,115.8,137.6v-45.6c-41.6-10.7-71.2-48.6-71.2-92s29.6-81.3,71.2-92V28.5z"/>
		</g>
		<g>
			<path class="st2" d="M1911.2,114l41-41c-23.3-28.2-57-47.4-95.2-52v58.2C1879.2,83.7,1898.4,96.4,1911.2,114z"/>
			<path class="st2" d="M1910.5,123.9l-4.4-6.1c-12.2-16.8-30.1-28.2-50.3-32.2l-5.2-1V13.8l7.2,0.9c39,4.6,74.3,23.9,99.4,54.3
				l3.7,4.5L1910.5,123.9z M1863.4,74.1c18.8,4.9,35.7,15.4,48.4,30.2l31.6-31.6c-21.1-23.4-49.1-38.9-80-44.2V74.1z"/>
		</g>
		<g>
			<path class="st2" d="M1911.2,218.3c-12.9,17.6-32,30.3-54.2,34.8v58.2c38.2-4.5,71.9-23.8,95.2-52L1911.2,218.3z"/>
			<path class="st2" d="M1850.5,318.5v-70.7l5.2-1c20.2-4,38.1-15.5,50.3-32.2l4.4-6.1l50.5,50.5l-3.7,4.5
				c-25.1,30.4-60.5,49.6-99.4,54.3L1850.5,318.5z M1863.4,258.2v45.6c30.9-5.3,58.9-20.8,80-44.2l-31.6-31.6
				C1899.1,242.8,1882.3,253.3,1863.4,258.2z"/>
		</g>
		<g>
			<polygon class="st2" points="1574.7,201.7 1545.4,259.3 1660.6,259.3 1648.8,201.7 			"/>
			<path class="st2" d="M1668.5,265.7h-133.6l35.8-70.4h83.4L1668.5,265.7z M1555.9,252.8h96.8l-9.1-44.6h-65L1555.9,252.8z"/>
		</g>
		<g>
			<polygon class="st2" points="1482,307.2 1547.1,179.4 1514.8,115.9 1417.5,307.2 			"/>
			<path class="st2" d="M1486,313.6h-79l107.8-211.9l39.5,77.6L1486,313.6z M1428,300.7h50.1l61.8-121.4l-25-49.2L1428,300.7z"/>
		</g>
		<g>
			<polygon class="st2" points="1566.6,141 1651.1,307.2 1715.6,307.2 1566.6,14.2 1534.3,77.6 1566.6,141 			"/>
			<path class="st2" d="M1726.2,313.6h-79l-80.5-158.3l0,0l-39.6-77.7L1566.6,0L1726.2,313.6z M1655.1,300.7h50.1L1566.6,28.4
				l-25,49.2L1655.1,300.7z"/>
		</g>
		<g>
			
				<rect x="2698.2" y="106.3" transform="matrix(-1.836970e-16 1 -1 -1.836970e-16 2893.2195 -2560.7886)" class="st2" width="57.5" height="119.9"/>
			<path class="st2" d="M2793.4,201.4h-132.8V131h132.8V201.4z M2673.5,188.5h107v-44.6h-107V188.5z"/>
		</g>
		<g>
			<path class="st2" d="M3286.8,148.8c8.1-40.6,43.9-71.2,86.9-71.2c43,0,78.8,30.6,86.9,71.2h58.2C3510.1,76.3,3448.5,20,3373.7,20
				c-74.8,0-136.5,56.2-145.1,128.7H3286.8z"/>
			<path class="st2" d="M3526,155.2h-70.7l-1-5.2c-7.6-38.3-41.5-66-80.6-66c-39.1,0-72.9,27.8-80.6,66l-1,5.2h-70.7l0.9-7.2
				c9.1-76.6,74.2-134.4,151.5-134.4s142.4,57.8,151.5,134.4L3526,155.2z M3465.7,142.3h45.6c-11.4-66.5-69.3-115.8-137.6-115.8
				c-68.3,0-126.2,49.3-137.6,115.8h45.6c10.7-41.6,48.6-71.2,92-71.2C3417.1,71.1,3455,100.8,3465.7,142.3z"/>
		</g>
		<g>
			<path class="st2" d="M3460.5,183.5c-8.1,40.6-43.9,71.2-86.9,71.2c-43,0-78.8-30.6-86.9-71.2h-58.2
				c8.6,72.5,70.3,128.7,145.1,128.7c74.8,0,136.5-56.2,145.1-128.7H3460.5z"/>
			<path class="st2" d="M3373.7,318.7c-77.3,0-142.4-57.8-151.5-134.4l-0.9-7.2h70.7l1,5.2c7.6,38.3,41.5,66,80.6,66
				c39.1,0,72.9-27.8,80.6-66l1-5.2h70.7l-0.9,7.2C3516.1,260.9,3450.9,318.7,3373.7,318.7z M3236,190
				c11.4,66.5,69.3,115.8,137.6,115.8c68.3,0,126.2-49.3,137.6-115.8h-45.6c-10.7,41.6-48.6,71.2-92,71.2c-43.4,0-81.3-29.6-92-71.2
				H3236z"/>
		</g>
		<g>
			<path class="st2" d="M3599.7,148.8c8.1-40.6,43.9-71.2,86.9-71.2c43,0,78.8,30.6,86.9,71.2h58.2C3823,76.3,3761.3,20,3686.5,20
				c-74.8,0-136.5,56.2-145.1,128.7H3599.7z"/>
			<path class="st2" d="M3838.9,155.2h-70.7l-1-5.2c-7.6-38.3-41.5-66-80.6-66c-39.1,0-72.9,27.8-80.6,66l-1,5.2h-70.7l0.9-7.2
				c9.1-76.6,74.2-134.4,151.5-134.4S3828.9,71.4,3838,148L3838.9,155.2z M3778.6,142.3h45.6c-11.4-66.5-69.3-115.8-137.6-115.8
				c-68.3,0-126.2,49.3-137.6,115.8h45.6c10.7-41.6,48.6-71.2,92-71.2C3729.9,71.1,3767.8,100.8,3778.6,142.3z"/>
		</g>
		<g>
			<path class="st2" d="M3773.4,183.5c-8.1,40.6-43.9,71.2-86.9,71.2c-43,0-78.8-30.6-86.9-71.2h-58.2
				c8.6,72.5,70.3,128.7,145.1,128.7c74.8,0,136.5-56.2,145.1-128.7H3773.4z"/>
			<path class="st2" d="M3686.5,318.7c-77.3,0-142.4-57.8-151.5-134.4l-0.9-7.2h70.7l1,5.2c7.6,38.3,41.5,66,80.6,66
				c39.1,0,72.9-27.8,80.6-66l1-5.2h70.7l-0.9,7.2C3828.9,260.9,3763.8,318.7,3686.5,318.7z M3548.9,190
				c11.4,66.5,69.3,115.8,137.6,115.8c68.3,0,126.2-49.3,137.6-115.8h-45.6c-10.7,41.6-48.6,71.2-92,71.2c-43.4,0-81.3-29.6-92-71.2
				H3548.9z"/>
		</g>
		<g>
			<path class="st2" d="M2755.7,166.1c0,10.1-1.7,19.8-4.8,28.8h59.5c1.9-9.3,2.8-19,2.8-28.8c0-9.8-1-19.4-2.8-28.7h-59.4
				C2754,146.5,2755.7,156.1,2755.7,166.1z"/>
			<path class="st2" d="M2815.6,201.4h-73.8l2.9-8.5c3-8.6,4.4-17.6,4.4-26.7c0-9.1-1.5-18.1-4.4-26.6l-2.9-8.5h73.8l1,5.2
				c2,9.8,2.9,19.9,2.9,29.9c0,10.1-1,20.2-3,30.1L2815.6,201.4z M2759.5,188.5h45.5c1.2-7.4,1.8-14.9,1.8-22.4
				c0-7.4-0.6-14.9-1.8-22.2h-45.5c1.7,7.3,2.6,14.7,2.6,22.2C2762.1,173.7,2761.2,181.2,2759.5,188.5z"/>
		</g>
		<g>
			<path class="st2" d="M2667.1,254.8c-48.9,0-88.6-39.7-88.6-88.6s39.7-88.6,88.6-88.6c23.8,0,45.4,9.4,61.3,24.7l40.7-40.7
				c-26.3-25.7-62.3-41.5-102-41.5c-80.7,0-146.1,65.4-146.1,146.1s65.4,146.1,146.1,146.1c57.9,0,108-33.7,131.6-82.6h-69.9
				C2712.9,245.2,2691.1,254.8,2667.1,254.8z"/>
			<path class="st2" d="M2667.1,318.8c-84.1,0-152.6-68.4-152.6-152.6c0-84.1,68.4-152.6,152.6-152.6c40,0,77.9,15.4,106.5,43.3
				l4.7,4.6l-49.8,49.8l-4.6-4.4c-15.4-14.8-35.6-22.9-56.9-22.9c-45.3,0-82.1,36.8-82.1,82.1s36.8,82.1,82.1,82.1
				c21.5,0,41.8-8.3,57.3-23.3l1.9-1.8h82.8l-4.5,9.3c-12.3,25.5-31.4,47-55.3,62.3C2724.7,310.5,2696.3,318.8,2667.1,318.8z
				 M2667.1,26.6c-77,0-139.7,62.6-139.7,139.7s62.6,139.7,139.7,139.7c26.8,0,52.8-7.6,75.2-21.9c18.9-12.1,34.5-28.5,45.7-47.7
				h-56.6c-17.6,16.2-40.3,25.1-64.3,25.1c-52.4,0-95-42.6-95-95c0-52.4,42.6-95,95-95c22.5,0,44,7.9,61.1,22.2l31.6-31.6
				C2734.2,39,2701.5,26.6,2667.1,26.6z"/>
		</g>
		<g>
			<polygon class="st2" points="2853.6,307.2 2914.6,307.2 2981.3,118.8 2920.2,118.8 			"/>
			<path class="st2" d="M2919.1,313.6h-74.7l71.3-201.3h74.7L2919.1,313.6z M2862.7,300.7h47.3l62.1-175.5h-47.3L2862.7,300.7z"/>
		</g>
		<g>
			<polygon class="st2" points="2819.5,84 2819.5,26.5 3013.9,26.5 2993.7,84 			"/>
			<path class="st2" d="M2998.2,90.5h-185.2V20.1H3023L2998.2,90.5z M2826,77.6h163.1l15.7-44.6H2826V77.6z"/>
		</g>
		<g>
			<rect x="3113.3" y="183.5" class="st2" width="91.6" height="57.5"/>
			<path class="st2" d="M3211.4,247.5h-104.5v-70.4h104.5V247.5z M3119.8,234.6h78.7V190h-78.7V234.6z"/>
		</g>
		<g>
			<polygon class="st2" points="2965.6,241 3078.6,241 3078.6,183.5 3020.7,183.5 			"/>
			<path class="st2" d="M3085,247.5h-134.5l67.4-70.4h67.1V247.5z M2980.7,234.6h91.4V190h-48.7L2980.7,234.6z"/>
		</g>
		<g>
			<polygon class="st2" points="3113.3,86.7 3113.3,307.1 3170.9,307.1 3170.9,26.6 			"/>
			<path class="st2" d="M3177.3,313.6h-70.4V84.1l70.4-73.6V313.6z M3119.8,300.7h44.6v-258l-44.6,46.6V300.7z"/>
		</g>
		<g>
			<polygon class="st44" points="2445,138.1 2333.4,138.1 2333.4,26.5 2275.9,26.5 2275.9,138.1 2164.3,138.1 2164.3,195.6 
				2275.9,195.6 2275.9,307.2 2333.4,307.2 2333.4,195.6 2445,195.6 			"/>
			<polygon class="st45" points="2395.6,138.1 2284,138.1 2284,26.5 2226.5,26.5 2226.5,138.1 2114.9,138.1 2114.9,195.6 
				2226.5,195.6 2226.5,307.2 2284,307.2 2284,195.6 2395.6,195.6 			"/>
			<polygon class="st46" points="2346.2,138.1 2234.7,138.1 2234.7,26.5 2177.1,26.5 2177.1,138.1 2065.6,138.1 2065.6,195.6 
				2177.1,195.6 2177.1,307.2 2234.7,307.2 2234.7,195.6 2346.2,195.6 			"/>
			<polygon class="st47" points="2296.9,138.1 2185.3,138.1 2185.3,26.5 2127.8,26.5 2127.8,138.1 2016.2,138.1 2016.2,195.6 
				2127.8,195.6 2127.8,307.2 2185.3,307.2 2185.3,195.6 2296.9,195.6 			"/>
		</g>
		<g>
			<path class="st3" d="M3704.6,381.5c-11.6,0-35.2,0.1-35.2,0v102.4h28.6l0.2-25.6h12.8c27.3,0,41.6-13.2,41.6-38.4
				C3752.6,392.1,3734.7,381.5,3704.6,381.5z M3704.6,439.1h-6.4v-38.4c1.7-0.1,4.9,0,6.4,0c14.5,0,19.7,7.4,19.7,19.8
				C3724.3,433.3,3719.8,439.1,3704.6,439.1z"/>
			<polygon class="st3" points="3448.5,483.9 3448.5,442.3 3419.7,442.3 3419.7,483.9 3390.9,483.9 3390.9,381.5 3419.7,381.5 
				3419.7,423.1 3448.5,423.1 3448.5,381.5 3477.3,381.5 3477.3,483.9 			"/>
			<polygon class="st3" points="3499.7,483.9 3499.7,381.5 3525.3,381.5 3528.5,381.5 3528.5,483.9 			"/>
			<polygon class="st3" points="3605.1,483.9 3550.9,483.9 3550.9,381.5 3579.7,381.5 3579.7,464.7 3608.6,464.7 			"/>
			<rect x="3618.2" y="381.5" class="st3" width="28.8" height="102.4"/>
			<path class="st3" d="M3791,407.1v3.2c0,15.7,48,8.5,48,41.6c0,24.8-17.1,32-41.6,32c-9.6,0-25.2-1.8-35.2-3.2v-22.4
				c8.8,4.5,25.6,6.4,35.2,6.4c10.8,0,12.8-3.4,12.8-9.6c0-17.6-48-10.1-48-44.8c0-20.2,19.7-28.8,43.4-28.8c16.8,0,19.4,1.5,27,3.2
				v19.2c-6.8-2.9-16.4-3.2-25.6-3.2C3798.6,400.7,3791,401.7,3791,407.1z"/>
			<path class="st3" d="M3330.1,381.5c-11.6,0-35.2,0.1-35.2,0v102.4h28.6l0.2-25.6h12.8c27.3,0,41.6-13.2,41.6-38.4
				C3378.1,392.1,3360.2,381.5,3330.1,381.5z M3330.1,439.1h-6.4v-38.4c1.7-0.1,4.9,0,6.4,0c14.5,0,19.7,7.4,19.7,19.8
				C3349.8,433.3,3345.3,439.1,3330.1,439.1z"/>
		</g>
	</g>
</g>
</svg>
