<?xml version="1.0" encoding="utf-8"?>
<!-- Generator: Adobe Illustrator 26.0.3, SVG Export Plug-In . SVG Version: 6.00 Build 0)  -->
<svg version="1.1" id="Layer_1" xmlns="http://www.w3.org/2000/svg" xmlns:xlink="http://www.w3.org/1999/xlink" x="0px" y="0px"
	 viewBox="0 0 3839 772.1" style="enable-background:new 0 0 3839 772.1;" xml:space="preserve">
<style type="text/css">
	.st0{fill:#E41608;}
	.st1{display:none;}
	.st2{display:inline;}
	.st3{fill:#FFFFFF;}
</style>
<g>
	<g>
		<g>
			<g>
				<g>
					<g>
						<g>
							<polygon class="st0" points="1243.5,17.6 1048.8,460 1266.7,460 1348.9,273.2 1348.9,99.5 1403.5,99.5 1403.5,460 
								1602.9,460 1602.9,17.6 							"/>
						</g>
						<g>
							<path class="st0" d="M1060.4,262H838.9v132.3h-54.6V75h54.6v132.4h221.5v-24.1c0-130.1-67.5-179.5-150.8-179.5H713.8
								C630.4,3.8,563,53.1,563,183.3v47.2v8.4v47.2c0,130.1,67.5,179.5,150.8,179.5h195.9c83.3,0,150.8-49.3,150.8-179.5V262z"/>
						</g>
						<g>
							<path class="st0" d="M490,205.4v-88.1c0-55.1-44.7-99.7-99.7-99.7H0v442.5h199.4V99.6h54.6v173.6l82.2,186.8h214.9
								L447.6,261.7C472,254.7,490,232.1,490,205.4z"/>
						</g>
					</g>
				</g>
			</g>
			<g>
				<path class="st3" d="M3658.9,7.8h-44.3h-47.7h-54.6c-2,0-3.7,1.4-4.1,3.3c-0.6,2.5,1.3,5.2,3.9,5.2c53.7,0,46.2,30.3,42.8,45.8
					l-75,338.3c-5.1,22.9-28,44.7-65,45.9c-2,0.1-3.6,1.4-4.1,3.3c-0.6,2.6,1.4,5.2,4.1,5.2h52.9h47.6h55.4c2,0,3.7-1.4,4.1-3.3
					c0.6-2.5-1.3-5.2-3.9-5.2c-42.6,0-47.1-30.3-43.7-45.8l75.1-338.3c5.1-22.9,19.4-44.7,56.4-45.9c2-0.1,3.6-1.4,4.1-3.3
					C3663.6,10.4,3661.6,7.8,3658.9,7.8z"/>
				<path class="st3" d="M3834.8,7.8h-44.3h-47.7h-54.6c-2,0-3.7,1.4-4.1,3.3c-0.6,2.5,1.3,5.2,3.9,5.2c53.7,0,46.2,30.3,42.8,45.8
					l-75,338.3c-5.1,22.9-28,44.7-65,45.9c-2,0.1-3.6,1.4-4.1,3.3c-0.6,2.6,1.4,5.2,4.1,5.2h52.9h47.6h55.4c2,0,3.7-1.4,4.1-3.3
					c0.6-2.5-1.3-5.2-3.9-5.2c-42.6,0-47.1-30.3-43.7-45.8l75.1-338.3c5.1-22.9,19.4-44.7,56.4-45.9c2-0.1,3.6-1.4,4.1-3.3
					C3839.5,10.4,3837.5,7.8,3834.8,7.8z"/>
				<g>
					<path class="st3" d="M2137.3,386.4l43.1-194.1h65.8l6-27.2h-65.8l24-108.3c0.7-3.3-3.7-5.1-5.4-2.2
						c-20.1,33.6-37.4,111.7-127.1,125.4c-2.8,0.5-5.1,2.7-5.4,5.5c-0.4,3.7,2.5,6.8,6.1,6.8l53,0c-0.6,0.7-31.9,142.8-46.1,207.7
						c-11.2,51.2,27.8,72.3,66.4,46.7c45.7-30.3,64.4-69.1,69-79.4c0.7-1.6,0.6-3.5-0.4-4.9l-0.1-0.1c-2-3.1-6.6-3.2-8.7,0
						c-47.5,71.5-70.9,71.5-75.3,43.8C2135.5,399.5,2135.9,392.8,2137.3,386.4z"/>
				</g>
				<g>
					<path class="st3" d="M3164.9,464.1c-21.6,0-51.4-5.2-71.1-29.7c-20.6-25.7-25-66.3-13-120.8c12.5-56.4,58.2-151.9,150.5-151.9
						c29.7,0,52.5,9.7,67.8,28.8c35.2,44.2,17.8,122.8,17.6,123.6C3302.8,374.3,3251,464.1,3164.9,464.1z M3228.5,176.5
						c-35.8,0-84.7,66.8-100.6,137.5c-10.2,45.2-18,94.6,1.7,119.3c8.4,10.5,21.6,15.9,39.1,15.9c49.8,0,91.3-89.8,101.4-135.7
						c13.5-61.2,12.2-100.9-4.2-121.3C3257.5,181.8,3244.9,176.5,3228.5,176.5z"/>
					<path class="st3" d="M3231.2,162.7c-85.6,0-134.8,85-149.4,151c-26.6,120.5,32.7,149.2,83,149.2c87.9,0,137.5-92,150.6-149.2
						C3320.9,290.4,3339,162.7,3231.2,162.7z M3271.1,313.8c-9.1,41.1-49.7,136.5-102.5,136.5c-66.8,0-55.9-74.7-42-136.5
						c16.4-72.5,65.3-138.4,101.7-138.4C3290.4,175.4,3285.7,247.9,3271.1,313.8z"/>
				</g>
				<g>
					<path class="st3" d="M2974.8,388.4L2974.8,388.4l49.5-223.2h-0.1h-92.3c-3.9,0-7.1,3.2-7.1,7.1l0,0c0,3.9,3.2,7.1,7.1,7.1h11.8
						c23.6,0,26.9,18.6,23.7,33.1c0,0-27.8,123.7-41,184.7c-9.5,43.9,22.3,69.7,50.4,57.7c30.5-13,62.9-71,70.2-84.2
						c1-1.8,0.8-4-0.6-5.6l-0.1-0.1c-2.1-2.4-6-2.2-7.8,0.4C2998.5,424.7,2963.6,438.8,2974.8,388.4z"/>
				</g>
				<g>
					<path class="st3" d="M2782.3,15.3L2782.3,15.3c0.1,3.8,3.2,6.8,7,6.8l16.3,0.1c19.1,0.2,33.3,17.9,29.2,36.7l-28.7,129.2
						c-7.9-13.5-22.5-19.9-44.7-23.9c-40.2-7.3-111.1,19.1-158.1,129.8c-44.9,105.8-0.4,167.1,42,167.6c51,0,76.4-37.1,115.4-90.3
						c-6.9,45.5,10.4,104,56.7,75.2c33.3-20.7,61.3-61.6,69.4-73.4c1.2-1.8,1.3-4.2,0.1-6l-0.1-0.1c-1.9-3-6.2-3.3-8.6-0.7
						c-53.1,59-77,64.2-65.8,13.8h-0.1l82.5-372.3L2789.4,8C2785.4,8,2782.2,11.3,2782.3,15.3z M2790.5,258l-0.6,2.8
						c-3.8,16.5-10.3,35.5-20,56.8c-44.4,97.9-76.3,119.7-109.4,113.3c-33.1-6.4-37.6-64-8.4-135.5
						c29.2-71.6,78.8-122.2,111.9-115.8C2788.6,184.3,2801.2,208.4,2790.5,258z"/>
				</g>
				
					<ellipse transform="matrix(0.4553 -0.8904 0.8904 0.4553 1614.0742 2723.3826)" class="st3" cx="3032.6" cy="42.6" rx="37.5" ry="28.2"/>
				<path class="st3" d="M2565.5,367.3l-0.1-0.1c-2.1-3.2-6.7-3.4-9.1-0.5c-15.8,19.7-29.8,41.5-46.4,51.2
					c-13.3,7.7-26.4,8.9-20.4-17.9l51.9-234.8h-48.5c-21,79.8-90.7,262.4-156.7,262.4c-20.1,0-15-28.8-13.7-34.6l50.4-227.8h-0.1
					h-88.4c-1.3,0-2.6,0.6-3.4,1.6c-5,5.9-0.8,12.6,4.9,12.6h6.5c5.6,0,11.2,1.9,15.4,5.7c5,4.7,9.2,12.9,6,27.4
					c0,0-27.8,125.2-38.2,171.9c-9.8,43.8,15.9,89.4,64,71.6c38.9-14.4,91.1-93.8,109.4-123.2l0,0c-7.5,31.6-16.9,82.2-11.9,100.2
					c8.7,31.1,42.9,32.5,61.3,18.2c40.9-31.6,61.5-66.5,67.3-78.5C2566.6,370.9,2566.5,368.9,2565.5,367.3z"/>
				<g>
					<g>
						<g>
							<g>
								<path class="st3" d="M2080.4,57.9c3.2,14.2-3.4,46.5-45.8,28.9c-20.7-8.6-56.1-61.8-128.6-61.8c-32,0-54,12.1-70.9,28.4
									c-22,21.2-29.9,54.5-20.1,75c10.8,22.5,48.6,40.8,67.4,49.4c37.6,17.3,108.9,35,131.9,76c18.3,32.4,17.8,102.3-57.6,165.3
									c-34.2,28.5-81.8,45.9-140.5,42.7c-52.7-2.9-127.1-20.9-152-66.1c-11.1-20.1,12-54.6,43-35.7c56.6,34.6,73.3,77.4,150,79.1
									c73.4,1.7,117.2-52.2,125.2-85.2c5.7-23.5,15.9-66.8-69.9-99.4c-24.9-9.4-100.5-33-130-66.6c-34.7-39.6-11-102.2,18.5-131.6
									C1845.1,12.6,1885.4,0,1949,0C1988.9,0,2070.7,15.4,2080.4,57.9z"/>
							</g>
						</g>
					</g>
				</g>
			</g>
		</g>
	</g>
	<g>
		<path class="st3" d="M831.4,582.8h32.7v57h60.1v-57h32.7v148.6h-32.7v-64.1h-60.1v64.1h-32.7V582.8z"/>
		<path class="st3" d="M1031.8,620.8c33.9,0,55.8,22.5,55.8,56.8c0,34.1-21.9,56.6-55.8,56.6c-33.7,0-55.6-22.5-55.6-56.6
			C976.2,643.3,998,620.8,1031.8,620.8z M1031.8,712c20.2,0,26.2-17.3,26.2-34.3c0-17.3-6-34.5-26.2-34.5c-20,0-26,17.3-26,34.5
			C1005.7,694.7,1011.8,712,1031.8,712z"/>
		<path class="st3" d="M1104.8,623.8h27.9v14.6h0.4c7.7-11,18.9-17.5,32.9-17.5c13.5,0,25.6,5,31.4,17.9
			c6.2-9.4,17.5-17.9,32.5-17.9c22.9,0,39.3,10.6,39.3,38.5v72h-29.5v-61c0-14.4-1.2-26.2-18.1-26.2c-16.6,0-19.8,13.7-19.8,27.3
			v59.9h-29.5V671c0-12.5,0.8-26.8-17.9-26.8c-5.8,0-20,3.7-20,24.8v62.4h-29.5V623.8z"/>
		<path class="st3" d="M1314.9,684.7c0.8,18.7,10,27.3,26.4,27.3c11.9,0,21.4-7.3,23.3-13.9h26c-8.3,25.4-26,36.2-50.4,36.2
			c-33.9,0-54.9-23.3-54.9-56.6c0-32.3,22.3-56.8,54.9-56.8c36.6,0,54.3,30.8,52.2,63.9H1314.9z M1363,666
			c-2.7-15-9.2-22.9-23.5-22.9c-18.7,0-24.1,14.6-24.6,22.9H1363z"/>
		<path class="st3" d="M1503.9,610.2h-44.5v-27.5h121.7v27.5h-44.5v121.1h-32.7V610.2z"/>
		<path class="st3" d="M1671.8,731.3h-36.8l-48.3-148.6h33.7l33.1,104.5h0.4l33.5-104.5h33.7L1671.8,731.3z"/>
		<path class="st3" d="M1791.6,582.8h67c37,0,51.4,23.5,51.4,47.7s-14.4,47.7-51.4,47.7h-34.3v53.3h-32.7V582.8z M1824.3,652.7h25.4
			c15.2,0,28.7-3.3,28.7-22.3c0-18.9-13.5-22.3-28.7-22.3h-25.4V652.7z"/>
		<path class="st3" d="M1922.8,623.8h28.1v20h0.4c5.4-13.5,20-22.9,34.3-22.9c2.1,0,4.6,0.4,6.5,1v27.5c-2.7-0.6-7.1-1-10.6-1
			c-21.6,0-29.1,15.6-29.1,34.5v48.5h-29.5V623.8z"/>
		<path class="st3" d="M2053.8,620.8c33.9,0,55.8,22.5,55.8,56.8c0,34.1-21.9,56.6-55.8,56.6c-33.7,0-55.6-22.5-55.6-56.6
			C1998.3,643.3,2020.1,620.8,2053.8,620.8z M2053.8,712c20.2,0,26.2-17.3,26.2-34.3c0-17.3-6-34.5-26.2-34.5c-20,0-26,17.3-26,34.5
			C2027.8,694.7,2033.8,712,2053.8,712z"/>
		<path class="st3" d="M2228.6,724.5c0,17.7-6.2,47.7-55.8,47.7c-21.2,0-46-10-47.4-34.5h29.3c2.7,11,11.7,14.8,22.1,14.8
			c16.4,0,23.9-11.2,23.7-26.6v-14.2h-0.4c-6.5,11.2-19.4,16.6-32.3,16.6c-32.3,0-46-24.6-46-54.1c0-27.9,16-53.3,46.2-53.3
			c14.2,0,25,4.8,32,17.3h0.4v-14.4h28.1V724.5z M2200.5,676.2c0-17.5-6-33.1-25.2-33.1c-16.6,0-23.9,14.6-23.9,30.6
			c0,15.4,5.8,32.3,23.9,32.3C2192.2,706,2200.5,691.6,2200.5,676.2z"/>
		<path class="st3" d="M2250.3,623.8h28.1v20h0.4c5.4-13.5,20-22.9,34.3-22.9c2.1,0,4.6,0.4,6.5,1v27.5c-2.7-0.6-7.1-1-10.6-1
			c-21.6,0-29.1,15.6-29.1,34.5v48.5h-29.5V623.8z"/>
		<path class="st3" d="M2328.9,656.8c1.7-27.7,26.4-36,50.6-36c21.4,0,47.2,4.8,47.2,30.6v56c0,9.8,1,19.6,3.7,23.9h-30
			c-1-3.3-1.9-6.9-2.1-10.4c-9.4,9.8-23.1,13.3-36.2,13.3c-20.4,0-36.6-10.2-36.6-32.3c0-24.3,18.3-30.2,36.6-32.7
			c18.1-2.7,35-2.1,35-14.2c0-12.7-8.7-14.6-19.1-14.6c-11.2,0-18.5,4.6-19.6,16.2H2328.9z M2397.2,678.7c-5,4.4-15.4,4.6-24.6,6.2
			c-9.2,1.9-17.5,5-17.5,15.8c0,11,8.5,13.7,18.1,13.7c23.1,0,23.9-18.3,23.9-24.8V678.7z"/>
		<path class="st3" d="M2448.6,623.8h27.9v14.6h0.4c7.7-11,18.9-17.5,32.9-17.5c13.5,0,25.6,5,31.4,17.9
			c6.2-9.4,17.5-17.9,32.5-17.9c22.9,0,39.3,10.6,39.3,38.5v72h-29.5v-61c0-14.4-1.2-26.2-18.1-26.2c-16.6,0-19.8,13.7-19.8,27.3
			v59.9H2516V671c0-12.5,0.8-26.8-17.9-26.8c-5.8,0-20,3.7-20,24.8v62.4h-29.5V623.8z"/>
		<path class="st3" d="M2635.1,623.8h27.9v14.6h0.4c7.7-11,18.9-17.5,32.9-17.5c13.5,0,25.6,5,31.4,17.9
			c6.2-9.4,17.5-17.9,32.5-17.9c22.9,0,39.3,10.6,39.3,38.5v72h-29.5v-61c0-14.4-1.2-26.2-18.1-26.2c-16.6,0-19.8,13.7-19.8,27.3
			v59.9h-29.5V671c0-12.5,0.8-26.8-17.9-26.8c-5.8,0-20,3.7-20,24.8v62.4h-29.5V623.8z"/>
		<path class="st3" d="M2845.2,684.7c0.8,18.7,10,27.3,26.4,27.3c11.9,0,21.4-7.3,23.3-13.9h26c-8.3,25.4-26,36.2-50.4,36.2
			c-33.9,0-54.9-23.3-54.9-56.6c0-32.3,22.3-56.8,54.9-56.8c36.6,0,54.3,30.8,52.2,63.9H2845.2z M2893.3,666
			c-2.7-15-9.2-22.9-23.5-22.9c-18.7,0-24.1,14.6-24.6,22.9H2893.3z"/>
		<path class="st3" d="M2938.3,623.8h28.1v20h0.4c5.4-13.5,20-22.9,34.3-22.9c2.1,0,4.6,0.4,6.5,1v27.5c-2.7-0.6-7.1-1-10.6-1
			c-21.6,0-29.1,15.6-29.1,34.5v48.5h-29.5V623.8z"/>
	</g>
</g>
</svg>
