<?xml version="1.0" encoding="utf-8"?>
<!-- Generator: Adobe Illustrator 25.0.0, SVG Export Plug-In . SVG Version: 6.00 Build 0)  -->
<svg version="1.1" id="Layer_1" xmlns="http://www.w3.org/2000/svg" xmlns:xlink="http://www.w3.org/1999/xlink" x="0px" y="0px"
	 viewBox="0 0 3211.884 2159" style="enable-background:new 0 0 3211.884 2159;" xml:space="preserve">
<style type="text/css">
	.st0{fill:#E62229;}
	.st1{fill:#019B43;}
	.st2{fill:#FFFFFF;}
</style>
<g>
	<g>
		<g>
			<rect x="2411.364" y="1865.557" class="st2" width="84.114" height="293.443"/>
			<g>
				<polygon class="st2" points="2611.592,1963.729 2527.478,1990.617 2527.478,1865.557 2611.592,1865.557 				"/>
				<polygon class="st2" points="2862.172,1990.617 2778.058,1963.729 2778.058,1865.557 2862.172,1865.557 				"/>
				<polygon class="st2" points="2627.189,2159 2728.543,2159 2554.782,1865.557 2527.478,1990.617 				"/>
				<polygon class="st2" points="2762.461,2159 2661.107,2159 2834.868,1865.557 2862.172,1990.617 				"/>
			</g>
			<path class="st2" d="M338.809,1886.434l-17.245,29.12v-49.998H220.637c-13.846,0-26.784,7.827-34.512,20.878L24.714,2159h101.359
				l129.667-218.958h51.324L177.398,2159h101.359l135.363-228.576c1.715-2.896,5.694-1.517,5.694,1.973V2159h84.114v-293.444
				H373.322C359.476,1865.556,346.538,1873.383,338.809,1886.434z"/>
			<path class="st2" d="M680.178,1927.884h153.631v-62.328l-127.56-0.519h-90.223c-6.963,0-13.469,3.936-17.356,10.499
				l-40.342,68.123V2159h275.482v-62.327H642.441v-53.029h154.458l36.91-62.326H642.441v-8.533l20.366-34.393
				C666.697,1931.823,673.209,1927.884,680.178,1927.884z"/>
			<path class="st2" d="M3033.539,1927.884h153.631v-62.328l-127.56-0.519h-90.223c-6.963,0-13.469,3.936-17.356,10.499
				l-40.342,68.123V2159h275.482v-62.327h-191.368v-53.029h154.458l36.91-62.326h-191.368v-8.533l20.366-34.393
				C3020.058,1931.823,3026.57,1927.884,3033.539,1927.884z"/>
			<path class="st2" d="M1561.919,2159l-161.251-272.318c-7.82-13.206-20.911-21.126-34.92-21.126h-153.254V2159h84.115v-115.095
				v-116.021h14.004c8.184,0,15.831,4.626,20.399,12.34l61.397,103.681h-95.8l36.909,62.326h0.141h95.658l31.247,52.769H1561.919z"
				/>
			<path class="st2" d="M1168.882,1981.577h-8.989h-74.804h-26.711l-36.756,62.067h35.912v0.261h27.554v52.768H944.6v-106.745
				l30.517-51.532c3.891-6.571,10.406-10.512,17.377-10.512h159.895v-62.328h-134.136l0.307-0.519h-86.921
				c-9.027,0-17.462,5.103-22.501,13.612l-48.652,82.156v164.911c0,18.382,13.116,33.283,29.296,33.283h33.29H944.6h140.49h54.816
				c16.181,0,29.297-14.902,29.297-33.284v-29.043v-115.095H1168.882z"/>
			<path class="st2" d="M1969.517,1893.136c-10.209-17.241-27.301-27.581-45.591-27.581l-72.103,0.003h-157.959V2159l211.937-0.003
				h18.125c18.29,0,35.382-10.34,45.591-27.581l59.69-100.804c2.163-3.653,3.318-7.956,3.318-12.359v-11.956
				c0-4.403-1.155-8.705-3.318-12.358L1969.517,1893.136z M1888.732,2096.672h-110.754v-168.787h110.754l42.111,71.109
				c4.755,8.03,4.756,18.533,0,26.563L1888.732,2096.672z"/>
			<path class="st2" d="M2294.368,2049.539l48.305-81.577c2.162-3.651,3.317-7.952,3.317-12.352v-10.202
				c0-4.401-1.155-8.701-3.317-12.353l-23.637-39.917c-10.21-17.242-27.303-27.583-45.595-27.583h-72.094l-159.339,0.003V2159
				h84.114v-231.115h106.766c3.356,0,6.493,1.897,8.366,5.061l6.612,11.165c2.29,3.866,2.29,8.923,0,12.79l-32.793,55.374h-44.127
				L2257.833,2159h101.354L2294.368,2049.539z"/>
		</g>
	</g>
	<g>
		<rect x="12.357" y="12.357" width="3187.17" height="1606.272"/>
		<path class="st2" d="M3187.17,24.714v1581.559H24.714V24.714H3187.17 M3211.884,0h-24.714H24.714H0v24.714v1581.559v24.714h24.714
			H3187.17h24.714v-24.714V24.714V0L3211.884,0z"/>
	</g>
	<g>
		<polygon class="st0" points="942.484,1151.225 942.484,161.754 117.654,1387.787 1608.164,1387.706 1608.164,161.754 		"/>
		<polygon class="st1" points="1780.829,189.439 1780.829,221.348 1780.829,1387.787 2176.449,1387.787 2176.449,189.439 		"/>
		<path class="st1" d="M2452.076,808.186c-9.851,99.04-93.407,176.388-195.039,176.388h-30.807v403.213h80.433
			c324.362,0,588.488-257.749,598.823-579.6H2452.076z"/>
		<path class="st1" d="M2715.727,350.881l-328.465,291.213c10.342,9.209,19.692,19.502,27.894,30.694l374.068-239.302
			C2767.292,403.727,2742.674,376.077,2715.727,350.881z"/>
		<path class="st1" d="M2289.158,595.208c13.592,2.243,26.722,5.849,39.218,10.737l179.841-381.75
			c-34.082-12.174-69.601-21.311-106.218-27.168L2289.158,595.208z"/>
		<path class="st1" d="M2664.869,308.32c-30.019-22.429-62.209-42.105-96.204-58.664l-228.182,361.539
			c13.104,6.18,25.405,13.765,36.722,22.57L2664.869,308.32z"/>
		<path class="st1" d="M2443.669,728.689c3.54,11.047,6.139,22.517,7.677,34.32h453.91c-1.589-37.764-6.712-74.608-14.974-110.249
			L2443.669,728.689z"/>
		<path class="st1" d="M2871.26,587.753c-12.179-34.237-27.361-67.047-45.269-98.093l-403.516,193.883
			c6.535,10.282,12.133,21.209,16.687,32.672L2871.26,587.753z"/>
		<path class="st1" d="M2339.582,190.358c-10.9-0.591-21.871-0.918-32.919-0.918h-80.433v403.096h30.807
			c6.519,0,12.96,0.337,19.316,0.958L2339.582,190.358z"/>
	</g>
</g>
</svg>
