<?xml version="1.0" encoding="utf-8"?>
<!-- Generator: Adobe Illustrator 26.0.3, SVG Export Plug-In . SVG Version: 6.00 Build 0)  -->
<svg version="1.1" id="Layer_1" xmlns="http://www.w3.org/2000/svg" xmlns:xlink="http://www.w3.org/1999/xlink" x="0px" y="0px"
	 viewBox="0 0 3839 467.7" style="enable-background:new 0 0 3839 467.7;" xml:space="preserve">
<style type="text/css">
	.st0{clip-path:url(#SVGID_00000018921580507165808050000000643555473928303292_);fill:#F02622;}
	.st1{clip-path:url(#SVGID_00000018921580507165808050000000643555473928303292_);fill:#DA221F;}
	.st2{fill:#FFFFFF;}
	.st3{fill:#034693;}
	.st4{clip-path:url(#SVGID_00000023966581230322292530000008119099176393335472_);fill:#FF0025;}
	.st5{clip-path:url(#SVGID_00000023966581230322292530000008119099176393335472_);fill:#E8001C;}
	.st6{clip-path:url(#SVGID_00000023966581230322292530000008119099176393335472_);fill:#DA221F;}
	.st7{clip-path:url(#SVGID_00000023966581230322292530000008119099176393335472_);fill:#F02622;}
	.st8{clip-path:url(#SVGID_00000036940208459730966790000004164010657718175402_);fill:#F02622;}
	.st9{clip-path:url(#SVGID_00000036940208459730966790000004164010657718175402_);fill:#DA221F;}
	.st10{fill:#B2B2B2;}
	.st11{clip-path:url(#SVGID_00000162321513744389222080000016536642128227110824_);fill:#FF0025;}
	.st12{clip-path:url(#SVGID_00000162321513744389222080000016536642128227110824_);fill:#E8001C;}
	.st13{clip-path:url(#SVGID_00000162321513744389222080000016536642128227110824_);fill:#DA221F;}
	.st14{clip-path:url(#SVGID_00000162321513744389222080000016536642128227110824_);fill:#F02622;}
	.st15{clip-path:url(#SVGID_00000076601934267103880720000015624746624153810103_);fill:#FAD512;}
	.st16{clip-path:url(#SVGID_00000076601934267103880720000015624746624153810103_);fill:#FEBB09;}
	.st17{fill:#DA221F;}
	.st18{clip-path:url(#SVGID_00000119119184081575991580000016443171868149295792_);fill:#FAD512;}
	.st19{clip-path:url(#SVGID_00000119119184081575991580000016443171868149295792_);fill:#E8001C;}
	.st20{clip-path:url(#SVGID_00000119119184081575991580000016443171868149295792_);fill:#FEBB09;}
	.st21{clip-path:url(#SVGID_00000003820605351413155790000000402473503979795856_);fill:#FAD512;}
	.st22{clip-path:url(#SVGID_00000003820605351413155790000000402473503979795856_);fill:#FEBB09;}
	.st23{clip-path:url(#SVGID_00000008119782589925644850000015208456032529897637_);fill:#FF0025;}
	.st24{clip-path:url(#SVGID_00000008119782589925644850000015208456032529897637_);fill:#E8001C;}
	.st25{clip-path:url(#SVGID_00000008119782589925644850000015208456032529897637_);fill:#008ED6;}
	.st26{clip-path:url(#SVGID_00000008119782589925644850000015208456032529897637_);fill:#00A1F2;}
	.st27{clip-path:url(#SVGID_00000171704690007552088880000005751559099014878392_);fill:#FF0025;}
	.st28{clip-path:url(#SVGID_00000171704690007552088880000005751559099014878392_);fill:#E8001C;}
	.st29{clip-path:url(#SVGID_00000171704690007552088880000005751559099014878392_);fill:#008ED6;}
	.st30{clip-path:url(#SVGID_00000171704690007552088880000005751559099014878392_);fill:#00A1F2;}
	.st31{display:none;}
	.st32{display:inline;}
	.st33{clip-path:url(#SVGID_00000167390584389942117980000005632052968447379386_);fill:#F02622;}
	.st34{clip-path:url(#SVGID_00000167390584389942117980000005632052968447379386_);fill:#DA221F;}
	.st35{clip-path:url(#SVGID_00000120545606577941961730000013957291760448702378_);fill:#FF0025;}
	.st36{clip-path:url(#SVGID_00000120545606577941961730000013957291760448702378_);fill:#E8001C;}
	.st37{clip-path:url(#SVGID_00000120545606577941961730000013957291760448702378_);fill:#DA221F;}
	.st38{clip-path:url(#SVGID_00000120545606577941961730000013957291760448702378_);fill:#F02622;}
	.st39{clip-path:url(#SVGID_00000044870781728556105310000005503869860263679376_);fill:#F02622;}
	.st40{clip-path:url(#SVGID_00000044870781728556105310000005503869860263679376_);fill:#DA221F;}
	.st41{clip-path:url(#SVGID_00000162312344038890135380000006378326799268757632_);fill:#FF0025;}
	.st42{clip-path:url(#SVGID_00000162312344038890135380000006378326799268757632_);fill:#E8001C;}
	.st43{clip-path:url(#SVGID_00000162312344038890135380000006378326799268757632_);fill:#DA221F;}
	.st44{clip-path:url(#SVGID_00000162312344038890135380000006378326799268757632_);fill:#F02622;}
	.st45{clip-path:url(#SVGID_00000074403055796574513410000005416498358024837806_);fill:#FAD512;}
	.st46{clip-path:url(#SVGID_00000074403055796574513410000005416498358024837806_);fill:#FEBB09;}
	.st47{clip-path:url(#SVGID_00000183208813226624778140000016661831481564506274_);fill:#FAD512;}
	.st48{clip-path:url(#SVGID_00000183208813226624778140000016661831481564506274_);fill:#E8001C;}
	.st49{clip-path:url(#SVGID_00000183208813226624778140000016661831481564506274_);fill:#FEBB09;}
	.st50{clip-path:url(#SVGID_00000097460794855408720620000006214629637154968511_);fill:#FF0025;}
	.st51{clip-path:url(#SVGID_00000097460794855408720620000006214629637154968511_);fill:#E8001C;}
	.st52{clip-path:url(#SVGID_00000097460794855408720620000006214629637154968511_);fill:#FF981D;}
	.st53{clip-path:url(#SVGID_00000097460794855408720620000006214629637154968511_);fill:#FFAF22;}
	.st54{clip-path:url(#SVGID_00000097460794855408720620000006214629637154968511_);fill:#FAD512;}
	.st55{clip-path:url(#SVGID_00000097460794855408720620000006214629637154968511_);fill:#FEBB09;}
	.st56{clip-path:url(#SVGID_00000170998510712706637170000010284473397944093354_);fill:#FF0025;}
	.st57{clip-path:url(#SVGID_00000170998510712706637170000010284473397944093354_);fill:#E8001C;}
	.st58{clip-path:url(#SVGID_00000170998510712706637170000010284473397944093354_);fill:#008ED6;}
	.st59{clip-path:url(#SVGID_00000170998510712706637170000010284473397944093354_);fill:#00A1F2;}
	.st60{clip-path:url(#SVGID_00000059997649240116798240000014790416343521340570_);fill:#FF0025;}
	.st61{clip-path:url(#SVGID_00000059997649240116798240000014790416343521340570_);fill:#E8001C;}
	.st62{clip-path:url(#SVGID_00000059997649240116798240000014790416343521340570_);fill:#008ED6;}
	.st63{clip-path:url(#SVGID_00000059997649240116798240000014790416343521340570_);fill:#00A1F2;}
</style>
<g>
	<g>
		<g>
			<g>
				<path d="M639.8,233.2v8.1c-7.5,1.2-14.3,5.8-14.3,18.5v113.8c0,9.2,3.8,12.7,13.5,14.4v8.1c-47.3,20.8-163,64.7-292.9,64.7
					c-172.7,0-324.4-65.9-324.4-216C21.8,94.5,199,28.7,355.2,28.7c61.6,0,120.2,11,163,21.4c39.8,13.3,69.1,23.7,74.3,23.7
					c6.8,0,13.5-2.9,16.5-6.4l10.5,3.5l-72.8,94.7l-10.5-5.2c0.7-2.3,1.5-5.8,1.5-9.8c0-17.9-81.1-53.7-181-53.7
					c-126.2,0-228.3,47.9-228.3,145.6c0,102.3,102.1,150.2,217.8,150.2c94.6,0,150.2-24.8,172.7-37.6v-47.9H389.7
					c-15,0-24,5.8-24,13.9h-10.5V219.3h10.5c0,8.1,9,13.9,24,13.9H639.8z"/>
				<path d="M695.4,446.9c16.5,0,19.5-4.6,19.5-17.3V59.9c0-12.7-3-17.3-19.5-17.3v-8.1h487.4c18,0,25.5-4.6,25.5-12.7h10.5v95.9
					h-10.5c0-10.4-7.5-15-25.5-15H821.5v102.8h235.8c18,0,25.5-4.6,25.5-15h10.5v97h-10.5c0-4.6-1.5-8.1-6-10.4
					c-3.8-2.3-10.5-3.5-19.5-3.5H821.5v113.2h368c18,0,25.5-4.6,25.5-13.9h10.5v94.7h-10.5c0-8.1-7.5-12.7-25.5-12.7H695.4V446.9z"
					/>
				<path d="M1841.4,429.6c0,12.7,5.3,17.3,20.3,17.3v8.1h-138.9v-8.1c7.5,0,15-1.2,15-4.6c0-5.2-4.5-7.5-14.3-15.6l-337.9-279
					v281.9c0,12.7,3.8,17.3,20.3,17.3v8.1h-132.9v-8.1c16.5,0,18-4.6,18-17.3V59.9c0-12.7-1.5-17.3-18-17.3v-8.1h160v8.1
					c-14.3,0-20.3,2.3-20.3,7.5c0,1.7,3,4.6,8.3,8.7L1746.8,325V59.9c0-12.7-1.5-17.3-19.5-17.3v-8.1h134.4v8.1
					c-15,0-20.3,4.6-20.3,17.3V429.6z"/>
				<path d="M1927.8,446.9c16.5,0,19.5-4.6,19.5-17.3V59.9c0-12.7-3-17.3-19.5-17.3v-8.1h487.4c18,0,25.5-4.6,25.5-12.7h10.5v95.9
					h-10.5c0-10.4-7.5-15-25.5-15h-361.2v102.8h235.8c18,0,25.5-4.6,25.5-15h10.5v97h-10.5c0-4.6-1.5-8.1-6-10.4
					c-3.8-2.3-10.5-3.5-19.5-3.5h-235.8v113.2h368c18,0,25.5-4.6,25.5-13.9h10.5v94.7h-10.5c0-8.1-7.5-12.7-25.5-12.7h-494.1V446.9z
					"/>
				<path d="M2982.1,158.1l-12-5.2c0.8-2.3,1.5-5.2,1.5-8.1c0-7.5-70.6-47.9-193-47.9c-117.2,0-167.5,27.7-167.5,63.5
					c0,94.7,442.3-43.9,442.3,165.2c0,76.2-96.1,135.2-288.4,135.2c-183.2,0-235.8-45.1-253.1-45.1c-4.5,0-6.8,2.9-10.5,4.6
					l-9.8-1.7l62.3-98.2l12,4.6c0,2.3-1.5,4.6-1.5,9.2c0,34.1,96.9,58.3,193,58.3c136.7,0,183.2-30,183.2-61.8
					c0-113.2-436.3,27.1-436.3-164.6c0-97.1,132.9-137.5,278.6-137.5c130.7,0,222.3,43.9,231.3,43.9c9.8,0,11.3-2.3,13.5-4l12,2.9
					L2982.1,158.1z"/>
				<path d="M3218.7,429.6c0,12.7,3.8,17.3,27.8,17.3v8.1H3085v-8.1c24,0,27-4.6,27-17.3V59.9c0-12.7-3-17.3-27-17.3v-8.1h161.5v8.1
					c-24,0-27.8,4.6-27.8,17.3V429.6z"/>
				<path d="M3767.7,158.1l-12-5.2c0.8-2.3,1.5-5.2,1.5-8.1c0-7.5-70.6-47.9-193-47.9c-117.2,0-167.5,27.7-167.5,63.5
					c0,94.7,442.3-43.9,442.3,165.2c0,76.2-96.1,135.2-288.4,135.2c-183.2,0-235.8-45.1-253.1-45.1c-4.5,0-6.8,2.9-10.5,4.6
					l-9.8-1.7l62.3-98.2l12,4.6c0,2.3-1.5,4.6-1.5,9.2c0,34.1,96.9,58.3,193,58.3c136.7,0,183.2-30,183.2-61.8
					c0-113.2-436.3,27.1-436.3-164.6c0-97.1,132.9-137.5,278.6-137.5c130.7,0,222.3,43.9,231.3,43.9c9.8,0,11.3-2.3,13.5-4l12,2.9
					L3767.7,158.1z"/>
			</g>
		</g>
		<g>
			<path class="st10" d="M618.1,211.4v8.1c-7.5,1.2-14.3,5.8-14.3,18.5v113.8c0,9.2,3.8,12.7,13.5,14.4v8.1
				C570,395.1,454.3,439,324.4,439C151.7,439,0,373.2,0,223C0,72.8,177.2,6.9,333.4,6.9c61.6,0,120.2,11,163,21.4
				C536.2,41.6,565.5,52,570.7,52c6.8,0,13.5-2.9,16.5-6.4l10.5,3.5l-72.8,94.7l-10.5-5.2c0.7-2.3,1.5-5.8,1.5-9.8
				c0-17.9-81.1-53.7-181-53.7c-126.2,0-228.3,47.9-228.3,145.6c0,102.3,102.1,150.2,217.8,150.2c94.6,0,150.2-24.8,172.7-37.6
				v-47.9H368c-15,0-24,5.8-24,13.9h-10.5V197.6h10.5c0,8.1,9,13.9,24,13.9H618.1z"/>
			<path class="st10" d="M673.6,425.2c16.5,0,19.5-4.6,19.5-17.3V38.1c0-12.7-3-17.3-19.5-17.3v-8.1H1161c18,0,25.5-4.6,25.5-12.7
				h10.5v95.9h-10.5c0-10.4-7.5-15-25.5-15H799.8v102.8h235.8c18,0,25.5-4.6,25.5-15h10.5v97h-10.5c0-4.6-1.5-8.1-6-10.4
				c-3.8-2.3-10.5-3.5-19.5-3.5H799.8v113.2h368c18,0,25.5-4.6,25.5-13.9h10.5v94.7h-10.5c0-8.1-7.5-12.7-25.5-12.7H673.6V425.2z"/>
			<path class="st10" d="M1819.6,407.8c0,12.7,5.3,17.3,20.3,17.3v8.1H1701v-8.1c7.5,0,15-1.2,15-4.6c0-5.2-4.5-7.5-14.3-15.6
				l-337.9-279v281.9c0,12.7,3.8,17.3,20.3,17.3v8.1h-132.9v-8.1c16.5,0,18-4.6,18-17.3V38.1c0-12.7-1.5-17.3-18-17.3v-8.1h160v8.1
				c-14.3,0-20.3,2.3-20.3,7.5c0,1.7,3,4.6,8.3,8.7L1725,303.3V38.1c0-12.7-1.5-17.3-19.5-17.3v-8.1h134.4v8.1
				c-15,0-20.3,4.6-20.3,17.3V407.8z"/>
			<path class="st10" d="M1906,425.2c16.5,0,19.5-4.6,19.5-17.3V38.1c0-12.7-3-17.3-19.5-17.3v-8.1h487.4c18,0,25.5-4.6,25.5-12.7
				h10.5v95.9h-10.5c0-10.4-7.5-15-25.5-15h-361.2v102.8H2268c18,0,25.5-4.6,25.5-15h10.5v97h-10.5c0-4.6-1.5-8.1-6-10.4
				c-3.8-2.3-10.5-3.5-19.5-3.5h-235.8v113.2h368c18,0,25.5-4.6,25.5-13.9h10.5v94.7h-10.5c0-8.1-7.5-12.7-25.5-12.7H1906V425.2z"/>
			<path class="st10" d="M2960.4,136.3l-12-5.2c0.8-2.3,1.5-5.2,1.5-8.1c0-7.5-70.6-47.9-193-47.9c-117.2,0-167.5,27.7-167.5,63.5
				c0,94.7,442.3-43.9,442.3,165.2c0,76.2-96.1,135.2-288.4,135.2c-183.2,0-235.8-45.1-253.1-45.1c-4.5,0-6.8,2.9-10.5,4.6l-9.8-1.7
				l62.3-98.2l12,4.6c0,2.3-1.5,4.6-1.5,9.2c0,34.1,96.9,58.3,193,58.3c136.7,0,183.2-30,183.2-61.8c0-113.2-436.3,27.1-436.3-164.6
				c0-97.1,132.9-137.5,278.6-137.5c130.7,0,222.3,43.9,231.3,43.9c9.8,0,11.3-2.3,13.5-4l12,2.9L2960.4,136.3z"/>
			<path class="st10" d="M3196.9,407.8c0,12.7,3.8,17.3,27.8,17.3v8.1h-161.5v-8.1c24,0,27-4.6,27-17.3V38.1c0-12.7-3-17.3-27-17.3
				v-8.1h161.5v8.1c-24,0-27.8,4.6-27.8,17.3V407.8z"/>
			<path class="st10" d="M3745.9,136.3l-12-5.2c0.8-2.3,1.5-5.2,1.5-8.1c0-7.5-70.6-47.9-193-47.9c-117.2,0-167.5,27.7-167.5,63.5
				c0,94.7,442.3-43.9,442.3,165.2c0,76.2-96.1,135.2-288.4,135.2c-183.2,0-235.8-45.1-253.1-45.1c-4.5,0-6.8,2.9-10.5,4.6l-9.8-1.7
				l62.3-98.2l12,4.6c0,2.3-1.5,4.6-1.5,9.2c0,34.1,96.9,58.3,193,58.3c136.7,0,183.2-30,183.2-61.8c0-113.2-436.3,27.1-436.3-164.6
				c0-97.1,132.9-137.5,278.6-137.5c130.7,0,222.3,43.9,231.3,43.9c9.8,0,11.3-2.3,13.5-4l12,2.9L3745.9,136.3z"/>
		</g>
	</g>
</g>
</svg>
