<?xml version="1.0" encoding="utf-8"?>
<!-- Generator: Adobe Illustrator 26.0.3, SVG Export Plug-In . SVG Version: 6.00 Build 0)  -->
<svg version="1.1" id="Layer_1" xmlns="http://www.w3.org/2000/svg" xmlns:xlink="http://www.w3.org/1999/xlink" x="0px" y="0px"
	 viewBox="0 0 3839 793.5" style="enable-background:new 0 0 3839 793.5;" xml:space="preserve">
<style type="text/css">
	.st0{display:none;}
	.st1{display:inline;}
	.st2{fill:url(#SVGID_1_);}
	.st3{fill:url(#SVGID_00000166635987686305842250000005685372678309450642_);}
	.st4{clip-path:url(#SVGID_00000179621881096668732690000002364884670561080478_);}
	.st5{clip-path:url(#SVGID_00000016768087594558228600000017105755810980444844_);fill:none;}
	.st6{fill:none;}
	.st7{fill:url(#SVGID_00000115488688492445437810000008379374458598019210_);}
	.st8{clip-path:url(#SVGID_00000035497173921808215120000016822361585080406932_);}
	.st9{clip-path:url(#SVGID_00000060006863219492252770000008841707684229040041_);}
	.st10{clip-path:url(#SVGID_00000114055376941935244210000011866362374729696671_);}
	.st11{fill:url(#SVGID_00000147185702366664548330000012231851435342426549_);}
	.st12{fill:url(#SVGID_00000133500647148638951230000015395060903108953020_);}
	.st13{clip-path:url(#SVGID_00000061437667079051994350000014671955433887190189_);}
	.st14{clip-path:url(#SVGID_00000089566291088229201090000002783556449616799921_);fill:none;}
	.st15{fill:url(#SVGID_00000031169283931990073380000011013154001468764607_);}
	.st16{clip-path:url(#SVGID_00000116218043926017996510000001607812570059408827_);}
	.st17{clip-path:url(#SVGID_00000039850237958692400130000013811072442196582795_);}
	.st18{clip-path:url(#SVGID_00000105414392863477035900000013426454756146082984_);}
	.st19{fill:#FFFFFF;}
	.st20{fill:url(#SVGID_00000139271077699553949140000007714444298039732129_);}
	.st21{fill:url(#SVGID_00000052788543027646055360000004771267664979555484_);}
	.st22{clip-path:url(#SVGID_00000098908553481855662250000014769838971536278970_);fill:#FFFFFF;}
	.st23{clip-path:url(#SVGID_00000124881519825311808980000013191197508047079820_);fill:none;}
	.st24{fill:url(#SVGID_00000043427878561859444470000007682524946176190897_);}
	.st25{clip-path:url(#SVGID_00000173870958851980071390000000499376542168780171_);fill:#FFFFFF;}
	.st26{clip-path:url(#SVGID_00000018232434488549466560000011574161812171365268_);fill:#FFFFFF;}
	.st27{clip-path:url(#SVGID_00000147925954790426479570000005900242632201896379_);}
	.st28{clip-path:url(#SVGID_00000147925954790426479570000005900242632201896379_);fill:#FFFFFF;}
	.st29{fill:url(#SVGID_00000138544423148211694720000017093675557722628770_);}
	.st30{fill:url(#SVGID_00000128451434921720763530000005355585418923144858_);}
	.st31{clip-path:url(#SVGID_00000083795437135968765350000007732849573328527550_);fill:#FFFFFF;}
	.st32{clip-path:url(#SVGID_00000078045952260139384490000001548550220941195666_);fill:none;}
	.st33{fill:url(#SVGID_00000050657195977866115410000000093930281333658029_);}
	.st34{clip-path:url(#SVGID_00000161607615333540668190000006810067469609514681_);fill:#FFFFFF;}
	.st35{clip-path:url(#SVGID_00000007412834371900203590000004059900957782556553_);fill:#FFFFFF;}
	.st36{clip-path:url(#SVGID_00000018203812858917678490000016636233773241198489_);}
	.st37{clip-path:url(#SVGID_00000018203812858917678490000016636233773241198489_);fill:#FFFFFF;}
	.st38{clip-path:url(#SVGID_00000089538415738194739970000002943778151610393015_);}
	.st39{clip-path:url(#SVGID_00000029040589695745403180000017638509631381072293_);}
	.st40{clip-path:url(#SVGID_00000140729220941685095410000003584773235995622571_);}
	.st41{clip-path:url(#SVGID_00000019639805119722062420000007079190053450760890_);}
	.st42{clip-path:url(#SVGID_00000114054981614334410150000000130237158512096144_);}
	.st43{clip-path:url(#SVGID_00000134214969119544010430000013319444551894360718_);}
	.st44{clip-path:url(#SVGID_00000063604742070236753480000004973765414213483422_);fill:#FFFFFF;}
	.st45{clip-path:url(#SVGID_00000026869932263563571880000014675727574086857917_);fill:#FFFFFF;}
	.st46{clip-path:url(#SVGID_00000022535740626162681420000002123678504407710345_);}
	.st47{clip-path:url(#SVGID_00000022535740626162681420000002123678504407710345_);fill:#FFFFFF;}
	.st48{clip-path:url(#SVGID_00000107586587941215482570000018437032422708566692_);fill:#FFFFFF;}
	.st49{clip-path:url(#SVGID_00000000901892253377293370000004819394885666671291_);fill:#FFFFFF;}
	.st50{clip-path:url(#SVGID_00000109735852840207368310000002565017876444914865_);}
	.st51{clip-path:url(#SVGID_00000109735852840207368310000002565017876444914865_);fill:#FFFFFF;}
	.st52{fill:url(#SVGID_00000169556258227054231950000012798611855812609445_);}
	.st53{fill:url(#SVGID_00000134230611432090376450000012667202717775354032_);}
	.st54{clip-path:url(#SVGID_00000072241951718203751240000006800673684060241065_);}
	.st55{clip-path:url(#SVGID_00000136408668687344375970000017523915322726372761_);fill:none;}
	.st56{fill:url(#SVGID_00000011006427045489808200000003510626491921324707_);}
	.st57{fill:url(#SVGID_00000018221608679665160460000013727575777782778267_);}
	.st58{clip-path:url(#SVGID_00000029019180597557753500000002133673015511590275_);}
	.st59{clip-path:url(#SVGID_00000034810531591567718160000018076468919066782850_);fill:none;}
	.st60{fill:url(#SVGID_00000168101488548979579470000009678941474515621266_);}
	.st61{clip-path:url(#SVGID_00000041260974272532971190000003171851227469211583_);}
	.st62{clip-path:url(#SVGID_00000039096798300175941790000008892007764669597357_);}
	.st63{clip-path:url(#SVGID_00000134943418612333647360000000834541155338817693_);}
	.st64{fill:url(#SVGID_00000142140553863123001810000006529600520345807036_);}
	.st65{clip-path:url(#SVGID_00000090291842979617849190000005623161997646292104_);}
	.st66{clip-path:url(#SVGID_00000041988334869023455330000007266996819027951542_);}
	.st67{clip-path:url(#SVGID_00000063594466106378577000000016443168337502868879_);}
	.st68{clip-path:url(#SVGID_00000132783010846846306670000001758284861635514015_);}
	.st69{clip-path:url(#SVGID_00000093145999276488394770000001491994626923768219_);}
	.st70{clip-path:url(#SVGID_00000124884245128726132760000002844162819677165983_);}
	.st71{fill:url(#SVGID_00000073715134591934272160000018006473981589133231_);}
	.st72{clip-path:url(#SVGID_00000086669150410691208880000005650377202059447465_);}
	.st73{clip-path:url(#SVGID_00000116230681560549569420000004861695487050379953_);}
	.st74{clip-path:url(#SVGID_00000176743031341518939560000004534187662826976688_);}
	.st75{fill:url(#SVGID_00000041976361876785060800000004732223836764348558_);}
	.st76{fill:url(#SVGID_00000114038563915949252990000002266102832565844611_);}
	.st77{clip-path:url(#SVGID_00000059276270356331771240000015179565145862358914_);}
	.st78{clip-path:url(#SVGID_00000155113439143710554430000013606693981455422105_);fill:none;}
	.st79{clip-path:url(#SVGID_00000145770281861075984080000000422529126049062587_);}
	.st80{clip-path:url(#SVGID_00000049932782186245230270000000526860564465014941_);}
	.st81{clip-path:url(#SVGID_00000039114521343497918700000013792895344513236668_);}
	.st82{fill:url(#SVGID_00000175294048981697037150000011236450676628441011_);}
	.st83{clip-path:url(#SVGID_00000162335449712155121720000007331163111960326301_);}
	.st84{clip-path:url(#SVGID_00000049198754124023135570000009824990214414849957_);}
	.st85{clip-path:url(#SVGID_00000075842466629167420070000008738734724702659206_);}
	.st86{clip-path:url(#SVGID_00000003079717975752370350000008295590107283571621_);}
	.st87{clip-path:url(#SVGID_00000101103181478587301650000003394439669830675895_);}
	.st88{clip-path:url(#SVGID_00000157288279371947401160000011077081937314451085_);}
	.st89{clip-path:url(#SVGID_00000070097018668989100050000003244680758712681372_);}
	.st90{clip-path:url(#SVGID_00000084516513344234736870000013553662001465517242_);}
	.st91{clip-path:url(#SVGID_00000054252787808557523620000005950614067107967128_);}
	.st92{fill:url(#SVGID_00000136375448457530324820000006501375188134837156_);}
	.st93{clip-path:url(#SVGID_00000008844502730687357560000004415066044756735633_);}
	.st94{clip-path:url(#SVGID_00000139295384827914585830000002638390211416880265_);}
	.st95{clip-path:url(#SVGID_00000023244251346982644290000016583921783803003311_);}
	.st96{clip-path:url(#SVGID_00000028300819699694386670000010738555536864294806_);}
	.st97{clip-path:url(#SVGID_00000037660186853884943260000007296922624983251585_);fill:#FFFFFF;}
	.st98{clip-path:url(#SVGID_00000171677769985972844290000007864439453222763918_);}
	.st99{clip-path:url(#SVGID_00000038407051124012000960000008370664712513817013_);}
	.st100{clip-path:url(#SVGID_00000071535204174412422160000016287260178630434183_);fill:#FFFFFF;}
	.st101{clip-path:url(#SVGID_00000152959108420424389500000013408211345585199035_);}
	.st102{fill:url(#SVGID_00000156560698652027983910000006374880421711802548_);}
	.st103{fill:url(#SVGID_00000078734474841845544220000017436990347050842041_);}
	.st104{clip-path:url(#SVGID_00000152259648909310460340000010692444308891453327_);}
	.st105{clip-path:url(#SVGID_00000122678597864923686330000009325159925139295164_);fill:none;}
	.st106{clip-path:url(#SVGID_00000038409526729246874600000003585234716136087964_);}
	.st107{clip-path:url(#SVGID_00000055702238521478927530000003270201066730605197_);}
	.st108{clip-path:url(#SVGID_00000139275205883317395540000018288795552351377332_);}
	.st109{fill:url(#SVGID_00000090259749305998860600000011927747790546378943_);}
	.st110{fill:url(#SVGID_00000178192047249378116840000013903151147181061779_);}
	.st111{fill:url(#SVGID_00000034081085920929753490000008150939557502139046_);}
	.st112{clip-path:url(#SVGID_00000010993863294054186660000005142461875944116360_);}
	.st113{clip-path:url(#SVGID_00000124128755511405061660000008639537126321322134_);fill:none;}
	.st114{fill:url(#SVGID_00000008833479000450798110000017530782468294137491_);}
	.st115{fill:url(#SVGID_00000147196478283563040390000006354150661000395670_);}
	.st116{clip-path:url(#SVGID_00000099631573037603156870000013928533635982455734_);}
	.st117{clip-path:url(#SVGID_00000165953313584063337880000008183169231565036185_);fill:none;}
	.st118{clip-path:url(#SVGID_00000043423994359162645060000015340741417502526885_);}
	.st119{clip-path:url(#SVGID_00000170237188538493076270000016272489578577881259_);}
	.st120{clip-path:url(#SVGID_00000069388962539095856900000011392995384784698524_);}
	.st121{fill:url(#SVGID_00000150814530133942459790000009412811647150739616_);}
	.st122{fill:url(#SVGID_00000011007918694203256700000013759111140562193561_);}
	.st123{fill:url(#SVGID_00000030445022131707180560000001633297218729714868_);}
	.st124{clip-path:url(#SVGID_00000116940835071884483800000012090913801535313796_);}
	.st125{clip-path:url(#SVGID_00000101063896333386915030000002293197635952622481_);fill:none;}
	.st126{clip-path:url(#SVGID_00000091016897026993604670000013514969417730614190_);}
	.st127{clip-path:url(#SVGID_00000163044687395943092580000000587720047087394976_);}
	.st128{clip-path:url(#SVGID_00000021807604010939306550000011279636793678002621_);}
	.st129{fill:url(#SVGID_00000037650605112778492120000007753860055880970652_);}
	.st130{fill:url(#SVGID_00000067936594625882071910000009070352775987045262_);}
	.st131{fill:url(#SVGID_00000108301701646346729480000015101671339166980785_);}
	.st132{clip-path:url(#SVGID_00000178898259935513231000000011124844269427412903_);}
	.st133{clip-path:url(#SVGID_00000124162836731614008470000013435238292783431081_);fill:none;}
	.st134{clip-path:url(#SVGID_00000159469837477366718590000002282483583823738525_);}
	.st135{clip-path:url(#SVGID_00000068640204648126598660000003631946318136594083_);}
	.st136{clip-path:url(#SVGID_00000140012464255194092650000009718290033390693005_);}
	.st137{fill:url(#SVGID_00000181075281261760342000000000520308703988154256_);}
	.st138{fill:url(#SVGID_00000140003334942337332460000015914117752024845237_);}
	.st139{fill:url(#SVGID_00000015344687479520922220000016597060242642751149_);}
	.st140{clip-path:url(#SVGID_00000090277540931670419050000011370311785872321942_);}
	.st141{clip-path:url(#SVGID_00000144306971582439614390000008024926523730902422_);fill:none;}
	.st142{clip-path:url(#SVGID_00000023997200944702473910000007734302824703171730_);}
	.st143{clip-path:url(#SVGID_00000116921220323309372570000010527686156716842414_);}
	.st144{clip-path:url(#SVGID_00000067196263355250858330000017348629084628822424_);}
	.st145{fill:url(#SVGID_00000068642796473314132630000013481703277261666973_);}
	.st146{fill:url(#SVGID_00000171001066864850858410000016340630503002324365_);}
	.st147{fill:url(#SVGID_00000157282073377506981730000011535107646833100178_);}
	.st148{clip-path:url(#SVGID_00000019671264810654383000000002360010534975727754_);}
	.st149{clip-path:url(#SVGID_00000094615547670534623140000004037206337413978511_);fill:none;}
	.st150{clip-path:url(#SVGID_00000163045447551513405010000011904470604288147328_);}
	.st151{clip-path:url(#SVGID_00000007413065467337157840000012587888794590901662_);fill:#FFFFFF;}
	.st152{clip-path:url(#SVGID_00000100348680632551802710000005637314351862820507_);}
	.st153{fill:url(#SVGID_00000098909130576242178260000016456420003818802561_);}
	.st154{fill:url(#SVGID_00000104682732343089481640000007252098434751848336_);}
	.st155{fill:url(#SVGID_00000034047232548345309990000002538211717272013717_);}
	.st156{clip-path:url(#SVGID_00000083080134506008817290000012615313632044074167_);fill:#FFFFFF;}
	.st157{clip-path:url(#SVGID_00000049932921092553882980000015965616059142467989_);fill:none;}
	.st158{clip-path:url(#SVGID_00000029009373773265463780000017421223352393671314_);}
	.st159{clip-path:url(#SVGID_00000007427922486882364460000008234761197270526875_);fill:#FFFFFF;}
	.st160{clip-path:url(#SVGID_00000120534073746796728930000004756303136497894076_);}
	.st161{fill:url(#SVGID_00000147940969432483955090000010242504790439682204_);}
	.st162{fill:url(#SVGID_00000106142148254242982340000003918423926125206922_);}
	.st163{fill:url(#SVGID_00000107550961768141220270000002006170633653840058_);}
	.st164{clip-path:url(#SVGID_00000008143171721741390610000011298544352205543056_);fill:#FFFFFF;}
	.st165{clip-path:url(#SVGID_00000152245544264875076910000014112290047913127604_);fill:none;}
</style>
<g class="st0">
	<g class="st1">
		<g>
			<g>
				
					<linearGradient id="SVGID_1_" gradientUnits="userSpaceOnUse" x1="6070.9736" y1="3359.5195" x2="6070.9736" y2="4153.0479" gradientTransform="matrix(1 0 0 -1 -4213.2275 4615.856)">
					<stop  offset="0" style="stop-color:#FFFFFF"/>
					<stop  offset="0.3809" style="stop-color:#FFFFFF"/>
					<stop  offset="0.4042" style="stop-color:#F4E7E9"/>
					<stop  offset="0.4844" style="stop-color:#D099A4"/>
					<stop  offset="0.5416" style="stop-color:#B96978"/>
					<stop  offset="0.5698" style="stop-color:#B05667"/>
					<stop  offset="0.7789" style="stop-color:#CE0033"/>
					<stop  offset="1" style="stop-color:#FD003E"/>
				</linearGradient>
				<path class="st2" d="M1921.8,469.1c3-1.5,6.5-3.2,10.5-5c13.2-6.2,23.7,12.3,11.6,20.5c-4.2,2.9-8,5.5-11.1,7.6
					c-38.8,27.2-72.7,59.2-72.7,167.4c0,135.9,112.5,268.4,112.5,366.9c0,76.4-21.6,146.5-191.1,228.7c-5.6,2.7-12.2,0.6-15.3-4.7
					l0,0c-3.3-5.7-1.1-13,4.6-16.1c67.7-36.2,87.6-111.2,84.7-175.6c-6-134-114.5-249.2-112.5-359.1
					C1744.2,634.1,1770.3,545.4,1921.8,469.1z"/>
				<path class="st19" d="M1815.9,1015.1c-9.6-3.6-29.1-13.9-41.4-41.1l-134.3-297.8c-5.7-12.7-23.5-13.2-29.9-0.9L1511,864.1
					c-5.1,9.8-15.3,15.9-26.3,15.9h-119.2h-4c-4,0-8,3.2-8.6,7.1c-0.8,5.1,2.9,9.5,7.8,9.9c33.1,3,53,25.1,52.7,60.8
					c-0.2,32.9-27.7,59.9-60.7,59.9h-8.6c-88.3,0-92.1-101.4-92.1-123.6c0-25.8,0-77.6,0-77.6c0-38.1,15.3-104.9,89.7-104.9
					c69.5,0,108.5,32,140.3,74.4c5.2,7,16.3,1.2,13.6-7.1l-27.9-87.4c-2.7-8.4-12.6-12.1-20.2-7.5c-20.5,12.6-32.5,10.5-32.5,10.5
					c-10.1,0.3-42.2-8.8-81.2-8.8c-62.2,0-112.5,24.7-146.9,57.9c-3.4,3.3-9.1,2.2-10.8-2.3l-20.7-50.3H967.6v-0.1h-92.2
					c-5.9,0-11.6-0.2-17.5-0.5c-31.6-1.7-142.6-7.5-199.4-7.5c-71.2,0-127,22.3-132.6,74.8c-4.2,39.5,23.2,60.1,38.9,74.5
					c8.5,7.8,48.5,33.1,69,42.6c21.4,9.9,106.8,52.7,98,86.6c-8.8,33.6-37.7,41.9-71,41.9c-52.3,0-108.4-43.3-150-82.1
					c-7.2-6.8-18.4,1.6-13.9,10.5c17.2,33.6,39.2,74.5,53.6,96.1c4.1,6.1,11.5,9.1,18.7,7.2c15.5-3.9,35.6-6,47.8-5.4
					c15.7,0.7,48.6,5,63,5c119.8,0,157.3-31.5,161.2-86.1c5.4-75.1-84.3-125.1-138.9-147c-48.8-19.7-67.7-49.3-65.6-64
					c3.4-25.5,27.7-29.8,48-29c63,2.4,181.8,33.1,181.8,76.3c0,0,0,192.1,0,200.5c0,11.2-12.2,31.4-27.7,31.4h-0.3
					c-2.8,0-5.6,1-7.6,3c-5.4,5.4-1.6,11.7,3.5,11.7h66.9l0,0h66.3h189.1c6.1,0,11.4-3.6,13.8-9.3l10.3-25.1c2-4.8,8.1-6.3,12-2.8
					c33.7,30.5,83.1,49.6,150.6,49.6c15.7,0,48.4-4.3,63.6-9.9c4.8-1.7,10-2.7,15.1-2.7h126.5h20.4c7.5,0,11.1-9.4,5.5-14.4
					c-2.5-2.2-4.7-4.2-6.3-5.7c-12-10.9-11.5-18.3-11.8-24.6c-0.3-6.2,1-12.3,3.9-17.9l89.6-170.2l76.6,169.9
					c2.6,5.7,3.8,11.9,3.3,18.1c-0.1,0.8-0.1,1.5-0.2,2.1c-1.4,8-8.6,24.2-22.1,24.2h-2.2c-3.3,0-6.6,1.1-9.1,3.3
					c-7.5,6.7-2.9,15.1,3.7,15.1h113.3c5.2,0,9.4-4.7,8.3-10.1C1821,1018.5,1818.8,1016.2,1815.9,1015.1z M1158.1,778.6
					c-15.4,24.3-23.8,50-23.8,72.6c0,30.1,5.6,59.6,17.3,86c2.6,5.8,1.4,12.6-3,17.1c-21.7,22-69.1,52.7-136.9,52.7h-16.6
					c-15.1,0-27.4-12.2-27.4-27.4v-92.3v-4.9c0-5.1,7.7-11.5,16.4-9.8c13.3,2.6,36.6,10.9,55.3,21.7c13.1,7.6,24.9,15.5,38.5,26.8
					c6,4.9,15,0.6,15-7.1v-29v-57.3v-29c0-7.7-9.1-12-15-7.1c-13.6,11.2-25.4,19.1-38.5,26.8c-18.6,10.7-42.7,22-55.9,25.1
					c-10.2,2.4-13.8-1.6-15.7-5.5v-5.6v-90.5c0-14.4,11.7-26.1,26.1-26.1h33.5c54.9,0,105.1,31.5,129.1,52.3
					C1159.5,770.6,1160.2,775.2,1158.1,778.6z"/>
				<path class="st19" d="M3715.9,694.9c-0.8-2.4-3.2-3.9-5.8-3.9h-26.3h-49.5H3608c-2.6,0-4.9,1.5-5.8,3.9
					c-1.1,3.3,0.7,6.6,3.7,7.6c9.5,3.1,32.2,13.1,32.2,36.9v143.1c0,5.5-6.4,8.4-10.6,4.9l-150.4-124.8
					c-46.9-39-113.4-64.9-157.3-79.1c-9.7-3.1-16.4,9.7-8.2,15.8c1.4,1.1,2.9,2.2,4.4,3.3c50.1,37.7,55.5,91.7,55.5,97.8v192.2v9.3
					c0,7.2-5.9,13.1-13.1,13.1c-16.8,0-54.3-27.3-73.5-47.3c-18-18.8-26.6-44.8-46.8-68.5c-16.1-18.8-29.7-25.8-29.7-25.8
					c101.1,0,104.1-82,104.1-91.2c0-13.7,0-91.6-126.6-91.6h-292.1h-49.7c-2.6,0-4.9,1.5-5.8,3.9c-1.1,3.3,0.7,6.7,3.7,7.6
					c9.5,3.1,32.2,13.1,32.2,36.9v180.1c0,62.2-43.5,83-78.4,83c-63.6,0-88-37.5-88-84.6v-27.3l0,0V739.2
					c0-23.9,22.7-33.9,32.2-36.9c2.5-0.8,4.1-3,4.1-5.6v-0.1c0-3.2-2.6-5.9-5.9-5.9h-114.1h-17.5h-229.9h-117.1
					c-7.1,0-13.7,4.1-16.8,10.5l-18.8,39c-3.2,6.7,4.4,13.3,10.6,9.2c25.2-17.1,67.6-36.7,129.6-39.1c6.8-0.2,12.4,5.2,12.4,12
					v246.9c0,11.7-4.3,20.8-10.2,27.7c-4.5,5.4-11.3,8.4-18.4,8.4h-15.2c-4.9,0-9.9-1.3-14.1-4.1c-9.7-6.3-18.8-15.1-24.4-27.5
					L2160.3,676c-5.8-12.7-23.5-13.2-29.9-0.9l-139.7,265.1l-40.3,76.4l2.8,14.6h40.5h7.2h88l0,0c7.5,0,11.1-9.4,5.5-14.4
					c0,0-0.1,0-0.1-0.1c-2.5-2.2-4.6-4.1-6.2-5.6c-11.9-10.7-11.5-18.1-11.8-24.4c-0.3-6.3,1-12.6,3.9-18.1l89.7-170.2l76.6,169.9
					c2.6,5.7,3.8,11.9,3.3,18.1c-0.1,0.8-0.1,1.5-0.2,2.1c-1.4,8-8.6,24.2-22.1,24.2h-0.2c-2.7,0-5.4,0.8-7.5,2.5
					c-8.8,6.8-4.1,15.9,2.7,15.9h112.9h6.6h89.2h26.3h53.9c4.6,0,8.6-3.5,8.8-8.1c0.2-3.7-2.1-7.2-5.5-8.4
					c-11.3-4.3-36.3-17.2-36.3-45.4V722.3c0-7,5.7-12.3,12.7-12c47.9,1.9,84.2,14,109.7,27.4c4.1,2.2,6.7,6.4,6.7,11v159.1h0.4
					c4.1,73.1,38.8,129.2,165.9,129.2c73.7,0,142.7-38.6,142.7-109.7c0-8.7,0-182.3,0-182.3c0-10.8,3.4-18.4,7.7-23.7
					c6.3-7.7,15.9-11.8,25.9-11.8h15c10,0,19.7,4.1,25.9,11.8c4.3,5.4,7.7,13,7.7,23.7v221c0,32.8-26,45.2-38.2,49.2
					c-2.9,0.9-5.2,3.3-5.9,6.4c-1,5.4,3,10.1,8.2,10.1h54.3h61.3h56.8c3.5,0,6.8-2.1,8-5.4c1.7-4.7-0.8-9.6-5.1-11
					c-11.9-3.9-38.5-16.3-38.5-49.3V756.5v-24.9c0-18.7,16.1-25.5,27.1-25.5h31.6c29.4,0,58.6,24.8,58.6,66.2
					c0,60.7-39.5,75.4-55.7,75.4c-10.8,0-19.2,0.2-28.2-3.1c0,0-0.1,0-0.1-0.1c-5.7-2.7-11.7,2.6-9.9,8.5c0.1,0.3,0.1,0.5,0.2,0.5
					c9.5,32.1,26.5,81.2,49.8,112.5c36.1,48.7,104.6,87.5,219.6,87.5h49.4c3.1,0,6-1.9,6.9-4.7c1.3-4-0.9-8-4.6-9.2
					c-9.9-3-30.9-11.9-30.9-34.3V843.7c0-5.5,6.4-8.4,10.6-4.9l238.7,198.2c6.9,5.7,17.2,0.8,17.2-8.1V739.5
					c0-23.9,22.7-33.9,32.2-36.9C3715.2,701.6,3717,698.3,3715.9,694.9z"/>
			</g>
			<g>
				
					<radialGradient id="SVGID_00000152237712392486608710000009047882723285299389_" cx="4442.644" cy="3816.0151" r="224.4318" fx="4444.4375" fy="3812.8784" gradientTransform="matrix(1 0 0 -1 -4213.2275 4615.856)" gradientUnits="userSpaceOnUse">
					<stop  offset="0" style="stop-color:#FFFFFF"/>
					<stop  offset="0.1072" style="stop-color:#E1E7F2"/>
					<stop  offset="0.4368" style="stop-color:#88A1CC"/>
					<stop  offset="0.7055" style="stop-color:#476EB0"/>
					<stop  offset="0.8997" style="stop-color:#1E4E9F"/>
					<stop  offset="1" style="stop-color:#0F4298"/>
				</radialGradient>
				<circle style="fill:url(#SVGID_00000152237712392486608710000009047882723285299389_);" cx="181.1" cy="865.7" r="189.9"/>
				<g>
					<g>
						<defs>
							<path id="SVGID_00000125604013378927943350000006962794456490602926_" d="M86.4,942.7c25.3-6.2,50.6-12,75.9-18
								c25.4-6,50.3-13.6,75-22c24.4-8.3,48.5-17.7,72.9-25.5c20.3-6.5,41-12.4,60.5-21c-1.6-33.6-12-64.9-29-91.7
								c-21.8,6.3-44,11.6-66.1,17.3c-25.2,6.6-50.3,13.6-75.4,20.6c-24.6,6.8-49.3,13.6-73.8,20.5c-26.2,7.4-52.4,15.3-78.1,24.3
								c-11,3.8-22,7.4-33.1,10.8c-5.9,1.7-11.7,3.7-17.5,5.8c-2.2,0.7-4.3,1.4-6.5,2.2c0,35,9.5,67.7,26,95.9
								C40.1,954.5,63.1,948.3,86.4,942.7z"/>
						</defs>
						<clipPath id="SVGID_00000080203891051875842750000007565308557407861647_">
							<use xlink:href="#SVGID_00000125604013378927943350000006962794456490602926_"  style="overflow:visible;"/>
						</clipPath>
						<path style="clip-path:url(#SVGID_00000080203891051875842750000007565308557407861647_);fill:#FFFFFF;" d="M-23.3,1036.8
							c-9.2,0-18.1-0.2-26.9-0.6c-13.2-0.6-23.7-11.6-23.2-24.9c0.5-13.4,11.8-23.8,25.2-23c74.9,3.8,176.4-11,271.4-39.5
							c92.9-28,166.2-64.5,196-97.8c3.5-3.9,8.6-10.3,10.9-16.8c1.5-4.4-1.2-9.2-5.9-10c-10-1.6-32.3-1.9-80.4,9.7
							c-51,12.2-114.5,33.3-175.8,53.8c-63.6,21.2-123.6,41.2-171.6,52.3c-48.3,11.1-99.6,17.6-114.6-18.7
							c-6-14.3-9.2-36.9,9.2-63.4c39.6-56.9,160.9-100,229.7-120.6c103.1-31.1,213.1-49.4,280.1-46.8c13.3,0.5,23.6,11.6,23,24.9
							c-0.5,13.3-11.6,23.6-24.9,23c-62.1-2.4-166,15.1-264.6,44.7c-103.7,31.1-181.9,70.2-204,102c-1.1,1.6-2.1,3.2-2.8,4.6
							c-2.1,3.9-0.4,10.4,6.6,11c10.5,0.9,30.5-1.5,66.8-11.3c43.6-11.6,96.2-28.7,152-47.3C312.1,788.9,412,758.6,456,785.3
							c12.3,7.4,20.1,18.8,22.3,33c3.5,21.5-4.4,43.2-23.6,64.5c-36,40.2-115.4,81-217.9,111.7
							C146.4,1021.8,53.3,1036.8-23.3,1036.8z"/>
					</g>
					<g>
						<defs>
							<path id="SVGID_00000011742308297725745790000014751447442640781440_" d="M86.4,942.7c25.3-6.2,50.6-12,75.9-18
								c25.4-6,50.3-13.6,75-22c24.4-8.3,48.5-17.7,72.9-25.5c20.3-6.5,41-12.4,60.5-21c-1.6-33.6-12-64.9-29-91.7
								c-21.8,6.3-44,11.6-66.1,17.3c-25.2,6.6-50.3,13.6-75.4,20.6c-24.6,6.8-49.3,13.6-73.8,20.5c-26.2,7.4-52.4,15.3-78.1,24.3
								c-11,3.8-22,7.4-33.1,10.8c-5.9,1.7-11.7,3.7-17.5,5.8c-2.2,0.7-4.3,1.4-6.5,2.2c0,35,9.5,67.7,26,95.9
								C40.1,954.5,63.1,948.3,86.4,942.7z"/>
						</defs>
						<clipPath id="SVGID_00000127038007613679801200000011831801085295942795_">
							<use xlink:href="#SVGID_00000011742308297725745790000014751447442640781440_"  style="overflow:visible;"/>
						</clipPath>
						<path style="clip-path:url(#SVGID_00000127038007613679801200000011831801085295942795_);fill:none;" d="M-30.9,989.9
							c-22-37.6-33.6-80.5-33.6-124.1v-40.2l38.2-12.8c1-0.3,2.1-0.6,3-1c0.8-0.3,1.6-0.5,2.4-0.8c7.1-2.5,13.9-4.6,20.3-6.6
							c11.4-3.5,23-7.3,34.4-11.3c27-9.5,53.9-17.3,76.8-23.8c17.7-4.9,35.6-10,52.9-14.7c7.4-2.1,14.7-4.1,22.1-6.1l12-3.3
							c21-5.9,42.6-11.8,64.3-17.5c6.9-1.7,13.8-3.6,20.8-5.4c15.2-3.8,29.6-7.5,43.8-11.6l40.3-11.6l22.4,35.5
							c22.4,35.6,35.5,76.7,37.6,118.7l2,38.5l-35.4,15.4c-18.6,8.1-37,13.9-54.7,19.5c-3.7,1.1-7.3,2.4-11,3.5
							c-13.3,4.2-26.4,9.1-40.3,14c-10.3,3.7-21,7.6-31.8,11.2c-29.2,9.9-55.4,17.6-80.2,23.5c-8.5,2.1-17,4-25.5,6
							c-16.5,3.8-33.4,7.8-50,11.9c-26,6.4-46.9,12.1-65.6,18l-42.4,13.4L-30.9,989.9z"/>
					</g>
				</g>
				<g>
					<path class="st19" d="M-65.9,900.6c-7-0.6-8.6-7.1-6.6-11c0.7-1.4,1.6-3,2.8-4.6c10.1-14.6,32.1-30.7,62.9-46.9
						c3.3-22.4,10.4-43.5,20.8-62.7c-51,21.9-100.3,49.9-122.9,82.4c-18.3,26.4-15.1,49.1-9.2,63.4c15,36.3,66.4,29.8,114.6,18.7
						c2.9-0.7,5.8-1.4,8.8-2.1c-6-14.6-10.2-30.2-12.4-46.4C-38.4,899.4-56.2,901.5-65.9,900.6z"/>
					<path class="st19" d="M325.4,742.2c27.9-3.3,53-4.7,73.5-3.9c13.3,0.5,24.4-9.8,24.9-23c0.5-13.3-9.8-24.4-23-24.9
						c-33.2-1.3-76.9,2.6-125.1,10.6C294.5,711.8,311.3,725.8,325.4,742.2z"/>
					<path class="st19" d="M478.4,818.3c-2.3-14.2-10-25.6-22.3-33c-21.4-12.9-55.9-12.5-104-2.5c7,14.4,12.2,29.8,15.4,45.9
						c32.2-6.3,48.7-5.9,56.9-4.5c4.6,0.8,7.4,5.6,5.9,10c-2.3,6.5-7.4,12.9-10.9,16.8c-11,12.3-28,25.1-49.6,37.6
						c-2.7,22.7-9.4,44.2-19.4,63.7c47.1-21.9,83.4-45.7,104.5-69.4C473.9,861.5,481.9,839.8,478.4,818.3z"/>
					<path class="st6" d="M275.7,701c-27.8-16-60.1-25.2-94.6-25.2c-72.2,0-135,40.3-167.1,99.6C52.2,759,91.3,746,120.7,737.2
						C172.8,721.5,226.5,709.1,275.7,701z"/>
					<path class="st6" d="M-6.8,838.1c-1.3,9-2,18.3-2,27.7c0,8.7,0.6,17.3,1.7,25.6c2.6-0.7,5.2-1.3,7.9-2.1
						c43.6-11.6,96.2-28.7,152-47.3c82-27.3,148.2-48.6,199.2-59.2c-7.1-14.7-16.1-28.3-26.6-40.6c-56.6,6.6-125,21-191.1,40.8
						C78.2,799.8,29.5,819-6.8,838.1z"/>
				</g>
			</g>
		</g>
	</g>
	<g class="st1">
		<g>
			
				<linearGradient id="SVGID_00000175304306635088989460000008716353197256315568_" gradientUnits="userSpaceOnUse" x1="6070.9897" y1="4371.0366" x2="6070.9897" y2="5164.5581" gradientTransform="matrix(1 0 0 -1 -4213.2275 4615.856)">
				<stop  offset="0" style="stop-color:#FFFFFF"/>
				<stop  offset="0.3809" style="stop-color:#FFFFFF"/>
				<stop  offset="0.4042" style="stop-color:#F4E7E9"/>
				<stop  offset="0.4844" style="stop-color:#D099A4"/>
				<stop  offset="0.5416" style="stop-color:#B96978"/>
				<stop  offset="0.5698" style="stop-color:#B05667"/>
				<stop  offset="0.7789" style="stop-color:#CE0033"/>
				<stop  offset="1" style="stop-color:#FD003E"/>
			</linearGradient>
			<path style="fill:url(#SVGID_00000175304306635088989460000008716353197256315568_);" d="M1921.8-542.4c3-1.5,6.5-3.2,10.5-5
				c13.2-6.2,23.7,12.3,11.6,20.5c-4.2,2.9-8,5.5-11.1,7.6c-38.8,27.2-72.7,59.2-72.7,167.4c0,135.9,112.5,268.4,112.5,366.9
				c0,76.4-21.6,146.5-191.1,228.7c-5.6,2.7-12.2,0.6-15.3-4.7l0,0c-3.3-5.7-1.1-13,4.6-16.1c67.7-36.2,87.6-111.2,84.7-175.6
				c-6-134-114.5-249.2-112.5-359.1C1744.2-377.4,1770.3-466.1,1921.8-542.4z"/>
			<path class="st19" d="M1816,3.6c-9.6-3.6-29.1-13.9-41.4-41.1l-134.3-297.8c-5.7-12.7-23.5-13.2-29.9-0.9L1511-147.4
				c-5.1,9.8-15.3,15.9-26.3,15.9h-119.2h-4c-4,0-8,3.2-8.6,7.1c-0.8,5.1,2.9,9.5,7.8,9.9c33.1,3,53,25.1,52.7,60.8
				c-0.2,32.9-27.7,59.9-60.7,59.9h-8.6c-88.3,0-92.1-101.4-92.1-123.6c0-25.8,0-77.6,0-77.6c0-38.1,15.3-104.9,89.7-104.9
				c69.5,0,108.5,32,140.3,74.4c5.2,7,16.3,1.2,13.6-7.1l-27.9-87.4c-2.7-8.4-12.6-12.1-20.2-7.5c-20.5,12.6-32.5,10.5-32.5,10.5
				c-10.1,0.3-42.2-8.8-81.2-8.8c-62.2,0-112.5,24.7-146.9,57.9c-3.4,3.3-9.1,2.2-10.8-2.3l-20.7-50.3H967.6v-0.1h-92.2
				c-5.9,0-11.6-0.2-17.5-0.5c-31.6-1.7-142.6-7.5-199.4-7.5c-71.2,0-127,22.3-132.6,74.8c-4.2,39.5,23.2,60.1,38.9,74.5
				c8.5,7.8,48.5,33.1,69,42.6c21.4,9.9,106.8,52.7,98,86.6c-8.8,33.6-37.7,41.9-71,41.9c-52.3,0-108.4-43.3-150-82.1
				c-7.2-6.8-18.4,1.6-13.9,10.5c17.2,33.6,39.2,74.5,53.6,96.1c4.1,6.1,11.5,9.1,18.7,7.2c15.5-3.9,35.6-6,47.8-5.4
				c15.7,0.7,48.6,5,63,5c119.8,0,157.3-31.5,161.2-86.1c5.4-75.1-84.3-125.1-138.9-147c-48.8-19.7-67.7-49.3-65.6-64
				c3.4-25.5,27.7-29.8,48-29c63,2.4,181.8,33.1,181.8,76.3c0,0,0,192.1,0,200.5c0,11.2-12.2,31.4-27.7,31.4h-0.3
				c-2.8,0-5.6,1-7.6,3c-5.4,5.4-1.6,11.7,3.5,11.7h66.9l0,0h66.3h189.1c6.1,0,11.4-3.6,13.8-9.3l10.3-25.1c2-4.8,8.1-6.3,12-2.8
				c33.7,30.5,83.1,49.6,150.6,49.6c15.7,0,48.4-4.3,63.6-9.9c4.8-1.7,10-2.7,15.1-2.7h126.5h20.4c7.5,0,11.1-9.4,5.5-14.4
				c-2.5-2.2-4.7-4.2-6.3-5.7c-12-10.9-11.5-18.3-11.8-24.6c-0.3-6.2,1-12.3,3.9-17.9l89.6-170.2L1726.4-43
				c2.6,5.7,3.8,11.9,3.3,18.1c-0.1,0.8-0.1,1.5-0.2,2.1c-1.4,8-8.6,24.2-22.1,24.2h-2.2c-3.3,0-6.6,1.1-9.1,3.3
				c-7.5,6.7-2.9,15.1,3.7,15.1h113.3c5.2,0,9.4-4.7,8.3-10.1C1821,7,1818.8,4.6,1816,3.6z M1158.1-232.9
				c-15.4,24.3-23.8,50-23.8,72.6c0,30.1,5.6,59.6,17.3,86c2.6,5.8,1.4,12.6-3,17.1c-21.7,22-69.1,52.7-136.9,52.7h-16.6
				c-15.1,0-27.4-12.2-27.4-27.4v-92.3v-4.9c0-5.1,7.7-11.5,16.4-9.8c13.3,2.6,36.6,10.9,55.3,21.7c13.1,7.6,24.9,15.5,38.5,26.8
				c6,4.9,15,0.6,15-7.1v-29v-57.3v-29c0-7.7-9.1-12-15-7.1c-13.6,11.2-25.4,19.1-38.5,26.8c-18.6,10.7-42.7,22-55.9,25.1
				c-10.2,2.4-13.8-1.6-15.7-5.5v-5.6v-90.5c0-14.4,11.7-26.1,26.1-26.1h33.5c54.9,0,105,31.5,129.1,52.3
				C1159.5-241,1160.2-236.3,1158.1-232.9z"/>
			<path class="st19" d="M3715.9-316.6c-0.8-2.4-3.2-3.9-5.8-3.9h-26.3h-49.5H3608c-2.6,0-4.9,1.5-5.8,3.9c-1.1,3.3,0.7,6.6,3.7,7.6
				c9.5,3.1,32.2,13.1,32.2,36.9v143.1c0,5.5-6.4,8.4-10.6,4.9l-150.4-124.8c-46.9-39-113.4-64.9-157.3-79.1
				c-9.7-3.1-16.4,9.7-8.2,15.8c1.4,1.1,2.9,2.2,4.4,3.3c50.1,37.7,55.5,91.7,55.5,97.8v192.2v9.3c0,7.2-5.9,13.1-13.1,13.1
				c-16.8,0-54.3-27.3-73.5-47.3c-18-18.8-26.6-44.8-46.8-68.5c-16.1-18.8-29.7-25.8-29.7-25.8c101.1,0,104.1-82,104.1-91.2
				c0-13.7,0-91.6-126.6-91.6h-292.1h-49.7c-2.6,0-4.9,1.5-5.8,3.9c-1.1,3.3,0.7,6.7,3.7,7.6c9.5,3.1,32.2,13.1,32.2,36.9v180.1
				c0,62.2-43.5,83-78.4,83c-63.6,0-88-37.5-88-84.6v-27.3l0,0v-151.2c0-23.9,22.7-33.9,32.2-36.9c2.5-0.8,4.1-3,4.1-5.6v-0.1
				c0-3.2-2.6-5.9-5.9-5.9h-114.1h-17.5h-229.9h-117.1c-7.1,0-13.7,4.1-16.8,10.5l-18.8,39c-3.2,6.7,4.4,13.3,10.6,9.2
				c25.2-17.1,67.6-36.7,129.6-39.1c6.8-0.2,12.4,5.2,12.4,12v246.9c0,11.7-4.3,20.8-10.2,27.7c-4.5,5.4-11.3,8.4-18.4,8.4h-15.2
				c-4.9,0-9.9-1.3-14.1-4.1c-9.7-6.3-18.8-15.1-24.4-27.5l-134.3-297.8c-5.8-12.7-23.5-13.2-29.9-0.9L1990.7-71.3l-40.3,76.4
				l2.8,14.6h40.5h7.2h88l0,0c7.5,0,11.1-9.4,5.5-14.4c0,0-0.1,0-0.1-0.1c-2.5-2.2-4.6-4.1-6.2-5.6c-11.9-10.7-11.5-18.1-11.8-24.4
				c-0.3-6.3,1-12.6,3.9-18.1l89.7-170.2l76.5,169.9c2.6,5.7,3.8,11.9,3.3,18.1c-0.1,0.8-0.1,1.5-0.2,2.1c-1.4,8-8.6,24.2-22.1,24.2
				h-0.2c-2.7,0-5.4,0.8-7.5,2.5c-8.8,6.8-4.1,15.9,2.7,15.9h112.9h6.6h89.2h26.3h53.9c4.6,0,8.6-3.5,8.8-8.1
				c0.2-3.7-2.1-7.2-5.5-8.4c-11.3-4.3-36.3-17.2-36.3-45.4v-246.9c0-7,5.7-12.3,12.7-12c47.9,1.9,84.2,14,109.7,27.4
				c4.1,2.2,6.7,6.4,6.7,11v159.1h0.4c4.1,73.1,38.8,129.2,165.9,129.2c73.7,0,142.7-38.6,142.7-109.7c0-8.7,0-182.3,0-182.3
				c0-10.8,3.4-18.4,7.7-23.7c6.3-7.7,15.9-11.8,25.9-11.8h15c10,0,19.7,4.1,25.9,11.8c4.3,5.4,7.7,13,7.7,23.7v221
				c0,32.8-26,45.2-38.2,49.2c-2.9,0.9-5.2,3.3-5.9,6.4c-1,5.4,3,10.1,8.2,10.1h54.3h61.3h56.8c3.5,0,6.8-2.1,8-5.4
				c1.7-4.7-0.8-9.6-5.1-11c-11.9-3.9-38.5-16.3-38.5-49.3v-209.5V-280c0-18.7,16.1-25.5,27.1-25.5h31.6c29.4,0,58.6,24.8,58.6,66.2
				c0,60.7-39.5,75.4-55.7,75.4c-10.8,0-19.2,0.2-28.2-3.1c0,0-0.1,0-0.1-0.1c-5.7-2.7-11.7,2.6-9.9,8.5c0.1,0.3,0.1,0.5,0.2,0.5
				c9.5,32.1,26.5,81.2,49.8,112.5c36.1,48.7,104.6,87.5,219.6,87.5h49.4c3.1,0,6-1.9,6.9-4.7c1.3-4-0.9-8-4.6-9.2
				c-9.9-3-30.9-11.9-30.9-34.3v-161.5c0-5.5,6.4-8.4,10.6-4.9l238.7,198.2c6.9,5.7,17.2,0.8,17.2-8.1V-272
				c0-23.9,22.7-33.9,32.2-36.9C3715.2-309.9,3717-313.2,3715.9-316.6z"/>
		</g>
		<g>
			<g>
				<defs>
					<circle id="SVGID_00000130635527659135410900000009263783077671851674_" cx="181.2" cy="-145.8" r="190"/>
				</defs>
				<clipPath id="SVGID_00000181062999324285523520000000331758656996055740_">
					<use xlink:href="#SVGID_00000130635527659135410900000009263783077671851674_"  style="overflow:visible;"/>
				</clipPath>
				<polygon style="clip-path:url(#SVGID_00000181062999324285523520000000331758656996055740_);fill:#FFFFFF;" points="133.1,43.7 
					-20.2,-110.9 8.4,-51.5 102.4,40 				"/>
			</g>
			<g>
				<defs>
					<path id="SVGID_00000167384785726883627120000016377164598286586795_" d="M86.4-68.8c25.3-6.2,50.6-12,75.9-18
						c25.4-6,50.3-13.6,75-22c24.4-8.3,48.5-17.7,73-25.5c20.3-6.5,41-12.5,60.5-21c-1.6-33.7-12-64.9-29-91.7
						c-21.8,6.3-44,11.6-66.1,17.3c-25.2,6.6-50.3,13.6-75.4,20.6c-24.9,6.9-49.9,13.8-74.8,20.8c-24.7,7-49.3,14.2-73.5,22.7
						c-12.1,4.2-24.2,8.2-36.5,12c-6,1.9-12,3.7-17.9,5.9c-2.2,0.7-4.3,1.4-6.5,2.2c0,35,9.5,67.7,26,95.9
						C40.1-56.9,63.1-63.1,86.4-68.8z"/>
				</defs>
				<clipPath id="SVGID_00000018214080430597074830000001315586206122962085_">
					<use xlink:href="#SVGID_00000167384785726883627120000016377164598286586795_"  style="overflow:visible;"/>
				</clipPath>
				<path style="clip-path:url(#SVGID_00000018214080430597074830000001315586206122962085_);fill:#FFFFFF;" d="M-23.3,25.4
					c-9.2,0-18.1-0.2-26.9-0.6c-13.2-0.6-23.7-11.6-23.2-24.9c0.5-13.4,11.8-23.8,25.2-23.1c74.9,3.8,176.4-11,271.5-39.5
					c92.9-28,166.2-64.5,196-97.9c3.5-3.9,8.6-10.3,10.9-16.8c1.5-4.4-1.2-9.2-5.9-10c-10-1.6-32.3-1.9-80.4,9.7
					c-51,12.2-114.5,33.3-175.9,53.8C104.6-102.6,44.6-82.7-3.5-71.6C-51.7-60.4-103.1-54-118.1-90.3c-6-14.3-9.2-36.9,9.2-63.4
					c39.6-56.9,160.9-100,229.7-120.6c103.1-31.1,213.1-49.4,280.1-46.8c13.3,0.5,23.6,11.6,23.1,24.9
					c-0.5,13.3-11.6,23.6-24.9,23.1c-62.2-2.4-166,15.1-264.7,44.7c-103.7,31.1-181.9,70.2-204.1,102c-1.1,1.6-2.1,3.2-2.8,4.6
					c-2.1,3.9-0.4,10.4,6.6,11c10.5,0.9,30.5-1.5,66.8-11.3c43.6-11.6,96.2-28.7,152-47.3c159.3-53.1,259.2-83.4,303.3-56.7
					c12.3,7.4,20.1,18.8,22.3,33c3.5,21.5-4.4,43.2-23.6,64.5c-36,40.2-115.5,81-218,111.8C146.5,10.4,53.4,25.4-23.3,25.4z"/>
			</g>
			<g>
				<path class="st19" d="M34.2-25.4c-29.6,2.7-57.4,3.5-82.3,2.2c-13.4-0.7-24.7,9.7-25.2,23.1c-0.5,13.3,10,24.3,23.2,24.9
					c8.7,0.4,17.7,0.6,26.9,0.6c33.1,0,69.2-2.8,106.8-8.2C64.7,5.9,48-8.5,34.2-25.4z"/>
				<path class="st6" d="M83.5,17.2c28.5,17.1,61.9,27,97.7,27c73.8,0,137.7-42,169.2-103.4c-32.9,15.3-71.2,29.7-113.4,42.3
					C185.5-1.4,133.2,10.1,83.5,17.2z"/>
			</g>
			<g>
				<defs>
					<circle id="SVGID_00000018209500908856441950000014043634333791711385_" cx="181.2" cy="-145.8" r="190"/>
				</defs>
				<clipPath id="SVGID_00000181044879041790174480000014269783014353612472_">
					<use xlink:href="#SVGID_00000018209500908856441950000014043634333791711385_"  style="overflow:visible;"/>
				</clipPath>
				<g style="clip-path:url(#SVGID_00000181044879041790174480000014269783014353612472_);">
					<g>
						<path class="st19" d="M61.3-303.7c0,0,112.8,124.1,137.4,147.9C222.4-132.8,359.5-4.7,359.5-4.7l-9.9,16.4L40.9-295.1"/>
						<path class="st19" d="M41.3-288.2c0,0,114.1,124,138.7,147.8c23.7,22.9,159.4,151.6,159.4,151.6L328.6,27L21.4-279.2"/>
						<path class="st19" d="M21.2-272.7c0,0,115.3,123.9,139.9,147.7C184.8-102.1,319,27,319,27l-11.5,15.4L2-263.3"/>
						<path class="st19" d="M1.1-257.3c0,0,116.6,123.8,141.2,147.6C166-86.7,298.8,42.8,298.8,42.8l-12.3,14.9l-304-305.1"/>
						<path class="st19" d="M-18.9-241.8c0,0,117.8,123.7,142.4,147.5C147.2-71.4,278.5,58.6,278.5,58.6L265.5,73L-36.9-231.5"/>
						<path class="st19" d="M-39-226.4c0,0,119.1,123.7,143.7,147.4C128.3-56,258.3,74.4,258.3,74.4l-13.8,13.9L-56.4-215.6"/>
						<path class="st19" d="M-59.1-210.9c0,0,120.3,123.6,144.9,147.3C109.5-40.6,238,90.2,238,90.2l-14.6,13.4L-75.8-199.7"/>
						<path class="st19" d="M-79.1-195.5c0,0,121.6,123.5,146.2,147.2c23.7,22.9,150.8,154.3,150.8,154.3l-15.4,12.9L-95.3-183.8"/>
					</g>
				</g>
				
					<rect x="43.3" y="-45.1" transform="matrix(0.7482 -0.6634 0.6634 0.7482 21.4983 30.3766)" style="clip-path:url(#SVGID_00000181044879041790174480000014269783014353612472_);fill:#FFFFFF;" width="14.9" height="63.9"/>
			</g>
		</g>
	</g>
</g>
<g>
	<g>
		<g>
			<defs>
				<circle id="SVGID_00000160889157319825841880000012567134434159165597_" cx="303.9" cy="402.9" r="190"/>
			</defs>
			<clipPath id="SVGID_00000162329693550182847650000007094235997939664818_">
				<use xlink:href="#SVGID_00000160889157319825841880000012567134434159165597_"  style="overflow:visible;"/>
			</clipPath>
			<g style="clip-path:url(#SVGID_00000162329693550182847650000007094235997939664818_);">
				<polygon class="st19" points="255.9,592.4 102.5,437.8 131.1,497.2 225.2,588.7 				"/>
			</g>
		</g>
		<g>
			<defs>
				<path id="SVGID_00000133506968372700319400000017112785302845584032_" d="M212,475c25.5-5.7,51.1-11.3,76.4-17.9
					c25.5-6.6,50.5-14.8,75.2-23.8c24.6-9,49-18.6,73.4-28.4c11.5-4.6,23.1-8.8,34.9-12.9c7.1-2.5,14.2-5,21.1-7.9
					c-2.9-29.4-12.5-56.8-27.3-80.7c-21.8,7.8-44.4,13.3-66.6,19.8c-24.8,7.3-49.5,14.7-74.1,22.8c-24.6,8.1-49,16.5-73.7,24.2
					c-24.9,7.8-49.9,15.1-74.6,23.2c-20.7,6.8-41.2,14.6-62.4,19.9c1.5,28.2,9.2,54.8,21.7,78.4C161.7,488.3,186.7,480.7,212,475z"
					/>
			</defs>
			<clipPath id="SVGID_00000067917083087016047020000009584860361546259336_">
				<use xlink:href="#SVGID_00000133506968372700319400000017112785302845584032_"  style="overflow:visible;"/>
			</clipPath>
			<path style="clip-path:url(#SVGID_00000067917083087016047020000009584860361546259336_);fill:#FFFFFF;" d="M99.4,574.1
				c-9.2,0-18.1-0.2-26.9-0.6c-13.2-0.6-23.7-11.6-23.2-24.9c0.5-13.4,11.8-23.8,25.2-23.1c74.9,3.8,176.4-11,271.5-39.5
				c92.9-28,166.2-64.5,196-97.9c3.5-3.9,8.6-10.3,10.9-16.8c1.5-4.4-1.2-9.2-5.9-10c-10-1.6-32.3-1.9-80.4,9.7
				c-51,12.2-114.5,33.3-175.9,53.8c-63.6,21.2-123.6,41.2-171.6,52.3C71,488.3,19.7,494.7,4.7,458.4c-6-14.3-9.2-36.9,9.2-63.4
				c39.6-56.9,160.9-100,229.7-120.6c103.1-31.1,213.1-49.4,280.1-46.8c13.3,0.5,23.6,11.6,23.1,24.9c-0.5,13.3-11.6,23.6-24.9,23.1
				c-62.2-2.4-166,15.1-264.7,44.7C153.4,351.3,75.2,390.4,53,422.2c-1.1,1.6-2.1,3.2-2.8,4.6c-2.1,3.9-0.4,10.4,6.6,11
				c10.5,0.9,30.5-1.5,66.8-11.3c43.6-11.6,96.2-28.7,152-47.3c159.3-53.1,259.2-83.4,303.3-56.7c12.3,7.4,20.1,18.8,22.3,33
				c3.5,21.5-4.4,43.2-23.6,64.5c-36,40.2-115.5,81-218,111.8C269.2,559.1,176.1,574.1,99.4,574.1z"/>
		</g>
		<g>
			<g>
				<path class="st19" d="M448.2,279.4c27.9-3.3,53-4.7,73.5-3.9c13.3,0.5,24.4-9.8,24.9-23.1c0.5-13.3-9.8-24.4-23.1-24.9
					c-33.2-1.3-76.9,2.6-125.1,10.6C417.4,249,434.2,263,448.2,279.4z"/>
			</g>
			<g>
				<path class="st19" d="M56.8,437.8c-7-0.6-8.6-7.1-6.6-11c0.7-1.4,1.6-3,2.8-4.6c10.2-14.6,32.1-30.7,62.9-46.9
					c3.3-22.4,10.4-43.5,20.8-62.7c-51,21.9-100.3,49.9-123,82.4c-18.3,26.4-15.1,49.1-9.2,63.4c15,36.3,66.4,29.8,114.6,18.7
					c2.9-0.7,5.8-1.4,8.8-2.1c-6-14.7-10.2-30.2-12.4-46.4C84.3,436.6,66.5,438.7,56.8,437.8z"/>
			</g>
			<g>
				<path class="st19" d="M601.2,355.5c-2.3-14.2-10-25.6-22.3-33c-21.4-12.9-55.9-12.5-104-2.5c7,14.4,12.2,29.8,15.4,45.9
					c32.2-6.3,48.7-5.9,56.9-4.5c4.6,0.8,7.4,5.6,5.9,10c-2.3,6.5-7.4,12.9-10.9,16.8c-11,12.3-28,25.1-49.6,37.6
					c-2.7,22.7-9.4,44.2-19.4,63.7c47.1-21.9,83.4-45.8,104.6-69.4C596.8,398.7,604.7,377,601.2,355.5z"/>
			</g>
			<g>
				<path class="st19" d="M156.9,523.3c-29.6,2.7-57.4,3.5-82.3,2.2c-13.4-0.7-24.7,9.7-25.2,23.1c-0.5,13.3,10,24.3,23.2,24.9
					c8.7,0.4,17.7,0.6,26.9,0.6c33.1,0,69.2-2.8,106.8-8.2C187.5,554.6,170.8,540.2,156.9,523.3z"/>
			</g>
			<g>
				<path class="st6" d="M398.5,238.2c-27.8-16-60.1-25.2-94.6-25.2c-72.2,0-135,40.3-167.1,99.6c38.2-16.4,77.3-29.4,106.7-38.2
					C295.6,258.7,349.4,246.3,398.5,238.2z"/>
			</g>
			<g>
				<path class="st6" d="M116,375.3c-1.3,9-2,18.3-2,27.7c0,8.7,0.6,17.3,1.7,25.7c2.6-0.7,5.2-1.4,8-2.1
					c43.6-11.6,96.2-28.7,152-47.3c82-27.3,148.2-48.6,199.2-59.2c-7.1-14.7-16.1-28.3-26.6-40.6c-56.6,6.6-125,21-191.1,40.8
					C201,337,152.3,356.2,116,375.3z"/>
			</g>
			<g>
				<path class="st6" d="M206.3,565.9c28.5,17.1,61.9,27,97.7,27c73.8,0,137.7-42,169.2-103.4c-32.9,15.3-71.2,29.7-113.4,42.3
					C308.2,547.3,255.9,558.8,206.3,565.9z"/>
			</g>
			<g>
				<path class="st6" d="M492.5,425.8c0.9-7.5,1.4-15.1,1.4-22.8c0-12.7-1.2-25.1-3.6-37c-7,1.4-14.8,3.1-23.5,5.1
					c-51,12.2-114.5,33.3-175.9,53.8c-59.8,19.9-116.4,38.8-162.8,50.2c7.2,17.6,17,33.8,28.8,48.3c59.4-5.4,125.7-18.3,189.2-37.3
					C404.7,468.3,455.5,447.3,492.5,425.8z"/>
			</g>
		</g>
		<g>
			<defs>
				<circle id="SVGID_00000095312837466601967470000000072711444972218252_" cx="303.9" cy="402.9" r="190"/>
			</defs>
			<clipPath id="SVGID_00000081633823669546911750000000724438936287400851_">
				<use xlink:href="#SVGID_00000095312837466601967470000000072711444972218252_"  style="overflow:visible;"/>
			</clipPath>
			<g style="clip-path:url(#SVGID_00000081633823669546911750000000724438936287400851_);">
				<g>
					<path class="st19" d="M324.6,136.8c0,0,104,124.7,128.6,148.5c23.7,22.9,170.8,148,170.8,148l-4.3,19.9L299.8,142.3"/>
					<path class="st19" d="M304.5,152.3c0,0,105.3,124.6,129.9,148.4c23.7,22.9,169.4,148.4,169.4,148.4l-5.1,19.4L280.4,158.2"/>
					<path class="st19" d="M284.5,167.8c0,0,106.5,124.5,131.1,148.3c23.7,22.9,168,148.9,168,148.9l-5.9,18.9L260.9,174.1"/>
					<path class="st19" d="M264.4,183.2c0,0,107.8,124.5,132.4,148.2c23.7,22.9,166.5,149.3,166.5,149.3l-6.7,18.4L241.5,190"/>
					<path class="st19" d="M244.3,198.7c0,0,109.1,124.4,133.6,148.1c23.7,22.9,165.1,149.8,165.1,149.8l-7.5,17.9L222,205.9"/>
					<path class="st19" d="M224.2,214.1c0,0,110.3,124.3,134.9,148c23.7,22.9,163.7,150.2,163.7,150.2l-8.3,17.4l-312-308"/>
					<path class="st19" d="M204.2,229.6c0,0,111.6,124.2,136.2,148c23.7,22.9,162.2,150.7,162.2,150.7l-9.1,16.9L183.1,237.7"/>
					<path class="st19" d="M184.1,245c0,0,112.8,124.1,137.4,147.9C345.2,415.9,482.3,544,482.3,544l-9.9,16.4L163.7,253.6"/>
					<path class="st19" d="M164,260.5c0,0,114.1,124,138.7,147.8c23.7,22.9,159.4,151.6,159.4,151.6l-10.7,15.9L144.2,269.5"/>
					<path class="st19" d="M144,276c0,0,115.3,123.9,139.9,147.7c23.7,22.9,157.9,152,157.9,152L430.3,591L124.8,285.4"/>
					<path class="st19" d="M123.9,291.4c0,0,116.6,123.8,141.2,147.6c23.7,22.9,156.5,152.5,156.5,152.5l-12.3,14.9l-304-305.1"/>
					<path class="st19" d="M103.8,306.9c0,0,117.8,123.7,142.4,147.5c23.7,22.9,155.1,152.9,155.1,152.9l-13.1,14.4L85.9,317.2"/>
					<path class="st19" d="M83.8,322.3c0,0,119.1,123.7,143.7,147.4c23.7,22.9,153.6,153.4,153.6,153.4L367.2,637L66.4,333.1"/>
					<path class="st19" d="M63.7,337.8c0,0,120.3,123.6,144.9,147.3c23.7,22.9,152.2,153.8,152.2,153.8l-14.6,13.4L47,349"/>
					<path class="st19" d="M43.6,353.3c0,0,121.6,123.5,146.2,147.2c23.7,22.9,150.8,154.3,150.8,154.3l-15.4,12.9L27.5,364.9"/>
				</g>
			</g>
			<g style="clip-path:url(#SVGID_00000081633823669546911750000000724438936287400851_);">
				
					<rect x="166.1" y="503.6" transform="matrix(0.7482 -0.6634 0.6634 0.7482 -311.622 249.9627)" class="st19" width="14.9" height="63.9"/>
			</g>
			<g style="clip-path:url(#SVGID_00000081633823669546911750000000724438936287400851_);">
				
					<rect x="438.7" y="248.7" transform="matrix(0.7071 -0.7071 0.7071 0.7071 -60.9272 394.3088)" class="st19" width="13.6" height="44"/>
			</g>
		</g>
	</g>
	<g>
		<g>
			<g>
				
					<linearGradient id="SVGID_00000157277123710374445600000016350565230760128956_" gradientUnits="userSpaceOnUse" x1="1980.522" y1="793.5215" x2="1980.522" y2="0">
					<stop  offset="0" style="stop-color:#FFFFFF"/>
					<stop  offset="0.3809" style="stop-color:#FFFFFF"/>
					<stop  offset="0.4042" style="stop-color:#F4E7E9"/>
					<stop  offset="0.4844" style="stop-color:#D099A4"/>
					<stop  offset="0.5416" style="stop-color:#B96978"/>
					<stop  offset="0.5698" style="stop-color:#B05667"/>
					<stop  offset="0.7789" style="stop-color:#CE0033"/>
					<stop  offset="1" style="stop-color:#FD003E"/>
				</linearGradient>
				<path style="fill:url(#SVGID_00000157277123710374445600000016350565230760128956_);" d="M2044.6,6.3c3-1.5,6.5-3.2,10.5-5
					c13.2-6.2,23.7,12.3,11.6,20.5c-4.2,2.9-8,5.5-11.1,7.6c-38.8,27.2-72.7,59.2-72.7,167.4c0,135.9,112.5,268.4,112.5,366.9
					c0,76.4-21.6,146.5-191.1,228.7c-5.6,2.7-12.2,0.6-15.3-4.7l0,0c-3.3-5.7-1.1-13,4.6-16.1c67.7-36.2,87.6-111.2,84.7-175.6
					c-6-134-114.5-249.2-112.5-359.1C1867,171.3,1893,82.6,2044.6,6.3z"/>
				<path class="st19" d="M1938.7,552.3c-9.6-3.6-29.1-13.9-41.4-41.1l-134.3-297.8c-5.7-12.7-23.5-13.2-29.9-0.9l-99.4,188.7
					c-5.1,9.8-15.3,15.9-26.3,15.9h-119.2h-4c-4,0-8,3.2-8.6,7.1c-0.8,5.1,2.9,9.5,7.8,9.9c33.1,3,53,25.1,52.7,60.8
					c-0.2,32.9-27.7,59.9-60.7,59.9h-8.6c-88.3,0-92.1-101.4-92.1-123.6c0-25.8,0-77.6,0-77.6c0-38.1,15.3-104.9,89.7-104.9
					c69.5,0,108.5,32,140.3,74.4c5.2,7,16.3,1.2,13.6-7.1l-27.9-87.4c-2.7-8.4-12.6-12.1-20.2-7.5c-20.5,12.6-32.5,10.5-32.5,10.5
					c-10.1,0.3-42.2-8.8-81.2-8.8c-62.2,0-112.5,24.7-146.9,57.9c-3.4,3.3-9.1,2.2-10.8-2.3l-15.4-37.5c-3.2-7.8-7.3-12.8-15.7-12.8
					h-177.2v-0.1h-92.2c-5.9,0-11.6-0.2-17.5-0.5c-31.6-1.7-142.6-7.5-199.4-7.5c-71.2,0-127,22.3-132.6,74.8
					c-4.2,39.5,23.2,60.1,38.9,74.5c8.5,7.8,48.5,33.1,69,42.6c21.4,9.9,106.8,52.7,98,86.6c-8.8,33.6-37.7,41.9-71,41.9
					c-52.3,0-108.4-43.3-150-82.1c-7.2-6.8-18.4,1.6-13.9,10.5c17.2,33.6,39.2,74.5,53.6,96.1c4.1,6.1,11.5,9.1,18.7,7.2
					c15.5-3.9,35.6-6,47.8-5.4c15.7,0.7,48.6,5,63,5c119.8,0,157.3-31.5,161.2-86.1c5.4-75.1-84.3-125.1-138.9-147
					c-48.8-19.7-67.7-49.3-65.6-64c3.4-25.5,27.7-29.8,48-29c63,2.4,181.8,33.1,181.8,76.3c0,0,0,192.1,0,200.5
					c0,11.2-12.2,31.4-27.7,31.4h-0.3c-2.8,0-5.6,1-7.6,3c-5.4,5.4-1.6,11.7,3.5,11.7h66.9l0,0h66.3h189.1c6.1,0,11.4-3.6,13.8-9.3
					l10.3-25.1c2-4.8,8.1-6.3,12-2.8c33.7,30.5,83.1,49.6,150.6,49.6c15.7,0,48.4-4.3,63.6-9.9c4.8-1.7,10-2.7,15.1-2.7h126.5h20.4
					c7.5,0,11.1-9.4,5.5-14.4c-2.5-2.2-4.7-4.2-6.3-5.7c-12-10.9-11.5-18.3-11.8-24.6c-0.3-6.2,1-12.3,3.9-17.9l89.6-170.2
					l76.5,169.9c2.6,5.7,3.8,11.9,3.3,18.1c-0.1,0.8-0.1,1.5-0.2,2.1c-1.4,8-8.6,24.2-22.1,24.2h-2.2c-3.3,0-6.6,1.1-9.1,3.3
					c-7.5,6.7-2.9,15.1,3.7,15.1h113.3c5.2,0,9.4-4.7,8.3-10.1C1943.8,555.7,1941.6,553.3,1938.7,552.3z M1280.8,315.8
					c-15.4,24.3-23.8,50-23.8,72.6c0,30.1,5.6,59.6,17.3,86c2.6,5.8,1.4,12.6-3,17.1c-21.7,22-69.1,52.7-136.9,52.7h-16.6
					c-15.1,0-27.4-12.2-27.4-27.4v-92.3v-4.9c0-5.1,7.7-11.5,16.4-9.8c13.3,2.6,36.6,10.9,55.3,21.7c13.1,7.6,24.9,15.5,38.5,26.8
					c6,4.9,15,0.6,15-7.1v-29v-57.3v-29c0-7.7-9.1-12-15-7.1c-13.6,11.2-25.4,19.1-38.5,26.8c-18.6,10.7-42.7,22-55.9,25.1
					c-10.2,2.4-13.8-1.6-15.7-5.5v-5.6V279c0-14.4,11.7-26.1,26.1-26.1h33.5c54.9,0,105,31.5,129.1,52.3
					C1282.3,307.7,1283,312.4,1280.8,315.8z"/>
				<path class="st19" d="M3838.7,232.1c-0.8-2.4-3.2-3.9-5.8-3.9h-26.3h-49.5h-26.3c-2.6,0-4.9,1.5-5.8,3.9
					c-1.1,3.3,0.7,6.6,3.7,7.6c9.5,3.1,32.2,13.1,32.2,36.9v143.1c0,5.5-6.4,8.4-10.6,4.9l-150.4-124.8
					c-46.9-39-113.4-64.9-157.3-79.1c-9.7-3.1-16.4,9.7-8.2,15.8c1.4,1.1,2.9,2.2,4.4,3.3c50.1,37.7,55.5,91.7,55.5,97.8V530v9.3
					c0,7.2-5.9,13.1-13.1,13.1c-16.8,0-54.3-27.3-73.5-47.3c-18-18.8-26.6-44.8-46.8-68.5c-16.1-18.8-29.7-25.8-29.7-25.8
					c101.1,0,104.1-82,104.1-91.2c0-13.7,0-91.6-126.6-91.6h-292.1h-49.7c-2.6,0-4.9,1.5-5.8,3.9c-1.1,3.3,0.7,6.7,3.7,7.6
					c9.5,3.1,32.2,13.1,32.2,36.9v180.1c0,62.2-43.5,83-78.4,83c-63.6,0-88-37.5-88-84.6v-27.3l0,0V276.4
					c0-23.9,22.7-33.9,32.2-36.9c2.5-0.8,4.1-3,4.1-5.6v-0.1c0-3.2-2.6-5.9-5.9-5.9H2747h-17.5h-229.9h-117.1
					c-7.1,0-13.7,4.1-16.8,10.5l-18.8,39c-3.2,6.7,4.4,13.3,10.6,9.2c25.2-17.1,67.6-36.7,129.6-39.1c6.8-0.2,12.4,5.2,12.4,12
					v246.9c0,11.7-4.3,20.8-10.2,27.7c-4.5,5.4-11.3,8.4-18.4,8.4h-15.2c-4.9,0-9.9-1.3-14.1-4.1c-9.7-6.3-18.8-15.1-24.4-27.5
					l-134.3-297.8c-5.8-12.7-23.5-13.2-29.9-0.9l-139.7,265.1l-40.3,76.4l2.8,14.6h40.5h7.2h88l0,0c7.5,0,11.1-9.4,5.5-14.4
					c0,0-0.1,0-0.1-0.1c-2.5-2.2-4.6-4.1-6.2-5.6c-11.9-10.7-11.5-18.1-11.8-24.4c-0.3-6.3,1-12.6,3.9-18.1l89.7-170.2l76.5,169.9
					c2.6,5.7,3.8,11.9,3.3,18.1c-0.1,0.8-0.1,1.5-0.2,2.1c-1.4,8-8.6,24.2-22.1,24.2h-0.2c-2.7,0-5.4,0.8-7.5,2.5
					c-8.8,6.8-4.1,15.9,2.7,15.9h112.9h6.6h89.2h26.3h53.9c4.6,0,8.6-3.5,8.8-8.1c0.2-3.7-2.1-7.2-5.5-8.4
					c-11.3-4.3-36.3-17.2-36.3-45.4V259.5c0-7,5.7-12.3,12.7-12c47.9,1.9,84.2,14,109.7,27.4c4.1,2.2,6.7,6.4,6.7,11v159.1h0.4
					c4.1,73.1,38.8,129.2,165.9,129.2c73.7,0,142.7-38.6,142.7-109.7c0-8.7,0-182.3,0-182.3c0-10.8,3.4-18.4,7.7-23.7
					c6.3-7.7,15.9-11.8,25.9-11.8h15c10,0,19.7,4.1,25.9,11.8c4.3,5.4,7.7,13,7.7,23.7v220.7c0,32.8-26,45.2-38.2,49.2
					c-2.9,0.9-5.2,3.3-5.9,6.4c-1,5.4,3,10.1,8.2,10.1h54.3h61.3h56.8c3.5,0,6.8-2.1,8-5.4c1.7-4.7-0.8-9.6-5.1-11
					c-11.9-3.9-38.5-16.3-38.5-49.3V293.6v-24.9c0-18.7,16.1-25.5,27.1-25.5h31.6c29.4,0,58.6,24.8,58.6,66.2
					c0,60.7-39.5,75.4-55.7,75.4c-10.8,0-19.2,0.2-28.2-3.1c0,0-0.1,0-0.1-0.1c-5.7-2.7-11.7,2.6-9.9,8.5c0.1,0.3,0.1,0.5,0.2,0.5
					c9.5,32.1,26.5,81.2,49.8,112.5c36.1,48.7,104.6,87.5,219.6,87.5h49.4c3.1,0,6-1.9,6.9-4.7c1.3-4-0.9-8-4.6-9.2
					c-9.9-3-30.9-11.9-30.9-34.3V380.9c0-5.5,6.4-8.4,10.6-4.9l238.7,198.2c6.9,5.7,17.2,0.8,17.2-8.1V276.7
					c0-23.9,22.7-33.9,32.2-36.9C3837.9,238.8,3839.8,235.5,3838.7,232.1z"/>
			</g>
		</g>
	</g>
</g>
</svg>
