<?xml version="1.0" encoding="utf-8"?>
<!-- Generator: Adobe Illustrator 25.4.1, SVG Export Plug-In . SVG Version: 6.00 Build 0)  -->
<svg version="1.1" id="Layer_1" xmlns="http://www.w3.org/2000/svg" xmlns:xlink="http://www.w3.org/1999/xlink" x="0px" y="0px"
	 viewBox="0 0 3839 567.1" style="enable-background:new 0 0 3839 567.1;" xml:space="preserve">
<style type="text/css">
	.st0{fill:#FFFFFF;}
	.st1{fill:#034693;}
	.st2{fill:#FFFFFF;stroke:#3852A1;stroke-width:6.1873;stroke-linecap:round;stroke-linejoin:round;stroke-miterlimit:10;}
	.st3{fill:#008ED6;}
	.st4{fill:#FF0000;}
	.st5{fill:url(#SVGID_1_);}
	.st6{fill:url(#SVGID_00000016064002363325067680000009288211822078942108_);}
	.st7{fill:#F4F8F4;}
	.st8{fill:url(#SVGID_00000058574478206412440980000006144342182495564470_);}
	.st9{fill:url(#SVGID_00000127748338661909507780000009993232704199060639_);}
	.st10{fill:url(#SVGID_00000079446194127741334980000000208860856326221980_);}
	.st11{fill:url(#SVGID_00000129204970124589091150000004037226827157663402_);}
	.st12{fill:url(#SVGID_00000047043118850457043370000004409370657118681501_);}
	.st13{fill:url(#SVGID_00000032635584623390319270000006459470226254334142_);}
	.st14{fill:url(#SVGID_00000012464632459370174410000005552002325007384200_);}
	.st15{fill:url(#SVGID_00000082333903340542789080000000706399933812236433_);}
	.st16{fill:url(#SVGID_00000080907833817723725790000015872805993255968915_);}
	.st17{fill:url(#SVGID_00000148639853991676532380000013903508601593105579_);}
	.st18{fill:url(#SVGID_00000116945278412980443620000009567707431830570899_);}
	.st19{fill:url(#SVGID_00000062883646620171137310000012131792716567705511_);}
	.st20{fill:url(#SVGID_00000079469242747536375150000012911054389202620050_);}
	.st21{fill:url(#SVGID_00000020358165027800184510000006403796896915501475_);}
	.st22{fill:url(#SVGID_00000121250585945018618080000000046549860224633995_);}
	.st23{fill:url(#SVGID_00000148627047145716759540000001609577479901091236_);}
	.st24{fill:url(#SVGID_00000099624719349934101280000017507278827476798895_);}
	.st25{fill:url(#SVGID_00000067935907825236428720000006679365477303913888_);}
	.st26{fill:url(#SVGID_00000033358685215238122180000013013727463194756768_);}
	.st27{fill:url(#SVGID_00000121278073293796565910000002706838548633151371_);}
	.st28{fill:url(#SVGID_00000088838184700649896580000007584741144068131719_);}
	.st29{fill:url(#SVGID_00000008134424184143148740000006179953196467997865_);}
	.st30{fill:#DBDCD9;}
	.st31{fill:url(#SVGID_00000149355323699466408350000002015436857643149466_);}
	.st32{fill:url(#SVGID_00000105408826437148422120000011939844527507009166_);}
	.st33{fill:url(#SVGID_00000090979188971861074230000008898141794088513449_);}
	.st34{fill:url(#SVGID_00000097481375146216082730000003269440261310251947_);}
	.st35{fill:url(#SVGID_00000053523649068252809950000000049019977677234312_);}
	.st36{fill:url(#SVGID_00000068676072402071769420000017866629240343241641_);}
	.st37{fill:url(#SVGID_00000178901973339098706580000002638060218069074574_);}
	.st38{fill:url(#SVGID_00000072959047530762027860000008492007746847646141_);}
	.st39{fill:url(#SVGID_00000056401937924747416660000015871383634495980680_);}
	.st40{fill:url(#SVGID_00000063621833806549769460000004620761783799838646_);}
	.st41{fill:url(#SVGID_00000047766701668072479040000017719982452993633947_);}
	.st42{fill:url(#SVGID_00000111878321828938798620000005655317038045406633_);}
	.st43{fill:url(#SVGID_00000181086741433280710820000013451974468023378849_);}
	.st44{fill:url(#SVGID_00000090265971532235685060000012158460816412040603_);}
	.st45{fill:url(#SVGID_00000041993252247234607140000009662064763592705442_);}
	.st46{fill:url(#SVGID_00000072249484002496978000000012631257744755183027_);}
	.st47{fill:url(#SVGID_00000150803738326110868890000016249231318880665987_);}
	.st48{fill:url(#SVGID_00000056395004033551793500000000058337332293437588_);}
	.st49{fill:url(#SVGID_00000170996732208715407690000018175332730877280387_);}
	.st50{fill:url(#SVGID_00000125561457297396658260000003977867071825864375_);}
	.st51{fill:url(#SVGID_00000171678975249986924580000011795761013296194441_);}
	.st52{fill:url(#SVGID_00000159455889263915569050000006449285382832760728_);}
	.st53{fill:url(#SVGID_00000173161518165405033440000015119413956325582517_);}
	.st54{fill:url(#SVGID_00000129191265987733586810000011451173090164704386_);}
	.st55{fill:url(#SVGID_00000047756280287076018670000011209649485216942217_);}
	.st56{fill:url(#SVGID_00000025435645338192118260000002402014367758718366_);}
	.st57{fill:url(#SVGID_00000183219894205377351260000016270834288710325390_);}
	.st58{fill:url(#SVGID_00000076599717126135806150000013251382351912876201_);}
	.st59{fill:url(#SVGID_00000012450710473474988240000004714135685010752936_);}
	.st60{fill:url(#SVGID_00000166663836093624908760000012520285586686155658_);}
	.st61{fill:url(#SVGID_00000118377782709034654930000016159661447718918317_);}
	.st62{fill:url(#SVGID_00000111899809167085684050000000986542899868534144_);}
	.st63{fill:url(#SVGID_00000060006597352736165240000007160943672720795301_);}
	.st64{fill:url(#SVGID_00000070820218943758746140000006196367966218586552_);}
	.st65{fill:url(#SVGID_00000027604438628617849270000016214106406238379963_);}
	.st66{fill:url(#SVGID_00000156564596423613836340000005032125010903522745_);}
	.st67{fill:url(#SVGID_00000109000884035360626990000008195584924385991575_);}
	.st68{fill:url(#SVGID_00000165236772575037566520000015217897446622002079_);}
	.st69{fill:url(#SVGID_00000006678535394835259720000007770660838886534049_);}
	.st70{fill:url(#SVGID_00000165235971927584548420000004295182855113852591_);}
	.st71{fill:url(#SVGID_00000109725380648609005040000009420505386658572945_);}
	.st72{fill:url(#SVGID_00000060021411468934012480000007323308614632055469_);}
	.st73{fill:url(#SVGID_00000122717760379086103650000001449422810620843184_);}
	.st74{fill:url(#SVGID_00000000939955930270433940000009312770320654982075_);}
	.st75{fill:url(#SVGID_00000173121837805397769580000010024942327160253073_);}
	.st76{fill:url(#SVGID_00000157270566199689427660000012429564883353511839_);}
	.st77{fill:url(#SVGID_00000044885692513541057510000016460557766400233376_);}
	.st78{fill:url(#SVGID_00000158015645978504150400000009733843023151702447_);}
	.st79{fill:url(#SVGID_00000000926063479635606480000009286941646233282694_);}
	.st80{fill:url(#SVGID_00000000215130966161342430000018137667126157341837_);}
	.st81{fill:url(#SVGID_00000112590616039670733240000007409992100934650015_);}
	.st82{fill:url(#SVGID_00000031923726563611092080000001134887888204387484_);}
	.st83{fill:url(#SVGID_00000125565916558639317370000007423067344970176189_);}
	.st84{fill:url(#SVGID_00000100377333942895216840000008184890304198885261_);}
	.st85{fill:url(#SVGID_00000009565142634377102000000006590785014430814364_);}
	.st86{fill:url(#SVGID_00000018939464949111464480000017973100891482196393_);}
	.st87{fill:url(#SVGID_00000067940623999314293540000013099071165597557414_);}
	.st88{fill:url(#SVGID_00000114792404715785817200000015266422241185685380_);}
	.st89{fill:url(#SVGID_00000101791157166770723110000004997381966623236774_);}
	.st90{fill:url(#SVGID_00000070106783893567675370000009564683252515166613_);}
	.st91{fill:url(#SVGID_00000001638344381853512110000007671235727911254161_);}
	.st92{fill:url(#SVGID_00000018943266741892759490000016335985637791533213_);}
	.st93{fill:url(#SVGID_00000005968080584335415730000010483454645729927552_);}
	.st94{fill:url(#SVGID_00000115508024311296144330000000256480707169962112_);}
	.st95{fill:url(#SVGID_00000058565409219901076840000004216117420583037364_);}
	.st96{fill:url(#SVGID_00000101788076396040867830000017127356506639791492_);}
	.st97{fill:url(#SVGID_00000031891883920839826100000005833014605834443663_);}
	.st98{fill:url(#SVGID_00000114784719192769203130000008961521573928141736_);}
	.st99{fill:url(#SVGID_00000168094403004267652070000006167721884899713922_);}
	.st100{fill:url(#SVGID_00000150803254523796363490000013885460837712674744_);}
	.st101{fill:url(#SVGID_00000163066748715962731500000004134478450424403108_);}
	.st102{fill:url(#SVGID_00000073690979136222522630000006292208658101295244_);}
	.st103{fill:url(#SVGID_00000153693693463933449270000005853651904735330231_);}
	.st104{fill:url(#SVGID_00000107590963122603428570000017946889578822053272_);}
	.st105{fill:url(#SVGID_00000049935210083423302650000008357783939678305452_);}
	.st106{fill:url(#SVGID_00000046308119271164232810000013864814598488513684_);}
	.st107{fill:url(#SVGID_00000146500635961644760550000012532835203431487104_);}
	.st108{fill:url(#SVGID_00000090995111113272869720000002582754464045797558_);}
	.st109{fill:url(#SVGID_00000097484238103802442530000008208003799472820898_);}
	.st110{fill:url(#SVGID_00000129189033953551635780000014201705012437758116_);}
	.st111{fill:url(#SVGID_00000014629884171432524050000013342240595338244541_);}
	.st112{fill:url(#SVGID_00000090991188805998677270000017044416646044304300_);}
	.st113{fill:url(#SVGID_00000042011808044691939500000012537901948588755130_);}
	.st114{fill:url(#SVGID_00000132785081793671839270000000516275471119502261_);}
	.st115{fill:url(#SVGID_00000018195002322078481870000004712571792353563068_);}
	.st116{fill:url(#SVGID_00000108277621588066391750000017098326654344811185_);}
	.st117{fill:url(#SVGID_00000050652109556311588900000004348596882053206170_);}
	.st118{fill:url(#SVGID_00000009569795511327355030000004144977171804434075_);}
	.st119{fill:url(#SVGID_00000070823631103099654150000015720584085593900434_);}
	.st120{fill:url(#SVGID_00000048489056560807095390000012160915075089347500_);}
	.st121{fill:url(#SVGID_00000092450898517088355170000000634436269928808873_);}
	.st122{fill:url(#SVGID_00000075864876604818834910000014732910457800634292_);}
	.st123{fill:url(#SVGID_00000013905451234979841700000007779783597643149465_);}
	.st124{fill:url(#SVGID_00000132790348168576977940000000725736283129207169_);}
	.st125{fill:url(#SVGID_00000013879634824262031070000016622872336120379546_);}
	.st126{fill:url(#SVGID_00000177453645835207904280000009407965513626181820_);}
	.st127{fill:url(#SVGID_00000127020662245925171100000000707538742459331748_);}
	.st128{fill:url(#SVGID_00000158018873628269506380000011457907754635887241_);}
	.st129{fill:url(#SVGID_00000006693254997183724110000009805767872263649979_);}
	.st130{fill:url(#SVGID_00000167393682210211342310000017868545075000713621_);}
	.st131{fill:url(#SVGID_00000060720201260298577120000002888303218241917852_);}
	.st132{fill:url(#SVGID_00000023258345693274040500000008521751134844269748_);}
	.st133{fill:url(#SVGID_00000165944665888821377780000001637247183904274105_);}
	.st134{fill:url(#SVGID_00000171704057622423117510000007133045240072637357_);}
	.st135{fill:url(#SVGID_00000117648364385748459750000011470222027527091389_);}
	.st136{fill:url(#SVGID_00000114774548591520111560000008203249694901841307_);}
	.st137{fill:url(#SVGID_00000035522623572158480030000012714465907085917315_);}
	.st138{fill:url(#SVGID_00000088844917096951445230000010568645199255781050_);}
	.st139{fill:url(#SVGID_00000070099340082673424140000009220094423925137061_);}
	.st140{fill:url(#SVGID_00000148652710737494068310000008832991556344936122_);}
	.st141{fill:url(#SVGID_00000097482837118266492520000016278973116900120968_);}
	.st142{fill:url(#SVGID_00000075851846362008820160000007941913168490025659_);}
	.st143{fill:url(#SVGID_00000129165210438693660230000013530897619120403354_);}
	.st144{fill:url(#SVGID_00000058582840637236397330000006811304578620495526_);}
	.st145{fill:url(#SVGID_00000109015467363062202470000013605980985285821101_);}
	.st146{fill:url(#SVGID_00000036965512403419821730000001505272129564698254_);}
	.st147{fill:url(#SVGID_00000086661499207836808720000018080079163740350118_);}
	.st148{fill:url(#SVGID_00000026136749428945476940000011198570730864081799_);}
	.st149{fill:url(#SVGID_00000029022677338225995730000016704912141314426558_);}
	.st150{fill:url(#SVGID_00000165194932240012867320000017021855443419086476_);}
	.st151{fill:url(#SVGID_00000101781485732775619670000010918801817219473288_);}
	.st152{fill:url(#SVGID_00000119081578552345563200000005897418135990543765_);}
	.st153{fill:url(#SVGID_00000028298340995358737110000003132458520538600589_);}
	.st154{fill:url(#SVGID_00000083063756771691502950000015475591361620447108_);}
	.st155{fill:url(#SVGID_00000042699720112130435010000000062025712916367260_);}
	.st156{fill:url(#SVGID_00000114056550970931011950000006346359977921138099_);}
	.st157{fill:url(#SVGID_00000083058290060135486170000010722314205394822027_);}
	.st158{fill:url(#SVGID_00000067958636618048060850000008566305150578584230_);}
	.st159{fill:url(#SVGID_00000067938807922390479100000007134098553369879972_);}
	.st160{fill:url(#SVGID_00000001628888717052833200000002005523339652404132_);}
	.st161{fill:url(#SVGID_00000081613647666856361770000018040373511665036944_);}
	.st162{fill:url(#SVGID_00000044177726766555812420000016520774259173722283_);}
	.st163{fill:url(#SVGID_00000006680301424019445880000005794203792290946434_);}
	.st164{fill:url(#SVGID_00000161604668032963310980000010133317025257944765_);}
	.st165{fill:url(#SVGID_00000115498530145632371830000012340974745960962193_);}
	.st166{fill:url(#SVGID_00000079458417457345570380000001311449748479430273_);}
	.st167{fill:url(#SVGID_00000139285634769985083020000014938521958640559506_);}
	.st168{fill:url(#SVGID_00000050646625132828938030000005729845500815801788_);}
	.st169{fill:url(#SVGID_00000143594560411765530770000011445544751019998137_);}
	.st170{fill:url(#SVGID_00000129896049348992835600000005971764988702769818_);}
	.st171{fill:url(#SVGID_00000163780705294326101550000013921500501461771700_);}
	.st172{fill:url(#SVGID_00000051358058143927549650000004238882423673322113_);}
	.st173{fill:url(#SVGID_00000041287616615255495500000015115279376724207038_);}
	.st174{fill:url(#SVGID_00000128477982816368804030000002927339638657559225_);}
	.st175{fill:url(#SVGID_00000038375183579984450940000009209218043769504155_);}
	.st176{fill:url(#SVGID_00000073000959302754759200000016988595815017717138_);}
	.st177{fill:url(#SVGID_00000085252978732893889450000002266197947142172060_);}
	.st178{fill:url(#SVGID_00000022553427423651868040000012002629454029936317_);}
	.st179{fill:url(#SVGID_00000119824062871151241210000017213438058769835926_);}
	.st180{fill:url(#SVGID_00000115504611122885640380000009082340990370238869_);}
	.st181{fill:url(#SVGID_00000069370076598049109120000006044858675213878438_);}
	.st182{fill:url(#SVGID_00000033349026046289624810000010368474673118142858_);}
	.st183{fill:url(#SVGID_00000094609665679895976040000007573807260329193390_);}
	.st184{fill:url(#SVGID_00000095298064345442454750000014458626745182091187_);}
	.st185{fill:url(#SVGID_00000144310212497359536960000017216627589348844684_);}
	.st186{fill:url(#SVGID_00000019641950115212635040000018407106489644801440_);}
	.st187{fill:url(#SVGID_00000046334647404978531040000004548992281126019751_);}
	.st188{fill:url(#SVGID_00000067954094630861099160000017364005460625469572_);}
	.st189{fill:url(#SVGID_00000177462896663734303910000011898741275437692556_);}
	.st190{fill:url(#SVGID_00000032624867802675031360000017246776192461018517_);}
	.st191{fill:url(#SVGID_00000112603313191700008580000006609374371368072858_);}
	.st192{fill:url(#SVGID_00000108287677060080647310000011358345303257256096_);}
	.st193{fill:url(#SVGID_00000178199280269230061920000001640025977388375968_);}
	.st194{fill:url(#SVGID_00000170274763136674160480000003749151659622969230_);}
	.st195{fill:#F6F7F7;}
	.st196{fill:url(#SVGID_00000063604952273808080470000000092539148039241906_);}
	.st197{fill:url(#SVGID_00000137852294069465144840000004894829141382747037_);}
	.st198{fill:url(#SVGID_00000098201931207297460900000003923402272053330593_);}
	.st199{fill:url(#SVGID_00000032616614726348442060000001955327149393568190_);}
	.st200{fill:url(#SVGID_00000132783077253430261180000009408495185910578849_);}
	.st201{fill:url(#SVGID_00000021832162454985845010000001612122910042378901_);}
	.st202{fill:url(#SVGID_00000034811464243089494010000003630074694278396824_);}
	.st203{fill:url(#SVGID_00000030488693252087847260000018357368829365173144_);}
	.st204{fill:url(#SVGID_00000045613348839628489670000012088661040063825827_);}
	.st205{fill:url(#SVGID_00000020393998554431596710000011654468829820245686_);}
	.st206{fill:url(#SVGID_00000017505476494925674030000009950525920835209903_);}
	.st207{fill:url(#SVGID_00000001659896731769907330000008488649786807261828_);}
	.st208{fill:url(#SVGID_00000089551136423028523210000017231291836055037089_);}
	.st209{fill:url(#SVGID_00000162338449331662034170000009915079011680558014_);}
	.st210{fill:#A8988B;}
	.st211{fill:#0C0002;}
</style>
<g>
	<g>
		<g>
			<path class="st0" d="M3441.4,238.1h-471.7c-196.1,0-423.2-56.6-532.2-107.6c-5.4-2.5-11.8-1.3-15.8,3.1
				c-98.4,107.8-359.9,120.3-502.2,120.3l0,0c-142.3,0-403.8-12.5-502.2-120.2c-4-4.4-10.4-5.6-15.8-3.1
				c-109,51-336.1,107.6-532.2,107.6H397.7C178.1,238.1,0,311.8,0,402.6s178.1,164.5,397.7,164.5h3043.6
				c219.6,0,397.7-73.6,397.7-164.5C3839.1,311.8,3661,238.1,3441.4,238.1z"/>
		</g>
		<path class="st1" d="M3370.9,274.8H468.2c-209.7,0-379.6,57.2-379.6,127.8s170,127.8,379.6,127.8H3371
			c209.7,0,379.6-57.2,379.6-127.8C3750.5,332,3580.6,274.8,3370.9,274.8z"/>
		<ellipse class="st0" cx="1919.5" cy="117.7" rx="427.4" ry="117.7"/>
		<g>
			<g>
				<g>
					<path class="st1" d="M1733.4,140.8c5.3,0.1,10.5,0.1,15.8,0.2c1.2,0,2.2,1,2.2,2.3s-1,2.3-2.2,2.2c-20.4-0.3-40.7-0.6-61.1-0.9
						c0,6.4,0,12.7,0,19.1c20.4,0.6,40.8,1.2,61.2,1.6c11.8,0.3,21.4-9.5,21.4-21.9c0-12.4-9.6-22.4-21.4-22.4
						c-5.3-0.1-10.6-0.1-16-0.2c-14.3-0.1-25.9-11.8-25.9-26.3c0-14.4,11.6-26.5,25.9-26.9c20.4-0.5,40.7-1,61.1-1.4
						c0-6.8,0-13.5,0-20.3c-20.4,0.5-40.7,1.1-61.1,1.9c-25,1-45.3,22.2-45.3,47C1688.1,119.9,1708.4,140.4,1733.4,140.8z"/>
					<path class="st1" d="M1851.1,91c18.8-0.1,37.5-0.1,56.3-0.2c0-6.9,0-13.8,0-20.7c-21.8,0-43.5,0.2-65.3,0.4
						c-8.1,0.1-14.6,7.2-14.6,15.8c0,10,0,20,0,30c22,0,44,0,66.1,0c0-6.9,0-13.7,0-20.6c-15.6,0-31.3,0.1-46.9,0.1
						C1846.5,95.9,1846.6,91.1,1851.1,91z"/>
					<path class="st1" d="M1733.4,92.1c20.3-0.3,40.7-0.5,61.1-0.7c0-6.7,0-13.5,0-20.2c-20.4,0.3-40.7,0.7-61.1,1.2
						c-11.8,0.3-21.4,10.3-21.4,22.3s9.6,21.6,21.4,21.7c5.3,0.1,10.6,0.1,16,0.2c14.3,0,25.9,12.1,25.9,27
						c0,15-11.6,26.9-25.9,26.5c-20.4-0.5-40.8-1.1-61.2-1.8c0,6.5,0,12.9,0,19.4c20.4,0.9,40.8,1.8,61.1,2.4
						c25,1,45.3-19.9,45.3-46.3s-20.3-47.6-45.3-47.3c-5.3,0.1-10.6,0.2-15.9,0.3c-1.3,0-2.3-1-2.3-2.3
						C1731.2,93.2,1732.2,92.1,1733.4,92.1z"/>
					<path class="st1" d="M1893.5,121.2c-22,0-44,0-66.1,0c0,10,0,20,0,30c0,8.6,6.6,15.6,14.7,15.7c21.7,0.2,43.3,0.3,65,0.4
						c0-6.8,0-13.7,0-20.5c-18.7,0-37.3-0.1-56-0.2c0,0-4.5-0.1-4.6-4.9c15.6,0.1,31.3,0.1,46.9,0.2
						C1893.5,135,1893.5,128.1,1893.5,121.2z"/>
					<path class="st1" d="M2118.1,165c-10.2-30.6-20.5-61.7-30.7-93.3c-0.6-1.9-2-3.4-3.8-4.1c-3.3-1.3-6.8,0.4-8,3.8
						c-12.9,39.4-25.9,79.6-38.8,120.1c7.6-0.2,15.1-0.4,22.7-0.6c4.6-14.3,9.2-28.6,13.8-42.7c0,5.9,0,11.9,0,17.8
						C2088.2,165.7,2103.2,165.4,2118.1,165z M2081.5,122.8c2.3,7,4.5,13.9,6.8,20.8c-4.5,0.1-9.1,0.1-13.6,0.2
						C2077,136.7,2079.2,129.7,2081.5,122.8z"/>
					<path class="st1" d="M1961.9,90.8c18.1,0.1,36.2,0.1,54.3,0.3c0-6.8,0-13.6,0-20.3c-21.1-0.3-42.2-0.4-63.3-0.5
						c-8.1,0-14.7,7-14.7,15.7c0,21.9,0,43.7,0,65.6l0,0c0,8.7,6.6,15.8,14.7,15.8c13.2-0.1,26.3-0.2,39.5-0.3c0-15.3,0-30.6,0-45.9
						c-10.2,0-20.4,0-30.6,0c0,6.9,0,13.8,0,20.6c3.8,0,7.6,0,11.3,0c0,1.6,0,3.2,0,4.8c-3.8,0-7.5,0-11.3,0c-2.5,0-4.5-2.2-4.5-4.8
						c0-15.4-0.1-30.7-0.1-46.1C1957.4,95.7,1957.4,90.9,1961.9,90.8z"/>
					<path class="st1" d="M1953,192.8c21.1-0.1,42.2-0.4,63.3-0.8l0,0c5.3-0.1,10.6-0.2,15.8-0.3c13.2-41.4,26.4-82.3,39.6-122.5
						c1.7-4.1,5.5-6.7,9.9-6.6c4.3,0.1,8.2,2.9,9.9,7c11,33.8,22,67,33,99.6c-17,0.5-34,1-51.1,1.4c0,6.7,0,13.3,0,20
						c25.9-0.8,51.8-1.8,77.7-3c-13.5-39.2-26.9-79.6-40.4-120.8c-3.5-12-15.2-21.3-29-21.8c-13.8-0.5-25.5,8.2-29,20.4
						c-12.1,37.1-24.2,74.7-36.3,112.6c0-27.3,0-54.6,0-81.9c-18.1-0.1-36.2-0.2-54.4-0.2c0,6.9,0,13.7,0,20.6c11.7,0,23.4,0,35.1,0
						c0,18.5,0,37,0,55.5c-14.7,0.2-29.3,0.3-44,0.4c-10.6,0.1-19.2-9.2-19.2-20.6c0-21.9,0-43.8,0-65.6c0-11.4,8.6-20.6,19.2-20.6
						c21.1,0.1,42.2,0.3,63.3,0.6c0-6.8,0-13.6,0-20.4c-21.1-0.4-42.3-0.7-63.4-0.8c-21.2-0.1-38.5,18.4-38.5,41.2
						c0,21.9,0,43.8,0,65.6C1914.5,174.4,1931.7,193,1953,192.8z"/>
					<path class="st1" d="M1842,192.3c21.7,0.4,43.4,0.6,65,0.6c0-6.9,0-13.8,0-20.6c-21.7,0-43.3-0.2-65-0.4
						c-10.6-0.1-19.3-9.3-19.3-20.7c0-21.7,0-43.4,0-65c0-11,8.7-20.3,19.3-20.4c21.8-0.2,43.5-0.4,65.3-0.4c0-6.9,0-13.8,0-20.7
						c-21.8,0.1-43.5,0.2-65.3,0.6c-21.3,0.4-38.5,18.9-38.5,41.3c0,21.5,0,43,0,64.5C1803.6,173.3,1820.8,192,1842,192.3z"/>
				</g>
			</g>
		</g>
		<g>
			<rect x="358.6" y="365.8" class="st0" width="78.3" height="129.9"/>
			<rect x="530.8" y="365.8" class="st0" width="78.3" height="129.9"/>
			<rect x="702.9" y="365.8" class="st0" width="78.3" height="129.9"/>
			<rect x="1504.5" y="365.8" class="st0" width="78.3" height="129.9"/>
			<rect x="2735.8" y="365.8" class="st0" width="78.3" height="129.9"/>
			<rect x="2371.8" y="365.8" class="st0" width="78.3" height="129.9"/>
			<polygon class="st0" points="2715,495.7 2612.4,495.7 2573.5,456.8 2620.8,401.5 			"/>
			<rect x="1997.6" y="365.8" class="st0" width="78.3" height="129.9"/>
			<rect x="1738.3" y="365.8" class="st0" width="78.3" height="129.9"/>
			<path class="st0" d="M779.3,354.2H358.6v-44.7h376C759.3,309.5,779.3,329.5,779.3,354.2L779.3,354.2z"/>
			<rect x="824.7" y="309.5" class="st0" width="279.1" height="44.7"/>
			<path class="st0" d="M903,439.4v-11.6h185v-44.7H914.6c-6.4,0-11.6-5.2-11.6-11.6v-5.7h-78.3v17.3v44.7v13.4
				c0,30.1,24.4,54.4,54.4,54.4h224.7v-44.7H914.6C908.2,451,903,445.8,903,439.4z"/>
			<rect x="3219.2" y="309.5" class="st0" width="279.1" height="44.7"/>
			<path class="st0" d="M3297.5,439.4v-11.6h185v-44.7h-173.4c-6.4,0-11.6-5.2-11.6-11.6v-5.7h-78.3v17.3v44.7v13.4
				c0,30.1,24.4,54.4,54.4,54.4h224.7v-44.7h-189.3C3302.7,451,3297.5,445.8,3297.5,439.4z"/>
			<path class="st0" d="M1451.6,354.2h-310.1l0,0c0-24.7,20-44.7,44.7-44.7h265.5L1451.6,354.2L1451.6,354.2z"/>
			<path class="st0" d="M1279.2,383.1v44.7h98c6.4,0,11.6,5.2,11.6,11.6l0,0c0,6.4-5.2,11.6-11.6,11.6h-145.9
				c-6.4,0-11.6-5.2-11.6-11.6v-73.6h-78.3v75.4c0,30.1,24.4,54.5,54.5,54.5h23.8h191.2c31.1,0,56.3-25.2,56.3-56.3l0,0
				c0-31.1-25.2-56.3-56.3-56.3L1279.2,383.1L1279.2,383.1z"/>
			<path class="st0" d="M2245,365.8v73.6c0,6.4-5.2,11.6-11.6,11.6h-145.8v44.7h181.3c30.1,0,54.5-24.4,54.5-54.5v-75.4L2245,365.8
				L2245,365.8z"/>
			<path class="st0" d="M1816.6,354.2h-312l0,0c0-24.7,20-44.7,44.7-44.7h222.6C1796.6,309.5,1816.6,329.5,1816.6,354.2
				L1816.6,354.2z"/>
			<path class="st0" d="M2323.3,354.2h-325.6v-44.7h281C2303.4,309.5,2323.3,329.5,2323.3,354.2L2323.3,354.2z"/>
			<rect x="2735.8" y="309.5" class="st0" width="78.3" height="44.7"/>
			<rect x="1594.5" y="405.5" class="st0" width="199.6" height="52.8"/>
			<path class="st0" d="M2371.8,354.2L2371.8,354.2h233.7v39.7c0,6.4-5.2,11.6-11.6,11.6h-132.2v52.8h162.9
				c35.8,0,65.1-29.3,65.1-65.1v-18.6c0-35.9-29.1-65.1-65.1-65.1h-208.3C2391.8,309.5,2371.8,329.5,2371.8,354.2z"/>
			<circle class="st0" cx="182.5" cy="397.2" r="50"/>
			<circle class="st0" cx="3651.2" cy="397.2" r="50"/>
			<g>
				<polygon class="st0" points="3161.1,354.2 3189.8,309.5 3096.7,309.5 3068,354.2 				"/>
				<polygon class="st0" points="2961.4,354.2 2932.7,309.5 2839.6,309.5 2868.3,354.2 				"/>
				<polygon class="st0" points="3060.5,365.8 3014.7,437 2969,365.8 2875.8,365.8 2959.4,495.7 3070,495.7 3153.6,365.8 				"/>
			</g>
		</g>
	</g>
</g>
</svg>
