<?xml version="1.0" encoding="utf-8"?>
<!-- Generator: Adobe Illustrator 26.0.3, SVG Export Plug-In . SVG Version: 6.00 Build 0)  -->
<svg version="1.1" id="Layer_1" xmlns="http://www.w3.org/2000/svg" xmlns:xlink="http://www.w3.org/1999/xlink" x="0px" y="0px"
	 viewBox="0 0 3839 472.7" style="enable-background:new 0 0 3839 472.7;" xml:space="preserve">
<style type="text/css">
	.st0{clip-path:url(#SVGID_00000170990638574222358160000001748785535869713068_);fill:#F02622;}
	.st1{clip-path:url(#SVGID_00000170990638574222358160000001748785535869713068_);fill:#DA221F;}
	.st2{fill:#FFFFFF;}
	.st3{fill:#034693;}
	.st4{clip-path:url(#SVGID_00000041259570304729454770000001359676922893075614_);fill:#FF0025;}
	.st5{clip-path:url(#SVGID_00000041259570304729454770000001359676922893075614_);fill:#E8001C;}
	.st6{clip-path:url(#SVGID_00000041259570304729454770000001359676922893075614_);fill:#DA221F;}
	.st7{clip-path:url(#SVGID_00000041259570304729454770000001359676922893075614_);fill:#F02622;}
	.st8{clip-path:url(#SVGID_00000003105020176242338350000008518095074592220294_);fill:#F02622;}
	.st9{clip-path:url(#SVGID_00000003105020176242338350000008518095074592220294_);fill:#DA221F;}
	.st10{fill:#B2B2B2;}
	.st11{clip-path:url(#SVGID_00000183965806155085880360000002982214391608633765_);fill:#FF0025;}
	.st12{clip-path:url(#SVGID_00000183965806155085880360000002982214391608633765_);fill:#E8001C;}
	.st13{clip-path:url(#SVGID_00000183965806155085880360000002982214391608633765_);fill:#DA221F;}
	.st14{clip-path:url(#SVGID_00000183965806155085880360000002982214391608633765_);fill:#F02622;}
	.st15{clip-path:url(#SVGID_00000085950740981115400090000009039018262447969664_);fill:#FAD512;}
	.st16{clip-path:url(#SVGID_00000085950740981115400090000009039018262447969664_);fill:#FEBB09;}
	.st17{fill:#DA221F;}
	.st18{clip-path:url(#SVGID_00000138547025159636872340000010112482557951499928_);fill:#FAD512;}
	.st19{clip-path:url(#SVGID_00000138547025159636872340000010112482557951499928_);fill:#E8001C;}
	.st20{clip-path:url(#SVGID_00000138547025159636872340000010112482557951499928_);fill:#FEBB09;}
	.st21{clip-path:url(#SVGID_00000146465991851805977000000003554684227776645013_);fill:#FAD512;}
	.st22{clip-path:url(#SVGID_00000146465991851805977000000003554684227776645013_);fill:#FEBB09;}
	.st23{clip-path:url(#SVGID_00000040542346230700616580000010821077943638139298_);fill:#FF0025;}
	.st24{clip-path:url(#SVGID_00000040542346230700616580000010821077943638139298_);fill:#E8001C;}
	.st25{clip-path:url(#SVGID_00000040542346230700616580000010821077943638139298_);fill:#008ED6;}
	.st26{clip-path:url(#SVGID_00000040542346230700616580000010821077943638139298_);fill:#00A1F2;}
	.st27{clip-path:url(#SVGID_00000062167354561255981380000013118381654726231459_);fill:#FF0025;}
	.st28{clip-path:url(#SVGID_00000062167354561255981380000013118381654726231459_);fill:#E8001C;}
	.st29{clip-path:url(#SVGID_00000062167354561255981380000013118381654726231459_);fill:#008ED6;}
	.st30{clip-path:url(#SVGID_00000062167354561255981380000013118381654726231459_);fill:#00A1F2;}
	.st31{display:none;}
	.st32{display:inline;}
	.st33{clip-path:url(#SVGID_00000053539731248490695570000010320716091393942443_);fill:#F02622;}
	.st34{clip-path:url(#SVGID_00000053539731248490695570000010320716091393942443_);fill:#DA221F;}
	.st35{clip-path:url(#SVGID_00000124859293657396523910000001275826416880523683_);fill:#FF0025;}
	.st36{clip-path:url(#SVGID_00000124859293657396523910000001275826416880523683_);fill:#E8001C;}
	.st37{clip-path:url(#SVGID_00000124859293657396523910000001275826416880523683_);fill:#DA221F;}
	.st38{clip-path:url(#SVGID_00000124859293657396523910000001275826416880523683_);fill:#F02622;}
	.st39{clip-path:url(#SVGID_00000112619046828446652140000015216772467770336662_);fill:#F02622;}
	.st40{clip-path:url(#SVGID_00000112619046828446652140000015216772467770336662_);fill:#DA221F;}
	.st41{clip-path:url(#SVGID_00000054951345810884821720000015970941554480521396_);fill:#FF0025;}
	.st42{clip-path:url(#SVGID_00000054951345810884821720000015970941554480521396_);fill:#E8001C;}
	.st43{clip-path:url(#SVGID_00000054951345810884821720000015970941554480521396_);fill:#DA221F;}
	.st44{clip-path:url(#SVGID_00000054951345810884821720000015970941554480521396_);fill:#F02622;}
	.st45{clip-path:url(#SVGID_00000019662150750517467200000001899792611481745044_);fill:#FAD512;}
	.st46{clip-path:url(#SVGID_00000019662150750517467200000001899792611481745044_);fill:#FEBB09;}
	.st47{clip-path:url(#SVGID_00000026884864788705267220000002846164956609432239_);fill:#FAD512;}
	.st48{clip-path:url(#SVGID_00000026884864788705267220000002846164956609432239_);fill:#E8001C;}
	.st49{clip-path:url(#SVGID_00000026884864788705267220000002846164956609432239_);fill:#FEBB09;}
	.st50{clip-path:url(#SVGID_00000132066661944545152960000006249914445821206699_);fill:#FF0025;}
	.st51{clip-path:url(#SVGID_00000132066661944545152960000006249914445821206699_);fill:#E8001C;}
	.st52{clip-path:url(#SVGID_00000132066661944545152960000006249914445821206699_);fill:#FF981D;}
	.st53{clip-path:url(#SVGID_00000132066661944545152960000006249914445821206699_);fill:#FFAF22;}
	.st54{clip-path:url(#SVGID_00000132066661944545152960000006249914445821206699_);fill:#FAD512;}
	.st55{clip-path:url(#SVGID_00000132066661944545152960000006249914445821206699_);fill:#FEBB09;}
	.st56{clip-path:url(#SVGID_00000016784682009082262660000005073576657648107661_);fill:#FF0025;}
	.st57{clip-path:url(#SVGID_00000016784682009082262660000005073576657648107661_);fill:#E8001C;}
	.st58{clip-path:url(#SVGID_00000016784682009082262660000005073576657648107661_);fill:#008ED6;}
	.st59{clip-path:url(#SVGID_00000016784682009082262660000005073576657648107661_);fill:#00A1F2;}
	.st60{clip-path:url(#SVGID_00000014610141053588954860000014335370155100806327_);fill:#FF0025;}
	.st61{clip-path:url(#SVGID_00000014610141053588954860000014335370155100806327_);fill:#E8001C;}
	.st62{clip-path:url(#SVGID_00000014610141053588954860000014335370155100806327_);fill:#008ED6;}
	.st63{clip-path:url(#SVGID_00000014610141053588954860000014335370155100806327_);fill:#00A1F2;}
</style>
<g>
	<g>
		<g>
			<path d="M517.5,159.7l-12.2-5.2c0.7-2.4,1.5-5.2,1.5-8.2c0-7.6-71.4-48.5-195.1-48.5c-118.2,0-169.1,28.1-169.1,64.2
				c0,95.8,447-44.3,447,167c0,77-97.1,136.7-291.5,136.7c-185.1,0-238.2-45.5-255.8-45.5c-4.6,0-6.8,3-10.6,4.6L22,423l63-99.2
				l12.2,4.6c0,2.4-1.5,4.6-1.5,9.4c0,34.5,97.8,58.9,195.1,58.9c138.1,0,185.1-30.3,185.1-62.5c0-114.4-440.9,27.5-440.9-166.4
				C34.9,69.9,169.2,29,316.4,29c132,0,224.7,44.3,233.8,44.3c9.8,0,11.4-2.4,13.7-4l12.2,3L517.5,159.7z"/>
			<path d="M611.6,451.6c16.7,0,19.8-4.6,19.8-17.5V60.5c0-12.8-3-17.5-19.8-17.5v-8.2h492.5c18.1,0,25.9-4.6,25.9-12.8h10.6v97
				H1130c0-10.6-7.6-15.2-25.9-15.2H739.2v103.9h238.2c18.1,0,25.9-4.6,25.9-15.2h10.6v98.1h-10.6c0-4.6-1.5-8.2-6.1-10.6
				c-3.9-2.4-10.6-3.6-19.8-3.6H739.2v114.4h371.9c18.1,0,25.9-4.6,25.9-14h10.6v95.8H1137c0-8.2-7.6-12.8-25.9-12.8H611.6V451.6z"
				/>
			<path d="M1784.1,235.7v8.2c-7.6,1.2-14.4,5.8-14.4,18.7v114.9c0,9.4,3.9,12.8,13.7,14.6v8.2c-47.9,21-164.6,65.4-295.9,65.4
				c-174.6,0-327.9-66.6-327.9-218.3s179-218.4,337-218.4c62.2,0,121.5,11.2,164.6,21.6c40.1,13.4,69.9,23.9,75.1,23.9
				c6.8,0,13.7-3,16.7-6.4l10.6,3.6l-73.6,95.8l-10.6-5.2c0.7-2.4,1.5-5.8,1.5-10c0-18.1-81.9-54.3-182.9-54.3
				c-127.4,0-230.6,48.5-230.6,147.1c0,103.3,103.2,151.8,220.1,151.8c95.6,0,151.8-25.1,174.6-37.9v-48.5h-130.6
				c-15.2,0-24.2,5.8-24.2,14h-10.6V221.7h10.6c0,8.2,9.1,14,24.2,14L1784.1,235.7L1784.1,235.7z"/>
			<path d="M1785.6,459.8v-8.2c13.7-0.6,18.1-3.6,28.8-22.2l207.1-358.4c3.9-5.8,8.3-12.2,8.3-17.5c0-6.4-6.1-9.4-15.9-10.6v-8.2
				h165.5V43c-11.4,1.2-15.9,4.6-15.9,8.8c0,4.6,3,9.4,6.8,15.2l220.1,362.5c10.6,18.1,13.7,22.2,29.6,22.2v8.2H2269v-8.2
				c9.8,0,13.7-3,13.7-5.8c0-6.4-6.8-14.6-57.7-98h-260.2c-44,75.8-55.5,87.6-55.5,95.2c0,5.2,4.6,8.2,11.4,8.8v8.2h-135.2V459.8z
				 M2181,281.2l-91-153l-89.5,153H2181z"/>
			<path d="M3103.8,163.3l-11.4-4.6c0.7-3.6,0.7-6.4,0.7-9.4c0-14-91.7-51.3-186.6-51.3c-120.6,0-229.1,42.1-229.1,149.4
				s108.6,149.4,238.2,149.4c105.4,0,195.8-45.5,195.8-71.8c0-3-1.5-8.2-3-10.6l7.6-4l78.2,85.8l-6.1,2.4c-2.2-1.2-6.8-1.8-9.1-1.8
				c-22.8,0-81.2,68.8-272.4,68.8c-169.2,0-337-64.8-337-218.3c0-136.7,156.3-218.3,342.3-218.3c133.5,0,223.1,45.5,239.1,45.5
				c7.6,0,12.2-0.6,17.4-7l10.6,3L3103.8,163.3z"/>
			<path d="M3250.1,60.5c0-12.8-3-17.5-21.3-17.5v-8.2h335.5c192.7,0,274.7,84.6,274.7,212.5c0,141.3-101.7,212.5-258,212.5h-352.1
				v-8.2c18.1,0,21.3-4.6,21.3-17.5V60.5z M3358,390.9H3581c94.1,0,150.2-37.3,150.2-143.6c0-113.3-75.8-143.6-176.1-143.6h-197.3
				v287.3H3358z"/>
		</g>
		<g>
			<path class="st2" d="M495.5,137.7l-12.2-5.2c0.7-2.4,1.5-5.2,1.5-8.2c0-7.6-71.4-48.5-195.1-48.5c-118.2,0-169.1,28.1-169.1,64.2
				c0,95.8,447-44.3,447,167c0,77-97.1,136.7-291.5,136.7c-185.1,0-238.2-45.5-255.8-45.5c-4.6,0-6.8,3-10.6,4.6L0,401l63-99.2
				l12.2,4.6c0,2.4-1.5,4.6-1.5,9.4c0,34.5,97.8,58.9,195.1,58.9c138.1,0,185.1-30.3,185.1-62.5c0-114.4-440.9,27.5-440.9-166.4
				C12.9,47.9,147.2,7,294.4,7c132,0,224.7,44.3,233.8,44.3c9.8,0,11.5-2.4,13.7-4l12.2,3L495.5,137.7z"/>
			<path class="st2" d="M589.6,429.6c16.7,0,19.8-4.6,19.8-17.5V38.5c0-12.8-3-17.5-19.8-17.5v-8.2h492.5c18.1,0,25.9-4.6,25.9-12.8
				h10.6v97H1108c0-10.6-7.6-15.2-25.9-15.2H717.2v103.9h238.2c18.1,0,25.9-4.6,25.9-15.2h10.6v98.1h-10.6c0-4.6-1.5-8.2-6.1-10.6
				c-3.9-2.4-10.6-3.6-19.8-3.6H717.2v114.4h371.9c18.1,0,25.9-4.6,25.9-14h10.6v95.8H1115c0-8.2-7.6-12.8-25.9-12.8H589.6V429.6z"
				/>
			<path class="st2" d="M1762.1,213.7v8.2c-7.6,1.2-14.4,5.8-14.4,18.7v114.9c0,9.4,3.9,12.8,13.7,14.6v8.2
				c-47.9,21-164.6,65.4-295.9,65.4c-174.6,0-327.9-66.6-327.9-218.3S1316.6,7,1474.5,7c62.2,0,121.5,11.2,164.6,21.6
				c40.1,13.4,69.9,23.9,75.1,23.9c6.8,0,13.7-3,16.7-6.4l10.6,3.6l-73.6,95.8l-10.6-5.2c0.7-2.4,1.5-5.8,1.5-10
				c0-18.1-81.9-54.3-182.9-54.3c-127.4,0-230.6,48.5-230.6,147.1c0,103.3,103.2,151.8,220.1,151.8c95.6,0,151.8-25.1,174.6-37.9
				v-48.5h-130.6c-15.2,0-24.2,5.8-24.2,14h-10.6V199.7h10.6c0,8.2,9.1,14,24.2,14L1762.1,213.7L1762.1,213.7z"/>
			<path class="st2" d="M1763.6,437.8v-8.2c13.7-0.6,18.1-3.6,28.8-22.2l207.1-358.4c3.9-5.8,8.3-12.2,8.3-17.5
				c0-6.4-6.1-9.4-15.9-10.6v-8.2h165.5V21c-11.4,1.2-15.9,4.6-15.9,8.8c0,4.6,3,9.4,6.8,15.2l220.1,362.5
				c10.6,18.1,13.7,22.2,29.6,22.2v8.2H2247v-8.2c9.8,0,13.7-3,13.7-5.8c0-6.4-6.8-14.6-57.7-98h-260.2
				c-44,75.8-55.5,87.6-55.5,95.2c0,5.2,4.6,8.2,11.4,8.8v8.2h-135.2V437.8z M2159,259.2l-91-153l-89.5,153H2159z"/>
			<path class="st2" d="M3081.8,141.3l-11.4-4.6c0.7-3.6,0.7-6.4,0.7-9.4c0-14-91.7-51.3-186.6-51.3
				c-120.6,0-229.1,42.1-229.1,149.4s108.6,149.4,238.2,149.4c105.4,0,195.8-45.5,195.8-71.8c0-3-1.5-8.2-3-10.6l7.6-4l78.2,85.8
				l-6.1,2.4c-2.2-1.2-6.8-1.8-9.1-1.8c-22.8,0-81.2,68.8-272.4,68.8c-169.2,0-337-64.8-337-218.3C2547.7,88.8,2704,7.1,2890,7.1
				c133.5,0,223.1,45.5,239.1,45.5c7.6,0,12.2-0.6,17.4-7l10.6,3L3081.8,141.3z"/>
			<path class="st2" d="M3228.2,38.5c0-12.8-3-17.5-21.3-17.5v-8.2h335.5c192.7,0,274.7,84.6,274.7,212.5
				c0,141.3-101.7,212.5-258,212.5h-352.1v-8.2c18.1,0,21.3-4.6,21.3-17.5V38.5z M3336,368.9H3559c94.1,0,150.2-37.3,150.2-143.6
				c0-113.3-75.8-143.6-176.1-143.6h-197.3v287.3H3336z"/>
		</g>
	</g>
</g>
</svg>
