<?xml version="1.0" encoding="utf-8"?>
<!-- Generator: Adobe Illustrator 26.0.3, SVG Export Plug-In . SVG Version: 6.00 Build 0)  -->
<svg version="1.1" id="Layer_1" xmlns="http://www.w3.org/2000/svg" xmlns:xlink="http://www.w3.org/1999/xlink" x="0px" y="0px"
	 viewBox="0 0 3839 476.7" style="enable-background:new 0 0 3839 476.7;" xml:space="preserve">
<style type="text/css">
	.st0{clip-path:url(#SVGID_00000001637781581560573580000002141773126324467613_);fill:#FAD512;}
	.st1{clip-path:url(#SVGID_00000015342159314118532940000011607266687178978945_);fill:#FEBB09;}
	.st2{clip-path:url(#SVGID_00000039119762087759256380000005667471695851008147_);fill:#FAD512;}
	.st3{clip-path:url(#SVGID_00000161618201431603843840000003691960641606344599_);fill:#FEBB09;}
	.st4{clip-path:url(#SVGID_00000103985988484684300110000004705502108346444968_);fill:#FAD512;}
	.st5{clip-path:url(#SVGID_00000115480772232573885370000001173716745083692945_);fill:#FEBB09;}
	.st6{clip-path:url(#SVGID_00000036968278997740316320000014508680519988000156_);fill:#FAD512;}
	.st7{clip-path:url(#SVGID_00000179648072491497854660000015510759063082342068_);fill:#FEBB09;}
	.st8{clip-path:url(#SVGID_00000022551791656354537520000016527441930065835697_);fill:#FAD512;}
	.st9{clip-path:url(#SVGID_00000040571013440876514750000001514749081404176831_);fill:#FEBB09;}
	.st10{clip-path:url(#SVGID_00000006673378203884834600000018041144460707140284_);fill:#FAD512;}
	.st11{fill:#FFFFFF;}
	.st12{fill:#034693;}
	.st13{fill:#DA221F;}
</style>
<g>
	<g>
		<g>
			<defs>
				<rect id="SVGID_1_" width="3839" height="476.7"/>
			</defs>
			<clipPath id="SVGID_00000090979177042991239360000010494393540312916877_">
				<use xlink:href="#SVGID_1_"  style="overflow:visible;"/>
			</clipPath>
			<polygon style="clip-path:url(#SVGID_00000090979177042991239360000010494393540312916877_);fill:#FAD512;" points="
				427.2,-425.7 21.9,-425.7 676,508.5 1081.4,508.5 			"/>
		</g>
		<g>
			<defs>
				<rect id="SVGID_00000129921580051272951190000009323748960013866887_" width="3839" height="476.7"/>
			</defs>
			<clipPath id="SVGID_00000090996820719595519240000007930333364074723470_">
				<use xlink:href="#SVGID_00000129921580051272951190000009323748960013866887_"  style="overflow:visible;"/>
			</clipPath>
			<polygon style="clip-path:url(#SVGID_00000090996820719595519240000007930333364074723470_);fill:#FEBB09;" points="21.9,-425.7 
				-383.5,-425.7 270.6,508.5 676,508.5 			"/>
		</g>
		<g>
			<defs>
				<rect id="SVGID_00000089563884361873910630000011735963929078665406_" width="3839" height="476.7"/>
			</defs>
			<clipPath id="SVGID_00000141427026586693083970000012840581356020381084_">
				<use xlink:href="#SVGID_00000089563884361873910630000011735963929078665406_"  style="overflow:visible;"/>
			</clipPath>
			<polygon style="clip-path:url(#SVGID_00000141427026586693083970000012840581356020381084_);fill:#FAD512;" points="
				-383.5,-425.7 -788.8,-425.7 -134.7,508.5 270.6,508.5 			"/>
		</g>
		<g>
			<defs>
				<rect id="SVGID_00000065772577625025486490000014305284595843113130_" width="3839" height="476.7"/>
			</defs>
			<clipPath id="SVGID_00000062873242696314473330000006825141855422384306_">
				<use xlink:href="#SVGID_00000065772577625025486490000014305284595843113130_"  style="overflow:visible;"/>
			</clipPath>
			<polygon style="clip-path:url(#SVGID_00000062873242696314473330000006825141855422384306_);fill:#FEBB09;" points="
				832.6,-425.7 427.2,-425.7 1081.4,508.5 1486.7,508.5 			"/>
		</g>
		<g>
			<defs>
				<rect id="SVGID_00000070090738877530604300000010914829797369943684_" width="3839" height="476.7"/>
			</defs>
			<clipPath id="SVGID_00000054232311996444664200000000065993212528708515_">
				<use xlink:href="#SVGID_00000070090738877530604300000010914829797369943684_"  style="overflow:visible;"/>
			</clipPath>
			<polygon style="clip-path:url(#SVGID_00000054232311996444664200000000065993212528708515_);fill:#FAD512;" points="1238,-425.7 
				832.6,-425.7 1486.7,508.5 1892.1,508.5 			"/>
		</g>
		<g>
			<defs>
				<rect id="SVGID_00000121962612715694478410000005596777193414511025_" width="3839" height="476.7"/>
			</defs>
			<clipPath id="SVGID_00000140005218806463231060000007630468824650537913_">
				<use xlink:href="#SVGID_00000121962612715694478410000005596777193414511025_"  style="overflow:visible;"/>
			</clipPath>
			<polygon style="clip-path:url(#SVGID_00000140005218806463231060000007630468824650537913_);fill:#FEBB09;" points="
				1643.3,-425.7 1238,-425.7 1892.1,508.5 2297.4,508.5 			"/>
		</g>
		<g>
			<defs>
				<rect id="SVGID_00000011023852897070157750000014170512477143726744_" width="3839" height="476.7"/>
			</defs>
			<clipPath id="SVGID_00000051366857866090881570000017876146116684047759_">
				<use xlink:href="#SVGID_00000011023852897070157750000014170512477143726744_"  style="overflow:visible;"/>
			</clipPath>
			<polygon style="clip-path:url(#SVGID_00000051366857866090881570000017876146116684047759_);fill:#FAD512;" points="
				2048.7,-425.7 1643.3,-425.7 2297.4,508.5 2702.8,508.5 			"/>
		</g>
		<g>
			<defs>
				<rect id="SVGID_00000007416204727921991120000009787034223544812936_" width="3839" height="476.7"/>
			</defs>
			<clipPath id="SVGID_00000142142895941655635510000005328227492868153240_">
				<use xlink:href="#SVGID_00000007416204727921991120000009787034223544812936_"  style="overflow:visible;"/>
			</clipPath>
			<polygon style="clip-path:url(#SVGID_00000142142895941655635510000005328227492868153240_);fill:#FEBB09;" points="2454,-425.7 
				2048.7,-425.7 2702.8,508.5 3108.1,508.5 			"/>
		</g>
		<g>
			<defs>
				<rect id="SVGID_00000120547403817352675490000005620548008613686408_" width="3839" height="476.7"/>
			</defs>
			<clipPath id="SVGID_00000124155829876345882950000011230801274486196908_">
				<use xlink:href="#SVGID_00000120547403817352675490000005620548008613686408_"  style="overflow:visible;"/>
			</clipPath>
			<polygon style="clip-path:url(#SVGID_00000124155829876345882950000011230801274486196908_);fill:#FAD512;" points="
				2859.4,-425.7 2454,-425.7 3108.1,508.5 3513.5,508.5 			"/>
		</g>
		<g>
			<defs>
				<rect id="SVGID_00000083777102492087458180000012413407094001031552_" width="3839" height="476.7"/>
			</defs>
			<clipPath id="SVGID_00000108304024213529901240000011936712168292951721_">
				<use xlink:href="#SVGID_00000083777102492087458180000012413407094001031552_"  style="overflow:visible;"/>
			</clipPath>
			<polygon style="clip-path:url(#SVGID_00000108304024213529901240000011936712168292951721_);fill:#FEBB09;" points="
				3264.7,-425.7 2859.4,-425.7 3513.5,508.5 3918.8,508.5 			"/>
		</g>
		<g>
			<defs>
				<rect id="SVGID_00000046297349259848165680000003039720357279227283_" width="3839" height="476.7"/>
			</defs>
			<clipPath id="SVGID_00000001645118490714254800000014454254877973115273_">
				<use xlink:href="#SVGID_00000046297349259848165680000003039720357279227283_"  style="overflow:visible;"/>
			</clipPath>
			<polygon style="clip-path:url(#SVGID_00000001645118490714254800000014454254877973115273_);fill:#FAD512;" points="
				3670.1,-425.7 3264.7,-425.7 3918.8,508.5 4324.2,508.5 			"/>
		</g>
	</g>
	<g>
		<path class="st11" d="M3756.5,399.2c13.5-4.2,23.1-17,23.1-31.6s-9.6-27.4-23.1-31.6l-33.1-11.2h54.3v-58.6
			c0-10.4-4.2-20-11.2-27.4h11.2v-60.1c0-11.2-4.6-21.2-12.3-28.5h12.3v-57c0-24.3-20-44.3-44.3-44.3c-11.6,0-22.3,4.6-30.1,11.9V49
			h-51.6v57c0,16.2,8.5,30,21.6,38.1c-12.7,6.6-21.6,19.6-21.6,35.1v60.5h11.2c-6.9,6.9-11.2,16.6-11.2,27.4v167.2L3756.5,399.2z"/>
		<g>
			<g>
				<path class="st12" d="M3694.1,106V57.9h-15V106c0,9.2,7.7,16.9,16.9,16.9s16.9-7.7,16.9-16.9V93.7c0-11.2,9.2-20.4,20.4-20.4
					s20.4,9.3,20.4,20.4v47.8h15V93.3c0-19.6-15.8-35.4-35.4-35.4s-35.4,15.8-35.4,35.4v12.3c0,1.2-0.8,1.9-1.9,1.9
					C3694.9,107.6,3694.1,106.8,3694.1,106z"/>
				<path class="st12" d="M3734.9,93.3v48.2h15.4V93.3c0-9.2-7.7-16.9-16.9-16.9s-16.9,7.7-16.9,16.9v12.3
					c0,11.2-9.2,20.4-20.4,20.4s-20.4-9.2-20.4-20.4V57.9h-15V106c0,19.6,15.8,35.4,35.4,35.4c19.6,0,35.4-15.8,35.4-35.4V93.7
					c0-1.2,0.8-1.9,1.9-1.9C3734.2,91.8,3734.9,92.6,3734.9,93.3z"/>
			</g>
			<g>
				<path class="st12" d="M3750.3,266.3c0-6.6-5-11.6-11.6-11.6h-48.2c-6.6,0-11.6,5-11.6,11.6v31.2h33.9v-23.9h-15v8.9h-3.5v-8.9
					c0-1.9,1.5-3.5,3.5-3.5h33.9c1.9,0,3.5,1.5,3.5,3.5v42.8h15v-50.1H3750.3z"/>
				<path class="st12" d="M3679.1,361.1v35.1l70.9-23.9c1.9-0.8,3.5-2.3,3.5-4.6c0-1.9-1.5-3.9-3.1-4.6l-89.8-30.8V350l32,10.8
					h-13.5L3679.1,361.1L3679.1,361.1z M3711.4,367.2l-15.4,5v-10.4L3711.4,367.2z"/>
				<path class="st12" d="M3753,390.7c10-3.1,17.7-12.3,17.7-23.5s-7.3-20.4-17.3-23.1L3671,316h60.5v-42.4h-15v27.7h-40.8v-34.7
					c0-8.5,6.9-15,15-15h48.1c8.5,0,15,6.9,15,15v49.7h15v-50.1c0-16.6-13.5-30-30-30h-48.2c-16.6,0-30,13.5-30,30v62l90.5,31.2
					c3.5,1.2,5.8,4.2,5.8,8.1s-2.3,6.9-5.8,8.1l-75.5,25.4v-40.1h-15v60.9l0,0L3753,390.7z"/>
			</g>
			<g>
				<path class="st12" d="M3675.6,178.9c0-8.5,6.9-15,15-15h48.2c8.5,0,15,6.9,15,15v51.6h15v-51.6c0-16.6-13.5-30-30-30h-48.2
					c-16.6,0-30,13.5-30,30v51.6h15V178.9L3675.6,178.9z"/>
				<path class="st12" d="M3697.6,182.3v37.4h15v-52.4h-22.3c-6.6,0-11.6,5-11.6,11.6v51.6h15v-44.7
					C3694.1,183.9,3695.6,182.3,3697.6,182.3z"/>
				<path class="st12" d="M3731.5,219.7v-37.4c1.9,0,3.5,1.5,3.5,3.5v44.3h15.4v-51.2c0-6.6-5-11.6-11.6-11.6h-22.3v52.4
					C3716.4,219.7,3731.5,219.7,3731.5,219.7z"/>
			</g>
		</g>
	</g>
	<g>
		<path d="M397.2,205.6l-7.3-3.1c0.4-1.4,0.9-3.1,0.9-4.9c0-4.5-42.5-28.9-116.2-28.9c-70.4,0-100.7,16.7-100.7,38.3
			c0,57,266.2-26.4,266.2,99.4c0,45.9-57.8,81.4-173.6,81.4c-110.2,0-141.9-27.1-152.3-27.1c-2.7,0-4.1,1.8-6.3,2.7l-5.8-1.1
			l37.5-59.1l7.3,2.7c0,1.4-0.9,2.7-0.9,5.6c0,20.5,58.3,35.1,116.2,35.1c82.3,0,110.2-18.1,110.2-37.2
			c0-68.1-262.6,16.4-262.6-99.1c-0.1-58.4,79.9-82.7,167.5-82.7c78.6,0,133.8,26.4,139.2,26.4c5.8,0,6.8-1.4,8.1-2.4l7.3,1.8
			L397.2,205.6z"/>
		<path d="M453.3,379.4c9.9,0,11.8-2.7,11.8-10.4V146.5c0-7.6-1.8-10.4-11.8-10.4v-4.9h293.3c10.8,0,15.4-2.7,15.4-7.6h6.3v57.7H762
			c0-6.3-4.5-9-15.4-9H529.3v61.9h141.9c10.8,0,15.4-2.7,15.4-9h6.3v58.4h-6.3c0-2.7-0.9-4.9-3.6-6.3c-2.3-1.4-6.3-2.1-11.8-2.1
			H529.3v68.1h221.5c10.8,0,15.4-2.7,15.4-8.3h6.3v57h-6.3c0-4.9-4.5-7.6-15.4-7.6H453.3V379.4z"/>
		<path d="M1151.5,250.8v4.9c-4.5,0.7-8.6,3.5-8.6,11.2v68.5c0,5.6,2.3,7.6,8.1,8.7v4.9c-28.5,12.5-98,39-176.2,39
			c-104,0-195.3-39.7-195.3-130s106.6-130.1,200.7-130.1c37,0,72.3,6.6,98,12.8c23.9,8,41.6,14.3,44.7,14.3c4.1,0,8.1-1.8,9.9-3.8
			l6.3,2.1l-43.8,57l-6.3-3.1c0.4-1.4,0.9-3.5,0.9-5.9c0-10.8-48.8-32.3-108.9-32.3c-75.9,0-137.3,28.9-137.3,87.6
			c0,61.5,61.5,90.4,131.1,90.4c56.9,0,90.4-15,104-22.6v-28.9H1001c-9,0-14.4,3.5-14.4,8.3h-6.3v-61.2h6.3c0,4.9,5.4,8.3,14.4,8.3
			L1151.5,250.8L1151.5,250.8z"/>
		<path d="M1152.4,384.3v-4.9c8.1-0.4,10.8-2.1,17.2-13.2L1293,152.8c2.3-3.5,5-7.3,5-10.4c0-3.8-3.6-5.6-9.5-6.3v-4.9h98.6v4.9
			c-6.8,0.7-9.5,2.7-9.5,5.2c0,2.7,1.8,5.6,4.1,9l131.1,215.9c6.3,10.8,8.1,13.2,17.6,13.2v4.9h-90v-4.9c5.8,0,8.1-1.8,8.1-3.5
			c0-3.8-4.1-8.7-34.4-58.4h-155c-26.2,45.2-33,52.2-33,56.7c0,3.1,2.7,4.9,6.8,5.2v4.9L1152.4,384.3L1152.4,384.3z M1387.9,277.9
			l-54.2-91.1l-53.3,91.1H1387.9z"/>
		<path d="M1937.4,207.7l-6.8-2.7c0.4-2.1,0.4-3.8,0.4-5.6c0-8.3-54.6-30.6-111.1-30.6c-71.8,0-136.5,25.1-136.5,89
			s64.6,89,141.9,89c62.8,0,116.6-27.1,116.6-42.8c0-1.8-0.9-4.9-1.8-6.3l4.5-2.4l46.6,51.1l-3.6,1.4c-1.3-0.7-4.1-1.1-5.4-1.1
			c-13.5,0-48.4,41-162.2,41c-100.8,0-200.7-38.6-200.7-130c0-81.4,93.1-130,203.8-130c79.5,0,132.8,27.1,142.4,27.1
			c4.5,0,7.3-0.4,10.4-4.2l6.3,1.8L1937.4,207.7z"/>
		<path d="M2024.6,146.5c0-7.6-1.8-10.4-12.7-10.4v-4.9h199.8c114.8,0,163.6,50.4,163.6,126.5c0,84.1-60.6,126.5-153.6,126.5H2012
			v-4.9c10.8,0,12.7-2.7,12.7-10.4L2024.6,146.5L2024.6,146.5z M2088.8,343.3h132.8c56.1,0,89.4-22.2,89.4-85.5
			c0-67.5-45.2-85.5-104.8-85.5h-117.5L2088.8,343.3L2088.8,343.3z"/>
		<path d="M2614.3,222.7h6.3c1.8,5.9,9,8.7,34.4,8.7c61.9,0,78.6-15.7,78.6-30.6c0-16-21.7-32-69.2-32c-61,0-103.1,25.7-103.1,37.2
			c0,2.4,0.9,4.5,1.8,6.3l-5.4,3.5l-47.8-48.4l6.3-2.7c1.8,1.1,4.1,2.1,6.8,2.1c13.1,0,40.6-39,145.5-39
			c73.7,0,129.3,30.6,129.3,70.6c0,23.6-16.7,42.1-45.6,48.7v0.7c38,10.4,64.2,30.3,64.2,63.2c0,44.8-56.9,76.9-144.6,76.9
			c-118,0-143.7-31.3-159-31.3c-3.6,0-6.3,1.4-9,3.1l-7.3-2.1l36.1-59.8l6.8,3.1c0,1.1-0.4,2.4-0.4,4.2c0,13.5,50.1,41.7,125.2,41.7
			c56.9,0,88.1-15.3,88.1-37.2c0-19.1-23.5-39.9-89-39.9c-33.9,0-41.1,3.8-42.5,10.1h-6.3v-57.1L2614.3,222.7L2614.3,222.7z"/>
		<path d="M2828,179.2l6.3-3.8c0.9,1.1,2.7,1.8,5.4,1.8c12.7,0,46.6-49.3,142.8-49.3c56.1,0,126.1,24.7,126.1,73
			c0,92.4-172.6,82.7-218.7,141.2h217.8c9.9,0,13.5-2.7,13.5-8.3h6.3V392h-6.3c0-4.9-3.6-7.6-13.5-7.6h-290.1
			c0-126.9,226.9-121.3,226.9-181.1c0-22.6-33.9-34.4-64.6-34.4c-52-0.1-96.3,33.3-96.3,48.6c0,3.1,1.8,5.2,3.6,7l-5.8,4.2
			L2828,179.2z"/>
		<path d="M3144.4,384.3v-4.9c11.3-0.7,14.4-5.9,23-14.6l113-111.6l-106.6-109.1c-2.7-2.7-6.8-8-18.1-8v-5h106.6v4.9
			c-5.8,0-9.5,1.4-9.5,4.9c0,1.4,2.3,4.2,6.8,8.7l61.5,63.2l64.2-63.6c3.6-3.8,6.3-6.6,6.3-8.7c0-2.7-3.6-4.5-7.7-4.5v-4.9h100.3
			v4.9c-14.9,0.4-20.8,6.3-29.4,14.6l-98.6,97.7l113.9,116.4c9,9.4,12.2,14.3,24.4,14.6v4.9h-105.7v-4.9c6.8,0,8.6-1.1,8.6-4.5
			c0-3.1-7.7-10.1-16.3-18.8l-66-67.1l-80,79.3c-2.3,2.4-4.1,3.5-4.1,6.6c0,2.7,3.6,4.5,9.5,4.5v4.9h-96.1V384.3z"/>
	</g>
	<g>
		<path class="st13" d="M384.1,192.5l-7.3-3.1c0.4-1.4,0.9-3.1,0.9-4.9c0-4.5-42.5-28.9-116.2-28.9c-70.4,0-100.7,16.7-100.7,38.3
			c0,57,266.2-26.4,266.2,99.4c0,45.9-57.8,81.4-173.6,81.4c-110.2,0-141.9-27.1-152.3-27.1c-2.7,0-4.1,1.8-6.3,2.7l-5.8-1.1
			l37.5-59.1l7.3,2.7c0,1.4-0.9,2.7-0.9,5.6c0,20.5,58.3,35.1,116.2,35.1c82.3,0,110.2-18.1,110.2-37.2
			c0-68.1-262.6,16.4-262.6-99.1c-0.1-58.4,79.9-82.7,167.5-82.7c78.6,0,133.8,26.4,139.2,26.4c5.8,0,6.8-1.4,8.1-2.4l7.3,1.8
			L384.1,192.5z"/>
		<path class="st13" d="M440.2,366.3c9.9,0,11.8-2.7,11.8-10.4V133.4c0-7.6-1.8-10.4-11.8-10.4v-4.9h293.3c10.8,0,15.4-2.7,15.4-7.6
			h6.3v57.7h-6.3c0-6.3-4.5-9-15.4-9H516.2v61.9H658c10.8,0,15.4-2.7,15.4-9h6.3v58.4h-6.3c0-2.7-0.9-4.9-3.6-6.3
			c-2.3-1.4-6.3-2.1-11.8-2.1H516.2v68.1h221.5c10.8,0,15.4-2.7,15.4-8.3h6.3v57h-6.3c0-4.9-4.5-7.6-15.4-7.6H440.2V366.3z"/>
		<path class="st13" d="M1138.4,237.7v4.9c-4.5,0.7-8.6,3.5-8.6,11.2v68.5c0,5.6,2.3,7.6,8.1,8.7v4.9c-28.5,12.5-98,39-176.2,39
			c-104,0-195.3-39.7-195.3-130S873,114.8,967.1,114.8c37,0,72.3,6.6,98,12.8c23.9,8,41.6,14.3,44.7,14.3c4.1,0,8.1-1.8,9.9-3.8
			l6.3,2.1l-43.8,57l-6.3-3.1c0.4-1.4,0.9-3.5,0.9-5.9c0-10.8-48.8-32.3-108.9-32.3c-75.9,0-137.3,28.9-137.3,87.6
			c0,61.5,61.5,90.4,131.1,90.4c56.9,0,90.4-15,104-22.6v-28.9H988c-9,0-14.4,3.5-14.4,8.3h-6.3v-61.2h6.3c0,4.9,5.4,8.3,14.4,8.3
			L1138.4,237.7L1138.4,237.7z"/>
		<path class="st13" d="M1139.3,371.2v-4.9c8.1-0.4,10.8-2.1,17.2-13.2l123.4-213.4c2.3-3.5,5-7.3,5-10.4c0-3.8-3.6-5.6-9.5-6.3
			v-4.9h98.6v4.9c-6.8,0.7-9.5,2.7-9.5,5.2c0,2.7,1.8,5.6,4.1,9l131.1,215.9c6.3,10.8,8.1,13.2,17.6,13.2v4.9h-90v-4.9
			c5.8,0,8.1-1.8,8.1-3.5c0-3.8-4.1-8.7-34.4-58.4h-155c-26.2,45.2-33,52.2-33,56.7c0,3.1,2.7,4.9,6.8,5.2v4.9L1139.3,371.2
			L1139.3,371.2z M1374.8,264.8l-54.2-91.1l-53.3,91.1H1374.8z"/>
		<path class="st13" d="M1924.3,194.6l-6.8-2.7c0.4-2.1,0.4-3.8,0.4-5.6c0-8.3-54.6-30.6-111.1-30.6c-71.8,0-136.5,25.1-136.5,89
			s64.6,89,141.9,89c62.8,0,116.6-27.1,116.6-42.8c0-1.8-0.9-4.9-1.8-6.3l4.5-2.4l46.6,51.1l-3.6,1.4c-1.3-0.7-4.1-1.1-5.4-1.1
			c-13.5,0-48.4,41-162.2,41c-100.8,0-200.7-38.6-200.7-130c0-81.4,93.1-130,203.8-130c79.5,0,132.8,27.1,142.4,27.1
			c4.5,0,7.3-0.4,10.4-4.2l6.3,1.8L1924.3,194.6z"/>
		<path class="st13" d="M2011.5,133.4c0-7.6-1.8-10.4-12.7-10.4v-4.9h199.8c114.8,0,163.6,50.4,163.6,126.5
			c0,84.1-60.6,126.5-153.6,126.5h-209.7v-4.9c10.8,0,12.7-2.7,12.7-10.4V133.4H2011.5z M2075.7,330.2h132.8
			c56.1,0,89.4-22.2,89.4-85.5c0-67.5-45.2-85.5-104.8-85.5h-117.5L2075.7,330.2L2075.7,330.2z"/>
		<path class="st13" d="M2601.2,209.6h6.3c1.8,5.9,9,8.7,34.4,8.7c61.9,0,78.6-15.7,78.6-30.6c0-16-21.7-32-69.2-32
			c-61,0-103.1,25.7-103.1,37.2c0,2.4,0.9,4.5,1.8,6.3l-5.4,3.5l-47.8-48.4l6.3-2.7c1.8,1.1,4.1,2.1,6.8,2.1
			c13.1,0,40.6-39,145.5-39c73.7,0,129.3,30.6,129.3,70.6c0,23.6-16.7,42.1-45.6,48.7v0.7c38,10.4,64.2,30.3,64.2,63.2
			c0,44.8-56.9,76.9-144.6,76.9c-118,0-143.7-31.3-159-31.3c-3.6,0-6.3,1.4-9,3.1l-7.3-2.1l36.1-59.8l6.8,3.1c0,1.1-0.4,2.4-0.4,4.2
			c0,13.5,50.1,41.7,125.2,41.7c56.9,0,88.1-15.3,88.1-37.2c0-19.1-23.5-39.9-89-39.9c-33.9,0-41.1,3.8-42.5,10.1h-6.3v-57.1
			L2601.2,209.6L2601.2,209.6z"/>
		<path class="st13" d="M2814.9,166.1l6.3-3.8c0.9,1.1,2.7,1.8,5.4,1.8c12.7,0,46.6-49.3,142.8-49.3c56.1,0,126.1,24.7,126.1,73
			c0,92.4-172.6,82.7-218.7,141.2h217.8c9.9,0,13.5-2.7,13.5-8.3h6.3v58.4h-6.3c0-4.9-3.6-7.6-13.5-7.6h-290.1
			c0-126.9,226.9-121.3,226.9-181.1c0-22.6-33.9-34.4-64.6-34.4c-52-0.1-96.3,33.3-96.3,48.6c0,3.1,1.8,5.2,3.6,7l-5.8,4.2
			L2814.9,166.1z"/>
		<path class="st13" d="M3131.3,371.2v-4.9c11.3-0.7,14.4-5.9,23-14.6l113-111.6L3160.7,131c-2.7-2.7-6.8-8-18.1-8v-5h106.6v4.9
			c-5.8,0-9.5,1.4-9.5,4.9c0,1.4,2.3,4.2,6.8,8.7l61.5,63.2l64.2-63.6c3.6-3.8,6.3-6.6,6.3-8.7c0-2.7-3.6-4.5-7.7-4.5V118h100.3v4.9
			c-14.9,0.4-20.8,6.3-29.4,14.6l-98.6,97.7L3457,351.6c9,9.4,12.2,14.3,24.4,14.6v4.9h-105.7v-4.9c6.8,0,8.6-1.1,8.6-4.5
			c0-3.1-7.7-10.1-16.3-18.8l-66-67.1l-80,79.3c-2.3,2.4-4.1,3.5-4.1,6.6c0,2.7,3.6,4.5,9.5,4.5v4.9L3131.3,371.2L3131.3,371.2z"/>
	</g>
</g>
</svg>
