<?xml version="1.0" encoding="utf-8"?>
<!-- Generator: Adobe Illustrator 26.0.3, SVG Export Plug-In . SVG Version: 6.00 Build 0)  -->
<svg version="1.1" id="Layer_1" xmlns="http://www.w3.org/2000/svg" xmlns:xlink="http://www.w3.org/1999/xlink" x="0px" y="0px"
	 viewBox="0 0 3839 771.2" style="enable-background:new 0 0 3839 771.2;" xml:space="preserve">
<style type="text/css">
	.st0{display:none;}
	.st1{display:inline;}
	.st2{fill:url(#SVGID_1_);}
	.st3{fill:url(#SVGID_00000067934908495976634990000011856206093345507977_);}
	.st4{clip-path:url(#SVGID_00000142144263345268194990000010004949032119538350_);}
	.st5{clip-path:url(#SVGID_00000093173223330914290090000017336634279159667343_);fill:none;}
	.st6{fill:none;}
	.st7{fill:url(#SVGID_00000005245288463917561220000013876523755339340191_);}
	.st8{clip-path:url(#SVGID_00000170980427763479347020000005426797339393074077_);}
	.st9{clip-path:url(#SVGID_00000005250419823351186880000016081081942289269945_);}
	.st10{clip-path:url(#SVGID_00000170998692091428988730000014687367175281830795_);}
	.st11{fill:url(#SVGID_00000152233756666045386680000016845452167310360226_);}
	.st12{fill:url(#SVGID_00000159470222051770399220000016848558234163340977_);}
	.st13{clip-path:url(#SVGID_00000090254823617927593540000000040635624220349869_);}
	.st14{clip-path:url(#SVGID_00000003812963766585082350000013682019347759627198_);fill:none;}
	.st15{fill:url(#SVGID_00000129890242297398726480000010371888571915471256_);}
	.st16{clip-path:url(#SVGID_00000027596202142720797640000001724976755519170979_);}
	.st17{clip-path:url(#SVGID_00000013910423828636870030000010701899594095949731_);}
	.st18{clip-path:url(#SVGID_00000183952452479136395270000006456381430549047714_);}
	.st19{fill:#FFFFFF;}
	.st20{fill:url(#SVGID_00000014620206707736881160000014740010556155892390_);}
	.st21{fill:url(#SVGID_00000127004926040026519270000013903879301699496856_);}
	.st22{clip-path:url(#SVGID_00000024704118185353896640000012169227189725839260_);fill:#FFFFFF;}
	.st23{clip-path:url(#SVGID_00000039120021865121374840000002294525496772849073_);fill:none;}
	.st24{fill:url(#SVGID_00000143614394722242901170000017839771899281853114_);}
	.st25{clip-path:url(#SVGID_00000145033869571103957160000013683363292001705623_);fill:#FFFFFF;}
	.st26{clip-path:url(#SVGID_00000137832562702555572460000003254649902192635577_);fill:#FFFFFF;}
	.st27{clip-path:url(#SVGID_00000028316983566778766130000008214259398934213776_);}
	.st28{clip-path:url(#SVGID_00000028316983566778766130000008214259398934213776_);fill:#FFFFFF;}
	.st29{fill:url(#SVGID_00000113326115968568014070000012913468142731717285_);}
	.st30{fill:url(#SVGID_00000090989658360824535150000013784122998133537967_);}
	.st31{clip-path:url(#SVGID_00000146458195981400849380000017046223328465381274_);fill:#FFFFFF;}
	.st32{clip-path:url(#SVGID_00000065755941383370374190000009223739521685045417_);fill:none;}
	.st33{fill:url(#SVGID_00000176016877212017760850000009429428787638841738_);}
	.st34{clip-path:url(#SVGID_00000088104931772757207750000017917977511943499437_);fill:#FFFFFF;}
	.st35{clip-path:url(#SVGID_00000061473505229217016050000003654717267697885630_);fill:#FFFFFF;}
	.st36{clip-path:url(#SVGID_00000164499280863421355290000000460656522234992777_);}
	.st37{clip-path:url(#SVGID_00000164499280863421355290000000460656522234992777_);fill:#FFFFFF;}
	.st38{clip-path:url(#SVGID_00000027593310589435443900000012055053758485193651_);}
	.st39{clip-path:url(#SVGID_00000083066204032894342500000005873376087604638649_);}
	.st40{clip-path:url(#SVGID_00000129915495181363686280000014255829575398764991_);}
	.st41{clip-path:url(#SVGID_00000119116603149064897650000003901488055541568157_);}
	.st42{clip-path:url(#SVGID_00000142178534856346346750000018246559320075498679_);}
	.st43{clip-path:url(#SVGID_00000018958456984373107170000016680677668991760010_);}
	.st44{clip-path:url(#SVGID_00000155143586240082124980000010068396130763355015_);fill:#FFFFFF;}
	.st45{clip-path:url(#SVGID_00000069391635892688449540000013975681374658098365_);fill:#FFFFFF;}
	.st46{clip-path:url(#SVGID_00000143580877023026541830000009673721329973685673_);}
	.st47{clip-path:url(#SVGID_00000143580877023026541830000009673721329973685673_);fill:#FFFFFF;}
	.st48{clip-path:url(#SVGID_00000052802396065864788000000017543362973126894233_);fill:#FFFFFF;}
	.st49{clip-path:url(#SVGID_00000011012620543256272900000008304559690120408744_);fill:#FFFFFF;}
	.st50{clip-path:url(#SVGID_00000137837579278574088690000006960763866127815070_);}
	.st51{clip-path:url(#SVGID_00000137837579278574088690000006960763866127815070_);fill:#FFFFFF;}
	.st52{fill:url(#SVGID_00000072249439204646639110000012227545356114273195_);}
	.st53{fill:url(#SVGID_00000149365651619517908160000006708356294527501448_);}
	.st54{clip-path:url(#SVGID_00000154396215290815549820000007701164647886252207_);}
	.st55{clip-path:url(#SVGID_00000070077956483986697770000016653307013131016324_);fill:none;}
	.st56{fill:url(#SVGID_00000148625237835940513990000006089327010409923492_);}
	.st57{fill:url(#SVGID_00000049902130283726881600000005148660163398048650_);}
	.st58{clip-path:url(#SVGID_00000039105315380235984580000003968473112450905230_);}
	.st59{clip-path:url(#SVGID_00000010304355682093150600000003012816764955605395_);fill:none;}
	.st60{fill:url(#SVGID_00000043429759310737549470000018365771351561781395_);}
	.st61{clip-path:url(#SVGID_00000167395519730216775980000006323496449750101665_);}
	.st62{clip-path:url(#SVGID_00000140709340162530784720000011015532121349512097_);}
	.st63{clip-path:url(#SVGID_00000067952586070864628760000005553412647513556157_);}
	.st64{fill:url(#SVGID_00000131346707323874197670000016342448053930385337_);}
	.st65{clip-path:url(#SVGID_00000156576987034393103710000007942477664198644916_);}
	.st66{clip-path:url(#SVGID_00000157273255742341026600000016575130042417128088_);}
	.st67{clip-path:url(#SVGID_00000016065142793794352470000015122810004557384074_);}
	.st68{clip-path:url(#SVGID_00000147924685629455564790000013777015861138278535_);}
	.st69{clip-path:url(#SVGID_00000023246932430621940150000017117338261444891045_);}
	.st70{clip-path:url(#SVGID_00000131330911596381897410000005103653886263868606_);}
	.st71{fill:url(#SVGID_00000112615627329720762570000008724983320011622790_);}
	.st72{clip-path:url(#SVGID_00000167369381863823420500000004870875014375814017_);}
	.st73{clip-path:url(#SVGID_00000182511447941716448230000000935523836305281669_);}
	.st74{clip-path:url(#SVGID_00000149348698951525209330000007640697587396623803_);}
	.st75{fill:url(#SVGID_00000080908686675662351870000015362664455863843004_);}
	.st76{fill:url(#SVGID_00000101790776481824774610000014704641931201416328_);}
	.st77{clip-path:url(#SVGID_00000055681306757277832110000016615715341480972162_);}
	.st78{clip-path:url(#SVGID_00000035495299366370698440000004784476511227020169_);fill:none;}
	.st79{clip-path:url(#SVGID_00000160158359579416191350000004167130187504706187_);}
	.st80{clip-path:url(#SVGID_00000177474694379105172120000014473991174028716978_);}
	.st81{clip-path:url(#SVGID_00000086682720805171908450000010468584999974034330_);}
	.st82{fill:url(#SVGID_00000122708528550845819110000016876283391893252482_);}
	.st83{clip-path:url(#SVGID_00000009591870103314141440000013067758962146209471_);}
	.st84{clip-path:url(#SVGID_00000003788731497439924510000010992191927611270054_);}
	.st85{clip-path:url(#SVGID_00000034809869274656491020000014360113826862910086_);}
	.st86{clip-path:url(#SVGID_00000114772433037681172860000015590651847627783041_);}
	.st87{clip-path:url(#SVGID_00000055688415623174508550000014219824510703517573_);}
	.st88{clip-path:url(#SVGID_00000040558853622334079660000008109210429579108542_);}
	.st89{clip-path:url(#SVGID_00000042707558751233115380000001736728104002289808_);}
	.st90{clip-path:url(#SVGID_00000003096039781528424210000015317203728045866173_);}
	.st91{clip-path:url(#SVGID_00000116923800139606200610000015266531981055192505_);}
	.st92{fill:url(#SVGID_00000093157300621392658630000008393580092460398217_);}
	.st93{clip-path:url(#SVGID_00000106830401231183978000000005459986534707331478_);}
	.st94{clip-path:url(#SVGID_00000013881277349382488100000005232290724157909672_);}
	.st95{clip-path:url(#SVGID_00000109710017983989941950000007289197776953223321_);}
	.st96{clip-path:url(#SVGID_00000087402759506620790660000007227898985468938910_);}
	.st97{clip-path:url(#SVGID_00000101820073638749600490000000349328986986054071_);fill:#FFFFFF;}
	.st98{clip-path:url(#SVGID_00000166664172976696807700000007512400675896669083_);}
	.st99{clip-path:url(#SVGID_00000163045078021148902730000005715513968798227122_);}
	.st100{clip-path:url(#SVGID_00000034088142768725506620000017029322908939732371_);fill:#FFFFFF;}
	.st101{clip-path:url(#SVGID_00000178903143556128167660000004406867265166401684_);}
	.st102{fill:url(#SVGID_00000043455968424337677110000009786512668646305685_);}
	.st103{fill:url(#SVGID_00000039817422839899073780000003385082045661355141_);}
	.st104{clip-path:url(#SVGID_00000011009057814113031620000001315609159544773021_);}
	.st105{clip-path:url(#SVGID_00000026135959983704927970000012085070195454487962_);fill:none;}
	.st106{clip-path:url(#SVGID_00000046334967639119673170000007600992057283769769_);}
	.st107{clip-path:url(#SVGID_00000121997618551313843800000009165796007319619763_);}
	.st108{clip-path:url(#SVGID_00000089544671639074392800000014930823359699211659_);}
	.st109{fill:url(#SVGID_00000067225373619324566350000005239342858398305677_);}
	.st110{fill:url(#SVGID_00000080893002445570099680000006048607800533987748_);}
	.st111{fill:url(#SVGID_00000096772066919002930690000003605591469839820416_);}
	.st112{clip-path:url(#SVGID_00000040558633679259349580000004389892946702100891_);}
	.st113{clip-path:url(#SVGID_00000117650651025815777680000004735175321814792331_);fill:none;}
	.st114{fill:url(#SVGID_00000008125955289033512710000003020987694246514340_);}
	.st115{fill:url(#SVGID_00000096027987159735323900000008470544565061904831_);}
	.st116{clip-path:url(#SVGID_00000115475311607161864630000006272960313600453553_);}
	.st117{clip-path:url(#SVGID_00000080895164384022918250000014668959092102747066_);fill:none;}
	.st118{clip-path:url(#SVGID_00000122714750000296376840000015820510946560847530_);}
	.st119{clip-path:url(#SVGID_00000049943056690511516320000006065569102557412275_);}
	.st120{clip-path:url(#SVGID_00000150821820861397859700000010009782853355019661_);}
	.st121{fill:url(#SVGID_00000026855618695494598670000016934936298887367863_);}
	.st122{fill:url(#SVGID_00000034083809254123798240000009530844605748778162_);}
	.st123{fill:url(#SVGID_00000145017252700916629260000004144052900373621664_);}
	.st124{clip-path:url(#SVGID_00000142174550086264465550000015321004516360350905_);}
	.st125{clip-path:url(#SVGID_00000027572550801056702720000010700630982238006656_);fill:none;}
	.st126{clip-path:url(#SVGID_00000171706594783466522120000000889567388639719591_);}
	.st127{clip-path:url(#SVGID_00000018943383385917056120000016143949518817325464_);}
	.st128{clip-path:url(#SVGID_00000137838458192035598040000009155049638526068413_);}
	.st129{fill:url(#SVGID_00000165918461022180320440000007717597733000375176_);}
	.st130{fill:url(#SVGID_00000165955257275049377250000012981363933501588397_);}
	.st131{fill:url(#SVGID_00000022520530119825071570000016795881175682952127_);}
	.st132{clip-path:url(#SVGID_00000088096780899294100280000005718945504620485037_);}
	.st133{clip-path:url(#SVGID_00000173857047164780678700000005958608136442667675_);fill:none;}
	.st134{clip-path:url(#SVGID_00000072987430649657257950000002240723798318218649_);}
	.st135{clip-path:url(#SVGID_00000163061024471421035440000010746455732061572501_);}
	.st136{clip-path:url(#SVGID_00000100383556451989152670000018011158349970617258_);}
	.st137{fill:url(#SVGID_00000166654316601171126320000007196324976147045254_);}
	.st138{fill:url(#SVGID_00000103244721508715969910000014087872427844741507_);}
	.st139{fill:url(#SVGID_00000152957580330671347240000002865501764940007570_);}
	.st140{clip-path:url(#SVGID_00000074420859259634990970000008410901711340412559_);}
	.st141{clip-path:url(#SVGID_00000106856514537737571420000008593782497430542231_);fill:none;}
	.st142{clip-path:url(#SVGID_00000093159908912605536480000006467722497938432645_);}
	.st143{clip-path:url(#SVGID_00000049192202351159176960000016908246678163363968_);}
	.st144{clip-path:url(#SVGID_00000150063393585924040770000017509532198691128766_);}
	.st145{fill:url(#SVGID_00000040562689915274755190000010877263954524502957_);}
	.st146{fill:url(#SVGID_00000033350718283220433200000013369605754903040425_);}
	.st147{fill:url(#SVGID_00000132796949938631452730000003922220123839308672_);}
	.st148{clip-path:url(#SVGID_00000009567428305609128840000007888684902350827146_);}
	.st149{clip-path:url(#SVGID_00000070093662011198298780000009776916781001147794_);fill:none;}
	.st150{clip-path:url(#SVGID_00000120534006567090716420000013341164546563275652_);}
	.st151{clip-path:url(#SVGID_00000122718417908141639410000000917250660009519783_);fill:#FFFFFF;}
	.st152{clip-path:url(#SVGID_00000152971290978017602530000008316073196834694025_);}
	.st153{fill:url(#SVGID_00000142877220995245001920000009579947011847097781_);}
	.st154{fill:url(#SVGID_00000038414068819053319660000013687290329644498597_);}
	.st155{fill:url(#SVGID_00000037683907224016348070000012161060195584201627_);}
	.st156{clip-path:url(#SVGID_00000178907573723752294380000014253500656997621427_);fill:#FFFFFF;}
	.st157{clip-path:url(#SVGID_00000062879653043298930060000003155434241912296341_);fill:none;}
	.st158{clip-path:url(#SVGID_00000133494186855145693450000011864859530331596479_);}
	.st159{clip-path:url(#SVGID_00000091717224366992035620000005738205124947273107_);fill:#FFFFFF;}
	.st160{clip-path:url(#SVGID_00000106847938595272234820000003165468276462548915_);}
	.st161{fill:url(#SVGID_00000058580283050703128410000015270985366729308343_);}
	.st162{fill:url(#SVGID_00000158002625557761480050000016519639443456599721_);}
	.st163{fill:url(#SVGID_00000031923088044668592040000015920620882659047053_);}
	.st164{clip-path:url(#SVGID_00000000924940324763056100000007070108985583137409_);fill:#FFFFFF;}
	.st165{clip-path:url(#SVGID_00000119813200769019176000000007708955162838172318_);fill:none;}
</style>
<g class="st0">
	<g class="st1">
		<g>
			<g>
				<g>
					<path class="st19" d="M3611.1,43.2h-18.4V31.9h50.2v11.3h-18.4v49.9H3611L3611.1,43.2L3611.1,43.2z"/>
					<path class="st19" d="M3650,31.9h19l14.3,42.1h0.2l13.6-42.1h19v61.3h-12.6V49.8h-0.2l-15,43.4h-10.4l-15-43h-0.2v43H3650V31.9
						z"/>
				</g>
				
					<linearGradient id="SVGID_1_" gradientUnits="userSpaceOnUse" x1="6015.3228" y1="6463.2266" x2="6015.3228" y2="7234.4575" gradientTransform="matrix(1 0 0 -1 -4213.2275 6777.2158)">
					<stop  offset="0" style="stop-color:#FFFFFF"/>
					<stop  offset="0.3809" style="stop-color:#FFFFFF"/>
					<stop  offset="0.4042" style="stop-color:#F4E7E9"/>
					<stop  offset="0.4844" style="stop-color:#D099A4"/>
					<stop  offset="0.5416" style="stop-color:#B96978"/>
					<stop  offset="0.5698" style="stop-color:#B05667"/>
					<stop  offset="0.7789" style="stop-color:#CE0033"/>
					<stop  offset="1" style="stop-color:#FD003E"/>
				</linearGradient>
				<path class="st2" d="M1864.4-451.1c2.9-1.5,6.3-3.1,10.2-4.9c12.8-6,23,12,11.3,19.9c-4.1,2.8-7.8,5.3-10.8,7.4
					c-37.7,26.4-70.7,57.5-70.7,162.7c0,132.1,109.3,260.9,109.3,356.6c0,74.3-21,142.4-185.7,222.3c-5.4,2.6-11.9,0.6-14.9-4.6l0,0
					c-3.2-5.5-1.1-12.6,4.5-15.6c65.8-35.2,85.1-108.1,82.3-170.7c-5.8-130.2-111.3-242.2-109.3-349
					C1691.8-290.7,1717.1-376.9,1864.4-451.1z"/>
				<path class="st19" d="M1761.5,79.6c-9.3-3.5-28.3-13.5-40.2-39.9l-130.5-289.4c-5.5-12.3-22.8-12.8-29.1-0.9l-96.6,183.4
					c-5,9.5-14.9,15.5-25.6,15.5h-115.9h-3.9c-3.9,0-7.8,3.1-8.4,6.9c-0.8,5,2.8,9.2,7.6,9.6c32.2,2.9,51.5,24.4,51.2,59.1
					c-0.2,32-26.9,58.2-59,58.2h-8.4c-85.8,0-89.5-98.6-89.5-120.1c0-25.1,0-75.4,0-75.4c0-37,14.9-102,87.2-102
					c67.5,0,105.5,31.1,136.4,72.3c5.1,6.8,15.8,1.2,13.2-6.9l-27.1-84.9c-2.6-8.2-12.2-11.8-19.6-7.3
					c-19.9,12.2-31.6,10.2-31.6,10.2c-9.8,0.3-41-8.6-78.9-8.6c-60.5,0-109.3,24-142.8,56.3c-3.3,3.2-8.8,2.1-10.5-2.2l-20.1-48.9
					H937v-0.1h-89.6c-5.7,0-11.3-0.2-17-0.5c-30.7-1.7-138.6-7.3-193.8-7.3c-69.2,0-123.4,21.7-128.9,72.7
					c-4.1,38.4,22.5,58.4,37.8,72.4c8.3,7.6,47.1,32.2,67.1,41.4c20.8,9.6,103.8,51.2,95.2,84.2c-8.6,32.7-36.6,40.7-69,40.7
					C588,68.1,533.4,26,493-11.7c-7-6.6-17.9,1.6-13.5,10.2c16.7,32.7,38.1,72.4,52.1,93.4c4,5.9,11.2,8.8,18.2,7
					c15.1-3.8,34.6-5.8,46.5-5.2c15.3,0.7,47.2,4.9,61.2,4.9c116.4,0,152.9-30.6,156.7-83.7c5.2-73-81.9-121.6-135-142.9
					c-47.4-19.1-65.8-47.9-63.8-62.2c3.3-24.8,26.9-29,46.7-28.2c61.2,2.3,176.7,32.2,176.7,74.2c0,0,0,186.7,0,194.9
					c0,10.9-11.9,30.5-26.9,30.5h-0.3c-2.7,0-5.4,1-7.4,2.9c-5.2,5.2-1.6,11.4,3.4,11.4h65l0,0H937h183.8c5.9,0,11.1-3.5,13.4-9
					l10-24.4c1.9-4.7,7.9-6.1,11.7-2.7c32.8,29.6,80.8,48.2,146.4,48.2c15.3,0,47-4.2,61.8-9.6c4.7-1.7,9.7-2.6,14.7-2.6h122.9h19.8
					c7.3,0,10.8-9.1,5.3-14c-2.4-2.1-4.6-4.1-6.1-5.5c-11.7-10.6-11.2-17.8-11.5-23.9c-0.3-6,1-12,3.8-17.4l87.1-165.4l74.4,165.1
					c2.5,5.5,3.7,11.6,3.2,17.6c-0.1,0.8-0.1,1.5-0.2,2c-1.4,7.8-8.4,23.5-21.5,23.5h-2.1c-3.2,0-6.4,1.1-8.8,3.2
					c-7.3,6.5-2.8,14.7,3.6,14.7h110.1c5.1,0,9.1-4.6,8.1-9.8C1766.4,82.9,1764.3,80.6,1761.5,79.6z M1122.1-150.3
					c-15,23.6-23.1,48.6-23.1,70.6c0,29.3,5.4,57.9,16.8,83.6c2.5,5.6,1.4,12.2-2.9,16.6c-21.1,21.4-67.2,51.2-133.1,51.2h-16.1
					c-14.7,0-26.6-11.9-26.6-26.6v-89.7v-4.8c0-5,7.5-11.2,15.9-9.5c12.9,2.5,35.6,10.6,53.7,21.1c12.7,7.4,24.2,15.1,37.4,26
					c5.8,4.8,14.6,0.6,14.6-6.9v-28.2v-55.7v-28.2c0-7.5-8.8-11.7-14.6-6.9c-13.2,10.9-24.7,18.6-37.4,26
					c-18.1,10.4-41.5,21.4-54.3,24.4c-9.9,2.3-13.4-1.6-15.3-5.3V-98v-88c0-14,11.4-25.4,25.4-25.4h32.6
					c53.4,0,102.1,30.6,125.5,50.8C1123.5-158.1,1124.2-153.6,1122.1-150.3z"/>
				<path class="st19" d="M3608-231.6c-0.8-2.3-3.1-3.8-5.6-3.8h-25.6h-48.1h-25.6c-2.5,0-4.8,1.5-5.6,3.8c-1.1,3.2,0.7,6.4,3.6,7.4
					c9.2,3,31.3,12.7,31.3,35.9v139.1c0,5.3-6.2,8.2-10.3,4.8l-146.2-121.3c-45.6-37.9-110.2-63.1-152.9-76.9
					c-9.4-3-15.9,9.4-8,15.4c1.4,1.1,2.8,2.1,4.3,3.2c48.7,36.6,53.9,89.1,53.9,95.1V57.9v9c0,7-5.7,12.7-12.7,12.7
					c-16.3,0-52.8-26.5-71.4-46c-17.5-18.3-25.9-43.5-45.5-66.6c-15.6-18.3-28.9-25.1-28.9-25.1c98.3,0,101.2-79.7,101.2-88.6
					c0-13.3,0-89-123-89H2809h-48.3c-2.5,0-4.8,1.5-5.6,3.8c-1.1,3.2,0.7,6.5,3.6,7.4c9.2,3,31.3,12.7,31.3,35.9v175
					c0,60.5-42.3,80.7-76.2,80.7c-61.8,0-85.5-36.4-85.5-82.2v-26.5l0,0v-147c0-23.2,22.1-32.9,31.3-35.9c2.4-0.8,4-2.9,4-5.4v-0.1
					c0-3.1-2.5-5.7-5.7-5.7h-110.9h-17h-223.4h-113.8c-6.9,0-13.3,4-16.3,10.2l-18.3,37.9c-3.1,6.5,4.3,12.9,10.3,8.9
					c24.5-16.6,65.7-35.7,126-38c6.6-0.2,12.1,5.1,12.1,11.7V35c0,11.4-4.2,20.2-9.9,26.9c-4.4,5.2-11,8.2-17.9,8.2h-14.8
					c-4.8,0-9.6-1.3-13.7-4c-9.4-6.1-18.3-14.7-23.7-26.7L2096.2-250c-5.6-12.3-22.8-12.8-29.1-0.9L1931.3,6.8l-39.2,74.3l2.7,14.2
					h39.4h7h85.5l0,0c7.3,0,10.8-9.1,5.3-14c0,0-0.1,0-0.1-0.1c-2.4-2.1-4.5-4-6-5.4c-11.6-10.4-11.2-17.6-11.5-23.7
					c-0.3-6.1,1-12.2,3.8-17.6l87.2-165.4l74.4,165.1c2.5,5.5,3.7,11.6,3.2,17.6c-0.1,0.8-0.1,1.5-0.2,2
					c-1.4,7.8-8.4,23.5-21.5,23.5h-0.2c-2.6,0-5.2,0.8-7.3,2.4c-8.6,6.6-4,15.5,2.6,15.5h109.7h6.4h86.7h25.6h52.4
					c4.5,0,8.4-3.4,8.6-7.9c0.2-3.6-2-7-5.3-8.2c-11-4.2-35.3-16.7-35.3-44.1v-240c0-6.8,5.5-12,12.3-11.7
					c46.6,1.8,81.8,13.6,106.6,26.6c4,2.1,6.5,6.2,6.5,10.7v154.6h0.4c4,71,37.7,125.6,161.2,125.6c71.6,0,138.7-37.5,138.7-106.6
					c0-8.5,0-177.2,0-177.2c0-10.5,3.3-17.9,7.5-23c6.1-7.5,15.5-11.5,25.2-11.5h14.6c9.7,0,19.1,4,25.2,11.5
					c4.2,5.2,7.5,12.6,7.5,23V31.8c0,31.9-25.3,43.9-37.1,47.8c-2.8,0.9-5.1,3.2-5.7,6.2c-1,5.2,2.9,9.8,8,9.8h52.8h59.6h55.2
					c3.4,0,6.6-2,7.8-5.2c1.7-4.6-0.8-9.3-5-10.7c-11.6-3.8-37.4-15.8-37.4-47.9v-203.6V-196c0-18.2,15.6-24.8,26.3-24.8h30.7
					c28.6,0,57,24.1,57,64.3c0,59-38.4,73.3-54.1,73.3c-10.5,0-18.7,0.2-27.4-3c0,0-0.1,0-0.1-0.1c-5.5-2.6-11.4,2.5-9.6,8.3
					c0.1,0.3,0.1,0.5,0.2,0.5c9.2,31.2,25.8,78.9,48.4,109.3c35.1,47.3,101.7,85,213.4,85h48c3,0,5.8-1.8,6.7-4.6
					c1.3-3.9-0.9-7.8-4.5-8.9c-9.6-2.9-30-11.6-30-33.3V-87c0-5.3,6.2-8.2,10.3-4.8l232,192.6c6.7,5.5,16.7,0.8,16.7-7.9v-281.2
					c0-23.2,22.1-32.9,31.3-35.9C3607.3-225.1,3609.1-228.3,3608-231.6z"/>
			</g>
			<g>
				
					<radialGradient id="SVGID_00000157278182892265335320000005067468470507297464_" cx="4432.748" cy="6906.895" r="218.1254" fx="4434.4912" fy="6903.8467" gradientTransform="matrix(1 0 0 -1 -4213.2275 6777.2158)" gradientUnits="userSpaceOnUse">
					<stop  offset="0" style="stop-color:#FFFFFF"/>
					<stop  offset="0.1072" style="stop-color:#E1E7F2"/>
					<stop  offset="0.4368" style="stop-color:#88A1CC"/>
					<stop  offset="0.7055" style="stop-color:#476EB0"/>
					<stop  offset="0.8997" style="stop-color:#1E4E9F"/>
					<stop  offset="1" style="stop-color:#0F4298"/>
				</radialGradient>
				<circle style="fill:url(#SVGID_00000157278182892265335320000005067468470507297464_);" cx="172.6" cy="-65.6" r="184.6"/>
				<g>
					<g>
						<defs>
							<path id="SVGID_00000033369859399022718570000014124883683597367719_" d="M80.5,9.2c24.6-6,49.2-11.7,73.8-17.5
								c24.7-5.8,48.9-13.2,72.9-21.4c23.7-8.1,47.1-17.2,70.9-24.8c19.7-6.3,39.8-12.1,58.8-20.4c-1.6-32.7-11.7-63.1-28.2-89.1
								c-21.2,6.1-42.8,11.3-64.2,16.8c-24.5,6.4-48.9,13.2-73.3,20c-23.9,6.6-47.9,13.2-71.7,19.9C94-100.1,68.6-92.4,43.6-83.7
								C32.9-80,22.2-76.5,11.4-73.2c-5.7,1.7-11.4,3.6-17,5.6c-2.1,0.7-4.2,1.4-6.3,2.1c0,34,9.2,65.8,25.3,93.2
								C35.5,20.7,57.9,14.7,80.5,9.2z"/>
						</defs>
						<clipPath id="SVGID_00000068648172886971087700000014001026197327721100_">
							<use xlink:href="#SVGID_00000033369859399022718570000014124883683597367719_"  style="overflow:visible;"/>
						</clipPath>
						<path style="clip-path:url(#SVGID_00000068648172886971087700000014001026197327721100_);fill:#FFFFFF;" d="M-26.1,100.7
							c-8.9,0-17.6-0.2-26.1-0.6c-12.8-0.6-23-11.3-22.5-24.2c0.5-13,11.5-23.1,24.5-22.4c72.8,3.7,171.4-10.7,263.8-38.4
							C303.9-12.1,375.1-47.6,404.1-80c3.4-3.8,8.4-10,10.6-16.3c1.5-4.3-1.2-8.9-5.7-9.7c-9.7-1.6-31.4-1.8-78.1,9.4
							C281.3-84.7,219.6-64.2,160-44.3C98.2-23.7,39.9-4.3-6.8,6.5c-46.9,10.8-96.8,17.1-111.4-18.2c-5.8-13.9-8.9-35.9,8.9-61.6
							c38.5-55.3,156.4-97.2,223.2-117.2c100.2-30.2,207.1-48,272.2-45.5c12.9,0.5,22.9,11.3,22.4,24.2
							c-0.5,12.9-11.3,22.9-24.2,22.4c-60.4-2.3-161.3,14.7-257.2,43.4C26.3-115.8-49.7-77.8-71.2-46.9c-1.1,1.6-2,3.1-2.7,4.5
							c-2,3.8-0.4,10.1,6.4,10.7c10.2,0.9,29.6-1.5,64.9-11c42.4-11.3,93.5-27.9,147.7-46c154.8-51.6,251.9-81,294.7-55.1
							c12,7.2,19.5,18.3,21.7,32.1c3.4,20.9-4.3,42-22.9,62.7c-35,39.1-112.2,78.7-211.8,108.6C138.9,86.1,48.4,100.7-26.1,100.7z"
							/>
					</g>
					<g>
						<defs>
							<path id="SVGID_00000107562665843202984150000009108337689882743210_" d="M80.5,9.2c24.6-6,49.2-11.7,73.8-17.5
								c24.7-5.8,48.9-13.2,72.9-21.4c23.7-8.1,47.1-17.2,70.9-24.8c19.7-6.3,39.8-12.1,58.8-20.4c-1.6-32.7-11.7-63.1-28.2-89.1
								c-21.2,6.1-42.8,11.3-64.2,16.8c-24.5,6.4-48.9,13.2-73.3,20c-23.9,6.6-47.9,13.2-71.7,19.9C94-100.1,68.6-92.4,43.6-83.7
								C32.9-80,22.2-76.5,11.4-73.2c-5.7,1.7-11.4,3.6-17,5.6c-2.1,0.7-4.2,1.4-6.3,2.1c0,34,9.2,65.8,25.3,93.2
								C35.5,20.7,57.9,14.7,80.5,9.2z"/>
						</defs>
						<clipPath id="SVGID_00000181060507844867282560000011688534336218143885_">
							<use xlink:href="#SVGID_00000107562665843202984150000009108337689882743210_"  style="overflow:visible;"/>
						</clipPath>
						<path style="clip-path:url(#SVGID_00000181060507844867282560000011688534336218143885_);fill:none;" d="M-33.5,55.1
							C-54.9,18.6-66.2-23.1-66.2-65.5v-39.1l37.1-12.4c1-0.3,2-0.6,2.9-1c0.8-0.3,1.6-0.5,2.3-0.8c6.9-2.4,13.5-4.5,19.7-6.4
							c11.1-3.4,22.4-7.1,33.4-11c26.2-9.2,52.4-16.8,74.6-23.1c17.2-4.8,34.6-9.7,51.4-14.3c7.2-2,14.3-4,21.5-5.9l11.7-3.2
							c20.4-5.7,41.4-11.5,62.5-17c6.7-1.7,13.4-3.5,20.2-5.2c14.8-3.7,28.8-7.3,42.6-11.3l39.2-11.3l21.8,34.5
							c21.8,34.6,34.5,74.5,36.5,115.4l1.9,37.4l-34.4,15c-18.1,7.9-36,13.5-53.2,19c-3.6,1.1-7.1,2.3-10.7,3.4
							c-12.9,4.1-25.7,8.8-39.2,13.6c-10,3.6-20.4,7.4-30.9,10.9c-28.4,9.6-53.8,17.1-77.9,22.8c-8.3,2-16.5,3.9-24.8,5.8
							c-16,3.7-32.5,7.6-48.6,11.6c-25.3,6.2-45.6,11.8-63.8,17.5l-41.2,13L-33.5,55.1z"/>
					</g>
				</g>
				<g>
					<path class="st19" d="M-67.5-31.7c-6.8-0.6-8.4-6.9-6.4-10.7c0.7-1.4,1.6-2.9,2.7-4.5c9.9-14.2,31.2-29.9,61.2-45.6
						c3.2-21.8,10.1-42.3,20.2-60.9c-49.5,21.3-97.5,48.5-119.5,80.1c-17.8,25.7-14.7,47.7-8.9,61.6c14.6,35.3,64.5,29,111.4,18.2
						c2.8-0.7,5.7-1.3,8.6-2C-4.1-9.8-8.2-25-10.3-40.7C-40.8-32.9-58.1-30.9-67.5-31.7z"/>
					<path class="st19" d="M461.5-111.7c-2.2-13.8-9.7-24.9-21.7-32.1c-20.8-12.6-54.3-12.1-101.1-2.4c6.8,14,11.9,29,15,44.6
						c31.3-6.1,47.4-5.7,55.3-4.4c4.5,0.8,7.2,5.4,5.7,9.7c-2.2,6.3-7.2,12.5-10.6,16.3c-10.7,12-27.2,24.4-48.2,36.6
						c-2.6,22.1-9.2,42.9-18.9,61.9C382.8-2.8,418-26,438.6-49C457.2-69.7,464.9-90.8,461.5-111.7z"/>
					<path class="st19" d="M29.8,51.3C1,53.9-26,54.7-50.2,53.5c-13-0.7-24,9.4-24.5,22.4c-0.5,12.9,9.7,23.6,22.5,24.2
						c8.5,0.4,17.2,0.6,26.1,0.6c32.1,0,67.2-2.7,103.8-7.9C59.4,81.8,43.2,67.7,29.8,51.3z"/>
					<path class="st6" d="M77.7,92.7c27.7,16.7,60.2,26.2,94.9,26.2c71.7,0,133.8-40.8,164.4-100.5c-32,14.9-69.2,28.8-110.2,41.1
						C176.8,74.6,125.9,85.8,77.7,92.7z"/>
					<path class="st6" d="M355.8-43.5c0.9-7.3,1.3-14.7,1.3-22.2c0-12.3-1.2-24.3-3.5-36c-6.8,1.3-14.4,3-22.8,5
						C281.3-84.7,219.6-64.2,160-44.3C101.9-25,46.9-6.7,1.7,4.4c7,17.1,16.5,32.8,28,46.9c57.7-5.2,122.1-17.8,183.8-36.3
						C270.5-2.1,319.9-22.6,355.8-43.5z"/>
				</g>
			</g>
		</g>
	</g>
	<g class="st1">
		<g>
			
				<linearGradient id="SVGID_00000027565006716736368990000001771160367505218969_" gradientUnits="userSpaceOnUse" x1="6070.9897" y1="5451.7168" x2="6070.9897" y2="6245.2383" gradientTransform="matrix(1 0 0 -1 -4213.2275 6777.2158)">
				<stop  offset="0" style="stop-color:#FFFFFF"/>
				<stop  offset="0.3809" style="stop-color:#FFFFFF"/>
				<stop  offset="0.4042" style="stop-color:#F4E7E9"/>
				<stop  offset="0.4844" style="stop-color:#D099A4"/>
				<stop  offset="0.5416" style="stop-color:#B96978"/>
				<stop  offset="0.5698" style="stop-color:#B05667"/>
				<stop  offset="0.7789" style="stop-color:#CE0033"/>
				<stop  offset="1" style="stop-color:#FD003E"/>
			</linearGradient>
			<path style="fill:url(#SVGID_00000027565006716736368990000001771160367505218969_);" d="M1921.8,538.3c3-1.5,6.5-3.2,10.5-5
				c13.2-6.2,23.7,12.3,11.6,20.5c-4.2,2.9-8,5.5-11.1,7.6c-38.8,27.2-72.7,59.2-72.7,167.4c0,135.9,112.5,268.4,112.5,366.9
				c0,76.4-21.6,146.5-191.1,228.7c-5.6,2.7-12.2,0.6-15.3-4.7l0,0c-3.3-5.7-1.1-13,4.6-16.1c67.7-36.2,87.6-111.2,84.7-175.6
				c-6-134-114.5-249.2-112.5-359.1C1744.2,703.3,1770.3,614.6,1921.8,538.3z"/>
			<path class="st19" d="M1816,1084.3c-9.6-3.6-29.1-13.9-41.4-41.1l-134.3-297.8c-5.7-12.7-23.5-13.2-29.9-0.9L1511,933.2
				c-5.1,9.8-15.3,15.9-26.3,15.9h-119.2h-4c-4,0-8,3.2-8.6,7.1c-0.8,5.1,2.9,9.5,7.8,9.9c33.1,3,53,25.1,52.7,60.8
				c-0.2,32.9-27.7,59.9-60.7,59.9h-8.6c-88.3,0-92.1-101.4-92.1-123.6c0-25.8,0-77.6,0-77.6c0-38.1,15.3-104.9,89.7-104.9
				c69.5,0,108.5,32,140.3,74.4c5.2,7,16.3,1.2,13.6-7.1l-27.9-87.4c-2.7-8.4-12.6-12.1-20.2-7.5c-20.5,12.6-32.5,10.5-32.5,10.5
				c-10.1,0.3-42.2-8.8-81.2-8.8c-62.2,0-112.5,24.7-146.9,57.9c-3.4,3.3-9.1,2.2-10.8-2.3l-20.7-50.3H967.6v-0.1h-92.2
				c-5.9,0-11.6-0.2-17.5-0.5c-31.6-1.7-142.6-7.5-199.4-7.5c-71.2,0-127,22.3-132.6,74.8c-4.2,39.5,23.2,60.1,38.9,74.5
				c8.5,7.8,48.5,33.1,69,42.6c21.4,9.9,106.8,52.7,98,86.6c-8.8,33.6-37.7,41.9-71,41.9c-52.3,0-108.4-43.3-150-82.1
				c-7.2-6.8-18.4,1.6-13.9,10.5c17.2,33.6,39.2,74.5,53.6,96.1c4.1,6.1,11.5,9.1,18.7,7.2c15.5-3.9,35.6-6,47.8-5.4
				c15.7,0.7,48.6,5,63,5c119.8,0,157.3-31.5,161.2-86.1c5.4-75.1-84.3-125.1-138.9-147c-48.8-19.7-67.7-49.3-65.6-64
				c3.4-25.5,27.7-29.8,48-29c63,2.4,181.8,33.1,181.8,76.3c0,0,0,192.1,0,200.5c0,11.2-12.2,31.4-27.7,31.4h-0.3
				c-2.8,0-5.6,1-7.6,3c-5.4,5.4-1.6,11.7,3.5,11.7h66.9l0,0h66.3h189.1c6.1,0,11.4-3.6,13.8-9.3l10.3-25.1c2-4.8,8.1-6.3,12-2.8
				c33.7,30.5,83.1,49.6,150.6,49.6c15.7,0,48.4-4.3,63.6-9.9c4.8-1.7,10-2.7,15.1-2.7h126.5h20.4c7.5,0,11.1-9.4,5.5-14.4
				c-2.5-2.2-4.7-4.2-6.3-5.7c-12-10.9-11.5-18.3-11.8-24.6c-0.3-6.2,1-12.3,3.9-17.9l89.6-170.2l76.5,169.9
				c2.6,5.7,3.8,11.9,3.3,18.1c-0.1,0.8-0.1,1.5-0.2,2.1c-1.4,8-8.6,24.2-22.1,24.2h-2.2c-3.3,0-6.6,1.1-9.1,3.3
				c-7.5,6.7-2.9,15.1,3.7,15.1h113.3c5.2,0,9.4-4.7,8.3-10.1C1821,1087.7,1818.8,1085.3,1816,1084.3z M1158.1,847.7
				c-15.4,24.3-23.8,50-23.8,72.6c0,30.1,5.6,59.6,17.3,86c2.6,5.8,1.4,12.6-3,17.1c-21.7,22-69.1,52.7-136.9,52.7h-16.6
				c-15.1,0-27.4-12.2-27.4-27.4v-92.3v-4.9c0-5.1,7.7-11.5,16.4-9.8c13.3,2.6,36.6,10.9,55.3,21.7c13.1,7.6,24.9,15.5,38.5,26.8
				c6,4.9,15,0.6,15-7.1v-29v-57.3v-29c0-7.7-9.1-12-15-7.1c-13.6,11.2-25.4,19.1-38.5,26.8c-18.6,10.7-42.7,22-55.9,25.1
				c-10.2,2.4-13.8-1.6-15.7-5.5v-5.6V811c0-14.4,11.7-26.1,26.1-26.1h33.5c54.9,0,105,31.5,129.1,52.3
				C1159.5,839.7,1160.2,844.4,1158.1,847.7z"/>
			<path class="st19" d="M3715.9,764.1c-0.8-2.4-3.2-3.9-5.8-3.9h-26.3h-49.5H3608c-2.6,0-4.9,1.5-5.8,3.9c-1.1,3.3,0.7,6.6,3.7,7.6
				c9.5,3.1,32.2,13.1,32.2,36.9v143.1c0,5.5-6.4,8.4-10.6,4.9l-150.4-124.8c-46.9-39-113.4-64.9-157.3-79.1
				c-9.7-3.1-16.4,9.7-8.2,15.8c1.4,1.1,2.9,2.2,4.4,3.3c50.1,37.7,55.5,91.7,55.5,97.8V1062v9.3c0,7.2-5.9,13.1-13.1,13.1
				c-16.8,0-54.3-27.3-73.5-47.3c-18-18.8-26.6-44.8-46.8-68.5c-16.1-18.8-29.7-25.8-29.7-25.8c101.1,0,104.1-82,104.1-91.2
				c0-13.7,0-91.6-126.6-91.6h-292.1h-49.7c-2.6,0-4.9,1.5-5.8,3.9c-1.1,3.3,0.7,6.7,3.7,7.6c9.5,3.1,32.2,13.1,32.2,36.9v180.1
				c0,62.2-43.5,83-78.4,83c-63.6,0-88-37.5-88-84.6v-27.3l0,0V808.3c0-23.9,22.7-33.9,32.2-36.9c2.5-0.8,4.1-3,4.1-5.6v-0.1
				c0-3.2-2.6-5.9-5.9-5.9h-114.1h-17.5h-229.9h-117.1c-7.1,0-13.7,4.1-16.8,10.5l-18.8,39c-3.2,6.7,4.4,13.3,10.6,9.2
				c25.2-17.1,67.6-36.7,129.6-39.1c6.8-0.2,12.4,5.2,12.4,12v246.9c0,11.7-4.3,20.8-10.2,27.7c-4.5,5.4-11.3,8.4-18.4,8.4h-15.2
				c-4.9,0-9.9-1.3-14.1-4.1c-9.7-6.3-18.8-15.1-24.4-27.5l-134.3-297.8c-5.8-12.7-23.5-13.2-29.9-0.9l-139.7,265.1l-40.3,76.4
				l2.8,14.6h40.5h7.2h88l0,0c7.5,0,11.1-9.4,5.5-14.4c0,0-0.1,0-0.1-0.1c-2.5-2.2-4.6-4.1-6.2-5.6c-11.9-10.7-11.5-18.1-11.8-24.4
				c-0.3-6.3,1-12.6,3.9-18.1l89.7-170.2l76.5,169.9c2.6,5.7,3.8,11.9,3.3,18.1c-0.1,0.8-0.1,1.5-0.2,2.1c-1.4,8-8.6,24.2-22.1,24.2
				h-0.2c-2.7,0-5.4,0.8-7.5,2.5c-8.8,6.8-4.1,15.9,2.7,15.9h112.9h6.6h89.2h26.3h53.9c4.6,0,8.6-3.5,8.8-8.1
				c0.2-3.7-2.1-7.2-5.5-8.4c-11.3-4.3-36.3-17.2-36.3-45.4V791.5c0-7,5.7-12.3,12.7-12c47.9,1.9,84.2,14,109.7,27.4
				c4.1,2.2,6.7,6.4,6.7,11v159.1h0.4c4.1,73.1,38.8,129.2,165.9,129.2c73.7,0,142.7-38.6,142.7-109.7c0-8.7,0-182.3,0-182.3
				c0-10.8,3.4-18.4,7.7-23.7c6.3-7.7,15.9-11.8,25.9-11.8h15c10,0,19.7,4.1,25.9,11.8c4.3,5.4,7.7,13,7.7,23.7v221
				c0,32.8-26,45.2-38.2,49.2c-2.9,0.9-5.2,3.3-5.9,6.4c-1,5.4,3,10.1,8.2,10.1h54.3h61.3h56.8c3.5,0,6.8-2.1,8-5.4
				c1.7-4.7-0.8-9.6-5.1-11c-11.9-3.9-38.5-16.3-38.5-49.3V825.6v-24.9c0-18.7,16.1-25.5,27.1-25.5h31.6c29.4,0,58.6,24.8,58.6,66.2
				c0,60.7-39.5,75.4-55.7,75.4c-10.8,0-19.2,0.2-28.2-3.1c0,0-0.1,0-0.1-0.1c-5.7-2.7-11.7,2.6-9.9,8.5c0.1,0.3,0.1,0.5,0.2,0.5
				c9.5,32.1,26.5,81.2,49.8,112.5c36.1,48.7,104.6,87.5,219.6,87.5h49.4c3.1,0,6-1.9,6.9-4.7c1.3-4-0.9-8-4.6-9.2
				c-9.9-3-30.9-11.9-30.9-34.3V912.9c0-5.5,6.4-8.4,10.6-4.9l238.7,198.2c6.9,5.7,17.2,0.8,17.2-8.1V808.6
				c0-23.9,22.7-33.9,32.2-36.9C3715.2,770.8,3717,767.5,3715.9,764.1z"/>
		</g>
		<g>
			<g>
				<defs>
					<circle id="SVGID_00000130635527659135410900000009263783077671851674_" cx="181.2" cy="934.9" r="190"/>
				</defs>
				<clipPath id="SVGID_00000068665881408020323010000002294016624227938733_">
					<use xlink:href="#SVGID_00000130635527659135410900000009263783077671851674_"  style="overflow:visible;"/>
				</clipPath>
			</g>
			<g>
				<defs>
					<path id="SVGID_00000167384785726883627120000016377164598286586795_" d="M86.4,1011.9c25.3-6.2,50.6-12,75.9-18
						c25.4-6,50.3-13.6,75-22c24.4-8.3,48.5-17.7,73-25.5c20.3-6.5,41-12.5,60.5-21c-1.6-33.7-12-64.9-29-91.7
						c-21.8,6.3-44,11.6-66.1,17.3c-25.2,6.6-50.3,13.6-75.4,20.6c-24.9,6.9-49.9,13.8-74.8,20.8c-24.7,7-49.3,14.2-73.5,22.7
						c-12.1,4.2-24.2,8.2-36.5,12c-6,1.9-12,3.7-17.9,5.9c-2.2,0.7-4.3,1.4-6.5,2.2c0,35,9.5,67.7,26,95.9
						C40.1,1023.7,63.1,1017.6,86.4,1011.9z"/>
				</defs>
				<clipPath id="SVGID_00000083079887921370973610000007495506394387704716_">
					<use xlink:href="#SVGID_00000167384785726883627120000016377164598286586795_"  style="overflow:visible;"/>
				</clipPath>
				<path style="clip-path:url(#SVGID_00000083079887921370973610000007495506394387704716_);fill:#FFFFFF;" d="M-23.3,1106.1
					c-9.2,0-18.1-0.2-26.9-0.6c-13.2-0.6-23.7-11.6-23.2-24.9c0.5-13.4,11.8-23.8,25.2-23.1c74.9,3.8,176.4-11,271.5-39.5
					c92.9-28,166.2-64.5,196-97.9c3.5-3.9,8.6-10.3,10.9-16.8c1.5-4.4-1.2-9.2-5.9-10c-10-1.6-32.3-1.9-80.4,9.7
					c-51,12.2-114.5,33.3-175.9,53.8C104.6,978,44.6,998-3.5,1009.1c-48.3,11.1-99.6,17.6-114.6-18.7c-6-14.3-9.2-36.9,9.2-63.4
					C-69.3,870.1,52,827,120.8,806.4c103.1-31.1,213.1-49.4,280.1-46.8c13.3,0.5,23.6,11.6,23.1,24.9S412.3,808,399,807.5
					c-62.2-2.4-166,15.1-264.7,44.7c-103.7,31.1-181.9,70.2-204.1,102c-1.1,1.6-2.1,3.2-2.8,4.6c-2.1,3.9-0.4,10.4,6.6,11
					c10.5,0.9,30.5-1.5,66.8-11.3c43.6-11.6,96.2-28.7,152-47.3c159.3-53.1,259.2-83.4,303.3-56.7c12.3,7.4,20.1,18.8,22.3,33
					c3.5,21.5-4.4,43.2-23.6,64.5c-36,40.2-115.5,81-218,111.8C146.5,1091,53.4,1106.1-23.3,1106.1z"/>
			</g>
			<g>
				<path class="st19" d="M325.5,811.4c27.9-3.3,53-4.7,73.5-3.9c13.3,0.5,24.4-9.8,24.9-23.1c0.5-13.3-9.8-24.4-23.1-24.9
					c-33.2-1.3-76.9,2.6-125.1,10.6C294.6,781,311.4,795,325.5,811.4z"/>
				<path class="st6" d="M275.7,770.1c-27.8-16-60.1-25.2-94.6-25.2c-72.2,0-135,40.3-167.1,99.6c38.2-16.4,77.3-29.4,106.7-38.2
					C172.8,790.7,226.6,778.3,275.7,770.1z"/>
			</g>
			<g>
				<defs>
					<circle id="SVGID_00000018209500908856441950000014043634333791711385_" cx="181.2" cy="934.9" r="190"/>
				</defs>
				<clipPath id="SVGID_00000033352105453940435970000003314354648994729637_">
					<use xlink:href="#SVGID_00000018209500908856441950000014043634333791711385_"  style="overflow:visible;"/>
				</clipPath>
				<g style="clip-path:url(#SVGID_00000033352105453940435970000003314354648994729637_);">
					<g>
						<path class="st19" d="M201.8,668.8c0,0,104,124.7,128.6,148.5c23.7,22.9,170.8,148,170.8,148l-4.3,19.9L177,674.3"/>
						<path class="st19" d="M181.8,684.3c0,0,105.3,124.6,129.9,148.4C335.3,855.6,481,981.1,481,981.1l-5.1,19.4L157.6,690.2"/>
						<path class="st19" d="M161.7,699.7c0,0,106.5,124.5,131.1,148.3c23.7,22.9,168,148.9,168,148.9l-5.9,18.9L138.1,706.1"/>
						<path class="st19" d="M141.6,715.2c0,0,107.8,124.5,132.4,148.2c23.7,22.9,166.5,149.3,166.5,149.3l-6.7,18.4L118.7,722"/>
						<path class="st19" d="M121.6,730.6c0,0,109.1,124.4,133.6,148.1c23.7,22.9,165.1,149.8,165.1,149.8l-7.5,17.9L99.2,737.9"/>
						<path class="st19" d="M101.5,746.1c0,0,110.3,124.3,134.9,148c23.7,22.9,163.7,150.2,163.7,150.2l-8.3,17.4l-312-308"/>
						<path class="st19" d="M81.4,761.6c0,0,111.6,124.2,136.2,148c23.7,22.9,162.2,150.7,162.2,150.7l-9.1,16.9L60.3,769.7"/>
					</g>
				</g>
			</g>
		</g>
	</g>
</g>
<g>
	<g>
		<g>
			<g>
				<g>
					<path class="st19" d="M3734,500.4h-18.4v-11.3h50.2v11.3h-18.4v49.9h-13.5L3734,500.4L3734,500.4z"/>
					<path class="st19" d="M3772.9,489.1h19l14.3,42.1h0.2l13.6-42.1h19v61.3h-12.6V507h-0.2l-15,43.4h-10.4l-15-43h-0.2v43h-12.7
						V489.1z"/>
				</g>
				
					<linearGradient id="SVGID_00000071536934172361524410000003304763371816397466_" gradientUnits="userSpaceOnUse" x1="1924.9213" y1="771.2444" x2="1924.9213" y2="0">
					<stop  offset="0" style="stop-color:#FFFFFF"/>
					<stop  offset="0.3809" style="stop-color:#FFFFFF"/>
					<stop  offset="0.4042" style="stop-color:#F4E7E9"/>
					<stop  offset="0.4844" style="stop-color:#D099A4"/>
					<stop  offset="0.5416" style="stop-color:#B96978"/>
					<stop  offset="0.5698" style="stop-color:#B05667"/>
					<stop  offset="0.7789" style="stop-color:#CE0033"/>
					<stop  offset="1" style="stop-color:#FD003E"/>
				</linearGradient>
				<path style="fill:url(#SVGID_00000071536934172361524410000003304763371816397466_);" d="M1987.2,6.1c2.9-1.5,6.3-3.1,10.2-4.9
					c12.8-6,23,12,11.3,19.9c-4.1,2.8-7.8,5.3-10.8,7.4c-37.7,26.4-70.7,57.5-70.7,162.7c0,132.1,109.3,260.9,109.3,356.6
					c0,74.3-21,142.4-185.7,222.3c-5.4,2.6-11.9,0.6-14.9-4.6l0,0c-3.2-5.5-1.1-12.6,4.5-15.6c65.8-35.2,85.1-108.1,82.3-170.7
					c-5.8-130.2-111.3-242.2-109.3-349C1814.6,166.5,1839.9,80.3,1987.2,6.1z"/>
				<path class="st19" d="M1884.3,536.8c-9.3-3.5-28.3-13.5-40.2-39.9l-130.5-289.4c-5.5-12.3-22.8-12.8-29.1-0.9L1587.9,390
					c-5,9.5-14.9,15.5-25.6,15.5h-115.9h-3.9c-3.9,0-7.8,3.1-8.4,6.9c-0.8,5,2.8,9.2,7.6,9.6c32.2,2.9,51.5,24.4,51.2,59.1
					c-0.2,32-26.9,58.2-59,58.2h-8.4c-85.8,0-89.5-98.6-89.5-120.1c0-25.1,0-75.4,0-75.4c0-37,14.9-102,87.2-102
					c67.5,0,105.5,31.1,136.4,72.3c5.1,6.8,15.8,1.2,13.2-6.9l-27.1-84.9c-2.6-8.2-12.2-11.8-19.6-7.3
					c-19.9,12.2-31.6,10.2-31.6,10.2c-9.8,0.3-41-8.6-78.9-8.6c-60.5,0-109.3,24-142.8,56.3c-3.3,3.2-8.8,2.1-10.5-2.2l-15-36.4
					c-3.1-7.5-7.1-12.5-15.3-12.5h-172.2v-0.1h-89.6c-5.7,0-11.3-0.2-17-0.5c-30.7-1.7-138.6-7.3-193.8-7.3
					c-69.2,0-123.4,21.7-128.9,72.7C626.4,325,653,345,668.3,359c8.3,7.6,47.1,32.2,67.1,41.4c20.8,9.6,103.8,51.2,95.2,84.2
					c-8.6,32.7-36.6,40.7-69,40.7c-50.8,0-105.4-42.1-145.8-79.8c-7-6.6-17.9,1.6-13.5,10.2c16.7,32.7,38.1,72.4,52.1,93.4
					c4,5.9,11.2,8.8,18.2,7c15.1-3.8,34.6-5.8,46.5-5.2c15.3,0.7,47.2,4.9,61.2,4.9c116.4,0,152.9-30.6,156.7-83.7
					c5.2-73-81.9-121.6-135-142.9c-47.4-19.1-65.8-47.9-63.8-62.2c3.3-24.8,26.9-29,46.7-28.2c61.2,2.3,176.7,32.2,176.7,74.2
					c0,0,0,186.7,0,194.9c0,10.9-11.9,30.5-26.9,30.5h-0.3c-2.7,0-5.4,1-7.4,2.9c-5.2,5.2-1.6,11.4,3.4,11.4h65l0,0h64.4h183.8
					c5.9,0,11.1-3.5,13.4-9l10-24.4c1.9-4.7,7.9-6.1,11.7-2.7c32.8,29.6,80.8,48.2,146.4,48.2c15.3,0,47-4.2,61.8-9.6
					c4.7-1.7,9.7-2.6,14.7-2.6h122.9h19.8c7.3,0,10.8-9.1,5.3-14c-2.4-2.1-4.6-4.1-6.1-5.5c-11.7-10.6-11.2-17.8-11.5-23.9
					c-0.3-6,1-12,3.8-17.4l87.1-165.4l74.4,165.1c2.5,5.5,3.7,11.6,3.2,17.6c-0.1,0.8-0.1,1.5-0.2,2c-1.4,7.8-8.4,23.5-21.5,23.5
					h-2.1c-3.2,0-6.4,1.1-8.8,3.2c-7.3,6.5-2.8,14.7,3.6,14.7h110.1c5.1,0,9.1-4.6,8.1-9.8C1889.2,540.1,1887.1,537.8,1884.3,536.8z
					 M1244.9,306.9c-15,23.6-23.1,48.6-23.1,70.6c0,29.3,5.4,57.9,16.8,83.6c2.5,5.6,1.4,12.2-2.9,16.6
					c-21.1,21.4-67.2,51.2-133.1,51.2h-16.1c-14.7,0-26.6-11.9-26.6-26.6v-89.7v-4.8c0-5,7.5-11.2,15.9-9.5
					c12.9,2.5,35.6,10.6,53.7,21.1c12.7,7.4,24.2,15.1,37.4,26c5.8,4.8,14.6,0.6,14.6-6.9v-28.2v-55.7v-28.2
					c0-7.5-8.8-11.7-14.6-6.9c-13.2,10.9-24.7,18.6-37.4,26c-18.1,10.4-41.5,21.4-54.3,24.4c-9.9,2.3-13.4-1.6-15.3-5.3v-5.4v-88
					c0-14,11.4-25.4,25.4-25.4h32.6c53.4,0,102.1,30.6,125.5,50.8C1246.3,299.1,1247,303.6,1244.9,306.9z"/>
				<path class="st19" d="M3730.9,225.6c-0.8-2.3-3.1-3.8-5.6-3.8h-25.6h-48.1H3626c-2.5,0-4.8,1.5-5.6,3.8
					c-1.1,3.2,0.7,6.4,3.6,7.4c9.2,3,31.3,12.7,31.3,35.9V408c0,5.3-6.2,8.2-10.3,4.8l-146.2-121.3
					c-45.6-37.9-110.2-63.1-152.9-76.9c-9.4-3-15.9,9.4-8,15.4c1.4,1.1,2.8,2.1,4.3,3.2c48.7,36.6,53.9,89.1,53.9,95.1v186.8v9
					c0,7-5.7,12.7-12.7,12.7c-16.3,0-52.8-26.5-71.4-46c-17.5-18.3-25.9-43.5-45.5-66.6c-15.6-18.3-28.9-25.1-28.9-25.1
					c98.3,0,101.2-79.7,101.2-88.6c0-13.3,0-89-123-89h-283.9h-48.3c-2.5,0-4.8,1.5-5.6,3.8c-1.1,3.2,0.7,6.5,3.6,7.4
					c9.2,3,31.3,12.7,31.3,35.9v175c0,60.5-42.3,80.7-76.2,80.7c-61.8,0-85.5-36.4-85.5-82.2v-26.5l0,0v-147
					c0-23.2,22.1-32.9,31.3-35.9c2.4-0.8,4-2.9,4-5.4v-0.1c0-3.1-2.5-5.7-5.7-5.7h-110.9h-17h-223.4h-113.8c-6.9,0-13.3,4-16.3,10.2
					l-18.3,37.9c-3.1,6.5,4.3,12.9,10.3,8.9c24.5-16.6,65.7-35.7,126-38c6.6-0.2,12.1,5.1,12.1,11.7v240c0,11.4-4.2,20.2-9.9,26.9
					c-4.4,5.2-11,8.2-17.9,8.2h-14.8c-4.8,0-9.6-1.3-13.7-4c-9.4-6.1-18.3-14.7-23.7-26.7L2219,207.2c-5.6-12.3-22.8-12.8-29.1-0.9
					L2054.1,464l-39.2,74.3l2.7,14.2h39.4h7h85.5l0,0c7.3,0,10.8-9.1,5.3-14c0,0-0.1,0-0.1-0.1c-2.4-2.1-4.5-4-6-5.4
					c-11.6-10.4-11.2-17.6-11.5-23.7c-0.3-6.1,1-12.2,3.8-17.6l87.2-165.4l74.4,165.1c2.5,5.5,3.7,11.6,3.2,17.6
					c-0.1,0.8-0.1,1.5-0.2,2c-1.4,7.8-8.4,23.5-21.5,23.5h-0.2c-2.6,0-5.2,0.8-7.3,2.4c-8.6,6.6-4,15.5,2.6,15.5h109.7h6.4h86.7
					h25.6h52.4c4.5,0,8.4-3.4,8.6-7.9c0.2-3.6-2-7-5.3-8.2c-11-4.2-35.3-16.7-35.3-44.1v-240c0-6.8,5.5-12,12.3-11.7
					c46.6,1.8,81.8,13.6,106.6,26.6c4,2.1,6.5,6.2,6.5,10.7v154.6h0.4c4,71,37.7,125.6,161.2,125.6c71.6,0,138.7-37.5,138.7-106.6
					c0-8.5,0-177.2,0-177.2c0-10.5,3.3-17.9,7.5-23c6.1-7.5,15.5-11.5,25.2-11.5h14.6c9.7,0,19.1,4,25.2,11.5
					c4.2,5.2,7.5,12.6,7.5,23v214.5c0,31.9-25.3,43.9-37.1,47.8c-2.8,0.9-5.1,3.2-5.7,6.2c-1,5.2,2.9,9.8,8,9.8h52.8h59.6h55.2
					c3.4,0,6.6-2,7.8-5.2c1.7-4.6-0.8-9.3-5-10.7c-11.6-3.8-37.4-15.8-37.4-47.9V285.4v-24.2c0-18.2,15.6-24.8,26.3-24.8h30.7
					c28.6,0,57,24.1,57,64.3c0,59-38.4,73.3-54.1,73.3c-10.5,0-18.7,0.2-27.4-3c0,0-0.1,0-0.1-0.1c-5.5-2.6-11.4,2.5-9.6,8.3
					c0.1,0.3,0.1,0.5,0.2,0.5c9.2,31.2,25.8,78.9,48.4,109.3c35.1,47.3,101.7,85,213.4,85h48c3,0,5.8-1.8,6.7-4.6
					c1.3-3.9-0.9-7.8-4.5-8.9c-9.6-2.9-30-11.6-30-33.3v-157c0-5.3,6.2-8.2,10.3-4.8l232,192.6c6.7,5.5,16.7,0.8,16.7-7.9V268.9
					c0-23.2,22.1-32.9,31.3-35.9C3730.2,232.1,3732,228.9,3730.9,225.6z"/>
			</g>
		</g>
	</g>
	<g>
		
			<radialGradient id="SVGID_00000036218406184878168650000018391072221967193765_" cx="4555.5078" cy="6449.6465" r="218.1254" fx="4557.251" fy="6446.5981" gradientTransform="matrix(1 0 0 -1 -4213.2275 6777.2158)" gradientUnits="userSpaceOnUse">
			<stop  offset="0" style="stop-color:#FFFFFF"/>
			<stop  offset="0.1072" style="stop-color:#E1E7F2"/>
			<stop  offset="0.4368" style="stop-color:#88A1CC"/>
			<stop  offset="0.7055" style="stop-color:#476EB0"/>
			<stop  offset="0.8997" style="stop-color:#1E4E9F"/>
			<stop  offset="1" style="stop-color:#0F4298"/>
		</radialGradient>
		<circle style="fill:url(#SVGID_00000036218406184878168650000018391072221967193765_);" cx="295.3" cy="391.6" r="184.6"/>
		<g>
			<g>
				<defs>
					<path id="SVGID_00000106832022104167551450000012343282348498987448_" d="M203.2,466.4c24.6-6,49.2-11.7,73.8-17.5
						c24.7-5.8,48.9-13.2,72.9-21.4c23.7-8.1,47.1-17.2,70.9-24.8c19.7-6.3,39.8-12.1,58.8-20.4c-1.6-32.7-11.7-63.1-28.2-89.1
						c-21.2,6.1-42.8,11.3-64.2,16.8c-24.5,6.4-48.9,13.2-73.3,20c-23.9,6.6-47.9,13.2-71.7,19.9c-25.5,7.2-50.9,14.9-75.9,23.6
						c-10.7,3.7-21.4,7.2-32.2,10.5c-5.7,1.7-11.4,3.6-17,5.6c-2.1,0.7-4.2,1.4-6.3,2.1c0,34,9.2,65.8,25.3,93.2
						C158.2,477.9,180.6,471.9,203.2,466.4z"/>
				</defs>
				<clipPath id="SVGID_00000036218006955761820980000016526966243543053464_">
					<use xlink:href="#SVGID_00000106832022104167551450000012343282348498987448_"  style="overflow:visible;"/>
				</clipPath>
				<path style="clip-path:url(#SVGID_00000036218006955761820980000016526966243543053464_);fill:#FFFFFF;" d="M96.6,557.9
					c-8.9,0-17.6-0.2-26.1-0.6c-12.8-0.6-23-11.3-22.5-24.2c0.5-13,11.5-23.1,24.5-22.4c72.8,3.7,171.4-10.7,263.8-38.4
					c90.3-27.2,161.5-62.7,190.5-95.1c3.4-3.8,8.4-10,10.6-16.3c1.5-4.3-1.2-8.9-5.7-9.7c-9.7-1.6-31.4-1.8-78.1,9.4
					C404,372.5,342.3,393,282.7,412.9c-61.8,20.6-120.1,40-166.8,50.8C69,474.5,19.1,480.8,4.5,445.5c-5.8-13.9-8.9-35.9,8.9-61.6
					c38.5-55.3,156.4-97.2,223.2-117.2c100.2-30.2,207.1-48,272.2-45.5c12.9,0.5,22.9,11.3,22.4,24.2c-0.5,12.9-11.3,22.9-24.2,22.4
					c-60.4-2.3-161.3,14.7-257.2,43.4C149,341.4,73,379.4,51.5,410.3c-1.1,1.6-2,3.1-2.7,4.5c-2,3.8-0.4,10.1,6.4,10.7
					c10.2,0.9,29.6-1.5,64.9-11c42.4-11.3,93.5-27.9,147.7-46c154.8-51.6,251.9-81,294.7-55.1c12,7.2,19.5,18.3,21.7,32.1
					c3.4,20.9-4.3,42-22.9,62.7c-35,39.1-112.2,78.7-211.8,108.6C261.6,543.3,171.1,557.9,96.6,557.9z"/>
			</g>
			<g>
				<defs>
					<path id="SVGID_00000026853668187482053870000017253761615943174034_" d="M203.2,466.4c24.6-6,49.2-11.7,73.8-17.5
						c24.7-5.8,48.9-13.2,72.9-21.4c23.7-8.1,47.1-17.2,70.9-24.8c19.7-6.3,39.8-12.1,58.8-20.4c-1.6-32.7-11.7-63.1-28.2-89.1
						c-21.2,6.1-42.8,11.3-64.2,16.8c-24.5,6.4-48.9,13.2-73.3,20c-23.9,6.6-47.9,13.2-71.7,19.9c-25.5,7.2-50.9,14.9-75.9,23.6
						c-10.7,3.7-21.4,7.2-32.2,10.5c-5.7,1.7-11.4,3.6-17,5.6c-2.1,0.7-4.2,1.4-6.3,2.1c0,34,9.2,65.8,25.3,93.2
						C158.2,477.9,180.6,471.9,203.2,466.4z"/>
				</defs>
				<clipPath id="SVGID_00000139977843804140722210000015085815035070550700_">
					<use xlink:href="#SVGID_00000026853668187482053870000017253761615943174034_"  style="overflow:visible;"/>
				</clipPath>
				<path style="clip-path:url(#SVGID_00000139977843804140722210000015085815035070550700_);fill:none;" d="M89.2,512.3
					c-21.4-36.5-32.7-78.2-32.7-120.6v-39.1l37.1-12.4c1-0.3,2-0.6,2.9-1c0.8-0.3,1.6-0.5,2.3-0.8c6.9-2.4,13.5-4.5,19.7-6.4
					c11.1-3.4,22.4-7.1,33.4-11c26.2-9.2,52.4-16.8,74.6-23.1c17.2-4.8,34.6-9.7,51.4-14.3c7.2-2,14.3-4,21.5-5.9l11.7-3.2
					c20.4-5.7,41.4-11.5,62.5-17c6.7-1.7,13.4-3.5,20.2-5.2c14.8-3.7,28.8-7.3,42.6-11.3l39.2-11.3l21.8,34.5
					c21.8,34.6,34.5,74.5,36.5,115.4l1.9,37.4l-34.4,15c-18.1,7.9-36,13.5-53.2,19c-3.6,1.1-7.1,2.3-10.7,3.4
					c-12.9,4.1-25.7,8.8-39.2,13.6c-10,3.6-20.4,7.4-30.9,10.9c-28.4,9.6-53.8,17.1-77.9,22.8c-8.3,2-16.5,3.9-24.8,5.8
					c-16,3.7-32.5,7.6-48.6,11.6c-25.3,6.2-45.6,11.8-63.8,17.5l-41.2,13L89.2,512.3z"/>
			</g>
		</g>
		<g>
			<path class="st19" d="M55.2,425.5c-6.8-0.6-8.4-6.9-6.4-10.7c0.7-1.4,1.6-2.9,2.7-4.5c9.9-14.2,31.2-29.9,61.2-45.6
				c3.2-21.8,10.1-42.3,20.2-60.9c-49.5,21.3-97.5,48.5-119.5,80.1c-17.8,25.7-14.7,47.7-8.9,61.6c14.6,35.3,64.5,29,111.4,18.2
				c2.8-0.7,5.7-1.3,8.6-2c-5.8-14.2-10-29.4-12.1-45.1C82,424.3,64.7,426.3,55.2,425.5z"/>
			<path class="st19" d="M435.6,271.6c27.1-3.2,51.5-4.5,71.5-3.8c12.9,0.5,23.7-9.5,24.2-22.4c0.5-12.9-9.5-23.7-22.4-24.2
				c-32.2-1.2-74.7,2.5-121.6,10.3C405.6,242,421.9,255.6,435.6,271.6z"/>
			<path class="st19" d="M584.2,345.5c-2.2-13.8-9.7-24.9-21.7-32.1c-20.8-12.6-54.3-12.1-101.1-2.4c6.8,14,11.9,29,15,44.6
				c31.3-6.1,47.4-5.7,55.3-4.4c4.5,0.8,7.2,5.4,5.7,9.7c-2.2,6.3-7.2,12.5-10.6,16.3c-10.7,12-27.2,24.4-48.2,36.6
				c-2.6,22.1-9.2,42.9-18.9,61.9c45.8-21.3,81-44.5,101.6-67.5C579.9,387.5,587.6,366.4,584.2,345.5z"/>
			<path class="st19" d="M152.5,508.6c-28.7,2.6-55.8,3.4-80,2.1c-13-0.7-24,9.4-24.5,22.4c-0.5,12.9,9.7,23.6,22.5,24.2
				c8.5,0.4,17.2,0.6,26.1,0.6c32.1,0,67.2-2.7,103.8-7.9C182.2,539,166,525,152.5,508.6z"/>
			<path class="st6" d="M387.2,231.5c-27.1-15.6-58.4-24.5-91.9-24.5c-70.2,0-131.2,39.1-162.4,96.8c37.1-15.9,75.1-28.5,103.7-37.1
				C287.2,251.5,339.5,239.4,387.2,231.5z"/>
			<path class="st6" d="M112.7,364.7c-1.3,8.8-2,17.7-2,26.9c0,8.5,0.6,16.8,1.7,24.9c2.5-0.6,5.1-1.3,7.7-2
				c42.4-11.3,93.5-27.9,147.7-46c79.7-26.6,144-47.2,193.6-57.5c-6.9-14.3-15.7-27.5-25.9-39.4c-55,6.4-121.5,20.4-185.7,39.6
				C195.3,327.5,148,346.2,112.7,364.7z"/>
			<path class="st6" d="M200.4,550c27.7,16.7,60.2,26.2,94.9,26.2c71.7,0,133.8-40.8,164.4-100.5c-32,14.9-69.2,28.8-110.2,41.1
				C299.5,531.9,248.7,543.1,200.4,550z"/>
			<path class="st6" d="M478.6,413.8c0.9-7.3,1.3-14.7,1.3-22.2c0-12.3-1.2-24.3-3.5-36c-6.8,1.3-14.4,3-22.8,5
				C404,372.5,342.3,393,282.7,412.9c-58.1,19.4-113.1,37.7-158.2,48.8c7,17.1,16.5,32.8,28,46.9c57.7-5.2,122.1-17.8,183.8-36.3
				C393.3,455.1,442.6,434.7,478.6,413.8z"/>
		</g>
	</g>
</g>
</svg>
