<?xml version="1.0" encoding="utf-8"?>
<!-- Generator: Adobe Illustrator 25.4.1, SVG Export Plug-In . SVG Version: 6.00 Build 0)  -->
<svg version="1.1" id="Layer_1" xmlns="http://www.w3.org/2000/svg" xmlns:xlink="http://www.w3.org/1999/xlink" x="0px" y="0px"
	 viewBox="0 0 3839 1244.5" style="enable-background:new 0 0 3839 1244.5;" xml:space="preserve">
<style type="text/css">
	.st0{fill:#FFFFFF;}
	.st1{fill:#034693;}
	.st2{fill:#FFFFFF;stroke:#3852A1;stroke-width:6.1873;stroke-linecap:round;stroke-linejoin:round;stroke-miterlimit:10;}
	.st3{fill:#008ED6;}
	.st4{fill:#FF0000;}
	.st5{fill:url(#SVGID_1_);}
	.st6{fill:url(#SVGID_00000181067312038085273360000001710362678422263221_);}
	.st7{fill:#F4F8F4;}
	.st8{fill:url(#SVGID_00000107573896823047125750000010935740125068640394_);}
	.st9{fill:url(#SVGID_00000168101602549003323650000016208482098148503483_);}
	.st10{fill:url(#SVGID_00000033356397429756179750000000378304317847523495_);}
	.st11{fill:url(#SVGID_00000035501256518315849550000013007886904744179596_);}
	.st12{fill:url(#SVGID_00000155828299415688043610000015949753893434039450_);}
	.st13{fill:url(#SVGID_00000000215309288626915800000015624189007320479916_);}
	.st14{fill:url(#SVGID_00000136390116995036929370000011042505422489289386_);}
	.st15{fill:url(#SVGID_00000168836672029641346040000012284804255426298809_);}
	.st16{fill:url(#SVGID_00000048494021521494939720000010371836063818552453_);}
	.st17{fill:url(#SVGID_00000062193554457153791090000015208798201055141010_);}
	.st18{fill:url(#SVGID_00000159461235480288350540000004675595119481698236_);}
	.st19{fill:url(#SVGID_00000016061170879982677990000004267447491810258366_);}
	.st20{fill:url(#SVGID_00000106142510132052147210000002477779461972041381_);}
	.st21{fill:url(#SVGID_00000017513831264343809700000012807663246901725569_);}
	.st22{fill:url(#SVGID_00000178889376168662033180000002348434352009498294_);}
	.st23{fill:url(#SVGID_00000129179713301199452430000015659439401224012207_);}
	.st24{fill:url(#SVGID_00000073709877674120637300000011182592859919340218_);}
	.st25{fill:url(#SVGID_00000099651810650617871110000012934071247925059740_);}
	.st26{fill:url(#SVGID_00000093877581844668675800000003159023813505069995_);}
	.st27{fill:url(#SVGID_00000074427029609176521380000018381599160274642591_);}
	.st28{fill:url(#SVGID_00000102530363569025850050000008127230750190602674_);}
	.st29{fill:url(#SVGID_00000155113594596417948300000013482647624319734462_);}
	.st30{fill:#DBDCD9;}
	.st31{fill:url(#SVGID_00000096032934133101432120000003787264080311343022_);}
	.st32{fill:url(#SVGID_00000083791058042046970270000003092868308803295400_);}
	.st33{fill:url(#SVGID_00000175317023315271347350000000904600610852811665_);}
	.st34{fill:url(#SVGID_00000141435769461607558090000014541986918167844765_);}
	.st35{fill:url(#SVGID_00000081632223834605220190000004735763856518624418_);}
	.st36{fill:url(#SVGID_00000131334740069799843420000010387157998930650255_);}
	.st37{fill:url(#SVGID_00000018923846654630093200000018293737480119899283_);}
	.st38{fill:url(#SVGID_00000039129353775329321850000002702832514298790557_);}
	.st39{fill:url(#SVGID_00000098183558463845576180000018387523078642105757_);}
	.st40{fill:url(#SVGID_00000003081965011020929080000012680158057006186161_);}
	.st41{fill:url(#SVGID_00000162337107150614027140000001773936741477258926_);}
	.st42{fill:url(#SVGID_00000102529518283670238800000011651324669164576432_);}
	.st43{fill:url(#SVGID_00000100381759859207341110000012764389580343420556_);}
	.st44{fill:url(#SVGID_00000009585211222098019050000013260131728872578180_);}
	.st45{fill:url(#SVGID_00000145750372896594166400000014007337014959924382_);}
	.st46{fill:url(#SVGID_00000047031807130712598000000006536887389364788155_);}
	.st47{fill:url(#SVGID_00000127736085132813274750000010241968054290333866_);}
	.st48{fill:url(#SVGID_00000085242606911571131000000003849827284085977752_);}
	.st49{fill:url(#SVGID_00000150800507340155978210000004903866694460043672_);}
	.st50{fill:url(#SVGID_00000085961547973455512970000000888931649104480403_);}
	.st51{fill:url(#SVGID_00000047026290819396857010000009297298220461256119_);}
	.st52{fill:url(#SVGID_00000106832675328692239770000002665028661970783125_);}
	.st53{fill:url(#SVGID_00000098930660658546372560000001005460648786631856_);}
	.st54{fill:url(#SVGID_00000152971557776349019750000012238453009031477139_);}
	.st55{fill:url(#SVGID_00000164481661414534247430000007241810604629091494_);}
	.st56{fill:url(#SVGID_00000080169240592050861450000009120777205392334470_);}
	.st57{fill:url(#SVGID_00000010272649124326333330000016374698810537897361_);}
	.st58{fill:url(#SVGID_00000096021489159586508550000003468064370312361352_);}
	.st59{fill:url(#SVGID_00000132078721561448039650000002143476509740783251_);}
	.st60{fill:url(#SVGID_00000039855105403542184710000012008556257461222543_);}
	.st61{fill:url(#SVGID_00000139269448184433575010000002479697698955933869_);}
	.st62{fill:url(#SVGID_00000136395323264589613100000002769277791489285017_);}
	.st63{fill:url(#SVGID_00000094600137453110829250000015813446732818899096_);}
	.st64{fill:url(#SVGID_00000119817114554085597740000011825812546601781130_);}
	.st65{fill:url(#SVGID_00000059991988427205004170000001799412857002623147_);}
	.st66{fill:url(#SVGID_00000141454111569917835800000008646731076731044224_);}
	.st67{fill:url(#SVGID_00000124860365699985556330000018388216869121407876_);}
	.st68{fill:url(#SVGID_00000183966480610823438020000013351678365983114136_);}
	.st69{fill:url(#SVGID_00000128482729517417590320000004113442892924355208_);}
	.st70{fill:url(#SVGID_00000014606774592498023540000014197062997937450930_);}
	.st71{fill:url(#SVGID_00000172400489337118717540000012653075681499167401_);}
	.st72{fill:url(#SVGID_00000075878312478374351980000010764926318608638381_);}
	.st73{fill:url(#SVGID_00000007423177607266635460000007235199378239149973_);}
	.st74{fill:url(#SVGID_00000035508514931777525300000015317090988289991041_);}
	.st75{fill:url(#SVGID_00000181779121471767756470000002254527151222524817_);}
	.st76{fill:url(#SVGID_00000013894175911586220740000015855461959369175446_);}
	.st77{fill:url(#SVGID_00000016788909099300501350000001803059283438469261_);}
	.st78{fill:url(#SVGID_00000015314097579612813420000007373769489555306686_);}
	.st79{fill:url(#SVGID_00000181797776964689193240000013141070372753083548_);}
	.st80{fill:url(#SVGID_00000045604924843314320350000015093820990136165524_);}
	.st81{fill:url(#SVGID_00000127001939130308927590000016713821028838482870_);}
	.st82{fill:url(#SVGID_00000025426926467250854130000017140345945219768511_);}
	.st83{fill:url(#SVGID_00000028326975580248979300000017173044716428698498_);}
	.st84{fill:url(#SVGID_00000105419086783679207220000011855167102480834216_);}
	.st85{fill:url(#SVGID_00000011724468754415507830000010984074565727482768_);}
	.st86{fill:url(#SVGID_00000101792929352405860160000015972984208223751055_);}
	.st87{fill:url(#SVGID_00000025428766729395551750000009752105438921958564_);}
	.st88{fill:url(#SVGID_00000036962032067220271640000010502897624321050249_);}
	.st89{fill:url(#SVGID_00000116208773857967574010000002941711908130732424_);}
	.st90{fill:url(#SVGID_00000110463061102787716040000014602460220304239258_);}
	.st91{fill:url(#SVGID_00000177448533613065187910000008676194965410590092_);}
	.st92{fill:url(#SVGID_00000124840412790665814620000016405771498567057845_);}
	.st93{fill:url(#SVGID_00000133528304821625939850000004896297886733933448_);}
	.st94{fill:url(#SVGID_00000147905236554128171230000002662551448039327362_);}
	.st95{fill:url(#SVGID_00000098188784597153344270000001509687334725499546_);}
	.st96{fill:url(#SVGID_00000072997894907468729930000001003766824632502922_);}
	.st97{fill:url(#SVGID_00000103957741880874927330000001525913947228628411_);}
	.st98{fill:url(#SVGID_00000119113142421303808870000017844392125451517116_);}
	.st99{fill:url(#SVGID_00000146467694703160119070000009813258465145869200_);}
	.st100{fill:url(#SVGID_00000042015402385497368510000014676671263202633351_);}
	.st101{fill:url(#SVGID_00000034786589947099608820000001892711185296949386_);}
	.st102{fill:url(#SVGID_00000124137460557619619840000008891473627360922022_);}
	.st103{fill:url(#SVGID_00000015342965745925493670000004646996042321599673_);}
	.st104{fill:url(#SVGID_00000018220965229063976990000012834479040196861590_);}
	.st105{fill:url(#SVGID_00000031902517164174391720000013996836179714457019_);}
	.st106{fill:url(#SVGID_00000173127696027066728560000009403212307991280529_);}
	.st107{fill:url(#SVGID_00000106129720720367467910000018283267707059892402_);}
	.st108{fill:url(#SVGID_00000044891313552812195630000012713489990209549705_);}
	.st109{fill:url(#SVGID_00000005237924194673695470000004677611122321821581_);}
	.st110{fill:url(#SVGID_00000046330945068678334100000010579804565633456299_);}
	.st111{fill:url(#SVGID_00000123413705523135058610000002335587453269584311_);}
	.st112{fill:url(#SVGID_00000124852297078667626340000005395959005222668163_);}
	.st113{fill:url(#SVGID_00000124123172753282328090000012844663492849933230_);}
	.st114{fill:url(#SVGID_00000132052215241038871470000002548093601141171362_);}
	.st115{fill:url(#SVGID_00000003822337313845767060000005935072678529181319_);}
	.st116{fill:url(#SVGID_00000052094805427530843440000006384781684412589744_);}
	.st117{fill:url(#SVGID_00000114758822815277102780000003490710653237756312_);}
	.st118{fill:url(#SVGID_00000093857842615466019360000003220713119318647728_);}
	.st119{fill:url(#SVGID_00000138558318765597419950000002797924367474447019_);}
	.st120{fill:url(#SVGID_00000054229368325494179560000003855855815569703347_);}
	.st121{fill:url(#SVGID_00000130611583133291059080000004192352470779566261_);}
	.st122{fill:url(#SVGID_00000134225554035562539160000002990872201937752714_);}
	.st123{fill:url(#SVGID_00000029758231138406213690000015056045166633153195_);}
	.st124{fill:url(#SVGID_00000031912744250725433880000005046600600638070451_);}
	.st125{fill:url(#SVGID_00000098939951637647933180000000218708087619155087_);}
	.st126{fill:url(#SVGID_00000122697738730870729530000007969142445026424973_);}
	.st127{fill:url(#SVGID_00000164494598485980987980000000947174192045040812_);}
	.st128{fill:url(#SVGID_00000088123066629329494170000008400618467724053673_);}
	.st129{fill:url(#SVGID_00000075165037604513815160000007756962560870571660_);}
	.st130{fill:url(#SVGID_00000157280125243078756760000006765320627172000440_);}
	.st131{fill:url(#SVGID_00000145762183975990964300000013305492127065114037_);}
	.st132{fill:url(#SVGID_00000175295699778230418130000009128845630764980899_);}
	.st133{fill:url(#SVGID_00000173129368941351545180000012159726477792289441_);}
	.st134{fill:url(#SVGID_00000016769369492874155720000004900241779356051889_);}
	.st135{fill:url(#SVGID_00000052791820116576721480000008025157807338920624_);}
	.st136{fill:url(#SVGID_00000139977470335589064530000010725306326861986973_);}
	.st137{fill:url(#SVGID_00000038371330611555586500000009251732541173899174_);}
	.st138{fill:url(#SVGID_00000079462407181183098230000015187731637534434440_);}
	.st139{fill:url(#SVGID_00000016040628396496281760000006329153211277644168_);}
	.st140{fill:url(#SVGID_00000156561315952987035790000012637503369993505978_);}
	.st141{fill:url(#SVGID_00000147920790169086660090000001237999906822735519_);}
	.st142{fill:url(#SVGID_00000171690838591380040720000007083407024950922665_);}
	.st143{fill:url(#SVGID_00000079461264338511169040000014430078859152807818_);}
	.st144{fill:url(#SVGID_00000128456456309474678120000003650720897560344712_);}
	.st145{fill:url(#SVGID_00000013181869069821420750000017299099655761280926_);}
	.st146{fill:url(#SVGID_00000020383795608298791320000017369887744837975452_);}
	.st147{fill:url(#SVGID_00000121969699416538579440000002716444369552156567_);}
	.st148{fill:url(#SVGID_00000127745776981227441660000009508987660244049825_);}
	.st149{fill:url(#SVGID_00000127008245649282337200000004606600249100576953_);}
	.st150{fill:url(#SVGID_00000097471433269851129060000008531803028559915928_);}
	.st151{fill:url(#SVGID_00000107546999387918127920000013749582385810433677_);}
	.st152{fill:url(#SVGID_00000063604154797253242740000004357832562801026493_);}
	.st153{fill:url(#SVGID_00000129909067936530949310000010832198409875401091_);}
	.st154{fill:url(#SVGID_00000021801541796622245790000014351254932806419391_);}
	.st155{fill:url(#SVGID_00000030454028274025002100000002958730587448471974_);}
	.st156{fill:url(#SVGID_00000150798343287709624870000009475912314108283052_);}
	.st157{fill:url(#SVGID_00000117649831120742361480000008164983800936574876_);}
	.st158{fill:url(#SVGID_00000066483257438075820990000015091624371825868205_);}
	.st159{fill:url(#SVGID_00000103244533856277082210000006167683710922141336_);}
	.st160{fill:url(#SVGID_00000164512683888391408640000015790335160759462548_);}
	.st161{fill:url(#SVGID_00000013195334694028507360000012963616199578012300_);}
	.st162{fill:url(#SVGID_00000164484905367329520420000012544616211309839273_);}
	.st163{fill:url(#SVGID_00000044881561284225402650000008789881002087333538_);}
	.st164{fill:url(#SVGID_00000005233797986908966400000002738365584940262021_);}
	.st165{fill:url(#SVGID_00000125594542799652958840000003640629092231204754_);}
	.st166{fill:url(#SVGID_00000109734246433025973400000012010416468114725538_);}
	.st167{fill:url(#SVGID_00000156573771265139599750000004673884350483365004_);}
	.st168{fill:url(#SVGID_00000065065222839679257490000013028717296868702095_);}
	.st169{fill:url(#SVGID_00000124145459699708378090000011723306865827409026_);}
	.st170{fill:url(#SVGID_00000059995842326501430860000011190333656619169931_);}
	.st171{fill:url(#SVGID_00000118371175935667869070000018120734394366933898_);}
	.st172{fill:url(#SVGID_00000134970976484428368900000017409838092998083249_);}
	.st173{fill:url(#SVGID_00000163045683384019469690000007991430356360489346_);}
	.st174{fill:url(#SVGID_00000153671351588466198690000011761295244326420357_);}
	.st175{fill:url(#SVGID_00000072980881739935523920000002238970307575103164_);}
	.st176{fill:url(#SVGID_00000050650765205900346650000017238861835314688129_);}
	.st177{fill:url(#SVGID_00000085226327825151179910000016227093807860642489_);}
	.st178{fill:url(#SVGID_00000166643474528395658320000004757542733457838233_);}
	.st179{fill:url(#SVGID_00000069382294982878056540000017787664446484565151_);}
	.st180{fill:url(#SVGID_00000155134946648761440230000003696705781481876414_);}
	.st181{fill:url(#SVGID_00000093888541655884037130000001373044898252751526_);}
	.st182{fill:url(#SVGID_00000035533321726903786310000016593223644959207562_);}
	.st183{fill:url(#SVGID_00000010292451540567033160000007944906420225882523_);}
	.st184{fill:url(#SVGID_00000179644344001411805950000000840697196599331749_);}
	.st185{fill:url(#SVGID_00000021108451829099276170000017901577409710342810_);}
	.st186{fill:url(#SVGID_00000115515305399719355750000005433933636809446785_);}
	.st187{fill:url(#SVGID_00000093886145920540127500000009322608240890001074_);}
	.st188{fill:url(#SVGID_00000002347283000805627660000002801265285477645984_);}
	.st189{fill:url(#SVGID_00000181073469904189804220000008332450217730422158_);}
	.st190{fill:url(#SVGID_00000167384348221264725770000003119884801850748838_);}
	.st191{fill:url(#SVGID_00000129177615741031283660000010525423113507131569_);}
	.st192{fill:url(#SVGID_00000085209403502524660810000016571895527972849557_);}
	.st193{fill:url(#SVGID_00000116233018470740774910000005214660983072242834_);}
	.st194{fill:url(#SVGID_00000021802949020754894390000016363686015206420655_);}
	.st195{fill:#F6F7F7;}
	.st196{fill:url(#SVGID_00000005230760385135436490000008098027470317460886_);}
	.st197{fill:url(#SVGID_00000018212899138087181460000007598374229701301149_);}
	.st198{fill:url(#SVGID_00000139260822124853565210000003546562252095935667_);}
	.st199{fill:url(#SVGID_00000178204511522964968660000014730620849627056319_);}
	.st200{fill:url(#SVGID_00000088843943301595905460000011613144374067375785_);}
	.st201{fill:url(#SVGID_00000107555388569791285950000007481152835222853541_);}
	.st202{fill:url(#SVGID_00000088102427834199723680000005993522649400389024_);}
	.st203{fill:url(#SVGID_00000121965571299260709190000016499192522256122007_);}
	.st204{fill:url(#SVGID_00000077299257532966428710000016926576331522879903_);}
	.st205{fill:url(#SVGID_00000053507724492757528070000013074090247992868490_);}
	.st206{fill:url(#SVGID_00000023240844692150249870000004759912854915652736_);}
	.st207{fill:url(#SVGID_00000130628042430483501790000010396995890021526443_);}
	.st208{fill:url(#SVGID_00000106860714008169415700000000012336801055549886_);}
	.st209{fill:url(#SVGID_00000074438847440067803350000001963658005246484658_);}
	.st210{fill:#A8988B;}
	.st211{fill:#0C0002;}
</style>
<g>
	<g>
		<g>
			<g>
				<rect y="1144.2" class="st3" width="3839" height="25.2"/>
				<g>
					<path class="st0" d="M525.5,684.4c-3-1.1-12.5-0.3-28.4,2.5c-15.9,2.8-26.9,6.8-32.9,12.1c-3.8,3-6.2,5.7-7.3,8.1
						c-1.1,2.4-1.7,5.3-1.7,8.7v339.1c0,5.2,2.4,9.5,7.3,12.9c3.4,2.2,8.9,4.6,16.6,7c7.7,2.4,19.6,4.4,35.7,5.9
						c2.2,0,5.2,0.4,9,1.1v16.9H310.6v-16.3c12.7-1.5,22.5-2.6,29.2-3.4c20.2-3,32.1-6,35.4-9c6-5.2,9-13.5,9-24.7V717.6
						l-141.1,398.5L101.5,727.7v270.5c0,13.1,2.1,25.3,6.2,36.5c4.1,11.2,9.7,20,16.9,26.4c9,7.9,20.2,13.7,33.7,17.4
						c4.5,1.1,10.7,2.2,18.6,3.4v16.9H0.3v-16.9c5.6,0,13.7-1.5,24.2-4.5c14.6-4.1,25.4-10.4,32.3-18.8s12.5-18,16.6-28.6
						c4.1-10.7,6.2-22.2,6.2-34.5V714.7c-3.8-7.9-6.2-12.4-7.4-13.5c-3-4.1-8.4-7.4-16.1-9.8c-7.7-2.4-22-4.4-42.8-5.9
						c-3,0-7.4-0.4-13-1.1v-16.8h154.3L268.3,986l110.4-318.4h146.7L525.5,684.4L525.5,684.4z"/>
					<path class="st0" d="M814.9,1027.9c0,22.9-4.5,40.5-13.6,52.9c-11.3,15.4-29.2,23.1-53.7,23.1c-25.2,0-42.4-11-51.4-32.9
						c-3-7.2-5.1-18.1-6.2-32.9c-9,18-23,33.5-42.1,46.4c-19.1,12.9-40.9,19.4-65.6,19.4c-22.1,0-40.9-6.4-56.6-19.1
						c-17.2-13.9-25.8-32.6-25.8-56.1c0-24,9.2-44.2,27.6-60.6c22.2-19.4,61.3-35,117.3-46.6l45.1-9v-66.2c0-15-5.3-26.7-15.8-35.4
						c-10.5-8.6-25.4-12.9-44.6-12.9c-16.2,0-31,2.9-44.3,8.7c-13.4,5.8-20.1,12.4-20.1,19.9c0,2.6,4,7.5,12.1,14.8
						c8.1,7.3,12.1,15,12.1,23.2c0,9.3-3.4,17.2-10.1,23.5c-6.7,6.3-15.2,9.5-25.3,9.5c-10.9,0-20.2-3.8-27.8-11.5
						c-7.7-7.6-11.5-16.1-11.5-25.5c0-26.5,12.7-47,38.2-61.6c22.1-12.7,48.2-19,78.2-19c48,0,81.5,10.7,100.7,32.1
						c16.1,18,24.2,46.7,24.2,86v168.1c0,7.9,4.5,11.8,13.5,11.8c9.4-1.1,16.5-6.7,21.4-16.9c4.9-10.1,7.3-21.6,7.3-34.3v-19.7H815
						v20.8H814.9z M690.1,966.2v-36.1l-30.4,6.2c-28.9,6-50.1,14.7-63.5,26c-16.5,13.9-24.7,34.1-24.7,60.4
						c0,16.2,2.1,28.6,6.2,37.3c5.6,12,15.2,18.1,28.7,18.1c23.6,0,43.5-11.6,59.6-34.7C682,1020.1,690.1,994.4,690.1,966.2z"/>
					<path class="st0" d="M1068.1,997.5c0,30.4-12.9,55.7-38.8,75.9c-24.4,19.1-53.2,28.7-86.6,28.7c-18,0-36.2-3.9-54.5-11.8
						c-15-8.6-30-17.4-45-26.4c-3.4,0.4-7.7,6.2-12.9,17.4c-1.5,3.8-3.9,9.6-7.3,17.4h-13.5V957.1h12.9l7.9,20.2
						c12,32.6,25.9,57.4,41.6,74.2c19.9,21.4,44.1,32.1,72.5,32.1c20.2,0,36.4-5.1,48.4-15.2c12-10.1,18-24.6,18-43.3
						c0-17.2-7.7-30.5-23.1-39.9c-6.7-4.1-23.3-10.5-49.5-19.1l-45.5-15.2c-22.1-7.1-39.4-16.7-51.7-28.7
						c-14.6-13.9-21.9-30.9-21.9-51.2c0-28.1,11.4-50.7,34.3-67.8s49.7-25.6,80.4-25.6c15.4,0,30.6,2.8,45.6,8.4
						c12,6,24.2,12,36.6,18c4.5-1.1,8.4-5.7,11.8-13.8c1.1-2.7,2.4-6.9,3.9-12.6h11.8v121.5H1030l-1.7-7.9
						c-6-28.1-16.5-50.4-31.5-66.9c-17.2-19.1-39-28.7-65.2-28.7c-18,0-32.8,3.9-44.4,11.8c-11.6,7.9-17.4,18.6-17.4,32.1
						c0,13.1,6.7,24,20.2,32.6c7.9,5.3,21.7,10.9,41.6,16.9l42.7,13.5c39,12,64.9,25.9,77.6,41.6
						C1062.7,957.7,1068.1,975.4,1068.1,997.5z"/>
					<path class="st0" d="M1288.8,993.6c0,31.1-7.1,56.4-21.4,75.9c-16.5,22.5-40.7,33.7-72.5,33.7c-27,0-47.8-9-62.4-27
						c-13.1-16.1-19.7-36.9-19.7-62.4V801.9h-55.1v-18h17.4c15,0,28.4-3.6,40.2-10.7c11.8-7.1,21.2-17.2,28.1-30.4
						c6.9-13.1,12-24.9,15.2-35.4s4.8-23.1,4.8-37.7V654h15.7v129.9h95.6v18h-95.6V1038c0,12,3.1,21.7,9.2,29
						c6.2,7.3,15.9,11,29.3,11c17.5,0,31.3-9,41.4-27c8.6-15.4,12.9-33.9,12.9-55.7v-26.4h16.9V993.6z"/>
					<path class="st0" d="M1552.9,991.9c0,30.4-9.9,56.2-29.8,77.6c-22.1,23.6-53.8,35.4-95,35.4c-42.4,0-79.9-15.5-112.5-46.6
						c-32.6-31.1-48.9-68.1-48.9-111.2c0-44.5,15.3-83.6,45.9-117.1s68.5-50.2,113.5-50.2c36.4,0,67,13.6,91.8,40.9
						c23.3,25.8,34.9,54.9,34.9,87.4v26.3h-213.6v23.1c0,43.9,5.4,75.2,16.3,93.9c13.1,22.9,37.1,34.3,72,34.3
						c32.2,0,57.7-8.8,76.5-26.4c21-19.5,31.5-41.6,31.5-66.4v-6.2l17.4-0.6L1552.9,991.9L1552.9,991.9z M1484.3,880.7
						c0-3,0-5.2,0-6.7c0-25.5-5.4-44.7-16.1-57.6c-10.7-12.9-26.3-19.4-46.6-19.4c-30.9,0-52.7,11.1-65.5,33.2
						c-10.2,17.6-15.2,43.9-15.2,78.7v5.1h124.8c8.2,0,13.7-3.6,16.3-10.7C1483.6,899,1484.3,891.5,1484.3,880.7z"/>
					<path class="st0" d="M1817.7,834.5c0,11.2-3.8,20.8-11.2,28.7c-7.5,7.9-16.7,11.8-27.6,11.8c-10.1,0-19-3.6-26.7-10.9
						c-7.7-7.3-11.5-15.9-11.5-26c0-13.8,6.4-24.4,19.1-31.8c-2.3-1.6-4.3-3.4-6.2-5.5c-1.5-0.8-4.7-1.2-9.6-1.2
						c-28.7,0-49.4,16.7-62.2,50c-9.8,25.5-14.7,58.3-14.7,98.4v104.6c0,6.4,2.2,11.2,6.5,14.6c4.3,3.4,11,6.2,20,8.4l36,6.8v16.3
						h-190.6v-16.3c7.5-0.4,13.3-0.7,17.4-1.1c12.4-1.5,22.3-3.9,29.8-7.3c10.1-5.6,15.2-13.3,15.2-23V831.7c0-3.4-1.1-6.4-3.4-9.3
						c-2.2-2.8-4.5-5-6.7-6.5c-4.1-2.6-12-4.5-23.6-5.6c-11.6-1.1-19.7-1.7-24.2-1.7c-1.9,0-3.8,0-5.6,0c-0.4,0-1.1,0-2.3,0v-16.8
						c8.6,0,20.2-0.9,34.9-2.8c14.6-1.9,26.6-2.8,36-2.8l57.9-5.6v70.9c7.1-16.1,13.9-28.1,20.2-36c19.9-24.4,44.8-36.6,74.8-36.6
						c19.5,0,34.5,6.2,45,18.6C1813.2,807.9,1817.7,820.3,1817.7,834.5z"/>
					<path class="st0" d="M2259.3,973.7c0,39.8-15.7,73.1-47,100c-31.3,26.8-68,40.3-109.9,40.3c-32.2,0-63.7-8.6-94.5-25.9
						c-13.1-8.6-26.1-17.2-38.8-25.9c-4.1,0-9.9,7.2-17.4,21.7c-7.5,14.4-11.2,23-11.2,25.6h-13.5V902.6h14.6l8.4,29.8
						c14.2,49.5,31.1,87,50.6,112.5c25.9,33.7,58.5,50.6,97.9,50.6c28.9,0,54.2-8.8,75.9-26.5c21.7-17.6,32.6-39.6,32.6-65.9
						c0-20.3-5.8-36.6-17.4-49c-12.8-13.9-39-26.1-78.7-36.6l-41.6-11.3c-54.7-15-92.2-33-112.5-54.1
						c-16.9-17.6-25.3-39.4-25.3-65.3c0-36,14.1-65.6,42.2-88.7s61.3-34.6,99.5-34.6c22.5,0,44.2,4.7,65.2,14.1
						c17.2,9.8,34.5,19.5,51.7,29.2c6-1.5,11.6-8.4,16.9-20.8c1.5-4.1,3.4-10.3,5.6-18.6h16.9v173.8h-14.1l-2.8-11.9
						c-9.4-43.3-24.2-77.5-44.4-102.7c-24-30.1-54.6-45.2-91.7-45.2c-25.9,0-48,7-66.4,20.8c-18.4,13.9-27.6,32.1-27.6,54.6
						c0,21.8,12.2,39.6,36.6,53.5c15.7,9,41.2,18,76.5,27l35.4,9.6c40.1,10.5,69.9,23.6,89.4,39.4
						C2246.3,907.6,2259.3,936.7,2259.3,973.7z"/>
					<path class="st0" d="M2605,780l-0.6,17c-14.3,1.9-24.1,3.7-29.5,5.4c-5.4,1.7-12,6.3-19.7,13.9c-7.7,7.5-15.2,17.9-22.5,31.1
						c-7.3,13.2-14.3,28.1-21.1,44.6l-111.4,274.9c-9.8,24.4-21.2,42.7-34.3,55.1c-15.7,15-35.1,22.5-57.9,22.5
						c-18,0-33.9-5.6-47.8-16.9c-13.9-11.2-20.8-25.1-20.8-41.6c0-12,3.9-22.3,11.8-30.9c7.9-8.6,17.6-12.9,29.2-12.9
						c10.9,0,19.9,3.6,27,10.7s10.7,15.9,10.7,26.4c0,17.6-7.9,29.6-23.6,36c1.9,0.7,3.2,1.3,3.9,1.7c4.5,2.2,8.8,3.4,12.9,3.4
						c18.4,0,34.3-8,47.8-24c9-10.7,19.1-28.7,30.4-54.2l13.5-31.5l-110.7-270c-3-7.2-5.1-12.1-6.2-14.8c-2.6-5.3-5.7-9.7-9.3-13.3
						s-9.3-6.9-17.2-9.9c-11.6-4.5-19.9-6.4-24.7-5.7v-17h176.6l-0.6,17c-10.9,0.8-18.9,1.3-24.2,1.7c-16.5,1.9-25.6,4.7-27.3,8.5
						c-1.7,3.8-2.5,6.8-2.5,9.1c0,3,0.9,6.5,2.6,10.5c1.7,4,3,7.1,3.8,9.4l74.4,184.2l67.5-165.1c2.8-6.8,4.1-14.5,4.1-23.2
						c0-4.2-0.2-7.5-0.6-10.2c-0.4-2.6-1.1-6.2-2.2-10.8c-1.1-4.5-7.9-8.2-20.2-11c-12.4-2.8-19.7-3.9-21.9-3.1v-17H2605z"/>
					<path class="st0" d="M2815.3,997.5c0,30.4-12.9,55.7-38.8,75.9c-24.4,19.1-53.2,28.7-86.6,28.7c-18,0-36.2-3.9-54.5-11.8
						c-15-8.6-30-17.4-45-26.4c-3.4,0.4-7.7,6.2-12.9,17.4c-1.5,3.8-3.9,9.6-7.3,17.4h-13.5V957.1h12.9l7.9,20.2
						c12,32.6,25.9,57.4,41.6,74.2c19.9,21.4,44,32.1,72.5,32.1c20.2,0,36.4-5.1,48.4-15.2c12-10.1,18-24.6,18-43.3
						c0-17.2-7.7-30.5-23.1-39.9c-6.7-4.1-23.2-10.5-49.5-19.1l-45.6-15.2c-22.1-7.1-39.4-16.7-51.7-28.7
						c-14.6-13.9-21.9-30.9-21.9-51.2c0-28.1,11.4-50.7,34.3-67.8s49.7-25.6,80.4-25.6c15.4,0,30.6,2.8,45.6,8.4
						c12,6,24.2,12,36.6,18c4.5-1.1,8.4-5.7,11.8-13.8c1.1-2.7,2.4-6.9,3.9-12.6h11.8v121.5h-13.5l-1.7-7.9
						c-6-28.1-16.5-50.4-31.5-66.9c-17.2-19.1-39-28.7-65.2-28.7c-18,0-32.8,3.9-44.4,11.8c-11.6,7.9-17.4,18.6-17.4,32.1
						c0,13.1,6.7,24,20.2,32.6c7.9,5.3,21.7,10.9,41.6,16.9l42.7,13.5c39,12,64.9,25.9,77.6,41.6
						C2809.8,957.7,2815.3,975.4,2815.3,997.5z"/>
					<path class="st0" d="M3012.8,993.6c0,31.1-7.1,56.4-21.4,75.9c-16.5,22.5-40.7,33.7-72.5,33.7c-27,0-47.8-9-62.4-27
						c-13.1-16.1-19.7-36.9-19.7-62.4V801.9h-55.1v-18h17.4c15,0,28.4-3.6,40.2-10.7c11.8-7.1,21.2-17.2,28.1-30.4
						c6.9-13.1,12-24.9,15.2-35.4c3.2-10.5,4.8-23.1,4.8-37.7V654h15.7v129.9h95.6v18h-95.5V1038c0,12,3.1,21.7,9.2,29
						c6.2,7.3,15.9,11,29.3,11c17.5,0,31.3-9,41.4-27c8.6-15.4,12.9-33.9,12.9-55.7v-26.4h16.9L3012.8,993.6L3012.8,993.6z"/>
					<path class="st0" d="M3254.1,991.9c0,30.4-9.9,56.2-29.8,77.6c-22.1,23.6-53.8,35.4-95,35.4c-42.4,0-79.9-15.5-112.5-46.6
						c-32.6-31.1-48.9-68.1-48.9-111.2c0-44.5,15.3-83.6,45.9-117.1c30.6-33.5,68.5-50.2,113.5-50.2c36.4,0,67,13.6,91.8,40.9
						c23.3,25.8,34.9,54.9,34.9,87.4v26.3h-213.6v23.1c0,43.9,5.4,75.2,16.3,93.9c13.1,22.9,37.1,34.3,72,34.3
						c32.2,0,57.7-8.8,76.5-26.4c21-19.5,31.5-41.6,31.5-66.4v-6.2l17.4-0.6v5.8H3254.1z M3185.4,880.7c0-3,0-5.2,0-6.7
						c0-25.5-5.4-44.7-16.1-57.6c-10.7-12.9-26.3-19.4-46.6-19.4c-30.9,0-52.7,11.1-65.5,33.2c-10.2,17.6-15.2,43.9-15.2,78.7v5.1
						h124.8c8.2,0,13.7-3.6,16.3-10.7C3184.7,899,3185.4,891.5,3185.4,880.7z"/>
					<path class="st0" d="M3839,1098.8h-190.1v-15.2c10.1-0.4,17.8-0.7,23.1-1.1c16.1-1.9,26.6-5.4,31.5-10.7
						c4.9-5.3,7.3-12.8,7.3-22.6V849.3c0-12-3-21.6-9-28.8c-7.1-8.3-17.6-12.4-31.5-12.4c-30.4,0-55.5,15.7-75.4,47.2
						c-16.5,25.9-24.7,51.7-24.7,77.6v117c0,6.4,0.8,11.8,2.5,16.3s5.3,7.9,11,10.1c5.6,2.2,13.4,4,23.3,5.3s17.5,1.6,22.8,0.8v16.3
						h-191.8v-16.4c10.1-0.4,18-0.7,23.6-1.1c16.9-1.9,27.7-5.4,32.6-10.4c4.9-5.1,7.3-12.3,7.3-21.7V849.3c0-12-3.8-21.8-11.2-29.4
						c-7.5-7.5-18.2-11.3-32.1-11.3c-31.1,0-56.1,16-74.8,48c-16.9,28.6-25.3,61.9-25.3,99.9v98.2c0,6.4,2.1,11.5,6.2,15.2
						c4.1,3.8,10.5,6.6,19.1,8.5c3.7,0.8,10.9,1.7,21.4,2.8c3,0,7.1,0.4,12.4,1.1v16.4h-189v-16.3c7.5,0,15.3-0.2,23.3-0.6
						c8.1-0.4,15.4-2.1,21.9-5.1c6.6-3,11.3-6.4,14.3-10.1s4.5-8.2,4.5-13.5V833.4c0-3-0.9-6-2.8-9c-1.9-3-3.8-5.2-5.6-6.7
						c-4.9-3.4-14.8-5.9-29.8-7.6c-15-1.7-23.1-2.2-24.2-1.4v-16.9c8.2,0,14.2,0,17.9,0c2.6,0,4.7,0,6.2,0c14.2,0,27-0.6,38.3-1.7
						c11.4-1.1,22.4-2.3,33-3.7c10.6-1.3,21.4-2.9,32.2-4.8l0.6,88.9c9-19.9,17.7-34.7,25.9-44.4c25.2-30.7,55.8-46.1,91.9-46.1
						c23.7,0,44,8.2,60.9,24.5c15.8,15.2,26.3,35.3,31.6,60.4c2.2-17.2,17.2-36.9,45-59c21.7-17.2,45.7-25.9,72-25.9
						c24,0,45.6,8.3,65,24.8c19.3,16.6,29,36.9,29,60.9V1053c0,6,0.8,11,2.5,15c1.7,4,5,6.7,9.8,8.2c9.4,3,19.1,5.2,29.2,6.5
						c10.1,1.3,16.1,1.6,18,0.8v15.3L3839,1098.8L3839,1098.8z"/>
				</g>
			</g>
			<g>
				<g>
					<g>
						<path class="st1" d="M1257.2,393.9h-247.4v77.2h247.4c47.5,0,87.1-39.6,87.1-87.1s-39.6-87.1-87.1-87.1h-63.4
							c-57.4,0-104.9-47.5-104.9-104.9s47.5-104.9,104.9-104.9h245.4V9.9h-247.4c-101,0-182.1,81.2-182.1,182.1
							S1090.9,374,1191.8,374h63.4c5.9,0,9.9,4,9.9,9.9C1265.1,389.9,1261.1,393.9,1257.2,393.9z"/>
						<path class="st1" d="M1191.9,184.1h247.4v-79.2h-247.4c-47.5,0-87.1,39.6-87.1,87.1s39.6,87.1,87.1,87.1h63.4
							c57.4,0,104.9,47.5,104.9,104.9s-47.6,105-105,105h-245.4v77.2h247.4c101,0,182.1-81.2,182.1-182.1s-81.2-182.1-182.1-182.1
							h-63.4c-5.9,0-9.9-4-9.9-9.9C1183.9,188.1,1187.9,184.1,1191.9,184.1z"/>
					</g>
					<g>
						<path class="st1" d="M2080.6,104.9c-33.7,0-59.4,25.7-59.4,59.4v247.4c0,33.7,25.7,59.4,59.4,59.4h160.4V296.9h-122.7v77.2
							h45.5v17.8h-45.5c-9.9,0-17.8-7.9-17.8-17.8V199.9c0-9.9,7.9-17.8,17.8-17.8H2338V105L2080.6,104.9L2080.6,104.9z"/>
						<path class="st1" d="M2567.4,471.1h180.2l-122.7-364.2c-4-9.9-11.9-17.8-23.8-17.8c-9.9,0-19.8,7.9-23.8,15.8L2419,566.1h91.1
							l55.4-164.3v69.3H2567.4z M2599.1,304.8l25.7,79.2h-53.5L2599.1,304.8z"/>
						<path class="st1" d="M2880.1,566.1l-160.4-475C2704,39.6,2656.5,0,2599.1,0s-105,37.6-118.8,89.1l-144.5,423.6V201.8h-217.7
							V279h142.5v209.8h-178.2c-43.6,0-77.2-35.6-77.2-77.2V164.3c0-43.6,35.6-77.2,77.2-77.2h255.3V9.9h-257.3
							c-85.1,0-154.4,69.3-154.4,154.4v247.4c0,85.1,69.3,154.4,154.4,154.4h318.6L2559.5,101c5.9-17.8,21.8-29.7,41.6-29.7
							s35.6,11.9,41.6,29.7l130.6,387.9h-205.8v77.2"/>
					</g>
					<g>
						<path class="st1" d="M1631.3,488.9c-43.6,0-77.2-35.6-77.2-77.2V164.3c0-43.6,35.6-77.2,77.2-77.2h265.2V9.9h-265.2
							c-85.1,0-154.4,69.3-154.4,154.4v247.4c0,85.1,69.3,154.4,154.4,154.4h265.2v-77.2H1631.3z"/>
						<path class="st1" d="M1649.1,376.1H1841v-77.2h-269.1v114.8c0,33.7,25.7,59.4,59.4,59.4h265.2v-77.2h-229.6
							C1657,393.9,1649.1,386,1649.1,376.1z"/>
						<path class="st1" d="M1841,201.8h-191.9c0-9.9,7.9-17.8,17.8-17.8h227.6v-79.2h-263.2c-33.7,0-59.4,25.7-59.4,59.4V279H1841
							C1841,279,1841,201.8,1841,201.8z"/>
					</g>
				</g>
			</g>
		</g>
	</g>
</g>
</svg>
