<?xml version="1.0" encoding="utf-8"?>
<!-- Generator: Adobe Illustrator 26.0.3, SVG Export Plug-In . SVG Version: 6.00 Build 0)  -->
<svg version="1.1" id="Layer_1" xmlns="http://www.w3.org/2000/svg" xmlns:xlink="http://www.w3.org/1999/xlink" x="0px" y="0px"
	 viewBox="0 0 3845.2 812.6" style="enable-background:new 0 0 3845.2 812.6;" xml:space="preserve">
<style type="text/css">
	.st0{fill:#FFFFFF;}
	.st1{fill:#034693;}
	.st2{fill:#FFFFFF;stroke:#034693;stroke-width:6.1873;stroke-linecap:round;stroke-linejoin:round;stroke-miterlimit:10;}
	.st3{fill:#008ED6;}
	.st4{fill:#FF0000;}
	.st5{fill:url(#SVGID_1_);}
	.st6{fill:url(#SVGID_00000023252800140677948130000003026388446176034443_);}
	.st7{fill:#F4F8F4;}
	.st8{fill:url(#SVGID_00000180351779943391258150000001804112251284926641_);}
	.st9{fill:url(#SVGID_00000065057558240791435810000006002928159557317304_);}
	.st10{fill:url(#SVGID_00000136411720851649389870000008056691072663043220_);}
	.st11{fill:url(#SVGID_00000139268514032761135920000000937680527713309830_);}
	.st12{fill:url(#SVGID_00000033350014962707330150000011917862471591306418_);}
	.st13{fill:url(#SVGID_00000167360469432929521170000007610234379377176199_);}
	.st14{fill:url(#SVGID_00000097481899599286008560000002552773049584734137_);}
	.st15{fill:url(#SVGID_00000000914440426357051930000008492504452946378151_);}
	.st16{fill:url(#SVGID_00000009552942997660997190000003608812197525094802_);}
	.st17{fill:url(#SVGID_00000002349077614777790040000017506271318620125109_);}
	.st18{fill:url(#SVGID_00000165212402738284148210000000337942708179379609_);}
	.st19{fill:url(#SVGID_00000098903786911681486150000009904763350360238759_);}
	.st20{fill:url(#SVGID_00000171714062321232849330000008877790810421671046_);}
	.st21{fill:url(#SVGID_00000096747631072865376250000011867270147599947919_);}
	.st22{fill:url(#SVGID_00000087403976751529851270000009617712956626934162_);}
	.st23{fill:url(#SVGID_00000128443104155579951880000014469570959919149985_);}
	.st24{fill:url(#SVGID_00000058575368518741210990000003133190506688459415_);}
	.st25{fill:url(#SVGID_00000119110230883612633970000003289246125031288488_);}
	.st26{fill:url(#SVGID_00000060724885489527969400000009328088774445984130_);}
	.st27{fill:url(#SVGID_00000106845648219200101100000006841898187445209240_);}
	.st28{fill:url(#SVGID_00000085954257139642003540000016163852902484902800_);}
	.st29{fill:url(#SVGID_00000065043387821083441470000013454174904607081090_);}
	.st30{fill:#DBDCD9;}
	.st31{fill:url(#SVGID_00000132080400632526955370000013020842472289869460_);}
	.st32{fill:url(#SVGID_00000095301941028956986140000014957140359011351972_);}
	.st33{fill:url(#SVGID_00000003065987520454516540000006335288055232100534_);}
	.st34{fill:url(#SVGID_00000157271522848580316480000012277224365481737350_);}
	.st35{fill:url(#SVGID_00000021097447219332280560000015458483637023037089_);}
	.st36{fill:url(#SVGID_00000150817278167846055280000015166309361271031717_);}
	.st37{fill:url(#SVGID_00000082327807939481627400000007070632906224259744_);}
	.st38{fill:url(#SVGID_00000039854324834545462730000013072552196136108221_);}
	.st39{fill:url(#SVGID_00000164493066075322647580000013597956621606621828_);}
	.st40{fill:url(#SVGID_00000050652331821664878420000011969330015510245521_);}
	.st41{fill:url(#SVGID_00000150795330776738722070000001925132249476042129_);}
	.st42{fill:url(#SVGID_00000044878592199220100140000015872986685562038452_);}
	.st43{fill:url(#SVGID_00000076582804965737187830000007956560907525375106_);}
	.st44{fill:url(#SVGID_00000028310326788630301550000000519826229780270513_);}
	.st45{fill:url(#SVGID_00000134966669479913559200000017430731221994301568_);}
	.st46{fill:url(#SVGID_00000111169982040075153040000001776843719600252063_);}
	.st47{fill:url(#SVGID_00000017515726000814608960000009915545210137120946_);}
	.st48{fill:url(#SVGID_00000097477357787401010680000013162286244943951502_);}
	.st49{fill:url(#SVGID_00000083783994820085255180000011071442792665257144_);}
	.st50{fill:url(#SVGID_00000176019516713142524820000011349616234624245694_);}
	.st51{fill:url(#SVGID_00000061441242463396213630000012832281592011902094_);}
	.st52{fill:url(#SVGID_00000022548701686675729410000000136495289118109375_);}
	.st53{fill:url(#SVGID_00000152234385106053762790000014246902102021030560_);}
	.st54{fill:url(#SVGID_00000031920939167955255670000016615235281278137748_);}
	.st55{fill:url(#SVGID_00000003103769200005599440000009175969928862415787_);}
	.st56{fill:url(#SVGID_00000023990815831635416260000013448499387184739736_);}
	.st57{fill:url(#SVGID_00000138564330874361901830000003160054332993534096_);}
	.st58{fill:url(#SVGID_00000157996551822731539460000014173210137178431918_);}
	.st59{fill:url(#SVGID_00000167385900546089237320000008133714127042638230_);}
	.st60{fill:url(#SVGID_00000129905304722227296330000014028587710217774749_);}
	.st61{fill:url(#SVGID_00000034770911979255291530000003318751795450341306_);}
	.st62{fill:url(#SVGID_00000024711750401459202320000012696896042020355757_);}
	.st63{fill:url(#SVGID_00000152228513614574713960000000381678237020578707_);}
	.st64{fill:url(#SVGID_00000097497605717205303090000003452773225780358275_);}
	.st65{fill:url(#SVGID_00000146478789389372861700000012290586418267774860_);}
	.st66{fill:url(#SVGID_00000090983445485900937330000010235298446450732424_);}
	.st67{fill:url(#SVGID_00000168804068372766398890000011308319306134011039_);}
	.st68{fill:url(#SVGID_00000149361574705754868030000007969851136415559837_);}
	.st69{fill:url(#SVGID_00000091698275020954213670000006817804128823940273_);}
	.st70{fill:url(#SVGID_00000131363898600439813750000017688713836252201882_);}
	.st71{fill:url(#SVGID_00000157283898326509827690000017662038948160013201_);}
	.st72{fill:url(#SVGID_00000163792347196724967700000014207200433259885238_);}
	.st73{fill:url(#SVGID_00000091004366613311331910000011880570009571892117_);}
	.st74{fill:url(#SVGID_00000012468829320145831630000006511058746994020744_);}
	.st75{fill:url(#SVGID_00000016756854755262082340000007400307163033632166_);}
	.st76{fill:url(#SVGID_00000176756864485247988300000010851171452876088746_);}
	.st77{fill:url(#SVGID_00000169551296025461197660000017213089149639871134_);}
	.st78{fill:url(#SVGID_00000152248950085587075110000011965240686873600190_);}
	.st79{fill:url(#SVGID_00000013164967584919365410000010640126370047282859_);}
	.st80{fill:url(#SVGID_00000153670073159784053250000001166788205807860115_);}
	.st81{fill:url(#SVGID_00000138569694327932755570000007495291479258520997_);}
	.st82{fill:url(#SVGID_00000145029355124560298560000006041517485034473866_);}
	.st83{fill:url(#SVGID_00000013886262630275406250000009417665583382899892_);}
	.st84{fill:url(#SVGID_00000022527015182116811590000001864259819520638342_);}
	.st85{fill:url(#SVGID_00000170258033071578610330000002899951701606373026_);}
	.st86{fill:url(#SVGID_00000168832569907507492440000004042193229112830378_);}
	.st87{fill:url(#SVGID_00000031927200324373107280000009723297789043637671_);}
	.st88{fill:url(#SVGID_00000127756392706770581460000000692108962550391686_);}
	.st89{fill:url(#SVGID_00000114759280669334677100000011126864330751584663_);}
	.st90{fill:url(#SVGID_00000082340431856285153210000000022388847461053591_);}
	.st91{fill:url(#SVGID_00000071518001671749745280000014862076890560039841_);}
	.st92{fill:url(#SVGID_00000091728257473270214820000011189415067568176556_);}
	.st93{fill:url(#SVGID_00000096024042739671529210000016440160256907675787_);}
	.st94{fill:url(#SVGID_00000058578021448162948970000005649128979103088815_);}
	.st95{fill:url(#SVGID_00000149366764084829146090000011242259339346523782_);}
	.st96{fill:url(#SVGID_00000036967106941182817120000002107434531132121013_);}
	.st97{fill:url(#SVGID_00000101098668837144575910000003388874014624821676_);}
	.st98{fill:url(#SVGID_00000124152491866015262320000009438071820558642110_);}
	.st99{fill:url(#SVGID_00000039106815203280739020000005945264381604201394_);}
	.st100{fill:url(#SVGID_00000048476610917443642170000003692336428669353141_);}
	.st101{fill:url(#SVGID_00000018220875465569264130000008960221992477167273_);}
	.st102{fill:url(#SVGID_00000013156016878068398070000005889887786494956948_);}
	.st103{fill:url(#SVGID_00000128459405006895252900000016330991403532316322_);}
	.st104{fill:url(#SVGID_00000160901710780315560690000017688816803234341798_);}
	.st105{fill:url(#SVGID_00000047023522115652607050000010831849465284487353_);}
	.st106{fill:url(#SVGID_00000163774582177672498480000014840275171292832426_);}
	.st107{fill:url(#SVGID_00000074427798358033473330000002316556166780167821_);}
	.st108{fill:url(#SVGID_00000085949702970247869890000009218605926282050231_);}
	.st109{fill:url(#SVGID_00000133514411600605268380000013857295184008108182_);}
	.st110{fill:url(#SVGID_00000108276033636948145410000005507088480880714680_);}
	.st111{fill:url(#SVGID_00000169533654811971761590000002964498089089991852_);}
	.st112{fill:url(#SVGID_00000100377521921527669350000006100045972604709791_);}
	.st113{fill:url(#SVGID_00000176044632027731059900000003150314579343956891_);}
	.st114{fill:url(#SVGID_00000145745378387189967740000007522497542887685777_);}
	.st115{fill:url(#SVGID_00000010278906394553667410000012041237873903034515_);}
	.st116{fill:url(#SVGID_00000039846271981232743730000006425101753787005323_);}
	.st117{fill:url(#SVGID_00000163784340614242996190000004472535120253651131_);}
	.st118{fill:url(#SVGID_00000161605101562343985470000007378769037288904635_);}
	.st119{fill:url(#SVGID_00000044147252772224301050000003800156544418425791_);}
	.st120{fill:url(#SVGID_00000060743640356980082250000008069688350917226884_);}
	.st121{fill:url(#SVGID_00000133493758979792360330000012419852823810056618_);}
	.st122{fill:url(#SVGID_00000155853858103041654960000017765093879741698224_);}
	.st123{fill:url(#SVGID_00000111177822878264620220000004277583933192769971_);}
	.st124{fill:url(#SVGID_00000115483767391763213780000002189511261568398748_);}
	.st125{fill:url(#SVGID_00000008106971633889609880000004799455232474450334_);}
	.st126{fill:url(#SVGID_00000142144643902669458230000012292827162098206113_);}
	.st127{fill:url(#SVGID_00000000936698056848525580000015260421213518294970_);}
	.st128{fill:url(#SVGID_00000146462182873240993020000008961766253120768422_);}
	.st129{fill:url(#SVGID_00000152251389961715905000000000598252570498296727_);}
	.st130{fill:url(#SVGID_00000044145624129541116770000005514556153862268337_);}
	.st131{fill:url(#SVGID_00000124140083760432701000000001279750462683858824_);}
	.st132{fill:url(#SVGID_00000116214271707587915680000001475382589454879674_);}
	.st133{fill:url(#SVGID_00000010282248739615277570000007395952805624414597_);}
	.st134{fill:url(#SVGID_00000166665354541647658590000003964434627095139718_);}
	.st135{fill:url(#SVGID_00000000204212470852714120000013206456090972475539_);}
	.st136{fill:url(#SVGID_00000050627633945127037270000016413976525443357838_);}
	.st137{fill:url(#SVGID_00000055687283957510420850000006709962436566978457_);}
	.st138{fill:url(#SVGID_00000135673576912247297520000002077994235354092956_);}
	.st139{fill:url(#SVGID_00000182492047031192120850000014314090337344658584_);}
	.st140{fill:url(#SVGID_00000021839083269135364010000005185571536558933896_);}
	.st141{fill:url(#SVGID_00000002373766053201230500000002570685451831048586_);}
	.st142{fill:url(#SVGID_00000097493294632768511870000015977210683464134785_);}
	.st143{fill:url(#SVGID_00000095319393672517363220000000700250768758454159_);}
	.st144{fill:url(#SVGID_00000095319477608452498920000013675301169223095171_);}
	.st145{fill:url(#SVGID_00000143617899823649396070000011960224977252252808_);}
	.st146{fill:url(#SVGID_00000086660563481939208450000013317313692900525718_);}
	.st147{fill:url(#SVGID_00000044149926342741397730000008551914361792203147_);}
	.st148{fill:url(#SVGID_00000165953852311582268210000005332083836001035173_);}
	.st149{fill:url(#SVGID_00000048492008629830208250000008334967824180556454_);}
	.st150{fill:url(#SVGID_00000076582914273675539110000014850833570571352988_);}
	.st151{fill:url(#SVGID_00000024701430128197080700000002526616602631967898_);}
	.st152{fill:url(#SVGID_00000037688935140066501370000009357653072610962584_);}
	.st153{fill:url(#SVGID_00000024697732615553841000000009014559061500915608_);}
	.st154{fill:url(#SVGID_00000170237508951307806820000015227084113854038153_);}
	.st155{fill:url(#SVGID_00000043455168458095937710000018032337973197638532_);}
	.st156{fill:url(#SVGID_00000114035236853364489710000006759028657687442591_);}
	.st157{fill:url(#SVGID_00000105387494717792214620000008846286212299859126_);}
	.st158{fill:url(#SVGID_00000115484711190523157840000013628353401285286308_);}
	.st159{fill:url(#SVGID_00000084521354411536936360000009699077741560068746_);}
	.st160{fill:url(#SVGID_00000003097965521751680680000009976689779577469869_);}
	.st161{fill:url(#SVGID_00000002352044594483781570000000995312227298385307_);}
	.st162{fill:url(#SVGID_00000132786371368669533960000006189021090499312532_);}
	.st163{fill:url(#SVGID_00000078015459184402738010000002690008984858529454_);}
	.st164{fill:url(#SVGID_00000008834183579681196600000009578713417253481625_);}
	.st165{fill:url(#SVGID_00000016761230776845598840000005940447587355629742_);}
	.st166{fill:url(#SVGID_00000038399539051669669440000002459228953144816571_);}
	.st167{fill:url(#SVGID_00000141424770578384818540000007141764551792222388_);}
	.st168{fill:url(#SVGID_00000034780133273657800280000014008044144691743399_);}
	.st169{fill:url(#SVGID_00000183929671163176558190000004420112572543919271_);}
	.st170{fill:url(#SVGID_00000179645836161552079960000002299035457036110522_);}
	.st171{fill:url(#SVGID_00000100376941833032411910000010064938352296425917_);}
	.st172{fill:url(#SVGID_00000151519384085699482270000011081958478374399126_);}
	.st173{fill:url(#SVGID_00000050656021739297199390000006271369925412073877_);}
	.st174{fill:url(#SVGID_00000082367144682741457610000015328372951736705167_);}
	.st175{fill:url(#SVGID_00000010270584584067061580000007128373262169341850_);}
	.st176{fill:url(#SVGID_00000165942043203137333360000008317509385139576458_);}
	.st177{fill:url(#SVGID_00000176735323873344975140000001951692843521995680_);}
	.st178{fill:url(#SVGID_00000175316357386708142000000012812955575859219629_);}
	.st179{fill:url(#SVGID_00000096780099960799373470000001605337688587316921_);}
	.st180{fill:url(#SVGID_00000144313302592023272340000008831324430223003264_);}
	.st181{fill:url(#SVGID_00000003084953675011367660000013083404066075850891_);}
	.st182{fill:url(#SVGID_00000108279862903885511980000010389782253251740048_);}
	.st183{fill:url(#SVGID_00000159432847176092912040000013634784000952169909_);}
	.st184{fill:url(#SVGID_00000070081856204958500650000016029280772656961668_);}
	.st185{fill:url(#SVGID_00000175319949604379106600000012044500363852049585_);}
	.st186{fill:url(#SVGID_00000130611990927388139660000005293839529522826137_);}
	.st187{fill:url(#SVGID_00000039845923292708341590000006230680860213678228_);}
	.st188{fill:url(#SVGID_00000051363337126810664940000001224863944053479320_);}
	.st189{fill:url(#SVGID_00000022544533718533928420000017132483618104625306_);}
	.st190{fill:url(#SVGID_00000061438283584530068180000008566152884689956524_);}
	.st191{fill:url(#SVGID_00000160180357993787165300000016478894621989504150_);}
	.st192{fill:url(#SVGID_00000178176428440571403520000006452759611723393212_);}
	.st193{fill:url(#SVGID_00000008835001188868316810000005067520417411611009_);}
	.st194{fill:url(#SVGID_00000060011298678950667630000002628480770372271748_);}
	.st195{fill:#F6F7F7;}
	.st196{fill:url(#SVGID_00000098222327030768751950000009873939824647734400_);}
	.st197{fill:url(#SVGID_00000131342371478070033950000001329958534642255237_);}
	.st198{fill:url(#SVGID_00000005235833447929584780000012436139082681675649_);}
	.st199{fill:url(#SVGID_00000173125198578960656550000008951454962739718553_);}
	.st200{fill:url(#SVGID_00000063602452720078917950000013835991570438329219_);}
	.st201{fill:url(#SVGID_00000047055598903817374770000014139668578544892856_);}
	.st202{fill:url(#SVGID_00000088129138652557226050000007692223762235569572_);}
	.st203{fill:url(#SVGID_00000009580047821258956690000017001517322290041755_);}
	.st204{fill:url(#SVGID_00000058580181486621848220000015185360739424833450_);}
	.st205{fill:url(#SVGID_00000105390373909193169000000008038359138938103208_);}
	.st206{fill:url(#SVGID_00000134236698466217062660000005768535011706232751_);}
	.st207{fill:url(#SVGID_00000064317189856457360630000010437830325600955279_);}
	.st208{fill:url(#SVGID_00000134237495470638434540000009786216262737889189_);}
	.st209{fill:url(#SVGID_00000032629195790530113450000010418975011006216362_);}
	.st210{fill:#A8988B;}
	.st211{fill:#0C0002;}
</style>
<g>
	<g>
		<polygon class="st1" points="243.4,778.5 34.1,662.8 34.1,439.9 243.4,324.1 1353.1,324.1 1530.8,34.1 2314.4,34.1 2492,324.1 
			3601.8,324.1 3811.1,439.9 3811.1,662.8 3601.8,778.5 		"/>
		<polygon class="st0" points="244.5,774.1 38.6,660.1 38.6,442.5 244.5,328.5 1355.6,328.5 1533.3,38.6 2311.9,38.6 2489.5,328.5 
			3600.7,328.5 3806.6,442.5 3806.6,660.1 3600.7,774.1 		"/>
		<polygon class="st1" points="245.7,769.6 43,657.5 43,445.1 245.7,333 1358.1,333 1535.8,43 2309.4,43 2487,333 3599.5,333 
			3802.2,445.1 3802.2,657.5 3599.5,769.6 		"/>
		<g>
			<g>
				<g>
					<polygon class="st2" points="2869.4,380.9 2890.6,400.2 3008.1,400.2 3029.3,380.9 					"/>
					<polygon class="st2" points="3008.1,702.4 2890.6,702.4 2869.4,721.7 3029.3,721.7 					"/>
					<polygon class="st2" points="2869.4,380.9 2869.4,721.7 2890.6,702.4 2890.6,400.2 					"/>
					<polygon class="st2" points="3008.1,400.2 3008.1,702.4 3029.3,721.7 3029.3,380.9 					"/>
				</g>
				<rect x="2890.6" y="400.2" class="st2" width="117.4" height="302.3"/>
			</g>
			<g>
				<g>
					<polygon class="st2" points="1636.9,380.9 1636.9,478.6 1658.2,511.8 1658.2,400.2 					"/>
					<polygon class="st2" points="1636.9,380.9 1658.2,400.2 1775.5,400.2 1796.8,380.9 					"/>
					<polygon class="st2" points="1775.5,400.2 1775.5,702.4 1796.8,721.7 1796.8,380.9 					"/>
					<polygon class="st2" points="1775.5,702.4 1658.2,702.4 1636.9,721.7 1796.8,721.7 					"/>
					<polygon class="st2" points="1426.6,456.8 1426.6,702.4 1447.8,721.7 1447.8,490 					"/>
					<polygon class="st2" points="1426.6,702.4 1309.2,702.4 1288,721.7 1447.8,721.7 					"/>
					<polygon class="st2" points="1288,380.9 1288,721.7 1309.2,702.4 1309.2,400.2 					"/>
					<polygon class="st2" points="1426.6,456.8 1447.8,490 1636.9,587.1 1658.2,575.9 					"/>
					<polygon class="st2" points="1636.9,587.1 1636.9,721.7 1658.2,702.4 1658.2,575.9 					"/>
					<polygon class="st2" points="1636.9,478.6 1446.8,380.9 1441.2,400.2 1658.2,511.8 					"/>
					<polygon class="st2" points="1288,380.9 1309.2,400.2 1441.2,400.2 1446.8,380.9 					"/>
				</g>
				<polygon class="st2" points="1658.2,400.2 1658.2,511.8 1441.2,400.2 1309.2,400.2 1309.2,702.4 1426.6,702.4 1426.6,456.8 
					1658.2,575.9 1658.2,702.4 1775.5,702.4 1775.5,400.2 				"/>
			</g>
			<g>
				<polygon class="st2" points="3567.3,525.3 3218.3,525.3 3218.3,447 3476.2,447 3567.3,400.2 3218.3,400.2 3100.9,460.6 
					3100.9,572.1 3449.9,572.1 3449.9,655.6 3192,655.6 3100.9,702.4 3449.9,702.4 3567.3,642 				"/>
				<g>
					<path class="st2" d="M3598.5,406.3l29.6-15.2c5.4-2.8,3.2-10.2-3-10.2h-19.2"/>
					<path class="st2" d="M3069.3,696.5l-29.2,15c-5.4,2.8-3.2,10.2,3,10.2h29"/>
					<g>
						<polygon class="st2" points="3212.7,380.9 3079.6,449.3 3100.9,460.6 3218.3,400.2 						"/>
						<polygon class="st2" points="3239.6,506 3218.3,525.3 3567.3,525.3 3588.6,506 						"/>
						<polygon class="st2" points="3567.3,525.3 3567.3,642 3588.5,653.3 3588.6,506 						"/>
						<polygon class="st2" points="3567.3,642 3449.9,702.4 3455.5,721.7 3588.5,653.3 						"/>
						<polygon class="st2" points="3100.9,572.1 3079.6,591.4 3428.6,591.4 3449.9,572.1 						"/>
						<polygon class="st2" points="3079.6,449.3 3079.6,484.4 3079.6,493.9 3079.6,591.4 3100.9,572.1 3100.9,492.2 3100.9,485.3 
							3100.9,460.6 						"/>
						<polygon class="st2" points="3428.6,591.4 3428.6,636.3 3449.9,655.6 3449.9,572.1 						"/>
						<polygon class="st2" points="3428.6,636.3 3186.4,636.3 3192,655.6 3449.9,655.6 						"/>
						<polygon class="st2" points="3218.3,447 3218.3,525.3 3239.6,506 3239.6,466.3 						"/>
						<polygon class="st2" points="3476.2,447 3218.3,447 3239.6,466.3 3481.8,466.3 						"/>
						<path class="st2" d="M3212.7,380.9l5.6,19.3h348.9l58.3-13.9c3.4-0.8,2.8-5.4-0.8-5.4H3212.7z"/>
						<path class="st2" d="M3567.3,400.2l-91.1,46.9l5.6,19.3l146-75.1c3.1-1.6,1.2-5.8-2.2-5L3567.3,400.2z"/>
						<path class="st2" d="M3449.9,702.4h-348.6c-0.3,0-0.5,0-0.8,0.1l-57.9,13.8c-3.4,0.8-2.8,5.4,0.8,5.4h412L3449.9,702.4z"/>
						<path class="st2" d="M3186.4,636.3l-146,75.1c-3.1,1.6-1.2,5.8,2.2,5l57.9-13.8c0.2-0.1,0.5-0.1,0.7-0.3l90.8-46.7
							L3186.4,636.3z"/>
					</g>
				</g>
			</g>
			<g>
				<polygon class="st2" points="2797.9,525.3 2449,525.3 2449,447 2706.8,447 2797.9,400.2 2449,400.2 2331.6,460.6 2331.6,572.1 
					2680.5,572.1 2680.5,603.6 2680.5,655.6 2422.7,655.6 2331.6,702.4 2680.5,702.4 2797.9,642 				"/>
				<path class="st2" d="M2837.1,402.2l21.7-11.2c5.4-2.8,3.2-10.2-3-10.2h-13.6"/>
				<polygon class="st2" points="2443.4,380.9 2310.3,449.3 2331.6,460.6 2449,400.2 				"/>
				<polygon class="st2" points="2470.2,506 2449,525.3 2797.9,525.3 2819.2,506 				"/>
				<polygon class="st2" points="2797.9,525.3 2797.9,642 2819.2,653.3 2819.2,506 				"/>
				<polygon class="st2" points="2797.9,642 2680.5,702.4 2686.1,721.7 2819.2,653.3 				"/>
				<polygon class="st2" points="2331.6,572.1 2310.3,591.4 2659.2,591.4 2680.5,572.1 				"/>
				<polygon class="st2" points="2331.6,460.6 2310.3,449.3 2310.3,485.3 2310.3,591.4 2331.6,572.1 2331.6,481.6 				"/>
				<polygon class="st2" points="2659.2,591.4 2659.2,636.3 2680.5,655.6 2680.5,572.1 				"/>
				<polygon class="st2" points="2659.2,636.3 2417.1,636.3 2422.7,655.6 2680.5,655.6 				"/>
				<polygon class="st2" points="2449,447 2449,525.3 2470.2,506 2470.2,466.3 				"/>
				<polygon class="st2" points="2706.8,447 2449,447 2470.2,466.3 2712.4,466.3 				"/>
				<path class="st2" d="M2797.9,400.2l-91.1,46.9l5.6,19.3l146-75.1c3.1-1.6,1.2-5.8-2.2-5L2797.9,400.2z"/>
				<path class="st2" d="M2443.4,380.9l5.6,19.3h348.6c0.3,0,0.5,0,0.8-0.1l57.9-13.8c3.4-0.8,2.8-5.4-0.8-5.4H2443.4z"/>
				<path class="st2" d="M2311.1,690.8l-40.4,20.8c-5.4,2.8-3.2,10.2,3,10.2h44.1"/>
				<path class="st2" d="M2680.5,702.4h-348.9l-58.3,13.9c-3.4,0.8-2.8,5.4,0.8,5.4h412L2680.5,702.4z"/>
				<path class="st2" d="M2417.1,636.3l-146,75.1c-3.1,1.6-1.2,5.8,2.2,5l57.9-13.8c0.2-0.1,0.5-0.1,0.7-0.3l90.8-46.7L2417.1,636.3
					z"/>
			</g>
			<g>
				<polygon class="st2" points="2182.2,447 1980.3,447 2001.6,466.3 2187.8,466.3 				"/>
				<polygon class="st2" points="1980.3,572.1 1980.3,655.6 2001.6,636.3 2001.6,591.4 				"/>
				<polygon class="st2" points="2117,572.1 1980.3,572.1 2001.6,591.4 2122.6,591.4 				"/>
				<polygon class="st2" points="1980.3,447 1980.3,480.5 1980.3,486.8 1980.3,525.3 2001.6,506 2001.6,485.6 2001.6,480.5 
					2001.6,466.3 				"/>
				<polygon class="st2" points="2182.2,702.4 1862.9,702.4 1841.6,721.7 2187.8,721.7 				"/>
				<polygon class="st2" points="1841.6,449.3 1841.6,721.7 1862.9,702.4 1862.9,460.6 				"/>
				<polygon class="st2" points="1974.7,380.9 1841.6,449.3 1862.9,460.6 1980.3,400.2 				"/>
				<polygon class="st2" points="1980.3,572.1 2117,572.1 2208.1,525.3 1980.3,525.3 1980.3,447 2182.2,447 2273.4,400.2 
					1980.3,400.2 1862.9,460.6 1862.9,702.4 1963.2,702.4 1980.3,702.4 2182.2,702.4 2273.4,655.6 1980.3,655.6 				"/>
				<path class="st2" d="M2302.1,407.6l32.1-16.5c5.4-2.8,3.2-10.2-3-10.2H2305"/>
				<path class="st2" d="M1974.7,380.9l5.6,19.3h293.1l58.3-13.9c3.4-0.8,2.8-5.4-0.8-5.4H1974.7z"/>
				<path class="st2" d="M2273.4,400.2l-91.1,46.9l5.6,19.3l146-75.1c3.1-1.6,1.2-5.8-2.2-5L2273.4,400.2z"/>
				<path class="st2" d="M2248.1,526.9l20.9-10.7c5.4-2.8,3.2-10.2-3-10.2h-34.1"/>
				<path class="st2" d="M2001.6,506l-21.3,19.3h227.8l58.3-13.9c3.4-0.8,2.8-5.4-0.8-5.4L2001.6,506L2001.6,506z"/>
				<path class="st2" d="M2208.1,525.3l-91.1,46.9l5.6,19.3l146-75.1c3.1-1.6,1.2-5.8-2.2-5L2208.1,525.3z"/>
				<path class="st2" d="M2311.8,658l22.4-11.5c5.4-2.8,3.2-10.2-3-10.2h-8.9"/>
				<path class="st2" d="M2273.4,655.6l-91.1,46.9l5.6,19.3l146-75.1c3.1-1.6,1.2-5.8-2.2-5L2273.4,655.6z"/>
				<path class="st2" d="M2001.6,636.3l-21.3,19.3H2273c0.3,0,0.5,0,0.8-0.1l57.9-13.8c3.4-0.8,2.8-5.4-0.8-5.4H2001.6z"/>
			</g>
			<g>
				<polygon class="st2" points="767.6,449.3 767.6,721.7 788.9,702.4 788.9,460.6 				"/>
				<polygon class="st2" points="906.3,572.1 906.3,655.6 927.6,636.3 927.6,591.4 				"/>
				<polygon class="st2" points="906.3,447 906.3,525.3 927.6,506 927.6,466.3 				"/>
				<polygon class="st2" points="1108.2,447 906.3,447 927.6,466.3 1113.8,466.3 				"/>
				<polygon class="st2" points="1043,572.1 906.3,572.1 927.6,591.4 1048.6,591.4 				"/>
				<polygon class="st2" points="1108.2,702.4 788.9,702.4 767.6,721.7 1113.8,721.7 				"/>
				<polygon class="st2" points="788.9,460.6 906.3,400.2 900.7,380.9 767.6,449.3 				"/>
				<polygon class="st2" points="906.3,572.1 1043,572.1 1134.1,525.3 906.3,525.3 906.3,447 1108.2,447 1199.4,400.2 906.3,400.2 
					788.9,460.6 788.9,702.4 889.2,702.4 906.3,702.4 1108.2,702.4 1199.4,655.6 906.3,655.6 				"/>
				<path class="st2" d="M1163,532.6l32-16.4c5.4-2.8,3.2-10.2-3-10.2h-36.4"/>
				<path class="st2" d="M927.6,506l-21.3,19.3h227.8l58.3-13.9c3.4-0.8,2.8-5.4-0.8-5.4L927.6,506L927.6,506z"/>
				<path class="st2" d="M1134.1,525.3l-91.1,46.9l5.6,19.3l146-75.1c3.1-1.6,1.2-5.8-2.2-5L1134.1,525.3z"/>
				<path class="st2" d="M1233.7,404.7l26.5-13.6c5.4-2.8,3.2-10.2-3-10.2h-20.3"/>
				<path class="st2" d="M900.7,380.9l5.6,19.3h293.1l58.3-13.9c3.4-0.8,2.8-5.4-0.8-5.4H900.7z"/>
				<path class="st2" d="M1257.6,386.2l-58.3,13.9l-30.3,15.6l0,0l-3.7,1.9l-11.1,5.7l0,0l-46.1,23.7l5.6,19.3l87-44.8l0,0l59-30.3
					C1262.9,389.7,1261,385.4,1257.6,386.2z"/>
				<path class="st2" d="M1241.6,656l18.6-9.6c5.4-2.8,3.2-10.2-3-10.2h-17.1"/>
				<path class="st2" d="M927.6,636.3l-21.3,19.3h293.1l58.3-13.9c3.4-0.8,2.8-5.4-0.8-5.4L927.6,636.3L927.6,636.3z"/>
				<path class="st2" d="M1199.4,655.6l-91.1,46.9l5.6,19.3l146-75.1c3.1-1.6,1.2-5.8-2.2-5L1199.4,655.6z"/>
			</g>
			<g>
				<polygon class="st2" points="214,449.3 214,721.7 235.3,702.4 235.3,460.6 				"/>
				<polygon class="st2" points="584.2,702.4 352.7,702.4 352.7,702.4 235.3,702.4 214,721.7 352.7,721.7 589.8,721.7 				"/>
				<polygon class="st2" points="701.7,642 584.2,702.4 589.8,721.7 722.9,653.3 				"/>
				<polygon class="st2" points="701.7,513.2 701.7,642 722.9,653.3 722.9,493.9 				"/>
				<polygon class="st2" points="549.3,493.9 554.8,513.2 701.7,513.2 722.9,493.9 				"/>
				<polygon class="st2" points="563,579.3 563,636.3 584.2,655.6 584.2,560 				"/>
				<polygon class="st2" points="563,636.3 374,636.3 352.7,655.6 584.2,655.6 				"/>
				<polygon class="st2" points="610.5,447 352.7,447 374,466.3 616.1,466.3 				"/>
				<polygon class="st2" points="352.7,447 352.7,533.3 352.7,655.6 374,636.3 374,466.3 				"/>
				<polygon class="st2" points="347.1,380.9 214,449.3 235.3,460.6 352.7,400.2 				"/>
				<polygon class="st2" points="554.8,513.2 463.8,560 584.2,560 584.2,655.6 352.7,655.6 352.7,447 610.5,447 701.7,400.2 
					352.7,400.2 235.3,460.6 235.3,702.4 352.7,702.4 352.7,702.4 584.2,702.4 701.7,642 701.7,513.2 				"/>
				<path class="st2" d="M736.5,404.4l26-13.4c5.4-2.8,3.2-10.2-3-10.2h-15.7"/>
				<path class="st2" d="M347.1,380.9l5.6,19.3h348.9l58.3-13.9c3.4-0.8,2.8-5.4-0.8-5.4H347.1z"/>
				<path class="st2" d="M616.1,466.3l74-38l72.1-37.1c3.1-1.6,1.2-5.8-2.2-5l-58.3,13.9L610.6,447L616.1,466.3z"/>
				<path class="st2" d="M430.5,555L403,569.1c-5.4,2.8-3.2,10.2,3,10.2h23.8"/>
				<path class="st2" d="M549.3,493.9l-146,75.1c-3.1,1.6-1.2,5.8,2.2,5l58.3-13.9l91.1-46.9L549.3,493.9z"/>
				<path class="st2" d="M463.8,560l-58.3,13.9c-3.4,0.8-2.8,5.4,0.8,5.4H563l21.3-19.3L463.8,560L463.8,560z"/>
			</g>
		</g>
		<polygon class="st2" points="2331.8,3.1 2509.4,293.1 2492,324.1 2314.4,34.1 		"/>
		<polygon class="st2" points="3609.8,809.5 3842.1,681 3811.1,662.8 3601.8,778.5 		"/>
		<polygon class="st2" points="3.1,421.6 3.1,681 34.1,662.8 34.1,439.9 		"/>
		<polygon class="st2" points="1353.1,324.1 243.4,324.1 235.4,293.1 1335.7,293.1 		"/>
		<polygon class="st2" points="1335.7,293.1 1513.4,3.1 1530.8,34.1 1353.1,324.1 		"/>
		<polygon class="st2" points="243.4,324.1 34.1,439.9 3.1,421.6 235.4,293.1 		"/>
		<polygon class="st2" points="3.1,681 235.4,809.5 243.4,778.5 34.1,662.8 		"/>
		<polygon class="st2" points="235.4,809.5 3609.8,809.5 3601.8,778.5 243.4,778.5 		"/>
		<polygon class="st2" points="3842.1,681 3842.1,421.6 3811.1,439.9 3811.1,662.8 		"/>
		<polygon class="st2" points="3842.1,421.6 3609.8,293.1 3601.8,324.1 3811.1,439.9 		"/>
		<polygon class="st2" points="2509.4,293.1 3609.8,293.1 3601.8,324.1 2492,324.1 		"/>
		<polygon class="st2" points="1513.4,3.1 2331.8,3.1 2314.4,34.1 1530.8,34.1 		"/>
		<g>
			<g>
				<path class="st0" d="M1640.4,244.4h-106.8v33.3h106.8c20.5,0,37.6-17.1,37.6-37.6c0-20.5-17.1-37.6-37.6-37.6h-27.3
					c-24.8,0-45.3-20.5-45.3-45.3s20.5-45.3,45.3-45.3h106V78.7h-106.8c-43.6,0-78.6,35-78.6,78.6s35,78.6,78.6,78.6h27.3
					c2.6,0,4.3,1.7,4.3,4.3C1643.9,242.7,1642.1,244.4,1640.4,244.4z"/>
				<path class="st0" d="M1612.2,153.9h106.8v-34.2h-106.8c-20.5,0-37.6,17.1-37.6,37.6s17.1,37.6,37.6,37.6h27.3
					c24.8,0,45.3,20.5,45.3,45.3s-20.5,45.3-45.3,45.3h-106v33.3h106.8c43.6,0,78.6-35,78.6-78.6s-35-78.6-78.6-78.6H1613
					c-2.6,0-4.3-1.7-4.3-4.3C1608.8,155.6,1610.5,153.9,1612.2,153.9z"/>
			</g>
			<g>
				<path class="st0" d="M1995.8,119.7c-14.5,0-25.6,11.1-25.6,25.6V252c0,14.5,11.1,25.6,25.6,25.6h69.2v-75.2h-53v33.3h19.7v7.7
					H2012c-4.3,0-7.7-3.4-7.7-7.7v-75.2c0-4.3,3.4-7.7,7.7-7.7h94.8v-33.3L1995.8,119.7L1995.8,119.7z"/>
				<path class="st0" d="M2205.9,277.7h77.8l-53-157.2c-1.7-4.3-5.1-7.7-10.3-7.7c-4.3,0-8.5,3.4-10.3,6.8l-68.4,199h39.3l23.9-70.9
					v29.9H2205.9z M2219.6,205.9l11.1,34.2h-23.1L2219.6,205.9z"/>
				<path class="st0" d="M2271.7,113.7c-6.8-22.2-27.3-39.3-52.1-39.3c-24.8,0-45.3,16.2-51.3,38.5l-62.4,182.9V161.6h-94v33.3h61.5
					v90.6h-76.9c-18.8,0-33.3-15.4-33.3-33.3V145.4c0-18.8,15.4-33.3,33.3-33.3h110.2V78.7h-111.1c-36.7,0-66.7,29.9-66.7,66.7
					v106.8c0,36.7,29.9,66.7,66.7,66.7h137.6l69.2-200.7c2.6-7.7,9.4-12.8,17.9-12.8s15.4,5.1,17.9,12.8l56.4,167.5h-88.9v33.3h135
					l0,0L2271.7,113.7z"/>
			</g>
			<g>
				<path class="st0" d="M1801.8,285.4c-18.8,0-33.3-15.4-33.3-33.3V145.4c0-18.8,15.4-33.3,33.3-33.3h114.5V78.7h-114.5
					c-36.7,0-66.7,29.9-66.7,66.7v106.8c0,36.7,29.9,66.7,66.7,66.7h114.5v-33.3L1801.8,285.4L1801.8,285.4z"/>
				<path class="st0" d="M1809.5,236.7h82.9v-33.3h-116.2v49.5c0,14.5,11.1,25.6,25.6,25.6h114.5v-33.3h-99.1
					C1812.9,244.4,1809.5,241,1809.5,236.7z"/>
				<path class="st0" d="M1892.4,161.6h-82.9c0-4.3,3.4-7.7,7.7-7.7h98.3v-34.2h-113.6c-14.5,0-25.6,11.1-25.6,25.6v49.6h116.2
					L1892.4,161.6L1892.4,161.6z"/>
			</g>
		</g>
	</g>
</g>
</svg>
