<?xml version="1.0" encoding="utf-8"?>
<!-- Generator: Adobe Illustrator 25.2.1, SVG Export Plug-In . SVG Version: 6.00 Build 0)  -->
<svg version="1.1" id="Layer_1" xmlns="http://www.w3.org/2000/svg" xmlns:xlink="http://www.w3.org/1999/xlink" x="0px" y="0px"
	 viewBox="0 0 3839 946.5" style="enable-background:new 0 0 3839 946.5;" xml:space="preserve">
<style type="text/css">
	.st0{fill:#2798D0;}
	.st1{fill:#0080BF;}
	.st2{fill:#FFFFFF;}
	.st3{fill:#C2AC6D;}
	.st4{fill:#069ACB;}
</style>
<g>
	<g>
		<g>
			<g>
				<path class="st0" d="M1530.1,55.1c0,30.4,20.4,55,45.5,55h126.2c3.1,0,5.6,3.1,5.6,6.8c0,3.8-2.5,6.8-5.6,6.8h-171.7V172h192.3
					c25.2,0,45.5-24.7,45.5-55.1c0-30.4-20.3-55-45.5-55h-126.2c-3.1,0-5.6-3-5.6-6.8c0-3.7,2.5-6.9,5.6-6.9h171.7V0h-192.3
					C1550.4,0,1530.1,24.7,1530.1,55.1z"/>
				<g>
					<polygon class="st0" points="1958.9,0 1958.9,107.7 1844,0 1781.4,0 1781.4,172 1841.8,172 1841.8,64.2 1956.8,172 2019.3,172 
						2019.3,0 					"/>
				</g>
				<polygon class="st0" points="2270.6,0 2191.5,0 2093.2,75.8 2093.2,0 2032.9,0 2032.9,172 2093.2,172 2093.2,96.1 2191.5,172 
					2270.6,172 2159.1,86 				"/>
			</g>
		</g>
		<g>
			<g>
				<path class="st3" d="M605.1,354.6c-57.4,8.8-68.9,17.7-68.9,73.3v517.7h-24.7L116.6,464.1v349.8c0,68,15,85.7,83,93.6v22.1H0
					v-22.1c64.5-8,77.7-20.3,77.7-74.2V418.2c-37.1-51.2-57.4-63.6-75.1-63.6v-22.1H189l308.3,379.9V448.2
					c0-70.7-15.9-87.5-81.3-93.6v-22.1h189.1V354.6z"/>
				<path class="st3" d="M1157.6,929.7H640.8v-22.1c65.4-7.1,77.7-21.2,77.7-67.2V417.3c0-45.1-16.8-59.2-77.7-62.7v-22.1h509.7V510
					h-22.1C1108.1,391.7,1063,362.5,919,362.5c-45.9,0-57.4,14.1-57.4,47.7V609c93.6-0.9,132.5-29.2,143.1-131.6h23V776h-23
					c-8.8-105.1-46.8-136.9-143.1-136.9v213.8c0,38,15.9,49.5,73.3,49.5c68.9,0,119.3-13.3,160.8-47.7c30-24.7,45.9-51.2,72.4-108.7
					h24.7L1157.6,929.7z"/>
				<path class="st3" d="M1558.1,946.5c-173.8-0.3-314.9-146.5-311.2-320.2c3.9-183.5,136-307,317-307
					c177.6,0,308.3,131.6,308.3,314.5C1872.2,817.7,1741.2,946.7,1558.1,946.5z M1556,348.4c-97.2,0-152.8,104.2-152.8,289.7
					c0,186.4,56.5,279.2,157.3,279.2c101.6,0,155.5-95.4,155.5-277.4C1715.9,451.8,1659.3,348.4,1556,348.4z"/>
				<path class="st3" d="M2570.1,698.2c-66.3,7-76,32.7-76,88.3v104.2c-57.4,33.6-152.9,55.7-244.7,55.7
					c-177.6,0-313.6-120.1-313.6-309.2c0-175.8,130.7-318,307.4-318c45.9,0,85.7,9.7,136.9,30.9c20.3,8.8,31.8,12.4,40.6,12.4
					c16.8,0,25.6-8.8,38.9-40.6h23.9v207.6h-22.1c-30.9-67.1-46.8-98-84.8-131.6c-37.9-33.6-80.4-49.5-121.9-49.5
					c-102.5,0-162.6,99.8-162.6,282.7c0,91,13.3,160.8,42.4,209.4c30.9,51.3,68.9,76.9,136.9,76.9c62.7,0,84.8-30.1,84.8-75.1v-78.6
					c0-45.9-14.1-61-90.1-65.4v-22.1h303.9L2570.1,698.2L2570.1,698.2L2570.1,698.2z"/>
				<path class="st3" d="M3124.3,929.7h-516.8v-22.1c65.4-7.1,77.7-21.2,77.7-67.2V417.3c0-45.1-16.8-59.2-77.7-62.7v-22.1h509.7
					V510h-22.1c-20.3-118.4-65.3-147.5-209.3-147.5c-45.9,0-57.4,14.1-57.4,47.7V609c93.6-0.9,132.5-29.2,143.1-131.6h23V776h-23
					c-8.8-105.1-46.8-136.9-143.1-136.9v213.8c0,38,15.9,49.5,73.3,49.5c68.9,0,119.3-13.3,160.8-47.7c30.1-24.7,46-51.2,72.5-108.7
					h24.7L3124.3,929.7z"/>
				<path class="st3" d="M3524.8,946.5c-173.8-0.3-314.9-146.5-311.2-320.3c3.9-183.5,136.1-307,317.1-307
					c177.6,0,308.3,131.6,308.3,314.5C3839,817.7,3708,946.7,3524.8,946.5z M3522.7,348.4c-97.2,0-152.8,104.2-152.8,289.7
					c0,186.4,56.5,279.2,157.3,279.2c101.6,0,155.5-95.4,155.5-277.4C3682.6,451.8,3626.1,348.4,3522.7,348.4z"/>
			</g>
		</g>
	</g>
</g>
</svg>
