<?xml version="1.0" encoding="utf-8"?>
<!-- Generator: Adobe Illustrator 26.0.3, SVG Export Plug-In . SVG Version: 6.00 Build 0)  -->
<svg version="1.1" id="Layer_1" xmlns="http://www.w3.org/2000/svg" xmlns:xlink="http://www.w3.org/1999/xlink" x="0px" y="0px"
	 viewBox="0 0 3839 1224.6" style="enable-background:new 0 0 3839 1224.6;" xml:space="preserve">
<style type="text/css">
	.st0{fill:#C2AC6D;}
	.st1{fill:#22CDC4;}
	.st2{fill:#FFFFFF;}
</style>
<g>
	<g>
		<g>
			<g>
				<g>
					<path class="st0" d="M643.3,290.2h-195v25.6h25.4c34.1,0,61.7,31.8,61.7,65.7v316.4L202.9,290.2H0v25.6
						c45.3,0,81.1,40.9,81.1,86.3v443.4c0,45.3-47.8,60.4-81.1,60.4v25.6h220.4v-25.6c-41.3-0.2-63.1-5.9-77.2-19.2
						c-14.1-13.4-17.9-31.1-17.9-55.4V415.7l430.5,524.9h23.5V382.2c0-33.1,25.9-61.2,64-62.6V290.2z"/>
					<circle class="st0" cx="1943.7" cy="608.8" r="74.4"/>
					<path class="st0" d="M2362.6,631.5v31h24.2c39.3,0,50.5,19,50.5,52.9V867c-9,11-39.7,24.8-83,24.8c-8.8,0-59-1-96.5-31.8
						c-39.2-32.2-65.6-97.4-65.6-252.4c0-201.8,71-287.3,173.9-287.3c33.5,0,147,22.6,195.3,168.6h30.3V278.3h-28.6
						c-3.6,28.3-26,44-68.3,26.4c-63.9-26.5-121-30.5-162.8-30.5c-164.6,0-304.9,152.5-304.9,334.6c0,209.8,158.4,332.7,328.5,332.7
						c80.6,0,166.1-18.6,233.8-52.9V715.4c0-40.6,28.3-52.9,66.5-52.9v-31L2362.6,631.5L2362.6,631.5z"/>
					<g>
						<path class="st0" d="M1185.2,733.6c-15.9,87.9-91.7,156.5-176.7,154.3h-73.4c-23,0-41.7-18.7-41.7-41.7V621.4h20.1
							c60,0,98.3,50.2,98.3,136.6h26.3V604.9v-7.8V446.9h-26.3c0,76-32.1,130.9-98.4,130.9h-20.1V328.7h105.5
							c142,0,146.8,126.5,146.8,142.8h28.3V334.1v-43.9H662.2v25.5h36.1c27.6,0,50,26.1,50,53.6v472.1c0,49.7-32.6,61-60.2,61h-25.9
							v29.2h86.1h433l29.2-198L1185.2,733.6L1185.2,733.6z"/>
						<path class="st0" d="M1533.5,283.5c-184.6,0-326.7,135.9-326.7,331.3s142.2,331.3,326.7,331.3
							c184.6,0,326.8-135.9,326.8-331.3S1718.1,283.5,1533.5,283.5z M1533.5,903.2c-88.7,0-160.4-81.2-160.4-288.5
							s71.9-288.4,160.4-288.4c88.7,0,160.4,81.2,160.4,288.5C1694.1,822,1622.2,903.2,1533.5,903.2z"/>
					</g>
					<g>
						<path class="st0" d="M3163.9,733.6c-15.9,87.9-91.7,156.5-176.7,154.3h-73.4c-23,0-41.7-18.7-41.7-41.7V621.4h20.1
							c60,0,98.3,50.2,98.3,136.6h26.3V604.9v-7.8V446.9h-26.3c0,76-32.1,130.9-98.4,130.9H2872V328.7h105.5
							c142,0,146.8,126.5,146.8,142.8h28.3V334.1v-43.9h-511.7v25.5h36.1c27.6,0,50,26.1,50,53.6v472.1c0,49.7-32.6,61-60.2,61
							h-25.9v29.2h86.1h433l29.2-198L3163.9,733.6L3163.9,733.6z"/>
						<path class="st0" d="M3512.2,283.5c-184.6,0-326.7,135.9-326.7,331.3s142.2,331.3,326.7,331.3
							c184.6,0,326.8-135.9,326.8-331.3S3696.8,283.5,3512.2,283.5z M3512.2,903.2c-88.7,0-160.4-81.2-160.4-288.5
							s71.9-288.5,160.4-288.5c88.7,0,160.4,81.2,160.4,288.5C3672.8,822,3600.9,903.2,3512.2,903.2z"/>
					</g>
				</g>
			</g>
		</g>
		<g>
			<g>
				<path class="st1" d="M162.9,1053.9h49.2l41.7,167.4H213l-6.1-31.9h-40.1l-5.9,31.9h-40.8L162.9,1053.9z M186.8,1084.4h-0.5
					l-13.8,74.5h28.6L186.8,1084.4z"/>
				<path class="st1" d="M264.7,1053.9h58.4c38.9,0,55.6,20.2,55.6,78.3c0,60.7-7.7,89.1-59.5,89.1h-54.4v-167.4H264.7z
					 M304.1,1192.2h10.5c18.3,0,24.6-7.3,24.6-57.4c0-40.8-3.3-51.8-24.1-51.8h-11V1192.2z"/>
				<path class="st1" d="M381.9,1053.9h42.2l19.9,129.4h0.5l20.2-129.4h42.2l-38,167.4h-50.2L381.9,1053.9z"/>
				<path class="st1" d="M537.6,1053.9h49.2l41.7,167.4h-40.8l-6.1-31.9h-40.1l-5.9,31.9h-40.8L537.6,1053.9z M561.5,1084.4H561
					l-13.8,74.5h28.6L561.5,1084.4z"/>
				<path class="st1" d="M639.4,1053.9h45.2l32.4,108.8h0.5v-108.8h36.6v167.4h-44.5L675.1,1106h-0.5v115.3h-35.2L639.4,1053.9
					L639.4,1053.9z"/>
				<path class="st1" d="M844.5,1112.1c0-24.4-2.8-35.2-15.9-35.2c-15.7,0-17.1,15-17.1,58.8c0,49.7,1.6,62.6,18,62.6
					c14.5,0,16.2-16.6,16.4-42.7h38v5.9c0,36.1-10.1,63.1-58.8,63.1c-50.4,0-54.4-37.7-54.4-88.1c0-42.9,2.3-85.8,58.1-85.8
					c34.7,0,53.7,15,53.7,54.4v7H844.5z"/>
				<path class="st1" d="M897.6,1053.9h96.8v31.9H937v33.5h53.9v31.9H937v38.2h60v31.9h-99.4V1053.9z"/>
				<path class="st1" d="M1011.4,1053.9h58.4c38.9,0,55.6,20.2,55.6,78.3c0,60.7-7.7,89.1-59.5,89.1h-54.4L1011.4,1053.9
					L1011.4,1053.9z M1050.8,1192.2h10.6c18.3,0,24.6-7.3,24.6-57.4c0-40.8-3.3-51.8-24.1-51.8h-11L1050.8,1192.2L1050.8,1192.2z"/>
				<path class="st1" d="M1261.5,1053.9h96.8v31.9h-57.4v33.5h53.9v31.9h-53.9v38.2h60v31.9h-99.4V1053.9z"/>
				<path class="st1" d="M1375.2,1053.9h45.2l32.4,108.8h0.5v-108.8h36.6v167.4h-44.5l-34.5-115.3h-0.5v115.3h-35.2V1053.9z"/>
				<path class="st1" d="M1536.3,1085.8h-35.2v-31.9h109.7v31.9h-35.2v135.5h-39.4L1536.3,1085.8L1536.3,1085.8z"/>
				<path class="st1" d="M1622,1053.9h96.8v31.9h-57.4v33.5h53.9v31.9h-53.9v38.2h60v31.9H1622V1053.9z"/>
				<path class="st1" d="M1735.8,1053.9h66.1c33.5,0,45,20.6,45,43.6c0,24.4-9.8,36.3-28.1,40.8v0.5c25.1,3.5,26.5,19.2,27,41.7
					c0.7,33.1,1.9,36.3,7.5,38.7v2.1h-42.4c-3-5.6-4.2-15-4.2-34c0-29.1-4-35.2-16.4-35.2h-15v69.2h-39.4L1735.8,1053.9
					L1735.8,1053.9z M1775.2,1124.5h12.2c15.9,0,20.2-12,20.2-21.8c0-12.7-4.7-21.1-20.4-21.1h-12L1775.2,1124.5L1775.2,1124.5z"/>
				<path class="st1" d="M1892.6,1085.8h-35.2v-31.9h109.7v31.9H1932v135.5h-39.4V1085.8z"/>
				<path class="st1" d="M1997.6,1053.9h49.2l41.7,167.4h-40.8l-6.1-31.9h-40.1l-5.9,31.9H1955L1997.6,1053.9z M2021.6,1084.4h-0.5
					l-13.8,74.5h28.6L2021.6,1084.4z"/>
				<path class="st1" d="M2099.8,1053.9h39.4v167.4h-39.4V1053.9z"/>
				<path class="st1" d="M2159.2,1053.9h45.2l32.4,108.8h0.5v-108.8h36.6v167.4h-44.5l-34.5-115.3h-0.5v115.3h-35.2V1053.9z"/>
				<path class="st1" d="M2294.3,1053.9h57.7l20.6,110h0.5l19.9-110h57v167.4h-36.6V1091h-0.5l-25.6,130.3h-30.5l-27-130.3h-0.5
					v130.3h-35.2v-167.4H2294.3z"/>
				<path class="st1" d="M2470.6,1053.9h96.8v31.9H2510v33.5h53.9v31.9H2510v38.2h60v31.9h-99.4V1053.9z"/>
				<path class="st1" d="M2584.4,1053.9h45.2l32.4,108.8h0.5v-108.8h36.6v167.4h-44.5L2620,1106h-0.5v115.3h-35.2L2584.4,1053.9
					L2584.4,1053.9z"/>
				<path class="st1" d="M2745.4,1085.8h-35.2v-31.9h109.7v31.9h-35.2v135.5h-39.4L2745.4,1085.8L2745.4,1085.8z"/>
				<path class="st1" d="M2981.7,1170.2v5.9c0,12.7,3.5,22.3,17.1,22.3c13.8,0,17.8-10.3,17.8-19.9c0-36.1-72-15.9-72-78.5
					c0-26.7,14.3-49.2,54.9-49.2c39.4,0,53.5,19.9,53.5,45.7v4h-38c0-8-0.9-13.8-3.3-17.6c-2.3-4-6.1-5.9-12-5.9
					c-9.8,0-15.7,5.9-15.7,18c0,34.9,72,17.3,72,76.4c0,38-21.1,53.2-57.2,53.2c-28.6,0-55.1-8.7-55.1-43.6v-10.8H2981.7z"/>
				<path class="st1" d="M3099.3,1155.4l-42.4-101.5h43.6l18.8,62.1h0.5l19.2-62.1h42.2l-42.4,101.5v65.9h-39.4v-65.9H3099.3z"/>
				<path class="st1" d="M3220.7,1170.2v5.9c0,12.7,3.5,22.3,17.1,22.3c13.8,0,17.8-10.3,17.8-19.9c0-36.1-72-15.9-72-78.5
					c0-26.7,14.3-49.2,54.9-49.2c39.4,0,53.4,19.9,53.4,45.7v4h-38c0-8-0.9-13.8-3.3-17.6c-2.3-4-6.1-5.9-12-5.9
					c-9.8,0-15.7,5.9-15.7,18c0,34.9,72,17.3,72,76.4c0,38-21.1,53.2-57.2,53.2c-28.6,0-55.1-8.7-55.1-43.6v-10.8H3220.7z"/>
				<path class="st1" d="M3337,1085.8h-35.2v-31.9h109.7v31.9h-35.2v135.5H3337V1085.8z"/>
				<path class="st1" d="M3422.7,1053.9h96.8v31.9h-57.4v33.5h53.9v31.9h-53.9v38.2h60v31.9h-99.4L3422.7,1053.9L3422.7,1053.9z"/>
				<path class="st1" d="M3537,1053.9h57.7l20.6,110h0.5l19.9-110h57v167.4h-36.6V1091h-0.5l-25.6,130.3h-30.5l-27-130.3h-0.5v130.3
					h-35V1053.9z"/>
			</g>
		</g>
	</g>
	<g>
		<g>
			<g>
				<g>
					<path class="st2" d="M1551.7,54.8c0,30.2,20.3,54.6,45.2,54.6h125.4c3.1,0,5.6,3.1,5.6,6.8c0,3.8-2.5,6.8-5.6,6.8h-170.6v48
						h191c25,0,45.2-24.5,45.2-54.7s-20.2-54.6-45.2-54.6h-125.4c-3.1,0-5.6-3-5.6-6.8c0-3.7,2.5-6.9,5.6-6.9h170.6V0h-191
						C1571.9,0,1551.7,24.6,1551.7,54.8z"/>
					<g>
						<polygon class="st2" points="1977.7,0 1977.7,107 1863.5,0 1801.3,0 1801.3,170.9 1861.3,170.9 1861.3,63.8 1975.6,170.9 
							2037.7,170.9 2037.7,0 						"/>
					</g>
					<polygon class="st2" points="2287.3,0 2208.7,0 2111.1,75.3 2111.1,0 2051.2,0 2051.2,170.9 2111.1,170.9 2111.1,95.5 
						2208.7,170.9 2287.3,170.9 2176.5,85.5 					"/>
				</g>
			</g>
		</g>
	</g>
</g>
</svg>
