<?xml version="1.0" encoding="utf-8"?>
<!-- Generator: Adobe Illustrator 26.0.1, SVG Export Plug-In . SVG Version: 6.00 Build 0)  -->
<svg version="1.1" id="Layer_1" xmlns="http://www.w3.org/2000/svg" xmlns:xlink="http://www.w3.org/1999/xlink" x="0px" y="0px"
	 viewBox="0 0 2690.4 2159" style="enable-background:new 0 0 2690.4 2159;" xml:space="preserve">
<style type="text/css">
	.st0{fill:#CBB470;}
	.st1{fill:#C2AC6D;}
	.st2{fill:#22CDC4;}
	.st3{fill:#FFFFFF;}
</style>
<g>
	<path class="st0" d="M542.8,1706.9v44.5h34.8c56.5,0,72.5,27.3,72.5,76v217.9c-13,15.7-57.1,35.7-119.3,35.7
		c-12.7,0-84.8-1.4-138.7-45.7c-56.3-46.2-94.3-140-94.3-362.8c0-290.1,102-412.9,249.9-412.9c48.1,0,211.2,32.5,280.7,242.3h43.5
		v-302.7h-41.2c-5.2,40.7-37.4,63.3-98.1,38c-91.6-38.1-173.7-43.9-233.8-43.9c-236.7,0-438.2,219.2-438.2,481
		c0,301.5,227.7,478.2,472.2,478.2c115.9,0,238.7-26.7,336.1-76v-249.1c0-58.4,40.7-76,95.6-76v-44.5L542.8,1706.9L542.8,1706.9z"/>
	<g>
		<g>
			<path class="st3" d="M70.5,1011.8H107l31,124.2h-30.3l-4.5-23.7H73.4l-4.3,23.7H38.8L70.5,1011.8z M88.2,1034.4h-0.3l-10.3,55.3
				h21.2L88.2,1034.4z"/>
			<path class="st3" d="M146.1,1011.8h43.3c28.9,0,41.2,15,41.2,58.1c0,45.1-5.7,66.1-44.2,66.1h-40.4V1011.8z M175.3,1114.5h7.8
				c13.6,0,18.3-5.4,18.3-42.6c0-30.3-2.4-38.5-17.9-38.5h-8.2V1114.5z"/>
			<path class="st3" d="M233,1011.8h31.3l14.8,96h0.3l15-96h31.3l-28.2,124.2h-37.2L233,1011.8z"/>
			<path class="st3" d="M348.6,1011.8h36.5l31,124.2h-30.3l-4.5-23.7h-29.8l-4.4,23.7h-30.3L348.6,1011.8z M366.3,1034.4H366
				l-10.3,55.3H377L366.3,1034.4z"/>
			<path class="st3" d="M424.2,1011.8h33.6l24,80.7h0.3v-80.7h27.1v124.2h-33.1l-25.6-85.6h-0.3v85.6h-26.1V1011.8z"/>
			<path class="st3" d="M576.4,1055c0-18.1-2.1-26.1-11.8-26.1c-11.7,0-12.7,11.1-12.7,43.7c0,36.9,1.2,46.5,13.4,46.5
				c10.8,0,12-12.4,12.2-31.7h28.2v4.4c0,26.8-7.5,46.8-43.7,46.8c-37.4,0-40.4-28-40.4-65.4c0-31.8,1.7-63.7,43.2-63.7
				c25.8,0,39.8,11.1,39.8,40.4v5.2H576.4z"/>
			<path class="st3" d="M615.8,1011.8h71.9v23.7h-42.6v24.9h40v23.7h-40v28.4h44.5v23.7h-73.8V1011.8z"/>
			<path class="st3" d="M700.3,1011.8h43.3c28.9,0,41.2,15,41.2,58.1c0,45.1-5.7,66.1-44.2,66.1h-40.4V1011.8z M729.5,1114.5h7.8
				c13.6,0,18.3-5.4,18.3-42.6c0-30.3-2.4-38.5-17.9-38.5h-8.2V1114.5z"/>
			<path class="st3" d="M885.9,1011.8h71.9v23.7h-42.6v24.9h40v23.7h-40v28.4h44.5v23.7h-73.8V1011.8z"/>
			<path class="st3" d="M970.3,1011.8h33.6l24,80.7h0.3v-80.7h27.1v124.2h-33.1l-25.6-85.6h-0.3v85.6h-26.1V1011.8z"/>
			<path class="st3" d="M1089.8,1035.5h-26.1v-23.7h81.4v23.7h-26.1v100.6h-29.2V1035.5z"/>
			<path class="st3" d="M1153.5,1011.8h71.9v23.7h-42.6v24.9h40v23.7h-40v28.4h44.5v23.7h-73.8V1011.8z"/>
			<path class="st3" d="M1237.9,1011.8h49.1c24.9,0,33.4,15.3,33.4,32.4c0,18.1-7.3,27-20.9,30.3v0.3c18.6,2.6,19.7,14.3,20,31
				c0.5,24.5,1.4,27,5.6,28.7v1.6h-31.5c-2.3-4.2-3.1-11.1-3.1-25.2c0-21.6-3-26.1-12.2-26.1h-11.1v51.3h-29.2V1011.8z
				 M1267.2,1064.2h9c11.8,0,15-8.9,15-16.2c0-9.4-3.5-15.7-15.1-15.7h-8.9V1064.2z"/>
			<path class="st3" d="M1354.3,1035.5h-26.1v-23.7h81.4v23.7h-26.1v100.6h-29.2V1035.5z"/>
			<path class="st3" d="M1432.3,1011.8h36.5l31,124.2h-30.3l-4.5-23.7h-29.8l-4.3,23.7h-30.3L1432.3,1011.8z M1450,1034.4h-0.3
				l-10.3,55.3h21.2L1450,1034.4z"/>
			<path class="st3" d="M1508.2,1011.8h29.2v124.2h-29.2V1011.8z"/>
			<path class="st3" d="M1552.2,1011.8h33.6l24,80.7h0.3v-80.7h27.1v124.2h-33.1l-25.6-85.6h-0.3v85.6h-26.1V1011.8z"/>
			<path class="st3" d="M1652.5,1011.8h42.8l15.3,81.6h0.3l14.8-81.6h42.3v124.2h-27.1v-96.7h-0.3l-19,96.7h-22.6l-20-96.7h-0.3
				v96.7h-26.1V1011.8z"/>
			<path class="st3" d="M1783.3,1011.8h71.9v23.7h-42.6v24.9h40v23.7h-40v28.4h44.5v23.7h-73.8V1011.8z"/>
			<path class="st3" d="M1867.8,1011.8h33.6l24,80.7h0.3v-80.7h27.1v124.2h-33.1l-25.6-85.6h-0.3v85.6h-26.1V1011.8z"/>
			<path class="st3" d="M1987.3,1035.5h-26.1v-23.7h81.4v23.7h-26.1v100.6h-29.2V1035.5z"/>
			<path class="st3" d="M2162.7,1098.1v4.4c0,9.4,2.6,16.5,12.7,16.5c10.3,0,13.2-7.7,13.2-14.8c0-26.8-53.4-11.8-53.4-58.3
				c0-19.8,10.6-36.5,40.7-36.5c29.2,0,39.7,14.8,39.7,33.9v3h-28.2c0-5.9-0.7-10.3-2.4-13.1c-1.7-3-4.5-4.3-8.9-4.3
				c-7.3,0-11.7,4.3-11.7,13.4c0,25.9,53.4,12.9,53.4,56.7c0,28.2-15.7,39.5-42.5,39.5c-21.2,0-40.9-6.4-40.9-32.4v-8H2162.7z"/>
			<path class="st3" d="M2250,1087.2l-31.5-75.3h32.4l13.9,46.1h0.3l14.3-46.1h31.3l-31.5,75.3v48.9H2250V1087.2z"/>
			<path class="st3" d="M2340.1,1098.1v4.4c0,9.4,2.6,16.5,12.7,16.5c10.3,0,13.2-7.7,13.2-14.8c0-26.8-53.4-11.8-53.4-58.3
				c0-19.8,10.6-36.5,40.7-36.5c29.2,0,39.7,14.8,39.7,33.9v3h-28.2c0-5.9-0.7-10.3-2.4-13.1c-1.7-3-4.5-4.3-8.9-4.3
				c-7.3,0-11.7,4.3-11.7,13.4c0,25.9,53.4,12.9,53.4,56.7c0,28.2-15.7,39.5-42.5,39.5c-21.2,0-40.9-6.4-40.9-32.4v-8H2340.1z"/>
			<path class="st3" d="M2426.4,1035.5h-26.1v-23.7h81.4v23.7h-26.1v100.6h-29.2V1035.5z"/>
			<path class="st3" d="M2490,1011.8h71.9v23.7h-42.6v24.9h40v23.7h-40v28.4h44.5v23.7H2490V1011.8z"/>
			<path class="st3" d="M2574.9,1011.8h42.8l15.3,81.6h0.3l14.8-81.6h42.3v124.2h-27.1v-96.7h-0.3l-19,96.7h-22.6l-20-96.7h-0.3
				v96.7h-26.1V1011.8z"/>
		</g>
	</g>
	<g>
		<path class="st0" d="M924.7,9.7H644.3v36.8h36.6c49,0,88.7,45.7,88.7,94.5v454.8L291.7,9.7H0v36.8c65.2,0,116.5,58.8,116.5,124.1
			v637.3c0,65.2-68.7,86.8-116.5,86.8v36.8h316.8v-36.9c-59.3-0.3-90.7-8.5-111-27.6c-20.2-19.2-25.7-44.6-25.7-79.6V190.1
			l618.8,754.5h33.8V141.9c0-47.6,37.3-88,91.9-89.9V9.7z"/>
		<g>
			<path class="st0" d="M1703.5,646.9c-22.9,126.3-131.9,225-254,221.8H1344c-33.1,0-60-26.9-60-60V485.7h28.9
				c86.2,0,141.2,72.2,141.2,196.3h37.8v-220v-11.2V234.9h-37.8c0,109.2-46.2,188.1-141.4,188.1h-28.9V65h151.6
				c204.1,0,211,181.9,211,205.3h40.7V72.8V9.7H951.8v36.7h51.9c39.7,0,71.9,37.5,71.9,77.1V802c0,71.5-46.9,87.7-86.6,87.7h-37.3
				v41.9h123.7h622.3l41.9-284.7H1703.5z"/>
			<path class="st0" d="M2204.2,0c-265.3,0-469.6,195.3-469.6,476.2s204.4,476.2,469.6,476.2c265.3,0,469.7-195.3,469.7-476.2
				S2469.4,0,2204.2,0z M2204.2,890.9c-127.4,0-230.6-116.7-230.6-414.7s103.3-414.7,230.6-414.7c127.4,0,230.6,116.7,230.6,414.7
				C2435.1,774.1,2331.6,890.9,2204.2,890.9z"/>
		</g>
	</g>
	<g>
		<path class="st0" d="M1703.5,1853.5c-22.9,126.3-131.9,225-254,221.8H1344c-33.1,0-60-26.9-60-60v-323.1h28.9
			c86.2,0,141.2,72.2,141.2,196.3h37.8v-220v-11.2v-215.9h-37.8c0,109.2-46.2,188.1-141.4,188.1h-28.9v-358h151.6
			c204.1,0,211,181.9,211,205.3h40.7v-197.4v-63.1H951.8v36.7h51.9c39.7,0,71.9,37.5,71.9,77.1v678.5c0,71.5-46.9,87.7-86.6,87.7
			h-37.3v41.9h123.7h622.3l41.9-284.7H1703.5z"/>
		<path class="st0" d="M2204.2,1206.6c-265.3,0-469.6,195.3-469.6,476.2s204.4,476.2,469.6,476.2c265.3,0,469.7-195.3,469.7-476.2
			S2469.4,1206.6,2204.2,1206.6z M2204.2,2097.5c-127.4,0-230.6-116.7-230.6-414.7s103.3-414.7,230.6-414.7
			c127.4,0,230.6,116.7,230.6,414.7C2435.1,1980.7,2331.6,2097.5,2204.2,2097.5z"/>
	</g>
</g>
</svg>
