<?xml version="1.0" encoding="utf-8"?>
<!-- Generator: Adobe Illustrator 26.0.1, SVG Export Plug-In . SVG Version: 6.00 Build 0)  -->
<svg version="1.1" id="Layer_1" xmlns="http://www.w3.org/2000/svg" xmlns:xlink="http://www.w3.org/1999/xlink" x="0px" y="0px"
	 viewBox="0 0 3839 946" style="enable-background:new 0 0 3839 946;" xml:space="preserve">
<style type="text/css">
	.st0{fill:#CBB470;}
	.st1{fill:#C2AC6D;}
	.st2{fill:#22CDC4;}
	.st3{fill:#FFFFFF;}
</style>
<g>
	<g>
		<g>
			<g>
				<path class="st1" d="M643.3,290.1h-195v25.6h25.4c34.1,0,61.7,31.8,61.7,65.7v316.4L202.9,290.1H0v25.6
					c45.3,0,81.1,40.9,81.1,86.3v443.4c0,45.3-47.8,60.4-81.1,60.4v25.6h220.4v-25.6c-41.3-0.2-63.1-5.9-77.2-19.2
					c-14.1-13.4-17.9-31.1-17.9-55.4V415.6l430.5,524.9h23.5V382c0-33.1,25.9-61.2,64-62.6V290.1z"/>
				<circle class="st1" cx="1943.7" cy="608.7" r="74.4"/>
				<path class="st1" d="M2362.6,631.4v31h24.2c39.3,0,50.5,19,50.5,52.9v151.6c-9,11-39.7,24.8-83,24.8c-8.8,0-59-1-96.5-31.8
					c-39.2-32.2-65.6-97.4-65.6-252.4c0-201.8,71-287.3,173.9-287.3c33.5,0,147,22.6,195.3,168.6h30.3V278.2h-28.6
					c-3.6,28.3-26,44-68.3,26.4c-63.7-26.5-120.8-30.6-162.6-30.6c-164.6,0-304.9,152.5-304.9,334.6
					c0,209.8,158.4,332.7,328.5,332.7c80.6,0,166.1-18.6,233.8-52.9V715.3c0-40.6,28.3-52.9,66.5-52.9v-31L2362.6,631.4
					L2362.6,631.4z"/>
				<g>
					<path class="st1" d="M1185.2,733.4c-15.9,87.9-91.7,156.5-176.7,154.3h-73.4c-23,0-41.7-18.7-41.7-41.7V621.3h20.1
						c60,0,98.3,50.2,98.3,136.6h26.3V604.8V597V446.8h-26.3c0,76-32.1,130.9-98.4,130.9h-20.1V328.5h105.5
						c142,0,146.8,126.5,146.8,142.8h28.3V334v-43.9H662.2v25.5h36.1c27.6,0,50,26.1,50,53.6v472.1c0,49.7-32.6,61-60.2,61h-25.9
						v29.2h86.1h433l29.2-198H1185.2z"/>
					<path class="st1" d="M1533.5,283.3c-184.6,0-326.7,135.9-326.7,331.3S1349.1,946,1533.5,946c184.6,0,326.8-135.9,326.8-331.3
						S1718.1,283.3,1533.5,283.3z M1533.5,903.1c-88.7,0-160.4-81.2-160.4-288.5s71.9-288.5,160.4-288.5
						c88.7,0,160.4,81.2,160.4,288.5C1694.1,821.9,1622.2,903.1,1533.5,903.1z"/>
				</g>
				<g>
					<path class="st1" d="M3163.9,733.4c-15.9,87.9-91.7,156.5-176.7,154.3h-73.4c-23,0-41.7-18.7-41.7-41.7V621.3h20.1
						c60,0,98.3,50.2,98.3,136.6h26.3V604.8V597V446.8h-26.3c0,76-32.1,130.9-98.4,130.9H2872V328.5h105.5
						c142,0,146.8,126.5,146.8,142.8h28.3V334v-43.9h-511.7v25.5h36.1c27.6,0,50,26.1,50,53.6v472.1c0,49.7-32.6,61-60.2,61h-25.9
						v29.2h86.1h433l29.2-198H3163.9z"/>
					<path class="st1" d="M3512.2,283.3c-184.6,0-326.7,135.9-326.7,331.3S3327.8,946,3512.2,946c184.6,0,326.8-135.9,326.8-331.3
						S3696.8,283.3,3512.2,283.3z M3512.2,903.1c-88.7,0-160.4-81.2-160.4-288.5s71.9-288.5,160.4-288.5
						c88.7,0,160.4,81.2,160.4,288.5C3672.8,821.9,3600.9,903.1,3512.2,903.1z"/>
				</g>
			</g>
		</g>
	</g>
	<g>
		<g>
			<g>
				<g>
					<path class="st3" d="M1551.7,54.8c0,30.2,20.3,54.6,45.2,54.6h125.4c3.1,0,5.6,3.1,5.6,6.8c0,3.8-2.5,6.8-5.6,6.8h-170.6v48
						h191c25,0,45.2-24.5,45.2-54.7s-20.2-54.6-45.2-54.6h-125.4c-3.1,0-5.6-3-5.6-6.8c0-3.7,2.5-6.9,5.6-6.9h170.6V0h-191
						C1571.9,0,1551.7,24.6,1551.7,54.8z"/>
					<g>
						<polygon class="st3" points="1977.7,0 1977.7,107 1863.5,0 1801.3,0 1801.3,170.9 1861.3,170.9 1861.3,63.8 1975.6,170.9 
							2037.7,170.9 2037.7,0 						"/>
					</g>
					<polygon class="st3" points="2287.3,0 2208.7,0 2111.1,75.3 2111.1,0 2051.2,0 2051.2,170.9 2111.1,170.9 2111.1,95.5 
						2208.7,170.9 2287.3,170.9 2176.5,85.5 					"/>
				</g>
			</g>
		</g>
	</g>
</g>
</svg>
