<?xml version="1.0" encoding="utf-8"?>
<!-- Generator: Adobe Illustrator 25.2.1, SVG Export Plug-In . SVG Version: 6.00 Build 0)  -->
<svg version="1.1" id="Layer_1" xmlns="http://www.w3.org/2000/svg" xmlns:xlink="http://www.w3.org/1999/xlink" x="0px" y="0px"
	 viewBox="0 0 3839 934.6" style="enable-background:new 0 0 3839 934.6;" xml:space="preserve">
<style type="text/css">
	.st0{fill:#2798D0;}
	.st1{fill:#0080BF;}
	.st2{fill:#FFFFFF;}
	.st3{fill:#C2AC6D;}
	.st4{fill:#069ACB;}
</style>
<g>
	<g>
		<g>
			<g>
				<path class="st0" d="M1510.9,54.4c0,30,20.1,54.3,44.9,54.3h124.7c3.1,0,5.6,3,5.6,6.7c0,3.8-2.5,6.8-5.6,6.8h-169.6v47.6h189.9
					c24.8,0,44.9-24.4,44.9-54.4c0-30-20.1-54.3-44.9-54.3h-124.6c-3.1,0-5.6-3-5.6-6.7c0-3.7,2.5-6.8,5.6-6.8h169.5V0h-189.9
					C1531,0,1510.9,24.4,1510.9,54.4z"/>
				<g>
					<polygon class="st0" points="1934.4,0 1934.4,106.4 1820.9,0 1759.1,0 1759.1,169.8 1818.8,169.8 1818.8,63.4 1932.3,169.8 
						1994,169.8 1994,0 					"/>
				</g>
				<polygon class="st0" points="2242.2,0 2164.1,0 2067,74.9 2067,0 2007.4,0 2007.4,169.8 2067,169.8 2067,94.9 2164.1,169.8 
					2242.2,169.8 2132.1,84.9 				"/>
			</g>
			<g>
				<g>
					<path class="st0" d="M2272.8,5.3c-3.5-3.4-7.7-5.2-12.6-5.2c-5,0-9.2,1.8-12.6,5.2c-3.5,3.5-5.3,7.7-5.3,12.7
						c0,4.9,1.8,9.1,5.2,12.7c3.5,3.5,7.7,5.2,12.7,5.2c4.9,0,9.2-1.8,12.6-5.2c3.5-3.6,5.2-7.8,5.2-12.7
						C2278,12.9,2276.3,8.8,2272.8,5.3z M2271,28.9c-2.9,3-6.5,4.6-10.8,4.6c-4.3,0-7.9-1.5-10.9-4.6c-3-3-4.5-6.7-4.5-10.9
						c0-4.3,1.5-7.9,4.5-11c3.1-3,6.7-4.5,10.9-4.5c4.2,0,7.9,1.5,10.8,4.5c3.1,3,4.6,6.6,4.6,11C2275.6,22.2,2274,25.8,2271,28.9z"
						/>
					<path class="st0" d="M2268.5,15.3v-1c0-2.8-2.3-5.2-5.4-5.2l0,0h-10.3v18.1h3.2v-6.6h6.3c1.3,0,2.4,1,2.6,2.2l0,0l0.6,4.5h3.1
						l-0.6-4.5c-0.2-1.2-0.8-2.4-1.7-3.2C2267.7,18.6,2268.5,17.1,2268.5,15.3z M2255.9,12.2h7.2l0,0c1.3,0,2.3,1,2.3,2.2v1
						c0,1.3-1.1,2.3-2.4,2.3h-7.1V12.2z"/>
				</g>
			</g>
		</g>
		<g>
			<g>
				<path class="st3" d="M3758.5,928v-42h-15v-8.6h40.2v8.6h-15v42H3758.5z"/>
				<path class="st3" d="M3790.1,928v-50.5h15.3l9.2,34.5l9.1-34.5h15.3V928h-9.5v-39.8l-10,39.8h-9.9l-10-39.8V928H3790.1z"/>
			</g>
			<g>
				<path class="st3" d="M597.6,350.1c-56.7,8.7-68,17.5-68,72.4v511.2h-24.4l-390-475.4v345.4c0,67.2,14.8,84.6,82,92.5V918H0
					v-21.8c63.7-7.9,76.8-20.1,76.8-73.3v-410c-36.6-50.6-56.7-62.8-74.2-62.8v-21.8h184.1l304.5,375.1V442.6
					c0-69.8-15.7-86.4-80.3-92.5v-21.8h186.7V350.1z"/>
				<path class="st3" d="M1143.1,918.1H632.7v-21.8c64.6-7,76.8-21,76.8-66.3V412.1c0-44.5-16.6-58.5-76.8-61.9v-21.8h503.4v175.3
					h-21.8C1094.2,386.8,1049.7,358,907.5,358c-45.4,0-56.7,13.9-56.7,47.1v196.3c92.5-0.9,130.9-28.8,141.3-130h22.7v294.9h-22.7
					c-8.7-103.8-46.2-135.2-141.3-135.2v211.1c0,37.5,15.7,48.9,72.4,48.9c68,0,117.8-13.1,158.8-47.1
					c29.7-24.4,45.4-50.6,71.5-107.3h24.4L1143.1,918.1z"/>
				<path class="st3" d="M1538.6,934.6c-171.6-0.2-310.9-144.6-307.3-316.2c3.9-181.3,134.3-303.1,313.1-303.1
					c175.4,0,304.5,130,304.5,310.5C1848.8,807.4,1719.4,934.9,1538.6,934.6z M1536.5,344c-95.9,0-150.9,102.9-150.9,286.1
					c0,184.1,55.8,275.7,155.3,275.7c100.3,0,153.5-94.2,153.5-273.9C1694.4,446.1,1638.6,344,1536.5,344z"/>
				<path class="st3" d="M2538,689.5c-65.4,7-75,32.3-75,87.2v102.9c-56.7,33.2-150.9,55-241.7,55c-175.4,0-309.7-118.6-309.7-305.3
					c0-173.6,129.1-314,303.6-314c45.4,0,84.6,9.6,135.2,30.5c20,8.7,31.4,12.2,40.1,12.2c16.6,0,25.3-8.7,38.4-40.1h23.6v205h-21.8
					c-30.5-66.3-46.2-96.8-83.8-130c-37.5-33.1-79.4-48.9-120.4-48.9c-101.2,0-160.5,98.6-160.5,279.1c0,89.9,13.1,158.8,41.9,206.7
					c30.5,50.6,68,75.9,135.2,75.9c61.9,0,83.7-29.7,83.7-74.2V754c0-45.4-13.9-60.2-89-64.6v-21.8h300.1L2538,689.5L2538,689.5
					L2538,689.5z"/>
				<path class="st3" d="M3085.2,918.1h-510.3v-21.8c64.5-7,76.7-21,76.7-66.3V412.1c0-44.5-16.6-58.5-76.7-61.9v-21.8h503.3v175.3
					h-21.8c-20-116.9-64.5-145.7-206.7-145.7c-45.4,0-56.7,13.9-56.7,47.1v196.3c92.5-0.9,130.9-28.8,141.3-130h22.7v294.9h-22.7
					c-8.7-103.8-46.2-135.2-141.3-135.2v211.1c0,37.5,15.7,48.9,72.4,48.9c68,0,117.8-13.1,158.8-47.1
					c29.7-24.4,45.4-50.6,71.5-107.3h24.4L3085.2,918.1z"/>
				<path class="st3" d="M3480.7,934.6c-171.6-0.3-311-144.7-307.3-316.3c3.9-181.2,134.4-303.1,313.1-303.1
					c175.3,0,304.5,130,304.5,310.5C3790.9,807.4,3661.6,934.9,3480.7,934.6z M3478.6,344c-95.9,0-150.9,102.9-150.9,286.1
					c0,184.1,55.8,275.7,155.3,275.7c100.3,0,153.5-94.2,153.5-273.9C3636.5,446.1,3580.7,344,3478.6,344z"/>
			</g>
		</g>
	</g>
</g>
</svg>
