<?xml version="1.0" encoding="utf-8"?>
<!-- Generator: Adobe Illustrator 26.0.3, SVG Export Plug-In . SVG Version: 6.00 Build 0)  -->
<svg version="1.1" id="Layer_1" xmlns="http://www.w3.org/2000/svg" xmlns:xlink="http://www.w3.org/1999/xlink" x="0px" y="0px"
	 viewBox="0 0 3839 797.6" style="enable-background:new 0 0 3839 797.6;" xml:space="preserve">
<style type="text/css">
	.st0{fill:#FFFFFF;}
	.st1{fill-rule:evenodd;clip-rule:evenodd;fill:#FFFFFF;}
	.st2{fill-rule:evenodd;clip-rule:evenodd;}
	.st3{fill:#00AD9C;}
	.st4{fill:#FBB817;}
	.st5{fill:#0174BA;}
	.st6{fill:#EB2027;}
</style>
<g>
	<g>
		<path class="st0" d="M0,212v423.3h66.1V252.6h61.3c0,0,44.4,0,59.6,19.9c12.9,16.8,15.3,47.5,15.3,68.1c0,22.2-1.5,56.3-8.9,68.9
			c-11.3,19.1-29.8,23-46.7,23h-40.3V470h58c0,0,52.4,2.3,74.9-20.7C267,421.2,274,383.5,274,333c0-45.9-16.7-92.2-50.8-107.9
			c-28.2-13-79-13-79-13H0"/>
		<rect x="325.9" y="212" class="st0" width="66.1" height="423.3"/>
		<polyline class="st0" points="743.5,310.8 864.4,627.7 795.1,797.6 849.9,797.6 1049.7,310.8 988.5,310.8 901.4,548.1 
			820.4,310.8 743.5,310.8 		"/>
		<path class="st0" d="M1099.5,632.8v-40c0,0,70,2.7,84.4,2.7c32.2,0,48.4-6.9,60.5-19.9c7.2-7.7,13.7-42.3,13.7-54.6
			c0-12.2-2.4-38.9-7.3-49.6c-4.8-10.7-16.1-20.7-33-22.1c-12.1-1-30.7-3.4-52.4-4.4c-30.6-1.4-50.8-17.3-60.4-28.8
			c-9.7-11.5-22.6-28.7-22.6-81.5c0-52.8,13.7-82.4,27.4-96.2c13.7-13.8,33.8-19.9,49.2-22.5c17.7-3.1,46.7-3.3,46.7-3.3l92.5,2.7
			v40c0,0-67.5-2.7-82-2.7c-32.2,0-41.9,6.9-54,19.9c-7.2,7.7-12.7,29.1-12.7,41.3s1.4,37.1,6.2,47.8c4.8,10.7,16.1,20.7,33,22.1
			c12,1,30.6,3.4,52.4,4.4c30.6,1.4,50.8,17.3,60.4,28.8c9.7,11.5,22.6,35.6,22.6,88.4s-13.7,90.6-27.4,104.3
			c-13.7,13.8-33.8,19.9-49.2,22.5c-17.7,3.1-46.7,3.3-46.7,3.3L1099.5,632.8"/>
		<path class="st0" d="M1460.1,252.6H1394v310.8c0,0,1.6,28.3,3.2,38.3c1.6,10,16.1,33.7,54,33.7l68.5-1.3v-39.9
			c0,0-18.5,1.3-29.8,1.3s-25-0.8-27.4-19.9c-2.4-19.1-2.4-42-2.4-42V350.6h74.5v-39.8h-74.5V252.6"/>
		<rect x="2097.7" y="310.8" class="st0" width="66.1" height="324.5"/>
		<rect x="2097.7" y="212" class="st0" width="66.1" height="58.9"/>
		<path class="st0" d="M2327.2,370.3c-9.1,11.1-20.2,34.7-20.2,102.8c0,68.1,11.1,91.6,20.2,102.8c9.1,11.1,25.8,18.6,47.4,18.6
			c21.6,0,38.3-7.4,47.4-18.6c9.1-11.1,20.2-34.7,20.2-102.8c0-68.1-11.1-91.6-20.2-102.8c-9.1-11.1-25.8-18.6-47.4-18.6
			C2353,351.7,2336.3,359.2,2327.2,370.3 M2372.5,308c45,0,79.8,10.1,98.6,25.3c18.9,15.2,42.1,47.2,42.1,139.8
			c0,92.6-23.2,124.7-42.1,139.8c-18.9,15.2-53.7,25.3-98.6,25.3c-45,0-79.8-10.1-98.6-25.3c-18.8-15.1-42.1-47.2-42.1-139.8
			c0-92.6,23.2-124.7,42.1-139.8C2292.7,318.1,2327.5,308,2372.5,308z"/>
		<path class="st0" d="M2650.1,356.3l64.8-2.7c16.9,0,36.9,4.6,46.5,16.8c9.1,11.5,14.7,25.3,14.7,47.5v217h66.1V412.6
			c0-42.1-12.9-66.6-32.2-81.9c-27.8-22-77.4-19.9-77.4-19.9l-148.1,2.7V635h65.6V356.3"/>
		<path class="st0" d="M1966.1,252.6H1900v310.8c0,0,1.6,28.3,3.2,38.3c1.6,10,16.1,33.7,54,33.7l68.5-1.3v-39.9
			c0,0-18.5,1.3-29.8,1.3c-11.3,0-25-0.8-27.4-19.9c-2.4-19.1-2.4-42-2.4-42V350.6h74.5v-39.8h-74.5V252.6"/>
		<path class="st0" d="M642.7,417.9c0-22.2-5.6-35.9-14.7-47.5c-9.7-12.2-29.6-16.8-46.5-16.8l-87.1,2.7v-42.9l104.9-2.7
			c0,0,49.6-2.1,77.4,19.9c19.3,15.3,32.2,39.8,32.2,81.9v219.3l-126.6,2.7c0,0-57.4,0.3-86.2-11.5c-28.2-11.5-43.5-42.9-43.5-86.5
			c0-42.1,12.9-66.6,32.2-81.9c27.7-22,77.4-19.9,77.4-19.9h40.4v37.5h-22.7c-16.9,0-34.4,3.1-44.1,15.3
			c-9.1,11.5-13.9,21.4-13.9,43.6c0,29.1,5.6,42.1,19.3,52.1c12.1,8.8,33.8,10.7,58,10.7l43.6-2.7V417.9"/>
		<path class="st0" d="M1756.9,417.9c0-22.2-5.6-35.9-14.7-47.5c-9.7-12.2-29.6-16.8-46.5-16.8l-87.1,2.7v-42.9l104.9-2.7
			c0,0,49.6-2.1,77.4,19.9c19.3,15.3,32.2,39.8,32.2,81.9v219.3l-126.6,2.7c0,0-57.4,0.3-86.2-11.5c-28.2-11.5-43.5-42.9-43.5-86.5
			c0-42.1,12.9-66.6,32.2-81.9c27.8-22,77.4-19.9,77.4-19.9h40.4v37.5h-22.7c-16.9,0-34.4,3.1-44.1,15.3
			c-9.1,11.5-13.9,21.4-13.9,43.6c0,29.1,5.6,42.1,19.3,52.1c12.1,8.8,33.8,10.7,58,10.7l43.6-2.7V417.9"/>
	</g>
	<path class="st0" d="M2889.8,596.6c0-9.8,3.8-19.1,10.8-26c7-7,16.2-10.8,26-10.8c9.8,0,19.1,3.8,26,10.8c7,7,10.8,16.2,10.8,26
		c0,20.3-16.5,36.8-36.8,36.8c-9.8,0-19.1-3.8-26-10.8C2893.6,615.7,2889.8,606.4,2889.8,596.6 M2926.6,640.8
		c11.8,0,22.9-4.6,31.3-13c8.3-8.4,13-19.5,13-31.3c0-11.8-4.6-22.9-13-31.3c-8.4-8.3-19.5-13-31.3-13c-24.4,0-44.3,19.9-44.3,44.3
		c0,11.8,4.6,22.9,13,31.3C2903.7,636.2,2914.8,640.8,2926.6,640.8z"/>
	<path class="st0" d="M2938.7,585.4c0,2.7-0.7,4.6-2.1,5.6c-1.6,1.1-3.7,1.6-6.5,1.6h-13.7v-13.9h14.5c2,0,3.6,0.3,4.7,0.8
		C2937.7,580.6,2938.7,582.5,2938.7,585.4 M2948.5,617.1c-0.7-0.3-1.1-1-1.4-2.1c-0.2-0.8-0.4-2.1-0.4-3.8l-0.2-6.3
		c-0.1-3-0.7-5.1-1.8-6.6c-0.7-0.9-1.7-1.7-2.9-2.4c1.5-1,2.8-2.2,3.7-3.6c1.3-2,1.9-4.5,1.9-7.5c0-5.8-2.4-9.9-7.3-12.1
		c-2.5-1.1-5.6-1.7-9.3-1.7h-22.9v49.3h8.6v-20.2h13.4c2.4,0,4.2,0.3,5.3,0.8c1.8,0.9,2.7,2.6,2.8,5.3l0.4,7.9
		c0.1,1.9,0.2,3.2,0.4,3.9c0.1,0.8,0.4,1.4,0.6,1.9l0.3,0.6h9.6v-2.9L2948.5,617.1z"/>
	<g>
		<path class="st0" d="M3194.1,549.9V635h13.3v-77h12.3c0,0,8.9,0,12,4c2.6,3.4,3.1,9.6,3.1,13.7c0,4.5-0.3,11.3-1.8,13.9
			c-2.3,3.8-6,4.6-9.4,4.6h-8.1v7.5h11.7c0,0,10.5,0.5,15.1-4.2c5.6-5.7,7-13.2,7-23.4c0-9.2-3.4-18.5-10.2-21.7
			c-5.7-2.6-15.9-2.6-15.9-2.6H3194.1"/>
		<rect x="3259.7" y="549.9" class="st0" width="13.3" height="85.1"/>
		<polyline class="st0" points="3343.7,569.7 3368,633.5 3354,667.7 3365.1,667.7 3405.3,569.7 3392.9,569.7 3375.4,617.5 
			3359.1,569.7 3343.7,569.7 		"/>
		<path class="st0" d="M3415.3,634.5v-8c0,0,14.1,0.5,17,0.5c6.5,0,9.7-1.4,12.2-4c1.4-1.6,2.8-8.5,2.8-11c0-2.5-0.5-7.8-1.5-10
			c-1-2.2-3.2-4.2-6.6-4.5c-2.4-0.2-6.2-0.7-10.5-0.9c-6.2-0.3-10.2-3.5-12.2-5.8c-1.9-2.3-4.5-5.8-4.5-16.4
			c0-10.6,2.8-16.6,5.5-19.4c2.8-2.8,6.8-4,9.9-4.5c3.6-0.6,9.4-0.6,9.4-0.6l18.6,0.5v8c0,0-13.6-0.5-16.5-0.5
			c-6.5,0-8.4,1.4-10.9,4c-1.4,1.6-2.5,5.8-2.5,8.3c0,2.5,0.3,7.5,1.2,9.6c1,2.1,3.3,4.2,6.7,4.4c2.4,0.2,6.2,0.7,10.5,0.9
			c6.2,0.3,10.2,3.5,12.1,5.8c2,2.3,4.5,7.2,4.5,17.8c0,10.6-2.7,18.2-5.5,21c-2.8,2.8-6.8,4-9.9,4.5c-3.6,0.6-9.4,0.7-9.4,0.7
			L3415.3,634.5"/>
		<path class="st0" d="M3487.8,558h-13.3v62.5c0,0,0.3,5.7,0.6,7.7c0.3,2,3.3,6.8,10.9,6.8l13.8-0.3v-8c0,0-3.7,0.3-6,0.3
			c-2.3,0-5-0.1-5.5-4c-0.5-3.8-0.5-8.5-0.5-8.5v-36.8h15v-8h-15V558"/>
		<rect x="3616.1" y="569.7" class="st0" width="13.3" height="65.3"/>
		<rect x="3616.1" y="549.9" class="st0" width="13.3" height="11.9"/>
		<path class="st0" d="M3662.2,581.7c-1.8,2.2-4.1,7-4.1,20.7c0,13.7,2.2,18.4,4.1,20.7c1.8,2.2,5.2,3.7,9.5,3.7
			c4.3,0,7.7-1.5,9.5-3.7c1.8-2.2,4.1-7,4.1-20.7c0-13.7-2.2-18.4-4.1-20.7c-1.8-2.2-5.2-3.7-9.5-3.7
			C3667.4,578,3664.1,579.5,3662.2,581.7 M3671.3,569.2c9.1,0,16.1,2,19.8,5.1c3.8,3,8.5,9.5,8.5,28.1c0,18.6-4.7,25.1-8.5,28.1
			c-3.8,3-10.8,5.1-19.8,5.1c-9,0-16-2-19.8-5.1c-3.8-3.1-8.5-9.5-8.5-28.1c0-18.6,4.7-25.1,8.5-28.1
			C3655.3,571.2,3662.3,569.2,3671.3,569.2z"/>
		<path class="st0" d="M3727.2,578.9l13-0.5c3.4,0,7.4,0.9,9.4,3.4c1.8,2.3,3,5.1,3,9.6V635h13.3v-44.7c0-8.5-2.6-13.4-6.5-16.5
			c-5.6-4.4-15.6-4-15.6-4l-29.8,0.5V635h13.2V578.9"/>
		<path class="st0" d="M3589.6,558h-13.3v62.5c0,0,0.3,5.7,0.6,7.7c0.3,2,3.2,6.8,10.9,6.8l13.8-0.3v-8c0,0-3.7,0.3-6,0.3
			c-2.3,0-5-0.1-5.5-4c-0.5-3.8-0.5-8.5-0.5-8.5v-36.8h15v-8h-15V558"/>
		<path class="st0" d="M3323.4,591.3c0-4.5-1.1-7.2-3-9.6c-1.9-2.5-5.9-3.4-9.4-3.4l-17.5,0.5v-8.6l21.1-0.5c0,0,10-0.4,15.6,4
			c3.9,3.1,6.5,8,6.5,16.5v44.1l-25.5,0.5c0,0-11.5,0-17.3-2.3c-5.7-2.3-8.8-8.6-8.8-17.4c0-8.5,2.6-13.4,6.5-16.5
			c5.6-4.4,15.6-4,15.6-4h8.1v7.5h-4.6c-3.4,0-6.9,0.6-8.9,3.1c-1.8,2.3-2.8,4.3-2.8,8.8c0,5.8,1.1,8.5,3.9,10.5
			c2.4,1.8,6.8,2.1,11.7,2.1l8.8-0.5V591.3"/>
		<path class="st0" d="M3547.5,591.3c0-4.5-1.1-7.2-3-9.6c-2-2.5-6-3.4-9.4-3.4l-17.5,0.5v-8.6l21.1-0.5c0,0,10-0.4,15.6,4
			c3.9,3.1,6.5,8,6.5,16.5v44.1l-25.5,0.5c0,0-11.6,0-17.4-2.3c-5.7-2.3-8.8-8.6-8.8-17.4c0-8.5,2.6-13.4,6.5-16.5
			c5.6-4.4,15.6-4,15.6-4h8.1v7.5h-4.6c-3.4,0-6.9,0.6-8.9,3.1c-1.8,2.3-2.8,4.3-2.8,8.8c0,5.8,1.1,8.5,3.9,10.5
			c2.4,1.8,6.8,2.1,11.7,2.1l8.8-0.5V591.3"/>
		<path class="st3" d="M3445.7,325.5l-96.3-28.3c0,0-118.2,42.3-127.6,45.4c-9.4,3.2-22.3,8.3-22.3,8.3l92.4,29.7L3445.7,325.5"/>
		<path class="st3" d="M3444,429.4l-93.8-30.1l156.3-55.9l99.3,29.2c0,0-130.6,46.2-138.5,49.1C3459.4,424.5,3444,429.4,3444,429.4"
			/>
		<path class="st3" d="M3761.5,418.4l-95.2-28l-162.6,58.2l91.8,29.4c0,0,141.5-50.8,148.5-53.2
			C3750.9,422.5,3761.5,418.4,3761.5,418.4"/>
		<polyline class="st4" points="3595.5,478.1 3503.7,448.6 3412.4,481.3 3505.5,510.5 3595.5,478.1 		"/>
		<path class="st4" d="M3350.2,399.3l93.8,30.1c-104.7,34.5-183.1,22.1-231.3,8.7c-48.2-13.3-61.5-27.4-62.8-44.6
			c-1.3-17.1,24.9-32.3,49.7-42.6l92.4,29.7l-23.5,8.3c-10.3,3.5-31.1,13.8-13.8,21.9c18.5,8.7,53.3,4.1,72.2-3L3350.2,399.3"/>
		<polyline class="st5" points="3445.7,325.5 3349.5,297.3 3398.5,280 3493.7,308.5 3445.7,325.5 		"/>
		<path class="st5" d="M3605.8,372.6l-99.3-29.2c45.4-17.4,81-26.6,132.4-28.2c56.8-1.7,100.3,11.8,115.3,16.5
			c31.6,9.8,55.4,22.8,57.4,40.3c2.7,22.9-30.8,39.4-50.1,46.3l-95.2-28c0,0,23.3-8.2,32.5-11.4c9.2-3.2,18.7-9.5,16.8-15.2
			c-1.9-5.7-13.3-8.3-16.2-8.7c-5.7-0.8-15.7-2.2-33-0.6c-14.1,1.3-24.4,5.2-24.4,5.2L3605.8,372.6"/>
		<path class="st6" d="M3396.9,0v476.8l107.9,34.2V111.1c0-18.7,8.4-31.3,21.9-27c17.6,4.9,21,22.2,21,40.9v159.7
			c67.3,32.5,120.2,0,120.2-85.8c0-87.9-31-127-122.3-158.3C3509.6,28.6,3442.8,8.5,3396.9,0"/>
		<path class="st0" d="M3804.6,615.8c0-4.2,1.6-8.1,4.6-11.1c3-2.9,6.9-4.6,11.1-4.6c4.2,0,8.1,1.6,11,4.6c2.9,3,4.6,6.9,4.6,11.1
			c0,8.6-7,15.6-15.6,15.6c-4.2,0-8.1-1.6-11.1-4.6C3806.2,623.9,3804.6,620,3804.6,615.8 M3820.2,634.6c5,0,9.7-2,13.3-5.5
			c3.6-3.5,5.5-8.3,5.5-13.3s-2-9.7-5.5-13.3c-3.5-3.5-8.3-5.5-13.3-5.5c-10.4,0-18.8,8.4-18.8,18.8c0,5,2,9.7,5.5,13.3
			C3810.5,632.7,3815.2,634.6,3820.2,634.6z"/>
		<path class="st0" d="M3825.3,611.1c0,1.2-0.3,1.9-0.9,2.4c-0.7,0.4-1.6,0.7-2.7,0.7h-5.8v-5.9h6.2c0.8,0,1.5,0.1,2,0.4
			C3824.9,609,3825.3,609.9,3825.3,611.1 M3829.5,624.6c-0.3-0.1-0.5-0.4-0.6-0.9c-0.1-0.3-0.1-0.9-0.2-1.6l-0.1-2.7
			c0-1.3-0.3-2.2-0.8-2.8c-0.3-0.4-0.7-0.7-1.3-1c0.6-0.4,1.2-0.9,1.6-1.5c0.5-0.8,0.8-1.9,0.8-3.2c0-2.5-1-4.2-3.1-5.1
			c-1-0.5-2.4-0.7-4-0.7h-9.7v20.9h3.6v-8.6h5.7c1,0,1.8,0.1,2.2,0.3c0.8,0.4,1.1,1.1,1.2,2.2l0.2,3.3c0,0.8,0.1,1.3,0.1,1.6
			c0.1,0.3,0.1,0.6,0.3,0.8l0.1,0.2h4.1v-1.2L3829.5,624.6z"/>
	</g>
</g>
</svg>
