<?xml version="1.0" encoding="utf-8"?>
<!-- Generator: Adobe Illustrator 26.0.3, SVG Export Plug-In . SVG Version: 6.00 Build 0)  -->
<svg version="1.1" id="Layer_1" xmlns="http://www.w3.org/2000/svg" xmlns:xlink="http://www.w3.org/1999/xlink" x="0px" y="0px"
	 viewBox="0 0 3839 1118.9" style="enable-background:new 0 0 3839 1118.9;" xml:space="preserve">
<style type="text/css">
	.st0{fill:#FFFFFF;}
	.st1{fill:none;stroke:#000000;stroke-width:1.8955;stroke-linecap:round;stroke-linejoin:round;}
	.st2{fill:none;stroke:#000000;stroke-width:3.7964;stroke-linecap:round;stroke-linejoin:round;}
	.st3{fill:none;stroke:#000000;stroke-width:2.5452;stroke-linecap:round;stroke-linejoin:round;}
	.st4{fill:none;stroke:#000000;stroke-width:1.2726;stroke-linecap:round;stroke-linejoin:round;}
	.st5{clip-path:url(#SVGID_00000109711291671215815120000014464611177613524159_);}
	
		.st6{clip-path:url(#SVGID_00000109711291671215815120000014464611177613524159_);fill:none;stroke:#000000;stroke-width:5.3589;stroke-linecap:round;stroke-linejoin:round;}
	
		.st7{clip-path:url(#SVGID_00000021826205727807107630000015079802876431812009_);fill:none;stroke:#000000;stroke-width:3.7964;stroke-linecap:round;stroke-linejoin:round;}
	.st8{fill:none;stroke:#000000;stroke-width:2.9587;stroke-linecap:round;stroke-linejoin:round;}
	.st9{fill:none;stroke:#000000;stroke-width:1.3961;stroke-linecap:round;stroke-linejoin:round;}
	.st10{fill:none;stroke:#231F20;stroke-width:1.3961;stroke-linecap:round;stroke-linejoin:round;}
	.st11{fill:none;stroke:#231F20;stroke-width:2.7922;stroke-linecap:round;stroke-linejoin:round;}
	.st12{fill:none;stroke:#231F20;stroke-width:2.0727;stroke-linecap:round;stroke-linejoin:round;stroke-miterlimit:3.864;}
	.st13{fill:none;stroke:#000000;stroke-width:2.5774;stroke-linecap:round;stroke-linejoin:round;}
	.st14{fill:none;stroke:#231F20;stroke-width:1.337;stroke-linecap:round;stroke-linejoin:round;stroke-miterlimit:3.864;}
	.st15{fill:none;stroke:#000000;stroke-width:3.4796;}
	.st16{fill:#231F20;}
	.st17{fill:none;stroke:#231F20;stroke-width:3.3507;stroke-linecap:round;stroke-linejoin:round;stroke-miterlimit:3.864;}
	.st18{fill:none;stroke:#231F20;stroke-width:2.2338;stroke-linecap:round;stroke-linejoin:round;stroke-miterlimit:3.864;}
	.st19{fill:none;stroke:#231F20;stroke-width:1.6753;stroke-linecap:round;stroke-linejoin:round;stroke-miterlimit:3.864;}
	.st20{fill:none;stroke:#231F20;stroke-width:2.2338;stroke-linecap:round;stroke-linejoin:round;}
	.st21{fill:none;stroke:#231F20;stroke-width:3.3507;stroke-linecap:round;stroke-linejoin:round;}
	.st22{fill:none;stroke:#231F20;stroke-width:1.6753;stroke-linecap:round;stroke-linejoin:round;}
	.st23{fill:none;stroke:#231F20;stroke-width:3.2218;stroke-linecap:round;stroke-linejoin:round;}
	.st24{fill:none;stroke:#000000;stroke-width:4.1239;stroke-linecap:round;}
	.st25{fill:none;stroke:#000000;stroke-width:2.062;stroke-linecap:round;}
	.st26{fill:none;stroke:#000000;stroke-width:3.0929;stroke-linecap:round;}
	
		.st27{clip-path:url(#SVGID_00000038390700924665961500000017965703585871064992_);fill:none;stroke:#000000;stroke-width:2.062;stroke-linecap:round;}
	
		.st28{clip-path:url(#SVGID_00000038390700924665961500000017965703585871064992_);fill:none;stroke:#000000;stroke-width:4.1239;stroke-linecap:round;}
	.st29{fill:none;stroke:#000000;stroke-width:11.432;}
	.st30{fill:none;stroke:#FFFFFF;stroke-width:7.3511;}
	.st31{fill:none;stroke:#231F20;stroke-width:2.1479;stroke-linecap:round;stroke-linejoin:round;}
	.st32{fill:none;stroke:#231F20;stroke-width:1.2887;stroke-linecap:round;stroke-linejoin:round;}
	.st33{fill:none;stroke:#000000;stroke-width:12.0334;stroke-linecap:round;}
	.st34{fill:none;stroke:#FFFFFF;stroke-width:7.7377;stroke-linecap:round;}
	.st35{fill:none;stroke:#000000;stroke-width:3.0929;}
	.st36{fill:none;stroke:#000000;stroke-width:2.062;}
	.st37{fill:none;stroke:#000000;stroke-width:1.031;}
	.st38{fill:none;stroke:#000000;stroke-width:1.3424;stroke-linecap:round;stroke-linejoin:round;}
	.st39{fill:none;stroke:#000000;stroke-width:1.7183;stroke-linecap:round;stroke-linejoin:round;}
	.st40{fill:none;stroke:#000000;stroke-width:0.8591;stroke-linecap:round;stroke-linejoin:round;}
	.st41{fill:none;stroke:#000000;stroke-width:1.2082;}
	.st42{fill:none;stroke:#000000;stroke-width:0.8645;stroke-linecap:round;stroke-linejoin:round;}
	.st43{fill:#00AD9C;}
	.st44{fill:#FBB817;}
	.st45{fill:#0174BA;}
	.st46{fill:#EB2027;}
	.st47{fill-rule:evenodd;clip-rule:evenodd;}
	.st48{fill-rule:evenodd;clip-rule:evenodd;fill:#FFFFFF;}
</style>
<g>
	<path d="M3336.2,855.2c-0.2-0.3-0.2-0.7-0.5-1.3"/>
	<path class="st0" d="M424.3,694.3C275,694.3,153.8,573,153.8,424.4c0-149.1,121.3-270.5,270.5-270.5
		c149.1,0,270.3,121.3,270.3,270.5C694.5,573,573.4,694.3,424.3,694.3 M424.3,0C190.9,0,1.6,191.6,0,424.7c0,0,0,608.8,0,637.9
		c0,35.7,28,56.1,74.9,56.1c51.2,0,79-18.8,78.8-55.9c0-19.4,0-283.1,0-283.1l-3.4-35.1c5.8,4.9,15.2,15.4,21,20
		c70.8,52.7,158.1,84.1,252.9,84.1c233.9,0,424.1-190,424.1-424.3C848.4,190.5,658.1,0,424.3,0z"/>
	<path class="st0" d="M3348.9,855.4h420.3c33.4,0.8,70.4-19.6,69.8-62.5c-4.2-175.3-146.2-317.4-321.9-317.4
		c-177.5,0-322.1,144.1-322.1,322.5c0,176.8,144.6,320.3,322.1,321c164.1,0.7,236.3-64.7,276.4-131.9c9.1-18.5,14.6-49.8-16-71.9
		c-35.1-24.8-72.1-13.9-92.9,9c-46.2,50.2-87.6,67.7-168,66.4c-77.3-0.6-144.5-49.3-174.1-116.3c-0.9-2.5-1.9-5-2.9-7.2
		c-1.4-3.7-5.4-8.6-6.7-12.4L3348.9,855.4 M3336,855.8c0-0.5-0.3-0.6-0.3-1.3 M3350.6,735.2l-13.1,1.2c0-0.7,5.3-11.4,7.3-14.6
		c29.3-67.1,86-113,174.4-114.4c91.1-1.4,155.6,51.4,173.6,113.5c1.9,3.9,4.4,11,5.8,15.1l-12.2-0.8H3350.6z"/>
	<path class="st0" d="M1447.8,279.3c53.8,0,69.9-30,68.6-51.6C1507.2,90.1,1382.7,0,1214.5,0.6c-88.4,0.3-167.3,30.7-222.2,86
		c-54.2,54.2-82.6,128.9-82.3,215.3c0.9,152.1,110.5,283.8,294.8,302.6c169.1,18.5,233.9,81.9,233.9,178.4
		c0,129.7-91.3,182.5-226.5,182c-125.5-0.1-209.9-74.9-214.8-186.7c0,0-1.6-39.3-46.5-48.4c-27.6-5.8-51.7-4.1-72,2.2
		c-38.9,11.6-37.7,48.7-37.7,48.7c2.9,189.8,137.1,337.6,371,338.1c217.9,0.5,377.8-115.7,378.1-339c0.4-217.7-137-300-369.2-331.2
		c-103.7-14-156.9-69.7-157.2-147.7c-0.1-44.7,12.4-80.7,37.2-105.5c26-26.3,66.4-40.2,113.3-40.9c86.6-0.4,131.1,35.5,144.4,72.7
		C1364.6,243.5,1376.6,279.3,1447.8,279.3"/>
	<path class="st0" d="M1931.2,797.5c0-105.6,85.1-191.2,190.5-191.2c105.3,0,190.5,85.6,190.5,191.2c0,104.5-85.2,190.5-190.5,190.5
		C2016.3,988,1931.2,902,1931.2,797.5 M2121.7,1118.6c177,0,321.7-144,321.7-321.1c0-178-144.7-322.4-321.7-322.4
		c-177.4,0-321.8,144.4-321.8,322.4C1799.9,974.7,1944.3,1118.6,2121.7,1118.6z"/>
	<path class="st0" d="M2564.5,1118.2c38.5,0,65.4-18.4,65.4-51.7c0-21.3,0-268.6,0-268.6c0-105.9,85.4-191.6,190.2-191.6
		c105.8,0,191.1,85.6,191.1,191.6v268.8c0,31.5,26.4,51.4,64.6,51.4c41,0,66.1-19.1,66.1-51.4c0-5.3,0-268.8,0-268.8
		c0-178.3-144.1-322.7-321.8-322.7c-177,0-321.1,144.4-321.1,322.7c0,0,0,249.1,0,268.8C2499.1,1099.6,2523.2,1118.2,2564.5,1118.2"
		/>
</g>
</svg>
