<?xml version="1.0" encoding="utf-8"?>
<!-- Generator: Adobe Illustrator 26.0.2, SVG Export Plug-In . SVG Version: 6.00 Build 0)  -->
<svg version="1.1" xmlns="http://www.w3.org/2000/svg" xmlns:xlink="http://www.w3.org/1999/xlink" x="0px" y="0px"
	 viewBox="0 0 3839 136" style="enable-background:new 0 0 3839 136;" xml:space="preserve">
<style type="text/css">
	.st0{display:none;}
	.st1{display:inline;}
	.st2{fill:#2511ED;}
	.st3{fill:url(#SVGID_1_);}
	.st4{fill:url(#SVGID_00000003807481022325506200000001910345337752746114_);}
	.st5{fill:url(#SVGID_00000101093030079741453420000007994686474256040347_);}
	.st6{fill:url(#SVGID_00000097460283792637280770000003206838999237367683_);}
	.st7{fill:url(#SVGID_00000019661580651576101120000008445348111915590807_);}
	.st8{fill:url(#SVGID_00000163788371213062799900000006672603328295086517_);}
	.st9{fill:url(#SVGID_00000067205642903684836040000018270276189755933097_);}
	.st10{fill:url(#SVGID_00000018934830807872531580000000312350395432961172_);}
	.st11{fill:url(#SVGID_00000134951762353053293030000014463217281144212633_);}
	.st12{fill:url(#SVGID_00000084515485451013595580000015991665862725966980_);}
	.st13{fill:url(#SVGID_00000034079176879067227300000010665102335893031045_);}
	.st14{fill:url(#SVGID_00000018938337185108235590000007702676425260149135_);}
	.st15{fill:url(#SVGID_00000026866124637982648530000017130614564103078812_);}
	.st16{fill:url(#SVGID_00000075846833705740890120000013936014911525001378_);}
	.st17{fill:url(#SVGID_00000123422752498406119150000013131543725695463063_);}
	.st18{fill:url(#SVGID_00000173841114508523871030000001633474744686525094_);}
	.st19{fill:url(#SVGID_00000124843353435506721510000004847171609169576329_);}
	.st20{fill:url(#SVGID_00000159464115329262293250000003338823436733259656_);}
	.st21{fill:url(#SVGID_00000062877620616026946930000002778602549981043384_);}
	.st22{fill:url(#SVGID_00000048469409392493870430000012488797491587973760_);}
	.st23{fill:url(#SVGID_00000034783197433398163520000016704438683045437858_);}
	.st24{fill:url(#SVGID_00000034088070639349607670000001751103977076632470_);}
	.st25{fill:url(#SVGID_00000146463699585701068460000002801749444940864686_);}
	.st26{fill:url(#SVGID_00000012436835296010032840000008510780799031400364_);}
	.st27{fill:url(#SVGID_00000040572772460653575100000010994407433150640275_);}
	.st28{fill:url(#SVGID_00000052066327599267721740000001293998155711406983_);}
	.st29{fill:url(#SVGID_00000076592183616480680390000018163339227131251861_);}
	.st30{fill:url(#SVGID_00000155136945889885125550000005319177228580823486_);}
	.st31{fill:url(#SVGID_00000031201789168396842930000001579066572486640803_);}
	.st32{fill:url(#SVGID_00000173857225003191076730000001117837817235546241_);}
	.st33{fill:url(#SVGID_00000017515037172480003690000006722371962465873810_);}
	.st34{fill:url(#SVGID_00000008145489599518022030000008401051342415691187_);}
	.st35{fill:url(#SVGID_00000089546697850504399670000002985558489548795283_);}
	.st36{fill:url(#SVGID_00000152225481698957022660000003069079188547008656_);}
	.st37{fill:url(#SVGID_00000087387959243289675210000010551111700784437924_);}
	.st38{fill:url(#SVGID_00000119094924354707266970000016332837711436593052_);}
	.st39{fill:url(#SVGID_00000117664881797005464100000000102608514500517797_);}
	.st40{fill:url(#SVGID_00000064351881132310126990000009416295133539876497_);}
	.st41{fill:url(#SVGID_00000131348125161894596940000003477530135636827837_);}
	.st42{fill:url(#SVGID_00000047023973256063445390000017872885647378146190_);}
	.st43{fill:url(#SVGID_00000001639768350510339440000016812680021175569083_);}
	.st44{fill:url(#SVGID_00000007398960785272297100000013437153987100061608_);}
	.st45{fill:url(#SVGID_00000059285558776375763990000001780660773063901869_);}
	.st46{fill:url(#SVGID_00000134229582580030517850000009529583770937551232_);}
	.st47{fill:url(#SVGID_00000129181840335159438320000013431864289775600792_);}
	.st48{fill:url(#SVGID_00000034082445867384917660000016842311257741285552_);}
	.st49{fill:url(#SVGID_00000145042626865916457100000008329914076156940429_);}
	.st50{fill:url(#SVGID_00000075863804258634964590000009234277898585414332_);}
	.st51{fill:url(#SVGID_00000141455523921609296880000013592351641751148699_);}
	.st52{fill:url(#SVGID_00000064326154423686304590000005213684212520706442_);}
	.st53{fill:url(#SVGID_00000138542912342559087130000002380397103511965348_);}
	.st54{fill:url(#SVGID_00000176765805463357838770000001871204417515450546_);}
	.st55{fill:url(#SVGID_00000002386314759127307440000010908333348853813661_);}
	.st56{fill:url(#SVGID_00000042704226237279786820000001161969295383568790_);}
	.st57{fill:url(#SVGID_00000041297779934389899460000018211870828386485121_);}
	.st58{fill:url(#SVGID_00000010291942824721669460000009952346118566785722_);}
	.st59{fill:url(#SVGID_00000144336078006320154890000001298013326863946919_);}
	.st60{fill:url(#SVGID_00000164502454701184185620000015971007426200223154_);}
	.st61{fill:url(#SVGID_00000079464958791504761250000014691580806079859617_);}
	.st62{fill:url(#SVGID_00000179629084519971438200000005209586387960327088_);}
	.st63{fill:url(#SVGID_00000072986918789965614600000018237340495480394655_);}
	.st64{fill:url(#SVGID_00000074423394136540003980000005884679101694239127_);}
	.st65{fill:url(#SVGID_00000052811365733032984150000003668967115592242597_);}
	.st66{fill:url(#SVGID_00000109017740399795384660000003982764520562079392_);}
	.st67{fill:url(#SVGID_00000084505042052956949560000006641063690514434195_);}
	.st68{fill:url(#SVGID_00000074415557156243254760000007823105716072156301_);}
	.st69{fill:url(#SVGID_00000084516698582426294710000000914057451633587344_);}
	.st70{fill:url(#SVGID_00000073719397921789781900000002069528676673012661_);}
	.st71{fill:url(#SVGID_00000028283381747161882010000013667360064665228185_);}
	.st72{fill:url(#SVGID_00000017515882144239386100000015238888113462387613_);}
	.st73{fill:url(#SVGID_00000091709352826059805300000000886000701692482994_);}
	.st74{fill:url(#SVGID_00000167396257991288829080000015855596639336913069_);}
	.st75{fill:#FFFFFF;}
	.st76{fill:url(#SVGID_00000106127804942115891720000008568633698478267054_);}
	.st77{fill:url(#SVGID_00000097496571825475608120000005196848014167882372_);}
	.st78{fill:url(#SVGID_00000177445304975654517750000004528772535585562774_);}
	.st79{fill:url(#SVGID_00000124847547835297493680000015170875107813866162_);}
	.st80{fill:url(#SVGID_00000047769985861524780170000014829110272620010920_);}
	.st81{fill:url(#SVGID_00000142869863564410037980000014416676140853172156_);}
	.st82{fill:url(#SVGID_00000043432089550359865400000015891368043912115626_);}
	.st83{fill:url(#SVGID_00000095299826699402397720000008510361320095011981_);}
	.st84{fill:url(#SVGID_00000089542886770716131870000004079056226372891056_);}
	.st85{fill:url(#SVGID_00000067209902394003524910000009608564748023571888_);}
	.st86{fill:url(#SVGID_00000133488144030067547270000010358371438746933141_);}
	.st87{fill:url(#SVGID_00000047044703846417451700000015140068553458015116_);}
	.st88{fill:url(#SVGID_00000152261893884586536510000015623148580544736443_);}
	.st89{fill:url(#SVGID_00000029020463603271658510000016221712183910468504_);}
	.st90{fill:url(#SVGID_00000127019710201934017600000014178776099659072679_);}
	.st91{fill:url(#SVGID_00000015341603218239471840000015188115916620914868_);}
	.st92{fill:url(#SVGID_00000178190656252086514950000002234917332658233741_);}
	.st93{fill:url(#SVGID_00000160154823635575913350000010503329501293457561_);}
	.st94{fill:url(#SVGID_00000080187750078216798540000017342570351897951908_);}
	.st95{fill:url(#SVGID_00000153672662368152319280000010353126193910882725_);}
	.st96{fill:url(#SVGID_00000089553933667865238410000002006069894477714572_);}
	.st97{fill:url(#SVGID_00000033334960090277878530000016699184858864988314_);}
	.st98{fill:url(#SVGID_00000104708245398142766800000006858978958532484501_);}
	.st99{fill:url(#SVGID_00000145740103088059697310000012099720673080532141_);}
	.st100{fill-rule:evenodd;clip-rule:evenodd;}
	.st101{fill-rule:evenodd;clip-rule:evenodd;fill:#FFFFFF;}
	.st102{fill:url(#SVGID_00000169530874064540099680000000461630334792342205_);}
	.st103{fill:url(#SVGID_00000134220121763779437370000010218324574396252076_);}
	.st104{fill:url(#SVGID_00000108998720401861580280000010938733382286837429_);}
	.st105{fill:url(#SVGID_00000131341090784075515520000018003253611161573022_);}
	.st106{fill:url(#SVGID_00000166646386702959030770000000920625331991300260_);}
	.st107{fill:url(#SVGID_00000016760209060453752740000016530320567389909125_);}
	.st108{fill:url(#SVGID_00000137129292790580331300000015644488308600303254_);}
	.st109{fill:url(#SVGID_00000176756598107024806050000005802446436671997060_);}
	.st110{fill:url(#SVGID_00000163760613493788871220000015858275734465882271_);}
	.st111{fill:url(#SVGID_00000044153988427588630900000015505091337282231191_);}
	.st112{fill:url(#SVGID_00000108310334357344388210000015566610334492908678_);}
	.st113{fill:url(#SVGID_00000065753071333120992060000010630454901339641777_);}
	.st114{fill:url(#SVGID_00000141431376288993620780000008087592314137602495_);}
	.st115{fill:url(#SVGID_00000056404707040839933370000012338417524828758705_);}
	.st116{fill:url(#SVGID_00000160157764188252860740000000157790402622184347_);}
	.st117{fill:url(#SVGID_00000120544218434772972770000011391042099286251663_);}
	.st118{fill:url(#SVGID_00000039816596422748551920000004915897982974763186_);}
	.st119{fill:url(#SVGID_00000016034429217930288580000000540629989973930939_);}
	.st120{fill:url(#SVGID_00000033355555083567908420000005519535570890526357_);}
	.st121{fill:url(#SVGID_00000127729720846979023970000007248624216162197382_);}
	.st122{fill:url(#SVGID_00000088812295491526564250000005834416985378309039_);}
	.st123{fill:url(#SVGID_00000088131085038108209030000008280188436642152632_);}
	.st124{fill:url(#SVGID_00000053529505124633226530000006861282227312091042_);}
	.st125{fill:url(#SVGID_00000010290484765376956790000001932284266453717138_);}
	.st126{fill:url(#SVGID_00000119085260363035542620000001517232055602865832_);}
	.st127{fill:url(#SVGID_00000139275767156779010370000009313069605293912483_);}
	.st128{fill:url(#SVGID_00000040557289504429951940000000161420623764715150_);}
	.st129{fill:url(#SVGID_00000157279189223930805220000016291916837745564850_);}
	.st130{fill:url(#SVGID_00000001637041235678218970000010948391416093555095_);}
	.st131{fill:url(#SVGID_00000168078069616339940730000015361187144632833941_);}
	.st132{fill:url(#SVGID_00000152231466681552712750000007165411029392672400_);}
	.st133{fill:url(#SVGID_00000152264842714011450000000012124379019999558546_);}
	.st134{fill:url(#SVGID_00000132075358243536218680000013082787275398794632_);}
	.st135{fill:url(#SVGID_00000146462327495472794460000001684833863133984132_);}
	.st136{fill:url(#SVGID_00000181058657255686087250000000199486543386380704_);}
	.st137{fill:url(#SVGID_00000071529608003554813440000007948902207307477163_);}
	.st138{fill:url(#SVGID_00000053526001258755236290000015716752579040481417_);}
	.st139{fill:url(#SVGID_00000069361471814138015060000011084949304770448560_);}
	.st140{fill:url(#SVGID_00000090271659891359277000000002117471953732111281_);}
	.st141{fill:url(#SVGID_00000098941177412620750520000006519033927439377592_);}
	.st142{fill:url(#SVGID_00000039813773224917413370000006543395313803028116_);}
	.st143{fill:url(#SVGID_00000041984915395703056990000013001449331388348824_);}
	.st144{fill:url(#SVGID_00000101821817115964531030000011093215248328761492_);}
	.st145{fill:url(#SVGID_00000145756431347033277250000013903655979075716793_);}
	.st146{fill:url(#SVGID_00000097474368907232588220000003581153720301654665_);}
	.st147{fill:url(#SVGID_00000020357371027861994740000012765942360372883104_);}
	.st148{fill:url(#SVGID_00000065782693436839443100000012931438203189576593_);}
	.st149{fill:url(#SVGID_00000014605549524831402490000009353998402148244886_);}
	.st150{fill:url(#SVGID_00000103246049174021980080000018396983537608681628_);}
	.st151{fill:url(#SVGID_00000101088868051707640380000006415743431252233888_);}
	.st152{fill:url(#SVGID_00000024696279768390305990000013728396147246402236_);}
	.st153{fill:url(#SVGID_00000056403547661209199260000007446119011982486417_);}
	.st154{fill:url(#SVGID_00000031182417263343376810000009129716597493208725_);}
	.st155{fill:url(#SVGID_00000176741692569517205680000003254877676821446563_);}
	.st156{fill:url(#SVGID_00000143578643547575747740000002458549177565036457_);}
	.st157{fill:url(#SVGID_00000177466311257575750700000008932988942999131568_);}
	.st158{fill:url(#SVGID_00000107561095919135496160000013926557328132183720_);}
	.st159{fill:url(#SVGID_00000114034981929965868690000013416044760870759052_);}
	.st160{fill:url(#SVGID_00000128456133908032563790000010607893025694495377_);}
	.st161{fill:url(#SVGID_00000013180667564083352620000018023462750911455639_);}
	.st162{fill:url(#SVGID_00000066485261961042645060000005304828798732454048_);}
	.st163{fill:url(#SVGID_00000067196874871745161940000012750870103536791703_);}
	.st164{fill:url(#SVGID_00000112621369651214367080000014486642924090391742_);}
	.st165{fill:url(#SVGID_00000127005937176065006880000008370307245221398701_);}
	.st166{fill:url(#SVGID_00000117647257999450001150000011920038197601280398_);}
	.st167{fill:url(#SVGID_00000008854611885268122240000017988442775834656130_);}
	.st168{fill:url(#SVGID_00000026847463693743780070000012784186921360791681_);}
	.st169{fill:url(#SVGID_00000178913304994591108250000012609451920984487830_);}
	.st170{fill:url(#SVGID_00000036230732878641916540000013943323520646149766_);}
	.st171{fill:url(#SVGID_00000067232299999950147670000009292043081060410514_);}
	.st172{fill:url(#SVGID_00000098935928330210565500000009075087098678436002_);}
	.st173{fill:url(#SVGID_00000017513441139052727510000017172727795489533603_);}
	.st174{fill:url(#SVGID_00000124845473607403392930000013755412169432008614_);}
	.st175{fill:url(#SVGID_00000149368182478475650560000002784866957501300639_);}
	.st176{fill:url(#SVGID_00000104708484512180170870000013053188825585640885_);}
	.st177{fill:url(#SVGID_00000120540161775469630030000010633473407097163148_);}
	.st178{fill:url(#SVGID_00000075852835994442467760000014271120035037141913_);}
	.st179{fill:url(#SVGID_00000074406812539851065380000015477230593134093458_);}
	.st180{fill:url(#SVGID_00000000199920543013436170000001573739244691381666_);}
	.st181{fill:url(#SVGID_00000034794316635396941240000017043252180673000350_);}
	.st182{fill:url(#SVGID_00000163777027757570921550000003176788507556572315_);}
	.st183{fill:url(#SVGID_00000178917905830762352470000009932558775834066093_);}
	.st184{fill:url(#SVGID_00000081615812127527035800000010275847716720598701_);}
	.st185{fill:url(#SVGID_00000168817712573692988120000011797003400429513625_);}
	.st186{fill:url(#SVGID_00000121275706666695153490000011364889903116042624_);}
	.st187{fill:url(#SVGID_00000118380458879834639090000010062450220574695298_);}
	.st188{fill:url(#SVGID_00000140723559207272591810000017862423767393971900_);}
	.st189{fill:url(#SVGID_00000179632310995856060610000002498111068162878652_);}
	.st190{fill:url(#SVGID_00000042702363121594202750000003213791845792147634_);}
	.st191{fill:url(#SVGID_00000019666585669560120950000010431021192370681517_);}
	.st192{fill:url(#SVGID_00000045584095482680124350000012582249854717918624_);}
	.st193{fill:url(#SVGID_00000057113887917885161120000014521014392275108780_);}
	.st194{fill:url(#SVGID_00000113315894213002935990000008257555946121610126_);}
	.st195{fill:url(#SVGID_00000090280809903299901410000006631966892516800958_);}
	.st196{fill:url(#SVGID_00000092432147698573808300000001729742363838683829_);}
	.st197{fill:url(#SVGID_00000064338106022628887190000007858898475883636881_);}
</style>
<g id="Not_Conjoined" class="st0">
	<g class="st1">
		<g>
			<polygon class="st75" points="900.6,82.4 681,82.4 690.2,57.2 909.8,57.2 			"/>
			<g>
				<polygon class="st75" points="273.3,23 225.1,23 206.6,74 254.7,74 				"/>
				<polygon class="st75" points="89.3,23 41.1,23 0,136 48.2,136 				"/>
			</g>
			<path class="st75" d="M30.3,52.6l-9.2,25.3c75.1,6,152.7,6,232.2,0l9.2-25.3C183,58.7,105.4,58.7,30.3,52.6z"/>
			<path class="st75" d="M278.3,9.2C197,3.5,113.2,3.9,27.5,10.5c-2.4,8.4-4.8,16.8-7.2,25.2c85-6.5,168.2-6.8,248.8-1.1L278.3,9.2z
				"/>
			<polygon class="st75" points="433,5.2 384.8,5.2 342.1,122.6 390.2,122.6 			"/>
			<polygon class="st75" points="753.4,16 705.2,16 661.6,136 709.7,136 			"/>
			<polygon class="st75" points="929.3,16 881.1,16 837.5,136 885.6,136 			"/>
			<g>
				<path class="st75" d="M707.6,9.6l-9.2,25.3c76.7-5.9,151.6-5.9,224.1,0l9.2-25.3C859.1,3.8,784.2,3.8,707.6,9.6z"/>
			</g>
			<polygon class="st75" points="2222.1,82.4 2002.5,82.4 2011.7,57.2 2231.3,57.2 			"/>
			<polygon class="st75" points="2074.9,16 2026.7,16 1983.1,136 2031.2,136 			"/>
			<polygon class="st75" points="2250.8,16 2202.6,16 2159,136 2207.1,136 			"/>
			<g>
				<path class="st75" d="M2029,9.6l-9.2,25.3c76.7-5.9,151.6-5.9,224.1,0l9.2-25.3C2180.6,3.8,2105.7,3.8,2029,9.6z"/>
			</g>
			<polygon class="st75" points="2482.8,16 2434.7,16 2391,136 2439.2,136 			"/>
			<polygon class="st75" points="2716.6,5.3 2668.7,5.3 2620.9,136 2669,136 			"/>
			<g>
				<path class="st75" d="M2343.9,9.8l-9.2,25.3c80.2-6.1,158.6-6.1,234.4,0l9.2-25.3C2502.4,3.7,2424.1,3.7,2343.9,9.8z"/>
			</g>
			<polygon class="st75" points="1845.1,16 1797,16 1753.3,136 1801.5,136 			"/>
			<g>
				<path class="st75" d="M1706.2,9.8l-9.2,25.3c80.2-6.1,158.6-6.1,234.4,0l9.2-25.3C1864.7,3.7,1786.4,3.7,1706.2,9.8z"/>
			</g>
			<polygon class="st75" points="3800.2,82.4 3626.1,82.4 3635.2,57.2 3809.4,57.2 			"/>
			<polygon class="st75" points="3836.7,16 3788.6,16 3748.6,125.8 3796.8,125.8 			"/>
			<g>
				<path class="st75" d="M3604.6,9.8l-9.2,25.3c80.2-6.1,158.6-6.1,234.4,0l9.2-25.3C3763.2,3.7,3684.8,3.7,3604.6,9.8z"/>
			</g>
			<g>
				<path class="st75" d="M3794.7,131.4l9.2-25.3c-80.2,6.1-158.6,6.1-234.4,0l-9.2,25.3C3636.2,137.5,3714.5,137.5,3794.7,131.4z"
					/>
			</g>
			<g>
				<path class="st75" d="M573.2,131.4l9.2-25.3c-80.2,6.1-158.6,6.1-234.4,0l-9.2,25.3C414.7,137.5,493,137.5,573.2,131.4z"/>
			</g>
			<polygon class="st75" points="1573.2,82.4 1370.1,82.4 1379.3,57.2 1582.4,57.2 			"/>
			<g>
				<polygon class="st75" points="1423.6,16 1375.4,16 1351.2,82.4 1399.4,82.4 				"/>
				<polygon class="st75" points="1594.8,57.2 1546.6,57.2 1521.7,125.8 1569.8,125.8 				"/>
			</g>
			<g>
				<path class="st75" d="M1377.7,9.8l-9.2,25.3c80.2-6.1,158.6-6.1,234.4,0l9.2-25.3C1536.2,3.7,1457.9,3.7,1377.7,9.8z"/>
			</g>
			<g>
				<path class="st75" d="M1567.8,131.4l9.2-25.3c-80.2,6.1-158.6,6.1-234.4,0l-9.2,25.3C1409.2,137.5,1487.6,137.5,1567.8,131.4z"
					/>
			</g>
			<g>
				<path class="st75" d="M1249.1,77.9l9.2-25.3c-80.2,6.1-158.6,6.1-234.4,0l-9.2,25.3C1090.5,84,1168.9,84,1249.1,77.9z"/>
			</g>
			<polygon class="st75" points="1169.2,41.7 1121,41.7 1086.7,136 1134.8,136 			"/>
			<g>
				<polygon class="st75" points="1089.3,5.3 1041.1,5.3 1017.2,71.2 1065.3,71.2 				"/>
				<polygon class="st75" points="1275.5,5.3 1227.4,5.3 1203.4,71.2 1251.5,71.2 				"/>
			</g>
			<polygon class="st75" points="2871.8,16 2823.7,16 2783.7,125.8 2831.9,125.8 			"/>
			<polygon class="st75" points="3058,16 3009.9,16 2969.9,125.8 3018.1,125.8 			"/>
			<g>
				<path class="st75" d="M2826,9.8l-9.2,25.3c80.2-6.1,158.6-6.1,234.4,0l9.2-25.3C2984.5,3.7,2906.2,3.7,2826,9.8z"/>
			</g>
			<g>
				<path class="st75" d="M3016,131.4l9.2-25.3c-80.2,6.1-158.6,6.1-234.4,0l-9.2,25.3C2857.5,137.5,2935.8,137.5,3016,131.4z"/>
			</g>
			<polygon class="st75" points="3222.5,0 3174.4,0 3124.9,136 3173,136 			"/>
			<polygon class="st75" points="3402.9,16 3354.8,16 3311.1,136 3359.3,136 			"/>
			<g>
				<path class="st75" d="M3170.8,9.8l-9.2,25.3c80.2-6.1,158.6-6.1,234.4,0l9.2-25.3C3329.4,3.7,3251,3.7,3170.8,9.8z"/>
			</g>
		</g>
	</g>
</g>
<g id="Conjoined">
	<g>
		<polygon class="st75" points="900.6,82.4 681,82.4 690.2,57.2 909.8,57.2 		"/>
		<g>
			<polygon class="st75" points="273.3,23 225.1,23 206.6,74 254.7,74 			"/>
			<polygon class="st75" points="89.3,23 41.1,23 0,136 48.2,136 			"/>
		</g>
		<path class="st75" d="M30.3,52.6l-9.2,25.3c75.1,6,152.7,6,232.2,0l9.2-25.3C183,58.7,105.4,58.7,30.3,52.6z"/>
		<path class="st75" d="M278.3,9.2C197,3.5,113.2,3.9,27.5,10.5c-2.4,8.4-4.8,16.8-7.2,25.2c85-6.5,168.2-6.8,248.8-1.1L278.3,9.2z"
			/>
		<polygon class="st75" points="433,5.2 384.8,5.2 342.1,122.6 390.2,122.6 		"/>
		<polygon class="st75" points="753.4,16 705.2,16 661.6,136 709.7,136 		"/>
		<polygon class="st75" points="929.3,16 881.1,16 837.5,136 885.6,136 		"/>
		<g>
			<path class="st75" d="M707.6,9.6l-9.2,25.3c76.7-5.9,151.6-5.9,224.1,0l9.2-25.3C859.1,3.8,784.2,3.8,707.6,9.6z"/>
		</g>
		<polygon class="st75" points="2222.1,82.4 2002.5,82.4 2011.7,57.2 2231.3,57.2 		"/>
		<polygon class="st75" points="2074.9,16 2026.7,16 1983.1,136 2031.2,136 		"/>
		<polygon class="st75" points="2250.8,16 2202.6,16 2159,136 2207.1,136 		"/>
		<g>
			<path class="st75" d="M2029,9.6l-9.2,25.3c76.7-5.9,151.6-5.9,224.1,0l9.2-25.3C2180.6,3.8,2105.7,3.8,2029,9.6z"/>
		</g>
		<polygon class="st75" points="2482.8,16 2434.7,16 2391,136 2439.2,136 		"/>
		<polygon class="st75" points="2716.6,5.3 2668.7,5.3 2620.9,136 2669,136 		"/>
		<g>
			<path class="st75" d="M2343.9,9.8l-9.2,25.3c80.2-6.1,158.6-6.1,234.4,0l9.2-25.3C2502.4,3.7,2424.1,3.7,2343.9,9.8z"/>
		</g>
		<polygon class="st75" points="1845.1,16 1797,16 1753.3,136 1801.5,136 		"/>
		<g>
			<path class="st75" d="M1706.2,9.8l-9.2,25.3c80.2-6.1,158.6-6.1,234.4,0l9.2-25.3C1864.7,3.7,1786.4,3.7,1706.2,9.8z"/>
		</g>
		<polygon class="st75" points="3800.2,82.4 3626.1,82.4 3635.2,57.2 3809.4,57.2 		"/>
		<polygon class="st75" points="3836.7,16 3788.6,16 3748.6,125.8 3796.8,125.8 		"/>
		<g>
			<path class="st75" d="M3604.6,9.8l-9.2,25.3c80.2-6.1,158.6-6.1,234.4,0l9.2-25.3C3763.2,3.7,3684.8,3.7,3604.6,9.8z"/>
		</g>
		<g>
			<path class="st75" d="M3794.7,131.4l9.2-25.3c-80.2,6.1-158.6,6.1-234.4,0l-9.2,25.3C3636.2,137.5,3714.5,137.5,3794.7,131.4z"/>
		</g>
		<g>
			<path class="st75" d="M573.2,131.4l9.2-25.3c-80.2,6.1-158.6,6.1-234.4,0l-9.2,25.3C414.7,137.5,493,137.5,573.2,131.4z"/>
		</g>
		<polygon class="st75" points="1573.2,82.4 1370.1,82.4 1379.3,57.2 1582.4,57.2 		"/>
		<g>
			<polygon class="st75" points="1423.6,16 1375.4,16 1351.2,82.4 1399.4,82.4 			"/>
			<polygon class="st75" points="1594.8,57.2 1546.6,57.2 1521.7,125.8 1569.8,125.8 			"/>
		</g>
		<g>
			<path class="st75" d="M1377.7,9.8l-9.2,25.3c80.2-6.1,158.6-6.1,234.4,0l9.2-25.3C1536.2,3.7,1457.9,3.7,1377.7,9.8z"/>
		</g>
		<g>
			<path class="st75" d="M1567.8,131.4l9.2-25.3c-80.2,6.1-158.6,6.1-234.4,0l-9.2,25.3C1409.2,137.5,1487.6,137.5,1567.8,131.4z"/>
		</g>
		<g>
			<path class="st75" d="M1249.1,77.9l9.2-25.3c-80.2,6.1-158.6,6.1-234.4,0l-9.2,25.3C1090.5,84,1168.9,84,1249.1,77.9z"/>
		</g>
		<polygon class="st75" points="1169.2,41.7 1121,41.7 1086.7,136 1134.8,136 		"/>
		<g>
			<polygon class="st75" points="1089.3,5.3 1041.1,5.3 1017.2,71.2 1065.3,71.2 			"/>
			<polygon class="st75" points="1275.5,5.3 1227.4,5.3 1203.4,71.2 1251.5,71.2 			"/>
		</g>
		<polygon class="st75" points="2871.8,16 2823.7,16 2783.7,125.8 2831.9,125.8 		"/>
		<polygon class="st75" points="3058,16 3009.9,16 2969.9,125.8 3018.1,125.8 		"/>
		<g>
			<path class="st75" d="M2826,9.8l-9.2,25.3c80.2-6.1,158.6-6.1,234.4,0l9.2-25.3C2984.5,3.7,2906.2,3.7,2826,9.8z"/>
		</g>
		<g>
			<path class="st75" d="M3016,131.4l9.2-25.3c-80.2,6.1-158.6,6.1-234.4,0l-9.2,25.3C2857.5,137.5,2935.8,137.5,3016,131.4z"/>
		</g>
		<polygon class="st75" points="3222.5,0 3174.4,0 3124.9,136 3173,136 		"/>
		<polygon class="st75" points="3402.9,16 3354.8,16 3311.1,136 3359.3,136 		"/>
		<g>
			<path class="st75" d="M3170.8,9.8l-9.2,25.3c80.2-6.1,158.6-6.1,234.4,0l9.2-25.3C3329.4,3.7,3251,3.7,3170.8,9.8z"/>
		</g>
	</g>
</g>
</svg>
