<?xml version="1.0" encoding="utf-8"?>
<!-- Generator: Adobe Illustrator 26.0.3, SVG Export Plug-In . SVG Version: 6.00 Build 0)  -->
<svg version="1.1" id="Layer_1" xmlns="http://www.w3.org/2000/svg" xmlns:xlink="http://www.w3.org/1999/xlink" x="0px" y="0px"
	 viewBox="0 0 2159 2159" style="enable-background:new 0 0 2159 2159;" xml:space="preserve">
<style type="text/css">
	.st0{display:none;fill:#00AD9C;}
	.st1{display:none;fill:#FFFFFF;stroke:#231F20;stroke-miterlimit:10;}
	.st2{fill:#FFFFFF;}
	.st3{fill-rule:evenodd;clip-rule:evenodd;fill:#FFFFFF;}
	.st4{fill-rule:evenodd;clip-rule:evenodd;}
	.st5{fill:#00AD9C;}
	.st6{fill:#FBB817;}
	.st7{fill:#0174BA;}
	.st8{fill:#EB2027;}
</style>
<g>
	<rect class="st2" width="2159" height="2159"/>
	<g>
		<g>
			<g>
				<path d="M303.6,1662.8v230.9h36v-208.8H373c0,0,24.2,0,32.6,10.9c7,9.2,8.4,25.9,8.4,37.2c0,12.1-0.8,30.7-4.8,37.6
					c-6.2,10.4-16.3,12.5-25.5,12.5h-22v20.5h31.6c0,0,28.6,1.3,40.9-11.3c15-15.3,18.9-35.9,18.9-63.5c0-25.1-9.1-50.3-27.7-58.9
					c-15.4-7.1-43.1-7.1-43.1-7.1H303.6z"/>
				<rect x="481.4" y="1662.8" width="36.1" height="230.9"/>
				<polygon points="709.2,1716.7 775.2,1889.6 737.4,1982.3 767.2,1982.3 876.3,1716.7 842.9,1716.7 795.3,1846.2 751.2,1716.7 
									"/>
				<path d="M903.4,1892.4v-21.8c0,0,38.1,1.5,46.1,1.5c17.6,0,26.4-3.8,33-10.8c4-4.2,7.5-23.1,7.5-29.8c0-6.6-1.3-21.1-4-27
					c-2.6-5.8-8.7-11.3-18-12c-6.6-0.6-16.7-1.9-28.6-2.4c-16.7-0.8-27.6-9.5-32.9-15.7c-5.3-6.3-12.3-15.7-12.3-44.4
					c0-28.9,7.5-45,15-52.6c7.5-7.5,18.4-10.8,26.9-12.3c9.7-1.6,25.5-1.7,25.5-1.7l50.4,1.5v21.8c0,0-36.7-1.5-44.7-1.5
					c-17.6,0-22.9,3.8-29.5,10.9c-3.9,4.2-6.9,15.8-6.9,22.5c0,6.7,0.8,20.2,3.4,26.1c2.6,5.8,8.8,11.3,18.1,12
					c6.6,0.6,16.7,1.9,28.5,2.5c16.7,0.8,27.7,9.4,32.9,15.7c5.3,6.3,12.3,19.4,12.3,48.2c0,28.8-7.5,49.4-15,57
					c-7.5,7.5-18.4,10.9-26.8,12.3c-9.6,1.7-25.5,1.8-25.5,1.8L903.4,1892.4z"/>
				<path d="M1100.1,1684.9h-36v169.6c0,0,0.8,15.5,1.7,20.9c0.9,5.4,8.8,18.4,29.5,18.4l37.3-0.7v-21.8c0,0-10.1,0.8-16.2,0.8
					c-6.2,0-13.7-0.4-15-10.9c-1.3-10.4-1.3-22.9-1.3-22.9v-99.8h40.6v-21.7h-40.6V1684.9z"/>
				<rect x="1448" y="1716.7" width="36.1" height="177"/>
				<rect x="1448" y="1662.8" width="36.1" height="32.1"/>
				<path d="M1598,1715.2c24.5,0,43.5,5.5,53.8,13.8c10.3,8.3,23,25.7,23,76.3c0,50.5-12.7,68-23,76.3
					c-10.3,8.3-29.3,13.8-53.8,13.8c-24.6,0-43.5-5.5-53.9-13.8c-10.3-8.3-22.9-25.7-22.9-76.3c0-50.5,12.7-68,22.9-76.3
					C1554.4,1720.7,1573.4,1715.2,1598,1715.2 M1573.2,1749.2c-4.9,6-10.9,18.9-10.9,56.1c0,37.1,6.1,50,10.9,56
					c5,6.1,14.1,10.2,25.9,10.2c11.8,0,20.9-4,25.8-10.2c5-6,11-18.9,11-56c0-37.2-6-50-11-56.1c-4.9-6.1-14.1-10.1-25.8-10.1
					C1587.3,1739.1,1578.1,1743.1,1573.2,1749.2"/>
				<path d="M1749.3,1741.6l35.3-1.5c9.2,0,20.1,2.5,25.4,9.2c5,6.3,8,13.8,8,25.9v118.4h36v-121.3c0-23-7-36.3-17.6-44.7
					c-15.1-12-42.2-10.9-42.2-10.9l-80.8,1.5v175.4h35.7V1741.6z"/>
				<path d="M1376.2,1684.9h-36.1v169.6c0,0,1,15.5,1.8,20.9c0.9,5.4,8.8,18.4,29.4,18.4l37.4-0.7v-21.8c0,0-10.1,0.8-16.3,0.8
					c-6.2,0-13.6-0.4-14.9-10.9c-1.4-10.4-1.4-22.9-1.4-22.9v-99.8h40.7v-21.7h-40.7V1684.9z"/>
				<path d="M654.2,1775.2c0-12.1-3.1-19.6-8-25.9c-5.3-6.7-16.2-9.2-25.4-9.2l-47.5,1.5v-23.4l57.2-1.5c0,0,27.1-1.1,42.2,10.9
					c10.6,8.4,17.6,21.7,17.6,44.7v119.7l-69.1,1.5c0,0-31.3,0.1-47-6.3c-15.4-6.3-23.7-23.4-23.7-47.2c0-23,7-36.3,17.5-44.7
					c15.2-12,42.2-10.9,42.2-10.9h22v20.5h-12.3c-9.3,0-18.9,1.7-24.1,8.3c-4.9,6.3-7.6,11.7-7.6,23.8c0,15.9,3.1,23,10.6,28.4
					c6.6,4.8,18.5,5.8,31.7,5.8l23.8-1.5V1775.2z"/>
				<path d="M1262.1,1775.2c0-12.1-3.1-19.6-8.1-25.9c-5.3-6.7-16.1-9.2-25.4-9.2l-47.5,1.5v-23.4l57.2-1.5c0,0,27.1-1.1,42.2,10.9
					c10.6,8.4,17.6,21.7,17.6,44.7v119.7l-69,1.5c0,0-31.3,0.1-47.1-6.3c-15.4-6.3-23.8-23.4-23.8-47.2c0-23,7.1-36.3,17.6-44.7
					c15.1-12,42.2-10.9,42.2-10.9h22v20.5h-12.3c-9.2,0-18.8,1.7-24.1,8.3c-4.9,6.3-7.6,11.7-7.6,23.8c0,15.9,3.1,23,10.5,28.4
					c6.6,4.8,18.5,5.8,31.6,5.8l23.9-1.5V1775.2z"/>
			</g>
			<g>
				<path class="st4" d="M1912.1,1882.2c-0.1-0.4-0.2-0.9-0.2-1.7l-0.1-2.8c-0.1-1.4-0.3-2.3-0.8-2.9c-0.3-0.4-0.7-0.7-1.3-1.1
					c0.7-0.4,1.2-1,1.6-1.6c0.6-0.9,0.9-2,0.9-3.3c0-2.6-1.1-4.4-3.2-5.4c-1.1-0.5-2.5-0.7-4.1-0.7h-9.6h-0.4v0.5v21v0.5h0.5h2.8
					h0.5v-0.5v-8.5h5.9c1.1,0,1.9,0.1,2.3,0.3c0.8,0.4,1.2,1.2,1.2,2.4l0.2,3.5c0.1,0.9,0.1,1.4,0.2,1.7c0.1,0.3,0.1,0.6,0.2,0.8
					l0.1,0.2h0.3h3.4h0.5v-0.4v-0.5v-0.3l-0.3-0.1C1912.5,1883,1912.3,1882.6,1912.1,1882.2z M1907.5,1871.4
					c-0.7,0.5-1.7,0.7-2.8,0.7h-6v-6.2h6.4c0.9,0,1.6,0.1,2.1,0.4c0.9,0.4,1.4,1.3,1.4,2.6C1908.4,1870.1,1908.1,1871,1907.5,1871.4
					z"/>
				<path class="st4" d="M1916.9,1860c-3.7-3.7-8.5-5.8-13.7-5.8c-10.7,0-19.4,8.9-19.4,19.7c0,5.3,2,10.2,5.7,13.9
					s8.5,5.8,13.7,5.8c5.2,0,10.1-2,13.7-5.8c3.7-3.7,5.7-8.7,5.7-13.9C1922.6,1868.7,1920.6,1863.7,1916.9,1860z M1903.2,1890.4
					c-4.3,0-8.4-1.7-11.5-4.8c-3-3.1-4.8-7.2-4.8-11.6c0-4.4,1.7-8.5,4.8-11.6c3-3.1,7.1-4.8,11.5-4.8s8.4,1.7,11.5,4.8
					c3,3.1,4.8,7.2,4.8,11.6C1919.3,1883,1912.1,1890.4,1903.2,1890.4z"/>
				<path class="st4" d="M1912.1,1882.2c-0.1-0.4-0.2-0.9-0.2-1.7l-0.1-2.8c-0.1-1.4-0.3-2.3-0.8-2.9c-0.3-0.4-0.7-0.7-1.3-1.1
					c0.7-0.4,1.2-1,1.6-1.6c0.6-0.9,0.9-2,0.9-3.3c0-2.6-1.1-4.4-3.2-5.4c-1.1-0.5-2.5-0.7-4.1-0.7h-9.6h-0.4v0.5v21v0.5h0.5h2.8
					h0.5v-0.5v-8.5h5.9c1.1,0,1.9,0.1,2.3,0.3c0.8,0.4,1.2,1.2,1.2,2.4l0.2,3.5c0.1,0.9,0.1,1.4,0.2,1.7c0.1,0.3,0.1,0.6,0.2,0.8
					l0.1,0.2h0.3h3.4h0.5v-0.4v-0.5v-0.3l-0.3-0.1C1912.5,1883,1912.3,1882.6,1912.1,1882.2z M1907.5,1871.4
					c-0.7,0.5-1.7,0.7-2.8,0.7h-6v-6.2h6.4c0.9,0,1.6,0.1,2.1,0.4c0.9,0.4,1.4,1.3,1.4,2.6C1908.4,1870.1,1908.1,1871,1907.5,1871.4
					z"/>
			</g>
		</g>
	</g>
	<g>
		<g>
			<path class="st5" d="M986,1049.7l-256.3-75.3c0,0-314.6,112.5-339.5,120.9c-24.9,8.4-59.4,22.1-59.4,22.1l246,79L986,1049.7"/>
			<path class="st5" d="M981.4,1326.3l-249.6-80.1l416-148.8l264.3,77.7c0,0-347.6,123-368.6,130.6
				C1022.3,1313.2,981.4,1326.3,981.4,1326.3"/>
			<path class="st5" d="M1826.6,1296.8l-253.3-74.4l-432.9,154.9l244.2,78.4c0,0,376.6-135.3,395.2-141.6
				C1798.4,1307.7,1826.6,1296.8,1826.6,1296.8"/>
			<polyline class="st6" points="1384.6,1455.7 1143.2,1542.8 897.2,1464.2 1140.4,1377.3 1384.6,1455.7 			"/>
			<path class="st6" d="M731.8,1246.1l249.6,80.1c-278.6,91.9-487.3,58.7-615.6,23.3c-128.4-35.5-163.8-73-167.2-118.6
				c-3.4-45.6,66.3-86.1,132.2-113.4l246,79l-62.5,22.2c-27.4,9.3-82.8,36.7-36.7,58.3c49.3,23,141.9,11,192.1-8L731.8,1246.1"/>
			<polyline class="st7" points="986,1049.7 729.8,974.4 860.2,928.4 1113.7,1004.3 986,1049.7 			"/>
			<path class="st7" d="M1412.1,1175l-264.3-77.7c120.7-46.4,215.7-70.7,352.5-75c151.1-4.7,267.1,31.5,306.9,43.9
				c84,26.2,147.3,60.8,152.9,107.2c7.2,61-82,104.8-133.4,123.4l-253.3-74.4c0,0,62.1-21.9,86.6-30.3c24.5-8.4,49.8-25.3,44.7-40.5
				c-5.1-15.2-35.4-22.2-43.1-23.2c-15.2-2.1-41.9-5.8-87.8-1.7c-37.6,3.4-65,13.9-65,13.9L1412.1,1175"/>
			<path class="st8" d="M856,183.2v1269.2l287.2,90.4V479c0-49.9,22.3-83.2,58.2-71.8c46.9,13.1,56,59,56,108.9v425.2
				c179,86.4,320-0.1,320-228.3c0-234.1-82.5-338-325.7-421.5C1156,259.4,978.1,205.8,856,183.2"/>
		</g>
	</g>
</g>
</svg>
