<?xml version="1.0" encoding="utf-8"?>
<!-- Generator: Adobe Illustrator 26.0.3, SVG Export Plug-In . SVG Version: 6.00 Build 0)  -->
<svg version="1.1" id="Layer_1" xmlns="http://www.w3.org/2000/svg" xmlns:xlink="http://www.w3.org/1999/xlink" x="0px" y="0px"
	 viewBox="0 0 3839 452.2" style="enable-background:new 0 0 3839 452.2;" xml:space="preserve">
<style type="text/css">
	.st0{fill:#FFFFFF;}
	.st1{fill:none;stroke:#000000;stroke-width:1.8955;stroke-linecap:round;stroke-linejoin:round;}
	.st2{fill:none;stroke:#000000;stroke-width:3.7964;stroke-linecap:round;stroke-linejoin:round;}
	.st3{fill:none;stroke:#000000;stroke-width:2.5452;stroke-linecap:round;stroke-linejoin:round;}
	.st4{fill:none;stroke:#000000;stroke-width:1.2726;stroke-linecap:round;stroke-linejoin:round;}
	.st5{clip-path:url(#SVGID_00000152968693724057439400000009820377741384936833_);}
	
		.st6{clip-path:url(#SVGID_00000152968693724057439400000009820377741384936833_);fill:none;stroke:#000000;stroke-width:5.3589;stroke-linecap:round;stroke-linejoin:round;}
	
		.st7{clip-path:url(#SVGID_00000047762311688313025630000010749987939044148621_);fill:none;stroke:#000000;stroke-width:3.7964;stroke-linecap:round;stroke-linejoin:round;}
	.st8{fill:none;stroke:#000000;stroke-width:2.9587;stroke-linecap:round;stroke-linejoin:round;}
	.st9{fill:none;stroke:#000000;stroke-width:1.3961;stroke-linecap:round;stroke-linejoin:round;}
	.st10{fill:none;stroke:#231F20;stroke-width:1.3961;stroke-linecap:round;stroke-linejoin:round;}
	.st11{fill:none;stroke:#231F20;stroke-width:2.7922;stroke-linecap:round;stroke-linejoin:round;}
	.st12{fill:none;stroke:#231F20;stroke-width:2.0727;stroke-linecap:round;stroke-linejoin:round;stroke-miterlimit:3.864;}
	.st13{fill:none;stroke:#000000;stroke-width:2.5774;stroke-linecap:round;stroke-linejoin:round;}
	.st14{fill:none;stroke:#231F20;stroke-width:1.337;stroke-linecap:round;stroke-linejoin:round;stroke-miterlimit:3.864;}
	.st15{fill:none;stroke:#000000;stroke-width:3.4796;}
	.st16{fill:#231F20;}
	.st17{fill:none;stroke:#231F20;stroke-width:3.3507;stroke-linecap:round;stroke-linejoin:round;stroke-miterlimit:3.864;}
	.st18{fill:none;stroke:#231F20;stroke-width:2.2338;stroke-linecap:round;stroke-linejoin:round;stroke-miterlimit:3.864;}
	.st19{fill:none;stroke:#231F20;stroke-width:1.6753;stroke-linecap:round;stroke-linejoin:round;stroke-miterlimit:3.864;}
	.st20{fill:none;stroke:#231F20;stroke-width:2.2338;stroke-linecap:round;stroke-linejoin:round;}
	.st21{fill:none;stroke:#231F20;stroke-width:3.3507;stroke-linecap:round;stroke-linejoin:round;}
	.st22{fill:none;stroke:#231F20;stroke-width:1.6753;stroke-linecap:round;stroke-linejoin:round;}
	.st23{fill:none;stroke:#231F20;stroke-width:3.2218;stroke-linecap:round;stroke-linejoin:round;}
	.st24{fill:none;stroke:#000000;stroke-width:4.1239;stroke-linecap:round;}
	.st25{fill:none;stroke:#000000;stroke-width:2.062;stroke-linecap:round;}
	.st26{fill:none;stroke:#000000;stroke-width:3.0929;stroke-linecap:round;}
	
		.st27{clip-path:url(#SVGID_00000164473685849810769860000004977806095373363850_);fill:none;stroke:#000000;stroke-width:2.062;stroke-linecap:round;}
	
		.st28{clip-path:url(#SVGID_00000164473685849810769860000004977806095373363850_);fill:none;stroke:#000000;stroke-width:4.1239;stroke-linecap:round;}
	.st29{fill:none;stroke:#000000;stroke-width:11.432;}
	.st30{fill:none;stroke:#FFFFFF;stroke-width:7.3511;}
	.st31{fill:none;stroke:#231F20;stroke-width:2.1479;stroke-linecap:round;stroke-linejoin:round;}
	.st32{fill:none;stroke:#231F20;stroke-width:1.2887;stroke-linecap:round;stroke-linejoin:round;}
	.st33{fill:none;stroke:#000000;stroke-width:12.0334;stroke-linecap:round;}
	.st34{fill:none;stroke:#FFFFFF;stroke-width:7.7377;stroke-linecap:round;}
	.st35{fill:none;stroke:#000000;stroke-width:3.0929;}
	.st36{fill:none;stroke:#000000;stroke-width:2.062;}
	.st37{fill:none;stroke:#000000;stroke-width:1.031;}
	.st38{fill:none;stroke:#000000;stroke-width:1.3424;stroke-linecap:round;stroke-linejoin:round;}
	.st39{fill:none;stroke:#000000;stroke-width:1.7183;stroke-linecap:round;stroke-linejoin:round;}
	.st40{fill:none;stroke:#000000;stroke-width:0.8591;stroke-linecap:round;stroke-linejoin:round;}
	.st41{fill:none;stroke:#000000;stroke-width:1.2082;}
	.st42{fill:none;stroke:#000000;stroke-width:0.8645;stroke-linecap:round;stroke-linejoin:round;}
	.st43{fill:#00AD9C;}
	.st44{fill:#FBB817;}
	.st45{fill:#0174BA;}
	.st46{fill:#EB2027;}
	.st47{fill-rule:evenodd;clip-rule:evenodd;}
	.st48{fill-rule:evenodd;clip-rule:evenodd;fill:#FFFFFF;}
</style>
<g>
	<path class="st0" d="M98.3,31.3c0,0,34.3,0,46.1,15.4c9.9,13,11.8,36.6,11.8,52.6c0,17.1-1.1,43.5-6.9,53.2
		c-8.7,14.8-23,17.7-36.1,17.7H82.1v29h44.8c0,0,40.4,1.8,57.9-16c21.3-21.7,26.7-50.8,26.7-89.8c0-35.5-12.9-71.2-39.2-83.3
		C150.6,0,111.4,0,111.4,0H0v326.9h51V31.3H98.3"/>
	<rect x="251.6" y="0" class="st0" width="51" height="326.9"/>
	<polyline class="st0" points="810.3,76.3 763.1,76.3 695.9,259.5 633.3,76.3 573.9,76.3 667.3,320.9 613.8,452.2 656.1,452.2 
		810.3,76.3 	"/>
	<path class="st0" d="M848.8,324.9L927,327c0,0,22.4-0.1,36.1-2.5c11.9-2,27.4-6.8,38-17.4c10.6-10.6,21.1-39.8,21.1-80.6
		c0-40.8-9.9-59.4-17.4-68.3c-7.5-8.9-23-21.2-46.7-22.3c-16.8-0.8-31.1-2.7-40.4-3.4c-13.1-1.1-21.8-8.8-25.5-17.1
		c-3.7-8.3-4.8-27.5-4.8-36.9c0-9.4,4.3-25.9,9.8-31.9c9.3-10,16.8-15.4,41.7-15.4c11.2,0,63.3,2.1,63.3,2.1V2.5l-71.4-2.1
		c0,0-22.4,0.1-36.1,2.5c-11.9,2-27.4,6.8-37.9,17.4c-10.6,10.6-21.2,33.5-21.2,74.3c0,40.8,10,54.1,17.4,62.9
		c7.5,8.9,23,21.1,46.6,22.3c16.8,0.8,31.1,2.7,40.4,3.4c13.1,1.1,21.8,8.8,25.5,17c3.7,8.3,5.6,28.9,5.6,38.3
		c0,9.5-5,36.2-10.6,42.2c-9.3,10-21.8,15.3-46.6,15.3c-11.2,0-65.2-2.1-65.2-2.1V324.9"/>
	<path class="st0" d="M1076.1,31.3v240c0,0,1.3,21.9,2.5,29.5c1.2,7.7,12.4,26,41.7,26l52.9-1.1V295c0,0-14.3,1.1-23,1.1
		c-8.7,0-19.3-0.6-21.1-15.4c-1.9-14.8-1.9-32.4-1.9-32.4V107h57.5V76.3h-57.5V31.3H1076.1"/>
	<rect x="1619.3" y="76.3" class="st0" width="51" height="250.6"/>
	<rect x="1619.3" y="0" class="st0" width="51" height="45.5"/>
	<path class="st0" d="M1869.7,122.2c7,8.6,15.6,26.8,15.6,79.3c0,52.6-8.6,70.8-15.6,79.4c-7,8.6-19.9,14.3-36.6,14.3
		c-16.7,0-29.6-5.7-36.6-14.3c-7-8.6-15.6-26.8-15.6-79.4c0-52.6,8.6-70.7,15.6-79.3c7-8.6,19.9-14.3,36.6-14.3
		C1849.8,107.9,1862.7,113.6,1869.7,122.2 M1722.9,201.6c0,71.5,17.9,96.3,32.5,108c14.5,11.7,41.4,19.5,76.1,19.5
		c34.7,0,61.6-7.8,76.1-19.5c14.6-11.7,32.5-36.5,32.5-108c0-71.5-17.9-96.3-32.5-108c-14.5-11.7-41.4-19.5-76.1-19.5
		c-34.7,0-61.6,7.8-76.1,19.5C1740.8,105.3,1722.9,130,1722.9,201.6z"/>
	<path class="st0" d="M1995.2,78.3v248.2h50.6V111.4l50-2.1c13.1,0,28.5,3.5,35.9,13c7,8.9,11.4,19.5,11.4,36.6v167.6h51V154.8
		c0-32.5-10-51.4-24.9-63.2c-21.4-17-59.7-15.4-59.7-15.4L1995.2,78.3"/>
	<path class="st0" d="M1517.8,76.3V31.3h-51v240c0,0,1.2,21.9,2.5,29.5c1.2,7.7,12.4,26,41.7,26l52.9-1.1V295c0,0-14.3,1.1-23,1.1
		c-8.7,0-19.3-0.6-21.2-15.4c-1.8-14.8-1.8-32.4-1.8-32.4V107h57.5V76.3H1517.8"/>
	<path class="st0" d="M465,172h-31.2c0,0-38.3-1.6-59.7,15.4c-15,11.8-24.9,30.7-24.9,63.2c0,33.7,11.8,58,33.6,66.8
		c22.2,9.1,66.5,8.9,66.5,8.9l97.8-2.1V154.8c0-32.5-9.9-51.4-24.9-63.2c-21.4-17-59.7-15.4-59.7-15.4l-80.9,2.1v33.1l67.3-2.1
		c13.1,0,28.5,3.5,35.9,13c7,8.9,11.4,19.5,11.4,36.6v133.9l-33.7,2.1c-18.7,0-35.5-1.5-44.8-8.3c-10.6-7.7-14.9-17.7-14.9-40.2
		c0-17.1,3.7-24.8,10.7-33.7c7.5-9.5,21-11.8,34.1-11.8H465V172"/>
	<path class="st0" d="M1325.2,172H1294c0,0-38.3-1.6-59.7,15.4c-14.9,11.8-24.9,30.7-24.9,63.2c0,33.7,11.8,58,33.6,66.8
		c22.2,9.1,66.6,8.9,66.6,8.9l97.8-2.1V154.8c0-32.5-10-51.4-24.9-63.2c-21.4-17-59.7-15.4-59.7-15.4l-80.9,2.1v33.1l67.3-2.1
		c13.1,0,28.4,3.5,35.9,13c7,8.9,11.4,19.5,11.4,36.6v133.9l-33.7,2.1c-18.7,0-35.5-1.5-44.8-8.3c-10.6-7.7-14.9-17.7-14.9-40.2
		c0-17.1,3.7-24.8,10.8-33.7c7.4-9.5,21-11.8,34-11.8h17.5V172"/>
	<path class="st0" d="M2329.6,280c0,20.9-17,37.8-37.8,37.8c-20.9,0-37.8-17-37.8-37.8c0-20.9,17-37.8,37.8-37.8
		C2312.7,242.1,2329.6,259.1,2329.6,280 M2247.2,280c0,24.6,20,44.6,44.6,44.6c24.6,0,44.6-19.9,44.6-44.6s-20-44.6-44.6-44.6
		C2267.2,235.4,2247.2,255.3,2247.2,280z"/>
	<path class="st0" d="M2296.2,259.7c5.2,0,10.5,1.5,10.5,9.2c0,7.5-5.4,8.6-10.4,8.8h-17v-18H2296.2 M2279.2,307.5v-22.7h14.8
		c10.9-0.9,10.5,9.5,10.5,15.5c0,2.9,1.4,5.6,2.4,7.2l9.2,0c-2.5-1.8-3.4-6-3.5-13c-0.1-6-1-10-4.4-12.3c-0.6-0.3-0.6-1-0.1-1.4
		c4.4-3,7.1-6.4,7.1-13.1c0-12.2-10.8-15.3-19.1-15.1h-24.7v54.8H2279.2z"/>
	<path class="st0" d="M2515.6,29.6h-31.9l-1.7,2.3c-29.7,39.7-46.8,89.8-46.8,137.5c0,46.6,13.9,88.2,46.6,139.2l1.6,2.6h32.1
		l-5.3-8.6c-26-41.8-37.6-82.9-37.6-133.2c0-49,11.9-90.7,37.5-131.2L2515.6,29.6"/>
	<path class="st0" d="M3792.4,32.2l-1.7-2.6h-32.1l5.3,8.6c26,41.8,37.6,83,37.6,133.2c0,49-11.9,90.7-37.5,131.2l-5.5,8.6h31.9
		l1.7-2.2c29.7-39.7,46.8-89.8,46.8-137.5C3839,124.9,3825.1,83.2,3792.4,32.2"/>
	<path class="st0" d="M3442.3,247.5c0-0.1,0-0.2-0.1-0.3"/>
	<path class="st0" d="M2703.5,206.6c-37.9,0-68.6-30.8-68.6-68.5c0-37.8,30.8-68.6,68.6-68.6c37.8,0,68.6,30.8,68.6,68.6
		C2772.1,175.8,2741.3,206.6,2703.5,206.6 M2703.5,30.5c-59.2,0-107.2,48.6-107.6,107.7c0,0,0,154.5,0,161.8c0,9.1,7.1,14.2,19,14.2
		c13,0,20-4.8,20-14.2c0-4.9,0-71.8,0-71.8l-0.9-8.9c1.5,1.2,3.9,3.9,5.3,5.1c18,13.4,40.1,21.3,64.2,21.3
		c59.3,0,107.6-48.2,107.6-107.6C2811.1,78.8,2762.8,30.5,2703.5,30.5z"/>
	<path class="st0" d="M3445.5,247.5h106.6c8.5,0.2,17.9-5,17.7-15.9c-1.1-44.5-37.1-80.5-81.7-80.5c-45,0-81.7,36.6-81.7,81.8
		c0,44.9,36.7,81.3,81.7,81.4c41.6,0.2,59.9-16.4,70.1-33.5c2.3-4.7,3.7-12.6-4-18.3c-8.9-6.3-18.3-3.5-23.6,2.3
		c-11.7,12.7-22.2,17.2-42.6,16.9c-19.6-0.2-36.7-12.5-44.2-29.5c-0.2-0.6-0.5-1.3-0.7-1.8c-0.4-0.9-1.4-2.2-1.7-3.1L3445.5,247.5
		 M3442.2,247.6c0-0.1-0.1-0.1-0.1-0.3 M3445.9,217l-3.3,0.3c0-0.2,1.3-2.9,1.8-3.7c7.4-17,21.8-28.7,44.2-29
		c23.1-0.4,39.5,13.1,44,28.8c0.5,1,1.1,2.8,1.5,3.8l-3.1-0.2H3445.9z"/>
	<path class="st0" d="M2963.2,101.3c13.7,0,17.7-7.6,17.4-13.1c-2.3-34.9-33.9-57.8-76.6-57.6c-22.4,0.1-42.4,7.8-56.4,21.8
		c-13.8,13.7-21,32.7-20.9,54.6c0.2,38.6,28,72,74.8,76.8c42.9,4.7,59.4,20.8,59.4,45.3c0,32.9-23.2,46.3-57.5,46.2
		c-31.8,0-53.2-19-54.5-47.4c0,0-0.4-10-11.8-12.3c-7-1.5-13.1-1-18.3,0.6c-9.9,2.9-9.6,12.3-9.6,12.3c0.7,48.1,34.8,85.7,94.1,85.8
		c55.3,0.1,95.8-29.4,95.9-86c0.1-55.2-34.8-76.1-93.7-84c-26.3-3.6-39.8-17.7-39.9-37.5c0-11.3,3.1-20.5,9.4-26.8
		c6.6-6.7,16.8-10.2,28.7-10.4c22-0.1,33.3,9,36.6,18.4C2942.1,92.3,2945.1,101.3,2963.2,101.3"/>
	<path class="st0" d="M3085.8,232.8c0-26.8,21.6-48.5,48.3-48.5c26.7,0,48.3,21.7,48.3,48.5c0,26.5-21.6,48.3-48.3,48.3
		C3107.4,281.2,3085.8,259.3,3085.8,232.8 M3134.2,314.3c44.9,0,81.6-36.5,81.6-81.5c0-45.1-36.7-81.8-81.6-81.8
		c-45,0-81.6,36.6-81.6,81.8C3052.5,277.8,3089.2,314.3,3134.2,314.3z"/>
	<path class="st0" d="M3246.5,314.2c9.8,0,16.6-4.7,16.6-13.1c0-5.4,0-68.1,0-68.1c0-26.9,21.7-48.6,48.3-48.6
		c26.8,0,48.5,21.7,48.5,48.6v68.2c0,8,6.7,13.1,16.4,13.1c10.4,0,16.8-4.8,16.8-13.1c0-1.3,0-68.2,0-68.2
		c0-45.2-36.6-81.9-81.6-81.9c-44.9,0-81.5,36.6-81.5,81.9c0,0,0,63.2,0,68.2C3229.9,309.4,3236,314.2,3246.5,314.2"/>
	<path class="st0" d="M3679.5,276.1c0,18.5-15.1,33.6-33.6,33.6c-18.6,0-33.6-15.1-33.6-33.6c0-18.6,15.1-33.6,33.6-33.6
		C3664.5,242.5,3679.5,257.5,3679.5,276.1 M3606.3,276.1c0,21.9,17.7,39.6,39.6,39.6c21.9,0,39.6-17.7,39.6-39.6
		c0-21.9-17.7-39.6-39.6-39.6C3624,236.4,3606.3,254.2,3606.3,276.1z"/>
	<path class="st0" d="M3649.8,258.1c4.6,0,9.3,1.3,9.3,8.2c0,6.6-4.8,7.6-9.2,7.8l-15.1,0v-16H3649.8 M3634.7,300.5v-20.2h13.2
		c9.6-0.8,9.3,8.5,9.3,13.8c0,2.6,1.3,5,2.1,6.4l8.2,0c-2.2-1.6-3-5.4-3.1-11.5c-0.1-5.4-0.9-8.9-4-10.9c-0.5-0.3-0.5-0.9-0.1-1.2
		c3.9-2.7,6.3-5.7,6.3-11.7c0-10.9-9.6-13.6-17-13.4h-22v48.7H3634.7z"/>
</g>
</svg>
