<?xml version="1.0" encoding="utf-8"?>
<!-- Generator: Adobe Illustrator 26.0.3, SVG Export Plug-In . SVG Version: 6.00 Build 0)  -->
<svg version="1.1" id="Layer_1" xmlns="http://www.w3.org/2000/svg" xmlns:xlink="http://www.w3.org/1999/xlink" x="0px" y="0px"
	 viewBox="0 0 3839 548.4" style="enable-background:new 0 0 3839 548.4;" xml:space="preserve">
<style type="text/css">
	.st0{fill:#1E1E1E;}
	.st1{fill:#FFFFFF;}
	.st2{fill:url(#SVGID_1_);}
	.st3{fill:url(#SVGID_00000042704919828386175680000009115947843977460117_);}
	.st4{fill:url(#SVGID_00000036241781836857146180000013688024600324349098_);}
	.st5{fill:url(#SVGID_00000149348902556324416880000007629164145809826207_);}
	.st6{fill:url(#SVGID_00000101066052043541582910000006705438449710733722_);}
	.st7{fill:url(#SVGID_00000129904169801213676820000003703224850007854524_);}
	.st8{fill:url(#SVGID_00000059995804737336555480000009236210795698213043_);}
	.st9{fill:url(#SVGID_00000113351907396776477500000011188076106645269161_);}
	.st10{fill:url(#SVGID_00000141452066098279285140000011813944484282840195_);}
	.st11{fill:url(#SVGID_00000167386515211761541460000013914305397872300422_);}
	.st12{fill:url(#SVGID_00000036222168330876463220000008960987560590875579_);}
	.st13{fill:url(#SVGID_00000005968878123430465250000003092693069633676963_);}
	.st14{fill:url(#SVGID_00000078002511903944753780000011572064309513418369_);}
	.st15{fill:#232244;}
	.st16{fill:url(#SVGID_00000057828713246556457090000013661651611993096890_);}
	.st17{fill:url(#SVGID_00000054947424746197382260000014815001619512664232_);}
	.st18{fill:#00FFF8;}
	.st19{fill:#FF0000;}
	.st20{fill:#0000FF;}
	.st21{stroke:#231F20;stroke-width:2.4791;stroke-miterlimit:10;}
	.st22{fill:#FFCE00;}
	.st23{fill:#339300;}
	.st24{fill:url(#SVGID_00000055689404240440044980000010229128795478283431_);}
	.st25{fill:url(#SVGID_00000001647502446352464110000013223247827132519818_);}
	.st26{fill:url(#SVGID_00000118393814848774913650000006679652312673704344_);}
	.st27{fill:url(#SVGID_00000067949043792665665670000015682989102556089988_);}
	.st28{fill:url(#SVGID_00000084493927680571439750000012076359356172921472_);}
	.st29{fill:#7C7C7C;}
	.st30{fill:url(#SVGID_00000109747810747923026300000013025795800711260843_);}
	.st31{fill:url(#SVGID_00000003096807627632236490000008455173156320894885_);}
	.st32{fill:url(#SVGID_00000134963896124891877840000000427888407332433800_);}
	.st33{fill:url(#SVGID_00000120544686992438033470000014202940811193551008_);}
	.st34{fill:url(#SVGID_00000123421869655019661830000003234569516833962641_);}
	.st35{fill:url(#SVGID_00000034062417441461900620000003868664610245644694_);}
	.st36{fill:url(#SVGID_00000083803021658707260980000010160028965539767713_);}
	.st37{fill:url(#SVGID_00000127756631283208388400000015975867607072697231_);}
	.st38{fill:url(#SVGID_00000117636515227948020140000017589261424859221900_);}
	.st39{fill:url(#SVGID_00000124847947332263434830000013044474138350141606_);}
	.st40{fill:url(#SVGID_00000148628671814775283140000011512166039376423310_);}
	.st41{fill:url(#SVGID_00000156547926947285866710000006714200257320227489_);}
	.st42{fill:url(#SVGID_00000042735449708792925290000003699729844155986097_);}
	.st43{fill:url(#SVGID_00000041988771947858876060000001972835760856145554_);}
	.st44{fill:url(#SVGID_00000081633448856131754120000007621236283859496873_);}
	.st45{fill:url(#SVGID_00000143584072189366443740000006441874023278478000_);}
	.st46{fill:url(#SVGID_00000054969591069966801410000017686651502655088778_);}
	.st47{fill:url(#SVGID_00000095332028548920789670000006993757175058980492_);}
	.st48{fill:url(#SVGID_00000128448554701346416530000014167635073687931825_);}
	.st49{fill:url(#SVGID_00000106148464024626805070000015563292895953921168_);}
	.st50{fill:url(#SVGID_00000037665684928917891590000007231250036521139899_);}
	.st51{fill:url(#SVGID_00000157296672566359097140000014752365531633834929_);}
</style>
<g>
	<g>
		
			<linearGradient id="SVGID_1_" gradientUnits="userSpaceOnUse" x1="13.5111" y1="4265.4517" x2="3852.511" y2="4265.4517" gradientTransform="matrix(1 0 0 1 -13.511 -3991.2371)">
			<stop  offset="0" style="stop-color:#009EFF"/>
			<stop  offset="0.634" style="stop-color:#EA01F0"/>
			<stop  offset="1" style="stop-color:#FF4302"/>
		</linearGradient>
		<path class="st2" d="M987.2,0H877.5h0C756.3,0,658.1,98.2,658.1,219.4l0,109.7v109.7v109.7h109.7h109.7V438.7V329.1v-54.8
			c0-30.3,24.6-54.8,54.8-54.8h54.8h109.7h109.7V109.7h-109.7L987.2,0z M2961.5,0L2961.5,0L2961.5,0h-109.7h-109.7h0h-109.7v109.7
			l109.7,109.7h109.7h54.8c30.3,0,54.8,24.6,54.8,54.8s-24.6,54.8-54.8,54.8h-54.8l-109.7,109.7h-109.7v109.7h109.7h109.7h109.7v0h0
			c121.2,0,219.4-98.2,219.4-219.4v0V219.4v0C3180.9,98.2,3082.7,0,2961.5,0z M3400.3,274.2c0-30.3-24.6-54.8-54.8-54.8
			s-54.8,24.6-54.8,54.8s24.6,54.8,54.8,54.8S3400.3,304.5,3400.3,274.2z M2742.1,274.2c0-30.3-24.6-54.8-54.8-54.8
			c-30.3,0-54.8,24.6-54.8,54.8s24.6,54.8,54.8,54.8C2717.6,329.1,2742.1,304.5,2742.1,274.2z M3729.3,0h-109.7h-109.7h-109.7
			h-109.7v109.7l109.7,109.7l109.7,109.7h109.7h54.8c30.3,0,54.8-24.6,54.8-54.8s-24.6-54.8-54.8-54.8h-54.8h-54.8
			c-30.3,0-54.8-24.6-54.8-54.8v0c0-30.3,24.6-54.8,54.8-54.8h54.8h109.7H3839V0H3729.3z M3619.6,438.7h-109.7h-109.7h-109.7v109.7
			h109.7h109.7h109.7h109.7H3839l-109.7-109.7H3619.6z M1042,329.1c-30.3,0-54.8,24.6-54.8,54.8v0c0,30.3,24.6,54.8,54.8,54.8h0
			c30.3,0,54.8-24.6,54.8-54.8v0C1096.9,353.6,1072.3,329.1,1042,329.1z M1755,109.7h-109.7L1535.6,0h0
			c-121.2,0-219.4,98.2-219.4,219.4v0v109.7v0c0,121.2,98.2,219.4,219.4,219.4v0l329.1,0V438.7L1755,329.1h-109.7h-54.8
			c-30.3,0-54.8-24.6-54.8-54.8s24.6-54.8,54.8-54.8l274.2,0V0H1755V109.7z M2303.4,0L2303.4,0h-109.7
			c-121.2,0-219.4,98.2-219.4,219.4v329.1H2084l109.7-109.7h109.7v109.7h109.7l109.7-109.7V329.1V219.4
			C2522.8,98.2,2424.6,0,2303.4,0z M2303.4,274.2c0,30.3-24.6,54.8-54.8,54.8h0c-30.3,0-54.8-24.6-54.8-54.8v0
			c0-30.3,24.6-54.8,54.8-54.8h0C2278.8,219.4,2303.4,243.9,2303.4,274.2L2303.4,274.2z M329.1,0L329.1,0H219.4
			C98.2,0,0,98.2,0,219.4v329.1h109.7l109.7-109.7h109.7v109.7h109.7l109.7-109.7V329.1V219.4C548.4,98.2,450.2,0,329.1,0z
			 M329.1,274.2c0,30.3-24.6,54.8-54.8,54.8h0c-30.3,0-54.8-24.6-54.8-54.8v0c0-30.3,24.6-54.8,54.8-54.8h0
			C304.5,219.4,329.1,243.9,329.1,274.2L329.1,274.2z"/>
	</g>
</g>
</svg>
