<?xml version="1.0" encoding="utf-8"?>
<!-- Generator: Adobe Illustrator 26.0.3, SVG Export Plug-In . SVG Version: 6.00 Build 0)  -->
<svg version="1.1" id="Layer_1" xmlns="http://www.w3.org/2000/svg" xmlns:xlink="http://www.w3.org/1999/xlink" x="0px" y="0px"
	 viewBox="0 0 3839 548.4" style="enable-background:new 0 0 3839 548.4;" xml:space="preserve">
<style type="text/css">
	.st0{fill:#1E1E1E;}
	.st1{fill:#FFFFFF;}
	.st2{fill:url(#SVGID_1_);}
	.st3{fill:url(#SVGID_00000120538034486543885490000018416626860867884459_);}
	.st4{fill:url(#SVGID_00000092421238322676519920000002127839004942934429_);}
	.st5{fill:url(#SVGID_00000046327267220274091520000006778927576504424342_);}
	.st6{fill:url(#SVGID_00000055692916305752436080000004554198114067222164_);}
	.st7{fill:url(#SVGID_00000088827843725605800680000012058703179234782849_);}
	.st8{fill:url(#SVGID_00000135665796333000064760000012324300451119988608_);}
	.st9{fill:url(#SVGID_00000061442222184123203270000003843446327549581982_);}
	.st10{fill:url(#SVGID_00000029753650652045702420000001026980902996654247_);}
	.st11{fill:url(#SVGID_00000151536929041027028420000014193167406372156068_);}
	.st12{fill:url(#SVGID_00000106122184873722674690000007720668927080278709_);}
	.st13{fill:url(#SVGID_00000029046050482074819580000011051727402444045736_);}
	.st14{fill:url(#SVGID_00000044876278505904019490000001984573322079474844_);}
	.st15{fill:#232244;}
	.st16{fill:url(#SVGID_00000078731778648336755600000008344779304121970064_);}
	.st17{fill:url(#SVGID_00000017474683177196286530000014500844374417488269_);}
	.st18{fill:#00FFF8;}
	.st19{fill:#FF0000;}
	.st20{fill:#0000FF;}
	.st21{stroke:#231F20;stroke-width:2.4791;stroke-miterlimit:10;}
	.st22{fill:#FFCE00;}
	.st23{fill:#339300;}
	.st24{fill:url(#SVGID_00000177482708869290737800000012908557189068811694_);}
	.st25{fill:url(#SVGID_00000055682071197353918760000000941547769712612001_);}
	.st26{fill:url(#SVGID_00000021834287039472338820000003210240792016717976_);}
	.st27{fill:url(#SVGID_00000111163220557488358700000007596453612934957207_);}
	.st28{fill:url(#SVGID_00000152256964650804106730000017833799158807517341_);}
	.st29{fill:#7C7C7C;}
	.st30{fill:url(#SVGID_00000060024519271673153770000001506069356673336982_);}
	.st31{fill:url(#SVGID_00000081613272407332737520000006323206182044968065_);}
	.st32{fill:url(#SVGID_00000043454579308930886740000012882698583634403989_);}
	.st33{fill:url(#SVGID_00000033350563302568813560000005068702750419730831_);}
	.st34{fill:url(#SVGID_00000108278898428785580520000014957865393875909565_);}
	.st35{fill:url(#SVGID_00000101070742562943765020000016347321348711632263_);}
	.st36{fill:url(#SVGID_00000016784614366583954070000012784032774961702312_);}
	.st37{fill:url(#SVGID_00000110433084442109561550000006824097530760654992_);}
	.st38{fill:url(#SVGID_00000131333688046135424760000009255875695943515312_);}
	.st39{fill:url(#SVGID_00000064352198684892760690000017309427122391989946_);}
	.st40{fill:url(#SVGID_00000007388382234757379880000004956632901119515322_);}
	.st41{fill:url(#SVGID_00000113337536479495619200000003596733614338306984_);}
	.st42{fill:url(#SVGID_00000102517840514257956500000017810412910968999849_);}
	.st43{fill:url(#SVGID_00000016792922293134520660000014450026872447151533_);}
	.st44{fill:url(#SVGID_00000037677423267966765000000010309723349140534930_);}
	.st45{fill:url(#SVGID_00000166664889070544377570000017748074525426491034_);}
	.st46{fill:url(#SVGID_00000155838329004642962110000004687134716901500336_);}
	.st47{fill:url(#SVGID_00000120550397128222831970000004780613799596554117_);}
	.st48{fill:url(#SVGID_00000092429164824088216900000003004026508494451333_);}
	.st49{fill:url(#SVGID_00000126307496309272480390000006857725927797641656_);}
	.st50{fill:url(#SVGID_00000116228864324015376360000008347214505239444126_);}
	.st51{fill:url(#SVGID_00000000184511650611653550000010790491033239149452_);}
</style>
<g>
	<g>
		<path class="st22" d="M987.2,0H877.5h0h0C756.3,0,658.1,98.2,658.1,219.4l0,109.7v109.7v109.7h109.7h109.7V438.7V329.1v-54.8
			c0-30.3,24.6-54.8,54.8-54.8h54.8h109.7h109.7V109.7h-109.7L987.2,0z"/>
		<path class="st22" d="M3180.9,219.4C3180.9,98.2,3082.7,0,2961.5,0h0h0h-109.7h-109.7h0h-109.7v109.7l0,0l109.7,109.7h109.7h54.8
			c30.3,0,54.8,24.6,54.8,54.8s-24.6,54.8-54.8,54.8h-54.8l-109.7,109.7h-109.7v109.7h109.7h109.7h109.7v0h0
			c121.2,0,219.4-98.2,219.4-219.4v0l0,0V219.4L3180.9,219.4z"/>
		<path class="st22" d="M3345.4,329.1c30.3,0,54.8-24.6,54.8-54.8s-24.6-54.8-54.8-54.8l0,0c-30.3,0-54.8,24.6-54.8,54.8
			S3315.1,329.1,3345.4,329.1L3345.4,329.1z"/>
		<path class="st22" d="M2687.3,329.1c30.3,0,54.8-24.6,54.8-54.8s-24.6-54.8-54.8-54.8h0c-30.3,0-54.8,24.6-54.8,54.8
			S2657,329.1,2687.3,329.1L2687.3,329.1z"/>
		<path class="st22" d="M3729.3,0h-109.7h-109.7h-109.7h-109.7v109.7l109.7,109.7l109.7,109.7h109.7h54.8
			c30.3,0,54.8-24.6,54.8-54.8s-24.6-54.8-54.8-54.8h-54.8h-54.8c-30.3,0-54.8-24.6-54.8-54.8v0c0-30.3,24.6-54.8,54.8-54.8h54.8
			h109.7H3839V0H3729.3z"/>
		<polygon class="st22" points="3619.6,438.7 3509.9,438.7 3400.3,438.7 3290.6,438.7 3290.6,548.4 3400.3,548.4 3509.9,548.4 
			3619.6,548.4 3729.3,548.4 3839,548.4 3729.3,438.7 		"/>
		<path class="st22" d="M1042,329.1L1042,329.1c-30.3,0-54.8,24.6-54.8,54.8v0c0,30.3,24.6,54.8,54.8,54.8h0
			c30.3,0,54.8-24.6,54.8-54.8v0C1096.9,353.6,1072.3,329.1,1042,329.1z"/>
		<path class="st22" d="M1590.4,219.4l274.2,0V0H1755v109.7h-109.7L1535.6,0h0h0c-121.2,0-219.4,98.2-219.4,219.4l0,0v109.7h0v0
			c0,121.2,98.2,219.4,219.4,219.4h0v0l329.1,0l0-109.7L1755,329.1h-109.7h-54.8c-30.3,0-54.8-24.6-54.8-54.8
			S1560.2,219.4,1590.4,219.4z"/>
		<path class="st22" d="M2303.4,0L2303.4,0h-109.7c-121.2,0-219.4,98.2-219.4,219.4v329.1H2084l109.7-109.7h109.7v109.7l109.7,0
			l109.7-109.7V329.1V219.4C2522.8,98.2,2424.6,0,2303.4,0z M2193.7,274.2L2193.7,274.2c0-30.3,24.6-54.8,54.8-54.8l0,0
			c30.3,0,54.8,24.6,54.8,54.8v0c0,30.3-24.6,54.8-54.8,54.8h0C2218.3,329.1,2193.7,304.5,2193.7,274.2z"/>
		<path class="st22" d="M329.1,0L329.1,0H219.4C98.2,0,0,98.2,0,219.4v329.1h109.7l109.7-109.7h109.7v109.7l109.7,0l109.7-109.7
			V329.1V219.4C548.4,98.2,450.2,0,329.1,0z M219.4,274.2L219.4,274.2c0-30.3,24.6-54.8,54.8-54.8h0c30.3,0,54.8,24.6,54.8,54.8v0
			c0,30.3-24.6,54.8-54.8,54.8h0C243.9,329.1,219.4,304.5,219.4,274.2z"/>
	</g>
</g>
</svg>
