<?xml version="1.0" encoding="utf-8"?>
<!-- Generator: Adobe Illustrator 26.0.3, SVG Export Plug-In . SVG Version: 6.00 Build 0)  -->
<svg version="1.1" id="Layer_1" xmlns="http://www.w3.org/2000/svg" xmlns:xlink="http://www.w3.org/1999/xlink" x="0px" y="0px"
	 viewBox="0 0 3839 1030" style="enable-background:new 0 0 3839 1030;" xml:space="preserve">
<style type="text/css">
	.st0{fill:#1E1E1E;}
	.st1{fill:#FFFFFF;}
	.st2{fill:url(#SVGID_1_);}
	.st3{fill:url(#SVGID_00000039092588978485822590000008384042591063605914_);}
	.st4{fill:url(#SVGID_00000080180334843122937760000003198301846700449451_);}
	.st5{fill:url(#SVGID_00000098921183552953163330000008438943647411511717_);}
	.st6{fill:url(#SVGID_00000168808112133497775400000016167752093077186483_);}
	.st7{fill:url(#SVGID_00000054982615967614184270000017281984993026140056_);}
	.st8{fill:url(#SVGID_00000181772633788373401900000017669062997250525102_);}
	.st9{fill:url(#SVGID_00000170277475259664979990000013610565037200972947_);}
	.st10{fill:url(#SVGID_00000019639718130988111300000008350871096572637602_);}
	.st11{fill:url(#SVGID_00000082346054679866326420000003994495926536702369_);}
	.st12{fill:url(#SVGID_00000030482210187362437410000004497027964387933583_);}
	.st13{fill:url(#SVGID_00000137097337700121069960000013496185595245431196_);}
	.st14{fill:url(#SVGID_00000050625199422736482370000002988572211912786323_);}
	.st15{fill:#232244;}
	.st16{fill:url(#SVGID_00000086687181868477886440000002226348315449336199_);}
	.st17{fill:url(#SVGID_00000067939364408875007700000003465029643280019328_);}
	.st18{fill:#00FFF8;}
	.st19{fill:#FF0000;}
	.st20{fill:#0000FF;}
	.st21{stroke:#231F20;stroke-width:2.4791;stroke-miterlimit:10;}
	.st22{fill:#FFCE00;}
	.st23{fill:#339300;}
	.st24{fill:url(#SVGID_00000142873653510100685000000011253951434174649496_);}
	.st25{fill:url(#SVGID_00000011743519833688393980000013069915881010294676_);}
	.st26{fill:url(#SVGID_00000071530558847513483860000015209057598832678585_);}
	.st27{fill:url(#SVGID_00000182513242206242388980000009981805582133672349_);}
	.st28{fill:url(#SVGID_00000099633177917131679890000013268617929226889873_);}
	.st29{fill:#7C7C7C;}
	.st30{fill:url(#SVGID_00000036244085840324163980000006852732214947260823_);}
	.st31{fill:url(#SVGID_00000110431638353049649690000011236207050811973536_);}
	.st32{fill:url(#SVGID_00000066508001648158074710000001931712337757375925_);}
	.st33{fill:url(#SVGID_00000045610221788862185890000009074621702755041197_);}
	.st34{fill:url(#SVGID_00000055693482212268758160000004379328193702045094_);}
	.st35{fill:url(#SVGID_00000174559527714149449050000006260040429477822389_);}
	.st36{fill:url(#SVGID_00000053522303353331466880000016918563036124119431_);}
	.st37{fill:url(#SVGID_00000021816073839312683220000004155287746408884646_);}
	.st38{fill:url(#SVGID_00000004506310341927136510000016123232402125000863_);}
	.st39{fill:url(#SVGID_00000079484830264460185740000017727695577048821668_);}
	.st40{fill:url(#SVGID_00000041267465356056699240000004480441992693054393_);}
	.st41{fill:url(#SVGID_00000178170019354288814330000014876697157565067182_);}
	.st42{fill:url(#SVGID_00000158722116760226241570000014834842003687896468_);}
	.st43{fill:url(#SVGID_00000078743491885079680960000010575896796956537019_);}
	.st44{fill:url(#SVGID_00000026144522248039314670000016681095733584678025_);}
	.st45{fill:url(#SVGID_00000049940952197959932460000006303408829595120542_);}
	.st46{fill:url(#SVGID_00000175321629763257067680000011282803573046602941_);}
	.st47{fill:url(#SVGID_00000111151224058868345710000016980218564987215542_);}
	.st48{fill:url(#SVGID_00000091727976619691493320000005936561100334648252_);}
	.st49{fill:url(#SVGID_00000078727586267549863020000008280168163986290317_);}
	.st50{fill:url(#SVGID_00000045577212242071264840000018017044503577300669_);}
	.st51{fill:url(#SVGID_00000033330651152403556540000002041703669439782575_);}
</style>
<g>
	<path d="M3651.7,1030H187.3C83.8,1030,0,946.1,0,842.7V187.3C0,83.8,83.8,0,187.3,0h3464.5C3755.2,0,3839,83.8,3839,187.3v655.4
		C3839,946.1,3755.2,1030,3651.7,1030z"/>
	<g>
		<g>
			<linearGradient id="SVGID_1_" gradientUnits="userSpaceOnUse" x1="280.9022" y1="514.9877" x2="3558.0979" y2="514.9877">
				<stop  offset="0" style="stop-color:#FAD961"/>
				<stop  offset="1" style="stop-color:#F76B1C"/>
			</linearGradient>
			<path class="st2" d="M1123.6,280.9H1030h0c-103.4,0-187.3,83.8-187.3,187.3l0,93.6v93.6v93.6h93.6h93.6v-93.6v-93.6V515
				c0-25.9,21-46.8,46.8-46.8h46.8h93.6h93.6v-93.6h-93.6L1123.6,280.9z M2809,280.9L2809,280.9L2809,280.9h-93.6h-93.6h0h-93.6
				v93.6h0l93.6,93.6h93.6h46.8c25.9,0,46.8,21,46.8,46.8s-21,46.8-46.8,46.8h-46.8l-93.6,93.6h-93.6v93.6h93.6h93.6h93.6v0h0
				c103.4,0,187.3-83.8,187.3-187.3v0v-93.6v0C2996.3,364.7,2912.4,280.9,2809,280.9z M3136.7,561.8c25.9,0,46.8-21,46.8-46.8
				s-21-46.8-46.8-46.8h0c-25.9,0-46.8,21-46.8,46.8S3110.9,561.8,3136.7,561.8L3136.7,561.8z M2621.8,515c0-25.9-21-46.8-46.8-46.8
				s-46.8,21-46.8,46.8s21,46.8,46.8,46.8S2621.8,540.8,2621.8,515z M3464.5,280.9h-93.6h-93.6h-93.6h-93.6v93.6l93.6,93.6
				l93.6,93.6h93.6h46.8c25.9,0,46.8-21,46.8-46.8s-21-46.8-46.8-46.8h-46.8H3324c-25.9,0-46.8-21-46.8-46.8v0
				c0-25.9,21-46.8,46.8-46.8h46.8h93.6h93.6v-93.6H3464.5z M3370.8,655.4h-93.6h-93.6h-93.6v93.6h93.6h93.6h93.6h93.6h93.6
				l-93.6-93.6H3370.8z M1170.4,561.8c-25.9,0-46.8,21-46.8,46.8v0c0,25.9,21,46.8,46.8,46.8c25.9,0,46.8-21,46.8-46.8v0
				C1217.2,582.8,1196.3,561.8,1170.4,561.8z M1779,374.5h-93.6l-93.6-93.6h0c-103.4,0-187.3,83.8-187.3,187.3l0,0v93.6h0v0
				c0,103.4,83.8,187.3,187.3,187.3v0l280.9,0l0-93.6l-93.6-93.6h-93.6h-46.8c-25.9,0-46.8-21-46.8-46.8s21-46.8,46.8-46.8l234.1,0
				V280.9H1779V374.5z M2247.2,280.9L2247.2,280.9h-93.6c-103.4,0-187.3,83.8-187.3,187.3v280.9h93.6l93.6-93.6h93.6v93.6l93.6,0
				l93.6-93.6v-93.6v-93.6C2434.5,364.7,2350.6,280.9,2247.2,280.9z M2247.2,515c0,25.9-21,46.8-46.8,46.8h0
				c-25.9,0-46.8-21-46.8-46.8c0-25.9,21-46.8,46.8-46.8C2226.3,468.2,2247.2,489.1,2247.2,515L2247.2,515z M561.8,280.9
				L561.8,280.9h-93.6c-103.4,0-187.3,83.8-187.3,187.3v280.9h93.6l93.6-93.6h93.6v93.6l93.6,0l93.6-93.6v-93.6v-93.6
				C749.1,364.7,665.2,280.9,561.8,280.9z M561.8,515c0,25.9-21,46.8-46.8,46.8h0c-25.9,0-46.8-21-46.8-46.8
				c0-25.9,21-46.8,46.8-46.8S561.8,489.1,561.8,515L561.8,515z"/>
		</g>
	</g>
</g>
</svg>
