<?xml version="1.0" encoding="utf-8"?>
<!-- Generator: Adobe Illustrator 25.0.0, SVG Export Plug-In . SVG Version: 6.00 Build 0)  -->
<svg version="1.1" id="Layer_1" xmlns="http://www.w3.org/2000/svg" xmlns:xlink="http://www.w3.org/1999/xlink" x="0px" y="0px"
	 viewBox="0 0 3839 795.8" style="enable-background:new 0 0 3839 795.8;" xml:space="preserve">
<style type="text/css">
	.st0{fill:#FFFFFF;}
	.st1{fill:#0000FF;}
	.st2{fill:#00FF12;}
	.st3{fill:none;}
	.st4{fill:#929191;}
	.st5{fill:none;stroke:#2C72FF;stroke-width:26.8516;stroke-linecap:round;stroke-linejoin:round;stroke-miterlimit:10;}
	.st6{fill:none;stroke:#FFFFFF;stroke-width:26.8516;stroke-linecap:round;stroke-linejoin:round;stroke-miterlimit:10;}
	.st7{fill:#DDDDDD;}
	.st8{fill:#FF1A1A;}
	.st9{fill:none;stroke:#FF5F72;stroke-width:26.8516;stroke-linecap:round;stroke-linejoin:round;stroke-miterlimit:10;}
	.st10{clip-path:url(#SVGID_4_);}
	.st11{fill:#00C420;}
	.st12{fill:none;stroke:#FFFFFF;stroke-width:13.4258;stroke-linecap:round;stroke-linejoin:round;stroke-miterlimit:10;}
	.st13{clip-path:url(#SVGID_8_);}
	.st14{fill:#5E5E5E;}
	.st15{fill:#A5A5A5;}
	.st16{clip-path:url(#SVGID_12_);}
	.st17{fill:none;stroke:#000000;stroke-width:13.4258;stroke-linecap:round;stroke-linejoin:round;stroke-miterlimit:10;}
	.st18{clip-path:url(#SVGID_16_);}
	.st19{clip-path:url(#SVGID_20_);}
	.st20{clip-path:url(#SVGID_24_);}
	.st21{clip-path:url(#SVGID_28_);}
	.st22{clip-path:url(#SVGID_32_);}
	.st23{clip-path:url(#SVGID_36_);}
	.st24{clip-path:url(#SVGID_40_);}
	.st25{fill:none;stroke:#2C72FF;stroke-width:26.2223;stroke-linecap:round;stroke-linejoin:round;stroke-miterlimit:10;}
	.st26{fill:none;stroke:#FFFFFF;stroke-width:26.2223;stroke-linecap:round;stroke-linejoin:round;stroke-miterlimit:10;}
	.st27{fill:none;stroke:#FF5F72;stroke-width:26.2223;stroke-linecap:round;stroke-linejoin:round;stroke-miterlimit:10;}
	.st28{clip-path:url(#SVGID_44_);}
	.st29{fill:none;stroke:#FFFFFF;stroke-width:13.1112;stroke-linecap:round;stroke-linejoin:round;stroke-miterlimit:10;}
	.st30{fill:none;stroke:#2C72FF;stroke-width:26.119;stroke-linecap:round;stroke-linejoin:round;stroke-miterlimit:10;}
	.st31{fill:none;stroke:#FFFFFF;stroke-width:26.119;stroke-linecap:round;stroke-linejoin:round;stroke-miterlimit:10;}
	.st32{fill:none;stroke:#FF5F72;stroke-width:26.119;stroke-linecap:round;stroke-linejoin:round;stroke-miterlimit:10;}
	.st33{clip-path:url(#SVGID_48_);}
	.st34{clip-path:url(#SVGID_52_);}
	.st35{clip-path:url(#SVGID_56_);}
	.st36{clip-path:url(#SVGID_60_);}
	.st37{clip-path:url(#SVGID_64_);}
	.st38{clip-path:url(#SVGID_68_);fill:#00FF12;}
	.st39{clip-path:url(#SVGID_68_);fill:#00C420;}
	.st40{clip-path:url(#SVGID_68_);}
	.st41{clip-path:url(#SVGID_72_);fill:#00FF12;}
	.st42{clip-path:url(#SVGID_72_);fill:#00C420;}
	.st43{clip-path:url(#SVGID_72_);}
</style>
<g>
	<g>
		<g>
			<g>
				<g>
					<defs>
						<path id="SVGID_19_" d="M1058.3,1373.8c-0.1-0.1-0.1-0.2-0.2-0.3c-0.5-0.6-1-1.2-1.6-1.6c-0.1-0.1-0.2-0.2-0.4-0.3
							c-0.6-0.4-1.3-0.8-2-1.1c-0.1,0-0.2,0-0.3-0.1c-0.7-0.2-1.5-0.3-2.3-0.4c-0.1,0-0.1,0-0.2,0c0,0-0.1,0-0.1,0
							c-0.6,0-1.1,0.1-1.7,0.2l-11.1,2.4l-183.8,40.4v525.3h219.2h0.2v-211.8l25.7-48.5c0.3-0.5,0.4-1,0.6-1.5
							c0.2-0.8,0.4-1.6,0.4-2.4v-48.6c0,0,0-0.1,0-0.1c0-0.5,0-0.9-0.1-1.3c0-0.1,0-0.1-0.1-0.2c-0.1-0.4-0.2-0.8-0.3-1.2
							c0,0,0,0,0-0.1c-1-2.6-3.2-4.6-6-5.3l-44.8-10.1c-6.2-1.4-11-6.1-12.5-12.2l-26-104.9h0l-1.5-6.3c-1.3-5.2,1.1-10.7,5.9-13.2
							l42.3-22.4l8.5-4.5c3.6-1.9,6.2-5.1,7.6-8.7c1.2-3.2,1.4-6.8,0.4-10.3l-1.5-4.9l-13.1-43.8
							C1059.2,1375.2,1058.8,1374.5,1058.3,1373.8z"/>
					</defs>
					<clipPath id="SVGID_2_">
						<use xlink:href="#SVGID_19_"  style="overflow:visible;"/>
					</clipPath>
					<g style="clip-path:url(#SVGID_2_);">
						<g>
							<polygon class="st2" points="1141.2,1140.7 754.3,360.6 802.4,336.7 1201.1,1140.7 							"/>
						</g>
					</g>
				</g>
			</g>
		</g>
	</g>
</g>
<g>
	<g>
		<g>
			<rect x="403.9" y="0" width="3435.1" height="795.8"/>
			<polygon points="502,795.8 481.6,718.9 452,718.9 434,795.8 0,795.8 276.5,0 651.1,0 935,795.8 			"/>
			<path class="st0" d="M3328.2,89.5h414.7V258h-189v58.9h172.6v160.3H3554v60.5h195.5v168.5h-421.3V89.5z"/>
			<path class="st0" d="M363.1,706.3H125.9L340.2,89.5H588l220,616.8H570.8l-20.4-76.9H381.1L363.1,706.3z M511.1,483L485,374.2
				c-6.5-26.2-10.6-53.2-14.7-79.3h-8.2L421.2,483H511.1z"/>
			<path class="st0" d="M2174.7,706.3h-237.2l214.3-616.8h247.9l220,616.8h-237.2l-20.4-76.9h-169.3L2174.7,706.3z M2322.8,483
				l-26.2-108.8c-6.5-26.2-10.6-53.2-14.7-79.3h-8.2L2232.8,483H2322.8z"/>
			<path class="st0" d="M1913.9,339.8c-36-33.5-81-62.2-131.7-62.2c-67.1,0-121.9,53.2-121.9,120.2c0,67.9,58.1,120.2,125.2,120.2
				c51.5,0,92.4-22.1,128.4-57.3l-6.5,230.7c-36,17.2-119.4,24.5-159.5,24.5c-175.9,0-313.3-136.6-313.3-312.5
				c0-180,141.5-323.9,322.3-323.9c50.7,0,103.1,9,150.5,25.4L1913.9,339.8z"/>
			<path class="st0" d="M854.6,89.5h270.8c139.1,0,256.8,58.9,256.8,214.3c0,93.3-36,132.5-119.4,160.3v4.9
				c11.4,9,25.4,18.8,37.6,36.8l134.2,200.4h-258.5l-98.2-198h-4.1v198H854.6V89.5z"/>
			<g>
				<path class="st0" d="M1046.3,154.9l12.6,42.2c0.1,0.2,0,0.5-0.2,0.6l-50.8,27c-11.2,5.9-16.8,18.6-13.8,30.9l27.5,111.2
					c3,12,12.3,21.1,24.3,23.8l39.1,8.8v40.9l-23.7,44.7c-2,3.7-3,7.8-3,12v193.6H870.4V193.6L1046.3,154.9 M1051.4,137.9
					c-0.6,0-1.2,0.1-1.8,0.2L854.7,181v525.3h219.4V496.9c0-1.6,0.4-3.2,1.2-4.6l24.5-46.3c0.6-1.2,1-2.6,1-3.9v-48.6
					c0-3.9-2.7-7.3-6.5-8.2l-44.8-10.1c-6.2-1.4-11-6.1-12.5-12.2l-27.5-111.2c-1.3-5.2,1.1-10.7,5.9-13.2l50.8-27
					c6.8-3.6,10.2-11.6,7.9-19l-14.6-48.7C1058.4,140.3,1055,137.9,1051.4,137.9L1051.4,137.9z"/>
			</g>
			<path d="M827.8,733.1V159.4l216-47.5c1.6-0.3,3.2-0.6,4.9-0.7l0.8-0.1l5.1,0l1.3,0.3c1.6,0.2,3.1,0.5,4.7,0.9l0.8,0.2l1.5,0.5
				c2.9,1,5.8,2.5,8.6,4.4l0.6,0.4l1,0.7c2.5,2,4.8,4.3,6.7,6.8l0.6,0.9l0.6,0.9c1.9,2.9,3.3,5.9,4.3,9.1l14.6,48.7
				c2.7,9,2.4,18.4-0.9,27.3c-3.7,10-10.9,18.2-20.2,23.1l-40.4,21.4l23.2,93.6l38.7,8.7c11,2.5,20.1,10,24.6,20.3l0.3,0.6l0.5,1.5
				c0.4,1.1,0.7,2.2,1,3.4l0.3,1.1l0.3,1.7c0.2,1.2,0.3,2.3,0.4,3.5l0.1,0.7l0,50.3c0,3.4-0.5,6.8-1.6,10.3
				c-0.5,1.7-1.2,3.8-2.6,6.3l-22.5,42.5v232H827.8z"/>
			<path class="st0" d="M1058.3,141.7c-0.1-0.1-0.1-0.2-0.2-0.3c-0.5-0.6-1-1.2-1.6-1.6c-0.1-0.1-0.2-0.2-0.4-0.3
				c-0.6-0.4-1.3-0.8-2-1.1c-0.1,0-0.2,0-0.3-0.1c-0.7-0.2-1.5-0.3-2.3-0.4c-0.1,0-0.1,0-0.2,0c0,0-0.1,0-0.1,0
				c-0.6,0-1.1,0.1-1.7,0.2l-11.1,2.4L854.7,181v525.3h219.2h0.2V494.4l25.7-48.5c0.3-0.5,0.4-1,0.6-1.5c0.2-0.8,0.4-1.6,0.4-2.4
				v-48.6c0,0,0-0.1,0-0.1c0-0.5,0-0.9-0.1-1.3c0-0.1,0-0.1-0.1-0.2c-0.1-0.4-0.2-0.8-0.3-1.2c0,0,0,0,0-0.1c-1-2.6-3.2-4.6-6-5.3
				l-44.8-10.1c-6.2-1.4-11-6.1-12.5-12.2l-26-104.9h0l-1.5-6.3c-1.3-5.2,1.1-10.7,5.9-13.2l42.3-22.4l8.5-4.5
				c3.6-1.9,6.2-5.1,7.6-8.7c1.2-3.2,1.4-6.8,0.4-10.3l-1.5-4.9l-13.1-43.8C1059.2,143.1,1058.8,142.3,1058.3,141.7z"/>
			<path class="st3" d="M1051.4,137.9c-0.6,0-1.2,0.1-1.8,0.2L854.7,181v525.3h219.4V494.4l25.7-48.5c0.6-1.2,1-2.6,1-3.9v-48.6
				c0-3.9-2.7-7.3-6.5-8.2l-44.8-10.1c-6.2-1.4-11-6.1-12.5-12.2l-27.5-111.2c-1.3-5.2,1.1-10.7,5.9-13.2l50.8-27
				c6.8-3.6,10.2-11.6,7.9-19l-14.6-48.7C1058.4,140.3,1055,137.9,1051.4,137.9L1051.4,137.9z"/>
			<g>
				<defs>
					<path id="SVGID_37_" d="M1074.1,550.7v-56.3l25.7-48.5c0.2-0.5,0.4-1,0.6-1.5c0.2-0.8,0.4-1.6,0.4-2.4v-48.6c0,0,0-0.1,0-0.1
						c0-0.5,0-0.9-0.1-1.3c0-0.1,0-0.1-0.1-0.2c-0.1-0.4-0.2-0.8-0.3-1.2c0,0,0,0,0-0.1c-1-2.6-3.2-4.6-6-5.3l-44.8-10.1
						c-6.2-1.4-11-6.1-12.5-12.2l-26-104.9h0l-1.6-6.3c-1.3-5.2,1.1-10.7,5.9-13.2l42.3-22.4l8.5-4.5c3.6-1.9,6.2-5.1,7.6-8.7
						c1.2-3.2,1.4-6.8,0.4-10.3l-1.5-4.9l-13.1-43.8c-0.2-0.8-0.6-1.6-1.1-2.2c-0.1-0.1-0.1-0.2-0.2-0.3c-0.5-0.6-1-1.2-1.6-1.6
						c-0.1-0.1-0.2-0.2-0.4-0.3c-0.6-0.4-1.3-0.8-2.1-1.1c-0.1,0-0.2,0-0.3-0.1c-0.7-0.2-1.5-0.3-2.3-0.4c-0.1,0-0.1,0-0.2,0
						c0,0-0.1,0-0.1,0c-0.6,0-1.1,0.1-1.7,0.2l-11.1,2.4L854.7,181v525.3h219.2h0.2V550.7"/>
				</defs>
				<clipPath id="SVGID_4_">
					<use xlink:href="#SVGID_37_"  style="overflow:visible;"/>
				</clipPath>
			</g>
			<path d="M1055.3,362.7h34.1c36.8,0,73.6-5.7,73.6-51.5c0-47.4-33.5-53.2-72-53.2h-59.5L1055.3,362.7z"/>
			<g>
				<defs>
					<path id="SVGID_39_" d="M1058.3,141.7c-0.1-0.1-0.1-0.2-0.2-0.3c-0.5-0.6-1-1.2-1.6-1.6c-0.1-0.1-0.2-0.2-0.4-0.3
						c-0.6-0.4-1.3-0.8-2-1.1c-0.1,0-0.2,0-0.3-0.1c-0.7-0.2-1.5-0.3-2.3-0.4c-0.1,0-0.1,0-0.2,0c0,0-0.1,0-0.1,0
						c-0.6,0-1.1,0.1-1.7,0.2l-11.1,2.4L854.7,181v525.3h219.2h0.2V494.4l25.7-48.5c0.3-0.5,0.4-1,0.6-1.5c0.2-0.8,0.4-1.6,0.4-2.4
						v-48.6c0,0,0-0.1,0-0.1c0-0.5,0-0.9-0.1-1.3c0-0.1,0-0.1-0.1-0.2c-0.1-0.4-0.2-0.8-0.3-1.2c0,0,0,0,0-0.1c-1-2.6-3.2-4.6-6-5.3
						l-44.8-10.1c-6.2-1.4-11-6.1-12.5-12.2l-26-104.9h0l-1.5-6.3c-1.3-5.2,1.1-10.7,5.9-13.2l42.3-22.4l8.5-4.5
						c3.6-1.9,6.2-5.1,7.6-8.7c1.2-3.2,1.4-6.8,0.4-10.3l-1.5-4.9l-13.1-43.8C1059.2,143.1,1058.8,142.3,1058.3,141.7z"/>
				</defs>
				<clipPath id="SVGID_6_">
					<use xlink:href="#SVGID_39_"  style="overflow:visible;"/>
				</clipPath>
				<g style="clip-path:url(#SVGID_6_);">
					<polygon class="st2" points="745.3,-11.4 793.4,-35.2 1154.5,692.8 1094.5,692.8 					"/>
					<polygon class="st2" points="817.2,-17.4 1176.1,706.3 1266,706.3 889.4,-53.2 					"/>
					<polygon class="st2" points="907.1,-17.4 1266,706.3 1355.9,706.3 979.3,-53.2 					"/>
					<polygon class="st11" points="727.3,-17.4 1086.2,706.3 1176.1,706.3 799.5,-53.2 					"/>
					<polygon class="st2" points="637.4,-17.4 996.3,706.3 1086.2,706.3 709.6,-53.2 					"/>
					<g>
						<polygon class="st11" points="1042.3,768.8 655.4,-11.4 703.5,-35.2 1102.2,768.8 						"/>
						<path class="st0" d="M697.4-17.2l383.1,772.6h-30L673.4-5.3L697.4-17.2 M709.6-53.2l-72.2,35.8l396.5,799.6h89.9L709.6-53.2
							L709.6-53.2z"/>
					</g>
					<polygon class="st0" points="547.5,-17.4 906.4,706.3 996.3,706.3 619.7,-53.2 					"/>
					<polygon class="st0" points="457.6,-17.4 816.5,706.3 906.4,706.3 529.8,-53.2 					"/>
				</g>
			</g>
		</g>
	</g>
	<path class="st0" d="M3261.8,406.9c0-226.6-158.7-317.4-365.6-317.4h-228.2v616.8h283.8C3132.6,706.3,3261.8,590.1,3261.8,406.9z"
		/>
	<g>
		<path d="M2906,282.5h-13.9v238.9h13.9c74.4,0,131.7-34.4,131.7-115.3C3037.7,319.4,2987.8,282.5,2906,282.5z"/>
	</g>
</g>
</svg>
