<?xml version="1.0" encoding="utf-8"?>
<!-- Generator: Adobe Illustrator 26.0.3, SVG Export Plug-In . SVG Version: 6.00 Build 0)  -->
<svg version="1.1" id="Layer_1" xmlns="http://www.w3.org/2000/svg" xmlns:xlink="http://www.w3.org/1999/xlink" x="0px" y="0px"
	 viewBox="0 0 3839 1096.9" style="enable-background:new 0 0 3839 1096.9;" xml:space="preserve">
<style type="text/css">
	.st0{fill:#1E1E1E;}
	.st1{fill:#FFFFFF;}
	.st2{fill:url(#SVGID_1_);}
	.st3{fill:url(#SVGID_00000013192912849767878140000002346350705298527158_);}
	.st4{fill:url(#SVGID_00000049903843178608911210000010965913556902532027_);}
	.st5{fill:url(#SVGID_00000060734943037924569000000017146901404164436357_);}
	.st6{fill:url(#SVGID_00000132792927416442877380000013359539870633140354_);}
	.st7{fill:url(#SVGID_00000064340686430417237770000002954044945264339899_);}
	.st8{fill:url(#SVGID_00000176745575386972108150000013679666817536307090_);}
	.st9{fill:url(#SVGID_00000057832771464311474060000000675904443509165243_);}
	.st10{fill:url(#SVGID_00000023254802971493838090000001685204306602465976_);}
	.st11{fill:url(#SVGID_00000129199354164834447850000017161358907168158904_);}
	.st12{fill:url(#SVGID_00000031181621372442051090000009176037563614162066_);}
	.st13{fill:url(#SVGID_00000048471116725744729890000006039994820979711914_);}
	.st14{fill:url(#SVGID_00000126317750371978411380000004001734059220536988_);}
	.st15{fill:#232244;}
	.st16{fill:url(#SVGID_00000036943067748971152760000014618832311232993677_);}
	.st17{fill:url(#SVGID_00000049198238525542393650000009008816194701864871_);}
	.st18{fill:#00FFF8;}
	.st19{fill:#FF0000;}
	.st20{fill:#0000FF;}
	.st21{stroke:#231F20;stroke-width:2.4791;stroke-miterlimit:10;}
	.st22{fill:#FFCE00;}
	.st23{fill:#339300;}
	.st24{fill:url(#SVGID_00000065777602571800054600000009999197674478335928_);}
	.st25{fill:url(#SVGID_00000126285875286050501810000018387039457755656098_);}
	.st26{fill:url(#SVGID_00000115509902324532686490000009002119566513596601_);}
	.st27{fill:url(#SVGID_00000126286125031727393550000017645898307370450828_);}
	.st28{fill:url(#SVGID_00000181770230243230132670000010461165446352993712_);}
	.st29{fill:#7C7C7C;}
	.st30{fill:url(#SVGID_00000127023991759584075820000007512232823688549563_);}
	.st31{fill:url(#SVGID_00000061444698318470166860000016397240156924477587_);}
	.st32{fill:url(#SVGID_00000056418784703019944150000007868527503962498485_);}
	.st33{fill:url(#SVGID_00000161613459269820816780000012861014829808549040_);}
	.st34{fill:url(#SVGID_00000051352650713473078340000014655140638616877239_);}
	.st35{fill:url(#SVGID_00000054959016943939970910000000269240627808316844_);}
	.st36{fill:url(#SVGID_00000134234892233440144160000006447903326951301809_);}
	.st37{fill:url(#SVGID_00000105421341872332625990000006781562773448459155_);}
	.st38{fill:url(#SVGID_00000163753582806714966290000004869487883138395055_);}
	.st39{fill:url(#SVGID_00000104698926960730468120000004821573097627601085_);}
	.st40{fill:url(#SVGID_00000045614128532527910850000001948792165611542461_);}
	.st41{fill:url(#SVGID_00000150092852018001011620000003412264615385903018_);}
	.st42{fill:url(#SVGID_00000179632066365433501030000001675987075128846224_);}
	.st43{fill:url(#SVGID_00000013878126362069100110000008895154794542258328_);}
	.st44{fill:url(#SVGID_00000042738587087778800350000004013799992049171329_);}
	.st45{fill:url(#SVGID_00000071534628610072770260000001330134474392251534_);}
	.st46{fill:url(#SVGID_00000015334047823113494200000004992630203043589273_);}
	.st47{fill:url(#SVGID_00000172404810934947636080000017677478089878698152_);}
	.st48{fill:url(#SVGID_00000117667755628326847060000008433300693918734486_);}
	.st49{fill:url(#SVGID_00000054256545024479541540000000836606026401653897_);}
	.st50{fill:url(#SVGID_00000044165894351422130620000017892572708278079620_);}
	.st51{fill:url(#SVGID_00000077309621149695055530000010598727967427208867_);}
</style>
<g>
	<g>
		<path class="st15" d="M3610.5,1051.2h-3382c-101,0-182.8-81.8-182.8-182.8V228.5c0-101,81.8-182.8,182.8-182.8h3382
			c101,0,182.8,81.8,182.8,182.8v639.8C3793.3,969.3,3711.4,1051.2,3610.5,1051.2z"/>
		<linearGradient id="SVGID_1_" gradientUnits="userSpaceOnUse" x1="0" y1="548.4304" x2="3839" y2="548.4304">
			<stop  offset="0" style="stop-color:#009EFF"/>
			<stop  offset="0.634" style="stop-color:#E13EE5"/>
			<stop  offset="1" style="stop-color:#FF7748"/>
		</linearGradient>
		<path class="st2" d="M3610.5,45.7c101,0,182.8,81.8,182.8,182.8v639.8c0,101-81.8,182.8-182.8,182.8h-3382
			c-101,0-182.8-81.8-182.8-182.8V228.5c0-101,81.8-182.8,182.8-182.8H3610.5 M3610.5,0h-3382c-30.8,0-60.8,6-89,18
			c-27.2,11.5-51.7,28-72.6,49c-21,21-37.4,45.4-49,72.6C6,167.8,0,197.7,0,228.5v639.8c0,30.8,6,60.8,18,89
			c11.5,27.2,28,51.7,49,72.6c21,21,45.4,37.4,72.6,49c28.2,11.9,58.1,18,89,18h3382c30.8,0,60.8-6,89-18c27.2-11.5,51.7-28,72.6-49
			c21-21,37.4-45.4,49-72.6c11.9-28.2,18-58.1,18-89V228.5c0-30.8-6-60.8-18-89c-11.5-27.2-28-51.7-49-72.6
			c-21-21-45.4-37.4-72.6-49C3671.2,6,3641.3,0,3610.5,0L3610.5,0z"/>
	</g>
	<g>
		<g>
			<g>
				
					<linearGradient id="SVGID_00000067932021601562821540000004008328249388503212_" gradientUnits="userSpaceOnUse" x1="319.9188" y1="571.285" x2="3519.0811" y2="571.285">
					<stop  offset="0" style="stop-color:#009EFF"/>
					<stop  offset="0.634" style="stop-color:#E13EE5"/>
					<stop  offset="1" style="stop-color:#FF7748"/>
				</linearGradient>
				<path style="fill:url(#SVGID_00000067932021601562821540000004008328249388503212_);" d="M1142.6,342.8h-91.4h0h0
					c-101,0-182.8,81.8-182.8,182.8l0,91.4v91.4v91.4h91.4h91.4v-91.4V617v-45.7c0-25.2,20.5-45.7,45.7-45.7h45.7h91.4h91.4v-91.4
					H1234L1142.6,342.8z M2787.8,342.8L2787.8,342.8L2787.8,342.8h-91.4H2605l0,0h-91.4v91.4h0l91.4,91.4h91.4h45.7
					c25.2,0,45.7,20.5,45.7,45.7c0,25.2-20.5,45.7-45.7,45.7h-45.7l-91.4,91.4h-91.4v91.4h91.4h91.4h91.4v0h0
					c101,0,182.8-81.8,182.8-182.8v0v-91.4v0C2970.7,424.6,2888.8,342.8,2787.8,342.8z M3107.8,617c25.2,0,45.7-20.5,45.7-45.7
					c0-25.2-20.5-45.7-45.7-45.7l0,0c-25.2,0-45.7,20.5-45.7,45.7C3062.1,596.5,3082.5,617,3107.8,617L3107.8,617z M2559.3,617
					c25.2,0,45.7-20.5,45.7-45.7c0-25.2-20.5-45.7-45.7-45.7l0,0c-25.2,0-45.7,20.5-45.7,45.7C2513.6,596.5,2534.1,617,2559.3,617
					L2559.3,617z M3427.7,342.8h-91.4h-91.4h-91.4h-91.4v91.4l91.4,91.4l91.4,91.4h91.4h45.7c25.2,0,45.7-20.5,45.7-45.7
					c0-25.2-20.5-45.7-45.7-45.7h-45.7h-45.7c-25.2,0-45.7-20.5-45.7-45.7v0c0-25.2,20.5-45.7,45.7-45.7h45.7h91.4h91.4v-91.4
					H3427.7z M3336.3,708.4h-91.4h-91.4h-91.4v91.4h91.4h91.4h91.4h91.4h91.4l-91.4-91.4H3336.3z M1188.3,617L1188.3,617
					c-25.2,0-45.7,20.5-45.7,45.7v0c0,25.2,20.5,45.7,45.7,45.7h0c25.2,0,45.7-20.5,45.7-45.7v0C1234,637.4,1213.5,617,1188.3,617z
					 M1782.4,434.2H1691l-91.4-91.4h0h0c-101,0-182.8,81.8-182.8,182.8l0,0V617h0v0c0,101,81.8,182.8,182.8,182.8h0v0l274.2,0v-91.4
					l-91.4-91.4H1691h-45.7c-25.2,0-45.7-20.5-45.7-45.7c0-25.2,20.5-45.7,45.7-45.7l228.5,0V342.8h-91.4V434.2z M2239.4,342.8
					L2239.4,342.8H2148c-101,0-182.8,81.8-182.8,182.8v274.2h91.4l91.4-91.4h91.4v91.4h91.4l91.4-91.4V617v-91.4
					C2422.2,424.6,2340.4,342.8,2239.4,342.8z M2239.4,571.3c0,25.2-20.5,45.7-45.7,45.7h0c-25.2,0-45.7-20.5-45.7-45.7
					c0-25.2,20.5-45.7,45.7-45.7h0C2219,525.6,2239.4,546,2239.4,571.3L2239.4,571.3z M594.1,342.8L594.1,342.8h-91.4
					c-101,0-182.8,81.8-182.8,182.8v274.2h91.4l91.4-91.4h91.4v91.4h91.4l91.4-91.4V617v-91.4C776.9,424.6,695.1,342.8,594.1,342.8z
					 M594.1,571.3c0,25.2-20.5,45.7-45.7,45.7h0c-25.2,0-45.7-20.5-45.7-45.7c0-25.2,20.5-45.7,45.7-45.7h0
					C573.7,525.6,594.1,546,594.1,571.3L594.1,571.3z"/>
			</g>
		</g>
		<g>
			<g>
				<path class="st1" d="M1142.6,297.1h-91.4h0h0c-101,0-182.8,81.8-182.8,182.8l0,91.4v91.4v91.4h91.4h91.4v-91.4v-91.4v-45.7
					c0-25.2,20.5-45.7,45.7-45.7h45.7h91.4h91.4v-91.4H1234L1142.6,297.1z M2787.8,297.1L2787.8,297.1L2787.8,297.1h-91.4H2605l0,0
					h-91.4v91.4h0l91.4,91.4h91.4h45.7c25.2,0,45.7,20.5,45.7,45.7c0,25.2-20.5,45.7-45.7,45.7h-45.7l-91.4,91.4h-91.4v91.4h91.4
					h91.4h91.4v0h0c101,0,182.8-81.8,182.8-182.8v0v-91.4v0C2970.7,378.9,2888.8,297.1,2787.8,297.1z M3107.8,571.3
					c25.2,0,45.7-20.5,45.7-45.7c0-25.2-20.5-45.7-45.7-45.7l0,0c-25.2,0-45.7,20.5-45.7,45.7
					C3062.1,550.8,3082.5,571.3,3107.8,571.3L3107.8,571.3z M2559.3,571.3c25.2,0,45.7-20.5,45.7-45.7c0-25.2-20.5-45.7-45.7-45.7
					l0,0c-25.2,0-45.7,20.5-45.7,45.7C2513.6,550.8,2534.1,571.3,2559.3,571.3L2559.3,571.3z M3427.7,297.1h-91.4h-91.4h-91.4h-91.4
					v91.4l91.4,91.4l91.4,91.4h91.4h45.7c25.2,0,45.7-20.5,45.7-45.7c0-25.2-20.5-45.7-45.7-45.7h-45.7h-45.7
					c-25.2,0-45.7-20.5-45.7-45.7v0c0-25.2,20.5-45.7,45.7-45.7h45.7h91.4h91.4v-91.4H3427.7z M3336.3,662.7h-91.4h-91.4h-91.4v91.4
					h91.4h91.4h91.4h91.4h91.4l-91.4-91.4H3336.3z M1188.3,571.3L1188.3,571.3c-25.2,0-45.7,20.5-45.7,45.7v0
					c0,25.2,20.5,45.7,45.7,45.7h0c25.2,0,45.7-20.5,45.7-45.7v0C1234,591.7,1213.5,571.3,1188.3,571.3z M1782.4,388.5H1691
					l-91.4-91.4h0h0c-101,0-182.8,81.8-182.8,182.8l0,0v91.4h0v0c0,101,81.8,182.8,182.8,182.8h0v0l274.2,0v-91.4l-91.4-91.4H1691
					h-45.7c-25.2,0-45.7-20.5-45.7-45.7c0-25.2,20.5-45.7,45.7-45.7l228.5,0V297.1h-91.4V388.5z M2239.4,297.1L2239.4,297.1H2148
					c-101,0-182.8,81.8-182.8,182.8v274.2h91.4l91.4-91.4h91.4v91.4h91.4l91.4-91.4v-91.4v-91.4
					C2422.2,378.9,2340.4,297.1,2239.4,297.1z M2239.4,525.6c0,25.2-20.5,45.7-45.7,45.7h0c-25.2,0-45.7-20.5-45.7-45.7v0
					c0-25.2,20.5-45.7,45.7-45.7h0C2219,479.9,2239.4,500.3,2239.4,525.6L2239.4,525.6z M594.1,297.1L594.1,297.1h-91.4
					c-101,0-182.8,81.8-182.8,182.8v274.2h91.4l91.4-91.4h91.4v91.4h91.4l91.4-91.4v-91.4v-91.4
					C776.9,378.9,695.1,297.1,594.1,297.1z M594.1,525.6c0,25.2-20.5,45.7-45.7,45.7h0c-25.2,0-45.7-20.5-45.7-45.7v0
					c0-25.2,20.5-45.7,45.7-45.7h0C573.7,479.9,594.1,500.3,594.1,525.6L594.1,525.6z"/>
			</g>
		</g>
	</g>
</g>
</svg>
