<?xml version="1.0" encoding="utf-8"?>
<!-- Generator: Adobe Illustrator 26.0.3, SVG Export Plug-In . SVG Version: 6.00 Build 0)  -->
<svg version="1.1" id="Layer_1" xmlns="http://www.w3.org/2000/svg" xmlns:xlink="http://www.w3.org/1999/xlink" x="0px" y="0px"
	 viewBox="0 0 3839 1030" style="enable-background:new 0 0 3839 1030;" xml:space="preserve">
<style type="text/css">
	.st0{fill:#1E1E1E;}
	.st1{fill:#FFFFFF;}
	.st2{fill:url(#SVGID_1_);}
	.st3{fill:url(#SVGID_00000180349446421451157510000010689231274279989425_);}
	.st4{fill:url(#SVGID_00000163051435724065701370000016973442392124101021_);}
	.st5{fill:url(#SVGID_00000028290603016471373800000006778175885397854652_);}
	.st6{fill:url(#SVGID_00000065061243687078034230000004843230445649936303_);}
	.st7{fill:url(#SVGID_00000080196618945819751960000003110204835759414411_);}
	.st8{fill:url(#SVGID_00000147212299211707683100000006423219835876985241_);}
	.st9{fill:url(#SVGID_00000168822192873801207090000003571994273956041868_);}
	.st10{fill:url(#SVGID_00000013915421170208954650000012330790299769767335_);}
	.st11{fill:url(#SVGID_00000038379042981832390350000007801434799982786732_);}
	.st12{fill:url(#SVGID_00000093157704144795796510000009180036749870262915_);}
	.st13{fill:url(#SVGID_00000039100124935625135830000017337868067603039398_);}
	.st14{fill:url(#SVGID_00000062881143756087837210000017113462468750245821_);}
	.st15{fill:#232244;}
	.st16{fill:url(#SVGID_00000146485900632004942200000004622433717177079445_);}
	.st17{fill:url(#SVGID_00000124130506384284345940000010286824336097655988_);}
	.st18{fill:#00FFF8;}
	.st19{fill:#FF0000;}
	.st20{fill:#0000FF;}
	.st21{stroke:#231F20;stroke-width:2.4791;stroke-miterlimit:10;}
	.st22{fill:#FFCE00;}
	.st23{fill:#339300;}
	.st24{fill:url(#SVGID_00000044164295699080086790000015968187811487518353_);}
	.st25{fill:url(#SVGID_00000101786819327916820690000009953525146802397114_);}
	.st26{fill:url(#SVGID_00000088110652445386158080000000121573900196924852_);}
	.st27{fill:url(#SVGID_00000029030493711255509360000012573327776432394881_);}
	.st28{fill:url(#SVGID_00000164483700539262935220000013046075757046992010_);}
	.st29{fill:#7C7C7C;}
	.st30{fill:url(#SVGID_00000059282719114161717460000004173693392567295410_);}
	.st31{fill:url(#SVGID_00000034072441789872530200000009235592909181154463_);}
	.st32{fill:url(#SVGID_00000062897416676923560090000008357973695606225828_);}
	.st33{fill:url(#SVGID_00000012434457412585957240000014544654533711741591_);}
	.st34{fill:url(#SVGID_00000069356988074585378160000009325531971362666881_);}
	.st35{fill:url(#SVGID_00000028292973936191042820000018049174846429254791_);}
	.st36{fill:url(#SVGID_00000132802699485740259160000002143751704567959995_);}
	.st37{fill:url(#SVGID_00000129912802095844923900000003807227786446805416_);}
	.st38{fill:url(#SVGID_00000011004257829500520810000007729590485745989250_);}
	.st39{fill:url(#SVGID_00000000916946893770396440000010587520658677928595_);}
	.st40{fill:url(#SVGID_00000145018787027890824290000011777470767286688897_);}
	.st41{fill:url(#SVGID_00000049204089064407788510000004890239866664939691_);}
	.st42{fill:url(#SVGID_00000133530976133615331750000017677630670725971077_);}
	.st43{fill:url(#SVGID_00000138532540411086924060000002541920069992267711_);}
	.st44{fill:url(#SVGID_00000083065618494327895840000013388400349975267729_);}
	.st45{fill:url(#SVGID_00000020399186369298233260000010618228321882268559_);}
	.st46{fill:url(#SVGID_00000095320263122941684530000014439078927921376658_);}
	.st47{fill:url(#SVGID_00000044136689842066789730000014843294213858050208_);}
	.st48{fill:url(#SVGID_00000035526232579095625850000012019957335997928356_);}
	.st49{fill:url(#SVGID_00000013897720770018680300000007637246227968585859_);}
	.st50{fill:url(#SVGID_00000133513580787843396120000006907487763232482493_);}
	.st51{fill:url(#SVGID_00000036967022335795243280000005260144662742018182_);}
</style>
<g>
	<linearGradient id="SVGID_1_" gradientUnits="userSpaceOnUse" x1="0" y1="514.9877" x2="3839" y2="514.9877">
		<stop  offset="0" style="stop-color:#009EFF"/>
		<stop  offset="0.634" style="stop-color:#E13EE5"/>
		<stop  offset="1" style="stop-color:#FF7748"/>
	</linearGradient>
	<path class="st2" d="M3651.7,1030H187.3C83.8,1030,0,946.1,0,842.7V187.3C0,83.8,83.8,0,187.3,0h3464.5
		C3755.2,0,3839,83.8,3839,187.3v655.4C3839,946.1,3755.2,1030,3651.7,1030z"/>
	<g>
		<g>
			<path class="st1" d="M1123.6,280.9H1030h0h0c-103.4,0-187.3,83.8-187.3,187.3l0,93.6v93.6v93.6h93.6h93.6v-93.6v-93.6V515
				c0-25.9,21-46.8,46.8-46.8h46.8h93.6h93.6v-93.6h-93.6L1123.6,280.9z M2809,280.9L2809,280.9L2809,280.9h-93.6h-93.6h0h-93.6
				v93.6h0l93.6,93.6h93.6h46.8c25.9,0,46.8,21,46.8,46.8c0,25.9-21,46.8-46.8,46.8h-46.8l-93.6,93.6h-93.6v93.6h93.6h93.6h93.6h0
				c103.4,0,187.3-83.8,187.3-187.3v0v-93.6v0C2996.3,364.7,2912.5,280.9,2809,280.9z M3183.6,515c0-25.9-21-46.8-46.8-46.8
				s-46.8,21-46.8,46.8c0,25.9,21,46.8,46.8,46.8S3183.6,540.8,3183.6,515z M2574.9,561.8c25.9,0,46.8-21,46.8-46.8
				c0-25.9-21-46.8-46.8-46.8l0,0c-25.9,0-46.8,21-46.8,46.8C2528.1,540.8,2549.1,561.8,2574.9,561.8L2574.9,561.8z M3464.5,280.9
				h-93.6h-93.6h-93.6h-93.6v93.6l93.6,93.6l93.6,93.6h93.6h46.8c25.9,0,46.8-21,46.8-46.8c0-25.9-21-46.8-46.8-46.8h-46.8H3324
				c-25.9,0-46.8-21-46.8-46.8v0c0-25.9,21-46.8,46.8-46.8h46.8h93.6h93.6v-93.6H3464.5z M3370.8,655.4h-93.6h-93.6h-93.6v93.6h93.6
				h93.6h93.6h93.6h93.6l-93.6-93.6H3370.8z M1170.4,561.8L1170.4,561.8c-25.9,0-46.8,21-46.8,46.8v0c0,25.9,21,46.8,46.8,46.8h0
				c25.9,0,46.8-21,46.8-46.8S1196.3,561.8,1170.4,561.8z M1779,374.5h-93.6l-93.6-93.6h0h0c-103.4,0-187.3,83.8-187.3,187.3l0,0
				v93.6h0v0c0,103.4,83.8,187.3,187.3,187.3h0h280.9l0-93.6l-93.6-93.6h-93.6h-46.8c-25.9,0-46.8-21-46.8-46.8
				c0-25.9,21-46.8,46.8-46.8h234.1V280.9H1779V374.5z M2247.2,280.9L2247.2,280.9h-93.6c-103.4,0-187.3,83.8-187.3,187.3v280.9
				h93.6l93.6-93.6h93.6v93.6h93.6l93.6-93.6v-93.6v-93.6C2434.5,364.7,2350.6,280.9,2247.2,280.9z M2247.2,515
				c0,25.9-21,46.8-46.8,46.8h0c-25.9,0-46.8-21-46.8-46.8c0-25.9,21-46.8,46.8-46.8l0,0C2226.3,468.2,2247.2,489.1,2247.2,515
				L2247.2,515z M561.8,280.9L561.8,280.9h-93.6c-103.4,0-187.3,83.8-187.3,187.3v280.9h93.6l93.6-93.6h93.6v93.6h93.6l93.6-93.6
				v-93.6v-93.6C749.1,364.7,665.2,280.9,561.8,280.9z M561.8,515c0,25.9-21,46.8-46.8,46.8h0c-25.9,0-46.8-21-46.8-46.8
				c0-25.9,21-46.8,46.8-46.8h0C540.8,468.2,561.8,489.1,561.8,515L561.8,515z"/>
		</g>
	</g>
</g>
</svg>
