<?xml version="1.0" encoding="utf-8"?>
<!-- Generator: Adobe Illustrator 26.0.3, SVG Export Plug-In . SVG Version: 6.00 Build 0)  -->
<svg version="1.1" id="Layer_1" xmlns="http://www.w3.org/2000/svg" xmlns:xlink="http://www.w3.org/1999/xlink" x="0px" y="0px"
	 viewBox="0 0 3839 608.7" style="enable-background:new 0 0 3839 608.7;" xml:space="preserve">
<style type="text/css">
	.st0{fill:#FFFFFF;}
	.st1{fill:#FF0000;}
	.st2{fill:url(#SVGID_1_);}
	.st3{fill:url(#SVGID_00000088104516696089606500000014342370262170933665_);}
	.st4{fill:url(#SVGID_00000070088238723557859540000003552878264045030034_);}
	.st5{fill:url(#SVGID_00000158733628093039839240000015863908002055361445_);}
	.st6{fill:url(#SVGID_00000083767328145485132390000000322758794388005779_);}
	.st7{fill:url(#SVGID_00000114044707211586929310000002086049290886991011_);}
	.st8{fill:#3636FF;}
	.st9{display:none;}
	.st10{display:inline;}
	.st11{enable-background:new    ;}
	.st12{fill:url(#SVGID_00000098910292379038362740000000723835928769402526_);}
	.st13{fill:url(#SVGID_00000064332816012410644870000004596064100954517172_);}
	.st14{fill:url(#SVGID_00000041256705375759899340000015442012296671463064_);}
	.st15{fill:url(#SVGID_00000069395798062803026020000006373492448711182245_);}
	.st16{fill:url(#SVGID_00000002374005414329953700000009768805211125044649_);}
	.st17{fill:url(#SVGID_00000183941817629587258860000014257354372795496844_);}
	.st18{fill:url(#SVGID_00000072253337253207975430000005849381120152919973_);}
	.st19{fill:url(#SVGID_00000060710751140478087820000008039152908628110763_);}
	.st20{fill:url(#SVGID_00000114787236916084680510000010930522358419105937_);}
	.st21{fill:url(#SVGID_00000016793852255864243750000012457795194070995107_);}
	.st22{fill:url(#SVGID_00000071545883748312471350000007354252922611372422_);}
	.st23{fill:url(#SVGID_00000099635654600014528080000010206723311173852061_);}
	.st24{fill:url(#SVGID_00000145772678415604412720000003171643094595706044_);}
	.st25{fill:url(#SVGID_00000058576924536801431820000008728289558739257478_);}
	.st26{fill:url(#SVGID_00000097467811112831125390000010482119874390879397_);}
	.st27{fill:url(#SVGID_00000013909367299324105370000016910065314013637785_);}
	.st28{fill:url(#SVGID_00000093175717644435066260000000659280653156263065_);}
	.st29{fill:url(#SVGID_00000133502819184773532820000016938560235505483964_);}
	.st30{fill:url(#SVGID_00000067953948119472514010000017847905073360624521_);}
	.st31{fill:url(#SVGID_00000060749641781019292080000012533244131869976762_);}
	.st32{fill:url(#SVGID_00000058579327739000499830000011859472825670694309_);}
	.st33{fill:url(#SVGID_00000160158506174199105200000016823308856216139396_);}
	.st34{fill:url(#SVGID_00000124870936923780334810000002302620087932644785_);}
	.st35{fill:url(#SVGID_00000139291129428058245020000003975372525260733842_);}
	.st36{fill:url(#SVGID_00000140719315386209696080000006149714406986841788_);}
	.st37{fill:url(#SVGID_00000069361627705125382340000003558705741384093085_);}
	.st38{fill:url(#SVGID_00000017477767025875723830000011885386881635017136_);}
	.st39{fill:url(#SVGID_00000061462181853812782490000000284109134918931101_);}
</style>
<g>
	<path class="st8" d="M403.6,8.3h193.5l88.4,587.9H477.8l-10-78.4H263.5l-50.9,78.4H0L403.6,8.3z M457,379.4l-15.8-141.8
		l-90.9,141.8H457z"/>
	<path class="st8" d="M856.4,12.5h227.7c107.6,0,176,23.3,215.1,62.5c32.5,32.5,45.9,75.9,45.9,121.7c0,90.9-47.5,169.3-162.6,205.1
		l80.9,194.3h-210.1l-65-166.8h-48.4l-45,166.8H699.6L856.4,12.5z M1047.4,290.2c65,0,99.2-30,99.2-66.7c0-11.7-4.2-22.5-12.5-30.9
		c-10.8-10.8-30-16.7-57.5-16.7h-69.2l-30.9,114.2H1047.4z"/>
	<path class="st8" d="M1360.7,352.7C1360.7,193.5,1483.3,0,1735.1,0c125.9,0,215.1,66.7,239.3,170.1L1800.2,246
		c-12.5-47.5-46.7-70.9-90.9-70.9c-87.6,0-144.3,80.1-144.3,160.1c0,64.2,40,100.1,91.7,100.1c45,0,81.7-21.7,113.4-60.9
		l135.1,106.7c-58.4,76.7-143.4,127.6-267.7,127.6C1474.1,608.7,1360.7,509.5,1360.7,352.7z"/>
	<path class="st8" d="M2266.3,8.3h193.5l88.4,587.9h-207.6l-10-78.4h-204.3l-50.9,78.4h-212.6L2266.3,8.3z M2319.7,379.4
		l-15.8-141.8l-90.9,141.8H2319.7z"/>
	<path class="st8" d="M2719.1,12.5h206.8c113.4,0,184.3,30.9,228.5,75c43.4,43.4,63.4,100.1,63.4,170.9
		c0,87.6-33.4,167.6-95.9,230.2c-70,70-170.9,107.6-306,107.6h-253.5L2719.1,12.5z M2837.5,426.1c59.2,0,110.1-17.5,140.1-47.5
		c24.2-24.2,41.7-63.4,41.7-99.2c0-31.7-9.2-52.5-24.2-67.5c-18.3-18.3-47.5-29.2-94.2-29.2h-32.5l-65,243.5H2837.5z"/>
	<path class="st8" d="M3341.2,12.5H3839l-43.4,160.1h-306l-15.8,59.2h285.2l-37.5,140.9h-285.2l-17.5,63.4h310.2l-42.5,160.1h-502
		L3341.2,12.5z"/>
</g>
</svg>
