<?xml version="1.0" encoding="utf-8"?>
<!-- Generator: Adobe Illustrator 26.0.3, SVG Export Plug-In . SVG Version: 6.00 Build 0)  -->
<svg version="1.1" id="Layer_1" xmlns="http://www.w3.org/2000/svg" xmlns:xlink="http://www.w3.org/1999/xlink" x="0px" y="0px"
	 viewBox="0 0 3839 1227.5" style="enable-background:new 0 0 3839 1227.5;" xml:space="preserve">
<style type="text/css">
	.st0{fill:#231F20;}
	.st1{fill:#FFFFFF;}
	.st2{fill:url(#SVGID_1_);}
	.st3{fill:url(#SVGID_00000054988927559068868450000011006336732693943180_);}
	.st4{fill:url(#SVGID_00000166662564356695713110000004111299098062946738_);}
	.st5{fill:url(#SVGID_00000152965354114993365030000016173165895226691742_);}
	.st6{fill:url(#SVGID_00000079453689717329377160000017929084202657124783_);}
	.st7{fill:url(#SVGID_00000011001787230460720210000001046229214215155611_);}
	.st8{fill:url(#SVGID_00000055702262430109656920000009467637219233839541_);}
	.st9{fill:url(#SVGID_00000176037461324820898730000009634191036387845292_);}
	.st10{fill:url(#SVGID_00000080924788421456653260000017400685469569141134_);}
	.st11{fill:url(#SVGID_00000046338327859348430720000000915820887075801516_);}
	.st12{fill:url(#SVGID_00000041284092049083811480000017633852779164943775_);}
	.st13{fill:url(#SVGID_00000093899699594389052870000016568012604548937634_);}
	.st14{fill:url(#SVGID_00000160912342114082600850000001292567538820683177_);}
	.st15{display:none;}
	.st16{display:inline;fill:#FF0642;}
	.st17{display:inline;fill:#FFFFFF;stroke:#000000;stroke-width:0.4864;stroke-miterlimit:10;}
	.st18{display:inline;fill:#FFCB04;}
	.st19{fill:#034EA2;}
	.st20{fill:url(#SVGID_00000120525802806000007560000000771840585735808427_);}
	.st21{fill:url(#SVGID_00000052078112442179691980000008322177116220619953_);}
	.st22{fill:url(#SVGID_00000025404667786494684140000001290070561152866720_);}
	.st23{fill:url(#SVGID_00000016764599381867621770000001100064761012998280_);}
	.st24{fill:url(#SVGID_00000101813249586758944340000012358267936420441770_);}
	.st25{fill:url(#SVGID_00000131366405414762295450000016092794429520012978_);}
	.st26{fill:url(#SVGID_00000001661586506254816560000002906536876932714372_);}
	.st27{fill:url(#SVGID_00000074424110296817897910000012374220215641643392_);}
	.st28{fill:url(#SVGID_00000006680564830733306220000002606199003362905519_);}
	.st29{fill:url(#SVGID_00000049190564269879507040000009649537442877052078_);}
	.st30{fill:url(#SVGID_00000166634096395891396830000018114817880682568327_);}
	.st31{fill:url(#SVGID_00000061460905901866501780000017543661210821035427_);}
	.st32{fill:url(#SVGID_00000068660504629786886410000002637133534782642618_);}
	.st33{display:inline;fill:#FFFFFF;stroke:#000000;stroke-width:0.4884;stroke-miterlimit:10;}
	.st34{fill:url(#SVGID_00000140710504143642913600000014645825017107618199_);}
	.st35{fill:url(#SVGID_00000162353249145508212300000008075167646165652158_);}
	.st36{fill:url(#SVGID_00000108292643284941754690000004000083459602533030_);}
	.st37{fill:url(#SVGID_00000174595292573526074130000009323646227759085739_);}
	.st38{fill:url(#SVGID_00000002383607646894731990000005963412296229033872_);}
	.st39{fill:url(#SVGID_00000114044633982185275340000014639544810356621224_);}
	.st40{fill:url(#SVGID_00000170268650094388101560000008880146727215708850_);}
	.st41{fill:url(#SVGID_00000034774648484253978220000008696777739475377041_);}
	.st42{fill:url(#SVGID_00000096755453745193348230000007890768683508820353_);}
	.st43{fill:url(#SVGID_00000072986623037602320540000018027423548689287063_);}
	.st44{fill:url(#SVGID_00000124848347340492108330000009743797824944275603_);}
	.st45{fill:url(#SVGID_00000183214273660953896140000015379557613570329992_);}
	.st46{fill:url(#SVGID_00000137822249880859067080000004048823727386976393_);}
	.st47{display:inline;fill:#FFFFFF;stroke:#000000;stroke-width:0.5156;stroke-miterlimit:10;}
	.st48{fill:url(#SVGID_00000016063994809136069260000006574133865367878827_);}
	.st49{fill:url(#SVGID_00000070081745846922580510000016809544519674626985_);}
	.st50{fill:url(#SVGID_00000038373602365211570080000016381305708160896168_);}
	.st51{fill:url(#SVGID_00000128482517863789067210000014010653084506768559_);}
	.st52{fill:url(#SVGID_00000065064949174065265590000008522643372330145935_);}
	.st53{fill:url(#SVGID_00000085243687072912022840000018406791090336423345_);}
	.st54{fill:url(#SVGID_00000037677384510043845960000014247866675840606350_);}
	.st55{fill:url(#SVGID_00000090279723013434432830000000023993440460597167_);}
	.st56{fill:url(#SVGID_00000093169848272689374600000003336065471633746879_);}
	.st57{fill:url(#SVGID_00000165223449706029737460000004691072590982421943_);}
	.st58{fill:url(#SVGID_00000082364489432466594070000007312731047570652821_);}
	.st59{fill:url(#SVGID_00000167396083094776351200000009830729955442998415_);}
	.st60{fill:url(#SVGID_00000143577973357267578990000007858693592861033394_);}
	.st61{fill:#FFCB04;}
	.st62{fill:url(#SVGID_00000134249967324742353410000012392951332188679079_);}
	.st63{fill:url(#SVGID_00000127754594461430663470000016502968311519384985_);}
	.st64{fill:url(#SVGID_00000113333274605937505830000017059632446904849057_);}
	.st65{fill:url(#SVGID_00000084515033243159590420000016335768971268926390_);}
	.st66{fill:url(#SVGID_00000177449055218930763360000010721283020465426347_);}
	.st67{fill:url(#SVGID_00000016039062457441328170000013901556398313688972_);}
	.st68{fill:url(#SVGID_00000074443461830286170200000000159699250285233039_);}
	.st69{fill:url(#SVGID_00000021815078468245792760000017885811319472054402_);}
	.st70{fill:url(#SVGID_00000013913391514657174350000014993382539013039792_);}
	.st71{fill:url(#SVGID_00000056395792759284678890000012881454634934986925_);}
	.st72{fill:url(#SVGID_00000042002354252031305920000003889292063697352600_);}
	.st73{fill:url(#SVGID_00000181799177405998132090000008820523324555667600_);}
	.st74{fill:url(#SVGID_00000165217994087789534160000011799952594379658920_);}
	.st75{fill:url(#SVGID_00000173152929774755665360000009158421402077868217_);}
	.st76{fill:url(#SVGID_00000077307881576670766810000013168350659997775780_);}
	.st77{fill:url(#SVGID_00000089542601461778621330000009638616898842344850_);}
	.st78{fill:url(#SVGID_00000176756038718855087000000012943755180394718653_);}
	.st79{fill:url(#SVGID_00000068647595750097128980000010774357609881896322_);}
	.st80{fill:url(#SVGID_00000119833919461677690350000013299478240536994432_);}
	.st81{fill:url(#SVGID_00000034064548282336290160000012509269787881837475_);}
	.st82{fill:url(#SVGID_00000155865372647304930770000008100284126560873607_);}
	.st83{fill:url(#SVGID_00000113351207626521629170000006105145905749640892_);}
	.st84{fill:url(#SVGID_00000062184369769093361050000008606187732716192667_);}
	.st85{fill:url(#SVGID_00000159454516871788597530000008966877193586128523_);}
	.st86{fill:url(#SVGID_00000026872142681108065610000001835185825897857464_);}
	.st87{fill:url(#SVGID_00000062188715181741483710000010884963357162756775_);}
	.st88{fill:url(#SVGID_00000054963908037735526750000015031145968606168459_);}
	.st89{fill:url(#SVGID_00000142899156823365054730000004498719280161312179_);}
	.st90{fill:url(#SVGID_00000104701006012456342530000010220688136968782480_);}
	.st91{fill:url(#SVGID_00000016043720393828756400000002661911163039581093_);}
	.st92{fill:url(#SVGID_00000025401240010817712130000012636728344671546532_);}
	.st93{fill:url(#SVGID_00000090286603874084114410000003016626495648614811_);}
	.st94{fill:url(#SVGID_00000112594874077545388360000008970968806349855656_);}
	.st95{fill:url(#SVGID_00000163052134044715540170000012940850523319453326_);}
	.st96{fill:url(#SVGID_00000093876386794521410770000015870522880523252392_);}
	.st97{fill:url(#SVGID_00000073719410335252831350000000890333687844147607_);}
	.st98{fill:url(#SVGID_00000049218032134796425420000016754766901722055615_);}
	.st99{fill:url(#SVGID_00000120519250889737112360000003936835957834480782_);}
	.st100{fill:url(#SVGID_00000020362006890729517360000014972537685254371230_);}
	.st101{fill:url(#SVGID_00000007391865888864180300000003993501242099120281_);}
	.st102{fill:url(#SVGID_00000103260546409127274120000017949554877185045670_);}
	.st103{fill:url(#SVGID_00000143613853165162651520000018386182585169964421_);}
	.st104{fill:url(#SVGID_00000146479034485541214190000015912298879335321520_);}
	.st105{fill:url(#SVGID_00000163765409021870248090000004926067658754204814_);}
	.st106{fill:url(#SVGID_00000091015312108226004240000001651402808116297151_);}
	.st107{fill:url(#SVGID_00000040567768327734585000000005161797464905186477_);}
	.st108{fill:url(#SVGID_00000165221646397182842920000012778334471784265864_);}
	.st109{fill:url(#SVGID_00000067198284908541257610000004352197469057125034_);}
	.st110{fill:url(#SVGID_00000095321921706541830970000001230008970043580309_);}
	.st111{fill:url(#SVGID_00000067915310034404541920000007160626367757885329_);}
	.st112{fill:url(#SVGID_00000096756684664748396560000010134482052840751293_);}
	.st113{fill:url(#SVGID_00000093163729378469761780000012355233482778447242_);}
	.st114{fill:#007CFF;}
	.st115{fill:url(#SVGID_00000023250712773396331390000009096425130134381484_);}
	.st116{fill:url(#SVGID_00000118365186158712769000000003886204309417841545_);}
	.st117{fill:url(#SVGID_00000094589841519678996220000000696782453747968428_);}
	.st118{fill:url(#SVGID_00000035491223015300902550000009930908513369504953_);}
	.st119{fill:url(#SVGID_00000052811395425528312300000003780142135131397535_);}
	.st120{fill:url(#SVGID_00000092433706436923787270000004177104694272636342_);}
	.st121{fill:url(#SVGID_00000116943593806403967680000013781144346731199876_);}
	.st122{fill:url(#SVGID_00000111895922155675511030000002208807425119489959_);}
	.st123{fill:url(#SVGID_00000009567569928981941920000001793009163216832172_);}
	.st124{fill:url(#SVGID_00000117673906916540665370000004138997472933525161_);}
	.st125{fill:url(#SVGID_00000074437844332829576290000001729171346703572865_);}
	.st126{fill:url(#SVGID_00000015357003037034687730000013542192315648157842_);}
	.st127{fill:url(#SVGID_00000039813225790329350710000015810191205151572385_);}
	.st128{fill:url(#SVGID_00000000901689080467417840000017638489083841580971_);}
	.st129{fill:url(#SVGID_00000104703932908385147330000004889472640038941831_);}
	.st130{fill:url(#SVGID_00000048502606447936751990000004314594044650665870_);}
	.st131{fill:url(#SVGID_00000085972893623383475930000005651243052240243351_);}
	.st132{fill:url(#SVGID_00000103956482131089776000000005878251022004034198_);}
	.st133{fill:url(#SVGID_00000062891331925114095600000002018191531006315427_);}
	.st134{fill:url(#SVGID_00000054238803377338313370000007467334087587506871_);}
	.st135{fill:url(#SVGID_00000119814179458792371770000011953877945901249209_);}
	.st136{fill:url(#SVGID_00000093145640600316420350000002248699638878638215_);}
	.st137{fill:url(#SVGID_00000027576271627665876810000003224009484003576212_);}
	.st138{fill:url(#SVGID_00000073686229356885469430000005601266011204064152_);}
	.st139{fill:url(#SVGID_00000099633228963850669700000013713502810822675130_);}
	.st140{fill:url(#SVGID_00000128486231954147863800000011523893968514828439_);}
	.st141{display:inline;fill:#FFFFFF;stroke:#000000;stroke-width:0.6411;stroke-miterlimit:10;}
</style>
<g>
	<g>
		<g>
			<path class="st19" d="M913.2,1227.5c-90.9,0-157.9-71.5-157.9-162.4c0-90,66.6-163.3,159.3-163.3c57.1,0,91.3,20.2,122.8,49.9
				l-24.3,26.1c-26.5-25.2-56.2-43.2-99-43.2c-69.7,0-121.9,56.2-121.9,129.6c0,73.4,52.6,130.5,121.9,130.5
				c43.2,0,71.5-16.6,101.7-45.4l23.4,23C1006.2,1205.5,970.2,1227.5,913.2,1227.5z"/>
			<path class="st19" d="M1114.7,907.2h35.5v282.1h177.3v32.8h-212.7V907.2z"/>
			<path class="st19" d="M1700,1222.1h-38.2l-36.9-83.2h-171.4l-37.3,83.2h-36.6L1523.1,905h33.3L1700,1222.1z M1539.3,946.4
				l-72,160.6h143.5L1539.3,946.4z"/>
			<path class="st19" d="M1882.1,1047.6c70.2,15.3,102.6,40.9,102.6,89.5c0,54.5-45,89.5-107.5,89.5c-49.9,0-90.9-16.7-128.7-50.4
				l22-26.1c32.8,29.7,64.3,44.5,108,44.5c42.3,0,70.2-22,70.2-54c0-29.7-15.8-46.3-81.9-60.3c-72.4-15.8-105.7-39.1-105.7-91.3
				c0-50.4,43.6-86.4,103.5-86.4c45.9,0,78.7,13,110.7,38.7l-20.7,27.4c-29.2-23.8-58.5-34.2-90.9-34.2c-40.9,0-67,22.5-67,51.3
				C1796.6,1016.1,1812.8,1032.8,1882.1,1047.6z"/>
			<path class="st19" d="M2179.1,1047.6c70.2,15.3,102.6,40.9,102.6,89.5c0,54.5-45,89.5-107.5,89.5c-49.9,0-90.9-16.7-128.7-50.4
				l22-26.1c32.8,29.7,64.3,44.5,108,44.5c42.3,0,70.2-22,70.2-54c0-29.7-15.8-46.3-81.9-60.3c-72.4-15.8-105.7-39.1-105.7-91.3
				c0-50.4,43.6-86.4,103.5-86.4c45.9,0,78.7,13,110.7,38.7l-20.7,27.4c-29.2-23.8-58.5-34.2-90.9-34.2c-40.9,0-67,22.5-67,51.3
				C2093.7,1016.1,2109.9,1032.8,2179.1,1047.6z"/>
			<path class="st19" d="M2406.3,907.2v314.9h-35.5V907.2L2406.3,907.2L2406.3,907.2z"/>
			<path class="st19" d="M2655.9,1227.5c-90.9,0-157.9-71.5-157.9-162.4c0-90,66.6-163.3,159.3-163.3c57.1,0,91.3,20.2,122.8,49.9
				l-24.3,26.1c-26.5-25.2-56.2-43.2-99-43.2c-69.7,0-121.9,56.2-121.9,129.6c0,73.4,52.6,130.5,121.9,130.5
				c43.2,0,71.5-16.6,101.7-45.4l23.4,23C2749.1,1205.5,2713.1,1227.5,2655.9,1227.5z"/>
			<path class="st19" d="M2970.4,1047.6c70.2,15.3,102.6,40.9,102.6,89.5c0,54.5-45,89.5-107.5,89.5c-49.9,0-90.9-16.7-128.7-50.4
				l22-26.1c32.8,29.7,64.3,44.5,108,44.5c42.3,0,70.2-22,70.2-54c0-29.7-15.8-46.3-81.9-60.3c-72.4-15.8-105.7-39.1-105.7-91.3
				c0-50.4,43.6-86.4,103.5-86.4c45.9,0,78.7,13,110.7,38.7l-20.7,27.4c-29.2-23.8-58.5-34.2-90.9-34.2c-40.9,0-67,22.5-67,51.3
				C2884.9,1016.1,2901.1,1032.8,2970.4,1047.6z"/>
		</g>
	</g>
	<g>
		<path class="st0" d="M1507.3,167.6v238.9c0,0,160.9-67,160.9-161.6C1668.2,128,1507.3,167.6,1507.3,167.6"/>
		<path class="st0" d="M2751.9,155.5c-70.2,0-164.4,41.3-164.4,206.3s83.9,206.3,164.4,206.3c80.4,0,166.1-51.6,166.1-206.3
			C2918,207.1,2822.1,155.5,2751.9,155.5"/>
		<polyline class="st0" points="887.6,363.5 1000.5,363.5 942.4,200.2 887.6,363.5 		"/>
		<path class="st0" d="M570.9,642.1H392.8C180.5,642.1,62.4,475.3,62.4,355c0-184.5,159.8-286.9,304.7-286.9
			c140.4,0,225.1,107.7,225.1,107.7l-96.7,101.9c0,0-5.1,2.6-9.4,2.6c-4.3,0-10.3-4.3-10.3-4.3l-12-10.3c0,0-3.4-0.8-3.4-4.3
			c0-3.4,9.4-12,9.4-28.3c0-16.3-3.4-84.2-107.8-84.2s-150.7,98-150.7,178.8c0,80.8,49.7,228.7,212.3,228.7
			c94.6,0,114.7-53.3,114.7-53.3h32.5V642.1z M1267.6,643.8h-214.9v-41.3c0,0,13.7,1.7,20.6-10.3c6.9-12,6.9-21.5,1.7-33.5
			c-5.1-12-41.1-107.5-41.1-107.5H858.5c0,0-36,96.2-39.4,104.9c-3.4,8.6-3.4,22.4,0,30.9c5.7,14.3,25.7,16.4,25.7,16.4v40.4h-172
			v-40.4c0,0,15.6-5.4,27.3-17.2c12.9-12.9,17.1-26.6,17.1-26.6L891.8,83.4h146.4l178,467.5c5.1,12.9,13.8,25,22.3,35.2
			c8.5,10.3,29.1,17.2,29.1,17.2V643.8z M1675,423.7c-73.1,33.8-169.4,60.2-169.4,60.2v89.4c0,0,0.8,6,9.4,16.4
			c8.6,10.3,18,12.9,18,12.9v41.3h-198.6v-40.4c0,0,12-2.6,20.6-11.2c8.6-8.6,10.3-18.9,10.3-18.9v-404c0,0,0.8-17.2-6-24.1
			c-6.9-6.9-23.1-16.3-23.1-16.3V83.4c0,0,172.9,0,273.9,0c101,0,202,36.1,202,153S1738.4,394.5,1675,423.7z M2175,149.7
			c-104.4,0-150.7,98-150.7,178.8c0,80.8,49.7,228.7,212.3,228.7c94.7,0,114.7-53.3,114.7-53.3h32.5V643h-178.1
			c-212.3,0-330.4-166.7-330.4-287.1c0-184.5,159.8-286.9,304.7-286.9c140.4,0,225.1,107.7,225.1,107.7l-96.7,101.9
			c0,0-5.1,2.5-9.4,2.5c-4.3,0-10.3-4.3-10.3-4.3l-12-10.3c0,0-3.4-0.9-3.4-4.3c0-3.4,9.4-12,9.4-28.3
			C2282.8,217.6,2279.4,149.7,2175,149.7z M2751.9,659.9c-184.9,0-317.8-135.6-317.8-300.6s136.3-292.9,317.8-292.9
			c181.4,0,317.8,127.9,317.8,292.9S2936.8,659.9,2751.9,659.9z M3779.9,644.1h-204.6v-37.2c0,0,18-2.6,24-11.2
			c6-8.6,8.6-13.8,6.9-27.5c-1.7-13.8-50.5-326.6-50.5-326.6l-89.1,276.7h-107.8l-88.2-259.5l-44.5,305.9c0,0-1.7,18.4,5.2,28.4
			c9.4,13.8,26.5,13.8,26.5,13.8v37h-177.2v-39.6c0,0,14.1-2.2,24.4-14.1c10.3-12,12-27.5,12-27.5l64.6-403.6c0,0,3.8-15-0.4-21.9
			c-4.5-7.2-28.7-13.3-28.7-13.3v-40h203.8l73.6,228.3l78.7-228.7h213.2v33.5c0,0-14.3,6-20.6,13.8c-7.7,9.4-7.7,16.3-6,30.1
			c1.7,13.8,56.5,386.8,58.2,400.5c1.7,13.8,3.4,21.5,6.8,31c3.4,9.4,19.7,17.1,19.7,17.1V644.1z"/>
		<path class="st1" d="M1507.3,167.6v238.9c0,0,160.9-67,160.9-161.6C1668.2,128,1507.3,167.6,1507.3,167.6"/>
		<path class="st1" d="M2751.9,155.5c-70.2,0-164.4,41.3-164.4,206.3s83.9,206.3,164.4,206.3c80.4,0,166.1-51.6,166.1-206.3
			C2918,207.1,2822.1,155.5,2751.9,155.5"/>
		<polyline class="st1" points="887.6,363.5 1000.5,363.5 942.4,200.2 887.6,363.5 		"/>
		<path class="st1" d="M2422.1,532.7l37.8,41.5c1.2,1.3,120.7,130.4,294.6,130.4c135.3,0,243.1-93.4,244.2-94.3l36-31.7l0,109.1
			h265.6V560.1H3532v127.2h285.3V559c-5-1.9-10.2-4.7-15-9.1c-13.7-12.3-18.1-27.9-20.2-38.6l-45.8-293c-5.5-35.4,9.4-53.5,28-65.2
			l0-113.3h-289l-38.1,130.5l-51.2-130.5h-280.2v216.2l-40.5-70.6c-58.8-102.4-171.1-163.6-300.4-163.6
			c-121.2,0-233.7,48.2-300.9,128.8l-18.7,22.5l-16.1-24.5c-54.1-82.4-148.5-126-272.9-126c-115.7,0-206.9,47.2-278.7,144.2
			l-20.1,27.1l-16.3-29.5c-42.7-77.3-77.4-124.7-244.6-124.7h-307v115.2c6.4,3.4,13.6,8.4,19.6,15.3c8.1,9.3,12,22.2,12,39.5
			c0,8.9-0.8,329.3-0.8,329.3l-0.1,35.1l-31.4-15.8c-18.4-9.3-32.8-34.4-36.8-41.9l-1.1-2.4l-183-474.3H863.2L663.4,568.9l-42-7.7
			v-99.8H510.8c-11.5,20-39.1,52.7-95.8,52.7c-73.3,0-154.5-57.1-159.3-182.4c-2.6-68.7,36.3-113.6,70.4-131.3
			c25.4-13.2,50.8-13.3,67.9-0.2c18.4,14,23,30.4,23.6,41.7c0.8,13.6-3.8,26.1-9.3,35.8l85.9,59.2l157.5-167.1
			C627.1,131.7,542.3,24.2,370.5,24.2c-205.4,0-348.8,138.8-348.8,337.6c0,182.5,166.8,325.5,379.7,325.5h1180.1V581.2
			c-20.8-7.1-38.6-20.5-38.6-41.4c0-13.6,5.3-31,30.7-36.6c109.4-24.6,204.6-90.9,226.9-112.2l27.3-26.1l8.8,36.8
			c42.2,176.3,190.9,285.9,388.1,285.9h197.5V532.7z"/>
		<path class="st19" d="M678.7,172.8L497.2,365.3l-119.8-82.5c0,0,39.4-37.8,3.4-65.3c-28.1-21.4-106.7,24.1-103.4,113.5
			c4,103.1,67.5,161.5,137.6,161.5c65,0,82.1-52.7,82.1-52.7h145.9v121.5L848.2,18h234.5L1271,506.2c0,0,13.7,25.8,27.4,32.7
			c0,0,0.8-320.3,0.8-329.3c0-9-1.2-18.9-6.8-25.3c-9.2-10.7-24.8-15-24.8-15V18c0,0,217.3,0,328.7,0
			c170.4,0,214.2,46.5,263.6,135.8c68.3-92.3,162.2-153,296.2-153c137.9,0,235.4,51,291.1,135.8C2525,43.3,2650.2,0,2764.8,0
			c140.8,0,258.4,68.4,319.3,174.5V18h316.7l33.4,85.1L3459,18h327l0,147.8c-23.1,11.2-32.4,22.6-28.3,49l45.7,292.2
			c1.9,9.5,5.2,19.4,13.4,26.7c9.5,8.5,22.3,6.9,22.3,6.9v168.5h-328.7V581.8H3322v127.6h-309v-82.9c0,0-112.9,99.7-258.5,99.7
			c-186.2,0-310.7-137.5-310.7-137.5v120.3c0,0-13.7,0-219.2,0c-195,0-362.4-107.2-409.2-302.5c-22.2,21.2-119.9,91.3-237.1,117.7
			c-9.1,2-13.7,5.5-13.7,15.5c0,18.1,38.6,24.5,38.6,24.5v144.8c0,0-1013.5,0-1201.8,0C178.8,709.1,0,556.1,0,361.9
			S139.4,2.5,370.5,2.5C591.4,2.5,678.7,172.8,678.7,172.8"/>
		<path class="st61" d="M891.8,83.3h146.4l178.1,467.6c5.1,12.9,13.7,24.9,22.3,35.2c8.5,10.3,29.1,17.2,29.1,17.2v40.4h-214.9
			v-41.3c0,0,13.7,1.8,20.6-10.3c6.9-12,6.9-21.5,1.7-33.5c-5.1-12-41.1-107.5-41.1-107.5H858.5c0,0-36,96.3-39.4,104.9
			c-3.4,8.6-3.4,22.4,0,30.9c5.7,14.3,25.7,16.4,25.7,16.4v40.4h-172v-40.4c0,0,15.6-5.4,27.3-17.2c12.9-12.9,17.2-26.7,17.2-26.7
			L891.8,83.3 M887.6,363.5h113l-58.2-163.3L887.6,363.5z"/>
		<path class="st61" d="M1336.1,83.3c0,0,172.9,0,273.9,0c101,0,202,36.1,202,153s-73.6,158.1-137,187.3
			c-73.1,33.8-169.5,60.2-169.5,60.2v89.3c0,0,0.8,6,9.4,16.4c8.5,10.3,18,12.9,18,12.9v41.3h-198.6v-40.4c0,0,12-2.6,20.6-11.2
			c8.6-8.6,10.3-18.9,10.3-18.9v-404c0,0,0.8-17.2-6-24.1c-6.9-6.9-23.1-16.3-23.1-16.3V83.3 M1507.3,167.6v238.9
			c0,0,160.9-67,160.9-161.6C1668.2,128,1507.3,167.6,1507.3,167.6z"/>
		<path class="st61" d="M2751.9,659.9c-184.9,0-317.8-135.6-317.8-300.6s136.3-293,317.8-293c181.5,0,317.8,127.9,317.8,293
			S2936.8,659.9,2751.9,659.9 M2587.6,361.9c0,165,83.9,206.3,164.4,206.3c80.4,0,166.1-51.6,166.1-206.3
			c0-154.7-95.9-206.3-166.1-206.3C2681.7,155.6,2587.6,196.8,2587.6,361.9z"/>
		<path class="st61" d="M3152.5,83.7h203.7l73.6,228.3l78.7-228.7h213.1v33.5c0,0-14.2,6-20.6,13.8c-7.7,9.4-7.7,16.4-6,30.1
			c1.7,13.8,56.5,386.8,58.2,400.5c1.7,13.8,3.5,21.5,6.9,31c3.4,9.4,19.7,17.2,19.7,17.2V644h-204.6v-37.2c0,0,18-2.6,23.9-11.2
			c6-8.6,8.6-13.8,6.8-27.5c-1.7-13.8-50.5-326.6-50.5-326.6l-89,276.8h-107.8l-88.2-259.6l-44.5,306c0,0-1.7,18.3,5.1,28.3
			c9.4,13.8,26.5,13.8,26.5,13.8v36.9h-177.2v-39.5c0,0,14.1-2.2,24.4-14.2c10.3-12,12-27.5,12-27.5l64.6-403.5
			c0,0,3.9-15.1-0.4-21.9c-4.5-7.2-28.7-13.4-28.7-13.4V83.7"/>
		<path class="st61" d="M592.2,175.7l-95.5,100.6c-5,5.3-13.3,5.8-18.9,1.2l-16.2-13.3c-0.7-0.6-1.1-1.6-1.1-2.9
			c0-3.4,9.4-12,9.4-28.3c0-16.4-3.4-84.2-107.8-84.2c-104.4,0-150.7,98-150.7,178.8c0,80.8,49.7,228.7,212.3,228.7
			c94.6,0,114.7-53.3,114.7-53.3h32.5V642H392.8C180.5,642,62.4,475.3,62.4,355c0-184.5,159.8-286.9,304.7-286.9
			C507.5,68.1,592.2,175.7,592.2,175.7"/>
		<path class="st61" d="M2405.3,176.7l-95.5,100.6c-5,5.3-13.3,5.8-18.9,1.2l-16.2-13.3c-0.7-0.6-1.1-1.6-1.1-2.9
			c0-3.4,9.4-12,9.4-28.3c0-16.4-3.4-84.2-107.8-84.2c-104.4,0-150.7,98-150.7,178.8c0,80.8,49.7,228.7,212.3,228.7
			c94.6,0,114.7-53.3,114.7-53.3h32.5V643h-178.1c-212.3,0-330.4-166.7-330.4-287.1c0-184.5,159.8-286.9,304.7-286.9
			C2320.5,69.1,2405.3,176.7,2405.3,176.7"/>
	</g>
</g>
</svg>
