<?xml version="1.0" encoding="utf-8"?>
<!-- Generator: Adobe Illustrator 26.0.3, SVG Export Plug-In . SVG Version: 6.00 Build 0)  -->
<svg version="1.1" id="Layer_1" xmlns="http://www.w3.org/2000/svg" xmlns:xlink="http://www.w3.org/1999/xlink" x="0px" y="0px"
	 viewBox="0 0 3839 1558.9" style="enable-background:new 0 0 3839 1558.9;" xml:space="preserve">
<style type="text/css">
	.st0{fill-rule:evenodd;clip-rule:evenodd;fill:#034EA2;}
	.st1{fill:#FFFFFF;}
	.st2{fill:#231F20;}
	.st3{fill:#034EA2;}
	.st4{fill:#FFCB04;}
	.st5{fill:url(#SVGID_1_);}
	.st6{fill-rule:evenodd;clip-rule:evenodd;fill:url(#rect4789_00000133513384811087566730000012026538265929927820_);}
	.st7{fill:url(#SVGID_00000003073987785728618320000004709379828862168236_);}
	.st8{fill:url(#SVGID_00000085222264021639177900000015628730713944219314_);}
	.st9{fill:url(#SVGID_00000045615870221248083140000010957786717515797634_);}
	.st10{fill:url(#SVGID_00000090263806597573625270000009566866035369527729_);}
	.st11{fill:url(#SVGID_00000067226465391771582850000017287799318957105061_);}
	.st12{fill:url(#SVGID_00000096771737442822859890000017539449902847737749_);}
	.st13{fill:url(#SVGID_00000142150067444430517690000000839667627605537960_);}
	.st14{fill:url(#SVGID_00000168809804891390425640000011044852779521827991_);}
	.st15{fill:url(#SVGID_00000094594458511174385840000012260904087232449177_);}
	.st16{fill:url(#SVGID_00000141456287025970954690000013168965918455010965_);}
	.st17{fill:url(#SVGID_00000180357861117206836450000015321017975195422130_);}
	.st18{fill:url(#SVGID_00000126300176328891636310000002845955774963157651_);}
	.st19{fill:url(#SVGID_00000132778044926288953320000004563437122743878832_);}
	.st20{display:none;}
	.st21{display:inline;fill:#FF0642;}
	.st22{display:inline;fill:#FFFFFF;stroke:#000000;stroke-width:0.5156;stroke-miterlimit:10;}
	.st23{display:inline;fill:#FFCB04;}
	.st24{fill-rule:evenodd;clip-rule:evenodd;fill:url(#rect4789_00000124160384838398634430000001984051633063869363_);}
	.st25{fill:url(#SVGID_00000015354667216493082040000018233008329932786847_);}
	.st26{fill:url(#SVGID_00000148645934029442973910000010941668537539772344_);}
	.st27{fill:url(#SVGID_00000003065743837166613560000001223811652739321730_);}
	.st28{fill:url(#SVGID_00000032651023869547006610000003424221779179690408_);}
	.st29{fill:url(#SVGID_00000166644558679364209850000017954578840982417840_);}
	.st30{fill:url(#SVGID_00000006672963578620496560000006190707348008908453_);}
	.st31{fill:url(#SVGID_00000065782833532942698060000008844418462769040790_);}
	.st32{fill:url(#SVGID_00000005965906328611755570000007102013616608626073_);}
	.st33{fill:url(#SVGID_00000067926254538044548550000018032116688420446131_);}
	.st34{fill:url(#SVGID_00000058580271372237084440000005565376319720093610_);}
	.st35{fill:url(#SVGID_00000005985711667164617940000010875403187092193925_);}
	.st36{fill:url(#SVGID_00000113352116560500418380000010856824261501278855_);}
	.st37{fill:url(#SVGID_00000042706577327760026660000015400735311360652697_);}
	.st38{fill:url(#SVGID_00000015345144365938314460000011026601578009608593_);}
	.st39{fill-rule:evenodd;clip-rule:evenodd;fill:url(#rect4789_00000005980608540761145900000001099665653288445073_);}
	.st40{fill:url(#SVGID_00000183226452088063776530000005040206117160934060_);}
	.st41{fill:url(#SVGID_00000028297934905307545460000009907812712478204607_);}
	.st42{fill:url(#SVGID_00000129174889500936421700000009825102639189418646_);}
	.st43{fill:url(#SVGID_00000113346998287807331130000015929114806998609032_);}
	.st44{fill:url(#SVGID_00000017480352185187565610000007668813043888483716_);}
	.st45{fill:url(#SVGID_00000137089595684443768170000012086301655775031208_);}
	.st46{fill:url(#SVGID_00000008849166544927043130000001140003848441948577_);}
	.st47{fill:url(#SVGID_00000037659889067742281990000011098769933074892457_);}
	.st48{fill:url(#SVGID_00000139287694046974363960000000019074850868545704_);}
	.st49{fill:url(#SVGID_00000165928471003987958670000015805006529097404069_);}
	.st50{fill:url(#SVGID_00000159446728649941720450000005358794097208046773_);}
	.st51{fill:url(#SVGID_00000080903469429145865460000005206603317827010694_);}
	.st52{fill:url(#SVGID_00000060017591283577678350000000794847263841237666_);}
	.st53{fill-rule:evenodd;clip-rule:evenodd;fill:url(#rect4789_00000023277881491779940630000013812376511930880172_);}
	.st54{fill:url(#SVGID_00000108306650753990058350000008390164003947118465_);}
	.st55{fill:url(#SVGID_00000047025172954369580940000004036085367373563814_);}
	.st56{fill:url(#SVGID_00000092441070549222238240000009564861018588710840_);}
	.st57{fill:url(#SVGID_00000006688870209834081630000011110764428130224058_);}
	.st58{fill:url(#SVGID_00000032633526261260239100000013865376431123577018_);}
	.st59{fill:url(#SVGID_00000005228037788234754490000014535518061692158084_);}
	.st60{fill:url(#SVGID_00000107590579150014789640000015095988712887469699_);}
	.st61{fill:url(#SVGID_00000139985892311074941120000014838473272505704834_);}
	.st62{fill:url(#SVGID_00000085931405778965536350000001968666801440169614_);}
	.st63{fill:url(#SVGID_00000179641347412291880450000005452748370232183467_);}
	.st64{fill:url(#SVGID_00000155147685698976773660000005781368577833107609_);}
	.st65{fill:url(#SVGID_00000133488560031707720040000015536037267489349269_);}
	.st66{fill:url(#SVGID_00000031188510530077435830000008201537921796635536_);}
	.st67{fill:url(#SVGID_00000122690078618336706270000007092807944577317292_);}
	.st68{fill-rule:evenodd;clip-rule:evenodd;fill:url(#rect4789_00000065063207697318924710000008438996329694291616_);}
	.st69{fill:url(#SVGID_00000067918794251047377440000009397714179479537854_);}
	.st70{fill:url(#SVGID_00000016060979247175588640000006112045042821106870_);}
	.st71{fill:url(#SVGID_00000156584632556688225510000009740063646722369197_);}
	.st72{fill:url(#SVGID_00000137116895298211109540000006920264581330229902_);}
	.st73{fill:url(#SVGID_00000116237059437887625200000011853573065602922938_);}
	.st74{fill:url(#SVGID_00000029727960911576214940000001567883661112692642_);}
	.st75{fill:url(#SVGID_00000039130582404771835910000004389037362196432556_);}
	.st76{fill:url(#SVGID_00000057840331666135616100000001226879409430358934_);}
	.st77{fill:url(#SVGID_00000134932590080888311660000005502291136565721528_);}
	.st78{fill:url(#SVGID_00000023271564338605931420000006965086767899102651_);}
	.st79{fill:url(#SVGID_00000008115619062768116090000006036393644800200602_);}
	.st80{fill:url(#SVGID_00000024694216775082153580000012810438487718105525_);}
	.st81{fill:url(#SVGID_00000112597118534765908920000010371305271336578985_);}
	.st82{fill:url(#SVGID_00000010994171146676932680000011720870856462066610_);}
	.st83{fill-rule:evenodd;clip-rule:evenodd;fill:url(#rect4789_00000031927871322384943230000017294755212976724870_);}
	.st84{fill:url(#SVGID_00000091733588364705303500000006142560162206255800_);}
	.st85{fill:url(#SVGID_00000113340945914781679030000012338292293956090021_);}
	.st86{fill:url(#SVGID_00000058574060997060457600000013597031938994521269_);}
	.st87{fill:url(#SVGID_00000078022523965023539690000015222163838540785839_);}
	.st88{fill:url(#SVGID_00000149349089981501974230000006146959766002974858_);}
	.st89{fill:url(#SVGID_00000130640261736737385090000014662930758729382313_);}
	.st90{fill:url(#SVGID_00000005945282666617094220000000922547885708137351_);}
	.st91{fill:url(#SVGID_00000169542207894289337120000010750524662478906808_);}
	.st92{fill:url(#SVGID_00000074435485288093631170000003356258855018526128_);}
	.st93{fill:url(#SVGID_00000129919687428979327350000002282394476387277210_);}
	.st94{fill:url(#SVGID_00000072967736744546021270000008451499608501371824_);}
	.st95{fill:url(#SVGID_00000039134152551997953780000012144577878157385873_);}
	.st96{fill:url(#SVGID_00000000183529373809363550000011248288438302125721_);}
	.st97{fill:url(#SVGID_00000153665026576831794430000004582750425643131521_);}
	.st98{fill:url(#SVGID_00000152245695224785372370000010211888898302400172_);}
	.st99{fill:url(#SVGID_00000126314364788318632980000006115607396659396777_);}
	.st100{fill:url(#SVGID_00000136381397262194911080000014187548200712729010_);}
	.st101{fill-rule:evenodd;clip-rule:evenodd;fill:url(#rect4789_00000062172862602478380470000001051431333541680780_);}
	.st102{fill:url(#SVGID_00000170991221648092529240000013185960746448833954_);}
	.st103{fill:url(#SVGID_00000178909628152032008000000013500689690224742566_);}
	.st104{fill:url(#SVGID_00000150092881865912971920000011652156382174737280_);}
	.st105{fill:url(#SVGID_00000131349949653602939990000008320660355771252123_);}
	.st106{fill:url(#SVGID_00000122706888501452932020000002733080281088178361_);}
	.st107{fill:url(#SVGID_00000089549697012667375520000013274677236457197487_);}
	.st108{fill:url(#SVGID_00000002376621001974902860000015528230576901846940_);}
	.st109{fill:url(#SVGID_00000028313867274247280950000017413028661716906399_);}
	.st110{fill:url(#SVGID_00000086665541534741250820000013014023492127791759_);}
	.st111{fill:url(#SVGID_00000013181476149709831250000016576126348389935786_);}
	.st112{fill:url(#SVGID_00000073705163245876666240000006545512701902305933_);}
	.st113{fill:url(#SVGID_00000172409468737638033450000012031051119077566120_);}
	.st114{fill:url(#SVGID_00000140717507108156297730000010283874877148472229_);}
	.st115{fill:url(#SVGID_00000020378198662088203720000016096943124669312940_);}
	.st116{fill-rule:evenodd;clip-rule:evenodd;fill:url(#rect4789_00000155855517940270539350000007886028206448240031_);}
	.st117{fill:url(#SVGID_00000118362594378613296580000007084858391313589412_);}
	.st118{fill:url(#SVGID_00000016759163697129808350000005117571454272131224_);}
	.st119{fill:url(#SVGID_00000047055466619394176100000005518509290995156626_);}
	.st120{fill:url(#SVGID_00000060741857747977747350000006637129602490773134_);}
	.st121{fill:url(#SVGID_00000057148480711416347820000000898472217504041118_);}
	.st122{fill:url(#SVGID_00000029768681994077169690000006860763003125554307_);}
	.st123{fill:url(#SVGID_00000005261011903592444420000016853877144614674606_);}
	.st124{fill:url(#SVGID_00000016059920243311445050000015793968099514725280_);}
	.st125{fill:url(#SVGID_00000119832822794346745720000012550930954404354698_);}
	.st126{fill:url(#SVGID_00000005262463618160725530000008937278794779792032_);}
	.st127{fill:url(#SVGID_00000010996301813575177470000001668590550721085328_);}
	.st128{fill:url(#SVGID_00000044152235426159759500000014780298524784840605_);}
	.st129{fill:url(#SVGID_00000145034041325220681910000011255938197418600108_);}
</style>
<g>
	<linearGradient id="SVGID_1_" gradientUnits="userSpaceOnUse" x1="1919.5" y1="0" x2="1919.5" y2="1558.8749">
		<stop  offset="0" style="stop-color:#007CFF"/>
		<stop  offset="1" style="stop-color:#000055"/>
	</linearGradient>
	<path class="st5" d="M2129.6,170.2c9.6-19,28.3-34.4,56.1-46.1c17.6-7.3,43.6-14.8,78-22.5c34-7.6,63.4-12.9,88.2-15.8V0h-864.6
		v85.8c24.7,2.9,54.2,8.2,88.2,15.8c34.4,7.7,60.4,15.2,78,22.5c27.8,11.7,46.5,27.1,56.1,46.1c9.5,19.1,14.3,41,14.3,65.9
		l0.8,1105.2c0,27.9-4.9,50.7-14.8,68.7c-9.9,18-28.4,32.4-55.5,43.4c-14.7,5.9-41.2,10.3-79.7,13.2c-38.5,3-67.6,5.2-87.4,6.7v85.7
		h864.6v-85.7c-19.8-1.5-48.9-3.7-87.4-6.7c-38.5-2.9-65-7.3-79.7-13.2c-27.1-11-45.6-25.4-55.5-43.4c-9.9-18-14.8-40.8-14.8-68.7
		l0.8-1105.2C2115.3,211.2,2120.1,189.3,2129.6,170.2z"/>
	<g>
		<g>
			
				<linearGradient id="rect4789_00000091008148189639740460000004695549178851834250_" gradientUnits="userSpaceOnUse" x1="396" y1="-3292.4714" x2="396" y2="-3601.1829" gradientTransform="matrix(1 0 0 -1 1523.5 -2276.7659)">
				<stop  offset="0" style="stop-color:#007CFF"/>
				<stop  offset="1" style="stop-color:#000055"/>
			</linearGradient>
			
				<path id="rect4789_00000126290817346327465880000006120050002859610031_" style="fill-rule:evenodd;clip-rule:evenodd;fill:url(#rect4789_00000091008148189639740460000004695549178851834250_);" d="
				M464.1,1015.7h2910.9c85.3,0,154.4,69.1,154.4,154.4l0,0c0,85.3-69.1,154.4-154.4,154.4H464.1c-85.3,0-154.4-69.1-154.4-154.4
				l0,0C309.7,1084.8,378.9,1015.7,464.1,1015.7z"/>
			<g>
				<path class="st1" d="M916.7,1099.7H977c35.5,0,58.4,18.3,58.4,49.4v0.4c0,33.1-25.5,50.6-60.5,50.6h-19.3v40.2h-39v-140.6H916.7
					z M974.1,1169.6c13.9,0,22.3-7.2,22.3-18.3v-0.4c0-12-8.4-18.5-22.5-18.5h-18.3v37.2H974.1z"/>
				<path class="st1" d="M1112.2,1099.7h39v106.5h68.1v34.1h-107.1V1099.7z"/>
				<path class="st1" d="M1344.7,1098.7h37.6l59.9,141.6h-41.8l-10.2-25.1H1336l-10,25.1h-41L1344.7,1098.7z M1378.8,1184.9
					l-15.7-40l-15.9,40H1378.8z"/>
				<path class="st1" d="M1534.5,1187.7l-53.4-88h44.4l28.9,51.2l29.1-51.2h43.6l-53.4,87.4v53.2h-39.2V1187.7z"/>
				<path class="st1" d="M1804.6,1219.4l21.7-25.9c13.9,11,29.3,16.9,45.6,16.9c10.4,0,16.1-3.6,16.1-9.6v-0.4
					c0-5.8-4.6-9-23.7-13.5c-29.9-6.8-53-15.3-53-44.2v-0.4c0-26.1,20.7-45,54.4-45c23.9,0,42.6,6.4,57.8,18.7l-19.5,27.5
					c-12.9-9-26.9-13.9-39.4-13.9c-9.4,0-14.1,4-14.1,9v0.4c0,6.4,4.8,9.2,24.3,13.7c32.3,7,52.4,17.5,52.4,43.8v0.4
					c0,28.7-22.7,45.8-56.8,45.8C1845.6,1242.7,1821.9,1234.8,1804.6,1219.4z"/>
				<path class="st1" d="M2040.9,1187.7l-53.4-88h44.4l28.9,51.2l29.1-51.2h43.6l-53.4,87.4v53.2h-39.2L2040.9,1187.7L2040.9,1187.7
					z"/>
				<path class="st1" d="M2188.2,1219.4l21.7-25.9c13.9,11,29.3,16.9,45.6,16.9c10.4,0,16.1-3.6,16.1-9.6v-0.4
					c0-5.8-4.6-9-23.7-13.5c-29.9-6.8-53-15.3-53-44.2v-0.4c0-26.1,20.7-45,54.4-45c23.9,0,42.6,6.4,57.8,18.7l-19.5,27.5
					c-12.9-9-26.9-13.9-39.4-13.9c-9.4,0-14.1,4-14.1,9v0.4c0,6.4,4.8,9.2,24.3,13.7c32.3,7,52.4,17.5,52.4,43.8v0.4
					c0,28.7-22.7,45.8-56.8,45.8C2229.2,1242.7,2205.5,1234.8,2188.2,1219.4z"/>
				<path class="st1" d="M2420.3,1133.9h-42.2v-34.1h123.3v34.1h-42.2v106.5h-39L2420.3,1133.9L2420.3,1133.9z"/>
				<path class="st1" d="M2578.8,1099.7h113.1v33.1h-74.5v21.3h67.5v30.7h-67.5v22.3h75.5v33.1h-114.1V1099.7z"/>
				<path class="st1" d="M2773,1099.7h41.2l33.5,54.4l33.5-54.4h41.2v140.6h-38.8v-80.7l-36,55h-0.8L2811,1160v80.3h-38.2v-140.6
					H2773z"/>
			</g>
		</g>
		<g>
			<path class="st2" d="M1511.9,421.6v236.3c0,0,159.1-66.3,159.1-159.8C1671.1,382.5,1511.9,421.6,1511.9,421.6"/>
			<path class="st2" d="M2742.6,409.7c-69.4,0-162.5,40.8-162.5,204s82.9,204,162.5,204c79.5,0,164.2-51,164.2-204
				C2906.8,460.7,2812,409.7,2742.6,409.7"/>
			<polyline class="st2" points="899.1,615.4 1010.8,615.4 953.3,453.9 899.1,615.4 			"/>
			<path class="st2" d="M585.9,890.8H409.9c-209.9,0-326.7-164.9-326.7-283.9c0-182.4,158-283.7,301.3-283.7
				c138.8,0,222.6,106.5,222.6,106.5l-95.7,100.7c0,0-5.1,2.6-9.3,2.6c-4.3,0-10.2-4.3-10.2-4.3l-11.9-10.2c0,0-3.4-0.8-3.4-4.3
				c0-3.4,9.3-11.9,9.3-28c0-16.1-3.4-83.3-106.6-83.3s-149,96.9-149,176.8c0,79.9,49.1,226.1,209.9,226.1
				c93.6,0,113.4-52.7,113.4-52.7h32.2V890.8z M1274.9,892.5h-212.4v-40.8c0,0,13.5,1.7,20.3-10.2c6.8-11.9,6.8-21.3,1.7-33.2
				c-5.1-11.9-40.6-106.3-40.6-106.3H870.3c0,0-35.6,95.2-38.9,103.7c-3.4,8.5-3.4,22.1,0,30.6c5.6,14.1,25.4,16.2,25.4,16.2v39.9
				H686.7v-39.9c0,0,15.4-5.3,27-17c12.7-12.7,16.9-26.3,16.9-26.3l172.7-470.8h144.8l176,462.3c5.1,12.8,13.6,24.7,22.1,34.9
				c8.4,10.2,28.7,17,28.7,17V892.5z M1677.8,674.9c-72.3,33.4-167.5,59.5-167.5,59.5v88.4c0,0,0.8,6,9.3,16.2
				c8.5,10.2,17.8,12.7,17.8,12.7v40.8h-196.4v-39.9c0,0,11.9-2.6,20.3-11c8.5-8.5,10.2-18.7,10.2-18.7V423.3c0,0,0.8-17-6-23.8
				c-6.8-6.8-22.8-16.1-22.8-16.1v-45.1c0,0,170.9,0,270.8,0c99.9,0,199.8,35.7,199.8,151.3S1740.4,646,1677.8,674.9z M2172.1,403.9
				c-103.2,0-149,96.9-149,176.8c0,79.9,49.1,226.1,209.9,226.1c93.6,0,113.4-52.7,113.4-52.7h32.2v137.7h-176.1
				c-209.9,0-326.7-164.9-326.7-283.8c0-182.5,158-283.7,301.3-283.7c138.8,0,222.6,106.5,222.6,106.5l-95.6,100.7
				c0,0-5.1,2.5-9.3,2.5c-4.2,0-10.2-4.2-10.2-4.2l-11.9-10.2c0,0-3.4-0.9-3.4-4.3c0-3.4,9.3-11.9,9.3-28
				C2278.8,471,2275.4,403.9,2172.1,403.9z M2742.6,908.4c-182.8,0-314.3-134.1-314.3-297.2s134.8-289.6,314.3-289.6
				c179.4,0,314.2,126.5,314.2,289.6S2925.4,908.4,2742.6,908.4z M3759.1,892.8h-202.3v-36.8c0,0,17.8-2.6,23.7-11
				c6-8.5,8.5-13.6,6.8-27.2c-1.7-13.6-49.9-323-49.9-323l-88.1,273.6h-106.6l-87.2-256.6l-44,302.5c0,0-1.7,18.2,5.1,28.1
				c9.3,13.6,26.2,13.6,26.2,13.6v36.5h-175.2v-39.1c0,0,14-2.1,24.1-14c10.2-11.9,11.9-27.2,11.9-27.2l63.9-399.1
				c0,0,3.8-14.9-0.4-21.7c-4.5-7.2-28.4-13.2-28.4-13.2v-39.6h201.5l72.8,225.7l77.8-226.1h210.8v33.2c0,0-14.1,5.9-20.3,13.6
				c-7.6,9.3-7.6,16.1-6,29.7c1.7,13.6,55.9,382.4,57.6,396.1c1.7,13.6,3.4,21.3,6.8,30.6c3.4,9.3,19.5,16.9,19.5,16.9V892.8z"/>
			<path class="st1" d="M1511.9,421.6v236.3c0,0,159.1-66.3,159.1-159.8C1671.1,382.5,1511.9,421.6,1511.9,421.6"/>
			<path class="st1" d="M2742.6,409.7c-69.4,0-162.5,40.8-162.5,204s82.9,204,162.5,204c79.5,0,164.2-51,164.2-204
				C2906.8,460.7,2812,409.7,2742.6,409.7"/>
			<polyline class="st1" points="899.1,615.4 1010.8,615.4 953.3,453.9 899.1,615.4 			"/>
			<path class="st1" d="M2745.1,995.5c-132.8,0-234.3-66-285.8-108.4v91.4h-238.2c-200.4,0-360.4-110.2-416.5-283.5
				c-41.8,30.4-116.9,73.9-201.2,96.1c2.3,0.6,4.6,1.2,6.8,1.5l17.8,3.1l0.1,182.7H418.3C183.8,978.5,0,818.3,0,613.7
				C0,395.4,163.1,237,387.8,237c228.9,0,320,172.6,323.8,180l6.9,13.5L516.1,645.2l-155.3-107l19-18.2c5.7-6.3,9-11.7,10.5-16.3
				c3.5-10-6.1-19.6-16.1-16.1c-3.1,1.1-6.7,2.6-10.5,4.5c-22.5,11.7-48.2,42.3-46.4,90.1c3.7,95.6,62,139.1,114.6,139.1
				c46.4,0,59.6-33.7,60.9-37.5l5-14.4l15.3-0.2h165.7v24l166.5-441h261.5l177.3,459.7c0.2-94.3,0.6-242.7,0.6-248.7
				c0-2.3-0.1-4.2-0.3-5.7c-0.4-3.6-2.4-6.8-5.4-8.8c-3.6-2.4-7.9-4.1-10.1-4.8l-15.4-4.5l-0.2-16.1V252.3h346.5
				c153.9,0,212.4,36.6,263.3,117.9c76-89.5,173.5-134.9,290.2-134.9c126.9,0,226.4,42,289.7,121.7
				c75.5-77.2,190.1-122.5,312.1-122.5c118.2,0,223.9,46.5,294.2,127.1V252.3h349.3l15.4,39.2l11.5-39.2h360.9l0,181.1l-12.1,5.9
				c-17.2,8.3-18.3,11.8-16.1,25.8l45.2,288.9c1.3,6.5,3.3,11,6.4,13.7c1.4,1.2,4.3,1.5,5.5,1.4l23-1.6l0.7,23v188.1h-367.9V852.7
				h-143.3v126.1h-348.5v-60.5C2933.4,949.2,2847.6,995.5,2745.1,995.5z M2416.5,782.6l37.3,41c1.2,1.3,119.3,128.9,291.3,128.9
				c133.7,0,240.4-92.3,241.4-93.2l35.6-31.3l0,107.9h262.7V809.8H3514v125.8h282.1v-127c-4.9-1.9-10.1-4.7-14.9-9
				c-13.5-12.1-17.9-27.6-20-38.2l-45.3-289.8c-5.5-35,9.2-52.9,27.7-64.5l0-112h-285.8l-37.7,129l-50.6-129h-277.1v213.8
				l-40.1-69.8c-58.1-101.3-169.2-161.7-297.1-161.7c-119.8,0-231.1,47.6-297.5,127.4l-18.5,22.2l-15.9-24.2
				c-53.5-81.5-146.9-124.6-269.9-124.6c-114.4,0-204.6,46.7-275.6,142.6l-19.9,26.8l-16.2-29.2c-42.3-76.4-76.6-123.3-241.9-123.3
				h-303.6v113.9c6.4,3.4,13.5,8.3,19.3,15.1c8,9.2,11.9,22,11.9,39c0,8.8-0.8,325.6-0.8,325.6l-0.1,34.7l-31-15.6
				c-18.2-9.2-32.5-34-36.4-41.4l-1.1-2.3l-180.9-469H875L677.5,818.5l-41.5-7.6v-98.7H526.6c-11.4,19.8-38.6,52.1-94.7,52.1
				c-72.5,0-152.7-56.4-157.5-180.4c-2.6-67.9,35.9-112.4,69.6-129.8c25.2-13,50.2-13.1,67.1-0.2c18.2,13.9,22.7,30.1,23.3,41.2
				c0.8,13.5-3.8,25.8-9.2,35.4l85,58.5l155.8-165.2c-24.4-37.6-108.2-143.9-278-143.9c-203.1,0-344.9,137.3-344.9,333.8
				c0,180.5,164.9,321.9,375.4,321.9h1166.9v-105c-20.6-7-38.1-20.3-38.1-40.9c0-13.4,5.3-30.6,30.3-36.2
				c108.2-24.4,202.3-89.9,224.3-111l27-25.9l8.7,36.4c41.8,174.4,188.8,282.7,383.8,282.7h195.3V782.6z"/>
			
				<linearGradient id="SVGID_00000085247287346331868800000006815001754086543272_" gradientUnits="userSpaceOnUse" x1="1919.4998" y1="974.0532" x2="1919.4998" y2="255.9155">
				<stop  offset="0.1654" style="stop-color:#000055"/>
				<stop  offset="0.9017" style="stop-color:#007CFF"/>
			</linearGradient>
			<path style="fill:url(#SVGID_00000085247287346331868800000006815001754086543272_);" d="M692.6,426.7L513.1,617.1l-118.5-81.6
				c0,0,38.9-37.4,3.4-64.6c-27.8-21.2-105.5,23.8-102.2,112.2c3.9,101.9,66.7,159.7,136.1,159.7c64.3,0,81.2-52.1,81.2-52.1h144.3
				v120.1l202.8-537.2h231.9l186.2,482.7c0,0,13.5,25.5,27.1,32.3c0,0,0.8-316.7,0.8-325.6c0-8.9-1.2-18.7-6.7-25
				c-9.1-10.5-24.5-14.9-24.5-14.9V273.7c0,0,214.9,0,325,0c168.5,0,211.8,45.9,260.7,134.3c67.5-91.2,160.4-151.3,292.9-151.3
				c136.4,0,232.8,50.4,287.8,134.3c76.9-92.3,200.8-135.1,314-135.1c139.2,0,255.6,67.7,315.7,172.5V273.7h313.2l33,84.1l24.6-84.1
				h323.3l0,146.2c-22.9,11.1-32.1,22.3-28,48.5l45.2,288.9c1.9,9.4,5.2,19.2,13.2,26.4c9.4,8.4,22,6.8,22,6.8v166.6h-325V831.3
				h-186.2v126.1h-305.6v-81.9c0,0-111.7,98.6-255.6,98.6c-184.2,0-307.2-136-307.2-136v119c0,0-13.5,0-216.7,0
				c-192.8,0-358.4-106-404.6-299.1c-21.9,21-118.5,90.3-234.5,116.4c-9,2-13.5,5.5-13.5,15.3c0,17.9,38.1,24.3,38.1,24.3v143.2
				c0,0-1002.1,0-1188.4,0c-220.1,0-396.9-151.3-396.9-343.3s137.9-355.3,366.4-355.3C606.2,258.4,692.6,426.7,692.6,426.7"/>
			<g>
				
					<linearGradient id="SVGID_00000066507254614364395250000016830677422469996704_" gradientUnits="userSpaceOnUse" x1="3443.3687" y1="948.402" x2="3329.9138" y2="304.9674">
					<stop  offset="0" style="stop-color:#FF9D01"/>
					<stop  offset="0.1496" style="stop-color:#FFA402"/>
					<stop  offset="0.3686" style="stop-color:#FFB805"/>
					<stop  offset="0.6289" style="stop-color:#FFD80A"/>
					<stop  offset="0.7832" style="stop-color:#FFEE0D"/>
					<stop  offset="1" style="stop-color:#FFD70B"/>
				</linearGradient>
				<path style="fill:url(#SVGID_00000066507254614364395250000016830677422469996704_);" d="M3739.8,841.5
					c-3.4-9.3-5.1-17-6.8-30.6c-1.7-13.5-55.8-382.4-57.5-396c-1.7-13.6-1.7-20.4,5.9-29.8c6.3-7.7,20.3-13.6,20.3-13.6v-33.2
					h-210.8L3413,564.4l-72.8-225.7h-201.5v39.6c0,0,23.9,6.1,28.4,13.2c4.3,6.8,0.4,21.7,0.4,21.7l-63.9,399
					c0,0-1.7,15.3-11.9,27.2c-10.2,11.9-24.1,14-24.1,14v39.1h175.2v-36.5c0,0-16.9,0-26.2-13.7c-6.8-9.9-5.1-28-5.1-28l44-302.6
					l87.2,256.7h106.6l88-273.7c0,0,48.2,309.4,49.9,323c1.7,13.6-0.8,18.7-6.8,27.2c-5.9,8.5-23.7,11.1-23.7,11.1v36.8h202.3v-34.3
					C3759.2,858.5,3743.1,850.8,3739.8,841.5z"/>
				
					<linearGradient id="SVGID_00000114070873882896499720000018049251924454731155_" gradientUnits="userSpaceOnUse" x1="3413.4338" y1="892.7122" x2="3413.4338" y2="338.2943">
					<stop  offset="5.327789e-09" style="stop-color:#FFCF00"/>
					<stop  offset="1" style="stop-color:#FFFF36"/>
				</linearGradient>
				<path style="fill:url(#SVGID_00000114070873882896499720000018049251924454731155_);" d="M3688.6,351.3v12.1
					c-5.6,3.1-12.7,7.7-17.4,13.5c-11,13.5-10.5,24.9-8.7,39.6c0.9,7,14.6,100.8,29.1,200.2c13.6,93,27.6,189.2,28.4,195.8
					c1.8,14.3,3.7,23.1,7.5,33.5c2.3,6.5,7.6,12.6,15.8,18.3c1,0.7,2,1.3,2.9,1.9v13.7h-176.3v-13.5c7.3-2.4,16.2-6.6,21.3-13.9
					c7.8-11.1,11.1-19.4,9-36.2c-1.7-13.6-48-310.7-50-323.4l-8.4-54.2l-16.8,52.2l-85.1,264.7h-87.8l-84.2-247.9l-17.4-51.2
					l-7.8,53.5l-44,302.6l0,0.3l0,0.3c-0.4,3.8-1.7,23.5,7.3,36.5c6.4,9.5,15.7,14.7,24,17.2v12.6h-149.2v-16.5
					c6.3-2.6,14.2-7.2,21-15.1c11.8-13.9,14.4-30.6,14.8-33.8l63.8-398.2c1.3-5.4,4.3-20.9-2.2-31.2c-3.6-5.7-10.5-10.2-22.4-14.6
					c-1.4-0.5-2.7-1-4-1.4v-16.9h179l69.9,216.7l12,37.1l12.7-36.9l74.8-217.3H3688.6 M3701.6,338.3h-210.8L3413,564.4l-72.8-225.7
					h-201.5v39.6c0,0,23.9,6.1,28.4,13.2c4.3,6.8,0.4,21.7,0.4,21.7l-63.9,399c0,0-1.7,15.3-11.9,27.2c-10.2,11.9-24.1,14-24.1,14
					v39.1h175.2v-36.5c0,0-16.9,0-26.2-13.7c-6.8-9.9-5.1-28-5.1-28l44-302.6l87.2,256.7h106.6l88-273.7c0,0,48.2,309.4,49.9,323
					c1.7,13.6-0.8,18.7-6.8,27.2c-5.9,8.5-23.7,11.1-23.7,11.1v36.8h202.3v-34.3c0,0-16.1-7.6-19.4-17c-3.4-9.3-5.1-17-6.8-30.6
					c-1.7-13.5-55.8-382.4-57.5-396c-1.7-13.6-1.7-20.4,5.9-29.8c6.3-7.7,20.3-13.6,20.3-13.6V338.3L3701.6,338.3z"/>
			</g>
			<g>
				<g>
					
						<linearGradient id="SVGID_00000151502722587707846410000005819897219121510834_" gradientUnits="userSpaceOnUse" x1="993.0859" y1="942.1387" x2="887.1154" y2="341.1504">
						<stop  offset="0" style="stop-color:#FF9D01"/>
						<stop  offset="0.1496" style="stop-color:#FFA402"/>
						<stop  offset="0.3686" style="stop-color:#FFB805"/>
						<stop  offset="0.6289" style="stop-color:#FFD80A"/>
						<stop  offset="0.7832" style="stop-color:#FFEE0D"/>
						<stop  offset="1" style="stop-color:#FFD70B"/>
					</linearGradient>
					<path style="fill:url(#SVGID_00000151502722587707846410000005819897219121510834_);" d="M1246.2,835.5
						c-8.5-10.2-16.9-22.1-22-34.9l-176.1-462.4H903.3L730.7,809.1c0,0-4.3,13.6-17,26.4c-11.6,11.7-27,17-27,17v39.9h170.1v-39.9
						c0,0-19.8-2-25.4-16.2c-3.4-8.5-3.4-22.1,0-30.6c3.4-8.5,39-103.7,39-103.7h173.5c0,0,35.6,94.3,40.6,106.3
						c5.1,11.9,5.1,21.3-1.7,33.2c-6.8,11.9-20.3,10.2-20.3,10.2v40.8h212.5v-39.9C1274.9,852.5,1254.6,845.7,1246.2,835.5z
						 M899.1,615.4l54.2-161.5l57.5,161.5H899.1z"/>
					
						<linearGradient id="SVGID_00000121245063981921156810000012362940500643750309_" gradientUnits="userSpaceOnUse" x1="980.8019" y1="892.4393" x2="980.8019" y2="338.2943">
						<stop  offset="5.327789e-09" style="stop-color:#FFCF00"/>
						<stop  offset="1" style="stop-color:#FFFF36"/>
					</linearGradient>
					<path style="fill:url(#SVGID_00000121245063981921156810000012362940500643750309_);" d="M1039.1,351.3l172.9,454l0,0.1l0,0.1
						c4.8,12,12.7,24.6,24.1,38.3c6.7,8,17.9,14,25.8,17.5v18.1h-186.5V863c7.9-2.5,14.5-7.8,18.6-15.1c8.6-15.1,9.3-28.4,2.3-44.7
						c-3.9-9.2-28.2-73.2-40.4-105.7l-3.2-8.4h-9H870.3h-9l-3.2,8.5c-0.4,1-35.5,95.2-38.8,103.4c-4.6,11.5-4.6,28.8,0,40.2
						c5,12.5,15.9,18.6,24.5,21.6v16.7H699.7V861c6.5-3.2,15.6-8.6,23.3-16.3c13.8-13.9,19.1-28.4,20.1-31.3l169.4-462.1H1039.1
						 M881,628.4h18.1h111.7h18.4l-6.2-17.4l-57.5-161.5l-12.6-35.4l-12,35.6l-54.2,161.5L881,628.4 M1048.1,338.3H903.3
						L730.7,809.1c0,0-4.3,13.6-17,26.4c-11.6,11.7-27,17-27,17v39.9h170.1v-39.9c0,0-19.8-2-25.4-16.2c-3.4-8.5-3.4-22.1,0-30.6
						c3.4-8.5,39-103.7,39-103.7h173.5c0,0,35.6,94.3,40.6,106.3c5.1,11.9,5.1,21.3-1.7,33.2c-5.2,9.2-14.5,10.3-18.5,10.3
						c-1.2,0-1.9-0.1-1.9-0.1v40.8h212.5v-39.9c0,0-20.4-6.8-28.8-17c-8.5-10.2-16.9-22.1-22-34.9L1048.1,338.3L1048.1,338.3z
						 M899.1,615.4l54.2-161.5l57.5,161.5H899.1L899.1,615.4z"/>
				</g>
				<g>
					
						<linearGradient id="SVGID_00000006681093612310934870000011020767425773029248_" gradientUnits="userSpaceOnUse" x1="1611.7025" y1="879.3243" x2="1511.0673" y2="308.594">
						<stop  offset="0" style="stop-color:#FF9D01"/>
						<stop  offset="0.1496" style="stop-color:#FFA402"/>
						<stop  offset="0.3686" style="stop-color:#FFB805"/>
						<stop  offset="0.6289" style="stop-color:#FFD80A"/>
						<stop  offset="0.7832" style="stop-color:#FFEE0D"/>
						<stop  offset="1" style="stop-color:#FFD70B"/>
					</linearGradient>
					<path style="fill:url(#SVGID_00000006681093612310934870000011020767425773029248_);" d="M1613.5,338.3
						c-99.9,0-270.8,0-270.8,0v45.1c0,0,16.1,9.3,22.8,16.1c6.8,6.8,6,23.8,6,23.8v399.4c0,0-1.7,10.2-10.2,18.7
						c-8.5,8.5-20.3,11-20.3,11v39.9h196.4v-40.8c0,0-9.3-2.5-17.8-12.7c-8.5-10.2-9.3-16.2-9.3-16.2v-88.3
						c0,0,95.3-26.2,167.6-59.5c62.7-28.9,135.4-69.7,135.4-185.2S1713.4,338.3,1613.5,338.3z M1511.9,657.9V421.6
						c0,0,159.1-39.1,159.1,76.5C1671.1,591.6,1511.9,657.9,1511.9,657.9z"/>
					
						<linearGradient id="SVGID_00000001651061528182875180000011992741526207292801_" gradientUnits="userSpaceOnUse" x1="1577.092" y1="892.4393" x2="1577.092" y2="338.2943">
						<stop  offset="5.327789e-09" style="stop-color:#FFCF00"/>
						<stop  offset="1" style="stop-color:#FFFF36"/>
					</linearGradient>
					<path style="fill:url(#SVGID_00000001651061528182875180000011992741526207292801_);" d="M1613.5,351.3
						c53.6,0,98.7,10.5,130.5,30.3c17.7,11.1,31.5,25.2,40.8,41.9c10.3,18.5,15.5,40.7,15.5,66.1c0,105.6-63.2,143.6-127.9,173.4
						c-70.5,32.5-164.7,58.6-165.6,58.8l-9.6,2.6v9.9v88.3v0.9l0.1,0.9c0.3,2.3,2.1,10.6,12.2,22.7c5,6.1,10.3,10.1,14.8,12.7v19.5
						h-170.4v-17.7c5.1-2.2,11.2-5.8,16.5-11.1c11.1-11.1,13.5-24.3,13.8-25.8l0.2-1.1v-1.1V423.5c0-1.4,0.1-5.9-0.5-11.2
						c-1.2-9.7-4.3-17.1-9.2-22l0,0l0,0c-4.9-4.9-13.2-10.5-19-14.2v-24.8H1613.5 M1498.9,677.4l18-7.5c1.7-0.7,41.6-17.5,82.1-46.2
						c56.4-40.1,85-82.3,85-125.6c0-61.8-40.9-95.9-115.3-95.9c-32.1,0-58.8,6.5-59.9,6.7l-9.9,2.4v10.2v236.3V677.4 M1613.5,338.3
						c-99.9,0-270.8,0-270.8,0v45.1c0,0,16.1,9.3,22.8,16.1c6.8,6.8,6,23.8,6,23.8v399.4c0,0-1.7,10.2-10.2,18.7
						c-8.5,8.5-20.3,11-20.3,11v39.9h196.4v-40.8c0,0-9.3-2.5-17.8-12.7c-8.5-10.2-9.3-16.2-9.3-16.2v-88.3
						c0,0,95.3-26.2,167.6-59.5c62.7-28.9,135.4-69.7,135.4-185.2C1813.2,374,1713.4,338.3,1613.5,338.3L1613.5,338.3z
						 M1511.9,657.9V421.6c0,0,25.9-6.4,56.8-6.4c45.7,0,102.3,13.9,102.3,82.9C1671.1,591.6,1511.9,657.9,1511.9,657.9
						L1511.9,657.9z"/>
				</g>
				<g>
					
						<linearGradient id="SVGID_00000070095685544428517690000007322097084584524969_" gradientUnits="userSpaceOnUse" x1="2794.3467" y1="904.8558" x2="2692.0449" y2="324.6742">
						<stop  offset="0" style="stop-color:#FF9D01"/>
						<stop  offset="0.1496" style="stop-color:#FFA402"/>
						<stop  offset="0.3686" style="stop-color:#FFB805"/>
						<stop  offset="0.6289" style="stop-color:#FFD80A"/>
						<stop  offset="0.7832" style="stop-color:#FFEE0D"/>
						<stop  offset="1" style="stop-color:#FFD70B"/>
					</linearGradient>
					<path style="fill:url(#SVGID_00000070095685544428517690000007322097084584524969_);" d="M2742.6,321.5
						c-179.5,0-314.3,126.5-314.3,289.7s131.4,297.2,314.3,297.2c182.8,0,314.3-134.1,314.3-297.2S2922.1,321.5,2742.6,321.5z
						 M2742.6,817.7c-79.6,0-162.5-40.8-162.5-204s93.1-204,162.5-204c69.4,0,164.2,51,164.2,204
						C2906.8,766.7,2822.2,817.7,2742.6,817.7z"/>
					
						<linearGradient id="SVGID_00000097471043937915344740000010422352537637315246_" gradientUnits="userSpaceOnUse" x1="2742.6326" y1="908.3904" x2="2742.6326" y2="321.4691">
						<stop  offset="5.327789e-09" style="stop-color:#FFCF00"/>
						<stop  offset="1" style="stop-color:#FFFF36"/>
					</linearGradient>
					<path style="fill:url(#SVGID_00000097471043937915344740000010422352537637315246_);" d="M2742.6,334.5
						c83.2,0,159.8,28.5,215.6,80.2c55.3,51.2,85.7,121,85.7,196.5c0,76.5-30,147.7-84.6,200.5c-27.2,26.3-59.2,46.9-95.2,61.2
						c-37.7,15-78.5,22.6-121.4,22.6c-42.9,0-83.7-7.6-121.4-22.6c-36-14.3-68.1-34.9-95.2-61.2c-54.6-52.8-84.6-124-84.6-200.5
						c0-75.5,30.4-145.3,85.7-196.5C2582.8,362.9,2659.4,334.5,2742.6,334.5 M2742.6,830.7c85.7,0,177.2-57,177.2-217
						c0-171.3-111.4-217-177.2-217c-41.2,0-175.5,15.6-175.5,217C2567.1,802.5,2677.1,830.7,2742.6,830.7 M2742.6,321.5
						c-179.5,0-314.3,126.5-314.3,289.7s131.4,297.2,314.3,297.2c182.8,0,314.3-134.1,314.3-297.2S2922.1,321.5,2742.6,321.5
						L2742.6,321.5z M2742.6,817.7c-79.6,0-162.5-40.8-162.5-204s93.1-204,162.5-204c69.4,0,164.2,51,164.2,204
						C2906.8,766.7,2822.2,817.7,2742.6,817.7L2742.6,817.7z"/>
				</g>
				<g>
					
						<linearGradient id="SVGID_00000078028415470978186100000006842620017417263015_" gradientUnits="userSpaceOnUse" x1="414.5874" y1="920.957" x2="310.6324" y2="331.399">
						<stop  offset="0" style="stop-color:#FF9D01"/>
						<stop  offset="0.1496" style="stop-color:#FFA402"/>
						<stop  offset="0.3686" style="stop-color:#FFB805"/>
						<stop  offset="0.6289" style="stop-color:#FFD80A"/>
						<stop  offset="0.7832" style="stop-color:#FFEE0D"/>
						<stop  offset="1" style="stop-color:#FFD70B"/>
					</linearGradient>
					<path style="fill:url(#SVGID_00000078028415470978186100000006842620017417263015_);" d="M477.9,517.2l16.1,13.2
						c5.6,4.6,13.7,4.1,18.7-1.2l94.5-99.5c0,0-83.8-106.5-222.6-106.5c-143.3,0-301.3,101.2-301.3,283.7
						c0,119,116.8,283.8,326.7,283.8h176.1V753.1h-32.2c0,0-19.8,52.7-113.4,52.7c-160.8,0-209.9-146.2-209.9-226.1
						c0-79.9,45.7-176.8,149-176.8c103.3,0,106.6,67.1,106.6,83.3c0,16.1-9.3,24.6-9.3,28C476.7,515.6,477.2,516.6,477.9,517.2z"/>
					
						<linearGradient id="SVGID_00000109739030221695247640000007325794540387152825_" gradientUnits="userSpaceOnUse" x1="345.0985" y1="890.7459" x2="345.0985" y2="323.2171">
						<stop  offset="5.327789e-09" style="stop-color:#FFCF00"/>
						<stop  offset="1" style="stop-color:#FFFF36"/>
					</linearGradient>
					<path style="fill:url(#SVGID_00000109739030221695247640000007325794540387152825_);" d="M384.5,336.2c30,0,59.7,5.3,88.4,15.7
						c23.1,8.4,45.6,20.1,66.8,34.7c23.8,16.4,40.8,33.1,49.8,42.7l-86.3,90.9c-0.1,0.1-0.2,0.2-0.5,0.2c-0.2,0-0.4-0.1-0.5-0.2
						l-9.9-8.1c3.1-5.7,6.7-14.4,6.7-26c0-22.6-8.6-96.3-119.6-96.3c-106.3,0-162,95.5-162,189.8c0,96.1,59.4,239.1,222.9,239.1
						c79.3,0,110.8-35.9,121.2-52.7h11.4v111.7H409.9c-48,0-93.3-8.9-134.5-26.6c-37.1-15.9-70.2-38.4-98.3-66.9
						c-25.5-25.8-46.4-56.2-60.5-88.1c-13.4-30.2-20.4-61.1-20.4-89.3c0-41.7,8.6-80.6,25.6-115.6c15.6-32.2,38.1-60.7,66.6-84.7
						C241.8,361.9,313.2,336.2,384.5,336.2 M384.5,323.2c-143.3,0-301.3,101.2-301.3,283.7c0,119,116.8,283.8,326.7,283.8h176.1
						V753.1h-32.2c0,0-19.8,52.7-113.4,52.7c-160.8,0-209.9-146.2-209.9-226.1c0-79.9,45.7-176.8,149-176.8
						c103.3,0,106.6,67.1,106.6,83.3c0,16.1-9.3,24.6-9.3,28c0,1.3,0.4,2.3,1.1,2.9l16.1,13.2c2.5,2.1,5.6,3.1,8.7,3.1
						c3.7,0,7.3-1.4,10-4.3l94.5-99.5C607.1,429.7,523.3,323.2,384.5,323.2L384.5,323.2z"/>
				</g>
				<g>
					
						<linearGradient id="SVGID_00000031191874722781887990000004981969877778983080_" gradientUnits="userSpaceOnUse" x1="2207.3638" y1="921.9402" x2="2103.4087" y2="332.3819">
						<stop  offset="0" style="stop-color:#FF9D01"/>
						<stop  offset="0.1496" style="stop-color:#FFA402"/>
						<stop  offset="0.3686" style="stop-color:#FFB805"/>
						<stop  offset="0.6289" style="stop-color:#FFD80A"/>
						<stop  offset="0.7832" style="stop-color:#FFEE0D"/>
						<stop  offset="1" style="stop-color:#FFD70B"/>
					</linearGradient>
					<path style="fill:url(#SVGID_00000031191874722781887990000004981969877778983080_);" d="M2270.6,518.1l16.1,13.2
						c5.6,4.6,13.7,4.1,18.7-1.2l94.5-99.5c0,0-83.8-106.5-222.6-106.5c-143.3,0-301.3,101.2-301.3,283.7
						c0,119,116.8,283.8,326.7,283.8h176.1V754.1h-32.2c0,0-19.8,52.7-113.4,52.7c-160.8,0-209.9-146.2-209.9-226.1
						c0-79.9,45.7-176.8,149-176.8c103.3,0,106.6,67.1,106.6,83.3c0,16.1-9.3,24.6-9.3,28C2269.5,516.5,2269.9,517.6,2270.6,518.1z"
						/>
					
						<linearGradient id="SVGID_00000070822098663796763460000005391740976926770066_" gradientUnits="userSpaceOnUse" x1="2137.875" y1="891.7288" x2="2137.875" y2="324.2">
						<stop  offset="5.327789e-09" style="stop-color:#FFCF00"/>
						<stop  offset="1" style="stop-color:#FFFF36"/>
					</linearGradient>
					<path style="fill:url(#SVGID_00000070822098663796763460000005391740976926770066_);" d="M2177.2,337.2
						c30,0,59.7,5.3,88.4,15.7c23.1,8.4,45.6,20.1,66.8,34.7c23.8,16.4,40.8,33.1,49.8,42.7l-86.3,90.9c-0.1,0.1-0.2,0.2-0.5,0.2
						c-0.2,0-0.4-0.1-0.5-0.2l-9.9-8.1c3.1-5.7,6.7-14.4,6.7-26c0-22.6-8.6-96.3-119.6-96.3c-106.3,0-162,95.5-162,189.8
						c0,96.1,59.4,239.1,222.9,239.1c79.3,0,110.8-35.9,121.2-52.7h11.4v111.7h-163.1c-48,0-93.3-8.9-134.5-26.6
						c-37.1-15.9-70.2-38.4-98.3-66.9c-25.5-25.8-46.4-56.2-60.5-88.1c-13.4-30.2-20.4-61.1-20.4-89.3c0-41.7,8.6-80.6,25.6-115.6
						c15.6-32.2,38.1-60.7,66.6-84.7C2034.5,362.9,2106,337.2,2177.2,337.2 M2177.2,324.2c-143.3,0-301.3,101.2-301.3,283.7
						c0,119,116.8,283.8,326.7,283.8h176.1V754.1h-32.2c0,0-19.8,52.7-113.4,52.7c-160.8,0-209.9-146.2-209.9-226.1
						c0-79.9,45.7-176.8,149-176.8c103.3,0,106.6,67.1,106.6,83.3c0,16.1-9.3,24.6-9.3,28c0,1.3,0.4,2.3,1.1,2.9l16.1,13.2
						c2.5,2.1,5.6,3.1,8.7,3.1c3.7,0,7.3-1.4,10-4.3l94.5-99.5C2399.8,430.7,2316,324.2,2177.2,324.2L2177.2,324.2z"/>
				</g>
			</g>
			<g class="st20">
				<path class="st21" d="M607,429.8l-95.6,100.7c0,0-5.1,2.5-9.3,2.5c-4.3,0-10.2-4.2-10.2-4.2l-11.8-10.2c0,0-3.4-0.9-3.4-4.3
					c0-3.4,9.3-11.9,9.3-28c0-16.2-3.3-83.3-106.6-83.3c-103.2,0-148.9,96.9-148.9,176.7c0,79.9,49.1,226,209.9,226
					c93.5,0,113.4-52.7,113.4-52.7h32.2v137.6h-176C200,890.6,83.2,725.8,83.2,606.9c0-182.4,157.9-283.6,301.2-283.6
					C523.2,323.3,607,429.8,607,429.8"/>
				<line class="st22" x1="473.6" y1="513.6" x2="513.9" y2="546.7"/>
				<line class="st22" x1="596.9" y1="440.4" x2="489.3" y2="553.7"/>
				<path class="st23" d="M2745.1,995.5c-132.8,0-234.3-66-285.8-108.4v91.4h-238.2c-200.4,0-360.4-110.2-416.5-283.5
					c-41.8,30.4-116.9,73.9-201.2,96.1c2.3,0.6,4.6,1.2,6.8,1.5l17.8,3.1l0.1,182.7H418.3C183.8,978.5,0,818.3,0,613.7
					C0,395.4,163.1,237,387.8,237c228.9,0,320,172.6,323.8,180l6.9,13.5L516.1,645.2l-155.3-107l19-18.2
					c4.9-4.9,12.2-15.5,11.7-22.6c-0.1-1.3,1-6.8-5.3-11.5c-1.4-1.1-10.3,0-22.6,6.3c-22.5,11.7-48.2,42.3-46.4,90.1
					c3.7,95.6,62,139.1,114.6,139.1c46.4,0,59.6-33.7,60.9-37.5l5-14.4l15.3-0.2h165.7v24l166.5-441h261.5l177.3,459.7
					c0.2-94.3,0.6-242.7,0.6-248.7c0-8.6-1.5-11-1.6-11.1c-3.5-4.1-11-7.3-14.2-8.2l-15.4-4.5l-0.2-16.1V252.3h346.5
					c153.9,0,212.4,36.6,263.3,117.9c76-89.5,173.5-134.9,290.2-134.9c126.9,0,226.4,42,289.7,121.7
					c75.5-77.2,190.1-122.5,312.1-122.5c118.2,0,223.9,46.5,294.2,127.1V252.3h349.3l15.4,39.2l11.5-39.2h360.9l0,181.1l-12.1,5.9
					c-17.2,8.3-18.3,11.8-16.1,25.8l45.2,288.9c1.3,6.5,3.3,11,6.4,13.7c1.4,1.2,4.3,1.5,5.5,1.4l23-1.6l0.7,23v188.1h-367.9V852.7
					h-143.3v126.1h-348.5v-60.5C2933.4,949.2,2847.6,995.5,2745.1,995.5z M2416.5,782.6l37.3,41c1.2,1.3,119.3,128.9,291.3,128.9
					c133.7,0,240.4-92.3,241.4-93.2l35.6-31.3l0,107.9h262.7V809.8H3514v125.8h282.1v-127c-4.9-1.9-10.1-4.7-14.9-9
					c-13.5-12.1-17.9-27.6-20-38.2l-45.3-289.8c-5.5-35,9.2-52.9,27.7-64.5l0-112h-285.8l-37.7,129l-50.6-129h-277.1v213.8
					l-40.1-69.8c-58.1-101.3-169.2-161.7-297.1-161.7c-119.8,0-231.1,47.6-297.5,127.4l-18.5,22.2l-15.9-24.2
					c-53.5-81.5-146.9-124.6-269.9-124.6c-114.4,0-204.6,46.7-275.6,142.6l-19.9,26.8l-16.2-29.2c-42.3-76.4-76.6-123.3-241.9-123.3
					h-303.6v113.9c6.4,3.4,13.5,8.3,19.3,15.1c8,9.2,11.9,22,11.9,39c0,8.8-0.8,325.6-0.8,325.6l-0.1,34.7l-31-15.6
					c-18.2-9.2-32.5-34-36.4-41.4l-1.1-2.3l-180.9-469H875L677.5,818.5l-41.5-7.6v-98.7H526.6c-11.4,19.8-38.6,52.1-94.7,52.1
					c-72.5,0-152.7-56.4-157.5-180.4c-2.6-67.9,35.9-112.4,69.6-129.8c25.2-13,50.2-13.1,67.1-0.2c18.2,13.9,22.7,30.1,23.3,41.2
					c0.8,13.5-3.8,25.8-9.2,35.4l85,58.5l155.8-165.2c-24.4-37.6-108.2-143.9-278-143.9c-203.1,0-344.9,137.3-344.9,333.8
					c0,180.5,164.9,321.9,375.4,321.9h1166.9v-105c-20.6-7-38.1-20.3-38.1-40.9c0-13.4,5.3-30.6,30.3-36.2
					c108.2-24.4,202.3-89.9,224.3-111l27-25.9l8.7,36.4c41.8,174.4,188.8,282.7,383.8,282.7h195.3V782.6z"/>
			</g>
		</g>
	</g>
</g>
</svg>
