<?xml version="1.0" encoding="utf-8"?>
<!-- Generator: Adobe Illustrator 26.0.3, SVG Export Plug-In . SVG Version: 6.00 Build 0)  -->
<svg version="1.1" id="Layer_1" xmlns="http://www.w3.org/2000/svg" xmlns:xlink="http://www.w3.org/1999/xlink" x="0px" y="0px"
	 viewBox="0 0 3839 1080.7" style="enable-background:new 0 0 3839 1080.7;" xml:space="preserve">
<style type="text/css">
	.st0{fill-rule:evenodd;clip-rule:evenodd;fill:url(#rect4789_00000018235406074678996690000006386352507105811888_);}
	.st1{fill:#FFFFFF;}
	.st2{fill:#231F20;}
	.st3{fill:url(#SVGID_1_);}
	.st4{fill:url(#SVGID_00000061473704138267169530000005092480883241079709_);}
	.st5{fill:url(#SVGID_00000026877822607543242370000017088870229335320198_);}
	.st6{fill:url(#SVGID_00000142156087989550596540000013949322870496510855_);}
	.st7{fill:url(#SVGID_00000093861838438960579770000011633255659872776615_);}
	.st8{fill:url(#SVGID_00000073682379858006781150000002474946619579702448_);}
	.st9{fill:url(#SVGID_00000127032578697226310580000017309723819499523003_);}
	.st10{fill:url(#SVGID_00000003789214197062404710000000967618530186068624_);}
	.st11{fill:url(#SVGID_00000159471218138790009380000002030975900595429291_);}
	.st12{fill:url(#SVGID_00000151511680220236704930000002787137517796220071_);}
	.st13{fill:url(#SVGID_00000142873619747216985640000009753656365804161685_);}
	.st14{fill:url(#SVGID_00000008110392517046186450000000912683555314711936_);}
	.st15{fill:url(#SVGID_00000052822909735706701000000014404638665335386523_);}
</style>
<g>
	<g>
		
			<linearGradient id="rect4789_00000025430296866860599800000013565324314229047711_" gradientUnits="userSpaceOnUse" x1="396.1012" y1="11510.2744" x2="396.1012" y2="11197.9766" gradientTransform="matrix(1 0 0 -1 1523.5 12278.6816)">
			<stop  offset="0" style="stop-color:#007CFF"/>
			<stop  offset="1" style="stop-color:#000055"/>
		</linearGradient>
		
			<path id="rect4789_00000083080511930263729420000002070746663022285199_" style="fill-rule:evenodd;clip-rule:evenodd;fill:url(#rect4789_00000025430296866860599800000013565324314229047711_);" d="
			M447.6,768.4h2944c86.3,0,156.1,69.9,156.1,156.1l0,0c0,86.3-69.9,156.1-156.1,156.1h-2944c-86.3,0-156.1-69.9-156.1-156.1l0,0
			C291.6,838.3,361.4,768.4,447.6,768.4z"/>
		<g>
			<path class="st1" d="M905.4,853.4h61c35.9,0,59.1,18.5,59.1,50v0.4c0,33.5-25.8,51.2-61.2,51.2h-19.5v40.7h-39.4L905.4,853.4
				L905.4,853.4z M963.5,923.9c14.1,0,22.6-7.3,22.6-18.5v-0.3c0-12.1-8.5-18.7-22.8-18.7h-18.5v37.6h18.7V923.9z"/>
			<path class="st1" d="M1103.1,853.4h39.4v107.7h68.9v34.5h-108.3V853.4z"/>
			<path class="st1" d="M1338.3,852.3h38l60.6,143.2h-42.3l-10.3-25.4h-54.8l-10.1,25.4h-41.5L1338.3,852.3z M1372.7,939.4
				l-15.9-40.5l-16.1,40.5H1372.7z"/>
			<path class="st1" d="M1530.1,942.3l-54-89h44.9l29.2,51.8l29.4-51.8h44.1l-54,88.4v53.8h-39.6V942.3z"/>
			<path class="st1" d="M1803.3,974.4l21.9-26.2c14.1,11.1,29.6,17.1,46.1,17.1c10.5,0,16.3-3.6,16.3-9.7v-0.4
				c0-5.9-4.7-9.1-24-13.7c-30.2-6.9-53.6-15.5-53.6-44.7v-0.4c0-26.4,20.9-45.5,55-45.5c24.2,0,43.1,6.5,58.5,18.9l-19.7,27.8
				c-13-9.1-27.2-14.1-39.8-14.1c-9.5,0-14.3,4-14.3,9.1v0.4c0,6.5,4.9,9.3,24.6,13.9c32.7,7.1,53,17.7,53,44.3v0.4
				c0,29-23,46.3-57.4,46.3C1844.8,998,1820.8,990,1803.3,974.4z"/>
			<path class="st1" d="M2042.5,942.3l-54-89h44.9l29.2,51.8l29.4-51.8h44.1l-54,88.4v53.8h-39.6L2042.5,942.3L2042.5,942.3z"/>
			<path class="st1" d="M2191.3,974.4l21.9-26.2c14.1,11.1,29.6,17.1,46.1,17.1c10.5,0,16.3-3.6,16.3-9.7v-0.4
				c0-5.9-4.7-9.1-24-13.7c-30.2-6.9-53.6-15.5-53.6-44.7v-0.4c0-26.4,20.9-45.5,55-45.5c24.2,0,43.1,6.5,58.5,18.9l-19.7,27.8
				c-13-9.1-27.2-14.1-39.8-14.1c-9.5,0-14.3,4-14.3,9.1v0.4c0,6.5,4.9,9.3,24.6,13.9c32.7,7.1,53,17.7,53,44.3v0.4
				c0,29-23,46.3-57.4,46.3C2232.8,998,2208.8,990,2191.3,974.4z"/>
			<path class="st1" d="M2426.2,887.9h-42.7v-34.5h124.7v34.5h-42.7v107.7h-39.4L2426.2,887.9L2426.2,887.9z"/>
			<path class="st1" d="M2586.4,853.4h114.4v33.5h-75.3v21.5h68.3v31h-68.3V962h76.4v33.5h-115.4V853.4z"/>
			<path class="st1" d="M2782.8,853.4h41.7l33.9,55l33.9-55h41.7v142.2h-39.2v-81.6l-36.4,55.6h-0.8l-36.2-55.2v81.2h-38.6V853.4
				H2782.8z"/>
		</g>
	</g>
	<g>
		<path class="st2" d="M1507.4,167.6v239c0,0,160.9-67.1,160.9-161.6C1668.3,128,1507.4,167.6,1507.4,167.6"/>
		<path class="st2" d="M2752.1,155.5c-70.2,0-164.3,41.3-164.3,206.3s83.8,206.3,164.3,206.3c80.4,0,166.1-51.6,166.1-206.3
			C2918.2,207,2822.3,155.5,2752.1,155.5"/>
		<polyline class="st2" points="887.6,363.6 1000.6,363.6 942.4,200.2 887.6,363.6 		"/>
		<path class="st2" d="M570.9,642.1H392.8C180.5,642.1,62.4,475.3,62.4,355c0-184.5,159.8-286.9,304.7-286.9
			c140.4,0,225.1,107.7,225.1,107.7l-96.7,101.8c0,0-5.2,2.6-9.4,2.6c-4.3,0-10.3-4.3-10.3-4.3l-12-10.3c0,0-3.4-0.8-3.4-4.3
			c0-3.4,9.4-12,9.4-28.3s-3.4-84.2-107.8-84.2s-150.7,98-150.7,178.8s49.7,228.7,212.3,228.7c94.7,0,114.7-53.3,114.7-53.3h32.6
			L570.9,642.1L570.9,642.1z M1267.6,643.8h-214.8v-41.3c0,0,13.7,1.7,20.5-10.3c6.9-12,6.9-21.5,1.7-33.6
			c-5.2-12-41.1-107.5-41.1-107.5H858.5c0,0-36,96.3-39.3,104.9c-3.4,8.6-3.4,22.4,0,30.9c5.7,14.3,25.7,16.4,25.7,16.4v40.4H672.7
			v-40.4c0,0,15.6-5.4,27.3-17.2c12.8-12.8,17.1-26.6,17.1-26.6L891.9,83.3h146.4l178,467.5c5.2,12.9,13.8,25,22.4,35.3
			c8.5,10.3,29,17.2,29,17.2L1267.6,643.8L1267.6,643.8z M1675.1,423.7c-73.1,33.8-169.4,60.2-169.4,60.2v89.4c0,0,0.8,6.1,9.4,16.4
			c8.6,10.3,18,12.8,18,12.8v41.3h-198.6v-40.4c0,0,12-2.6,20.5-11.1c8.6-8.6,10.3-18.9,10.3-18.9V169.3c0,0,0.8-17.2-6.1-24.1
			s-23.1-16.3-23.1-16.3V83.3c0,0,172.8,0,273.9,0c101,0,202.1,36.1,202.1,153S1738.5,394.5,1675.1,423.7z M2175.1,149.7
			c-104.4,0-150.7,98-150.7,178.8s49.7,228.7,212.3,228.7c94.7,0,114.7-53.3,114.7-53.3h32.6v139.3h-178.1
			c-212.3,0-330.4-166.8-330.4-287c0-184.6,159.8-286.9,304.7-286.9c140.4,0,225.1,107.7,225.1,107.7l-96.7,101.8
			c0,0-5.2,2.5-9.4,2.5s-10.3-4.2-10.3-4.2l-12-10.3c0,0-3.4-0.9-3.4-4.3s9.4-12,9.4-28.3C2283,217.5,2279.5,149.7,2175.1,149.7z
			 M2752.1,659.9c-184.9,0-317.9-135.6-317.9-300.6s136.3-292.9,317.9-292.9c181.4,0,317.8,127.9,317.8,292.9
			S2937,659.9,2752.1,659.9z M3780.1,644.1h-204.6v-37.3c0,0,18-2.6,24-11.1c6.1-8.6,8.6-13.8,6.9-27.5
			c-1.7-13.8-50.5-326.7-50.5-326.7l-89.1,276.7H3359l-88.2-259.5l-44.5,305.9c0,0-1.7,18.4,5.2,28.4c9.4,13.8,26.5,13.8,26.5,13.8
			v36.9h-177.2v-39.5c0,0,14.2-2.1,24.4-14.2c10.3-12,12-27.5,12-27.5l64.6-403.6c0,0,3.8-15.1-0.4-21.9
			c-4.6-7.3-28.7-13.3-28.7-13.3V83.7h203.8l73.6,228.3l78.7-228.7H3722v33.6c0,0-14.3,6-20.5,13.8c-7.7,9.4-7.7,16.3-6.1,30
			c1.7,13.8,56.5,386.7,58.3,400.6c1.7,13.8,3.4,21.5,6.9,30.9c3.4,9.4,19.7,17.1,19.7,17.1v34.8H3780.1z"/>
		<path class="st1" d="M1507.4,167.6v239c0,0,160.9-67.1,160.9-161.6C1668.3,128,1507.4,167.6,1507.4,167.6"/>
		<path class="st1" d="M2752.1,155.5c-70.2,0-164.3,41.3-164.3,206.3s83.8,206.3,164.3,206.3c80.4,0,166.1-51.6,166.1-206.3
			C2918.2,207,2822.3,155.5,2752.1,155.5"/>
		<polyline class="st1" points="887.6,363.6 1000.6,363.6 942.4,200.2 887.6,363.6 		"/>
		
			<linearGradient id="SVGID_1_" gradientUnits="userSpaceOnUse" x1="1919.5" y1="-1514.8994" x2="1919.5" y2="-2241.1338" gradientTransform="matrix(1 0 0 1 0 2241.1338)">
			<stop  offset="0.1654" style="stop-color:#000055"/>
			<stop  offset="0.9017" style="stop-color:#007CFF"/>
		</linearGradient>
		<path class="st3" d="M678.7,172.7L497.3,365.3l-119.8-82.5c0,0,39.3-37.8,3.4-65.3c-28.1-21.4-106.7,24.1-103.4,113.5
			c3.9,103.2,67.4,161.6,137.5,161.6c65,0,82.1-52.7,82.1-52.7h145.9v121.5L848.2,18h234.5L1271,506.2c0,0,13.7,25.8,27.4,32.7
			c0,0,0.8-320.3,0.8-329.3s-1.2-18.9-6.8-25.3c-9.2-10.6-24.8-15.1-24.8-15.1V18c0,0,217.3,0,328.7,0
			c170.4,0,214.2,46.4,263.7,135.8c68.3-92.2,162.1-153,296.1-153c137.9,0,235.4,51,291.1,135.8C2525.1,43.3,2650.3,0,2764.8,0
			c140.8,0,258.5,68.5,319.3,174.5V18h316.7l33.4,85.1L3459,18h327v147.9c-23.2,11.2-32.5,22.6-28.3,49l45.7,292.2
			c1.9,9.5,5.3,19.4,13.3,26.7c9.5,8.5,22.2,6.9,22.2,6.9v168.5h-328.7V581.8H3322v127.5h-309.1v-82.8c0,0-113,99.7-258.5,99.7
			c-186.3,0-310.7-137.5-310.7-137.5V709c0,0-13.7,0-219.2,0c-195,0-362.5-107.2-409.2-302.5c-22.1,21.2-119.8,91.3-237.2,117.7
			c-9.1,2-13.7,5.6-13.7,15.5c0,18.1,38.5,24.6,38.5,24.6v144.8c0,0-1013.5,0-1201.9,0C178.8,709,0,556.1,0,361.9
			S139.5,2.5,370.6,2.5C591.4,2.5,678.7,172.7,678.7,172.7"/>
		<g>
			
				<linearGradient id="SVGID_00000136401772642261920620000011481452948333557908_" gradientUnits="userSpaceOnUse" x1="3460.7769" y1="-1540.808" x2="3346.0449" y2="-2191.4856" gradientTransform="matrix(1 0 0 1 0 2241.1338)">
				<stop  offset="0" style="stop-color:#FF9D01"/>
				<stop  offset="0.1496" style="stop-color:#FFA402"/>
				<stop  offset="0.3686" style="stop-color:#FFB805"/>
				<stop  offset="0.6289" style="stop-color:#FFD80A"/>
				<stop  offset="0.7832" style="stop-color:#FFEE0D"/>
				<stop  offset="1" style="stop-color:#FFD70B"/>
			</linearGradient>
			<path style="fill:url(#SVGID_00000136401772642261920620000011481452948333557908_);" d="M3760.5,592.2
				c-3.4-9.4-5.2-17.2-6.9-30.9c-1.7-13.7-56.4-386.7-58.2-400.5c-1.7-13.8-1.7-20.6,6-30.1c6.4-7.8,20.5-13.8,20.5-13.8V83.3
				h-213.2L3430.1,312l-73.6-228.3h-203.8v40c0,0,24.2,6.2,28.7,13.3c4.3,6.9,0.4,21.9,0.4,21.9l-64.6,403.5c0,0-1.7,15.5-12,27.5
				c-10.3,12-24.4,14.2-24.4,14.2v39.5H3258v-37c0,0-17.1,0-26.5-13.9c-6.9-10-5.2-28.3-5.2-28.3l44.5-306l88.2,259.6h107.9
				l89-276.8c0,0,48.7,312.9,50.5,326.7c1.7,13.8-0.8,18.9-6.9,27.5c-6,8.6-24,11.2-24,11.2V644h204.6v-34.7
				C3780.1,609.3,3763.9,601.6,3760.5,592.2z"/>
			
				<linearGradient id="SVGID_00000101784381005845928380000011124779427302212499_" gradientUnits="userSpaceOnUse" x1="3430.4739" y1="-1597.1204" x2="3430.4739" y2="-2157.8003" gradientTransform="matrix(1 0 0 1 0 2241.1338)">
				<stop  offset="5.327789e-09" style="stop-color:#FFCF00"/>
				<stop  offset="1" style="stop-color:#FFFF36"/>
			</linearGradient>
			<path style="fill:url(#SVGID_00000101784381005845928380000011124779427302212499_);" d="M3708.8,96.5v12.2
				c-5.7,3.1-12.8,7.8-17.6,13.7c-11.1,13.7-10.6,25.2-8.8,40c0.9,7.1,14.8,101.9,29.4,202.5c13.8,94.1,27.9,191.3,28.7,198
				c1.8,14.5,3.7,23.4,7.6,33.9c2.3,6.6,7.7,12.7,16,18.5c1,0.7,2,1.3,2.9,1.9v13.9h-178.3v-13.7c7.4-2.4,16.4-6.7,21.5-14.1
				c7.9-11.2,11.2-19.6,9.1-36.6c-1.7-13.8-48.5-314.2-50.6-327.1l-8.5-54.8l-17,52.8l-86.1,267.7h-88.8l-85.2-250.7l-17.6-51.8
				l-7.9,54.1l-44.5,306v0.3v0.3c-0.4,3.8-1.7,23.8,7.4,36.9c6.5,9.6,15.9,14.9,24.3,17.4v12.7h-150.9v-16.8
				c6.4-2.6,14.4-7.3,21.2-15.3c11.9-14.1,14.6-30.9,15-34.2l64.5-402.7c1.3-5.5,4.3-21.1-2.2-31.6c-3.6-5.8-10.6-10.3-22.7-14.8
				c-1.4-0.5-2.7-1-4-1.4V96.9h181l70.7,219.2l12.1,37.5l12.8-37.3l75.6-219.8L3708.8,96.5 M3722,83.3h-213.2L3430.1,312
				l-73.6-228.3h-203.8v40c0,0,24.2,6.2,28.7,13.3c4.3,6.9,0.4,21.9,0.4,21.9l-64.6,403.5c0,0-1.7,15.5-12,27.5
				c-10.3,12-24.4,14.2-24.4,14.2v39.5H3258v-37c0,0-17.1,0-26.5-13.9c-6.9-10-5.2-28.3-5.2-28.3l44.5-306l88.2,259.6h107.9
				l89-276.8c0,0,48.7,312.9,50.5,326.7c1.7,13.8-0.8,18.9-6.9,27.5c-6,8.6-24,11.2-24,11.2V644h204.6v-34.7c0,0-16.3-7.7-19.6-17.2
				c-3.4-9.4-5.2-17.2-6.9-30.9c-1.7-13.7-56.4-386.7-58.2-400.5s-1.7-20.6,6-30.1c6.4-7.8,20.5-13.8,20.5-13.8L3722,83.3L3722,83.3
				z"/>
		</g>
		<g>
			<g>
				
					<linearGradient id="SVGID_00000072270853114491055220000000237761370100010929_" gradientUnits="userSpaceOnUse" x1="982.6464" y1="-1547.0601" x2="875.4671" y2="-2154.9045" gradientTransform="matrix(1 0 0 1 0 2241.1338)">
					<stop  offset="0" style="stop-color:#FF9D01"/>
					<stop  offset="0.1496" style="stop-color:#FFA402"/>
					<stop  offset="0.3686" style="stop-color:#FFB805"/>
					<stop  offset="0.6289" style="stop-color:#FFD80A"/>
					<stop  offset="0.7832" style="stop-color:#FFEE0D"/>
					<stop  offset="1" style="stop-color:#FFD70B"/>
				</linearGradient>
				<path style="fill:url(#SVGID_00000072270853114491055220000000237761370100010929_);" d="M1238.6,586.2
					c-8.6-10.3-17.1-22.4-22.2-35.3L1038.2,83.3H891.9L717.2,559.5c0,0-4.3,13.8-17.2,26.7c-11.7,11.8-27.3,17.2-27.3,17.2v40.4h172
					v-40.4c0,0-20-2-25.7-16.4c-3.4-8.6-3.4-22.4,0-30.9c3.4-8.6,39.4-104.9,39.4-104.9H1034c0,0,36,95.4,41.1,107.5
					c5.2,12,5.2,21.5-1.7,33.6c-6.9,12-20.5,10.3-20.5,10.3v41.3h214.9v-40.4C1267.7,603.4,1247.1,596.5,1238.6,586.2z M887.6,363.6
					l54.7-163.3l58.2,163.3H887.6z"/>
				
					<linearGradient id="SVGID_00000043456298676193112640000012447458307374254490_" gradientUnits="userSpaceOnUse" x1="970.1667" y1="-1597.3225" x2="970.1667" y2="-2157.8003" gradientTransform="matrix(1 0 0 1 0 2241.1338)">
					<stop  offset="5.327789e-09" style="stop-color:#FFCF00"/>
					<stop  offset="1" style="stop-color:#FFFF36"/>
				</linearGradient>
				<path style="fill:url(#SVGID_00000043456298676193112640000012447458307374254490_);" d="M1029.2,96.5l174.9,459.1v0.1v0.1
					c4.9,12.1,12.8,24.9,24.4,38.7c6.8,8.1,18.1,14.2,26.1,17.7v18.3h-188.6V614c8-2.5,14.7-7.9,18.8-15.3
					c8.7-15.3,9.4-28.7,2.3-45.2c-3.9-9.3-28.5-74-40.9-106.9l-3.2-8.5h-9.1H858.5h-9.1l-3.2,8.6c-0.4,1-35.9,96.3-39.2,104.6
					c-4.7,11.6-4.7,29.1,0,40.7c5.1,12.6,16.1,18.8,24.8,21.8v16.9H685.9v-18.6c6.6-3.2,15.8-8.7,23.6-16.5
					c14-14.1,19.3-28.7,20.3-31.7L901,96.5H1029.2 M869.3,376.7h18.3h113h18.6l-6.3-17.6l-58.2-163.3L942.1,160l-12.1,36
					l-54.8,163.3L869.3,376.7 M1038.2,83.3H891.9L717.2,559.5c0,0-4.3,13.8-17.2,26.7c-11.7,11.8-27.3,17.2-27.3,17.2v40.4h172
					v-40.4c0,0-20-2-25.7-16.4c-3.4-8.6-3.4-22.4,0-30.9c3.4-8.6,39.4-104.9,39.4-104.9H1034c0,0,36,95.4,41.1,107.5
					c5.2,12,5.2,21.5-1.7,33.6c-5.3,9.3-14.7,10.4-18.7,10.4c-1.2,0-1.9-0.1-1.9-0.1v41.3h214.9v-40.4c0,0-20.6-6.9-29.1-17.2
					c-8.6-10.3-17.1-22.4-22.2-35.3L1038.2,83.3L1038.2,83.3z M887.6,363.6l54.7-163.3l58.2,163.3H887.6L887.6,363.6z"/>
			</g>
			<g>
				
					<linearGradient id="SVGID_00000041991718353757662580000000493911884593682342_" gradientUnits="userSpaceOnUse" x1="1608.2617" y1="-1610.7828" x2="1506.5115" y2="-2187.8369" gradientTransform="matrix(1 0 0 1 0 2241.1338)">
					<stop  offset="0" style="stop-color:#FF9D01"/>
					<stop  offset="0.1496" style="stop-color:#FFA402"/>
					<stop  offset="0.3686" style="stop-color:#FFB805"/>
					<stop  offset="0.6289" style="stop-color:#FFD80A"/>
					<stop  offset="0.7832" style="stop-color:#FFEE0D"/>
					<stop  offset="1" style="stop-color:#FFD70B"/>
				</linearGradient>
				<path style="fill:url(#SVGID_00000041991718353757662580000000493911884593682342_);" d="M1610,83.3c-101,0-273.9,0-273.9,0
					v45.6c0,0,16.3,9.4,23.1,16.3c6.9,6.9,6.1,24.1,6.1,24.1v403.9c0,0-1.7,10.3-10.3,18.9c-8.6,8.6-20.5,11.1-20.5,11.1v40.4h198.6
					v-41.3c0,0-9.4-2.5-18-12.8c-8.6-10.3-9.4-16.4-9.4-16.4v-89.3c0,0,96.4-26.5,169.5-60.2c63.4-29.2,136.9-70.5,136.9-187.3
					S1711.1,83.3,1610,83.3z M1507.4,406.6v-239c0,0,160.9-39.5,160.9,77.4C1668.3,339.5,1507.4,406.6,1507.4,406.6z"/>
				
					<linearGradient id="SVGID_00000025443028904191306520000011805240004923463074_" gradientUnits="userSpaceOnUse" x1="1573.272" y1="-1597.5248" x2="1573.272" y2="-2157.8003" gradientTransform="matrix(1 0 0 1 0 2241.1338)">
					<stop  offset="5.327789e-09" style="stop-color:#FFCF00"/>
					<stop  offset="1" style="stop-color:#FFFF36"/>
				</linearGradient>
				<path style="fill:url(#SVGID_00000025443028904191306520000011805240004923463074_);" d="M1610,96.5c54.2,0,99.8,10.6,132,30.6
					c17.9,11.2,31.9,25.5,41.3,42.4c10.4,18.7,15.7,41.2,15.7,66.8c0,106.8-63.9,145.2-129.3,175.4
					c-71.3,32.9-166.6,59.3-167.5,59.5l-9.7,2.6v10v89.3v0.9l0.1,0.9c0.3,2.3,2.1,10.7,12.3,23c5.1,6.2,10.4,10.2,15,12.8v19.7
					h-172.3v-17.9c5.2-2.2,11.3-5.9,16.7-11.2c11.2-11.2,13.7-24.6,14-26.1l0.2-1.1V573V169.5c0-1.4,0.1-6-0.5-11.3
					c-1.2-9.8-4.3-17.3-9.3-22.2l0,0l0,0c-5-5-13.3-10.6-19.2-14.4V96.5H1610 M1494.2,426.2l18.2-7.6c1.7-0.7,42.1-17.7,83-46.7
					c24.4-17.4,44-35.5,58.2-53.8c18.5-24,27.9-48.6,27.9-73.2c0-18.7-3.8-35.1-11.3-48.8c-6.8-12.4-16.7-22.8-29.4-30.4
					c-19.2-11.7-44.8-17.7-75.8-17.7c-32.5,0-59.5,6.6-60.6,6.8l-10,2.4v10.3v239.2L1494.2,426.2 M1610,83.3c-101,0-273.9,0-273.9,0
					v45.6c0,0,16.3,9.4,23.1,16.3c6.9,6.9,6.1,24.1,6.1,24.1v403.9c0,0-1.7,10.3-10.3,18.9c-8.6,8.6-20.5,11.1-20.5,11.1v40.4h198.6
					v-41.3c0,0-9.4-2.5-18-12.8c-8.6-10.3-9.4-16.4-9.4-16.4v-89.3c0,0,96.4-26.5,169.5-60.2c63.4-29.2,136.9-70.5,136.9-187.3
					C1812.1,119.4,1711.1,83.3,1610,83.3L1610,83.3z M1507.4,406.6v-239c0,0,26.2-6.5,57.4-6.5c46.2,0,103.5,14.1,103.5,83.8
					C1668.3,339.5,1507.4,406.6,1507.4,406.6L1507.4,406.6z"/>
			</g>
			<g>
				
					<linearGradient id="SVGID_00000011021790722926632790000011721039951683025311_" gradientUnits="userSpaceOnUse" x1="2804.4167" y1="-1584.8187" x2="2700.9597" y2="-2171.5515" gradientTransform="matrix(1 0 0 1 0 2241.1338)">
					<stop  offset="0" style="stop-color:#FF9D01"/>
					<stop  offset="0.1496" style="stop-color:#FFA402"/>
					<stop  offset="0.3686" style="stop-color:#FFB805"/>
					<stop  offset="0.6289" style="stop-color:#FFD80A"/>
					<stop  offset="0.7832" style="stop-color:#FFEE0D"/>
					<stop  offset="1" style="stop-color:#FFD70B"/>
				</linearGradient>
				<path style="fill:url(#SVGID_00000011021790722926632790000011721039951683025311_);" d="M2752.1,66.3
					c-181.5,0-317.9,127.9-317.9,293s132.9,300.6,317.9,300.6c184.9,0,317.9-135.6,317.9-300.6S2933.6,66.3,2752.1,66.3z
					 M2752.1,568.2c-80.5,0-164.3-41.3-164.3-206.3s94.2-206.3,164.3-206.3s166.1,51.6,166.1,206.3S2832.5,568.2,2752.1,568.2z"/>
				
					<linearGradient id="SVGID_00000131332182713869702600000001958881283001330316_" gradientUnits="userSpaceOnUse" x1="2752.1262" y1="-1581.2424" x2="2752.1262" y2="-2174.7908" gradientTransform="matrix(1 0 0 1 0 2241.1338)">
					<stop  offset="5.327789e-09" style="stop-color:#FFCF00"/>
					<stop  offset="1" style="stop-color:#FFFF36"/>
				</linearGradient>
				<path style="fill:url(#SVGID_00000131332182713869702600000001958881283001330316_);" d="M2752.1,79.5
					c84.1,0,161.6,28.8,218,81.1c55.9,51.8,86.7,122.4,86.7,198.7c0,77.4-30.3,149.4-85.6,202.8c-27.5,26.6-59.9,47.4-96.3,61.9
					c-38.1,15.2-79.4,22.9-122.8,22.9c-43.4,0-84.6-7.7-122.8-22.9c-36.4-14.5-68.9-35.3-96.3-61.9
					c-55.2-53.4-85.6-125.4-85.6-202.8c0-76.4,30.7-146.9,86.7-198.7C2590.5,108.2,2667.9,79.5,2752.1,79.5 M2752.1,581.3
					c22.8,0,44.5-3.8,64.5-11.3c22.2-8.3,41.8-21,58.2-37.8c17.9-18.3,31.8-41.4,41.3-68.5c10.2-29.2,15.4-63.5,15.4-101.8
					c0-38.1-5.7-72.5-16.9-102.1c-10.2-26.8-24.9-49.9-43.7-68.4c-31.6-31-74.8-48.8-118.6-48.8c-20.8,0-40.9,3.2-59.6,9.7
					c-22,7.6-41.6,19.4-58.1,35.2c-18.7,17.9-33.3,40.9-43.3,68.2c-11,30-16.6,65.8-16.6,106.4c0,78.7,18.8,137.3,55.8,174.4
					c16,16,35.5,27.9,57.8,35.4C2707.4,578.1,2729,581.3,2752.1,581.3 M2752.1,66.3c-181.5,0-317.9,127.9-317.9,293
					s132.9,300.6,317.9,300.6c184.9,0,317.9-135.6,317.9-300.6S2933.6,66.3,2752.1,66.3L2752.1,66.3z M2752.1,568.2
					c-80.5,0-164.3-41.3-164.3-206.3s94.2-206.3,164.3-206.3s166.1,51.6,166.1,206.3S2832.5,568.2,2752.1,568.2L2752.1,568.2z"/>
			</g>
			<g>
				
					<linearGradient id="SVGID_00000088821626647652701780000001869961203550894251_" gradientUnits="userSpaceOnUse" x1="397.6406" y1="-1568.5936" x2="292.5028" y2="-2164.8601" gradientTransform="matrix(1 0 0 1 0 2241.1338)">
					<stop  offset="0" style="stop-color:#FF9D01"/>
					<stop  offset="0.1496" style="stop-color:#FFA402"/>
					<stop  offset="0.3686" style="stop-color:#FFB805"/>
					<stop  offset="0.6289" style="stop-color:#FFD80A"/>
					<stop  offset="0.7832" style="stop-color:#FFEE0D"/>
					<stop  offset="1" style="stop-color:#FFD70B"/>
				</linearGradient>
				<path style="fill:url(#SVGID_00000088821626647652701780000001869961203550894251_);" d="M461.6,264.2l16.3,13.3
					c5.7,4.7,13.9,4.1,18.9-1.2l95.6-100.6c0,0-84.7-107.7-225.1-107.7c-145,0.1-304.8,102.4-304.8,287c0,120.3,118.1,287,330.4,287
					h178.1V502.8h-32.6c0,0-20,53.3-114.7,53.3c-162.6,0-212.3-147.9-212.3-228.7s46.2-178.8,150.7-178.8s107.8,67.9,107.8,84.2
					c0,16.3-9.4,24.9-9.4,28.3C460.5,262.5,460.9,263.7,461.6,264.2z"/>
				
					<linearGradient id="SVGID_00000027563698335636170710000002398234262116829849_" gradientUnits="userSpaceOnUse" x1="327.3668" y1="-1599.1429" x2="327.3668" y2="-2173.0715" gradientTransform="matrix(1 0 0 1 0 2241.1338)">
					<stop  offset="5.327789e-09" style="stop-color:#FFCF00"/>
					<stop  offset="1" style="stop-color:#FFFF36"/>
				</linearGradient>
				<path style="fill:url(#SVGID_00000027563698335636170710000002398234262116829849_);" d="M367.1,81.2c30.3,0,60.4,5.4,89.4,15.9
					c23.4,8.5,46.1,20.3,67.6,35.1c24.1,16.6,41.3,33.5,50.4,43.2l-87.3,91.9c-0.1,0.1-0.2,0.2-0.5,0.2c-0.2,0-0.4-0.1-0.5-0.2
					l-10-8.2c3.1-5.8,6.8-14.6,6.8-26.3c0-21.1-6-40.6-17.3-56c-9.2-12.6-21.8-22.5-37.5-29.4c-18-8-40.4-11.9-66.2-11.9
					c-51.8,0-95.2,22.4-125.2,64.6c-24.6,34.5-38.6,80.9-38.6,127.3c0,23.3,3.7,48.6,10.8,73.4c8.3,29.2,20.6,55.7,36.7,78.7
					c18.9,27.2,42.4,48.6,69.8,63.7c31.4,17.3,67.8,26,108.1,26c80.2,0,112.1-36.3,122.6-53.3h11.5v113H392.8
					c-48.5,0-94.4-9-136-26.9c-37.5-16.1-71-38.8-99.4-67.7c-25.8-26.1-46.9-56.8-61.2-89.1c-13.6-30.5-20.6-61.8-20.6-90.3
					c0-42.2,8.7-81.5,25.9-116.9c15.8-32.6,38.5-61.4,67.4-85.7C222.8,107.2,295.1,81.2,367.1,81.2 M367.1,68.1
					C222.2,68.1,62.4,170.4,62.4,355c0,120.3,118.1,287,330.4,287h178.1V502.8h-32.6c0,0-20,53.3-114.7,53.3
					c-162.6,0-212.3-147.9-212.3-228.7s46.2-178.8,150.7-178.8s107.8,67.9,107.8,84.2c0,16.3-9.4,24.9-9.4,28.3
					c0,1.3,0.4,2.3,1.1,2.9l16.3,13.3c2.5,2.1,5.7,3.1,8.8,3.1c3.7,0,7.4-1.4,10.1-4.3l95.6-100.6
					C592.2,175.8,507.5,68.1,367.1,68.1L367.1,68.1z"/>
			</g>
			<g>
				
					<linearGradient id="SVGID_00000178896519488562838650000017225980686008188347_" gradientUnits="userSpaceOnUse" x1="2210.8936" y1="-1567.6732" x2="2105.7651" y2="-2163.886" gradientTransform="matrix(1 0 0 1 0 2241.1338)">
					<stop  offset="0" style="stop-color:#FF9D01"/>
					<stop  offset="0.1496" style="stop-color:#FFA402"/>
					<stop  offset="0.3686" style="stop-color:#FFB805"/>
					<stop  offset="0.6289" style="stop-color:#FFD80A"/>
					<stop  offset="0.7832" style="stop-color:#FFEE0D"/>
					<stop  offset="1" style="stop-color:#FFD70B"/>
				</linearGradient>
				<path style="fill:url(#SVGID_00000178896519488562838650000017225980686008188347_);" d="M2274.8,265.2l16.3,13.3
					c5.7,4.7,13.9,4.1,18.9-1.2l95.6-100.6c0,0-84.7-107.7-225.1-107.7c-144.9,0-304.7,102.3-304.7,286.9
					c0,120.3,118.1,287,330.4,287h178.1V503.8h-32.6c0,0-20,53.3-114.7,53.3c-162.6,0-212.3-147.9-212.3-228.7
					s46.2-178.8,150.7-178.8s107.8,67.9,107.8,84.2c0,16.3-9.4,24.9-9.4,28.3C2273.6,263.6,2274.1,264.6,2274.8,265.2z"/>
				
					<linearGradient id="SVGID_00000025420415480783014420000008833738647045238943_" gradientUnits="userSpaceOnUse" x1="2140.5762" y1="-1598.1316" x2="2140.5762" y2="-2172.0601" gradientTransform="matrix(1 0 0 1 0 2241.1338)">
					<stop  offset="5.327789e-09" style="stop-color:#FFCF00"/>
					<stop  offset="1" style="stop-color:#FFFF36"/>
				</linearGradient>
				<path style="fill:url(#SVGID_00000025420415480783014420000008833738647045238943_);" d="M2180.3,82.2
					c30.3,0,60.4,5.4,89.4,15.9c23.4,8.5,46.1,20.3,67.6,35.1c24.1,16.6,41.3,33.5,50.4,43.2l-87.3,91.9c-0.1,0.1-0.2,0.2-0.5,0.2
					c-0.2,0-0.4-0.1-0.5-0.2l-10-8.2c3.1-5.8,6.8-14.6,6.8-26.3c0-21.1-6-40.6-17.3-56c-9.2-12.6-21.8-22.5-37.5-29.4
					c-18-8-40.4-11.9-66.2-11.9c-51.8,0-95.2,22.4-125.2,64.6c-24.6,34.5-38.6,80.9-38.6,127.3c0,23.3,3.7,48.6,10.8,73.4
					c8.3,29.2,20.6,55.7,36.7,78.7c18.9,27.2,42.4,48.6,69.8,63.7c31.4,17.3,67.8,26,108.1,26c80.2,0,112.1-36.3,122.6-53.3h11.5
					v113h-164.9c-48.5,0-94.4-9-136-26.9c-37.5-16.1-71-38.8-99.4-67.7c-25.8-26.1-46.9-56.8-61.2-89.1
					c-13.6-30.5-20.6-61.8-20.6-90.3c0-42.2,8.7-81.5,25.9-116.9c15.8-32.6,38.5-61.4,67.4-85.7C2036,108.1,2108.3,82.2,2180.3,82.2
					 M2180.3,69.1c-144.9,0-304.7,102.3-304.7,286.9c0,120.3,118.1,287,330.4,287h178.1V503.8h-32.6c0,0-20,53.3-114.7,53.3
					c-162.6,0-212.3-147.9-212.3-228.7s46.2-178.8,150.7-178.8c104.5,0,107.8,67.9,107.8,84.2c0,16.3-9.4,24.9-9.4,28.3
					c0,1.3,0.4,2.3,1.1,2.9l16.3,13.3c2.5,2.1,5.7,3.1,8.8,3.1c3.7,0,7.4-1.4,10.1-4.3l95.6-100.6
					C2405.4,176.8,2320.7,69.1,2180.3,69.1L2180.3,69.1z"/>
			</g>
		</g>
	</g>
</g>
</svg>
