<?xml version="1.0" encoding="utf-8"?>
<!-- Generator: Adobe Illustrator 26.0.3, SVG Export Plug-In . SVG Version: 6.00 Build 0)  -->
<svg version="1.1" id="Layer_1" xmlns="http://www.w3.org/2000/svg" xmlns:xlink="http://www.w3.org/1999/xlink" x="0px" y="0px"
	 viewBox="0 0 3839 1089.9" style="enable-background:new 0 0 3839 1089.9;" xml:space="preserve">
<style type="text/css">
	.st0{fill-rule:evenodd;clip-rule:evenodd;fill:#034EA2;}
	.st1{fill:#FFFFFF;}
	.st2{fill:#231F20;}
	.st3{fill:#034EA2;}
	.st4{fill:#FFCB04;}
	.st5{fill:url(#SVGID_1_);}
	.st6{fill-rule:evenodd;clip-rule:evenodd;fill:url(#rect4789_00000158720125111877547860000006823363675434393774_);}
	.st7{fill:url(#SVGID_00000098202135773334207960000003536504861260642199_);}
	.st8{fill:url(#SVGID_00000039107308984595615170000014884493067343966891_);}
	.st9{fill:url(#SVGID_00000010272371168134346750000006648152915816920233_);}
	.st10{fill:url(#SVGID_00000168105932703794480240000000193184358114608260_);}
	.st11{fill:url(#SVGID_00000048481456782529484490000016910901420267201160_);}
	.st12{fill:url(#SVGID_00000132777441464803354240000003558041265264578220_);}
	.st13{fill:url(#SVGID_00000091714910781047573530000016729647575584652981_);}
	.st14{fill:url(#SVGID_00000004513426828408671750000008255178560935878309_);}
	.st15{fill:url(#SVGID_00000065045029886500745430000005371237130763473542_);}
	.st16{fill:url(#SVGID_00000042738155919795491050000018221152893467209113_);}
	.st17{fill:url(#SVGID_00000163774924456814545360000017036795194754228910_);}
	.st18{fill:url(#SVGID_00000023976360289194477060000016616259538170066856_);}
	.st19{fill:url(#SVGID_00000108302447441397275270000012016035385579699087_);}
	.st20{display:none;}
	.st21{display:inline;fill:#FF0642;}
	.st22{display:inline;fill:#FFFFFF;stroke:#000000;stroke-width:0.5156;stroke-miterlimit:10;}
	.st23{display:inline;fill:#FFCB04;}
	.st24{fill-rule:evenodd;clip-rule:evenodd;fill:url(#rect4789_00000144330750142236782740000010657203417342903979_);}
	.st25{fill:url(#SVGID_00000150084172706009686180000001619576196378495413_);}
	.st26{fill:url(#SVGID_00000000184306645353954320000011569518368629139592_);}
	.st27{fill:url(#SVGID_00000096749432607652419970000002917162897996128403_);}
	.st28{fill:url(#SVGID_00000058547269700980071790000007923005426761772928_);}
	.st29{fill:url(#SVGID_00000041289301236218877300000004817893437489908409_);}
	.st30{fill:url(#SVGID_00000030467331036813471190000010430518176281061254_);}
	.st31{fill:url(#SVGID_00000014597171087775160670000016540508518426578613_);}
	.st32{fill:url(#SVGID_00000100363904084358714390000017317525591587455415_);}
	.st33{fill:url(#SVGID_00000022549779102132868090000003625369711087303060_);}
	.st34{fill:url(#SVGID_00000170962002334864805190000002584588884735008696_);}
	.st35{fill:url(#SVGID_00000075881459992994989090000005679215335615874451_);}
	.st36{fill:url(#SVGID_00000183941199166538621510000015173179648500999606_);}
	.st37{fill:url(#SVGID_00000121270156673673847620000005333589492803788211_);}
	.st38{fill:url(#SVGID_00000022518270325676965010000007718589849052303241_);}
	.st39{fill-rule:evenodd;clip-rule:evenodd;fill:url(#rect4789_00000054970217404538400440000001462384449318637500_);}
	.st40{fill:url(#SVGID_00000003805588669678607870000012713640907586690443_);}
	.st41{fill:url(#SVGID_00000150060797539129112180000010294389021772882612_);}
	.st42{fill:url(#SVGID_00000026155829173384264170000017966263315090581945_);}
	.st43{fill:url(#SVGID_00000034074163408039716220000011168671023903999891_);}
	.st44{fill:url(#SVGID_00000049932481001903078010000016989847203696156062_);}
	.st45{fill:url(#SVGID_00000041283467059490846360000005463736440288799882_);}
	.st46{fill:url(#SVGID_00000136407370286659910420000015621387163385211297_);}
	.st47{fill:url(#SVGID_00000173867520022573248090000015100497201878347449_);}
	.st48{fill:url(#SVGID_00000046333530663819086690000003213529655670833316_);}
	.st49{fill:url(#SVGID_00000119805193435242605750000016617160784991249841_);}
	.st50{fill:url(#SVGID_00000116217307956839421480000009205043872261493642_);}
	.st51{fill:url(#SVGID_00000101072249834287586900000015590028994411746470_);}
	.st52{fill:url(#SVGID_00000129886338375846929820000010881872293779758508_);}
	.st53{fill-rule:evenodd;clip-rule:evenodd;fill:url(#rect4789_00000058558214754985335810000013368439975209499069_);}
	.st54{fill:url(#SVGID_00000032648856892137860970000016355818572957128587_);}
	.st55{fill:url(#SVGID_00000046329775334479213560000004643642455827051665_);}
	.st56{fill:url(#SVGID_00000168824073622671128470000010026122022397473172_);}
	.st57{fill:url(#SVGID_00000060004738434480409210000001847492884028744126_);}
	.st58{fill:url(#SVGID_00000065050389975811008360000006354586417214171055_);}
	.st59{fill:url(#SVGID_00000048502976059204678340000018396663413443582623_);}
	.st60{fill:url(#SVGID_00000142862456019752886750000001644129579167684252_);}
	.st61{fill:url(#SVGID_00000051356523124373328850000012242214643703915909_);}
	.st62{fill:url(#SVGID_00000094586742080084613190000015998590291010947980_);}
	.st63{fill:url(#SVGID_00000045620517098913956690000009541356865403724207_);}
	.st64{fill:url(#SVGID_00000038414468470895203410000005147413410500583605_);}
	.st65{fill:url(#SVGID_00000048497501987412950980000000640425696275059333_);}
	.st66{fill:url(#SVGID_00000135691332811165331610000012302143933173537206_);}
	.st67{fill:url(#SVGID_00000164496493433337568450000011445448747859267968_);}
	.st68{fill-rule:evenodd;clip-rule:evenodd;fill:url(#rect4789_00000005965137543878251900000002619165465353055885_);}
	.st69{fill:url(#SVGID_00000177483320724084660330000007125679301233053070_);}
	.st70{fill:url(#SVGID_00000098194159667959792750000015775685080384255627_);}
	.st71{fill:url(#SVGID_00000020390246455466419470000005710843474194338740_);}
	.st72{fill:url(#SVGID_00000048466412561930252320000010926785768727489978_);}
	.st73{fill:url(#SVGID_00000175288122408386982570000010780313622757882243_);}
	.st74{fill:url(#SVGID_00000147904786590234830040000013951360567165426852_);}
	.st75{fill:url(#SVGID_00000146475098101648250610000015840719858547415178_);}
	.st76{fill:url(#SVGID_00000161601024449076227190000000094215844091362747_);}
	.st77{fill:url(#SVGID_00000138561640981233210600000004484364606959726779_);}
	.st78{fill:url(#SVGID_00000121271530685204477720000004101685899634592684_);}
	.st79{fill:url(#SVGID_00000078005145240313404080000006825075403897057724_);}
	.st80{fill:url(#SVGID_00000020372902309793026500000009951167305680186515_);}
	.st81{fill:url(#SVGID_00000138567007073654759810000007572240757268465839_);}
	.st82{fill:url(#SVGID_00000064327318994975389460000001227799538158304158_);}
	.st83{fill-rule:evenodd;clip-rule:evenodd;fill:url(#rect4789_00000124875713207099038690000016752300682737288588_);}
	.st84{fill:url(#SVGID_00000013907462088001810970000010704575488310969741_);}
	.st85{fill:url(#SVGID_00000079468943069783328880000010502197341123190444_);}
	.st86{fill:url(#SVGID_00000005979105112278426840000007213567391037133444_);}
	.st87{fill:url(#SVGID_00000078022741948852337060000017424457729940190130_);}
	.st88{fill:url(#SVGID_00000091716767060692607530000005053815426442423974_);}
	.st89{fill:url(#SVGID_00000049910118200025788520000004864546363201544342_);}
	.st90{fill:url(#SVGID_00000066507965122474488100000011690036764101249721_);}
	.st91{fill:url(#SVGID_00000044866626703792803000000008845952082075182507_);}
	.st92{fill:url(#SVGID_00000031176262920293962350000013525539584929912507_);}
	.st93{fill:url(#SVGID_00000131327283120437787880000007672101481176767410_);}
	.st94{fill:url(#SVGID_00000067926481835979692210000009075293835351650224_);}
	.st95{fill:url(#SVGID_00000172401243676670176590000014990488566037205668_);}
	.st96{fill:url(#SVGID_00000179638735116163114830000008068931197548128949_);}
	.st97{fill:url(#SVGID_00000171708995158809592890000016937658794281313666_);}
	.st98{fill:url(#SVGID_00000012473817267582747940000015938356404767031966_);}
	.st99{fill:url(#SVGID_00000026137609009529529020000007396828111211046060_);}
	.st100{fill:url(#SVGID_00000128451366232800776230000013506085785029347250_);}
	.st101{fill-rule:evenodd;clip-rule:evenodd;fill:url(#rect4789_00000026861144843787840530000018234817608195713929_);}
	.st102{fill:url(#SVGID_00000033330613042199249170000014356529215134003367_);}
	.st103{fill:url(#SVGID_00000032622016004998961800000004134281643655214743_);}
	.st104{fill:url(#SVGID_00000161594794590628253680000009352182056626293158_);}
	.st105{fill:url(#SVGID_00000077285400748189507660000002409523497014486943_);}
	.st106{fill:url(#SVGID_00000109011281665153172650000016730799708269586076_);}
	.st107{fill:url(#SVGID_00000103247229152096525510000003158021522064483968_);}
	.st108{fill:url(#SVGID_00000168820682909573874570000012034582406420911542_);}
	.st109{fill:url(#SVGID_00000169526874229959113690000002862914819577982895_);}
	.st110{fill:url(#SVGID_00000034773573479469932190000014085508907564907934_);}
	.st111{fill:url(#SVGID_00000134210415164061421150000013321967502901964725_);}
	.st112{fill:url(#SVGID_00000067213662299851974170000014205651782032449727_);}
	.st113{fill:url(#SVGID_00000178899037014505171290000011294690730162283678_);}
	.st114{fill:url(#SVGID_00000083810283261958419240000010677379483929166238_);}
	.st115{fill:url(#SVGID_00000009562951654142751590000017258705038973794751_);}
	.st116{fill-rule:evenodd;clip-rule:evenodd;fill:url(#rect4789_00000131351070050055852910000002444394503287897499_);}
	.st117{fill:url(#SVGID_00000145058622559113073970000011030945852732246200_);}
	.st118{fill:url(#SVGID_00000133495874227866394290000000869847853493017791_);}
	.st119{fill:url(#SVGID_00000158712303659429765140000006011383463443300745_);}
	.st120{fill:url(#SVGID_00000134929656553314423310000001972359370065710223_);}
	.st121{fill:url(#SVGID_00000132089707964304941790000005928276387105832104_);}
	.st122{fill:url(#SVGID_00000006683992480977695640000012138650078473571237_);}
	.st123{fill:url(#SVGID_00000173879240954055659380000000095105149361999771_);}
	.st124{fill:url(#SVGID_00000094584211120940185610000004762692656980412820_);}
	.st125{fill:url(#SVGID_00000033349144021895064670000005545805468219370369_);}
	.st126{fill:url(#SVGID_00000029031020613651251380000008492936890129898167_);}
	.st127{fill:url(#SVGID_00000070103153250110639130000014010579950563542929_);}
	.st128{fill:url(#SVGID_00000101075765498729295240000010535834587365258640_);}
	.st129{fill:url(#SVGID_00000098187383958698008990000018225895718350894978_);}
</style>
<g>
	<path id="rect4789_00000148649653550586274910000003953478458579624594_" class="st0" d="M464,781.1h2910.9
		c85.3,0,154.4,69.1,154.4,154.4l0,0c0,85.3-69.1,154.4-154.4,154.4H464c-85.3,0-154.4-69.1-154.4-154.4l0,0
		C309.6,850.2,378.7,781.1,464,781.1z"/>
	<g>
		<path class="st1" d="M916.6,865.2h60.3c35.5,0,58.4,18.3,58.4,49.4v0.4c0,33.1-25.5,50.6-60.5,50.6h-19.3v40.2h-39L916.6,865.2
			L916.6,865.2z M974.1,935.1c13.9,0,22.3-7.2,22.3-18.3v-0.4c0-12-8.4-18.5-22.5-18.5h-18.3v37.2H974.1z"/>
		<path class="st1" d="M1112.1,865.2h39v106.4h68.1v34.1h-107L1112.1,865.2L1112.1,865.2z"/>
		<path class="st1" d="M1344.6,864.2h37.6l59.9,141.6h-41.8l-10.2-25.1h-54.4l-10,25.1h-41L1344.6,864.2z M1378.7,950.3l-15.7-40
			l-15.9,40H1378.7z"/>
		<path class="st1" d="M1534.4,953.2l-53.4-88h44.4l28.9,51.2l29.1-51.2h43.6l-53.4,87.4v53.2h-39.2V953.2z"/>
		<path class="st1" d="M1804.5,984.9l21.7-25.9c13.9,11,29.3,16.9,45.6,16.9c10.4,0,16.1-3.6,16.1-9.6v-0.4c0-5.8-4.6-9-23.7-13.5
			c-29.9-6.8-53-15.3-53-44.2v-0.4c0-26.1,20.7-45,54.4-45c23.9,0,42.6,6.4,57.8,18.7l-19.5,27.5c-12.9-9-26.9-13.9-39.4-13.9
			c-9.4,0-14.1,4-14.1,9v0.4c0,6.4,4.8,9.2,24.3,13.7c32.3,7,52.4,17.5,52.4,43.8v0.4c0,28.7-22.7,45.8-56.8,45.8
			C1845.5,1008.2,1821.8,1000.4,1804.5,984.9z"/>
		<path class="st1" d="M2040.9,953.2l-53.4-88h44.4l28.9,51.2l29.1-51.2h43.6l-53.4,87.4v53.2h-39.2L2040.9,953.2L2040.9,953.2z"/>
		<path class="st1" d="M2188,984.9l21.7-25.9c13.9,11,29.3,16.9,45.6,16.9c10.4,0,16.1-3.6,16.1-9.6v-0.4c0-5.8-4.6-9-23.7-13.5
			c-29.9-6.8-53-15.3-53-44.2v-0.4c0-26.1,20.7-45,54.4-45c23.9,0,42.6,6.4,57.8,18.7l-19.4,27.5c-12.9-9-26.9-13.9-39.4-13.9
			c-9.4,0-14.1,4-14.1,9v0.4c0,6.4,4.8,9.2,24.3,13.7c32.3,7,52.4,17.5,52.4,43.8v0.4c0,28.7-22.7,45.8-56.8,45.8
			C2229,1008.2,2205.3,1000.4,2188,984.9z"/>
		<path class="st1" d="M2420.2,899.3H2378v-34.1h123.3v34.1h-42.2v106.4h-39L2420.2,899.3L2420.2,899.3z"/>
		<path class="st1" d="M2578.7,865.2h113.1v33.1h-74.5v21.3h67.5v30.7h-67.5v22.3h75.5v33.1h-114.1V865.2z"/>
		<path class="st1" d="M2772.9,865.2h41.2l33.5,54.4l33.5-54.4h41.2v140.6h-38.8V925l-36,55h-0.8l-35.7-54.6v80.3h-38.2V865.2
			H2772.9z"/>
	</g>
	<g>
		<path class="st2" d="M1511.9,187.1v236.3c0,0,159.1-66.3,159.1-159.8C1671.1,148,1511.9,187.1,1511.9,187.1"/>
		<path class="st2" d="M2742.6,175.2c-69.4,0-162.5,40.8-162.5,204s82.9,204,162.5,204c79.5,0,164.2-51,164.2-204
			C2906.8,226.2,2812,175.2,2742.6,175.2"/>
		<polyline class="st2" points="899.1,380.9 1010.8,380.9 953.3,219.4 899.1,380.9 		"/>
		<path class="st2" d="M585.9,656.3H409.9c-209.9,0-326.7-164.9-326.7-283.9c0-182.4,158-283.7,301.3-283.7
			c138.8,0,222.6,106.5,222.6,106.5L511.4,296c0,0-5.1,2.6-9.3,2.6c-4.3,0-10.2-4.3-10.2-4.3l-11.9-10.2c0,0-3.4-0.8-3.4-4.3
			c0-3.4,9.3-11.9,9.3-28c0-16.1-3.4-83.3-106.6-83.3s-149,96.9-149,176.8c0,79.9,49.1,226.1,209.9,226.1
			c93.6,0,113.4-52.7,113.4-52.7h32.2V656.3z M1274.9,658h-212.4v-40.8c0,0,13.5,1.7,20.3-10.2c6.8-11.9,6.8-21.3,1.7-33.2
			c-5.1-11.9-40.6-106.3-40.6-106.3H870.3c0,0-35.6,95.2-38.9,103.7c-3.4,8.5-3.4,22.1,0,30.6c5.6,14.1,25.4,16.2,25.4,16.2V658
			H686.7v-39.9c0,0,15.4-5.3,27-17c12.7-12.7,16.9-26.3,16.9-26.3l172.7-470.8h144.8l176,462.3c5.1,12.8,13.6,24.7,22.1,34.9
			c8.4,10.2,28.7,17,28.7,17V658z M1677.8,440.5c-72.3,33.4-167.5,59.5-167.5,59.5v88.4c0,0,0.8,6,9.3,16.2
			c8.5,10.2,17.8,12.7,17.8,12.7V658h-196.4v-39.9c0,0,11.9-2.6,20.3-11c8.5-8.5,10.2-18.7,10.2-18.7V188.9c0,0,0.8-17-6-23.8
			c-6.8-6.8-22.8-16.1-22.8-16.1v-45.1c0,0,170.9,0,270.8,0c99.9,0,199.8,35.7,199.8,151.3S1740.4,411.6,1677.8,440.5z
			 M2172.1,169.4c-103.2,0-149,96.9-149,176.8c0,79.9,49.1,226.1,209.9,226.1c93.6,0,113.4-52.7,113.4-52.7h32.2v137.7h-176.1
			c-209.9,0-326.7-164.9-326.7-283.8c0-182.5,158-283.7,301.3-283.7c138.8,0,222.6,106.5,222.6,106.5l-95.6,100.7
			c0,0-5.1,2.5-9.3,2.5c-4.2,0-10.2-4.2-10.2-4.2l-11.9-10.2c0,0-3.4-0.9-3.4-4.3c0-3.4,9.3-11.9,9.3-28
			C2278.8,236.6,2275.4,169.4,2172.1,169.4z M2742.6,673.9c-182.8,0-314.3-134.1-314.3-297.2s134.8-289.6,314.3-289.6
			c179.4,0,314.2,126.5,314.2,289.6S2925.4,673.9,2742.6,673.9z M3759.1,658.3h-202.3v-36.8c0,0,17.8-2.6,23.7-11
			c6-8.5,8.5-13.6,6.8-27.2c-1.7-13.6-49.9-323-49.9-323l-88.1,273.6h-106.6l-87.2-256.6l-44,302.5c0,0-1.7,18.2,5.1,28.1
			c9.3,13.6,26.2,13.6,26.2,13.6V658h-175.2v-39.1c0,0,14-2.1,24.1-14c10.2-11.9,11.9-27.2,11.9-27.2l63.9-399.1
			c0,0,3.8-14.9-0.4-21.7c-4.5-7.2-28.4-13.2-28.4-13.2v-39.6h201.5L3413,330l77.8-226.1h210.8v33.2c0,0-14.1,5.9-20.3,13.6
			c-7.6,9.3-7.6,16.1-6,29.7c1.7,13.6,55.9,382.4,57.6,396.1c1.7,13.6,3.4,21.3,6.8,30.6c3.4,9.3,19.5,16.9,19.5,16.9V658.3z"/>
		<path class="st1" d="M1511.9,187.1v236.3c0,0,159.1-66.3,159.1-159.8C1671.1,148,1511.9,187.1,1511.9,187.1"/>
		<path class="st1" d="M2742.6,175.2c-69.4,0-162.5,40.8-162.5,204s82.9,204,162.5,204c79.5,0,164.2-51,164.2-204
			C2906.8,226.2,2812,175.2,2742.6,175.2"/>
		<polyline class="st1" points="899.1,380.9 1010.8,380.9 953.3,219.4 899.1,380.9 		"/>
		<path class="st1" d="M2745.1,761.1c-132.8,0-234.3-66-285.8-108.4v91.4h-238.2c-200.4,0-360.4-110.2-416.5-283.5
			c-41.8,30.4-116.9,73.9-201.2,96.1c2.3,0.6,4.6,1.2,6.8,1.5l17.8,3.1l0.1,182.7H418.3C183.8,744.1,0,583.8,0,379.3
			C0,161,163.1,2.5,387.8,2.5c228.9,0,320,172.6,323.8,180l6.9,13.5L516.1,410.8l-155.3-107l19-18.2c5.7-6.3,9-11.7,10.5-16.3
			c3.5-10-6.1-19.6-16.1-16.1c-3.1,1.1-6.7,2.6-10.5,4.5c-22.5,11.7-48.2,42.3-46.4,90.1c3.7,95.6,62,139.1,114.6,139.1
			c46.4,0,59.6-33.7,60.9-37.5l5-14.4l15.3-0.2h165.7v24l166.5-441h261.5l177.3,459.7c0.2-94.3,0.6-242.7,0.6-248.7
			c0-2.3-0.1-4.2-0.3-5.7c-0.4-3.6-2.4-6.8-5.4-8.8c-3.6-2.4-7.9-4.1-10.1-4.8l-15.4-4.5l-0.2-16.1V17.8h346.5
			c153.9,0,212.4,36.6,263.3,117.9c76-89.5,173.5-134.9,290.2-134.9c126.9,0,226.4,42,289.7,121.7C2518.7,45.4,2633.2,0,2755.3,0
			c118.2,0,223.9,46.5,294.2,127.1V17.8h349.3l15.4,39.2l11.5-39.2h360.9l0,181.1l-12.1,5.9c-17.2,8.3-18.3,11.8-16.1,25.8
			l45.2,288.9c1.3,6.5,3.3,11,6.4,13.7c1.4,1.2,4.3,1.5,5.5,1.4l23-1.6l0.7,23v188.1h-367.9V618.3h-143.3v126.1h-348.5v-60.5
			C2933.4,714.8,2847.6,761.1,2745.1,761.1z M2416.5,548.2l37.3,41c1.2,1.3,119.3,128.9,291.3,128.9c133.7,0,240.4-92.3,241.4-93.2
			l35.6-31.3l0,107.9h262.7V575.3H3514v125.8h282.1v-127c-4.9-1.9-10.1-4.7-14.9-9c-13.5-12.1-17.9-27.6-20-38.2l-45.3-289.8
			c-5.5-35,9.2-52.9,27.7-64.5l0-112h-285.8l-37.7,129l-50.6-129h-277.1v213.8l-40.1-69.8c-58.1-101.3-169.2-161.7-297.1-161.7
			c-119.8,0-231.1,47.6-297.5,127.4l-18.5,22.2l-15.9-24.2c-53.5-81.5-146.9-124.6-269.9-124.6c-114.4,0-204.6,46.7-275.6,142.6
			l-19.9,26.8l-16.2-29.2c-42.3-76.4-76.6-123.3-241.9-123.3h-303.6v113.9c6.4,3.4,13.5,8.3,19.3,15.1c8,9.2,11.9,22,11.9,39
			c0,8.8-0.8,325.6-0.8,325.6l-0.1,34.7l-31-15.6c-18.2-9.2-32.5-34-36.4-41.4l-1.1-2.3l-180.9-469H875L677.5,584l-41.5-7.6v-98.7
			H526.6c-11.4,19.8-38.6,52.1-94.7,52.1c-72.5,0-152.7-56.4-157.5-180.4c-2.6-67.9,35.9-112.4,69.6-129.8
			c25.2-13,50.2-13.1,67.1-0.2c18.2,13.9,22.7,30.1,23.3,41.2c0.8,13.5-3.8,25.8-9.2,35.4l85,58.5l155.8-165.2
			c-24.4-37.6-108.2-143.9-278-143.9c-203.1,0-344.9,137.3-344.9,333.8c0,180.5,164.9,321.9,375.4,321.9h1166.9v-105
			c-20.6-7-38.1-20.3-38.1-40.9c0-13.4,5.3-30.6,30.3-36.2c108.2-24.4,202.3-89.9,224.3-111l27-25.9l8.7,36.4
			c41.8,174.4,188.8,282.7,383.8,282.7h195.3V548.2z"/>
		<path class="st3" d="M692.6,192.3L513.1,382.7L394.6,301c0,0,38.9-37.4,3.4-64.6c-27.8-21.2-105.5,23.8-102.2,112.2
			c3.9,101.9,66.7,159.7,136.1,159.7c64.3,0,81.2-52.1,81.2-52.1h144.3v120.1L860.2,39.3h231.9L1278.3,522c0,0,13.5,25.5,27.1,32.3
			c0,0,0.8-316.7,0.8-325.6c0-8.9-1.2-18.7-6.7-25c-9.1-10.5-24.5-14.9-24.5-14.9V39.3c0,0,214.9,0,325,0
			c168.5,0,211.8,45.9,260.7,134.3c67.5-91.2,160.4-151.3,292.9-151.3c136.4,0,232.8,50.4,287.8,134.3
			c76.9-92.3,200.8-135.1,314-135.1c139.2,0,255.6,67.7,315.7,172.5V39.3h313.2l33,84.1l24.6-84.1h323.3l0,146.2
			c-22.9,11.1-32.1,22.3-28,48.5l45.2,288.9c1.9,9.4,5.2,19.2,13.2,26.4c9.4,8.4,22,6.8,22,6.8v166.6h-325V596.8h-186.2v126.1
			h-305.6V641c0,0-111.7,98.6-255.6,98.6c-184.2,0-307.2-136-307.2-136v119c0,0-13.5,0-216.7,0c-192.8,0-358.4-106-404.6-299.1
			c-21.9,21-118.5,90.3-234.5,116.4c-9,2-13.5,5.5-13.5,15.3c0,17.9,38.1,24.3,38.1,24.3v143.2c0,0-1002.1,0-1188.4,0
			c-220.1,0-396.9-151.3-396.9-343.3S159.3,24,387.8,24C606.2,24,692.6,192.3,692.6,192.3"/>
		<path class="st4" d="M903.3,103.8h144.8l176.1,462.4c5.1,12.7,13.5,24.6,22,34.9c8.4,10.2,28.8,17,28.8,17V658h-212.5v-40.8
			c0,0,13.5,1.7,20.3-10.2c6.8-11.9,6.8-21.3,1.7-33.2c-5.1-11.9-40.6-106.3-40.6-106.3H870.3c0,0-35.6,95.2-39,103.7
			c-3.4,8.5-3.4,22.1,0,30.6C837,616,856.8,618,856.8,618V658H686.7V618c0,0,15.5-5.3,27-17c12.7-12.8,17-26.4,17-26.4L903.3,103.8
			 M899.1,380.9h111.7l-57.5-161.5L899.1,380.9z"/>
		<path class="st4" d="M1342.6,103.8c0,0,171,0,270.8,0c99.9,0,199.8,35.7,199.8,151.3s-72.8,156.3-135.4,185.2
			c-72.3,33.4-167.6,59.5-167.6,59.5v88.3c0,0,0.8,6,9.3,16.2c8.4,10.2,17.8,12.7,17.8,12.7V658h-196.4V618c0,0,11.9-2.6,20.3-11
			c8.5-8.5,10.2-18.7,10.2-18.7V188.8c0,0,0.8-17-6-23.8c-6.8-6.8-22.8-16.1-22.8-16.1V103.8 M1511.9,187.1v236.3
			c0,0,159.1-66.3,159.1-159.8C1671.1,148,1511.9,187.1,1511.9,187.1z"/>
		<path class="st4" d="M2742.6,673.9c-182.8,0-314.3-134.1-314.3-297.2S2563.2,87,2742.6,87c179.5,0,314.3,126.5,314.3,289.7
			S2925.5,673.9,2742.6,673.9 M2580.1,379.3c0,163.2,82.9,204,162.5,204c79.5,0,164.2-51,164.2-204c0-153-94.8-204-164.2-204
			C2673.2,175.3,2580.1,216.1,2580.1,379.3z"/>
		<path class="st4" d="M3138.7,104.2h201.5l72.8,225.7l77.8-226.1h210.8V137c0,0-14,5.9-20.3,13.6c-7.6,9.3-7.6,16.2-5.9,29.8
			c1.7,13.6,55.8,382.4,57.5,396c1.7,13.7,3.4,21.3,6.8,30.6c3.3,9.3,19.4,17,19.4,17v34.3h-202.3v-36.8c0,0,17.8-2.6,23.7-11.1
			c6-8.5,8.5-13.6,6.8-27.2c-1.7-13.6-49.9-323-49.9-323l-88,273.7h-106.6l-87.2-256.7l-44,302.6c0,0-1.7,18.1,5.1,28
			c9.3,13.7,26.2,13.7,26.2,13.7V658h-175.2v-39.1c0,0,13.9-2.2,24.1-14c10.2-11.9,11.9-27.2,11.9-27.2l63.9-399
			c0,0,3.8-14.9-0.4-21.7c-4.4-7.2-28.4-13.2-28.4-13.2V104.2"/>
		<path class="st4" d="M607.1,195.2l-94.5,99.5c-5,5.2-13.1,5.7-18.7,1.2l-16.1-13.2c-0.7-0.6-1.1-1.6-1.1-2.9
			c0-3.4,9.3-11.9,9.3-28c0-16.2-3.3-83.3-106.6-83.3c-103.2,0-149,96.9-149,176.8c0,79.9,49.1,226.1,209.9,226.1
			c93.6,0,113.4-52.7,113.4-52.7h32.2v137.7H409.9C200,656.3,83.1,491.4,83.1,372.4c0-182.5,158-283.7,301.3-283.7
			C523.3,88.8,607.1,195.2,607.1,195.2"/>
		<path class="st4" d="M2399.8,196.2l-94.5,99.5c-5,5.2-13.1,5.7-18.7,1.2l-16.1-13.2c-0.7-0.6-1.1-1.6-1.1-2.9
			c0-3.4,9.3-11.9,9.3-28c0-16.2-3.3-83.3-106.6-83.3c-103.2,0-149,96.9-149,176.8c0,79.9,49.1,226.1,209.9,226.1
			c93.6,0,113.4-52.7,113.4-52.7h32.2v137.7h-176.1c-209.9,0-326.7-164.9-326.7-283.8c0-182.5,158-283.7,301.3-283.7
			C2316,89.7,2399.8,196.2,2399.8,196.2"/>
	</g>
</g>
</svg>
