<?xml version="1.0" encoding="utf-8"?>
<!-- Generator: Adobe Illustrator 26.0.3, SVG Export Plug-In . SVG Version: 6.00 Build 0)  -->
<svg version="1.1" id="Layer_1" xmlns="http://www.w3.org/2000/svg" xmlns:xlink="http://www.w3.org/1999/xlink" x="0px" y="0px"
	 viewBox="0 0 3839 1576.5" style="enable-background:new 0 0 3839 1576.5;" xml:space="preserve">
<style type="text/css">
	.st0{fill-rule:evenodd;clip-rule:evenodd;fill:#034EA2;}
	.st1{fill:#FFFFFF;}
	.st2{fill:#231F20;}
	.st3{fill:#034EA2;}
	.st4{fill:#FFCB04;}
	.st5{fill:url(#SVGID_1_);}
	.st6{fill-rule:evenodd;clip-rule:evenodd;fill:url(#rect4789_00000147937882888655511150000000722930776117685427_);}
	.st7{fill:url(#SVGID_00000065041244366862439080000015009469491455572630_);}
	.st8{fill:url(#SVGID_00000010274428715456306440000015985774233829278903_);}
	.st9{fill:url(#SVGID_00000174567986456679821330000007592507384335669382_);}
	.st10{fill:url(#SVGID_00000042695480456119378770000008835212934766211726_);}
	.st11{fill:url(#SVGID_00000075848255879117037180000007023400167061480334_);}
	.st12{fill:url(#SVGID_00000164483981076076755380000009788811682868304013_);}
	.st13{fill:url(#SVGID_00000092447770193152696340000006048007055946893751_);}
	.st14{fill:url(#SVGID_00000107582433196045730790000011077211630154344584_);}
	.st15{fill:url(#SVGID_00000166641311631395570690000013601024049227631501_);}
	.st16{fill:url(#SVGID_00000112592428047136704330000015788847624712191654_);}
	.st17{fill:url(#SVGID_00000049918833506934241250000013022248570628084901_);}
	.st18{fill:url(#SVGID_00000015347001681313898170000016240260962469265546_);}
	.st19{fill:url(#SVGID_00000089535647381983867840000015360122014039143581_);}
	.st20{display:none;}
	.st21{display:inline;fill:#FF0642;}
	.st22{display:inline;fill:#FFFFFF;stroke:#000000;stroke-width:0.5156;stroke-miterlimit:10;}
	.st23{display:inline;fill:#FFCB04;}
	.st24{fill-rule:evenodd;clip-rule:evenodd;fill:url(#rect4789_00000021114161011620331110000000390682059166643088_);}
	.st25{fill:url(#SVGID_00000035525687532269436020000008270167234241567394_);}
	.st26{fill:url(#SVGID_00000179642797817014758470000016890641625433193914_);}
	.st27{fill:url(#SVGID_00000088111367106348955790000010823662115600736447_);}
	.st28{fill:url(#SVGID_00000163049155082843101080000013316950498055033508_);}
	.st29{fill:url(#SVGID_00000016755971738542990790000015079772996026136251_);}
	.st30{fill:url(#SVGID_00000010302119885756165890000004814680814760947889_);}
	.st31{fill:url(#SVGID_00000048462256054236913020000016227964234115966082_);}
	.st32{fill:url(#SVGID_00000160189002322996080460000002158195444012952466_);}
	.st33{fill:url(#SVGID_00000029763289124205561450000006971984503962164112_);}
	.st34{fill:url(#SVGID_00000023979437262344939870000001374571127362911104_);}
	.st35{fill:url(#SVGID_00000042707444621039258910000018274741796504816265_);}
	.st36{fill:url(#SVGID_00000016766430126146560180000005899633061181318829_);}
	.st37{fill:url(#SVGID_00000171694842206392162000000010018900655583312033_);}
	.st38{fill:url(#SVGID_00000102529510074900862740000014791671733594832561_);}
	.st39{fill-rule:evenodd;clip-rule:evenodd;fill:url(#rect4789_00000117651521913742027740000000693716807047035326_);}
	.st40{fill:url(#SVGID_00000056389294344920324050000008361002198388940694_);}
	.st41{fill:url(#SVGID_00000095298025245485629910000015352155484906712754_);}
	.st42{fill:url(#SVGID_00000103987383084942691750000012305528992722332043_);}
	.st43{fill:url(#SVGID_00000173121472094000340530000012068083406896363688_);}
	.st44{fill:url(#SVGID_00000180347815859357019690000006793792898795671730_);}
	.st45{fill:url(#SVGID_00000069372893078965292910000002568434083558223018_);}
	.st46{fill:url(#SVGID_00000067934786708409245760000010314074901383588795_);}
	.st47{fill:url(#SVGID_00000071531124766773877040000000575404691214520982_);}
	.st48{fill:url(#SVGID_00000120535505792230347810000004744092978907711140_);}
	.st49{fill:url(#SVGID_00000047740693699761168110000006836253262186140607_);}
	.st50{fill:url(#SVGID_00000081617979867761568050000007343588002258402470_);}
	.st51{fill:url(#SVGID_00000061471883402866502700000018413292879848226193_);}
	.st52{fill:url(#SVGID_00000072253975471570971140000002255595029052357551_);}
	.st53{fill-rule:evenodd;clip-rule:evenodd;fill:url(#rect4789_00000024697908538661711460000015107939829865373372_);}
	.st54{fill:url(#SVGID_00000027604140952942096750000016474995815829467316_);}
	.st55{fill:url(#SVGID_00000003084700332788261950000003390333240829671302_);}
	.st56{fill:url(#SVGID_00000173862963263720406700000007143876074669216393_);}
	.st57{fill:url(#SVGID_00000062185433216480469260000003175276252085809855_);}
	.st58{fill:url(#SVGID_00000013900064613732540710000015801148267212040126_);}
	.st59{fill:url(#SVGID_00000108293048854281036410000001702167736553674666_);}
	.st60{fill:url(#SVGID_00000132790611505356563750000011515936663669526692_);}
	.st61{fill:url(#SVGID_00000034075190723509945580000005417889418603919492_);}
	.st62{fill:url(#SVGID_00000137824019944370551560000005006096447886966198_);}
	.st63{fill:url(#SVGID_00000150796884009921773510000009346969169511330230_);}
	.st64{fill:url(#SVGID_00000036252786261508613320000017970035714785457565_);}
	.st65{fill:url(#SVGID_00000151524102195616869600000007021065512955494307_);}
	.st66{fill:url(#SVGID_00000128449164222220479340000015385868317061715100_);}
	.st67{fill:url(#SVGID_00000160157696053955645590000013534327222432487838_);}
	.st68{fill-rule:evenodd;clip-rule:evenodd;fill:url(#rect4789_00000000930268266580611910000005796348466485657017_);}
	.st69{fill:url(#SVGID_00000155845418104899832960000012645843938865888164_);}
	.st70{fill:url(#SVGID_00000021093479495659380980000017877299949206147211_);}
	.st71{fill:url(#SVGID_00000147916119182114956150000002573679356364207021_);}
	.st72{fill:url(#SVGID_00000093896251382395325360000004884540643554841272_);}
	.st73{fill:url(#SVGID_00000114795484185545620740000005289661848304902545_);}
	.st74{fill:url(#SVGID_00000052816870509897812260000014437586707991655562_);}
	.st75{fill:url(#SVGID_00000026155362768229992060000010855926124439568517_);}
	.st76{fill:url(#SVGID_00000041986884791130288220000006241088466620635526_);}
	.st77{fill:url(#SVGID_00000026855820846245729070000016790551133730060166_);}
	.st78{fill:url(#SVGID_00000158026105392148071280000005181869473142339729_);}
	.st79{fill:url(#SVGID_00000140011644652079042500000013647340176321764281_);}
	.st80{fill:url(#SVGID_00000099624844060551165490000005719699171990308517_);}
	.st81{fill:url(#SVGID_00000010997706292491896730000006824973527322487736_);}
	.st82{fill:url(#SVGID_00000130632552640893563040000007267867747065252499_);}
	.st83{fill-rule:evenodd;clip-rule:evenodd;fill:url(#rect4789_00000108303724280902081430000009514565430735490190_);}
	.st84{fill:url(#SVGID_00000055679661443324337120000011216579164061409957_);}
	.st85{fill:url(#SVGID_00000115508060179816637850000015723350956802770365_);}
	.st86{fill:url(#SVGID_00000146480897376919493930000010082669945184377244_);}
	.st87{fill:url(#SVGID_00000049903894947416143460000008440904061639368111_);}
	.st88{fill:url(#SVGID_00000169531423406722524090000003172035935727986827_);}
	.st89{fill:url(#SVGID_00000133531271245621134810000007580277944477089671_);}
	.st90{fill:url(#SVGID_00000104699523559294211200000011584207676308576906_);}
	.st91{fill:url(#SVGID_00000075879845582254093960000012373180961033786779_);}
	.st92{fill:url(#SVGID_00000039120991107152448330000006635532535448851330_);}
	.st93{fill:url(#SVGID_00000157285006549843356610000007191760091363052958_);}
	.st94{fill:url(#SVGID_00000149366630644133730410000004791385072571840952_);}
	.st95{fill:url(#SVGID_00000148645853724279831300000008414132390867316923_);}
	.st96{fill:url(#SVGID_00000114068702055119364420000001156275030912103569_);}
	.st97{fill:url(#SVGID_00000122001354599140423700000003937087783728737978_);}
	.st98{fill:url(#SVGID_00000018205798932939814180000000021107640669427083_);}
	.st99{fill:url(#SVGID_00000130643350850340901800000000060696678884197796_);}
	.st100{fill:url(#SVGID_00000038396580074895820360000013346420708709739912_);}
	.st101{fill-rule:evenodd;clip-rule:evenodd;fill:url(#rect4789_00000119802021364477669560000006572443554670120123_);}
	.st102{fill:url(#SVGID_00000173846886438288462480000004654969331516517540_);}
	.st103{fill:url(#SVGID_00000054260607297517994270000002649458067887191687_);}
	.st104{fill:url(#SVGID_00000169546458278307387010000000516007172997935033_);}
	.st105{fill:url(#SVGID_00000086688482817638601510000001959807245640894105_);}
	.st106{fill:url(#SVGID_00000110447569811241254780000016460471768697242799_);}
	.st107{fill:url(#SVGID_00000143614258063027031970000013364401320308335805_);}
	.st108{fill:url(#SVGID_00000103240510966402952240000001564682635958661787_);}
	.st109{fill:url(#SVGID_00000164505895234181496450000010788171850453460665_);}
	.st110{fill:url(#SVGID_00000005957085035603859120000005867148048305094046_);}
	.st111{fill:url(#SVGID_00000042731143584248493220000015520245727824239261_);}
	.st112{fill:url(#SVGID_00000012430255684440399230000001323177660183781785_);}
	.st113{fill:url(#SVGID_00000133518681512679064560000002660825245687021998_);}
	.st114{fill:url(#SVGID_00000125601246113803810870000005025434232393485732_);}
	.st115{fill:url(#SVGID_00000166677764293504728720000004082867744751253390_);}
	.st116{fill-rule:evenodd;clip-rule:evenodd;fill:url(#rect4789_00000084518323519436912200000009991619036097130117_);}
	.st117{fill:url(#SVGID_00000129927823473711095750000009468219603560240804_);}
	.st118{fill:url(#SVGID_00000068659795294406962120000012528470334181824388_);}
	.st119{fill:url(#SVGID_00000029043311606748175770000017107091320653958797_);}
	.st120{fill:url(#SVGID_00000014606064163897372150000014654248391965915801_);}
	.st121{fill:url(#SVGID_00000025402456185966578140000000988838647692349598_);}
	.st122{fill:url(#SVGID_00000127723728579269887810000005738628178157337734_);}
	.st123{fill:url(#SVGID_00000072254282678362507580000016722482008219040187_);}
	.st124{fill:url(#SVGID_00000058552316134982943090000018148991296054637477_);}
	.st125{fill:url(#SVGID_00000180333786180099461150000003989242894548493989_);}
	.st126{fill:url(#SVGID_00000142868964079025384560000017626333633446150303_);}
	.st127{fill:url(#SVGID_00000169544354691655842220000002463198734260423347_);}
	.st128{fill:url(#SVGID_00000084528753406614539470000005243880283201674169_);}
	.st129{fill:url(#SVGID_00000083805229606287020250000006171290417311799446_);}
</style>
<g>
	<linearGradient id="SVGID_1_" gradientUnits="userSpaceOnUse" x1="1919.5" y1="0" x2="1919.5" y2="1576.4971">
		<stop  offset="0" style="stop-color:#007CFF"/>
		<stop  offset="0.7926" style="stop-color:#034EA2"/>
		<stop  offset="1" style="stop-color:#034EA2"/>
	</linearGradient>
	<path class="st5" d="M3006.3,172.1c9.7-19.2,28.6-34.8,56.7-46.6c17.8-7.4,44.1-15,78.9-22.7c34.4-7.7,64.2-13,89.2-16V0h-874.4
		h-874.4H607.9v86.7c25,3,54.8,8.3,89.2,16c34.8,7.8,61.1,15.4,78.9,22.7c28.1,11.8,47,27.4,56.7,46.6c9.6,19.3,14.5,41.5,14.5,66.6
		l0.8,1117.7c0,28.2-5,51.3-15,69.5c-10,18.2-28.7,32.8-56.1,43.9c-14.9,6-41.7,10.4-80.6,13.3c-38.9,3-68.3,5.3-88.4,6.8v86.7
		h874.4h874.4h874.4v-86.7c-20-1.5-49.4-3.7-88.4-6.8c-38.9-2.9-65.7-7.4-80.6-13.3c-27.4-11.1-46.1-25.7-56.1-43.9
		c-10-18.2-15-41.3-15-69.5l0.8-1117.7C2991.9,213.5,2996.7,191.4,3006.3,172.1z M1707.4,1425.8c-10,18.2-28.7,32.8-56.1,43.9
		c-14.9,6-41.7,10.4-80.6,13.3c-0.4,0-0.8,0.1-1.2,0.1c-58.1,4.5-116.4,4.5-174.4,0c-0.4,0-0.8-0.1-1.2-0.1
		c-38.9-2.9-65.7-7.4-80.6-13.3c-27.4-11.1-46.1-25.7-56.1-43.9c-10-18.2-15-41.3-15-69.5l0.8-1117.7c0-25.2,4.9-47.3,14.5-66.6
		c9.7-19.2,28.6-34.8,56.7-46.6c17.8-7.4,44.1-15,78.9-22.7c0.3-0.1,0.7-0.2,1-0.2c58-12.9,118.2-12.9,176.3,0
		c0.3,0.1,0.7,0.2,1,0.2c34.8,7.8,61.1,15.4,78.9,22.7c28.1,11.8,47,27.4,56.7,46.6c9.6,19.3,14.5,41.5,14.5,66.6l0.8,1117.7
		C1722.3,1384.6,1717.4,1407.6,1707.4,1425.8z M2581.8,1425.8c-10,18.2-28.7,32.8-56.1,43.9c-14.9,6-41.7,10.4-80.6,13.3
		c-0.4,0-0.8,0.1-1.2,0.1c-58.1,4.5-116.4,4.5-174.4,0c-0.4,0-0.8-0.1-1.2-0.1c-38.9-2.9-65.7-7.4-80.6-13.3
		c-27.4-11.1-46.1-25.7-56.1-43.9c-10-18.2-15-41.3-15-69.5l0.8-1117.7c0-25.2,4.9-47.3,14.5-66.6c9.7-19.2,28.6-34.8,56.7-46.6
		c17.8-7.4,44.1-15,78.9-22.7c0.3-0.1,0.7-0.2,1-0.2c58-12.9,118.2-12.9,176.3,0c0.3,0.1,0.7,0.2,1,0.2
		c34.8,7.8,61.1,15.4,78.9,22.7c28.1,11.8,47,27.4,56.7,46.6c9.6,19.3,14.5,41.5,14.5,66.6l0.8,1117.7
		C2596.7,1384.6,2591.8,1407.6,2581.8,1425.8z"/>
	<g>
		<g>
			<path id="rect4789_00000088109854379465412400000004213820556853854867_" class="st0" d="M447.6,1016.3h2943.8
				c86.2,0,156.1,69.9,156.1,156.1l0,0c0,86.2-69.9,156.1-156.1,156.1H447.6c-86.2,0-156.1-69.9-156.1-156.1l0,0
				C291.5,1086.2,361.4,1016.3,447.6,1016.3z"/>
			<g>
				<path class="st1" d="M905.3,1101.4h61c35.9,0,59,18.5,59,49.9v0.4c0,33.5-25.8,51.2-61.2,51.2h-19.5v40.6h-39.4v-142.2H905.3z
					 M963.5,1171.9c14.1,0,22.5-7.3,22.5-18.5v-0.4c0-12.1-8.5-18.7-22.7-18.7h-18.5v37.6L963.5,1171.9L963.5,1171.9z"/>
				<path class="st1" d="M1103,1101.4h39.4v107.6h68.9v34.5h-108.2v-142.1H1103z"/>
				<path class="st1" d="M1338.2,1100.3h38l60.6,143.2h-42.3l-10.3-25.4h-55l-10.1,25.4h-41.5L1338.2,1100.3z M1372.7,1187.4
					l-15.9-40.4l-16.1,40.4H1372.7z"/>
				<path class="st1" d="M1530.1,1190.2l-54-89h44.9l29.2,51.8l29.4-51.8h44.1l-54,88.4v53.8h-39.6V1190.2z"/>
				<path class="st1" d="M1803.3,1222.4l21.9-26.2c14.1,11.1,29.6,17.1,46.1,17.1c10.5,0,16.3-3.6,16.3-9.7v-0.4
					c0-5.9-4.7-9.1-24-13.6c-30.2-6.9-53.6-15.5-53.6-44.7v-0.4c0-26.4,20.9-45.5,55-45.5c24.2,0,43.1,6.5,58.4,18.9l-19.7,27.8
					c-13-9.1-27.2-14.1-39.8-14.1c-9.5,0-14.3,4-14.3,9.1v0.4c0,6.5,4.9,9.3,24.6,13.9c32.7,7.1,53,17.7,53,44.3v0.4
					c0,29-23,46.3-57.4,46.3C1844.7,1245.9,1820.8,1238,1803.3,1222.4z"/>
				<path class="st1" d="M2042.3,1190.2l-54-89h44.9l29.2,51.8l29.4-51.8h44.1l-54,88.4v53.8h-39.6L2042.3,1190.2L2042.3,1190.2z"/>
				<path class="st1" d="M2191.1,1222.4l21.9-26.2c14.1,11.1,29.6,17.1,46.1,17.1c10.5,0,16.3-3.6,16.3-9.7v-0.4
					c0-5.9-4.7-9.1-24-13.6c-30.2-6.9-53.6-15.5-53.6-44.7v-0.4c0-26.4,20.9-45.5,55-45.5c24.2,0,43.1,6.5,58.4,18.9l-19.7,27.8
					c-13-9.1-27.2-14.1-39.8-14.1c-9.5,0-14.3,4-14.3,9.1v0.4c0,6.5,4.9,9.3,24.6,13.9c32.7,7.1,53,17.7,53,44.3v0.4
					c0,29-23,46.3-57.4,46.3C2232.6,1245.9,2208.6,1238,2191.1,1222.4z"/>
				<path class="st1" d="M2425.9,1135.8h-42.7v-34.5h124.7v34.5h-42.7v107.6h-39.4v-107.6H2425.9z"/>
				<path class="st1" d="M2586.2,1101.4h114.4v33.5h-75.3v21.5h68.2v31h-68.2v22.5h76.3v33.5h-115.4V1101.4z"/>
				<path class="st1" d="M2782.6,1101.4h41.7l33.9,55l33.9-55h41.7v142.2h-39.2v-81.6l-36.4,55.6h-0.8l-36.1-55.2v81.2h-38.6v-142.2
					H2782.6z"/>
			</g>
		</g>
		<g>
			<g>
				<path class="st2" d="M1507.3,415.5v238.9c0,0,160.9-67,160.9-161.6C1668.2,375.9,1507.3,415.5,1507.3,415.5"/>
				<path class="st2" d="M2751.9,403.5c-70.2,0-164.4,41.3-164.4,206.3S2671.4,816,2751.9,816c80.4,0,166.1-51.6,166.1-206.3
					C2918,455,2822.1,403.5,2751.9,403.5"/>
				<polyline class="st2" points="887.6,611.5 1000.5,611.5 942.4,448.2 887.6,611.5 				"/>
				<path class="st2" d="M570.9,890H392.8C180.5,890,62.4,723.3,62.4,602.9C62.4,418.4,222.1,316,367.1,316
					c140.4,0,225.1,107.7,225.1,107.7l-96.7,101.9c0,0-5.1,2.6-9.4,2.6c-4.3,0-10.3-4.3-10.3-4.3l-12-10.3c0,0-3.4-0.8-3.4-4.3
					c0-3.4,9.4-12,9.4-28.3c0-16.3-3.4-84.2-107.8-84.2s-150.7,98-150.7,178.8c0,80.8,49.7,228.7,212.3,228.7
					c94.6,0,114.7-53.3,114.7-53.3h32.5V890z M1267.6,891.7h-214.9v-41.3c0,0,13.7,1.7,20.6-10.3c6.9-12,6.9-21.5,1.7-33.5
					c-5.1-12-41.1-107.5-41.1-107.5H858.5c0,0-36,96.2-39.4,104.9c-3.4,8.6-3.4,22.4,0,30.9c5.7,14.3,25.7,16.4,25.7,16.4v40.4h-172
					v-40.4c0,0,15.6-5.4,27.3-17.2c12.9-12.9,17.1-26.6,17.1-26.6l174.6-476.2h146.4l178,467.5c5.1,12.9,13.8,25,22.3,35.2
					c8.5,10.3,29.1,17.2,29.1,17.2V891.7z M1675,671.7c-73.1,33.8-169.4,60.2-169.4,60.2v89.4c0,0,0.8,6,9.4,16.4
					c8.6,10.3,18,12.9,18,12.9v41.3h-198.6v-40.4c0,0,12-2.6,20.6-11.2c8.6-8.6,10.3-18.9,10.3-18.9v-404c0,0,0.8-17.2-6-24.1
					c-6.9-6.9-23.1-16.3-23.1-16.3v-45.6c0,0,172.9,0,273.9,0c101,0,202,36.1,202,153S1738.4,642.5,1675,671.7z M2175,397.6
					c-104.4,0-150.7,98-150.7,178.8c0,80.8,49.7,228.7,212.3,228.7c94.7,0,114.7-53.3,114.7-53.3h32.5v139.2h-178.1
					c-212.3,0-330.4-166.7-330.4-287.1c0-184.5,159.8-286.9,304.7-286.9c140.4,0,225.1,107.7,225.1,107.7l-96.7,101.9
					c0,0-5.1,2.5-9.4,2.5c-4.3,0-10.3-4.3-10.3-4.3l-12-10.3c0,0-3.4-0.9-3.4-4.3c0-3.4,9.4-12,9.4-28.3
					C2282.8,465.5,2279.4,397.6,2175,397.6z M2751.9,907.8c-184.9,0-317.8-135.6-317.8-300.6s136.3-292.9,317.8-292.9
					c181.4,0,317.8,127.9,317.8,292.9S2936.8,907.8,2751.9,907.8z M3779.9,892h-204.6v-37.2c0,0,18-2.6,24-11.2
					c6-8.6,8.6-13.8,6.9-27.5c-1.7-13.8-50.5-326.6-50.5-326.6l-89.1,276.7h-107.8l-88.2-259.5l-44.5,305.9c0,0-1.7,18.4,5.2,28.4
					c9.4,13.8,26.5,13.8,26.5,13.8v37h-177.2v-39.6c0,0,14.1-2.2,24.4-14.1c10.3-12,12-27.5,12-27.5l64.6-403.6c0,0,3.8-15-0.4-21.9
					c-4.5-7.2-28.7-13.3-28.7-13.3v-40h203.8l73.6,228.3l78.7-228.7h213.2v33.5c0,0-14.3,6-20.6,13.8c-7.7,9.4-7.7,16.3-6,30.1
					c1.7,13.8,56.5,386.8,58.2,400.5c1.7,13.8,3.4,21.5,6.8,31c3.4,9.4,19.7,17.1,19.7,17.1V892z"/>
				<path class="st1" d="M1507.3,415.5v238.9c0,0,160.9-67,160.9-161.6C1668.2,375.9,1507.3,415.5,1507.3,415.5"/>
				<path class="st1" d="M2751.9,403.5c-70.2,0-164.4,41.3-164.4,206.3S2671.4,816,2751.9,816c80.4,0,166.1-51.6,166.1-206.3
					C2918,455,2822.1,403.5,2751.9,403.5"/>
				<polyline class="st1" points="887.6,611.5 1000.5,611.5 942.4,448.2 887.6,611.5 				"/>
				<path class="st3" d="M678.7,420.7L497.2,613.2l-119.8-82.5c0,0,39.4-37.8,3.4-65.3c-28.1-21.4-106.7,24.1-103.4,113.5
					c4,103.1,67.5,161.5,137.6,161.5c65,0,82.1-52.7,82.1-52.7h145.9v121.5L848.2,266h234.5L1271,754.2c0,0,13.7,25.8,27.4,32.7
					c0,0,0.8-320.3,0.8-329.3c0-9-1.2-18.9-6.8-25.3c-9.2-10.7-24.8-15-24.8-15V266c0,0,217.3,0,328.7,0
					c170.4,0,214.2,46.5,263.6,135.8c68.3-92.3,162.2-153,296.2-153c137.9,0,235.4,51,291.1,135.8c77.8-93.4,203-136.6,317.5-136.6
					c140.8,0,258.4,68.4,319.3,174.5V266h316.7l33.4,85.1L3459,266h327l0,147.8c-23.1,11.2-32.4,22.6-28.3,49l45.7,292.2
					c1.9,9.5,5.2,19.4,13.4,26.7c9.5,8.5,22.3,6.9,22.3,6.9V957h-328.7V829.8H3322v127.6h-309v-82.9c0,0-112.9,99.7-258.5,99.7
					c-186.2,0-310.7-137.5-310.7-137.5V957c0,0-13.7,0-219.2,0c-195,0-362.4-107.2-409.2-302.5c-22.2,21.2-119.9,91.3-237.1,117.7
					c-9.1,2-13.7,5.5-13.7,15.5c0,18.1,38.6,24.5,38.6,24.5V957c0,0-1013.5,0-1201.8,0C178.8,957,0,804,0,609.8
					s139.4-359.3,370.5-359.3C591.4,250.5,678.7,420.7,678.7,420.7"/>
				<path class="st4" d="M891.8,331.3h146.4l178.1,467.6c5.1,12.9,13.7,24.9,22.3,35.2c8.5,10.3,29.1,17.2,29.1,17.2v40.4h-214.9
					v-41.3c0,0,13.7,1.8,20.6-10.3c6.9-12,6.9-21.5,1.7-33.5c-5.1-12-41.1-107.5-41.1-107.5H858.5c0,0-36,96.3-39.4,104.9
					c-3.4,8.6-3.4,22.4,0,30.9c5.7,14.3,25.7,16.4,25.7,16.4v40.4h-172v-40.4c0,0,15.6-5.4,27.3-17.2c12.9-12.9,17.2-26.7,17.2-26.7
					L891.8,331.3 M887.6,611.5h113l-58.2-163.3L887.6,611.5z"/>
				<path class="st4" d="M1336.1,331.3c0,0,172.9,0,273.9,0c101,0,202,36.1,202,153s-73.6,158.1-137,187.3
					c-73.1,33.8-169.5,60.2-169.5,60.2v89.3c0,0,0.8,6,9.4,16.4c8.5,10.3,18,12.9,18,12.9v41.3h-198.6v-40.4c0,0,12-2.6,20.6-11.2
					c8.6-8.6,10.3-18.9,10.3-18.9v-404c0,0,0.8-17.2-6-24.1c-6.9-6.9-23.1-16.3-23.1-16.3V331.3 M1507.3,415.5v238.9
					c0,0,160.9-67,160.9-161.6C1668.2,375.9,1507.3,415.5,1507.3,415.5z"/>
				<path class="st4" d="M2751.9,907.8c-184.9,0-317.8-135.6-317.8-300.6s136.3-293,317.8-293c181.5,0,317.8,127.9,317.8,293
					S2936.8,907.8,2751.9,907.8 M2587.6,609.8c0,165,83.9,206.3,164.4,206.3c80.4,0,166.1-51.6,166.1-206.3
					c0-154.7-95.9-206.3-166.1-206.3C2681.7,403.5,2587.6,444.8,2587.6,609.8z"/>
				<path class="st4" d="M3152.5,331.6h203.7l73.6,228.3l78.7-228.7h213.1v33.5c0,0-14.2,6-20.6,13.8c-7.7,9.4-7.7,16.4-6,30.1
					c1.7,13.8,56.5,386.8,58.2,400.5c1.7,13.8,3.5,21.5,6.9,31c3.4,9.4,19.7,17.2,19.7,17.2v34.6h-204.6v-37.2c0,0,18-2.6,23.9-11.2
					c6-8.6,8.6-13.8,6.8-27.5c-1.7-13.8-50.5-326.6-50.5-326.6l-89,276.8h-107.8l-88.2-259.6l-44.5,306c0,0-1.7,18.3,5.1,28.3
					c9.4,13.8,26.5,13.8,26.5,13.8v36.9h-177.2v-39.5c0,0,14.1-2.2,24.4-14.2c10.3-12,12-27.5,12-27.5l64.6-403.5
					c0,0,3.9-15.1-0.4-21.9c-4.5-7.2-28.7-13.4-28.7-13.4V331.6"/>
				<path class="st4" d="M592.2,423.7l-95.5,100.6c-5,5.3-13.3,5.8-18.9,1.2l-16.2-13.3c-0.7-0.6-1.1-1.6-1.1-2.9
					c0-3.4,9.4-12,9.4-28.3c0-16.4-3.4-84.2-107.8-84.2c-104.4,0-150.7,98-150.7,178.8c0,80.8,49.7,228.7,212.3,228.7
					c94.6,0,114.7-53.3,114.7-53.3h32.5V890H392.8C180.5,890,62.4,723.2,62.4,602.9C62.4,418.4,222.1,316,367.1,316
					C507.5,316,592.2,423.7,592.2,423.7"/>
				<path class="st4" d="M2405.3,424.7l-95.5,100.6c-5,5.3-13.3,5.8-18.9,1.2l-16.2-13.3c-0.7-0.6-1.1-1.6-1.1-2.9
					c0-3.4,9.4-12,9.4-28.3c0-16.4-3.4-84.2-107.8-84.2c-104.4,0-150.7,98-150.7,178.8c0,80.8,49.7,228.7,212.3,228.7
					c94.6,0,114.7-53.3,114.7-53.3h32.5v139.2h-178.1c-212.3,0-330.4-166.7-330.4-287.1c0-184.5,159.8-286.9,304.7-286.9
					C2320.5,317,2405.3,424.7,2405.3,424.7"/>
			</g>
		</g>
	</g>
</g>
</svg>
