<?xml version="1.0" encoding="utf-8"?>
<!-- Generator: Adobe Illustrator 26.0.3, SVG Export Plug-In . SVG Version: 6.00 Build 0)  -->
<svg version="1.1" id="Layer_1" xmlns="http://www.w3.org/2000/svg" xmlns:xlink="http://www.w3.org/1999/xlink" x="0px" y="0px"
	 viewBox="0 0 3839 1090" style="enable-background:new 0 0 3839 1090;" xml:space="preserve">
<style type="text/css">
	.st0{fill-rule:evenodd;clip-rule:evenodd;fill:#034EA2;}
	.st1{fill:#FFFFFF;}
	.st2{fill:#231F20;}
	.st3{fill:#034EA2;}
	.st4{fill:#FFCB04;}
	.st5{fill:url(#SVGID_1_);}
	.st6{fill-rule:evenodd;clip-rule:evenodd;fill:url(#rect4789_00000075151056912355011660000013956171304604290963_);}
	.st7{fill:url(#SVGID_00000129897932365948770770000011540898719065328276_);}
	.st8{fill:url(#SVGID_00000074408684764666876170000011811928917572432522_);}
	.st9{fill:url(#SVGID_00000094589828868719867840000004938640712759607733_);}
	.st10{fill:url(#SVGID_00000116917001316985741900000001513723087662244497_);}
	.st11{fill:url(#SVGID_00000088125931381778520660000001178952862384708765_);}
	.st12{fill:url(#SVGID_00000032630354504882316920000017807877582048812457_);}
	.st13{fill:url(#SVGID_00000128449172755343189220000001965042862651842955_);}
	.st14{fill:url(#SVGID_00000047768410622622292390000003861996426724955289_);}
	.st15{fill:url(#SVGID_00000152960062489866996590000004878417750700947389_);}
	.st16{fill:url(#SVGID_00000050623004253892697320000013583374889681823136_);}
	.st17{fill:url(#SVGID_00000022547301431921687330000011835743047932711343_);}
	.st18{fill:url(#SVGID_00000128443136548474650850000014470446507442280589_);}
	.st19{fill:url(#SVGID_00000175293142123594150090000017217340078431806132_);}
	.st20{display:none;}
	.st21{display:inline;fill:#FF0642;}
	.st22{display:inline;fill:#FFFFFF;stroke:#000000;stroke-width:0.5156;stroke-miterlimit:10;}
	.st23{display:inline;fill:#FFCB04;}
	.st24{fill-rule:evenodd;clip-rule:evenodd;fill:url(#rect4789_00000019648230577773291410000006252272070475499147_);}
	.st25{fill:url(#SVGID_00000095307607433298153540000009184613670600078208_);}
	.st26{fill:url(#SVGID_00000036219347370505890770000004706665022887289730_);}
	.st27{fill:url(#SVGID_00000109005612577338105550000000681612945512255639_);}
	.st28{fill:url(#SVGID_00000156568621790968480050000010672448765472236421_);}
	.st29{fill:url(#SVGID_00000175322170147699377050000016189118271684458414_);}
	.st30{fill:url(#SVGID_00000146476182541047999800000011553286129754818239_);}
	.st31{fill:url(#SVGID_00000179646301618236016950000000611873100696905613_);}
	.st32{fill:url(#SVGID_00000060023325712934991530000013586301470196826029_);}
	.st33{fill:url(#SVGID_00000161601086209867487650000008634655254156821134_);}
	.st34{fill:url(#SVGID_00000155129287508960827830000015148591793383172024_);}
	.st35{fill:url(#SVGID_00000180350209659624866680000010977006211635534731_);}
	.st36{fill:url(#SVGID_00000144305371242819780790000000679095716841441698_);}
	.st37{fill:url(#SVGID_00000090257845353458197220000006481630675401585553_);}
	.st38{fill:url(#SVGID_00000148640387500761336450000013131095897317640885_);}
	.st39{fill-rule:evenodd;clip-rule:evenodd;fill:url(#rect4789_00000051372546864667187570000005385247260379200917_);}
	.st40{fill:url(#SVGID_00000183945276148174502630000011486810713722635435_);}
	.st41{fill:url(#SVGID_00000139259273847391596980000011110726585140960164_);}
	.st42{fill:url(#SVGID_00000154394809588324132430000009438587235924694964_);}
	.st43{fill:url(#SVGID_00000042010632132341561090000009388160030174776974_);}
	.st44{fill:url(#SVGID_00000108295196679220682530000001822942295715585959_);}
	.st45{fill:url(#SVGID_00000128487571104942650910000004510194849209773235_);}
	.st46{fill:url(#SVGID_00000148651923166152739420000012353848550897538727_);}
	.st47{fill:url(#SVGID_00000036218927864220988280000013927250497101402249_);}
	.st48{fill:url(#SVGID_00000093169257571637063690000004240743715807328677_);}
	.st49{fill:url(#SVGID_00000067205411582293203860000017864943104580942516_);}
	.st50{fill:url(#SVGID_00000044900338651973608250000009375855205200055945_);}
	.st51{fill:url(#SVGID_00000138553850542822831570000003854659941087955111_);}
	.st52{fill:url(#SVGID_00000163041582432316840950000006881616231751323024_);}
	.st53{fill-rule:evenodd;clip-rule:evenodd;fill:url(#rect4789_00000000901474375313607040000017506584150719725478_);}
	.st54{fill:url(#SVGID_00000120541432052040359270000005988511447300315044_);}
	.st55{fill:url(#SVGID_00000053520666606468594850000013675151954272792972_);}
	.st56{fill:url(#SVGID_00000036236543417495839300000005875492478426848936_);}
	.st57{fill:url(#SVGID_00000002356923210006115770000003626826502794447034_);}
	.st58{fill:url(#SVGID_00000083790342912129474560000018388363143272041148_);}
	.st59{fill:url(#SVGID_00000144312837814079083450000012898400839733227185_);}
	.st60{fill:url(#SVGID_00000099660175117410076890000016532407117606286737_);}
	.st61{fill:url(#SVGID_00000172438810692961468370000008241054516073129626_);}
	.st62{fill:url(#SVGID_00000027585231734352767580000004324976578141260987_);}
	.st63{fill:url(#SVGID_00000031921081712039204050000009690164910728065714_);}
	.st64{fill:url(#SVGID_00000011003954429057351500000018341556440806573758_);}
	.st65{fill:url(#SVGID_00000113333662406151063800000003418440586471153043_);}
	.st66{fill:url(#SVGID_00000067233527966636272630000013682541288640387968_);}
	.st67{fill:url(#SVGID_00000016786102999952035220000012981928870846701472_);}
	.st68{fill-rule:evenodd;clip-rule:evenodd;fill:url(#rect4789_00000058563229548337127340000003442640893622068668_);}
	.st69{fill:url(#SVGID_00000077283486486198990800000003807183987864433297_);}
	.st70{fill:url(#SVGID_00000108288013450336455250000010052646037270590355_);}
	.st71{fill:url(#SVGID_00000168101437923344996950000010667920675094919063_);}
	.st72{fill:url(#SVGID_00000142878620411376378010000008861300681748408994_);}
	.st73{fill:url(#SVGID_00000155140084171849640570000009696202574147734454_);}
	.st74{fill:url(#SVGID_00000077295351028269704990000008128621590476525503_);}
	.st75{fill:url(#SVGID_00000129912818385307710450000008060836368163541400_);}
	.st76{fill:url(#SVGID_00000014631915521354768920000006849098629260857018_);}
	.st77{fill:url(#SVGID_00000099624705751039553840000004894524882144459184_);}
	.st78{fill:url(#SVGID_00000169546733278236658740000018249324456789662086_);}
	.st79{fill:url(#SVGID_00000178190449224134313710000003755935727752205459_);}
	.st80{fill:url(#SVGID_00000119077518569149592180000012822293086640324025_);}
	.st81{fill:url(#SVGID_00000140705245743179797640000015414415705156837054_);}
	.st82{fill:url(#SVGID_00000026135389990093881430000005712318906522256798_);}
	.st83{fill-rule:evenodd;clip-rule:evenodd;fill:url(#rect4789_00000151514392218555832090000001200512274569997468_);}
	.st84{fill:url(#SVGID_00000087390798463806479080000013120889347582530953_);}
	.st85{fill:url(#SVGID_00000183209454491380710320000008035588495744648611_);}
	.st86{fill:url(#SVGID_00000106149155878428802880000017303185393557904807_);}
	.st87{fill:url(#SVGID_00000002344773172546065070000006697933479950832013_);}
	.st88{fill:url(#SVGID_00000070113456433502624290000012078655796834054292_);}
	.st89{fill:url(#SVGID_00000044154866040366062210000013118286090924667777_);}
	.st90{fill:url(#SVGID_00000098935431459194002960000003616815536602870941_);}
	.st91{fill:url(#SVGID_00000080184531866345860780000018335322378213261999_);}
	.st92{fill:url(#SVGID_00000147185245849568840450000006641799726135788702_);}
	.st93{fill:url(#SVGID_00000032620244394786302910000012989962138797512069_);}
	.st94{fill:url(#SVGID_00000173155260557958732460000018060936387424627079_);}
	.st95{fill:url(#SVGID_00000122705161295354332530000013698318219376265861_);}
	.st96{fill:url(#SVGID_00000104666861558463342160000012187555689627791244_);}
	.st97{fill:url(#SVGID_00000050664559886463540590000011789494393206443404_);}
	.st98{fill:url(#SVGID_00000127026376906783709080000015463114892073342121_);}
	.st99{fill:url(#SVGID_00000074441679109225910770000015356589562705661617_);}
	.st100{fill:url(#SVGID_00000077306071654031624820000017750485619134514103_);}
	.st101{fill-rule:evenodd;clip-rule:evenodd;fill:url(#rect4789_00000001646888428584969370000001192483155160765350_);}
	.st102{fill:url(#SVGID_00000085948534447988653440000013692613833145217153_);}
	.st103{fill:url(#SVGID_00000173851575383201713940000004117571375091745920_);}
	.st104{fill:url(#SVGID_00000098907225174849895170000005716823694847413148_);}
	.st105{fill:url(#SVGID_00000033371462545798470870000011005749811892511114_);}
	.st106{fill:url(#SVGID_00000121999294588562017250000001377366690148798346_);}
	.st107{fill:url(#SVGID_00000111870987160072362600000004229957228375523506_);}
	.st108{fill:url(#SVGID_00000067918473718070625190000015773288181842810257_);}
	.st109{fill:url(#SVGID_00000084512905117027598940000009068803909332433598_);}
	.st110{fill:url(#SVGID_00000029742006395471682450000008245922880398935436_);}
	.st111{fill:url(#SVGID_00000092428651335353126480000003597540159895968953_);}
	.st112{fill:url(#SVGID_00000088111772975275663990000004301673555561088695_);}
	.st113{fill:url(#SVGID_00000134233478613047461910000009283663766761322404_);}
	.st114{fill:url(#SVGID_00000066505373618427482580000013692713436455326388_);}
	.st115{fill:url(#SVGID_00000169526220384264527350000002643113676724768951_);}
	.st116{fill-rule:evenodd;clip-rule:evenodd;fill:url(#rect4789_00000178170960128920238870000004238313690071077804_);}
	.st117{fill:url(#SVGID_00000049909163361403021200000005622937510822529925_);}
	.st118{fill:url(#SVGID_00000183245628586636137580000012954501705404280743_);}
	.st119{fill:url(#SVGID_00000054251161333512864690000000082759466074839734_);}
	.st120{fill:url(#SVGID_00000164507812857149755650000004109171942013685678_);}
	.st121{fill:url(#SVGID_00000132802897811189120010000009266790314758766218_);}
	.st122{fill:url(#SVGID_00000065032643680127528690000018166265314445378469_);}
	.st123{fill:url(#SVGID_00000018925692403926729680000009185485142624911498_);}
	.st124{fill:url(#SVGID_00000111166134173949321540000011569435077692828587_);}
	.st125{fill:url(#SVGID_00000181782310259799179540000007711255897878353554_);}
	.st126{fill:url(#SVGID_00000176735316251968292670000000994835768785345707_);}
	.st127{fill:url(#SVGID_00000052822227823826496530000002671748531735243708_);}
	.st128{fill:url(#SVGID_00000163041263222426757310000005075299917689845911_);}
	.st129{fill:url(#SVGID_00000158717875709324810690000018375257317266059151_);}
</style>
<g>
	<g>
		
			<linearGradient id="rect4789_00000011729264418675885670000008830558293189587847_" gradientUnits="userSpaceOnUse" x1="396.0497" y1="4405.6182" x2="396.0497" y2="4096.9067" gradientTransform="matrix(1 0 0 -1 1523.5 5186.8657)">
			<stop  offset="0" style="stop-color:#007CFF"/>
			<stop  offset="1" style="stop-color:#000055"/>
		</linearGradient>
		
			<path id="rect4789_00000008148782052613269300000008438562098610325154_" style="fill-rule:evenodd;clip-rule:evenodd;fill:url(#rect4789_00000011729264418675885670000008830558293189587847_);" d="
			M464.1,781.2H3375c85.3,0,154.4,69.1,154.4,154.4l0,0c0,85.3-69.1,154.4-154.4,154.4H464.1c-85.3,0-154.4-69.1-154.4-154.4l0,0
			C309.8,850.3,378.9,781.2,464.1,781.2z"/>
		<g>
			<g>
				<path class="st1" d="M789,865.2h60.3c35.5,0,58.4,18.3,58.4,49.4v0.4c0,33.1-25.5,50.6-60.5,50.6h-19.3v40.2h-39L789,865.2
					L789,865.2z M846.5,935.1c13.9,0,22.3-7.2,22.3-18.3v-0.4c0-12-8.4-18.5-22.5-18.5H828v37.2H846.5z"/>
				<path class="st1" d="M984.5,865.2h39v106.5h68.1v34.1H984.5V865.2z"/>
				<path class="st1" d="M1217,864.2h37.6l59.9,141.6h-41.8l-10.2-25.1h-54.2l-10,25.1h-41L1217,864.2z M1251.1,950.4l-15.7-40
					l-15.9,40H1251.1z"/>
				<path class="st1" d="M1406.7,953.2l-53.4-88h44.4l28.9,51.2l29.1-51.2h43.6l-53.4,87.4v53.2h-39.2V953.2z"/>
				<path class="st1" d="M1676.9,985l21.7-25.9c13.9,11,29.3,16.9,45.6,16.9c10.4,0,16.1-3.6,16.1-9.6V966c0-5.8-4.6-9-23.7-13.5
					c-29.9-6.8-53-15.3-53-44.2v-0.4c0-26.1,20.7-45,54.4-45c23.9,0,42.6,6.4,57.8,18.7l-19.5,27.5c-12.9-9-26.9-13.9-39.4-13.9
					c-9.4,0-14.1,4-14.1,9v0.4c0,6.4,4.8,9.2,24.3,13.7c32.3,7,52.4,17.5,52.4,43.8v0.4c0,28.7-22.7,45.8-56.8,45.8
					C1717.9,1008.3,1694.2,1000.4,1676.9,985z"/>
				<path class="st1" d="M1913.2,953.2l-53.4-88h44.4l28.9,51.2l29.1-51.2h43.6l-53.4,87.4v53.2h-39.2V953.2z"/>
				<path class="st1" d="M2060.5,985l21.7-25.9c13.9,11,29.3,16.9,45.6,16.9c10.4,0,16.1-3.6,16.1-9.6V966c0-5.8-4.6-9-23.7-13.5
					c-29.9-6.8-53-15.3-53-44.2v-0.4c0-26.1,20.7-45,54.4-45c23.9,0,42.6,6.4,57.8,18.7l-19.5,27.5c-12.9-9-26.9-13.9-39.4-13.9
					c-9.4,0-14.1,4-14.1,9v0.4c0,6.4,4.8,9.2,24.3,13.7c32.3,7,52.4,17.5,52.4,43.8v0.4c0,28.7-22.7,45.8-56.8,45.8
					C2101.4,1008.3,2077.8,1000.4,2060.5,985z"/>
				<path class="st1" d="M2292.6,899.4h-42.2v-34.1h123.3v34.1h-42.2v106.5h-39L2292.6,899.4L2292.6,899.4z"/>
				<path class="st1" d="M2451,865.2h113.1v33.1h-74.5v21.3h67.5v30.7h-67.5v22.3h75.5v33.1H2451V865.2z"/>
				<path class="st1" d="M2645.3,865.2h41.2l33.5,54.4l33.5-54.4h41.2v140.6h-38.8v-80.7l-36,55h-0.8l-35.8-54.6v80.3h-38.2V865.2
					H2645.3z"/>
			</g>
			<path class="st1" d="M3030.1,880.6c0.9-1.7,2.5-3.1,5.1-4.2c1.6-0.7,3.9-1.3,7-2c3.1-0.7,5.8-1.2,8-1.4v-7.7h-39h-39v7.7
				c2.2,0.3,4.9,0.7,8,1.4c3.1,0.7,5.4,1.4,7,2c2.5,1.1,4.2,2.4,5.1,4.2c0.9,1.7,1.3,3.7,1.3,5.9v99.7c0,2.5-0.4,4.6-1.3,6.2
				c-0.9,1.6-2.6,2.9-5,3.9c-1.3,0.5-3.7,0.9-7.2,1.2c-3.5,0.3-6.1,0.5-7.9,0.6v7.7h39h39v-7.7c-1.8-0.1-4.4-0.3-7.9-0.6
				c-3.5-0.3-5.9-0.7-7.2-1.2c-2.4-1-4.1-2.3-5-3.9c-0.9-1.6-1.3-3.7-1.3-6.2v-99.7C3028.8,884.3,3029.2,882.3,3030.1,880.6z"/>
		</g>
	</g>
	<g>
		<path class="st2" d="M1511.9,187.1v236.3c0,0,159.1-66.3,159.1-159.8C1671.1,148,1511.9,187.1,1511.9,187.1"/>
		<path class="st2" d="M2742.6,175.2c-69.4,0-162.5,40.8-162.5,204s82.9,204,162.5,204c79.5,0,164.2-51,164.2-204
			C2906.8,226.2,2812,175.2,2742.6,175.2"/>
		<polyline class="st2" points="899.1,380.9 1010.8,380.9 953.3,219.4 899.1,380.9 		"/>
		<path class="st2" d="M585.9,656.3H409.9c-209.9,0-326.7-164.9-326.7-283.9c0-182.4,158-283.7,301.3-283.7
			c138.8,0,222.6,106.5,222.6,106.5L511.4,296c0,0-5.1,2.6-9.3,2.6c-4.3,0-10.2-4.3-10.2-4.3l-11.9-10.2c0,0-3.4-0.8-3.4-4.3
			c0-3.4,9.3-11.9,9.3-28c0-16.1-3.4-83.3-106.6-83.3s-149,96.9-149,176.8c0,79.9,49.1,226.1,209.9,226.1
			c93.6,0,113.4-52.7,113.4-52.7h32.2V656.3z M1274.9,658h-212.4v-40.8c0,0,13.5,1.7,20.3-10.2c6.8-11.9,6.8-21.3,1.7-33.2
			c-5.1-11.9-40.6-106.3-40.6-106.3H870.3c0,0-35.6,95.2-38.9,103.7c-3.4,8.5-3.4,22.1,0,30.6c5.6,14.1,25.4,16.2,25.4,16.2V658
			H686.7v-39.9c0,0,15.4-5.3,27-17c12.7-12.7,16.9-26.3,16.9-26.3l172.7-470.8h144.8l176,462.3c5.1,12.8,13.6,24.7,22.1,34.9
			c8.4,10.2,28.7,17,28.7,17V658z M1677.8,440.5c-72.3,33.4-167.5,59.5-167.5,59.5v88.4c0,0,0.8,6,9.3,16.2
			c8.5,10.2,17.8,12.7,17.8,12.7V658h-196.4v-39.9c0,0,11.9-2.6,20.3-11c8.5-8.5,10.2-18.7,10.2-18.7V188.9c0,0,0.8-17-6-23.8
			c-6.8-6.8-22.8-16.1-22.8-16.1v-45.1c0,0,170.9,0,270.8,0c99.9,0,199.8,35.7,199.8,151.3S1740.4,411.6,1677.8,440.5z
			 M2172.1,169.4c-103.2,0-149,96.9-149,176.8c0,79.9,49.1,226.1,209.9,226.1c93.6,0,113.4-52.7,113.4-52.7h32.2v137.7h-176.1
			c-209.9,0-326.7-164.9-326.7-283.8c0-182.5,158-283.7,301.3-283.7c138.8,0,222.6,106.5,222.6,106.5l-95.6,100.7
			c0,0-5.1,2.5-9.3,2.5c-4.2,0-10.2-4.2-10.2-4.2l-11.9-10.2c0,0-3.4-0.9-3.4-4.3c0-3.4,9.3-11.9,9.3-28
			C2278.8,236.6,2275.4,169.4,2172.1,169.4z M2742.6,673.9c-182.8,0-314.3-134.1-314.3-297.2s134.8-289.6,314.3-289.6
			c179.4,0,314.2,126.5,314.2,289.6S2925.4,673.9,2742.6,673.9z M3759.1,658.3h-202.3v-36.8c0,0,17.8-2.6,23.7-11
			c6-8.5,8.5-13.6,6.8-27.2c-1.7-13.6-49.9-323-49.9-323l-88.1,273.6h-106.6l-87.2-256.6l-44,302.5c0,0-1.7,18.2,5.1,28.1
			c9.3,13.6,26.2,13.6,26.2,13.6V658h-175.2v-39.1c0,0,14-2.1,24.1-14c10.2-11.9,11.9-27.2,11.9-27.2l63.9-399.1
			c0,0,3.8-14.9-0.4-21.7c-4.5-7.2-28.4-13.2-28.4-13.2v-39.6h201.5L3413,330l77.8-226.1h210.8v33.2c0,0-14.1,5.9-20.3,13.6
			c-7.6,9.3-7.6,16.1-6,29.7c1.7,13.6,55.9,382.4,57.6,396.1c1.7,13.6,3.4,21.3,6.8,30.6c3.4,9.3,19.5,16.9,19.5,16.9V658.3z"/>
		<path class="st1" d="M1511.9,187.1v236.3c0,0,159.1-66.3,159.1-159.8C1671.1,148,1511.9,187.1,1511.9,187.1"/>
		<path class="st1" d="M2742.6,175.2c-69.4,0-162.5,40.8-162.5,204s82.9,204,162.5,204c79.5,0,164.2-51,164.2-204
			C2906.8,226.2,2812,175.2,2742.6,175.2"/>
		<polyline class="st1" points="899.1,380.9 1010.8,380.9 953.3,219.4 899.1,380.9 		"/>
		<path class="st1" d="M2745.1,761.1c-132.8,0-234.3-66-285.8-108.4v91.4h-238.2c-200.4,0-360.4-110.2-416.5-283.5
			c-41.8,30.4-116.9,73.9-201.2,96.1c2.3,0.6,4.6,1.2,6.8,1.5l17.8,3.1l0.1,182.7H418.3C183.8,744.1,0,583.8,0,379.3
			C0,161,163.1,2.5,387.8,2.5c228.9,0,320,172.6,323.8,180l6.9,13.5L516.1,410.8l-155.3-107l19-18.2c5.7-6.3,9-11.7,10.5-16.3
			c3.5-10-6.1-19.6-16.1-16.1c-3.1,1.1-6.7,2.6-10.5,4.5c-22.5,11.7-48.2,42.3-46.4,90.1c3.7,95.6,62,139.1,114.6,139.1
			c46.4,0,59.6-33.7,60.9-37.5l5-14.4l15.3-0.2h165.7v24l166.5-441h261.5l177.3,459.7c0.2-94.3,0.6-242.7,0.6-248.7
			c0-2.3-0.1-4.2-0.3-5.7c-0.4-3.6-2.4-6.8-5.4-8.8c-3.6-2.4-7.9-4.1-10.1-4.8l-15.4-4.5l-0.2-16.1V17.8h346.5
			c153.9,0,212.4,36.6,263.3,117.9c76-89.5,173.5-134.9,290.2-134.9c126.9,0,226.4,42,289.7,121.7C2518.7,45.4,2633.2,0,2755.3,0
			c118.2,0,223.9,46.5,294.2,127.1V17.8h349.3l15.4,39.2l11.5-39.2h360.9l0,181.1l-12.1,5.9c-17.2,8.3-18.3,11.8-16.1,25.8
			l45.2,288.9c1.3,6.5,3.3,11,6.4,13.7c1.4,1.2,4.3,1.5,5.5,1.4l23-1.6l0.7,23v188.1h-367.9V618.3h-143.3v126.1h-348.5v-60.5
			C2933.4,714.8,2847.6,761.1,2745.1,761.1z M2416.5,548.2l37.3,41c1.2,1.3,119.3,128.9,291.3,128.9c133.7,0,240.4-92.3,241.4-93.2
			l35.6-31.3l0,107.9h262.7V575.3H3514v125.8h282.1v-127c-4.9-1.9-10.1-4.7-14.9-9c-13.5-12.1-17.9-27.6-20-38.2l-45.3-289.8
			c-5.5-35,9.2-52.9,27.7-64.5l0-112h-285.8l-37.7,129l-50.6-129h-277.1v213.8l-40.1-69.8c-58.1-101.3-169.2-161.7-297.1-161.7
			c-119.8,0-231.1,47.6-297.5,127.4l-18.5,22.2l-15.9-24.2c-53.5-81.5-146.9-124.6-269.9-124.6c-114.4,0-204.6,46.7-275.6,142.6
			l-19.9,26.8l-16.2-29.2c-42.3-76.4-76.6-123.3-241.9-123.3h-303.6v113.9c6.4,3.4,13.5,8.3,19.3,15.1c8,9.2,11.9,22,11.9,39
			c0,8.8-0.8,325.6-0.8,325.6l-0.1,34.7l-31-15.6c-18.2-9.2-32.5-34-36.4-41.4l-1.1-2.3l-180.9-469H875L677.5,584l-41.5-7.6v-98.7
			H526.6c-11.4,19.8-38.6,52.1-94.7,52.1c-72.5,0-152.7-56.4-157.5-180.4c-2.6-67.9,35.9-112.4,69.6-129.8
			c25.2-13,50.2-13.1,67.1-0.2c18.2,13.9,22.7,30.1,23.3,41.2c0.8,13.5-3.8,25.8-9.2,35.4l85,58.5l155.8-165.2
			c-24.4-37.6-108.2-143.9-278-143.9c-203.1,0-344.9,137.3-344.9,333.8c0,180.5,164.9,321.9,375.4,321.9h1166.9v-105
			c-20.6-7-38.1-20.3-38.1-40.9c0-13.4,5.3-30.6,30.3-36.2c108.2-24.4,202.3-89.9,224.3-111l27-25.9l8.7,36.4
			c41.8,174.4,188.8,282.7,383.8,282.7h195.3V548.2z"/>
		<linearGradient id="SVGID_1_" gradientUnits="userSpaceOnUse" x1="1919.4998" y1="739.5952" x2="1919.4998" y2="21.4575">
			<stop  offset="0.1654" style="stop-color:#000055"/>
			<stop  offset="0.9017" style="stop-color:#007CFF"/>
		</linearGradient>
		<path class="st5" d="M692.6,192.3L513.1,382.7L394.6,301c0,0,38.9-37.4,3.4-64.6c-27.8-21.2-105.5,23.8-102.2,112.2
			c3.9,101.9,66.7,159.7,136.1,159.7c64.3,0,81.2-52.1,81.2-52.1h144.3v120.1L860.2,39.3h231.9L1278.3,522c0,0,13.5,25.5,27.1,32.3
			c0,0,0.8-316.7,0.8-325.6c0-8.9-1.2-18.7-6.7-25c-9.1-10.5-24.5-14.9-24.5-14.9V39.3c0,0,214.9,0,325,0
			c168.5,0,211.8,45.9,260.7,134.3c67.5-91.2,160.4-151.3,292.9-151.3c136.4,0,232.8,50.4,287.8,134.3
			c76.9-92.3,200.8-135.1,314-135.1c139.2,0,255.6,67.7,315.7,172.5V39.3h313.2l33,84.1l24.6-84.1h323.3l0,146.2
			c-22.9,11.1-32.1,22.3-28,48.5l45.2,288.9c1.9,9.4,5.2,19.2,13.2,26.4c9.4,8.4,22,6.8,22,6.8v166.6h-325V596.8h-186.2v126.1
			h-305.6V641c0,0-111.7,98.6-255.6,98.6c-184.2,0-307.2-136-307.2-136v119c0,0-13.5,0-216.7,0c-192.8,0-358.4-106-404.6-299.1
			c-21.9,21-118.5,90.3-234.5,116.4c-9,2-13.5,5.5-13.5,15.3c0,17.9,38.1,24.3,38.1,24.3v143.2c0,0-1002.1,0-1188.4,0
			c-220.1,0-396.9-151.3-396.9-343.3S159.3,24,387.8,24C606.2,24,692.6,192.3,692.6,192.3"/>
		<g>
			
				<linearGradient id="SVGID_00000122692108152826955630000006976918425162955436_" gradientUnits="userSpaceOnUse" x1="3443.3687" y1="713.944" x2="3329.9138" y2="70.5094">
				<stop  offset="0" style="stop-color:#FF9D01"/>
				<stop  offset="0.1496" style="stop-color:#FFA402"/>
				<stop  offset="0.3686" style="stop-color:#FFB805"/>
				<stop  offset="0.6289" style="stop-color:#FFD80A"/>
				<stop  offset="0.7832" style="stop-color:#FFEE0D"/>
				<stop  offset="1" style="stop-color:#FFD70B"/>
			</linearGradient>
			<path style="fill:url(#SVGID_00000122692108152826955630000006976918425162955436_);" d="M3739.8,607c-3.4-9.3-5.1-17-6.8-30.6
				c-1.7-13.5-55.8-382.4-57.5-396c-1.7-13.6-1.7-20.4,5.9-29.8c6.3-7.7,20.3-13.6,20.3-13.6v-33.2h-210.8L3413,329.9l-72.8-225.7
				h-201.5v39.6c0,0,23.9,6.1,28.4,13.2c4.3,6.8,0.4,21.7,0.4,21.7l-63.9,399c0,0-1.7,15.3-11.9,27.2c-10.2,11.9-24.1,14-24.1,14
				V658h175.2v-36.5c0,0-16.9,0-26.2-13.7c-6.8-9.9-5.1-28-5.1-28l44-302.6l87.2,256.7h106.6l88-273.7c0,0,48.2,309.4,49.9,323
				c1.7,13.6-0.8,18.7-6.8,27.2c-5.9,8.5-23.7,11.1-23.7,11.1v36.8h202.3V624C3759.2,624,3743.1,616.4,3739.8,607z"/>
			
				<linearGradient id="SVGID_00000129186927517990170690000005326400343255984286_" gradientUnits="userSpaceOnUse" x1="3413.4338" y1="658.2542" x2="3413.4338" y2="103.8364">
				<stop  offset="5.327789e-09" style="stop-color:#FFCF00"/>
				<stop  offset="1" style="stop-color:#FFFF36"/>
			</linearGradient>
			<path style="fill:url(#SVGID_00000129186927517990170690000005326400343255984286_);" d="M3688.6,116.8v12.1
				c-5.6,3.1-12.7,7.7-17.4,13.5c-11,13.5-10.5,24.9-8.7,39.6c0.9,7,14.6,100.8,29.1,200.2c13.6,93,27.6,189.2,28.4,195.8
				c1.8,14.3,3.7,23.1,7.5,33.5c2.3,6.5,7.6,12.6,15.8,18.3c1,0.7,2,1.3,2.9,1.9v13.7h-176.3v-13.5c7.3-2.4,16.2-6.6,21.3-13.9
				c7.8-11.1,11.1-19.4,9-36.2c-1.7-13.6-48-310.7-50-323.4l-8.4-54.2l-16.8,52.2l-85.1,264.7h-87.8L3267.9,273l-17.4-51.2
				l-7.8,53.5l-44,302.6l0,0.3l0,0.3c-0.4,3.8-1.7,23.5,7.3,36.5c6.4,9.5,15.7,14.7,24,17.2V645h-149.2v-16.5
				c6.3-2.6,14.2-7.2,21-15.1c11.8-13.9,14.4-30.6,14.8-33.8l63.8-398.2c1.3-5.4,4.3-20.9-2.2-31.2c-3.6-5.7-10.5-10.2-22.4-14.6
				c-1.4-0.5-2.7-1-4-1.4v-16.9h179l69.9,216.7l12,37.1l12.7-36.9l74.8-217.3H3688.6 M3701.6,103.8h-210.8L3413,329.9l-72.8-225.7
				h-201.5v39.6c0,0,23.9,6.1,28.4,13.2c4.3,6.8,0.4,21.7,0.4,21.7l-63.9,399c0,0-1.7,15.3-11.9,27.2c-10.2,11.9-24.1,14-24.1,14
				V658h175.2v-36.5c0,0-16.9,0-26.2-13.7c-6.8-9.9-5.1-28-5.1-28l44-302.6l87.2,256.7h106.6l88-273.7c0,0,48.2,309.4,49.9,323
				c1.7,13.6-0.8,18.7-6.8,27.2c-5.9,8.5-23.7,11.1-23.7,11.1v36.8h202.3V624c0,0-16.1-7.6-19.4-17c-3.4-9.3-5.1-17-6.8-30.6
				c-1.7-13.5-55.8-382.4-57.5-396c-1.7-13.6-1.7-20.4,5.9-29.8c6.3-7.7,20.3-13.6,20.3-13.6V103.8L3701.6,103.8z"/>
		</g>
		<g>
			<g>
				
					<linearGradient id="SVGID_00000164498634975999769380000011895703358948775326_" gradientUnits="userSpaceOnUse" x1="993.0859" y1="707.6807" x2="887.1154" y2="106.6924">
					<stop  offset="0" style="stop-color:#FF9D01"/>
					<stop  offset="0.1496" style="stop-color:#FFA402"/>
					<stop  offset="0.3686" style="stop-color:#FFB805"/>
					<stop  offset="0.6289" style="stop-color:#FFD80A"/>
					<stop  offset="0.7832" style="stop-color:#FFEE0D"/>
					<stop  offset="1" style="stop-color:#FFD70B"/>
				</linearGradient>
				<path style="fill:url(#SVGID_00000164498634975999769380000011895703358948775326_);" d="M1246.2,601.1
					c-8.5-10.2-16.9-22.1-22-34.9l-176.1-462.4H903.3L730.7,574.7c0,0-4.3,13.6-17,26.4c-11.6,11.7-27,17-27,17V658h170.1V618
					c0,0-19.8-2-25.4-16.2c-3.4-8.5-3.4-22.1,0-30.6c3.4-8.5,39-103.7,39-103.7h173.5c0,0,35.6,94.3,40.6,106.3
					c5.1,11.9,5.1,21.3-1.7,33.2c-6.8,11.9-20.3,10.2-20.3,10.2V658h212.5V618C1274.9,618,1254.6,611.2,1246.2,601.1z M899.1,380.9
					l54.2-161.5l57.5,161.5H899.1z"/>
				
					<linearGradient id="SVGID_00000046339636820733311530000012859233750112251027_" gradientUnits="userSpaceOnUse" x1="980.8019" y1="657.9814" x2="980.8019" y2="103.8363">
					<stop  offset="5.327789e-09" style="stop-color:#FFCF00"/>
					<stop  offset="1" style="stop-color:#FFFF36"/>
				</linearGradient>
				<path style="fill:url(#SVGID_00000046339636820733311530000012859233750112251027_);" d="M1039.1,116.8l172.9,454l0,0.1l0,0.1
					c4.8,12,12.7,24.6,24.1,38.3c6.7,8,17.9,14,25.8,17.5V645h-186.5v-16.4c7.9-2.5,14.5-7.8,18.6-15.1c8.6-15.1,9.3-28.4,2.3-44.7
					c-3.9-9.2-28.2-73.2-40.4-105.7l-3.2-8.4h-9H870.3h-9l-3.2,8.5c-0.4,1-35.5,95.2-38.8,103.4c-4.7,11.7-4.7,28.6,0,40.2
					c5,12.5,15.9,18.6,24.5,21.6V645H699.7v-18.4c6.5-3.2,15.6-8.6,23.3-16.3c13.8-13.9,19.1-28.4,20.1-31.3l169.4-462.1H1039.1
					 M881,393.9h18.1h111.7h18.4l-6.2-17.4l-57.5-161.5l-12.6-35.4l-12,35.6l-54.2,161.5L881,393.9 M1048.1,103.8H903.3L730.7,574.7
					c0,0-4.3,13.6-17,26.4c-11.6,11.7-27,17-27,17V658h170.1V618c0,0-19.8-2-25.4-16.2c-3.4-8.5-3.4-22.1,0-30.6
					c3.4-8.5,39-103.7,39-103.7h173.5c0,0,35.6,94.3,40.6,106.3c5.1,11.9,5.1,21.3-1.7,33.2c-5.2,9.2-14.5,10.3-18.5,10.3
					c-1.2,0-1.9-0.1-1.9-0.1V658h212.5V618c0,0-20.4-6.8-28.8-17c-8.5-10.2-16.9-22.1-22-34.9L1048.1,103.8L1048.1,103.8z
					 M899.1,380.9l54.2-161.5l57.5,161.5H899.1L899.1,380.9z"/>
			</g>
			<g>
				
					<linearGradient id="SVGID_00000144302866315532665330000015831154527176533914_" gradientUnits="userSpaceOnUse" x1="1611.7025" y1="644.8663" x2="1511.0673" y2="74.136">
					<stop  offset="0" style="stop-color:#FF9D01"/>
					<stop  offset="0.1496" style="stop-color:#FFA402"/>
					<stop  offset="0.3686" style="stop-color:#FFB805"/>
					<stop  offset="0.6289" style="stop-color:#FFD80A"/>
					<stop  offset="0.7832" style="stop-color:#FFEE0D"/>
					<stop  offset="1" style="stop-color:#FFD70B"/>
				</linearGradient>
				<path style="fill:url(#SVGID_00000144302866315532665330000015831154527176533914_);" d="M1613.5,103.8c-99.9,0-270.8,0-270.8,0
					v45.1c0,0,16.1,9.3,22.8,16.1c6.8,6.8,6,23.8,6,23.8v399.4c0,0-1.7,10.2-10.2,18.7c-8.5,8.5-20.3,11-20.3,11V658h196.4v-40.8
					c0,0-9.3-2.5-17.8-12.7c-8.5-10.2-9.3-16.2-9.3-16.2v-88.3c0,0,95.3-26.2,167.6-59.5c62.7-28.9,135.4-69.7,135.4-185.2
					S1713.4,103.8,1613.5,103.8z M1511.9,423.4V187.1c0,0,159.1-39.1,159.1,76.5C1671.1,357.1,1511.9,423.4,1511.9,423.4z"/>
				
					<linearGradient id="SVGID_00000041273804536812575260000013195525630397812113_" gradientUnits="userSpaceOnUse" x1="1577.092" y1="657.9813" x2="1577.092" y2="103.8363">
					<stop  offset="5.327789e-09" style="stop-color:#FFCF00"/>
					<stop  offset="1" style="stop-color:#FFFF36"/>
				</linearGradient>
				<path style="fill:url(#SVGID_00000041273804536812575260000013195525630397812113_);" d="M1613.5,116.8
					c53.6,0,98.7,10.5,130.5,30.3c17.7,11.1,31.5,25.2,40.8,41.9c10.3,18.5,15.5,40.7,15.5,66.1c0,105.6-63.2,143.6-127.9,173.4
					c-70.5,32.5-164.7,58.6-165.6,58.8l-9.6,2.6v9.9v88.3v0.9l0.1,0.9c0.3,2.3,2.1,10.6,12.2,22.7c5,6.1,10.3,10.1,14.8,12.7V645
					h-170.4v-17.7c5.1-2.2,11.2-5.8,16.5-11.1c11.1-11.1,13.5-24.3,13.8-25.8l0.2-1.1v-1.1V189.1c0-1.4,0.1-5.9-0.5-11.2
					c-1.2-9.7-4.3-17.1-9.2-22l0,0l0,0c-4.9-4.9-13.2-10.5-19-14.2v-24.8H1613.5 M1498.9,442.9l18-7.5c1.7-0.7,41.6-17.5,82.1-46.2
					c56.4-40.1,85-82.3,85-125.6c0-61.8-40.9-95.9-115.3-95.9c-32.1,0-58.8,6.5-59.9,6.7l-9.9,2.4v10.2v236.3V442.9 M1613.5,103.8
					c-99.9,0-270.8,0-270.8,0v45.1c0,0,16.1,9.3,22.8,16.1c6.8,6.8,6,23.8,6,23.8v399.4c0,0-1.7,10.2-10.2,18.7
					c-8.5,8.5-20.3,11-20.3,11V658h196.4v-40.8c0,0-9.3-2.5-17.8-12.7c-8.5-10.2-9.3-16.2-9.3-16.2v-88.3c0,0,95.3-26.2,167.6-59.5
					c62.7-28.9,135.4-69.7,135.4-185.2S1713.4,103.8,1613.5,103.8L1613.5,103.8z M1511.9,423.4V187.1c0,0,25.9-6.4,56.8-6.4
					c45.7,0,102.3,13.9,102.3,82.9C1671.1,357.1,1511.9,423.4,1511.9,423.4L1511.9,423.4z"/>
			</g>
			<g>
				
					<linearGradient id="SVGID_00000043445131871788887180000002003673589655016864_" gradientUnits="userSpaceOnUse" x1="2794.3467" y1="670.3978" x2="2692.0449" y2="90.2162">
					<stop  offset="0" style="stop-color:#FF9D01"/>
					<stop  offset="0.1496" style="stop-color:#FFA402"/>
					<stop  offset="0.3686" style="stop-color:#FFB805"/>
					<stop  offset="0.6289" style="stop-color:#FFD80A"/>
					<stop  offset="0.7832" style="stop-color:#FFEE0D"/>
					<stop  offset="1" style="stop-color:#FFD70B"/>
				</linearGradient>
				<path style="fill:url(#SVGID_00000043445131871788887180000002003673589655016864_);" d="M2742.6,87
					c-179.5,0-314.3,126.5-314.3,289.7s131.4,297.2,314.3,297.2c182.8,0,314.3-134.1,314.3-297.2S2922.1,87,2742.6,87z
					 M2742.6,583.3c-79.6,0-162.5-40.8-162.5-204s93.1-204,162.5-204c69.4,0,164.2,51,164.2,204
					C2906.8,532.2,2822.2,583.3,2742.6,583.3z"/>
				
					<linearGradient id="SVGID_00000119826488170843976270000005497326931319661244_" gradientUnits="userSpaceOnUse" x1="2742.6326" y1="673.9325" x2="2742.6326" y2="87.0111">
					<stop  offset="5.327789e-09" style="stop-color:#FFCF00"/>
					<stop  offset="1" style="stop-color:#FFFF36"/>
				</linearGradient>
				<path style="fill:url(#SVGID_00000119826488170843976270000005497326931319661244_);" d="M2742.6,100
					c83.2,0,159.8,28.5,215.6,80.2c55.3,51.2,85.7,121,85.7,196.5c0,76.5-30,147.7-84.6,200.5c-27.2,26.3-59.2,46.9-95.2,61.2
					c-37.7,15-78.5,22.6-121.4,22.6c-42.9,0-83.7-7.6-121.4-22.6c-36-14.3-68.1-34.9-95.2-61.2c-54.6-52.8-84.6-124-84.6-200.5
					c0-75.5,30.4-145.3,85.7-196.5C2582.8,128.5,2659.4,100,2742.6,100 M2742.6,596.3c85.7,0,177.2-57,177.2-217
					c0-171.3-111.4-217-177.2-217c-41.2,0-175.5,15.6-175.5,217C2567.1,568.1,2677.1,596.3,2742.6,596.3 M2742.6,87
					c-179.5,0-314.3,126.5-314.3,289.7s131.4,297.2,314.3,297.2c182.8,0,314.3-134.1,314.3-297.2S2922.1,87,2742.6,87L2742.6,87z
					 M2742.6,583.3c-79.6,0-162.5-40.8-162.5-204s93.1-204,162.5-204c69.4,0,164.2,51,164.2,204
					C2906.8,532.2,2822.2,583.3,2742.6,583.3L2742.6,583.3z"/>
			</g>
			<g>
				
					<linearGradient id="SVGID_00000104666429359952773920000003837255989881673352_" gradientUnits="userSpaceOnUse" x1="414.5874" y1="686.499" x2="310.6324" y2="96.941">
					<stop  offset="0" style="stop-color:#FF9D01"/>
					<stop  offset="0.1496" style="stop-color:#FFA402"/>
					<stop  offset="0.3686" style="stop-color:#FFB805"/>
					<stop  offset="0.6289" style="stop-color:#FFD80A"/>
					<stop  offset="0.7832" style="stop-color:#FFEE0D"/>
					<stop  offset="1" style="stop-color:#FFD70B"/>
				</linearGradient>
				<path style="fill:url(#SVGID_00000104666429359952773920000003837255989881673352_);" d="M477.9,282.7l16.1,13.2
					c5.6,4.6,13.7,4.1,18.7-1.2l94.5-99.5c0,0-83.8-106.5-222.6-106.5C241.1,88.8,83.1,190,83.1,372.4
					c0,119,116.8,283.8,326.7,283.8h176.1V518.6h-32.2c0,0-19.8,52.7-113.4,52.7c-160.8,0-209.9-146.2-209.9-226.1
					c0-79.9,45.7-176.8,149-176.8c103.3,0,106.6,67.1,106.6,83.3c0,16.1-9.3,24.6-9.3,28C476.7,281.1,477.2,282.1,477.9,282.7z"/>
				
					<linearGradient id="SVGID_00000102546156286561904200000017436441112906691211_" gradientUnits="userSpaceOnUse" x1="345.0985" y1="656.2877" x2="345.0985" y2="88.7591">
					<stop  offset="5.327789e-09" style="stop-color:#FFCF00"/>
					<stop  offset="1" style="stop-color:#FFFF36"/>
				</linearGradient>
				<path style="fill:url(#SVGID_00000102546156286561904200000017436441112906691211_);" d="M384.5,101.8c30,0,59.7,5.3,88.4,15.7
					c23.1,8.4,45.6,20.1,66.8,34.7c23.8,16.4,40.8,33.1,49.8,42.7l-86.3,90.9c-0.1,0.1-0.2,0.2-0.5,0.2c-0.2,0-0.4-0.1-0.5-0.2
					l-9.9-8.1c3.1-5.7,6.7-14.4,6.7-26c0-22.6-8.6-96.3-119.6-96.3c-106.3,0-162,95.5-162,189.8c0,96.1,59.4,239.1,222.9,239.1
					c79.3,0,110.8-35.9,121.2-52.7h11.4v111.7H409.9c-48,0-93.3-8.9-134.5-26.6c-37.1-15.9-70.2-38.4-98.3-66.9
					c-25.5-25.8-46.4-56.2-60.5-88.1c-13.4-30.2-20.4-61.1-20.4-89.3c0-41.7,8.6-80.6,25.6-115.6c15.6-32.2,38.1-60.7,66.6-84.7
					C241.8,127.4,313.2,101.8,384.5,101.8 M384.5,88.8C241.1,88.8,83.1,190,83.1,372.4c0,119,116.8,283.8,326.7,283.8h176.1V518.6
					h-32.2c0,0-19.8,52.7-113.4,52.7c-160.8,0-209.9-146.2-209.9-226.1c0-79.9,45.7-176.8,149-176.8c103.3,0,106.6,67.1,106.6,83.3
					c0,16.1-9.3,24.6-9.3,28c0,1.3,0.4,2.3,1.1,2.9l16.1,13.2c2.5,2.1,5.6,3.1,8.7,3.1c3.7,0,7.3-1.4,10-4.3l94.5-99.5
					C607.1,195.2,523.3,88.8,384.5,88.8L384.5,88.8z"/>
			</g>
			<g>
				
					<linearGradient id="SVGID_00000104686909415240881530000017737661516127419528_" gradientUnits="userSpaceOnUse" x1="2207.3638" y1="687.4822" x2="2103.4087" y2="97.924">
					<stop  offset="0" style="stop-color:#FF9D01"/>
					<stop  offset="0.1496" style="stop-color:#FFA402"/>
					<stop  offset="0.3686" style="stop-color:#FFB805"/>
					<stop  offset="0.6289" style="stop-color:#FFD80A"/>
					<stop  offset="0.7832" style="stop-color:#FFEE0D"/>
					<stop  offset="1" style="stop-color:#FFD70B"/>
				</linearGradient>
				<path style="fill:url(#SVGID_00000104686909415240881530000017737661516127419528_);" d="M2270.6,283.7l16.1,13.2
					c5.6,4.6,13.7,4.1,18.7-1.2l94.5-99.5c0,0-83.8-106.5-222.6-106.5c-143.3,0-301.3,101.2-301.3,283.7
					c0,119,116.8,283.8,326.7,283.8h176.1V519.6h-32.2c0,0-19.8,52.7-113.4,52.7c-160.8,0-209.9-146.2-209.9-226.1
					c0-79.9,45.7-176.8,149-176.8c103.3,0,106.6,67.1,106.6,83.3c0,16.1-9.3,24.6-9.3,28C2269.5,282.1,2269.9,283.1,2270.6,283.7z"
					/>
				
					<linearGradient id="SVGID_00000007410933007219363510000012593584660160429708_" gradientUnits="userSpaceOnUse" x1="2137.875" y1="657.2709" x2="2137.875" y2="89.7421">
					<stop  offset="5.327789e-09" style="stop-color:#FFCF00"/>
					<stop  offset="1" style="stop-color:#FFFF36"/>
				</linearGradient>
				<path style="fill:url(#SVGID_00000007410933007219363510000012593584660160429708_);" d="M2177.2,102.7c30,0,59.7,5.3,88.4,15.7
					c23.1,8.4,45.6,20.1,66.8,34.7c23.8,16.4,40.8,33.1,49.8,42.7l-86.3,90.9c-0.1,0.1-0.2,0.2-0.5,0.2c-0.2,0-0.4-0.1-0.5-0.2
					l-9.9-8.1c3.1-5.7,6.7-14.4,6.7-26c0-22.6-8.6-96.3-119.6-96.3c-106.3,0-162,95.5-162,189.8c0,96.1,59.4,239.1,222.9,239.1
					c79.3,0,110.8-35.9,121.2-52.7h11.4v111.7h-163.1c-48,0-93.3-8.9-134.5-26.6c-37.1-15.9-70.2-38.4-98.3-66.9
					c-25.5-25.8-46.4-56.2-60.5-88.1c-13.4-30.2-20.4-61.1-20.4-89.3c0-41.7,8.6-80.6,25.6-115.6c15.6-32.2,38.1-60.7,66.6-84.7
					C2034.5,128.4,2106,102.7,2177.2,102.7 M2177.2,89.7c-143.3,0-301.3,101.2-301.3,283.7c0,119,116.8,283.8,326.7,283.8h176.1
					V519.6h-32.2c0,0-19.8,52.7-113.4,52.7c-160.8,0-209.9-146.2-209.9-226.1c0-79.9,45.7-176.8,149-176.8
					c103.3,0,106.6,67.1,106.6,83.3c0,16.1-9.3,24.6-9.3,28c0,1.3,0.4,2.3,1.1,2.9l16.1,13.2c2.5,2.1,5.6,3.1,8.7,3.1
					c3.7,0,7.3-1.4,10-4.3l94.5-99.5C2399.8,196.2,2316,89.7,2177.2,89.7L2177.2,89.7z"/>
			</g>
		</g>
		<g class="st20">
			<path class="st21" d="M607,195.3L511.3,296c0,0-5.1,2.5-9.3,2.5c-4.3,0-10.2-4.2-10.2-4.2l-11.8-10.2c0,0-3.4-0.9-3.4-4.3
				s9.3-11.9,9.3-28c0-16.2-3.3-83.3-106.6-83.3c-103.2,0-148.9,96.9-148.9,176.7c0,79.9,49.1,226,209.9,226
				c93.5,0,113.4-52.7,113.4-52.7h32.2v137.6h-176C200,656.2,83.2,491.4,83.2,372.4c0-182.4,157.9-283.6,301.2-283.6
				C523.2,88.9,607,195.3,607,195.3"/>
			<line class="st22" x1="473.6" y1="279.2" x2="513.9" y2="312.3"/>
			<line class="st22" x1="596.9" y1="205.9" x2="489.3" y2="319.2"/>
			<path class="st23" d="M2745.1,761.1c-132.8,0-234.3-66-285.8-108.4v91.4h-238.2c-200.4,0-360.4-110.2-416.5-283.5
				c-41.8,30.4-116.9,73.9-201.2,96.1c2.3,0.6,4.6,1.2,6.8,1.5l17.8,3.1l0.1,182.7H418.3C183.8,744.1,0,583.8,0,379.3
				C0,161,163.1,2.5,387.8,2.5c228.9,0,320,172.6,323.8,180l6.9,13.5L516.1,410.8l-155.3-107l19-18.2c4.9-4.9,12.2-15.5,11.7-22.6
				c-0.1-1.3,1-6.8-5.3-11.5c-1.4-1.1-10.3,0-22.6,6.3c-22.5,11.7-48.2,42.3-46.4,90.1c3.7,95.6,62,139.1,114.6,139.1
				c46.4,0,59.6-33.7,60.9-37.5l5-14.4l15.3-0.2h165.7v24l166.5-441h261.5l177.3,459.7c0.2-94.3,0.6-242.7,0.6-248.7
				c0-8.6-1.5-11-1.6-11.1c-3.5-4.1-11-7.3-14.2-8.2l-15.4-4.5l-0.2-16.1V17.8h346.5c153.9,0,212.4,36.6,263.3,117.9
				c76-89.5,173.5-134.9,290.2-134.9c126.9,0,226.4,42,289.7,121.7C2518.7,45.4,2633.2,0,2755.3,0c118.2,0,223.9,46.5,294.2,127.1
				V17.8h349.3l15.4,39.2l11.5-39.2h360.9l0,181.1l-12.1,5.9c-17.2,8.3-18.3,11.8-16.1,25.8l45.2,288.9c1.3,6.5,3.3,11,6.4,13.7
				c1.4,1.2,4.3,1.5,5.5,1.4l23-1.6l0.7,23v188.1h-367.9V618.3h-143.3v126.1h-348.5v-60.5C2933.4,714.8,2847.6,761.1,2745.1,761.1z
				 M2416.5,548.2l37.3,41c1.2,1.3,119.3,128.9,291.3,128.9c133.7,0,240.4-92.3,241.4-93.2l35.6-31.3l0,107.9h262.7V575.3H3514
				v125.8h282.1v-127c-4.9-1.9-10.1-4.7-14.9-9c-13.5-12.1-17.9-27.6-20-38.2l-45.3-289.8c-5.5-35,9.2-52.9,27.7-64.5l0-112h-285.8
				l-37.7,129l-50.6-129h-277.1v213.8l-40.1-69.8c-58.1-101.3-169.2-161.7-297.1-161.7c-119.8,0-231.1,47.6-297.5,127.4l-18.5,22.2
				l-15.9-24.2c-53.5-81.5-146.9-124.6-269.9-124.6c-114.4,0-204.6,46.7-275.6,142.6l-19.9,26.8l-16.2-29.2
				c-42.3-76.4-76.6-123.3-241.9-123.3h-303.6v113.9c6.4,3.4,13.5,8.3,19.3,15.1c8,9.2,11.9,22,11.9,39c0,8.8-0.8,325.6-0.8,325.6
				l-0.1,34.7l-31-15.6c-18.2-9.2-32.5-34-36.4-41.4l-1.1-2.3l-180.9-469H875L677.5,584l-41.5-7.6v-98.7H526.6
				c-11.4,19.8-38.6,52.1-94.7,52.1c-72.5,0-152.7-56.4-157.5-180.4c-2.6-67.9,35.9-112.4,69.6-129.8c25.2-13,50.2-13.1,67.1-0.2
				c18.2,13.9,22.7,30.1,23.3,41.2c0.8,13.5-3.8,25.8-9.2,35.4l85,58.5l155.8-165.2c-24.4-37.6-108.2-143.9-278-143.9
				c-203.1,0-344.9,137.3-344.9,333.8c0,180.5,164.9,321.9,375.4,321.9h1166.9v-105c-20.6-7-38.1-20.3-38.1-40.9
				c0-13.4,5.3-30.6,30.3-36.2c108.2-24.4,202.3-89.9,224.3-111l27-25.9l8.7,36.4c41.8,174.4,188.8,282.7,383.8,282.7h195.3V548.2z"
				/>
		</g>
	</g>
</g>
</svg>
