<?xml version="1.0" encoding="utf-8"?>
<!-- Generator: Adobe Illustrator 25.4.1, SVG Export Plug-In . SVG Version: 6.00 Build 0)  -->
<svg version="1.1" id="Layer_1" xmlns="http://www.w3.org/2000/svg" xmlns:xlink="http://www.w3.org/1999/xlink" x="0px" y="0px"
	 viewBox="0 0 3839 458.2" style="enable-background:new 0 0 3839 458.2;" xml:space="preserve">
<style type="text/css">
	.st0{fill:#FFFFFF;}
	.st1{fill:#7B9A99;}
	.st2{fill:url(#SVGID_1_);}
	.st3{clip-path:url(#SVGID_00000036214629007143435390000008847932880827039361_);}
	.st4{fill:#606161;}
	.st5{clip-path:url(#SVGID_00000108281420095873499160000012881921011652361403_);}
	.st6{clip-path:url(#SVGID_00000070840673303297812740000003681018937813365435_);}
	.st7{fill:url(#SVGID_00000132069699256131200330000011401593247005008304_);}
	.st8{fill:url(#SVGID_00000035510429388901179650000000994157740598631825_);}
	.st9{fill:url(#SVGID_00000060029079691757237290000017759771786287809158_);}
	.st10{fill:url(#SVGID_00000063602205097302698310000000676270858596768436_);}
	.st11{fill:#F58746;}
	.st12{fill:url(#SVGID_00000075869532879782131580000000667389925429462156_);}
	.st13{fill:url(#SVGID_00000119078242339363169970000000588623065269668508_);}
	.st14{fill:url(#SVGID_00000131342834936555389400000000333089486164988306_);}
	.st15{fill:url(#SVGID_00000147908919692691086910000014622819418849340083_);}
	.st16{fill:url(#SVGID_00000006689491613791951930000010316371803082831280_);}
	.st17{fill:url(#SVGID_00000031178744177795496700000014147740733844847509_);}
	.st18{fill:url(#SVGID_00000048494868339060310160000001069529039397561511_);}
	.st19{fill:url(#SVGID_00000075147669631751747360000007108022206118374789_);}
	.st20{fill:url(#SVGID_00000107561102459954613390000005720173433355382405_);}
	.st21{fill:url(#SVGID_00000061453087384839166180000000864637619594147978_);}
	.st22{fill:url(#SVGID_00000102512718856020778030000014069390184745284484_);}
	.st23{fill:url(#SVGID_00000181062620450142858810000012615450086273612168_);}
	.st24{opacity:0.25;fill:url(#SVGID_00000081647548271475604090000004373148124535814045_);}
	.st25{fill:url(#SVGID_00000035516476404113994610000000680913715175537568_);}
	.st26{fill:url(#SVGID_00000120546775402116992010000011617174333923775911_);}
	.st27{fill:url(#SVGID_00000181789772836135926650000006981793373198045107_);}
	.st28{fill:url(#SVGID_00000054981895408399969830000010676872082184422036_);}
	.st29{fill:url(#SVGID_00000116921190446898555500000009550655298121712535_);}
	.st30{fill:url(#SVGID_00000130615830072274463400000001149902139193089215_);}
	.st31{fill:url(#SVGID_00000032645570931515057810000002507539998001966763_);}
	.st32{fill:url(#SVGID_00000145739718150456267310000007080245066896029119_);}
	.st33{fill:url(#SVGID_00000170244024269587036980000003773861528652567202_);}
	.st34{fill:url(#SVGID_00000093151717010017837100000012386184068618954166_);}
	.st35{fill:url(#SVGID_00000134954133809813677150000013541676941223306369_);}
	.st36{fill:url(#SVGID_00000065789134600301310820000007840851531350177983_);}
	.st37{fill:url(#SVGID_00000139278545771868731980000005142815089725039008_);}
	.st38{fill:url(#SVGID_00000183930020019357573070000008524677498436548791_);}
	.st39{fill:url(#SVGID_00000138539850876487173050000011776189349700610178_);}
	.st40{opacity:0.25;fill:url(#SVGID_00000124153481306744814890000013668581113876956851_);}
	.st41{fill:url(#SVGID_00000075137942467047865800000007470857724953917103_);}
	.st42{fill:url(#SVGID_00000080180968085393799970000016802602138253821841_);}
	.st43{fill:url(#SVGID_00000029737138230784945390000017940245580614964157_);}
	.st44{fill:url(#SVGID_00000124853661913273252460000013230718387604022437_);}
	.st45{fill:url(#SVGID_00000179629839022118446530000008302768138090112915_);}
	.st46{fill:url(#SVGID_00000017486441950812083270000004087284066338215814_);}
	.st47{fill:url(#SVGID_00000089531616586895045270000012462569707894949270_);}
	.st48{fill:url(#SVGID_00000172428612919993148420000008286338697917106318_);}
	.st49{clip-path:url(#SVGID_00000125573503665219693080000016826597266775972014_);}
	.st50{clip-path:url(#SVGID_00000018214809866309201140000003634882466336619188_);}
	.st51{clip-path:url(#SVGID_00000041998723425723470790000011341981839235566489_);}
	.st52{fill:url(#SVGID_00000055692793379752825710000012017868640259988657_);}
	.st53{fill:url(#SVGID_00000059304113385719918710000011331733395384179869_);}
	.st54{fill:url(#SVGID_00000025410731341639949460000005752604170872283309_);}
	.st55{fill:url(#SVGID_00000031200057993728872150000017959207767425578372_);}
	.st56{fill:url(#SVGID_00000155855286022979833100000014547538580818956430_);}
	.st57{fill:url(#SVGID_00000088096719401067787350000001977845955647371136_);}
	.st58{fill:url(#SVGID_00000085232470588223730180000003347980777982739110_);}
	.st59{clip-path:url(#SVGID_00000013914561658745528360000010418023859364830638_);}
	.st60{clip-path:url(#SVGID_00000065772640949574167640000016574924090104381827_);}
	.st61{clip-path:url(#SVGID_00000038400605088524318810000010644510072106655908_);}
	.st62{fill:url(#SVGID_00000089537703062023858200000006364734318254416546_);}
	.st63{clip-path:url(#SVGID_00000109713194011559212200000014936829711726879387_);}
	.st64{clip-path:url(#SVGID_00000001658279543853777190000015864536573366834060_);}
	.st65{clip-path:url(#SVGID_00000165212500461073402110000017773869372036647590_);}
	.st66{fill:url(#SVGID_00000131366798707723141130000013499937214607431606_);}
	.st67{fill:url(#SVGID_00000160173804682906039090000012246520388939821986_);}
	.st68{fill:url(#SVGID_00000069386760268949754470000009115221289965311370_);}
	.st69{fill:url(#SVGID_00000129915216426700902800000012943313990696142739_);}
	.st70{fill:url(#SVGID_00000133501905804342818970000008845508069584709020_);}
	.st71{fill:url(#SVGID_00000090256535746388908290000017930214571481822903_);}
	.st72{fill:url(#SVGID_00000145753094730642819080000000645373280600910735_);}
	.st73{fill:url(#SVGID_00000160909222456989790910000011247108740663016630_);}
	.st74{fill:url(#SVGID_00000025425369261902845340000005413766286378701449_);}
	.st75{fill:url(#SVGID_00000080194531289951590530000015754474568379775645_);}
	.st76{fill:url(#SVGID_00000182509679433919906430000000458144728026102955_);}
	.st77{fill:url(#SVGID_00000179646639065465698540000007788264106073100694_);}
	.st78{opacity:0.25;fill:url(#SVGID_00000006670775649424475760000000297028479388916908_);}
	.st79{fill:url(#SVGID_00000065785125399401966640000009034724854208090266_);}
	.st80{fill:url(#SVGID_00000089565906467812015370000009874999532186818194_);}
	.st81{fill:url(#SVGID_00000004529929958470794970000011366581216086411682_);}
	.st82{fill:url(#SVGID_00000008112011912427294000000005230761634915905945_);}
	.st83{fill:url(#SVGID_00000025413413017630077700000009404531787070751899_);}
	.st84{fill:url(#SVGID_00000002380476549285201760000012919773687587016070_);}
	.st85{fill:url(#SVGID_00000003804719201666459920000007425796550046867102_);}
	.st86{fill:url(#SVGID_00000117668413144864398000000002825855200002391449_);}
	.st87{fill:url(#SVGID_00000030487253714351091480000001410969049014360745_);}
	.st88{fill:url(#SVGID_00000056421541620514167040000015016411871442240189_);}
	.st89{fill:url(#SVGID_00000108275788996044648940000011310889154025140618_);}
	.st90{fill:url(#SVGID_00000069356983985155439840000009567611936463862192_);}
	.st91{fill:url(#SVGID_00000154395351262510955870000000118959792933900180_);}
	.st92{fill:url(#SVGID_00000122678488445482247010000000083778060479240375_);}
	.st93{fill:url(#SVGID_00000173132716488339057720000009468080699313798333_);}
	.st94{opacity:0.25;fill:url(#SVGID_00000057128067292108114490000003537192332050038952_);}
	.st95{fill:url(#SVGID_00000105421140383772603100000001613159314286171525_);}
	.st96{fill:url(#SVGID_00000041279065106006783950000000493588459278411450_);}
	.st97{fill:url(#SVGID_00000130610140885324967400000003052206852156050356_);}
	.st98{fill:url(#SVGID_00000133522922979970228480000005803630523441066121_);}
	.st99{fill:url(#SVGID_00000044138298046968709750000007918053229440712868_);}
	.st100{fill:url(#SVGID_00000136374659925378985160000011177252720857428628_);}
	.st101{fill:url(#SVGID_00000117658698008907519060000009133432689087655598_);}
	.st102{fill:url(#SVGID_00000057860327727033856690000011291199179693336255_);}
	.st103{fill:url(#SVGID_00000142867159083792115820000002446625516302713230_);}
	.st104{fill:url(#SVGID_00000109727503208979634310000016691511110401641107_);}
	.st105{fill:url(#SVGID_00000108294596779356290650000016136447449801721245_);}
	.st106{fill:url(#SVGID_00000168100348534865993950000015009054684428681611_);}
	.st107{fill:url(#SVGID_00000080915745145120827020000014192623767313948330_);}
	.st108{fill:url(#SVGID_00000158023841436029034170000004895752391843944834_);}
	.st109{fill:url(#SVGID_00000094608655298975903430000006241344296448428729_);}
	.st110{fill:url(#SVGID_00000056417300678521577760000015053973531131178113_);}
	.st111{fill:url(#SVGID_00000093169089269787230790000012367636810202793362_);}
	.st112{opacity:0.25;fill:url(#SVGID_00000105384242706195871360000006591023811020611263_);}
	.st113{fill:url(#SVGID_00000098941786554690624230000013176446642685368246_);}
	.st114{fill:url(#SVGID_00000181079806298274052000000003009378700160419259_);}
	.st115{fill:url(#SVGID_00000182505216500796584330000003136391871692278693_);}
	.st116{fill:url(#SVGID_00000134938915031514360640000007539032237736704442_);}
	.st117{fill:url(#SVGID_00000003815889377837291230000012158903372451841153_);}
	.st118{fill:url(#SVGID_00000076564655319892460800000016220871199593113734_);}
	.st119{fill:url(#SVGID_00000055690863115287536150000005854686522349367435_);}
	.st120{fill:url(#SVGID_00000127005384979814919070000010007913877519081149_);}
	.st121{fill:url(#SVGID_00000014611113602577533720000016833982402539286402_);}
	.st122{fill:url(#SVGID_00000161618352353143518040000011386696336341831581_);}
	.st123{fill:url(#SVGID_00000022544718275085250580000003374633572550600602_);}
	.st124{fill:url(#SVGID_00000034064899951536472800000013682260462747022492_);}
	.st125{fill:url(#SVGID_00000145772286004798145580000014763397272966869646_);}
	.st126{fill:url(#SVGID_00000128467292363719215880000002670050531596629657_);}
	.st127{fill:url(#SVGID_00000152238463089951685530000006268501131325589436_);}
	.st128{opacity:0.25;fill:url(#SVGID_00000121246887033512270250000009650703642211743619_);}
	.st129{fill:url(#SVGID_00000010309197288119660310000013295714630718180020_);}
	.st130{fill:url(#SVGID_00000005226222284497344480000009059701494406424243_);}
	.st131{fill:url(#SVGID_00000144299612618039248950000006107162333259597701_);}
	.st132{fill:url(#SVGID_00000078025071845283260660000007495594501805365387_);}
	.st133{fill:url(#SVGID_00000100340836876618511720000008448509197886250902_);}
	.st134{fill:url(#SVGID_00000150101115217672118180000006498032628671362476_);}
	.st135{fill:url(#SVGID_00000113339411311263132150000016458688618673584263_);}
	.st136{fill:url(#SVGID_00000127736747470155274160000006501051290965893804_);}
	.st137{fill:url(#SVGID_00000137816491860857989720000010683827178281643664_);}
</style>
<g>
	<g>
		<g>
			<path d="M686.9,117h169.3v44.5H735.8v47.3h106.1v44.5H735.8v86.1h-48.9V117z"/>
			<path d="M889.5,117h48.9v222.3h-48.9V117z"/>
			<path d="M986,117h45.1l104.2,136.9V117h48.3v222.3H1142L1034.3,198v141.3H986V117z"/>
			<path d="M1305.2,115.4h45.1l95.3,223.9h-51.1l-20.3-49.9h-94l-20.3,49.9h-49.9L1305.2,115.4z M1356.6,246.3l-29.5-72.1
				l-29.5,72.1H1356.6z"/>
			<path d="M1471.9,117h48.9v177.8h110.8v44.5h-159.7V117z"/>
			<path d="M1747.9,117h103.2c25.4,0,45.4,7,58.1,19.7c10.2,10.2,15.2,22.5,15.2,37.8v0.6c0,25.1-13.3,39.1-29.2,48
				c25.7,9.8,41.6,24.8,41.6,54.6v0.6c0,40.6-33,61-83.2,61h-105.8V117z M1840.6,206.9c21.6,0,35.2-7,35.2-23.5v-0.6
				c0-14.6-11.4-22.9-32.1-22.9h-48.3v47H1840.6z M1853.6,296.4c21.6,0,34.6-7.6,34.6-24.1v-0.6c0-14.9-11.1-24.1-36.2-24.1h-56.5
				v48.9H1853.6z"/>
			<path d="M1965.7,244V117h48.9v125.8c0,36.2,18.1,54.9,48,54.9s48-18.1,48-53.4V117h48.9v125.4c0,67.3-37.8,100.4-97.5,100.4
				C2002.2,342.8,1965.7,309.5,1965.7,244z"/>
			<path d="M2201.3,117H2303c28.3,0,50.2,7.9,64.8,22.5c12.4,12.4,19.1,29.9,19.1,50.8v0.6c0,35.9-19.4,58.4-47.6,68.9l54.3,79.4
				h-57.2l-47.6-71.1h-38.4v71.1h-48.9V117z M2299.8,225c23.8,0,37.5-12.7,37.5-31.4v-0.6c0-21-14.6-31.8-38.4-31.8h-48.6V225
				H2299.8z"/>
			<path d="M2423,117h45.1l104.2,136.9V117h48.3v222.3h-41.6L2471.3,198v141.3H2423V117z"/>
			<path d="M2829.5,115.4h45.1l95.3,223.9h-51.1l-20.3-49.9h-94l-20.3,49.9h-49.9L2829.5,115.4z M2880.9,246.3l-29.5-72.1
				l-29.5,72.1H2880.9z"/>
			<path d="M2996.2,117h48.9v177.8h110.8v44.5h-159.7V117z"/>
			<path d="M3184.8,117h90.8c53,0,85.1,31.4,85.1,76.9v0.6c0,51.4-40,78.1-89.9,78.1h-37.2v66.7h-48.9V117z M3272.5,229.1
				c24.5,0,38.7-14.6,38.7-33.7v-0.6c0-21.9-15.2-33.7-39.7-33.7h-37.8v68H3272.5z"/>
			<path d="M3389,117h48.9v88h90.2v-88h48.9v222.3h-48.9v-89.2h-90.2v89.2H3389V117z"/>
			<path d="M3698.6,115.4h45.1l95.3,223.9h-51.1l-20.3-49.9h-94l-20.3,49.9h-49.9L3698.6,115.4z M3750.1,246.3l-29.5-72.1
				l-29.5,72.1H3750.1z"/>
		</g>
	</g>
	<g>
		<g>
			<g>
				<g>
					<linearGradient id="SVGID_1_" gradientUnits="userSpaceOnUse" x1="46.3914" y1="387.4956" x2="458.707" y2="-24.82">
						<stop  offset="0" style="stop-color:#F2703E"/>
						<stop  offset="1" style="stop-color:#F89D48"/>
					</linearGradient>
					<path class="st2" d="M433.7,0H0v58.4l352.8,124.1H554v-62.3C554,53.8,500.1,0,433.7,0z M336.7,193l-152-53.4v218.2L117.1,382
						v76.2h268.6V330h-49V193z M352.8,313.8H554V198.7H352.8V313.8z"/>
				</g>
			</g>
			<g>
				
					<linearGradient id="SVGID_00000040571983448707499690000013046316980417207459_" gradientUnits="userSpaceOnUse" x1="0" y1="91.2677" x2="553.9535" y2="91.2677">
					<stop  offset="0" style="stop-color:#F6944A;stop-opacity:0"/>
					<stop  offset="1" style="stop-color:#FBC090"/>
				</linearGradient>
				<path style="fill:url(#SVGID_00000040571983448707499690000013046316980417207459_);" d="M433.7,9.3
					c61.1,0,110.9,49.7,110.9,110.9v53H354.4L9.3,51.8V9.3H433.7 M433.7,0H0v58.4l352.8,124.1H554v-62.3C554,53.8,500.1,0,433.7,0
					L433.7,0z"/>
				<g>
					
						<linearGradient id="SVGID_00000155869347682436812960000013599949139399167887_" gradientUnits="userSpaceOnUse" x1="121.4919" y1="462.5957" x2="363.893" y2="220.1946">
						<stop  offset="0" style="stop-color:#F6944A;stop-opacity:0"/>
						<stop  offset="1" style="stop-color:#FBC090"/>
					</linearGradient>
					<path style="fill:url(#SVGID_00000155869347682436812960000013599949139399167887_);" d="M194.1,152.8l133.3,46.9V330v9.3h9.3
						h39.6v109.6H126.5v-60.3l61.4-22l6.2-2.2v-6.6V152.8 M184.7,139.6v218.2L117.1,382v76.2h268.6V330h-49V193L184.7,139.6
						L184.7,139.6z"/>
				</g>
				<g>
					
						<linearGradient id="SVGID_00000071552608662232845040000011899850393197329843_" gradientUnits="userSpaceOnUse" x1="374.3347" y1="335.3123" x2="532.4611" y2="177.186">
						<stop  offset="0" style="stop-color:#F6944A;stop-opacity:0"/>
						<stop  offset="1" style="stop-color:#FBC090"/>
					</linearGradient>
					<path style="fill:url(#SVGID_00000071552608662232845040000011899850393197329843_);" d="M544.6,208v96.4H362.2V208H544.6
						 M554,198.7H352.8v115.1H554V198.7L554,198.7z"/>
				</g>
			</g>
		</g>
		
			<linearGradient id="SVGID_00000152239807400471222010000004073665225098994860_" gradientUnits="userSpaceOnUse" x1="352.8423" y1="177.8605" x2="553.9535" y2="177.8605">
			<stop  offset="0" style="stop-color:#E65726"/>
			<stop  offset="1" style="stop-color:#F26F48"/>
		</linearGradient>
		<polygon style="fill:url(#SVGID_00000152239807400471222010000004073665225098994860_);" points="554,182.5 544.6,173.2 
			354.4,173.2 352.8,182.5 		"/>
		
			<linearGradient id="SVGID_00000119796556105081787600000014819617097293766534_" gradientUnits="userSpaceOnUse" x1="403.1201" y1="364.0978" x2="503.6758" y2="263.5421">
			<stop  offset="0" style="stop-color:#E65726"/>
			<stop  offset="1" style="stop-color:#F26F48"/>
		</linearGradient>
		<polygon style="fill:url(#SVGID_00000119796556105081787600000014819617097293766534_);" points="362.2,304.5 352.8,313.8 
			554,313.8 544.6,304.5 		"/>
		
			<linearGradient id="SVGID_00000142175088834063370560000015854448368694142102_" gradientUnits="userSpaceOnUse" x1="184.2517" y1="525.3559" x2="318.5299" y2="391.0778">
			<stop  offset="0" style="stop-color:#E65726"/>
			<stop  offset="1" style="stop-color:#F27247"/>
		</linearGradient>
		<polygon style="fill:url(#SVGID_00000142175088834063370560000015854448368694142102_);" points="117.1,458.2 126.5,448.9 
			376.3,448.9 385.7,458.2 		"/>
		
			<linearGradient id="SVGID_00000040554162354561270680000014650319382200775084_" gradientUnits="userSpaceOnUse" x1="98.0546" y1="439.1588" x2="137.5552" y2="399.6583">
			<stop  offset="0" style="stop-color:#E65726"/>
			<stop  offset="1" style="stop-color:#F26F48"/>
		</linearGradient>
		<polygon style="fill:url(#SVGID_00000040554162354561270680000014650319382200775084_);" points="117.1,382 126.5,388.6 
			126.5,448.9 117.1,458.2 		"/>
		
			<linearGradient id="SVGID_00000007429968293819638940000012502240146420821662_" gradientUnits="userSpaceOnUse" x1="131.9434" y1="396.8151" x2="179.2567" y2="349.5017">
			<stop  offset="0" style="stop-color:#F2703E"/>
			<stop  offset="1" style="stop-color:#F89D48"/>
		</linearGradient>
		<polyline style="opacity:0.25;fill:url(#SVGID_00000007429968293819638940000012502240146420821662_);" points="184.7,357.8 
			194.1,364.3 126.5,388.6 117.1,382 		"/>
		
			<linearGradient id="SVGID_00000039136005708479678570000010034806373145527694_" gradientUnits="userSpaceOnUse" x1="134.1706" y1="307.1843" x2="243.2701" y2="198.0848">
			<stop  offset="0" style="stop-color:#E65726"/>
			<stop  offset="1" style="stop-color:#F26F48"/>
		</linearGradient>
		<polygon style="fill:url(#SVGID_00000039136005708479678570000010034806373145527694_);" points="184.7,139.6 184.7,357.8 
			194.1,364.3 194.1,152.8 		"/>
		
			<linearGradient id="SVGID_00000155104739695323135530000000042311359004159888_" gradientUnits="userSpaceOnUse" x1="119.2377" y1="177.6649" x2="239.0778" y2="57.8247">
			<stop  offset="0" style="stop-color:#E65726"/>
			<stop  offset="1" style="stop-color:#F27247"/>
		</linearGradient>
		<polygon style="fill:url(#SVGID_00000155104739695323135530000000042311359004159888_);" points="9.3,51.8 0,58.4 352.8,182.5 
			354.4,173.2 		"/>
		
			<linearGradient id="SVGID_00000107553406214052169240000015753010499153564581_" gradientUnits="userSpaceOnUse" x1="324.0569" y1="285.0347" x2="381.6277" y2="227.4638">
			<stop  offset="0" style="stop-color:#E65726"/>
			<stop  offset="1" style="stop-color:#F26F48"/>
		</linearGradient>
		<polygon style="fill:url(#SVGID_00000107553406214052169240000015753010499153564581_);" points="352.8,198.7 352.8,313.8 
			362.2,304.5 362.2,208 		"/>
		
			<linearGradient id="SVGID_00000074408788700151928870000001912953334877965484_" gradientUnits="userSpaceOnUse" x1="-13.9249" y1="44.5023" x2="15.2887" y2="15.2887">
			<stop  offset="0" style="stop-color:#E65726"/>
			<stop  offset="1" style="stop-color:#F27247"/>
		</linearGradient>
		<polygon style="fill:url(#SVGID_00000074408788700151928870000001912953334877965484_);" points="0,0 0,58.4 9.3,51.8 9.3,9.3 		
			"/>
		
			<linearGradient id="SVGID_00000178196369645140000980000001051639643493990837_" gradientUnits="userSpaceOnUse" x1="327.3497" y1="334.6378" x2="385.6689" y2="334.6378">
			<stop  offset="0" style="stop-color:#FBC090;stop-opacity:0.5"/>
			<stop  offset="1" style="stop-color:#FBC090"/>
		</linearGradient>
		<polygon style="fill:url(#SVGID_00000178196369645140000980000001051639643493990837_);" points="336.7,330 327.3,339.3 
			376.3,339.3 385.7,330 		"/>
		
			<linearGradient id="SVGID_00000167364306643641096430000012076115381795848116_" gradientUnits="userSpaceOnUse" x1="403.1201" y1="248.9565" x2="503.6758" y2="148.4008">
			<stop  offset="0" style="stop-color:#FBC090;stop-opacity:0"/>
			<stop  offset="1" style="stop-color:#FBC090"/>
		</linearGradient>
		<polygon style="fill:url(#SVGID_00000167364306643641096430000012076115381795848116_);" points="544.6,208 554,198.7 
			352.8,198.7 362.2,208 		"/>
		
			<linearGradient id="SVGID_00000003790990577998032420000002411337917053138841_" gradientUnits="userSpaceOnUse" x1="234.165" y1="192.8299" x2="285.3466" y2="141.6483">
			<stop  offset="0" style="stop-color:#F2703E;stop-opacity:0.5"/>
			<stop  offset="1" style="stop-color:#F89D48;stop-opacity:0.2"/>
		</linearGradient>
		<polygon style="fill:url(#SVGID_00000003790990577998032420000002411337917053138841_);" points="327.3,199.6 336.7,193 
			184.7,139.6 194.1,152.8 		"/>
	</g>
</g>
</svg>
