<?xml version="1.0" encoding="utf-8"?>
<!-- Generator: Adobe Illustrator 25.4.1, SVG Export Plug-In . SVG Version: 6.00 Build 0)  -->
<svg version="1.1" id="Layer_1" xmlns="http://www.w3.org/2000/svg" xmlns:xlink="http://www.w3.org/1999/xlink" x="0px" y="0px"
	 viewBox="0 0 3839 802" style="enable-background:new 0 0 3839 802;" xml:space="preserve">
<style type="text/css">
	.st0{fill:#FFFFFF;}
	.st1{fill:#7B9A99;}
	.st2{fill:url(#SVGID_1_);}
	.st3{clip-path:url(#SVGID_00000019655203906203339630000006807241376700538006_);}
	.st4{fill:#606161;}
	.st5{clip-path:url(#SVGID_00000128452231823125099160000005365437793412479384_);}
	.st6{clip-path:url(#SVGID_00000105416320247226556650000005147448899639959453_);}
	.st7{fill:url(#SVGID_00000162315050144195041960000017363725100687833483_);}
	.st8{fill:url(#SVGID_00000029760733035936871420000016091500575549174711_);}
	.st9{fill:url(#SVGID_00000057131405370511570520000006593360723971424421_);}
	.st10{fill:url(#SVGID_00000174591992541899639940000003095961137352424628_);}
	.st11{fill:#F58746;}
	.st12{fill:url(#SVGID_00000072965158192607354380000010623513409458159273_);}
	.st13{fill:url(#SVGID_00000045598885361405296710000015506077209878135221_);}
	.st14{fill:url(#SVGID_00000047772969727310823360000002992580777495868561_);}
	.st15{fill:url(#SVGID_00000125599883072339554480000006219441796951228582_);}
	.st16{fill:url(#SVGID_00000133526676783311275080000006418172442607676838_);}
	.st17{fill:url(#SVGID_00000075882894384391347470000003279179826234812071_);}
	.st18{fill:url(#SVGID_00000018228574635147345570000005545463358294573993_);}
	.st19{fill:url(#SVGID_00000089533698790913430410000001105075452416765356_);}
	.st20{fill:url(#SVGID_00000155837920418114982070000013167116865793507756_);}
	.st21{fill:url(#SVGID_00000176007472534678613810000017224539980235193746_);}
	.st22{fill:url(#SVGID_00000163052659054808505320000002025985511334127241_);}
	.st23{fill:url(#SVGID_00000064350989861358505990000012290508280231331256_);}
	.st24{opacity:0.25;fill:url(#SVGID_00000157270121126226134570000017271106453565041326_);}
	.st25{fill:url(#SVGID_00000165917428232024242300000008160206587813846966_);}
	.st26{fill:url(#SVGID_00000057868284869686289380000015270432982191088305_);}
	.st27{fill:url(#SVGID_00000059270235139305984520000002145127404067180938_);}
	.st28{fill:url(#SVGID_00000042009609176791350480000005684278686847921794_);}
	.st29{fill:url(#SVGID_00000126285035926991533780000011596239944786935725_);}
	.st30{fill:url(#SVGID_00000132075924996697372380000005693433915089016747_);}
	.st31{fill:url(#SVGID_00000085251379218213317860000004302791651643634354_);}
	.st32{fill:url(#SVGID_00000106863913197918464020000013147042061338345357_);}
	.st33{fill:url(#SVGID_00000016044216830501615860000005140868373616339870_);}
	.st34{fill:url(#SVGID_00000033340914143147275710000017266678963618864289_);}
	.st35{fill:url(#SVGID_00000141420681252260595460000011492811471473062289_);}
	.st36{fill:url(#SVGID_00000096753552752165016010000008915246712298491793_);}
	.st37{fill:url(#SVGID_00000164491840105479358260000014276885636491713950_);}
	.st38{fill:url(#SVGID_00000079486979558695097120000001800710008747071919_);}
	.st39{fill:url(#SVGID_00000009555732626795606080000014853866629149118132_);}
	.st40{opacity:0.25;fill:url(#SVGID_00000034058997791367812590000002276551940492210352_);}
	.st41{fill:url(#SVGID_00000164502712819121047780000005949579999203992463_);}
	.st42{fill:url(#SVGID_00000093148790948938043200000013091467253971601805_);}
	.st43{fill:url(#SVGID_00000074399676928859454150000013265644447471217538_);}
	.st44{fill:url(#SVGID_00000109713221909551438920000015613621917455834788_);}
	.st45{fill:url(#SVGID_00000181777113596051690910000009640939755674612126_);}
	.st46{fill:url(#SVGID_00000118377813298778819840000006406860123938897562_);}
	.st47{fill:url(#SVGID_00000018919627292536806630000004573069866205573308_);}
	.st48{fill:url(#SVGID_00000026875183302969218620000002853934293257675666_);}
	.st49{clip-path:url(#SVGID_00000026852597384517537530000012457719072340298113_);}
	.st50{clip-path:url(#SVGID_00000098217491511661258000000004478629504755958434_);}
	.st51{clip-path:url(#SVGID_00000152242954396192532030000010300148314156438702_);}
	.st52{fill:url(#SVGID_00000060015346650998048320000002462698368952408249_);}
	.st53{fill:url(#SVGID_00000029736130259940490250000006912578069791710365_);}
	.st54{fill:url(#SVGID_00000140720200857277490990000000774775430760735131_);}
	.st55{fill:url(#SVGID_00000145044667914417351530000005290300050221118640_);}
	.st56{fill:url(#SVGID_00000046341405650633127510000015061104916260440976_);}
	.st57{fill:url(#SVGID_00000160166791441705284700000016892436313597570717_);}
	.st58{fill:url(#SVGID_00000081611184093901194680000011896692047828055429_);}
	.st59{clip-path:url(#SVGID_00000165927535755425546600000003000544797678058893_);}
	.st60{clip-path:url(#SVGID_00000032647344052641037860000001731201688052605830_);}
	.st61{clip-path:url(#SVGID_00000167383813855500541350000012944792807257107387_);}
	.st62{fill:url(#SVGID_00000027598988012255202340000002362718977083672497_);}
	.st63{clip-path:url(#SVGID_00000077299002207454115960000017333576665357541273_);}
	.st64{clip-path:url(#SVGID_00000037681832822823082560000003230381120545432984_);}
	.st65{clip-path:url(#SVGID_00000003073120359900295870000011627241745132764327_);}
	.st66{fill:url(#SVGID_00000040544780056864579730000015699518168382189706_);}
	.st67{fill:url(#SVGID_00000002355860915247787110000016989402041705277838_);}
	.st68{fill:url(#SVGID_00000060023296425792372900000010884149795897990792_);}
	.st69{fill:url(#SVGID_00000032649569018750710950000016971804801891376005_);}
	.st70{fill:url(#SVGID_00000081644749978069141360000014098041956204433581_);}
	.st71{fill:url(#SVGID_00000131360094960916382430000000045784020491512736_);}
	.st72{fill:url(#SVGID_00000079462703402794001510000006508266048218701709_);}
	.st73{fill:url(#SVGID_00000147930256269974844930000008501482176399268784_);}
	.st74{fill:url(#SVGID_00000162320586773418320740000008129640558215771039_);}
	.st75{fill:url(#SVGID_00000078740145590401758730000000538259435197310903_);}
	.st76{fill:url(#SVGID_00000074428156267745022180000018332876788549023677_);}
	.st77{fill:url(#SVGID_00000020398130257239702000000013950190388168453794_);}
	.st78{opacity:0.25;fill:url(#SVGID_00000173854517030313177120000003885895351669041336_);}
	.st79{fill:url(#SVGID_00000162353800489748159160000008913279784541393551_);}
	.st80{fill:url(#SVGID_00000048484308231200543260000004668699618551835802_);}
	.st81{fill:url(#SVGID_00000136407563042147091430000015241871843514195601_);}
	.st82{fill:url(#SVGID_00000121967376571374133810000018386247376898929341_);}
	.st83{fill:url(#SVGID_00000003083374611276573770000016946423153777352120_);}
	.st84{fill:url(#SVGID_00000164479691617612594030000002321716980469143467_);}
	.st85{fill:url(#SVGID_00000143592170875339135040000005366855624794925756_);}
	.st86{fill:url(#SVGID_00000062160207643017326520000000372252638695511471_);}
	.st87{fill:url(#SVGID_00000029737469766916716640000012217592289995611534_);}
	.st88{fill:url(#SVGID_00000036238710217111962880000007231390883867054512_);}
	.st89{fill:url(#SVGID_00000077307080179111213420000004044656852101537194_);}
	.st90{fill:url(#SVGID_00000120542818275329387290000008089800663493884563_);}
	.st91{fill:url(#SVGID_00000125594413969663066130000005214733745001672366_);}
	.st92{fill:url(#SVGID_00000057119268327263643770000003164054973645058997_);}
	.st93{fill:url(#SVGID_00000104665685353424055970000012127511981090828954_);}
	.st94{opacity:0.25;fill:url(#SVGID_00000021809950755302818100000014463085940888912811_);}
	.st95{fill:url(#SVGID_00000065057108094817318920000000594676482676920974_);}
	.st96{fill:url(#SVGID_00000098941504862291606910000002157283208198989213_);}
	.st97{fill:url(#SVGID_00000088840471518377569840000015503446942325510050_);}
	.st98{fill:url(#SVGID_00000036227159221273010850000010324957870270360448_);}
	.st99{fill:url(#SVGID_00000179645800950517154720000010207902400668025752_);}
	.st100{fill:url(#SVGID_00000085208431810628495230000006521392872916898237_);}
	.st101{fill:url(#SVGID_00000164504552370569816450000015100441468624233104_);}
	.st102{fill:url(#SVGID_00000137840222551778783920000015977217404596890780_);}
	.st103{fill:url(#SVGID_00000083079323213532669150000003164532565351783044_);}
	.st104{fill:url(#SVGID_00000101097423352995671910000006911524323315850687_);}
	.st105{fill:url(#SVGID_00000077317311918052700160000016639017959945464989_);}
	.st106{fill:url(#SVGID_00000031905087148160804620000012242820782465532809_);}
	.st107{fill:url(#SVGID_00000159440549328805876710000011813840941191383175_);}
	.st108{fill:url(#SVGID_00000178197479619021029900000004948681952159491240_);}
	.st109{fill:url(#SVGID_00000017475380327574157810000004372026276465846200_);}
	.st110{fill:url(#SVGID_00000035501107033533476370000000146347339891409568_);}
	.st111{fill:url(#SVGID_00000013900291116883635160000017829384410723014585_);}
	.st112{opacity:0.25;fill:url(#SVGID_00000068670740689698598460000013114735789149749137_);}
	.st113{fill:url(#SVGID_00000132766761938847409850000015228912913958536322_);}
	.st114{fill:url(#SVGID_00000094589098882876284970000018056788937236015535_);}
	.st115{fill:url(#SVGID_00000114058711434146333040000004929156761598300339_);}
	.st116{fill:url(#SVGID_00000109002179291515532580000000173842294592753343_);}
	.st117{fill:url(#SVGID_00000093134843393530528400000015629103845995608999_);}
	.st118{fill:url(#SVGID_00000008855177579963822800000007912358409914156219_);}
	.st119{fill:url(#SVGID_00000083805928927668248570000009412003265073983666_);}
	.st120{fill:url(#SVGID_00000170989108630445272850000018282781532604772521_);}
	.st121{fill:url(#SVGID_00000037670017241096201740000010015709161480859797_);}
	.st122{fill:url(#SVGID_00000062151605364298527510000002863242752159655814_);}
	.st123{fill:url(#SVGID_00000063621549591534082990000001809189748516649385_);}
	.st124{fill:url(#SVGID_00000158738350730760773600000002080548671953128320_);}
	.st125{fill:url(#SVGID_00000072962820991679409290000003247832148967006143_);}
	.st126{fill:url(#SVGID_00000167382071786347996120000000192353578789281977_);}
	.st127{fill:url(#SVGID_00000127740615509571930100000011610780615363579808_);}
	.st128{opacity:0.25;fill:url(#SVGID_00000052808907558320718770000004127616015412066455_);}
	.st129{fill:url(#SVGID_00000156582355513650656440000015011364190588547480_);}
	.st130{fill:url(#SVGID_00000115476944311169190880000004208293277931438487_);}
	.st131{fill:url(#SVGID_00000014598429841718322910000014574325099510535044_);}
	.st132{fill:url(#SVGID_00000125599918587073221040000009321138208578352521_);}
	.st133{fill:url(#SVGID_00000178906947450470824950000007601677642525556654_);}
	.st134{fill:url(#SVGID_00000013182977858635440660000015548535063118966459_);}
	.st135{fill:url(#SVGID_00000072258642660791161920000008222783911532858302_);}
	.st136{fill:url(#SVGID_00000065771735172845069250000008110037318220293040_);}
	.st137{fill:url(#SVGID_00000145036938124045889260000010333580645396919961_);}
</style>
<g>
	<g>
		<g>
			<g>
				<linearGradient id="SVGID_1_" gradientUnits="userSpaceOnUse" x1="81.2004" y1="678.2456" x2="802.8892" y2="-43.4432">
					<stop  offset="0" style="stop-color:#F2703E"/>
					<stop  offset="1" style="stop-color:#F89D48"/>
				</linearGradient>
				<path class="st2" d="M759.2,0H0v102.3l617.6,217.2h352V210.4C969.6,94.2,875.4,0,759.2,0z M589.3,337.8l-266-93.6v381.9
					L205,668.6V802H675V577.5h-85.7V337.8z M617.6,549.3h352V347.8h-352V549.3z"/>
			</g>
		</g>
		<g>
			
				<linearGradient id="SVGID_00000181778977757867186880000001662582463705087124_" gradientUnits="userSpaceOnUse" x1="3.351961e-05" y1="159.7487" x2="969.6021" y2="159.7487">
				<stop  offset="0" style="stop-color:#F6944A;stop-opacity:0"/>
				<stop  offset="1" style="stop-color:#FBC090"/>
			</linearGradient>
			<path style="fill:url(#SVGID_00000181778977757867186880000001662582463705087124_);" d="M759.2,16.4
				c107,0,194.1,87.1,194.1,194.1v92.7H620.4L16.4,90.7V16.4H759.2 M759.2,0H0v102.3l617.6,217.2h352V210.4
				C969.6,94.2,875.4,0,759.2,0L759.2,0z"/>
			<g>
				
					<linearGradient id="SVGID_00000129195852885584602150000006510945680814743939_" gradientUnits="userSpaceOnUse" x1="212.6512" y1="809.6956" x2="636.9333" y2="385.4134">
					<stop  offset="0" style="stop-color:#F6944A;stop-opacity:0"/>
					<stop  offset="1" style="stop-color:#FBC090"/>
				</linearGradient>
				<path style="fill:url(#SVGID_00000129195852885584602150000006510945680814743939_);" d="M339.7,267.4l233.3,82v228.1v16.4h16.4
					h69.3v191.8H221.4V680.1l107.5-38.5l10.8-3.9v-11.5V267.4 M323.4,244.3v381.9L205,668.6V802H675V577.5h-85.7V337.8L323.4,244.3
					L323.4,244.3z"/>
			</g>
			<g>
				
					<linearGradient id="SVGID_00000116197696258283355260000002299429147208289675_" gradientUnits="userSpaceOnUse" x1="655.2098" y1="586.9076" x2="931.9832" y2="310.1342">
					<stop  offset="0" style="stop-color:#F6944A;stop-opacity:0"/>
					<stop  offset="1" style="stop-color:#FBC090"/>
				</linearGradient>
				<path style="fill:url(#SVGID_00000116197696258283355260000002299429147208289675_);" d="M953.2,364.1v168.8H634V364.1H953.2
					 M969.6,347.8h-352v201.5h352V347.8L969.6,347.8z"/>
			</g>
		</g>
	</g>
	
		<linearGradient id="SVGID_00000085956359588978081390000015691582978114684578_" gradientUnits="userSpaceOnUse" x1="617.5909" y1="311.3148" x2="969.6021" y2="311.3148">
		<stop  offset="0" style="stop-color:#E65726"/>
		<stop  offset="1" style="stop-color:#F26F48"/>
	</linearGradient>
	<polygon style="fill:url(#SVGID_00000085956359588978081390000015691582978114684578_);" points="969.6,319.5 953.2,303.1 
		620.4,303.1 617.6,319.5 	"/>
	
		<linearGradient id="SVGID_00000155106024024700733890000010045050655434511234_" gradientUnits="userSpaceOnUse" x1="705.5936" y1="637.2917" x2="881.5994" y2="461.2859">
		<stop  offset="0" style="stop-color:#E65726"/>
		<stop  offset="1" style="stop-color:#F26F48"/>
	</linearGradient>
	<polygon style="fill:url(#SVGID_00000155106024024700733890000010045050655434511234_);" points="634,532.9 617.6,549.3 
		969.6,549.3 953.2,532.9 	"/>
	
		<linearGradient id="SVGID_00000052819941004495372870000018098676904059401897_" gradientUnits="userSpaceOnUse" x1="322.5016" y1="919.5468" x2="557.5328" y2="684.5156">
		<stop  offset="0" style="stop-color:#E65726"/>
		<stop  offset="1" style="stop-color:#F27247"/>
	</linearGradient>
	<polygon style="fill:url(#SVGID_00000052819941004495372870000018098676904059401897_);" points="205,802 221.4,785.7 658.7,785.7 
		675,802 	"/>
	
		<linearGradient id="SVGID_00000075866629232210668770000008314492977677548934_" gradientUnits="userSpaceOnUse" x1="171.6281" y1="768.6733" x2="240.7672" y2="699.5343">
		<stop  offset="0" style="stop-color:#E65726"/>
		<stop  offset="1" style="stop-color:#F26F48"/>
	</linearGradient>
	<polygon style="fill:url(#SVGID_00000075866629232210668770000008314492977677548934_);" points="205,668.6 221.4,680.1 
		221.4,785.7 205,802 	"/>
	
		<linearGradient id="SVGID_00000027600741793205692050000001701712865282239165_" gradientUnits="userSpaceOnUse" x1="230.9447" y1="694.5577" x2="313.7587" y2="611.7438">
		<stop  offset="0" style="stop-color:#F2703E"/>
		<stop  offset="1" style="stop-color:#F89D48"/>
	</linearGradient>
	<polyline style="opacity:0.25;fill:url(#SVGID_00000027600741793205692050000001701712865282239165_);" points="323.4,626.2 
		339.7,637.7 221.4,680.1 205,668.6 	"/>
	
		<linearGradient id="SVGID_00000081619127105604753330000012316760896757699222_" gradientUnits="userSpaceOnUse" x1="234.8429" y1="537.6743" x2="425.8032" y2="346.7139">
		<stop  offset="0" style="stop-color:#E65726"/>
		<stop  offset="1" style="stop-color:#F26F48"/>
	</linearGradient>
	<polygon style="fill:url(#SVGID_00000081619127105604753330000012316760896757699222_);" points="323.4,244.3 323.4,626.2 
		339.7,637.7 339.7,267.4 	"/>
	
		<linearGradient id="SVGID_00000085930384651205376620000013555218223224873661_" gradientUnits="userSpaceOnUse" x1="208.7054" y1="310.9724" x2="418.4654" y2="101.2124">
		<stop  offset="0" style="stop-color:#E65726"/>
		<stop  offset="1" style="stop-color:#F27247"/>
	</linearGradient>
	<polygon style="fill:url(#SVGID_00000085930384651205376620000013555218223224873661_);" points="16.4,90.7 0,102.3 617.6,319.5 
		620.4,303.1 	"/>
	
		<linearGradient id="SVGID_00000066483214766600338650000001155935901362052509_" gradientUnits="userSpaceOnUse" x1="567.2068" y1="498.905" x2="667.9749" y2="398.137">
		<stop  offset="0" style="stop-color:#E65726"/>
		<stop  offset="1" style="stop-color:#F26F48"/>
	</linearGradient>
	<polygon style="fill:url(#SVGID_00000066483214766600338650000001155935901362052509_);" points="617.6,347.8 617.6,549.3 
		634,532.9 634,364.1 	"/>
	
		<linearGradient id="SVGID_00000095314593551081314440000013264045580400396178_" gradientUnits="userSpaceOnUse" x1="-24.3732" y1="77.8937" x2="26.7603" y2="26.7602">
		<stop  offset="0" style="stop-color:#E65726"/>
		<stop  offset="1" style="stop-color:#F27247"/>
	</linearGradient>
	<polygon style="fill:url(#SVGID_00000095314593551081314440000013264045580400396178_);" points="0,0 0,102.3 16.4,90.7 16.4,16.4 
			"/>
	
		<linearGradient id="SVGID_00000172413593759771344830000008607794196835090086_" gradientUnits="userSpaceOnUse" x1="572.9703" y1="585.7269" x2="675.0482" y2="585.7269">
		<stop  offset="0" style="stop-color:#FBC090;stop-opacity:0.5"/>
		<stop  offset="1" style="stop-color:#FBC090"/>
	</linearGradient>
	<polygon style="fill:url(#SVGID_00000172413593759771344830000008607794196835090086_);" points="589.3,577.5 573,593.9 
		658.7,593.9 675,577.5 	"/>
	
		<linearGradient id="SVGID_00000010282233024286480630000000957468610704900003_" gradientUnits="userSpaceOnUse" x1="705.5936" y1="435.7563" x2="881.5994" y2="259.7505">
		<stop  offset="0" style="stop-color:#FBC090;stop-opacity:0"/>
		<stop  offset="1" style="stop-color:#FBC090"/>
	</linearGradient>
	<polygon style="fill:url(#SVGID_00000010282233024286480630000000957468610704900003_);" points="953.2,364.1 969.6,347.8 
		617.6,347.8 634,364.1 	"/>
	
		<linearGradient id="SVGID_00000040563611672439375410000018127856308092664993_" gradientUnits="userSpaceOnUse" x1="409.8663" y1="337.5163" x2="499.4511" y2="247.9314">
		<stop  offset="0" style="stop-color:#F2703E;stop-opacity:0.5"/>
		<stop  offset="1" style="stop-color:#F89D48;stop-opacity:0.2"/>
	</linearGradient>
	<polygon style="fill:url(#SVGID_00000040563611672439375410000018127856308092664993_);" points="573,349.4 589.3,337.8 
		323.4,244.3 339.7,267.4 	"/>
</g>
<g>
	<path d="M3711.8,346.4h40.9l86.3,202.9h-46.3l-18.4-45.2H3689l-18.4,45.2h-45.2L3711.8,346.4z M3758.4,464.9l-26.8-65.3l-26.8,65.3
		H3758.4z"/>
</g>
<path d="M1089.9,347.8h153.4v40.3h-109.1V431h96.1v40.3h-96.1v78h-44.3V347.8z"/>
<path d="M1266.4,347.8h44.3v201.5h-44.3V347.8z"/>
<path d="M1346.7,347.8h40.9l94.4,124v-124h43.7v201.5H1488l-97.6-128.1v128.1h-43.7V347.8z"/>
<path d="M1628.8,346.4h40.9l86.3,202.9h-46.3l-18.4-45.2H1606l-18.4,45.2h-45.2L1628.8,346.4z M1675.4,464.9l-26.8-65.3l-26.8,65.3
	H1675.4z"/>
<path d="M1772.7,347.8h44.3V509h100.4v40.3h-144.8V347.8z"/>
<path d="M2008.4,347.8h93.5c23,0,41.2,6.3,52.7,17.8c9.2,9.2,13.8,20.4,13.8,34.3v0.6c0,22.7-12.1,35.4-26.5,43.5
	c23.3,8.9,37.7,22.4,37.7,49.5v0.6c0,36.8-29.9,55.3-75.4,55.3h-95.8V347.8z M2092.4,429.2c19.6,0,31.9-6.3,31.9-21.3v-0.6
	c0-13.2-10.4-20.7-29.1-20.7h-43.7v42.6H2092.4z M2104.3,510.4c19.6,0,31.4-6.9,31.4-21.9V488c0-13.5-10.1-21.9-32.8-21.9h-51.2
	v44.3H2104.3z"/>
<path d="M2198.7,462.9V347.8h44.3v114c0,32.8,16.4,49.8,43.5,49.8c27.1,0,43.5-16.4,43.5-48.4V347.8h44.3v113.7
	c0,61-34.2,90.9-88.4,90.9C2231.8,552.4,2198.7,522.2,2198.7,462.9z"/>
<path d="M2405,347.8h92.1c25.6,0,45.5,7.2,58.7,20.4c11.2,11.2,17.3,27.1,17.3,46v0.6c0,32.5-17.6,53-43.2,62.5l49.2,72h-51.8
	l-43.2-64.5h-34.8v64.5H2405V347.8z M2494.3,445.6c21.6,0,34-11.5,34-28.5v-0.6c0-19-13.2-28.8-34.8-28.8h-44v57.8H2494.3z"/>
<path d="M2598.8,347.8h40.9l94.4,124v-124h43.7v201.5h-37.7l-97.6-128.1v128.1h-43.7V347.8z"/>
<path d="M2952.8,346.4h40.9l86.3,202.9h-46.3l-18.4-45.2H2930l-18.4,45.2h-45.2L2952.8,346.4z M2999.4,464.9l-26.8-65.3l-26.8,65.3
	H2999.4z"/>
<path d="M3096.7,347.8h44.3V509h100.4v40.3h-144.8V347.8z"/>
<path d="M3260.5,347.8h82.3c48.1,0,77.1,28.5,77.1,69.6v0.6c0,46.6-36.3,70.8-81.5,70.8h-33.7v60.4h-44.3V347.8z M3339.9,449.4
	c22.2,0,35.1-13.2,35.1-30.5v-0.6c0-19.9-13.8-30.5-36-30.5h-34.3v61.6H3339.9z"/>
<path d="M3438.4,347.8h44.3v79.7h81.7v-79.7h44.3v201.5h-44.3v-80.9h-81.7v80.9h-44.3V347.8z"/>
</svg>
