<?xml version="1.0" encoding="utf-8"?>
<!-- Generator: Adobe Illustrator 25.4.1, SVG Export Plug-In . SVG Version: 6.00 Build 0)  -->
<svg version="1.1" id="Layer_1" xmlns="http://www.w3.org/2000/svg" xmlns:xlink="http://www.w3.org/1999/xlink" x="0px" y="0px"
	 viewBox="0 0 3839 458.2" style="enable-background:new 0 0 3839 458.2;" xml:space="preserve">
<style type="text/css">
	.st0{fill:#FFFFFF;}
	.st1{fill:#7B9A99;}
	.st2{fill:url(#SVGID_1_);}
	.st3{clip-path:url(#SVGID_00000074436346763976341830000018436563815302384278_);}
	.st4{fill:#606161;}
	.st5{clip-path:url(#SVGID_00000136396227375816007210000004647377528276126857_);}
	.st6{clip-path:url(#SVGID_00000093171995740357377450000013581903872629002938_);}
	.st7{fill:url(#SVGID_00000003821775794182640610000011216517193169297854_);}
	.st8{fill:url(#SVGID_00000040577002302583037350000001685532576265919927_);}
	.st9{fill:url(#SVGID_00000068638222305013180740000005336375979123656376_);}
	.st10{fill:url(#SVGID_00000029727179719972667650000015804616587357255346_);}
	.st11{fill:#F58746;}
	.st12{fill:url(#SVGID_00000007394447053975980350000007678248738320498616_);}
	.st13{fill:url(#SVGID_00000126298503624059020660000002637629809306954893_);}
	.st14{fill:url(#SVGID_00000142134841759263807060000004303591045801166982_);}
	.st15{fill:url(#SVGID_00000070810050653255018240000014142762392018443440_);}
	.st16{fill:url(#SVGID_00000158022872625733986900000005637158955751867303_);}
	.st17{fill:url(#SVGID_00000014615282937231754200000018002591919623036307_);}
	.st18{fill:url(#SVGID_00000088103848813662148410000018273995446599680145_);}
	.st19{fill:url(#SVGID_00000076595351827969087850000008784196132801578384_);}
	.st20{fill:url(#SVGID_00000132054505765069404450000009480864704038270850_);}
	.st21{fill:url(#SVGID_00000166649077088261959510000009164127691416011914_);}
	.st22{fill:url(#SVGID_00000156581376144769688500000007372170523473967250_);}
	.st23{fill:url(#SVGID_00000177449633781452565250000013287090038103015557_);}
	.st24{opacity:0.25;fill:url(#SVGID_00000142149710172885929730000000738574840837021573_);}
	.st25{fill:url(#SVGID_00000033344550034005232930000004454052172960197535_);}
	.st26{fill:url(#SVGID_00000137836484205116069900000004187294705907966647_);}
	.st27{fill:url(#SVGID_00000127723959560215927980000005009081824974740648_);}
	.st28{fill:url(#SVGID_00000010309995445210081660000018291548443839010445_);}
	.st29{fill:url(#SVGID_00000157287347363080532900000013986360906207321737_);}
	.st30{fill:url(#SVGID_00000056413126990548970690000017015477430146485906_);}
	.st31{fill:url(#SVGID_00000021087549808396999480000003052396059811266731_);}
	.st32{fill:url(#SVGID_00000086678431502329577140000010585521614028437417_);}
	.st33{fill:url(#SVGID_00000100385004429669092260000008641561202336088996_);}
	.st34{fill:url(#SVGID_00000035526965923566719380000015960753673965863338_);}
	.st35{fill:url(#SVGID_00000078764016310652171680000003129983093028924084_);}
	.st36{fill:url(#SVGID_00000037686480344524477590000013833933240863170709_);}
	.st37{fill:url(#SVGID_00000167398631843138284440000006344427601775808699_);}
	.st38{fill:url(#SVGID_00000163774114729503333370000002907016803633915822_);}
	.st39{fill:url(#SVGID_00000043440429302350167670000009835642046460914612_);}
	.st40{opacity:0.25;fill:url(#SVGID_00000066512627196383660300000006524975849986422923_);}
	.st41{fill:url(#SVGID_00000018210961109357436510000003559749102279122358_);}
	.st42{fill:url(#SVGID_00000150802238892534219340000013538557094031057561_);}
	.st43{fill:url(#SVGID_00000036217521517475834940000007627653465071130248_);}
	.st44{fill:url(#SVGID_00000181081824773706466620000007082528371791942334_);}
	.st45{fill:url(#SVGID_00000124139412729219225100000010451423550486847404_);}
	.st46{fill:url(#SVGID_00000127741775548992391870000006245223828596836761_);}
	.st47{fill:url(#SVGID_00000132053595416102574080000017258066846341988763_);}
	.st48{fill:url(#SVGID_00000111901539535547309730000012504176327640799117_);}
	.st49{clip-path:url(#SVGID_00000001624550839907578050000001806685617872942765_);}
	.st50{clip-path:url(#SVGID_00000000221816904180212430000010843551763179307921_);}
	.st51{clip-path:url(#SVGID_00000180346825678600150660000010010435293140035992_);}
	.st52{fill:url(#SVGID_00000040575961371100549520000006255843230526559421_);}
	.st53{fill:url(#SVGID_00000107571241120351267840000008252994196279961497_);}
	.st54{fill:url(#SVGID_00000158746741170900598080000009822438822533287586_);}
	.st55{fill:url(#SVGID_00000076600565105091196160000007306162637890969533_);}
	.st56{fill:url(#SVGID_00000157300861999600094360000010361095681267056523_);}
	.st57{fill:url(#SVGID_00000140002512179530960310000008296526662856345263_);}
	.st58{fill:url(#SVGID_00000064353806292263763930000009472638780419600043_);}
	.st59{clip-path:url(#SVGID_00000115485694370023404990000017311963147291891129_);}
	.st60{clip-path:url(#SVGID_00000113330500336376392920000007263460998510907535_);}
	.st61{clip-path:url(#SVGID_00000068664915413797160220000009895629892892800651_);}
	.st62{fill:url(#SVGID_00000078015379441145317990000017714368722265768098_);}
	.st63{clip-path:url(#SVGID_00000109718398395802784840000002438089983209390741_);}
	.st64{clip-path:url(#SVGID_00000002349441624331103450000000506101179277677195_);}
	.st65{clip-path:url(#SVGID_00000165234082443066269910000005086781406035816358_);}
	.st66{fill:url(#SVGID_00000173840465638202424440000002403398426994603173_);}
	.st67{fill:url(#SVGID_00000027580591079652887140000014383649995740649626_);}
	.st68{fill:url(#SVGID_00000127010158984618102190000008879167204694696112_);}
	.st69{fill:url(#SVGID_00000023974610767862591690000001057389346743547268_);}
	.st70{fill:url(#SVGID_00000147214312347657413810000001715526954904371372_);}
	.st71{fill:url(#SVGID_00000000218776866389536750000008494969236258899629_);}
	.st72{fill:url(#SVGID_00000001651116334338770800000016475004473825589148_);}
	.st73{fill:url(#SVGID_00000104698788800801786660000010771046532299613362_);}
	.st74{fill:url(#SVGID_00000166669431767111227770000001167542015046468232_);}
	.st75{fill:url(#SVGID_00000016777525079767745680000010975943056140572607_);}
	.st76{fill:url(#SVGID_00000022538831689515647960000017719009106302382464_);}
	.st77{fill:url(#SVGID_00000106863364800797580710000005126943408277119400_);}
	.st78{opacity:0.25;fill:url(#SVGID_00000160896657234136004720000006578731584604047779_);}
	.st79{fill:url(#SVGID_00000012461062600008057340000006185193876222076073_);}
	.st80{fill:url(#SVGID_00000132080078941528862810000002648125544315026840_);}
	.st81{fill:url(#SVGID_00000137837851732569563460000018018912998117477539_);}
	.st82{fill:url(#SVGID_00000048499225967940106600000010822616974251154319_);}
	.st83{fill:url(#SVGID_00000129915513067835793850000008931366330181880485_);}
	.st84{fill:url(#SVGID_00000144314004989312433860000000748914240392964482_);}
	.st85{fill:url(#SVGID_00000148632564974392402460000000800427539371226047_);}
	.st86{fill:url(#SVGID_00000175323706890022892950000017998598638835821701_);}
	.st87{fill:url(#SVGID_00000087374420040439781760000007467712305984669871_);}
	.st88{fill:url(#SVGID_00000008838623990591769490000015786446749056372887_);}
	.st89{fill:url(#SVGID_00000033342154162746216840000008972522050179185067_);}
	.st90{fill:url(#SVGID_00000007423513406960828330000015658601940365460880_);}
	.st91{fill:url(#SVGID_00000137824671938178174290000000133852028831303296_);}
	.st92{fill:url(#SVGID_00000170247492157046575780000004509658003335028398_);}
	.st93{fill:url(#SVGID_00000172414607226283297640000013987648985425098124_);}
	.st94{opacity:0.25;fill:url(#SVGID_00000091017064574738639020000017237844180988919470_);}
	.st95{fill:url(#SVGID_00000130648297747325931660000003031659040484328612_);}
	.st96{fill:url(#SVGID_00000129897695527284321110000000376751793906981016_);}
	.st97{fill:url(#SVGID_00000089543132316606162220000017667696215174186664_);}
	.st98{fill:url(#SVGID_00000130606055254502674580000013484392425333542295_);}
	.st99{fill:url(#SVGID_00000015327312566230746120000014525863566413433226_);}
	.st100{fill:url(#SVGID_00000166659645693889719360000000218418833989281468_);}
	.st101{fill:url(#SVGID_00000183241254415378429110000018291443213577912971_);}
	.st102{fill:url(#SVGID_00000008146511150076084670000003150418548142849723_);}
	.st103{fill:url(#SVGID_00000032623067291666834420000016147158538194913940_);}
	.st104{fill:url(#SVGID_00000014600077422822515420000016734910684581840553_);}
	.st105{fill:url(#SVGID_00000082367795731016818490000012979053280139708316_);}
	.st106{fill:url(#SVGID_00000009583222163497244910000000543586849965158275_);}
	.st107{fill:url(#SVGID_00000073720357143294019330000000675313801912913304_);}
	.st108{fill:url(#SVGID_00000183953708376393652150000015975510742596468634_);}
	.st109{fill:url(#SVGID_00000161619299347038455680000002083147325132706237_);}
	.st110{fill:url(#SVGID_00000145752029340812284300000002254306438221043856_);}
	.st111{fill:url(#SVGID_00000127030476006640090230000004422093166328845715_);}
	.st112{opacity:0.25;fill:url(#SVGID_00000027571983832634182360000003879327451072418492_);}
	.st113{fill:url(#SVGID_00000050643224916190335940000005046483229957029048_);}
	.st114{fill:url(#SVGID_00000026143633236930554690000006116647610819246747_);}
	.st115{fill:url(#SVGID_00000008147471140993227240000016774796598458527149_);}
	.st116{fill:url(#SVGID_00000123431292282201590090000007711442755186296217_);}
	.st117{fill:url(#SVGID_00000119811688497487173180000016205529504099055755_);}
	.st118{fill:url(#SVGID_00000010276016204005586380000008627087694665928109_);}
	.st119{fill:url(#SVGID_00000050650637703405687660000007220411156807944097_);}
	.st120{fill:url(#SVGID_00000074437291256760113490000001573855048718223240_);}
	.st121{fill:url(#SVGID_00000158747360727388239870000017231444689613125526_);}
	.st122{fill:url(#SVGID_00000090995384586093341500000004734351391657905793_);}
	.st123{fill:url(#SVGID_00000129188388250786043230000017377011139582080397_);}
	.st124{fill:url(#SVGID_00000124864058313331459070000007657429721388062099_);}
	.st125{fill:url(#SVGID_00000101814588640024697360000005164550431875479170_);}
	.st126{fill:url(#SVGID_00000064330031261587413330000008607786561053848492_);}
	.st127{fill:url(#SVGID_00000071529898276757664420000014307716897892081316_);}
	.st128{opacity:0.25;fill:url(#SVGID_00000052090782689471180810000017458261057551637686_);}
	.st129{fill:url(#SVGID_00000021825138106378098850000005353755299752456852_);}
	.st130{fill:url(#SVGID_00000135677992792640568190000015607796653072203928_);}
	.st131{fill:url(#SVGID_00000040539012111198712970000017049847105151399845_);}
	.st132{fill:url(#SVGID_00000008843174235944299530000000789051674246269631_);}
	.st133{fill:url(#SVGID_00000157280538670459621940000015908508889882330796_);}
	.st134{fill:url(#SVGID_00000082353153514082853960000004434372526321217671_);}
	.st135{fill:url(#SVGID_00000114055380401559950140000006618365677437811134_);}
	.st136{fill:url(#SVGID_00000062185446917110178270000005408638569468468102_);}
	.st137{fill:url(#SVGID_00000179604112751249117000000006825710773551726212_);}
</style>
<g>
	<g>
		<path d="M686.9,117h169.3v44.5H735.8v47.3h106.1v44.5H735.8v86.1h-48.9V117z"/>
		<path d="M889.5,117h48.9v222.3h-48.9V117z"/>
		<path d="M986,117h45.1l104.2,136.9V117h48.3v222.3H1142L1034.3,198v141.3H986V117z"/>
		<path d="M1305.2,115.4h45.1l95.3,223.9h-51.1l-20.3-49.9h-94l-20.3,49.9h-49.9L1305.2,115.4z M1356.6,246.3l-29.5-72.1l-29.5,72.1
			H1356.6z"/>
		<path d="M1471.9,117h48.9v177.8h110.8v44.5h-159.7V117z"/>
		<path d="M1747.9,117h103.2c25.4,0,45.4,7,58.1,19.7c10.2,10.2,15.2,22.5,15.2,37.8v0.6c0,25.1-13.3,39.1-29.2,48
			c25.7,9.8,41.6,24.8,41.6,54.6v0.6c0,40.6-33,61-83.2,61h-105.8V117z M1840.6,206.9c21.6,0,35.2-7,35.2-23.5v-0.6
			c0-14.6-11.4-22.9-32.1-22.9h-48.3v47H1840.6z M1853.6,296.4c21.6,0,34.6-7.6,34.6-24.1v-0.6c0-14.9-11.1-24.1-36.2-24.1h-56.5
			v48.9H1853.6z"/>
		<path d="M1965.7,244V117h48.9v125.8c0,36.2,18.1,54.9,48,54.9s48-18.1,48-53.4V117h48.9v125.4c0,67.3-37.8,100.4-97.5,100.4
			C2002.2,342.8,1965.7,309.5,1965.7,244z"/>
		<path d="M2201.3,117H2303c28.3,0,50.2,7.9,64.8,22.5c12.4,12.4,19.1,29.9,19.1,50.8v0.6c0,35.9-19.4,58.4-47.6,68.9l54.3,79.4
			h-57.2l-47.6-71.1h-38.4v71.1h-48.9V117z M2299.8,225c23.8,0,37.5-12.7,37.5-31.4v-0.6c0-21-14.6-31.8-38.4-31.8h-48.6V225H2299.8
			z"/>
		<path d="M2423,117h45.1l104.2,136.9V117h48.3v222.3h-41.6L2471.3,198v141.3H2423V117z"/>
		<path d="M2829.5,115.4h45.1l95.3,223.9h-51.1l-20.3-49.9h-94l-20.3,49.9h-49.9L2829.5,115.4z M2880.9,246.3l-29.5-72.1l-29.5,72.1
			H2880.9z"/>
		<path d="M2996.2,117h48.9v177.8h110.8v44.5h-159.7V117z"/>
		<path d="M3184.8,117h90.8c53,0,85.1,31.4,85.1,76.9v0.6c0,51.4-40,78.1-89.9,78.1h-37.2v66.7h-48.9V117z M3272.5,229.1
			c24.5,0,38.7-14.6,38.7-33.7v-0.6c0-21.9-15.2-33.7-39.7-33.7h-37.8v68H3272.5z"/>
		<path d="M3389,117h48.9v88h90.2v-88h48.9v222.3h-48.9v-89.2h-90.2v89.2H3389V117z"/>
		<path d="M3698.6,115.4h45.1l95.3,223.9h-51.1l-20.3-49.9h-94l-20.3,49.9h-49.9L3698.6,115.4z M3750.1,246.3l-29.5-72.1l-29.5,72.1
			H3750.1z"/>
	</g>
	<g>
		<g>
			<g>
				<linearGradient id="SVGID_1_" gradientUnits="userSpaceOnUse" x1="46.3915" y1="387.496" x2="458.7075" y2="-24.82">
					<stop  offset="0" style="stop-color:#F2703E"/>
					<stop  offset="1" style="stop-color:#F89D48"/>
				</linearGradient>
				<path class="st2" d="M433.7,0H0v58.4l352.8,124.1H554v-62.3C554,53.8,500.1,0,433.7,0z M336.7,193l-152-53.4v218.2L117.1,382
					v76.2h268.6V330h-49V193z M352.8,313.8H554V198.7H352.8V313.8z"/>
			</g>
		</g>
		<g>
			<g>
				
					<linearGradient id="SVGID_00000045582332925959469880000011984221511003876270_" gradientUnits="userSpaceOnUse" x1="5.885400e-05" y1="91.2679" x2="553.954" y2="91.2679">
					<stop  offset="0" style="stop-color:#F6944A;stop-opacity:0"/>
					<stop  offset="1" style="stop-color:#FBC090"/>
				</linearGradient>
				<path style="fill:url(#SVGID_00000045582332925959469880000011984221511003876270_);" d="M433.7,7c30.2,0,58.7,11.8,80.1,33.2
					C535.2,61.5,547,90,547,120.2v55.3H354L7,53.5V7H433.7 M433.7,0H0v58.4l352.8,124.1H554v-62.3C554,53.8,500.1,0,433.7,0L433.7,0
					z"/>
			</g>
			<g>
				
					<radialGradient id="SVGID_00000096051008413141730050000002075544071963856017_" cx="251.3912" cy="298.885" r="147.3387" gradientUnits="userSpaceOnUse">
					<stop  offset="0" style="stop-color:#F48036"/>
					<stop  offset="1" style="stop-color:#FDD6AD;stop-opacity:0"/>
				</radialGradient>
				<path style="fill:url(#SVGID_00000096051008413141730050000002075544071963856017_);" d="M191.7,149.4l138,48.5v132v7h7h42
					v114.3H124.1v-64.3l63-22.6l4.6-1.7v-4.9V149.4 M184.7,139.6v218.2L117.1,382v76.2h268.6V330h-49V193L184.7,139.6L184.7,139.6z"
					/>
			</g>
			<g>
				
					<radialGradient id="SVGID_00000142869813188388416670000016751727640108744080_" cx="453.3984" cy="256.2495" r="81.9324" gradientUnits="userSpaceOnUse">
					<stop  offset="0" style="stop-color:#F48036"/>
					<stop  offset="1" style="stop-color:#FDD6AD;stop-opacity:0"/>
				</radialGradient>
				<path style="fill:url(#SVGID_00000142869813188388416670000016751727640108744080_);" d="M547,205.7v101.1H359.8V205.7H547
					 M554,198.7H352.8v115.1H554V198.7L554,198.7z"/>
			</g>
		</g>
	</g>
</g>
</svg>
