<?xml version="1.0" encoding="utf-8"?>
<!-- Generator: Adobe Illustrator 25.4.1, SVG Export Plug-In . SVG Version: 6.00 Build 0)  -->
<svg version="1.1" id="Layer_1" xmlns="http://www.w3.org/2000/svg" xmlns:xlink="http://www.w3.org/1999/xlink" x="0px" y="0px"
	 viewBox="0 0 3839 458.2" style="enable-background:new 0 0 3839 458.2;" xml:space="preserve">
<style type="text/css">
	.st0{fill:#FFFFFF;}
	.st1{fill:#7B9A99;}
	.st2{fill:url(#SVGID_1_);}
	.st3{clip-path:url(#SVGID_00000029039895075009538450000002057576985522220968_);}
	.st4{fill:#606161;}
	.st5{clip-path:url(#SVGID_00000136372224851889695220000010217238516586623898_);}
	.st6{clip-path:url(#SVGID_00000096757979663428739040000008658064128992375193_);}
	.st7{fill:url(#SVGID_00000112626659375384548400000003429659979831717783_);}
	.st8{fill:url(#SVGID_00000171710658155394973640000002510560524202781107_);}
	.st9{fill:url(#SVGID_00000092452549161194530770000004372018139937465510_);}
	.st10{fill:url(#SVGID_00000095335808875768602750000009353825818189531050_);}
	.st11{fill:#F58746;}
	.st12{fill:url(#SVGID_00000030473768427596594100000007730694404603062707_);}
	.st13{fill:url(#SVGID_00000048480327778260221120000013656804449806180492_);}
	.st14{fill:url(#SVGID_00000073705358772975507520000012730412048179633318_);}
	.st15{fill:url(#SVGID_00000088093798578543027770000012445136228784602766_);}
	.st16{fill:url(#SVGID_00000062911887954818117510000014054131929783362437_);}
	.st17{fill:url(#SVGID_00000067955708959749543360000008369397264709721495_);}
	.st18{fill:url(#SVGID_00000067205162937150892770000003079588257361963174_);}
	.st19{fill:url(#SVGID_00000148633975459672777340000012185624407605576887_);}
	.st20{fill:url(#SVGID_00000020376352285762124330000018058084458321123760_);}
	.st21{fill:url(#SVGID_00000152260385410163432220000009081901273265647793_);}
	.st22{fill:url(#SVGID_00000138544282063049595260000004512991219325475227_);}
	.st23{fill:url(#SVGID_00000152973071640722707080000016287440583732930236_);}
	.st24{opacity:0.25;fill:url(#SVGID_00000121995888704963876590000001034490597565690523_);}
	.st25{fill:url(#SVGID_00000031192443802795902970000004737292484112846767_);}
	.st26{fill:url(#SVGID_00000100366824157626084430000012224703027593487038_);}
	.st27{fill:url(#SVGID_00000003086308134391287720000000650680953224254908_);}
	.st28{fill:url(#SVGID_00000125565158525125873820000017976129521680726194_);}
	.st29{fill:url(#SVGID_00000000934294900032076800000004081452341523033247_);}
	.st30{fill:url(#SVGID_00000155838983128148327330000017314308466624031145_);}
	.st31{fill:url(#SVGID_00000131346815015288729000000007293846824677136539_);}
	.st32{fill:url(#SVGID_00000124860418918223977060000010287616857861625263_);}
	.st33{fill:url(#SVGID_00000099655183326643515090000018330423444064524461_);}
	.st34{fill:url(#SVGID_00000040544112021865664050000012340783531948197507_);}
	.st35{fill:url(#SVGID_00000023257856216463928340000008097929027011896974_);}
	.st36{fill:url(#SVGID_00000014613278660998940660000002191083029928924044_);}
	.st37{fill:url(#SVGID_00000085251183830754083670000000700840684564273282_);}
	.st38{fill:url(#SVGID_00000083051444480652782120000014631800958993934782_);}
	.st39{fill:url(#SVGID_00000160152784463047718390000005414810677081437113_);}
	.st40{opacity:0.25;fill:url(#SVGID_00000074414442101136216210000017844675217060028578_);}
	.st41{fill:url(#SVGID_00000088117416276150963900000017876459410128476074_);}
	.st42{fill:url(#SVGID_00000137106071026787541620000005753593331758301845_);}
	.st43{fill:url(#SVGID_00000039123317717514914260000016980267466084560829_);}
	.st44{fill:url(#SVGID_00000011731541325520835310000008091406648688826793_);}
	.st45{fill:url(#SVGID_00000005247534236685877250000009419525101387165576_);}
	.st46{fill:url(#SVGID_00000172417377310784227390000007979695706080190366_);}
	.st47{fill:url(#SVGID_00000023276195819295161930000010676103051673415584_);}
	.st48{fill:url(#SVGID_00000129179182065353278370000007820238065262763668_);}
	.st49{clip-path:url(#SVGID_00000059269893681111356830000012924423506207390364_);}
	.st50{clip-path:url(#SVGID_00000052102087039673592660000002011603282429443497_);}
	.st51{clip-path:url(#SVGID_00000044144467170543635280000009046262331116783259_);}
	.st52{fill:url(#SVGID_00000060742561017910446430000002481701447960562560_);}
	.st53{fill:url(#SVGID_00000152237786234469215030000008401175841516785823_);}
	.st54{fill:url(#SVGID_00000107590270307652553820000002255130988206651533_);}
	.st55{fill:url(#SVGID_00000073721277304391495740000008397086819519236488_);}
	.st56{fill:url(#SVGID_00000180342290640380034630000009130370500044806049_);}
	.st57{fill:url(#SVGID_00000181089422426340989560000008870486969792818565_);}
	.st58{fill:url(#SVGID_00000139982068011052994330000006048025789723807164_);}
	.st59{clip-path:url(#SVGID_00000116923046010738762620000011128686186425229740_);}
	.st60{clip-path:url(#SVGID_00000053540647604658707780000016921972482680238499_);}
	.st61{clip-path:url(#SVGID_00000180367427778925679090000002530868525461671102_);}
	.st62{fill:url(#SVGID_00000180356223278614633050000013087936375685116326_);}
	.st63{clip-path:url(#SVGID_00000133520127043509099570000014007973777036436126_);}
	.st64{clip-path:url(#SVGID_00000023263545190276933110000002397253733073199017_);}
	.st65{clip-path:url(#SVGID_00000086683458763755553650000002016737903754684087_);}
	.st66{fill:url(#SVGID_00000078759798811920262110000014920091893909609874_);}
	.st67{fill:url(#SVGID_00000170990364572811059430000016612889578676630968_);}
	.st68{fill:url(#SVGID_00000139284231359278747460000004933192082659848099_);}
	.st69{fill:url(#SVGID_00000154392777505972677950000006742293135901091722_);}
	.st70{fill:url(#SVGID_00000114059966373542381280000014918195020249484214_);}
	.st71{fill:url(#SVGID_00000011012164754446448040000001337586777358171278_);}
	.st72{fill:url(#SVGID_00000071536937744587887220000004788170682960615565_);}
	.st73{fill:url(#SVGID_00000008842260975156043020000004722260668222988718_);}
	.st74{fill:url(#SVGID_00000063609182222161501660000004542658644160339603_);}
	.st75{fill:url(#SVGID_00000031903534880484490310000007060224581813682328_);}
	.st76{fill:url(#SVGID_00000068645036211317646170000018316342368149999038_);}
	.st77{fill:url(#SVGID_00000000216148545543346860000012377956493224314765_);}
	.st78{opacity:0.25;fill:url(#SVGID_00000118388434369310790020000010851910114671755433_);}
	.st79{fill:url(#SVGID_00000071521802679571196670000010043877040419781014_);}
	.st80{fill:url(#SVGID_00000091730158293397017900000012047700788613353872_);}
	.st81{fill:url(#SVGID_00000090265676763289412550000001443650569865641628_);}
	.st82{fill:url(#SVGID_00000075884223836083303720000013650016846434824383_);}
	.st83{fill:url(#SVGID_00000138555188360923592900000002658968774339748523_);}
	.st84{fill:url(#SVGID_00000142891930735473214990000013064794776128118417_);}
	.st85{fill:url(#SVGID_00000114039344429870472680000015116169332482286502_);}
	.st86{fill:url(#SVGID_00000173864608422876210430000001489833699743491724_);}
	.st87{fill:url(#SVGID_00000103986985022475065350000015597624759038781847_);}
	.st88{fill:url(#SVGID_00000124868772687143208460000006462540494385464981_);}
	.st89{fill:url(#SVGID_00000168111780635294669860000011200654318303794827_);}
	.st90{fill:url(#SVGID_00000080208494406214602740000013350362432367924634_);}
	.st91{fill:url(#SVGID_00000178171619604566866740000013737391637330220692_);}
	.st92{fill:url(#SVGID_00000114074896730935097260000001444820119655801496_);}
	.st93{fill:url(#SVGID_00000001640994086748502950000000236901682448531108_);}
	.st94{opacity:0.25;fill:url(#SVGID_00000008852505068777124310000002881369497095257271_);}
	.st95{fill:url(#SVGID_00000178194385018313203060000004040007537294921127_);}
	.st96{fill:url(#SVGID_00000160872819348999087230000010641921947361923490_);}
	.st97{fill:url(#SVGID_00000150068524040970563360000009676341403346968962_);}
	.st98{fill:url(#SVGID_00000140725074549665204930000013483168999784110220_);}
	.st99{fill:url(#SVGID_00000043415410070141527190000008642553306816651436_);}
	.st100{fill:url(#SVGID_00000062905671560742753970000013242871987442408082_);}
	.st101{fill:url(#SVGID_00000168817817724056058980000007207204019710754492_);}
	.st102{fill:url(#SVGID_00000160885326638782165310000004459719160299995825_);}
	.st103{fill:url(#SVGID_00000045590212217005601940000012181241935065929863_);}
	.st104{fill:url(#SVGID_00000067196392528571838350000003163292487864317607_);}
	.st105{fill:url(#SVGID_00000044861885989392460000000015167753601987695761_);}
	.st106{fill:url(#SVGID_00000165210347673058597380000017776781632972798130_);}
	.st107{fill:url(#SVGID_00000121262276285994705210000015706057192567279795_);}
	.st108{fill:url(#SVGID_00000042708598122333761170000018337323123059081861_);}
	.st109{fill:url(#SVGID_00000080893770795625883500000000039537328404681133_);}
	.st110{fill:url(#SVGID_00000010992343867116990830000005380284347840613810_);}
	.st111{fill:url(#SVGID_00000068646693371266868430000000138727830824855966_);}
	.st112{opacity:0.25;fill:url(#SVGID_00000079484640879644007990000015024867893382843048_);}
	.st113{fill:url(#SVGID_00000042706863844073755860000015727214024520795788_);}
	.st114{fill:url(#SVGID_00000159435232426425763480000010382947133583399040_);}
	.st115{fill:url(#SVGID_00000111183130871410024020000004978335870521327271_);}
	.st116{fill:url(#SVGID_00000060000431559154013650000010298546386309194883_);}
	.st117{fill:url(#SVGID_00000108266910677814487210000013421629741420387215_);}
	.st118{fill:url(#SVGID_00000139985014618139362930000009339450214448476590_);}
	.st119{fill:url(#SVGID_00000038402066328582742930000001234331162448777917_);}
	.st120{fill:url(#SVGID_00000165919832200654970890000004792075946432056224_);}
	.st121{fill:url(#SVGID_00000078004045231465820050000011690706817940435380_);}
	.st122{fill:url(#SVGID_00000062878071855227754020000003028882646191734162_);}
	.st123{fill:url(#SVGID_00000034057312273593738780000007973389770063278009_);}
	.st124{fill:url(#SVGID_00000018932619371436522150000009813464263654250150_);}
	.st125{fill:url(#SVGID_00000134963055566146036550000011584130861590825131_);}
	.st126{fill:url(#SVGID_00000049201503668599995800000000361597000176356992_);}
	.st127{fill:url(#SVGID_00000103261329179511038800000012998717417472051879_);}
	.st128{opacity:0.25;fill:url(#SVGID_00000103237849673672342890000001588068474320711322_);}
	.st129{fill:url(#SVGID_00000129910821827081384780000016503473568285730232_);}
	.st130{fill:url(#SVGID_00000013192176139832852430000009937237769168942472_);}
	.st131{fill:url(#SVGID_00000057867366376402070130000007511183387397746867_);}
	.st132{fill:url(#SVGID_00000022537238782357335190000016845634327144023958_);}
	.st133{fill:url(#SVGID_00000101784224392811328640000013704840177357817220_);}
	.st134{fill:url(#SVGID_00000183215936929400745050000005277789296006139798_);}
	.st135{fill:url(#SVGID_00000003067194051062221080000003659838971194933401_);}
	.st136{fill:url(#SVGID_00000060014999322959992940000000626444356964284303_);}
	.st137{fill:url(#SVGID_00000103230208548402721520000013247545793899589039_);}
</style>
<g>
	<g>
		<path d="M686.9,117h169.3v44.5H735.8v47.3h106.1v44.5H735.8v86.1h-48.9V117z"/>
		<path d="M889.5,117h48.9v222.3h-48.9V117z"/>
		<path d="M986,117h45.1l104.2,136.9V117h48.3v222.3H1142L1034.3,198v141.3H986V117z"/>
		<path d="M1305.2,115.4h45.1l95.3,223.9h-51.1l-20.3-49.9h-94l-20.3,49.9h-49.9L1305.2,115.4z M1356.6,246.3l-29.5-72.1l-29.5,72.1
			H1356.6z"/>
		<path d="M1471.9,117h48.9v177.8h110.8v44.5h-159.7V117z"/>
		<path d="M1747.9,117h103.2c25.4,0,45.4,7,58.1,19.7c10.2,10.2,15.2,22.5,15.2,37.8v0.6c0,25.1-13.3,39.1-29.2,48
			c25.7,9.8,41.6,24.8,41.6,54.6v0.6c0,40.6-33,61-83.2,61h-105.8V117z M1840.6,206.9c21.6,0,35.2-7,35.2-23.5v-0.6
			c0-14.6-11.4-22.9-32.1-22.9h-48.3v47H1840.6z M1853.6,296.4c21.6,0,34.6-7.6,34.6-24.1v-0.6c0-14.9-11.1-24.1-36.2-24.1h-56.5
			v48.9H1853.6z"/>
		<path d="M1965.7,244V117h48.9v125.8c0,36.2,18.1,54.9,48,54.9s48-18.1,48-53.4V117h48.9v125.4c0,67.3-37.8,100.4-97.5,100.4
			C2002.2,342.8,1965.7,309.5,1965.7,244z"/>
		<path d="M2201.3,117H2303c28.3,0,50.2,7.9,64.8,22.5c12.4,12.4,19.1,29.9,19.1,50.8v0.6c0,35.9-19.4,58.4-47.6,68.9l54.3,79.4
			h-57.2l-47.6-71.1h-38.4v71.1h-48.9V117z M2299.8,225c23.8,0,37.5-12.7,37.5-31.4v-0.6c0-21-14.6-31.8-38.4-31.8h-48.6V225H2299.8
			z"/>
		<path d="M2423,117h45.1l104.2,136.9V117h48.3v222.3h-41.6L2471.3,198v141.3H2423V117z"/>
		<path d="M2829.5,115.4h45.1l95.3,223.9h-51.1l-20.3-49.9h-94l-20.3,49.9h-49.9L2829.5,115.4z M2880.9,246.3l-29.5-72.1l-29.5,72.1
			H2880.9z"/>
		<path d="M2996.2,117h48.9v177.8h110.8v44.5h-159.7V117z"/>
		<path d="M3184.8,117h90.8c53,0,85.1,31.4,85.1,76.9v0.6c0,51.4-40,78.1-89.9,78.1h-37.2v66.7h-48.9V117z M3272.5,229.1
			c24.5,0,38.7-14.6,38.7-33.7v-0.6c0-21.9-15.2-33.7-39.7-33.7h-37.8v68H3272.5z"/>
		<path d="M3389,117h48.9v88h90.2v-88h48.9v222.3h-48.9v-89.2h-90.2v89.2H3389V117z"/>
		<path d="M3698.6,115.4h45.1l95.3,223.9h-51.1l-20.3-49.9h-94l-20.3,49.9h-49.9L3698.6,115.4z M3750.1,246.3l-29.5-72.1l-29.5,72.1
			H3750.1z"/>
	</g>
	<g>
		<g>
			<g>
				<linearGradient id="SVGID_1_" gradientUnits="userSpaceOnUse" x1="46.3914" y1="387.4956" x2="458.7073" y2="-24.8202">
					<stop  offset="0" style="stop-color:#F2703E"/>
					<stop  offset="1" style="stop-color:#F89D48"/>
				</linearGradient>
				<path class="st2" d="M433.7,0H0v58.4l352.8,124.1H554v-62.3C554,53.8,500.1,0,433.7,0z M336.7,193l-152-53.4v218.2L117.1,382
					v76.2h268.6V330h-49V193z M352.8,313.8H554V198.7H352.8V313.8z"/>
			</g>
		</g>
	</g>
</g>
</svg>
