<?xml version="1.0" encoding="utf-8"?>
<!-- Generator: Adobe Illustrator 25.4.1, SVG Export Plug-In . SVG Version: 6.00 Build 0)  -->
<svg version="1.1"
	 id="svg2" xmlns:cc="http://creativecommons.org/ns#" xmlns:dc="http://purl.org/dc/elements/1.1/" xmlns:inkscape="http://www.inkscape.org/namespaces/inkscape" xmlns:rdf="http://www.w3.org/1999/02/22-rdf-syntax-ns#" xmlns:sodipodi="http://sodipodi.sourceforge.net/DTD/sodipodi-0.dtd" xmlns:svg="http://www.w3.org/2000/svg"
	 xmlns="http://www.w3.org/2000/svg" xmlns:xlink="http://www.w3.org/1999/xlink" x="0px" y="0px" viewBox="0 0 3839 1467.8"
	 style="enable-background:new 0 0 3839 1467.8;" xml:space="preserve">
<style type="text/css">
	.st0{fill:#FFFFFF;}
	.st1{fill:#5F9ED5;}
	.st2{fill:#6AB145;}
</style>
<g>
	<g>
		<rect x="1445.3" y="496.8" class="st0" width="948.5" height="948.5"/>
		<path d="M2416.3,1467.8h-993.5V474.2h993.5V1467.8z M1467.8,1422.7h903.4V519.3h-903.4L1467.8,1422.7L1467.8,1422.7z"/>
		<rect x="2393.8" y="496.8" class="st0" width="1422.7" height="948.5"/>
		<path d="M3839,1467.8H2371.2V474.2H3839V1467.8z M2416.3,1422.7H3794V519.3H2416.3V1422.7z"/>
		<rect x="22.6" y="22.6" class="st1" width="474.2" height="474.2"/>
		<path d="M519.3,519.3H0V0h519.3V519.3z M45.1,474.2h429.2V45.1H45.1V474.2z"/>
		<rect x="2845.5" y="971.1" width="45.1" height="474.2"/>
		<rect x="2845.5" y="971.1" width="45.1" height="474.2"/>
		<polygon class="st0" points="1445.3,971.1 971.1,971.1 971.1,1445.3 496.8,1445.3 496.8,496.8 1445.3,496.8 		"/>
		<path d="M993.5,1467.8H474.2V474.2h993.5v519.3H993.5V1467.8z M519.3,1422.7h429.2V948.5h474.2V519.3H519.3V1422.7z"/>
		<polyline class="st2" points="22.6,496.8 496.8,496.8 496.8,1445.3 22.6,1445.3 22.6,496.8 		"/>
		<path d="M519.3,1467.8H0V474.2h519.3V1467.8z M45.1,1422.7h429.2V519.3H45.1V1422.7z"/>
		<rect x="1761.4" y="790.4" width="316.1" height="45.1"/>
		<rect x="1761.4" y="1106.6" width="632.4" height="45.1"/>
		<rect x="3319.7" y="971.1" width="45.1" height="474.2"/>
		<rect x="3319.7" y="971.1" width="45.1" height="474.2"/>
	</g>
</g>
</svg>
