<?xml version="1.0" encoding="utf-8"?>
<!-- Generator: Adobe Illustrator 26.0.3, SVG Export Plug-In . SVG Version: 6.00 Build 0)  -->
<svg version="1.1" id="Layer_1" xmlns="http://www.w3.org/2000/svg" xmlns:xlink="http://www.w3.org/1999/xlink" x="0px" y="0px"
	 viewBox="0 0 2022.6 2159" style="enable-background:new 0 0 2022.6 2159;" xml:space="preserve">
<style type="text/css">
	.st0{fill:#FFFFFF;}
	.st1{fill:#FF8C1A;}
	.st2{fill:#FF0000;}
	.st3{fill:none;stroke:#000000;stroke-width:5.3016;}
	.st4{fill:#797979;}
	.st5{fill:none;stroke:#000000;stroke-width:6.7225;}
	.st6{fill:none;stroke:#000000;stroke-width:6.7272;}
	.st7{fill:none;stroke:#000000;stroke-width:5.4239;}
</style>
<g>
	<g>
		<rect x="12.3" y="12.3" class="st0" width="1997.9" height="2134.3"/>
		<path d="M2022.6,2159H0V0h2022.6V2159z M24.7,2134.3h1973.3V24.7H24.7V2134.3z"/>
		<path class="st1" d="M1010.5,232.3C984.9,314.2,963.6,376,931.7,459c-30,77.9-84.7,141-160.7,175.6
			c-84.8,38.6-176.2,32.3-263.9,61.7c-171.4,57.4-225.6,251.1-274.5,409.7h467.1c25.5-78.8,61-217.6,128.3-316.2
			c28.1-41.3,69.6-71.1,104.2-90.1c20.1-11,39.5-14.5,60.1-19.3c18.1-4.3,39.4-8.5,55.3-9.6c10-0.7,20.2-2.2,30.8-3.2
			c11.7-1.1,21.3-2.1,31.9-4.2c9.6-1.1,32.8-4.8,40.4-6.4c20.2-4.3,39.4-11.7,52.1-16c11.5-3.9,24.5-10.7,36.2-14.9
			c2.4-0.8,14.6-8.6,18.1-10.6c48.4-28.2,91.6-76.6,111.4-113.5c31.7-59.2,57.2-119.1,79.1-182.3c9.6-27.7,16-44.7,30.8-87.2H1010.5
			z"/>
		<path class="st2" d="M1323.3,660.1c-25.6,81.9-46.8,143.7-78.8,226.7c-30,77.9-84.7,141-160.7,175.5
			c-84.9,38.6-176.3,32.4-263.9,61.7c-171.4,57.5-225.6,251.1-274.5,409.7h467.1c25.5-78.8,61.1-217.5,128.3-316.2
			c28.1-41.3,69.6-71.1,104.3-90.1c20.1-11.1,39.5-14.5,60.1-19.3c18.1-4.3,39.4-8.5,55.4-9.6c10-0.7,20.2-2.1,30.8-3.2
			c11.7-1,21.3-2.1,31.9-4.2c9.6-1.1,32.8-4.8,40.5-6.4c20.2-4.3,39.4-11.7,52.1-16c11.5-3.8,24.5-10.7,36.2-14.9
			c2.4-0.8,14.6-8.6,18-10.6c48.4-28.3,91.5-76.6,111.4-113.6c31.7-59.2,57.3-119,79.1-182.3c9.6-27.7,16-44.7,30.9-87.3H1323.3z"/>
		<path class="st4" d="M752.5,1680.5c-16.5-11.3-34.4-15.8-60.7-16.2c-29.6-0.5-58.8,5.9-82.4,19.8c-19.3,11.3-36.4,28.7-47.7,51.3
			c-15.6,31.3-37.1,73.3-37.7,116.3c-0.4,27.6,9.7,48.5,26,62c14.8,12.4,42.5,19.6,67.5,19.9c22.6,0.3,49.1-3.5,67.3-11.4
			c20.3-8.8,45.5-28.1,60.5-58.6c8.1-16.6,15.9-33.3,22.6-51.8c5.4-14.8,10.1-30.7,14-48.7C788.6,1732.3,780.2,1699.5,752.5,1680.5z
			 M683.9,1840.4c-7.3,14.7-15.8,29-34.7,35.3c-10.7,3.5-20.9,3.8-29.8,2.5c-8.9-1.4-15.3-5.5-19.6-11c-4.8-6.2-7.3-14.3-6.4-24.1
			c0.6-6.7,2.1-14.4,5.2-23.1c6.1-17.3,19.2-51.9,28.1-70.1c5.8-11.9,11-18.5,18.9-24.4c10.8-8.1,24.9-10.7,37-10.1
			c8.4,0.4,18.8,3.3,23.9,8.5c7.9,7.9,11.3,17.9,6.5,37.4c-2.4,9.3-7.5,24.3-12.9,39.1C694.1,1816.7,687.7,1832.7,683.9,1840.4z"/>
		<path class="st4" d="M949.2,1872l67.3-201.4h65.5l-93.9,258.9h-100c-1.4-52.7-1.5-151.3-3.2-202l-67,202h-66.7l93.5-258.9H946
			C947.1,1727,948.9,1843.9,949.2,1872"/>
		<path class="st4" d="M1165.7,1670.6l-165.8,258.9h69.9l31.8-51.3h84.8l-2.5,51.3h66l5.6-258.9H1165.7z M1189.5,1825.9h-26.6h-29.1
			c17.3-29,49.5-82.2,64.9-109.5C1196.6,1737.9,1192.6,1785.9,1189.5,1825.9z"/>
		<path class="st4" d="M1380.9,1771.7l-53,157.9h-68.3l94.2-258.9h113.3c-3.6,39.5-16.2,115.6-26.9,180.3l102.6-180.3h115.5
			l-94.4,258.9h-68.1l79.3-209.4L1447,1929.6h-67.8l18.9-209.2C1391.3,1743,1380.9,1771.7,1380.9,1771.7"/>
		<polyline class="st4" points="1698.8,1670.6 1768.2,1670.6 1673.9,1929.6 1604.8,1929.6 1698.8,1670.6 		"/>
		<path class="st4" d="M1777.5,1886.4c6.5-2,11-7.2,11-17c0-11-8.2-17.7-19.7-17.7h-24.7v61.2h11.5v-24.6h11.1l12.2,24.6h13.7
			L1777.5,1886.4z M1766.8,1879.2h-11.3v-17.7h11.1c5.7,0,10,3,10,8.5C1776.6,1876,1772.7,1879.2,1766.8,1879.2z"/>
		<path class="st4" d="M1802.3,1845.9c-9.9-9.8-23-15.3-36.9-15.3c-28.8,0-52.2,23.4-52.2,52.2c0,14,5.4,27,15.3,36.9
			c9.9,9.9,23,15.3,36.9,15.3c14,0,27.1-5.4,36.9-15.3c9.9-9.9,15.3-23,15.3-36.9C1817.6,1868.8,1812.2,1855.7,1802.3,1845.9z
			 M1765.4,1927.1c-11.8,0-23-4.6-31.4-13c-8.4-8.4-13-19.5-13-31.4c0-11.8,4.6-23,13-31.4c8.4-8.4,19.5-13,31.4-13
			c11.9,0,23,4.6,31.4,13c8.4,8.4,13,19.5,13,31.4C1809.7,1907.2,1789.8,1927.1,1765.4,1927.1z"/>
	</g>
	<path class="st4" d="M505.2,1929.6L467.5,1789l126.4-118.3h-86l-115.8,114.8c-0.6,0.5-1,1-1.6,1.5c0.2,0.6,0.4,1.5,0.6,2.4
		l33.5,140.2H505.2z"/>
	<polygon class="st4" points="338.8,1929.6 432.6,1670.6 362.9,1670.6 268.6,1929.6 	"/>
</g>
</svg>
