<?xml version="1.0" encoding="utf-8"?>
<!-- Generator: Adobe Illustrator 26.0.3, SVG Export Plug-In . SVG Version: 6.00 Build 0)  -->
<svg version="1.1" id="Layer_1" xmlns="http://www.w3.org/2000/svg" xmlns:xlink="http://www.w3.org/1999/xlink" x="0px" y="0px"
	 viewBox="0 0 3839 1097" style="enable-background:new 0 0 3839 1097;" xml:space="preserve">
<style type="text/css">
	.st0{fill:#797979;}
	.st1{fill:#FF8C1A;}
	.st2{fill:#FF0000;}
	.st3{fill:#FFFFFF;}
</style>
<g>
	<g>
		<g>
			<path class="st0" d="M918.5,1097c-90.9,0-157.9-71.5-157.9-162.4c0-90,66.6-163.3,159.3-163.3c57.1,0,91.3,20.2,122.8,49.9
				l-24.3,26.1c-26.5-25.2-56.2-43.2-99-43.2c-69.7,0-121.9,56.2-121.9,129.6s52.6,130.5,121.9,130.5c43.2,0,71.5-16.6,101.7-45.4
				l23.4,23C1011.5,1074.9,975.5,1097,918.5,1097z"/>
			<path class="st0" d="M1120,776.7h35.5v282h177.3v32.8h-212.7V776.7H1120z"/>
			<path class="st0" d="M1705.3,1091.6h-38.2l-36.9-83.2h-171.4l-37.3,83.2H1385l143.5-317.1h33.3L1705.3,1091.6z M1544.6,815.8
				l-72,160.6h143.5L1544.6,815.8z"/>
			<path class="st0" d="M1887.4,917.1c70.2,15.3,102.6,40.9,102.6,89.5c0,54.5-45,89.5-107.5,89.5c-49.9,0-90.9-16.7-128.7-50.4
				l22-26.1c32.8,29.7,64.3,44.5,108,44.5c42.3,0,70.2-22,70.2-54c0-29.7-15.8-46.3-81.9-60.3c-72.4-15.8-105.7-39.1-105.7-91.3
				c0-50.4,43.6-86.4,103.5-86.4c45.9,0,78.7,13,110.7,38.7l-20.7,27.4c-29.2-23.8-58.5-34.2-90.9-34.2c-40.9,0-67,22.5-67,51.3
				C1801.9,885.6,1818.1,902.2,1887.4,917.1z"/>
			<path class="st0" d="M2184.4,917.1c70.2,15.3,102.6,40.9,102.6,89.5c0,54.5-45,89.5-107.5,89.5c-49.9,0-90.9-16.7-128.7-50.4
				l22-26.1c32.8,29.7,64.3,44.5,108,44.5c42.3,0,70.2-22,70.2-54c0-29.7-15.8-46.3-81.9-60.3c-72.4-15.8-105.7-39.1-105.7-91.3
				c0-50.4,43.6-86.4,103.5-86.4c45.9,0,78.7,13,110.7,38.7l-20.7,27.4c-29.2-23.8-58.5-34.2-90.9-34.2c-40.9,0-67,22.5-67,51.3
				C2099.1,885.6,2115.1,902.2,2184.4,917.1z"/>
			<path class="st0" d="M2411.6,776.7v314.9h-35.5V776.7H2411.6L2411.6,776.7z"/>
			<path class="st0" d="M2661.2,1097c-90.9,0-157.9-71.5-157.9-162.4c0-90,66.6-163.3,159.3-163.3c57.1,0,91.3,20.2,122.8,49.9
				l-24.3,26.1c-26.5-25.2-56.2-43.2-99-43.2c-69.7,0-121.9,56.2-121.9,129.6s52.6,130.5,121.9,130.5c43.2,0,71.5-16.6,101.7-45.4
				l23.4,23C2754.4,1074.9,2718.4,1097,2661.2,1097z"/>
			<path class="st0" d="M2975.8,917.1c70.2,15.3,102.6,40.9,102.6,89.5c0,54.5-45,89.5-107.5,89.5c-49.9,0-90.9-16.7-128.7-50.4
				l22-26.1c32.8,29.7,64.3,44.5,108,44.5c42.3,0,70.2-22,70.2-54c0-29.7-15.8-46.3-81.9-60.3c-72.4-15.8-105.7-39.1-105.7-91.3
				c0-50.4,43.6-86.4,103.5-86.4c45.9,0,78.7,13,110.7,38.7l-20.7,27.4c-29.2-23.8-58.5-34.2-90.9-34.2c-40.9,0-67,22.5-67,51.3
				C2890.2,885.6,2906.4,902.2,2975.8,917.1z"/>
		</g>
	</g>
	<g>
		<g>
			<path class="st1" d="M386.2,0c-12.7,40.7-23.2,71.3-39.1,112.5c-14.9,38.7-42,70-79.8,87.2c-42.1,19.1-87.5,16-131,30.7
				C51.2,258.9,24.3,355,0,433.7h231.9c12.7-39.1,30.3-108,63.7-157c13.9-20.5,34.5-35.3,51.7-44.7c10-5.5,19.6-7.2,29.8-9.6
				c9-2.1,19.5-4.2,27.5-4.8c4.9-0.3,10-1.1,15.3-1.6c5.8-0.5,10.6-1.1,15.9-2.1c4.8-0.5,16.3-2.4,20.1-3.2
				c10.1-2.1,19.5-5.8,25.9-7.9c5.7-1.9,12.2-5.3,18-7.4c1.2-0.4,7.3-4.3,9-5.3c24-14,45.5-38,55.3-56.4
				c15.7-29.4,28.4-59.1,39.3-90.5c4.8-13.7,7.9-22.2,15.3-43.3H386.2z"/>
			<path class="st2" d="M541.5,212.4c-12.7,40.7-23.2,71.3-39.1,112.5c-14.9,38.7-42,70-79.8,87.1c-42.1,19.2-87.5,16.1-131,30.6
				c-85.1,28.6-112,124.7-136.3,203.4h231.9c12.7-39.1,30.3-108,63.7-157c14-20.5,34.6-35.3,51.8-44.7c10-5.5,19.6-7.2,29.8-9.6
				c9-2.1,19.6-4.2,27.5-4.8c4.9-0.3,10-1.1,15.3-1.6c5.8-0.5,10.6-1,15.8-2.1c4.8-0.5,16.3-2.4,20.1-3.2
				c10.1-2.1,19.5-5.8,25.9-7.9c5.7-1.9,12.1-5.3,18-7.4c1.2-0.4,7.3-4.3,9-5.3c24-14,45.4-38.1,55.3-56.4
				c15.7-29.4,28.4-59.1,39.3-90.5c4.8-13.7,7.9-22.2,15.3-43.3H541.5z"/>
		</g>
		<g>
			<g>
				<path class="st0" d="M1822.8,87.7c-32.7-22.5-68.4-31.3-120.6-32.1c-58.8-1-116.7,11.8-163.6,39.4
					c-38.2,22.4-72.2,56.9-94.6,101.8c-31,62.1-73.7,145.5-74.9,230.9c-0.7,54.8,19.2,96.2,51.5,123.2c29.4,24.5,84.4,38.9,134,39.6
					c44.8,0.6,97.6-6.9,133.7-22.7c40.3-17.5,90.3-55.7,120.1-116.4c16.1-33,31.6-66.1,44.9-102.8c10.8-29.4,20-61,27.7-96.7
					C1894.4,190.5,1877.8,125.4,1822.8,87.7z M1686.5,405.1c-14.5,29.1-31.3,57.7-68.8,70c-21.2,7-41.6,7.5-59.1,4.9
					c-17.6-2.8-30.3-10.9-38.9-21.9c-9.5-12.2-14.5-28.4-12.6-47.9c1.3-13.4,4.1-28.6,10.3-45.8c12.1-34.4,38.2-103,55.8-139.1
					c11.6-23.7,21.8-36.7,37.6-48.5c21.3-16.1,49.4-21.2,73.4-20.1c16.6,0.8,37.3,6.6,47.5,16.9c15.6,15.6,22.4,35.5,12.8,74.3
					c-4.7,18.5-14.8,48.3-25.6,77.6C1706.9,358,1694.1,389.8,1686.5,405.1z"/>
				<path class="st0" d="M2213.3,467.8l133.6-399.7H2477l-186.4,514H2092c-2.7-104.7-3-300.4-6.4-401l-133.1,401h-132.5l185.5-514
					h201.3C2209,179.9,2212.6,412.1,2213.3,467.8"/>
				<path class="st0" d="M2643.1,68.1l-329.1,514h138.8l63-101.8H2684l-4.9,101.8h131l11.2-514H2643.1z M2690.2,376.3h-52.8h-57.7
					c34.3-57.6,98.2-163.1,128.9-217.4C2704.3,201.7,2696.5,296.9,2690.2,376.3z"/>
				<path class="st0" d="M3070.1,268.6L2965,582.1h-135.5l187-514h224.9c-7.2,78.5-32.1,229.4-53.3,357.9l203.6-357.9h229.2
					l-187.4,514h-135.2l157.3-415.6l-254.3,415.6h-134.6l37.6-415.3C3090.8,211.7,3070.1,268.6,3070.1,268.6"/>
				<polyline class="st0" points="3701.3,68.1 3839,68.1 3651.8,582.1 3514.7,582.1 3701.3,68.1 				"/>
			</g>
			<path class="st0" d="M1331.9,582.1L1257,302.9l250.9-234.9h-170.7l-230,227.9c-1.3,1-2,2.1-3.2,3c0.3,1.2,0.8,2.9,1.3,4.8
				l66.5,278.3H1331.9z"/>
			<polygon class="st0" points="1001.6,582.1 1187.6,68.1 1049.4,68.1 862.2,582.1 			"/>
		</g>
	</g>
</g>
</svg>
