<?xml version="1.0" encoding="utf-8"?>
<!-- Generator: Adobe Illustrator 26.0.3, SVG Export Plug-In . SVG Version: 6.00 Build 0)  -->
<svg version="1.1" id="Layer_1" xmlns="http://www.w3.org/2000/svg" xmlns:xlink="http://www.w3.org/1999/xlink" x="0px" y="0px"
	 viewBox="0 0 3839 1183.3" style="enable-background:new 0 0 3839 1183.3;" xml:space="preserve">
<style type="text/css">
	.st0{fill:#797979;}
	.st1{fill:#FF8C1A;}
	.st2{fill:#FF0000;}
	.st3{fill:#FFFFFF;}
</style>
<g>
	<g>
		<path class="st1" d="M707.2,0c-23.3,74.5-42.6,130.6-71.6,206.1c-27.3,70.9-77,128.2-146.1,159.6
			c-77.2,35.1-160.2,29.4-239.9,56.1C93.8,474.1,44.5,650.2,0,794.3h424.7c23.2-71.6,55.5-197.8,116.7-287.5
			c25.5-37.6,63.3-64.6,94.8-81.9c18.3-10,35.9-13.2,54.6-17.5c16.5-3.9,35.8-7.8,50.3-8.7c9.1-0.6,18.3-2,28-2.9
			c10.6-1,19.4-2,29-3.9c8.7-1,29.8-4.3,36.7-5.8c18.4-3.9,35.8-10.6,47.4-14.5c10.5-3.5,22.3-9.7,32.9-13.6
			c2.2-0.8,13.3-7.8,16.4-9.7c44-25.7,83.2-69.7,101.3-103.2c28.8-53.8,52-108.2,71.9-165.7c8.7-25.2,14.5-40.6,28-79.3H707.2z"/>
		<path class="st2" d="M991.7,388.9c-23.3,74.5-42.6,130.6-71.6,206.1c-27.3,70.9-77,128.2-146.1,159.6
			c-77.2,35.1-160.3,29.4-239.9,56.1c-155.8,52.3-205.1,228.3-249.6,372.5h424.7c23.2-71.6,55.5-197.8,116.7-287.5
			c25.6-37.6,63.3-64.6,94.8-81.9c18.3-10.1,35.9-13.1,54.6-17.6c16.5-3.9,35.8-7.8,50.3-8.7c9.1-0.6,18.3-2,28-2.9
			c10.6-0.9,19.3-1.9,29-3.9c8.7-1,29.9-4.3,36.8-5.8c18.4-3.9,35.8-10.6,47.4-14.5c10.5-3.5,22.2-9.7,32.9-13.6
			c2.2-0.8,13.3-7.8,16.4-9.6c44-25.7,83.2-69.7,101.3-103.3c28.8-53.8,52.1-108.2,71.9-165.7c8.7-25.2,14.6-40.7,28.1-79.3H991.7z"
			/>
	</g>
	<g>
		<g>
			<g>
				<path d="M2248.8,404.4c-25.8-17.7-53.9-24.7-95.1-25.3c-46.4-0.8-92.1,9.3-129.1,31.1c-30.2,17.7-56.9,44.9-74.6,80.3
					c-24.5,49-58.1,114.7-59.1,182.1c-0.6,43.2,15.2,75.9,40.7,97.1c23.2,19.3,66.6,30.7,105.7,31.2c35.4,0.5,76.9-5.4,105.4-17.9
					c31.8-13.8,71.2-43.9,94.7-91.8c12.7-26,24.9-52.2,35.4-81.1c8.5-23.2,15.8-48.1,21.9-76.3
					C2305.2,485.4,2292.2,434.1,2248.8,404.4z M2141.2,654.7c-11.5,23-24.7,45.5-54.3,55.2c-16.7,5.5-32.8,5.9-46.6,3.9
					c-13.9-2.2-23.9-8.6-30.7-17.3c-7.5-9.7-11.5-22.4-10-37.8c1-10.5,3.2-22.5,8.1-36.1c9.6-27.1,30.1-81.3,44-109.7
					c9.1-18.7,17.2-28.9,29.7-38.2c16.8-12.7,39-16.8,57.9-15.8c13.1,0.7,29.4,5.2,37.5,13.4c12.3,12.3,17.7,28,10.1,58.6
					c-3.7,14.6-11.7,38.1-20.2,61.2C2157.3,617.6,2147.2,642.7,2141.2,654.7z"/>
				<path d="M2556.7,704.2l105.4-315.3h102.6l-147,405.4h-156.6c-2.2-82.5-2.4-236.9-5-316.3l-105,316.3h-104.5L2393,388.9h158.8
					C2553.4,477.1,2556.2,660.2,2556.7,704.2"/>
				<path d="M2895.7,388.9l-259.6,405.4h109.5l49.7-80.3H2928l-3.9,80.3h103.3l8.8-405.4H2895.7z M2932.9,632h-41.7h-45.5
					c27.1-45.4,77.5-128.6,101.7-171.5C2944,494.3,2937.8,569.4,2932.9,632z"/>
				<path d="M3232.6,547.1l-82.9,247.2h-106.9l147.5-405.4h177.4c-5.7,61.9-25.3,181-42,282.3l160.6-282.3H3667l-147.8,405.4h-106.6
					l124.1-327.8l-200.6,327.8H3230l29.7-327.6C3248.8,502.2,3232.6,547.1,3232.6,547.1"/>
				<polyline points="3730.4,388.9 3839,388.9 3691.4,794.3 3583.2,794.3 3730.4,388.9 				"/>
			</g>
			<path d="M1861.6,794.3l-59.1-220.2l197.9-185.2h-134.6l-181.4,179.8c-1,0.8-1.5,1.6-2.5,2.4c0.3,0.9,0.6,2.3,1,3.8l52.5,219.5
				H1861.6z"/>
			<polygon points="1601.1,794.3 1747.8,388.9 1638.8,388.9 1491.1,794.3 			"/>
		</g>
	</g>
</g>
</svg>
