<?xml version="1.0" encoding="utf-8"?>
<!-- Generator: Adobe Illustrator 26.0.3, SVG Export Plug-In . SVG Version: 6.00 Build 0)  -->
<svg version="1.1" id="Layer_1" xmlns="http://www.w3.org/2000/svg" xmlns:xlink="http://www.w3.org/1999/xlink" x="0px" y="0px"
	 viewBox="0 0 3839 1127.2" style="enable-background:new 0 0 3839 1127.2;" xml:space="preserve">
<style type="text/css">
	.st0{fill:#797979;}
	.st1{fill:#FF8C1A;}
	.st2{fill:#FF0000;}
	.st3{fill:#FFFFFF;}
</style>
<g>
	<g>
		<path class="st1" d="M673.7,0c-22.1,70.9-40.6,124.4-68.2,196.3c-26,67.5-73.3,122.2-139.2,152.1c-73.5,33.4-152.7,28-228.6,53.5
			C89.4,451.6,42.4,619.4,0,756.7h404.6c22.1-68.2,52.9-188.4,111.2-273.9c24.3-35.8,60.3-61.6,90.3-78
			c17.4-9.6,34.2-12.5,52.1-16.7c15.7-3.7,34.1-7.4,47.9-8.3c8.6-0.6,17.5-1.9,26.7-2.8c10.1-0.9,18.5-1.9,27.7-3.7
			c8.3-0.9,28.4-4.1,35-5.5c17.5-3.7,34.1-10.1,45.2-13.8c10-3.4,21.2-9.2,31.4-12.9c2.1-0.7,12.7-7.5,15.6-9.2
			c41.9-24.5,79.3-66.4,96.5-98.3c27.4-51.2,49.6-103.1,68.5-157.9c8.3-24,13.8-38.7,26.7-75.6H673.7z"/>
		<path class="st2" d="M944.7,370.5c-22.1,71-40.6,124.4-68.2,196.4c-26,67.5-73.3,122.1-139.2,152c-73.5,33.4-152.7,28-228.6,53.5
			C360.3,822.1,313.4,989.9,271,1127.2h404.6c22.1-68.2,52.9-188.4,111.1-273.9c24.4-35.8,60.3-61.6,90.3-78
			c17.4-9.6,34.2-12.5,52-16.7c15.7-3.7,34.1-7.4,48-8.3c8.6-0.6,17.5-1.9,26.7-2.8c10.1-0.9,18.4-1.8,27.6-3.7
			c8.3-0.9,28.5-4.1,35-5.5c17.5-3.7,34.1-10.1,45.2-13.8c10-3.3,21.2-9.2,31.4-12.9c2.1-0.7,12.7-7.5,15.6-9.2
			c41.9-24.5,79.3-66.4,96.5-98.4c27.4-51.3,49.6-103.1,68.5-157.9c8.3-24,13.9-38.7,26.8-75.6H944.7z"/>
	</g>
	<g>
		<g>
			<path d="M3786.7,443.3c8.5-2.7,14.3-9.4,14.3-22.2c0-14.3-10.6-23-25.7-23h-32.3v79.9h15v-32h14.4l15.9,32h17.9L3786.7,443.3z
				 M3772.8,433.8h-14.7v-23.1h14.5c7.5,0,13,3.9,13,11.1C3785.6,429.7,3780.5,433.8,3772.8,433.8z"/>
			<path d="M3819.1,390.4c-12.9-12.8-29.9-19.9-48.1-19.9c-37.5,0-68.1,30.5-68.1,68.1c0,18.2,7.1,35.3,19.9,48.1
				c12.9,12.9,30,19.9,48.1,19.9c18.2,0,35.3-7.1,48.1-19.9c12.9-12.9,19.9-29.9,19.9-48.1C3839,420.4,3831.9,403.3,3819.1,390.4z
				 M3770.9,496.4c-15.4,0-30-6-40.9-17c-10.9-10.9-16.9-25.4-16.9-40.9c0-15.4,6-30,16.9-40.9c10.9-10.9,25.5-17,40.9-17
				c15.5,0,30,6,40.9,17c10.9,10.9,17,25.5,17,40.9C3828.8,470.5,3802.8,496.4,3770.9,496.4z"/>
		</g>
		<g>
			<g>
				<path d="M2142.3,385.2c-24.6-16.9-51.4-23.5-90.6-24.1c-44.2-0.8-87.7,8.9-123,29.6c-28.7,16.8-54.2,42.8-71.1,76.5
					c-23.3,46.6-55.4,109.3-56.3,173.5c-0.6,41.2,14.5,72.3,38.7,92.5c22.1,18.4,63.4,29.2,100.7,29.7c33.7,0.4,73.3-5.2,100.4-17
					c30.3-13.2,67.9-41.9,90.2-87.4c12.1-24.8,23.7-49.7,33.8-77.2c8.1-22.1,15-45.8,20.8-72.6
					C2196,462.4,2183.6,413.5,2142.3,385.2z M2039.8,623.7c-10.9,21.9-23.5,43.3-51.7,52.6c-15.9,5.2-31.2,5.7-44.4,3.7
					c-13.2-2.1-22.8-8.2-29.2-16.4c-7.1-9.2-10.9-21.4-9.5-36c1-10,3.1-21.5,7.7-34.4c9.1-25.8,28.7-77.4,41.9-104.5
					c8.7-17.8,16.4-27.5,28.2-36.4c16-12.1,37.1-16,55.1-15.1c12.5,0.6,28,5,35.7,12.7c11.7,11.7,16.8,26.7,9.6,55.8
					c-3.5,13.9-11.1,36.3-19.2,58.3C2055.2,588.3,2045.5,612.2,2039.8,623.7z"/>
				<path d="M2435.6,670.8l100.4-300.3h97.7l-140.1,386.2h-149.2c-2.1-78.6-2.2-225.7-4.8-301.3l-100,301.3h-99.5l139.4-386.2h151.2
					C2432.4,454.5,2435.2,628.9,2435.6,670.8"/>
				<path d="M2758.6,370.5l-247.3,386.2h104.3l47.4-76.5h126.4l-3.7,76.5h98.4l8.4-386.2H2758.6z M2794,602.1h-39.7h-43.4
					c25.8-43.3,73.8-122.5,96.8-163.3C2804.6,470.9,2798.7,542.4,2794,602.1z"/>
				<path d="M3079.5,521.2l-79,235.5h-101.8l140.5-386.2h169c-5.4,59-24.1,172.4-40.1,268.9l153-268.9h172.2l-140.8,386.2H3251
					l118.2-312.3l-191.1,312.3H3077l28.2-312C3095,478.4,3079.5,521.2,3079.5,521.2"/>
				<polyline points="3553.7,370.5 3657.2,370.5 3516.5,756.7 3413.5,756.7 3553.7,370.5 				"/>
			</g>
			<path d="M1773.4,756.7L1717.1,547l188.5-176.5h-128.2l-172.8,171.2c-1,0.8-1.5,1.5-2.4,2.2c0.3,0.9,0.6,2.2,1,3.6l50,209.1
				H1773.4z"/>
			<polygon points="1525.2,756.7 1665,370.5 1561.1,370.5 1420.5,756.7 			"/>
		</g>
	</g>
</g>
</svg>
