<?xml version="1.0" encoding="utf-8"?>
<!-- Generator: Adobe Illustrator 26.0.3, SVG Export Plug-In . SVG Version: 6.00 Build 0)  -->
<svg version="1.1" id="Layer_1" xmlns="http://www.w3.org/2000/svg" xmlns:xlink="http://www.w3.org/1999/xlink" x="0px" y="0px"
	 viewBox="0 0 3839 681" style="enable-background:new 0 0 3839 681;" xml:space="preserve">
<style type="text/css">
	.st0{fill:#797979;}
	.st1{fill:#FF8C1A;}
	.st2{fill:#FF0000;}
	.st3{fill:#FFFFFF;}
</style>
<g>
	<polyline points="390.3,13.6 604.9,13.6 379.4,301.6 623,667.5 398.5,667.5 182.9,319.7 181.1,319.7 181.1,667.5 0,667.5 0,13.6 
		181.1,13.6 181.1,300.7 182.9,300.7 390.3,13.6 	"/>
	<path d="M919.9,126.8c-123.2,0-148.5,114.1-148.5,216.4c0,96.9,25.3,211,148.5,211c123.2,0,148.5-114.1,148.5-211
		C1068.5,240.9,1043.1,126.8,919.9,126.8 M581.2,340.5C581.2,125,703.5,0,919.9,0c216.4,0,338.7,125,338.7,340.5
		c0,215.5-122.3,340.5-338.7,340.5C703.5,681,581.2,556.1,581.2,340.5z"/>
	<polyline points="1310,13.6 1563.6,13.6 1782.8,500.8 1784.6,499 1784.6,13.6 1947.6,13.6 1947.6,667.5 1696.7,667.5 1474.9,166.6 
		1473.1,166.6 1473.1,667.5 1310,667.5 1310,13.6 	"/>
	<path d="M2436.4,412.9l-83.3-271.7h-2.7l-88.7,271.7H2436.4 M1991.7,667.5l258.1-653.9h221l258.1,653.9h-204.7l-43.5-127.7h-265.4
		l-42.6,127.7H1991.7z"/>
	<polyline points="2772.2,667.5 2772.2,13.6 3059.3,13.6 3166.1,456.4 3167.9,456.4 3271.2,13.6 3552.8,13.6 3552.8,667.5 
		3394.3,667.5 3394.3,120.5 3392.5,118.6 3239.5,667.5 3076.5,667.5 2932.5,114.1 2930.7,115.9 2930.7,667.5 2772.2,667.5 	"/>
	<rect x="3657.9" y="13.6" width="181.1" height="653.8"/>
</g>
</svg>
