<?xml version="1.0" encoding="utf-8"?>
<!-- Generator: Adobe Illustrator 25.0.0, SVG Export Plug-In . SVG Version: 6.00 Build 0)  -->
<svg version="1.1" id="Layer_1" xmlns="http://www.w3.org/2000/svg" xmlns:xlink="http://www.w3.org/1999/xlink" x="0px" y="0px"
	 viewBox="0 0 3839 1638.4" style="enable-background:new 0 0 3839 1638.4;" xml:space="preserve">
<style type="text/css">
	.st0{fill:#9A9A9A;}
	.st1{fill:#FFFFFF;}
	.st2{fill:#E31E26;}
</style>
<g>
	<g>
		<g>
			<g>
				<path class="st2" d="M3248.6,1124.4H589.3C252.9,1124.4,0,883.3,0,563.4C0,242.3,252.9,0,588.1,0h2661.7
					C3586.1,0,3839,242.3,3839,563.4C3840.2,883.3,3584.9,1124.4,3248.6,1124.4z"/>
			</g>
		</g>
		<g>
			<path class="st1" d="M786.9,644.5l-180-291.7H476.3v417.5h129.4V478.7l181.1,291.7h129.4V352.8H786.9V644.5z M1810.1,492.8v-41.2
				h-68.2v-56.5H1616v56.5h-68.2v41.2h68.2v277.6h125.8V492.8H1810.1z M988,770.4h125.8V492.8H988V770.4z M988,437.5h125.8v-85.9
				H988V437.5z M3187.4,474c-101.1,0-183.5,69.4-183.5,156.4c0,85.9,82.3,156.4,183.5,156.4c101.2,0,183.5-69.4,183.5-156.4
				S3290.9,474,3187.4,474z M3238,688.1c0,44.7-25.9,62.3-51.8,62.3c-24.7,0-51.8-18.8-51.8-62.3c0-16.5,0-60,0-60s0-41.2,0-57.6
				c0-43.5,25.9-62.3,51.8-62.3c24.7,0,51.8,17.6,51.8,62.3c0,16.5,0,48.2,0,58.8C3238,630.4,3238,671.6,3238,688.1z M2840.4,506.9
				c-20-11.8-41.2-22.3-70.6-24.7c-90.6-8.2-160,71.7-160,145.8c0,96.4,74.1,132.9,85.9,137.6c42.3,20,96.4,20,144.7-10.6
				c0,2.4,0,16.5,0,16.5h123.5V354h-123.5C2840.4,352.8,2840.4,442.2,2840.4,506.9z M2840.4,630.4c0,0,0,31.8,0,49.4
				c0,42.3-29.4,54.1-49.4,54.1c-20,0-49.4-11.8-49.4-54.1c0-15.3,0-49.4,0-49.4s0-35.3,0-49.4c0-43.5,29.4-54.1,49.4-54.1
				c20,0,49.4,10.6,49.4,54.1C2840.4,595.1,2840.4,630.4,2840.4,630.4z M1407.9,479.9c-41.2,1.2-76.5,18.8-100,42.3
				c0-7.1,0-29.4,0-29.4h-124.7v277.6h124.7c0,0,0-170.5,0-182.3c0-24.7,25.9-50.6,60-50.6c34.1,0,57.6,27.1,57.6,50.6
				c0,17.6,0,182.3,0,182.3h124.7c0,0,0-131.7,0-150.5C1550.2,509.3,1454.9,478.7,1407.9,479.9z M2428.8,479.9
				c-41.2,1.2-76.5,18.8-100,42.3c0-7.1,0-29.4,0-29.4h-124.7v277.6h124.7c0,0,0-170.5,0-182.3c0-24.7,25.9-50.6,60-50.6
				s57.6,27.1,57.6,50.6c0,17.6,0,182.3,0,182.3h124.7c0,0,0-131.7,0-150.5C2569.9,509.3,2474.6,478.7,2428.8,479.9z M2164.1,632.8
				c0-85.9-83.5-157.6-185.8-157.6s-184.7,69.4-184.7,156.4c0,85.9,82.3,156.4,184.7,156.4c84.7,0,156.4-48.2,178.8-114.1h-124.7
				c0,0,0,1.2,0,16.5c0,50.6-32.9,62.3-51.8,62.3c-18.8,0-52.9-11.8-52.9-62.3c0-15.3,0-57.6,0-57.6H2164.1z M1937.1,535.2
				c9.4-17.6,28.2-24.7,44.7-25.9c16.5,0,34.1,8.2,44.7,25.9c8.2,14.1,8.2,30.6,8.2,54.1h-104.7
				C1927.7,564.6,1927.7,549.3,1937.1,535.2z M3422.6,404.6c0-14.1-10.6-20-30.6-20h-28.2v71.7h17.6v-29.4h8.2l14.1,29.4h18.8
				l-15.3-31.8C3416.8,421.1,3422.6,414,3422.6,404.6z M3389.7,415.2h-8.2V394h7.1c10.6,0,15.3,3.5,15.3,10.6
				C3405,412.8,3399.1,415.2,3389.7,415.2z M3389.7,356.4c-35.3,0-64.7,28.2-64.7,64.7c0,35.3,29.4,64.7,64.7,64.7
				c35.3,0,64.7-29.4,64.7-64.7C3454.4,384.6,3425,356.4,3389.7,356.4z M3389.7,472.8c-28.2,0-51.8-23.5-51.8-51.8
				c0-28.2,23.5-51.8,51.8-51.8c28.2,0,51.8,23.5,51.8,51.8C3441.5,449.3,3419.1,472.8,3389.7,472.8z M3249.7,118.8H589.3
				c-281.1-1.2-470.5,202.3-470.5,444.6s188.2,442.2,471.6,442.2h2659.3c282.3,0,471.6-199.9,471.6-442.2
				C3720.2,319.9,3530.8,117.6,3249.7,118.8z M3248.6,897.4H590.4C365.8,898.6,229.4,748,229.4,562.2S367,228.2,590.4,227h2658.1
				c223.5,0,361.1,149.4,361.1,335.2S3472,897.4,3248.6,897.4z M3249.7,118.8H589.3c-281.1-1.2-470.5,202.3-470.5,444.6
				s188.2,442.2,471.6,442.2h2659.3c282.3,0,471.6-199.9,471.6-442.2C3720.2,319.9,3530.8,117.6,3249.7,118.8z M3248.6,897.4H590.4
				C365.8,898.6,229.4,748,229.4,562.2S367,228.2,590.4,227h2658.1c223.5,0,361.1,149.4,361.1,335.2S3472,897.4,3248.6,897.4z
				 M3249.7,118.8H589.3c-281.1-1.2-470.5,202.3-470.5,444.6s188.2,442.2,471.6,442.2h2659.3c282.3,0,471.6-199.9,471.6-442.2
				C3720.2,319.9,3530.8,117.6,3249.7,118.8z M3248.6,897.4H590.4C365.8,898.6,229.4,748,229.4,562.2S367,228.2,590.4,227h2658.1
				c223.5,0,361.1,149.4,361.1,335.2S3472,897.4,3248.6,897.4z"/>
		</g>
	</g>
	<g>
		<g>
			<path class="st2" d="M887.6,1638.4c-90.9,0-157.9-71.5-157.9-162.4c0-90,66.6-163.3,159.3-163.3c57.1,0,91.3,20.2,122.8,49.9
				l-24.3,26.1c-26.5-25.2-56.2-43.2-99-43.2c-69.7,0-121.9,56.2-121.9,129.6s52.6,130.5,121.9,130.5c43.2,0,71.5-16.6,101.7-45.4
				l23.4,23C980.7,1616.4,944.7,1638.4,887.6,1638.4z"/>
			<path class="st2" d="M1089.1,1318h35.5v282.1H1302v32.8h-212.8V1318z"/>
			<path class="st2" d="M1674.6,1633h-38.2l-36.9-83.2H1428l-37.3,83.2h-36.5l143.5-317.2h33.3L1674.6,1633z M1513.9,1357.2
				l-72,160.6h143.5L1513.9,1357.2z"/>
			<path class="st2" d="M1856.8,1458.4c70.2,15.3,102.6,40.9,102.6,89.5c0,54.5-45,89.5-107.5,89.5c-49.9,0-90.9-16.7-128.7-50.4
				l22-26.1c32.8,29.7,64.3,44.5,108,44.5c42.3,0,70.2-22,70.2-54c0-29.7-15.8-46.3-81.9-60.3c-72.4-15.8-105.7-39.1-105.7-91.3
				c0-50.4,43.6-86.4,103.5-86.4c45.9,0,78.7,13,110.7,38.7l-20.7,27.4c-29.2-23.8-58.5-34.2-90.9-34.2c-40.9,0-67,22.5-67,51.3
				C1771.3,1426.9,1787.5,1443.6,1856.8,1458.4z"/>
			<path class="st2" d="M2153.8,1458.4c70.2,15.3,102.6,40.9,102.6,89.5c0,54.5-45,89.5-107.5,89.5c-49.9,0-90.9-16.7-128.7-50.4
				l22-26.1c32.8,29.7,64.3,44.5,108,44.5c42.3,0,70.2-22,70.2-54c0-29.7-15.8-46.3-81.9-60.3c-72.4-15.8-105.7-39.1-105.7-91.3
				c0-50.4,43.6-86.4,103.5-86.4c45.9,0,78.7,13,110.7,38.7l-20.7,27.4c-29.2-23.8-58.5-34.2-90.9-34.2c-40.9,0-67,22.5-67,51.3
				C2068.3,1426.9,2084.5,1443.6,2153.8,1458.4z"/>
			<path class="st2" d="M2381.1,1318v315h-35.5v-315H2381.1z"/>
			<path class="st2" d="M2630.8,1638.4c-90.9,0-157.9-71.5-157.9-162.4c0-90,66.6-163.3,159.3-163.3c57.1,0,91.3,20.2,122.8,49.9
				l-24.3,26.1c-26.5-25.2-56.2-43.2-99-43.2c-69.7,0-121.9,56.2-121.9,129.6s52.6,130.5,121.9,130.5c43.2,0,71.5-16.6,101.7-45.4
				l23.4,23C2724,1616.4,2688,1638.4,2630.8,1638.4z"/>
			<path class="st2" d="M2945.4,1458.4c70.2,15.3,102.6,40.9,102.6,89.5c0,54.5-45,89.5-107.5,89.5c-49.9,0-90.9-16.7-128.7-50.4
				l22-26.1c32.8,29.7,64.3,44.5,108,44.5c42.3,0,70.2-22,70.2-54c0-29.7-15.8-46.3-81.9-60.3c-72.4-15.8-105.7-39.1-105.7-91.3
				c0-50.4,43.6-86.4,103.5-86.4c45.9,0,78.7,13,110.7,38.7l-20.7,27.4c-29.2-23.8-58.5-34.2-90.9-34.2c-40.9,0-67,22.5-67,51.3
				C2859.9,1426.9,2876.1,1443.6,2945.4,1458.4z"/>
		</g>
	</g>
</g>
</svg>
