<?xml version="1.0" encoding="utf-8"?>
<!-- Generator: Adobe Illustrator 26.3.1, SVG Export Plug-In . SVG Version: 6.00 Build 0)  -->
<svg version="1.1" id="Layer_1" xmlns="http://www.w3.org/2000/svg" xmlns:xlink="http://www.w3.org/1999/xlink" x="0px" y="0px"
	 viewBox="0 0 3839 521.4" style="enable-background:new 0 0 3839 521.4;" xml:space="preserve">
<style type="text/css">
	.st0{fill:#606060;}
	.st1{fill:#FF0000;}
	.st2{fill:#FFFFFF;}
</style>
<g>
	<path class="st1" d="M678.3,79.8L576.2,413.7c-16.4,53.6,23.7,107.7,79.7,107.7h298.5c49.6,0,93.4-32.4,107.9-79.8l102.1-333.8
		C1180.8,54.2,1140.7,0,1084.7,0H786.2C736.6,0,692.8,32.4,678.3,79.8z M725.8,354.8l60.8-198.6c5.5-18,22.2-30.4,41-30.4h157.1
		c21.2,0,36.4,20.5,30.2,40.8l-60.8,198.6c-5.5,18-22.2,30.4-41,30.4H756C734.8,395.6,719.6,375.1,725.8,354.8z"/>
	<path class="st1" d="M1221.8,521.4l121-395.6h100.8c21.2,0,36.4,20.5,30.2,40.8l-108.5,354.8h131.6l121-395.6h100.8
		c21.2,0,36.4,20.5,30.2,40.8l-108.5,354.8h131.6l116.5-380.9C1909.7,70.6,1857.4,0,1784.4,0h-128.1h-131.6h-143.4h-131.6
		l-159.5,521.4H1221.8z"/>
	<polygon class="st1" points="2900.3,0 2432.3,0 2393.8,125.8 2561.8,125.8 2440.8,521.4 2572.3,521.4 2693.4,125.8 2861.8,125.8 	
		"/>
	<path class="st1" d="M2133.5,125.8h212.2L2384.2,0h-314.5c-141.2,0-188.2,189-63.4,255.1l150.6,79.8c29.7,15.7,18.5,60.7-15.1,60.7
		h-302.7l-38.5,125.8h358.9c156.2,0,208.1-209,70.2-282.2l-109.8-58.2C2092.8,166.7,2103,125.8,2133.5,125.8z"/>
	<path class="st1" d="M574.4,268.8l62.8-205.4c9.7-31.6-14-63.5-47-63.5H291.1h-86.5h-45.1L121,125.8h131.6h81.1h113.5
		c19.6,0,33.5,18.9,27.8,37.6l0,0c-4.2,13.9-17,23.3-31.6,23.3H333.7h-99.7H102.4L0,521.4h131.6l64.2-209.7l178.8,209.7h165.3
		l-178-208.8h153.4C542.4,312.6,566.4,294.8,574.4,268.8z"/>
	<path class="st1" d="M3774,268.8l62.8-205.4c9.7-31.6-14-63.5-47-63.5h-299.1h-86.5h-45.1l-38.5,125.8h131.6h81.1h113.5
		c19.6,0,33.5,18.9,27.8,37.6v0c-4.2,13.9-17,23.3-31.6,23.3h-109.8h-99.7H3302l-102.4,334.6h131.6l64.2-209.7l178.8,209.7h165.3
		l-178-208.8h153.4C3742,312.6,3766,294.8,3774,268.8z"/>
	<polygon class="st1" points="3063.3,0 2643.7,521.4 2805.2,521.4 2914.3,385.8 2847.7,316.2 2970.3,316.2 3138.6,107.1 
		3074.6,316.2 3184.3,316.2 3053,386.8 3011.9,521.4 3143.4,521.4 3302.9,0 	"/>
</g>
</svg>
