<?xml version="1.0" encoding="utf-8"?>
<!-- Generator: Adobe Illustrator 25.0.0, SVG Export Plug-In . SVG Version: 6.00 Build 0)  -->
<svg version="1.1" id="Layer_1" xmlns="http://www.w3.org/2000/svg" xmlns:xlink="http://www.w3.org/1999/xlink" x="0px" y="0px"
	 viewBox="0 0 3839 524" style="enable-background:new 0 0 3839 524;" xml:space="preserve">
<style type="text/css">
	.st0{fill:#FFFFFF;}
	.st1{fill:url(#SVGID_1_);}
	.st2{fill:url(#SVGID_2_);}
	.st3{fill:url(#SVGID_3_);}
	.st4{fill:url(#SVGID_4_);}
	.st5{fill:url(#SVGID_5_);}
	.st6{fill:url(#SVGID_6_);}
	.st7{fill:url(#SVGID_7_);}
	.st8{fill:url(#SVGID_8_);}
	.st9{fill:url(#SVGID_9_);}
	.st10{fill:url(#SVGID_10_);}
	.st11{fill:url(#SVGID_11_);}
	.st12{fill:url(#SVGID_12_);}
	.st13{fill:url(#SVGID_13_);}
	.st14{fill:url(#SVGID_14_);}
	.st15{fill:url(#SVGID_15_);}
	.st16{fill:url(#SVGID_16_);}
	.st17{fill:url(#SVGID_17_);}
	.st18{fill:url(#SVGID_18_);}
	.st19{fill:url(#SVGID_19_);}
	.st20{fill:url(#SVGID_20_);}
	.st21{fill:url(#SVGID_21_);}
	.st22{fill:url(#SVGID_22_);}
	.st23{fill:url(#SVGID_23_);}
	.st24{fill:url(#SVGID_24_);}
	.st25{fill:url(#SVGID_25_);}
	.st26{fill:url(#SVGID_26_);}
	.st27{fill:url(#SVGID_27_);}
	.st28{fill:url(#SVGID_28_);}
	.st29{fill:url(#SVGID_29_);}
	.st30{fill:url(#SVGID_30_);}
	.st31{fill:url(#SVGID_31_);}
	.st32{fill:url(#SVGID_32_);}
	.st33{fill:url(#SVGID_33_);}
	.st34{fill:url(#SVGID_34_);}
	.st35{fill:url(#SVGID_35_);}
	.st36{fill:url(#SVGID_36_);}
	.st37{fill:url(#SVGID_37_);}
	.st38{fill:url(#SVGID_38_);}
	.st39{fill:url(#SVGID_39_);}
	.st40{fill:url(#SVGID_40_);}
	.st41{fill:url(#SVGID_41_);}
	.st42{fill:url(#SVGID_42_);}
	.st43{fill:url(#SVGID_43_);}
	.st44{fill:url(#SVGID_44_);}
	.st45{fill:url(#SVGID_45_);}
	.st46{fill:url(#SVGID_46_);}
	.st47{fill:url(#SVGID_47_);}
	.st48{fill:url(#SVGID_48_);}
	.st49{fill:url(#SVGID_49_);}
	.st50{fill:url(#SVGID_50_);}
	.st51{fill:url(#SVGID_51_);}
	.st52{fill:url(#SVGID_52_);}
	.st53{fill:url(#SVGID_53_);}
	.st54{fill:url(#SVGID_54_);}
	.st55{fill:url(#SVGID_55_);}
	.st56{fill:url(#SVGID_56_);}
	.st57{fill:url(#SVGID_57_);}
	.st58{fill:url(#SVGID_58_);}
	.st59{fill:url(#SVGID_59_);}
	.st60{fill:url(#SVGID_60_);}
	.st61{fill:url(#SVGID_61_);}
	.st62{fill:url(#SVGID_62_);}
	.st63{fill:url(#SVGID_63_);}
	.st64{fill:url(#SVGID_64_);}
	.st65{fill:url(#SVGID_65_);}
	.st66{fill:url(#SVGID_66_);}
	.st67{fill:url(#SVGID_67_);}
	.st68{fill:url(#SVGID_68_);}
	.st69{fill:url(#SVGID_69_);}
	.st70{fill:url(#SVGID_70_);}
	.st71{fill:url(#SVGID_71_);}
	.st72{fill:url(#SVGID_72_);}
	.st73{fill:url(#SVGID_73_);}
	.st74{fill:url(#SVGID_74_);}
	.st75{fill:url(#SVGID_75_);}
	.st76{fill:url(#SVGID_76_);}
	.st77{fill:url(#SVGID_77_);}
	.st78{fill:url(#SVGID_78_);}
	.st79{fill:url(#SVGID_79_);}
	.st80{fill:url(#SVGID_80_);}
	.st81{fill:url(#SVGID_81_);}
	.st82{fill:url(#SVGID_82_);}
	.st83{fill:url(#SVGID_83_);}
	.st84{fill:url(#SVGID_84_);}
	.st85{fill:url(#SVGID_85_);}
	.st86{fill:url(#SVGID_86_);}
	.st87{fill:url(#SVGID_87_);}
	.st88{fill:url(#SVGID_88_);}
	.st89{fill:url(#SVGID_89_);}
	.st90{fill:url(#SVGID_90_);}
	.st91{fill:url(#SVGID_91_);}
	.st92{fill:url(#SVGID_92_);}
	.st93{fill:url(#SVGID_93_);}
	.st94{fill:url(#SVGID_94_);}
	.st95{fill:url(#SVGID_95_);}
	.st96{fill:url(#SVGID_96_);}
	.st97{fill:url(#SVGID_97_);}
	.st98{fill:url(#SVGID_98_);}
	.st99{fill:url(#SVGID_99_);}
	.st100{fill:url(#SVGID_100_);}
</style>
<g>
	<g>
		<linearGradient id="SVGID_1_" gradientUnits="userSpaceOnUse" x1="127.4475" y1="524.0185" x2="127.4475" y2="-4.547474e-13">
			<stop  offset="0" style="stop-color:#EF5023"/>
			<stop  offset="0.2217" style="stop-color:#E04620"/>
			<stop  offset="0.6488" style="stop-color:#B82C16"/>
			<stop  offset="1" style="stop-color:#92140E"/>
		</linearGradient>
		<polygon class="st1" points="131,524 0,524 123.9,0 254.9,0 		"/>
		<linearGradient id="SVGID_2_" gradientUnits="userSpaceOnUse" x1="348.2966" y1="433.3094" x2="348.2966" y2="49.9863">
			<stop  offset="0" style="stop-color:#EF5023"/>
			<stop  offset="0.2217" style="stop-color:#E04620"/>
			<stop  offset="0.6488" style="stop-color:#B82C16"/>
			<stop  offset="1" style="stop-color:#92140E"/>
		</linearGradient>
		<polygon class="st2" points="328.1,50 237.5,433.3 368.5,433.3 459.1,50 		"/>
		<linearGradient id="SVGID_3_" gradientUnits="userSpaceOnUse" x1="514.4835" y1="383.3351" x2="514.4835" y2="99.9708">
			<stop  offset="0" style="stop-color:#EF5023"/>
			<stop  offset="0.2217" style="stop-color:#E04620"/>
			<stop  offset="0.6488" style="stop-color:#B82C16"/>
			<stop  offset="1" style="stop-color:#92140E"/>
		</linearGradient>
		<polygon class="st3" points="482.5,100 415.5,383.3 546.5,383.3 613.5,100 		"/>
		<linearGradient id="SVGID_4_" gradientUnits="userSpaceOnUse" x1="246.1889" y1="433.3094" x2="246.1889" y2="1.732541e-03">
			<stop  offset="0" style="stop-color:#008039"/>
			<stop  offset="0.1163" style="stop-color:#06833D"/>
			<stop  offset="0.266" style="stop-color:#168B47"/>
			<stop  offset="0.4338" style="stop-color:#309859"/>
			<stop  offset="0.615" style="stop-color:#55AA72"/>
			<stop  offset="0.8068" style="stop-color:#84C191"/>
			<stop  offset="1" style="stop-color:#BCDCB6"/>
		</linearGradient>
		<polygon class="st4" points="254.9,0 123.9,0 237.5,433.3 368.5,433.3 		"/>
		<linearGradient id="SVGID_5_" gradientUnits="userSpaceOnUse" x1="437.2982" y1="383.33" x2="437.2982" y2="49.9863">
			<stop  offset="0" style="stop-color:#008039"/>
			<stop  offset="0.1163" style="stop-color:#06833D"/>
			<stop  offset="0.266" style="stop-color:#168B47"/>
			<stop  offset="0.4338" style="stop-color:#309859"/>
			<stop  offset="0.615" style="stop-color:#55AA72"/>
			<stop  offset="0.8068" style="stop-color:#84C191"/>
			<stop  offset="1" style="stop-color:#BCDCB6"/>
		</linearGradient>
		<polygon class="st5" points="546.5,383.3 459.1,50 328.1,50 415.5,383.3 		"/>
	</g>
	<g>
		<g>
			<path d="M3751.6,332.2h-19.2v-6.4h46v6.4h-19.2v51.1h-7.7V332.2z"/>
			<path d="M3781.7,325.8h10.5l18.1,48.3l18.2-48.3h10.5v57.5h-7.2v-47.8h-0.2l-18,47.8h-6.5l-18-47.8h-0.2v47.8h-7.2V325.8z"/>
		</g>
		<g>
			<path d="M1256.5,136.2l9.7-36.3H962.5l3.4,36.3h97.6l-50.1,211.8c-4.2,17.9,9.3,35,27.7,35h58.7l58.4-246.8H1256.5z"/>
			<path d="M2741.5,100.2l-58.3,246.6h-45.4l58.3-246.7h-94.7L2543,346.8h-45.4L2556,100h-94.7l-58.7,248.1
				c-4.2,17.9,9.3,35,27.7,35l339,0.1l66.9-283.1H2741.5z"/>
			<path d="M3349,100.1l-58.3,246.7h-35L3233.1,100h-92.5l23.5,257.2c1.3,14.6,13.6,25.9,28.3,25.9l184.3,0.1l67-283.1H3349z"/>
			<path d="M3530.4,100l-41.4,0.2l-58.7,248.1c-4.2,17.9,9.3,35,27.7,35h58.7l158.3-0.2l8.6-36.3h-158.3l25.8-108.9h140.1l8.6-36.3
				h-140.1l15.4-65.3h158.3l8.5-36.1L3530.4,100z"/>
			<path d="M1300.7,100.3l-58.7,248c-4.2,17.9,9.3,35,27.7,35l218.6-0.3l58.6-248c4.2-17.9-9.3-35-27.7-35L1300.7,100.3z
				 M1337.1,346.8l49.8-210.6h65.2l-49.8,210.6H1337.1z"/>
			<path d="M1600.8,100l-67,283.1h94.7l58.4-246.8h45.4L1674,383.2h94.7l58.4-246.9h45.4l-58.4,247h94.7l58.7-248.1
				c4.2-17.9-9.3-35-27.7-35L1600.8,100z"/>
			<path d="M2021.1,100.2l-58.7,248.1c-4.2,17.9,9.3,35,27.7,35h58.7l67-283.1H2021.1z"/>
			<path d="M721.5,100l-67,283.1h94.7l17.4-73.6h91.8l6.7,73.6h92.5l-23.5-257.2c-1.3-14.6-13.6-25.9-28.3-25.9H721.5z M775.2,273.2
				l32.4-136.9h34.9l12.5,136.9H775.2z"/>
			<path d="M2881.9,100l-67,283.1h94.7l17.4-73.6h91.8l6.7,73.6h92.5l-23.5-257.2c-1.3-14.6-13.6-25.9-28.3-25.9H2881.9z
				 M2935.6,273.2l32.4-136.9h35l12.5,136.9H2935.6z"/>
			<path d="M2232,201.6l15.4-65.3h159.9l8.6-36.3l-254.7,0.3L2137,202.9c-4.2,17.9,9.3,35,27.7,35h123.9l-25.8,108.9h-159.9
				l-8.7,36.3h254.7l34.6-146.5c4.2-17.9-9.3-35-27.7-35H2232z"/>
		</g>
	</g>
</g>
</svg>
