<?xml version="1.0" encoding="utf-8"?>
<!-- Generator: Adobe Illustrator 26.0.1, SVG Export Plug-In . SVG Version: 6.00 Build 0)  -->
<svg version="1.1" id="Layer_1" xmlns="http://www.w3.org/2000/svg" xmlns:xlink="http://www.w3.org/1999/xlink" x="0px" y="0px"
	 viewBox="0 0 3839 1751.7" style="enable-background:new 0 0 3839 1751.7;" xml:space="preserve">
<style type="text/css">
	.st0{fill:#FFFFFF;}
	.st1{fill:#034693;}
	.st2{fill:#F05100;}
	.st3{fill:#CF3312;}
	.st4{fill:#1281C4;}
</style>
<g>
	<g>
		<g>
			<g>
				<path class="st0" d="M2425.4,96c-17.6-56-70.4-96-131.2-96c-60.8,0-113.6,40-131.2,96l-46.4,137.6V8h-243.1
					c-43.2,0-83.2,17.6-113.6,46.4V8h-249.5c-46.4,0-88,19.2-118.4,51.2V8h-236.7c-100.8,0-184,83.2-184,184
					c0,48,19.2,92.8,49.6,124.8h-49.6v214.4H1208c67.2,0,124.8-35.2,158.4-89.6c27.2,52.8,81.6,89.6,145.6,89.6h251.1v-46.4
					c28.8,28.8,68.8,46.4,113.6,46.4h694.2L2425.4,96z"/>
				<g>
					<g>
						<path class="st4" d="M1208,355.1h-200v62.4h200c38.4,0,70.4-32,70.4-70.4s-32-70.4-70.4-70.4h-51.2
							c-46.4,0-84.8-38.4-84.8-84.8s38.4-84.8,84.8-84.8h198.4V44.8h-200c-81.6,0-147.2,65.6-147.2,147.2s65.6,147.2,147.2,147.2
							h51.2c4.8,0,8,3.2,8,8C1214.4,351.9,1211.2,355.1,1208,355.1z"/>
						<path class="st4" d="M1155.2,185.6h200v-64h-200c-38.4,0-70.4,32-70.4,70.4s32,70.4,70.4,70.4h51.2
							c46.4,0,84.8,38.4,84.8,84.8s-38.4,84.8-84.8,84.8h-198.4v62.4h200c81.6,0,147.2-65.6,147.2-147.2S1289.6,200,1208,200h-51.2
							c-4.8,0-8-3.2-8-8C1148.8,188.8,1152,185.6,1155.2,185.6z"/>
					</g>
					<g>
						<path class="st4" d="M1873.5,121.6c-27.2,0-48,20.8-48,48v200c0,27.2,20.8,48,48,48H2003V276.7h-99.2v62.4h36.8v14.4h-36.8
							c-8,0-14.4-6.4-14.4-14.4V198.4c0-8,6.4-14.4,14.4-14.4h177.6v-62.4H1873.5z"/>
						<path class="st4" d="M2267,417.5h145.6l-99.2-294.3c-3.2-8-9.6-14.4-19.2-14.4c-8,0-16,6.4-19.2,12.8l-128,372.7h73.6
							l44.8-132.8v56H2267z M2292.6,283.1l20.8,64h-43.2L2292.6,283.1z"/>
						<path class="st4" d="M2390.2,110.4c-12.8-41.6-51.2-73.6-97.6-73.6s-84.8,30.4-96,72l-116.8,342.3V200h-176v62.4H2019v169.6
							h-144c-35.2,0-62.4-28.8-62.4-62.4v-200c0-35.2,28.8-62.4,62.4-62.4h206.4V44.8h-208c-68.8,0-124.8,56-124.8,124.8v200
							c0,68.8,56,124.8,124.8,124.8H2131l129.6-375.9c4.8-14.4,17.6-24,33.6-24s28.8,9.6,33.6,24l105.6,313.5H2267v62.4h252.7l0,0
							L2390.2,110.4z"/>
					</g>
					<g>
						<path class="st4" d="M1510.4,431.9c-35.2,0-62.4-28.8-62.4-62.4v-200c0-35.2,28.8-62.4,62.4-62.4h214.4V44.8h-214.4
							c-68.8,0-124.8,56-124.8,124.8v200c0,68.8,56,124.8,124.8,124.8h214.4v-62.4H1510.4z"/>
						<path class="st4" d="M1524.8,340.7h155.2v-62.4h-217.6v92.8c0,27.2,20.8,48,48,48h214.4v-62.4h-185.6
							C1531.2,355.1,1524.8,348.7,1524.8,340.7z"/>
						<path class="st4" d="M1679.9,200h-155.2c0-8,6.4-14.4,14.4-14.4h184v-64h-212.8c-27.2,0-48,20.8-48,48v92.8h217.6V200z"/>
					</g>
				</g>
			</g>
			<g>
				<path d="M2482.1,0c-26.9,0-48.7,21.8-48.7,48.7s21.8,48.7,48.7,48.7c26.9,0,48.7-21.8,48.7-48.7S2509,0,2482.1,0z M2482.1,91.8
					c-23.9,0-43.1-19.3-43.1-43.1s19.3-43.1,43.1-43.1c23.9,0,43.1,19.3,43.1,43.1S2505.9,91.8,2482.1,91.8z"/>
				<g>
					<path d="M2462.4,21h16.4c12.4,0,25.5,1.6,25.5,15.3c0,8.1-6.1,13.4-16,14.7l18.2,25.6h-9.3l-17.3-25h-9.8v25h-7.6L2462.4,21
						L2462.4,21z M2470,45.4h6.8c8.4,0,19.3,0,19.3-9.2c0-8-8-9.2-15.4-9.2H2470L2470,45.4L2470,45.4z"/>
				</g>
			</g>
		</g>
	</g>
	<rect x="27.6" y="1478.4" class="st0" width="3490.5" height="256.3"/>
	<polygon points="3621.6,659 3621.6,673.6 3651.9,673.6 3651.9,774.6 3671.9,774.6 3671.9,673.9 3707.5,673.6 3707.5,659 	"/>
	<g id="XMLID_8_">
		<g>
			<path d="M3839,659.1v115.5h-18.5v-64.1l-42.6,54l-42.7-54c0,0-0.1,63.9,0.1,64c0.3,0.1-17.1,0-17.1,0V659l60.1,74.6L3839,659.1z"
				/>
		</g>
	</g>
	<rect x="774.1" y="1085.9" width="564" height="110.8"/>
	<g>
		<rect x="3431.4" y="659" width="110.8" height="666.9"/>
		<polygon points="3196.4,659 2803.4,1114.1 2410.5,659 2410.5,1325.9 2521.3,1325.9 2521.3,956.8 2803.4,1283.7 3085.6,956.8 
			3085.6,1325.9 3196.4,1325.9 		"/>
		<rect x="545.3" y="659" width="110.8" height="554"/>
		<rect y="765.5" width="110.8" height="560.4"/>
		<polygon points="656,1182.7 656,1325.9 0,788.4 0,645.2 		"/>
		<path class="st3" d="M1918.7,614.1c-212.8,0-385.4,172.5-385.4,385.4s172.5,385.4,385.4,385.4c212.8,0,385.4-172.5,385.4-385.4
			S2131.6,614.1,1918.7,614.1z M1918.7,724.9c-151.7,0-274.6,122.9-274.6,274.6s122.9,274.6,274.6,274.6s274.6-122.9,274.6-274.6
			S2070.4,724.9,1918.7,724.9z M1918.7,1254.2c-140.5,0-254.7-114.3-254.7-254.7c0-140.5,114.3-254.7,254.7-254.7
			c140.5,0,254.7,114.3,254.7,254.7C2173.5,1139.9,2059.2,1254.2,1918.7,1254.2z M1918.7,1274.1c-151.7,0-274.6-122.9-274.6-274.6
			s122.9-274.6,274.6-274.6s274.6,122.9,274.6,274.6C2193.3,1151.1,2070.4,1274.1,1918.7,1274.1z"/>
		<polygon points="899.8,1325.9 1146.6,874.8 1393.5,1325.9 1519.8,1325.9 1146.6,644.1 773.5,1325.9 		"/>
	</g>
	<g>
		<path class="st3" d="M494.5,1553h-85.9v96.8h83c7,0,13.8-0.3,20.8-0.6c8.2-0.3,21.4-0.6,28.2-6.2c9.1-7.6,8.8-29.6,8.8-40.5
			C549.4,1553,540.6,1553,494.5,1553z"/>
		<path class="st3" d="M1243.2,1568.3c-3.2-10.6-10-13.2-20.2-14.7c-13.8-1.8-27.9-1.5-41.6-1.5h-37.5c-47.5,0-46.6,9.4-46.6,54.9
			c0,11.1-1.2,29.9,8.8,37.8c11.1,8.8,52.2,7,65.7,7c9.4,0,19.1-0.3,28.5-0.3c10.8,0,28.5,0,37.5-6.7c9.7-7.3,8.8-27,8.8-37.8
			C1246.5,1596.4,1246.5,1578.6,1243.2,1568.3z"/>
		<path class="st3" d="M913.2,1553h-99.7v48.1h83.9c4.4,0,8.8-0.3,13.2-0.3c21.4-0.6,27.3-1.2,27.3-24.6
			C937.8,1556.3,932.8,1553,913.2,1553z"/>
		<path class="st3" d="M0,1452v299.7h3543.2V1452L0,1452L0,1452z M302.3,1620.5c-0.3,8.5-0.3,17-0.9,25.2
			c-0.9,15.5-1.8,28.5-13.5,39.6c-7,6.7-16.1,10-25.5,12c-29.3,6.2-63.9,5.3-93.9,5.3c-12.9,0-25.8,0-38.7-0.6
			c-20.2-0.6-48.1-1.2-65.4-12.9c-7.9-5.3-12.3-11.7-15.5-20.8c-6.1-18.2-5.3-50.7-5.3-69.5c0-12.3,0.3-24.6,1.2-37
			c2.1-29,11.4-49.6,41.9-55.4c28.5-5.6,63.7-5.3,92.4-5.3c14.4,0,28.5,0,42.5,0.9c21.1,0.9,55.2,2.1,70.1,19.4
			c11.1,12.6,10.5,34.6,10.8,50.4H243c0-5.6,0.3-12.6-4.7-16.4c-2.9-2.1-5.6-2.9-9.1-3.5c-5.3-0.9-11.2-0.9-16.4-1.2
			c-12.9-0.6-25.8-0.6-38.7-0.6c-10.6,0-21.4,0.3-32,0.6c-8.5,0.3-23.5,0.6-30.5,6.2c-9.7,7.6-8.2,33.4-8.2,44.3
			c0,11.4-0.6,27,2.3,38.1c1.2,4.4,2.4,7,5.9,10.3c7,6.5,24.9,5.9,33.7,5.9c9.4,0,18.8,0.3,28.2,0.3c10.8,0,21.7-0.3,32.6-0.3
			c8.8,0,31.4,1.2,36.7-8.2c2.1-3.8,2.1-9.1,2.1-13.2v-6.2h-78.3v-39h136.1c0,1.8,0.3,3.8,0.3,5.6L302.3,1620.5z M606.9,1637.2
			c-1.2,15.8-5.6,34.9-17.6,46c-20.2,18.5-67.2,16.4-92.7,16.4H349.9V1504h145.8c11.2,0,22.3,0,33.4,0.3
			c30.5,0.6,62.2,3.2,73.3,36.7c6.1,18.5,5.6,39,5.6,58.1C608,1611.7,607.7,1624.6,606.9,1637.2z M727.5,1649.2h-97.7v-39.9h97.7
			V1649.2z M995.3,1667.7v32h-58.7c0-11.7,0.6-24.1-1.8-35.5c-2.6-12.9-11.7-14.1-23.5-14.1h-98v49.6h-59.6v-195.6h144
			c10.5,0,21.4,0.3,32,0.3c22.3,0.3,47.2-2.1,60.4,19.9c7.6,12.6,7,30.2,7,44.3c0,12.9,0.3,28.2-6.5,39.6
			c-6.5,11.1-17.9,13.8-29.9,15.8C990.6,1626.1,995.3,1640.4,995.3,1667.7z M1305.1,1636.3c-0.9,18.2-2.6,40.8-18.5,52.8
			c-8.2,6.5-17.6,8.8-27.9,10.3c-28.5,4.1-58.4,3.2-87.1,3.2c-15.3,0-30.8,0-46-0.3c-20.5-0.3-51.6-0.3-68.9-13.2
			c-15.8-11.4-17.6-34.9-18.5-52.8c-0.9-11.4-0.9-22.9-0.9-34.3s0-22.9,0.9-34.3c1.2-17.9,2.9-40.8,18.5-52.8
			c8.2-6.2,17.9-9.1,27.9-10.6c27.6-4.4,59.3-3.2,87.1-3.2c15.5,0,30.8,0.3,46.3,0.6c20.5,0.3,51.3,0.3,68.6,13.2
			c15.8,11.7,17.3,34.9,18.5,52.8c0.9,11.4,0.9,22.9,0.9,34.3C1306,1613.5,1306,1624.9,1305.1,1636.3z M1685.6,1699.7H1627
			l1.5-146.4h-10l-73.6,146.4h-49.6l-73.6-146.4h-10.6l1.5,146.4h-58.7v-195.6h107.9l58.1,127l58.4-127h107.3L1685.6,1699.7
			L1685.6,1699.7z M2044.8,1687.1c-14.1,15.3-44.9,14.7-63.9,15c-15.3,0.6-30.5,0.6-45.8,0.6c-25.5,0-56.3,0.9-81.2-4.7
			c-9.4-2.1-17.6-5.9-24.3-12.6c-10-9.7-11.2-22.3-11.2-35.5c0-5,0.3-10,0.6-15h57.5c0,4.4,0,8.5,1.5,12.6c0.9,2.6,2.1,4.4,4.4,6.2
			c5.6,4.4,22.3,3.8,28.7,3.8c8.5,0,16.7,0.3,25.2,0.3c10.6,0,20.8-0.3,31.4-0.3c7.3,0,25.8,0.9,30.8-6.2c2-3.2,2-7.6,2-11.2
			c0-15-11.7-14.4-23.8-14.7c-31.4-0.9-62.8-2.6-94.2-3.8c-17-0.6-38.7-1.2-51-15c-10.3-11.4-11.1-27.9-11.1-42.5
			c0-34.9,9.1-56.9,46.6-60.7c25.2-2.6,51.3-2.3,76.8-2.3c24.6,0,50.8-0.6,74.8,5.3c26.7,6.8,32.3,24.3,32.3,49.9v9.4h-57.8v-2.9
			c0-5.6-0.6-9.7-5.6-12.9c-5.6-3.8-18.8-3.5-25.2-3.5h-50.7c-6.1,0-23.5-0.3-28.7,3.5c-3.8,2.6-4.7,7.3-4.7,11.7
			c0,3.5,0.9,8.2,3.8,10.6c2,1.8,5,2.3,7.6,2.6c6.8,1.2,13.8,1.2,20.5,1.5c13.2,0.6,26.4,1.2,39.6,1.5c22.6,0.6,54.8,0.3,76.9,6.2
			c7,2.1,13.2,5,18.8,10c12,10.6,12.6,30.8,12.6,45.5C2058,1655.7,2056.5,1674.5,2044.8,1687.1z M2248.1,1630.5v69.2h-61.6v-69.2
			l-112.3-126.4h78.6l63.6,78.6l61-78.6h77.4L2248.1,1630.5z M2597.8,1687.1c-14.1,15.3-44.9,14.7-63.9,15
			c-15.3,0.6-30.5,0.6-45.8,0.6c-25.5,0-56.3,0.9-81.2-4.7c-9.4-2.1-17.6-5.9-24.3-12.6c-10-9.7-11.2-22.3-11.2-35.5
			c0-5,0.3-10,0.6-15h57.5c0,4.4,0,8.5,1.5,12.6c0.9,2.6,2.1,4.4,4.4,6.2c5.6,4.4,22.3,3.8,28.7,3.8c8.5,0,16.7,0.3,25.2,0.3
			c10.6,0,20.8-0.3,31.4-0.3c7.3,0,25.8,0.9,30.8-6.2c2-3.2,2-7.6,2-11.2c0-15-11.7-14.4-23.8-14.7c-31.4-0.9-62.8-2.6-94.2-3.8
			c-17-0.6-38.7-1.2-51-15c-10.3-11.4-11.1-27.9-11.1-42.5c0-34.9,9.1-56.9,46.6-60.7c25.2-2.6,51.3-2.3,76.8-2.3
			c24.6,0,50.8-0.6,74.8,5.3c26.7,6.8,32.3,24.3,32.3,49.9v9.4h-57.8v-2.9c0-5.6-0.6-9.7-5.6-12.9c-5.6-3.8-18.8-3.5-25.2-3.5h-50.7
			c-6.1,0-23.5-0.3-28.7,3.5c-3.8,2.6-4.7,7.3-4.7,11.7c0,3.5,0.9,8.2,3.8,10.6c2,1.8,5,2.3,7.6,2.6c6.8,1.2,13.8,1.2,20.5,1.5
			c13.2,0.6,26.4,1.2,39.6,1.5c22.6,0.6,54.8,0.3,76.9,6.2c7,2.1,13.2,5,18.8,10c12,10.6,12.6,30.8,12.6,45.5
			C2611,1655.7,2609.5,1674.5,2597.8,1687.1z M2876.8,1553.9h-87.1v145.8h-62.5v-145.8h-87.1V1504h236.7L2876.8,1553.9
			L2876.8,1553.9z M3124.7,1699.7h-217.6v-195.6h216.5v46.1h-157.8v28.5h149.9v42.8h-149.9v31.4h159L3124.7,1699.7L3124.7,1699.7z
			 M3499.7,1699.7H3441l1.5-146.4h-10l-73.6,146.4h-49.6l-73.6-146.4h-10.6l1.5,146.4h-58.7v-195.6h107.9l58.1,127l58.4-127h107.3
			v195.6H3499.7z"/>
	</g>
</g>
</svg>
