<?xml version="1.0" encoding="utf-8"?>
<!-- Generator: Adobe Illustrator 25.4.1, SVG Export Plug-In . SVG Version: 6.00 Build 0)  -->
<svg version="1.1" id="Layer_1" xmlns="http://www.w3.org/2000/svg" xmlns:xlink="http://www.w3.org/1999/xlink" x="0px" y="0px"
	 viewBox="0 0 3839 1490.7" style="enable-background:new 0 0 3839 1490.7;" xml:space="preserve">
<style type="text/css">
	.st0{fill:#FFFFFF;}
	.st1{fill:url(#SVGID_00000178179134638790717550000005967690312121438106_);}
	.st2{fill:url(#SVGID_00000101063231269058762560000004759822764837634449_);}
	.st3{fill:url(#SVGID_00000099657396963289156720000014966033486702274979_);}
	.st4{fill:url(#SVGID_00000064335378197343236810000014221570305624109972_);}
	.st5{fill:url(#SVGID_00000072264707759248549420000008582690382764488870_);}
	.st6{fill:url(#SVGID_00000157276793991567731630000013816151223095430553_);}
	.st7{fill:url(#SVGID_00000176008384662559502500000006203920271005883016_);}
	.st8{fill:url(#SVGID_00000088127364131725997910000017339195881849435067_);}
	.st9{fill:url(#SVGID_00000127747808412706006010000015438447127847899042_);}
	.st10{fill:url(#SVGID_00000094603388910628247180000018027599512045929608_);}
	.st11{fill:url(#SVGID_00000162348778844080076730000010804404289996921766_);}
	.st12{fill:url(#SVGID_00000137119211036201279990000008541713148527820707_);}
	.st13{fill:url(#SVGID_00000171681669112529093550000014450358234537112975_);}
	.st14{fill:url(#SVGID_00000005968369884298419240000014543987599099533731_);}
	.st15{clip-path:url(#SVGID_00000139273926753520319560000002446778427335541423_);}
	.st16{display:none;}
	.st17{display:inline;fill:url(#SVGID_00000047048222023946585490000002469901968961085572_);}
	.st18{display:inline;fill:url(#SVGID_00000078756158778035703510000007312100815936114355_);}
	.st19{display:inline;fill:url(#SVGID_00000109017903172253509150000003185708175530355840_);}
	.st20{display:inline;fill:url(#SVGID_00000127007075295194043110000001751072632504754337_);}
	.st21{display:inline;fill:url(#SVGID_00000105398251996249188380000017700494275304239490_);}
	.st22{fill:url(#SVGID_00000068637205136210577390000001711869022041177512_);}
	.st23{fill:url(#SVGID_00000127739774364337640730000014915547544392204168_);}
	.st24{fill:url(#SVGID_00000008137883513126606540000014045902805093754810_);}
	.st25{fill:url(#SVGID_00000003786126009146935640000013763325083316172948_);}
	.st26{fill:url(#SVGID_00000164481180515805446080000010957614355830204553_);}
	.st27{fill:url(#SVGID_00000078016847100141316660000017617520713429302423_);}
	.st28{fill:none;}
	.st29{clip-path:url(#SVGID_00000177442621505535668170000002196988428113703868_);}
	.st30{fill:url(#SVGID_00000080907311970583180110000017528546677080185751_);}
	.st31{fill:url(#SVGID_00000005242255140285238940000006505493983591601080_);}
	.st32{fill:url(#SVGID_00000097458214519661301230000000354230556190328963_);}
	.st33{fill:url(#SVGID_00000119820174009708621910000000155643491401542583_);}
	.st34{fill:url(#SVGID_00000135692181044073060680000016449047765604445610_);}
	.st35{fill:url(#SVGID_00000081610188354741996940000007461264106522619821_);}
	.st36{fill:url(#SVGID_00000013889977301467999590000010238396445033111987_);}
	.st37{fill:url(#SVGID_00000025409885437082064940000015532947661958380708_);}
	.st38{fill:url(#SVGID_00000029034831543460483090000017842637244694682801_);}
	.st39{fill:url(#SVGID_00000076598791038534144930000002895759832475040898_);}
	.st40{fill:url(#SVGID_00000183967642010970023690000003524947206388550561_);}
	.st41{fill:url(#SVGID_00000109024900144039674050000006182174451457776056_);}
	.st42{fill:url(#SVGID_00000068649763053598189180000002928007731160821129_);}
	.st43{fill:url(#SVGID_00000132077050992027089620000010488717041575998864_);}
	.st44{fill:url(#SVGID_00000088832377179252042270000008779154385240689814_);}
	.st45{fill:url(#SVGID_00000127760152335723069430000011796329347011269261_);}
	.st46{fill:url(#SVGID_00000087375661807588583710000008057617931460119967_);}
	.st47{fill:url(#SVGID_00000052800773273405196680000008200998607954926471_);}
	.st48{fill:url(#SVGID_00000042005283729426952180000011142936698479286152_);}
	.st49{fill:url(#SVGID_00000081649065871676312430000009348719824019814529_);}
	.st50{clip-path:url(#SVGID_00000121958876177011913070000001026303900581994640_);}
	.st51{display:inline;fill:url(#SVGID_00000078754942108734685530000005595101414608598458_);}
	.st52{display:inline;fill:url(#SVGID_00000104695631429887682040000009166728941997997217_);}
	.st53{display:inline;fill:url(#SVGID_00000115511225288856084610000003527870305449609392_);}
	.st54{display:inline;fill:url(#SVGID_00000031915413262023642780000015241426272217011126_);}
	.st55{display:inline;fill:url(#SVGID_00000144321004480832847920000017388409291835569048_);}
	.st56{fill:url(#SVGID_00000155832341953257700710000005068544072610861489_);}
	.st57{fill:url(#SVGID_00000051371382360122954300000004318931060903330465_);}
	.st58{fill:url(#SVGID_00000152264622649215938750000013678376323059851958_);}
	.st59{fill:url(#SVGID_00000025445174285956464310000000289085638150086328_);}
	.st60{fill:url(#SVGID_00000091717750929030682780000007253192948731882139_);}
	.st61{fill:url(#SVGID_00000051367767835379288030000005080275190422090127_);}
	.st62{clip-path:url(#SVGID_00000106120120339386702530000016776419171274718859_);}
	.st63{fill:url(#SVGID_00000075884645875570838070000002960531999794317230_);}
	.st64{fill:url(#SVGID_00000163791450565381429970000018255896972764504486_);}
	.st65{fill:url(#SVGID_00000158751151602461351470000009661390217361372847_);}
	.st66{fill:url(#SVGID_00000031165942386364150930000003942295098224417194_);}
	.st67{fill:url(#SVGID_00000134237890464500050220000000988617670762105790_);}
	.st68{fill:url(#SVGID_00000062157056749964891430000005988095792480811694_);}
	.st69{fill:#034693;}
	.st70{fill:url(#SVGID_00000000943747717857815800000012189608677327777185_);}
	.st71{fill:url(#SVGID_00000010271470072630297680000016051139543598304153_);}
	.st72{fill:url(#SVGID_00000147936106825670839300000002764900144786777475_);}
	.st73{fill:url(#SVGID_00000064353197230678424840000009590639096096829065_);}
	.st74{fill:url(#SVGID_00000127009158458869290230000009429073640340950917_);}
	.st75{fill:url(#SVGID_00000149379281128165854930000011168146638532706475_);}
	.st76{fill:url(#SVGID_00000013915465594227617560000017993598343980873881_);}
	.st77{display:inline;}
	.st78{fill:url(#SVGID_00000113344382086575613160000010879021252119249598_);}
	.st79{fill:url(#SVGID_00000125562803911389652120000003378406784520404643_);}
	.st80{fill:url(#SVGID_00000155145366527708420830000005519248565704952990_);}
	.st81{fill:url(#SVGID_00000136379948489626490080000005518908930959359624_);}
	.st82{fill:url(#SVGID_00000099632801237132938870000009693064811634633407_);}
	.st83{fill:url(#SVGID_00000181085437207945159780000007196334640014397362_);}
	.st84{fill:url(#SVGID_00000022559434981587977320000001209803362820382395_);}
	.st85{fill:url(#SVGID_00000165234461031182874790000016868510492605485208_);}
	.st86{fill:url(#SVGID_00000165198134114761826820000008897259150031833988_);}
	.st87{fill:url(#SVGID_00000134213759539928279640000012560758318308847030_);}
	.st88{fill:url(#SVGID_00000011006848968542869420000005703247494253301157_);}
	.st89{fill:url(#SVGID_00000085947016043617077240000004175351720551734957_);}
	.st90{fill:url(#SVGID_00000100360978300797202330000005302765421682105262_);}
	.st91{fill:url(#SVGID_00000089543779946226662340000013468679452570261634_);}
	.st92{fill:url(#SVGID_00000046308548780173947200000004220374141749918380_);}
	.st93{fill:url(#SVGID_00000021803682621561831970000003211234824912039328_);}
	.st94{fill:url(#SVGID_00000147221614139588059350000011659148378507291302_);}
	.st95{fill:url(#SVGID_00000093875198034615693220000009136014032722669198_);}
	.st96{fill:url(#SVGID_00000016074370638844701280000007653479767955965313_);}
	.st97{fill:url(#SVGID_00000056401846165489617970000010785933642919186821_);}
	.st98{fill:url(#SVGID_00000003084634385072495300000005506534558637684412_);}
	.st99{fill:url(#SVGID_00000171678911980165882800000015185756409447908506_);}
	.st100{fill:url(#SVGID_00000042011931610739373370000008408580840068367264_);}
	.st101{fill:url(#SVGID_00000160189742003001054850000014996164409276423358_);}
	.st102{fill:url(#SVGID_00000104666175125566321530000015222834724462570417_);}
	.st103{fill:url(#SVGID_00000012439451827230062310000013370407105929155477_);}
	.st104{fill:url(#SVGID_00000152231002556286227300000002484945881540625806_);}
	.st105{fill:url(#SVGID_00000109009805585171158760000009645264575180434875_);}
	
		.st106{fill:none;stroke:url(#SVGID_00000165923907366270659330000001722120445363771564_);stroke-width:10.1798;stroke-miterlimit:10;}
	.st107{fill:url(#SVGID_00000139985518678256755380000015200450917782136505_);}
	.st108{fill:url(#SVGID_00000006707300598048069460000000779416617420597405_);}
	.st109{fill:url(#SVGID_00000140725981545740524020000005953832841138931640_);}
	.st110{fill:url(#SVGID_00000127761401096133353800000017239923773656318374_);}
	.st111{fill:url(#SVGID_00000108307129297276055480000012961339923962491818_);}
	.st112{fill:url(#SVGID_00000084523524603927936950000012087087908553198745_);}
	.st113{fill:url(#SVGID_00000152951932937368833580000016749968439399572393_);}
	.st114{fill:url(#SVGID_00000071524856482783528720000008547900813216562076_);}
	.st115{fill:url(#SVGID_00000047738438943027545090000007032055788723488170_);}
	.st116{fill:url(#SVGID_00000093893075978891484050000015766178418679256475_);}
	.st117{fill:url(#SVGID_00000067218955251658363370000008258134358153365932_);}
	.st118{fill:url(#SVGID_00000162332500432409781230000014317755758594248629_);}
	.st119{fill:url(#SVGID_00000145762729460387506540000009628628546604757153_);}
	.st120{fill:url(#SVGID_00000152231907039091806380000007867796970341365163_);}
	.st121{fill:url(#SVGID_00000003822672223479212700000006107325819814738355_);}
	.st122{fill:url(#SVGID_00000078738514539482823480000004987509134504417423_);}
	.st123{fill:url(#SVGID_00000090269265177012324730000004442482492142826115_);}
	.st124{fill:url(#SVGID_00000074417150869586549540000016922447082224856457_);}
	.st125{fill:url(#SVGID_00000140720512966278039840000014880110813160989088_);}
	.st126{fill:url(#SVGID_00000151523658953486603560000008005512832464249993_);}
	.st127{fill:url(#SVGID_00000160186221479155294680000008105104548462527905_);}
	.st128{fill:url(#SVGID_00000101099489268315603030000010589793914240903071_);}
	.st129{fill:url(#SVGID_00000110463303684663439250000006996372207764453541_);}
	.st130{fill:url(#SVGID_00000067935088434065318400000006546414043011897507_);}
	.st131{fill:url(#SVGID_00000049940331584376032960000003245082141527329707_);}
	.st132{fill:url(#SVGID_00000040536860115761898310000014514426330214503586_);}
	.st133{fill:url(#SVGID_00000114051526515679284410000004857894068332596608_);}
	.st134{fill:url(#SVGID_00000001632960358448284650000011343899033221271458_);}
	.st135{fill:url(#SVGID_00000000208261202823428910000015317112074854184327_);}
	.st136{fill:url(#SVGID_00000000206506132147145060000007677004613935008902_);}
	.st137{fill:url(#SVGID_00000150074108362041037490000005796878489136969637_);}
	.st138{fill:url(#SVGID_00000015324154044180227720000001496472323496719236_);}
	.st139{fill:url(#SVGID_00000054951527784283134870000003809992159617108622_);}
	.st140{fill:url(#SVGID_00000177451513663250526370000014143328639180922807_);}
	.st141{fill:url(#SVGID_00000126288655243146910030000010650069137149817255_);}
	.st142{fill:url(#SVGID_00000124855551974918471750000013874083045202653613_);}
	.st143{fill:url(#SVGID_00000132076791913177831710000011197973750792438436_);}
	.st144{fill:url(#SVGID_00000090260158795222323590000010195024909890986643_);}
	.st145{fill:url(#SVGID_00000039123351685009487250000016695547036913679795_);}
	.st146{fill:url(#SVGID_00000150785995515341597490000001328565799716993693_);}
	.st147{fill:url(#SVGID_00000139290482315313891420000004523155375358333590_);}
	.st148{fill:url(#SVGID_00000076571394412198157720000003330068078231554438_);}
	.st149{fill:url(#SVGID_00000132051279751921671140000003280905264250401707_);}
	.st150{fill:url(#SVGID_00000083796072879612881400000010318747004332573830_);}
	
		.st151{fill:none;stroke:url(#SVGID_00000157301287983914488940000004669519164802163887_);stroke-width:10.1798;stroke-miterlimit:10;}
	.st152{fill:url(#SVGID_00000066513076832373656930000017143746710963468704_);}
	.st153{fill:url(#SVGID_00000163775040253106244520000009988625577089552047_);}
	.st154{fill:url(#SVGID_00000070111909402825195300000013671131162649669301_);}
	.st155{fill:url(#SVGID_00000075128686423221782010000008312019646236294323_);}
	.st156{fill:url(#SVGID_00000150822366234838115020000004133132452968755389_);}
	.st157{fill:url(#SVGID_00000178899472002003126990000010195613127500895617_);}
	.st158{fill:url(#SVGID_00000118358892213707165790000017089575593705765541_);}
	.st159{fill:url(#SVGID_00000073696256064711617380000016047521727329298332_);}
	.st160{fill:url(#SVGID_00000083778296344670733480000012368493345152938658_);}
	.st161{fill:url(#SVGID_00000036241644806258254500000002462319391568771984_);}
	.st162{fill:url(#SVGID_00000027595203188929719770000009796741855054303381_);}
	.st163{fill:url(#SVGID_00000103981979755894802100000002911097490545769097_);}
	.st164{fill:url(#SVGID_00000168823328819136589400000012457131937833175988_);}
	.st165{fill:url(#SVGID_00000077288580162232038340000005033424147336646037_);}
	.st166{fill:url(#SVGID_00000154390946108459826740000002381595454036860852_);}
	.st167{fill:url(#SVGID_00000046316661019002316330000005988685751148290998_);}
	.st168{fill:url(#SVGID_00000004523751750087358520000001593209587688017027_);}
	.st169{fill:url(#SVGID_00000154392720863570247240000015704996301750101161_);}
	.st170{fill:url(#SVGID_00000052792600123336979470000006096340661172117951_);}
	.st171{fill:url(#SVGID_00000048473824129054958680000014785985179493054857_);}
	.st172{fill:url(#SVGID_00000119076273961909351320000011290270116156297643_);}
	.st173{fill:url(#SVGID_00000153703391178902815960000006706788971891149952_);}
	.st174{fill:url(#SVGID_00000041277960433064401600000013415483422500215171_);}
	.st175{fill:url(#SVGID_00000000195618021533933080000014922063733797538466_);}
	.st176{fill:url(#SVGID_00000037654453631664516790000009597137929083847045_);}
	.st177{fill:url(#SVGID_00000156570841597003581360000018258920765971148434_);}
	.st178{fill:url(#SVGID_00000165211825645527738100000006385607693725837734_);}
	.st179{fill:url(#SVGID_00000160152326878716161120000005191958110770195346_);}
	.st180{fill:url(#SVGID_00000119801803041722475230000014760425480002239397_);}
	.st181{fill:url(#SVGID_00000072277284677164970480000014849356726573970878_);}
	.st182{fill:url(#SVGID_00000021798208264089348010000001707043900517769111_);}
	.st183{fill:url(#SVGID_00000137111438576206157740000008947804520384972170_);}
	.st184{fill:url(#SVGID_00000120520630386667984660000017183504988091832222_);}
	.st185{fill:url(#SVGID_00000077318591077053520380000008576939689922097811_);}
	.st186{fill:url(#SVGID_00000146464536746714681420000003029289713733017019_);}
	
		.st187{fill:none;stroke:url(#SVGID_00000099627643550468991760000014685003127570813585_);stroke-width:10.1798;stroke-miterlimit:10;}
	.st188{fill:url(#SVGID_00000079456878758907916190000000990075619732076684_);}
	.st189{fill:url(#SVGID_00000182498110415841566690000005062479108053296047_);}
	.st190{fill:url(#SVGID_00000116943462635219028790000003812172143914625450_);}
	.st191{fill:url(#SVGID_00000075159423161443128230000011863528726512142732_);}
	.st192{fill:url(#SVGID_00000145773790222269777590000004762698149335083440_);}
	.st193{fill:url(#SVGID_00000070832477734831374260000005470170963772015281_);}
	.st194{fill:url(#SVGID_00000080174746737397238820000007993797874538157208_);}
	.st195{fill:url(#SVGID_00000183958831691175745020000007561656628795551880_);}
	.st196{fill:url(#SVGID_00000126313446354503245950000018267441024271789743_);}
	.st197{fill:url(#SVGID_00000063592836441375946160000003905632472917111938_);}
	.st198{fill:url(#SVGID_00000124869808705635286280000001743691621402433173_);}
	.st199{fill:url(#SVGID_00000044867969840411941980000011464840665117363086_);}
	.st200{fill:url(#SVGID_00000062153892282615388120000008629269005314046342_);}
	.st201{fill:url(#SVGID_00000075150078723382097970000002415284482528143757_);}
	.st202{clip-path:url(#SVGID_00000147931496535909142430000016316388760791650216_);}
	.st203{display:inline;fill:url(#SVGID_00000009591051516367528500000017905912589874750122_);}
	.st204{display:inline;fill:url(#SVGID_00000068669508042048473690000011271392699706381969_);}
	.st205{display:inline;fill:url(#SVGID_00000054962768765892410470000016295116093408013452_);}
	.st206{display:inline;fill:url(#SVGID_00000161615733326579321760000016078074044195261628_);}
	.st207{display:inline;fill:url(#SVGID_00000046335654747985961320000009246183059046698132_);}
	.st208{fill:url(#SVGID_00000104688310162770163250000016811358337406238345_);}
	.st209{fill:url(#SVGID_00000060030947032886689660000005616655620413562793_);}
	.st210{fill:url(#SVGID_00000154415007037170868330000003485841270388792763_);}
	.st211{fill:url(#SVGID_00000022538127641537030060000012022176072948621757_);}
	.st212{fill:url(#SVGID_00000050637630021385477660000008464643782200301984_);}
	.st213{fill:url(#SVGID_00000062174849823941908640000009406921423020573609_);}
	.st214{clip-path:url(#SVGID_00000119108272182253656570000014119918873752564926_);}
	.st215{fill:url(#SVGID_00000026158998322002172560000001252315089073043878_);}
	.st216{fill:url(#SVGID_00000119803372643564702530000002672388474351365048_);}
	.st217{fill:url(#SVGID_00000132782226528775487170000014061075212405233593_);}
	.st218{fill:url(#SVGID_00000081630464532671035920000010859400999365018300_);}
	.st219{fill:url(#SVGID_00000134938538878129510220000001635943707821305506_);}
	.st220{fill:url(#SVGID_00000079462277123699020530000010581035765294904744_);}
	.st221{fill:url(#SVGID_00000044160444188223769950000002068387464839660192_);}
	.st222{fill:url(#SVGID_00000056427719926355339530000016332521140852340396_);}
	.st223{fill:url(#SVGID_00000059308574299355935530000008679751865406499748_);}
	.st224{fill:url(#SVGID_00000160173209931492962430000008784064935658714797_);}
	.st225{fill:url(#SVGID_00000011003350862211074620000009615703601297670334_);}
	.st226{fill:url(#SVGID_00000018197962860602008460000017434245919310831233_);}
	.st227{fill:url(#SVGID_00000181804654729070070050000000446626428029529736_);}
	.st228{fill:url(#SVGID_00000165950424562207672430000002864946283197927579_);}
	.st229{fill:url(#SVGID_00000037690672797788764280000007741310806518158466_);}
	.st230{fill:url(#SVGID_00000001645351660154240780000013065411028512599193_);}
	.st231{fill:url(#SVGID_00000071524716133592645090000008647512367922551957_);}
	.st232{fill:url(#SVGID_00000015353280215695181390000012883125143226533564_);}
	.st233{fill:url(#SVGID_00000030481424027910134820000000904867752534825095_);}
	.st234{fill:url(#SVGID_00000152987258718109285920000017344775491458011810_);}
	.st235{clip-path:url(#SVGID_00000124127202544466407340000000616632150203901104_);}
	.st236{display:inline;fill:url(#SVGID_00000063632093952321289420000005462261677885262781_);}
	.st237{display:inline;fill:url(#SVGID_00000038408516856099294820000013115002950420564355_);}
	.st238{display:inline;fill:url(#SVGID_00000044883916288886885960000018330972410225792421_);}
	.st239{display:inline;fill:url(#SVGID_00000031195596479850307370000016412844698205896094_);}
	.st240{display:inline;fill:url(#SVGID_00000026880851896104229530000002796928549680542093_);}
	.st241{fill:url(#SVGID_00000123434528201052918830000016584052125163877050_);}
	.st242{fill:url(#SVGID_00000028303429319938695050000005926098221767772817_);}
	.st243{fill:url(#SVGID_00000010994469791563940330000012244135323153632915_);}
	.st244{fill:url(#SVGID_00000111913159283894453250000010459918335823164034_);}
	.st245{fill:url(#SVGID_00000153689202075973514510000013657790265860564889_);}
	.st246{fill:url(#SVGID_00000083768102074144361860000009398898202427272839_);}
	.st247{clip-path:url(#SVGID_00000118390275780483372990000010887307931790431623_);}
	.st248{fill:url(#SVGID_00000008133895271631014420000012392952535822615170_);}
	.st249{fill:url(#SVGID_00000098930941217153831480000012183313911167438470_);}
	.st250{fill:url(#SVGID_00000005233297170094930300000000332167106567519935_);}
	.st251{fill:url(#SVGID_00000165917572851321592220000007061185373159369360_);}
	.st252{fill:url(#SVGID_00000183960899402058942140000004836359783720866750_);}
	.st253{fill:url(#SVGID_00000139282368359051742470000002862439065895439495_);}
	.st254{fill:url(#SVGID_00000141457119660121555010000002575543621491479209_);}
	.st255{fill:url(#SVGID_00000147909227534099095300000006192585649124360879_);}
	.st256{fill:url(#SVGID_00000141413034409725904950000003633875072707177893_);}
	.st257{fill:url(#SVGID_00000021810677049478858070000003337602112423948945_);}
	.st258{fill:url(#SVGID_00000182498293996072330010000015180836318397790360_);}
	.st259{fill:url(#SVGID_00000103980863608004607230000014383399736286624645_);}
	.st260{fill:url(#SVGID_00000030461094024094789140000013171481828390162096_);}
	.st261{fill:url(#SVGID_00000046316913390975119270000003941289806652354971_);}
	.st262{fill:url(#SVGID_00000181785685339433991750000002283110275488818869_);}
	.st263{fill:url(#SVGID_00000136411966782745652770000004133471316080920990_);}
	.st264{fill:url(#SVGID_00000042017078340179030570000012095080736917474183_);}
	.st265{fill:url(#SVGID_00000122692741477911098030000013695694382917242769_);}
	.st266{fill:url(#SVGID_00000173847430701955536930000004470117578423857551_);}
	.st267{fill:url(#SVGID_00000010309902054245327310000006606474926429633438_);}
	.st268{fill:url(#SVGID_00000132058364310370703580000012200028332524531884_);}
	.st269{fill:url(#SVGID_00000000924025613120411090000003133597723708433066_);}
	.st270{fill:url(#SVGID_00000065064497372953751220000013895584783367607700_);}
	.st271{fill:url(#SVGID_00000012447072279851402040000018301491558819782543_);}
	.st272{fill:url(#SVGID_00000145761087701689315070000008787590825972812421_);}
	.st273{fill:url(#SVGID_00000163767333186771610890000004662275416387420601_);}
	.st274{fill:url(#SVGID_00000160177384415015478430000017032037928457118094_);}
	.st275{fill:url(#SVGID_00000049902019849997822700000011542943337639062684_);}
	.st276{fill:url(#SVGID_00000019645504416801831180000001920939503789498274_);}
	.st277{clip-path:url(#SVGID_00000146481989252646570670000007334586758608290181_);}
	.st278{display:inline;fill:url(#SVGID_00000133501122438800456460000006791802502754619523_);}
	.st279{display:inline;fill:url(#SVGID_00000092438071833500397300000005468313890650685838_);}
	.st280{display:inline;fill:url(#SVGID_00000161613906522676000520000015803691366843221136_);}
	.st281{display:inline;fill:url(#SVGID_00000027573056369961942930000005544475697552338576_);}
	.st282{display:inline;fill:url(#SVGID_00000065034966424107188170000010082048232012398211_);}
	.st283{fill:url(#SVGID_00000018933469659207657910000007622993067696302249_);}
	.st284{fill:url(#SVGID_00000138572405850337898730000003500343867789105839_);}
	.st285{fill:url(#SVGID_00000168828585039260620980000017643422952739911602_);}
	.st286{fill:url(#SVGID_00000001663027490067651500000001648999907046387588_);}
	.st287{fill:url(#SVGID_00000173151498426478346410000002437100531585162675_);}
	.st288{fill:url(#SVGID_00000110433413733351436050000000109139903056223655_);}
	.st289{clip-path:url(#SVGID_00000051349616987905955540000010943527162097187988_);}
	.st290{fill:url(#SVGID_00000045594660369926741210000005073157689574365089_);}
	.st291{fill:url(#SVGID_00000018224092977408238760000006100959552659475082_);}
	.st292{fill:url(#SVGID_00000181776281681133977710000012898382019376162484_);}
	.st293{fill:url(#SVGID_00000161606353683418116530000000688151972831208325_);}
	.st294{fill:url(#SVGID_00000142145240696802928130000001058667821950911918_);}
	.st295{fill:url(#SVGID_00000017508137295740898560000004031420151733749144_);}
	.st296{fill:url(#SVGID_00000104707932423282010380000017516033204634106815_);}
	.st297{fill:url(#SVGID_00000033347863046612129170000008518083548562651548_);}
	.st298{fill:url(#SVGID_00000031919093308127829490000008153923770595812494_);}
	.st299{fill:url(#SVGID_00000114070098396652020780000001631310460989979534_);}
	.st300{fill:url(#SVGID_00000036212725982085428040000012470659165410965662_);}
	.st301{fill:url(#SVGID_00000123400799695592574060000004185139921017349049_);}
	.st302{clip-path:url(#SVGID_00000139996800883014634650000009203819934848578236_);}
	.st303{display:inline;fill:url(#SVGID_00000114762516497527635670000014157825371431655590_);}
	.st304{display:inline;fill:url(#SVGID_00000183243808446184895600000007142628548188907150_);}
	.st305{display:inline;fill:url(#SVGID_00000026860800285830658360000017876563266230874805_);}
	.st306{display:inline;fill:url(#SVGID_00000139270670843169522170000001947603712556872636_);}
	.st307{display:inline;fill:url(#SVGID_00000031170236055897088120000014863429437499580853_);}
	.st308{fill:url(#SVGID_00000127737286245068728310000006505862238945619882_);}
	.st309{fill:url(#SVGID_00000145757623931793856550000002767149720814325167_);}
	.st310{fill:url(#SVGID_00000060016346428810468450000003932248394975860394_);}
	.st311{fill:url(#SVGID_00000079481910229558358680000011146355028106899607_);}
	.st312{fill:url(#SVGID_00000106852359972999141940000012555350417533445533_);}
	.st313{fill:url(#SVGID_00000059993515757607069420000011744275410767035032_);}
	.st314{clip-path:url(#SVGID_00000130635031565227787510000005152502112622819724_);}
	.st315{fill:url(#SVGID_00000027598022851735063290000008111416060421350787_);}
	.st316{fill:url(#SVGID_00000050625122095913120780000016370985682430814878_);}
	.st317{fill:url(#SVGID_00000135661437550192004370000002143739771322304696_);}
	.st318{fill:url(#SVGID_00000044135660986921113040000005380781873763646630_);}
	.st319{fill:url(#SVGID_00000016045358834691020480000005439492243756593575_);}
	.st320{fill:url(#SVGID_00000080887630859143796870000003983013593415243932_);}
	.st321{fill:url(#SVGID_00000129927648890548771400000007028204813598014397_);}
	.st322{fill:url(#SVGID_00000181074266757273687980000006186636673889265291_);}
	.st323{fill:url(#SVGID_00000054948324651448928820000007743031941747670930_);}
	.st324{fill:url(#SVGID_00000031177562672521261110000014280415107228798888_);}
	.st325{fill:url(#SVGID_00000090292674085291047850000016777863021453464252_);}
	.st326{fill:url(#SVGID_00000063596288123151039840000012146793730027126437_);}
	.st327{clip-path:url(#SVGID_00000119806755017747249860000011244633113007353482_);}
	.st328{display:inline;fill:url(#SVGID_00000044153136583085529890000003138046995556481939_);}
	.st329{display:inline;fill:url(#SVGID_00000169521692264133603500000007093579106323495819_);}
	.st330{display:inline;fill:url(#SVGID_00000070814885514634353960000011586219813128036783_);}
	.st331{display:inline;fill:url(#SVGID_00000100342014298852069680000014893774438163362989_);}
	.st332{display:inline;fill:url(#SVGID_00000061466349610645417920000014447338477609050020_);}
	.st333{fill:url(#SVGID_00000029728669684600532700000000730229640169893801_);}
	.st334{fill:url(#SVGID_00000098219107125026515370000009375668528168859539_);}
	.st335{fill:url(#SVGID_00000062189236268470799840000017821510197231109275_);}
	.st336{fill:url(#SVGID_00000178182933439868677560000005022611247045786016_);}
	.st337{fill:url(#SVGID_00000064346346587963626950000006340584742034811293_);}
	.st338{fill:url(#SVGID_00000130610268610866104270000015043399084126533281_);}
	.st339{clip-path:url(#SVGID_00000032636015969411806270000007865055247820469404_);}
	.st340{fill:url(#SVGID_00000146468171502496258080000011335612806582039947_);}
	.st341{fill:url(#SVGID_00000042732710605527500590000009210254081601384078_);}
	.st342{fill:url(#SVGID_00000072993492524291016550000004861647133621543052_);}
	.st343{fill:url(#SVGID_00000147941541686965312980000015807699316862918846_);}
	.st344{fill:url(#SVGID_00000177480940160404782410000017199573375089921181_);}
	.st345{fill:url(#SVGID_00000179645226602480069070000014447164135168370097_);}
	.st346{fill:url(#SVGID_00000025410189825881977150000002923043308431624074_);}
	.st347{fill:url(#SVGID_00000067916148012306830520000000995166347425807802_);}
	.st348{fill:url(#SVGID_00000126288940157604578680000005580613036270099076_);}
	.st349{fill:url(#SVGID_00000161627806904663973910000010157665633379069584_);}
	.st350{fill:url(#SVGID_00000014619075506317055840000011389233180759968129_);}
	.st351{fill:url(#SVGID_00000106128003208846707710000000419060895226094511_);}
	.st352{clip-path:url(#SVGID_00000176739804418140513390000013237102373181591434_);}
	.st353{display:inline;fill:url(#SVGID_00000096760445542895741690000014950746064039196075_);}
	.st354{display:inline;fill:url(#SVGID_00000136371474301857939350000010069703253378500774_);}
	.st355{display:inline;fill:url(#SVGID_00000065055454637366618730000008402883955727540364_);}
	.st356{display:inline;fill:url(#SVGID_00000158014499460463648230000011602844142462741162_);}
	.st357{display:inline;fill:url(#SVGID_00000041265716581407941910000017280839826846087559_);}
	.st358{fill:url(#SVGID_00000124150304366514437830000007814174266150079167_);}
	.st359{fill:url(#SVGID_00000088095663287586299430000014573457923302463149_);}
	.st360{fill:url(#SVGID_00000079462203932503755350000012686686208515202999_);}
	.st361{fill:url(#SVGID_00000016754886990862519970000018062647702452309658_);}
	.st362{fill:url(#SVGID_00000093884030008720871310000010855300943708452025_);}
	.st363{fill:url(#SVGID_00000000218194249492898390000014173326134731296930_);}
	.st364{clip-path:url(#SVGID_00000088846485518886585060000014673426537501255597_);}
	.st365{fill:url(#SVGID_00000154395716461353492870000009171022103004164755_);}
	.st366{fill:url(#SVGID_00000041980342222725226640000010457641807297142200_);}
	.st367{fill:url(#SVGID_00000169524350334304602430000016010263899121199257_);}
	.st368{fill:url(#SVGID_00000139977621064706946420000003223668369036852887_);}
	.st369{fill:url(#SVGID_00000121960804591463913640000012529033884026948537_);}
	.st370{fill:url(#SVGID_00000173848873298745168670000013109312974265289355_);}
	.st371{fill:url(#SVGID_00000147184464482953665840000008112647259804794275_);}
	.st372{fill:url(#SVGID_00000150080785981394648030000004779210274092060846_);}
	.st373{fill:url(#SVGID_00000091710827163575702910000012846605911431385256_);}
	.st374{fill:url(#SVGID_00000021841835573751043810000011299565036097347227_);}
	.st375{fill:url(#SVGID_00000052814503225042967930000004031718154759652761_);}
	.st376{fill:url(#SVGID_00000181796031035427061190000017732408599799045531_);}
	.st377{fill:url(#SVGID_00000136400573168203826260000017150827706744918427_);}
	.st378{clip-path:url(#SVGID_00000025406706230260085480000013578320985618455467_);}
	.st379{display:inline;fill:url(#SVGID_00000017513223853771343230000009625060521030273169_);}
	.st380{display:inline;fill:url(#SVGID_00000102524372480369800270000008469266852519255720_);}
	.st381{display:inline;fill:url(#SVGID_00000033333302241740190560000018323855933231713428_);}
	.st382{display:inline;fill:url(#SVGID_00000109740972905871944980000000593765313257135805_);}
	.st383{display:inline;fill:url(#SVGID_00000044146541340578236380000011824335048412428701_);}
	.st384{fill:url(#SVGID_00000011741547462523626430000001275487934365799327_);}
	.st385{fill:url(#SVGID_00000132792397255552947410000013474609526535699872_);}
	.st386{fill:url(#SVGID_00000076592610901131834870000006273706390077797764_);}
	.st387{fill:url(#SVGID_00000057129333445907335350000010985688231581006735_);}
	.st388{fill:url(#SVGID_00000054958328728466476300000009730005186324097429_);}
	.st389{fill:url(#SVGID_00000041284802399743469160000009557680307122288301_);}
	.st390{clip-path:url(#SVGID_00000132773909712210248890000011406533942493919894_);}
	.st391{fill:url(#SVGID_00000098187248252646772930000006507567832487691682_);}
	.st392{fill:url(#SVGID_00000037684586472996553090000004817775868587586967_);}
	.st393{fill:url(#SVGID_00000052074808925967147060000005569402139386038181_);}
	.st394{fill:url(#SVGID_00000018229600217198460470000013986389461755262859_);}
	.st395{fill:url(#SVGID_00000037653990807188656790000009488857894144547745_);}
	.st396{fill:url(#SVGID_00000105404642546430899520000017348140043456415409_);}
	.st397{fill:url(#SVGID_00000044868065197472763740000015535909140565949368_);}
	.st398{fill:url(#SVGID_00000152248200591847862270000015601783357013462170_);}
	.st399{fill:url(#SVGID_00000081605591588668554930000010363478658959198595_);}
	.st400{fill:url(#SVGID_00000004518624142685358530000011183649703097736582_);}
	.st401{fill:url(#SVGID_00000054226897351384951230000007627608771314139054_);}
	.st402{fill:url(#SVGID_00000175316396534982412670000018333773299631597212_);}
	.st403{display:inline;fill:url(#SVGID_00000009584364088771480890000016189098479161743779_);}
	.st404{display:inline;fill:url(#SVGID_00000125596899881905273560000011540141062977347256_);}
	.st405{display:inline;fill:url(#SVGID_00000018235718491232470660000004430089934893070757_);}
	.st406{display:inline;fill:url(#SVGID_00000140006206244741499020000017164688003928006547_);}
	.st407{display:inline;fill:url(#SVGID_00000103231686581117799230000003148766846320605109_);}
	.st408{fill:url(#SVGID_00000049939607115547286880000008044613246205343670_);}
	.st409{fill:url(#SVGID_00000155120934680028817500000002987502460529415302_);}
	.st410{fill:url(#SVGID_00000058552803478484776010000007749077978917812913_);}
	.st411{fill:url(#SVGID_00000083082187862741103960000012429924652266973840_);}
	.st412{fill:url(#SVGID_00000106121636847024622360000005066552548113346470_);}
	.st413{fill:url(#SVGID_00000127739840879429991180000017641236735008490679_);}
	.st414{fill:url(#SVGID_00000163771259873142611650000008269884740464292765_);}
	.st415{fill:url(#SVGID_00000168800074534184288650000012651033977970773942_);}
	.st416{fill:url(#SVGID_00000033368005376577419220000000549900372135238581_);}
	.st417{fill:url(#SVGID_00000168076617363879875140000016426998076872810654_);}
	.st418{fill:url(#SVGID_00000020377176879012873340000014285686270606623631_);}
	.st419{fill:url(#SVGID_00000008850098091144380980000015351897129845650606_);}
	.st420{display:inline;fill:url(#SVGID_00000034080050047985674330000011955629388159016583_);}
	.st421{display:inline;fill:url(#SVGID_00000003064053187797919990000004586041091199880882_);}
	.st422{display:inline;fill:url(#SVGID_00000074443006153673811100000009078183069642575783_);}
	.st423{display:inline;fill:url(#SVGID_00000176045569965019519740000003190568231317584047_);}
	.st424{display:inline;fill:url(#SVGID_00000051384811163900207150000005635266423706890928_);}
	.st425{fill:url(#SVGID_00000008849091635561548060000008461133225476175027_);}
	.st426{fill:url(#SVGID_00000121971082646270717020000018080433555894811028_);}
	.st427{fill:url(#SVGID_00000054957032567937647910000000936635697448797359_);}
	.st428{fill:url(#SVGID_00000142143670650922117650000002786302704269395381_);}
	.st429{fill:url(#SVGID_00000163772369580841720870000005712848455281296018_);}
	.st430{fill:url(#SVGID_00000072986891271443716050000012591462861752542372_);}
	.st431{fill:url(#SVGID_00000183223794120721044270000004278875927439293829_);}
	.st432{fill:url(#SVGID_00000174586449449466643870000008599703576057115530_);}
	.st433{fill:url(#SVGID_00000125591228303519826860000004012322082163630006_);}
	.st434{fill:url(#SVGID_00000085969204103449502300000013197969405347113390_);}
	.st435{fill:url(#SVGID_00000173872450614388411290000011613137866135633592_);}
	.st436{fill:url(#SVGID_00000147199152501493503490000017935310694815302318_);}
	.st437{display:inline;fill:url(#SVGID_00000122685631107137836740000009371049642838535560_);}
	.st438{display:inline;fill:url(#SVGID_00000012459181657675639840000013529481064300172461_);}
	.st439{display:inline;fill:url(#SVGID_00000062176380682377907960000009199390509900125872_);}
	.st440{display:inline;fill:url(#SVGID_00000044162721297322543980000008733735297635621268_);}
	.st441{display:inline;fill:url(#SVGID_00000097502504633247653480000001319851463598955427_);}
	.st442{fill:url(#SVGID_00000027566560685378621310000004467340879496070023_);}
	.st443{fill:url(#SVGID_00000073718788953415936500000006901096157880082108_);}
	.st444{fill:url(#SVGID_00000137120243865372772520000010839691129988068493_);}
	.st445{fill:url(#SVGID_00000098909789689986698830000006472810294788282543_);}
	.st446{fill:url(#SVGID_00000059291404433386213040000014880287900427903673_);}
	.st447{fill:url(#SVGID_00000106146536686103137330000004474119991318628018_);}
	.st448{fill:url(#SVGID_00000091014442765661592630000000194102821975930770_);}
	.st449{fill:url(#SVGID_00000137129334108481929620000016557742116972511388_);}
	.st450{fill:url(#SVGID_00000101817148605640723090000001619064730032873398_);}
	.st451{fill:url(#SVGID_00000036945321107200337730000000327762418620604076_);}
	.st452{fill:url(#SVGID_00000096043532716904600180000014859890544319000705_);}
	.st453{fill:url(#SVGID_00000034072791844119502600000016043016305695306626_);}
	.st454{display:inline;fill:url(#SVGID_00000081605406813786533000000006318737114011458221_);}
	.st455{display:inline;fill:url(#SVGID_00000129168579457236134850000008340628845501616022_);}
	.st456{display:inline;fill:url(#SVGID_00000161630816204761796980000017421030278207813804_);}
	.st457{display:inline;fill:url(#SVGID_00000032607362988784451570000000300321038762810537_);}
	.st458{display:inline;fill:url(#SVGID_00000029731044103945506330000012158801289134474383_);}
	.st459{fill:url(#SVGID_00000136377635754131396080000007422042992353632426_);}
	.st460{fill:url(#SVGID_00000004515566505707477510000000258908876195576234_);}
	.st461{fill:url(#SVGID_00000078008515622015640560000012877862005212162481_);}
	.st462{fill:url(#SVGID_00000031905128278117191380000001494585521312571530_);}
	.st463{fill:url(#SVGID_00000000187062456532235680000009250943388507416720_);}
	.st464{fill:url(#SVGID_00000072258140145511341280000012125224254451963527_);}
</style>
<g>
	<g>
		<path class="st0" d="M2517.2,86c-15.8-50.2-63.1-86-117.6-86s-101.8,35.8-117.6,86l-41.6,123.3V7.2h-217.9
			c-38.7,0-74.6,15.8-101.8,41.6V7.2h-223.7c-41.6,0-78.9,17.2-106.1,45.9V7.2h-212.2c-90.3,0-164.9,74.6-164.9,164.9
			c0,43,17.2,83.2,44.4,111.8h-44.4V476h212.2c60.2,0,111.8-31.5,142-80.3c24.4,47.3,73.1,80.3,130.5,80.3h225.1v-41.6
			c25.8,25.8,61.7,41.6,101.8,41.6h622.3L2517.2,86z"/>
		<g>
			<g>
				
					<linearGradient id="SVGID_00000080892023016048820100000003221803352343159468_" gradientUnits="userSpaceOnUse" x1="1341.0104" y1="606.19" x2="2421.2273" y2="-17.4734">
					<stop  offset="0" style="stop-color:#3C5AA6"/>
					<stop  offset="0.7031" style="stop-color:#2D97C2"/>
				</linearGradient>
				<path style="fill:url(#SVGID_00000080892023016048820100000003221803352343159468_);" d="M1246.8,172.1
					c0,73.1,58.8,131.9,131.9,131.9h45.9c4.3,0,7.2,2.9,7.2,7.2c0,4.3-2.9,7.2-5.7,7.2h-179.2v55.9h179.2
					c34.4,0,63.1-28.7,63.1-63.1c0-34.4-28.7-63.1-63.1-63.1h-45.9c-41.6,0-76-34.4-76-76s34.4-76,76-76H1558V40.1h-179.2
					C1305.6,40.1,1246.8,98.9,1246.8,172.1z M1315.7,172.1c0,34.4,28.7,63.1,63.1,63.1h45.9c41.6,0,76,34.4,76,76s-34.4,76-76,76
					h-177.8v55.9h179.2c73.1,0,131.9-58.8,131.9-131.9c0-73.1-58.8-131.9-131.9-131.9h-45.9c-4.3,0-7.2-2.9-7.2-7.2
					c0-2.9,2.9-5.7,5.7-5.7H1558V109h-179.2C1344.3,109,1315.7,137.7,1315.7,172.1z M2049.8,164.9H2209V109h-186.4
					c-24.4,0-43,18.6-43,43v179.2c0,24.4,18.6,43,43,43h116.1V248.1h-88.9V304h33v12.9h-33c-7.2,0-12.9-5.7-12.9-12.9V177.8
					C2036.9,170.6,2042.6,164.9,2049.8,164.9z M2505.8,374.2l-88.9-263.8c-2.9-7.2-8.6-12.9-17.2-12.9c-7.2,0-14.3,5.7-17.2,11.5
					l-114.7,334.1h66l40.1-119v50.2H2505.8z M2398.2,253.8l18.6,57.4h-38.7L2398.2,253.8z M2485.7,98.9c-11.5-37.3-45.9-66-87.5-66
					s-76,27.2-86,64.5l-104.7,306.8V179.2h-157.7v55.9H2153v152h-129c-31.5,0-55.9-25.8-55.9-55.9V152c0-31.5,25.8-55.9,55.9-55.9
					h185V40.1h-186.4c-61.7,0-111.8,50.2-111.8,111.8v179.2c0,61.7,50.2,111.8,111.8,111.8h230.9l116.1-337
					c4.3-12.9,15.8-21.5,30.1-21.5s25.8,8.6,30.1,21.5l94.6,281h-149.1v55.9h226.6L2485.7,98.9z M1585.2,152v179.2
					c0,61.7,50.2,111.8,111.8,111.8h192.1v-55.9h-192.1c-31.5,0-55.9-25.8-55.9-55.9V152c0-31.5,25.8-55.9,55.9-55.9h192.1V40.1
					h-192.1C1635.4,40.1,1585.2,90.3,1585.2,152z M1710,305.4h139.1v-55.9h-195v83.2c0,24.4,18.6,43,43,43h192.1v-55.9h-166.3
					C1715.7,318.3,1710,312.6,1710,305.4z M1722.9,166.3h164.9V109h-190.7c-24.4,0-43,18.6-43,43v83.2h195v-55.9H1710
					C1710,172.1,1715.7,166.3,1722.9,166.3z"/>
			</g>
		</g>
	</g>
	<g>
		<path class="st0" d="M931.2,722c-5.3-15.8-13.1-31.2-23.1-45.6c-10.2-14.7-22.7-28-37.2-39.6c-15.2-12.1-33.1-21.7-53.1-28.5
			c-19.7-6.7-41.6-10.1-65-10.1c-24.3,0-46.4,3.5-65.5,10.4c-19.3,6.9-36.5,16.7-51.3,29.1c-12.8,10.8-24.2,23-33.8,36.5
			c-9.7-13.6-21.4-26-34.8-36.9c-14.9-12.1-32-21.7-51.1-28.6c-19.2-6.9-41.2-10.4-65.5-10.4c-24.1,0-46.2,3.4-65.7,10.2
			c-19.6,6.8-37.2,16.3-52.4,28.4c-14.8,11.8-27.4,25.4-37.3,40.3c-9.2,13.7-16.7,28.3-22.4,43.2l-0.2,0.6L0,1490.7h277h80.5
			l96.6-293.3l110,293.3h75.3l110.8-295.3l100.2,295.3h353.2L931.2,722z"/>
		<g>
			<g>
				<g>
					<path class="st0" d="M601.8,1085.6l-114.2-306c-2.1-5.3-6.7-10.1-13.6-14.4c-6.9-4.3-14.7-6.4-23.2-6.4
						c-7.5,0-15.2,2.1-23.2,6.4c-8,4.3-12.8,9.1-14.4,14.4l-230.1,656.7H76.9l246.9-696.6c4.3-11.2,9.8-22,16.8-32.4
						c6.9-10.4,15.6-19.7,26-28c10.4-8.3,22.5-14.8,36.3-19.6c13.8-4.8,29.8-7.2,47.9-7.2c18.1,0,33.8,2.4,47.1,7.2
						c13.3,4.8,25,11.3,35.2,19.6c10.1,8.3,18.8,17.6,26,28c7.2,10.4,13.4,21.2,18.8,32.4l24,47.9l24-47.9
						c5.9-11.2,12.4-22,19.6-32.4c7.2-10.4,15.7-19.7,25.6-28c9.8-8.3,21.4-14.8,34.8-19.6c13.3-4.8,29-7.2,47.1-7.2
						c17.6,0,33.4,2.4,47.5,7.2c14.1,4.8,26.4,11.3,36.7,19.6c10.4,8.3,19.2,17.6,26.4,28c7.2,10.4,12.6,21.2,16.4,32.4l246.9,696.6
						h-106.3L790.3,779.7c-1.6-5.3-6.4-10.1-14.4-14.4c-8-4.3-15.7-6.4-23.2-6.4c-8.5,0-16.3,2.1-23.2,6.4
						c-6.9,4.3-11.5,9.1-13.6,14.4L601.8,1085.6z M601.8,1436.4l-151-402.6l-132.6,402.6H211.9l218.9-636.7c1.1-3.2,3.7-6,8-8.4
						c4.3-2.4,8.3-3.6,12-3.6c3.7,0,7.6,1.2,11.6,3.6c4,2.4,6.5,5.2,7.6,8.4l131.8,363.5l131.8-363.5c1.1-3.2,3.6-6,7.6-8.4
						c4-2.4,7.9-3.6,11.6-3.6c3.7,0,7.7,1.2,12,3.6c4.3,2.4,6.9,5.2,8,8.4l218.9,636.7H889.4l-136.6-402.6L601.8,1436.4z"/>
					<path class="st0" d="M1326.4,1490.7c-44,0-83-5.5-116-16.3c-36.3-11.8-67.1-31-91.7-57.1c-24.3-25.7-42.3-58.5-53.5-97.4
						c-10.1-35.3-15.3-77.4-15.3-124.8V893.9c0-49.1,5.1-91.9,15.3-127.2c11.2-39.1,29.3-71.8,53.7-97.3
						c24.8-25.8,55.8-44.6,92.4-55.9c32.8-10.1,71.5-15.2,115.1-15.2h102.3c44,0,83.1,5.1,116.1,15.1c37,11.3,68.2,30.2,92.8,56.2
						c24.2,25.6,41.9,58.4,52.8,97.4c9.8,35.3,14.8,77.9,14.8,126.8v301.2c0,47.3-5,89.2-14.8,124.4c-10.8,39-28.5,71.8-52.5,97.6
						c-24.4,26.2-55.4,45.5-92.1,57.4c-33.2,10.8-72.6,16.2-117,16.2H1326.4z"/>
					<path class="st0" d="M1227.3,1422.8c-27.7-9-50.7-23.3-69.1-42.7c-18.4-19.4-32-44.5-40.7-75.1c-8.8-30.6-13.2-67.2-13.2-109.8
						V893.9c0-44.2,4.4-81.6,13.2-112.2c8.8-30.6,22.4-55.5,40.7-74.7c18.4-19.2,41.4-33,69.1-41.5c27.7-8.5,60.7-12.8,99.1-12.8
						h102.3c38.9,0,72.3,4.3,100.3,12.8c28,8.5,51,22.4,69.1,41.5c18.1,19.2,31.4,44.1,39.9,74.7c8.5,30.6,12.8,68,12.8,112.2v301.2
						c0,42.6-4.3,79.2-12.8,109.8c-8.5,30.6-21.8,55.7-39.9,75.1c-18.1,19.4-41.1,33.7-69.1,42.7c-28,9.1-61.4,13.6-100.3,13.6
						h-102.3C1288,1436.4,1255,1431.8,1227.3,1422.8z M1439.8,1330.1c20.2,0,37.3-2.8,51.1-8.4c13.8-5.6,25.2-13.4,34-23.6
						c8.8-10.1,15.2-22.1,19.2-35.9c4-13.8,6-28.8,6-44.7V871.5c0-16-2-30.9-6-44.7c-4-13.8-10.4-25.8-19.2-35.9
						c-8.8-10.1-20.2-18-34.4-23.6c-14.1-5.6-31.3-8.4-51.5-8.4h-123c-20.2,0-37.4,2.8-51.5,8.4c-14.1,5.6-25.6,13.5-34.4,23.6
						c-8.8,10.1-15.2,22.1-19.2,35.9c-4,13.9-6,28.8-6,44.7v345.9c0,16,2,30.9,6,44.7c4,13.9,10.4,25.8,19.2,35.9
						c8.8,10.1,20.1,18,34,23.6c13.8,5.6,30.9,8.4,51.1,8.4h62.3H1439.8z M1325.6,1301.3c-18.6,0-34-1.7-45.9-5.2
						c-12-3.5-21.3-9.2-28-17.2c-6.7-8-11.3-18.2-14-30.8c-2.7-12.5-4-28.1-4-46.7v-314c0-13.8,1.3-26.9,4-39.1
						c2.7-12.2,7.5-22.9,14.4-32c6.9-9,16.4-16.1,28.4-21.2c12-5.1,27.3-7.6,45.9-7.6h51.1h51.1c18.6,0,34,2.5,45.9,7.6
						c12,5.1,21.4,12.1,28.4,21.2c6.9,9.1,11.7,19.7,14.4,32c2.7,12.3,4,25.3,4,39.1v314c0,18.6-1.3,34.2-4,46.7
						c-2.7,12.5-7.3,22.8-14,30.8c-6.7,8-16,13.7-28,17.2c-12,3.5-27.3,5.2-45.9,5.2H1325.6z M1403.1,1195.1
						c6.4,0,10.5-1.9,12.4-5.6c1.9-3.7,2.8-8.8,2.8-15.2V914.7c0-6.4-0.9-11.4-2.8-15.2c-1.9-3.7-6-5.6-12.4-5.6h-51.1
						c-6.4,0-10.5,1.9-12.4,5.6c-1.9,3.7-2.8,8.8-2.8,15.2v259.6c0,6.4,0.9,11.5,2.8,15.2c1.9,3.7,6,5.6,12.4,5.6H1403.1z"/>
					<path class="st0" d="M1650.7,1490.7V598.3h361.9c44,0,83.1,5.1,116.1,15.1c37,11.3,68.2,30.2,92.8,56.2
						c24.2,25.6,41.9,58.4,52.8,97.4c9.8,35.3,14.8,77.9,14.8,126.8v301.2c0,47.3-5,89.2-14.8,124.4c-10.8,39-28.5,71.8-52.5,97.6
						c-24.4,26.2-55.4,45.5-92.1,57.4c-33.2,10.8-72.6,16.2-117,16.2H1650.7z"/>
					<path class="st0" d="M2074.9,1321.7c13.8-5.6,25.2-13.4,34-23.6c8.8-10.1,15.2-22.1,19.2-35.9c4-13.8,6-28.8,6-44.7V871.5
						c0-16-2-30.9-6-44.7c-4-13.8-10.4-25.8-19.2-35.9c-8.8-10.1-20.2-18-34.3-23.6c-14.1-5.6-31.3-8.4-51.5-8.4h-318V652.7h307.6
						c38.9,0,72.3,4.3,100.3,12.8c28,8.5,51,22.4,69.1,41.5c18.1,19.2,31.4,44.1,39.9,74.7c8.5,30.6,12.8,68,12.8,112.2v301.2
						c0,42.6-4.3,79.2-12.8,109.8c-8.5,30.6-21.8,55.7-39.9,75.1c-18.1,19.4-41.1,33.7-69.1,42.7c-28,9.1-61.4,13.6-100.3,13.6H1705
						V919.5h100.7v410.6h218.1C2044,1330.1,2061,1327.3,2074.9,1321.7z M1705,893.9V787.7h307.6c18.6,0,34,2.5,45.9,7.6
						c12,5.1,21.4,12.1,28.4,21.2c6.9,9.1,11.7,19.7,14.4,32c2.7,12.3,4,25.3,4,39.1v314c0,18.6-1.3,34.2-4,46.7
						c-2.7,12.5-7.3,22.8-14,30.8c-6.7,8-16,13.7-28,17.2c-12,3.5-27.3,5.2-45.9,5.2h-178.9V919.5h111.8v254.8
						c0,13.9,6.7,20.8,20,20.8h17.6c6.4,0,11.6-1.9,15.6-5.6c4-3.7,6-8.8,6-15.2V914.7c0-6.4-2-11.4-6-15.2c-4-3.7-9.2-5.6-15.6-5.6
						H1705z"/>
					<path class="st0" d="M2507.1,1490.7c-36.6,0-72.4-8-106.4-23.9c-33-15.3-62.4-36.5-87.6-63c-25-26.3-45.2-57.7-59.9-93.3
						c-14.9-36-22.5-74.9-22.5-115.5V893.9c0-40.6,7.6-79.5,22.5-115.5c14.7-35.6,34.9-67,59.9-93.3c25.1-26.4,54.6-47.6,87.6-63
						c34-15.8,69.8-23.9,106.4-23.9h357.1v350h-60.7v192.4h60.7v350H2507.1z"/>
					<path class="st0" d="M2285,893.9c0-33.6,6.1-65.1,18.4-94.7c12.2-29.6,28.6-55.1,49.1-76.7c20.5-21.6,44.2-38.6,71.1-51.1
						c26.9-12.5,54.7-18.8,83.5-18.8h302.8v106.3h-290c-20.2,0-38.3,4-54.3,12c-16,8-29.4,18.4-40.3,31.2
						c-10.9,12.8-19.3,27.3-25.2,43.5c-5.9,16.3-8.8,32.4-8.8,48.3v301.2c0,16,2.9,32.1,8.8,48.3c5.9,16.3,14.2,30.8,25.2,43.5
						c10.9,12.8,24.4,23.2,40.3,31.2c16,8,34.1,12,54.3,12h290v106.2h-302.8c-28.8,0-56.6-6.3-83.5-18.8
						c-26.9-12.5-50.6-29.6-71.1-51.1c-20.5-21.6-36.9-47.1-49.1-76.7c-12.3-29.6-18.4-61.1-18.4-94.7V893.9z M2420,1031.3V909.9
						c0-13.8,2.3-28.1,6.8-42.7c4.5-14.6,11.3-27.8,20.4-39.5c9-11.7,20.5-21.3,34.4-28.8c13.8-7.5,30.1-11.2,48.7-11.2h279.6v106.2
						h-277.2c-3.2,0-6.5,1.9-10,5.6c-3.5,3.7-5.2,8.8-5.2,15.2v11.2h231.7v105.5H2420z M2420,1057.7h329.1v106.2h-231.7v10.4
						c0,6.4,1.7,11.5,5.2,15.2c3.5,3.7,6.8,5.6,10,5.6h277.2v106.3h-279.6c-18.6,0-34.9-3.7-48.7-11.2c-13.9-7.5-25.3-17-34.4-28.8
						c-9.1-11.7-15.9-24.9-20.4-39.5c-4.5-14.6-6.8-28.9-6.8-42.7V1057.7z"/>
					<path class="st0" d="M3086.3,1490.7c-36.6,0-72.4-8-106.4-23.9c-33-15.3-62.4-36.5-87.6-63c-25-26.3-45.2-57.7-59.9-93.3
						c-14.9-36-22.5-74.9-22.5-115.5V598.3H3163v541.6h15.2v0.8h265.2v350H3086.3z"/>
					<path class="st0" d="M3389,1436.4h-302.8c-28.8,0-56.6-6.3-83.5-18.8c-26.9-12.5-50.6-29.6-71.1-51.1
						c-20.5-21.6-36.9-47.1-49.1-76.7c-12.3-29.6-18.4-61.1-18.4-94.7V652.7h106.3v542.4c0,16,2.9,32.1,8.8,48.3
						c5.9,16.3,14.2,30.8,25.2,43.5c10.9,12.8,24.4,23.2,40.3,31.2c16,8,34.1,12,54.3,12h290V1436.4z M3123.8,1195.1H3389v106.3
						h-279.6c-18.6,0-34.9-3.7-48.7-11.2c-13.9-7.5-25.3-17-34.4-28.8c-9.1-11.7-15.9-24.9-20.4-39.5c-4.5-14.6-6.8-28.9-6.8-42.7
						V652.7h109.4v521.7c0,6.4,1.7,11.3,5.2,14.8c3.5,3.5,6.8,5.2,10,5.2V1195.1z"/>
					<path class="st0" d="M3497.8,1490.7V948.3l-120.7,0v-350l185.4,0c36.6,0,72.4,8,106.4,23.8c33,15.4,62.5,36.5,87.6,63
						c25,26.3,45.2,57.7,59.9,93.3c14.9,36,22.5,74.9,22.5,115.5v596.8l-135,0L3497.8,1490.7z"/>
				</g>
				<g>
					<g>
						
							<linearGradient id="SVGID_00000041282944310838467990000003490678291710438308_" gradientUnits="userSpaceOnUse" x1="601.7981" y1="652.6578" x2="601.7981" y2="1436.3517">
							<stop  offset="0" style="stop-color:#23BFD4"/>
							<stop  offset="0.7031" style="stop-color:#3F4DA0"/>
						</linearGradient>
						<path style="fill:url(#SVGID_00000041282944310838467990000003490678291710438308_);" d="M601.8,1085.6l-114.2-306
							c-2.1-5.3-6.7-10.1-13.6-14.4c-6.9-4.3-14.7-6.4-23.2-6.4c-7.5,0-15.2,2.1-23.2,6.4c-8,4.3-12.8,9.1-14.4,14.4l-230.1,656.7
							H76.9l246.9-696.6c4.3-11.2,9.8-22,16.8-32.4c6.9-10.4,15.6-19.7,26-28c10.4-8.3,22.5-14.8,36.3-19.6
							c13.8-4.8,29.8-7.2,47.9-7.2c18.1,0,33.8,2.4,47.1,7.2c13.3,4.8,25,11.3,35.2,19.6c10.1,8.3,18.8,17.6,26,28
							c7.2,10.4,13.4,21.2,18.8,32.4l24,47.9l24-47.9c5.9-11.2,12.4-22,19.6-32.4c7.2-10.4,15.7-19.7,25.6-28
							c9.8-8.3,21.4-14.8,34.8-19.6c13.3-4.8,29-7.2,47.1-7.2c17.6,0,33.4,2.4,47.5,7.2c14.1,4.8,26.4,11.3,36.7,19.6
							c10.4,8.3,19.2,17.6,26.4,28c7.2,10.4,12.6,21.2,16.4,32.4l246.9,696.6h-106.3L790.3,779.7c-1.6-5.3-6.4-10.1-14.4-14.4
							c-8-4.3-15.7-6.4-23.2-6.4c-8.5,0-16.3,2.1-23.2,6.4c-6.9,4.3-11.5,9.1-13.6,14.4L601.8,1085.6z M601.8,1436.4l-151-402.6
							l-132.6,402.6H211.9l218.9-636.7c1.1-3.2,3.7-6,8-8.4c4.3-2.4,8.3-3.6,12-3.6c3.7,0,7.6,1.2,11.6,3.6c4,2.4,6.5,5.2,7.6,8.4
							l131.8,363.5l131.8-363.5c1.1-3.2,3.6-6,7.6-8.4c4-2.4,7.9-3.6,11.6-3.6c3.7,0,7.7,1.2,12,3.6c4.3,2.4,6.9,5.2,8,8.4
							l218.9,636.7H889.4l-136.6-402.6L601.8,1436.4z"/>
					</g>
					<g>
						
							<linearGradient id="SVGID_00000178197073267885887950000016305464524196726185_" gradientUnits="userSpaceOnUse" x1="1377.4949" y1="652.6578" x2="1377.4949" y2="1436.3517">
							<stop  offset="0" style="stop-color:#23BFD4"/>
							<stop  offset="0.7031" style="stop-color:#3F4DA0"/>
						</linearGradient>
						<path style="fill:url(#SVGID_00000178197073267885887950000016305464524196726185_);" d="M1227.3,1422.8
							c-27.7-9-50.7-23.3-69.1-42.7c-18.4-19.4-32-44.5-40.7-75.1c-8.8-30.6-13.2-67.2-13.2-109.8V893.9c0-44.2,4.4-81.6,13.2-112.2
							c8.8-30.6,22.4-55.5,40.7-74.7c18.4-19.2,41.4-33,69.1-41.5c27.7-8.5,60.7-12.8,99.1-12.8h102.3c38.9,0,72.3,4.3,100.3,12.8
							c28,8.5,51,22.4,69.1,41.5c18.1,19.2,31.4,44.1,39.9,74.7c8.5,30.6,12.8,68,12.8,112.2v301.2c0,42.6-4.3,79.2-12.8,109.8
							c-8.5,30.6-21.8,55.7-39.9,75.1c-18.1,19.4-41.1,33.7-69.1,42.7c-28,9.1-61.4,13.6-100.3,13.6h-102.3
							C1288,1436.4,1255,1431.8,1227.3,1422.8z M1439.8,1330.1c20.2,0,37.3-2.8,51.1-8.4c13.8-5.6,25.2-13.4,34-23.6
							c8.8-10.1,15.2-22.1,19.2-35.9c4-13.8,6-28.8,6-44.7V871.5c0-16-2-30.9-6-44.7c-4-13.8-10.4-25.8-19.2-35.9
							c-8.8-10.1-20.2-18-34.4-23.6c-14.1-5.6-31.3-8.4-51.5-8.4h-123c-20.2,0-37.4,2.8-51.5,8.4c-14.1,5.6-25.6,13.5-34.4,23.6
							c-8.8,10.1-15.2,22.1-19.2,35.9c-4,13.9-6,28.8-6,44.7v345.9c0,16,2,30.9,6,44.7c4,13.9,10.4,25.8,19.2,35.9
							c8.8,10.1,20.1,18,34,23.6c13.8,5.6,30.9,8.4,51.1,8.4h62.3H1439.8z M1325.6,1301.3c-18.6,0-34-1.7-45.9-5.2
							c-12-3.5-21.3-9.2-28-17.2c-6.7-8-11.3-18.2-14-30.8c-2.7-12.5-4-28.1-4-46.7v-314c0-13.8,1.3-26.9,4-39.1
							c2.7-12.2,7.5-22.9,14.4-32c6.9-9,16.4-16.1,28.4-21.2c12-5.1,27.3-7.6,45.9-7.6h51.1h51.1c18.6,0,34,2.5,45.9,7.6
							c12,5.1,21.4,12.1,28.4,21.2c6.9,9.1,11.7,19.7,14.4,32c2.7,12.3,4,25.3,4,39.1v314c0,18.6-1.3,34.2-4,46.7
							c-2.7,12.5-7.3,22.8-14,30.8c-6.7,8-16,13.7-28,17.2c-12,3.5-27.3,5.2-45.9,5.2H1325.6z M1403.1,1195.1
							c6.4,0,10.5-1.9,12.4-5.6c1.9-3.7,2.8-8.8,2.8-15.2V914.7c0-6.4-0.9-11.4-2.8-15.2c-1.9-3.7-6-5.6-12.4-5.6h-51.1
							c-6.4,0-10.5,1.9-12.4,5.6c-1.9,3.7-2.8,8.8-2.8,15.2v259.6c0,6.4,0.9,11.5,2.8,15.2c1.9,3.7,6,5.6,12.4,5.6H1403.1z"/>
					</g>
					<g>
						
							<linearGradient id="SVGID_00000069373046618851261300000006812396570912781453_" gradientUnits="userSpaceOnUse" x1="1969.8491" y1="652.6578" x2="1969.8491" y2="1436.3517">
							<stop  offset="0" style="stop-color:#23BFD4"/>
							<stop  offset="0.7031" style="stop-color:#3F4DA0"/>
						</linearGradient>
						<path style="fill:url(#SVGID_00000069373046618851261300000006812396570912781453_);" d="M2074.9,1321.7
							c13.8-5.6,25.2-13.4,34-23.6c8.8-10.1,15.2-22.1,19.2-35.9c4-13.8,6-28.8,6-44.7V871.5c0-16-2-30.9-6-44.7
							c-4-13.8-10.4-25.8-19.2-35.9c-8.8-10.1-20.2-18-34.3-23.6c-14.1-5.6-31.3-8.4-51.5-8.4h-318V652.7h307.6
							c38.9,0,72.3,4.3,100.3,12.8c28,8.5,51,22.4,69.1,41.5c18.1,19.2,31.4,44.1,39.9,74.7c8.5,30.6,12.8,68,12.8,112.2v301.2
							c0,42.6-4.3,79.2-12.8,109.8c-8.5,30.6-21.8,55.7-39.9,75.1c-18.1,19.4-41.1,33.7-69.1,42.7c-28,9.1-61.4,13.6-100.3,13.6
							H1705V919.5h100.7v410.6h218.1C2044,1330.1,2061,1327.3,2074.9,1321.7z M1705,893.9V787.7h307.6c18.6,0,34,2.5,45.9,7.6
							c12,5.1,21.4,12.1,28.4,21.2c6.9,9.1,11.7,19.7,14.4,32c2.7,12.3,4,25.3,4,39.1v314c0,18.6-1.3,34.2-4,46.7
							c-2.7,12.5-7.3,22.8-14,30.8c-6.7,8-16,13.7-28,17.2c-12,3.5-27.3,5.2-45.9,5.2h-178.9V919.5h111.8v254.8
							c0,13.9,6.7,20.8,20,20.8h17.6c6.4,0,11.6-1.9,15.6-5.6c4-3.7,6-8.8,6-15.2V914.7c0-6.4-2-11.4-6-15.2
							c-4-3.7-9.2-5.6-15.6-5.6H1705z"/>
					</g>
					<g>
						
							<linearGradient id="SVGID_00000076574705384912425060000010866785634104622732_" gradientUnits="userSpaceOnUse" x1="2547.4253" y1="652.6578" x2="2547.4253" y2="1436.3517">
							<stop  offset="0" style="stop-color:#23BFD4"/>
							<stop  offset="0.7031" style="stop-color:#3F4DA0"/>
						</linearGradient>
						<path style="fill:url(#SVGID_00000076574705384912425060000010866785634104622732_);" d="M2285,893.9
							c0-33.6,6.1-65.1,18.4-94.7c12.2-29.6,28.6-55.1,49.1-76.7c20.5-21.6,44.2-38.6,71.1-51.1c26.9-12.5,54.7-18.8,83.5-18.8
							h302.8v106.3h-290c-20.2,0-38.3,4-54.3,12c-16,8-29.4,18.4-40.3,31.2c-10.9,12.8-19.3,27.3-25.2,43.5
							c-5.9,16.3-8.8,32.4-8.8,48.3v301.2c0,16,2.9,32.1,8.8,48.3c5.9,16.3,14.2,30.8,25.2,43.5c10.9,12.8,24.4,23.2,40.3,31.2
							c16,8,34.1,12,54.3,12h290v106.2h-302.8c-28.8,0-56.6-6.3-83.5-18.8c-26.9-12.5-50.6-29.6-71.1-51.1
							c-20.5-21.6-36.9-47.1-49.1-76.7c-12.3-29.6-18.4-61.1-18.4-94.7V893.9z M2420,1031.3V909.9c0-13.8,2.3-28.1,6.8-42.7
							c4.5-14.6,11.3-27.8,20.4-39.5c9-11.7,20.5-21.3,34.4-28.8c13.8-7.5,30.1-11.2,48.7-11.2h279.6v106.2h-277.2
							c-3.2,0-6.5,1.9-10,5.6c-3.5,3.7-5.2,8.8-5.2,15.2v11.2h231.7v105.5H2420z M2420,1057.7h329.1v106.2h-231.7v10.4
							c0,6.4,1.7,11.5,5.2,15.2c3.5,3.7,6.8,5.6,10,5.6h277.2v106.3h-279.6c-18.6,0-34.9-3.7-48.7-11.2c-13.9-7.5-25.3-17-34.4-28.8
							c-9.1-11.7-15.9-24.9-20.4-39.5c-4.5-14.6-6.8-28.9-6.8-42.7V1057.7z"/>
					</g>
					<g>
						
							<linearGradient id="SVGID_00000163050738825713679620000018148853312080206762_" gradientUnits="userSpaceOnUse" x1="3126.6047" y1="652.6578" x2="3126.6047" y2="1436.3517">
							<stop  offset="0" style="stop-color:#23BFD4"/>
							<stop  offset="0.7031" style="stop-color:#3F4DA0"/>
						</linearGradient>
						<path style="fill:url(#SVGID_00000163050738825713679620000018148853312080206762_);" d="M3389,1436.4h-302.8
							c-28.8,0-56.6-6.3-83.5-18.8c-26.9-12.5-50.6-29.6-71.1-51.1c-20.5-21.6-36.9-47.1-49.1-76.7c-12.3-29.6-18.4-61.1-18.4-94.7
							V652.7h106.3v542.4c0,16,2.9,32.1,8.8,48.3c5.9,16.3,14.2,30.8,25.2,43.5c10.9,12.8,24.4,23.2,40.3,31.2c16,8,34.1,12,54.3,12
							h290V1436.4z M3123.8,1195.1H3389v106.3h-279.6c-18.6,0-34.9-3.7-48.7-11.2c-13.9-7.5-25.3-17-34.4-28.8
							c-9.1-11.7-15.9-24.9-20.4-39.5c-4.5-14.6-6.8-28.9-6.8-42.7V652.7h109.4v521.7c0,6.4,1.7,11.3,5.2,14.8
							c3.5,3.5,6.8,5.2,10,5.2V1195.1z"/>
					</g>
					
						<linearGradient id="SVGID_00000177468346841368116750000012053308580820891818_" gradientUnits="userSpaceOnUse" x1="3608.0649" y1="1436.3517" x2="3608.0649" y2="652.6486">
						<stop  offset="0" style="stop-color:#1C639E"/>
						<stop  offset="1" style="stop-color:#26B3CF"/>
					</linearGradient>
					<path style="fill:url(#SVGID_00000177468346841368116750000012053308580820891818_);" d="M3784.6,1436.4h-106.3V893.9
						c0-16-2.9-32.1-8.8-48.3c-5.9-16.2-14.2-30.8-25.2-43.5c-10.9-12.8-24.4-23.2-40.3-31.2c-16-8-34.1-12-54.3-12l-118.3,0V652.6
						l131.1,0c28.8,0,56.6,6.3,83.5,18.8c26.9,12.5,50.6,29.6,71.1,51.1c20.5,21.6,36.9,47.1,49.1,76.7
						c12.3,29.6,18.4,61.1,18.4,94.7V1436.4z M3552.2,1174.3V914.7c0-6.4-1.7-11.4-5.2-15.2c-3.5-3.7-6.8-5.6-10-5.6l-105.5,0V787.7
						l107.9,0c18.6,0,34.9,3.7,48.7,11.2c13.9,7.5,25.3,17.1,34.4,28.8c9.1,11.7,15.9,24.9,20.4,39.5c4.5,14.7,6.8,28.9,6.8,42.7
						v235.6 M3649.6,1097.4v339l-97.5,0v-272.4"/>
				</g>
				<g>
					<defs>
						<path id="SVGID_4_" d="M151.3,1164.5c205.8,27.8,871.3,96.1,1440-88.5C2334.9,834.6,3006.2,652,3810,869.9
							c56.9,15.4-12,594.8-12,594.8l-3750,1.8C48,1466.6,110.2,1159,151.3,1164.5z"/>
					</defs>
					<clipPath id="SVGID_00000131336989165249969290000011891464826162538910_">
						<use xlink:href="#SVGID_4_"  style="overflow:visible;"/>
					</clipPath>
					<g style="clip-path:url(#SVGID_00000131336989165249969290000011891464826162538910_);">
						<g class="st16">
							
								<linearGradient id="SVGID_00000131351047224066547730000002216917213442138514_" gradientUnits="userSpaceOnUse" x1="601.7981" y1="652.6578" x2="601.7981" y2="1436.3517">
								<stop  offset="0" style="stop-color:#0094BF"/>
								<stop  offset="2.865892e-02" style="stop-color:#0090BD;stop-opacity:0.5"/>
								<stop  offset="1" style="stop-color:#282A71"/>
							</linearGradient>
							<path style="display:inline;fill:url(#SVGID_00000131351047224066547730000002216917213442138514_);" d="M601.8,1085.6
								l-114.2-306c-2.1-5.3-6.7-10.1-13.6-14.4c-6.9-4.3-14.7-6.4-23.2-6.4c-7.5,0-15.2,2.1-23.2,6.4c-8,4.3-12.8,9.1-14.4,14.4
								l-230.1,656.7H76.9l246.9-696.6c4.3-11.2,9.8-22,16.8-32.4c6.9-10.4,15.6-19.7,26-28c10.4-8.3,22.5-14.8,36.3-19.6
								c13.8-4.8,29.8-7.2,47.9-7.2c18.1,0,33.8,2.4,47.1,7.2c13.3,4.8,25,11.3,35.2,19.6c10.1,8.3,18.8,17.6,26,28
								c7.2,10.4,13.4,21.2,18.8,32.4l24,47.9l24-47.9c5.9-11.2,12.4-22,19.6-32.4c7.2-10.4,15.7-19.7,25.6-28
								c9.8-8.3,21.4-14.8,34.8-19.6c13.3-4.8,29-7.2,47.1-7.2c17.6,0,33.4,2.4,47.5,7.2c14.1,4.8,26.4,11.3,36.7,19.6
								c10.4,8.3,19.2,17.6,26.4,28c7.2,10.4,12.6,21.2,16.4,32.4l246.9,696.6h-106.3L790.3,779.7c-1.6-5.3-6.4-10.1-14.4-14.4
								c-8-4.3-15.7-6.4-23.2-6.4c-8.5,0-16.3,2.1-23.2,6.4c-6.9,4.3-11.5,9.1-13.6,14.4L601.8,1085.6z M601.8,1436.4l-151-402.6
								l-132.6,402.6H211.9l218.9-636.7c1.1-3.2,3.7-6,8-8.4c4.3-2.4,8.3-3.6,12-3.6c3.7,0,7.6,1.2,11.6,3.6c4,2.4,6.5,5.2,7.6,8.4
								l131.8,363.5l131.8-363.5c1.1-3.2,3.6-6,7.6-8.4c4-2.4,7.9-3.6,11.6-3.6c3.7,0,7.7,1.2,12,3.6c4.3,2.4,6.9,5.2,8,8.4
								l218.9,636.7H889.4l-136.6-402.6L601.8,1436.4z"/>
							
								<linearGradient id="SVGID_00000075126234630921546990000007466471132706699407_" gradientUnits="userSpaceOnUse" x1="1377.4949" y1="652.6578" x2="1377.4949" y2="1436.3517">
								<stop  offset="0" style="stop-color:#0094BF"/>
								<stop  offset="2.865892e-02" style="stop-color:#0090BD;stop-opacity:0.5"/>
								<stop  offset="1" style="stop-color:#282A71"/>
							</linearGradient>
							<path style="display:inline;fill:url(#SVGID_00000075126234630921546990000007466471132706699407_);" d="M1227.3,1422.8
								c-27.7-9-50.7-23.3-69.1-42.7c-18.4-19.4-32-44.5-40.7-75.1c-8.8-30.6-13.2-67.2-13.2-109.8V893.9
								c0-44.2,4.4-81.6,13.2-112.2c8.8-30.6,22.4-55.5,40.7-74.7c18.4-19.2,41.4-33,69.1-41.5c27.7-8.5,60.7-12.8,99.1-12.8h102.3
								c38.9,0,72.3,4.3,100.3,12.8c28,8.5,51,22.4,69.1,41.5c18.1,19.2,31.4,44.1,39.9,74.7c8.5,30.6,12.8,68,12.8,112.2v301.2
								c0,42.6-4.3,79.2-12.8,109.8c-8.5,30.6-21.8,55.7-39.9,75.1c-18.1,19.4-41.1,33.7-69.1,42.7c-28,9.1-61.4,13.6-100.3,13.6
								h-102.3C1288,1436.4,1255,1431.8,1227.3,1422.8z M1439.8,1330.1c20.2,0,37.3-2.8,51.1-8.4c13.8-5.6,25.2-13.4,34-23.6
								c8.8-10.1,15.2-22.1,19.2-35.9c4-13.8,6-28.8,6-44.7V871.5c0-16-2-30.9-6-44.7c-4-13.8-10.4-25.8-19.2-35.9
								c-8.8-10.1-20.2-18-34.4-23.6c-14.1-5.6-31.3-8.4-51.5-8.4h-123c-20.2,0-37.4,2.8-51.5,8.4c-14.1,5.6-25.6,13.5-34.4,23.6
								c-8.8,10.1-15.2,22.1-19.2,35.9c-4,13.9-6,28.8-6,44.7v345.9c0,16,2,30.9,6,44.7c4,13.9,10.4,25.8,19.2,35.9
								c8.8,10.1,20.1,18,34,23.6c13.8,5.6,30.9,8.4,51.1,8.4h62.3H1439.8z M1325.6,1301.3c-18.6,0-34-1.7-45.9-5.2
								c-12-3.5-21.3-9.2-28-17.2c-6.7-8-11.3-18.2-14-30.8c-2.7-12.5-4-28.1-4-46.7v-314c0-13.8,1.3-26.9,4-39.1
								c2.7-12.2,7.5-22.9,14.4-32c6.9-9,16.4-16.1,28.4-21.2c12-5.1,27.3-7.6,45.9-7.6h51.1h51.1c18.6,0,34,2.5,45.9,7.6
								c12,5.1,21.4,12.1,28.4,21.2c6.9,9.1,11.7,19.7,14.4,32c2.7,12.3,4,25.3,4,39.1v314c0,18.6-1.3,34.2-4,46.7
								c-2.7,12.5-7.3,22.8-14,30.8c-6.7,8-16,13.7-28,17.2c-12,3.5-27.3,5.2-45.9,5.2H1325.6z M1403.1,1195.1
								c6.4,0,10.5-1.9,12.4-5.6c1.9-3.7,2.8-8.8,2.8-15.2V914.7c0-6.4-0.9-11.4-2.8-15.2c-1.9-3.7-6-5.6-12.4-5.6h-51.1
								c-6.4,0-10.5,1.9-12.4,5.6c-1.9,3.7-2.8,8.8-2.8,15.2v259.6c0,6.4,0.9,11.5,2.8,15.2c1.9,3.7,6,5.6,12.4,5.6H1403.1z"/>
							
								<linearGradient id="SVGID_00000121983507981301783390000002790542820361026475_" gradientUnits="userSpaceOnUse" x1="1969.8491" y1="652.6578" x2="1969.8491" y2="1436.3517">
								<stop  offset="0" style="stop-color:#0094BF"/>
								<stop  offset="2.865892e-02" style="stop-color:#0090BD;stop-opacity:0.5"/>
								<stop  offset="1" style="stop-color:#282A71"/>
							</linearGradient>
							<path style="display:inline;fill:url(#SVGID_00000121983507981301783390000002790542820361026475_);" d="M2074.9,1321.7
								c13.8-5.6,25.2-13.4,34-23.6c8.8-10.1,15.2-22.1,19.2-35.9c4-13.8,6-28.8,6-44.7V871.5c0-16-2-30.9-6-44.7
								c-4-13.8-10.4-25.8-19.2-35.9c-8.8-10.1-20.2-18-34.3-23.6c-14.1-5.6-31.3-8.4-51.5-8.4h-318V652.7h307.6
								c38.9,0,72.3,4.3,100.3,12.8c28,8.5,51,22.4,69.1,41.5c18.1,19.2,31.4,44.1,39.9,74.7c8.5,30.6,12.8,68,12.8,112.2v301.2
								c0,42.6-4.3,79.2-12.8,109.8c-8.5,30.6-21.8,55.7-39.9,75.1c-18.1,19.4-41.1,33.7-69.1,42.7c-28,9.1-61.4,13.6-100.3,13.6
								H1705V919.5h100.7v410.6h218.1C2044,1330.1,2061,1327.3,2074.9,1321.7z M1705,893.9V787.7h307.6c18.6,0,34,2.5,45.9,7.6
								c12,5.1,21.4,12.1,28.4,21.2c6.9,9.1,11.7,19.7,14.4,32c2.7,12.3,4,25.3,4,39.1v314c0,18.6-1.3,34.2-4,46.7
								c-2.7,12.5-7.3,22.8-14,30.8c-6.7,8-16,13.7-28,17.2c-12,3.5-27.3,5.2-45.9,5.2h-178.9V919.5h111.8v254.8
								c0,13.9,6.7,20.8,20,20.8h17.6c6.4,0,11.6-1.9,15.6-5.6c4-3.7,6-8.8,6-15.2V914.7c0-6.4-2-11.4-6-15.2
								c-4-3.7-9.2-5.6-15.6-5.6H1705z"/>
							
								<linearGradient id="SVGID_00000023244244973068765680000013600191815372828073_" gradientUnits="userSpaceOnUse" x1="2547.4253" y1="652.6578" x2="2547.4253" y2="1436.3517">
								<stop  offset="0" style="stop-color:#0094BF"/>
								<stop  offset="2.865892e-02" style="stop-color:#0090BD;stop-opacity:0.5"/>
								<stop  offset="1" style="stop-color:#282A71"/>
							</linearGradient>
							<path style="display:inline;fill:url(#SVGID_00000023244244973068765680000013600191815372828073_);" d="M2285,893.9
								c0-33.6,6.1-65.1,18.4-94.7c12.2-29.6,28.6-55.1,49.1-76.7c20.5-21.6,44.2-38.6,71.1-51.1c26.9-12.5,54.7-18.8,83.5-18.8
								h302.8v106.3h-290c-20.2,0-38.3,4-54.3,12c-16,8-29.4,18.4-40.3,31.2c-10.9,12.8-19.3,27.3-25.2,43.5
								c-5.9,16.3-8.8,32.4-8.8,48.3v301.2c0,16,2.9,32.1,8.8,48.3c5.9,16.3,14.2,30.8,25.2,43.5c10.9,12.8,24.4,23.2,40.3,31.2
								c16,8,34.1,12,54.3,12h290v106.2h-302.8c-28.8,0-56.6-6.3-83.5-18.8c-26.9-12.5-50.6-29.6-71.1-51.1
								c-20.5-21.6-36.9-47.1-49.1-76.7c-12.3-29.6-18.4-61.1-18.4-94.7V893.9z M2420,1031.3V909.9c0-13.8,2.3-28.1,6.8-42.7
								c4.5-14.6,11.3-27.8,20.4-39.5c9-11.7,20.5-21.3,34.4-28.8c13.8-7.5,30.1-11.2,48.7-11.2h279.6v106.2h-277.2
								c-3.2,0-6.5,1.9-10,5.6c-3.5,3.7-5.2,8.8-5.2,15.2v11.2h231.7v105.5H2420z M2420,1057.7h329.1v106.2h-231.7v10.4
								c0,6.4,1.7,11.5,5.2,15.2c3.5,3.7,6.8,5.6,10,5.6h277.2v106.3h-279.6c-18.6,0-34.9-3.7-48.7-11.2
								c-13.9-7.5-25.3-17-34.4-28.8c-9.1-11.7-15.9-24.9-20.4-39.5c-4.5-14.6-6.8-28.9-6.8-42.7V1057.7z"/>
							
								<linearGradient id="SVGID_00000119829960098119070170000001530393167191821234_" gradientUnits="userSpaceOnUse" x1="3126.6047" y1="652.6578" x2="3126.6047" y2="1436.3517">
								<stop  offset="0" style="stop-color:#0094BF"/>
								<stop  offset="2.865892e-02" style="stop-color:#0090BD;stop-opacity:0.5"/>
								<stop  offset="1" style="stop-color:#282A71"/>
							</linearGradient>
							<path style="display:inline;fill:url(#SVGID_00000119829960098119070170000001530393167191821234_);" d="M3389,1436.4h-302.8
								c-28.8,0-56.6-6.3-83.5-18.8c-26.9-12.5-50.6-29.6-71.1-51.1c-20.5-21.6-36.9-47.1-49.1-76.7c-12.3-29.6-18.4-61.1-18.4-94.7
								V652.7h106.3v542.4c0,16,2.9,32.1,8.8,48.3c5.9,16.3,14.2,30.8,25.2,43.5c10.9,12.8,24.4,23.2,40.3,31.2
								c16,8,34.1,12,54.3,12h290V1436.4z M3123.8,1195.1H3389v106.3h-279.6c-18.6,0-34.9-3.7-48.7-11.2
								c-13.9-7.5-25.3-17-34.4-28.8c-9.1-11.7-15.9-24.9-20.4-39.5c-4.5-14.6-6.8-28.9-6.8-42.7V652.7h109.4v521.7
								c0,6.4,1.7,11.3,5.2,14.8c3.5,3.5,6.8,5.2,10,5.2V1195.1z"/>
						</g>
						<g>
							
								<linearGradient id="SVGID_00000008107531700465440960000009950572223359700146_" gradientUnits="userSpaceOnUse" x1="601.7981" y1="652.6578" x2="601.7981" y2="1436.3517">
								<stop  offset="0" style="stop-color:#0094BF"/>
								<stop  offset="2.865892e-02" style="stop-color:#0090BD;stop-opacity:0.5"/>
								<stop  offset="1" style="stop-color:#282A71"/>
							</linearGradient>
							<path style="fill:url(#SVGID_00000008107531700465440960000009950572223359700146_);" d="M601.8,1085.6l-114.2-306
								c-2.1-5.3-6.7-10.1-13.6-14.4c-6.9-4.3-14.7-6.4-23.2-6.4c-7.5,0-15.2,2.1-23.2,6.4c-8,4.3-12.8,9.1-14.4,14.4l-230.1,656.7
								H76.9l246.9-696.6c4.3-11.2,9.8-22,16.8-32.4c6.9-10.4,15.6-19.7,26-28c10.4-8.3,22.5-14.8,36.3-19.6
								c13.8-4.8,29.8-7.2,47.9-7.2c18.1,0,33.8,2.4,47.1,7.2c13.3,4.8,25,11.3,35.2,19.6c10.1,8.3,18.8,17.6,26,28
								c7.2,10.4,13.4,21.2,18.8,32.4l24,47.9l24-47.9c5.9-11.2,12.4-22,19.6-32.4c7.2-10.4,15.7-19.7,25.6-28
								c9.8-8.3,21.4-14.8,34.8-19.6c13.3-4.8,29-7.2,47.1-7.2c17.6,0,33.4,2.4,47.5,7.2c14.1,4.8,26.4,11.3,36.7,19.6
								c10.4,8.3,19.2,17.6,26.4,28c7.2,10.4,12.6,21.2,16.4,32.4l246.9,696.6h-106.3L790.3,779.7c-1.6-5.3-6.4-10.1-14.4-14.4
								c-8-4.3-15.7-6.4-23.2-6.4c-8.5,0-16.3,2.1-23.2,6.4c-6.9,4.3-11.5,9.1-13.6,14.4L601.8,1085.6z M601.8,1436.4l-151-402.6
								l-132.6,402.6H211.9l218.9-636.7c1.1-3.2,3.7-6,8-8.4c4.3-2.4,8.3-3.6,12-3.6c3.7,0,7.6,1.2,11.6,3.6c4,2.4,6.5,5.2,7.6,8.4
								l131.8,363.5l131.8-363.5c1.1-3.2,3.6-6,7.6-8.4c4-2.4,7.9-3.6,11.6-3.6c3.7,0,7.7,1.2,12,3.6c4.3,2.4,6.9,5.2,8,8.4
								l218.9,636.7H889.4l-136.6-402.6L601.8,1436.4z"/>
							
								<linearGradient id="SVGID_00000034076391797437699920000011058019476183231657_" gradientUnits="userSpaceOnUse" x1="1377.4949" y1="652.6578" x2="1377.4949" y2="1436.3517">
								<stop  offset="0" style="stop-color:#0094BF"/>
								<stop  offset="2.865892e-02" style="stop-color:#0090BD;stop-opacity:0.5"/>
								<stop  offset="1" style="stop-color:#282A71"/>
							</linearGradient>
							<path style="fill:url(#SVGID_00000034076391797437699920000011058019476183231657_);" d="M1227.3,1422.8
								c-27.7-9-50.7-23.3-69.1-42.7c-18.4-19.4-32-44.5-40.7-75.1c-8.8-30.6-13.2-67.2-13.2-109.8V893.9
								c0-44.2,4.4-81.6,13.2-112.2c8.8-30.6,22.4-55.5,40.7-74.7c18.4-19.2,41.4-33,69.1-41.5c27.7-8.5,60.7-12.8,99.1-12.8h102.3
								c38.9,0,72.3,4.3,100.3,12.8c28,8.5,51,22.4,69.1,41.5c18.1,19.2,31.4,44.1,39.9,74.7c8.5,30.6,12.8,68,12.8,112.2v301.2
								c0,42.6-4.3,79.2-12.8,109.8c-8.5,30.6-21.8,55.7-39.9,75.1c-18.1,19.4-41.1,33.7-69.1,42.7c-28,9.1-61.4,13.6-100.3,13.6
								h-102.3C1288,1436.4,1255,1431.8,1227.3,1422.8z M1439.8,1330.1c20.2,0,37.3-2.8,51.1-8.4c13.8-5.6,25.2-13.4,34-23.6
								c8.8-10.1,15.2-22.1,19.2-35.9c4-13.8,6-28.8,6-44.7V871.5c0-16-2-30.9-6-44.7c-4-13.8-10.4-25.8-19.2-35.9
								c-8.8-10.1-20.2-18-34.4-23.6c-14.1-5.6-31.3-8.4-51.5-8.4h-123c-20.2,0-37.4,2.8-51.5,8.4c-14.1,5.6-25.6,13.5-34.4,23.6
								c-8.8,10.1-15.2,22.1-19.2,35.9c-4,13.9-6,28.8-6,44.7v345.9c0,16,2,30.9,6,44.7c4,13.9,10.4,25.8,19.2,35.9
								c8.8,10.1,20.1,18,34,23.6c13.8,5.6,30.9,8.4,51.1,8.4h62.3H1439.8z M1325.6,1301.3c-18.6,0-34-1.7-45.9-5.2
								c-12-3.5-21.3-9.2-28-17.2c-6.7-8-11.3-18.2-14-30.8c-2.7-12.5-4-28.1-4-46.7v-314c0-13.8,1.3-26.9,4-39.1
								c2.7-12.2,7.5-22.9,14.4-32c6.9-9,16.4-16.1,28.4-21.2c12-5.1,27.3-7.6,45.9-7.6h51.1h51.1c18.6,0,34,2.5,45.9,7.6
								c12,5.1,21.4,12.1,28.4,21.2c6.9,9.1,11.7,19.7,14.4,32c2.7,12.3,4,25.3,4,39.1v314c0,18.6-1.3,34.2-4,46.7
								c-2.7,12.5-7.3,22.8-14,30.8c-6.7,8-16,13.7-28,17.2c-12,3.5-27.3,5.2-45.9,5.2H1325.6z M1403.1,1195.1
								c6.4,0,10.5-1.9,12.4-5.6c1.9-3.7,2.8-8.8,2.8-15.2V914.7c0-6.4-0.9-11.4-2.8-15.2c-1.9-3.7-6-5.6-12.4-5.6h-51.1
								c-6.4,0-10.5,1.9-12.4,5.6c-1.9,3.7-2.8,8.8-2.8,15.2v259.6c0,6.4,0.9,11.5,2.8,15.2c1.9,3.7,6,5.6,12.4,5.6H1403.1z"/>
							
								<linearGradient id="SVGID_00000017508052452324976020000015593239948621631142_" gradientUnits="userSpaceOnUse" x1="1969.8491" y1="652.6578" x2="1969.8491" y2="1436.3517">
								<stop  offset="0" style="stop-color:#0094BF"/>
								<stop  offset="2.865892e-02" style="stop-color:#0090BD;stop-opacity:0.5"/>
								<stop  offset="1" style="stop-color:#282A71"/>
							</linearGradient>
							<path style="fill:url(#SVGID_00000017508052452324976020000015593239948621631142_);" d="M2074.9,1321.7
								c13.8-5.6,25.2-13.4,34-23.6c8.8-10.1,15.2-22.1,19.2-35.9c4-13.8,6-28.8,6-44.7V871.5c0-16-2-30.9-6-44.7
								c-4-13.8-10.4-25.8-19.2-35.9c-8.8-10.1-20.2-18-34.3-23.6c-14.1-5.6-31.3-8.4-51.5-8.4h-318V652.7h307.6
								c38.9,0,72.3,4.3,100.3,12.8c28,8.5,51,22.4,69.1,41.5c18.1,19.2,31.4,44.1,39.9,74.7c8.5,30.6,12.8,68,12.8,112.2v301.2
								c0,42.6-4.3,79.2-12.8,109.8c-8.5,30.6-21.8,55.7-39.9,75.1c-18.1,19.4-41.1,33.7-69.1,42.7c-28,9.1-61.4,13.6-100.3,13.6
								H1705V919.5h100.7v410.6h218.1C2044,1330.1,2061,1327.3,2074.9,1321.7z M1705,893.9V787.7h307.6c18.6,0,34,2.5,45.9,7.6
								c12,5.1,21.4,12.1,28.4,21.2c6.9,9.1,11.7,19.7,14.4,32c2.7,12.3,4,25.3,4,39.1v314c0,18.6-1.3,34.2-4,46.7
								c-2.7,12.5-7.3,22.8-14,30.8c-6.7,8-16,13.7-28,17.2c-12,3.5-27.3,5.2-45.9,5.2h-178.9V919.5h111.8v254.8
								c0,13.9,6.7,20.8,20,20.8h17.6c6.4,0,11.6-1.9,15.6-5.6c4-3.7,6-8.8,6-15.2V914.7c0-6.4-2-11.4-6-15.2
								c-4-3.7-9.2-5.6-15.6-5.6H1705z"/>
							
								<linearGradient id="SVGID_00000059277692449853527830000013295448617991806357_" gradientUnits="userSpaceOnUse" x1="2547.4253" y1="652.6578" x2="2547.4253" y2="1436.3517">
								<stop  offset="0" style="stop-color:#0094BF"/>
								<stop  offset="2.865892e-02" style="stop-color:#0090BD;stop-opacity:0.5"/>
								<stop  offset="1" style="stop-color:#282A71"/>
							</linearGradient>
							<path style="fill:url(#SVGID_00000059277692449853527830000013295448617991806357_);" d="M2285,893.9
								c0-33.6,6.1-65.1,18.4-94.7c12.2-29.6,28.6-55.1,49.1-76.7c20.5-21.6,44.2-38.6,71.1-51.1c26.9-12.5,54.7-18.8,83.5-18.8
								h302.8v106.3h-290c-20.2,0-38.3,4-54.3,12c-16,8-29.4,18.4-40.3,31.2c-10.9,12.8-19.3,27.3-25.2,43.5
								c-5.9,16.3-8.8,32.4-8.8,48.3v301.2c0,16,2.9,32.1,8.8,48.3c5.9,16.3,14.2,30.8,25.2,43.5c10.9,12.8,24.4,23.2,40.3,31.2
								c16,8,34.1,12,54.3,12h290v106.2h-302.8c-28.8,0-56.6-6.3-83.5-18.8c-26.9-12.5-50.6-29.6-71.1-51.1
								c-20.5-21.6-36.9-47.1-49.1-76.7c-12.3-29.6-18.4-61.1-18.4-94.7V893.9z M2420,1031.3V909.9c0-13.8,2.3-28.1,6.8-42.7
								c4.5-14.6,11.3-27.8,20.4-39.5c9-11.7,20.5-21.3,34.4-28.8c13.8-7.5,30.1-11.2,48.7-11.2h279.6v106.2h-277.2
								c-3.2,0-6.5,1.9-10,5.6c-3.5,3.7-5.2,8.8-5.2,15.2v11.2h231.7v105.5H2420z M2420,1057.7h329.1v106.2h-231.7v10.4
								c0,6.4,1.7,11.5,5.2,15.2c3.5,3.7,6.8,5.6,10,5.6h277.2v106.3h-279.6c-18.6,0-34.9-3.7-48.7-11.2
								c-13.9-7.5-25.3-17-34.4-28.8c-9.1-11.7-15.9-24.9-20.4-39.5c-4.5-14.6-6.8-28.9-6.8-42.7V1057.7z"/>
							
								<linearGradient id="SVGID_00000076604716042548812160000001611258975689204619_" gradientUnits="userSpaceOnUse" x1="3126.6047" y1="652.6578" x2="3126.6047" y2="1436.3517">
								<stop  offset="0" style="stop-color:#0094BF"/>
								<stop  offset="2.865892e-02" style="stop-color:#0090BD;stop-opacity:0.5"/>
								<stop  offset="1" style="stop-color:#282A71"/>
							</linearGradient>
							<path style="fill:url(#SVGID_00000076604716042548812160000001611258975689204619_);" d="M3389,1436.4h-302.8
								c-28.8,0-56.6-6.3-83.5-18.8c-26.9-12.5-50.6-29.6-71.1-51.1c-20.5-21.6-36.9-47.1-49.1-76.7c-12.3-29.6-18.4-61.1-18.4-94.7
								V652.7h106.3v542.4c0,16,2.9,32.1,8.8,48.3c5.9,16.3,14.2,30.8,25.2,43.5c10.9,12.8,24.4,23.2,40.3,31.2
								c16,8,34.1,12,54.3,12h290V1436.4z M3123.8,1195.1H3389v106.3h-279.6c-18.6,0-34.9-3.7-48.7-11.2
								c-13.9-7.5-25.3-17-34.4-28.8c-9.1-11.7-15.9-24.9-20.4-39.5c-4.5-14.6-6.8-28.9-6.8-42.7V652.7h109.4v521.7
								c0,6.4,1.7,11.3,5.2,14.8c3.5,3.5,6.8,5.2,10,5.2V1195.1z"/>
							
								<linearGradient id="SVGID_00000030445102942286752300000007764608434930606497_" gradientUnits="userSpaceOnUse" x1="3608.0649" y1="652.6486" x2="3608.0649" y2="1436.3517">
								<stop  offset="0" style="stop-color:#0094BF"/>
								<stop  offset="2.865892e-02" style="stop-color:#0090BD;stop-opacity:0.5"/>
								<stop  offset="1" style="stop-color:#282A71"/>
							</linearGradient>
							<path style="fill:url(#SVGID_00000030445102942286752300000007764608434930606497_);" d="M3784.6,1436.4h-106.3V893.9
								c0-16-2.9-32.1-8.8-48.3c-5.9-16.2-14.2-30.8-25.2-43.5c-10.9-12.8-24.4-23.2-40.3-31.2c-16-8-34.1-12-54.3-12l-118.3,0
								V652.6l131.1,0c28.8,0,56.6,6.3,83.5,18.8c26.9,12.5,50.6,29.6,71.1,51.1c20.5,21.6,36.9,47.1,49.1,76.7
								c12.3,29.6,18.4,61.1,18.4,94.7V1436.4z M3552.2,1174.3V914.7c0-6.4-1.7-11.4-5.2-15.2c-3.5-3.7-6.8-5.6-10-5.6l-105.5,0
								V787.7l107.9,0c18.6,0,34.9,3.7,48.7,11.2c13.9,7.5,25.3,17.1,34.4,28.8c9.1,11.7,15.9,24.9,20.4,39.5
								c4.5,14.7,6.8,28.9,6.8,42.7v235.6 M3649.6,1097.4v339l-97.5,0v-272.4"/>
						</g>
					</g>
				</g>
				<path class="st28" d="M3806.2,1329.7c-676.4-296.4-1338.5-187.8-2558.4,123.1c-64.2,16.4,2550.2,11.9,2550.2,11.9
					S3847,1347.5,3806.2,1329.7z"/>
				<g>
					<defs>
						<path id="SVGID_3_" d="M3815.2,1331.6c-692.4-336-1116.3-199.9-2363.7,126.7c-59.9,15.7,2346.6,6.4,2346.6,6.4
							S3831.9,1339.8,3815.2,1331.6z"/>
					</defs>
					<clipPath id="SVGID_00000098943817302155299050000000984250918772105403_">
						<use xlink:href="#SVGID_3_"  style="overflow:visible;"/>
					</clipPath>
					<g style="clip-path:url(#SVGID_00000098943817302155299050000000984250918772105403_);">
						
							<linearGradient id="SVGID_00000171690454332835640100000005710887990461393792_" gradientUnits="userSpaceOnUse" x1="601.7981" y1="1436.3517" x2="601.7981" y2="652.6578">
							<stop  offset="0" style="stop-color:#224486"/>
							<stop  offset="0.155" style="stop-color:#293985"/>
							<stop  offset="0.3786" style="stop-color:#2D3284"/>
							<stop  offset="1" style="stop-color:#2E3084"/>
						</linearGradient>
						<path style="fill:url(#SVGID_00000171690454332835640100000005710887990461393792_);" d="M601.8,1085.6l-114.2-306
							c-2.1-5.3-6.7-10.1-13.6-14.4c-6.9-4.3-14.7-6.4-23.2-6.4c-7.5,0-15.2,2.1-23.2,6.4c-8,4.3-12.8,9.1-14.4,14.4l-230.1,656.7
							H76.9l246.9-696.6c4.3-11.2,9.8-22,16.8-32.4c6.9-10.4,15.6-19.7,26-28c10.4-8.3,22.5-14.8,36.3-19.6
							c13.8-4.8,29.8-7.2,47.9-7.2c18.1,0,33.8,2.4,47.1,7.2c13.3,4.8,25,11.3,35.2,19.6c10.1,8.3,18.8,17.6,26,28
							c7.2,10.4,13.4,21.2,18.8,32.4l24,47.9l24-47.9c5.9-11.2,12.4-22,19.6-32.4c7.2-10.4,15.7-19.7,25.6-28
							c9.8-8.3,21.4-14.8,34.8-19.6c13.3-4.8,29-7.2,47.1-7.2c17.6,0,33.4,2.4,47.5,7.2c14.1,4.8,26.4,11.3,36.7,19.6
							c10.4,8.3,19.2,17.6,26.4,28c7.2,10.4,12.6,21.2,16.4,32.4l246.9,696.6h-106.3L790.3,779.7c-1.6-5.3-6.4-10.1-14.4-14.4
							c-8-4.3-15.7-6.4-23.2-6.4c-8.5,0-16.3,2.1-23.2,6.4c-6.9,4.3-11.5,9.1-13.6,14.4L601.8,1085.6z M601.8,1436.4l-151-402.6
							l-132.6,402.6H211.9l218.9-636.7c1.1-3.2,3.7-6,8-8.4c4.3-2.4,8.3-3.6,12-3.6c3.7,0,7.6,1.2,11.6,3.6c4,2.4,6.5,5.2,7.6,8.4
							l131.8,363.5l131.8-363.5c1.1-3.2,3.6-6,7.6-8.4c4-2.4,7.9-3.6,11.6-3.6c3.7,0,7.7,1.2,12,3.6c4.3,2.4,6.9,5.2,8,8.4
							l218.9,636.7H889.4l-136.6-402.6L601.8,1436.4z"/>
						
							<linearGradient id="SVGID_00000131327254506612563990000001978648460754682507_" gradientUnits="userSpaceOnUse" x1="1377.4949" y1="1436.3517" x2="1377.4949" y2="652.6578">
							<stop  offset="0" style="stop-color:#224486"/>
							<stop  offset="0.155" style="stop-color:#293985"/>
							<stop  offset="0.3786" style="stop-color:#2D3284"/>
							<stop  offset="1" style="stop-color:#2E3084"/>
						</linearGradient>
						<path style="fill:url(#SVGID_00000131327254506612563990000001978648460754682507_);" d="M1227.3,1422.8
							c-27.7-9-50.7-23.3-69.1-42.7c-18.4-19.4-32-44.5-40.7-75.1c-8.8-30.6-13.2-67.2-13.2-109.8V893.9c0-44.2,4.4-81.6,13.2-112.2
							c8.8-30.6,22.4-55.5,40.7-74.7c18.4-19.2,41.4-33,69.1-41.5c27.7-8.5,60.7-12.8,99.1-12.8h102.3c38.9,0,72.3,4.3,100.3,12.8
							c28,8.5,51,22.4,69.1,41.5c18.1,19.2,31.4,44.1,39.9,74.7c8.5,30.6,12.8,68,12.8,112.2v301.2c0,42.6-4.3,79.2-12.8,109.8
							c-8.5,30.6-21.8,55.7-39.9,75.1c-18.1,19.4-41.1,33.7-69.1,42.7c-28,9.1-61.4,13.6-100.3,13.6h-102.3
							C1288,1436.4,1255,1431.8,1227.3,1422.8z M1439.8,1330.1c20.2,0,37.3-2.8,51.1-8.4c13.8-5.6,25.2-13.4,34-23.6
							c8.8-10.1,15.2-22.1,19.2-35.9c4-13.8,6-28.8,6-44.7V871.5c0-16-2-30.9-6-44.7c-4-13.8-10.4-25.8-19.2-35.9
							c-8.8-10.1-20.2-18-34.4-23.6c-14.1-5.6-31.3-8.4-51.5-8.4h-123c-20.2,0-37.4,2.8-51.5,8.4c-14.1,5.6-25.6,13.5-34.4,23.6
							c-8.8,10.1-15.2,22.1-19.2,35.9c-4,13.9-6,28.8-6,44.7v345.9c0,16,2,30.9,6,44.7c4,13.9,10.4,25.8,19.2,35.9
							c8.8,10.1,20.1,18,34,23.6c13.8,5.6,30.9,8.4,51.1,8.4h62.3H1439.8z M1325.6,1301.3c-18.6,0-34-1.7-45.9-5.2
							c-12-3.5-21.3-9.2-28-17.2c-6.7-8-11.3-18.2-14-30.8c-2.7-12.5-4-28.1-4-46.7v-314c0-13.8,1.3-26.9,4-39.1
							c2.7-12.2,7.5-22.9,14.4-32c6.9-9,16.4-16.1,28.4-21.2c12-5.1,27.3-7.6,45.9-7.6h51.1h51.1c18.6,0,34,2.5,45.9,7.6
							c12,5.1,21.4,12.1,28.4,21.2c6.9,9.1,11.7,19.7,14.4,32c2.7,12.3,4,25.3,4,39.1v314c0,18.6-1.3,34.2-4,46.7
							c-2.7,12.5-7.3,22.8-14,30.8c-6.7,8-16,13.7-28,17.2c-12,3.5-27.3,5.2-45.9,5.2H1325.6z M1403.1,1195.1
							c6.4,0,10.5-1.9,12.4-5.6c1.9-3.7,2.8-8.8,2.8-15.2V914.7c0-6.4-0.9-11.4-2.8-15.2c-1.9-3.7-6-5.6-12.4-5.6h-51.1
							c-6.4,0-10.5,1.9-12.4,5.6c-1.9,3.7-2.8,8.8-2.8,15.2v259.6c0,6.4,0.9,11.5,2.8,15.2c1.9,3.7,6,5.6,12.4,5.6H1403.1z"/>
						
							<linearGradient id="SVGID_00000110464587464449442750000006355444186020903575_" gradientUnits="userSpaceOnUse" x1="1969.8491" y1="1436.3517" x2="1969.8491" y2="652.6578">
							<stop  offset="0" style="stop-color:#224486"/>
							<stop  offset="0.155" style="stop-color:#293985"/>
							<stop  offset="0.3786" style="stop-color:#2D3284"/>
							<stop  offset="1" style="stop-color:#2E3084"/>
						</linearGradient>
						<path style="fill:url(#SVGID_00000110464587464449442750000006355444186020903575_);" d="M2074.9,1321.7
							c13.8-5.6,25.2-13.4,34-23.6c8.8-10.1,15.2-22.1,19.2-35.9c4-13.8,6-28.8,6-44.7V871.5c0-16-2-30.9-6-44.7
							c-4-13.8-10.4-25.8-19.2-35.9c-8.8-10.1-20.2-18-34.3-23.6c-14.1-5.6-31.3-8.4-51.5-8.4h-318V652.7h307.6
							c38.9,0,72.3,4.3,100.3,12.8c28,8.5,51,22.4,69.1,41.5c18.1,19.2,31.4,44.1,39.9,74.7c8.5,30.6,12.8,68,12.8,112.2v301.2
							c0,42.6-4.3,79.2-12.8,109.8c-8.5,30.6-21.8,55.7-39.9,75.1c-18.1,19.4-41.1,33.7-69.1,42.7c-28,9.1-61.4,13.6-100.3,13.6
							H1705V919.5h100.7v410.6h218.1C2044,1330.1,2061,1327.3,2074.9,1321.7z M1705,893.9V787.7h307.6c18.6,0,34,2.5,45.9,7.6
							c12,5.1,21.4,12.1,28.4,21.2c6.9,9.1,11.7,19.7,14.4,32c2.7,12.3,4,25.3,4,39.1v314c0,18.6-1.3,34.2-4,46.7
							c-2.7,12.5-7.3,22.8-14,30.8c-6.7,8-16,13.7-28,17.2c-12,3.5-27.3,5.2-45.9,5.2h-178.9V919.5h111.8v254.8
							c0,13.9,6.7,20.8,20,20.8h17.6c6.4,0,11.6-1.9,15.6-5.6c4-3.7,6-8.8,6-15.2V914.7c0-6.4-2-11.4-6-15.2
							c-4-3.7-9.2-5.6-15.6-5.6H1705z"/>
						
							<linearGradient id="SVGID_00000124137450777498818170000011499566422540152979_" gradientUnits="userSpaceOnUse" x1="2547.4253" y1="1436.3517" x2="2547.4253" y2="652.6578">
							<stop  offset="0" style="stop-color:#224486"/>
							<stop  offset="0.155" style="stop-color:#293985"/>
							<stop  offset="0.3786" style="stop-color:#2D3284"/>
							<stop  offset="1" style="stop-color:#2E3084"/>
						</linearGradient>
						<path style="fill:url(#SVGID_00000124137450777498818170000011499566422540152979_);" d="M2285,893.9
							c0-33.6,6.1-65.1,18.4-94.7c12.2-29.6,28.6-55.1,49.1-76.7c20.5-21.6,44.2-38.6,71.1-51.1c26.9-12.5,54.7-18.8,83.5-18.8
							h302.8v106.3h-290c-20.2,0-38.3,4-54.3,12c-16,8-29.4,18.4-40.3,31.2c-10.9,12.8-19.3,27.3-25.2,43.5
							c-5.9,16.3-8.8,32.4-8.8,48.3v301.2c0,16,2.9,32.1,8.8,48.3c5.9,16.3,14.2,30.8,25.2,43.5c10.9,12.8,24.4,23.2,40.3,31.2
							c16,8,34.1,12,54.3,12h290v106.2h-302.8c-28.8,0-56.6-6.3-83.5-18.8c-26.9-12.5-50.6-29.6-71.1-51.1
							c-20.5-21.6-36.9-47.1-49.1-76.7c-12.3-29.6-18.4-61.1-18.4-94.7V893.9z M2420,1031.3V909.9c0-13.8,2.3-28.1,6.8-42.7
							c4.5-14.6,11.3-27.8,20.4-39.5c9-11.7,20.5-21.3,34.4-28.8c13.8-7.5,30.1-11.2,48.7-11.2h279.6v106.2h-277.2
							c-3.2,0-6.5,1.9-10,5.6c-3.5,3.7-5.2,8.8-5.2,15.2v11.2h231.7v105.5H2420z M2420,1057.7h329.1v106.2h-231.7v10.4
							c0,6.4,1.7,11.5,5.2,15.2c3.5,3.7,6.8,5.6,10,5.6h277.2v106.3h-279.6c-18.6,0-34.9-3.7-48.7-11.2c-13.9-7.5-25.3-17-34.4-28.8
							c-9.1-11.7-15.9-24.9-20.4-39.5c-4.5-14.6-6.8-28.9-6.8-42.7V1057.7z"/>
						
							<linearGradient id="SVGID_00000064345616287663327380000005432271972627001517_" gradientUnits="userSpaceOnUse" x1="3126.6047" y1="1436.3517" x2="3126.6047" y2="652.6578">
							<stop  offset="0" style="stop-color:#224486"/>
							<stop  offset="0.155" style="stop-color:#293985"/>
							<stop  offset="0.3786" style="stop-color:#2D3284"/>
							<stop  offset="1" style="stop-color:#2E3084"/>
						</linearGradient>
						<path style="fill:url(#SVGID_00000064345616287663327380000005432271972627001517_);" d="M3389,1436.4h-302.8
							c-28.8,0-56.6-6.3-83.5-18.8c-26.9-12.5-50.6-29.6-71.1-51.1c-20.5-21.6-36.9-47.1-49.1-76.7c-12.3-29.6-18.4-61.1-18.4-94.7
							V652.7h106.3v542.4c0,16,2.9,32.1,8.8,48.3c5.9,16.3,14.2,30.8,25.2,43.5c10.9,12.8,24.4,23.2,40.3,31.2c16,8,34.1,12,54.3,12
							h290V1436.4z M3123.8,1195.1H3389v106.3h-279.6c-18.6,0-34.9-3.7-48.7-11.2c-13.9-7.5-25.3-17-34.4-28.8
							c-9.1-11.7-15.9-24.9-20.4-39.5c-4.5-14.6-6.8-28.9-6.8-42.7V652.7h109.4v521.7c0,6.4,1.7,11.3,5.2,14.8
							c3.5,3.5,6.8,5.2,10,5.2V1195.1z"/>
						
							<linearGradient id="SVGID_00000101799739187632470620000017177045177723677060_" gradientUnits="userSpaceOnUse" x1="3608.0649" y1="1436.3517" x2="3608.0649" y2="652.6486">
							<stop  offset="0" style="stop-color:#224486"/>
							<stop  offset="0.155" style="stop-color:#293985"/>
							<stop  offset="0.3786" style="stop-color:#2D3284"/>
							<stop  offset="1" style="stop-color:#2E3084"/>
						</linearGradient>
						<path style="fill:url(#SVGID_00000101799739187632470620000017177045177723677060_);" d="M3784.6,1436.4h-106.3V893.9
							c0-16-2.9-32.1-8.8-48.3c-5.9-16.2-14.2-30.8-25.2-43.5c-10.9-12.8-24.4-23.2-40.3-31.2c-16-8-34.1-12-54.3-12l-118.3,0V652.6
							l131.1,0c28.8,0,56.6,6.3,83.5,18.8c26.9,12.5,50.6,29.6,71.1,51.1c20.5,21.6,36.9,47.1,49.1,76.7
							c12.3,29.6,18.4,61.1,18.4,94.7V1436.4z M3552.2,1174.3V914.7c0-6.4-1.7-11.4-5.2-15.2c-3.5-3.7-6.8-5.6-10-5.6l-105.5,0
							V787.7l107.9,0c18.6,0,34.9,3.7,48.7,11.2c13.9,7.5,25.3,17.1,34.4,28.8c9.1,11.7,15.9,24.9,20.4,39.5
							c4.5,14.7,6.8,28.9,6.8,42.7v235.6 M3649.6,1097.4v339l-97.5,0v-272.4"/>
					</g>
				</g>
			</g>
		</g>
	</g>
	<rect x="2782.6" y="939.9" class="st0" width="51.1" height="217.9"/>
</g>
</svg>
