<?xml version="1.0" encoding="utf-8"?>
<!-- Generator: Adobe Illustrator 25.4.1, SVG Export Plug-In . SVG Version: 6.00 Build 0)  -->
<svg version="1.1" id="Layer_1" xmlns="http://www.w3.org/2000/svg" xmlns:xlink="http://www.w3.org/1999/xlink" x="0px" y="0px"
	 viewBox="0 0 3839 1792.4" style="enable-background:new 0 0 3839 1792.4;" xml:space="preserve">
<style type="text/css">
	.st0{fill:#FFFFFF;}
	.st1{fill:#1281C4;}
</style>
<g>
	<g>
		<path class="st0" d="M3489.7,232.3c-42.3-134.4-169-230.4-314.8-230.4c-145.9,0-272.6,96-314.8,230.3l-111.3,330.2V21.1h-583.5
			c-103.7,0-199.6,42.2-272.6,111.3V21.1h-598.9c-111.3,0-211.1,46.1-284.1,122.8V21.1H441.5C199.6,21.1,0,220.8,0,462.6
			c0,115.2,46.1,222.7,119,299.5H0v514.4h568.2c161.2,0,299.4-84.5,380.1-215c65.3,126.7,195.8,215,349.3,215h602.7v-111.3
			c69.1,69.1,165.1,111.3,272.6,111.3H3839L3489.7,232.3z"/>
		<g>
			<g>
				<path class="st1" d="M568.2,854.2H88.3v149.7h479.9c92.1,0,168.9-76.8,168.9-168.9s-76.8-168.9-168.9-168.9H445.3
					c-111.3,0-203.5-92.1-203.5-203.5S334,259.2,445.3,259.2h476V109.4H441.5c-195.8,0-353.2,157.4-353.2,353.2
					s157.4,353.2,353.2,353.2h122.8c11.5,0,19.2,7.7,19.2,19.2S575.8,854.2,568.2,854.2z"/>
				<path class="st1" d="M441.5,447.3h479.9V293.7H441.5c-92.1,0-168.9,76.8-168.9,168.9s76.8,168.9,168.9,168.9h122.8
					c111.3,0,203.5,92.1,203.5,203.5s-92.1,203.5-203.5,203.5h-476v149.7h479.9c195.8,0,353.2-157.4,353.2-353.2
					S764,481.8,568.2,481.8H445.3c-11.5,0-19.2-7.7-19.2-19.2C426.1,454.9,433.8,447.3,441.5,447.3z"/>
			</g>
			<g>
				<path class="st1" d="M2165.2,293.7c-65.3,0-115.2,49.9-115.2,115.2v479.9c0,65.3,49.9,115.2,115.2,115.2h311V666.1h-238v149.7
					h88.3v34.6h-88.3c-19.2,0-34.6-15.4-34.6-34.6V478c0-19.2,15.4-34.6,34.6-34.6h426.1V293.7H2165.2z"/>
				<path class="st1" d="M3109.6,1003.9h349.3l-238-706.4c-7.7-19.2-23-34.6-46.1-34.6c-19.2,0-38.4,15.4-46.1,30.7l-307.1,894.5
					h176.6l107.5-318.6v134.4L3109.6,1003.9L3109.6,1003.9z M3171,681.4l49.9,153.6h-103.7L3171,681.4z"/>
				<path class="st1" d="M3405.2,266.8C3374.5,167,3282.4,90.2,3171,90.2s-203.5,72.9-230.3,172.8l-280.2,821.5V481.8h-422.3v149.7
					h276.4v406.9H2169c-84.5,0-149.7-69.1-149.7-149.7V408.9c0-84.5,69.1-149.7,149.7-149.7h495.2V109.4h-499.1
					c-165.1,0-299.4,134.4-299.4,299.4v479.9c0,165.1,134.4,299.4,299.4,299.4h618.1l311-902.2c11.5-34.6,42.2-57.6,80.6-57.6
					c38.4,0,69.1,23,80.6,57.6l253.4,752.4h-399.3V1188h606.6l0,0L3405.2,266.8z"/>
			</g>
			<g>
				<path class="st1" d="M1293.7,1038.5c-84.5,0-149.7-69.1-149.7-149.7V408.9c0-84.5,69.1-149.7,149.7-149.7h514.4V109.4h-514.4
					c-165.1,0-299.4,134.4-299.4,299.4v479.9c0,165.1,134.4,299.4,299.4,299.4h514.4v-149.7L1293.7,1038.5L1293.7,1038.5z"/>
				<path class="st1" d="M1328.3,819.6h372.4V669.9h-522.1v222.7c0,65.3,49.9,115.2,115.2,115.2h514.4V858h-445.3
					C1343.7,854.2,1328.3,838.8,1328.3,819.6z"/>
				<path class="st1" d="M1700.7,481.8h-372.4c0-19.2,15.4-34.6,34.6-34.6h441.5V293.7h-510.6c-65.3,0-115.2,49.9-115.2,115.2v222.7
					h522.1C1700.7,631.5,1700.7,481.8,1700.7,481.8z"/>
			</g>
		</g>
	</g>
	<g>
		<g>
			<path d="M888.2,1790.5c-90.9,0-157.9-71.5-157.9-162.4c0-90,66.6-163.3,159.3-163.3c57.1,0,91.3,20.2,122.8,49.9l-24.3,26.1
				c-26.5-25.2-56.2-43.2-99-43.2c-69.7,0-121.9,56.2-121.9,129.6s52.6,130.5,121.9,130.5c43.2,0,71.5-16.6,101.7-45.4l23.4,23
				C981.3,1768.5,945.3,1790.5,888.2,1790.5z"/>
			<path d="M1089.8,1470.1h35.5v282.1h177.3v32.8h-212.8V1470.1z"/>
			<path d="M1675.2,1785.1H1637l-36.9-83.2h-171.4l-37.3,83.2h-36.5l143.5-317.2h33.3L1675.2,1785.1z M1514.6,1509.3l-72,160.6
				h143.5L1514.6,1509.3z"/>
			<path d="M1857.5,1610.5c70.2,15.3,102.6,40.9,102.6,89.5c0,54.5-45,89.5-107.5,89.5c-49.9,0-90.9-16.7-128.7-50.4l22-26.1
				c32.8,29.7,64.3,44.5,108,44.5c42.3,0,70.2-22,70.2-54c0-29.7-15.8-46.3-81.9-60.3c-72.4-15.8-105.7-39.1-105.7-91.3
				c0-50.4,43.6-86.4,103.5-86.4c45.9,0,78.7,13,110.7,38.7l-20.7,27.4c-29.2-23.8-58.5-34.2-90.9-34.2c-40.9,0-67,22.5-67,51.3
				C1772,1579,1788.2,1595.7,1857.5,1610.5z"/>
			<path d="M2154.5,1610.5c70.2,15.3,102.6,40.9,102.6,89.5c0,54.5-45,89.5-107.5,89.5c-49.9,0-90.9-16.7-128.7-50.4l22-26.1
				c32.8,29.7,64.3,44.5,108,44.5c42.3,0,70.2-22,70.2-54c0-29.7-15.8-46.3-81.9-60.3c-72.4-15.8-105.7-39.1-105.7-91.3
				c0-50.4,43.6-86.4,103.5-86.4c45.9,0,78.7,13,110.7,38.7l-20.7,27.4c-29.2-23.8-58.5-34.2-90.9-34.2c-40.9,0-67,22.5-67,51.3
				C2069,1579,2085.2,1595.7,2154.5,1610.5z"/>
			<path d="M2381.7,1470.1v315h-35.5v-315H2381.7z"/>
			<path d="M2631.5,1790.5c-90.9,0-157.9-71.5-157.9-162.4c0-90,66.6-163.3,159.3-163.3c57.1,0,91.3,20.2,122.8,49.9l-24.3,26.1
				c-26.5-25.2-56.2-43.2-99-43.2c-69.7,0-121.9,56.2-121.9,129.6s52.6,130.5,121.9,130.5c43.2,0,71.5-16.6,101.7-45.4l23.4,23
				C2724.6,1768.5,2688.6,1790.5,2631.5,1790.5z"/>
			<path d="M2946,1610.5c70.2,15.3,102.6,40.9,102.6,89.5c0,54.5-45,89.5-107.5,89.5c-49.9,0-90.9-16.7-128.7-50.4l22-26.1
				c32.8,29.7,64.3,44.5,108,44.5c42.3,0,70.2-22,70.2-54c0-29.7-15.8-46.3-81.9-60.3c-72.4-15.8-105.7-39.1-105.7-91.3
				c0-50.4,43.6-86.4,103.5-86.4c45.9,0,78.7,13,110.7,38.7l-20.7,27.4c-29.2-23.8-58.5-34.2-90.9-34.2c-40.9,0-67,22.5-67,51.3
				C2860.5,1579,2876.7,1595.7,2946,1610.5z"/>
		</g>
	</g>
</g>
</svg>
