<?xml version="1.0" encoding="utf-8"?>
<!-- Generator: Adobe Illustrator 25.4.1, SVG Export Plug-In . SVG Version: 6.00 Build 0)  -->
<svg version="1.1" id="Layer_1" xmlns="http://www.w3.org/2000/svg" xmlns:xlink="http://www.w3.org/1999/xlink" x="0px" y="0px"
	 viewBox="0 0 3839 1792.4" style="enable-background:new 0 0 3839 1792.4;" xml:space="preserve">
<style type="text/css">
	.st0{fill:#FFFFFF;}
	.st1{fill:#034693;}
	.st2{fill:#1281C4;}
</style>
<g>
	<g>
		<path class="st0" d="M3489.7,234.2C3447.4,99.8,3320.7,3.8,3174.9,3.8c-145.9,0-272.6,96-314.8,230.3l-111.3,330.2V23h-583.5
			c-103.7,0-199.6,42.2-272.6,111.3V23h-598.9c-111.3,0-211.1,46.1-284.1,122.8V23H441.5C199.6,23,0,222.7,0,464.5
			C0,579.7,46.1,687.2,119,764H0v514.4h568.2c161.2,0,299.4-84.5,380.1-215c65.3,126.7,195.8,215,349.3,215h602.7v-111.3
			c69.1,69.1,165.1,111.3,272.6,111.3H3839L3489.7,234.2z"/>
		<g>
			<g>
				<path class="st2" d="M568.2,856.1H88.3v149.7h479.9c92.1,0,168.9-76.8,168.9-168.9S660.3,668,568.2,668H445.3
					c-111.3,0-203.5-92.1-203.5-203.5S334,261.1,445.3,261.1h476V111.3H441.5c-195.8,0-353.2,157.4-353.2,353.2
					s157.4,353.2,353.2,353.2h122.8c11.5,0,19.2,7.7,19.2,19.2C583.5,848.4,575.8,856.1,568.2,856.1z"/>
				<path class="st2" d="M441.5,449.2h479.9V295.6H441.5c-92.1,0-168.9,76.8-168.9,168.9s76.8,168.9,168.9,168.9h122.8
					c111.3,0,203.5,92.1,203.5,203.5s-92.1,203.5-203.5,203.5h-476v149.7h479.9c195.8,0,353.2-157.4,353.2-353.2
					S764,483.7,568.2,483.7H445.3c-11.5,0-19.2-7.7-19.2-19.2C426.1,456.8,433.8,449.2,441.5,449.2z"/>
			</g>
			<g>
				<path class="st2" d="M2165.2,295.6c-65.3,0-115.2,49.9-115.2,115.2v479.9c0,65.3,49.9,115.2,115.2,115.2h311V668h-238v149.7
					h88.3v34.6h-88.3c-19.2,0-34.6-15.4-34.6-34.6V479.9c0-19.2,15.4-34.6,34.6-34.6h426.1V295.6H2165.2z"/>
				<path class="st2" d="M3109.6,1005.8h349.3l-238-706.4c-7.7-19.2-23-34.6-46.1-34.6c-19.2,0-38.4,15.4-46.1,30.7l-307.1,894.5
					h176.6l107.5-318.6v134.4H3109.6z M3171,683.3l49.9,153.6h-103.7L3171,683.3z"/>
				<path class="st2" d="M3405.2,268.7c-30.7-99.8-122.8-176.6-234.2-176.6s-203.5,72.9-230.3,172.8l-280.2,821.5V483.7h-422.3
					v149.7h276.4v406.9H2169c-84.5,0-149.7-69.1-149.7-149.7V410.8c0-84.5,69.1-149.7,149.7-149.7h495.2V111.3h-499.1
					c-165.1,0-299.4,134.4-299.4,299.4v479.9c0,165.1,134.4,299.4,299.4,299.4h618.1l311-902.2c11.5-34.6,42.2-57.6,80.6-57.6
					c38.4,0,69.1,23,80.6,57.6l253.4,752.4h-399.3v149.7h606.6l0,0L3405.2,268.7z"/>
			</g>
			<g>
				<path class="st2" d="M1293.7,1040.4c-84.5,0-149.7-69.1-149.7-149.7V410.8c0-84.5,69.1-149.7,149.7-149.7h514.4V111.3h-514.4
					c-165.1,0-299.4,134.4-299.4,299.4v479.9c0,165.1,134.4,299.4,299.4,299.4h514.4v-149.7H1293.7z"/>
				<path class="st2" d="M1328.3,821.5h372.4V671.8h-522.1v222.7c0,65.3,49.9,115.2,115.2,115.2h514.4V859.9h-445.3
					C1343.7,856.1,1328.3,840.7,1328.3,821.5z"/>
				<path class="st2" d="M1700.7,483.7h-372.4c0-19.2,15.4-34.6,34.6-34.6h441.5V295.6h-510.6c-65.3,0-115.2,49.9-115.2,115.2v222.7
					h522.1C1700.7,633.4,1700.7,483.7,1700.7,483.7z"/>
			</g>
		</g>
		<g>
			<path d="M3625.9,0c-64.7,0-117.1,52.4-117.1,117.1s52.4,117.1,117.1,117.1c64.7,0,117.1-52.4,117.1-117.1S3690.6,0,3625.9,0z
				 M3625.9,220.7c-57.2,0-103.7-46.4-103.7-103.7s46.4-103.7,103.7-103.7c57.2,0,103.7,46.4,103.7,103.7S3683.2,220.7,3625.9,220.7
				z"/>
			<g>
				<path d="M3582,50.3h39.2c29.7,0,61.1,3.8,61.1,36.8c0,19.4-14.5,32.1-38.4,35.3l43.6,61.5h-22.3l-41.6-60h-23.4v60H3582V50.3z
					 M3600.2,109.2h16.3c20.2,0,46.4,0,46.4-22.1c0-19.2-19.3-22.1-37.1-22.1h-25.6V109.2z"/>
			</g>
		</g>
	</g>
	<g>
		<g>
			<path d="M888.2,1792.4c-90.9,0-157.9-71.5-157.9-162.4c0-90,66.6-163.3,159.3-163.3c57.1,0,91.3,20.2,122.8,49.9l-24.3,26.1
				c-26.5-25.2-56.2-43.2-99-43.2c-69.7,0-121.9,56.2-121.9,129.6s52.6,130.5,121.9,130.5c43.2,0,71.5-16.6,101.7-45.4l23.4,23
				C981.3,1770.4,945.3,1792.4,888.2,1792.4z"/>
			<path d="M1089.8,1472h35.5v282.1h177.3v32.8h-212.8V1472z"/>
			<path d="M1675.2,1787H1637l-36.9-83.2h-171.4l-37.3,83.2h-36.5l143.5-317.2h33.3L1675.2,1787z M1514.6,1511.2l-72,160.6h143.5
				L1514.6,1511.2z"/>
			<path d="M1857.5,1612.4c70.2,15.3,102.6,40.9,102.6,89.5c0,54.5-45,89.5-107.5,89.5c-49.9,0-90.9-16.7-128.7-50.4l22-26.1
				c32.8,29.7,64.3,44.5,108,44.5c42.3,0,70.2-22,70.2-54c0-29.7-15.8-46.3-81.9-60.3c-72.4-15.8-105.7-39.1-105.7-91.3
				c0-50.4,43.6-86.4,103.5-86.4c45.9,0,78.7,13,110.7,38.7l-20.7,27.4c-29.2-23.8-58.5-34.2-90.9-34.2c-40.9,0-67,22.5-67,51.3
				C1772,1580.9,1788.2,1597.6,1857.5,1612.4z"/>
			<path d="M2154.5,1612.4c70.2,15.3,102.6,40.9,102.6,89.5c0,54.5-45,89.5-107.5,89.5c-49.9,0-90.9-16.7-128.7-50.4l22-26.1
				c32.8,29.7,64.3,44.5,108,44.5c42.3,0,70.2-22,70.2-54c0-29.7-15.8-46.3-81.9-60.3c-72.4-15.8-105.7-39.1-105.7-91.3
				c0-50.4,43.6-86.4,103.5-86.4c45.9,0,78.7,13,110.7,38.7l-20.7,27.4c-29.2-23.8-58.5-34.2-90.9-34.2c-40.9,0-67,22.5-67,51.3
				C2069,1580.9,2085.2,1597.6,2154.5,1612.4z"/>
			<path d="M2381.7,1472v315h-35.5v-315H2381.7z"/>
			<path d="M2631.5,1792.4c-90.9,0-157.9-71.5-157.9-162.4c0-90,66.6-163.3,159.3-163.3c57.1,0,91.3,20.2,122.8,49.9l-24.3,26.1
				c-26.5-25.2-56.2-43.2-99-43.2c-69.7,0-121.9,56.2-121.9,129.6s52.6,130.5,121.9,130.5c43.2,0,71.5-16.6,101.7-45.4l23.4,23
				C2724.6,1770.4,2688.6,1792.4,2631.5,1792.4z"/>
			<path d="M2946,1612.4c70.2,15.3,102.6,40.9,102.6,89.5c0,54.5-45,89.5-107.5,89.5c-49.9,0-90.9-16.7-128.7-50.4l22-26.1
				c32.8,29.7,64.3,44.5,108,44.5c42.3,0,70.2-22,70.2-54c0-29.7-15.8-46.3-81.9-60.3c-72.4-15.8-105.7-39.1-105.7-91.3
				c0-50.4,43.6-86.4,103.5-86.4c45.9,0,78.7,13,110.7,38.7l-20.7,27.4c-29.2-23.8-58.5-34.2-90.9-34.2c-40.9,0-67,22.5-67,51.3
				C2860.5,1580.9,2876.7,1597.6,2946,1612.4z"/>
		</g>
	</g>
</g>
</svg>
