<?xml version="1.0" encoding="utf-8"?>
<!-- Generator: Adobe Illustrator 26.0.1, SVG Export Plug-In . SVG Version: 6.00 Build 0)  -->
<svg version="1.1" id="Layer_1" xmlns="http://www.w3.org/2000/svg" xmlns:xlink="http://www.w3.org/1999/xlink" x="0px" y="0px"
	 viewBox="0 0 3839 1500.9" style="enable-background:new 0 0 3839 1500.9;" xml:space="preserve">
<style type="text/css">
	.st0{fill:#FFFFFF;}
	.st1{fill:#1281C4;}
	.st2{fill:#F05100;}
	.st3{fill:#CF3312;}
	.st4{fill:#034693;}
</style>
<g>
	<g>
		<g>
			<g>
				<path class="st0" d="M2628.6,104c-19.1-60.7-76.3-104-142.2-104c-65.9,0-123.1,43.3-142.2,104L2294,253.1V8.7h-263.5
					c-46.8,0-90.2,19.1-123.1,50.3V8.7h-270.5c-50.3,0-95.4,20.8-128.3,55.5V8.7H1252c-109.2,0-199.4,90.2-199.4,199.4
					c0,52,20.8,100.6,53.7,135.2h-53.7v232.3h256.6c72.8,0,135.2-38.1,171.6-97.1c29.5,57.2,88.4,97.1,157.8,97.1h272.2v-50.3
					c31.2,31.2,74.5,50.3,123.1,50.3h752.4L2628.6,104z"/>
				<g>
					<g>
						<path class="st1" d="M1309.2,384.9h-216.7v67.6h216.7c41.6,0,76.3-34.7,76.3-76.3s-34.7-76.3-76.3-76.3h-55.5
							c-50.3,0-91.9-41.6-91.9-91.9s41.6-91.9,91.9-91.9h215V48.5H1252c-88.4,0-159.5,71.1-159.5,159.5s71.1,159.5,159.5,159.5h55.5
							c5.2,0,8.7,3.5,8.7,8.7C1316.2,381.4,1312.7,384.9,1309.2,384.9z"/>
						<path class="st1" d="M1252,201.1h216.7v-69.3H1252c-41.6,0-76.3,34.7-76.3,76.3s34.7,76.3,76.3,76.3h55.5
							c50.3,0,91.9,41.6,91.9,91.9s-41.6,91.9-91.9,91.9h-215v67.6h216.7c88.4,0,159.5-71.1,159.5-159.5s-71.1-159.5-159.5-159.5
							h-55.5c-5.2,0-8.7-3.5-8.7-8.7C1245.1,204.6,1248.6,201.1,1252,201.1z"/>
					</g>
					<g>
						<path class="st1" d="M2030.5,131.8c-29.5,0-52,22.5-52,52v216.7c0,29.5,22.5,52,52,52h140.4V299.9h-107.5v67.6h39.9v15.6
							h-39.9c-8.7,0-15.6-6.9-15.6-15.6V215c0-8.7,6.9-15.6,15.6-15.6h192.4v-67.6H2030.5z"/>
						<path class="st1" d="M2456.9,452.5h157.8l-107.5-319c-3.5-8.7-10.4-15.6-20.8-15.6c-8.7,0-17.3,6.9-20.8,13.9l-138.7,403.9
							h79.7l48.5-143.9v60.7H2456.9z M2484.7,306.9l22.5,69.3h-46.8L2484.7,306.9z"/>
						<path class="st1" d="M2590.4,119.6c-13.9-45.1-55.5-79.7-105.8-79.7s-91.9,32.9-104,78l-126.6,371V216.7h-190.7v67.6h124.8
							v183.8h-156c-38.1,0-67.6-31.2-67.6-67.6V183.8c0-38.1,31.2-67.6,67.6-67.6h223.6V48.5h-225.4c-74.5,0-135.2,60.7-135.2,135.2
							v216.7c0,74.5,60.7,135.2,135.2,135.2h279.1L2450,128.3c5.2-15.6,19.1-26,36.4-26s31.2,10.4,36.4,26l114.4,339.8h-180.3v67.6
							h273.9l0,0L2590.4,119.6z"/>
					</g>
					<g>
						<path class="st1" d="M1636.9,468.1c-38.1,0-67.6-31.2-67.6-67.6V183.8c0-38.1,31.2-67.6,67.6-67.6h232.3V48.5h-232.3
							c-74.5,0-135.2,60.7-135.2,135.2v216.7c0,74.5,60.7,135.2,135.2,135.2h232.3v-67.6H1636.9z"/>
						<path class="st1" d="M1652.5,369.3h168.2v-67.6h-235.8v100.6c0,29.5,22.5,52,52,52h232.3v-67.6h-201.1
							C1659.5,384.9,1652.5,377.9,1652.5,369.3z"/>
						<path class="st1" d="M1820.7,216.7h-168.2c0-8.7,6.9-15.6,15.6-15.6h199.4v-69.3h-230.6c-29.5,0-52,22.5-52,52v100.6h235.8
							V216.7z"/>
					</g>
				</g>
			</g>
		</g>
	</g>
	<rect x="839" y="1176.8" width="611.3" height="120.1"/>
	<g>
		<rect x="3718.9" y="714.2" width="120.1" height="722.8"/>
		<polygon points="3464.2,714.2 3038.3,1207.4 2612.5,714.2 2612.5,1437 2732.6,1437 2732.6,1036.9 3038.3,1391.2 3344.1,1036.9 
			3344.1,1437 3464.2,1437 		"/>
		<rect x="591" y="714.2" width="120.1" height="600.4"/>
		<rect y="829.6" width="120.1" height="607.4"/>
		<polygon points="711,1281.8 711,1437 0,854.4 0,699.2 		"/>
		<path class="st3" d="M2079.5,665.5c-230.6,0-417.7,187-417.7,417.7s187,417.7,417.7,417.7c230.6,0,417.7-187,417.7-417.7
			S2310.2,665.5,2079.5,665.5z M2079.5,785.6c-164.4,0-297.6,133.2-297.6,297.6s133.2,297.6,297.6,297.6s297.6-133.2,297.6-297.6
			S2243.9,785.6,2079.5,785.6z M2079.5,1359.2c-152.3,0-276-123.9-276-276c0-152.3,123.9-276,276-276c152.3,0,276,123.9,276,276
			C2355.6,1235.4,2231.7,1359.2,2079.5,1359.2z M2079.5,1380.8c-164.4,0-297.6-133.2-297.6-297.6s133.2-297.6,297.6-297.6
			s297.6,133.2,297.6,297.6C2377.1,1247.5,2243.9,1380.8,2079.5,1380.8z"/>
		<polygon points="975.2,1437 1242.7,948.1 1510.3,1437 1647.1,1437 1242.7,698 838.3,1437 		"/>
	</g>
</g>
</svg>
