<?xml version="1.0" encoding="utf-8"?>
<!-- Generator: Adobe Illustrator 25.4.1, SVG Export Plug-In . SVG Version: 6.00 Build 0)  -->
<svg version="1.1" id="Layer_1" xmlns="http://www.w3.org/2000/svg" xmlns:xlink="http://www.w3.org/1999/xlink" x="0px" y="0px"
	 viewBox="0 0 3838.9 1552.4" style="enable-background:new 0 0 3838.9 1552.4;" xml:space="preserve">
<style type="text/css">
	.st0{fill:#034693;}
	.st1{fill:#FFFFFF;}
</style>
<g>
	<g>
		<g>
			<g>
				<path class="st0" d="M1147.9,441.8H870.4v86.6h277.5c53.3,0,97.7-44.4,97.7-97.7s-44.4-97.7-97.7-97.7h-71
					c-64.4,0-117.7-53.3-117.7-117.7s53.3-117.7,117.7-117.7h275.3V11.1h-277.5c-113.2,0-204.3,91-204.3,204.3s91,204.3,204.3,204.3
					h71c6.7,0,11.1,4.4,11.1,11.1C1156.8,437.4,1152.4,441.8,1147.9,441.8z"/>
				<path class="st0" d="M1074.7,206.5h277.5v-88.8h-277.5c-53.3,0-97.7,44.4-97.7,97.7s44.4,97.7,97.7,97.7h71
					c64.4,0,117.7,53.3,117.7,117.7s-53.3,117.7-117.7,117.7H870.4V635h277.5c113.2,0,204.3-91,204.3-204.3s-91-204.3-204.3-204.3
					h-71c-6.7,0-11.1-4.4-11.1-11.1C1065.8,210.9,1070.2,206.5,1074.7,206.5z"/>
				<path class="st0" d="M2071.6,117.7c-37.7,0-66.6,28.9-66.6,66.6v277.5c0,37.7,28.9,66.6,66.6,66.6h179.8V333h-137.7v86.6h51.1
					v20h-51.1c-11.1,0-20-8.9-20-20V224.3c0-11.1,8.9-20,20-20h246.5v-86.6C2360.2,117.7,2071.6,117.7,2071.6,117.7z"/>
				<path class="st0" d="M2617.8,528.4h202l-137.7-408.5c-4.4-11.1-13.3-20-26.6-20c-11.1,0-22.2,8.9-26.6,17.8L2451.3,635h102.1
					l62.2-184.3v77.7H2617.8z M2653.3,341.9l28.9,88.8h-59.9L2653.3,341.9z"/>
				<path class="st0" d="M2788.8,102.1C2771,44.4,2717.7,0,2653.3,0s-117.7,42.2-133.2,99.9L2358,575.1V226.5h-244.2v86.6h159.9
					v235.4h-199.8c-48.8,0-86.6-40-86.6-86.6V184.3c0-48.8,40-86.6,86.6-86.6h286.4V11.1h-288.6c-95.5,0-173.2,77.7-173.2,173.2
					v277.5c0,95.5,77.7,173.2,173.2,173.2h357.5L2609,113.2c6.7-20,24.4-33.3,46.6-33.3c22.2,0,40,13.3,46.6,33.3l146.5,435.2
					h-230.9V635h350.8l0,0L2788.8,102.1z"/>
				<path class="st0" d="M1567.6,548.4c-48.8,0-86.6-40-86.6-86.6V184.3c0-48.8,40-86.6,86.6-86.6h297.5V11.1h-297.5
					c-95.5,0-173.2,77.7-173.2,173.2v277.5c0,95.5,77.7,173.2,173.2,173.2h297.5v-86.6H1567.6z"/>
				<path class="st0" d="M1587.6,421.9H1803v-86.6h-302V464c0,37.7,28.9,66.6,66.6,66.6h297.5V444h-257.6
					C1596.4,441.8,1587.6,433,1587.6,421.9z"/>
				<path class="st0" d="M1802.9,226.5h-215.4c0-11.1,8.9-20,20-20h255.3v-88.8h-295.3c-37.7,0-66.6,28.9-66.6,66.6v128.8h302
					C1802.9,313.1,1802.9,226.5,1802.9,226.5z"/>
			</g>
		</g>
		<g>
			<path class="st0" d="M484.7,1546.5v-339.7h-388v-388H48.4v679.4h48.4v-243h48.4v291.3H0V770.4h145.1v388h388v339.7h48.4V818.7
				h-48.4V1110H193.4v-48.4h291.3V770.4h145.1v776.1H484.7z"/>
			<path class="st0" d="M803.2,1546.5V770.4h145.1v48.4h-96.7v679.4H900v-631h48.4v679.4H803.2V1546.5z"/>
			<path class="st0" d="M1563.9,1546.5L1315,1238.6V1162l271.3,336.1h63.7l-313.7-389.2l289-290.1h-69.6l-289,291.3v436.4h-145.1
				V770.4h145.1v200.5l-48.4,48.4V818.7H1170v679.4h48.4v-409.3l318.4-318.4h201.7L1400,1113.6l351.5,432.9H1563.9z"/>
			<path class="st0" d="M2295.1,1546.5l-66-194.6h-232.3l-67.2,194.6h-155.7L2038,770.4h154.5l-54.3,163.9l110.9,320.8h-273.6
				l83.7-245.3l27.1,79l-42.5,117.9h135.6l-93.2-273.6l38.9-114.4h-51.9l-233.5,679.4h51.9l67.2-194.6h305.5l66,194.6h51.9
				L2190,934.3l27.1-77.8l234.7,690L2295.1,1546.5L2295.1,1546.5z"/>
			<path class="st0" d="M2974.5,1546.5l-194.6-339.7h-96.7v339.7h-145.1V770.4h316.1c93.2,0,168.7,75.5,168.7,167.5
				s-71.9,172.2-165.1,172.2h-222.9v-243h181.6c71.9,0,109.7,16.5,109.7,96.7h-5.9c0-43.6-38.9-48.4-73.1-48.4h-163.9v146.2h176.9
				c67.2,0,114.4-60.2,114.4-123.8c0-64.9-53.1-119.1-117.9-119.1h-270.1v679.4h48.4v-339.7h168.7l194.6,339.7h56.6l-194.6-339.7
				c107.3,0,206.4-80.2,206.4-192.2h4.7c0,96.7-34.2,195.8-134.5,227.6l200.5,352.7L2974.5,1546.5L2974.5,1546.5z"/>
			<path class="st0" d="M3519.4,1552.4c-180.5,0-316.1-172.2-316.1-344.4V770.4h145.1V1208c0,103.8,59,198.1,172.2,198.1
				c234.7,0,263-324.3,264.2-497.7v-89.6h-48.4v17.7c0,115.6-1.2,290.1-42.5,389.2h-5.9V770.4h146.3v145.1
				c0,201.7-50.7,539-313.7,539c-145.1,0-220.6-110.9-220.6-246.5V818.7h-48.4v386.9c0,163.9,94.4,297.2,268.9,297.2
				c119.1,0,215.8-63.7,272.4-166.3c14.2-25.9,36.6-74.3,41.3-102.6h4.7C3839,1404.9,3689.2,1552.4,3519.4,1552.4z"/>
		</g>
	</g>
</g>
</svg>
