<?xml version="1.0" encoding="utf-8"?>
<!-- Generator: Adobe Illustrator 25.4.1, SVG Export Plug-In . SVG Version: 6.00 Build 0)  -->
<svg version="1.1" id="Layer_1" xmlns="http://www.w3.org/2000/svg" xmlns:xlink="http://www.w3.org/1999/xlink" x="0px" y="0px"
	 viewBox="0 0 3839 892.4" style="enable-background:new 0 0 3839 892.4;" xml:space="preserve">
<style type="text/css">
	.st0{fill:#FFFFFF;}
	.st1{fill:url(#SVGID_00000144334367092538452430000010140078230591427466_);}
	.st2{fill:url(#SVGID_00000029014335056595060800000007753686001043427245_);}
	.st3{fill:url(#SVGID_00000059289016107345982610000018019984853118496941_);}
	.st4{fill:url(#SVGID_00000055695745704272024490000016839008720215957414_);}
	.st5{fill:url(#SVGID_00000029030297473837655660000001058455762753091722_);}
	.st6{fill:url(#SVGID_00000020387489332831536850000003231263028069332122_);}
	.st7{fill:url(#SVGID_00000098183159325551192330000017275697024721752502_);}
	.st8{fill:url(#SVGID_00000057847005604929741150000014877013156850074758_);}
	.st9{fill:url(#SVGID_00000137820616075833961320000011309178861888295868_);}
	.st10{fill:url(#SVGID_00000015326595018855545860000010224178233405587625_);}
	.st11{fill:url(#SVGID_00000143580347526061990120000017111411655718135720_);}
	.st12{fill:url(#SVGID_00000013174480226399347000000000590918356493387947_);}
	.st13{fill:url(#SVGID_00000175307782215713135180000011617119867221869729_);}
	.st14{fill:url(#SVGID_00000173144084453105948370000006289479131704507577_);}
	.st15{clip-path:url(#SVGID_00000122686001246865711780000008451979424127567039_);}
	.st16{display:none;}
	.st17{display:inline;fill:url(#SVGID_00000161616203609590704180000008652790346656443323_);}
	.st18{display:inline;fill:url(#SVGID_00000150784496968595015040000005227394392166960572_);}
	.st19{display:inline;fill:url(#SVGID_00000112634036219484790440000013681679698821353856_);}
	.st20{display:inline;fill:url(#SVGID_00000032634833475958634920000009391267510573836730_);}
	.st21{display:inline;fill:url(#SVGID_00000084520078091660482110000000315653651748846243_);}
	.st22{fill:url(#SVGID_00000114043080081224473230000000103720485501844377_);}
	.st23{fill:url(#SVGID_00000044164017854230457390000006382714791828337336_);}
	.st24{fill:url(#SVGID_00000044178050141225891220000014085761021740772526_);}
	.st25{fill:url(#SVGID_00000178907483354069849670000004022323447025951146_);}
	.st26{fill:url(#SVGID_00000102512478063823081610000009872775330564603784_);}
	.st27{fill:url(#SVGID_00000074404450601616118060000009651299703936882361_);}
	.st28{fill:none;}
	.st29{clip-path:url(#SVGID_00000075134514341175139450000007614683730179660432_);}
	.st30{fill:url(#SVGID_00000049899887345999621270000008071283035560700816_);}
	.st31{fill:url(#SVGID_00000152246196661853150190000015486376813529584563_);}
	.st32{fill:url(#SVGID_00000091715210340187855880000001067045259669385627_);}
	.st33{fill:url(#SVGID_00000181080265931050784060000011784267847431678592_);}
	.st34{fill:url(#SVGID_00000133525141830669149040000014112338802915166898_);}
	.st35{fill:url(#SVGID_00000066485769645925648800000005785086717253130414_);}
	.st36{fill:url(#SVGID_00000100373885812065864890000003536901422352007588_);}
	.st37{fill:url(#SVGID_00000155112834588035181510000015073760291911464587_);}
	.st38{fill:url(#SVGID_00000149353409108386632360000007112767078534613930_);}
	.st39{fill:url(#SVGID_00000059276490729492033360000009399537334639172263_);}
	.st40{fill:url(#SVGID_00000064355653813236732610000001235699318020076425_);}
	.st41{fill:url(#SVGID_00000103245588828747188690000015509788073651039404_);}
	.st42{fill:url(#SVGID_00000118379153523323488550000004437428550840372915_);}
	.st43{fill:url(#SVGID_00000139262526740912481130000005986980301885462699_);}
	.st44{fill:url(#SVGID_00000129201069286916640030000006861705789406496683_);}
	.st45{fill:url(#SVGID_00000046312764196134175470000009446677192375714448_);}
	.st46{fill:url(#SVGID_00000083771788768614240570000013013077627552231867_);}
	.st47{fill:url(#SVGID_00000100366352105148671070000011808302553503964547_);}
	.st48{fill:url(#SVGID_00000059282933913328910560000008060550303303061133_);}
	.st49{fill:url(#SVGID_00000070094553045788904830000017150488166718742171_);}
	.st50{clip-path:url(#SVGID_00000144310738501629248930000013840474739021758111_);}
	.st51{display:inline;fill:url(#SVGID_00000046327274174412496410000013960166488281492877_);}
	.st52{display:inline;fill:url(#SVGID_00000018932237048139478690000004630469620080110747_);}
	.st53{display:inline;fill:url(#SVGID_00000170970357267471538280000008715444663986568321_);}
	.st54{display:inline;fill:url(#SVGID_00000076577103692432445780000012936542567842705059_);}
	.st55{display:inline;fill:url(#SVGID_00000128452299197008374350000010592225354676989861_);}
	.st56{fill:url(#SVGID_00000077283909462012010590000001732785137792979903_);}
	.st57{fill:url(#SVGID_00000164503962751100677880000012712853721964940199_);}
	.st58{fill:url(#SVGID_00000110429376288293063990000011007966010892099771_);}
	.st59{fill:url(#SVGID_00000168085793342889746820000001250355064292992140_);}
	.st60{fill:url(#SVGID_00000165937777166607913740000012747594763663586180_);}
	.st61{fill:url(#SVGID_00000113333841215876006920000015588014695979703201_);}
	.st62{clip-path:url(#SVGID_00000152967321310031385300000007391637653085923969_);}
	.st63{fill:url(#SVGID_00000176760942085545968150000004953185973839483549_);}
	.st64{fill:url(#SVGID_00000088818708670985878170000013752639114932915870_);}
	.st65{fill:url(#SVGID_00000085934504025708852990000010290411548167763345_);}
	.st66{fill:url(#SVGID_00000147178300209148278040000004297823869237624201_);}
	.st67{fill:url(#SVGID_00000103971322103369604220000000707926361180619402_);}
	.st68{fill:url(#SVGID_00000044173866134542339800000014522582010817175479_);}
	.st69{fill:#034693;}
	.st70{fill:url(#SVGID_00000165193588897503860970000016300003243514175113_);}
	.st71{fill:url(#SVGID_00000103987431794047662490000009424342854908297608_);}
	.st72{fill:url(#SVGID_00000065762384154818173570000000339052904752472982_);}
	.st73{fill:url(#SVGID_00000042011917417033629830000012421696085451957917_);}
	.st74{fill:url(#SVGID_00000052086016339131447630000005145991045747038390_);}
	.st75{fill:url(#SVGID_00000034078056691761530870000010280154672021503153_);}
	.st76{fill:url(#SVGID_00000183937886565334615800000012067102007606848653_);}
	.st77{display:inline;}
	.st78{fill:url(#SVGID_00000046312654486966220770000011265363492704961964_);}
	.st79{fill:url(#SVGID_00000149369931226940590010000017769527800046954384_);}
	.st80{fill:url(#SVGID_00000134234585112029329630000006990907998617965734_);}
	.st81{fill:url(#SVGID_00000011025982461317812540000010596790257351811485_);}
	.st82{fill:url(#SVGID_00000134211094235124586420000012214950188773257872_);}
	.st83{fill:url(#SVGID_00000129197544066495154180000014051719641225903262_);}
	.st84{fill:url(#SVGID_00000039091607709003466750000006443205001208049044_);}
	.st85{fill:url(#SVGID_00000046327577747906953770000002950199803524729235_);}
	.st86{fill:url(#SVGID_00000102508963975965593140000007417125007986315667_);}
	.st87{fill:url(#SVGID_00000095320398736856775460000012841608966060733863_);}
	.st88{fill:url(#SVGID_00000064347504025633404200000001390633254553497480_);}
	.st89{fill:url(#SVGID_00000101100505835865368510000014505937405474745992_);}
	.st90{fill:url(#SVGID_00000171694925841392679310000013379253868815600306_);}
	.st91{fill:url(#SVGID_00000072973526775689358210000016262595071480509609_);}
	.st92{fill:url(#SVGID_00000101788867007779433920000008367055702686840995_);}
	.st93{fill:url(#SVGID_00000139265813982471559110000008877837397200604556_);}
	.st94{fill:url(#SVGID_00000146485081260113307640000013311083617132502690_);}
	.st95{fill:url(#SVGID_00000181808047659068349000000003416956582586935955_);}
	.st96{fill:url(#SVGID_00000016787049429426477700000013873892060909697189_);}
	.st97{fill:url(#SVGID_00000134939307249493751530000015587064594271527331_);}
	.st98{fill:url(#SVGID_00000003081671217712187700000003252773974747517605_);}
	.st99{fill:url(#SVGID_00000127011700741262600330000004243987280161000067_);}
	.st100{fill:url(#SVGID_00000096053236778510551860000005351691132549675650_);}
	.st101{fill:url(#SVGID_00000076593512814632481840000017173603294959944372_);}
	.st102{fill:url(#SVGID_00000145755712191513337960000007953910000109253271_);}
	.st103{fill:url(#SVGID_00000172417741779590327430000016110107520640547258_);}
	.st104{fill:url(#SVGID_00000070828643258868656960000016151006047764828095_);}
	.st105{fill:url(#SVGID_00000021805492950607878940000008522457174101337222_);}
	
		.st106{fill:none;stroke:url(#SVGID_00000056426772371942117360000010779782609032786560_);stroke-width:10.1798;stroke-miterlimit:10;}
	.st107{fill:url(#SVGID_00000092431058685737690860000009456211087539504047_);}
	.st108{fill:url(#SVGID_00000093861708689459640300000013424900383791030926_);}
	.st109{fill:url(#SVGID_00000114045080659145077110000003842957502021202823_);}
	.st110{fill:url(#SVGID_00000052081398951068056760000001931990554909533623_);}
	.st111{fill:url(#SVGID_00000168826088176416459150000006825078238143285916_);}
	.st112{fill:url(#SVGID_00000078019129692338401760000010285331967657906337_);}
	.st113{fill:url(#SVGID_00000098918288523871606930000009266684156321349563_);}
	.st114{fill:url(#SVGID_00000001662557026316296230000006870160279824111499_);}
	.st115{fill:url(#SVGID_00000066483023064941485710000003019365758352056491_);}
	.st116{fill:url(#SVGID_00000160184230024632693540000015473102997752642692_);}
	.st117{fill:url(#SVGID_00000047781452932622797470000009622166701669745599_);}
	.st118{fill:url(#SVGID_00000154418107760410024650000017065315459806952339_);}
	.st119{fill:url(#SVGID_00000012465626736189901360000002787394614440583871_);}
	.st120{fill:url(#SVGID_00000060717441493338294510000006468969084549697965_);}
	.st121{fill:url(#SVGID_00000114763218579496568620000015653939247001984941_);}
	.st122{fill:url(#SVGID_00000153707073014177250270000007946797627812391040_);}
	.st123{fill:url(#SVGID_00000155850553894633715720000002290307685302984624_);}
	.st124{fill:url(#SVGID_00000052792781526519633830000015260372084944909479_);}
	.st125{fill:url(#SVGID_00000129178588392809230030000006713122245193307833_);}
	.st126{fill:url(#SVGID_00000129168096378022745700000017596999337420582029_);}
	.st127{fill:url(#SVGID_00000003078206714224380920000017724537616127936677_);}
	.st128{fill:url(#SVGID_00000164503987395923362720000001248704080845005461_);}
	.st129{fill:url(#SVGID_00000105408137422289415820000017028343717085024441_);}
	.st130{fill:url(#SVGID_00000039850717184472777210000004141219806700244669_);}
	.st131{fill:url(#SVGID_00000118373848636379556400000002433207885552046760_);}
	.st132{fill:url(#SVGID_00000034071561867546971310000010773670740793876671_);}
	.st133{fill:url(#SVGID_00000083793226584388624370000017381685763749365663_);}
	.st134{fill:url(#SVGID_00000138540332395376988750000009134894491121598102_);}
	.st135{fill:url(#SVGID_00000153669947988403519230000014092486343124864154_);}
	.st136{fill:url(#SVGID_00000148655867863551174160000015337074742281308592_);}
	.st137{fill:url(#SVGID_00000065753103120429213960000006769327570762755998_);}
	.st138{fill:url(#SVGID_00000113351495830459709180000013877832195526205846_);}
	.st139{fill:url(#SVGID_00000127749363565674943330000000855864602136214184_);}
	.st140{fill:url(#SVGID_00000127028702147344252760000001704252042293909388_);}
	.st141{fill:url(#SVGID_00000165229160832034784460000003191082381703436974_);}
	.st142{fill:url(#SVGID_00000180332669191412249020000014306769602150039976_);}
	.st143{fill:url(#SVGID_00000080916169541405555700000017198318346183131017_);}
	.st144{fill:url(#SVGID_00000094599087962878978630000015459459411314988428_);}
	.st145{fill:url(#SVGID_00000096054080508738024050000008994256601886897836_);}
	.st146{fill:url(#SVGID_00000121246972751951417400000010711426474029407124_);}
	.st147{fill:url(#SVGID_00000063596199739306829950000012909581690070091151_);}
	.st148{fill:url(#SVGID_00000013188435861536475400000015084490793257317561_);}
	.st149{fill:url(#SVGID_00000105391717256212304860000015304259151326243005_);}
	.st150{fill:url(#SVGID_00000002347761555162182590000009407318883025444994_);}
	
		.st151{fill:none;stroke:url(#SVGID_00000058578032058983544520000011558515956365844103_);stroke-width:10.1798;stroke-miterlimit:10;}
	.st152{fill:url(#SVGID_00000089567990098612310910000006171617939379808670_);}
	.st153{fill:url(#SVGID_00000032645658255958064790000008945745246248529597_);}
	.st154{fill:url(#SVGID_00000029008639066568438310000005899765586243111586_);}
	.st155{fill:url(#SVGID_00000003068549804147845260000003674861806225774476_);}
	.st156{fill:url(#SVGID_00000088831406671041010850000013568352123601111991_);}
	.st157{fill:url(#SVGID_00000126304197265851609180000010572205317532618403_);}
	.st158{fill:url(#SVGID_00000072270748685764756910000009292656503462362268_);}
	.st159{fill:url(#SVGID_00000125578137377828342000000011531718808736065445_);}
	.st160{fill:url(#SVGID_00000157286556598359700130000013138096315762938290_);}
	.st161{fill:url(#SVGID_00000121994183705887671070000001939778355945704094_);}
	.st162{fill:url(#SVGID_00000088118382674607261100000008346426649759399558_);}
	.st163{fill:url(#SVGID_00000089576068864651678990000002256509254984017040_);}
	.st164{fill:url(#SVGID_00000145037816483711628830000017961126592822060417_);}
	.st165{fill:url(#SVGID_00000122718519148253688560000015274763029946091440_);}
	.st166{fill:url(#SVGID_00000131356366734754148140000008738008317786157447_);}
	.st167{fill:url(#SVGID_00000183238294701686937910000017758582974081931180_);}
	.st168{fill:url(#SVGID_00000006707294167435896980000006088531171048641177_);}
	.st169{fill:url(#SVGID_00000034791867036564724110000017341308147289242294_);}
	.st170{fill:url(#SVGID_00000086675225310531542360000006995021344031623552_);}
	.st171{fill:url(#SVGID_00000099642587746434206030000005468998369075041703_);}
	.st172{fill:url(#SVGID_00000128485592023119408040000003457212402483749311_);}
	.st173{fill:url(#SVGID_00000049937837081680987490000009452755139442252936_);}
	.st174{fill:url(#SVGID_00000042705888911100955580000007922199589868891285_);}
	.st175{fill:url(#SVGID_00000024690976289955758070000012406020117079548311_);}
	.st176{fill:url(#SVGID_00000181769204278502551690000012444961409136642711_);}
	.st177{fill:url(#SVGID_00000179647734901019559620000016720362425114643621_);}
	.st178{fill:url(#SVGID_00000006676659243643273600000011726847357853642127_);}
	.st179{fill:url(#SVGID_00000059998235506134209580000006852687325433419693_);}
	.st180{fill:url(#SVGID_00000113324457130343167330000005302053880360402876_);}
	.st181{fill:url(#SVGID_00000029737938382938679290000017962246354001199029_);}
	.st182{fill:url(#SVGID_00000021106052161548495490000009168948363154546082_);}
	.st183{fill:url(#SVGID_00000124132010815573115140000012614072928561970857_);}
	.st184{fill:url(#SVGID_00000132775259260185112420000003911422271984706188_);}
	.st185{fill:url(#SVGID_00000176745546451263770540000006970126716471534986_);}
	.st186{fill:url(#SVGID_00000091698758998970315030000018197088752585284754_);}
	
		.st187{fill:none;stroke:url(#SVGID_00000090266993589368675030000007815229159380340404_);stroke-width:10.1798;stroke-miterlimit:10;}
	.st188{fill:url(#SVGID_00000091001333440099059950000007272128367957813426_);}
	.st189{fill:url(#SVGID_00000092455990253098129560000015553994945109624239_);}
	.st190{fill:url(#SVGID_00000125582169750788857780000014011346395771091350_);}
	.st191{fill:url(#SVGID_00000016779426195624802630000000511358668957659292_);}
	.st192{fill:url(#SVGID_00000106116623611984188760000004340402073114965123_);}
	.st193{fill:url(#SVGID_00000163063538897367489670000003570893368934510264_);}
	.st194{fill:url(#SVGID_00000139986403975703031350000014338126980725945222_);}
	.st195{fill:url(#SVGID_00000101823045330355485390000009595405887462756020_);}
	.st196{fill:url(#SVGID_00000018948940594312279860000010008585771173343158_);}
	.st197{fill:url(#SVGID_00000123438528047019211740000004027729549866468016_);}
	.st198{fill:url(#SVGID_00000089536972752709265640000013450127897817872769_);}
	.st199{fill:url(#SVGID_00000002363611933170785440000014946840053396790923_);}
	.st200{fill:url(#SVGID_00000014634766186821604050000004335966401722497184_);}
	.st201{fill:url(#SVGID_00000149346372432992300290000015953863666139205249_);}
	.st202{clip-path:url(#SVGID_00000019645384257342771970000008078353733348105396_);}
	.st203{display:inline;fill:url(#SVGID_00000127038396859050619190000003999395469206748604_);}
	.st204{display:inline;fill:url(#SVGID_00000143601551165636935760000015584554722199058091_);}
	.st205{display:inline;fill:url(#SVGID_00000082352600741461166040000009942668159317302439_);}
	.st206{display:inline;fill:url(#SVGID_00000168110331274479074150000007361556451264957340_);}
	.st207{display:inline;fill:url(#SVGID_00000168081823866406912380000016393693527000180914_);}
	.st208{fill:url(#SVGID_00000031898743380567673810000013998777463965437630_);}
	.st209{fill:url(#SVGID_00000089538833613744930820000002051788929658367627_);}
	.st210{fill:url(#SVGID_00000023275414329085130150000005191715002819191230_);}
	.st211{fill:url(#SVGID_00000008837786235710110640000012186611205115570101_);}
	.st212{fill:url(#SVGID_00000091014081673459275240000012407581498149486518_);}
	.st213{fill:url(#SVGID_00000060001508113732762960000008621414259035978372_);}
	.st214{clip-path:url(#SVGID_00000119800814772718281640000018275544356188463005_);}
	.st215{fill:url(#SVGID_00000092446987911216131470000001854344564681899940_);}
	.st216{fill:url(#SVGID_00000023972883138249617280000011945569960388008354_);}
	.st217{fill:url(#SVGID_00000178918936987034059890000014141225548554501822_);}
	.st218{fill:url(#SVGID_00000137127632375870831430000013018645072315410613_);}
	.st219{fill:url(#SVGID_00000090979402849666276070000008279144878777407141_);}
	.st220{fill:url(#SVGID_00000062881329503178998270000013628392022368833448_);}
	.st221{fill:url(#SVGID_00000017489821507346956900000004501445576085227149_);}
	.st222{fill:url(#SVGID_00000167379154127199720720000012485787165796739970_);}
	.st223{fill:url(#SVGID_00000028300123651784552770000010977762332396188066_);}
	.st224{fill:url(#SVGID_00000043434764780833790230000003712030217301502599_);}
	.st225{fill:url(#SVGID_00000057123458924757177060000007631120218419802781_);}
	.st226{fill:url(#SVGID_00000017506981321998504770000014224519124536959666_);}
	.st227{fill:url(#SVGID_00000091713985208742988790000014013090335046241200_);}
	.st228{fill:url(#SVGID_00000163050618907325843470000001070435320312714131_);}
	.st229{fill:url(#SVGID_00000063622592790807535080000003579196980972222902_);}
	.st230{fill:url(#SVGID_00000083780184062472265160000004255326085565076615_);}
	.st231{fill:url(#SVGID_00000045606050093654563740000017008352423968465810_);}
	.st232{fill:url(#SVGID_00000177471555542187633430000006248544524261955224_);}
	.st233{fill:url(#SVGID_00000088821390693821203500000009522767585007654070_);}
	.st234{fill:url(#SVGID_00000181048993068292953830000003182656882251730595_);}
	.st235{clip-path:url(#SVGID_00000042721616880858461600000013745169461515295929_);}
	.st236{display:inline;fill:url(#SVGID_00000091016728622442839340000006292662524252617359_);}
	.st237{display:inline;fill:url(#SVGID_00000150809102131213208970000013264481842668718772_);}
	.st238{display:inline;fill:url(#SVGID_00000116919652679600138020000016255808391654959539_);}
	.st239{display:inline;fill:url(#SVGID_00000160877184661608030010000006340824282691915966_);}
	.st240{display:inline;fill:url(#SVGID_00000147208953990634673360000012864477915841600693_);}
	.st241{fill:url(#SVGID_00000132807014632482423430000004785838249187769784_);}
	.st242{fill:url(#SVGID_00000124133592143994072480000001833372048574404246_);}
	.st243{fill:url(#SVGID_00000021807211360039142460000001647522760187318962_);}
	.st244{fill:url(#SVGID_00000166667896943013158580000012692706620295993785_);}
	.st245{fill:url(#SVGID_00000178921895464219416960000010826684554938994086_);}
	.st246{fill:url(#SVGID_00000086691687619166267080000016641273719759514301_);}
	.st247{clip-path:url(#SVGID_00000182529580913925764640000004543483076020525193_);}
	.st248{fill:url(#SVGID_00000088845103027585731780000014841844773597208215_);}
	.st249{fill:url(#SVGID_00000039119490677593867860000012736059384935834538_);}
	.st250{fill:url(#SVGID_00000137822862365316486630000000421808320421746352_);}
	.st251{fill:url(#SVGID_00000051364453963566556250000013153519148686537643_);}
	.st252{fill:url(#SVGID_00000152978612431593106270000000386188472460855168_);}
	.st253{fill:url(#SVGID_00000087369943993384988240000014183730496234815115_);}
	.st254{fill:url(#SVGID_00000132072634695814705730000009516870302382142134_);}
	.st255{fill:url(#SVGID_00000150782677552753842450000017737975132285706419_);}
	.st256{fill:url(#SVGID_00000138532095540152025290000004574221728342463119_);}
	.st257{fill:url(#SVGID_00000146458978056175593950000004262849562628299408_);}
	.st258{fill:url(#SVGID_00000043418483285821613460000003578244745474841728_);}
	.st259{fill:url(#SVGID_00000065039689189272359710000014519172504889524892_);}
	.st260{fill:url(#SVGID_00000157267919597634194550000018210618667051287175_);}
	.st261{fill:url(#SVGID_00000085945650772701904900000003322375532508394407_);}
	.st262{fill:url(#SVGID_00000087407246377613833850000002572100134366848674_);}
	.st263{fill:url(#SVGID_00000101792667011442897270000006624627573585183917_);}
	.st264{fill:url(#SVGID_00000160169104900052753190000018187863263236364452_);}
	.st265{fill:url(#SVGID_00000136396048152099755850000006057106942590030003_);}
	.st266{fill:url(#SVGID_00000082340131398696141700000012861219505413323661_);}
	.st267{fill:url(#SVGID_00000131326735934967330080000012574982804708666018_);}
	.st268{fill:url(#SVGID_00000182524779506609049200000005848408366541515700_);}
	.st269{fill:url(#SVGID_00000018917525860573662550000011824377217913895814_);}
	.st270{fill:url(#SVGID_00000024694012942385728220000017027892147187489467_);}
	.st271{fill:url(#SVGID_00000065043920235254235310000007709652101957494716_);}
	.st272{fill:url(#SVGID_00000160183162952139225720000003280182988806448563_);}
	.st273{fill:url(#SVGID_00000108994729601741732080000017291896156377825207_);}
	.st274{fill:url(#SVGID_00000054236022693701411030000007192634947621202870_);}
	.st275{fill:url(#SVGID_00000109715534723348817870000008806476323349309069_);}
	.st276{fill:url(#SVGID_00000048491411638829279690000016434864696966562702_);}
	.st277{clip-path:url(#SVGID_00000067198983161780416250000011020224282614015108_);}
	.st278{display:inline;fill:url(#SVGID_00000065756166201316110880000009986014565651485077_);}
	.st279{display:inline;fill:url(#SVGID_00000140702350899812162710000016387827889971033488_);}
	.st280{display:inline;fill:url(#SVGID_00000064323463204049726350000013591095791374280884_);}
	.st281{display:inline;fill:url(#SVGID_00000025418941501453310890000004510290633194304174_);}
	.st282{display:inline;fill:url(#SVGID_00000116207757763641058370000002598728534533273773_);}
	.st283{fill:url(#SVGID_00000036224040346610687900000006013382283964666550_);}
	.st284{fill:url(#SVGID_00000105386118406443449580000013217871245189309589_);}
	.st285{fill:url(#SVGID_00000015321142517083520710000014445180604217987768_);}
	.st286{fill:url(#SVGID_00000018956218168911019190000014572194716002498449_);}
	.st287{fill:url(#SVGID_00000048459456543578254960000012540622676834926488_);}
	.st288{fill:url(#SVGID_00000148628003881968510600000010771973162379684797_);}
	.st289{clip-path:url(#SVGID_00000082357202556529580250000006044093009422295719_);}
	.st290{fill:url(#SVGID_00000023257130813765740250000018059403492459078288_);}
	.st291{fill:url(#SVGID_00000163068972380653958570000003316456057360154553_);}
	.st292{fill:url(#SVGID_00000174560616786233418210000016492583230894579892_);}
	.st293{fill:url(#SVGID_00000030484954760499466360000002094739732318354318_);}
	.st294{fill:url(#SVGID_00000055696442542333131480000011123149766542147201_);}
	.st295{fill:url(#SVGID_00000183970325312910283380000011210600653383209915_);}
	.st296{fill:url(#SVGID_00000070820535097544319970000008074580495215069578_);}
	.st297{fill:url(#SVGID_00000016780546373613959560000008479843991055393702_);}
	.st298{fill:url(#SVGID_00000136397234609341827140000015223010590472151441_);}
	.st299{fill:url(#SVGID_00000150093103626628427200000014032226485321817769_);}
	.st300{fill:url(#SVGID_00000088817842257171159650000004513854202771135665_);}
	.st301{fill:url(#SVGID_00000080917245576458202840000009385638717637847433_);}
	.st302{clip-path:url(#SVGID_00000134928201920414613090000015711818851100218554_);}
	.st303{display:inline;fill:url(#SVGID_00000093873415711638606050000005033215752250423439_);}
	.st304{display:inline;fill:url(#SVGID_00000162317962688677039020000017620302735376819879_);}
	.st305{display:inline;fill:url(#SVGID_00000018202370746100237360000006821246060402787219_);}
	.st306{display:inline;fill:url(#SVGID_00000057121970659148308520000007141453023131700907_);}
	.st307{display:inline;fill:url(#SVGID_00000101803251331798847720000006711056429994160050_);}
	.st308{fill:url(#SVGID_00000042707491287830661920000012745560384642832264_);}
	.st309{fill:url(#SVGID_00000067947703863204724190000008064250871424402864_);}
	.st310{fill:url(#SVGID_00000021813140697142183660000004983784956638935435_);}
	.st311{fill:url(#SVGID_00000181772794554558974120000003948219478977967526_);}
	.st312{fill:url(#SVGID_00000026144577711542470690000009987464768438591923_);}
	.st313{fill:url(#SVGID_00000086677815717178216260000002961358430860786567_);}
	.st314{clip-path:url(#SVGID_00000172410266696942775430000008086048096295111563_);}
	.st315{fill:url(#SVGID_00000075855356120889418020000018276830071206546851_);}
	.st316{fill:url(#SVGID_00000011711333015404699710000000069050576301557670_);}
	.st317{fill:url(#SVGID_00000140731404064683910120000003590915873439543978_);}
	.st318{fill:url(#SVGID_00000116933561637647847750000017745979792387510698_);}
	.st319{fill:url(#SVGID_00000088829001436835062730000017329599632577413558_);}
	.st320{fill:url(#SVGID_00000057108071002146616230000010691762732410025132_);}
	.st321{fill:url(#SVGID_00000156551221597934669670000000961404684192744098_);}
	.st322{fill:url(#SVGID_00000174564063988255237450000011381931580474616742_);}
	.st323{fill:url(#SVGID_00000092433704053280400410000008598021827236674492_);}
	.st324{fill:url(#SVGID_00000058550125525434033420000002232826754307240090_);}
	.st325{fill:url(#SVGID_00000150805951541278716990000003190368674429430202_);}
	.st326{fill:url(#SVGID_00000036957541709369845910000014436365082674069385_);}
	.st327{clip-path:url(#SVGID_00000020399768121798195000000001129148868167455647_);}
	.st328{display:inline;fill:url(#SVGID_00000160183397621155343100000014531344209344380067_);}
	.st329{display:inline;fill:url(#SVGID_00000120543739867967718500000009727062939033562043_);}
	.st330{display:inline;fill:url(#SVGID_00000137828191152620887440000018187782810423440264_);}
	.st331{display:inline;fill:url(#SVGID_00000140014452885440392870000009367449981582246582_);}
	.st332{display:inline;fill:url(#SVGID_00000017494122088654234050000010309734336082551701_);}
	.st333{fill:url(#SVGID_00000145054297612203709320000003882618165898300296_);}
	.st334{fill:url(#SVGID_00000180353159989070364060000000616612074965912207_);}
	.st335{fill:url(#SVGID_00000010306221654999165860000009481566561332738176_);}
	.st336{fill:url(#SVGID_00000162312466500107836650000011137253595842286000_);}
	.st337{fill:url(#SVGID_00000056413432668718523780000014965060468869153470_);}
	.st338{fill:url(#SVGID_00000076595051726905165320000007222876156643155124_);}
	.st339{clip-path:url(#SVGID_00000165226892770580906990000014002980371812175506_);}
	.st340{fill:url(#SVGID_00000061441193789546363910000010594910758443458225_);}
	.st341{fill:url(#SVGID_00000025429249643492781080000017190586000691238287_);}
	.st342{fill:url(#SVGID_00000165943724149134644760000015494646438219723394_);}
	.st343{fill:url(#SVGID_00000042018338295935502230000003124683032777433006_);}
	.st344{fill:url(#SVGID_00000104692772584201753180000016809023347876725639_);}
	.st345{fill:url(#SVGID_00000150102024169074622450000002008783599345299629_);}
	.st346{fill:url(#SVGID_00000019644201590427378640000004716955191177988525_);}
	.st347{fill:url(#SVGID_00000157309870396276136820000002538810936342178464_);}
	.st348{fill:url(#SVGID_00000176016878947690145390000003274557270983574937_);}
	.st349{fill:url(#SVGID_00000177464308595912086640000010474825055888580284_);}
	.st350{fill:url(#SVGID_00000062153870994313963600000003430070045085909935_);}
	.st351{fill:url(#SVGID_00000093873782455835298880000008925102206137278609_);}
	.st352{clip-path:url(#SVGID_00000168077554567534847850000005721074337476636591_);}
	.st353{display:inline;fill:url(#SVGID_00000165229131863386523250000001655393199909642939_);}
	.st354{display:inline;fill:url(#SVGID_00000070821687131951578470000015804250020365508278_);}
	.st355{display:inline;fill:url(#SVGID_00000007400539799996415170000004554506761370952114_);}
	.st356{display:inline;fill:url(#SVGID_00000093176744849081090550000001708449457220679845_);}
	.st357{display:inline;fill:url(#SVGID_00000156574336231043347860000002722603915179689890_);}
	.st358{fill:url(#SVGID_00000155108247780508040010000008434808667388798140_);}
	.st359{fill:url(#SVGID_00000120548821102809175260000017218917881969704874_);}
	.st360{fill:url(#SVGID_00000000934002137134589600000004919267019081899912_);}
	.st361{fill:url(#SVGID_00000102520085448868949810000010312750600185047938_);}
	.st362{fill:url(#SVGID_00000008865331251898448800000006550616368626809730_);}
	.st363{fill:url(#SVGID_00000040540852922908563180000017840421618219827590_);}
	.st364{clip-path:url(#SVGID_00000114751942240636301940000012188897943524537751_);}
	.st365{fill:url(#SVGID_00000158707586164540184920000007807724708243875762_);}
	.st366{fill:url(#SVGID_00000005226877815978116530000014759712202809136020_);}
	.st367{fill:url(#SVGID_00000021821346005457881330000015277667910614767751_);}
	.st368{fill:url(#SVGID_00000144320201319036775110000007007984045889311647_);}
	.st369{fill:url(#SVGID_00000075865517786239014990000010096755339226102447_);}
	.st370{fill:url(#SVGID_00000070836023933488106080000015980311957942745250_);}
	.st371{fill:url(#SVGID_00000142898116584835519110000009704140244344640902_);}
	.st372{fill:url(#SVGID_00000159428428729160032990000004387546869785658527_);}
	.st373{fill:url(#SVGID_00000007410798072803119050000014665519142176235674_);}
	.st374{fill:url(#SVGID_00000106849558231248314540000015203025743503251368_);}
	.st375{fill:url(#SVGID_00000073684525768064538060000012426946118125327780_);}
	.st376{fill:url(#SVGID_00000147902927102235198950000012576641495455521189_);}
	.st377{fill:url(#SVGID_00000022558850781531349940000008405273427096409256_);}
	.st378{clip-path:url(#SVGID_00000094581512199716759540000011368092418030588558_);}
	.st379{display:inline;fill:url(#SVGID_00000103987275794460112710000006234771856617443226_);}
	.st380{display:inline;fill:url(#SVGID_00000011709754202265900080000006767771814780958852_);}
	.st381{display:inline;fill:url(#SVGID_00000153671587264198156160000004384554705763743895_);}
	.st382{display:inline;fill:url(#SVGID_00000155863666640050058100000010432672658642792834_);}
	.st383{display:inline;fill:url(#SVGID_00000018923398148983095680000017301033053542191526_);}
	.st384{fill:url(#SVGID_00000103226570921230279340000010581684646115263375_);}
	.st385{fill:url(#SVGID_00000075132563641454832690000004544867575201276846_);}
	.st386{fill:url(#SVGID_00000152225786206242909570000012817895063317607562_);}
	.st387{fill:url(#SVGID_00000052790281049502062330000010249960798234333116_);}
	.st388{fill:url(#SVGID_00000112610365964788658920000012244644139569556362_);}
	.st389{fill:url(#SVGID_00000147179191797475342070000017448377786978528943_);}
	.st390{clip-path:url(#SVGID_00000101796415805523656450000014614649805330413741_);}
	.st391{fill:url(#SVGID_00000147905906253687580360000010847460450562621077_);}
	.st392{fill:url(#SVGID_00000113322030292473398430000010009266748625326469_);}
	.st393{fill:url(#SVGID_00000156558292882065493350000008550168253309410191_);}
	.st394{fill:url(#SVGID_00000019640253025726518250000011555878921140350389_);}
	.st395{fill:url(#SVGID_00000122703653254906113930000008266606235568551053_);}
	.st396{fill:url(#SVGID_00000084525579127370364390000011095776883774814089_);}
	.st397{fill:url(#SVGID_00000005957149333612759010000013094926638203842720_);}
	.st398{fill:url(#SVGID_00000140711371355234578000000006229983928627701401_);}
	.st399{fill:url(#SVGID_00000043448794448191291840000002155861850157356181_);}
	.st400{fill:url(#SVGID_00000006685608575343394250000005876607796439094187_);}
	.st401{fill:url(#SVGID_00000024723293657567342170000002123064833845736342_);}
	.st402{fill:url(#SVGID_00000033347193147674353300000015151435325954166684_);}
	.st403{display:inline;fill:url(#SVGID_00000013152593670468001640000014462427820324843197_);}
	.st404{display:inline;fill:url(#SVGID_00000152986738670257163020000004575682610304988845_);}
	.st405{display:inline;fill:url(#SVGID_00000029735398082968353200000009778192148238224539_);}
	.st406{display:inline;fill:url(#SVGID_00000095339932893323420530000004496832638814903437_);}
	.st407{display:inline;fill:url(#SVGID_00000122709739087062178800000002684857309816747670_);}
	.st408{fill:url(#SVGID_00000049206624009775144150000010439569082638300825_);}
	.st409{fill:url(#SVGID_00000151541964947615199340000004724903094000382884_);}
	.st410{fill:url(#SVGID_00000070109537489655017360000015858933331668325305_);}
	.st411{fill:url(#SVGID_00000019643896574785971720000008776059863490353573_);}
	.st412{fill:url(#SVGID_00000080891570757050740160000001660651157742692781_);}
	.st413{fill:url(#SVGID_00000049940870643512048400000011041018061734298013_);}
	.st414{fill:url(#SVGID_00000057126461517574104580000007089718057341951913_);}
	.st415{fill:url(#SVGID_00000076593724121558552400000011491455123147452070_);}
	.st416{fill:url(#SVGID_00000073003037063660631340000000321903806158701744_);}
	.st417{fill:url(#SVGID_00000070799895118105694420000017716214159486388878_);}
	.st418{fill:url(#SVGID_00000065064880734175736810000006189187406390316457_);}
	.st419{fill:url(#SVGID_00000051354277358482144640000013975854321496706440_);}
	.st420{display:inline;fill:url(#SVGID_00000048485274924690605560000009576506083409358759_);}
	.st421{display:inline;fill:url(#SVGID_00000103975262052478157210000004129835934734454179_);}
	.st422{display:inline;fill:url(#SVGID_00000036936790027182962430000018433763127684795808_);}
	.st423{display:inline;fill:url(#SVGID_00000172433497615944963840000009524964313933561018_);}
	.st424{display:inline;fill:url(#SVGID_00000174565026278874829370000000639698654379990691_);}
	.st425{fill:url(#SVGID_00000019654464780920002760000003525334087974692793_);}
	.st426{fill:url(#SVGID_00000161589737329188790570000009855345275006145175_);}
	.st427{fill:url(#SVGID_00000155106648580548788800000000487607078836731809_);}
	.st428{fill:url(#SVGID_00000049926998379723307560000003051815653392371090_);}
	.st429{fill:url(#SVGID_00000169554093142000574220000012201958119421887627_);}
	.st430{fill:url(#SVGID_00000058548041586344903280000003465013350096383411_);}
	.st431{fill:url(#SVGID_00000080208349323782688150000016584824045106309262_);}
	.st432{fill:url(#SVGID_00000085221294285803270940000015330029121427181497_);}
	.st433{fill:url(#SVGID_00000023970156328354791830000017031708952468231340_);}
	.st434{fill:url(#SVGID_00000003817395588602387630000003007014560617389713_);}
	.st435{fill:url(#SVGID_00000052793812940578405110000012973856405783535266_);}
	.st436{fill:url(#SVGID_00000048471060773271277150000002485321208338376085_);}
	.st437{display:inline;fill:url(#SVGID_00000168097505662040390380000002612215698315537067_);}
	.st438{display:inline;fill:url(#SVGID_00000119798449680148635630000012187237858432845986_);}
	.st439{display:inline;fill:url(#SVGID_00000010308933164297213330000009922558299428256643_);}
	.st440{display:inline;fill:url(#SVGID_00000080179748272864249130000002108278500785468599_);}
	.st441{display:inline;fill:url(#SVGID_00000002385617578453523870000011439253980663369602_);}
	.st442{fill:url(#SVGID_00000105402831161675451600000010962824366596180877_);}
	.st443{fill:url(#SVGID_00000150786464575626146130000014773986393505231779_);}
	.st444{fill:url(#SVGID_00000150093603447635767770000004613757334986917505_);}
	.st445{fill:url(#SVGID_00000160873111397208802750000012688460632683621265_);}
	.st446{fill:url(#SVGID_00000027578051067917588930000007584523150261641134_);}
	.st447{fill:url(#SVGID_00000066514122480699661750000007225665307025583760_);}
	.st448{fill:url(#SVGID_00000020361537844008283900000017853145942685444793_);}
	.st449{fill:url(#SVGID_00000100347589569512671010000013409615955464993173_);}
	.st450{fill:url(#SVGID_00000002373281020722080520000008298742463384669867_);}
	.st451{fill:url(#SVGID_00000029742446356234135410000004291338710457808522_);}
	.st452{fill:url(#SVGID_00000134218778515215907520000009526909718101212547_);}
	.st453{fill:url(#SVGID_00000104697686591264955300000012637382476139304834_);}
	.st454{display:inline;fill:url(#SVGID_00000144321483599940682550000017197841493254416546_);}
	.st455{display:inline;fill:url(#SVGID_00000106135609862789345330000014070622654336100524_);}
	.st456{display:inline;fill:url(#SVGID_00000044899822462743039220000002746311326269135759_);}
	.st457{display:inline;fill:url(#SVGID_00000131345196958680014130000000593638009099495606_);}
	.st458{display:inline;fill:url(#SVGID_00000155849356108861764300000004254966202584757677_);}
	.st459{fill:url(#SVGID_00000077303713438654884160000002525099395224722063_);}
	.st460{fill:url(#SVGID_00000022549747565246511040000013932415114041079215_);}
	.st461{fill:url(#SVGID_00000139980243747315306320000001419302352663163797_);}
	.st462{fill:url(#SVGID_00000052808839532581891890000014103079204414632893_);}
	.st463{fill:url(#SVGID_00000161598762590615643620000006824797914991315894_);}
	.st464{fill:url(#SVGID_00000072977138243728721360000016764921756976668841_);}
</style>
<g>
	<g>
		<path class="st0" d="M931.2,123.7c-5.3-15.8-13.1-31.2-23.1-45.6c-10.2-14.7-22.7-28-37.2-39.6c-15.2-12.1-33.1-21.7-53.1-28.5
			C798.1,3.4,776.2,0,752.8,0c-24.3,0-46.4,3.5-65.5,10.4C668,17.4,650.7,27.1,636,39.5c-12.8,10.8-24.2,23-33.8,36.5
			c-9.7-13.6-21.4-26-34.8-36.9c-14.9-12.1-32-21.7-51.1-28.6C497.2,3.5,475.1,0,450.8,0c-24.1,0-46.2,3.4-65.7,10.2
			c-19.6,6.8-37.2,16.3-52.4,28.4c-14.8,11.8-27.4,25.4-37.3,40.3c-9.2,13.7-16.7,28.3-22.4,43.2l-0.2,0.6L0,892.4h277h80.5
			l96.6-293.3l110,293.3h75.3l110.8-295.3l100.2,295.3h353.2L931.2,123.7z"/>
		<g>
			<g>
				<g>
					<path class="st0" d="M601.8,487.4l-114.2-306c-2.1-5.3-6.7-10.1-13.6-14.4c-6.9-4.3-14.7-6.4-23.2-6.4
						c-7.5,0-15.2,2.1-23.2,6.4c-8,4.3-12.8,9.1-14.4,14.4L183.2,838.1H76.9l246.9-696.6c4.3-11.2,9.8-22,16.8-32.4
						c6.9-10.4,15.6-19.7,26-28c10.4-8.3,22.5-14.8,36.3-19.6c13.8-4.8,29.8-7.2,47.9-7.2c18.1,0,33.8,2.4,47.1,7.2
						c13.3,4.8,25,11.3,35.2,19.6c10.1,8.3,18.8,17.6,26,28c7.2,10.4,13.4,21.2,18.8,32.4l24,47.9l24-47.9
						c5.9-11.2,12.4-22,19.6-32.4s15.7-19.7,25.6-28c9.8-8.3,21.4-14.8,34.8-19.6c13.3-4.8,29-7.2,47.1-7.2
						c17.6,0,33.4,2.4,47.5,7.2c14.1,4.8,26.4,11.3,36.7,19.6c10.4,8.3,19.2,17.6,26.4,28c7.2,10.4,12.6,21.2,16.4,32.4l246.9,696.6
						h-106.3L790.3,181.4c-1.6-5.3-6.4-10.1-14.4-14.4c-8-4.3-15.7-6.4-23.2-6.4c-8.5,0-16.3,2.1-23.2,6.4
						c-6.9,4.3-11.5,9.1-13.6,14.4L601.8,487.4z M601.8,838.1l-151-402.6L318.2,838.1H211.9l218.9-636.7c1.1-3.2,3.7-6,8-8.4
						c4.3-2.4,8.3-3.6,12-3.6c3.7,0,7.6,1.2,11.6,3.6c4,2.4,6.5,5.2,7.6,8.4l131.8,363.5l131.8-363.5c1.1-3.2,3.6-6,7.6-8.4
						c4-2.4,7.9-3.6,11.6-3.6c3.7,0,7.7,1.2,12,3.6c4.3,2.4,6.9,5.2,8,8.4l218.9,636.7H889.4L752.8,435.4L601.8,838.1z"/>
					<path class="st0" d="M1326.4,892.4c-44,0-83-5.5-116-16.3c-36.3-11.8-67.1-31-91.7-57.1c-24.3-25.7-42.3-58.5-53.5-97.4
						c-10.1-35.3-15.3-77.4-15.3-124.8V295.6c0-49.1,5.1-91.9,15.3-127.2c11.2-39.1,29.3-71.8,53.7-97.3
						c24.8-25.8,55.8-44.6,92.4-55.9C1244.1,5.1,1282.8,0,1326.4,0h102.3c44,0,83.1,5.1,116.1,15.1c37,11.3,68.2,30.2,92.8,56.2
						c24.2,25.6,41.9,58.4,52.8,97.4c9.8,35.3,14.8,77.9,14.8,126.8v301.2c0,47.3-5,89.2-14.8,124.4c-10.8,39-28.5,71.8-52.5,97.6
						c-24.4,26.2-55.4,45.5-92.1,57.4c-33.2,10.8-72.6,16.2-117,16.2H1326.4z"/>
					<path class="st0" d="M1227.3,824.5c-27.7-9-50.7-23.3-69.1-42.7c-18.4-19.4-32-44.5-40.7-75.1c-8.8-30.6-13.2-67.2-13.2-109.8
						V295.6c0-44.2,4.4-81.6,13.2-112.2c8.8-30.6,22.4-55.5,40.7-74.7c18.4-19.2,41.4-33,69.1-41.5c27.7-8.5,60.7-12.8,99.1-12.8
						h102.3c38.9,0,72.3,4.3,100.3,12.8c28,8.5,51,22.4,69.1,41.5c18.1,19.2,31.4,44.1,39.9,74.7c8.5,30.6,12.8,68,12.8,112.2v301.2
						c0,42.6-4.3,79.2-12.8,109.8c-8.5,30.6-21.8,55.7-39.9,75.1c-18.1,19.4-41.1,33.7-69.1,42.7c-28,9.1-61.4,13.6-100.3,13.6
						h-102.3C1288,838.1,1255,833.6,1227.3,824.5z M1439.8,731.8c20.2,0,37.3-2.8,51.1-8.4c13.8-5.6,25.2-13.4,34-23.6
						c8.8-10.1,15.2-22.1,19.2-35.9c4-13.8,6-28.8,6-44.7V273.3c0-16-2-30.9-6-44.7c-4-13.8-10.4-25.8-19.2-35.9
						c-8.8-10.1-20.2-18-34.4-23.6c-14.1-5.6-31.3-8.4-51.5-8.4h-123c-20.2,0-37.4,2.8-51.5,8.4c-14.1,5.6-25.6,13.5-34.4,23.6
						c-8.8,10.1-15.2,22.1-19.2,35.9c-4,13.9-6,28.8-6,44.7v345.9c0,16,2,30.9,6,44.7c4,13.9,10.4,25.8,19.2,35.9
						c8.8,10.1,20.1,18,34,23.6c13.8,5.6,30.9,8.4,51.1,8.4h62.3H1439.8z M1325.6,703.1c-18.6,0-34-1.7-45.9-5.2
						c-12-3.5-21.3-9.2-28-17.2c-6.7-8-11.3-18.2-14-30.8c-2.7-12.5-4-28.1-4-46.7v-314c0-13.8,1.3-26.9,4-39.1
						c2.7-12.2,7.5-22.9,14.4-32c6.9-9,16.4-16.1,28.4-21.2c12-5.1,27.3-7.6,45.9-7.6h51.1h51.1c18.6,0,34,2.5,45.9,7.6
						c12,5.1,21.4,12.1,28.4,21.2c6.9,9.1,11.7,19.7,14.4,32c2.7,12.3,4,25.3,4,39.1v314c0,18.6-1.3,34.2-4,46.7
						c-2.7,12.5-7.3,22.8-14,30.8c-6.7,8-16,13.7-28,17.2c-12,3.5-27.3,5.2-45.9,5.2H1325.6z M1403.1,596.8c6.4,0,10.5-1.9,12.4-5.6
						c1.9-3.7,2.8-8.8,2.8-15.2V316.4c0-6.4-0.9-11.4-2.8-15.2c-1.9-3.7-6-5.6-12.4-5.6h-51.1c-6.4,0-10.5,1.9-12.4,5.6
						c-1.9,3.7-2.8,8.8-2.8,15.2V576c0,6.4,0.9,11.5,2.8,15.2c1.9,3.7,6,5.6,12.4,5.6H1403.1z"/>
					<path class="st0" d="M1650.7,892.4V0h361.9c44,0,83.1,5.1,116.1,15.1c37,11.3,68.2,30.2,92.8,56.2
						c24.2,25.6,41.9,58.4,52.8,97.4c9.8,35.3,14.8,77.9,14.8,126.8v301.2c0,47.3-5,89.2-14.8,124.4c-10.8,39-28.5,71.8-52.5,97.6
						c-24.4,26.2-55.4,45.5-92.1,57.4c-33.2,10.8-72.6,16.2-117,16.2H1650.7z"/>
					<path class="st0" d="M2074.9,723.4c13.8-5.6,25.2-13.4,34-23.6c8.8-10.1,15.2-22.1,19.2-35.9c4-13.8,6-28.8,6-44.7V273.3
						c0-16-2-30.9-6-44.7c-4-13.8-10.4-25.8-19.2-35.9c-8.8-10.1-20.2-18-34.3-23.6c-14.1-5.6-31.3-8.4-51.5-8.4h-318V54.4h307.6
						c38.9,0,72.3,4.3,100.3,12.8c28,8.5,51,22.4,69.1,41.5c18.1,19.2,31.4,44.1,39.9,74.7c8.5,30.6,12.8,68,12.8,112.2v301.2
						c0,42.6-4.3,79.2-12.8,109.8c-8.5,30.6-21.8,55.7-39.9,75.1c-18.1,19.4-41.1,33.7-69.1,42.7c-28,9.1-61.4,13.6-100.3,13.6H1705
						V321.2h100.7v410.6h218.1C2044,731.8,2061,729,2074.9,723.4z M1705,295.6V189.4h307.6c18.6,0,34,2.5,45.9,7.6
						c12,5.1,21.4,12.1,28.4,21.2c6.9,9.1,11.7,19.7,14.4,32c2.7,12.3,4,25.3,4,39.1v314c0,18.6-1.3,34.2-4,46.7
						c-2.7,12.5-7.3,22.8-14,30.8c-6.7,8-16,13.7-28,17.2c-12,3.5-27.3,5.2-45.9,5.2h-178.9V321.2h111.8V576
						c0,13.9,6.7,20.8,20,20.8h17.6c6.4,0,11.6-1.9,15.6-5.6c4-3.7,6-8.8,6-15.2V316.4c0-6.4-2-11.4-6-15.2c-4-3.7-9.2-5.6-15.6-5.6
						H1705z"/>
					<path class="st0" d="M2507.1,892.4c-36.6,0-72.4-8-106.4-23.9c-33-15.3-62.4-36.5-87.6-63c-25-26.3-45.2-57.7-59.9-93.3
						c-14.9-36-22.5-74.9-22.5-115.5V295.6c0-40.6,7.6-79.5,22.5-115.5c14.7-35.6,34.9-67,59.9-93.3c25.1-26.4,54.6-47.6,87.6-63
						C2434.7,8,2470.5,0,2507.1,0h357.1v350h-60.7v192.4h60.7v350H2507.1z"/>
					<path class="st0" d="M2285,295.6c0-33.6,6.1-65.1,18.4-94.7c12.2-29.6,28.6-55.1,49.1-76.7c20.5-21.6,44.2-38.6,71.1-51.1
						c26.9-12.5,54.7-18.8,83.5-18.8h302.8v106.3h-290c-20.2,0-38.3,4-54.3,12c-16,8-29.4,18.4-40.3,31.2
						c-10.9,12.8-19.3,27.3-25.2,43.5c-5.9,16.3-8.8,32.4-8.8,48.3v301.2c0,16,2.9,32.1,8.8,48.3c5.9,16.3,14.2,30.8,25.2,43.5
						c10.9,12.8,24.4,23.2,40.3,31.2c16,8,34.1,12,54.3,12h290v106.2h-302.8c-28.8,0-56.6-6.3-83.5-18.8
						c-26.9-12.5-50.6-29.6-71.1-51.1c-20.5-21.6-36.9-47.1-49.1-76.7c-12.3-29.6-18.4-61.1-18.4-94.7V295.6z M2420,433V311.6
						c0-13.8,2.3-28.1,6.8-42.7c4.5-14.6,11.3-27.8,20.4-39.5c9-11.7,20.5-21.3,34.4-28.8c13.8-7.5,30.1-11.2,48.7-11.2h279.6v106.2
						h-277.2c-3.2,0-6.5,1.9-10,5.6c-3.5,3.7-5.2,8.8-5.2,15.2v11.2h231.7V433H2420z M2420,459.4h329.1v106.2h-231.7V576
						c0,6.4,1.7,11.5,5.2,15.2c3.5,3.7,6.8,5.6,10,5.6h277.2v106.3h-279.6c-18.6,0-34.9-3.7-48.7-11.2c-13.9-7.5-25.3-17-34.4-28.8
						c-9.1-11.7-15.9-24.9-20.4-39.5c-4.5-14.6-6.8-28.9-6.8-42.7V459.4z"/>
					<path class="st0" d="M3086.3,892.4c-36.6,0-72.4-8-106.4-23.9c-33-15.3-62.4-36.5-87.6-63c-25-26.3-45.2-57.7-59.9-93.3
						c-14.9-36-22.5-74.9-22.5-115.5V0H3163v541.6h15.2v0.8h265.2v350H3086.3z"/>
					<path class="st0" d="M3389,838.1h-302.8c-28.8,0-56.6-6.3-83.5-18.8c-26.9-12.5-50.6-29.6-71.1-51.1
						c-20.5-21.6-36.9-47.1-49.1-76.7c-12.3-29.6-18.4-61.1-18.4-94.7V54.4h106.3v542.4c0,16,2.9,32.1,8.8,48.3
						c5.9,16.3,14.2,30.8,25.2,43.5c10.9,12.8,24.4,23.2,40.3,31.2c16,8,34.1,12,54.3,12h290V838.1z M3123.8,596.8H3389v106.3
						h-279.6c-18.6,0-34.9-3.7-48.7-11.2c-13.9-7.5-25.3-17-34.4-28.8c-9.1-11.7-15.9-24.9-20.4-39.5c-4.5-14.6-6.8-28.9-6.8-42.7
						V54.4h109.4V576c0,6.4,1.7,11.3,5.2,14.8c3.5,3.5,6.8,5.2,10,5.2V596.8z"/>
					<path class="st0" d="M3497.8,892.4V350l-120.7,0V0l185.4,0c36.6,0,72.4,8,106.4,23.8c33,15.4,62.5,36.5,87.6,63
						c25,26.3,45.2,57.7,59.9,93.3c14.9,36,22.5,74.9,22.5,115.5v596.8l-135,0L3497.8,892.4z"/>
				</g>
				<g>
					<g>
						
							<linearGradient id="SVGID_00000041265883666192092000000005803760553317318837_" gradientUnits="userSpaceOnUse" x1="601.7981" y1="54.3813" x2="601.7981" y2="838.0753">
							<stop  offset="0" style="stop-color:#23BFD4"/>
							<stop  offset="0.7031" style="stop-color:#3F4DA0"/>
						</linearGradient>
						<path style="fill:url(#SVGID_00000041265883666192092000000005803760553317318837_);" d="M601.8,487.4l-114.2-306
							c-2.1-5.3-6.7-10.1-13.6-14.4c-6.9-4.3-14.7-6.4-23.2-6.4c-7.5,0-15.2,2.1-23.2,6.4c-8,4.3-12.8,9.1-14.4,14.4L183.2,838.1
							H76.9l246.9-696.6c4.3-11.2,9.8-22,16.8-32.4c6.9-10.4,15.6-19.7,26-28c10.4-8.3,22.5-14.8,36.3-19.6
							c13.8-4.8,29.8-7.2,47.9-7.2c18.1,0,33.8,2.4,47.1,7.2c13.3,4.8,25,11.3,35.2,19.6c10.1,8.3,18.8,17.6,26,28
							c7.2,10.4,13.4,21.2,18.8,32.4l24,47.9l24-47.9c5.9-11.2,12.4-22,19.6-32.4s15.7-19.7,25.6-28c9.8-8.3,21.4-14.8,34.8-19.6
							c13.3-4.8,29-7.2,47.1-7.2c17.6,0,33.4,2.4,47.5,7.2c14.1,4.8,26.4,11.3,36.7,19.6c10.4,8.3,19.2,17.6,26.4,28
							c7.2,10.4,12.6,21.2,16.4,32.4l246.9,696.6h-106.3L790.3,181.4c-1.6-5.3-6.4-10.1-14.4-14.4c-8-4.3-15.7-6.4-23.2-6.4
							c-8.5,0-16.3,2.1-23.2,6.4c-6.9,4.3-11.5,9.1-13.6,14.4L601.8,487.4z M601.8,838.1l-151-402.6L318.2,838.1H211.9l218.9-636.7
							c1.1-3.2,3.7-6,8-8.4c4.3-2.4,8.3-3.6,12-3.6c3.7,0,7.6,1.2,11.6,3.6c4,2.4,6.5,5.2,7.6,8.4l131.8,363.5l131.8-363.5
							c1.1-3.2,3.6-6,7.6-8.4c4-2.4,7.9-3.6,11.6-3.6c3.7,0,7.7,1.2,12,3.6c4.3,2.4,6.9,5.2,8,8.4l218.9,636.7H889.4L752.8,435.4
							L601.8,838.1z"/>
					</g>
					<g>
						
							<linearGradient id="SVGID_00000166669556213079875850000014696837529256609419_" gradientUnits="userSpaceOnUse" x1="1377.4949" y1="54.3813" x2="1377.4949" y2="838.0753">
							<stop  offset="0" style="stop-color:#23BFD4"/>
							<stop  offset="0.7031" style="stop-color:#3F4DA0"/>
						</linearGradient>
						<path style="fill:url(#SVGID_00000166669556213079875850000014696837529256609419_);" d="M1227.3,824.5
							c-27.7-9-50.7-23.3-69.1-42.7c-18.4-19.4-32-44.5-40.7-75.1c-8.8-30.6-13.2-67.2-13.2-109.8V295.6c0-44.2,4.4-81.6,13.2-112.2
							c8.8-30.6,22.4-55.5,40.7-74.7c18.4-19.2,41.4-33,69.1-41.5c27.7-8.5,60.7-12.8,99.1-12.8h102.3c38.9,0,72.3,4.3,100.3,12.8
							c28,8.5,51,22.4,69.1,41.5c18.1,19.2,31.4,44.1,39.9,74.7c8.5,30.6,12.8,68,12.8,112.2v301.2c0,42.6-4.3,79.2-12.8,109.8
							c-8.5,30.6-21.8,55.7-39.9,75.1c-18.1,19.4-41.1,33.7-69.1,42.7c-28,9.1-61.4,13.6-100.3,13.6h-102.3
							C1288,838.1,1255,833.6,1227.3,824.5z M1439.8,731.8c20.2,0,37.3-2.8,51.1-8.4c13.8-5.6,25.2-13.4,34-23.6
							c8.8-10.1,15.2-22.1,19.2-35.9c4-13.8,6-28.8,6-44.7V273.3c0-16-2-30.9-6-44.7c-4-13.8-10.4-25.8-19.2-35.9
							c-8.8-10.1-20.2-18-34.4-23.6c-14.1-5.6-31.3-8.4-51.5-8.4h-123c-20.2,0-37.4,2.8-51.5,8.4c-14.1,5.6-25.6,13.5-34.4,23.6
							c-8.8,10.1-15.2,22.1-19.2,35.9c-4,13.9-6,28.8-6,44.7v345.9c0,16,2,30.9,6,44.7c4,13.9,10.4,25.8,19.2,35.9
							c8.8,10.1,20.1,18,34,23.6c13.8,5.6,30.9,8.4,51.1,8.4h62.3H1439.8z M1325.6,703.1c-18.6,0-34-1.7-45.9-5.2
							c-12-3.5-21.3-9.2-28-17.2c-6.7-8-11.3-18.2-14-30.8c-2.7-12.5-4-28.1-4-46.7v-314c0-13.8,1.3-26.9,4-39.1
							c2.7-12.2,7.5-22.9,14.4-32c6.9-9,16.4-16.1,28.4-21.2c12-5.1,27.3-7.6,45.9-7.6h51.1h51.1c18.6,0,34,2.5,45.9,7.6
							c12,5.1,21.4,12.1,28.4,21.2c6.9,9.1,11.7,19.7,14.4,32c2.7,12.3,4,25.3,4,39.1v314c0,18.6-1.3,34.2-4,46.7
							c-2.7,12.5-7.3,22.8-14,30.8c-6.7,8-16,13.7-28,17.2c-12,3.5-27.3,5.2-45.9,5.2H1325.6z M1403.1,596.8
							c6.4,0,10.5-1.9,12.4-5.6c1.9-3.7,2.8-8.8,2.8-15.2V316.4c0-6.4-0.9-11.4-2.8-15.2c-1.9-3.7-6-5.6-12.4-5.6h-51.1
							c-6.4,0-10.5,1.9-12.4,5.6c-1.9,3.7-2.8,8.8-2.8,15.2V576c0,6.4,0.9,11.5,2.8,15.2c1.9,3.7,6,5.6,12.4,5.6H1403.1z"/>
					</g>
					<g>
						
							<linearGradient id="SVGID_00000104704989263736528660000015898103393729311894_" gradientUnits="userSpaceOnUse" x1="1969.8491" y1="54.3813" x2="1969.8491" y2="838.0753">
							<stop  offset="0" style="stop-color:#23BFD4"/>
							<stop  offset="0.7031" style="stop-color:#3F4DA0"/>
						</linearGradient>
						<path style="fill:url(#SVGID_00000104704989263736528660000015898103393729311894_);" d="M2074.9,723.4
							c13.8-5.6,25.2-13.4,34-23.6c8.8-10.1,15.2-22.1,19.2-35.9c4-13.8,6-28.8,6-44.7V273.3c0-16-2-30.9-6-44.7
							c-4-13.8-10.4-25.8-19.2-35.9c-8.8-10.1-20.2-18-34.3-23.6c-14.1-5.6-31.3-8.4-51.5-8.4h-318V54.4h307.6
							c38.9,0,72.3,4.3,100.3,12.8c28,8.5,51,22.4,69.1,41.5c18.1,19.2,31.4,44.1,39.9,74.7c8.5,30.6,12.8,68,12.8,112.2v301.2
							c0,42.6-4.3,79.2-12.8,109.8c-8.5,30.6-21.8,55.7-39.9,75.1c-18.1,19.4-41.1,33.7-69.1,42.7c-28,9.1-61.4,13.6-100.3,13.6
							H1705V321.2h100.7v410.6h218.1C2044,731.8,2061,729,2074.9,723.4z M1705,295.6V189.4h307.6c18.6,0,34,2.5,45.9,7.6
							c12,5.1,21.4,12.1,28.4,21.2c6.9,9.1,11.7,19.7,14.4,32c2.7,12.3,4,25.3,4,39.1v314c0,18.6-1.3,34.2-4,46.7
							c-2.7,12.5-7.3,22.8-14,30.8c-6.7,8-16,13.7-28,17.2c-12,3.5-27.3,5.2-45.9,5.2h-178.9V321.2h111.8V576
							c0,13.9,6.7,20.8,20,20.8h17.6c6.4,0,11.6-1.9,15.6-5.6c4-3.7,6-8.8,6-15.2V316.4c0-6.4-2-11.4-6-15.2
							c-4-3.7-9.2-5.6-15.6-5.6H1705z"/>
					</g>
					<g>
						
							<linearGradient id="SVGID_00000172412707112229182490000006240719708842647460_" gradientUnits="userSpaceOnUse" x1="2547.4253" y1="54.3813" x2="2547.4253" y2="838.0753">
							<stop  offset="0" style="stop-color:#23BFD4"/>
							<stop  offset="0.7031" style="stop-color:#3F4DA0"/>
						</linearGradient>
						<path style="fill:url(#SVGID_00000172412707112229182490000006240719708842647460_);" d="M2285,295.6
							c0-33.6,6.1-65.1,18.4-94.7c12.2-29.6,28.6-55.1,49.1-76.7c20.5-21.6,44.2-38.6,71.1-51.1c26.9-12.5,54.7-18.8,83.5-18.8
							h302.8v106.3h-290c-20.2,0-38.3,4-54.3,12c-16,8-29.4,18.4-40.3,31.2c-10.9,12.8-19.3,27.3-25.2,43.5
							c-5.9,16.3-8.8,32.4-8.8,48.3v301.2c0,16,2.9,32.1,8.8,48.3c5.9,16.3,14.2,30.8,25.2,43.5c10.9,12.8,24.4,23.2,40.3,31.2
							c16,8,34.1,12,54.3,12h290v106.2h-302.8c-28.8,0-56.6-6.3-83.5-18.8c-26.9-12.5-50.6-29.6-71.1-51.1
							c-20.5-21.6-36.9-47.1-49.1-76.7c-12.3-29.6-18.4-61.1-18.4-94.7V295.6z M2420,433V311.6c0-13.8,2.3-28.1,6.8-42.7
							c4.5-14.6,11.3-27.8,20.4-39.5c9-11.7,20.5-21.3,34.4-28.8c13.8-7.5,30.1-11.2,48.7-11.2h279.6v106.2h-277.2
							c-3.2,0-6.5,1.9-10,5.6c-3.5,3.7-5.2,8.8-5.2,15.2v11.2h231.7V433H2420z M2420,459.4h329.1v106.2h-231.7V576
							c0,6.4,1.7,11.5,5.2,15.2c3.5,3.7,6.8,5.6,10,5.6h277.2v106.3h-279.6c-18.6,0-34.9-3.7-48.7-11.2c-13.9-7.5-25.3-17-34.4-28.8
							c-9.1-11.7-15.9-24.9-20.4-39.5c-4.5-14.6-6.8-28.9-6.8-42.7V459.4z"/>
					</g>
					<g>
						
							<linearGradient id="SVGID_00000052083778243676679490000014304241058936513668_" gradientUnits="userSpaceOnUse" x1="3126.6047" y1="54.3813" x2="3126.6047" y2="838.0753">
							<stop  offset="0" style="stop-color:#23BFD4"/>
							<stop  offset="0.7031" style="stop-color:#3F4DA0"/>
						</linearGradient>
						<path style="fill:url(#SVGID_00000052083778243676679490000014304241058936513668_);" d="M3389,838.1h-302.8
							c-28.8,0-56.6-6.3-83.5-18.8c-26.9-12.5-50.6-29.6-71.1-51.1c-20.5-21.6-36.9-47.1-49.1-76.7c-12.3-29.6-18.4-61.1-18.4-94.7
							V54.4h106.3v542.4c0,16,2.9,32.1,8.8,48.3c5.9,16.3,14.2,30.8,25.2,43.5c10.9,12.8,24.4,23.2,40.3,31.2c16,8,34.1,12,54.3,12
							h290V838.1z M3123.8,596.8H3389v106.3h-279.6c-18.6,0-34.9-3.7-48.7-11.2c-13.9-7.5-25.3-17-34.4-28.8
							c-9.1-11.7-15.9-24.9-20.4-39.5c-4.5-14.6-6.8-28.9-6.8-42.7V54.4h109.4V576c0,6.4,1.7,11.3,5.2,14.8c3.5,3.5,6.8,5.2,10,5.2
							V596.8z"/>
					</g>
					
						<linearGradient id="SVGID_00000000211064387294661950000001425241174653846926_" gradientUnits="userSpaceOnUse" x1="3608.0649" y1="838.0753" x2="3608.0649" y2="54.3722">
						<stop  offset="0" style="stop-color:#1C639E"/>
						<stop  offset="1" style="stop-color:#26B3CF"/>
					</linearGradient>
					<path style="fill:url(#SVGID_00000000211064387294661950000001425241174653846926_);" d="M3784.6,838.1h-106.3V295.7
						c0-16-2.9-32.1-8.8-48.3c-5.9-16.2-14.2-30.8-25.2-43.5c-10.9-12.8-24.4-23.2-40.3-31.2c-16-8-34.1-12-54.3-12l-118.3,0V54.4
						l131.1,0c28.8,0,56.6,6.3,83.5,18.8c26.9,12.5,50.6,29.6,71.1,51.1c20.5,21.6,36.9,47.1,49.1,76.7
						c12.3,29.6,18.4,61.1,18.4,94.7V838.1z M3552.2,576.1V316.4c0-6.4-1.7-11.4-5.2-15.2c-3.5-3.7-6.8-5.6-10-5.6l-105.5,0V189.4
						l107.9,0c18.6,0,34.9,3.7,48.7,11.2c13.9,7.5,25.3,17.1,34.4,28.8c9.1,11.7,15.9,24.9,20.4,39.5c4.5,14.7,6.8,28.9,6.8,42.7
						v235.6 M3649.6,499.1v339l-97.5,0V565.7"/>
				</g>
				<g>
					<g>
						<g class="st16">
							
								<linearGradient id="SVGID_00000037676726167034047230000010074481589894619522_" gradientUnits="userSpaceOnUse" x1="601.7981" y1="54.3813" x2="601.7981" y2="838.0753">
								<stop  offset="0" style="stop-color:#0094BF"/>
								<stop  offset="2.865892e-02" style="stop-color:#0090BD;stop-opacity:0.5"/>
								<stop  offset="1" style="stop-color:#282A71"/>
							</linearGradient>
							<path style="display:inline;fill:url(#SVGID_00000037676726167034047230000010074481589894619522_);" d="M601.8,487.4
								l-114.2-306c-2.1-5.3-6.7-10.1-13.6-14.4c-6.9-4.3-14.7-6.4-23.2-6.4c-7.5,0-15.2,2.1-23.2,6.4c-8,4.3-12.8,9.1-14.4,14.4
								L183.2,838.1H76.9l246.9-696.6c4.3-11.2,9.8-22,16.8-32.4c6.9-10.4,15.6-19.7,26-28c10.4-8.3,22.5-14.8,36.3-19.6
								c13.8-4.8,29.8-7.2,47.9-7.2c18.1,0,33.8,2.4,47.1,7.2c13.3,4.8,25,11.3,35.2,19.6c10.1,8.3,18.8,17.6,26,28
								c7.2,10.4,13.4,21.2,18.8,32.4l24,47.9l24-47.9c5.9-11.2,12.4-22,19.6-32.4s15.7-19.7,25.6-28c9.8-8.3,21.4-14.8,34.8-19.6
								c13.3-4.8,29-7.2,47.1-7.2c17.6,0,33.4,2.4,47.5,7.2c14.1,4.8,26.4,11.3,36.7,19.6c10.4,8.3,19.2,17.6,26.4,28
								c7.2,10.4,12.6,21.2,16.4,32.4l246.9,696.6h-106.3L790.3,181.4c-1.6-5.3-6.4-10.1-14.4-14.4c-8-4.3-15.7-6.4-23.2-6.4
								c-8.5,0-16.3,2.1-23.2,6.4c-6.9,4.3-11.5,9.1-13.6,14.4L601.8,487.4z M601.8,838.1l-151-402.6L318.2,838.1H211.9l218.9-636.7
								c1.1-3.2,3.7-6,8-8.4c4.3-2.4,8.3-3.6,12-3.6c3.7,0,7.6,1.2,11.6,3.6c4,2.4,6.5,5.2,7.6,8.4l131.8,363.5l131.8-363.5
								c1.1-3.2,3.6-6,7.6-8.4c4-2.4,7.9-3.6,11.6-3.6c3.7,0,7.7,1.2,12,3.6c4.3,2.4,6.9,5.2,8,8.4l218.9,636.7H889.4L752.8,435.4
								L601.8,838.1z"/>
							
								<linearGradient id="SVGID_00000042011765104249959700000005627359673352710557_" gradientUnits="userSpaceOnUse" x1="1377.4949" y1="54.3813" x2="1377.4949" y2="838.0753">
								<stop  offset="0" style="stop-color:#0094BF"/>
								<stop  offset="2.865892e-02" style="stop-color:#0090BD;stop-opacity:0.5"/>
								<stop  offset="1" style="stop-color:#282A71"/>
							</linearGradient>
							<path style="display:inline;fill:url(#SVGID_00000042011765104249959700000005627359673352710557_);" d="M1227.3,824.5
								c-27.7-9-50.7-23.3-69.1-42.7c-18.4-19.4-32-44.5-40.7-75.1c-8.8-30.6-13.2-67.2-13.2-109.8V295.6
								c0-44.2,4.4-81.6,13.2-112.2c8.8-30.6,22.4-55.5,40.7-74.7c18.4-19.2,41.4-33,69.1-41.5c27.7-8.5,60.7-12.8,99.1-12.8h102.3
								c38.9,0,72.3,4.3,100.3,12.8c28,8.5,51,22.4,69.1,41.5c18.1,19.2,31.4,44.1,39.9,74.7c8.5,30.6,12.8,68,12.8,112.2v301.2
								c0,42.6-4.3,79.2-12.8,109.8c-8.5,30.6-21.8,55.7-39.9,75.1c-18.1,19.4-41.1,33.7-69.1,42.7c-28,9.1-61.4,13.6-100.3,13.6
								h-102.3C1288,838.1,1255,833.6,1227.3,824.5z M1439.8,731.8c20.2,0,37.3-2.8,51.1-8.4c13.8-5.6,25.2-13.4,34-23.6
								c8.8-10.1,15.2-22.1,19.2-35.9c4-13.8,6-28.8,6-44.7V273.3c0-16-2-30.9-6-44.7c-4-13.8-10.4-25.8-19.2-35.9
								c-8.8-10.1-20.2-18-34.4-23.6c-14.1-5.6-31.3-8.4-51.5-8.4h-123c-20.2,0-37.4,2.8-51.5,8.4c-14.1,5.6-25.6,13.5-34.4,23.6
								c-8.8,10.1-15.2,22.1-19.2,35.9c-4,13.9-6,28.8-6,44.7v345.9c0,16,2,30.9,6,44.7c4,13.9,10.4,25.8,19.2,35.9
								c8.8,10.1,20.1,18,34,23.6c13.8,5.6,30.9,8.4,51.1,8.4h62.3H1439.8z M1325.6,703.1c-18.6,0-34-1.7-45.9-5.2
								c-12-3.5-21.3-9.2-28-17.2c-6.7-8-11.3-18.2-14-30.8c-2.7-12.5-4-28.1-4-46.7v-314c0-13.8,1.3-26.9,4-39.1
								c2.7-12.2,7.5-22.9,14.4-32c6.9-9,16.4-16.1,28.4-21.2c12-5.1,27.3-7.6,45.9-7.6h51.1h51.1c18.6,0,34,2.5,45.9,7.6
								c12,5.1,21.4,12.1,28.4,21.2c6.9,9.1,11.7,19.7,14.4,32c2.7,12.3,4,25.3,4,39.1v314c0,18.6-1.3,34.2-4,46.7
								c-2.7,12.5-7.3,22.8-14,30.8c-6.7,8-16,13.7-28,17.2c-12,3.5-27.3,5.2-45.9,5.2H1325.6z M1403.1,596.8
								c6.4,0,10.5-1.9,12.4-5.6c1.9-3.7,2.8-8.8,2.8-15.2V316.4c0-6.4-0.9-11.4-2.8-15.2c-1.9-3.7-6-5.6-12.4-5.6h-51.1
								c-6.4,0-10.5,1.9-12.4,5.6c-1.9,3.7-2.8,8.8-2.8,15.2V576c0,6.4,0.9,11.5,2.8,15.2c1.9,3.7,6,5.6,12.4,5.6H1403.1z"/>
							
								<linearGradient id="SVGID_00000091716235644072951970000003230980174105300102_" gradientUnits="userSpaceOnUse" x1="1969.8491" y1="54.3813" x2="1969.8491" y2="838.0753">
								<stop  offset="0" style="stop-color:#0094BF"/>
								<stop  offset="2.865892e-02" style="stop-color:#0090BD;stop-opacity:0.5"/>
								<stop  offset="1" style="stop-color:#282A71"/>
							</linearGradient>
							<path style="display:inline;fill:url(#SVGID_00000091716235644072951970000003230980174105300102_);" d="M2074.9,723.4
								c13.8-5.6,25.2-13.4,34-23.6c8.8-10.1,15.2-22.1,19.2-35.9c4-13.8,6-28.8,6-44.7V273.3c0-16-2-30.9-6-44.7
								c-4-13.8-10.4-25.8-19.2-35.9c-8.8-10.1-20.2-18-34.3-23.6c-14.1-5.6-31.3-8.4-51.5-8.4h-318V54.4h307.6
								c38.9,0,72.3,4.3,100.3,12.8c28,8.5,51,22.4,69.1,41.5c18.1,19.2,31.4,44.1,39.9,74.7c8.5,30.6,12.8,68,12.8,112.2v301.2
								c0,42.6-4.3,79.2-12.8,109.8c-8.5,30.6-21.8,55.7-39.9,75.1c-18.1,19.4-41.1,33.7-69.1,42.7c-28,9.1-61.4,13.6-100.3,13.6
								H1705V321.2h100.7v410.6h218.1C2044,731.8,2061,729,2074.9,723.4z M1705,295.6V189.4h307.6c18.6,0,34,2.5,45.9,7.6
								c12,5.1,21.4,12.1,28.4,21.2c6.9,9.1,11.7,19.7,14.4,32c2.7,12.3,4,25.3,4,39.1v314c0,18.6-1.3,34.2-4,46.7
								c-2.7,12.5-7.3,22.8-14,30.8c-6.7,8-16,13.7-28,17.2c-12,3.5-27.3,5.2-45.9,5.2h-178.9V321.2h111.8V576
								c0,13.9,6.7,20.8,20,20.8h17.6c6.4,0,11.6-1.9,15.6-5.6c4-3.7,6-8.8,6-15.2V316.4c0-6.4-2-11.4-6-15.2
								c-4-3.7-9.2-5.6-15.6-5.6H1705z"/>
							
								<linearGradient id="SVGID_00000123400487396504778930000006509443258089200021_" gradientUnits="userSpaceOnUse" x1="2547.4253" y1="54.3813" x2="2547.4253" y2="838.0753">
								<stop  offset="0" style="stop-color:#0094BF"/>
								<stop  offset="2.865892e-02" style="stop-color:#0090BD;stop-opacity:0.5"/>
								<stop  offset="1" style="stop-color:#282A71"/>
							</linearGradient>
							<path style="display:inline;fill:url(#SVGID_00000123400487396504778930000006509443258089200021_);" d="M2285,295.6
								c0-33.6,6.1-65.1,18.4-94.7c12.2-29.6,28.6-55.1,49.1-76.7c20.5-21.6,44.2-38.6,71.1-51.1c26.9-12.5,54.7-18.8,83.5-18.8
								h302.8v106.3h-290c-20.2,0-38.3,4-54.3,12c-16,8-29.4,18.4-40.3,31.2c-10.9,12.8-19.3,27.3-25.2,43.5
								c-5.9,16.3-8.8,32.4-8.8,48.3v301.2c0,16,2.9,32.1,8.8,48.3c5.9,16.3,14.2,30.8,25.2,43.5c10.9,12.8,24.4,23.2,40.3,31.2
								c16,8,34.1,12,54.3,12h290v106.2h-302.8c-28.8,0-56.6-6.3-83.5-18.8c-26.9-12.5-50.6-29.6-71.1-51.1
								c-20.5-21.6-36.9-47.1-49.1-76.7c-12.3-29.6-18.4-61.1-18.4-94.7V295.6z M2420,433V311.6c0-13.8,2.3-28.1,6.8-42.7
								c4.5-14.6,11.3-27.8,20.4-39.5c9-11.7,20.5-21.3,34.4-28.8c13.8-7.5,30.1-11.2,48.7-11.2h279.6v106.2h-277.2
								c-3.2,0-6.5,1.9-10,5.6c-3.5,3.7-5.2,8.8-5.2,15.2v11.2h231.7V433H2420z M2420,459.4h329.1v106.2h-231.7V576
								c0,6.4,1.7,11.5,5.2,15.2c3.5,3.7,6.8,5.6,10,5.6h277.2v106.3h-279.6c-18.6,0-34.9-3.7-48.7-11.2
								c-13.9-7.5-25.3-17-34.4-28.8c-9.1-11.7-15.9-24.9-20.4-39.5c-4.5-14.6-6.8-28.9-6.8-42.7V459.4z"/>
							
								<linearGradient id="SVGID_00000131345135149489241450000017244465882359725757_" gradientUnits="userSpaceOnUse" x1="3126.6047" y1="54.3813" x2="3126.6047" y2="838.0753">
								<stop  offset="0" style="stop-color:#0094BF"/>
								<stop  offset="2.865892e-02" style="stop-color:#0090BD;stop-opacity:0.5"/>
								<stop  offset="1" style="stop-color:#282A71"/>
							</linearGradient>
							<path style="display:inline;fill:url(#SVGID_00000131345135149489241450000017244465882359725757_);" d="M3389,838.1h-302.8
								c-28.8,0-56.6-6.3-83.5-18.8c-26.9-12.5-50.6-29.6-71.1-51.1c-20.5-21.6-36.9-47.1-49.1-76.7c-12.3-29.6-18.4-61.1-18.4-94.7
								V54.4h106.3v542.4c0,16,2.9,32.1,8.8,48.3c5.9,16.3,14.2,30.8,25.2,43.5c10.9,12.8,24.4,23.2,40.3,31.2c16,8,34.1,12,54.3,12
								h290V838.1z M3123.8,596.8H3389v106.3h-279.6c-18.6,0-34.9-3.7-48.7-11.2c-13.9-7.5-25.3-17-34.4-28.8
								c-9.1-11.7-15.9-24.9-20.4-39.5c-4.5-14.6-6.8-28.9-6.8-42.7V54.4h109.4V576c0,6.4,1.7,11.3,5.2,14.8c3.5,3.5,6.8,5.2,10,5.2
								V596.8z"/>
						</g>
						<g>
							
								<linearGradient id="SVGID_00000156572546261552793900000010179376684103058600_" gradientUnits="userSpaceOnUse" x1="601.7981" y1="54.3813" x2="601.7981" y2="838.0753">
								<stop  offset="0" style="stop-color:#0094BF"/>
								<stop  offset="2.865892e-02" style="stop-color:#0090BD;stop-opacity:0.5"/>
								<stop  offset="1" style="stop-color:#282A71"/>
							</linearGradient>
							<path style="fill:url(#SVGID_00000156572546261552793900000010179376684103058600_);" d="M601.8,487.4l-114.2-306
								c-2.1-5.3-6.7-10.1-13.6-14.4c-6.9-4.3-14.7-6.4-23.2-6.4c-7.5,0-15.2,2.1-23.2,6.4c-8,4.3-12.8,9.1-14.4,14.4L183.2,838.1
								H76.9l246.9-696.6c4.3-11.2,9.8-22,16.8-32.4c6.9-10.4,15.6-19.7,26-28c10.4-8.3,22.5-14.8,36.3-19.6
								c13.8-4.8,29.8-7.2,47.9-7.2c18.1,0,33.8,2.4,47.1,7.2c13.3,4.8,25,11.3,35.2,19.6c10.1,8.3,18.8,17.6,26,28
								c7.2,10.4,13.4,21.2,18.8,32.4l24,47.9l24-47.9c5.9-11.2,12.4-22,19.6-32.4s15.7-19.7,25.6-28c9.8-8.3,21.4-14.8,34.8-19.6
								c13.3-4.8,29-7.2,47.1-7.2c17.6,0,33.4,2.4,47.5,7.2c14.1,4.8,26.4,11.3,36.7,19.6c10.4,8.3,19.2,17.6,26.4,28
								c7.2,10.4,12.6,21.2,16.4,32.4l246.9,696.6h-106.3L790.3,181.4c-1.6-5.3-6.4-10.1-14.4-14.4c-8-4.3-15.7-6.4-23.2-6.4
								c-8.5,0-16.3,2.1-23.2,6.4c-6.9,4.3-11.5,9.1-13.6,14.4L601.8,487.4z M601.8,838.1l-151-402.6L318.2,838.1H211.9l218.9-636.7
								c1.1-3.2,3.7-6,8-8.4c4.3-2.4,8.3-3.6,12-3.6c3.7,0,7.6,1.2,11.6,3.6c4,2.4,6.5,5.2,7.6,8.4l131.8,363.5l131.8-363.5
								c1.1-3.2,3.6-6,7.6-8.4c4-2.4,7.9-3.6,11.6-3.6c3.7,0,7.7,1.2,12,3.6c4.3,2.4,6.9,5.2,8,8.4l218.9,636.7H889.4L752.8,435.4
								L601.8,838.1z"/>
							
								<linearGradient id="SVGID_00000096762346549788426060000005913327903867599267_" gradientUnits="userSpaceOnUse" x1="1377.4949" y1="54.3813" x2="1377.4949" y2="838.0753">
								<stop  offset="0" style="stop-color:#0094BF"/>
								<stop  offset="2.865892e-02" style="stop-color:#0090BD;stop-opacity:0.5"/>
								<stop  offset="1" style="stop-color:#282A71"/>
							</linearGradient>
							<path style="fill:url(#SVGID_00000096762346549788426060000005913327903867599267_);" d="M1227.3,824.5
								c-27.7-9-50.7-23.3-69.1-42.7c-18.4-19.4-32-44.5-40.7-75.1c-8.8-30.6-13.2-67.2-13.2-109.8V295.6
								c0-44.2,4.4-81.6,13.2-112.2c8.8-30.6,22.4-55.5,40.7-74.7c18.4-19.2,41.4-33,69.1-41.5c27.7-8.5,60.7-12.8,99.1-12.8h102.3
								c38.9,0,72.3,4.3,100.3,12.8c28,8.5,51,22.4,69.1,41.5c18.1,19.2,31.4,44.1,39.9,74.7c8.5,30.6,12.8,68,12.8,112.2v301.2
								c0,42.6-4.3,79.2-12.8,109.8c-8.5,30.6-21.8,55.7-39.9,75.1c-18.1,19.4-41.1,33.7-69.1,42.7c-28,9.1-61.4,13.6-100.3,13.6
								h-102.3C1288,838.1,1255,833.6,1227.3,824.5z M1439.8,731.8c20.2,0,37.3-2.8,51.1-8.4c13.8-5.6,25.2-13.4,34-23.6
								c8.8-10.1,15.2-22.1,19.2-35.9c4-13.8,6-28.8,6-44.7V273.3c0-16-2-30.9-6-44.7c-4-13.8-10.4-25.8-19.2-35.9
								c-8.8-10.1-20.2-18-34.4-23.6c-14.1-5.6-31.3-8.4-51.5-8.4h-123c-20.2,0-37.4,2.8-51.5,8.4c-14.1,5.6-25.6,13.5-34.4,23.6
								c-8.8,10.1-15.2,22.1-19.2,35.9c-4,13.9-6,28.8-6,44.7v345.9c0,16,2,30.9,6,44.7c4,13.9,10.4,25.8,19.2,35.9
								c8.8,10.1,20.1,18,34,23.6c13.8,5.6,30.9,8.4,51.1,8.4h62.3H1439.8z M1325.6,703.1c-18.6,0-34-1.7-45.9-5.2
								c-12-3.5-21.3-9.2-28-17.2c-6.7-8-11.3-18.2-14-30.8c-2.7-12.5-4-28.1-4-46.7v-314c0-13.8,1.3-26.9,4-39.1
								c2.7-12.2,7.5-22.9,14.4-32c6.9-9,16.4-16.1,28.4-21.2c12-5.1,27.3-7.6,45.9-7.6h51.1h51.1c18.6,0,34,2.5,45.9,7.6
								c12,5.1,21.4,12.1,28.4,21.2c6.9,9.1,11.7,19.7,14.4,32c2.7,12.3,4,25.3,4,39.1v314c0,18.6-1.3,34.2-4,46.7
								c-2.7,12.5-7.3,22.8-14,30.8c-6.7,8-16,13.7-28,17.2c-12,3.5-27.3,5.2-45.9,5.2H1325.6z M1403.1,596.8
								c6.4,0,10.5-1.9,12.4-5.6c1.9-3.7,2.8-8.8,2.8-15.2V316.4c0-6.4-0.9-11.4-2.8-15.2c-1.9-3.7-6-5.6-12.4-5.6h-51.1
								c-6.4,0-10.5,1.9-12.4,5.6c-1.9,3.7-2.8,8.8-2.8,15.2V576c0,6.4,0.9,11.5,2.8,15.2c1.9,3.7,6,5.6,12.4,5.6H1403.1z"/>
							
								<linearGradient id="SVGID_00000116219723691514110640000007055755068196697779_" gradientUnits="userSpaceOnUse" x1="1969.8491" y1="54.3813" x2="1969.8491" y2="838.0753">
								<stop  offset="0" style="stop-color:#0094BF"/>
								<stop  offset="2.865892e-02" style="stop-color:#0090BD;stop-opacity:0.5"/>
								<stop  offset="1" style="stop-color:#282A71"/>
							</linearGradient>
							<path style="fill:url(#SVGID_00000116219723691514110640000007055755068196697779_);" d="M2074.9,723.4
								c13.8-5.6,25.2-13.4,34-23.6c8.8-10.1,15.2-22.1,19.2-35.9c4-13.8,6-28.8,6-44.7V273.3c0-16-2-30.9-6-44.7
								c-4-13.8-10.4-25.8-19.2-35.9c-8.8-10.1-20.2-18-34.3-23.6c-14.1-5.6-31.3-8.4-51.5-8.4h-318V54.4h307.6
								c38.9,0,72.3,4.3,100.3,12.8c28,8.5,51,22.4,69.1,41.5c18.1,19.2,31.4,44.1,39.9,74.7c8.5,30.6,12.8,68,12.8,112.2v301.2
								c0,42.6-4.3,79.2-12.8,109.8c-8.5,30.6-21.8,55.7-39.9,75.1c-18.1,19.4-41.1,33.7-69.1,42.7c-28,9.1-61.4,13.6-100.3,13.6
								H1705V321.2h100.7v410.6h218.1C2044,731.8,2061,729,2074.9,723.4z M1705,295.6V189.4h307.6c18.6,0,34,2.5,45.9,7.6
								c12,5.1,21.4,12.1,28.4,21.2c6.9,9.1,11.7,19.7,14.4,32c2.7,12.3,4,25.3,4,39.1v314c0,18.6-1.3,34.2-4,46.7
								c-2.7,12.5-7.3,22.8-14,30.8c-6.7,8-16,13.7-28,17.2c-12,3.5-27.3,5.2-45.9,5.2h-178.9V321.2h111.8V576
								c0,13.9,6.7,20.8,20,20.8h17.6c6.4,0,11.6-1.9,15.6-5.6c4-3.7,6-8.8,6-15.2V316.4c0-6.4-2-11.4-6-15.2
								c-4-3.7-9.2-5.6-15.6-5.6H1705z"/>
							
								<linearGradient id="SVGID_00000023970936965118867080000001890929748202138036_" gradientUnits="userSpaceOnUse" x1="2547.4253" y1="54.3813" x2="2547.4253" y2="838.0753">
								<stop  offset="0" style="stop-color:#0094BF"/>
								<stop  offset="2.865892e-02" style="stop-color:#0090BD;stop-opacity:0.5"/>
								<stop  offset="1" style="stop-color:#282A71"/>
							</linearGradient>
							<path style="fill:url(#SVGID_00000023970936965118867080000001890929748202138036_);" d="M2285,295.6
								c0-33.6,6.1-65.1,18.4-94.7c12.2-29.6,28.6-55.1,49.1-76.7c20.5-21.6,44.2-38.6,71.1-51.1c26.9-12.5,54.7-18.8,83.5-18.8
								h302.8v106.3h-290c-20.2,0-38.3,4-54.3,12c-16,8-29.4,18.4-40.3,31.2c-10.9,12.8-19.3,27.3-25.2,43.5
								c-5.9,16.3-8.8,32.4-8.8,48.3v301.2c0,16,2.9,32.1,8.8,48.3c5.9,16.3,14.2,30.8,25.2,43.5c10.9,12.8,24.4,23.2,40.3,31.2
								c16,8,34.1,12,54.3,12h290v106.2h-302.8c-28.8,0-56.6-6.3-83.5-18.8c-26.9-12.5-50.6-29.6-71.1-51.1
								c-20.5-21.6-36.9-47.1-49.1-76.7c-12.3-29.6-18.4-61.1-18.4-94.7V295.6z M2420,433V311.6c0-13.8,2.3-28.1,6.8-42.7
								c4.5-14.6,11.3-27.8,20.4-39.5c9-11.7,20.5-21.3,34.4-28.8c13.8-7.5,30.1-11.2,48.7-11.2h279.6v106.2h-277.2
								c-3.2,0-6.5,1.9-10,5.6c-3.5,3.7-5.2,8.8-5.2,15.2v11.2h231.7V433H2420z M2420,459.4h329.1v106.2h-231.7V576
								c0,6.4,1.7,11.5,5.2,15.2c3.5,3.7,6.8,5.6,10,5.6h277.2v106.3h-279.6c-18.6,0-34.9-3.7-48.7-11.2
								c-13.9-7.5-25.3-17-34.4-28.8c-9.1-11.7-15.9-24.9-20.4-39.5c-4.5-14.6-6.8-28.9-6.8-42.7V459.4z"/>
							
								<linearGradient id="SVGID_00000004526319194574613440000014448456326317085852_" gradientUnits="userSpaceOnUse" x1="3126.6047" y1="54.3813" x2="3126.6047" y2="838.0753">
								<stop  offset="0" style="stop-color:#0094BF"/>
								<stop  offset="2.865892e-02" style="stop-color:#0090BD;stop-opacity:0.5"/>
								<stop  offset="1" style="stop-color:#282A71"/>
							</linearGradient>
							<path style="fill:url(#SVGID_00000004526319194574613440000014448456326317085852_);" d="M3389,838.1h-302.8
								c-28.8,0-56.6-6.3-83.5-18.8c-26.9-12.5-50.6-29.6-71.1-51.1c-20.5-21.6-36.9-47.1-49.1-76.7c-12.3-29.6-18.4-61.1-18.4-94.7
								V54.4h106.3v542.4c0,16,2.9,32.1,8.8,48.3c5.9,16.3,14.2,30.8,25.2,43.5c10.9,12.8,24.4,23.2,40.3,31.2c16,8,34.1,12,54.3,12
								h290V838.1z M3123.8,596.8H3389v106.3h-279.6c-18.6,0-34.9-3.7-48.7-11.2c-13.9-7.5-25.3-17-34.4-28.8
								c-9.1-11.7-15.9-24.9-20.4-39.5c-4.5-14.6-6.8-28.9-6.8-42.7V54.4h109.4V576c0,6.4,1.7,11.3,5.2,14.8c3.5,3.5,6.8,5.2,10,5.2
								V596.8z"/>
							
								<linearGradient id="SVGID_00000099646513419854785110000006398783305093947067_" gradientUnits="userSpaceOnUse" x1="3608.0649" y1="54.3722" x2="3608.0649" y2="838.0753">
								<stop  offset="0" style="stop-color:#0094BF"/>
								<stop  offset="2.865892e-02" style="stop-color:#0090BD;stop-opacity:0.5"/>
								<stop  offset="1" style="stop-color:#282A71"/>
							</linearGradient>
							<path style="fill:url(#SVGID_00000099646513419854785110000006398783305093947067_);" d="M3784.6,838.1h-106.3V295.7
								c0-16-2.9-32.1-8.8-48.3c-5.9-16.2-14.2-30.8-25.2-43.5c-10.9-12.8-24.4-23.2-40.3-31.2c-16-8-34.1-12-54.3-12l-118.3,0V54.4
								l131.1,0c28.8,0,56.6,6.3,83.5,18.8c26.9,12.5,50.6,29.6,71.1,51.1c20.5,21.6,36.9,47.1,49.1,76.7
								c12.3,29.6,18.4,61.1,18.4,94.7V838.1z M3552.2,576.1V316.4c0-6.4-1.7-11.4-5.2-15.2c-3.5-3.7-6.8-5.6-10-5.6l-105.5,0V189.4
								l107.9,0c18.6,0,34.9,3.7,48.7,11.2c13.9,7.5,25.3,17.1,34.4,28.8c9.1,11.7,15.9,24.9,20.4,39.5c4.5,14.7,6.8,28.9,6.8,42.7
								v235.6 M3649.6,499.1v339l-97.5,0V565.7"/>
						</g>
					</g>
				</g>
				<g>
					<g>
						<path class="st69" d="M601.8,487.4l-114.2-306c-2.1-5.3-6.7-10.1-13.6-14.4c-6.9-4.3-14.7-6.4-23.2-6.4
							c-7.5,0-15.2,2.1-23.2,6.4c-8,4.3-12.8,9.1-14.4,14.4L183.2,838.1H76.9l246.9-696.6c4.3-11.2,9.8-22,16.8-32.4
							c6.9-10.4,15.6-19.7,26-28c10.4-8.3,22.5-14.8,36.3-19.6c13.8-4.8,29.8-7.2,47.9-7.2c18.1,0,33.8,2.4,47.1,7.2
							c13.3,4.8,25,11.3,35.2,19.6c10.1,8.3,18.8,17.6,26,28c7.2,10.4,13.4,21.2,18.8,32.4l24,47.9l24-47.9
							c5.9-11.2,12.4-22,19.6-32.4s15.7-19.7,25.6-28c9.8-8.3,21.4-14.8,34.8-19.6c13.3-4.8,29-7.2,47.1-7.2
							c17.6,0,33.4,2.4,47.5,7.2c14.1,4.8,26.4,11.3,36.7,19.6c10.4,8.3,19.2,17.6,26.4,28c7.2,10.4,12.6,21.2,16.4,32.4
							l246.9,696.6h-106.3L790.3,181.4c-1.6-5.3-6.4-10.1-14.4-14.4c-8-4.3-15.7-6.4-23.2-6.4c-8.5,0-16.3,2.1-23.2,6.4
							c-6.9,4.3-11.5,9.1-13.6,14.4L601.8,487.4z M601.8,838.1l-151-402.6L318.2,838.1H211.9l218.9-636.7c1.1-3.2,3.7-6,8-8.4
							c4.3-2.4,8.3-3.6,12-3.6c3.7,0,7.6,1.2,11.6,3.6c4,2.4,6.5,5.2,7.6,8.4l131.8,363.5l131.8-363.5c1.1-3.2,3.6-6,7.6-8.4
							c4-2.4,7.9-3.6,11.6-3.6c3.7,0,7.7,1.2,12,3.6c4.3,2.4,6.9,5.2,8,8.4l218.9,636.7H889.4L752.8,435.4L601.8,838.1z"/>
						<path class="st69" d="M1227.3,824.5c-27.7-9-50.7-23.3-69.1-42.7c-18.4-19.4-32-44.5-40.7-75.1
							c-8.8-30.6-13.2-67.2-13.2-109.8V295.6c0-44.2,4.4-81.6,13.2-112.2c8.8-30.6,22.4-55.5,40.7-74.7c18.4-19.2,41.4-33,69.1-41.5
							c27.7-8.5,60.7-12.8,99.1-12.8h102.3c38.9,0,72.3,4.3,100.3,12.8c28,8.5,51,22.4,69.1,41.5c18.1,19.2,31.4,44.1,39.9,74.7
							c8.5,30.6,12.8,68,12.8,112.2v301.2c0,42.6-4.3,79.2-12.8,109.8c-8.5,30.6-21.8,55.7-39.9,75.1
							c-18.1,19.4-41.1,33.7-69.1,42.7c-28,9.1-61.4,13.6-100.3,13.6h-102.3C1288,838.1,1255,833.6,1227.3,824.5z M1439.8,731.8
							c20.2,0,37.3-2.8,51.1-8.4c13.8-5.6,25.2-13.4,34-23.6c8.8-10.1,15.2-22.1,19.2-35.9c4-13.8,6-28.8,6-44.7V273.3
							c0-16-2-30.9-6-44.7c-4-13.8-10.4-25.8-19.2-35.9c-8.8-10.1-20.2-18-34.4-23.6c-14.1-5.6-31.3-8.4-51.5-8.4h-123
							c-20.2,0-37.4,2.8-51.5,8.4c-14.1,5.6-25.6,13.5-34.4,23.6c-8.8,10.1-15.2,22.1-19.2,35.9c-4,13.9-6,28.8-6,44.7v345.9
							c0,16,2,30.9,6,44.7c4,13.9,10.4,25.8,19.2,35.9c8.8,10.1,20.1,18,34,23.6c13.8,5.6,30.9,8.4,51.1,8.4h62.3H1439.8z
							 M1325.6,703.1c-18.6,0-34-1.7-45.9-5.2c-12-3.5-21.3-9.2-28-17.2c-6.7-8-11.3-18.2-14-30.8c-2.7-12.5-4-28.1-4-46.7v-314
							c0-13.8,1.3-26.9,4-39.1c2.7-12.2,7.5-22.9,14.4-32c6.9-9,16.4-16.1,28.4-21.2c12-5.1,27.3-7.6,45.9-7.6h51.1h51.1
							c18.6,0,34,2.5,45.9,7.6c12,5.1,21.4,12.1,28.4,21.2c6.9,9.1,11.7,19.7,14.4,32c2.7,12.3,4,25.3,4,39.1v314
							c0,18.6-1.3,34.2-4,46.7c-2.7,12.5-7.3,22.8-14,30.8c-6.7,8-16,13.7-28,17.2c-12,3.5-27.3,5.2-45.9,5.2H1325.6z M1403.1,596.8
							c6.4,0,10.5-1.9,12.4-5.6c1.9-3.7,2.8-8.8,2.8-15.2V316.4c0-6.4-0.9-11.4-2.8-15.2c-1.9-3.7-6-5.6-12.4-5.6h-51.1
							c-6.4,0-10.5,1.9-12.4,5.6c-1.9,3.7-2.8,8.8-2.8,15.2V576c0,6.4,0.9,11.5,2.8,15.2c1.9,3.7,6,5.6,12.4,5.6H1403.1z"/>
						<path class="st69" d="M2074.9,723.4c13.8-5.6,25.2-13.4,34-23.6c8.8-10.1,15.2-22.1,19.2-35.9c4-13.8,6-28.8,6-44.7V273.3
							c0-16-2-30.9-6-44.7c-4-13.8-10.4-25.8-19.2-35.9c-8.8-10.1-20.2-18-34.3-23.6c-14.1-5.6-31.3-8.4-51.5-8.4h-318V54.4h307.6
							c38.9,0,72.3,4.3,100.3,12.8c28,8.5,51,22.4,69.1,41.5c18.1,19.2,31.4,44.1,39.9,74.7c8.5,30.6,12.8,68,12.8,112.2v301.2
							c0,42.6-4.3,79.2-12.8,109.8c-8.5,30.6-21.8,55.7-39.9,75.1c-18.1,19.4-41.1,33.7-69.1,42.7c-28,9.1-61.4,13.6-100.3,13.6
							H1705V321.2h100.7v410.6h218.1C2044,731.8,2061,729,2074.9,723.4z M1705,295.6V189.4h307.6c18.6,0,34,2.5,45.9,7.6
							c12,5.1,21.4,12.1,28.4,21.2c6.9,9.1,11.7,19.7,14.4,32c2.7,12.3,4,25.3,4,39.1v314c0,18.6-1.3,34.2-4,46.7
							c-2.7,12.5-7.3,22.8-14,30.8c-6.7,8-16,13.7-28,17.2c-12,3.5-27.3,5.2-45.9,5.2h-178.9V321.2h111.8V576
							c0,13.9,6.7,20.8,20,20.8h17.6c6.4,0,11.6-1.9,15.6-5.6c4-3.7,6-8.8,6-15.2V316.4c0-6.4-2-11.4-6-15.2
							c-4-3.7-9.2-5.6-15.6-5.6H1705z"/>
						<path class="st69" d="M2285,295.6c0-33.6,6.1-65.1,18.4-94.7c12.2-29.6,28.6-55.1,49.1-76.7c20.5-21.6,44.2-38.6,71.1-51.1
							c26.9-12.5,54.7-18.8,83.5-18.8h302.8v106.3h-290c-20.2,0-38.3,4-54.3,12c-16,8-29.4,18.4-40.3,31.2
							c-10.9,12.8-19.3,27.3-25.2,43.5c-5.9,16.3-8.8,32.4-8.8,48.3v301.2c0,16,2.9,32.1,8.8,48.3c5.9,16.3,14.2,30.8,25.2,43.5
							c10.9,12.8,24.4,23.2,40.3,31.2c16,8,34.1,12,54.3,12h290v106.2h-302.8c-28.8,0-56.6-6.3-83.5-18.8
							c-26.9-12.5-50.6-29.6-71.1-51.1c-20.5-21.6-36.9-47.1-49.1-76.7c-12.3-29.6-18.4-61.1-18.4-94.7V295.6z M2420,433V311.6
							c0-13.8,2.3-28.1,6.8-42.7c4.5-14.6,11.3-27.8,20.4-39.5c9-11.7,20.5-21.3,34.4-28.8c13.8-7.5,30.1-11.2,48.7-11.2h279.6
							v106.2h-277.2c-3.2,0-6.5,1.9-10,5.6c-3.5,3.7-5.2,8.8-5.2,15.2v11.2h231.7V433H2420z M2420,459.4h329.1v106.2h-231.7V576
							c0,6.4,1.7,11.5,5.2,15.2c3.5,3.7,6.8,5.6,10,5.6h277.2v106.3h-279.6c-18.6,0-34.9-3.7-48.7-11.2c-13.9-7.5-25.3-17-34.4-28.8
							c-9.1-11.7-15.9-24.9-20.4-39.5c-4.5-14.6-6.8-28.9-6.8-42.7V459.4z"/>
						<path class="st69" d="M3389,838.1h-302.8c-28.8,0-56.6-6.3-83.5-18.8c-26.9-12.5-50.6-29.6-71.1-51.1
							c-20.5-21.6-36.9-47.1-49.1-76.7c-12.3-29.6-18.4-61.1-18.4-94.7V54.4h106.3v542.4c0,16,2.9,32.1,8.8,48.3
							c5.9,16.3,14.2,30.8,25.2,43.5c10.9,12.8,24.4,23.2,40.3,31.2c16,8,34.1,12,54.3,12h290V838.1z M3123.8,596.8H3389v106.3
							h-279.6c-18.6,0-34.9-3.7-48.7-11.2c-13.9-7.5-25.3-17-34.4-28.8c-9.1-11.7-15.9-24.9-20.4-39.5c-4.5-14.6-6.8-28.9-6.8-42.7
							V54.4h109.4V576c0,6.4,1.7,11.3,5.2,14.8c3.5,3.5,6.8,5.2,10,5.2V596.8z"/>
						<path class="st69" d="M3784.6,838.1h-106.3V295.7c0-16-2.9-32.1-8.8-48.3c-5.9-16.2-14.2-30.8-25.2-43.5
							c-10.9-12.8-24.4-23.2-40.3-31.2c-16-8-34.1-12-54.3-12l-118.3,0V54.4l131.1,0c28.8,0,56.6,6.3,83.5,18.8
							c26.9,12.5,50.6,29.6,71.1,51.1c20.5,21.6,36.9,47.1,49.1,76.7c12.3,29.6,18.4,61.1,18.4,94.7V838.1z M3552.2,576.1V316.4
							c0-6.4-1.7-11.4-5.2-15.2c-3.5-3.7-6.8-5.6-10-5.6l-105.5,0V189.4l107.9,0c18.6,0,34.9,3.7,48.7,11.2
							c13.9,7.5,25.3,17.1,34.4,28.8c9.1,11.7,15.9,24.9,20.4,39.5c4.5,14.7,6.8,28.9,6.8,42.7v235.6 M3649.6,499.1v339l-97.5,0
							V565.7"/>
					</g>
				</g>
			</g>
		</g>
	</g>
	<rect x="2782.6" y="341.6" class="st0" width="51.1" height="217.9"/>
</g>
</svg>
