<?xml version="1.0" encoding="utf-8"?>
<!-- Generator: Adobe Illustrator 25.4.1, SVG Export Plug-In . SVG Version: 6.00 Build 0)  -->
<svg version="1.1" id="Layer_1" xmlns="http://www.w3.org/2000/svg" xmlns:xlink="http://www.w3.org/1999/xlink" x="0px" y="0px"
	 viewBox="0 0 3839 1424.2" style="enable-background:new 0 0 3839 1424.2;" xml:space="preserve">
<style type="text/css">
	.st0{fill:#FFFFFF;}
	.st1{fill:#034693;}
	.st2{fill:url(#SVGID_00000044136462898542968710000007695988685715514503_);}
	.st3{fill:url(#SVGID_00000019664446433045308710000007159965928844091061_);}
	.st4{fill:url(#SVGID_00000014609194061688348010000009800703787753854868_);}
	.st5{fill:url(#SVGID_00000072245299666195575080000002494365004275146902_);}
	.st6{fill:url(#SVGID_00000160907144708484341390000006682564068631901104_);}
	.st7{fill:url(#SVGID_00000117643985213221173570000001657430698354314135_);}
	.st8{fill:url(#SVGID_00000099635014128387110430000001083844625311886235_);}
	.st9{fill:url(#SVGID_00000025421138544761172120000014705674239560604553_);}
	.st10{fill:url(#SVGID_00000031888586406835071970000000305477426936846247_);}
	.st11{fill:url(#SVGID_00000132782563789810151660000013623629113243207817_);}
	.st12{fill:url(#SVGID_00000033336090913440868050000011080162753454380688_);}
	.st13{clip-path:url(#SVGID_00000068679664495753130250000006068516805308350633_);}
	.st14{fill:url(#SVGID_00000069386939272266997020000003609384732040878757_);}
	.st15{fill:url(#SVGID_00000016761595981844853880000001445785672058983601_);}
	.st16{fill:url(#SVGID_00000012444052979672635350000009765764956505605812_);}
	.st17{fill:url(#SVGID_00000160180060022716238280000009950820231648167612_);}
	.st18{fill:url(#SVGID_00000102527892836737764610000003437611099444221359_);}
	.st19{fill:url(#SVGID_00000025410973195377995300000004201161138613590401_);}
	.st20{fill:url(#SVGID_00000105399529326874882410000002169633517296272550_);}
	.st21{fill:none;}
	.st22{clip-path:url(#SVGID_00000183236189826341094650000003203411710442889658_);}
	.st23{fill:url(#SVGID_00000123420364939224098350000007401370784349509001_);}
	.st24{fill:url(#SVGID_00000000214447875177436080000003795259956999819173_);}
	.st25{fill:url(#SVGID_00000084520386817858651120000008199751561989358980_);}
	.st26{fill:url(#SVGID_00000043416947821146076710000012780582678841887917_);}
	.st27{fill:url(#SVGID_00000094586658829844418120000016562099502695697324_);}
	.st28{fill:url(#SVGID_00000037650327402013639010000007693472315100538031_);}
	.st29{fill:url(#SVGID_00000056418682437101532240000008154919447713896585_);}
	.st30{fill:url(#SVGID_00000026843408775536351550000009361387359057745536_);}
	.st31{fill:url(#SVGID_00000108296992714320022930000013731889973669278134_);}
	.st32{fill:url(#SVGID_00000011713234409212792400000004513358484232636093_);}
	.st33{fill:url(#SVGID_00000031166462130461126630000015151554832787037589_);}
	.st34{fill:url(#SVGID_00000171709382035848850780000011818937868946291888_);}
	.st35{clip-path:url(#SVGID_00000048489551611156218250000000714593566240179854_);}
	.st36{fill:url(#SVGID_00000026131614747516892980000007934151772957852605_);}
	.st37{fill:url(#SVGID_00000134210853096735374660000008080346773800856988_);}
	.st38{fill:url(#SVGID_00000137820609404500558220000010778318514118373785_);}
	.st39{fill:url(#SVGID_00000098912647661034320380000007961221788583578804_);}
	.st40{fill:url(#SVGID_00000021820224853848114720000001485667297607085967_);}
	.st41{fill:url(#SVGID_00000164509442692890587970000004803392070237174921_);}
	.st42{fill:url(#SVGID_00000044163214205155615330000013826581176886174383_);}
	.st43{clip-path:url(#SVGID_00000109011811755307361270000014409883742796664200_);}
	.st44{fill:url(#SVGID_00000121241772441318010100000015063962223034770051_);}
	.st45{fill:url(#SVGID_00000080207017236766623300000002348074011573483398_);}
	.st46{fill:url(#SVGID_00000178906850337417551960000016149370817261611164_);}
	.st47{fill:url(#SVGID_00000147191711182619660850000017667394704206597308_);}
	.st48{fill:url(#SVGID_00000111182014222371890230000002731899234767514792_);}
	.st49{fill:url(#SVGID_00000057116305481071237420000016146231740144350337_);}
	.st50{fill:url(#SVGID_00000013912339788420538700000007399443914138927024_);}
	.st51{fill:url(#SVGID_00000124869358484848388920000017465764742128553610_);}
	.st52{fill:url(#SVGID_00000066499731738636734940000010364095759954603651_);}
	.st53{fill:url(#SVGID_00000079459880177989794080000018004126783663870122_);}
	.st54{fill:url(#SVGID_00000062902458757145177710000011242976463404209060_);}
	.st55{fill:url(#SVGID_00000107579518229834629510000017554649458732651907_);}
	.st56{clip-path:url(#SVGID_00000134940256985179058040000009798319213141109428_);}
	.st57{fill:url(#SVGID_00000059278431572040979240000013496928644119938207_);}
	.st58{fill:url(#SVGID_00000077320608922734675220000000632770345128804488_);}
	.st59{fill:url(#SVGID_00000003088660260977367680000006071912490623024566_);}
	.st60{fill:url(#SVGID_00000049187694692814445740000016985413502980354176_);}
	.st61{fill:url(#SVGID_00000116235399741962690750000001622383108580532651_);}
	.st62{fill:url(#SVGID_00000075862575672744358310000015469397123851457959_);}
	.st63{fill:url(#SVGID_00000095336889062896957500000009597041596599509693_);}
	.st64{clip-path:url(#SVGID_00000022521309797676008110000004989013292383747000_);}
	.st65{fill:url(#SVGID_00000057868931274926096680000004165359098475787672_);}
	.st66{fill:url(#SVGID_00000136402720325770105650000007103723408581440906_);}
	.st67{fill:url(#SVGID_00000073715710560818420300000004416889383195757486_);}
	.st68{fill:url(#SVGID_00000000914740371518630590000000748808535990267297_);}
	.st69{fill:url(#SVGID_00000126318604071040343300000014396879138885849250_);}
	.st70{fill:url(#SVGID_00000070826664734245277720000002007477961106281115_);}
	.st71{fill:url(#SVGID_00000018950636265925762380000000080871237935466681_);}
	.st72{fill:url(#SVGID_00000009551092314629745550000017595521056583962291_);}
	.st73{fill:url(#SVGID_00000080207193791753822050000008281224262345614516_);}
	.st74{fill:url(#SVGID_00000056430101259731268310000007196507664744302252_);}
	.st75{fill:url(#SVGID_00000075154515915334721710000001317813843527850385_);}
	.st76{fill:url(#SVGID_00000156568374186938443170000008528987893751750039_);}
	.st77{fill:url(#SVGID_00000083075081838998443950000017000530221452043945_);}
	.st78{fill:url(#SVGID_00000016055868957771738280000006498364857314241939_);}
	.st79{fill:url(#SVGID_00000004524707530384248770000001309947672130024875_);}
	.st80{fill:url(#SVGID_00000028295851384078479520000013875554586000070041_);}
	.st81{fill:url(#SVGID_00000067916493072568332320000005507863551220831118_);}
	.st82{fill:url(#SVGID_00000120523004367082751530000002248922385101074087_);}
	.st83{fill:url(#SVGID_00000024680689173037397510000004512370769617692032_);}
	.st84{fill:url(#SVGID_00000016765820564822660660000018390550909514313384_);}
	.st85{fill:url(#SVGID_00000044897027779132710550000002464651390451257018_);}
	.st86{fill:url(#SVGID_00000093859658439038369710000014381840656485928087_);}
	.st87{fill:url(#SVGID_00000108989386815489055910000012551439845905164686_);}
	.st88{fill:url(#SVGID_00000096741927617769704760000004767422729451047603_);}
	.st89{fill:url(#SVGID_00000054953281214017483040000001588727567171707580_);}
	.st90{fill:url(#SVGID_00000011021483207667832850000018364314142110132377_);}
	.st91{fill:url(#SVGID_00000110462023629571712210000017756576551924139197_);}
	.st92{clip-path:url(#SVGID_00000126317716395732035480000010956098494720802479_);}
	.st93{fill:url(#SVGID_00000098219607679125424280000014414715549458707104_);}
	.st94{fill:url(#SVGID_00000034054127428631583080000011847130959346146464_);}
	.st95{fill:url(#SVGID_00000060023845475374440270000017793249231061744260_);}
	.st96{fill:url(#SVGID_00000165927916268273430070000008993921342302993576_);}
	.st97{fill:url(#SVGID_00000088124903397772070600000018141622179459486388_);}
	.st98{fill:url(#SVGID_00000158026963201197085110000011741093300186927516_);}
	.st99{fill:url(#SVGID_00000178167622414473229200000012538112817076217533_);}
	.st100{clip-path:url(#SVGID_00000136410804348877380720000015014972329273187235_);}
	.st101{fill:url(#SVGID_00000012430987783937509250000010042315629462791592_);}
	.st102{fill:url(#SVGID_00000127756564439217905820000000578930525875074693_);}
	.st103{fill:url(#SVGID_00000000918527039546024730000014118164795711456685_);}
	.st104{fill:url(#SVGID_00000075884595029209955440000017948517647006405282_);}
	.st105{fill:url(#SVGID_00000180344837220873674650000010233240478406487975_);}
	.st106{fill:url(#SVGID_00000125579499022515937130000004652639674769200273_);}
	.st107{fill:url(#SVGID_00000117654299308499196620000005839934006365279913_);}
	.st108{fill:url(#SVGID_00000133513338305308637010000018143534396327475874_);}
	.st109{fill:url(#SVGID_00000095300227581799681510000011122195510085550777_);}
	.st110{fill:url(#SVGID_00000039832681838824810160000001174831874285192837_);}
	.st111{fill:url(#SVGID_00000096776610597761559490000005126300079763576728_);}
	.st112{fill:url(#SVGID_00000057835267851144464960000002979324848117815201_);}
	.st113{fill:url(#SVGID_00000051347786154717398720000009456186922146453162_);}
	.st114{fill:url(#SVGID_00000127043485309087037800000000449244448932330631_);}
	.st115{fill:url(#SVGID_00000085930842612948229020000018330785339120263316_);}
	.st116{clip-path:url(#SVGID_00000090290051481909746700000003256566786634115507_);}
	.st117{fill:url(#SVGID_00000059307042958724871640000007935945845642588291_);}
	.st118{fill:url(#SVGID_00000156552759826091505680000006841208139141932674_);}
	.st119{fill:url(#SVGID_00000106865719826035411690000016372990332854270600_);}
	.st120{fill:url(#SVGID_00000132786492850377314910000009219470949259566520_);}
	.st121{fill:url(#SVGID_00000095314034650837146150000005975194347555807657_);}
	.st122{fill:url(#SVGID_00000145741738523433694810000002785303534203416765_);}
	.st123{fill:url(#SVGID_00000126317366686376677690000003601018554639513525_);}
	.st124{clip-path:url(#SVGID_00000085235307215790530170000011495490923608075652_);}
	.st125{fill:url(#SVGID_00000084499239120972918220000015379054113249357954_);}
	.st126{fill:url(#SVGID_00000183232799123967254510000014753217971098511014_);}
	.st127{fill:url(#SVGID_00000173880310524860923640000009004926242266954169_);}
	.st128{fill:url(#SVGID_00000143613800279423168220000002881941115914873242_);}
	.st129{fill:url(#SVGID_00000013155514715219483380000014684179014321355183_);}
	.st130{fill:url(#SVGID_00000175296857257632761010000009376862801412159890_);}
	.st131{fill:url(#SVGID_00000121246232470094728540000017587261252127676289_);}
	.st132{clip-path:url(#SVGID_00000133517531919945174620000002465583073162884287_);}
	.st133{fill:url(#SVGID_00000108989786001184308030000012978332871335430278_);}
	.st134{fill:url(#SVGID_00000062885970747910907640000012132248023084987310_);}
	.st135{fill:url(#SVGID_00000023970245326343182760000009987613035717125791_);}
	.st136{fill:url(#SVGID_00000182492696764667114140000009511192448176891830_);}
	.st137{fill:url(#SVGID_00000112606420858840702420000015138471637178761902_);}
	.st138{fill:url(#SVGID_00000180324803961539198680000002485350868550317968_);}
	.st139{fill:url(#SVGID_00000173843937014707117860000001160582966929695145_);}
	.st140{clip-path:url(#SVGID_00000009563694163854582980000003768611705740780175_);}
	.st141{fill:url(#SVGID_00000060725654389151811950000003590866577871414970_);}
	.st142{fill:url(#SVGID_00000039091894773341780790000014150170280173217665_);}
	.st143{fill:url(#SVGID_00000008860826650032675420000007562318808054823041_);}
	.st144{fill:url(#SVGID_00000154409414531127712210000011310729941639367065_);}
	.st145{fill:url(#SVGID_00000122719443081380508680000005214470413592858529_);}
	.st146{fill:url(#SVGID_00000166663502197344275680000000608854406944510637_);}
	.st147{fill:url(#SVGID_00000094617826861967978360000011795829603358566069_);}
	.st148{clip-path:url(#SVGID_00000073680592454273431360000000782416263271436711_);}
	.st149{fill:url(#SVGID_00000152265253928778526700000012553152792436702621_);}
	.st150{fill:url(#SVGID_00000145030288473805460560000004991882317030419601_);}
	.st151{fill:url(#SVGID_00000016769520413142672780000015164385477658300568_);}
	.st152{fill:url(#SVGID_00000165218179745852400190000014511385086710806940_);}
	.st153{fill:url(#SVGID_00000162352375290574823170000013764976935360906369_);}
	.st154{fill:url(#SVGID_00000117647517432373866450000013019948257004368545_);}
	.st155{fill:url(#SVGID_00000167373396889174389830000008628237246462779272_);}
	.st156{clip-path:url(#SVGID_00000101795355895507692430000006147809750922385595_);}
	.st157{fill:url(#SVGID_00000183966254893608943110000014084406538334636436_);}
	.st158{fill:url(#SVGID_00000066512878457353652870000005773205137763426962_);}
	.st159{fill:url(#SVGID_00000160900231939669354660000017611911445006521736_);}
	.st160{fill:url(#SVGID_00000095329859363784387550000017280813662586494111_);}
	.st161{fill:url(#SVGID_00000094607521394837254910000011018471322888397724_);}
	.st162{fill:url(#SVGID_00000014623628901708733740000013511212966182827414_);}
	.st163{fill:url(#SVGID_00000118363758445095599480000010187844094188338824_);}
	.st164{fill:url(#SVGID_00000006682603930061213710000010016346829417094061_);}
	.st165{fill:url(#SVGID_00000018212178855346548240000006502664775777222302_);}
	.st166{fill:url(#SVGID_00000160161170262281068520000004137267770805271684_);}
	.st167{fill:url(#SVGID_00000181799055092576959380000016446062971334691769_);}
	.st168{fill:url(#SVGID_00000044164068182111336540000001925319239894812302_);}
	.st169{fill:url(#SVGID_00000121249728500833631950000005794406219208876986_);}
	.st170{fill:url(#SVGID_00000125576733663736914900000006969939438802836385_);}
	.st171{clip-path:url(#SVGID_00000144301140468199384420000000045421371811633313_);}
	.st172{fill:url(#SVGID_00000105388677276819303470000015613511892296907442_);}
	.st173{fill:url(#SVGID_00000147901018286172872820000008378051857260923318_);}
	.st174{fill:url(#SVGID_00000009577793841705312450000004943838139018855359_);}
	.st175{fill:url(#SVGID_00000129927821893616942790000003680907367297835919_);}
	.st176{fill:url(#SVGID_00000132790723127119795210000002754494115396185519_);}
	.st177{fill:url(#SVGID_00000013913688712227435970000002227506886010164882_);}
	.st178{fill:url(#SVGID_00000167391603860487076850000013567123334438943893_);}
	.st179{clip-path:url(#SVGID_00000147184542607283699670000004665342502624955054_);}
	.st180{fill:url(#SVGID_00000053521033589837872790000015431889408789306804_);}
	.st181{fill:url(#SVGID_00000029748644812245168300000016818806625639292067_);}
	.st182{fill:url(#SVGID_00000073686769537605599920000013329369069381905310_);}
	.st183{fill:url(#SVGID_00000024692954491474288770000013443202640417182113_);}
	.st184{fill:url(#SVGID_00000103961664930816404190000016350046468248829370_);}
	.st185{fill:url(#SVGID_00000163783623818008070390000012471080739003452074_);}
	.st186{fill:url(#SVGID_00000169551200443875264190000014738546870008023941_);}
	.st187{fill:url(#SVGID_00000174595057459715819290000012317505171274245567_);}
	.st188{fill:url(#SVGID_00000067917694546327301240000003909344278789816214_);}
	.st189{fill:url(#SVGID_00000099656392214342343020000015204850042603654067_);}
	.st190{fill:url(#SVGID_00000020357788624067305870000015311851454257357196_);}
	.st191{fill:url(#SVGID_00000167376828776102644720000006578790589125690019_);}
	.st192{clip-path:url(#SVGID_00000048498412057761911220000004314306875768687798_);}
	.st193{fill:url(#SVGID_00000072268373947609351830000011810705817673580942_);}
	.st194{fill:url(#SVGID_00000082362181051934593020000007126388717813114258_);}
	.st195{fill:url(#SVGID_00000070106859414811071620000013774939807504703672_);}
	.st196{fill:url(#SVGID_00000177468135989358719290000003420496808004302478_);}
	.st197{fill:url(#SVGID_00000178889820485177234280000012850277799066902954_);}
	.st198{fill:url(#SVGID_00000057842392220697039350000002338422440044606095_);}
	.st199{fill:url(#SVGID_00000177443004790499168790000018092246865007389603_);}
	.st200{clip-path:url(#SVGID_00000166677739442500123720000011636436612082528418_);}
	.st201{fill:url(#SVGID_00000178893059114875535780000017229852533477119117_);}
	.st202{fill:url(#SVGID_00000023254309516366518030000000410804957872610191_);}
	.st203{fill:url(#SVGID_00000103239776866163891640000003498364261027064707_);}
	.st204{fill:url(#SVGID_00000070093585903954337650000005369492249562672528_);}
	.st205{fill:url(#SVGID_00000140008901131599954320000013245571313684128682_);}
	.st206{fill:url(#SVGID_00000080888050381846992440000014203109424243595658_);}
	.st207{fill:url(#SVGID_00000086686614477484861880000001422883932939663498_);}
	.st208{fill:url(#SVGID_00000038380213379175021650000015348709638512301995_);}
	.st209{fill:url(#SVGID_00000115488775787945408200000009612280110039608981_);}
	.st210{fill:url(#SVGID_00000147217731882883286290000011017694925066495422_);}
</style>
<g>
	<g>
		<path class="st0" d="M3817.5,744.6c-14.1-34-33.3-63.9-57.2-89c-23.9-25.2-52.1-45.4-83.5-60.1c-32.4-15.1-66.6-22.7-101.5-22.7
			h-556.4v0h-285.2h-51.5H2393c-34.9,0-69,7.7-101.5,22.7c-31.5,14.7-59.6,34.9-83.5,60c-16.8,17.7-31.3,37.8-43.3,60
			c-10.5-29.3-25.3-54.4-44.5-74.8c-23.4-24.8-53.2-42.8-88.5-53.6c-31.5-9.6-68.7-14.4-110.8-14.4h-345.3v83.5
			c-4.1-5.4-8.4-10.6-12.9-15.4c-23.4-24.8-53.2-42.9-88.5-53.6c-31.5-9.6-68.7-14.4-110.8-14.4h-97.6c-41.6,0-78.5,4.9-109.8,14.5
			c-34.8,10.7-64.5,28.6-88.1,53.3c-23.3,24.3-40.6,55.6-51.3,92.8c-9.7,33.7-14.6,74.6-14.6,121.4v157L888.4,690.7
			c-5.1-15.1-12.5-29.7-22-43.4c-9.7-14-21.6-26.7-35.5-37.7c-14.5-11.5-31.6-20.7-50.6-27.2c-18.8-6.4-39.6-9.6-62-9.6
			c-23.2,0-44.2,3.3-62.5,9.9c-18.4,6.6-34.8,15.9-48.9,27.7c-12.3,10.3-23.2,22.1-32.4,35c-9.3-13.1-20.5-25-33.3-35.5
			c-14.2-11.5-30.5-20.7-48.7-27.3c-18.3-6.6-39.3-9.9-62.5-9.9c-23,0-44.1,3.3-62.6,9.7c-18.7,6.5-35.5,15.6-50,27.1
			c-14.1,11.2-26.1,24.2-35.6,38.5c-8.7,13.1-15.9,26.9-21.3,41.2L0,1424.2h340.8l92.4-280.4l105.2,280.4H610l105.9-282.4
			l95.8,282.4h336.7l-7.3-20.7c4.6,1.9,9.4,3.6,14.2,5.2c31.5,10.3,68.7,15.5,110.6,15.5h97.6c42.4,0,79.9-5.2,111.6-15.5
			c35-11.3,64.6-29.8,87.9-54.7c4.5-4.8,8.7-10,12.7-15.3v85.5h345.3c42.4,0,79.9-5.2,111.6-15.5c35-11.3,64.6-29.8,87.9-54.7
			c18.7-20.1,33.4-44.8,43.7-73.5c12.1,22.6,26.8,43,43.8,60.9c24,25.2,52.1,45.4,83.5,60.1c32.4,15.1,66.6,22.8,101.5,22.8h340.7
			v-116.5c8.3,12,17.3,23.3,27.2,33.6c24,25.2,52.1,45.4,83.5,60.1c32.4,15.1,66.6,22.8,101.5,22.8h202.8v0h426.7
			c34.9,0,69.1-7.7,101.5-22.7c31.5-14.6,59.6-34.8,83.5-60.1c23.9-25.1,43.1-55.1,57.2-89c14.3-34.4,21.5-71.4,21.5-110.2V854.8
			C3839,816,3831.8,779,3817.5,744.6z M3292.6,1090.6h-6v0h-253.2v-0.8h-14.5V906.4h273.7V1090.6z"/>
		<path class="st1" d="M1627.3,854.7V753.3h293.6c17.8,0,32.4,2.4,43.8,7.2c11.4,4.8,20.5,11.6,27.1,20.2
			c6.6,8.7,11.2,18.8,13.7,30.5c2.5,11.7,3.8,24.2,3.8,37.4v299.7c0,17.8-1.3,32.7-3.8,44.6c-2.5,12-7,21.7-13.3,29.4
			c-6.4,7.6-15.3,13.1-26.7,16.4c-11.4,3.3-26.1,5-43.8,5h-170.8V879.2h106.8v243.3c0,13.2,6.4,19.8,19.1,19.8h16.8
			c6.1,0,11.1-1.8,14.9-5.3c3.8-3.6,5.7-8.4,5.7-14.5V874.6c0-6.1-1.9-10.9-5.7-14.5c-3.8-3.5-8.8-5.3-14.9-5.3H1627.3z
			 M1980.4,1263.1c13.2-5.3,24-12.8,32.4-22.5c8.4-9.7,14.5-21.1,18.3-34.3c3.8-13.2,5.7-27.5,5.7-42.7V833.4
			c0-15.3-1.9-29.5-5.7-42.7c-3.8-13.2-9.9-24.7-18.3-34.3c-8.4-9.7-19.3-17.2-32.8-22.5c-13.5-5.3-29.9-8-49.2-8h-303.5V624.4
			h293.6c37.1,0,69,4.1,95.7,12.2c26.7,8.1,48.7,21.4,66,39.7c17.3,18.3,30,42.1,38.1,71.3c8.1,29.2,12.2,65,12.2,107.1v287.5
			c0,40.7-4.1,75.6-12.2,104.9c-8.1,29.2-20.9,53.1-38.1,71.7c-17.3,18.6-39.3,32.2-66,40.8c-26.7,8.7-58.6,13-95.7,13h-293.6V879.2
			h96.1v392h208.2C1950.9,1271.1,1967.2,1268.5,1980.4,1263.1z"/>
		<path class="st1" d="M3787.3,1142.3c0,32-5.8,62.2-17.5,90.4c-11.7,28.2-27.3,52.6-46.9,73.2c-19.6,20.6-42.2,36.9-67.9,48.8
			c-25.7,12-52.2,17.9-79.7,17.9h-311v-101.4h298.8c19.3,0,36.6-3.8,51.9-11.4c15.3-7.6,28.1-17.5,38.5-29.7
			c10.4-12.2,18.4-26,24-41.6c5.6-15.5,8.4-30.9,8.4-46.1V854.8c0-15.3-2.8-30.6-8.4-46.1c-5.6-15.5-13.6-29.4-24-41.6
			c-10.4-12.2-23.3-22.1-38.5-29.7c-15.3-7.6-32.5-11.4-51.9-11.4h-544.1V624.4h556.3c27.5,0,54,6,79.7,17.9
			c25.7,12,48.3,28.2,67.9,48.8c19.6,20.6,35.2,45,46.9,73.2c11.7,28.2,17.5,58.3,17.5,90.4V1142.3z M3344.3,985.9V885.3h221.2
			v-10.7c0-6.1-1.6-10.9-5-14.5c-3.3-3.5-6.5-5.3-9.5-5.3h-531.9V753.3h534.1c17.8,0,33.3,3.6,46.5,10.7
			c13.2,7.1,24.2,16.3,32.8,27.5c8.7,11.2,15.1,23.8,19.4,37.7c4.3,14,6.5,27.6,6.5,40.8v115.9H3344.3z M3658.4,1127
			c0,13.2-2.2,26.8-6.5,40.8c-4.3,14-10.8,26.6-19.4,37.7c-8.6,11.2-19.6,20.3-32.8,27.5c-13.2,7.1-28.7,10.7-46.5,10.7h-291.6
			v-101.4h289.3c3.1,0,6.2-1.8,9.5-5.3c3.3-3.6,5-8.4,5-14.5v-9.9h-221.2v-101.4h314.2V1127z"/>
		<path class="st1" d="M574.2,1037.8L465.1,745.7c-2-5.1-6.4-9.7-13-13.7c-6.6-4.1-14-6.1-22.1-6.1c-7.1,0-14.5,2-22.1,6.1
			c-7.6,4.1-12.2,8.7-13.7,13.7l-219.6,626.9H73.1l235.6-665c4.1-10.7,9.4-21,16-30.9c6.6-9.9,14.9-18.8,24.8-26.7
			c9.9-7.9,21.5-14.1,34.7-18.7c13.2-4.6,28.5-6.9,45.8-6.9c17.3,0,32.3,2.3,45,6.9c12.7,4.6,23.9,10.8,33.6,18.7
			c9.7,7.9,17.9,16.8,24.8,26.7c6.9,9.9,12.8,20.2,17.9,30.9l22.9,45.8l22.9-45.8c5.6-10.7,11.8-21,18.7-30.9s15-18.8,24.4-26.7
			c9.4-7.9,20.5-14.1,33.2-18.7c12.7-4.6,27.7-6.9,45-6.9c16.8,0,31.9,2.3,45.4,6.9c13.5,4.6,25.2,10.8,35.1,18.7
			c9.9,7.9,18.3,16.8,25.2,26.7c6.9,9.9,12.1,20.2,15.6,30.9l235.6,665H973.8L754.1,745.7c-1.5-5.1-6.1-9.7-13.7-13.7
			c-7.6-4.1-15-6.1-22.1-6.1c-8.1,0-15.5,2-22.1,6.1c-6.6,4.1-10.9,8.7-13,13.7L574.2,1037.8z M574.2,1372.6L430,988.2l-126.6,384.4
			H202l209-607.8c1-3.1,3.6-5.7,7.6-8c4.1-2.3,7.9-3.4,11.4-3.4c3.6,0,7.2,1.1,11.1,3.4c3.8,2.3,6.2,5,7.2,8l125.8,347l125.8-347
			c1-3.1,3.4-5.7,7.2-8c3.8-2.3,7.5-3.4,11.1-3.4c3.5,0,7.4,1.1,11.4,3.4c4.1,2.3,6.6,5,7.6,8l209,607.8h-97.6L718.3,988.2
			L574.2,1372.6z"/>
		<path class="st1" d="M1171.3,1359.6c-26.4-8.6-48.4-22.2-66-40.8c-17.5-18.6-30.5-42.4-38.9-71.7c-8.4-29.2-12.6-64.2-12.6-104.9
			V854.7c0-42.2,4.2-77.9,12.6-107.1c8.4-29.2,21.4-53,38.9-71.3c17.5-18.3,39.5-31.5,66-39.7c26.4-8.1,58-12.2,94.6-12.2h97.6
			c37.1,0,69,4.1,95.7,12.2c26.7,8.1,48.7,21.4,66,39.7c17.3,18.3,30,42.1,38.1,71.3c8.1,29.2,12.2,65,12.2,107.1v287.5
			c0,40.7-4.1,75.6-12.2,104.9c-8.1,29.2-20.9,53.1-38.1,71.7c-17.3,18.6-39.3,32.2-66,40.8c-26.7,8.7-58.6,13-95.7,13h-97.6
			C1229.2,1372.6,1197.7,1368.2,1171.3,1359.6z M1374.1,1271.1c19.3,0,35.6-2.7,48.8-8c13.2-5.3,24-12.8,32.4-22.5
			c8.4-9.7,14.5-21.1,18.3-34.3c3.8-13.2,5.7-27.5,5.7-42.7V833.4c0-15.3-1.9-29.5-5.7-42.7c-3.8-13.2-9.9-24.7-18.3-34.3
			c-8.4-9.7-19.3-17.2-32.8-22.5c-13.5-5.3-29.9-8-49.2-8h-117.4c-19.3,0-35.7,2.7-49.2,8c-13.5,5.3-24.4,12.8-32.8,22.5
			c-8.4,9.7-14.5,21.1-18.3,34.3c-3.8,13.2-5.7,27.5-5.7,42.7v330.2c0,15.3,1.9,29.5,5.7,42.7c3.8,13.2,9.9,24.7,18.3,34.3
			c8.4,9.7,19.2,17.2,32.4,22.5c13.2,5.3,29.5,8,48.8,8h59.5H1374.1z M1265.1,1243.7c-17.8,0-32.4-1.6-43.8-5
			c-11.4-3.3-20.3-8.8-26.7-16.4c-6.4-7.6-10.8-17.4-13.3-29.4c-2.5-11.9-3.8-26.8-3.8-44.6V848.6c0-13.2,1.3-25.7,3.8-37.4
			c2.5-11.7,7.1-21.9,13.7-30.5c6.6-8.6,15.6-15.4,27.1-20.2c11.4-4.8,26-7.2,43.8-7.2h48.8h48.8c17.8,0,32.4,2.4,43.8,7.2
			c11.4,4.8,20.5,11.6,27.1,20.2c6.6,8.7,11.2,18.8,13.7,30.5c2.5,11.7,3.8,24.2,3.8,37.4v299.7c0,17.8-1.3,32.7-3.8,44.6
			c-2.6,12-7,21.7-13.3,29.4c-6.4,7.6-15.3,13.1-26.7,16.4c-11.4,3.3-26.1,5-43.8,5H1265.1z M1339.1,1142.3c6.1,0,10-1.8,11.8-5.3
			c1.8-3.6,2.7-8.4,2.7-14.5V874.6c0-6.1-0.9-10.9-2.7-14.5c-1.8-3.5-5.7-5.3-11.8-5.3h-48.8c-6.1,0-10,1.8-11.8,5.3
			c-1.8,3.6-2.7,8.4-2.7,14.5v247.8c0,6.1,0.9,10.9,2.7,14.5c1.8,3.6,5.7,5.3,11.8,5.3H1339.1z"/>
		<path class="st1" d="M2181,854.7c0-32,5.8-62.2,17.5-90.4c11.7-28.2,27.3-52.6,46.9-73.2c19.6-20.6,42.2-36.9,67.9-48.8
			c25.7-11.9,52.2-17.9,79.7-17.9h289v101.4h-276.8c-19.3,0-36.6,3.8-51.9,11.4c-15.3,7.6-28.1,17.5-38.5,29.7
			c-10.4,12.2-18.4,26.1-24,41.6c-5.6,15.5-8.4,30.9-8.4,46.1v287.5c0,15.3,2.8,30.6,8.4,46.1c5.6,15.5,13.6,29.4,24,41.6
			c10.4,12.2,23.3,22.1,38.5,29.7c15.3,7.6,32.5,11.4,51.9,11.4H2682v101.4h-289c-27.5,0-54-6-79.7-17.9
			c-25.7-11.9-48.3-28.2-67.9-48.8c-19.6-20.6-35.2-45-46.9-73.2c-11.7-28.2-17.5-58.3-17.5-90.4V854.7z M2309.8,985.9V870
			c0-13.2,2.2-26.8,6.5-40.8c4.3-14,10.8-26.6,19.4-37.7c8.6-11.2,19.6-20.3,32.8-27.5c13.2-7.1,28.7-10.7,46.5-10.7H2682v101.4
			h-264.6c-3.1,0-6.2,1.8-9.5,5.3c-3.3,3.6-5,8.4-5,14.5v10.7H2624v100.7H2309.8z M2309.8,1011.1H2624v101.4h-221.2v9.9
			c0,6.1,1.6,10.9,5,14.5c3.3,3.6,6.5,5.3,9.5,5.3H2682v101.4h-266.9c-17.8,0-33.3-3.6-46.5-10.7c-13.2-7.1-24.2-16.3-32.8-27.5
			c-8.7-11.2-15.1-23.8-19.4-37.7c-4.3-14-6.5-27.6-6.5-40.8V1011.1z"/>
		<path class="st1" d="M3255.3,1372.6h-309.4c-27.5,0-54-6-79.7-17.9c-25.7-11.9-48.3-28.2-67.9-48.8c-19.6-20.6-35.2-45-46.9-73.2
			c-11.7-28.2-17.5-58.3-17.5-90.4V624.4h101.4v517.8c0,15.3,2.8,30.6,8.4,46.1c5.6,15.5,13.6,29.4,24,41.6
			c10.4,12.2,23.3,22.1,38.5,29.7c15.3,7.6,32.5,11.4,51.9,11.4h297.2V1372.6z M2981.7,1142.3h269v101.4H2968
			c-17.8,0-33.3-3.6-46.5-10.7c-13.2-7.1-24.2-16.3-32.8-27.5c-8.7-11.2-15.1-23.8-19.4-37.7c-4.3-14-6.5-27.6-6.5-40.8V624.4h104.5
			v498c0,6.1,1.6,10.8,5,14.1c3.3,3.3,6.5,5,9.5,5V1142.3z"/>
		
			<rect x="3121.4" y="1236.8" transform="matrix(-1.836970e-16 1 -1 -1.836970e-16 4529.3809 -2004.047)" class="st0" width="290.6" height="51.7"/>
	</g>
	<g>
		<path class="st0" d="M2486.1,81.5C2471.1,34,2426.3,0,2374.6,0c-51.6,0-96.5,34-111.4,81.5l-39.4,116.9V6.8h-206.6
			c-36.7,0-70.7,14.9-96.5,39.4V6.8h-212c-39.4,0-74.7,16.3-100.6,43.5V6.8H1407c-85.6,0-156.3,70.7-156.3,156.3
			c0,40.8,16.3,78.8,42.1,106h-42.1v182.1h201.1c57.1,0,106-29.9,134.5-76.1c23.1,44.8,69.3,76.1,123.7,76.1h213.4v-39.4
			c24.5,24.5,58.4,39.4,96.5,39.4h589.8L2486.1,81.5z"/>
		<g>
			<g>
				<path class="st1" d="M1451.9,301.7H1282v53h169.9c32.6,0,59.8-27.2,59.8-59.8s-27.2-59.8-59.8-59.8h-43.5c-39.4,0-72-32.6-72-72
					s32.6-72,72-72h168.5v-53H1407c-69.3,0-125,55.7-125,125s55.7,125,125,125h43.5c4.1,0,6.8,2.7,6.8,6.8
					C1457.3,299,1454.6,301.7,1451.9,301.7z"/>
				<path class="st1" d="M1407,157.6h169.9v-54.4H1407c-32.6,0-59.8,27.2-59.8,59.8s27.2,59.8,59.8,59.8h43.5c39.4,0,72,32.6,72,72
					s-32.6,72-72,72H1282v53h169.9c69.3,0,125-55.7,125-125s-55.7-125-125-125h-43.5c-4.1,0-6.8-2.7-6.8-6.8
					C1401.6,160.4,1404.3,157.6,1407,157.6z"/>
			</g>
			<g>
				<path class="st1" d="M2017.2,103.3c-23.1,0-40.8,17.7-40.8,40.8v169.9c0,23.1,17.7,40.8,40.8,40.8h110.1V235.1H2043v53h31.3
					v12.2H2043c-6.8,0-12.2-5.4-12.2-12.2V168.5c0-6.8,5.4-12.2,12.2-12.2h150.9v-53H2017.2z"/>
				<path class="st1" d="M2351.5,354.7h123.7l-84.3-250.1c-2.7-6.8-8.2-12.2-16.3-12.2c-6.8,0-13.6,5.4-16.3,10.9l-108.7,316.7h62.5
					l38.1-112.8v47.6H2351.5z M2373.3,240.5l17.7,54.4h-36.7L2373.3,240.5z"/>
				<path class="st1" d="M2456.2,93.8c-10.9-35.3-43.5-62.5-82.9-62.5c-39.4,0-72,25.8-81.5,61.2l-99.2,290.8V169.9H2043v53h97.8
					v144.1h-122.3c-29.9,0-53-24.5-53-53V144.1c0-29.9,24.5-53,53-53h175.3v-53h-176.7c-58.4,0-106,47.6-106,106v169.9
					c0,58.4,47.6,106,106,106H2236l110.1-319.4c4.1-12.2,14.9-20.4,28.5-20.4c13.6,0,24.5,8.2,28.5,20.4l89.7,266.4h-141.3v53h214.7
					l0,0L2456.2,93.8z"/>
			</g>
			<g>
				<path class="st1" d="M1708.7,366.9c-29.9,0-53-24.5-53-53V144.1c0-29.9,24.5-53,53-53h182.1v-53h-182.1
					c-58.4,0-106,47.6-106,106v169.9c0,58.4,47.6,106,106,106h182.1v-53H1708.7z"/>
				<path class="st1" d="M1720.9,289.5h131.8v-53h-184.8v78.8c0,23.1,17.7,40.8,40.8,40.8h182.1v-53h-157.6
					C1726.4,301.7,1720.9,296.3,1720.9,289.5z"/>
				<path class="st1" d="M1852.8,169.9h-131.8c0-6.8,5.4-12.2,12.2-12.2h156.3v-54.4h-180.8c-23.1,0-40.8,17.7-40.8,40.8v78.8h184.8
					C1852.8,222.9,1852.8,169.9,1852.8,169.9z"/>
			</g>
		</g>
	</g>
</g>
</svg>
