<?xml version="1.0" encoding="utf-8"?>
<!-- Generator: Adobe Illustrator 25.4.1, SVG Export Plug-In . SVG Version: 6.00 Build 0)  -->
<svg version="1.1" id="Layer_1" xmlns="http://www.w3.org/2000/svg" xmlns:xlink="http://www.w3.org/1999/xlink" x="0px" y="0px"
	 viewBox="0 0 3839 892.4" style="enable-background:new 0 0 3839 892.4;" xml:space="preserve">
<style type="text/css">
	.st0{fill:#FFFFFF;}
	.st1{fill:url(#SVGID_00000128483192242795141230000014348952609920637057_);}
	.st2{fill:url(#SVGID_00000098211851744457459970000009626374687755728521_);}
	.st3{fill:url(#SVGID_00000101084780165197794290000005137852638144568758_);}
	.st4{fill:url(#SVGID_00000067223875456394475480000000909260431703741353_);}
	.st5{fill:url(#SVGID_00000005237564456755086280000012049257827780064182_);}
	.st6{fill:url(#SVGID_00000108993952697529166380000009379583419983361436_);}
	.st7{fill:url(#SVGID_00000124141216982029290180000008061932862125251751_);}
	.st8{fill:url(#SVGID_00000147181940517923209240000003913497253416467362_);}
	.st9{fill:url(#SVGID_00000158744471909446024800000016438151715935553688_);}
	.st10{fill:url(#SVGID_00000116233387818020632470000008342186693710320262_);}
	.st11{fill:url(#SVGID_00000003825509362249490960000006354124323078752958_);}
	.st12{fill:url(#SVGID_00000041983333598910685940000006124978268053372859_);}
	.st13{fill:url(#SVGID_00000032620007966423396750000003605033016964598436_);}
	.st14{fill:url(#SVGID_00000004546001250155813610000013527715798257062056_);}
	.st15{clip-path:url(#SVGID_00000092426665796897252980000007512872032435274155_);}
	.st16{display:none;}
	.st17{display:inline;fill:url(#SVGID_00000155122026789858099290000016862900147225192855_);}
	.st18{display:inline;fill:url(#SVGID_00000077294589351546944260000015247079650526015364_);}
	.st19{display:inline;fill:url(#SVGID_00000066493294574195242530000009399551753239201977_);}
	.st20{display:inline;fill:url(#SVGID_00000029724923949840208610000009880605116725489067_);}
	.st21{display:inline;fill:url(#SVGID_00000150082723112198244920000013745304762074104252_);}
	.st22{fill:url(#SVGID_00000068661403990324100860000015648666984098539943_);}
	.st23{fill:url(#SVGID_00000083084917881259568260000012435430952746835842_);}
	.st24{fill:url(#SVGID_00000129185240775146122360000000580596930475371410_);}
	.st25{fill:url(#SVGID_00000172422150998473078520000013724851375059456694_);}
	.st26{fill:url(#SVGID_00000167382765114444786350000006849090612149965958_);}
	.st27{fill:url(#SVGID_00000171678683727712575780000009145385879334941106_);}
	.st28{fill:none;}
	.st29{clip-path:url(#SVGID_00000172407290085421592840000015029669959213612164_);}
	.st30{fill:url(#SVGID_00000030456339661300214910000009766257279137130145_);}
	.st31{fill:url(#SVGID_00000183952347182526864820000002593967886438012048_);}
	.st32{fill:url(#SVGID_00000162313288263378414210000011588552136556351886_);}
	.st33{fill:url(#SVGID_00000039817980059461880670000003012253807233173407_);}
	.st34{fill:url(#SVGID_00000052819309770578462570000004320656853163412116_);}
	.st35{fill:url(#SVGID_00000133526443928522220970000008068073520539074493_);}
	.st36{fill:url(#SVGID_00000109021439970711204280000002821389152884354954_);}
	.st37{fill:url(#SVGID_00000021091427844595274530000004503784866853427596_);}
	.st38{fill:url(#SVGID_00000011741043864905058660000013786811713944944830_);}
	.st39{fill:url(#SVGID_00000035522327129266212800000014793874652222569369_);}
	.st40{fill:url(#SVGID_00000154390996832082347670000000621438249958536634_);}
	.st41{fill:url(#SVGID_00000094593881507109416720000016587255475135240354_);}
	.st42{fill:url(#SVGID_00000151536903377537429530000014203490721446600857_);}
	.st43{fill:url(#SVGID_00000103951937762298912780000010445438742497311389_);}
	.st44{fill:url(#SVGID_00000004507307442591281250000016789463023752624000_);}
	.st45{fill:url(#SVGID_00000019671412132447979810000004143523471791282106_);}
	.st46{fill:url(#SVGID_00000070083949537667486950000018034959778841868203_);}
	.st47{fill:url(#SVGID_00000044882259327501712160000010921652799100672958_);}
	.st48{fill:url(#SVGID_00000171691445977534223220000005446630462987072169_);}
	.st49{fill:url(#SVGID_00000137827139800391549770000016576857654531354286_);}
	.st50{clip-path:url(#SVGID_00000148661646558431712610000005439882974463336851_);}
	.st51{display:inline;fill:url(#SVGID_00000005232861242559051850000011015793056998788775_);}
	.st52{display:inline;fill:url(#SVGID_00000053529226880225945830000016587117134334247579_);}
	.st53{display:inline;fill:url(#SVGID_00000066476270225019768110000010962108505879571124_);}
	.st54{display:inline;fill:url(#SVGID_00000028316644382978044390000002599958775004589200_);}
	.st55{display:inline;fill:url(#SVGID_00000017506645879801388080000016062483886040440762_);}
	.st56{fill:url(#SVGID_00000139279859293137806850000000112853363904726971_);}
	.st57{fill:url(#SVGID_00000006695678456152273760000007358704312903508138_);}
	.st58{fill:url(#SVGID_00000013906574673002150380000010628142200583709880_);}
	.st59{fill:url(#SVGID_00000114034834974646033470000000485841275764392326_);}
	.st60{fill:url(#SVGID_00000115491440911016618550000001253401024902424468_);}
	.st61{fill:url(#SVGID_00000109002459505138216020000017153632655634598800_);}
	.st62{clip-path:url(#SVGID_00000075151160556456616290000014243608003843624613_);}
	.st63{fill:url(#SVGID_00000170256712390322977560000005056631171310829968_);}
	.st64{fill:url(#SVGID_00000150793566691539315620000009626847025287372950_);}
	.st65{fill:url(#SVGID_00000106837899764951158190000012348750410274237598_);}
	.st66{fill:url(#SVGID_00000147211004275736753020000010865260247514861701_);}
	.st67{fill:url(#SVGID_00000002372474648493190850000012505317643456047255_);}
	.st68{fill:url(#SVGID_00000114783755760152541110000005432920352793590150_);}
	.st69{fill:#034693;}
	.st70{fill:url(#SVGID_00000164506877955249137460000012257368230317255086_);}
	.st71{fill:url(#SVGID_00000052084559368473281890000004990590891305145534_);}
	.st72{fill:url(#SVGID_00000063624637517703677110000012272888333430170806_);}
	.st73{fill:url(#SVGID_00000105411541916047152740000014151538034876182928_);}
	.st74{fill:url(#SVGID_00000119822056742614331460000004331488875891338394_);}
	.st75{fill:url(#SVGID_00000013915034575317173130000004431887391892715426_);}
	.st76{fill:url(#SVGID_00000052063761507034417910000000350403298482868919_);}
	.st77{display:inline;}
	.st78{fill:url(#SVGID_00000110460159492007674860000005094293685925516674_);}
	.st79{fill:url(#SVGID_00000007393231451010315050000009882436118407461813_);}
	.st80{fill:url(#SVGID_00000077311137728607072260000014541622220398614154_);}
	.st81{fill:url(#SVGID_00000127016592272501216260000018332070271582468487_);}
	.st82{fill:url(#SVGID_00000154395201852408636810000003782260193978405550_);}
	.st83{fill:url(#SVGID_00000023246181973099765480000013817029977465254025_);}
	.st84{fill:url(#SVGID_00000023981068230070809700000001469799761087961756_);}
	.st85{fill:url(#SVGID_00000140693345460010935930000001359020908446916779_);}
	.st86{fill:url(#SVGID_00000062898161335657217850000007328298331701836968_);}
	.st87{fill:url(#SVGID_00000180354656615638624500000012633228345893286077_);}
	.st88{fill:url(#SVGID_00000101825289373005010750000009257485220487278737_);}
	.st89{fill:url(#SVGID_00000139986167498818770170000012927232444890226850_);}
	.st90{fill:url(#SVGID_00000148655517130027392020000014362592891903189146_);}
	.st91{fill:url(#SVGID_00000009569527265805918350000015514785945242881705_);}
	.st92{fill:url(#SVGID_00000055701566860041380130000010330024010179977354_);}
	.st93{fill:url(#SVGID_00000085246694981556915370000006159627401908517008_);}
	.st94{fill:url(#SVGID_00000144321456507960825000000013014569252289443261_);}
	.st95{fill:url(#SVGID_00000116212130049162297230000016369544708745297059_);}
	.st96{fill:url(#SVGID_00000150806303949366602480000001535490083541696680_);}
	.st97{fill:url(#SVGID_00000106833181626790451220000009649031557103049642_);}
	.st98{fill:url(#SVGID_00000109711139257702108140000001414083635105212050_);}
	.st99{fill:url(#SVGID_00000068657934365295523380000005538854785294566579_);}
	.st100{fill:url(#SVGID_00000168820335621877427980000006791645008763334039_);}
	.st101{fill:url(#SVGID_00000048467718830970533450000007022925595684863125_);}
	.st102{fill:url(#SVGID_00000161623622472058906050000012646334844368371102_);}
	.st103{fill:url(#SVGID_00000098904814246385019670000005899991387284103570_);}
	.st104{fill:url(#SVGID_00000023276538627265221610000004300333195819492772_);}
	.st105{fill:url(#SVGID_00000082365673839776512650000013744551944116557720_);}
	
		.st106{fill:none;stroke:url(#SVGID_00000050661051968959854520000013370824308208271235_);stroke-width:10.1798;stroke-miterlimit:10;}
	.st107{fill:url(#SVGID_00000008838077269217485760000012342366300435460266_);}
	.st108{fill:url(#SVGID_00000110439695688618080670000007975900879511848322_);}
	.st109{fill:url(#SVGID_00000132785787823768065420000003617074050742752674_);}
	.st110{fill:url(#SVGID_00000010300637805175457560000012800573265861174675_);}
	.st111{fill:url(#SVGID_00000124854376721330012800000016798182399016766093_);}
	.st112{fill:url(#SVGID_00000101796024548232643210000003355720289939269055_);}
	.st113{fill:url(#SVGID_00000140002712645001281460000011474294496114357942_);}
	.st114{fill:url(#SVGID_00000140702958748043771020000008386506954750652596_);}
	.st115{fill:url(#SVGID_00000160900025864842361220000010782161506044516781_);}
	.st116{fill:url(#SVGID_00000031885633836240377700000001398626345323276193_);}
	.st117{fill:url(#SVGID_00000114782326425753206930000016441461391386242696_);}
	.st118{fill:url(#SVGID_00000173854159557915057730000004635962532752137625_);}
	.st119{fill:url(#SVGID_00000018930310065493891130000004841771267661028799_);}
	.st120{fill:url(#SVGID_00000163752202616404192580000012580444979790496641_);}
	.st121{fill:url(#SVGID_00000121238899283102189030000014688302932074077593_);}
	.st122{fill:url(#SVGID_00000131338369431926673000000006867594491627266962_);}
	.st123{fill:url(#SVGID_00000152950996218933999100000009139124032462727058_);}
	.st124{fill:url(#SVGID_00000053544134229117379090000009475301231231666365_);}
	.st125{fill:url(#SVGID_00000081624731805401657730000007300857907016199554_);}
	.st126{fill:url(#SVGID_00000124864297254764382910000006342827052566276275_);}
	.st127{fill:url(#SVGID_00000168815110588960446310000000505552660177818795_);}
	.st128{fill:url(#SVGID_00000103969143304063805240000007719681504469306786_);}
	.st129{fill:url(#SVGID_00000130620307879993966780000004310659850985890947_);}
	.st130{fill:url(#SVGID_00000059997221214280093510000017875340480847065517_);}
	.st131{fill:url(#SVGID_00000044886908506300526680000003488415755049762946_);}
	.st132{fill:url(#SVGID_00000014634373919674437820000010598358989593085073_);}
	.st133{fill:url(#SVGID_00000136410073587200621810000012927041946451568571_);}
	.st134{fill:url(#SVGID_00000163793829170724173770000017855542685834790786_);}
	.st135{fill:url(#SVGID_00000170245545549038669960000015999576244003489454_);}
	.st136{fill:url(#SVGID_00000142868749030634052910000001582452574075486389_);}
	.st137{fill:url(#SVGID_00000083080119115238250730000014438206332493711232_);}
	.st138{fill:url(#SVGID_00000127765307581248566830000011460894350818242693_);}
	.st139{fill:url(#SVGID_00000033355259624262901130000010473083159470202031_);}
	.st140{fill:url(#SVGID_00000160157109585912362100000003961401093075899016_);}
	.st141{fill:url(#SVGID_00000002346641512813252550000004925400449007226027_);}
	.st142{fill:url(#SVGID_00000049933089751752081690000013271470664452533892_);}
	.st143{fill:url(#SVGID_00000127741431129314431550000002098083235093511829_);}
	.st144{fill:url(#SVGID_00000144314858430473348460000012132336134741526166_);}
	.st145{fill:url(#SVGID_00000178892329026115132360000012640064768708980640_);}
	.st146{fill:url(#SVGID_00000078733077244352238390000016107520108354580659_);}
	.st147{fill:url(#SVGID_00000147182740375415641630000016942863604354775193_);}
	.st148{fill:url(#SVGID_00000165229121128513793440000004813951201689056698_);}
	.st149{fill:url(#SVGID_00000111158365669610144660000010560340620913917112_);}
	.st150{fill:url(#SVGID_00000168105515046544419490000010132917353685088899_);}
	
		.st151{fill:none;stroke:url(#SVGID_00000071538198357872013750000011773775995210991759_);stroke-width:10.1798;stroke-miterlimit:10;}
	.st152{fill:url(#SVGID_00000181774495068452856330000012356762103110838177_);}
	.st153{fill:url(#SVGID_00000059996034738489500600000011444168807464804491_);}
	.st154{fill:url(#SVGID_00000125590412199689157840000012498787448716847276_);}
	.st155{fill:url(#SVGID_00000039834405062788248710000001057425568590959792_);}
	.st156{fill:url(#SVGID_00000032612458624934917930000009929867832777879941_);}
	.st157{fill:url(#SVGID_00000127751279880281670720000012740599017403585153_);}
	.st158{fill:url(#SVGID_00000119111207099788105880000010752126471812579507_);}
	.st159{fill:url(#SVGID_00000168102200164039342800000004838145717117392284_);}
	.st160{fill:url(#SVGID_00000056412676684873379450000009671553793629556910_);}
	.st161{fill:url(#SVGID_00000044163075486565291560000000269083194350621094_);}
	.st162{fill:url(#SVGID_00000122711853704962600040000005751090493154232994_);}
	.st163{fill:url(#SVGID_00000023256646895009878660000015085191512233851829_);}
	.st164{fill:url(#SVGID_00000070801026858707814140000016374355836079747764_);}
	.st165{fill:url(#SVGID_00000084510797069889643510000005444023079311097743_);}
	.st166{fill:url(#SVGID_00000117676553648367072550000001603864741452891785_);}
	.st167{fill:url(#SVGID_00000096751775397406428050000003467527672323863439_);}
	.st168{fill:url(#SVGID_00000050631314065050816730000006839568236595136405_);}
	.st169{fill:url(#SVGID_00000163058979378189767630000016147377398607498141_);}
	.st170{fill:url(#SVGID_00000174581971242496645580000007757882766556181384_);}
	.st171{fill:url(#SVGID_00000134233000471866430190000013981517110398396563_);}
	.st172{fill:url(#SVGID_00000101781719367719886240000009938275687192519609_);}
	.st173{fill:url(#SVGID_00000027567703801131345580000016028228747577527484_);}
	.st174{fill:url(#SVGID_00000066495809023097673380000002487711378890409384_);}
	.st175{fill:url(#SVGID_00000163763745653476992400000015060738353384441234_);}
	.st176{fill:url(#SVGID_00000045588325412273875880000017229879209323287446_);}
	.st177{fill:url(#SVGID_00000170985927433553147230000018232786409794600323_);}
	.st178{fill:url(#SVGID_00000111872726288012437840000005128963813834315963_);}
	.st179{fill:url(#SVGID_00000129922771332293592830000013391112983903943585_);}
	.st180{fill:url(#SVGID_00000133489120681517040550000012803351960697590149_);}
	.st181{fill:url(#SVGID_00000183222575337764969890000015616218380677774506_);}
	.st182{fill:url(#SVGID_00000153673376607397180500000006555800283849928082_);}
	.st183{fill:url(#SVGID_00000057111136858303310610000015422111372913559953_);}
	.st184{fill:url(#SVGID_00000167375566524637619320000012666911466629296572_);}
	.st185{fill:url(#SVGID_00000016040554027971560550000005859282305769550527_);}
	.st186{fill:url(#SVGID_00000106854685941620292960000017840363734475936955_);}
	
		.st187{fill:none;stroke:url(#SVGID_00000151542693184638890300000012585830005213592744_);stroke-width:10.1798;stroke-miterlimit:10;}
	.st188{fill:url(#SVGID_00000021802568471786522760000006193006419991893921_);}
	.st189{fill:url(#SVGID_00000137109950401300117700000000382372117814199436_);}
	.st190{fill:url(#SVGID_00000125591157024098660510000015977941539323076276_);}
	.st191{fill:url(#SVGID_00000018918640102896809590000008937555925731900304_);}
	.st192{fill:url(#SVGID_00000085220776622042076720000011438366038364329407_);}
	.st193{fill:url(#SVGID_00000024702524519164371240000018270987294663909011_);}
	.st194{fill:url(#SVGID_00000108281484565862769020000012904687719714954938_);}
	.st195{fill:url(#SVGID_00000182493380606184898000000015766015641366645422_);}
	.st196{fill:url(#SVGID_00000002384876868536926340000017574734187278467231_);}
	.st197{fill:url(#SVGID_00000072244978822547713810000013633225333304200857_);}
	.st198{fill:url(#SVGID_00000109007995385824688850000015089348853381925512_);}
	.st199{fill:url(#SVGID_00000023980341401385749590000002134289999358562946_);}
	.st200{fill:url(#SVGID_00000119833337643562782420000011119725770119124381_);}
	.st201{fill:url(#SVGID_00000051348964133179881210000010954136296582822581_);}
	.st202{clip-path:url(#SVGID_00000177477803801311967630000002540071878852318894_);}
	.st203{display:inline;fill:url(#SVGID_00000152229702648456998980000009016706542959714982_);}
	.st204{display:inline;fill:url(#SVGID_00000066492031336587666630000007223578185750183867_);}
	.st205{display:inline;fill:url(#SVGID_00000142897454241411001840000009522584286531593617_);}
	.st206{display:inline;fill:url(#SVGID_00000040541070684551693230000017451931104031864712_);}
	.st207{display:inline;fill:url(#SVGID_00000169522362544455830790000006042974714088092826_);}
	.st208{fill:url(#SVGID_00000001657562661851279800000014863562276201470358_);}
	.st209{fill:url(#SVGID_00000025434366790513088370000013163832123730754484_);}
	.st210{fill:url(#SVGID_00000170961751019551472300000012232357272098449831_);}
	.st211{fill:url(#SVGID_00000071536945763838830000000003945757163742925477_);}
	.st212{fill:url(#SVGID_00000160899835973872739190000011614280721707648161_);}
	.st213{fill:url(#SVGID_00000068677223944145895400000015841536490981968025_);}
	.st214{clip-path:url(#SVGID_00000000938579386850412310000016917494140931819423_);}
	.st215{fill:url(#SVGID_00000162329156454399297160000009194589179301399734_);}
	.st216{fill:url(#SVGID_00000163782315089211863920000003408557386608853913_);}
	.st217{fill:url(#SVGID_00000157284139186692205030000005727431538127436971_);}
	.st218{fill:url(#SVGID_00000144339512830822499340000011856821562280856968_);}
	.st219{fill:url(#SVGID_00000087382793548865449130000007707945188535380918_);}
	.st220{fill:url(#SVGID_00000155142371454975418830000008888887335962117283_);}
	.st221{fill:url(#SVGID_00000048460195246498551140000007724173844668604604_);}
	.st222{fill:url(#SVGID_00000042732961375415611150000007765126355658138006_);}
	.st223{fill:url(#SVGID_00000172425850684162023580000010732433460574965667_);}
	.st224{fill:url(#SVGID_00000157283471616485936300000003050869261440522901_);}
	.st225{fill:url(#SVGID_00000020374384570760389120000005336361115258246057_);}
	.st226{fill:url(#SVGID_00000060008861774156524640000007667541592065599388_);}
	.st227{fill:url(#SVGID_00000150080038080362465580000002872211993282740413_);}
	.st228{fill:url(#SVGID_00000075847109969246135980000017645242861397063042_);}
	.st229{fill:url(#SVGID_00000037665978831405711350000002800710225836112786_);}
	.st230{fill:url(#SVGID_00000107556877106739104430000006193136882258918072_);}
	.st231{fill:url(#SVGID_00000044157325189709427860000014831340314179788166_);}
	.st232{fill:url(#SVGID_00000066509170997177896060000011667541976658004096_);}
	.st233{fill:url(#SVGID_00000181055256884271432030000004430163275457279653_);}
	.st234{fill:url(#SVGID_00000044866091359788639380000015295721288524765085_);}
	.st235{clip-path:url(#SVGID_00000000181757459955427320000008239403528429428142_);}
	.st236{display:inline;fill:url(#SVGID_00000172401618034138308940000003471815654311526286_);}
	.st237{display:inline;fill:url(#SVGID_00000057113751834377255930000017123374365240160421_);}
	.st238{display:inline;fill:url(#SVGID_00000147207344908600521910000005729141590108908175_);}
	.st239{display:inline;fill:url(#SVGID_00000093882591970112736610000017068426146755401090_);}
	.st240{display:inline;fill:url(#SVGID_00000052807394468288437010000017122685736517190565_);}
	.st241{fill:url(#SVGID_00000165192590245568319990000012404094952028941740_);}
	.st242{fill:url(#SVGID_00000168079296033480402440000015927056317221367428_);}
	.st243{fill:url(#SVGID_00000112627361163969146120000003301197072946065566_);}
	.st244{fill:url(#SVGID_00000039105747543708183980000002677530960013903778_);}
	.st245{fill:url(#SVGID_00000169546922414585409810000016798363467741085367_);}
	.st246{fill:url(#SVGID_00000075149202281080449730000010208448537851228089_);}
	.st247{clip-path:url(#SVGID_00000047036491157843538530000009053104757089979061_);}
	.st248{fill:url(#SVGID_00000107549732527100732050000011499834517428363146_);}
	.st249{fill:url(#SVGID_00000129912115464893172820000015928373885770449849_);}
	.st250{fill:url(#SVGID_00000040563912362940305020000011580517435927013563_);}
	.st251{fill:url(#SVGID_00000162337421217199557060000018162173777196413110_);}
	.st252{fill:url(#SVGID_00000088831055051398556080000012757889958040245409_);}
	.st253{fill:url(#SVGID_00000170975592525610311810000000828425296300075929_);}
	.st254{fill:url(#SVGID_00000006671631895292223750000012587830962144667554_);}
	.st255{fill:url(#SVGID_00000044179373016206399360000012899805280233080212_);}
	.st256{fill:url(#SVGID_00000125569879093306668090000011289994479825377153_);}
	.st257{fill:url(#SVGID_00000036937487108690066830000009415825491207291317_);}
	.st258{fill:url(#SVGID_00000128460067071064305360000007713831897795301797_);}
	.st259{fill:url(#SVGID_00000072965878147958013920000010643368319433045666_);}
	.st260{fill:url(#SVGID_00000149363114144654221370000014206185640409325696_);}
	.st261{fill:url(#SVGID_00000165953053029110544560000017110021192075492995_);}
	.st262{fill:url(#SVGID_00000000942597660534573070000017661856786198655884_);}
	.st263{fill:url(#SVGID_00000152232021837708884480000003483721534118872208_);}
	.st264{fill:url(#SVGID_00000075146058743961789990000003494138802261926554_);}
	.st265{fill:url(#SVGID_00000018224634420296364380000004393798545295921565_);}
	.st266{fill:url(#SVGID_00000142884790821551006320000004543997392228769692_);}
	.st267{fill:url(#SVGID_00000159433960602561067370000006079114637338046909_);}
	.st268{fill:url(#SVGID_00000034083302748227414580000014759617343696957872_);}
	.st269{fill:url(#SVGID_00000115496432421934784770000009010849803851455669_);}
	.st270{fill:url(#SVGID_00000117652594666779726620000017208555770682735515_);}
	.st271{fill:url(#SVGID_00000111890051060542115640000012523265392382182274_);}
	.st272{fill:url(#SVGID_00000098179036681000679400000004160050297365318537_);}
	.st273{fill:url(#SVGID_00000106858376820445983280000006077689020000950418_);}
	.st274{fill:url(#SVGID_00000163764055381250230680000010501345459332596628_);}
	.st275{fill:url(#SVGID_00000183941473973232818810000009383875735451374210_);}
	.st276{fill:url(#SVGID_00000095335731067661220060000008726064411384509630_);}
	.st277{clip-path:url(#SVGID_00000029752168510619449960000003051014318883766668_);}
	.st278{display:inline;fill:url(#SVGID_00000088094153155871653900000006558269362204321469_);}
	.st279{display:inline;fill:url(#SVGID_00000082342431923331889830000014302825831015066039_);}
	.st280{display:inline;fill:url(#SVGID_00000142162161272732333790000014164891440019068288_);}
	.st281{display:inline;fill:url(#SVGID_00000054239954820653769550000000989844142644546211_);}
	.st282{display:inline;fill:url(#SVGID_00000104699210722012938180000001734478500654197635_);}
	.st283{fill:url(#SVGID_00000044144603782522757290000018126202558356231351_);}
	.st284{fill:url(#SVGID_00000065065395301223027730000011633742385859732630_);}
	.st285{fill:url(#SVGID_00000143600543493793895150000011219201846766849413_);}
	.st286{fill:url(#SVGID_00000149378098371011553340000007224630980723917227_);}
	.st287{fill:url(#SVGID_00000158020058629744402390000003524909603524479111_);}
	.st288{fill:url(#SVGID_00000023258270322900678540000005192168287333249956_);}
	.st289{clip-path:url(#SVGID_00000160877380736058670390000001904039637149246384_);}
	.st290{fill:url(#SVGID_00000076578455570370650590000008278515762186155426_);}
	.st291{fill:url(#SVGID_00000008127000168124662060000001872936039134720670_);}
	.st292{fill:url(#SVGID_00000129926951565688745710000006698055754497005476_);}
	.st293{fill:url(#SVGID_00000123406707939583250130000018328201300564381856_);}
	.st294{fill:url(#SVGID_00000145762164490823898840000017199111144628151475_);}
	.st295{fill:url(#SVGID_00000062193706104800461240000010986940710534141313_);}
	.st296{fill:url(#SVGID_00000008833762909712320980000009135454865058889384_);}
	.st297{fill:url(#SVGID_00000146460848533066518010000014007178275036352151_);}
	.st298{fill:url(#SVGID_00000013171345878013280660000013935358677416360076_);}
	.st299{fill:url(#SVGID_00000053503085346857169270000018270244494959252136_);}
	.st300{fill:url(#SVGID_00000081614883820746136480000013195773130111483322_);}
	.st301{fill:url(#SVGID_00000182506752442096453370000016945032969456900001_);}
	.st302{clip-path:url(#SVGID_00000147909521911070439660000002401723740236421253_);}
	.st303{display:inline;fill:url(#SVGID_00000125591264107854515860000011772358482571206809_);}
	.st304{display:inline;fill:url(#SVGID_00000039842999469109535300000008756135618731674507_);}
	.st305{display:inline;fill:url(#SVGID_00000129196832283620055990000006670474324717633935_);}
	.st306{display:inline;fill:url(#SVGID_00000181789298995215284740000013065627456691090818_);}
	.st307{display:inline;fill:url(#SVGID_00000181771213429050097480000006314168320964613255_);}
	.st308{fill:url(#SVGID_00000010309618185662794130000013286170766976200880_);}
	.st309{fill:url(#SVGID_00000118394807088856384910000001509801570006805383_);}
	.st310{fill:url(#SVGID_00000096039010097427788600000006172538830880083079_);}
	.st311{fill:url(#SVGID_00000022551842878228960710000006087522310759278728_);}
	.st312{fill:url(#SVGID_00000052788879760248810470000011609586060009182347_);}
	.st313{fill:url(#SVGID_00000103227140647732563490000005246224546218806656_);}
	.st314{clip-path:url(#SVGID_00000035515424481546117620000009208844881676303020_);}
	.st315{fill:url(#SVGID_00000152222015422735620530000001459675745841637310_);}
	.st316{fill:url(#SVGID_00000099648069220420030630000000860805613366925956_);}
	.st317{fill:url(#SVGID_00000119795854269688007760000002611244425674156179_);}
	.st318{fill:url(#SVGID_00000089552342838855227140000014081061086974723721_);}
	.st319{fill:url(#SVGID_00000095312706664894844420000003056610858042485390_);}
	.st320{fill:url(#SVGID_00000148661473824214804860000011719094249954826164_);}
	.st321{fill:url(#SVGID_00000101824529000240180560000000342955185051016361_);}
	.st322{fill:url(#SVGID_00000155106210519950165220000006427488165217273778_);}
	.st323{fill:url(#SVGID_00000154417655111950358420000007357888823145027511_);}
	.st324{fill:url(#SVGID_00000123422593460122355610000002653246320273639607_);}
	.st325{fill:url(#SVGID_00000008845301599141670710000014666964120004939157_);}
	.st326{fill:url(#SVGID_00000116228104138232407020000016873227870213038762_);}
	.st327{clip-path:url(#SVGID_00000083060953961191883610000002734486660012438452_);}
	.st328{display:inline;fill:url(#SVGID_00000049187206613057908370000016516102221305580937_);}
	.st329{display:inline;fill:url(#SVGID_00000077282557084517672740000003591424936327840701_);}
	.st330{display:inline;fill:url(#SVGID_00000057842362563617497030000017884137186794402184_);}
	.st331{display:inline;fill:url(#SVGID_00000091707241925783951370000013947421191297929645_);}
	.st332{display:inline;fill:url(#SVGID_00000015317864749517067870000016258158922118957964_);}
	.st333{fill:url(#SVGID_00000066485486749622047810000018385867329222041273_);}
	.st334{fill:url(#SVGID_00000168834188931197931390000000757382772925380003_);}
	.st335{fill:url(#SVGID_00000121990299329725998070000010794163529899273370_);}
	.st336{fill:url(#SVGID_00000112618164592710059210000007853833699385003930_);}
	.st337{fill:url(#SVGID_00000048463793903710405100000012613116465556712848_);}
	.st338{fill:url(#SVGID_00000127039987322492723380000012097783167912913538_);}
	.st339{clip-path:url(#SVGID_00000149372504230674854810000004424131050759372445_);}
	.st340{fill:url(#SVGID_00000096026093362656156930000006989302884723266235_);}
	.st341{fill:url(#SVGID_00000143613904724805108430000002647524748314142364_);}
	.st342{fill:url(#SVGID_00000076605538754232014920000002182771411504808873_);}
	.st343{fill:url(#SVGID_00000008845048142505581150000016451695553003745415_);}
	.st344{fill:url(#SVGID_00000137099360635715701400000006237276944859910041_);}
	.st345{fill:url(#SVGID_00000045603056022123636200000009735258794571640735_);}
	.st346{fill:url(#SVGID_00000021829640313116059010000012226020654066084017_);}
	.st347{fill:url(#SVGID_00000049185738148842083590000002394096132121409179_);}
	.st348{fill:url(#SVGID_00000146483697495929775350000015176112783453479328_);}
	.st349{fill:url(#SVGID_00000106122230492907719330000017051673260575350435_);}
	.st350{fill:url(#SVGID_00000181070457022740172870000005789425017290943920_);}
	.st351{fill:url(#SVGID_00000150073989445989031560000014903522702177521591_);}
	.st352{clip-path:url(#SVGID_00000037663648701019887040000002035871541715638937_);}
	.st353{display:inline;fill:url(#SVGID_00000052069859308321550800000007649753337394124978_);}
	.st354{display:inline;fill:url(#SVGID_00000034798890409271262380000012001845051764511674_);}
	.st355{display:inline;fill:url(#SVGID_00000066501861465110630660000005036000630938986911_);}
	.st356{display:inline;fill:url(#SVGID_00000118359179981384777330000008455584602512445842_);}
	.st357{display:inline;fill:url(#SVGID_00000173866943093263274100000016814896618526433210_);}
	.st358{fill:url(#SVGID_00000116927569902003685540000017986150368985246118_);}
	.st359{fill:url(#SVGID_00000110433011541568156090000006908948199090203048_);}
	.st360{fill:url(#SVGID_00000112599260879352082610000003815800595848566452_);}
	.st361{fill:url(#SVGID_00000160906058240800197990000010492763755335554226_);}
	.st362{fill:url(#SVGID_00000072268257450391626170000012006308311726865578_);}
	.st363{fill:url(#SVGID_00000143619736196972414720000008104226624459726985_);}
	.st364{clip-path:url(#SVGID_00000030484348218359176400000012115498822213363079_);}
	.st365{fill:url(#SVGID_00000123412468039427317970000015722821449832486800_);}
	.st366{fill:url(#SVGID_00000123399481079317082590000011784743540185401757_);}
	.st367{fill:url(#SVGID_00000113347279529630410300000014553539765638132620_);}
	.st368{fill:url(#SVGID_00000079454638430816379320000006858796278737331370_);}
	.st369{fill:url(#SVGID_00000140723596535909353090000003235292717591616951_);}
	.st370{fill:url(#SVGID_00000066501075049917752180000014484673269493203627_);}
	.st371{fill:url(#SVGID_00000098921100499626770880000017524570187682854578_);}
	.st372{fill:url(#SVGID_00000165224886348854987530000017883395700115701662_);}
	.st373{fill:url(#SVGID_00000085229039785789508320000014191994247160542395_);}
	.st374{fill:url(#SVGID_00000025416503020292192960000009768258677123306156_);}
	.st375{fill:url(#SVGID_00000002354663669015583480000007543332258045099961_);}
	.st376{fill:url(#SVGID_00000054258340818473001390000015264683219707108766_);}
	.st377{fill:url(#SVGID_00000103983422406454574590000005857645690686651299_);}
	.st378{clip-path:url(#SVGID_00000127734411889889794050000007724535723713226659_);}
	.st379{display:inline;fill:url(#SVGID_00000075132951403547430840000013962432698934519174_);}
	.st380{display:inline;fill:url(#SVGID_00000008144378884854173710000005415668139878505611_);}
	.st381{display:inline;fill:url(#SVGID_00000093874177680286835160000009905492180916550586_);}
	.st382{display:inline;fill:url(#SVGID_00000085212304050056924120000009813013741566675845_);}
	.st383{display:inline;fill:url(#SVGID_00000016797294266605777690000001161726367134970027_);}
	.st384{fill:url(#SVGID_00000155140354543861631740000005419431581832485793_);}
	.st385{fill:url(#SVGID_00000077298601033575088430000014356971458347613332_);}
	.st386{fill:url(#SVGID_00000128443302488527243400000006621426762912759211_);}
	.st387{fill:url(#SVGID_00000039111013728333859540000017883407159919571352_);}
	.st388{fill:url(#SVGID_00000117651849553933390010000003526930010138276744_);}
	.st389{fill:url(#SVGID_00000048473284489740687960000006507558905553465504_);}
	.st390{clip-path:url(#SVGID_00000104669203193357631760000013148455934232688268_);}
	.st391{fill:url(#SVGID_00000175281922409120236940000000183259753903452821_);}
	.st392{fill:url(#SVGID_00000143591005476030344430000006676712435253591966_);}
	.st393{fill:url(#SVGID_00000127011175704361290110000004264661519906032018_);}
	.st394{fill:url(#SVGID_00000113325810941668851590000014227874110615024537_);}
	.st395{fill:url(#SVGID_00000036232749496535498130000008020453027385725097_);}
	.st396{fill:url(#SVGID_00000087408623855603545570000009892116769962125743_);}
	.st397{fill:url(#SVGID_00000005984580175840863430000011409876075789393840_);}
	.st398{fill:url(#SVGID_00000120524338962890831080000016688837515222184603_);}
	.st399{fill:url(#SVGID_00000103987794692915191740000006999599123558188468_);}
	.st400{fill:url(#SVGID_00000128446785453321378430000001967233004297561278_);}
	.st401{fill:url(#SVGID_00000008130526555339765690000005619742140490127275_);}
	.st402{fill:url(#SVGID_00000134962766745616495170000010332102145575670684_);}
	.st403{display:inline;fill:url(#SVGID_00000151540544911368003350000004226482195807950216_);}
	.st404{display:inline;fill:url(#SVGID_00000010991728070471922790000017911694760112841610_);}
	.st405{display:inline;fill:url(#SVGID_00000080915117714296025900000002304732892861238452_);}
	.st406{display:inline;fill:url(#SVGID_00000146477017570400554230000011733693197629697710_);}
	.st407{display:inline;fill:url(#SVGID_00000037650295137059993090000006299042003156889526_);}
	.st408{fill:url(#SVGID_00000076572075951053243700000011106007457552448134_);}
	.st409{fill:url(#SVGID_00000070831078362130993140000012168231614417883547_);}
	.st410{fill:url(#SVGID_00000028294142016627159250000014285601335641094804_);}
	.st411{fill:url(#SVGID_00000021808311514177853260000011022653601341060502_);}
	.st412{fill:url(#SVGID_00000136376452728786616750000005810086896656380588_);}
	.st413{fill:url(#SVGID_00000003821521908472180300000004060818752474121095_);}
	.st414{fill:url(#SVGID_00000168076793080287827780000018378454320164912300_);}
	.st415{fill:url(#SVGID_00000043420926431017901450000002481405563134878614_);}
	.st416{fill:url(#SVGID_00000104690336607605976940000008518118548157124754_);}
	.st417{fill:url(#SVGID_00000114036599713152756580000017618487875782336947_);}
	.st418{fill:url(#SVGID_00000065788427679566032390000017216648106508739209_);}
	.st419{fill:url(#SVGID_00000079474325781236455020000004796122908409707425_);}
	.st420{display:inline;fill:url(#SVGID_00000024704683479487836490000006693346241463093433_);}
	.st421{display:inline;fill:url(#SVGID_00000178899476483380964470000003594155635660040865_);}
	.st422{display:inline;fill:url(#SVGID_00000002344738729205422750000012674217938916391869_);}
	.st423{display:inline;fill:url(#SVGID_00000151520650338287715630000000453383172593513638_);}
	.st424{display:inline;fill:url(#SVGID_00000130620862537171055470000007932623567060616324_);}
	.st425{fill:url(#SVGID_00000085939223697530670250000001851830904620609978_);}
	.st426{fill:url(#SVGID_00000106143376027969723940000004620296115778423454_);}
	.st427{fill:url(#SVGID_00000091733318876194480360000004750574632255519875_);}
	.st428{fill:url(#SVGID_00000143609477270631553600000006451336501761098908_);}
	.st429{fill:url(#SVGID_00000088854858842072200150000015801220356737813397_);}
	.st430{fill:url(#SVGID_00000078726279797155558890000017239695265467010703_);}
	.st431{fill:url(#SVGID_00000158725843154077247430000013609819810753735604_);}
	.st432{fill:url(#SVGID_00000031177181478780093180000000399265402451800739_);}
	.st433{fill:url(#SVGID_00000163751609173453852760000013841100023676449437_);}
	.st434{fill:url(#SVGID_00000051370084260197322400000000946291508244531336_);}
	.st435{fill:url(#SVGID_00000138558485794596624810000016251697473039086257_);}
	.st436{fill:url(#SVGID_00000155137241508067402370000013247803769936762540_);}
	.st437{display:inline;fill:url(#SVGID_00000137120537566142963310000003625053688230083510_);}
	.st438{display:inline;fill:url(#SVGID_00000106838814112108311120000015967299652881898136_);}
	.st439{display:inline;fill:url(#SVGID_00000008129485486623767190000004893665133884444801_);}
	.st440{display:inline;fill:url(#SVGID_00000066504873536524646280000012413473484475548346_);}
	.st441{display:inline;fill:url(#SVGID_00000048477986178912481970000018037625875698427312_);}
	.st442{fill:url(#SVGID_00000048485383612293028280000009106537967213849509_);}
	.st443{fill:url(#SVGID_00000060719349400478694520000010702550137076685968_);}
	.st444{fill:url(#SVGID_00000168098083164795357420000009863445820426657704_);}
	.st445{fill:url(#SVGID_00000017515167953666016510000016282266933961998978_);}
	.st446{fill:url(#SVGID_00000078017028415033045970000010994103251445492119_);}
	.st447{fill:url(#SVGID_00000075877927307230844960000013637896124818265732_);}
	.st448{fill:url(#SVGID_00000096779990722816494620000003767759570635232131_);}
	.st449{fill:url(#SVGID_00000057864908074338725510000008983421456859187584_);}
	.st450{fill:url(#SVGID_00000015356329641805043000000016241738640780833942_);}
	.st451{fill:url(#SVGID_00000173874695757821757580000000377035733819372971_);}
	.st452{fill:url(#SVGID_00000141437830819440043610000004032872395893357996_);}
	.st453{fill:url(#SVGID_00000054958461700316731310000007907214952862661760_);}
	.st454{display:inline;fill:url(#SVGID_00000122711142683147442900000014826267138978382253_);}
	.st455{display:inline;fill:url(#SVGID_00000149346082516539148090000008930053803641294778_);}
	.st456{display:inline;fill:url(#SVGID_00000097497228567638291590000014727099189347604612_);}
	.st457{display:inline;fill:url(#SVGID_00000001655215457729950220000014691164809286631559_);}
	.st458{display:inline;fill:url(#SVGID_00000034800766692257658600000017888930754813983163_);}
	.st459{fill:url(#SVGID_00000173864645982269311900000017262979195249933706_);}
	.st460{fill:url(#SVGID_00000036932506954718010380000013823450105571063983_);}
	.st461{fill:url(#SVGID_00000180326705920247034160000014284879694442331010_);}
	.st462{fill:url(#SVGID_00000172430252196044654400000000170093805448315036_);}
	.st463{fill:url(#SVGID_00000088845923494275399600000012044017366949078148_);}
	.st464{fill:url(#SVGID_00000042697615416584816990000005060077447029068187_);}
</style>
<g>
	<g>
		<path class="st0" d="M931.2,123.7c-5.3-15.8-13.1-31.2-23.1-45.6c-10.2-14.7-22.7-28-37.2-39.6c-15.2-12.1-33.1-21.7-53.1-28.5
			C798.1,3.4,776.2,0,752.8,0c-24.3,0-46.4,3.5-65.5,10.4C668,17.4,650.7,27.1,636,39.5c-12.8,10.8-24.2,23-33.8,36.5
			c-9.7-13.6-21.4-26-34.8-36.9c-14.9-12.1-32-21.7-51.1-28.6C497.2,3.5,475.1,0,450.8,0c-24.1,0-46.2,3.4-65.7,10.2
			c-19.6,6.8-37.2,16.3-52.4,28.4c-14.8,11.8-27.4,25.4-37.3,40.3c-9.2,13.7-16.7,28.3-22.4,43.2l-0.2,0.6L0,892.4h277h80.5
			l96.6-293.3l110,293.3h75.3l110.8-295.3l100.2,295.3h353.2L931.2,123.7z"/>
		<g>
			<g>
				<g>
					<path class="st0" d="M601.8,487.4l-114.2-306c-2.1-5.3-6.7-10.1-13.6-14.4c-6.9-4.3-14.7-6.4-23.2-6.4
						c-7.5,0-15.2,2.1-23.2,6.4c-8,4.3-12.8,9.1-14.4,14.4L183.2,838.1H76.9l246.9-696.6c4.3-11.2,9.8-22,16.8-32.4
						c6.9-10.4,15.6-19.7,26-28c10.4-8.3,22.5-14.8,36.3-19.6c13.8-4.8,29.8-7.2,47.9-7.2c18.1,0,33.8,2.4,47.1,7.2
						c13.3,4.8,25,11.3,35.2,19.6c10.1,8.3,18.8,17.6,26,28c7.2,10.4,13.4,21.2,18.8,32.4l24,47.9l24-47.9
						c5.9-11.2,12.4-22,19.6-32.4s15.7-19.7,25.6-28c9.8-8.3,21.4-14.8,34.8-19.6c13.3-4.8,29-7.2,47.1-7.2
						c17.6,0,33.4,2.4,47.5,7.2c14.1,4.8,26.4,11.3,36.7,19.6c10.4,8.3,19.2,17.6,26.4,28c7.2,10.4,12.6,21.2,16.4,32.4l246.9,696.6
						h-106.3L790.3,181.4c-1.6-5.3-6.4-10.1-14.4-14.4c-8-4.3-15.7-6.4-23.2-6.4c-8.5,0-16.3,2.1-23.2,6.4
						c-6.9,4.3-11.5,9.1-13.6,14.4L601.8,487.4z M601.8,838.1l-151-402.6L318.2,838.1H211.9l218.9-636.7c1.1-3.2,3.7-6,8-8.4
						c4.3-2.4,8.3-3.6,12-3.6c3.7,0,7.6,1.2,11.6,3.6c4,2.4,6.5,5.2,7.6,8.4l131.8,363.5l131.8-363.5c1.1-3.2,3.6-6,7.6-8.4
						c4-2.4,7.9-3.6,11.6-3.6c3.7,0,7.7,1.2,12,3.6c4.3,2.4,6.9,5.2,8,8.4l218.9,636.7H889.4L752.8,435.4L601.8,838.1z"/>
					<path class="st0" d="M1326.4,892.4c-44,0-83-5.5-116-16.3c-36.3-11.8-67.1-31-91.7-57.1c-24.3-25.7-42.3-58.5-53.5-97.4
						c-10.1-35.3-15.3-77.4-15.3-124.8V295.6c0-49.1,5.1-91.9,15.3-127.2c11.2-39.1,29.3-71.8,53.7-97.3
						c24.8-25.8,55.8-44.6,92.4-55.9C1244.1,5.1,1282.8,0,1326.4,0h102.3c44,0,83.1,5.1,116.1,15.1c37,11.3,68.2,30.2,92.8,56.2
						c24.2,25.6,41.9,58.4,52.8,97.4c9.8,35.3,14.8,77.9,14.8,126.8v301.2c0,47.3-5,89.2-14.8,124.4c-10.8,39-28.5,71.8-52.5,97.6
						c-24.4,26.2-55.4,45.5-92.1,57.4c-33.2,10.8-72.6,16.2-117,16.2H1326.4z"/>
					<path class="st0" d="M1227.3,824.5c-27.7-9-50.7-23.3-69.1-42.7c-18.4-19.4-32-44.5-40.7-75.1c-8.8-30.6-13.2-67.2-13.2-109.8
						V295.6c0-44.2,4.4-81.6,13.2-112.2c8.8-30.6,22.4-55.5,40.7-74.7c18.4-19.2,41.4-33,69.1-41.5c27.7-8.5,60.7-12.8,99.1-12.8
						h102.3c38.9,0,72.3,4.3,100.3,12.8c28,8.5,51,22.4,69.1,41.5c18.1,19.2,31.4,44.1,39.9,74.7c8.5,30.6,12.8,68,12.8,112.2v301.2
						c0,42.6-4.3,79.2-12.8,109.8c-8.5,30.6-21.8,55.7-39.9,75.1c-18.1,19.4-41.1,33.7-69.1,42.7c-28,9.1-61.4,13.6-100.3,13.6
						h-102.3C1288,838.1,1255,833.6,1227.3,824.5z M1439.8,731.8c20.2,0,37.3-2.8,51.1-8.4c13.8-5.6,25.2-13.4,34-23.6
						c8.8-10.1,15.2-22.1,19.2-35.9c4-13.8,6-28.8,6-44.7V273.3c0-16-2-30.9-6-44.7c-4-13.8-10.4-25.8-19.2-35.9
						c-8.8-10.1-20.2-18-34.4-23.6c-14.1-5.6-31.3-8.4-51.5-8.4h-123c-20.2,0-37.4,2.8-51.5,8.4c-14.1,5.6-25.6,13.5-34.4,23.6
						c-8.8,10.1-15.2,22.1-19.2,35.9c-4,13.9-6,28.8-6,44.7v345.9c0,16,2,30.9,6,44.7c4,13.9,10.4,25.8,19.2,35.9
						c8.8,10.1,20.1,18,34,23.6c13.8,5.6,30.9,8.4,51.1,8.4h62.3H1439.8z M1325.6,703.1c-18.6,0-34-1.7-45.9-5.2
						c-12-3.5-21.3-9.2-28-17.2c-6.7-8-11.3-18.2-14-30.8c-2.7-12.5-4-28.1-4-46.7v-314c0-13.8,1.3-26.9,4-39.1
						c2.7-12.2,7.5-22.9,14.4-32c6.9-9,16.4-16.1,28.4-21.2c12-5.1,27.3-7.6,45.9-7.6h51.1h51.1c18.6,0,34,2.5,45.9,7.6
						c12,5.1,21.4,12.1,28.4,21.2c6.9,9.1,11.7,19.7,14.4,32c2.7,12.3,4,25.3,4,39.1v314c0,18.6-1.3,34.2-4,46.7
						c-2.7,12.5-7.3,22.8-14,30.8c-6.7,8-16,13.7-28,17.2c-12,3.5-27.3,5.2-45.9,5.2H1325.6z M1403.1,596.8c6.4,0,10.5-1.9,12.4-5.6
						c1.9-3.7,2.8-8.8,2.8-15.2V316.4c0-6.4-0.9-11.4-2.8-15.2c-1.9-3.7-6-5.6-12.4-5.6h-51.1c-6.4,0-10.5,1.9-12.4,5.6
						c-1.9,3.7-2.8,8.8-2.8,15.2V576c0,6.4,0.9,11.5,2.8,15.2c1.9,3.7,6,5.6,12.4,5.6H1403.1z"/>
					<path class="st0" d="M1650.7,892.4V0h361.9c44,0,83.1,5.1,116.1,15.1c37,11.3,68.2,30.2,92.8,56.2
						c24.2,25.6,41.9,58.4,52.8,97.4c9.8,35.3,14.8,77.9,14.8,126.8v301.2c0,47.3-5,89.2-14.8,124.4c-10.8,39-28.5,71.8-52.5,97.6
						c-24.4,26.2-55.4,45.5-92.1,57.4c-33.2,10.8-72.6,16.2-117,16.2H1650.7z"/>
					<path class="st0" d="M2074.9,723.4c13.8-5.6,25.2-13.4,34-23.6c8.8-10.1,15.2-22.1,19.2-35.9c4-13.8,6-28.8,6-44.7V273.3
						c0-16-2-30.9-6-44.7c-4-13.8-10.4-25.8-19.2-35.9c-8.8-10.1-20.2-18-34.3-23.6c-14.1-5.6-31.3-8.4-51.5-8.4h-318V54.4h307.6
						c38.9,0,72.3,4.3,100.3,12.8c28,8.5,51,22.4,69.1,41.5c18.1,19.2,31.4,44.1,39.9,74.7c8.5,30.6,12.8,68,12.8,112.2v301.2
						c0,42.6-4.3,79.2-12.8,109.8c-8.5,30.6-21.8,55.7-39.9,75.1c-18.1,19.4-41.1,33.7-69.1,42.7c-28,9.1-61.4,13.6-100.3,13.6H1705
						V321.2h100.7v410.6h218.1C2044,731.8,2061,729,2074.9,723.4z M1705,295.6V189.4h307.6c18.6,0,34,2.5,45.9,7.6
						c12,5.1,21.4,12.1,28.4,21.2c6.9,9.1,11.7,19.7,14.4,32c2.7,12.3,4,25.3,4,39.1v314c0,18.6-1.3,34.2-4,46.7
						c-2.7,12.5-7.3,22.8-14,30.8c-6.7,8-16,13.7-28,17.2c-12,3.5-27.3,5.2-45.9,5.2h-178.9V321.2h111.8V576
						c0,13.9,6.7,20.8,20,20.8h17.6c6.4,0,11.6-1.9,15.6-5.6c4-3.7,6-8.8,6-15.2V316.4c0-6.4-2-11.4-6-15.2c-4-3.7-9.2-5.6-15.6-5.6
						H1705z"/>
					<path class="st0" d="M2507.1,892.4c-36.6,0-72.4-8-106.4-23.9c-33-15.3-62.4-36.5-87.6-63c-25-26.3-45.2-57.7-59.9-93.3
						c-14.9-36-22.5-74.9-22.5-115.5V295.6c0-40.6,7.6-79.5,22.5-115.5c14.7-35.6,34.9-67,59.9-93.3c25.1-26.4,54.6-47.6,87.6-63
						C2434.7,8,2470.5,0,2507.1,0h357.1v350h-60.7v192.4h60.7v350H2507.1z"/>
					<path class="st0" d="M2285,295.6c0-33.6,6.1-65.1,18.4-94.7c12.2-29.6,28.6-55.1,49.1-76.7c20.5-21.6,44.2-38.6,71.1-51.1
						c26.9-12.5,54.7-18.8,83.5-18.8h302.8v106.3h-290c-20.2,0-38.3,4-54.3,12c-16,8-29.4,18.4-40.3,31.2
						c-10.9,12.8-19.3,27.3-25.2,43.5c-5.9,16.3-8.8,32.4-8.8,48.3v301.2c0,16,2.9,32.1,8.8,48.3c5.9,16.3,14.2,30.8,25.2,43.5
						c10.9,12.8,24.4,23.2,40.3,31.2c16,8,34.1,12,54.3,12h290v106.2h-302.8c-28.8,0-56.6-6.3-83.5-18.8
						c-26.9-12.5-50.6-29.6-71.1-51.1c-20.5-21.6-36.9-47.1-49.1-76.7c-12.3-29.6-18.4-61.1-18.4-94.7V295.6z M2420,433V311.6
						c0-13.8,2.3-28.1,6.8-42.7c4.5-14.6,11.3-27.8,20.4-39.5c9-11.7,20.5-21.3,34.4-28.8c13.8-7.5,30.1-11.2,48.7-11.2h279.6v106.2
						h-277.2c-3.2,0-6.5,1.9-10,5.6c-3.5,3.7-5.2,8.8-5.2,15.2v11.2h231.7V433H2420z M2420,459.4h329.1v106.2h-231.7V576
						c0,6.4,1.7,11.5,5.2,15.2c3.5,3.7,6.8,5.6,10,5.6h277.2v106.3h-279.6c-18.6,0-34.9-3.7-48.7-11.2c-13.9-7.5-25.3-17-34.4-28.8
						c-9.1-11.7-15.9-24.9-20.4-39.5c-4.5-14.6-6.8-28.9-6.8-42.7V459.4z"/>
					<path class="st0" d="M3086.3,892.4c-36.6,0-72.4-8-106.4-23.9c-33-15.3-62.4-36.5-87.6-63c-25-26.3-45.2-57.7-59.9-93.3
						c-14.9-36-22.5-74.9-22.5-115.5V0H3163v541.6h15.2v0.8h265.2v350H3086.3z"/>
					<path class="st0" d="M3389,838.1h-302.8c-28.8,0-56.6-6.3-83.5-18.8c-26.9-12.5-50.6-29.6-71.1-51.1
						c-20.5-21.6-36.9-47.1-49.1-76.7c-12.3-29.6-18.4-61.1-18.4-94.7V54.4h106.3v542.4c0,16,2.9,32.1,8.8,48.3
						c5.9,16.3,14.2,30.8,25.2,43.5c10.9,12.8,24.4,23.2,40.3,31.2c16,8,34.1,12,54.3,12h290V838.1z M3123.8,596.8H3389v106.3
						h-279.6c-18.6,0-34.9-3.7-48.7-11.2c-13.9-7.5-25.3-17-34.4-28.8c-9.1-11.7-15.9-24.9-20.4-39.5c-4.5-14.6-6.8-28.9-6.8-42.7
						V54.4h109.4V576c0,6.4,1.7,11.3,5.2,14.8c3.5,3.5,6.8,5.2,10,5.2V596.8z"/>
					<path class="st0" d="M3497.8,892.4V350l-120.7,0V0l185.4,0c36.6,0,72.4,8,106.4,23.8c33,15.4,62.5,36.5,87.6,63
						c25,26.3,45.2,57.7,59.9,93.3c14.9,36,22.5,74.9,22.5,115.5v596.8l-135,0L3497.8,892.4z"/>
				</g>
				<g>
					<g>
						
							<linearGradient id="SVGID_00000010303504964493265750000015850163521797892792_" gradientUnits="userSpaceOnUse" x1="601.7981" y1="54.3813" x2="601.7981" y2="838.0753">
							<stop  offset="0" style="stop-color:#23BFD4"/>
							<stop  offset="0.7031" style="stop-color:#3F4DA0"/>
						</linearGradient>
						<path style="fill:url(#SVGID_00000010303504964493265750000015850163521797892792_);" d="M601.8,487.4l-114.2-306
							c-2.1-5.3-6.7-10.1-13.6-14.4c-6.9-4.3-14.7-6.4-23.2-6.4c-7.5,0-15.2,2.1-23.2,6.4c-8,4.3-12.8,9.1-14.4,14.4L183.2,838.1
							H76.9l246.9-696.6c4.3-11.2,9.8-22,16.8-32.4c6.9-10.4,15.6-19.7,26-28c10.4-8.3,22.5-14.8,36.3-19.6
							c13.8-4.8,29.8-7.2,47.9-7.2c18.1,0,33.8,2.4,47.1,7.2c13.3,4.8,25,11.3,35.2,19.6c10.1,8.3,18.8,17.6,26,28
							c7.2,10.4,13.4,21.2,18.8,32.4l24,47.9l24-47.9c5.9-11.2,12.4-22,19.6-32.4s15.7-19.7,25.6-28c9.8-8.3,21.4-14.8,34.8-19.6
							c13.3-4.8,29-7.2,47.1-7.2c17.6,0,33.4,2.4,47.5,7.2c14.1,4.8,26.4,11.3,36.7,19.6c10.4,8.3,19.2,17.6,26.4,28
							c7.2,10.4,12.6,21.2,16.4,32.4l246.9,696.6h-106.3L790.3,181.4c-1.6-5.3-6.4-10.1-14.4-14.4c-8-4.3-15.7-6.4-23.2-6.4
							c-8.5,0-16.3,2.1-23.2,6.4c-6.9,4.3-11.5,9.1-13.6,14.4L601.8,487.4z M601.8,838.1l-151-402.6L318.2,838.1H211.9l218.9-636.7
							c1.1-3.2,3.7-6,8-8.4c4.3-2.4,8.3-3.6,12-3.6c3.7,0,7.6,1.2,11.6,3.6c4,2.4,6.5,5.2,7.6,8.4l131.8,363.5l131.8-363.5
							c1.1-3.2,3.6-6,7.6-8.4c4-2.4,7.9-3.6,11.6-3.6c3.7,0,7.7,1.2,12,3.6c4.3,2.4,6.9,5.2,8,8.4l218.9,636.7H889.4L752.8,435.4
							L601.8,838.1z"/>
					</g>
					<g>
						
							<linearGradient id="SVGID_00000155108563045137485880000007157985904177804679_" gradientUnits="userSpaceOnUse" x1="1377.4949" y1="54.3813" x2="1377.4949" y2="838.0753">
							<stop  offset="0" style="stop-color:#23BFD4"/>
							<stop  offset="0.7031" style="stop-color:#3F4DA0"/>
						</linearGradient>
						<path style="fill:url(#SVGID_00000155108563045137485880000007157985904177804679_);" d="M1227.3,824.5
							c-27.7-9-50.7-23.3-69.1-42.7c-18.4-19.4-32-44.5-40.7-75.1c-8.8-30.6-13.2-67.2-13.2-109.8V295.6c0-44.2,4.4-81.6,13.2-112.2
							c8.8-30.6,22.4-55.5,40.7-74.7c18.4-19.2,41.4-33,69.1-41.5c27.7-8.5,60.7-12.8,99.1-12.8h102.3c38.9,0,72.3,4.3,100.3,12.8
							c28,8.5,51,22.4,69.1,41.5c18.1,19.2,31.4,44.1,39.9,74.7c8.5,30.6,12.8,68,12.8,112.2v301.2c0,42.6-4.3,79.2-12.8,109.8
							c-8.5,30.6-21.8,55.7-39.9,75.1c-18.1,19.4-41.1,33.7-69.1,42.7c-28,9.1-61.4,13.6-100.3,13.6h-102.3
							C1288,838.1,1255,833.6,1227.3,824.5z M1439.8,731.8c20.2,0,37.3-2.8,51.1-8.4c13.8-5.6,25.2-13.4,34-23.6
							c8.8-10.1,15.2-22.1,19.2-35.9c4-13.8,6-28.8,6-44.7V273.3c0-16-2-30.9-6-44.7c-4-13.8-10.4-25.8-19.2-35.9
							c-8.8-10.1-20.2-18-34.4-23.6c-14.1-5.6-31.3-8.4-51.5-8.4h-123c-20.2,0-37.4,2.8-51.5,8.4c-14.1,5.6-25.6,13.5-34.4,23.6
							c-8.8,10.1-15.2,22.1-19.2,35.9c-4,13.9-6,28.8-6,44.7v345.9c0,16,2,30.9,6,44.7c4,13.9,10.4,25.8,19.2,35.9
							c8.8,10.1,20.1,18,34,23.6c13.8,5.6,30.9,8.4,51.1,8.4h62.3H1439.8z M1325.6,703.1c-18.6,0-34-1.7-45.9-5.2
							c-12-3.5-21.3-9.2-28-17.2c-6.7-8-11.3-18.2-14-30.8c-2.7-12.5-4-28.1-4-46.7v-314c0-13.8,1.3-26.9,4-39.1
							c2.7-12.2,7.5-22.9,14.4-32c6.9-9,16.4-16.1,28.4-21.2c12-5.1,27.3-7.6,45.9-7.6h51.1h51.1c18.6,0,34,2.5,45.9,7.6
							c12,5.1,21.4,12.1,28.4,21.2c6.9,9.1,11.7,19.7,14.4,32c2.7,12.3,4,25.3,4,39.1v314c0,18.6-1.3,34.2-4,46.7
							c-2.7,12.5-7.3,22.8-14,30.8c-6.7,8-16,13.7-28,17.2c-12,3.5-27.3,5.2-45.9,5.2H1325.6z M1403.1,596.8
							c6.4,0,10.5-1.9,12.4-5.6c1.9-3.7,2.8-8.8,2.8-15.2V316.4c0-6.4-0.9-11.4-2.8-15.2c-1.9-3.7-6-5.6-12.4-5.6h-51.1
							c-6.4,0-10.5,1.9-12.4,5.6c-1.9,3.7-2.8,8.8-2.8,15.2V576c0,6.4,0.9,11.5,2.8,15.2c1.9,3.7,6,5.6,12.4,5.6H1403.1z"/>
					</g>
					<g>
						
							<linearGradient id="SVGID_00000080178325786318707850000003177830489662194070_" gradientUnits="userSpaceOnUse" x1="1969.8491" y1="54.3813" x2="1969.8491" y2="838.0753">
							<stop  offset="0" style="stop-color:#23BFD4"/>
							<stop  offset="0.7031" style="stop-color:#3F4DA0"/>
						</linearGradient>
						<path style="fill:url(#SVGID_00000080178325786318707850000003177830489662194070_);" d="M2074.9,723.4
							c13.8-5.6,25.2-13.4,34-23.6c8.8-10.1,15.2-22.1,19.2-35.9c4-13.8,6-28.8,6-44.7V273.3c0-16-2-30.9-6-44.7
							c-4-13.8-10.4-25.8-19.2-35.9c-8.8-10.1-20.2-18-34.3-23.6c-14.1-5.6-31.3-8.4-51.5-8.4h-318V54.4h307.6
							c38.9,0,72.3,4.3,100.3,12.8c28,8.5,51,22.4,69.1,41.5c18.1,19.2,31.4,44.1,39.9,74.7c8.5,30.6,12.8,68,12.8,112.2v301.2
							c0,42.6-4.3,79.2-12.8,109.8c-8.5,30.6-21.8,55.7-39.9,75.1c-18.1,19.4-41.1,33.7-69.1,42.7c-28,9.1-61.4,13.6-100.3,13.6
							H1705V321.2h100.7v410.6h218.1C2044,731.8,2061,729,2074.9,723.4z M1705,295.6V189.4h307.6c18.6,0,34,2.5,45.9,7.6
							c12,5.1,21.4,12.1,28.4,21.2c6.9,9.1,11.7,19.7,14.4,32c2.7,12.3,4,25.3,4,39.1v314c0,18.6-1.3,34.2-4,46.7
							c-2.7,12.5-7.3,22.8-14,30.8c-6.7,8-16,13.7-28,17.2c-12,3.5-27.3,5.2-45.9,5.2h-178.9V321.2h111.8V576
							c0,13.9,6.7,20.8,20,20.8h17.6c6.4,0,11.6-1.9,15.6-5.6c4-3.7,6-8.8,6-15.2V316.4c0-6.4-2-11.4-6-15.2
							c-4-3.7-9.2-5.6-15.6-5.6H1705z"/>
					</g>
					<g>
						
							<linearGradient id="SVGID_00000123419033248048902510000011105291811580747708_" gradientUnits="userSpaceOnUse" x1="2547.4253" y1="54.3813" x2="2547.4253" y2="838.0753">
							<stop  offset="0" style="stop-color:#23BFD4"/>
							<stop  offset="0.7031" style="stop-color:#3F4DA0"/>
						</linearGradient>
						<path style="fill:url(#SVGID_00000123419033248048902510000011105291811580747708_);" d="M2285,295.6
							c0-33.6,6.1-65.1,18.4-94.7c12.2-29.6,28.6-55.1,49.1-76.7c20.5-21.6,44.2-38.6,71.1-51.1c26.9-12.5,54.7-18.8,83.5-18.8
							h302.8v106.3h-290c-20.2,0-38.3,4-54.3,12c-16,8-29.4,18.4-40.3,31.2c-10.9,12.8-19.3,27.3-25.2,43.5
							c-5.9,16.3-8.8,32.4-8.8,48.3v301.2c0,16,2.9,32.1,8.8,48.3c5.9,16.3,14.2,30.8,25.2,43.5c10.9,12.8,24.4,23.2,40.3,31.2
							c16,8,34.1,12,54.3,12h290v106.2h-302.8c-28.8,0-56.6-6.3-83.5-18.8c-26.9-12.5-50.6-29.6-71.1-51.1
							c-20.5-21.6-36.9-47.1-49.1-76.7c-12.3-29.6-18.4-61.1-18.4-94.7V295.6z M2420,433V311.6c0-13.8,2.3-28.1,6.8-42.7
							c4.5-14.6,11.3-27.8,20.4-39.5c9-11.7,20.5-21.3,34.4-28.8c13.8-7.5,30.1-11.2,48.7-11.2h279.6v106.2h-277.2
							c-3.2,0-6.5,1.9-10,5.6c-3.5,3.7-5.2,8.8-5.2,15.2v11.2h231.7V433H2420z M2420,459.4h329.1v106.2h-231.7V576
							c0,6.4,1.7,11.5,5.2,15.2c3.5,3.7,6.8,5.6,10,5.6h277.2v106.3h-279.6c-18.6,0-34.9-3.7-48.7-11.2c-13.9-7.5-25.3-17-34.4-28.8
							c-9.1-11.7-15.9-24.9-20.4-39.5c-4.5-14.6-6.8-28.9-6.8-42.7V459.4z"/>
					</g>
					<g>
						
							<linearGradient id="SVGID_00000150091528636588517300000002603485840813535394_" gradientUnits="userSpaceOnUse" x1="3126.6047" y1="54.3813" x2="3126.6047" y2="838.0753">
							<stop  offset="0" style="stop-color:#23BFD4"/>
							<stop  offset="0.7031" style="stop-color:#3F4DA0"/>
						</linearGradient>
						<path style="fill:url(#SVGID_00000150091528636588517300000002603485840813535394_);" d="M3389,838.1h-302.8
							c-28.8,0-56.6-6.3-83.5-18.8c-26.9-12.5-50.6-29.6-71.1-51.1c-20.5-21.6-36.9-47.1-49.1-76.7c-12.3-29.6-18.4-61.1-18.4-94.7
							V54.4h106.3v542.4c0,16,2.9,32.1,8.8,48.3c5.9,16.3,14.2,30.8,25.2,43.5c10.9,12.8,24.4,23.2,40.3,31.2c16,8,34.1,12,54.3,12
							h290V838.1z M3123.8,596.8H3389v106.3h-279.6c-18.6,0-34.9-3.7-48.7-11.2c-13.9-7.5-25.3-17-34.4-28.8
							c-9.1-11.7-15.9-24.9-20.4-39.5c-4.5-14.6-6.8-28.9-6.8-42.7V54.4h109.4V576c0,6.4,1.7,11.3,5.2,14.8c3.5,3.5,6.8,5.2,10,5.2
							V596.8z"/>
					</g>
					
						<linearGradient id="SVGID_00000080898706495979656130000013001252874423947416_" gradientUnits="userSpaceOnUse" x1="3608.0649" y1="838.0753" x2="3608.0649" y2="54.3722">
						<stop  offset="0" style="stop-color:#1C639E"/>
						<stop  offset="1" style="stop-color:#26B3CF"/>
					</linearGradient>
					<path style="fill:url(#SVGID_00000080898706495979656130000013001252874423947416_);" d="M3784.6,838.1h-106.3V295.7
						c0-16-2.9-32.1-8.8-48.3c-5.9-16.2-14.2-30.8-25.2-43.5c-10.9-12.8-24.4-23.2-40.3-31.2c-16-8-34.1-12-54.3-12l-118.3,0V54.4
						l131.1,0c28.8,0,56.6,6.3,83.5,18.8c26.9,12.5,50.6,29.6,71.1,51.1c20.5,21.6,36.9,47.1,49.1,76.7
						c12.3,29.6,18.4,61.1,18.4,94.7V838.1z M3552.2,576.1V316.4c0-6.4-1.7-11.4-5.2-15.2c-3.5-3.7-6.8-5.6-10-5.6l-105.5,0V189.4
						l107.9,0c18.6,0,34.9,3.7,48.7,11.2c13.9,7.5,25.3,17.1,34.4,28.8c9.1,11.7,15.9,24.9,20.4,39.5c4.5,14.7,6.8,28.9,6.8,42.7
						v235.6 M3649.6,499.1v339l-97.5,0V565.7"/>
				</g>
				<g>
					<g>
						<g class="st16">
							
								<linearGradient id="SVGID_00000170281073562520958110000009542027698047279756_" gradientUnits="userSpaceOnUse" x1="601.7981" y1="54.3813" x2="601.7981" y2="838.0753">
								<stop  offset="0" style="stop-color:#0094BF"/>
								<stop  offset="2.865892e-02" style="stop-color:#0090BD;stop-opacity:0.5"/>
								<stop  offset="1" style="stop-color:#282A71"/>
							</linearGradient>
							<path style="display:inline;fill:url(#SVGID_00000170281073562520958110000009542027698047279756_);" d="M601.8,487.4
								l-114.2-306c-2.1-5.3-6.7-10.1-13.6-14.4c-6.9-4.3-14.7-6.4-23.2-6.4c-7.5,0-15.2,2.1-23.2,6.4c-8,4.3-12.8,9.1-14.4,14.4
								L183.2,838.1H76.9l246.9-696.6c4.3-11.2,9.8-22,16.8-32.4c6.9-10.4,15.6-19.7,26-28c10.4-8.3,22.5-14.8,36.3-19.6
								c13.8-4.8,29.8-7.2,47.9-7.2c18.1,0,33.8,2.4,47.1,7.2c13.3,4.8,25,11.3,35.2,19.6c10.1,8.3,18.8,17.6,26,28
								c7.2,10.4,13.4,21.2,18.8,32.4l24,47.9l24-47.9c5.9-11.2,12.4-22,19.6-32.4s15.7-19.7,25.6-28c9.8-8.3,21.4-14.8,34.8-19.6
								c13.3-4.8,29-7.2,47.1-7.2c17.6,0,33.4,2.4,47.5,7.2c14.1,4.8,26.4,11.3,36.7,19.6c10.4,8.3,19.2,17.6,26.4,28
								c7.2,10.4,12.6,21.2,16.4,32.4l246.9,696.6h-106.3L790.3,181.4c-1.6-5.3-6.4-10.1-14.4-14.4c-8-4.3-15.7-6.4-23.2-6.4
								c-8.5,0-16.3,2.1-23.2,6.4c-6.9,4.3-11.5,9.1-13.6,14.4L601.8,487.4z M601.8,838.1l-151-402.6L318.2,838.1H211.9l218.9-636.7
								c1.1-3.2,3.7-6,8-8.4c4.3-2.4,8.3-3.6,12-3.6c3.7,0,7.6,1.2,11.6,3.6c4,2.4,6.5,5.2,7.6,8.4l131.8,363.5l131.8-363.5
								c1.1-3.2,3.6-6,7.6-8.4c4-2.4,7.9-3.6,11.6-3.6c3.7,0,7.7,1.2,12,3.6c4.3,2.4,6.9,5.2,8,8.4l218.9,636.7H889.4L752.8,435.4
								L601.8,838.1z"/>
							
								<linearGradient id="SVGID_00000030477007269576747900000012557292582736692402_" gradientUnits="userSpaceOnUse" x1="1377.4949" y1="54.3813" x2="1377.4949" y2="838.0753">
								<stop  offset="0" style="stop-color:#0094BF"/>
								<stop  offset="2.865892e-02" style="stop-color:#0090BD;stop-opacity:0.5"/>
								<stop  offset="1" style="stop-color:#282A71"/>
							</linearGradient>
							<path style="display:inline;fill:url(#SVGID_00000030477007269576747900000012557292582736692402_);" d="M1227.3,824.5
								c-27.7-9-50.7-23.3-69.1-42.7c-18.4-19.4-32-44.5-40.7-75.1c-8.8-30.6-13.2-67.2-13.2-109.8V295.6
								c0-44.2,4.4-81.6,13.2-112.2c8.8-30.6,22.4-55.5,40.7-74.7c18.4-19.2,41.4-33,69.1-41.5c27.7-8.5,60.7-12.8,99.1-12.8h102.3
								c38.9,0,72.3,4.3,100.3,12.8c28,8.5,51,22.4,69.1,41.5c18.1,19.2,31.4,44.1,39.9,74.7c8.5,30.6,12.8,68,12.8,112.2v301.2
								c0,42.6-4.3,79.2-12.8,109.8c-8.5,30.6-21.8,55.7-39.9,75.1c-18.1,19.4-41.1,33.7-69.1,42.7c-28,9.1-61.4,13.6-100.3,13.6
								h-102.3C1288,838.1,1255,833.6,1227.3,824.5z M1439.8,731.8c20.2,0,37.3-2.8,51.1-8.4c13.8-5.6,25.2-13.4,34-23.6
								c8.8-10.1,15.2-22.1,19.2-35.9c4-13.8,6-28.8,6-44.7V273.3c0-16-2-30.9-6-44.7c-4-13.8-10.4-25.8-19.2-35.9
								c-8.8-10.1-20.2-18-34.4-23.6c-14.1-5.6-31.3-8.4-51.5-8.4h-123c-20.2,0-37.4,2.8-51.5,8.4c-14.1,5.6-25.6,13.5-34.4,23.6
								c-8.8,10.1-15.2,22.1-19.2,35.9c-4,13.9-6,28.8-6,44.7v345.9c0,16,2,30.9,6,44.7c4,13.9,10.4,25.8,19.2,35.9
								c8.8,10.1,20.1,18,34,23.6c13.8,5.6,30.9,8.4,51.1,8.4h62.3H1439.8z M1325.6,703.1c-18.6,0-34-1.7-45.9-5.2
								c-12-3.5-21.3-9.2-28-17.2c-6.7-8-11.3-18.2-14-30.8c-2.7-12.5-4-28.1-4-46.7v-314c0-13.8,1.3-26.9,4-39.1
								c2.7-12.2,7.5-22.9,14.4-32c6.9-9,16.4-16.1,28.4-21.2c12-5.1,27.3-7.6,45.9-7.6h51.1h51.1c18.6,0,34,2.5,45.9,7.6
								c12,5.1,21.4,12.1,28.4,21.2c6.9,9.1,11.7,19.7,14.4,32c2.7,12.3,4,25.3,4,39.1v314c0,18.6-1.3,34.2-4,46.7
								c-2.7,12.5-7.3,22.8-14,30.8c-6.7,8-16,13.7-28,17.2c-12,3.5-27.3,5.2-45.9,5.2H1325.6z M1403.1,596.8
								c6.4,0,10.5-1.9,12.4-5.6c1.9-3.7,2.8-8.8,2.8-15.2V316.4c0-6.4-0.9-11.4-2.8-15.2c-1.9-3.7-6-5.6-12.4-5.6h-51.1
								c-6.4,0-10.5,1.9-12.4,5.6c-1.9,3.7-2.8,8.8-2.8,15.2V576c0,6.4,0.9,11.5,2.8,15.2c1.9,3.7,6,5.6,12.4,5.6H1403.1z"/>
							
								<linearGradient id="SVGID_00000026146292112639577520000001645748998248197763_" gradientUnits="userSpaceOnUse" x1="1969.8491" y1="54.3813" x2="1969.8491" y2="838.0753">
								<stop  offset="0" style="stop-color:#0094BF"/>
								<stop  offset="2.865892e-02" style="stop-color:#0090BD;stop-opacity:0.5"/>
								<stop  offset="1" style="stop-color:#282A71"/>
							</linearGradient>
							<path style="display:inline;fill:url(#SVGID_00000026146292112639577520000001645748998248197763_);" d="M2074.9,723.4
								c13.8-5.6,25.2-13.4,34-23.6c8.8-10.1,15.2-22.1,19.2-35.9c4-13.8,6-28.8,6-44.7V273.3c0-16-2-30.9-6-44.7
								c-4-13.8-10.4-25.8-19.2-35.9c-8.8-10.1-20.2-18-34.3-23.6c-14.1-5.6-31.3-8.4-51.5-8.4h-318V54.4h307.6
								c38.9,0,72.3,4.3,100.3,12.8c28,8.5,51,22.4,69.1,41.5c18.1,19.2,31.4,44.1,39.9,74.7c8.5,30.6,12.8,68,12.8,112.2v301.2
								c0,42.6-4.3,79.2-12.8,109.8c-8.5,30.6-21.8,55.7-39.9,75.1c-18.1,19.4-41.1,33.7-69.1,42.7c-28,9.1-61.4,13.6-100.3,13.6
								H1705V321.2h100.7v410.6h218.1C2044,731.8,2061,729,2074.9,723.4z M1705,295.6V189.4h307.6c18.6,0,34,2.5,45.9,7.6
								c12,5.1,21.4,12.1,28.4,21.2c6.9,9.1,11.7,19.7,14.4,32c2.7,12.3,4,25.3,4,39.1v314c0,18.6-1.3,34.2-4,46.7
								c-2.7,12.5-7.3,22.8-14,30.8c-6.7,8-16,13.7-28,17.2c-12,3.5-27.3,5.2-45.9,5.2h-178.9V321.2h111.8V576
								c0,13.9,6.7,20.8,20,20.8h17.6c6.4,0,11.6-1.9,15.6-5.6c4-3.7,6-8.8,6-15.2V316.4c0-6.4-2-11.4-6-15.2
								c-4-3.7-9.2-5.6-15.6-5.6H1705z"/>
							
								<linearGradient id="SVGID_00000017477545611981149500000017757383027884576135_" gradientUnits="userSpaceOnUse" x1="2547.4253" y1="54.3813" x2="2547.4253" y2="838.0753">
								<stop  offset="0" style="stop-color:#0094BF"/>
								<stop  offset="2.865892e-02" style="stop-color:#0090BD;stop-opacity:0.5"/>
								<stop  offset="1" style="stop-color:#282A71"/>
							</linearGradient>
							<path style="display:inline;fill:url(#SVGID_00000017477545611981149500000017757383027884576135_);" d="M2285,295.6
								c0-33.6,6.1-65.1,18.4-94.7c12.2-29.6,28.6-55.1,49.1-76.7c20.5-21.6,44.2-38.6,71.1-51.1c26.9-12.5,54.7-18.8,83.5-18.8
								h302.8v106.3h-290c-20.2,0-38.3,4-54.3,12c-16,8-29.4,18.4-40.3,31.2c-10.9,12.8-19.3,27.3-25.2,43.5
								c-5.9,16.3-8.8,32.4-8.8,48.3v301.2c0,16,2.9,32.1,8.8,48.3c5.9,16.3,14.2,30.8,25.2,43.5c10.9,12.8,24.4,23.2,40.3,31.2
								c16,8,34.1,12,54.3,12h290v106.2h-302.8c-28.8,0-56.6-6.3-83.5-18.8c-26.9-12.5-50.6-29.6-71.1-51.1
								c-20.5-21.6-36.9-47.1-49.1-76.7c-12.3-29.6-18.4-61.1-18.4-94.7V295.6z M2420,433V311.6c0-13.8,2.3-28.1,6.8-42.7
								c4.5-14.6,11.3-27.8,20.4-39.5c9-11.7,20.5-21.3,34.4-28.8c13.8-7.5,30.1-11.2,48.7-11.2h279.6v106.2h-277.2
								c-3.2,0-6.5,1.9-10,5.6c-3.5,3.7-5.2,8.8-5.2,15.2v11.2h231.7V433H2420z M2420,459.4h329.1v106.2h-231.7V576
								c0,6.4,1.7,11.5,5.2,15.2c3.5,3.7,6.8,5.6,10,5.6h277.2v106.3h-279.6c-18.6,0-34.9-3.7-48.7-11.2
								c-13.9-7.5-25.3-17-34.4-28.8c-9.1-11.7-15.9-24.9-20.4-39.5c-4.5-14.6-6.8-28.9-6.8-42.7V459.4z"/>
							
								<linearGradient id="SVGID_00000176022110896151961910000014242500941847177347_" gradientUnits="userSpaceOnUse" x1="3126.6047" y1="54.3813" x2="3126.6047" y2="838.0753">
								<stop  offset="0" style="stop-color:#0094BF"/>
								<stop  offset="2.865892e-02" style="stop-color:#0090BD;stop-opacity:0.5"/>
								<stop  offset="1" style="stop-color:#282A71"/>
							</linearGradient>
							<path style="display:inline;fill:url(#SVGID_00000176022110896151961910000014242500941847177347_);" d="M3389,838.1h-302.8
								c-28.8,0-56.6-6.3-83.5-18.8c-26.9-12.5-50.6-29.6-71.1-51.1c-20.5-21.6-36.9-47.1-49.1-76.7c-12.3-29.6-18.4-61.1-18.4-94.7
								V54.4h106.3v542.4c0,16,2.9,32.1,8.8,48.3c5.9,16.3,14.2,30.8,25.2,43.5c10.9,12.8,24.4,23.2,40.3,31.2c16,8,34.1,12,54.3,12
								h290V838.1z M3123.8,596.8H3389v106.3h-279.6c-18.6,0-34.9-3.7-48.7-11.2c-13.9-7.5-25.3-17-34.4-28.8
								c-9.1-11.7-15.9-24.9-20.4-39.5c-4.5-14.6-6.8-28.9-6.8-42.7V54.4h109.4V576c0,6.4,1.7,11.3,5.2,14.8c3.5,3.5,6.8,5.2,10,5.2
								V596.8z"/>
						</g>
						<g>
							
								<linearGradient id="SVGID_00000147903637448066166940000014083345230750929041_" gradientUnits="userSpaceOnUse" x1="601.7981" y1="54.3813" x2="601.7981" y2="838.0753">
								<stop  offset="0" style="stop-color:#0094BF"/>
								<stop  offset="2.865892e-02" style="stop-color:#0090BD;stop-opacity:0.5"/>
								<stop  offset="1" style="stop-color:#282A71"/>
							</linearGradient>
							<path style="fill:url(#SVGID_00000147903637448066166940000014083345230750929041_);" d="M601.8,487.4l-114.2-306
								c-2.1-5.3-6.7-10.1-13.6-14.4c-6.9-4.3-14.7-6.4-23.2-6.4c-7.5,0-15.2,2.1-23.2,6.4c-8,4.3-12.8,9.1-14.4,14.4L183.2,838.1
								H76.9l246.9-696.6c4.3-11.2,9.8-22,16.8-32.4c6.9-10.4,15.6-19.7,26-28c10.4-8.3,22.5-14.8,36.3-19.6
								c13.8-4.8,29.8-7.2,47.9-7.2c18.1,0,33.8,2.4,47.1,7.2c13.3,4.8,25,11.3,35.2,19.6c10.1,8.3,18.8,17.6,26,28
								c7.2,10.4,13.4,21.2,18.8,32.4l24,47.9l24-47.9c5.9-11.2,12.4-22,19.6-32.4s15.7-19.7,25.6-28c9.8-8.3,21.4-14.8,34.8-19.6
								c13.3-4.8,29-7.2,47.1-7.2c17.6,0,33.4,2.4,47.5,7.2c14.1,4.8,26.4,11.3,36.7,19.6c10.4,8.3,19.2,17.6,26.4,28
								c7.2,10.4,12.6,21.2,16.4,32.4l246.9,696.6h-106.3L790.3,181.4c-1.6-5.3-6.4-10.1-14.4-14.4c-8-4.3-15.7-6.4-23.2-6.4
								c-8.5,0-16.3,2.1-23.2,6.4c-6.9,4.3-11.5,9.1-13.6,14.4L601.8,487.4z M601.8,838.1l-151-402.6L318.2,838.1H211.9l218.9-636.7
								c1.1-3.2,3.7-6,8-8.4c4.3-2.4,8.3-3.6,12-3.6c3.7,0,7.6,1.2,11.6,3.6c4,2.4,6.5,5.2,7.6,8.4l131.8,363.5l131.8-363.5
								c1.1-3.2,3.6-6,7.6-8.4c4-2.4,7.9-3.6,11.6-3.6c3.7,0,7.7,1.2,12,3.6c4.3,2.4,6.9,5.2,8,8.4l218.9,636.7H889.4L752.8,435.4
								L601.8,838.1z"/>
							
								<linearGradient id="SVGID_00000125568305713401643570000008015711332196195222_" gradientUnits="userSpaceOnUse" x1="1377.4949" y1="54.3813" x2="1377.4949" y2="838.0753">
								<stop  offset="0" style="stop-color:#0094BF"/>
								<stop  offset="2.865892e-02" style="stop-color:#0090BD;stop-opacity:0.5"/>
								<stop  offset="1" style="stop-color:#282A71"/>
							</linearGradient>
							<path style="fill:url(#SVGID_00000125568305713401643570000008015711332196195222_);" d="M1227.3,824.5
								c-27.7-9-50.7-23.3-69.1-42.7c-18.4-19.4-32-44.5-40.7-75.1c-8.8-30.6-13.2-67.2-13.2-109.8V295.6
								c0-44.2,4.4-81.6,13.2-112.2c8.8-30.6,22.4-55.5,40.7-74.7c18.4-19.2,41.4-33,69.1-41.5c27.7-8.5,60.7-12.8,99.1-12.8h102.3
								c38.9,0,72.3,4.3,100.3,12.8c28,8.5,51,22.4,69.1,41.5c18.1,19.2,31.4,44.1,39.9,74.7c8.5,30.6,12.8,68,12.8,112.2v301.2
								c0,42.6-4.3,79.2-12.8,109.8c-8.5,30.6-21.8,55.7-39.9,75.1c-18.1,19.4-41.1,33.7-69.1,42.7c-28,9.1-61.4,13.6-100.3,13.6
								h-102.3C1288,838.1,1255,833.6,1227.3,824.5z M1439.8,731.8c20.2,0,37.3-2.8,51.1-8.4c13.8-5.6,25.2-13.4,34-23.6
								c8.8-10.1,15.2-22.1,19.2-35.9c4-13.8,6-28.8,6-44.7V273.3c0-16-2-30.9-6-44.7c-4-13.8-10.4-25.8-19.2-35.9
								c-8.8-10.1-20.2-18-34.4-23.6c-14.1-5.6-31.3-8.4-51.5-8.4h-123c-20.2,0-37.4,2.8-51.5,8.4c-14.1,5.6-25.6,13.5-34.4,23.6
								c-8.8,10.1-15.2,22.1-19.2,35.9c-4,13.9-6,28.8-6,44.7v345.9c0,16,2,30.9,6,44.7c4,13.9,10.4,25.8,19.2,35.9
								c8.8,10.1,20.1,18,34,23.6c13.8,5.6,30.9,8.4,51.1,8.4h62.3H1439.8z M1325.6,703.1c-18.6,0-34-1.7-45.9-5.2
								c-12-3.5-21.3-9.2-28-17.2c-6.7-8-11.3-18.2-14-30.8c-2.7-12.5-4-28.1-4-46.7v-314c0-13.8,1.3-26.9,4-39.1
								c2.7-12.2,7.5-22.9,14.4-32c6.9-9,16.4-16.1,28.4-21.2c12-5.1,27.3-7.6,45.9-7.6h51.1h51.1c18.6,0,34,2.5,45.9,7.6
								c12,5.1,21.4,12.1,28.4,21.2c6.9,9.1,11.7,19.7,14.4,32c2.7,12.3,4,25.3,4,39.1v314c0,18.6-1.3,34.2-4,46.7
								c-2.7,12.5-7.3,22.8-14,30.8c-6.7,8-16,13.7-28,17.2c-12,3.5-27.3,5.2-45.9,5.2H1325.6z M1403.1,596.8
								c6.4,0,10.5-1.9,12.4-5.6c1.9-3.7,2.8-8.8,2.8-15.2V316.4c0-6.4-0.9-11.4-2.8-15.2c-1.9-3.7-6-5.6-12.4-5.6h-51.1
								c-6.4,0-10.5,1.9-12.4,5.6c-1.9,3.7-2.8,8.8-2.8,15.2V576c0,6.4,0.9,11.5,2.8,15.2c1.9,3.7,6,5.6,12.4,5.6H1403.1z"/>
							
								<linearGradient id="SVGID_00000018223203807140883420000015948598746481082026_" gradientUnits="userSpaceOnUse" x1="1969.8491" y1="54.3813" x2="1969.8491" y2="838.0753">
								<stop  offset="0" style="stop-color:#0094BF"/>
								<stop  offset="2.865892e-02" style="stop-color:#0090BD;stop-opacity:0.5"/>
								<stop  offset="1" style="stop-color:#282A71"/>
							</linearGradient>
							<path style="fill:url(#SVGID_00000018223203807140883420000015948598746481082026_);" d="M2074.9,723.4
								c13.8-5.6,25.2-13.4,34-23.6c8.8-10.1,15.2-22.1,19.2-35.9c4-13.8,6-28.8,6-44.7V273.3c0-16-2-30.9-6-44.7
								c-4-13.8-10.4-25.8-19.2-35.9c-8.8-10.1-20.2-18-34.3-23.6c-14.1-5.6-31.3-8.4-51.5-8.4h-318V54.4h307.6
								c38.9,0,72.3,4.3,100.3,12.8c28,8.5,51,22.4,69.1,41.5c18.1,19.2,31.4,44.1,39.9,74.7c8.5,30.6,12.8,68,12.8,112.2v301.2
								c0,42.6-4.3,79.2-12.8,109.8c-8.5,30.6-21.8,55.7-39.9,75.1c-18.1,19.4-41.1,33.7-69.1,42.7c-28,9.1-61.4,13.6-100.3,13.6
								H1705V321.2h100.7v410.6h218.1C2044,731.8,2061,729,2074.9,723.4z M1705,295.6V189.4h307.6c18.6,0,34,2.5,45.9,7.6
								c12,5.1,21.4,12.1,28.4,21.2c6.9,9.1,11.7,19.7,14.4,32c2.7,12.3,4,25.3,4,39.1v314c0,18.6-1.3,34.2-4,46.7
								c-2.7,12.5-7.3,22.8-14,30.8c-6.7,8-16,13.7-28,17.2c-12,3.5-27.3,5.2-45.9,5.2h-178.9V321.2h111.8V576
								c0,13.9,6.7,20.8,20,20.8h17.6c6.4,0,11.6-1.9,15.6-5.6c4-3.7,6-8.8,6-15.2V316.4c0-6.4-2-11.4-6-15.2
								c-4-3.7-9.2-5.6-15.6-5.6H1705z"/>
							
								<linearGradient id="SVGID_00000017512753330254169380000012664455774566401930_" gradientUnits="userSpaceOnUse" x1="2547.4253" y1="54.3813" x2="2547.4253" y2="838.0753">
								<stop  offset="0" style="stop-color:#0094BF"/>
								<stop  offset="2.865892e-02" style="stop-color:#0090BD;stop-opacity:0.5"/>
								<stop  offset="1" style="stop-color:#282A71"/>
							</linearGradient>
							<path style="fill:url(#SVGID_00000017512753330254169380000012664455774566401930_);" d="M2285,295.6
								c0-33.6,6.1-65.1,18.4-94.7c12.2-29.6,28.6-55.1,49.1-76.7c20.5-21.6,44.2-38.6,71.1-51.1c26.9-12.5,54.7-18.8,83.5-18.8
								h302.8v106.3h-290c-20.2,0-38.3,4-54.3,12c-16,8-29.4,18.4-40.3,31.2c-10.9,12.8-19.3,27.3-25.2,43.5
								c-5.9,16.3-8.8,32.4-8.8,48.3v301.2c0,16,2.9,32.1,8.8,48.3c5.9,16.3,14.2,30.8,25.2,43.5c10.9,12.8,24.4,23.2,40.3,31.2
								c16,8,34.1,12,54.3,12h290v106.2h-302.8c-28.8,0-56.6-6.3-83.5-18.8c-26.9-12.5-50.6-29.6-71.1-51.1
								c-20.5-21.6-36.9-47.1-49.1-76.7c-12.3-29.6-18.4-61.1-18.4-94.7V295.6z M2420,433V311.6c0-13.8,2.3-28.1,6.8-42.7
								c4.5-14.6,11.3-27.8,20.4-39.5c9-11.7,20.5-21.3,34.4-28.8c13.8-7.5,30.1-11.2,48.7-11.2h279.6v106.2h-277.2
								c-3.2,0-6.5,1.9-10,5.6c-3.5,3.7-5.2,8.8-5.2,15.2v11.2h231.7V433H2420z M2420,459.4h329.1v106.2h-231.7V576
								c0,6.4,1.7,11.5,5.2,15.2c3.5,3.7,6.8,5.6,10,5.6h277.2v106.3h-279.6c-18.6,0-34.9-3.7-48.7-11.2
								c-13.9-7.5-25.3-17-34.4-28.8c-9.1-11.7-15.9-24.9-20.4-39.5c-4.5-14.6-6.8-28.9-6.8-42.7V459.4z"/>
							
								<linearGradient id="SVGID_00000129886754210153934030000009398774177944710591_" gradientUnits="userSpaceOnUse" x1="3126.6047" y1="54.3813" x2="3126.6047" y2="838.0753">
								<stop  offset="0" style="stop-color:#0094BF"/>
								<stop  offset="2.865892e-02" style="stop-color:#0090BD;stop-opacity:0.5"/>
								<stop  offset="1" style="stop-color:#282A71"/>
							</linearGradient>
							<path style="fill:url(#SVGID_00000129886754210153934030000009398774177944710591_);" d="M3389,838.1h-302.8
								c-28.8,0-56.6-6.3-83.5-18.8c-26.9-12.5-50.6-29.6-71.1-51.1c-20.5-21.6-36.9-47.1-49.1-76.7c-12.3-29.6-18.4-61.1-18.4-94.7
								V54.4h106.3v542.4c0,16,2.9,32.1,8.8,48.3c5.9,16.3,14.2,30.8,25.2,43.5c10.9,12.8,24.4,23.2,40.3,31.2c16,8,34.1,12,54.3,12
								h290V838.1z M3123.8,596.8H3389v106.3h-279.6c-18.6,0-34.9-3.7-48.7-11.2c-13.9-7.5-25.3-17-34.4-28.8
								c-9.1-11.7-15.9-24.9-20.4-39.5c-4.5-14.6-6.8-28.9-6.8-42.7V54.4h109.4V576c0,6.4,1.7,11.3,5.2,14.8c3.5,3.5,6.8,5.2,10,5.2
								V596.8z"/>
							
								<linearGradient id="SVGID_00000003100406620560580240000003935742814572186253_" gradientUnits="userSpaceOnUse" x1="3608.0649" y1="54.3722" x2="3608.0649" y2="838.0753">
								<stop  offset="0" style="stop-color:#0094BF"/>
								<stop  offset="2.865892e-02" style="stop-color:#0090BD;stop-opacity:0.5"/>
								<stop  offset="1" style="stop-color:#282A71"/>
							</linearGradient>
							<path style="fill:url(#SVGID_00000003100406620560580240000003935742814572186253_);" d="M3784.6,838.1h-106.3V295.7
								c0-16-2.9-32.1-8.8-48.3c-5.9-16.2-14.2-30.8-25.2-43.5c-10.9-12.8-24.4-23.2-40.3-31.2c-16-8-34.1-12-54.3-12l-118.3,0V54.4
								l131.1,0c28.8,0,56.6,6.3,83.5,18.8c26.9,12.5,50.6,29.6,71.1,51.1c20.5,21.6,36.9,47.1,49.1,76.7
								c12.3,29.6,18.4,61.1,18.4,94.7V838.1z M3552.2,576.1V316.4c0-6.4-1.7-11.4-5.2-15.2c-3.5-3.7-6.8-5.6-10-5.6l-105.5,0V189.4
								l107.9,0c18.6,0,34.9,3.7,48.7,11.2c13.9,7.5,25.3,17.1,34.4,28.8c9.1,11.7,15.9,24.9,20.4,39.5c4.5,14.7,6.8,28.9,6.8,42.7
								v235.6 M3649.6,499.1v339l-97.5,0V565.7"/>
						</g>
					</g>
				</g>
				<g>
					<g>
						<path class="st69" d="M601.8,487.4l-114.2-306c-2.1-5.3-6.7-10.1-13.6-14.4c-6.9-4.3-14.7-6.4-23.2-6.4
							c-7.5,0-15.2,2.1-23.2,6.4c-8,4.3-12.8,9.1-14.4,14.4L183.2,838.1H76.9l246.9-696.6c4.3-11.2,9.8-22,16.8-32.4
							c6.9-10.4,15.6-19.7,26-28c10.4-8.3,22.5-14.8,36.3-19.6c13.8-4.8,29.8-7.2,47.9-7.2c18.1,0,33.8,2.4,47.1,7.2
							c13.3,4.8,25,11.3,35.2,19.6c10.1,8.3,18.8,17.6,26,28c7.2,10.4,13.4,21.2,18.8,32.4l24,47.9l24-47.9
							c5.9-11.2,12.4-22,19.6-32.4s15.7-19.7,25.6-28c9.8-8.3,21.4-14.8,34.8-19.6c13.3-4.8,29-7.2,47.1-7.2
							c17.6,0,33.4,2.4,47.5,7.2c14.1,4.8,26.4,11.3,36.7,19.6c10.4,8.3,19.2,17.6,26.4,28c7.2,10.4,12.6,21.2,16.4,32.4
							l246.9,696.6h-106.3L790.3,181.4c-1.6-5.3-6.4-10.1-14.4-14.4c-8-4.3-15.7-6.4-23.2-6.4c-8.5,0-16.3,2.1-23.2,6.4
							c-6.9,4.3-11.5,9.1-13.6,14.4L601.8,487.4z M601.8,838.1l-151-402.6L318.2,838.1H211.9l218.9-636.7c1.1-3.2,3.7-6,8-8.4
							c4.3-2.4,8.3-3.6,12-3.6c3.7,0,7.6,1.2,11.6,3.6c4,2.4,6.5,5.2,7.6,8.4l131.8,363.5l131.8-363.5c1.1-3.2,3.6-6,7.6-8.4
							c4-2.4,7.9-3.6,11.6-3.6c3.7,0,7.7,1.2,12,3.6c4.3,2.4,6.9,5.2,8,8.4l218.9,636.7H889.4L752.8,435.4L601.8,838.1z"/>
						<path class="st69" d="M1227.3,824.5c-27.7-9-50.7-23.3-69.1-42.7c-18.4-19.4-32-44.5-40.7-75.1
							c-8.8-30.6-13.2-67.2-13.2-109.8V295.6c0-44.2,4.4-81.6,13.2-112.2c8.8-30.6,22.4-55.5,40.7-74.7c18.4-19.2,41.4-33,69.1-41.5
							c27.7-8.5,60.7-12.8,99.1-12.8h102.3c38.9,0,72.3,4.3,100.3,12.8c28,8.5,51,22.4,69.1,41.5c18.1,19.2,31.4,44.1,39.9,74.7
							c8.5,30.6,12.8,68,12.8,112.2v301.2c0,42.6-4.3,79.2-12.8,109.8c-8.5,30.6-21.8,55.7-39.9,75.1
							c-18.1,19.4-41.1,33.7-69.1,42.7c-28,9.1-61.4,13.6-100.3,13.6h-102.3C1288,838.1,1255,833.6,1227.3,824.5z M1439.8,731.8
							c20.2,0,37.3-2.8,51.1-8.4c13.8-5.6,25.2-13.4,34-23.6c8.8-10.1,15.2-22.1,19.2-35.9c4-13.8,6-28.8,6-44.7V273.3
							c0-16-2-30.9-6-44.7c-4-13.8-10.4-25.8-19.2-35.9c-8.8-10.1-20.2-18-34.4-23.6c-14.1-5.6-31.3-8.4-51.5-8.4h-123
							c-20.2,0-37.4,2.8-51.5,8.4c-14.1,5.6-25.6,13.5-34.4,23.6c-8.8,10.1-15.2,22.1-19.2,35.9c-4,13.9-6,28.8-6,44.7v345.9
							c0,16,2,30.9,6,44.7c4,13.9,10.4,25.8,19.2,35.9c8.8,10.1,20.1,18,34,23.6c13.8,5.6,30.9,8.4,51.1,8.4h62.3H1439.8z
							 M1325.6,703.1c-18.6,0-34-1.7-45.9-5.2c-12-3.5-21.3-9.2-28-17.2c-6.7-8-11.3-18.2-14-30.8c-2.7-12.5-4-28.1-4-46.7v-314
							c0-13.8,1.3-26.9,4-39.1c2.7-12.2,7.5-22.9,14.4-32c6.9-9,16.4-16.1,28.4-21.2c12-5.1,27.3-7.6,45.9-7.6h51.1h51.1
							c18.6,0,34,2.5,45.9,7.6c12,5.1,21.4,12.1,28.4,21.2c6.9,9.1,11.7,19.7,14.4,32c2.7,12.3,4,25.3,4,39.1v314
							c0,18.6-1.3,34.2-4,46.7c-2.7,12.5-7.3,22.8-14,30.8c-6.7,8-16,13.7-28,17.2c-12,3.5-27.3,5.2-45.9,5.2H1325.6z M1403.1,596.8
							c6.4,0,10.5-1.9,12.4-5.6c1.9-3.7,2.8-8.8,2.8-15.2V316.4c0-6.4-0.9-11.4-2.8-15.2c-1.9-3.7-6-5.6-12.4-5.6h-51.1
							c-6.4,0-10.5,1.9-12.4,5.6c-1.9,3.7-2.8,8.8-2.8,15.2V576c0,6.4,0.9,11.5,2.8,15.2c1.9,3.7,6,5.6,12.4,5.6H1403.1z"/>
						<path class="st69" d="M2074.9,723.4c13.8-5.6,25.2-13.4,34-23.6c8.8-10.1,15.2-22.1,19.2-35.9c4-13.8,6-28.8,6-44.7V273.3
							c0-16-2-30.9-6-44.7c-4-13.8-10.4-25.8-19.2-35.9c-8.8-10.1-20.2-18-34.3-23.6c-14.1-5.6-31.3-8.4-51.5-8.4h-318V54.4h307.6
							c38.9,0,72.3,4.3,100.3,12.8c28,8.5,51,22.4,69.1,41.5c18.1,19.2,31.4,44.1,39.9,74.7c8.5,30.6,12.8,68,12.8,112.2v301.2
							c0,42.6-4.3,79.2-12.8,109.8c-8.5,30.6-21.8,55.7-39.9,75.1c-18.1,19.4-41.1,33.7-69.1,42.7c-28,9.1-61.4,13.6-100.3,13.6
							H1705V321.2h100.7v410.6h218.1C2044,731.8,2061,729,2074.9,723.4z M1705,295.6V189.4h307.6c18.6,0,34,2.5,45.9,7.6
							c12,5.1,21.4,12.1,28.4,21.2c6.9,9.1,11.7,19.7,14.4,32c2.7,12.3,4,25.3,4,39.1v314c0,18.6-1.3,34.2-4,46.7
							c-2.7,12.5-7.3,22.8-14,30.8c-6.7,8-16,13.7-28,17.2c-12,3.5-27.3,5.2-45.9,5.2h-178.9V321.2h111.8V576
							c0,13.9,6.7,20.8,20,20.8h17.6c6.4,0,11.6-1.9,15.6-5.6c4-3.7,6-8.8,6-15.2V316.4c0-6.4-2-11.4-6-15.2
							c-4-3.7-9.2-5.6-15.6-5.6H1705z"/>
						<path class="st69" d="M2285,295.6c0-33.6,6.1-65.1,18.4-94.7c12.2-29.6,28.6-55.1,49.1-76.7c20.5-21.6,44.2-38.6,71.1-51.1
							c26.9-12.5,54.7-18.8,83.5-18.8h302.8v106.3h-290c-20.2,0-38.3,4-54.3,12c-16,8-29.4,18.4-40.3,31.2
							c-10.9,12.8-19.3,27.3-25.2,43.5c-5.9,16.3-8.8,32.4-8.8,48.3v301.2c0,16,2.9,32.1,8.8,48.3c5.9,16.3,14.2,30.8,25.2,43.5
							c10.9,12.8,24.4,23.2,40.3,31.2c16,8,34.1,12,54.3,12h290v106.2h-302.8c-28.8,0-56.6-6.3-83.5-18.8
							c-26.9-12.5-50.6-29.6-71.1-51.1c-20.5-21.6-36.9-47.1-49.1-76.7c-12.3-29.6-18.4-61.1-18.4-94.7V295.6z M2420,433V311.6
							c0-13.8,2.3-28.1,6.8-42.7c4.5-14.6,11.3-27.8,20.4-39.5c9-11.7,20.5-21.3,34.4-28.8c13.8-7.5,30.1-11.2,48.7-11.2h279.6
							v106.2h-277.2c-3.2,0-6.5,1.9-10,5.6c-3.5,3.7-5.2,8.8-5.2,15.2v11.2h231.7V433H2420z M2420,459.4h329.1v106.2h-231.7V576
							c0,6.4,1.7,11.5,5.2,15.2c3.5,3.7,6.8,5.6,10,5.6h277.2v106.3h-279.6c-18.6,0-34.9-3.7-48.7-11.2c-13.9-7.5-25.3-17-34.4-28.8
							c-9.1-11.7-15.9-24.9-20.4-39.5c-4.5-14.6-6.8-28.9-6.8-42.7V459.4z"/>
						<path class="st69" d="M3389,838.1h-302.8c-28.8,0-56.6-6.3-83.5-18.8c-26.9-12.5-50.6-29.6-71.1-51.1
							c-20.5-21.6-36.9-47.1-49.1-76.7c-12.3-29.6-18.4-61.1-18.4-94.7V54.4h106.3v542.4c0,16,2.9,32.1,8.8,48.3
							c5.9,16.3,14.2,30.8,25.2,43.5c10.9,12.8,24.4,23.2,40.3,31.2c16,8,34.1,12,54.3,12h290V838.1z M3123.8,596.8H3389v106.3
							h-279.6c-18.6,0-34.9-3.7-48.7-11.2c-13.9-7.5-25.3-17-34.4-28.8c-9.1-11.7-15.9-24.9-20.4-39.5c-4.5-14.6-6.8-28.9-6.8-42.7
							V54.4h109.4V576c0,6.4,1.7,11.3,5.2,14.8c3.5,3.5,6.8,5.2,10,5.2V596.8z"/>
						<path d="M3784.6,838.1h-106.3V295.7c0-16-2.9-32.1-8.8-48.3c-5.9-16.2-14.2-30.8-25.2-43.5c-10.9-12.8-24.4-23.2-40.3-31.2
							c-16-8-34.1-12-54.3-12l-118.3,0V54.4l131.1,0c28.8,0,56.6,6.3,83.5,18.8c26.9,12.5,50.6,29.6,71.1,51.1
							c20.5,21.6,36.9,47.1,49.1,76.7c12.3,29.6,18.4,61.1,18.4,94.7V838.1z M3552.2,576.1V316.4c0-6.4-1.7-11.4-5.2-15.2
							c-3.5-3.7-6.8-5.6-10-5.6l-105.5,0V189.4l107.9,0c18.6,0,34.9,3.7,48.7,11.2c13.9,7.5,25.3,17.1,34.4,28.8
							c9.1,11.7,15.9,24.9,20.4,39.5c4.5,14.7,6.8,28.9,6.8,42.7v235.6 M3649.6,499.1v339l-97.5,0V565.7"/>
					</g>
				</g>
			</g>
		</g>
	</g>
	<rect x="2782.6" y="341.6" class="st0" width="51.1" height="217.9"/>
</g>
</svg>
