<?xml version="1.0" encoding="utf-8"?>
<!-- Generator: Adobe Illustrator 26.4.1, SVG Export Plug-In . SVG Version: 6.00 Build 0)  -->
<svg version="1.1" id="Layer_1" xmlns="http://www.w3.org/2000/svg" xmlns:xlink="http://www.w3.org/1999/xlink" x="0px" y="0px"
	 viewBox="0 0 3839 1887.2" style="enable-background:new 0 0 3839 1887.2;" xml:space="preserve">
<style type="text/css">
	.st0{fill:#030508;}
	.st1{fill:#4ACF93;}
	.st2{fill:#F0E257;}
	.st3{clip-path:url(#SVGID_00000006667088873684691700000014081417345559454884_);}
	.st4{fill:#009A60;}
	.st5{clip-path:url(#SVGID_00000015333609753891433830000016967887171822550926_);}
	.st6{clip-path:url(#SVGID_00000104682273226165187500000015882513560400929461_);}
	.st7{clip-path:url(#SVGID_00000056412330249385686350000000452703915304293533_);}
	.st8{clip-path:url(#SVGID_00000076573294320551651710000002875134793410086832_);}
	.st9{fill:#D6B00A;}
	.st10{clip-path:url(#SVGID_00000165940683354569546900000000823121609909637819_);}
</style>
<g>
	<g>
		<g>
			<path class="st0" d="M107.9,1755.1c0.5,15.6,1.6,60.1,65.5,60.1c9.1,0,57.5,0,57.5-44c0-18.3-7.5-30.6-33.3-37.6l-95.1-24.7
				c-26.8-7-96.1-25.2-96.1-106.3c0-62.8,47.3-121.4,163.2-121.4c151.4,0,157.9,82.2,158.4,123.5H219c0-11.8,0.5-53.7-51-53.7
				c-31.2,0-51,17.7-51,40.8c0,28.5,23.6,35.4,39.2,39.7l72.5,18.8c51.6,13.4,112.8,29.5,112.8,111.7c0,86.4-74.1,125.1-171.3,125.1
				c-40.3,0-105.2-6.5-140.7-46.2c-28.4-31.1-29-69.3-29.5-85.9L107.9,1755.1L107.9,1755.1z"/>
		</g>
		<g>
			<path class="st0" d="M449.5,1764.2c0,14.5,0,65.5,51.5,65.5c26.8,0,43.5-14,46.2-39.2h94c-7.5,67.7-70.9,94-140.7,94
				c-94,0-144.4-47.3-144.4-136.4c0-90.2,44-148.7,143.4-148.7c75.2,0,110.1,30.6,128.3,68.7c11.8,23.1,15,48.9,15,96.1H449.5z
				 M547.7,1709.5c-1.1-15.6-4.3-56.4-48.3-56.4s-47.8,43.5-48.9,56.4H547.7z"/>
		</g>
		<g>
			<path class="st0" d="M670.2,1492h103.1v72H670.2V1492z M671.3,1609h101v269.6h-101V1609z"/>
		</g>
		<g>
			<path class="st0" d="M914.9,1490.9v146.6c27.9-34.9,75.7-35.4,85.4-35.4c51.6,0,82.7,27.4,99.9,56.4
				c14.5,25.2,17.2,54.8,17.2,83.8c0,52.6-12.4,82.2-34.9,106.3c-30.1,32.8-64.4,36-84.8,36c-17.7,0-56.4-1.6-89.7-45.6l-3.2,39.7
				h-94.5c2.7-30.6,3.2-65.5,3.2-67.1V1491h101.4V1490.9z M962.7,1823.8c50.5,0,50.5-64.4,50.5-82.2c0-27.4-3.2-81.1-48.3-81.1
				c-50,0-53.2,61.8-53.2,81.6C911.7,1759.9,914.9,1823.8,962.7,1823.8z"/>
		</g>
		<g>
			<path class="st0" d="M1243.6,1609v157.3c0,15,0,52.6,40.3,52.6c42.4,0,42.4-38.7,42.4-53.7V1609h101v222.8
				c1.1,23.1,1.1,25.8,1.6,46.7h-99.3l-2.1-41.9c-27.4,43.5-61.2,46.7-84.8,46.7c-93.4,0-99.3-70.9-99.3-122.4v-152h100.2V1609z"/>
		</g>
		<g>
			<path class="st0" d="M1627.6,1490.9h109v170.2l124-170.2h127.3l-133.7,170.8l144.4,216.9h-133.2l-128.9-206.2v206.2h-109
				L1627.6,1490.9L1627.6,1490.9z"/>
		</g>
		<g>
			<path class="st0" d="M2175,1878.6c-2.1-9.7-3.2-21.5-3.2-38.7c-12.3,18.3-33.3,44-88.6,44c-66,0-95.1-36-95.1-83.8
				c0-73.6,68.2-100.4,184.2-95.6c0.5-29-3.2-55.8-33.8-55.8c-18.8,0-36.5,10.2-36,40.8h-96.7c0.5-12.3,0.5-35.4,20.9-56.4
				c20.9-21.5,62.8-33.8,111.7-33.8c24.2,0,75.7,3.2,104.2,31.1c17.2,16.6,23.6,41.9,23.6,70.9v125.6c0,19.3,0.5,24.7,5.4,51.5H2175
				V1878.6z M2087.4,1791.1c0,19.9,12.9,36.5,37.1,36.5c10.7,0,29.5-4.3,39.7-25.8c8-17.2,8-39.2,7.5-50.5
				C2128.8,1751.9,2087.4,1752.4,2087.4,1791.1z"/>
		</g>
		<g>
			<path class="st0" d="M2303.9,1492H2407v72h-103.1V1492z M2305,1609h101v269.6h-101V1609z"/>
		</g>
		<g>
			<path class="st0" d="M2447.9,1490.9h102v147.7c10.8-10.7,35.4-35.5,84.3-35.5c26.3,0,53.2,7,75.2,27.4
				c26.8,24.2,26.8,53.7,26.8,91.3v156.8h-100.4v-145c0-22.6,0-66.6-41.9-66.6c-32.2,0-39.7,26.8-42.4,37.6
				c-2.7,12.3-2.7,29.5-2.7,52.1v121.9h-101L2447.9,1490.9L2447.9,1490.9z"/>
		</g>
		<g>
			<path class="st0" d="M2946.2,1878.6c-2.1-9.7-3.2-21.5-3.2-38.7c-12.3,18.3-33.3,44-88.6,44c-66,0-95-36-95-83.8
				c0-73.6,68.2-100.4,184.2-95.6c0.5-29-3.2-55.8-33.8-55.8c-18.8,0-36.5,10.2-36,40.8h-96.7c0.5-12.3,0.5-35.4,20.9-56.4
				c20.9-21.5,62.8-33.8,111.7-33.8c24.2,0,75.7,3.2,104.2,31.1c17.2,16.6,23.6,41.9,23.6,70.9v125.6c0,19.3,0.5,24.7,5.4,51.5
				h-96.7V1878.6z M2858.7,1791.1c0,19.9,12.9,36.5,37.1,36.5c10.7,0,29.5-4.3,39.7-25.8c8-17.2,8-39.2,7.5-50.5
				C2900.1,1751.9,2858.7,1752.4,2858.7,1791.1z"/>
		</g>
		<g>
			<path class="st0" d="M3260.9,1610.1v64.4h-65v93.4c0.5,33.3,0.5,48.3,39.2,48.3c8,0,12.9,0,25.2-1.6v63.4
				c-13.4,2.2-31.1,4.8-65.5,4.8c-80.5,0-96.6-26.8-96.6-78.9v-129.4h-51v-64.4h52.6v-41.9l97.2-38.7v80.5L3260.9,1610.1
				L3260.9,1610.1z"/>
		</g>
		<g>
			<path class="st0" d="M3366.7,1791.1c0,4.8,0,15,4.3,24.2c3.8,8.6,12.3,16.7,29.5,16.7c23.1,0,30.6-15.6,30.6-27.4
				c0-18.8-15.6-24.2-38.1-30.1l-54.8-15.6c-16.7-4.3-65.5-17.7-65.5-73c0-26.8,14.5-49.4,32.2-61.2c23.6-16.7,55.8-23.1,95.6-23.1
				c58,0,118.7,15.6,123,90.8h-95.6c0-8.1,0-18.3-3.8-26.3c-4.3-8.6-11.8-14.5-27.9-14.5c-15.6,0-30.1,7-30.1,23.6
				c0,15.6,11.3,21.5,27.4,25.8l71.9,19.9c25.8,7,63.4,21.5,63.4,74.1c0,91.3-105.8,91.3-129.4,91.3c-54.8,0-133.7-8.1-132.6-95
				h99.9V1791.1z"/>
		</g>
		<g>
			<path class="st0" d="M3653.7,1609v157.3c0,15,0,52.6,40.3,52.6c42.4,0,42.4-38.7,42.4-53.7V1609h101v222.8
				c1.1,23.1,1.1,25.8,1.6,46.7h-99.3l-2.1-41.9c-27.4,43.5-61.2,46.7-84.8,46.7c-93.4,0-99.3-70.9-99.3-122.4v-152h100.2V1609z"/>
		</g>
	</g>
	<rect y="631.6" class="st0" width="3839" height="648.2"/>
	<rect x="1818.7" y="281.3" class="st0" width="364.7" height="535"/>
	<g>
		<g>
			<path class="st1" d="M3218.7,1347.3c-67.4,0-130.7-26.2-178.3-73.9c-47.6-47.6-73.9-111-73.9-178.3V564.2H3211v538.6h302.4V564.2
				h244.4v783.1H3218.7z"/>
			<g>
				<path d="M3736.8,585.2v741.1h-48.2h-154.2h-315.7c-127.7,0-231.2-103.5-231.2-231.2V585.2h202.4v538.6h344.4V585.2H3736.8
					 M3778.8,543.2h-42h-202.4h-42v42v496.6H3232V585.2v-42h-42h-202.4h-42v42v509.9c0,36.9,7.2,72.6,21.5,106.4
					c13.8,32.5,33.5,61.8,58.5,86.8c25.1,25.1,54.3,44.8,86.8,58.5c33.7,14.3,69.5,21.5,106.4,21.5h315.7h154.2h48.2h42v-42V585.2
					L3778.8,543.2L3778.8,543.2z"/>
			</g>
		</g>
		<g>
			<path class="st1" d="M81.2,1347.3v-244.4h532.4c6.9,0,12.5-5.6,12.5-12.5s-5.6-12.4-12.5-12.4H338.1
				c-68.6,0-133.1-26.7-181.6-75.2c-48.5-48.5-75.2-113-75.2-181.6s26.7-133.1,75.2-181.6s113-75.2,181.6-75.2h532.4v244.4H338.1
				c-6.9,0-12.5,5.6-12.5,12.4c0,6.9,5.6,12.5,12.5,12.5h275.5c68.6,0,133.1,26.7,181.6,75.2s75.2,113,75.2,181.6
				s-26.7,133.1-75.2,181.6s-113,75.2-181.6,75.2L81.2,1347.3L81.2,1347.3z"/>
			<g>
				<path d="M849.4,585.2v202.4H338.1c-18.5,0-33.5,15-33.5,33.5s15,33.5,33.5,33.5h275.5c130.3,0,235.9,105.6,235.9,235.9
					s-105.6,235.9-235.9,235.9H102.2V1124h511.4c18.5,0,33.5-15,33.5-33.5s-15-33.5-33.5-33.5H338.1
					c-130.3,0-235.9-105.6-235.9-235.9s105.6-235.9,235.9-235.9L849.4,585.2 M891.4,543.2h-42H338.1c-37.5,0-73.9,7.4-108.2,21.9
					c-33.1,14-62.8,34-88.3,59.5S96,679.8,82,712.9c-14.5,34.3-21.9,70.7-21.9,108.2S67.5,895,82,929.3c14,33.1,34,62.8,59.5,88.3
					c25.5,25.5,55.2,45.5,88.3,59.5c4,1.7,8,3.3,12,4.7H102.2h-42v42v202.4v42h42h511.4c37.5,0,73.9-7.4,108.2-21.9
					c33.1-14,62.8-34,88.3-59.5s45.5-55.2,59.5-88.3c14.5-34.3,21.9-70.7,21.9-108.2s-7.4-73.9-21.9-108.2
					c-14-33.1-34-62.8-59.5-88.3s-55.2-45.5-88.3-59.5c-4-1.7-8-3.3-12-4.7h139.7h42v-42V585.2L891.4,543.2L891.4,543.2z"/>
			</g>
		</g>
		<g>
			<g>
				<rect x="1797.7" y="564.2" class="st2" width="244.4" height="783.1"/>
				<path d="M2021.1,585.2v741.1h-202.4V585.2H2021.1 M2063.1,543.2h-42h-202.4h-42v42v741.1v42h42h202.4h42v-42V585.2V543.2
					L2063.1,543.2z"/>
			</g>
			<g>
				<rect x="1797.7" y="260.3" class="st2" width="244.4" height="244.4"/>
				<path d="M2021.1,281.3v202.4h-202.4V281.3H2021.1 M2063.1,239.3h-42h-202.4h-42v42v202.4v42h42h202.4h42v-42V281.3V239.3
					L2063.1,239.3z"/>
			</g>
		</g>
		<g>
			<g>
				<path class="st1" d="M2525.3,1347.3c-54.9,0-109.4-11.3-159.6-33v33h-244.4V0h244.4v573.9c50.2-21.6,104.8-33,159.6-33
					c54.4,0,107.2,10.7,156.9,31.7c48,20.3,91.1,49.4,128.1,86.4s66.1,80.1,86.4,128.1c21,49.7,31.7,102.5,31.7,156.9
					s-10.7,107.2-31.7,156.9c-20.3,48-49.4,91.1-86.4,128.1s-80.1,66.1-128.1,86.4C2632.5,1336.6,2579.7,1347.3,2525.3,1347.3z
					 M2525.3,784.5c-88,0-159.6,71.6-159.6,159.6s71.6,159.6,159.6,159.6s159.6-71.6,159.6-159.6
					C2684.9,856.1,2613.3,784.5,2525.3,784.5z"/>
			</g>
			<g>
				<path d="M2344.6,21v586.3c53.8-28.9,115.3-45.4,180.6-45.4c211.1,0,382.2,171.1,382.2,382.2s-171.1,382.2-382.2,382.2
					c-65.4,0-126.8-16.5-180.6-45.4v45.4h-202.4V21H2344.6 M2525.3,1124.8c99.8,0,180.6-80.9,180.6-180.6s-80.9-180.7-180.6-180.7
					c-99.8,0-180.6,80.9-180.6,180.7S2425.5,1124.8,2525.3,1124.8 M2386.6-21h-42h-202.4h-42v42v1305.3v42h42h202.4h42V1345
					c11.1,3.8,22.3,7.2,33.6,10.1c34.2,8.7,69.5,13.2,105.1,13.2c57.2,0,112.8-11.2,165.1-33.4c50.5-21.4,95.9-51.9,134.8-90.9
					s69.5-84.3,90.9-134.8c22.1-52.3,33.4-107.9,33.4-165.1c0-57.2-11.2-112.8-33.4-165.1c-21.4-50.5-51.9-95.9-90.9-134.8
					c-38.9-38.9-84.3-69.5-134.8-90.9c-52.3-22.1-107.9-33.4-165.1-33.4c-35.5,0-70.9,4.4-105.1,13.2c-11.3,2.9-22.5,6.3-33.6,10.1
					V21V-21L2386.6-21z M2525.3,1082.7c-37,0-71.8-14.4-98-40.6c-26.2-26.2-40.6-61-40.6-98s14.4-71.8,40.6-98
					c26.2-26.2,61-40.6,98-40.6s71.8,14.4,98,40.6c26.2,26.2,40.6,61,40.6,98s-14.4,71.8-40.6,98
					C2597.1,1068.3,2562.3,1082.7,2525.3,1082.7L2525.3,1082.7z"/>
			</g>
		</g>
		<g>
			<g>
				<path class="st1" d="M1314.5,1347.3c-54.4,0-107.2-10.7-156.9-31.7c-48-20.3-91.1-49.4-128.1-86.4s-66.1-80.1-86.4-128.1
					c-21-49.7-31.7-102.5-31.7-156.9s10.6-107.3,31.6-157c20.3-48,49.4-91.1,86.4-128.1c37-37,80.1-66.1,128.1-86.4
					c49.7-21,102.5-31.7,156.9-31.7s107.2,10.7,156.9,31.7c48,20.3,91.1,49.4,128.1,86.4s66.1,80.1,86.4,128.1
					c21,49.7,31.7,102.5,31.7,156.9c0,40.5-6,80.5-17.9,119l-4.6,14.8h-466.7c25.5,16.7,55.2,25.8,86,25.8c24.4,0,48.6-6.1,72-18
					l4.5-2.3h302.9l-13.8,29.8c-31.9,68.9-82.4,127.2-145.9,168.7C1468.8,1324.7,1392.9,1347.3,1314.5,1347.3z M1428.7,833.5
					c-9.9-10.4-21.2-19.4-33.6-26.8c-24.3-14.5-52.2-22.2-80.6-22.2s-56.3,7.7-80.6,22.2c-12.3,7.4-23.6,16.4-33.6,26.8H1428.7z"/>
			</g>
			<g>
				<path d="M1314.5,562c211.1,0,382.2,171.1,382.2,382.2c0,39.3-6,77.2-17,112.8H1652h-197.4h-280.1c33.1,41,83.2,67.8,140,67.8
					c29.5,0,57-7.8,81.6-20.3h265c-60.7,130.9-192.8,221.8-346.5,221.8c-211.1,0-382.2-171.1-382.2-382.2
					C932.3,733,1103.4,562,1314.5,562 M1158.5,854.5h312c-31.2-54.2-89-91.1-156-91.1C1247.5,763.5,1189.7,800.4,1158.5,854.5
					 M1314.5,519.9c-57.2,0-112.8,11.2-165.1,33.4c-50.5,21.4-95.9,51.9-134.8,90.9c-38.9,38.9-69.5,84.3-90.9,134.8
					c-22.1,52.3-33.4,107.9-33.4,165.1s11.2,112.8,33.4,165.1c21.4,50.5,51.9,95.9,90.9,134.8c38.9,38.9,84.3,69.5,134.8,90.9
					c52.3,22.1,107.9,33.4,165.1,33.4c82.5,0,162.4-23.8,231.2-68.7c66.8-43.7,119.9-105.1,153.5-177.5l10.7-23.2h0.8l1.6-5.1
					l14.6-31.4h-4.9c11.1-38.4,16.8-78.1,16.8-118.3c0-57.2-11.2-112.8-33.4-165.1c-21.4-50.5-51.9-95.9-90.9-134.8
					c-38.9-38.9-84.3-69.5-134.8-90.9C1427.3,531.2,1371.7,519.9,1314.5,519.9L1314.5,519.9z M1271.2,812.5c13.9-4.6,28.5-7,43.3-7
					s29.4,2.4,43.3,7H1271.2L1271.2,812.5z"/>
			</g>
		</g>
	</g>
	<g>
		<g>
			<defs>
				<path id="SVGID_1_" d="M3534.4,585.2v538.6H3190V585.2h-202.4v509.9c0,127.7,103.5,231.2,231.2,231.2h315.7h154.2h48.2V585.2
					H3534.4z"/>
			</defs>
			<clipPath id="SVGID_00000030466269671000006050000016315290593889723278_">
				<use xlink:href="#SVGID_1_"  style="overflow:visible;"/>
			</clipPath>
			<g style="clip-path:url(#SVGID_00000030466269671000006050000016315290593889723278_);">
				<path class="st4" d="M3497.8,619.9v538.6h-344.4V619.9H2951v509.9c0,127.7,103.5,231.2,231.2,231.2h315.7H3652h48.2V619.9
					H3497.8z"/>
			</g>
		</g>
	</g>
	<g>
		<g>
			<defs>
				<path id="SVGID_00000091732453589550421640000003447738163017194669_" d="M102.2,821.1c0,130.3,105.6,235.9,235.9,235.9h275.5
					c18.5,0,33.5,15,33.5,33.5s-15,33.5-33.5,33.5H102.2v202.4h511.4c130.3,0,235.9-105.6,235.9-235.9S743.9,854.6,613.6,854.6
					H338.1c-18.5,0-33.5-15-33.5-33.5s15-33.5,33.5-33.5h511.4V585.2H338.1C207.8,585.2,102.2,690.8,102.2,821.1z"/>
			</defs>
			<clipPath id="SVGID_00000101794757783967452900000016256257118750815421_">
				<use xlink:href="#SVGID_00000091732453589550421640000003447738163017194669_"  style="overflow:visible;"/>
			</clipPath>
			<g style="clip-path:url(#SVGID_00000101794757783967452900000016256257118750815421_);">
				<path class="st4" d="M65.6,855.8c0,130.3,105.6,235.9,235.9,235.9H577c18.5,0,33.5,15,33.5,33.5s-15,33.5-33.5,33.5H65.6V1361
					H577c130.3,0,235.9-105.6,235.9-235.9S707.3,889.2,577,889.2H301.5c-18.5,0-33.5-15-33.5-33.5s15-33.5,33.5-33.5h511.4V619.9
					H301.5C171.2,619.9,65.6,725.5,65.6,855.8z"/>
			</g>
		</g>
	</g>
	<g>
		<g>
			<defs>
				<path id="SVGID_00000029006557638419475190000003191600365032292520_" d="M2525.3,562c-65.4,0-126.8,16.5-180.6,45.4V21h-202.4
					v1305.3h202.4v-45.4c53.8,28.9,115.3,45.4,180.6,45.4c211.1,0,382.2-171.1,382.2-382.2C2907.4,733,2736.3,562,2525.3,562z"/>
			</defs>
			<clipPath id="SVGID_00000087403082097719973180000008470218342769287604_">
				<use xlink:href="#SVGID_00000029006557638419475190000003191600365032292520_"  style="overflow:visible;"/>
			</clipPath>
			<g style="clip-path:url(#SVGID_00000087403082097719973180000008470218342769287604_);">
				<path class="st4" d="M2488.7,596.6c-65.4,0-126.8,16.5-180.6,45.4V55.7h-202.4V1361h202.4v-45.4
					c53.8,28.9,115.3,45.4,180.6,45.4c211.1,0,382.2-171.1,382.2-382.2S2699.8,596.6,2488.7,596.6z M2488.7,1159.4
					c-99.8,0-180.6-80.9-180.6-180.6s80.9-180.7,180.6-180.7c99.8,0,180.6,80.9,180.6,180.7S2588.5,1159.4,2488.7,1159.4z"/>
			</g>
		</g>
	</g>
	<g>
		<g>
			<defs>
				<path id="SVGID_00000016755790309517157650000004119553027678952623_" d="M1314.5,562c-211.1,0-382.2,171.1-382.2,382.2
					s171.1,382.2,382.2,382.2c153.7,0,285.9-91,346.5-221.8h-265c-24.6,12.6-52.1,20.3-81.6,20.3c-56.8,0-106.9-26.8-140-67.8h280.1
					h197.4h27.7c11-35.7,17-73.5,17-112.8C1696.7,733,1525.6,562,1314.5,562z"/>
			</defs>
			<clipPath id="SVGID_00000067212861742848934010000002180014993263705014_">
				<use xlink:href="#SVGID_00000016755790309517157650000004119553027678952623_"  style="overflow:visible;"/>
			</clipPath>
			<g style="clip-path:url(#SVGID_00000067212861742848934010000002180014993263705014_);">
				<path class="st4" d="M1277.9,596.6c-211.1,0-382.2,171.1-382.2,382.2s171.1,382.2,382.2,382.2c153.7,0,285.9-91,346.5-221.8
					h-265c-24.6,12.6-52.1,20.3-81.6,20.3c-56.8,0-106.9-26.8-140-67.8H1418h197.4h27.7c11-35.7,17-73.5,17-112.8
					C1660.1,767.7,1489,596.6,1277.9,596.6z M1122,889.2c31.2-54.2,89-91.1,156-91.1s124.8,36.9,156,91.1H1122z"/>
			</g>
		</g>
	</g>
	<g>
		<g>
			<defs>
				<rect id="SVGID_00000080894633526620837190000015866835310979441842_" x="1818.7" y="281.3" width="202.4" height="202.4"/>
			</defs>
			<clipPath id="SVGID_00000093881123168564661470000002357422145977991577_">
				<use xlink:href="#SVGID_00000080894633526620837190000015866835310979441842_"  style="overflow:visible;"/>
			</clipPath>
			<g style="clip-path:url(#SVGID_00000093881123168564661470000002357422145977991577_);">
				<rect x="1782.1" y="316" class="st9" width="202.4" height="202.4"/>
			</g>
		</g>
	</g>
	<g>
		<g>
			<defs>
				<rect id="SVGID_00000109718813765277892150000013639585829702714539_" x="1818.7" y="585.2" width="202.4" height="741.1"/>
			</defs>
			<clipPath id="SVGID_00000026130285433441789810000006487539690411114127_">
				<use xlink:href="#SVGID_00000109718813765277892150000013639585829702714539_"  style="overflow:visible;"/>
			</clipPath>
			<g style="clip-path:url(#SVGID_00000026130285433441789810000006487539690411114127_);">
				<rect x="1782.1" y="619.9" class="st9" width="202.4" height="741.1"/>
			</g>
		</g>
	</g>
</g>
</svg>
