<?xml version="1.0" encoding="utf-8"?>
<!-- Generator: Adobe Illustrator 26.0.2, SVG Export Plug-In . SVG Version: 6.00 Build 0)  -->
<svg version="1.1" id="Layer_1" xmlns="http://www.w3.org/2000/svg" xmlns:xlink="http://www.w3.org/1999/xlink" x="0px" y="0px"
	 viewBox="0 0 3839 427.1" style="enable-background:new 0 0 3839 427.1;" xml:space="preserve">
<style type="text/css">
	.st0{display:none;}
	.st1{display:inline;}
	.st2{fill:#C2AC6D;}
	.st3{fill:#FFFFFF;}
	.st4{fill:#F91716;}
	.st5{fill-rule:evenodd;clip-rule:evenodd;fill:#F91716;}
	.st6{fill-rule:evenodd;clip-rule:evenodd;}
	.st7{fill-rule:evenodd;clip-rule:evenodd;fill:#FFFFFF;}
</style>
<g>
	<g>
		<g>
			<path class="st4" d="M409,10.2H285v16.3h16.2c21.7,0,39.2,20.2,39.2,41.8v201.2L129,10.2H0v16.3c28.8,0,51.5,26,51.5,54.9v281.9
				c0,28.8-30.4,38.4-51.5,38.4v16.3h140.1v-16.3c-26.2-0.1-40.1-3.7-49.1-12.2c-8.9-8.5-11.4-19.7-11.4-35.2V90l273.7,333.7h15
				v-355c0-21.1,16.5-38.9,40.7-39.8V10.2z"/>
			<circle class="st4" cx="1235.6" cy="212.7" r="47.3"/>
			<path class="st4" d="M1501.9,227.2v19.7h15.4c25,0,32.1,12.1,32.1,33.6v96.4c-5.8,7-25.2,15.8-52.8,15.8
				c-5.6,0-37.5-0.6-61.3-20.2c-24.9-20.4-41.7-61.9-41.7-160.5c0-128.3,45.1-182.6,110.5-182.6c21.3,0,93.4,14.4,124.2,107.2h19.2
				V2.6h-18.2c-2.3,18-16.5,28-43.4,16.8C1545.4,2.6,1509.1,0,1482.5,0c-104.7,0-193.8,96.9-193.8,212.7
				c0,133.4,100.7,211.5,208.8,211.5c51.2,0,105.6-11.8,148.6-33.6V280.5c0-25.8,18-33.6,42.3-33.6v-19.7L1501.9,227.2L1501.9,227.2
				z"/>
			<g>
				<path class="st4" d="M753.4,292c-10.1,55.9-58.3,99.5-112.3,98.1h-46.6c-14.6,0-26.5-11.9-26.5-26.5V220.7h12.8
					c38.1,0,62.5,31.9,62.5,86.8h16.7v-97.3v-5v-95.5h-16.7c0,48.3-20.4,83.2-62.5,83.2h-12.8V34.6h67.1c90.3,0,93.3,80.4,93.3,90.8
					h18V38.1V10.2H421v16.2h23c17.6,0,31.8,16.6,31.8,34.1v300.1c0,31.6-20.7,38.8-38.3,38.8H421v18.5h54.7h275.2L769.4,292H753.4z"
					/>
				<path class="st4" d="M974.9,5.9c-117.3,0-207.7,86.4-207.7,210.6s90.4,210.6,207.7,210.6c117.3,0,207.7-86.4,207.7-210.6
					S1092.2,5.9,974.9,5.9z M974.9,399.9c-56.4,0-102-51.6-102-183.4s45.7-183.4,102-183.4c56.4,0,102,51.6,102,183.4
					C1077,348.3,1031.2,399.9,974.9,399.9z"/>
			</g>
			<g>
				<path class="st4" d="M2011.3,292c-10.1,55.9-58.3,99.5-112.3,98.1h-46.6c-14.6,0-26.5-11.9-26.5-26.5V220.7h12.8
					c38.1,0,62.5,31.9,62.5,86.8h16.7v-97.3v-5v-95.5H1901c0,48.3-20.4,83.2-62.5,83.2h-12.8V34.6h67.1c90.3,0,93.3,80.4,93.3,90.8
					h18V38.1V10.2h-325.3v16.2h23c17.6,0,31.8,16.6,31.8,34.1v300.1c0,31.6-20.7,38.8-38.3,38.8h-16.5v18.5h54.7h275.2l18.5-125.9
					H2011.3z"/>
				<path class="st4" d="M2232.7,5.9c-117.3,0-207.7,86.4-207.7,210.6s90.4,210.6,207.7,210.6c117.3,0,207.7-86.4,207.7-210.6
					S2350,5.9,2232.7,5.9z M2232.7,399.9c-56.4,0-102-51.6-102-183.4s45.7-183.4,102-183.4c56.4,0,102,51.6,102,183.4
					C2334.8,348.3,2289.1,399.9,2232.7,399.9z"/>
			</g>
		</g>
	</g>
	<g>
		<g>
			<g>
				<g>
					<path class="st5" d="M3709.6,144h-223.9V80.6h140.7l13.9,24.1h95.9l-26.8-46.5c-17.2-29.7-48.9-48-83.2-48h-167.4
						c-23.8,0-61.5,19.3-61.5,43v121.1c0,23.7,41.7,40.1,71.9,40.1h234.4l36.5,63.3h-254.5v-24.1h-88.4v41.8
						c0,29.1,17.7,52.7,69.5,52.7h320.4c39.8,0,64.7-43.1,44.8-77.5l-48.5-84C3768.3,160.2,3740.1,144,3709.6,144z"/>
					<g>
						<path class="st5" d="M2908.8,36.2L2824,183.1V62.3c0-28.8-23.3-52.1-52.1-52.1h-34.6c-18.6,0-35.8,9.9-45.1,26l-180.1,311.9
							h95.9L2740.9,118v183.8c0,25.6,20.7,46.3,46.3,46.3h10.6c16.6,0,31.9-8.8,40.1-23.2l113.2-196.1v219.3h88.4V53.4
							c0-30.9-29.3-43.2-53.2-43.2h-32.6C2935.3,10.2,2918.1,20.1,2908.8,36.2z"/>
					</g>
					<g>
						<path class="st5" d="M3277.7,306.7l110.8-296.5h-83.3l-87.4,233.7l-87.4-233.7h-83.3l110.8,296.5c9.3,25,33.1,41.5,59.8,41.5
							l0,0C3244.6,348.2,3268.4,331.6,3277.7,306.7z"/>
					</g>
					<path class="st5" d="M2676.3,377.9c-0.9-3.2-2.6-6.1-4.9-8.4c-11-11-28.9-11.1-40.2-0.4c-11.2-10.7-29.1-10.5-40.2,0.4
						c-2.4,2.4-4,5.3-4.9,8.4c-0.2,0.6-0.2,1-0.2,1.2l0,0l0,0v38.8h11.4v-38.2l0,0c6.9-9.6,21.3-9.6,28.2,0v38.2h11.4v-38.2
						c6.9-9.6,21.3-9.6,28.2,0l0,0v38.2h11.4v-38.8C2676.5,378.9,2676.5,378.5,2676.3,377.9z"/>
					<path class="st5" d="M3762.8,377.9c-0.9-3.2-2.6-6.1-4.9-8.4c-11-11-28.9-11.1-40.2-0.4c-11.2-10.7-29.1-10.5-40.2,0.4
						c-2.4,2.4-4,5.3-4.9,8.4c-0.2,0.6-0.2,1-0.2,1.2l0,0l0,0v38.8h11.4v-38.2l0,0c6.9-9.6,21.3-9.6,28.2,0v38.2h11.4v-38.2
						c6.9-9.6,21.3-9.6,28.2,0l0,0v38.2h11.4v-38.8C3763.1,378.9,3763,378.5,3762.8,377.9z"/>
					<path class="st5" d="M2777.3,406.5L2777.3,406.5c-2.9,0-5.7-1.9-5.7-5.7l0,0v-39.6h-11.4v39.6c0,11.4,8.6,17.1,17.1,17.1h42.1
						v-11.4H2777.3z"/>
					<rect x="2894.9" y="361.1" class="st5" width="11.4" height="56.8"/>
					<rect x="3044.4" y="361.1" class="st5" width="11.4" height="56.8"/>
					<polygon class="st5" points="2889.9,361.1 2862.9,361.1 2851.5,361.1 2824.1,361.1 2824.1,372.5 2851.5,372.5 2851.5,417.9 
						2862.9,417.9 2862.9,372.5 2889.9,372.5 					"/>
					<polygon class="st5" points="3593.9,361.1 3566.9,361.1 3555.5,361.1 3528.1,361.1 3528.1,372.5 3555.5,372.5 3555.5,417.9 
						3566.9,417.9 3566.9,372.5 3593.9,372.5 					"/>
					<path class="st5" d="M2743.5,361.1v39.6l0,0c0,3.8-2.9,5.7-5.7,5.7l0,0h-35.5l0,0c-2.9,0-5.7-1.9-5.7-5.7l0,0v-39.6h-11.4v39.6
						c0,11.4,8.6,17.1,17.1,17.1h35.5c8.6,0,17.1-5.7,17.1-17.1v-39.6H2743.5z"/>
					<path class="st5" d="M3114,361.1h-40.9h-9.6h-1.8v56.8h1.8h9.6h40.9c11.4,0,17.1-8.6,17.1-17.1v-22.5
						C3131.1,369.7,3125.4,361.1,3114,361.1z M3114,406.5h-40.9v-33.9h40.9l0,0c3.8,0,5.7,2.9,5.7,5.7l0,0v22.5l0,0
						C3119.7,403.6,3117.8,406.5,3114,406.5z"/>
					<path class="st5" d="M3203.7,372.5v-11.4h-50.5c-11.4,0-17.1,8.6-17.1,17.1v22.5c0,8.6,5.7,17.1,17.1,17.1h50.5v-11.4h-50.5
						c-3.8,0-5.7-2.9-5.7-5.7l0,0v-5.5h55.9v-11.4h-55.9v-5.5l0,0c0-2.9,1.9-5.7,5.7-5.7l0,0H3203.7z"/>
					<path class="st5" d="M3666.2,372.5v-11.4h-50.5c-11.4,0-17.1,8.6-17.1,17.1v22.5c0,8.6,5.7,17.1,17.1,17.1h50.5v-11.4h-50.5
						c-3.8,0-5.7-2.9-5.7-5.7l0,0v-5.5h55.9v-11.4H3610v-5.5l0,0c0-2.9,1.9-5.7,5.7-5.7l0,0H3666.2z"/>
					<path class="st5" d="M3326.6,372.5h50.2v-11.4h-50.2l0,0c-22.7,0-22.7,34.1,0,34.1l0,0h33.2l0,0c7.5,0,7.5,11.3,0,11.3l0,0
						h-50.2v11.4h50.2l0,0c22.7,0,22.7-34.1,0-34.1h-33.2C3319.1,383.8,3319.1,372.5,3326.6,372.5z"/>
					<path class="st5" d="M3472.3,372.5h50.2v-11.4h-50.2l0,0c-22.7,0-22.7,34.1,0,34.1l0,0h33.2l0,0c7.5,0,7.5,11.3,0,11.3l0,0
						h-50.2v11.4h50.2l0,0c22.7,0,22.7-34.1,0-34.1h-33.2C3464.8,383.8,3464.8,372.5,3472.3,372.5z"/>
					<path class="st5" d="M3260.7,361.1L3260.7,361.1L3260.7,361.1h-35.8l0,0l0,0c-11.4,0-17.1,8.6-17.1,17.1v22.5
						c0,8.6,5.7,17.1,17.1,17.1l0,0l0,0h35.8l0,0l0,0c11.4,0,17.1-8.6,17.1-17.1v-22.5C3277.8,369.7,3272.1,361.1,3260.7,361.1z
						 M3224.9,406.5c-3.8,0-5.7-2.9-5.7-5.7l0,0v-22.5l0,0c0-2.9,1.9-5.7,5.7-5.7h35.8c3.8,0,5.7,2.9,5.7,5.7l0,0v22.5l0,0
						c0,2.9-1.9,5.7-5.7,5.7H3224.9z"/>
					<polygon class="st5" points="3026.1,361.1 3000.3,404.1 2974.4,361.1 2961.1,361.1 2995.2,417.9 3005.3,417.9 3039.4,361.1 
											"/>
				</g>
			</g>
			<path class="st4" d="M3439.7,361.3V379c0,2.9-1.9,5.7-5.7,5.7h-34.5c-3.8,0-5.7-2.9-5.7-5.7v-17.7h-11.4V379
				c0,8.6,5.7,17.1,17.1,17.1h11.5v21.6h11.4v-21.6h11.5c11.4,0,17.1-8.6,17.1-17.1v-17.7H3439.7z"/>
		</g>
	</g>
</g>
</svg>
