<?xml version="1.0" encoding="utf-8"?>
<!-- Generator: Adobe Illustrator 26.5.0, SVG Export Plug-In . SVG Version: 6.00 Build 0)  -->
<svg version="1.1" id="Layer_1" xmlns="http://www.w3.org/2000/svg" xmlns:xlink="http://www.w3.org/1999/xlink" x="0px" y="0px"
	 viewBox="0 0 3839 1079.81" style="enable-background:new 0 0 3839 1079.81;" xml:space="preserve">
<style type="text/css">
	.st0{fill:#FFFFFF;}
	.st1{fill:#00A4EE;}
</style>
<g>
	<g>
		<path class="st0" d="M1124.73,407.31c-4.4-13.53-12.57-25.2-23.63-33.76c-12.07-9.34-26.77-14.28-42.49-14.28H832.48
			c3.04-4.86,5.4-10.22,6.9-16c3.85-14.8,1.7-30.21-6.05-43.4c-7.75-13.18-20.16-22.56-34.96-26.41
			c-34.96-9.08-69.23-15.25-101.18-19.37l-33.24-102.29h0L630.23,48.04c-4.86-14.95-14.09-27.4-26.71-36
			C591.97,4.16,578.34,0,564.11,0c-14.23,0-27.85,4.16-39.41,12.04c-12.61,8.6-21.85,21.05-26.71,36l-69.87,215.04
			c-3.71-4.41-8.09-8.29-13.09-11.48c-9.22-5.89-19.87-9-30.79-9c-19.66,0-37.7,9.88-48.28,26.44
			c-19.46,30.48-35.91,61.25-49.64,90.25H178.72h-5.25H69.61c-15.72,0-30.42,4.94-42.49,14.28c-11.06,8.55-19.23,20.23-23.63,33.76
			c-4.4,13.53-4.65,27.78-0.73,41.2c4.28,14.65,13.26,27.28,25.98,36.53L211.7,617.96c-5.39,2.17-10.45,5.15-14.99,8.88
			c-24.38,20.05-27.9,56.2-7.85,80.58c22.97,27.93,47.16,53.08,70.49,75.1l-34.87,107.33l-32.1,98.78
			c-6.97,21.47-3.48,44.09,9.58,62.06c13.25,18.23,34.43,29.12,56.68,29.12c14.53,0,28.61-4.65,40.72-13.46L482.3,933.44
			c0.39,5.69,1.63,11.41,3.82,17c8.67,22.07,29.59,36.33,53.3,36.33c7.17,0,14.21-1.33,20.92-3.97
			c33.66-13.22,65.06-28.44,93.2-43.83l91.3,66.33l0,0l84.03,61.05c12.11,8.8,26.2,13.45,40.72,13.46c0,0,0,0,0.01,0
			c22.24,0,43.43-10.88,56.67-29.11c13.06-17.98,16.55-40.6,9.58-62.07l-69.87-215.05c4.45,1.12,9.1,1.71,13.88,1.71
			c1.14,0,2.31-0.03,3.46-0.1c15.26-0.92,29.26-7.72,39.4-19.16c10.15-11.44,15.23-26.15,14.31-41.41
			c-2.17-36.1-6.95-70.66-12.88-102.19l87.05-63.25v0l88.28-64.14c12.72-9.24,21.71-21.87,25.98-36.53
			C1129.38,435.09,1129.13,420.84,1124.73,407.31z"/>
		<g>
			<g>
				<g>
					<g>
						<path class="st1" d="M165.28,498.61c-12.01-36.59-17.7-73.16-17.06-109.36H69.61c-38.31,0-54.24,49.03-23.25,71.55
							l150.39,109.26C183.62,546.28,173.1,522.42,165.28,498.61z"/>
						<path class="st1" d="M908.25,472.79c-36.55-26.38-81.9-47.24-134.82-61.99c-94.54-26.36-186-26.15-220.93-24.84
							c-15.03,0.58-27.72-11.18-28.29-26.24c-0.57-15.06,11.18-27.72,26.24-28.29c25.49-0.96,79.05-1.36,142.76,7.42l-50.32-154.86
							c-29.17,8.8-57.08,22.88-83.4,42.13c-36.38,26.6-70.23,63.3-100.62,109.06c-54.29,81.77-82.35,168.81-91.9,202.44
							c-3.41,12-14.34,19.84-26.23,19.84c-2.47,0-4.97-0.34-7.46-1.04c-14.49-4.11-22.91-19.2-18.79-33.69
							c6.97-24.54,23.14-75.6,51.17-133.48H202.82c-0.64,30.47,4.12,61.35,14.3,92.34c14.06,42.82,38.5,86.36,72.63,129.4
							c60.99,76.9,135.1,130.49,164.14,149.96c12.51,8.39,15.85,25.34,7.46,37.85c-5.26,7.85-13.89,12.09-22.68,12.09
							c-5.22,0-10.51-1.5-15.17-4.63c-21.18-14.21-64.75-45.37-111.14-89.91L262.04,871.2c28.49,9.93,59.01,14.94,91.27,14.94
							c0.33,0,0.64,0,0.97,0c45.07-0.14,94.03-9.93,145.51-29.09c91.98-34.24,165.85-88.17,193.34-109.76
							c11.85-9.31,29-7.25,38.31,4.6c9.31,11.85,7.25,29-4.6,38.3c-20.06,15.76-63.15,47.56-119.85,77.91l131.73,95.71
							c18.43-24.27,32.73-52.06,42.71-83.11c13.79-42.91,19.61-92.49,17.3-147.38c-4.14-98.06-32.6-184.98-44.64-217.8
							c-5.19-14.14,2.07-29.82,16.21-35.01c14.14-5.19,29.82,2.07,35.01,16.21c8.79,23.95,25.72,74.76,37.06,138.07l131.73-95.71
							C956.7,514.07,934.69,491.88,908.25,472.79z"/>
						<path class="st1" d="M527.28,182.08c31.08-22.73,64.11-39.44,98.74-50.02L601.73,57.3c-11.84-36.44-63.39-36.44-75.23,0
							l-57.44,176.79C487.6,214.26,507.05,196.87,527.28,182.08z"/>
						<path class="st1" d="M1058.61,389.25H872.72c24.59,11.51,47.14,24.64,67.46,39.3c31.22,22.54,57.32,48.79,78.08,78.45
							l63.6-46.21C1112.85,438.27,1096.92,389.25,1058.61,389.25z"/>
						<path class="st1" d="M354.45,940.7c-0.38,0-0.77,0-1.15,0c-38.09,0-74.24-5.89-108.13-17.57l-24.29,74.76
							c-11.84,36.44,29.86,66.74,60.86,44.22l150.39-109.26C405.46,937.99,379.51,940.62,354.45,940.7z"/>
						<path class="st1" d="M849.9,821.1c-3.35,26.95-8.86,52.45-16.53,76.3c-11.79,36.66-28.69,69.59-50.48,98.5l63.6,46.21
							c31,22.52,72.7-7.78,60.86-44.22L849.9,821.1z"/>
					</g>
					<path class="st1" d="M408.28,856.19c-5.22,0-10.51-1.5-15.17-4.63c-31.44-21.08-112.02-79.19-181.1-163.18
						c-9.57-11.64-7.9-28.83,3.74-38.4c11.64-9.57,28.83-7.9,38.4,3.74c64.48,78.4,139.91,132.79,169.35,152.53
						c12.51,8.39,15.85,25.34,7.46,37.85C425.7,851.95,417.07,856.19,408.28,856.19z"/>
				</g>
			</g>
			<path class="st1" d="M288.25,542.56c-2.47,0-4.97-0.34-7.46-1.04c-14.49-4.11-22.91-19.2-18.79-33.69
				c10.34-36.42,40.7-131.01,99.23-222.66c8.11-12.7,24.98-16.42,37.68-8.31c12.7,8.11,16.42,24.98,8.31,37.68
				c-54.64,85.55-83.05,174.1-92.73,208.2C311.08,534.73,300.14,542.56,288.25,542.56z"/>
			<path class="st1" d="M539.42,956.8c-10.89,0-21.18-6.57-25.4-17.32c-5.51-14.02,1.4-29.86,15.42-35.36
				c94.49-37.1,169.52-92.03,197.4-113.93c11.85-9.31,29-7.25,38.31,4.6c9.31,11.85,7.25,29-4.6,38.31
				c-29.77,23.39-109.94,82.07-211.16,121.81C546.11,956.19,542.73,956.8,539.42,956.8z"/>
			<path class="st1" d="M879.86,745.32c-14.32,0-26.34-11.16-27.21-25.65c-6.08-101.33-35.14-189.66-47.36-222.94
				c-5.19-14.14,2.07-29.82,16.21-35.01c14.15-5.19,29.82,2.07,35.01,16.21c13.04,35.54,44.08,129.92,50.6,238.47
				c0.9,15.04-10.56,27.96-25.6,28.87C880.96,745.3,880.41,745.32,879.86,745.32z"/>
			<path class="st1" d="M783.99,356.17c-2.27,0-4.58-0.29-6.88-0.88c-98.26-25.53-191.24-25.19-226.66-23.85
				c-15.06,0.56-27.72-11.18-28.29-26.24c-0.57-15.06,11.18-27.72,26.24-28.29c37.83-1.42,137.17-1.78,242.43,25.57
				c14.58,3.79,23.33,18.68,19.54,33.26C807.18,348.03,796.11,356.17,783.99,356.17z"/>
		</g>
	</g>
	<g>
		<polygon points="3211.88,281.84 3208.47,339.95 3409.26,339.95 3412.68,281.84 		"/>
	</g>
	<g>
		<g>
			<polygon points="1489.24,801.57 1393.42,801.57 1417.63,389.27 1513.45,389.27 			"/>
			<polygon points="1488.42,466.37 1245.32,466.37 1249.85,389.27 1488.42,389.27 			"/>
			<g>
				<polygon points="1612.32,389.27 1612.32,466.37 1848.87,466.37 1853.39,389.27 				"/>
			</g>
			<path d="M1622.06,711.87l18.94-322.6h-95.82l-19.77,336.72c-2.41,41,30.2,75.58,71.27,75.58h232.95l4.53-77.1h-200.22
				C1627.09,724.47,1621.66,718.7,1622.06,711.87z"/>
			<polygon points="1812.33,627.42 1590.96,627.42 1590.96,550.32 1816.37,550.32 			"/>
			<polygon points="2328.83,801.57 2233.01,801.57 2257.22,389.27 2353.03,389.27 			"/>
			<polygon points="2641.4,801.57 2545.58,801.57 2569.79,389.27 2665.61,389.27 			"/>
			<path d="M3678.44,460.89h146.07l4.21-71.62h-189.97c-57.78,0-105.43,122.48-30.25,185.35l125.81,105.21
				c18.1,15.14,7.4,44.63-16.2,44.63h-164.49l-4.53,77.1h181.3c101.29,0,147.24-126.57,69.54-191.55L3665.2,497.35
				C3650.41,484.98,3659.16,460.89,3678.44,460.89z"/>
			<polygon points="2577.11,627.42 2302.99,627.42 2302.99,550.32 2582.11,550.32 			"/>
			<g>
				<path d="M2050.56,724.46c-58.73,0-103.25-50.57-103.25-127.62c0-70.58,48.75-130.47,107.49-130.47h166.64l4.53-77.1H2044.5
					c-96.98,0-191.03,82.24-191.03,207.57c0,133.83,66.56,204.72,174.95,204.72h177.95l4.52-77.1L2050.56,724.46z"/>
			</g>
			<path d="M2699.78,389.27l-24.21,412.3h95.82l20.01-340.67h152.17c6.84,0,12.28,5.76,11.88,12.59l-19.27,328.08H3032l19.77-336.72
				c2.41-41-30.2-75.58-71.27-75.58H2699.78z"/>
			<path d="M3059.02,580.37l-0.53,8.97c-6.9,117.51,86.53,216.59,204.24,216.59H3333c113.9,0,208.05-88.79,214.73-202.49l0.53-8.97
				c6.9-117.51-86.53-216.59-204.24-216.59h-70.27C3159.85,377.88,3065.7,466.67,3059.02,580.37z M3319.99,734.3h-44.64
				c-70.28,0-126.07-59.16-121.95-129.32l1.85-31.45c4.09-69.65,61.76-124.03,131.53-124.03h44.64
				c70.28,0,126.07,59.16,121.95,129.32l-1.85,31.45C3447.42,679.91,3389.75,734.3,3319.99,734.3z"/>
		</g>
		<g>
			<g>
				<path d="M2681.6,890.11h-90.12l-1.63,27.75h77.44c2.65,0,4.76,2.23,4.6,4.88l-7.47,127.12h37.13l7.66-130.47
					C2710.15,903.5,2697.52,890.11,2681.6,890.11z"/>
				<path d="M2684.07,975.61v-27.27h-73.22c-20.68,0-37.81,22.37-39.22,46.12c-1.78,30.05,20.6,55.4,50.71,55.4h55.08
					c0.04-0.17,6.65-29.87,6.65-29.87h-61.87c-13.22,0-19.42-12.54-18.72-24.32c1.07-18.1,13.42-19.57,24.43-19.57L2684.07,975.61z"
					/>
			</g>
			<g>
				<g>
					<polygon points="3786.49,1019.99 3784.74,1049.87 3821.87,1049.87 3823.62,1019.99 					"/>
				</g>
				<g>
					<path d="M3287.09,1019.99c-22.76,0-40.01-19.59-40.01-49.45c0-27.35,18.89-50.56,41.65-50.56h64.57l1.75-29.88h-70.32
						c-37.58,0-74.02,31.86-74.02,80.43c0,51.86,25.79,79.33,67.79,79.33h68.95l1.75-29.88L3287.09,1019.99z"/>
				</g>
				<path d="M2558.26,890.11h-37.13l-7.38,125.66c-0.14,2.37-2.1,4.22-4.47,4.22l-58.37,0l-1.75,29.88h65.4
					c19.28,0,35.21-15.03,36.34-34.27L2558.26,890.11z"/>
				<path d="M2999.97,890.11l-9.38,159.76h37.13l7.75-132.01h58.96c2.65,0,4.76,2.23,4.6,4.88l-7.47,127.12h37.13l7.66-130.47
					c0.93-15.89-11.7-29.28-27.62-29.28H2999.97z"/>
				<path d="M3352.1,964.16l-0.2,3.47c-2.67,45.53,33.53,83.92,79.14,83.92h27.23c44.13,0,80.62-34.4,83.2-78.46l0.2-3.47
					c2.67-45.53-33.53-83.92-79.14-83.92h-27.23C3391.17,885.69,3354.69,920.1,3352.1,964.16z M3453.22,1023.8h-17.3
					c-27.23,0-48.85-22.92-47.25-50.11l0.72-12.19c1.58-26.99,23.93-48.06,50.96-48.06h17.3c27.23,0,48.85,22.92,47.25,50.11
					l-0.72,12.19C3502.6,1002.73,3480.25,1023.8,3453.22,1023.8z"/>
				<g>
					<g>
						<polygon points="3637.5,971.56 3596.81,971.56 3636.82,1049.87 3677.51,1049.87 						"/>
					</g>
				</g>
				<g>
					<polygon points="2751.12,1049.87 2713.99,1049.87 2723.37,890.11 2760.5,890.11 					"/>
					<g>
						<path d="M2807.08,890.11h-71.88c-0.04,0.17-6.86,30.07-6.86,30.07h61.87c13.22,0.09,25.23,5.81,24.45,17.58
							c-1.2,18.09-13.46,19.48-24.47,19.4l-19.84,0.03l-1.62,27.57l38.32,0.27c20.68,0.15,37.97-22.1,39.54-45.84
							C2848.59,909.15,2837.55,890.11,2807.08,890.11z"/>
					</g>
				</g>
				<g>
					<polygon points="3726.68,1049.87 3689.55,1049.87 3698.93,890.11 3736.06,890.11 					"/>
					<g>
						<path d="M3782.65,890.11h-71.88c-0.04,0.17-6.86,30.07-6.86,30.07h61.87c13.22,0.09,25.23,5.81,24.45,17.58
							c-1.2,18.09-13.46,19.48-24.47,19.4l-19.84,0.03l-1.62,27.57l38.32,0.27c20.68,0.15,37.97-22.1,39.54-45.84
							C3824.16,909.15,3813.12,890.11,3782.65,890.11z"/>
					</g>
				</g>
				<g>
					<polygon points="3582.76,1049.87 3545.63,1049.87 3555.01,890.11 3592.14,890.11 					"/>
					<g>
						<path d="M3638.72,890.11h-71.88c-0.04,0.17-6.86,30.07-6.86,30.07h61.87c13.22,0.09,25.23,5.81,24.45,17.58
							c-1.2,18.09-13.46,19.48-24.47,19.4l-39.11,0.03l-4.5,27.57l60.47,0.27c20.68,0.15,37.97-22.1,39.54-45.84
							C3680.24,909.15,3669.2,890.11,3638.72,890.11z"/>
					</g>
				</g>
				<g>
					<path d="M2953.35,890.11h-90.12l-1.63,27.75h77.44c2.65,0,4.76,2.23,4.6,4.88l-7.47,127.12h37.13l7.66-130.47
						C2981.9,903.5,2969.27,890.11,2953.35,890.11z"/>
					<path d="M2955.81,975.61v-27.27h-73.22c-20.68,0-37.81,22.37-39.22,46.12c-1.78,30.05,20.6,55.4,50.71,55.4h55.08
						c0.04-0.17,6.65-29.87,6.65-29.87h-61.87c-13.22,0-19.42-12.54-18.72-24.32c1.07-18.1,13.42-19.57,24.43-19.57L2955.81,975.61z
						"/>
				</g>
				<g>
					<polygon points="1480.98,1049.87 1443.85,1049.87 1453.23,890.11 1490.36,890.11 					"/>
					<polygon points="1480.66,919.98 1386.47,919.98 1388.22,890.11 1480.66,890.11 					"/>
					<g>
						<polygon points="1528.67,890.11 1528.67,919.98 1620.33,919.98 1622.08,890.11 						"/>
					</g>
					<path d="M1532.45,1015.11l7.34-125h-37.13l-7.66,130.47c-0.93,15.89,11.7,29.28,27.62,29.28h90.26l1.75-29.88h-77.58
						C1534.4,1019.99,1532.29,1017.76,1532.45,1015.11z"/>
					<polygon points="1606.17,982.39 1520.39,982.39 1520.39,952.51 1607.74,952.51 					"/>
					<polygon points="1806.3,1049.87 1769.18,1049.87 1778.56,890.11 1815.68,890.11 					"/>
					<polygon points="1927.42,1049.87 1890.29,1049.87 1899.67,890.11 1936.8,890.11 					"/>
					<path d="M2329.25,917.86h56.6l1.63-27.75h-73.61c-22.39,0-40.85,47.46-11.72,71.82l48.75,40.77
						c7.01,5.87,2.87,17.29-6.28,17.29h-63.74l-1.75,29.88h70.25c39.25,0,57.05-49.04,26.95-74.22l-52.2-43.66
						C2318.39,927.2,2321.78,917.86,2329.25,917.86z"/>
					<polygon points="1902.51,982.39 1796.29,982.39 1796.29,952.51 1904.45,952.51 					"/>
					<g>
						<path d="M1698.48,1019.99c-22.76,0-40.01-19.59-40.01-49.45c0-27.35,18.89-50.56,41.65-50.56h64.57l1.75-29.88h-70.32
							c-37.58,0-74.02,31.86-74.02,80.43c0,51.86,25.79,79.33,67.79,79.33h68.95l1.75-29.88L1698.48,1019.99z"/>
					</g>
					<path d="M1950.04,890.11l-9.38,159.76h37.13l7.75-132.01h58.96c2.65,0,4.76,2.23,4.6,4.88l-7.47,127.12h37.13l7.66-130.47
						c0.93-15.89-11.7-29.28-27.62-29.28H1950.04z"/>
					<g>
						<polygon points="2148.47,848.49 2147.14,871 2224.95,871 2226.27,848.49 						"/>
					</g>
					<path d="M2089.24,964.16l-0.2,3.47c-2.67,45.53,33.53,83.92,79.14,83.92h27.23c44.13,0,80.62-34.4,83.2-78.46l0.2-3.47
						c2.67-45.53-33.53-83.92-79.14-83.92h-27.23C2128.31,885.69,2091.83,920.1,2089.24,964.16z M2190.36,1023.8h-17.3
						c-27.23,0-48.85-22.92-47.25-50.11l0.72-12.19c1.58-26.99,23.93-48.06,50.96-48.06h17.3c27.23,0,48.85,22.92,47.25,50.11
						l-0.72,12.19C2239.74,1002.73,2217.39,1023.8,2190.36,1023.8z"/>
				</g>
			</g>
		</g>
	</g>
</g>
</svg>
