<?xml version="1.0" encoding="utf-8"?>
<!-- Generator: Adobe Illustrator 26.3.1, SVG Export Plug-In . SVG Version: 6.00 Build 0)  -->
<svg version="1.1"
	 id="svg2" xmlns:cc="http://creativecommons.org/ns#" xmlns:dc="http://purl.org/dc/elements/1.1/" xmlns:sodipodi="http://sodipodi.sourceforge.net/DTD/sodipodi-0.dtd" xmlns:rdf="http://www.w3.org/1999/02/22-rdf-syntax-ns#" xmlns:inkscape="http://www.inkscape.org/namespaces/inkscape" xmlns:svg="http://www.w3.org/2000/svg"
	 xmlns="http://www.w3.org/2000/svg" xmlns:xlink="http://www.w3.org/1999/xlink" x="0px" y="0px" viewBox="0 0 3839 872"
	 style="enable-background:new 0 0 3839 872;" xml:space="preserve">
<style type="text/css">
	.st0{fill:#FF0000;}
	.st1{fill:#FFFFFF;}
</style>
<g>
	<polygon class="st0" points="1681.5,269.8 1730.3,269.8 1730.3,602.2 1681.5,602.2 1681.5,872 2052.5,872 2052.5,645.9 
		2052.5,602.2 2052.5,540.8 1972.4,540.8 1972.4,602.2 1824.7,602.2 1824.7,476 1892.4,476 1892.4,540.8 1972.4,540.8 1972.4,331.2 
		1892.4,331.2 1892.4,396 1824.7,396 1824.7,269.8 1972.4,269.8 1972.4,331.2 2052.5,331.2 2052.5,269.8 2052.5,245.4 2052.5,0 
		1681.5,0 	"/>
	<path class="st0" d="M2389.5,0h-275.9v269.8h48.7v332.4h-48.7V872h191.9V602.2h-48.7V476h26.3l96.4,395.7v0.3H2481V602.2h-69.9
		L2380.3,476h8.9c52.6,0,95.3-42.7,95.3-95.3l0-49.3l0.2-0.2V216.8h-0.1l0.1-121.5C2484.8,42.7,2442.1,0,2389.5,0z M2390.3,366.1
		c0,16.5-13.4,29.9-29.9,29.9h-103.7V269.8l103.7,0c16.5,0,29.9,13.4,29.9,29.9V366.1z"/>
	<polygon class="st0" points="943,269.8 991.7,269.8 991.7,602.2 943,602.2 943,872 1134.9,872 1134.9,602.2 1086.2,602.2 
		1086.2,269.8 1134.9,269.8 1134.9,0 943,0 	"/>
	<polygon class="st0" points="3744.5,524.3 3744.5,602.2 3601.2,602.2 3601.2,269.8 3649.9,269.8 3649.9,0 3458,0 3458,269.8 
		3506.8,269.8 3506.8,602.2 3458,602.2 3458,872 3839,872 3839,627.1 3839,602.2 3839,524.3 	"/>
	<polygon class="st0" points="1419.7,269.8 1461.1,269.8 1405.5,602.2 1405.5,602.2 1349.9,269.8 1391.2,269.8 1391.2,0 1199.3,0 
		1199.3,269.8 1254.1,269.8 1309.7,602.2 1282.9,602.2 1282.9,872 1528,872 1528,602.2 1501.2,602.2 1556.9,269.8 1611.6,269.8 
		1611.6,0 1419.7,0 	"/>
	<path class="st0" d="M681.8,269.8L603.9,0H581v0H471.8v269.8h48.7v332.4h-48.7V872h191.9V602.2L741.6,872h114v0h18.1V602.2h-48.7
		V269.8h48.7V0H681.8V269.8z M614.9,602.2V433.4l48.7,168.8H614.9z M730.5,438.6l-48.7-168.8h48.7V438.6z"/>
	<path class="st0" d="M220.4,269.8h48.7v295.8c0,20.2-16.4,36.6-36.6,36.6h-52.7c-20.2,0-36.6-16.4-36.6-36.6V269.8h48.7V0H0v269.8
		h48.7v332.4v26.7v141.2c0,56.3,45.6,101.9,101.9,101.9h111c56.3,0,101.9-45.6,101.9-101.9V628.9v-26.7V269.8h48.7V0H220.4V269.8z"
		/>
	<path class="st0" d="M3273.5,269.8h37.8V0h-245.1v269.8h37.8l-81,332.4h-40.4V872h191.9V602.2h-54.3l18.5-75.8h100.1l18.5,75.8
		H3203V872h191.9V602.2h-40.4L3273.5,269.8z M3158.2,446.3l30.5-125.2l30.5,125.2H3158.2z"/>
	<path class="st0" d="M2831.2,28.1c-18.3-17.4-43-28.1-70.3-28.1h-141.7c-40.7,0-73.7,33-73.7,73.7v137.4v58.6v41.5
		c0,37.1,21.4,71,54.9,86.9l200.4,95.3c12.9,6.2,21.2,19.2,21.2,33.6v45.2c0,16.5-13.4,29.9-29.9,29.9h-122.3
		c-16.5,0-29.9-13.4-29.9-29.9v-48h-94.5V872h94.5v-20.4c17.1,12.7,38.2,20.4,61.1,20.4h141.7c40.7,0,73.7-33,73.7-73.7V688.8V548.6
		v-27.8c0-37.1-21.4-71-54.9-86.9l-200.4-95.3c-12.9-6.2-21.2-19.2-21.2-33.6v-5.3c0-16.5,13.4-29.9,29.9-29.9h131.4
		c16.5,0,29.9,13.4,29.9,29.9v28.6h85.3V0h-85.3V28.1z"/>
</g>
</svg>
